{
  "track_name": "08 - Dance Tune",
  "duration_sec": 153.74,
  "sample_rate": 44100,
  "note_count": 3156,
  "unique_pitches": 30,
  "pitch_range": 60,
  "avg_note_duration": 0.1294,
  "reconstruction_stats": {
    "notes_reconstructed": 3156,
    "keyon_events": 3156,
    "keyoff_events": 3156,
    "orphan_keyons": 0,
    "unique_pitches": 30,
    "pitch_range": 60,
    "avg_duration_sec": 0.1294
  },
  "metadata": {
    "source": "G\\Global Gladiators\\08 - Dance Tune.vgm"
  },
  "notes": [
    {
      "channel": 2,
      "note": 81,
      "start": 0.4603,
      "duration": 0.0942,
      "velocity": 95,
      "chip": "ym2612"
    },
    {
      "channel": 0,
      "note": 96,
      "start": 0.5474,
      "duration": 0.1537,
      "velocity": 95,
      "chip": "ym2612"
    },
    {
      "channel": 1,
      "note": 93,
      "start": 0.5498,
      "duration": 0.1514,
      "velocity": 95,
      "chip": "ym2612"
    },
    {
      "channel": 3,
      "note": 88,
      "start": 0.5522,
      "duration": 0.1492,
      "velocity": 95,
      "chip": "ym2612"
    },
    {
      "channel": 0,
      "note": 81,
      "start": 0.7046,
      "duration": 0.1465,
      "velocity": 95,
      "chip": "ym2612"
    },
    {
      "channel": 1,
      "note": 96,
      "start": 0.8214,
      "duration": 0.2464,
      "velocity": 95,
      "chip": "ym2612"
    },
    {
      "channel": 3,
      "note": 88,
      "start": 0.8239,
      "duration": 0.2273,
      "velocity": 95,
      "chip": "ym2612"
    },
    {
      "channel": 2,
      "note": 93,
      "start": 0.8267,
      "duration": 0.258,
      "velocity": 95,
      "chip": "ym2612"
    },
    {
      "channel": 0,
      "note": 81,
      "start": 1.0544,
      "duration": 0.1468,
      "velocity": 95,
      "chip": "ym2612"
    },
    {
      "channel": 1,
      "note": 96,
      "start": 1.1711,
      "duration": 0.2467,
      "velocity": 95,
      "chip": "ym2612"
    },
    {
      "channel": 3,
      "note": 88,
      "start": 1.1737,
      "duration": 0.2276,
      "velocity": 95,
      "chip": "ym2612"
    },
    {
      "channel": 2,
      "note": 93,
      "start": 1.1768,
      "duration": 0.2579,
      "velocity": 95,
      "chip": "ym2612"
    },
    {
      "channel": 0,
      "note": 81,
      "start": 1.4044,
      "duration": 0.13,
      "velocity": 95,
      "chip": "ym2612"
    },
    {
      "channel": 1,
      "note": 88,
      "start": 1.5211,
      "duration": 0.23,
      "velocity": 95,
      "chip": "ym2612"
    },
    {
      "channel": 3,
      "note": 96,
      "start": 1.5236,
      "duration": 0.2443,
      "velocity": 95,
      "chip": "ym2612"
    },
    {
      "channel": 2,
      "note": 93,
      "start": 1.5264,
      "duration": 0.2583,
      "velocity": 95,
      "chip": "ym2612"
    },
    {
      "channel": 0,
      "note": 81,
      "start": 1.7548,
      "duration": 0.0963,
      "velocity": 95,
      "chip": "ym2612"
    },
    {
      "channel": 0,
      "note": 88,
      "start": 1.8544,
      "duration": 0.2134,
      "velocity": 95,
      "chip": "ym2612"
    },
    {
      "channel": 1,
      "note": 93,
      "start": 1.8569,
      "duration": 0.2609,
      "velocity": 95,
      "chip": "ym2612"
    },
    {
      "channel": 3,
      "note": 96,
      "start": 1.8595,
      "duration": 0.2249,
      "velocity": 95,
      "chip": "ym2612"
    },
    {
      "channel": 0,
      "note": 77,
      "start": 2.0874,
      "duration": 0.2303,
      "velocity": 95,
      "chip": "ym2612"
    },
    {
      "channel": 0,
      "note": 89,
      "start": 2.321,
      "duration": 0.2134,
      "velocity": 95,
      "chip": "ym2612"
    },
    {
      "channel": 1,
      "note": 96,
      "start": 2.3234,
      "duration": 0.2112,
      "velocity": 95,
      "chip": "ym2612"
    },
    {
      "channel": 3,
      "note": 93,
      "start": 2.3259,
      "duration": 0.2088,
      "velocity": 95,
      "chip": "ym2612"
    },
    {
      "channel": 0,
      "note": 77,
      "start": 2.5546,
      "duration": 0.1298,
      "velocity": 95,
      "chip": "ym2612"
    },
    {
      "channel": 1,
      "note": 89,
      "start": 2.671,
      "duration": 0.2301,
      "velocity": 95,
      "chip": "ym2612"
    },
    {
      "channel": 3,
      "note": 93,
      "start": 2.6734,
      "duration": 0.2279,
      "velocity": 95,
      "chip": "ym2612"
    },
    {
      "channel": 2,
      "note": 96,
      "start": 2.6762,
      "duration": 0.2419,
      "velocity": 95,
      "chip": "ym2612"
    },
    {
      "channel": 0,
      "note": 77,
      "start": 2.9044,
      "duration": 0.13,
      "velocity": 95,
      "chip": "ym2612"
    },
    {
      "channel": 1,
      "note": 89,
      "start": 3.0211,
      "duration": 0.2301,
      "velocity": 95,
      "chip": "ym2612"
    },
    {
      "channel": 3,
      "note": 93,
      "start": 3.0238,
      "duration": 0.2275,
      "velocity": 95,
      "chip": "ym2612"
    },
    {
      "channel": 2,
      "note": 96,
      "start": 3.0266,
      "duration": 0.2413,
      "velocity": 95,
      "chip": "ym2612"
    },
    {
      "channel": 0,
      "note": 77,
      "start": 3.2545,
      "duration": 0.13,
      "velocity": 95,
      "chip": "ym2612"
    },
    {
      "channel": 1,
      "note": 89,
      "start": 3.371,
      "duration": 0.2302,
      "velocity": 95,
      "chip": "ym2612"
    },
    {
      "channel": 3,
      "note": 93,
      "start": 3.3734,
      "duration": 0.2279,
      "velocity": 95,
      "chip": "ym2612"
    },
    {
      "channel": 2,
      "note": 96,
      "start": 3.3762,
      "duration": 0.2585,
      "velocity": 95,
      "chip": "ym2612"
    },
    {
      "channel": 0,
      "note": 77,
      "start": 3.6049,
      "duration": 0.113,
      "velocity": 95,
      "chip": "ym2612"
    },
    {
      "channel": 0,
      "note": 89,
      "start": 3.7211,
      "duration": 0.1633,
      "velocity": 95,
      "chip": "ym2612"
    },
    {
      "channel": 1,
      "note": 93,
      "start": 3.7236,
      "duration": 0.1776,
      "velocity": 95,
      "chip": "ym2612"
    },
    {
      "channel": 3,
      "note": 96,
      "start": 3.7262,
      "duration": 0.1916,
      "velocity": 95,
      "chip": "ym2612"
    },
    {
      "channel": 0,
      "note": 78,
      "start": 3.9542,
      "duration": 0.2469,
      "velocity": 95,
      "chip": "ym2612"
    },
    {
      "channel": 1,
      "note": 93,
      "start": 4.171,
      "duration": 0.2302,
      "velocity": 95,
      "chip": "ym2612"
    },
    {
      "channel": 3,
      "note": 98,
      "start": 4.1735,
      "duration": 0.2111,
      "velocity": 95,
      "chip": "ym2612"
    },
    {
      "channel": 2,
      "note": 90,
      "start": 4.1766,
      "duration": 0.2082,
      "velocity": 95,
      "chip": "ym2612"
    },
    {
      "channel": 0,
      "note": 78,
      "start": 4.4044,
      "duration": 0.13,
      "velocity": 95,
      "chip": "ym2612"
    },
    {
      "channel": 1,
      "note": 90,
      "start": 4.521,
      "duration": 0.2302,
      "velocity": 95,
      "chip": "ym2612"
    },
    {
      "channel": 3,
      "note": 98,
      "start": 4.5233,
      "duration": 0.228,
      "velocity": 95,
      "chip": "ym2612"
    },
    {
      "channel": 2,
      "note": 93,
      "start": 4.5262,
      "duration": 0.2418,
      "velocity": 95,
      "chip": "ym2612"
    },
    {
      "channel": 0,
      "note": 78,
      "start": 4.7545,
      "duration": 0.1299,
      "velocity": 95,
      "chip": "ym2612"
    },
    {
      "channel": 1,
      "note": 90,
      "start": 4.8714,
      "duration": 0.2131,
      "velocity": 95,
      "chip": "ym2612"
    },
    {
      "channel": 3,
      "note": 98,
      "start": 4.8738,
      "duration": 0.2109,
      "velocity": 95,
      "chip": "ym2612"
    },
    {
      "channel": 2,
      "note": 93,
      "start": 4.8766,
      "duration": 0.2248,
      "velocity": 95,
      "chip": "ym2612"
    },
    {
      "channel": 0,
      "note": 78,
      "start": 5.1044,
      "duration": 0.1133,
      "velocity": 95,
      "chip": "ym2612"
    },
    {
      "channel": 0,
      "note": 90,
      "start": 5.221,
      "duration": 0.2134,
      "velocity": 95,
      "chip": "ym2612"
    },
    {
      "channel": 1,
      "note": 93,
      "start": 5.2235,
      "duration": 0.2277,
      "velocity": 95,
      "chip": "ym2612"
    },
    {
      "channel": 3,
      "note": 98,
      "start": 5.2265,
      "duration": 0.2081,
      "velocity": 95,
      "chip": "ym2612"
    },
    {
      "channel": 0,
      "note": 78,
      "start": 5.4544,
      "duration": 0.1466,
      "velocity": 95,
      "chip": "ym2612"
    },
    {
      "channel": 1,
      "note": 93,
      "start": 5.571,
      "duration": 0.2135,
      "velocity": 95,
      "chip": "ym2612"
    },
    {
      "channel": 3,
      "note": 90,
      "start": 5.5733,
      "duration": 0.2113,
      "velocity": 95,
      "chip": "ym2612"
    },
    {
      "channel": 2,
      "note": 98,
      "start": 5.576,
      "duration": 0.2088,
      "velocity": 95,
      "chip": "ym2612"
    },
    {
      "channel": 0,
      "note": 76,
      "start": 5.8041,
      "duration": 0.2471,
      "velocity": 95,
      "chip": "ym2612"
    },
    {
      "channel": 1,
      "note": 97,
      "start": 6.0377,
      "duration": 0.1968,
      "velocity": 95,
      "chip": "ym2612"
    },
    {
      "channel": 3,
      "note": 88,
      "start": 6.04,
      "duration": 0.1946,
      "velocity": 95,
      "chip": "ym2612"
    },
    {
      "channel": 2,
      "note": 92,
      "start": 6.0432,
      "duration": 0.2247,
      "velocity": 95,
      "chip": "ym2612"
    },
    {
      "channel": 0,
      "note": 76,
      "start": 6.271,
      "duration": 0.1467,
      "velocity": 95,
      "chip": "ym2612"
    },
    {
      "channel": 1,
      "note": 92,
      "start": 6.3877,
      "duration": 0.2469,
      "velocity": 95,
      "chip": "ym2612"
    },
    {
      "channel": 3,
      "note": 88,
      "start": 6.39,
      "duration": 0.2447,
      "velocity": 95,
      "chip": "ym2612"
    },
    {
      "channel": 2,
      "note": 97,
      "start": 6.3929,
      "duration": 0.2085,
      "velocity": 95,
      "chip": "ym2612"
    },
    {
      "channel": 0,
      "note": 76,
      "start": 6.6044,
      "duration": 0.1468,
      "velocity": 95,
      "chip": "ym2612"
    },
    {
      "channel": 1,
      "note": 95,
      "start": 6.7214,
      "duration": 0.2131,
      "velocity": 95,
      "chip": "ym2612"
    },
    {
      "channel": 3,
      "note": 88,
      "start": 6.7237,
      "duration": 0.2109,
      "velocity": 95,
      "chip": "ym2612"
    },
    {
      "channel": 2,
      "note": 92,
      "start": 6.7265,
      "duration": 0.2248,
      "velocity": 95,
      "chip": "ym2612"
    },
    {
      "channel": 0,
      "note": 76,
      "start": 6.9544,
      "duration": 0.0549,
      "velocity": 95,
      "chip": "ym2612"
    },
    {
      "channel": 1,
      "note": 88,
      "start": 7.0022,
      "duration": 0.0952,
      "velocity": 95,
      "chip": "ym2612"
    },
    {
      "channel": 3,
      "note": 92,
      "start": 7.0043,
      "duration": 0.1071,
      "velocity": 95,
      "chip": "ym2612"
    },
    {
      "channel": 2,
      "note": 95,
      "start": 7.007,
      "duration": 0.1046,
      "velocity": 95,
      "chip": "ym2612"
    },
    {
      "channel": 0,
      "note": 76,
      "start": 7.1054,
      "duration": 0.0581,
      "velocity": 95,
      "chip": "ym2612"
    },
    {
      "channel": 1,
      "note": 95,
      "start": 7.152,
      "duration": 0.1178,
      "velocity": 95,
      "chip": "ym2612"
    },
    {
      "channel": 3,
      "note": 92,
      "start": 7.1542,
      "duration": 0.1323,
      "velocity": 95,
      "chip": "ym2612"
    },
    {
      "channel": 2,
      "note": 88,
      "start": 7.1566,
      "duration": 0.1302,
      "velocity": 95,
      "chip": "ym2612"
    },
    {
      "channel": 4,
      "note": 57,
      "start": 7.323,
      "duration": 0.911,
      "velocity": 116,
      "chip": "ym2612"
    },
    {
      "channel": 0,
      "note": 45,
      "start": 7.3259,
      "duration": 0.0458,
      "velocity": 127,
      "chip": "ym2612"
    },
    {
      "channel": 1,
      "note": 81,
      "start": 7.3284,
      "duration": 0.0965,
      "velocity": 95,
      "chip": "ym2612"
    },
    {
      "channel": 3,
      "note": 96,
      "start": 7.4175,
      "duration": 0.1498,
      "velocity": 95,
      "chip": "ym2612"
    },
    {
      "channel": 2,
      "note": 93,
      "start": 7.4201,
      "duration": 0.1474,
      "velocity": 95,
      "chip": "ym2612"
    },
    {
      "channel": 0,
      "note": 88,
      "start": 7.4235,
      "duration": 0.1436,
      "velocity": 95,
      "chip": "ym2612"
    },
    {
      "channel": 1,
      "note": 45,
      "start": 7.5705,
      "duration": 0.1134,
      "velocity": 127,
      "chip": "ym2612"
    },
    {
      "channel": 0,
      "note": 81,
      "start": 7.5731,
      "duration": 0.1439,
      "velocity": 95,
      "chip": "ym2612"
    },
    {
      "channel": 3,
      "note": 96,
      "start": 7.6872,
      "duration": 0.2466,
      "velocity": 95,
      "chip": "ym2612"
    },
    {
      "channel": 2,
      "note": 88,
      "start": 7.6899,
      "duration": 0.2275,
      "velocity": 95,
      "chip": "ym2612"
    },
    {
      "channel": 5,
      "note": 93,
      "start": 7.6928,
      "duration": 0.2578,
      "velocity": 95,
      "chip": "ym2612"
    },
    {
      "channel": 0,
      "note": 81,
      "start": 7.9208,
      "duration": 0.1462,
      "velocity": 95,
      "chip": "ym2612"
    },
    {
      "channel": 1,
      "note": 45,
      "start": 8.0366,
      "duration": 0.1139,
      "velocity": 127,
      "chip": "ym2612"
    },
    {
      "channel": 3,
      "note": 96,
      "start": 8.0394,
      "duration": 0.2445,
      "velocity": 95,
      "chip": "ym2612"
    },
    {
      "channel": 5,
      "note": 88,
      "start": 8.042,
      "duration": 0.2087,
      "velocity": 95,
      "chip": "ym2612"
    },
    {
      "channel": 2,
      "note": 93,
      "start": 8.0447,
      "duration": 0.2559,
      "velocity": 95,
      "chip": "ym2612"
    },
    {
      "channel": 4,
      "note": 57,
      "start": 8.2536,
      "duration": 0.3137,
      "velocity": 116,
      "chip": "ym2612"
    },
    {
      "channel": 0,
      "note": 81,
      "start": 8.2564,
      "duration": 0.1441,
      "velocity": 95,
      "chip": "ym2612"
    },
    {
      "channel": 3,
      "note": 88,
      "start": 8.3705,
      "duration": 0.2302,
      "velocity": 95,
      "chip": "ym2612"
    },
    {
      "channel": 5,
      "note": 96,
      "start": 8.3734,
      "duration": 0.2439,
      "velocity": 95,
      "chip": "ym2612"
    },
    {
      "channel": 2,
      "note": 93,
      "start": 8.3762,
      "duration": 0.2744,
      "velocity": 95,
      "chip": "ym2612"
    },
    {
      "channel": 1,
      "note": 45,
      "start": 8.4866,
      "duration": 0.1139,
      "velocity": 127,
      "chip": "ym2612"
    },
    {
      "channel": 4,
      "note": 57,
      "start": 8.6037,
      "duration": 0.2803,
      "velocity": 116,
      "chip": "ym2612"
    },
    {
      "channel": 0,
      "note": 81,
      "start": 8.6064,
      "duration": 0.1107,
      "velocity": 95,
      "chip": "ym2612"
    },
    {
      "channel": 0,
      "note": 88,
      "start": 8.7204,
      "duration": 0.2134,
      "velocity": 95,
      "chip": "ym2612"
    },
    {
      "channel": 3,
      "note": 93,
      "start": 8.7229,
      "duration": 0.2443,
      "velocity": 95,
      "chip": "ym2612"
    },
    {
      "channel": 5,
      "note": 96,
      "start": 8.7257,
      "duration": 0.225,
      "velocity": 95,
      "chip": "ym2612"
    },
    {
      "channel": 4,
      "note": 60,
      "start": 8.9541,
      "duration": 1.1464,
      "velocity": 116,
      "chip": "ym2612"
    },
    {
      "channel": 1,
      "note": 45,
      "start": 8.9565,
      "duration": 0.1107,
      "velocity": 127,
      "chip": "ym2612"
    },
    {
      "channel": 0,
      "note": 77,
      "start": 8.9589,
      "duration": 0.2249,
      "velocity": 95,
      "chip": "ym2612"
    },
    {
      "channel": 0,
      "note": 89,
      "start": 9.1874,
      "duration": 0.213,
      "velocity": 95,
      "chip": "ym2612"
    },
    {
      "channel": 3,
      "note": 96,
      "start": 9.1898,
      "duration": 0.2108,
      "velocity": 95,
      "chip": "ym2612"
    },
    {
      "channel": 5,
      "note": 93,
      "start": 9.1924,
      "duration": 0.2084,
      "velocity": 95,
      "chip": "ym2612"
    },
    {
      "channel": 1,
      "note": 45,
      "start": 9.4199,
      "duration": 0.114,
      "velocity": 127,
      "chip": "ym2612"
    },
    {
      "channel": 0,
      "note": 77,
      "start": 9.4225,
      "duration": 0.1279,
      "velocity": 95,
      "chip": "ym2612"
    },
    {
      "channel": 3,
      "note": 89,
      "start": 9.5372,
      "duration": 0.23,
      "velocity": 95,
      "chip": "ym2612"
    },
    {
      "channel": 5,
      "note": 93,
      "start": 9.5397,
      "duration": 0.2277,
      "velocity": 95,
      "chip": "ym2612"
    },
    {
      "channel": 2,
      "note": 96,
      "start": 9.5425,
      "duration": 0.2415,
      "velocity": 95,
      "chip": "ym2612"
    },
    {
      "channel": 0,
      "note": 77,
      "start": 9.7709,
      "duration": 0.1296,
      "velocity": 95,
      "chip": "ym2612"
    },
    {
      "channel": 1,
      "note": 45,
      "start": 9.8866,
      "duration": 0.1139,
      "velocity": 127,
      "chip": "ym2612"
    },
    {
      "channel": 3,
      "note": 89,
      "start": 9.8893,
      "duration": 0.2279,
      "velocity": 95,
      "chip": "ym2612"
    },
    {
      "channel": 5,
      "note": 93,
      "start": 9.8918,
      "duration": 0.2256,
      "velocity": 95,
      "chip": "ym2612"
    },
    {
      "channel": 2,
      "note": 96,
      "start": 9.8946,
      "duration": 0.2395,
      "velocity": 95,
      "chip": "ym2612"
    },
    {
      "channel": 4,
      "note": 60,
      "start": 10.1205,
      "duration": 0.2802,
      "velocity": 116,
      "chip": "ym2612"
    },
    {
      "channel": 0,
      "note": 77,
      "start": 10.1232,
      "duration": 0.1272,
      "velocity": 95,
      "chip": "ym2612"
    },
    {
      "channel": 3,
      "note": 89,
      "start": 10.2371,
      "duration": 0.2302,
      "velocity": 95,
      "chip": "ym2612"
    },
    {
      "channel": 5,
      "note": 93,
      "start": 10.2399,
      "duration": 0.2276,
      "velocity": 95,
      "chip": "ym2612"
    },
    {
      "channel": 2,
      "note": 96,
      "start": 10.2427,
      "duration": 0.258,
      "velocity": 95,
      "chip": "ym2612"
    },
    {
      "channel": 1,
      "note": 45,
      "start": 10.3533,
      "duration": 0.1138,
      "velocity": 127,
      "chip": "ym2612"
    },
    {
      "channel": 4,
      "note": 60,
      "start": 10.4703,
      "duration": 0.297,
      "velocity": 116,
      "chip": "ym2612"
    },
    {
      "channel": 0,
      "note": 77,
      "start": 10.4731,
      "duration": 0.0939,
      "velocity": 95,
      "chip": "ym2612"
    },
    {
      "channel": 0,
      "note": 89,
      "start": 10.5704,
      "duration": 0.1801,
      "velocity": 95,
      "chip": "ym2612"
    },
    {
      "channel": 3,
      "note": 93,
      "start": 10.5729,
      "duration": 0.1942,
      "velocity": 95,
      "chip": "ym2612"
    },
    {
      "channel": 5,
      "note": 96,
      "start": 10.5757,
      "duration": 0.2083,
      "velocity": 95,
      "chip": "ym2612"
    },
    {
      "channel": 4,
      "note": 62,
      "start": 10.8036,
      "duration": 1.097,
      "velocity": 116,
      "chip": "ym2612"
    },
    {
      "channel": 1,
      "note": 45,
      "start": 10.8059,
      "duration": 0.1112,
      "velocity": 127,
      "chip": "ym2612"
    },
    {
      "channel": 0,
      "note": 78,
      "start": 10.8089,
      "duration": 0.2415,
      "velocity": 95,
      "chip": "ym2612"
    },
    {
      "channel": 3,
      "note": 93,
      "start": 11.0371,
      "duration": 0.2302,
      "velocity": 95,
      "chip": "ym2612"
    },
    {
      "channel": 5,
      "note": 98,
      "start": 11.0397,
      "duration": 0.2109,
      "velocity": 95,
      "chip": "ym2612"
    },
    {
      "channel": 2,
      "note": 90,
      "start": 11.0423,
      "duration": 0.2085,
      "velocity": 95,
      "chip": "ym2612"
    },
    {
      "channel": 1,
      "note": 45,
      "start": 11.2701,
      "duration": 0.1137,
      "velocity": 127,
      "chip": "ym2612"
    },
    {
      "channel": 0,
      "note": 78,
      "start": 11.2727,
      "duration": 0.1277,
      "velocity": 95,
      "chip": "ym2612"
    },
    {
      "channel": 3,
      "note": 90,
      "start": 11.3872,
      "duration": 0.2301,
      "velocity": 95,
      "chip": "ym2612"
    },
    {
      "channel": 5,
      "note": 98,
      "start": 11.3897,
      "duration": 0.2278,
      "velocity": 95,
      "chip": "ym2612"
    },
    {
      "channel": 2,
      "note": 93,
      "start": 11.3928,
      "duration": 0.2412,
      "velocity": 95,
      "chip": "ym2612"
    },
    {
      "channel": 0,
      "note": 78,
      "start": 11.6206,
      "duration": 0.1299,
      "velocity": 95,
      "chip": "ym2612"
    },
    {
      "channel": 1,
      "note": 45,
      "start": 11.737,
      "duration": 0.1136,
      "velocity": 127,
      "chip": "ym2612"
    },
    {
      "channel": 3,
      "note": 90,
      "start": 11.7398,
      "duration": 0.2107,
      "velocity": 95,
      "chip": "ym2612"
    },
    {
      "channel": 5,
      "note": 98,
      "start": 11.7422,
      "duration": 0.2085,
      "velocity": 95,
      "chip": "ym2612"
    },
    {
      "channel": 2,
      "note": 93,
      "start": 11.745,
      "duration": 0.2223,
      "velocity": 95,
      "chip": "ym2612"
    },
    {
      "channel": 4,
      "note": 62,
      "start": 11.9703,
      "duration": 0.1428,
      "velocity": 116,
      "chip": "ym2612"
    },
    {
      "channel": 0,
      "note": 78,
      "start": 11.9731,
      "duration": 0.0278,
      "velocity": 95,
      "chip": "ym2612"
    },
    {
      "channel": 0,
      "note": 90,
      "start": 12.0042,
      "duration": 0.1088,
      "velocity": 95,
      "chip": "ym2612"
    },
    {
      "channel": 3,
      "note": 93,
      "start": 12.0063,
      "duration": 0.1234,
      "velocity": 95,
      "chip": "ym2612"
    },
    {
      "channel": 2,
      "note": 98,
      "start": 12.009,
      "duration": 0.1043,
      "velocity": 95,
      "chip": "ym2612"
    },
    {
      "channel": 1,
      "note": 45,
      "start": 12.0314,
      "duration": 0.0982,
      "velocity": 127,
      "chip": "ym2612"
    },
    {
      "channel": 4,
      "note": 62,
      "start": 12.1327,
      "duration": 0.0722,
      "velocity": 116,
      "chip": "ym2612"
    },
    {
      "channel": 0,
      "note": 78,
      "start": 12.1354,
      "duration": 0.0464,
      "velocity": 95,
      "chip": "ym2612"
    },
    {
      "channel": 3,
      "note": 93,
      "start": 12.1721,
      "duration": 0.0938,
      "velocity": 95,
      "chip": "ym2612"
    },
    {
      "channel": 2,
      "note": 90,
      "start": 12.1744,
      "duration": 0.0917,
      "velocity": 95,
      "chip": "ym2612"
    },
    {
      "channel": 1,
      "note": 98,
      "start": 12.1778,
      "duration": 0.088,
      "velocity": 95,
      "chip": "ym2612"
    },
    {
      "channel": 4,
      "note": 64,
      "start": 12.3025,
      "duration": 0.3739,
      "velocity": 116,
      "chip": "ym2612"
    },
    {
      "channel": 0,
      "note": 45,
      "start": 12.3051,
      "duration": 0.0446,
      "velocity": 127,
      "chip": "ym2612"
    },
    {
      "channel": 1,
      "note": 76,
      "start": 12.308,
      "duration": 0.0935,
      "velocity": 95,
      "chip": "ym2612"
    },
    {
      "channel": 3,
      "note": 97,
      "start": 12.3902,
      "duration": 0.1208,
      "velocity": 95,
      "chip": "ym2612"
    },
    {
      "channel": 2,
      "note": 88,
      "start": 12.3925,
      "duration": 0.1188,
      "velocity": 95,
      "chip": "ym2612"
    },
    {
      "channel": 0,
      "note": 92,
      "start": 12.395,
      "duration": 0.1327,
      "velocity": 95,
      "chip": "ym2612"
    },
    {
      "channel": 1,
      "note": 45,
      "start": 12.5309,
      "duration": 0.0468,
      "velocity": 127,
      "chip": "ym2612"
    },
    {
      "channel": 0,
      "note": 76,
      "start": 12.5335,
      "duration": 0.0927,
      "velocity": 95,
      "chip": "ym2612"
    },
    {
      "channel": 3,
      "note": 92,
      "start": 12.581,
      "duration": 0.2402,
      "velocity": 95,
      "chip": "ym2612"
    },
    {
      "channel": 2,
      "note": 88,
      "start": 12.5836,
      "duration": 0.2378,
      "velocity": 95,
      "chip": "ym2612"
    },
    {
      "channel": 5,
      "note": 97,
      "start": 12.5867,
      "duration": 0.2231,
      "velocity": 95,
      "chip": "ym2612"
    },
    {
      "channel": 4,
      "note": 67,
      "start": 12.6958,
      "duration": 0.4851,
      "velocity": 116,
      "chip": "ym2612"
    },
    {
      "channel": 0,
      "note": 76,
      "start": 12.8129,
      "duration": 0.0631,
      "velocity": 95,
      "chip": "ym2612"
    },
    {
      "channel": 1,
      "note": 45,
      "start": 12.862,
      "duration": 0.114,
      "velocity": 127,
      "chip": "ym2612"
    },
    {
      "channel": 3,
      "note": 95,
      "start": 12.8648,
      "duration": 0.2112,
      "velocity": 95,
      "chip": "ym2612"
    },
    {
      "channel": 2,
      "note": 88,
      "start": 12.8674,
      "duration": 0.2089,
      "velocity": 95,
      "chip": "ym2612"
    },
    {
      "channel": 5,
      "note": 92,
      "start": 12.8701,
      "duration": 0.2228,
      "velocity": 95,
      "chip": "ym2612"
    },
    {
      "channel": 0,
      "note": 76,
      "start": 13.096,
      "duration": 0.0546,
      "velocity": 95,
      "chip": "ym2612"
    },
    {
      "channel": 3,
      "note": 88,
      "start": 13.1434,
      "duration": 0.0982,
      "velocity": 95,
      "chip": "ym2612"
    },
    {
      "channel": 2,
      "note": 92,
      "start": 13.1458,
      "duration": 0.1114,
      "velocity": 95,
      "chip": "ym2612"
    },
    {
      "channel": 1,
      "note": 95,
      "start": 13.1481,
      "duration": 0.1089,
      "velocity": 95,
      "chip": "ym2612"
    },
    {
      "channel": 4,
      "note": 72,
      "start": 13.2006,
      "duration": 0.2136,
      "velocity": 116,
      "chip": "ym2612"
    },
    {
      "channel": 0,
      "note": 45,
      "start": 13.2032,
      "duration": 0.0444,
      "velocity": 127,
      "chip": "ym2612"
    },
    {
      "channel": 3,
      "note": 76,
      "start": 13.2516,
      "duration": 0.0588,
      "velocity": 95,
      "chip": "ym2612"
    },
    {
      "channel": 1,
      "note": 95,
      "start": 13.2967,
      "duration": 0.1007,
      "velocity": 95,
      "chip": "ym2612"
    },
    {
      "channel": 2,
      "note": 92,
      "start": 13.3,
      "duration": 0.1144,
      "velocity": 95,
      "chip": "ym2612"
    },
    {
      "channel": 0,
      "note": 88,
      "start": 13.3024,
      "duration": 0.1115,
      "velocity": 95,
      "chip": "ym2612"
    },
    {
      "channel": 4,
      "note": 57,
      "start": 13.4671,
      "duration": 0.9094,
      "velocity": 116,
      "chip": "ym2612"
    },
    {
      "channel": 3,
      "note": 45,
      "start": 13.4697,
      "duration": 0.046,
      "velocity": 127,
      "chip": "ym2612"
    },
    {
      "channel": 0,
      "note": 81,
      "start": 13.4722,
      "duration": 0.0954,
      "velocity": 95,
      "chip": "ym2612"
    },
    {
      "channel": 1,
      "note": 96,
      "start": 13.5606,
      "duration": 0.149,
      "velocity": 95,
      "chip": "ym2612"
    },
    {
      "channel": 2,
      "note": 93,
      "start": 13.5629,
      "duration": 0.1471,
      "velocity": 95,
      "chip": "ym2612"
    },
    {
      "channel": 3,
      "note": 88,
      "start": 13.5661,
      "duration": 0.1437,
      "velocity": 95,
      "chip": "ym2612"
    },
    {
      "channel": 0,
      "note": 45,
      "start": 13.7129,
      "duration": 0.1134,
      "velocity": 127,
      "chip": "ym2612"
    },
    {
      "channel": 1,
      "note": 81,
      "start": 13.7156,
      "duration": 0.1439,
      "velocity": 95,
      "chip": "ym2612"
    },
    {
      "channel": 3,
      "note": 96,
      "start": 13.8298,
      "duration": 0.2467,
      "velocity": 95,
      "chip": "ym2612"
    },
    {
      "channel": 2,
      "note": 88,
      "start": 13.8328,
      "duration": 0.2104,
      "velocity": 95,
      "chip": "ym2612"
    },
    {
      "channel": 5,
      "note": 93,
      "start": 13.8356,
      "duration": 0.2575,
      "velocity": 95,
      "chip": "ym2612"
    },
    {
      "channel": 1,
      "note": 81,
      "start": 14.0464,
      "duration": 0.1633,
      "velocity": 95,
      "chip": "ym2612"
    },
    {
      "channel": 0,
      "note": 45,
      "start": 14.1624,
      "duration": 0.1139,
      "velocity": 127,
      "chip": "ym2612"
    },
    {
      "channel": 3,
      "note": 96,
      "start": 14.1652,
      "duration": 0.2445,
      "velocity": 95,
      "chip": "ym2612"
    },
    {
      "channel": 5,
      "note": 88,
      "start": 14.1677,
      "duration": 0.2254,
      "velocity": 95,
      "chip": "ym2612"
    },
    {
      "channel": 2,
      "note": 93,
      "start": 14.1705,
      "duration": 0.2727,
      "velocity": 95,
      "chip": "ym2612"
    },
    {
      "channel": 4,
      "note": 57,
      "start": 14.3962,
      "duration": 0.3136,
      "velocity": 116,
      "chip": "ym2612"
    },
    {
      "channel": 1,
      "note": 81,
      "start": 14.3994,
      "duration": 0.1269,
      "velocity": 95,
      "chip": "ym2612"
    },
    {
      "channel": 3,
      "note": 88,
      "start": 14.513,
      "duration": 0.2301,
      "velocity": 95,
      "chip": "ym2612"
    },
    {
      "channel": 5,
      "note": 96,
      "start": 14.5156,
      "duration": 0.2443,
      "velocity": 95,
      "chip": "ym2612"
    },
    {
      "channel": 2,
      "note": 93,
      "start": 14.5184,
      "duration": 0.2581,
      "velocity": 95,
      "chip": "ym2612"
    },
    {
      "channel": 0,
      "note": 45,
      "start": 14.6291,
      "duration": 0.1139,
      "velocity": 127,
      "chip": "ym2612"
    },
    {
      "channel": 4,
      "note": 57,
      "start": 14.7461,
      "duration": 0.1231,
      "velocity": 116,
      "chip": "ym2612"
    },
    {
      "channel": 1,
      "note": 81,
      "start": 14.7489,
      "duration": 0.0617,
      "velocity": 95,
      "chip": "ym2612"
    },
    {
      "channel": 1,
      "note": 88,
      "start": 14.8144,
      "duration": 0.0791,
      "velocity": 95,
      "chip": "ym2612"
    },
    {
      "channel": 3,
      "note": 93,
      "start": 14.8169,
      "duration": 0.0924,
      "velocity": 95,
      "chip": "ym2612"
    },
    {
      "channel": 2,
      "note": 96,
      "start": 14.8195,
      "duration": 0.0802,
      "velocity": 95,
      "chip": "ym2612"
    },
    {
      "channel": 4,
      "note": 60,
      "start": 14.9034,
      "duration": 0.7791,
      "velocity": 116,
      "chip": "ym2612"
    },
    {
      "channel": 0,
      "note": 45,
      "start": 14.9055,
      "duration": 0.0411,
      "velocity": 127,
      "chip": "ym2612"
    },
    {
      "channel": 1,
      "note": 77,
      "start": 14.9078,
      "duration": 0.0815,
      "velocity": 95,
      "chip": "ym2612"
    },
    {
      "channel": 1,
      "note": 89,
      "start": 14.9929,
      "duration": 0.1571,
      "velocity": 95,
      "chip": "ym2612"
    },
    {
      "channel": 3,
      "note": 96,
      "start": 14.995,
      "duration": 0.1551,
      "velocity": 95,
      "chip": "ym2612"
    },
    {
      "channel": 2,
      "note": 93,
      "start": 14.9975,
      "duration": 0.1529,
      "velocity": 95,
      "chip": "ym2612"
    },
    {
      "channel": 0,
      "note": 45,
      "start": 15.1693,
      "duration": 0.114,
      "velocity": 127,
      "chip": "ym2612"
    },
    {
      "channel": 1,
      "note": 77,
      "start": 15.1721,
      "duration": 0.128,
      "velocity": 95,
      "chip": "ym2612"
    },
    {
      "channel": 3,
      "note": 89,
      "start": 15.2871,
      "duration": 0.1589,
      "velocity": 95,
      "chip": "ym2612"
    },
    {
      "channel": 2,
      "note": 93,
      "start": 15.2897,
      "duration": 0.1564,
      "velocity": 95,
      "chip": "ym2612"
    },
    {
      "channel": 5,
      "note": 96,
      "start": 15.2925,
      "duration": 0.109,
      "velocity": 95,
      "chip": "ym2612"
    },
    {
      "channel": 1,
      "note": 77,
      "start": 15.4488,
      "duration": 0.0537,
      "velocity": 95,
      "chip": "ym2612"
    },
    {
      "channel": 0,
      "note": 45,
      "start": 15.4932,
      "duration": 0.1059,
      "velocity": 127,
      "chip": "ym2612"
    },
    {
      "channel": 3,
      "note": 89,
      "start": 15.4957,
      "duration": 0.2202,
      "velocity": 95,
      "chip": "ym2612"
    },
    {
      "channel": 2,
      "note": 93,
      "start": 15.4979,
      "duration": 0.2183,
      "velocity": 95,
      "chip": "ym2612"
    },
    {
      "channel": 5,
      "note": 96,
      "start": 15.5007,
      "duration": 0.2223,
      "velocity": 95,
      "chip": "ym2612"
    },
    {
      "channel": 4,
      "note": 60,
      "start": 15.7191,
      "duration": 0.1521,
      "velocity": 116,
      "chip": "ym2612"
    },
    {
      "channel": 1,
      "note": 77,
      "start": 15.7223,
      "duration": 0.0529,
      "velocity": 95,
      "chip": "ym2612"
    },
    {
      "channel": 3,
      "note": 89,
      "start": 15.7624,
      "duration": 0.1589,
      "velocity": 95,
      "chip": "ym2612"
    },
    {
      "channel": 2,
      "note": 93,
      "start": 15.7655,
      "duration": 0.1559,
      "velocity": 95,
      "chip": "ym2612"
    },
    {
      "channel": 0,
      "note": 96,
      "start": 15.768,
      "duration": 0.1777,
      "velocity": 95,
      "chip": "ym2612"
    },
    {
      "channel": 1,
      "note": 45,
      "start": 15.8092,
      "duration": 0.1119,
      "velocity": 127,
      "chip": "ym2612"
    },
    {
      "channel": 4,
      "note": 60,
      "start": 15.9243,
      "duration": 0.1707,
      "velocity": 116,
      "chip": "ym2612"
    },
    {
      "channel": 3,
      "note": 77,
      "start": 15.9271,
      "duration": 0.0438,
      "velocity": 95,
      "chip": "ym2612"
    },
    {
      "channel": 0,
      "note": 89,
      "start": 15.9736,
      "duration": 0.1045,
      "velocity": 95,
      "chip": "ym2612"
    },
    {
      "channel": 3,
      "note": 93,
      "start": 15.9761,
      "duration": 0.1187,
      "velocity": 95,
      "chip": "ym2612"
    },
    {
      "channel": 2,
      "note": 96,
      "start": 15.9785,
      "duration": 0.1331,
      "velocity": 95,
      "chip": "ym2612"
    },
    {
      "channel": 4,
      "note": 62,
      "start": 16.1312,
      "duration": 0.8759,
      "velocity": 116,
      "chip": "ym2612"
    },
    {
      "channel": 1,
      "note": 45,
      "start": 16.1336,
      "duration": 0.0449,
      "velocity": 127,
      "chip": "ym2612"
    },
    {
      "channel": 0,
      "note": 78,
      "start": 16.1361,
      "duration": 0.0951,
      "velocity": 95,
      "chip": "ym2612"
    },
    {
      "channel": 3,
      "note": 93,
      "start": 16.2242,
      "duration": 0.1496,
      "velocity": 95,
      "chip": "ym2612"
    },
    {
      "channel": 2,
      "note": 98,
      "start": 16.2266,
      "duration": 0.1307,
      "velocity": 95,
      "chip": "ym2612"
    },
    {
      "channel": 1,
      "note": 90,
      "start": 16.2299,
      "duration": 0.1271,
      "velocity": 95,
      "chip": "ym2612"
    },
    {
      "channel": 0,
      "note": 45,
      "start": 16.3768,
      "duration": 0.1135,
      "velocity": 127,
      "chip": "ym2612"
    },
    {
      "channel": 1,
      "note": 78,
      "start": 16.38,
      "duration": 0.1272,
      "velocity": 95,
      "chip": "ym2612"
    },
    {
      "channel": 3,
      "note": 90,
      "start": 16.4938,
      "duration": 0.2301,
      "velocity": 95,
      "chip": "ym2612"
    },
    {
      "channel": 2,
      "note": 98,
      "start": 16.4963,
      "duration": 0.2277,
      "velocity": 95,
      "chip": "ym2612"
    },
    {
      "channel": 5,
      "note": 93,
      "start": 16.4991,
      "duration": 0.2415,
      "velocity": 95,
      "chip": "ym2612"
    },
    {
      "channel": 1,
      "note": 78,
      "start": 16.7272,
      "duration": 0.1298,
      "velocity": 95,
      "chip": "ym2612"
    },
    {
      "channel": 0,
      "note": 45,
      "start": 16.8435,
      "duration": 0.1135,
      "velocity": 127,
      "chip": "ym2612"
    },
    {
      "channel": 3,
      "note": 90,
      "start": 16.8462,
      "duration": 0.211,
      "velocity": 95,
      "chip": "ym2612"
    },
    {
      "channel": 5,
      "note": 98,
      "start": 16.8487,
      "duration": 0.2086,
      "velocity": 95,
      "chip": "ym2612"
    },
    {
      "channel": 2,
      "note": 93,
      "start": 16.8518,
      "duration": 0.2221,
      "velocity": 95,
      "chip": "ym2612"
    },
    {
      "channel": 4,
      "note": 62,
      "start": 17.077,
      "duration": 0.3136,
      "velocity": 116,
      "chip": "ym2612"
    },
    {
      "channel": 1,
      "note": 78,
      "start": 17.0798,
      "duration": 0.1106,
      "velocity": 95,
      "chip": "ym2612"
    },
    {
      "channel": 1,
      "note": 90,
      "start": 17.1938,
      "duration": 0.1966,
      "velocity": 95,
      "chip": "ym2612"
    },
    {
      "channel": 3,
      "note": 93,
      "start": 17.1962,
      "duration": 0.2276,
      "velocity": 95,
      "chip": "ym2612"
    },
    {
      "channel": 5,
      "note": 98,
      "start": 17.199,
      "duration": 0.1917,
      "velocity": 95,
      "chip": "ym2612"
    },
    {
      "channel": 0,
      "note": 45,
      "start": 17.3099,
      "duration": 0.1137,
      "velocity": 127,
      "chip": "ym2612"
    },
    {
      "channel": 4,
      "note": 62,
      "start": 17.4268,
      "duration": 0.0859,
      "velocity": 116,
      "chip": "ym2612"
    },
    {
      "channel": 1,
      "note": 78,
      "start": 17.4296,
      "duration": 0.0586,
      "velocity": 95,
      "chip": "ym2612"
    },
    {
      "channel": 3,
      "note": 93,
      "start": 17.4767,
      "duration": 0.0729,
      "velocity": 95,
      "chip": "ym2612"
    },
    {
      "channel": 2,
      "note": 90,
      "start": 17.4791,
      "duration": 0.0707,
      "velocity": 95,
      "chip": "ym2612"
    },
    {
      "channel": 0,
      "note": 98,
      "start": 17.4814,
      "duration": 0.0681,
      "velocity": 95,
      "chip": "ym2612"
    },
    {
      "channel": 4,
      "note": 64,
      "start": 17.5587,
      "duration": 0.4859,
      "velocity": 116,
      "chip": "ym2612"
    },
    {
      "channel": 1,
      "note": 45,
      "start": 17.5618,
      "duration": 0.0401,
      "velocity": 127,
      "chip": "ym2612"
    },
    {
      "channel": 0,
      "note": 76,
      "start": 17.5641,
      "duration": 0.0898,
      "velocity": 95,
      "chip": "ym2612"
    },
    {
      "channel": 3,
      "note": 97,
      "start": 17.6469,
      "duration": 0.1642,
      "velocity": 95,
      "chip": "ym2612"
    },
    {
      "channel": 2,
      "note": 88,
      "start": 17.65,
      "duration": 0.1613,
      "velocity": 95,
      "chip": "ym2612"
    },
    {
      "channel": 1,
      "note": 92,
      "start": 17.6525,
      "duration": 0.1753,
      "velocity": 95,
      "chip": "ym2612"
    },
    {
      "channel": 0,
      "note": 45,
      "start": 17.8309,
      "duration": 0.1135,
      "velocity": 127,
      "chip": "ym2612"
    },
    {
      "channel": 1,
      "note": 76,
      "start": 17.8339,
      "duration": 0.1439,
      "velocity": 95,
      "chip": "ym2612"
    },
    {
      "channel": 3,
      "note": 92,
      "start": 17.9478,
      "duration": 0.168,
      "velocity": 95,
      "chip": "ym2612"
    },
    {
      "channel": 2,
      "note": 88,
      "start": 17.9503,
      "duration": 0.1657,
      "velocity": 95,
      "chip": "ym2612"
    },
    {
      "channel": 5,
      "note": 97,
      "start": 17.9531,
      "duration": 0.1118,
      "velocity": 95,
      "chip": "ym2612"
    },
    {
      "channel": 4,
      "note": 67,
      "start": 18.0639,
      "duration": 0.3395,
      "velocity": 116,
      "chip": "ym2612"
    },
    {
      "channel": 1,
      "note": 76,
      "start": 18.1112,
      "duration": 0.0543,
      "velocity": 95,
      "chip": "ym2612"
    },
    {
      "channel": 0,
      "note": 45,
      "start": 18.1554,
      "duration": 0.006,
      "velocity": 127,
      "chip": "ym2612"
    },
    {
      "channel": 3,
      "note": 95,
      "start": 18.1579,
      "duration": 0.14,
      "velocity": 95,
      "chip": "ym2612"
    },
    {
      "channel": 2,
      "note": 88,
      "start": 18.1603,
      "duration": 0.1379,
      "velocity": 95,
      "chip": "ym2612"
    },
    {
      "channel": 0,
      "note": 92,
      "start": 18.1633,
      "duration": 0.1512,
      "velocity": 95,
      "chip": "ym2612"
    },
    {
      "channel": 0,
      "note": 76,
      "start": 18.3178,
      "duration": 0.0545,
      "velocity": 95,
      "chip": "ym2612"
    },
    {
      "channel": 1,
      "note": 88,
      "start": 18.3654,
      "duration": 0.0985,
      "velocity": 95,
      "chip": "ym2612"
    },
    {
      "channel": 3,
      "note": 92,
      "start": 18.3677,
      "duration": 0.1124,
      "velocity": 95,
      "chip": "ym2612"
    },
    {
      "channel": 2,
      "note": 95,
      "start": 18.37,
      "duration": 0.1103,
      "velocity": 95,
      "chip": "ym2612"
    },
    {
      "channel": 4,
      "note": 72,
      "start": 18.423,
      "duration": 0.1727,
      "velocity": 116,
      "chip": "ym2612"
    },
    {
      "channel": 0,
      "note": 45,
      "start": 18.4256,
      "duration": 0.0443,
      "velocity": 127,
      "chip": "ym2612"
    },
    {
      "channel": 1,
      "note": 76,
      "start": 18.4736,
      "duration": 0.0589,
      "velocity": 95,
      "chip": "ym2612"
    },
    {
      "channel": 3,
      "note": 95,
      "start": 18.52,
      "duration": 0.0694,
      "velocity": 95,
      "chip": "ym2612"
    },
    {
      "channel": 2,
      "note": 92,
      "start": 18.5225,
      "duration": 0.0733,
      "velocity": 95,
      "chip": "ym2612"
    },
    {
      "channel": 0,
      "note": 88,
      "start": 18.5249,
      "duration": 0.0705,
      "velocity": 95,
      "chip": "ym2612"
    },
    {
      "channel": 4,
      "note": 69,
      "start": 18.6204,
      "duration": 0.7586,
      "velocity": 116,
      "chip": "ym2612"
    },
    {
      "channel": 1,
      "note": 45,
      "start": 18.6234,
      "duration": 0.0403,
      "velocity": 127,
      "chip": "ym2612"
    },
    {
      "channel": 0,
      "note": 81,
      "start": 18.6272,
      "duration": 0.1255,
      "velocity": 95,
      "chip": "ym2612"
    },
    {
      "channel": 3,
      "note": 96,
      "start": 18.7398,
      "duration": 0.2132,
      "velocity": 95,
      "chip": "ym2612"
    },
    {
      "channel": 2,
      "note": 93,
      "start": 18.7423,
      "duration": 0.2109,
      "velocity": 95,
      "chip": "ym2612"
    },
    {
      "channel": 1,
      "note": 88,
      "start": 18.745,
      "duration": 0.2078,
      "velocity": 95,
      "chip": "ym2612"
    },
    {
      "channel": 5,
      "note": 93,
      "start": 18.748,
      "duration": 0.0383,
      "velocity": 100,
      "chip": "ym2612"
    },
    {
      "channel": 0,
      "note": 45,
      "start": 18.9561,
      "duration": 0.0469,
      "velocity": 127,
      "chip": "ym2612"
    },
    {
      "channel": 1,
      "note": 81,
      "start": 18.9588,
      "duration": 0.0666,
      "velocity": 95,
      "chip": "ym2612"
    },
    {
      "channel": 3,
      "note": 96,
      "start": 18.9653,
      "duration": 0.0194,
      "velocity": 100,
      "chip": "ym2612"
    },
    {
      "channel": 2,
      "note": 96,
      "start": 19.0068,
      "duration": 0.2089,
      "velocity": 95,
      "chip": "ym2612"
    },
    {
      "channel": 3,
      "note": 88,
      "start": 19.0091,
      "duration": 0.1943,
      "velocity": 95,
      "chip": "ym2612"
    },
    {
      "channel": 0,
      "note": 93,
      "start": 19.0115,
      "duration": 0.0009,
      "velocity": 95,
      "chip": "ym2612"
    },
    {
      "channel": 0,
      "note": 93,
      "start": 19.0142,
      "duration": 0.0225,
      "velocity": 100,
      "chip": "ym2612"
    },
    {
      "channel": 1,
      "note": 81,
      "start": 19.2071,
      "duration": 0.068,
      "velocity": 95,
      "chip": "ym2612"
    },
    {
      "channel": 0,
      "note": 98,
      "start": 19.2133,
      "duration": 0.0208,
      "velocity": 100,
      "chip": "ym2612"
    },
    {
      "channel": 3,
      "note": 45,
      "start": 19.2558,
      "duration": 0.082,
      "velocity": 127,
      "chip": "ym2612"
    },
    {
      "channel": 2,
      "note": 96,
      "start": 19.2584,
      "duration": 0.1393,
      "velocity": 95,
      "chip": "ym2612"
    },
    {
      "channel": 0,
      "note": 88,
      "start": 19.2608,
      "duration": 0.0017,
      "velocity": 95,
      "chip": "ym2612"
    },
    {
      "channel": 0,
      "note": 93,
      "start": 19.2644,
      "duration": 0.1302,
      "velocity": 95,
      "chip": "ym2612"
    },
    {
      "channel": 1,
      "note": 96,
      "start": 19.3452,
      "duration": 0.0214,
      "velocity": 100,
      "chip": "ym2612"
    },
    {
      "channel": 4,
      "note": 69,
      "start": 19.388,
      "duration": 0.238,
      "velocity": 116,
      "chip": "ym2612"
    },
    {
      "channel": 3,
      "note": 45,
      "start": 19.3903,
      "duration": 0.0831,
      "velocity": 127,
      "chip": "ym2612"
    },
    {
      "channel": 1,
      "note": 81,
      "start": 19.3939,
      "duration": 0.0963,
      "velocity": 95,
      "chip": "ym2612"
    },
    {
      "channel": 0,
      "note": 99,
      "start": 19.3965,
      "duration": 0.0268,
      "velocity": 100,
      "chip": "ym2612"
    },
    {
      "channel": 2,
      "note": 88,
      "start": 19.477,
      "duration": 0.1617,
      "velocity": 95,
      "chip": "ym2612"
    },
    {
      "channel": 5,
      "note": 96,
      "start": 19.48,
      "duration": 0.1138,
      "velocity": 95,
      "chip": "ym2612"
    },
    {
      "channel": 0,
      "note": 93,
      "start": 19.4828,
      "duration": 0.1696,
      "velocity": 95,
      "chip": "ym2612"
    },
    {
      "channel": 3,
      "note": 45,
      "start": 19.593,
      "duration": 0.0456,
      "velocity": 127,
      "chip": "ym2612"
    },
    {
      "channel": 1,
      "note": 100,
      "start": 19.5994,
      "duration": 0.0144,
      "velocity": 100,
      "chip": "ym2612"
    },
    {
      "channel": 4,
      "note": 69,
      "start": 19.6413,
      "duration": 0.2327,
      "velocity": 116,
      "chip": "ym2612"
    },
    {
      "channel": 2,
      "note": 81,
      "start": 19.6439,
      "duration": 0.0804,
      "velocity": 95,
      "chip": "ym2612"
    },
    {
      "channel": 3,
      "note": 45,
      "start": 19.727,
      "duration": 0.1137,
      "velocity": 127,
      "chip": "ym2612"
    },
    {
      "channel": 0,
      "note": 88,
      "start": 19.7297,
      "duration": 0.211,
      "velocity": 95,
      "chip": "ym2612"
    },
    {
      "channel": 2,
      "note": 93,
      "start": 19.7323,
      "duration": 0.2419,
      "velocity": 95,
      "chip": "ym2612"
    },
    {
      "channel": 1,
      "note": 96,
      "start": 19.7351,
      "duration": 0.2222,
      "velocity": 95,
      "chip": "ym2612"
    },
    {
      "channel": 4,
      "note": 65,
      "start": 19.9605,
      "duration": 0.871,
      "velocity": 116,
      "chip": "ym2612"
    },
    {
      "channel": 3,
      "note": 45,
      "start": 19.9631,
      "duration": 0.111,
      "velocity": 127,
      "chip": "ym2612"
    },
    {
      "channel": 0,
      "note": 77,
      "start": 19.9659,
      "duration": 0.2247,
      "velocity": 95,
      "chip": "ym2612"
    },
    {
      "channel": 0,
      "note": 89,
      "start": 20.1939,
      "duration": 0.1968,
      "velocity": 95,
      "chip": "ym2612"
    },
    {
      "channel": 1,
      "note": 96,
      "start": 20.1963,
      "duration": 0.1945,
      "velocity": 95,
      "chip": "ym2612"
    },
    {
      "channel": 2,
      "note": 93,
      "start": 20.1989,
      "duration": 0.1921,
      "velocity": 95,
      "chip": "ym2612"
    },
    {
      "channel": 5,
      "note": 93,
      "start": 20.2019,
      "duration": 0.039,
      "velocity": 100,
      "chip": "ym2612"
    },
    {
      "channel": 3,
      "note": 45,
      "start": 20.4268,
      "duration": 0.0463,
      "velocity": 127,
      "chip": "ym2612"
    },
    {
      "channel": 0,
      "note": 77,
      "start": 20.4295,
      "duration": 0.0543,
      "velocity": 95,
      "chip": "ym2612"
    },
    {
      "channel": 1,
      "note": 96,
      "start": 20.4358,
      "duration": 0.0133,
      "velocity": 100,
      "chip": "ym2612"
    },
    {
      "channel": 2,
      "note": 89,
      "start": 20.4771,
      "duration": 0.1804,
      "velocity": 95,
      "chip": "ym2612"
    },
    {
      "channel": 1,
      "note": 93,
      "start": 20.4794,
      "duration": 0.1779,
      "velocity": 95,
      "chip": "ym2612"
    },
    {
      "channel": 3,
      "note": 96,
      "start": 20.482,
      "duration": 0.1935,
      "velocity": 95,
      "chip": "ym2612"
    },
    {
      "channel": 0,
      "note": 93,
      "start": 20.4857,
      "duration": 0.0098,
      "velocity": 100,
      "chip": "ym2612"
    },
    {
      "channel": 1,
      "note": 77,
      "start": 20.6607,
      "duration": 0.0607,
      "velocity": 95,
      "chip": "ym2612"
    },
    {
      "channel": 0,
      "note": 98,
      "start": 20.6667,
      "duration": 0.0207,
      "velocity": 100,
      "chip": "ym2612"
    },
    {
      "channel": 2,
      "note": 45,
      "start": 20.7089,
      "duration": 0.0818,
      "velocity": 127,
      "chip": "ym2612"
    },
    {
      "channel": 3,
      "note": 89,
      "start": 20.7112,
      "duration": 0.1261,
      "velocity": 95,
      "chip": "ym2612"
    },
    {
      "channel": 0,
      "note": 93,
      "start": 20.7136,
      "duration": 0.0017,
      "velocity": 95,
      "chip": "ym2612"
    },
    {
      "channel": 0,
      "note": 96,
      "start": 20.7171,
      "duration": 0.132,
      "velocity": 95,
      "chip": "ym2612"
    },
    {
      "channel": 1,
      "note": 96,
      "start": 20.7974,
      "duration": 0.022,
      "velocity": 100,
      "chip": "ym2612"
    },
    {
      "channel": 4,
      "note": 65,
      "start": 20.8398,
      "duration": 0.2308,
      "velocity": 116,
      "chip": "ym2612"
    },
    {
      "channel": 2,
      "note": 45,
      "start": 20.8422,
      "duration": 0.0814,
      "velocity": 127,
      "chip": "ym2612"
    },
    {
      "channel": 3,
      "note": 77,
      "start": 20.8456,
      "duration": 0.0946,
      "velocity": 95,
      "chip": "ym2612"
    },
    {
      "channel": 1,
      "note": 99,
      "start": 20.848,
      "duration": 0.0254,
      "velocity": 100,
      "chip": "ym2612"
    },
    {
      "channel": 0,
      "note": 89,
      "start": 20.927,
      "duration": 0.1624,
      "velocity": 95,
      "chip": "ym2612"
    },
    {
      "channel": 5,
      "note": 93,
      "start": 20.9296,
      "duration": 0.1145,
      "velocity": 95,
      "chip": "ym2612"
    },
    {
      "channel": 1,
      "note": 96,
      "start": 20.9324,
      "duration": 0.1706,
      "velocity": 95,
      "chip": "ym2612"
    },
    {
      "channel": 2,
      "note": 45,
      "start": 21.0432,
      "duration": 0.0464,
      "velocity": 127,
      "chip": "ym2612"
    },
    {
      "channel": 3,
      "note": 93,
      "start": 21.0499,
      "duration": 0.0207,
      "velocity": 100,
      "chip": "ym2612"
    },
    {
      "channel": 4,
      "note": 65,
      "start": 21.092,
      "duration": 0.2809,
      "velocity": 116,
      "chip": "ym2612"
    },
    {
      "channel": 0,
      "note": 77,
      "start": 21.0946,
      "duration": 0.078,
      "velocity": 95,
      "chip": "ym2612"
    },
    {
      "channel": 0,
      "note": 89,
      "start": 21.1759,
      "duration": 0.1801,
      "velocity": 95,
      "chip": "ym2612"
    },
    {
      "channel": 1,
      "note": 93,
      "start": 21.1784,
      "duration": 0.1943,
      "velocity": 95,
      "chip": "ym2612"
    },
    {
      "channel": 3,
      "note": 96,
      "start": 21.1812,
      "duration": 0.2082,
      "velocity": 95,
      "chip": "ym2612"
    },
    {
      "channel": 4,
      "note": 62,
      "start": 21.409,
      "duration": 0.8838,
      "velocity": 116,
      "chip": "ym2612"
    },
    {
      "channel": 2,
      "note": 45,
      "start": 21.4117,
      "duration": 0.1112,
      "velocity": 127,
      "chip": "ym2612"
    },
    {
      "channel": 0,
      "note": 78,
      "start": 21.4145,
      "duration": 0.2415,
      "velocity": 95,
      "chip": "ym2612"
    },
    {
      "channel": 1,
      "note": 93,
      "start": 21.6426,
      "duration": 0.2302,
      "velocity": 95,
      "chip": "ym2612"
    },
    {
      "channel": 3,
      "note": 98,
      "start": 21.645,
      "duration": 0.2111,
      "velocity": 95,
      "chip": "ym2612"
    },
    {
      "channel": 5,
      "note": 90,
      "start": 21.6477,
      "duration": 0.2086,
      "velocity": 95,
      "chip": "ym2612"
    },
    {
      "channel": 2,
      "note": 93,
      "start": 21.6508,
      "duration": 0.0388,
      "velocity": 100,
      "chip": "ym2612"
    },
    {
      "channel": 0,
      "note": 45,
      "start": 21.8758,
      "duration": 0.0472,
      "velocity": 127,
      "chip": "ym2612"
    },
    {
      "channel": 1,
      "note": 78,
      "start": 21.8786,
      "duration": 0.0578,
      "velocity": 95,
      "chip": "ym2612"
    },
    {
      "channel": 2,
      "note": 96,
      "start": 21.8848,
      "duration": 0.014,
      "velocity": 100,
      "chip": "ym2612"
    },
    {
      "channel": 3,
      "note": 90,
      "start": 21.9267,
      "duration": 0.1969,
      "velocity": 95,
      "chip": "ym2612"
    },
    {
      "channel": 2,
      "note": 98,
      "start": 21.929,
      "duration": 0.1948,
      "velocity": 95,
      "chip": "ym2612"
    },
    {
      "channel": 0,
      "note": 93,
      "start": 21.9317,
      "duration": 0.0018,
      "velocity": 95,
      "chip": "ym2612"
    },
    {
      "channel": 0,
      "note": 93,
      "start": 21.9354,
      "duration": 0.01,
      "velocity": 100,
      "chip": "ym2612"
    },
    {
      "channel": 1,
      "note": 78,
      "start": 22.1269,
      "duration": 0.0585,
      "velocity": 95,
      "chip": "ym2612"
    },
    {
      "channel": 0,
      "note": 98,
      "start": 22.1332,
      "duration": 0.0146,
      "velocity": 100,
      "chip": "ym2612"
    },
    {
      "channel": 3,
      "note": 45,
      "start": 22.1757,
      "duration": 0.0825,
      "velocity": 127,
      "chip": "ym2612"
    },
    {
      "channel": 2,
      "note": 90,
      "start": 22.1783,
      "duration": 0.1148,
      "velocity": 95,
      "chip": "ym2612"
    },
    {
      "channel": 0,
      "note": 98,
      "start": 22.1806,
      "duration": 0.0017,
      "velocity": 95,
      "chip": "ym2612"
    },
    {
      "channel": 0,
      "note": 93,
      "start": 22.1842,
      "duration": 0.1211,
      "velocity": 95,
      "chip": "ym2612"
    },
    {
      "channel": 1,
      "note": 96,
      "start": 22.2647,
      "duration": 0.0157,
      "velocity": 100,
      "chip": "ym2612"
    },
    {
      "channel": 4,
      "note": 62,
      "start": 22.308,
      "duration": 0.221,
      "velocity": 116,
      "chip": "ym2612"
    },
    {
      "channel": 3,
      "note": 45,
      "start": 22.31,
      "duration": 0.0663,
      "velocity": 127,
      "chip": "ym2612"
    },
    {
      "channel": 0,
      "note": 78,
      "start": 22.3125,
      "duration": 0.0637,
      "velocity": 95,
      "chip": "ym2612"
    },
    {
      "channel": 1,
      "note": 99,
      "start": 22.316,
      "duration": 0.0128,
      "velocity": 100,
      "chip": "ym2612"
    },
    {
      "channel": 0,
      "note": 90,
      "start": 22.3799,
      "duration": 0.155,
      "velocity": 95,
      "chip": "ym2612"
    },
    {
      "channel": 2,
      "note": 93,
      "start": 22.3826,
      "duration": 0.1593,
      "velocity": 95,
      "chip": "ym2612"
    },
    {
      "channel": 5,
      "note": 98,
      "start": 22.3855,
      "duration": 0.1115,
      "velocity": 95,
      "chip": "ym2612"
    },
    {
      "channel": 3,
      "note": 45,
      "start": 22.4961,
      "duration": 0.0455,
      "velocity": 127,
      "chip": "ym2612"
    },
    {
      "channel": 1,
      "note": 100,
      "start": 22.5023,
      "duration": 0.0205,
      "velocity": 100,
      "chip": "ym2612"
    },
    {
      "channel": 4,
      "note": 62,
      "start": 22.5442,
      "duration": 0.2812,
      "velocity": 116,
      "chip": "ym2612"
    },
    {
      "channel": 0,
      "note": 78,
      "start": 22.5468,
      "duration": 0.1285,
      "velocity": 95,
      "chip": "ym2612"
    },
    {
      "channel": 3,
      "note": 45,
      "start": 22.6281,
      "duration": 0.1139,
      "velocity": 127,
      "chip": "ym2612"
    },
    {
      "channel": 2,
      "note": 93,
      "start": 22.6311,
      "duration": 0.2113,
      "velocity": 95,
      "chip": "ym2612"
    },
    {
      "channel": 1,
      "note": 90,
      "start": 22.6336,
      "duration": 0.2084,
      "velocity": 95,
      "chip": "ym2612"
    },
    {
      "channel": 5,
      "note": 98,
      "start": 22.6366,
      "duration": 0.2056,
      "velocity": 95,
      "chip": "ym2612"
    },
    {
      "channel": 4,
      "note": 72,
      "start": 22.862,
      "duration": 0.2134,
      "velocity": 116,
      "chip": "ym2612"
    },
    {
      "channel": 3,
      "note": 45,
      "start": 22.8646,
      "duration": 0.1108,
      "velocity": 127,
      "chip": "ym2612"
    },
    {
      "channel": 0,
      "note": 76,
      "start": 22.8672,
      "duration": 0.2414,
      "velocity": 95,
      "chip": "ym2612"
    },
    {
      "channel": 4,
      "note": 67,
      "start": 23.0949,
      "duration": 0.1972,
      "velocity": 116,
      "chip": "ym2612"
    },
    {
      "channel": 1,
      "note": 97,
      "start": 23.0977,
      "duration": 0.2109,
      "velocity": 95,
      "chip": "ym2612"
    },
    {
      "channel": 5,
      "note": 88,
      "start": 23.1001,
      "duration": 0.2087,
      "velocity": 95,
      "chip": "ym2612"
    },
    {
      "channel": 2,
      "note": 92,
      "start": 23.1029,
      "duration": 0.2225,
      "velocity": 95,
      "chip": "ym2612"
    },
    {
      "channel": 3,
      "note": 105,
      "start": 23.1063,
      "duration": 0.0525,
      "velocity": 100,
      "chip": "ym2612"
    },
    {
      "channel": 4,
      "note": 69,
      "start": 23.3283,
      "duration": 0.1146,
      "velocity": 116,
      "chip": "ym2612"
    },
    {
      "channel": 0,
      "note": 45,
      "start": 23.3309,
      "duration": 0.0458,
      "velocity": 127,
      "chip": "ym2612"
    },
    {
      "channel": 1,
      "note": 76,
      "start": 23.3336,
      "duration": 0.0598,
      "velocity": 95,
      "chip": "ym2612"
    },
    {
      "channel": 3,
      "note": 103,
      "start": 23.3396,
      "duration": 0.0133,
      "velocity": 100,
      "chip": "ym2612"
    },
    {
      "channel": 2,
      "note": 92,
      "start": 23.3798,
      "duration": 0.2081,
      "velocity": 95,
      "chip": "ym2612"
    },
    {
      "channel": 3,
      "note": 88,
      "start": 23.3832,
      "duration": 0.2046,
      "velocity": 95,
      "chip": "ym2612"
    },
    {
      "channel": 0,
      "note": 97,
      "start": 23.3856,
      "duration": 0.001,
      "velocity": 95,
      "chip": "ym2612"
    },
    {
      "channel": 0,
      "note": 100,
      "start": 23.3885,
      "duration": 0.011,
      "velocity": 100,
      "chip": "ym2612"
    },
    {
      "channel": 4,
      "note": 64,
      "start": 23.4622,
      "duration": 0.1568,
      "velocity": 116,
      "chip": "ym2612"
    },
    {
      "channel": 1,
      "note": 76,
      "start": 23.5793,
      "duration": 0.0609,
      "velocity": 95,
      "chip": "ym2612"
    },
    {
      "channel": 0,
      "note": 103,
      "start": 23.5852,
      "duration": 0.0149,
      "velocity": 100,
      "chip": "ym2612"
    },
    {
      "channel": 4,
      "note": 67,
      "start": 23.6281,
      "duration": 0.1241,
      "velocity": 116,
      "chip": "ym2612"
    },
    {
      "channel": 3,
      "note": 45,
      "start": 23.6306,
      "duration": 0.0805,
      "velocity": 127,
      "chip": "ym2612"
    },
    {
      "channel": 2,
      "note": 95,
      "start": 23.6332,
      "duration": 0.1191,
      "velocity": 95,
      "chip": "ym2612"
    },
    {
      "channel": 0,
      "note": 88,
      "start": 23.6363,
      "duration": 0.0007,
      "velocity": 95,
      "chip": "ym2612"
    },
    {
      "channel": 0,
      "note": 92,
      "start": 23.6389,
      "duration": 0.1195,
      "velocity": 95,
      "chip": "ym2612"
    },
    {
      "channel": 1,
      "note": 100,
      "start": 23.718,
      "duration": 0.0158,
      "velocity": 100,
      "chip": "ym2612"
    },
    {
      "channel": 4,
      "note": 62,
      "start": 23.7607,
      "duration": 0.1674,
      "velocity": 116,
      "chip": "ym2612"
    },
    {
      "channel": 3,
      "note": 45,
      "start": 23.7629,
      "duration": 0.0819,
      "velocity": 127,
      "chip": "ym2612"
    },
    {
      "channel": 0,
      "note": 76,
      "start": 23.7654,
      "duration": 0.0958,
      "velocity": 95,
      "chip": "ym2612"
    },
    {
      "channel": 1,
      "note": 98,
      "start": 23.7689,
      "duration": 0.0119,
      "velocity": 100,
      "chip": "ym2612"
    },
    {
      "channel": 2,
      "note": 88,
      "start": 23.8483,
      "duration": 0.1512,
      "velocity": 95,
      "chip": "ym2612"
    },
    {
      "channel": 1,
      "note": 92,
      "start": 23.851,
      "duration": 0.1676,
      "velocity": 95,
      "chip": "ym2612"
    },
    {
      "channel": 5,
      "note": 95,
      "start": 23.8536,
      "duration": 0.114,
      "velocity": 95,
      "chip": "ym2612"
    },
    {
      "channel": 4,
      "note": 63,
      "start": 23.9641,
      "duration": 0.0975,
      "velocity": 116,
      "chip": "ym2612"
    },
    {
      "channel": 3,
      "note": 45,
      "start": 23.9667,
      "duration": 0.0444,
      "velocity": 127,
      "chip": "ym2612"
    },
    {
      "channel": 0,
      "note": 96,
      "start": 23.9733,
      "duration": 0.0132,
      "velocity": 100,
      "chip": "ym2612"
    },
    {
      "channel": 2,
      "note": 76,
      "start": 24.015,
      "duration": 0.1134,
      "velocity": 95,
      "chip": "ym2612"
    },
    {
      "channel": 4,
      "note": 64,
      "start": 24.0979,
      "duration": 0.1806,
      "velocity": 116,
      "chip": "ym2612"
    },
    {
      "channel": 1,
      "note": 95,
      "start": 24.1007,
      "duration": 0.1609,
      "velocity": 95,
      "chip": "ym2612"
    },
    {
      "channel": 0,
      "note": 92,
      "start": 24.1034,
      "duration": 0.1748,
      "velocity": 95,
      "chip": "ym2612"
    },
    {
      "channel": 3,
      "note": 88,
      "start": 24.1064,
      "duration": 0.1719,
      "velocity": 95,
      "chip": "ym2612"
    },
    {
      "channel": 4,
      "note": 57,
      "start": 24.3147,
      "duration": 0.1048,
      "velocity": 116,
      "chip": "ym2612"
    },
    {
      "channel": 5,
      "note": 45,
      "start": 24.3174,
      "duration": 0.0034,
      "velocity": 127,
      "chip": "ym2612"
    },
    {
      "channel": 0,
      "note": 81,
      "start": 24.32,
      "duration": 0.0964,
      "velocity": 95,
      "chip": "ym2612"
    },
    {
      "channel": 1,
      "note": 96,
      "start": 24.41,
      "duration": 0.1576,
      "velocity": 95,
      "chip": "ym2612"
    },
    {
      "channel": 3,
      "note": 93,
      "start": 24.4122,
      "duration": 0.1556,
      "velocity": 95,
      "chip": "ym2612"
    },
    {
      "channel": 2,
      "note": 88,
      "start": 24.4155,
      "duration": 0.1525,
      "velocity": 95,
      "chip": "ym2612"
    },
    {
      "channel": 0,
      "note": 93,
      "start": 24.4183,
      "duration": 0.0176,
      "velocity": 100,
      "chip": "ym2612"
    },
    {
      "channel": 4,
      "note": 57,
      "start": 24.4572,
      "duration": 0.1602,
      "velocity": 116,
      "chip": "ym2612"
    },
    {
      "channel": 0,
      "note": 45,
      "start": 24.4608,
      "duration": 0.1067,
      "velocity": 127,
      "chip": "ym2612"
    },
    {
      "channel": 0,
      "note": 45,
      "start": 24.5708,
      "duration": 0.0464,
      "velocity": 127,
      "chip": "ym2612"
    },
    {
      "channel": 1,
      "note": 81,
      "start": 24.5735,
      "duration": 0.0606,
      "velocity": 95,
      "chip": "ym2612"
    },
    {
      "channel": 3,
      "note": 96,
      "start": 24.5794,
      "duration": 0.0199,
      "velocity": 100,
      "chip": "ym2612"
    },
    {
      "channel": 2,
      "note": 96,
      "start": 24.6212,
      "duration": 0.2137,
      "velocity": 95,
      "chip": "ym2612"
    },
    {
      "channel": 3,
      "note": 88,
      "start": 24.6239,
      "duration": 0.1942,
      "velocity": 95,
      "chip": "ym2612"
    },
    {
      "channel": 0,
      "note": 93,
      "start": 24.6264,
      "duration": 0.2249,
      "velocity": 95,
      "chip": "ym2612"
    },
    {
      "channel": 4,
      "note": 93,
      "start": 24.6302,
      "duration": 0.0212,
      "velocity": 100,
      "chip": "ym2612"
    },
    {
      "channel": 1,
      "note": 57,
      "start": 24.7045,
      "duration": 0.2469,
      "velocity": 116,
      "chip": "ym2612"
    },
    {
      "channel": 5,
      "note": 45,
      "start": 24.7075,
      "duration": 0.1108,
      "velocity": 127,
      "chip": "ym2612"
    },
    {
      "channel": 3,
      "note": 81,
      "start": 24.8215,
      "duration": 0.1466,
      "velocity": 95,
      "chip": "ym2612"
    },
    {
      "channel": 4,
      "note": 98,
      "start": 24.8243,
      "duration": 0.0606,
      "velocity": 100,
      "chip": "ym2612"
    },
    {
      "channel": 5,
      "note": 45,
      "start": 24.9377,
      "duration": 0.1139,
      "velocity": 127,
      "chip": "ym2612"
    },
    {
      "channel": 0,
      "note": 96,
      "start": 24.9404,
      "duration": 0.2443,
      "velocity": 95,
      "chip": "ym2612"
    },
    {
      "channel": 2,
      "note": 88,
      "start": 24.943,
      "duration": 0.2251,
      "velocity": 95,
      "chip": "ym2612"
    },
    {
      "channel": 4,
      "note": 93,
      "start": 24.9458,
      "duration": 0.2557,
      "velocity": 95,
      "chip": "ym2612"
    },
    {
      "channel": 1,
      "note": 57,
      "start": 25.0545,
      "duration": 0.0969,
      "velocity": 116,
      "chip": "ym2612"
    },
    {
      "channel": 3,
      "note": 96,
      "start": 25.0577,
      "duration": 0.0437,
      "velocity": 100,
      "chip": "ym2612"
    },
    {
      "channel": 1,
      "note": 60,
      "start": 25.171,
      "duration": 0.2137,
      "velocity": 116,
      "chip": "ym2612"
    },
    {
      "channel": 5,
      "note": 45,
      "start": 25.1736,
      "duration": 0.1113,
      "velocity": 127,
      "chip": "ym2612"
    },
    {
      "channel": 2,
      "note": 81,
      "start": 25.1769,
      "duration": 0.1247,
      "velocity": 95,
      "chip": "ym2612"
    },
    {
      "channel": 3,
      "note": 99,
      "start": 25.1797,
      "duration": 0.0383,
      "velocity": 100,
      "chip": "ym2612"
    },
    {
      "channel": 0,
      "note": 88,
      "start": 25.288,
      "duration": 0.1629,
      "velocity": 95,
      "chip": "ym2612"
    },
    {
      "channel": 4,
      "note": 96,
      "start": 25.2906,
      "duration": 0.1694,
      "velocity": 95,
      "chip": "ym2612"
    },
    {
      "channel": 3,
      "note": 93,
      "start": 25.2934,
      "duration": 0.1717,
      "velocity": 95,
      "chip": "ym2612"
    },
    {
      "channel": 1,
      "note": 57,
      "start": 25.4041,
      "duration": 0.1138,
      "velocity": 116,
      "chip": "ym2612"
    },
    {
      "channel": 5,
      "note": 45,
      "start": 25.4068,
      "duration": 0.0007,
      "velocity": 127,
      "chip": "ym2612"
    },
    {
      "channel": 2,
      "note": 100,
      "start": 25.4128,
      "duration": 0.0139,
      "velocity": 100,
      "chip": "ym2612"
    },
    {
      "channel": 2,
      "note": 45,
      "start": 25.4545,
      "duration": 0.0804,
      "velocity": 127,
      "chip": "ym2612"
    },
    {
      "channel": 0,
      "note": 81,
      "start": 25.4568,
      "duration": 0.0778,
      "velocity": 95,
      "chip": "ym2612"
    },
    {
      "channel": 1,
      "note": 55,
      "start": 25.5376,
      "duration": 0.1636,
      "velocity": 116,
      "chip": "ym2612"
    },
    {
      "channel": 0,
      "note": 88,
      "start": 25.5408,
      "duration": 0.1938,
      "velocity": 95,
      "chip": "ym2612"
    },
    {
      "channel": 3,
      "note": 93,
      "start": 25.5433,
      "duration": 0.2384,
      "velocity": 95,
      "chip": "ym2612"
    },
    {
      "channel": 4,
      "note": 96,
      "start": 25.546,
      "duration": 0.222,
      "velocity": 95,
      "chip": "ym2612"
    },
    {
      "channel": 5,
      "note": 103,
      "start": 25.549,
      "duration": 0.0358,
      "velocity": 100,
      "chip": "ym2612"
    },
    {
      "channel": 1,
      "note": 57,
      "start": 25.771,
      "duration": 0.1132,
      "velocity": 116,
      "chip": "ym2612"
    },
    {
      "channel": 2,
      "note": 45,
      "start": 25.7736,
      "duration": 0.0449,
      "velocity": 127,
      "chip": "ym2612"
    },
    {
      "channel": 0,
      "note": 77,
      "start": 25.776,
      "duration": 0.085,
      "velocity": 95,
      "chip": "ym2612"
    },
    {
      "channel": 0,
      "note": 89,
      "start": 25.8638,
      "duration": 0.125,
      "velocity": 95,
      "chip": "ym2612"
    },
    {
      "channel": 3,
      "note": 96,
      "start": 25.8659,
      "duration": 0.123,
      "velocity": 95,
      "chip": "ym2612"
    },
    {
      "channel": 4,
      "note": 93,
      "start": 25.8691,
      "duration": 0.12,
      "velocity": 95,
      "chip": "ym2612"
    },
    {
      "channel": 2,
      "note": 93,
      "start": 25.872,
      "duration": 0.0125,
      "velocity": 100,
      "chip": "ym2612"
    },
    {
      "channel": 1,
      "note": 57,
      "start": 25.9051,
      "duration": 0.1667,
      "velocity": 116,
      "chip": "ym2612"
    },
    {
      "channel": 2,
      "note": 45,
      "start": 25.9075,
      "duration": 0.0982,
      "velocity": 127,
      "chip": "ym2612"
    },
    {
      "channel": 2,
      "note": 45,
      "start": 26.0088,
      "duration": 0.0462,
      "velocity": 127,
      "chip": "ym2612"
    },
    {
      "channel": 0,
      "note": 77,
      "start": 26.0115,
      "duration": 0.0538,
      "velocity": 95,
      "chip": "ym2612"
    },
    {
      "channel": 3,
      "note": 96,
      "start": 26.0175,
      "duration": 0.0195,
      "velocity": 100,
      "chip": "ym2612"
    },
    {
      "channel": 4,
      "note": 89,
      "start": 26.0588,
      "duration": 0.1971,
      "velocity": 95,
      "chip": "ym2612"
    },
    {
      "channel": 3,
      "note": 93,
      "start": 26.061,
      "duration": 0.1947,
      "velocity": 95,
      "chip": "ym2612"
    },
    {
      "channel": 2,
      "note": 96,
      "start": 26.0636,
      "duration": 0.209,
      "velocity": 95,
      "chip": "ym2612"
    },
    {
      "channel": 0,
      "note": 93,
      "start": 26.0673,
      "duration": 0.0217,
      "velocity": 100,
      "chip": "ym2612"
    },
    {
      "channel": 1,
      "note": 57,
      "start": 26.1417,
      "duration": 0.2973,
      "velocity": 116,
      "chip": "ym2612"
    },
    {
      "channel": 5,
      "note": 45,
      "start": 26.1443,
      "duration": 0.1117,
      "velocity": 127,
      "chip": "ym2612"
    },
    {
      "channel": 3,
      "note": 77,
      "start": 26.2592,
      "duration": 0.1298,
      "velocity": 95,
      "chip": "ym2612"
    },
    {
      "channel": 0,
      "note": 98,
      "start": 26.2622,
      "duration": 0.06,
      "velocity": 100,
      "chip": "ym2612"
    },
    {
      "channel": 5,
      "note": 45,
      "start": 26.3754,
      "duration": 0.1136,
      "velocity": 127,
      "chip": "ym2612"
    },
    {
      "channel": 4,
      "note": 89,
      "start": 26.3783,
      "duration": 0.2274,
      "velocity": 95,
      "chip": "ym2612"
    },
    {
      "channel": 2,
      "note": 93,
      "start": 26.3808,
      "duration": 0.2251,
      "velocity": 95,
      "chip": "ym2612"
    },
    {
      "channel": 0,
      "note": 96,
      "start": 26.3839,
      "duration": 0.2383,
      "velocity": 95,
      "chip": "ym2612"
    },
    {
      "channel": 1,
      "note": 57,
      "start": 26.492,
      "duration": 0.0803,
      "velocity": 116,
      "chip": "ym2612"
    },
    {
      "channel": 5,
      "note": 45,
      "start": 26.4945,
      "duration": 0.1112,
      "velocity": 127,
      "chip": "ym2612"
    },
    {
      "channel": 3,
      "note": 96,
      "start": 26.4976,
      "duration": 0.0581,
      "velocity": 100,
      "chip": "ym2612"
    },
    {
      "channel": 1,
      "note": 64,
      "start": 26.6088,
      "duration": 0.2135,
      "velocity": 116,
      "chip": "ym2612"
    },
    {
      "channel": 5,
      "note": 45,
      "start": 26.6117,
      "duration": 0.1107,
      "velocity": 127,
      "chip": "ym2612"
    },
    {
      "channel": 4,
      "note": 77,
      "start": 26.6145,
      "duration": 0.1245,
      "velocity": 95,
      "chip": "ym2612"
    },
    {
      "channel": 3,
      "note": 99,
      "start": 26.6174,
      "duration": 0.055,
      "velocity": 100,
      "chip": "ym2612"
    },
    {
      "channel": 5,
      "note": 45,
      "start": 26.7253,
      "duration": 0.1139,
      "velocity": 127,
      "chip": "ym2612"
    },
    {
      "channel": 0,
      "note": 89,
      "start": 26.7279,
      "duration": 0.1612,
      "velocity": 95,
      "chip": "ym2612"
    },
    {
      "channel": 2,
      "note": 93,
      "start": 26.7305,
      "duration": 0.159,
      "velocity": 95,
      "chip": "ym2612"
    },
    {
      "channel": 3,
      "note": 96,
      "start": 26.7333,
      "duration": 0.1693,
      "velocity": 95,
      "chip": "ym2612"
    },
    {
      "channel": 1,
      "note": 63,
      "start": 26.8417,
      "duration": 0.1145,
      "velocity": 116,
      "chip": "ym2612"
    },
    {
      "channel": 5,
      "note": 45,
      "start": 26.8444,
      "duration": 0.0011,
      "velocity": 127,
      "chip": "ym2612"
    },
    {
      "channel": 4,
      "note": 98,
      "start": 26.851,
      "duration": 0.02,
      "velocity": 100,
      "chip": "ym2612"
    },
    {
      "channel": 0,
      "note": 77,
      "start": 26.8928,
      "duration": 0.08,
      "velocity": 95,
      "chip": "ym2612"
    },
    {
      "channel": 1,
      "note": 62,
      "start": 26.9756,
      "duration": 0.2138,
      "velocity": 116,
      "chip": "ym2612"
    },
    {
      "channel": 0,
      "note": 89,
      "start": 26.9788,
      "duration": 0.1607,
      "velocity": 95,
      "chip": "ym2612"
    },
    {
      "channel": 3,
      "note": 93,
      "start": 26.9812,
      "duration": 0.1917,
      "velocity": 95,
      "chip": "ym2612"
    },
    {
      "channel": 2,
      "note": 96,
      "start": 26.9841,
      "duration": 0.2056,
      "velocity": 95,
      "chip": "ym2612"
    },
    {
      "channel": 1,
      "note": 57,
      "start": 27.2091,
      "duration": 0.1038,
      "velocity": 116,
      "chip": "ym2612"
    },
    {
      "channel": 4,
      "note": 45,
      "start": 27.2119,
      "duration": 0.0455,
      "velocity": 127,
      "chip": "ym2612"
    },
    {
      "channel": 0,
      "note": 78,
      "start": 27.2144,
      "duration": 0.0957,
      "velocity": 95,
      "chip": "ym2612"
    },
    {
      "channel": 3,
      "note": 93,
      "start": 27.3032,
      "duration": 0.1583,
      "velocity": 95,
      "chip": "ym2612"
    },
    {
      "channel": 2,
      "note": 98,
      "start": 27.3057,
      "duration": 0.1228,
      "velocity": 95,
      "chip": "ym2612"
    },
    {
      "channel": 4,
      "note": 90,
      "start": 27.3091,
      "duration": 0.1192,
      "velocity": 95,
      "chip": "ym2612"
    },
    {
      "channel": 0,
      "note": 93,
      "start": 27.312,
      "duration": 0.0117,
      "velocity": 100,
      "chip": "ym2612"
    },
    {
      "channel": 1,
      "note": 57,
      "start": 27.3503,
      "duration": 0.1751,
      "velocity": 116,
      "chip": "ym2612"
    },
    {
      "channel": 0,
      "note": 45,
      "start": 27.3537,
      "duration": 0.1076,
      "velocity": 127,
      "chip": "ym2612"
    },
    {
      "channel": 0,
      "note": 45,
      "start": 27.4644,
      "duration": 0.0473,
      "velocity": 127,
      "chip": "ym2612"
    },
    {
      "channel": 3,
      "note": 78,
      "start": 27.4676,
      "duration": 0.0579,
      "velocity": 95,
      "chip": "ym2612"
    },
    {
      "channel": 4,
      "note": 96,
      "start": 27.4735,
      "duration": 0.014,
      "velocity": 100,
      "chip": "ym2612"
    },
    {
      "channel": 2,
      "note": 90,
      "start": 27.5158,
      "duration": 0.1809,
      "velocity": 95,
      "chip": "ym2612"
    },
    {
      "channel": 4,
      "note": 98,
      "start": 27.5181,
      "duration": 0.1783,
      "velocity": 95,
      "chip": "ym2612"
    },
    {
      "channel": 0,
      "note": 93,
      "start": 27.5205,
      "duration": 0.001,
      "velocity": 95,
      "chip": "ym2612"
    },
    {
      "channel": 0,
      "note": 93,
      "start": 27.5234,
      "duration": 0.0114,
      "velocity": 100,
      "chip": "ym2612"
    },
    {
      "channel": 1,
      "note": 57,
      "start": 27.5995,
      "duration": 0.2635,
      "velocity": 116,
      "chip": "ym2612"
    },
    {
      "channel": 3,
      "note": 45,
      "start": 27.6021,
      "duration": 0.0942,
      "velocity": 127,
      "chip": "ym2612"
    },
    {
      "channel": 4,
      "note": 78,
      "start": 27.6999,
      "duration": 0.1466,
      "velocity": 95,
      "chip": "ym2612"
    },
    {
      "channel": 0,
      "note": 98,
      "start": 27.7025,
      "duration": 0.0604,
      "velocity": 100,
      "chip": "ym2612"
    },
    {
      "channel": 3,
      "note": 45,
      "start": 27.8158,
      "duration": 0.1139,
      "velocity": 127,
      "chip": "ym2612"
    },
    {
      "channel": 2,
      "note": 90,
      "start": 27.8188,
      "duration": 0.2111,
      "velocity": 95,
      "chip": "ym2612"
    },
    {
      "channel": 5,
      "note": 98,
      "start": 27.8213,
      "duration": 0.2085,
      "velocity": 95,
      "chip": "ym2612"
    },
    {
      "channel": 0,
      "note": 93,
      "start": 27.8245,
      "duration": 0.2218,
      "velocity": 95,
      "chip": "ym2612"
    },
    {
      "channel": 1,
      "note": 57,
      "start": 27.9327,
      "duration": 0.0802,
      "velocity": 116,
      "chip": "ym2612"
    },
    {
      "channel": 4,
      "note": 96,
      "start": 27.936,
      "duration": 0.0604,
      "velocity": 100,
      "chip": "ym2612"
    },
    {
      "channel": 1,
      "note": 60,
      "start": 28.0494,
      "duration": 0.2136,
      "velocity": 116,
      "chip": "ym2612"
    },
    {
      "channel": 3,
      "note": 45,
      "start": 28.0518,
      "duration": 0.1113,
      "velocity": 127,
      "chip": "ym2612"
    },
    {
      "channel": 0,
      "note": 78,
      "start": 28.0545,
      "duration": 0.1085,
      "velocity": 95,
      "chip": "ym2612"
    },
    {
      "channel": 4,
      "note": 99,
      "start": 28.0577,
      "duration": 0.0554,
      "velocity": 100,
      "chip": "ym2612"
    },
    {
      "channel": 0,
      "note": 90,
      "start": 28.1663,
      "duration": 0.1573,
      "velocity": 95,
      "chip": "ym2612"
    },
    {
      "channel": 5,
      "note": 93,
      "start": 28.1689,
      "duration": 0.1167,
      "velocity": 95,
      "chip": "ym2612"
    },
    {
      "channel": 2,
      "note": 98,
      "start": 28.1718,
      "duration": 0.152,
      "velocity": 95,
      "chip": "ym2612"
    },
    {
      "channel": 1,
      "note": 57,
      "start": 28.2823,
      "duration": 0.1154,
      "velocity": 116,
      "chip": "ym2612"
    },
    {
      "channel": 3,
      "note": 45,
      "start": 28.2849,
      "duration": 0.0452,
      "velocity": 127,
      "chip": "ym2612"
    },
    {
      "channel": 4,
      "note": 100,
      "start": 28.2908,
      "duration": 0.0206,
      "velocity": 100,
      "chip": "ym2612"
    },
    {
      "channel": 3,
      "note": 45,
      "start": 28.3339,
      "duration": 0.0807,
      "velocity": 127,
      "chip": "ym2612"
    },
    {
      "channel": 0,
      "note": 78,
      "start": 28.3364,
      "duration": 0.1113,
      "velocity": 95,
      "chip": "ym2612"
    },
    {
      "channel": 1,
      "note": 55,
      "start": 28.4174,
      "duration": 0.1804,
      "velocity": 116,
      "chip": "ym2612"
    },
    {
      "channel": 2,
      "note": 93,
      "start": 28.4204,
      "duration": 0.211,
      "velocity": 95,
      "chip": "ym2612"
    },
    {
      "channel": 4,
      "note": 90,
      "start": 28.423,
      "duration": 0.2081,
      "velocity": 95,
      "chip": "ym2612"
    },
    {
      "channel": 5,
      "note": 98,
      "start": 28.4256,
      "duration": 0.2056,
      "velocity": 95,
      "chip": "ym2612"
    },
    {
      "channel": 3,
      "note": 103,
      "start": 28.4286,
      "duration": 0.0526,
      "velocity": 100,
      "chip": "ym2612"
    },
    {
      "channel": 1,
      "note": 52,
      "start": 28.6506,
      "duration": 0.1085,
      "velocity": 116,
      "chip": "ym2612"
    },
    {
      "channel": 0,
      "note": 45,
      "start": 28.6532,
      "duration": 0.0457,
      "velocity": 127,
      "chip": "ym2612"
    },
    {
      "channel": 4,
      "note": 76,
      "start": 28.6559,
      "duration": 0.099,
      "velocity": 95,
      "chip": "ym2612"
    },
    {
      "channel": 2,
      "note": 97,
      "start": 28.7451,
      "duration": 0.1417,
      "velocity": 95,
      "chip": "ym2612"
    },
    {
      "channel": 3,
      "note": 88,
      "start": 28.7474,
      "duration": 0.1393,
      "velocity": 95,
      "chip": "ym2612"
    },
    {
      "channel": 0,
      "note": 92,
      "start": 28.7508,
      "duration": 0.0009,
      "velocity": 95,
      "chip": "ym2612"
    },
    {
      "channel": 0,
      "note": 105,
      "start": 28.7536,
      "duration": 0.012,
      "velocity": 100,
      "chip": "ym2612"
    },
    {
      "channel": 1,
      "note": 52,
      "start": 28.7921,
      "duration": 0.1758,
      "velocity": 116,
      "chip": "ym2612"
    },
    {
      "channel": 4,
      "note": 45,
      "start": 28.7957,
      "duration": 0.1076,
      "velocity": 127,
      "chip": "ym2612"
    },
    {
      "channel": 4,
      "note": 45,
      "start": 28.9063,
      "duration": 0.0481,
      "velocity": 127,
      "chip": "ym2612"
    },
    {
      "channel": 3,
      "note": 76,
      "start": 28.9095,
      "duration": 0.0621,
      "velocity": 95,
      "chip": "ym2612"
    },
    {
      "channel": 0,
      "note": 103,
      "start": 28.9153,
      "duration": 0.0139,
      "velocity": 100,
      "chip": "ym2612"
    },
    {
      "channel": 2,
      "note": 92,
      "start": 28.9582,
      "duration": 0.2137,
      "velocity": 95,
      "chip": "ym2612"
    },
    {
      "channel": 0,
      "note": 88,
      "start": 28.9606,
      "duration": 0.0034,
      "velocity": 95,
      "chip": "ym2612"
    },
    {
      "channel": 4,
      "note": 97,
      "start": 28.963,
      "duration": 0.1921,
      "velocity": 95,
      "chip": "ym2612"
    },
    {
      "channel": 0,
      "note": 100,
      "start": 28.9658,
      "duration": 0.0113,
      "velocity": 100,
      "chip": "ym2612"
    },
    {
      "channel": 1,
      "note": 52,
      "start": 29.0415,
      "duration": 0.2636,
      "velocity": 116,
      "chip": "ym2612"
    },
    {
      "channel": 3,
      "note": 45,
      "start": 29.0441,
      "duration": 0.111,
      "velocity": 127,
      "chip": "ym2612"
    },
    {
      "channel": 4,
      "note": 76,
      "start": 29.1585,
      "duration": 0.13,
      "velocity": 95,
      "chip": "ym2612"
    },
    {
      "channel": 0,
      "note": 103,
      "start": 29.1611,
      "duration": 0.0438,
      "velocity": 100,
      "chip": "ym2612"
    },
    {
      "channel": 3,
      "note": 45,
      "start": 29.2747,
      "duration": 0.1137,
      "velocity": 127,
      "chip": "ym2612"
    },
    {
      "channel": 2,
      "note": 95,
      "start": 29.2776,
      "duration": 0.1943,
      "velocity": 95,
      "chip": "ym2612"
    },
    {
      "channel": 5,
      "note": 88,
      "start": 29.2805,
      "duration": 0.1912,
      "velocity": 95,
      "chip": "ym2612"
    },
    {
      "channel": 0,
      "note": 92,
      "start": 29.2833,
      "duration": 0.2217,
      "velocity": 95,
      "chip": "ym2612"
    },
    {
      "channel": 1,
      "note": 52,
      "start": 29.3914,
      "duration": 0.047,
      "velocity": 116,
      "chip": "ym2612"
    },
    {
      "channel": 3,
      "note": 45,
      "start": 29.3938,
      "duration": 0.1113,
      "velocity": 127,
      "chip": "ym2612"
    },
    {
      "channel": 4,
      "note": 100,
      "start": 29.3969,
      "duration": 0.0417,
      "velocity": 100,
      "chip": "ym2612"
    },
    {
      "channel": 1,
      "note": 52,
      "start": 29.5081,
      "duration": 0.1969,
      "velocity": 116,
      "chip": "ym2612"
    },
    {
      "channel": 3,
      "note": 45,
      "start": 29.5106,
      "duration": 0.0945,
      "velocity": 127,
      "chip": "ym2612"
    },
    {
      "channel": 0,
      "note": 76,
      "start": 29.5133,
      "duration": 0.1249,
      "velocity": 95,
      "chip": "ym2612"
    },
    {
      "channel": 4,
      "note": 98,
      "start": 29.5162,
      "duration": 0.0389,
      "velocity": 100,
      "chip": "ym2612"
    },
    {
      "channel": 3,
      "note": 45,
      "start": 29.608,
      "duration": 0.1137,
      "velocity": 127,
      "chip": "ym2612"
    },
    {
      "channel": 5,
      "note": 88,
      "start": 29.6108,
      "duration": 0.1169,
      "velocity": 95,
      "chip": "ym2612"
    },
    {
      "channel": 2,
      "note": 92,
      "start": 29.6134,
      "duration": 0.1712,
      "velocity": 95,
      "chip": "ym2612"
    },
    {
      "channel": 4,
      "note": 95,
      "start": 29.6161,
      "duration": 0.1684,
      "velocity": 95,
      "chip": "ym2612"
    },
    {
      "channel": 1,
      "note": 55,
      "start": 29.7244,
      "duration": 0.114,
      "velocity": 116,
      "chip": "ym2612"
    },
    {
      "channel": 3,
      "note": 45,
      "start": 29.727,
      "duration": 0.0439,
      "velocity": 127,
      "chip": "ym2612"
    },
    {
      "channel": 0,
      "note": 96,
      "start": 29.7337,
      "duration": 0.019,
      "velocity": 100,
      "chip": "ym2612"
    },
    {
      "channel": 0,
      "note": 76,
      "start": 29.7751,
      "duration": 0.1299,
      "velocity": 95,
      "chip": "ym2612"
    },
    {
      "channel": 1,
      "note": 56,
      "start": 29.8576,
      "duration": 0.2141,
      "velocity": 116,
      "chip": "ym2612"
    },
    {
      "channel": 4,
      "note": 95,
      "start": 29.8606,
      "duration": 0.1779,
      "velocity": 95,
      "chip": "ym2612"
    },
    {
      "channel": 2,
      "note": 92,
      "start": 29.8633,
      "duration": 0.192,
      "velocity": 95,
      "chip": "ym2612"
    },
    {
      "channel": 3,
      "note": 88,
      "start": 29.8659,
      "duration": 0.1893,
      "velocity": 95,
      "chip": "ym2612"
    },
    {
      "channel": 1,
      "note": 57,
      "start": 30.0914,
      "duration": 0.0919,
      "velocity": 116,
      "chip": "ym2612"
    },
    {
      "channel": 5,
      "note": 45,
      "start": 30.0941,
      "duration": 0.0034,
      "velocity": 127,
      "chip": "ym2612"
    },
    {
      "channel": 0,
      "note": 81,
      "start": 30.0966,
      "duration": 0.0987,
      "velocity": 95,
      "chip": "ym2612"
    },
    {
      "channel": 3,
      "note": 96,
      "start": 30.1861,
      "duration": 0.1578,
      "velocity": 95,
      "chip": "ym2612"
    },
    {
      "channel": 4,
      "note": 93,
      "start": 30.1883,
      "duration": 0.1557,
      "velocity": 95,
      "chip": "ym2612"
    },
    {
      "channel": 2,
      "note": 88,
      "start": 30.1915,
      "duration": 0.1527,
      "velocity": 95,
      "chip": "ym2612"
    },
    {
      "channel": 1,
      "note": 93,
      "start": 30.1942,
      "duration": 0.018,
      "velocity": 100,
      "chip": "ym2612"
    },
    {
      "channel": 0,
      "note": 57,
      "start": 30.2332,
      "duration": 0.1553,
      "velocity": 116,
      "chip": "ym2612"
    },
    {
      "channel": 1,
      "note": 45,
      "start": 30.237,
      "duration": 0.1068,
      "velocity": 127,
      "chip": "ym2612"
    },
    {
      "channel": 1,
      "note": 45,
      "start": 30.347,
      "duration": 0.048,
      "velocity": 127,
      "chip": "ym2612"
    },
    {
      "channel": 3,
      "note": 81,
      "start": 30.3501,
      "duration": 0.0621,
      "velocity": 95,
      "chip": "ym2612"
    },
    {
      "channel": 4,
      "note": 96,
      "start": 30.3562,
      "duration": 0.0201,
      "velocity": 100,
      "chip": "ym2612"
    },
    {
      "channel": 2,
      "note": 96,
      "start": 30.399,
      "duration": 0.2135,
      "velocity": 95,
      "chip": "ym2612"
    },
    {
      "channel": 4,
      "note": 88,
      "start": 30.4016,
      "duration": 0.1943,
      "velocity": 95,
      "chip": "ym2612"
    },
    {
      "channel": 0,
      "note": 93,
      "start": 30.404,
      "duration": 0.2249,
      "velocity": 95,
      "chip": "ym2612"
    },
    {
      "channel": 1,
      "note": 93,
      "start": 30.4066,
      "duration": 0.0112,
      "velocity": 100,
      "chip": "ym2612"
    },
    {
      "channel": 3,
      "note": 57,
      "start": 30.4819,
      "duration": 0.2137,
      "velocity": 116,
      "chip": "ym2612"
    },
    {
      "channel": 1,
      "note": 45,
      "start": 30.4845,
      "duration": 0.1112,
      "velocity": 127,
      "chip": "ym2612"
    },
    {
      "channel": 4,
      "note": 81,
      "start": 30.5992,
      "duration": 0.1466,
      "velocity": 95,
      "chip": "ym2612"
    },
    {
      "channel": 5,
      "note": 98,
      "start": 30.602,
      "duration": 0.0437,
      "velocity": 100,
      "chip": "ym2612"
    },
    {
      "channel": 1,
      "note": 45,
      "start": 30.715,
      "duration": 0.1139,
      "velocity": 127,
      "chip": "ym2612"
    },
    {
      "channel": 0,
      "note": 96,
      "start": 30.718,
      "duration": 0.2442,
      "velocity": 95,
      "chip": "ym2612"
    },
    {
      "channel": 2,
      "note": 88,
      "start": 30.7207,
      "duration": 0.2251,
      "velocity": 95,
      "chip": "ym2612"
    },
    {
      "channel": 5,
      "note": 93,
      "start": 30.7236,
      "duration": 0.2555,
      "velocity": 95,
      "chip": "ym2612"
    },
    {
      "channel": 3,
      "note": 57,
      "start": 30.8324,
      "duration": 0.0633,
      "velocity": 116,
      "chip": "ym2612"
    },
    {
      "channel": 4,
      "note": 96,
      "start": 30.8357,
      "duration": 0.0433,
      "velocity": 100,
      "chip": "ym2612"
    },
    {
      "channel": 3,
      "note": 60,
      "start": 30.9488,
      "duration": 0.197,
      "velocity": 116,
      "chip": "ym2612"
    },
    {
      "channel": 1,
      "note": 45,
      "start": 30.9511,
      "duration": 0.1111,
      "velocity": 127,
      "chip": "ym2612"
    },
    {
      "channel": 2,
      "note": 81,
      "start": 30.9541,
      "duration": 0.125,
      "velocity": 95,
      "chip": "ym2612"
    },
    {
      "channel": 4,
      "note": 99,
      "start": 30.957,
      "duration": 0.0388,
      "velocity": 100,
      "chip": "ym2612"
    },
    {
      "channel": 0,
      "note": 88,
      "start": 31.0655,
      "duration": 0.1634,
      "velocity": 95,
      "chip": "ym2612"
    },
    {
      "channel": 5,
      "note": 96,
      "start": 31.0681,
      "duration": 0.1168,
      "velocity": 95,
      "chip": "ym2612"
    },
    {
      "channel": 4,
      "note": 93,
      "start": 31.0713,
      "duration": 0.1719,
      "velocity": 95,
      "chip": "ym2612"
    },
    {
      "channel": 3,
      "note": 57,
      "start": 31.1817,
      "duration": 0.098,
      "velocity": 116,
      "chip": "ym2612"
    },
    {
      "channel": 1,
      "note": 45,
      "start": 31.1842,
      "duration": 0.0447,
      "velocity": 127,
      "chip": "ym2612"
    },
    {
      "channel": 2,
      "note": 100,
      "start": 31.1903,
      "duration": 0.014,
      "velocity": 100,
      "chip": "ym2612"
    },
    {
      "channel": 1,
      "note": 45,
      "start": 31.2326,
      "duration": 0.0806,
      "velocity": 127,
      "chip": "ym2612"
    },
    {
      "channel": 0,
      "note": 81,
      "start": 31.2348,
      "duration": 0.0783,
      "velocity": 95,
      "chip": "ym2612"
    },
    {
      "channel": 3,
      "note": 55,
      "start": 31.3161,
      "duration": 0.1637,
      "velocity": 116,
      "chip": "ym2612"
    },
    {
      "channel": 0,
      "note": 88,
      "start": 31.3189,
      "duration": 0.194,
      "velocity": 95,
      "chip": "ym2612"
    },
    {
      "channel": 4,
      "note": 93,
      "start": 31.3215,
      "duration": 0.2275,
      "velocity": 95,
      "chip": "ym2612"
    },
    {
      "channel": 2,
      "note": 96,
      "start": 31.3243,
      "duration": 0.2056,
      "velocity": 95,
      "chip": "ym2612"
    },
    {
      "channel": 5,
      "note": 103,
      "start": 31.3273,
      "duration": 0.0359,
      "velocity": 100,
      "chip": "ym2612"
    },
    {
      "channel": 3,
      "note": 57,
      "start": 31.5329,
      "duration": 0.1061,
      "velocity": 116,
      "chip": "ym2612"
    },
    {
      "channel": 1,
      "note": 45,
      "start": 31.5353,
      "duration": 0.0447,
      "velocity": 127,
      "chip": "ym2612"
    },
    {
      "channel": 0,
      "note": 77,
      "start": 31.5377,
      "duration": 0.0846,
      "velocity": 95,
      "chip": "ym2612"
    },
    {
      "channel": 0,
      "note": 89,
      "start": 31.625,
      "duration": 0.142,
      "velocity": 95,
      "chip": "ym2612"
    },
    {
      "channel": 4,
      "note": 96,
      "start": 31.6276,
      "duration": 0.1397,
      "velocity": 95,
      "chip": "ym2612"
    },
    {
      "channel": 2,
      "note": 93,
      "start": 31.6309,
      "duration": 0.1365,
      "velocity": 95,
      "chip": "ym2612"
    },
    {
      "channel": 1,
      "note": 93,
      "start": 31.6338,
      "duration": 0.0178,
      "velocity": 100,
      "chip": "ym2612"
    },
    {
      "channel": 3,
      "note": 57,
      "start": 31.6727,
      "duration": 0.1607,
      "velocity": 116,
      "chip": "ym2612"
    },
    {
      "channel": 1,
      "note": 45,
      "start": 31.6764,
      "duration": 0.1074,
      "velocity": 127,
      "chip": "ym2612"
    },
    {
      "channel": 1,
      "note": 45,
      "start": 31.7868,
      "duration": 0.0464,
      "velocity": 127,
      "chip": "ym2612"
    },
    {
      "channel": 0,
      "note": 77,
      "start": 31.7895,
      "duration": 0.0575,
      "velocity": 95,
      "chip": "ym2612"
    },
    {
      "channel": 4,
      "note": 96,
      "start": 31.7954,
      "duration": 0.0199,
      "velocity": 100,
      "chip": "ym2612"
    },
    {
      "channel": 2,
      "note": 89,
      "start": 31.8373,
      "duration": 0.1974,
      "velocity": 95,
      "chip": "ym2612"
    },
    {
      "channel": 4,
      "note": 93,
      "start": 31.8396,
      "duration": 0.1948,
      "velocity": 95,
      "chip": "ym2612"
    },
    {
      "channel": 1,
      "note": 96,
      "start": 31.8422,
      "duration": 0.2089,
      "velocity": 95,
      "chip": "ym2612"
    },
    {
      "channel": 3,
      "note": 93,
      "start": 31.8458,
      "duration": 0.022,
      "velocity": 100,
      "chip": "ym2612"
    },
    {
      "channel": 0,
      "note": 57,
      "start": 31.9205,
      "duration": 0.2305,
      "velocity": 116,
      "chip": "ym2612"
    },
    {
      "channel": 5,
      "note": 45,
      "start": 31.9235,
      "duration": 0.111,
      "velocity": 127,
      "chip": "ym2612"
    },
    {
      "channel": 4,
      "note": 77,
      "start": 32.0379,
      "duration": 0.13,
      "velocity": 95,
      "chip": "ym2612"
    },
    {
      "channel": 3,
      "note": 98,
      "start": 32.0405,
      "duration": 0.0605,
      "velocity": 100,
      "chip": "ym2612"
    },
    {
      "channel": 5,
      "note": 45,
      "start": 32.1541,
      "duration": 0.1137,
      "velocity": 127,
      "chip": "ym2612"
    },
    {
      "channel": 1,
      "note": 89,
      "start": 32.1573,
      "duration": 0.227,
      "velocity": 95,
      "chip": "ym2612"
    },
    {
      "channel": 2,
      "note": 93,
      "start": 32.1598,
      "duration": 0.2248,
      "velocity": 95,
      "chip": "ym2612"
    },
    {
      "channel": 3,
      "note": 96,
      "start": 32.1626,
      "duration": 0.2385,
      "velocity": 95,
      "chip": "ym2612"
    },
    {
      "channel": 0,
      "note": 57,
      "start": 32.2711,
      "duration": 0.0798,
      "velocity": 116,
      "chip": "ym2612"
    },
    {
      "channel": 5,
      "note": 45,
      "start": 32.2736,
      "duration": 0.1109,
      "velocity": 127,
      "chip": "ym2612"
    },
    {
      "channel": 4,
      "note": 96,
      "start": 32.2767,
      "duration": 0.041,
      "velocity": 100,
      "chip": "ym2612"
    },
    {
      "channel": 0,
      "note": 64,
      "start": 32.3874,
      "duration": 0.2135,
      "velocity": 116,
      "chip": "ym2612"
    },
    {
      "channel": 5,
      "note": 45,
      "start": 32.39,
      "duration": 0.1111,
      "velocity": 127,
      "chip": "ym2612"
    },
    {
      "channel": 1,
      "note": 77,
      "start": 32.3927,
      "duration": 0.125,
      "velocity": 95,
      "chip": "ym2612"
    },
    {
      "channel": 4,
      "note": 99,
      "start": 32.3956,
      "duration": 0.0389,
      "velocity": 100,
      "chip": "ym2612"
    },
    {
      "channel": 5,
      "note": 45,
      "start": 32.504,
      "duration": 0.1137,
      "velocity": 127,
      "chip": "ym2612"
    },
    {
      "channel": 3,
      "note": 89,
      "start": 32.5068,
      "duration": 0.1609,
      "velocity": 95,
      "chip": "ym2612"
    },
    {
      "channel": 2,
      "note": 93,
      "start": 32.5093,
      "duration": 0.1584,
      "velocity": 95,
      "chip": "ym2612"
    },
    {
      "channel": 4,
      "note": 96,
      "start": 32.5124,
      "duration": 0.1685,
      "velocity": 95,
      "chip": "ym2612"
    },
    {
      "channel": 0,
      "note": 63,
      "start": 32.6203,
      "duration": 0.1146,
      "velocity": 116,
      "chip": "ym2612"
    },
    {
      "channel": 5,
      "note": 45,
      "start": 32.623,
      "duration": 0.0007,
      "velocity": 127,
      "chip": "ym2612"
    },
    {
      "channel": 1,
      "note": 98,
      "start": 32.6292,
      "duration": 0.0137,
      "velocity": 100,
      "chip": "ym2612"
    },
    {
      "channel": 3,
      "note": 77,
      "start": 32.6714,
      "duration": 0.0803,
      "velocity": 95,
      "chip": "ym2612"
    },
    {
      "channel": 0,
      "note": 62,
      "start": 32.7546,
      "duration": 0.1471,
      "velocity": 116,
      "chip": "ym2612"
    },
    {
      "channel": 3,
      "note": 89,
      "start": 32.7574,
      "duration": 0.1609,
      "velocity": 95,
      "chip": "ym2612"
    },
    {
      "channel": 4,
      "note": 93,
      "start": 32.76,
      "duration": 0.1751,
      "velocity": 95,
      "chip": "ym2612"
    },
    {
      "channel": 2,
      "note": 96,
      "start": 32.7629,
      "duration": 0.1889,
      "velocity": 95,
      "chip": "ym2612"
    },
    {
      "channel": 0,
      "note": 57,
      "start": 32.988,
      "duration": 0.0709,
      "velocity": 116,
      "chip": "ym2612"
    },
    {
      "channel": 1,
      "note": 45,
      "start": 32.9907,
      "duration": 0.0442,
      "velocity": 127,
      "chip": "ym2612"
    },
    {
      "channel": 3,
      "note": 78,
      "start": 32.9933,
      "duration": 0.0966,
      "velocity": 95,
      "chip": "ym2612"
    },
    {
      "channel": 4,
      "note": 93,
      "start": 33.0804,
      "duration": 0.1412,
      "velocity": 95,
      "chip": "ym2612"
    },
    {
      "channel": 2,
      "note": 98,
      "start": 33.0837,
      "duration": 0.1214,
      "velocity": 95,
      "chip": "ym2612"
    },
    {
      "channel": 1,
      "note": 90,
      "start": 33.0861,
      "duration": 0.1187,
      "velocity": 95,
      "chip": "ym2612"
    },
    {
      "channel": 0,
      "note": 93,
      "start": 33.0888,
      "duration": 0.0115,
      "velocity": 100,
      "chip": "ym2612"
    },
    {
      "channel": 3,
      "note": 57,
      "start": 33.1211,
      "duration": 0.1436,
      "velocity": 116,
      "chip": "ym2612"
    },
    {
      "channel": 0,
      "note": 45,
      "start": 33.1234,
      "duration": 0.098,
      "velocity": 127,
      "chip": "ym2612"
    },
    {
      "channel": 0,
      "note": 45,
      "start": 33.2245,
      "duration": 0.0463,
      "velocity": 127,
      "chip": "ym2612"
    },
    {
      "channel": 1,
      "note": 78,
      "start": 33.2273,
      "duration": 0.0604,
      "velocity": 95,
      "chip": "ym2612"
    },
    {
      "channel": 2,
      "note": 96,
      "start": 33.2337,
      "duration": 0.0194,
      "velocity": 100,
      "chip": "ym2612"
    },
    {
      "channel": 4,
      "note": 90,
      "start": 33.2747,
      "duration": 0.197,
      "velocity": 95,
      "chip": "ym2612"
    },
    {
      "channel": 2,
      "note": 98,
      "start": 33.277,
      "duration": 0.1949,
      "velocity": 95,
      "chip": "ym2612"
    },
    {
      "channel": 3,
      "note": 93,
      "start": 33.2797,
      "duration": 0.2087,
      "velocity": 95,
      "chip": "ym2612"
    },
    {
      "channel": 0,
      "note": 93,
      "start": 33.2823,
      "duration": 0.0226,
      "velocity": 100,
      "chip": "ym2612"
    },
    {
      "channel": 1,
      "note": 57,
      "start": 33.358,
      "duration": 0.2303,
      "velocity": 116,
      "chip": "ym2612"
    },
    {
      "channel": 5,
      "note": 45,
      "start": 33.3605,
      "duration": 0.1113,
      "velocity": 127,
      "chip": "ym2612"
    },
    {
      "channel": 4,
      "note": 78,
      "start": 33.4755,
      "duration": 0.1295,
      "velocity": 95,
      "chip": "ym2612"
    },
    {
      "channel": 0,
      "note": 98,
      "start": 33.4781,
      "duration": 0.06,
      "velocity": 100,
      "chip": "ym2612"
    },
    {
      "channel": 5,
      "note": 45,
      "start": 33.5913,
      "duration": 0.1137,
      "velocity": 127,
      "chip": "ym2612"
    },
    {
      "channel": 3,
      "note": 90,
      "start": 33.5941,
      "duration": 0.211,
      "velocity": 95,
      "chip": "ym2612"
    },
    {
      "channel": 2,
      "note": 98,
      "start": 33.5966,
      "duration": 0.2087,
      "velocity": 95,
      "chip": "ym2612"
    },
    {
      "channel": 0,
      "note": 93,
      "start": 33.5994,
      "duration": 0.2221,
      "velocity": 95,
      "chip": "ym2612"
    },
    {
      "channel": 1,
      "note": 57,
      "start": 33.7083,
      "duration": 0.0966,
      "velocity": 116,
      "chip": "ym2612"
    },
    {
      "channel": 4,
      "note": 96,
      "start": 33.7116,
      "duration": 0.0602,
      "velocity": 100,
      "chip": "ym2612"
    },
    {
      "channel": 1,
      "note": 60,
      "start": 33.8246,
      "duration": 0.2137,
      "velocity": 116,
      "chip": "ym2612"
    },
    {
      "channel": 5,
      "note": 45,
      "start": 33.8275,
      "duration": 0.1111,
      "velocity": 127,
      "chip": "ym2612"
    },
    {
      "channel": 0,
      "note": 78,
      "start": 33.8302,
      "duration": 0.1081,
      "velocity": 95,
      "chip": "ym2612"
    },
    {
      "channel": 4,
      "note": 99,
      "start": 33.8331,
      "duration": 0.0553,
      "velocity": 100,
      "chip": "ym2612"
    },
    {
      "channel": 0,
      "note": 90,
      "start": 33.9417,
      "duration": 0.1573,
      "velocity": 95,
      "chip": "ym2612"
    },
    {
      "channel": 3,
      "note": 93,
      "start": 33.9445,
      "duration": 0.1606,
      "velocity": 95,
      "chip": "ym2612"
    },
    {
      "channel": 2,
      "note": 98,
      "start": 33.9473,
      "duration": 0.1518,
      "velocity": 95,
      "chip": "ym2612"
    },
    {
      "channel": 1,
      "note": 57,
      "start": 34.0576,
      "duration": 0.1151,
      "velocity": 116,
      "chip": "ym2612"
    },
    {
      "channel": 5,
      "note": 45,
      "start": 34.0602,
      "duration": 0.0007,
      "velocity": 127,
      "chip": "ym2612"
    },
    {
      "channel": 4,
      "note": 100,
      "start": 34.0663,
      "duration": 0.0206,
      "velocity": 100,
      "chip": "ym2612"
    },
    {
      "channel": 4,
      "note": 45,
      "start": 34.1088,
      "duration": 0.0808,
      "velocity": 127,
      "chip": "ym2612"
    },
    {
      "channel": 0,
      "note": 78,
      "start": 34.1111,
      "duration": 0.1116,
      "velocity": 95,
      "chip": "ym2612"
    },
    {
      "channel": 1,
      "note": 55,
      "start": 34.1924,
      "duration": 0.1637,
      "velocity": 116,
      "chip": "ym2612"
    },
    {
      "channel": 3,
      "note": 93,
      "start": 34.1952,
      "duration": 0.2108,
      "velocity": 95,
      "chip": "ym2612"
    },
    {
      "channel": 2,
      "note": 90,
      "start": 34.1978,
      "duration": 0.2086,
      "velocity": 95,
      "chip": "ym2612"
    },
    {
      "channel": 5,
      "note": 98,
      "start": 34.2005,
      "duration": 0.2058,
      "velocity": 95,
      "chip": "ym2612"
    },
    {
      "channel": 4,
      "note": 103,
      "start": 34.2034,
      "duration": 0.0361,
      "velocity": 100,
      "chip": "ym2612"
    },
    {
      "channel": 1,
      "note": 52,
      "start": 34.4258,
      "duration": 0.1028,
      "velocity": 116,
      "chip": "ym2612"
    },
    {
      "channel": 0,
      "note": 45,
      "start": 34.4284,
      "duration": 0.0453,
      "velocity": 127,
      "chip": "ym2612"
    },
    {
      "channel": 3,
      "note": 76,
      "start": 34.431,
      "duration": 0.0976,
      "velocity": 95,
      "chip": "ym2612"
    },
    {
      "channel": 2,
      "note": 97,
      "start": 34.5189,
      "duration": 0.1244,
      "velocity": 95,
      "chip": "ym2612"
    },
    {
      "channel": 4,
      "note": 88,
      "start": 34.5221,
      "duration": 0.1211,
      "velocity": 95,
      "chip": "ym2612"
    },
    {
      "channel": 0,
      "note": 92,
      "start": 34.5247,
      "duration": 0.0008,
      "velocity": 95,
      "chip": "ym2612"
    },
    {
      "channel": 0,
      "note": 105,
      "start": 34.5273,
      "duration": 0.0116,
      "velocity": 100,
      "chip": "ym2612"
    },
    {
      "channel": 1,
      "note": 52,
      "start": 34.5657,
      "duration": 0.1615,
      "velocity": 116,
      "chip": "ym2612"
    },
    {
      "channel": 3,
      "note": 45,
      "start": 34.569,
      "duration": 0.1075,
      "velocity": 127,
      "chip": "ym2612"
    },
    {
      "channel": 3,
      "note": 45,
      "start": 34.6795,
      "duration": 0.0477,
      "velocity": 127,
      "chip": "ym2612"
    },
    {
      "channel": 4,
      "note": 76,
      "start": 34.6824,
      "duration": 0.0622,
      "velocity": 95,
      "chip": "ym2612"
    },
    {
      "channel": 0,
      "note": 103,
      "start": 34.6882,
      "duration": 0.014,
      "velocity": 100,
      "chip": "ym2612"
    },
    {
      "channel": 2,
      "note": 92,
      "start": 34.7312,
      "duration": 0.2142,
      "velocity": 95,
      "chip": "ym2612"
    },
    {
      "channel": 0,
      "note": 88,
      "start": 34.7334,
      "duration": 0.2116,
      "velocity": 95,
      "chip": "ym2612"
    },
    {
      "channel": 1,
      "note": 97,
      "start": 34.7358,
      "duration": 0.1926,
      "velocity": 95,
      "chip": "ym2612"
    },
    {
      "channel": 3,
      "note": 100,
      "start": 34.7397,
      "duration": 0.0106,
      "velocity": 100,
      "chip": "ym2612"
    },
    {
      "channel": 4,
      "note": 52,
      "start": 34.8148,
      "duration": 0.2471,
      "velocity": 116,
      "chip": "ym2612"
    },
    {
      "channel": 3,
      "note": 45,
      "start": 34.8173,
      "duration": 0.1112,
      "velocity": 127,
      "chip": "ym2612"
    },
    {
      "channel": 1,
      "note": 76,
      "start": 34.9322,
      "duration": 0.1295,
      "velocity": 95,
      "chip": "ym2612"
    },
    {
      "channel": 5,
      "note": 103,
      "start": 34.935,
      "duration": 0.0436,
      "velocity": 100,
      "chip": "ym2612"
    },
    {
      "channel": 3,
      "note": 45,
      "start": 35.0313,
      "duration": 0.1137,
      "velocity": 127,
      "chip": "ym2612"
    },
    {
      "channel": 0,
      "note": 95,
      "start": 35.034,
      "duration": 0.211,
      "velocity": 95,
      "chip": "ym2612"
    },
    {
      "channel": 2,
      "note": 88,
      "start": 35.0366,
      "duration": 0.2088,
      "velocity": 95,
      "chip": "ym2612"
    },
    {
      "channel": 5,
      "note": 92,
      "start": 35.0393,
      "duration": 0.2225,
      "velocity": 95,
      "chip": "ym2612"
    },
    {
      "channel": 4,
      "note": 52,
      "start": 35.1486,
      "duration": 0.0633,
      "velocity": 116,
      "chip": "ym2612"
    },
    {
      "channel": 3,
      "note": 45,
      "start": 35.151,
      "duration": 0.1106,
      "velocity": 127,
      "chip": "ym2612"
    },
    {
      "channel": 1,
      "note": 100,
      "start": 35.1541,
      "duration": 0.0576,
      "velocity": 100,
      "chip": "ym2612"
    },
    {
      "channel": 4,
      "note": 52,
      "start": 35.2649,
      "duration": 0.2136,
      "velocity": 116,
      "chip": "ym2612"
    },
    {
      "channel": 3,
      "note": 45,
      "start": 35.2673,
      "duration": 0.1111,
      "velocity": 127,
      "chip": "ym2612"
    },
    {
      "channel": 0,
      "note": 76,
      "start": 35.27,
      "duration": 0.125,
      "velocity": 95,
      "chip": "ym2612"
    },
    {
      "channel": 1,
      "note": 98,
      "start": 35.2728,
      "duration": 0.0555,
      "velocity": 100,
      "chip": "ym2612"
    },
    {
      "channel": 3,
      "note": 45,
      "start": 35.3813,
      "duration": 0.1137,
      "velocity": 127,
      "chip": "ym2612"
    },
    {
      "channel": 5,
      "note": 88,
      "start": 35.3842,
      "duration": 0.1176,
      "velocity": 95,
      "chip": "ym2612"
    },
    {
      "channel": 2,
      "note": 92,
      "start": 35.3873,
      "duration": 0.1666,
      "velocity": 95,
      "chip": "ym2612"
    },
    {
      "channel": 1,
      "note": 95,
      "start": 35.3899,
      "duration": 0.1638,
      "velocity": 95,
      "chip": "ym2612"
    },
    {
      "channel": 4,
      "note": 55,
      "start": 35.4979,
      "duration": 0.1148,
      "velocity": 116,
      "chip": "ym2612"
    },
    {
      "channel": 3,
      "note": 45,
      "start": 35.5009,
      "duration": 0.0449,
      "velocity": 127,
      "chip": "ym2612"
    },
    {
      "channel": 0,
      "note": 96,
      "start": 35.5071,
      "duration": 0.0204,
      "velocity": 100,
      "chip": "ym2612"
    },
    {
      "channel": 0,
      "note": 76,
      "start": 35.5496,
      "duration": 0.113,
      "velocity": 95,
      "chip": "ym2612"
    },
    {
      "channel": 4,
      "note": 56,
      "start": 35.6322,
      "duration": 0.2139,
      "velocity": 116,
      "chip": "ym2612"
    },
    {
      "channel": 1,
      "note": 95,
      "start": 35.635,
      "duration": 0.1777,
      "velocity": 95,
      "chip": "ym2612"
    },
    {
      "channel": 2,
      "note": 92,
      "start": 35.6377,
      "duration": 0.192,
      "velocity": 95,
      "chip": "ym2612"
    },
    {
      "channel": 3,
      "note": 88,
      "start": 35.6403,
      "duration": 0.1891,
      "velocity": 95,
      "chip": "ym2612"
    },
    {
      "channel": 4,
      "note": 69,
      "start": 35.8668,
      "duration": 0.8824,
      "velocity": 116,
      "chip": "ym2612"
    },
    {
      "channel": 5,
      "note": 45,
      "start": 35.8707,
      "duration": 0.1088,
      "velocity": 127,
      "chip": "ym2612"
    },
    {
      "channel": 0,
      "note": 81,
      "start": 35.8744,
      "duration": 0.2382,
      "velocity": 95,
      "chip": "ym2612"
    },
    {
      "channel": 1,
      "note": 96,
      "start": 36.0993,
      "duration": 0.23,
      "velocity": 95,
      "chip": "ym2612"
    },
    {
      "channel": 3,
      "note": 93,
      "start": 36.1016,
      "duration": 0.2279,
      "velocity": 95,
      "chip": "ym2612"
    },
    {
      "channel": 2,
      "note": 88,
      "start": 36.1043,
      "duration": 0.2254,
      "velocity": 95,
      "chip": "ym2612"
    },
    {
      "channel": 5,
      "note": 93,
      "start": 36.1073,
      "duration": 0.0389,
      "velocity": 100,
      "chip": "ym2612"
    },
    {
      "channel": 0,
      "note": 45,
      "start": 36.3326,
      "duration": 0.0469,
      "velocity": 127,
      "chip": "ym2612"
    },
    {
      "channel": 1,
      "note": 81,
      "start": 36.3353,
      "duration": 0.0614,
      "velocity": 95,
      "chip": "ym2612"
    },
    {
      "channel": 3,
      "note": 96,
      "start": 36.3416,
      "duration": 0.0134,
      "velocity": 100,
      "chip": "ym2612"
    },
    {
      "channel": 2,
      "note": 96,
      "start": 36.3836,
      "duration": 0.2086,
      "velocity": 95,
      "chip": "ym2612"
    },
    {
      "channel": 3,
      "note": 88,
      "start": 36.3861,
      "duration": 0.194,
      "velocity": 95,
      "chip": "ym2612"
    },
    {
      "channel": 0,
      "note": 93,
      "start": 36.3887,
      "duration": 0.0017,
      "velocity": 95,
      "chip": "ym2612"
    },
    {
      "channel": 0,
      "note": 93,
      "start": 36.3922,
      "duration": 0.0099,
      "velocity": 100,
      "chip": "ym2612"
    },
    {
      "channel": 1,
      "note": 81,
      "start": 36.5835,
      "duration": 0.0617,
      "velocity": 95,
      "chip": "ym2612"
    },
    {
      "channel": 0,
      "note": 98,
      "start": 36.5894,
      "duration": 0.0149,
      "velocity": 100,
      "chip": "ym2612"
    },
    {
      "channel": 3,
      "note": 45,
      "start": 36.6319,
      "duration": 0.0825,
      "velocity": 127,
      "chip": "ym2612"
    },
    {
      "channel": 2,
      "note": 96,
      "start": 36.6346,
      "duration": 0.1383,
      "velocity": 95,
      "chip": "ym2612"
    },
    {
      "channel": 0,
      "note": 88,
      "start": 36.6369,
      "duration": 0.0019,
      "velocity": 95,
      "chip": "ym2612"
    },
    {
      "channel": 0,
      "note": 93,
      "start": 36.6407,
      "duration": 0.129,
      "velocity": 95,
      "chip": "ym2612"
    },
    {
      "channel": 1,
      "note": 96,
      "start": 36.721,
      "duration": 0.0157,
      "velocity": 100,
      "chip": "ym2612"
    },
    {
      "channel": 4,
      "note": 69,
      "start": 36.7633,
      "duration": 0.2199,
      "velocity": 116,
      "chip": "ym2612"
    },
    {
      "channel": 3,
      "note": 45,
      "start": 36.7655,
      "duration": 0.0817,
      "velocity": 127,
      "chip": "ym2612"
    },
    {
      "channel": 1,
      "note": 81,
      "start": 36.768,
      "duration": 0.0957,
      "velocity": 95,
      "chip": "ym2612"
    },
    {
      "channel": 0,
      "note": 99,
      "start": 36.7716,
      "duration": 0.0116,
      "velocity": 100,
      "chip": "ym2612"
    },
    {
      "channel": 2,
      "note": 88,
      "start": 36.8507,
      "duration": 0.1453,
      "velocity": 95,
      "chip": "ym2612"
    },
    {
      "channel": 0,
      "note": 96,
      "start": 36.8533,
      "duration": 0.1566,
      "velocity": 95,
      "chip": "ym2612"
    },
    {
      "channel": 5,
      "note": 93,
      "start": 36.8561,
      "duration": 0.0946,
      "velocity": 95,
      "chip": "ym2612"
    },
    {
      "channel": 3,
      "note": 45,
      "start": 36.95,
      "duration": 0.0459,
      "velocity": 127,
      "chip": "ym2612"
    },
    {
      "channel": 1,
      "note": 100,
      "start": 36.9564,
      "duration": 0.0206,
      "velocity": 100,
      "chip": "ym2612"
    },
    {
      "channel": 4,
      "note": 69,
      "start": 36.9984,
      "duration": 0.2499,
      "velocity": 116,
      "chip": "ym2612"
    },
    {
      "channel": 2,
      "note": 81,
      "start": 37.0012,
      "duration": 0.0805,
      "velocity": 95,
      "chip": "ym2612"
    },
    {
      "channel": 3,
      "note": 45,
      "start": 37.0845,
      "duration": 0.1137,
      "velocity": 127,
      "chip": "ym2612"
    },
    {
      "channel": 0,
      "note": 88,
      "start": 37.0875,
      "duration": 0.2106,
      "velocity": 95,
      "chip": "ym2612"
    },
    {
      "channel": 2,
      "note": 93,
      "start": 37.0902,
      "duration": 0.2415,
      "velocity": 95,
      "chip": "ym2612"
    },
    {
      "channel": 1,
      "note": 96,
      "start": 37.093,
      "duration": 0.2219,
      "velocity": 95,
      "chip": "ym2612"
    },
    {
      "channel": 4,
      "note": 65,
      "start": 37.318,
      "duration": 0.8907,
      "velocity": 116,
      "chip": "ym2612"
    },
    {
      "channel": 3,
      "note": 45,
      "start": 37.3207,
      "duration": 0.111,
      "velocity": 127,
      "chip": "ym2612"
    },
    {
      "channel": 0,
      "note": 77,
      "start": 37.323,
      "duration": 0.2251,
      "velocity": 95,
      "chip": "ym2612"
    },
    {
      "channel": 0,
      "note": 89,
      "start": 37.5515,
      "duration": 0.2134,
      "velocity": 95,
      "chip": "ym2612"
    },
    {
      "channel": 1,
      "note": 96,
      "start": 37.5537,
      "duration": 0.2112,
      "velocity": 95,
      "chip": "ym2612"
    },
    {
      "channel": 2,
      "note": 93,
      "start": 37.5564,
      "duration": 0.2088,
      "velocity": 95,
      "chip": "ym2612"
    },
    {
      "channel": 5,
      "note": 93,
      "start": 37.5598,
      "duration": 0.0552,
      "velocity": 100,
      "chip": "ym2612"
    },
    {
      "channel": 3,
      "note": 45,
      "start": 37.7843,
      "duration": 0.0471,
      "velocity": 127,
      "chip": "ym2612"
    },
    {
      "channel": 0,
      "note": 77,
      "start": 37.7873,
      "duration": 0.0545,
      "velocity": 95,
      "chip": "ym2612"
    },
    {
      "channel": 1,
      "note": 96,
      "start": 37.7934,
      "duration": 0.0198,
      "velocity": 100,
      "chip": "ym2612"
    },
    {
      "channel": 2,
      "note": 89,
      "start": 37.8351,
      "duration": 0.1974,
      "velocity": 95,
      "chip": "ym2612"
    },
    {
      "channel": 1,
      "note": 93,
      "start": 37.8375,
      "duration": 0.1948,
      "velocity": 95,
      "chip": "ym2612"
    },
    {
      "channel": 3,
      "note": 96,
      "start": 37.84,
      "duration": 0.2043,
      "velocity": 95,
      "chip": "ym2612"
    },
    {
      "channel": 0,
      "note": 93,
      "start": 37.8437,
      "duration": 0.0102,
      "velocity": 100,
      "chip": "ym2612"
    },
    {
      "channel": 1,
      "note": 77,
      "start": 38.0357,
      "duration": 0.0592,
      "velocity": 95,
      "chip": "ym2612"
    },
    {
      "channel": 0,
      "note": 98,
      "start": 38.0416,
      "duration": 0.0151,
      "velocity": 100,
      "chip": "ym2612"
    },
    {
      "channel": 2,
      "note": 45,
      "start": 38.0851,
      "duration": 0.0825,
      "velocity": 127,
      "chip": "ym2612"
    },
    {
      "channel": 3,
      "note": 89,
      "start": 38.0875,
      "duration": 0.1274,
      "velocity": 95,
      "chip": "ym2612"
    },
    {
      "channel": 0,
      "note": 93,
      "start": 38.0897,
      "duration": 0.002,
      "velocity": 95,
      "chip": "ym2612"
    },
    {
      "channel": 0,
      "note": 96,
      "start": 38.0936,
      "duration": 0.1327,
      "velocity": 95,
      "chip": "ym2612"
    },
    {
      "channel": 1,
      "note": 96,
      "start": 38.1747,
      "duration": 0.0158,
      "velocity": 100,
      "chip": "ym2612"
    },
    {
      "channel": 4,
      "note": 65,
      "start": 38.2174,
      "duration": 0.2251,
      "velocity": 116,
      "chip": "ym2612"
    },
    {
      "channel": 2,
      "note": 45,
      "start": 38.2198,
      "duration": 0.0821,
      "velocity": 127,
      "chip": "ym2612"
    },
    {
      "channel": 3,
      "note": 77,
      "start": 38.223,
      "duration": 0.0954,
      "velocity": 95,
      "chip": "ym2612"
    },
    {
      "channel": 1,
      "note": 99,
      "start": 38.2253,
      "duration": 0.0114,
      "velocity": 100,
      "chip": "ym2612"
    },
    {
      "channel": 0,
      "note": 89,
      "start": 38.3049,
      "duration": 0.1628,
      "velocity": 95,
      "chip": "ym2612"
    },
    {
      "channel": 1,
      "note": 93,
      "start": 38.3075,
      "duration": 0.1603,
      "velocity": 95,
      "chip": "ym2612"
    },
    {
      "channel": 5,
      "note": 96,
      "start": 38.3103,
      "duration": 0.112,
      "velocity": 95,
      "chip": "ym2612"
    },
    {
      "channel": 2,
      "note": 45,
      "start": 38.4215,
      "duration": 0.0465,
      "velocity": 127,
      "chip": "ym2612"
    },
    {
      "channel": 3,
      "note": 93,
      "start": 38.4278,
      "duration": 0.0146,
      "velocity": 100,
      "chip": "ym2612"
    },
    {
      "channel": 4,
      "note": 65,
      "start": 38.4706,
      "duration": 0.2641,
      "velocity": 116,
      "chip": "ym2612"
    },
    {
      "channel": 0,
      "note": 77,
      "start": 38.4729,
      "duration": 0.0782,
      "velocity": 95,
      "chip": "ym2612"
    },
    {
      "channel": 0,
      "note": 89,
      "start": 38.5549,
      "duration": 0.163,
      "velocity": 95,
      "chip": "ym2612"
    },
    {
      "channel": 1,
      "note": 93,
      "start": 38.5573,
      "duration": 0.1772,
      "velocity": 95,
      "chip": "ym2612"
    },
    {
      "channel": 3,
      "note": 96,
      "start": 38.5601,
      "duration": 0.1911,
      "velocity": 95,
      "chip": "ym2612"
    },
    {
      "channel": 4,
      "note": 62,
      "start": 38.7709,
      "duration": 0.8919,
      "velocity": 116,
      "chip": "ym2612"
    },
    {
      "channel": 2,
      "note": 45,
      "start": 38.7735,
      "duration": 0.1112,
      "velocity": 127,
      "chip": "ym2612"
    },
    {
      "channel": 0,
      "note": 78,
      "start": 38.776,
      "duration": 0.2584,
      "velocity": 95,
      "chip": "ym2612"
    },
    {
      "channel": 1,
      "note": 93,
      "start": 39.0044,
      "duration": 0.2302,
      "velocity": 95,
      "chip": "ym2612"
    },
    {
      "channel": 3,
      "note": 98,
      "start": 39.0069,
      "duration": 0.2111,
      "velocity": 95,
      "chip": "ym2612"
    },
    {
      "channel": 5,
      "note": 90,
      "start": 39.0095,
      "duration": 0.2085,
      "velocity": 95,
      "chip": "ym2612"
    },
    {
      "channel": 2,
      "note": 93,
      "start": 39.0126,
      "duration": 0.0555,
      "velocity": 100,
      "chip": "ym2612"
    },
    {
      "channel": 0,
      "note": 45,
      "start": 39.2377,
      "duration": 0.0481,
      "velocity": 127,
      "chip": "ym2612"
    },
    {
      "channel": 1,
      "note": 78,
      "start": 39.2407,
      "duration": 0.0588,
      "velocity": 95,
      "chip": "ym2612"
    },
    {
      "channel": 2,
      "note": 96,
      "start": 39.2469,
      "duration": 0.0205,
      "velocity": 100,
      "chip": "ym2612"
    },
    {
      "channel": 3,
      "note": 90,
      "start": 39.2897,
      "duration": 0.1972,
      "velocity": 95,
      "chip": "ym2612"
    },
    {
      "channel": 2,
      "note": 98,
      "start": 39.292,
      "duration": 0.1951,
      "velocity": 95,
      "chip": "ym2612"
    },
    {
      "channel": 0,
      "note": 93,
      "start": 39.2946,
      "duration": 0.0012,
      "velocity": 95,
      "chip": "ym2612"
    },
    {
      "channel": 0,
      "note": 93,
      "start": 39.2976,
      "duration": 0.0225,
      "velocity": 100,
      "chip": "ym2612"
    },
    {
      "channel": 1,
      "note": 78,
      "start": 39.4902,
      "duration": 0.0591,
      "velocity": 95,
      "chip": "ym2612"
    },
    {
      "channel": 0,
      "note": 98,
      "start": 39.4962,
      "duration": 0.0213,
      "velocity": 100,
      "chip": "ym2612"
    },
    {
      "channel": 3,
      "note": 45,
      "start": 39.5392,
      "duration": 0.0827,
      "velocity": 127,
      "chip": "ym2612"
    },
    {
      "channel": 2,
      "note": 90,
      "start": 39.5416,
      "duration": 0.1213,
      "velocity": 95,
      "chip": "ym2612"
    },
    {
      "channel": 0,
      "note": 98,
      "start": 39.5442,
      "duration": 0.0018,
      "velocity": 95,
      "chip": "ym2612"
    },
    {
      "channel": 0,
      "note": 93,
      "start": 39.5479,
      "duration": 0.121,
      "velocity": 95,
      "chip": "ym2612"
    },
    {
      "channel": 1,
      "note": 96,
      "start": 39.6287,
      "duration": 0.0157,
      "velocity": 100,
      "chip": "ym2612"
    },
    {
      "channel": 4,
      "note": 62,
      "start": 39.6716,
      "duration": 0.2317,
      "velocity": 116,
      "chip": "ym2612"
    },
    {
      "channel": 3,
      "note": 45,
      "start": 39.6736,
      "duration": 0.083,
      "velocity": 127,
      "chip": "ym2612"
    },
    {
      "channel": 0,
      "note": 78,
      "start": 39.6761,
      "duration": 0.0803,
      "velocity": 95,
      "chip": "ym2612"
    },
    {
      "channel": 1,
      "note": 99,
      "start": 39.6796,
      "duration": 0.0128,
      "velocity": 100,
      "chip": "ym2612"
    },
    {
      "channel": 0,
      "note": 90,
      "start": 39.7598,
      "duration": 0.1553,
      "velocity": 95,
      "chip": "ym2612"
    },
    {
      "channel": 2,
      "note": 93,
      "start": 39.7625,
      "duration": 0.1593,
      "velocity": 95,
      "chip": "ym2612"
    },
    {
      "channel": 5,
      "note": 98,
      "start": 39.7654,
      "duration": 0.1115,
      "velocity": 95,
      "chip": "ym2612"
    },
    {
      "channel": 3,
      "note": 45,
      "start": 39.876,
      "duration": 0.0458,
      "velocity": 127,
      "chip": "ym2612"
    },
    {
      "channel": 1,
      "note": 100,
      "start": 39.8822,
      "duration": 0.0147,
      "velocity": 100,
      "chip": "ym2612"
    },
    {
      "channel": 4,
      "note": 62,
      "start": 39.9242,
      "duration": 0.2663,
      "velocity": 116,
      "chip": "ym2612"
    },
    {
      "channel": 0,
      "note": 78,
      "start": 39.9271,
      "duration": 0.1134,
      "velocity": 95,
      "chip": "ym2612"
    },
    {
      "channel": 3,
      "note": 45,
      "start": 40.0101,
      "duration": 0.1138,
      "velocity": 127,
      "chip": "ym2612"
    },
    {
      "channel": 2,
      "note": 93,
      "start": 40.0131,
      "duration": 0.2112,
      "velocity": 95,
      "chip": "ym2612"
    },
    {
      "channel": 1,
      "note": 90,
      "start": 40.0156,
      "duration": 0.2083,
      "velocity": 95,
      "chip": "ym2612"
    },
    {
      "channel": 5,
      "note": 98,
      "start": 40.0182,
      "duration": 0.2059,
      "velocity": 95,
      "chip": "ym2612"
    },
    {
      "channel": 4,
      "note": 72,
      "start": 40.2436,
      "duration": 0.197,
      "velocity": 116,
      "chip": "ym2612"
    },
    {
      "channel": 3,
      "note": 45,
      "start": 40.2462,
      "duration": 0.1111,
      "velocity": 127,
      "chip": "ym2612"
    },
    {
      "channel": 0,
      "note": 76,
      "start": 40.2487,
      "duration": 0.2418,
      "velocity": 95,
      "chip": "ym2612"
    },
    {
      "channel": 4,
      "note": 67,
      "start": 40.4768,
      "duration": 0.1804,
      "velocity": 116,
      "chip": "ym2612"
    },
    {
      "channel": 1,
      "note": 97,
      "start": 40.4797,
      "duration": 0.1942,
      "velocity": 95,
      "chip": "ym2612"
    },
    {
      "channel": 5,
      "note": 88,
      "start": 40.4821,
      "duration": 0.192,
      "velocity": 95,
      "chip": "ym2612"
    },
    {
      "channel": 2,
      "note": 92,
      "start": 40.4853,
      "duration": 0.2055,
      "velocity": 95,
      "chip": "ym2612"
    },
    {
      "channel": 3,
      "note": 105,
      "start": 40.4883,
      "duration": 0.0356,
      "velocity": 100,
      "chip": "ym2612"
    },
    {
      "channel": 4,
      "note": 69,
      "start": 40.6936,
      "duration": 0.1144,
      "velocity": 116,
      "chip": "ym2612"
    },
    {
      "channel": 0,
      "note": 45,
      "start": 40.6962,
      "duration": 0.0464,
      "velocity": 127,
      "chip": "ym2612"
    },
    {
      "channel": 1,
      "note": 76,
      "start": 40.699,
      "duration": 0.0658,
      "velocity": 95,
      "chip": "ym2612"
    },
    {
      "channel": 3,
      "note": 103,
      "start": 40.7049,
      "duration": 0.019,
      "velocity": 100,
      "chip": "ym2612"
    },
    {
      "channel": 2,
      "note": 92,
      "start": 40.7455,
      "duration": 0.2076,
      "velocity": 95,
      "chip": "ym2612"
    },
    {
      "channel": 3,
      "note": 88,
      "start": 40.7484,
      "duration": 0.2046,
      "velocity": 95,
      "chip": "ym2612"
    },
    {
      "channel": 0,
      "note": 97,
      "start": 40.7508,
      "duration": 0.001,
      "velocity": 95,
      "chip": "ym2612"
    },
    {
      "channel": 0,
      "note": 100,
      "start": 40.7537,
      "duration": 0.0209,
      "velocity": 100,
      "chip": "ym2612"
    },
    {
      "channel": 4,
      "note": 64,
      "start": 40.8277,
      "duration": 0.1557,
      "velocity": 116,
      "chip": "ym2612"
    },
    {
      "channel": 1,
      "note": 76,
      "start": 40.9445,
      "duration": 0.0605,
      "velocity": 95,
      "chip": "ym2612"
    },
    {
      "channel": 0,
      "note": 103,
      "start": 40.9504,
      "duration": 0.0207,
      "velocity": 100,
      "chip": "ym2612"
    },
    {
      "channel": 4,
      "note": 67,
      "start": 40.9926,
      "duration": 0.1247,
      "velocity": 116,
      "chip": "ym2612"
    },
    {
      "channel": 3,
      "note": 45,
      "start": 40.995,
      "duration": 0.0812,
      "velocity": 127,
      "chip": "ym2612"
    },
    {
      "channel": 2,
      "note": 95,
      "start": 40.998,
      "duration": 0.1194,
      "velocity": 95,
      "chip": "ym2612"
    },
    {
      "channel": 0,
      "note": 88,
      "start": 41.0013,
      "duration": 0.0007,
      "velocity": 95,
      "chip": "ym2612"
    },
    {
      "channel": 0,
      "note": 92,
      "start": 41.0038,
      "duration": 0.1195,
      "velocity": 95,
      "chip": "ym2612"
    },
    {
      "channel": 1,
      "note": 100,
      "start": 41.0837,
      "duration": 0.0211,
      "velocity": 100,
      "chip": "ym2612"
    },
    {
      "channel": 4,
      "note": 62,
      "start": 41.126,
      "duration": 0.1834,
      "velocity": 116,
      "chip": "ym2612"
    },
    {
      "channel": 3,
      "note": 45,
      "start": 41.128,
      "duration": 0.0812,
      "velocity": 127,
      "chip": "ym2612"
    },
    {
      "channel": 0,
      "note": 76,
      "start": 41.1303,
      "duration": 0.0956,
      "velocity": 95,
      "chip": "ym2612"
    },
    {
      "channel": 1,
      "note": 98,
      "start": 41.1336,
      "duration": 0.0257,
      "velocity": 100,
      "chip": "ym2612"
    },
    {
      "channel": 2,
      "note": 88,
      "start": 41.2128,
      "duration": 0.1578,
      "velocity": 95,
      "chip": "ym2612"
    },
    {
      "channel": 5,
      "note": 92,
      "start": 41.2155,
      "duration": 0.1172,
      "velocity": 95,
      "chip": "ym2612"
    },
    {
      "channel": 1,
      "note": 95,
      "start": 41.2181,
      "duration": 0.166,
      "velocity": 95,
      "chip": "ym2612"
    },
    {
      "channel": 4,
      "note": 63,
      "start": 41.3288,
      "duration": 0.1152,
      "velocity": 116,
      "chip": "ym2612"
    },
    {
      "channel": 3,
      "note": 45,
      "start": 41.3317,
      "duration": 0.0446,
      "velocity": 127,
      "chip": "ym2612"
    },
    {
      "channel": 0,
      "note": 96,
      "start": 41.338,
      "duration": 0.0204,
      "velocity": 100,
      "chip": "ym2612"
    },
    {
      "channel": 2,
      "note": 76,
      "start": 41.3805,
      "duration": 0.1137,
      "velocity": 95,
      "chip": "ym2612"
    },
    {
      "channel": 4,
      "note": 64,
      "start": 41.4635,
      "duration": 0.1975,
      "velocity": 116,
      "chip": "ym2612"
    },
    {
      "channel": 1,
      "note": 95,
      "start": 41.4663,
      "duration": 0.161,
      "velocity": 95,
      "chip": "ym2612"
    },
    {
      "channel": 0,
      "note": 92,
      "start": 41.4689,
      "duration": 0.1917,
      "velocity": 95,
      "chip": "ym2612"
    },
    {
      "channel": 3,
      "note": 88,
      "start": 41.4716,
      "duration": 0.1891,
      "velocity": 95,
      "chip": "ym2612"
    },
    {
      "channel": 4,
      "note": 57,
      "start": 41.6969,
      "duration": 0.102,
      "velocity": 116,
      "chip": "ym2612"
    },
    {
      "channel": 5,
      "note": 45,
      "start": 41.6997,
      "duration": 0.0034,
      "velocity": 127,
      "chip": "ym2612"
    },
    {
      "channel": 0,
      "note": 81,
      "start": 41.7023,
      "duration": 0.0937,
      "velocity": 95,
      "chip": "ym2612"
    },
    {
      "channel": 1,
      "note": 96,
      "start": 41.7896,
      "duration": 0.1571,
      "velocity": 95,
      "chip": "ym2612"
    },
    {
      "channel": 3,
      "note": 93,
      "start": 41.7917,
      "duration": 0.1551,
      "velocity": 95,
      "chip": "ym2612"
    },
    {
      "channel": 2,
      "note": 88,
      "start": 41.7951,
      "duration": 0.1519,
      "velocity": 95,
      "chip": "ym2612"
    },
    {
      "channel": 0,
      "note": 93,
      "start": 41.7978,
      "duration": 0.0122,
      "velocity": 100,
      "chip": "ym2612"
    },
    {
      "channel": 4,
      "note": 57,
      "start": 41.8361,
      "duration": 0.1599,
      "velocity": 116,
      "chip": "ym2612"
    },
    {
      "channel": 0,
      "note": 45,
      "start": 41.8393,
      "duration": 0.1073,
      "velocity": 127,
      "chip": "ym2612"
    },
    {
      "channel": 0,
      "note": 45,
      "start": 41.9498,
      "duration": 0.0462,
      "velocity": 127,
      "chip": "ym2612"
    },
    {
      "channel": 1,
      "note": 81,
      "start": 41.9525,
      "duration": 0.0605,
      "velocity": 95,
      "chip": "ym2612"
    },
    {
      "channel": 3,
      "note": 96,
      "start": 41.9586,
      "duration": 0.0137,
      "velocity": 100,
      "chip": "ym2612"
    },
    {
      "channel": 2,
      "note": 96,
      "start": 41.9999,
      "duration": 0.2138,
      "velocity": 95,
      "chip": "ym2612"
    },
    {
      "channel": 3,
      "note": 88,
      "start": 42.0023,
      "duration": 0.1946,
      "velocity": 95,
      "chip": "ym2612"
    },
    {
      "channel": 0,
      "note": 93,
      "start": 42.0049,
      "duration": 0.2253,
      "velocity": 95,
      "chip": "ym2612"
    },
    {
      "channel": 4,
      "note": 93,
      "start": 42.0084,
      "duration": 0.0103,
      "velocity": 100,
      "chip": "ym2612"
    },
    {
      "channel": 1,
      "note": 57,
      "start": 42.0833,
      "duration": 0.247,
      "velocity": 116,
      "chip": "ym2612"
    },
    {
      "channel": 4,
      "note": 45,
      "start": 42.0859,
      "duration": 0.1112,
      "velocity": 127,
      "chip": "ym2612"
    },
    {
      "channel": 3,
      "note": 81,
      "start": 42.2004,
      "duration": 0.1466,
      "velocity": 95,
      "chip": "ym2612"
    },
    {
      "channel": 5,
      "note": 98,
      "start": 42.2033,
      "duration": 0.0438,
      "velocity": 100,
      "chip": "ym2612"
    },
    {
      "channel": 4,
      "note": 45,
      "start": 42.2998,
      "duration": 0.1138,
      "velocity": 127,
      "chip": "ym2612"
    },
    {
      "channel": 0,
      "note": 96,
      "start": 42.3029,
      "duration": 0.2606,
      "velocity": 95,
      "chip": "ym2612"
    },
    {
      "channel": 2,
      "note": 88,
      "start": 42.3055,
      "duration": 0.2248,
      "velocity": 95,
      "chip": "ym2612"
    },
    {
      "channel": 5,
      "note": 93,
      "start": 42.3083,
      "duration": 0.272,
      "velocity": 95,
      "chip": "ym2612"
    },
    {
      "channel": 1,
      "note": 57,
      "start": 42.4166,
      "duration": 0.097,
      "velocity": 116,
      "chip": "ym2612"
    },
    {
      "channel": 3,
      "note": 96,
      "start": 42.4198,
      "duration": 0.0606,
      "velocity": 100,
      "chip": "ym2612"
    },
    {
      "channel": 1,
      "note": 60,
      "start": 42.5336,
      "duration": 0.2134,
      "velocity": 116,
      "chip": "ym2612"
    },
    {
      "channel": 4,
      "note": 45,
      "start": 42.5361,
      "duration": 0.1109,
      "velocity": 127,
      "chip": "ym2612"
    },
    {
      "channel": 2,
      "note": 81,
      "start": 42.5391,
      "duration": 0.1247,
      "velocity": 95,
      "chip": "ym2612"
    },
    {
      "channel": 3,
      "note": 99,
      "start": 42.5422,
      "duration": 0.0548,
      "velocity": 100,
      "chip": "ym2612"
    },
    {
      "channel": 0,
      "note": 88,
      "start": 42.6501,
      "duration": 0.1636,
      "velocity": 95,
      "chip": "ym2612"
    },
    {
      "channel": 5,
      "note": 96,
      "start": 42.6527,
      "duration": 0.1168,
      "velocity": 95,
      "chip": "ym2612"
    },
    {
      "channel": 3,
      "note": 93,
      "start": 42.6559,
      "duration": 0.1781,
      "velocity": 95,
      "chip": "ym2612"
    },
    {
      "channel": 1,
      "note": 57,
      "start": 42.7663,
      "duration": 0.1149,
      "velocity": 116,
      "chip": "ym2612"
    },
    {
      "channel": 4,
      "note": 45,
      "start": 42.7689,
      "duration": 0.0449,
      "velocity": 127,
      "chip": "ym2612"
    },
    {
      "channel": 2,
      "note": 100,
      "start": 42.775,
      "duration": 0.0205,
      "velocity": 100,
      "chip": "ym2612"
    },
    {
      "channel": 4,
      "note": 45,
      "start": 42.8172,
      "duration": 0.0809,
      "velocity": 127,
      "chip": "ym2612"
    },
    {
      "channel": 0,
      "note": 81,
      "start": 42.8195,
      "duration": 0.0783,
      "velocity": 95,
      "chip": "ym2612"
    },
    {
      "channel": 1,
      "note": 55,
      "start": 42.9009,
      "duration": 0.1803,
      "velocity": 116,
      "chip": "ym2612"
    },
    {
      "channel": 0,
      "note": 88,
      "start": 42.9037,
      "duration": 0.2108,
      "velocity": 95,
      "chip": "ym2612"
    },
    {
      "channel": 3,
      "note": 93,
      "start": 42.9062,
      "duration": 0.2388,
      "velocity": 95,
      "chip": "ym2612"
    },
    {
      "channel": 2,
      "note": 96,
      "start": 42.9091,
      "duration": 0.2222,
      "velocity": 95,
      "chip": "ym2612"
    },
    {
      "channel": 5,
      "note": 103,
      "start": 42.9121,
      "duration": 0.0526,
      "velocity": 100,
      "chip": "ym2612"
    },
    {
      "channel": 1,
      "note": 57,
      "start": 43.1343,
      "duration": 0.1139,
      "velocity": 116,
      "chip": "ym2612"
    },
    {
      "channel": 4,
      "note": 45,
      "start": 43.1367,
      "duration": 0.0458,
      "velocity": 127,
      "chip": "ym2612"
    },
    {
      "channel": 0,
      "note": 77,
      "start": 43.1392,
      "duration": 0.0861,
      "velocity": 95,
      "chip": "ym2612"
    },
    {
      "channel": 0,
      "note": 89,
      "start": 43.2283,
      "duration": 0.1419,
      "velocity": 95,
      "chip": "ym2612"
    },
    {
      "channel": 3,
      "note": 96,
      "start": 43.2314,
      "duration": 0.1391,
      "velocity": 95,
      "chip": "ym2612"
    },
    {
      "channel": 2,
      "note": 93,
      "start": 43.2338,
      "duration": 0.1368,
      "velocity": 95,
      "chip": "ym2612"
    },
    {
      "channel": 4,
      "note": 93,
      "start": 43.2365,
      "duration": 0.0118,
      "velocity": 100,
      "chip": "ym2612"
    },
    {
      "channel": 1,
      "note": 57,
      "start": 43.2759,
      "duration": 0.1753,
      "velocity": 116,
      "chip": "ym2612"
    },
    {
      "channel": 4,
      "note": 45,
      "start": 43.2799,
      "duration": 0.1072,
      "velocity": 127,
      "chip": "ym2612"
    },
    {
      "channel": 4,
      "note": 45,
      "start": 43.3901,
      "duration": 0.0479,
      "velocity": 127,
      "chip": "ym2612"
    },
    {
      "channel": 0,
      "note": 77,
      "start": 43.3928,
      "duration": 0.0554,
      "velocity": 95,
      "chip": "ym2612"
    },
    {
      "channel": 3,
      "note": 96,
      "start": 43.3988,
      "duration": 0.014,
      "velocity": 100,
      "chip": "ym2612"
    },
    {
      "channel": 2,
      "note": 89,
      "start": 43.4418,
      "duration": 0.1974,
      "velocity": 95,
      "chip": "ym2612"
    },
    {
      "channel": 3,
      "note": 93,
      "start": 43.4441,
      "duration": 0.1948,
      "velocity": 95,
      "chip": "ym2612"
    },
    {
      "channel": 4,
      "note": 96,
      "start": 43.4466,
      "duration": 0.209,
      "velocity": 95,
      "chip": "ym2612"
    },
    {
      "channel": 0,
      "note": 93,
      "start": 43.4501,
      "duration": 0.0106,
      "velocity": 100,
      "chip": "ym2612"
    },
    {
      "channel": 1,
      "note": 57,
      "start": 43.525,
      "duration": 0.2805,
      "velocity": 116,
      "chip": "ym2612"
    },
    {
      "channel": 0,
      "note": 45,
      "start": 43.5276,
      "duration": 0.1111,
      "velocity": 127,
      "chip": "ym2612"
    },
    {
      "channel": 3,
      "note": 77,
      "start": 43.6427,
      "duration": 0.1295,
      "velocity": 95,
      "chip": "ym2612"
    },
    {
      "channel": 5,
      "note": 98,
      "start": 43.6456,
      "duration": 0.0433,
      "velocity": 100,
      "chip": "ym2612"
    },
    {
      "channel": 0,
      "note": 45,
      "start": 43.7584,
      "duration": 0.1137,
      "velocity": 127,
      "chip": "ym2612"
    },
    {
      "channel": 4,
      "note": 89,
      "start": 43.7612,
      "duration": 0.2279,
      "velocity": 95,
      "chip": "ym2612"
    },
    {
      "channel": 2,
      "note": 93,
      "start": 43.7637,
      "duration": 0.2255,
      "velocity": 95,
      "chip": "ym2612"
    },
    {
      "channel": 5,
      "note": 96,
      "start": 43.7665,
      "duration": 0.2391,
      "velocity": 95,
      "chip": "ym2612"
    },
    {
      "channel": 1,
      "note": 57,
      "start": 43.8752,
      "duration": 0.0635,
      "velocity": 116,
      "chip": "ym2612"
    },
    {
      "channel": 0,
      "note": 45,
      "start": 43.8775,
      "duration": 0.1113,
      "velocity": 127,
      "chip": "ym2612"
    },
    {
      "channel": 3,
      "note": 96,
      "start": 43.8806,
      "duration": 0.0415,
      "velocity": 100,
      "chip": "ym2612"
    },
    {
      "channel": 1,
      "note": 64,
      "start": 43.9925,
      "duration": 0.1963,
      "velocity": 116,
      "chip": "ym2612"
    },
    {
      "channel": 0,
      "note": 45,
      "start": 43.9948,
      "duration": 0.1107,
      "velocity": 127,
      "chip": "ym2612"
    },
    {
      "channel": 4,
      "note": 77,
      "start": 43.9976,
      "duration": 0.1246,
      "velocity": 95,
      "chip": "ym2612"
    },
    {
      "channel": 3,
      "note": 99,
      "start": 44.0004,
      "duration": 0.0384,
      "velocity": 100,
      "chip": "ym2612"
    },
    {
      "channel": 0,
      "note": 45,
      "start": 44.1083,
      "duration": 0.0971,
      "velocity": 127,
      "chip": "ym2612"
    },
    {
      "channel": 5,
      "note": 89,
      "start": 44.1112,
      "duration": 0.1003,
      "velocity": 95,
      "chip": "ym2612"
    },
    {
      "channel": 2,
      "note": 93,
      "start": 44.1137,
      "duration": 0.1417,
      "velocity": 95,
      "chip": "ym2612"
    },
    {
      "channel": 3,
      "note": 96,
      "start": 44.1169,
      "duration": 0.1578,
      "velocity": 95,
      "chip": "ym2612"
    },
    {
      "channel": 1,
      "note": 63,
      "start": 44.2083,
      "duration": 0.1145,
      "velocity": 116,
      "chip": "ym2612"
    },
    {
      "channel": 0,
      "note": 45,
      "start": 44.2108,
      "duration": 0.0444,
      "velocity": 127,
      "chip": "ym2612"
    },
    {
      "channel": 4,
      "note": 98,
      "start": 44.2171,
      "duration": 0.0196,
      "velocity": 100,
      "chip": "ym2612"
    },
    {
      "channel": 2,
      "note": 77,
      "start": 44.2592,
      "duration": 0.0804,
      "velocity": 95,
      "chip": "ym2612"
    },
    {
      "channel": 1,
      "note": 62,
      "start": 44.3422,
      "duration": 0.2139,
      "velocity": 116,
      "chip": "ym2612"
    },
    {
      "channel": 3,
      "note": 89,
      "start": 44.3451,
      "duration": 0.1778,
      "velocity": 95,
      "chip": "ym2612"
    },
    {
      "channel": 2,
      "note": 93,
      "start": 44.3478,
      "duration": 0.1919,
      "velocity": 95,
      "chip": "ym2612"
    },
    {
      "channel": 4,
      "note": 96,
      "start": 44.3506,
      "duration": 0.2057,
      "velocity": 95,
      "chip": "ym2612"
    },
    {
      "channel": 1,
      "note": 57,
      "start": 44.5758,
      "duration": 0.1025,
      "velocity": 116,
      "chip": "ym2612"
    },
    {
      "channel": 0,
      "note": 45,
      "start": 44.5783,
      "duration": 0.0444,
      "velocity": 127,
      "chip": "ym2612"
    },
    {
      "channel": 3,
      "note": 78,
      "start": 44.5809,
      "duration": 0.0975,
      "velocity": 95,
      "chip": "ym2612"
    },
    {
      "channel": 4,
      "note": 93,
      "start": 44.6687,
      "duration": 0.158,
      "velocity": 95,
      "chip": "ym2612"
    },
    {
      "channel": 2,
      "note": 98,
      "start": 44.6721,
      "duration": 0.138,
      "velocity": 95,
      "chip": "ym2612"
    },
    {
      "channel": 0,
      "note": 90,
      "start": 44.6744,
      "duration": 0.0008,
      "velocity": 95,
      "chip": "ym2612"
    },
    {
      "channel": 0,
      "note": 93,
      "start": 44.6772,
      "duration": 0.0172,
      "velocity": 100,
      "chip": "ym2612"
    },
    {
      "channel": 1,
      "note": 57,
      "start": 44.7154,
      "duration": 0.1761,
      "velocity": 116,
      "chip": "ym2612"
    },
    {
      "channel": 3,
      "note": 45,
      "start": 44.7188,
      "duration": 0.1078,
      "velocity": 127,
      "chip": "ym2612"
    },
    {
      "channel": 3,
      "note": 45,
      "start": 44.8301,
      "duration": 0.0478,
      "velocity": 127,
      "chip": "ym2612"
    },
    {
      "channel": 4,
      "note": 78,
      "start": 44.8329,
      "duration": 0.0587,
      "velocity": 95,
      "chip": "ym2612"
    },
    {
      "channel": 0,
      "note": 96,
      "start": 44.8387,
      "duration": 0.0203,
      "velocity": 100,
      "chip": "ym2612"
    },
    {
      "channel": 2,
      "note": 90,
      "start": 44.8819,
      "duration": 0.1966,
      "velocity": 95,
      "chip": "ym2612"
    },
    {
      "channel": 0,
      "note": 98,
      "start": 44.8842,
      "duration": 0.0034,
      "velocity": 95,
      "chip": "ym2612"
    },
    {
      "channel": 3,
      "note": 93,
      "start": 44.8867,
      "duration": 0.2082,
      "velocity": 95,
      "chip": "ym2612"
    },
    {
      "channel": 0,
      "note": 93,
      "start": 44.8895,
      "duration": 0.022,
      "velocity": 100,
      "chip": "ym2612"
    },
    {
      "channel": 1,
      "note": 57,
      "start": 44.9644,
      "duration": 0.2639,
      "velocity": 116,
      "chip": "ym2612"
    },
    {
      "channel": 4,
      "note": 45,
      "start": 44.9671,
      "duration": 0.1113,
      "velocity": 127,
      "chip": "ym2612"
    },
    {
      "channel": 2,
      "note": 78,
      "start": 45.0823,
      "duration": 0.1295,
      "velocity": 95,
      "chip": "ym2612"
    },
    {
      "channel": 0,
      "note": 98,
      "start": 45.0849,
      "duration": 0.0434,
      "velocity": 100,
      "chip": "ym2612"
    },
    {
      "channel": 4,
      "note": 45,
      "start": 45.1978,
      "duration": 0.1139,
      "velocity": 127,
      "chip": "ym2612"
    },
    {
      "channel": 3,
      "note": 90,
      "start": 45.2006,
      "duration": 0.2111,
      "velocity": 95,
      "chip": "ym2612"
    },
    {
      "channel": 5,
      "note": 98,
      "start": 45.2031,
      "duration": 0.2088,
      "velocity": 95,
      "chip": "ym2612"
    },
    {
      "channel": 0,
      "note": 93,
      "start": 45.2059,
      "duration": 0.2224,
      "velocity": 95,
      "chip": "ym2612"
    },
    {
      "channel": 1,
      "note": 57,
      "start": 45.3147,
      "duration": 0.0636,
      "velocity": 116,
      "chip": "ym2612"
    },
    {
      "channel": 2,
      "note": 96,
      "start": 45.318,
      "duration": 0.0439,
      "velocity": 100,
      "chip": "ym2612"
    },
    {
      "channel": 1,
      "note": 60,
      "start": 45.4317,
      "duration": 0.2132,
      "velocity": 116,
      "chip": "ym2612"
    },
    {
      "channel": 4,
      "note": 45,
      "start": 45.4342,
      "duration": 0.1109,
      "velocity": 127,
      "chip": "ym2612"
    },
    {
      "channel": 0,
      "note": 78,
      "start": 45.4369,
      "duration": 0.108,
      "velocity": 95,
      "chip": "ym2612"
    },
    {
      "channel": 2,
      "note": 99,
      "start": 45.44,
      "duration": 0.0385,
      "velocity": 100,
      "chip": "ym2612"
    },
    {
      "channel": 0,
      "note": 90,
      "start": 45.5483,
      "duration": 0.1505,
      "velocity": 95,
      "chip": "ym2612"
    },
    {
      "channel": 3,
      "note": 93,
      "start": 45.5512,
      "duration": 0.1596,
      "velocity": 95,
      "chip": "ym2612"
    },
    {
      "channel": 5,
      "note": 98,
      "start": 45.5539,
      "duration": 0.1137,
      "velocity": 95,
      "chip": "ym2612"
    },
    {
      "channel": 1,
      "note": 57,
      "start": 45.6643,
      "duration": 0.0976,
      "velocity": 116,
      "chip": "ym2612"
    },
    {
      "channel": 4,
      "note": 45,
      "start": 45.6669,
      "duration": 0.044,
      "velocity": 127,
      "chip": "ym2612"
    },
    {
      "channel": 2,
      "note": 100,
      "start": 45.6729,
      "duration": 0.0134,
      "velocity": 100,
      "chip": "ym2612"
    },
    {
      "channel": 4,
      "note": 45,
      "start": 45.7143,
      "duration": 0.081,
      "velocity": 127,
      "chip": "ym2612"
    },
    {
      "channel": 0,
      "note": 78,
      "start": 45.7167,
      "duration": 0.1118,
      "velocity": 95,
      "chip": "ym2612"
    },
    {
      "channel": 1,
      "note": 55,
      "start": 45.7981,
      "duration": 0.1637,
      "velocity": 116,
      "chip": "ym2612"
    },
    {
      "channel": 3,
      "note": 93,
      "start": 45.801,
      "duration": 0.1942,
      "velocity": 95,
      "chip": "ym2612"
    },
    {
      "channel": 2,
      "note": 90,
      "start": 45.8035,
      "duration": 0.192,
      "velocity": 95,
      "chip": "ym2612"
    },
    {
      "channel": 5,
      "note": 98,
      "start": 45.8062,
      "duration": 0.1892,
      "velocity": 95,
      "chip": "ym2612"
    },
    {
      "channel": 4,
      "note": 103,
      "start": 45.8092,
      "duration": 0.0361,
      "velocity": 100,
      "chip": "ym2612"
    },
    {
      "channel": 1,
      "note": 52,
      "start": 46.0148,
      "duration": 0.1149,
      "velocity": 116,
      "chip": "ym2612"
    },
    {
      "channel": 0,
      "note": 45,
      "start": 46.0174,
      "duration": 0.0461,
      "velocity": 127,
      "chip": "ym2612"
    },
    {
      "channel": 3,
      "note": 76,
      "start": 46.02,
      "duration": 0.1031,
      "velocity": 95,
      "chip": "ym2612"
    },
    {
      "channel": 2,
      "note": 97,
      "start": 46.1098,
      "duration": 0.1411,
      "velocity": 95,
      "chip": "ym2612"
    },
    {
      "channel": 4,
      "note": 88,
      "start": 46.1131,
      "duration": 0.1377,
      "velocity": 95,
      "chip": "ym2612"
    },
    {
      "channel": 0,
      "note": 92,
      "start": 46.1156,
      "duration": 0.0011,
      "velocity": 95,
      "chip": "ym2612"
    },
    {
      "channel": 0,
      "note": 105,
      "start": 46.1186,
      "duration": 0.0169,
      "velocity": 100,
      "chip": "ym2612"
    },
    {
      "channel": 1,
      "note": 52,
      "start": 46.1563,
      "duration": 0.1743,
      "velocity": 116,
      "chip": "ym2612"
    },
    {
      "channel": 3,
      "note": 45,
      "start": 46.16,
      "duration": 0.1074,
      "velocity": 127,
      "chip": "ym2612"
    },
    {
      "channel": 3,
      "note": 45,
      "start": 46.2705,
      "duration": 0.0464,
      "velocity": 127,
      "chip": "ym2612"
    },
    {
      "channel": 4,
      "note": 76,
      "start": 46.2733,
      "duration": 0.0663,
      "velocity": 95,
      "chip": "ym2612"
    },
    {
      "channel": 0,
      "note": 103,
      "start": 46.279,
      "duration": 0.0196,
      "velocity": 100,
      "chip": "ym2612"
    },
    {
      "channel": 2,
      "note": 92,
      "start": 46.3207,
      "duration": 0.2142,
      "velocity": 95,
      "chip": "ym2612"
    },
    {
      "channel": 0,
      "note": 88,
      "start": 46.3231,
      "duration": 0.0046,
      "velocity": 95,
      "chip": "ym2612"
    },
    {
      "channel": 3,
      "note": 97,
      "start": 46.3258,
      "duration": 0.1921,
      "velocity": 95,
      "chip": "ym2612"
    },
    {
      "channel": 0,
      "note": 100,
      "start": 46.3295,
      "duration": 0.0217,
      "velocity": 100,
      "chip": "ym2612"
    },
    {
      "channel": 1,
      "note": 52,
      "start": 46.4041,
      "duration": 0.2637,
      "velocity": 116,
      "chip": "ym2612"
    },
    {
      "channel": 4,
      "note": 45,
      "start": 46.4067,
      "duration": 0.1113,
      "velocity": 127,
      "chip": "ym2612"
    },
    {
      "channel": 3,
      "note": 76,
      "start": 46.5214,
      "duration": 0.13,
      "velocity": 95,
      "chip": "ym2612"
    },
    {
      "channel": 0,
      "note": 103,
      "start": 46.524,
      "duration": 0.0606,
      "velocity": 100,
      "chip": "ym2612"
    },
    {
      "channel": 4,
      "note": 45,
      "start": 46.638,
      "duration": 0.1134,
      "velocity": 127,
      "chip": "ym2612"
    },
    {
      "channel": 2,
      "note": 95,
      "start": 46.641,
      "duration": 0.2105,
      "velocity": 95,
      "chip": "ym2612"
    },
    {
      "channel": 5,
      "note": 88,
      "start": 46.6435,
      "duration": 0.2079,
      "velocity": 95,
      "chip": "ym2612"
    },
    {
      "channel": 0,
      "note": 92,
      "start": 46.6463,
      "duration": 0.2216,
      "velocity": 95,
      "chip": "ym2612"
    },
    {
      "channel": 1,
      "note": 52,
      "start": 46.7544,
      "duration": 0.0636,
      "velocity": 116,
      "chip": "ym2612"
    },
    {
      "channel": 4,
      "note": 45,
      "start": 46.7569,
      "duration": 0.1112,
      "velocity": 127,
      "chip": "ym2612"
    },
    {
      "channel": 3,
      "note": 100,
      "start": 46.76,
      "duration": 0.0581,
      "velocity": 100,
      "chip": "ym2612"
    },
    {
      "channel": 1,
      "note": 52,
      "start": 46.8714,
      "duration": 0.2131,
      "velocity": 116,
      "chip": "ym2612"
    },
    {
      "channel": 4,
      "note": 45,
      "start": 46.8739,
      "duration": 0.1108,
      "velocity": 127,
      "chip": "ym2612"
    },
    {
      "channel": 0,
      "note": 76,
      "start": 46.8766,
      "duration": 0.1246,
      "velocity": 95,
      "chip": "ym2612"
    },
    {
      "channel": 3,
      "note": 98,
      "start": 46.8794,
      "duration": 0.0386,
      "velocity": 100,
      "chip": "ym2612"
    },
    {
      "channel": 4,
      "note": 45,
      "start": 46.9876,
      "duration": 0.1138,
      "velocity": 127,
      "chip": "ym2612"
    },
    {
      "channel": 5,
      "note": 88,
      "start": 46.9908,
      "duration": 0.1166,
      "velocity": 95,
      "chip": "ym2612"
    },
    {
      "channel": 2,
      "note": 92,
      "start": 46.9935,
      "duration": 0.1651,
      "velocity": 95,
      "chip": "ym2612"
    },
    {
      "channel": 3,
      "note": 95,
      "start": 46.9962,
      "duration": 0.1622,
      "velocity": 95,
      "chip": "ym2612"
    },
    {
      "channel": 1,
      "note": 55,
      "start": 47.1041,
      "duration": 0.1141,
      "velocity": 116,
      "chip": "ym2612"
    },
    {
      "channel": 4,
      "note": 45,
      "start": 47.1067,
      "duration": 0.0441,
      "velocity": 127,
      "chip": "ym2612"
    },
    {
      "channel": 0,
      "note": 96,
      "start": 47.113,
      "duration": 0.0136,
      "velocity": 100,
      "chip": "ym2612"
    },
    {
      "channel": 0,
      "note": 76,
      "start": 47.1547,
      "duration": 0.1136,
      "velocity": 95,
      "chip": "ym2612"
    },
    {
      "channel": 1,
      "note": 56,
      "start": 47.2376,
      "duration": 0.2139,
      "velocity": 116,
      "chip": "ym2612"
    },
    {
      "channel": 3,
      "note": 95,
      "start": 47.2405,
      "duration": 0.1611,
      "velocity": 95,
      "chip": "ym2612"
    },
    {
      "channel": 2,
      "note": 92,
      "start": 47.2432,
      "duration": 0.1754,
      "velocity": 95,
      "chip": "ym2612"
    },
    {
      "channel": 4,
      "note": 88,
      "start": 47.2458,
      "duration": 0.1726,
      "velocity": 95,
      "chip": "ym2612"
    },
    {
      "channel": 1,
      "note": 57,
      "start": 47.4712,
      "duration": 0.0915,
      "velocity": 116,
      "chip": "ym2612"
    },
    {
      "channel": 5,
      "note": 45,
      "start": 47.474,
      "duration": 0.0034,
      "velocity": 127,
      "chip": "ym2612"
    },
    {
      "channel": 0,
      "note": 81,
      "start": 47.4769,
      "duration": 0.0979,
      "velocity": 95,
      "chip": "ym2612"
    },
    {
      "channel": 3,
      "note": 96,
      "start": 47.5655,
      "duration": 0.1408,
      "velocity": 95,
      "chip": "ym2612"
    },
    {
      "channel": 4,
      "note": 93,
      "start": 47.5677,
      "duration": 0.1387,
      "velocity": 95,
      "chip": "ym2612"
    },
    {
      "channel": 2,
      "note": 88,
      "start": 47.5709,
      "duration": 0.1357,
      "velocity": 95,
      "chip": "ym2612"
    },
    {
      "channel": 1,
      "note": 93,
      "start": 47.5736,
      "duration": 0.0125,
      "velocity": 100,
      "chip": "ym2612"
    },
    {
      "channel": 0,
      "note": 57,
      "start": 47.6123,
      "duration": 0.1385,
      "velocity": 116,
      "chip": "ym2612"
    },
    {
      "channel": 1,
      "note": 45,
      "start": 47.6157,
      "duration": 0.0905,
      "velocity": 127,
      "chip": "ym2612"
    },
    {
      "channel": 1,
      "note": 45,
      "start": 47.7095,
      "duration": 0.0476,
      "velocity": 127,
      "chip": "ym2612"
    },
    {
      "channel": 3,
      "note": 81,
      "start": 47.7122,
      "duration": 0.0678,
      "velocity": 95,
      "chip": "ym2612"
    },
    {
      "channel": 4,
      "note": 96,
      "start": 47.7182,
      "duration": 0.0204,
      "velocity": 100,
      "chip": "ym2612"
    },
    {
      "channel": 2,
      "note": 96,
      "start": 47.7611,
      "duration": 0.2138,
      "velocity": 95,
      "chip": "ym2612"
    },
    {
      "channel": 4,
      "note": 88,
      "start": 47.7636,
      "duration": 0.1945,
      "velocity": 95,
      "chip": "ym2612"
    },
    {
      "channel": 0,
      "note": 93,
      "start": 47.7664,
      "duration": 0.2415,
      "velocity": 95,
      "chip": "ym2612"
    },
    {
      "channel": 1,
      "note": 93,
      "start": 47.7704,
      "duration": 0.021,
      "velocity": 100,
      "chip": "ym2612"
    },
    {
      "channel": 3,
      "note": 57,
      "start": 47.8442,
      "duration": 0.2138,
      "velocity": 116,
      "chip": "ym2612"
    },
    {
      "channel": 5,
      "note": 45,
      "start": 47.8468,
      "duration": 0.1115,
      "velocity": 127,
      "chip": "ym2612"
    },
    {
      "channel": 4,
      "note": 81,
      "start": 47.9615,
      "duration": 0.1633,
      "velocity": 95,
      "chip": "ym2612"
    },
    {
      "channel": 1,
      "note": 98,
      "start": 47.9641,
      "duration": 0.0605,
      "velocity": 100,
      "chip": "ym2612"
    },
    {
      "channel": 5,
      "note": 45,
      "start": 48.0776,
      "duration": 0.1139,
      "velocity": 127,
      "chip": "ym2612"
    },
    {
      "channel": 0,
      "note": 96,
      "start": 48.0802,
      "duration": 0.2443,
      "velocity": 95,
      "chip": "ym2612"
    },
    {
      "channel": 2,
      "note": 88,
      "start": 48.0829,
      "duration": 0.2253,
      "velocity": 95,
      "chip": "ym2612"
    },
    {
      "channel": 1,
      "note": 93,
      "start": 48.0857,
      "duration": 0.2723,
      "velocity": 95,
      "chip": "ym2612"
    },
    {
      "channel": 3,
      "note": 57,
      "start": 48.1944,
      "duration": 0.0802,
      "velocity": 116,
      "chip": "ym2612"
    },
    {
      "channel": 4,
      "note": 96,
      "start": 48.1977,
      "duration": 0.0604,
      "velocity": 100,
      "chip": "ym2612"
    },
    {
      "channel": 3,
      "note": 60,
      "start": 48.3111,
      "duration": 0.2136,
      "velocity": 116,
      "chip": "ym2612"
    },
    {
      "channel": 5,
      "note": 45,
      "start": 48.3136,
      "duration": 0.1112,
      "velocity": 127,
      "chip": "ym2612"
    },
    {
      "channel": 2,
      "note": 81,
      "start": 48.3166,
      "duration": 0.1249,
      "velocity": 95,
      "chip": "ym2612"
    },
    {
      "channel": 4,
      "note": 99,
      "start": 48.3195,
      "duration": 0.0552,
      "velocity": 100,
      "chip": "ym2612"
    },
    {
      "channel": 0,
      "note": 88,
      "start": 48.4283,
      "duration": 0.1628,
      "velocity": 95,
      "chip": "ym2612"
    },
    {
      "channel": 1,
      "note": 96,
      "start": 48.4308,
      "duration": 0.1697,
      "velocity": 95,
      "chip": "ym2612"
    },
    {
      "channel": 4,
      "note": 93,
      "start": 48.4336,
      "duration": 0.1722,
      "velocity": 95,
      "chip": "ym2612"
    },
    {
      "channel": 3,
      "note": 57,
      "start": 48.5441,
      "duration": 0.1144,
      "velocity": 116,
      "chip": "ym2612"
    },
    {
      "channel": 5,
      "note": 45,
      "start": 48.5471,
      "duration": 0.0007,
      "velocity": 127,
      "chip": "ym2612"
    },
    {
      "channel": 2,
      "note": 100,
      "start": 48.5533,
      "duration": 0.02,
      "velocity": 100,
      "chip": "ym2612"
    },
    {
      "channel": 2,
      "note": 45,
      "start": 48.5949,
      "duration": 0.0805,
      "velocity": 127,
      "chip": "ym2612"
    },
    {
      "channel": 0,
      "note": 81,
      "start": 48.5973,
      "duration": 0.0778,
      "velocity": 95,
      "chip": "ym2612"
    },
    {
      "channel": 3,
      "note": 55,
      "start": 48.6786,
      "duration": 0.1633,
      "velocity": 116,
      "chip": "ym2612"
    },
    {
      "channel": 0,
      "note": 88,
      "start": 48.6814,
      "duration": 0.2103,
      "velocity": 95,
      "chip": "ym2612"
    },
    {
      "channel": 1,
      "note": 93,
      "start": 48.6838,
      "duration": 0.2383,
      "velocity": 95,
      "chip": "ym2612"
    },
    {
      "channel": 4,
      "note": 96,
      "start": 48.6868,
      "duration": 0.2217,
      "velocity": 95,
      "chip": "ym2612"
    },
    {
      "channel": 5,
      "note": 103,
      "start": 48.6898,
      "duration": 0.0354,
      "velocity": 100,
      "chip": "ym2612"
    },
    {
      "channel": 3,
      "note": 57,
      "start": 48.9116,
      "duration": 0.1013,
      "velocity": 116,
      "chip": "ym2612"
    },
    {
      "channel": 2,
      "note": 45,
      "start": 48.9142,
      "duration": 0.0449,
      "velocity": 127,
      "chip": "ym2612"
    },
    {
      "channel": 0,
      "note": 77,
      "start": 48.9166,
      "duration": 0.0844,
      "velocity": 95,
      "chip": "ym2612"
    },
    {
      "channel": 0,
      "note": 89,
      "start": 49.0038,
      "duration": 0.1405,
      "velocity": 95,
      "chip": "ym2612"
    },
    {
      "channel": 1,
      "note": 96,
      "start": 49.0059,
      "duration": 0.1385,
      "velocity": 95,
      "chip": "ym2612"
    },
    {
      "channel": 4,
      "note": 93,
      "start": 49.009,
      "duration": 0.1356,
      "velocity": 95,
      "chip": "ym2612"
    },
    {
      "channel": 2,
      "note": 93,
      "start": 49.0117,
      "duration": 0.0124,
      "velocity": 100,
      "chip": "ym2612"
    },
    {
      "channel": 3,
      "note": 57,
      "start": 49.05,
      "duration": 0.1599,
      "velocity": 116,
      "chip": "ym2612"
    },
    {
      "channel": 2,
      "note": 45,
      "start": 49.0536,
      "duration": 0.1076,
      "velocity": 127,
      "chip": "ym2612"
    },
    {
      "channel": 2,
      "note": 45,
      "start": 49.1642,
      "duration": 0.0459,
      "velocity": 127,
      "chip": "ym2612"
    },
    {
      "channel": 0,
      "note": 77,
      "start": 49.1668,
      "duration": 0.0567,
      "velocity": 95,
      "chip": "ym2612"
    },
    {
      "channel": 1,
      "note": 96,
      "start": 49.1728,
      "duration": 0.0136,
      "velocity": 100,
      "chip": "ym2612"
    },
    {
      "channel": 4,
      "note": 89,
      "start": 49.2137,
      "duration": 0.1977,
      "velocity": 95,
      "chip": "ym2612"
    },
    {
      "channel": 1,
      "note": 93,
      "start": 49.2163,
      "duration": 0.1948,
      "velocity": 95,
      "chip": "ym2612"
    },
    {
      "channel": 3,
      "note": 96,
      "start": 49.2188,
      "duration": 0.2092,
      "velocity": 95,
      "chip": "ym2612"
    },
    {
      "channel": 2,
      "note": 93,
      "start": 49.2225,
      "duration": 0.0103,
      "velocity": 100,
      "chip": "ym2612"
    },
    {
      "channel": 0,
      "note": 57,
      "start": 49.2974,
      "duration": 0.2137,
      "velocity": 116,
      "chip": "ym2612"
    },
    {
      "channel": 5,
      "note": 45,
      "start": 49.3,
      "duration": 0.1115,
      "velocity": 127,
      "chip": "ym2612"
    },
    {
      "channel": 1,
      "note": 77,
      "start": 49.4147,
      "duration": 0.1298,
      "velocity": 95,
      "chip": "ym2612"
    },
    {
      "channel": 2,
      "note": 98,
      "start": 49.4179,
      "duration": 0.0434,
      "velocity": 100,
      "chip": "ym2612"
    },
    {
      "channel": 5,
      "note": 45,
      "start": 49.5144,
      "duration": 0.1136,
      "velocity": 127,
      "chip": "ym2612"
    },
    {
      "channel": 3,
      "note": 89,
      "start": 49.5172,
      "duration": 0.2274,
      "velocity": 95,
      "chip": "ym2612"
    },
    {
      "channel": 4,
      "note": 93,
      "start": 49.5196,
      "duration": 0.2251,
      "velocity": 95,
      "chip": "ym2612"
    },
    {
      "channel": 2,
      "note": 96,
      "start": 49.5225,
      "duration": 0.2555,
      "velocity": 95,
      "chip": "ym2612"
    },
    {
      "channel": 0,
      "note": 57,
      "start": 49.6308,
      "duration": 0.0803,
      "velocity": 116,
      "chip": "ym2612"
    },
    {
      "channel": 5,
      "note": 45,
      "start": 49.6334,
      "duration": 0.1115,
      "velocity": 127,
      "chip": "ym2612"
    },
    {
      "channel": 1,
      "note": 96,
      "start": 49.6365,
      "duration": 0.058,
      "velocity": 100,
      "chip": "ym2612"
    },
    {
      "channel": 0,
      "note": 64,
      "start": 49.7478,
      "duration": 0.2134,
      "velocity": 116,
      "chip": "ym2612"
    },
    {
      "channel": 5,
      "note": 45,
      "start": 49.7503,
      "duration": 0.111,
      "velocity": 127,
      "chip": "ym2612"
    },
    {
      "channel": 3,
      "note": 77,
      "start": 49.7534,
      "duration": 0.1245,
      "velocity": 95,
      "chip": "ym2612"
    },
    {
      "channel": 1,
      "note": 99,
      "start": 49.7562,
      "duration": 0.055,
      "velocity": 100,
      "chip": "ym2612"
    },
    {
      "channel": 5,
      "note": 45,
      "start": 49.8642,
      "duration": 0.1138,
      "velocity": 127,
      "chip": "ym2612"
    },
    {
      "channel": 4,
      "note": 89,
      "start": 49.867,
      "duration": 0.1611,
      "velocity": 95,
      "chip": "ym2612"
    },
    {
      "channel": 2,
      "note": 93,
      "start": 49.8696,
      "duration": 0.1586,
      "velocity": 95,
      "chip": "ym2612"
    },
    {
      "channel": 1,
      "note": 96,
      "start": 49.8723,
      "duration": 0.1749,
      "velocity": 95,
      "chip": "ym2612"
    },
    {
      "channel": 0,
      "note": 63,
      "start": 49.9806,
      "duration": 0.1146,
      "velocity": 116,
      "chip": "ym2612"
    },
    {
      "channel": 5,
      "note": 45,
      "start": 49.9832,
      "duration": 0.0007,
      "velocity": 127,
      "chip": "ym2612"
    },
    {
      "channel": 3,
      "note": 98,
      "start": 49.9895,
      "duration": 0.0201,
      "velocity": 100,
      "chip": "ym2612"
    },
    {
      "channel": 4,
      "note": 77,
      "start": 50.0318,
      "duration": 0.0804,
      "velocity": 95,
      "chip": "ym2612"
    },
    {
      "channel": 0,
      "note": 62,
      "start": 50.1152,
      "duration": 0.1468,
      "velocity": 116,
      "chip": "ym2612"
    },
    {
      "channel": 1,
      "note": 89,
      "start": 50.1181,
      "duration": 0.1772,
      "velocity": 95,
      "chip": "ym2612"
    },
    {
      "channel": 4,
      "note": 93,
      "start": 50.1206,
      "duration": 0.1915,
      "velocity": 95,
      "chip": "ym2612"
    },
    {
      "channel": 2,
      "note": 96,
      "start": 50.1238,
      "duration": 0.205,
      "velocity": 95,
      "chip": "ym2612"
    },
    {
      "channel": 0,
      "note": 57,
      "start": 50.3483,
      "duration": 0.0778,
      "velocity": 116,
      "chip": "ym2612"
    },
    {
      "channel": 3,
      "note": 45,
      "start": 50.3514,
      "duration": 0.0448,
      "velocity": 127,
      "chip": "ym2612"
    },
    {
      "channel": 1,
      "note": 78,
      "start": 50.354,
      "duration": 0.0967,
      "velocity": 95,
      "chip": "ym2612"
    },
    {
      "channel": 4,
      "note": 93,
      "start": 50.4411,
      "duration": 0.1575,
      "velocity": 95,
      "chip": "ym2612"
    },
    {
      "channel": 2,
      "note": 98,
      "start": 50.4435,
      "duration": 0.1385,
      "velocity": 95,
      "chip": "ym2612"
    },
    {
      "channel": 3,
      "note": 90,
      "start": 50.4469,
      "duration": 0.1348,
      "velocity": 95,
      "chip": "ym2612"
    },
    {
      "channel": 0,
      "note": 93,
      "start": 50.4497,
      "duration": 0.0116,
      "velocity": 100,
      "chip": "ym2612"
    },
    {
      "channel": 1,
      "note": 57,
      "start": 50.4878,
      "duration": 0.1539,
      "velocity": 116,
      "chip": "ym2612"
    },
    {
      "channel": 0,
      "note": 45,
      "start": 50.4915,
      "duration": 0.1069,
      "velocity": 127,
      "chip": "ym2612"
    },
    {
      "channel": 0,
      "note": 45,
      "start": 50.6014,
      "duration": 0.046,
      "velocity": 127,
      "chip": "ym2612"
    },
    {
      "channel": 3,
      "note": 78,
      "start": 50.6042,
      "duration": 0.057,
      "velocity": 95,
      "chip": "ym2612"
    },
    {
      "channel": 2,
      "note": 96,
      "start": 50.6102,
      "duration": 0.0137,
      "velocity": 100,
      "chip": "ym2612"
    },
    {
      "channel": 4,
      "note": 90,
      "start": 50.6516,
      "duration": 0.1973,
      "velocity": 95,
      "chip": "ym2612"
    },
    {
      "channel": 2,
      "note": 98,
      "start": 50.6539,
      "duration": 0.1952,
      "velocity": 95,
      "chip": "ym2612"
    },
    {
      "channel": 1,
      "note": 93,
      "start": 50.6565,
      "duration": 0.2089,
      "velocity": 95,
      "chip": "ym2612"
    },
    {
      "channel": 0,
      "note": 93,
      "start": 50.6601,
      "duration": 0.0101,
      "velocity": 100,
      "chip": "ym2612"
    },
    {
      "channel": 3,
      "note": 57,
      "start": 50.7351,
      "duration": 0.2303,
      "velocity": 116,
      "chip": "ym2612"
    },
    {
      "channel": 0,
      "note": 45,
      "start": 50.7377,
      "duration": 0.111,
      "velocity": 127,
      "chip": "ym2612"
    },
    {
      "channel": 4,
      "note": 78,
      "start": 50.8523,
      "duration": 0.1298,
      "velocity": 95,
      "chip": "ym2612"
    },
    {
      "channel": 5,
      "note": 98,
      "start": 50.8552,
      "duration": 0.0436,
      "velocity": 100,
      "chip": "ym2612"
    },
    {
      "channel": 0,
      "note": 45,
      "start": 50.9682,
      "duration": 0.1137,
      "velocity": 127,
      "chip": "ym2612"
    },
    {
      "channel": 1,
      "note": 90,
      "start": 50.9708,
      "duration": 0.1944,
      "velocity": 95,
      "chip": "ym2612"
    },
    {
      "channel": 2,
      "note": 98,
      "start": 50.9734,
      "duration": 0.1922,
      "velocity": 95,
      "chip": "ym2612"
    },
    {
      "channel": 5,
      "note": 93,
      "start": 50.9762,
      "duration": 0.2226,
      "velocity": 95,
      "chip": "ym2612"
    },
    {
      "channel": 3,
      "note": 57,
      "start": 51.0851,
      "duration": 0.0804,
      "velocity": 116,
      "chip": "ym2612"
    },
    {
      "channel": 4,
      "note": 96,
      "start": 51.0883,
      "duration": 0.0438,
      "velocity": 100,
      "chip": "ym2612"
    },
    {
      "channel": 3,
      "note": 60,
      "start": 51.2017,
      "duration": 0.1969,
      "velocity": 116,
      "chip": "ym2612"
    },
    {
      "channel": 0,
      "note": 45,
      "start": 51.204,
      "duration": 0.1113,
      "velocity": 127,
      "chip": "ym2612"
    },
    {
      "channel": 1,
      "note": 78,
      "start": 51.2072,
      "duration": 0.1083,
      "velocity": 95,
      "chip": "ym2612"
    },
    {
      "channel": 4,
      "note": 99,
      "start": 51.2104,
      "duration": 0.0384,
      "velocity": 100,
      "chip": "ym2612"
    },
    {
      "channel": 1,
      "note": 90,
      "start": 51.3188,
      "duration": 0.1413,
      "velocity": 95,
      "chip": "ym2612"
    },
    {
      "channel": 5,
      "note": 93,
      "start": 51.3214,
      "duration": 0.1003,
      "velocity": 95,
      "chip": "ym2612"
    },
    {
      "channel": 2,
      "note": 98,
      "start": 51.3242,
      "duration": 0.1361,
      "velocity": 95,
      "chip": "ym2612"
    },
    {
      "channel": 3,
      "note": 57,
      "start": 51.4181,
      "duration": 0.1151,
      "velocity": 116,
      "chip": "ym2612"
    },
    {
      "channel": 0,
      "note": 45,
      "start": 51.4206,
      "duration": 0.0456,
      "velocity": 127,
      "chip": "ym2612"
    },
    {
      "channel": 4,
      "note": 100,
      "start": 51.427,
      "duration": 0.0208,
      "velocity": 100,
      "chip": "ym2612"
    },
    {
      "channel": 0,
      "note": 45,
      "start": 51.4695,
      "duration": 0.0802,
      "velocity": 127,
      "chip": "ym2612"
    },
    {
      "channel": 1,
      "note": 78,
      "start": 51.4719,
      "duration": 0.1279,
      "velocity": 95,
      "chip": "ym2612"
    },
    {
      "channel": 3,
      "note": 55,
      "start": 51.5531,
      "duration": 0.1801,
      "velocity": 116,
      "chip": "ym2612"
    },
    {
      "channel": 2,
      "note": 93,
      "start": 51.5565,
      "duration": 0.2102,
      "velocity": 95,
      "chip": "ym2612"
    },
    {
      "channel": 4,
      "note": 90,
      "start": 51.5591,
      "duration": 0.2074,
      "velocity": 95,
      "chip": "ym2612"
    },
    {
      "channel": 5,
      "note": 98,
      "start": 51.5617,
      "duration": 0.2049,
      "velocity": 95,
      "chip": "ym2612"
    },
    {
      "channel": 0,
      "note": 103,
      "start": 51.5646,
      "duration": 0.0518,
      "velocity": 100,
      "chip": "ym2612"
    },
    {
      "channel": 3,
      "note": 52,
      "start": 51.7862,
      "duration": 0.1048,
      "velocity": 116,
      "chip": "ym2612"
    },
    {
      "channel": 1,
      "note": 45,
      "start": 51.7888,
      "duration": 0.0462,
      "velocity": 127,
      "chip": "ym2612"
    },
    {
      "channel": 4,
      "note": 76,
      "start": 51.7915,
      "duration": 0.0996,
      "velocity": 95,
      "chip": "ym2612"
    },
    {
      "channel": 2,
      "note": 97,
      "start": 51.8812,
      "duration": 0.1419,
      "velocity": 95,
      "chip": "ym2612"
    },
    {
      "channel": 0,
      "note": 88,
      "start": 51.8835,
      "duration": 0.0044,
      "velocity": 95,
      "chip": "ym2612"
    },
    {
      "channel": 1,
      "note": 92,
      "start": 51.8869,
      "duration": 0.1527,
      "velocity": 95,
      "chip": "ym2612"
    },
    {
      "channel": 0,
      "note": 105,
      "start": 51.8897,
      "duration": 0.0178,
      "velocity": 100,
      "chip": "ym2612"
    },
    {
      "channel": 3,
      "note": 52,
      "start": 51.9288,
      "duration": 0.1614,
      "velocity": 116,
      "chip": "ym2612"
    },
    {
      "channel": 4,
      "note": 45,
      "start": 51.9322,
      "duration": 0.1076,
      "velocity": 127,
      "chip": "ym2612"
    },
    {
      "channel": 4,
      "note": 45,
      "start": 52.0432,
      "duration": 0.0471,
      "velocity": 127,
      "chip": "ym2612"
    },
    {
      "channel": 1,
      "note": 76,
      "start": 52.0459,
      "duration": 0.0615,
      "velocity": 95,
      "chip": "ym2612"
    },
    {
      "channel": 0,
      "note": 103,
      "start": 52.0517,
      "duration": 0.0195,
      "velocity": 100,
      "chip": "ym2612"
    },
    {
      "channel": 2,
      "note": 92,
      "start": 52.0942,
      "duration": 0.2125,
      "velocity": 95,
      "chip": "ym2612"
    },
    {
      "channel": 0,
      "note": 88,
      "start": 52.0965,
      "duration": 0.2099,
      "velocity": 95,
      "chip": "ym2612"
    },
    {
      "channel": 3,
      "note": 97,
      "start": 52.099,
      "duration": 0.1909,
      "velocity": 95,
      "chip": "ym2612"
    },
    {
      "channel": 4,
      "note": 100,
      "start": 52.1026,
      "duration": 0.0207,
      "velocity": 100,
      "chip": "ym2612"
    },
    {
      "channel": 1,
      "note": 52,
      "start": 52.1762,
      "duration": 0.2471,
      "velocity": 116,
      "chip": "ym2612"
    },
    {
      "channel": 5,
      "note": 45,
      "start": 52.1788,
      "duration": 0.1113,
      "velocity": 127,
      "chip": "ym2612"
    },
    {
      "channel": 3,
      "note": 76,
      "start": 52.2933,
      "duration": 0.1301,
      "velocity": 95,
      "chip": "ym2612"
    },
    {
      "channel": 4,
      "note": 103,
      "start": 52.296,
      "duration": 0.044,
      "velocity": 100,
      "chip": "ym2612"
    },
    {
      "channel": 5,
      "note": 45,
      "start": 52.4096,
      "duration": 0.1137,
      "velocity": 127,
      "chip": "ym2612"
    },
    {
      "channel": 0,
      "note": 95,
      "start": 52.4123,
      "duration": 0.2109,
      "velocity": 95,
      "chip": "ym2612"
    },
    {
      "channel": 2,
      "note": 88,
      "start": 52.4148,
      "duration": 0.2087,
      "velocity": 95,
      "chip": "ym2612"
    },
    {
      "channel": 4,
      "note": 92,
      "start": 52.418,
      "duration": 0.222,
      "velocity": 95,
      "chip": "ym2612"
    },
    {
      "channel": 1,
      "note": 52,
      "start": 52.5262,
      "duration": 0.0469,
      "velocity": 116,
      "chip": "ym2612"
    },
    {
      "channel": 5,
      "note": 45,
      "start": 52.5287,
      "duration": 0.1114,
      "velocity": 127,
      "chip": "ym2612"
    },
    {
      "channel": 3,
      "note": 100,
      "start": 52.5318,
      "duration": 0.0415,
      "velocity": 100,
      "chip": "ym2612"
    },
    {
      "channel": 1,
      "note": 52,
      "start": 52.643,
      "duration": 0.2136,
      "velocity": 116,
      "chip": "ym2612"
    },
    {
      "channel": 5,
      "note": 45,
      "start": 52.6456,
      "duration": 0.1112,
      "velocity": 127,
      "chip": "ym2612"
    },
    {
      "channel": 0,
      "note": 76,
      "start": 52.6482,
      "duration": 0.125,
      "velocity": 95,
      "chip": "ym2612"
    },
    {
      "channel": 3,
      "note": 98,
      "start": 52.6511,
      "duration": 0.0388,
      "velocity": 100,
      "chip": "ym2612"
    },
    {
      "channel": 5,
      "note": 45,
      "start": 52.7596,
      "duration": 0.1137,
      "velocity": 127,
      "chip": "ym2612"
    },
    {
      "channel": 4,
      "note": 88,
      "start": 52.7624,
      "duration": 0.1489,
      "velocity": 95,
      "chip": "ym2612"
    },
    {
      "channel": 2,
      "note": 92,
      "start": 52.7651,
      "duration": 0.166,
      "velocity": 95,
      "chip": "ym2612"
    },
    {
      "channel": 3,
      "note": 95,
      "start": 52.7678,
      "duration": 0.1631,
      "velocity": 95,
      "chip": "ym2612"
    },
    {
      "channel": 1,
      "note": 55,
      "start": 52.876,
      "duration": 0.0979,
      "velocity": 116,
      "chip": "ym2612"
    },
    {
      "channel": 5,
      "note": 45,
      "start": 52.8786,
      "duration": 0.0008,
      "velocity": 127,
      "chip": "ym2612"
    },
    {
      "channel": 0,
      "note": 96,
      "start": 52.8854,
      "duration": 0.0133,
      "velocity": 100,
      "chip": "ym2612"
    },
    {
      "channel": 4,
      "note": 76,
      "start": 52.9269,
      "duration": 0.1138,
      "velocity": 95,
      "chip": "ym2612"
    },
    {
      "channel": 1,
      "note": 56,
      "start": 53.01,
      "duration": 0.1973,
      "velocity": 116,
      "chip": "ym2612"
    },
    {
      "channel": 3,
      "note": 95,
      "start": 53.0132,
      "duration": 0.1607,
      "velocity": 95,
      "chip": "ym2612"
    },
    {
      "channel": 2,
      "note": 92,
      "start": 53.016,
      "duration": 0.1749,
      "velocity": 95,
      "chip": "ym2612"
    },
    {
      "channel": 0,
      "note": 88,
      "start": 53.0186,
      "duration": 0.172,
      "velocity": 95,
      "chip": "ym2612"
    },
    {
      "channel": 1,
      "note": 69,
      "start": 53.2283,
      "duration": 0.889,
      "velocity": 116,
      "chip": "ym2612"
    },
    {
      "channel": 5,
      "note": 45,
      "start": 53.2323,
      "duration": 0.1084,
      "velocity": 127,
      "chip": "ym2612"
    },
    {
      "channel": 0,
      "note": 81,
      "start": 53.2361,
      "duration": 0.2544,
      "velocity": 95,
      "chip": "ym2612"
    },
    {
      "channel": 3,
      "note": 96,
      "start": 53.4606,
      "duration": 0.2302,
      "velocity": 95,
      "chip": "ym2612"
    },
    {
      "channel": 4,
      "note": 93,
      "start": 53.4629,
      "duration": 0.2279,
      "velocity": 95,
      "chip": "ym2612"
    },
    {
      "channel": 2,
      "note": 88,
      "start": 53.4656,
      "duration": 0.2254,
      "velocity": 95,
      "chip": "ym2612"
    },
    {
      "channel": 5,
      "note": 93,
      "start": 53.4686,
      "duration": 0.0556,
      "velocity": 100,
      "chip": "ym2612"
    },
    {
      "channel": 0,
      "note": 45,
      "start": 53.6939,
      "duration": 0.0476,
      "velocity": 127,
      "chip": "ym2612"
    },
    {
      "channel": 3,
      "note": 81,
      "start": 53.6967,
      "duration": 0.0676,
      "velocity": 95,
      "chip": "ym2612"
    },
    {
      "channel": 4,
      "note": 96,
      "start": 53.703,
      "duration": 0.0199,
      "velocity": 100,
      "chip": "ym2612"
    },
    {
      "channel": 2,
      "note": 96,
      "start": 53.7457,
      "duration": 0.2088,
      "velocity": 95,
      "chip": "ym2612"
    },
    {
      "channel": 4,
      "note": 88,
      "start": 53.7481,
      "duration": 0.1943,
      "velocity": 95,
      "chip": "ym2612"
    },
    {
      "channel": 0,
      "note": 93,
      "start": 53.7507,
      "duration": 0.0017,
      "velocity": 95,
      "chip": "ym2612"
    },
    {
      "channel": 0,
      "note": 93,
      "start": 53.7544,
      "duration": 0.0211,
      "velocity": 100,
      "chip": "ym2612"
    },
    {
      "channel": 3,
      "note": 81,
      "start": 53.9457,
      "duration": 0.0618,
      "velocity": 95,
      "chip": "ym2612"
    },
    {
      "channel": 0,
      "note": 98,
      "start": 53.9516,
      "duration": 0.021,
      "velocity": 100,
      "chip": "ym2612"
    },
    {
      "channel": 4,
      "note": 45,
      "start": 53.9942,
      "duration": 0.0827,
      "velocity": 127,
      "chip": "ym2612"
    },
    {
      "channel": 2,
      "note": 96,
      "start": 53.9969,
      "duration": 0.1388,
      "velocity": 95,
      "chip": "ym2612"
    },
    {
      "channel": 0,
      "note": 88,
      "start": 53.9992,
      "duration": 0.0019,
      "velocity": 95,
      "chip": "ym2612"
    },
    {
      "channel": 0,
      "note": 93,
      "start": 54.003,
      "duration": 0.1295,
      "velocity": 95,
      "chip": "ym2612"
    },
    {
      "channel": 3,
      "note": 96,
      "start": 54.0837,
      "duration": 0.0215,
      "velocity": 100,
      "chip": "ym2612"
    },
    {
      "channel": 1,
      "note": 69,
      "start": 54.1258,
      "duration": 0.238,
      "velocity": 116,
      "chip": "ym2612"
    },
    {
      "channel": 4,
      "note": 45,
      "start": 54.128,
      "duration": 0.0835,
      "velocity": 127,
      "chip": "ym2612"
    },
    {
      "channel": 3,
      "note": 81,
      "start": 54.1307,
      "duration": 0.0973,
      "velocity": 95,
      "chip": "ym2612"
    },
    {
      "channel": 0,
      "note": 99,
      "start": 54.1344,
      "duration": 0.0125,
      "velocity": 100,
      "chip": "ym2612"
    },
    {
      "channel": 2,
      "note": 88,
      "start": 54.215,
      "duration": 0.1618,
      "velocity": 95,
      "chip": "ym2612"
    },
    {
      "channel": 5,
      "note": 96,
      "start": 54.2176,
      "duration": 0.1141,
      "velocity": 95,
      "chip": "ym2612"
    },
    {
      "channel": 0,
      "note": 93,
      "start": 54.2204,
      "duration": 0.1702,
      "velocity": 95,
      "chip": "ym2612"
    },
    {
      "channel": 4,
      "note": 45,
      "start": 54.3309,
      "duration": 0.0456,
      "velocity": 127,
      "chip": "ym2612"
    },
    {
      "channel": 3,
      "note": 100,
      "start": 54.3373,
      "duration": 0.0145,
      "velocity": 100,
      "chip": "ym2612"
    },
    {
      "channel": 1,
      "note": 69,
      "start": 54.3791,
      "duration": 0.233,
      "velocity": 116,
      "chip": "ym2612"
    },
    {
      "channel": 2,
      "note": 81,
      "start": 54.3818,
      "duration": 0.0805,
      "velocity": 95,
      "chip": "ym2612"
    },
    {
      "channel": 4,
      "note": 45,
      "start": 54.4651,
      "duration": 0.1138,
      "velocity": 127,
      "chip": "ym2612"
    },
    {
      "channel": 0,
      "note": 88,
      "start": 54.4681,
      "duration": 0.2106,
      "velocity": 95,
      "chip": "ym2612"
    },
    {
      "channel": 2,
      "note": 93,
      "start": 54.4708,
      "duration": 0.2416,
      "velocity": 95,
      "chip": "ym2612"
    },
    {
      "channel": 3,
      "note": 96,
      "start": 54.4736,
      "duration": 0.2219,
      "velocity": 95,
      "chip": "ym2612"
    },
    {
      "channel": 1,
      "note": 65,
      "start": 54.6985,
      "duration": 0.8739,
      "velocity": 116,
      "chip": "ym2612"
    },
    {
      "channel": 4,
      "note": 45,
      "start": 54.7012,
      "duration": 0.1111,
      "velocity": 127,
      "chip": "ym2612"
    },
    {
      "channel": 0,
      "note": 77,
      "start": 54.7035,
      "duration": 0.2253,
      "velocity": 95,
      "chip": "ym2612"
    },
    {
      "channel": 0,
      "note": 89,
      "start": 54.9321,
      "duration": 0.1967,
      "velocity": 95,
      "chip": "ym2612"
    },
    {
      "channel": 3,
      "note": 96,
      "start": 54.9344,
      "duration": 0.1945,
      "velocity": 95,
      "chip": "ym2612"
    },
    {
      "channel": 2,
      "note": 93,
      "start": 54.9371,
      "duration": 0.1921,
      "velocity": 95,
      "chip": "ym2612"
    },
    {
      "channel": 5,
      "note": 93,
      "start": 54.9405,
      "duration": 0.0384,
      "velocity": 100,
      "chip": "ym2612"
    },
    {
      "channel": 4,
      "note": 45,
      "start": 55.165,
      "duration": 0.0417,
      "velocity": 127,
      "chip": "ym2612"
    },
    {
      "channel": 0,
      "note": 77,
      "start": 55.1681,
      "duration": 0.0486,
      "velocity": 95,
      "chip": "ym2612"
    },
    {
      "channel": 3,
      "note": 96,
      "start": 55.1741,
      "duration": 0.0139,
      "velocity": 100,
      "chip": "ym2612"
    },
    {
      "channel": 2,
      "note": 89,
      "start": 55.2097,
      "duration": 0.1881,
      "velocity": 95,
      "chip": "ym2612"
    },
    {
      "channel": 3,
      "note": 93,
      "start": 55.2121,
      "duration": 0.1856,
      "velocity": 95,
      "chip": "ym2612"
    },
    {
      "channel": 4,
      "note": 96,
      "start": 55.2156,
      "duration": 0.2002,
      "velocity": 95,
      "chip": "ym2612"
    },
    {
      "channel": 0,
      "note": 93,
      "start": 55.2185,
      "duration": 0.0176,
      "velocity": 100,
      "chip": "ym2612"
    },
    {
      "channel": 3,
      "note": 77,
      "start": 55.401,
      "duration": 0.0582,
      "velocity": 95,
      "chip": "ym2612"
    },
    {
      "channel": 0,
      "note": 98,
      "start": 55.4068,
      "duration": 0.0207,
      "velocity": 100,
      "chip": "ym2612"
    },
    {
      "channel": 2,
      "note": 45,
      "start": 55.4491,
      "duration": 0.0828,
      "velocity": 127,
      "chip": "ym2612"
    },
    {
      "channel": 4,
      "note": 89,
      "start": 55.4515,
      "duration": 0.1269,
      "velocity": 95,
      "chip": "ym2612"
    },
    {
      "channel": 0,
      "note": 93,
      "start": 55.4537,
      "duration": 0.0021,
      "velocity": 95,
      "chip": "ym2612"
    },
    {
      "channel": 0,
      "note": 96,
      "start": 55.4578,
      "duration": 0.1329,
      "velocity": 95,
      "chip": "ym2612"
    },
    {
      "channel": 3,
      "note": 96,
      "start": 55.539,
      "duration": 0.0217,
      "velocity": 100,
      "chip": "ym2612"
    },
    {
      "channel": 1,
      "note": 65,
      "start": 55.581,
      "duration": 0.2314,
      "velocity": 116,
      "chip": "ym2612"
    },
    {
      "channel": 2,
      "note": 45,
      "start": 55.5837,
      "duration": 0.0823,
      "velocity": 127,
      "chip": "ym2612"
    },
    {
      "channel": 4,
      "note": 77,
      "start": 55.5871,
      "duration": 0.0954,
      "velocity": 95,
      "chip": "ym2612"
    },
    {
      "channel": 3,
      "note": 99,
      "start": 55.5895,
      "duration": 0.0262,
      "velocity": 100,
      "chip": "ym2612"
    },
    {
      "channel": 0,
      "note": 89,
      "start": 55.669,
      "duration": 0.1626,
      "velocity": 95,
      "chip": "ym2612"
    },
    {
      "channel": 5,
      "note": 93,
      "start": 55.6715,
      "duration": 0.1148,
      "velocity": 95,
      "chip": "ym2612"
    },
    {
      "channel": 3,
      "note": 96,
      "start": 55.6743,
      "duration": 0.1707,
      "velocity": 95,
      "chip": "ym2612"
    },
    {
      "channel": 2,
      "note": 45,
      "start": 55.7855,
      "duration": 0.0463,
      "velocity": 127,
      "chip": "ym2612"
    },
    {
      "channel": 4,
      "note": 93,
      "start": 55.7918,
      "duration": 0.0207,
      "velocity": 100,
      "chip": "ym2612"
    },
    {
      "channel": 1,
      "note": 65,
      "start": 55.8344,
      "duration": 0.2803,
      "velocity": 116,
      "chip": "ym2612"
    },
    {
      "channel": 0,
      "note": 77,
      "start": 55.8367,
      "duration": 0.078,
      "velocity": 95,
      "chip": "ym2612"
    },
    {
      "channel": 0,
      "note": 89,
      "start": 55.9183,
      "duration": 0.163,
      "velocity": 95,
      "chip": "ym2612"
    },
    {
      "channel": 3,
      "note": 93,
      "start": 55.9208,
      "duration": 0.194,
      "velocity": 95,
      "chip": "ym2612"
    },
    {
      "channel": 4,
      "note": 96,
      "start": 55.9237,
      "duration": 0.2078,
      "velocity": 95,
      "chip": "ym2612"
    },
    {
      "channel": 1,
      "note": 62,
      "start": 56.1511,
      "duration": 0.8732,
      "velocity": 116,
      "chip": "ym2612"
    },
    {
      "channel": 2,
      "note": 45,
      "start": 56.1537,
      "duration": 0.1112,
      "velocity": 127,
      "chip": "ym2612"
    },
    {
      "channel": 0,
      "note": 78,
      "start": 56.1562,
      "duration": 0.2417,
      "velocity": 95,
      "chip": "ym2612"
    },
    {
      "channel": 3,
      "note": 93,
      "start": 56.3847,
      "duration": 0.23,
      "velocity": 95,
      "chip": "ym2612"
    },
    {
      "channel": 4,
      "note": 98,
      "start": 56.3872,
      "duration": 0.211,
      "velocity": 95,
      "chip": "ym2612"
    },
    {
      "channel": 5,
      "note": 90,
      "start": 56.3898,
      "duration": 0.2085,
      "velocity": 95,
      "chip": "ym2612"
    },
    {
      "channel": 2,
      "note": 93,
      "start": 56.3929,
      "duration": 0.0387,
      "velocity": 100,
      "chip": "ym2612"
    },
    {
      "channel": 0,
      "note": 45,
      "start": 56.6178,
      "duration": 0.0473,
      "velocity": 127,
      "chip": "ym2612"
    },
    {
      "channel": 3,
      "note": 78,
      "start": 56.6209,
      "duration": 0.0579,
      "velocity": 95,
      "chip": "ym2612"
    },
    {
      "channel": 2,
      "note": 96,
      "start": 56.6271,
      "duration": 0.0139,
      "velocity": 100,
      "chip": "ym2612"
    },
    {
      "channel": 4,
      "note": 90,
      "start": 56.6689,
      "duration": 0.1971,
      "velocity": 95,
      "chip": "ym2612"
    },
    {
      "channel": 2,
      "note": 98,
      "start": 56.6712,
      "duration": 0.1949,
      "velocity": 95,
      "chip": "ym2612"
    },
    {
      "channel": 0,
      "note": 93,
      "start": 56.6738,
      "duration": 0.0019,
      "velocity": 95,
      "chip": "ym2612"
    },
    {
      "channel": 0,
      "note": 93,
      "start": 56.6776,
      "duration": 0.0102,
      "velocity": 100,
      "chip": "ym2612"
    },
    {
      "channel": 3,
      "note": 78,
      "start": 56.8693,
      "duration": 0.0583,
      "velocity": 95,
      "chip": "ym2612"
    },
    {
      "channel": 0,
      "note": 98,
      "start": 56.8753,
      "duration": 0.0146,
      "velocity": 100,
      "chip": "ym2612"
    },
    {
      "channel": 4,
      "note": 45,
      "start": 56.9176,
      "duration": 0.066,
      "velocity": 127,
      "chip": "ym2612"
    },
    {
      "channel": 2,
      "note": 90,
      "start": 56.9202,
      "duration": 0.1042,
      "velocity": 95,
      "chip": "ym2612"
    },
    {
      "channel": 0,
      "note": 98,
      "start": 56.9227,
      "duration": 0.0017,
      "velocity": 95,
      "chip": "ym2612"
    },
    {
      "channel": 0,
      "note": 93,
      "start": 56.9263,
      "duration": 0.1038,
      "velocity": 95,
      "chip": "ym2612"
    },
    {
      "channel": 3,
      "note": 96,
      "start": 56.9903,
      "duration": 0.0219,
      "velocity": 100,
      "chip": "ym2612"
    },
    {
      "channel": 1,
      "note": 62,
      "start": 57.0328,
      "duration": 0.2365,
      "velocity": 116,
      "chip": "ym2612"
    },
    {
      "channel": 4,
      "note": 45,
      "start": 57.0349,
      "duration": 0.0817,
      "velocity": 127,
      "chip": "ym2612"
    },
    {
      "channel": 0,
      "note": 78,
      "start": 57.0374,
      "duration": 0.079,
      "velocity": 95,
      "chip": "ym2612"
    },
    {
      "channel": 3,
      "note": 99,
      "start": 57.0408,
      "duration": 0.0256,
      "velocity": 100,
      "chip": "ym2612"
    },
    {
      "channel": 0,
      "note": 90,
      "start": 57.1198,
      "duration": 0.1559,
      "velocity": 95,
      "chip": "ym2612"
    },
    {
      "channel": 2,
      "note": 93,
      "start": 57.1225,
      "duration": 0.16,
      "velocity": 95,
      "chip": "ym2612"
    },
    {
      "channel": 5,
      "note": 98,
      "start": 57.1253,
      "duration": 0.1115,
      "velocity": 95,
      "chip": "ym2612"
    },
    {
      "channel": 4,
      "note": 45,
      "start": 57.236,
      "duration": 0.0464,
      "velocity": 127,
      "chip": "ym2612"
    },
    {
      "channel": 3,
      "note": 100,
      "start": 57.2421,
      "duration": 0.0213,
      "velocity": 100,
      "chip": "ym2612"
    },
    {
      "channel": 1,
      "note": 62,
      "start": 57.2847,
      "duration": 0.2827,
      "velocity": 116,
      "chip": "ym2612"
    },
    {
      "channel": 0,
      "note": 78,
      "start": 57.2873,
      "duration": 0.13,
      "velocity": 95,
      "chip": "ym2612"
    },
    {
      "channel": 4,
      "note": 45,
      "start": 57.3702,
      "duration": 0.1139,
      "velocity": 127,
      "chip": "ym2612"
    },
    {
      "channel": 2,
      "note": 93,
      "start": 57.3732,
      "duration": 0.2111,
      "velocity": 95,
      "chip": "ym2612"
    },
    {
      "channel": 3,
      "note": 90,
      "start": 57.3756,
      "duration": 0.2084,
      "velocity": 95,
      "chip": "ym2612"
    },
    {
      "channel": 5,
      "note": 98,
      "start": 57.3783,
      "duration": 0.2059,
      "velocity": 95,
      "chip": "ym2612"
    },
    {
      "channel": 1,
      "note": 72,
      "start": 57.6037,
      "duration": 0.2137,
      "velocity": 116,
      "chip": "ym2612"
    },
    {
      "channel": 4,
      "note": 45,
      "start": 57.6063,
      "duration": 0.1111,
      "velocity": 127,
      "chip": "ym2612"
    },
    {
      "channel": 0,
      "note": 76,
      "start": 57.6088,
      "duration": 0.2417,
      "velocity": 95,
      "chip": "ym2612"
    },
    {
      "channel": 1,
      "note": 67,
      "start": 57.8368,
      "duration": 0.1973,
      "velocity": 116,
      "chip": "ym2612"
    },
    {
      "channel": 3,
      "note": 97,
      "start": 57.8396,
      "duration": 0.2111,
      "velocity": 95,
      "chip": "ym2612"
    },
    {
      "channel": 5,
      "note": 88,
      "start": 57.842,
      "duration": 0.2088,
      "velocity": 95,
      "chip": "ym2612"
    },
    {
      "channel": 2,
      "note": 92,
      "start": 57.8452,
      "duration": 0.2222,
      "velocity": 95,
      "chip": "ym2612"
    },
    {
      "channel": 4,
      "note": 105,
      "start": 57.8482,
      "duration": 0.0358,
      "velocity": 100,
      "chip": "ym2612"
    },
    {
      "channel": 1,
      "note": 69,
      "start": 58.0702,
      "duration": 0.1144,
      "velocity": 116,
      "chip": "ym2612"
    },
    {
      "channel": 0,
      "note": 45,
      "start": 58.0729,
      "duration": 0.0458,
      "velocity": 127,
      "chip": "ym2612"
    },
    {
      "channel": 3,
      "note": 76,
      "start": 58.0756,
      "duration": 0.06,
      "velocity": 95,
      "chip": "ym2612"
    },
    {
      "channel": 4,
      "note": 103,
      "start": 58.0818,
      "duration": 0.0134,
      "velocity": 100,
      "chip": "ym2612"
    },
    {
      "channel": 2,
      "note": 92,
      "start": 58.1218,
      "duration": 0.2082,
      "velocity": 95,
      "chip": "ym2612"
    },
    {
      "channel": 4,
      "note": 88,
      "start": 58.1251,
      "duration": 0.2048,
      "velocity": 95,
      "chip": "ym2612"
    },
    {
      "channel": 0,
      "note": 97,
      "start": 58.1277,
      "duration": 0.0007,
      "velocity": 95,
      "chip": "ym2612"
    },
    {
      "channel": 0,
      "note": 100,
      "start": 58.1303,
      "duration": 0.0113,
      "velocity": 100,
      "chip": "ym2612"
    },
    {
      "channel": 1,
      "note": 64,
      "start": 58.2044,
      "duration": 0.1561,
      "velocity": 116,
      "chip": "ym2612"
    },
    {
      "channel": 3,
      "note": 76,
      "start": 58.3214,
      "duration": 0.061,
      "velocity": 95,
      "chip": "ym2612"
    },
    {
      "channel": 0,
      "note": 103,
      "start": 58.3273,
      "duration": 0.0148,
      "velocity": 100,
      "chip": "ym2612"
    },
    {
      "channel": 1,
      "note": 67,
      "start": 58.3697,
      "duration": 0.1191,
      "velocity": 116,
      "chip": "ym2612"
    },
    {
      "channel": 4,
      "note": 45,
      "start": 58.3721,
      "duration": 0.0812,
      "velocity": 127,
      "chip": "ym2612"
    },
    {
      "channel": 2,
      "note": 95,
      "start": 58.375,
      "duration": 0.114,
      "velocity": 95,
      "chip": "ym2612"
    },
    {
      "channel": 0,
      "note": 88,
      "start": 58.3784,
      "duration": 0.0007,
      "velocity": 95,
      "chip": "ym2612"
    },
    {
      "channel": 0,
      "note": 92,
      "start": 58.381,
      "duration": 0.1197,
      "velocity": 95,
      "chip": "ym2612"
    },
    {
      "channel": 3,
      "note": 100,
      "start": 58.4608,
      "duration": 0.0156,
      "velocity": 100,
      "chip": "ym2612"
    },
    {
      "channel": 1,
      "note": 62,
      "start": 58.5031,
      "duration": 0.1673,
      "velocity": 116,
      "chip": "ym2612"
    },
    {
      "channel": 4,
      "note": 45,
      "start": 58.5053,
      "duration": 0.0819,
      "velocity": 127,
      "chip": "ym2612"
    },
    {
      "channel": 0,
      "note": 76,
      "start": 58.5077,
      "duration": 0.096,
      "velocity": 95,
      "chip": "ym2612"
    },
    {
      "channel": 3,
      "note": 98,
      "start": 58.5112,
      "duration": 0.0123,
      "velocity": 100,
      "chip": "ym2612"
    },
    {
      "channel": 2,
      "note": 88,
      "start": 58.5906,
      "duration": 0.1518,
      "velocity": 95,
      "chip": "ym2612"
    },
    {
      "channel": 3,
      "note": 92,
      "start": 58.5933,
      "duration": 0.1687,
      "velocity": 95,
      "chip": "ym2612"
    },
    {
      "channel": 5,
      "note": 95,
      "start": 58.5959,
      "duration": 0.1143,
      "velocity": 95,
      "chip": "ym2612"
    },
    {
      "channel": 1,
      "note": 63,
      "start": 58.7064,
      "duration": 0.0981,
      "velocity": 116,
      "chip": "ym2612"
    },
    {
      "channel": 4,
      "note": 45,
      "start": 58.7094,
      "duration": 0.0385,
      "velocity": 127,
      "chip": "ym2612"
    },
    {
      "channel": 0,
      "note": 96,
      "start": 58.7158,
      "duration": 0.014,
      "velocity": 100,
      "chip": "ym2612"
    },
    {
      "channel": 2,
      "note": 76,
      "start": 58.751,
      "duration": 0.1204,
      "velocity": 95,
      "chip": "ym2612"
    },
    {
      "channel": 1,
      "note": 64,
      "start": 58.8239,
      "duration": 0.1973,
      "velocity": 116,
      "chip": "ym2612"
    },
    {
      "channel": 3,
      "note": 95,
      "start": 58.8269,
      "duration": 0.1777,
      "velocity": 95,
      "chip": "ym2612"
    },
    {
      "channel": 0,
      "note": 92,
      "start": 58.8295,
      "duration": 0.1915,
      "velocity": 95,
      "chip": "ym2612"
    },
    {
      "channel": 4,
      "note": 88,
      "start": 58.8322,
      "duration": 0.1891,
      "velocity": 95,
      "chip": "ym2612"
    },
    {
      "channel": 1,
      "note": 57,
      "start": 59.0575,
      "duration": 0.1047,
      "velocity": 116,
      "chip": "ym2612"
    },
    {
      "channel": 5,
      "note": 45,
      "start": 59.0602,
      "duration": 0.0034,
      "velocity": 127,
      "chip": "ym2612"
    },
    {
      "channel": 0,
      "note": 81,
      "start": 59.0628,
      "duration": 0.0964,
      "velocity": 95,
      "chip": "ym2612"
    },
    {
      "channel": 3,
      "note": 96,
      "start": 59.1525,
      "duration": 0.1578,
      "velocity": 95,
      "chip": "ym2612"
    },
    {
      "channel": 4,
      "note": 93,
      "start": 59.1547,
      "duration": 0.1557,
      "velocity": 95,
      "chip": "ym2612"
    },
    {
      "channel": 2,
      "note": 88,
      "start": 59.1583,
      "duration": 0.1523,
      "velocity": 95,
      "chip": "ym2612"
    },
    {
      "channel": 0,
      "note": 93,
      "start": 59.1612,
      "duration": 0.0175,
      "velocity": 100,
      "chip": "ym2612"
    },
    {
      "channel": 1,
      "note": 57,
      "start": 59.1995,
      "duration": 0.1607,
      "velocity": 116,
      "chip": "ym2612"
    },
    {
      "channel": 0,
      "note": 45,
      "start": 59.2026,
      "duration": 0.1075,
      "velocity": 127,
      "chip": "ym2612"
    },
    {
      "channel": 0,
      "note": 45,
      "start": 59.3134,
      "duration": 0.0468,
      "velocity": 127,
      "chip": "ym2612"
    },
    {
      "channel": 3,
      "note": 81,
      "start": 59.3162,
      "duration": 0.061,
      "velocity": 95,
      "chip": "ym2612"
    },
    {
      "channel": 4,
      "note": 96,
      "start": 59.3222,
      "duration": 0.0198,
      "velocity": 100,
      "chip": "ym2612"
    },
    {
      "channel": 2,
      "note": 96,
      "start": 59.3642,
      "duration": 0.2134,
      "velocity": 95,
      "chip": "ym2612"
    },
    {
      "channel": 4,
      "note": 88,
      "start": 59.3666,
      "duration": 0.1942,
      "velocity": 95,
      "chip": "ym2612"
    },
    {
      "channel": 0,
      "note": 93,
      "start": 59.3691,
      "duration": 0.2249,
      "velocity": 95,
      "chip": "ym2612"
    },
    {
      "channel": 1,
      "note": 93,
      "start": 59.3726,
      "duration": 0.0215,
      "velocity": 100,
      "chip": "ym2612"
    },
    {
      "channel": 3,
      "note": 57,
      "start": 59.4472,
      "duration": 0.247,
      "velocity": 116,
      "chip": "ym2612"
    },
    {
      "channel": 5,
      "note": 45,
      "start": 59.4498,
      "duration": 0.1111,
      "velocity": 127,
      "chip": "ym2612"
    },
    {
      "channel": 4,
      "note": 81,
      "start": 59.5642,
      "duration": 0.1466,
      "velocity": 95,
      "chip": "ym2612"
    },
    {
      "channel": 1,
      "note": 98,
      "start": 59.5668,
      "duration": 0.0439,
      "velocity": 100,
      "chip": "ym2612"
    },
    {
      "channel": 5,
      "note": 45,
      "start": 59.6803,
      "duration": 0.1139,
      "velocity": 127,
      "chip": "ym2612"
    },
    {
      "channel": 0,
      "note": 96,
      "start": 59.6834,
      "duration": 0.2441,
      "velocity": 95,
      "chip": "ym2612"
    },
    {
      "channel": 2,
      "note": 88,
      "start": 59.6861,
      "duration": 0.2248,
      "velocity": 95,
      "chip": "ym2612"
    },
    {
      "channel": 1,
      "note": 93,
      "start": 59.6889,
      "duration": 0.2553,
      "velocity": 95,
      "chip": "ym2612"
    },
    {
      "channel": 3,
      "note": 57,
      "start": 59.7973,
      "duration": 0.0969,
      "velocity": 116,
      "chip": "ym2612"
    },
    {
      "channel": 4,
      "note": 96,
      "start": 59.8005,
      "duration": 0.0438,
      "velocity": 100,
      "chip": "ym2612"
    },
    {
      "channel": 3,
      "note": 60,
      "start": 59.9142,
      "duration": 0.2133,
      "velocity": 116,
      "chip": "ym2612"
    },
    {
      "channel": 5,
      "note": 45,
      "start": 59.9167,
      "duration": 0.1109,
      "velocity": 127,
      "chip": "ym2612"
    },
    {
      "channel": 2,
      "note": 81,
      "start": 59.9197,
      "duration": 0.1246,
      "velocity": 95,
      "chip": "ym2612"
    },
    {
      "channel": 4,
      "note": 99,
      "start": 59.9229,
      "duration": 0.0379,
      "velocity": 100,
      "chip": "ym2612"
    },
    {
      "channel": 0,
      "note": 88,
      "start": 60.0307,
      "duration": 0.1629,
      "velocity": 95,
      "chip": "ym2612"
    },
    {
      "channel": 1,
      "note": 96,
      "start": 60.0332,
      "duration": 0.1695,
      "velocity": 95,
      "chip": "ym2612"
    },
    {
      "channel": 4,
      "note": 93,
      "start": 60.0364,
      "duration": 0.1716,
      "velocity": 95,
      "chip": "ym2612"
    },
    {
      "channel": 3,
      "note": 57,
      "start": 60.1469,
      "duration": 0.0971,
      "velocity": 116,
      "chip": "ym2612"
    },
    {
      "channel": 5,
      "note": 45,
      "start": 60.1495,
      "duration": 0.0007,
      "velocity": 127,
      "chip": "ym2612"
    },
    {
      "channel": 2,
      "note": 100,
      "start": 60.1556,
      "duration": 0.0138,
      "velocity": 100,
      "chip": "ym2612"
    },
    {
      "channel": 2,
      "note": 45,
      "start": 60.1973,
      "duration": 0.0803,
      "velocity": 127,
      "chip": "ym2612"
    },
    {
      "channel": 0,
      "note": 81,
      "start": 60.1996,
      "duration": 0.0777,
      "velocity": 95,
      "chip": "ym2612"
    },
    {
      "channel": 3,
      "note": 55,
      "start": 60.2804,
      "duration": 0.1636,
      "velocity": 116,
      "chip": "ym2612"
    },
    {
      "channel": 0,
      "note": 88,
      "start": 60.2832,
      "duration": 0.1941,
      "velocity": 95,
      "chip": "ym2612"
    },
    {
      "channel": 1,
      "note": 93,
      "start": 60.2856,
      "duration": 0.2383,
      "velocity": 95,
      "chip": "ym2612"
    },
    {
      "channel": 4,
      "note": 96,
      "start": 60.2883,
      "duration": 0.2224,
      "velocity": 95,
      "chip": "ym2612"
    },
    {
      "channel": 5,
      "note": 103,
      "start": 60.2913,
      "duration": 0.0362,
      "velocity": 100,
      "chip": "ym2612"
    },
    {
      "channel": 3,
      "note": 57,
      "start": 60.5137,
      "duration": 0.1127,
      "velocity": 116,
      "chip": "ym2612"
    },
    {
      "channel": 2,
      "note": 45,
      "start": 60.5163,
      "duration": 0.0384,
      "velocity": 127,
      "chip": "ym2612"
    },
    {
      "channel": 0,
      "note": 77,
      "start": 60.5188,
      "duration": 0.0792,
      "velocity": 95,
      "chip": "ym2612"
    },
    {
      "channel": 0,
      "note": 89,
      "start": 60.6011,
      "duration": 0.1294,
      "velocity": 95,
      "chip": "ym2612"
    },
    {
      "channel": 1,
      "note": 96,
      "start": 60.6033,
      "duration": 0.1274,
      "velocity": 95,
      "chip": "ym2612"
    },
    {
      "channel": 4,
      "note": 93,
      "start": 60.6056,
      "duration": 0.1253,
      "velocity": 95,
      "chip": "ym2612"
    },
    {
      "channel": 2,
      "note": 93,
      "start": 60.609,
      "duration": 0.0176,
      "velocity": 100,
      "chip": "ym2612"
    },
    {
      "channel": 3,
      "note": 57,
      "start": 60.6468,
      "duration": 0.1627,
      "velocity": 116,
      "chip": "ym2612"
    },
    {
      "channel": 2,
      "note": 45,
      "start": 60.6493,
      "duration": 0.0981,
      "velocity": 127,
      "chip": "ym2612"
    },
    {
      "channel": 2,
      "note": 45,
      "start": 60.7505,
      "duration": 0.0459,
      "velocity": 127,
      "chip": "ym2612"
    },
    {
      "channel": 0,
      "note": 77,
      "start": 60.7531,
      "duration": 0.0525,
      "velocity": 95,
      "chip": "ym2612"
    },
    {
      "channel": 1,
      "note": 96,
      "start": 60.7591,
      "duration": 0.0192,
      "velocity": 100,
      "chip": "ym2612"
    },
    {
      "channel": 4,
      "note": 89,
      "start": 60.7998,
      "duration": 0.1978,
      "velocity": 95,
      "chip": "ym2612"
    },
    {
      "channel": 1,
      "note": 93,
      "start": 60.8021,
      "duration": 0.1954,
      "velocity": 95,
      "chip": "ym2612"
    },
    {
      "channel": 2,
      "note": 96,
      "start": 60.8048,
      "duration": 0.2096,
      "velocity": 95,
      "chip": "ym2612"
    },
    {
      "channel": 0,
      "note": 93,
      "start": 60.8075,
      "duration": 0.0232,
      "velocity": 100,
      "chip": "ym2612"
    },
    {
      "channel": 3,
      "note": 57,
      "start": 60.8838,
      "duration": 0.2971,
      "velocity": 116,
      "chip": "ym2612"
    },
    {
      "channel": 5,
      "note": 45,
      "start": 60.8863,
      "duration": 0.1115,
      "velocity": 127,
      "chip": "ym2612"
    },
    {
      "channel": 1,
      "note": 77,
      "start": 61.0014,
      "duration": 0.1295,
      "velocity": 95,
      "chip": "ym2612"
    },
    {
      "channel": 0,
      "note": 98,
      "start": 61.004,
      "duration": 0.06,
      "velocity": 100,
      "chip": "ym2612"
    },
    {
      "channel": 5,
      "note": 45,
      "start": 61.1172,
      "duration": 0.1137,
      "velocity": 127,
      "chip": "ym2612"
    },
    {
      "channel": 4,
      "note": 89,
      "start": 61.12,
      "duration": 0.2275,
      "velocity": 95,
      "chip": "ym2612"
    },
    {
      "channel": 2,
      "note": 93,
      "start": 61.1226,
      "duration": 0.2252,
      "velocity": 95,
      "chip": "ym2612"
    },
    {
      "channel": 0,
      "note": 96,
      "start": 61.1253,
      "duration": 0.2387,
      "velocity": 95,
      "chip": "ym2612"
    },
    {
      "channel": 3,
      "note": 57,
      "start": 61.2339,
      "duration": 0.0803,
      "velocity": 116,
      "chip": "ym2612"
    },
    {
      "channel": 5,
      "note": 45,
      "start": 61.2364,
      "duration": 0.1112,
      "velocity": 127,
      "chip": "ym2612"
    },
    {
      "channel": 1,
      "note": 96,
      "start": 61.2395,
      "duration": 0.058,
      "velocity": 100,
      "chip": "ym2612"
    },
    {
      "channel": 3,
      "note": 64,
      "start": 61.3511,
      "duration": 0.2132,
      "velocity": 116,
      "chip": "ym2612"
    },
    {
      "channel": 5,
      "note": 45,
      "start": 61.3536,
      "duration": 0.1106,
      "velocity": 127,
      "chip": "ym2612"
    },
    {
      "channel": 4,
      "note": 77,
      "start": 61.3564,
      "duration": 0.1245,
      "velocity": 95,
      "chip": "ym2612"
    },
    {
      "channel": 1,
      "note": 99,
      "start": 61.3592,
      "duration": 0.0383,
      "velocity": 100,
      "chip": "ym2612"
    },
    {
      "channel": 5,
      "note": 45,
      "start": 61.4671,
      "duration": 0.1138,
      "velocity": 127,
      "chip": "ym2612"
    },
    {
      "channel": 0,
      "note": 89,
      "start": 61.4698,
      "duration": 0.1612,
      "velocity": 95,
      "chip": "ym2612"
    },
    {
      "channel": 2,
      "note": 93,
      "start": 61.4723,
      "duration": 0.1589,
      "velocity": 95,
      "chip": "ym2612"
    },
    {
      "channel": 1,
      "note": 96,
      "start": 61.4755,
      "duration": 0.169,
      "velocity": 95,
      "chip": "ym2612"
    },
    {
      "channel": 3,
      "note": 63,
      "start": 61.5836,
      "duration": 0.1152,
      "velocity": 116,
      "chip": "ym2612"
    },
    {
      "channel": 5,
      "note": 45,
      "start": 61.5862,
      "duration": 0.0007,
      "velocity": 127,
      "chip": "ym2612"
    },
    {
      "channel": 4,
      "note": 98,
      "start": 61.5929,
      "duration": 0.0134,
      "velocity": 100,
      "chip": "ym2612"
    },
    {
      "channel": 0,
      "note": 77,
      "start": 61.6349,
      "duration": 0.0804,
      "velocity": 95,
      "chip": "ym2612"
    },
    {
      "channel": 3,
      "note": 62,
      "start": 61.7181,
      "duration": 0.2139,
      "velocity": 116,
      "chip": "ym2612"
    },
    {
      "channel": 0,
      "note": 89,
      "start": 61.7209,
      "duration": 0.1611,
      "velocity": 95,
      "chip": "ym2612"
    },
    {
      "channel": 1,
      "note": 93,
      "start": 61.7234,
      "duration": 0.1752,
      "velocity": 95,
      "chip": "ym2612"
    },
    {
      "channel": 2,
      "note": 96,
      "start": 61.7262,
      "duration": 0.2061,
      "velocity": 95,
      "chip": "ym2612"
    },
    {
      "channel": 3,
      "note": 57,
      "start": 61.9517,
      "duration": 0.1027,
      "velocity": 116,
      "chip": "ym2612"
    },
    {
      "channel": 4,
      "note": 45,
      "start": 61.9545,
      "duration": 0.0452,
      "velocity": 127,
      "chip": "ym2612"
    },
    {
      "channel": 0,
      "note": 78,
      "start": 61.957,
      "duration": 0.0943,
      "velocity": 95,
      "chip": "ym2612"
    },
    {
      "channel": 1,
      "note": 93,
      "start": 62.0447,
      "duration": 0.1581,
      "velocity": 95,
      "chip": "ym2612"
    },
    {
      "channel": 2,
      "note": 98,
      "start": 62.0471,
      "duration": 0.1227,
      "velocity": 95,
      "chip": "ym2612"
    },
    {
      "channel": 4,
      "note": 90,
      "start": 62.0506,
      "duration": 0.119,
      "velocity": 95,
      "chip": "ym2612"
    },
    {
      "channel": 0,
      "note": 93,
      "start": 62.0533,
      "duration": 0.0122,
      "velocity": 100,
      "chip": "ym2612"
    },
    {
      "channel": 3,
      "note": 57,
      "start": 62.0918,
      "duration": 0.1729,
      "velocity": 116,
      "chip": "ym2612"
    },
    {
      "channel": 0,
      "note": 45,
      "start": 62.0951,
      "duration": 0.1076,
      "velocity": 127,
      "chip": "ym2612"
    },
    {
      "channel": 0,
      "note": 45,
      "start": 62.2061,
      "duration": 0.0412,
      "velocity": 127,
      "chip": "ym2612"
    },
    {
      "channel": 1,
      "note": 78,
      "start": 62.2088,
      "duration": 0.0558,
      "velocity": 95,
      "chip": "ym2612"
    },
    {
      "channel": 4,
      "note": 96,
      "start": 62.2148,
      "duration": 0.0139,
      "velocity": 100,
      "chip": "ym2612"
    },
    {
      "channel": 2,
      "note": 90,
      "start": 62.2505,
      "duration": 0.1885,
      "velocity": 95,
      "chip": "ym2612"
    },
    {
      "channel": 4,
      "note": 98,
      "start": 62.2529,
      "duration": 0.1859,
      "velocity": 95,
      "chip": "ym2612"
    },
    {
      "channel": 0,
      "note": 93,
      "start": 62.2564,
      "duration": 0.001,
      "velocity": 95,
      "chip": "ym2612"
    },
    {
      "channel": 0,
      "note": 93,
      "start": 62.2593,
      "duration": 0.0178,
      "velocity": 100,
      "chip": "ym2612"
    },
    {
      "channel": 3,
      "note": 57,
      "start": 62.3248,
      "duration": 0.2805,
      "velocity": 116,
      "chip": "ym2612"
    },
    {
      "channel": 1,
      "note": 45,
      "start": 62.3274,
      "duration": 0.1112,
      "velocity": 127,
      "chip": "ym2612"
    },
    {
      "channel": 4,
      "note": 78,
      "start": 62.4425,
      "duration": 0.1296,
      "velocity": 95,
      "chip": "ym2612"
    },
    {
      "channel": 0,
      "note": 98,
      "start": 62.4451,
      "duration": 0.06,
      "velocity": 100,
      "chip": "ym2612"
    },
    {
      "channel": 1,
      "note": 45,
      "start": 62.558,
      "duration": 0.1139,
      "velocity": 127,
      "chip": "ym2612"
    },
    {
      "channel": 2,
      "note": 90,
      "start": 62.561,
      "duration": 0.2112,
      "velocity": 95,
      "chip": "ym2612"
    },
    {
      "channel": 5,
      "note": 98,
      "start": 62.5635,
      "duration": 0.2086,
      "velocity": 95,
      "chip": "ym2612"
    },
    {
      "channel": 0,
      "note": 93,
      "start": 62.5663,
      "duration": 0.2223,
      "velocity": 95,
      "chip": "ym2612"
    },
    {
      "channel": 3,
      "note": 57,
      "start": 62.675,
      "duration": 0.0802,
      "velocity": 116,
      "chip": "ym2612"
    },
    {
      "channel": 4,
      "note": 96,
      "start": 62.6783,
      "duration": 0.0604,
      "velocity": 100,
      "chip": "ym2612"
    },
    {
      "channel": 3,
      "note": 60,
      "start": 62.7921,
      "duration": 0.2132,
      "velocity": 116,
      "chip": "ym2612"
    },
    {
      "channel": 1,
      "note": 45,
      "start": 62.7945,
      "duration": 0.1109,
      "velocity": 127,
      "chip": "ym2612"
    },
    {
      "channel": 0,
      "note": 78,
      "start": 62.7972,
      "duration": 0.1081,
      "velocity": 95,
      "chip": "ym2612"
    },
    {
      "channel": 4,
      "note": 99,
      "start": 62.8,
      "duration": 0.0554,
      "velocity": 100,
      "chip": "ym2612"
    },
    {
      "channel": 0,
      "note": 90,
      "start": 62.9087,
      "duration": 0.1564,
      "velocity": 95,
      "chip": "ym2612"
    },
    {
      "channel": 5,
      "note": 93,
      "start": 62.9117,
      "duration": 0.1162,
      "velocity": 95,
      "chip": "ym2612"
    },
    {
      "channel": 2,
      "note": 98,
      "start": 62.9145,
      "duration": 0.1508,
      "velocity": 95,
      "chip": "ym2612"
    },
    {
      "channel": 3,
      "note": 57,
      "start": 63.0246,
      "duration": 0.1142,
      "velocity": 116,
      "chip": "ym2612"
    },
    {
      "channel": 1,
      "note": 45,
      "start": 63.0271,
      "duration": 0.0443,
      "velocity": 127,
      "chip": "ym2612"
    },
    {
      "channel": 4,
      "note": 100,
      "start": 63.0332,
      "duration": 0.0196,
      "velocity": 100,
      "chip": "ym2612"
    },
    {
      "channel": 1,
      "note": 45,
      "start": 63.0751,
      "duration": 0.0803,
      "velocity": 127,
      "chip": "ym2612"
    },
    {
      "channel": 0,
      "note": 78,
      "start": 63.0773,
      "duration": 0.1114,
      "velocity": 95,
      "chip": "ym2612"
    },
    {
      "channel": 3,
      "note": 55,
      "start": 63.1583,
      "duration": 0.1638,
      "velocity": 116,
      "chip": "ym2612"
    },
    {
      "channel": 2,
      "note": 93,
      "start": 63.1614,
      "duration": 0.211,
      "velocity": 95,
      "chip": "ym2612"
    },
    {
      "channel": 4,
      "note": 90,
      "start": 63.1639,
      "duration": 0.2082,
      "velocity": 95,
      "chip": "ym2612"
    },
    {
      "channel": 5,
      "note": 98,
      "start": 63.1666,
      "duration": 0.2056,
      "velocity": 95,
      "chip": "ym2612"
    },
    {
      "channel": 1,
      "note": 103,
      "start": 63.1696,
      "duration": 0.0358,
      "velocity": 100,
      "chip": "ym2612"
    },
    {
      "channel": 3,
      "note": 52,
      "start": 63.3918,
      "duration": 0.1063,
      "velocity": 116,
      "chip": "ym2612"
    },
    {
      "channel": 0,
      "note": 45,
      "start": 63.3944,
      "duration": 0.0449,
      "velocity": 127,
      "chip": "ym2612"
    },
    {
      "channel": 4,
      "note": 76,
      "start": 63.3971,
      "duration": 0.0976,
      "velocity": 95,
      "chip": "ym2612"
    },
    {
      "channel": 2,
      "note": 97,
      "start": 63.485,
      "duration": 0.1397,
      "velocity": 95,
      "chip": "ym2612"
    },
    {
      "channel": 1,
      "note": 88,
      "start": 63.4882,
      "duration": 0.1362,
      "velocity": 95,
      "chip": "ym2612"
    },
    {
      "channel": 0,
      "note": 92,
      "start": 63.4908,
      "duration": 0.0009,
      "velocity": 95,
      "chip": "ym2612"
    },
    {
      "channel": 0,
      "note": 105,
      "start": 63.4936,
      "duration": 0.011,
      "velocity": 100,
      "chip": "ym2612"
    },
    {
      "channel": 3,
      "note": 52,
      "start": 63.5302,
      "duration": 0.1742,
      "velocity": 116,
      "chip": "ym2612"
    },
    {
      "channel": 4,
      "note": 45,
      "start": 63.5337,
      "duration": 0.1075,
      "velocity": 127,
      "chip": "ym2612"
    },
    {
      "channel": 4,
      "note": 45,
      "start": 63.6443,
      "duration": 0.0463,
      "velocity": 127,
      "chip": "ym2612"
    },
    {
      "channel": 1,
      "note": 76,
      "start": 63.647,
      "duration": 0.0612,
      "velocity": 95,
      "chip": "ym2612"
    },
    {
      "channel": 0,
      "note": 103,
      "start": 63.6528,
      "duration": 0.014,
      "velocity": 100,
      "chip": "ym2612"
    },
    {
      "channel": 2,
      "note": 92,
      "start": 63.6945,
      "duration": 0.2144,
      "velocity": 95,
      "chip": "ym2612"
    },
    {
      "channel": 0,
      "note": 88,
      "start": 63.6968,
      "duration": 0.0045,
      "velocity": 95,
      "chip": "ym2612"
    },
    {
      "channel": 4,
      "note": 97,
      "start": 63.6996,
      "duration": 0.1926,
      "velocity": 95,
      "chip": "ym2612"
    },
    {
      "channel": 0,
      "note": 100,
      "start": 63.7033,
      "duration": 0.0107,
      "velocity": 100,
      "chip": "ym2612"
    },
    {
      "channel": 3,
      "note": 52,
      "start": 63.7783,
      "duration": 0.2637,
      "velocity": 116,
      "chip": "ym2612"
    },
    {
      "channel": 1,
      "note": 45,
      "start": 63.7808,
      "duration": 0.1112,
      "velocity": 127,
      "chip": "ym2612"
    },
    {
      "channel": 4,
      "note": 76,
      "start": 63.8955,
      "duration": 0.13,
      "velocity": 95,
      "chip": "ym2612"
    },
    {
      "channel": 0,
      "note": 103,
      "start": 63.8981,
      "duration": 0.0438,
      "velocity": 100,
      "chip": "ym2612"
    },
    {
      "channel": 1,
      "note": 45,
      "start": 64.012,
      "duration": 0.0966,
      "velocity": 127,
      "chip": "ym2612"
    },
    {
      "channel": 2,
      "note": 95,
      "start": 64.015,
      "duration": 0.1939,
      "velocity": 95,
      "chip": "ym2612"
    },
    {
      "channel": 5,
      "note": 88,
      "start": 64.0175,
      "duration": 0.1913,
      "velocity": 95,
      "chip": "ym2612"
    },
    {
      "channel": 0,
      "note": 92,
      "start": 64.0202,
      "duration": 0.205,
      "velocity": 95,
      "chip": "ym2612"
    },
    {
      "channel": 3,
      "note": 52,
      "start": 64.1117,
      "duration": 0.0636,
      "velocity": 116,
      "chip": "ym2612"
    },
    {
      "channel": 1,
      "note": 45,
      "start": 64.1141,
      "duration": 0.1113,
      "velocity": 127,
      "chip": "ym2612"
    },
    {
      "channel": 4,
      "note": 100,
      "start": 64.1172,
      "duration": 0.0582,
      "velocity": 100,
      "chip": "ym2612"
    },
    {
      "channel": 3,
      "note": 52,
      "start": 64.2289,
      "duration": 0.213,
      "velocity": 116,
      "chip": "ym2612"
    },
    {
      "channel": 1,
      "note": 45,
      "start": 64.2313,
      "duration": 0.1107,
      "velocity": 127,
      "chip": "ym2612"
    },
    {
      "channel": 0,
      "note": 76,
      "start": 64.2339,
      "duration": 0.1413,
      "velocity": 95,
      "chip": "ym2612"
    },
    {
      "channel": 4,
      "note": 98,
      "start": 64.2368,
      "duration": 0.0553,
      "velocity": 100,
      "chip": "ym2612"
    },
    {
      "channel": 1,
      "note": 45,
      "start": 64.3448,
      "duration": 0.1139,
      "velocity": 127,
      "chip": "ym2612"
    },
    {
      "channel": 5,
      "note": 88,
      "start": 64.348,
      "duration": 0.1167,
      "velocity": 95,
      "chip": "ym2612"
    },
    {
      "channel": 2,
      "note": 92,
      "start": 64.3507,
      "duration": 0.1663,
      "velocity": 95,
      "chip": "ym2612"
    },
    {
      "channel": 4,
      "note": 95,
      "start": 64.3533,
      "duration": 0.1635,
      "velocity": 95,
      "chip": "ym2612"
    },
    {
      "channel": 3,
      "note": 55,
      "start": 64.4615,
      "duration": 0.1156,
      "velocity": 116,
      "chip": "ym2612"
    },
    {
      "channel": 1,
      "note": 45,
      "start": 64.464,
      "duration": 0.0448,
      "velocity": 127,
      "chip": "ym2612"
    },
    {
      "channel": 0,
      "note": 96,
      "start": 64.4704,
      "duration": 0.02,
      "velocity": 100,
      "chip": "ym2612"
    },
    {
      "channel": 0,
      "note": 76,
      "start": 64.5129,
      "duration": 0.1308,
      "velocity": 95,
      "chip": "ym2612"
    },
    {
      "channel": 3,
      "note": 56,
      "start": 64.5965,
      "duration": 0.2139,
      "velocity": 116,
      "chip": "ym2612"
    },
    {
      "channel": 4,
      "note": 95,
      "start": 64.5994,
      "duration": 0.1778,
      "velocity": 95,
      "chip": "ym2612"
    },
    {
      "channel": 2,
      "note": 92,
      "start": 64.6021,
      "duration": 0.1919,
      "velocity": 95,
      "chip": "ym2612"
    },
    {
      "channel": 1,
      "note": 88,
      "start": 64.6048,
      "duration": 0.1889,
      "velocity": 95,
      "chip": "ym2612"
    },
    {
      "channel": 3,
      "note": 57,
      "start": 64.8301,
      "duration": 0.092,
      "velocity": 116,
      "chip": "ym2612"
    },
    {
      "channel": 5,
      "note": 45,
      "start": 64.8328,
      "duration": 0.0034,
      "velocity": 127,
      "chip": "ym2612"
    },
    {
      "channel": 0,
      "note": 81,
      "start": 64.8357,
      "duration": 0.0984,
      "velocity": 95,
      "chip": "ym2612"
    },
    {
      "channel": 1,
      "note": 96,
      "start": 64.925,
      "duration": 0.1583,
      "velocity": 95,
      "chip": "ym2612"
    },
    {
      "channel": 4,
      "note": 93,
      "start": 64.9272,
      "duration": 0.1564,
      "velocity": 95,
      "chip": "ym2612"
    },
    {
      "channel": 2,
      "note": 88,
      "start": 64.9304,
      "duration": 0.1534,
      "velocity": 95,
      "chip": "ym2612"
    },
    {
      "channel": 3,
      "note": 93,
      "start": 64.9331,
      "duration": 0.0185,
      "velocity": 100,
      "chip": "ym2612"
    },
    {
      "channel": 0,
      "note": 57,
      "start": 64.9729,
      "duration": 0.1538,
      "velocity": 116,
      "chip": "ym2612"
    },
    {
      "channel": 3,
      "note": 45,
      "start": 64.9763,
      "duration": 0.1071,
      "velocity": 127,
      "chip": "ym2612"
    },
    {
      "channel": 3,
      "note": 45,
      "start": 65.0867,
      "duration": 0.0463,
      "velocity": 127,
      "chip": "ym2612"
    },
    {
      "channel": 1,
      "note": 81,
      "start": 65.0894,
      "duration": 0.0602,
      "velocity": 95,
      "chip": "ym2612"
    },
    {
      "channel": 4,
      "note": 96,
      "start": 65.0955,
      "duration": 0.0133,
      "velocity": 100,
      "chip": "ym2612"
    },
    {
      "channel": 2,
      "note": 96,
      "start": 65.137,
      "duration": 0.2135,
      "velocity": 95,
      "chip": "ym2612"
    },
    {
      "channel": 4,
      "note": 88,
      "start": 65.1392,
      "duration": 0.1945,
      "velocity": 95,
      "chip": "ym2612"
    },
    {
      "channel": 0,
      "note": 93,
      "start": 65.142,
      "duration": 0.2249,
      "velocity": 95,
      "chip": "ym2612"
    },
    {
      "channel": 3,
      "note": 93,
      "start": 65.1458,
      "duration": 0.0095,
      "velocity": 100,
      "chip": "ym2612"
    },
    {
      "channel": 1,
      "note": 57,
      "start": 65.2198,
      "duration": 0.2138,
      "velocity": 116,
      "chip": "ym2612"
    },
    {
      "channel": 3,
      "note": 45,
      "start": 65.2224,
      "duration": 0.1113,
      "velocity": 127,
      "chip": "ym2612"
    },
    {
      "channel": 4,
      "note": 81,
      "start": 65.3371,
      "duration": 0.1467,
      "velocity": 95,
      "chip": "ym2612"
    },
    {
      "channel": 5,
      "note": 98,
      "start": 65.34,
      "duration": 0.0438,
      "velocity": 100,
      "chip": "ym2612"
    },
    {
      "channel": 3,
      "note": 45,
      "start": 65.453,
      "duration": 0.114,
      "velocity": 127,
      "chip": "ym2612"
    },
    {
      "channel": 0,
      "note": 96,
      "start": 65.4557,
      "duration": 0.2445,
      "velocity": 95,
      "chip": "ym2612"
    },
    {
      "channel": 2,
      "note": 88,
      "start": 65.4584,
      "duration": 0.2254,
      "velocity": 95,
      "chip": "ym2612"
    },
    {
      "channel": 5,
      "note": 93,
      "start": 65.4612,
      "duration": 0.2559,
      "velocity": 95,
      "chip": "ym2612"
    },
    {
      "channel": 1,
      "note": 57,
      "start": 65.57,
      "duration": 0.0636,
      "velocity": 116,
      "chip": "ym2612"
    },
    {
      "channel": 4,
      "note": 96,
      "start": 65.5733,
      "duration": 0.0438,
      "velocity": 100,
      "chip": "ym2612"
    },
    {
      "channel": 1,
      "note": 60,
      "start": 65.6867,
      "duration": 0.197,
      "velocity": 116,
      "chip": "ym2612"
    },
    {
      "channel": 3,
      "note": 45,
      "start": 65.6891,
      "duration": 0.1112,
      "velocity": 127,
      "chip": "ym2612"
    },
    {
      "channel": 2,
      "note": 81,
      "start": 65.6921,
      "duration": 0.125,
      "velocity": 95,
      "chip": "ym2612"
    },
    {
      "channel": 4,
      "note": 99,
      "start": 65.695,
      "duration": 0.0388,
      "velocity": 100,
      "chip": "ym2612"
    },
    {
      "channel": 0,
      "note": 88,
      "start": 65.8039,
      "duration": 0.1563,
      "velocity": 95,
      "chip": "ym2612"
    },
    {
      "channel": 5,
      "note": 96,
      "start": 65.8066,
      "duration": 0.1167,
      "velocity": 95,
      "chip": "ym2612"
    },
    {
      "channel": 4,
      "note": 93,
      "start": 65.8093,
      "duration": 0.1709,
      "velocity": 95,
      "chip": "ym2612"
    },
    {
      "channel": 1,
      "note": 57,
      "start": 65.9197,
      "duration": 0.0968,
      "velocity": 116,
      "chip": "ym2612"
    },
    {
      "channel": 3,
      "note": 45,
      "start": 65.9226,
      "duration": 0.0378,
      "velocity": 127,
      "chip": "ym2612"
    },
    {
      "channel": 2,
      "note": 100,
      "start": 65.9288,
      "duration": 0.0137,
      "velocity": 100,
      "chip": "ym2612"
    },
    {
      "channel": 3,
      "note": 45,
      "start": 65.9629,
      "duration": 0.0703,
      "velocity": 127,
      "chip": "ym2612"
    },
    {
      "channel": 0,
      "note": 81,
      "start": 65.9651,
      "duration": 0.0679,
      "velocity": 95,
      "chip": "ym2612"
    },
    {
      "channel": 1,
      "note": 55,
      "start": 66.0364,
      "duration": 0.18,
      "velocity": 116,
      "chip": "ym2612"
    },
    {
      "channel": 0,
      "note": 88,
      "start": 66.0392,
      "duration": 0.2106,
      "velocity": 95,
      "chip": "ym2612"
    },
    {
      "channel": 4,
      "note": 93,
      "start": 66.0418,
      "duration": 0.238,
      "velocity": 95,
      "chip": "ym2612"
    },
    {
      "channel": 2,
      "note": 96,
      "start": 66.045,
      "duration": 0.2216,
      "velocity": 95,
      "chip": "ym2612"
    },
    {
      "channel": 5,
      "note": 103,
      "start": 66.048,
      "duration": 0.0519,
      "velocity": 100,
      "chip": "ym2612"
    },
    {
      "channel": 1,
      "note": 57,
      "start": 66.2695,
      "duration": 0.1017,
      "velocity": 116,
      "chip": "ym2612"
    },
    {
      "channel": 3,
      "note": 45,
      "start": 66.2719,
      "duration": 0.0444,
      "velocity": 127,
      "chip": "ym2612"
    },
    {
      "channel": 0,
      "note": 77,
      "start": 66.2743,
      "duration": 0.0849,
      "velocity": 95,
      "chip": "ym2612"
    },
    {
      "channel": 0,
      "note": 89,
      "start": 66.362,
      "duration": 0.1422,
      "velocity": 95,
      "chip": "ym2612"
    },
    {
      "channel": 4,
      "note": 96,
      "start": 66.3642,
      "duration": 0.1402,
      "velocity": 95,
      "chip": "ym2612"
    },
    {
      "channel": 2,
      "note": 93,
      "start": 66.3674,
      "duration": 0.1372,
      "velocity": 95,
      "chip": "ym2612"
    },
    {
      "channel": 3,
      "note": 93,
      "start": 66.3701,
      "duration": 0.0183,
      "velocity": 100,
      "chip": "ym2612"
    },
    {
      "channel": 1,
      "note": 57,
      "start": 66.4098,
      "duration": 0.16,
      "velocity": 116,
      "chip": "ym2612"
    },
    {
      "channel": 3,
      "note": 45,
      "start": 66.4135,
      "duration": 0.1074,
      "velocity": 127,
      "chip": "ym2612"
    },
    {
      "channel": 3,
      "note": 45,
      "start": 66.524,
      "duration": 0.0459,
      "velocity": 127,
      "chip": "ym2612"
    },
    {
      "channel": 0,
      "note": 77,
      "start": 66.5266,
      "duration": 0.0567,
      "velocity": 95,
      "chip": "ym2612"
    },
    {
      "channel": 4,
      "note": 96,
      "start": 66.5327,
      "duration": 0.0192,
      "velocity": 100,
      "chip": "ym2612"
    },
    {
      "channel": 2,
      "note": 89,
      "start": 66.5738,
      "duration": 0.1978,
      "velocity": 95,
      "chip": "ym2612"
    },
    {
      "channel": 4,
      "note": 93,
      "start": 66.5763,
      "duration": 0.1951,
      "velocity": 95,
      "chip": "ym2612"
    },
    {
      "channel": 1,
      "note": 96,
      "start": 66.5787,
      "duration": 0.2093,
      "velocity": 95,
      "chip": "ym2612"
    },
    {
      "channel": 3,
      "note": 93,
      "start": 66.5823,
      "duration": 0.0223,
      "velocity": 100,
      "chip": "ym2612"
    },
    {
      "channel": 0,
      "note": 57,
      "start": 66.6575,
      "duration": 0.2303,
      "velocity": 116,
      "chip": "ym2612"
    },
    {
      "channel": 5,
      "note": 45,
      "start": 66.6601,
      "duration": 0.1115,
      "velocity": 127,
      "chip": "ym2612"
    },
    {
      "channel": 4,
      "note": 77,
      "start": 66.7748,
      "duration": 0.1298,
      "velocity": 95,
      "chip": "ym2612"
    },
    {
      "channel": 3,
      "note": 98,
      "start": 66.7779,
      "duration": 0.0434,
      "velocity": 100,
      "chip": "ym2612"
    },
    {
      "channel": 5,
      "note": 45,
      "start": 66.891,
      "duration": 0.1137,
      "velocity": 127,
      "chip": "ym2612"
    },
    {
      "channel": 1,
      "note": 89,
      "start": 66.8937,
      "duration": 0.2274,
      "velocity": 95,
      "chip": "ym2612"
    },
    {
      "channel": 2,
      "note": 93,
      "start": 66.8963,
      "duration": 0.2253,
      "velocity": 95,
      "chip": "ym2612"
    },
    {
      "channel": 3,
      "note": 96,
      "start": 66.8991,
      "duration": 0.2389,
      "velocity": 95,
      "chip": "ym2612"
    },
    {
      "channel": 0,
      "note": 57,
      "start": 67.0076,
      "duration": 0.0802,
      "velocity": 116,
      "chip": "ym2612"
    },
    {
      "channel": 5,
      "note": 45,
      "start": 67.0101,
      "duration": 0.1112,
      "velocity": 127,
      "chip": "ym2612"
    },
    {
      "channel": 4,
      "note": 96,
      "start": 67.0132,
      "duration": 0.0414,
      "velocity": 100,
      "chip": "ym2612"
    },
    {
      "channel": 0,
      "note": 64,
      "start": 67.1243,
      "duration": 0.2136,
      "velocity": 116,
      "chip": "ym2612"
    },
    {
      "channel": 5,
      "note": 45,
      "start": 67.1269,
      "duration": 0.1112,
      "velocity": 127,
      "chip": "ym2612"
    },
    {
      "channel": 1,
      "note": 77,
      "start": 67.13,
      "duration": 0.1246,
      "velocity": 95,
      "chip": "ym2612"
    },
    {
      "channel": 4,
      "note": 99,
      "start": 67.1328,
      "duration": 0.0384,
      "velocity": 100,
      "chip": "ym2612"
    },
    {
      "channel": 5,
      "note": 45,
      "start": 67.2409,
      "duration": 0.1138,
      "velocity": 127,
      "chip": "ym2612"
    },
    {
      "channel": 3,
      "note": 89,
      "start": 67.2437,
      "duration": 0.1606,
      "velocity": 95,
      "chip": "ym2612"
    },
    {
      "channel": 2,
      "note": 93,
      "start": 67.2463,
      "duration": 0.1582,
      "velocity": 95,
      "chip": "ym2612"
    },
    {
      "channel": 4,
      "note": 96,
      "start": 67.249,
      "duration": 0.169,
      "velocity": 95,
      "chip": "ym2612"
    },
    {
      "channel": 0,
      "note": 63,
      "start": 67.3573,
      "duration": 0.0982,
      "velocity": 116,
      "chip": "ym2612"
    },
    {
      "channel": 5,
      "note": 45,
      "start": 67.3599,
      "duration": 0.0007,
      "velocity": 127,
      "chip": "ym2612"
    },
    {
      "channel": 1,
      "note": 98,
      "start": 67.3662,
      "duration": 0.014,
      "velocity": 100,
      "chip": "ym2612"
    },
    {
      "channel": 3,
      "note": 77,
      "start": 67.408,
      "duration": 0.0809,
      "velocity": 95,
      "chip": "ym2612"
    },
    {
      "channel": 0,
      "note": 62,
      "start": 67.492,
      "duration": 0.1468,
      "velocity": 116,
      "chip": "ym2612"
    },
    {
      "channel": 3,
      "note": 89,
      "start": 67.4949,
      "duration": 0.1606,
      "velocity": 95,
      "chip": "ym2612"
    },
    {
      "channel": 4,
      "note": 93,
      "start": 67.4974,
      "duration": 0.1748,
      "velocity": 95,
      "chip": "ym2612"
    },
    {
      "channel": 2,
      "note": 96,
      "start": 67.5006,
      "duration": 0.1883,
      "velocity": 95,
      "chip": "ym2612"
    },
    {
      "channel": 0,
      "note": 57,
      "start": 67.7251,
      "duration": 0.0732,
      "velocity": 116,
      "chip": "ym2612"
    },
    {
      "channel": 1,
      "note": 45,
      "start": 67.7282,
      "duration": 0.0391,
      "velocity": 127,
      "chip": "ym2612"
    },
    {
      "channel": 3,
      "note": 78,
      "start": 67.7308,
      "duration": 0.097,
      "velocity": 95,
      "chip": "ym2612"
    },
    {
      "channel": 4,
      "note": 93,
      "start": 67.8147,
      "duration": 0.1464,
      "velocity": 95,
      "chip": "ym2612"
    },
    {
      "channel": 2,
      "note": 98,
      "start": 67.8171,
      "duration": 0.1273,
      "velocity": 95,
      "chip": "ym2612"
    },
    {
      "channel": 1,
      "note": 90,
      "start": 67.8195,
      "duration": 0.1247,
      "velocity": 95,
      "chip": "ym2612"
    },
    {
      "channel": 0,
      "note": 93,
      "start": 67.8231,
      "duration": 0.0175,
      "velocity": 100,
      "chip": "ym2612"
    },
    {
      "channel": 3,
      "note": 57,
      "start": 67.861,
      "duration": 0.1431,
      "velocity": 116,
      "chip": "ym2612"
    },
    {
      "channel": 0,
      "note": 45,
      "start": 67.8633,
      "duration": 0.0976,
      "velocity": 127,
      "chip": "ym2612"
    },
    {
      "channel": 0,
      "note": 45,
      "start": 67.9639,
      "duration": 0.0463,
      "velocity": 127,
      "chip": "ym2612"
    },
    {
      "channel": 1,
      "note": 78,
      "start": 67.9667,
      "duration": 0.0575,
      "velocity": 95,
      "chip": "ym2612"
    },
    {
      "channel": 2,
      "note": 96,
      "start": 67.9728,
      "duration": 0.0195,
      "velocity": 100,
      "chip": "ym2612"
    },
    {
      "channel": 4,
      "note": 90,
      "start": 68.0146,
      "duration": 0.1967,
      "velocity": 95,
      "chip": "ym2612"
    },
    {
      "channel": 2,
      "note": 98,
      "start": 68.0169,
      "duration": 0.1946,
      "velocity": 95,
      "chip": "ym2612"
    },
    {
      "channel": 3,
      "note": 93,
      "start": 68.0195,
      "duration": 0.2085,
      "velocity": 95,
      "chip": "ym2612"
    },
    {
      "channel": 0,
      "note": 93,
      "start": 68.023,
      "duration": 0.0214,
      "velocity": 100,
      "chip": "ym2612"
    },
    {
      "channel": 1,
      "note": 57,
      "start": 68.0976,
      "duration": 0.2302,
      "velocity": 116,
      "chip": "ym2612"
    },
    {
      "channel": 5,
      "note": 45,
      "start": 68.1002,
      "duration": 0.1111,
      "velocity": 127,
      "chip": "ym2612"
    },
    {
      "channel": 4,
      "note": 78,
      "start": 68.2148,
      "duration": 0.1299,
      "velocity": 95,
      "chip": "ym2612"
    },
    {
      "channel": 0,
      "note": 98,
      "start": 68.2173,
      "duration": 0.0605,
      "velocity": 100,
      "chip": "ym2612"
    },
    {
      "channel": 5,
      "note": 45,
      "start": 68.3309,
      "duration": 0.1137,
      "velocity": 127,
      "chip": "ym2612"
    },
    {
      "channel": 3,
      "note": 90,
      "start": 68.3337,
      "duration": 0.211,
      "velocity": 95,
      "chip": "ym2612"
    },
    {
      "channel": 2,
      "note": 98,
      "start": 68.3363,
      "duration": 0.2087,
      "velocity": 95,
      "chip": "ym2612"
    },
    {
      "channel": 0,
      "note": 93,
      "start": 68.3391,
      "duration": 0.2221,
      "velocity": 95,
      "chip": "ym2612"
    },
    {
      "channel": 1,
      "note": 57,
      "start": 68.4476,
      "duration": 0.097,
      "velocity": 116,
      "chip": "ym2612"
    },
    {
      "channel": 4,
      "note": 96,
      "start": 68.4508,
      "duration": 0.0605,
      "velocity": 100,
      "chip": "ym2612"
    },
    {
      "channel": 1,
      "note": 60,
      "start": 68.5643,
      "duration": 0.2136,
      "velocity": 116,
      "chip": "ym2612"
    },
    {
      "channel": 5,
      "note": 45,
      "start": 68.5668,
      "duration": 0.1114,
      "velocity": 127,
      "chip": "ym2612"
    },
    {
      "channel": 0,
      "note": 78,
      "start": 68.5698,
      "duration": 0.108,
      "velocity": 95,
      "chip": "ym2612"
    },
    {
      "channel": 4,
      "note": 99,
      "start": 68.5731,
      "duration": 0.0549,
      "velocity": 100,
      "chip": "ym2612"
    },
    {
      "channel": 0,
      "note": 90,
      "start": 68.6813,
      "duration": 0.1579,
      "velocity": 95,
      "chip": "ym2612"
    },
    {
      "channel": 3,
      "note": 93,
      "start": 68.6838,
      "duration": 0.1615,
      "velocity": 95,
      "chip": "ym2612"
    },
    {
      "channel": 2,
      "note": 98,
      "start": 68.6866,
      "duration": 0.1528,
      "velocity": 95,
      "chip": "ym2612"
    },
    {
      "channel": 1,
      "note": 57,
      "start": 68.7972,
      "duration": 0.1151,
      "velocity": 116,
      "chip": "ym2612"
    },
    {
      "channel": 5,
      "note": 45,
      "start": 68.7999,
      "duration": 0.001,
      "velocity": 127,
      "chip": "ym2612"
    },
    {
      "channel": 4,
      "note": 100,
      "start": 68.8063,
      "duration": 0.0143,
      "velocity": 100,
      "chip": "ym2612"
    },
    {
      "channel": 4,
      "note": 45,
      "start": 68.8489,
      "duration": 0.0801,
      "velocity": 127,
      "chip": "ym2612"
    },
    {
      "channel": 0,
      "note": 78,
      "start": 68.8511,
      "duration": 0.1112,
      "velocity": 95,
      "chip": "ym2612"
    },
    {
      "channel": 1,
      "note": 55,
      "start": 68.9322,
      "duration": 0.1634,
      "velocity": 116,
      "chip": "ym2612"
    },
    {
      "channel": 3,
      "note": 93,
      "start": 68.9354,
      "duration": 0.2103,
      "velocity": 95,
      "chip": "ym2612"
    },
    {
      "channel": 2,
      "note": 90,
      "start": 68.9379,
      "duration": 0.2081,
      "velocity": 95,
      "chip": "ym2612"
    },
    {
      "channel": 5,
      "note": 98,
      "start": 68.9406,
      "duration": 0.2052,
      "velocity": 95,
      "chip": "ym2612"
    },
    {
      "channel": 4,
      "note": 103,
      "start": 68.9436,
      "duration": 0.0354,
      "velocity": 100,
      "chip": "ym2612"
    },
    {
      "channel": 1,
      "note": 52,
      "start": 69.1652,
      "duration": 0.1024,
      "velocity": 116,
      "chip": "ym2612"
    },
    {
      "channel": 0,
      "note": 45,
      "start": 69.1678,
      "duration": 0.0448,
      "velocity": 127,
      "chip": "ym2612"
    },
    {
      "channel": 3,
      "note": 76,
      "start": 69.1705,
      "duration": 0.0973,
      "velocity": 95,
      "chip": "ym2612"
    },
    {
      "channel": 2,
      "note": 97,
      "start": 69.258,
      "duration": 0.1247,
      "velocity": 95,
      "chip": "ym2612"
    },
    {
      "channel": 4,
      "note": 88,
      "start": 69.2603,
      "duration": 0.1223,
      "velocity": 95,
      "chip": "ym2612"
    },
    {
      "channel": 0,
      "note": 92,
      "start": 69.2639,
      "duration": 0.0008,
      "velocity": 95,
      "chip": "ym2612"
    },
    {
      "channel": 0,
      "note": 105,
      "start": 69.2666,
      "duration": 0.0118,
      "velocity": 100,
      "chip": "ym2612"
    },
    {
      "channel": 1,
      "note": 52,
      "start": 69.3049,
      "duration": 0.1553,
      "velocity": 116,
      "chip": "ym2612"
    },
    {
      "channel": 3,
      "note": 45,
      "start": 69.3085,
      "duration": 0.1074,
      "velocity": 127,
      "chip": "ym2612"
    },
    {
      "channel": 3,
      "note": 45,
      "start": 69.4192,
      "duration": 0.041,
      "velocity": 127,
      "chip": "ym2612"
    },
    {
      "channel": 4,
      "note": 76,
      "start": 69.422,
      "duration": 0.0613,
      "velocity": 95,
      "chip": "ym2612"
    },
    {
      "channel": 0,
      "note": 103,
      "start": 69.4279,
      "duration": 0.0137,
      "velocity": 100,
      "chip": "ym2612"
    },
    {
      "channel": 2,
      "note": 92,
      "start": 69.4633,
      "duration": 0.2207,
      "velocity": 95,
      "chip": "ym2612"
    },
    {
      "channel": 0,
      "note": 88,
      "start": 69.4656,
      "duration": 0.218,
      "velocity": 95,
      "chip": "ym2612"
    },
    {
      "channel": 1,
      "note": 97,
      "start": 69.469,
      "duration": 0.1814,
      "velocity": 95,
      "chip": "ym2612"
    },
    {
      "channel": 3,
      "note": 100,
      "start": 69.4715,
      "duration": 0.0175,
      "velocity": 100,
      "chip": "ym2612"
    },
    {
      "channel": 4,
      "note": 52,
      "start": 69.5367,
      "duration": 0.2471,
      "velocity": 116,
      "chip": "ym2612"
    },
    {
      "channel": 3,
      "note": 45,
      "start": 69.5393,
      "duration": 0.1112,
      "velocity": 127,
      "chip": "ym2612"
    },
    {
      "channel": 1,
      "note": 76,
      "start": 69.6537,
      "duration": 0.1299,
      "velocity": 95,
      "chip": "ym2612"
    },
    {
      "channel": 5,
      "note": 103,
      "start": 69.6566,
      "duration": 0.0605,
      "velocity": 100,
      "chip": "ym2612"
    },
    {
      "channel": 3,
      "note": 45,
      "start": 69.77,
      "duration": 0.1137,
      "velocity": 127,
      "chip": "ym2612"
    },
    {
      "channel": 0,
      "note": 95,
      "start": 69.7727,
      "duration": 0.2109,
      "velocity": 95,
      "chip": "ym2612"
    },
    {
      "channel": 2,
      "note": 88,
      "start": 69.7753,
      "duration": 0.2087,
      "velocity": 95,
      "chip": "ym2612"
    },
    {
      "channel": 5,
      "note": 92,
      "start": 69.7784,
      "duration": 0.2221,
      "velocity": 95,
      "chip": "ym2612"
    },
    {
      "channel": 4,
      "note": 52,
      "start": 69.8869,
      "duration": 0.0636,
      "velocity": 116,
      "chip": "ym2612"
    },
    {
      "channel": 3,
      "note": 45,
      "start": 69.8893,
      "duration": 0.1111,
      "velocity": 127,
      "chip": "ym2612"
    },
    {
      "channel": 1,
      "note": 100,
      "start": 69.8924,
      "duration": 0.0578,
      "velocity": 100,
      "chip": "ym2612"
    },
    {
      "channel": 4,
      "note": 52,
      "start": 70.0036,
      "duration": 0.2135,
      "velocity": 116,
      "chip": "ym2612"
    },
    {
      "channel": 3,
      "note": 45,
      "start": 70.006,
      "duration": 0.111,
      "velocity": 127,
      "chip": "ym2612"
    },
    {
      "channel": 0,
      "note": 76,
      "start": 70.0087,
      "duration": 0.1249,
      "velocity": 95,
      "chip": "ym2612"
    },
    {
      "channel": 1,
      "note": 98,
      "start": 70.0115,
      "duration": 0.0555,
      "velocity": 100,
      "chip": "ym2612"
    },
    {
      "channel": 3,
      "note": 45,
      "start": 70.1199,
      "duration": 0.1137,
      "velocity": 127,
      "chip": "ym2612"
    },
    {
      "channel": 5,
      "note": 88,
      "start": 70.1228,
      "duration": 0.1172,
      "velocity": 95,
      "chip": "ym2612"
    },
    {
      "channel": 2,
      "note": 92,
      "start": 70.1254,
      "duration": 0.1668,
      "velocity": 95,
      "chip": "ym2612"
    },
    {
      "channel": 1,
      "note": 95,
      "start": 70.128,
      "duration": 0.164,
      "velocity": 95,
      "chip": "ym2612"
    },
    {
      "channel": 4,
      "note": 55,
      "start": 70.2365,
      "duration": 0.114,
      "velocity": 116,
      "chip": "ym2612"
    },
    {
      "channel": 3,
      "note": 45,
      "start": 70.2391,
      "duration": 0.0451,
      "velocity": 127,
      "chip": "ym2612"
    },
    {
      "channel": 0,
      "note": 96,
      "start": 70.2459,
      "duration": 0.0198,
      "velocity": 100,
      "chip": "ym2612"
    },
    {
      "channel": 0,
      "note": 76,
      "start": 70.2882,
      "duration": 0.1121,
      "velocity": 95,
      "chip": "ym2612"
    },
    {
      "channel": 4,
      "note": 56,
      "start": 70.3698,
      "duration": 0.214,
      "velocity": 116,
      "chip": "ym2612"
    },
    {
      "channel": 1,
      "note": 95,
      "start": 70.373,
      "duration": 0.1607,
      "velocity": 95,
      "chip": "ym2612"
    },
    {
      "channel": 2,
      "note": 92,
      "start": 70.3757,
      "duration": 0.1917,
      "velocity": 95,
      "chip": "ym2612"
    },
    {
      "channel": 3,
      "note": 88,
      "start": 70.3783,
      "duration": 0.1888,
      "velocity": 95,
      "chip": "ym2612"
    },
    {
      "channel": 4,
      "note": 69,
      "start": 70.6049,
      "duration": 0.8713,
      "velocity": 116,
      "chip": "ym2612"
    },
    {
      "channel": 5,
      "note": 45,
      "start": 70.6088,
      "duration": 0.1083,
      "velocity": 127,
      "chip": "ym2612"
    },
    {
      "channel": 0,
      "note": 81,
      "start": 70.6126,
      "duration": 0.2378,
      "velocity": 95,
      "chip": "ym2612"
    },
    {
      "channel": 1,
      "note": 96,
      "start": 70.8369,
      "duration": 0.23,
      "velocity": 95,
      "chip": "ym2612"
    },
    {
      "channel": 3,
      "note": 93,
      "start": 70.8393,
      "duration": 0.2278,
      "velocity": 95,
      "chip": "ym2612"
    },
    {
      "channel": 2,
      "note": 88,
      "start": 70.842,
      "duration": 0.2254,
      "velocity": 95,
      "chip": "ym2612"
    },
    {
      "channel": 5,
      "note": 93,
      "start": 70.845,
      "duration": 0.0389,
      "velocity": 100,
      "chip": "ym2612"
    },
    {
      "channel": 0,
      "note": 45,
      "start": 71.0703,
      "duration": 0.0469,
      "velocity": 127,
      "chip": "ym2612"
    },
    {
      "channel": 1,
      "note": 81,
      "start": 71.073,
      "duration": 0.0614,
      "velocity": 95,
      "chip": "ym2612"
    },
    {
      "channel": 3,
      "note": 96,
      "start": 71.0793,
      "duration": 0.0134,
      "velocity": 100,
      "chip": "ym2612"
    },
    {
      "channel": 2,
      "note": 96,
      "start": 71.1213,
      "duration": 0.2086,
      "velocity": 95,
      "chip": "ym2612"
    },
    {
      "channel": 3,
      "note": 88,
      "start": 71.1238,
      "duration": 0.1941,
      "velocity": 95,
      "chip": "ym2612"
    },
    {
      "channel": 0,
      "note": 93,
      "start": 71.1264,
      "duration": 0.0017,
      "velocity": 95,
      "chip": "ym2612"
    },
    {
      "channel": 0,
      "note": 93,
      "start": 71.1299,
      "duration": 0.0099,
      "velocity": 100,
      "chip": "ym2612"
    },
    {
      "channel": 1,
      "note": 81,
      "start": 71.3212,
      "duration": 0.0617,
      "velocity": 95,
      "chip": "ym2612"
    },
    {
      "channel": 0,
      "note": 98,
      "start": 71.3271,
      "duration": 0.0149,
      "velocity": 100,
      "chip": "ym2612"
    },
    {
      "channel": 3,
      "note": 45,
      "start": 71.3696,
      "duration": 0.0657,
      "velocity": 127,
      "chip": "ym2612"
    },
    {
      "channel": 2,
      "note": 96,
      "start": 71.3722,
      "duration": 0.1264,
      "velocity": 95,
      "chip": "ym2612"
    },
    {
      "channel": 0,
      "note": 88,
      "start": 71.3746,
      "duration": 0.0019,
      "velocity": 95,
      "chip": "ym2612"
    },
    {
      "channel": 0,
      "note": 93,
      "start": 71.3784,
      "duration": 0.1128,
      "velocity": 95,
      "chip": "ym2612"
    },
    {
      "channel": 1,
      "note": 96,
      "start": 71.4422,
      "duration": 0.0218,
      "velocity": 100,
      "chip": "ym2612"
    },
    {
      "channel": 4,
      "note": 69,
      "start": 71.4846,
      "duration": 0.2383,
      "velocity": 116,
      "chip": "ym2612"
    },
    {
      "channel": 3,
      "note": 45,
      "start": 71.4868,
      "duration": 0.083,
      "velocity": 127,
      "chip": "ym2612"
    },
    {
      "channel": 1,
      "note": 81,
      "start": 71.4904,
      "duration": 0.1128,
      "velocity": 95,
      "chip": "ym2612"
    },
    {
      "channel": 0,
      "note": 99,
      "start": 71.4931,
      "duration": 0.0268,
      "velocity": 100,
      "chip": "ym2612"
    },
    {
      "channel": 2,
      "note": 88,
      "start": 71.5734,
      "duration": 0.1622,
      "velocity": 95,
      "chip": "ym2612"
    },
    {
      "channel": 5,
      "note": 96,
      "start": 71.576,
      "duration": 0.1141,
      "velocity": 95,
      "chip": "ym2612"
    },
    {
      "channel": 0,
      "note": 93,
      "start": 71.5788,
      "duration": 0.1774,
      "velocity": 95,
      "chip": "ym2612"
    },
    {
      "channel": 3,
      "note": 45,
      "start": 71.6893,
      "duration": 0.0461,
      "velocity": 127,
      "chip": "ym2612"
    },
    {
      "channel": 1,
      "note": 100,
      "start": 71.6957,
      "duration": 0.0212,
      "velocity": 100,
      "chip": "ym2612"
    },
    {
      "channel": 4,
      "note": 69,
      "start": 71.7381,
      "duration": 0.2495,
      "velocity": 116,
      "chip": "ym2612"
    },
    {
      "channel": 2,
      "note": 81,
      "start": 71.7407,
      "duration": 0.0802,
      "velocity": 95,
      "chip": "ym2612"
    },
    {
      "channel": 3,
      "note": 45,
      "start": 71.8237,
      "duration": 0.1137,
      "velocity": 127,
      "chip": "ym2612"
    },
    {
      "channel": 0,
      "note": 88,
      "start": 71.8267,
      "duration": 0.2106,
      "velocity": 95,
      "chip": "ym2612"
    },
    {
      "channel": 2,
      "note": 93,
      "start": 71.8294,
      "duration": 0.2415,
      "velocity": 95,
      "chip": "ym2612"
    },
    {
      "channel": 1,
      "note": 96,
      "start": 71.8322,
      "duration": 0.2219,
      "velocity": 95,
      "chip": "ym2612"
    },
    {
      "channel": 4,
      "note": 65,
      "start": 72.0573,
      "duration": 0.884,
      "velocity": 116,
      "chip": "ym2612"
    },
    {
      "channel": 3,
      "note": 45,
      "start": 72.0599,
      "duration": 0.111,
      "velocity": 127,
      "chip": "ym2612"
    },
    {
      "channel": 0,
      "note": 77,
      "start": 72.0622,
      "duration": 0.2251,
      "velocity": 95,
      "chip": "ym2612"
    },
    {
      "channel": 0,
      "note": 89,
      "start": 72.2907,
      "duration": 0.2134,
      "velocity": 95,
      "chip": "ym2612"
    },
    {
      "channel": 1,
      "note": 96,
      "start": 72.2929,
      "duration": 0.2112,
      "velocity": 95,
      "chip": "ym2612"
    },
    {
      "channel": 2,
      "note": 93,
      "start": 72.2956,
      "duration": 0.2088,
      "velocity": 95,
      "chip": "ym2612"
    },
    {
      "channel": 5,
      "note": 93,
      "start": 72.299,
      "duration": 0.0552,
      "velocity": 100,
      "chip": "ym2612"
    },
    {
      "channel": 3,
      "note": 45,
      "start": 72.5235,
      "duration": 0.0469,
      "velocity": 127,
      "chip": "ym2612"
    },
    {
      "channel": 0,
      "note": 77,
      "start": 72.5265,
      "duration": 0.0544,
      "velocity": 95,
      "chip": "ym2612"
    },
    {
      "channel": 1,
      "note": 96,
      "start": 72.5326,
      "duration": 0.0138,
      "velocity": 100,
      "chip": "ym2612"
    },
    {
      "channel": 2,
      "note": 89,
      "start": 72.5742,
      "duration": 0.1974,
      "velocity": 95,
      "chip": "ym2612"
    },
    {
      "channel": 1,
      "note": 93,
      "start": 72.5765,
      "duration": 0.1948,
      "velocity": 95,
      "chip": "ym2612"
    },
    {
      "channel": 3,
      "note": 96,
      "start": 72.5791,
      "duration": 0.2043,
      "velocity": 95,
      "chip": "ym2612"
    },
    {
      "channel": 0,
      "note": 93,
      "start": 72.5827,
      "duration": 0.0102,
      "velocity": 100,
      "chip": "ym2612"
    },
    {
      "channel": 1,
      "note": 77,
      "start": 72.7747,
      "duration": 0.0588,
      "velocity": 95,
      "chip": "ym2612"
    },
    {
      "channel": 0,
      "note": 98,
      "start": 72.7807,
      "duration": 0.0151,
      "velocity": 100,
      "chip": "ym2612"
    },
    {
      "channel": 2,
      "note": 45,
      "start": 72.8237,
      "duration": 0.0825,
      "velocity": 127,
      "chip": "ym2612"
    },
    {
      "channel": 3,
      "note": 89,
      "start": 72.8261,
      "duration": 0.1275,
      "velocity": 95,
      "chip": "ym2612"
    },
    {
      "channel": 0,
      "note": 93,
      "start": 72.8283,
      "duration": 0.002,
      "velocity": 95,
      "chip": "ym2612"
    },
    {
      "channel": 0,
      "note": 96,
      "start": 72.8322,
      "duration": 0.1328,
      "velocity": 95,
      "chip": "ym2612"
    },
    {
      "channel": 1,
      "note": 96,
      "start": 72.9133,
      "duration": 0.0158,
      "velocity": 100,
      "chip": "ym2612"
    },
    {
      "channel": 4,
      "note": 65,
      "start": 72.9561,
      "duration": 0.2251,
      "velocity": 116,
      "chip": "ym2612"
    },
    {
      "channel": 2,
      "note": 45,
      "start": 72.9585,
      "duration": 0.0821,
      "velocity": 127,
      "chip": "ym2612"
    },
    {
      "channel": 3,
      "note": 77,
      "start": 72.9617,
      "duration": 0.0954,
      "velocity": 95,
      "chip": "ym2612"
    },
    {
      "channel": 1,
      "note": 99,
      "start": 72.964,
      "duration": 0.0114,
      "velocity": 100,
      "chip": "ym2612"
    },
    {
      "channel": 0,
      "note": 89,
      "start": 73.0436,
      "duration": 0.156,
      "velocity": 95,
      "chip": "ym2612"
    },
    {
      "channel": 1,
      "note": 93,
      "start": 73.0462,
      "duration": 0.1536,
      "velocity": 95,
      "chip": "ym2612"
    },
    {
      "channel": 5,
      "note": 96,
      "start": 73.049,
      "duration": 0.112,
      "velocity": 95,
      "chip": "ym2612"
    },
    {
      "channel": 2,
      "note": 45,
      "start": 73.1602,
      "duration": 0.0397,
      "velocity": 127,
      "chip": "ym2612"
    },
    {
      "channel": 3,
      "note": 93,
      "start": 73.1665,
      "duration": 0.0146,
      "velocity": 100,
      "chip": "ym2612"
    },
    {
      "channel": 4,
      "note": 65,
      "start": 73.2033,
      "duration": 0.2698,
      "velocity": 116,
      "chip": "ym2612"
    },
    {
      "channel": 0,
      "note": 77,
      "start": 73.2057,
      "duration": 0.0672,
      "velocity": 95,
      "chip": "ym2612"
    },
    {
      "channel": 0,
      "note": 89,
      "start": 73.2766,
      "duration": 0.1797,
      "velocity": 95,
      "chip": "ym2612"
    },
    {
      "channel": 1,
      "note": 93,
      "start": 73.279,
      "duration": 0.1938,
      "velocity": 95,
      "chip": "ym2612"
    },
    {
      "channel": 3,
      "note": 96,
      "start": 73.2818,
      "duration": 0.2078,
      "velocity": 95,
      "chip": "ym2612"
    },
    {
      "channel": 4,
      "note": 62,
      "start": 73.5094,
      "duration": 0.8919,
      "velocity": 116,
      "chip": "ym2612"
    },
    {
      "channel": 2,
      "note": 45,
      "start": 73.512,
      "duration": 0.1111,
      "velocity": 127,
      "chip": "ym2612"
    },
    {
      "channel": 0,
      "note": 78,
      "start": 73.5145,
      "duration": 0.2418,
      "velocity": 95,
      "chip": "ym2612"
    },
    {
      "channel": 1,
      "note": 93,
      "start": 73.7428,
      "duration": 0.2302,
      "velocity": 95,
      "chip": "ym2612"
    },
    {
      "channel": 3,
      "note": 98,
      "start": 73.7453,
      "duration": 0.2111,
      "velocity": 95,
      "chip": "ym2612"
    },
    {
      "channel": 5,
      "note": 90,
      "start": 73.748,
      "duration": 0.2085,
      "velocity": 95,
      "chip": "ym2612"
    },
    {
      "channel": 2,
      "note": 93,
      "start": 73.751,
      "duration": 0.0555,
      "velocity": 100,
      "chip": "ym2612"
    },
    {
      "channel": 0,
      "note": 45,
      "start": 73.9761,
      "duration": 0.0481,
      "velocity": 127,
      "chip": "ym2612"
    },
    {
      "channel": 1,
      "note": 78,
      "start": 73.9792,
      "duration": 0.0588,
      "velocity": 95,
      "chip": "ym2612"
    },
    {
      "channel": 2,
      "note": 96,
      "start": 73.9854,
      "duration": 0.0204,
      "velocity": 100,
      "chip": "ym2612"
    },
    {
      "channel": 3,
      "note": 90,
      "start": 74.0281,
      "duration": 0.1968,
      "velocity": 95,
      "chip": "ym2612"
    },
    {
      "channel": 2,
      "note": 98,
      "start": 74.0304,
      "duration": 0.1947,
      "velocity": 95,
      "chip": "ym2612"
    },
    {
      "channel": 0,
      "note": 93,
      "start": 74.033,
      "duration": 0.0012,
      "velocity": 95,
      "chip": "ym2612"
    },
    {
      "channel": 0,
      "note": 93,
      "start": 74.036,
      "duration": 0.0221,
      "velocity": 100,
      "chip": "ym2612"
    },
    {
      "channel": 1,
      "note": 78,
      "start": 74.2283,
      "duration": 0.0595,
      "velocity": 95,
      "chip": "ym2612"
    },
    {
      "channel": 0,
      "note": 98,
      "start": 74.2342,
      "duration": 0.0151,
      "velocity": 100,
      "chip": "ym2612"
    },
    {
      "channel": 3,
      "note": 45,
      "start": 74.2777,
      "duration": 0.0826,
      "velocity": 127,
      "chip": "ym2612"
    },
    {
      "channel": 2,
      "note": 90,
      "start": 74.2801,
      "duration": 0.1212,
      "velocity": 95,
      "chip": "ym2612"
    },
    {
      "channel": 0,
      "note": 98,
      "start": 74.2827,
      "duration": 0.0018,
      "velocity": 95,
      "chip": "ym2612"
    },
    {
      "channel": 0,
      "note": 93,
      "start": 74.2864,
      "duration": 0.1209,
      "velocity": 95,
      "chip": "ym2612"
    },
    {
      "channel": 1,
      "note": 96,
      "start": 74.3671,
      "duration": 0.0157,
      "velocity": 100,
      "chip": "ym2612"
    },
    {
      "channel": 4,
      "note": 62,
      "start": 74.41,
      "duration": 0.2317,
      "velocity": 116,
      "chip": "ym2612"
    },
    {
      "channel": 3,
      "note": 45,
      "start": 74.412,
      "duration": 0.083,
      "velocity": 127,
      "chip": "ym2612"
    },
    {
      "channel": 0,
      "note": 78,
      "start": 74.4145,
      "duration": 0.0803,
      "velocity": 95,
      "chip": "ym2612"
    },
    {
      "channel": 1,
      "note": 99,
      "start": 74.418,
      "duration": 0.0128,
      "velocity": 100,
      "chip": "ym2612"
    },
    {
      "channel": 0,
      "note": 90,
      "start": 74.4982,
      "duration": 0.1553,
      "velocity": 95,
      "chip": "ym2612"
    },
    {
      "channel": 2,
      "note": 93,
      "start": 74.501,
      "duration": 0.1593,
      "velocity": 95,
      "chip": "ym2612"
    },
    {
      "channel": 5,
      "note": 98,
      "start": 74.5038,
      "duration": 0.1115,
      "velocity": 95,
      "chip": "ym2612"
    },
    {
      "channel": 3,
      "note": 45,
      "start": 74.6144,
      "duration": 0.0458,
      "velocity": 127,
      "chip": "ym2612"
    },
    {
      "channel": 1,
      "note": 100,
      "start": 74.6206,
      "duration": 0.0147,
      "velocity": 100,
      "chip": "ym2612"
    },
    {
      "channel": 4,
      "note": 62,
      "start": 74.6626,
      "duration": 0.2665,
      "velocity": 116,
      "chip": "ym2612"
    },
    {
      "channel": 0,
      "note": 78,
      "start": 74.6655,
      "duration": 0.1134,
      "velocity": 95,
      "chip": "ym2612"
    },
    {
      "channel": 3,
      "note": 45,
      "start": 74.7485,
      "duration": 0.1138,
      "velocity": 127,
      "chip": "ym2612"
    },
    {
      "channel": 2,
      "note": 93,
      "start": 74.7515,
      "duration": 0.1945,
      "velocity": 95,
      "chip": "ym2612"
    },
    {
      "channel": 1,
      "note": 90,
      "start": 74.754,
      "duration": 0.1916,
      "velocity": 95,
      "chip": "ym2612"
    },
    {
      "channel": 5,
      "note": 98,
      "start": 74.7566,
      "duration": 0.1891,
      "velocity": 95,
      "chip": "ym2612"
    },
    {
      "channel": 4,
      "note": 72,
      "start": 74.982,
      "duration": 0.197,
      "velocity": 116,
      "chip": "ym2612"
    },
    {
      "channel": 3,
      "note": 45,
      "start": 74.9846,
      "duration": 0.1111,
      "velocity": 127,
      "chip": "ym2612"
    },
    {
      "channel": 0,
      "note": 76,
      "start": 74.9871,
      "duration": 0.2418,
      "velocity": 95,
      "chip": "ym2612"
    },
    {
      "channel": 4,
      "note": 67,
      "start": 75.1986,
      "duration": 0.1972,
      "velocity": 116,
      "chip": "ym2612"
    },
    {
      "channel": 1,
      "note": 97,
      "start": 75.2014,
      "duration": 0.2109,
      "velocity": 95,
      "chip": "ym2612"
    },
    {
      "channel": 5,
      "note": 88,
      "start": 75.2038,
      "duration": 0.2086,
      "velocity": 95,
      "chip": "ym2612"
    },
    {
      "channel": 2,
      "note": 92,
      "start": 75.207,
      "duration": 0.2221,
      "velocity": 95,
      "chip": "ym2612"
    },
    {
      "channel": 3,
      "note": 105,
      "start": 75.21,
      "duration": 0.0523,
      "velocity": 100,
      "chip": "ym2612"
    },
    {
      "channel": 4,
      "note": 69,
      "start": 75.432,
      "duration": 0.1146,
      "velocity": 116,
      "chip": "ym2612"
    },
    {
      "channel": 0,
      "note": 45,
      "start": 75.4346,
      "duration": 0.0458,
      "velocity": 127,
      "chip": "ym2612"
    },
    {
      "channel": 1,
      "note": 76,
      "start": 75.4373,
      "duration": 0.066,
      "velocity": 95,
      "chip": "ym2612"
    },
    {
      "channel": 3,
      "note": 103,
      "start": 75.4432,
      "duration": 0.0188,
      "velocity": 100,
      "chip": "ym2612"
    },
    {
      "channel": 2,
      "note": 92,
      "start": 75.4834,
      "duration": 0.2083,
      "velocity": 95,
      "chip": "ym2612"
    },
    {
      "channel": 3,
      "note": 88,
      "start": 75.4867,
      "duration": 0.2049,
      "velocity": 95,
      "chip": "ym2612"
    },
    {
      "channel": 0,
      "note": 97,
      "start": 75.4893,
      "duration": 0.0007,
      "velocity": 95,
      "chip": "ym2612"
    },
    {
      "channel": 0,
      "note": 100,
      "start": 75.4919,
      "duration": 0.0211,
      "velocity": 100,
      "chip": "ym2612"
    },
    {
      "channel": 4,
      "note": 64,
      "start": 75.5662,
      "duration": 0.1565,
      "velocity": 116,
      "chip": "ym2612"
    },
    {
      "channel": 1,
      "note": 76,
      "start": 75.683,
      "duration": 0.0617,
      "velocity": 95,
      "chip": "ym2612"
    },
    {
      "channel": 0,
      "note": 103,
      "start": 75.6889,
      "duration": 0.0214,
      "velocity": 100,
      "chip": "ym2612"
    },
    {
      "channel": 4,
      "note": 67,
      "start": 75.7321,
      "duration": 0.1247,
      "velocity": 116,
      "chip": "ym2612"
    },
    {
      "channel": 3,
      "note": 45,
      "start": 75.7346,
      "duration": 0.0809,
      "velocity": 127,
      "chip": "ym2612"
    },
    {
      "channel": 2,
      "note": 95,
      "start": 75.7375,
      "duration": 0.1194,
      "velocity": 95,
      "chip": "ym2612"
    },
    {
      "channel": 0,
      "note": 88,
      "start": 75.7406,
      "duration": 0.0008,
      "velocity": 95,
      "chip": "ym2612"
    },
    {
      "channel": 0,
      "note": 92,
      "start": 75.7432,
      "duration": 0.1194,
      "velocity": 95,
      "chip": "ym2612"
    },
    {
      "channel": 1,
      "note": 100,
      "start": 75.8231,
      "duration": 0.0217,
      "velocity": 100,
      "chip": "ym2612"
    },
    {
      "channel": 4,
      "note": 62,
      "start": 75.8649,
      "duration": 0.1839,
      "velocity": 116,
      "chip": "ym2612"
    },
    {
      "channel": 3,
      "note": 45,
      "start": 75.8671,
      "duration": 0.0817,
      "velocity": 127,
      "chip": "ym2612"
    },
    {
      "channel": 0,
      "note": 76,
      "start": 75.8696,
      "duration": 0.0959,
      "velocity": 95,
      "chip": "ym2612"
    },
    {
      "channel": 1,
      "note": 98,
      "start": 75.8732,
      "duration": 0.0256,
      "velocity": 100,
      "chip": "ym2612"
    },
    {
      "channel": 2,
      "note": 88,
      "start": 75.9523,
      "duration": 0.1583,
      "velocity": 95,
      "chip": "ym2612"
    },
    {
      "channel": 5,
      "note": 92,
      "start": 75.955,
      "duration": 0.1172,
      "velocity": 95,
      "chip": "ym2612"
    },
    {
      "channel": 1,
      "note": 95,
      "start": 75.9576,
      "duration": 0.1665,
      "velocity": 95,
      "chip": "ym2612"
    },
    {
      "channel": 4,
      "note": 63,
      "start": 76.0683,
      "duration": 0.1157,
      "velocity": 116,
      "chip": "ym2612"
    },
    {
      "channel": 3,
      "note": 45,
      "start": 76.0712,
      "duration": 0.0452,
      "velocity": 127,
      "chip": "ym2612"
    },
    {
      "channel": 0,
      "note": 96,
      "start": 76.0775,
      "duration": 0.0142,
      "velocity": 100,
      "chip": "ym2612"
    },
    {
      "channel": 2,
      "note": 76,
      "start": 76.1205,
      "duration": 0.1137,
      "velocity": 95,
      "chip": "ym2612"
    },
    {
      "channel": 4,
      "note": 64,
      "start": 76.2035,
      "duration": 0.1807,
      "velocity": 116,
      "chip": "ym2612"
    },
    {
      "channel": 1,
      "note": 95,
      "start": 76.2063,
      "duration": 0.161,
      "velocity": 95,
      "chip": "ym2612"
    },
    {
      "channel": 0,
      "note": 92,
      "start": 76.209,
      "duration": 0.1749,
      "velocity": 95,
      "chip": "ym2612"
    },
    {
      "channel": 3,
      "note": 88,
      "start": 76.2117,
      "duration": 0.1724,
      "velocity": 95,
      "chip": "ym2612"
    },
    {
      "channel": 4,
      "note": 57,
      "start": 76.437,
      "duration": 0.1021,
      "velocity": 116,
      "chip": "ym2612"
    },
    {
      "channel": 5,
      "note": 45,
      "start": 76.4398,
      "duration": 0.0034,
      "velocity": 127,
      "chip": "ym2612"
    },
    {
      "channel": 0,
      "note": 81,
      "start": 76.4423,
      "duration": 0.0939,
      "velocity": 95,
      "chip": "ym2612"
    },
    {
      "channel": 1,
      "note": 96,
      "start": 76.5298,
      "duration": 0.1574,
      "velocity": 95,
      "chip": "ym2612"
    },
    {
      "channel": 3,
      "note": 93,
      "start": 76.5318,
      "duration": 0.1555,
      "velocity": 95,
      "chip": "ym2612"
    },
    {
      "channel": 2,
      "note": 88,
      "start": 76.5353,
      "duration": 0.1522,
      "velocity": 95,
      "chip": "ym2612"
    },
    {
      "channel": 0,
      "note": 93,
      "start": 76.538,
      "duration": 0.0122,
      "velocity": 100,
      "chip": "ym2612"
    },
    {
      "channel": 4,
      "note": 57,
      "start": 76.5765,
      "duration": 0.1603,
      "velocity": 116,
      "chip": "ym2612"
    },
    {
      "channel": 0,
      "note": 45,
      "start": 76.5797,
      "duration": 0.1074,
      "velocity": 127,
      "chip": "ym2612"
    },
    {
      "channel": 0,
      "note": 45,
      "start": 76.6903,
      "duration": 0.0463,
      "velocity": 127,
      "chip": "ym2612"
    },
    {
      "channel": 1,
      "note": 81,
      "start": 76.693,
      "duration": 0.0607,
      "velocity": 95,
      "chip": "ym2612"
    },
    {
      "channel": 3,
      "note": 96,
      "start": 76.6992,
      "duration": 0.0133,
      "velocity": 100,
      "chip": "ym2612"
    },
    {
      "channel": 2,
      "note": 96,
      "start": 76.7406,
      "duration": 0.2137,
      "velocity": 95,
      "chip": "ym2612"
    },
    {
      "channel": 3,
      "note": 88,
      "start": 76.7429,
      "duration": 0.1779,
      "velocity": 95,
      "chip": "ym2612"
    },
    {
      "channel": 0,
      "note": 93,
      "start": 76.7456,
      "duration": 0.2251,
      "velocity": 95,
      "chip": "ym2612"
    },
    {
      "channel": 4,
      "note": 93,
      "start": 76.7491,
      "duration": 0.0105,
      "velocity": 100,
      "chip": "ym2612"
    },
    {
      "channel": 1,
      "note": 57,
      "start": 76.8071,
      "duration": 0.2636,
      "velocity": 116,
      "chip": "ym2612"
    },
    {
      "channel": 4,
      "note": 45,
      "start": 76.8098,
      "duration": 0.1112,
      "velocity": 127,
      "chip": "ym2612"
    },
    {
      "channel": 3,
      "note": 81,
      "start": 76.9242,
      "duration": 0.1632,
      "velocity": 95,
      "chip": "ym2612"
    },
    {
      "channel": 5,
      "note": 98,
      "start": 76.9271,
      "duration": 0.0605,
      "velocity": 100,
      "chip": "ym2612"
    },
    {
      "channel": 4,
      "note": 45,
      "start": 77.0402,
      "duration": 0.1139,
      "velocity": 127,
      "chip": "ym2612"
    },
    {
      "channel": 0,
      "note": 96,
      "start": 77.0433,
      "duration": 0.2441,
      "velocity": 95,
      "chip": "ym2612"
    },
    {
      "channel": 2,
      "note": 88,
      "start": 77.046,
      "duration": 0.225,
      "velocity": 95,
      "chip": "ym2612"
    },
    {
      "channel": 5,
      "note": 93,
      "start": 77.0488,
      "duration": 0.2721,
      "velocity": 95,
      "chip": "ym2612"
    },
    {
      "channel": 1,
      "note": 57,
      "start": 77.1571,
      "duration": 0.0969,
      "velocity": 116,
      "chip": "ym2612"
    },
    {
      "channel": 3,
      "note": 96,
      "start": 77.1604,
      "duration": 0.0604,
      "velocity": 100,
      "chip": "ym2612"
    },
    {
      "channel": 1,
      "note": 60,
      "start": 77.2742,
      "duration": 0.2132,
      "velocity": 116,
      "chip": "ym2612"
    },
    {
      "channel": 4,
      "note": 45,
      "start": 77.2767,
      "duration": 0.1108,
      "velocity": 127,
      "chip": "ym2612"
    },
    {
      "channel": 2,
      "note": 81,
      "start": 77.2796,
      "duration": 0.1247,
      "velocity": 95,
      "chip": "ym2612"
    },
    {
      "channel": 3,
      "note": 99,
      "start": 77.2828,
      "duration": 0.0546,
      "velocity": 100,
      "chip": "ym2612"
    },
    {
      "channel": 0,
      "note": 88,
      "start": 77.3907,
      "duration": 0.1637,
      "velocity": 95,
      "chip": "ym2612"
    },
    {
      "channel": 5,
      "note": 96,
      "start": 77.3933,
      "duration": 0.1168,
      "velocity": 95,
      "chip": "ym2612"
    },
    {
      "channel": 3,
      "note": 93,
      "start": 77.3965,
      "duration": 0.1721,
      "velocity": 95,
      "chip": "ym2612"
    },
    {
      "channel": 1,
      "note": 57,
      "start": 77.5068,
      "duration": 0.1148,
      "velocity": 116,
      "chip": "ym2612"
    },
    {
      "channel": 4,
      "note": 45,
      "start": 77.5094,
      "duration": 0.045,
      "velocity": 127,
      "chip": "ym2612"
    },
    {
      "channel": 2,
      "note": 100,
      "start": 77.5156,
      "duration": 0.0206,
      "velocity": 100,
      "chip": "ym2612"
    },
    {
      "channel": 4,
      "note": 45,
      "start": 77.5579,
      "duration": 0.0804,
      "velocity": 127,
      "chip": "ym2612"
    },
    {
      "channel": 0,
      "note": 81,
      "start": 77.5602,
      "duration": 0.0779,
      "velocity": 95,
      "chip": "ym2612"
    },
    {
      "channel": 1,
      "note": 55,
      "start": 77.6412,
      "duration": 0.1637,
      "velocity": 116,
      "chip": "ym2612"
    },
    {
      "channel": 0,
      "note": 88,
      "start": 77.6439,
      "duration": 0.211,
      "velocity": 95,
      "chip": "ym2612"
    },
    {
      "channel": 3,
      "note": 93,
      "start": 77.6464,
      "duration": 0.2389,
      "velocity": 95,
      "chip": "ym2612"
    },
    {
      "channel": 2,
      "note": 96,
      "start": 77.6493,
      "duration": 0.2224,
      "velocity": 95,
      "chip": "ym2612"
    },
    {
      "channel": 5,
      "note": 103,
      "start": 77.6523,
      "duration": 0.0527,
      "velocity": 100,
      "chip": "ym2612"
    },
    {
      "channel": 1,
      "note": 57,
      "start": 77.8746,
      "duration": 0.1139,
      "velocity": 116,
      "chip": "ym2612"
    },
    {
      "channel": 4,
      "note": 45,
      "start": 77.877,
      "duration": 0.0458,
      "velocity": 127,
      "chip": "ym2612"
    },
    {
      "channel": 0,
      "note": 77,
      "start": 77.8795,
      "duration": 0.086,
      "velocity": 95,
      "chip": "ym2612"
    },
    {
      "channel": 0,
      "note": 89,
      "start": 77.9686,
      "duration": 0.1415,
      "velocity": 95,
      "chip": "ym2612"
    },
    {
      "channel": 3,
      "note": 96,
      "start": 77.9716,
      "duration": 0.1386,
      "velocity": 95,
      "chip": "ym2612"
    },
    {
      "channel": 2,
      "note": 93,
      "start": 77.974,
      "duration": 0.1364,
      "velocity": 95,
      "chip": "ym2612"
    },
    {
      "channel": 4,
      "note": 93,
      "start": 77.9767,
      "duration": 0.0118,
      "velocity": 100,
      "chip": "ym2612"
    },
    {
      "channel": 1,
      "note": 57,
      "start": 78.0156,
      "duration": 0.1747,
      "velocity": 116,
      "chip": "ym2612"
    },
    {
      "channel": 4,
      "note": 45,
      "start": 78.0196,
      "duration": 0.1072,
      "velocity": 127,
      "chip": "ym2612"
    },
    {
      "channel": 4,
      "note": 45,
      "start": 78.1298,
      "duration": 0.0473,
      "velocity": 127,
      "chip": "ym2612"
    },
    {
      "channel": 0,
      "note": 77,
      "start": 78.1325,
      "duration": 0.0548,
      "velocity": 95,
      "chip": "ym2612"
    },
    {
      "channel": 3,
      "note": 96,
      "start": 78.1385,
      "duration": 0.014,
      "velocity": 100,
      "chip": "ym2612"
    },
    {
      "channel": 2,
      "note": 89,
      "start": 78.1809,
      "duration": 0.1974,
      "velocity": 95,
      "chip": "ym2612"
    },
    {
      "channel": 3,
      "note": 93,
      "start": 78.1832,
      "duration": 0.1948,
      "velocity": 95,
      "chip": "ym2612"
    },
    {
      "channel": 4,
      "note": 96,
      "start": 78.1857,
      "duration": 0.209,
      "velocity": 95,
      "chip": "ym2612"
    },
    {
      "channel": 0,
      "note": 93,
      "start": 78.1892,
      "duration": 0.0106,
      "velocity": 100,
      "chip": "ym2612"
    },
    {
      "channel": 1,
      "note": 57,
      "start": 78.2641,
      "duration": 0.2805,
      "velocity": 116,
      "chip": "ym2612"
    },
    {
      "channel": 0,
      "note": 45,
      "start": 78.2667,
      "duration": 0.1111,
      "velocity": 127,
      "chip": "ym2612"
    },
    {
      "channel": 3,
      "note": 77,
      "start": 78.3818,
      "duration": 0.1295,
      "velocity": 95,
      "chip": "ym2612"
    },
    {
      "channel": 5,
      "note": 98,
      "start": 78.3847,
      "duration": 0.0433,
      "velocity": 100,
      "chip": "ym2612"
    },
    {
      "channel": 0,
      "note": 45,
      "start": 78.4975,
      "duration": 0.1137,
      "velocity": 127,
      "chip": "ym2612"
    },
    {
      "channel": 4,
      "note": 89,
      "start": 78.5002,
      "duration": 0.2112,
      "velocity": 95,
      "chip": "ym2612"
    },
    {
      "channel": 2,
      "note": 93,
      "start": 78.5028,
      "duration": 0.2088,
      "velocity": 95,
      "chip": "ym2612"
    },
    {
      "channel": 5,
      "note": 96,
      "start": 78.5056,
      "duration": 0.2391,
      "velocity": 95,
      "chip": "ym2612"
    },
    {
      "channel": 1,
      "note": 57,
      "start": 78.6143,
      "duration": 0.0635,
      "velocity": 116,
      "chip": "ym2612"
    },
    {
      "channel": 0,
      "note": 45,
      "start": 78.6166,
      "duration": 0.0946,
      "velocity": 127,
      "chip": "ym2612"
    },
    {
      "channel": 3,
      "note": 96,
      "start": 78.6197,
      "duration": 0.0415,
      "velocity": 100,
      "chip": "ym2612"
    },
    {
      "channel": 1,
      "note": 64,
      "start": 78.7149,
      "duration": 0.213,
      "velocity": 116,
      "chip": "ym2612"
    },
    {
      "channel": 0,
      "note": 45,
      "start": 78.7172,
      "duration": 0.1107,
      "velocity": 127,
      "chip": "ym2612"
    },
    {
      "channel": 4,
      "note": 77,
      "start": 78.72,
      "duration": 0.1413,
      "velocity": 95,
      "chip": "ym2612"
    },
    {
      "channel": 3,
      "note": 99,
      "start": 78.7228,
      "duration": 0.0551,
      "velocity": 100,
      "chip": "ym2612"
    },
    {
      "channel": 0,
      "note": 45,
      "start": 78.8307,
      "duration": 0.1138,
      "velocity": 127,
      "chip": "ym2612"
    },
    {
      "channel": 5,
      "note": 89,
      "start": 78.8336,
      "duration": 0.117,
      "velocity": 95,
      "chip": "ym2612"
    },
    {
      "channel": 2,
      "note": 93,
      "start": 78.8361,
      "duration": 0.1583,
      "velocity": 95,
      "chip": "ym2612"
    },
    {
      "channel": 3,
      "note": 96,
      "start": 78.8393,
      "duration": 0.1744,
      "velocity": 95,
      "chip": "ym2612"
    },
    {
      "channel": 1,
      "note": 63,
      "start": 78.9474,
      "duration": 0.1144,
      "velocity": 116,
      "chip": "ym2612"
    },
    {
      "channel": 0,
      "note": 45,
      "start": 78.9499,
      "duration": 0.0444,
      "velocity": 127,
      "chip": "ym2612"
    },
    {
      "channel": 4,
      "note": 98,
      "start": 78.9561,
      "duration": 0.0196,
      "velocity": 100,
      "chip": "ym2612"
    },
    {
      "channel": 2,
      "note": 77,
      "start": 78.9983,
      "duration": 0.0803,
      "velocity": 95,
      "chip": "ym2612"
    },
    {
      "channel": 1,
      "note": 62,
      "start": 79.0812,
      "duration": 0.2139,
      "velocity": 116,
      "chip": "ym2612"
    },
    {
      "channel": 3,
      "note": 89,
      "start": 79.0841,
      "duration": 0.1778,
      "velocity": 95,
      "chip": "ym2612"
    },
    {
      "channel": 2,
      "note": 93,
      "start": 79.0868,
      "duration": 0.1918,
      "velocity": 95,
      "chip": "ym2612"
    },
    {
      "channel": 4,
      "note": 96,
      "start": 79.0896,
      "duration": 0.2057,
      "velocity": 95,
      "chip": "ym2612"
    },
    {
      "channel": 1,
      "note": 57,
      "start": 79.3148,
      "duration": 0.1032,
      "velocity": 116,
      "chip": "ym2612"
    },
    {
      "channel": 0,
      "note": 45,
      "start": 79.3173,
      "duration": 0.0449,
      "velocity": 127,
      "chip": "ym2612"
    },
    {
      "channel": 3,
      "note": 78,
      "start": 79.32,
      "duration": 0.0981,
      "velocity": 95,
      "chip": "ym2612"
    },
    {
      "channel": 4,
      "note": 93,
      "start": 79.4085,
      "duration": 0.158,
      "velocity": 95,
      "chip": "ym2612"
    },
    {
      "channel": 2,
      "note": 98,
      "start": 79.4119,
      "duration": 0.138,
      "velocity": 95,
      "chip": "ym2612"
    },
    {
      "channel": 0,
      "note": 90,
      "start": 79.4142,
      "duration": 0.0008,
      "velocity": 95,
      "chip": "ym2612"
    },
    {
      "channel": 0,
      "note": 93,
      "start": 79.417,
      "duration": 0.0172,
      "velocity": 100,
      "chip": "ym2612"
    },
    {
      "channel": 1,
      "note": 57,
      "start": 79.4552,
      "duration": 0.1761,
      "velocity": 116,
      "chip": "ym2612"
    },
    {
      "channel": 3,
      "note": 45,
      "start": 79.4586,
      "duration": 0.1078,
      "velocity": 127,
      "chip": "ym2612"
    },
    {
      "channel": 3,
      "note": 45,
      "start": 79.5698,
      "duration": 0.0478,
      "velocity": 127,
      "chip": "ym2612"
    },
    {
      "channel": 4,
      "note": 78,
      "start": 79.5727,
      "duration": 0.0587,
      "velocity": 95,
      "chip": "ym2612"
    },
    {
      "channel": 0,
      "note": 96,
      "start": 79.5785,
      "duration": 0.014,
      "velocity": 100,
      "chip": "ym2612"
    },
    {
      "channel": 2,
      "note": 90,
      "start": 79.6216,
      "duration": 0.1969,
      "velocity": 95,
      "chip": "ym2612"
    },
    {
      "channel": 0,
      "note": 98,
      "start": 79.6239,
      "duration": 0.0034,
      "velocity": 95,
      "chip": "ym2612"
    },
    {
      "channel": 3,
      "note": 93,
      "start": 79.6264,
      "duration": 0.2086,
      "velocity": 95,
      "chip": "ym2612"
    },
    {
      "channel": 0,
      "note": 93,
      "start": 79.6292,
      "duration": 0.011,
      "velocity": 100,
      "chip": "ym2612"
    },
    {
      "channel": 1,
      "note": 57,
      "start": 79.7044,
      "duration": 0.2638,
      "velocity": 116,
      "chip": "ym2612"
    },
    {
      "channel": 4,
      "note": 45,
      "start": 79.707,
      "duration": 0.1113,
      "velocity": 127,
      "chip": "ym2612"
    },
    {
      "channel": 2,
      "note": 78,
      "start": 79.8222,
      "duration": 0.1296,
      "velocity": 95,
      "chip": "ym2612"
    },
    {
      "channel": 0,
      "note": 98,
      "start": 79.8248,
      "duration": 0.0434,
      "velocity": 100,
      "chip": "ym2612"
    },
    {
      "channel": 4,
      "note": 45,
      "start": 79.9378,
      "duration": 0.1139,
      "velocity": 127,
      "chip": "ym2612"
    },
    {
      "channel": 3,
      "note": 90,
      "start": 79.9406,
      "duration": 0.2111,
      "velocity": 95,
      "chip": "ym2612"
    },
    {
      "channel": 5,
      "note": 98,
      "start": 79.9432,
      "duration": 0.2087,
      "velocity": 95,
      "chip": "ym2612"
    },
    {
      "channel": 0,
      "note": 93,
      "start": 79.9459,
      "duration": 0.2223,
      "velocity": 95,
      "chip": "ym2612"
    },
    {
      "channel": 1,
      "note": 57,
      "start": 80.0546,
      "duration": 0.0636,
      "velocity": 116,
      "chip": "ym2612"
    },
    {
      "channel": 2,
      "note": 96,
      "start": 80.058,
      "duration": 0.0438,
      "velocity": 100,
      "chip": "ym2612"
    },
    {
      "channel": 1,
      "note": 60,
      "start": 80.1717,
      "duration": 0.1966,
      "velocity": 116,
      "chip": "ym2612"
    },
    {
      "channel": 4,
      "note": 45,
      "start": 80.1742,
      "duration": 0.1109,
      "velocity": 127,
      "chip": "ym2612"
    },
    {
      "channel": 0,
      "note": 78,
      "start": 80.1768,
      "duration": 0.108,
      "velocity": 95,
      "chip": "ym2612"
    },
    {
      "channel": 2,
      "note": 99,
      "start": 80.1799,
      "duration": 0.0385,
      "velocity": 100,
      "chip": "ym2612"
    },
    {
      "channel": 0,
      "note": 90,
      "start": 80.2883,
      "duration": 0.1509,
      "velocity": 95,
      "chip": "ym2612"
    },
    {
      "channel": 3,
      "note": 93,
      "start": 80.2911,
      "duration": 0.16,
      "velocity": 95,
      "chip": "ym2612"
    },
    {
      "channel": 5,
      "note": 98,
      "start": 80.2939,
      "duration": 0.1137,
      "velocity": 95,
      "chip": "ym2612"
    },
    {
      "channel": 1,
      "note": 57,
      "start": 80.4042,
      "duration": 0.0979,
      "velocity": 116,
      "chip": "ym2612"
    },
    {
      "channel": 4,
      "note": 45,
      "start": 80.4068,
      "duration": 0.0444,
      "velocity": 127,
      "chip": "ym2612"
    },
    {
      "channel": 2,
      "note": 100,
      "start": 80.4129,
      "duration": 0.0137,
      "velocity": 100,
      "chip": "ym2612"
    },
    {
      "channel": 4,
      "note": 45,
      "start": 80.4546,
      "duration": 0.0643,
      "velocity": 127,
      "chip": "ym2612"
    },
    {
      "channel": 0,
      "note": 78,
      "start": 80.457,
      "duration": 0.1117,
      "velocity": 95,
      "chip": "ym2612"
    },
    {
      "channel": 1,
      "note": 55,
      "start": 80.5217,
      "duration": 0.1804,
      "velocity": 116,
      "chip": "ym2612"
    },
    {
      "channel": 3,
      "note": 93,
      "start": 80.5245,
      "duration": 0.2109,
      "velocity": 95,
      "chip": "ym2612"
    },
    {
      "channel": 2,
      "note": 90,
      "start": 80.5271,
      "duration": 0.2086,
      "velocity": 95,
      "chip": "ym2612"
    },
    {
      "channel": 5,
      "note": 98,
      "start": 80.5298,
      "duration": 0.2058,
      "velocity": 95,
      "chip": "ym2612"
    },
    {
      "channel": 4,
      "note": 103,
      "start": 80.5328,
      "duration": 0.0527,
      "velocity": 100,
      "chip": "ym2612"
    },
    {
      "channel": 1,
      "note": 52,
      "start": 80.7551,
      "duration": 0.1152,
      "velocity": 116,
      "chip": "ym2612"
    },
    {
      "channel": 0,
      "note": 45,
      "start": 80.7578,
      "duration": 0.0459,
      "velocity": 127,
      "chip": "ym2612"
    },
    {
      "channel": 3,
      "note": 76,
      "start": 80.7604,
      "duration": 0.0999,
      "velocity": 95,
      "chip": "ym2612"
    },
    {
      "channel": 2,
      "note": 97,
      "start": 80.8504,
      "duration": 0.1411,
      "velocity": 95,
      "chip": "ym2612"
    },
    {
      "channel": 4,
      "note": 88,
      "start": 80.8537,
      "duration": 0.1377,
      "velocity": 95,
      "chip": "ym2612"
    },
    {
      "channel": 0,
      "note": 92,
      "start": 80.8562,
      "duration": 0.0011,
      "velocity": 95,
      "chip": "ym2612"
    },
    {
      "channel": 0,
      "note": 105,
      "start": 80.8592,
      "duration": 0.0169,
      "velocity": 100,
      "chip": "ym2612"
    },
    {
      "channel": 1,
      "note": 52,
      "start": 80.8969,
      "duration": 0.1746,
      "velocity": 116,
      "chip": "ym2612"
    },
    {
      "channel": 3,
      "note": 45,
      "start": 80.9006,
      "duration": 0.1074,
      "velocity": 127,
      "chip": "ym2612"
    },
    {
      "channel": 3,
      "note": 45,
      "start": 81.0111,
      "duration": 0.0468,
      "velocity": 127,
      "chip": "ym2612"
    },
    {
      "channel": 4,
      "note": 76,
      "start": 81.0139,
      "duration": 0.0612,
      "velocity": 95,
      "chip": "ym2612"
    },
    {
      "channel": 0,
      "note": 103,
      "start": 81.0197,
      "duration": 0.0199,
      "velocity": 100,
      "chip": "ym2612"
    },
    {
      "channel": 2,
      "note": 92,
      "start": 81.0617,
      "duration": 0.214,
      "velocity": 95,
      "chip": "ym2612"
    },
    {
      "channel": 0,
      "note": 88,
      "start": 81.064,
      "duration": 0.0046,
      "velocity": 95,
      "chip": "ym2612"
    },
    {
      "channel": 3,
      "note": 97,
      "start": 81.0668,
      "duration": 0.192,
      "velocity": 95,
      "chip": "ym2612"
    },
    {
      "channel": 0,
      "note": 100,
      "start": 81.0705,
      "duration": 0.0216,
      "velocity": 100,
      "chip": "ym2612"
    },
    {
      "channel": 1,
      "note": 52,
      "start": 81.1449,
      "duration": 0.2639,
      "velocity": 116,
      "chip": "ym2612"
    },
    {
      "channel": 4,
      "note": 45,
      "start": 81.1475,
      "duration": 0.1113,
      "velocity": 127,
      "chip": "ym2612"
    },
    {
      "channel": 3,
      "note": 76,
      "start": 81.2622,
      "duration": 0.13,
      "velocity": 95,
      "chip": "ym2612"
    },
    {
      "channel": 0,
      "note": 103,
      "start": 81.2648,
      "duration": 0.044,
      "velocity": 100,
      "chip": "ym2612"
    },
    {
      "channel": 4,
      "note": 45,
      "start": 81.3788,
      "duration": 0.1134,
      "velocity": 127,
      "chip": "ym2612"
    },
    {
      "channel": 2,
      "note": 95,
      "start": 81.3818,
      "duration": 0.2106,
      "velocity": 95,
      "chip": "ym2612"
    },
    {
      "channel": 5,
      "note": 88,
      "start": 81.3842,
      "duration": 0.208,
      "velocity": 95,
      "chip": "ym2612"
    },
    {
      "channel": 0,
      "note": 92,
      "start": 81.387,
      "duration": 0.2218,
      "velocity": 95,
      "chip": "ym2612"
    },
    {
      "channel": 1,
      "note": 52,
      "start": 81.4951,
      "duration": 0.0469,
      "velocity": 116,
      "chip": "ym2612"
    },
    {
      "channel": 4,
      "note": 45,
      "start": 81.4976,
      "duration": 0.1114,
      "velocity": 127,
      "chip": "ym2612"
    },
    {
      "channel": 3,
      "note": 100,
      "start": 81.5007,
      "duration": 0.0415,
      "velocity": 100,
      "chip": "ym2612"
    },
    {
      "channel": 1,
      "note": 52,
      "start": 81.6124,
      "duration": 0.2131,
      "velocity": 116,
      "chip": "ym2612"
    },
    {
      "channel": 4,
      "note": 45,
      "start": 81.6148,
      "duration": 0.1107,
      "velocity": 127,
      "chip": "ym2612"
    },
    {
      "channel": 0,
      "note": 76,
      "start": 81.6175,
      "duration": 0.1245,
      "velocity": 95,
      "chip": "ym2612"
    },
    {
      "channel": 3,
      "note": 98,
      "start": 81.6203,
      "duration": 0.0384,
      "velocity": 100,
      "chip": "ym2612"
    },
    {
      "channel": 4,
      "note": 45,
      "start": 81.7284,
      "duration": 0.1138,
      "velocity": 127,
      "chip": "ym2612"
    },
    {
      "channel": 5,
      "note": 88,
      "start": 81.7316,
      "duration": 0.1166,
      "velocity": 95,
      "chip": "ym2612"
    },
    {
      "channel": 2,
      "note": 92,
      "start": 81.7343,
      "duration": 0.1649,
      "velocity": 95,
      "chip": "ym2612"
    },
    {
      "channel": 3,
      "note": 95,
      "start": 81.737,
      "duration": 0.162,
      "velocity": 95,
      "chip": "ym2612"
    },
    {
      "channel": 1,
      "note": 55,
      "start": 81.8449,
      "duration": 0.1139,
      "velocity": 116,
      "chip": "ym2612"
    },
    {
      "channel": 4,
      "note": 45,
      "start": 81.8475,
      "duration": 0.0439,
      "velocity": 127,
      "chip": "ym2612"
    },
    {
      "channel": 0,
      "note": 96,
      "start": 81.8535,
      "duration": 0.0137,
      "velocity": 100,
      "chip": "ym2612"
    },
    {
      "channel": 0,
      "note": 76,
      "start": 81.8952,
      "duration": 0.1136,
      "velocity": 95,
      "chip": "ym2612"
    },
    {
      "channel": 1,
      "note": 56,
      "start": 81.9782,
      "duration": 0.1973,
      "velocity": 116,
      "chip": "ym2612"
    },
    {
      "channel": 3,
      "note": 95,
      "start": 81.9811,
      "duration": 0.1611,
      "velocity": 95,
      "chip": "ym2612"
    },
    {
      "channel": 2,
      "note": 92,
      "start": 81.9837,
      "duration": 0.1754,
      "velocity": 95,
      "chip": "ym2612"
    },
    {
      "channel": 4,
      "note": 88,
      "start": 81.9864,
      "duration": 0.1726,
      "velocity": 95,
      "chip": "ym2612"
    },
    {
      "channel": 1,
      "note": 57,
      "start": 82.2119,
      "duration": 0.0863,
      "velocity": 116,
      "chip": "ym2612"
    },
    {
      "channel": 5,
      "note": 45,
      "start": 82.2146,
      "duration": 0.0034,
      "velocity": 127,
      "chip": "ym2612"
    },
    {
      "channel": 0,
      "note": 81,
      "start": 82.2175,
      "duration": 0.0964,
      "velocity": 95,
      "chip": "ym2612"
    },
    {
      "channel": 3,
      "note": 96,
      "start": 82.3009,
      "duration": 0.1466,
      "velocity": 95,
      "chip": "ym2612"
    },
    {
      "channel": 4,
      "note": 93,
      "start": 82.3031,
      "duration": 0.1445,
      "velocity": 95,
      "chip": "ym2612"
    },
    {
      "channel": 2,
      "note": 88,
      "start": 82.3054,
      "duration": 0.1423,
      "velocity": 95,
      "chip": "ym2612"
    },
    {
      "channel": 1,
      "note": 93,
      "start": 82.3093,
      "duration": 0.0173,
      "velocity": 100,
      "chip": "ym2612"
    },
    {
      "channel": 0,
      "note": 57,
      "start": 82.3474,
      "duration": 0.1436,
      "velocity": 116,
      "chip": "ym2612"
    },
    {
      "channel": 1,
      "note": 45,
      "start": 82.3497,
      "duration": 0.0976,
      "velocity": 127,
      "chip": "ym2612"
    },
    {
      "channel": 1,
      "note": 45,
      "start": 82.4506,
      "duration": 0.0467,
      "velocity": 127,
      "chip": "ym2612"
    },
    {
      "channel": 3,
      "note": 81,
      "start": 82.4533,
      "duration": 0.0668,
      "velocity": 95,
      "chip": "ym2612"
    },
    {
      "channel": 4,
      "note": 96,
      "start": 82.4594,
      "duration": 0.0197,
      "velocity": 100,
      "chip": "ym2612"
    },
    {
      "channel": 2,
      "note": 96,
      "start": 82.5012,
      "duration": 0.2141,
      "velocity": 95,
      "chip": "ym2612"
    },
    {
      "channel": 4,
      "note": 88,
      "start": 82.5036,
      "duration": 0.1951,
      "velocity": 95,
      "chip": "ym2612"
    },
    {
      "channel": 0,
      "note": 93,
      "start": 82.5062,
      "duration": 0.2423,
      "velocity": 95,
      "chip": "ym2612"
    },
    {
      "channel": 1,
      "note": 93,
      "start": 82.5101,
      "duration": 0.0217,
      "velocity": 100,
      "chip": "ym2612"
    },
    {
      "channel": 3,
      "note": 57,
      "start": 82.5849,
      "duration": 0.2137,
      "velocity": 116,
      "chip": "ym2612"
    },
    {
      "channel": 5,
      "note": 45,
      "start": 82.5874,
      "duration": 0.1115,
      "velocity": 127,
      "chip": "ym2612"
    },
    {
      "channel": 4,
      "note": 81,
      "start": 82.7021,
      "duration": 0.1465,
      "velocity": 95,
      "chip": "ym2612"
    },
    {
      "channel": 1,
      "note": 98,
      "start": 82.7048,
      "duration": 0.0605,
      "velocity": 100,
      "chip": "ym2612"
    },
    {
      "channel": 5,
      "note": 45,
      "start": 82.8182,
      "duration": 0.1139,
      "velocity": 127,
      "chip": "ym2612"
    },
    {
      "channel": 0,
      "note": 96,
      "start": 82.8209,
      "duration": 0.2443,
      "velocity": 95,
      "chip": "ym2612"
    },
    {
      "channel": 2,
      "note": 88,
      "start": 82.8235,
      "duration": 0.2253,
      "velocity": 95,
      "chip": "ym2612"
    },
    {
      "channel": 1,
      "note": 93,
      "start": 82.8263,
      "duration": 0.2555,
      "velocity": 95,
      "chip": "ym2612"
    },
    {
      "channel": 3,
      "note": 57,
      "start": 82.935,
      "duration": 0.0802,
      "velocity": 116,
      "chip": "ym2612"
    },
    {
      "channel": 4,
      "note": 96,
      "start": 82.9383,
      "duration": 0.0604,
      "velocity": 100,
      "chip": "ym2612"
    },
    {
      "channel": 3,
      "note": 60,
      "start": 83.0517,
      "duration": 0.2136,
      "velocity": 116,
      "chip": "ym2612"
    },
    {
      "channel": 5,
      "note": 45,
      "start": 83.0542,
      "duration": 0.1111,
      "velocity": 127,
      "chip": "ym2612"
    },
    {
      "channel": 2,
      "note": 81,
      "start": 83.0572,
      "duration": 0.1249,
      "velocity": 95,
      "chip": "ym2612"
    },
    {
      "channel": 4,
      "note": 99,
      "start": 83.06,
      "duration": 0.0553,
      "velocity": 100,
      "chip": "ym2612"
    },
    {
      "channel": 0,
      "note": 88,
      "start": 83.1688,
      "duration": 0.1623,
      "velocity": 95,
      "chip": "ym2612"
    },
    {
      "channel": 1,
      "note": 96,
      "start": 83.1713,
      "duration": 0.1689,
      "velocity": 95,
      "chip": "ym2612"
    },
    {
      "channel": 4,
      "note": 93,
      "start": 83.1741,
      "duration": 0.1713,
      "velocity": 95,
      "chip": "ym2612"
    },
    {
      "channel": 3,
      "note": 57,
      "start": 83.2846,
      "duration": 0.1137,
      "velocity": 116,
      "chip": "ym2612"
    },
    {
      "channel": 5,
      "note": 45,
      "start": 83.2876,
      "duration": 0.0007,
      "velocity": 127,
      "chip": "ym2612"
    },
    {
      "channel": 2,
      "note": 100,
      "start": 83.2938,
      "duration": 0.0137,
      "velocity": 100,
      "chip": "ym2612"
    },
    {
      "channel": 2,
      "note": 45,
      "start": 83.3348,
      "duration": 0.0804,
      "velocity": 127,
      "chip": "ym2612"
    },
    {
      "channel": 0,
      "note": 81,
      "start": 83.3371,
      "duration": 0.0778,
      "velocity": 95,
      "chip": "ym2612"
    },
    {
      "channel": 3,
      "note": 55,
      "start": 83.4183,
      "duration": 0.1633,
      "velocity": 116,
      "chip": "ym2612"
    },
    {
      "channel": 0,
      "note": 88,
      "start": 83.4212,
      "duration": 0.2104,
      "velocity": 95,
      "chip": "ym2612"
    },
    {
      "channel": 1,
      "note": 93,
      "start": 83.4236,
      "duration": 0.2388,
      "velocity": 95,
      "chip": "ym2612"
    },
    {
      "channel": 4,
      "note": 96,
      "start": 83.4266,
      "duration": 0.2217,
      "velocity": 95,
      "chip": "ym2612"
    },
    {
      "channel": 5,
      "note": 103,
      "start": 83.4296,
      "duration": 0.0355,
      "velocity": 100,
      "chip": "ym2612"
    },
    {
      "channel": 3,
      "note": 57,
      "start": 83.6514,
      "duration": 0.1027,
      "velocity": 116,
      "chip": "ym2612"
    },
    {
      "channel": 2,
      "note": 45,
      "start": 83.654,
      "duration": 0.0461,
      "velocity": 127,
      "chip": "ym2612"
    },
    {
      "channel": 0,
      "note": 77,
      "start": 83.6564,
      "duration": 0.0858,
      "velocity": 95,
      "chip": "ym2612"
    },
    {
      "channel": 0,
      "note": 89,
      "start": 83.7449,
      "duration": 0.124,
      "velocity": 95,
      "chip": "ym2612"
    },
    {
      "channel": 1,
      "note": 96,
      "start": 83.7471,
      "duration": 0.122,
      "velocity": 95,
      "chip": "ym2612"
    },
    {
      "channel": 4,
      "note": 93,
      "start": 83.7502,
      "duration": 0.119,
      "velocity": 95,
      "chip": "ym2612"
    },
    {
      "channel": 2,
      "note": 93,
      "start": 83.7528,
      "duration": 0.0124,
      "velocity": 100,
      "chip": "ym2612"
    },
    {
      "channel": 3,
      "note": 57,
      "start": 83.7913,
      "duration": 0.1599,
      "velocity": 116,
      "chip": "ym2612"
    },
    {
      "channel": 2,
      "note": 45,
      "start": 83.7949,
      "duration": 0.1076,
      "velocity": 127,
      "chip": "ym2612"
    },
    {
      "channel": 2,
      "note": 45,
      "start": 83.9055,
      "duration": 0.0459,
      "velocity": 127,
      "chip": "ym2612"
    },
    {
      "channel": 0,
      "note": 77,
      "start": 83.9082,
      "duration": 0.0567,
      "velocity": 95,
      "chip": "ym2612"
    },
    {
      "channel": 1,
      "note": 96,
      "start": 83.9141,
      "duration": 0.0136,
      "velocity": 100,
      "chip": "ym2612"
    },
    {
      "channel": 4,
      "note": 89,
      "start": 83.955,
      "duration": 0.181,
      "velocity": 95,
      "chip": "ym2612"
    },
    {
      "channel": 1,
      "note": 93,
      "start": 83.9577,
      "duration": 0.1782,
      "velocity": 95,
      "chip": "ym2612"
    },
    {
      "channel": 3,
      "note": 96,
      "start": 83.9601,
      "duration": 0.2092,
      "velocity": 95,
      "chip": "ym2612"
    },
    {
      "channel": 2,
      "note": 93,
      "start": 83.9638,
      "duration": 0.0103,
      "velocity": 100,
      "chip": "ym2612"
    },
    {
      "channel": 0,
      "note": 57,
      "start": 84.022,
      "duration": 0.2305,
      "velocity": 116,
      "chip": "ym2612"
    },
    {
      "channel": 5,
      "note": 45,
      "start": 84.0246,
      "duration": 0.1115,
      "velocity": 127,
      "chip": "ym2612"
    },
    {
      "channel": 1,
      "note": 77,
      "start": 84.1393,
      "duration": 0.1465,
      "velocity": 95,
      "chip": "ym2612"
    },
    {
      "channel": 2,
      "note": 98,
      "start": 84.1426,
      "duration": 0.0601,
      "velocity": 100,
      "chip": "ym2612"
    },
    {
      "channel": 5,
      "note": 45,
      "start": 84.2557,
      "duration": 0.1136,
      "velocity": 127,
      "chip": "ym2612"
    },
    {
      "channel": 3,
      "note": 89,
      "start": 84.2585,
      "duration": 0.2274,
      "velocity": 95,
      "chip": "ym2612"
    },
    {
      "channel": 4,
      "note": 93,
      "start": 84.261,
      "duration": 0.2251,
      "velocity": 95,
      "chip": "ym2612"
    },
    {
      "channel": 2,
      "note": 96,
      "start": 84.2638,
      "duration": 0.2389,
      "velocity": 95,
      "chip": "ym2612"
    },
    {
      "channel": 0,
      "note": 57,
      "start": 84.3722,
      "duration": 0.0803,
      "velocity": 116,
      "chip": "ym2612"
    },
    {
      "channel": 5,
      "note": 45,
      "start": 84.3747,
      "duration": 0.1115,
      "velocity": 127,
      "chip": "ym2612"
    },
    {
      "channel": 1,
      "note": 96,
      "start": 84.3778,
      "duration": 0.058,
      "velocity": 100,
      "chip": "ym2612"
    },
    {
      "channel": 0,
      "note": 64,
      "start": 84.489,
      "duration": 0.2135,
      "velocity": 116,
      "chip": "ym2612"
    },
    {
      "channel": 5,
      "note": 45,
      "start": 84.4915,
      "duration": 0.1111,
      "velocity": 127,
      "chip": "ym2612"
    },
    {
      "channel": 3,
      "note": 77,
      "start": 84.4947,
      "duration": 0.1246,
      "velocity": 95,
      "chip": "ym2612"
    },
    {
      "channel": 1,
      "note": 99,
      "start": 84.4975,
      "duration": 0.055,
      "velocity": 100,
      "chip": "ym2612"
    },
    {
      "channel": 5,
      "note": 45,
      "start": 84.6056,
      "duration": 0.1137,
      "velocity": 127,
      "chip": "ym2612"
    },
    {
      "channel": 4,
      "note": 89,
      "start": 84.6084,
      "duration": 0.1604,
      "velocity": 95,
      "chip": "ym2612"
    },
    {
      "channel": 2,
      "note": 93,
      "start": 84.611,
      "duration": 0.158,
      "velocity": 95,
      "chip": "ym2612"
    },
    {
      "channel": 1,
      "note": 96,
      "start": 84.6137,
      "duration": 0.1688,
      "velocity": 95,
      "chip": "ym2612"
    },
    {
      "channel": 0,
      "note": 63,
      "start": 84.7218,
      "duration": 0.1135,
      "velocity": 116,
      "chip": "ym2612"
    },
    {
      "channel": 5,
      "note": 45,
      "start": 84.7245,
      "duration": 0.0007,
      "velocity": 127,
      "chip": "ym2612"
    },
    {
      "channel": 3,
      "note": 98,
      "start": 84.7307,
      "duration": 0.0195,
      "velocity": 100,
      "chip": "ym2612"
    },
    {
      "channel": 4,
      "note": 77,
      "start": 84.7727,
      "duration": 0.0795,
      "velocity": 95,
      "chip": "ym2612"
    },
    {
      "channel": 0,
      "note": 62,
      "start": 84.8552,
      "duration": 0.1468,
      "velocity": 116,
      "chip": "ym2612"
    },
    {
      "channel": 1,
      "note": 89,
      "start": 84.8581,
      "duration": 0.1774,
      "velocity": 95,
      "chip": "ym2612"
    },
    {
      "channel": 4,
      "note": 93,
      "start": 84.8606,
      "duration": 0.1915,
      "velocity": 95,
      "chip": "ym2612"
    },
    {
      "channel": 2,
      "note": 96,
      "start": 84.8638,
      "duration": 0.2051,
      "velocity": 95,
      "chip": "ym2612"
    },
    {
      "channel": 0,
      "note": 57,
      "start": 85.0882,
      "duration": 0.0784,
      "velocity": 116,
      "chip": "ym2612"
    },
    {
      "channel": 3,
      "note": 45,
      "start": 85.0914,
      "duration": 0.0444,
      "velocity": 127,
      "chip": "ym2612"
    },
    {
      "channel": 1,
      "note": 78,
      "start": 85.094,
      "duration": 0.0975,
      "velocity": 95,
      "chip": "ym2612"
    },
    {
      "channel": 4,
      "note": 93,
      "start": 85.1817,
      "duration": 0.1589,
      "velocity": 95,
      "chip": "ym2612"
    },
    {
      "channel": 2,
      "note": 98,
      "start": 85.1842,
      "duration": 0.1398,
      "velocity": 95,
      "chip": "ym2612"
    },
    {
      "channel": 3,
      "note": 90,
      "start": 85.1875,
      "duration": 0.1363,
      "velocity": 95,
      "chip": "ym2612"
    },
    {
      "channel": 0,
      "note": 93,
      "start": 85.1903,
      "duration": 0.0122,
      "velocity": 100,
      "chip": "ym2612"
    },
    {
      "channel": 1,
      "note": 57,
      "start": 85.2298,
      "duration": 0.1543,
      "velocity": 116,
      "chip": "ym2612"
    },
    {
      "channel": 0,
      "note": 45,
      "start": 85.2334,
      "duration": 0.107,
      "velocity": 127,
      "chip": "ym2612"
    },
    {
      "channel": 0,
      "note": 45,
      "start": 85.3434,
      "duration": 0.0463,
      "velocity": 127,
      "chip": "ym2612"
    },
    {
      "channel": 3,
      "note": 78,
      "start": 85.3462,
      "duration": 0.0573,
      "velocity": 95,
      "chip": "ym2612"
    },
    {
      "channel": 2,
      "note": 96,
      "start": 85.3522,
      "duration": 0.0137,
      "velocity": 100,
      "chip": "ym2612"
    },
    {
      "channel": 4,
      "note": 90,
      "start": 85.3939,
      "duration": 0.1973,
      "velocity": 95,
      "chip": "ym2612"
    },
    {
      "channel": 2,
      "note": 98,
      "start": 85.3962,
      "duration": 0.1952,
      "velocity": 95,
      "chip": "ym2612"
    },
    {
      "channel": 1,
      "note": 93,
      "start": 85.3988,
      "duration": 0.2089,
      "velocity": 95,
      "chip": "ym2612"
    },
    {
      "channel": 0,
      "note": 93,
      "start": 85.4024,
      "duration": 0.0101,
      "velocity": 100,
      "chip": "ym2612"
    },
    {
      "channel": 3,
      "note": 57,
      "start": 85.4774,
      "duration": 0.2303,
      "velocity": 116,
      "chip": "ym2612"
    },
    {
      "channel": 0,
      "note": 45,
      "start": 85.48,
      "duration": 0.111,
      "velocity": 127,
      "chip": "ym2612"
    },
    {
      "channel": 4,
      "note": 78,
      "start": 85.5946,
      "duration": 0.1298,
      "velocity": 95,
      "chip": "ym2612"
    },
    {
      "channel": 5,
      "note": 98,
      "start": 85.5975,
      "duration": 0.0436,
      "velocity": 100,
      "chip": "ym2612"
    },
    {
      "channel": 0,
      "note": 45,
      "start": 85.7105,
      "duration": 0.1137,
      "velocity": 127,
      "chip": "ym2612"
    },
    {
      "channel": 1,
      "note": 90,
      "start": 85.7132,
      "duration": 0.1944,
      "velocity": 95,
      "chip": "ym2612"
    },
    {
      "channel": 2,
      "note": 98,
      "start": 85.7157,
      "duration": 0.1922,
      "velocity": 95,
      "chip": "ym2612"
    },
    {
      "channel": 5,
      "note": 93,
      "start": 85.7185,
      "duration": 0.206,
      "velocity": 95,
      "chip": "ym2612"
    },
    {
      "channel": 3,
      "note": 57,
      "start": 85.8274,
      "duration": 0.0804,
      "velocity": 116,
      "chip": "ym2612"
    },
    {
      "channel": 4,
      "note": 96,
      "start": 85.8307,
      "duration": 0.0438,
      "velocity": 100,
      "chip": "ym2612"
    },
    {
      "channel": 3,
      "note": 60,
      "start": 85.9275,
      "duration": 0.2135,
      "velocity": 116,
      "chip": "ym2612"
    },
    {
      "channel": 0,
      "note": 45,
      "start": 85.9298,
      "duration": 0.1111,
      "velocity": 127,
      "chip": "ym2612"
    },
    {
      "channel": 1,
      "note": 78,
      "start": 85.9329,
      "duration": 0.1082,
      "velocity": 95,
      "chip": "ym2612"
    },
    {
      "channel": 4,
      "note": 99,
      "start": 85.9362,
      "duration": 0.0549,
      "velocity": 100,
      "chip": "ym2612"
    },
    {
      "channel": 1,
      "note": 90,
      "start": 86.0444,
      "duration": 0.158,
      "velocity": 95,
      "chip": "ym2612"
    },
    {
      "channel": 5,
      "note": 93,
      "start": 86.047,
      "duration": 0.117,
      "velocity": 95,
      "chip": "ym2612"
    },
    {
      "channel": 2,
      "note": 98,
      "start": 86.0499,
      "duration": 0.1528,
      "velocity": 95,
      "chip": "ym2612"
    },
    {
      "channel": 3,
      "note": 57,
      "start": 86.1604,
      "duration": 0.1156,
      "velocity": 116,
      "chip": "ym2612"
    },
    {
      "channel": 0,
      "note": 45,
      "start": 86.1629,
      "duration": 0.0456,
      "velocity": 127,
      "chip": "ym2612"
    },
    {
      "channel": 4,
      "note": 100,
      "start": 86.1693,
      "duration": 0.0208,
      "velocity": 100,
      "chip": "ym2612"
    },
    {
      "channel": 0,
      "note": 45,
      "start": 86.2118,
      "duration": 0.0807,
      "velocity": 127,
      "chip": "ym2612"
    },
    {
      "channel": 1,
      "note": 78,
      "start": 86.2142,
      "duration": 0.1283,
      "velocity": 95,
      "chip": "ym2612"
    },
    {
      "channel": 3,
      "note": 55,
      "start": 86.2959,
      "duration": 0.1802,
      "velocity": 116,
      "chip": "ym2612"
    },
    {
      "channel": 2,
      "note": 93,
      "start": 86.2993,
      "duration": 0.2103,
      "velocity": 95,
      "chip": "ym2612"
    },
    {
      "channel": 4,
      "note": 90,
      "start": 86.3019,
      "duration": 0.2074,
      "velocity": 95,
      "chip": "ym2612"
    },
    {
      "channel": 5,
      "note": 98,
      "start": 86.3045,
      "duration": 0.2049,
      "velocity": 95,
      "chip": "ym2612"
    },
    {
      "channel": 0,
      "note": 103,
      "start": 86.3074,
      "duration": 0.0517,
      "velocity": 100,
      "chip": "ym2612"
    },
    {
      "channel": 3,
      "note": 52,
      "start": 86.5289,
      "duration": 0.1021,
      "velocity": 116,
      "chip": "ym2612"
    },
    {
      "channel": 1,
      "note": 45,
      "start": 86.5315,
      "duration": 0.0451,
      "velocity": 127,
      "chip": "ym2612"
    },
    {
      "channel": 4,
      "note": 76,
      "start": 86.5342,
      "duration": 0.0969,
      "velocity": 95,
      "chip": "ym2612"
    },
    {
      "channel": 2,
      "note": 97,
      "start": 86.6214,
      "duration": 0.1411,
      "velocity": 95,
      "chip": "ym2612"
    },
    {
      "channel": 0,
      "note": 88,
      "start": 86.6237,
      "duration": 0.0043,
      "velocity": 95,
      "chip": "ym2612"
    },
    {
      "channel": 1,
      "note": 92,
      "start": 86.6272,
      "duration": 0.1517,
      "velocity": 95,
      "chip": "ym2612"
    },
    {
      "channel": 0,
      "note": 105,
      "start": 86.6299,
      "duration": 0.0176,
      "velocity": 100,
      "chip": "ym2612"
    },
    {
      "channel": 3,
      "note": 52,
      "start": 86.6682,
      "duration": 0.1612,
      "velocity": 116,
      "chip": "ym2612"
    },
    {
      "channel": 4,
      "note": 45,
      "start": 86.6716,
      "duration": 0.1075,
      "velocity": 127,
      "chip": "ym2612"
    },
    {
      "channel": 4,
      "note": 45,
      "start": 86.7825,
      "duration": 0.047,
      "velocity": 127,
      "chip": "ym2612"
    },
    {
      "channel": 1,
      "note": 76,
      "start": 86.7852,
      "duration": 0.0616,
      "velocity": 95,
      "chip": "ym2612"
    },
    {
      "channel": 0,
      "note": 103,
      "start": 86.791,
      "duration": 0.0137,
      "velocity": 100,
      "chip": "ym2612"
    },
    {
      "channel": 2,
      "note": 92,
      "start": 86.8335,
      "duration": 0.2132,
      "velocity": 95,
      "chip": "ym2612"
    },
    {
      "channel": 0,
      "note": 88,
      "start": 86.8359,
      "duration": 0.2105,
      "velocity": 95,
      "chip": "ym2612"
    },
    {
      "channel": 3,
      "note": 97,
      "start": 86.8384,
      "duration": 0.1915,
      "velocity": 95,
      "chip": "ym2612"
    },
    {
      "channel": 4,
      "note": 100,
      "start": 86.842,
      "duration": 0.01,
      "velocity": 100,
      "chip": "ym2612"
    },
    {
      "channel": 1,
      "note": 52,
      "start": 86.9162,
      "duration": 0.247,
      "velocity": 116,
      "chip": "ym2612"
    },
    {
      "channel": 4,
      "note": 45,
      "start": 86.9188,
      "duration": 0.1112,
      "velocity": 127,
      "chip": "ym2612"
    },
    {
      "channel": 3,
      "note": 76,
      "start": 87.0333,
      "duration": 0.13,
      "velocity": 95,
      "chip": "ym2612"
    },
    {
      "channel": 5,
      "note": 103,
      "start": 87.0361,
      "duration": 0.0438,
      "velocity": 100,
      "chip": "ym2612"
    },
    {
      "channel": 4,
      "note": 45,
      "start": 87.1495,
      "duration": 0.1136,
      "velocity": 127,
      "chip": "ym2612"
    },
    {
      "channel": 0,
      "note": 95,
      "start": 87.1522,
      "duration": 0.2109,
      "velocity": 95,
      "chip": "ym2612"
    },
    {
      "channel": 2,
      "note": 88,
      "start": 87.1548,
      "duration": 0.2087,
      "velocity": 95,
      "chip": "ym2612"
    },
    {
      "channel": 5,
      "note": 92,
      "start": 87.1579,
      "duration": 0.2221,
      "velocity": 95,
      "chip": "ym2612"
    },
    {
      "channel": 1,
      "note": 52,
      "start": 87.2662,
      "duration": 0.0469,
      "velocity": 116,
      "chip": "ym2612"
    },
    {
      "channel": 4,
      "note": 45,
      "start": 87.2686,
      "duration": 0.1113,
      "velocity": 127,
      "chip": "ym2612"
    },
    {
      "channel": 3,
      "note": 100,
      "start": 87.2717,
      "duration": 0.0415,
      "velocity": 100,
      "chip": "ym2612"
    },
    {
      "channel": 1,
      "note": 52,
      "start": 87.3829,
      "duration": 0.1968,
      "velocity": 116,
      "chip": "ym2612"
    },
    {
      "channel": 4,
      "note": 45,
      "start": 87.3854,
      "duration": 0.1112,
      "velocity": 127,
      "chip": "ym2612"
    },
    {
      "channel": 0,
      "note": 76,
      "start": 87.3881,
      "duration": 0.125,
      "velocity": 95,
      "chip": "ym2612"
    },
    {
      "channel": 3,
      "note": 98,
      "start": 87.391,
      "duration": 0.0388,
      "velocity": 100,
      "chip": "ym2612"
    },
    {
      "channel": 4,
      "note": 45,
      "start": 87.4995,
      "duration": 0.1137,
      "velocity": 127,
      "chip": "ym2612"
    },
    {
      "channel": 5,
      "note": 88,
      "start": 87.5024,
      "duration": 0.117,
      "velocity": 95,
      "chip": "ym2612"
    },
    {
      "channel": 2,
      "note": 92,
      "start": 87.505,
      "duration": 0.166,
      "velocity": 95,
      "chip": "ym2612"
    },
    {
      "channel": 3,
      "note": 95,
      "start": 87.5076,
      "duration": 0.1632,
      "velocity": 95,
      "chip": "ym2612"
    },
    {
      "channel": 1,
      "note": 55,
      "start": 87.6159,
      "duration": 0.0981,
      "velocity": 116,
      "chip": "ym2612"
    },
    {
      "channel": 4,
      "note": 45,
      "start": 87.6185,
      "duration": 0.0447,
      "velocity": 127,
      "chip": "ym2612"
    },
    {
      "channel": 0,
      "note": 96,
      "start": 87.6252,
      "duration": 0.0132,
      "velocity": 100,
      "chip": "ym2612"
    },
    {
      "channel": 0,
      "note": 76,
      "start": 87.6671,
      "duration": 0.1135,
      "velocity": 95,
      "chip": "ym2612"
    },
    {
      "channel": 1,
      "note": 56,
      "start": 87.7332,
      "duration": 0.2141,
      "velocity": 116,
      "chip": "ym2612"
    },
    {
      "channel": 3,
      "note": 95,
      "start": 87.7364,
      "duration": 0.1776,
      "velocity": 95,
      "chip": "ym2612"
    },
    {
      "channel": 2,
      "note": 92,
      "start": 87.7392,
      "duration": 0.1917,
      "velocity": 95,
      "chip": "ym2612"
    },
    {
      "channel": 4,
      "note": 88,
      "start": 87.7418,
      "duration": 0.1889,
      "velocity": 95,
      "chip": "ym2612"
    },
    {
      "channel": 1,
      "note": 69,
      "start": 87.9682,
      "duration": 0.8892,
      "velocity": 116,
      "chip": "ym2612"
    },
    {
      "channel": 5,
      "note": 45,
      "start": 87.9722,
      "duration": 0.1085,
      "velocity": 127,
      "chip": "ym2612"
    },
    {
      "channel": 0,
      "note": 81,
      "start": 87.9759,
      "duration": 0.238,
      "velocity": 95,
      "chip": "ym2612"
    },
    {
      "channel": 3,
      "note": 96,
      "start": 88.2005,
      "duration": 0.2302,
      "velocity": 95,
      "chip": "ym2612"
    },
    {
      "channel": 4,
      "note": 93,
      "start": 88.2029,
      "duration": 0.2279,
      "velocity": 95,
      "chip": "ym2612"
    },
    {
      "channel": 2,
      "note": 88,
      "start": 88.2056,
      "duration": 0.2254,
      "velocity": 95,
      "chip": "ym2612"
    },
    {
      "channel": 5,
      "note": 93,
      "start": 88.2085,
      "duration": 0.0556,
      "velocity": 100,
      "chip": "ym2612"
    },
    {
      "channel": 0,
      "note": 45,
      "start": 88.4339,
      "duration": 0.0476,
      "velocity": 127,
      "chip": "ym2612"
    },
    {
      "channel": 3,
      "note": 81,
      "start": 88.4367,
      "duration": 0.0622,
      "velocity": 95,
      "chip": "ym2612"
    },
    {
      "channel": 4,
      "note": 96,
      "start": 88.443,
      "duration": 0.0199,
      "velocity": 100,
      "chip": "ym2612"
    },
    {
      "channel": 2,
      "note": 96,
      "start": 88.4857,
      "duration": 0.2085,
      "velocity": 95,
      "chip": "ym2612"
    },
    {
      "channel": 4,
      "note": 88,
      "start": 88.4881,
      "duration": 0.194,
      "velocity": 95,
      "chip": "ym2612"
    },
    {
      "channel": 0,
      "note": 93,
      "start": 88.4907,
      "duration": 0.0017,
      "velocity": 95,
      "chip": "ym2612"
    },
    {
      "channel": 0,
      "note": 93,
      "start": 88.4944,
      "duration": 0.0208,
      "velocity": 100,
      "chip": "ym2612"
    },
    {
      "channel": 3,
      "note": 81,
      "start": 88.6854,
      "duration": 0.0618,
      "velocity": 95,
      "chip": "ym2612"
    },
    {
      "channel": 0,
      "note": 98,
      "start": 88.6913,
      "duration": 0.021,
      "velocity": 100,
      "chip": "ym2612"
    },
    {
      "channel": 4,
      "note": 45,
      "start": 88.7339,
      "duration": 0.0826,
      "velocity": 127,
      "chip": "ym2612"
    },
    {
      "channel": 2,
      "note": 96,
      "start": 88.7366,
      "duration": 0.1392,
      "velocity": 95,
      "chip": "ym2612"
    },
    {
      "channel": 0,
      "note": 88,
      "start": 88.7389,
      "duration": 0.0019,
      "velocity": 95,
      "chip": "ym2612"
    },
    {
      "channel": 0,
      "note": 93,
      "start": 88.7427,
      "duration": 0.1299,
      "velocity": 95,
      "chip": "ym2612"
    },
    {
      "channel": 3,
      "note": 96,
      "start": 88.8233,
      "duration": 0.0154,
      "velocity": 100,
      "chip": "ym2612"
    },
    {
      "channel": 1,
      "note": 69,
      "start": 88.8659,
      "duration": 0.2319,
      "velocity": 116,
      "chip": "ym2612"
    },
    {
      "channel": 4,
      "note": 45,
      "start": 88.8681,
      "duration": 0.0835,
      "velocity": 127,
      "chip": "ym2612"
    },
    {
      "channel": 3,
      "note": 81,
      "start": 88.8708,
      "duration": 0.0973,
      "velocity": 95,
      "chip": "ym2612"
    },
    {
      "channel": 0,
      "note": 99,
      "start": 88.8745,
      "duration": 0.0125,
      "velocity": 100,
      "chip": "ym2612"
    },
    {
      "channel": 2,
      "note": 88,
      "start": 88.9551,
      "duration": 0.1617,
      "velocity": 95,
      "chip": "ym2612"
    },
    {
      "channel": 5,
      "note": 96,
      "start": 88.9577,
      "duration": 0.1141,
      "velocity": 95,
      "chip": "ym2612"
    },
    {
      "channel": 0,
      "note": 93,
      "start": 88.9605,
      "duration": 0.1701,
      "velocity": 95,
      "chip": "ym2612"
    },
    {
      "channel": 4,
      "note": 45,
      "start": 89.071,
      "duration": 0.0456,
      "velocity": 127,
      "chip": "ym2612"
    },
    {
      "channel": 3,
      "note": 100,
      "start": 89.0774,
      "duration": 0.0145,
      "velocity": 100,
      "chip": "ym2612"
    },
    {
      "channel": 1,
      "note": 69,
      "start": 89.1191,
      "duration": 0.2331,
      "velocity": 116,
      "chip": "ym2612"
    },
    {
      "channel": 2,
      "note": 81,
      "start": 89.1218,
      "duration": 0.0805,
      "velocity": 95,
      "chip": "ym2612"
    },
    {
      "channel": 4,
      "note": 45,
      "start": 89.2051,
      "duration": 0.1138,
      "velocity": 127,
      "chip": "ym2612"
    },
    {
      "channel": 0,
      "note": 88,
      "start": 89.2081,
      "duration": 0.194,
      "velocity": 95,
      "chip": "ym2612"
    },
    {
      "channel": 2,
      "note": 93,
      "start": 89.2108,
      "duration": 0.2416,
      "velocity": 95,
      "chip": "ym2612"
    },
    {
      "channel": 3,
      "note": 96,
      "start": 89.2136,
      "duration": 0.2219,
      "velocity": 95,
      "chip": "ym2612"
    },
    {
      "channel": 1,
      "note": 65,
      "start": 89.4385,
      "duration": 0.8731,
      "velocity": 116,
      "chip": "ym2612"
    },
    {
      "channel": 4,
      "note": 45,
      "start": 89.4412,
      "duration": 0.1111,
      "velocity": 127,
      "chip": "ym2612"
    },
    {
      "channel": 0,
      "note": 77,
      "start": 89.4435,
      "duration": 0.2085,
      "velocity": 95,
      "chip": "ym2612"
    },
    {
      "channel": 0,
      "note": 89,
      "start": 89.6554,
      "duration": 0.2134,
      "velocity": 95,
      "chip": "ym2612"
    },
    {
      "channel": 3,
      "note": 96,
      "start": 89.6577,
      "duration": 0.2112,
      "velocity": 95,
      "chip": "ym2612"
    },
    {
      "channel": 2,
      "note": 93,
      "start": 89.6604,
      "duration": 0.2088,
      "velocity": 95,
      "chip": "ym2612"
    },
    {
      "channel": 5,
      "note": 93,
      "start": 89.6637,
      "duration": 0.0552,
      "velocity": 100,
      "chip": "ym2612"
    },
    {
      "channel": 4,
      "note": 45,
      "start": 89.8883,
      "duration": 0.0475,
      "velocity": 127,
      "chip": "ym2612"
    },
    {
      "channel": 0,
      "note": 77,
      "start": 89.8914,
      "duration": 0.0537,
      "velocity": 95,
      "chip": "ym2612"
    },
    {
      "channel": 3,
      "note": 96,
      "start": 89.8974,
      "duration": 0.0199,
      "velocity": 100,
      "chip": "ym2612"
    },
    {
      "channel": 2,
      "note": 89,
      "start": 89.9396,
      "duration": 0.1971,
      "velocity": 95,
      "chip": "ym2612"
    },
    {
      "channel": 3,
      "note": 93,
      "start": 89.9419,
      "duration": 0.1946,
      "velocity": 95,
      "chip": "ym2612"
    },
    {
      "channel": 4,
      "note": 96,
      "start": 89.9444,
      "duration": 0.2039,
      "velocity": 95,
      "chip": "ym2612"
    },
    {
      "channel": 0,
      "note": 93,
      "start": 89.9471,
      "duration": 0.0226,
      "velocity": 100,
      "chip": "ym2612"
    },
    {
      "channel": 3,
      "note": 77,
      "start": 90.1398,
      "duration": 0.0583,
      "velocity": 95,
      "chip": "ym2612"
    },
    {
      "channel": 0,
      "note": 98,
      "start": 90.1457,
      "duration": 0.0208,
      "velocity": 100,
      "chip": "ym2612"
    },
    {
      "channel": 2,
      "note": 45,
      "start": 90.188,
      "duration": 0.0828,
      "velocity": 127,
      "chip": "ym2612"
    },
    {
      "channel": 4,
      "note": 89,
      "start": 90.1905,
      "duration": 0.1271,
      "velocity": 95,
      "chip": "ym2612"
    },
    {
      "channel": 0,
      "note": 93,
      "start": 90.1927,
      "duration": 0.0021,
      "velocity": 95,
      "chip": "ym2612"
    },
    {
      "channel": 0,
      "note": 96,
      "start": 90.1967,
      "duration": 0.1332,
      "velocity": 95,
      "chip": "ym2612"
    },
    {
      "channel": 3,
      "note": 96,
      "start": 90.2779,
      "duration": 0.022,
      "velocity": 100,
      "chip": "ym2612"
    },
    {
      "channel": 1,
      "note": 65,
      "start": 90.3202,
      "duration": 0.2237,
      "velocity": 116,
      "chip": "ym2612"
    },
    {
      "channel": 2,
      "note": 45,
      "start": 90.3228,
      "duration": 0.0807,
      "velocity": 127,
      "chip": "ym2612"
    },
    {
      "channel": 4,
      "note": 77,
      "start": 90.3263,
      "duration": 0.0939,
      "velocity": 95,
      "chip": "ym2612"
    },
    {
      "channel": 3,
      "note": 99,
      "start": 90.3287,
      "duration": 0.0247,
      "velocity": 100,
      "chip": "ym2612"
    },
    {
      "channel": 0,
      "note": 89,
      "start": 90.4066,
      "duration": 0.1627,
      "velocity": 95,
      "chip": "ym2612"
    },
    {
      "channel": 5,
      "note": 93,
      "start": 90.4091,
      "duration": 0.115,
      "velocity": 95,
      "chip": "ym2612"
    },
    {
      "channel": 3,
      "note": 96,
      "start": 90.4119,
      "duration": 0.1713,
      "velocity": 95,
      "chip": "ym2612"
    },
    {
      "channel": 2,
      "note": 45,
      "start": 90.5232,
      "duration": 0.0463,
      "velocity": 127,
      "chip": "ym2612"
    },
    {
      "channel": 4,
      "note": 93,
      "start": 90.5295,
      "duration": 0.0144,
      "velocity": 100,
      "chip": "ym2612"
    },
    {
      "channel": 1,
      "note": 65,
      "start": 90.5722,
      "duration": 0.2653,
      "velocity": 116,
      "chip": "ym2612"
    },
    {
      "channel": 0,
      "note": 77,
      "start": 90.5746,
      "duration": 0.0797,
      "velocity": 95,
      "chip": "ym2612"
    },
    {
      "channel": 0,
      "note": 89,
      "start": 90.6579,
      "duration": 0.163,
      "velocity": 95,
      "chip": "ym2612"
    },
    {
      "channel": 3,
      "note": 93,
      "start": 90.6604,
      "duration": 0.1772,
      "velocity": 95,
      "chip": "ym2612"
    },
    {
      "channel": 4,
      "note": 96,
      "start": 90.6632,
      "duration": 0.2078,
      "velocity": 95,
      "chip": "ym2612"
    },
    {
      "channel": 1,
      "note": 62,
      "start": 90.8907,
      "duration": 0.8734,
      "velocity": 116,
      "chip": "ym2612"
    },
    {
      "channel": 2,
      "note": 45,
      "start": 90.8933,
      "duration": 0.1112,
      "velocity": 127,
      "chip": "ym2612"
    },
    {
      "channel": 0,
      "note": 78,
      "start": 90.8958,
      "duration": 0.2417,
      "velocity": 95,
      "chip": "ym2612"
    },
    {
      "channel": 3,
      "note": 93,
      "start": 91.1242,
      "duration": 0.23,
      "velocity": 95,
      "chip": "ym2612"
    },
    {
      "channel": 4,
      "note": 98,
      "start": 91.1268,
      "duration": 0.1943,
      "velocity": 95,
      "chip": "ym2612"
    },
    {
      "channel": 5,
      "note": 90,
      "start": 91.1294,
      "duration": 0.1919,
      "velocity": 95,
      "chip": "ym2612"
    },
    {
      "channel": 2,
      "note": 93,
      "start": 91.1324,
      "duration": 0.0387,
      "velocity": 100,
      "chip": "ym2612"
    },
    {
      "channel": 0,
      "note": 45,
      "start": 91.3573,
      "duration": 0.0473,
      "velocity": 127,
      "chip": "ym2612"
    },
    {
      "channel": 3,
      "note": 78,
      "start": 91.3604,
      "duration": 0.0579,
      "velocity": 95,
      "chip": "ym2612"
    },
    {
      "channel": 2,
      "note": 96,
      "start": 91.3666,
      "duration": 0.0139,
      "velocity": 100,
      "chip": "ym2612"
    },
    {
      "channel": 4,
      "note": 90,
      "start": 91.4085,
      "duration": 0.1803,
      "velocity": 95,
      "chip": "ym2612"
    },
    {
      "channel": 2,
      "note": 98,
      "start": 91.4108,
      "duration": 0.1782,
      "velocity": 95,
      "chip": "ym2612"
    },
    {
      "channel": 0,
      "note": 93,
      "start": 91.4134,
      "duration": 0.0019,
      "velocity": 95,
      "chip": "ym2612"
    },
    {
      "channel": 0,
      "note": 93,
      "start": 91.4172,
      "duration": 0.0102,
      "velocity": 100,
      "chip": "ym2612"
    },
    {
      "channel": 3,
      "note": 78,
      "start": 91.5922,
      "duration": 0.0622,
      "velocity": 95,
      "chip": "ym2612"
    },
    {
      "channel": 0,
      "note": 98,
      "start": 91.5981,
      "duration": 0.0213,
      "velocity": 100,
      "chip": "ym2612"
    },
    {
      "channel": 4,
      "note": 45,
      "start": 91.6412,
      "duration": 0.0822,
      "velocity": 127,
      "chip": "ym2612"
    },
    {
      "channel": 2,
      "note": 90,
      "start": 91.6436,
      "duration": 0.1206,
      "velocity": 95,
      "chip": "ym2612"
    },
    {
      "channel": 0,
      "note": 98,
      "start": 91.6462,
      "duration": 0.0018,
      "velocity": 95,
      "chip": "ym2612"
    },
    {
      "channel": 0,
      "note": 93,
      "start": 91.6499,
      "duration": 0.12,
      "velocity": 95,
      "chip": "ym2612"
    },
    {
      "channel": 3,
      "note": 96,
      "start": 91.7301,
      "duration": 0.0219,
      "velocity": 100,
      "chip": "ym2612"
    },
    {
      "channel": 1,
      "note": 62,
      "start": 91.7726,
      "duration": 0.2365,
      "velocity": 116,
      "chip": "ym2612"
    },
    {
      "channel": 4,
      "note": 45,
      "start": 91.7747,
      "duration": 0.0818,
      "velocity": 127,
      "chip": "ym2612"
    },
    {
      "channel": 0,
      "note": 78,
      "start": 91.7772,
      "duration": 0.079,
      "velocity": 95,
      "chip": "ym2612"
    },
    {
      "channel": 3,
      "note": 99,
      "start": 91.7807,
      "duration": 0.0256,
      "velocity": 100,
      "chip": "ym2612"
    },
    {
      "channel": 0,
      "note": 90,
      "start": 91.8596,
      "duration": 0.1559,
      "velocity": 95,
      "chip": "ym2612"
    },
    {
      "channel": 2,
      "note": 93,
      "start": 91.8624,
      "duration": 0.16,
      "velocity": 95,
      "chip": "ym2612"
    },
    {
      "channel": 5,
      "note": 98,
      "start": 91.8652,
      "duration": 0.1115,
      "velocity": 95,
      "chip": "ym2612"
    },
    {
      "channel": 4,
      "note": 45,
      "start": 91.9759,
      "duration": 0.0464,
      "velocity": 127,
      "chip": "ym2612"
    },
    {
      "channel": 3,
      "note": 100,
      "start": 91.982,
      "duration": 0.0213,
      "velocity": 100,
      "chip": "ym2612"
    },
    {
      "channel": 1,
      "note": 62,
      "start": 92.0246,
      "duration": 0.2826,
      "velocity": 116,
      "chip": "ym2612"
    },
    {
      "channel": 0,
      "note": 78,
      "start": 92.0272,
      "duration": 0.1133,
      "velocity": 95,
      "chip": "ym2612"
    },
    {
      "channel": 4,
      "note": 45,
      "start": 92.11,
      "duration": 0.1139,
      "velocity": 127,
      "chip": "ym2612"
    },
    {
      "channel": 2,
      "note": 93,
      "start": 92.113,
      "duration": 0.2113,
      "velocity": 95,
      "chip": "ym2612"
    },
    {
      "channel": 3,
      "note": 90,
      "start": 92.1155,
      "duration": 0.2085,
      "velocity": 95,
      "chip": "ym2612"
    },
    {
      "channel": 5,
      "note": 98,
      "start": 92.1182,
      "duration": 0.2059,
      "velocity": 95,
      "chip": "ym2612"
    },
    {
      "channel": 1,
      "note": 72,
      "start": 92.3435,
      "duration": 0.2137,
      "velocity": 116,
      "chip": "ym2612"
    },
    {
      "channel": 4,
      "note": 45,
      "start": 92.3462,
      "duration": 0.1111,
      "velocity": 127,
      "chip": "ym2612"
    },
    {
      "channel": 0,
      "note": 76,
      "start": 92.3486,
      "duration": 0.2419,
      "velocity": 95,
      "chip": "ym2612"
    },
    {
      "channel": 1,
      "note": 67,
      "start": 92.5767,
      "duration": 0.1805,
      "velocity": 116,
      "chip": "ym2612"
    },
    {
      "channel": 3,
      "note": 97,
      "start": 92.5796,
      "duration": 0.211,
      "velocity": 95,
      "chip": "ym2612"
    },
    {
      "channel": 5,
      "note": 88,
      "start": 92.582,
      "duration": 0.2086,
      "velocity": 95,
      "chip": "ym2612"
    },
    {
      "channel": 2,
      "note": 92,
      "start": 92.5852,
      "duration": 0.2221,
      "velocity": 95,
      "chip": "ym2612"
    },
    {
      "channel": 4,
      "note": 105,
      "start": 92.5882,
      "duration": 0.0358,
      "velocity": 100,
      "chip": "ym2612"
    },
    {
      "channel": 1,
      "note": 69,
      "start": 92.8101,
      "duration": 0.1136,
      "velocity": 116,
      "chip": "ym2612"
    },
    {
      "channel": 0,
      "note": 45,
      "start": 92.8127,
      "duration": 0.0454,
      "velocity": 127,
      "chip": "ym2612"
    },
    {
      "channel": 3,
      "note": 76,
      "start": 92.8154,
      "duration": 0.0592,
      "velocity": 95,
      "chip": "ym2612"
    },
    {
      "channel": 4,
      "note": 103,
      "start": 92.8216,
      "duration": 0.0132,
      "velocity": 100,
      "chip": "ym2612"
    },
    {
      "channel": 2,
      "note": 92,
      "start": 92.861,
      "duration": 0.208,
      "velocity": 95,
      "chip": "ym2612"
    },
    {
      "channel": 4,
      "note": 88,
      "start": 92.8643,
      "duration": 0.2047,
      "velocity": 95,
      "chip": "ym2612"
    },
    {
      "channel": 0,
      "note": 97,
      "start": 92.8668,
      "duration": 0.0008,
      "velocity": 95,
      "chip": "ym2612"
    },
    {
      "channel": 0,
      "note": 100,
      "start": 92.8695,
      "duration": 0.0108,
      "velocity": 100,
      "chip": "ym2612"
    },
    {
      "channel": 1,
      "note": 64,
      "start": 92.9434,
      "duration": 0.15,
      "velocity": 116,
      "chip": "ym2612"
    },
    {
      "channel": 3,
      "note": 76,
      "start": 93.0604,
      "duration": 0.0606,
      "velocity": 95,
      "chip": "ym2612"
    },
    {
      "channel": 0,
      "note": 103,
      "start": 93.0662,
      "duration": 0.015,
      "velocity": 100,
      "chip": "ym2612"
    },
    {
      "channel": 1,
      "note": 67,
      "start": 93.1084,
      "duration": 0.1183,
      "velocity": 116,
      "chip": "ym2612"
    },
    {
      "channel": 4,
      "note": 45,
      "start": 93.111,
      "duration": 0.0805,
      "velocity": 127,
      "chip": "ym2612"
    },
    {
      "channel": 2,
      "note": 95,
      "start": 93.1138,
      "duration": 0.1131,
      "velocity": 95,
      "chip": "ym2612"
    },
    {
      "channel": 0,
      "note": 88,
      "start": 93.1169,
      "duration": 0.0008,
      "velocity": 95,
      "chip": "ym2612"
    },
    {
      "channel": 0,
      "note": 92,
      "start": 93.1196,
      "duration": 0.1132,
      "velocity": 95,
      "chip": "ym2612"
    },
    {
      "channel": 3,
      "note": 100,
      "start": 93.199,
      "duration": 0.0151,
      "velocity": 100,
      "chip": "ym2612"
    },
    {
      "channel": 1,
      "note": 62,
      "start": 93.2359,
      "duration": 0.1723,
      "velocity": 116,
      "chip": "ym2612"
    },
    {
      "channel": 4,
      "note": 45,
      "start": 93.2382,
      "duration": 0.0702,
      "velocity": 127,
      "chip": "ym2612"
    },
    {
      "channel": 0,
      "note": 76,
      "start": 93.2407,
      "duration": 0.1008,
      "velocity": 95,
      "chip": "ym2612"
    },
    {
      "channel": 3,
      "note": 98,
      "start": 93.2432,
      "duration": 0.0183,
      "velocity": 100,
      "chip": "ym2612"
    },
    {
      "channel": 2,
      "note": 88,
      "start": 93.3119,
      "duration": 0.1572,
      "velocity": 95,
      "chip": "ym2612"
    },
    {
      "channel": 3,
      "note": 92,
      "start": 93.3146,
      "duration": 0.1735,
      "velocity": 95,
      "chip": "ym2612"
    },
    {
      "channel": 5,
      "note": 95,
      "start": 93.3172,
      "duration": 0.1144,
      "velocity": 95,
      "chip": "ym2612"
    },
    {
      "channel": 1,
      "note": 63,
      "start": 93.4277,
      "duration": 0.1145,
      "velocity": 116,
      "chip": "ym2612"
    },
    {
      "channel": 4,
      "note": 45,
      "start": 93.4307,
      "duration": 0.0445,
      "velocity": 127,
      "chip": "ym2612"
    },
    {
      "channel": 0,
      "note": 96,
      "start": 93.4369,
      "duration": 0.0197,
      "velocity": 100,
      "chip": "ym2612"
    },
    {
      "channel": 2,
      "note": 76,
      "start": 93.4791,
      "duration": 0.1299,
      "velocity": 95,
      "chip": "ym2612"
    },
    {
      "channel": 1,
      "note": 64,
      "start": 93.5618,
      "duration": 0.1972,
      "velocity": 116,
      "chip": "ym2612"
    },
    {
      "channel": 3,
      "note": 95,
      "start": 93.5646,
      "duration": 0.1776,
      "velocity": 95,
      "chip": "ym2612"
    },
    {
      "channel": 0,
      "note": 92,
      "start": 93.5673,
      "duration": 0.1915,
      "velocity": 95,
      "chip": "ym2612"
    },
    {
      "channel": 4,
      "note": 88,
      "start": 93.57,
      "duration": 0.1892,
      "velocity": 95,
      "chip": "ym2612"
    },
    {
      "channel": 1,
      "note": 57,
      "start": 93.7952,
      "duration": 0.1044,
      "velocity": 116,
      "chip": "ym2612"
    },
    {
      "channel": 5,
      "note": 45,
      "start": 93.7979,
      "duration": 0.0034,
      "velocity": 127,
      "chip": "ym2612"
    },
    {
      "channel": 0,
      "note": 81,
      "start": 93.8005,
      "duration": 0.0962,
      "velocity": 95,
      "chip": "ym2612"
    },
    {
      "channel": 3,
      "note": 96,
      "start": 93.89,
      "duration": 0.1574,
      "velocity": 95,
      "chip": "ym2612"
    },
    {
      "channel": 4,
      "note": 93,
      "start": 93.8922,
      "duration": 0.1553,
      "velocity": 95,
      "chip": "ym2612"
    },
    {
      "channel": 2,
      "note": 88,
      "start": 93.8957,
      "duration": 0.152,
      "velocity": 95,
      "chip": "ym2612"
    },
    {
      "channel": 0,
      "note": 93,
      "start": 93.8986,
      "duration": 0.0171,
      "velocity": 100,
      "chip": "ym2612"
    },
    {
      "channel": 1,
      "note": 57,
      "start": 93.9365,
      "duration": 0.1605,
      "velocity": 116,
      "chip": "ym2612"
    },
    {
      "channel": 0,
      "note": 45,
      "start": 93.9397,
      "duration": 0.1075,
      "velocity": 127,
      "chip": "ym2612"
    },
    {
      "channel": 0,
      "note": 45,
      "start": 94.0504,
      "duration": 0.0465,
      "velocity": 127,
      "chip": "ym2612"
    },
    {
      "channel": 3,
      "note": 81,
      "start": 94.0532,
      "duration": 0.0608,
      "velocity": 95,
      "chip": "ym2612"
    },
    {
      "channel": 4,
      "note": 96,
      "start": 94.0593,
      "duration": 0.0136,
      "velocity": 100,
      "chip": "ym2612"
    },
    {
      "channel": 2,
      "note": 96,
      "start": 94.101,
      "duration": 0.2134,
      "velocity": 95,
      "chip": "ym2612"
    },
    {
      "channel": 4,
      "note": 88,
      "start": 94.1034,
      "duration": 0.1942,
      "velocity": 95,
      "chip": "ym2612"
    },
    {
      "channel": 0,
      "note": 93,
      "start": 94.1059,
      "duration": 0.2249,
      "velocity": 95,
      "chip": "ym2612"
    },
    {
      "channel": 1,
      "note": 93,
      "start": 94.1094,
      "duration": 0.0101,
      "velocity": 100,
      "chip": "ym2612"
    },
    {
      "channel": 3,
      "note": 57,
      "start": 94.1839,
      "duration": 0.247,
      "velocity": 116,
      "chip": "ym2612"
    },
    {
      "channel": 1,
      "note": 45,
      "start": 94.1865,
      "duration": 0.1111,
      "velocity": 127,
      "chip": "ym2612"
    },
    {
      "channel": 4,
      "note": 81,
      "start": 94.301,
      "duration": 0.1465,
      "velocity": 95,
      "chip": "ym2612"
    },
    {
      "channel": 5,
      "note": 98,
      "start": 94.3039,
      "duration": 0.0437,
      "velocity": 100,
      "chip": "ym2612"
    },
    {
      "channel": 1,
      "note": 45,
      "start": 94.4169,
      "duration": 0.1139,
      "velocity": 127,
      "chip": "ym2612"
    },
    {
      "channel": 0,
      "note": 96,
      "start": 94.42,
      "duration": 0.2441,
      "velocity": 95,
      "chip": "ym2612"
    },
    {
      "channel": 2,
      "note": 88,
      "start": 94.4227,
      "duration": 0.225,
      "velocity": 95,
      "chip": "ym2612"
    },
    {
      "channel": 5,
      "note": 93,
      "start": 94.4255,
      "duration": 0.2555,
      "velocity": 95,
      "chip": "ym2612"
    },
    {
      "channel": 3,
      "note": 57,
      "start": 94.534,
      "duration": 0.097,
      "velocity": 116,
      "chip": "ym2612"
    },
    {
      "channel": 4,
      "note": 96,
      "start": 94.5372,
      "duration": 0.0438,
      "velocity": 100,
      "chip": "ym2612"
    },
    {
      "channel": 3,
      "note": 60,
      "start": 94.651,
      "duration": 0.1965,
      "velocity": 116,
      "chip": "ym2612"
    },
    {
      "channel": 1,
      "note": 45,
      "start": 94.6533,
      "duration": 0.1108,
      "velocity": 127,
      "chip": "ym2612"
    },
    {
      "channel": 2,
      "note": 81,
      "start": 94.6563,
      "duration": 0.1247,
      "velocity": 95,
      "chip": "ym2612"
    },
    {
      "channel": 4,
      "note": 99,
      "start": 94.6596,
      "duration": 0.038,
      "velocity": 100,
      "chip": "ym2612"
    },
    {
      "channel": 0,
      "note": 88,
      "start": 94.7675,
      "duration": 0.1634,
      "velocity": 95,
      "chip": "ym2612"
    },
    {
      "channel": 5,
      "note": 96,
      "start": 94.7701,
      "duration": 0.1168,
      "velocity": 95,
      "chip": "ym2612"
    },
    {
      "channel": 4,
      "note": 93,
      "start": 94.7732,
      "duration": 0.1723,
      "velocity": 95,
      "chip": "ym2612"
    },
    {
      "channel": 3,
      "note": 57,
      "start": 94.8836,
      "duration": 0.0984,
      "velocity": 116,
      "chip": "ym2612"
    },
    {
      "channel": 1,
      "note": 45,
      "start": 94.8862,
      "duration": 0.0448,
      "velocity": 127,
      "chip": "ym2612"
    },
    {
      "channel": 2,
      "note": 100,
      "start": 94.8924,
      "duration": 0.0143,
      "velocity": 100,
      "chip": "ym2612"
    },
    {
      "channel": 1,
      "note": 45,
      "start": 94.9343,
      "duration": 0.0811,
      "velocity": 127,
      "chip": "ym2612"
    },
    {
      "channel": 0,
      "note": 81,
      "start": 94.9367,
      "duration": 0.0786,
      "velocity": 95,
      "chip": "ym2612"
    },
    {
      "channel": 3,
      "note": 55,
      "start": 95.0184,
      "duration": 0.1637,
      "velocity": 116,
      "chip": "ym2612"
    },
    {
      "channel": 0,
      "note": 88,
      "start": 95.0212,
      "duration": 0.194,
      "velocity": 95,
      "chip": "ym2612"
    },
    {
      "channel": 4,
      "note": 93,
      "start": 95.0237,
      "duration": 0.2277,
      "velocity": 95,
      "chip": "ym2612"
    },
    {
      "channel": 2,
      "note": 96,
      "start": 95.0266,
      "duration": 0.2056,
      "velocity": 95,
      "chip": "ym2612"
    },
    {
      "channel": 5,
      "note": 103,
      "start": 95.0296,
      "duration": 0.0359,
      "velocity": 100,
      "chip": "ym2612"
    },
    {
      "channel": 3,
      "note": 57,
      "start": 95.2351,
      "duration": 0.12,
      "velocity": 116,
      "chip": "ym2612"
    },
    {
      "channel": 1,
      "note": 45,
      "start": 95.2375,
      "duration": 0.0454,
      "velocity": 127,
      "chip": "ym2612"
    },
    {
      "channel": 0,
      "note": 77,
      "start": 95.2399,
      "duration": 0.0859,
      "velocity": 95,
      "chip": "ym2612"
    },
    {
      "channel": 0,
      "note": 89,
      "start": 95.329,
      "duration": 0.1415,
      "velocity": 95,
      "chip": "ym2612"
    },
    {
      "channel": 4,
      "note": 96,
      "start": 95.3322,
      "duration": 0.1385,
      "velocity": 95,
      "chip": "ym2612"
    },
    {
      "channel": 2,
      "note": 93,
      "start": 95.3345,
      "duration": 0.1364,
      "velocity": 95,
      "chip": "ym2612"
    },
    {
      "channel": 1,
      "note": 93,
      "start": 95.3372,
      "duration": 0.0179,
      "velocity": 100,
      "chip": "ym2612"
    },
    {
      "channel": 3,
      "note": 57,
      "start": 95.3762,
      "duration": 0.1739,
      "velocity": 116,
      "chip": "ym2612"
    },
    {
      "channel": 1,
      "note": 45,
      "start": 95.3803,
      "duration": 0.1069,
      "velocity": 127,
      "chip": "ym2612"
    },
    {
      "channel": 1,
      "note": 45,
      "start": 95.4902,
      "duration": 0.0466,
      "velocity": 127,
      "chip": "ym2612"
    },
    {
      "channel": 0,
      "note": 77,
      "start": 95.4929,
      "duration": 0.0542,
      "velocity": 95,
      "chip": "ym2612"
    },
    {
      "channel": 4,
      "note": 96,
      "start": 95.4988,
      "duration": 0.0198,
      "velocity": 100,
      "chip": "ym2612"
    },
    {
      "channel": 2,
      "note": 89,
      "start": 95.5405,
      "duration": 0.1979,
      "velocity": 95,
      "chip": "ym2612"
    },
    {
      "channel": 4,
      "note": 93,
      "start": 95.5428,
      "duration": 0.1954,
      "velocity": 95,
      "chip": "ym2612"
    },
    {
      "channel": 1,
      "note": 96,
      "start": 95.5454,
      "duration": 0.2093,
      "velocity": 95,
      "chip": "ym2612"
    },
    {
      "channel": 0,
      "note": 93,
      "start": 95.549,
      "duration": 0.0222,
      "velocity": 100,
      "chip": "ym2612"
    },
    {
      "channel": 3,
      "note": 57,
      "start": 95.6243,
      "duration": 0.2805,
      "velocity": 116,
      "chip": "ym2612"
    },
    {
      "channel": 5,
      "note": 45,
      "start": 95.6268,
      "duration": 0.1115,
      "velocity": 127,
      "chip": "ym2612"
    },
    {
      "channel": 4,
      "note": 77,
      "start": 95.742,
      "duration": 0.1295,
      "velocity": 95,
      "chip": "ym2612"
    },
    {
      "channel": 0,
      "note": 98,
      "start": 95.7446,
      "duration": 0.06,
      "velocity": 100,
      "chip": "ym2612"
    },
    {
      "channel": 5,
      "note": 45,
      "start": 95.8577,
      "duration": 0.1137,
      "velocity": 127,
      "chip": "ym2612"
    },
    {
      "channel": 1,
      "note": 89,
      "start": 95.8604,
      "duration": 0.2276,
      "velocity": 95,
      "chip": "ym2612"
    },
    {
      "channel": 2,
      "note": 93,
      "start": 95.8629,
      "duration": 0.2253,
      "velocity": 95,
      "chip": "ym2612"
    },
    {
      "channel": 0,
      "note": 96,
      "start": 95.8658,
      "duration": 0.2388,
      "velocity": 95,
      "chip": "ym2612"
    },
    {
      "channel": 3,
      "note": 57,
      "start": 95.9745,
      "duration": 0.0802,
      "velocity": 116,
      "chip": "ym2612"
    },
    {
      "channel": 5,
      "note": 45,
      "start": 95.977,
      "duration": 0.1111,
      "velocity": 127,
      "chip": "ym2612"
    },
    {
      "channel": 4,
      "note": 96,
      "start": 95.9801,
      "duration": 0.0414,
      "velocity": 100,
      "chip": "ym2612"
    },
    {
      "channel": 3,
      "note": 64,
      "start": 96.0916,
      "duration": 0.2132,
      "velocity": 116,
      "chip": "ym2612"
    },
    {
      "channel": 5,
      "note": 45,
      "start": 96.0941,
      "duration": 0.1106,
      "velocity": 127,
      "chip": "ym2612"
    },
    {
      "channel": 1,
      "note": 77,
      "start": 96.0969,
      "duration": 0.1245,
      "velocity": 95,
      "chip": "ym2612"
    },
    {
      "channel": 4,
      "note": 99,
      "start": 96.0997,
      "duration": 0.0384,
      "velocity": 100,
      "chip": "ym2612"
    },
    {
      "channel": 5,
      "note": 45,
      "start": 96.2077,
      "duration": 0.1138,
      "velocity": 127,
      "chip": "ym2612"
    },
    {
      "channel": 0,
      "note": 89,
      "start": 96.2103,
      "duration": 0.161,
      "velocity": 95,
      "chip": "ym2612"
    },
    {
      "channel": 2,
      "note": 93,
      "start": 96.2128,
      "duration": 0.1586,
      "velocity": 95,
      "chip": "ym2612"
    },
    {
      "channel": 4,
      "note": 96,
      "start": 96.216,
      "duration": 0.1689,
      "velocity": 95,
      "chip": "ym2612"
    },
    {
      "channel": 3,
      "note": 63,
      "start": 96.3241,
      "duration": 0.115,
      "velocity": 116,
      "chip": "ym2612"
    },
    {
      "channel": 5,
      "note": 45,
      "start": 96.3268,
      "duration": 0.0007,
      "velocity": 127,
      "chip": "ym2612"
    },
    {
      "channel": 1,
      "note": 98,
      "start": 96.3335,
      "duration": 0.0132,
      "velocity": 100,
      "chip": "ym2612"
    },
    {
      "channel": 0,
      "note": 77,
      "start": 96.3751,
      "duration": 0.0805,
      "velocity": 95,
      "chip": "ym2612"
    },
    {
      "channel": 3,
      "note": 62,
      "start": 96.4585,
      "duration": 0.1973,
      "velocity": 116,
      "chip": "ym2612"
    },
    {
      "channel": 0,
      "note": 89,
      "start": 96.4613,
      "duration": 0.161,
      "velocity": 95,
      "chip": "ym2612"
    },
    {
      "channel": 4,
      "note": 93,
      "start": 96.4638,
      "duration": 0.1753,
      "velocity": 95,
      "chip": "ym2612"
    },
    {
      "channel": 2,
      "note": 96,
      "start": 96.4667,
      "duration": 0.1893,
      "velocity": 95,
      "chip": "ym2612"
    },
    {
      "channel": 3,
      "note": 57,
      "start": 96.6921,
      "duration": 0.1027,
      "velocity": 116,
      "chip": "ym2612"
    },
    {
      "channel": 1,
      "note": 45,
      "start": 96.6949,
      "duration": 0.0454,
      "velocity": 127,
      "chip": "ym2612"
    },
    {
      "channel": 0,
      "note": 78,
      "start": 96.6974,
      "duration": 0.0944,
      "velocity": 95,
      "chip": "ym2612"
    },
    {
      "channel": 4,
      "note": 93,
      "start": 96.7854,
      "duration": 0.1408,
      "velocity": 95,
      "chip": "ym2612"
    },
    {
      "channel": 2,
      "note": 98,
      "start": 96.7888,
      "duration": 0.1208,
      "velocity": 95,
      "chip": "ym2612"
    },
    {
      "channel": 1,
      "note": 90,
      "start": 96.7911,
      "duration": 0.1183,
      "velocity": 95,
      "chip": "ym2612"
    },
    {
      "channel": 0,
      "note": 93,
      "start": 96.7937,
      "duration": 0.0118,
      "velocity": 100,
      "chip": "ym2612"
    },
    {
      "channel": 3,
      "note": 57,
      "start": 96.8255,
      "duration": 0.1688,
      "velocity": 116,
      "chip": "ym2612"
    },
    {
      "channel": 0,
      "note": 45,
      "start": 96.8278,
      "duration": 0.0982,
      "velocity": 127,
      "chip": "ym2612"
    },
    {
      "channel": 0,
      "note": 45,
      "start": 96.9295,
      "duration": 0.0474,
      "velocity": 127,
      "chip": "ym2612"
    },
    {
      "channel": 1,
      "note": 78,
      "start": 96.9322,
      "duration": 0.062,
      "velocity": 95,
      "chip": "ym2612"
    },
    {
      "channel": 2,
      "note": 96,
      "start": 96.9382,
      "duration": 0.0205,
      "velocity": 100,
      "chip": "ym2612"
    },
    {
      "channel": 4,
      "note": 90,
      "start": 96.9807,
      "duration": 0.1968,
      "velocity": 95,
      "chip": "ym2612"
    },
    {
      "channel": 2,
      "note": 98,
      "start": 96.9831,
      "duration": 0.1946,
      "velocity": 95,
      "chip": "ym2612"
    },
    {
      "channel": 0,
      "note": 93,
      "start": 96.9856,
      "duration": 0.001,
      "velocity": 95,
      "chip": "ym2612"
    },
    {
      "channel": 0,
      "note": 93,
      "start": 96.9886,
      "duration": 0.0221,
      "velocity": 100,
      "chip": "ym2612"
    },
    {
      "channel": 3,
      "note": 57,
      "start": 97.0636,
      "duration": 0.2805,
      "velocity": 116,
      "chip": "ym2612"
    },
    {
      "channel": 1,
      "note": 45,
      "start": 97.0661,
      "duration": 0.1112,
      "velocity": 127,
      "chip": "ym2612"
    },
    {
      "channel": 4,
      "note": 78,
      "start": 97.1812,
      "duration": 0.1295,
      "velocity": 95,
      "chip": "ym2612"
    },
    {
      "channel": 0,
      "note": 98,
      "start": 97.1839,
      "duration": 0.0601,
      "velocity": 100,
      "chip": "ym2612"
    },
    {
      "channel": 1,
      "note": 45,
      "start": 97.2968,
      "duration": 0.1139,
      "velocity": 127,
      "chip": "ym2612"
    },
    {
      "channel": 2,
      "note": 90,
      "start": 97.2998,
      "duration": 0.2111,
      "velocity": 95,
      "chip": "ym2612"
    },
    {
      "channel": 5,
      "note": 98,
      "start": 97.3023,
      "duration": 0.2085,
      "velocity": 95,
      "chip": "ym2612"
    },
    {
      "channel": 0,
      "note": 93,
      "start": 97.3051,
      "duration": 0.2221,
      "velocity": 95,
      "chip": "ym2612"
    },
    {
      "channel": 3,
      "note": 57,
      "start": 97.4138,
      "duration": 0.0802,
      "velocity": 116,
      "chip": "ym2612"
    },
    {
      "channel": 4,
      "note": 96,
      "start": 97.4171,
      "duration": 0.0604,
      "velocity": 100,
      "chip": "ym2612"
    },
    {
      "channel": 3,
      "note": 60,
      "start": 97.5307,
      "duration": 0.2133,
      "velocity": 116,
      "chip": "ym2612"
    },
    {
      "channel": 1,
      "note": 45,
      "start": 97.5332,
      "duration": 0.1109,
      "velocity": 127,
      "chip": "ym2612"
    },
    {
      "channel": 0,
      "note": 78,
      "start": 97.5358,
      "duration": 0.1081,
      "velocity": 95,
      "chip": "ym2612"
    },
    {
      "channel": 4,
      "note": 99,
      "start": 97.5387,
      "duration": 0.0555,
      "velocity": 100,
      "chip": "ym2612"
    },
    {
      "channel": 0,
      "note": 90,
      "start": 97.6473,
      "duration": 0.1568,
      "velocity": 95,
      "chip": "ym2612"
    },
    {
      "channel": 5,
      "note": 93,
      "start": 97.6503,
      "duration": 0.1162,
      "velocity": 95,
      "chip": "ym2612"
    },
    {
      "channel": 2,
      "note": 98,
      "start": 97.6531,
      "duration": 0.1513,
      "velocity": 95,
      "chip": "ym2612"
    },
    {
      "channel": 3,
      "note": 57,
      "start": 97.7634,
      "duration": 0.1146,
      "velocity": 116,
      "chip": "ym2612"
    },
    {
      "channel": 1,
      "note": 45,
      "start": 97.7659,
      "duration": 0.0447,
      "velocity": 127,
      "chip": "ym2612"
    },
    {
      "channel": 4,
      "note": 100,
      "start": 97.7719,
      "duration": 0.0138,
      "velocity": 100,
      "chip": "ym2612"
    },
    {
      "channel": 1,
      "note": 45,
      "start": 97.8142,
      "duration": 0.0805,
      "velocity": 127,
      "chip": "ym2612"
    },
    {
      "channel": 0,
      "note": 78,
      "start": 97.8164,
      "duration": 0.1114,
      "velocity": 95,
      "chip": "ym2612"
    },
    {
      "channel": 3,
      "note": 55,
      "start": 97.8977,
      "duration": 0.1637,
      "velocity": 116,
      "chip": "ym2612"
    },
    {
      "channel": 2,
      "note": 93,
      "start": 97.9007,
      "duration": 0.211,
      "velocity": 95,
      "chip": "ym2612"
    },
    {
      "channel": 4,
      "note": 90,
      "start": 97.9032,
      "duration": 0.2082,
      "velocity": 95,
      "chip": "ym2612"
    },
    {
      "channel": 5,
      "note": 98,
      "start": 97.9059,
      "duration": 0.2056,
      "velocity": 95,
      "chip": "ym2612"
    },
    {
      "channel": 1,
      "note": 103,
      "start": 97.9088,
      "duration": 0.0357,
      "velocity": 100,
      "chip": "ym2612"
    },
    {
      "channel": 3,
      "note": 52,
      "start": 98.1309,
      "duration": 0.1081,
      "velocity": 116,
      "chip": "ym2612"
    },
    {
      "channel": 0,
      "note": 45,
      "start": 98.1335,
      "duration": 0.0458,
      "velocity": 127,
      "chip": "ym2612"
    },
    {
      "channel": 4,
      "note": 76,
      "start": 98.1362,
      "duration": 0.0993,
      "velocity": 95,
      "chip": "ym2612"
    },
    {
      "channel": 2,
      "note": 97,
      "start": 98.2257,
      "duration": 0.1245,
      "velocity": 95,
      "chip": "ym2612"
    },
    {
      "channel": 1,
      "note": 88,
      "start": 98.2289,
      "duration": 0.121,
      "velocity": 95,
      "chip": "ym2612"
    },
    {
      "channel": 0,
      "note": 92,
      "start": 98.2315,
      "duration": 0.0011,
      "velocity": 95,
      "chip": "ym2612"
    },
    {
      "channel": 0,
      "note": 105,
      "start": 98.2344,
      "duration": 0.0112,
      "velocity": 100,
      "chip": "ym2612"
    },
    {
      "channel": 3,
      "note": 52,
      "start": 98.2723,
      "duration": 0.175,
      "velocity": 116,
      "chip": "ym2612"
    },
    {
      "channel": 4,
      "note": 45,
      "start": 98.276,
      "duration": 0.1073,
      "velocity": 127,
      "chip": "ym2612"
    },
    {
      "channel": 4,
      "note": 45,
      "start": 98.3863,
      "duration": 0.0474,
      "velocity": 127,
      "chip": "ym2612"
    },
    {
      "channel": 1,
      "note": 76,
      "start": 98.389,
      "duration": 0.0616,
      "velocity": 95,
      "chip": "ym2612"
    },
    {
      "channel": 0,
      "note": 103,
      "start": 98.3949,
      "duration": 0.0142,
      "velocity": 100,
      "chip": "ym2612"
    },
    {
      "channel": 2,
      "note": 92,
      "start": 98.4375,
      "duration": 0.2139,
      "velocity": 95,
      "chip": "ym2612"
    },
    {
      "channel": 0,
      "note": 88,
      "start": 98.4398,
      "duration": 0.0045,
      "velocity": 95,
      "chip": "ym2612"
    },
    {
      "channel": 4,
      "note": 97,
      "start": 98.4425,
      "duration": 0.1755,
      "velocity": 95,
      "chip": "ym2612"
    },
    {
      "channel": 0,
      "note": 100,
      "start": 98.4462,
      "duration": 0.01,
      "velocity": 100,
      "chip": "ym2612"
    },
    {
      "channel": 3,
      "note": 52,
      "start": 98.5207,
      "duration": 0.2639,
      "velocity": 116,
      "chip": "ym2612"
    },
    {
      "channel": 1,
      "note": 45,
      "start": 98.5233,
      "duration": 0.0945,
      "velocity": 127,
      "chip": "ym2612"
    },
    {
      "channel": 4,
      "note": 76,
      "start": 98.6214,
      "duration": 0.1466,
      "velocity": 95,
      "chip": "ym2612"
    },
    {
      "channel": 0,
      "note": 103,
      "start": 98.624,
      "duration": 0.0605,
      "velocity": 100,
      "chip": "ym2612"
    },
    {
      "channel": 1,
      "note": 45,
      "start": 98.7378,
      "duration": 0.1134,
      "velocity": 127,
      "chip": "ym2612"
    },
    {
      "channel": 2,
      "note": 95,
      "start": 98.7408,
      "duration": 0.2107,
      "velocity": 95,
      "chip": "ym2612"
    },
    {
      "channel": 5,
      "note": 88,
      "start": 98.7433,
      "duration": 0.208,
      "velocity": 95,
      "chip": "ym2612"
    },
    {
      "channel": 0,
      "note": 92,
      "start": 98.7461,
      "duration": 0.2217,
      "velocity": 95,
      "chip": "ym2612"
    },
    {
      "channel": 3,
      "note": 52,
      "start": 98.8543,
      "duration": 0.0636,
      "velocity": 116,
      "chip": "ym2612"
    },
    {
      "channel": 1,
      "note": 45,
      "start": 98.8567,
      "duration": 0.1113,
      "velocity": 127,
      "chip": "ym2612"
    },
    {
      "channel": 4,
      "note": 100,
      "start": 98.8598,
      "duration": 0.0582,
      "velocity": 100,
      "chip": "ym2612"
    },
    {
      "channel": 3,
      "note": 52,
      "start": 98.9715,
      "duration": 0.2132,
      "velocity": 116,
      "chip": "ym2612"
    },
    {
      "channel": 1,
      "note": 45,
      "start": 98.9739,
      "duration": 0.1107,
      "velocity": 127,
      "chip": "ym2612"
    },
    {
      "channel": 0,
      "note": 76,
      "start": 98.9765,
      "duration": 0.1246,
      "velocity": 95,
      "chip": "ym2612"
    },
    {
      "channel": 4,
      "note": 98,
      "start": 98.9794,
      "duration": 0.0553,
      "velocity": 100,
      "chip": "ym2612"
    },
    {
      "channel": 1,
      "note": 45,
      "start": 99.0874,
      "duration": 0.1138,
      "velocity": 127,
      "chip": "ym2612"
    },
    {
      "channel": 5,
      "note": 88,
      "start": 99.0906,
      "duration": 0.1167,
      "velocity": 95,
      "chip": "ym2612"
    },
    {
      "channel": 2,
      "note": 92,
      "start": 99.0933,
      "duration": 0.1664,
      "velocity": 95,
      "chip": "ym2612"
    },
    {
      "channel": 4,
      "note": 95,
      "start": 99.0959,
      "duration": 0.1637,
      "velocity": 95,
      "chip": "ym2612"
    },
    {
      "channel": 3,
      "note": 55,
      "start": 99.2041,
      "duration": 0.1144,
      "velocity": 116,
      "chip": "ym2612"
    },
    {
      "channel": 1,
      "note": 45,
      "start": 99.2066,
      "duration": 0.045,
      "velocity": 127,
      "chip": "ym2612"
    },
    {
      "channel": 0,
      "note": 96,
      "start": 99.2129,
      "duration": 0.0202,
      "velocity": 100,
      "chip": "ym2612"
    },
    {
      "channel": 0,
      "note": 76,
      "start": 99.2556,
      "duration": 0.1127,
      "velocity": 95,
      "chip": "ym2612"
    },
    {
      "channel": 3,
      "note": 56,
      "start": 99.3377,
      "duration": 0.2141,
      "velocity": 116,
      "chip": "ym2612"
    },
    {
      "channel": 4,
      "note": 95,
      "start": 99.3406,
      "duration": 0.1779,
      "velocity": 95,
      "chip": "ym2612"
    },
    {
      "channel": 2,
      "note": 92,
      "start": 99.3434,
      "duration": 0.1919,
      "velocity": 95,
      "chip": "ym2612"
    },
    {
      "channel": 1,
      "note": 88,
      "start": 99.346,
      "duration": 0.1891,
      "velocity": 95,
      "chip": "ym2612"
    },
    {
      "channel": 3,
      "note": 57,
      "start": 99.5714,
      "duration": 0.0921,
      "velocity": 116,
      "chip": "ym2612"
    },
    {
      "channel": 5,
      "note": 45,
      "start": 99.5741,
      "duration": 0.0034,
      "velocity": 127,
      "chip": "ym2612"
    },
    {
      "channel": 0,
      "note": 81,
      "start": 99.577,
      "duration": 0.0985,
      "velocity": 95,
      "chip": "ym2612"
    },
    {
      "channel": 1,
      "note": 96,
      "start": 99.6663,
      "duration": 0.1583,
      "velocity": 95,
      "chip": "ym2612"
    },
    {
      "channel": 4,
      "note": 93,
      "start": 99.6685,
      "duration": 0.1564,
      "velocity": 95,
      "chip": "ym2612"
    },
    {
      "channel": 2,
      "note": 88,
      "start": 99.6717,
      "duration": 0.1533,
      "velocity": 95,
      "chip": "ym2612"
    },
    {
      "channel": 3,
      "note": 93,
      "start": 99.6744,
      "duration": 0.0128,
      "velocity": 100,
      "chip": "ym2612"
    },
    {
      "channel": 0,
      "note": 57,
      "start": 99.7141,
      "duration": 0.1542,
      "velocity": 116,
      "chip": "ym2612"
    },
    {
      "channel": 3,
      "note": 45,
      "start": 99.7176,
      "duration": 0.1071,
      "velocity": 127,
      "chip": "ym2612"
    },
    {
      "channel": 3,
      "note": 45,
      "start": 99.828,
      "duration": 0.0467,
      "velocity": 127,
      "chip": "ym2612"
    },
    {
      "channel": 1,
      "note": 81,
      "start": 99.8307,
      "duration": 0.0607,
      "velocity": 95,
      "chip": "ym2612"
    },
    {
      "channel": 4,
      "note": 96,
      "start": 99.8368,
      "duration": 0.0133,
      "velocity": 100,
      "chip": "ym2612"
    },
    {
      "channel": 2,
      "note": 96,
      "start": 99.8787,
      "duration": 0.2135,
      "velocity": 95,
      "chip": "ym2612"
    },
    {
      "channel": 4,
      "note": 88,
      "start": 99.8809,
      "duration": 0.1945,
      "velocity": 95,
      "chip": "ym2612"
    },
    {
      "channel": 0,
      "note": 93,
      "start": 99.8837,
      "duration": 0.2249,
      "velocity": 95,
      "chip": "ym2612"
    },
    {
      "channel": 3,
      "note": 93,
      "start": 99.8875,
      "duration": 0.0095,
      "velocity": 100,
      "chip": "ym2612"
    },
    {
      "channel": 1,
      "note": 57,
      "start": 99.9616,
      "duration": 0.197,
      "velocity": 116,
      "chip": "ym2612"
    },
    {
      "channel": 3,
      "note": 45,
      "start": 99.9642,
      "duration": 0.1111,
      "velocity": 127,
      "chip": "ym2612"
    },
    {
      "channel": 4,
      "note": 81,
      "start": 100.0788,
      "duration": 0.1467,
      "velocity": 95,
      "chip": "ym2612"
    },
    {
      "channel": 5,
      "note": 98,
      "start": 100.0817,
      "duration": 0.0438,
      "velocity": 100,
      "chip": "ym2612"
    },
    {
      "channel": 3,
      "note": 45,
      "start": 100.1949,
      "duration": 0.1139,
      "velocity": 127,
      "chip": "ym2612"
    },
    {
      "channel": 0,
      "note": 96,
      "start": 100.1976,
      "duration": 0.2444,
      "velocity": 95,
      "chip": "ym2612"
    },
    {
      "channel": 2,
      "note": 88,
      "start": 100.2002,
      "duration": 0.2253,
      "velocity": 95,
      "chip": "ym2612"
    },
    {
      "channel": 5,
      "note": 93,
      "start": 100.203,
      "duration": 0.2557,
      "velocity": 95,
      "chip": "ym2612"
    },
    {
      "channel": 1,
      "note": 57,
      "start": 100.3117,
      "duration": 0.0636,
      "velocity": 116,
      "chip": "ym2612"
    },
    {
      "channel": 4,
      "note": 96,
      "start": 100.315,
      "duration": 0.0438,
      "velocity": 100,
      "chip": "ym2612"
    },
    {
      "channel": 1,
      "note": 60,
      "start": 100.4284,
      "duration": 0.1969,
      "velocity": 116,
      "chip": "ym2612"
    },
    {
      "channel": 3,
      "note": 45,
      "start": 100.4308,
      "duration": 0.0945,
      "velocity": 127,
      "chip": "ym2612"
    },
    {
      "channel": 2,
      "note": 81,
      "start": 100.4338,
      "duration": 0.125,
      "velocity": 95,
      "chip": "ym2612"
    },
    {
      "channel": 4,
      "note": 99,
      "start": 100.4367,
      "duration": 0.0388,
      "velocity": 100,
      "chip": "ym2612"
    },
    {
      "channel": 0,
      "note": 88,
      "start": 100.5289,
      "duration": 0.1625,
      "velocity": 95,
      "chip": "ym2612"
    },
    {
      "channel": 5,
      "note": 96,
      "start": 100.5315,
      "duration": 0.1168,
      "velocity": 95,
      "chip": "ym2612"
    },
    {
      "channel": 4,
      "note": 93,
      "start": 100.5343,
      "duration": 0.1777,
      "velocity": 95,
      "chip": "ym2612"
    },
    {
      "channel": 1,
      "note": 57,
      "start": 100.6447,
      "duration": 0.1142,
      "velocity": 116,
      "chip": "ym2612"
    },
    {
      "channel": 3,
      "note": 45,
      "start": 100.6476,
      "duration": 0.0439,
      "velocity": 127,
      "chip": "ym2612"
    },
    {
      "channel": 2,
      "note": 100,
      "start": 100.6538,
      "duration": 0.0197,
      "velocity": 100,
      "chip": "ym2612"
    },
    {
      "channel": 3,
      "note": 45,
      "start": 100.695,
      "duration": 0.0806,
      "velocity": 127,
      "chip": "ym2612"
    },
    {
      "channel": 0,
      "note": 81,
      "start": 100.6974,
      "duration": 0.0781,
      "velocity": 95,
      "chip": "ym2612"
    },
    {
      "channel": 1,
      "note": 55,
      "start": 100.7788,
      "duration": 0.18,
      "velocity": 116,
      "chip": "ym2612"
    },
    {
      "channel": 0,
      "note": 88,
      "start": 100.7816,
      "duration": 0.2106,
      "velocity": 95,
      "chip": "ym2612"
    },
    {
      "channel": 4,
      "note": 93,
      "start": 100.7842,
      "duration": 0.238,
      "velocity": 95,
      "chip": "ym2612"
    },
    {
      "channel": 2,
      "note": 96,
      "start": 100.7874,
      "duration": 0.2216,
      "velocity": 95,
      "chip": "ym2612"
    },
    {
      "channel": 5,
      "note": 103,
      "start": 100.7904,
      "duration": 0.052,
      "velocity": 100,
      "chip": "ym2612"
    },
    {
      "channel": 1,
      "note": 57,
      "start": 101.012,
      "duration": 0.102,
      "velocity": 116,
      "chip": "ym2612"
    },
    {
      "channel": 3,
      "note": 45,
      "start": 101.0144,
      "duration": 0.0444,
      "velocity": 127,
      "chip": "ym2612"
    },
    {
      "channel": 0,
      "note": 77,
      "start": 101.0168,
      "duration": 0.0851,
      "velocity": 95,
      "chip": "ym2612"
    },
    {
      "channel": 0,
      "note": 89,
      "start": 101.1047,
      "duration": 0.1421,
      "velocity": 95,
      "chip": "ym2612"
    },
    {
      "channel": 4,
      "note": 96,
      "start": 101.1069,
      "duration": 0.1402,
      "velocity": 95,
      "chip": "ym2612"
    },
    {
      "channel": 2,
      "note": 93,
      "start": 101.1101,
      "duration": 0.1371,
      "velocity": 95,
      "chip": "ym2612"
    },
    {
      "channel": 3,
      "note": 93,
      "start": 101.1128,
      "duration": 0.0183,
      "velocity": 100,
      "chip": "ym2612"
    },
    {
      "channel": 1,
      "note": 57,
      "start": 101.1524,
      "duration": 0.1602,
      "velocity": 116,
      "chip": "ym2612"
    },
    {
      "channel": 3,
      "note": 45,
      "start": 101.1561,
      "duration": 0.1074,
      "velocity": 127,
      "chip": "ym2612"
    },
    {
      "channel": 3,
      "note": 45,
      "start": 101.2666,
      "duration": 0.0462,
      "velocity": 127,
      "chip": "ym2612"
    },
    {
      "channel": 0,
      "note": 77,
      "start": 101.2693,
      "duration": 0.057,
      "velocity": 95,
      "chip": "ym2612"
    },
    {
      "channel": 4,
      "note": 96,
      "start": 101.2754,
      "duration": 0.0134,
      "velocity": 100,
      "chip": "ym2612"
    },
    {
      "channel": 2,
      "note": 89,
      "start": 101.3167,
      "duration": 0.198,
      "velocity": 95,
      "chip": "ym2612"
    },
    {
      "channel": 4,
      "note": 93,
      "start": 101.3192,
      "duration": 0.1953,
      "velocity": 95,
      "chip": "ym2612"
    },
    {
      "channel": 1,
      "note": 96,
      "start": 101.3216,
      "duration": 0.2095,
      "velocity": 95,
      "chip": "ym2612"
    },
    {
      "channel": 3,
      "note": 93,
      "start": 101.3252,
      "duration": 0.0107,
      "velocity": 100,
      "chip": "ym2612"
    },
    {
      "channel": 0,
      "note": 57,
      "start": 101.4005,
      "duration": 0.2305,
      "velocity": 116,
      "chip": "ym2612"
    },
    {
      "channel": 3,
      "note": 45,
      "start": 101.4031,
      "duration": 0.1113,
      "velocity": 127,
      "chip": "ym2612"
    },
    {
      "channel": 4,
      "note": 77,
      "start": 101.5179,
      "duration": 0.1299,
      "velocity": 95,
      "chip": "ym2612"
    },
    {
      "channel": 5,
      "note": 98,
      "start": 101.5211,
      "duration": 0.0433,
      "velocity": 100,
      "chip": "ym2612"
    },
    {
      "channel": 3,
      "note": 45,
      "start": 101.6341,
      "duration": 0.1136,
      "velocity": 127,
      "chip": "ym2612"
    },
    {
      "channel": 1,
      "note": 89,
      "start": 101.6368,
      "duration": 0.2275,
      "velocity": 95,
      "chip": "ym2612"
    },
    {
      "channel": 2,
      "note": 93,
      "start": 101.6394,
      "duration": 0.2253,
      "velocity": 95,
      "chip": "ym2612"
    },
    {
      "channel": 5,
      "note": 96,
      "start": 101.6422,
      "duration": 0.239,
      "velocity": 95,
      "chip": "ym2612"
    },
    {
      "channel": 0,
      "note": 57,
      "start": 101.7507,
      "duration": 0.0635,
      "velocity": 116,
      "chip": "ym2612"
    },
    {
      "channel": 3,
      "note": 45,
      "start": 101.7531,
      "duration": 0.1113,
      "velocity": 127,
      "chip": "ym2612"
    },
    {
      "channel": 4,
      "note": 96,
      "start": 101.7563,
      "duration": 0.0415,
      "velocity": 100,
      "chip": "ym2612"
    },
    {
      "channel": 0,
      "note": 64,
      "start": 101.8675,
      "duration": 0.1968,
      "velocity": 116,
      "chip": "ym2612"
    },
    {
      "channel": 3,
      "note": 45,
      "start": 101.8699,
      "duration": 0.1112,
      "velocity": 127,
      "chip": "ym2612"
    },
    {
      "channel": 1,
      "note": 77,
      "start": 101.873,
      "duration": 0.1246,
      "velocity": 95,
      "chip": "ym2612"
    },
    {
      "channel": 4,
      "note": 99,
      "start": 101.8759,
      "duration": 0.0385,
      "velocity": 100,
      "chip": "ym2612"
    },
    {
      "channel": 3,
      "note": 45,
      "start": 101.984,
      "duration": 0.1138,
      "velocity": 127,
      "chip": "ym2612"
    },
    {
      "channel": 5,
      "note": 89,
      "start": 101.9868,
      "duration": 0.1168,
      "velocity": 95,
      "chip": "ym2612"
    },
    {
      "channel": 2,
      "note": 93,
      "start": 101.9894,
      "duration": 0.1585,
      "velocity": 95,
      "chip": "ym2612"
    },
    {
      "channel": 4,
      "note": 96,
      "start": 101.9922,
      "duration": 0.169,
      "velocity": 95,
      "chip": "ym2612"
    },
    {
      "channel": 0,
      "note": 63,
      "start": 102.1005,
      "duration": 0.098,
      "velocity": 116,
      "chip": "ym2612"
    },
    {
      "channel": 3,
      "note": 45,
      "start": 102.103,
      "duration": 0.0447,
      "velocity": 127,
      "chip": "ym2612"
    },
    {
      "channel": 1,
      "note": 98,
      "start": 102.1093,
      "duration": 0.0137,
      "velocity": 100,
      "chip": "ym2612"
    },
    {
      "channel": 2,
      "note": 77,
      "start": 102.1516,
      "duration": 0.0805,
      "velocity": 95,
      "chip": "ym2612"
    },
    {
      "channel": 0,
      "note": 62,
      "start": 102.2351,
      "duration": 0.1468,
      "velocity": 116,
      "chip": "ym2612"
    },
    {
      "channel": 4,
      "note": 89,
      "start": 102.238,
      "duration": 0.1606,
      "velocity": 95,
      "chip": "ym2612"
    },
    {
      "channel": 2,
      "note": 93,
      "start": 102.2408,
      "duration": 0.1747,
      "velocity": 95,
      "chip": "ym2612"
    },
    {
      "channel": 1,
      "note": 96,
      "start": 102.2439,
      "duration": 0.188,
      "velocity": 95,
      "chip": "ym2612"
    },
    {
      "channel": 0,
      "note": 57,
      "start": 102.4515,
      "duration": 0.0799,
      "velocity": 116,
      "chip": "ym2612"
    },
    {
      "channel": 3,
      "note": 45,
      "start": 102.4544,
      "duration": 0.0462,
      "velocity": 127,
      "chip": "ym2612"
    },
    {
      "channel": 1,
      "note": 78,
      "start": 102.457,
      "duration": 0.0991,
      "velocity": 95,
      "chip": "ym2612"
    },
    {
      "channel": 4,
      "note": 93,
      "start": 102.5468,
      "duration": 0.1574,
      "velocity": 95,
      "chip": "ym2612"
    },
    {
      "channel": 2,
      "note": 98,
      "start": 102.5493,
      "duration": 0.1383,
      "velocity": 95,
      "chip": "ym2612"
    },
    {
      "channel": 3,
      "note": 90,
      "start": 102.5525,
      "duration": 0.1348,
      "velocity": 95,
      "chip": "ym2612"
    },
    {
      "channel": 0,
      "note": 93,
      "start": 102.5551,
      "duration": 0.0173,
      "velocity": 100,
      "chip": "ym2612"
    },
    {
      "channel": 1,
      "note": 57,
      "start": 102.5933,
      "duration": 0.1539,
      "velocity": 116,
      "chip": "ym2612"
    },
    {
      "channel": 0,
      "note": 45,
      "start": 102.5969,
      "duration": 0.107,
      "velocity": 127,
      "chip": "ym2612"
    },
    {
      "channel": 0,
      "note": 45,
      "start": 102.7071,
      "duration": 0.0463,
      "velocity": 127,
      "chip": "ym2612"
    },
    {
      "channel": 3,
      "note": 78,
      "start": 102.7098,
      "duration": 0.0574,
      "velocity": 95,
      "chip": "ym2612"
    },
    {
      "channel": 2,
      "note": 96,
      "start": 102.7158,
      "duration": 0.0196,
      "velocity": 100,
      "chip": "ym2612"
    },
    {
      "channel": 4,
      "note": 90,
      "start": 102.7576,
      "duration": 0.1968,
      "velocity": 95,
      "chip": "ym2612"
    },
    {
      "channel": 2,
      "note": 98,
      "start": 102.76,
      "duration": 0.1947,
      "velocity": 95,
      "chip": "ym2612"
    },
    {
      "channel": 1,
      "note": 93,
      "start": 102.7625,
      "duration": 0.2086,
      "velocity": 95,
      "chip": "ym2612"
    },
    {
      "channel": 0,
      "note": 93,
      "start": 102.766,
      "duration": 0.0217,
      "velocity": 100,
      "chip": "ym2612"
    },
    {
      "channel": 3,
      "note": 57,
      "start": 102.8408,
      "duration": 0.2304,
      "velocity": 116,
      "chip": "ym2612"
    },
    {
      "channel": 5,
      "note": 45,
      "start": 102.8434,
      "duration": 0.1111,
      "velocity": 127,
      "chip": "ym2612"
    },
    {
      "channel": 4,
      "note": 78,
      "start": 102.9579,
      "duration": 0.1298,
      "velocity": 95,
      "chip": "ym2612"
    },
    {
      "channel": 0,
      "note": 98,
      "start": 102.9605,
      "duration": 0.0606,
      "velocity": 100,
      "chip": "ym2612"
    },
    {
      "channel": 5,
      "note": 45,
      "start": 103.0741,
      "duration": 0.1137,
      "velocity": 127,
      "chip": "ym2612"
    },
    {
      "channel": 1,
      "note": 90,
      "start": 103.0768,
      "duration": 0.211,
      "velocity": 95,
      "chip": "ym2612"
    },
    {
      "channel": 2,
      "note": 98,
      "start": 103.0794,
      "duration": 0.2087,
      "velocity": 95,
      "chip": "ym2612"
    },
    {
      "channel": 0,
      "note": 93,
      "start": 103.0822,
      "duration": 0.2221,
      "velocity": 95,
      "chip": "ym2612"
    },
    {
      "channel": 3,
      "note": 57,
      "start": 103.1908,
      "duration": 0.0971,
      "velocity": 116,
      "chip": "ym2612"
    },
    {
      "channel": 4,
      "note": 96,
      "start": 103.194,
      "duration": 0.0439,
      "velocity": 100,
      "chip": "ym2612"
    },
    {
      "channel": 3,
      "note": 60,
      "start": 103.3075,
      "duration": 0.2136,
      "velocity": 116,
      "chip": "ym2612"
    },
    {
      "channel": 5,
      "note": 45,
      "start": 103.3101,
      "duration": 0.1112,
      "velocity": 127,
      "chip": "ym2612"
    },
    {
      "channel": 0,
      "note": 78,
      "start": 103.3131,
      "duration": 0.108,
      "velocity": 95,
      "chip": "ym2612"
    },
    {
      "channel": 4,
      "note": 99,
      "start": 103.3164,
      "duration": 0.0382,
      "velocity": 100,
      "chip": "ym2612"
    },
    {
      "channel": 0,
      "note": 90,
      "start": 103.4244,
      "duration": 0.1578,
      "velocity": 95,
      "chip": "ym2612"
    },
    {
      "channel": 1,
      "note": 93,
      "start": 103.4269,
      "duration": 0.1614,
      "velocity": 95,
      "chip": "ym2612"
    },
    {
      "channel": 2,
      "note": 98,
      "start": 103.4297,
      "duration": 0.1528,
      "velocity": 95,
      "chip": "ym2612"
    },
    {
      "channel": 3,
      "note": 57,
      "start": 103.5404,
      "duration": 0.1149,
      "velocity": 116,
      "chip": "ym2612"
    },
    {
      "channel": 5,
      "note": 45,
      "start": 103.5431,
      "duration": 0.0011,
      "velocity": 127,
      "chip": "ym2612"
    },
    {
      "channel": 4,
      "note": 100,
      "start": 103.5494,
      "duration": 0.0147,
      "velocity": 100,
      "chip": "ym2612"
    },
    {
      "channel": 4,
      "note": 45,
      "start": 103.5918,
      "duration": 0.0801,
      "velocity": 127,
      "chip": "ym2612"
    },
    {
      "channel": 0,
      "note": 78,
      "start": 103.594,
      "duration": 0.1112,
      "velocity": 95,
      "chip": "ym2612"
    },
    {
      "channel": 3,
      "note": 55,
      "start": 103.6751,
      "duration": 0.1634,
      "velocity": 116,
      "chip": "ym2612"
    },
    {
      "channel": 1,
      "note": 93,
      "start": 103.6783,
      "duration": 0.1936,
      "velocity": 95,
      "chip": "ym2612"
    },
    {
      "channel": 2,
      "note": 90,
      "start": 103.6809,
      "duration": 0.1914,
      "velocity": 95,
      "chip": "ym2612"
    },
    {
      "channel": 5,
      "note": 98,
      "start": 103.6835,
      "duration": 0.1885,
      "velocity": 95,
      "chip": "ym2612"
    },
    {
      "channel": 4,
      "note": 103,
      "start": 103.6865,
      "duration": 0.0354,
      "velocity": 100,
      "chip": "ym2612"
    },
    {
      "channel": 3,
      "note": 52,
      "start": 103.9082,
      "duration": 0.1025,
      "velocity": 116,
      "chip": "ym2612"
    },
    {
      "channel": 0,
      "note": 45,
      "start": 103.9108,
      "duration": 0.0453,
      "velocity": 127,
      "chip": "ym2612"
    },
    {
      "channel": 1,
      "note": 76,
      "start": 103.9134,
      "duration": 0.0973,
      "velocity": 95,
      "chip": "ym2612"
    },
    {
      "channel": 2,
      "note": 97,
      "start": 104.0012,
      "duration": 0.1242,
      "velocity": 95,
      "chip": "ym2612"
    },
    {
      "channel": 4,
      "note": 88,
      "start": 104.0035,
      "duration": 0.1217,
      "velocity": 95,
      "chip": "ym2612"
    },
    {
      "channel": 0,
      "note": 92,
      "start": 104.0069,
      "duration": 0.0008,
      "velocity": 95,
      "chip": "ym2612"
    },
    {
      "channel": 0,
      "note": 105,
      "start": 104.0097,
      "duration": 0.012,
      "velocity": 100,
      "chip": "ym2612"
    },
    {
      "channel": 3,
      "note": 52,
      "start": 104.0415,
      "duration": 0.1501,
      "velocity": 116,
      "chip": "ym2612"
    },
    {
      "channel": 1,
      "note": 45,
      "start": 104.0438,
      "duration": 0.0979,
      "velocity": 127,
      "chip": "ym2612"
    },
    {
      "channel": 1,
      "note": 45,
      "start": 104.1451,
      "duration": 0.0464,
      "velocity": 127,
      "chip": "ym2612"
    },
    {
      "channel": 4,
      "note": 76,
      "start": 104.1479,
      "duration": 0.0661,
      "velocity": 95,
      "chip": "ym2612"
    },
    {
      "channel": 0,
      "note": 103,
      "start": 104.1537,
      "duration": 0.0193,
      "velocity": 100,
      "chip": "ym2612"
    },
    {
      "channel": 2,
      "note": 92,
      "start": 104.1956,
      "duration": 0.2131,
      "velocity": 95,
      "chip": "ym2612"
    },
    {
      "channel": 0,
      "note": 88,
      "start": 104.1979,
      "duration": 0.2105,
      "velocity": 95,
      "chip": "ym2612"
    },
    {
      "channel": 1,
      "note": 97,
      "start": 104.2004,
      "duration": 0.1914,
      "velocity": 95,
      "chip": "ym2612"
    },
    {
      "channel": 3,
      "note": 100,
      "start": 104.204,
      "duration": 0.0212,
      "velocity": 100,
      "chip": "ym2612"
    },
    {
      "channel": 4,
      "note": 52,
      "start": 104.2782,
      "duration": 0.2471,
      "velocity": 116,
      "chip": "ym2612"
    },
    {
      "channel": 5,
      "note": 45,
      "start": 104.2808,
      "duration": 0.1111,
      "velocity": 127,
      "chip": "ym2612"
    },
    {
      "channel": 1,
      "note": 76,
      "start": 104.3951,
      "duration": 0.13,
      "velocity": 95,
      "chip": "ym2612"
    },
    {
      "channel": 3,
      "note": 103,
      "start": 104.3978,
      "duration": 0.0608,
      "velocity": 100,
      "chip": "ym2612"
    },
    {
      "channel": 5,
      "note": 45,
      "start": 104.5115,
      "duration": 0.1137,
      "velocity": 127,
      "chip": "ym2612"
    },
    {
      "channel": 0,
      "note": 95,
      "start": 104.5142,
      "duration": 0.2109,
      "velocity": 95,
      "chip": "ym2612"
    },
    {
      "channel": 2,
      "note": 88,
      "start": 104.5168,
      "duration": 0.2087,
      "velocity": 95,
      "chip": "ym2612"
    },
    {
      "channel": 3,
      "note": 92,
      "start": 104.52,
      "duration": 0.2219,
      "velocity": 95,
      "chip": "ym2612"
    },
    {
      "channel": 4,
      "note": 52,
      "start": 104.6282,
      "duration": 0.0637,
      "velocity": 116,
      "chip": "ym2612"
    },
    {
      "channel": 5,
      "note": 45,
      "start": 104.6308,
      "duration": 0.1112,
      "velocity": 127,
      "chip": "ym2612"
    },
    {
      "channel": 1,
      "note": 100,
      "start": 104.6339,
      "duration": 0.0579,
      "velocity": 100,
      "chip": "ym2612"
    },
    {
      "channel": 4,
      "note": 52,
      "start": 104.7451,
      "duration": 0.2135,
      "velocity": 116,
      "chip": "ym2612"
    },
    {
      "channel": 5,
      "note": 45,
      "start": 104.7476,
      "duration": 0.111,
      "velocity": 127,
      "chip": "ym2612"
    },
    {
      "channel": 0,
      "note": 76,
      "start": 104.7503,
      "duration": 0.1247,
      "velocity": 95,
      "chip": "ym2612"
    },
    {
      "channel": 1,
      "note": 98,
      "start": 104.7531,
      "duration": 0.0554,
      "velocity": 100,
      "chip": "ym2612"
    },
    {
      "channel": 5,
      "note": 45,
      "start": 104.8615,
      "duration": 0.1137,
      "velocity": 127,
      "chip": "ym2612"
    },
    {
      "channel": 3,
      "note": 88,
      "start": 104.8643,
      "duration": 0.1549,
      "velocity": 95,
      "chip": "ym2612"
    },
    {
      "channel": 2,
      "note": 92,
      "start": 104.867,
      "duration": 0.1661,
      "velocity": 95,
      "chip": "ym2612"
    },
    {
      "channel": 1,
      "note": 95,
      "start": 104.8696,
      "duration": 0.1632,
      "velocity": 95,
      "chip": "ym2612"
    },
    {
      "channel": 4,
      "note": 55,
      "start": 104.9779,
      "duration": 0.1148,
      "velocity": 116,
      "chip": "ym2612"
    },
    {
      "channel": 5,
      "note": 45,
      "start": 104.9806,
      "duration": 0.0008,
      "velocity": 127,
      "chip": "ym2612"
    },
    {
      "channel": 0,
      "note": 96,
      "start": 104.9873,
      "duration": 0.0195,
      "velocity": 100,
      "chip": "ym2612"
    },
    {
      "channel": 3,
      "note": 76,
      "start": 105.0291,
      "duration": 0.1134,
      "velocity": 95,
      "chip": "ym2612"
    },
    {
      "channel": 4,
      "note": 56,
      "start": 105.112,
      "duration": 0.2139,
      "velocity": 116,
      "chip": "ym2612"
    },
    {
      "channel": 1,
      "note": 95,
      "start": 105.1152,
      "duration": 0.1607,
      "velocity": 95,
      "chip": "ym2612"
    },
    {
      "channel": 2,
      "note": 92,
      "start": 105.118,
      "duration": 0.1915,
      "velocity": 95,
      "chip": "ym2612"
    },
    {
      "channel": 0,
      "note": 88,
      "start": 105.1206,
      "duration": 0.1886,
      "velocity": 95,
      "chip": "ym2612"
    },
    {
      "channel": 4,
      "note": 69,
      "start": 105.347,
      "duration": 0.8721,
      "velocity": 116,
      "chip": "ym2612"
    },
    {
      "channel": 5,
      "note": 45,
      "start": 105.351,
      "duration": 0.1084,
      "velocity": 127,
      "chip": "ym2612"
    },
    {
      "channel": 0,
      "note": 81,
      "start": 105.3547,
      "duration": 0.2378,
      "velocity": 95,
      "chip": "ym2612"
    },
    {
      "channel": 1,
      "note": 96,
      "start": 105.5791,
      "duration": 0.2302,
      "velocity": 95,
      "chip": "ym2612"
    },
    {
      "channel": 3,
      "note": 93,
      "start": 105.5815,
      "duration": 0.228,
      "velocity": 95,
      "chip": "ym2612"
    },
    {
      "channel": 2,
      "note": 88,
      "start": 105.5841,
      "duration": 0.2255,
      "velocity": 95,
      "chip": "ym2612"
    },
    {
      "channel": 5,
      "note": 93,
      "start": 105.5871,
      "duration": 0.0389,
      "velocity": 100,
      "chip": "ym2612"
    },
    {
      "channel": 0,
      "note": 45,
      "start": 105.8126,
      "duration": 0.0475,
      "velocity": 127,
      "chip": "ym2612"
    },
    {
      "channel": 1,
      "note": 81,
      "start": 105.8153,
      "duration": 0.062,
      "velocity": 95,
      "chip": "ym2612"
    },
    {
      "channel": 3,
      "note": 96,
      "start": 105.8217,
      "duration": 0.0136,
      "velocity": 100,
      "chip": "ym2612"
    },
    {
      "channel": 2,
      "note": 96,
      "start": 105.8642,
      "duration": 0.1979,
      "velocity": 95,
      "chip": "ym2612"
    },
    {
      "channel": 3,
      "note": 88,
      "start": 105.8666,
      "duration": 0.1772,
      "velocity": 95,
      "chip": "ym2612"
    },
    {
      "channel": 0,
      "note": 93,
      "start": 105.8692,
      "duration": 0.0017,
      "velocity": 95,
      "chip": "ym2612"
    },
    {
      "channel": 0,
      "note": 93,
      "start": 105.8729,
      "duration": 0.0094,
      "velocity": 100,
      "chip": "ym2612"
    },
    {
      "channel": 1,
      "note": 81,
      "start": 106.047,
      "duration": 0.068,
      "velocity": 95,
      "chip": "ym2612"
    },
    {
      "channel": 0,
      "note": 98,
      "start": 106.0529,
      "duration": 0.0212,
      "velocity": 100,
      "chip": "ym2612"
    },
    {
      "channel": 3,
      "note": 45,
      "start": 106.0959,
      "duration": 0.0824,
      "velocity": 127,
      "chip": "ym2612"
    },
    {
      "channel": 2,
      "note": 96,
      "start": 106.0983,
      "duration": 0.139,
      "velocity": 95,
      "chip": "ym2612"
    },
    {
      "channel": 0,
      "note": 88,
      "start": 106.1007,
      "duration": 0.002,
      "velocity": 95,
      "chip": "ym2612"
    },
    {
      "channel": 0,
      "note": 93,
      "start": 106.1046,
      "duration": 0.1294,
      "velocity": 95,
      "chip": "ym2612"
    },
    {
      "channel": 1,
      "note": 96,
      "start": 106.1851,
      "duration": 0.0218,
      "velocity": 100,
      "chip": "ym2612"
    },
    {
      "channel": 4,
      "note": 69,
      "start": 106.2275,
      "duration": 0.2366,
      "velocity": 116,
      "chip": "ym2612"
    },
    {
      "channel": 3,
      "note": 45,
      "start": 106.2297,
      "duration": 0.0814,
      "velocity": 127,
      "chip": "ym2612"
    },
    {
      "channel": 1,
      "note": 81,
      "start": 106.2332,
      "duration": 0.0946,
      "velocity": 95,
      "chip": "ym2612"
    },
    {
      "channel": 0,
      "note": 99,
      "start": 106.2359,
      "duration": 0.0252,
      "velocity": 100,
      "chip": "ym2612"
    },
    {
      "channel": 2,
      "note": 88,
      "start": 106.3146,
      "duration": 0.1621,
      "velocity": 95,
      "chip": "ym2612"
    },
    {
      "channel": 5,
      "note": 96,
      "start": 106.3173,
      "duration": 0.1142,
      "velocity": 95,
      "chip": "ym2612"
    },
    {
      "channel": 0,
      "note": 93,
      "start": 106.3201,
      "duration": 0.1704,
      "velocity": 95,
      "chip": "ym2612"
    },
    {
      "channel": 3,
      "note": 45,
      "start": 106.4307,
      "duration": 0.0459,
      "velocity": 127,
      "chip": "ym2612"
    },
    {
      "channel": 1,
      "note": 100,
      "start": 106.4371,
      "duration": 0.021,
      "velocity": 100,
      "chip": "ym2612"
    },
    {
      "channel": 4,
      "note": 69,
      "start": 106.4793,
      "duration": 0.2329,
      "velocity": 116,
      "chip": "ym2612"
    },
    {
      "channel": 2,
      "note": 81,
      "start": 106.4819,
      "duration": 0.0803,
      "velocity": 95,
      "chip": "ym2612"
    },
    {
      "channel": 3,
      "note": 45,
      "start": 106.5649,
      "duration": 0.1139,
      "velocity": 127,
      "chip": "ym2612"
    },
    {
      "channel": 0,
      "note": 88,
      "start": 106.568,
      "duration": 0.2107,
      "velocity": 95,
      "chip": "ym2612"
    },
    {
      "channel": 2,
      "note": 93,
      "start": 106.5706,
      "duration": 0.2416,
      "velocity": 95,
      "chip": "ym2612"
    },
    {
      "channel": 1,
      "note": 96,
      "start": 106.5734,
      "duration": 0.2219,
      "velocity": 95,
      "chip": "ym2612"
    },
    {
      "channel": 4,
      "note": 65,
      "start": 106.7985,
      "duration": 0.8833,
      "velocity": 116,
      "chip": "ym2612"
    },
    {
      "channel": 3,
      "note": 45,
      "start": 106.8011,
      "duration": 0.111,
      "velocity": 127,
      "chip": "ym2612"
    },
    {
      "channel": 0,
      "note": 77,
      "start": 106.8035,
      "duration": 0.2252,
      "velocity": 95,
      "chip": "ym2612"
    },
    {
      "channel": 0,
      "note": 89,
      "start": 107.032,
      "duration": 0.2134,
      "velocity": 95,
      "chip": "ym2612"
    },
    {
      "channel": 1,
      "note": 96,
      "start": 107.0343,
      "duration": 0.2112,
      "velocity": 95,
      "chip": "ym2612"
    },
    {
      "channel": 2,
      "note": 93,
      "start": 107.0369,
      "duration": 0.2088,
      "velocity": 95,
      "chip": "ym2612"
    },
    {
      "channel": 5,
      "note": 93,
      "start": 107.0403,
      "duration": 0.0385,
      "velocity": 100,
      "chip": "ym2612"
    },
    {
      "channel": 3,
      "note": 45,
      "start": 107.2648,
      "duration": 0.0467,
      "velocity": 127,
      "chip": "ym2612"
    },
    {
      "channel": 0,
      "note": 77,
      "start": 107.2678,
      "duration": 0.0542,
      "velocity": 95,
      "chip": "ym2612"
    },
    {
      "channel": 1,
      "note": 96,
      "start": 107.2739,
      "duration": 0.0138,
      "velocity": 100,
      "chip": "ym2612"
    },
    {
      "channel": 2,
      "note": 89,
      "start": 107.3154,
      "duration": 0.1974,
      "velocity": 95,
      "chip": "ym2612"
    },
    {
      "channel": 1,
      "note": 93,
      "start": 107.3177,
      "duration": 0.1948,
      "velocity": 95,
      "chip": "ym2612"
    },
    {
      "channel": 3,
      "note": 96,
      "start": 107.3202,
      "duration": 0.2042,
      "velocity": 95,
      "chip": "ym2612"
    },
    {
      "channel": 0,
      "note": 93,
      "start": 107.3239,
      "duration": 0.0102,
      "velocity": 100,
      "chip": "ym2612"
    },
    {
      "channel": 1,
      "note": 77,
      "start": 107.5159,
      "duration": 0.0584,
      "velocity": 95,
      "chip": "ym2612"
    },
    {
      "channel": 0,
      "note": 98,
      "start": 107.5219,
      "duration": 0.0147,
      "velocity": 100,
      "chip": "ym2612"
    },
    {
      "channel": 2,
      "note": 45,
      "start": 107.5643,
      "duration": 0.0826,
      "velocity": 127,
      "chip": "ym2612"
    },
    {
      "channel": 3,
      "note": 89,
      "start": 107.5666,
      "duration": 0.1272,
      "velocity": 95,
      "chip": "ym2612"
    },
    {
      "channel": 0,
      "note": 93,
      "start": 107.5689,
      "duration": 0.0021,
      "velocity": 95,
      "chip": "ym2612"
    },
    {
      "channel": 0,
      "note": 96,
      "start": 107.5729,
      "duration": 0.1332,
      "velocity": 95,
      "chip": "ym2612"
    },
    {
      "channel": 1,
      "note": 96,
      "start": 107.654,
      "duration": 0.0156,
      "velocity": 100,
      "chip": "ym2612"
    },
    {
      "channel": 4,
      "note": 65,
      "start": 107.6963,
      "duration": 0.2146,
      "velocity": 116,
      "chip": "ym2612"
    },
    {
      "channel": 2,
      "note": 45,
      "start": 107.699,
      "duration": 0.0655,
      "velocity": 127,
      "chip": "ym2612"
    },
    {
      "channel": 3,
      "note": 77,
      "start": 107.7025,
      "duration": 0.0953,
      "velocity": 95,
      "chip": "ym2612"
    },
    {
      "channel": 1,
      "note": 99,
      "start": 107.705,
      "duration": 0.0112,
      "velocity": 100,
      "chip": "ym2612"
    },
    {
      "channel": 0,
      "note": 89,
      "start": 107.7676,
      "duration": 0.1626,
      "velocity": 95,
      "chip": "ym2612"
    },
    {
      "channel": 1,
      "note": 93,
      "start": 107.7701,
      "duration": 0.1601,
      "velocity": 95,
      "chip": "ym2612"
    },
    {
      "channel": 5,
      "note": 96,
      "start": 107.7729,
      "duration": 0.1122,
      "velocity": 95,
      "chip": "ym2612"
    },
    {
      "channel": 2,
      "note": 45,
      "start": 107.8841,
      "duration": 0.0462,
      "velocity": 127,
      "chip": "ym2612"
    },
    {
      "channel": 3,
      "note": 93,
      "start": 107.8904,
      "duration": 0.0204,
      "velocity": 100,
      "chip": "ym2612"
    },
    {
      "channel": 4,
      "note": 65,
      "start": 107.933,
      "duration": 0.2805,
      "velocity": 116,
      "chip": "ym2612"
    },
    {
      "channel": 0,
      "note": 77,
      "start": 107.9353,
      "duration": 0.078,
      "velocity": 95,
      "chip": "ym2612"
    },
    {
      "channel": 0,
      "note": 89,
      "start": 108.0169,
      "duration": 0.1797,
      "velocity": 95,
      "chip": "ym2612"
    },
    {
      "channel": 1,
      "note": 93,
      "start": 108.0194,
      "duration": 0.1938,
      "velocity": 95,
      "chip": "ym2612"
    },
    {
      "channel": 3,
      "note": 96,
      "start": 108.0222,
      "duration": 0.2078,
      "velocity": 95,
      "chip": "ym2612"
    },
    {
      "channel": 4,
      "note": 62,
      "start": 108.2498,
      "duration": 0.8921,
      "velocity": 116,
      "chip": "ym2612"
    },
    {
      "channel": 2,
      "note": 45,
      "start": 108.2524,
      "duration": 0.1111,
      "velocity": 127,
      "chip": "ym2612"
    },
    {
      "channel": 0,
      "note": 78,
      "start": 108.2549,
      "duration": 0.2418,
      "velocity": 95,
      "chip": "ym2612"
    },
    {
      "channel": 1,
      "note": 93,
      "start": 108.4832,
      "duration": 0.2302,
      "velocity": 95,
      "chip": "ym2612"
    },
    {
      "channel": 3,
      "note": 98,
      "start": 108.4857,
      "duration": 0.2111,
      "velocity": 95,
      "chip": "ym2612"
    },
    {
      "channel": 5,
      "note": 90,
      "start": 108.4884,
      "duration": 0.2085,
      "velocity": 95,
      "chip": "ym2612"
    },
    {
      "channel": 2,
      "note": 93,
      "start": 108.4914,
      "duration": 0.0555,
      "velocity": 100,
      "chip": "ym2612"
    },
    {
      "channel": 0,
      "note": 45,
      "start": 108.7165,
      "duration": 0.0481,
      "velocity": 127,
      "chip": "ym2612"
    },
    {
      "channel": 1,
      "note": 78,
      "start": 108.7195,
      "duration": 0.0588,
      "velocity": 95,
      "chip": "ym2612"
    },
    {
      "channel": 2,
      "note": 96,
      "start": 108.7258,
      "duration": 0.0204,
      "velocity": 100,
      "chip": "ym2612"
    },
    {
      "channel": 3,
      "note": 90,
      "start": 108.7685,
      "duration": 0.197,
      "velocity": 95,
      "chip": "ym2612"
    },
    {
      "channel": 2,
      "note": 98,
      "start": 108.7708,
      "duration": 0.1949,
      "velocity": 95,
      "chip": "ym2612"
    },
    {
      "channel": 0,
      "note": 93,
      "start": 108.7734,
      "duration": 0.0012,
      "velocity": 95,
      "chip": "ym2612"
    },
    {
      "channel": 0,
      "note": 93,
      "start": 108.7763,
      "duration": 0.0111,
      "velocity": 100,
      "chip": "ym2612"
    },
    {
      "channel": 1,
      "note": 78,
      "start": 108.9688,
      "duration": 0.0595,
      "velocity": 95,
      "chip": "ym2612"
    },
    {
      "channel": 0,
      "note": 98,
      "start": 108.9747,
      "duration": 0.0151,
      "velocity": 100,
      "chip": "ym2612"
    },
    {
      "channel": 3,
      "note": 45,
      "start": 109.0182,
      "duration": 0.0826,
      "velocity": 127,
      "chip": "ym2612"
    },
    {
      "channel": 2,
      "note": 90,
      "start": 109.0206,
      "duration": 0.1214,
      "velocity": 95,
      "chip": "ym2612"
    },
    {
      "channel": 0,
      "note": 98,
      "start": 109.0232,
      "duration": 0.0018,
      "velocity": 95,
      "chip": "ym2612"
    },
    {
      "channel": 0,
      "note": 93,
      "start": 109.0269,
      "duration": 0.1211,
      "velocity": 95,
      "chip": "ym2612"
    },
    {
      "channel": 1,
      "note": 96,
      "start": 109.1076,
      "duration": 0.0157,
      "velocity": 100,
      "chip": "ym2612"
    },
    {
      "channel": 4,
      "note": 62,
      "start": 109.1506,
      "duration": 0.2317,
      "velocity": 116,
      "chip": "ym2612"
    },
    {
      "channel": 3,
      "note": 45,
      "start": 109.1527,
      "duration": 0.083,
      "velocity": 127,
      "chip": "ym2612"
    },
    {
      "channel": 0,
      "note": 78,
      "start": 109.1552,
      "duration": 0.0803,
      "velocity": 95,
      "chip": "ym2612"
    },
    {
      "channel": 1,
      "note": 99,
      "start": 109.1586,
      "duration": 0.0128,
      "velocity": 100,
      "chip": "ym2612"
    },
    {
      "channel": 0,
      "note": 90,
      "start": 109.2389,
      "duration": 0.1495,
      "velocity": 95,
      "chip": "ym2612"
    },
    {
      "channel": 2,
      "note": 93,
      "start": 109.2416,
      "duration": 0.1596,
      "velocity": 95,
      "chip": "ym2612"
    },
    {
      "channel": 5,
      "note": 98,
      "start": 109.2444,
      "duration": 0.1115,
      "velocity": 95,
      "chip": "ym2612"
    },
    {
      "channel": 3,
      "note": 45,
      "start": 109.355,
      "duration": 0.046,
      "velocity": 127,
      "chip": "ym2612"
    },
    {
      "channel": 1,
      "note": 100,
      "start": 109.3613,
      "duration": 0.0147,
      "velocity": 100,
      "chip": "ym2612"
    },
    {
      "channel": 4,
      "note": 62,
      "start": 109.4035,
      "duration": 0.2665,
      "velocity": 116,
      "chip": "ym2612"
    },
    {
      "channel": 0,
      "note": 78,
      "start": 109.4063,
      "duration": 0.1134,
      "velocity": 95,
      "chip": "ym2612"
    },
    {
      "channel": 3,
      "note": 45,
      "start": 109.4894,
      "duration": 0.0971,
      "velocity": 127,
      "chip": "ym2612"
    },
    {
      "channel": 2,
      "note": 93,
      "start": 109.4924,
      "duration": 0.1945,
      "velocity": 95,
      "chip": "ym2612"
    },
    {
      "channel": 1,
      "note": 90,
      "start": 109.4948,
      "duration": 0.1916,
      "velocity": 95,
      "chip": "ym2612"
    },
    {
      "channel": 5,
      "note": 98,
      "start": 109.4975,
      "duration": 0.1891,
      "velocity": 95,
      "chip": "ym2612"
    },
    {
      "channel": 4,
      "note": 72,
      "start": 109.7062,
      "duration": 0.2137,
      "velocity": 116,
      "chip": "ym2612"
    },
    {
      "channel": 3,
      "note": 45,
      "start": 109.7087,
      "duration": 0.1112,
      "velocity": 127,
      "chip": "ym2612"
    },
    {
      "channel": 0,
      "note": 76,
      "start": 109.7112,
      "duration": 0.2418,
      "velocity": 95,
      "chip": "ym2612"
    },
    {
      "channel": 4,
      "note": 67,
      "start": 109.9394,
      "duration": 0.1971,
      "velocity": 116,
      "chip": "ym2612"
    },
    {
      "channel": 1,
      "note": 97,
      "start": 109.9422,
      "duration": 0.211,
      "velocity": 95,
      "chip": "ym2612"
    },
    {
      "channel": 5,
      "note": 88,
      "start": 109.9446,
      "duration": 0.2087,
      "velocity": 95,
      "chip": "ym2612"
    },
    {
      "channel": 2,
      "note": 92,
      "start": 109.9478,
      "duration": 0.2222,
      "velocity": 95,
      "chip": "ym2612"
    },
    {
      "channel": 3,
      "note": 105,
      "start": 109.9508,
      "duration": 0.0524,
      "velocity": 100,
      "chip": "ym2612"
    },
    {
      "channel": 4,
      "note": 69,
      "start": 110.1729,
      "duration": 0.1141,
      "velocity": 116,
      "chip": "ym2612"
    },
    {
      "channel": 0,
      "note": 45,
      "start": 110.1755,
      "duration": 0.0462,
      "velocity": 127,
      "chip": "ym2612"
    },
    {
      "channel": 1,
      "note": 76,
      "start": 110.1782,
      "duration": 0.0655,
      "velocity": 95,
      "chip": "ym2612"
    },
    {
      "channel": 3,
      "note": 103,
      "start": 110.1842,
      "duration": 0.0189,
      "velocity": 100,
      "chip": "ym2612"
    },
    {
      "channel": 2,
      "note": 92,
      "start": 110.2246,
      "duration": 0.2074,
      "velocity": 95,
      "chip": "ym2612"
    },
    {
      "channel": 3,
      "note": 88,
      "start": 110.2275,
      "duration": 0.2044,
      "velocity": 95,
      "chip": "ym2612"
    },
    {
      "channel": 0,
      "note": 97,
      "start": 110.2299,
      "duration": 0.001,
      "velocity": 95,
      "chip": "ym2612"
    },
    {
      "channel": 0,
      "note": 100,
      "start": 110.2328,
      "duration": 0.0207,
      "velocity": 100,
      "chip": "ym2612"
    },
    {
      "channel": 4,
      "note": 64,
      "start": 110.3066,
      "duration": 0.1561,
      "velocity": 116,
      "chip": "ym2612"
    },
    {
      "channel": 1,
      "note": 76,
      "start": 110.4235,
      "duration": 0.0608,
      "velocity": 95,
      "chip": "ym2612"
    },
    {
      "channel": 0,
      "note": 103,
      "start": 110.4293,
      "duration": 0.0211,
      "velocity": 100,
      "chip": "ym2612"
    },
    {
      "channel": 4,
      "note": 67,
      "start": 110.4718,
      "duration": 0.1242,
      "velocity": 116,
      "chip": "ym2612"
    },
    {
      "channel": 3,
      "note": 45,
      "start": 110.4743,
      "duration": 0.0808,
      "velocity": 127,
      "chip": "ym2612"
    },
    {
      "channel": 2,
      "note": 95,
      "start": 110.4773,
      "duration": 0.1189,
      "velocity": 95,
      "chip": "ym2612"
    },
    {
      "channel": 0,
      "note": 88,
      "start": 110.4806,
      "duration": 0.0007,
      "velocity": 95,
      "chip": "ym2612"
    },
    {
      "channel": 0,
      "note": 92,
      "start": 110.4831,
      "duration": 0.119,
      "velocity": 95,
      "chip": "ym2612"
    },
    {
      "channel": 1,
      "note": 100,
      "start": 110.5626,
      "duration": 0.0151,
      "velocity": 100,
      "chip": "ym2612"
    },
    {
      "channel": 4,
      "note": 62,
      "start": 110.6048,
      "duration": 0.1836,
      "velocity": 116,
      "chip": "ym2612"
    },
    {
      "channel": 3,
      "note": 45,
      "start": 110.6068,
      "duration": 0.0815,
      "velocity": 127,
      "chip": "ym2612"
    },
    {
      "channel": 0,
      "note": 76,
      "start": 110.6091,
      "duration": 0.0958,
      "velocity": 95,
      "chip": "ym2612"
    },
    {
      "channel": 1,
      "note": 98,
      "start": 110.6124,
      "duration": 0.0122,
      "velocity": 100,
      "chip": "ym2612"
    },
    {
      "channel": 2,
      "note": 88,
      "start": 110.6918,
      "duration": 0.1577,
      "velocity": 95,
      "chip": "ym2612"
    },
    {
      "channel": 1,
      "note": 92,
      "start": 110.6944,
      "duration": 0.1688,
      "velocity": 95,
      "chip": "ym2612"
    },
    {
      "channel": 5,
      "note": 95,
      "start": 110.6971,
      "duration": 0.1144,
      "velocity": 95,
      "chip": "ym2612"
    },
    {
      "channel": 4,
      "note": 63,
      "start": 110.8077,
      "duration": 0.1155,
      "velocity": 116,
      "chip": "ym2612"
    },
    {
      "channel": 3,
      "note": 45,
      "start": 110.8106,
      "duration": 0.045,
      "velocity": 127,
      "chip": "ym2612"
    },
    {
      "channel": 0,
      "note": 96,
      "start": 110.8168,
      "duration": 0.0139,
      "velocity": 100,
      "chip": "ym2612"
    },
    {
      "channel": 2,
      "note": 76,
      "start": 110.8596,
      "duration": 0.1137,
      "velocity": 95,
      "chip": "ym2612"
    },
    {
      "channel": 4,
      "note": 64,
      "start": 110.9427,
      "duration": 0.1807,
      "velocity": 116,
      "chip": "ym2612"
    },
    {
      "channel": 1,
      "note": 95,
      "start": 110.9454,
      "duration": 0.161,
      "velocity": 95,
      "chip": "ym2612"
    },
    {
      "channel": 0,
      "note": 92,
      "start": 110.9481,
      "duration": 0.1749,
      "velocity": 95,
      "chip": "ym2612"
    },
    {
      "channel": 3,
      "note": 88,
      "start": 110.9508,
      "duration": 0.1724,
      "velocity": 95,
      "chip": "ym2612"
    },
    {
      "channel": 4,
      "note": 57,
      "start": 111.1762,
      "duration": 0.1023,
      "velocity": 116,
      "chip": "ym2612"
    },
    {
      "channel": 5,
      "note": 45,
      "start": 111.1789,
      "duration": 0.0034,
      "velocity": 127,
      "chip": "ym2612"
    },
    {
      "channel": 0,
      "note": 81,
      "start": 111.1815,
      "duration": 0.0941,
      "velocity": 95,
      "chip": "ym2612"
    },
    {
      "channel": 1,
      "note": 96,
      "start": 111.2691,
      "duration": 0.141,
      "velocity": 95,
      "chip": "ym2612"
    },
    {
      "channel": 3,
      "note": 93,
      "start": 111.2712,
      "duration": 0.1391,
      "velocity": 95,
      "chip": "ym2612"
    },
    {
      "channel": 2,
      "note": 88,
      "start": 111.2746,
      "duration": 0.1359,
      "velocity": 95,
      "chip": "ym2612"
    },
    {
      "channel": 0,
      "note": 93,
      "start": 111.2774,
      "duration": 0.0122,
      "velocity": 100,
      "chip": "ym2612"
    },
    {
      "channel": 4,
      "note": 57,
      "start": 111.3099,
      "duration": 0.1497,
      "velocity": 116,
      "chip": "ym2612"
    },
    {
      "channel": 0,
      "note": 45,
      "start": 111.3123,
      "duration": 0.0977,
      "velocity": 127,
      "chip": "ym2612"
    },
    {
      "channel": 0,
      "note": 45,
      "start": 111.4132,
      "duration": 0.0462,
      "velocity": 127,
      "chip": "ym2612"
    },
    {
      "channel": 1,
      "note": 81,
      "start": 111.416,
      "duration": 0.0659,
      "velocity": 95,
      "chip": "ym2612"
    },
    {
      "channel": 3,
      "note": 96,
      "start": 111.422,
      "duration": 0.0194,
      "velocity": 100,
      "chip": "ym2612"
    },
    {
      "channel": 2,
      "note": 96,
      "start": 111.4634,
      "duration": 0.2135,
      "velocity": 95,
      "chip": "ym2612"
    },
    {
      "channel": 3,
      "note": 88,
      "start": 111.4657,
      "duration": 0.1945,
      "velocity": 95,
      "chip": "ym2612"
    },
    {
      "channel": 0,
      "note": 93,
      "start": 111.4684,
      "duration": 0.2417,
      "velocity": 95,
      "chip": "ym2612"
    },
    {
      "channel": 4,
      "note": 93,
      "start": 111.472,
      "duration": 0.0217,
      "velocity": 100,
      "chip": "ym2612"
    },
    {
      "channel": 1,
      "note": 57,
      "start": 111.5465,
      "duration": 0.2469,
      "velocity": 116,
      "chip": "ym2612"
    },
    {
      "channel": 5,
      "note": 45,
      "start": 111.5491,
      "duration": 0.1112,
      "velocity": 127,
      "chip": "ym2612"
    },
    {
      "channel": 3,
      "note": 81,
      "start": 111.6636,
      "duration": 0.1632,
      "velocity": 95,
      "chip": "ym2612"
    },
    {
      "channel": 4,
      "note": 98,
      "start": 111.6664,
      "duration": 0.0606,
      "velocity": 100,
      "chip": "ym2612"
    },
    {
      "channel": 5,
      "note": 45,
      "start": 111.7797,
      "duration": 0.1139,
      "velocity": 127,
      "chip": "ym2612"
    },
    {
      "channel": 0,
      "note": 96,
      "start": 111.7828,
      "duration": 0.2441,
      "velocity": 95,
      "chip": "ym2612"
    },
    {
      "channel": 2,
      "note": 88,
      "start": 111.7854,
      "duration": 0.2249,
      "velocity": 95,
      "chip": "ym2612"
    },
    {
      "channel": 4,
      "note": 93,
      "start": 111.7883,
      "duration": 0.2554,
      "velocity": 95,
      "chip": "ym2612"
    },
    {
      "channel": 1,
      "note": 57,
      "start": 111.8965,
      "duration": 0.097,
      "velocity": 116,
      "chip": "ym2612"
    },
    {
      "channel": 3,
      "note": 96,
      "start": 111.8997,
      "duration": 0.0605,
      "velocity": 100,
      "chip": "ym2612"
    },
    {
      "channel": 1,
      "note": 60,
      "start": 112.0136,
      "duration": 0.2132,
      "velocity": 116,
      "chip": "ym2612"
    },
    {
      "channel": 5,
      "note": 45,
      "start": 112.0161,
      "duration": 0.1108,
      "velocity": 127,
      "chip": "ym2612"
    },
    {
      "channel": 2,
      "note": 81,
      "start": 112.0191,
      "duration": 0.1246,
      "velocity": 95,
      "chip": "ym2612"
    },
    {
      "channel": 3,
      "note": 99,
      "start": 112.0223,
      "duration": 0.0546,
      "velocity": 100,
      "chip": "ym2612"
    },
    {
      "channel": 0,
      "note": 88,
      "start": 112.13,
      "duration": 0.1627,
      "velocity": 95,
      "chip": "ym2612"
    },
    {
      "channel": 4,
      "note": 96,
      "start": 112.1326,
      "duration": 0.1692,
      "velocity": 95,
      "chip": "ym2612"
    },
    {
      "channel": 3,
      "note": 93,
      "start": 112.1358,
      "duration": 0.1711,
      "velocity": 95,
      "chip": "ym2612"
    },
    {
      "channel": 1,
      "note": 57,
      "start": 112.2462,
      "duration": 0.114,
      "velocity": 116,
      "chip": "ym2612"
    },
    {
      "channel": 5,
      "note": 45,
      "start": 112.2489,
      "duration": 0.0007,
      "velocity": 127,
      "chip": "ym2612"
    },
    {
      "channel": 2,
      "note": 100,
      "start": 112.2549,
      "duration": 0.0201,
      "velocity": 100,
      "chip": "ym2612"
    },
    {
      "channel": 2,
      "note": 45,
      "start": 112.2964,
      "duration": 0.0807,
      "velocity": 127,
      "chip": "ym2612"
    },
    {
      "channel": 0,
      "note": 81,
      "start": 112.2987,
      "duration": 0.0781,
      "velocity": 95,
      "chip": "ym2612"
    },
    {
      "channel": 1,
      "note": 55,
      "start": 112.3798,
      "duration": 0.1637,
      "velocity": 116,
      "chip": "ym2612"
    },
    {
      "channel": 0,
      "note": 88,
      "start": 112.3826,
      "duration": 0.2109,
      "velocity": 95,
      "chip": "ym2612"
    },
    {
      "channel": 3,
      "note": 93,
      "start": 112.3851,
      "duration": 0.2389,
      "velocity": 95,
      "chip": "ym2612"
    },
    {
      "channel": 4,
      "note": 96,
      "start": 112.3877,
      "duration": 0.2225,
      "velocity": 95,
      "chip": "ym2612"
    },
    {
      "channel": 5,
      "note": 103,
      "start": 112.3907,
      "duration": 0.0362,
      "velocity": 100,
      "chip": "ym2612"
    },
    {
      "channel": 1,
      "note": 57,
      "start": 112.6132,
      "duration": 0.1148,
      "velocity": 116,
      "chip": "ym2612"
    },
    {
      "channel": 2,
      "note": 45,
      "start": 112.6158,
      "duration": 0.0459,
      "velocity": 127,
      "chip": "ym2612"
    },
    {
      "channel": 0,
      "note": 77,
      "start": 112.6181,
      "duration": 0.0866,
      "velocity": 95,
      "chip": "ym2612"
    },
    {
      "channel": 0,
      "note": 89,
      "start": 112.7078,
      "duration": 0.1245,
      "velocity": 95,
      "chip": "ym2612"
    },
    {
      "channel": 3,
      "note": 96,
      "start": 112.7109,
      "duration": 0.1217,
      "velocity": 95,
      "chip": "ym2612"
    },
    {
      "channel": 4,
      "note": 93,
      "start": 112.7132,
      "duration": 0.1195,
      "velocity": 95,
      "chip": "ym2612"
    },
    {
      "channel": 2,
      "note": 93,
      "start": 112.7159,
      "duration": 0.0123,
      "velocity": 100,
      "chip": "ym2612"
    },
    {
      "channel": 1,
      "note": 57,
      "start": 112.7546,
      "duration": 0.1734,
      "velocity": 116,
      "chip": "ym2612"
    },
    {
      "channel": 2,
      "note": 45,
      "start": 112.7586,
      "duration": 0.1073,
      "velocity": 127,
      "chip": "ym2612"
    },
    {
      "channel": 2,
      "note": 45,
      "start": 112.869,
      "duration": 0.0459,
      "velocity": 127,
      "chip": "ym2612"
    },
    {
      "channel": 0,
      "note": 77,
      "start": 112.8717,
      "duration": 0.0524,
      "velocity": 95,
      "chip": "ym2612"
    },
    {
      "channel": 3,
      "note": 96,
      "start": 112.8776,
      "duration": 0.0136,
      "velocity": 100,
      "chip": "ym2612"
    },
    {
      "channel": 4,
      "note": 89,
      "start": 112.9184,
      "duration": 0.1806,
      "velocity": 95,
      "chip": "ym2612"
    },
    {
      "channel": 3,
      "note": 93,
      "start": 112.9208,
      "duration": 0.1782,
      "velocity": 95,
      "chip": "ym2612"
    },
    {
      "channel": 2,
      "note": 96,
      "start": 112.9233,
      "duration": 0.209,
      "velocity": 95,
      "chip": "ym2612"
    },
    {
      "channel": 0,
      "note": 93,
      "start": 112.926,
      "duration": 0.0115,
      "velocity": 100,
      "chip": "ym2612"
    },
    {
      "channel": 1,
      "note": 57,
      "start": 113.0017,
      "duration": 0.2804,
      "velocity": 116,
      "chip": "ym2612"
    },
    {
      "channel": 0,
      "note": 45,
      "start": 113.0043,
      "duration": 0.0945,
      "velocity": 127,
      "chip": "ym2612"
    },
    {
      "channel": 3,
      "note": 77,
      "start": 113.1027,
      "duration": 0.1462,
      "velocity": 95,
      "chip": "ym2612"
    },
    {
      "channel": 5,
      "note": 98,
      "start": 113.1055,
      "duration": 0.0601,
      "velocity": 100,
      "chip": "ym2612"
    },
    {
      "channel": 0,
      "note": 45,
      "start": 113.2183,
      "duration": 0.1138,
      "velocity": 127,
      "chip": "ym2612"
    },
    {
      "channel": 4,
      "note": 89,
      "start": 113.2211,
      "duration": 0.2278,
      "velocity": 95,
      "chip": "ym2612"
    },
    {
      "channel": 2,
      "note": 93,
      "start": 113.2237,
      "duration": 0.2254,
      "velocity": 95,
      "chip": "ym2612"
    },
    {
      "channel": 5,
      "note": 96,
      "start": 113.2265,
      "duration": 0.2559,
      "velocity": 95,
      "chip": "ym2612"
    },
    {
      "channel": 1,
      "note": 57,
      "start": 113.3352,
      "duration": 0.0803,
      "velocity": 116,
      "chip": "ym2612"
    },
    {
      "channel": 0,
      "note": 45,
      "start": 113.3376,
      "duration": 0.1111,
      "velocity": 127,
      "chip": "ym2612"
    },
    {
      "channel": 3,
      "note": 96,
      "start": 113.3407,
      "duration": 0.0582,
      "velocity": 100,
      "chip": "ym2612"
    },
    {
      "channel": 1,
      "note": 64,
      "start": 113.4524,
      "duration": 0.2131,
      "velocity": 116,
      "chip": "ym2612"
    },
    {
      "channel": 0,
      "note": 45,
      "start": 113.4547,
      "duration": 0.1107,
      "velocity": 127,
      "chip": "ym2612"
    },
    {
      "channel": 4,
      "note": 77,
      "start": 113.4575,
      "duration": 0.1248,
      "velocity": 95,
      "chip": "ym2612"
    },
    {
      "channel": 3,
      "note": 99,
      "start": 113.4604,
      "duration": 0.0551,
      "velocity": 100,
      "chip": "ym2612"
    },
    {
      "channel": 0,
      "note": 45,
      "start": 113.5683,
      "duration": 0.1137,
      "velocity": 127,
      "chip": "ym2612"
    },
    {
      "channel": 5,
      "note": 89,
      "start": 113.5712,
      "duration": 0.1169,
      "velocity": 95,
      "chip": "ym2612"
    },
    {
      "channel": 2,
      "note": 93,
      "start": 113.5737,
      "duration": 0.1586,
      "velocity": 95,
      "chip": "ym2612"
    },
    {
      "channel": 3,
      "note": 96,
      "start": 113.5769,
      "duration": 0.1746,
      "velocity": 95,
      "chip": "ym2612"
    },
    {
      "channel": 1,
      "note": 63,
      "start": 113.6849,
      "duration": 0.1146,
      "velocity": 116,
      "chip": "ym2612"
    },
    {
      "channel": 0,
      "note": 45,
      "start": 113.6873,
      "duration": 0.0448,
      "velocity": 127,
      "chip": "ym2612"
    },
    {
      "channel": 4,
      "note": 98,
      "start": 113.694,
      "duration": 0.02,
      "velocity": 100,
      "chip": "ym2612"
    },
    {
      "channel": 2,
      "note": 77,
      "start": 113.7361,
      "duration": 0.0801,
      "velocity": 95,
      "chip": "ym2612"
    },
    {
      "channel": 1,
      "note": 62,
      "start": 113.8189,
      "duration": 0.2138,
      "velocity": 116,
      "chip": "ym2612"
    },
    {
      "channel": 3,
      "note": 89,
      "start": 113.8218,
      "duration": 0.1778,
      "velocity": 95,
      "chip": "ym2612"
    },
    {
      "channel": 2,
      "note": 93,
      "start": 113.8245,
      "duration": 0.1919,
      "velocity": 95,
      "chip": "ym2612"
    },
    {
      "channel": 4,
      "note": 96,
      "start": 113.8273,
      "duration": 0.2056,
      "velocity": 95,
      "chip": "ym2612"
    },
    {
      "channel": 1,
      "note": 57,
      "start": 114.0524,
      "duration": 0.1035,
      "velocity": 116,
      "chip": "ym2612"
    },
    {
      "channel": 0,
      "note": 45,
      "start": 114.0548,
      "duration": 0.0456,
      "velocity": 127,
      "chip": "ym2612"
    },
    {
      "channel": 3,
      "note": 78,
      "start": 114.0574,
      "duration": 0.0985,
      "velocity": 95,
      "chip": "ym2612"
    },
    {
      "channel": 4,
      "note": 93,
      "start": 114.1463,
      "duration": 0.1576,
      "velocity": 95,
      "chip": "ym2612"
    },
    {
      "channel": 2,
      "note": 98,
      "start": 114.1494,
      "duration": 0.1378,
      "velocity": 95,
      "chip": "ym2612"
    },
    {
      "channel": 0,
      "note": 90,
      "start": 114.1519,
      "duration": 0.0008,
      "velocity": 95,
      "chip": "ym2612"
    },
    {
      "channel": 0,
      "note": 93,
      "start": 114.1546,
      "duration": 0.0114,
      "velocity": 100,
      "chip": "ym2612"
    },
    {
      "channel": 1,
      "note": 57,
      "start": 114.1925,
      "duration": 0.1747,
      "velocity": 116,
      "chip": "ym2612"
    },
    {
      "channel": 3,
      "note": 45,
      "start": 114.1961,
      "duration": 0.1077,
      "velocity": 127,
      "chip": "ym2612"
    },
    {
      "channel": 3,
      "note": 45,
      "start": 114.3073,
      "duration": 0.0466,
      "velocity": 127,
      "chip": "ym2612"
    },
    {
      "channel": 4,
      "note": 78,
      "start": 114.3101,
      "duration": 0.0572,
      "velocity": 95,
      "chip": "ym2612"
    },
    {
      "channel": 0,
      "note": 96,
      "start": 114.3159,
      "duration": 0.0136,
      "velocity": 100,
      "chip": "ym2612"
    },
    {
      "channel": 2,
      "note": 90,
      "start": 114.3578,
      "duration": 0.1969,
      "velocity": 95,
      "chip": "ym2612"
    },
    {
      "channel": 0,
      "note": 98,
      "start": 114.3601,
      "duration": 0.0034,
      "velocity": 95,
      "chip": "ym2612"
    },
    {
      "channel": 3,
      "note": 93,
      "start": 114.3626,
      "duration": 0.2085,
      "velocity": 95,
      "chip": "ym2612"
    },
    {
      "channel": 0,
      "note": 93,
      "start": 114.3653,
      "duration": 0.0114,
      "velocity": 100,
      "chip": "ym2612"
    },
    {
      "channel": 1,
      "note": 57,
      "start": 114.4406,
      "duration": 0.2637,
      "velocity": 116,
      "chip": "ym2612"
    },
    {
      "channel": 4,
      "note": 45,
      "start": 114.4432,
      "duration": 0.1113,
      "velocity": 127,
      "chip": "ym2612"
    },
    {
      "channel": 2,
      "note": 78,
      "start": 114.5584,
      "duration": 0.1295,
      "velocity": 95,
      "chip": "ym2612"
    },
    {
      "channel": 0,
      "note": 98,
      "start": 114.561,
      "duration": 0.0434,
      "velocity": 100,
      "chip": "ym2612"
    },
    {
      "channel": 4,
      "note": 45,
      "start": 114.674,
      "duration": 0.1139,
      "velocity": 127,
      "chip": "ym2612"
    },
    {
      "channel": 3,
      "note": 90,
      "start": 114.6768,
      "duration": 0.1944,
      "velocity": 95,
      "chip": "ym2612"
    },
    {
      "channel": 5,
      "note": 98,
      "start": 114.6793,
      "duration": 0.192,
      "velocity": 95,
      "chip": "ym2612"
    },
    {
      "channel": 0,
      "note": 93,
      "start": 114.682,
      "duration": 0.2224,
      "velocity": 95,
      "chip": "ym2612"
    },
    {
      "channel": 1,
      "note": 57,
      "start": 114.7908,
      "duration": 0.0636,
      "velocity": 116,
      "chip": "ym2612"
    },
    {
      "channel": 2,
      "note": 96,
      "start": 114.7941,
      "duration": 0.0438,
      "velocity": 100,
      "chip": "ym2612"
    },
    {
      "channel": 1,
      "note": 60,
      "start": 114.9079,
      "duration": 0.1966,
      "velocity": 116,
      "chip": "ym2612"
    },
    {
      "channel": 4,
      "note": 45,
      "start": 114.9104,
      "duration": 0.1109,
      "velocity": 127,
      "chip": "ym2612"
    },
    {
      "channel": 0,
      "note": 78,
      "start": 114.913,
      "duration": 0.108,
      "velocity": 95,
      "chip": "ym2612"
    },
    {
      "channel": 2,
      "note": 99,
      "start": 114.9161,
      "duration": 0.0385,
      "velocity": 100,
      "chip": "ym2612"
    },
    {
      "channel": 0,
      "note": 90,
      "start": 115.0244,
      "duration": 0.1393,
      "velocity": 95,
      "chip": "ym2612"
    },
    {
      "channel": 3,
      "note": 93,
      "start": 115.0273,
      "duration": 0.1427,
      "velocity": 95,
      "chip": "ym2612"
    },
    {
      "channel": 5,
      "note": 98,
      "start": 115.03,
      "duration": 0.097,
      "velocity": 95,
      "chip": "ym2612"
    },
    {
      "channel": 1,
      "note": 57,
      "start": 115.1237,
      "duration": 0.114,
      "velocity": 116,
      "chip": "ym2612"
    },
    {
      "channel": 4,
      "note": 45,
      "start": 115.1263,
      "duration": 0.0437,
      "velocity": 127,
      "chip": "ym2612"
    },
    {
      "channel": 2,
      "note": 100,
      "start": 115.1324,
      "duration": 0.0192,
      "velocity": 100,
      "chip": "ym2612"
    },
    {
      "channel": 4,
      "note": 45,
      "start": 115.1736,
      "duration": 0.0808,
      "velocity": 127,
      "chip": "ym2612"
    },
    {
      "channel": 0,
      "note": 78,
      "start": 115.176,
      "duration": 0.1284,
      "velocity": 95,
      "chip": "ym2612"
    },
    {
      "channel": 1,
      "note": 55,
      "start": 115.2572,
      "duration": 0.1805,
      "velocity": 116,
      "chip": "ym2612"
    },
    {
      "channel": 3,
      "note": 93,
      "start": 115.26,
      "duration": 0.211,
      "velocity": 95,
      "chip": "ym2612"
    },
    {
      "channel": 2,
      "note": 90,
      "start": 115.2627,
      "duration": 0.2087,
      "velocity": 95,
      "chip": "ym2612"
    },
    {
      "channel": 5,
      "note": 98,
      "start": 115.2653,
      "duration": 0.2059,
      "velocity": 95,
      "chip": "ym2612"
    },
    {
      "channel": 4,
      "note": 103,
      "start": 115.2683,
      "duration": 0.0528,
      "velocity": 100,
      "chip": "ym2612"
    },
    {
      "channel": 1,
      "note": 52,
      "start": 115.4907,
      "duration": 0.1086,
      "velocity": 116,
      "chip": "ym2612"
    },
    {
      "channel": 0,
      "note": 45,
      "start": 115.4933,
      "duration": 0.0458,
      "velocity": 127,
      "chip": "ym2612"
    },
    {
      "channel": 3,
      "note": 76,
      "start": 115.4959,
      "duration": 0.0998,
      "velocity": 95,
      "chip": "ym2612"
    },
    {
      "channel": 2,
      "note": 97,
      "start": 115.5858,
      "duration": 0.141,
      "velocity": 95,
      "chip": "ym2612"
    },
    {
      "channel": 4,
      "note": 88,
      "start": 115.5891,
      "duration": 0.1376,
      "velocity": 95,
      "chip": "ym2612"
    },
    {
      "channel": 0,
      "note": 92,
      "start": 115.5916,
      "duration": 0.0011,
      "velocity": 95,
      "chip": "ym2612"
    },
    {
      "channel": 0,
      "note": 105,
      "start": 115.5946,
      "duration": 0.0168,
      "velocity": 100,
      "chip": "ym2612"
    },
    {
      "channel": 1,
      "note": 52,
      "start": 115.6322,
      "duration": 0.1746,
      "velocity": 116,
      "chip": "ym2612"
    },
    {
      "channel": 3,
      "note": 45,
      "start": 115.6359,
      "duration": 0.1074,
      "velocity": 127,
      "chip": "ym2612"
    },
    {
      "channel": 3,
      "note": 45,
      "start": 115.7463,
      "duration": 0.0468,
      "velocity": 127,
      "chip": "ym2612"
    },
    {
      "channel": 4,
      "note": 76,
      "start": 115.7491,
      "duration": 0.0612,
      "velocity": 95,
      "chip": "ym2612"
    },
    {
      "channel": 0,
      "note": 103,
      "start": 115.7549,
      "duration": 0.0199,
      "velocity": 100,
      "chip": "ym2612"
    },
    {
      "channel": 2,
      "note": 92,
      "start": 115.7969,
      "duration": 0.2138,
      "velocity": 95,
      "chip": "ym2612"
    },
    {
      "channel": 0,
      "note": 88,
      "start": 115.7993,
      "duration": 0.0046,
      "velocity": 95,
      "chip": "ym2612"
    },
    {
      "channel": 3,
      "note": 97,
      "start": 115.802,
      "duration": 0.1919,
      "velocity": 95,
      "chip": "ym2612"
    },
    {
      "channel": 0,
      "note": 100,
      "start": 115.8058,
      "duration": 0.0101,
      "velocity": 100,
      "chip": "ym2612"
    },
    {
      "channel": 1,
      "note": 52,
      "start": 115.8801,
      "duration": 0.2637,
      "velocity": 116,
      "chip": "ym2612"
    },
    {
      "channel": 4,
      "note": 45,
      "start": 115.8827,
      "duration": 0.1113,
      "velocity": 127,
      "chip": "ym2612"
    },
    {
      "channel": 3,
      "note": 76,
      "start": 115.9974,
      "duration": 0.1299,
      "velocity": 95,
      "chip": "ym2612"
    },
    {
      "channel": 0,
      "note": 103,
      "start": 116.0,
      "duration": 0.044,
      "velocity": 100,
      "chip": "ym2612"
    },
    {
      "channel": 4,
      "note": 45,
      "start": 116.114,
      "duration": 0.1134,
      "velocity": 127,
      "chip": "ym2612"
    },
    {
      "channel": 2,
      "note": 95,
      "start": 116.117,
      "duration": 0.2105,
      "velocity": 95,
      "chip": "ym2612"
    },
    {
      "channel": 5,
      "note": 88,
      "start": 116.1195,
      "duration": 0.2079,
      "velocity": 95,
      "chip": "ym2612"
    },
    {
      "channel": 0,
      "note": 92,
      "start": 116.1222,
      "duration": 0.2216,
      "velocity": 95,
      "chip": "ym2612"
    },
    {
      "channel": 1,
      "note": 52,
      "start": 116.2303,
      "duration": 0.047,
      "velocity": 116,
      "chip": "ym2612"
    },
    {
      "channel": 4,
      "note": 45,
      "start": 116.2328,
      "duration": 0.1112,
      "velocity": 127,
      "chip": "ym2612"
    },
    {
      "channel": 3,
      "note": 100,
      "start": 116.2359,
      "duration": 0.0415,
      "velocity": 100,
      "chip": "ym2612"
    },
    {
      "channel": 1,
      "note": 52,
      "start": 116.3474,
      "duration": 0.1964,
      "velocity": 116,
      "chip": "ym2612"
    },
    {
      "channel": 4,
      "note": 45,
      "start": 116.3499,
      "duration": 0.1108,
      "velocity": 127,
      "chip": "ym2612"
    },
    {
      "channel": 0,
      "note": 76,
      "start": 116.3526,
      "duration": 0.1246,
      "velocity": 95,
      "chip": "ym2612"
    },
    {
      "channel": 3,
      "note": 98,
      "start": 116.3554,
      "duration": 0.0386,
      "velocity": 100,
      "chip": "ym2612"
    },
    {
      "channel": 4,
      "note": 45,
      "start": 116.4636,
      "duration": 0.1138,
      "velocity": 127,
      "chip": "ym2612"
    },
    {
      "channel": 5,
      "note": 88,
      "start": 116.4668,
      "duration": 0.1165,
      "velocity": 95,
      "chip": "ym2612"
    },
    {
      "channel": 2,
      "note": 92,
      "start": 116.4695,
      "duration": 0.1653,
      "velocity": 95,
      "chip": "ym2612"
    },
    {
      "channel": 3,
      "note": 95,
      "start": 116.4721,
      "duration": 0.1624,
      "velocity": 95,
      "chip": "ym2612"
    },
    {
      "channel": 1,
      "note": 55,
      "start": 116.5801,
      "duration": 0.0977,
      "velocity": 116,
      "chip": "ym2612"
    },
    {
      "channel": 4,
      "note": 45,
      "start": 116.5827,
      "duration": 0.0444,
      "velocity": 127,
      "chip": "ym2612"
    },
    {
      "channel": 0,
      "note": 96,
      "start": 116.589,
      "duration": 0.0136,
      "velocity": 100,
      "chip": "ym2612"
    },
    {
      "channel": 0,
      "note": 76,
      "start": 116.6309,
      "duration": 0.1136,
      "velocity": 95,
      "chip": "ym2612"
    },
    {
      "channel": 1,
      "note": 56,
      "start": 116.7139,
      "duration": 0.1973,
      "velocity": 116,
      "chip": "ym2612"
    },
    {
      "channel": 3,
      "note": 95,
      "start": 116.7167,
      "duration": 0.1611,
      "velocity": 95,
      "chip": "ym2612"
    },
    {
      "channel": 2,
      "note": 92,
      "start": 116.7194,
      "duration": 0.1754,
      "velocity": 95,
      "chip": "ym2612"
    },
    {
      "channel": 4,
      "note": 88,
      "start": 116.722,
      "duration": 0.1726,
      "velocity": 95,
      "chip": "ym2612"
    },
    {
      "channel": 1,
      "note": 57,
      "start": 116.9308,
      "duration": 0.0915,
      "velocity": 116,
      "chip": "ym2612"
    },
    {
      "channel": 5,
      "note": 45,
      "start": 116.9336,
      "duration": 0.0034,
      "velocity": 127,
      "chip": "ym2612"
    },
    {
      "channel": 0,
      "note": 81,
      "start": 116.9364,
      "duration": 0.1022,
      "velocity": 95,
      "chip": "ym2612"
    },
    {
      "channel": 3,
      "note": 96,
      "start": 117.0251,
      "duration": 0.1575,
      "velocity": 95,
      "chip": "ym2612"
    },
    {
      "channel": 4,
      "note": 93,
      "start": 117.0273,
      "duration": 0.1555,
      "velocity": 95,
      "chip": "ym2612"
    },
    {
      "channel": 2,
      "note": 88,
      "start": 117.0305,
      "duration": 0.1524,
      "velocity": 95,
      "chip": "ym2612"
    },
    {
      "channel": 1,
      "note": 93,
      "start": 117.0332,
      "duration": 0.0178,
      "velocity": 100,
      "chip": "ym2612"
    },
    {
      "channel": 0,
      "note": 57,
      "start": 117.072,
      "duration": 0.1543,
      "velocity": 116,
      "chip": "ym2612"
    },
    {
      "channel": 1,
      "note": 45,
      "start": 117.0756,
      "duration": 0.1069,
      "velocity": 127,
      "chip": "ym2612"
    },
    {
      "channel": 1,
      "note": 45,
      "start": 117.1858,
      "duration": 0.0467,
      "velocity": 127,
      "chip": "ym2612"
    },
    {
      "channel": 3,
      "note": 81,
      "start": 117.1885,
      "duration": 0.0666,
      "velocity": 95,
      "chip": "ym2612"
    },
    {
      "channel": 4,
      "note": 96,
      "start": 117.1945,
      "duration": 0.0198,
      "velocity": 100,
      "chip": "ym2612"
    },
    {
      "channel": 2,
      "note": 96,
      "start": 117.2364,
      "duration": 0.2139,
      "velocity": 95,
      "chip": "ym2612"
    },
    {
      "channel": 4,
      "note": 88,
      "start": 117.2387,
      "duration": 0.195,
      "velocity": 95,
      "chip": "ym2612"
    },
    {
      "channel": 0,
      "note": 93,
      "start": 117.2414,
      "duration": 0.2253,
      "velocity": 95,
      "chip": "ym2612"
    },
    {
      "channel": 1,
      "note": 93,
      "start": 117.2452,
      "duration": 0.0215,
      "velocity": 100,
      "chip": "ym2612"
    },
    {
      "channel": 3,
      "note": 57,
      "start": 117.3198,
      "duration": 0.2138,
      "velocity": 116,
      "chip": "ym2612"
    },
    {
      "channel": 5,
      "note": 45,
      "start": 117.3223,
      "duration": 0.1115,
      "velocity": 127,
      "chip": "ym2612"
    },
    {
      "channel": 4,
      "note": 81,
      "start": 117.437,
      "duration": 0.1465,
      "velocity": 95,
      "chip": "ym2612"
    },
    {
      "channel": 1,
      "note": 98,
      "start": 117.4397,
      "duration": 0.0605,
      "velocity": 100,
      "chip": "ym2612"
    },
    {
      "channel": 5,
      "note": 45,
      "start": 117.5531,
      "duration": 0.1139,
      "velocity": 127,
      "chip": "ym2612"
    },
    {
      "channel": 0,
      "note": 96,
      "start": 117.5558,
      "duration": 0.2443,
      "velocity": 95,
      "chip": "ym2612"
    },
    {
      "channel": 2,
      "note": 88,
      "start": 117.5584,
      "duration": 0.2253,
      "velocity": 95,
      "chip": "ym2612"
    },
    {
      "channel": 1,
      "note": 93,
      "start": 117.5612,
      "duration": 0.2555,
      "velocity": 95,
      "chip": "ym2612"
    },
    {
      "channel": 3,
      "note": 57,
      "start": 117.67,
      "duration": 0.0802,
      "velocity": 116,
      "chip": "ym2612"
    },
    {
      "channel": 4,
      "note": 96,
      "start": 117.6732,
      "duration": 0.0438,
      "velocity": 100,
      "chip": "ym2612"
    },
    {
      "channel": 3,
      "note": 60,
      "start": 117.7866,
      "duration": 0.2136,
      "velocity": 116,
      "chip": "ym2612"
    },
    {
      "channel": 5,
      "note": 45,
      "start": 117.7892,
      "duration": 0.1111,
      "velocity": 127,
      "chip": "ym2612"
    },
    {
      "channel": 2,
      "note": 81,
      "start": 117.7921,
      "duration": 0.1249,
      "velocity": 95,
      "chip": "ym2612"
    },
    {
      "channel": 4,
      "note": 99,
      "start": 117.795,
      "duration": 0.0386,
      "velocity": 100,
      "chip": "ym2612"
    },
    {
      "channel": 0,
      "note": 88,
      "start": 117.9037,
      "duration": 0.1627,
      "velocity": 95,
      "chip": "ym2612"
    },
    {
      "channel": 1,
      "note": 96,
      "start": 117.9062,
      "duration": 0.1693,
      "velocity": 95,
      "chip": "ym2612"
    },
    {
      "channel": 4,
      "note": 93,
      "start": 117.909,
      "duration": 0.1717,
      "velocity": 95,
      "chip": "ym2612"
    },
    {
      "channel": 3,
      "note": 57,
      "start": 118.0195,
      "duration": 0.1141,
      "velocity": 116,
      "chip": "ym2612"
    },
    {
      "channel": 5,
      "note": 45,
      "start": 118.0225,
      "duration": 0.0007,
      "velocity": 127,
      "chip": "ym2612"
    },
    {
      "channel": 2,
      "note": 100,
      "start": 118.0287,
      "duration": 0.0137,
      "velocity": 100,
      "chip": "ym2612"
    },
    {
      "channel": 2,
      "note": 45,
      "start": 118.0701,
      "duration": 0.0804,
      "velocity": 127,
      "chip": "ym2612"
    },
    {
      "channel": 0,
      "note": 81,
      "start": 118.0724,
      "duration": 0.0778,
      "velocity": 95,
      "chip": "ym2612"
    },
    {
      "channel": 3,
      "note": 55,
      "start": 118.1536,
      "duration": 0.1633,
      "velocity": 116,
      "chip": "ym2612"
    },
    {
      "channel": 0,
      "note": 88,
      "start": 118.1564,
      "duration": 0.2104,
      "velocity": 95,
      "chip": "ym2612"
    },
    {
      "channel": 1,
      "note": 93,
      "start": 118.1588,
      "duration": 0.2388,
      "velocity": 95,
      "chip": "ym2612"
    },
    {
      "channel": 4,
      "note": 96,
      "start": 118.1619,
      "duration": 0.2217,
      "velocity": 95,
      "chip": "ym2612"
    },
    {
      "channel": 5,
      "note": 103,
      "start": 118.1649,
      "duration": 0.0355,
      "velocity": 100,
      "chip": "ym2612"
    },
    {
      "channel": 3,
      "note": 57,
      "start": 118.3866,
      "duration": 0.1027,
      "velocity": 116,
      "chip": "ym2612"
    },
    {
      "channel": 2,
      "note": 45,
      "start": 118.3893,
      "duration": 0.046,
      "velocity": 127,
      "chip": "ym2612"
    },
    {
      "channel": 0,
      "note": 77,
      "start": 118.3917,
      "duration": 0.0858,
      "velocity": 95,
      "chip": "ym2612"
    },
    {
      "channel": 0,
      "note": 89,
      "start": 118.4803,
      "duration": 0.124,
      "velocity": 95,
      "chip": "ym2612"
    },
    {
      "channel": 1,
      "note": 96,
      "start": 118.4824,
      "duration": 0.122,
      "velocity": 95,
      "chip": "ym2612"
    },
    {
      "channel": 4,
      "note": 93,
      "start": 118.4856,
      "duration": 0.119,
      "velocity": 95,
      "chip": "ym2612"
    },
    {
      "channel": 2,
      "note": 93,
      "start": 118.4882,
      "duration": 0.0124,
      "velocity": 100,
      "chip": "ym2612"
    },
    {
      "channel": 3,
      "note": 57,
      "start": 118.5267,
      "duration": 0.1433,
      "velocity": 116,
      "chip": "ym2612"
    },
    {
      "channel": 2,
      "note": 45,
      "start": 118.5302,
      "duration": 0.0909,
      "velocity": 127,
      "chip": "ym2612"
    },
    {
      "channel": 2,
      "note": 45,
      "start": 118.6242,
      "duration": 0.046,
      "velocity": 127,
      "chip": "ym2612"
    },
    {
      "channel": 0,
      "note": 77,
      "start": 118.6268,
      "duration": 0.0604,
      "velocity": 95,
      "chip": "ym2612"
    },
    {
      "channel": 1,
      "note": 96,
      "start": 118.6328,
      "duration": 0.0192,
      "velocity": 100,
      "chip": "ym2612"
    },
    {
      "channel": 4,
      "note": 89,
      "start": 118.6739,
      "duration": 0.1979,
      "velocity": 95,
      "chip": "ym2612"
    },
    {
      "channel": 1,
      "note": 93,
      "start": 118.6763,
      "duration": 0.1952,
      "velocity": 95,
      "chip": "ym2612"
    },
    {
      "channel": 3,
      "note": 96,
      "start": 118.6789,
      "duration": 0.2093,
      "velocity": 95,
      "chip": "ym2612"
    },
    {
      "channel": 2,
      "note": 93,
      "start": 118.6825,
      "duration": 0.0225,
      "velocity": 100,
      "chip": "ym2612"
    },
    {
      "channel": 0,
      "note": 57,
      "start": 118.7578,
      "duration": 0.2303,
      "velocity": 116,
      "chip": "ym2612"
    },
    {
      "channel": 5,
      "note": 45,
      "start": 118.7604,
      "duration": 0.1115,
      "velocity": 127,
      "chip": "ym2612"
    },
    {
      "channel": 1,
      "note": 77,
      "start": 118.8751,
      "duration": 0.1298,
      "velocity": 95,
      "chip": "ym2612"
    },
    {
      "channel": 2,
      "note": 98,
      "start": 118.8783,
      "duration": 0.06,
      "velocity": 100,
      "chip": "ym2612"
    },
    {
      "channel": 5,
      "note": 45,
      "start": 118.9913,
      "duration": 0.1137,
      "velocity": 127,
      "chip": "ym2612"
    },
    {
      "channel": 3,
      "note": 89,
      "start": 118.9941,
      "duration": 0.2273,
      "velocity": 95,
      "chip": "ym2612"
    },
    {
      "channel": 4,
      "note": 93,
      "start": 118.9966,
      "duration": 0.2251,
      "velocity": 95,
      "chip": "ym2612"
    },
    {
      "channel": 2,
      "note": 96,
      "start": 118.9994,
      "duration": 0.239,
      "velocity": 95,
      "chip": "ym2612"
    },
    {
      "channel": 0,
      "note": 57,
      "start": 119.1079,
      "duration": 0.0803,
      "velocity": 116,
      "chip": "ym2612"
    },
    {
      "channel": 5,
      "note": 45,
      "start": 119.1104,
      "duration": 0.1113,
      "velocity": 127,
      "chip": "ym2612"
    },
    {
      "channel": 1,
      "note": 96,
      "start": 119.1135,
      "duration": 0.058,
      "velocity": 100,
      "chip": "ym2612"
    },
    {
      "channel": 0,
      "note": 64,
      "start": 119.2247,
      "duration": 0.2135,
      "velocity": 116,
      "chip": "ym2612"
    },
    {
      "channel": 5,
      "note": 45,
      "start": 119.2272,
      "duration": 0.1111,
      "velocity": 127,
      "chip": "ym2612"
    },
    {
      "channel": 3,
      "note": 77,
      "start": 119.2303,
      "duration": 0.1246,
      "velocity": 95,
      "chip": "ym2612"
    },
    {
      "channel": 1,
      "note": 99,
      "start": 119.2331,
      "duration": 0.055,
      "velocity": 100,
      "chip": "ym2612"
    },
    {
      "channel": 5,
      "note": 45,
      "start": 119.3413,
      "duration": 0.1137,
      "velocity": 127,
      "chip": "ym2612"
    },
    {
      "channel": 4,
      "note": 89,
      "start": 119.3441,
      "duration": 0.1604,
      "velocity": 95,
      "chip": "ym2612"
    },
    {
      "channel": 2,
      "note": 93,
      "start": 119.3466,
      "duration": 0.158,
      "velocity": 95,
      "chip": "ym2612"
    },
    {
      "channel": 1,
      "note": 96,
      "start": 119.3494,
      "duration": 0.1688,
      "velocity": 95,
      "chip": "ym2612"
    },
    {
      "channel": 0,
      "note": 63,
      "start": 119.4575,
      "duration": 0.1149,
      "velocity": 116,
      "chip": "ym2612"
    },
    {
      "channel": 5,
      "note": 45,
      "start": 119.4602,
      "duration": 0.0007,
      "velocity": 127,
      "chip": "ym2612"
    },
    {
      "channel": 3,
      "note": 98,
      "start": 119.4664,
      "duration": 0.0195,
      "velocity": 100,
      "chip": "ym2612"
    },
    {
      "channel": 4,
      "note": 77,
      "start": 119.5083,
      "duration": 0.0808,
      "velocity": 95,
      "chip": "ym2612"
    },
    {
      "channel": 0,
      "note": 62,
      "start": 119.5923,
      "duration": 0.1468,
      "velocity": 116,
      "chip": "ym2612"
    },
    {
      "channel": 1,
      "note": 89,
      "start": 119.5951,
      "duration": 0.1607,
      "velocity": 95,
      "chip": "ym2612"
    },
    {
      "channel": 4,
      "note": 93,
      "start": 119.5977,
      "duration": 0.1915,
      "velocity": 95,
      "chip": "ym2612"
    },
    {
      "channel": 2,
      "note": 96,
      "start": 119.6009,
      "duration": 0.2051,
      "velocity": 95,
      "chip": "ym2612"
    }
  ]
}