{
  "track_name": "08 - Dengekki Nurse S.O.S!",
  "duration_sec": 40.499,
  "sample_rate": 44100,
  "note_count": 944,
  "unique_pitches": 25,
  "pitch_range": 32,
  "avg_note_duration": 0.225,
  "reconstruction_stats": {
    "notes_reconstructed": 944,
    "keyon_events": 944,
    "keyoff_events": 940,
    "orphan_keyons": 4,
    "unique_pitches": 25,
    "pitch_range": 32,
    "avg_duration_sec": 0.225
  },
  "metadata": {
    "source": "D\\Dengeki Nurse\\08 - Dengekki Nurse S.O.S!.vgz"
  },
  "notes": [
    {
      "channel": 0,
      "note": 64,
      "start": 0.0024,
      "duration": 2.6068,
      "velocity": 95,
      "chip": "ym2612"
    },
    {
      "channel": 1,
      "note": 48,
      "start": 0.0038,
      "duration": 0.1035,
      "velocity": 99,
      "chip": "ym2612"
    },
    {
      "channel": 2,
      "note": 70,
      "start": 0.0344,
      "duration": 2.5918,
      "velocity": 95,
      "chip": "ym2612"
    },
    {
      "channel": 3,
      "note": 75,
      "start": 0.0381,
      "duration": 2.6205,
      "velocity": 95,
      "chip": "ym2612"
    },
    {
      "channel": 4,
      "note": 64,
      "start": 0.0926,
      "duration": 2.6788,
      "velocity": 95,
      "chip": "ym2612"
    },
    {
      "channel": 5,
      "note": 64,
      "start": 0.1088,
      "duration": 2.6787,
      "velocity": 95,
      "chip": "ym2612"
    },
    {
      "channel": 1,
      "note": 48,
      "start": 0.14,
      "duration": 0.1389,
      "velocity": 99,
      "chip": "ym2612"
    },
    {
      "channel": 1,
      "note": 48,
      "start": 0.3116,
      "duration": 0.1197,
      "velocity": 99,
      "chip": "ym2612"
    },
    {
      "channel": 1,
      "note": 48,
      "start": 0.464,
      "duration": 0.1775,
      "velocity": 99,
      "chip": "ym2612"
    },
    {
      "channel": 1,
      "note": 48,
      "start": 0.6741,
      "duration": 0.119,
      "velocity": 99,
      "chip": "ym2612"
    },
    {
      "channel": 1,
      "note": 48,
      "start": 0.8258,
      "duration": 0.1775,
      "velocity": 99,
      "chip": "ym2612"
    },
    {
      "channel": 1,
      "note": 48,
      "start": 1.0359,
      "duration": 0.1182,
      "velocity": 99,
      "chip": "ym2612"
    },
    {
      "channel": 1,
      "note": 48,
      "start": 1.1867,
      "duration": 0.1774,
      "velocity": 99,
      "chip": "ym2612"
    },
    {
      "channel": 1,
      "note": 48,
      "start": 1.3968,
      "duration": 0.1178,
      "velocity": 99,
      "chip": "ym2612"
    },
    {
      "channel": 1,
      "note": 48,
      "start": 1.5473,
      "duration": 0.1774,
      "velocity": 99,
      "chip": "ym2612"
    },
    {
      "channel": 1,
      "note": 48,
      "start": 1.7575,
      "duration": 0.1173,
      "velocity": 99,
      "chip": "ym2612"
    },
    {
      "channel": 1,
      "note": 48,
      "start": 1.9074,
      "duration": 0.1774,
      "velocity": 99,
      "chip": "ym2612"
    },
    {
      "channel": 1,
      "note": 48,
      "start": 2.1175,
      "duration": 0.1167,
      "velocity": 99,
      "chip": "ym2612"
    },
    {
      "channel": 1,
      "note": 48,
      "start": 2.2672,
      "duration": 0.1771,
      "velocity": 99,
      "chip": "ym2612"
    },
    {
      "channel": 1,
      "note": 48,
      "start": 2.477,
      "duration": 0.1161,
      "velocity": 99,
      "chip": "ym2612"
    },
    {
      "channel": 0,
      "note": 64,
      "start": 2.6257,
      "duration": 0.0968,
      "velocity": 95,
      "chip": "ym2612"
    },
    {
      "channel": 1,
      "note": 48,
      "start": 2.6262,
      "duration": 0.177,
      "velocity": 99,
      "chip": "ym2612"
    },
    {
      "channel": 2,
      "note": 70,
      "start": 2.6585,
      "duration": 0.0806,
      "velocity": 95,
      "chip": "ym2612"
    },
    {
      "channel": 3,
      "note": 75,
      "start": 2.6746,
      "duration": 0.0806,
      "velocity": 95,
      "chip": "ym2612"
    },
    {
      "channel": 0,
      "note": 64,
      "start": 2.7391,
      "duration": 0.0802,
      "velocity": 95,
      "chip": "ym2612"
    },
    {
      "channel": 2,
      "note": 70,
      "start": 2.7552,
      "duration": 0.0811,
      "velocity": 95,
      "chip": "ym2612"
    },
    {
      "channel": 3,
      "note": 75,
      "start": 2.7713,
      "duration": 0.0943,
      "velocity": 95,
      "chip": "ym2612"
    },
    {
      "channel": 4,
      "note": 64,
      "start": 2.7875,
      "duration": 0.0852,
      "velocity": 95,
      "chip": "ym2612"
    },
    {
      "channel": 5,
      "note": 64,
      "start": 2.8037,
      "duration": 0.0806,
      "velocity": 95,
      "chip": "ym2612"
    },
    {
      "channel": 0,
      "note": 64,
      "start": 2.8358,
      "duration": 0.6635,
      "velocity": 95,
      "chip": "ym2612"
    },
    {
      "channel": 1,
      "note": 48,
      "start": 2.8363,
      "duration": 0.1294,
      "velocity": 99,
      "chip": "ym2612"
    },
    {
      "channel": 2,
      "note": 70,
      "start": 2.8656,
      "duration": 0.6499,
      "velocity": 95,
      "chip": "ym2612"
    },
    {
      "channel": 3,
      "note": 75,
      "start": 2.8726,
      "duration": 0.6599,
      "velocity": 95,
      "chip": "ym2612"
    },
    {
      "channel": 4,
      "note": 64,
      "start": 2.8842,
      "duration": 0.0492,
      "velocity": 95,
      "chip": "ym2612"
    },
    {
      "channel": 5,
      "note": 64,
      "start": 2.8996,
      "duration": 0.0504,
      "velocity": 95,
      "chip": "ym2612"
    },
    {
      "channel": 4,
      "note": 64,
      "start": 2.95,
      "duration": 0.6632,
      "velocity": 95,
      "chip": "ym2612"
    },
    {
      "channel": 5,
      "note": 64,
      "start": 2.9661,
      "duration": 0.6632,
      "velocity": 95,
      "chip": "ym2612"
    },
    {
      "channel": 1,
      "note": 48,
      "start": 2.9983,
      "duration": 0.1386,
      "velocity": 99,
      "chip": "ym2612"
    },
    {
      "channel": 1,
      "note": 48,
      "start": 3.1697,
      "duration": 0.1196,
      "velocity": 99,
      "chip": "ym2612"
    },
    {
      "channel": 1,
      "note": 48,
      "start": 3.3219,
      "duration": 0.1775,
      "velocity": 99,
      "chip": "ym2612"
    },
    {
      "channel": 0,
      "note": 64,
      "start": 3.532,
      "duration": 0.1457,
      "velocity": 95,
      "chip": "ym2612"
    },
    {
      "channel": 1,
      "note": 48,
      "start": 3.5324,
      "duration": 0.1291,
      "velocity": 99,
      "chip": "ym2612"
    },
    {
      "channel": 2,
      "note": 70,
      "start": 3.5648,
      "duration": 0.1299,
      "velocity": 95,
      "chip": "ym2612"
    },
    {
      "channel": 3,
      "note": 75,
      "start": 3.5809,
      "duration": 0.1462,
      "velocity": 95,
      "chip": "ym2612"
    },
    {
      "channel": 4,
      "note": 64,
      "start": 3.6459,
      "duration": 0.1936,
      "velocity": 95,
      "chip": "ym2612"
    },
    {
      "channel": 5,
      "note": 64,
      "start": 3.662,
      "duration": 0.194,
      "velocity": 95,
      "chip": "ym2612"
    },
    {
      "channel": 0,
      "note": 64,
      "start": 3.6942,
      "duration": 0.1936,
      "velocity": 95,
      "chip": "ym2612"
    },
    {
      "channel": 1,
      "note": 48,
      "start": 3.6947,
      "duration": 0.177,
      "velocity": 99,
      "chip": "ym2612"
    },
    {
      "channel": 2,
      "note": 70,
      "start": 3.727,
      "duration": 0.1778,
      "velocity": 95,
      "chip": "ym2612"
    },
    {
      "channel": 3,
      "note": 75,
      "start": 3.7431,
      "duration": 0.1941,
      "velocity": 95,
      "chip": "ym2612"
    },
    {
      "channel": 4,
      "note": 64,
      "start": 3.856,
      "duration": 0.1344,
      "velocity": 95,
      "chip": "ym2612"
    },
    {
      "channel": 5,
      "note": 64,
      "start": 3.8721,
      "duration": 0.1348,
      "velocity": 95,
      "chip": "ym2612"
    },
    {
      "channel": 0,
      "note": 64,
      "start": 3.9043,
      "duration": 0.1344,
      "velocity": 95,
      "chip": "ym2612"
    },
    {
      "channel": 1,
      "note": 48,
      "start": 3.9048,
      "duration": 0.1178,
      "velocity": 99,
      "chip": "ym2612"
    },
    {
      "channel": 2,
      "note": 70,
      "start": 3.9371,
      "duration": 0.1188,
      "velocity": 95,
      "chip": "ym2612"
    },
    {
      "channel": 3,
      "note": 75,
      "start": 3.9532,
      "duration": 0.1349,
      "velocity": 95,
      "chip": "ym2612"
    },
    {
      "channel": 4,
      "note": 64,
      "start": 4.0069,
      "duration": 0.1936,
      "velocity": 95,
      "chip": "ym2612"
    },
    {
      "channel": 5,
      "note": 64,
      "start": 4.0231,
      "duration": 0.194,
      "velocity": 95,
      "chip": "ym2612"
    },
    {
      "channel": 0,
      "note": 64,
      "start": 4.0554,
      "duration": 0.1935,
      "velocity": 95,
      "chip": "ym2612"
    },
    {
      "channel": 1,
      "note": 48,
      "start": 4.0558,
      "duration": 0.1769,
      "velocity": 99,
      "chip": "ym2612"
    },
    {
      "channel": 2,
      "note": 70,
      "start": 4.0881,
      "duration": 0.1778,
      "velocity": 95,
      "chip": "ym2612"
    },
    {
      "channel": 3,
      "note": 75,
      "start": 4.1041,
      "duration": 0.1941,
      "velocity": 95,
      "chip": "ym2612"
    },
    {
      "channel": 4,
      "note": 64,
      "start": 4.217,
      "duration": 0.134,
      "velocity": 95,
      "chip": "ym2612"
    },
    {
      "channel": 5,
      "note": 64,
      "start": 4.2332,
      "duration": 0.1344,
      "velocity": 95,
      "chip": "ym2612"
    },
    {
      "channel": 0,
      "note": 64,
      "start": 4.2654,
      "duration": 0.134,
      "velocity": 95,
      "chip": "ym2612"
    },
    {
      "channel": 1,
      "note": 48,
      "start": 4.2658,
      "duration": 0.1174,
      "velocity": 99,
      "chip": "ym2612"
    },
    {
      "channel": 2,
      "note": 70,
      "start": 4.2982,
      "duration": 0.1182,
      "velocity": 95,
      "chip": "ym2612"
    },
    {
      "channel": 3,
      "note": 75,
      "start": 4.3143,
      "duration": 0.1344,
      "velocity": 95,
      "chip": "ym2612"
    },
    {
      "channel": 4,
      "note": 64,
      "start": 4.3675,
      "duration": 0.1936,
      "velocity": 95,
      "chip": "ym2612"
    },
    {
      "channel": 5,
      "note": 64,
      "start": 4.3837,
      "duration": 0.194,
      "velocity": 95,
      "chip": "ym2612"
    },
    {
      "channel": 0,
      "note": 64,
      "start": 4.4159,
      "duration": 0.1936,
      "velocity": 95,
      "chip": "ym2612"
    },
    {
      "channel": 1,
      "note": 48,
      "start": 4.4163,
      "duration": 0.177,
      "velocity": 99,
      "chip": "ym2612"
    },
    {
      "channel": 2,
      "note": 70,
      "start": 4.4487,
      "duration": 0.1778,
      "velocity": 95,
      "chip": "ym2612"
    },
    {
      "channel": 3,
      "note": 75,
      "start": 4.4648,
      "duration": 0.1941,
      "velocity": 95,
      "chip": "ym2612"
    },
    {
      "channel": 4,
      "note": 64,
      "start": 4.5777,
      "duration": 0.1334,
      "velocity": 95,
      "chip": "ym2612"
    },
    {
      "channel": 5,
      "note": 64,
      "start": 4.5938,
      "duration": 0.1338,
      "velocity": 95,
      "chip": "ym2612"
    },
    {
      "channel": 0,
      "note": 64,
      "start": 4.626,
      "duration": 0.1334,
      "velocity": 95,
      "chip": "ym2612"
    },
    {
      "channel": 1,
      "note": 48,
      "start": 4.6265,
      "duration": 0.1168,
      "velocity": 99,
      "chip": "ym2612"
    },
    {
      "channel": 2,
      "note": 70,
      "start": 4.6588,
      "duration": 0.1176,
      "velocity": 95,
      "chip": "ym2612"
    },
    {
      "channel": 3,
      "note": 75,
      "start": 4.6749,
      "duration": 0.1339,
      "velocity": 95,
      "chip": "ym2612"
    },
    {
      "channel": 4,
      "note": 64,
      "start": 4.7276,
      "duration": 0.1936,
      "velocity": 95,
      "chip": "ym2612"
    },
    {
      "channel": 5,
      "note": 64,
      "start": 4.7438,
      "duration": 0.194,
      "velocity": 95,
      "chip": "ym2612"
    },
    {
      "channel": 0,
      "note": 64,
      "start": 4.776,
      "duration": 0.1936,
      "velocity": 95,
      "chip": "ym2612"
    },
    {
      "channel": 1,
      "note": 48,
      "start": 4.7764,
      "duration": 0.177,
      "velocity": 99,
      "chip": "ym2612"
    },
    {
      "channel": 2,
      "note": 70,
      "start": 4.8088,
      "duration": 0.1777,
      "velocity": 95,
      "chip": "ym2612"
    },
    {
      "channel": 3,
      "note": 75,
      "start": 4.8248,
      "duration": 0.1941,
      "velocity": 95,
      "chip": "ym2612"
    },
    {
      "channel": 4,
      "note": 64,
      "start": 4.9377,
      "duration": 0.0987,
      "velocity": 95,
      "chip": "ym2612"
    },
    {
      "channel": 5,
      "note": 64,
      "start": 4.9539,
      "duration": 0.0992,
      "velocity": 95,
      "chip": "ym2612"
    },
    {
      "channel": 0,
      "note": 64,
      "start": 4.9861,
      "duration": 0.0986,
      "velocity": 95,
      "chip": "ym2612"
    },
    {
      "channel": 1,
      "note": 48,
      "start": 4.9865,
      "duration": 0.0821,
      "velocity": 99,
      "chip": "ym2612"
    },
    {
      "channel": 2,
      "note": 70,
      "start": 5.0189,
      "duration": 0.0829,
      "velocity": 95,
      "chip": "ym2612"
    },
    {
      "channel": 3,
      "note": 75,
      "start": 5.0195,
      "duration": 0.1015,
      "velocity": 95,
      "chip": "ym2612"
    },
    {
      "channel": 4,
      "note": 64,
      "start": 5.053,
      "duration": 0.1401,
      "velocity": 95,
      "chip": "ym2612"
    },
    {
      "channel": 5,
      "note": 64,
      "start": 5.0691,
      "duration": 0.1257,
      "velocity": 95,
      "chip": "ym2612"
    },
    {
      "channel": 0,
      "note": 60,
      "start": 5.1013,
      "duration": 0.1253,
      "velocity": 95,
      "chip": "ym2612"
    },
    {
      "channel": 1,
      "note": 48,
      "start": 5.1017,
      "duration": 0.1087,
      "velocity": 99,
      "chip": "ym2612"
    },
    {
      "channel": 4,
      "note": 60,
      "start": 5.1947,
      "duration": 0.1771,
      "velocity": 95,
      "chip": "ym2612"
    },
    {
      "channel": 5,
      "note": 60,
      "start": 5.2109,
      "duration": 0.1776,
      "velocity": 95,
      "chip": "ym2612"
    },
    {
      "channel": 0,
      "note": 63,
      "start": 5.2431,
      "duration": 0.1771,
      "velocity": 95,
      "chip": "ym2612"
    },
    {
      "channel": 1,
      "note": 51,
      "start": 5.2435,
      "duration": 0.1606,
      "velocity": 99,
      "chip": "ym2612"
    },
    {
      "channel": 4,
      "note": 63,
      "start": 5.3884,
      "duration": 0.177,
      "velocity": 95,
      "chip": "ym2612"
    },
    {
      "channel": 5,
      "note": 63,
      "start": 5.4046,
      "duration": 0.1774,
      "velocity": 95,
      "chip": "ym2612"
    },
    {
      "channel": 0,
      "note": 64,
      "start": 5.4367,
      "duration": 0.177,
      "velocity": 95,
      "chip": "ym2612"
    },
    {
      "channel": 1,
      "note": 52,
      "start": 5.4372,
      "duration": 0.1604,
      "velocity": 99,
      "chip": "ym2612"
    },
    {
      "channel": 4,
      "note": 64,
      "start": 5.5819,
      "duration": 0.1517,
      "velocity": 95,
      "chip": "ym2612"
    },
    {
      "channel": 5,
      "note": 64,
      "start": 5.5981,
      "duration": 0.1522,
      "velocity": 95,
      "chip": "ym2612"
    },
    {
      "channel": 0,
      "note": 65,
      "start": 5.6303,
      "duration": 0.48,
      "velocity": 95,
      "chip": "ym2612"
    },
    {
      "channel": 1,
      "note": 53,
      "start": 5.6307,
      "duration": 0.3368,
      "velocity": 99,
      "chip": "ym2612"
    },
    {
      "channel": 2,
      "note": 53,
      "start": 5.6321,
      "duration": 0.15,
      "velocity": 95,
      "chip": "ym2612"
    },
    {
      "channel": 3,
      "note": 53,
      "start": 5.7431,
      "duration": 0.176,
      "velocity": 95,
      "chip": "ym2612"
    },
    {
      "channel": 4,
      "note": 65,
      "start": 5.7502,
      "duration": 0.4617,
      "velocity": 95,
      "chip": "ym2612"
    },
    {
      "channel": 5,
      "note": 65,
      "start": 5.7663,
      "duration": 0.4617,
      "velocity": 95,
      "chip": "ym2612"
    },
    {
      "channel": 2,
      "note": 53,
      "start": 5.7986,
      "duration": 0.177,
      "velocity": 95,
      "chip": "ym2612"
    },
    {
      "channel": 3,
      "note": 53,
      "start": 5.9357,
      "duration": 0.134,
      "velocity": 95,
      "chip": "ym2612"
    },
    {
      "channel": 1,
      "note": 53,
      "start": 5.9921,
      "duration": 0.134,
      "velocity": 99,
      "chip": "ym2612"
    },
    {
      "channel": 2,
      "note": 53,
      "start": 5.9926,
      "duration": 0.1336,
      "velocity": 95,
      "chip": "ym2612"
    },
    {
      "channel": 3,
      "note": 53,
      "start": 6.0863,
      "duration": 0.1337,
      "velocity": 95,
      "chip": "ym2612"
    },
    {
      "channel": 0,
      "note": 68,
      "start": 6.1427,
      "duration": 0.4762,
      "velocity": 95,
      "chip": "ym2612"
    },
    {
      "channel": 1,
      "note": 56,
      "start": 6.1431,
      "duration": 0.3057,
      "velocity": 99,
      "chip": "ym2612"
    },
    {
      "channel": 2,
      "note": 56,
      "start": 6.1436,
      "duration": 0.1328,
      "velocity": 95,
      "chip": "ym2612"
    },
    {
      "channel": 3,
      "note": 56,
      "start": 6.2365,
      "duration": 0.1639,
      "velocity": 95,
      "chip": "ym2612"
    },
    {
      "channel": 4,
      "note": 68,
      "start": 6.2446,
      "duration": 0.4774,
      "velocity": 95,
      "chip": "ym2612"
    },
    {
      "channel": 5,
      "note": 68,
      "start": 6.2607,
      "duration": 0.4774,
      "velocity": 95,
      "chip": "ym2612"
    },
    {
      "channel": 2,
      "note": 53,
      "start": 6.2933,
      "duration": 0.1637,
      "velocity": 95,
      "chip": "ym2612"
    },
    {
      "channel": 3,
      "note": 53,
      "start": 6.417,
      "duration": 0.1616,
      "velocity": 95,
      "chip": "ym2612"
    },
    {
      "channel": 1,
      "note": 56,
      "start": 6.4734,
      "duration": 0.1617,
      "velocity": 99,
      "chip": "ym2612"
    },
    {
      "channel": 2,
      "note": 53,
      "start": 6.4739,
      "duration": 0.1612,
      "velocity": 95,
      "chip": "ym2612"
    },
    {
      "channel": 3,
      "note": 53,
      "start": 6.5951,
      "duration": 0.1349,
      "velocity": 95,
      "chip": "ym2612"
    },
    {
      "channel": 0,
      "note": 72,
      "start": 6.6516,
      "duration": 0.3203,
      "velocity": 95,
      "chip": "ym2612"
    },
    {
      "channel": 1,
      "note": 60,
      "start": 6.652,
      "duration": 0.1344,
      "velocity": 99,
      "chip": "ym2612"
    },
    {
      "channel": 2,
      "note": 60,
      "start": 6.6525,
      "duration": 0.134,
      "velocity": 95,
      "chip": "ym2612"
    },
    {
      "channel": 3,
      "note": 60,
      "start": 6.7468,
      "duration": 0.1767,
      "velocity": 95,
      "chip": "ym2612"
    },
    {
      "channel": 4,
      "note": 72,
      "start": 6.7546,
      "duration": 0.3512,
      "velocity": 95,
      "chip": "ym2612"
    },
    {
      "channel": 5,
      "note": 72,
      "start": 6.7707,
      "duration": 0.3516,
      "velocity": 95,
      "chip": "ym2612"
    },
    {
      "channel": 1,
      "note": 60,
      "start": 6.803,
      "duration": 0.177,
      "velocity": 99,
      "chip": "ym2612"
    },
    {
      "channel": 2,
      "note": 56,
      "start": 6.8034,
      "duration": 0.1766,
      "velocity": 95,
      "chip": "ym2612"
    },
    {
      "channel": 3,
      "note": 56,
      "start": 6.9401,
      "duration": 0.1657,
      "velocity": 95,
      "chip": "ym2612"
    },
    {
      "channel": 0,
      "note": 70,
      "start": 6.9965,
      "duration": 0.4933,
      "velocity": 95,
      "chip": "ym2612"
    },
    {
      "channel": 1,
      "note": 51,
      "start": 6.997,
      "duration": 0.3507,
      "velocity": 99,
      "chip": "ym2612"
    },
    {
      "channel": 2,
      "note": 51,
      "start": 6.9974,
      "duration": 0.1648,
      "velocity": 95,
      "chip": "ym2612"
    },
    {
      "channel": 3,
      "note": 51,
      "start": 7.1223,
      "duration": 0.177,
      "velocity": 95,
      "chip": "ym2612"
    },
    {
      "channel": 4,
      "note": 70,
      "start": 7.1304,
      "duration": 0.4614,
      "velocity": 95,
      "chip": "ym2612"
    },
    {
      "channel": 5,
      "note": 70,
      "start": 7.1465,
      "duration": 0.4614,
      "velocity": 95,
      "chip": "ym2612"
    },
    {
      "channel": 2,
      "note": 51,
      "start": 7.1787,
      "duration": 0.177,
      "velocity": 95,
      "chip": "ym2612"
    },
    {
      "channel": 3,
      "note": 51,
      "start": 7.3158,
      "duration": 0.1337,
      "velocity": 95,
      "chip": "ym2612"
    },
    {
      "channel": 1,
      "note": 51,
      "start": 7.3723,
      "duration": 0.1337,
      "velocity": 99,
      "chip": "ym2612"
    },
    {
      "channel": 2,
      "note": 51,
      "start": 7.3727,
      "duration": 0.1333,
      "velocity": 95,
      "chip": "ym2612"
    },
    {
      "channel": 3,
      "note": 51,
      "start": 7.4661,
      "duration": 0.1337,
      "velocity": 95,
      "chip": "ym2612"
    },
    {
      "channel": 0,
      "note": 67,
      "start": 7.5225,
      "duration": 0.305,
      "velocity": 95,
      "chip": "ym2612"
    },
    {
      "channel": 1,
      "note": 55,
      "start": 7.523,
      "duration": 0.3046,
      "velocity": 99,
      "chip": "ym2612"
    },
    {
      "channel": 2,
      "note": 55,
      "start": 7.5234,
      "duration": 0.1329,
      "velocity": 95,
      "chip": "ym2612"
    },
    {
      "channel": 3,
      "note": 55,
      "start": 7.6163,
      "duration": 0.1632,
      "velocity": 95,
      "chip": "ym2612"
    },
    {
      "channel": 4,
      "note": 67,
      "start": 7.6244,
      "duration": 0.3364,
      "velocity": 95,
      "chip": "ym2612"
    },
    {
      "channel": 5,
      "note": 67,
      "start": 7.6406,
      "duration": 0.3368,
      "velocity": 95,
      "chip": "ym2612"
    },
    {
      "channel": 2,
      "note": 51,
      "start": 7.6728,
      "duration": 0.1628,
      "velocity": 95,
      "chip": "ym2612"
    },
    {
      "channel": 3,
      "note": 51,
      "start": 7.7957,
      "duration": 0.1651,
      "velocity": 95,
      "chip": "ym2612"
    },
    {
      "channel": 0,
      "note": 63,
      "start": 7.8522,
      "duration": 0.3085,
      "velocity": 95,
      "chip": "ym2612"
    },
    {
      "channel": 1,
      "note": 55,
      "start": 7.8526,
      "duration": 0.1647,
      "velocity": 99,
      "chip": "ym2612"
    },
    {
      "channel": 2,
      "note": 51,
      "start": 7.853,
      "duration": 0.1643,
      "velocity": 95,
      "chip": "ym2612"
    },
    {
      "channel": 3,
      "note": 51,
      "start": 7.9774,
      "duration": 0.1348,
      "velocity": 95,
      "chip": "ym2612"
    },
    {
      "channel": 4,
      "note": 63,
      "start": 7.9854,
      "duration": 0.3203,
      "velocity": 95,
      "chip": "ym2612"
    },
    {
      "channel": 5,
      "note": 63,
      "start": 8.0016,
      "duration": 0.3208,
      "velocity": 95,
      "chip": "ym2612"
    },
    {
      "channel": 1,
      "note": 58,
      "start": 8.0339,
      "duration": 0.1347,
      "velocity": 99,
      "chip": "ym2612"
    },
    {
      "channel": 2,
      "note": 58,
      "start": 8.0344,
      "duration": 0.1343,
      "velocity": 95,
      "chip": "ym2612"
    },
    {
      "channel": 3,
      "note": 58,
      "start": 8.1288,
      "duration": 0.177,
      "velocity": 95,
      "chip": "ym2612"
    },
    {
      "channel": 0,
      "note": 60,
      "start": 8.1852,
      "duration": 0.177,
      "velocity": 95,
      "chip": "ym2612"
    },
    {
      "channel": 1,
      "note": 58,
      "start": 8.1856,
      "duration": 0.1766,
      "velocity": 99,
      "chip": "ym2612"
    },
    {
      "channel": 2,
      "note": 55,
      "start": 8.1861,
      "duration": 0.1762,
      "velocity": 95,
      "chip": "ym2612"
    },
    {
      "channel": 3,
      "note": 55,
      "start": 8.3223,
      "duration": 0.1631,
      "velocity": 95,
      "chip": "ym2612"
    },
    {
      "channel": 4,
      "note": 60,
      "start": 8.3304,
      "duration": 0.1631,
      "velocity": 95,
      "chip": "ym2612"
    },
    {
      "channel": 5,
      "note": 60,
      "start": 8.3465,
      "duration": 0.1635,
      "velocity": 95,
      "chip": "ym2612"
    },
    {
      "channel": 0,
      "note": 65,
      "start": 8.3787,
      "duration": 0.4902,
      "velocity": 95,
      "chip": "ym2612"
    },
    {
      "channel": 1,
      "note": 53,
      "start": 8.3792,
      "duration": 0.3481,
      "velocity": 99,
      "chip": "ym2612"
    },
    {
      "channel": 2,
      "note": 53,
      "start": 8.3796,
      "duration": 0.1622,
      "velocity": 95,
      "chip": "ym2612"
    },
    {
      "channel": 3,
      "note": 53,
      "start": 8.5019,
      "duration": 0.177,
      "velocity": 95,
      "chip": "ym2612"
    },
    {
      "channel": 4,
      "note": 65,
      "start": 8.51,
      "duration": 0.4608,
      "velocity": 95,
      "chip": "ym2612"
    },
    {
      "channel": 5,
      "note": 65,
      "start": 8.5261,
      "duration": 0.4608,
      "velocity": 95,
      "chip": "ym2612"
    },
    {
      "channel": 2,
      "note": 53,
      "start": 8.5584,
      "duration": 0.177,
      "velocity": 95,
      "chip": "ym2612"
    },
    {
      "channel": 3,
      "note": 53,
      "start": 8.6955,
      "duration": 0.1331,
      "velocity": 95,
      "chip": "ym2612"
    },
    {
      "channel": 1,
      "note": 53,
      "start": 8.7519,
      "duration": 0.1331,
      "velocity": 99,
      "chip": "ym2612"
    },
    {
      "channel": 2,
      "note": 53,
      "start": 8.7523,
      "duration": 0.1327,
      "velocity": 95,
      "chip": "ym2612"
    },
    {
      "channel": 3,
      "note": 53,
      "start": 8.8451,
      "duration": 0.1337,
      "velocity": 95,
      "chip": "ym2612"
    },
    {
      "channel": 0,
      "note": 68,
      "start": 8.9015,
      "duration": 0.4771,
      "velocity": 95,
      "chip": "ym2612"
    },
    {
      "channel": 1,
      "note": 56,
      "start": 8.902,
      "duration": 0.3066,
      "velocity": 99,
      "chip": "ym2612"
    },
    {
      "channel": 2,
      "note": 56,
      "start": 8.9024,
      "duration": 0.1328,
      "velocity": 95,
      "chip": "ym2612"
    },
    {
      "channel": 3,
      "note": 56,
      "start": 8.9954,
      "duration": 0.1648,
      "velocity": 95,
      "chip": "ym2612"
    },
    {
      "channel": 4,
      "note": 68,
      "start": 9.0036,
      "duration": 0.4776,
      "velocity": 95,
      "chip": "ym2612"
    },
    {
      "channel": 5,
      "note": 68,
      "start": 9.0197,
      "duration": 0.4776,
      "velocity": 95,
      "chip": "ym2612"
    },
    {
      "channel": 2,
      "note": 53,
      "start": 9.0518,
      "duration": 0.1648,
      "velocity": 95,
      "chip": "ym2612"
    },
    {
      "channel": 3,
      "note": 53,
      "start": 9.1767,
      "duration": 0.1617,
      "velocity": 95,
      "chip": "ym2612"
    },
    {
      "channel": 1,
      "note": 56,
      "start": 9.2332,
      "duration": 0.1617,
      "velocity": 99,
      "chip": "ym2612"
    },
    {
      "channel": 2,
      "note": 53,
      "start": 9.2336,
      "duration": 0.1613,
      "velocity": 95,
      "chip": "ym2612"
    },
    {
      "channel": 3,
      "note": 53,
      "start": 9.3549,
      "duration": 0.1344,
      "velocity": 95,
      "chip": "ym2612"
    },
    {
      "channel": 0,
      "note": 72,
      "start": 9.4114,
      "duration": 0.2794,
      "velocity": 95,
      "chip": "ym2612"
    },
    {
      "channel": 1,
      "note": 60,
      "start": 9.4118,
      "duration": 0.1338,
      "velocity": 99,
      "chip": "ym2612"
    },
    {
      "channel": 2,
      "note": 60,
      "start": 9.4123,
      "duration": 0.1334,
      "velocity": 95,
      "chip": "ym2612"
    },
    {
      "channel": 3,
      "note": 60,
      "start": 9.5057,
      "duration": 0.177,
      "velocity": 95,
      "chip": "ym2612"
    },
    {
      "channel": 4,
      "note": 72,
      "start": 9.5138,
      "duration": 0.3128,
      "velocity": 95,
      "chip": "ym2612"
    },
    {
      "channel": 5,
      "note": 72,
      "start": 9.53,
      "duration": 0.3132,
      "velocity": 95,
      "chip": "ym2612"
    },
    {
      "channel": 1,
      "note": 60,
      "start": 9.5622,
      "duration": 0.177,
      "velocity": 99,
      "chip": "ym2612"
    },
    {
      "channel": 2,
      "note": 56,
      "start": 9.5626,
      "duration": 0.1766,
      "velocity": 95,
      "chip": "ym2612"
    },
    {
      "channel": 3,
      "note": 56,
      "start": 9.6994,
      "duration": 0.1675,
      "velocity": 95,
      "chip": "ym2612"
    },
    {
      "channel": 0,
      "note": 68,
      "start": 9.7073,
      "duration": 0.0399,
      "velocity": 95,
      "chip": "ym2612"
    },
    {
      "channel": 0,
      "note": 72,
      "start": 9.7557,
      "duration": 0.0367,
      "velocity": 95,
      "chip": "ym2612"
    },
    {
      "channel": 1,
      "note": 53,
      "start": 9.7562,
      "duration": 0.3527,
      "velocity": 99,
      "chip": "ym2612"
    },
    {
      "channel": 2,
      "note": 53,
      "start": 9.7566,
      "duration": 0.1668,
      "velocity": 95,
      "chip": "ym2612"
    },
    {
      "channel": 0,
      "note": 79,
      "start": 9.7948,
      "duration": 0.4718,
      "velocity": 95,
      "chip": "ym2612"
    },
    {
      "channel": 4,
      "note": 68,
      "start": 9.8432,
      "duration": 0.0404,
      "velocity": 95,
      "chip": "ym2612"
    },
    {
      "channel": 5,
      "note": 68,
      "start": 9.8593,
      "duration": 0.0399,
      "velocity": 95,
      "chip": "ym2612"
    },
    {
      "channel": 3,
      "note": 53,
      "start": 9.8835,
      "duration": 0.177,
      "velocity": 95,
      "chip": "ym2612"
    },
    {
      "channel": 4,
      "note": 72,
      "start": 9.8915,
      "duration": 0.0399,
      "velocity": 95,
      "chip": "ym2612"
    },
    {
      "channel": 5,
      "note": 72,
      "start": 9.9077,
      "duration": 0.04,
      "velocity": 95,
      "chip": "ym2612"
    },
    {
      "channel": 2,
      "note": 53,
      "start": 9.9401,
      "duration": 0.1768,
      "velocity": 95,
      "chip": "ym2612"
    },
    {
      "channel": 4,
      "note": 79,
      "start": 9.9405,
      "duration": 0.428,
      "velocity": 95,
      "chip": "ym2612"
    },
    {
      "channel": 5,
      "note": 79,
      "start": 9.9561,
      "duration": 0.429,
      "velocity": 95,
      "chip": "ym2612"
    },
    {
      "channel": 3,
      "note": 53,
      "start": 10.077,
      "duration": 0.1332,
      "velocity": 95,
      "chip": "ym2612"
    },
    {
      "channel": 1,
      "note": 53,
      "start": 10.1334,
      "duration": 0.1332,
      "velocity": 99,
      "chip": "ym2612"
    },
    {
      "channel": 2,
      "note": 53,
      "start": 10.1339,
      "duration": 0.1328,
      "velocity": 95,
      "chip": "ym2612"
    },
    {
      "channel": 3,
      "note": 53,
      "start": 10.2267,
      "duration": 0.1337,
      "velocity": 95,
      "chip": "ym2612"
    },
    {
      "channel": 0,
      "note": 77,
      "start": 10.2835,
      "duration": 0.4792,
      "velocity": 95,
      "chip": "ym2612"
    },
    {
      "channel": 1,
      "note": 56,
      "start": 10.2839,
      "duration": 0.3053,
      "velocity": 99,
      "chip": "ym2612"
    },
    {
      "channel": 2,
      "note": 56,
      "start": 10.2844,
      "duration": 0.1326,
      "velocity": 95,
      "chip": "ym2612"
    },
    {
      "channel": 3,
      "note": 56,
      "start": 10.377,
      "duration": 0.1637,
      "velocity": 95,
      "chip": "ym2612"
    },
    {
      "channel": 4,
      "note": 77,
      "start": 10.3851,
      "duration": 0.48,
      "velocity": 95,
      "chip": "ym2612"
    },
    {
      "channel": 5,
      "note": 77,
      "start": 10.4012,
      "duration": 0.48,
      "velocity": 95,
      "chip": "ym2612"
    },
    {
      "channel": 2,
      "note": 53,
      "start": 10.4334,
      "duration": 0.1637,
      "velocity": 95,
      "chip": "ym2612"
    },
    {
      "channel": 3,
      "note": 53,
      "start": 10.5572,
      "duration": 0.1651,
      "velocity": 95,
      "chip": "ym2612"
    },
    {
      "channel": 1,
      "note": 56,
      "start": 10.6137,
      "duration": 0.1651,
      "velocity": 99,
      "chip": "ym2612"
    },
    {
      "channel": 2,
      "note": 53,
      "start": 10.6141,
      "duration": 0.1647,
      "velocity": 95,
      "chip": "ym2612"
    },
    {
      "channel": 3,
      "note": 53,
      "start": 10.7389,
      "duration": 0.1343,
      "velocity": 95,
      "chip": "ym2612"
    },
    {
      "channel": 0,
      "note": 75,
      "start": 10.7953,
      "duration": 0.3197,
      "velocity": 95,
      "chip": "ym2612"
    },
    {
      "channel": 1,
      "note": 60,
      "start": 10.7958,
      "duration": 0.1338,
      "velocity": 99,
      "chip": "ym2612"
    },
    {
      "channel": 2,
      "note": 60,
      "start": 10.7962,
      "duration": 0.1334,
      "velocity": 95,
      "chip": "ym2612"
    },
    {
      "channel": 3,
      "note": 60,
      "start": 10.8897,
      "duration": 0.177,
      "velocity": 95,
      "chip": "ym2612"
    },
    {
      "channel": 4,
      "note": 75,
      "start": 10.8978,
      "duration": 0.3384,
      "velocity": 95,
      "chip": "ym2612"
    },
    {
      "channel": 5,
      "note": 75,
      "start": 10.9139,
      "duration": 0.3388,
      "velocity": 95,
      "chip": "ym2612"
    },
    {
      "channel": 1,
      "note": 60,
      "start": 10.9461,
      "duration": 0.177,
      "velocity": 99,
      "chip": "ym2612"
    },
    {
      "channel": 2,
      "note": 56,
      "start": 10.9466,
      "duration": 0.1766,
      "velocity": 95,
      "chip": "ym2612"
    },
    {
      "channel": 3,
      "note": 56,
      "start": 11.0832,
      "duration": 0.1529,
      "velocity": 95,
      "chip": "ym2612"
    },
    {
      "channel": 0,
      "note": 65,
      "start": 11.1396,
      "duration": 0.4803,
      "velocity": 95,
      "chip": "ym2612"
    },
    {
      "channel": 1,
      "note": 49,
      "start": 11.1401,
      "duration": 0.3379,
      "velocity": 99,
      "chip": "ym2612"
    },
    {
      "channel": 2,
      "note": 49,
      "start": 11.1405,
      "duration": 0.152,
      "velocity": 95,
      "chip": "ym2612"
    },
    {
      "channel": 3,
      "note": 49,
      "start": 11.2527,
      "duration": 0.177,
      "velocity": 95,
      "chip": "ym2612"
    },
    {
      "channel": 4,
      "note": 65,
      "start": 11.2613,
      "duration": 0.4605,
      "velocity": 95,
      "chip": "ym2612"
    },
    {
      "channel": 5,
      "note": 65,
      "start": 11.2768,
      "duration": 0.4612,
      "velocity": 95,
      "chip": "ym2612"
    },
    {
      "channel": 2,
      "note": 49,
      "start": 11.3091,
      "duration": 0.177,
      "velocity": 95,
      "chip": "ym2612"
    },
    {
      "channel": 3,
      "note": 49,
      "start": 11.4462,
      "duration": 0.1334,
      "velocity": 95,
      "chip": "ym2612"
    },
    {
      "channel": 1,
      "note": 49,
      "start": 11.5026,
      "duration": 0.1334,
      "velocity": 99,
      "chip": "ym2612"
    },
    {
      "channel": 2,
      "note": 49,
      "start": 11.5031,
      "duration": 0.1331,
      "velocity": 95,
      "chip": "ym2612"
    },
    {
      "channel": 3,
      "note": 49,
      "start": 11.5962,
      "duration": 0.1341,
      "velocity": 95,
      "chip": "ym2612"
    },
    {
      "channel": 0,
      "note": 68,
      "start": 11.6526,
      "duration": 0.4771,
      "velocity": 95,
      "chip": "ym2612"
    },
    {
      "channel": 1,
      "note": 53,
      "start": 11.6531,
      "duration": 0.3066,
      "velocity": 99,
      "chip": "ym2612"
    },
    {
      "channel": 2,
      "note": 53,
      "start": 11.6535,
      "duration": 0.1328,
      "velocity": 95,
      "chip": "ym2612"
    },
    {
      "channel": 3,
      "note": 53,
      "start": 11.7465,
      "duration": 0.1648,
      "velocity": 95,
      "chip": "ym2612"
    },
    {
      "channel": 4,
      "note": 68,
      "start": 11.7545,
      "duration": 0.4777,
      "velocity": 95,
      "chip": "ym2612"
    },
    {
      "channel": 5,
      "note": 68,
      "start": 11.7707,
      "duration": 0.4777,
      "velocity": 95,
      "chip": "ym2612"
    },
    {
      "channel": 2,
      "note": 49,
      "start": 11.8029,
      "duration": 0.1648,
      "velocity": 95,
      "chip": "ym2612"
    },
    {
      "channel": 3,
      "note": 49,
      "start": 11.9278,
      "duration": 0.1616,
      "velocity": 95,
      "chip": "ym2612"
    },
    {
      "channel": 1,
      "note": 53,
      "start": 11.9844,
      "duration": 0.1615,
      "velocity": 99,
      "chip": "ym2612"
    },
    {
      "channel": 2,
      "note": 49,
      "start": 11.9848,
      "duration": 0.1611,
      "velocity": 95,
      "chip": "ym2612"
    },
    {
      "channel": 3,
      "note": 49,
      "start": 12.106,
      "duration": 0.1343,
      "velocity": 95,
      "chip": "ym2612"
    },
    {
      "channel": 0,
      "note": 72,
      "start": 12.1624,
      "duration": 0.3198,
      "velocity": 95,
      "chip": "ym2612"
    },
    {
      "channel": 1,
      "note": 56,
      "start": 12.1629,
      "duration": 0.1338,
      "velocity": 99,
      "chip": "ym2612"
    },
    {
      "channel": 2,
      "note": 56,
      "start": 12.1633,
      "duration": 0.1334,
      "velocity": 95,
      "chip": "ym2612"
    },
    {
      "channel": 3,
      "note": 56,
      "start": 12.2568,
      "duration": 0.177,
      "velocity": 95,
      "chip": "ym2612"
    },
    {
      "channel": 4,
      "note": 72,
      "start": 12.2649,
      "duration": 0.3498,
      "velocity": 95,
      "chip": "ym2612"
    },
    {
      "channel": 5,
      "note": 72,
      "start": 12.281,
      "duration": 0.3502,
      "velocity": 95,
      "chip": "ym2612"
    },
    {
      "channel": 1,
      "note": 56,
      "start": 12.3132,
      "duration": 0.177,
      "velocity": 99,
      "chip": "ym2612"
    },
    {
      "channel": 2,
      "note": 53,
      "start": 12.3137,
      "duration": 0.1766,
      "velocity": 95,
      "chip": "ym2612"
    },
    {
      "channel": 3,
      "note": 53,
      "start": 12.4503,
      "duration": 0.1643,
      "velocity": 95,
      "chip": "ym2612"
    },
    {
      "channel": 0,
      "note": 70,
      "start": 12.5068,
      "duration": 0.4913,
      "velocity": 95,
      "chip": "ym2612"
    },
    {
      "channel": 1,
      "note": 51,
      "start": 12.5072,
      "duration": 0.3493,
      "velocity": 99,
      "chip": "ym2612"
    },
    {
      "channel": 2,
      "note": 51,
      "start": 12.5077,
      "duration": 0.1634,
      "velocity": 95,
      "chip": "ym2612"
    },
    {
      "channel": 3,
      "note": 51,
      "start": 12.6312,
      "duration": 0.177,
      "velocity": 95,
      "chip": "ym2612"
    },
    {
      "channel": 4,
      "note": 70,
      "start": 12.6392,
      "duration": 0.4602,
      "velocity": 95,
      "chip": "ym2612"
    },
    {
      "channel": 5,
      "note": 70,
      "start": 12.6554,
      "duration": 0.4602,
      "velocity": 95,
      "chip": "ym2612"
    },
    {
      "channel": 2,
      "note": 51,
      "start": 12.6876,
      "duration": 0.177,
      "velocity": 95,
      "chip": "ym2612"
    },
    {
      "channel": 3,
      "note": 51,
      "start": 12.8247,
      "duration": 0.1332,
      "velocity": 95,
      "chip": "ym2612"
    },
    {
      "channel": 1,
      "note": 51,
      "start": 12.8812,
      "duration": 0.1331,
      "velocity": 99,
      "chip": "ym2612"
    },
    {
      "channel": 2,
      "note": 51,
      "start": 12.8816,
      "duration": 0.1327,
      "velocity": 95,
      "chip": "ym2612"
    },
    {
      "channel": 3,
      "note": 51,
      "start": 12.9744,
      "duration": 0.1332,
      "velocity": 95,
      "chip": "ym2612"
    },
    {
      "channel": 0,
      "note": 67,
      "start": 13.0308,
      "duration": 0.3053,
      "velocity": 95,
      "chip": "ym2612"
    },
    {
      "channel": 1,
      "note": 55,
      "start": 13.0312,
      "duration": 0.3049,
      "velocity": 99,
      "chip": "ym2612"
    },
    {
      "channel": 2,
      "note": 55,
      "start": 13.0317,
      "duration": 0.1323,
      "velocity": 95,
      "chip": "ym2612"
    },
    {
      "channel": 3,
      "note": 55,
      "start": 13.124,
      "duration": 0.1637,
      "velocity": 95,
      "chip": "ym2612"
    },
    {
      "channel": 4,
      "note": 67,
      "start": 13.1321,
      "duration": 0.3383,
      "velocity": 95,
      "chip": "ym2612"
    },
    {
      "channel": 5,
      "note": 67,
      "start": 13.1483,
      "duration": 0.3385,
      "velocity": 95,
      "chip": "ym2612"
    },
    {
      "channel": 2,
      "note": 51,
      "start": 13.1805,
      "duration": 0.1637,
      "velocity": 95,
      "chip": "ym2612"
    },
    {
      "channel": 3,
      "note": 51,
      "start": 13.3042,
      "duration": 0.1661,
      "velocity": 95,
      "chip": "ym2612"
    },
    {
      "channel": 0,
      "note": 70,
      "start": 13.3607,
      "duration": 0.166,
      "velocity": 95,
      "chip": "ym2612"
    },
    {
      "channel": 1,
      "note": 55,
      "start": 13.3611,
      "duration": 0.1656,
      "velocity": 99,
      "chip": "ym2612"
    },
    {
      "channel": 2,
      "note": 51,
      "start": 13.3616,
      "duration": 0.1651,
      "velocity": 95,
      "chip": "ym2612"
    },
    {
      "channel": 3,
      "note": 51,
      "start": 13.4868,
      "duration": 0.1343,
      "velocity": 95,
      "chip": "ym2612"
    },
    {
      "channel": 4,
      "note": 70,
      "start": 13.4948,
      "duration": 0.1343,
      "velocity": 95,
      "chip": "ym2612"
    },
    {
      "channel": 5,
      "note": 70,
      "start": 13.511,
      "duration": 0.1348,
      "velocity": 95,
      "chip": "ym2612"
    },
    {
      "channel": 0,
      "note": 72,
      "start": 13.5433,
      "duration": 0.3197,
      "velocity": 95,
      "chip": "ym2612"
    },
    {
      "channel": 1,
      "note": 58,
      "start": 13.5437,
      "duration": 0.1338,
      "velocity": 99,
      "chip": "ym2612"
    },
    {
      "channel": 2,
      "note": 58,
      "start": 13.5442,
      "duration": 0.1334,
      "velocity": 95,
      "chip": "ym2612"
    },
    {
      "channel": 3,
      "note": 58,
      "start": 13.6376,
      "duration": 0.177,
      "velocity": 95,
      "chip": "ym2612"
    },
    {
      "channel": 4,
      "note": 72,
      "start": 13.6457,
      "duration": 0.3485,
      "velocity": 95,
      "chip": "ym2612"
    },
    {
      "channel": 5,
      "note": 72,
      "start": 13.6619,
      "duration": 0.3489,
      "velocity": 95,
      "chip": "ym2612"
    },
    {
      "channel": 1,
      "note": 58,
      "start": 13.6941,
      "duration": 0.1769,
      "velocity": 99,
      "chip": "ym2612"
    },
    {
      "channel": 2,
      "note": 55,
      "start": 13.6946,
      "duration": 0.1765,
      "velocity": 95,
      "chip": "ym2612"
    },
    {
      "channel": 3,
      "note": 55,
      "start": 13.8311,
      "duration": 0.1631,
      "velocity": 95,
      "chip": "ym2612"
    },
    {
      "channel": 0,
      "note": 72,
      "start": 13.8876,
      "duration": 0.491,
      "velocity": 95,
      "chip": "ym2612"
    },
    {
      "channel": 1,
      "note": 56,
      "start": 13.8881,
      "duration": 0.348,
      "velocity": 99,
      "chip": "ym2612"
    },
    {
      "channel": 2,
      "note": 56,
      "start": 13.8885,
      "duration": 0.1621,
      "velocity": 95,
      "chip": "ym2612"
    },
    {
      "channel": 3,
      "note": 56,
      "start": 14.0108,
      "duration": 0.177,
      "velocity": 95,
      "chip": "ym2612"
    },
    {
      "channel": 4,
      "note": 72,
      "start": 14.0189,
      "duration": 0.4914,
      "velocity": 95,
      "chip": "ym2612"
    },
    {
      "channel": 5,
      "note": 72,
      "start": 14.035,
      "duration": 0.4914,
      "velocity": 95,
      "chip": "ym2612"
    },
    {
      "channel": 2,
      "note": 56,
      "start": 14.0672,
      "duration": 0.177,
      "velocity": 95,
      "chip": "ym2612"
    },
    {
      "channel": 3,
      "note": 56,
      "start": 14.2043,
      "duration": 0.134,
      "velocity": 95,
      "chip": "ym2612"
    },
    {
      "channel": 1,
      "note": 56,
      "start": 14.2611,
      "duration": 0.1338,
      "velocity": 99,
      "chip": "ym2612"
    },
    {
      "channel": 2,
      "note": 56,
      "start": 14.2615,
      "duration": 0.1334,
      "velocity": 95,
      "chip": "ym2612"
    },
    {
      "channel": 3,
      "note": 56,
      "start": 14.3549,
      "duration": 0.1635,
      "velocity": 95,
      "chip": "ym2612"
    },
    {
      "channel": 0,
      "note": 72,
      "start": 14.4114,
      "duration": 0.843,
      "velocity": 95,
      "chip": "ym2612"
    },
    {
      "channel": 1,
      "note": 60,
      "start": 14.4118,
      "duration": 0.3366,
      "velocity": 99,
      "chip": "ym2612"
    },
    {
      "channel": 2,
      "note": 60,
      "start": 14.4123,
      "duration": 0.1625,
      "velocity": 95,
      "chip": "ym2612"
    },
    {
      "channel": 3,
      "note": 60,
      "start": 14.5349,
      "duration": 0.1648,
      "velocity": 95,
      "chip": "ym2612"
    },
    {
      "channel": 4,
      "note": 72,
      "start": 14.5431,
      "duration": 0.8438,
      "velocity": 95,
      "chip": "ym2612"
    },
    {
      "channel": 5,
      "note": 72,
      "start": 14.5592,
      "duration": 0.8438,
      "velocity": 95,
      "chip": "ym2612"
    },
    {
      "channel": 2,
      "note": 56,
      "start": 14.5914,
      "duration": 0.1648,
      "velocity": 95,
      "chip": "ym2612"
    },
    {
      "channel": 3,
      "note": 56,
      "start": 14.7163,
      "duration": 0.1627,
      "velocity": 95,
      "chip": "ym2612"
    },
    {
      "channel": 1,
      "note": 60,
      "start": 14.7728,
      "duration": 0.1624,
      "velocity": 99,
      "chip": "ym2612"
    },
    {
      "channel": 2,
      "note": 56,
      "start": 14.7732,
      "duration": 0.162,
      "velocity": 95,
      "chip": "ym2612"
    },
    {
      "channel": 3,
      "note": 56,
      "start": 14.8953,
      "duration": 0.1509,
      "velocity": 95,
      "chip": "ym2612"
    },
    {
      "channel": 1,
      "note": 63,
      "start": 14.9518,
      "duration": 0.151,
      "velocity": 99,
      "chip": "ym2612"
    },
    {
      "channel": 2,
      "note": 63,
      "start": 14.9523,
      "duration": 0.1506,
      "velocity": 95,
      "chip": "ym2612"
    },
    {
      "channel": 3,
      "note": 63,
      "start": 15.0627,
      "duration": 0.1353,
      "velocity": 95,
      "chip": "ym2612"
    },
    {
      "channel": 1,
      "note": 63,
      "start": 15.1193,
      "duration": 0.1352,
      "velocity": 99,
      "chip": "ym2612"
    },
    {
      "channel": 2,
      "note": 60,
      "start": 15.1197,
      "duration": 0.1348,
      "velocity": 95,
      "chip": "ym2612"
    },
    {
      "channel": 3,
      "note": 60,
      "start": 15.2145,
      "duration": 0.1642,
      "velocity": 95,
      "chip": "ym2612"
    },
    {
      "channel": 0,
      "note": 60,
      "start": 15.4517,
      "duration": 0.1642,
      "velocity": 95,
      "chip": "ym2612"
    },
    {
      "channel": 1,
      "note": 60,
      "start": 15.4522,
      "duration": 0.1638,
      "velocity": 99,
      "chip": "ym2612"
    },
    {
      "channel": 2,
      "note": 67,
      "start": 15.4526,
      "duration": 0.1634,
      "velocity": 95,
      "chip": "ym2612"
    },
    {
      "channel": 3,
      "note": 67,
      "start": 15.5761,
      "duration": 0.1335,
      "velocity": 95,
      "chip": "ym2612"
    },
    {
      "channel": 4,
      "note": 60,
      "start": 15.5841,
      "duration": 0.1332,
      "velocity": 95,
      "chip": "ym2612"
    },
    {
      "channel": 5,
      "note": 60,
      "start": 15.6003,
      "duration": 0.1336,
      "velocity": 95,
      "chip": "ym2612"
    },
    {
      "channel": 0,
      "note": 60,
      "start": 15.6325,
      "duration": 0.2748,
      "velocity": 95,
      "chip": "ym2612"
    },
    {
      "channel": 1,
      "note": 60,
      "start": 15.6329,
      "duration": 0.2744,
      "velocity": 99,
      "chip": "ym2612"
    },
    {
      "channel": 2,
      "note": 67,
      "start": 15.6334,
      "duration": 0.2739,
      "velocity": 95,
      "chip": "ym2612"
    },
    {
      "channel": 3,
      "note": 67,
      "start": 15.7257,
      "duration": 0.3053,
      "velocity": 95,
      "chip": "ym2612"
    },
    {
      "channel": 4,
      "note": 60,
      "start": 15.7338,
      "duration": 0.3053,
      "velocity": 95,
      "chip": "ym2612"
    },
    {
      "channel": 5,
      "note": 60,
      "start": 15.75,
      "duration": 0.3057,
      "velocity": 95,
      "chip": "ym2612"
    },
    {
      "channel": 0,
      "note": 60,
      "start": 15.932,
      "duration": 0.1635,
      "velocity": 95,
      "chip": "ym2612"
    },
    {
      "channel": 1,
      "note": 60,
      "start": 15.9324,
      "duration": 0.1631,
      "velocity": 99,
      "chip": "ym2612"
    },
    {
      "channel": 2,
      "note": 67,
      "start": 15.9329,
      "duration": 0.1627,
      "velocity": 95,
      "chip": "ym2612"
    },
    {
      "channel": 3,
      "note": 67,
      "start": 16.0556,
      "duration": 0.166,
      "velocity": 95,
      "chip": "ym2612"
    },
    {
      "channel": 4,
      "note": 60,
      "start": 16.0637,
      "duration": 0.166,
      "velocity": 95,
      "chip": "ym2612"
    },
    {
      "channel": 5,
      "note": 60,
      "start": 16.0798,
      "duration": 0.1665,
      "velocity": 95,
      "chip": "ym2612"
    },
    {
      "channel": 0,
      "note": 60,
      "start": 16.1121,
      "duration": 0.3162,
      "velocity": 95,
      "chip": "ym2612"
    },
    {
      "channel": 1,
      "note": 60,
      "start": 16.1125,
      "duration": 0.3158,
      "velocity": 99,
      "chip": "ym2612"
    },
    {
      "channel": 2,
      "note": 67,
      "start": 16.113,
      "duration": 0.3154,
      "velocity": 95,
      "chip": "ym2612"
    },
    {
      "channel": 3,
      "note": 67,
      "start": 16.2382,
      "duration": 0.2851,
      "velocity": 95,
      "chip": "ym2612"
    },
    {
      "channel": 4,
      "note": 60,
      "start": 16.2463,
      "duration": 0.2851,
      "velocity": 95,
      "chip": "ym2612"
    },
    {
      "channel": 5,
      "note": 60,
      "start": 16.2624,
      "duration": 0.2856,
      "velocity": 95,
      "chip": "ym2612"
    },
    {
      "channel": 0,
      "note": 60,
      "start": 16.4529,
      "duration": 0.1349,
      "velocity": 95,
      "chip": "ym2612"
    },
    {
      "channel": 1,
      "note": 60,
      "start": 16.4534,
      "duration": 0.1344,
      "velocity": 99,
      "chip": "ym2612"
    },
    {
      "channel": 2,
      "note": 67,
      "start": 16.4538,
      "duration": 0.134,
      "velocity": 95,
      "chip": "ym2612"
    },
    {
      "channel": 3,
      "note": 67,
      "start": 16.5479,
      "duration": 0.1529,
      "velocity": 95,
      "chip": "ym2612"
    },
    {
      "channel": 4,
      "note": 60,
      "start": 16.5559,
      "duration": 0.1529,
      "velocity": 95,
      "chip": "ym2612"
    },
    {
      "channel": 5,
      "note": 60,
      "start": 16.5721,
      "duration": 0.1533,
      "velocity": 95,
      "chip": "ym2612"
    },
    {
      "channel": 0,
      "note": 65,
      "start": 16.6043,
      "duration": 0.4803,
      "velocity": 95,
      "chip": "ym2612"
    },
    {
      "channel": 1,
      "note": 53,
      "start": 16.6048,
      "duration": 0.3379,
      "velocity": 99,
      "chip": "ym2612"
    },
    {
      "channel": 2,
      "note": 53,
      "start": 16.6052,
      "duration": 0.152,
      "velocity": 95,
      "chip": "ym2612"
    },
    {
      "channel": 3,
      "note": 53,
      "start": 16.7173,
      "duration": 0.177,
      "velocity": 95,
      "chip": "ym2612"
    },
    {
      "channel": 4,
      "note": 65,
      "start": 16.7254,
      "duration": 0.4611,
      "velocity": 95,
      "chip": "ym2612"
    },
    {
      "channel": 5,
      "note": 65,
      "start": 16.7415,
      "duration": 0.4611,
      "velocity": 95,
      "chip": "ym2612"
    },
    {
      "channel": 2,
      "note": 53,
      "start": 16.7737,
      "duration": 0.177,
      "velocity": 95,
      "chip": "ym2612"
    },
    {
      "channel": 3,
      "note": 53,
      "start": 16.9109,
      "duration": 0.1334,
      "velocity": 95,
      "chip": "ym2612"
    },
    {
      "channel": 1,
      "note": 53,
      "start": 16.9673,
      "duration": 0.1335,
      "velocity": 99,
      "chip": "ym2612"
    },
    {
      "channel": 2,
      "note": 53,
      "start": 16.9677,
      "duration": 0.133,
      "velocity": 95,
      "chip": "ym2612"
    },
    {
      "channel": 3,
      "note": 53,
      "start": 17.0609,
      "duration": 0.1337,
      "velocity": 95,
      "chip": "ym2612"
    },
    {
      "channel": 0,
      "note": 68,
      "start": 17.1173,
      "duration": 0.4771,
      "velocity": 95,
      "chip": "ym2612"
    },
    {
      "channel": 1,
      "note": 56,
      "start": 17.1177,
      "duration": 0.3066,
      "velocity": 99,
      "chip": "ym2612"
    },
    {
      "channel": 2,
      "note": 56,
      "start": 17.1182,
      "duration": 0.1328,
      "velocity": 95,
      "chip": "ym2612"
    },
    {
      "channel": 3,
      "note": 56,
      "start": 17.2111,
      "duration": 0.1648,
      "velocity": 95,
      "chip": "ym2612"
    },
    {
      "channel": 4,
      "note": 68,
      "start": 17.2192,
      "duration": 0.4778,
      "velocity": 95,
      "chip": "ym2612"
    },
    {
      "channel": 5,
      "note": 68,
      "start": 17.2353,
      "duration": 0.4777,
      "velocity": 95,
      "chip": "ym2612"
    },
    {
      "channel": 2,
      "note": 53,
      "start": 17.2676,
      "duration": 0.1648,
      "velocity": 95,
      "chip": "ym2612"
    },
    {
      "channel": 3,
      "note": 53,
      "start": 17.3924,
      "duration": 0.1617,
      "velocity": 95,
      "chip": "ym2612"
    },
    {
      "channel": 1,
      "note": 56,
      "start": 17.4489,
      "duration": 0.1617,
      "velocity": 99,
      "chip": "ym2612"
    },
    {
      "channel": 2,
      "note": 53,
      "start": 17.4493,
      "duration": 0.1612,
      "velocity": 95,
      "chip": "ym2612"
    },
    {
      "channel": 3,
      "note": 53,
      "start": 17.5706,
      "duration": 0.1343,
      "velocity": 95,
      "chip": "ym2612"
    },
    {
      "channel": 0,
      "note": 72,
      "start": 17.6271,
      "duration": 0.3198,
      "velocity": 95,
      "chip": "ym2612"
    },
    {
      "channel": 1,
      "note": 60,
      "start": 17.6275,
      "duration": 0.1338,
      "velocity": 99,
      "chip": "ym2612"
    },
    {
      "channel": 2,
      "note": 60,
      "start": 17.628,
      "duration": 0.1334,
      "velocity": 95,
      "chip": "ym2612"
    },
    {
      "channel": 3,
      "note": 60,
      "start": 17.7215,
      "duration": 0.177,
      "velocity": 95,
      "chip": "ym2612"
    },
    {
      "channel": 4,
      "note": 72,
      "start": 17.7295,
      "duration": 0.3498,
      "velocity": 95,
      "chip": "ym2612"
    },
    {
      "channel": 5,
      "note": 72,
      "start": 17.7456,
      "duration": 0.3502,
      "velocity": 95,
      "chip": "ym2612"
    },
    {
      "channel": 1,
      "note": 60,
      "start": 17.778,
      "duration": 0.1769,
      "velocity": 99,
      "chip": "ym2612"
    },
    {
      "channel": 2,
      "note": 56,
      "start": 17.7784,
      "duration": 0.1765,
      "velocity": 95,
      "chip": "ym2612"
    },
    {
      "channel": 3,
      "note": 56,
      "start": 17.915,
      "duration": 0.1643,
      "velocity": 95,
      "chip": "ym2612"
    },
    {
      "channel": 0,
      "note": 70,
      "start": 17.9714,
      "duration": 0.4913,
      "velocity": 95,
      "chip": "ym2612"
    },
    {
      "channel": 1,
      "note": 51,
      "start": 17.9719,
      "duration": 0.3493,
      "velocity": 99,
      "chip": "ym2612"
    },
    {
      "channel": 2,
      "note": 51,
      "start": 17.9723,
      "duration": 0.1634,
      "velocity": 95,
      "chip": "ym2612"
    },
    {
      "channel": 3,
      "note": 51,
      "start": 18.0958,
      "duration": 0.177,
      "velocity": 95,
      "chip": "ym2612"
    },
    {
      "channel": 4,
      "note": 70,
      "start": 18.1039,
      "duration": 0.4602,
      "velocity": 95,
      "chip": "ym2612"
    },
    {
      "channel": 5,
      "note": 70,
      "start": 18.12,
      "duration": 0.4602,
      "velocity": 95,
      "chip": "ym2612"
    },
    {
      "channel": 2,
      "note": 51,
      "start": 18.1522,
      "duration": 0.177,
      "velocity": 95,
      "chip": "ym2612"
    },
    {
      "channel": 3,
      "note": 51,
      "start": 18.2893,
      "duration": 0.1331,
      "velocity": 95,
      "chip": "ym2612"
    },
    {
      "channel": 1,
      "note": 51,
      "start": 18.3458,
      "duration": 0.1331,
      "velocity": 99,
      "chip": "ym2612"
    },
    {
      "channel": 2,
      "note": 51,
      "start": 18.3462,
      "duration": 0.1327,
      "velocity": 95,
      "chip": "ym2612"
    },
    {
      "channel": 3,
      "note": 51,
      "start": 18.439,
      "duration": 0.1331,
      "velocity": 95,
      "chip": "ym2612"
    },
    {
      "channel": 0,
      "note": 67,
      "start": 18.4954,
      "duration": 0.3053,
      "velocity": 95,
      "chip": "ym2612"
    },
    {
      "channel": 1,
      "note": 55,
      "start": 18.4958,
      "duration": 0.3049,
      "velocity": 99,
      "chip": "ym2612"
    },
    {
      "channel": 2,
      "note": 55,
      "start": 18.4963,
      "duration": 0.1322,
      "velocity": 95,
      "chip": "ym2612"
    },
    {
      "channel": 3,
      "note": 55,
      "start": 18.5886,
      "duration": 0.1637,
      "velocity": 95,
      "chip": "ym2612"
    },
    {
      "channel": 4,
      "note": 67,
      "start": 18.5968,
      "duration": 0.338,
      "velocity": 95,
      "chip": "ym2612"
    },
    {
      "channel": 5,
      "note": 67,
      "start": 18.6132,
      "duration": 0.3382,
      "velocity": 95,
      "chip": "ym2612"
    },
    {
      "channel": 2,
      "note": 51,
      "start": 18.6451,
      "duration": 0.1637,
      "velocity": 95,
      "chip": "ym2612"
    },
    {
      "channel": 3,
      "note": 51,
      "start": 18.7688,
      "duration": 0.166,
      "velocity": 95,
      "chip": "ym2612"
    },
    {
      "channel": 0,
      "note": 63,
      "start": 18.8252,
      "duration": 0.3087,
      "velocity": 95,
      "chip": "ym2612"
    },
    {
      "channel": 1,
      "note": 55,
      "start": 18.8257,
      "duration": 0.1655,
      "velocity": 99,
      "chip": "ym2612"
    },
    {
      "channel": 2,
      "note": 51,
      "start": 18.8261,
      "duration": 0.1651,
      "velocity": 95,
      "chip": "ym2612"
    },
    {
      "channel": 3,
      "note": 51,
      "start": 18.9513,
      "duration": 0.1343,
      "velocity": 95,
      "chip": "ym2612"
    },
    {
      "channel": 4,
      "note": 63,
      "start": 18.9594,
      "duration": 0.3201,
      "velocity": 95,
      "chip": "ym2612"
    },
    {
      "channel": 5,
      "note": 63,
      "start": 18.9755,
      "duration": 0.3202,
      "velocity": 95,
      "chip": "ym2612"
    },
    {
      "channel": 1,
      "note": 58,
      "start": 19.0078,
      "duration": 0.1343,
      "velocity": 99,
      "chip": "ym2612"
    },
    {
      "channel": 2,
      "note": 58,
      "start": 19.0082,
      "duration": 0.1339,
      "velocity": 95,
      "chip": "ym2612"
    },
    {
      "channel": 3,
      "note": 58,
      "start": 19.1025,
      "duration": 0.177,
      "velocity": 95,
      "chip": "ym2612"
    },
    {
      "channel": 0,
      "note": 60,
      "start": 19.1586,
      "duration": 0.177,
      "velocity": 95,
      "chip": "ym2612"
    },
    {
      "channel": 1,
      "note": 58,
      "start": 19.159,
      "duration": 0.1766,
      "velocity": 99,
      "chip": "ym2612"
    },
    {
      "channel": 2,
      "note": 55,
      "start": 19.1595,
      "duration": 0.1762,
      "velocity": 95,
      "chip": "ym2612"
    },
    {
      "channel": 3,
      "note": 55,
      "start": 19.2957,
      "duration": 0.1631,
      "velocity": 95,
      "chip": "ym2612"
    },
    {
      "channel": 4,
      "note": 60,
      "start": 19.3037,
      "duration": 0.1631,
      "velocity": 95,
      "chip": "ym2612"
    },
    {
      "channel": 5,
      "note": 60,
      "start": 19.3199,
      "duration": 0.1635,
      "velocity": 95,
      "chip": "ym2612"
    },
    {
      "channel": 0,
      "note": 65,
      "start": 19.3521,
      "duration": 0.4902,
      "velocity": 95,
      "chip": "ym2612"
    },
    {
      "channel": 1,
      "note": 53,
      "start": 19.3526,
      "duration": 0.3481,
      "velocity": 99,
      "chip": "ym2612"
    },
    {
      "channel": 2,
      "note": 53,
      "start": 19.353,
      "duration": 0.1624,
      "velocity": 95,
      "chip": "ym2612"
    },
    {
      "channel": 3,
      "note": 53,
      "start": 19.4753,
      "duration": 0.177,
      "velocity": 95,
      "chip": "ym2612"
    },
    {
      "channel": 4,
      "note": 65,
      "start": 19.4834,
      "duration": 0.4602,
      "velocity": 95,
      "chip": "ym2612"
    },
    {
      "channel": 5,
      "note": 65,
      "start": 19.4995,
      "duration": 0.4602,
      "velocity": 95,
      "chip": "ym2612"
    },
    {
      "channel": 2,
      "note": 53,
      "start": 19.5317,
      "duration": 0.177,
      "velocity": 95,
      "chip": "ym2612"
    },
    {
      "channel": 3,
      "note": 53,
      "start": 19.6688,
      "duration": 0.1332,
      "velocity": 95,
      "chip": "ym2612"
    },
    {
      "channel": 1,
      "note": 53,
      "start": 19.7253,
      "duration": 0.1332,
      "velocity": 99,
      "chip": "ym2612"
    },
    {
      "channel": 2,
      "note": 53,
      "start": 19.7257,
      "duration": 0.1327,
      "velocity": 95,
      "chip": "ym2612"
    },
    {
      "channel": 3,
      "note": 53,
      "start": 19.8185,
      "duration": 0.1332,
      "velocity": 95,
      "chip": "ym2612"
    },
    {
      "channel": 0,
      "note": 68,
      "start": 19.875,
      "duration": 0.4776,
      "velocity": 95,
      "chip": "ym2612"
    },
    {
      "channel": 1,
      "note": 56,
      "start": 19.8754,
      "duration": 0.306,
      "velocity": 99,
      "chip": "ym2612"
    },
    {
      "channel": 2,
      "note": 56,
      "start": 19.8759,
      "duration": 0.1322,
      "velocity": 95,
      "chip": "ym2612"
    },
    {
      "channel": 3,
      "note": 56,
      "start": 19.9682,
      "duration": 0.1648,
      "velocity": 95,
      "chip": "ym2612"
    },
    {
      "channel": 4,
      "note": 68,
      "start": 19.9763,
      "duration": 0.4786,
      "velocity": 95,
      "chip": "ym2612"
    },
    {
      "channel": 5,
      "note": 68,
      "start": 19.9924,
      "duration": 0.4786,
      "velocity": 95,
      "chip": "ym2612"
    },
    {
      "channel": 2,
      "note": 53,
      "start": 20.0246,
      "duration": 0.1648,
      "velocity": 95,
      "chip": "ym2612"
    },
    {
      "channel": 3,
      "note": 53,
      "start": 20.1496,
      "duration": 0.1625,
      "velocity": 95,
      "chip": "ym2612"
    },
    {
      "channel": 1,
      "note": 56,
      "start": 20.206,
      "duration": 0.1625,
      "velocity": 99,
      "chip": "ym2612"
    },
    {
      "channel": 2,
      "note": 53,
      "start": 20.2065,
      "duration": 0.1621,
      "velocity": 95,
      "chip": "ym2612"
    },
    {
      "channel": 3,
      "note": 53,
      "start": 20.3286,
      "duration": 0.1343,
      "velocity": 95,
      "chip": "ym2612"
    },
    {
      "channel": 0,
      "note": 72,
      "start": 20.3851,
      "duration": 0.2794,
      "velocity": 95,
      "chip": "ym2612"
    },
    {
      "channel": 1,
      "note": 60,
      "start": 20.3855,
      "duration": 0.1338,
      "velocity": 99,
      "chip": "ym2612"
    },
    {
      "channel": 2,
      "note": 60,
      "start": 20.386,
      "duration": 0.1334,
      "velocity": 95,
      "chip": "ym2612"
    },
    {
      "channel": 3,
      "note": 60,
      "start": 20.4795,
      "duration": 0.177,
      "velocity": 95,
      "chip": "ym2612"
    },
    {
      "channel": 4,
      "note": 72,
      "start": 20.4875,
      "duration": 0.3185,
      "velocity": 95,
      "chip": "ym2612"
    },
    {
      "channel": 5,
      "note": 72,
      "start": 20.5037,
      "duration": 0.319,
      "velocity": 95,
      "chip": "ym2612"
    },
    {
      "channel": 1,
      "note": 60,
      "start": 20.5359,
      "duration": 0.177,
      "velocity": 99,
      "chip": "ym2612"
    },
    {
      "channel": 2,
      "note": 56,
      "start": 20.5363,
      "duration": 0.1766,
      "velocity": 95,
      "chip": "ym2612"
    },
    {
      "channel": 3,
      "note": 56,
      "start": 20.673,
      "duration": 0.1734,
      "velocity": 95,
      "chip": "ym2612"
    },
    {
      "channel": 0,
      "note": 68,
      "start": 20.681,
      "duration": 0.0399,
      "velocity": 95,
      "chip": "ym2612"
    },
    {
      "channel": 0,
      "note": 72,
      "start": 20.7294,
      "duration": 0.0367,
      "velocity": 95,
      "chip": "ym2612"
    },
    {
      "channel": 1,
      "note": 53,
      "start": 20.7299,
      "duration": 0.3584,
      "velocity": 99,
      "chip": "ym2612"
    },
    {
      "channel": 2,
      "note": 53,
      "start": 20.7303,
      "duration": 0.1725,
      "velocity": 95,
      "chip": "ym2612"
    },
    {
      "channel": 0,
      "note": 79,
      "start": 20.7743,
      "duration": 0.4718,
      "velocity": 95,
      "chip": "ym2612"
    },
    {
      "channel": 4,
      "note": 68,
      "start": 20.8226,
      "duration": 0.0405,
      "velocity": 95,
      "chip": "ym2612"
    },
    {
      "channel": 5,
      "note": 68,
      "start": 20.8388,
      "duration": 0.0399,
      "velocity": 95,
      "chip": "ym2612"
    },
    {
      "channel": 3,
      "note": 53,
      "start": 20.863,
      "duration": 0.1769,
      "velocity": 95,
      "chip": "ym2612"
    },
    {
      "channel": 4,
      "note": 72,
      "start": 20.871,
      "duration": 0.0399,
      "velocity": 95,
      "chip": "ym2612"
    },
    {
      "channel": 5,
      "note": 72,
      "start": 20.8871,
      "duration": 0.0399,
      "velocity": 95,
      "chip": "ym2612"
    },
    {
      "channel": 2,
      "note": 53,
      "start": 20.9194,
      "duration": 0.177,
      "velocity": 95,
      "chip": "ym2612"
    },
    {
      "channel": 4,
      "note": 79,
      "start": 20.9198,
      "duration": 0.4276,
      "velocity": 95,
      "chip": "ym2612"
    },
    {
      "channel": 5,
      "note": 79,
      "start": 20.9355,
      "duration": 0.4284,
      "velocity": 95,
      "chip": "ym2612"
    },
    {
      "channel": 3,
      "note": 53,
      "start": 21.0565,
      "duration": 0.1331,
      "velocity": 95,
      "chip": "ym2612"
    },
    {
      "channel": 1,
      "note": 53,
      "start": 21.1129,
      "duration": 0.1332,
      "velocity": 99,
      "chip": "ym2612"
    },
    {
      "channel": 2,
      "note": 53,
      "start": 21.1134,
      "duration": 0.1327,
      "velocity": 95,
      "chip": "ym2612"
    },
    {
      "channel": 3,
      "note": 53,
      "start": 21.2061,
      "duration": 0.1332,
      "velocity": 95,
      "chip": "ym2612"
    },
    {
      "channel": 0,
      "note": 77,
      "start": 21.2626,
      "duration": 0.4798,
      "velocity": 95,
      "chip": "ym2612"
    },
    {
      "channel": 1,
      "note": 56,
      "start": 21.263,
      "duration": 0.3049,
      "velocity": 99,
      "chip": "ym2612"
    },
    {
      "channel": 2,
      "note": 56,
      "start": 21.2635,
      "duration": 0.1323,
      "velocity": 95,
      "chip": "ym2612"
    },
    {
      "channel": 3,
      "note": 56,
      "start": 21.3559,
      "duration": 0.1637,
      "velocity": 95,
      "chip": "ym2612"
    },
    {
      "channel": 4,
      "note": 77,
      "start": 21.3639,
      "duration": 0.4809,
      "velocity": 95,
      "chip": "ym2612"
    },
    {
      "channel": 5,
      "note": 77,
      "start": 21.38,
      "duration": 0.4809,
      "velocity": 95,
      "chip": "ym2612"
    },
    {
      "channel": 2,
      "note": 53,
      "start": 21.4123,
      "duration": 0.1637,
      "velocity": 95,
      "chip": "ym2612"
    },
    {
      "channel": 3,
      "note": 53,
      "start": 21.5361,
      "duration": 0.166,
      "velocity": 95,
      "chip": "ym2612"
    },
    {
      "channel": 1,
      "note": 56,
      "start": 21.5925,
      "duration": 0.166,
      "velocity": 99,
      "chip": "ym2612"
    },
    {
      "channel": 2,
      "note": 53,
      "start": 21.5929,
      "duration": 0.1656,
      "velocity": 95,
      "chip": "ym2612"
    },
    {
      "channel": 3,
      "note": 53,
      "start": 21.7186,
      "duration": 0.1343,
      "velocity": 95,
      "chip": "ym2612"
    },
    {
      "channel": 0,
      "note": 75,
      "start": 21.7751,
      "duration": 0.3198,
      "velocity": 95,
      "chip": "ym2612"
    },
    {
      "channel": 1,
      "note": 60,
      "start": 21.7755,
      "duration": 0.1338,
      "velocity": 99,
      "chip": "ym2612"
    },
    {
      "channel": 2,
      "note": 60,
      "start": 21.776,
      "duration": 0.1334,
      "velocity": 95,
      "chip": "ym2612"
    },
    {
      "channel": 3,
      "note": 60,
      "start": 21.8695,
      "duration": 0.177,
      "velocity": 95,
      "chip": "ym2612"
    },
    {
      "channel": 4,
      "note": 75,
      "start": 21.8775,
      "duration": 0.3396,
      "velocity": 95,
      "chip": "ym2612"
    },
    {
      "channel": 5,
      "note": 75,
      "start": 21.8937,
      "duration": 0.34,
      "velocity": 95,
      "chip": "ym2612"
    },
    {
      "channel": 1,
      "note": 60,
      "start": 21.9259,
      "duration": 0.177,
      "velocity": 99,
      "chip": "ym2612"
    },
    {
      "channel": 2,
      "note": 56,
      "start": 21.9263,
      "duration": 0.1766,
      "velocity": 95,
      "chip": "ym2612"
    },
    {
      "channel": 3,
      "note": 56,
      "start": 22.063,
      "duration": 0.1541,
      "velocity": 95,
      "chip": "ym2612"
    },
    {
      "channel": 1,
      "note": 49,
      "start": 22.1194,
      "duration": 0.3395,
      "velocity": 99,
      "chip": "ym2612"
    },
    {
      "channel": 2,
      "note": 49,
      "start": 22.1199,
      "duration": 0.1536,
      "velocity": 95,
      "chip": "ym2612"
    },
    {
      "channel": 3,
      "note": 49,
      "start": 22.2336,
      "duration": 0.177,
      "velocity": 95,
      "chip": "ym2612"
    },
    {
      "channel": 0,
      "note": 77,
      "start": 22.29,
      "duration": 0.1771,
      "velocity": 95,
      "chip": "ym2612"
    },
    {
      "channel": 2,
      "note": 49,
      "start": 22.2905,
      "duration": 0.1767,
      "velocity": 95,
      "chip": "ym2612"
    },
    {
      "channel": 3,
      "note": 49,
      "start": 22.4271,
      "duration": 0.1352,
      "velocity": 95,
      "chip": "ym2612"
    },
    {
      "channel": 4,
      "note": 77,
      "start": 22.4352,
      "duration": 0.1352,
      "velocity": 95,
      "chip": "ym2612"
    },
    {
      "channel": 5,
      "note": 77,
      "start": 22.4513,
      "duration": 0.1356,
      "velocity": 95,
      "chip": "ym2612"
    },
    {
      "channel": 0,
      "note": 73,
      "start": 22.4835,
      "duration": 0.1352,
      "velocity": 95,
      "chip": "ym2612"
    },
    {
      "channel": 1,
      "note": 49,
      "start": 22.484,
      "duration": 0.1348,
      "velocity": 99,
      "chip": "ym2612"
    },
    {
      "channel": 2,
      "note": 49,
      "start": 22.4844,
      "duration": 0.1344,
      "velocity": 95,
      "chip": "ym2612"
    },
    {
      "channel": 3,
      "note": 49,
      "start": 22.5788,
      "duration": 0.1332,
      "velocity": 95,
      "chip": "ym2612"
    },
    {
      "channel": 4,
      "note": 73,
      "start": 22.5869,
      "duration": 0.1332,
      "velocity": 95,
      "chip": "ym2612"
    },
    {
      "channel": 5,
      "note": 73,
      "start": 22.6034,
      "duration": 0.1333,
      "velocity": 95,
      "chip": "ym2612"
    },
    {
      "channel": 0,
      "note": 68,
      "start": 22.6353,
      "duration": 0.1332,
      "velocity": 95,
      "chip": "ym2612"
    },
    {
      "channel": 1,
      "note": 53,
      "start": 22.6357,
      "duration": 0.3069,
      "velocity": 99,
      "chip": "ym2612"
    },
    {
      "channel": 2,
      "note": 53,
      "start": 22.6362,
      "duration": 0.1323,
      "velocity": 95,
      "chip": "ym2612"
    },
    {
      "channel": 3,
      "note": 53,
      "start": 22.7285,
      "duration": 0.1657,
      "velocity": 95,
      "chip": "ym2612"
    },
    {
      "channel": 4,
      "note": 68,
      "start": 22.7367,
      "duration": 0.1657,
      "velocity": 95,
      "chip": "ym2612"
    },
    {
      "channel": 5,
      "note": 68,
      "start": 22.7527,
      "duration": 0.1662,
      "velocity": 95,
      "chip": "ym2612"
    },
    {
      "channel": 0,
      "note": 77,
      "start": 22.785,
      "duration": 0.1657,
      "velocity": 95,
      "chip": "ym2612"
    },
    {
      "channel": 2,
      "note": 49,
      "start": 22.7854,
      "duration": 0.1653,
      "velocity": 95,
      "chip": "ym2612"
    },
    {
      "channel": 3,
      "note": 49,
      "start": 22.9108,
      "duration": 0.1625,
      "velocity": 95,
      "chip": "ym2612"
    },
    {
      "channel": 4,
      "note": 77,
      "start": 22.9189,
      "duration": 0.1625,
      "velocity": 95,
      "chip": "ym2612"
    },
    {
      "channel": 5,
      "note": 77,
      "start": 22.935,
      "duration": 0.1629,
      "velocity": 95,
      "chip": "ym2612"
    },
    {
      "channel": 0,
      "note": 73,
      "start": 22.9672,
      "duration": 0.1625,
      "velocity": 95,
      "chip": "ym2612"
    },
    {
      "channel": 1,
      "note": 53,
      "start": 22.9677,
      "duration": 0.1621,
      "velocity": 99,
      "chip": "ym2612"
    },
    {
      "channel": 2,
      "note": 49,
      "start": 22.9681,
      "duration": 0.1617,
      "velocity": 95,
      "chip": "ym2612"
    },
    {
      "channel": 3,
      "note": 49,
      "start": 23.0902,
      "duration": 0.1334,
      "velocity": 95,
      "chip": "ym2612"
    },
    {
      "channel": 4,
      "note": 73,
      "start": 23.0979,
      "duration": 0.1337,
      "velocity": 95,
      "chip": "ym2612"
    },
    {
      "channel": 5,
      "note": 73,
      "start": 23.114,
      "duration": 0.1341,
      "velocity": 95,
      "chip": "ym2612"
    },
    {
      "channel": 0,
      "note": 68,
      "start": 23.1463,
      "duration": 0.1337,
      "velocity": 95,
      "chip": "ym2612"
    },
    {
      "channel": 1,
      "note": 56,
      "start": 23.1467,
      "duration": 0.1333,
      "velocity": 99,
      "chip": "ym2612"
    },
    {
      "channel": 2,
      "note": 56,
      "start": 23.1471,
      "duration": 0.1329,
      "velocity": 95,
      "chip": "ym2612"
    },
    {
      "channel": 3,
      "note": 56,
      "start": 23.2401,
      "duration": 0.177,
      "velocity": 95,
      "chip": "ym2612"
    },
    {
      "channel": 4,
      "note": 68,
      "start": 23.2481,
      "duration": 0.177,
      "velocity": 95,
      "chip": "ym2612"
    },
    {
      "channel": 5,
      "note": 68,
      "start": 23.2643,
      "duration": 0.1774,
      "velocity": 95,
      "chip": "ym2612"
    },
    {
      "channel": 0,
      "note": 77,
      "start": 23.2965,
      "duration": 0.177,
      "velocity": 95,
      "chip": "ym2612"
    },
    {
      "channel": 1,
      "note": 56,
      "start": 23.2969,
      "duration": 0.1766,
      "velocity": 99,
      "chip": "ym2612"
    },
    {
      "channel": 2,
      "note": 53,
      "start": 23.2974,
      "duration": 0.1762,
      "velocity": 95,
      "chip": "ym2612"
    },
    {
      "channel": 3,
      "note": 53,
      "start": 23.4336,
      "duration": 0.1628,
      "velocity": 95,
      "chip": "ym2612"
    },
    {
      "channel": 4,
      "note": 77,
      "start": 23.4417,
      "duration": 0.1628,
      "velocity": 95,
      "chip": "ym2612"
    },
    {
      "channel": 5,
      "note": 77,
      "start": 23.4578,
      "duration": 0.1633,
      "velocity": 95,
      "chip": "ym2612"
    },
    {
      "channel": 0,
      "note": 70,
      "start": 23.49,
      "duration": 0.1628,
      "velocity": 95,
      "chip": "ym2612"
    },
    {
      "channel": 1,
      "note": 51,
      "start": 23.4905,
      "duration": 0.3478,
      "velocity": 99,
      "chip": "ym2612"
    },
    {
      "channel": 2,
      "note": 51,
      "start": 23.4909,
      "duration": 0.162,
      "velocity": 95,
      "chip": "ym2612"
    },
    {
      "channel": 3,
      "note": 51,
      "start": 23.6129,
      "duration": 0.177,
      "velocity": 95,
      "chip": "ym2612"
    },
    {
      "channel": 4,
      "note": 70,
      "start": 23.621,
      "duration": 0.1772,
      "velocity": 95,
      "chip": "ym2612"
    },
    {
      "channel": 5,
      "note": 70,
      "start": 23.6371,
      "duration": 0.1775,
      "velocity": 95,
      "chip": "ym2612"
    },
    {
      "channel": 0,
      "note": 79,
      "start": 23.6694,
      "duration": 0.177,
      "velocity": 95,
      "chip": "ym2612"
    },
    {
      "channel": 2,
      "note": 51,
      "start": 23.6698,
      "duration": 0.1766,
      "velocity": 95,
      "chip": "ym2612"
    },
    {
      "channel": 3,
      "note": 51,
      "start": 23.8065,
      "duration": 0.1349,
      "velocity": 95,
      "chip": "ym2612"
    },
    {
      "channel": 4,
      "note": 79,
      "start": 23.8146,
      "duration": 0.1349,
      "velocity": 95,
      "chip": "ym2612"
    },
    {
      "channel": 5,
      "note": 79,
      "start": 23.8307,
      "duration": 0.1353,
      "velocity": 95,
      "chip": "ym2612"
    },
    {
      "channel": 0,
      "note": 75,
      "start": 23.8629,
      "duration": 0.1349,
      "velocity": 95,
      "chip": "ym2612"
    },
    {
      "channel": 1,
      "note": 51,
      "start": 23.8634,
      "duration": 0.1345,
      "velocity": 99,
      "chip": "ym2612"
    },
    {
      "channel": 2,
      "note": 51,
      "start": 23.8638,
      "duration": 0.1341,
      "velocity": 95,
      "chip": "ym2612"
    },
    {
      "channel": 3,
      "note": 51,
      "start": 23.9579,
      "duration": 0.1331,
      "velocity": 95,
      "chip": "ym2612"
    },
    {
      "channel": 4,
      "note": 75,
      "start": 23.966,
      "duration": 0.1331,
      "velocity": 95,
      "chip": "ym2612"
    },
    {
      "channel": 5,
      "note": 75,
      "start": 23.9821,
      "duration": 0.1336,
      "velocity": 95,
      "chip": "ym2612"
    },
    {
      "channel": 0,
      "note": 70,
      "start": 24.0143,
      "duration": 0.1332,
      "velocity": 95,
      "chip": "ym2612"
    },
    {
      "channel": 1,
      "note": 55,
      "start": 24.0148,
      "duration": 0.3034,
      "velocity": 99,
      "chip": "ym2612"
    },
    {
      "channel": 2,
      "note": 55,
      "start": 24.0152,
      "duration": 0.1323,
      "velocity": 95,
      "chip": "ym2612"
    },
    {
      "channel": 3,
      "note": 55,
      "start": 24.1076,
      "duration": 0.1622,
      "velocity": 95,
      "chip": "ym2612"
    },
    {
      "channel": 4,
      "note": 70,
      "start": 24.1157,
      "duration": 0.1622,
      "velocity": 95,
      "chip": "ym2612"
    },
    {
      "channel": 5,
      "note": 70,
      "start": 24.1318,
      "duration": 0.1626,
      "velocity": 95,
      "chip": "ym2612"
    },
    {
      "channel": 0,
      "note": 79,
      "start": 24.164,
      "duration": 0.1622,
      "velocity": 95,
      "chip": "ym2612"
    },
    {
      "channel": 2,
      "note": 51,
      "start": 24.1645,
      "duration": 0.1618,
      "velocity": 95,
      "chip": "ym2612"
    },
    {
      "channel": 3,
      "note": 51,
      "start": 24.2863,
      "duration": 0.166,
      "velocity": 95,
      "chip": "ym2612"
    },
    {
      "channel": 4,
      "note": 79,
      "start": 24.2944,
      "duration": 0.166,
      "velocity": 95,
      "chip": "ym2612"
    },
    {
      "channel": 5,
      "note": 79,
      "start": 24.3107,
      "duration": 0.1663,
      "velocity": 95,
      "chip": "ym2612"
    },
    {
      "channel": 0,
      "note": 75,
      "start": 24.3427,
      "duration": 0.166,
      "velocity": 95,
      "chip": "ym2612"
    },
    {
      "channel": 1,
      "note": 55,
      "start": 24.3432,
      "duration": 0.1656,
      "velocity": 99,
      "chip": "ym2612"
    },
    {
      "channel": 2,
      "note": 51,
      "start": 24.3437,
      "duration": 0.1651,
      "velocity": 95,
      "chip": "ym2612"
    },
    {
      "channel": 3,
      "note": 51,
      "start": 24.4688,
      "duration": 0.1337,
      "velocity": 95,
      "chip": "ym2612"
    },
    {
      "channel": 4,
      "note": 75,
      "start": 24.4769,
      "duration": 0.1337,
      "velocity": 95,
      "chip": "ym2612"
    },
    {
      "channel": 5,
      "note": 75,
      "start": 24.493,
      "duration": 0.1342,
      "velocity": 95,
      "chip": "ym2612"
    },
    {
      "channel": 0,
      "note": 70,
      "start": 24.5253,
      "duration": 0.1337,
      "velocity": 95,
      "chip": "ym2612"
    },
    {
      "channel": 1,
      "note": 58,
      "start": 24.5257,
      "duration": 0.1333,
      "velocity": 99,
      "chip": "ym2612"
    },
    {
      "channel": 2,
      "note": 58,
      "start": 24.5262,
      "duration": 0.1329,
      "velocity": 95,
      "chip": "ym2612"
    },
    {
      "channel": 3,
      "note": 58,
      "start": 24.6191,
      "duration": 0.177,
      "velocity": 95,
      "chip": "ym2612"
    },
    {
      "channel": 4,
      "note": 70,
      "start": 24.6272,
      "duration": 0.177,
      "velocity": 95,
      "chip": "ym2612"
    },
    {
      "channel": 5,
      "note": 70,
      "start": 24.6436,
      "duration": 0.1772,
      "velocity": 95,
      "chip": "ym2612"
    },
    {
      "channel": 0,
      "note": 79,
      "start": 24.6755,
      "duration": 0.177,
      "velocity": 95,
      "chip": "ym2612"
    },
    {
      "channel": 1,
      "note": 58,
      "start": 24.676,
      "duration": 0.1766,
      "velocity": 99,
      "chip": "ym2612"
    },
    {
      "channel": 2,
      "note": 55,
      "start": 24.6764,
      "duration": 0.1762,
      "velocity": 95,
      "chip": "ym2612"
    },
    {
      "channel": 3,
      "note": 55,
      "start": 24.8127,
      "duration": 0.1639,
      "velocity": 95,
      "chip": "ym2612"
    },
    {
      "channel": 4,
      "note": 79,
      "start": 24.8207,
      "duration": 0.164,
      "velocity": 95,
      "chip": "ym2612"
    },
    {
      "channel": 5,
      "note": 79,
      "start": 24.8368,
      "duration": 0.1644,
      "velocity": 95,
      "chip": "ym2612"
    },
    {
      "channel": 0,
      "note": 72,
      "start": 24.8691,
      "duration": 0.164,
      "velocity": 95,
      "chip": "ym2612"
    },
    {
      "channel": 1,
      "note": 53,
      "start": 24.8695,
      "duration": 0.349,
      "velocity": 99,
      "chip": "ym2612"
    },
    {
      "channel": 2,
      "note": 53,
      "start": 24.87,
      "duration": 0.1631,
      "velocity": 95,
      "chip": "ym2612"
    },
    {
      "channel": 3,
      "note": 53,
      "start": 24.9932,
      "duration": 0.177,
      "velocity": 95,
      "chip": "ym2612"
    },
    {
      "channel": 4,
      "note": 72,
      "start": 25.0012,
      "duration": 0.177,
      "velocity": 95,
      "chip": "ym2612"
    },
    {
      "channel": 5,
      "note": 72,
      "start": 25.0174,
      "duration": 0.1774,
      "velocity": 95,
      "chip": "ym2612"
    },
    {
      "channel": 0,
      "note": 80,
      "start": 25.0496,
      "duration": 0.177,
      "velocity": 95,
      "chip": "ym2612"
    },
    {
      "channel": 2,
      "note": 53,
      "start": 25.05,
      "duration": 0.1766,
      "velocity": 95,
      "chip": "ym2612"
    },
    {
      "channel": 3,
      "note": 53,
      "start": 25.1867,
      "duration": 0.1349,
      "velocity": 95,
      "chip": "ym2612"
    },
    {
      "channel": 4,
      "note": 80,
      "start": 25.1948,
      "duration": 0.1349,
      "velocity": 95,
      "chip": "ym2612"
    },
    {
      "channel": 5,
      "note": 80,
      "start": 25.2109,
      "duration": 0.1353,
      "velocity": 95,
      "chip": "ym2612"
    },
    {
      "channel": 0,
      "note": 77,
      "start": 25.2431,
      "duration": 0.1348,
      "velocity": 95,
      "chip": "ym2612"
    },
    {
      "channel": 1,
      "note": 53,
      "start": 25.2436,
      "duration": 0.1344,
      "velocity": 99,
      "chip": "ym2612"
    },
    {
      "channel": 2,
      "note": 53,
      "start": 25.244,
      "duration": 0.134,
      "velocity": 95,
      "chip": "ym2612"
    },
    {
      "channel": 3,
      "note": 53,
      "start": 25.3381,
      "duration": 0.1332,
      "velocity": 95,
      "chip": "ym2612"
    },
    {
      "channel": 4,
      "note": 77,
      "start": 25.3461,
      "duration": 0.1332,
      "velocity": 95,
      "chip": "ym2612"
    },
    {
      "channel": 5,
      "note": 77,
      "start": 25.3623,
      "duration": 0.1336,
      "velocity": 95,
      "chip": "ym2612"
    },
    {
      "channel": 0,
      "note": 72,
      "start": 25.3945,
      "duration": 0.1331,
      "velocity": 95,
      "chip": "ym2612"
    },
    {
      "channel": 1,
      "note": 56,
      "start": 25.395,
      "duration": 0.3068,
      "velocity": 99,
      "chip": "ym2612"
    },
    {
      "channel": 2,
      "note": 56,
      "start": 25.3954,
      "duration": 0.1323,
      "velocity": 95,
      "chip": "ym2612"
    },
    {
      "channel": 3,
      "note": 56,
      "start": 25.4878,
      "duration": 0.1657,
      "velocity": 95,
      "chip": "ym2612"
    },
    {
      "channel": 4,
      "note": 72,
      "start": 25.4958,
      "duration": 0.1657,
      "velocity": 95,
      "chip": "ym2612"
    },
    {
      "channel": 5,
      "note": 72,
      "start": 25.512,
      "duration": 0.1661,
      "velocity": 95,
      "chip": "ym2612"
    },
    {
      "channel": 0,
      "note": 80,
      "start": 25.5442,
      "duration": 0.1656,
      "velocity": 95,
      "chip": "ym2612"
    },
    {
      "channel": 2,
      "note": 53,
      "start": 25.5446,
      "duration": 0.1652,
      "velocity": 95,
      "chip": "ym2612"
    },
    {
      "channel": 3,
      "note": 53,
      "start": 25.67,
      "duration": 0.1625,
      "velocity": 95,
      "chip": "ym2612"
    },
    {
      "channel": 4,
      "note": 80,
      "start": 25.678,
      "duration": 0.1625,
      "velocity": 95,
      "chip": "ym2612"
    },
    {
      "channel": 5,
      "note": 80,
      "start": 25.6942,
      "duration": 0.163,
      "velocity": 95,
      "chip": "ym2612"
    },
    {
      "channel": 0,
      "note": 77,
      "start": 25.7264,
      "duration": 0.1625,
      "velocity": 95,
      "chip": "ym2612"
    },
    {
      "channel": 1,
      "note": 56,
      "start": 25.7269,
      "duration": 0.1621,
      "velocity": 99,
      "chip": "ym2612"
    },
    {
      "channel": 2,
      "note": 53,
      "start": 25.7273,
      "duration": 0.1616,
      "velocity": 95,
      "chip": "ym2612"
    },
    {
      "channel": 3,
      "note": 53,
      "start": 25.849,
      "duration": 0.1337,
      "velocity": 95,
      "chip": "ym2612"
    },
    {
      "channel": 4,
      "note": 77,
      "start": 25.8571,
      "duration": 0.1337,
      "velocity": 95,
      "chip": "ym2612"
    },
    {
      "channel": 5,
      "note": 77,
      "start": 25.8732,
      "duration": 0.1341,
      "velocity": 95,
      "chip": "ym2612"
    },
    {
      "channel": 0,
      "note": 72,
      "start": 25.9055,
      "duration": 0.1337,
      "velocity": 95,
      "chip": "ym2612"
    },
    {
      "channel": 1,
      "note": 60,
      "start": 25.9059,
      "duration": 0.1333,
      "velocity": 99,
      "chip": "ym2612"
    },
    {
      "channel": 2,
      "note": 60,
      "start": 25.9063,
      "duration": 0.1329,
      "velocity": 95,
      "chip": "ym2612"
    },
    {
      "channel": 3,
      "note": 60,
      "start": 25.9993,
      "duration": 0.1337,
      "velocity": 95,
      "chip": "ym2612"
    },
    {
      "channel": 4,
      "note": 72,
      "start": 26.0073,
      "duration": 0.1337,
      "velocity": 95,
      "chip": "ym2612"
    },
    {
      "channel": 5,
      "note": 72,
      "start": 26.0235,
      "duration": 0.1342,
      "velocity": 95,
      "chip": "ym2612"
    },
    {
      "channel": 0,
      "note": 77,
      "start": 26.0557,
      "duration": 0.1337,
      "velocity": 95,
      "chip": "ym2612"
    },
    {
      "channel": 1,
      "note": 60,
      "start": 26.0561,
      "duration": 0.1333,
      "velocity": 99,
      "chip": "ym2612"
    },
    {
      "channel": 2,
      "note": 56,
      "start": 26.0566,
      "duration": 0.1329,
      "velocity": 95,
      "chip": "ym2612"
    },
    {
      "channel": 3,
      "note": 56,
      "start": 26.1495,
      "duration": 0.1628,
      "velocity": 95,
      "chip": "ym2612"
    },
    {
      "channel": 4,
      "note": 77,
      "start": 26.1576,
      "duration": 0.1628,
      "velocity": 95,
      "chip": "ym2612"
    },
    {
      "channel": 5,
      "note": 77,
      "start": 26.1737,
      "duration": 0.1633,
      "velocity": 95,
      "chip": "ym2612"
    },
    {
      "channel": 0,
      "note": 80,
      "start": 26.206,
      "duration": 0.1628,
      "velocity": 95,
      "chip": "ym2612"
    },
    {
      "channel": 1,
      "note": 53,
      "start": 26.2064,
      "duration": 0.3359,
      "velocity": 99,
      "chip": "ym2612"
    },
    {
      "channel": 2,
      "note": 53,
      "start": 26.2069,
      "duration": 0.162,
      "velocity": 95,
      "chip": "ym2612"
    },
    {
      "channel": 3,
      "note": 53,
      "start": 26.3289,
      "duration": 0.1651,
      "velocity": 95,
      "chip": "ym2612"
    },
    {
      "channel": 4,
      "note": 80,
      "start": 26.337,
      "duration": 0.1651,
      "velocity": 95,
      "chip": "ym2612"
    },
    {
      "channel": 5,
      "note": 80,
      "start": 26.3531,
      "duration": 0.1655,
      "velocity": 95,
      "chip": "ym2612"
    },
    {
      "channel": 0,
      "note": 72,
      "start": 26.3853,
      "duration": 0.1651,
      "velocity": 95,
      "chip": "ym2612"
    },
    {
      "channel": 2,
      "note": 53,
      "start": 26.3858,
      "duration": 0.1647,
      "velocity": 95,
      "chip": "ym2612"
    },
    {
      "channel": 3,
      "note": 53,
      "start": 26.5105,
      "duration": 0.1349,
      "velocity": 95,
      "chip": "ym2612"
    },
    {
      "channel": 4,
      "note": 72,
      "start": 26.5186,
      "duration": 0.1349,
      "velocity": 95,
      "chip": "ym2612"
    },
    {
      "channel": 5,
      "note": 72,
      "start": 26.5351,
      "duration": 0.135,
      "velocity": 95,
      "chip": "ym2612"
    },
    {
      "channel": 0,
      "note": 68,
      "start": 26.5669,
      "duration": 0.1349,
      "velocity": 95,
      "chip": "ym2612"
    },
    {
      "channel": 1,
      "note": 53,
      "start": 26.5674,
      "duration": 0.1344,
      "velocity": 99,
      "chip": "ym2612"
    },
    {
      "channel": 2,
      "note": 53,
      "start": 26.5678,
      "duration": 0.134,
      "velocity": 95,
      "chip": "ym2612"
    },
    {
      "channel": 3,
      "note": 53,
      "start": 26.6619,
      "duration": 0.1349,
      "velocity": 95,
      "chip": "ym2612"
    },
    {
      "channel": 4,
      "note": 68,
      "start": 26.67,
      "duration": 0.1348,
      "velocity": 95,
      "chip": "ym2612"
    },
    {
      "channel": 5,
      "note": 68,
      "start": 26.6861,
      "duration": 0.1353,
      "velocity": 95,
      "chip": "ym2612"
    },
    {
      "channel": 0,
      "note": 79,
      "start": 26.7183,
      "duration": 0.1349,
      "velocity": 95,
      "chip": "ym2612"
    },
    {
      "channel": 1,
      "note": 56,
      "start": 26.7188,
      "duration": 0.3051,
      "velocity": 99,
      "chip": "ym2612"
    },
    {
      "channel": 2,
      "note": 56,
      "start": 26.7193,
      "duration": 0.134,
      "velocity": 95,
      "chip": "ym2612"
    },
    {
      "channel": 3,
      "note": 56,
      "start": 26.8134,
      "duration": 0.1622,
      "velocity": 95,
      "chip": "ym2612"
    },
    {
      "channel": 4,
      "note": 79,
      "start": 26.8214,
      "duration": 0.1622,
      "velocity": 95,
      "chip": "ym2612"
    },
    {
      "channel": 5,
      "note": 79,
      "start": 26.8376,
      "duration": 0.1626,
      "velocity": 95,
      "chip": "ym2612"
    },
    {
      "channel": 0,
      "note": 72,
      "start": 26.8698,
      "duration": 0.1622,
      "velocity": 95,
      "chip": "ym2612"
    },
    {
      "channel": 2,
      "note": 53,
      "start": 26.8702,
      "duration": 0.1618,
      "velocity": 95,
      "chip": "ym2612"
    },
    {
      "channel": 3,
      "note": 53,
      "start": 26.9924,
      "duration": 0.1642,
      "velocity": 95,
      "chip": "ym2612"
    },
    {
      "channel": 4,
      "note": 72,
      "start": 27.0002,
      "duration": 0.1645,
      "velocity": 95,
      "chip": "ym2612"
    },
    {
      "channel": 5,
      "note": 72,
      "start": 27.0163,
      "duration": 0.165,
      "velocity": 95,
      "chip": "ym2612"
    },
    {
      "channel": 0,
      "note": 68,
      "start": 27.0485,
      "duration": 0.1645,
      "velocity": 95,
      "chip": "ym2612"
    },
    {
      "channel": 1,
      "note": 53,
      "start": 27.049,
      "duration": 0.1641,
      "velocity": 99,
      "chip": "ym2612"
    },
    {
      "channel": 2,
      "note": 53,
      "start": 27.0494,
      "duration": 0.1637,
      "velocity": 95,
      "chip": "ym2612"
    },
    {
      "channel": 3,
      "note": 53,
      "start": 27.1732,
      "duration": 0.1337,
      "velocity": 95,
      "chip": "ym2612"
    },
    {
      "channel": 4,
      "note": 68,
      "start": 27.1812,
      "duration": 0.1337,
      "velocity": 95,
      "chip": "ym2612"
    },
    {
      "channel": 5,
      "note": 68,
      "start": 27.1973,
      "duration": 0.1342,
      "velocity": 95,
      "chip": "ym2612"
    },
    {
      "channel": 0,
      "note": 77,
      "start": 27.2296,
      "duration": 0.2759,
      "velocity": 95,
      "chip": "ym2612"
    },
    {
      "channel": 1,
      "note": 56,
      "start": 27.23,
      "duration": 0.1333,
      "velocity": 99,
      "chip": "ym2612"
    },
    {
      "channel": 2,
      "note": 56,
      "start": 27.2305,
      "duration": 0.1329,
      "velocity": 95,
      "chip": "ym2612"
    },
    {
      "channel": 3,
      "note": 56,
      "start": 27.3234,
      "duration": 0.1337,
      "velocity": 95,
      "chip": "ym2612"
    },
    {
      "channel": 4,
      "note": 77,
      "start": 27.3315,
      "duration": 0.2962,
      "velocity": 95,
      "chip": "ym2612"
    },
    {
      "channel": 5,
      "note": 77,
      "start": 27.3476,
      "duration": 0.2962,
      "velocity": 95,
      "chip": "ym2612"
    },
    {
      "channel": 1,
      "note": 57,
      "start": 27.3798,
      "duration": 0.1337,
      "velocity": 99,
      "chip": "ym2612"
    },
    {
      "channel": 2,
      "note": 57,
      "start": 27.3803,
      "duration": 0.1333,
      "velocity": 95,
      "chip": "ym2612"
    },
    {
      "channel": 3,
      "note": 57,
      "start": 27.4737,
      "duration": 0.048,
      "velocity": 95,
      "chip": "ym2612"
    },
    {
      "channel": 0,
      "note": 73,
      "start": 27.5301,
      "duration": 0.154,
      "velocity": 95,
      "chip": "ym2612"
    },
    {
      "channel": 1,
      "note": 58,
      "start": 27.5306,
      "duration": 0.1536,
      "velocity": 99,
      "chip": "ym2612"
    },
    {
      "channel": 2,
      "note": 58,
      "start": 27.531,
      "duration": 0.1532,
      "velocity": 95,
      "chip": "ym2612"
    },
    {
      "channel": 3,
      "note": 77,
      "start": 27.5324,
      "duration": 0.1518,
      "velocity": 95,
      "chip": "ym2612"
    },
    {
      "channel": 4,
      "note": 73,
      "start": 27.6523,
      "duration": 0.177,
      "velocity": 95,
      "chip": "ym2612"
    },
    {
      "channel": 5,
      "note": 77,
      "start": 27.6694,
      "duration": 0.1765,
      "velocity": 95,
      "chip": "ym2612"
    },
    {
      "channel": 0,
      "note": 70,
      "start": 27.7007,
      "duration": 0.177,
      "velocity": 95,
      "chip": "ym2612"
    },
    {
      "channel": 1,
      "note": 58,
      "start": 27.7011,
      "duration": 0.1766,
      "velocity": 99,
      "chip": "ym2612"
    },
    {
      "channel": 2,
      "note": 58,
      "start": 27.7016,
      "duration": 0.1761,
      "velocity": 95,
      "chip": "ym2612"
    },
    {
      "channel": 3,
      "note": 73,
      "start": 27.702,
      "duration": 0.1757,
      "velocity": 95,
      "chip": "ym2612"
    },
    {
      "channel": 4,
      "note": 70,
      "start": 27.8458,
      "duration": 0.1586,
      "velocity": 95,
      "chip": "ym2612"
    },
    {
      "channel": 5,
      "note": 73,
      "start": 27.862,
      "duration": 0.159,
      "velocity": 95,
      "chip": "ym2612"
    },
    {
      "channel": 0,
      "note": 65,
      "start": 27.8942,
      "duration": 0.1585,
      "velocity": 95,
      "chip": "ym2612"
    },
    {
      "channel": 2,
      "note": 58,
      "start": 27.8946,
      "duration": 0.1581,
      "velocity": 95,
      "chip": "ym2612"
    },
    {
      "channel": 3,
      "note": 70,
      "start": 27.8951,
      "duration": 0.1577,
      "velocity": 95,
      "chip": "ym2612"
    },
    {
      "channel": 4,
      "note": 65,
      "start": 28.0209,
      "duration": 0.1349,
      "velocity": 95,
      "chip": "ym2612"
    },
    {
      "channel": 5,
      "note": 70,
      "start": 28.0371,
      "duration": 0.1353,
      "velocity": 95,
      "chip": "ym2612"
    },
    {
      "channel": 0,
      "note": 73,
      "start": 28.0693,
      "duration": 0.1349,
      "velocity": 95,
      "chip": "ym2612"
    },
    {
      "channel": 1,
      "note": 58,
      "start": 28.0698,
      "duration": 0.3086,
      "velocity": 99,
      "chip": "ym2612"
    },
    {
      "channel": 2,
      "note": 61,
      "start": 28.0702,
      "duration": 0.134,
      "velocity": 95,
      "chip": "ym2612"
    },
    {
      "channel": 3,
      "note": 77,
      "start": 28.0706,
      "duration": 0.1336,
      "velocity": 95,
      "chip": "ym2612"
    },
    {
      "channel": 4,
      "note": 73,
      "start": 28.1724,
      "duration": 0.1657,
      "velocity": 95,
      "chip": "ym2612"
    },
    {
      "channel": 5,
      "note": 77,
      "start": 28.1886,
      "duration": 0.166,
      "velocity": 95,
      "chip": "ym2612"
    },
    {
      "channel": 0,
      "note": 70,
      "start": 28.2207,
      "duration": 0.1656,
      "velocity": 95,
      "chip": "ym2612"
    },
    {
      "channel": 2,
      "note": 58,
      "start": 28.2212,
      "duration": 0.1652,
      "velocity": 95,
      "chip": "ym2612"
    },
    {
      "channel": 3,
      "note": 73,
      "start": 28.2216,
      "duration": 0.1648,
      "velocity": 95,
      "chip": "ym2612"
    },
    {
      "channel": 4,
      "note": 70,
      "start": 28.3546,
      "duration": 0.1634,
      "velocity": 95,
      "chip": "ym2612"
    },
    {
      "channel": 5,
      "note": 73,
      "start": 28.3707,
      "duration": 0.1638,
      "velocity": 95,
      "chip": "ym2612"
    },
    {
      "channel": 0,
      "note": 65,
      "start": 28.4031,
      "duration": 0.1632,
      "velocity": 95,
      "chip": "ym2612"
    },
    {
      "channel": 1,
      "note": 58,
      "start": 28.4036,
      "duration": 0.1627,
      "velocity": 99,
      "chip": "ym2612"
    },
    {
      "channel": 2,
      "note": 58,
      "start": 28.404,
      "duration": 0.1623,
      "velocity": 95,
      "chip": "ym2612"
    },
    {
      "channel": 3,
      "note": 70,
      "start": 28.4045,
      "duration": 0.1619,
      "velocity": 95,
      "chip": "ym2612"
    },
    {
      "channel": 4,
      "note": 65,
      "start": 28.5345,
      "duration": 0.1337,
      "velocity": 95,
      "chip": "ym2612"
    },
    {
      "channel": 5,
      "note": 70,
      "start": 28.5506,
      "duration": 0.1341,
      "velocity": 95,
      "chip": "ym2612"
    },
    {
      "channel": 0,
      "note": 73,
      "start": 28.5828,
      "duration": 0.1337,
      "velocity": 95,
      "chip": "ym2612"
    },
    {
      "channel": 1,
      "note": 58,
      "start": 28.5833,
      "duration": 0.1333,
      "velocity": 99,
      "chip": "ym2612"
    },
    {
      "channel": 2,
      "note": 65,
      "start": 28.5837,
      "duration": 0.1329,
      "velocity": 95,
      "chip": "ym2612"
    },
    {
      "channel": 3,
      "note": 77,
      "start": 28.5842,
      "duration": 0.1325,
      "velocity": 95,
      "chip": "ym2612"
    },
    {
      "channel": 4,
      "note": 73,
      "start": 28.6847,
      "duration": 0.177,
      "velocity": 95,
      "chip": "ym2612"
    },
    {
      "channel": 5,
      "note": 77,
      "start": 28.7008,
      "duration": 0.1775,
      "velocity": 95,
      "chip": "ym2612"
    },
    {
      "channel": 0,
      "note": 70,
      "start": 28.7331,
      "duration": 0.177,
      "velocity": 95,
      "chip": "ym2612"
    },
    {
      "channel": 1,
      "note": 58,
      "start": 28.7335,
      "duration": 0.1766,
      "velocity": 99,
      "chip": "ym2612"
    },
    {
      "channel": 2,
      "note": 61,
      "start": 28.734,
      "duration": 0.1762,
      "velocity": 95,
      "chip": "ym2612"
    },
    {
      "channel": 3,
      "note": 73,
      "start": 28.7344,
      "duration": 0.1758,
      "velocity": 95,
      "chip": "ym2612"
    },
    {
      "channel": 4,
      "note": 70,
      "start": 28.8783,
      "duration": 0.1629,
      "velocity": 95,
      "chip": "ym2612"
    },
    {
      "channel": 5,
      "note": 73,
      "start": 28.8944,
      "duration": 0.1633,
      "velocity": 95,
      "chip": "ym2612"
    },
    {
      "channel": 0,
      "note": 65,
      "start": 28.9266,
      "duration": 0.1629,
      "velocity": 95,
      "chip": "ym2612"
    },
    {
      "channel": 2,
      "note": 58,
      "start": 28.9271,
      "duration": 0.1624,
      "velocity": 95,
      "chip": "ym2612"
    },
    {
      "channel": 3,
      "note": 70,
      "start": 28.9275,
      "duration": 0.162,
      "velocity": 95,
      "chip": "ym2612"
    },
    {
      "channel": 4,
      "note": 65,
      "start": 29.0576,
      "duration": 0.177,
      "velocity": 95,
      "chip": "ym2612"
    },
    {
      "channel": 5,
      "note": 70,
      "start": 29.0738,
      "duration": 0.1774,
      "velocity": 95,
      "chip": "ym2612"
    },
    {
      "channel": 0,
      "note": 73,
      "start": 29.106,
      "duration": 0.177,
      "velocity": 95,
      "chip": "ym2612"
    },
    {
      "channel": 1,
      "note": 58,
      "start": 29.1064,
      "duration": 0.341,
      "velocity": 99,
      "chip": "ym2612"
    },
    {
      "channel": 2,
      "note": 58,
      "start": 29.1069,
      "duration": 0.1761,
      "velocity": 95,
      "chip": "ym2612"
    },
    {
      "channel": 3,
      "note": 77,
      "start": 29.1073,
      "duration": 0.1757,
      "velocity": 95,
      "chip": "ym2612"
    },
    {
      "channel": 4,
      "note": 73,
      "start": 29.2512,
      "duration": 0.1559,
      "velocity": 95,
      "chip": "ym2612"
    },
    {
      "channel": 5,
      "note": 77,
      "start": 29.2673,
      "duration": 0.1564,
      "velocity": 95,
      "chip": "ym2612"
    },
    {
      "channel": 0,
      "note": 70,
      "start": 29.2995,
      "duration": 0.1559,
      "velocity": 95,
      "chip": "ym2612"
    },
    {
      "channel": 2,
      "note": 58,
      "start": 29.3,
      "duration": 0.1555,
      "velocity": 95,
      "chip": "ym2612"
    },
    {
      "channel": 3,
      "note": 73,
      "start": 29.3004,
      "duration": 0.1551,
      "velocity": 95,
      "chip": "ym2612"
    },
    {
      "channel": 4,
      "note": 70,
      "start": 29.4237,
      "duration": 0.1349,
      "velocity": 95,
      "chip": "ym2612"
    },
    {
      "channel": 5,
      "note": 73,
      "start": 29.4398,
      "duration": 0.1353,
      "velocity": 95,
      "chip": "ym2612"
    },
    {
      "channel": 0,
      "note": 65,
      "start": 29.472,
      "duration": 0.1349,
      "velocity": 95,
      "chip": "ym2612"
    },
    {
      "channel": 1,
      "note": 58,
      "start": 29.4724,
      "duration": 0.1344,
      "velocity": 99,
      "chip": "ym2612"
    },
    {
      "channel": 2,
      "note": 61,
      "start": 29.4729,
      "duration": 0.134,
      "velocity": 95,
      "chip": "ym2612"
    },
    {
      "channel": 3,
      "note": 70,
      "start": 29.4734,
      "duration": 0.1336,
      "velocity": 95,
      "chip": "ym2612"
    },
    {
      "channel": 4,
      "note": 65,
      "start": 29.5751,
      "duration": 0.1622,
      "velocity": 95,
      "chip": "ym2612"
    },
    {
      "channel": 5,
      "note": 70,
      "start": 29.5912,
      "duration": 0.1626,
      "velocity": 95,
      "chip": "ym2612"
    },
    {
      "channel": 0,
      "note": 73,
      "start": 29.6235,
      "duration": 0.1621,
      "velocity": 95,
      "chip": "ym2612"
    },
    {
      "channel": 1,
      "note": 58,
      "start": 29.6239,
      "duration": 0.3347,
      "velocity": 99,
      "chip": "ym2612"
    },
    {
      "channel": 2,
      "note": 58,
      "start": 29.6244,
      "duration": 0.1613,
      "velocity": 95,
      "chip": "ym2612"
    },
    {
      "channel": 3,
      "note": 77,
      "start": 29.6248,
      "duration": 0.1608,
      "velocity": 95,
      "chip": "ym2612"
    },
    {
      "channel": 4,
      "note": 73,
      "start": 29.7538,
      "duration": 0.1645,
      "velocity": 95,
      "chip": "ym2612"
    },
    {
      "channel": 5,
      "note": 77,
      "start": 29.7699,
      "duration": 0.165,
      "velocity": 95,
      "chip": "ym2612"
    },
    {
      "channel": 0,
      "note": 70,
      "start": 29.8021,
      "duration": 0.1646,
      "velocity": 95,
      "chip": "ym2612"
    },
    {
      "channel": 2,
      "note": 58,
      "start": 29.8026,
      "duration": 0.1641,
      "velocity": 95,
      "chip": "ym2612"
    },
    {
      "channel": 3,
      "note": 73,
      "start": 29.803,
      "duration": 0.1637,
      "velocity": 95,
      "chip": "ym2612"
    },
    {
      "channel": 4,
      "note": 70,
      "start": 29.9349,
      "duration": 0.1331,
      "velocity": 95,
      "chip": "ym2612"
    },
    {
      "channel": 5,
      "note": 73,
      "start": 29.951,
      "duration": 0.1336,
      "velocity": 95,
      "chip": "ym2612"
    },
    {
      "channel": 0,
      "note": 65,
      "start": 29.9832,
      "duration": 0.1331,
      "velocity": 95,
      "chip": "ym2612"
    },
    {
      "channel": 1,
      "note": 58,
      "start": 29.9837,
      "duration": 0.3181,
      "velocity": 99,
      "chip": "ym2612"
    },
    {
      "channel": 2,
      "note": 65,
      "start": 29.9841,
      "duration": 0.1323,
      "velocity": 95,
      "chip": "ym2612"
    },
    {
      "channel": 3,
      "note": 70,
      "start": 29.9846,
      "duration": 0.1318,
      "velocity": 95,
      "chip": "ym2612"
    },
    {
      "channel": 4,
      "note": 65,
      "start": 30.0845,
      "duration": 0.177,
      "velocity": 95,
      "chip": "ym2612"
    },
    {
      "channel": 5,
      "note": 70,
      "start": 30.1007,
      "duration": 0.1774,
      "velocity": 95,
      "chip": "ym2612"
    },
    {
      "channel": 0,
      "note": 70,
      "start": 30.1329,
      "duration": 0.177,
      "velocity": 95,
      "chip": "ym2612"
    },
    {
      "channel": 2,
      "note": 61,
      "start": 30.1333,
      "duration": 0.1766,
      "velocity": 95,
      "chip": "ym2612"
    },
    {
      "channel": 3,
      "note": 73,
      "start": 30.1338,
      "duration": 0.1762,
      "velocity": 95,
      "chip": "ym2612"
    },
    {
      "channel": 4,
      "note": 70,
      "start": 30.278,
      "duration": 0.165,
      "velocity": 95,
      "chip": "ym2612"
    },
    {
      "channel": 5,
      "note": 73,
      "start": 30.2942,
      "duration": 0.1654,
      "velocity": 95,
      "chip": "ym2612"
    },
    {
      "channel": 0,
      "note": 72,
      "start": 30.3264,
      "duration": 0.165,
      "velocity": 95,
      "chip": "ym2612"
    },
    {
      "channel": 1,
      "note": 56,
      "start": 30.3269,
      "duration": 0.1646,
      "velocity": 99,
      "chip": "ym2612"
    },
    {
      "channel": 2,
      "note": 56,
      "start": 30.3273,
      "duration": 0.1642,
      "velocity": 95,
      "chip": "ym2612"
    },
    {
      "channel": 3,
      "note": 75,
      "start": 30.3278,
      "duration": 0.1637,
      "velocity": 95,
      "chip": "ym2612"
    },
    {
      "channel": 4,
      "note": 72,
      "start": 30.4596,
      "duration": 0.177,
      "velocity": 95,
      "chip": "ym2612"
    },
    {
      "channel": 5,
      "note": 75,
      "start": 30.4758,
      "duration": 0.1775,
      "velocity": 95,
      "chip": "ym2612"
    },
    {
      "channel": 0,
      "note": 68,
      "start": 30.508,
      "duration": 0.177,
      "velocity": 95,
      "chip": "ym2612"
    },
    {
      "channel": 1,
      "note": 56,
      "start": 30.5084,
      "duration": 0.1766,
      "velocity": 99,
      "chip": "ym2612"
    },
    {
      "channel": 2,
      "note": 56,
      "start": 30.5089,
      "duration": 0.1761,
      "velocity": 95,
      "chip": "ym2612"
    },
    {
      "channel": 3,
      "note": 72,
      "start": 30.5093,
      "duration": 0.1757,
      "velocity": 95,
      "chip": "ym2612"
    },
    {
      "channel": 4,
      "note": 68,
      "start": 30.6532,
      "duration": 0.1587,
      "velocity": 95,
      "chip": "ym2612"
    },
    {
      "channel": 5,
      "note": 72,
      "start": 30.6693,
      "duration": 0.1593,
      "velocity": 95,
      "chip": "ym2612"
    },
    {
      "channel": 0,
      "note": 63,
      "start": 30.7015,
      "duration": 0.1588,
      "velocity": 95,
      "chip": "ym2612"
    },
    {
      "channel": 2,
      "note": 56,
      "start": 30.7019,
      "duration": 0.1584,
      "velocity": 95,
      "chip": "ym2612"
    },
    {
      "channel": 3,
      "note": 68,
      "start": 30.7024,
      "duration": 0.158,
      "velocity": 95,
      "chip": "ym2612"
    },
    {
      "channel": 4,
      "note": 63,
      "start": 30.8285,
      "duration": 0.1349,
      "velocity": 95,
      "chip": "ym2612"
    },
    {
      "channel": 5,
      "note": 68,
      "start": 30.8446,
      "duration": 0.1353,
      "velocity": 95,
      "chip": "ym2612"
    },
    {
      "channel": 0,
      "note": 72,
      "start": 30.8768,
      "duration": 0.1349,
      "velocity": 95,
      "chip": "ym2612"
    },
    {
      "channel": 1,
      "note": 56,
      "start": 30.8773,
      "duration": 0.3071,
      "velocity": 99,
      "chip": "ym2612"
    },
    {
      "channel": 2,
      "note": 60,
      "start": 30.8777,
      "duration": 0.134,
      "velocity": 95,
      "chip": "ym2612"
    },
    {
      "channel": 3,
      "note": 75,
      "start": 30.8782,
      "duration": 0.1336,
      "velocity": 95,
      "chip": "ym2612"
    },
    {
      "channel": 4,
      "note": 72,
      "start": 30.9799,
      "duration": 0.1642,
      "velocity": 95,
      "chip": "ym2612"
    },
    {
      "channel": 5,
      "note": 75,
      "start": 30.996,
      "duration": 0.1647,
      "velocity": 95,
      "chip": "ym2612"
    },
    {
      "channel": 0,
      "note": 68,
      "start": 31.0282,
      "duration": 0.1642,
      "velocity": 95,
      "chip": "ym2612"
    },
    {
      "channel": 2,
      "note": 56,
      "start": 31.0287,
      "duration": 0.1638,
      "velocity": 95,
      "chip": "ym2612"
    },
    {
      "channel": 3,
      "note": 72,
      "start": 31.0291,
      "duration": 0.1634,
      "velocity": 95,
      "chip": "ym2612"
    },
    {
      "channel": 4,
      "note": 68,
      "start": 31.1606,
      "duration": 0.1634,
      "velocity": 95,
      "chip": "ym2612"
    },
    {
      "channel": 5,
      "note": 72,
      "start": 31.1768,
      "duration": 0.1639,
      "velocity": 95,
      "chip": "ym2612"
    },
    {
      "channel": 0,
      "note": 63,
      "start": 31.209,
      "duration": 0.1634,
      "velocity": 95,
      "chip": "ym2612"
    },
    {
      "channel": 1,
      "note": 56,
      "start": 31.2095,
      "duration": 0.163,
      "velocity": 99,
      "chip": "ym2612"
    },
    {
      "channel": 2,
      "note": 56,
      "start": 31.2099,
      "duration": 0.1626,
      "velocity": 95,
      "chip": "ym2612"
    },
    {
      "channel": 3,
      "note": 68,
      "start": 31.2103,
      "duration": 0.1622,
      "velocity": 95,
      "chip": "ym2612"
    },
    {
      "channel": 4,
      "note": 63,
      "start": 31.3406,
      "duration": 0.1331,
      "velocity": 95,
      "chip": "ym2612"
    },
    {
      "channel": 5,
      "note": 68,
      "start": 31.3567,
      "duration": 0.1336,
      "velocity": 95,
      "chip": "ym2612"
    },
    {
      "channel": 0,
      "note": 72,
      "start": 31.389,
      "duration": 0.133,
      "velocity": 95,
      "chip": "ym2612"
    },
    {
      "channel": 1,
      "note": 56,
      "start": 31.3895,
      "duration": 0.1326,
      "velocity": 99,
      "chip": "ym2612"
    },
    {
      "channel": 2,
      "note": 63,
      "start": 31.39,
      "duration": 0.1322,
      "velocity": 95,
      "chip": "ym2612"
    },
    {
      "channel": 3,
      "note": 75,
      "start": 31.3904,
      "duration": 0.1318,
      "velocity": 95,
      "chip": "ym2612"
    },
    {
      "channel": 4,
      "note": 72,
      "start": 31.4902,
      "duration": 0.177,
      "velocity": 95,
      "chip": "ym2612"
    },
    {
      "channel": 5,
      "note": 75,
      "start": 31.5064,
      "duration": 0.1775,
      "velocity": 95,
      "chip": "ym2612"
    },
    {
      "channel": 0,
      "note": 68,
      "start": 31.5386,
      "duration": 0.177,
      "velocity": 95,
      "chip": "ym2612"
    },
    {
      "channel": 1,
      "note": 56,
      "start": 31.539,
      "duration": 0.1766,
      "velocity": 99,
      "chip": "ym2612"
    },
    {
      "channel": 2,
      "note": 60,
      "start": 31.5395,
      "duration": 0.1762,
      "velocity": 95,
      "chip": "ym2612"
    },
    {
      "channel": 3,
      "note": 72,
      "start": 31.54,
      "duration": 0.1758,
      "velocity": 95,
      "chip": "ym2612"
    },
    {
      "channel": 4,
      "note": 68,
      "start": 31.6838,
      "duration": 0.1637,
      "velocity": 95,
      "chip": "ym2612"
    },
    {
      "channel": 5,
      "note": 72,
      "start": 31.6999,
      "duration": 0.1641,
      "velocity": 95,
      "chip": "ym2612"
    },
    {
      "channel": 0,
      "note": 63,
      "start": 31.7321,
      "duration": 0.1637,
      "velocity": 95,
      "chip": "ym2612"
    },
    {
      "channel": 2,
      "note": 56,
      "start": 31.7326,
      "duration": 0.1633,
      "velocity": 95,
      "chip": "ym2612"
    },
    {
      "channel": 3,
      "note": 68,
      "start": 31.7331,
      "duration": 0.1629,
      "velocity": 95,
      "chip": "ym2612"
    },
    {
      "channel": 4,
      "note": 63,
      "start": 31.864,
      "duration": 0.177,
      "velocity": 95,
      "chip": "ym2612"
    },
    {
      "channel": 5,
      "note": 68,
      "start": 31.8801,
      "duration": 0.1775,
      "velocity": 95,
      "chip": "ym2612"
    },
    {
      "channel": 0,
      "note": 72,
      "start": 31.9124,
      "duration": 0.177,
      "velocity": 95,
      "chip": "ym2612"
    },
    {
      "channel": 1,
      "note": 56,
      "start": 31.9128,
      "duration": 0.3416,
      "velocity": 99,
      "chip": "ym2612"
    },
    {
      "channel": 2,
      "note": 56,
      "start": 31.9133,
      "duration": 0.1761,
      "velocity": 95,
      "chip": "ym2612"
    },
    {
      "channel": 3,
      "note": 75,
      "start": 31.9137,
      "duration": 0.1757,
      "velocity": 95,
      "chip": "ym2612"
    },
    {
      "channel": 4,
      "note": 72,
      "start": 32.0576,
      "duration": 0.1565,
      "velocity": 95,
      "chip": "ym2612"
    },
    {
      "channel": 5,
      "note": 75,
      "start": 32.0737,
      "duration": 0.157,
      "velocity": 95,
      "chip": "ym2612"
    },
    {
      "channel": 0,
      "note": 68,
      "start": 32.1059,
      "duration": 0.1565,
      "velocity": 95,
      "chip": "ym2612"
    },
    {
      "channel": 2,
      "note": 56,
      "start": 32.1064,
      "duration": 0.1561,
      "velocity": 95,
      "chip": "ym2612"
    },
    {
      "channel": 3,
      "note": 72,
      "start": 32.1068,
      "duration": 0.1557,
      "velocity": 95,
      "chip": "ym2612"
    },
    {
      "channel": 4,
      "note": 68,
      "start": 32.2306,
      "duration": 0.1349,
      "velocity": 95,
      "chip": "ym2612"
    },
    {
      "channel": 5,
      "note": 72,
      "start": 32.2469,
      "duration": 0.1352,
      "velocity": 95,
      "chip": "ym2612"
    },
    {
      "channel": 0,
      "note": 63,
      "start": 32.279,
      "duration": 0.1349,
      "velocity": 95,
      "chip": "ym2612"
    },
    {
      "channel": 1,
      "note": 56,
      "start": 32.2794,
      "duration": 0.1345,
      "velocity": 99,
      "chip": "ym2612"
    },
    {
      "channel": 2,
      "note": 60,
      "start": 32.2799,
      "duration": 0.1341,
      "velocity": 95,
      "chip": "ym2612"
    },
    {
      "channel": 3,
      "note": 68,
      "start": 32.2803,
      "duration": 0.1337,
      "velocity": 95,
      "chip": "ym2612"
    },
    {
      "channel": 4,
      "note": 63,
      "start": 32.382,
      "duration": 0.1631,
      "velocity": 95,
      "chip": "ym2612"
    },
    {
      "channel": 5,
      "note": 68,
      "start": 32.3982,
      "duration": 0.1635,
      "velocity": 95,
      "chip": "ym2612"
    },
    {
      "channel": 0,
      "note": 72,
      "start": 32.4304,
      "duration": 0.1631,
      "velocity": 95,
      "chip": "ym2612"
    },
    {
      "channel": 1,
      "note": 56,
      "start": 32.4308,
      "duration": 0.3356,
      "velocity": 99,
      "chip": "ym2612"
    },
    {
      "channel": 2,
      "note": 56,
      "start": 32.4313,
      "duration": 0.1622,
      "velocity": 95,
      "chip": "ym2612"
    },
    {
      "channel": 3,
      "note": 75,
      "start": 32.4317,
      "duration": 0.1618,
      "velocity": 95,
      "chip": "ym2612"
    },
    {
      "channel": 4,
      "note": 72,
      "start": 32.5617,
      "duration": 0.1645,
      "velocity": 95,
      "chip": "ym2612"
    },
    {
      "channel": 5,
      "note": 75,
      "start": 32.5778,
      "duration": 0.1652,
      "velocity": 95,
      "chip": "ym2612"
    },
    {
      "channel": 0,
      "note": 68,
      "start": 32.61,
      "duration": 0.1645,
      "velocity": 95,
      "chip": "ym2612"
    },
    {
      "channel": 2,
      "note": 56,
      "start": 32.6105,
      "duration": 0.1641,
      "velocity": 95,
      "chip": "ym2612"
    },
    {
      "channel": 3,
      "note": 72,
      "start": 32.6109,
      "duration": 0.1637,
      "velocity": 95,
      "chip": "ym2612"
    },
    {
      "channel": 4,
      "note": 68,
      "start": 32.743,
      "duration": 0.1329,
      "velocity": 95,
      "chip": "ym2612"
    },
    {
      "channel": 5,
      "note": 72,
      "start": 32.7589,
      "duration": 0.1336,
      "velocity": 95,
      "chip": "ym2612"
    },
    {
      "channel": 0,
      "note": 63,
      "start": 32.7911,
      "duration": 0.1331,
      "velocity": 95,
      "chip": "ym2612"
    },
    {
      "channel": 1,
      "note": 56,
      "start": 32.7915,
      "duration": 0.3181,
      "velocity": 99,
      "chip": "ym2612"
    },
    {
      "channel": 2,
      "note": 63,
      "start": 32.792,
      "duration": 0.1323,
      "velocity": 95,
      "chip": "ym2612"
    },
    {
      "channel": 3,
      "note": 68,
      "start": 32.7924,
      "duration": 0.1318,
      "velocity": 95,
      "chip": "ym2612"
    },
    {
      "channel": 4,
      "note": 63,
      "start": 32.8924,
      "duration": 0.177,
      "velocity": 95,
      "chip": "ym2612"
    },
    {
      "channel": 5,
      "note": 68,
      "start": 32.9085,
      "duration": 0.1774,
      "velocity": 95,
      "chip": "ym2612"
    },
    {
      "channel": 0,
      "note": 68,
      "start": 32.9407,
      "duration": 0.177,
      "velocity": 95,
      "chip": "ym2612"
    },
    {
      "channel": 2,
      "note": 60,
      "start": 32.9412,
      "duration": 0.1766,
      "velocity": 95,
      "chip": "ym2612"
    },
    {
      "channel": 3,
      "note": 72,
      "start": 32.9417,
      "duration": 0.1762,
      "velocity": 95,
      "chip": "ym2612"
    },
    {
      "channel": 4,
      "note": 68,
      "start": 33.0859,
      "duration": 0.1553,
      "velocity": 95,
      "chip": "ym2612"
    },
    {
      "channel": 5,
      "note": 72,
      "start": 33.1021,
      "duration": 0.1557,
      "velocity": 95,
      "chip": "ym2612"
    },
    {
      "channel": 0,
      "note": 73,
      "start": 33.1343,
      "duration": 0.1553,
      "velocity": 95,
      "chip": "ym2612"
    },
    {
      "channel": 1,
      "note": 58,
      "start": 33.1347,
      "duration": 0.1549,
      "velocity": 99,
      "chip": "ym2612"
    },
    {
      "channel": 2,
      "note": 58,
      "start": 33.1352,
      "duration": 0.1545,
      "velocity": 95,
      "chip": "ym2612"
    },
    {
      "channel": 3,
      "note": 77,
      "start": 33.1356,
      "duration": 0.154,
      "velocity": 95,
      "chip": "ym2612"
    },
    {
      "channel": 4,
      "note": 73,
      "start": 33.2578,
      "duration": 0.177,
      "velocity": 95,
      "chip": "ym2612"
    },
    {
      "channel": 5,
      "note": 77,
      "start": 33.2739,
      "duration": 0.1774,
      "velocity": 95,
      "chip": "ym2612"
    },
    {
      "channel": 0,
      "note": 70,
      "start": 33.3061,
      "duration": 0.177,
      "velocity": 95,
      "chip": "ym2612"
    },
    {
      "channel": 1,
      "note": 58,
      "start": 33.3066,
      "duration": 0.1766,
      "velocity": 99,
      "chip": "ym2612"
    },
    {
      "channel": 2,
      "note": 58,
      "start": 33.307,
      "duration": 0.1761,
      "velocity": 95,
      "chip": "ym2612"
    },
    {
      "channel": 3,
      "note": 73,
      "start": 33.3075,
      "duration": 0.1757,
      "velocity": 95,
      "chip": "ym2612"
    },
    {
      "channel": 4,
      "note": 70,
      "start": 33.4513,
      "duration": 0.1591,
      "velocity": 95,
      "chip": "ym2612"
    },
    {
      "channel": 5,
      "note": 73,
      "start": 33.4674,
      "duration": 0.1596,
      "velocity": 95,
      "chip": "ym2612"
    },
    {
      "channel": 0,
      "note": 65,
      "start": 33.4996,
      "duration": 0.1595,
      "velocity": 95,
      "chip": "ym2612"
    },
    {
      "channel": 2,
      "note": 58,
      "start": 33.5001,
      "duration": 0.1591,
      "velocity": 95,
      "chip": "ym2612"
    },
    {
      "channel": 3,
      "note": 70,
      "start": 33.5005,
      "duration": 0.1587,
      "velocity": 95,
      "chip": "ym2612"
    },
    {
      "channel": 4,
      "note": 65,
      "start": 33.6269,
      "duration": 0.1349,
      "velocity": 95,
      "chip": "ym2612"
    },
    {
      "channel": 5,
      "note": 70,
      "start": 33.6431,
      "duration": 0.1353,
      "velocity": 95,
      "chip": "ym2612"
    },
    {
      "channel": 0,
      "note": 73,
      "start": 33.6754,
      "duration": 0.1348,
      "velocity": 95,
      "chip": "ym2612"
    },
    {
      "channel": 1,
      "note": 58,
      "start": 33.6758,
      "duration": 0.3071,
      "velocity": 99,
      "chip": "ym2612"
    },
    {
      "channel": 2,
      "note": 61,
      "start": 33.6763,
      "duration": 0.134,
      "velocity": 95,
      "chip": "ym2612"
    },
    {
      "channel": 3,
      "note": 77,
      "start": 33.6767,
      "duration": 0.1336,
      "velocity": 95,
      "chip": "ym2612"
    },
    {
      "channel": 4,
      "note": 73,
      "start": 33.7784,
      "duration": 0.1642,
      "velocity": 95,
      "chip": "ym2612"
    },
    {
      "channel": 5,
      "note": 77,
      "start": 33.7945,
      "duration": 0.1647,
      "velocity": 95,
      "chip": "ym2612"
    },
    {
      "channel": 0,
      "note": 70,
      "start": 33.8267,
      "duration": 0.1642,
      "velocity": 95,
      "chip": "ym2612"
    },
    {
      "channel": 2,
      "note": 58,
      "start": 33.8272,
      "duration": 0.1638,
      "velocity": 95,
      "chip": "ym2612"
    },
    {
      "channel": 3,
      "note": 73,
      "start": 33.8276,
      "duration": 0.1634,
      "velocity": 95,
      "chip": "ym2612"
    },
    {
      "channel": 4,
      "note": 70,
      "start": 33.9591,
      "duration": 0.1643,
      "velocity": 95,
      "chip": "ym2612"
    },
    {
      "channel": 5,
      "note": 73,
      "start": 33.9753,
      "duration": 0.1647,
      "velocity": 95,
      "chip": "ym2612"
    },
    {
      "channel": 0,
      "note": 65,
      "start": 34.0075,
      "duration": 0.1643,
      "velocity": 95,
      "chip": "ym2612"
    },
    {
      "channel": 1,
      "note": 58,
      "start": 34.008,
      "duration": 0.1639,
      "velocity": 99,
      "chip": "ym2612"
    },
    {
      "channel": 2,
      "note": 58,
      "start": 34.0084,
      "duration": 0.1634,
      "velocity": 95,
      "chip": "ym2612"
    },
    {
      "channel": 3,
      "note": 70,
      "start": 34.0088,
      "duration": 0.163,
      "velocity": 95,
      "chip": "ym2612"
    },
    {
      "channel": 4,
      "note": 65,
      "start": 34.14,
      "duration": 0.1332,
      "velocity": 95,
      "chip": "ym2612"
    },
    {
      "channel": 5,
      "note": 70,
      "start": 34.1561,
      "duration": 0.1336,
      "velocity": 95,
      "chip": "ym2612"
    },
    {
      "channel": 0,
      "note": 73,
      "start": 34.1883,
      "duration": 0.1332,
      "velocity": 95,
      "chip": "ym2612"
    },
    {
      "channel": 1,
      "note": 58,
      "start": 34.1888,
      "duration": 0.1328,
      "velocity": 99,
      "chip": "ym2612"
    },
    {
      "channel": 2,
      "note": 65,
      "start": 34.1892,
      "duration": 0.1323,
      "velocity": 95,
      "chip": "ym2612"
    },
    {
      "channel": 3,
      "note": 77,
      "start": 34.1897,
      "duration": 0.1319,
      "velocity": 95,
      "chip": "ym2612"
    },
    {
      "channel": 4,
      "note": 73,
      "start": 34.2897,
      "duration": 0.177,
      "velocity": 95,
      "chip": "ym2612"
    },
    {
      "channel": 5,
      "note": 77,
      "start": 34.3058,
      "duration": 0.1774,
      "velocity": 95,
      "chip": "ym2612"
    },
    {
      "channel": 0,
      "note": 70,
      "start": 34.338,
      "duration": 0.177,
      "velocity": 95,
      "chip": "ym2612"
    },
    {
      "channel": 1,
      "note": 58,
      "start": 34.3385,
      "duration": 0.1766,
      "velocity": 99,
      "chip": "ym2612"
    },
    {
      "channel": 2,
      "note": 61,
      "start": 34.3389,
      "duration": 0.1762,
      "velocity": 95,
      "chip": "ym2612"
    },
    {
      "channel": 3,
      "note": 73,
      "start": 34.3394,
      "duration": 0.1758,
      "velocity": 95,
      "chip": "ym2612"
    },
    {
      "channel": 4,
      "note": 70,
      "start": 34.4832,
      "duration": 0.1634,
      "velocity": 95,
      "chip": "ym2612"
    },
    {
      "channel": 5,
      "note": 73,
      "start": 34.4997,
      "duration": 0.1636,
      "velocity": 95,
      "chip": "ym2612"
    },
    {
      "channel": 0,
      "note": 65,
      "start": 34.5315,
      "duration": 0.1634,
      "velocity": 95,
      "chip": "ym2612"
    },
    {
      "channel": 2,
      "note": 58,
      "start": 34.532,
      "duration": 0.163,
      "velocity": 95,
      "chip": "ym2612"
    },
    {
      "channel": 3,
      "note": 70,
      "start": 34.5325,
      "duration": 0.1626,
      "velocity": 95,
      "chip": "ym2612"
    },
    {
      "channel": 4,
      "note": 65,
      "start": 34.6632,
      "duration": 0.1769,
      "velocity": 95,
      "chip": "ym2612"
    },
    {
      "channel": 5,
      "note": 70,
      "start": 34.6793,
      "duration": 0.1774,
      "velocity": 95,
      "chip": "ym2612"
    },
    {
      "channel": 0,
      "note": 73,
      "start": 34.7115,
      "duration": 0.177,
      "velocity": 95,
      "chip": "ym2612"
    },
    {
      "channel": 1,
      "note": 58,
      "start": 34.712,
      "duration": 0.3416,
      "velocity": 99,
      "chip": "ym2612"
    },
    {
      "channel": 2,
      "note": 58,
      "start": 34.7124,
      "duration": 0.1761,
      "velocity": 95,
      "chip": "ym2612"
    },
    {
      "channel": 3,
      "note": 77,
      "start": 34.7129,
      "duration": 0.1757,
      "velocity": 95,
      "chip": "ym2612"
    },
    {
      "channel": 4,
      "note": 73,
      "start": 34.8567,
      "duration": 0.1565,
      "velocity": 95,
      "chip": "ym2612"
    },
    {
      "channel": 5,
      "note": 77,
      "start": 34.8728,
      "duration": 0.157,
      "velocity": 95,
      "chip": "ym2612"
    },
    {
      "channel": 0,
      "note": 70,
      "start": 34.905,
      "duration": 0.1565,
      "velocity": 95,
      "chip": "ym2612"
    },
    {
      "channel": 2,
      "note": 58,
      "start": 34.9055,
      "duration": 0.1561,
      "velocity": 95,
      "chip": "ym2612"
    },
    {
      "channel": 3,
      "note": 73,
      "start": 34.9059,
      "duration": 0.1557,
      "velocity": 95,
      "chip": "ym2612"
    },
    {
      "channel": 4,
      "note": 70,
      "start": 35.0298,
      "duration": 0.1343,
      "velocity": 95,
      "chip": "ym2612"
    },
    {
      "channel": 5,
      "note": 73,
      "start": 35.0459,
      "duration": 0.1347,
      "velocity": 95,
      "chip": "ym2612"
    },
    {
      "channel": 0,
      "note": 65,
      "start": 35.0781,
      "duration": 0.1343,
      "velocity": 95,
      "chip": "ym2612"
    },
    {
      "channel": 1,
      "note": 58,
      "start": 35.0785,
      "duration": 0.1339,
      "velocity": 99,
      "chip": "ym2612"
    },
    {
      "channel": 2,
      "note": 61,
      "start": 35.079,
      "duration": 0.1334,
      "velocity": 95,
      "chip": "ym2612"
    },
    {
      "channel": 3,
      "note": 70,
      "start": 35.0795,
      "duration": 0.133,
      "velocity": 95,
      "chip": "ym2612"
    },
    {
      "channel": 4,
      "note": 65,
      "start": 35.1806,
      "duration": 0.1771,
      "velocity": 95,
      "chip": "ym2612"
    },
    {
      "channel": 5,
      "note": 70,
      "start": 35.1967,
      "duration": 0.1776,
      "velocity": 95,
      "chip": "ym2612"
    },
    {
      "channel": 0,
      "note": 73,
      "start": 35.2289,
      "duration": 0.2658,
      "velocity": 95,
      "chip": "ym2612"
    },
    {
      "channel": 1,
      "note": 58,
      "start": 35.2294,
      "duration": 0.2654,
      "velocity": 99,
      "chip": "ym2612"
    },
    {
      "channel": 2,
      "note": 65,
      "start": 35.2298,
      "duration": 0.265,
      "velocity": 95,
      "chip": "ym2612"
    },
    {
      "channel": 3,
      "note": 77,
      "start": 35.2303,
      "duration": 0.2646,
      "velocity": 95,
      "chip": "ym2612"
    },
    {
      "channel": 4,
      "note": 73,
      "start": 35.3742,
      "duration": 0.2659,
      "velocity": 95,
      "chip": "ym2612"
    },
    {
      "channel": 5,
      "note": 77,
      "start": 35.3903,
      "duration": 0.2663,
      "velocity": 95,
      "chip": "ym2612"
    },
    {
      "channel": 0,
      "note": 72,
      "start": 35.5113,
      "duration": 0.2658,
      "velocity": 95,
      "chip": "ym2612"
    },
    {
      "channel": 1,
      "note": 57,
      "start": 35.5118,
      "duration": 0.2654,
      "velocity": 99,
      "chip": "ym2612"
    },
    {
      "channel": 2,
      "note": 64,
      "start": 35.5122,
      "duration": 0.265,
      "velocity": 95,
      "chip": "ym2612"
    },
    {
      "channel": 3,
      "note": 76,
      "start": 35.5127,
      "duration": 0.2646,
      "velocity": 95,
      "chip": "ym2612"
    },
    {
      "channel": 4,
      "note": 72,
      "start": 35.6566,
      "duration": 0.2657,
      "velocity": 95,
      "chip": "ym2612"
    },
    {
      "channel": 5,
      "note": 76,
      "start": 35.6728,
      "duration": 0.2661,
      "velocity": 95,
      "chip": "ym2612"
    },
    {
      "channel": 0,
      "note": 71,
      "start": 35.7937,
      "duration": 0.2657,
      "velocity": 95,
      "chip": "ym2612"
    },
    {
      "channel": 1,
      "note": 56,
      "start": 35.7941,
      "duration": 0.2653,
      "velocity": 99,
      "chip": "ym2612"
    },
    {
      "channel": 2,
      "note": 63,
      "start": 35.7946,
      "duration": 0.2649,
      "velocity": 95,
      "chip": "ym2612"
    },
    {
      "channel": 3,
      "note": 75,
      "start": 35.795,
      "duration": 0.2645,
      "velocity": 95,
      "chip": "ym2612"
    },
    {
      "channel": 4,
      "note": 71,
      "start": 35.9389,
      "duration": 0.215,
      "velocity": 95,
      "chip": "ym2612"
    },
    {
      "channel": 5,
      "note": 75,
      "start": 35.955,
      "duration": 0.2164,
      "velocity": 95,
      "chip": "ym2612"
    },
    {
      "channel": 0,
      "note": 64,
      "start": 36.0768,
      "duration": 4.4217,
      "velocity": 95,
      "chip": "ym2612"
    },
    {
      "channel": 1,
      "note": 48,
      "start": 36.0782,
      "duration": 0.1078,
      "velocity": 99,
      "chip": "ym2612"
    },
    {
      "channel": 2,
      "note": 70,
      "start": 36.109,
      "duration": 4.3895,
      "velocity": 95,
      "chip": "ym2612"
    },
    {
      "channel": 3,
      "note": 75,
      "start": 36.1174,
      "duration": 4.3811,
      "velocity": 95,
      "chip": "ym2612"
    },
    {
      "channel": 4,
      "note": 64,
      "start": 36.1714,
      "duration": 4.3271,
      "velocity": 95,
      "chip": "ym2612"
    }
  ]
}