{
  "track_name": "08 - Wicked God's Banquet",
  "duration_sec": 79.683,
  "sample_rate": 44100,
  "note_count": 1327,
  "unique_pitches": 44,
  "pitch_range": 59,
  "avg_note_duration": 0.1441,
  "reconstruction_stats": {
    "notes_reconstructed": 1327,
    "keyon_events": 1327,
    "keyoff_events": 1262,
    "orphan_keyons": 2,
    "unique_pitches": 44,
    "pitch_range": 59,
    "avg_duration_sec": 0.1441
  },
  "metadata": {
    "source": "L\\LandStalker\\08 - Wicked God's Banquet.vgz"
  },
  "notes": [
    {
      "channel": 0,
      "note": 47,
      "start": 0.0515,
      "duration": 0.2233,
      "velocity": 102,
      "chip": "ym2612"
    },
    {
      "channel": 4,
      "note": 85,
      "start": 0.057,
      "duration": 0.2192,
      "velocity": 127,
      "chip": "ym2612"
    },
    {
      "channel": 0,
      "note": 47,
      "start": 0.275,
      "duration": 0.1429,
      "velocity": 102,
      "chip": "ym2612"
    },
    {
      "channel": 4,
      "note": 93,
      "start": 0.2765,
      "duration": 0.1429,
      "velocity": 127,
      "chip": "ym2612"
    },
    {
      "channel": 0,
      "note": 47,
      "start": 0.4181,
      "duration": 0.1416,
      "velocity": 102,
      "chip": "ym2612"
    },
    {
      "channel": 4,
      "note": 93,
      "start": 0.4197,
      "duration": 0.112,
      "velocity": 127,
      "chip": "ym2612"
    },
    {
      "channel": 4,
      "note": 93,
      "start": 0.5321,
      "duration": 0.1415,
      "velocity": 127,
      "chip": "ym2612"
    },
    {
      "channel": 0,
      "note": 47,
      "start": 0.56,
      "duration": 0.1404,
      "velocity": 102,
      "chip": "ym2612"
    },
    {
      "channel": 4,
      "note": 93,
      "start": 0.6739,
      "duration": 0.028,
      "velocity": 127,
      "chip": "ym2612"
    },
    {
      "channel": 0,
      "note": 47,
      "start": 0.7006,
      "duration": 0.2247,
      "velocity": 102,
      "chip": "ym2612"
    },
    {
      "channel": 4,
      "note": 93,
      "start": 0.7022,
      "duration": 0.2245,
      "velocity": 127,
      "chip": "ym2612"
    },
    {
      "channel": 0,
      "note": 47,
      "start": 0.9256,
      "duration": 0.1426,
      "velocity": 102,
      "chip": "ym2612"
    },
    {
      "channel": 4,
      "note": 93,
      "start": 0.9272,
      "duration": 0.1424,
      "velocity": 127,
      "chip": "ym2612"
    },
    {
      "channel": 0,
      "note": 40,
      "start": 1.0684,
      "duration": 0.1429,
      "velocity": 102,
      "chip": "ym2612"
    },
    {
      "channel": 4,
      "note": 93,
      "start": 1.07,
      "duration": 0.112,
      "velocity": 127,
      "chip": "ym2612"
    },
    {
      "channel": 4,
      "note": 93,
      "start": 1.1822,
      "duration": 0.1436,
      "velocity": 127,
      "chip": "ym2612"
    },
    {
      "channel": 0,
      "note": 42,
      "start": 1.2115,
      "duration": 0.1122,
      "velocity": 102,
      "chip": "ym2612"
    },
    {
      "channel": 0,
      "note": 47,
      "start": 1.3242,
      "duration": 0.2249,
      "velocity": 102,
      "chip": "ym2612"
    },
    {
      "channel": 4,
      "note": 93,
      "start": 1.3263,
      "duration": 0.2243,
      "velocity": 127,
      "chip": "ym2612"
    },
    {
      "channel": 0,
      "note": 47,
      "start": 1.5493,
      "duration": 0.1423,
      "velocity": 102,
      "chip": "ym2612"
    },
    {
      "channel": 4,
      "note": 93,
      "start": 1.551,
      "duration": 0.1422,
      "velocity": 127,
      "chip": "ym2612"
    },
    {
      "channel": 0,
      "note": 47,
      "start": 1.6919,
      "duration": 0.1414,
      "velocity": 102,
      "chip": "ym2612"
    },
    {
      "channel": 4,
      "note": 93,
      "start": 1.6935,
      "duration": 0.1118,
      "velocity": 127,
      "chip": "ym2612"
    },
    {
      "channel": 4,
      "note": 93,
      "start": 1.8056,
      "duration": 0.1412,
      "velocity": 127,
      "chip": "ym2612"
    },
    {
      "channel": 0,
      "note": 47,
      "start": 1.8334,
      "duration": 0.1401,
      "velocity": 102,
      "chip": "ym2612"
    },
    {
      "channel": 4,
      "note": 93,
      "start": 1.9472,
      "duration": 0.0279,
      "velocity": 127,
      "chip": "ym2612"
    },
    {
      "channel": 0,
      "note": 47,
      "start": 1.9738,
      "duration": 0.2249,
      "velocity": 102,
      "chip": "ym2612"
    },
    {
      "channel": 4,
      "note": 93,
      "start": 1.9754,
      "duration": 0.2249,
      "velocity": 127,
      "chip": "ym2612"
    },
    {
      "channel": 0,
      "note": 47,
      "start": 2.199,
      "duration": 0.1428,
      "velocity": 102,
      "chip": "ym2612"
    },
    {
      "channel": 4,
      "note": 93,
      "start": 2.2006,
      "duration": 0.1427,
      "velocity": 127,
      "chip": "ym2612"
    },
    {
      "channel": 0,
      "note": 40,
      "start": 2.3421,
      "duration": 0.143,
      "velocity": 102,
      "chip": "ym2612"
    },
    {
      "channel": 4,
      "note": 93,
      "start": 2.3438,
      "duration": 0.1116,
      "velocity": 127,
      "chip": "ym2612"
    },
    {
      "channel": 4,
      "note": 93,
      "start": 2.4558,
      "duration": 0.1482,
      "velocity": 127,
      "chip": "ym2612"
    },
    {
      "channel": 0,
      "note": 42,
      "start": 2.4853,
      "duration": 0.1125,
      "velocity": 102,
      "chip": "ym2612"
    },
    {
      "channel": 0,
      "note": 47,
      "start": 2.5981,
      "duration": 0.2251,
      "velocity": 102,
      "chip": "ym2612"
    },
    {
      "channel": 1,
      "note": 86,
      "start": 2.6008,
      "duration": 0.0144,
      "velocity": 99,
      "chip": "ym2612"
    },
    {
      "channel": 4,
      "note": 93,
      "start": 2.6044,
      "duration": 0.2207,
      "velocity": 127,
      "chip": "ym2612"
    },
    {
      "channel": 2,
      "note": 81,
      "start": 2.6112,
      "duration": 0.0156,
      "velocity": 99,
      "chip": "ym2612"
    },
    {
      "channel": 1,
      "note": 86,
      "start": 2.6176,
      "duration": 0.0722,
      "velocity": 99,
      "chip": "ym2612"
    },
    {
      "channel": 2,
      "note": 81,
      "start": 2.6481,
      "duration": 0.0677,
      "velocity": 99,
      "chip": "ym2612"
    },
    {
      "channel": 1,
      "note": 86,
      "start": 2.7111,
      "duration": 0.0114,
      "velocity": 99,
      "chip": "ym2612"
    },
    {
      "channel": 2,
      "note": 81,
      "start": 2.7184,
      "duration": 0.0212,
      "velocity": 99,
      "chip": "ym2612"
    },
    {
      "channel": 1,
      "note": 86,
      "start": 2.7251,
      "duration": 0.0775,
      "velocity": 99,
      "chip": "ym2612"
    },
    {
      "channel": 2,
      "note": 81,
      "start": 2.761,
      "duration": 0.0685,
      "velocity": 99,
      "chip": "ym2612"
    },
    {
      "channel": 0,
      "note": 47,
      "start": 2.8235,
      "duration": 0.1425,
      "velocity": 102,
      "chip": "ym2612"
    },
    {
      "channel": 1,
      "note": 86,
      "start": 2.8242,
      "duration": 0.0118,
      "velocity": 99,
      "chip": "ym2612"
    },
    {
      "channel": 4,
      "note": 93,
      "start": 2.8255,
      "duration": 0.1425,
      "velocity": 127,
      "chip": "ym2612"
    },
    {
      "channel": 2,
      "note": 81,
      "start": 2.832,
      "duration": 0.0118,
      "velocity": 99,
      "chip": "ym2612"
    },
    {
      "channel": 1,
      "note": 86,
      "start": 2.839,
      "duration": 0.0115,
      "velocity": 99,
      "chip": "ym2612"
    },
    {
      "channel": 2,
      "note": 81,
      "start": 2.8463,
      "duration": 0.021,
      "velocity": 99,
      "chip": "ym2612"
    },
    {
      "channel": 1,
      "note": 86,
      "start": 2.8529,
      "duration": 0.0775,
      "velocity": 99,
      "chip": "ym2612"
    },
    {
      "channel": 2,
      "note": 81,
      "start": 2.8888,
      "duration": 0.068,
      "velocity": 99,
      "chip": "ym2612"
    },
    {
      "channel": 1,
      "note": 86,
      "start": 2.9518,
      "duration": 0.0118,
      "velocity": 99,
      "chip": "ym2612"
    },
    {
      "channel": 2,
      "note": 81,
      "start": 2.9595,
      "duration": 0.0128,
      "velocity": 99,
      "chip": "ym2612"
    },
    {
      "channel": 0,
      "note": 47,
      "start": 2.9663,
      "duration": 0.1417,
      "velocity": 102,
      "chip": "ym2612"
    },
    {
      "channel": 1,
      "note": 86,
      "start": 2.967,
      "duration": 0.0118,
      "velocity": 99,
      "chip": "ym2612"
    },
    {
      "channel": 4,
      "note": 93,
      "start": 2.9684,
      "duration": 0.112,
      "velocity": 127,
      "chip": "ym2612"
    },
    {
      "channel": 2,
      "note": 81,
      "start": 2.9748,
      "duration": 0.0203,
      "velocity": 99,
      "chip": "ym2612"
    },
    {
      "channel": 1,
      "note": 86,
      "start": 2.9814,
      "duration": 0.0767,
      "velocity": 99,
      "chip": "ym2612"
    },
    {
      "channel": 2,
      "note": 81,
      "start": 3.0165,
      "duration": 0.0684,
      "velocity": 99,
      "chip": "ym2612"
    },
    {
      "channel": 1,
      "note": 86,
      "start": 3.0794,
      "duration": 0.0122,
      "velocity": 99,
      "chip": "ym2612"
    },
    {
      "channel": 4,
      "note": 93,
      "start": 3.0807,
      "duration": 0.1418,
      "velocity": 127,
      "chip": "ym2612"
    },
    {
      "channel": 2,
      "note": 81,
      "start": 3.0873,
      "duration": 0.0116,
      "velocity": 99,
      "chip": "ym2612"
    },
    {
      "channel": 1,
      "note": 86,
      "start": 3.0942,
      "duration": 0.0114,
      "velocity": 99,
      "chip": "ym2612"
    },
    {
      "channel": 2,
      "note": 81,
      "start": 3.1015,
      "duration": 0.0125,
      "velocity": 99,
      "chip": "ym2612"
    },
    {
      "channel": 0,
      "note": 47,
      "start": 3.1083,
      "duration": 0.1419,
      "velocity": 102,
      "chip": "ym2612"
    },
    {
      "channel": 1,
      "note": 86,
      "start": 3.109,
      "duration": 0.0115,
      "velocity": 99,
      "chip": "ym2612"
    },
    {
      "channel": 2,
      "note": 81,
      "start": 3.1165,
      "duration": 0.0207,
      "velocity": 99,
      "chip": "ym2612"
    },
    {
      "channel": 1,
      "note": 86,
      "start": 3.1232,
      "duration": 0.0769,
      "velocity": 99,
      "chip": "ym2612"
    },
    {
      "channel": 2,
      "note": 81,
      "start": 3.1585,
      "duration": 0.0683,
      "velocity": 99,
      "chip": "ym2612"
    },
    {
      "channel": 1,
      "note": 86,
      "start": 3.2215,
      "duration": 0.012,
      "velocity": 99,
      "chip": "ym2612"
    },
    {
      "channel": 4,
      "note": 93,
      "start": 3.2228,
      "duration": 0.0293,
      "velocity": 127,
      "chip": "ym2612"
    },
    {
      "channel": 2,
      "note": 81,
      "start": 3.2293,
      "duration": 0.0115,
      "velocity": 99,
      "chip": "ym2612"
    },
    {
      "channel": 1,
      "note": 86,
      "start": 3.2362,
      "duration": 0.0115,
      "velocity": 99,
      "chip": "ym2612"
    },
    {
      "channel": 2,
      "note": 81,
      "start": 3.2434,
      "duration": 0.0131,
      "velocity": 99,
      "chip": "ym2612"
    },
    {
      "channel": 0,
      "note": 47,
      "start": 3.2505,
      "duration": 0.2248,
      "velocity": 102,
      "chip": "ym2612"
    },
    {
      "channel": 1,
      "note": 86,
      "start": 3.2512,
      "duration": 0.0117,
      "velocity": 99,
      "chip": "ym2612"
    },
    {
      "channel": 4,
      "note": 93,
      "start": 3.2524,
      "duration": 0.2249,
      "velocity": 127,
      "chip": "ym2612"
    },
    {
      "channel": 2,
      "note": 81,
      "start": 3.2588,
      "duration": 0.0199,
      "velocity": 99,
      "chip": "ym2612"
    },
    {
      "channel": 1,
      "note": 86,
      "start": 3.2654,
      "duration": 0.0763,
      "velocity": 99,
      "chip": "ym2612"
    },
    {
      "channel": 2,
      "note": 81,
      "start": 3.3001,
      "duration": 0.0418,
      "velocity": 99,
      "chip": "ym2612"
    },
    {
      "channel": 1,
      "note": 84,
      "start": 3.3631,
      "duration": 0.0114,
      "velocity": 99,
      "chip": "ym2612"
    },
    {
      "channel": 2,
      "note": 79,
      "start": 3.3636,
      "duration": 0.0111,
      "velocity": 99,
      "chip": "ym2612"
    },
    {
      "channel": 1,
      "note": 81,
      "start": 3.3771,
      "duration": 0.0774,
      "velocity": 99,
      "chip": "ym2612"
    },
    {
      "channel": 2,
      "note": 76,
      "start": 3.3776,
      "duration": 0.0772,
      "velocity": 99,
      "chip": "ym2612"
    },
    {
      "channel": 0,
      "note": 47,
      "start": 3.4755,
      "duration": 0.1425,
      "velocity": 102,
      "chip": "ym2612"
    },
    {
      "channel": 1,
      "note": 79,
      "start": 3.476,
      "duration": 0.0117,
      "velocity": 99,
      "chip": "ym2612"
    },
    {
      "channel": 2,
      "note": 74,
      "start": 3.4766,
      "duration": 0.0115,
      "velocity": 99,
      "chip": "ym2612"
    },
    {
      "channel": 4,
      "note": 93,
      "start": 3.4777,
      "duration": 0.1423,
      "velocity": 127,
      "chip": "ym2612"
    },
    {
      "channel": 1,
      "note": 76,
      "start": 3.4907,
      "duration": 0.0112,
      "velocity": 99,
      "chip": "ym2612"
    },
    {
      "channel": 2,
      "note": 71,
      "start": 3.4912,
      "duration": 0.011,
      "velocity": 99,
      "chip": "ym2612"
    },
    {
      "channel": 1,
      "note": 73,
      "start": 3.5043,
      "duration": 0.0778,
      "velocity": 99,
      "chip": "ym2612"
    },
    {
      "channel": 2,
      "note": 68,
      "start": 3.5048,
      "duration": 0.0776,
      "velocity": 99,
      "chip": "ym2612"
    },
    {
      "channel": 1,
      "note": 70,
      "start": 3.6034,
      "duration": 0.0116,
      "velocity": 99,
      "chip": "ym2612"
    },
    {
      "channel": 2,
      "note": 65,
      "start": 3.6039,
      "duration": 0.0115,
      "velocity": 99,
      "chip": "ym2612"
    },
    {
      "channel": 0,
      "note": 40,
      "start": 3.6181,
      "duration": 0.1408,
      "velocity": 102,
      "chip": "ym2612"
    },
    {
      "channel": 1,
      "note": 67,
      "start": 3.6187,
      "duration": 0.0115,
      "velocity": 99,
      "chip": "ym2612"
    },
    {
      "channel": 2,
      "note": 62,
      "start": 3.6192,
      "duration": 0.0113,
      "velocity": 99,
      "chip": "ym2612"
    },
    {
      "channel": 4,
      "note": 93,
      "start": 3.6203,
      "duration": 0.112,
      "velocity": 127,
      "chip": "ym2612"
    },
    {
      "channel": 1,
      "note": 67,
      "start": 3.731,
      "duration": 0.0119,
      "velocity": 99,
      "chip": "ym2612"
    },
    {
      "channel": 2,
      "note": 62,
      "start": 3.7315,
      "duration": 0.0116,
      "velocity": 99,
      "chip": "ym2612"
    },
    {
      "channel": 4,
      "note": 93,
      "start": 3.7326,
      "duration": 0.1469,
      "velocity": 127,
      "chip": "ym2612"
    },
    {
      "channel": 0,
      "note": 42,
      "start": 3.7592,
      "duration": 0.1123,
      "velocity": 102,
      "chip": "ym2612"
    },
    {
      "channel": 0,
      "note": 47,
      "start": 3.8718,
      "duration": 0.2247,
      "velocity": 102,
      "chip": "ym2612"
    },
    {
      "channel": 2,
      "note": 68,
      "start": 3.8745,
      "duration": 0.0004,
      "velocity": 104,
      "chip": "ym2612"
    },
    {
      "channel": 2,
      "note": 69,
      "start": 3.8749,
      "duration": 0.0885,
      "velocity": 104,
      "chip": "ym2612"
    },
    {
      "channel": 3,
      "note": 53,
      "start": 3.8785,
      "duration": 0.0004,
      "velocity": 104,
      "chip": "ym2612"
    },
    {
      "channel": 3,
      "note": 53,
      "start": 3.8789,
      "duration": 0.0848,
      "velocity": 104,
      "chip": "ym2612"
    },
    {
      "channel": 4,
      "note": 93,
      "start": 3.8965,
      "duration": 0.0005,
      "velocity": 104,
      "chip": "ym2612"
    },
    {
      "channel": 4,
      "note": 93,
      "start": 3.897,
      "duration": 0.1013,
      "velocity": 104,
      "chip": "ym2612"
    },
    {
      "channel": 2,
      "note": 68,
      "start": 3.9848,
      "duration": 0.0003,
      "velocity": 104,
      "chip": "ym2612"
    },
    {
      "channel": 2,
      "note": 69,
      "start": 3.9851,
      "duration": 0.3921,
      "velocity": 104,
      "chip": "ym2612"
    },
    {
      "channel": 3,
      "note": 74,
      "start": 3.986,
      "duration": 0.0005,
      "velocity": 104,
      "chip": "ym2612"
    },
    {
      "channel": 3,
      "note": 74,
      "start": 3.9865,
      "duration": 0.3912,
      "velocity": 104,
      "chip": "ym2612"
    },
    {
      "channel": 4,
      "note": 74,
      "start": 4.0008,
      "duration": 0.0005,
      "velocity": 104,
      "chip": "ym2612"
    },
    {
      "channel": 4,
      "note": 74,
      "start": 4.0012,
      "duration": 0.3909,
      "velocity": 104,
      "chip": "ym2612"
    },
    {
      "channel": 0,
      "note": 47,
      "start": 4.0968,
      "duration": 0.141,
      "velocity": 102,
      "chip": "ym2612"
    },
    {
      "channel": 0,
      "note": 47,
      "start": 4.238,
      "duration": 0.1417,
      "velocity": 102,
      "chip": "ym2612"
    },
    {
      "channel": 0,
      "note": 47,
      "start": 4.3799,
      "duration": 0.1416,
      "velocity": 102,
      "chip": "ym2612"
    },
    {
      "channel": 2,
      "note": 69,
      "start": 4.4928,
      "duration": 0.0262,
      "velocity": 104,
      "chip": "ym2612"
    },
    {
      "channel": 3,
      "note": 73,
      "start": 4.4937,
      "duration": 0.0257,
      "velocity": 104,
      "chip": "ym2612"
    },
    {
      "channel": 4,
      "note": 73,
      "start": 4.5084,
      "duration": 0.0271,
      "velocity": 104,
      "chip": "ym2612"
    },
    {
      "channel": 0,
      "note": 47,
      "start": 4.5217,
      "duration": 0.2251,
      "velocity": 102,
      "chip": "ym2612"
    },
    {
      "channel": 2,
      "note": 72,
      "start": 4.5225,
      "duration": 0.0912,
      "velocity": 104,
      "chip": "ym2612"
    },
    {
      "channel": 3,
      "note": 74,
      "start": 4.5234,
      "duration": 0.0907,
      "velocity": 104,
      "chip": "ym2612"
    },
    {
      "channel": 4,
      "note": 74,
      "start": 4.5378,
      "duration": 0.1099,
      "velocity": 104,
      "chip": "ym2612"
    },
    {
      "channel": 2,
      "note": 69,
      "start": 4.6349,
      "duration": 0.3934,
      "velocity": 104,
      "chip": "ym2612"
    },
    {
      "channel": 3,
      "note": 77,
      "start": 4.6356,
      "duration": 0.3931,
      "velocity": 104,
      "chip": "ym2612"
    },
    {
      "channel": 4,
      "note": 77,
      "start": 4.6501,
      "duration": 0.3937,
      "velocity": 104,
      "chip": "ym2612"
    },
    {
      "channel": 0,
      "note": 47,
      "start": 4.7471,
      "duration": 0.1412,
      "velocity": 102,
      "chip": "ym2612"
    },
    {
      "channel": 0,
      "note": 40,
      "start": 4.8886,
      "duration": 0.1427,
      "velocity": 102,
      "chip": "ym2612"
    },
    {
      "channel": 0,
      "note": 42,
      "start": 5.0315,
      "duration": 0.1124,
      "velocity": 102,
      "chip": "ym2612"
    },
    {
      "channel": 0,
      "note": 47,
      "start": 5.1443,
      "duration": 0.2248,
      "velocity": 102,
      "chip": "ym2612"
    },
    {
      "channel": 1,
      "note": 86,
      "start": 5.145,
      "duration": 0.0162,
      "velocity": 99,
      "chip": "ym2612"
    },
    {
      "channel": 4,
      "note": 73,
      "start": 5.149,
      "duration": 0.222,
      "velocity": 127,
      "chip": "ym2612"
    },
    {
      "channel": 2,
      "note": 81,
      "start": 5.1572,
      "duration": 0.0154,
      "velocity": 99,
      "chip": "ym2612"
    },
    {
      "channel": 1,
      "note": 86,
      "start": 5.1636,
      "duration": 0.072,
      "velocity": 99,
      "chip": "ym2612"
    },
    {
      "channel": 2,
      "note": 81,
      "start": 5.194,
      "duration": 0.0678,
      "velocity": 99,
      "chip": "ym2612"
    },
    {
      "channel": 1,
      "note": 86,
      "start": 5.257,
      "duration": 0.0114,
      "velocity": 99,
      "chip": "ym2612"
    },
    {
      "channel": 2,
      "note": 81,
      "start": 5.2642,
      "duration": 0.0211,
      "velocity": 99,
      "chip": "ym2612"
    },
    {
      "channel": 1,
      "note": 86,
      "start": 5.2709,
      "duration": 0.0774,
      "velocity": 99,
      "chip": "ym2612"
    },
    {
      "channel": 2,
      "note": 81,
      "start": 5.3068,
      "duration": 0.0687,
      "velocity": 99,
      "chip": "ym2612"
    },
    {
      "channel": 0,
      "note": 47,
      "start": 5.3693,
      "duration": 0.1425,
      "velocity": 102,
      "chip": "ym2612"
    },
    {
      "channel": 1,
      "note": 86,
      "start": 5.37,
      "duration": 0.0121,
      "velocity": 99,
      "chip": "ym2612"
    },
    {
      "channel": 4,
      "note": 93,
      "start": 5.3714,
      "duration": 0.1425,
      "velocity": 127,
      "chip": "ym2612"
    },
    {
      "channel": 2,
      "note": 81,
      "start": 5.378,
      "duration": 0.0117,
      "velocity": 99,
      "chip": "ym2612"
    },
    {
      "channel": 1,
      "note": 86,
      "start": 5.3847,
      "duration": 0.0117,
      "velocity": 99,
      "chip": "ym2612"
    },
    {
      "channel": 2,
      "note": 81,
      "start": 5.3923,
      "duration": 0.0207,
      "velocity": 99,
      "chip": "ym2612"
    },
    {
      "channel": 1,
      "note": 86,
      "start": 5.399,
      "duration": 0.0772,
      "velocity": 99,
      "chip": "ym2612"
    },
    {
      "channel": 2,
      "note": 81,
      "start": 5.4345,
      "duration": 0.0681,
      "velocity": 99,
      "chip": "ym2612"
    },
    {
      "channel": 1,
      "note": 86,
      "start": 5.4975,
      "duration": 0.0121,
      "velocity": 99,
      "chip": "ym2612"
    },
    {
      "channel": 2,
      "note": 81,
      "start": 5.5053,
      "duration": 0.0129,
      "velocity": 99,
      "chip": "ym2612"
    },
    {
      "channel": 0,
      "note": 47,
      "start": 5.512,
      "duration": 0.142,
      "velocity": 102,
      "chip": "ym2612"
    },
    {
      "channel": 1,
      "note": 86,
      "start": 5.5127,
      "duration": 0.0121,
      "velocity": 99,
      "chip": "ym2612"
    },
    {
      "channel": 4,
      "note": 93,
      "start": 5.5141,
      "duration": 0.112,
      "velocity": 127,
      "chip": "ym2612"
    },
    {
      "channel": 2,
      "note": 81,
      "start": 5.5207,
      "duration": 0.02,
      "velocity": 99,
      "chip": "ym2612"
    },
    {
      "channel": 1,
      "note": 86,
      "start": 5.5274,
      "duration": 0.0763,
      "velocity": 99,
      "chip": "ym2612"
    },
    {
      "channel": 2,
      "note": 81,
      "start": 5.5622,
      "duration": 0.0684,
      "velocity": 99,
      "chip": "ym2612"
    },
    {
      "channel": 1,
      "note": 86,
      "start": 5.6251,
      "duration": 0.0124,
      "velocity": 99,
      "chip": "ym2612"
    },
    {
      "channel": 4,
      "note": 93,
      "start": 5.6264,
      "duration": 0.1417,
      "velocity": 127,
      "chip": "ym2612"
    },
    {
      "channel": 2,
      "note": 81,
      "start": 5.6331,
      "duration": 0.0121,
      "velocity": 99,
      "chip": "ym2612"
    },
    {
      "channel": 1,
      "note": 86,
      "start": 5.6402,
      "duration": 0.012,
      "velocity": 99,
      "chip": "ym2612"
    },
    {
      "channel": 2,
      "note": 81,
      "start": 5.6479,
      "duration": 0.0121,
      "velocity": 99,
      "chip": "ym2612"
    },
    {
      "channel": 0,
      "note": 47,
      "start": 5.6543,
      "duration": 0.1415,
      "velocity": 102,
      "chip": "ym2612"
    },
    {
      "channel": 1,
      "note": 86,
      "start": 5.655,
      "duration": 0.0116,
      "velocity": 99,
      "chip": "ym2612"
    },
    {
      "channel": 2,
      "note": 81,
      "start": 5.6626,
      "duration": 0.0202,
      "velocity": 99,
      "chip": "ym2612"
    },
    {
      "channel": 1,
      "note": 86,
      "start": 5.6691,
      "duration": 0.0766,
      "velocity": 99,
      "chip": "ym2612"
    },
    {
      "channel": 2,
      "note": 81,
      "start": 5.7042,
      "duration": 0.0686,
      "velocity": 99,
      "chip": "ym2612"
    },
    {
      "channel": 1,
      "note": 86,
      "start": 5.7672,
      "duration": 0.0124,
      "velocity": 99,
      "chip": "ym2612"
    },
    {
      "channel": 4,
      "note": 93,
      "start": 5.7685,
      "duration": 0.0293,
      "velocity": 127,
      "chip": "ym2612"
    },
    {
      "channel": 2,
      "note": 81,
      "start": 5.7753,
      "duration": 0.0117,
      "velocity": 99,
      "chip": "ym2612"
    },
    {
      "channel": 1,
      "note": 86,
      "start": 5.7822,
      "duration": 0.0117,
      "velocity": 99,
      "chip": "ym2612"
    },
    {
      "channel": 2,
      "note": 81,
      "start": 5.7896,
      "duration": 0.0127,
      "velocity": 99,
      "chip": "ym2612"
    },
    {
      "channel": 0,
      "note": 47,
      "start": 5.7961,
      "duration": 0.2248,
      "velocity": 102,
      "chip": "ym2612"
    },
    {
      "channel": 1,
      "note": 86,
      "start": 5.7968,
      "duration": 0.012,
      "velocity": 99,
      "chip": "ym2612"
    },
    {
      "channel": 4,
      "note": 93,
      "start": 5.7981,
      "duration": 0.2249,
      "velocity": 127,
      "chip": "ym2612"
    },
    {
      "channel": 2,
      "note": 81,
      "start": 5.8048,
      "duration": 0.0199,
      "velocity": 99,
      "chip": "ym2612"
    },
    {
      "channel": 1,
      "note": 86,
      "start": 5.8114,
      "duration": 0.0763,
      "velocity": 99,
      "chip": "ym2612"
    },
    {
      "channel": 2,
      "note": 81,
      "start": 5.8461,
      "duration": 0.0418,
      "velocity": 99,
      "chip": "ym2612"
    },
    {
      "channel": 1,
      "note": 84,
      "start": 5.9091,
      "duration": 0.0115,
      "velocity": 99,
      "chip": "ym2612"
    },
    {
      "channel": 2,
      "note": 79,
      "start": 5.9096,
      "duration": 0.0112,
      "velocity": 99,
      "chip": "ym2612"
    },
    {
      "channel": 1,
      "note": 81,
      "start": 5.923,
      "duration": 0.0772,
      "velocity": 99,
      "chip": "ym2612"
    },
    {
      "channel": 2,
      "note": 76,
      "start": 5.9236,
      "duration": 0.0769,
      "velocity": 99,
      "chip": "ym2612"
    },
    {
      "channel": 0,
      "note": 47,
      "start": 6.0212,
      "duration": 0.1427,
      "velocity": 102,
      "chip": "ym2612"
    },
    {
      "channel": 1,
      "note": 79,
      "start": 6.0217,
      "duration": 0.0122,
      "velocity": 99,
      "chip": "ym2612"
    },
    {
      "channel": 2,
      "note": 74,
      "start": 6.0223,
      "duration": 0.0119,
      "velocity": 99,
      "chip": "ym2612"
    },
    {
      "channel": 4,
      "note": 93,
      "start": 6.0234,
      "duration": 0.1425,
      "velocity": 127,
      "chip": "ym2612"
    },
    {
      "channel": 1,
      "note": 76,
      "start": 6.0366,
      "duration": 0.0114,
      "velocity": 99,
      "chip": "ym2612"
    },
    {
      "channel": 2,
      "note": 71,
      "start": 6.0371,
      "duration": 0.0111,
      "velocity": 99,
      "chip": "ym2612"
    },
    {
      "channel": 1,
      "note": 73,
      "start": 6.0504,
      "duration": 0.0776,
      "velocity": 99,
      "chip": "ym2612"
    },
    {
      "channel": 2,
      "note": 68,
      "start": 6.051,
      "duration": 0.0772,
      "velocity": 99,
      "chip": "ym2612"
    },
    {
      "channel": 1,
      "note": 77,
      "start": 6.1492,
      "duration": 0.0121,
      "velocity": 99,
      "chip": "ym2612"
    },
    {
      "channel": 2,
      "note": 72,
      "start": 6.1498,
      "duration": 0.0118,
      "velocity": 99,
      "chip": "ym2612"
    },
    {
      "channel": 0,
      "note": 40,
      "start": 6.1641,
      "duration": 0.1448,
      "velocity": 102,
      "chip": "ym2612"
    },
    {
      "channel": 1,
      "note": 83,
      "start": 6.1646,
      "duration": 0.0119,
      "velocity": 99,
      "chip": "ym2612"
    },
    {
      "channel": 2,
      "note": 78,
      "start": 6.1651,
      "duration": 0.0116,
      "velocity": 99,
      "chip": "ym2612"
    },
    {
      "channel": 4,
      "note": 93,
      "start": 6.1662,
      "duration": 0.112,
      "velocity": 127,
      "chip": "ym2612"
    },
    {
      "channel": 1,
      "note": 83,
      "start": 6.277,
      "duration": 0.0121,
      "velocity": 99,
      "chip": "ym2612"
    },
    {
      "channel": 2,
      "note": 78,
      "start": 6.2775,
      "duration": 0.0119,
      "velocity": 99,
      "chip": "ym2612"
    },
    {
      "channel": 4,
      "note": 93,
      "start": 6.2786,
      "duration": 0.1483,
      "velocity": 127,
      "chip": "ym2612"
    },
    {
      "channel": 0,
      "note": 42,
      "start": 6.3091,
      "duration": 0.1124,
      "velocity": 102,
      "chip": "ym2612"
    },
    {
      "channel": 0,
      "note": 47,
      "start": 6.4219,
      "duration": 0.2249,
      "velocity": 102,
      "chip": "ym2612"
    },
    {
      "channel": 2,
      "note": 68,
      "start": 6.4246,
      "duration": 0.0004,
      "velocity": 104,
      "chip": "ym2612"
    },
    {
      "channel": 2,
      "note": 69,
      "start": 6.425,
      "duration": 0.0886,
      "velocity": 104,
      "chip": "ym2612"
    },
    {
      "channel": 3,
      "note": 64,
      "start": 6.4259,
      "duration": 0.0005,
      "velocity": 104,
      "chip": "ym2612"
    },
    {
      "channel": 3,
      "note": 64,
      "start": 6.4264,
      "duration": 0.0876,
      "velocity": 104,
      "chip": "ym2612"
    },
    {
      "channel": 4,
      "note": 93,
      "start": 6.4438,
      "duration": 0.0005,
      "velocity": 104,
      "chip": "ym2612"
    },
    {
      "channel": 4,
      "note": 93,
      "start": 6.4443,
      "duration": 0.1042,
      "velocity": 104,
      "chip": "ym2612"
    },
    {
      "channel": 2,
      "note": 68,
      "start": 6.535,
      "duration": 0.0004,
      "velocity": 104,
      "chip": "ym2612"
    },
    {
      "channel": 2,
      "note": 69,
      "start": 6.5354,
      "duration": 0.3922,
      "velocity": 104,
      "chip": "ym2612"
    },
    {
      "channel": 3,
      "note": 74,
      "start": 6.5362,
      "duration": 0.0005,
      "velocity": 104,
      "chip": "ym2612"
    },
    {
      "channel": 3,
      "note": 74,
      "start": 6.5367,
      "duration": 0.3913,
      "velocity": 104,
      "chip": "ym2612"
    },
    {
      "channel": 4,
      "note": 74,
      "start": 6.551,
      "duration": 0.0005,
      "velocity": 104,
      "chip": "ym2612"
    },
    {
      "channel": 4,
      "note": 74,
      "start": 6.5515,
      "duration": 0.3912,
      "velocity": 104,
      "chip": "ym2612"
    },
    {
      "channel": 0,
      "note": 47,
      "start": 6.6471,
      "duration": 0.1412,
      "velocity": 102,
      "chip": "ym2612"
    },
    {
      "channel": 0,
      "note": 47,
      "start": 6.7885,
      "duration": 0.1415,
      "velocity": 102,
      "chip": "ym2612"
    },
    {
      "channel": 0,
      "note": 47,
      "start": 6.9304,
      "duration": 0.1416,
      "velocity": 102,
      "chip": "ym2612"
    },
    {
      "channel": 2,
      "note": 69,
      "start": 7.0434,
      "duration": 0.0261,
      "velocity": 104,
      "chip": "ym2612"
    },
    {
      "channel": 3,
      "note": 73,
      "start": 7.0441,
      "duration": 0.0256,
      "velocity": 104,
      "chip": "ym2612"
    },
    {
      "channel": 4,
      "note": 73,
      "start": 7.0588,
      "duration": 0.0272,
      "velocity": 104,
      "chip": "ym2612"
    },
    {
      "channel": 0,
      "note": 47,
      "start": 7.0722,
      "duration": 0.2252,
      "velocity": 102,
      "chip": "ym2612"
    },
    {
      "channel": 2,
      "note": 72,
      "start": 7.073,
      "duration": 0.0911,
      "velocity": 104,
      "chip": "ym2612"
    },
    {
      "channel": 3,
      "note": 74,
      "start": 7.0739,
      "duration": 0.0906,
      "velocity": 104,
      "chip": "ym2612"
    },
    {
      "channel": 4,
      "note": 74,
      "start": 7.0883,
      "duration": 0.1099,
      "velocity": 104,
      "chip": "ym2612"
    },
    {
      "channel": 2,
      "note": 75,
      "start": 7.1854,
      "duration": 0.393,
      "velocity": 104,
      "chip": "ym2612"
    },
    {
      "channel": 3,
      "note": 77,
      "start": 7.1861,
      "duration": 0.3927,
      "velocity": 104,
      "chip": "ym2612"
    },
    {
      "channel": 4,
      "note": 77,
      "start": 7.2008,
      "duration": 0.3954,
      "velocity": 104,
      "chip": "ym2612"
    },
    {
      "channel": 0,
      "note": 47,
      "start": 7.2976,
      "duration": 0.1409,
      "velocity": 102,
      "chip": "ym2612"
    },
    {
      "channel": 0,
      "note": 40,
      "start": 7.4387,
      "duration": 0.1425,
      "velocity": 102,
      "chip": "ym2612"
    },
    {
      "channel": 0,
      "note": 42,
      "start": 7.5815,
      "duration": 0.1125,
      "velocity": 102,
      "chip": "ym2612"
    },
    {
      "channel": 1,
      "note": 69,
      "start": 7.5822,
      "duration": 0.0131,
      "velocity": 99,
      "chip": "ym2612"
    },
    {
      "channel": 2,
      "note": 64,
      "start": 7.5846,
      "duration": 0.0109,
      "velocity": 99,
      "chip": "ym2612"
    },
    {
      "channel": 1,
      "note": 71,
      "start": 7.5976,
      "duration": 0.0755,
      "velocity": 99,
      "chip": "ym2612"
    },
    {
      "channel": 2,
      "note": 66,
      "start": 7.5982,
      "duration": 0.0752,
      "velocity": 99,
      "chip": "ym2612"
    },
    {
      "channel": 0,
      "note": 47,
      "start": 7.6945,
      "duration": 0.2245,
      "velocity": 102,
      "chip": "ym2612"
    },
    {
      "channel": 1,
      "note": 74,
      "start": 7.6952,
      "duration": 0.0144,
      "velocity": 99,
      "chip": "ym2612"
    },
    {
      "channel": 4,
      "note": 78,
      "start": 7.6996,
      "duration": 0.2214,
      "velocity": 127,
      "chip": "ym2612"
    },
    {
      "channel": 1,
      "note": 69,
      "start": 7.7119,
      "duration": 0.0739,
      "velocity": 99,
      "chip": "ym2612"
    },
    {
      "channel": 2,
      "note": 66,
      "start": 7.7124,
      "duration": 0.0736,
      "velocity": 99,
      "chip": "ym2612"
    },
    {
      "channel": 1,
      "note": 71,
      "start": 7.807,
      "duration": 0.0111,
      "velocity": 99,
      "chip": "ym2612"
    },
    {
      "channel": 2,
      "note": 69,
      "start": 7.8076,
      "duration": 0.0107,
      "velocity": 99,
      "chip": "ym2612"
    },
    {
      "channel": 1,
      "note": 74,
      "start": 7.8205,
      "duration": 0.0779,
      "velocity": 99,
      "chip": "ym2612"
    },
    {
      "channel": 2,
      "note": 71,
      "start": 7.8211,
      "duration": 0.0776,
      "velocity": 99,
      "chip": "ym2612"
    },
    {
      "channel": 0,
      "note": 47,
      "start": 7.9193,
      "duration": 0.1426,
      "velocity": 102,
      "chip": "ym2612"
    },
    {
      "channel": 1,
      "note": 69,
      "start": 7.9199,
      "duration": 0.0117,
      "velocity": 99,
      "chip": "ym2612"
    },
    {
      "channel": 4,
      "note": 93,
      "start": 7.9213,
      "duration": 0.1426,
      "velocity": 127,
      "chip": "ym2612"
    },
    {
      "channel": 1,
      "note": 71,
      "start": 7.9347,
      "duration": 0.0114,
      "velocity": 99,
      "chip": "ym2612"
    },
    {
      "channel": 2,
      "note": 66,
      "start": 7.9352,
      "duration": 0.0112,
      "velocity": 99,
      "chip": "ym2612"
    },
    {
      "channel": 1,
      "note": 76,
      "start": 7.9485,
      "duration": 0.0776,
      "velocity": 99,
      "chip": "ym2612"
    },
    {
      "channel": 2,
      "note": 69,
      "start": 7.9491,
      "duration": 0.0773,
      "velocity": 99,
      "chip": "ym2612"
    },
    {
      "channel": 1,
      "note": 69,
      "start": 8.0474,
      "duration": 0.0119,
      "velocity": 99,
      "chip": "ym2612"
    },
    {
      "channel": 2,
      "note": 71,
      "start": 8.0479,
      "duration": 0.0117,
      "velocity": 99,
      "chip": "ym2612"
    },
    {
      "channel": 0,
      "note": 47,
      "start": 8.0622,
      "duration": 0.1414,
      "velocity": 102,
      "chip": "ym2612"
    },
    {
      "channel": 1,
      "note": 71,
      "start": 8.0627,
      "duration": 0.0116,
      "velocity": 99,
      "chip": "ym2612"
    },
    {
      "channel": 4,
      "note": 93,
      "start": 8.0642,
      "duration": 0.1121,
      "velocity": 127,
      "chip": "ym2612"
    },
    {
      "channel": 1,
      "note": 69,
      "start": 8.0768,
      "duration": 0.0769,
      "velocity": 99,
      "chip": "ym2612"
    },
    {
      "channel": 2,
      "note": 66,
      "start": 8.0773,
      "duration": 0.0766,
      "velocity": 99,
      "chip": "ym2612"
    },
    {
      "channel": 1,
      "note": 71,
      "start": 8.1749,
      "duration": 0.0121,
      "velocity": 99,
      "chip": "ym2612"
    },
    {
      "channel": 2,
      "note": 69,
      "start": 8.1755,
      "duration": 0.0118,
      "velocity": 99,
      "chip": "ym2612"
    },
    {
      "channel": 4,
      "note": 93,
      "start": 8.1766,
      "duration": 0.1412,
      "velocity": 127,
      "chip": "ym2612"
    },
    {
      "channel": 1,
      "note": 74,
      "start": 8.1896,
      "duration": 0.0115,
      "velocity": 99,
      "chip": "ym2612"
    },
    {
      "channel": 2,
      "note": 71,
      "start": 8.1901,
      "duration": 0.0112,
      "velocity": 99,
      "chip": "ym2612"
    },
    {
      "channel": 0,
      "note": 47,
      "start": 8.2038,
      "duration": 0.1414,
      "velocity": 102,
      "chip": "ym2612"
    },
    {
      "channel": 1,
      "note": 69,
      "start": 8.2044,
      "duration": 0.0112,
      "velocity": 99,
      "chip": "ym2612"
    },
    {
      "channel": 1,
      "note": 71,
      "start": 8.218,
      "duration": 0.0772,
      "velocity": 99,
      "chip": "ym2612"
    },
    {
      "channel": 2,
      "note": 66,
      "start": 8.2185,
      "duration": 0.077,
      "velocity": 99,
      "chip": "ym2612"
    },
    {
      "channel": 1,
      "note": 76,
      "start": 8.3165,
      "duration": 0.0122,
      "velocity": 99,
      "chip": "ym2612"
    },
    {
      "channel": 2,
      "note": 69,
      "start": 8.317,
      "duration": 0.012,
      "velocity": 99,
      "chip": "ym2612"
    },
    {
      "channel": 4,
      "note": 93,
      "start": 8.3182,
      "duration": 0.029,
      "velocity": 127,
      "chip": "ym2612"
    },
    {
      "channel": 1,
      "note": 74,
      "start": 8.3312,
      "duration": 0.0114,
      "velocity": 99,
      "chip": "ym2612"
    },
    {
      "channel": 2,
      "note": 71,
      "start": 8.3317,
      "duration": 0.0112,
      "velocity": 99,
      "chip": "ym2612"
    },
    {
      "channel": 0,
      "note": 47,
      "start": 8.3455,
      "duration": 0.2251,
      "velocity": 102,
      "chip": "ym2612"
    },
    {
      "channel": 1,
      "note": 69,
      "start": 8.3461,
      "duration": 0.0117,
      "velocity": 99,
      "chip": "ym2612"
    },
    {
      "channel": 4,
      "note": 93,
      "start": 8.3475,
      "duration": 0.2251,
      "velocity": 127,
      "chip": "ym2612"
    },
    {
      "channel": 1,
      "note": 71,
      "start": 8.3603,
      "duration": 0.0768,
      "velocity": 99,
      "chip": "ym2612"
    },
    {
      "channel": 2,
      "note": 66,
      "start": 8.3608,
      "duration": 0.0766,
      "velocity": 99,
      "chip": "ym2612"
    },
    {
      "channel": 1,
      "note": 74,
      "start": 8.4584,
      "duration": 0.0118,
      "velocity": 99,
      "chip": "ym2612"
    },
    {
      "channel": 2,
      "note": 69,
      "start": 8.4589,
      "duration": 0.0115,
      "velocity": 99,
      "chip": "ym2612"
    },
    {
      "channel": 1,
      "note": 69,
      "start": 8.4726,
      "duration": 0.0772,
      "velocity": 99,
      "chip": "ym2612"
    },
    {
      "channel": 2,
      "note": 71,
      "start": 8.4732,
      "duration": 0.0769,
      "velocity": 99,
      "chip": "ym2612"
    },
    {
      "channel": 0,
      "note": 47,
      "start": 8.5709,
      "duration": 0.1423,
      "velocity": 102,
      "chip": "ym2612"
    },
    {
      "channel": 1,
      "note": 71,
      "start": 8.5714,
      "duration": 0.0117,
      "velocity": 99,
      "chip": "ym2612"
    },
    {
      "channel": 4,
      "note": 93,
      "start": 8.5729,
      "duration": 0.1425,
      "velocity": 127,
      "chip": "ym2612"
    },
    {
      "channel": 1,
      "note": 76,
      "start": 8.5861,
      "duration": 0.0115,
      "velocity": 99,
      "chip": "ym2612"
    },
    {
      "channel": 2,
      "note": 66,
      "start": 8.5866,
      "duration": 0.0112,
      "velocity": 99,
      "chip": "ym2612"
    },
    {
      "channel": 1,
      "note": 69,
      "start": 8.6001,
      "duration": 0.0775,
      "velocity": 99,
      "chip": "ym2612"
    },
    {
      "channel": 1,
      "note": 71,
      "start": 8.6988,
      "duration": 0.0119,
      "velocity": 99,
      "chip": "ym2612"
    },
    {
      "channel": 2,
      "note": 66,
      "start": 8.6994,
      "duration": 0.0117,
      "velocity": 99,
      "chip": "ym2612"
    },
    {
      "channel": 0,
      "note": 39,
      "start": 8.7135,
      "duration": 0.145,
      "velocity": 102,
      "chip": "ym2612"
    },
    {
      "channel": 1,
      "note": 72,
      "start": 8.7141,
      "duration": 0.0118,
      "velocity": 99,
      "chip": "ym2612"
    },
    {
      "channel": 2,
      "note": 67,
      "start": 8.7146,
      "duration": 0.0116,
      "velocity": 99,
      "chip": "ym2612"
    },
    {
      "channel": 4,
      "note": 93,
      "start": 8.7158,
      "duration": 0.1121,
      "velocity": 127,
      "chip": "ym2612"
    },
    {
      "channel": 1,
      "note": 79,
      "start": 8.7283,
      "duration": 0.0769,
      "velocity": 99,
      "chip": "ym2612"
    },
    {
      "channel": 2,
      "note": 70,
      "start": 8.7288,
      "duration": 0.0767,
      "velocity": 99,
      "chip": "ym2612"
    },
    {
      "channel": 1,
      "note": 77,
      "start": 8.8265,
      "duration": 0.0121,
      "velocity": 99,
      "chip": "ym2612"
    },
    {
      "channel": 2,
      "note": 72,
      "start": 8.8271,
      "duration": 0.0118,
      "velocity": 99,
      "chip": "ym2612"
    },
    {
      "channel": 4,
      "note": 93,
      "start": 8.8281,
      "duration": 0.1455,
      "velocity": 127,
      "chip": "ym2612"
    },
    {
      "channel": 1,
      "note": 72,
      "start": 8.8428,
      "duration": 0.0121,
      "velocity": 99,
      "chip": "ym2612"
    },
    {
      "channel": 2,
      "note": 70,
      "start": 8.8434,
      "duration": 0.0118,
      "velocity": 99,
      "chip": "ym2612"
    },
    {
      "channel": 0,
      "note": 41,
      "start": 8.8588,
      "duration": 0.1124,
      "velocity": 102,
      "chip": "ym2612"
    },
    {
      "channel": 1,
      "note": 70,
      "start": 8.8593,
      "duration": 0.0118,
      "velocity": 99,
      "chip": "ym2612"
    },
    {
      "channel": 2,
      "note": 65,
      "start": 8.8599,
      "duration": 0.0115,
      "velocity": 99,
      "chip": "ym2612"
    },
    {
      "channel": 1,
      "note": 72,
      "start": 8.8735,
      "duration": 0.0769,
      "velocity": 99,
      "chip": "ym2612"
    },
    {
      "channel": 2,
      "note": 67,
      "start": 8.874,
      "duration": 0.0766,
      "velocity": 99,
      "chip": "ym2612"
    },
    {
      "channel": 0,
      "note": 47,
      "start": 8.9716,
      "duration": 0.2246,
      "velocity": 102,
      "chip": "ym2612"
    },
    {
      "channel": 1,
      "note": 74,
      "start": 8.9723,
      "duration": 0.0118,
      "velocity": 99,
      "chip": "ym2612"
    },
    {
      "channel": 4,
      "note": 93,
      "start": 8.9741,
      "duration": 0.2239,
      "velocity": 127,
      "chip": "ym2612"
    },
    {
      "channel": 1,
      "note": 69,
      "start": 8.9864,
      "duration": 0.0764,
      "velocity": 99,
      "chip": "ym2612"
    },
    {
      "channel": 2,
      "note": 66,
      "start": 8.9869,
      "duration": 0.0761,
      "velocity": 99,
      "chip": "ym2612"
    },
    {
      "channel": 1,
      "note": 71,
      "start": 9.0841,
      "duration": 0.0111,
      "velocity": 99,
      "chip": "ym2612"
    },
    {
      "channel": 2,
      "note": 69,
      "start": 9.0846,
      "duration": 0.0108,
      "velocity": 99,
      "chip": "ym2612"
    },
    {
      "channel": 1,
      "note": 74,
      "start": 9.0976,
      "duration": 0.0778,
      "velocity": 99,
      "chip": "ym2612"
    },
    {
      "channel": 2,
      "note": 71,
      "start": 9.0981,
      "duration": 0.0776,
      "velocity": 99,
      "chip": "ym2612"
    },
    {
      "channel": 0,
      "note": 47,
      "start": 9.1964,
      "duration": 0.1424,
      "velocity": 102,
      "chip": "ym2612"
    },
    {
      "channel": 1,
      "note": 69,
      "start": 9.197,
      "duration": 0.0113,
      "velocity": 99,
      "chip": "ym2612"
    },
    {
      "channel": 4,
      "note": 93,
      "start": 9.1983,
      "duration": 0.1424,
      "velocity": 127,
      "chip": "ym2612"
    },
    {
      "channel": 1,
      "note": 71,
      "start": 9.2117,
      "duration": 0.0115,
      "velocity": 99,
      "chip": "ym2612"
    },
    {
      "channel": 2,
      "note": 66,
      "start": 9.2123,
      "duration": 0.0111,
      "velocity": 99,
      "chip": "ym2612"
    },
    {
      "channel": 1,
      "note": 76,
      "start": 9.2255,
      "duration": 0.0775,
      "velocity": 99,
      "chip": "ym2612"
    },
    {
      "channel": 2,
      "note": 69,
      "start": 9.2261,
      "duration": 0.0772,
      "velocity": 99,
      "chip": "ym2612"
    },
    {
      "channel": 1,
      "note": 69,
      "start": 9.3242,
      "duration": 0.0121,
      "velocity": 99,
      "chip": "ym2612"
    },
    {
      "channel": 2,
      "note": 71,
      "start": 9.3247,
      "duration": 0.0118,
      "velocity": 99,
      "chip": "ym2612"
    },
    {
      "channel": 0,
      "note": 47,
      "start": 9.3391,
      "duration": 0.1416,
      "velocity": 102,
      "chip": "ym2612"
    },
    {
      "channel": 1,
      "note": 71,
      "start": 9.3397,
      "duration": 0.0116,
      "velocity": 99,
      "chip": "ym2612"
    },
    {
      "channel": 4,
      "note": 93,
      "start": 9.3411,
      "duration": 0.112,
      "velocity": 127,
      "chip": "ym2612"
    },
    {
      "channel": 1,
      "note": 69,
      "start": 9.3537,
      "duration": 0.0769,
      "velocity": 99,
      "chip": "ym2612"
    },
    {
      "channel": 2,
      "note": 66,
      "start": 9.3542,
      "duration": 0.0766,
      "velocity": 99,
      "chip": "ym2612"
    },
    {
      "channel": 1,
      "note": 71,
      "start": 9.4518,
      "duration": 0.0124,
      "velocity": 99,
      "chip": "ym2612"
    },
    {
      "channel": 2,
      "note": 69,
      "start": 9.4524,
      "duration": 0.0121,
      "velocity": 99,
      "chip": "ym2612"
    },
    {
      "channel": 4,
      "note": 93,
      "start": 9.4535,
      "duration": 0.1418,
      "velocity": 127,
      "chip": "ym2612"
    },
    {
      "channel": 1,
      "note": 74,
      "start": 9.4667,
      "duration": 0.0115,
      "velocity": 99,
      "chip": "ym2612"
    },
    {
      "channel": 2,
      "note": 71,
      "start": 9.4673,
      "duration": 0.0112,
      "velocity": 99,
      "chip": "ym2612"
    },
    {
      "channel": 0,
      "note": 47,
      "start": 9.481,
      "duration": 0.1416,
      "velocity": 102,
      "chip": "ym2612"
    },
    {
      "channel": 1,
      "note": 69,
      "start": 9.4815,
      "duration": 0.0113,
      "velocity": 99,
      "chip": "ym2612"
    },
    {
      "channel": 1,
      "note": 71,
      "start": 9.4953,
      "duration": 0.0773,
      "velocity": 99,
      "chip": "ym2612"
    },
    {
      "channel": 2,
      "note": 66,
      "start": 9.4959,
      "duration": 0.077,
      "velocity": 99,
      "chip": "ym2612"
    },
    {
      "channel": 1,
      "note": 76,
      "start": 9.5939,
      "duration": 0.0122,
      "velocity": 99,
      "chip": "ym2612"
    },
    {
      "channel": 2,
      "note": 69,
      "start": 9.5945,
      "duration": 0.0118,
      "velocity": 99,
      "chip": "ym2612"
    },
    {
      "channel": 4,
      "note": 93,
      "start": 9.5956,
      "duration": 0.029,
      "velocity": 127,
      "chip": "ym2612"
    },
    {
      "channel": 1,
      "note": 74,
      "start": 9.6085,
      "duration": 0.0115,
      "velocity": 99,
      "chip": "ym2612"
    },
    {
      "channel": 2,
      "note": 71,
      "start": 9.6091,
      "duration": 0.0112,
      "velocity": 99,
      "chip": "ym2612"
    },
    {
      "channel": 0,
      "note": 47,
      "start": 9.6228,
      "duration": 0.2252,
      "velocity": 102,
      "chip": "ym2612"
    },
    {
      "channel": 1,
      "note": 69,
      "start": 9.6234,
      "duration": 0.0117,
      "velocity": 99,
      "chip": "ym2612"
    },
    {
      "channel": 4,
      "note": 93,
      "start": 9.6249,
      "duration": 0.225,
      "velocity": 127,
      "chip": "ym2612"
    },
    {
      "channel": 1,
      "note": 71,
      "start": 9.6376,
      "duration": 0.0771,
      "velocity": 99,
      "chip": "ym2612"
    },
    {
      "channel": 2,
      "note": 66,
      "start": 9.6381,
      "duration": 0.0768,
      "velocity": 99,
      "chip": "ym2612"
    },
    {
      "channel": 1,
      "note": 74,
      "start": 9.7359,
      "duration": 0.0116,
      "velocity": 99,
      "chip": "ym2612"
    },
    {
      "channel": 2,
      "note": 69,
      "start": 9.7365,
      "duration": 0.0113,
      "velocity": 99,
      "chip": "ym2612"
    },
    {
      "channel": 1,
      "note": 69,
      "start": 9.75,
      "duration": 0.0773,
      "velocity": 99,
      "chip": "ym2612"
    },
    {
      "channel": 2,
      "note": 71,
      "start": 9.7506,
      "duration": 0.077,
      "velocity": 99,
      "chip": "ym2612"
    },
    {
      "channel": 0,
      "note": 47,
      "start": 9.8483,
      "duration": 0.1428,
      "velocity": 102,
      "chip": "ym2612"
    },
    {
      "channel": 1,
      "note": 71,
      "start": 9.8488,
      "duration": 0.0119,
      "velocity": 99,
      "chip": "ym2612"
    },
    {
      "channel": 4,
      "note": 93,
      "start": 9.8502,
      "duration": 0.1429,
      "velocity": 127,
      "chip": "ym2612"
    },
    {
      "channel": 1,
      "note": 76,
      "start": 9.8638,
      "duration": 0.0115,
      "velocity": 99,
      "chip": "ym2612"
    },
    {
      "channel": 2,
      "note": 66,
      "start": 9.8643,
      "duration": 0.0112,
      "velocity": 99,
      "chip": "ym2612"
    },
    {
      "channel": 1,
      "note": 69,
      "start": 9.8776,
      "duration": 0.0777,
      "velocity": 99,
      "chip": "ym2612"
    },
    {
      "channel": 1,
      "note": 71,
      "start": 9.9765,
      "duration": 0.012,
      "velocity": 99,
      "chip": "ym2612"
    },
    {
      "channel": 2,
      "note": 66,
      "start": 9.9771,
      "duration": 0.0117,
      "velocity": 99,
      "chip": "ym2612"
    },
    {
      "channel": 0,
      "note": 39,
      "start": 9.9913,
      "duration": 0.1429,
      "velocity": 102,
      "chip": "ym2612"
    },
    {
      "channel": 1,
      "note": 72,
      "start": 9.9919,
      "duration": 0.012,
      "velocity": 99,
      "chip": "ym2612"
    },
    {
      "channel": 2,
      "note": 67,
      "start": 9.9924,
      "duration": 0.0117,
      "velocity": 99,
      "chip": "ym2612"
    },
    {
      "channel": 4,
      "note": 93,
      "start": 9.9935,
      "duration": 0.112,
      "velocity": 127,
      "chip": "ym2612"
    },
    {
      "channel": 1,
      "note": 79,
      "start": 10.0062,
      "duration": 0.0767,
      "velocity": 99,
      "chip": "ym2612"
    },
    {
      "channel": 2,
      "note": 70,
      "start": 10.0067,
      "duration": 0.0764,
      "velocity": 99,
      "chip": "ym2612"
    },
    {
      "channel": 1,
      "note": 77,
      "start": 10.1042,
      "duration": 0.0123,
      "velocity": 99,
      "chip": "ym2612"
    },
    {
      "channel": 2,
      "note": 72,
      "start": 10.1047,
      "duration": 0.012,
      "velocity": 99,
      "chip": "ym2612"
    },
    {
      "channel": 4,
      "note": 93,
      "start": 10.1059,
      "duration": 0.1471,
      "velocity": 127,
      "chip": "ym2612"
    },
    {
      "channel": 1,
      "note": 72,
      "start": 10.1189,
      "duration": 0.012,
      "velocity": 99,
      "chip": "ym2612"
    },
    {
      "channel": 2,
      "note": 70,
      "start": 10.1195,
      "duration": 0.0117,
      "velocity": 99,
      "chip": "ym2612"
    },
    {
      "channel": 0,
      "note": 41,
      "start": 10.1345,
      "duration": 0.1125,
      "velocity": 102,
      "chip": "ym2612"
    },
    {
      "channel": 1,
      "note": 70,
      "start": 10.1351,
      "duration": 0.0115,
      "velocity": 99,
      "chip": "ym2612"
    },
    {
      "channel": 2,
      "note": 65,
      "start": 10.1356,
      "duration": 0.0112,
      "velocity": 99,
      "chip": "ym2612"
    },
    {
      "channel": 1,
      "note": 72,
      "start": 10.149,
      "duration": 0.0772,
      "velocity": 99,
      "chip": "ym2612"
    },
    {
      "channel": 2,
      "note": 67,
      "start": 10.1495,
      "duration": 0.0769,
      "velocity": 99,
      "chip": "ym2612"
    },
    {
      "channel": 0,
      "note": 47,
      "start": 10.2473,
      "duration": 0.2247,
      "velocity": 102,
      "chip": "ym2612"
    },
    {
      "channel": 1,
      "note": 74,
      "start": 10.248,
      "duration": 0.0157,
      "velocity": 99,
      "chip": "ym2612"
    },
    {
      "channel": 3,
      "note": 88,
      "start": 10.252,
      "duration": 0.0004,
      "velocity": 104,
      "chip": "ym2612"
    },
    {
      "channel": 3,
      "note": 88,
      "start": 10.2524,
      "duration": 0.119,
      "velocity": 104,
      "chip": "ym2612"
    },
    {
      "channel": 1,
      "note": 69,
      "start": 10.2662,
      "duration": 0.0726,
      "velocity": 99,
      "chip": "ym2612"
    },
    {
      "channel": 2,
      "note": 66,
      "start": 10.2668,
      "duration": 0.0723,
      "velocity": 99,
      "chip": "ym2612"
    },
    {
      "channel": 4,
      "note": 93,
      "start": 10.2708,
      "duration": 0.0001,
      "velocity": 104,
      "chip": "ym2612"
    },
    {
      "channel": 4,
      "note": 93,
      "start": 10.2714,
      "duration": 0.2025,
      "velocity": 104,
      "chip": "ym2612"
    },
    {
      "channel": 1,
      "note": 71,
      "start": 10.36,
      "duration": 0.0109,
      "velocity": 99,
      "chip": "ym2612"
    },
    {
      "channel": 2,
      "note": 69,
      "start": 10.3605,
      "duration": 0.0106,
      "velocity": 99,
      "chip": "ym2612"
    },
    {
      "channel": 1,
      "note": 74,
      "start": 10.3733,
      "duration": 0.0781,
      "velocity": 99,
      "chip": "ym2612"
    },
    {
      "channel": 2,
      "note": 71,
      "start": 10.3738,
      "duration": 0.0778,
      "velocity": 99,
      "chip": "ym2612"
    },
    {
      "channel": 3,
      "note": 76,
      "start": 10.3745,
      "duration": 0.106,
      "velocity": 104,
      "chip": "ym2612"
    },
    {
      "channel": 0,
      "note": 47,
      "start": 10.4723,
      "duration": 0.1425,
      "velocity": 102,
      "chip": "ym2612"
    },
    {
      "channel": 1,
      "note": 69,
      "start": 10.4729,
      "duration": 0.0112,
      "velocity": 99,
      "chip": "ym2612"
    },
    {
      "channel": 4,
      "note": 76,
      "start": 10.4743,
      "duration": 0.0228,
      "velocity": 104,
      "chip": "ym2612"
    },
    {
      "channel": 1,
      "note": 71,
      "start": 10.4876,
      "duration": 0.0108,
      "velocity": 99,
      "chip": "ym2612"
    },
    {
      "channel": 2,
      "note": 66,
      "start": 10.4881,
      "duration": 0.0105,
      "velocity": 99,
      "chip": "ym2612"
    },
    {
      "channel": 1,
      "note": 76,
      "start": 10.5007,
      "duration": 0.0785,
      "velocity": 99,
      "chip": "ym2612"
    },
    {
      "channel": 2,
      "note": 69,
      "start": 10.5012,
      "duration": 0.0782,
      "velocity": 99,
      "chip": "ym2612"
    },
    {
      "channel": 3,
      "note": 71,
      "start": 10.5019,
      "duration": 0.1248,
      "velocity": 104,
      "chip": "ym2612"
    },
    {
      "channel": 1,
      "note": 69,
      "start": 10.6004,
      "duration": 0.0124,
      "velocity": 99,
      "chip": "ym2612"
    },
    {
      "channel": 2,
      "note": 71,
      "start": 10.601,
      "duration": 0.0121,
      "velocity": 99,
      "chip": "ym2612"
    },
    {
      "channel": 4,
      "note": 71,
      "start": 10.6022,
      "duration": 0.1267,
      "velocity": 104,
      "chip": "ym2612"
    },
    {
      "channel": 0,
      "note": 47,
      "start": 10.6151,
      "duration": 0.139,
      "velocity": 102,
      "chip": "ym2612"
    },
    {
      "channel": 1,
      "note": 71,
      "start": 10.6157,
      "duration": 0.0105,
      "velocity": 99,
      "chip": "ym2612"
    },
    {
      "channel": 1,
      "note": 69,
      "start": 10.6284,
      "duration": 0.078,
      "velocity": 99,
      "chip": "ym2612"
    },
    {
      "channel": 2,
      "note": 66,
      "start": 10.6289,
      "duration": 0.0778,
      "velocity": 99,
      "chip": "ym2612"
    },
    {
      "channel": 3,
      "note": 76,
      "start": 10.6296,
      "duration": 0.1361,
      "velocity": 104,
      "chip": "ym2612"
    },
    {
      "channel": 1,
      "note": 71,
      "start": 10.7277,
      "duration": 0.0114,
      "velocity": 99,
      "chip": "ym2612"
    },
    {
      "channel": 2,
      "note": 69,
      "start": 10.7282,
      "duration": 0.0112,
      "velocity": 99,
      "chip": "ym2612"
    },
    {
      "channel": 4,
      "note": 76,
      "start": 10.7293,
      "duration": 0.1394,
      "velocity": 104,
      "chip": "ym2612"
    },
    {
      "channel": 1,
      "note": 74,
      "start": 10.7414,
      "duration": 0.0106,
      "velocity": 99,
      "chip": "ym2612"
    },
    {
      "channel": 2,
      "note": 71,
      "start": 10.7419,
      "duration": 0.0103,
      "velocity": 99,
      "chip": "ym2612"
    },
    {
      "channel": 0,
      "note": 47,
      "start": 10.7543,
      "duration": 0.14,
      "velocity": 102,
      "chip": "ym2612"
    },
    {
      "channel": 1,
      "note": 69,
      "start": 10.7548,
      "duration": 0.0104,
      "velocity": 99,
      "chip": "ym2612"
    },
    {
      "channel": 1,
      "note": 71,
      "start": 10.7675,
      "duration": 0.0783,
      "velocity": 99,
      "chip": "ym2612"
    },
    {
      "channel": 2,
      "note": 66,
      "start": 10.7681,
      "duration": 0.078,
      "velocity": 99,
      "chip": "ym2612"
    },
    {
      "channel": 1,
      "note": 76,
      "start": 10.8671,
      "duration": 0.0114,
      "velocity": 99,
      "chip": "ym2612"
    },
    {
      "channel": 2,
      "note": 69,
      "start": 10.8676,
      "duration": 0.011,
      "velocity": 99,
      "chip": "ym2612"
    },
    {
      "channel": 3,
      "note": 71,
      "start": 10.8683,
      "duration": 0.0107,
      "velocity": 104,
      "chip": "ym2612"
    },
    {
      "channel": 1,
      "note": 74,
      "start": 10.8808,
      "duration": 0.0115,
      "velocity": 99,
      "chip": "ym2612"
    },
    {
      "channel": 2,
      "note": 71,
      "start": 10.8814,
      "duration": 0.0112,
      "velocity": 99,
      "chip": "ym2612"
    },
    {
      "channel": 3,
      "note": 76,
      "start": 10.882,
      "duration": 0.0109,
      "velocity": 104,
      "chip": "ym2612"
    },
    {
      "channel": 4,
      "note": 71,
      "start": 10.8828,
      "duration": 0.0138,
      "velocity": 104,
      "chip": "ym2612"
    },
    {
      "channel": 0,
      "note": 47,
      "start": 10.8946,
      "duration": 0.225,
      "velocity": 102,
      "chip": "ym2612"
    },
    {
      "channel": 1,
      "note": 69,
      "start": 10.8951,
      "duration": 0.0118,
      "velocity": 99,
      "chip": "ym2612"
    },
    {
      "channel": 3,
      "note": 78,
      "start": 10.8961,
      "duration": 0.0072,
      "velocity": 104,
      "chip": "ym2612"
    },
    {
      "channel": 4,
      "note": 76,
      "start": 10.8969,
      "duration": 0.0138,
      "velocity": 104,
      "chip": "ym2612"
    },
    {
      "channel": 3,
      "note": 83,
      "start": 10.9034,
      "duration": 0.0069,
      "velocity": 104,
      "chip": "ym2612"
    },
    {
      "channel": 1,
      "note": 71,
      "start": 10.909,
      "duration": 0.0771,
      "velocity": 99,
      "chip": "ym2612"
    },
    {
      "channel": 2,
      "note": 66,
      "start": 10.9096,
      "duration": 0.0767,
      "velocity": 99,
      "chip": "ym2612"
    },
    {
      "channel": 3,
      "note": 85,
      "start": 10.9103,
      "duration": 0.0341,
      "velocity": 104,
      "chip": "ym2612"
    },
    {
      "channel": 4,
      "note": 78,
      "start": 10.9112,
      "duration": 0.0339,
      "velocity": 104,
      "chip": "ym2612"
    },
    {
      "channel": 4,
      "note": 83,
      "start": 10.945,
      "duration": 0.0639,
      "velocity": 104,
      "chip": "ym2612"
    },
    {
      "channel": 1,
      "note": 74,
      "start": 11.0073,
      "duration": 0.0121,
      "velocity": 99,
      "chip": "ym2612"
    },
    {
      "channel": 2,
      "note": 69,
      "start": 11.0078,
      "duration": 0.0119,
      "velocity": 99,
      "chip": "ym2612"
    },
    {
      "channel": 4,
      "note": 85,
      "start": 11.009,
      "duration": 0.0068,
      "velocity": 104,
      "chip": "ym2612"
    },
    {
      "channel": 3,
      "note": 83,
      "start": 11.0114,
      "duration": 0.0062,
      "velocity": 104,
      "chip": "ym2612"
    },
    {
      "channel": 1,
      "note": 69,
      "start": 11.0219,
      "duration": 0.077,
      "velocity": 99,
      "chip": "ym2612"
    },
    {
      "channel": 2,
      "note": 71,
      "start": 11.0224,
      "duration": 0.0767,
      "velocity": 99,
      "chip": "ym2612"
    },
    {
      "channel": 4,
      "note": 83,
      "start": 11.0254,
      "duration": 0.0536,
      "velocity": 104,
      "chip": "ym2612"
    },
    {
      "channel": 3,
      "note": 78,
      "start": 11.0786,
      "duration": 0.045,
      "velocity": 104,
      "chip": "ym2612"
    },
    {
      "channel": 0,
      "note": 47,
      "start": 11.1199,
      "duration": 0.1409,
      "velocity": 102,
      "chip": "ym2612"
    },
    {
      "channel": 1,
      "note": 71,
      "start": 11.1204,
      "duration": 0.011,
      "velocity": 99,
      "chip": "ym2612"
    },
    {
      "channel": 4,
      "note": 78,
      "start": 11.1302,
      "duration": 0.0076,
      "velocity": 104,
      "chip": "ym2612"
    },
    {
      "channel": 1,
      "note": 76,
      "start": 11.1337,
      "duration": 0.0113,
      "velocity": 99,
      "chip": "ym2612"
    },
    {
      "channel": 2,
      "note": 66,
      "start": 11.1342,
      "duration": 0.011,
      "velocity": 99,
      "chip": "ym2612"
    },
    {
      "channel": 3,
      "note": 76,
      "start": 11.1373,
      "duration": 0.0061,
      "velocity": 104,
      "chip": "ym2612"
    },
    {
      "channel": 1,
      "note": 69,
      "start": 11.1473,
      "duration": 0.0778,
      "velocity": 99,
      "chip": "ym2612"
    },
    {
      "channel": 4,
      "note": 76,
      "start": 11.1507,
      "duration": 0.0546,
      "velocity": 104,
      "chip": "ym2612"
    },
    {
      "channel": 3,
      "note": 71,
      "start": 11.2048,
      "duration": 0.0448,
      "velocity": 104,
      "chip": "ym2612"
    },
    {
      "channel": 1,
      "note": 71,
      "start": 11.2464,
      "duration": 0.0116,
      "velocity": 99,
      "chip": "ym2612"
    },
    {
      "channel": 2,
      "note": 66,
      "start": 11.2469,
      "duration": 0.0113,
      "velocity": 99,
      "chip": "ym2612"
    },
    {
      "channel": 4,
      "note": 71,
      "start": 11.2566,
      "duration": 0.0091,
      "velocity": 104,
      "chip": "ym2612"
    },
    {
      "channel": 0,
      "note": 39,
      "start": 11.261,
      "duration": 0.1429,
      "velocity": 102,
      "chip": "ym2612"
    },
    {
      "channel": 1,
      "note": 72,
      "start": 11.2615,
      "duration": 0.0119,
      "velocity": 99,
      "chip": "ym2612"
    },
    {
      "channel": 2,
      "note": 67,
      "start": 11.2621,
      "duration": 0.0116,
      "velocity": 99,
      "chip": "ym2612"
    },
    {
      "channel": 3,
      "note": 66,
      "start": 11.2628,
      "duration": 0.1226,
      "velocity": 104,
      "chip": "ym2612"
    },
    {
      "channel": 1,
      "note": 79,
      "start": 11.2757,
      "duration": 0.0769,
      "velocity": 99,
      "chip": "ym2612"
    },
    {
      "channel": 2,
      "note": 70,
      "start": 11.2764,
      "duration": 0.0766,
      "velocity": 99,
      "chip": "ym2612"
    },
    {
      "channel": 4,
      "note": 66,
      "start": 11.2775,
      "duration": 0.1235,
      "velocity": 104,
      "chip": "ym2612"
    },
    {
      "channel": 1,
      "note": 77,
      "start": 11.3739,
      "duration": 0.0109,
      "velocity": 99,
      "chip": "ym2612"
    },
    {
      "channel": 2,
      "note": 72,
      "start": 11.3744,
      "duration": 0.0106,
      "velocity": 99,
      "chip": "ym2612"
    },
    {
      "channel": 1,
      "note": 72,
      "start": 11.3885,
      "duration": 0.0115,
      "velocity": 99,
      "chip": "ym2612"
    },
    {
      "channel": 2,
      "note": 70,
      "start": 11.3891,
      "duration": 0.0113,
      "velocity": 99,
      "chip": "ym2612"
    },
    {
      "channel": 3,
      "note": 70,
      "start": 11.3898,
      "duration": 0.0226,
      "velocity": 104,
      "chip": "ym2612"
    },
    {
      "channel": 0,
      "note": 41,
      "start": 11.4041,
      "duration": 0.1122,
      "velocity": 102,
      "chip": "ym2612"
    },
    {
      "channel": 1,
      "note": 70,
      "start": 11.4046,
      "duration": 0.0113,
      "velocity": 99,
      "chip": "ym2612"
    },
    {
      "channel": 2,
      "note": 65,
      "start": 11.4052,
      "duration": 0.011,
      "velocity": 99,
      "chip": "ym2612"
    },
    {
      "channel": 4,
      "note": 70,
      "start": 11.4062,
      "duration": 0.0479,
      "velocity": 104,
      "chip": "ym2612"
    },
    {
      "channel": 1,
      "note": 72,
      "start": 11.4182,
      "duration": 0.0773,
      "velocity": 99,
      "chip": "ym2612"
    },
    {
      "channel": 2,
      "note": 67,
      "start": 11.4188,
      "duration": 0.077,
      "velocity": 99,
      "chip": "ym2612"
    },
    {
      "channel": 0,
      "note": 47,
      "start": 11.5167,
      "duration": 0.225,
      "velocity": 102,
      "chip": "ym2612"
    },
    {
      "channel": 1,
      "note": 74,
      "start": 11.5174,
      "duration": 0.0126,
      "velocity": 99,
      "chip": "ym2612"
    },
    {
      "channel": 3,
      "note": 65,
      "start": 11.519,
      "duration": 0.0005,
      "velocity": 104,
      "chip": "ym2612"
    },
    {
      "channel": 3,
      "note": 65,
      "start": 11.5194,
      "duration": 0.1215,
      "velocity": 104,
      "chip": "ym2612"
    },
    {
      "channel": 1,
      "note": 69,
      "start": 11.5324,
      "duration": 0.0758,
      "velocity": 99,
      "chip": "ym2612"
    },
    {
      "channel": 2,
      "note": 66,
      "start": 11.533,
      "duration": 0.0755,
      "velocity": 99,
      "chip": "ym2612"
    },
    {
      "channel": 4,
      "note": 65,
      "start": 11.5344,
      "duration": 0.0005,
      "velocity": 104,
      "chip": "ym2612"
    },
    {
      "channel": 4,
      "note": 65,
      "start": 11.5348,
      "duration": 0.1871,
      "velocity": 104,
      "chip": "ym2612"
    },
    {
      "channel": 1,
      "note": 71,
      "start": 11.6295,
      "duration": 0.0109,
      "velocity": 99,
      "chip": "ym2612"
    },
    {
      "channel": 2,
      "note": 69,
      "start": 11.63,
      "duration": 0.0106,
      "velocity": 99,
      "chip": "ym2612"
    },
    {
      "channel": 1,
      "note": 74,
      "start": 11.6427,
      "duration": 0.0783,
      "velocity": 99,
      "chip": "ym2612"
    },
    {
      "channel": 2,
      "note": 71,
      "start": 11.6433,
      "duration": 0.078,
      "velocity": 99,
      "chip": "ym2612"
    },
    {
      "channel": 3,
      "note": 76,
      "start": 11.644,
      "duration": 0.106,
      "velocity": 104,
      "chip": "ym2612"
    },
    {
      "channel": 0,
      "note": 47,
      "start": 11.742,
      "duration": 0.141,
      "velocity": 102,
      "chip": "ym2612"
    },
    {
      "channel": 1,
      "note": 69,
      "start": 11.7425,
      "duration": 0.011,
      "velocity": 99,
      "chip": "ym2612"
    },
    {
      "channel": 4,
      "note": 76,
      "start": 11.7439,
      "duration": 0.0196,
      "velocity": 104,
      "chip": "ym2612"
    },
    {
      "channel": 1,
      "note": 71,
      "start": 11.7559,
      "duration": 0.0109,
      "velocity": 99,
      "chip": "ym2612"
    },
    {
      "channel": 2,
      "note": 66,
      "start": 11.7564,
      "duration": 0.0105,
      "velocity": 99,
      "chip": "ym2612"
    },
    {
      "channel": 1,
      "note": 76,
      "start": 11.769,
      "duration": 0.0783,
      "velocity": 99,
      "chip": "ym2612"
    },
    {
      "channel": 2,
      "note": 69,
      "start": 11.7695,
      "duration": 0.0781,
      "velocity": 99,
      "chip": "ym2612"
    },
    {
      "channel": 3,
      "note": 71,
      "start": 11.7702,
      "duration": 0.1246,
      "velocity": 104,
      "chip": "ym2612"
    },
    {
      "channel": 1,
      "note": 69,
      "start": 11.8686,
      "duration": 0.0124,
      "velocity": 99,
      "chip": "ym2612"
    },
    {
      "channel": 2,
      "note": 71,
      "start": 11.8692,
      "duration": 0.012,
      "velocity": 99,
      "chip": "ym2612"
    },
    {
      "channel": 4,
      "note": 71,
      "start": 11.8703,
      "duration": 0.1054,
      "velocity": 104,
      "chip": "ym2612"
    },
    {
      "channel": 0,
      "note": 47,
      "start": 11.8833,
      "duration": 0.139,
      "velocity": 102,
      "chip": "ym2612"
    },
    {
      "channel": 1,
      "note": 71,
      "start": 11.8838,
      "duration": 0.0105,
      "velocity": 99,
      "chip": "ym2612"
    },
    {
      "channel": 1,
      "note": 69,
      "start": 11.8966,
      "duration": 0.0781,
      "velocity": 99,
      "chip": "ym2612"
    },
    {
      "channel": 2,
      "note": 66,
      "start": 11.8971,
      "duration": 0.078,
      "velocity": 99,
      "chip": "ym2612"
    },
    {
      "channel": 3,
      "note": 76,
      "start": 11.8978,
      "duration": 0.1364,
      "velocity": 104,
      "chip": "ym2612"
    },
    {
      "channel": 1,
      "note": 71,
      "start": 11.9961,
      "duration": 0.0114,
      "velocity": 99,
      "chip": "ym2612"
    },
    {
      "channel": 2,
      "note": 69,
      "start": 11.9966,
      "duration": 0.0111,
      "velocity": 99,
      "chip": "ym2612"
    },
    {
      "channel": 4,
      "note": 76,
      "start": 11.9976,
      "duration": 0.1176,
      "velocity": 104,
      "chip": "ym2612"
    },
    {
      "channel": 1,
      "note": 74,
      "start": 12.0097,
      "duration": 0.0106,
      "velocity": 99,
      "chip": "ym2612"
    },
    {
      "channel": 2,
      "note": 71,
      "start": 12.0102,
      "duration": 0.0103,
      "velocity": 99,
      "chip": "ym2612"
    },
    {
      "channel": 0,
      "note": 47,
      "start": 12.0226,
      "duration": 0.1406,
      "velocity": 102,
      "chip": "ym2612"
    },
    {
      "channel": 1,
      "note": 69,
      "start": 12.0231,
      "duration": 0.0106,
      "velocity": 99,
      "chip": "ym2612"
    },
    {
      "channel": 1,
      "note": 71,
      "start": 12.036,
      "duration": 0.0782,
      "velocity": 99,
      "chip": "ym2612"
    },
    {
      "channel": 2,
      "note": 66,
      "start": 12.0365,
      "duration": 0.078,
      "velocity": 99,
      "chip": "ym2612"
    },
    {
      "channel": 1,
      "note": 76,
      "start": 12.1355,
      "duration": 0.0113,
      "velocity": 99,
      "chip": "ym2612"
    },
    {
      "channel": 2,
      "note": 69,
      "start": 12.136,
      "duration": 0.011,
      "velocity": 99,
      "chip": "ym2612"
    },
    {
      "channel": 3,
      "note": 71,
      "start": 12.1367,
      "duration": 0.0107,
      "velocity": 104,
      "chip": "ym2612"
    },
    {
      "channel": 1,
      "note": 74,
      "start": 12.1493,
      "duration": 0.0116,
      "velocity": 99,
      "chip": "ym2612"
    },
    {
      "channel": 2,
      "note": 71,
      "start": 12.1498,
      "duration": 0.0114,
      "velocity": 99,
      "chip": "ym2612"
    },
    {
      "channel": 3,
      "note": 76,
      "start": 12.1505,
      "duration": 0.0111,
      "velocity": 104,
      "chip": "ym2612"
    },
    {
      "channel": 4,
      "note": 71,
      "start": 12.1512,
      "duration": 0.0108,
      "velocity": 104,
      "chip": "ym2612"
    },
    {
      "channel": 0,
      "note": 47,
      "start": 12.1634,
      "duration": 0.2249,
      "velocity": 102,
      "chip": "ym2612"
    },
    {
      "channel": 1,
      "note": 69,
      "start": 12.164,
      "duration": 0.0117,
      "velocity": 99,
      "chip": "ym2612"
    },
    {
      "channel": 3,
      "note": 78,
      "start": 12.1651,
      "duration": 0.007,
      "velocity": 104,
      "chip": "ym2612"
    },
    {
      "channel": 4,
      "note": 76,
      "start": 12.1657,
      "duration": 0.0108,
      "velocity": 104,
      "chip": "ym2612"
    },
    {
      "channel": 3,
      "note": 83,
      "start": 12.1721,
      "duration": 0.0071,
      "velocity": 104,
      "chip": "ym2612"
    },
    {
      "channel": 1,
      "note": 71,
      "start": 12.178,
      "duration": 0.0769,
      "velocity": 99,
      "chip": "ym2612"
    },
    {
      "channel": 2,
      "note": 66,
      "start": 12.1785,
      "duration": 0.0767,
      "velocity": 99,
      "chip": "ym2612"
    },
    {
      "channel": 3,
      "note": 85,
      "start": 12.1792,
      "duration": 0.034,
      "velocity": 104,
      "chip": "ym2612"
    },
    {
      "channel": 4,
      "note": 78,
      "start": 12.18,
      "duration": 0.0339,
      "velocity": 104,
      "chip": "ym2612"
    },
    {
      "channel": 4,
      "note": 83,
      "start": 12.2139,
      "duration": 0.0639,
      "velocity": 104,
      "chip": "ym2612"
    },
    {
      "channel": 1,
      "note": 74,
      "start": 12.2761,
      "duration": 0.012,
      "velocity": 99,
      "chip": "ym2612"
    },
    {
      "channel": 2,
      "note": 69,
      "start": 12.2766,
      "duration": 0.0118,
      "velocity": 99,
      "chip": "ym2612"
    },
    {
      "channel": 4,
      "note": 85,
      "start": 12.2778,
      "duration": 0.0068,
      "velocity": 104,
      "chip": "ym2612"
    },
    {
      "channel": 3,
      "note": 83,
      "start": 12.2802,
      "duration": 0.0062,
      "velocity": 104,
      "chip": "ym2612"
    },
    {
      "channel": 1,
      "note": 69,
      "start": 12.2907,
      "duration": 0.0768,
      "velocity": 99,
      "chip": "ym2612"
    },
    {
      "channel": 2,
      "note": 71,
      "start": 12.2912,
      "duration": 0.0766,
      "velocity": 99,
      "chip": "ym2612"
    },
    {
      "channel": 4,
      "note": 83,
      "start": 12.2943,
      "duration": 0.0534,
      "velocity": 104,
      "chip": "ym2612"
    },
    {
      "channel": 3,
      "note": 78,
      "start": 12.3472,
      "duration": 0.045,
      "velocity": 104,
      "chip": "ym2612"
    },
    {
      "channel": 0,
      "note": 47,
      "start": 12.3886,
      "duration": 0.1425,
      "velocity": 102,
      "chip": "ym2612"
    },
    {
      "channel": 1,
      "note": 71,
      "start": 12.3891,
      "duration": 0.0111,
      "velocity": 99,
      "chip": "ym2612"
    },
    {
      "channel": 4,
      "note": 78,
      "start": 12.3989,
      "duration": 0.009,
      "velocity": 104,
      "chip": "ym2612"
    },
    {
      "channel": 1,
      "note": 76,
      "start": 12.4038,
      "duration": 0.0114,
      "velocity": 99,
      "chip": "ym2612"
    },
    {
      "channel": 2,
      "note": 66,
      "start": 12.4043,
      "duration": 0.0111,
      "velocity": 99,
      "chip": "ym2612"
    },
    {
      "channel": 3,
      "note": 76,
      "start": 12.4074,
      "duration": 0.0062,
      "velocity": 104,
      "chip": "ym2612"
    },
    {
      "channel": 1,
      "note": 69,
      "start": 12.4175,
      "duration": 0.078,
      "velocity": 99,
      "chip": "ym2612"
    },
    {
      "channel": 4,
      "note": 76,
      "start": 12.4209,
      "duration": 0.0547,
      "velocity": 104,
      "chip": "ym2612"
    },
    {
      "channel": 3,
      "note": 71,
      "start": 12.4751,
      "duration": 0.0449,
      "velocity": 104,
      "chip": "ym2612"
    },
    {
      "channel": 1,
      "note": 71,
      "start": 12.5167,
      "duration": 0.0116,
      "velocity": 99,
      "chip": "ym2612"
    },
    {
      "channel": 2,
      "note": 66,
      "start": 12.5172,
      "duration": 0.0113,
      "velocity": 99,
      "chip": "ym2612"
    },
    {
      "channel": 4,
      "note": 71,
      "start": 12.5269,
      "duration": 0.0092,
      "velocity": 104,
      "chip": "ym2612"
    },
    {
      "channel": 0,
      "note": 39,
      "start": 12.5314,
      "duration": 0.1427,
      "velocity": 102,
      "chip": "ym2612"
    },
    {
      "channel": 1,
      "note": 72,
      "start": 12.5319,
      "duration": 0.0119,
      "velocity": 99,
      "chip": "ym2612"
    },
    {
      "channel": 2,
      "note": 67,
      "start": 12.5324,
      "duration": 0.0116,
      "velocity": 99,
      "chip": "ym2612"
    },
    {
      "channel": 3,
      "note": 66,
      "start": 12.5332,
      "duration": 0.1224,
      "velocity": 104,
      "chip": "ym2612"
    },
    {
      "channel": 1,
      "note": 79,
      "start": 12.5462,
      "duration": 0.0767,
      "velocity": 99,
      "chip": "ym2612"
    },
    {
      "channel": 2,
      "note": 70,
      "start": 12.5467,
      "duration": 0.0764,
      "velocity": 99,
      "chip": "ym2612"
    },
    {
      "channel": 4,
      "note": 66,
      "start": 12.5478,
      "duration": 0.1235,
      "velocity": 104,
      "chip": "ym2612"
    },
    {
      "channel": 1,
      "note": 77,
      "start": 12.6441,
      "duration": 0.0108,
      "velocity": 99,
      "chip": "ym2612"
    },
    {
      "channel": 2,
      "note": 72,
      "start": 12.6446,
      "duration": 0.0106,
      "velocity": 99,
      "chip": "ym2612"
    },
    {
      "channel": 1,
      "note": 72,
      "start": 12.6588,
      "duration": 0.0116,
      "velocity": 99,
      "chip": "ym2612"
    },
    {
      "channel": 2,
      "note": 70,
      "start": 12.6593,
      "duration": 0.0114,
      "velocity": 99,
      "chip": "ym2612"
    },
    {
      "channel": 3,
      "note": 70,
      "start": 12.66,
      "duration": 0.0225,
      "velocity": 104,
      "chip": "ym2612"
    },
    {
      "channel": 0,
      "note": 41,
      "start": 12.6744,
      "duration": 0.1123,
      "velocity": 102,
      "chip": "ym2612"
    },
    {
      "channel": 1,
      "note": 70,
      "start": 12.6749,
      "duration": 0.0113,
      "velocity": 99,
      "chip": "ym2612"
    },
    {
      "channel": 2,
      "note": 65,
      "start": 12.6754,
      "duration": 0.011,
      "velocity": 99,
      "chip": "ym2612"
    },
    {
      "channel": 4,
      "note": 70,
      "start": 12.6765,
      "duration": 0.0481,
      "velocity": 104,
      "chip": "ym2612"
    },
    {
      "channel": 1,
      "note": 72,
      "start": 12.6883,
      "duration": 0.0776,
      "velocity": 99,
      "chip": "ym2612"
    },
    {
      "channel": 2,
      "note": 67,
      "start": 12.6889,
      "duration": 0.0773,
      "velocity": 99,
      "chip": "ym2612"
    },
    {
      "channel": 0,
      "note": 43,
      "start": 12.7872,
      "duration": 0.225,
      "velocity": 102,
      "chip": "ym2612"
    },
    {
      "channel": 1,
      "note": 77,
      "start": 12.788,
      "duration": 0.0126,
      "velocity": 99,
      "chip": "ym2612"
    },
    {
      "channel": 3,
      "note": 65,
      "start": 12.7896,
      "duration": 0.0005,
      "velocity": 104,
      "chip": "ym2612"
    },
    {
      "channel": 3,
      "note": 65,
      "start": 12.7901,
      "duration": 0.1214,
      "velocity": 104,
      "chip": "ym2612"
    },
    {
      "channel": 1,
      "note": 72,
      "start": 12.8033,
      "duration": 0.0754,
      "velocity": 99,
      "chip": "ym2612"
    },
    {
      "channel": 2,
      "note": 69,
      "start": 12.8039,
      "duration": 0.0751,
      "velocity": 99,
      "chip": "ym2612"
    },
    {
      "channel": 4,
      "note": 65,
      "start": 12.8052,
      "duration": 0.0004,
      "velocity": 104,
      "chip": "ym2612"
    },
    {
      "channel": 4,
      "note": 65,
      "start": 12.8056,
      "duration": 0.1866,
      "velocity": 104,
      "chip": "ym2612"
    },
    {
      "channel": 1,
      "note": 74,
      "start": 12.9,
      "duration": 0.0109,
      "velocity": 99,
      "chip": "ym2612"
    },
    {
      "channel": 2,
      "note": 72,
      "start": 12.9005,
      "duration": 0.0107,
      "velocity": 99,
      "chip": "ym2612"
    },
    {
      "channel": 1,
      "note": 77,
      "start": 12.9133,
      "duration": 0.0781,
      "velocity": 99,
      "chip": "ym2612"
    },
    {
      "channel": 2,
      "note": 74,
      "start": 12.9139,
      "duration": 0.0778,
      "velocity": 99,
      "chip": "ym2612"
    },
    {
      "channel": 3,
      "note": 79,
      "start": 12.9146,
      "duration": 0.106,
      "velocity": 104,
      "chip": "ym2612"
    },
    {
      "channel": 0,
      "note": 43,
      "start": 13.0124,
      "duration": 0.1412,
      "velocity": 102,
      "chip": "ym2612"
    },
    {
      "channel": 1,
      "note": 72,
      "start": 13.013,
      "duration": 0.0112,
      "velocity": 99,
      "chip": "ym2612"
    },
    {
      "channel": 4,
      "note": 79,
      "start": 13.0145,
      "duration": 0.0193,
      "velocity": 104,
      "chip": "ym2612"
    },
    {
      "channel": 1,
      "note": 74,
      "start": 13.0264,
      "duration": 0.0107,
      "velocity": 99,
      "chip": "ym2612"
    },
    {
      "channel": 2,
      "note": 69,
      "start": 13.027,
      "duration": 0.0104,
      "velocity": 99,
      "chip": "ym2612"
    },
    {
      "channel": 1,
      "note": 79,
      "start": 13.0395,
      "duration": 0.0782,
      "velocity": 99,
      "chip": "ym2612"
    },
    {
      "channel": 2,
      "note": 72,
      "start": 13.04,
      "duration": 0.078,
      "velocity": 99,
      "chip": "ym2612"
    },
    {
      "channel": 3,
      "note": 74,
      "start": 13.0407,
      "duration": 0.1246,
      "velocity": 104,
      "chip": "ym2612"
    },
    {
      "channel": 1,
      "note": 72,
      "start": 13.139,
      "duration": 0.0124,
      "velocity": 99,
      "chip": "ym2612"
    },
    {
      "channel": 2,
      "note": 74,
      "start": 13.1395,
      "duration": 0.0122,
      "velocity": 99,
      "chip": "ym2612"
    },
    {
      "channel": 4,
      "note": 74,
      "start": 13.1406,
      "duration": 0.1057,
      "velocity": 104,
      "chip": "ym2612"
    },
    {
      "channel": 0,
      "note": 43,
      "start": 13.1538,
      "duration": 0.1394,
      "velocity": 102,
      "chip": "ym2612"
    },
    {
      "channel": 1,
      "note": 74,
      "start": 13.1543,
      "duration": 0.0105,
      "velocity": 99,
      "chip": "ym2612"
    },
    {
      "channel": 1,
      "note": 72,
      "start": 13.1671,
      "duration": 0.0783,
      "velocity": 99,
      "chip": "ym2612"
    },
    {
      "channel": 2,
      "note": 69,
      "start": 13.1676,
      "duration": 0.0781,
      "velocity": 99,
      "chip": "ym2612"
    },
    {
      "channel": 3,
      "note": 79,
      "start": 13.1683,
      "duration": 0.1367,
      "velocity": 104,
      "chip": "ym2612"
    },
    {
      "channel": 1,
      "note": 74,
      "start": 13.2666,
      "duration": 0.0115,
      "velocity": 99,
      "chip": "ym2612"
    },
    {
      "channel": 2,
      "note": 72,
      "start": 13.2672,
      "duration": 0.0112,
      "velocity": 99,
      "chip": "ym2612"
    },
    {
      "channel": 4,
      "note": 79,
      "start": 13.2682,
      "duration": 0.1179,
      "velocity": 104,
      "chip": "ym2612"
    },
    {
      "channel": 1,
      "note": 77,
      "start": 13.2804,
      "duration": 0.0107,
      "velocity": 99,
      "chip": "ym2612"
    },
    {
      "channel": 2,
      "note": 74,
      "start": 13.2809,
      "duration": 0.0104,
      "velocity": 99,
      "chip": "ym2612"
    },
    {
      "channel": 0,
      "note": 43,
      "start": 13.2934,
      "duration": 0.1402,
      "velocity": 102,
      "chip": "ym2612"
    },
    {
      "channel": 1,
      "note": 72,
      "start": 13.294,
      "duration": 0.0105,
      "velocity": 99,
      "chip": "ym2612"
    },
    {
      "channel": 1,
      "note": 74,
      "start": 13.3069,
      "duration": 0.0782,
      "velocity": 99,
      "chip": "ym2612"
    },
    {
      "channel": 2,
      "note": 69,
      "start": 13.3074,
      "duration": 0.078,
      "velocity": 99,
      "chip": "ym2612"
    },
    {
      "channel": 1,
      "note": 79,
      "start": 13.4063,
      "duration": 0.0114,
      "velocity": 99,
      "chip": "ym2612"
    },
    {
      "channel": 2,
      "note": 72,
      "start": 13.4069,
      "duration": 0.0111,
      "velocity": 99,
      "chip": "ym2612"
    },
    {
      "channel": 3,
      "note": 74,
      "start": 13.4076,
      "duration": 0.0107,
      "velocity": 104,
      "chip": "ym2612"
    },
    {
      "channel": 1,
      "note": 77,
      "start": 13.4202,
      "duration": 0.0115,
      "velocity": 99,
      "chip": "ym2612"
    },
    {
      "channel": 2,
      "note": 74,
      "start": 13.4207,
      "duration": 0.0112,
      "velocity": 99,
      "chip": "ym2612"
    },
    {
      "channel": 3,
      "note": 79,
      "start": 13.4214,
      "duration": 0.0109,
      "velocity": 104,
      "chip": "ym2612"
    },
    {
      "channel": 4,
      "note": 74,
      "start": 13.4221,
      "duration": 0.0106,
      "velocity": 104,
      "chip": "ym2612"
    },
    {
      "channel": 0,
      "note": 43,
      "start": 13.4339,
      "duration": 0.2251,
      "velocity": 102,
      "chip": "ym2612"
    },
    {
      "channel": 1,
      "note": 72,
      "start": 13.4344,
      "duration": 0.0119,
      "velocity": 99,
      "chip": "ym2612"
    },
    {
      "channel": 3,
      "note": 81,
      "start": 13.4355,
      "duration": 0.0071,
      "velocity": 104,
      "chip": "ym2612"
    },
    {
      "channel": 4,
      "note": 79,
      "start": 13.4362,
      "duration": 0.011,
      "velocity": 104,
      "chip": "ym2612"
    },
    {
      "channel": 3,
      "note": 86,
      "start": 13.4426,
      "duration": 0.0073,
      "velocity": 104,
      "chip": "ym2612"
    },
    {
      "channel": 1,
      "note": 74,
      "start": 13.4486,
      "duration": 0.077,
      "velocity": 99,
      "chip": "ym2612"
    },
    {
      "channel": 2,
      "note": 69,
      "start": 13.4491,
      "duration": 0.0767,
      "velocity": 99,
      "chip": "ym2612"
    },
    {
      "channel": 3,
      "note": 87,
      "start": 13.4499,
      "duration": 0.0341,
      "velocity": 104,
      "chip": "ym2612"
    },
    {
      "channel": 4,
      "note": 81,
      "start": 13.4506,
      "duration": 0.034,
      "velocity": 104,
      "chip": "ym2612"
    },
    {
      "channel": 4,
      "note": 86,
      "start": 13.4846,
      "duration": 0.0639,
      "velocity": 104,
      "chip": "ym2612"
    },
    {
      "channel": 1,
      "note": 77,
      "start": 13.5468,
      "duration": 0.012,
      "velocity": 99,
      "chip": "ym2612"
    },
    {
      "channel": 2,
      "note": 72,
      "start": 13.5474,
      "duration": 0.0117,
      "velocity": 99,
      "chip": "ym2612"
    },
    {
      "channel": 4,
      "note": 87,
      "start": 13.5485,
      "duration": 0.0067,
      "velocity": 104,
      "chip": "ym2612"
    },
    {
      "channel": 3,
      "note": 86,
      "start": 13.5509,
      "duration": 0.0062,
      "velocity": 104,
      "chip": "ym2612"
    },
    {
      "channel": 1,
      "note": 72,
      "start": 13.5612,
      "duration": 0.0772,
      "velocity": 99,
      "chip": "ym2612"
    },
    {
      "channel": 2,
      "note": 74,
      "start": 13.5618,
      "duration": 0.077,
      "velocity": 99,
      "chip": "ym2612"
    },
    {
      "channel": 4,
      "note": 86,
      "start": 13.5648,
      "duration": 0.0535,
      "velocity": 104,
      "chip": "ym2612"
    },
    {
      "channel": 3,
      "note": 81,
      "start": 13.6179,
      "duration": 0.045,
      "velocity": 104,
      "chip": "ym2612"
    },
    {
      "channel": 0,
      "note": 43,
      "start": 13.6593,
      "duration": 0.1412,
      "velocity": 102,
      "chip": "ym2612"
    },
    {
      "channel": 1,
      "note": 74,
      "start": 13.6598,
      "duration": 0.011,
      "velocity": 99,
      "chip": "ym2612"
    },
    {
      "channel": 4,
      "note": 81,
      "start": 13.6695,
      "duration": 0.0077,
      "velocity": 104,
      "chip": "ym2612"
    },
    {
      "channel": 1,
      "note": 79,
      "start": 13.673,
      "duration": 0.0113,
      "velocity": 99,
      "chip": "ym2612"
    },
    {
      "channel": 2,
      "note": 69,
      "start": 13.6735,
      "duration": 0.0112,
      "velocity": 99,
      "chip": "ym2612"
    },
    {
      "channel": 3,
      "note": 76,
      "start": 13.6767,
      "duration": 0.0061,
      "velocity": 104,
      "chip": "ym2612"
    },
    {
      "channel": 1,
      "note": 72,
      "start": 13.6868,
      "duration": 0.0777,
      "velocity": 99,
      "chip": "ym2612"
    },
    {
      "channel": 4,
      "note": 76,
      "start": 13.69,
      "duration": 0.0546,
      "velocity": 104,
      "chip": "ym2612"
    },
    {
      "channel": 3,
      "note": 74,
      "start": 13.7441,
      "duration": 0.0452,
      "velocity": 104,
      "chip": "ym2612"
    },
    {
      "channel": 1,
      "note": 74,
      "start": 13.786,
      "duration": 0.0116,
      "velocity": 99,
      "chip": "ym2612"
    },
    {
      "channel": 2,
      "note": 69,
      "start": 13.7865,
      "duration": 0.0113,
      "velocity": 99,
      "chip": "ym2612"
    },
    {
      "channel": 4,
      "note": 74,
      "start": 13.7962,
      "duration": 0.0092,
      "velocity": 104,
      "chip": "ym2612"
    },
    {
      "channel": 0,
      "note": 39,
      "start": 13.8007,
      "duration": 0.1427,
      "velocity": 102,
      "chip": "ym2612"
    },
    {
      "channel": 1,
      "note": 76,
      "start": 13.8012,
      "duration": 0.0118,
      "velocity": 99,
      "chip": "ym2612"
    },
    {
      "channel": 2,
      "note": 71,
      "start": 13.8018,
      "duration": 0.0115,
      "velocity": 99,
      "chip": "ym2612"
    },
    {
      "channel": 3,
      "note": 69,
      "start": 13.8025,
      "duration": 0.1223,
      "velocity": 104,
      "chip": "ym2612"
    },
    {
      "channel": 1,
      "note": 83,
      "start": 13.8154,
      "duration": 0.0767,
      "velocity": 99,
      "chip": "ym2612"
    },
    {
      "channel": 2,
      "note": 74,
      "start": 13.816,
      "duration": 0.0764,
      "velocity": 99,
      "chip": "ym2612"
    },
    {
      "channel": 4,
      "note": 69,
      "start": 13.817,
      "duration": 0.1235,
      "velocity": 104,
      "chip": "ym2612"
    },
    {
      "channel": 1,
      "note": 81,
      "start": 13.9134,
      "duration": 0.0108,
      "velocity": 99,
      "chip": "ym2612"
    },
    {
      "channel": 2,
      "note": 76,
      "start": 13.9139,
      "duration": 0.0105,
      "velocity": 99,
      "chip": "ym2612"
    },
    {
      "channel": 1,
      "note": 76,
      "start": 13.928,
      "duration": 0.0116,
      "velocity": 99,
      "chip": "ym2612"
    },
    {
      "channel": 2,
      "note": 74,
      "start": 13.9285,
      "duration": 0.0114,
      "velocity": 99,
      "chip": "ym2612"
    },
    {
      "channel": 3,
      "note": 73,
      "start": 13.9293,
      "duration": 0.0227,
      "velocity": 104,
      "chip": "ym2612"
    },
    {
      "channel": 0,
      "note": 41,
      "start": 13.9437,
      "duration": 0.1123,
      "velocity": 102,
      "chip": "ym2612"
    },
    {
      "channel": 1,
      "note": 74,
      "start": 13.9442,
      "duration": 0.0114,
      "velocity": 99,
      "chip": "ym2612"
    },
    {
      "channel": 2,
      "note": 69,
      "start": 13.9448,
      "duration": 0.011,
      "velocity": 99,
      "chip": "ym2612"
    },
    {
      "channel": 4,
      "note": 73,
      "start": 13.9458,
      "duration": 0.048,
      "velocity": 104,
      "chip": "ym2612"
    },
    {
      "channel": 1,
      "note": 76,
      "start": 13.9578,
      "duration": 0.0774,
      "velocity": 99,
      "chip": "ym2612"
    },
    {
      "channel": 2,
      "note": 71,
      "start": 13.9583,
      "duration": 0.0771,
      "velocity": 99,
      "chip": "ym2612"
    },
    {
      "channel": 0,
      "note": 43,
      "start": 14.0564,
      "duration": 0.2249,
      "velocity": 102,
      "chip": "ym2612"
    },
    {
      "channel": 1,
      "note": 77,
      "start": 14.0571,
      "duration": 0.0124,
      "velocity": 99,
      "chip": "ym2612"
    },
    {
      "channel": 3,
      "note": 80,
      "start": 14.0584,
      "duration": 0.0004,
      "velocity": 104,
      "chip": "ym2612"
    },
    {
      "channel": 3,
      "note": 80,
      "start": 14.0589,
      "duration": 0.1217,
      "velocity": 104,
      "chip": "ym2612"
    },
    {
      "channel": 1,
      "note": 72,
      "start": 14.072,
      "duration": 0.0759,
      "velocity": 99,
      "chip": "ym2612"
    },
    {
      "channel": 2,
      "note": 69,
      "start": 14.0725,
      "duration": 0.0756,
      "velocity": 99,
      "chip": "ym2612"
    },
    {
      "channel": 4,
      "note": 80,
      "start": 14.0738,
      "duration": 0.0004,
      "velocity": 104,
      "chip": "ym2612"
    },
    {
      "channel": 4,
      "note": 80,
      "start": 14.0742,
      "duration": 0.1874,
      "velocity": 104,
      "chip": "ym2612"
    },
    {
      "channel": 1,
      "note": 74,
      "start": 14.1691,
      "duration": 0.0109,
      "velocity": 99,
      "chip": "ym2612"
    },
    {
      "channel": 2,
      "note": 72,
      "start": 14.1697,
      "duration": 0.0106,
      "velocity": 99,
      "chip": "ym2612"
    },
    {
      "channel": 1,
      "note": 77,
      "start": 14.1824,
      "duration": 0.0783,
      "velocity": 99,
      "chip": "ym2612"
    },
    {
      "channel": 2,
      "note": 74,
      "start": 14.1829,
      "duration": 0.078,
      "velocity": 99,
      "chip": "ym2612"
    },
    {
      "channel": 3,
      "note": 79,
      "start": 14.1836,
      "duration": 0.106,
      "velocity": 104,
      "chip": "ym2612"
    },
    {
      "channel": 0,
      "note": 43,
      "start": 14.2816,
      "duration": 0.1411,
      "velocity": 102,
      "chip": "ym2612"
    },
    {
      "channel": 1,
      "note": 72,
      "start": 14.2821,
      "duration": 0.0111,
      "velocity": 99,
      "chip": "ym2612"
    },
    {
      "channel": 4,
      "note": 79,
      "start": 14.2835,
      "duration": 0.0195,
      "velocity": 104,
      "chip": "ym2612"
    },
    {
      "channel": 1,
      "note": 74,
      "start": 14.2955,
      "duration": 0.0109,
      "velocity": 99,
      "chip": "ym2612"
    },
    {
      "channel": 2,
      "note": 69,
      "start": 14.296,
      "duration": 0.0106,
      "velocity": 99,
      "chip": "ym2612"
    },
    {
      "channel": 1,
      "note": 79,
      "start": 14.3086,
      "duration": 0.0783,
      "velocity": 99,
      "chip": "ym2612"
    },
    {
      "channel": 2,
      "note": 72,
      "start": 14.3091,
      "duration": 0.078,
      "velocity": 99,
      "chip": "ym2612"
    },
    {
      "channel": 3,
      "note": 74,
      "start": 14.3098,
      "duration": 0.1247,
      "velocity": 104,
      "chip": "ym2612"
    },
    {
      "channel": 1,
      "note": 72,
      "start": 14.4083,
      "duration": 0.0123,
      "velocity": 99,
      "chip": "ym2612"
    },
    {
      "channel": 2,
      "note": 74,
      "start": 14.4088,
      "duration": 0.012,
      "velocity": 99,
      "chip": "ym2612"
    },
    {
      "channel": 4,
      "note": 74,
      "start": 14.41,
      "duration": 0.1054,
      "velocity": 104,
      "chip": "ym2612"
    },
    {
      "channel": 0,
      "note": 43,
      "start": 14.4229,
      "duration": 0.139,
      "velocity": 102,
      "chip": "ym2612"
    },
    {
      "channel": 1,
      "note": 74,
      "start": 14.4235,
      "duration": 0.0105,
      "velocity": 99,
      "chip": "ym2612"
    },
    {
      "channel": 1,
      "note": 72,
      "start": 14.4363,
      "duration": 0.0781,
      "velocity": 99,
      "chip": "ym2612"
    },
    {
      "channel": 2,
      "note": 69,
      "start": 14.4368,
      "duration": 0.0779,
      "velocity": 99,
      "chip": "ym2612"
    },
    {
      "channel": 3,
      "note": 79,
      "start": 14.4375,
      "duration": 0.1363,
      "velocity": 104,
      "chip": "ym2612"
    },
    {
      "channel": 1,
      "note": 74,
      "start": 14.5357,
      "duration": 0.0112,
      "velocity": 99,
      "chip": "ym2612"
    },
    {
      "channel": 2,
      "note": 72,
      "start": 14.5362,
      "duration": 0.0111,
      "velocity": 99,
      "chip": "ym2612"
    },
    {
      "channel": 4,
      "note": 79,
      "start": 14.5372,
      "duration": 0.1175,
      "velocity": 104,
      "chip": "ym2612"
    },
    {
      "channel": 1,
      "note": 77,
      "start": 14.5493,
      "duration": 0.0106,
      "velocity": 99,
      "chip": "ym2612"
    },
    {
      "channel": 2,
      "note": 74,
      "start": 14.5498,
      "duration": 0.0103,
      "velocity": 99,
      "chip": "ym2612"
    },
    {
      "channel": 0,
      "note": 43,
      "start": 14.5622,
      "duration": 0.1401,
      "velocity": 102,
      "chip": "ym2612"
    },
    {
      "channel": 1,
      "note": 72,
      "start": 14.5627,
      "duration": 0.0105,
      "velocity": 99,
      "chip": "ym2612"
    },
    {
      "channel": 1,
      "note": 74,
      "start": 14.5755,
      "duration": 0.0782,
      "velocity": 99,
      "chip": "ym2612"
    },
    {
      "channel": 2,
      "note": 69,
      "start": 14.5761,
      "duration": 0.0779,
      "velocity": 99,
      "chip": "ym2612"
    },
    {
      "channel": 1,
      "note": 79,
      "start": 14.675,
      "duration": 0.0113,
      "velocity": 99,
      "chip": "ym2612"
    },
    {
      "channel": 2,
      "note": 72,
      "start": 14.6755,
      "duration": 0.011,
      "velocity": 99,
      "chip": "ym2612"
    },
    {
      "channel": 3,
      "note": 74,
      "start": 14.6762,
      "duration": 0.0107,
      "velocity": 104,
      "chip": "ym2612"
    },
    {
      "channel": 1,
      "note": 77,
      "start": 14.6888,
      "duration": 0.0115,
      "velocity": 99,
      "chip": "ym2612"
    },
    {
      "channel": 2,
      "note": 74,
      "start": 14.6893,
      "duration": 0.0112,
      "velocity": 99,
      "chip": "ym2612"
    },
    {
      "channel": 3,
      "note": 79,
      "start": 14.6899,
      "duration": 0.0109,
      "velocity": 104,
      "chip": "ym2612"
    },
    {
      "channel": 4,
      "note": 74,
      "start": 14.6906,
      "duration": 0.0106,
      "velocity": 104,
      "chip": "ym2612"
    },
    {
      "channel": 0,
      "note": 43,
      "start": 14.7026,
      "duration": 0.2249,
      "velocity": 102,
      "chip": "ym2612"
    },
    {
      "channel": 1,
      "note": 72,
      "start": 14.7031,
      "duration": 0.0116,
      "velocity": 99,
      "chip": "ym2612"
    },
    {
      "channel": 3,
      "note": 81,
      "start": 14.7042,
      "duration": 0.0071,
      "velocity": 104,
      "chip": "ym2612"
    },
    {
      "channel": 4,
      "note": 79,
      "start": 14.7049,
      "duration": 0.0107,
      "velocity": 104,
      "chip": "ym2612"
    },
    {
      "channel": 3,
      "note": 86,
      "start": 14.7113,
      "duration": 0.007,
      "velocity": 104,
      "chip": "ym2612"
    },
    {
      "channel": 1,
      "note": 74,
      "start": 14.717,
      "duration": 0.0769,
      "velocity": 99,
      "chip": "ym2612"
    },
    {
      "channel": 2,
      "note": 69,
      "start": 14.7175,
      "duration": 0.0767,
      "velocity": 99,
      "chip": "ym2612"
    },
    {
      "channel": 3,
      "note": 87,
      "start": 14.7183,
      "duration": 0.034,
      "velocity": 104,
      "chip": "ym2612"
    },
    {
      "channel": 4,
      "note": 81,
      "start": 14.719,
      "duration": 0.0339,
      "velocity": 104,
      "chip": "ym2612"
    },
    {
      "channel": 4,
      "note": 86,
      "start": 14.7529,
      "duration": 0.0639,
      "velocity": 104,
      "chip": "ym2612"
    },
    {
      "channel": 1,
      "note": 77,
      "start": 14.8152,
      "duration": 0.012,
      "velocity": 99,
      "chip": "ym2612"
    },
    {
      "channel": 2,
      "note": 72,
      "start": 14.8158,
      "duration": 0.0117,
      "velocity": 99,
      "chip": "ym2612"
    },
    {
      "channel": 4,
      "note": 87,
      "start": 14.8169,
      "duration": 0.0068,
      "velocity": 104,
      "chip": "ym2612"
    },
    {
      "channel": 3,
      "note": 86,
      "start": 14.8192,
      "duration": 0.0062,
      "velocity": 104,
      "chip": "ym2612"
    },
    {
      "channel": 1,
      "note": 72,
      "start": 14.8297,
      "duration": 0.077,
      "velocity": 99,
      "chip": "ym2612"
    },
    {
      "channel": 2,
      "note": 74,
      "start": 14.8302,
      "duration": 0.0768,
      "velocity": 99,
      "chip": "ym2612"
    },
    {
      "channel": 4,
      "note": 86,
      "start": 14.8332,
      "duration": 0.0536,
      "velocity": 104,
      "chip": "ym2612"
    },
    {
      "channel": 3,
      "note": 81,
      "start": 14.8864,
      "duration": 0.045,
      "velocity": 104,
      "chip": "ym2612"
    },
    {
      "channel": 0,
      "note": 43,
      "start": 14.9277,
      "duration": 0.1424,
      "velocity": 102,
      "chip": "ym2612"
    },
    {
      "channel": 1,
      "note": 74,
      "start": 14.9282,
      "duration": 0.0111,
      "velocity": 99,
      "chip": "ym2612"
    },
    {
      "channel": 4,
      "note": 81,
      "start": 14.938,
      "duration": 0.0091,
      "velocity": 104,
      "chip": "ym2612"
    },
    {
      "channel": 1,
      "note": 79,
      "start": 14.943,
      "duration": 0.0113,
      "velocity": 99,
      "chip": "ym2612"
    },
    {
      "channel": 2,
      "note": 69,
      "start": 14.9435,
      "duration": 0.0111,
      "velocity": 99,
      "chip": "ym2612"
    },
    {
      "channel": 3,
      "note": 76,
      "start": 14.9466,
      "duration": 0.0062,
      "velocity": 104,
      "chip": "ym2612"
    },
    {
      "channel": 1,
      "note": 72,
      "start": 14.9566,
      "duration": 0.0777,
      "velocity": 99,
      "chip": "ym2612"
    },
    {
      "channel": 4,
      "note": 76,
      "start": 14.9599,
      "duration": 0.0546,
      "velocity": 104,
      "chip": "ym2612"
    },
    {
      "channel": 3,
      "note": 74,
      "start": 15.014,
      "duration": 0.0448,
      "velocity": 104,
      "chip": "ym2612"
    },
    {
      "channel": 1,
      "note": 74,
      "start": 15.0556,
      "duration": 0.0116,
      "velocity": 99,
      "chip": "ym2612"
    },
    {
      "channel": 2,
      "note": 69,
      "start": 15.0561,
      "duration": 0.0113,
      "velocity": 99,
      "chip": "ym2612"
    },
    {
      "channel": 4,
      "note": 74,
      "start": 15.0659,
      "duration": 0.0093,
      "velocity": 104,
      "chip": "ym2612"
    },
    {
      "channel": 0,
      "note": 39,
      "start": 15.0703,
      "duration": 0.1428,
      "velocity": 102,
      "chip": "ym2612"
    },
    {
      "channel": 1,
      "note": 76,
      "start": 15.0709,
      "duration": 0.0118,
      "velocity": 99,
      "chip": "ym2612"
    },
    {
      "channel": 2,
      "note": 71,
      "start": 15.0715,
      "duration": 0.0115,
      "velocity": 99,
      "chip": "ym2612"
    },
    {
      "channel": 3,
      "note": 69,
      "start": 15.0722,
      "duration": 0.1224,
      "velocity": 104,
      "chip": "ym2612"
    },
    {
      "channel": 1,
      "note": 83,
      "start": 15.0851,
      "duration": 0.0768,
      "velocity": 99,
      "chip": "ym2612"
    },
    {
      "channel": 2,
      "note": 74,
      "start": 15.0857,
      "duration": 0.0764,
      "velocity": 99,
      "chip": "ym2612"
    },
    {
      "channel": 4,
      "note": 69,
      "start": 15.0867,
      "duration": 0.1237,
      "velocity": 104,
      "chip": "ym2612"
    },
    {
      "channel": 1,
      "note": 81,
      "start": 15.1832,
      "duration": 0.0109,
      "velocity": 99,
      "chip": "ym2612"
    },
    {
      "channel": 2,
      "note": 76,
      "start": 15.1837,
      "duration": 0.0106,
      "velocity": 99,
      "chip": "ym2612"
    },
    {
      "channel": 1,
      "note": 76,
      "start": 15.1979,
      "duration": 0.0115,
      "velocity": 99,
      "chip": "ym2612"
    },
    {
      "channel": 2,
      "note": 74,
      "start": 15.1984,
      "duration": 0.0113,
      "velocity": 99,
      "chip": "ym2612"
    },
    {
      "channel": 3,
      "note": 73,
      "start": 15.1991,
      "duration": 0.0224,
      "velocity": 104,
      "chip": "ym2612"
    },
    {
      "channel": 0,
      "note": 41,
      "start": 15.2134,
      "duration": 0.1125,
      "velocity": 102,
      "chip": "ym2612"
    },
    {
      "channel": 1,
      "note": 74,
      "start": 15.2139,
      "duration": 0.0112,
      "velocity": 99,
      "chip": "ym2612"
    },
    {
      "channel": 2,
      "note": 69,
      "start": 15.2145,
      "duration": 0.0109,
      "velocity": 99,
      "chip": "ym2612"
    },
    {
      "channel": 4,
      "note": 73,
      "start": 15.2155,
      "duration": 0.0482,
      "velocity": 104,
      "chip": "ym2612"
    },
    {
      "channel": 1,
      "note": 76,
      "start": 15.2274,
      "duration": 0.0776,
      "velocity": 99,
      "chip": "ym2612"
    },
    {
      "channel": 2,
      "note": 71,
      "start": 15.228,
      "duration": 0.0773,
      "velocity": 99,
      "chip": "ym2612"
    },
    {
      "channel": 0,
      "note": 40,
      "start": 15.3262,
      "duration": 0.2247,
      "velocity": 102,
      "chip": "ym2612"
    },
    {
      "channel": 1,
      "note": 76,
      "start": 15.3269,
      "duration": 0.0114,
      "velocity": 99,
      "chip": "ym2612"
    },
    {
      "channel": 2,
      "note": 71,
      "start": 15.3276,
      "duration": 0.011,
      "velocity": 99,
      "chip": "ym2612"
    },
    {
      "channel": 3,
      "note": 80,
      "start": 15.3284,
      "duration": 0.4562,
      "velocity": 104,
      "chip": "ym2612"
    },
    {
      "channel": 1,
      "note": 71,
      "start": 15.3406,
      "duration": 0.0771,
      "velocity": 99,
      "chip": "ym2612"
    },
    {
      "channel": 2,
      "note": 64,
      "start": 15.3412,
      "duration": 0.0768,
      "velocity": 99,
      "chip": "ym2612"
    },
    {
      "channel": 4,
      "note": 80,
      "start": 15.3422,
      "duration": 0.4752,
      "velocity": 104,
      "chip": "ym2612"
    },
    {
      "channel": 1,
      "note": 69,
      "start": 15.439,
      "duration": 0.0106,
      "velocity": 99,
      "chip": "ym2612"
    },
    {
      "channel": 2,
      "note": 66,
      "start": 15.4395,
      "duration": 0.0103,
      "velocity": 99,
      "chip": "ym2612"
    },
    {
      "channel": 1,
      "note": 71,
      "start": 15.452,
      "duration": 0.0782,
      "velocity": 99,
      "chip": "ym2612"
    },
    {
      "channel": 2,
      "note": 69,
      "start": 15.4525,
      "duration": 0.0779,
      "velocity": 99,
      "chip": "ym2612"
    },
    {
      "channel": 0,
      "note": 40,
      "start": 15.5511,
      "duration": 0.1409,
      "velocity": 102,
      "chip": "ym2612"
    },
    {
      "channel": 1,
      "note": 76,
      "start": 15.5517,
      "duration": 0.0107,
      "velocity": 99,
      "chip": "ym2612"
    },
    {
      "channel": 2,
      "note": 71,
      "start": 15.5522,
      "duration": 0.0105,
      "velocity": 99,
      "chip": "ym2612"
    },
    {
      "channel": 1,
      "note": 71,
      "start": 15.5649,
      "duration": 0.0111,
      "velocity": 99,
      "chip": "ym2612"
    },
    {
      "channel": 2,
      "note": 64,
      "start": 15.5655,
      "duration": 0.0108,
      "velocity": 99,
      "chip": "ym2612"
    },
    {
      "channel": 1,
      "note": 69,
      "start": 15.5783,
      "duration": 0.0781,
      "velocity": 99,
      "chip": "ym2612"
    },
    {
      "channel": 2,
      "note": 66,
      "start": 15.5789,
      "duration": 0.0778,
      "velocity": 99,
      "chip": "ym2612"
    },
    {
      "channel": 1,
      "note": 71,
      "start": 15.6777,
      "duration": 0.0113,
      "velocity": 99,
      "chip": "ym2612"
    },
    {
      "channel": 2,
      "note": 69,
      "start": 15.6782,
      "duration": 0.011,
      "velocity": 99,
      "chip": "ym2612"
    },
    {
      "channel": 0,
      "note": 39,
      "start": 15.6923,
      "duration": 0.1417,
      "velocity": 102,
      "chip": "ym2612"
    },
    {
      "channel": 1,
      "note": 74,
      "start": 15.6928,
      "duration": 0.0109,
      "velocity": 99,
      "chip": "ym2612"
    },
    {
      "channel": 2,
      "note": 69,
      "start": 15.6934,
      "duration": 0.0106,
      "velocity": 99,
      "chip": "ym2612"
    },
    {
      "channel": 1,
      "note": 69,
      "start": 15.7061,
      "duration": 0.0779,
      "velocity": 99,
      "chip": "ym2612"
    },
    {
      "channel": 2,
      "note": 62,
      "start": 15.7066,
      "duration": 0.0776,
      "velocity": 99,
      "chip": "ym2612"
    },
    {
      "channel": 1,
      "note": 67,
      "start": 15.8052,
      "duration": 0.0112,
      "velocity": 99,
      "chip": "ym2612"
    },
    {
      "channel": 2,
      "note": 64,
      "start": 15.8057,
      "duration": 0.0109,
      "velocity": 99,
      "chip": "ym2612"
    },
    {
      "channel": 1,
      "note": 69,
      "start": 15.8189,
      "duration": 0.0117,
      "velocity": 99,
      "chip": "ym2612"
    },
    {
      "channel": 2,
      "note": 67,
      "start": 15.8195,
      "duration": 0.0114,
      "velocity": 99,
      "chip": "ym2612"
    },
    {
      "channel": 3,
      "note": 81,
      "start": 15.8202,
      "duration": 0.0067,
      "velocity": 104,
      "chip": "ym2612"
    },
    {
      "channel": 3,
      "note": 81,
      "start": 15.8268,
      "duration": 0.0092,
      "velocity": 104,
      "chip": "ym2612"
    },
    {
      "channel": 0,
      "note": 39,
      "start": 15.8342,
      "duration": 0.1383,
      "velocity": 102,
      "chip": "ym2612"
    },
    {
      "channel": 1,
      "note": 74,
      "start": 15.8348,
      "duration": 0.0119,
      "velocity": 99,
      "chip": "ym2612"
    },
    {
      "channel": 2,
      "note": 69,
      "start": 15.8353,
      "duration": 0.0116,
      "velocity": 99,
      "chip": "ym2612"
    },
    {
      "channel": 3,
      "note": 80,
      "start": 15.836,
      "duration": 0.1445,
      "velocity": 104,
      "chip": "ym2612"
    },
    {
      "channel": 4,
      "note": 81,
      "start": 15.8368,
      "duration": 0.0066,
      "velocity": 104,
      "chip": "ym2612"
    },
    {
      "channel": 4,
      "note": 81,
      "start": 15.8434,
      "duration": 0.0071,
      "velocity": 104,
      "chip": "ym2612"
    },
    {
      "channel": 1,
      "note": 69,
      "start": 15.8489,
      "duration": 0.0767,
      "velocity": 99,
      "chip": "ym2612"
    },
    {
      "channel": 2,
      "note": 62,
      "start": 15.8494,
      "duration": 0.0765,
      "velocity": 99,
      "chip": "ym2612"
    },
    {
      "channel": 4,
      "note": 80,
      "start": 15.8505,
      "duration": 0.1723,
      "velocity": 104,
      "chip": "ym2612"
    },
    {
      "channel": 1,
      "note": 67,
      "start": 15.9469,
      "duration": 0.0107,
      "velocity": 99,
      "chip": "ym2612"
    },
    {
      "channel": 2,
      "note": 64,
      "start": 15.9474,
      "duration": 0.0105,
      "velocity": 99,
      "chip": "ym2612"
    },
    {
      "channel": 1,
      "note": 69,
      "start": 15.96,
      "duration": 0.0106,
      "velocity": 99,
      "chip": "ym2612"
    },
    {
      "channel": 2,
      "note": 67,
      "start": 15.9606,
      "duration": 0.0103,
      "velocity": 99,
      "chip": "ym2612"
    },
    {
      "channel": 0,
      "note": 37,
      "start": 15.9727,
      "duration": 0.2249,
      "velocity": 102,
      "chip": "ym2612"
    },
    {
      "channel": 1,
      "note": 72,
      "start": 15.9733,
      "duration": 0.0108,
      "velocity": 99,
      "chip": "ym2612"
    },
    {
      "channel": 2,
      "note": 67,
      "start": 15.9738,
      "duration": 0.0106,
      "velocity": 99,
      "chip": "ym2612"
    },
    {
      "channel": 1,
      "note": 67,
      "start": 15.9863,
      "duration": 0.0778,
      "velocity": 99,
      "chip": "ym2612"
    },
    {
      "channel": 2,
      "note": 60,
      "start": 15.9869,
      "duration": 0.0775,
      "velocity": 99,
      "chip": "ym2612"
    },
    {
      "channel": 1,
      "note": 65,
      "start": 16.0854,
      "duration": 0.0114,
      "velocity": 99,
      "chip": "ym2612"
    },
    {
      "channel": 2,
      "note": 62,
      "start": 16.0859,
      "duration": 0.011,
      "velocity": 99,
      "chip": "ym2612"
    },
    {
      "channel": 3,
      "note": 79,
      "start": 16.0866,
      "duration": 0.0065,
      "velocity": 104,
      "chip": "ym2612"
    },
    {
      "channel": 1,
      "note": 67,
      "start": 16.0992,
      "duration": 0.0777,
      "velocity": 99,
      "chip": "ym2612"
    },
    {
      "channel": 2,
      "note": 65,
      "start": 16.0997,
      "duration": 0.0775,
      "velocity": 99,
      "chip": "ym2612"
    },
    {
      "channel": 4,
      "note": 79,
      "start": 16.1006,
      "duration": 0.0349,
      "velocity": 104,
      "chip": "ym2612"
    },
    {
      "channel": 3,
      "note": 78,
      "start": 16.1777,
      "duration": 0.026,
      "velocity": 104,
      "chip": "ym2612"
    },
    {
      "channel": 0,
      "note": 37,
      "start": 16.1978,
      "duration": 0.1412,
      "velocity": 102,
      "chip": "ym2612"
    },
    {
      "channel": 1,
      "note": 72,
      "start": 16.1984,
      "duration": 0.011,
      "velocity": 99,
      "chip": "ym2612"
    },
    {
      "channel": 2,
      "note": 67,
      "start": 16.1989,
      "duration": 0.0106,
      "velocity": 99,
      "chip": "ym2612"
    },
    {
      "channel": 4,
      "note": 78,
      "start": 16.2105,
      "duration": 0.0078,
      "velocity": 104,
      "chip": "ym2612"
    },
    {
      "channel": 1,
      "note": 67,
      "start": 16.212,
      "duration": 0.0114,
      "velocity": 99,
      "chip": "ym2612"
    },
    {
      "channel": 2,
      "note": 60,
      "start": 16.2125,
      "duration": 0.0112,
      "velocity": 99,
      "chip": "ym2612"
    },
    {
      "channel": 3,
      "note": 72,
      "start": 16.2178,
      "duration": 0.0062,
      "velocity": 104,
      "chip": "ym2612"
    },
    {
      "channel": 1,
      "note": 65,
      "start": 16.2256,
      "duration": 0.0777,
      "velocity": 99,
      "chip": "ym2612"
    },
    {
      "channel": 2,
      "note": 62,
      "start": 16.2262,
      "duration": 0.0773,
      "velocity": 99,
      "chip": "ym2612"
    },
    {
      "channel": 4,
      "note": 72,
      "start": 16.2411,
      "duration": 0.0631,
      "velocity": 104,
      "chip": "ym2612"
    },
    {
      "channel": 3,
      "note": 71,
      "start": 16.283,
      "duration": 0.045,
      "velocity": 104,
      "chip": "ym2612"
    },
    {
      "channel": 1,
      "note": 67,
      "start": 16.3245,
      "duration": 0.0119,
      "velocity": 99,
      "chip": "ym2612"
    },
    {
      "channel": 2,
      "note": 65,
      "start": 16.3251,
      "duration": 0.0116,
      "velocity": 99,
      "chip": "ym2612"
    },
    {
      "channel": 4,
      "note": 71,
      "start": 16.3351,
      "duration": 0.009,
      "velocity": 104,
      "chip": "ym2612"
    },
    {
      "channel": 0,
      "note": 37,
      "start": 16.3393,
      "duration": 0.1447,
      "velocity": 102,
      "chip": "ym2612"
    },
    {
      "channel": 1,
      "note": 72,
      "start": 16.3398,
      "duration": 0.0121,
      "velocity": 99,
      "chip": "ym2612"
    },
    {
      "channel": 2,
      "note": 67,
      "start": 16.3404,
      "duration": 0.0117,
      "velocity": 99,
      "chip": "ym2612"
    },
    {
      "channel": 3,
      "note": 65,
      "start": 16.3411,
      "duration": 0.0903,
      "velocity": 104,
      "chip": "ym2612"
    },
    {
      "channel": 1,
      "note": 67,
      "start": 16.3543,
      "duration": 0.0766,
      "velocity": 99,
      "chip": "ym2612"
    },
    {
      "channel": 2,
      "note": 60,
      "start": 16.3548,
      "duration": 0.0763,
      "velocity": 99,
      "chip": "ym2612"
    },
    {
      "channel": 4,
      "note": 65,
      "start": 16.356,
      "duration": 0.1104,
      "velocity": 104,
      "chip": "ym2612"
    },
    {
      "channel": 1,
      "note": 65,
      "start": 16.4521,
      "duration": 0.0132,
      "velocity": 99,
      "chip": "ym2612"
    },
    {
      "channel": 2,
      "note": 62,
      "start": 16.4527,
      "duration": 0.0129,
      "velocity": 99,
      "chip": "ym2612"
    },
    {
      "channel": 3,
      "note": 68,
      "start": 16.4534,
      "duration": 0.0005,
      "velocity": 104,
      "chip": "ym2612"
    },
    {
      "channel": 3,
      "note": 68,
      "start": 16.4538,
      "duration": 0.0241,
      "velocity": 104,
      "chip": "ym2612"
    },
    {
      "channel": 1,
      "note": 67,
      "start": 16.4685,
      "duration": 0.0137,
      "velocity": 99,
      "chip": "ym2612"
    },
    {
      "channel": 2,
      "note": 65,
      "start": 16.469,
      "duration": 0.0133,
      "velocity": 99,
      "chip": "ym2612"
    },
    {
      "channel": 4,
      "note": 68,
      "start": 16.4702,
      "duration": 0.0004,
      "velocity": 104,
      "chip": "ym2612"
    },
    {
      "channel": 4,
      "note": 68,
      "start": 16.4706,
      "duration": 0.0261,
      "velocity": 104,
      "chip": "ym2612"
    },
    {
      "channel": 0,
      "note": 44,
      "start": 16.4843,
      "duration": 0.1123,
      "velocity": 102,
      "chip": "ym2612"
    },
    {
      "channel": 1,
      "note": 70,
      "start": 16.4848,
      "duration": 0.0111,
      "velocity": 99,
      "chip": "ym2612"
    },
    {
      "channel": 2,
      "note": 67,
      "start": 16.4854,
      "duration": 0.0108,
      "velocity": 99,
      "chip": "ym2612"
    },
    {
      "channel": 1,
      "note": 67,
      "start": 16.4982,
      "duration": 0.0776,
      "velocity": 99,
      "chip": "ym2612"
    },
    {
      "channel": 2,
      "note": 65,
      "start": 16.4987,
      "duration": 0.0773,
      "velocity": 99,
      "chip": "ym2612"
    },
    {
      "channel": 0,
      "note": 49,
      "start": 16.5969,
      "duration": 0.2252,
      "velocity": 102,
      "chip": "ym2612"
    },
    {
      "channel": 1,
      "note": 72,
      "start": 16.5977,
      "duration": 0.0161,
      "velocity": 99,
      "chip": "ym2612"
    },
    {
      "channel": 2,
      "note": 67,
      "start": 16.6,
      "duration": 0.0141,
      "velocity": 99,
      "chip": "ym2612"
    },
    {
      "channel": 4,
      "note": 68,
      "start": 16.6037,
      "duration": 0.2206,
      "velocity": 127,
      "chip": "ym2612"
    },
    {
      "channel": 1,
      "note": 67,
      "start": 16.6161,
      "duration": 0.0724,
      "velocity": 99,
      "chip": "ym2612"
    },
    {
      "channel": 2,
      "note": 60,
      "start": 16.6166,
      "duration": 0.0722,
      "velocity": 99,
      "chip": "ym2612"
    },
    {
      "channel": 1,
      "note": 65,
      "start": 16.7098,
      "duration": 0.0114,
      "velocity": 99,
      "chip": "ym2612"
    },
    {
      "channel": 2,
      "note": 63,
      "start": 16.7103,
      "duration": 0.0111,
      "velocity": 99,
      "chip": "ym2612"
    },
    {
      "channel": 1,
      "note": 77,
      "start": 16.7236,
      "duration": 0.0778,
      "velocity": 99,
      "chip": "ym2612"
    },
    {
      "channel": 2,
      "note": 60,
      "start": 16.7242,
      "duration": 0.0775,
      "velocity": 99,
      "chip": "ym2612"
    },
    {
      "channel": 0,
      "note": 49,
      "start": 16.8225,
      "duration": 0.1424,
      "velocity": 102,
      "chip": "ym2612"
    },
    {
      "channel": 1,
      "note": 72,
      "start": 16.8231,
      "duration": 0.0116,
      "velocity": 99,
      "chip": "ym2612"
    },
    {
      "channel": 2,
      "note": 63,
      "start": 16.8236,
      "duration": 0.0114,
      "velocity": 99,
      "chip": "ym2612"
    },
    {
      "channel": 4,
      "note": 93,
      "start": 16.8247,
      "duration": 0.1424,
      "velocity": 127,
      "chip": "ym2612"
    },
    {
      "channel": 1,
      "note": 70,
      "start": 16.8377,
      "duration": 0.0112,
      "velocity": 99,
      "chip": "ym2612"
    },
    {
      "channel": 2,
      "note": 65,
      "start": 16.8382,
      "duration": 0.011,
      "velocity": 99,
      "chip": "ym2612"
    },
    {
      "channel": 1,
      "note": 79,
      "start": 16.8513,
      "duration": 0.0778,
      "velocity": 99,
      "chip": "ym2612"
    },
    {
      "channel": 2,
      "note": 63,
      "start": 16.8519,
      "duration": 0.0775,
      "velocity": 99,
      "chip": "ym2612"
    },
    {
      "channel": 1,
      "note": 77,
      "start": 16.9505,
      "duration": 0.0115,
      "velocity": 99,
      "chip": "ym2612"
    },
    {
      "channel": 2,
      "note": 67,
      "start": 16.951,
      "duration": 0.0112,
      "velocity": 99,
      "chip": "ym2612"
    },
    {
      "channel": 0,
      "note": 49,
      "start": 16.9653,
      "duration": 0.1416,
      "velocity": 102,
      "chip": "ym2612"
    },
    {
      "channel": 1,
      "note": 72,
      "start": 16.9658,
      "duration": 0.0116,
      "velocity": 99,
      "chip": "ym2612"
    },
    {
      "channel": 2,
      "note": 70,
      "start": 16.9664,
      "duration": 0.0113,
      "velocity": 99,
      "chip": "ym2612"
    },
    {
      "channel": 4,
      "note": 93,
      "start": 16.9674,
      "duration": 0.112,
      "velocity": 127,
      "chip": "ym2612"
    },
    {
      "channel": 1,
      "note": 82,
      "start": 16.9798,
      "duration": 0.0769,
      "velocity": 99,
      "chip": "ym2612"
    },
    {
      "channel": 2,
      "note": 65,
      "start": 16.9804,
      "duration": 0.0766,
      "velocity": 99,
      "chip": "ym2612"
    },
    {
      "channel": 1,
      "note": 79,
      "start": 17.0782,
      "duration": 0.0119,
      "velocity": 99,
      "chip": "ym2612"
    },
    {
      "channel": 2,
      "note": 70,
      "start": 17.0788,
      "duration": 0.0116,
      "velocity": 99,
      "chip": "ym2612"
    },
    {
      "channel": 4,
      "note": 93,
      "start": 17.0798,
      "duration": 0.1415,
      "velocity": 127,
      "chip": "ym2612"
    },
    {
      "channel": 1,
      "note": 77,
      "start": 17.0926,
      "duration": 0.0112,
      "velocity": 99,
      "chip": "ym2612"
    },
    {
      "channel": 2,
      "note": 72,
      "start": 17.0931,
      "duration": 0.011,
      "velocity": 99,
      "chip": "ym2612"
    },
    {
      "channel": 0,
      "note": 49,
      "start": 17.1073,
      "duration": 0.1414,
      "velocity": 102,
      "chip": "ym2612"
    },
    {
      "channel": 1,
      "note": 84,
      "start": 17.1079,
      "duration": 0.0112,
      "velocity": 99,
      "chip": "ym2612"
    },
    {
      "channel": 2,
      "note": 67,
      "start": 17.1085,
      "duration": 0.0108,
      "velocity": 99,
      "chip": "ym2612"
    },
    {
      "channel": 1,
      "note": 82,
      "start": 17.1215,
      "duration": 0.0772,
      "velocity": 99,
      "chip": "ym2612"
    },
    {
      "channel": 2,
      "note": 72,
      "start": 17.122,
      "duration": 0.0769,
      "velocity": 99,
      "chip": "ym2612"
    },
    {
      "channel": 1,
      "note": 79,
      "start": 17.2199,
      "duration": 0.0119,
      "velocity": 99,
      "chip": "ym2612"
    },
    {
      "channel": 2,
      "note": 75,
      "start": 17.2205,
      "duration": 0.0116,
      "velocity": 99,
      "chip": "ym2612"
    },
    {
      "channel": 4,
      "note": 93,
      "start": 17.2215,
      "duration": 0.0293,
      "velocity": 127,
      "chip": "ym2612"
    },
    {
      "channel": 1,
      "note": 82,
      "start": 17.2343,
      "duration": 0.0113,
      "velocity": 99,
      "chip": "ym2612"
    },
    {
      "channel": 2,
      "note": 77,
      "start": 17.2348,
      "duration": 0.011,
      "velocity": 99,
      "chip": "ym2612"
    },
    {
      "channel": 0,
      "note": 49,
      "start": 17.2491,
      "duration": 0.225,
      "velocity": 102,
      "chip": "ym2612"
    },
    {
      "channel": 1,
      "note": 87,
      "start": 17.2497,
      "duration": 0.0119,
      "velocity": 99,
      "chip": "ym2612"
    },
    {
      "channel": 4,
      "note": 93,
      "start": 17.2511,
      "duration": 0.2252,
      "velocity": 127,
      "chip": "ym2612"
    },
    {
      "channel": 2,
      "note": 82,
      "start": 17.2575,
      "duration": 0.0201,
      "velocity": 99,
      "chip": "ym2612"
    },
    {
      "channel": 1,
      "note": 87,
      "start": 17.2639,
      "duration": 0.0767,
      "velocity": 99,
      "chip": "ym2612"
    },
    {
      "channel": 2,
      "note": 82,
      "start": 17.2989,
      "duration": 0.0679,
      "velocity": 99,
      "chip": "ym2612"
    },
    {
      "channel": 1,
      "note": 87,
      "start": 17.3619,
      "duration": 0.0114,
      "velocity": 99,
      "chip": "ym2612"
    },
    {
      "channel": 2,
      "note": 82,
      "start": 17.3691,
      "duration": 0.0213,
      "velocity": 99,
      "chip": "ym2612"
    },
    {
      "channel": 1,
      "note": 87,
      "start": 17.3757,
      "duration": 0.0777,
      "velocity": 99,
      "chip": "ym2612"
    },
    {
      "channel": 2,
      "note": 82,
      "start": 17.4117,
      "duration": 0.0419,
      "velocity": 99,
      "chip": "ym2612"
    },
    {
      "channel": 0,
      "note": 44,
      "start": 17.4745,
      "duration": 0.1425,
      "velocity": 102,
      "chip": "ym2612"
    },
    {
      "channel": 1,
      "note": 84,
      "start": 17.475,
      "duration": 0.0116,
      "velocity": 99,
      "chip": "ym2612"
    },
    {
      "channel": 2,
      "note": 79,
      "start": 17.4756,
      "duration": 0.0114,
      "velocity": 99,
      "chip": "ym2612"
    },
    {
      "channel": 4,
      "note": 93,
      "start": 17.4766,
      "duration": 0.1584,
      "velocity": 127,
      "chip": "ym2612"
    },
    {
      "channel": 1,
      "note": 82,
      "start": 17.4897,
      "duration": 0.0113,
      "velocity": 99,
      "chip": "ym2612"
    },
    {
      "channel": 2,
      "note": 77,
      "start": 17.4902,
      "duration": 0.0111,
      "velocity": 99,
      "chip": "ym2612"
    },
    {
      "channel": 1,
      "note": 79,
      "start": 17.5033,
      "duration": 0.0779,
      "velocity": 99,
      "chip": "ym2612"
    },
    {
      "channel": 2,
      "note": 74,
      "start": 17.5039,
      "duration": 0.0776,
      "velocity": 99,
      "chip": "ym2612"
    },
    {
      "channel": 1,
      "note": 77,
      "start": 17.6024,
      "duration": 0.0117,
      "velocity": 99,
      "chip": "ym2612"
    },
    {
      "channel": 2,
      "note": 72,
      "start": 17.603,
      "duration": 0.0113,
      "velocity": 99,
      "chip": "ym2612"
    },
    {
      "channel": 0,
      "note": 37,
      "start": 17.6172,
      "duration": 0.1427,
      "velocity": 102,
      "chip": "ym2612"
    },
    {
      "channel": 1,
      "note": 75,
      "start": 17.6179,
      "duration": 0.0131,
      "velocity": 99,
      "chip": "ym2612"
    },
    {
      "channel": 2,
      "note": 70,
      "start": 17.6202,
      "duration": 0.011,
      "velocity": 99,
      "chip": "ym2612"
    },
    {
      "channel": 3,
      "note": 68,
      "start": 17.6209,
      "duration": 0.0107,
      "velocity": 104,
      "chip": "ym2612"
    },
    {
      "channel": 1,
      "note": 72,
      "start": 17.6334,
      "duration": 0.0753,
      "velocity": 99,
      "chip": "ym2612"
    },
    {
      "channel": 2,
      "note": 63,
      "start": 17.6339,
      "duration": 0.0751,
      "velocity": 99,
      "chip": "ym2612"
    },
    {
      "channel": 3,
      "note": 65,
      "start": 17.6345,
      "duration": 0.0748,
      "velocity": 104,
      "chip": "ym2612"
    },
    {
      "channel": 4,
      "note": 93,
      "start": 17.6381,
      "duration": 0.0715,
      "velocity": 104,
      "chip": "ym2612"
    },
    {
      "channel": 1,
      "note": 70,
      "start": 17.73,
      "duration": 0.0117,
      "velocity": 99,
      "chip": "ym2612"
    },
    {
      "channel": 2,
      "note": 65,
      "start": 17.7305,
      "duration": 0.0115,
      "velocity": 99,
      "chip": "ym2612"
    },
    {
      "channel": 3,
      "note": 70,
      "start": 17.7312,
      "duration": 0.0089,
      "velocity": 104,
      "chip": "ym2612"
    },
    {
      "channel": 4,
      "note": 65,
      "start": 17.7319,
      "duration": 0.0111,
      "velocity": 104,
      "chip": "ym2612"
    },
    {
      "channel": 3,
      "note": 72,
      "start": 17.7426,
      "duration": 0.01,
      "velocity": 104,
      "chip": "ym2612"
    },
    {
      "channel": 1,
      "note": 75,
      "start": 17.7448,
      "duration": 0.012,
      "velocity": 99,
      "chip": "ym2612"
    },
    {
      "channel": 2,
      "note": 70,
      "start": 17.7453,
      "duration": 0.0117,
      "velocity": 99,
      "chip": "ym2612"
    },
    {
      "channel": 4,
      "note": 70,
      "start": 17.7463,
      "duration": 0.0092,
      "velocity": 104,
      "chip": "ym2612"
    },
    {
      "channel": 3,
      "note": 75,
      "start": 17.755,
      "duration": 0.0091,
      "velocity": 104,
      "chip": "ym2612"
    },
    {
      "channel": 4,
      "note": 72,
      "start": 17.7579,
      "duration": 0.0108,
      "velocity": 104,
      "chip": "ym2612"
    },
    {
      "channel": 0,
      "note": 37,
      "start": 17.7602,
      "duration": 0.1124,
      "velocity": 102,
      "chip": "ym2612"
    },
    {
      "channel": 1,
      "note": 72,
      "start": 17.7607,
      "duration": 0.0115,
      "velocity": 99,
      "chip": "ym2612"
    },
    {
      "channel": 2,
      "note": 63,
      "start": 17.7613,
      "duration": 0.0112,
      "velocity": 99,
      "chip": "ym2612"
    },
    {
      "channel": 3,
      "note": 77,
      "start": 17.7663,
      "duration": 0.0065,
      "velocity": 104,
      "chip": "ym2612"
    },
    {
      "channel": 4,
      "note": 75,
      "start": 17.771,
      "duration": 0.0069,
      "velocity": 104,
      "chip": "ym2612"
    },
    {
      "channel": 1,
      "note": 70,
      "start": 17.7746,
      "duration": 0.0772,
      "velocity": 99,
      "chip": "ym2612"
    },
    {
      "channel": 2,
      "note": 65,
      "start": 17.7751,
      "duration": 0.077,
      "velocity": 99,
      "chip": "ym2612"
    },
    {
      "channel": 4,
      "note": 77,
      "start": 17.7897,
      "duration": 0.063,
      "velocity": 104,
      "chip": "ym2612"
    },
    {
      "channel": 0,
      "note": 42,
      "start": 17.8729,
      "duration": 0.2246,
      "velocity": 102,
      "chip": "ym2612"
    },
    {
      "channel": 1,
      "note": 78,
      "start": 17.8734,
      "duration": 0.0113,
      "velocity": 99,
      "chip": "ym2612"
    },
    {
      "channel": 2,
      "note": 73,
      "start": 17.874,
      "duration": 0.011,
      "velocity": 99,
      "chip": "ym2612"
    },
    {
      "channel": 3,
      "note": 81,
      "start": 17.8746,
      "duration": 0.4568,
      "velocity": 104,
      "chip": "ym2612"
    },
    {
      "channel": 1,
      "note": 73,
      "start": 17.887,
      "duration": 0.0772,
      "velocity": 99,
      "chip": "ym2612"
    },
    {
      "channel": 2,
      "note": 66,
      "start": 17.8875,
      "duration": 0.0769,
      "velocity": 99,
      "chip": "ym2612"
    },
    {
      "channel": 4,
      "note": 81,
      "start": 17.8885,
      "duration": 0.4756,
      "velocity": 104,
      "chip": "ym2612"
    },
    {
      "channel": 1,
      "note": 71,
      "start": 17.9855,
      "duration": 0.0108,
      "velocity": 99,
      "chip": "ym2612"
    },
    {
      "channel": 2,
      "note": 68,
      "start": 17.986,
      "duration": 0.0106,
      "velocity": 99,
      "chip": "ym2612"
    },
    {
      "channel": 1,
      "note": 73,
      "start": 17.9986,
      "duration": 0.0782,
      "velocity": 99,
      "chip": "ym2612"
    },
    {
      "channel": 2,
      "note": 71,
      "start": 17.9992,
      "duration": 0.0779,
      "velocity": 99,
      "chip": "ym2612"
    },
    {
      "channel": 0,
      "note": 42,
      "start": 18.0978,
      "duration": 0.1412,
      "velocity": 102,
      "chip": "ym2612"
    },
    {
      "channel": 1,
      "note": 78,
      "start": 18.0983,
      "duration": 0.0108,
      "velocity": 99,
      "chip": "ym2612"
    },
    {
      "channel": 2,
      "note": 73,
      "start": 18.0989,
      "duration": 0.0105,
      "velocity": 99,
      "chip": "ym2612"
    },
    {
      "channel": 1,
      "note": 73,
      "start": 18.1116,
      "duration": 0.011,
      "velocity": 99,
      "chip": "ym2612"
    },
    {
      "channel": 2,
      "note": 66,
      "start": 18.1121,
      "duration": 0.0108,
      "velocity": 99,
      "chip": "ym2612"
    },
    {
      "channel": 1,
      "note": 71,
      "start": 18.125,
      "duration": 0.0782,
      "velocity": 99,
      "chip": "ym2612"
    },
    {
      "channel": 2,
      "note": 68,
      "start": 18.1255,
      "duration": 0.0779,
      "velocity": 99,
      "chip": "ym2612"
    },
    {
      "channel": 1,
      "note": 73,
      "start": 18.2244,
      "duration": 0.0114,
      "velocity": 99,
      "chip": "ym2612"
    },
    {
      "channel": 2,
      "note": 71,
      "start": 18.225,
      "duration": 0.0111,
      "velocity": 99,
      "chip": "ym2612"
    },
    {
      "channel": 0,
      "note": 41,
      "start": 18.2392,
      "duration": 0.1416,
      "velocity": 102,
      "chip": "ym2612"
    },
    {
      "channel": 1,
      "note": 76,
      "start": 18.2398,
      "duration": 0.011,
      "velocity": 99,
      "chip": "ym2612"
    },
    {
      "channel": 2,
      "note": 71,
      "start": 18.2403,
      "duration": 0.0107,
      "velocity": 99,
      "chip": "ym2612"
    },
    {
      "channel": 1,
      "note": 71,
      "start": 18.2531,
      "duration": 0.0777,
      "velocity": 99,
      "chip": "ym2612"
    },
    {
      "channel": 2,
      "note": 64,
      "start": 18.2536,
      "duration": 0.0775,
      "velocity": 99,
      "chip": "ym2612"
    },
    {
      "channel": 1,
      "note": 69,
      "start": 18.3521,
      "duration": 0.0111,
      "velocity": 99,
      "chip": "ym2612"
    },
    {
      "channel": 2,
      "note": 66,
      "start": 18.3527,
      "duration": 0.0107,
      "velocity": 99,
      "chip": "ym2612"
    },
    {
      "channel": 1,
      "note": 71,
      "start": 18.3656,
      "duration": 0.0117,
      "velocity": 99,
      "chip": "ym2612"
    },
    {
      "channel": 2,
      "note": 69,
      "start": 18.3662,
      "duration": 0.0114,
      "velocity": 99,
      "chip": "ym2612"
    },
    {
      "channel": 3,
      "note": 83,
      "start": 18.367,
      "duration": 0.0067,
      "velocity": 104,
      "chip": "ym2612"
    },
    {
      "channel": 3,
      "note": 83,
      "start": 18.3736,
      "duration": 0.0092,
      "velocity": 104,
      "chip": "ym2612"
    },
    {
      "channel": 0,
      "note": 41,
      "start": 18.381,
      "duration": 0.1384,
      "velocity": 102,
      "chip": "ym2612"
    },
    {
      "channel": 1,
      "note": 76,
      "start": 18.3815,
      "duration": 0.012,
      "velocity": 99,
      "chip": "ym2612"
    },
    {
      "channel": 2,
      "note": 71,
      "start": 18.3821,
      "duration": 0.0116,
      "velocity": 99,
      "chip": "ym2612"
    },
    {
      "channel": 3,
      "note": 82,
      "start": 18.3828,
      "duration": 0.1446,
      "velocity": 104,
      "chip": "ym2612"
    },
    {
      "channel": 4,
      "note": 83,
      "start": 18.3836,
      "duration": 0.0066,
      "velocity": 104,
      "chip": "ym2612"
    },
    {
      "channel": 4,
      "note": 83,
      "start": 18.3902,
      "duration": 0.0071,
      "velocity": 104,
      "chip": "ym2612"
    },
    {
      "channel": 1,
      "note": 71,
      "start": 18.3957,
      "duration": 0.0768,
      "velocity": 99,
      "chip": "ym2612"
    },
    {
      "channel": 2,
      "note": 64,
      "start": 18.3962,
      "duration": 0.0765,
      "velocity": 99,
      "chip": "ym2612"
    },
    {
      "channel": 4,
      "note": 82,
      "start": 18.3973,
      "duration": 0.1726,
      "velocity": 104,
      "chip": "ym2612"
    },
    {
      "channel": 1,
      "note": 69,
      "start": 18.4937,
      "duration": 0.0109,
      "velocity": 99,
      "chip": "ym2612"
    },
    {
      "channel": 2,
      "note": 66,
      "start": 18.4943,
      "duration": 0.0107,
      "velocity": 99,
      "chip": "ym2612"
    },
    {
      "channel": 1,
      "note": 71,
      "start": 18.507,
      "duration": 0.0106,
      "velocity": 99,
      "chip": "ym2612"
    },
    {
      "channel": 2,
      "note": 69,
      "start": 18.5075,
      "duration": 0.0104,
      "velocity": 99,
      "chip": "ym2612"
    },
    {
      "channel": 0,
      "note": 39,
      "start": 18.5196,
      "duration": 0.2251,
      "velocity": 102,
      "chip": "ym2612"
    },
    {
      "channel": 1,
      "note": 74,
      "start": 18.5202,
      "duration": 0.0111,
      "velocity": 99,
      "chip": "ym2612"
    },
    {
      "channel": 2,
      "note": 69,
      "start": 18.5207,
      "duration": 0.0108,
      "velocity": 99,
      "chip": "ym2612"
    },
    {
      "channel": 1,
      "note": 69,
      "start": 18.5335,
      "duration": 0.0778,
      "velocity": 99,
      "chip": "ym2612"
    },
    {
      "channel": 2,
      "note": 62,
      "start": 18.534,
      "duration": 0.0775,
      "velocity": 99,
      "chip": "ym2612"
    },
    {
      "channel": 1,
      "note": 67,
      "start": 18.6326,
      "duration": 0.0113,
      "velocity": 99,
      "chip": "ym2612"
    },
    {
      "channel": 2,
      "note": 64,
      "start": 18.6332,
      "duration": 0.011,
      "velocity": 99,
      "chip": "ym2612"
    },
    {
      "channel": 3,
      "note": 81,
      "start": 18.6338,
      "duration": 0.0063,
      "velocity": 104,
      "chip": "ym2612"
    },
    {
      "channel": 1,
      "note": 69,
      "start": 18.6462,
      "duration": 0.0777,
      "velocity": 99,
      "chip": "ym2612"
    },
    {
      "channel": 2,
      "note": 67,
      "start": 18.6468,
      "duration": 0.0774,
      "velocity": 99,
      "chip": "ym2612"
    },
    {
      "channel": 4,
      "note": 81,
      "start": 18.6477,
      "duration": 0.035,
      "velocity": 104,
      "chip": "ym2612"
    },
    {
      "channel": 3,
      "note": 80,
      "start": 18.7248,
      "duration": 0.0259,
      "velocity": 104,
      "chip": "ym2612"
    },
    {
      "channel": 0,
      "note": 39,
      "start": 18.7449,
      "duration": 0.1421,
      "velocity": 102,
      "chip": "ym2612"
    },
    {
      "channel": 1,
      "note": 74,
      "start": 18.7454,
      "duration": 0.0109,
      "velocity": 99,
      "chip": "ym2612"
    },
    {
      "channel": 2,
      "note": 69,
      "start": 18.746,
      "duration": 0.0105,
      "velocity": 99,
      "chip": "ym2612"
    },
    {
      "channel": 4,
      "note": 80,
      "start": 18.7574,
      "duration": 0.0088,
      "velocity": 104,
      "chip": "ym2612"
    },
    {
      "channel": 1,
      "note": 69,
      "start": 18.7603,
      "duration": 0.0112,
      "velocity": 99,
      "chip": "ym2612"
    },
    {
      "channel": 2,
      "note": 62,
      "start": 18.7608,
      "duration": 0.011,
      "velocity": 99,
      "chip": "ym2612"
    },
    {
      "channel": 3,
      "note": 74,
      "start": 18.7658,
      "duration": 0.0063,
      "velocity": 104,
      "chip": "ym2612"
    },
    {
      "channel": 1,
      "note": 67,
      "start": 18.7738,
      "duration": 0.0776,
      "velocity": 99,
      "chip": "ym2612"
    },
    {
      "channel": 2,
      "note": 64,
      "start": 18.7743,
      "duration": 0.0773,
      "velocity": 99,
      "chip": "ym2612"
    },
    {
      "channel": 4,
      "note": 74,
      "start": 18.7892,
      "duration": 0.0631,
      "velocity": 104,
      "chip": "ym2612"
    },
    {
      "channel": 3,
      "note": 73,
      "start": 18.8311,
      "duration": 0.045,
      "velocity": 104,
      "chip": "ym2612"
    },
    {
      "channel": 1,
      "note": 69,
      "start": 18.8727,
      "duration": 0.0117,
      "velocity": 99,
      "chip": "ym2612"
    },
    {
      "channel": 2,
      "note": 67,
      "start": 18.8732,
      "duration": 0.0114,
      "velocity": 99,
      "chip": "ym2612"
    },
    {
      "channel": 4,
      "note": 73,
      "start": 18.883,
      "duration": 0.009,
      "velocity": 104,
      "chip": "ym2612"
    },
    {
      "channel": 0,
      "note": 39,
      "start": 18.8873,
      "duration": 0.1444,
      "velocity": 102,
      "chip": "ym2612"
    },
    {
      "channel": 1,
      "note": 74,
      "start": 18.8878,
      "duration": 0.0117,
      "velocity": 99,
      "chip": "ym2612"
    },
    {
      "channel": 2,
      "note": 69,
      "start": 18.8884,
      "duration": 0.0114,
      "velocity": 99,
      "chip": "ym2612"
    },
    {
      "channel": 3,
      "note": 67,
      "start": 18.8891,
      "duration": 0.0903,
      "velocity": 104,
      "chip": "ym2612"
    },
    {
      "channel": 1,
      "note": 69,
      "start": 18.9018,
      "duration": 0.077,
      "velocity": 99,
      "chip": "ym2612"
    },
    {
      "channel": 2,
      "note": 62,
      "start": 18.9024,
      "duration": 0.0767,
      "velocity": 99,
      "chip": "ym2612"
    },
    {
      "channel": 4,
      "note": 67,
      "start": 18.9033,
      "duration": 0.11,
      "velocity": 104,
      "chip": "ym2612"
    },
    {
      "channel": 1,
      "note": 67,
      "start": 19.0001,
      "duration": 0.0124,
      "velocity": 99,
      "chip": "ym2612"
    },
    {
      "channel": 2,
      "note": 64,
      "start": 19.0006,
      "duration": 0.0121,
      "velocity": 99,
      "chip": "ym2612"
    },
    {
      "channel": 3,
      "note": 70,
      "start": 19.0013,
      "duration": 0.0005,
      "velocity": 104,
      "chip": "ym2612"
    },
    {
      "channel": 3,
      "note": 70,
      "start": 19.0018,
      "duration": 0.0234,
      "velocity": 104,
      "chip": "ym2612"
    },
    {
      "channel": 1,
      "note": 69,
      "start": 19.0165,
      "duration": 0.0128,
      "velocity": 99,
      "chip": "ym2612"
    },
    {
      "channel": 2,
      "note": 67,
      "start": 19.017,
      "duration": 0.0125,
      "velocity": 99,
      "chip": "ym2612"
    },
    {
      "channel": 4,
      "note": 70,
      "start": 19.018,
      "duration": 0.0004,
      "velocity": 104,
      "chip": "ym2612"
    },
    {
      "channel": 4,
      "note": 70,
      "start": 19.0184,
      "duration": 0.0255,
      "velocity": 104,
      "chip": "ym2612"
    },
    {
      "channel": 0,
      "note": 46,
      "start": 19.032,
      "duration": 0.1123,
      "velocity": 102,
      "chip": "ym2612"
    },
    {
      "channel": 1,
      "note": 72,
      "start": 19.0325,
      "duration": 0.0106,
      "velocity": 99,
      "chip": "ym2612"
    },
    {
      "channel": 2,
      "note": 69,
      "start": 19.033,
      "duration": 0.0103,
      "velocity": 99,
      "chip": "ym2612"
    },
    {
      "channel": 1,
      "note": 69,
      "start": 19.0454,
      "duration": 0.0781,
      "velocity": 99,
      "chip": "ym2612"
    },
    {
      "channel": 2,
      "note": 67,
      "start": 19.0459,
      "duration": 0.0779,
      "velocity": 99,
      "chip": "ym2612"
    },
    {
      "channel": 0,
      "note": 51,
      "start": 19.1447,
      "duration": 0.2248,
      "velocity": 102,
      "chip": "ym2612"
    },
    {
      "channel": 1,
      "note": 74,
      "start": 19.1454,
      "duration": 0.0159,
      "velocity": 99,
      "chip": "ym2612"
    },
    {
      "channel": 2,
      "note": 69,
      "start": 19.1477,
      "duration": 0.0139,
      "velocity": 99,
      "chip": "ym2612"
    },
    {
      "channel": 4,
      "note": 70,
      "start": 19.1514,
      "duration": 0.2202,
      "velocity": 127,
      "chip": "ym2612"
    },
    {
      "channel": 1,
      "note": 69,
      "start": 19.1636,
      "duration": 0.0724,
      "velocity": 99,
      "chip": "ym2612"
    },
    {
      "channel": 2,
      "note": 62,
      "start": 19.1641,
      "duration": 0.0721,
      "velocity": 99,
      "chip": "ym2612"
    },
    {
      "channel": 1,
      "note": 67,
      "start": 19.2572,
      "duration": 0.0114,
      "velocity": 99,
      "chip": "ym2612"
    },
    {
      "channel": 2,
      "note": 65,
      "start": 19.2577,
      "duration": 0.0111,
      "velocity": 99,
      "chip": "ym2612"
    },
    {
      "channel": 1,
      "note": 79,
      "start": 19.271,
      "duration": 0.0778,
      "velocity": 99,
      "chip": "ym2612"
    },
    {
      "channel": 2,
      "note": 62,
      "start": 19.2716,
      "duration": 0.0775,
      "velocity": 99,
      "chip": "ym2612"
    },
    {
      "channel": 0,
      "note": 51,
      "start": 19.3699,
      "duration": 0.1426,
      "velocity": 102,
      "chip": "ym2612"
    },
    {
      "channel": 1,
      "note": 74,
      "start": 19.3704,
      "duration": 0.0116,
      "velocity": 99,
      "chip": "ym2612"
    },
    {
      "channel": 2,
      "note": 65,
      "start": 19.371,
      "duration": 0.0113,
      "velocity": 99,
      "chip": "ym2612"
    },
    {
      "channel": 4,
      "note": 93,
      "start": 19.372,
      "duration": 0.1427,
      "velocity": 127,
      "chip": "ym2612"
    },
    {
      "channel": 1,
      "note": 72,
      "start": 19.385,
      "duration": 0.0113,
      "velocity": 99,
      "chip": "ym2612"
    },
    {
      "channel": 2,
      "note": 67,
      "start": 19.3855,
      "duration": 0.011,
      "velocity": 99,
      "chip": "ym2612"
    },
    {
      "channel": 1,
      "note": 81,
      "start": 19.3987,
      "duration": 0.0779,
      "velocity": 99,
      "chip": "ym2612"
    },
    {
      "channel": 2,
      "note": 65,
      "start": 19.3992,
      "duration": 0.0776,
      "velocity": 99,
      "chip": "ym2612"
    },
    {
      "channel": 1,
      "note": 79,
      "start": 19.4978,
      "duration": 0.0116,
      "velocity": 99,
      "chip": "ym2612"
    },
    {
      "channel": 2,
      "note": 69,
      "start": 19.4983,
      "duration": 0.0113,
      "velocity": 99,
      "chip": "ym2612"
    },
    {
      "channel": 0,
      "note": 51,
      "start": 19.5129,
      "duration": 0.1415,
      "velocity": 102,
      "chip": "ym2612"
    },
    {
      "channel": 1,
      "note": 74,
      "start": 19.5134,
      "duration": 0.0119,
      "velocity": 99,
      "chip": "ym2612"
    },
    {
      "channel": 2,
      "note": 72,
      "start": 19.5139,
      "duration": 0.0116,
      "velocity": 99,
      "chip": "ym2612"
    },
    {
      "channel": 4,
      "note": 93,
      "start": 19.5152,
      "duration": 0.1117,
      "velocity": 127,
      "chip": "ym2612"
    },
    {
      "channel": 1,
      "note": 84,
      "start": 19.5277,
      "duration": 0.0766,
      "velocity": 99,
      "chip": "ym2612"
    },
    {
      "channel": 2,
      "note": 67,
      "start": 19.5282,
      "duration": 0.0764,
      "velocity": 99,
      "chip": "ym2612"
    },
    {
      "channel": 1,
      "note": 81,
      "start": 19.6256,
      "duration": 0.012,
      "velocity": 99,
      "chip": "ym2612"
    },
    {
      "channel": 2,
      "note": 72,
      "start": 19.6261,
      "duration": 0.0118,
      "velocity": 99,
      "chip": "ym2612"
    },
    {
      "channel": 4,
      "note": 93,
      "start": 19.6272,
      "duration": 0.1415,
      "velocity": 127,
      "chip": "ym2612"
    },
    {
      "channel": 1,
      "note": 79,
      "start": 19.64,
      "duration": 0.0113,
      "velocity": 99,
      "chip": "ym2612"
    },
    {
      "channel": 2,
      "note": 74,
      "start": 19.6406,
      "duration": 0.011,
      "velocity": 99,
      "chip": "ym2612"
    },
    {
      "channel": 0,
      "note": 51,
      "start": 19.6548,
      "duration": 0.1417,
      "velocity": 102,
      "chip": "ym2612"
    },
    {
      "channel": 1,
      "note": 86,
      "start": 19.6554,
      "duration": 0.0111,
      "velocity": 99,
      "chip": "ym2612"
    },
    {
      "channel": 2,
      "note": 69,
      "start": 19.6559,
      "duration": 0.0109,
      "velocity": 99,
      "chip": "ym2612"
    },
    {
      "channel": 1,
      "note": 84,
      "start": 19.6689,
      "duration": 0.0773,
      "velocity": 99,
      "chip": "ym2612"
    },
    {
      "channel": 2,
      "note": 74,
      "start": 19.6694,
      "duration": 0.077,
      "velocity": 99,
      "chip": "ym2612"
    },
    {
      "channel": 1,
      "note": 81,
      "start": 19.7674,
      "duration": 0.0121,
      "velocity": 99,
      "chip": "ym2612"
    },
    {
      "channel": 2,
      "note": 77,
      "start": 19.7679,
      "duration": 0.0118,
      "velocity": 99,
      "chip": "ym2612"
    },
    {
      "channel": 4,
      "note": 93,
      "start": 19.769,
      "duration": 0.0297,
      "velocity": 127,
      "chip": "ym2612"
    },
    {
      "channel": 1,
      "note": 84,
      "start": 19.782,
      "duration": 0.0113,
      "velocity": 99,
      "chip": "ym2612"
    },
    {
      "channel": 2,
      "note": 79,
      "start": 19.7826,
      "duration": 0.011,
      "velocity": 99,
      "chip": "ym2612"
    },
    {
      "channel": 0,
      "note": 51,
      "start": 19.7969,
      "duration": 0.2248,
      "velocity": 102,
      "chip": "ym2612"
    },
    {
      "channel": 1,
      "note": 89,
      "start": 19.7976,
      "duration": 0.012,
      "velocity": 99,
      "chip": "ym2612"
    },
    {
      "channel": 4,
      "note": 93,
      "start": 19.799,
      "duration": 0.2248,
      "velocity": 127,
      "chip": "ym2612"
    },
    {
      "channel": 2,
      "note": 84,
      "start": 19.8055,
      "duration": 0.0199,
      "velocity": 99,
      "chip": "ym2612"
    },
    {
      "channel": 1,
      "note": 89,
      "start": 19.812,
      "duration": 0.0763,
      "velocity": 99,
      "chip": "ym2612"
    },
    {
      "channel": 2,
      "note": 84,
      "start": 19.8468,
      "duration": 0.0679,
      "velocity": 99,
      "chip": "ym2612"
    },
    {
      "channel": 1,
      "note": 89,
      "start": 19.9097,
      "duration": 0.0116,
      "velocity": 99,
      "chip": "ym2612"
    },
    {
      "channel": 2,
      "note": 84,
      "start": 19.9171,
      "duration": 0.0209,
      "velocity": 99,
      "chip": "ym2612"
    },
    {
      "channel": 1,
      "note": 89,
      "start": 19.9239,
      "duration": 0.0771,
      "velocity": 99,
      "chip": "ym2612"
    },
    {
      "channel": 2,
      "note": 84,
      "start": 19.9594,
      "duration": 0.0688,
      "velocity": 99,
      "chip": "ym2612"
    },
    {
      "channel": 0,
      "note": 46,
      "start": 20.0221,
      "duration": 0.1427,
      "velocity": 102,
      "chip": "ym2612"
    },
    {
      "channel": 1,
      "note": 89,
      "start": 20.0228,
      "duration": 0.0121,
      "velocity": 99,
      "chip": "ym2612"
    },
    {
      "channel": 4,
      "note": 93,
      "start": 20.0241,
      "duration": 0.1427,
      "velocity": 127,
      "chip": "ym2612"
    },
    {
      "channel": 2,
      "note": 84,
      "start": 20.0306,
      "duration": 0.0119,
      "velocity": 99,
      "chip": "ym2612"
    },
    {
      "channel": 1,
      "note": 89,
      "start": 20.0376,
      "duration": 0.0115,
      "velocity": 99,
      "chip": "ym2612"
    },
    {
      "channel": 2,
      "note": 84,
      "start": 20.045,
      "duration": 0.0209,
      "velocity": 99,
      "chip": "ym2612"
    },
    {
      "channel": 1,
      "note": 89,
      "start": 20.0515,
      "duration": 0.0774,
      "velocity": 99,
      "chip": "ym2612"
    },
    {
      "channel": 2,
      "note": 84,
      "start": 20.0873,
      "duration": 0.0681,
      "velocity": 99,
      "chip": "ym2612"
    },
    {
      "channel": 1,
      "note": 89,
      "start": 20.1504,
      "duration": 0.0118,
      "velocity": 99,
      "chip": "ym2612"
    },
    {
      "channel": 2,
      "note": 84,
      "start": 20.158,
      "duration": 0.013,
      "velocity": 99,
      "chip": "ym2612"
    },
    {
      "channel": 0,
      "note": 39,
      "start": 20.1651,
      "duration": 0.1432,
      "velocity": 102,
      "chip": "ym2612"
    },
    {
      "channel": 1,
      "note": 89,
      "start": 20.1658,
      "duration": 0.0117,
      "velocity": 99,
      "chip": "ym2612"
    },
    {
      "channel": 4,
      "note": 93,
      "start": 20.1671,
      "duration": 0.112,
      "velocity": 127,
      "chip": "ym2612"
    },
    {
      "channel": 2,
      "note": 84,
      "start": 20.1735,
      "duration": 0.0202,
      "velocity": 99,
      "chip": "ym2612"
    },
    {
      "channel": 1,
      "note": 89,
      "start": 20.18,
      "duration": 0.0767,
      "velocity": 99,
      "chip": "ym2612"
    },
    {
      "channel": 2,
      "note": 84,
      "start": 20.2151,
      "duration": 0.0683,
      "velocity": 99,
      "chip": "ym2612"
    },
    {
      "channel": 1,
      "note": 89,
      "start": 20.278,
      "duration": 0.0121,
      "velocity": 99,
      "chip": "ym2612"
    },
    {
      "channel": 4,
      "note": 93,
      "start": 20.2793,
      "duration": 0.1503,
      "velocity": 127,
      "chip": "ym2612"
    },
    {
      "channel": 2,
      "note": 84,
      "start": 20.2859,
      "duration": 0.0123,
      "velocity": 99,
      "chip": "ym2612"
    },
    {
      "channel": 1,
      "note": 89,
      "start": 20.2929,
      "duration": 0.012,
      "velocity": 99,
      "chip": "ym2612"
    },
    {
      "channel": 2,
      "note": 84,
      "start": 20.3008,
      "duration": 0.0133,
      "velocity": 99,
      "chip": "ym2612"
    },
    {
      "channel": 0,
      "note": 39,
      "start": 20.3085,
      "duration": 0.1122,
      "velocity": 102,
      "chip": "ym2612"
    },
    {
      "channel": 1,
      "note": 89,
      "start": 20.3092,
      "duration": 0.0115,
      "velocity": 99,
      "chip": "ym2612"
    },
    {
      "channel": 2,
      "note": 84,
      "start": 20.3167,
      "duration": 0.0203,
      "velocity": 99,
      "chip": "ym2612"
    },
    {
      "channel": 1,
      "note": 89,
      "start": 20.3232,
      "duration": 0.0768,
      "velocity": 99,
      "chip": "ym2612"
    },
    {
      "channel": 2,
      "note": 84,
      "start": 20.3584,
      "duration": 0.0419,
      "velocity": 99,
      "chip": "ym2612"
    },
    {
      "channel": 0,
      "note": 43,
      "start": 20.4213,
      "duration": 0.2247,
      "velocity": 102,
      "chip": "ym2612"
    },
    {
      "channel": 1,
      "note": 79,
      "start": 20.4221,
      "duration": 0.0194,
      "velocity": 99,
      "chip": "ym2612"
    },
    {
      "channel": 2,
      "note": 73,
      "start": 20.4247,
      "duration": 0.0004,
      "velocity": 104,
      "chip": "ym2612"
    },
    {
      "channel": 2,
      "note": 74,
      "start": 20.4251,
      "duration": 0.0878,
      "velocity": 104,
      "chip": "ym2612"
    },
    {
      "channel": 3,
      "note": 70,
      "start": 20.4285,
      "duration": 0.0005,
      "velocity": 104,
      "chip": "ym2612"
    },
    {
      "channel": 3,
      "note": 70,
      "start": 20.429,
      "duration": 0.0842,
      "velocity": 104,
      "chip": "ym2612"
    },
    {
      "channel": 4,
      "note": 93,
      "start": 20.4301,
      "duration": 0.2178,
      "velocity": 127,
      "chip": "ym2612"
    },
    {
      "channel": 1,
      "note": 77,
      "start": 20.4439,
      "duration": 0.0687,
      "velocity": 99,
      "chip": "ym2612"
    },
    {
      "channel": 1,
      "note": 72,
      "start": 20.5339,
      "duration": 0.0139,
      "velocity": 99,
      "chip": "ym2612"
    },
    {
      "channel": 2,
      "note": 73,
      "start": 20.5345,
      "duration": 0.0004,
      "velocity": 104,
      "chip": "ym2612"
    },
    {
      "channel": 2,
      "note": 74,
      "start": 20.5349,
      "duration": 0.0485,
      "velocity": 104,
      "chip": "ym2612"
    },
    {
      "channel": 3,
      "note": 79,
      "start": 20.5357,
      "duration": 0.0004,
      "velocity": 104,
      "chip": "ym2612"
    },
    {
      "channel": 3,
      "note": 79,
      "start": 20.5362,
      "duration": 0.0475,
      "velocity": 104,
      "chip": "ym2612"
    },
    {
      "channel": 1,
      "note": 77,
      "start": 20.5502,
      "duration": 0.075,
      "velocity": 99,
      "chip": "ym2612"
    },
    {
      "channel": 0,
      "note": 43,
      "start": 20.6463,
      "duration": 0.0148,
      "velocity": 102,
      "chip": "ym2612"
    },
    {
      "channel": 1,
      "note": 79,
      "start": 20.6469,
      "duration": 0.0112,
      "velocity": 99,
      "chip": "ym2612"
    },
    {
      "channel": 4,
      "note": 93,
      "start": 20.6481,
      "duration": 0.0279,
      "velocity": 127,
      "chip": "ym2612"
    },
    {
      "channel": 1,
      "note": 77,
      "start": 20.6617,
      "duration": 0.0107,
      "velocity": 99,
      "chip": "ym2612"
    },
    {
      "channel": 0,
      "note": 36,
      "start": 20.6746,
      "duration": 0.2249,
      "velocity": 102,
      "chip": "ym2612"
    },
    {
      "channel": 1,
      "note": 72,
      "start": 20.6751,
      "duration": 0.0778,
      "velocity": 99,
      "chip": "ym2612"
    },
    {
      "channel": 4,
      "note": 93,
      "start": 20.6763,
      "duration": 0.227,
      "velocity": 127,
      "chip": "ym2612"
    },
    {
      "channel": 1,
      "note": 77,
      "start": 20.7741,
      "duration": 0.0108,
      "velocity": 99,
      "chip": "ym2612"
    },
    {
      "channel": 1,
      "note": 79,
      "start": 20.7873,
      "duration": 0.011,
      "velocity": 99,
      "chip": "ym2612"
    },
    {
      "channel": 0,
      "note": 41,
      "start": 20.8998,
      "duration": 0.0428,
      "velocity": 102,
      "chip": "ym2612"
    },
    {
      "channel": 1,
      "note": 82,
      "start": 20.9003,
      "duration": 0.0134,
      "velocity": 99,
      "chip": "ym2612"
    },
    {
      "channel": 2,
      "note": 77,
      "start": 20.9026,
      "duration": 0.0114,
      "velocity": 99,
      "chip": "ym2612"
    },
    {
      "channel": 4,
      "note": 93,
      "start": 20.9037,
      "duration": 0.0406,
      "velocity": 127,
      "chip": "ym2612"
    },
    {
      "channel": 1,
      "note": 82,
      "start": 20.9163,
      "duration": 0.0112,
      "velocity": 99,
      "chip": "ym2612"
    },
    {
      "channel": 2,
      "note": 77,
      "start": 20.9169,
      "duration": 0.0108,
      "velocity": 99,
      "chip": "ym2612"
    },
    {
      "channel": 1,
      "note": 82,
      "start": 20.9298,
      "duration": 0.0108,
      "velocity": 99,
      "chip": "ym2612"
    },
    {
      "channel": 2,
      "note": 77,
      "start": 20.9304,
      "duration": 0.0105,
      "velocity": 99,
      "chip": "ym2612"
    },
    {
      "channel": 0,
      "note": 46,
      "start": 20.9428,
      "duration": 0.1277,
      "velocity": 102,
      "chip": "ym2612"
    },
    {
      "channel": 4,
      "note": 93,
      "start": 20.9446,
      "duration": 0.1314,
      "velocity": 127,
      "chip": "ym2612"
    },
    {
      "channel": 1,
      "note": 82,
      "start": 20.957,
      "duration": 0.0774,
      "velocity": 99,
      "chip": "ym2612"
    },
    {
      "channel": 2,
      "note": 77,
      "start": 20.9575,
      "duration": 0.0772,
      "velocity": 99,
      "chip": "ym2612"
    },
    {
      "channel": 1,
      "note": 82,
      "start": 21.0557,
      "duration": 0.0116,
      "velocity": 99,
      "chip": "ym2612"
    },
    {
      "channel": 2,
      "note": 77,
      "start": 21.0562,
      "duration": 0.0113,
      "velocity": 99,
      "chip": "ym2612"
    },
    {
      "channel": 0,
      "note": 43,
      "start": 21.0709,
      "duration": 0.2249,
      "velocity": 102,
      "chip": "ym2612"
    },
    {
      "channel": 1,
      "note": 79,
      "start": 21.0714,
      "duration": 0.016,
      "velocity": 99,
      "chip": "ym2612"
    },
    {
      "channel": 2,
      "note": 73,
      "start": 21.0737,
      "duration": 0.0004,
      "velocity": 104,
      "chip": "ym2612"
    },
    {
      "channel": 2,
      "note": 74,
      "start": 21.0741,
      "duration": 0.0885,
      "velocity": 104,
      "chip": "ym2612"
    },
    {
      "channel": 3,
      "note": 79,
      "start": 21.0749,
      "duration": 0.0005,
      "velocity": 104,
      "chip": "ym2612"
    },
    {
      "channel": 3,
      "note": 79,
      "start": 21.0754,
      "duration": 0.0875,
      "velocity": 104,
      "chip": "ym2612"
    },
    {
      "channel": 4,
      "note": 93,
      "start": 21.0763,
      "duration": 0.2212,
      "velocity": 127,
      "chip": "ym2612"
    },
    {
      "channel": 1,
      "note": 77,
      "start": 21.0898,
      "duration": 0.0725,
      "velocity": 99,
      "chip": "ym2612"
    },
    {
      "channel": 1,
      "note": 72,
      "start": 21.1836,
      "duration": 0.0138,
      "velocity": 99,
      "chip": "ym2612"
    },
    {
      "channel": 2,
      "note": 73,
      "start": 21.1842,
      "duration": 0.0004,
      "velocity": 104,
      "chip": "ym2612"
    },
    {
      "channel": 2,
      "note": 74,
      "start": 21.1846,
      "duration": 0.0485,
      "velocity": 104,
      "chip": "ym2612"
    },
    {
      "channel": 3,
      "note": 79,
      "start": 21.1854,
      "duration": 0.0005,
      "velocity": 104,
      "chip": "ym2612"
    },
    {
      "channel": 3,
      "note": 79,
      "start": 21.1859,
      "duration": 0.0475,
      "velocity": 104,
      "chip": "ym2612"
    },
    {
      "channel": 1,
      "note": 77,
      "start": 21.2,
      "duration": 0.075,
      "velocity": 99,
      "chip": "ym2612"
    },
    {
      "channel": 0,
      "note": 43,
      "start": 21.296,
      "duration": 0.0148,
      "velocity": 102,
      "chip": "ym2612"
    },
    {
      "channel": 1,
      "note": 79,
      "start": 21.2966,
      "duration": 0.0111,
      "velocity": 99,
      "chip": "ym2612"
    },
    {
      "channel": 4,
      "note": 93,
      "start": 21.2978,
      "duration": 0.0278,
      "velocity": 127,
      "chip": "ym2612"
    },
    {
      "channel": 1,
      "note": 77,
      "start": 21.3114,
      "duration": 0.0107,
      "velocity": 99,
      "chip": "ym2612"
    },
    {
      "channel": 0,
      "note": 36,
      "start": 21.3242,
      "duration": 0.2118,
      "velocity": 102,
      "chip": "ym2612"
    },
    {
      "channel": 1,
      "note": 72,
      "start": 21.3247,
      "duration": 0.0778,
      "velocity": 99,
      "chip": "ym2612"
    },
    {
      "channel": 4,
      "note": 93,
      "start": 21.326,
      "duration": 0.2116,
      "velocity": 127,
      "chip": "ym2612"
    },
    {
      "channel": 1,
      "note": 77,
      "start": 21.4238,
      "duration": 0.0108,
      "velocity": 99,
      "chip": "ym2612"
    },
    {
      "channel": 1,
      "note": 79,
      "start": 21.437,
      "duration": 0.0781,
      "velocity": 99,
      "chip": "ym2612"
    },
    {
      "channel": 0,
      "note": 41,
      "start": 21.5362,
      "duration": 0.0449,
      "velocity": 102,
      "chip": "ym2612"
    },
    {
      "channel": 4,
      "note": 93,
      "start": 21.5379,
      "duration": 0.0453,
      "velocity": 127,
      "chip": "ym2612"
    },
    {
      "channel": 1,
      "note": 82,
      "start": 21.5515,
      "duration": 0.0132,
      "velocity": 99,
      "chip": "ym2612"
    },
    {
      "channel": 2,
      "note": 77,
      "start": 21.5538,
      "duration": 0.0111,
      "velocity": 99,
      "chip": "ym2612"
    },
    {
      "channel": 1,
      "note": 82,
      "start": 21.5678,
      "duration": 0.0112,
      "velocity": 99,
      "chip": "ym2612"
    },
    {
      "channel": 2,
      "note": 77,
      "start": 21.5684,
      "duration": 0.0109,
      "velocity": 99,
      "chip": "ym2612"
    },
    {
      "channel": 0,
      "note": 34,
      "start": 21.5814,
      "duration": 0.1124,
      "velocity": 102,
      "chip": "ym2612"
    },
    {
      "channel": 1,
      "note": 82,
      "start": 21.5819,
      "duration": 0.0118,
      "velocity": 99,
      "chip": "ym2612"
    },
    {
      "channel": 2,
      "note": 77,
      "start": 21.5824,
      "duration": 0.0115,
      "velocity": 99,
      "chip": "ym2612"
    },
    {
      "channel": 4,
      "note": 93,
      "start": 21.5835,
      "duration": 0.1165,
      "velocity": 127,
      "chip": "ym2612"
    },
    {
      "channel": 0,
      "note": 43,
      "start": 21.6943,
      "duration": 0.2246,
      "velocity": 102,
      "chip": "ym2612"
    },
    {
      "channel": 1,
      "note": 79,
      "start": 21.695,
      "duration": 0.0164,
      "velocity": 99,
      "chip": "ym2612"
    },
    {
      "channel": 2,
      "note": 73,
      "start": 21.6975,
      "duration": 0.0004,
      "velocity": 104,
      "chip": "ym2612"
    },
    {
      "channel": 2,
      "note": 74,
      "start": 21.6979,
      "duration": 0.0879,
      "velocity": 104,
      "chip": "ym2612"
    },
    {
      "channel": 3,
      "note": 79,
      "start": 21.699,
      "duration": 0.0004,
      "velocity": 104,
      "chip": "ym2612"
    },
    {
      "channel": 3,
      "note": 79,
      "start": 21.6994,
      "duration": 0.0868,
      "velocity": 104,
      "chip": "ym2612"
    },
    {
      "channel": 4,
      "note": 93,
      "start": 21.7005,
      "duration": 0.2203,
      "velocity": 127,
      "chip": "ym2612"
    },
    {
      "channel": 1,
      "note": 77,
      "start": 21.7139,
      "duration": 0.0717,
      "velocity": 99,
      "chip": "ym2612"
    },
    {
      "channel": 1,
      "note": 72,
      "start": 21.8068,
      "duration": 0.0138,
      "velocity": 99,
      "chip": "ym2612"
    },
    {
      "channel": 2,
      "note": 73,
      "start": 21.8074,
      "duration": 0.0004,
      "velocity": 104,
      "chip": "ym2612"
    },
    {
      "channel": 2,
      "note": 74,
      "start": 21.8078,
      "duration": 0.0485,
      "velocity": 104,
      "chip": "ym2612"
    },
    {
      "channel": 3,
      "note": 79,
      "start": 21.8086,
      "duration": 0.0005,
      "velocity": 104,
      "chip": "ym2612"
    },
    {
      "channel": 3,
      "note": 79,
      "start": 21.8091,
      "duration": 0.0475,
      "velocity": 104,
      "chip": "ym2612"
    },
    {
      "channel": 1,
      "note": 77,
      "start": 21.8232,
      "duration": 0.0751,
      "velocity": 99,
      "chip": "ym2612"
    },
    {
      "channel": 0,
      "note": 43,
      "start": 21.9193,
      "duration": 0.0148,
      "velocity": 102,
      "chip": "ym2612"
    },
    {
      "channel": 1,
      "note": 79,
      "start": 21.9198,
      "duration": 0.0111,
      "velocity": 99,
      "chip": "ym2612"
    },
    {
      "channel": 4,
      "note": 93,
      "start": 21.921,
      "duration": 0.0279,
      "velocity": 127,
      "chip": "ym2612"
    },
    {
      "channel": 1,
      "note": 77,
      "start": 21.9347,
      "duration": 0.0107,
      "velocity": 99,
      "chip": "ym2612"
    },
    {
      "channel": 0,
      "note": 36,
      "start": 21.9474,
      "duration": 0.2249,
      "velocity": 102,
      "chip": "ym2612"
    },
    {
      "channel": 1,
      "note": 72,
      "start": 21.948,
      "duration": 0.0778,
      "velocity": 99,
      "chip": "ym2612"
    },
    {
      "channel": 4,
      "note": 93,
      "start": 21.9492,
      "duration": 0.227,
      "velocity": 127,
      "chip": "ym2612"
    },
    {
      "channel": 1,
      "note": 77,
      "start": 22.0471,
      "duration": 0.0108,
      "velocity": 99,
      "chip": "ym2612"
    },
    {
      "channel": 1,
      "note": 79,
      "start": 22.0603,
      "duration": 0.011,
      "velocity": 99,
      "chip": "ym2612"
    },
    {
      "channel": 0,
      "note": 41,
      "start": 22.1725,
      "duration": 0.0428,
      "velocity": 102,
      "chip": "ym2612"
    },
    {
      "channel": 1,
      "note": 82,
      "start": 22.1731,
      "duration": 0.0136,
      "velocity": 99,
      "chip": "ym2612"
    },
    {
      "channel": 2,
      "note": 77,
      "start": 22.1755,
      "duration": 0.0115,
      "velocity": 99,
      "chip": "ym2612"
    },
    {
      "channel": 4,
      "note": 93,
      "start": 22.1766,
      "duration": 0.0406,
      "velocity": 127,
      "chip": "ym2612"
    },
    {
      "channel": 1,
      "note": 82,
      "start": 22.1891,
      "duration": 0.0111,
      "velocity": 99,
      "chip": "ym2612"
    },
    {
      "channel": 2,
      "note": 77,
      "start": 22.1896,
      "duration": 0.0108,
      "velocity": 99,
      "chip": "ym2612"
    },
    {
      "channel": 1,
      "note": 82,
      "start": 22.2025,
      "duration": 0.0108,
      "velocity": 99,
      "chip": "ym2612"
    },
    {
      "channel": 2,
      "note": 77,
      "start": 22.203,
      "duration": 0.0106,
      "velocity": 99,
      "chip": "ym2612"
    },
    {
      "channel": 0,
      "note": 46,
      "start": 22.2157,
      "duration": 0.1275,
      "velocity": 102,
      "chip": "ym2612"
    },
    {
      "channel": 4,
      "note": 93,
      "start": 22.2175,
      "duration": 0.1311,
      "velocity": 127,
      "chip": "ym2612"
    },
    {
      "channel": 1,
      "note": 82,
      "start": 22.2301,
      "duration": 0.0772,
      "velocity": 99,
      "chip": "ym2612"
    },
    {
      "channel": 2,
      "note": 77,
      "start": 22.2306,
      "duration": 0.077,
      "velocity": 99,
      "chip": "ym2612"
    },
    {
      "channel": 1,
      "note": 82,
      "start": 22.3287,
      "duration": 0.0116,
      "velocity": 99,
      "chip": "ym2612"
    },
    {
      "channel": 2,
      "note": 77,
      "start": 22.3292,
      "duration": 0.0113,
      "velocity": 99,
      "chip": "ym2612"
    },
    {
      "channel": 0,
      "note": 43,
      "start": 22.3435,
      "duration": 0.2249,
      "velocity": 102,
      "chip": "ym2612"
    },
    {
      "channel": 1,
      "note": 79,
      "start": 22.3441,
      "duration": 0.0159,
      "velocity": 99,
      "chip": "ym2612"
    },
    {
      "channel": 2,
      "note": 73,
      "start": 22.3464,
      "duration": 0.0004,
      "velocity": 104,
      "chip": "ym2612"
    },
    {
      "channel": 2,
      "note": 74,
      "start": 22.3468,
      "duration": 0.0885,
      "velocity": 104,
      "chip": "ym2612"
    },
    {
      "channel": 3,
      "note": 79,
      "start": 22.3476,
      "duration": 0.0005,
      "velocity": 104,
      "chip": "ym2612"
    },
    {
      "channel": 3,
      "note": 79,
      "start": 22.348,
      "duration": 0.0876,
      "velocity": 104,
      "chip": "ym2612"
    },
    {
      "channel": 4,
      "note": 93,
      "start": 22.3489,
      "duration": 0.2213,
      "velocity": 127,
      "chip": "ym2612"
    },
    {
      "channel": 1,
      "note": 77,
      "start": 22.3624,
      "duration": 0.0726,
      "velocity": 99,
      "chip": "ym2612"
    },
    {
      "channel": 1,
      "note": 72,
      "start": 22.4563,
      "duration": 0.0138,
      "velocity": 99,
      "chip": "ym2612"
    },
    {
      "channel": 2,
      "note": 73,
      "start": 22.4569,
      "duration": 0.0004,
      "velocity": 104,
      "chip": "ym2612"
    },
    {
      "channel": 2,
      "note": 74,
      "start": 22.4573,
      "duration": 0.0485,
      "velocity": 104,
      "chip": "ym2612"
    },
    {
      "channel": 3,
      "note": 79,
      "start": 22.4581,
      "duration": 0.0004,
      "velocity": 104,
      "chip": "ym2612"
    },
    {
      "channel": 3,
      "note": 79,
      "start": 22.4586,
      "duration": 0.0476,
      "velocity": 104,
      "chip": "ym2612"
    },
    {
      "channel": 1,
      "note": 77,
      "start": 22.4727,
      "duration": 0.0749,
      "velocity": 99,
      "chip": "ym2612"
    },
    {
      "channel": 0,
      "note": 43,
      "start": 22.5688,
      "duration": 0.0147,
      "velocity": 102,
      "chip": "ym2612"
    },
    {
      "channel": 1,
      "note": 79,
      "start": 22.5693,
      "duration": 0.0111,
      "velocity": 99,
      "chip": "ym2612"
    },
    {
      "channel": 4,
      "note": 93,
      "start": 22.5706,
      "duration": 0.0278,
      "velocity": 127,
      "chip": "ym2612"
    },
    {
      "channel": 1,
      "note": 77,
      "start": 22.5841,
      "duration": 0.0107,
      "velocity": 99,
      "chip": "ym2612"
    },
    {
      "channel": 0,
      "note": 36,
      "start": 22.5968,
      "duration": 0.212,
      "velocity": 102,
      "chip": "ym2612"
    },
    {
      "channel": 1,
      "note": 72,
      "start": 22.5973,
      "duration": 0.0779,
      "velocity": 99,
      "chip": "ym2612"
    },
    {
      "channel": 4,
      "note": 93,
      "start": 22.5986,
      "duration": 0.2117,
      "velocity": 127,
      "chip": "ym2612"
    },
    {
      "channel": 1,
      "note": 77,
      "start": 22.6965,
      "duration": 0.0108,
      "velocity": 99,
      "chip": "ym2612"
    },
    {
      "channel": 1,
      "note": 79,
      "start": 22.7096,
      "duration": 0.0783,
      "velocity": 99,
      "chip": "ym2612"
    },
    {
      "channel": 0,
      "note": 41,
      "start": 22.809,
      "duration": 0.0451,
      "velocity": 102,
      "chip": "ym2612"
    },
    {
      "channel": 4,
      "note": 93,
      "start": 22.8106,
      "duration": 0.0455,
      "velocity": 127,
      "chip": "ym2612"
    },
    {
      "channel": 1,
      "note": 82,
      "start": 22.8243,
      "duration": 0.013,
      "velocity": 99,
      "chip": "ym2612"
    },
    {
      "channel": 2,
      "note": 77,
      "start": 22.8267,
      "duration": 0.0109,
      "velocity": 99,
      "chip": "ym2612"
    },
    {
      "channel": 1,
      "note": 82,
      "start": 22.8407,
      "duration": 0.0113,
      "velocity": 99,
      "chip": "ym2612"
    },
    {
      "channel": 2,
      "note": 77,
      "start": 22.8412,
      "duration": 0.0111,
      "velocity": 99,
      "chip": "ym2612"
    },
    {
      "channel": 0,
      "note": 34,
      "start": 22.8544,
      "duration": 0.1121,
      "velocity": 102,
      "chip": "ym2612"
    },
    {
      "channel": 1,
      "note": 82,
      "start": 22.8549,
      "duration": 0.0117,
      "velocity": 99,
      "chip": "ym2612"
    },
    {
      "channel": 2,
      "note": 77,
      "start": 22.8554,
      "duration": 0.0115,
      "velocity": 99,
      "chip": "ym2612"
    },
    {
      "channel": 4,
      "note": 93,
      "start": 22.8565,
      "duration": 0.1161,
      "velocity": 127,
      "chip": "ym2612"
    },
    {
      "channel": 0,
      "note": 43,
      "start": 22.9671,
      "duration": 0.0205,
      "velocity": 102,
      "chip": "ym2612"
    },
    {
      "channel": 1,
      "note": 79,
      "start": 22.9679,
      "duration": 0.0177,
      "velocity": 99,
      "chip": "ym2612"
    },
    {
      "channel": 2,
      "note": 74,
      "start": 22.9687,
      "duration": 0.0171,
      "velocity": 99,
      "chip": "ym2612"
    },
    {
      "channel": 3,
      "note": 79,
      "start": 22.9722,
      "duration": 0.014,
      "velocity": 99,
      "chip": "ym2612"
    },
    {
      "channel": 4,
      "note": 93,
      "start": 22.9755,
      "duration": 0.106,
      "velocity": 127,
      "chip": "ym2612"
    },
    {
      "channel": 0,
      "note": 43,
      "start": 22.9878,
      "duration": 0.0913,
      "velocity": 102,
      "chip": "ym2612"
    },
    {
      "channel": 1,
      "note": 79,
      "start": 22.9883,
      "duration": 0.07,
      "velocity": 99,
      "chip": "ym2612"
    },
    {
      "channel": 2,
      "note": 74,
      "start": 22.9889,
      "duration": 0.0697,
      "velocity": 99,
      "chip": "ym2612"
    },
    {
      "channel": 3,
      "note": 72,
      "start": 22.9895,
      "duration": 0.0693,
      "velocity": 99,
      "chip": "ym2612"
    },
    {
      "channel": 0,
      "note": 43,
      "start": 23.0794,
      "duration": 0.0143,
      "velocity": 102,
      "chip": "ym2612"
    },
    {
      "channel": 1,
      "note": 79,
      "start": 23.0799,
      "duration": 0.0118,
      "velocity": 99,
      "chip": "ym2612"
    },
    {
      "channel": 2,
      "note": 74,
      "start": 23.0804,
      "duration": 0.0115,
      "velocity": 99,
      "chip": "ym2612"
    },
    {
      "channel": 3,
      "note": 72,
      "start": 23.0811,
      "duration": 0.0112,
      "velocity": 99,
      "chip": "ym2612"
    },
    {
      "channel": 4,
      "note": 93,
      "start": 23.0818,
      "duration": 0.2394,
      "velocity": 127,
      "chip": "ym2612"
    },
    {
      "channel": 0,
      "note": 43,
      "start": 23.3186,
      "duration": 0.0147,
      "velocity": 102,
      "chip": "ym2612"
    },
    {
      "channel": 1,
      "note": 79,
      "start": 23.3193,
      "duration": 0.0121,
      "velocity": 99,
      "chip": "ym2612"
    },
    {
      "channel": 2,
      "note": 74,
      "start": 23.32,
      "duration": 0.0116,
      "velocity": 99,
      "chip": "ym2612"
    },
    {
      "channel": 3,
      "note": 72,
      "start": 23.3207,
      "duration": 0.0112,
      "velocity": 99,
      "chip": "ym2612"
    },
    {
      "channel": 4,
      "note": 93,
      "start": 23.3215,
      "duration": 0.1116,
      "velocity": 127,
      "chip": "ym2612"
    },
    {
      "channel": 0,
      "note": 43,
      "start": 23.3335,
      "duration": 0.0972,
      "velocity": 102,
      "chip": "ym2612"
    },
    {
      "channel": 1,
      "note": 79,
      "start": 23.3341,
      "duration": 0.0757,
      "velocity": 99,
      "chip": "ym2612"
    },
    {
      "channel": 2,
      "note": 74,
      "start": 23.3346,
      "duration": 0.0755,
      "velocity": 99,
      "chip": "ym2612"
    },
    {
      "channel": 3,
      "note": 72,
      "start": 23.3353,
      "duration": 0.0752,
      "velocity": 99,
      "chip": "ym2612"
    },
    {
      "channel": 0,
      "note": 43,
      "start": 23.431,
      "duration": 0.0144,
      "velocity": 102,
      "chip": "ym2612"
    },
    {
      "channel": 1,
      "note": 79,
      "start": 23.4315,
      "duration": 0.0119,
      "velocity": 99,
      "chip": "ym2612"
    },
    {
      "channel": 2,
      "note": 74,
      "start": 23.4321,
      "duration": 0.0117,
      "velocity": 99,
      "chip": "ym2612"
    },
    {
      "channel": 3,
      "note": 72,
      "start": 23.4327,
      "duration": 0.0114,
      "velocity": 99,
      "chip": "ym2612"
    },
    {
      "channel": 4,
      "note": 93,
      "start": 23.4335,
      "duration": 0.2395,
      "velocity": 127,
      "chip": "ym2612"
    },
    {
      "channel": 0,
      "note": 43,
      "start": 23.6703,
      "duration": 0.015,
      "velocity": 102,
      "chip": "ym2612"
    },
    {
      "channel": 1,
      "note": 79,
      "start": 23.671,
      "duration": 0.0122,
      "velocity": 99,
      "chip": "ym2612"
    },
    {
      "channel": 2,
      "note": 74,
      "start": 23.6717,
      "duration": 0.0118,
      "velocity": 99,
      "chip": "ym2612"
    },
    {
      "channel": 3,
      "note": 72,
      "start": 23.6725,
      "duration": 0.0113,
      "velocity": 99,
      "chip": "ym2612"
    },
    {
      "channel": 4,
      "note": 93,
      "start": 23.6733,
      "duration": 0.1119,
      "velocity": 127,
      "chip": "ym2612"
    },
    {
      "channel": 0,
      "note": 43,
      "start": 23.6856,
      "duration": 0.0972,
      "velocity": 102,
      "chip": "ym2612"
    },
    {
      "channel": 1,
      "note": 79,
      "start": 23.6861,
      "duration": 0.0757,
      "velocity": 99,
      "chip": "ym2612"
    },
    {
      "channel": 2,
      "note": 74,
      "start": 23.6866,
      "duration": 0.0755,
      "velocity": 99,
      "chip": "ym2612"
    },
    {
      "channel": 3,
      "note": 72,
      "start": 23.6873,
      "duration": 0.0752,
      "velocity": 99,
      "chip": "ym2612"
    },
    {
      "channel": 0,
      "note": 43,
      "start": 23.783,
      "duration": 0.0142,
      "velocity": 102,
      "chip": "ym2612"
    },
    {
      "channel": 1,
      "note": 79,
      "start": 23.7835,
      "duration": 0.0117,
      "velocity": 99,
      "chip": "ym2612"
    },
    {
      "channel": 2,
      "note": 74,
      "start": 23.7841,
      "duration": 0.0114,
      "velocity": 99,
      "chip": "ym2612"
    },
    {
      "channel": 3,
      "note": 72,
      "start": 23.7847,
      "duration": 0.011,
      "velocity": 99,
      "chip": "ym2612"
    },
    {
      "channel": 4,
      "note": 93,
      "start": 23.7855,
      "duration": 0.2395,
      "velocity": 127,
      "chip": "ym2612"
    },
    {
      "channel": 0,
      "note": 43,
      "start": 24.022,
      "duration": 0.0151,
      "velocity": 102,
      "chip": "ym2612"
    },
    {
      "channel": 1,
      "note": 79,
      "start": 24.0229,
      "duration": 0.0124,
      "velocity": 99,
      "chip": "ym2612"
    },
    {
      "channel": 2,
      "note": 74,
      "start": 24.0237,
      "duration": 0.0118,
      "velocity": 99,
      "chip": "ym2612"
    },
    {
      "channel": 3,
      "note": 72,
      "start": 24.0246,
      "duration": 0.0112,
      "velocity": 99,
      "chip": "ym2612"
    },
    {
      "channel": 4,
      "note": 93,
      "start": 24.0254,
      "duration": 0.1411,
      "velocity": 127,
      "chip": "ym2612"
    },
    {
      "channel": 0,
      "note": 43,
      "start": 24.0375,
      "duration": 0.1261,
      "velocity": 102,
      "chip": "ym2612"
    },
    {
      "channel": 1,
      "note": 79,
      "start": 24.0382,
      "duration": 0.1046,
      "velocity": 99,
      "chip": "ym2612"
    },
    {
      "channel": 2,
      "note": 74,
      "start": 24.0388,
      "duration": 0.1042,
      "velocity": 99,
      "chip": "ym2612"
    },
    {
      "channel": 3,
      "note": 72,
      "start": 24.0397,
      "duration": 0.1037,
      "velocity": 99,
      "chip": "ym2612"
    },
    {
      "channel": 0,
      "note": 43,
      "start": 24.1639,
      "duration": 0.0148,
      "velocity": 102,
      "chip": "ym2612"
    },
    {
      "channel": 1,
      "note": 79,
      "start": 24.1646,
      "duration": 0.0122,
      "velocity": 99,
      "chip": "ym2612"
    },
    {
      "channel": 2,
      "note": 74,
      "start": 24.1652,
      "duration": 0.0118,
      "velocity": 99,
      "chip": "ym2612"
    },
    {
      "channel": 3,
      "note": 72,
      "start": 24.166,
      "duration": 0.0113,
      "velocity": 99,
      "chip": "ym2612"
    },
    {
      "channel": 4,
      "note": 93,
      "start": 24.1668,
      "duration": 0.0149,
      "velocity": 127,
      "chip": "ym2612"
    },
    {
      "channel": 0,
      "note": 43,
      "start": 24.1791,
      "duration": 0.1957,
      "velocity": 102,
      "chip": "ym2612"
    },
    {
      "channel": 1,
      "note": 79,
      "start": 24.1798,
      "duration": 0.012,
      "velocity": 99,
      "chip": "ym2612"
    },
    {
      "channel": 2,
      "note": 74,
      "start": 24.1804,
      "duration": 0.0116,
      "velocity": 99,
      "chip": "ym2612"
    },
    {
      "channel": 3,
      "note": 72,
      "start": 24.1812,
      "duration": 0.0111,
      "velocity": 99,
      "chip": "ym2612"
    },
    {
      "channel": 4,
      "note": 93,
      "start": 24.182,
      "duration": 0.3222,
      "velocity": 127,
      "chip": "ym2612"
    },
    {
      "channel": 0,
      "note": 43,
      "start": 24.4382,
      "duration": 0.0612,
      "velocity": 102,
      "chip": "ym2612"
    },
    {
      "channel": 0,
      "note": 47,
      "start": 24.5019,
      "duration": 0.2229,
      "velocity": 102,
      "chip": "ym2612"
    },
    {
      "channel": 4,
      "note": 93,
      "start": 24.5076,
      "duration": 0.2187,
      "velocity": 127,
      "chip": "ym2612"
    },
    {
      "channel": 0,
      "note": 47,
      "start": 24.725,
      "duration": 0.1424,
      "velocity": 102,
      "chip": "ym2612"
    },
    {
      "channel": 4,
      "note": 93,
      "start": 24.7266,
      "duration": 0.1424,
      "velocity": 127,
      "chip": "ym2612"
    },
    {
      "channel": 0,
      "note": 47,
      "start": 24.8677,
      "duration": 0.1414,
      "velocity": 102,
      "chip": "ym2612"
    },
    {
      "channel": 4,
      "note": 93,
      "start": 24.8693,
      "duration": 0.1119,
      "velocity": 127,
      "chip": "ym2612"
    },
    {
      "channel": 4,
      "note": 93,
      "start": 24.9815,
      "duration": 0.1415,
      "velocity": 127,
      "chip": "ym2612"
    },
    {
      "channel": 0,
      "note": 47,
      "start": 25.0093,
      "duration": 0.1403,
      "velocity": 102,
      "chip": "ym2612"
    },
    {
      "channel": 4,
      "note": 93,
      "start": 25.1234,
      "duration": 0.0277,
      "velocity": 127,
      "chip": "ym2612"
    },
    {
      "channel": 0,
      "note": 47,
      "start": 25.1499,
      "duration": 0.2249,
      "velocity": 102,
      "chip": "ym2612"
    },
    {
      "channel": 4,
      "note": 93,
      "start": 25.1515,
      "duration": 0.2248,
      "velocity": 127,
      "chip": "ym2612"
    },
    {
      "channel": 0,
      "note": 47,
      "start": 25.3751,
      "duration": 0.1424,
      "velocity": 102,
      "chip": "ym2612"
    },
    {
      "channel": 4,
      "note": 93,
      "start": 25.3766,
      "duration": 0.1425,
      "velocity": 127,
      "chip": "ym2612"
    },
    {
      "channel": 0,
      "note": 40,
      "start": 25.5178,
      "duration": 0.1427,
      "velocity": 102,
      "chip": "ym2612"
    },
    {
      "channel": 4,
      "note": 93,
      "start": 25.5194,
      "duration": 0.1118,
      "velocity": 127,
      "chip": "ym2612"
    },
    {
      "channel": 4,
      "note": 93,
      "start": 25.6315,
      "duration": 0.1437,
      "velocity": 127,
      "chip": "ym2612"
    },
    {
      "channel": 0,
      "note": 42,
      "start": 25.6608,
      "duration": 0.1124,
      "velocity": 102,
      "chip": "ym2612"
    },
    {
      "channel": 0,
      "note": 47,
      "start": 25.7735,
      "duration": 0.2247,
      "velocity": 102,
      "chip": "ym2612"
    },
    {
      "channel": 4,
      "note": 93,
      "start": 25.7756,
      "duration": 0.2242,
      "velocity": 127,
      "chip": "ym2612"
    },
    {
      "channel": 0,
      "note": 47,
      "start": 25.9985,
      "duration": 0.1424,
      "velocity": 102,
      "chip": "ym2612"
    },
    {
      "channel": 4,
      "note": 93,
      "start": 26.0002,
      "duration": 0.1422,
      "velocity": 127,
      "chip": "ym2612"
    },
    {
      "channel": 0,
      "note": 47,
      "start": 26.1411,
      "duration": 0.1417,
      "velocity": 102,
      "chip": "ym2612"
    },
    {
      "channel": 4,
      "note": 93,
      "start": 26.1427,
      "duration": 0.1119,
      "velocity": 127,
      "chip": "ym2612"
    },
    {
      "channel": 4,
      "note": 93,
      "start": 26.255,
      "duration": 0.1414,
      "velocity": 127,
      "chip": "ym2612"
    },
    {
      "channel": 0,
      "note": 47,
      "start": 26.2831,
      "duration": 0.1398,
      "velocity": 102,
      "chip": "ym2612"
    },
    {
      "channel": 4,
      "note": 93,
      "start": 26.3967,
      "duration": 0.0278,
      "velocity": 127,
      "chip": "ym2612"
    },
    {
      "channel": 0,
      "note": 47,
      "start": 26.4232,
      "duration": 0.2251,
      "velocity": 102,
      "chip": "ym2612"
    },
    {
      "channel": 4,
      "note": 93,
      "start": 26.4248,
      "duration": 0.225,
      "velocity": 127,
      "chip": "ym2612"
    },
    {
      "channel": 0,
      "note": 47,
      "start": 26.6486,
      "duration": 0.1425,
      "velocity": 102,
      "chip": "ym2612"
    },
    {
      "channel": 4,
      "note": 93,
      "start": 26.6502,
      "duration": 0.1424,
      "velocity": 127,
      "chip": "ym2612"
    },
    {
      "channel": 0,
      "note": 40,
      "start": 26.7914,
      "duration": 0.1431,
      "velocity": 102,
      "chip": "ym2612"
    },
    {
      "channel": 4,
      "note": 93,
      "start": 26.7929,
      "duration": 0.1119,
      "velocity": 127,
      "chip": "ym2612"
    },
    {
      "channel": 4,
      "note": 93,
      "start": 26.9053,
      "duration": 52.7782,
      "velocity": 127,
      "chip": "ym2612"
    },
    {
      "channel": 0,
      "note": 42,
      "start": 26.9347,
      "duration": 0.1123,
      "velocity": 102,
      "chip": "ym2612"
    },
    {
      "channel": 0,
      "note": 47,
      "start": 27.0474,
      "duration": 52.6361,
      "velocity": 102,
      "chip": "ym2612"
    }
  ]
}