{
  "track_name": "08 - Day 11- Stayin' Alive",
  "duration_sec": 69.716,
  "sample_rate": 44100,
  "note_count": 1073,
  "unique_pitches": 20,
  "pitch_range": 47,
  "avg_note_duration": 0.1072,
  "reconstruction_stats": {
    "notes_reconstructed": 1073,
    "keyon_events": 1073,
    "keyoff_events": 1073,
    "orphan_keyons": 0,
    "unique_pitches": 20,
    "pitch_range": 47,
    "avg_duration_sec": 0.1072
  },
  "metadata": {
    "source": "V\\Vectorman\\08 - Day 11- Stayin' Alive.vgz"
  },
  "notes": [
    {
      "channel": 0,
      "note": 64,
      "start": 0.0,
      "duration": 0.0,
      "velocity": 111,
      "chip": "ym2612"
    },
    {
      "channel": 4,
      "note": 64,
      "start": 0.0,
      "duration": 0.0,
      "velocity": 1,
      "chip": "ym2612"
    },
    {
      "channel": 0,
      "note": 50,
      "start": 0.0001,
      "duration": 0.1906,
      "velocity": 127,
      "chip": "ym2612"
    },
    {
      "channel": 0,
      "note": 62,
      "start": 0.2105,
      "duration": 0.1969,
      "velocity": 127,
      "chip": "ym2612"
    },
    {
      "channel": 0,
      "note": 50,
      "start": 0.4271,
      "duration": 0.197,
      "velocity": 127,
      "chip": "ym2612"
    },
    {
      "channel": 0,
      "note": 62,
      "start": 0.6438,
      "duration": 0.197,
      "velocity": 127,
      "chip": "ym2612"
    },
    {
      "channel": 0,
      "note": 50,
      "start": 0.8605,
      "duration": 0.1968,
      "velocity": 127,
      "chip": "ym2612"
    },
    {
      "channel": 0,
      "note": 62,
      "start": 1.0776,
      "duration": 0.1964,
      "velocity": 127,
      "chip": "ym2612"
    },
    {
      "channel": 0,
      "note": 50,
      "start": 1.2939,
      "duration": 0.1968,
      "velocity": 127,
      "chip": "ym2612"
    },
    {
      "channel": 0,
      "note": 62,
      "start": 1.5272,
      "duration": 0.1803,
      "velocity": 127,
      "chip": "ym2612"
    },
    {
      "channel": 0,
      "note": 50,
      "start": 1.7438,
      "duration": 0.1968,
      "velocity": 127,
      "chip": "ym2612"
    },
    {
      "channel": 0,
      "note": 62,
      "start": 1.9606,
      "duration": 0.1968,
      "velocity": 127,
      "chip": "ym2612"
    },
    {
      "channel": 0,
      "note": 50,
      "start": 2.1772,
      "duration": 0.1968,
      "velocity": 127,
      "chip": "ym2612"
    },
    {
      "channel": 0,
      "note": 62,
      "start": 2.3938,
      "duration": 0.1968,
      "velocity": 127,
      "chip": "ym2612"
    },
    {
      "channel": 0,
      "note": 50,
      "start": 2.6106,
      "duration": 0.1969,
      "velocity": 127,
      "chip": "ym2612"
    },
    {
      "channel": 0,
      "note": 62,
      "start": 2.8272,
      "duration": 0.1969,
      "velocity": 127,
      "chip": "ym2612"
    },
    {
      "channel": 0,
      "note": 53,
      "start": 3.0439,
      "duration": 0.1968,
      "velocity": 127,
      "chip": "ym2612"
    },
    {
      "channel": 0,
      "note": 65,
      "start": 3.2605,
      "duration": 0.1969,
      "velocity": 127,
      "chip": "ym2612"
    },
    {
      "channel": 0,
      "note": 50,
      "start": 3.4772,
      "duration": 0.197,
      "velocity": 127,
      "chip": "ym2612"
    },
    {
      "channel": 1,
      "note": 56,
      "start": 3.482,
      "duration": 0.0421,
      "velocity": 118,
      "chip": "ym2612"
    },
    {
      "channel": 0,
      "note": 62,
      "start": 3.6938,
      "duration": 0.197,
      "velocity": 127,
      "chip": "ym2612"
    },
    {
      "channel": 0,
      "note": 50,
      "start": 3.9105,
      "duration": 0.197,
      "velocity": 127,
      "chip": "ym2612"
    },
    {
      "channel": 1,
      "note": 56,
      "start": 3.9132,
      "duration": 0.061,
      "velocity": 118,
      "chip": "ym2612"
    },
    {
      "channel": 0,
      "note": 62,
      "start": 4.1272,
      "duration": 0.1968,
      "velocity": 127,
      "chip": "ym2612"
    },
    {
      "channel": 0,
      "note": 50,
      "start": 4.3439,
      "duration": 0.1968,
      "velocity": 127,
      "chip": "ym2612"
    },
    {
      "channel": 1,
      "note": 56,
      "start": 4.3466,
      "duration": 0.0608,
      "velocity": 118,
      "chip": "ym2612"
    },
    {
      "channel": 0,
      "note": 62,
      "start": 4.5776,
      "duration": 0.1965,
      "velocity": 127,
      "chip": "ym2612"
    },
    {
      "channel": 0,
      "note": 50,
      "start": 4.7938,
      "duration": 0.1969,
      "velocity": 127,
      "chip": "ym2612"
    },
    {
      "channel": 1,
      "note": 56,
      "start": 4.7969,
      "duration": 0.0439,
      "velocity": 118,
      "chip": "ym2612"
    },
    {
      "channel": 0,
      "note": 62,
      "start": 5.0105,
      "duration": 0.1968,
      "velocity": 127,
      "chip": "ym2612"
    },
    {
      "channel": 0,
      "note": 50,
      "start": 5.2272,
      "duration": 0.1968,
      "velocity": 127,
      "chip": "ym2612"
    },
    {
      "channel": 1,
      "note": 56,
      "start": 5.2299,
      "duration": 0.0441,
      "velocity": 118,
      "chip": "ym2612"
    },
    {
      "channel": 0,
      "note": 62,
      "start": 5.4438,
      "duration": 0.1968,
      "velocity": 127,
      "chip": "ym2612"
    },
    {
      "channel": 0,
      "note": 50,
      "start": 5.6606,
      "duration": 0.1968,
      "velocity": 127,
      "chip": "ym2612"
    },
    {
      "channel": 1,
      "note": 56,
      "start": 5.6632,
      "duration": 0.0441,
      "velocity": 118,
      "chip": "ym2612"
    },
    {
      "channel": 0,
      "note": 62,
      "start": 5.8772,
      "duration": 0.1968,
      "velocity": 127,
      "chip": "ym2612"
    },
    {
      "channel": 0,
      "note": 50,
      "start": 6.0939,
      "duration": 0.1969,
      "velocity": 127,
      "chip": "ym2612"
    },
    {
      "channel": 1,
      "note": 56,
      "start": 6.0966,
      "duration": 0.0441,
      "velocity": 118,
      "chip": "ym2612"
    },
    {
      "channel": 0,
      "note": 62,
      "start": 6.3105,
      "duration": 0.1969,
      "velocity": 127,
      "chip": "ym2612"
    },
    {
      "channel": 0,
      "note": 53,
      "start": 6.5272,
      "duration": 0.1968,
      "velocity": 127,
      "chip": "ym2612"
    },
    {
      "channel": 1,
      "note": 56,
      "start": 6.5299,
      "duration": 0.0441,
      "velocity": 118,
      "chip": "ym2612"
    },
    {
      "channel": 3,
      "note": 45,
      "start": 6.5347,
      "duration": 0.0228,
      "velocity": 127,
      "chip": "ym2612"
    },
    {
      "channel": 3,
      "note": 45,
      "start": 6.6441,
      "duration": 0.03,
      "velocity": 127,
      "chip": "ym2612"
    },
    {
      "channel": 0,
      "note": 65,
      "start": 6.7439,
      "duration": 0.1969,
      "velocity": 127,
      "chip": "ym2612"
    },
    {
      "channel": 3,
      "note": 45,
      "start": 6.7467,
      "duration": 0.0275,
      "velocity": 127,
      "chip": "ym2612"
    },
    {
      "channel": 3,
      "note": 45,
      "start": 6.8614,
      "duration": 0.0294,
      "velocity": 127,
      "chip": "ym2612"
    },
    {
      "channel": 4,
      "note": 38,
      "start": 6.9627,
      "duration": 0.0948,
      "velocity": 117,
      "chip": "ym2612"
    },
    {
      "channel": 0,
      "note": 50,
      "start": 6.9652,
      "duration": 0.1923,
      "velocity": 127,
      "chip": "ym2612"
    },
    {
      "channel": 1,
      "note": 56,
      "start": 6.9679,
      "duration": 0.0563,
      "velocity": 118,
      "chip": "ym2612"
    },
    {
      "channel": 4,
      "note": 38,
      "start": 7.0774,
      "duration": 0.0803,
      "velocity": 117,
      "chip": "ym2612"
    },
    {
      "channel": 5,
      "note": 50,
      "start": 7.1797,
      "duration": 0.0945,
      "velocity": 117,
      "chip": "ym2612"
    },
    {
      "channel": 0,
      "note": 62,
      "start": 7.1823,
      "duration": 0.1917,
      "velocity": 127,
      "chip": "ym2612"
    },
    {
      "channel": 5,
      "note": 50,
      "start": 7.294,
      "duration": 0.0803,
      "velocity": 117,
      "chip": "ym2612"
    },
    {
      "channel": 4,
      "note": 38,
      "start": 7.3944,
      "duration": 0.0965,
      "velocity": 117,
      "chip": "ym2612"
    },
    {
      "channel": 0,
      "note": 50,
      "start": 7.397,
      "duration": 0.1938,
      "velocity": 127,
      "chip": "ym2612"
    },
    {
      "channel": 1,
      "note": 56,
      "start": 7.3996,
      "duration": 0.0578,
      "velocity": 118,
      "chip": "ym2612"
    },
    {
      "channel": 3,
      "note": 45,
      "start": 7.4024,
      "duration": 0.0384,
      "velocity": 127,
      "chip": "ym2612"
    },
    {
      "channel": 4,
      "note": 38,
      "start": 7.5107,
      "duration": 0.0803,
      "velocity": 117,
      "chip": "ym2612"
    },
    {
      "channel": 5,
      "note": 50,
      "start": 7.6274,
      "duration": 0.0802,
      "velocity": 117,
      "chip": "ym2612"
    },
    {
      "channel": 0,
      "note": 62,
      "start": 7.6301,
      "duration": 0.194,
      "velocity": 127,
      "chip": "ym2612"
    },
    {
      "channel": 5,
      "note": 50,
      "start": 7.7274,
      "duration": 0.097,
      "velocity": 117,
      "chip": "ym2612"
    },
    {
      "channel": 4,
      "note": 38,
      "start": 7.8441,
      "duration": 0.08,
      "velocity": 117,
      "chip": "ym2612"
    },
    {
      "channel": 0,
      "note": 50,
      "start": 7.8467,
      "duration": 0.194,
      "velocity": 127,
      "chip": "ym2612"
    },
    {
      "channel": 1,
      "note": 56,
      "start": 7.8494,
      "duration": 0.0414,
      "velocity": 118,
      "chip": "ym2612"
    },
    {
      "channel": 4,
      "note": 38,
      "start": 7.9441,
      "duration": 0.0968,
      "velocity": 117,
      "chip": "ym2612"
    },
    {
      "channel": 5,
      "note": 50,
      "start": 8.0607,
      "duration": 0.0802,
      "velocity": 117,
      "chip": "ym2612"
    },
    {
      "channel": 0,
      "note": 62,
      "start": 8.0637,
      "duration": 0.1936,
      "velocity": 127,
      "chip": "ym2612"
    },
    {
      "channel": 5,
      "note": 50,
      "start": 8.1607,
      "duration": 0.0969,
      "velocity": 117,
      "chip": "ym2612"
    },
    {
      "channel": 4,
      "note": 38,
      "start": 8.2774,
      "duration": 0.0801,
      "velocity": 117,
      "chip": "ym2612"
    },
    {
      "channel": 0,
      "note": 50,
      "start": 8.28,
      "duration": 0.194,
      "velocity": 127,
      "chip": "ym2612"
    },
    {
      "channel": 1,
      "note": 56,
      "start": 8.2826,
      "duration": 0.0415,
      "velocity": 118,
      "chip": "ym2612"
    },
    {
      "channel": 3,
      "note": 45,
      "start": 8.2853,
      "duration": 0.0223,
      "velocity": 127,
      "chip": "ym2612"
    },
    {
      "channel": 4,
      "note": 38,
      "start": 8.3774,
      "duration": 0.0968,
      "velocity": 117,
      "chip": "ym2612"
    },
    {
      "channel": 5,
      "note": 50,
      "start": 8.494,
      "duration": 0.0802,
      "velocity": 117,
      "chip": "ym2612"
    },
    {
      "channel": 0,
      "note": 62,
      "start": 8.4967,
      "duration": 0.194,
      "velocity": 127,
      "chip": "ym2612"
    },
    {
      "channel": 5,
      "note": 50,
      "start": 8.594,
      "duration": 0.0969,
      "velocity": 117,
      "chip": "ym2612"
    },
    {
      "channel": 4,
      "note": 38,
      "start": 8.7107,
      "duration": 0.0801,
      "velocity": 117,
      "chip": "ym2612"
    },
    {
      "channel": 0,
      "note": 50,
      "start": 8.7133,
      "duration": 0.1941,
      "velocity": 127,
      "chip": "ym2612"
    },
    {
      "channel": 1,
      "note": 56,
      "start": 8.716,
      "duration": 0.0414,
      "velocity": 118,
      "chip": "ym2612"
    },
    {
      "channel": 4,
      "note": 38,
      "start": 8.8108,
      "duration": 0.0968,
      "velocity": 117,
      "chip": "ym2612"
    },
    {
      "channel": 5,
      "note": 50,
      "start": 8.9278,
      "duration": 0.0798,
      "velocity": 117,
      "chip": "ym2612"
    },
    {
      "channel": 0,
      "note": 62,
      "start": 8.9305,
      "duration": 0.1936,
      "velocity": 127,
      "chip": "ym2612"
    },
    {
      "channel": 5,
      "note": 50,
      "start": 9.0441,
      "duration": 0.0803,
      "velocity": 117,
      "chip": "ym2612"
    },
    {
      "channel": 4,
      "note": 38,
      "start": 9.1445,
      "duration": 0.0797,
      "velocity": 117,
      "chip": "ym2612"
    },
    {
      "channel": 0,
      "note": 50,
      "start": 9.1471,
      "duration": 0.1936,
      "velocity": 127,
      "chip": "ym2612"
    },
    {
      "channel": 1,
      "note": 56,
      "start": 9.1498,
      "duration": 0.041,
      "velocity": 118,
      "chip": "ym2612"
    },
    {
      "channel": 3,
      "note": 45,
      "start": 9.1524,
      "duration": 0.0217,
      "velocity": 127,
      "chip": "ym2612"
    },
    {
      "channel": 4,
      "note": 38,
      "start": 9.2607,
      "duration": 0.0802,
      "velocity": 117,
      "chip": "ym2612"
    },
    {
      "channel": 5,
      "note": 50,
      "start": 9.3607,
      "duration": 0.0969,
      "velocity": 117,
      "chip": "ym2612"
    },
    {
      "channel": 0,
      "note": 62,
      "start": 9.3634,
      "duration": 0.194,
      "velocity": 127,
      "chip": "ym2612"
    },
    {
      "channel": 5,
      "note": 50,
      "start": 9.4774,
      "duration": 0.0803,
      "velocity": 117,
      "chip": "ym2612"
    },
    {
      "channel": 4,
      "note": 38,
      "start": 9.5775,
      "duration": 0.0967,
      "velocity": 117,
      "chip": "ym2612"
    },
    {
      "channel": 0,
      "note": 50,
      "start": 9.58,
      "duration": 0.194,
      "velocity": 127,
      "chip": "ym2612"
    },
    {
      "channel": 1,
      "note": 56,
      "start": 9.5827,
      "duration": 0.0414,
      "velocity": 118,
      "chip": "ym2612"
    },
    {
      "channel": 4,
      "note": 38,
      "start": 9.6941,
      "duration": 0.0802,
      "velocity": 117,
      "chip": "ym2612"
    },
    {
      "channel": 5,
      "note": 50,
      "start": 9.794,
      "duration": 0.0968,
      "velocity": 117,
      "chip": "ym2612"
    },
    {
      "channel": 0,
      "note": 62,
      "start": 9.7967,
      "duration": 0.194,
      "velocity": 127,
      "chip": "ym2612"
    },
    {
      "channel": 5,
      "note": 50,
      "start": 9.9107,
      "duration": 0.0802,
      "velocity": 117,
      "chip": "ym2612"
    },
    {
      "channel": 4,
      "note": 41,
      "start": 10.0107,
      "duration": 0.0968,
      "velocity": 117,
      "chip": "ym2612"
    },
    {
      "channel": 0,
      "note": 53,
      "start": 10.0133,
      "duration": 0.1941,
      "velocity": 127,
      "chip": "ym2612"
    },
    {
      "channel": 1,
      "note": 56,
      "start": 10.016,
      "duration": 0.0581,
      "velocity": 118,
      "chip": "ym2612"
    },
    {
      "channel": 3,
      "note": 45,
      "start": 10.0186,
      "duration": 0.0389,
      "velocity": 127,
      "chip": "ym2612"
    },
    {
      "channel": 4,
      "note": 41,
      "start": 10.1274,
      "duration": 0.0803,
      "velocity": 117,
      "chip": "ym2612"
    },
    {
      "channel": 5,
      "note": 53,
      "start": 10.2274,
      "duration": 0.0968,
      "velocity": 117,
      "chip": "ym2612"
    },
    {
      "channel": 0,
      "note": 65,
      "start": 10.23,
      "duration": 0.194,
      "velocity": 127,
      "chip": "ym2612"
    },
    {
      "channel": 5,
      "note": 53,
      "start": 10.3441,
      "duration": 0.0803,
      "velocity": 117,
      "chip": "ym2612"
    },
    {
      "channel": 4,
      "note": 38,
      "start": 10.4441,
      "duration": 0.0968,
      "velocity": 117,
      "chip": "ym2612"
    },
    {
      "channel": 0,
      "note": 50,
      "start": 10.4467,
      "duration": 0.194,
      "velocity": 127,
      "chip": "ym2612"
    },
    {
      "channel": 1,
      "note": 56,
      "start": 10.4494,
      "duration": 0.058,
      "velocity": 118,
      "chip": "ym2612"
    },
    {
      "channel": 4,
      "note": 38,
      "start": 10.5607,
      "duration": 0.0802,
      "velocity": 117,
      "chip": "ym2612"
    },
    {
      "channel": 5,
      "note": 50,
      "start": 10.6778,
      "duration": 0.0798,
      "velocity": 117,
      "chip": "ym2612"
    },
    {
      "channel": 0,
      "note": 62,
      "start": 10.6805,
      "duration": 0.1936,
      "velocity": 127,
      "chip": "ym2612"
    },
    {
      "channel": 5,
      "note": 50,
      "start": 10.7774,
      "duration": 0.097,
      "velocity": 117,
      "chip": "ym2612"
    },
    {
      "channel": 4,
      "note": 38,
      "start": 10.8945,
      "duration": 0.0798,
      "velocity": 117,
      "chip": "ym2612"
    },
    {
      "channel": 0,
      "note": 50,
      "start": 10.897,
      "duration": 0.1936,
      "velocity": 127,
      "chip": "ym2612"
    },
    {
      "channel": 1,
      "note": 56,
      "start": 10.8997,
      "duration": 0.0411,
      "velocity": 118,
      "chip": "ym2612"
    },
    {
      "channel": 3,
      "note": 45,
      "start": 10.9024,
      "duration": 0.0218,
      "velocity": 127,
      "chip": "ym2612"
    },
    {
      "channel": 4,
      "note": 38,
      "start": 10.9941,
      "duration": 0.0968,
      "velocity": 117,
      "chip": "ym2612"
    },
    {
      "channel": 5,
      "note": 50,
      "start": 11.1107,
      "duration": 0.0801,
      "velocity": 117,
      "chip": "ym2612"
    },
    {
      "channel": 0,
      "note": 62,
      "start": 11.1134,
      "duration": 0.194,
      "velocity": 127,
      "chip": "ym2612"
    },
    {
      "channel": 5,
      "note": 50,
      "start": 11.2107,
      "duration": 0.0969,
      "velocity": 117,
      "chip": "ym2612"
    },
    {
      "channel": 4,
      "note": 38,
      "start": 11.3274,
      "duration": 0.0801,
      "velocity": 117,
      "chip": "ym2612"
    },
    {
      "channel": 0,
      "note": 50,
      "start": 11.33,
      "duration": 0.1941,
      "velocity": 127,
      "chip": "ym2612"
    },
    {
      "channel": 1,
      "note": 56,
      "start": 11.3326,
      "duration": 0.0415,
      "velocity": 118,
      "chip": "ym2612"
    },
    {
      "channel": 4,
      "note": 38,
      "start": 11.4274,
      "duration": 0.0969,
      "velocity": 117,
      "chip": "ym2612"
    },
    {
      "channel": 5,
      "note": 50,
      "start": 11.5441,
      "duration": 0.0802,
      "velocity": 117,
      "chip": "ym2612"
    },
    {
      "channel": 0,
      "note": 62,
      "start": 11.5471,
      "duration": 0.1936,
      "velocity": 127,
      "chip": "ym2612"
    },
    {
      "channel": 5,
      "note": 50,
      "start": 11.644,
      "duration": 0.097,
      "velocity": 117,
      "chip": "ym2612"
    },
    {
      "channel": 4,
      "note": 38,
      "start": 11.7607,
      "duration": 0.0801,
      "velocity": 117,
      "chip": "ym2612"
    },
    {
      "channel": 0,
      "note": 50,
      "start": 11.7633,
      "duration": 0.1941,
      "velocity": 127,
      "chip": "ym2612"
    },
    {
      "channel": 1,
      "note": 56,
      "start": 11.7663,
      "duration": 0.041,
      "velocity": 118,
      "chip": "ym2612"
    },
    {
      "channel": 3,
      "note": 45,
      "start": 11.769,
      "duration": 0.0218,
      "velocity": 127,
      "chip": "ym2612"
    },
    {
      "channel": 4,
      "note": 38,
      "start": 11.8607,
      "duration": 0.0969,
      "velocity": 117,
      "chip": "ym2612"
    },
    {
      "channel": 5,
      "note": 50,
      "start": 11.9774,
      "duration": 0.0803,
      "velocity": 117,
      "chip": "ym2612"
    },
    {
      "channel": 0,
      "note": 62,
      "start": 11.9801,
      "duration": 0.1939,
      "velocity": 127,
      "chip": "ym2612"
    },
    {
      "channel": 5,
      "note": 50,
      "start": 12.0941,
      "duration": 0.0802,
      "velocity": 117,
      "chip": "ym2612"
    },
    {
      "channel": 4,
      "note": 38,
      "start": 12.1941,
      "duration": 0.0801,
      "velocity": 117,
      "chip": "ym2612"
    },
    {
      "channel": 0,
      "note": 50,
      "start": 12.1966,
      "duration": 0.194,
      "velocity": 127,
      "chip": "ym2612"
    },
    {
      "channel": 1,
      "note": 56,
      "start": 12.1993,
      "duration": 0.0415,
      "velocity": 118,
      "chip": "ym2612"
    },
    {
      "channel": 4,
      "note": 38,
      "start": 12.3107,
      "duration": 0.0802,
      "velocity": 117,
      "chip": "ym2612"
    },
    {
      "channel": 5,
      "note": 50,
      "start": 12.4111,
      "duration": 0.0966,
      "velocity": 117,
      "chip": "ym2612"
    },
    {
      "channel": 0,
      "note": 62,
      "start": 12.4137,
      "duration": 0.1937,
      "velocity": 127,
      "chip": "ym2612"
    },
    {
      "channel": 5,
      "note": 50,
      "start": 12.5274,
      "duration": 0.0803,
      "velocity": 117,
      "chip": "ym2612"
    },
    {
      "channel": 4,
      "note": 38,
      "start": 12.6279,
      "duration": 0.0963,
      "velocity": 117,
      "chip": "ym2612"
    },
    {
      "channel": 0,
      "note": 50,
      "start": 12.6304,
      "duration": 0.1936,
      "velocity": 127,
      "chip": "ym2612"
    },
    {
      "channel": 1,
      "note": 56,
      "start": 12.6331,
      "duration": 0.0411,
      "velocity": 118,
      "chip": "ym2612"
    },
    {
      "channel": 3,
      "note": 45,
      "start": 12.6357,
      "duration": 0.0218,
      "velocity": 127,
      "chip": "ym2612"
    },
    {
      "channel": 4,
      "note": 38,
      "start": 12.7441,
      "duration": 0.0802,
      "velocity": 117,
      "chip": "ym2612"
    },
    {
      "channel": 5,
      "note": 50,
      "start": 12.844,
      "duration": 0.0969,
      "velocity": 117,
      "chip": "ym2612"
    },
    {
      "channel": 0,
      "note": 62,
      "start": 12.8467,
      "duration": 0.194,
      "velocity": 127,
      "chip": "ym2612"
    },
    {
      "channel": 5,
      "note": 50,
      "start": 12.9607,
      "duration": 0.0803,
      "velocity": 117,
      "chip": "ym2612"
    },
    {
      "channel": 4,
      "note": 38,
      "start": 13.0607,
      "duration": 0.0968,
      "velocity": 117,
      "chip": "ym2612"
    },
    {
      "channel": 0,
      "note": 50,
      "start": 13.0633,
      "duration": 0.1941,
      "velocity": 127,
      "chip": "ym2612"
    },
    {
      "channel": 1,
      "note": 56,
      "start": 13.066,
      "duration": 0.0582,
      "velocity": 118,
      "chip": "ym2612"
    },
    {
      "channel": 4,
      "note": 38,
      "start": 13.1774,
      "duration": 0.0802,
      "velocity": 117,
      "chip": "ym2612"
    },
    {
      "channel": 5,
      "note": 50,
      "start": 13.2774,
      "duration": 0.0968,
      "velocity": 117,
      "chip": "ym2612"
    },
    {
      "channel": 0,
      "note": 62,
      "start": 13.2801,
      "duration": 0.194,
      "velocity": 127,
      "chip": "ym2612"
    },
    {
      "channel": 5,
      "note": 50,
      "start": 13.3941,
      "duration": 0.0803,
      "velocity": 117,
      "chip": "ym2612"
    },
    {
      "channel": 4,
      "note": 41,
      "start": 13.4941,
      "duration": 0.0968,
      "velocity": 117,
      "chip": "ym2612"
    },
    {
      "channel": 0,
      "note": 53,
      "start": 13.4966,
      "duration": 0.194,
      "velocity": 127,
      "chip": "ym2612"
    },
    {
      "channel": 1,
      "note": 56,
      "start": 13.4993,
      "duration": 0.0582,
      "velocity": 118,
      "chip": "ym2612"
    },
    {
      "channel": 3,
      "note": 45,
      "start": 13.502,
      "duration": 0.0389,
      "velocity": 127,
      "chip": "ym2612"
    },
    {
      "channel": 4,
      "note": 41,
      "start": 13.6108,
      "duration": 0.0801,
      "velocity": 117,
      "chip": "ym2612"
    },
    {
      "channel": 5,
      "note": 53,
      "start": 13.7273,
      "duration": 0.0803,
      "velocity": 117,
      "chip": "ym2612"
    },
    {
      "channel": 0,
      "note": 65,
      "start": 13.73,
      "duration": 0.1941,
      "velocity": 127,
      "chip": "ym2612"
    },
    {
      "channel": 5,
      "note": 53,
      "start": 13.8272,
      "duration": 0.0971,
      "velocity": 117,
      "chip": "ym2612"
    },
    {
      "channel": 4,
      "note": 34,
      "start": 13.9441,
      "duration": 0.08,
      "velocity": 117,
      "chip": "ym2612"
    },
    {
      "channel": 0,
      "note": 46,
      "start": 13.9467,
      "duration": 0.194,
      "velocity": 127,
      "chip": "ym2612"
    },
    {
      "channel": 1,
      "note": 56,
      "start": 13.9494,
      "duration": 0.0414,
      "velocity": 118,
      "chip": "ym2612"
    },
    {
      "channel": 4,
      "note": 34,
      "start": 14.0441,
      "duration": 0.0968,
      "velocity": 117,
      "chip": "ym2612"
    },
    {
      "channel": 5,
      "note": 46,
      "start": 14.1611,
      "duration": 0.0799,
      "velocity": 117,
      "chip": "ym2612"
    },
    {
      "channel": 0,
      "note": 58,
      "start": 14.1637,
      "duration": 0.1937,
      "velocity": 127,
      "chip": "ym2612"
    },
    {
      "channel": 5,
      "note": 46,
      "start": 14.2607,
      "duration": 0.097,
      "velocity": 117,
      "chip": "ym2612"
    },
    {
      "channel": 4,
      "note": 34,
      "start": 14.3778,
      "duration": 0.0798,
      "velocity": 117,
      "chip": "ym2612"
    },
    {
      "channel": 0,
      "note": 46,
      "start": 14.3804,
      "duration": 0.1937,
      "velocity": 127,
      "chip": "ym2612"
    },
    {
      "channel": 1,
      "note": 56,
      "start": 14.383,
      "duration": 0.0411,
      "velocity": 118,
      "chip": "ym2612"
    },
    {
      "channel": 3,
      "note": 45,
      "start": 14.3857,
      "duration": 0.0218,
      "velocity": 127,
      "chip": "ym2612"
    },
    {
      "channel": 4,
      "note": 34,
      "start": 14.4774,
      "duration": 0.0969,
      "velocity": 117,
      "chip": "ym2612"
    },
    {
      "channel": 5,
      "note": 46,
      "start": 14.5941,
      "duration": 0.0801,
      "velocity": 117,
      "chip": "ym2612"
    },
    {
      "channel": 0,
      "note": 58,
      "start": 14.5968,
      "duration": 0.1939,
      "velocity": 127,
      "chip": "ym2612"
    },
    {
      "channel": 5,
      "note": 46,
      "start": 14.694,
      "duration": 0.0969,
      "velocity": 117,
      "chip": "ym2612"
    },
    {
      "channel": 4,
      "note": 34,
      "start": 14.8107,
      "duration": 0.0802,
      "velocity": 117,
      "chip": "ym2612"
    },
    {
      "channel": 0,
      "note": 46,
      "start": 14.8133,
      "duration": 0.194,
      "velocity": 127,
      "chip": "ym2612"
    },
    {
      "channel": 1,
      "note": 56,
      "start": 14.816,
      "duration": 0.0415,
      "velocity": 118,
      "chip": "ym2612"
    },
    {
      "channel": 4,
      "note": 34,
      "start": 14.9107,
      "duration": 0.0968,
      "velocity": 117,
      "chip": "ym2612"
    },
    {
      "channel": 5,
      "note": 46,
      "start": 15.0274,
      "duration": 0.0802,
      "velocity": 117,
      "chip": "ym2612"
    },
    {
      "channel": 0,
      "note": 58,
      "start": 15.0304,
      "duration": 0.1937,
      "velocity": 127,
      "chip": "ym2612"
    },
    {
      "channel": 5,
      "note": 46,
      "start": 15.144,
      "duration": 0.0803,
      "velocity": 117,
      "chip": "ym2612"
    },
    {
      "channel": 4,
      "note": 34,
      "start": 15.2441,
      "duration": 0.0969,
      "velocity": 117,
      "chip": "ym2612"
    },
    {
      "channel": 0,
      "note": 46,
      "start": 15.2466,
      "duration": 0.1941,
      "velocity": 127,
      "chip": "ym2612"
    },
    {
      "channel": 1,
      "note": 56,
      "start": 15.2493,
      "duration": 0.0415,
      "velocity": 118,
      "chip": "ym2612"
    },
    {
      "channel": 3,
      "note": 45,
      "start": 15.2519,
      "duration": 0.0223,
      "velocity": 127,
      "chip": "ym2612"
    },
    {
      "channel": 4,
      "note": 34,
      "start": 15.3607,
      "duration": 0.0802,
      "velocity": 117,
      "chip": "ym2612"
    },
    {
      "channel": 5,
      "note": 46,
      "start": 15.4607,
      "duration": 0.0969,
      "velocity": 117,
      "chip": "ym2612"
    },
    {
      "channel": 0,
      "note": 58,
      "start": 15.4634,
      "duration": 0.194,
      "velocity": 127,
      "chip": "ym2612"
    },
    {
      "channel": 5,
      "note": 46,
      "start": 15.5774,
      "duration": 0.0803,
      "velocity": 117,
      "chip": "ym2612"
    },
    {
      "channel": 4,
      "note": 34,
      "start": 15.6775,
      "duration": 0.0966,
      "velocity": 117,
      "chip": "ym2612"
    },
    {
      "channel": 0,
      "note": 46,
      "start": 15.68,
      "duration": 0.194,
      "velocity": 127,
      "chip": "ym2612"
    },
    {
      "channel": 1,
      "note": 56,
      "start": 15.6827,
      "duration": 0.0414,
      "velocity": 118,
      "chip": "ym2612"
    },
    {
      "channel": 4,
      "note": 34,
      "start": 15.794,
      "duration": 0.0803,
      "velocity": 117,
      "chip": "ym2612"
    },
    {
      "channel": 5,
      "note": 46,
      "start": 15.8945,
      "duration": 0.0964,
      "velocity": 117,
      "chip": "ym2612"
    },
    {
      "channel": 0,
      "note": 58,
      "start": 15.8971,
      "duration": 0.1935,
      "velocity": 127,
      "chip": "ym2612"
    },
    {
      "channel": 5,
      "note": 46,
      "start": 16.0107,
      "duration": 0.0802,
      "velocity": 117,
      "chip": "ym2612"
    },
    {
      "channel": 4,
      "note": 34,
      "start": 16.1111,
      "duration": 0.0964,
      "velocity": 117,
      "chip": "ym2612"
    },
    {
      "channel": 0,
      "note": 46,
      "start": 16.1137,
      "duration": 0.1936,
      "velocity": 127,
      "chip": "ym2612"
    },
    {
      "channel": 1,
      "note": 56,
      "start": 16.1163,
      "duration": 0.0577,
      "velocity": 118,
      "chip": "ym2612"
    },
    {
      "channel": 3,
      "note": 45,
      "start": 16.119,
      "duration": 0.0386,
      "velocity": 127,
      "chip": "ym2612"
    },
    {
      "channel": 4,
      "note": 34,
      "start": 16.2274,
      "duration": 0.0802,
      "velocity": 117,
      "chip": "ym2612"
    },
    {
      "channel": 5,
      "note": 46,
      "start": 16.3274,
      "duration": 0.0969,
      "velocity": 117,
      "chip": "ym2612"
    },
    {
      "channel": 0,
      "note": 58,
      "start": 16.33,
      "duration": 0.194,
      "velocity": 127,
      "chip": "ym2612"
    },
    {
      "channel": 5,
      "note": 46,
      "start": 16.4441,
      "duration": 0.0802,
      "velocity": 117,
      "chip": "ym2612"
    },
    {
      "channel": 4,
      "note": 34,
      "start": 16.5441,
      "duration": 0.0968,
      "velocity": 117,
      "chip": "ym2612"
    },
    {
      "channel": 0,
      "note": 46,
      "start": 16.5466,
      "duration": 0.194,
      "velocity": 127,
      "chip": "ym2612"
    },
    {
      "channel": 1,
      "note": 56,
      "start": 16.5493,
      "duration": 0.0582,
      "velocity": 118,
      "chip": "ym2612"
    },
    {
      "channel": 4,
      "note": 34,
      "start": 16.6607,
      "duration": 0.0802,
      "velocity": 117,
      "chip": "ym2612"
    },
    {
      "channel": 5,
      "note": 46,
      "start": 16.7774,
      "duration": 0.0803,
      "velocity": 117,
      "chip": "ym2612"
    },
    {
      "channel": 0,
      "note": 58,
      "start": 16.78,
      "duration": 0.194,
      "velocity": 127,
      "chip": "ym2612"
    },
    {
      "channel": 5,
      "note": 46,
      "start": 16.8774,
      "duration": 0.097,
      "velocity": 117,
      "chip": "ym2612"
    },
    {
      "channel": 4,
      "note": 36,
      "start": 16.9941,
      "duration": 0.0801,
      "velocity": 117,
      "chip": "ym2612"
    },
    {
      "channel": 0,
      "note": 48,
      "start": 16.9967,
      "duration": 0.194,
      "velocity": 127,
      "chip": "ym2612"
    },
    {
      "channel": 1,
      "note": 56,
      "start": 16.9994,
      "duration": 0.0414,
      "velocity": 118,
      "chip": "ym2612"
    },
    {
      "channel": 3,
      "note": 45,
      "start": 17.002,
      "duration": 0.0222,
      "velocity": 127,
      "chip": "ym2612"
    },
    {
      "channel": 4,
      "note": 36,
      "start": 17.0941,
      "duration": 0.0968,
      "velocity": 117,
      "chip": "ym2612"
    },
    {
      "channel": 5,
      "note": 48,
      "start": 17.2107,
      "duration": 0.0801,
      "velocity": 117,
      "chip": "ym2612"
    },
    {
      "channel": 0,
      "note": 60,
      "start": 17.2134,
      "duration": 0.194,
      "velocity": 127,
      "chip": "ym2612"
    },
    {
      "channel": 5,
      "note": 48,
      "start": 17.3107,
      "duration": 0.0969,
      "velocity": 117,
      "chip": "ym2612"
    },
    {
      "channel": 4,
      "note": 38,
      "start": 17.4274,
      "duration": 0.0802,
      "velocity": 117,
      "chip": "ym2612"
    },
    {
      "channel": 0,
      "note": 50,
      "start": 17.43,
      "duration": 0.1941,
      "velocity": 127,
      "chip": "ym2612"
    },
    {
      "channel": 1,
      "note": 56,
      "start": 17.4326,
      "duration": 0.0414,
      "velocity": 118,
      "chip": "ym2612"
    },
    {
      "channel": 4,
      "note": 38,
      "start": 17.5274,
      "duration": 0.0969,
      "velocity": 117,
      "chip": "ym2612"
    },
    {
      "channel": 5,
      "note": 50,
      "start": 17.6445,
      "duration": 0.0798,
      "velocity": 117,
      "chip": "ym2612"
    },
    {
      "channel": 0,
      "note": 62,
      "start": 17.6471,
      "duration": 0.1936,
      "velocity": 127,
      "chip": "ym2612"
    },
    {
      "channel": 5,
      "note": 50,
      "start": 17.7441,
      "duration": 0.097,
      "velocity": 117,
      "chip": "ym2612"
    },
    {
      "channel": 4,
      "note": 38,
      "start": 17.8612,
      "duration": 0.0797,
      "velocity": 117,
      "chip": "ym2612"
    },
    {
      "channel": 0,
      "note": 50,
      "start": 17.8637,
      "duration": 0.1937,
      "velocity": 127,
      "chip": "ym2612"
    },
    {
      "channel": 1,
      "note": 56,
      "start": 17.8664,
      "duration": 0.041,
      "velocity": 118,
      "chip": "ym2612"
    },
    {
      "channel": 3,
      "note": 45,
      "start": 17.869,
      "duration": 0.0217,
      "velocity": 127,
      "chip": "ym2612"
    },
    {
      "channel": 4,
      "note": 38,
      "start": 17.9607,
      "duration": 0.0969,
      "velocity": 117,
      "chip": "ym2612"
    },
    {
      "channel": 5,
      "note": 50,
      "start": 18.0774,
      "duration": 0.0802,
      "velocity": 117,
      "chip": "ym2612"
    },
    {
      "channel": 0,
      "note": 62,
      "start": 18.0801,
      "duration": 0.194,
      "velocity": 127,
      "chip": "ym2612"
    },
    {
      "channel": 5,
      "note": 50,
      "start": 18.1941,
      "duration": 0.0802,
      "velocity": 117,
      "chip": "ym2612"
    },
    {
      "channel": 4,
      "note": 38,
      "start": 18.2941,
      "duration": 0.0968,
      "velocity": 117,
      "chip": "ym2612"
    },
    {
      "channel": 0,
      "note": 50,
      "start": 18.2966,
      "duration": 0.194,
      "velocity": 127,
      "chip": "ym2612"
    },
    {
      "channel": 1,
      "note": 56,
      "start": 18.2993,
      "duration": 0.0414,
      "velocity": 118,
      "chip": "ym2612"
    },
    {
      "channel": 4,
      "note": 38,
      "start": 18.4108,
      "duration": 0.0801,
      "velocity": 117,
      "chip": "ym2612"
    },
    {
      "channel": 5,
      "note": 50,
      "start": 18.5107,
      "duration": 0.0969,
      "velocity": 117,
      "chip": "ym2612"
    },
    {
      "channel": 0,
      "note": 62,
      "start": 18.5137,
      "duration": 0.1936,
      "velocity": 127,
      "chip": "ym2612"
    },
    {
      "channel": 5,
      "note": 50,
      "start": 18.6274,
      "duration": 0.0803,
      "velocity": 117,
      "chip": "ym2612"
    },
    {
      "channel": 4,
      "note": 38,
      "start": 18.7274,
      "duration": 0.0968,
      "velocity": 117,
      "chip": "ym2612"
    },
    {
      "channel": 0,
      "note": 50,
      "start": 18.73,
      "duration": 0.194,
      "velocity": 127,
      "chip": "ym2612"
    },
    {
      "channel": 1,
      "note": 56,
      "start": 18.7333,
      "duration": 0.0407,
      "velocity": 118,
      "chip": "ym2612"
    },
    {
      "channel": 3,
      "note": 45,
      "start": 18.7365,
      "duration": 0.021,
      "velocity": 127,
      "chip": "ym2612"
    },
    {
      "channel": 4,
      "note": 38,
      "start": 18.8442,
      "duration": 0.08,
      "velocity": 117,
      "chip": "ym2612"
    },
    {
      "channel": 5,
      "note": 50,
      "start": 18.944,
      "duration": 0.0969,
      "velocity": 117,
      "chip": "ym2612"
    },
    {
      "channel": 0,
      "note": 62,
      "start": 18.947,
      "duration": 0.1936,
      "velocity": 127,
      "chip": "ym2612"
    },
    {
      "channel": 5,
      "note": 50,
      "start": 19.0608,
      "duration": 0.0802,
      "velocity": 117,
      "chip": "ym2612"
    },
    {
      "channel": 3,
      "note": 45,
      "start": 19.161,
      "duration": 0.0464,
      "velocity": 127,
      "chip": "ym2612"
    },
    {
      "channel": 3,
      "note": 45,
      "start": 19.2775,
      "duration": 0.03,
      "velocity": 127,
      "chip": "ym2612"
    },
    {
      "channel": 3,
      "note": 45,
      "start": 19.3776,
      "duration": 0.0466,
      "velocity": 127,
      "chip": "ym2612"
    },
    {
      "channel": 3,
      "note": 45,
      "start": 19.4942,
      "duration": 0.03,
      "velocity": 127,
      "chip": "ym2612"
    },
    {
      "channel": 3,
      "note": 45,
      "start": 19.6109,
      "duration": 0.0299,
      "velocity": 127,
      "chip": "ym2612"
    },
    {
      "channel": 3,
      "note": 45,
      "start": 19.7109,
      "duration": 0.03,
      "velocity": 127,
      "chip": "ym2612"
    },
    {
      "channel": 3,
      "note": 45,
      "start": 19.8276,
      "duration": 0.03,
      "velocity": 127,
      "chip": "ym2612"
    },
    {
      "channel": 3,
      "note": 45,
      "start": 19.9276,
      "duration": 0.0299,
      "velocity": 127,
      "chip": "ym2612"
    },
    {
      "channel": 3,
      "note": 45,
      "start": 20.0441,
      "duration": 0.0299,
      "velocity": 127,
      "chip": "ym2612"
    },
    {
      "channel": 3,
      "note": 45,
      "start": 20.1443,
      "duration": 0.0298,
      "velocity": 127,
      "chip": "ym2612"
    },
    {
      "channel": 3,
      "note": 45,
      "start": 20.2609,
      "duration": 0.03,
      "velocity": 127,
      "chip": "ym2612"
    },
    {
      "channel": 3,
      "note": 45,
      "start": 20.3608,
      "duration": 0.03,
      "velocity": 127,
      "chip": "ym2612"
    },
    {
      "channel": 3,
      "note": 45,
      "start": 20.4776,
      "duration": 0.03,
      "velocity": 127,
      "chip": "ym2612"
    },
    {
      "channel": 3,
      "note": 45,
      "start": 20.578,
      "duration": 0.0461,
      "velocity": 127,
      "chip": "ym2612"
    },
    {
      "channel": 3,
      "note": 45,
      "start": 20.6943,
      "duration": 0.0299,
      "velocity": 127,
      "chip": "ym2612"
    },
    {
      "channel": 3,
      "note": 45,
      "start": 20.7944,
      "duration": 0.0464,
      "velocity": 127,
      "chip": "ym2612"
    },
    {
      "channel": 4,
      "note": 43,
      "start": 20.9108,
      "duration": 0.0801,
      "velocity": 117,
      "chip": "ym2612"
    },
    {
      "channel": 0,
      "note": 55,
      "start": 20.9136,
      "duration": 0.1938,
      "velocity": 127,
      "chip": "ym2612"
    },
    {
      "channel": 1,
      "note": 56,
      "start": 20.9163,
      "duration": 0.0411,
      "velocity": 118,
      "chip": "ym2612"
    },
    {
      "channel": 4,
      "note": 43,
      "start": 21.0111,
      "duration": 0.0966,
      "velocity": 117,
      "chip": "ym2612"
    },
    {
      "channel": 5,
      "note": 55,
      "start": 21.1277,
      "duration": 0.0799,
      "velocity": 117,
      "chip": "ym2612"
    },
    {
      "channel": 0,
      "note": 67,
      "start": 21.1304,
      "duration": 0.1937,
      "velocity": 127,
      "chip": "ym2612"
    },
    {
      "channel": 2,
      "note": 81,
      "start": 21.1349,
      "duration": 0.1394,
      "velocity": 121,
      "chip": "ym2612"
    },
    {
      "channel": 5,
      "note": 55,
      "start": 21.2441,
      "duration": 0.0803,
      "velocity": 117,
      "chip": "ym2612"
    },
    {
      "channel": 4,
      "note": 43,
      "start": 21.3441,
      "duration": 0.0968,
      "velocity": 117,
      "chip": "ym2612"
    },
    {
      "channel": 0,
      "note": 55,
      "start": 21.3467,
      "duration": 0.194,
      "velocity": 127,
      "chip": "ym2612"
    },
    {
      "channel": 1,
      "note": 56,
      "start": 21.3494,
      "duration": 0.0414,
      "velocity": 118,
      "chip": "ym2612"
    },
    {
      "channel": 3,
      "note": 45,
      "start": 21.3522,
      "duration": 0.022,
      "velocity": 127,
      "chip": "ym2612"
    },
    {
      "channel": 4,
      "note": 43,
      "start": 21.4607,
      "duration": 0.0802,
      "velocity": 117,
      "chip": "ym2612"
    },
    {
      "channel": 5,
      "note": 55,
      "start": 21.5607,
      "duration": 0.0969,
      "velocity": 117,
      "chip": "ym2612"
    },
    {
      "channel": 0,
      "note": 67,
      "start": 21.5634,
      "duration": 0.194,
      "velocity": 127,
      "chip": "ym2612"
    },
    {
      "channel": 2,
      "note": 81,
      "start": 21.5659,
      "duration": 0.1419,
      "velocity": 121,
      "chip": "ym2612"
    },
    {
      "channel": 5,
      "note": 55,
      "start": 21.6774,
      "duration": 0.0803,
      "velocity": 117,
      "chip": "ym2612"
    },
    {
      "channel": 4,
      "note": 43,
      "start": 21.7774,
      "duration": 0.0968,
      "velocity": 117,
      "chip": "ym2612"
    },
    {
      "channel": 0,
      "note": 55,
      "start": 21.78,
      "duration": 0.194,
      "velocity": 127,
      "chip": "ym2612"
    },
    {
      "channel": 1,
      "note": 56,
      "start": 21.7826,
      "duration": 0.0582,
      "velocity": 118,
      "chip": "ym2612"
    },
    {
      "channel": 4,
      "note": 43,
      "start": 21.8941,
      "duration": 0.0801,
      "velocity": 117,
      "chip": "ym2612"
    },
    {
      "channel": 5,
      "note": 55,
      "start": 21.994,
      "duration": 0.0969,
      "velocity": 117,
      "chip": "ym2612"
    },
    {
      "channel": 0,
      "note": 67,
      "start": 21.9967,
      "duration": 0.194,
      "velocity": 127,
      "chip": "ym2612"
    },
    {
      "channel": 2,
      "note": 81,
      "start": 21.9992,
      "duration": 0.1417,
      "velocity": 121,
      "chip": "ym2612"
    },
    {
      "channel": 5,
      "note": 55,
      "start": 22.1107,
      "duration": 0.0803,
      "velocity": 117,
      "chip": "ym2612"
    },
    {
      "channel": 4,
      "note": 43,
      "start": 22.2107,
      "duration": 0.0967,
      "velocity": 117,
      "chip": "ym2612"
    },
    {
      "channel": 0,
      "note": 55,
      "start": 22.2133,
      "duration": 0.194,
      "velocity": 127,
      "chip": "ym2612"
    },
    {
      "channel": 1,
      "note": 56,
      "start": 22.216,
      "duration": 0.0582,
      "velocity": 118,
      "chip": "ym2612"
    },
    {
      "channel": 3,
      "note": 45,
      "start": 22.2186,
      "duration": 0.039,
      "velocity": 127,
      "chip": "ym2612"
    },
    {
      "channel": 4,
      "note": 43,
      "start": 22.3274,
      "duration": 0.0801,
      "velocity": 117,
      "chip": "ym2612"
    },
    {
      "channel": 5,
      "note": 55,
      "start": 22.4274,
      "duration": 0.0969,
      "velocity": 117,
      "chip": "ym2612"
    },
    {
      "channel": 0,
      "note": 67,
      "start": 22.4301,
      "duration": 0.1939,
      "velocity": 127,
      "chip": "ym2612"
    },
    {
      "channel": 2,
      "note": 81,
      "start": 22.4329,
      "duration": 0.1414,
      "velocity": 121,
      "chip": "ym2612"
    },
    {
      "channel": 5,
      "note": 55,
      "start": 22.544,
      "duration": 0.0803,
      "velocity": 117,
      "chip": "ym2612"
    },
    {
      "channel": 4,
      "note": 43,
      "start": 22.6607,
      "duration": 0.0802,
      "velocity": 117,
      "chip": "ym2612"
    },
    {
      "channel": 0,
      "note": 55,
      "start": 22.6633,
      "duration": 0.1941,
      "velocity": 127,
      "chip": "ym2612"
    },
    {
      "channel": 1,
      "note": 56,
      "start": 22.666,
      "duration": 0.0414,
      "velocity": 118,
      "chip": "ym2612"
    },
    {
      "channel": 4,
      "note": 43,
      "start": 22.7611,
      "duration": 0.0966,
      "velocity": 117,
      "chip": "ym2612"
    },
    {
      "channel": 5,
      "note": 55,
      "start": 22.8778,
      "duration": 0.0798,
      "velocity": 117,
      "chip": "ym2612"
    },
    {
      "channel": 0,
      "note": 67,
      "start": 22.8805,
      "duration": 0.1936,
      "velocity": 127,
      "chip": "ym2612"
    },
    {
      "channel": 2,
      "note": 81,
      "start": 22.883,
      "duration": 0.1247,
      "velocity": 121,
      "chip": "ym2612"
    },
    {
      "channel": 5,
      "note": 55,
      "start": 22.9774,
      "duration": 0.097,
      "velocity": 117,
      "chip": "ym2612"
    },
    {
      "channel": 4,
      "note": 43,
      "start": 23.0941,
      "duration": 0.08,
      "velocity": 117,
      "chip": "ym2612"
    },
    {
      "channel": 0,
      "note": 55,
      "start": 23.0971,
      "duration": 0.1936,
      "velocity": 127,
      "chip": "ym2612"
    },
    {
      "channel": 1,
      "note": 56,
      "start": 23.0998,
      "duration": 0.0411,
      "velocity": 118,
      "chip": "ym2612"
    },
    {
      "channel": 3,
      "note": 45,
      "start": 23.1024,
      "duration": 0.0218,
      "velocity": 127,
      "chip": "ym2612"
    },
    {
      "channel": 4,
      "note": 43,
      "start": 23.1941,
      "duration": 0.0968,
      "velocity": 117,
      "chip": "ym2612"
    },
    {
      "channel": 5,
      "note": 55,
      "start": 23.3107,
      "duration": 0.0803,
      "velocity": 117,
      "chip": "ym2612"
    },
    {
      "channel": 0,
      "note": 67,
      "start": 23.3134,
      "duration": 0.194,
      "velocity": 127,
      "chip": "ym2612"
    },
    {
      "channel": 2,
      "note": 81,
      "start": 23.3159,
      "duration": 0.1251,
      "velocity": 121,
      "chip": "ym2612"
    },
    {
      "channel": 5,
      "note": 55,
      "start": 23.4107,
      "duration": 0.0969,
      "velocity": 117,
      "chip": "ym2612"
    },
    {
      "channel": 4,
      "note": 43,
      "start": 23.5274,
      "duration": 0.0801,
      "velocity": 117,
      "chip": "ym2612"
    },
    {
      "channel": 0,
      "note": 55,
      "start": 23.53,
      "duration": 0.194,
      "velocity": 127,
      "chip": "ym2612"
    },
    {
      "channel": 1,
      "note": 56,
      "start": 23.5326,
      "duration": 0.0414,
      "velocity": 118,
      "chip": "ym2612"
    },
    {
      "channel": 4,
      "note": 43,
      "start": 23.6275,
      "duration": 0.0968,
      "velocity": 117,
      "chip": "ym2612"
    },
    {
      "channel": 5,
      "note": 55,
      "start": 23.744,
      "duration": 0.0802,
      "velocity": 117,
      "chip": "ym2612"
    },
    {
      "channel": 0,
      "note": 67,
      "start": 23.7467,
      "duration": 0.194,
      "velocity": 127,
      "chip": "ym2612"
    },
    {
      "channel": 2,
      "note": 81,
      "start": 23.7492,
      "duration": 0.1418,
      "velocity": 121,
      "chip": "ym2612"
    },
    {
      "channel": 5,
      "note": 55,
      "start": 23.8441,
      "duration": 0.097,
      "velocity": 117,
      "chip": "ym2612"
    },
    {
      "channel": 4,
      "note": 46,
      "start": 23.9608,
      "duration": 0.08,
      "velocity": 117,
      "chip": "ym2612"
    },
    {
      "channel": 0,
      "note": 58,
      "start": 23.9634,
      "duration": 0.194,
      "velocity": 127,
      "chip": "ym2612"
    },
    {
      "channel": 1,
      "note": 56,
      "start": 23.966,
      "duration": 0.0414,
      "velocity": 118,
      "chip": "ym2612"
    },
    {
      "channel": 3,
      "note": 45,
      "start": 23.9687,
      "duration": 0.0221,
      "velocity": 127,
      "chip": "ym2612"
    },
    {
      "channel": 4,
      "note": 46,
      "start": 24.0607,
      "duration": 0.0969,
      "velocity": 117,
      "chip": "ym2612"
    },
    {
      "channel": 5,
      "note": 58,
      "start": 24.1774,
      "duration": 0.0802,
      "velocity": 117,
      "chip": "ym2612"
    },
    {
      "channel": 0,
      "note": 70,
      "start": 24.1801,
      "duration": 0.1939,
      "velocity": 127,
      "chip": "ym2612"
    },
    {
      "channel": 2,
      "note": 81,
      "start": 24.1826,
      "duration": 0.1418,
      "velocity": 121,
      "chip": "ym2612"
    },
    {
      "channel": 5,
      "note": 58,
      "start": 24.294,
      "duration": 0.0803,
      "velocity": 117,
      "chip": "ym2612"
    },
    {
      "channel": 4,
      "note": 43,
      "start": 24.3941,
      "duration": 0.0968,
      "velocity": 117,
      "chip": "ym2612"
    },
    {
      "channel": 0,
      "note": 55,
      "start": 24.3966,
      "duration": 0.1941,
      "velocity": 127,
      "chip": "ym2612"
    },
    {
      "channel": 1,
      "note": 56,
      "start": 24.3993,
      "duration": 0.0414,
      "velocity": 118,
      "chip": "ym2612"
    },
    {
      "channel": 4,
      "note": 43,
      "start": 24.5111,
      "duration": 0.0798,
      "velocity": 117,
      "chip": "ym2612"
    },
    {
      "channel": 5,
      "note": 55,
      "start": 24.6111,
      "duration": 0.0965,
      "velocity": 117,
      "chip": "ym2612"
    },
    {
      "channel": 0,
      "note": 67,
      "start": 24.6138,
      "duration": 0.1935,
      "velocity": 127,
      "chip": "ym2612"
    },
    {
      "channel": 2,
      "note": 81,
      "start": 24.6163,
      "duration": 0.1413,
      "velocity": 121,
      "chip": "ym2612"
    },
    {
      "channel": 5,
      "note": 55,
      "start": 24.7274,
      "duration": 0.0803,
      "velocity": 117,
      "chip": "ym2612"
    },
    {
      "channel": 4,
      "note": 43,
      "start": 24.8274,
      "duration": 0.0968,
      "velocity": 117,
      "chip": "ym2612"
    },
    {
      "channel": 0,
      "note": 55,
      "start": 24.83,
      "duration": 0.1941,
      "velocity": 127,
      "chip": "ym2612"
    },
    {
      "channel": 1,
      "note": 56,
      "start": 24.8326,
      "duration": 0.0582,
      "velocity": 118,
      "chip": "ym2612"
    },
    {
      "channel": 3,
      "note": 45,
      "start": 24.8353,
      "duration": 0.0223,
      "velocity": 127,
      "chip": "ym2612"
    },
    {
      "channel": 4,
      "note": 43,
      "start": 24.9441,
      "duration": 0.0802,
      "velocity": 117,
      "chip": "ym2612"
    },
    {
      "channel": 5,
      "note": 55,
      "start": 25.044,
      "duration": 0.0969,
      "velocity": 117,
      "chip": "ym2612"
    },
    {
      "channel": 0,
      "note": 67,
      "start": 25.0467,
      "duration": 0.194,
      "velocity": 127,
      "chip": "ym2612"
    },
    {
      "channel": 2,
      "note": 81,
      "start": 25.0492,
      "duration": 0.1418,
      "velocity": 121,
      "chip": "ym2612"
    },
    {
      "channel": 5,
      "note": 55,
      "start": 25.1607,
      "duration": 0.0802,
      "velocity": 117,
      "chip": "ym2612"
    },
    {
      "channel": 4,
      "note": 43,
      "start": 25.2607,
      "duration": 0.0967,
      "velocity": 117,
      "chip": "ym2612"
    },
    {
      "channel": 0,
      "note": 55,
      "start": 25.2633,
      "duration": 0.1941,
      "velocity": 127,
      "chip": "ym2612"
    },
    {
      "channel": 1,
      "note": 56,
      "start": 25.266,
      "duration": 0.0582,
      "velocity": 118,
      "chip": "ym2612"
    },
    {
      "channel": 4,
      "note": 43,
      "start": 25.3774,
      "duration": 0.0802,
      "velocity": 117,
      "chip": "ym2612"
    },
    {
      "channel": 5,
      "note": 55,
      "start": 25.4774,
      "duration": 0.0969,
      "velocity": 117,
      "chip": "ym2612"
    },
    {
      "channel": 0,
      "note": 67,
      "start": 25.4801,
      "duration": 0.194,
      "velocity": 127,
      "chip": "ym2612"
    },
    {
      "channel": 2,
      "note": 81,
      "start": 25.4826,
      "duration": 0.1417,
      "velocity": 121,
      "chip": "ym2612"
    },
    {
      "channel": 5,
      "note": 55,
      "start": 25.594,
      "duration": 0.0803,
      "velocity": 117,
      "chip": "ym2612"
    },
    {
      "channel": 4,
      "note": 43,
      "start": 25.7108,
      "duration": 0.08,
      "velocity": 117,
      "chip": "ym2612"
    },
    {
      "channel": 0,
      "note": 55,
      "start": 25.7134,
      "duration": 0.194,
      "velocity": 127,
      "chip": "ym2612"
    },
    {
      "channel": 1,
      "note": 56,
      "start": 25.716,
      "duration": 0.0415,
      "velocity": 118,
      "chip": "ym2612"
    },
    {
      "channel": 3,
      "note": 45,
      "start": 25.7186,
      "duration": 0.0222,
      "velocity": 127,
      "chip": "ym2612"
    },
    {
      "channel": 4,
      "note": 43,
      "start": 25.8108,
      "duration": 0.0968,
      "velocity": 117,
      "chip": "ym2612"
    },
    {
      "channel": 5,
      "note": 55,
      "start": 25.9274,
      "duration": 0.0801,
      "velocity": 117,
      "chip": "ym2612"
    },
    {
      "channel": 0,
      "note": 67,
      "start": 25.9301,
      "duration": 0.194,
      "velocity": 127,
      "chip": "ym2612"
    },
    {
      "channel": 2,
      "note": 81,
      "start": 25.9326,
      "duration": 0.1251,
      "velocity": 121,
      "chip": "ym2612"
    },
    {
      "channel": 5,
      "note": 55,
      "start": 26.0274,
      "duration": 0.097,
      "velocity": 117,
      "chip": "ym2612"
    },
    {
      "channel": 4,
      "note": 43,
      "start": 26.1441,
      "duration": 0.08,
      "velocity": 117,
      "chip": "ym2612"
    },
    {
      "channel": 0,
      "note": 55,
      "start": 26.1467,
      "duration": 0.194,
      "velocity": 127,
      "chip": "ym2612"
    },
    {
      "channel": 1,
      "note": 56,
      "start": 26.1498,
      "duration": 0.041,
      "velocity": 118,
      "chip": "ym2612"
    },
    {
      "channel": 4,
      "note": 43,
      "start": 26.2445,
      "duration": 0.0964,
      "velocity": 117,
      "chip": "ym2612"
    },
    {
      "channel": 5,
      "note": 55,
      "start": 26.3611,
      "duration": 0.0798,
      "velocity": 117,
      "chip": "ym2612"
    },
    {
      "channel": 0,
      "note": 67,
      "start": 26.3637,
      "duration": 0.1936,
      "velocity": 127,
      "chip": "ym2612"
    },
    {
      "channel": 2,
      "note": 81,
      "start": 26.3662,
      "duration": 0.1248,
      "velocity": 121,
      "chip": "ym2612"
    },
    {
      "channel": 5,
      "note": 55,
      "start": 26.4607,
      "duration": 0.0969,
      "velocity": 117,
      "chip": "ym2612"
    },
    {
      "channel": 4,
      "note": 43,
      "start": 26.5774,
      "duration": 0.0801,
      "velocity": 117,
      "chip": "ym2612"
    },
    {
      "channel": 0,
      "note": 55,
      "start": 26.5803,
      "duration": 0.1937,
      "velocity": 127,
      "chip": "ym2612"
    },
    {
      "channel": 1,
      "note": 56,
      "start": 26.583,
      "duration": 0.0412,
      "velocity": 118,
      "chip": "ym2612"
    },
    {
      "channel": 3,
      "note": 45,
      "start": 26.5856,
      "duration": 0.022,
      "velocity": 127,
      "chip": "ym2612"
    },
    {
      "channel": 4,
      "note": 43,
      "start": 26.6774,
      "duration": 0.0968,
      "velocity": 117,
      "chip": "ym2612"
    },
    {
      "channel": 5,
      "note": 55,
      "start": 26.794,
      "duration": 0.0801,
      "velocity": 117,
      "chip": "ym2612"
    },
    {
      "channel": 0,
      "note": 67,
      "start": 26.7967,
      "duration": 0.194,
      "velocity": 127,
      "chip": "ym2612"
    },
    {
      "channel": 2,
      "note": 81,
      "start": 26.7992,
      "duration": 0.1417,
      "velocity": 121,
      "chip": "ym2612"
    },
    {
      "channel": 5,
      "note": 55,
      "start": 26.8941,
      "duration": 0.097,
      "velocity": 117,
      "chip": "ym2612"
    },
    {
      "channel": 4,
      "note": 43,
      "start": 27.0108,
      "duration": 0.08,
      "velocity": 117,
      "chip": "ym2612"
    },
    {
      "channel": 0,
      "note": 55,
      "start": 27.0134,
      "duration": 0.194,
      "velocity": 127,
      "chip": "ym2612"
    },
    {
      "channel": 1,
      "note": 56,
      "start": 27.016,
      "duration": 0.0415,
      "velocity": 118,
      "chip": "ym2612"
    },
    {
      "channel": 4,
      "note": 43,
      "start": 27.1275,
      "duration": 0.0801,
      "velocity": 117,
      "chip": "ym2612"
    },
    {
      "channel": 5,
      "note": 55,
      "start": 27.2274,
      "duration": 0.0802,
      "velocity": 117,
      "chip": "ym2612"
    },
    {
      "channel": 0,
      "note": 67,
      "start": 27.23,
      "duration": 0.194,
      "velocity": 127,
      "chip": "ym2612"
    },
    {
      "channel": 2,
      "note": 81,
      "start": 27.2325,
      "duration": 0.1418,
      "velocity": 121,
      "chip": "ym2612"
    },
    {
      "channel": 5,
      "note": 55,
      "start": 27.3441,
      "duration": 0.0803,
      "velocity": 117,
      "chip": "ym2612"
    },
    {
      "channel": 4,
      "note": 46,
      "start": 27.4441,
      "duration": 0.0968,
      "velocity": 117,
      "chip": "ym2612"
    },
    {
      "channel": 0,
      "note": 58,
      "start": 27.4467,
      "duration": 0.194,
      "velocity": 127,
      "chip": "ym2612"
    },
    {
      "channel": 1,
      "note": 56,
      "start": 27.4494,
      "duration": 0.0414,
      "velocity": 118,
      "chip": "ym2612"
    },
    {
      "channel": 3,
      "note": 45,
      "start": 27.4522,
      "duration": 0.022,
      "velocity": 127,
      "chip": "ym2612"
    },
    {
      "channel": 4,
      "note": 46,
      "start": 27.5607,
      "duration": 0.0802,
      "velocity": 117,
      "chip": "ym2612"
    },
    {
      "channel": 5,
      "note": 58,
      "start": 27.6607,
      "duration": 0.0969,
      "velocity": 117,
      "chip": "ym2612"
    },
    {
      "channel": 0,
      "note": 70,
      "start": 27.6634,
      "duration": 0.194,
      "velocity": 127,
      "chip": "ym2612"
    },
    {
      "channel": 2,
      "note": 81,
      "start": 27.6661,
      "duration": 0.1417,
      "velocity": 121,
      "chip": "ym2612"
    },
    {
      "channel": 3,
      "note": 45,
      "start": 27.6688,
      "duration": 0.022,
      "velocity": 127,
      "chip": "ym2612"
    },
    {
      "channel": 5,
      "note": 58,
      "start": 27.7774,
      "duration": 0.0802,
      "velocity": 117,
      "chip": "ym2612"
    },
    {
      "channel": 3,
      "note": 45,
      "start": 27.781,
      "duration": 0.0266,
      "velocity": 127,
      "chip": "ym2612"
    },
    {
      "channel": 4,
      "note": 38,
      "start": 27.8774,
      "duration": 0.0968,
      "velocity": 117,
      "chip": "ym2612"
    },
    {
      "channel": 0,
      "note": 50,
      "start": 27.88,
      "duration": 0.1941,
      "velocity": 127,
      "chip": "ym2612"
    },
    {
      "channel": 1,
      "note": 56,
      "start": 27.8826,
      "duration": 0.0581,
      "velocity": 118,
      "chip": "ym2612"
    },
    {
      "channel": 4,
      "note": 38,
      "start": 27.9944,
      "duration": 0.0799,
      "velocity": 117,
      "chip": "ym2612"
    },
    {
      "channel": 5,
      "note": 50,
      "start": 28.0945,
      "duration": 0.0964,
      "velocity": 117,
      "chip": "ym2612"
    },
    {
      "channel": 0,
      "note": 62,
      "start": 28.0971,
      "duration": 0.1936,
      "velocity": 127,
      "chip": "ym2612"
    },
    {
      "channel": 5,
      "note": 50,
      "start": 28.2107,
      "duration": 0.0803,
      "velocity": 117,
      "chip": "ym2612"
    },
    {
      "channel": 4,
      "note": 38,
      "start": 28.3107,
      "duration": 0.0968,
      "velocity": 117,
      "chip": "ym2612"
    },
    {
      "channel": 0,
      "note": 50,
      "start": 28.3133,
      "duration": 0.1941,
      "velocity": 127,
      "chip": "ym2612"
    },
    {
      "channel": 1,
      "note": 56,
      "start": 28.316,
      "duration": 0.0581,
      "velocity": 118,
      "chip": "ym2612"
    },
    {
      "channel": 3,
      "note": 45,
      "start": 28.3188,
      "duration": 0.0386,
      "velocity": 127,
      "chip": "ym2612"
    },
    {
      "channel": 4,
      "note": 38,
      "start": 28.4274,
      "duration": 0.0802,
      "velocity": 117,
      "chip": "ym2612"
    },
    {
      "channel": 5,
      "note": 50,
      "start": 28.5274,
      "duration": 0.0969,
      "velocity": 117,
      "chip": "ym2612"
    },
    {
      "channel": 0,
      "note": 62,
      "start": 28.5301,
      "duration": 0.1939,
      "velocity": 127,
      "chip": "ym2612"
    },
    {
      "channel": 5,
      "note": 50,
      "start": 28.644,
      "duration": 0.0803,
      "velocity": 117,
      "chip": "ym2612"
    },
    {
      "channel": 4,
      "note": 38,
      "start": 28.7608,
      "duration": 0.08,
      "velocity": 117,
      "chip": "ym2612"
    },
    {
      "channel": 0,
      "note": 50,
      "start": 28.7634,
      "duration": 0.194,
      "velocity": 127,
      "chip": "ym2612"
    },
    {
      "channel": 1,
      "note": 56,
      "start": 28.766,
      "duration": 0.0414,
      "velocity": 118,
      "chip": "ym2612"
    },
    {
      "channel": 4,
      "note": 38,
      "start": 28.8607,
      "duration": 0.0968,
      "velocity": 117,
      "chip": "ym2612"
    },
    {
      "channel": 5,
      "note": 50,
      "start": 28.9774,
      "duration": 0.0802,
      "velocity": 117,
      "chip": "ym2612"
    },
    {
      "channel": 0,
      "note": 62,
      "start": 28.98,
      "duration": 0.194,
      "velocity": 127,
      "chip": "ym2612"
    },
    {
      "channel": 5,
      "note": 50,
      "start": 29.0774,
      "duration": 0.0969,
      "velocity": 117,
      "chip": "ym2612"
    },
    {
      "channel": 4,
      "note": 38,
      "start": 29.1941,
      "duration": 0.0801,
      "velocity": 117,
      "chip": "ym2612"
    },
    {
      "channel": 0,
      "note": 50,
      "start": 29.1966,
      "duration": 0.194,
      "velocity": 127,
      "chip": "ym2612"
    },
    {
      "channel": 1,
      "note": 56,
      "start": 29.1993,
      "duration": 0.0415,
      "velocity": 118,
      "chip": "ym2612"
    },
    {
      "channel": 3,
      "note": 45,
      "start": 29.2019,
      "duration": 0.0222,
      "velocity": 127,
      "chip": "ym2612"
    },
    {
      "channel": 4,
      "note": 38,
      "start": 29.2941,
      "duration": 0.0968,
      "velocity": 117,
      "chip": "ym2612"
    },
    {
      "channel": 5,
      "note": 50,
      "start": 29.4107,
      "duration": 0.0802,
      "velocity": 117,
      "chip": "ym2612"
    },
    {
      "channel": 0,
      "note": 62,
      "start": 29.4134,
      "duration": 0.1939,
      "velocity": 127,
      "chip": "ym2612"
    },
    {
      "channel": 5,
      "note": 50,
      "start": 29.5107,
      "duration": 0.0969,
      "velocity": 117,
      "chip": "ym2612"
    },
    {
      "channel": 4,
      "note": 38,
      "start": 29.6274,
      "duration": 0.0802,
      "velocity": 117,
      "chip": "ym2612"
    },
    {
      "channel": 0,
      "note": 50,
      "start": 29.63,
      "duration": 0.1941,
      "velocity": 127,
      "chip": "ym2612"
    },
    {
      "channel": 1,
      "note": 56,
      "start": 29.6326,
      "duration": 0.0415,
      "velocity": 118,
      "chip": "ym2612"
    },
    {
      "channel": 4,
      "note": 38,
      "start": 29.7278,
      "duration": 0.0965,
      "velocity": 117,
      "chip": "ym2612"
    },
    {
      "channel": 5,
      "note": 50,
      "start": 29.8445,
      "duration": 0.0798,
      "velocity": 117,
      "chip": "ym2612"
    },
    {
      "channel": 0,
      "note": 62,
      "start": 29.8471,
      "duration": 0.1934,
      "velocity": 127,
      "chip": "ym2612"
    },
    {
      "channel": 5,
      "note": 50,
      "start": 29.9441,
      "duration": 0.0968,
      "velocity": 117,
      "chip": "ym2612"
    },
    {
      "channel": 4,
      "note": 38,
      "start": 30.0608,
      "duration": 0.08,
      "velocity": 117,
      "chip": "ym2612"
    },
    {
      "channel": 0,
      "note": 50,
      "start": 30.0637,
      "duration": 0.1937,
      "velocity": 127,
      "chip": "ym2612"
    },
    {
      "channel": 1,
      "note": 56,
      "start": 30.0664,
      "duration": 0.0411,
      "velocity": 118,
      "chip": "ym2612"
    },
    {
      "channel": 3,
      "note": 45,
      "start": 30.069,
      "duration": 0.0218,
      "velocity": 127,
      "chip": "ym2612"
    },
    {
      "channel": 4,
      "note": 38,
      "start": 30.1774,
      "duration": 0.0802,
      "velocity": 117,
      "chip": "ym2612"
    },
    {
      "channel": 5,
      "note": 50,
      "start": 30.2774,
      "duration": 0.0968,
      "velocity": 117,
      "chip": "ym2612"
    },
    {
      "channel": 0,
      "note": 62,
      "start": 30.2801,
      "duration": 0.194,
      "velocity": 127,
      "chip": "ym2612"
    },
    {
      "channel": 5,
      "note": 50,
      "start": 30.3941,
      "duration": 0.0803,
      "velocity": 117,
      "chip": "ym2612"
    },
    {
      "channel": 4,
      "note": 38,
      "start": 30.4941,
      "duration": 0.0968,
      "velocity": 117,
      "chip": "ym2612"
    },
    {
      "channel": 0,
      "note": 50,
      "start": 30.4967,
      "duration": 0.194,
      "velocity": 127,
      "chip": "ym2612"
    },
    {
      "channel": 1,
      "note": 56,
      "start": 30.4994,
      "duration": 0.0414,
      "velocity": 118,
      "chip": "ym2612"
    },
    {
      "channel": 4,
      "note": 38,
      "start": 30.6107,
      "duration": 0.0803,
      "velocity": 117,
      "chip": "ym2612"
    },
    {
      "channel": 5,
      "note": 50,
      "start": 30.7107,
      "duration": 0.0969,
      "velocity": 117,
      "chip": "ym2612"
    },
    {
      "channel": 0,
      "note": 62,
      "start": 30.7134,
      "duration": 0.194,
      "velocity": 127,
      "chip": "ym2612"
    },
    {
      "channel": 5,
      "note": 50,
      "start": 30.8274,
      "duration": 0.0803,
      "velocity": 117,
      "chip": "ym2612"
    },
    {
      "channel": 4,
      "note": 41,
      "start": 30.9274,
      "duration": 0.0968,
      "velocity": 117,
      "chip": "ym2612"
    },
    {
      "channel": 0,
      "note": 53,
      "start": 30.93,
      "duration": 0.1941,
      "velocity": 127,
      "chip": "ym2612"
    },
    {
      "channel": 1,
      "note": 56,
      "start": 30.9326,
      "duration": 0.0582,
      "velocity": 118,
      "chip": "ym2612"
    },
    {
      "channel": 3,
      "note": 45,
      "start": 30.9353,
      "duration": 0.0223,
      "velocity": 127,
      "chip": "ym2612"
    },
    {
      "channel": 4,
      "note": 41,
      "start": 31.0441,
      "duration": 0.0802,
      "velocity": 117,
      "chip": "ym2612"
    },
    {
      "channel": 5,
      "note": 53,
      "start": 31.1441,
      "duration": 0.0969,
      "velocity": 117,
      "chip": "ym2612"
    },
    {
      "channel": 0,
      "note": 65,
      "start": 31.1468,
      "duration": 0.194,
      "velocity": 127,
      "chip": "ym2612"
    },
    {
      "channel": 5,
      "note": 53,
      "start": 31.2607,
      "duration": 0.0803,
      "velocity": 117,
      "chip": "ym2612"
    },
    {
      "channel": 4,
      "note": 38,
      "start": 31.3608,
      "duration": 0.0967,
      "velocity": 117,
      "chip": "ym2612"
    },
    {
      "channel": 0,
      "note": 50,
      "start": 31.3634,
      "duration": 0.194,
      "velocity": 127,
      "chip": "ym2612"
    },
    {
      "channel": 1,
      "note": 56,
      "start": 31.366,
      "duration": 0.0581,
      "velocity": 118,
      "chip": "ym2612"
    },
    {
      "channel": 4,
      "note": 38,
      "start": 31.4777,
      "duration": 0.0799,
      "velocity": 117,
      "chip": "ym2612"
    },
    {
      "channel": 5,
      "note": 50,
      "start": 31.5777,
      "duration": 0.0966,
      "velocity": 117,
      "chip": "ym2612"
    },
    {
      "channel": 0,
      "note": 62,
      "start": 31.5804,
      "duration": 0.1936,
      "velocity": 127,
      "chip": "ym2612"
    },
    {
      "channel": 5,
      "note": 50,
      "start": 31.6941,
      "duration": 0.0802,
      "velocity": 117,
      "chip": "ym2612"
    },
    {
      "channel": 4,
      "note": 38,
      "start": 31.8107,
      "duration": 0.0802,
      "velocity": 117,
      "chip": "ym2612"
    },
    {
      "channel": 0,
      "note": 50,
      "start": 31.8133,
      "duration": 0.194,
      "velocity": 127,
      "chip": "ym2612"
    },
    {
      "channel": 1,
      "note": 56,
      "start": 31.816,
      "duration": 0.0414,
      "velocity": 118,
      "chip": "ym2612"
    },
    {
      "channel": 3,
      "note": 45,
      "start": 31.8186,
      "duration": 0.0223,
      "velocity": 127,
      "chip": "ym2612"
    },
    {
      "channel": 4,
      "note": 38,
      "start": 31.9107,
      "duration": 0.0969,
      "velocity": 117,
      "chip": "ym2612"
    },
    {
      "channel": 5,
      "note": 50,
      "start": 32.0274,
      "duration": 0.0803,
      "velocity": 117,
      "chip": "ym2612"
    },
    {
      "channel": 0,
      "note": 62,
      "start": 32.03,
      "duration": 0.194,
      "velocity": 127,
      "chip": "ym2612"
    },
    {
      "channel": 5,
      "note": 50,
      "start": 32.1274,
      "duration": 0.0969,
      "velocity": 117,
      "chip": "ym2612"
    },
    {
      "channel": 4,
      "note": 38,
      "start": 32.2441,
      "duration": 0.0802,
      "velocity": 117,
      "chip": "ym2612"
    },
    {
      "channel": 0,
      "note": 50,
      "start": 32.2466,
      "duration": 0.194,
      "velocity": 127,
      "chip": "ym2612"
    },
    {
      "channel": 1,
      "note": 56,
      "start": 32.2493,
      "duration": 0.0414,
      "velocity": 118,
      "chip": "ym2612"
    },
    {
      "channel": 4,
      "note": 38,
      "start": 32.3441,
      "duration": 0.0968,
      "velocity": 117,
      "chip": "ym2612"
    },
    {
      "channel": 5,
      "note": 50,
      "start": 32.4607,
      "duration": 0.0802,
      "velocity": 117,
      "chip": "ym2612"
    },
    {
      "channel": 0,
      "note": 62,
      "start": 32.4634,
      "duration": 0.194,
      "velocity": 127,
      "chip": "ym2612"
    },
    {
      "channel": 5,
      "note": 50,
      "start": 32.5607,
      "duration": 0.097,
      "velocity": 117,
      "chip": "ym2612"
    },
    {
      "channel": 4,
      "note": 38,
      "start": 32.6775,
      "duration": 0.0801,
      "velocity": 117,
      "chip": "ym2612"
    },
    {
      "channel": 0,
      "note": 50,
      "start": 32.68,
      "duration": 0.194,
      "velocity": 127,
      "chip": "ym2612"
    },
    {
      "channel": 1,
      "note": 56,
      "start": 32.6827,
      "duration": 0.0415,
      "velocity": 118,
      "chip": "ym2612"
    },
    {
      "channel": 3,
      "note": 45,
      "start": 32.6853,
      "duration": 0.0222,
      "velocity": 127,
      "chip": "ym2612"
    },
    {
      "channel": 4,
      "note": 38,
      "start": 32.7774,
      "duration": 0.0969,
      "velocity": 117,
      "chip": "ym2612"
    },
    {
      "channel": 5,
      "note": 50,
      "start": 32.8941,
      "duration": 0.0802,
      "velocity": 117,
      "chip": "ym2612"
    },
    {
      "channel": 0,
      "note": 62,
      "start": 32.8968,
      "duration": 0.1939,
      "velocity": 127,
      "chip": "ym2612"
    },
    {
      "channel": 5,
      "note": 50,
      "start": 32.9941,
      "duration": 0.0969,
      "velocity": 117,
      "chip": "ym2612"
    },
    {
      "channel": 4,
      "note": 38,
      "start": 33.1107,
      "duration": 0.0801,
      "velocity": 117,
      "chip": "ym2612"
    },
    {
      "channel": 0,
      "note": 50,
      "start": 33.1133,
      "duration": 0.194,
      "velocity": 127,
      "chip": "ym2612"
    },
    {
      "channel": 1,
      "note": 56,
      "start": 33.1163,
      "duration": 0.041,
      "velocity": 118,
      "chip": "ym2612"
    },
    {
      "channel": 4,
      "note": 38,
      "start": 33.2277,
      "duration": 0.0798,
      "velocity": 117,
      "chip": "ym2612"
    },
    {
      "channel": 5,
      "note": 50,
      "start": 33.3277,
      "duration": 0.0964,
      "velocity": 117,
      "chip": "ym2612"
    },
    {
      "channel": 0,
      "note": 62,
      "start": 33.3304,
      "duration": 0.1936,
      "velocity": 127,
      "chip": "ym2612"
    },
    {
      "channel": 5,
      "note": 50,
      "start": 33.4441,
      "duration": 0.0802,
      "velocity": 117,
      "chip": "ym2612"
    },
    {
      "channel": 4,
      "note": 38,
      "start": 33.5441,
      "duration": 0.0968,
      "velocity": 117,
      "chip": "ym2612"
    },
    {
      "channel": 0,
      "note": 50,
      "start": 33.547,
      "duration": 0.1936,
      "velocity": 127,
      "chip": "ym2612"
    },
    {
      "channel": 1,
      "note": 56,
      "start": 33.5497,
      "duration": 0.0411,
      "velocity": 118,
      "chip": "ym2612"
    },
    {
      "channel": 3,
      "note": 45,
      "start": 33.5523,
      "duration": 0.0218,
      "velocity": 127,
      "chip": "ym2612"
    },
    {
      "channel": 4,
      "note": 38,
      "start": 33.6607,
      "duration": 0.0801,
      "velocity": 117,
      "chip": "ym2612"
    },
    {
      "channel": 5,
      "note": 50,
      "start": 33.7606,
      "duration": 0.097,
      "velocity": 117,
      "chip": "ym2612"
    },
    {
      "channel": 0,
      "note": 62,
      "start": 33.7633,
      "duration": 0.194,
      "velocity": 127,
      "chip": "ym2612"
    },
    {
      "channel": 5,
      "note": 50,
      "start": 33.8774,
      "duration": 0.0803,
      "velocity": 117,
      "chip": "ym2612"
    },
    {
      "channel": 4,
      "note": 38,
      "start": 33.9774,
      "duration": 0.0968,
      "velocity": 117,
      "chip": "ym2612"
    },
    {
      "channel": 0,
      "note": 50,
      "start": 33.98,
      "duration": 0.1942,
      "velocity": 127,
      "chip": "ym2612"
    },
    {
      "channel": 1,
      "note": 56,
      "start": 33.9826,
      "duration": 0.0582,
      "velocity": 118,
      "chip": "ym2612"
    },
    {
      "channel": 4,
      "note": 38,
      "start": 34.0941,
      "duration": 0.0803,
      "velocity": 117,
      "chip": "ym2612"
    },
    {
      "channel": 5,
      "note": 50,
      "start": 34.194,
      "duration": 0.0968,
      "velocity": 117,
      "chip": "ym2612"
    },
    {
      "channel": 0,
      "note": 62,
      "start": 34.1967,
      "duration": 0.194,
      "velocity": 127,
      "chip": "ym2612"
    },
    {
      "channel": 5,
      "note": 50,
      "start": 34.3107,
      "duration": 0.0802,
      "velocity": 117,
      "chip": "ym2612"
    },
    {
      "channel": 4,
      "note": 41,
      "start": 34.4107,
      "duration": 0.0968,
      "velocity": 117,
      "chip": "ym2612"
    },
    {
      "channel": 0,
      "note": 53,
      "start": 34.4133,
      "duration": 0.194,
      "velocity": 127,
      "chip": "ym2612"
    },
    {
      "channel": 1,
      "note": 56,
      "start": 34.416,
      "duration": 0.0582,
      "velocity": 118,
      "chip": "ym2612"
    },
    {
      "channel": 3,
      "note": 45,
      "start": 34.4186,
      "duration": 0.039,
      "velocity": 127,
      "chip": "ym2612"
    },
    {
      "channel": 4,
      "note": 41,
      "start": 34.5274,
      "duration": 0.0802,
      "velocity": 117,
      "chip": "ym2612"
    },
    {
      "channel": 5,
      "note": 53,
      "start": 34.644,
      "duration": 0.0803,
      "velocity": 117,
      "chip": "ym2612"
    },
    {
      "channel": 0,
      "note": 65,
      "start": 34.6467,
      "duration": 0.1773,
      "velocity": 127,
      "chip": "ym2612"
    },
    {
      "channel": 5,
      "note": 53,
      "start": 34.744,
      "duration": 0.0803,
      "velocity": 117,
      "chip": "ym2612"
    },
    {
      "channel": 4,
      "note": 43,
      "start": 34.8607,
      "duration": 0.08,
      "velocity": 117,
      "chip": "ym2612"
    },
    {
      "channel": 0,
      "note": 55,
      "start": 34.8633,
      "duration": 0.194,
      "velocity": 127,
      "chip": "ym2612"
    },
    {
      "channel": 1,
      "note": 56,
      "start": 34.866,
      "duration": 0.0415,
      "velocity": 118,
      "chip": "ym2612"
    },
    {
      "channel": 4,
      "note": 43,
      "start": 34.9611,
      "duration": 0.0964,
      "velocity": 117,
      "chip": "ym2612"
    },
    {
      "channel": 5,
      "note": 55,
      "start": 35.0777,
      "duration": 0.08,
      "velocity": 117,
      "chip": "ym2612"
    },
    {
      "channel": 0,
      "note": 67,
      "start": 35.0804,
      "duration": 0.1937,
      "velocity": 127,
      "chip": "ym2612"
    },
    {
      "channel": 2,
      "note": 81,
      "start": 35.0833,
      "duration": 0.1243,
      "velocity": 121,
      "chip": "ym2612"
    },
    {
      "channel": 5,
      "note": 55,
      "start": 35.1773,
      "duration": 0.097,
      "velocity": 117,
      "chip": "ym2612"
    },
    {
      "channel": 4,
      "note": 43,
      "start": 35.2941,
      "duration": 0.0801,
      "velocity": 117,
      "chip": "ym2612"
    },
    {
      "channel": 0,
      "note": 55,
      "start": 35.2966,
      "duration": 0.1941,
      "velocity": 127,
      "chip": "ym2612"
    },
    {
      "channel": 1,
      "note": 56,
      "start": 35.2993,
      "duration": 0.0415,
      "velocity": 118,
      "chip": "ym2612"
    },
    {
      "channel": 3,
      "note": 45,
      "start": 35.3019,
      "duration": 0.0222,
      "velocity": 127,
      "chip": "ym2612"
    },
    {
      "channel": 4,
      "note": 43,
      "start": 35.3941,
      "duration": 0.0968,
      "velocity": 117,
      "chip": "ym2612"
    },
    {
      "channel": 5,
      "note": 55,
      "start": 35.5107,
      "duration": 0.0803,
      "velocity": 117,
      "chip": "ym2612"
    },
    {
      "channel": 0,
      "note": 67,
      "start": 35.5134,
      "duration": 0.194,
      "velocity": 127,
      "chip": "ym2612"
    },
    {
      "channel": 2,
      "note": 81,
      "start": 35.5159,
      "duration": 0.1419,
      "velocity": 121,
      "chip": "ym2612"
    },
    {
      "channel": 5,
      "note": 55,
      "start": 35.6107,
      "duration": 0.0969,
      "velocity": 117,
      "chip": "ym2612"
    },
    {
      "channel": 4,
      "note": 43,
      "start": 35.7274,
      "duration": 0.0802,
      "velocity": 117,
      "chip": "ym2612"
    },
    {
      "channel": 0,
      "note": 55,
      "start": 35.73,
      "duration": 0.194,
      "velocity": 127,
      "chip": "ym2612"
    },
    {
      "channel": 1,
      "note": 56,
      "start": 35.7326,
      "duration": 0.0415,
      "velocity": 118,
      "chip": "ym2612"
    },
    {
      "channel": 4,
      "note": 43,
      "start": 35.8274,
      "duration": 0.0968,
      "velocity": 117,
      "chip": "ym2612"
    },
    {
      "channel": 5,
      "note": 55,
      "start": 35.944,
      "duration": 0.0803,
      "velocity": 117,
      "chip": "ym2612"
    },
    {
      "channel": 0,
      "note": 67,
      "start": 35.9467,
      "duration": 0.194,
      "velocity": 127,
      "chip": "ym2612"
    },
    {
      "channel": 2,
      "note": 81,
      "start": 35.9492,
      "duration": 0.1419,
      "velocity": 121,
      "chip": "ym2612"
    },
    {
      "channel": 5,
      "note": 55,
      "start": 36.044,
      "duration": 0.097,
      "velocity": 117,
      "chip": "ym2612"
    },
    {
      "channel": 4,
      "note": 43,
      "start": 36.1608,
      "duration": 0.08,
      "velocity": 117,
      "chip": "ym2612"
    },
    {
      "channel": 0,
      "note": 55,
      "start": 36.1634,
      "duration": 0.194,
      "velocity": 127,
      "chip": "ym2612"
    },
    {
      "channel": 1,
      "note": 56,
      "start": 36.166,
      "duration": 0.0414,
      "velocity": 118,
      "chip": "ym2612"
    },
    {
      "channel": 3,
      "note": 45,
      "start": 36.1686,
      "duration": 0.0222,
      "velocity": 127,
      "chip": "ym2612"
    },
    {
      "channel": 4,
      "note": 43,
      "start": 36.2774,
      "duration": 0.0802,
      "velocity": 117,
      "chip": "ym2612"
    },
    {
      "channel": 5,
      "note": 55,
      "start": 36.3774,
      "duration": 0.0968,
      "velocity": 117,
      "chip": "ym2612"
    },
    {
      "channel": 0,
      "note": 67,
      "start": 36.3801,
      "duration": 0.1939,
      "velocity": 127,
      "chip": "ym2612"
    },
    {
      "channel": 2,
      "note": 81,
      "start": 36.3826,
      "duration": 0.1418,
      "velocity": 121,
      "chip": "ym2612"
    },
    {
      "channel": 5,
      "note": 55,
      "start": 36.4941,
      "duration": 0.0802,
      "velocity": 117,
      "chip": "ym2612"
    },
    {
      "channel": 4,
      "note": 43,
      "start": 36.5941,
      "duration": 0.0968,
      "velocity": 117,
      "chip": "ym2612"
    },
    {
      "channel": 0,
      "note": 55,
      "start": 36.5966,
      "duration": 0.194,
      "velocity": 127,
      "chip": "ym2612"
    },
    {
      "channel": 1,
      "note": 56,
      "start": 36.5993,
      "duration": 0.0414,
      "velocity": 118,
      "chip": "ym2612"
    },
    {
      "channel": 4,
      "note": 43,
      "start": 36.7111,
      "duration": 0.0799,
      "velocity": 117,
      "chip": "ym2612"
    },
    {
      "channel": 5,
      "note": 55,
      "start": 36.8111,
      "duration": 0.0966,
      "velocity": 117,
      "chip": "ym2612"
    },
    {
      "channel": 0,
      "note": 67,
      "start": 36.8137,
      "duration": 0.1937,
      "velocity": 127,
      "chip": "ym2612"
    },
    {
      "channel": 2,
      "note": 81,
      "start": 36.8162,
      "duration": 0.1414,
      "velocity": 121,
      "chip": "ym2612"
    },
    {
      "channel": 5,
      "note": 55,
      "start": 36.9274,
      "duration": 0.0803,
      "velocity": 117,
      "chip": "ym2612"
    },
    {
      "channel": 4,
      "note": 43,
      "start": 37.0275,
      "duration": 0.0967,
      "velocity": 117,
      "chip": "ym2612"
    },
    {
      "channel": 0,
      "note": 55,
      "start": 37.0304,
      "duration": 0.1936,
      "velocity": 127,
      "chip": "ym2612"
    },
    {
      "channel": 1,
      "note": 56,
      "start": 37.0331,
      "duration": 0.0577,
      "velocity": 118,
      "chip": "ym2612"
    },
    {
      "channel": 3,
      "note": 45,
      "start": 37.0357,
      "duration": 0.0218,
      "velocity": 127,
      "chip": "ym2612"
    },
    {
      "channel": 4,
      "note": 43,
      "start": 37.1441,
      "duration": 0.0802,
      "velocity": 117,
      "chip": "ym2612"
    },
    {
      "channel": 5,
      "note": 55,
      "start": 37.244,
      "duration": 0.0969,
      "velocity": 117,
      "chip": "ym2612"
    },
    {
      "channel": 0,
      "note": 67,
      "start": 37.2467,
      "duration": 0.194,
      "velocity": 127,
      "chip": "ym2612"
    },
    {
      "channel": 2,
      "note": 81,
      "start": 37.2492,
      "duration": 0.1419,
      "velocity": 121,
      "chip": "ym2612"
    },
    {
      "channel": 5,
      "note": 55,
      "start": 37.3607,
      "duration": 0.0803,
      "velocity": 117,
      "chip": "ym2612"
    },
    {
      "channel": 4,
      "note": 43,
      "start": 37.4607,
      "duration": 0.0968,
      "velocity": 117,
      "chip": "ym2612"
    },
    {
      "channel": 0,
      "note": 55,
      "start": 37.4633,
      "duration": 0.194,
      "velocity": 127,
      "chip": "ym2612"
    },
    {
      "channel": 1,
      "note": 56,
      "start": 37.466,
      "duration": 0.0582,
      "velocity": 118,
      "chip": "ym2612"
    },
    {
      "channel": 4,
      "note": 43,
      "start": 37.5774,
      "duration": 0.0802,
      "velocity": 117,
      "chip": "ym2612"
    },
    {
      "channel": 5,
      "note": 55,
      "start": 37.694,
      "duration": 0.0803,
      "velocity": 117,
      "chip": "ym2612"
    },
    {
      "channel": 0,
      "note": 67,
      "start": 37.6967,
      "duration": 0.1773,
      "velocity": 127,
      "chip": "ym2612"
    },
    {
      "channel": 2,
      "note": 81,
      "start": 37.6992,
      "duration": 0.1251,
      "velocity": 121,
      "chip": "ym2612"
    },
    {
      "channel": 5,
      "note": 55,
      "start": 37.794,
      "duration": 0.0803,
      "velocity": 117,
      "chip": "ym2612"
    },
    {
      "channel": 4,
      "note": 46,
      "start": 37.9107,
      "duration": 0.08,
      "velocity": 117,
      "chip": "ym2612"
    },
    {
      "channel": 0,
      "note": 58,
      "start": 37.9133,
      "duration": 0.194,
      "velocity": 127,
      "chip": "ym2612"
    },
    {
      "channel": 1,
      "note": 56,
      "start": 37.916,
      "duration": 0.0415,
      "velocity": 118,
      "chip": "ym2612"
    },
    {
      "channel": 3,
      "note": 45,
      "start": 37.9186,
      "duration": 0.0223,
      "velocity": 127,
      "chip": "ym2612"
    },
    {
      "channel": 4,
      "note": 46,
      "start": 38.0108,
      "duration": 0.0968,
      "velocity": 117,
      "chip": "ym2612"
    },
    {
      "channel": 5,
      "note": 58,
      "start": 38.1274,
      "duration": 0.0801,
      "velocity": 117,
      "chip": "ym2612"
    },
    {
      "channel": 0,
      "note": 70,
      "start": 38.1301,
      "duration": 0.1939,
      "velocity": 127,
      "chip": "ym2612"
    },
    {
      "channel": 2,
      "note": 81,
      "start": 38.1326,
      "duration": 0.1251,
      "velocity": 121,
      "chip": "ym2612"
    },
    {
      "channel": 5,
      "note": 58,
      "start": 38.2274,
      "duration": 0.0969,
      "velocity": 117,
      "chip": "ym2612"
    },
    {
      "channel": 4,
      "note": 43,
      "start": 38.3441,
      "duration": 0.0801,
      "velocity": 117,
      "chip": "ym2612"
    },
    {
      "channel": 0,
      "note": 55,
      "start": 38.3466,
      "duration": 0.1941,
      "velocity": 127,
      "chip": "ym2612"
    },
    {
      "channel": 1,
      "note": 56,
      "start": 38.3493,
      "duration": 0.0415,
      "velocity": 118,
      "chip": "ym2612"
    },
    {
      "channel": 4,
      "note": 43,
      "start": 38.4445,
      "duration": 0.0965,
      "velocity": 117,
      "chip": "ym2612"
    },
    {
      "channel": 5,
      "note": 55,
      "start": 38.5611,
      "duration": 0.0798,
      "velocity": 117,
      "chip": "ym2612"
    },
    {
      "channel": 0,
      "note": 67,
      "start": 38.5638,
      "duration": 0.1936,
      "velocity": 127,
      "chip": "ym2612"
    },
    {
      "channel": 2,
      "note": 81,
      "start": 38.5663,
      "duration": 0.1413,
      "velocity": 121,
      "chip": "ym2612"
    },
    {
      "channel": 5,
      "note": 55,
      "start": 38.6606,
      "duration": 0.097,
      "velocity": 117,
      "chip": "ym2612"
    },
    {
      "channel": 4,
      "note": 43,
      "start": 38.7774,
      "duration": 0.08,
      "velocity": 117,
      "chip": "ym2612"
    },
    {
      "channel": 0,
      "note": 55,
      "start": 38.78,
      "duration": 0.194,
      "velocity": 127,
      "chip": "ym2612"
    },
    {
      "channel": 1,
      "note": 56,
      "start": 38.7826,
      "duration": 0.0415,
      "velocity": 118,
      "chip": "ym2612"
    },
    {
      "channel": 3,
      "note": 45,
      "start": 38.7853,
      "duration": 0.0223,
      "velocity": 127,
      "chip": "ym2612"
    },
    {
      "channel": 4,
      "note": 43,
      "start": 38.8774,
      "duration": 0.0968,
      "velocity": 117,
      "chip": "ym2612"
    },
    {
      "channel": 5,
      "note": 55,
      "start": 38.994,
      "duration": 0.0803,
      "velocity": 117,
      "chip": "ym2612"
    },
    {
      "channel": 0,
      "note": 67,
      "start": 38.9967,
      "duration": 0.194,
      "velocity": 127,
      "chip": "ym2612"
    },
    {
      "channel": 2,
      "note": 81,
      "start": 38.9992,
      "duration": 0.1418,
      "velocity": 121,
      "chip": "ym2612"
    },
    {
      "channel": 5,
      "note": 55,
      "start": 39.094,
      "duration": 0.0969,
      "velocity": 117,
      "chip": "ym2612"
    },
    {
      "channel": 4,
      "note": 43,
      "start": 39.2107,
      "duration": 0.0802,
      "velocity": 117,
      "chip": "ym2612"
    },
    {
      "channel": 0,
      "note": 55,
      "start": 39.2133,
      "duration": 0.194,
      "velocity": 127,
      "chip": "ym2612"
    },
    {
      "channel": 1,
      "note": 56,
      "start": 39.216,
      "duration": 0.0414,
      "velocity": 118,
      "chip": "ym2612"
    },
    {
      "channel": 4,
      "note": 43,
      "start": 39.3274,
      "duration": 0.0802,
      "velocity": 117,
      "chip": "ym2612"
    },
    {
      "channel": 5,
      "note": 55,
      "start": 39.4274,
      "duration": 0.0969,
      "velocity": 117,
      "chip": "ym2612"
    },
    {
      "channel": 0,
      "note": 67,
      "start": 39.43,
      "duration": 0.194,
      "velocity": 127,
      "chip": "ym2612"
    },
    {
      "channel": 2,
      "note": 81,
      "start": 39.4325,
      "duration": 0.1419,
      "velocity": 121,
      "chip": "ym2612"
    },
    {
      "channel": 5,
      "note": 55,
      "start": 39.544,
      "duration": 0.0803,
      "velocity": 117,
      "chip": "ym2612"
    },
    {
      "channel": 4,
      "note": 43,
      "start": 39.6441,
      "duration": 0.0968,
      "velocity": 117,
      "chip": "ym2612"
    },
    {
      "channel": 0,
      "note": 55,
      "start": 39.6466,
      "duration": 0.194,
      "velocity": 127,
      "chip": "ym2612"
    },
    {
      "channel": 1,
      "note": 56,
      "start": 39.6493,
      "duration": 0.0414,
      "velocity": 118,
      "chip": "ym2612"
    },
    {
      "channel": 3,
      "note": 45,
      "start": 39.6523,
      "duration": 0.0219,
      "velocity": 127,
      "chip": "ym2612"
    },
    {
      "channel": 4,
      "note": 43,
      "start": 39.7607,
      "duration": 0.0802,
      "velocity": 117,
      "chip": "ym2612"
    },
    {
      "channel": 5,
      "note": 55,
      "start": 39.8607,
      "duration": 0.0969,
      "velocity": 117,
      "chip": "ym2612"
    },
    {
      "channel": 0,
      "note": 67,
      "start": 39.8634,
      "duration": 0.194,
      "velocity": 127,
      "chip": "ym2612"
    },
    {
      "channel": 2,
      "note": 81,
      "start": 39.8659,
      "duration": 0.1419,
      "velocity": 121,
      "chip": "ym2612"
    },
    {
      "channel": 5,
      "note": 55,
      "start": 39.9774,
      "duration": 0.0802,
      "velocity": 117,
      "chip": "ym2612"
    },
    {
      "channel": 4,
      "note": 43,
      "start": 40.0775,
      "duration": 0.0968,
      "velocity": 117,
      "chip": "ym2612"
    },
    {
      "channel": 0,
      "note": 55,
      "start": 40.08,
      "duration": 0.194,
      "velocity": 127,
      "chip": "ym2612"
    },
    {
      "channel": 1,
      "note": 56,
      "start": 40.0831,
      "duration": 0.0577,
      "velocity": 118,
      "chip": "ym2612"
    },
    {
      "channel": 4,
      "note": 43,
      "start": 40.1944,
      "duration": 0.0798,
      "velocity": 117,
      "chip": "ym2612"
    },
    {
      "channel": 5,
      "note": 55,
      "start": 40.2944,
      "duration": 0.0965,
      "velocity": 117,
      "chip": "ym2612"
    },
    {
      "channel": 0,
      "note": 67,
      "start": 40.2971,
      "duration": 0.1937,
      "velocity": 127,
      "chip": "ym2612"
    },
    {
      "channel": 2,
      "note": 81,
      "start": 40.2996,
      "duration": 0.1414,
      "velocity": 121,
      "chip": "ym2612"
    },
    {
      "channel": 5,
      "note": 55,
      "start": 40.4107,
      "duration": 0.0803,
      "velocity": 117,
      "chip": "ym2612"
    },
    {
      "channel": 4,
      "note": 43,
      "start": 40.5107,
      "duration": 0.0967,
      "velocity": 117,
      "chip": "ym2612"
    },
    {
      "channel": 0,
      "note": 55,
      "start": 40.5137,
      "duration": 0.1937,
      "velocity": 127,
      "chip": "ym2612"
    },
    {
      "channel": 1,
      "note": 56,
      "start": 40.5163,
      "duration": 0.0578,
      "velocity": 118,
      "chip": "ym2612"
    },
    {
      "channel": 3,
      "note": 45,
      "start": 40.519,
      "duration": 0.0384,
      "velocity": 127,
      "chip": "ym2612"
    },
    {
      "channel": 4,
      "note": 43,
      "start": 40.6274,
      "duration": 0.0802,
      "velocity": 117,
      "chip": "ym2612"
    },
    {
      "channel": 5,
      "note": 55,
      "start": 40.7441,
      "duration": 0.0801,
      "velocity": 117,
      "chip": "ym2612"
    },
    {
      "channel": 0,
      "note": 67,
      "start": 40.7468,
      "duration": 0.194,
      "velocity": 127,
      "chip": "ym2612"
    },
    {
      "channel": 2,
      "note": 81,
      "start": 40.7493,
      "duration": 0.1251,
      "velocity": 121,
      "chip": "ym2612"
    },
    {
      "channel": 5,
      "note": 55,
      "start": 40.8441,
      "duration": 0.097,
      "velocity": 117,
      "chip": "ym2612"
    },
    {
      "channel": 4,
      "note": 43,
      "start": 40.9608,
      "duration": 0.08,
      "velocity": 117,
      "chip": "ym2612"
    },
    {
      "channel": 0,
      "note": 55,
      "start": 40.9634,
      "duration": 0.194,
      "velocity": 127,
      "chip": "ym2612"
    },
    {
      "channel": 1,
      "note": 56,
      "start": 40.966,
      "duration": 0.0415,
      "velocity": 118,
      "chip": "ym2612"
    },
    {
      "channel": 4,
      "note": 43,
      "start": 41.0608,
      "duration": 0.0968,
      "velocity": 117,
      "chip": "ym2612"
    },
    {
      "channel": 5,
      "note": 55,
      "start": 41.1774,
      "duration": 0.0802,
      "velocity": 117,
      "chip": "ym2612"
    },
    {
      "channel": 0,
      "note": 67,
      "start": 41.1801,
      "duration": 0.194,
      "velocity": 127,
      "chip": "ym2612"
    },
    {
      "channel": 2,
      "note": 81,
      "start": 41.1826,
      "duration": 0.1251,
      "velocity": 121,
      "chip": "ym2612"
    },
    {
      "channel": 5,
      "note": 55,
      "start": 41.2774,
      "duration": 0.097,
      "velocity": 117,
      "chip": "ym2612"
    },
    {
      "channel": 4,
      "note": 46,
      "start": 41.3941,
      "duration": 0.0801,
      "velocity": 117,
      "chip": "ym2612"
    },
    {
      "channel": 0,
      "note": 58,
      "start": 41.3967,
      "duration": 0.194,
      "velocity": 127,
      "chip": "ym2612"
    },
    {
      "channel": 1,
      "note": 56,
      "start": 41.3994,
      "duration": 0.0414,
      "velocity": 118,
      "chip": "ym2612"
    },
    {
      "channel": 3,
      "note": 45,
      "start": 41.4022,
      "duration": 0.022,
      "velocity": 127,
      "chip": "ym2612"
    },
    {
      "channel": 4,
      "note": 46,
      "start": 41.494,
      "duration": 0.0969,
      "velocity": 117,
      "chip": "ym2612"
    },
    {
      "channel": 5,
      "note": 58,
      "start": 41.6107,
      "duration": 0.0802,
      "velocity": 117,
      "chip": "ym2612"
    },
    {
      "channel": 0,
      "note": 70,
      "start": 41.6134,
      "duration": 0.194,
      "velocity": 127,
      "chip": "ym2612"
    },
    {
      "channel": 2,
      "note": 81,
      "start": 41.6159,
      "duration": 0.1419,
      "velocity": 121,
      "chip": "ym2612"
    },
    {
      "channel": 3,
      "note": 45,
      "start": 41.6186,
      "duration": 0.0222,
      "velocity": 127,
      "chip": "ym2612"
    },
    {
      "channel": 5,
      "note": 58,
      "start": 41.7107,
      "duration": 0.0969,
      "velocity": 117,
      "chip": "ym2612"
    },
    {
      "channel": 3,
      "note": 45,
      "start": 41.7139,
      "duration": 0.0437,
      "velocity": 127,
      "chip": "ym2612"
    },
    {
      "channel": 4,
      "note": 38,
      "start": 41.8274,
      "duration": 0.0801,
      "velocity": 117,
      "chip": "ym2612"
    },
    {
      "channel": 0,
      "note": 50,
      "start": 41.83,
      "duration": 0.1941,
      "velocity": 127,
      "chip": "ym2612"
    },
    {
      "channel": 1,
      "note": 56,
      "start": 41.8326,
      "duration": 0.0415,
      "velocity": 118,
      "chip": "ym2612"
    },
    {
      "channel": 4,
      "note": 38,
      "start": 41.9278,
      "duration": 0.0965,
      "velocity": 117,
      "chip": "ym2612"
    },
    {
      "channel": 5,
      "note": 50,
      "start": 42.0444,
      "duration": 0.0799,
      "velocity": 117,
      "chip": "ym2612"
    },
    {
      "channel": 0,
      "note": 62,
      "start": 42.0471,
      "duration": 0.1935,
      "velocity": 127,
      "chip": "ym2612"
    },
    {
      "channel": 2,
      "note": 81,
      "start": 42.0499,
      "duration": 0.1411,
      "velocity": 121,
      "chip": "ym2612"
    },
    {
      "channel": 5,
      "note": 50,
      "start": 42.144,
      "duration": 0.0969,
      "velocity": 117,
      "chip": "ym2612"
    },
    {
      "channel": 4,
      "note": 38,
      "start": 42.2608,
      "duration": 0.08,
      "velocity": 117,
      "chip": "ym2612"
    },
    {
      "channel": 0,
      "note": 50,
      "start": 42.2634,
      "duration": 0.194,
      "velocity": 127,
      "chip": "ym2612"
    },
    {
      "channel": 1,
      "note": 56,
      "start": 42.266,
      "duration": 0.0414,
      "velocity": 118,
      "chip": "ym2612"
    },
    {
      "channel": 3,
      "note": 45,
      "start": 42.2688,
      "duration": 0.022,
      "velocity": 127,
      "chip": "ym2612"
    },
    {
      "channel": 4,
      "note": 38,
      "start": 42.3775,
      "duration": 0.0802,
      "velocity": 117,
      "chip": "ym2612"
    },
    {
      "channel": 5,
      "note": 50,
      "start": 42.4774,
      "duration": 0.0968,
      "velocity": 117,
      "chip": "ym2612"
    },
    {
      "channel": 0,
      "note": 62,
      "start": 42.4801,
      "duration": 0.194,
      "velocity": 127,
      "chip": "ym2612"
    },
    {
      "channel": 2,
      "note": 81,
      "start": 42.4826,
      "duration": 0.1417,
      "velocity": 121,
      "chip": "ym2612"
    },
    {
      "channel": 5,
      "note": 50,
      "start": 42.5941,
      "duration": 0.0803,
      "velocity": 117,
      "chip": "ym2612"
    },
    {
      "channel": 4,
      "note": 38,
      "start": 42.6941,
      "duration": 0.0968,
      "velocity": 117,
      "chip": "ym2612"
    },
    {
      "channel": 0,
      "note": 50,
      "start": 42.6966,
      "duration": 0.194,
      "velocity": 127,
      "chip": "ym2612"
    },
    {
      "channel": 1,
      "note": 56,
      "start": 42.6993,
      "duration": 0.0414,
      "velocity": 118,
      "chip": "ym2612"
    },
    {
      "channel": 4,
      "note": 38,
      "start": 42.8107,
      "duration": 0.0802,
      "velocity": 117,
      "chip": "ym2612"
    },
    {
      "channel": 5,
      "note": 50,
      "start": 42.9107,
      "duration": 0.0969,
      "velocity": 117,
      "chip": "ym2612"
    },
    {
      "channel": 0,
      "note": 62,
      "start": 42.9134,
      "duration": 0.194,
      "velocity": 127,
      "chip": "ym2612"
    },
    {
      "channel": 2,
      "note": 81,
      "start": 42.9159,
      "duration": 0.1418,
      "velocity": 121,
      "chip": "ym2612"
    },
    {
      "channel": 5,
      "note": 50,
      "start": 43.0274,
      "duration": 0.0803,
      "velocity": 117,
      "chip": "ym2612"
    },
    {
      "channel": 4,
      "note": 38,
      "start": 43.1274,
      "duration": 0.0968,
      "velocity": 117,
      "chip": "ym2612"
    },
    {
      "channel": 0,
      "note": 50,
      "start": 43.13,
      "duration": 0.194,
      "velocity": 127,
      "chip": "ym2612"
    },
    {
      "channel": 1,
      "note": 56,
      "start": 43.1326,
      "duration": 0.0582,
      "velocity": 118,
      "chip": "ym2612"
    },
    {
      "channel": 3,
      "note": 45,
      "start": 43.1353,
      "duration": 0.039,
      "velocity": 127,
      "chip": "ym2612"
    },
    {
      "channel": 4,
      "note": 38,
      "start": 43.2441,
      "duration": 0.0801,
      "velocity": 117,
      "chip": "ym2612"
    },
    {
      "channel": 5,
      "note": 50,
      "start": 43.344,
      "duration": 0.0968,
      "velocity": 117,
      "chip": "ym2612"
    },
    {
      "channel": 0,
      "note": 62,
      "start": 43.3467,
      "duration": 0.194,
      "velocity": 127,
      "chip": "ym2612"
    },
    {
      "channel": 2,
      "note": 81,
      "start": 43.3492,
      "duration": 0.1419,
      "velocity": 121,
      "chip": "ym2612"
    },
    {
      "channel": 5,
      "note": 50,
      "start": 43.4607,
      "duration": 0.0802,
      "velocity": 117,
      "chip": "ym2612"
    },
    {
      "channel": 4,
      "note": 38,
      "start": 43.5607,
      "duration": 0.0967,
      "velocity": 117,
      "chip": "ym2612"
    },
    {
      "channel": 0,
      "note": 50,
      "start": 43.5633,
      "duration": 0.1941,
      "velocity": 127,
      "chip": "ym2612"
    },
    {
      "channel": 1,
      "note": 56,
      "start": 43.566,
      "duration": 0.0582,
      "velocity": 118,
      "chip": "ym2612"
    },
    {
      "channel": 4,
      "note": 38,
      "start": 43.6778,
      "duration": 0.0798,
      "velocity": 117,
      "chip": "ym2612"
    },
    {
      "channel": 5,
      "note": 50,
      "start": 43.7944,
      "duration": 0.0798,
      "velocity": 117,
      "chip": "ym2612"
    },
    {
      "channel": 0,
      "note": 62,
      "start": 43.7971,
      "duration": 0.1936,
      "velocity": 127,
      "chip": "ym2612"
    },
    {
      "channel": 2,
      "note": 81,
      "start": 43.7996,
      "duration": 0.1247,
      "velocity": 121,
      "chip": "ym2612"
    },
    {
      "channel": 5,
      "note": 50,
      "start": 43.894,
      "duration": 0.0969,
      "velocity": 117,
      "chip": "ym2612"
    },
    {
      "channel": 4,
      "note": 38,
      "start": 44.0107,
      "duration": 0.0801,
      "velocity": 117,
      "chip": "ym2612"
    },
    {
      "channel": 0,
      "note": 50,
      "start": 44.0137,
      "duration": 0.1936,
      "velocity": 127,
      "chip": "ym2612"
    },
    {
      "channel": 1,
      "note": 56,
      "start": 44.0163,
      "duration": 0.0412,
      "velocity": 118,
      "chip": "ym2612"
    },
    {
      "channel": 3,
      "note": 45,
      "start": 44.019,
      "duration": 0.0218,
      "velocity": 127,
      "chip": "ym2612"
    },
    {
      "channel": 4,
      "note": 38,
      "start": 44.1108,
      "duration": 0.0968,
      "velocity": 117,
      "chip": "ym2612"
    },
    {
      "channel": 5,
      "note": 50,
      "start": 44.2274,
      "duration": 0.0803,
      "velocity": 117,
      "chip": "ym2612"
    },
    {
      "channel": 0,
      "note": 62,
      "start": 44.23,
      "duration": 0.194,
      "velocity": 127,
      "chip": "ym2612"
    },
    {
      "channel": 2,
      "note": 81,
      "start": 44.2325,
      "duration": 0.1252,
      "velocity": 121,
      "chip": "ym2612"
    },
    {
      "channel": 5,
      "note": 50,
      "start": 44.3274,
      "duration": 0.097,
      "velocity": 117,
      "chip": "ym2612"
    },
    {
      "channel": 4,
      "note": 38,
      "start": 44.4441,
      "duration": 0.08,
      "velocity": 117,
      "chip": "ym2612"
    },
    {
      "channel": 0,
      "note": 50,
      "start": 44.4467,
      "duration": 0.194,
      "velocity": 127,
      "chip": "ym2612"
    },
    {
      "channel": 1,
      "note": 56,
      "start": 44.4494,
      "duration": 0.0415,
      "velocity": 118,
      "chip": "ym2612"
    },
    {
      "channel": 4,
      "note": 38,
      "start": 44.5441,
      "duration": 0.0968,
      "velocity": 117,
      "chip": "ym2612"
    },
    {
      "channel": 5,
      "note": 50,
      "start": 44.6607,
      "duration": 0.0801,
      "velocity": 117,
      "chip": "ym2612"
    },
    {
      "channel": 0,
      "note": 62,
      "start": 44.6634,
      "duration": 0.194,
      "velocity": 127,
      "chip": "ym2612"
    },
    {
      "channel": 2,
      "note": 81,
      "start": 44.6659,
      "duration": 0.1417,
      "velocity": 121,
      "chip": "ym2612"
    },
    {
      "channel": 5,
      "note": 50,
      "start": 44.7607,
      "duration": 0.097,
      "velocity": 117,
      "chip": "ym2612"
    },
    {
      "channel": 4,
      "note": 41,
      "start": 44.8775,
      "duration": 0.08,
      "velocity": 117,
      "chip": "ym2612"
    },
    {
      "channel": 0,
      "note": 53,
      "start": 44.88,
      "duration": 0.194,
      "velocity": 127,
      "chip": "ym2612"
    },
    {
      "channel": 1,
      "note": 56,
      "start": 44.8827,
      "duration": 0.0415,
      "velocity": 118,
      "chip": "ym2612"
    },
    {
      "channel": 3,
      "note": 45,
      "start": 44.8853,
      "duration": 0.0222,
      "velocity": 127,
      "chip": "ym2612"
    },
    {
      "channel": 4,
      "note": 41,
      "start": 44.9775,
      "duration": 0.0968,
      "velocity": 117,
      "chip": "ym2612"
    },
    {
      "channel": 5,
      "note": 53,
      "start": 45.094,
      "duration": 0.0803,
      "velocity": 117,
      "chip": "ym2612"
    },
    {
      "channel": 0,
      "note": 65,
      "start": 45.0967,
      "duration": 0.194,
      "velocity": 127,
      "chip": "ym2612"
    },
    {
      "channel": 2,
      "note": 81,
      "start": 45.0992,
      "duration": 0.1418,
      "velocity": 121,
      "chip": "ym2612"
    },
    {
      "channel": 5,
      "note": 53,
      "start": 45.2107,
      "duration": 0.0803,
      "velocity": 117,
      "chip": "ym2612"
    },
    {
      "channel": 4,
      "note": 38,
      "start": 45.3107,
      "duration": 0.0802,
      "velocity": 117,
      "chip": "ym2612"
    },
    {
      "channel": 0,
      "note": 50,
      "start": 45.3133,
      "duration": 0.194,
      "velocity": 127,
      "chip": "ym2612"
    },
    {
      "channel": 1,
      "note": 56,
      "start": 45.316,
      "duration": 0.0414,
      "velocity": 118,
      "chip": "ym2612"
    },
    {
      "channel": 4,
      "note": 38,
      "start": 45.4277,
      "duration": 0.0799,
      "velocity": 117,
      "chip": "ym2612"
    },
    {
      "channel": 5,
      "note": 50,
      "start": 45.5277,
      "duration": 0.0966,
      "velocity": 117,
      "chip": "ym2612"
    },
    {
      "channel": 0,
      "note": 62,
      "start": 45.5304,
      "duration": 0.1936,
      "velocity": 127,
      "chip": "ym2612"
    },
    {
      "channel": 2,
      "note": 81,
      "start": 45.5328,
      "duration": 0.1415,
      "velocity": 121,
      "chip": "ym2612"
    },
    {
      "channel": 5,
      "note": 50,
      "start": 45.644,
      "duration": 0.0803,
      "velocity": 117,
      "chip": "ym2612"
    },
    {
      "channel": 4,
      "note": 38,
      "start": 45.7441,
      "duration": 0.0968,
      "velocity": 117,
      "chip": "ym2612"
    },
    {
      "channel": 0,
      "note": 50,
      "start": 45.7466,
      "duration": 0.194,
      "velocity": 127,
      "chip": "ym2612"
    },
    {
      "channel": 1,
      "note": 56,
      "start": 45.7493,
      "duration": 0.0414,
      "velocity": 118,
      "chip": "ym2612"
    },
    {
      "channel": 3,
      "note": 45,
      "start": 45.7519,
      "duration": 0.0222,
      "velocity": 127,
      "chip": "ym2612"
    },
    {
      "channel": 4,
      "note": 38,
      "start": 45.8608,
      "duration": 0.0801,
      "velocity": 117,
      "chip": "ym2612"
    },
    {
      "channel": 5,
      "note": 50,
      "start": 45.9607,
      "duration": 0.0968,
      "velocity": 117,
      "chip": "ym2612"
    },
    {
      "channel": 0,
      "note": 62,
      "start": 45.9634,
      "duration": 0.194,
      "velocity": 127,
      "chip": "ym2612"
    },
    {
      "channel": 2,
      "note": 81,
      "start": 45.9659,
      "duration": 0.1418,
      "velocity": 121,
      "chip": "ym2612"
    },
    {
      "channel": 5,
      "note": 50,
      "start": 46.0774,
      "duration": 0.0803,
      "velocity": 117,
      "chip": "ym2612"
    },
    {
      "channel": 4,
      "note": 38,
      "start": 46.1775,
      "duration": 0.0967,
      "velocity": 117,
      "chip": "ym2612"
    },
    {
      "channel": 0,
      "note": 50,
      "start": 46.18,
      "duration": 0.194,
      "velocity": 127,
      "chip": "ym2612"
    },
    {
      "channel": 1,
      "note": 56,
      "start": 46.1827,
      "duration": 0.0581,
      "velocity": 118,
      "chip": "ym2612"
    },
    {
      "channel": 4,
      "note": 38,
      "start": 46.2941,
      "duration": 0.0802,
      "velocity": 117,
      "chip": "ym2612"
    },
    {
      "channel": 5,
      "note": 50,
      "start": 46.394,
      "duration": 0.0969,
      "velocity": 117,
      "chip": "ym2612"
    },
    {
      "channel": 0,
      "note": 62,
      "start": 46.3967,
      "duration": 0.194,
      "velocity": 127,
      "chip": "ym2612"
    },
    {
      "channel": 2,
      "note": 81,
      "start": 46.3992,
      "duration": 0.1419,
      "velocity": 121,
      "chip": "ym2612"
    },
    {
      "channel": 5,
      "note": 50,
      "start": 46.5107,
      "duration": 0.0803,
      "velocity": 117,
      "chip": "ym2612"
    },
    {
      "channel": 4,
      "note": 38,
      "start": 46.6107,
      "duration": 0.0968,
      "velocity": 117,
      "chip": "ym2612"
    },
    {
      "channel": 0,
      "note": 50,
      "start": 46.6133,
      "duration": 0.1941,
      "velocity": 127,
      "chip": "ym2612"
    },
    {
      "channel": 1,
      "note": 56,
      "start": 46.616,
      "duration": 0.0582,
      "velocity": 118,
      "chip": "ym2612"
    },
    {
      "channel": 3,
      "note": 45,
      "start": 46.6186,
      "duration": 0.0389,
      "velocity": 127,
      "chip": "ym2612"
    },
    {
      "channel": 4,
      "note": 38,
      "start": 46.7275,
      "duration": 0.0802,
      "velocity": 117,
      "chip": "ym2612"
    },
    {
      "channel": 5,
      "note": 50,
      "start": 46.8441,
      "duration": 0.0802,
      "velocity": 117,
      "chip": "ym2612"
    },
    {
      "channel": 0,
      "note": 62,
      "start": 46.8468,
      "duration": 0.194,
      "velocity": 127,
      "chip": "ym2612"
    },
    {
      "channel": 2,
      "note": 81,
      "start": 46.8493,
      "duration": 0.1251,
      "velocity": 121,
      "chip": "ym2612"
    },
    {
      "channel": 5,
      "note": 50,
      "start": 46.944,
      "duration": 0.097,
      "velocity": 117,
      "chip": "ym2612"
    },
    {
      "channel": 4,
      "note": 38,
      "start": 47.0607,
      "duration": 0.0802,
      "velocity": 117,
      "chip": "ym2612"
    },
    {
      "channel": 0,
      "note": 50,
      "start": 47.0633,
      "duration": 0.194,
      "velocity": 127,
      "chip": "ym2612"
    },
    {
      "channel": 1,
      "note": 56,
      "start": 47.0663,
      "duration": 0.041,
      "velocity": 118,
      "chip": "ym2612"
    },
    {
      "channel": 4,
      "note": 38,
      "start": 47.1611,
      "duration": 0.0965,
      "velocity": 117,
      "chip": "ym2612"
    },
    {
      "channel": 5,
      "note": 50,
      "start": 47.2777,
      "duration": 0.0798,
      "velocity": 117,
      "chip": "ym2612"
    },
    {
      "channel": 0,
      "note": 62,
      "start": 47.2804,
      "duration": 0.1937,
      "velocity": 127,
      "chip": "ym2612"
    },
    {
      "channel": 2,
      "note": 81,
      "start": 47.2829,
      "duration": 0.1247,
      "velocity": 121,
      "chip": "ym2612"
    },
    {
      "channel": 5,
      "note": 50,
      "start": 47.3774,
      "duration": 0.097,
      "velocity": 117,
      "chip": "ym2612"
    },
    {
      "channel": 4,
      "note": 38,
      "start": 47.4941,
      "duration": 0.08,
      "velocity": 117,
      "chip": "ym2612"
    },
    {
      "channel": 0,
      "note": 50,
      "start": 47.4971,
      "duration": 0.1936,
      "velocity": 127,
      "chip": "ym2612"
    },
    {
      "channel": 1,
      "note": 56,
      "start": 47.4998,
      "duration": 0.0411,
      "velocity": 118,
      "chip": "ym2612"
    },
    {
      "channel": 3,
      "note": 45,
      "start": 47.5024,
      "duration": 0.0218,
      "velocity": 127,
      "chip": "ym2612"
    },
    {
      "channel": 4,
      "note": 38,
      "start": 47.5941,
      "duration": 0.0968,
      "velocity": 117,
      "chip": "ym2612"
    },
    {
      "channel": 5,
      "note": 50,
      "start": 47.7106,
      "duration": 0.0802,
      "velocity": 117,
      "chip": "ym2612"
    },
    {
      "channel": 0,
      "note": 62,
      "start": 47.7133,
      "duration": 0.1941,
      "velocity": 127,
      "chip": "ym2612"
    },
    {
      "channel": 2,
      "note": 81,
      "start": 47.7158,
      "duration": 0.1419,
      "velocity": 121,
      "chip": "ym2612"
    },
    {
      "channel": 5,
      "note": 50,
      "start": 47.8107,
      "duration": 0.097,
      "velocity": 117,
      "chip": "ym2612"
    },
    {
      "channel": 4,
      "note": 38,
      "start": 47.9275,
      "duration": 0.08,
      "velocity": 117,
      "chip": "ym2612"
    },
    {
      "channel": 0,
      "note": 50,
      "start": 47.93,
      "duration": 0.194,
      "velocity": 127,
      "chip": "ym2612"
    },
    {
      "channel": 1,
      "note": 56,
      "start": 47.9327,
      "duration": 0.0414,
      "velocity": 118,
      "chip": "ym2612"
    },
    {
      "channel": 4,
      "note": 38,
      "start": 48.0275,
      "duration": 0.0968,
      "velocity": 117,
      "chip": "ym2612"
    },
    {
      "channel": 5,
      "note": 50,
      "start": 48.1441,
      "duration": 0.0802,
      "velocity": 117,
      "chip": "ym2612"
    },
    {
      "channel": 0,
      "note": 62,
      "start": 48.1468,
      "duration": 0.1939,
      "velocity": 127,
      "chip": "ym2612"
    },
    {
      "channel": 2,
      "note": 81,
      "start": 48.1493,
      "duration": 0.1417,
      "velocity": 121,
      "chip": "ym2612"
    },
    {
      "channel": 5,
      "note": 50,
      "start": 48.2607,
      "duration": 0.0802,
      "velocity": 117,
      "chip": "ym2612"
    },
    {
      "channel": 4,
      "note": 41,
      "start": 48.3607,
      "duration": 0.0968,
      "velocity": 117,
      "chip": "ym2612"
    },
    {
      "channel": 0,
      "note": 53,
      "start": 48.3633,
      "duration": 0.1941,
      "velocity": 127,
      "chip": "ym2612"
    },
    {
      "channel": 1,
      "note": 56,
      "start": 48.366,
      "duration": 0.0414,
      "velocity": 118,
      "chip": "ym2612"
    },
    {
      "channel": 3,
      "note": 45,
      "start": 48.3693,
      "duration": 0.0216,
      "velocity": 127,
      "chip": "ym2612"
    },
    {
      "channel": 4,
      "note": 41,
      "start": 48.4775,
      "duration": 0.0802,
      "velocity": 117,
      "chip": "ym2612"
    },
    {
      "channel": 5,
      "note": 53,
      "start": 48.5774,
      "duration": 0.0969,
      "velocity": 117,
      "chip": "ym2612"
    },
    {
      "channel": 0,
      "note": 65,
      "start": 48.5804,
      "duration": 0.1936,
      "velocity": 127,
      "chip": "ym2612"
    },
    {
      "channel": 2,
      "note": 81,
      "start": 48.5835,
      "duration": 0.1408,
      "velocity": 121,
      "chip": "ym2612"
    },
    {
      "channel": 5,
      "note": 53,
      "start": 48.6945,
      "duration": 0.0798,
      "velocity": 117,
      "chip": "ym2612"
    },
    {
      "channel": 1,
      "note": 56,
      "start": 48.7941,
      "duration": 0.0467,
      "velocity": 118,
      "chip": "ym2612"
    },
    {
      "channel": 1,
      "note": 56,
      "start": 49.2275,
      "duration": 0.0634,
      "velocity": 118,
      "chip": "ym2612"
    },
    {
      "channel": 1,
      "note": 56,
      "start": 49.6607,
      "duration": 0.0634,
      "velocity": 118,
      "chip": "ym2612"
    },
    {
      "channel": 1,
      "note": 56,
      "start": 50.1108,
      "duration": 0.0466,
      "velocity": 118,
      "chip": "ym2612"
    },
    {
      "channel": 1,
      "note": 56,
      "start": 50.544,
      "duration": 0.0467,
      "velocity": 118,
      "chip": "ym2612"
    },
    {
      "channel": 1,
      "note": 56,
      "start": 50.9774,
      "duration": 0.0466,
      "velocity": 118,
      "chip": "ym2612"
    },
    {
      "channel": 1,
      "note": 56,
      "start": 51.4108,
      "duration": 0.0466,
      "velocity": 118,
      "chip": "ym2612"
    },
    {
      "channel": 1,
      "note": 56,
      "start": 51.8441,
      "duration": 0.0466,
      "velocity": 118,
      "chip": "ym2612"
    },
    {
      "channel": 1,
      "note": 56,
      "start": 52.2775,
      "duration": 0.0632,
      "velocity": 118,
      "chip": "ym2612"
    },
    {
      "channel": 1,
      "note": 56,
      "start": 52.7274,
      "duration": 0.0466,
      "velocity": 118,
      "chip": "ym2612"
    },
    {
      "channel": 3,
      "note": 45,
      "start": 52.7303,
      "duration": 0.0272,
      "velocity": 127,
      "chip": "ym2612"
    },
    {
      "channel": 1,
      "note": 56,
      "start": 53.1607,
      "duration": 0.0467,
      "velocity": 118,
      "chip": "ym2612"
    },
    {
      "channel": 1,
      "note": 56,
      "start": 53.594,
      "duration": 0.0467,
      "velocity": 118,
      "chip": "ym2612"
    },
    {
      "channel": 3,
      "note": 45,
      "start": 53.5967,
      "duration": 0.0275,
      "velocity": 127,
      "chip": "ym2612"
    },
    {
      "channel": 1,
      "note": 56,
      "start": 54.0277,
      "duration": 0.0464,
      "velocity": 118,
      "chip": "ym2612"
    },
    {
      "channel": 1,
      "note": 56,
      "start": 54.4608,
      "duration": 0.0466,
      "velocity": 118,
      "chip": "ym2612"
    },
    {
      "channel": 3,
      "note": 45,
      "start": 54.4635,
      "duration": 0.0273,
      "velocity": 127,
      "chip": "ym2612"
    },
    {
      "channel": 1,
      "note": 56,
      "start": 54.894,
      "duration": 0.0468,
      "velocity": 118,
      "chip": "ym2612"
    },
    {
      "channel": 1,
      "note": 56,
      "start": 55.3274,
      "duration": 0.0634,
      "velocity": 118,
      "chip": "ym2612"
    },
    {
      "channel": 3,
      "note": 45,
      "start": 55.3301,
      "duration": 0.044,
      "velocity": 127,
      "chip": "ym2612"
    },
    {
      "channel": 4,
      "note": 34,
      "start": 55.7774,
      "duration": 0.0802,
      "velocity": 117,
      "chip": "ym2612"
    },
    {
      "channel": 0,
      "note": 46,
      "start": 55.7802,
      "duration": 0.1939,
      "velocity": 127,
      "chip": "ym2612"
    },
    {
      "channel": 1,
      "note": 56,
      "start": 55.7828,
      "duration": 0.0412,
      "velocity": 118,
      "chip": "ym2612"
    },
    {
      "channel": 4,
      "note": 34,
      "start": 55.8777,
      "duration": 0.0966,
      "velocity": 117,
      "chip": "ym2612"
    },
    {
      "channel": 5,
      "note": 46,
      "start": 55.994,
      "duration": 0.0803,
      "velocity": 117,
      "chip": "ym2612"
    },
    {
      "channel": 0,
      "note": 58,
      "start": 55.9967,
      "duration": 0.194,
      "velocity": 127,
      "chip": "ym2612"
    },
    {
      "channel": 2,
      "note": 81,
      "start": 55.9993,
      "duration": 0.1249,
      "velocity": 121,
      "chip": "ym2612"
    },
    {
      "channel": 5,
      "note": 46,
      "start": 56.094,
      "duration": 0.097,
      "velocity": 117,
      "chip": "ym2612"
    },
    {
      "channel": 4,
      "note": 34,
      "start": 56.2107,
      "duration": 0.08,
      "velocity": 117,
      "chip": "ym2612"
    },
    {
      "channel": 0,
      "note": 46,
      "start": 56.2133,
      "duration": 0.1941,
      "velocity": 127,
      "chip": "ym2612"
    },
    {
      "channel": 1,
      "note": 56,
      "start": 56.216,
      "duration": 0.0415,
      "velocity": 118,
      "chip": "ym2612"
    },
    {
      "channel": 3,
      "note": 45,
      "start": 56.2186,
      "duration": 0.0223,
      "velocity": 127,
      "chip": "ym2612"
    },
    {
      "channel": 4,
      "note": 34,
      "start": 56.3107,
      "duration": 0.0969,
      "velocity": 117,
      "chip": "ym2612"
    },
    {
      "channel": 5,
      "note": 46,
      "start": 56.4274,
      "duration": 0.0802,
      "velocity": 117,
      "chip": "ym2612"
    },
    {
      "channel": 0,
      "note": 58,
      "start": 56.4301,
      "duration": 0.194,
      "velocity": 127,
      "chip": "ym2612"
    },
    {
      "channel": 2,
      "note": 81,
      "start": 56.4326,
      "duration": 0.1251,
      "velocity": 121,
      "chip": "ym2612"
    },
    {
      "channel": 5,
      "note": 46,
      "start": 56.5274,
      "duration": 0.097,
      "velocity": 117,
      "chip": "ym2612"
    },
    {
      "channel": 4,
      "note": 34,
      "start": 56.6441,
      "duration": 0.0801,
      "velocity": 117,
      "chip": "ym2612"
    },
    {
      "channel": 0,
      "note": 46,
      "start": 56.6466,
      "duration": 0.1941,
      "velocity": 127,
      "chip": "ym2612"
    },
    {
      "channel": 1,
      "note": 56,
      "start": 56.6493,
      "duration": 0.0414,
      "velocity": 118,
      "chip": "ym2612"
    },
    {
      "channel": 4,
      "note": 34,
      "start": 56.7441,
      "duration": 0.0968,
      "velocity": 117,
      "chip": "ym2612"
    },
    {
      "channel": 5,
      "note": 46,
      "start": 56.8607,
      "duration": 0.0802,
      "velocity": 117,
      "chip": "ym2612"
    },
    {
      "channel": 0,
      "note": 58,
      "start": 56.8634,
      "duration": 0.194,
      "velocity": 127,
      "chip": "ym2612"
    },
    {
      "channel": 2,
      "note": 81,
      "start": 56.8659,
      "duration": 0.1417,
      "velocity": 121,
      "chip": "ym2612"
    },
    {
      "channel": 5,
      "note": 46,
      "start": 56.9607,
      "duration": 0.097,
      "velocity": 117,
      "chip": "ym2612"
    },
    {
      "channel": 4,
      "note": 34,
      "start": 57.0775,
      "duration": 0.08,
      "velocity": 117,
      "chip": "ym2612"
    },
    {
      "channel": 0,
      "note": 46,
      "start": 57.08,
      "duration": 0.194,
      "velocity": 127,
      "chip": "ym2612"
    },
    {
      "channel": 1,
      "note": 56,
      "start": 57.0827,
      "duration": 0.0415,
      "velocity": 118,
      "chip": "ym2612"
    },
    {
      "channel": 3,
      "note": 45,
      "start": 57.0853,
      "duration": 0.0222,
      "velocity": 127,
      "chip": "ym2612"
    },
    {
      "channel": 4,
      "note": 34,
      "start": 57.1775,
      "duration": 0.0968,
      "velocity": 117,
      "chip": "ym2612"
    },
    {
      "channel": 5,
      "note": 46,
      "start": 57.294,
      "duration": 0.0802,
      "velocity": 117,
      "chip": "ym2612"
    },
    {
      "channel": 0,
      "note": 58,
      "start": 57.2971,
      "duration": 0.1937,
      "velocity": 127,
      "chip": "ym2612"
    },
    {
      "channel": 2,
      "note": 81,
      "start": 57.2996,
      "duration": 0.1415,
      "velocity": 121,
      "chip": "ym2612"
    },
    {
      "channel": 5,
      "note": 46,
      "start": 57.4111,
      "duration": 0.0799,
      "velocity": 117,
      "chip": "ym2612"
    },
    {
      "channel": 4,
      "note": 34,
      "start": 57.5108,
      "duration": 0.0967,
      "velocity": 117,
      "chip": "ym2612"
    },
    {
      "channel": 0,
      "note": 46,
      "start": 57.5134,
      "duration": 0.194,
      "velocity": 127,
      "chip": "ym2612"
    },
    {
      "channel": 1,
      "note": 56,
      "start": 57.516,
      "duration": 0.0414,
      "velocity": 118,
      "chip": "ym2612"
    },
    {
      "channel": 4,
      "note": 34,
      "start": 57.6277,
      "duration": 0.0798,
      "velocity": 117,
      "chip": "ym2612"
    },
    {
      "channel": 5,
      "note": 46,
      "start": 57.7274,
      "duration": 0.0969,
      "velocity": 117,
      "chip": "ym2612"
    },
    {
      "channel": 0,
      "note": 58,
      "start": 57.73,
      "duration": 0.194,
      "velocity": 127,
      "chip": "ym2612"
    },
    {
      "channel": 2,
      "note": 81,
      "start": 57.7325,
      "duration": 0.1418,
      "velocity": 121,
      "chip": "ym2612"
    },
    {
      "channel": 5,
      "note": 46,
      "start": 57.8441,
      "duration": 0.0803,
      "velocity": 117,
      "chip": "ym2612"
    },
    {
      "channel": 4,
      "note": 34,
      "start": 57.9441,
      "duration": 0.0967,
      "velocity": 117,
      "chip": "ym2612"
    },
    {
      "channel": 0,
      "note": 46,
      "start": 57.9467,
      "duration": 0.194,
      "velocity": 127,
      "chip": "ym2612"
    },
    {
      "channel": 1,
      "note": 56,
      "start": 57.9494,
      "duration": 0.0581,
      "velocity": 118,
      "chip": "ym2612"
    },
    {
      "channel": 3,
      "note": 45,
      "start": 57.952,
      "duration": 0.0222,
      "velocity": 127,
      "chip": "ym2612"
    },
    {
      "channel": 4,
      "note": 34,
      "start": 58.0608,
      "duration": 0.0801,
      "velocity": 117,
      "chip": "ym2612"
    },
    {
      "channel": 5,
      "note": 46,
      "start": 58.1607,
      "duration": 0.0969,
      "velocity": 117,
      "chip": "ym2612"
    },
    {
      "channel": 0,
      "note": 58,
      "start": 58.1634,
      "duration": 0.194,
      "velocity": 127,
      "chip": "ym2612"
    },
    {
      "channel": 2,
      "note": 81,
      "start": 58.1659,
      "duration": 0.1418,
      "velocity": 121,
      "chip": "ym2612"
    },
    {
      "channel": 5,
      "note": 46,
      "start": 58.2774,
      "duration": 0.0803,
      "velocity": 117,
      "chip": "ym2612"
    },
    {
      "channel": 4,
      "note": 34,
      "start": 58.3775,
      "duration": 0.0967,
      "velocity": 117,
      "chip": "ym2612"
    },
    {
      "channel": 0,
      "note": 46,
      "start": 58.38,
      "duration": 0.194,
      "velocity": 127,
      "chip": "ym2612"
    },
    {
      "channel": 1,
      "note": 56,
      "start": 58.3827,
      "duration": 0.0581,
      "velocity": 118,
      "chip": "ym2612"
    },
    {
      "channel": 4,
      "note": 34,
      "start": 58.4941,
      "duration": 0.0802,
      "velocity": 117,
      "chip": "ym2612"
    },
    {
      "channel": 5,
      "note": 46,
      "start": 58.5941,
      "duration": 0.0968,
      "velocity": 117,
      "chip": "ym2612"
    },
    {
      "channel": 0,
      "note": 58,
      "start": 58.5968,
      "duration": 0.194,
      "velocity": 127,
      "chip": "ym2612"
    },
    {
      "channel": 2,
      "note": 81,
      "start": 58.5993,
      "duration": 0.1417,
      "velocity": 121,
      "chip": "ym2612"
    },
    {
      "channel": 5,
      "note": 46,
      "start": 58.7107,
      "duration": 0.0803,
      "velocity": 117,
      "chip": "ym2612"
    },
    {
      "channel": 4,
      "note": 36,
      "start": 58.8275,
      "duration": 0.0801,
      "velocity": 117,
      "chip": "ym2612"
    },
    {
      "channel": 0,
      "note": 48,
      "start": 58.83,
      "duration": 0.194,
      "velocity": 127,
      "chip": "ym2612"
    },
    {
      "channel": 1,
      "note": 56,
      "start": 58.8327,
      "duration": 0.0414,
      "velocity": 118,
      "chip": "ym2612"
    },
    {
      "channel": 3,
      "note": 45,
      "start": 58.8353,
      "duration": 0.0222,
      "velocity": 127,
      "chip": "ym2612"
    },
    {
      "channel": 4,
      "note": 36,
      "start": 58.9274,
      "duration": 0.0969,
      "velocity": 117,
      "chip": "ym2612"
    },
    {
      "channel": 5,
      "note": 48,
      "start": 59.0441,
      "duration": 0.0802,
      "velocity": 117,
      "chip": "ym2612"
    },
    {
      "channel": 0,
      "note": 60,
      "start": 59.0468,
      "duration": 0.194,
      "velocity": 127,
      "chip": "ym2612"
    },
    {
      "channel": 2,
      "note": 81,
      "start": 59.0493,
      "duration": 0.1251,
      "velocity": 121,
      "chip": "ym2612"
    },
    {
      "channel": 5,
      "note": 48,
      "start": 59.1444,
      "duration": 0.0966,
      "velocity": 117,
      "chip": "ym2612"
    },
    {
      "channel": 4,
      "note": 38,
      "start": 59.2608,
      "duration": 0.08,
      "velocity": 117,
      "chip": "ym2612"
    },
    {
      "channel": 0,
      "note": 50,
      "start": 59.2634,
      "duration": 0.194,
      "velocity": 127,
      "chip": "ym2612"
    },
    {
      "channel": 1,
      "note": 56,
      "start": 59.266,
      "duration": 0.0414,
      "velocity": 118,
      "chip": "ym2612"
    },
    {
      "channel": 4,
      "note": 38,
      "start": 59.3611,
      "duration": 0.0965,
      "velocity": 117,
      "chip": "ym2612"
    },
    {
      "channel": 5,
      "note": 50,
      "start": 59.4774,
      "duration": 0.0803,
      "velocity": 117,
      "chip": "ym2612"
    },
    {
      "channel": 0,
      "note": 62,
      "start": 59.48,
      "duration": 0.194,
      "velocity": 127,
      "chip": "ym2612"
    },
    {
      "channel": 2,
      "note": 81,
      "start": 59.4825,
      "duration": 0.1251,
      "velocity": 121,
      "chip": "ym2612"
    },
    {
      "channel": 5,
      "note": 50,
      "start": 59.5773,
      "duration": 0.0971,
      "velocity": 117,
      "chip": "ym2612"
    },
    {
      "channel": 4,
      "note": 38,
      "start": 59.6941,
      "duration": 0.08,
      "velocity": 117,
      "chip": "ym2612"
    },
    {
      "channel": 0,
      "note": 50,
      "start": 59.6967,
      "duration": 0.194,
      "velocity": 127,
      "chip": "ym2612"
    },
    {
      "channel": 1,
      "note": 56,
      "start": 59.6994,
      "duration": 0.0414,
      "velocity": 118,
      "chip": "ym2612"
    },
    {
      "channel": 3,
      "note": 45,
      "start": 59.702,
      "duration": 0.0222,
      "velocity": 127,
      "chip": "ym2612"
    },
    {
      "channel": 4,
      "note": 38,
      "start": 59.7941,
      "duration": 0.0968,
      "velocity": 117,
      "chip": "ym2612"
    },
    {
      "channel": 5,
      "note": 50,
      "start": 59.9107,
      "duration": 0.0802,
      "velocity": 117,
      "chip": "ym2612"
    },
    {
      "channel": 0,
      "note": 62,
      "start": 59.9134,
      "duration": 0.194,
      "velocity": 127,
      "chip": "ym2612"
    },
    {
      "channel": 2,
      "note": 81,
      "start": 59.9159,
      "duration": 0.1418,
      "velocity": 121,
      "chip": "ym2612"
    },
    {
      "channel": 5,
      "note": 50,
      "start": 60.0107,
      "duration": 0.097,
      "velocity": 117,
      "chip": "ym2612"
    },
    {
      "channel": 4,
      "note": 38,
      "start": 60.1275,
      "duration": 0.08,
      "velocity": 117,
      "chip": "ym2612"
    },
    {
      "channel": 0,
      "note": 50,
      "start": 60.13,
      "duration": 0.194,
      "velocity": 127,
      "chip": "ym2612"
    },
    {
      "channel": 1,
      "note": 56,
      "start": 60.1327,
      "duration": 0.0415,
      "velocity": 118,
      "chip": "ym2612"
    },
    {
      "channel": 4,
      "note": 38,
      "start": 60.2441,
      "duration": 0.0802,
      "velocity": 117,
      "chip": "ym2612"
    },
    {
      "channel": 5,
      "note": 50,
      "start": 60.344,
      "duration": 0.0803,
      "velocity": 117,
      "chip": "ym2612"
    },
    {
      "channel": 0,
      "note": 62,
      "start": 60.3467,
      "duration": 0.194,
      "velocity": 127,
      "chip": "ym2612"
    },
    {
      "channel": 2,
      "note": 81,
      "start": 60.3492,
      "duration": 0.1418,
      "velocity": 121,
      "chip": "ym2612"
    },
    {
      "channel": 5,
      "note": 50,
      "start": 60.4607,
      "duration": 0.0803,
      "velocity": 117,
      "chip": "ym2612"
    },
    {
      "channel": 4,
      "note": 38,
      "start": 60.5607,
      "duration": 0.0968,
      "velocity": 117,
      "chip": "ym2612"
    },
    {
      "channel": 0,
      "note": 50,
      "start": 60.5633,
      "duration": 0.1941,
      "velocity": 127,
      "chip": "ym2612"
    },
    {
      "channel": 1,
      "note": 56,
      "start": 60.566,
      "duration": 0.0415,
      "velocity": 118,
      "chip": "ym2612"
    },
    {
      "channel": 3,
      "note": 45,
      "start": 60.5686,
      "duration": 0.0223,
      "velocity": 127,
      "chip": "ym2612"
    },
    {
      "channel": 4,
      "note": 38,
      "start": 60.6775,
      "duration": 0.0802,
      "velocity": 117,
      "chip": "ym2612"
    },
    {
      "channel": 5,
      "note": 50,
      "start": 60.7774,
      "duration": 0.0969,
      "velocity": 117,
      "chip": "ym2612"
    },
    {
      "channel": 0,
      "note": 62,
      "start": 60.7805,
      "duration": 0.1936,
      "velocity": 127,
      "chip": "ym2612"
    },
    {
      "channel": 2,
      "note": 81,
      "start": 60.783,
      "duration": 0.1414,
      "velocity": 121,
      "chip": "ym2612"
    },
    {
      "channel": 5,
      "note": 50,
      "start": 60.8944,
      "duration": 0.08,
      "velocity": 117,
      "chip": "ym2612"
    },
    {
      "channel": 4,
      "note": 38,
      "start": 60.9941,
      "duration": 0.0966,
      "velocity": 117,
      "chip": "ym2612"
    },
    {
      "channel": 0,
      "note": 50,
      "start": 60.9967,
      "duration": 0.194,
      "velocity": 127,
      "chip": "ym2612"
    },
    {
      "channel": 1,
      "note": 56,
      "start": 60.9998,
      "duration": 0.0578,
      "velocity": 118,
      "chip": "ym2612"
    },
    {
      "channel": 4,
      "note": 38,
      "start": 61.1112,
      "duration": 0.0798,
      "velocity": 117,
      "chip": "ym2612"
    },
    {
      "channel": 5,
      "note": 50,
      "start": 61.2107,
      "duration": 0.0969,
      "velocity": 117,
      "chip": "ym2612"
    },
    {
      "channel": 0,
      "note": 62,
      "start": 61.2134,
      "duration": 0.194,
      "velocity": 127,
      "chip": "ym2612"
    },
    {
      "channel": 2,
      "note": 81,
      "start": 61.2159,
      "duration": 0.1417,
      "velocity": 121,
      "chip": "ym2612"
    },
    {
      "channel": 5,
      "note": 50,
      "start": 61.3274,
      "duration": 0.0803,
      "velocity": 117,
      "chip": "ym2612"
    },
    {
      "channel": 4,
      "note": 38,
      "start": 61.4275,
      "duration": 0.0967,
      "velocity": 117,
      "chip": "ym2612"
    },
    {
      "channel": 0,
      "note": 50,
      "start": 61.43,
      "duration": 0.194,
      "velocity": 127,
      "chip": "ym2612"
    },
    {
      "channel": 1,
      "note": 56,
      "start": 61.4327,
      "duration": 0.0581,
      "velocity": 118,
      "chip": "ym2612"
    },
    {
      "channel": 3,
      "note": 45,
      "start": 61.4353,
      "duration": 0.0388,
      "velocity": 127,
      "chip": "ym2612"
    },
    {
      "channel": 4,
      "note": 38,
      "start": 61.5441,
      "duration": 0.0802,
      "velocity": 117,
      "chip": "ym2612"
    },
    {
      "channel": 5,
      "note": 50,
      "start": 61.6441,
      "duration": 0.0968,
      "velocity": 117,
      "chip": "ym2612"
    },
    {
      "channel": 0,
      "note": 62,
      "start": 61.6468,
      "duration": 0.194,
      "velocity": 127,
      "chip": "ym2612"
    },
    {
      "channel": 2,
      "note": 81,
      "start": 61.6496,
      "duration": 0.1414,
      "velocity": 121,
      "chip": "ym2612"
    },
    {
      "channel": 5,
      "note": 50,
      "start": 61.7607,
      "duration": 0.0803,
      "velocity": 117,
      "chip": "ym2612"
    },
    {
      "channel": 4,
      "note": 38,
      "start": 61.8775,
      "duration": 0.08,
      "velocity": 117,
      "chip": "ym2612"
    },
    {
      "channel": 0,
      "note": 50,
      "start": 61.88,
      "duration": 0.194,
      "velocity": 127,
      "chip": "ym2612"
    },
    {
      "channel": 1,
      "note": 56,
      "start": 61.8827,
      "duration": 0.0414,
      "velocity": 118,
      "chip": "ym2612"
    },
    {
      "channel": 4,
      "note": 38,
      "start": 61.9774,
      "duration": 0.0968,
      "velocity": 117,
      "chip": "ym2612"
    },
    {
      "channel": 5,
      "note": 50,
      "start": 62.094,
      "duration": 0.0803,
      "velocity": 117,
      "chip": "ym2612"
    },
    {
      "channel": 0,
      "note": 62,
      "start": 62.0967,
      "duration": 0.194,
      "velocity": 127,
      "chip": "ym2612"
    },
    {
      "channel": 2,
      "note": 81,
      "start": 62.0992,
      "duration": 0.1251,
      "velocity": 121,
      "chip": "ym2612"
    },
    {
      "channel": 5,
      "note": 50,
      "start": 62.194,
      "duration": 0.0969,
      "velocity": 117,
      "chip": "ym2612"
    },
    {
      "channel": 4,
      "note": 41,
      "start": 62.3107,
      "duration": 0.08,
      "velocity": 117,
      "chip": "ym2612"
    },
    {
      "channel": 0,
      "note": 53,
      "start": 62.3133,
      "duration": 0.1941,
      "velocity": 127,
      "chip": "ym2612"
    },
    {
      "channel": 1,
      "note": 56,
      "start": 62.316,
      "duration": 0.0415,
      "velocity": 118,
      "chip": "ym2612"
    },
    {
      "channel": 3,
      "note": 45,
      "start": 62.3186,
      "duration": 0.0223,
      "velocity": 127,
      "chip": "ym2612"
    },
    {
      "channel": 4,
      "note": 41,
      "start": 62.4108,
      "duration": 0.0968,
      "velocity": 117,
      "chip": "ym2612"
    },
    {
      "channel": 5,
      "note": 53,
      "start": 62.5274,
      "duration": 0.0802,
      "velocity": 117,
      "chip": "ym2612"
    },
    {
      "channel": 0,
      "note": 65,
      "start": 62.5301,
      "duration": 0.194,
      "velocity": 127,
      "chip": "ym2612"
    },
    {
      "channel": 2,
      "note": 81,
      "start": 62.5326,
      "duration": 0.1251,
      "velocity": 121,
      "chip": "ym2612"
    },
    {
      "channel": 5,
      "note": 53,
      "start": 62.6277,
      "duration": 0.0966,
      "velocity": 117,
      "chip": "ym2612"
    },
    {
      "channel": 4,
      "note": 34,
      "start": 62.7441,
      "duration": 0.08,
      "velocity": 117,
      "chip": "ym2612"
    },
    {
      "channel": 0,
      "note": 46,
      "start": 62.7467,
      "duration": 0.194,
      "velocity": 127,
      "chip": "ym2612"
    },
    {
      "channel": 1,
      "note": 56,
      "start": 62.7494,
      "duration": 0.0414,
      "velocity": 118,
      "chip": "ym2612"
    },
    {
      "channel": 4,
      "note": 34,
      "start": 62.8444,
      "duration": 0.0966,
      "velocity": 117,
      "chip": "ym2612"
    },
    {
      "channel": 5,
      "note": 46,
      "start": 62.9607,
      "duration": 0.0802,
      "velocity": 117,
      "chip": "ym2612"
    },
    {
      "channel": 0,
      "note": 58,
      "start": 62.9634,
      "duration": 0.194,
      "velocity": 127,
      "chip": "ym2612"
    },
    {
      "channel": 2,
      "note": 81,
      "start": 62.9659,
      "duration": 0.1418,
      "velocity": 121,
      "chip": "ym2612"
    },
    {
      "channel": 5,
      "note": 46,
      "start": 63.0606,
      "duration": 0.097,
      "velocity": 117,
      "chip": "ym2612"
    },
    {
      "channel": 4,
      "note": 34,
      "start": 63.1774,
      "duration": 0.0802,
      "velocity": 117,
      "chip": "ym2612"
    },
    {
      "channel": 0,
      "note": 46,
      "start": 63.18,
      "duration": 0.1941,
      "velocity": 127,
      "chip": "ym2612"
    },
    {
      "channel": 1,
      "note": 56,
      "start": 63.1826,
      "duration": 0.0415,
      "velocity": 118,
      "chip": "ym2612"
    },
    {
      "channel": 3,
      "note": 45,
      "start": 63.1856,
      "duration": 0.0219,
      "velocity": 127,
      "chip": "ym2612"
    },
    {
      "channel": 4,
      "note": 34,
      "start": 63.2941,
      "duration": 0.0802,
      "velocity": 117,
      "chip": "ym2612"
    },
    {
      "channel": 5,
      "note": 46,
      "start": 63.3941,
      "duration": 0.0802,
      "velocity": 117,
      "chip": "ym2612"
    },
    {
      "channel": 0,
      "note": 58,
      "start": 63.3968,
      "duration": 0.194,
      "velocity": 127,
      "chip": "ym2612"
    },
    {
      "channel": 2,
      "note": 81,
      "start": 63.3993,
      "duration": 0.1417,
      "velocity": 121,
      "chip": "ym2612"
    },
    {
      "channel": 5,
      "note": 46,
      "start": 63.5107,
      "duration": 0.0803,
      "velocity": 117,
      "chip": "ym2612"
    },
    {
      "channel": 4,
      "note": 34,
      "start": 63.6108,
      "duration": 0.0968,
      "velocity": 117,
      "chip": "ym2612"
    },
    {
      "channel": 0,
      "note": 46,
      "start": 63.6134,
      "duration": 0.1941,
      "velocity": 127,
      "chip": "ym2612"
    },
    {
      "channel": 1,
      "note": 56,
      "start": 63.616,
      "duration": 0.0415,
      "velocity": 118,
      "chip": "ym2612"
    },
    {
      "channel": 4,
      "note": 34,
      "start": 63.7274,
      "duration": 0.0802,
      "velocity": 117,
      "chip": "ym2612"
    },
    {
      "channel": 5,
      "note": 46,
      "start": 63.8274,
      "duration": 0.0968,
      "velocity": 117,
      "chip": "ym2612"
    },
    {
      "channel": 0,
      "note": 58,
      "start": 63.8301,
      "duration": 0.194,
      "velocity": 127,
      "chip": "ym2612"
    },
    {
      "channel": 2,
      "note": 81,
      "start": 63.8326,
      "duration": 0.1417,
      "velocity": 121,
      "chip": "ym2612"
    },
    {
      "channel": 5,
      "note": 46,
      "start": 63.9441,
      "duration": 0.0803,
      "velocity": 117,
      "chip": "ym2612"
    },
    {
      "channel": 4,
      "note": 34,
      "start": 64.0441,
      "duration": 0.0966,
      "velocity": 117,
      "chip": "ym2612"
    },
    {
      "channel": 0,
      "note": 46,
      "start": 64.0467,
      "duration": 0.194,
      "velocity": 127,
      "chip": "ym2612"
    },
    {
      "channel": 1,
      "note": 56,
      "start": 64.0494,
      "duration": 0.0581,
      "velocity": 118,
      "chip": "ym2612"
    },
    {
      "channel": 3,
      "note": 45,
      "start": 64.052,
      "duration": 0.0222,
      "velocity": 127,
      "chip": "ym2612"
    },
    {
      "channel": 4,
      "note": 34,
      "start": 64.1608,
      "duration": 0.0802,
      "velocity": 117,
      "chip": "ym2612"
    },
    {
      "channel": 5,
      "note": 46,
      "start": 64.2607,
      "duration": 0.0969,
      "velocity": 117,
      "chip": "ym2612"
    },
    {
      "channel": 0,
      "note": 58,
      "start": 64.2638,
      "duration": 0.1936,
      "velocity": 127,
      "chip": "ym2612"
    },
    {
      "channel": 2,
      "note": 81,
      "start": 64.2663,
      "duration": 0.1413,
      "velocity": 121,
      "chip": "ym2612"
    },
    {
      "channel": 5,
      "note": 46,
      "start": 64.3777,
      "duration": 0.08,
      "velocity": 117,
      "chip": "ym2612"
    },
    {
      "channel": 4,
      "note": 34,
      "start": 64.4775,
      "duration": 0.0967,
      "velocity": 117,
      "chip": "ym2612"
    },
    {
      "channel": 0,
      "note": 46,
      "start": 64.48,
      "duration": 0.194,
      "velocity": 127,
      "chip": "ym2612"
    },
    {
      "channel": 1,
      "note": 56,
      "start": 64.4827,
      "duration": 0.0581,
      "velocity": 118,
      "chip": "ym2612"
    },
    {
      "channel": 4,
      "note": 34,
      "start": 64.5945,
      "duration": 0.0798,
      "velocity": 117,
      "chip": "ym2612"
    },
    {
      "channel": 5,
      "note": 46,
      "start": 64.694,
      "duration": 0.0969,
      "velocity": 117,
      "chip": "ym2612"
    },
    {
      "channel": 0,
      "note": 58,
      "start": 64.6967,
      "duration": 0.194,
      "velocity": 127,
      "chip": "ym2612"
    },
    {
      "channel": 2,
      "note": 81,
      "start": 64.6992,
      "duration": 0.1419,
      "velocity": 121,
      "chip": "ym2612"
    },
    {
      "channel": 5,
      "note": 46,
      "start": 64.8107,
      "duration": 0.0803,
      "velocity": 117,
      "chip": "ym2612"
    },
    {
      "channel": 4,
      "note": 34,
      "start": 64.9274,
      "duration": 0.0801,
      "velocity": 117,
      "chip": "ym2612"
    },
    {
      "channel": 0,
      "note": 46,
      "start": 64.93,
      "duration": 0.194,
      "velocity": 127,
      "chip": "ym2612"
    },
    {
      "channel": 1,
      "note": 56,
      "start": 64.9326,
      "duration": 0.0415,
      "velocity": 118,
      "chip": "ym2612"
    },
    {
      "channel": 3,
      "note": 45,
      "start": 64.9353,
      "duration": 0.0222,
      "velocity": 127,
      "chip": "ym2612"
    },
    {
      "channel": 4,
      "note": 34,
      "start": 65.0275,
      "duration": 0.0968,
      "velocity": 117,
      "chip": "ym2612"
    },
    {
      "channel": 5,
      "note": 46,
      "start": 65.144,
      "duration": 0.0802,
      "velocity": 117,
      "chip": "ym2612"
    },
    {
      "channel": 0,
      "note": 58,
      "start": 65.1467,
      "duration": 0.194,
      "velocity": 127,
      "chip": "ym2612"
    },
    {
      "channel": 2,
      "note": 81,
      "start": 65.1492,
      "duration": 0.1251,
      "velocity": 121,
      "chip": "ym2612"
    },
    {
      "channel": 5,
      "note": 46,
      "start": 65.2441,
      "duration": 0.0969,
      "velocity": 117,
      "chip": "ym2612"
    },
    {
      "channel": 4,
      "note": 34,
      "start": 65.3607,
      "duration": 0.0802,
      "velocity": 117,
      "chip": "ym2612"
    },
    {
      "channel": 0,
      "note": 46,
      "start": 65.3633,
      "duration": 0.1941,
      "velocity": 127,
      "chip": "ym2612"
    },
    {
      "channel": 1,
      "note": 56,
      "start": 65.366,
      "duration": 0.0414,
      "velocity": 118,
      "chip": "ym2612"
    },
    {
      "channel": 4,
      "note": 34,
      "start": 65.4607,
      "duration": 0.0969,
      "velocity": 117,
      "chip": "ym2612"
    },
    {
      "channel": 5,
      "note": 46,
      "start": 65.5774,
      "duration": 0.0803,
      "velocity": 117,
      "chip": "ym2612"
    },
    {
      "channel": 0,
      "note": 58,
      "start": 65.58,
      "duration": 0.194,
      "velocity": 127,
      "chip": "ym2612"
    },
    {
      "channel": 2,
      "note": 81,
      "start": 65.5825,
      "duration": 0.1251,
      "velocity": 121,
      "chip": "ym2612"
    },
    {
      "channel": 5,
      "note": 46,
      "start": 65.6773,
      "duration": 0.0971,
      "velocity": 117,
      "chip": "ym2612"
    },
    {
      "channel": 4,
      "note": 36,
      "start": 65.7941,
      "duration": 0.08,
      "velocity": 117,
      "chip": "ym2612"
    },
    {
      "channel": 0,
      "note": 48,
      "start": 65.7967,
      "duration": 0.194,
      "velocity": 127,
      "chip": "ym2612"
    },
    {
      "channel": 1,
      "note": 56,
      "start": 65.7994,
      "duration": 0.0415,
      "velocity": 118,
      "chip": "ym2612"
    },
    {
      "channel": 3,
      "note": 45,
      "start": 65.802,
      "duration": 0.0222,
      "velocity": 127,
      "chip": "ym2612"
    },
    {
      "channel": 4,
      "note": 36,
      "start": 65.8941,
      "duration": 0.0968,
      "velocity": 117,
      "chip": "ym2612"
    },
    {
      "channel": 5,
      "note": 48,
      "start": 66.0107,
      "duration": 0.0803,
      "velocity": 117,
      "chip": "ym2612"
    },
    {
      "channel": 0,
      "note": 60,
      "start": 66.0134,
      "duration": 0.194,
      "velocity": 127,
      "chip": "ym2612"
    },
    {
      "channel": 2,
      "note": 81,
      "start": 66.0159,
      "duration": 0.1418,
      "velocity": 121,
      "chip": "ym2612"
    },
    {
      "channel": 5,
      "note": 48,
      "start": 66.1111,
      "duration": 0.0966,
      "velocity": 117,
      "chip": "ym2612"
    },
    {
      "channel": 4,
      "note": 38,
      "start": 66.2275,
      "duration": 0.08,
      "velocity": 117,
      "chip": "ym2612"
    },
    {
      "channel": 0,
      "note": 50,
      "start": 66.23,
      "duration": 0.194,
      "velocity": 127,
      "chip": "ym2612"
    },
    {
      "channel": 1,
      "note": 56,
      "start": 66.2327,
      "duration": 0.0415,
      "velocity": 118,
      "chip": "ym2612"
    },
    {
      "channel": 4,
      "note": 38,
      "start": 66.3445,
      "duration": 0.0798,
      "velocity": 117,
      "chip": "ym2612"
    },
    {
      "channel": 5,
      "note": 50,
      "start": 66.444,
      "duration": 0.0968,
      "velocity": 117,
      "chip": "ym2612"
    },
    {
      "channel": 0,
      "note": 62,
      "start": 66.4467,
      "duration": 0.194,
      "velocity": 127,
      "chip": "ym2612"
    },
    {
      "channel": 2,
      "note": 81,
      "start": 66.4492,
      "duration": 0.1418,
      "velocity": 121,
      "chip": "ym2612"
    },
    {
      "channel": 5,
      "note": 50,
      "start": 66.5607,
      "duration": 0.0802,
      "velocity": 117,
      "chip": "ym2612"
    },
    {
      "channel": 4,
      "note": 38,
      "start": 66.6607,
      "duration": 0.0968,
      "velocity": 117,
      "chip": "ym2612"
    },
    {
      "channel": 0,
      "note": 50,
      "start": 66.6633,
      "duration": 0.194,
      "velocity": 127,
      "chip": "ym2612"
    },
    {
      "channel": 1,
      "note": 56,
      "start": 66.666,
      "duration": 0.0415,
      "velocity": 118,
      "chip": "ym2612"
    },
    {
      "channel": 3,
      "note": 45,
      "start": 66.6686,
      "duration": 0.0222,
      "velocity": 127,
      "chip": "ym2612"
    },
    {
      "channel": 4,
      "note": 38,
      "start": 66.7774,
      "duration": 0.0802,
      "velocity": 117,
      "chip": "ym2612"
    },
    {
      "channel": 5,
      "note": 50,
      "start": 66.8774,
      "duration": 0.0969,
      "velocity": 117,
      "chip": "ym2612"
    },
    {
      "channel": 0,
      "note": 62,
      "start": 66.88,
      "duration": 0.194,
      "velocity": 127,
      "chip": "ym2612"
    },
    {
      "channel": 2,
      "note": 81,
      "start": 66.8825,
      "duration": 0.1419,
      "velocity": 121,
      "chip": "ym2612"
    },
    {
      "channel": 5,
      "note": 50,
      "start": 66.9941,
      "duration": 0.0802,
      "velocity": 117,
      "chip": "ym2612"
    },
    {
      "channel": 4,
      "note": 38,
      "start": 67.0941,
      "duration": 0.0968,
      "velocity": 117,
      "chip": "ym2612"
    },
    {
      "channel": 0,
      "note": 50,
      "start": 67.0966,
      "duration": 0.194,
      "velocity": 127,
      "chip": "ym2612"
    },
    {
      "channel": 1,
      "note": 56,
      "start": 67.0993,
      "duration": 0.0582,
      "velocity": 118,
      "chip": "ym2612"
    },
    {
      "channel": 4,
      "note": 38,
      "start": 67.2108,
      "duration": 0.0802,
      "velocity": 117,
      "chip": "ym2612"
    },
    {
      "channel": 5,
      "note": 50,
      "start": 67.3107,
      "duration": 0.0968,
      "velocity": 117,
      "chip": "ym2612"
    },
    {
      "channel": 0,
      "note": 62,
      "start": 67.3134,
      "duration": 0.194,
      "velocity": 127,
      "chip": "ym2612"
    },
    {
      "channel": 2,
      "note": 81,
      "start": 67.3159,
      "duration": 0.1417,
      "velocity": 121,
      "chip": "ym2612"
    },
    {
      "channel": 5,
      "note": 50,
      "start": 67.4274,
      "duration": 0.0803,
      "velocity": 117,
      "chip": "ym2612"
    },
    {
      "channel": 4,
      "note": 38,
      "start": 67.5275,
      "duration": 0.0968,
      "velocity": 117,
      "chip": "ym2612"
    },
    {
      "channel": 0,
      "note": 50,
      "start": 67.53,
      "duration": 0.194,
      "velocity": 127,
      "chip": "ym2612"
    },
    {
      "channel": 1,
      "note": 56,
      "start": 67.5327,
      "duration": 0.0581,
      "velocity": 118,
      "chip": "ym2612"
    },
    {
      "channel": 3,
      "note": 45,
      "start": 67.5356,
      "duration": 0.0385,
      "velocity": 127,
      "chip": "ym2612"
    },
    {
      "channel": 4,
      "note": 38,
      "start": 67.6442,
      "duration": 0.08,
      "velocity": 117,
      "chip": "ym2612"
    },
    {
      "channel": 5,
      "note": 50,
      "start": 67.744,
      "duration": 0.0969,
      "velocity": 117,
      "chip": "ym2612"
    },
    {
      "channel": 0,
      "note": 62,
      "start": 67.7473,
      "duration": 0.1933,
      "velocity": 127,
      "chip": "ym2612"
    },
    {
      "channel": 2,
      "note": 81,
      "start": 67.7505,
      "duration": 0.1405,
      "velocity": 121,
      "chip": "ym2612"
    },
    {
      "channel": 5,
      "note": 50,
      "start": 67.8613,
      "duration": 0.0797,
      "velocity": 117,
      "chip": "ym2612"
    },
    {
      "channel": 1,
      "note": 56,
      "start": 67.9779,
      "duration": 0.0463,
      "velocity": 118,
      "chip": "ym2612"
    },
    {
      "channel": 1,
      "note": 56,
      "start": 68.4107,
      "duration": 0.0468,
      "velocity": 118,
      "chip": "ym2612"
    },
    {
      "channel": 1,
      "note": 56,
      "start": 68.8443,
      "duration": 0.0465,
      "velocity": 118,
      "chip": "ym2612"
    },
    {
      "channel": 3,
      "note": 45,
      "start": 68.8471,
      "duration": 0.027,
      "velocity": 127,
      "chip": "ym2612"
    },
    {
      "channel": 3,
      "note": 45,
      "start": 68.9443,
      "duration": 0.0464,
      "velocity": 127,
      "chip": "ym2612"
    },
    {
      "channel": 3,
      "note": 45,
      "start": 69.0608,
      "duration": 0.03,
      "velocity": 127,
      "chip": "ym2612"
    },
    {
      "channel": 3,
      "note": 45,
      "start": 69.1609,
      "duration": 0.0467,
      "velocity": 127,
      "chip": "ym2612"
    },
    {
      "channel": 3,
      "note": 45,
      "start": 69.2776,
      "duration": 0.0299,
      "velocity": 127,
      "chip": "ym2612"
    },
    {
      "channel": 3,
      "note": 45,
      "start": 69.3941,
      "duration": 0.03,
      "velocity": 127,
      "chip": "ym2612"
    },
    {
      "channel": 3,
      "note": 45,
      "start": 69.4941,
      "duration": 0.03,
      "velocity": 127,
      "chip": "ym2612"
    },
    {
      "channel": 3,
      "note": 45,
      "start": 69.6113,
      "duration": 0.0295,
      "velocity": 127,
      "chip": "ym2612"
    }
  ]
}