{
  "track_name": "08 - Mission 6",
  "duration_sec": 129.633,
  "sample_rate": 44100,
  "note_count": 2194,
  "unique_pitches": 41,
  "pitch_range": 55,
  "avg_note_duration": 0.2023,
  "reconstruction_stats": {
    "notes_reconstructed": 2194,
    "keyon_events": 2194,
    "keyoff_events": 2158,
    "orphan_keyons": 3,
    "unique_pitches": 41,
    "pitch_range": 55,
    "avg_duration_sec": 0.2023
  },
  "metadata": {
    "source": "D\\Darxide\\08 - Mission 6.vgz"
  },
  "notes": [
    {
      "channel": 0,
      "note": 68,
      "start": 0.0,
      "duration": 0.0,
      "velocity": 113,
      "chip": "ym2612"
    },
    {
      "channel": 0,
      "note": 58,
      "start": 0.0,
      "duration": 0.0,
      "velocity": 1,
      "chip": "ym2612"
    },
    {
      "channel": 1,
      "note": 60,
      "start": 0.0,
      "duration": 0.0,
      "velocity": 113,
      "chip": "ym2612"
    },
    {
      "channel": 1,
      "note": 68,
      "start": 0.0,
      "duration": 0.0,
      "velocity": 1,
      "chip": "ym2612"
    },
    {
      "channel": 4,
      "note": 44,
      "start": 0.0,
      "duration": 0.0,
      "velocity": 1,
      "chip": "ym2612"
    },
    {
      "channel": 0,
      "note": 33,
      "start": 0.0005,
      "duration": 1.7168,
      "velocity": 127,
      "chip": "ym2612"
    },
    {
      "channel": 1,
      "note": 45,
      "start": 0.001,
      "duration": 1.7164,
      "velocity": 120,
      "chip": "ym2612"
    },
    {
      "channel": 0,
      "note": 33,
      "start": 1.7174,
      "duration": 1.2915,
      "velocity": 127,
      "chip": "ym2612"
    },
    {
      "channel": 1,
      "note": 45,
      "start": 1.7174,
      "duration": 1.2915,
      "velocity": 120,
      "chip": "ym2612"
    },
    {
      "channel": 3,
      "note": 69,
      "start": 2.4459,
      "duration": 0.0987,
      "velocity": 82,
      "chip": "ym2612"
    },
    {
      "channel": 3,
      "note": 76,
      "start": 2.5446,
      "duration": 0.08,
      "velocity": 82,
      "chip": "ym2612"
    },
    {
      "channel": 3,
      "note": 81,
      "start": 2.6247,
      "duration": 0.001,
      "velocity": 82,
      "chip": "ym2612"
    },
    {
      "channel": 3,
      "note": 88,
      "start": 2.6258,
      "duration": 0.0762,
      "velocity": 82,
      "chip": "ym2612"
    },
    {
      "channel": 3,
      "note": 81,
      "start": 2.7021,
      "duration": 0.0009,
      "velocity": 82,
      "chip": "ym2612"
    },
    {
      "channel": 3,
      "note": 76,
      "start": 2.703,
      "duration": 0.0562,
      "velocity": 82,
      "chip": "ym2612"
    },
    {
      "channel": 3,
      "note": 74,
      "start": 2.7593,
      "duration": 0.0999,
      "velocity": 82,
      "chip": "ym2612"
    },
    {
      "channel": 3,
      "note": 76,
      "start": 2.8593,
      "duration": 0.1,
      "velocity": 82,
      "chip": "ym2612"
    },
    {
      "channel": 3,
      "note": 81,
      "start": 2.9594,
      "duration": 0.0008,
      "velocity": 82,
      "chip": "ym2612"
    },
    {
      "channel": 3,
      "note": 76,
      "start": 2.9603,
      "duration": 0.0085,
      "velocity": 82,
      "chip": "ym2612"
    },
    {
      "channel": 3,
      "note": 74,
      "start": 2.9689,
      "duration": 0.0999,
      "velocity": 82,
      "chip": "ym2612"
    },
    {
      "channel": 0,
      "note": 33,
      "start": 3.0089,
      "duration": 0.9134,
      "velocity": 127,
      "chip": "ym2612"
    },
    {
      "channel": 1,
      "note": 45,
      "start": 3.0089,
      "duration": 0.9517,
      "velocity": 120,
      "chip": "ym2612"
    },
    {
      "channel": 3,
      "note": 76,
      "start": 3.0689,
      "duration": 0.0799,
      "velocity": 82,
      "chip": "ym2612"
    },
    {
      "channel": 3,
      "note": 72,
      "start": 3.1489,
      "duration": 0.0999,
      "velocity": 82,
      "chip": "ym2612"
    },
    {
      "channel": 3,
      "note": 76,
      "start": 3.2489,
      "duration": 0.1,
      "velocity": 82,
      "chip": "ym2612"
    },
    {
      "channel": 3,
      "note": 71,
      "start": 3.3489,
      "duration": 0.0008,
      "velocity": 82,
      "chip": "ym2612"
    },
    {
      "channel": 3,
      "note": 76,
      "start": 3.3498,
      "duration": 0.0564,
      "velocity": 82,
      "chip": "ym2612"
    },
    {
      "channel": 3,
      "note": 69,
      "start": 3.4062,
      "duration": 0.0999,
      "velocity": 82,
      "chip": "ym2612"
    },
    {
      "channel": 3,
      "note": 76,
      "start": 3.5062,
      "duration": 0.1,
      "velocity": 82,
      "chip": "ym2612"
    },
    {
      "channel": 3,
      "note": 81,
      "start": 3.6063,
      "duration": 0.0009,
      "velocity": 82,
      "chip": "ym2612"
    },
    {
      "channel": 3,
      "note": 88,
      "start": 3.6072,
      "duration": 0.0563,
      "velocity": 82,
      "chip": "ym2612"
    },
    {
      "channel": 3,
      "note": 81,
      "start": 3.6636,
      "duration": 0.001,
      "velocity": 82,
      "chip": "ym2612"
    },
    {
      "channel": 3,
      "note": 76,
      "start": 3.6647,
      "duration": 0.0562,
      "velocity": 82,
      "chip": "ym2612"
    },
    {
      "channel": 3,
      "note": 74,
      "start": 3.721,
      "duration": 0.0999,
      "velocity": 82,
      "chip": "ym2612"
    },
    {
      "channel": 3,
      "note": 76,
      "start": 3.821,
      "duration": 0.1,
      "velocity": 82,
      "chip": "ym2612"
    },
    {
      "channel": 3,
      "note": 81,
      "start": 3.9211,
      "duration": 0.0009,
      "velocity": 82,
      "chip": "ym2612"
    },
    {
      "channel": 3,
      "note": 76,
      "start": 3.922,
      "duration": 0.0076,
      "velocity": 82,
      "chip": "ym2612"
    },
    {
      "channel": 3,
      "note": 74,
      "start": 3.9297,
      "duration": 0.0009,
      "velocity": 82,
      "chip": "ym2612"
    },
    {
      "channel": 3,
      "note": 76,
      "start": 3.9306,
      "duration": 0.0278,
      "velocity": 82,
      "chip": "ym2612"
    },
    {
      "channel": 3,
      "note": 72,
      "start": 3.9585,
      "duration": 0.0012,
      "velocity": 82,
      "chip": "ym2612"
    },
    {
      "channel": 3,
      "note": 76,
      "start": 3.9598,
      "duration": 0.0009,
      "velocity": 82,
      "chip": "ym2612"
    },
    {
      "channel": 3,
      "note": 71,
      "start": 3.9607,
      "duration": 0.0008,
      "velocity": 82,
      "chip": "ym2612"
    },
    {
      "channel": 3,
      "note": 76,
      "start": 3.9616,
      "duration": 0.0032,
      "velocity": 82,
      "chip": "ym2612"
    },
    {
      "channel": 0,
      "note": 45,
      "start": 3.9635,
      "duration": 0.9211,
      "velocity": 127,
      "chip": "ym2612"
    },
    {
      "channel": 3,
      "note": 69,
      "start": 3.9649,
      "duration": 0.0016,
      "velocity": 82,
      "chip": "ym2612"
    },
    {
      "channel": 4,
      "note": 45,
      "start": 3.9654,
      "duration": 0.0708,
      "velocity": 105,
      "chip": "ym2612"
    },
    {
      "channel": 3,
      "note": 64,
      "start": 3.9666,
      "duration": 0.0695,
      "velocity": 82,
      "chip": "ym2612"
    },
    {
      "channel": 3,
      "note": 57,
      "start": 4.0362,
      "duration": 0.0798,
      "velocity": 82,
      "chip": "ym2612"
    },
    {
      "channel": 4,
      "note": 45,
      "start": 4.0363,
      "duration": 0.1799,
      "velocity": 105,
      "chip": "ym2612"
    },
    {
      "channel": 3,
      "note": 52,
      "start": 4.1161,
      "duration": 0.1001,
      "velocity": 82,
      "chip": "ym2612"
    },
    {
      "channel": 3,
      "note": 57,
      "start": 4.2162,
      "duration": 0.0011,
      "velocity": 82,
      "chip": "ym2612"
    },
    {
      "channel": 4,
      "note": 45,
      "start": 4.2163,
      "duration": 0.0286,
      "velocity": 105,
      "chip": "ym2612"
    },
    {
      "channel": 3,
      "note": 64,
      "start": 4.2174,
      "duration": 0.0274,
      "velocity": 82,
      "chip": "ym2612"
    },
    {
      "channel": 3,
      "note": 69,
      "start": 4.2449,
      "duration": 0.0799,
      "velocity": 82,
      "chip": "ym2612"
    },
    {
      "channel": 3,
      "note": 64,
      "start": 4.3248,
      "duration": 0.1006,
      "velocity": 82,
      "chip": "ym2612"
    },
    {
      "channel": 1,
      "note": 64,
      "start": 4.4254,
      "duration": 0.0571,
      "velocity": 100,
      "chip": "ym2612"
    },
    {
      "channel": 2,
      "note": 60,
      "start": 4.4254,
      "duration": 0.0571,
      "velocity": 100,
      "chip": "ym2612"
    },
    {
      "channel": 3,
      "note": 69,
      "start": 4.4255,
      "duration": 0.0014,
      "velocity": 82,
      "chip": "ym2612"
    },
    {
      "channel": 4,
      "note": 45,
      "start": 4.4256,
      "duration": 0.057,
      "velocity": 105,
      "chip": "ym2612"
    },
    {
      "channel": 3,
      "note": 64,
      "start": 4.427,
      "duration": 0.0555,
      "velocity": 82,
      "chip": "ym2612"
    },
    {
      "channel": 3,
      "note": 57,
      "start": 4.4826,
      "duration": 0.0012,
      "velocity": 82,
      "chip": "ym2612"
    },
    {
      "channel": 4,
      "note": 45,
      "start": 4.4827,
      "duration": 0.0777,
      "velocity": 105,
      "chip": "ym2612"
    },
    {
      "channel": 3,
      "note": 52,
      "start": 4.4838,
      "duration": 0.0765,
      "velocity": 82,
      "chip": "ym2612"
    },
    {
      "channel": 1,
      "note": 65,
      "start": 4.5602,
      "duration": 0.0084,
      "velocity": 100,
      "chip": "ym2612"
    },
    {
      "channel": 2,
      "note": 62,
      "start": 4.5602,
      "duration": 0.0084,
      "velocity": 100,
      "chip": "ym2612"
    },
    {
      "channel": 3,
      "note": 57,
      "start": 4.5603,
      "duration": 0.0012,
      "velocity": 82,
      "chip": "ym2612"
    },
    {
      "channel": 4,
      "note": 43,
      "start": 4.5605,
      "duration": 0.0083,
      "velocity": 105,
      "chip": "ym2612"
    },
    {
      "channel": 3,
      "note": 64,
      "start": 4.5616,
      "duration": 0.0071,
      "velocity": 82,
      "chip": "ym2612"
    },
    {
      "channel": 3,
      "note": 69,
      "start": 4.5687,
      "duration": 0.0012,
      "velocity": 82,
      "chip": "ym2612"
    },
    {
      "channel": 4,
      "note": 45,
      "start": 4.5688,
      "duration": 0.0572,
      "velocity": 105,
      "chip": "ym2612"
    },
    {
      "channel": 3,
      "note": 64,
      "start": 4.5699,
      "duration": 0.0559,
      "velocity": 82,
      "chip": "ym2612"
    },
    {
      "channel": 3,
      "note": 69,
      "start": 4.6259,
      "duration": 0.0999,
      "velocity": 82,
      "chip": "ym2612"
    },
    {
      "channel": 3,
      "note": 64,
      "start": 4.7259,
      "duration": 0.1001,
      "velocity": 82,
      "chip": "ym2612"
    },
    {
      "channel": 3,
      "note": 57,
      "start": 4.826,
      "duration": 0.0012,
      "velocity": 82,
      "chip": "ym2612"
    },
    {
      "channel": 4,
      "note": 45,
      "start": 4.8262,
      "duration": 0.0574,
      "velocity": 105,
      "chip": "ym2612"
    },
    {
      "channel": 3,
      "note": 52,
      "start": 4.8273,
      "duration": 0.0562,
      "velocity": 82,
      "chip": "ym2612"
    },
    {
      "channel": 3,
      "note": 57,
      "start": 4.8835,
      "duration": 0.001,
      "velocity": 82,
      "chip": "ym2612"
    },
    {
      "channel": 3,
      "note": 64,
      "start": 4.8846,
      "duration": 0.0281,
      "velocity": 82,
      "chip": "ym2612"
    },
    {
      "channel": 0,
      "note": 45,
      "start": 4.8847,
      "duration": 0.9525,
      "velocity": 127,
      "chip": "ym2612"
    },
    {
      "channel": 1,
      "note": 62,
      "start": 4.9126,
      "duration": 0.057,
      "velocity": 100,
      "chip": "ym2612"
    },
    {
      "channel": 2,
      "note": 59,
      "start": 4.9126,
      "duration": 0.057,
      "velocity": 100,
      "chip": "ym2612"
    },
    {
      "channel": 3,
      "note": 69,
      "start": 4.9127,
      "duration": 0.0011,
      "velocity": 82,
      "chip": "ym2612"
    },
    {
      "channel": 4,
      "note": 45,
      "start": 4.9128,
      "duration": 0.0568,
      "velocity": 105,
      "chip": "ym2612"
    },
    {
      "channel": 3,
      "note": 64,
      "start": 4.9139,
      "duration": 0.0557,
      "velocity": 82,
      "chip": "ym2612"
    },
    {
      "channel": 3,
      "note": 69,
      "start": 4.9697,
      "duration": 0.0998,
      "velocity": 82,
      "chip": "ym2612"
    },
    {
      "channel": 3,
      "note": 64,
      "start": 5.0695,
      "duration": 0.0804,
      "velocity": 82,
      "chip": "ym2612"
    },
    {
      "channel": 1,
      "note": 64,
      "start": 5.1499,
      "duration": 0.0771,
      "velocity": 100,
      "chip": "ym2612"
    },
    {
      "channel": 2,
      "note": 60,
      "start": 5.1499,
      "duration": 0.077,
      "velocity": 100,
      "chip": "ym2612"
    },
    {
      "channel": 3,
      "note": 57,
      "start": 5.15,
      "duration": 0.0012,
      "velocity": 82,
      "chip": "ym2612"
    },
    {
      "channel": 4,
      "note": 45,
      "start": 5.15,
      "duration": 0.077,
      "velocity": 105,
      "chip": "ym2612"
    },
    {
      "channel": 3,
      "note": 52,
      "start": 5.1513,
      "duration": 0.0757,
      "velocity": 82,
      "chip": "ym2612"
    },
    {
      "channel": 3,
      "note": 57,
      "start": 5.2271,
      "duration": 0.001,
      "velocity": 82,
      "chip": "ym2612"
    },
    {
      "channel": 4,
      "note": 43,
      "start": 5.2271,
      "duration": 0.0085,
      "velocity": 105,
      "chip": "ym2612"
    },
    {
      "channel": 3,
      "note": 64,
      "start": 5.2282,
      "duration": 0.0073,
      "velocity": 82,
      "chip": "ym2612"
    },
    {
      "channel": 3,
      "note": 69,
      "start": 5.2355,
      "duration": 0.0012,
      "velocity": 82,
      "chip": "ym2612"
    },
    {
      "channel": 4,
      "note": 40,
      "start": 5.2357,
      "duration": 0.0774,
      "velocity": 105,
      "chip": "ym2612"
    },
    {
      "channel": 3,
      "note": 76,
      "start": 5.2368,
      "duration": 0.0762,
      "velocity": 82,
      "chip": "ym2612"
    },
    {
      "channel": 3,
      "note": 69,
      "start": 5.3131,
      "duration": 0.001,
      "velocity": 82,
      "chip": "ym2612"
    },
    {
      "channel": 4,
      "note": 45,
      "start": 5.3132,
      "duration": 0.0573,
      "velocity": 105,
      "chip": "ym2612"
    },
    {
      "channel": 3,
      "note": 64,
      "start": 5.3141,
      "duration": 0.0563,
      "velocity": 82,
      "chip": "ym2612"
    },
    {
      "channel": 3,
      "note": 57,
      "start": 5.3704,
      "duration": 0.0999,
      "velocity": 82,
      "chip": "ym2612"
    },
    {
      "channel": 3,
      "note": 52,
      "start": 5.4704,
      "duration": 0.0801,
      "velocity": 82,
      "chip": "ym2612"
    },
    {
      "channel": 3,
      "note": 57,
      "start": 5.5506,
      "duration": 0.0011,
      "velocity": 82,
      "chip": "ym2612"
    },
    {
      "channel": 4,
      "note": 45,
      "start": 5.5507,
      "duration": 0.0284,
      "velocity": 105,
      "chip": "ym2612"
    },
    {
      "channel": 3,
      "note": 64,
      "start": 5.5518,
      "duration": 0.0273,
      "velocity": 82,
      "chip": "ym2612"
    },
    {
      "channel": 3,
      "note": 69,
      "start": 5.5792,
      "duration": 0.0999,
      "velocity": 82,
      "chip": "ym2612"
    },
    {
      "channel": 3,
      "note": 76,
      "start": 5.6791,
      "duration": 0.0804,
      "velocity": 82,
      "chip": "ym2612"
    },
    {
      "channel": 1,
      "note": 64,
      "start": 5.7595,
      "duration": 0.0771,
      "velocity": 100,
      "chip": "ym2612"
    },
    {
      "channel": 2,
      "note": 60,
      "start": 5.7595,
      "duration": 0.0771,
      "velocity": 100,
      "chip": "ym2612"
    },
    {
      "channel": 3,
      "note": 69,
      "start": 5.7596,
      "duration": 0.0013,
      "velocity": 82,
      "chip": "ym2612"
    },
    {
      "channel": 4,
      "note": 45,
      "start": 5.7597,
      "duration": 0.0771,
      "velocity": 105,
      "chip": "ym2612"
    },
    {
      "channel": 3,
      "note": 64,
      "start": 5.761,
      "duration": 0.0757,
      "velocity": 82,
      "chip": "ym2612"
    },
    {
      "channel": 3,
      "note": 57,
      "start": 5.8368,
      "duration": 0.001,
      "velocity": 82,
      "chip": "ym2612"
    },
    {
      "channel": 4,
      "note": 45,
      "start": 5.8368,
      "duration": 0.0578,
      "velocity": 105,
      "chip": "ym2612"
    },
    {
      "channel": 0,
      "note": 45,
      "start": 5.8371,
      "duration": 0.4665,
      "velocity": 127,
      "chip": "ym2612"
    },
    {
      "channel": 3,
      "note": 52,
      "start": 5.8378,
      "duration": 0.0568,
      "velocity": 82,
      "chip": "ym2612"
    },
    {
      "channel": 1,
      "note": 65,
      "start": 5.8944,
      "duration": 0.0084,
      "velocity": 100,
      "chip": "ym2612"
    },
    {
      "channel": 2,
      "note": 62,
      "start": 5.8945,
      "duration": 0.0083,
      "velocity": 100,
      "chip": "ym2612"
    },
    {
      "channel": 3,
      "note": 57,
      "start": 5.8946,
      "duration": 0.0013,
      "velocity": 82,
      "chip": "ym2612"
    },
    {
      "channel": 4,
      "note": 43,
      "start": 5.8947,
      "duration": 0.0083,
      "velocity": 105,
      "chip": "ym2612"
    },
    {
      "channel": 3,
      "note": 64,
      "start": 5.896,
      "duration": 0.0069,
      "velocity": 82,
      "chip": "ym2612"
    },
    {
      "channel": 3,
      "note": 69,
      "start": 5.9029,
      "duration": 0.001,
      "velocity": 82,
      "chip": "ym2612"
    },
    {
      "channel": 4,
      "note": 45,
      "start": 5.903,
      "duration": 0.077,
      "velocity": 105,
      "chip": "ym2612"
    },
    {
      "channel": 3,
      "note": 76,
      "start": 5.904,
      "duration": 0.0759,
      "velocity": 82,
      "chip": "ym2612"
    },
    {
      "channel": 3,
      "note": 81,
      "start": 5.98,
      "duration": 0.0999,
      "velocity": 82,
      "chip": "ym2612"
    },
    {
      "channel": 3,
      "note": 76,
      "start": 6.0799,
      "duration": 0.0801,
      "velocity": 82,
      "chip": "ym2612"
    },
    {
      "channel": 3,
      "note": 69,
      "start": 6.1601,
      "duration": 0.0011,
      "velocity": 82,
      "chip": "ym2612"
    },
    {
      "channel": 4,
      "note": 45,
      "start": 6.1602,
      "duration": 0.0773,
      "velocity": 105,
      "chip": "ym2612"
    },
    {
      "channel": 3,
      "note": 64,
      "start": 6.1612,
      "duration": 0.0762,
      "velocity": 82,
      "chip": "ym2612"
    },
    {
      "channel": 3,
      "note": 52,
      "start": 6.2375,
      "duration": 0.0008,
      "velocity": 82,
      "chip": "ym2612"
    },
    {
      "channel": 3,
      "note": 57,
      "start": 6.2384,
      "duration": 0.0083,
      "velocity": 82,
      "chip": "ym2612"
    },
    {
      "channel": 1,
      "note": 62,
      "start": 6.2466,
      "duration": 0.0571,
      "velocity": 100,
      "chip": "ym2612"
    },
    {
      "channel": 2,
      "note": 59,
      "start": 6.2466,
      "duration": 0.0571,
      "velocity": 100,
      "chip": "ym2612"
    },
    {
      "channel": 3,
      "note": 64,
      "start": 6.2467,
      "duration": 0.0014,
      "velocity": 82,
      "chip": "ym2612"
    },
    {
      "channel": 4,
      "note": 45,
      "start": 6.2468,
      "duration": 0.0571,
      "velocity": 105,
      "chip": "ym2612"
    },
    {
      "channel": 3,
      "note": 69,
      "start": 6.2481,
      "duration": 0.0556,
      "velocity": 82,
      "chip": "ym2612"
    },
    {
      "channel": 0,
      "note": 48,
      "start": 6.3037,
      "duration": 0.3435,
      "velocity": 127,
      "chip": "ym2612"
    },
    {
      "channel": 3,
      "note": 76,
      "start": 6.3038,
      "duration": 0.0996,
      "velocity": 82,
      "chip": "ym2612"
    },
    {
      "channel": 3,
      "note": 69,
      "start": 6.4035,
      "duration": 0.1005,
      "velocity": 82,
      "chip": "ym2612"
    },
    {
      "channel": 1,
      "note": 64,
      "start": 6.5039,
      "duration": 0.0572,
      "velocity": 100,
      "chip": "ym2612"
    },
    {
      "channel": 2,
      "note": 60,
      "start": 6.5039,
      "duration": 0.0571,
      "velocity": 100,
      "chip": "ym2612"
    },
    {
      "channel": 3,
      "note": 64,
      "start": 6.5041,
      "duration": 0.0011,
      "velocity": 82,
      "chip": "ym2612"
    },
    {
      "channel": 4,
      "note": 45,
      "start": 6.5041,
      "duration": 0.0571,
      "velocity": 105,
      "chip": "ym2612"
    },
    {
      "channel": 3,
      "note": 57,
      "start": 6.5052,
      "duration": 0.0559,
      "velocity": 82,
      "chip": "ym2612"
    },
    {
      "channel": 3,
      "note": 52,
      "start": 6.5612,
      "duration": 0.001,
      "velocity": 82,
      "chip": "ym2612"
    },
    {
      "channel": 4,
      "note": 43,
      "start": 6.5612,
      "duration": 0.0284,
      "velocity": 105,
      "chip": "ym2612"
    },
    {
      "channel": 3,
      "note": 57,
      "start": 6.5623,
      "duration": 0.0273,
      "velocity": 82,
      "chip": "ym2612"
    },
    {
      "channel": 3,
      "note": 64,
      "start": 6.5897,
      "duration": 0.001,
      "velocity": 82,
      "chip": "ym2612"
    },
    {
      "channel": 4,
      "note": 40,
      "start": 6.5898,
      "duration": 0.0576,
      "velocity": 105,
      "chip": "ym2612"
    },
    {
      "channel": 3,
      "note": 69,
      "start": 6.5907,
      "duration": 0.0565,
      "velocity": 82,
      "chip": "ym2612"
    },
    {
      "channel": 0,
      "note": 53,
      "start": 6.6472,
      "duration": 0.9251,
      "velocity": 127,
      "chip": "ym2612"
    },
    {
      "channel": 3,
      "note": 72,
      "start": 6.6473,
      "duration": 0.0011,
      "velocity": 82,
      "chip": "ym2612"
    },
    {
      "channel": 4,
      "note": 41,
      "start": 6.6474,
      "duration": 0.0572,
      "velocity": 105,
      "chip": "ym2612"
    },
    {
      "channel": 3,
      "note": 65,
      "start": 6.6484,
      "duration": 0.056,
      "velocity": 82,
      "chip": "ym2612"
    },
    {
      "channel": 3,
      "note": 60,
      "start": 6.7045,
      "duration": 0.0999,
      "velocity": 82,
      "chip": "ym2612"
    },
    {
      "channel": 3,
      "note": 53,
      "start": 6.8045,
      "duration": 0.1001,
      "velocity": 82,
      "chip": "ym2612"
    },
    {
      "channel": 3,
      "note": 60,
      "start": 6.9047,
      "duration": 0.0009,
      "velocity": 82,
      "chip": "ym2612"
    },
    {
      "channel": 4,
      "note": 41,
      "start": 6.9048,
      "duration": 0.0084,
      "velocity": 105,
      "chip": "ym2612"
    },
    {
      "channel": 3,
      "note": 65,
      "start": 6.9056,
      "duration": 0.0075,
      "velocity": 82,
      "chip": "ym2612"
    },
    {
      "channel": 3,
      "note": 72,
      "start": 6.9132,
      "duration": 0.0999,
      "velocity": 82,
      "chip": "ym2612"
    },
    {
      "channel": 3,
      "note": 65,
      "start": 7.0131,
      "duration": 0.1005,
      "velocity": 82,
      "chip": "ym2612"
    },
    {
      "channel": 1,
      "note": 64,
      "start": 7.1135,
      "duration": 0.0572,
      "velocity": 100,
      "chip": "ym2612"
    },
    {
      "channel": 2,
      "note": 60,
      "start": 7.1135,
      "duration": 0.0571,
      "velocity": 100,
      "chip": "ym2612"
    },
    {
      "channel": 3,
      "note": 72,
      "start": 7.1137,
      "duration": 0.0011,
      "velocity": 82,
      "chip": "ym2612"
    },
    {
      "channel": 4,
      "note": 41,
      "start": 7.1137,
      "duration": 0.0571,
      "velocity": 105,
      "chip": "ym2612"
    },
    {
      "channel": 3,
      "note": 65,
      "start": 7.1148,
      "duration": 0.0559,
      "velocity": 82,
      "chip": "ym2612"
    },
    {
      "channel": 3,
      "note": 60,
      "start": 7.1707,
      "duration": 0.0012,
      "velocity": 82,
      "chip": "ym2612"
    },
    {
      "channel": 4,
      "note": 41,
      "start": 7.1709,
      "duration": 0.0576,
      "velocity": 105,
      "chip": "ym2612"
    },
    {
      "channel": 3,
      "note": 53,
      "start": 7.172,
      "duration": 0.0564,
      "velocity": 82,
      "chip": "ym2612"
    },
    {
      "channel": 1,
      "note": 65,
      "start": 7.2283,
      "duration": 0.0283,
      "velocity": 100,
      "chip": "ym2612"
    },
    {
      "channel": 2,
      "note": 62,
      "start": 7.2284,
      "duration": 0.0283,
      "velocity": 100,
      "chip": "ym2612"
    },
    {
      "channel": 3,
      "note": 60,
      "start": 7.2285,
      "duration": 0.0012,
      "velocity": 82,
      "chip": "ym2612"
    },
    {
      "channel": 4,
      "note": 40,
      "start": 7.2285,
      "duration": 0.0283,
      "velocity": 105,
      "chip": "ym2612"
    },
    {
      "channel": 3,
      "note": 65,
      "start": 7.2298,
      "duration": 0.0269,
      "velocity": 82,
      "chip": "ym2612"
    },
    {
      "channel": 3,
      "note": 72,
      "start": 7.2568,
      "duration": 0.0009,
      "velocity": 82,
      "chip": "ym2612"
    },
    {
      "channel": 4,
      "note": 41,
      "start": 7.2568,
      "duration": 0.057,
      "velocity": 105,
      "chip": "ym2612"
    },
    {
      "channel": 3,
      "note": 65,
      "start": 7.2577,
      "duration": 0.0561,
      "velocity": 82,
      "chip": "ym2612"
    },
    {
      "channel": 3,
      "note": 72,
      "start": 7.3139,
      "duration": 0.0999,
      "velocity": 82,
      "chip": "ym2612"
    },
    {
      "channel": 3,
      "note": 65,
      "start": 7.4138,
      "duration": 0.1001,
      "velocity": 82,
      "chip": "ym2612"
    },
    {
      "channel": 3,
      "note": 60,
      "start": 7.514,
      "duration": 0.0009,
      "velocity": 82,
      "chip": "ym2612"
    },
    {
      "channel": 4,
      "note": 41,
      "start": 7.514,
      "duration": 0.0573,
      "velocity": 105,
      "chip": "ym2612"
    },
    {
      "channel": 3,
      "note": 53,
      "start": 7.5149,
      "duration": 0.0563,
      "velocity": 82,
      "chip": "ym2612"
    },
    {
      "channel": 3,
      "note": 60,
      "start": 7.5713,
      "duration": 0.001,
      "velocity": 82,
      "chip": "ym2612"
    },
    {
      "channel": 0,
      "note": 53,
      "start": 7.5724,
      "duration": 0.9324,
      "velocity": 127,
      "chip": "ym2612"
    },
    {
      "channel": 3,
      "note": 65,
      "start": 7.5724,
      "duration": 0.0081,
      "velocity": 82,
      "chip": "ym2612"
    },
    {
      "channel": 1,
      "note": 64,
      "start": 7.5805,
      "duration": 0.2573,
      "velocity": 100,
      "chip": "ym2612"
    },
    {
      "channel": 2,
      "note": 60,
      "start": 7.5806,
      "duration": 0.2573,
      "velocity": 100,
      "chip": "ym2612"
    },
    {
      "channel": 3,
      "note": 72,
      "start": 7.5806,
      "duration": 0.0014,
      "velocity": 82,
      "chip": "ym2612"
    },
    {
      "channel": 4,
      "note": 41,
      "start": 7.5808,
      "duration": 0.0769,
      "velocity": 105,
      "chip": "ym2612"
    },
    {
      "channel": 3,
      "note": 65,
      "start": 7.5821,
      "duration": 0.0755,
      "velocity": 82,
      "chip": "ym2612"
    },
    {
      "channel": 3,
      "note": 72,
      "start": 7.6577,
      "duration": 0.0799,
      "velocity": 82,
      "chip": "ym2612"
    },
    {
      "channel": 3,
      "note": 65,
      "start": 7.7376,
      "duration": 0.1002,
      "velocity": 82,
      "chip": "ym2612"
    },
    {
      "channel": 1,
      "note": 62,
      "start": 7.8378,
      "duration": 0.0573,
      "velocity": 100,
      "chip": "ym2612"
    },
    {
      "channel": 2,
      "note": 59,
      "start": 7.8379,
      "duration": 0.0573,
      "velocity": 100,
      "chip": "ym2612"
    },
    {
      "channel": 3,
      "note": 60,
      "start": 7.8379,
      "duration": 0.0013,
      "velocity": 82,
      "chip": "ym2612"
    },
    {
      "channel": 4,
      "note": 41,
      "start": 7.838,
      "duration": 0.0573,
      "velocity": 105,
      "chip": "ym2612"
    },
    {
      "channel": 3,
      "note": 53,
      "start": 7.8393,
      "duration": 0.056,
      "velocity": 82,
      "chip": "ym2612"
    },
    {
      "channel": 1,
      "note": 60,
      "start": 7.8951,
      "duration": 0.0285,
      "velocity": 100,
      "chip": "ym2612"
    },
    {
      "channel": 2,
      "note": 57,
      "start": 7.8952,
      "duration": 0.0285,
      "velocity": 100,
      "chip": "ym2612"
    },
    {
      "channel": 3,
      "note": 60,
      "start": 7.8953,
      "duration": 0.0012,
      "velocity": 82,
      "chip": "ym2612"
    },
    {
      "channel": 4,
      "note": 36,
      "start": 7.8954,
      "duration": 0.0284,
      "velocity": 105,
      "chip": "ym2612"
    },
    {
      "channel": 3,
      "note": 65,
      "start": 7.8966,
      "duration": 0.0271,
      "velocity": 82,
      "chip": "ym2612"
    },
    {
      "channel": 1,
      "note": 59,
      "start": 7.9237,
      "duration": 0.1343,
      "velocity": 100,
      "chip": "ym2612"
    },
    {
      "channel": 2,
      "note": 55,
      "start": 7.9237,
      "duration": 0.1343,
      "velocity": 100,
      "chip": "ym2612"
    },
    {
      "channel": 3,
      "note": 72,
      "start": 7.9238,
      "duration": 0.0013,
      "velocity": 82,
      "chip": "ym2612"
    },
    {
      "channel": 4,
      "note": 33,
      "start": 7.9239,
      "duration": 0.0571,
      "velocity": 105,
      "chip": "ym2612"
    },
    {
      "channel": 3,
      "note": 65,
      "start": 7.9252,
      "duration": 0.0556,
      "velocity": 82,
      "chip": "ym2612"
    },
    {
      "channel": 3,
      "note": 72,
      "start": 7.9809,
      "duration": 0.0013,
      "velocity": 82,
      "chip": "ym2612"
    },
    {
      "channel": 4,
      "note": 41,
      "start": 7.981,
      "duration": 0.0772,
      "velocity": 105,
      "chip": "ym2612"
    },
    {
      "channel": 3,
      "note": 65,
      "start": 7.9823,
      "duration": 0.0758,
      "velocity": 82,
      "chip": "ym2612"
    },
    {
      "channel": 1,
      "note": 57,
      "start": 8.058,
      "duration": 0.1801,
      "velocity": 100,
      "chip": "ym2612"
    },
    {
      "channel": 2,
      "note": 53,
      "start": 8.058,
      "duration": 0.18,
      "velocity": 100,
      "chip": "ym2612"
    },
    {
      "channel": 3,
      "note": 60,
      "start": 8.0582,
      "duration": 0.0797,
      "velocity": 82,
      "chip": "ym2612"
    },
    {
      "channel": 3,
      "note": 53,
      "start": 8.138,
      "duration": 0.1001,
      "velocity": 82,
      "chip": "ym2612"
    },
    {
      "channel": 3,
      "note": 60,
      "start": 8.2381,
      "duration": 0.0012,
      "velocity": 82,
      "chip": "ym2612"
    },
    {
      "channel": 4,
      "note": 41,
      "start": 8.2382,
      "duration": 0.0087,
      "velocity": 105,
      "chip": "ym2612"
    },
    {
      "channel": 3,
      "note": 65,
      "start": 8.2393,
      "duration": 0.0075,
      "velocity": 82,
      "chip": "ym2612"
    },
    {
      "channel": 1,
      "note": 57,
      "start": 8.2467,
      "duration": 0.6006,
      "velocity": 100,
      "chip": "ym2612"
    },
    {
      "channel": 2,
      "note": 53,
      "start": 8.2468,
      "duration": 0.4002,
      "velocity": 100,
      "chip": "ym2612"
    },
    {
      "channel": 3,
      "note": 72,
      "start": 8.2468,
      "duration": 0.0997,
      "velocity": 82,
      "chip": "ym2612"
    },
    {
      "channel": 3,
      "note": 77,
      "start": 8.3466,
      "duration": 0.1001,
      "velocity": 82,
      "chip": "ym2612"
    },
    {
      "channel": 3,
      "note": 72,
      "start": 8.4468,
      "duration": 0.0014,
      "velocity": 82,
      "chip": "ym2612"
    },
    {
      "channel": 4,
      "note": 41,
      "start": 8.4469,
      "duration": 0.0573,
      "velocity": 105,
      "chip": "ym2612"
    },
    {
      "channel": 3,
      "note": 65,
      "start": 8.4482,
      "duration": 0.0558,
      "velocity": 82,
      "chip": "ym2612"
    },
    {
      "channel": 3,
      "note": 60,
      "start": 8.5041,
      "duration": 0.0014,
      "velocity": 82,
      "chip": "ym2612"
    },
    {
      "channel": 4,
      "note": 41,
      "start": 8.5042,
      "duration": 0.0773,
      "velocity": 105,
      "chip": "ym2612"
    },
    {
      "channel": 0,
      "note": 53,
      "start": 8.5048,
      "duration": 0.5974,
      "velocity": 127,
      "chip": "ym2612"
    },
    {
      "channel": 3,
      "note": 53,
      "start": 8.5056,
      "duration": 0.0759,
      "velocity": 82,
      "chip": "ym2612"
    },
    {
      "channel": 3,
      "note": 60,
      "start": 8.5815,
      "duration": 0.0011,
      "velocity": 82,
      "chip": "ym2612"
    },
    {
      "channel": 4,
      "note": 40,
      "start": 8.5815,
      "duration": 0.0085,
      "velocity": 105,
      "chip": "ym2612"
    },
    {
      "channel": 3,
      "note": 65,
      "start": 8.5827,
      "duration": 0.0073,
      "velocity": 82,
      "chip": "ym2612"
    },
    {
      "channel": 3,
      "note": 72,
      "start": 8.5901,
      "duration": 0.0013,
      "velocity": 82,
      "chip": "ym2612"
    },
    {
      "channel": 4,
      "note": 41,
      "start": 8.5901,
      "duration": 0.057,
      "velocity": 105,
      "chip": "ym2612"
    },
    {
      "channel": 3,
      "note": 77,
      "start": 8.5915,
      "duration": 0.0556,
      "velocity": 82,
      "chip": "ym2612"
    },
    {
      "channel": 3,
      "note": 72,
      "start": 8.6471,
      "duration": 0.0999,
      "velocity": 82,
      "chip": "ym2612"
    },
    {
      "channel": 3,
      "note": 65,
      "start": 8.7471,
      "duration": 0.1004,
      "velocity": 82,
      "chip": "ym2612"
    },
    {
      "channel": 1,
      "note": 59,
      "start": 8.8473,
      "duration": 0.0571,
      "velocity": 100,
      "chip": "ym2612"
    },
    {
      "channel": 2,
      "note": 55,
      "start": 8.8474,
      "duration": 0.0571,
      "velocity": 100,
      "chip": "ym2612"
    },
    {
      "channel": 3,
      "note": 69,
      "start": 8.8475,
      "duration": 0.0012,
      "velocity": 82,
      "chip": "ym2612"
    },
    {
      "channel": 4,
      "note": 41,
      "start": 8.8476,
      "duration": 0.0571,
      "velocity": 105,
      "chip": "ym2612"
    },
    {
      "channel": 3,
      "note": 72,
      "start": 8.8488,
      "duration": 0.0558,
      "velocity": 82,
      "chip": "ym2612"
    },
    {
      "channel": 1,
      "note": 60,
      "start": 8.9045,
      "duration": 0.0287,
      "velocity": 100,
      "chip": "ym2612"
    },
    {
      "channel": 2,
      "note": 57,
      "start": 8.9046,
      "duration": 0.0287,
      "velocity": 100,
      "chip": "ym2612"
    },
    {
      "channel": 3,
      "note": 77,
      "start": 8.9046,
      "duration": 0.0012,
      "velocity": 82,
      "chip": "ym2612"
    },
    {
      "channel": 3,
      "note": 69,
      "start": 8.9059,
      "duration": 0.0274,
      "velocity": 82,
      "chip": "ym2612"
    },
    {
      "channel": 1,
      "note": 59,
      "start": 8.9333,
      "duration": 0.1435,
      "velocity": 100,
      "chip": "ym2612"
    },
    {
      "channel": 2,
      "note": 55,
      "start": 8.9334,
      "duration": 0.1435,
      "velocity": 100,
      "chip": "ym2612"
    },
    {
      "channel": 3,
      "note": 72,
      "start": 8.9334,
      "duration": 0.0012,
      "velocity": 82,
      "chip": "ym2612"
    },
    {
      "channel": 4,
      "note": 41,
      "start": 8.9336,
      "duration": 0.057,
      "velocity": 105,
      "chip": "ym2612"
    },
    {
      "channel": 3,
      "note": 77,
      "start": 8.9347,
      "duration": 0.0558,
      "velocity": 82,
      "chip": "ym2612"
    },
    {
      "channel": 3,
      "note": 79,
      "start": 8.9905,
      "duration": 0.0013,
      "velocity": 82,
      "chip": "ym2612"
    },
    {
      "channel": 3,
      "note": 71,
      "start": 8.9919,
      "duration": 0.0074,
      "velocity": 82,
      "chip": "ym2612"
    },
    {
      "channel": 3,
      "note": 74,
      "start": 8.9994,
      "duration": 0.0014,
      "velocity": 82,
      "chip": "ym2612"
    },
    {
      "channel": 4,
      "note": 41,
      "start": 8.9995,
      "duration": 0.0774,
      "velocity": 105,
      "chip": "ym2612"
    },
    {
      "channel": 3,
      "note": 79,
      "start": 9.0008,
      "duration": 0.0761,
      "velocity": 82,
      "chip": "ym2612"
    },
    {
      "channel": 1,
      "note": 55,
      "start": 9.0768,
      "duration": 0.0856,
      "velocity": 100,
      "chip": "ym2612"
    },
    {
      "channel": 2,
      "note": 52,
      "start": 9.0769,
      "duration": 0.0855,
      "velocity": 100,
      "chip": "ym2612"
    },
    {
      "channel": 3,
      "note": 83,
      "start": 9.077,
      "duration": 0.0011,
      "velocity": 82,
      "chip": "ym2612"
    },
    {
      "channel": 4,
      "note": 36,
      "start": 9.077,
      "duration": 0.0082,
      "velocity": 105,
      "chip": "ym2612"
    },
    {
      "channel": 3,
      "note": 79,
      "start": 9.0781,
      "duration": 0.007,
      "velocity": 82,
      "chip": "ym2612"
    },
    {
      "channel": 3,
      "note": 74,
      "start": 9.0852,
      "duration": 0.0013,
      "velocity": 82,
      "chip": "ym2612"
    },
    {
      "channel": 4,
      "note": 35,
      "start": 9.0853,
      "duration": 0.0772,
      "velocity": 105,
      "chip": "ym2612"
    },
    {
      "channel": 3,
      "note": 71,
      "start": 9.0866,
      "duration": 0.0759,
      "velocity": 82,
      "chip": "ym2612"
    },
    {
      "channel": 0,
      "note": 53,
      "start": 9.1022,
      "duration": 0.0602,
      "velocity": 127,
      "chip": "ym2612"
    },
    {
      "channel": 0,
      "note": 45,
      "start": 9.1624,
      "duration": 0.9251,
      "velocity": 127,
      "chip": "ym2612"
    },
    {
      "channel": 3,
      "note": 69,
      "start": 9.1625,
      "duration": 0.0797,
      "velocity": 82,
      "chip": "ym2612"
    },
    {
      "channel": 4,
      "note": 45,
      "start": 9.1626,
      "duration": 0.1798,
      "velocity": 105,
      "chip": "ym2612"
    },
    {
      "channel": 3,
      "note": 64,
      "start": 9.2422,
      "duration": 0.1,
      "velocity": 82,
      "chip": "ym2612"
    },
    {
      "channel": 3,
      "note": 57,
      "start": 9.3424,
      "duration": 0.0011,
      "velocity": 82,
      "chip": "ym2612"
    },
    {
      "channel": 4,
      "note": 45,
      "start": 9.3424,
      "duration": 0.0575,
      "velocity": 105,
      "chip": "ym2612"
    },
    {
      "channel": 3,
      "note": 52,
      "start": 9.3435,
      "duration": 0.0563,
      "velocity": 82,
      "chip": "ym2612"
    },
    {
      "channel": 3,
      "note": 57,
      "start": 9.3998,
      "duration": 0.0012,
      "velocity": 82,
      "chip": "ym2612"
    },
    {
      "channel": 4,
      "note": 45,
      "start": 9.4,
      "duration": 0.0285,
      "velocity": 105,
      "chip": "ym2612"
    },
    {
      "channel": 3,
      "note": 64,
      "start": 9.4011,
      "duration": 0.0273,
      "velocity": 82,
      "chip": "ym2612"
    },
    {
      "channel": 3,
      "note": 69,
      "start": 9.4284,
      "duration": 0.0799,
      "velocity": 82,
      "chip": "ym2612"
    },
    {
      "channel": 3,
      "note": 64,
      "start": 9.5084,
      "duration": 0.1006,
      "velocity": 82,
      "chip": "ym2612"
    },
    {
      "channel": 1,
      "note": 64,
      "start": 9.6088,
      "duration": 0.077,
      "velocity": 100,
      "chip": "ym2612"
    },
    {
      "channel": 2,
      "note": 60,
      "start": 9.6089,
      "duration": 0.0769,
      "velocity": 100,
      "chip": "ym2612"
    },
    {
      "channel": 3,
      "note": 69,
      "start": 9.609,
      "duration": 0.0012,
      "velocity": 82,
      "chip": "ym2612"
    },
    {
      "channel": 4,
      "note": 45,
      "start": 9.6091,
      "duration": 0.0768,
      "velocity": 105,
      "chip": "ym2612"
    },
    {
      "channel": 3,
      "note": 64,
      "start": 9.6103,
      "duration": 0.0756,
      "velocity": 82,
      "chip": "ym2612"
    },
    {
      "channel": 3,
      "note": 57,
      "start": 9.6859,
      "duration": 0.0009,
      "velocity": 82,
      "chip": "ym2612"
    },
    {
      "channel": 4,
      "note": 45,
      "start": 9.686,
      "duration": 0.0576,
      "velocity": 105,
      "chip": "ym2612"
    },
    {
      "channel": 3,
      "note": 52,
      "start": 9.6869,
      "duration": 0.0567,
      "velocity": 82,
      "chip": "ym2612"
    },
    {
      "channel": 1,
      "note": 65,
      "start": 9.7435,
      "duration": 0.0084,
      "velocity": 100,
      "chip": "ym2612"
    },
    {
      "channel": 2,
      "note": 62,
      "start": 9.7435,
      "duration": 0.0083,
      "velocity": 100,
      "chip": "ym2612"
    },
    {
      "channel": 3,
      "note": 57,
      "start": 9.7436,
      "duration": 0.0014,
      "velocity": 82,
      "chip": "ym2612"
    },
    {
      "channel": 4,
      "note": 43,
      "start": 9.7437,
      "duration": 0.0083,
      "velocity": 105,
      "chip": "ym2612"
    },
    {
      "channel": 3,
      "note": 64,
      "start": 9.745,
      "duration": 0.0069,
      "velocity": 82,
      "chip": "ym2612"
    },
    {
      "channel": 3,
      "note": 69,
      "start": 9.752,
      "duration": 0.001,
      "velocity": 82,
      "chip": "ym2612"
    },
    {
      "channel": 4,
      "note": 45,
      "start": 9.752,
      "duration": 0.077,
      "velocity": 105,
      "chip": "ym2612"
    },
    {
      "channel": 3,
      "note": 64,
      "start": 9.7531,
      "duration": 0.0759,
      "velocity": 82,
      "chip": "ym2612"
    },
    {
      "channel": 3,
      "note": 69,
      "start": 9.829,
      "duration": 0.0799,
      "velocity": 82,
      "chip": "ym2612"
    },
    {
      "channel": 3,
      "note": 64,
      "start": 9.909,
      "duration": 0.1001,
      "velocity": 82,
      "chip": "ym2612"
    },
    {
      "channel": 3,
      "note": 57,
      "start": 10.0092,
      "duration": 0.0011,
      "velocity": 82,
      "chip": "ym2612"
    },
    {
      "channel": 4,
      "note": 45,
      "start": 10.0092,
      "duration": 0.0774,
      "velocity": 105,
      "chip": "ym2612"
    },
    {
      "channel": 3,
      "note": 52,
      "start": 10.0103,
      "duration": 0.0763,
      "velocity": 82,
      "chip": "ym2612"
    },
    {
      "channel": 3,
      "note": 57,
      "start": 10.0866,
      "duration": 0.0007,
      "velocity": 82,
      "chip": "ym2612"
    },
    {
      "channel": 3,
      "note": 64,
      "start": 10.0874,
      "duration": 0.0083,
      "velocity": 82,
      "chip": "ym2612"
    },
    {
      "channel": 0,
      "note": 45,
      "start": 10.0875,
      "duration": 0.81,
      "velocity": 127,
      "chip": "ym2612"
    },
    {
      "channel": 1,
      "note": 62,
      "start": 10.0955,
      "duration": 0.0571,
      "velocity": 100,
      "chip": "ym2612"
    },
    {
      "channel": 2,
      "note": 59,
      "start": 10.0956,
      "duration": 0.0571,
      "velocity": 100,
      "chip": "ym2612"
    },
    {
      "channel": 3,
      "note": 69,
      "start": 10.0957,
      "duration": 0.0012,
      "velocity": 82,
      "chip": "ym2612"
    },
    {
      "channel": 4,
      "note": 45,
      "start": 10.0958,
      "duration": 0.0569,
      "velocity": 105,
      "chip": "ym2612"
    },
    {
      "channel": 3,
      "note": 64,
      "start": 10.097,
      "duration": 0.0556,
      "velocity": 82,
      "chip": "ym2612"
    },
    {
      "channel": 3,
      "note": 69,
      "start": 10.1527,
      "duration": 0.001,
      "velocity": 82,
      "chip": "ym2612"
    },
    {
      "channel": 3,
      "note": 64,
      "start": 10.1537,
      "duration": 0.0766,
      "velocity": 82,
      "chip": "ym2612"
    },
    {
      "channel": 1,
      "note": 64,
      "start": 10.2302,
      "duration": 0.0572,
      "velocity": 100,
      "chip": "ym2612"
    },
    {
      "channel": 2,
      "note": 60,
      "start": 10.2304,
      "duration": 0.0571,
      "velocity": 100,
      "chip": "ym2612"
    },
    {
      "channel": 3,
      "note": 57,
      "start": 10.2304,
      "duration": 0.0011,
      "velocity": 82,
      "chip": "ym2612"
    },
    {
      "channel": 4,
      "note": 45,
      "start": 10.2305,
      "duration": 0.0571,
      "velocity": 105,
      "chip": "ym2612"
    },
    {
      "channel": 3,
      "note": 52,
      "start": 10.2316,
      "duration": 0.056,
      "velocity": 82,
      "chip": "ym2612"
    },
    {
      "channel": 3,
      "note": 57,
      "start": 10.2876,
      "duration": 0.001,
      "velocity": 82,
      "chip": "ym2612"
    },
    {
      "channel": 4,
      "note": 43,
      "start": 10.2877,
      "duration": 0.0285,
      "velocity": 105,
      "chip": "ym2612"
    },
    {
      "channel": 3,
      "note": 64,
      "start": 10.2887,
      "duration": 0.0273,
      "velocity": 82,
      "chip": "ym2612"
    },
    {
      "channel": 3,
      "note": 69,
      "start": 10.3161,
      "duration": 0.001,
      "velocity": 82,
      "chip": "ym2612"
    },
    {
      "channel": 4,
      "note": 40,
      "start": 10.3162,
      "duration": 0.0573,
      "velocity": 105,
      "chip": "ym2612"
    },
    {
      "channel": 3,
      "note": 76,
      "start": 10.3171,
      "duration": 0.0564,
      "velocity": 82,
      "chip": "ym2612"
    },
    {
      "channel": 3,
      "note": 69,
      "start": 10.3736,
      "duration": 0.0011,
      "velocity": 82,
      "chip": "ym2612"
    },
    {
      "channel": 4,
      "note": 45,
      "start": 10.3736,
      "duration": 0.0573,
      "velocity": 105,
      "chip": "ym2612"
    },
    {
      "channel": 3,
      "note": 64,
      "start": 10.3747,
      "duration": 0.0561,
      "velocity": 82,
      "chip": "ym2612"
    },
    {
      "channel": 3,
      "note": 57,
      "start": 10.4309,
      "duration": 0.0999,
      "velocity": 82,
      "chip": "ym2612"
    },
    {
      "channel": 3,
      "note": 52,
      "start": 10.5309,
      "duration": 0.1001,
      "velocity": 82,
      "chip": "ym2612"
    },
    {
      "channel": 3,
      "note": 57,
      "start": 10.6311,
      "duration": 0.001,
      "velocity": 82,
      "chip": "ym2612"
    },
    {
      "channel": 4,
      "note": 45,
      "start": 10.6312,
      "duration": 0.0084,
      "velocity": 105,
      "chip": "ym2612"
    },
    {
      "channel": 3,
      "note": 64,
      "start": 10.6321,
      "duration": 0.0074,
      "velocity": 82,
      "chip": "ym2612"
    },
    {
      "channel": 3,
      "note": 69,
      "start": 10.6396,
      "duration": 0.0999,
      "velocity": 82,
      "chip": "ym2612"
    },
    {
      "channel": 3,
      "note": 76,
      "start": 10.7395,
      "duration": 0.0804,
      "velocity": 82,
      "chip": "ym2612"
    },
    {
      "channel": 1,
      "note": 64,
      "start": 10.8199,
      "duration": 0.0772,
      "velocity": 100,
      "chip": "ym2612"
    },
    {
      "channel": 2,
      "note": 60,
      "start": 10.82,
      "duration": 0.0771,
      "velocity": 100,
      "chip": "ym2612"
    },
    {
      "channel": 3,
      "note": 69,
      "start": 10.82,
      "duration": 0.0013,
      "velocity": 82,
      "chip": "ym2612"
    },
    {
      "channel": 4,
      "note": 45,
      "start": 10.8201,
      "duration": 0.0771,
      "velocity": 105,
      "chip": "ym2612"
    },
    {
      "channel": 3,
      "note": 64,
      "start": 10.8214,
      "duration": 0.0756,
      "velocity": 82,
      "chip": "ym2612"
    },
    {
      "channel": 3,
      "note": 57,
      "start": 10.8971,
      "duration": 0.0012,
      "velocity": 82,
      "chip": "ym2612"
    },
    {
      "channel": 4,
      "note": 45,
      "start": 10.8973,
      "duration": 0.0576,
      "velocity": 105,
      "chip": "ym2612"
    },
    {
      "channel": 0,
      "note": 45,
      "start": 10.8975,
      "duration": 0.364,
      "velocity": 127,
      "chip": "ym2612"
    },
    {
      "channel": 3,
      "note": 52,
      "start": 10.8984,
      "duration": 0.0564,
      "velocity": 82,
      "chip": "ym2612"
    },
    {
      "channel": 1,
      "note": 65,
      "start": 10.9547,
      "duration": 0.0284,
      "velocity": 100,
      "chip": "ym2612"
    },
    {
      "channel": 2,
      "note": 62,
      "start": 10.9548,
      "duration": 0.0283,
      "velocity": 100,
      "chip": "ym2612"
    },
    {
      "channel": 3,
      "note": 57,
      "start": 10.9549,
      "duration": 0.0014,
      "velocity": 82,
      "chip": "ym2612"
    },
    {
      "channel": 4,
      "note": 43,
      "start": 10.9549,
      "duration": 0.0283,
      "velocity": 105,
      "chip": "ym2612"
    },
    {
      "channel": 3,
      "note": 64,
      "start": 10.9563,
      "duration": 0.0269,
      "velocity": 82,
      "chip": "ym2612"
    },
    {
      "channel": 3,
      "note": 69,
      "start": 10.9832,
      "duration": 0.001,
      "velocity": 82,
      "chip": "ym2612"
    },
    {
      "channel": 4,
      "note": 45,
      "start": 10.9833,
      "duration": 0.0572,
      "velocity": 105,
      "chip": "ym2612"
    },
    {
      "channel": 3,
      "note": 76,
      "start": 10.9842,
      "duration": 0.0561,
      "velocity": 82,
      "chip": "ym2612"
    },
    {
      "channel": 3,
      "note": 81,
      "start": 11.0404,
      "duration": 0.001,
      "velocity": 82,
      "chip": "ym2612"
    },
    {
      "channel": 3,
      "note": 76,
      "start": 11.0415,
      "duration": 0.0565,
      "velocity": 82,
      "chip": "ym2612"
    },
    {
      "channel": 3,
      "note": 69,
      "start": 11.098,
      "duration": 0.0011,
      "velocity": 82,
      "chip": "ym2612"
    },
    {
      "channel": 4,
      "note": 45,
      "start": 11.0981,
      "duration": 0.0773,
      "velocity": 105,
      "chip": "ym2612"
    },
    {
      "channel": 3,
      "note": 64,
      "start": 11.0992,
      "duration": 0.0762,
      "velocity": 82,
      "chip": "ym2612"
    },
    {
      "channel": 3,
      "note": 52,
      "start": 11.1754,
      "duration": 0.001,
      "velocity": 82,
      "chip": "ym2612"
    },
    {
      "channel": 3,
      "note": 57,
      "start": 11.1765,
      "duration": 0.0081,
      "velocity": 82,
      "chip": "ym2612"
    },
    {
      "channel": 1,
      "note": 62,
      "start": 11.1845,
      "duration": 0.0771,
      "velocity": 100,
      "chip": "ym2612"
    },
    {
      "channel": 2,
      "note": 59,
      "start": 11.1846,
      "duration": 0.077,
      "velocity": 100,
      "chip": "ym2612"
    },
    {
      "channel": 3,
      "note": 64,
      "start": 11.1846,
      "duration": 0.0014,
      "velocity": 82,
      "chip": "ym2612"
    },
    {
      "channel": 4,
      "note": 45,
      "start": 11.1847,
      "duration": 0.077,
      "velocity": 105,
      "chip": "ym2612"
    },
    {
      "channel": 3,
      "note": 69,
      "start": 11.1861,
      "duration": 0.0756,
      "velocity": 82,
      "chip": "ym2612"
    },
    {
      "channel": 0,
      "note": 48,
      "start": 11.2616,
      "duration": 0.3235,
      "velocity": 127,
      "chip": "ym2612"
    },
    {
      "channel": 3,
      "note": 76,
      "start": 11.2617,
      "duration": 0.0797,
      "velocity": 82,
      "chip": "ym2612"
    },
    {
      "channel": 3,
      "note": 69,
      "start": 11.3415,
      "duration": 0.1005,
      "velocity": 82,
      "chip": "ym2612"
    },
    {
      "channel": 1,
      "note": 64,
      "start": 11.4419,
      "duration": 0.0571,
      "velocity": 100,
      "chip": "ym2612"
    },
    {
      "channel": 2,
      "note": 60,
      "start": 11.442,
      "duration": 0.057,
      "velocity": 100,
      "chip": "ym2612"
    },
    {
      "channel": 3,
      "note": 64,
      "start": 11.442,
      "duration": 0.0012,
      "velocity": 82,
      "chip": "ym2612"
    },
    {
      "channel": 4,
      "note": 45,
      "start": 11.4421,
      "duration": 0.057,
      "velocity": 105,
      "chip": "ym2612"
    },
    {
      "channel": 3,
      "note": 57,
      "start": 11.4434,
      "duration": 0.0557,
      "velocity": 82,
      "chip": "ym2612"
    },
    {
      "channel": 3,
      "note": 52,
      "start": 11.4991,
      "duration": 0.0011,
      "velocity": 82,
      "chip": "ym2612"
    },
    {
      "channel": 4,
      "note": 43,
      "start": 11.4992,
      "duration": 0.0285,
      "velocity": 105,
      "chip": "ym2612"
    },
    {
      "channel": 3,
      "note": 57,
      "start": 11.5002,
      "duration": 0.0273,
      "velocity": 82,
      "chip": "ym2612"
    },
    {
      "channel": 3,
      "note": 64,
      "start": 11.5276,
      "duration": 0.0012,
      "velocity": 82,
      "chip": "ym2612"
    },
    {
      "channel": 4,
      "note": 40,
      "start": 11.5277,
      "duration": 0.0575,
      "velocity": 105,
      "chip": "ym2612"
    },
    {
      "channel": 3,
      "note": 69,
      "start": 11.5288,
      "duration": 0.0563,
      "velocity": 82,
      "chip": "ym2612"
    },
    {
      "channel": 0,
      "note": 53,
      "start": 11.5851,
      "duration": 0.9255,
      "velocity": 127,
      "chip": "ym2612"
    },
    {
      "channel": 3,
      "note": 72,
      "start": 11.5852,
      "duration": 0.0011,
      "velocity": 82,
      "chip": "ym2612"
    },
    {
      "channel": 4,
      "note": 41,
      "start": 11.5853,
      "duration": 0.0772,
      "velocity": 105,
      "chip": "ym2612"
    },
    {
      "channel": 3,
      "note": 65,
      "start": 11.5863,
      "duration": 0.076,
      "velocity": 82,
      "chip": "ym2612"
    },
    {
      "channel": 3,
      "note": 60,
      "start": 11.6624,
      "duration": 0.0799,
      "velocity": 82,
      "chip": "ym2612"
    },
    {
      "channel": 3,
      "note": 53,
      "start": 11.7424,
      "duration": 0.1001,
      "velocity": 82,
      "chip": "ym2612"
    },
    {
      "channel": 3,
      "note": 60,
      "start": 11.8426,
      "duration": 0.0011,
      "velocity": 82,
      "chip": "ym2612"
    },
    {
      "channel": 4,
      "note": 41,
      "start": 11.8427,
      "duration": 0.0084,
      "velocity": 105,
      "chip": "ym2612"
    },
    {
      "channel": 3,
      "note": 65,
      "start": 11.8438,
      "duration": 0.0073,
      "velocity": 82,
      "chip": "ym2612"
    },
    {
      "channel": 3,
      "note": 72,
      "start": 11.8512,
      "duration": 0.0999,
      "velocity": 82,
      "chip": "ym2612"
    },
    {
      "channel": 3,
      "note": 65,
      "start": 11.9511,
      "duration": 0.1005,
      "velocity": 82,
      "chip": "ym2612"
    },
    {
      "channel": 1,
      "note": 64,
      "start": 12.0515,
      "duration": 0.0571,
      "velocity": 100,
      "chip": "ym2612"
    },
    {
      "channel": 2,
      "note": 60,
      "start": 12.0515,
      "duration": 0.0571,
      "velocity": 100,
      "chip": "ym2612"
    },
    {
      "channel": 3,
      "note": 72,
      "start": 12.0517,
      "duration": 0.001,
      "velocity": 82,
      "chip": "ym2612"
    },
    {
      "channel": 4,
      "note": 41,
      "start": 12.0517,
      "duration": 0.057,
      "velocity": 105,
      "chip": "ym2612"
    },
    {
      "channel": 3,
      "note": 65,
      "start": 12.0528,
      "duration": 0.0559,
      "velocity": 82,
      "chip": "ym2612"
    },
    {
      "channel": 3,
      "note": 60,
      "start": 12.1087,
      "duration": 0.0011,
      "velocity": 82,
      "chip": "ym2612"
    },
    {
      "channel": 4,
      "note": 41,
      "start": 12.1088,
      "duration": 0.0776,
      "velocity": 105,
      "chip": "ym2612"
    },
    {
      "channel": 3,
      "note": 53,
      "start": 12.1099,
      "duration": 0.0765,
      "velocity": 82,
      "chip": "ym2612"
    },
    {
      "channel": 1,
      "note": 65,
      "start": 12.1863,
      "duration": 0.0084,
      "velocity": 100,
      "chip": "ym2612"
    },
    {
      "channel": 2,
      "note": 62,
      "start": 12.1864,
      "duration": 0.0083,
      "velocity": 100,
      "chip": "ym2612"
    },
    {
      "channel": 3,
      "note": 60,
      "start": 12.1864,
      "duration": 0.0011,
      "velocity": 82,
      "chip": "ym2612"
    },
    {
      "channel": 4,
      "note": 40,
      "start": 12.1865,
      "duration": 0.0083,
      "velocity": 105,
      "chip": "ym2612"
    },
    {
      "channel": 3,
      "note": 65,
      "start": 12.1876,
      "duration": 0.007,
      "velocity": 82,
      "chip": "ym2612"
    },
    {
      "channel": 3,
      "note": 72,
      "start": 12.1947,
      "duration": 0.0012,
      "velocity": 82,
      "chip": "ym2612"
    },
    {
      "channel": 4,
      "note": 41,
      "start": 12.1948,
      "duration": 0.0571,
      "velocity": 105,
      "chip": "ym2612"
    },
    {
      "channel": 3,
      "note": 65,
      "start": 12.196,
      "duration": 0.0559,
      "velocity": 82,
      "chip": "ym2612"
    },
    {
      "channel": 3,
      "note": 72,
      "start": 12.2519,
      "duration": 0.0999,
      "velocity": 82,
      "chip": "ym2612"
    },
    {
      "channel": 3,
      "note": 65,
      "start": 12.3519,
      "duration": 0.1001,
      "velocity": 82,
      "chip": "ym2612"
    },
    {
      "channel": 3,
      "note": 60,
      "start": 12.452,
      "duration": 0.0009,
      "velocity": 82,
      "chip": "ym2612"
    },
    {
      "channel": 4,
      "note": 41,
      "start": 12.4521,
      "duration": 0.0573,
      "velocity": 105,
      "chip": "ym2612"
    },
    {
      "channel": 3,
      "note": 53,
      "start": 12.453,
      "duration": 0.0564,
      "velocity": 82,
      "chip": "ym2612"
    },
    {
      "channel": 3,
      "note": 60,
      "start": 12.5095,
      "duration": 0.001,
      "velocity": 82,
      "chip": "ym2612"
    },
    {
      "channel": 3,
      "note": 65,
      "start": 12.5105,
      "duration": 0.0282,
      "velocity": 82,
      "chip": "ym2612"
    },
    {
      "channel": 0,
      "note": 53,
      "start": 12.5106,
      "duration": 0.9322,
      "velocity": 127,
      "chip": "ym2612"
    },
    {
      "channel": 1,
      "note": 64,
      "start": 12.5386,
      "duration": 0.2372,
      "velocity": 100,
      "chip": "ym2612"
    },
    {
      "channel": 2,
      "note": 60,
      "start": 12.5386,
      "duration": 0.057,
      "velocity": 100,
      "chip": "ym2612"
    },
    {
      "channel": 3,
      "note": 72,
      "start": 12.5388,
      "duration": 0.0011,
      "velocity": 82,
      "chip": "ym2612"
    },
    {
      "channel": 4,
      "note": 41,
      "start": 12.5388,
      "duration": 0.0569,
      "velocity": 105,
      "chip": "ym2612"
    },
    {
      "channel": 3,
      "note": 65,
      "start": 12.5399,
      "duration": 0.0557,
      "velocity": 82,
      "chip": "ym2612"
    },
    {
      "channel": 3,
      "note": 72,
      "start": 12.5957,
      "duration": 0.0999,
      "velocity": 82,
      "chip": "ym2612"
    },
    {
      "channel": 3,
      "note": 65,
      "start": 12.6956,
      "duration": 0.0803,
      "velocity": 82,
      "chip": "ym2612"
    },
    {
      "channel": 1,
      "note": 62,
      "start": 12.7759,
      "duration": 0.0773,
      "velocity": 100,
      "chip": "ym2612"
    },
    {
      "channel": 2,
      "note": 59,
      "start": 12.7759,
      "duration": 0.0773,
      "velocity": 100,
      "chip": "ym2612"
    },
    {
      "channel": 3,
      "note": 60,
      "start": 12.776,
      "duration": 0.0013,
      "velocity": 82,
      "chip": "ym2612"
    },
    {
      "channel": 4,
      "note": 41,
      "start": 12.7761,
      "duration": 0.0773,
      "velocity": 105,
      "chip": "ym2612"
    },
    {
      "channel": 3,
      "note": 53,
      "start": 12.7773,
      "duration": 0.0759,
      "velocity": 82,
      "chip": "ym2612"
    },
    {
      "channel": 1,
      "note": 60,
      "start": 12.8532,
      "duration": 0.0085,
      "velocity": 100,
      "chip": "ym2612"
    },
    {
      "channel": 2,
      "note": 57,
      "start": 12.8533,
      "duration": 0.0085,
      "velocity": 100,
      "chip": "ym2612"
    },
    {
      "channel": 3,
      "note": 60,
      "start": 12.8534,
      "duration": 0.0011,
      "velocity": 82,
      "chip": "ym2612"
    },
    {
      "channel": 4,
      "note": 36,
      "start": 12.8534,
      "duration": 0.0085,
      "velocity": 105,
      "chip": "ym2612"
    },
    {
      "channel": 3,
      "note": 65,
      "start": 12.8545,
      "duration": 0.0073,
      "velocity": 82,
      "chip": "ym2612"
    },
    {
      "channel": 1,
      "note": 59,
      "start": 12.8617,
      "duration": 0.1343,
      "velocity": 100,
      "chip": "ym2612"
    },
    {
      "channel": 2,
      "note": 55,
      "start": 12.8618,
      "duration": 0.1343,
      "velocity": 100,
      "chip": "ym2612"
    },
    {
      "channel": 3,
      "note": 72,
      "start": 12.8619,
      "duration": 0.0013,
      "velocity": 82,
      "chip": "ym2612"
    },
    {
      "channel": 4,
      "note": 33,
      "start": 12.862,
      "duration": 0.077,
      "velocity": 105,
      "chip": "ym2612"
    },
    {
      "channel": 3,
      "note": 65,
      "start": 12.8632,
      "duration": 0.0756,
      "velocity": 82,
      "chip": "ym2612"
    },
    {
      "channel": 3,
      "note": 72,
      "start": 12.939,
      "duration": 0.0011,
      "velocity": 82,
      "chip": "ym2612"
    },
    {
      "channel": 4,
      "note": 41,
      "start": 12.939,
      "duration": 0.0572,
      "velocity": 105,
      "chip": "ym2612"
    },
    {
      "channel": 3,
      "note": 65,
      "start": 12.9401,
      "duration": 0.056,
      "velocity": 82,
      "chip": "ym2612"
    },
    {
      "channel": 1,
      "note": 57,
      "start": 12.996,
      "duration": 0.1814,
      "velocity": 100,
      "chip": "ym2612"
    },
    {
      "channel": 2,
      "note": 53,
      "start": 12.9961,
      "duration": 0.1814,
      "velocity": 100,
      "chip": "ym2612"
    },
    {
      "channel": 3,
      "note": 60,
      "start": 12.9962,
      "duration": 0.0997,
      "velocity": 82,
      "chip": "ym2612"
    },
    {
      "channel": 3,
      "note": 53,
      "start": 13.096,
      "duration": 0.0801,
      "velocity": 82,
      "chip": "ym2612"
    },
    {
      "channel": 3,
      "note": 60,
      "start": 13.1762,
      "duration": 0.0012,
      "velocity": 82,
      "chip": "ym2612"
    },
    {
      "channel": 4,
      "note": 41,
      "start": 13.1763,
      "duration": 0.0286,
      "velocity": 105,
      "chip": "ym2612"
    },
    {
      "channel": 3,
      "note": 65,
      "start": 13.1775,
      "duration": 0.0272,
      "velocity": 82,
      "chip": "ym2612"
    },
    {
      "channel": 1,
      "note": 57,
      "start": 13.2047,
      "duration": 0.7528,
      "velocity": 100,
      "chip": "ym2612"
    },
    {
      "channel": 2,
      "note": 53,
      "start": 13.2047,
      "duration": 0.7528,
      "velocity": 100,
      "chip": "ym2612"
    },
    {
      "channel": 3,
      "note": 72,
      "start": 13.2048,
      "duration": 0.0797,
      "velocity": 82,
      "chip": "ym2612"
    },
    {
      "channel": 3,
      "note": 77,
      "start": 13.2845,
      "duration": 0.1001,
      "velocity": 82,
      "chip": "ym2612"
    },
    {
      "channel": 3,
      "note": 72,
      "start": 13.3847,
      "duration": 0.0015,
      "velocity": 82,
      "chip": "ym2612"
    },
    {
      "channel": 4,
      "note": 41,
      "start": 13.3849,
      "duration": 0.0574,
      "velocity": 105,
      "chip": "ym2612"
    },
    {
      "channel": 3,
      "note": 65,
      "start": 13.3863,
      "duration": 0.0559,
      "velocity": 82,
      "chip": "ym2612"
    },
    {
      "channel": 3,
      "note": 60,
      "start": 13.4422,
      "duration": 0.0013,
      "velocity": 82,
      "chip": "ym2612"
    },
    {
      "channel": 4,
      "note": 41,
      "start": 13.4423,
      "duration": 0.0773,
      "velocity": 105,
      "chip": "ym2612"
    },
    {
      "channel": 0,
      "note": 53,
      "start": 13.4428,
      "duration": 0.4857,
      "velocity": 127,
      "chip": "ym2612"
    },
    {
      "channel": 3,
      "note": 53,
      "start": 13.4436,
      "duration": 0.0759,
      "velocity": 82,
      "chip": "ym2612"
    },
    {
      "channel": 3,
      "note": 60,
      "start": 13.5195,
      "duration": 0.0013,
      "velocity": 82,
      "chip": "ym2612"
    },
    {
      "channel": 4,
      "note": 40,
      "start": 13.5196,
      "duration": 0.0086,
      "velocity": 105,
      "chip": "ym2612"
    },
    {
      "channel": 3,
      "note": 65,
      "start": 13.5209,
      "duration": 0.0071,
      "velocity": 82,
      "chip": "ym2612"
    },
    {
      "channel": 3,
      "note": 72,
      "start": 13.5281,
      "duration": 0.0014,
      "velocity": 82,
      "chip": "ym2612"
    },
    {
      "channel": 4,
      "note": 41,
      "start": 13.5282,
      "duration": 0.077,
      "velocity": 105,
      "chip": "ym2612"
    },
    {
      "channel": 3,
      "note": 77,
      "start": 13.5295,
      "duration": 0.0756,
      "velocity": 82,
      "chip": "ym2612"
    },
    {
      "channel": 3,
      "note": 72,
      "start": 13.6052,
      "duration": 0.0799,
      "velocity": 82,
      "chip": "ym2612"
    },
    {
      "channel": 3,
      "note": 65,
      "start": 13.6852,
      "duration": 0.1001,
      "velocity": 82,
      "chip": "ym2612"
    },
    {
      "channel": 3,
      "note": 69,
      "start": 13.7854,
      "duration": 0.0012,
      "velocity": 82,
      "chip": "ym2612"
    },
    {
      "channel": 4,
      "note": 41,
      "start": 13.7855,
      "duration": 0.0571,
      "velocity": 105,
      "chip": "ym2612"
    },
    {
      "channel": 3,
      "note": 72,
      "start": 13.7867,
      "duration": 0.0557,
      "velocity": 82,
      "chip": "ym2612"
    },
    {
      "channel": 3,
      "note": 77,
      "start": 13.8425,
      "duration": 0.0013,
      "velocity": 82,
      "chip": "ym2612"
    },
    {
      "channel": 3,
      "note": 69,
      "start": 13.8439,
      "duration": 0.0274,
      "velocity": 82,
      "chip": "ym2612"
    },
    {
      "channel": 3,
      "note": 72,
      "start": 13.8714,
      "duration": 0.0014,
      "velocity": 82,
      "chip": "ym2612"
    },
    {
      "channel": 4,
      "note": 41,
      "start": 13.8715,
      "duration": 0.0573,
      "velocity": 105,
      "chip": "ym2612"
    },
    {
      "channel": 3,
      "note": 77,
      "start": 13.8728,
      "duration": 0.0559,
      "velocity": 82,
      "chip": "ym2612"
    },
    {
      "channel": 0,
      "note": 50,
      "start": 13.9285,
      "duration": 0.1719,
      "velocity": 127,
      "chip": "ym2612"
    },
    {
      "channel": 3,
      "note": 79,
      "start": 13.9288,
      "duration": 0.0012,
      "velocity": 82,
      "chip": "ym2612"
    },
    {
      "channel": 3,
      "note": 71,
      "start": 13.93,
      "duration": 0.0275,
      "velocity": 82,
      "chip": "ym2612"
    },
    {
      "channel": 1,
      "note": 59,
      "start": 13.9575,
      "duration": 0.0574,
      "velocity": 100,
      "chip": "ym2612"
    },
    {
      "channel": 2,
      "note": 62,
      "start": 13.9576,
      "duration": 0.0574,
      "velocity": 100,
      "chip": "ym2612"
    },
    {
      "channel": 3,
      "note": 74,
      "start": 13.9576,
      "duration": 0.0012,
      "velocity": 82,
      "chip": "ym2612"
    },
    {
      "channel": 4,
      "note": 41,
      "start": 13.9578,
      "duration": 0.0573,
      "velocity": 105,
      "chip": "ym2612"
    },
    {
      "channel": 3,
      "note": 79,
      "start": 13.9589,
      "duration": 0.0561,
      "velocity": 82,
      "chip": "ym2612"
    },
    {
      "channel": 1,
      "note": 60,
      "start": 14.0149,
      "duration": 0.0084,
      "velocity": 100,
      "chip": "ym2612"
    },
    {
      "channel": 2,
      "note": 64,
      "start": 14.015,
      "duration": 0.0084,
      "velocity": 100,
      "chip": "ym2612"
    },
    {
      "channel": 3,
      "note": 83,
      "start": 14.0151,
      "duration": 0.0012,
      "velocity": 82,
      "chip": "ym2612"
    },
    {
      "channel": 4,
      "note": 36,
      "start": 14.0151,
      "duration": 0.0084,
      "velocity": 105,
      "chip": "ym2612"
    },
    {
      "channel": 3,
      "note": 79,
      "start": 14.0164,
      "duration": 0.0071,
      "velocity": 82,
      "chip": "ym2612"
    },
    {
      "channel": 1,
      "note": 59,
      "start": 14.0234,
      "duration": 0.1343,
      "velocity": 100,
      "chip": "ym2612"
    },
    {
      "channel": 2,
      "note": 62,
      "start": 14.0234,
      "duration": 0.343,
      "velocity": 100,
      "chip": "ym2612"
    },
    {
      "channel": 3,
      "note": 74,
      "start": 14.0236,
      "duration": 0.0012,
      "velocity": 82,
      "chip": "ym2612"
    },
    {
      "channel": 4,
      "note": 35,
      "start": 14.0236,
      "duration": 0.077,
      "velocity": 105,
      "chip": "ym2612"
    },
    {
      "channel": 3,
      "note": 71,
      "start": 14.0249,
      "duration": 0.0758,
      "velocity": 82,
      "chip": "ym2612"
    },
    {
      "channel": 0,
      "note": 55,
      "start": 14.1005,
      "duration": 0.9251,
      "velocity": 127,
      "chip": "ym2612"
    },
    {
      "channel": 3,
      "note": 74,
      "start": 14.1007,
      "duration": 0.0014,
      "velocity": 82,
      "chip": "ym2612"
    },
    {
      "channel": 4,
      "note": 43,
      "start": 14.1007,
      "duration": 0.0571,
      "velocity": 105,
      "chip": "ym2612"
    },
    {
      "channel": 3,
      "note": 67,
      "start": 14.1021,
      "duration": 0.0556,
      "velocity": 82,
      "chip": "ym2612"
    },
    {
      "channel": 1,
      "note": 57,
      "start": 14.1577,
      "duration": 0.2001,
      "velocity": 100,
      "chip": "ym2612"
    },
    {
      "channel": 3,
      "note": 62,
      "start": 14.1578,
      "duration": 0.0999,
      "velocity": 82,
      "chip": "ym2612"
    },
    {
      "channel": 3,
      "note": 55,
      "start": 14.2577,
      "duration": 0.1002,
      "velocity": 82,
      "chip": "ym2612"
    },
    {
      "channel": 1,
      "note": 55,
      "start": 14.3579,
      "duration": 0.0085,
      "velocity": 100,
      "chip": "ym2612"
    },
    {
      "channel": 3,
      "note": 62,
      "start": 14.358,
      "duration": 0.0011,
      "velocity": 82,
      "chip": "ym2612"
    },
    {
      "channel": 4,
      "note": 43,
      "start": 14.3581,
      "duration": 0.0085,
      "velocity": 105,
      "chip": "ym2612"
    },
    {
      "channel": 3,
      "note": 67,
      "start": 14.3592,
      "duration": 0.0073,
      "velocity": 82,
      "chip": "ym2612"
    },
    {
      "channel": 1,
      "note": 62,
      "start": 14.3664,
      "duration": 0.8013,
      "velocity": 100,
      "chip": "ym2612"
    },
    {
      "channel": 2,
      "note": 67,
      "start": 14.3664,
      "duration": 0.3432,
      "velocity": 100,
      "chip": "ym2612"
    },
    {
      "channel": 3,
      "note": 74,
      "start": 14.3666,
      "duration": 0.0012,
      "velocity": 82,
      "chip": "ym2612"
    },
    {
      "channel": 3,
      "note": 67,
      "start": 14.3679,
      "duration": 0.0559,
      "velocity": 82,
      "chip": "ym2612"
    },
    {
      "channel": 3,
      "note": 74,
      "start": 14.4238,
      "duration": 0.0014,
      "velocity": 82,
      "chip": "ym2612"
    },
    {
      "channel": 4,
      "note": 43,
      "start": 14.4238,
      "duration": 0.0771,
      "velocity": 105,
      "chip": "ym2612"
    },
    {
      "channel": 3,
      "note": 67,
      "start": 14.4252,
      "duration": 0.0756,
      "velocity": 82,
      "chip": "ym2612"
    },
    {
      "channel": 3,
      "note": 62,
      "start": 14.5009,
      "duration": 0.0999,
      "velocity": 82,
      "chip": "ym2612"
    },
    {
      "channel": 4,
      "note": 43,
      "start": 14.501,
      "duration": 0.1801,
      "velocity": 105,
      "chip": "ym2612"
    },
    {
      "channel": 3,
      "note": 55,
      "start": 14.6009,
      "duration": 0.0801,
      "velocity": 82,
      "chip": "ym2612"
    },
    {
      "channel": 3,
      "note": 62,
      "start": 14.6811,
      "duration": 0.0013,
      "velocity": 82,
      "chip": "ym2612"
    },
    {
      "channel": 4,
      "note": 41,
      "start": 14.6811,
      "duration": 0.0286,
      "velocity": 105,
      "chip": "ym2612"
    },
    {
      "channel": 3,
      "note": 67,
      "start": 14.6824,
      "duration": 0.0272,
      "velocity": 82,
      "chip": "ym2612"
    },
    {
      "channel": 2,
      "note": 74,
      "start": 14.7096,
      "duration": 0.3145,
      "velocity": 100,
      "chip": "ym2612"
    },
    {
      "channel": 3,
      "note": 74,
      "start": 14.7097,
      "duration": 0.0011,
      "velocity": 82,
      "chip": "ym2612"
    },
    {
      "channel": 4,
      "note": 43,
      "start": 14.7098,
      "duration": 0.057,
      "velocity": 105,
      "chip": "ym2612"
    },
    {
      "channel": 3,
      "note": 67,
      "start": 14.7109,
      "duration": 0.0558,
      "velocity": 82,
      "chip": "ym2612"
    },
    {
      "channel": 3,
      "note": 74,
      "start": 14.7668,
      "duration": 0.0999,
      "velocity": 82,
      "chip": "ym2612"
    },
    {
      "channel": 3,
      "note": 67,
      "start": 14.8667,
      "duration": 0.0801,
      "velocity": 82,
      "chip": "ym2612"
    },
    {
      "channel": 3,
      "note": 62,
      "start": 14.9468,
      "duration": 0.0014,
      "velocity": 82,
      "chip": "ym2612"
    },
    {
      "channel": 4,
      "note": 43,
      "start": 14.9469,
      "duration": 0.0774,
      "velocity": 105,
      "chip": "ym2612"
    },
    {
      "channel": 3,
      "note": 55,
      "start": 14.9483,
      "duration": 0.0759,
      "velocity": 82,
      "chip": "ym2612"
    },
    {
      "channel": 2,
      "note": 72,
      "start": 15.0242,
      "duration": 0.0088,
      "velocity": 100,
      "chip": "ym2612"
    },
    {
      "channel": 3,
      "note": 62,
      "start": 15.0243,
      "duration": 0.0011,
      "velocity": 82,
      "chip": "ym2612"
    },
    {
      "channel": 3,
      "note": 67,
      "start": 15.0254,
      "duration": 0.0076,
      "velocity": 82,
      "chip": "ym2612"
    },
    {
      "channel": 0,
      "note": 55,
      "start": 15.0256,
      "duration": 0.2852,
      "velocity": 127,
      "chip": "ym2612"
    },
    {
      "channel": 2,
      "note": 71,
      "start": 15.0331,
      "duration": 0.1347,
      "velocity": 100,
      "chip": "ym2612"
    },
    {
      "channel": 3,
      "note": 74,
      "start": 15.0331,
      "duration": 0.0014,
      "velocity": 82,
      "chip": "ym2612"
    },
    {
      "channel": 4,
      "note": 38,
      "start": 15.0333,
      "duration": 0.0771,
      "velocity": 105,
      "chip": "ym2612"
    },
    {
      "channel": 3,
      "note": 79,
      "start": 15.0346,
      "duration": 0.0757,
      "velocity": 82,
      "chip": "ym2612"
    },
    {
      "channel": 3,
      "note": 74,
      "start": 15.1103,
      "duration": 0.0013,
      "velocity": 82,
      "chip": "ym2612"
    },
    {
      "channel": 4,
      "note": 43,
      "start": 15.1105,
      "duration": 0.0575,
      "velocity": 105,
      "chip": "ym2612"
    },
    {
      "channel": 3,
      "note": 67,
      "start": 15.1117,
      "duration": 0.0562,
      "velocity": 82,
      "chip": "ym2612"
    },
    {
      "channel": 1,
      "note": 64,
      "start": 15.1678,
      "duration": 0.0574,
      "velocity": 100,
      "chip": "ym2612"
    },
    {
      "channel": 2,
      "note": 67,
      "start": 15.1678,
      "duration": 0.0574,
      "velocity": 100,
      "chip": "ym2612"
    },
    {
      "channel": 3,
      "note": 62,
      "start": 15.1679,
      "duration": 0.0014,
      "velocity": 82,
      "chip": "ym2612"
    },
    {
      "channel": 4,
      "note": 43,
      "start": 15.168,
      "duration": 0.0574,
      "velocity": 105,
      "chip": "ym2612"
    },
    {
      "channel": 3,
      "note": 55,
      "start": 15.1694,
      "duration": 0.056,
      "velocity": 82,
      "chip": "ym2612"
    },
    {
      "channel": 1,
      "note": 65,
      "start": 15.2252,
      "duration": 0.0285,
      "velocity": 100,
      "chip": "ym2612"
    },
    {
      "channel": 2,
      "note": 69,
      "start": 15.2253,
      "duration": 0.0285,
      "velocity": 100,
      "chip": "ym2612"
    },
    {
      "channel": 3,
      "note": 62,
      "start": 15.2254,
      "duration": 0.0013,
      "velocity": 82,
      "chip": "ym2612"
    },
    {
      "channel": 4,
      "note": 45,
      "start": 15.2255,
      "duration": 0.0285,
      "velocity": 105,
      "chip": "ym2612"
    },
    {
      "channel": 3,
      "note": 67,
      "start": 15.2268,
      "duration": 0.0271,
      "velocity": 82,
      "chip": "ym2612"
    },
    {
      "channel": 1,
      "note": 64,
      "start": 15.2538,
      "duration": 0.3232,
      "velocity": 100,
      "chip": "ym2612"
    },
    {
      "channel": 2,
      "note": 67,
      "start": 15.2539,
      "duration": 0.3232,
      "velocity": 100,
      "chip": "ym2612"
    },
    {
      "channel": 3,
      "note": 74,
      "start": 15.2539,
      "duration": 0.0011,
      "velocity": 82,
      "chip": "ym2612"
    },
    {
      "channel": 4,
      "note": 41,
      "start": 15.254,
      "duration": 0.057,
      "velocity": 105,
      "chip": "ym2612"
    },
    {
      "channel": 3,
      "note": 67,
      "start": 15.2551,
      "duration": 0.0558,
      "velocity": 82,
      "chip": "ym2612"
    },
    {
      "channel": 0,
      "note": 53,
      "start": 15.3109,
      "duration": 0.6096,
      "velocity": 127,
      "chip": "ym2612"
    },
    {
      "channel": 3,
      "note": 72,
      "start": 15.311,
      "duration": 0.0013,
      "velocity": 82,
      "chip": "ym2612"
    },
    {
      "channel": 3,
      "note": 65,
      "start": 15.3124,
      "duration": 0.0758,
      "velocity": 82,
      "chip": "ym2612"
    },
    {
      "channel": 3,
      "note": 60,
      "start": 15.3882,
      "duration": 0.08,
      "velocity": 82,
      "chip": "ym2612"
    },
    {
      "channel": 3,
      "note": 53,
      "start": 15.4683,
      "duration": 0.1001,
      "velocity": 82,
      "chip": "ym2612"
    },
    {
      "channel": 3,
      "note": 60,
      "start": 15.5685,
      "duration": 0.0013,
      "velocity": 82,
      "chip": "ym2612"
    },
    {
      "channel": 4,
      "note": 41,
      "start": 15.5685,
      "duration": 0.0086,
      "velocity": 105,
      "chip": "ym2612"
    },
    {
      "channel": 3,
      "note": 65,
      "start": 15.5699,
      "duration": 0.0072,
      "velocity": 82,
      "chip": "ym2612"
    },
    {
      "channel": 1,
      "note": 60,
      "start": 15.577,
      "duration": 0.3435,
      "velocity": 100,
      "chip": "ym2612"
    },
    {
      "channel": 2,
      "note": 64,
      "start": 15.5771,
      "duration": 0.3435,
      "velocity": 100,
      "chip": "ym2612"
    },
    {
      "channel": 3,
      "note": 72,
      "start": 15.5772,
      "duration": 0.0012,
      "velocity": 82,
      "chip": "ym2612"
    },
    {
      "channel": 3,
      "note": 65,
      "start": 15.5785,
      "duration": 0.076,
      "velocity": 82,
      "chip": "ym2612"
    },
    {
      "channel": 3,
      "note": 72,
      "start": 15.6545,
      "duration": 0.0011,
      "velocity": 82,
      "chip": "ym2612"
    },
    {
      "channel": 4,
      "note": 41,
      "start": 15.6546,
      "duration": 0.0571,
      "velocity": 105,
      "chip": "ym2612"
    },
    {
      "channel": 3,
      "note": 65,
      "start": 15.6557,
      "duration": 0.0559,
      "velocity": 82,
      "chip": "ym2612"
    },
    {
      "channel": 3,
      "note": 60,
      "start": 15.7117,
      "duration": 0.0999,
      "velocity": 82,
      "chip": "ym2612"
    },
    {
      "channel": 4,
      "note": 41,
      "start": 15.7117,
      "duration": 0.2001,
      "velocity": 105,
      "chip": "ym2612"
    },
    {
      "channel": 3,
      "note": 53,
      "start": 15.8117,
      "duration": 0.1001,
      "velocity": 82,
      "chip": "ym2612"
    },
    {
      "channel": 3,
      "note": 60,
      "start": 15.9118,
      "duration": 0.0011,
      "velocity": 82,
      "chip": "ym2612"
    },
    {
      "channel": 4,
      "note": 43,
      "start": 15.9118,
      "duration": 0.0089,
      "velocity": 105,
      "chip": "ym2612"
    },
    {
      "channel": 3,
      "note": 65,
      "start": 15.913,
      "duration": 0.0077,
      "velocity": 82,
      "chip": "ym2612"
    },
    {
      "channel": 0,
      "note": 52,
      "start": 15.9205,
      "duration": 0.057,
      "velocity": 127,
      "chip": "ym2612"
    },
    {
      "channel": 1,
      "note": 57,
      "start": 15.9206,
      "duration": 0.4577,
      "velocity": 100,
      "chip": "ym2612"
    },
    {
      "channel": 2,
      "note": 72,
      "start": 15.9206,
      "duration": 0.4577,
      "velocity": 100,
      "chip": "ym2612"
    },
    {
      "channel": 3,
      "note": 72,
      "start": 15.9207,
      "duration": 0.0013,
      "velocity": 82,
      "chip": "ym2612"
    },
    {
      "channel": 4,
      "note": 45,
      "start": 15.9208,
      "duration": 0.0569,
      "velocity": 105,
      "chip": "ym2612"
    },
    {
      "channel": 3,
      "note": 65,
      "start": 15.9221,
      "duration": 0.0556,
      "velocity": 82,
      "chip": "ym2612"
    },
    {
      "channel": 0,
      "note": 45,
      "start": 15.9776,
      "duration": 0.495,
      "velocity": 127,
      "chip": "ym2612"
    },
    {
      "channel": 3,
      "note": 64,
      "start": 15.9777,
      "duration": 0.0013,
      "velocity": 82,
      "chip": "ym2612"
    },
    {
      "channel": 3,
      "note": 76,
      "start": 15.9791,
      "duration": 0.0759,
      "velocity": 82,
      "chip": "ym2612"
    },
    {
      "channel": 3,
      "note": 74,
      "start": 16.0551,
      "duration": 0.0799,
      "velocity": 82,
      "chip": "ym2612"
    },
    {
      "channel": 4,
      "note": 45,
      "start": 16.0551,
      "duration": 0.1799,
      "velocity": 105,
      "chip": "ym2612"
    },
    {
      "channel": 3,
      "note": 76,
      "start": 16.135,
      "duration": 0.1,
      "velocity": 82,
      "chip": "ym2612"
    },
    {
      "channel": 3,
      "note": 72,
      "start": 16.2351,
      "duration": 0.0012,
      "velocity": 82,
      "chip": "ym2612"
    },
    {
      "channel": 3,
      "note": 76,
      "start": 16.2363,
      "duration": 0.0075,
      "velocity": 82,
      "chip": "ym2612"
    },
    {
      "channel": 3,
      "note": 71,
      "start": 16.2439,
      "duration": 0.0012,
      "velocity": 82,
      "chip": "ym2612"
    },
    {
      "channel": 4,
      "note": 40,
      "start": 16.2439,
      "duration": 0.0772,
      "velocity": 105,
      "chip": "ym2612"
    },
    {
      "channel": 3,
      "note": 76,
      "start": 16.2452,
      "duration": 0.0759,
      "velocity": 82,
      "chip": "ym2612"
    },
    {
      "channel": 3,
      "note": 69,
      "start": 16.3211,
      "duration": 0.0012,
      "velocity": 82,
      "chip": "ym2612"
    },
    {
      "channel": 4,
      "note": 45,
      "start": 16.3212,
      "duration": 0.0573,
      "velocity": 105,
      "chip": "ym2612"
    },
    {
      "channel": 3,
      "note": 76,
      "start": 16.3224,
      "duration": 0.056,
      "velocity": 82,
      "chip": "ym2612"
    },
    {
      "channel": 1,
      "note": 59,
      "start": 16.3783,
      "duration": 0.0285,
      "velocity": 100,
      "chip": "ym2612"
    },
    {
      "channel": 2,
      "note": 62,
      "start": 16.3784,
      "duration": 0.0285,
      "velocity": 100,
      "chip": "ym2612"
    },
    {
      "channel": 3,
      "note": 74,
      "start": 16.3784,
      "duration": 0.0014,
      "velocity": 82,
      "chip": "ym2612"
    },
    {
      "channel": 4,
      "note": 50,
      "start": 16.3786,
      "duration": 0.0285,
      "velocity": 105,
      "chip": "ym2612"
    },
    {
      "channel": 3,
      "note": 76,
      "start": 16.3799,
      "duration": 0.0271,
      "velocity": 82,
      "chip": "ym2612"
    },
    {
      "channel": 1,
      "note": 60,
      "start": 16.4069,
      "duration": 0.0085,
      "velocity": 100,
      "chip": "ym2612"
    },
    {
      "channel": 2,
      "note": 64,
      "start": 16.407,
      "duration": 0.0085,
      "velocity": 100,
      "chip": "ym2612"
    },
    {
      "channel": 3,
      "note": 81,
      "start": 16.4071,
      "duration": 0.0011,
      "velocity": 82,
      "chip": "ym2612"
    },
    {
      "channel": 4,
      "note": 52,
      "start": 16.4071,
      "duration": 0.0085,
      "velocity": 105,
      "chip": "ym2612"
    },
    {
      "channel": 3,
      "note": 76,
      "start": 16.4082,
      "duration": 0.0073,
      "velocity": 82,
      "chip": "ym2612"
    },
    {
      "channel": 1,
      "note": 59,
      "start": 16.4154,
      "duration": 0.1345,
      "velocity": 100,
      "chip": "ym2612"
    },
    {
      "channel": 2,
      "note": 62,
      "start": 16.4155,
      "duration": 0.3433,
      "velocity": 100,
      "chip": "ym2612"
    },
    {
      "channel": 3,
      "note": 74,
      "start": 16.4156,
      "duration": 0.0014,
      "velocity": 82,
      "chip": "ym2612"
    },
    {
      "channel": 4,
      "note": 43,
      "start": 16.4157,
      "duration": 0.0571,
      "velocity": 105,
      "chip": "ym2612"
    },
    {
      "channel": 3,
      "note": 72,
      "start": 16.417,
      "duration": 0.0557,
      "velocity": 82,
      "chip": "ym2612"
    },
    {
      "channel": 0,
      "note": 55,
      "start": 16.4726,
      "duration": 0.8026,
      "velocity": 127,
      "chip": "ym2612"
    },
    {
      "channel": 3,
      "note": 74,
      "start": 16.4728,
      "duration": 0.0013,
      "velocity": 82,
      "chip": "ym2612"
    },
    {
      "channel": 3,
      "note": 67,
      "start": 16.4742,
      "duration": 0.0759,
      "velocity": 82,
      "chip": "ym2612"
    },
    {
      "channel": 1,
      "note": 57,
      "start": 16.55,
      "duration": 0.1802,
      "velocity": 100,
      "chip": "ym2612"
    },
    {
      "channel": 3,
      "note": 62,
      "start": 16.5502,
      "duration": 0.0999,
      "velocity": 82,
      "chip": "ym2612"
    },
    {
      "channel": 3,
      "note": 55,
      "start": 16.6501,
      "duration": 0.0802,
      "velocity": 82,
      "chip": "ym2612"
    },
    {
      "channel": 1,
      "note": 55,
      "start": 16.7303,
      "duration": 0.0285,
      "velocity": 100,
      "chip": "ym2612"
    },
    {
      "channel": 3,
      "note": 62,
      "start": 16.7304,
      "duration": 0.0012,
      "velocity": 82,
      "chip": "ym2612"
    },
    {
      "channel": 4,
      "note": 43,
      "start": 16.7305,
      "duration": 0.0285,
      "velocity": 105,
      "chip": "ym2612"
    },
    {
      "channel": 3,
      "note": 67,
      "start": 16.7317,
      "duration": 0.0272,
      "velocity": 82,
      "chip": "ym2612"
    },
    {
      "channel": 1,
      "note": 62,
      "start": 16.7588,
      "duration": 0.8011,
      "velocity": 100,
      "chip": "ym2612"
    },
    {
      "channel": 2,
      "note": 67,
      "start": 16.7588,
      "duration": 0.2004,
      "velocity": 100,
      "chip": "ym2612"
    },
    {
      "channel": 3,
      "note": 74,
      "start": 16.7589,
      "duration": 0.001,
      "velocity": 82,
      "chip": "ym2612"
    },
    {
      "channel": 3,
      "note": 67,
      "start": 16.76,
      "duration": 0.056,
      "velocity": 82,
      "chip": "ym2612"
    },
    {
      "channel": 3,
      "note": 74,
      "start": 16.8161,
      "duration": 0.0013,
      "velocity": 82,
      "chip": "ym2612"
    },
    {
      "channel": 4,
      "note": 43,
      "start": 16.8162,
      "duration": 0.0572,
      "velocity": 105,
      "chip": "ym2612"
    },
    {
      "channel": 3,
      "note": 67,
      "start": 16.8175,
      "duration": 0.0557,
      "velocity": 82,
      "chip": "ym2612"
    },
    {
      "channel": 3,
      "note": 62,
      "start": 16.8733,
      "duration": 0.0013,
      "velocity": 82,
      "chip": "ym2612"
    },
    {
      "channel": 4,
      "note": 43,
      "start": 16.8734,
      "duration": 0.0772,
      "velocity": 105,
      "chip": "ym2612"
    },
    {
      "channel": 3,
      "note": 55,
      "start": 16.8747,
      "duration": 0.0759,
      "velocity": 82,
      "chip": "ym2612"
    },
    {
      "channel": 3,
      "note": 62,
      "start": 16.9507,
      "duration": 0.0013,
      "velocity": 82,
      "chip": "ym2612"
    },
    {
      "channel": 4,
      "note": 41,
      "start": 16.9507,
      "duration": 0.0086,
      "velocity": 105,
      "chip": "ym2612"
    },
    {
      "channel": 3,
      "note": 67,
      "start": 16.952,
      "duration": 0.0072,
      "velocity": 82,
      "chip": "ym2612"
    },
    {
      "channel": 2,
      "note": 74,
      "start": 16.9593,
      "duration": 0.3144,
      "velocity": 100,
      "chip": "ym2612"
    },
    {
      "channel": 3,
      "note": 74,
      "start": 16.9593,
      "duration": 0.0012,
      "velocity": 82,
      "chip": "ym2612"
    },
    {
      "channel": 4,
      "note": 43,
      "start": 16.9594,
      "duration": 0.0769,
      "velocity": 105,
      "chip": "ym2612"
    },
    {
      "channel": 3,
      "note": 67,
      "start": 16.9606,
      "duration": 0.0756,
      "velocity": 82,
      "chip": "ym2612"
    },
    {
      "channel": 3,
      "note": 74,
      "start": 17.0363,
      "duration": 0.0799,
      "velocity": 82,
      "chip": "ym2612"
    },
    {
      "channel": 3,
      "note": 67,
      "start": 17.1162,
      "duration": 0.1001,
      "velocity": 82,
      "chip": "ym2612"
    },
    {
      "channel": 3,
      "note": 79,
      "start": 17.2164,
      "duration": 0.0013,
      "velocity": 82,
      "chip": "ym2612"
    },
    {
      "channel": 4,
      "note": 43,
      "start": 17.2165,
      "duration": 0.0573,
      "velocity": 105,
      "chip": "ym2612"
    },
    {
      "channel": 3,
      "note": 74,
      "start": 17.2178,
      "duration": 0.0559,
      "velocity": 82,
      "chip": "ym2612"
    },
    {
      "channel": 2,
      "note": 72,
      "start": 17.2737,
      "duration": 0.0288,
      "velocity": 100,
      "chip": "ym2612"
    },
    {
      "channel": 3,
      "note": 83,
      "start": 17.2737,
      "duration": 0.0013,
      "velocity": 82,
      "chip": "ym2612"
    },
    {
      "channel": 3,
      "note": 79,
      "start": 17.2751,
      "duration": 0.0274,
      "velocity": 82,
      "chip": "ym2612"
    },
    {
      "channel": 0,
      "note": 55,
      "start": 17.2752,
      "duration": 0.4276,
      "velocity": 127,
      "chip": "ym2612"
    },
    {
      "channel": 2,
      "note": 71,
      "start": 17.3025,
      "duration": 0.2574,
      "velocity": 100,
      "chip": "ym2612"
    },
    {
      "channel": 3,
      "note": 74,
      "start": 17.3026,
      "duration": 0.0011,
      "velocity": 82,
      "chip": "ym2612"
    },
    {
      "channel": 4,
      "note": 38,
      "start": 17.3027,
      "duration": 0.0571,
      "velocity": 105,
      "chip": "ym2612"
    },
    {
      "channel": 3,
      "note": 67,
      "start": 17.3037,
      "duration": 0.056,
      "velocity": 82,
      "chip": "ym2612"
    },
    {
      "channel": 3,
      "note": 79,
      "start": 17.3598,
      "duration": 0.0998,
      "velocity": 82,
      "chip": "ym2612"
    },
    {
      "channel": 4,
      "note": 43,
      "start": 17.3598,
      "duration": 0.2002,
      "velocity": 105,
      "chip": "ym2612"
    },
    {
      "channel": 3,
      "note": 74,
      "start": 17.4596,
      "duration": 0.1003,
      "velocity": 82,
      "chip": "ym2612"
    },
    {
      "channel": 1,
      "note": 64,
      "start": 17.5599,
      "duration": 0.0574,
      "velocity": 100,
      "chip": "ym2612"
    },
    {
      "channel": 2,
      "note": 67,
      "start": 17.56,
      "duration": 0.0574,
      "velocity": 100,
      "chip": "ym2612"
    },
    {
      "channel": 3,
      "note": 67,
      "start": 17.56,
      "duration": 0.0012,
      "velocity": 82,
      "chip": "ym2612"
    },
    {
      "channel": 4,
      "note": 43,
      "start": 17.5601,
      "duration": 0.0574,
      "velocity": 105,
      "chip": "ym2612"
    },
    {
      "channel": 3,
      "note": 62,
      "start": 17.5613,
      "duration": 0.0561,
      "velocity": 82,
      "chip": "ym2612"
    },
    {
      "channel": 1,
      "note": 65,
      "start": 17.6173,
      "duration": 0.0085,
      "velocity": 100,
      "chip": "ym2612"
    },
    {
      "channel": 2,
      "note": 69,
      "start": 17.6173,
      "duration": 0.0085,
      "velocity": 100,
      "chip": "ym2612"
    },
    {
      "channel": 3,
      "note": 71,
      "start": 17.6175,
      "duration": 0.0013,
      "velocity": 82,
      "chip": "ym2612"
    },
    {
      "channel": 4,
      "note": 45,
      "start": 17.6175,
      "duration": 0.0084,
      "velocity": 105,
      "chip": "ym2612"
    },
    {
      "channel": 3,
      "note": 67,
      "start": 17.6188,
      "duration": 0.007,
      "velocity": 82,
      "chip": "ym2612"
    },
    {
      "channel": 1,
      "note": 67,
      "start": 17.6258,
      "duration": 0.3434,
      "velocity": 100,
      "chip": "ym2612"
    },
    {
      "channel": 2,
      "note": 71,
      "start": 17.6259,
      "duration": 0.3434,
      "velocity": 100,
      "chip": "ym2612"
    },
    {
      "channel": 3,
      "note": 62,
      "start": 17.6259,
      "duration": 0.0012,
      "velocity": 82,
      "chip": "ym2612"
    },
    {
      "channel": 4,
      "note": 41,
      "start": 17.626,
      "duration": 0.077,
      "velocity": 105,
      "chip": "ym2612"
    },
    {
      "channel": 3,
      "note": 59,
      "start": 17.6272,
      "duration": 0.0757,
      "velocity": 82,
      "chip": "ym2612"
    },
    {
      "channel": 0,
      "note": 53,
      "start": 17.7028,
      "duration": 0.6094,
      "velocity": 127,
      "chip": "ym2612"
    },
    {
      "channel": 3,
      "note": 57,
      "start": 17.703,
      "duration": 0.001,
      "velocity": 82,
      "chip": "ym2612"
    },
    {
      "channel": 3,
      "note": 62,
      "start": 17.704,
      "duration": 0.0562,
      "velocity": 82,
      "chip": "ym2612"
    },
    {
      "channel": 3,
      "note": 65,
      "start": 17.7603,
      "duration": 0.0999,
      "velocity": 82,
      "chip": "ym2612"
    },
    {
      "channel": 4,
      "note": 41,
      "start": 17.7604,
      "duration": 0.1999,
      "velocity": 105,
      "chip": "ym2612"
    },
    {
      "channel": 3,
      "note": 69,
      "start": 17.8603,
      "duration": 0.0999,
      "velocity": 82,
      "chip": "ym2612"
    },
    {
      "channel": 3,
      "note": 74,
      "start": 17.9603,
      "duration": 0.001,
      "velocity": 82,
      "chip": "ym2612"
    },
    {
      "channel": 3,
      "note": 69,
      "start": 17.9615,
      "duration": 0.0078,
      "velocity": 82,
      "chip": "ym2612"
    },
    {
      "channel": 1,
      "note": 65,
      "start": 17.9692,
      "duration": 0.1344,
      "velocity": 100,
      "chip": "ym2612"
    },
    {
      "channel": 2,
      "note": 69,
      "start": 17.9693,
      "duration": 0.1344,
      "velocity": 100,
      "chip": "ym2612"
    },
    {
      "channel": 3,
      "note": 77,
      "start": 17.9693,
      "duration": 0.0013,
      "velocity": 82,
      "chip": "ym2612"
    },
    {
      "channel": 4,
      "note": 36,
      "start": 17.9694,
      "duration": 0.0572,
      "velocity": 105,
      "chip": "ym2612"
    },
    {
      "channel": 3,
      "note": 74,
      "start": 17.9707,
      "duration": 0.0559,
      "velocity": 82,
      "chip": "ym2612"
    },
    {
      "channel": 3,
      "note": 81,
      "start": 18.0266,
      "duration": 0.0013,
      "velocity": 82,
      "chip": "ym2612"
    },
    {
      "channel": 4,
      "note": 41,
      "start": 18.0266,
      "duration": 0.0772,
      "velocity": 105,
      "chip": "ym2612"
    },
    {
      "channel": 3,
      "note": 77,
      "start": 18.0279,
      "duration": 0.0759,
      "velocity": 82,
      "chip": "ym2612"
    },
    {
      "channel": 1,
      "note": 67,
      "start": 18.1037,
      "duration": 0.1801,
      "velocity": 100,
      "chip": "ym2612"
    },
    {
      "channel": 2,
      "note": 71,
      "start": 18.1038,
      "duration": 0.18,
      "velocity": 100,
      "chip": "ym2612"
    },
    {
      "channel": 3,
      "note": 74,
      "start": 18.1038,
      "duration": 0.0797,
      "velocity": 82,
      "chip": "ym2612"
    },
    {
      "channel": 4,
      "note": 41,
      "start": 18.1039,
      "duration": 0.1801,
      "velocity": 105,
      "chip": "ym2612"
    },
    {
      "channel": 3,
      "note": 69,
      "start": 18.1836,
      "duration": 0.1003,
      "velocity": 82,
      "chip": "ym2612"
    },
    {
      "channel": 1,
      "note": 69,
      "start": 18.2838,
      "duration": 0.1433,
      "velocity": 100,
      "chip": "ym2612"
    },
    {
      "channel": 2,
      "note": 72,
      "start": 18.2839,
      "duration": 0.1433,
      "velocity": 100,
      "chip": "ym2612"
    },
    {
      "channel": 3,
      "note": 67,
      "start": 18.2839,
      "duration": 0.0014,
      "velocity": 82,
      "chip": "ym2612"
    },
    {
      "channel": 4,
      "note": 40,
      "start": 18.284,
      "duration": 0.0284,
      "velocity": 105,
      "chip": "ym2612"
    },
    {
      "channel": 3,
      "note": 69,
      "start": 18.2854,
      "duration": 0.0269,
      "velocity": 82,
      "chip": "ym2612"
    },
    {
      "channel": 0,
      "note": 52,
      "start": 18.3123,
      "duration": 0.0573,
      "velocity": 127,
      "chip": "ym2612"
    },
    {
      "channel": 3,
      "note": 65,
      "start": 18.3124,
      "duration": 0.0012,
      "velocity": 82,
      "chip": "ym2612"
    },
    {
      "channel": 4,
      "note": 38,
      "start": 18.3125,
      "duration": 0.0573,
      "velocity": 105,
      "chip": "ym2612"
    },
    {
      "channel": 3,
      "note": 69,
      "start": 18.3137,
      "duration": 0.0561,
      "velocity": 82,
      "chip": "ym2612"
    },
    {
      "channel": 0,
      "note": 50,
      "start": 18.3696,
      "duration": 0.3432,
      "velocity": 127,
      "chip": "ym2612"
    },
    {
      "channel": 3,
      "note": 64,
      "start": 18.3698,
      "duration": 0.0012,
      "velocity": 82,
      "chip": "ym2612"
    },
    {
      "channel": 3,
      "note": 69,
      "start": 18.3711,
      "duration": 0.0562,
      "velocity": 82,
      "chip": "ym2612"
    },
    {
      "channel": 1,
      "note": 67,
      "start": 18.4272,
      "duration": 0.1999,
      "velocity": 100,
      "chip": "ym2612"
    },
    {
      "channel": 2,
      "note": 71,
      "start": 18.4273,
      "duration": 0.2,
      "velocity": 100,
      "chip": "ym2612"
    },
    {
      "channel": 3,
      "note": 68,
      "start": 18.4273,
      "duration": 0.0997,
      "velocity": 82,
      "chip": "ym2612"
    },
    {
      "channel": 4,
      "note": 33,
      "start": 18.4274,
      "duration": 0.2,
      "velocity": 105,
      "chip": "ym2612"
    },
    {
      "channel": 3,
      "note": 69,
      "start": 18.5271,
      "duration": 0.1002,
      "velocity": 82,
      "chip": "ym2612"
    },
    {
      "channel": 1,
      "note": 69,
      "start": 18.6272,
      "duration": 0.0084,
      "velocity": 100,
      "chip": "ym2612"
    },
    {
      "channel": 2,
      "note": 72,
      "start": 18.6273,
      "duration": 0.0084,
      "velocity": 100,
      "chip": "ym2612"
    },
    {
      "channel": 3,
      "note": 71,
      "start": 18.6273,
      "duration": 0.0011,
      "velocity": 82,
      "chip": "ym2612"
    },
    {
      "channel": 4,
      "note": 38,
      "start": 18.6275,
      "duration": 0.0083,
      "velocity": 105,
      "chip": "ym2612"
    },
    {
      "channel": 3,
      "note": 64,
      "start": 18.6285,
      "duration": 0.0072,
      "velocity": 82,
      "chip": "ym2612"
    },
    {
      "channel": 1,
      "note": 71,
      "start": 18.6357,
      "duration": 0.0788,
      "velocity": 100,
      "chip": "ym2612"
    },
    {
      "channel": 2,
      "note": 74,
      "start": 18.6357,
      "duration": 0.0788,
      "velocity": 100,
      "chip": "ym2612"
    },
    {
      "channel": 3,
      "note": 68,
      "start": 18.6358,
      "duration": 0.0013,
      "velocity": 82,
      "chip": "ym2612"
    },
    {
      "channel": 4,
      "note": 40,
      "start": 18.6359,
      "duration": 0.0771,
      "velocity": 105,
      "chip": "ym2612"
    },
    {
      "channel": 3,
      "note": 71,
      "start": 18.6371,
      "duration": 0.0758,
      "velocity": 82,
      "chip": "ym2612"
    },
    {
      "channel": 0,
      "note": 52,
      "start": 18.7128,
      "duration": 0.152,
      "velocity": 127,
      "chip": "ym2612"
    },
    {
      "channel": 3,
      "note": 74,
      "start": 18.713,
      "duration": 0.0011,
      "velocity": 82,
      "chip": "ym2612"
    },
    {
      "channel": 3,
      "note": 67,
      "start": 18.7141,
      "duration": 0.0076,
      "velocity": 82,
      "chip": "ym2612"
    },
    {
      "channel": 1,
      "note": 72,
      "start": 18.7145,
      "duration": 0.008,
      "velocity": 100,
      "chip": "ym2612"
    },
    {
      "channel": 2,
      "note": 76,
      "start": 18.7146,
      "duration": 0.008,
      "velocity": 100,
      "chip": "ym2612"
    },
    {
      "channel": 3,
      "note": 71,
      "start": 18.7218,
      "duration": 0.0014,
      "velocity": 82,
      "chip": "ym2612"
    },
    {
      "channel": 4,
      "note": 40,
      "start": 18.7218,
      "duration": 0.0574,
      "velocity": 105,
      "chip": "ym2612"
    },
    {
      "channel": 1,
      "note": 74,
      "start": 18.7226,
      "duration": 0.0565,
      "velocity": 100,
      "chip": "ym2612"
    },
    {
      "channel": 2,
      "note": 77,
      "start": 18.7227,
      "duration": 0.0565,
      "velocity": 100,
      "chip": "ym2612"
    },
    {
      "channel": 3,
      "note": 74,
      "start": 18.7232,
      "duration": 0.0559,
      "velocity": 82,
      "chip": "ym2612"
    },
    {
      "channel": 1,
      "note": 76,
      "start": 18.7791,
      "duration": 0.0019,
      "velocity": 100,
      "chip": "ym2612"
    },
    {
      "channel": 2,
      "note": 79,
      "start": 18.7792,
      "duration": 0.0019,
      "velocity": 100,
      "chip": "ym2612"
    },
    {
      "channel": 3,
      "note": 76,
      "start": 18.7792,
      "duration": 0.0013,
      "velocity": 82,
      "chip": "ym2612"
    },
    {
      "channel": 4,
      "note": 43,
      "start": 18.7793,
      "duration": 0.0284,
      "velocity": 105,
      "chip": "ym2612"
    },
    {
      "channel": 3,
      "note": 79,
      "start": 18.7806,
      "duration": 0.027,
      "velocity": 82,
      "chip": "ym2612"
    },
    {
      "channel": 1,
      "note": 77,
      "start": 18.781,
      "duration": 0.0275,
      "velocity": 100,
      "chip": "ym2612"
    },
    {
      "channel": 2,
      "note": 81,
      "start": 18.781,
      "duration": 0.0275,
      "velocity": 100,
      "chip": "ym2612"
    },
    {
      "channel": 3,
      "note": 83,
      "start": 18.8076,
      "duration": 0.0012,
      "velocity": 82,
      "chip": "ym2612"
    },
    {
      "channel": 4,
      "note": 45,
      "start": 18.8078,
      "duration": 0.0573,
      "velocity": 105,
      "chip": "ym2612"
    },
    {
      "channel": 1,
      "note": 79,
      "start": 18.8085,
      "duration": 0.0563,
      "velocity": 100,
      "chip": "ym2612"
    },
    {
      "channel": 2,
      "note": 83,
      "start": 18.8086,
      "duration": 0.0563,
      "velocity": 100,
      "chip": "ym2612"
    },
    {
      "channel": 3,
      "note": 86,
      "start": 18.8089,
      "duration": 0.0561,
      "velocity": 82,
      "chip": "ym2612"
    },
    {
      "channel": 0,
      "note": 45,
      "start": 18.8649,
      "duration": 1.9995,
      "velocity": 127,
      "chip": "ym2612"
    },
    {
      "channel": 1,
      "note": 81,
      "start": 18.8649,
      "duration": 0.0996,
      "velocity": 100,
      "chip": "ym2612"
    },
    {
      "channel": 2,
      "note": 84,
      "start": 18.865,
      "duration": 0.0996,
      "velocity": 100,
      "chip": "ym2612"
    },
    {
      "channel": 3,
      "note": 69,
      "start": 18.8651,
      "duration": 0.0996,
      "velocity": 82,
      "chip": "ym2612"
    },
    {
      "channel": 3,
      "note": 76,
      "start": 18.9647,
      "duration": 0.0798,
      "velocity": 82,
      "chip": "ym2612"
    },
    {
      "channel": 3,
      "note": 81,
      "start": 19.0446,
      "duration": 0.0999,
      "velocity": 82,
      "chip": "ym2612"
    },
    {
      "channel": 3,
      "note": 88,
      "start": 19.1446,
      "duration": 0.0999,
      "velocity": 82,
      "chip": "ym2612"
    },
    {
      "channel": 3,
      "note": 81,
      "start": 19.2446,
      "duration": 0.0999,
      "velocity": 82,
      "chip": "ym2612"
    },
    {
      "channel": 3,
      "note": 76,
      "start": 19.3446,
      "duration": 0.0799,
      "velocity": 82,
      "chip": "ym2612"
    },
    {
      "channel": 3,
      "note": 74,
      "start": 19.4246,
      "duration": 0.0999,
      "velocity": 82,
      "chip": "ym2612"
    },
    {
      "channel": 3,
      "note": 76,
      "start": 19.5246,
      "duration": 0.0999,
      "velocity": 82,
      "chip": "ym2612"
    },
    {
      "channel": 3,
      "note": 81,
      "start": 19.6246,
      "duration": 0.0799,
      "velocity": 82,
      "chip": "ym2612"
    },
    {
      "channel": 3,
      "note": 76,
      "start": 19.7046,
      "duration": 0.0999,
      "velocity": 82,
      "chip": "ym2612"
    },
    {
      "channel": 3,
      "note": 74,
      "start": 19.8046,
      "duration": 0.0999,
      "velocity": 82,
      "chip": "ym2612"
    },
    {
      "channel": 3,
      "note": 76,
      "start": 19.9046,
      "duration": 0.0799,
      "velocity": 82,
      "chip": "ym2612"
    },
    {
      "channel": 3,
      "note": 72,
      "start": 19.9846,
      "duration": 0.0999,
      "velocity": 82,
      "chip": "ym2612"
    },
    {
      "channel": 3,
      "note": 76,
      "start": 20.0846,
      "duration": 0.0999,
      "velocity": 82,
      "chip": "ym2612"
    },
    {
      "channel": 3,
      "note": 71,
      "start": 20.1846,
      "duration": 0.0999,
      "velocity": 82,
      "chip": "ym2612"
    },
    {
      "channel": 3,
      "note": 76,
      "start": 20.2846,
      "duration": 0.0799,
      "velocity": 82,
      "chip": "ym2612"
    },
    {
      "channel": 3,
      "note": 69,
      "start": 20.3646,
      "duration": 0.0999,
      "velocity": 82,
      "chip": "ym2612"
    },
    {
      "channel": 3,
      "note": 76,
      "start": 20.4646,
      "duration": 0.1,
      "velocity": 82,
      "chip": "ym2612"
    },
    {
      "channel": 3,
      "note": 81,
      "start": 20.5646,
      "duration": 0.0799,
      "velocity": 82,
      "chip": "ym2612"
    },
    {
      "channel": 3,
      "note": 88,
      "start": 20.6446,
      "duration": 0.0999,
      "velocity": 82,
      "chip": "ym2612"
    },
    {
      "channel": 3,
      "note": 81,
      "start": 20.7446,
      "duration": 0.0999,
      "velocity": 82,
      "chip": "ym2612"
    },
    {
      "channel": 3,
      "note": 76,
      "start": 20.8446,
      "duration": 0.0799,
      "velocity": 82,
      "chip": "ym2612"
    },
    {
      "channel": 0,
      "note": 45,
      "start": 20.8644,
      "duration": 0.3009,
      "velocity": 127,
      "chip": "ym2612"
    },
    {
      "channel": 3,
      "note": 74,
      "start": 20.9245,
      "duration": 0.0999,
      "velocity": 82,
      "chip": "ym2612"
    },
    {
      "channel": 3,
      "note": 76,
      "start": 21.0245,
      "duration": 0.1001,
      "velocity": 82,
      "chip": "ym2612"
    },
    {
      "channel": 3,
      "note": 81,
      "start": 21.1246,
      "duration": 0.0008,
      "velocity": 82,
      "chip": "ym2612"
    },
    {
      "channel": 3,
      "note": 76,
      "start": 21.1255,
      "duration": 0.0077,
      "velocity": 82,
      "chip": "ym2612"
    },
    {
      "channel": 3,
      "note": 74,
      "start": 21.1333,
      "duration": 0.001,
      "velocity": 82,
      "chip": "ym2612"
    },
    {
      "channel": 3,
      "note": 76,
      "start": 21.1343,
      "duration": 0.0276,
      "velocity": 82,
      "chip": "ym2612"
    },
    {
      "channel": 3,
      "note": 72,
      "start": 21.162,
      "duration": 0.0013,
      "velocity": 82,
      "chip": "ym2612"
    },
    {
      "channel": 3,
      "note": 76,
      "start": 21.1634,
      "duration": 0.0008,
      "velocity": 82,
      "chip": "ym2612"
    },
    {
      "channel": 3,
      "note": 71,
      "start": 21.1642,
      "duration": 0.0011,
      "velocity": 82,
      "chip": "ym2612"
    },
    {
      "channel": 3,
      "note": 76,
      "start": 21.1654,
      "duration": 0.0024,
      "velocity": 98,
      "chip": "ym2612"
    },
    {
      "channel": 0,
      "note": 42,
      "start": 21.1663,
      "duration": 0.599,
      "velocity": 120,
      "chip": "ym2612"
    },
    {
      "channel": 1,
      "note": 66,
      "start": 21.1668,
      "duration": 0.0726,
      "velocity": 113,
      "chip": "ym2612"
    },
    {
      "channel": 4,
      "note": 42,
      "start": 21.1678,
      "duration": 0.1517,
      "velocity": 105,
      "chip": "ym2612"
    },
    {
      "channel": 1,
      "note": 66,
      "start": 21.2395,
      "duration": 0.1801,
      "velocity": 113,
      "chip": "ym2612"
    },
    {
      "channel": 2,
      "note": 66,
      "start": 21.3196,
      "duration": 0.1013,
      "velocity": 113,
      "chip": "ym2612"
    },
    {
      "channel": 1,
      "note": 69,
      "start": 21.4196,
      "duration": 0.0286,
      "velocity": 113,
      "chip": "ym2612"
    },
    {
      "channel": 4,
      "note": 42,
      "start": 21.4198,
      "duration": 0.0884,
      "velocity": 105,
      "chip": "ym2612"
    },
    {
      "channel": 2,
      "note": 66,
      "start": 21.421,
      "duration": 0.1072,
      "velocity": 113,
      "chip": "ym2612"
    },
    {
      "channel": 1,
      "note": 66,
      "start": 21.4483,
      "duration": 0.1804,
      "velocity": 113,
      "chip": "ym2612"
    },
    {
      "channel": 2,
      "note": 69,
      "start": 21.5283,
      "duration": 0.1018,
      "velocity": 113,
      "chip": "ym2612"
    },
    {
      "channel": 1,
      "note": 71,
      "start": 21.6288,
      "duration": 0.0571,
      "velocity": 113,
      "chip": "ym2612"
    },
    {
      "channel": 3,
      "note": 61,
      "start": 21.6289,
      "duration": 0.057,
      "velocity": 98,
      "chip": "ym2612"
    },
    {
      "channel": 4,
      "note": 42,
      "start": 21.629,
      "duration": 0.0019,
      "velocity": 105,
      "chip": "ym2612"
    },
    {
      "channel": 2,
      "note": 66,
      "start": 21.6301,
      "duration": 0.0573,
      "velocity": 113,
      "chip": "ym2612"
    },
    {
      "channel": 1,
      "note": 66,
      "start": 21.6859,
      "duration": 0.0773,
      "velocity": 113,
      "chip": "ym2612"
    },
    {
      "channel": 3,
      "note": 62,
      "start": 21.686,
      "duration": 0.0773,
      "velocity": 98,
      "chip": "ym2612"
    },
    {
      "channel": 4,
      "note": 42,
      "start": 21.6861,
      "duration": 0.0168,
      "velocity": 105,
      "chip": "ym2612"
    },
    {
      "channel": 2,
      "note": 71,
      "start": 21.6873,
      "duration": 0.0771,
      "velocity": 113,
      "chip": "ym2612"
    },
    {
      "channel": 1,
      "note": 69,
      "start": 21.7632,
      "duration": 0.0088,
      "velocity": 113,
      "chip": "ym2612"
    },
    {
      "channel": 3,
      "note": 64,
      "start": 21.7633,
      "duration": 0.0017,
      "velocity": 98,
      "chip": "ym2612"
    },
    {
      "channel": 4,
      "note": 42,
      "start": 21.7634,
      "duration": 0.002,
      "velocity": 105,
      "chip": "ym2612"
    },
    {
      "channel": 2,
      "note": 66,
      "start": 21.7644,
      "duration": 0.0091,
      "velocity": 113,
      "chip": "ym2612"
    },
    {
      "channel": 0,
      "note": 38,
      "start": 21.7721,
      "duration": 0.4369,
      "velocity": 120,
      "chip": "ym2612"
    },
    {
      "channel": 1,
      "note": 66,
      "start": 21.7721,
      "duration": 0.0767,
      "velocity": 113,
      "chip": "ym2612"
    },
    {
      "channel": 3,
      "note": 64,
      "start": 21.7723,
      "duration": 0.257,
      "velocity": 98,
      "chip": "ym2612"
    },
    {
      "channel": 4,
      "note": 38,
      "start": 21.7723,
      "duration": 0.1766,
      "velocity": 105,
      "chip": "ym2612"
    },
    {
      "channel": 2,
      "note": 69,
      "start": 21.7735,
      "duration": 0.1554,
      "velocity": 113,
      "chip": "ym2612"
    },
    {
      "channel": 1,
      "note": 66,
      "start": 21.8489,
      "duration": 0.1802,
      "velocity": 113,
      "chip": "ym2612"
    },
    {
      "channel": 2,
      "note": 66,
      "start": 21.929,
      "duration": 0.1016,
      "velocity": 113,
      "chip": "ym2612"
    },
    {
      "channel": 1,
      "note": 66,
      "start": 22.0292,
      "duration": 0.057,
      "velocity": 113,
      "chip": "ym2612"
    },
    {
      "channel": 3,
      "note": 62,
      "start": 22.0293,
      "duration": 0.0653,
      "velocity": 98,
      "chip": "ym2612"
    },
    {
      "channel": 4,
      "note": 38,
      "start": 22.0294,
      "duration": 0.0584,
      "velocity": 105,
      "chip": "ym2612"
    },
    {
      "channel": 2,
      "note": 66,
      "start": 22.0306,
      "duration": 0.0569,
      "velocity": 113,
      "chip": "ym2612"
    },
    {
      "channel": 1,
      "note": 69,
      "start": 22.0862,
      "duration": 0.0288,
      "velocity": 113,
      "chip": "ym2612"
    },
    {
      "channel": 2,
      "note": 66,
      "start": 22.0875,
      "duration": 0.0287,
      "velocity": 113,
      "chip": "ym2612"
    },
    {
      "channel": 1,
      "note": 66,
      "start": 22.115,
      "duration": 0.0569,
      "velocity": 113,
      "chip": "ym2612"
    },
    {
      "channel": 3,
      "note": 61,
      "start": 22.1151,
      "duration": 0.1139,
      "velocity": 98,
      "chip": "ym2612"
    },
    {
      "channel": 4,
      "note": 38,
      "start": 22.1152,
      "duration": 0.0588,
      "velocity": 105,
      "chip": "ym2612"
    },
    {
      "channel": 2,
      "note": 69,
      "start": 22.1162,
      "duration": 0.057,
      "velocity": 113,
      "chip": "ym2612"
    },
    {
      "channel": 1,
      "note": 71,
      "start": 22.172,
      "duration": 0.0775,
      "velocity": 113,
      "chip": "ym2612"
    },
    {
      "channel": 2,
      "note": 66,
      "start": 22.1732,
      "duration": 0.1559,
      "velocity": 113,
      "chip": "ym2612"
    },
    {
      "channel": 0,
      "note": 38,
      "start": 22.2495,
      "duration": 0.1888,
      "velocity": 120,
      "chip": "ym2612"
    },
    {
      "channel": 1,
      "note": 66,
      "start": 22.2495,
      "duration": 0.18,
      "velocity": 113,
      "chip": "ym2612"
    },
    {
      "channel": 3,
      "note": 59,
      "start": 22.2496,
      "duration": 0.1799,
      "velocity": 98,
      "chip": "ym2612"
    },
    {
      "channel": 4,
      "note": 38,
      "start": 22.2497,
      "duration": 0.0994,
      "velocity": 105,
      "chip": "ym2612"
    },
    {
      "channel": 2,
      "note": 71,
      "start": 22.3292,
      "duration": 0.1017,
      "velocity": 113,
      "chip": "ym2612"
    },
    {
      "channel": 1,
      "note": 69,
      "start": 22.4295,
      "duration": 0.0088,
      "velocity": 113,
      "chip": "ym2612"
    },
    {
      "channel": 3,
      "note": 57,
      "start": 22.4296,
      "duration": 0.0088,
      "velocity": 98,
      "chip": "ym2612"
    },
    {
      "channel": 4,
      "note": 38,
      "start": 22.4297,
      "duration": 0.0012,
      "velocity": 105,
      "chip": "ym2612"
    },
    {
      "channel": 2,
      "note": 66,
      "start": 22.4309,
      "duration": 0.0088,
      "velocity": 113,
      "chip": "ym2612"
    },
    {
      "channel": 0,
      "note": 40,
      "start": 22.4383,
      "duration": 0.0167,
      "velocity": 120,
      "chip": "ym2612"
    },
    {
      "channel": 1,
      "note": 64,
      "start": 22.4383,
      "duration": 0.0769,
      "velocity": 113,
      "chip": "ym2612"
    },
    {
      "channel": 3,
      "note": 59,
      "start": 22.4385,
      "duration": 0.9254,
      "velocity": 98,
      "chip": "ym2612"
    },
    {
      "channel": 4,
      "note": 38,
      "start": 22.4385,
      "duration": 0.0769,
      "velocity": 105,
      "chip": "ym2612"
    },
    {
      "channel": 2,
      "note": 69,
      "start": 22.4397,
      "duration": 0.0769,
      "velocity": 113,
      "chip": "ym2612"
    },
    {
      "channel": 0,
      "note": 40,
      "start": 22.5153,
      "duration": 0.5815,
      "velocity": 120,
      "chip": "ym2612"
    },
    {
      "channel": 1,
      "note": 64,
      "start": 22.5154,
      "duration": 0.057,
      "velocity": 113,
      "chip": "ym2612"
    },
    {
      "channel": 4,
      "note": 40,
      "start": 22.5155,
      "duration": 0.1369,
      "velocity": 105,
      "chip": "ym2612"
    },
    {
      "channel": 2,
      "note": 64,
      "start": 22.5166,
      "duration": 0.1558,
      "velocity": 113,
      "chip": "ym2612"
    },
    {
      "channel": 1,
      "note": 64,
      "start": 22.5724,
      "duration": 0.18,
      "velocity": 113,
      "chip": "ym2612"
    },
    {
      "channel": 2,
      "note": 64,
      "start": 22.6724,
      "duration": 0.0815,
      "velocity": 113,
      "chip": "ym2612"
    },
    {
      "channel": 1,
      "note": 68,
      "start": 22.7525,
      "duration": 0.0284,
      "velocity": 113,
      "chip": "ym2612"
    },
    {
      "channel": 4,
      "note": 40,
      "start": 22.7527,
      "duration": 0.1083,
      "velocity": 105,
      "chip": "ym2612"
    },
    {
      "channel": 2,
      "note": 64,
      "start": 22.7539,
      "duration": 0.1271,
      "velocity": 113,
      "chip": "ym2612"
    },
    {
      "channel": 1,
      "note": 64,
      "start": 22.781,
      "duration": 0.1801,
      "velocity": 113,
      "chip": "ym2612"
    },
    {
      "channel": 2,
      "note": 68,
      "start": 22.881,
      "duration": 0.0815,
      "velocity": 113,
      "chip": "ym2612"
    },
    {
      "channel": 1,
      "note": 69,
      "start": 22.9611,
      "duration": 0.0773,
      "velocity": 113,
      "chip": "ym2612"
    },
    {
      "channel": 4,
      "note": 40,
      "start": 22.9613,
      "duration": 0.017,
      "velocity": 105,
      "chip": "ym2612"
    },
    {
      "channel": 2,
      "note": 64,
      "start": 22.9625,
      "duration": 0.077,
      "velocity": 113,
      "chip": "ym2612"
    },
    {
      "channel": 1,
      "note": 64,
      "start": 23.0384,
      "duration": 0.0571,
      "velocity": 113,
      "chip": "ym2612"
    },
    {
      "channel": 4,
      "note": 40,
      "start": 23.0386,
      "duration": 0.0586,
      "velocity": 105,
      "chip": "ym2612"
    },
    {
      "channel": 2,
      "note": 69,
      "start": 23.0395,
      "duration": 0.0573,
      "velocity": 113,
      "chip": "ym2612"
    },
    {
      "channel": 1,
      "note": 68,
      "start": 23.0956,
      "duration": 0.0087,
      "velocity": 113,
      "chip": "ym2612"
    },
    {
      "channel": 2,
      "note": 64,
      "start": 23.0969,
      "duration": 0.0089,
      "velocity": 113,
      "chip": "ym2612"
    },
    {
      "channel": 0,
      "note": 40,
      "start": 23.1043,
      "duration": 0.7435,
      "velocity": 120,
      "chip": "ym2612"
    },
    {
      "channel": 1,
      "note": 64,
      "start": 23.1044,
      "duration": 0.0771,
      "velocity": 113,
      "chip": "ym2612"
    },
    {
      "channel": 4,
      "note": 40,
      "start": 23.1046,
      "duration": 0.1769,
      "velocity": 105,
      "chip": "ym2612"
    },
    {
      "channel": 2,
      "note": 68,
      "start": 23.1058,
      "duration": 0.1756,
      "velocity": 113,
      "chip": "ym2612"
    },
    {
      "channel": 1,
      "note": 71,
      "start": 23.1814,
      "duration": 0.1801,
      "velocity": 113,
      "chip": "ym2612"
    },
    {
      "channel": 2,
      "note": 64,
      "start": 23.2814,
      "duration": 0.0815,
      "velocity": 113,
      "chip": "ym2612"
    },
    {
      "channel": 1,
      "note": 64,
      "start": 23.3615,
      "duration": 0.0772,
      "velocity": 113,
      "chip": "ym2612"
    },
    {
      "channel": 4,
      "note": 40,
      "start": 23.3617,
      "duration": 0.078,
      "velocity": 105,
      "chip": "ym2612"
    },
    {
      "channel": 2,
      "note": 71,
      "start": 23.3629,
      "duration": 0.0769,
      "velocity": 113,
      "chip": "ym2612"
    },
    {
      "channel": 3,
      "note": 59,
      "start": 23.3638,
      "duration": 0.444,
      "velocity": 98,
      "chip": "ym2612"
    },
    {
      "channel": 1,
      "note": 69,
      "start": 23.4388,
      "duration": 0.0087,
      "velocity": 113,
      "chip": "ym2612"
    },
    {
      "channel": 2,
      "note": 64,
      "start": 23.4399,
      "duration": 0.009,
      "velocity": 113,
      "chip": "ym2612"
    },
    {
      "channel": 1,
      "note": 64,
      "start": 23.4475,
      "duration": 0.0571,
      "velocity": 113,
      "chip": "ym2612"
    },
    {
      "channel": 4,
      "note": 40,
      "start": 23.4477,
      "duration": 0.1144,
      "velocity": 105,
      "chip": "ym2612"
    },
    {
      "channel": 2,
      "note": 69,
      "start": 23.4488,
      "duration": 0.0572,
      "velocity": 113,
      "chip": "ym2612"
    },
    {
      "channel": 1,
      "note": 68,
      "start": 23.5046,
      "duration": 0.0774,
      "velocity": 113,
      "chip": "ym2612"
    },
    {
      "channel": 2,
      "note": 64,
      "start": 23.506,
      "duration": 0.176,
      "velocity": 113,
      "chip": "ym2612"
    },
    {
      "channel": 1,
      "note": 64,
      "start": 23.5821,
      "duration": 0.18,
      "velocity": 113,
      "chip": "ym2612"
    },
    {
      "channel": 4,
      "note": 35,
      "start": 23.5822,
      "duration": 0.1801,
      "velocity": 105,
      "chip": "ym2612"
    },
    {
      "channel": 2,
      "note": 68,
      "start": 23.682,
      "duration": 0.0815,
      "velocity": 113,
      "chip": "ym2612"
    },
    {
      "channel": 1,
      "note": 64,
      "start": 23.7621,
      "duration": 0.0285,
      "velocity": 113,
      "chip": "ym2612"
    },
    {
      "channel": 4,
      "note": 40,
      "start": 23.7623,
      "duration": 0.0285,
      "velocity": 105,
      "chip": "ym2612"
    },
    {
      "channel": 2,
      "note": 64,
      "start": 23.7635,
      "duration": 0.0283,
      "velocity": 113,
      "chip": "ym2612"
    },
    {
      "channel": 1,
      "note": 66,
      "start": 23.7907,
      "duration": 0.0572,
      "velocity": 113,
      "chip": "ym2612"
    },
    {
      "channel": 4,
      "note": 35,
      "start": 23.7909,
      "duration": 0.0369,
      "velocity": 105,
      "chip": "ym2612"
    },
    {
      "channel": 2,
      "note": 64,
      "start": 23.7919,
      "duration": 0.0573,
      "velocity": 113,
      "chip": "ym2612"
    },
    {
      "channel": 4,
      "note": 35,
      "start": 23.8278,
      "duration": 0.0202,
      "velocity": 105,
      "chip": "ym2612"
    },
    {
      "channel": 0,
      "note": 42,
      "start": 23.8479,
      "duration": 0.5829,
      "velocity": 120,
      "chip": "ym2612"
    },
    {
      "channel": 1,
      "note": 66,
      "start": 23.848,
      "duration": 0.0571,
      "velocity": 113,
      "chip": "ym2612"
    },
    {
      "channel": 4,
      "note": 42,
      "start": 23.8481,
      "duration": 0.137,
      "velocity": 105,
      "chip": "ym2612"
    },
    {
      "channel": 2,
      "note": 66,
      "start": 23.8493,
      "duration": 0.1558,
      "velocity": 113,
      "chip": "ym2612"
    },
    {
      "channel": 1,
      "note": 66,
      "start": 23.9052,
      "duration": 0.2001,
      "velocity": 113,
      "chip": "ym2612"
    },
    {
      "channel": 2,
      "note": 66,
      "start": 24.0051,
      "duration": 0.1015,
      "velocity": 113,
      "chip": "ym2612"
    },
    {
      "channel": 1,
      "note": 69,
      "start": 24.1053,
      "duration": 0.0086,
      "velocity": 113,
      "chip": "ym2612"
    },
    {
      "channel": 4,
      "note": 42,
      "start": 24.1054,
      "duration": 0.0885,
      "velocity": 105,
      "chip": "ym2612"
    },
    {
      "channel": 2,
      "note": 66,
      "start": 24.1066,
      "duration": 0.1072,
      "velocity": 113,
      "chip": "ym2612"
    },
    {
      "channel": 1,
      "note": 66,
      "start": 24.1139,
      "duration": 0.2003,
      "velocity": 113,
      "chip": "ym2612"
    },
    {
      "channel": 2,
      "note": 69,
      "start": 24.2139,
      "duration": 0.1016,
      "velocity": 113,
      "chip": "ym2612"
    },
    {
      "channel": 1,
      "note": 71,
      "start": 24.3143,
      "duration": 0.0573,
      "velocity": 113,
      "chip": "ym2612"
    },
    {
      "channel": 3,
      "note": 61,
      "start": 24.3144,
      "duration": 0.0573,
      "velocity": 98,
      "chip": "ym2612"
    },
    {
      "channel": 4,
      "note": 42,
      "start": 24.3145,
      "duration": 0.0021,
      "velocity": 105,
      "chip": "ym2612"
    },
    {
      "channel": 2,
      "note": 66,
      "start": 24.3156,
      "duration": 0.0575,
      "velocity": 113,
      "chip": "ym2612"
    },
    {
      "channel": 1,
      "note": 66,
      "start": 24.3717,
      "duration": 0.0572,
      "velocity": 113,
      "chip": "ym2612"
    },
    {
      "channel": 3,
      "note": 62,
      "start": 24.3717,
      "duration": 0.0572,
      "velocity": 98,
      "chip": "ym2612"
    },
    {
      "channel": 4,
      "note": 42,
      "start": 24.3719,
      "duration": 0.0861,
      "velocity": 105,
      "chip": "ym2612"
    },
    {
      "channel": 2,
      "note": 71,
      "start": 24.3731,
      "duration": 0.0571,
      "velocity": 113,
      "chip": "ym2612"
    },
    {
      "channel": 1,
      "note": 69,
      "start": 24.4289,
      "duration": 0.0289,
      "velocity": 113,
      "chip": "ym2612"
    },
    {
      "channel": 3,
      "note": 64,
      "start": 24.429,
      "duration": 0.0017,
      "velocity": 98,
      "chip": "ym2612"
    },
    {
      "channel": 2,
      "note": 66,
      "start": 24.4301,
      "duration": 0.0288,
      "velocity": 113,
      "chip": "ym2612"
    },
    {
      "channel": 0,
      "note": 38,
      "start": 24.4577,
      "duration": 0.6592,
      "velocity": 120,
      "chip": "ym2612"
    },
    {
      "channel": 1,
      "note": 66,
      "start": 24.4578,
      "duration": 0.0567,
      "velocity": 113,
      "chip": "ym2612"
    },
    {
      "channel": 3,
      "note": 64,
      "start": 24.4579,
      "duration": 0.257,
      "velocity": 98,
      "chip": "ym2612"
    },
    {
      "channel": 4,
      "note": 38,
      "start": 24.458,
      "duration": 0.1567,
      "velocity": 105,
      "chip": "ym2612"
    },
    {
      "channel": 2,
      "note": 69,
      "start": 24.459,
      "duration": 0.1556,
      "velocity": 113,
      "chip": "ym2612"
    },
    {
      "channel": 1,
      "note": 66,
      "start": 24.5146,
      "duration": 0.2002,
      "velocity": 113,
      "chip": "ym2612"
    },
    {
      "channel": 2,
      "note": 66,
      "start": 24.6146,
      "duration": 0.1014,
      "velocity": 113,
      "chip": "ym2612"
    },
    {
      "channel": 1,
      "note": 66,
      "start": 24.7149,
      "duration": 0.057,
      "velocity": 113,
      "chip": "ym2612"
    },
    {
      "channel": 3,
      "note": 62,
      "start": 24.715,
      "duration": 0.066,
      "velocity": 98,
      "chip": "ym2612"
    },
    {
      "channel": 4,
      "note": 38,
      "start": 24.7151,
      "duration": 0.0576,
      "velocity": 105,
      "chip": "ym2612"
    },
    {
      "channel": 2,
      "note": 66,
      "start": 24.7161,
      "duration": 0.0572,
      "velocity": 113,
      "chip": "ym2612"
    },
    {
      "channel": 1,
      "note": 69,
      "start": 24.7719,
      "duration": 0.009,
      "velocity": 113,
      "chip": "ym2612"
    },
    {
      "channel": 2,
      "note": 66,
      "start": 24.7733,
      "duration": 0.0091,
      "velocity": 113,
      "chip": "ym2612"
    },
    {
      "channel": 1,
      "note": 66,
      "start": 24.7809,
      "duration": 0.0771,
      "velocity": 113,
      "chip": "ym2612"
    },
    {
      "channel": 3,
      "note": 61,
      "start": 24.781,
      "duration": 0.1141,
      "velocity": 98,
      "chip": "ym2612"
    },
    {
      "channel": 4,
      "note": 38,
      "start": 24.7812,
      "duration": 0.0776,
      "velocity": 105,
      "chip": "ym2612"
    },
    {
      "channel": 2,
      "note": 69,
      "start": 24.7824,
      "duration": 0.0768,
      "velocity": 113,
      "chip": "ym2612"
    },
    {
      "channel": 1,
      "note": 71,
      "start": 24.8581,
      "duration": 0.0574,
      "velocity": 113,
      "chip": "ym2612"
    },
    {
      "channel": 2,
      "note": 66,
      "start": 24.8592,
      "duration": 0.1561,
      "velocity": 113,
      "chip": "ym2612"
    },
    {
      "channel": 1,
      "note": 66,
      "start": 24.9156,
      "duration": 0.2,
      "velocity": 113,
      "chip": "ym2612"
    },
    {
      "channel": 3,
      "note": 59,
      "start": 24.9156,
      "duration": 0.2001,
      "velocity": 98,
      "chip": "ym2612"
    },
    {
      "channel": 4,
      "note": 38,
      "start": 24.9158,
      "duration": 0.0996,
      "velocity": 105,
      "chip": "ym2612"
    },
    {
      "channel": 2,
      "note": 71,
      "start": 25.0153,
      "duration": 0.1014,
      "velocity": 113,
      "chip": "ym2612"
    },
    {
      "channel": 1,
      "note": 69,
      "start": 25.1156,
      "duration": 0.0088,
      "velocity": 113,
      "chip": "ym2612"
    },
    {
      "channel": 3,
      "note": 57,
      "start": 25.1158,
      "duration": 0.0019,
      "velocity": 98,
      "chip": "ym2612"
    },
    {
      "channel": 4,
      "note": 38,
      "start": 25.1158,
      "duration": 0.0018,
      "velocity": 105,
      "chip": "ym2612"
    },
    {
      "channel": 2,
      "note": 66,
      "start": 25.1167,
      "duration": 0.0091,
      "velocity": 113,
      "chip": "ym2612"
    },
    {
      "channel": 0,
      "note": 38,
      "start": 25.1244,
      "duration": 0.0571,
      "velocity": 120,
      "chip": "ym2612"
    },
    {
      "channel": 1,
      "note": 64,
      "start": 25.1244,
      "duration": 0.0571,
      "velocity": 113,
      "chip": "ym2612"
    },
    {
      "channel": 3,
      "note": 59,
      "start": 25.1245,
      "duration": 0.343,
      "velocity": 98,
      "chip": "ym2612"
    },
    {
      "channel": 4,
      "note": 40,
      "start": 25.1246,
      "duration": 0.0014,
      "velocity": 105,
      "chip": "ym2612"
    },
    {
      "channel": 2,
      "note": 69,
      "start": 25.1259,
      "duration": 0.0569,
      "velocity": 113,
      "chip": "ym2612"
    },
    {
      "channel": 0,
      "note": 40,
      "start": 25.1814,
      "duration": 0.6016,
      "velocity": 120,
      "chip": "ym2612"
    },
    {
      "channel": 1,
      "note": 64,
      "start": 25.1815,
      "duration": 0.077,
      "velocity": 113,
      "chip": "ym2612"
    },
    {
      "channel": 4,
      "note": 40,
      "start": 25.1817,
      "duration": 0.157,
      "velocity": 105,
      "chip": "ym2612"
    },
    {
      "channel": 2,
      "note": 64,
      "start": 25.1829,
      "duration": 0.1557,
      "velocity": 113,
      "chip": "ym2612"
    },
    {
      "channel": 1,
      "note": 64,
      "start": 25.2586,
      "duration": 0.18,
      "velocity": 113,
      "chip": "ym2612"
    },
    {
      "channel": 2,
      "note": 64,
      "start": 25.3386,
      "duration": 0.1015,
      "velocity": 113,
      "chip": "ym2612"
    },
    {
      "channel": 1,
      "note": 68,
      "start": 25.4387,
      "duration": 0.0287,
      "velocity": 113,
      "chip": "ym2612"
    },
    {
      "channel": 4,
      "note": 40,
      "start": 25.4388,
      "duration": 0.0883,
      "velocity": 105,
      "chip": "ym2612"
    },
    {
      "channel": 2,
      "note": 64,
      "start": 25.4401,
      "duration": 0.107,
      "velocity": 113,
      "chip": "ym2612"
    },
    {
      "channel": 1,
      "note": 64,
      "start": 25.4675,
      "duration": 0.1798,
      "velocity": 113,
      "chip": "ym2612"
    },
    {
      "channel": 3,
      "note": 64,
      "start": 25.4676,
      "duration": 0.7339,
      "velocity": 98,
      "chip": "ym2612"
    },
    {
      "channel": 2,
      "note": 68,
      "start": 25.5471,
      "duration": 0.1014,
      "velocity": 113,
      "chip": "ym2612"
    },
    {
      "channel": 1,
      "note": 69,
      "start": 25.6472,
      "duration": 0.0571,
      "velocity": 113,
      "chip": "ym2612"
    },
    {
      "channel": 4,
      "note": 40,
      "start": 25.6474,
      "duration": 0.0576,
      "velocity": 105,
      "chip": "ym2612"
    },
    {
      "channel": 2,
      "note": 64,
      "start": 25.6485,
      "duration": 0.0571,
      "velocity": 113,
      "chip": "ym2612"
    },
    {
      "channel": 1,
      "note": 64,
      "start": 25.7044,
      "duration": 0.0773,
      "velocity": 113,
      "chip": "ym2612"
    },
    {
      "channel": 2,
      "note": 69,
      "start": 25.7056,
      "duration": 0.0772,
      "velocity": 113,
      "chip": "ym2612"
    },
    {
      "channel": 1,
      "note": 68,
      "start": 25.7817,
      "duration": 0.0088,
      "velocity": 113,
      "chip": "ym2612"
    },
    {
      "channel": 4,
      "note": 40,
      "start": 25.7819,
      "duration": 0.001,
      "velocity": 105,
      "chip": "ym2612"
    },
    {
      "channel": 2,
      "note": 64,
      "start": 25.7828,
      "duration": 0.0091,
      "velocity": 113,
      "chip": "ym2612"
    },
    {
      "channel": 0,
      "note": 40,
      "start": 25.7905,
      "duration": 0.5722,
      "velocity": 120,
      "chip": "ym2612"
    },
    {
      "channel": 1,
      "note": 64,
      "start": 25.7905,
      "duration": 0.057,
      "velocity": 113,
      "chip": "ym2612"
    },
    {
      "channel": 4,
      "note": 40,
      "start": 25.7907,
      "duration": 0.1769,
      "velocity": 105,
      "chip": "ym2612"
    },
    {
      "channel": 2,
      "note": 68,
      "start": 25.7919,
      "duration": 0.1556,
      "velocity": 113,
      "chip": "ym2612"
    },
    {
      "channel": 1,
      "note": 76,
      "start": 25.8476,
      "duration": 0.2001,
      "velocity": 113,
      "chip": "ym2612"
    },
    {
      "channel": 2,
      "note": 64,
      "start": 25.9476,
      "duration": 0.1014,
      "velocity": 113,
      "chip": "ym2612"
    },
    {
      "channel": 1,
      "note": 64,
      "start": 26.0477,
      "duration": 0.0572,
      "velocity": 113,
      "chip": "ym2612"
    },
    {
      "channel": 4,
      "note": 40,
      "start": 26.0479,
      "duration": 0.0579,
      "velocity": 105,
      "chip": "ym2612"
    },
    {
      "channel": 2,
      "note": 76,
      "start": 26.049,
      "duration": 0.0571,
      "velocity": 113,
      "chip": "ym2612"
    },
    {
      "channel": 1,
      "note": 71,
      "start": 26.1048,
      "duration": 0.0286,
      "velocity": 113,
      "chip": "ym2612"
    },
    {
      "channel": 2,
      "note": 64,
      "start": 26.1061,
      "duration": 0.0285,
      "velocity": 113,
      "chip": "ym2612"
    },
    {
      "channel": 1,
      "note": 64,
      "start": 26.1335,
      "duration": 0.0571,
      "velocity": 113,
      "chip": "ym2612"
    },
    {
      "channel": 4,
      "note": 40,
      "start": 26.1337,
      "duration": 0.0579,
      "velocity": 105,
      "chip": "ym2612"
    },
    {
      "channel": 2,
      "note": 71,
      "start": 26.1346,
      "duration": 0.0573,
      "velocity": 113,
      "chip": "ym2612"
    },
    {
      "channel": 1,
      "note": 69,
      "start": 26.1906,
      "duration": 0.0087,
      "velocity": 113,
      "chip": "ym2612"
    },
    {
      "channel": 2,
      "note": 64,
      "start": 26.1919,
      "duration": 0.0087,
      "velocity": 113,
      "chip": "ym2612"
    },
    {
      "channel": 1,
      "note": 64,
      "start": 26.1993,
      "duration": 0.0772,
      "velocity": 113,
      "chip": "ym2612"
    },
    {
      "channel": 4,
      "note": 40,
      "start": 26.1995,
      "duration": 0.0012,
      "velocity": 105,
      "chip": "ym2612"
    },
    {
      "channel": 2,
      "note": 69,
      "start": 26.2007,
      "duration": 0.0773,
      "velocity": 113,
      "chip": "ym2612"
    },
    {
      "channel": 3,
      "note": 64,
      "start": 26.2015,
      "duration": 0.0852,
      "velocity": 98,
      "chip": "ym2612"
    },
    {
      "channel": 1,
      "note": 68,
      "start": 26.2766,
      "duration": 0.0084,
      "velocity": 113,
      "chip": "ym2612"
    },
    {
      "channel": 4,
      "note": 40,
      "start": 26.2767,
      "duration": 0.0011,
      "velocity": 105,
      "chip": "ym2612"
    },
    {
      "channel": 2,
      "note": 64,
      "start": 26.2779,
      "duration": 0.0087,
      "velocity": 113,
      "chip": "ym2612"
    },
    {
      "channel": 1,
      "note": 64,
      "start": 26.2851,
      "duration": 0.0776,
      "velocity": 113,
      "chip": "ym2612"
    },
    {
      "channel": 4,
      "note": 40,
      "start": 26.2853,
      "duration": 0.0171,
      "velocity": 105,
      "chip": "ym2612"
    },
    {
      "channel": 2,
      "note": 68,
      "start": 26.2867,
      "duration": 0.0771,
      "velocity": 113,
      "chip": "ym2612"
    },
    {
      "channel": 0,
      "note": 45,
      "start": 26.3626,
      "duration": 0.59,
      "velocity": 120,
      "chip": "ym2612"
    },
    {
      "channel": 1,
      "note": 69,
      "start": 26.3627,
      "duration": 0.0571,
      "velocity": 113,
      "chip": "ym2612"
    },
    {
      "channel": 4,
      "note": 45,
      "start": 26.3628,
      "duration": 0.117,
      "velocity": 105,
      "chip": "ym2612"
    },
    {
      "channel": 2,
      "note": 64,
      "start": 26.3639,
      "duration": 0.156,
      "velocity": 113,
      "chip": "ym2612"
    },
    {
      "channel": 1,
      "note": 69,
      "start": 26.4199,
      "duration": 0.1801,
      "velocity": 113,
      "chip": "ym2612"
    },
    {
      "channel": 2,
      "note": 69,
      "start": 26.5199,
      "duration": 0.0815,
      "velocity": 113,
      "chip": "ym2612"
    },
    {
      "channel": 1,
      "note": 72,
      "start": 26.6,
      "duration": 0.0286,
      "velocity": 113,
      "chip": "ym2612"
    },
    {
      "channel": 4,
      "note": 45,
      "start": 26.6001,
      "duration": 0.1085,
      "velocity": 105,
      "chip": "ym2612"
    },
    {
      "channel": 2,
      "note": 69,
      "start": 26.6014,
      "duration": 0.1272,
      "velocity": 113,
      "chip": "ym2612"
    },
    {
      "channel": 1,
      "note": 69,
      "start": 26.6287,
      "duration": 0.1803,
      "velocity": 113,
      "chip": "ym2612"
    },
    {
      "channel": 2,
      "note": 72,
      "start": 26.7287,
      "duration": 0.0817,
      "velocity": 113,
      "chip": "ym2612"
    },
    {
      "channel": 1,
      "note": 74,
      "start": 26.8091,
      "duration": 0.0771,
      "velocity": 113,
      "chip": "ym2612"
    },
    {
      "channel": 3,
      "note": 64,
      "start": 26.8092,
      "duration": 0.0771,
      "velocity": 98,
      "chip": "ym2612"
    },
    {
      "channel": 4,
      "note": 45,
      "start": 26.8093,
      "duration": 0.002,
      "velocity": 105,
      "chip": "ym2612"
    },
    {
      "channel": 2,
      "note": 69,
      "start": 26.8105,
      "duration": 0.0768,
      "velocity": 113,
      "chip": "ym2612"
    },
    {
      "channel": 1,
      "note": 69,
      "start": 26.8862,
      "duration": 0.0574,
      "velocity": 113,
      "chip": "ym2612"
    },
    {
      "channel": 3,
      "note": 65,
      "start": 26.8863,
      "duration": 0.017,
      "velocity": 98,
      "chip": "ym2612"
    },
    {
      "channel": 2,
      "note": 74,
      "start": 26.8873,
      "duration": 0.0577,
      "velocity": 113,
      "chip": "ym2612"
    },
    {
      "channel": 1,
      "note": 72,
      "start": 26.9437,
      "duration": 0.0089,
      "velocity": 113,
      "chip": "ym2612"
    },
    {
      "channel": 3,
      "note": 67,
      "start": 26.9438,
      "duration": 0.0016,
      "velocity": 98,
      "chip": "ym2612"
    },
    {
      "channel": 4,
      "note": 45,
      "start": 26.9439,
      "duration": 0.0089,
      "velocity": 105,
      "chip": "ym2612"
    },
    {
      "channel": 2,
      "note": 69,
      "start": 26.9451,
      "duration": 0.0089,
      "velocity": 113,
      "chip": "ym2612"
    },
    {
      "channel": 0,
      "note": 41,
      "start": 26.9526,
      "duration": 0.7432,
      "velocity": 120,
      "chip": "ym2612"
    },
    {
      "channel": 1,
      "note": 69,
      "start": 26.9527,
      "duration": 0.0765,
      "velocity": 113,
      "chip": "ym2612"
    },
    {
      "channel": 3,
      "note": 67,
      "start": 26.9528,
      "duration": 0.2568,
      "velocity": 98,
      "chip": "ym2612"
    },
    {
      "channel": 4,
      "note": 41,
      "start": 26.9529,
      "duration": 0.1565,
      "velocity": 105,
      "chip": "ym2612"
    },
    {
      "channel": 2,
      "note": 72,
      "start": 26.954,
      "duration": 0.1553,
      "velocity": 113,
      "chip": "ym2612"
    },
    {
      "channel": 1,
      "note": 69,
      "start": 27.0293,
      "duration": 0.1802,
      "velocity": 113,
      "chip": "ym2612"
    },
    {
      "channel": 2,
      "note": 69,
      "start": 27.1093,
      "duration": 0.1016,
      "velocity": 113,
      "chip": "ym2612"
    },
    {
      "channel": 1,
      "note": 69,
      "start": 27.2096,
      "duration": 0.077,
      "velocity": 113,
      "chip": "ym2612"
    },
    {
      "channel": 3,
      "note": 65,
      "start": 27.2097,
      "duration": 0.0859,
      "velocity": 98,
      "chip": "ym2612"
    },
    {
      "channel": 4,
      "note": 41,
      "start": 27.2098,
      "duration": 0.0769,
      "velocity": 105,
      "chip": "ym2612"
    },
    {
      "channel": 2,
      "note": 69,
      "start": 27.211,
      "duration": 0.0767,
      "velocity": 113,
      "chip": "ym2612"
    },
    {
      "channel": 1,
      "note": 72,
      "start": 27.2866,
      "duration": 0.0089,
      "velocity": 113,
      "chip": "ym2612"
    },
    {
      "channel": 2,
      "note": 69,
      "start": 27.2877,
      "duration": 0.0091,
      "velocity": 113,
      "chip": "ym2612"
    },
    {
      "channel": 1,
      "note": 69,
      "start": 27.2956,
      "duration": 0.0569,
      "velocity": 113,
      "chip": "ym2612"
    },
    {
      "channel": 3,
      "note": 64,
      "start": 27.2957,
      "duration": 0.0742,
      "velocity": 98,
      "chip": "ym2612"
    },
    {
      "channel": 4,
      "note": 41,
      "start": 27.2958,
      "duration": 0.0576,
      "velocity": 105,
      "chip": "ym2612"
    },
    {
      "channel": 2,
      "note": 72,
      "start": 27.2969,
      "duration": 0.057,
      "velocity": 113,
      "chip": "ym2612"
    },
    {
      "channel": 1,
      "note": 74,
      "start": 27.3525,
      "duration": 0.0776,
      "velocity": 113,
      "chip": "ym2612"
    },
    {
      "channel": 2,
      "note": 69,
      "start": 27.354,
      "duration": 0.156,
      "velocity": 113,
      "chip": "ym2612"
    },
    {
      "channel": 1,
      "note": 69,
      "start": 27.4302,
      "duration": 0.18,
      "velocity": 113,
      "chip": "ym2612"
    },
    {
      "channel": 3,
      "note": 62,
      "start": 27.4303,
      "duration": 0.18,
      "velocity": 98,
      "chip": "ym2612"
    },
    {
      "channel": 4,
      "note": 41,
      "start": 27.4304,
      "duration": 0.1196,
      "velocity": 105,
      "chip": "ym2612"
    },
    {
      "channel": 2,
      "note": 74,
      "start": 27.51,
      "duration": 0.1016,
      "velocity": 113,
      "chip": "ym2612"
    },
    {
      "channel": 1,
      "note": 72,
      "start": 27.6103,
      "duration": 0.0285,
      "velocity": 113,
      "chip": "ym2612"
    },
    {
      "channel": 3,
      "note": 60,
      "start": 27.6104,
      "duration": 0.0286,
      "velocity": 98,
      "chip": "ym2612"
    },
    {
      "channel": 4,
      "note": 41,
      "start": 27.6105,
      "duration": 0.0079,
      "velocity": 105,
      "chip": "ym2612"
    },
    {
      "channel": 2,
      "note": 69,
      "start": 27.6116,
      "duration": 0.0284,
      "velocity": 113,
      "chip": "ym2612"
    },
    {
      "channel": 1,
      "note": 67,
      "start": 27.6389,
      "duration": 0.057,
      "velocity": 113,
      "chip": "ym2612"
    },
    {
      "channel": 3,
      "note": 62,
      "start": 27.639,
      "duration": 0.5819,
      "velocity": 98,
      "chip": "ym2612"
    },
    {
      "channel": 4,
      "note": 43,
      "start": 27.6391,
      "duration": 0.001,
      "velocity": 105,
      "chip": "ym2612"
    },
    {
      "channel": 2,
      "note": 72,
      "start": 27.6401,
      "duration": 0.0572,
      "velocity": 113,
      "chip": "ym2612"
    },
    {
      "channel": 0,
      "note": 43,
      "start": 27.6959,
      "duration": 0.582,
      "velocity": 120,
      "chip": "ym2612"
    },
    {
      "channel": 1,
      "note": 67,
      "start": 27.6959,
      "duration": 0.057,
      "velocity": 113,
      "chip": "ym2612"
    },
    {
      "channel": 4,
      "note": 43,
      "start": 27.6961,
      "duration": 0.1169,
      "velocity": 105,
      "chip": "ym2612"
    },
    {
      "channel": 2,
      "note": 67,
      "start": 27.6973,
      "duration": 0.1556,
      "velocity": 113,
      "chip": "ym2612"
    },
    {
      "channel": 1,
      "note": 67,
      "start": 27.753,
      "duration": 0.2001,
      "velocity": 113,
      "chip": "ym2612"
    },
    {
      "channel": 2,
      "note": 67,
      "start": 27.853,
      "duration": 0.1012,
      "velocity": 113,
      "chip": "ym2612"
    },
    {
      "channel": 1,
      "note": 71,
      "start": 27.9531,
      "duration": 0.0084,
      "velocity": 113,
      "chip": "ym2612"
    },
    {
      "channel": 4,
      "note": 43,
      "start": 27.9533,
      "duration": 0.0482,
      "velocity": 105,
      "chip": "ym2612"
    },
    {
      "channel": 2,
      "note": 67,
      "start": 27.9543,
      "duration": 0.1071,
      "velocity": 113,
      "chip": "ym2612"
    },
    {
      "channel": 1,
      "note": 67,
      "start": 27.9615,
      "duration": 0.2001,
      "velocity": 113,
      "chip": "ym2612"
    },
    {
      "channel": 2,
      "note": 71,
      "start": 28.0615,
      "duration": 0.1012,
      "velocity": 113,
      "chip": "ym2612"
    },
    {
      "channel": 1,
      "note": 72,
      "start": 28.1616,
      "duration": 0.0571,
      "velocity": 113,
      "chip": "ym2612"
    },
    {
      "channel": 4,
      "note": 43,
      "start": 28.1618,
      "duration": 0.0011,
      "velocity": 105,
      "chip": "ym2612"
    },
    {
      "channel": 2,
      "note": 67,
      "start": 28.1626,
      "duration": 0.0574,
      "velocity": 113,
      "chip": "ym2612"
    },
    {
      "channel": 1,
      "note": 67,
      "start": 28.2187,
      "duration": 0.0572,
      "velocity": 113,
      "chip": "ym2612"
    },
    {
      "channel": 4,
      "note": 43,
      "start": 28.2189,
      "duration": 0.001,
      "velocity": 105,
      "chip": "ym2612"
    },
    {
      "channel": 2,
      "note": 72,
      "start": 28.2201,
      "duration": 0.0573,
      "velocity": 113,
      "chip": "ym2612"
    },
    {
      "channel": 1,
      "note": 71,
      "start": 28.276,
      "duration": 0.0291,
      "velocity": 113,
      "chip": "ym2612"
    },
    {
      "channel": 4,
      "note": 43,
      "start": 28.2761,
      "duration": 0.0083,
      "velocity": 105,
      "chip": "ym2612"
    },
    {
      "channel": 2,
      "note": 67,
      "start": 28.2773,
      "duration": 0.0289,
      "velocity": 113,
      "chip": "ym2612"
    },
    {
      "channel": 0,
      "note": 43,
      "start": 28.3051,
      "duration": 0.323,
      "velocity": 120,
      "chip": "ym2612"
    },
    {
      "channel": 1,
      "note": 67,
      "start": 28.3051,
      "duration": 0.0566,
      "velocity": 113,
      "chip": "ym2612"
    },
    {
      "channel": 3,
      "note": 65,
      "start": 28.3053,
      "duration": 0.2364,
      "velocity": 98,
      "chip": "ym2612"
    },
    {
      "channel": 4,
      "note": 40,
      "start": 28.3053,
      "duration": 0.1165,
      "velocity": 105,
      "chip": "ym2612"
    },
    {
      "channel": 2,
      "note": 71,
      "start": 28.3062,
      "duration": 0.1555,
      "velocity": 113,
      "chip": "ym2612"
    },
    {
      "channel": 1,
      "note": 67,
      "start": 28.3618,
      "duration": 0.2002,
      "velocity": 113,
      "chip": "ym2612"
    },
    {
      "channel": 2,
      "note": 67,
      "start": 28.4618,
      "duration": 0.1014,
      "velocity": 113,
      "chip": "ym2612"
    },
    {
      "channel": 1,
      "note": 67,
      "start": 28.5621,
      "duration": 0.057,
      "velocity": 113,
      "chip": "ym2612"
    },
    {
      "channel": 3,
      "note": 64,
      "start": 28.5622,
      "duration": 0.0661,
      "velocity": 98,
      "chip": "ym2612"
    },
    {
      "channel": 4,
      "note": 40,
      "start": 28.5623,
      "duration": 0.0576,
      "velocity": 105,
      "chip": "ym2612"
    },
    {
      "channel": 2,
      "note": 67,
      "start": 28.5632,
      "duration": 0.0572,
      "velocity": 113,
      "chip": "ym2612"
    },
    {
      "channel": 1,
      "note": 71,
      "start": 28.6191,
      "duration": 0.009,
      "velocity": 113,
      "chip": "ym2612"
    },
    {
      "channel": 2,
      "note": 67,
      "start": 28.6205,
      "duration": 0.009,
      "velocity": 113,
      "chip": "ym2612"
    },
    {
      "channel": 0,
      "note": 40,
      "start": 28.6281,
      "duration": 0.3225,
      "velocity": 120,
      "chip": "ym2612"
    },
    {
      "channel": 1,
      "note": 67,
      "start": 28.6282,
      "duration": 0.0767,
      "velocity": 113,
      "chip": "ym2612"
    },
    {
      "channel": 3,
      "note": 62,
      "start": 28.6283,
      "duration": 0.1344,
      "velocity": 98,
      "chip": "ym2612"
    },
    {
      "channel": 4,
      "note": 40,
      "start": 28.6284,
      "duration": 0.0776,
      "velocity": 105,
      "chip": "ym2612"
    },
    {
      "channel": 2,
      "note": 71,
      "start": 28.6294,
      "duration": 0.0766,
      "velocity": 113,
      "chip": "ym2612"
    },
    {
      "channel": 1,
      "note": 72,
      "start": 28.705,
      "duration": 0.0576,
      "velocity": 113,
      "chip": "ym2612"
    },
    {
      "channel": 2,
      "note": 67,
      "start": 28.7061,
      "duration": 0.1561,
      "velocity": 113,
      "chip": "ym2612"
    },
    {
      "channel": 1,
      "note": 67,
      "start": 28.7626,
      "duration": 0.1797,
      "velocity": 113,
      "chip": "ym2612"
    },
    {
      "channel": 3,
      "note": 60,
      "start": 28.7627,
      "duration": 0.1808,
      "velocity": 98,
      "chip": "ym2612"
    },
    {
      "channel": 4,
      "note": 40,
      "start": 28.7628,
      "duration": 0.1194,
      "velocity": 105,
      "chip": "ym2612"
    },
    {
      "channel": 2,
      "note": 72,
      "start": 28.8622,
      "duration": 0.0815,
      "velocity": 113,
      "chip": "ym2612"
    },
    {
      "channel": 1,
      "note": 71,
      "start": 28.9423,
      "duration": 0.0289,
      "velocity": 113,
      "chip": "ym2612"
    },
    {
      "channel": 4,
      "note": 40,
      "start": 28.9425,
      "duration": 0.0656,
      "velocity": 105,
      "chip": "ym2612"
    },
    {
      "channel": 2,
      "note": 67,
      "start": 28.9438,
      "duration": 0.0288,
      "velocity": 113,
      "chip": "ym2612"
    },
    {
      "channel": 0,
      "note": 41,
      "start": 28.9712,
      "duration": 0.6587,
      "velocity": 120,
      "chip": "ym2612"
    },
    {
      "channel": 1,
      "note": 67,
      "start": 28.9712,
      "duration": 0.0569,
      "velocity": 113,
      "chip": "ym2612"
    },
    {
      "channel": 3,
      "note": 60,
      "start": 28.9714,
      "duration": 0.637,
      "velocity": 98,
      "chip": "ym2612"
    },
    {
      "channel": 2,
      "note": 71,
      "start": 28.9725,
      "duration": 0.057,
      "velocity": 113,
      "chip": "ym2612"
    },
    {
      "channel": 1,
      "note": 65,
      "start": 29.0282,
      "duration": 0.0771,
      "velocity": 113,
      "chip": "ym2612"
    },
    {
      "channel": 4,
      "note": 41,
      "start": 29.0284,
      "duration": 0.137,
      "velocity": 105,
      "chip": "ym2612"
    },
    {
      "channel": 2,
      "note": 67,
      "start": 29.0295,
      "duration": 0.1558,
      "velocity": 113,
      "chip": "ym2612"
    },
    {
      "channel": 1,
      "note": 65,
      "start": 29.1054,
      "duration": 0.1801,
      "velocity": 113,
      "chip": "ym2612"
    },
    {
      "channel": 2,
      "note": 65,
      "start": 29.1854,
      "duration": 0.1014,
      "velocity": 113,
      "chip": "ym2612"
    },
    {
      "channel": 1,
      "note": 69,
      "start": 29.2855,
      "duration": 0.0083,
      "velocity": 113,
      "chip": "ym2612"
    },
    {
      "channel": 4,
      "note": 41,
      "start": 29.2857,
      "duration": 0.0881,
      "velocity": 105,
      "chip": "ym2612"
    },
    {
      "channel": 2,
      "note": 65,
      "start": 29.2869,
      "duration": 0.1069,
      "velocity": 113,
      "chip": "ym2612"
    },
    {
      "channel": 1,
      "note": 65,
      "start": 29.2939,
      "duration": 0.2001,
      "velocity": 113,
      "chip": "ym2612"
    },
    {
      "channel": 2,
      "note": 69,
      "start": 29.3938,
      "duration": 0.1014,
      "velocity": 113,
      "chip": "ym2612"
    },
    {
      "channel": 1,
      "note": 71,
      "start": 29.4939,
      "duration": 0.0572,
      "velocity": 113,
      "chip": "ym2612"
    },
    {
      "channel": 4,
      "note": 41,
      "start": 29.4941,
      "duration": 0.0012,
      "velocity": 105,
      "chip": "ym2612"
    },
    {
      "channel": 2,
      "note": 65,
      "start": 29.4953,
      "duration": 0.0573,
      "velocity": 113,
      "chip": "ym2612"
    },
    {
      "channel": 1,
      "note": 65,
      "start": 29.5512,
      "duration": 0.0772,
      "velocity": 113,
      "chip": "ym2612"
    },
    {
      "channel": 4,
      "note": 41,
      "start": 29.5514,
      "duration": 0.002,
      "velocity": 105,
      "chip": "ym2612"
    },
    {
      "channel": 2,
      "note": 71,
      "start": 29.5525,
      "duration": 0.0769,
      "velocity": 113,
      "chip": "ym2612"
    },
    {
      "channel": 1,
      "note": 72,
      "start": 29.6283,
      "duration": 0.009,
      "velocity": 113,
      "chip": "ym2612"
    },
    {
      "channel": 4,
      "note": 41,
      "start": 29.6285,
      "duration": 0.001,
      "velocity": 105,
      "chip": "ym2612"
    },
    {
      "channel": 2,
      "note": 65,
      "start": 29.6295,
      "duration": 0.0092,
      "velocity": 113,
      "chip": "ym2612"
    },
    {
      "channel": 0,
      "note": 41,
      "start": 29.6373,
      "duration": 0.3433,
      "velocity": 120,
      "chip": "ym2612"
    },
    {
      "channel": 1,
      "note": 65,
      "start": 29.6374,
      "duration": 0.0567,
      "velocity": 113,
      "chip": "ym2612"
    },
    {
      "channel": 3,
      "note": 60,
      "start": 29.6376,
      "duration": 0.294,
      "velocity": 98,
      "chip": "ym2612"
    },
    {
      "channel": 4,
      "note": 41,
      "start": 29.6376,
      "duration": 0.0566,
      "velocity": 105,
      "chip": "ym2612"
    },
    {
      "channel": 2,
      "note": 72,
      "start": 29.6387,
      "duration": 0.1554,
      "velocity": 113,
      "chip": "ym2612"
    },
    {
      "channel": 1,
      "note": 65,
      "start": 29.6941,
      "duration": 0.2,
      "velocity": 113,
      "chip": "ym2612"
    },
    {
      "channel": 2,
      "note": 65,
      "start": 29.7941,
      "duration": 0.1016,
      "velocity": 113,
      "chip": "ym2612"
    },
    {
      "channel": 1,
      "note": 65,
      "start": 29.8943,
      "duration": 0.0576,
      "velocity": 113,
      "chip": "ym2612"
    },
    {
      "channel": 4,
      "note": 41,
      "start": 29.8945,
      "duration": 0.0576,
      "velocity": 105,
      "chip": "ym2612"
    },
    {
      "channel": 2,
      "note": 65,
      "start": 29.8958,
      "duration": 0.0576,
      "velocity": 113,
      "chip": "ym2612"
    },
    {
      "channel": 1,
      "note": 72,
      "start": 29.9519,
      "duration": 0.0288,
      "velocity": 113,
      "chip": "ym2612"
    },
    {
      "channel": 3,
      "note": 62,
      "start": 29.952,
      "duration": 0.0022,
      "velocity": 98,
      "chip": "ym2612"
    },
    {
      "channel": 4,
      "note": 43,
      "start": 29.9521,
      "duration": 0.0288,
      "velocity": 105,
      "chip": "ym2612"
    },
    {
      "channel": 2,
      "note": 65,
      "start": 29.9534,
      "duration": 0.0286,
      "velocity": 113,
      "chip": "ym2612"
    },
    {
      "channel": 0,
      "note": 45,
      "start": 29.9807,
      "duration": 0.3234,
      "velocity": 120,
      "chip": "ym2612"
    },
    {
      "channel": 1,
      "note": 64,
      "start": 29.9808,
      "duration": 0.0569,
      "velocity": 113,
      "chip": "ym2612"
    },
    {
      "channel": 3,
      "note": 64,
      "start": 29.9809,
      "duration": 0.1144,
      "velocity": 98,
      "chip": "ym2612"
    },
    {
      "channel": 4,
      "note": 45,
      "start": 29.981,
      "duration": 0.0569,
      "velocity": 105,
      "chip": "ym2612"
    },
    {
      "channel": 2,
      "note": 72,
      "start": 29.982,
      "duration": 0.0569,
      "velocity": 113,
      "chip": "ym2612"
    },
    {
      "channel": 1,
      "note": 71,
      "start": 30.0377,
      "duration": 0.0575,
      "velocity": 113,
      "chip": "ym2612"
    },
    {
      "channel": 2,
      "note": 64,
      "start": 30.039,
      "duration": 0.1561,
      "velocity": 113,
      "chip": "ym2612"
    },
    {
      "channel": 1,
      "note": 64,
      "start": 30.0953,
      "duration": 0.2001,
      "velocity": 113,
      "chip": "ym2612"
    },
    {
      "channel": 3,
      "note": 62,
      "start": 30.0954,
      "duration": 0.2,
      "velocity": 98,
      "chip": "ym2612"
    },
    {
      "channel": 4,
      "note": 45,
      "start": 30.0955,
      "duration": 0.1195,
      "velocity": 105,
      "chip": "ym2612"
    },
    {
      "channel": 2,
      "note": 71,
      "start": 30.1951,
      "duration": 0.1015,
      "velocity": 113,
      "chip": "ym2612"
    },
    {
      "channel": 1,
      "note": 69,
      "start": 30.2953,
      "duration": 0.0089,
      "velocity": 113,
      "chip": "ym2612"
    },
    {
      "channel": 3,
      "note": 60,
      "start": 30.2954,
      "duration": 0.0021,
      "velocity": 98,
      "chip": "ym2612"
    },
    {
      "channel": 4,
      "note": 45,
      "start": 30.2956,
      "duration": 0.0088,
      "velocity": 105,
      "chip": "ym2612"
    },
    {
      "channel": 2,
      "note": 64,
      "start": 30.2965,
      "duration": 0.0091,
      "velocity": 113,
      "chip": "ym2612"
    },
    {
      "channel": 0,
      "note": 43,
      "start": 30.3042,
      "duration": 0.659,
      "velocity": 120,
      "chip": "ym2612"
    },
    {
      "channel": 1,
      "note": 64,
      "start": 30.3043,
      "duration": 0.0768,
      "velocity": 113,
      "chip": "ym2612"
    },
    {
      "channel": 3,
      "note": 62,
      "start": 30.3044,
      "duration": 0.9254,
      "velocity": 98,
      "chip": "ym2612"
    },
    {
      "channel": 4,
      "note": 43,
      "start": 30.3044,
      "duration": 0.0012,
      "velocity": 105,
      "chip": "ym2612"
    },
    {
      "channel": 2,
      "note": 69,
      "start": 30.3056,
      "duration": 0.0767,
      "velocity": 113,
      "chip": "ym2612"
    },
    {
      "channel": 1,
      "note": 62,
      "start": 30.3812,
      "duration": 0.0573,
      "velocity": 113,
      "chip": "ym2612"
    },
    {
      "channel": 4,
      "note": 43,
      "start": 30.3814,
      "duration": 0.1572,
      "velocity": 105,
      "chip": "ym2612"
    },
    {
      "channel": 2,
      "note": 64,
      "start": 30.3824,
      "duration": 0.1561,
      "velocity": 113,
      "chip": "ym2612"
    },
    {
      "channel": 1,
      "note": 67,
      "start": 30.4385,
      "duration": 0.1801,
      "velocity": 113,
      "chip": "ym2612"
    },
    {
      "channel": 2,
      "note": 62,
      "start": 30.5385,
      "duration": 0.0814,
      "velocity": 113,
      "chip": "ym2612"
    },
    {
      "channel": 1,
      "note": 69,
      "start": 30.6186,
      "duration": 0.0283,
      "velocity": 113,
      "chip": "ym2612"
    },
    {
      "channel": 4,
      "note": 43,
      "start": 30.6188,
      "duration": 0.1082,
      "velocity": 105,
      "chip": "ym2612"
    },
    {
      "channel": 2,
      "note": 67,
      "start": 30.6199,
      "duration": 0.107,
      "velocity": 113,
      "chip": "ym2612"
    },
    {
      "channel": 1,
      "note": 62,
      "start": 30.6469,
      "duration": 0.1801,
      "velocity": 113,
      "chip": "ym2612"
    },
    {
      "channel": 2,
      "note": 69,
      "start": 30.7269,
      "duration": 0.1014,
      "velocity": 113,
      "chip": "ym2612"
    },
    {
      "channel": 1,
      "note": 71,
      "start": 30.827,
      "duration": 0.0773,
      "velocity": 113,
      "chip": "ym2612"
    },
    {
      "channel": 4,
      "note": 43,
      "start": 30.8272,
      "duration": 0.0012,
      "velocity": 105,
      "chip": "ym2612"
    },
    {
      "channel": 2,
      "note": 62,
      "start": 30.8283,
      "duration": 0.0771,
      "velocity": 113,
      "chip": "ym2612"
    },
    {
      "channel": 1,
      "note": 62,
      "start": 30.9043,
      "duration": 0.0572,
      "velocity": 113,
      "chip": "ym2612"
    },
    {
      "channel": 4,
      "note": 43,
      "start": 30.9045,
      "duration": 0.0579,
      "velocity": 105,
      "chip": "ym2612"
    },
    {
      "channel": 2,
      "note": 71,
      "start": 30.9054,
      "duration": 0.0574,
      "velocity": 113,
      "chip": "ym2612"
    },
    {
      "channel": 1,
      "note": 69,
      "start": 30.9615,
      "duration": 0.0087,
      "velocity": 113,
      "chip": "ym2612"
    },
    {
      "channel": 2,
      "note": 62,
      "start": 30.9629,
      "duration": 0.0088,
      "velocity": 113,
      "chip": "ym2612"
    },
    {
      "channel": 0,
      "note": 43,
      "start": 30.9702,
      "duration": 0.402,
      "velocity": 120,
      "chip": "ym2612"
    },
    {
      "channel": 1,
      "note": 62,
      "start": 30.9703,
      "duration": 0.0771,
      "velocity": 113,
      "chip": "ym2612"
    },
    {
      "channel": 4,
      "note": 43,
      "start": 30.9705,
      "duration": 0.137,
      "velocity": 105,
      "chip": "ym2612"
    },
    {
      "channel": 2,
      "note": 69,
      "start": 30.9717,
      "duration": 0.1556,
      "velocity": 113,
      "chip": "ym2612"
    },
    {
      "channel": 1,
      "note": 67,
      "start": 31.0474,
      "duration": 0.18,
      "velocity": 113,
      "chip": "ym2612"
    },
    {
      "channel": 2,
      "note": 62,
      "start": 31.1274,
      "duration": 0.1015,
      "velocity": 113,
      "chip": "ym2612"
    },
    {
      "channel": 1,
      "note": 62,
      "start": 31.2276,
      "duration": 0.0774,
      "velocity": 113,
      "chip": "ym2612"
    },
    {
      "channel": 4,
      "note": 43,
      "start": 31.2278,
      "duration": 0.0021,
      "velocity": 105,
      "chip": "ym2612"
    },
    {
      "channel": 2,
      "note": 67,
      "start": 31.229,
      "duration": 0.077,
      "velocity": 113,
      "chip": "ym2612"
    },
    {
      "channel": 3,
      "note": 62,
      "start": 31.2298,
      "duration": 0.1703,
      "velocity": 98,
      "chip": "ym2612"
    },
    {
      "channel": 1,
      "note": 69,
      "start": 31.3049,
      "duration": 0.0084,
      "velocity": 113,
      "chip": "ym2612"
    },
    {
      "channel": 4,
      "note": 43,
      "start": 31.3051,
      "duration": 0.0014,
      "velocity": 105,
      "chip": "ym2612"
    },
    {
      "channel": 2,
      "note": 62,
      "start": 31.306,
      "duration": 0.0087,
      "velocity": 113,
      "chip": "ym2612"
    },
    {
      "channel": 1,
      "note": 62,
      "start": 31.3134,
      "duration": 0.0573,
      "velocity": 113,
      "chip": "ym2612"
    },
    {
      "channel": 4,
      "note": 43,
      "start": 31.3136,
      "duration": 0.017,
      "velocity": 105,
      "chip": "ym2612"
    },
    {
      "channel": 2,
      "note": 69,
      "start": 31.3148,
      "duration": 0.0572,
      "velocity": 113,
      "chip": "ym2612"
    },
    {
      "channel": 1,
      "note": 71,
      "start": 31.3707,
      "duration": 0.0285,
      "velocity": 113,
      "chip": "ym2612"
    },
    {
      "channel": 4,
      "note": 43,
      "start": 31.3709,
      "duration": 0.0292,
      "velocity": 105,
      "chip": "ym2612"
    },
    {
      "channel": 2,
      "note": 62,
      "start": 31.372,
      "duration": 0.0284,
      "velocity": 113,
      "chip": "ym2612"
    },
    {
      "channel": 0,
      "note": 43,
      "start": 31.3992,
      "duration": 0.1444,
      "velocity": 120,
      "chip": "ym2612"
    },
    {
      "channel": 1,
      "note": 62,
      "start": 31.3993,
      "duration": 0.0573,
      "velocity": 113,
      "chip": "ym2612"
    },
    {
      "channel": 2,
      "note": 71,
      "start": 31.4004,
      "duration": 0.0574,
      "velocity": 113,
      "chip": "ym2612"
    },
    {
      "channel": 1,
      "note": 74,
      "start": 31.4566,
      "duration": 0.0087,
      "velocity": 113,
      "chip": "ym2612"
    },
    {
      "channel": 4,
      "note": 43,
      "start": 31.4567,
      "duration": 0.0017,
      "velocity": 105,
      "chip": "ym2612"
    },
    {
      "channel": 2,
      "note": 62,
      "start": 31.4579,
      "duration": 0.0087,
      "velocity": 113,
      "chip": "ym2612"
    },
    {
      "channel": 1,
      "note": 62,
      "start": 31.4653,
      "duration": 0.0784,
      "velocity": 113,
      "chip": "ym2612"
    },
    {
      "channel": 4,
      "note": 43,
      "start": 31.4654,
      "duration": 0.0789,
      "velocity": 105,
      "chip": "ym2612"
    },
    {
      "channel": 2,
      "note": 74,
      "start": 31.4666,
      "duration": 0.176,
      "velocity": 113,
      "chip": "ym2612"
    },
    {
      "channel": 0,
      "note": 40,
      "start": 31.5437,
      "duration": 1.1698,
      "velocity": 120,
      "chip": "ym2612"
    },
    {
      "channel": 1,
      "note": 59,
      "start": 31.5438,
      "duration": 0.1787,
      "velocity": 113,
      "chip": "ym2612"
    },
    {
      "channel": 3,
      "note": 64,
      "start": 31.5443,
      "duration": 1.1693,
      "velocity": 103,
      "chip": "ym2612"
    },
    {
      "channel": 4,
      "note": 40,
      "start": 31.5444,
      "duration": 0.0982,
      "velocity": 105,
      "chip": "ym2612"
    },
    {
      "channel": 1,
      "note": 59,
      "start": 31.7226,
      "duration": 0.2,
      "velocity": 113,
      "chip": "ym2612"
    },
    {
      "channel": 4,
      "note": 40,
      "start": 31.7227,
      "duration": 0.1799,
      "velocity": 105,
      "chip": "ym2612"
    },
    {
      "channel": 2,
      "note": 59,
      "start": 31.8226,
      "duration": 0.1011,
      "velocity": 113,
      "chip": "ym2612"
    },
    {
      "channel": 4,
      "note": 38,
      "start": 31.9228,
      "duration": 0.0017,
      "velocity": 105,
      "chip": "ym2612"
    },
    {
      "channel": 2,
      "note": 59,
      "start": 31.9237,
      "duration": 0.1075,
      "velocity": 113,
      "chip": "ym2612"
    },
    {
      "channel": 1,
      "note": 60,
      "start": 31.9313,
      "duration": 0.1798,
      "velocity": 113,
      "chip": "ym2612"
    },
    {
      "channel": 4,
      "note": 40,
      "start": 31.9315,
      "duration": 0.1398,
      "velocity": 105,
      "chip": "ym2612"
    },
    {
      "channel": 1,
      "note": 59,
      "start": 32.1111,
      "duration": 0.2002,
      "velocity": 113,
      "chip": "ym2612"
    },
    {
      "channel": 2,
      "note": 60,
      "start": 32.2112,
      "duration": 0.1015,
      "velocity": 113,
      "chip": "ym2612"
    },
    {
      "channel": 1,
      "note": 59,
      "start": 32.3114,
      "duration": 0.0572,
      "velocity": 113,
      "chip": "ym2612"
    },
    {
      "channel": 4,
      "note": 40,
      "start": 32.3115,
      "duration": 0.0371,
      "velocity": 105,
      "chip": "ym2612"
    },
    {
      "channel": 2,
      "note": 59,
      "start": 32.3128,
      "duration": 0.0572,
      "velocity": 113,
      "chip": "ym2612"
    },
    {
      "channel": 1,
      "note": 62,
      "start": 32.3687,
      "duration": 0.0285,
      "velocity": 113,
      "chip": "ym2612"
    },
    {
      "channel": 4,
      "note": 38,
      "start": 32.3688,
      "duration": 0.0017,
      "velocity": 105,
      "chip": "ym2612"
    },
    {
      "channel": 2,
      "note": 59,
      "start": 32.37,
      "duration": 0.0283,
      "velocity": 113,
      "chip": "ym2612"
    },
    {
      "channel": 1,
      "note": 59,
      "start": 32.3972,
      "duration": 0.0571,
      "velocity": 113,
      "chip": "ym2612"
    },
    {
      "channel": 4,
      "note": 40,
      "start": 32.3974,
      "duration": 0.0169,
      "velocity": 105,
      "chip": "ym2612"
    },
    {
      "channel": 2,
      "note": 62,
      "start": 32.3983,
      "duration": 0.0573,
      "velocity": 113,
      "chip": "ym2612"
    },
    {
      "channel": 1,
      "note": 59,
      "start": 32.4543,
      "duration": 0.0576,
      "velocity": 113,
      "chip": "ym2612"
    },
    {
      "channel": 2,
      "note": 59,
      "start": 32.4557,
      "duration": 0.1561,
      "velocity": 113,
      "chip": "ym2612"
    },
    {
      "channel": 1,
      "note": 59,
      "start": 32.5119,
      "duration": 0.2,
      "velocity": 113,
      "chip": "ym2612"
    },
    {
      "channel": 4,
      "note": 40,
      "start": 32.5121,
      "duration": 0.2,
      "velocity": 105,
      "chip": "ym2612"
    },
    {
      "channel": 2,
      "note": 59,
      "start": 32.6119,
      "duration": 0.1016,
      "velocity": 113,
      "chip": "ym2612"
    },
    {
      "channel": 1,
      "note": 59,
      "start": 32.712,
      "duration": 0.0089,
      "velocity": 113,
      "chip": "ym2612"
    },
    {
      "channel": 4,
      "note": 38,
      "start": 32.7122,
      "duration": 0.0017,
      "velocity": 105,
      "chip": "ym2612"
    },
    {
      "channel": 0,
      "note": 40,
      "start": 32.7135,
      "duration": 0.0073,
      "velocity": 120,
      "chip": "ym2612"
    },
    {
      "channel": 2,
      "note": 64,
      "start": 32.7135,
      "duration": 0.1072,
      "velocity": 113,
      "chip": "ym2612"
    },
    {
      "channel": 3,
      "note": 64,
      "start": 32.7136,
      "duration": 0.0073,
      "velocity": 103,
      "chip": "ym2612"
    },
    {
      "channel": 0,
      "note": 41,
      "start": 32.7209,
      "duration": 0.3149,
      "velocity": 120,
      "chip": "ym2612"
    },
    {
      "channel": 1,
      "note": 59,
      "start": 32.721,
      "duration": 0.1999,
      "velocity": 113,
      "chip": "ym2612"
    },
    {
      "channel": 3,
      "note": 62,
      "start": 32.721,
      "duration": 0.3149,
      "velocity": 103,
      "chip": "ym2612"
    },
    {
      "channel": 4,
      "note": 40,
      "start": 32.7211,
      "duration": 0.1396,
      "velocity": 105,
      "chip": "ym2612"
    },
    {
      "channel": 2,
      "note": 59,
      "start": 32.8208,
      "duration": 0.1014,
      "velocity": 113,
      "chip": "ym2612"
    },
    {
      "channel": 1,
      "note": 62,
      "start": 32.9208,
      "duration": 0.0575,
      "velocity": 113,
      "chip": "ym2612"
    },
    {
      "channel": 4,
      "note": 41,
      "start": 32.921,
      "duration": 0.0014,
      "velocity": 105,
      "chip": "ym2612"
    },
    {
      "channel": 2,
      "note": 59,
      "start": 32.9221,
      "duration": 0.0577,
      "velocity": 113,
      "chip": "ym2612"
    },
    {
      "channel": 1,
      "note": 59,
      "start": 32.9783,
      "duration": 0.0575,
      "velocity": 113,
      "chip": "ym2612"
    },
    {
      "channel": 4,
      "note": 41,
      "start": 32.9785,
      "duration": 0.0021,
      "velocity": 105,
      "chip": "ym2612"
    },
    {
      "channel": 2,
      "note": 62,
      "start": 32.9798,
      "duration": 0.0576,
      "velocity": 113,
      "chip": "ym2612"
    },
    {
      "channel": 0,
      "note": 38,
      "start": 33.0358,
      "duration": 0.0288,
      "velocity": 120,
      "chip": "ym2612"
    },
    {
      "channel": 1,
      "note": 60,
      "start": 33.0359,
      "duration": 0.0288,
      "velocity": 113,
      "chip": "ym2612"
    },
    {
      "channel": 3,
      "note": 60,
      "start": 33.036,
      "duration": 0.0288,
      "velocity": 103,
      "chip": "ym2612"
    },
    {
      "channel": 4,
      "note": 41,
      "start": 33.0361,
      "duration": 0.0022,
      "velocity": 105,
      "chip": "ym2612"
    },
    {
      "channel": 2,
      "note": 59,
      "start": 33.0375,
      "duration": 0.0288,
      "velocity": 113,
      "chip": "ym2612"
    },
    {
      "channel": 0,
      "note": 40,
      "start": 33.0647,
      "duration": 1.025,
      "velocity": 120,
      "chip": "ym2612"
    },
    {
      "channel": 1,
      "note": 59,
      "start": 33.0647,
      "duration": 0.0573,
      "velocity": 113,
      "chip": "ym2612"
    },
    {
      "channel": 3,
      "note": 59,
      "start": 33.0648,
      "duration": 1.0249,
      "velocity": 103,
      "chip": "ym2612"
    },
    {
      "channel": 4,
      "note": 38,
      "start": 33.0649,
      "duration": 0.0371,
      "velocity": 105,
      "chip": "ym2612"
    },
    {
      "channel": 2,
      "note": 60,
      "start": 33.0663,
      "duration": 0.0573,
      "velocity": 113,
      "chip": "ym2612"
    },
    {
      "channel": 1,
      "note": 59,
      "start": 33.1221,
      "duration": 0.0775,
      "velocity": 113,
      "chip": "ym2612"
    },
    {
      "channel": 4,
      "note": 40,
      "start": 33.1222,
      "duration": 0.0015,
      "velocity": 105,
      "chip": "ym2612"
    },
    {
      "channel": 2,
      "note": 59,
      "start": 33.1237,
      "duration": 0.1559,
      "velocity": 113,
      "chip": "ym2612"
    },
    {
      "channel": 1,
      "note": 59,
      "start": 33.1996,
      "duration": 0.18,
      "velocity": 113,
      "chip": "ym2612"
    },
    {
      "channel": 4,
      "note": 40,
      "start": 33.1998,
      "duration": 0.1598,
      "velocity": 105,
      "chip": "ym2612"
    },
    {
      "channel": 2,
      "note": 59,
      "start": 33.2796,
      "duration": 0.1017,
      "velocity": 113,
      "chip": "ym2612"
    },
    {
      "channel": 1,
      "note": 59,
      "start": 33.3796,
      "duration": 0.0088,
      "velocity": 113,
      "chip": "ym2612"
    },
    {
      "channel": 4,
      "note": 38,
      "start": 33.3798,
      "duration": 0.002,
      "velocity": 105,
      "chip": "ym2612"
    },
    {
      "channel": 2,
      "note": 59,
      "start": 33.3812,
      "duration": 0.1071,
      "velocity": 113,
      "chip": "ym2612"
    },
    {
      "channel": 1,
      "note": 60,
      "start": 33.3884,
      "duration": 0.1999,
      "velocity": 113,
      "chip": "ym2612"
    },
    {
      "channel": 4,
      "note": 40,
      "start": 33.3886,
      "duration": 0.1598,
      "velocity": 105,
      "chip": "ym2612"
    },
    {
      "channel": 2,
      "note": 59,
      "start": 33.4884,
      "duration": 0.1799,
      "velocity": 113,
      "chip": "ym2612"
    },
    {
      "channel": 1,
      "note": 59,
      "start": 33.5883,
      "duration": 0.1801,
      "velocity": 113,
      "chip": "ym2612"
    },
    {
      "channel": 2,
      "note": 60,
      "start": 33.6683,
      "duration": 0.1017,
      "velocity": 113,
      "chip": "ym2612"
    },
    {
      "channel": 1,
      "note": 59,
      "start": 33.7684,
      "duration": 0.0775,
      "velocity": 113,
      "chip": "ym2612"
    },
    {
      "channel": 4,
      "note": 40,
      "start": 33.7686,
      "duration": 0.0372,
      "velocity": 105,
      "chip": "ym2612"
    },
    {
      "channel": 2,
      "note": 59,
      "start": 33.77,
      "duration": 0.0772,
      "velocity": 113,
      "chip": "ym2612"
    },
    {
      "channel": 1,
      "note": 62,
      "start": 33.8459,
      "duration": 0.0088,
      "velocity": 113,
      "chip": "ym2612"
    },
    {
      "channel": 4,
      "note": 38,
      "start": 33.8461,
      "duration": 0.0017,
      "velocity": 105,
      "chip": "ym2612"
    },
    {
      "channel": 2,
      "note": 59,
      "start": 33.8472,
      "duration": 0.009,
      "velocity": 113,
      "chip": "ym2612"
    },
    {
      "channel": 1,
      "note": 59,
      "start": 33.8548,
      "duration": 0.0573,
      "velocity": 113,
      "chip": "ym2612"
    },
    {
      "channel": 4,
      "note": 40,
      "start": 33.8549,
      "duration": 0.0372,
      "velocity": 105,
      "chip": "ym2612"
    },
    {
      "channel": 2,
      "note": 62,
      "start": 33.8563,
      "duration": 0.0572,
      "velocity": 113,
      "chip": "ym2612"
    },
    {
      "channel": 1,
      "note": 59,
      "start": 33.9121,
      "duration": 0.0776,
      "velocity": 113,
      "chip": "ym2612"
    },
    {
      "channel": 2,
      "note": 59,
      "start": 33.9135,
      "duration": 0.1561,
      "velocity": 113,
      "chip": "ym2612"
    },
    {
      "channel": 1,
      "note": 64,
      "start": 33.9897,
      "duration": 0.18,
      "velocity": 113,
      "chip": "ym2612"
    },
    {
      "channel": 4,
      "note": 40,
      "start": 33.9899,
      "duration": 0.18,
      "velocity": 105,
      "chip": "ym2612"
    },
    {
      "channel": 2,
      "note": 59,
      "start": 34.0697,
      "duration": 0.1016,
      "velocity": 113,
      "chip": "ym2612"
    },
    {
      "channel": 0,
      "note": 40,
      "start": 34.0896,
      "duration": 0.1089,
      "velocity": 120,
      "chip": "ym2612"
    },
    {
      "channel": 3,
      "note": 59,
      "start": 34.0898,
      "duration": 0.2614,
      "velocity": 103,
      "chip": "ym2612"
    },
    {
      "channel": 1,
      "note": 59,
      "start": 34.1698,
      "duration": 0.0288,
      "velocity": 113,
      "chip": "ym2612"
    },
    {
      "channel": 4,
      "note": 38,
      "start": 34.17,
      "duration": 0.0019,
      "velocity": 105,
      "chip": "ym2612"
    },
    {
      "channel": 2,
      "note": 64,
      "start": 34.1713,
      "duration": 0.0285,
      "velocity": 113,
      "chip": "ym2612"
    },
    {
      "channel": 0,
      "note": 41,
      "start": 34.1986,
      "duration": 0.1436,
      "velocity": 120,
      "chip": "ym2612"
    },
    {
      "channel": 1,
      "note": 59,
      "start": 34.1987,
      "duration": 0.0574,
      "velocity": 113,
      "chip": "ym2612"
    },
    {
      "channel": 4,
      "note": 40,
      "start": 34.1988,
      "duration": 0.0009,
      "velocity": 105,
      "chip": "ym2612"
    },
    {
      "channel": 2,
      "note": 59,
      "start": 34.2,
      "duration": 0.0577,
      "velocity": 113,
      "chip": "ym2612"
    },
    {
      "channel": 1,
      "note": 65,
      "start": 34.2561,
      "duration": 0.0087,
      "velocity": 113,
      "chip": "ym2612"
    },
    {
      "channel": 4,
      "note": 43,
      "start": 34.2562,
      "duration": 0.0088,
      "velocity": 105,
      "chip": "ym2612"
    },
    {
      "channel": 2,
      "note": 59,
      "start": 34.2576,
      "duration": 0.0088,
      "velocity": 113,
      "chip": "ym2612"
    },
    {
      "channel": 1,
      "note": 59,
      "start": 34.2649,
      "duration": 0.0774,
      "velocity": 113,
      "chip": "ym2612"
    },
    {
      "channel": 4,
      "note": 38,
      "start": 34.2651,
      "duration": 0.0022,
      "velocity": 105,
      "chip": "ym2612"
    },
    {
      "channel": 2,
      "note": 65,
      "start": 34.2665,
      "duration": 0.0771,
      "velocity": 113,
      "chip": "ym2612"
    },
    {
      "channel": 0,
      "note": 43,
      "start": 34.3423,
      "duration": 0.0088,
      "velocity": 120,
      "chip": "ym2612"
    },
    {
      "channel": 1,
      "note": 62,
      "start": 34.3423,
      "duration": 0.0088,
      "velocity": 113,
      "chip": "ym2612"
    },
    {
      "channel": 4,
      "note": 41,
      "start": 34.3425,
      "duration": 0.0088,
      "velocity": 105,
      "chip": "ym2612"
    },
    {
      "channel": 2,
      "note": 59,
      "start": 34.3436,
      "duration": 0.0092,
      "velocity": 113,
      "chip": "ym2612"
    },
    {
      "channel": 0,
      "note": 40,
      "start": 34.3511,
      "duration": 0.9225,
      "velocity": 120,
      "chip": "ym2612"
    },
    {
      "channel": 1,
      "note": 59,
      "start": 34.3512,
      "duration": 0.0774,
      "velocity": 113,
      "chip": "ym2612"
    },
    {
      "channel": 3,
      "note": 57,
      "start": 34.3512,
      "duration": 0.0774,
      "velocity": 103,
      "chip": "ym2612"
    },
    {
      "channel": 4,
      "note": 38,
      "start": 34.3514,
      "duration": 0.0022,
      "velocity": 105,
      "chip": "ym2612"
    },
    {
      "channel": 2,
      "note": 62,
      "start": 34.3527,
      "duration": 0.0771,
      "velocity": 113,
      "chip": "ym2612"
    },
    {
      "channel": 1,
      "note": 59,
      "start": 34.4285,
      "duration": 0.0574,
      "velocity": 113,
      "chip": "ym2612"
    },
    {
      "channel": 3,
      "note": 64,
      "start": 34.4287,
      "duration": 0.7251,
      "velocity": 103,
      "chip": "ym2612"
    },
    {
      "channel": 4,
      "note": 40,
      "start": 34.4288,
      "duration": 0.0011,
      "velocity": 105,
      "chip": "ym2612"
    },
    {
      "channel": 2,
      "note": 59,
      "start": 34.4298,
      "duration": 0.156,
      "velocity": 113,
      "chip": "ym2612"
    },
    {
      "channel": 1,
      "note": 59,
      "start": 34.4859,
      "duration": 0.1801,
      "velocity": 113,
      "chip": "ym2612"
    },
    {
      "channel": 4,
      "note": 40,
      "start": 34.4861,
      "duration": 0.1801,
      "velocity": 105,
      "chip": "ym2612"
    },
    {
      "channel": 2,
      "note": 59,
      "start": 34.5859,
      "duration": 0.0817,
      "velocity": 113,
      "chip": "ym2612"
    },
    {
      "channel": 1,
      "note": 59,
      "start": 34.666,
      "duration": 0.0287,
      "velocity": 113,
      "chip": "ym2612"
    },
    {
      "channel": 4,
      "note": 38,
      "start": 34.6662,
      "duration": 0.0019,
      "velocity": 105,
      "chip": "ym2612"
    },
    {
      "channel": 2,
      "note": 59,
      "start": 34.6676,
      "duration": 0.1071,
      "velocity": 113,
      "chip": "ym2612"
    },
    {
      "channel": 1,
      "note": 60,
      "start": 34.6947,
      "duration": 0.1799,
      "velocity": 113,
      "chip": "ym2612"
    },
    {
      "channel": 4,
      "note": 40,
      "start": 34.6949,
      "duration": 0.1398,
      "velocity": 105,
      "chip": "ym2612"
    },
    {
      "channel": 2,
      "note": 59,
      "start": 34.7747,
      "duration": 0.1014,
      "velocity": 113,
      "chip": "ym2612"
    },
    {
      "channel": 1,
      "note": 59,
      "start": 34.8747,
      "duration": 0.0576,
      "velocity": 113,
      "chip": "ym2612"
    },
    {
      "channel": 2,
      "note": 60,
      "start": 34.8761,
      "duration": 0.0578,
      "velocity": 113,
      "chip": "ym2612"
    },
    {
      "channel": 1,
      "note": 59,
      "start": 34.9324,
      "duration": 0.0775,
      "velocity": 113,
      "chip": "ym2612"
    },
    {
      "channel": 4,
      "note": 40,
      "start": 34.9326,
      "duration": 0.0373,
      "velocity": 105,
      "chip": "ym2612"
    },
    {
      "channel": 2,
      "note": 59,
      "start": 34.934,
      "duration": 0.0775,
      "velocity": 113,
      "chip": "ym2612"
    },
    {
      "channel": 1,
      "note": 62,
      "start": 35.0099,
      "duration": 0.0088,
      "velocity": 113,
      "chip": "ym2612"
    },
    {
      "channel": 4,
      "note": 38,
      "start": 35.0101,
      "duration": 0.0018,
      "velocity": 105,
      "chip": "ym2612"
    },
    {
      "channel": 2,
      "note": 59,
      "start": 35.0115,
      "duration": 0.0088,
      "velocity": 113,
      "chip": "ym2612"
    },
    {
      "channel": 1,
      "note": 59,
      "start": 35.0187,
      "duration": 0.0774,
      "velocity": 113,
      "chip": "ym2612"
    },
    {
      "channel": 4,
      "note": 40,
      "start": 35.0189,
      "duration": 0.0372,
      "velocity": 105,
      "chip": "ym2612"
    },
    {
      "channel": 2,
      "note": 62,
      "start": 35.0203,
      "duration": 0.0769,
      "velocity": 113,
      "chip": "ym2612"
    },
    {
      "channel": 1,
      "note": 59,
      "start": 35.0962,
      "duration": 0.0576,
      "velocity": 113,
      "chip": "ym2612"
    },
    {
      "channel": 2,
      "note": 59,
      "start": 35.0973,
      "duration": 0.1563,
      "velocity": 113,
      "chip": "ym2612"
    },
    {
      "channel": 1,
      "note": 59,
      "start": 35.1538,
      "duration": 0.18,
      "velocity": 113,
      "chip": "ym2612"
    },
    {
      "channel": 3,
      "note": 65,
      "start": 35.1539,
      "duration": 0.2088,
      "velocity": 103,
      "chip": "ym2612"
    },
    {
      "channel": 4,
      "note": 40,
      "start": 35.154,
      "duration": 0.1799,
      "velocity": 105,
      "chip": "ym2612"
    },
    {
      "channel": 2,
      "note": 59,
      "start": 35.2537,
      "duration": 0.0816,
      "velocity": 113,
      "chip": "ym2612"
    },
    {
      "channel": 0,
      "note": 40,
      "start": 35.2737,
      "duration": 0.0889,
      "velocity": 120,
      "chip": "ym2612"
    },
    {
      "channel": 1,
      "note": 59,
      "start": 35.3338,
      "duration": 0.0288,
      "velocity": 113,
      "chip": "ym2612"
    },
    {
      "channel": 4,
      "note": 38,
      "start": 35.334,
      "duration": 0.0019,
      "velocity": 105,
      "chip": "ym2612"
    },
    {
      "channel": 2,
      "note": 64,
      "start": 35.3354,
      "duration": 0.1271,
      "velocity": 113,
      "chip": "ym2612"
    },
    {
      "channel": 0,
      "note": 41,
      "start": 35.3626,
      "duration": 0.315,
      "velocity": 120,
      "chip": "ym2612"
    },
    {
      "channel": 1,
      "note": 59,
      "start": 35.3627,
      "duration": 0.1799,
      "velocity": 113,
      "chip": "ym2612"
    },
    {
      "channel": 3,
      "note": 62,
      "start": 35.3627,
      "duration": 0.2575,
      "velocity": 103,
      "chip": "ym2612"
    },
    {
      "channel": 4,
      "note": 40,
      "start": 35.3629,
      "duration": 0.1396,
      "velocity": 105,
      "chip": "ym2612"
    },
    {
      "channel": 2,
      "note": 59,
      "start": 35.4625,
      "duration": 0.0816,
      "velocity": 113,
      "chip": "ym2612"
    },
    {
      "channel": 1,
      "note": 62,
      "start": 35.5425,
      "duration": 0.0776,
      "velocity": 113,
      "chip": "ym2612"
    },
    {
      "channel": 4,
      "note": 41,
      "start": 35.5427,
      "duration": 0.0022,
      "velocity": 105,
      "chip": "ym2612"
    },
    {
      "channel": 2,
      "note": 59,
      "start": 35.5441,
      "duration": 0.0773,
      "velocity": 113,
      "chip": "ym2612"
    },
    {
      "channel": 1,
      "note": 59,
      "start": 35.6202,
      "duration": 0.0575,
      "velocity": 113,
      "chip": "ym2612"
    },
    {
      "channel": 3,
      "note": 60,
      "start": 35.6203,
      "duration": 0.0574,
      "velocity": 103,
      "chip": "ym2612"
    },
    {
      "channel": 4,
      "note": 41,
      "start": 35.6204,
      "duration": 0.0014,
      "velocity": 105,
      "chip": "ym2612"
    },
    {
      "channel": 2,
      "note": 62,
      "start": 35.6215,
      "duration": 0.0578,
      "velocity": 113,
      "chip": "ym2612"
    },
    {
      "channel": 0,
      "note": 38,
      "start": 35.6776,
      "duration": 0.0088,
      "velocity": 120,
      "chip": "ym2612"
    },
    {
      "channel": 1,
      "note": 60,
      "start": 35.6777,
      "duration": 0.0088,
      "velocity": 113,
      "chip": "ym2612"
    },
    {
      "channel": 3,
      "note": 59,
      "start": 35.6778,
      "duration": 0.0088,
      "velocity": 103,
      "chip": "ym2612"
    },
    {
      "channel": 4,
      "note": 41,
      "start": 35.6779,
      "duration": 0.0023,
      "velocity": 105,
      "chip": "ym2612"
    },
    {
      "channel": 2,
      "note": 59,
      "start": 35.6793,
      "duration": 0.0088,
      "velocity": 113,
      "chip": "ym2612"
    },
    {
      "channel": 0,
      "note": 40,
      "start": 35.6865,
      "duration": 0.9223,
      "velocity": 120,
      "chip": "ym2612"
    },
    {
      "channel": 1,
      "note": 59,
      "start": 35.6866,
      "duration": 0.0774,
      "velocity": 113,
      "chip": "ym2612"
    },
    {
      "channel": 3,
      "note": 57,
      "start": 35.6866,
      "duration": 0.0774,
      "velocity": 103,
      "chip": "ym2612"
    },
    {
      "channel": 4,
      "note": 38,
      "start": 35.6867,
      "duration": 0.037,
      "velocity": 105,
      "chip": "ym2612"
    },
    {
      "channel": 2,
      "note": 60,
      "start": 35.6881,
      "duration": 0.0774,
      "velocity": 113,
      "chip": "ym2612"
    },
    {
      "channel": 1,
      "note": 59,
      "start": 35.7639,
      "duration": 0.0574,
      "velocity": 113,
      "chip": "ym2612"
    },
    {
      "channel": 3,
      "note": 59,
      "start": 35.7641,
      "duration": 0.9264,
      "velocity": 103,
      "chip": "ym2612"
    },
    {
      "channel": 4,
      "note": 40,
      "start": 35.7641,
      "duration": 0.0014,
      "velocity": 105,
      "chip": "ym2612"
    },
    {
      "channel": 2,
      "note": 59,
      "start": 35.7655,
      "duration": 0.1557,
      "velocity": 113,
      "chip": "ym2612"
    },
    {
      "channel": 1,
      "note": 59,
      "start": 35.8213,
      "duration": 0.2,
      "velocity": 113,
      "chip": "ym2612"
    },
    {
      "channel": 4,
      "note": 40,
      "start": 35.8215,
      "duration": 0.1798,
      "velocity": 105,
      "chip": "ym2612"
    },
    {
      "channel": 2,
      "note": 59,
      "start": 35.9213,
      "duration": 0.1013,
      "velocity": 113,
      "chip": "ym2612"
    },
    {
      "channel": 1,
      "note": 59,
      "start": 36.0213,
      "duration": 0.0086,
      "velocity": 113,
      "chip": "ym2612"
    },
    {
      "channel": 4,
      "note": 38,
      "start": 36.0215,
      "duration": 0.0018,
      "velocity": 105,
      "chip": "ym2612"
    },
    {
      "channel": 2,
      "note": 59,
      "start": 36.0226,
      "duration": 0.1073,
      "velocity": 113,
      "chip": "ym2612"
    },
    {
      "channel": 1,
      "note": 60,
      "start": 36.03,
      "duration": 0.1799,
      "velocity": 113,
      "chip": "ym2612"
    },
    {
      "channel": 4,
      "note": 40,
      "start": 36.0301,
      "duration": 0.1598,
      "velocity": 105,
      "chip": "ym2612"
    },
    {
      "channel": 2,
      "note": 59,
      "start": 36.13,
      "duration": 0.0814,
      "velocity": 113,
      "chip": "ym2612"
    },
    {
      "channel": 1,
      "note": 59,
      "start": 36.21,
      "duration": 0.0776,
      "velocity": 113,
      "chip": "ym2612"
    },
    {
      "channel": 2,
      "note": 60,
      "start": 36.2114,
      "duration": 0.0775,
      "velocity": 113,
      "chip": "ym2612"
    },
    {
      "channel": 1,
      "note": 59,
      "start": 36.2876,
      "duration": 0.0575,
      "velocity": 113,
      "chip": "ym2612"
    },
    {
      "channel": 4,
      "note": 40,
      "start": 36.2878,
      "duration": 0.0372,
      "velocity": 105,
      "chip": "ym2612"
    },
    {
      "channel": 2,
      "note": 59,
      "start": 36.2889,
      "duration": 0.0577,
      "velocity": 113,
      "chip": "ym2612"
    },
    {
      "channel": 1,
      "note": 62,
      "start": 36.3451,
      "duration": 0.0287,
      "velocity": 113,
      "chip": "ym2612"
    },
    {
      "channel": 4,
      "note": 38,
      "start": 36.3453,
      "duration": 0.0017,
      "velocity": 105,
      "chip": "ym2612"
    },
    {
      "channel": 2,
      "note": 59,
      "start": 36.3466,
      "duration": 0.0285,
      "velocity": 113,
      "chip": "ym2612"
    },
    {
      "channel": 1,
      "note": 59,
      "start": 36.3739,
      "duration": 0.0573,
      "velocity": 113,
      "chip": "ym2612"
    },
    {
      "channel": 4,
      "note": 40,
      "start": 36.3741,
      "duration": 0.0172,
      "velocity": 105,
      "chip": "ym2612"
    },
    {
      "channel": 2,
      "note": 62,
      "start": 36.3752,
      "duration": 0.0574,
      "velocity": 113,
      "chip": "ym2612"
    },
    {
      "channel": 1,
      "note": 59,
      "start": 36.4312,
      "duration": 0.0576,
      "velocity": 113,
      "chip": "ym2612"
    },
    {
      "channel": 2,
      "note": 59,
      "start": 36.4327,
      "duration": 0.1561,
      "velocity": 113,
      "chip": "ym2612"
    },
    {
      "channel": 1,
      "note": 64,
      "start": 36.4888,
      "duration": 0.2,
      "velocity": 113,
      "chip": "ym2612"
    },
    {
      "channel": 4,
      "note": 40,
      "start": 36.489,
      "duration": 0.2,
      "velocity": 105,
      "chip": "ym2612"
    },
    {
      "channel": 2,
      "note": 59,
      "start": 36.5888,
      "duration": 0.1013,
      "velocity": 113,
      "chip": "ym2612"
    },
    {
      "channel": 0,
      "note": 40,
      "start": 36.6088,
      "duration": 0.0824,
      "velocity": 120,
      "chip": "ym2612"
    },
    {
      "channel": 1,
      "note": 59,
      "start": 36.6889,
      "duration": 0.0088,
      "velocity": 113,
      "chip": "ym2612"
    },
    {
      "channel": 4,
      "note": 38,
      "start": 36.6891,
      "duration": 0.0019,
      "velocity": 105,
      "chip": "ym2612"
    },
    {
      "channel": 2,
      "note": 64,
      "start": 36.6902,
      "duration": 0.009,
      "velocity": 113,
      "chip": "ym2612"
    },
    {
      "channel": 3,
      "note": 59,
      "start": 36.6905,
      "duration": 0.0897,
      "velocity": 103,
      "chip": "ym2612"
    },
    {
      "channel": 0,
      "note": 40,
      "start": 36.6977,
      "duration": 0.0856,
      "velocity": 120,
      "chip": "ym2612"
    },
    {
      "channel": 1,
      "note": 59,
      "start": 36.6978,
      "duration": 0.0773,
      "velocity": 113,
      "chip": "ym2612"
    },
    {
      "channel": 4,
      "note": 40,
      "start": 36.6979,
      "duration": 0.0011,
      "velocity": 105,
      "chip": "ym2612"
    },
    {
      "channel": 2,
      "note": 59,
      "start": 36.6993,
      "duration": 0.0771,
      "velocity": 113,
      "chip": "ym2612"
    },
    {
      "channel": 1,
      "note": 65,
      "start": 36.7751,
      "duration": 0.0028,
      "velocity": 113,
      "chip": "ym2612"
    },
    {
      "channel": 4,
      "note": 43,
      "start": 36.7753,
      "duration": 0.0025,
      "velocity": 105,
      "chip": "ym2612"
    },
    {
      "channel": 2,
      "note": 59,
      "start": 36.7764,
      "duration": 0.0028,
      "velocity": 113,
      "chip": "ym2612"
    },
    {
      "channel": 1,
      "note": 59,
      "start": 36.7779,
      "duration": 0.0022,
      "velocity": 113,
      "chip": "ym2612"
    },
    {
      "channel": 4,
      "note": 38,
      "start": 36.778,
      "duration": 0.0013,
      "velocity": 105,
      "chip": "ym2612"
    },
    {
      "channel": 2,
      "note": 65,
      "start": 36.7793,
      "duration": 0.0024,
      "velocity": 113,
      "chip": "ym2612"
    },
    {
      "channel": 1,
      "note": 62,
      "start": 36.7802,
      "duration": 0.0031,
      "velocity": 113,
      "chip": "ym2612"
    },
    {
      "channel": 4,
      "note": 41,
      "start": 36.7803,
      "duration": 0.0031,
      "velocity": 105,
      "chip": "ym2612"
    },
    {
      "channel": 2,
      "note": 59,
      "start": 36.7817,
      "duration": 0.0027,
      "velocity": 113,
      "chip": "ym2612"
    },
    {
      "channel": 1,
      "note": 59,
      "start": 36.7834,
      "duration": 0.0031,
      "velocity": 113,
      "chip": "ym2612"
    },
    {
      "channel": 4,
      "note": 38,
      "start": 36.7835,
      "duration": 0.0014,
      "velocity": 105,
      "chip": "ym2612"
    },
    {
      "channel": 2,
      "note": 62,
      "start": 36.7845,
      "duration": 0.0037,
      "velocity": 113,
      "chip": "ym2612"
    },
    {
      "channel": 0,
      "note": 41,
      "start": 36.7865,
      "duration": 0.6085,
      "velocity": 120,
      "chip": "ym2612"
    },
    {
      "channel": 1,
      "note": 48,
      "start": 36.7866,
      "duration": 0.0761,
      "velocity": 113,
      "chip": "ym2612"
    },
    {
      "channel": 4,
      "note": 41,
      "start": 36.7872,
      "duration": 0.1556,
      "velocity": 105,
      "chip": "ym2612"
    },
    {
      "channel": 2,
      "note": 62,
      "start": 36.7883,
      "duration": 0.1544,
      "velocity": 113,
      "chip": "ym2612"
    },
    {
      "channel": 1,
      "note": 53,
      "start": 36.8628,
      "duration": 0.1801,
      "velocity": 113,
      "chip": "ym2612"
    },
    {
      "channel": 2,
      "note": 48,
      "start": 36.9428,
      "duration": 0.1014,
      "velocity": 113,
      "chip": "ym2612"
    },
    {
      "channel": 1,
      "note": 57,
      "start": 37.0429,
      "duration": 0.0085,
      "velocity": 113,
      "chip": "ym2612"
    },
    {
      "channel": 4,
      "note": 41,
      "start": 37.043,
      "duration": 0.1085,
      "velocity": 105,
      "chip": "ym2612"
    },
    {
      "channel": 2,
      "note": 53,
      "start": 37.0442,
      "duration": 0.1072,
      "velocity": 113,
      "chip": "ym2612"
    },
    {
      "channel": 1,
      "note": 53,
      "start": 37.0514,
      "duration": 0.2002,
      "velocity": 113,
      "chip": "ym2612"
    },
    {
      "channel": 2,
      "note": 57,
      "start": 37.1514,
      "duration": 0.1016,
      "velocity": 113,
      "chip": "ym2612"
    },
    {
      "channel": 1,
      "note": 59,
      "start": 37.2517,
      "duration": 0.0573,
      "velocity": 113,
      "chip": "ym2612"
    },
    {
      "channel": 3,
      "note": 84,
      "start": 37.2518,
      "duration": 0.1434,
      "velocity": 95,
      "chip": "ym2612"
    },
    {
      "channel": 4,
      "note": 41,
      "start": 37.2519,
      "duration": 0.0013,
      "velocity": 105,
      "chip": "ym2612"
    },
    {
      "channel": 2,
      "note": 53,
      "start": 37.2531,
      "duration": 0.0574,
      "velocity": 113,
      "chip": "ym2612"
    },
    {
      "channel": 1,
      "note": 53,
      "start": 37.309,
      "duration": 0.0774,
      "velocity": 113,
      "chip": "ym2612"
    },
    {
      "channel": 4,
      "note": 41,
      "start": 37.3093,
      "duration": 0.0011,
      "velocity": 105,
      "chip": "ym2612"
    },
    {
      "channel": 2,
      "note": 59,
      "start": 37.3106,
      "duration": 0.0771,
      "velocity": 113,
      "chip": "ym2612"
    },
    {
      "channel": 1,
      "note": 57,
      "start": 37.3865,
      "duration": 0.0086,
      "velocity": 113,
      "chip": "ym2612"
    },
    {
      "channel": 4,
      "note": 41,
      "start": 37.3867,
      "duration": 0.0085,
      "velocity": 105,
      "chip": "ym2612"
    },
    {
      "channel": 2,
      "note": 53,
      "start": 37.3877,
      "duration": 0.0088,
      "velocity": 113,
      "chip": "ym2612"
    },
    {
      "channel": 0,
      "note": 43,
      "start": 37.3951,
      "duration": 0.7819,
      "velocity": 120,
      "chip": "ym2612"
    },
    {
      "channel": 1,
      "note": 48,
      "start": 37.3951,
      "duration": 0.0571,
      "velocity": 113,
      "chip": "ym2612"
    },
    {
      "channel": 3,
      "note": 83,
      "start": 37.3952,
      "duration": 0.1344,
      "velocity": 95,
      "chip": "ym2612"
    },
    {
      "channel": 4,
      "note": 43,
      "start": 37.3953,
      "duration": 0.2142,
      "velocity": 105,
      "chip": "ym2612"
    },
    {
      "channel": 2,
      "note": 57,
      "start": 37.3966,
      "duration": 0.0569,
      "velocity": 113,
      "chip": "ym2612"
    },
    {
      "channel": 1,
      "note": 50,
      "start": 37.4522,
      "duration": 0.0773,
      "velocity": 113,
      "chip": "ym2612"
    },
    {
      "channel": 2,
      "note": 48,
      "start": 37.4536,
      "duration": 0.1558,
      "velocity": 113,
      "chip": "ym2612"
    },
    {
      "channel": 1,
      "note": 55,
      "start": 37.5296,
      "duration": 0.1801,
      "velocity": 113,
      "chip": "ym2612"
    },
    {
      "channel": 3,
      "note": 81,
      "start": 37.5297,
      "duration": 0.1801,
      "velocity": 95,
      "chip": "ym2612"
    },
    {
      "channel": 2,
      "note": 50,
      "start": 37.6095,
      "duration": 0.1016,
      "velocity": 113,
      "chip": "ym2612"
    },
    {
      "channel": 1,
      "note": 59,
      "start": 37.7098,
      "duration": 0.008,
      "velocity": 113,
      "chip": "ym2612"
    },
    {
      "channel": 3,
      "note": 79,
      "start": 37.7099,
      "duration": 0.4656,
      "velocity": 95,
      "chip": "ym2612"
    },
    {
      "channel": 4,
      "note": 43,
      "start": 37.71,
      "duration": 0.1279,
      "velocity": 105,
      "chip": "ym2612"
    },
    {
      "channel": 2,
      "note": 55,
      "start": 37.7111,
      "duration": 0.1068,
      "velocity": 113,
      "chip": "ym2612"
    },
    {
      "channel": 1,
      "note": 55,
      "start": 37.7178,
      "duration": 0.2,
      "velocity": 113,
      "chip": "ym2612"
    },
    {
      "channel": 2,
      "note": 59,
      "start": 37.8179,
      "duration": 0.2,
      "velocity": 113,
      "chip": "ym2612"
    },
    {
      "channel": 1,
      "note": 60,
      "start": 37.9179,
      "duration": 0.18,
      "velocity": 113,
      "chip": "ym2612"
    },
    {
      "channel": 4,
      "note": 43,
      "start": 37.9181,
      "duration": 0.0999,
      "velocity": 105,
      "chip": "ym2612"
    },
    {
      "channel": 2,
      "note": 55,
      "start": 38.0179,
      "duration": 0.0814,
      "velocity": 113,
      "chip": "ym2612"
    },
    {
      "channel": 1,
      "note": 55,
      "start": 38.0979,
      "duration": 0.0774,
      "velocity": 113,
      "chip": "ym2612"
    },
    {
      "channel": 4,
      "note": 43,
      "start": 38.0981,
      "duration": 0.0013,
      "velocity": 105,
      "chip": "ym2612"
    },
    {
      "channel": 2,
      "note": 60,
      "start": 38.0993,
      "duration": 0.0771,
      "velocity": 113,
      "chip": "ym2612"
    },
    {
      "channel": 1,
      "note": 59,
      "start": 38.1754,
      "duration": 0.0087,
      "velocity": 113,
      "chip": "ym2612"
    },
    {
      "channel": 3,
      "note": 77,
      "start": 38.1755,
      "duration": 0.0087,
      "velocity": 95,
      "chip": "ym2612"
    },
    {
      "channel": 4,
      "note": 43,
      "start": 38.1756,
      "duration": 0.0015,
      "velocity": 105,
      "chip": "ym2612"
    },
    {
      "channel": 2,
      "note": 55,
      "start": 38.1765,
      "duration": 0.0089,
      "velocity": 113,
      "chip": "ym2612"
    },
    {
      "channel": 0,
      "note": 45,
      "start": 38.1841,
      "duration": 0.6588,
      "velocity": 120,
      "chip": "ym2612"
    },
    {
      "channel": 1,
      "note": 50,
      "start": 38.1841,
      "duration": 0.0569,
      "velocity": 113,
      "chip": "ym2612"
    },
    {
      "channel": 3,
      "note": 76,
      "start": 38.1843,
      "duration": 0.666,
      "velocity": 95,
      "chip": "ym2612"
    },
    {
      "channel": 4,
      "note": 43,
      "start": 38.1844,
      "duration": 0.0012,
      "velocity": 105,
      "chip": "ym2612"
    },
    {
      "channel": 2,
      "note": 59,
      "start": 38.1855,
      "duration": 0.057,
      "velocity": 113,
      "chip": "ym2612"
    },
    {
      "channel": 1,
      "note": 52,
      "start": 38.2411,
      "duration": 0.0771,
      "velocity": 113,
      "chip": "ym2612"
    },
    {
      "channel": 4,
      "note": 45,
      "start": 38.2413,
      "duration": 0.137,
      "velocity": 105,
      "chip": "ym2612"
    },
    {
      "channel": 2,
      "note": 50,
      "start": 38.2425,
      "duration": 0.1757,
      "velocity": 113,
      "chip": "ym2612"
    },
    {
      "channel": 1,
      "note": 57,
      "start": 38.3183,
      "duration": 0.18,
      "velocity": 113,
      "chip": "ym2612"
    },
    {
      "channel": 2,
      "note": 52,
      "start": 38.4182,
      "duration": 0.0815,
      "velocity": 113,
      "chip": "ym2612"
    },
    {
      "channel": 1,
      "note": 60,
      "start": 38.4984,
      "duration": 0.0283,
      "velocity": 113,
      "chip": "ym2612"
    },
    {
      "channel": 4,
      "note": 45,
      "start": 38.4985,
      "duration": 0.1283,
      "velocity": 105,
      "chip": "ym2612"
    },
    {
      "channel": 2,
      "note": 57,
      "start": 38.4997,
      "duration": 0.107,
      "velocity": 113,
      "chip": "ym2612"
    },
    {
      "channel": 1,
      "note": 57,
      "start": 38.5268,
      "duration": 0.18,
      "velocity": 113,
      "chip": "ym2612"
    },
    {
      "channel": 2,
      "note": 60,
      "start": 38.6068,
      "duration": 0.1014,
      "velocity": 113,
      "chip": "ym2612"
    },
    {
      "channel": 1,
      "note": 62,
      "start": 38.7069,
      "duration": 0.0572,
      "velocity": 113,
      "chip": "ym2612"
    },
    {
      "channel": 4,
      "note": 45,
      "start": 38.7071,
      "duration": 0.0013,
      "velocity": 105,
      "chip": "ym2612"
    },
    {
      "channel": 2,
      "note": 57,
      "start": 38.7083,
      "duration": 0.0572,
      "velocity": 113,
      "chip": "ym2612"
    },
    {
      "channel": 1,
      "note": 57,
      "start": 38.7642,
      "duration": 0.0772,
      "velocity": 113,
      "chip": "ym2612"
    },
    {
      "channel": 4,
      "note": 45,
      "start": 38.7643,
      "duration": 0.0013,
      "velocity": 105,
      "chip": "ym2612"
    },
    {
      "channel": 2,
      "note": 62,
      "start": 38.7655,
      "duration": 0.0772,
      "velocity": 113,
      "chip": "ym2612"
    },
    {
      "channel": 1,
      "note": 60,
      "start": 38.8415,
      "duration": 0.0088,
      "velocity": 113,
      "chip": "ym2612"
    },
    {
      "channel": 4,
      "note": 45,
      "start": 38.8416,
      "duration": 0.0013,
      "velocity": 105,
      "chip": "ym2612"
    },
    {
      "channel": 2,
      "note": 57,
      "start": 38.8428,
      "duration": 0.0088,
      "velocity": 113,
      "chip": "ym2612"
    },
    {
      "channel": 0,
      "note": 45,
      "start": 38.8501,
      "duration": 0.3432,
      "velocity": 120,
      "chip": "ym2612"
    },
    {
      "channel": 1,
      "note": 52,
      "start": 38.8502,
      "duration": 0.0769,
      "velocity": 113,
      "chip": "ym2612"
    },
    {
      "channel": 3,
      "note": 76,
      "start": 38.8503,
      "duration": 0.3146,
      "velocity": 95,
      "chip": "ym2612"
    },
    {
      "channel": 4,
      "note": 45,
      "start": 38.8505,
      "duration": 0.0968,
      "velocity": 105,
      "chip": "ym2612"
    },
    {
      "channel": 2,
      "note": 60,
      "start": 38.8517,
      "duration": 0.1554,
      "velocity": 113,
      "chip": "ym2612"
    },
    {
      "channel": 1,
      "note": 50,
      "start": 38.9272,
      "duration": 0.18,
      "velocity": 113,
      "chip": "ym2612"
    },
    {
      "channel": 2,
      "note": 52,
      "start": 39.0072,
      "duration": 0.1014,
      "velocity": 113,
      "chip": "ym2612"
    },
    {
      "channel": 1,
      "note": 55,
      "start": 39.1073,
      "duration": 0.0575,
      "velocity": 113,
      "chip": "ym2612"
    },
    {
      "channel": 4,
      "note": 45,
      "start": 39.1075,
      "duration": 0.001,
      "velocity": 105,
      "chip": "ym2612"
    },
    {
      "channel": 2,
      "note": 50,
      "start": 39.1087,
      "duration": 0.0574,
      "velocity": 113,
      "chip": "ym2612"
    },
    {
      "channel": 1,
      "note": 59,
      "start": 39.1649,
      "duration": 0.0285,
      "velocity": 113,
      "chip": "ym2612"
    },
    {
      "channel": 3,
      "note": 81,
      "start": 39.165,
      "duration": 0.0285,
      "velocity": 95,
      "chip": "ym2612"
    },
    {
      "channel": 4,
      "note": 45,
      "start": 39.1651,
      "duration": 0.0017,
      "velocity": 105,
      "chip": "ym2612"
    },
    {
      "channel": 2,
      "note": 55,
      "start": 39.1662,
      "duration": 0.0284,
      "velocity": 113,
      "chip": "ym2612"
    },
    {
      "channel": 0,
      "note": 43,
      "start": 39.1934,
      "duration": 0.3231,
      "velocity": 120,
      "chip": "ym2612"
    },
    {
      "channel": 1,
      "note": 55,
      "start": 39.1934,
      "duration": 0.0568,
      "velocity": 113,
      "chip": "ym2612"
    },
    {
      "channel": 3,
      "note": 79,
      "start": 39.1936,
      "duration": 0.3145,
      "velocity": 95,
      "chip": "ym2612"
    },
    {
      "channel": 4,
      "note": 43,
      "start": 39.1937,
      "duration": 0.0967,
      "velocity": 105,
      "chip": "ym2612"
    },
    {
      "channel": 2,
      "note": 59,
      "start": 39.1946,
      "duration": 0.1556,
      "velocity": 113,
      "chip": "ym2612"
    },
    {
      "channel": 1,
      "note": 60,
      "start": 39.2503,
      "duration": 0.2,
      "velocity": 113,
      "chip": "ym2612"
    },
    {
      "channel": 2,
      "note": 55,
      "start": 39.3503,
      "duration": 0.1013,
      "velocity": 113,
      "chip": "ym2612"
    },
    {
      "channel": 1,
      "note": 55,
      "start": 39.4504,
      "duration": 0.0575,
      "velocity": 113,
      "chip": "ym2612"
    },
    {
      "channel": 4,
      "note": 43,
      "start": 39.4506,
      "duration": 0.0009,
      "velocity": 105,
      "chip": "ym2612"
    },
    {
      "channel": 2,
      "note": 60,
      "start": 39.4517,
      "duration": 0.0576,
      "velocity": 113,
      "chip": "ym2612"
    },
    {
      "channel": 1,
      "note": 59,
      "start": 39.508,
      "duration": 0.0085,
      "velocity": 113,
      "chip": "ym2612"
    },
    {
      "channel": 3,
      "note": 76,
      "start": 39.5081,
      "duration": 0.0085,
      "velocity": 95,
      "chip": "ym2612"
    },
    {
      "channel": 4,
      "note": 43,
      "start": 39.5082,
      "duration": 0.0019,
      "velocity": 105,
      "chip": "ym2612"
    },
    {
      "channel": 2,
      "note": 55,
      "start": 39.5093,
      "duration": 0.0086,
      "velocity": 113,
      "chip": "ym2612"
    },
    {
      "channel": 0,
      "note": 41,
      "start": 39.5164,
      "duration": 0.6862,
      "velocity": 120,
      "chip": "ym2612"
    },
    {
      "channel": 1,
      "note": 50,
      "start": 39.5165,
      "duration": 0.0771,
      "velocity": 113,
      "chip": "ym2612"
    },
    {
      "channel": 3,
      "note": 72,
      "start": 39.5166,
      "duration": 0.5231,
      "velocity": 95,
      "chip": "ym2612"
    },
    {
      "channel": 4,
      "note": 43,
      "start": 39.5168,
      "duration": 0.001,
      "velocity": 105,
      "chip": "ym2612"
    },
    {
      "channel": 4,
      "note": 43,
      "start": 39.5178,
      "duration": 0.0759,
      "velocity": 105,
      "chip": "ym2612"
    },
    {
      "channel": 2,
      "note": 59,
      "start": 39.518,
      "duration": 0.0767,
      "velocity": 113,
      "chip": "ym2612"
    },
    {
      "channel": 1,
      "note": 48,
      "start": 39.5937,
      "duration": 0.0571,
      "velocity": 113,
      "chip": "ym2612"
    },
    {
      "channel": 4,
      "note": 41,
      "start": 39.5938,
      "duration": 0.1571,
      "velocity": 105,
      "chip": "ym2612"
    },
    {
      "channel": 2,
      "note": 50,
      "start": 39.5948,
      "duration": 0.156,
      "velocity": 113,
      "chip": "ym2612"
    },
    {
      "channel": 1,
      "note": 53,
      "start": 39.6509,
      "duration": 0.2,
      "velocity": 113,
      "chip": "ym2612"
    },
    {
      "channel": 2,
      "note": 48,
      "start": 39.7509,
      "duration": 0.1013,
      "velocity": 113,
      "chip": "ym2612"
    },
    {
      "channel": 1,
      "note": 57,
      "start": 39.851,
      "duration": 0.0083,
      "velocity": 113,
      "chip": "ym2612"
    },
    {
      "channel": 4,
      "note": 41,
      "start": 39.8512,
      "duration": 0.0682,
      "velocity": 105,
      "chip": "ym2612"
    },
    {
      "channel": 2,
      "note": 53,
      "start": 39.8522,
      "duration": 0.1071,
      "velocity": 113,
      "chip": "ym2612"
    },
    {
      "channel": 1,
      "note": 53,
      "start": 39.8594,
      "duration": 0.1802,
      "velocity": 113,
      "chip": "ym2612"
    },
    {
      "channel": 2,
      "note": 57,
      "start": 39.9594,
      "duration": 0.0816,
      "velocity": 113,
      "chip": "ym2612"
    },
    {
      "channel": 1,
      "note": 59,
      "start": 40.0397,
      "duration": 0.077,
      "velocity": 113,
      "chip": "ym2612"
    },
    {
      "channel": 3,
      "note": 84,
      "start": 40.0398,
      "duration": 0.1631,
      "velocity": 95,
      "chip": "ym2612"
    },
    {
      "channel": 4,
      "note": 41,
      "start": 40.0399,
      "duration": 0.002,
      "velocity": 105,
      "chip": "ym2612"
    },
    {
      "channel": 2,
      "note": 53,
      "start": 40.041,
      "duration": 0.0769,
      "velocity": 113,
      "chip": "ym2612"
    },
    {
      "channel": 1,
      "note": 53,
      "start": 40.1167,
      "duration": 0.0572,
      "velocity": 113,
      "chip": "ym2612"
    },
    {
      "channel": 4,
      "note": 41,
      "start": 40.1169,
      "duration": 0.0655,
      "velocity": 105,
      "chip": "ym2612"
    },
    {
      "channel": 2,
      "note": 59,
      "start": 40.118,
      "duration": 0.0573,
      "velocity": 113,
      "chip": "ym2612"
    },
    {
      "channel": 1,
      "note": 57,
      "start": 40.174,
      "duration": 0.0288,
      "velocity": 113,
      "chip": "ym2612"
    },
    {
      "channel": 2,
      "note": 53,
      "start": 40.1753,
      "duration": 0.0285,
      "velocity": 113,
      "chip": "ym2612"
    },
    {
      "channel": 0,
      "note": 43,
      "start": 40.2027,
      "duration": 0.6659,
      "velocity": 120,
      "chip": "ym2612"
    },
    {
      "channel": 1,
      "note": 48,
      "start": 40.2028,
      "duration": 0.0568,
      "velocity": 113,
      "chip": "ym2612"
    },
    {
      "channel": 3,
      "note": 83,
      "start": 40.2029,
      "duration": 0.2369,
      "velocity": 95,
      "chip": "ym2612"
    },
    {
      "channel": 4,
      "note": 43,
      "start": 40.203,
      "duration": 0.2738,
      "velocity": 105,
      "chip": "ym2612"
    },
    {
      "channel": 2,
      "note": 57,
      "start": 40.2039,
      "duration": 0.1557,
      "velocity": 113,
      "chip": "ym2612"
    },
    {
      "channel": 1,
      "note": 50,
      "start": 40.2596,
      "duration": 0.1801,
      "velocity": 113,
      "chip": "ym2612"
    },
    {
      "channel": 2,
      "note": 48,
      "start": 40.3597,
      "duration": 0.0814,
      "velocity": 113,
      "chip": "ym2612"
    },
    {
      "channel": 1,
      "note": 55,
      "start": 40.4398,
      "duration": 0.0772,
      "velocity": 113,
      "chip": "ym2612"
    },
    {
      "channel": 3,
      "note": 81,
      "start": 40.4399,
      "duration": 0.0772,
      "velocity": 95,
      "chip": "ym2612"
    },
    {
      "channel": 2,
      "note": 50,
      "start": 40.441,
      "duration": 0.0771,
      "velocity": 113,
      "chip": "ym2612"
    },
    {
      "channel": 1,
      "note": 59,
      "start": 40.5171,
      "duration": 0.0082,
      "velocity": 113,
      "chip": "ym2612"
    },
    {
      "channel": 3,
      "note": 79,
      "start": 40.5172,
      "duration": 0.1428,
      "velocity": 95,
      "chip": "ym2612"
    },
    {
      "channel": 4,
      "note": 43,
      "start": 40.5173,
      "duration": 0.001,
      "velocity": 105,
      "chip": "ym2612"
    },
    {
      "channel": 2,
      "note": 55,
      "start": 40.5182,
      "duration": 0.0085,
      "velocity": 113,
      "chip": "ym2612"
    },
    {
      "channel": 1,
      "note": 55,
      "start": 40.5253,
      "duration": 0.0572,
      "velocity": 113,
      "chip": "ym2612"
    },
    {
      "channel": 4,
      "note": 43,
      "start": 40.5255,
      "duration": 0.0013,
      "velocity": 105,
      "chip": "ym2612"
    },
    {
      "channel": 2,
      "note": 59,
      "start": 40.5267,
      "duration": 0.0572,
      "velocity": 113,
      "chip": "ym2612"
    },
    {
      "channel": 1,
      "note": 60,
      "start": 40.5826,
      "duration": 0.0773,
      "velocity": 113,
      "chip": "ym2612"
    },
    {
      "channel": 4,
      "note": 43,
      "start": 40.5828,
      "duration": 0.037,
      "velocity": 105,
      "chip": "ym2612"
    },
    {
      "channel": 2,
      "note": 55,
      "start": 40.584,
      "duration": 0.1758,
      "velocity": 113,
      "chip": "ym2612"
    },
    {
      "channel": 1,
      "note": 55,
      "start": 40.6599,
      "duration": 0.1801,
      "velocity": 113,
      "chip": "ym2612"
    },
    {
      "channel": 3,
      "note": 76,
      "start": 40.6601,
      "duration": 0.1801,
      "velocity": 95,
      "chip": "ym2612"
    },
    {
      "channel": 4,
      "note": 43,
      "start": 40.6601,
      "duration": 0.0999,
      "velocity": 105,
      "chip": "ym2612"
    },
    {
      "channel": 2,
      "note": 60,
      "start": 40.7599,
      "duration": 0.0814,
      "velocity": 113,
      "chip": "ym2612"
    },
    {
      "channel": 1,
      "note": 59,
      "start": 40.8401,
      "duration": 0.0286,
      "velocity": 113,
      "chip": "ym2612"
    },
    {
      "channel": 3,
      "note": 79,
      "start": 40.8402,
      "duration": 0.0286,
      "velocity": 95,
      "chip": "ym2612"
    },
    {
      "channel": 4,
      "note": 43,
      "start": 40.8402,
      "duration": 0.0019,
      "velocity": 105,
      "chip": "ym2612"
    },
    {
      "channel": 2,
      "note": 55,
      "start": 40.8414,
      "duration": 0.0286,
      "velocity": 113,
      "chip": "ym2612"
    },
    {
      "channel": 0,
      "note": 45,
      "start": 40.8687,
      "duration": 0.6391,
      "velocity": 120,
      "chip": "ym2612"
    },
    {
      "channel": 1,
      "note": 50,
      "start": 40.8688,
      "duration": 0.057,
      "velocity": 113,
      "chip": "ym2612"
    },
    {
      "channel": 3,
      "note": 83,
      "start": 40.8688,
      "duration": 0.1144,
      "velocity": 95,
      "chip": "ym2612"
    },
    {
      "channel": 4,
      "note": 45,
      "start": 40.869,
      "duration": 0.0011,
      "velocity": 105,
      "chip": "ym2612"
    },
    {
      "channel": 2,
      "note": 59,
      "start": 40.87,
      "duration": 0.0571,
      "velocity": 113,
      "chip": "ym2612"
    },
    {
      "channel": 1,
      "note": 52,
      "start": 40.9258,
      "duration": 0.0573,
      "velocity": 113,
      "chip": "ym2612"
    },
    {
      "channel": 4,
      "note": 45,
      "start": 40.9259,
      "duration": 0.0971,
      "velocity": 105,
      "chip": "ym2612"
    },
    {
      "channel": 2,
      "note": 50,
      "start": 40.9271,
      "duration": 0.1558,
      "velocity": 113,
      "chip": "ym2612"
    },
    {
      "channel": 1,
      "note": 57,
      "start": 40.9832,
      "duration": 0.2001,
      "velocity": 113,
      "chip": "ym2612"
    },
    {
      "channel": 3,
      "note": 79,
      "start": 40.9833,
      "duration": 0.2,
      "velocity": 95,
      "chip": "ym2612"
    },
    {
      "channel": 2,
      "note": 52,
      "start": 41.0829,
      "duration": 0.1017,
      "velocity": 113,
      "chip": "ym2612"
    },
    {
      "channel": 1,
      "note": 60,
      "start": 41.1832,
      "duration": 0.0082,
      "velocity": 113,
      "chip": "ym2612"
    },
    {
      "channel": 3,
      "note": 81,
      "start": 41.1834,
      "duration": 0.8519,
      "velocity": 95,
      "chip": "ym2612"
    },
    {
      "channel": 4,
      "note": 45,
      "start": 41.1834,
      "duration": 0.068,
      "velocity": 105,
      "chip": "ym2612"
    },
    {
      "channel": 2,
      "note": 57,
      "start": 41.1847,
      "duration": 0.1067,
      "velocity": 113,
      "chip": "ym2612"
    },
    {
      "channel": 1,
      "note": 57,
      "start": 41.1915,
      "duration": 0.2,
      "velocity": 113,
      "chip": "ym2612"
    },
    {
      "channel": 2,
      "note": 60,
      "start": 41.2914,
      "duration": 0.1013,
      "velocity": 113,
      "chip": "ym2612"
    },
    {
      "channel": 1,
      "note": 62,
      "start": 41.3916,
      "duration": 0.0573,
      "velocity": 113,
      "chip": "ym2612"
    },
    {
      "channel": 4,
      "note": 45,
      "start": 41.3917,
      "duration": 0.0011,
      "velocity": 105,
      "chip": "ym2612"
    },
    {
      "channel": 2,
      "note": 57,
      "start": 41.3927,
      "duration": 0.0576,
      "velocity": 113,
      "chip": "ym2612"
    },
    {
      "channel": 1,
      "note": 57,
      "start": 41.4489,
      "duration": 0.0573,
      "velocity": 113,
      "chip": "ym2612"
    },
    {
      "channel": 4,
      "note": 45,
      "start": 41.4491,
      "duration": 0.0011,
      "velocity": 105,
      "chip": "ym2612"
    },
    {
      "channel": 2,
      "note": 62,
      "start": 41.4504,
      "duration": 0.0573,
      "velocity": 113,
      "chip": "ym2612"
    },
    {
      "channel": 1,
      "note": 60,
      "start": 41.5063,
      "duration": 0.0285,
      "velocity": 113,
      "chip": "ym2612"
    },
    {
      "channel": 4,
      "note": 45,
      "start": 41.5065,
      "duration": 0.0015,
      "velocity": 105,
      "chip": "ym2612"
    },
    {
      "channel": 2,
      "note": 57,
      "start": 41.5077,
      "duration": 0.0285,
      "velocity": 113,
      "chip": "ym2612"
    },
    {
      "channel": 0,
      "note": 45,
      "start": 41.5348,
      "duration": 0.3232,
      "velocity": 120,
      "chip": "ym2612"
    },
    {
      "channel": 1,
      "note": 57,
      "start": 41.5349,
      "duration": 0.0571,
      "velocity": 113,
      "chip": "ym2612"
    },
    {
      "channel": 4,
      "note": 45,
      "start": 41.5351,
      "duration": 0.157,
      "velocity": 105,
      "chip": "ym2612"
    },
    {
      "channel": 2,
      "note": 60,
      "start": 41.5363,
      "duration": 0.1556,
      "velocity": 113,
      "chip": "ym2612"
    },
    {
      "channel": 1,
      "note": 59,
      "start": 41.592,
      "duration": 0.2,
      "velocity": 113,
      "chip": "ym2612"
    },
    {
      "channel": 2,
      "note": 57,
      "start": 41.692,
      "duration": 0.1013,
      "velocity": 113,
      "chip": "ym2612"
    },
    {
      "channel": 1,
      "note": 52,
      "start": 41.7921,
      "duration": 0.0573,
      "velocity": 113,
      "chip": "ym2612"
    },
    {
      "channel": 4,
      "note": 45,
      "start": 41.7923,
      "duration": 0.001,
      "velocity": 105,
      "chip": "ym2612"
    },
    {
      "channel": 2,
      "note": 59,
      "start": 41.7933,
      "duration": 0.0575,
      "velocity": 113,
      "chip": "ym2612"
    },
    {
      "channel": 1,
      "note": 60,
      "start": 41.8495,
      "duration": 0.0086,
      "velocity": 113,
      "chip": "ym2612"
    },
    {
      "channel": 4,
      "note": 45,
      "start": 41.8497,
      "duration": 0.0086,
      "velocity": 105,
      "chip": "ym2612"
    },
    {
      "channel": 2,
      "note": 52,
      "start": 41.8509,
      "duration": 0.0086,
      "velocity": 113,
      "chip": "ym2612"
    },
    {
      "channel": 0,
      "note": 43,
      "start": 41.8581,
      "duration": 0.3431,
      "velocity": 120,
      "chip": "ym2612"
    },
    {
      "channel": 1,
      "note": 52,
      "start": 41.8582,
      "duration": 0.0768,
      "velocity": 113,
      "chip": "ym2612"
    },
    {
      "channel": 4,
      "note": 43,
      "start": 41.8583,
      "duration": 0.2167,
      "velocity": 105,
      "chip": "ym2612"
    },
    {
      "channel": 2,
      "note": 60,
      "start": 41.8595,
      "duration": 0.1756,
      "velocity": 113,
      "chip": "ym2612"
    },
    {
      "channel": 1,
      "note": 59,
      "start": 41.9351,
      "duration": 0.18,
      "velocity": 113,
      "chip": "ym2612"
    },
    {
      "channel": 2,
      "note": 52,
      "start": 42.0352,
      "duration": 0.0814,
      "velocity": 113,
      "chip": "ym2612"
    },
    {
      "channel": 3,
      "note": 81,
      "start": 42.0353,
      "duration": 0.2231,
      "velocity": 95,
      "chip": "ym2612"
    },
    {
      "channel": 1,
      "note": 52,
      "start": 42.1152,
      "duration": 0.0772,
      "velocity": 113,
      "chip": "ym2612"
    },
    {
      "channel": 4,
      "note": 43,
      "start": 42.1154,
      "duration": 0.0013,
      "velocity": 105,
      "chip": "ym2612"
    },
    {
      "channel": 2,
      "note": 59,
      "start": 42.1166,
      "duration": 0.0771,
      "velocity": 113,
      "chip": "ym2612"
    },
    {
      "channel": 1,
      "note": 57,
      "start": 42.1925,
      "duration": 0.0087,
      "velocity": 113,
      "chip": "ym2612"
    },
    {
      "channel": 4,
      "note": 43,
      "start": 42.1927,
      "duration": 0.0014,
      "velocity": 105,
      "chip": "ym2612"
    },
    {
      "channel": 2,
      "note": 52,
      "start": 42.1937,
      "duration": 0.0088,
      "velocity": 113,
      "chip": "ym2612"
    },
    {
      "channel": 0,
      "note": 41,
      "start": 42.2012,
      "duration": 0.9252,
      "velocity": 120,
      "chip": "ym2612"
    },
    {
      "channel": 1,
      "note": 52,
      "start": 42.2013,
      "duration": 0.0569,
      "velocity": 113,
      "chip": "ym2612"
    },
    {
      "channel": 4,
      "note": 41,
      "start": 42.2014,
      "duration": 0.0579,
      "velocity": 105,
      "chip": "ym2612"
    },
    {
      "channel": 2,
      "note": 57,
      "start": 42.2026,
      "duration": 0.0569,
      "velocity": 113,
      "chip": "ym2612"
    },
    {
      "channel": 1,
      "note": 48,
      "start": 42.2583,
      "duration": 0.0771,
      "velocity": 113,
      "chip": "ym2612"
    },
    {
      "channel": 2,
      "note": 52,
      "start": 42.2595,
      "duration": 0.1559,
      "velocity": 113,
      "chip": "ym2612"
    },
    {
      "channel": 1,
      "note": 53,
      "start": 42.3354,
      "duration": 0.1801,
      "velocity": 113,
      "chip": "ym2612"
    },
    {
      "channel": 2,
      "note": 48,
      "start": 42.4154,
      "duration": 0.1014,
      "velocity": 113,
      "chip": "ym2612"
    },
    {
      "channel": 1,
      "note": 57,
      "start": 42.5156,
      "duration": 0.0285,
      "velocity": 113,
      "chip": "ym2612"
    },
    {
      "channel": 4,
      "note": 41,
      "start": 42.5158,
      "duration": 0.0884,
      "velocity": 105,
      "chip": "ym2612"
    },
    {
      "channel": 2,
      "note": 53,
      "start": 42.5169,
      "duration": 0.1072,
      "velocity": 113,
      "chip": "ym2612"
    },
    {
      "channel": 1,
      "note": 53,
      "start": 42.5442,
      "duration": 0.1802,
      "velocity": 113,
      "chip": "ym2612"
    },
    {
      "channel": 2,
      "note": 57,
      "start": 42.6242,
      "duration": 0.1017,
      "velocity": 113,
      "chip": "ym2612"
    },
    {
      "channel": 1,
      "note": 59,
      "start": 42.7245,
      "duration": 0.0571,
      "velocity": 113,
      "chip": "ym2612"
    },
    {
      "channel": 3,
      "note": 84,
      "start": 42.7246,
      "duration": 0.1432,
      "velocity": 95,
      "chip": "ym2612"
    },
    {
      "channel": 4,
      "note": 41,
      "start": 42.7247,
      "duration": 0.0013,
      "velocity": 105,
      "chip": "ym2612"
    },
    {
      "channel": 2,
      "note": 53,
      "start": 42.7259,
      "duration": 0.0571,
      "velocity": 113,
      "chip": "ym2612"
    },
    {
      "channel": 1,
      "note": 53,
      "start": 42.7817,
      "duration": 0.0772,
      "velocity": 113,
      "chip": "ym2612"
    },
    {
      "channel": 4,
      "note": 41,
      "start": 42.7819,
      "duration": 0.0013,
      "velocity": 105,
      "chip": "ym2612"
    },
    {
      "channel": 2,
      "note": 59,
      "start": 42.7831,
      "duration": 0.0771,
      "velocity": 113,
      "chip": "ym2612"
    },
    {
      "channel": 1,
      "note": 57,
      "start": 42.859,
      "duration": 0.0087,
      "velocity": 113,
      "chip": "ym2612"
    },
    {
      "channel": 4,
      "note": 41,
      "start": 42.8592,
      "duration": 0.0011,
      "velocity": 105,
      "chip": "ym2612"
    },
    {
      "channel": 2,
      "note": 53,
      "start": 42.8602,
      "duration": 0.0089,
      "velocity": 113,
      "chip": "ym2612"
    },
    {
      "channel": 1,
      "note": 48,
      "start": 42.8678,
      "duration": 0.077,
      "velocity": 113,
      "chip": "ym2612"
    },
    {
      "channel": 3,
      "note": 83,
      "start": 42.8679,
      "duration": 0.2572,
      "velocity": 95,
      "chip": "ym2612"
    },
    {
      "channel": 4,
      "note": 41,
      "start": 42.8679,
      "duration": 0.157,
      "velocity": 105,
      "chip": "ym2612"
    },
    {
      "channel": 2,
      "note": 57,
      "start": 42.8692,
      "duration": 0.1556,
      "velocity": 113,
      "chip": "ym2612"
    },
    {
      "channel": 1,
      "note": 47,
      "start": 42.9448,
      "duration": 0.1802,
      "velocity": 113,
      "chip": "ym2612"
    },
    {
      "channel": 2,
      "note": 48,
      "start": 43.0248,
      "duration": 0.1016,
      "velocity": 113,
      "chip": "ym2612"
    },
    {
      "channel": 1,
      "note": 52,
      "start": 43.125,
      "duration": 0.0574,
      "velocity": 113,
      "chip": "ym2612"
    },
    {
      "channel": 3,
      "note": 81,
      "start": 43.1251,
      "duration": 0.0368,
      "velocity": 95,
      "chip": "ym2612"
    },
    {
      "channel": 4,
      "note": 41,
      "start": 43.1252,
      "duration": 0.0011,
      "velocity": 105,
      "chip": "ym2612"
    },
    {
      "channel": 0,
      "note": 41,
      "start": 43.1263,
      "duration": 0.0843,
      "velocity": 120,
      "chip": "ym2612"
    },
    {
      "channel": 2,
      "note": 47,
      "start": 43.1264,
      "duration": 0.0573,
      "velocity": 113,
      "chip": "ym2612"
    },
    {
      "channel": 1,
      "note": 55,
      "start": 43.1824,
      "duration": 0.0283,
      "velocity": 113,
      "chip": "ym2612"
    },
    {
      "channel": 3,
      "note": 79,
      "start": 43.1825,
      "duration": 0.3431,
      "velocity": 95,
      "chip": "ym2612"
    },
    {
      "channel": 4,
      "note": 41,
      "start": 43.1826,
      "duration": 0.0018,
      "velocity": 105,
      "chip": "ym2612"
    },
    {
      "channel": 2,
      "note": 52,
      "start": 43.1838,
      "duration": 0.0281,
      "velocity": 113,
      "chip": "ym2612"
    },
    {
      "channel": 0,
      "note": 40,
      "start": 43.2107,
      "duration": 0.3236,
      "velocity": 120,
      "chip": "ym2612"
    },
    {
      "channel": 1,
      "note": 52,
      "start": 43.2108,
      "duration": 0.0571,
      "velocity": 113,
      "chip": "ym2612"
    },
    {
      "channel": 4,
      "note": 40,
      "start": 43.211,
      "duration": 0.137,
      "velocity": 105,
      "chip": "ym2612"
    },
    {
      "channel": 2,
      "note": 55,
      "start": 43.212,
      "duration": 0.1559,
      "velocity": 113,
      "chip": "ym2612"
    },
    {
      "channel": 1,
      "note": 59,
      "start": 43.2679,
      "duration": 0.2,
      "velocity": 113,
      "chip": "ym2612"
    },
    {
      "channel": 2,
      "note": 52,
      "start": 43.3679,
      "duration": 0.1014,
      "velocity": 113,
      "chip": "ym2612"
    },
    {
      "channel": 1,
      "note": 52,
      "start": 43.468,
      "duration": 0.0575,
      "velocity": 113,
      "chip": "ym2612"
    },
    {
      "channel": 4,
      "note": 40,
      "start": 43.4683,
      "duration": 0.0009,
      "velocity": 105,
      "chip": "ym2612"
    },
    {
      "channel": 2,
      "note": 59,
      "start": 43.4693,
      "duration": 0.0577,
      "velocity": 113,
      "chip": "ym2612"
    },
    {
      "channel": 1,
      "note": 55,
      "start": 43.5256,
      "duration": 0.0087,
      "velocity": 113,
      "chip": "ym2612"
    },
    {
      "channel": 3,
      "note": 76,
      "start": 43.5257,
      "duration": 0.0088,
      "velocity": 95,
      "chip": "ym2612"
    },
    {
      "channel": 4,
      "note": 40,
      "start": 43.5258,
      "duration": 0.0016,
      "velocity": 105,
      "chip": "ym2612"
    },
    {
      "channel": 2,
      "note": 52,
      "start": 43.5271,
      "duration": 0.0087,
      "velocity": 113,
      "chip": "ym2612"
    },
    {
      "channel": 0,
      "note": 38,
      "start": 43.5344,
      "duration": 0.6592,
      "velocity": 120,
      "chip": "ym2612"
    },
    {
      "channel": 1,
      "note": 47,
      "start": 43.5344,
      "duration": 0.077,
      "velocity": 113,
      "chip": "ym2612"
    },
    {
      "channel": 3,
      "note": 78,
      "start": 43.5345,
      "duration": 0.114,
      "velocity": 95,
      "chip": "ym2612"
    },
    {
      "channel": 4,
      "note": 38,
      "start": 43.5346,
      "duration": 0.001,
      "velocity": 105,
      "chip": "ym2612"
    },
    {
      "channel": 2,
      "note": 55,
      "start": 43.5359,
      "duration": 0.0768,
      "velocity": 113,
      "chip": "ym2612"
    },
    {
      "channel": 1,
      "note": 45,
      "start": 43.6115,
      "duration": 0.0572,
      "velocity": 113,
      "chip": "ym2612"
    },
    {
      "channel": 4,
      "note": 38,
      "start": 43.6116,
      "duration": 0.097,
      "velocity": 105,
      "chip": "ym2612"
    },
    {
      "channel": 2,
      "note": 47,
      "start": 43.6127,
      "duration": 0.1559,
      "velocity": 113,
      "chip": "ym2612"
    },
    {
      "channel": 1,
      "note": 50,
      "start": 43.6688,
      "duration": 0.1799,
      "velocity": 113,
      "chip": "ym2612"
    },
    {
      "channel": 3,
      "note": 81,
      "start": 43.6689,
      "duration": 0.877,
      "velocity": 95,
      "chip": "ym2612"
    },
    {
      "channel": 2,
      "note": 45,
      "start": 43.7685,
      "duration": 0.0814,
      "velocity": 113,
      "chip": "ym2612"
    },
    {
      "channel": 1,
      "note": 54,
      "start": 43.8487,
      "duration": 0.0283,
      "velocity": 113,
      "chip": "ym2612"
    },
    {
      "channel": 4,
      "note": 38,
      "start": 43.8489,
      "duration": 0.0482,
      "velocity": 105,
      "chip": "ym2612"
    },
    {
      "channel": 2,
      "note": 50,
      "start": 43.85,
      "duration": 0.1269,
      "velocity": 113,
      "chip": "ym2612"
    },
    {
      "channel": 1,
      "note": 50,
      "start": 43.8771,
      "duration": 0.18,
      "velocity": 113,
      "chip": "ym2612"
    },
    {
      "channel": 2,
      "note": 54,
      "start": 43.977,
      "duration": 0.0815,
      "velocity": 113,
      "chip": "ym2612"
    },
    {
      "channel": 1,
      "note": 59,
      "start": 44.0572,
      "duration": 0.0772,
      "velocity": 113,
      "chip": "ym2612"
    },
    {
      "channel": 4,
      "note": 38,
      "start": 44.0574,
      "duration": 0.0013,
      "velocity": 105,
      "chip": "ym2612"
    },
    {
      "channel": 2,
      "note": 50,
      "start": 44.0586,
      "duration": 0.0771,
      "velocity": 113,
      "chip": "ym2612"
    },
    {
      "channel": 1,
      "note": 50,
      "start": 44.1345,
      "duration": 0.0573,
      "velocity": 113,
      "chip": "ym2612"
    },
    {
      "channel": 4,
      "note": 38,
      "start": 44.1347,
      "duration": 0.0011,
      "velocity": 105,
      "chip": "ym2612"
    },
    {
      "channel": 2,
      "note": 59,
      "start": 44.1357,
      "duration": 0.0575,
      "velocity": 113,
      "chip": "ym2612"
    },
    {
      "channel": 1,
      "note": 57,
      "start": 44.1919,
      "duration": 0.0086,
      "velocity": 113,
      "chip": "ym2612"
    },
    {
      "channel": 4,
      "note": 38,
      "start": 44.1921,
      "duration": 0.0012,
      "velocity": 105,
      "chip": "ym2612"
    },
    {
      "channel": 2,
      "note": 50,
      "start": 44.1932,
      "duration": 0.0085,
      "velocity": 113,
      "chip": "ym2612"
    },
    {
      "channel": 0,
      "note": 38,
      "start": 44.2005,
      "duration": 0.6003,
      "velocity": 120,
      "chip": "ym2612"
    },
    {
      "channel": 1,
      "note": 50,
      "start": 44.2006,
      "duration": 0.0769,
      "velocity": 113,
      "chip": "ym2612"
    },
    {
      "channel": 4,
      "note": 38,
      "start": 44.2007,
      "duration": 0.0968,
      "velocity": 105,
      "chip": "ym2612"
    },
    {
      "channel": 2,
      "note": 57,
      "start": 44.2018,
      "duration": 0.1756,
      "velocity": 113,
      "chip": "ym2612"
    },
    {
      "channel": 1,
      "note": 45,
      "start": 44.2775,
      "duration": 0.18,
      "velocity": 113,
      "chip": "ym2612"
    },
    {
      "channel": 2,
      "note": 50,
      "start": 44.3775,
      "duration": 0.0815,
      "velocity": 113,
      "chip": "ym2612"
    },
    {
      "channel": 1,
      "note": 50,
      "start": 44.4576,
      "duration": 0.0773,
      "velocity": 113,
      "chip": "ym2612"
    },
    {
      "channel": 4,
      "note": 38,
      "start": 44.4578,
      "duration": 0.0011,
      "velocity": 105,
      "chip": "ym2612"
    },
    {
      "channel": 2,
      "note": 45,
      "start": 44.4591,
      "duration": 0.0771,
      "velocity": 113,
      "chip": "ym2612"
    },
    {
      "channel": 1,
      "note": 57,
      "start": 44.535,
      "duration": 0.0086,
      "velocity": 113,
      "chip": "ym2612"
    },
    {
      "channel": 4,
      "note": 38,
      "start": 44.5352,
      "duration": 0.0019,
      "velocity": 105,
      "chip": "ym2612"
    },
    {
      "channel": 2,
      "note": 50,
      "start": 44.5362,
      "duration": 0.0088,
      "velocity": 113,
      "chip": "ym2612"
    },
    {
      "channel": 1,
      "note": 54,
      "start": 44.5436,
      "duration": 0.0572,
      "velocity": 113,
      "chip": "ym2612"
    },
    {
      "channel": 4,
      "note": 40,
      "start": 44.5438,
      "duration": 0.002,
      "velocity": 105,
      "chip": "ym2612"
    },
    {
      "channel": 2,
      "note": 57,
      "start": 44.545,
      "duration": 0.1558,
      "velocity": 113,
      "chip": "ym2612"
    },
    {
      "channel": 3,
      "note": 81,
      "start": 44.5458,
      "duration": 0.3139,
      "velocity": 95,
      "chip": "ym2612"
    },
    {
      "channel": 1,
      "note": 59,
      "start": 44.6008,
      "duration": 0.2001,
      "velocity": 113,
      "chip": "ym2612"
    },
    {
      "channel": 4,
      "note": 40,
      "start": 44.601,
      "duration": 0.2005,
      "velocity": 105,
      "chip": "ym2612"
    },
    {
      "channel": 2,
      "note": 54,
      "start": 44.7008,
      "duration": 0.1014,
      "velocity": 113,
      "chip": "ym2612"
    },
    {
      "channel": 0,
      "note": 40,
      "start": 44.8008,
      "duration": 0.086,
      "velocity": 120,
      "chip": "ym2612"
    },
    {
      "channel": 1,
      "note": 50,
      "start": 44.8009,
      "duration": 0.0573,
      "velocity": 113,
      "chip": "ym2612"
    },
    {
      "channel": 2,
      "note": 59,
      "start": 44.8023,
      "duration": 0.0574,
      "velocity": 113,
      "chip": "ym2612"
    },
    {
      "channel": 1,
      "note": 57,
      "start": 44.8583,
      "duration": 0.0285,
      "velocity": 113,
      "chip": "ym2612"
    },
    {
      "channel": 4,
      "note": 40,
      "start": 44.8585,
      "duration": 0.0015,
      "velocity": 105,
      "chip": "ym2612"
    },
    {
      "channel": 2,
      "note": 50,
      "start": 44.8597,
      "duration": 0.0283,
      "velocity": 113,
      "chip": "ym2612"
    },
    {
      "channel": 0,
      "note": 41,
      "start": 44.8868,
      "duration": 0.9255,
      "velocity": 120,
      "chip": "ym2612"
    },
    {
      "channel": 1,
      "note": 54,
      "start": 44.8869,
      "duration": 0.0573,
      "velocity": 113,
      "chip": "ym2612"
    },
    {
      "channel": 4,
      "note": 40,
      "start": 44.887,
      "duration": 0.0012,
      "velocity": 105,
      "chip": "ym2612"
    },
    {
      "channel": 2,
      "note": 57,
      "start": 44.888,
      "duration": 0.0574,
      "velocity": 113,
      "chip": "ym2612"
    },
    {
      "channel": 1,
      "note": 48,
      "start": 44.9442,
      "duration": 0.0572,
      "velocity": 113,
      "chip": "ym2612"
    },
    {
      "channel": 4,
      "note": 41,
      "start": 44.9443,
      "duration": 0.1372,
      "velocity": 105,
      "chip": "ym2612"
    },
    {
      "channel": 2,
      "note": 55,
      "start": 44.9455,
      "duration": 0.1559,
      "velocity": 113,
      "chip": "ym2612"
    },
    {
      "channel": 1,
      "note": 53,
      "start": 45.0015,
      "duration": 0.2001,
      "velocity": 113,
      "chip": "ym2612"
    },
    {
      "channel": 2,
      "note": 48,
      "start": 45.1014,
      "duration": 0.1012,
      "velocity": 113,
      "chip": "ym2612"
    },
    {
      "channel": 1,
      "note": 57,
      "start": 45.2016,
      "duration": 0.0084,
      "velocity": 113,
      "chip": "ym2612"
    },
    {
      "channel": 4,
      "note": 41,
      "start": 45.2017,
      "duration": 0.0883,
      "velocity": 105,
      "chip": "ym2612"
    },
    {
      "channel": 2,
      "note": 53,
      "start": 45.2027,
      "duration": 0.1073,
      "velocity": 113,
      "chip": "ym2612"
    },
    {
      "channel": 1,
      "note": 53,
      "start": 45.2101,
      "duration": 0.2002,
      "velocity": 113,
      "chip": "ym2612"
    },
    {
      "channel": 2,
      "note": 57,
      "start": 45.3101,
      "duration": 0.1015,
      "velocity": 113,
      "chip": "ym2612"
    },
    {
      "channel": 1,
      "note": 59,
      "start": 45.4104,
      "duration": 0.0572,
      "velocity": 113,
      "chip": "ym2612"
    },
    {
      "channel": 3,
      "note": 84,
      "start": 45.4105,
      "duration": 0.1164,
      "velocity": 95,
      "chip": "ym2612"
    },
    {
      "channel": 4,
      "note": 41,
      "start": 45.4106,
      "duration": 0.0014,
      "velocity": 105,
      "chip": "ym2612"
    },
    {
      "channel": 2,
      "note": 53,
      "start": 45.4116,
      "duration": 0.0574,
      "velocity": 113,
      "chip": "ym2612"
    },
    {
      "channel": 1,
      "note": 53,
      "start": 45.4677,
      "duration": 0.0571,
      "velocity": 113,
      "chip": "ym2612"
    },
    {
      "channel": 4,
      "note": 41,
      "start": 45.4678,
      "duration": 0.0013,
      "velocity": 105,
      "chip": "ym2612"
    },
    {
      "channel": 2,
      "note": 59,
      "start": 45.469,
      "duration": 0.0572,
      "velocity": 113,
      "chip": "ym2612"
    },
    {
      "channel": 1,
      "note": 57,
      "start": 45.5249,
      "duration": 0.0286,
      "velocity": 113,
      "chip": "ym2612"
    },
    {
      "channel": 4,
      "note": 41,
      "start": 45.5251,
      "duration": 0.0015,
      "velocity": 105,
      "chip": "ym2612"
    },
    {
      "channel": 2,
      "note": 53,
      "start": 45.5263,
      "duration": 0.0285,
      "velocity": 113,
      "chip": "ym2612"
    },
    {
      "channel": 1,
      "note": 48,
      "start": 45.5536,
      "duration": 0.057,
      "velocity": 113,
      "chip": "ym2612"
    },
    {
      "channel": 3,
      "note": 83,
      "start": 45.5537,
      "duration": 0.2572,
      "velocity": 95,
      "chip": "ym2612"
    },
    {
      "channel": 4,
      "note": 41,
      "start": 45.5537,
      "duration": 0.1369,
      "velocity": 105,
      "chip": "ym2612"
    },
    {
      "channel": 2,
      "note": 57,
      "start": 45.5548,
      "duration": 0.1558,
      "velocity": 113,
      "chip": "ym2612"
    },
    {
      "channel": 1,
      "note": 47,
      "start": 45.6106,
      "duration": 0.2002,
      "velocity": 113,
      "chip": "ym2612"
    },
    {
      "channel": 2,
      "note": 48,
      "start": 45.7106,
      "duration": 0.1014,
      "velocity": 113,
      "chip": "ym2612"
    },
    {
      "channel": 1,
      "note": 52,
      "start": 45.8109,
      "duration": 0.0574,
      "velocity": 113,
      "chip": "ym2612"
    },
    {
      "channel": 3,
      "note": 81,
      "start": 45.8109,
      "duration": 0.0574,
      "velocity": 95,
      "chip": "ym2612"
    },
    {
      "channel": 4,
      "note": 41,
      "start": 45.811,
      "duration": 0.0009,
      "velocity": 105,
      "chip": "ym2612"
    },
    {
      "channel": 2,
      "note": 47,
      "start": 45.8121,
      "duration": 0.0575,
      "velocity": 113,
      "chip": "ym2612"
    },
    {
      "channel": 0,
      "note": 41,
      "start": 45.8123,
      "duration": 0.0642,
      "velocity": 120,
      "chip": "ym2612"
    },
    {
      "channel": 1,
      "note": 59,
      "start": 45.8683,
      "duration": 0.0083,
      "velocity": 113,
      "chip": "ym2612"
    },
    {
      "channel": 3,
      "note": 79,
      "start": 45.8684,
      "duration": 0.245,
      "velocity": 95,
      "chip": "ym2612"
    },
    {
      "channel": 4,
      "note": 41,
      "start": 45.8685,
      "duration": 0.0019,
      "velocity": 105,
      "chip": "ym2612"
    },
    {
      "channel": 2,
      "note": 52,
      "start": 45.8696,
      "duration": 0.0083,
      "velocity": 113,
      "chip": "ym2612"
    },
    {
      "channel": 0,
      "note": 40,
      "start": 45.8766,
      "duration": 0.3432,
      "velocity": 120,
      "chip": "ym2612"
    },
    {
      "channel": 1,
      "note": 55,
      "start": 45.8766,
      "duration": 0.0769,
      "velocity": 113,
      "chip": "ym2612"
    },
    {
      "channel": 4,
      "note": 40,
      "start": 45.8768,
      "duration": 0.0968,
      "velocity": 105,
      "chip": "ym2612"
    },
    {
      "channel": 2,
      "note": 59,
      "start": 45.8779,
      "duration": 0.1556,
      "velocity": 113,
      "chip": "ym2612"
    },
    {
      "channel": 1,
      "note": 60,
      "start": 45.9536,
      "duration": 0.1801,
      "velocity": 113,
      "chip": "ym2612"
    },
    {
      "channel": 2,
      "note": 55,
      "start": 46.0336,
      "duration": 0.1015,
      "velocity": 113,
      "chip": "ym2612"
    },
    {
      "channel": 1,
      "note": 55,
      "start": 46.1338,
      "duration": 0.0772,
      "velocity": 113,
      "chip": "ym2612"
    },
    {
      "channel": 3,
      "note": 76,
      "start": 46.1339,
      "duration": 0.0772,
      "velocity": 95,
      "chip": "ym2612"
    },
    {
      "channel": 4,
      "note": 40,
      "start": 46.134,
      "duration": 0.002,
      "velocity": 105,
      "chip": "ym2612"
    },
    {
      "channel": 2,
      "note": 60,
      "start": 46.1352,
      "duration": 0.0771,
      "velocity": 113,
      "chip": "ym2612"
    },
    {
      "channel": 1,
      "note": 59,
      "start": 46.2111,
      "duration": 0.0087,
      "velocity": 113,
      "chip": "ym2612"
    },
    {
      "channel": 3,
      "note": 79,
      "start": 46.2112,
      "duration": 0.0018,
      "velocity": 95,
      "chip": "ym2612"
    },
    {
      "channel": 4,
      "note": 40,
      "start": 46.2113,
      "duration": 0.0017,
      "velocity": 105,
      "chip": "ym2612"
    },
    {
      "channel": 2,
      "note": 55,
      "start": 46.2123,
      "duration": 0.0089,
      "velocity": 113,
      "chip": "ym2612"
    },
    {
      "channel": 0,
      "note": 38,
      "start": 46.2198,
      "duration": 0.6661,
      "velocity": 120,
      "chip": "ym2612"
    },
    {
      "channel": 1,
      "note": 52,
      "start": 46.2198,
      "duration": 0.057,
      "velocity": 113,
      "chip": "ym2612"
    },
    {
      "channel": 3,
      "note": 81,
      "start": 46.22,
      "duration": 0.6661,
      "velocity": 95,
      "chip": "ym2612"
    },
    {
      "channel": 4,
      "note": 38,
      "start": 46.22,
      "duration": 0.0589,
      "velocity": 105,
      "chip": "ym2612"
    },
    {
      "channel": 2,
      "note": 59,
      "start": 46.2212,
      "duration": 0.0568,
      "velocity": 113,
      "chip": "ym2612"
    },
    {
      "channel": 1,
      "note": 50,
      "start": 46.2768,
      "duration": 0.0771,
      "velocity": 113,
      "chip": "ym2612"
    },
    {
      "channel": 2,
      "note": 52,
      "start": 46.2781,
      "duration": 0.1559,
      "velocity": 113,
      "chip": "ym2612"
    },
    {
      "channel": 1,
      "note": 57,
      "start": 46.354,
      "duration": 0.1801,
      "velocity": 113,
      "chip": "ym2612"
    },
    {
      "channel": 2,
      "note": 50,
      "start": 46.434,
      "duration": 0.1015,
      "velocity": 113,
      "chip": "ym2612"
    },
    {
      "channel": 1,
      "note": 62,
      "start": 46.5342,
      "duration": 0.0283,
      "velocity": 113,
      "chip": "ym2612"
    },
    {
      "channel": 4,
      "note": 38,
      "start": 46.5343,
      "duration": 0.0482,
      "velocity": 105,
      "chip": "ym2612"
    },
    {
      "channel": 2,
      "note": 57,
      "start": 46.5355,
      "duration": 0.107,
      "velocity": 113,
      "chip": "ym2612"
    },
    {
      "channel": 1,
      "note": 57,
      "start": 46.5625,
      "duration": 0.18,
      "velocity": 113,
      "chip": "ym2612"
    },
    {
      "channel": 2,
      "note": 62,
      "start": 46.6425,
      "duration": 0.1014,
      "velocity": 113,
      "chip": "ym2612"
    },
    {
      "channel": 1,
      "note": 62,
      "start": 46.7427,
      "duration": 0.0572,
      "velocity": 113,
      "chip": "ym2612"
    },
    {
      "channel": 4,
      "note": 38,
      "start": 46.7428,
      "duration": 0.0012,
      "velocity": 105,
      "chip": "ym2612"
    },
    {
      "channel": 2,
      "note": 57,
      "start": 46.7439,
      "duration": 0.0573,
      "velocity": 113,
      "chip": "ym2612"
    },
    {
      "channel": 1,
      "note": 57,
      "start": 46.7999,
      "duration": 0.0774,
      "velocity": 113,
      "chip": "ym2612"
    },
    {
      "channel": 4,
      "note": 38,
      "start": 46.8,
      "duration": 0.0011,
      "velocity": 105,
      "chip": "ym2612"
    },
    {
      "channel": 2,
      "note": 62,
      "start": 46.8013,
      "duration": 0.0772,
      "velocity": 113,
      "chip": "ym2612"
    },
    {
      "channel": 1,
      "note": 50,
      "start": 46.8773,
      "duration": 0.0086,
      "velocity": 113,
      "chip": "ym2612"
    },
    {
      "channel": 4,
      "note": 38,
      "start": 46.8775,
      "duration": 0.0013,
      "velocity": 105,
      "chip": "ym2612"
    },
    {
      "channel": 2,
      "note": 57,
      "start": 46.8786,
      "duration": 0.0088,
      "velocity": 113,
      "chip": "ym2612"
    },
    {
      "channel": 0,
      "note": 40,
      "start": 46.886,
      "duration": 0.5729,
      "velocity": 120,
      "chip": "ym2612"
    },
    {
      "channel": 1,
      "note": 50,
      "start": 46.8861,
      "duration": 0.0568,
      "velocity": 113,
      "chip": "ym2612"
    },
    {
      "channel": 3,
      "note": 83,
      "start": 46.8862,
      "duration": 0.4943,
      "velocity": 95,
      "chip": "ym2612"
    },
    {
      "channel": 4,
      "note": 40,
      "start": 46.8862,
      "duration": 0.2167,
      "velocity": 105,
      "chip": "ym2612"
    },
    {
      "channel": 2,
      "note": 50,
      "start": 46.8874,
      "duration": 0.1555,
      "velocity": 113,
      "chip": "ym2612"
    },
    {
      "channel": 1,
      "note": 52,
      "start": 46.9429,
      "duration": 0.1999,
      "velocity": 113,
      "chip": "ym2612"
    },
    {
      "channel": 2,
      "note": 50,
      "start": 47.0429,
      "duration": 0.1013,
      "velocity": 113,
      "chip": "ym2612"
    },
    {
      "channel": 1,
      "note": 59,
      "start": 47.1429,
      "duration": 0.0575,
      "velocity": 113,
      "chip": "ym2612"
    },
    {
      "channel": 2,
      "note": 52,
      "start": 47.1443,
      "duration": 0.0575,
      "velocity": 113,
      "chip": "ym2612"
    },
    {
      "channel": 1,
      "note": 64,
      "start": 47.2005,
      "duration": 0.0286,
      "velocity": 113,
      "chip": "ym2612"
    },
    {
      "channel": 4,
      "note": 40,
      "start": 47.2006,
      "duration": 0.0011,
      "velocity": 105,
      "chip": "ym2612"
    },
    {
      "channel": 2,
      "note": 59,
      "start": 47.2019,
      "duration": 0.0283,
      "velocity": 113,
      "chip": "ym2612"
    },
    {
      "channel": 1,
      "note": 59,
      "start": 47.2291,
      "duration": 0.0571,
      "velocity": 113,
      "chip": "ym2612"
    },
    {
      "channel": 4,
      "note": 40,
      "start": 47.2293,
      "duration": 0.0655,
      "velocity": 105,
      "chip": "ym2612"
    },
    {
      "channel": 2,
      "note": 64,
      "start": 47.2302,
      "duration": 0.0573,
      "velocity": 113,
      "chip": "ym2612"
    },
    {
      "channel": 1,
      "note": 64,
      "start": 47.2862,
      "duration": 0.0084,
      "velocity": 113,
      "chip": "ym2612"
    },
    {
      "channel": 2,
      "note": 59,
      "start": 47.2876,
      "duration": 0.0084,
      "velocity": 113,
      "chip": "ym2612"
    },
    {
      "channel": 1,
      "note": 59,
      "start": 47.2947,
      "duration": 0.0771,
      "velocity": 113,
      "chip": "ym2612"
    },
    {
      "channel": 4,
      "note": 40,
      "start": 47.2949,
      "duration": 0.0169,
      "velocity": 105,
      "chip": "ym2612"
    },
    {
      "channel": 2,
      "note": 64,
      "start": 47.296,
      "duration": 0.0773,
      "velocity": 113,
      "chip": "ym2612"
    },
    {
      "channel": 1,
      "note": 52,
      "start": 47.3719,
      "duration": 0.0085,
      "velocity": 113,
      "chip": "ym2612"
    },
    {
      "channel": 4,
      "note": 40,
      "start": 47.3721,
      "duration": 0.0084,
      "velocity": 105,
      "chip": "ym2612"
    },
    {
      "channel": 2,
      "note": 59,
      "start": 47.3733,
      "duration": 0.0084,
      "velocity": 113,
      "chip": "ym2612"
    },
    {
      "channel": 1,
      "note": 50,
      "start": 47.3804,
      "duration": 0.0785,
      "velocity": 113,
      "chip": "ym2612"
    },
    {
      "channel": 4,
      "note": 40,
      "start": 47.3806,
      "duration": 0.0789,
      "velocity": 105,
      "chip": "ym2612"
    },
    {
      "channel": 2,
      "note": 52,
      "start": 47.3817,
      "duration": 0.0772,
      "velocity": 113,
      "chip": "ym2612"
    },
    {
      "channel": 0,
      "note": 42,
      "start": 47.4589,
      "duration": 0.5885,
      "velocity": 120,
      "chip": "ym2612"
    },
    {
      "channel": 1,
      "note": 66,
      "start": 47.459,
      "duration": 0.0559,
      "velocity": 113,
      "chip": "ym2612"
    },
    {
      "channel": 4,
      "note": 42,
      "start": 47.4595,
      "duration": 0.1354,
      "velocity": 105,
      "chip": "ym2612"
    },
    {
      "channel": 1,
      "note": 66,
      "start": 47.515,
      "duration": 0.1802,
      "velocity": 113,
      "chip": "ym2612"
    },
    {
      "channel": 2,
      "note": 66,
      "start": 47.615,
      "duration": 0.0815,
      "velocity": 113,
      "chip": "ym2612"
    },
    {
      "channel": 1,
      "note": 69,
      "start": 47.6951,
      "duration": 0.0286,
      "velocity": 113,
      "chip": "ym2612"
    },
    {
      "channel": 4,
      "note": 42,
      "start": 47.6953,
      "duration": 0.1084,
      "velocity": 105,
      "chip": "ym2612"
    },
    {
      "channel": 2,
      "note": 66,
      "start": 47.6965,
      "duration": 0.1271,
      "velocity": 113,
      "chip": "ym2612"
    },
    {
      "channel": 1,
      "note": 66,
      "start": 47.7238,
      "duration": 0.1804,
      "velocity": 113,
      "chip": "ym2612"
    },
    {
      "channel": 2,
      "note": 69,
      "start": 47.8237,
      "duration": 0.0818,
      "velocity": 113,
      "chip": "ym2612"
    },
    {
      "channel": 1,
      "note": 71,
      "start": 47.9041,
      "duration": 0.0773,
      "velocity": 113,
      "chip": "ym2612"
    },
    {
      "channel": 3,
      "note": 61,
      "start": 47.9043,
      "duration": 0.0772,
      "velocity": 98,
      "chip": "ym2612"
    },
    {
      "channel": 4,
      "note": 42,
      "start": 47.9044,
      "duration": 0.002,
      "velocity": 105,
      "chip": "ym2612"
    },
    {
      "channel": 2,
      "note": 66,
      "start": 47.9055,
      "duration": 0.0771,
      "velocity": 113,
      "chip": "ym2612"
    },
    {
      "channel": 1,
      "note": 66,
      "start": 47.9815,
      "duration": 0.0572,
      "velocity": 113,
      "chip": "ym2612"
    },
    {
      "channel": 3,
      "note": 62,
      "start": 47.9815,
      "duration": 0.0572,
      "velocity": 98,
      "chip": "ym2612"
    },
    {
      "channel": 4,
      "note": 42,
      "start": 47.9817,
      "duration": 0.0167,
      "velocity": 105,
      "chip": "ym2612"
    },
    {
      "channel": 2,
      "note": 71,
      "start": 47.9826,
      "duration": 0.0575,
      "velocity": 113,
      "chip": "ym2612"
    },
    {
      "channel": 1,
      "note": 69,
      "start": 48.0387,
      "duration": 0.0088,
      "velocity": 113,
      "chip": "ym2612"
    },
    {
      "channel": 3,
      "note": 64,
      "start": 48.0388,
      "duration": 0.0017,
      "velocity": 98,
      "chip": "ym2612"
    },
    {
      "channel": 4,
      "note": 42,
      "start": 48.0389,
      "duration": 0.0019,
      "velocity": 105,
      "chip": "ym2612"
    },
    {
      "channel": 2,
      "note": 66,
      "start": 48.0401,
      "duration": 0.0088,
      "velocity": 113,
      "chip": "ym2612"
    },
    {
      "channel": 0,
      "note": 38,
      "start": 48.0475,
      "duration": 0.4371,
      "velocity": 120,
      "chip": "ym2612"
    },
    {
      "channel": 1,
      "note": 66,
      "start": 48.0475,
      "duration": 0.0767,
      "velocity": 113,
      "chip": "ym2612"
    },
    {
      "channel": 3,
      "note": 64,
      "start": 48.0477,
      "duration": 0.257,
      "velocity": 98,
      "chip": "ym2612"
    },
    {
      "channel": 4,
      "note": 38,
      "start": 48.0477,
      "duration": 0.1766,
      "velocity": 105,
      "chip": "ym2612"
    },
    {
      "channel": 2,
      "note": 69,
      "start": 48.0489,
      "duration": 0.1554,
      "velocity": 113,
      "chip": "ym2612"
    },
    {
      "channel": 1,
      "note": 66,
      "start": 48.1243,
      "duration": 0.1802,
      "velocity": 113,
      "chip": "ym2612"
    },
    {
      "channel": 2,
      "note": 66,
      "start": 48.2044,
      "duration": 0.1016,
      "velocity": 113,
      "chip": "ym2612"
    },
    {
      "channel": 1,
      "note": 66,
      "start": 48.3046,
      "duration": 0.077,
      "velocity": 113,
      "chip": "ym2612"
    },
    {
      "channel": 3,
      "note": 62,
      "start": 48.3047,
      "duration": 0.0789,
      "velocity": 98,
      "chip": "ym2612"
    },
    {
      "channel": 4,
      "note": 38,
      "start": 48.3048,
      "duration": 0.0782,
      "velocity": 105,
      "chip": "ym2612"
    },
    {
      "channel": 2,
      "note": 66,
      "start": 48.306,
      "duration": 0.0767,
      "velocity": 113,
      "chip": "ym2612"
    },
    {
      "channel": 1,
      "note": 69,
      "start": 48.3816,
      "duration": 0.0089,
      "velocity": 113,
      "chip": "ym2612"
    },
    {
      "channel": 2,
      "note": 66,
      "start": 48.3827,
      "duration": 0.0093,
      "velocity": 113,
      "chip": "ym2612"
    },
    {
      "channel": 1,
      "note": 66,
      "start": 48.3905,
      "duration": 0.0571,
      "velocity": 113,
      "chip": "ym2612"
    },
    {
      "channel": 3,
      "note": 61,
      "start": 48.3906,
      "duration": 0.1141,
      "velocity": 98,
      "chip": "ym2612"
    },
    {
      "channel": 4,
      "note": 38,
      "start": 48.3907,
      "duration": 0.059,
      "velocity": 105,
      "chip": "ym2612"
    },
    {
      "channel": 2,
      "note": 69,
      "start": 48.392,
      "duration": 0.0569,
      "velocity": 113,
      "chip": "ym2612"
    },
    {
      "channel": 1,
      "note": 71,
      "start": 48.4477,
      "duration": 0.0774,
      "velocity": 113,
      "chip": "ym2612"
    },
    {
      "channel": 2,
      "note": 66,
      "start": 48.4489,
      "duration": 0.1559,
      "velocity": 113,
      "chip": "ym2612"
    },
    {
      "channel": 0,
      "note": 38,
      "start": 48.5251,
      "duration": 0.2088,
      "velocity": 120,
      "chip": "ym2612"
    },
    {
      "channel": 1,
      "note": 66,
      "start": 48.5251,
      "duration": 0.18,
      "velocity": 113,
      "chip": "ym2612"
    },
    {
      "channel": 3,
      "note": 59,
      "start": 48.5253,
      "duration": 0.1799,
      "velocity": 98,
      "chip": "ym2612"
    },
    {
      "channel": 4,
      "note": 38,
      "start": 48.5254,
      "duration": 0.0994,
      "velocity": 105,
      "chip": "ym2612"
    },
    {
      "channel": 2,
      "note": 71,
      "start": 48.6048,
      "duration": 0.1017,
      "velocity": 113,
      "chip": "ym2612"
    },
    {
      "channel": 1,
      "note": 69,
      "start": 48.7051,
      "duration": 0.0288,
      "velocity": 113,
      "chip": "ym2612"
    },
    {
      "channel": 3,
      "note": 57,
      "start": 48.7052,
      "duration": 0.0289,
      "velocity": 98,
      "chip": "ym2612"
    },
    {
      "channel": 4,
      "note": 38,
      "start": 48.7054,
      "duration": 0.0013,
      "velocity": 105,
      "chip": "ym2612"
    },
    {
      "channel": 2,
      "note": 66,
      "start": 48.7066,
      "duration": 0.0286,
      "velocity": 113,
      "chip": "ym2612"
    },
    {
      "channel": 0,
      "note": 40,
      "start": 48.7339,
      "duration": 0.0023,
      "velocity": 120,
      "chip": "ym2612"
    },
    {
      "channel": 1,
      "note": 64,
      "start": 48.734,
      "duration": 0.0571,
      "velocity": 113,
      "chip": "ym2612"
    },
    {
      "channel": 3,
      "note": 59,
      "start": 48.7341,
      "duration": 0.9057,
      "velocity": 98,
      "chip": "ym2612"
    },
    {
      "channel": 4,
      "note": 38,
      "start": 48.7342,
      "duration": 0.0571,
      "velocity": 105,
      "chip": "ym2612"
    },
    {
      "channel": 2,
      "note": 69,
      "start": 48.7353,
      "duration": 0.0573,
      "velocity": 113,
      "chip": "ym2612"
    },
    {
      "channel": 0,
      "note": 40,
      "start": 48.7911,
      "duration": 0.5817,
      "velocity": 120,
      "chip": "ym2612"
    },
    {
      "channel": 1,
      "note": 64,
      "start": 48.7911,
      "duration": 0.057,
      "velocity": 113,
      "chip": "ym2612"
    },
    {
      "channel": 4,
      "note": 40,
      "start": 48.7913,
      "duration": 0.1369,
      "velocity": 105,
      "chip": "ym2612"
    },
    {
      "channel": 2,
      "note": 64,
      "start": 48.7926,
      "duration": 0.1556,
      "velocity": 113,
      "chip": "ym2612"
    },
    {
      "channel": 1,
      "note": 64,
      "start": 48.8482,
      "duration": 0.2,
      "velocity": 113,
      "chip": "ym2612"
    },
    {
      "channel": 2,
      "note": 64,
      "start": 48.9482,
      "duration": 0.1013,
      "velocity": 113,
      "chip": "ym2612"
    },
    {
      "channel": 1,
      "note": 68,
      "start": 49.0483,
      "duration": 0.0084,
      "velocity": 113,
      "chip": "ym2612"
    },
    {
      "channel": 4,
      "note": 40,
      "start": 49.0485,
      "duration": 0.0883,
      "velocity": 105,
      "chip": "ym2612"
    },
    {
      "channel": 2,
      "note": 64,
      "start": 49.0495,
      "duration": 0.1072,
      "velocity": 113,
      "chip": "ym2612"
    },
    {
      "channel": 1,
      "note": 64,
      "start": 49.0568,
      "duration": 0.2001,
      "velocity": 113,
      "chip": "ym2612"
    },
    {
      "channel": 2,
      "note": 68,
      "start": 49.1568,
      "duration": 0.1013,
      "velocity": 113,
      "chip": "ym2612"
    },
    {
      "channel": 1,
      "note": 69,
      "start": 49.2569,
      "duration": 0.0573,
      "velocity": 113,
      "chip": "ym2612"
    },
    {
      "channel": 4,
      "note": 40,
      "start": 49.2571,
      "duration": 0.017,
      "velocity": 105,
      "chip": "ym2612"
    },
    {
      "channel": 2,
      "note": 64,
      "start": 49.2581,
      "duration": 0.0575,
      "velocity": 113,
      "chip": "ym2612"
    },
    {
      "channel": 1,
      "note": 64,
      "start": 49.3143,
      "duration": 0.0571,
      "velocity": 113,
      "chip": "ym2612"
    },
    {
      "channel": 4,
      "note": 40,
      "start": 49.3144,
      "duration": 0.0588,
      "velocity": 105,
      "chip": "ym2612"
    },
    {
      "channel": 2,
      "note": 69,
      "start": 49.3156,
      "duration": 0.0572,
      "velocity": 113,
      "chip": "ym2612"
    },
    {
      "channel": 1,
      "note": 68,
      "start": 49.3715,
      "duration": 0.0289,
      "velocity": 113,
      "chip": "ym2612"
    },
    {
      "channel": 2,
      "note": 64,
      "start": 49.3729,
      "duration": 0.0288,
      "velocity": 113,
      "chip": "ym2612"
    },
    {
      "channel": 0,
      "note": 40,
      "start": 49.4004,
      "duration": 0.7233,
      "velocity": 120,
      "chip": "ym2612"
    },
    {
      "channel": 1,
      "note": 64,
      "start": 49.4005,
      "duration": 0.057,
      "velocity": 113,
      "chip": "ym2612"
    },
    {
      "channel": 4,
      "note": 40,
      "start": 49.4006,
      "duration": 0.1768,
      "velocity": 105,
      "chip": "ym2612"
    },
    {
      "channel": 2,
      "note": 68,
      "start": 49.4016,
      "duration": 0.1559,
      "velocity": 113,
      "chip": "ym2612"
    },
    {
      "channel": 1,
      "note": 71,
      "start": 49.4575,
      "duration": 0.1801,
      "velocity": 113,
      "chip": "ym2612"
    },
    {
      "channel": 2,
      "note": 64,
      "start": 49.5575,
      "duration": 0.0815,
      "velocity": 113,
      "chip": "ym2612"
    },
    {
      "channel": 1,
      "note": 64,
      "start": 49.6376,
      "duration": 0.0772,
      "velocity": 113,
      "chip": "ym2612"
    },
    {
      "channel": 4,
      "note": 40,
      "start": 49.6378,
      "duration": 0.0779,
      "velocity": 105,
      "chip": "ym2612"
    },
    {
      "channel": 2,
      "note": 71,
      "start": 49.639,
      "duration": 0.0771,
      "velocity": 113,
      "chip": "ym2612"
    },
    {
      "channel": 3,
      "note": 59,
      "start": 49.6398,
      "duration": 0.4639,
      "velocity": 98,
      "chip": "ym2612"
    },
    {
      "channel": 1,
      "note": 69,
      "start": 49.7148,
      "duration": 0.0085,
      "velocity": 113,
      "chip": "ym2612"
    },
    {
      "channel": 2,
      "note": 64,
      "start": 49.7161,
      "duration": 0.0086,
      "velocity": 113,
      "chip": "ym2612"
    },
    {
      "channel": 1,
      "note": 64,
      "start": 49.7233,
      "duration": 0.0771,
      "velocity": 113,
      "chip": "ym2612"
    },
    {
      "channel": 4,
      "note": 40,
      "start": 49.7235,
      "duration": 0.1143,
      "velocity": 105,
      "chip": "ym2612"
    },
    {
      "channel": 2,
      "note": 69,
      "start": 49.7246,
      "duration": 0.0769,
      "velocity": 113,
      "chip": "ym2612"
    },
    {
      "channel": 1,
      "note": 68,
      "start": 49.8004,
      "duration": 0.0574,
      "velocity": 113,
      "chip": "ym2612"
    },
    {
      "channel": 2,
      "note": 64,
      "start": 49.8016,
      "duration": 0.1563,
      "velocity": 113,
      "chip": "ym2612"
    },
    {
      "channel": 1,
      "note": 64,
      "start": 49.8579,
      "duration": 0.18,
      "velocity": 113,
      "chip": "ym2612"
    },
    {
      "channel": 4,
      "note": 35,
      "start": 49.858,
      "duration": 0.18,
      "velocity": 105,
      "chip": "ym2612"
    },
    {
      "channel": 2,
      "note": 68,
      "start": 49.9578,
      "duration": 0.0815,
      "velocity": 113,
      "chip": "ym2612"
    },
    {
      "channel": 1,
      "note": 64,
      "start": 50.0379,
      "duration": 0.0285,
      "velocity": 113,
      "chip": "ym2612"
    },
    {
      "channel": 4,
      "note": 40,
      "start": 50.0381,
      "duration": 0.0286,
      "velocity": 105,
      "chip": "ym2612"
    },
    {
      "channel": 2,
      "note": 64,
      "start": 50.0394,
      "duration": 0.0285,
      "velocity": 113,
      "chip": "ym2612"
    },
    {
      "channel": 1,
      "note": 66,
      "start": 50.0665,
      "duration": 0.0572,
      "velocity": 113,
      "chip": "ym2612"
    },
    {
      "channel": 4,
      "note": 35,
      "start": 50.0667,
      "duration": 0.037,
      "velocity": 105,
      "chip": "ym2612"
    },
    {
      "channel": 2,
      "note": 64,
      "start": 50.068,
      "duration": 0.0571,
      "velocity": 113,
      "chip": "ym2612"
    },
    {
      "channel": 4,
      "note": 35,
      "start": 50.1038,
      "duration": 0.0201,
      "velocity": 105,
      "chip": "ym2612"
    },
    {
      "channel": 0,
      "note": 42,
      "start": 50.1238,
      "duration": 0.6028,
      "velocity": 120,
      "chip": "ym2612"
    },
    {
      "channel": 1,
      "note": 66,
      "start": 50.1238,
      "duration": 0.0771,
      "velocity": 113,
      "chip": "ym2612"
    },
    {
      "channel": 4,
      "note": 42,
      "start": 50.124,
      "duration": 0.1571,
      "velocity": 105,
      "chip": "ym2612"
    },
    {
      "channel": 2,
      "note": 66,
      "start": 50.1251,
      "duration": 0.1558,
      "velocity": 113,
      "chip": "ym2612"
    },
    {
      "channel": 1,
      "note": 66,
      "start": 50.201,
      "duration": 0.1801,
      "velocity": 113,
      "chip": "ym2612"
    },
    {
      "channel": 2,
      "note": 66,
      "start": 50.281,
      "duration": 0.1014,
      "velocity": 113,
      "chip": "ym2612"
    },
    {
      "channel": 1,
      "note": 69,
      "start": 50.3811,
      "duration": 0.0086,
      "velocity": 113,
      "chip": "ym2612"
    },
    {
      "channel": 4,
      "note": 42,
      "start": 50.3812,
      "duration": 0.0884,
      "velocity": 105,
      "chip": "ym2612"
    },
    {
      "channel": 2,
      "note": 66,
      "start": 50.3824,
      "duration": 0.1072,
      "velocity": 113,
      "chip": "ym2612"
    },
    {
      "channel": 1,
      "note": 66,
      "start": 50.3897,
      "duration": 0.2004,
      "velocity": 113,
      "chip": "ym2612"
    },
    {
      "channel": 2,
      "note": 69,
      "start": 50.4897,
      "duration": 0.1019,
      "velocity": 113,
      "chip": "ym2612"
    },
    {
      "channel": 1,
      "note": 71,
      "start": 50.5901,
      "duration": 0.0573,
      "velocity": 113,
      "chip": "ym2612"
    },
    {
      "channel": 3,
      "note": 61,
      "start": 50.5902,
      "duration": 0.0573,
      "velocity": 98,
      "chip": "ym2612"
    },
    {
      "channel": 4,
      "note": 42,
      "start": 50.5903,
      "duration": 0.0021,
      "velocity": 105,
      "chip": "ym2612"
    },
    {
      "channel": 2,
      "note": 66,
      "start": 50.5916,
      "duration": 0.0573,
      "velocity": 113,
      "chip": "ym2612"
    },
    {
      "channel": 1,
      "note": 66,
      "start": 50.6475,
      "duration": 0.0773,
      "velocity": 113,
      "chip": "ym2612"
    },
    {
      "channel": 3,
      "note": 62,
      "start": 50.6476,
      "duration": 0.0773,
      "velocity": 98,
      "chip": "ym2612"
    },
    {
      "channel": 4,
      "note": 42,
      "start": 50.6477,
      "duration": 0.0861,
      "velocity": 105,
      "chip": "ym2612"
    },
    {
      "channel": 2,
      "note": 71,
      "start": 50.6489,
      "duration": 0.0769,
      "velocity": 113,
      "chip": "ym2612"
    },
    {
      "channel": 1,
      "note": 69,
      "start": 50.7249,
      "duration": 0.0088,
      "velocity": 113,
      "chip": "ym2612"
    },
    {
      "channel": 3,
      "note": 64,
      "start": 50.7249,
      "duration": 0.0015,
      "velocity": 98,
      "chip": "ym2612"
    },
    {
      "channel": 2,
      "note": 66,
      "start": 50.7259,
      "duration": 0.0092,
      "velocity": 113,
      "chip": "ym2612"
    },
    {
      "channel": 0,
      "note": 38,
      "start": 50.7337,
      "duration": 0.6592,
      "velocity": 120,
      "chip": "ym2612"
    },
    {
      "channel": 1,
      "note": 66,
      "start": 50.7337,
      "duration": 0.0567,
      "velocity": 113,
      "chip": "ym2612"
    },
    {
      "channel": 3,
      "note": 64,
      "start": 50.7338,
      "duration": 0.2571,
      "velocity": 98,
      "chip": "ym2612"
    },
    {
      "channel": 4,
      "note": 38,
      "start": 50.7339,
      "duration": 0.1567,
      "velocity": 105,
      "chip": "ym2612"
    },
    {
      "channel": 2,
      "note": 69,
      "start": 50.7351,
      "duration": 0.1554,
      "velocity": 113,
      "chip": "ym2612"
    },
    {
      "channel": 1,
      "note": 66,
      "start": 50.7905,
      "duration": 0.2002,
      "velocity": 113,
      "chip": "ym2612"
    },
    {
      "channel": 2,
      "note": 66,
      "start": 50.8905,
      "duration": 0.1016,
      "velocity": 113,
      "chip": "ym2612"
    },
    {
      "channel": 1,
      "note": 66,
      "start": 50.9908,
      "duration": 0.057,
      "velocity": 113,
      "chip": "ym2612"
    },
    {
      "channel": 3,
      "note": 62,
      "start": 50.9909,
      "duration": 0.0859,
      "velocity": 98,
      "chip": "ym2612"
    },
    {
      "channel": 4,
      "note": 38,
      "start": 50.991,
      "duration": 0.0578,
      "velocity": 105,
      "chip": "ym2612"
    },
    {
      "channel": 2,
      "note": 66,
      "start": 50.9922,
      "duration": 0.057,
      "velocity": 113,
      "chip": "ym2612"
    },
    {
      "channel": 1,
      "note": 69,
      "start": 51.0479,
      "duration": 0.0289,
      "velocity": 113,
      "chip": "ym2612"
    },
    {
      "channel": 2,
      "note": 66,
      "start": 51.0492,
      "duration": 0.0288,
      "velocity": 113,
      "chip": "ym2612"
    },
    {
      "channel": 1,
      "note": 66,
      "start": 51.0768,
      "duration": 0.0571,
      "velocity": 113,
      "chip": "ym2612"
    },
    {
      "channel": 3,
      "note": 61,
      "start": 51.0769,
      "duration": 0.1147,
      "velocity": 98,
      "chip": "ym2612"
    },
    {
      "channel": 4,
      "note": 38,
      "start": 51.077,
      "duration": 0.0576,
      "velocity": 105,
      "chip": "ym2612"
    },
    {
      "channel": 2,
      "note": 69,
      "start": 51.0781,
      "duration": 0.0571,
      "velocity": 113,
      "chip": "ym2612"
    },
    {
      "channel": 1,
      "note": 71,
      "start": 51.1339,
      "duration": 0.0576,
      "velocity": 113,
      "chip": "ym2612"
    },
    {
      "channel": 2,
      "note": 66,
      "start": 51.1352,
      "duration": 0.156,
      "velocity": 113,
      "chip": "ym2612"
    },
    {
      "channel": 1,
      "note": 66,
      "start": 51.1915,
      "duration": 0.2,
      "velocity": 113,
      "chip": "ym2612"
    },
    {
      "channel": 3,
      "note": 59,
      "start": 51.1917,
      "duration": 0.1999,
      "velocity": 98,
      "chip": "ym2612"
    },
    {
      "channel": 4,
      "note": 38,
      "start": 51.1917,
      "duration": 0.0995,
      "velocity": 105,
      "chip": "ym2612"
    },
    {
      "channel": 2,
      "note": 71,
      "start": 51.2912,
      "duration": 0.1015,
      "velocity": 113,
      "chip": "ym2612"
    },
    {
      "channel": 1,
      "note": 69,
      "start": 51.3915,
      "duration": 0.009,
      "velocity": 113,
      "chip": "ym2612"
    },
    {
      "channel": 3,
      "note": 57,
      "start": 51.3916,
      "duration": 0.0021,
      "velocity": 98,
      "chip": "ym2612"
    },
    {
      "channel": 4,
      "note": 38,
      "start": 51.3917,
      "duration": 0.002,
      "velocity": 105,
      "chip": "ym2612"
    },
    {
      "channel": 2,
      "note": 66,
      "start": 51.3927,
      "duration": 0.0092,
      "velocity": 113,
      "chip": "ym2612"
    },
    {
      "channel": 0,
      "note": 38,
      "start": 51.4004,
      "duration": 0.0769,
      "velocity": 120,
      "chip": "ym2612"
    },
    {
      "channel": 1,
      "note": 64,
      "start": 51.4005,
      "duration": 0.0769,
      "velocity": 113,
      "chip": "ym2612"
    },
    {
      "channel": 3,
      "note": 59,
      "start": 51.4006,
      "duration": 0.343,
      "velocity": 98,
      "chip": "ym2612"
    },
    {
      "channel": 4,
      "note": 40,
      "start": 51.4007,
      "duration": 0.0013,
      "velocity": 105,
      "chip": "ym2612"
    },
    {
      "channel": 2,
      "note": 69,
      "start": 51.4019,
      "duration": 0.0767,
      "velocity": 113,
      "chip": "ym2612"
    },
    {
      "channel": 0,
      "note": 40,
      "start": 51.4774,
      "duration": 0.582,
      "velocity": 120,
      "chip": "ym2612"
    },
    {
      "channel": 1,
      "note": 64,
      "start": 51.4774,
      "duration": 0.0571,
      "velocity": 113,
      "chip": "ym2612"
    },
    {
      "channel": 4,
      "note": 40,
      "start": 51.4776,
      "duration": 0.157,
      "velocity": 105,
      "chip": "ym2612"
    },
    {
      "channel": 2,
      "note": 64,
      "start": 51.4786,
      "duration": 0.1559,
      "velocity": 113,
      "chip": "ym2612"
    },
    {
      "channel": 1,
      "note": 64,
      "start": 51.5346,
      "duration": 0.18,
      "velocity": 113,
      "chip": "ym2612"
    },
    {
      "channel": 2,
      "note": 64,
      "start": 51.6346,
      "duration": 0.0815,
      "velocity": 113,
      "chip": "ym2612"
    },
    {
      "channel": 1,
      "note": 68,
      "start": 51.7147,
      "duration": 0.0288,
      "velocity": 113,
      "chip": "ym2612"
    },
    {
      "channel": 4,
      "note": 40,
      "start": 51.7148,
      "duration": 0.0883,
      "velocity": 105,
      "chip": "ym2612"
    },
    {
      "channel": 2,
      "note": 64,
      "start": 51.7161,
      "duration": 0.107,
      "velocity": 113,
      "chip": "ym2612"
    },
    {
      "channel": 1,
      "note": 64,
      "start": 51.7435,
      "duration": 0.1798,
      "velocity": 113,
      "chip": "ym2612"
    },
    {
      "channel": 3,
      "note": 64,
      "start": 51.7437,
      "duration": 0.7534,
      "velocity": 98,
      "chip": "ym2612"
    },
    {
      "channel": 2,
      "note": 68,
      "start": 51.8232,
      "duration": 0.1015,
      "velocity": 113,
      "chip": "ym2612"
    },
    {
      "channel": 1,
      "note": 69,
      "start": 51.9233,
      "duration": 0.0773,
      "velocity": 113,
      "chip": "ym2612"
    },
    {
      "channel": 4,
      "note": 40,
      "start": 51.9235,
      "duration": 0.0776,
      "velocity": 105,
      "chip": "ym2612"
    },
    {
      "channel": 2,
      "note": 64,
      "start": 51.9247,
      "duration": 0.0769,
      "velocity": 113,
      "chip": "ym2612"
    },
    {
      "channel": 1,
      "note": 64,
      "start": 52.0005,
      "duration": 0.0574,
      "velocity": 113,
      "chip": "ym2612"
    },
    {
      "channel": 2,
      "note": 69,
      "start": 52.0016,
      "duration": 0.0577,
      "velocity": 113,
      "chip": "ym2612"
    },
    {
      "channel": 1,
      "note": 68,
      "start": 52.058,
      "duration": 0.0088,
      "velocity": 113,
      "chip": "ym2612"
    },
    {
      "channel": 4,
      "note": 40,
      "start": 52.0582,
      "duration": 0.0013,
      "velocity": 105,
      "chip": "ym2612"
    },
    {
      "channel": 2,
      "note": 64,
      "start": 52.0594,
      "duration": 0.0088,
      "velocity": 113,
      "chip": "ym2612"
    },
    {
      "channel": 0,
      "note": 40,
      "start": 52.0667,
      "duration": 0.5722,
      "velocity": 120,
      "chip": "ym2612"
    },
    {
      "channel": 1,
      "note": 64,
      "start": 52.0668,
      "duration": 0.0771,
      "velocity": 113,
      "chip": "ym2612"
    },
    {
      "channel": 4,
      "note": 40,
      "start": 52.067,
      "duration": 0.1769,
      "velocity": 105,
      "chip": "ym2612"
    },
    {
      "channel": 2,
      "note": 68,
      "start": 52.0682,
      "duration": 0.1556,
      "velocity": 113,
      "chip": "ym2612"
    },
    {
      "channel": 1,
      "note": 76,
      "start": 52.1438,
      "duration": 0.1801,
      "velocity": 113,
      "chip": "ym2612"
    },
    {
      "channel": 2,
      "note": 64,
      "start": 52.2238,
      "duration": 0.1015,
      "velocity": 113,
      "chip": "ym2612"
    },
    {
      "channel": 1,
      "note": 64,
      "start": 52.3239,
      "duration": 0.0772,
      "velocity": 113,
      "chip": "ym2612"
    },
    {
      "channel": 4,
      "note": 40,
      "start": 52.3241,
      "duration": 0.078,
      "velocity": 105,
      "chip": "ym2612"
    },
    {
      "channel": 2,
      "note": 76,
      "start": 52.3253,
      "duration": 0.0769,
      "velocity": 113,
      "chip": "ym2612"
    },
    {
      "channel": 1,
      "note": 71,
      "start": 52.4012,
      "duration": 0.0086,
      "velocity": 113,
      "chip": "ym2612"
    },
    {
      "channel": 2,
      "note": 64,
      "start": 52.4022,
      "duration": 0.0088,
      "velocity": 113,
      "chip": "ym2612"
    },
    {
      "channel": 1,
      "note": 64,
      "start": 52.4098,
      "duration": 0.0572,
      "velocity": 113,
      "chip": "ym2612"
    },
    {
      "channel": 4,
      "note": 40,
      "start": 52.41,
      "duration": 0.058,
      "velocity": 105,
      "chip": "ym2612"
    },
    {
      "channel": 2,
      "note": 71,
      "start": 52.4111,
      "duration": 0.0572,
      "velocity": 113,
      "chip": "ym2612"
    },
    {
      "channel": 1,
      "note": 69,
      "start": 52.467,
      "duration": 0.0287,
      "velocity": 113,
      "chip": "ym2612"
    },
    {
      "channel": 2,
      "note": 64,
      "start": 52.4683,
      "duration": 0.0285,
      "velocity": 113,
      "chip": "ym2612"
    },
    {
      "channel": 1,
      "note": 64,
      "start": 52.4956,
      "duration": 0.0571,
      "velocity": 113,
      "chip": "ym2612"
    },
    {
      "channel": 4,
      "note": 40,
      "start": 52.4959,
      "duration": 0.0009,
      "velocity": 105,
      "chip": "ym2612"
    },
    {
      "channel": 2,
      "note": 69,
      "start": 52.4967,
      "duration": 0.0574,
      "velocity": 113,
      "chip": "ym2612"
    },
    {
      "channel": 3,
      "note": 64,
      "start": 52.4971,
      "duration": 0.0659,
      "velocity": 98,
      "chip": "ym2612"
    },
    {
      "channel": 1,
      "note": 68,
      "start": 52.5528,
      "duration": 0.0085,
      "velocity": 113,
      "chip": "ym2612"
    },
    {
      "channel": 4,
      "note": 40,
      "start": 52.553,
      "duration": 0.001,
      "velocity": 105,
      "chip": "ym2612"
    },
    {
      "channel": 2,
      "note": 64,
      "start": 52.5541,
      "duration": 0.0088,
      "velocity": 113,
      "chip": "ym2612"
    },
    {
      "channel": 1,
      "note": 64,
      "start": 52.5614,
      "duration": 0.0776,
      "velocity": 113,
      "chip": "ym2612"
    },
    {
      "channel": 4,
      "note": 40,
      "start": 52.5616,
      "duration": 0.037,
      "velocity": 105,
      "chip": "ym2612"
    },
    {
      "channel": 2,
      "note": 68,
      "start": 52.563,
      "duration": 0.0774,
      "velocity": 113,
      "chip": "ym2612"
    },
    {
      "channel": 0,
      "note": 45,
      "start": 52.6389,
      "duration": 0.6101,
      "velocity": 120,
      "chip": "ym2612"
    },
    {
      "channel": 1,
      "note": 69,
      "start": 52.639,
      "duration": 0.0572,
      "velocity": 113,
      "chip": "ym2612"
    },
    {
      "channel": 4,
      "note": 45,
      "start": 52.6391,
      "duration": 0.1171,
      "velocity": 105,
      "chip": "ym2612"
    },
    {
      "channel": 2,
      "note": 64,
      "start": 52.6405,
      "duration": 0.1557,
      "velocity": 113,
      "chip": "ym2612"
    },
    {
      "channel": 1,
      "note": 69,
      "start": 52.6963,
      "duration": 0.2001,
      "velocity": 113,
      "chip": "ym2612"
    },
    {
      "channel": 2,
      "note": 69,
      "start": 52.7963,
      "duration": 0.1012,
      "velocity": 113,
      "chip": "ym2612"
    },
    {
      "channel": 1,
      "note": 72,
      "start": 52.8964,
      "duration": 0.0086,
      "velocity": 113,
      "chip": "ym2612"
    },
    {
      "channel": 4,
      "note": 45,
      "start": 52.8965,
      "duration": 0.0885,
      "velocity": 105,
      "chip": "ym2612"
    },
    {
      "channel": 2,
      "note": 69,
      "start": 52.8975,
      "duration": 0.1075,
      "velocity": 113,
      "chip": "ym2612"
    },
    {
      "channel": 1,
      "note": 69,
      "start": 52.905,
      "duration": 0.1803,
      "velocity": 113,
      "chip": "ym2612"
    },
    {
      "channel": 2,
      "note": 72,
      "start": 53.005,
      "duration": 0.0817,
      "velocity": 113,
      "chip": "ym2612"
    },
    {
      "channel": 1,
      "note": 74,
      "start": 53.0854,
      "duration": 0.0771,
      "velocity": 113,
      "chip": "ym2612"
    },
    {
      "channel": 3,
      "note": 64,
      "start": 53.0855,
      "duration": 0.0771,
      "velocity": 98,
      "chip": "ym2612"
    },
    {
      "channel": 4,
      "note": 45,
      "start": 53.0856,
      "duration": 0.0167,
      "velocity": 105,
      "chip": "ym2612"
    },
    {
      "channel": 2,
      "note": 69,
      "start": 53.0868,
      "duration": 0.0771,
      "velocity": 113,
      "chip": "ym2612"
    },
    {
      "channel": 1,
      "note": 69,
      "start": 53.1625,
      "duration": 0.0576,
      "velocity": 113,
      "chip": "ym2612"
    },
    {
      "channel": 3,
      "note": 65,
      "start": 53.1627,
      "duration": 0.0371,
      "velocity": 98,
      "chip": "ym2612"
    },
    {
      "channel": 2,
      "note": 74,
      "start": 53.1639,
      "duration": 0.0576,
      "velocity": 113,
      "chip": "ym2612"
    },
    {
      "channel": 1,
      "note": 72,
      "start": 53.2201,
      "duration": 0.0289,
      "velocity": 113,
      "chip": "ym2612"
    },
    {
      "channel": 3,
      "note": 67,
      "start": 53.2202,
      "duration": 0.0019,
      "velocity": 98,
      "chip": "ym2612"
    },
    {
      "channel": 4,
      "note": 45,
      "start": 53.2203,
      "duration": 0.0289,
      "velocity": 105,
      "chip": "ym2612"
    },
    {
      "channel": 2,
      "note": 69,
      "start": 53.2215,
      "duration": 0.0287,
      "velocity": 113,
      "chip": "ym2612"
    },
    {
      "channel": 0,
      "note": 41,
      "start": 53.2491,
      "duration": 0.7232,
      "velocity": 120,
      "chip": "ym2612"
    },
    {
      "channel": 1,
      "note": 69,
      "start": 53.2491,
      "duration": 0.0566,
      "velocity": 113,
      "chip": "ym2612"
    },
    {
      "channel": 3,
      "note": 67,
      "start": 53.2493,
      "duration": 0.2369,
      "velocity": 98,
      "chip": "ym2612"
    },
    {
      "channel": 4,
      "note": 41,
      "start": 53.2493,
      "duration": 0.1565,
      "velocity": 105,
      "chip": "ym2612"
    },
    {
      "channel": 2,
      "note": 72,
      "start": 53.2502,
      "duration": 0.1555,
      "velocity": 113,
      "chip": "ym2612"
    },
    {
      "channel": 1,
      "note": 69,
      "start": 53.3058,
      "duration": 0.1802,
      "velocity": 113,
      "chip": "ym2612"
    },
    {
      "channel": 2,
      "note": 69,
      "start": 53.4058,
      "duration": 0.0816,
      "velocity": 113,
      "chip": "ym2612"
    },
    {
      "channel": 1,
      "note": 69,
      "start": 53.4861,
      "duration": 0.0769,
      "velocity": 113,
      "chip": "ym2612"
    },
    {
      "channel": 3,
      "note": 65,
      "start": 53.4862,
      "duration": 0.0859,
      "velocity": 98,
      "chip": "ym2612"
    },
    {
      "channel": 4,
      "note": 41,
      "start": 53.4863,
      "duration": 0.0768,
      "velocity": 105,
      "chip": "ym2612"
    },
    {
      "channel": 2,
      "note": 69,
      "start": 53.4874,
      "duration": 0.0769,
      "velocity": 113,
      "chip": "ym2612"
    },
    {
      "channel": 1,
      "note": 72,
      "start": 53.563,
      "duration": 0.0089,
      "velocity": 113,
      "chip": "ym2612"
    },
    {
      "channel": 2,
      "note": 69,
      "start": 53.5644,
      "duration": 0.009,
      "velocity": 113,
      "chip": "ym2612"
    },
    {
      "channel": 1,
      "note": 69,
      "start": 53.572,
      "duration": 0.077,
      "velocity": 113,
      "chip": "ym2612"
    },
    {
      "channel": 3,
      "note": 64,
      "start": 53.5721,
      "duration": 0.0942,
      "velocity": 98,
      "chip": "ym2612"
    },
    {
      "channel": 4,
      "note": 41,
      "start": 53.5722,
      "duration": 0.0774,
      "velocity": 105,
      "chip": "ym2612"
    },
    {
      "channel": 2,
      "note": 72,
      "start": 53.5734,
      "duration": 0.0767,
      "velocity": 113,
      "chip": "ym2612"
    },
    {
      "channel": 1,
      "note": 74,
      "start": 53.649,
      "duration": 0.0575,
      "velocity": 113,
      "chip": "ym2612"
    },
    {
      "channel": 2,
      "note": 69,
      "start": 53.6502,
      "duration": 0.1562,
      "velocity": 113,
      "chip": "ym2612"
    },
    {
      "channel": 1,
      "note": 69,
      "start": 53.7066,
      "duration": 0.18,
      "velocity": 113,
      "chip": "ym2612"
    },
    {
      "channel": 3,
      "note": 62,
      "start": 53.7068,
      "duration": 0.18,
      "velocity": 98,
      "chip": "ym2612"
    },
    {
      "channel": 4,
      "note": 41,
      "start": 53.7068,
      "duration": 0.1196,
      "velocity": 105,
      "chip": "ym2612"
    },
    {
      "channel": 2,
      "note": 74,
      "start": 53.8064,
      "duration": 0.0816,
      "velocity": 113,
      "chip": "ym2612"
    },
    {
      "channel": 1,
      "note": 72,
      "start": 53.8867,
      "duration": 0.0285,
      "velocity": 113,
      "chip": "ym2612"
    },
    {
      "channel": 3,
      "note": 60,
      "start": 53.8868,
      "duration": 0.0286,
      "velocity": 98,
      "chip": "ym2612"
    },
    {
      "channel": 4,
      "note": 41,
      "start": 53.8869,
      "duration": 0.0079,
      "velocity": 105,
      "chip": "ym2612"
    },
    {
      "channel": 2,
      "note": 69,
      "start": 53.888,
      "duration": 0.0284,
      "velocity": 113,
      "chip": "ym2612"
    },
    {
      "channel": 1,
      "note": 67,
      "start": 53.9153,
      "duration": 0.057,
      "velocity": 113,
      "chip": "ym2612"
    },
    {
      "channel": 3,
      "note": 62,
      "start": 53.9155,
      "duration": 0.582,
      "velocity": 98,
      "chip": "ym2612"
    },
    {
      "channel": 4,
      "note": 43,
      "start": 53.9155,
      "duration": 0.001,
      "velocity": 105,
      "chip": "ym2612"
    },
    {
      "channel": 2,
      "note": 72,
      "start": 53.9165,
      "duration": 0.0573,
      "velocity": 113,
      "chip": "ym2612"
    },
    {
      "channel": 0,
      "note": 43,
      "start": 53.9723,
      "duration": 0.602,
      "velocity": 120,
      "chip": "ym2612"
    },
    {
      "channel": 1,
      "note": 67,
      "start": 53.9724,
      "duration": 0.0771,
      "velocity": 113,
      "chip": "ym2612"
    },
    {
      "channel": 4,
      "note": 43,
      "start": 53.9725,
      "duration": 0.1369,
      "velocity": 105,
      "chip": "ym2612"
    },
    {
      "channel": 2,
      "note": 67,
      "start": 53.9738,
      "duration": 0.1556,
      "velocity": 113,
      "chip": "ym2612"
    },
    {
      "channel": 1,
      "note": 67,
      "start": 54.0495,
      "duration": 0.1801,
      "velocity": 113,
      "chip": "ym2612"
    },
    {
      "channel": 2,
      "note": 67,
      "start": 54.1295,
      "duration": 0.1015,
      "velocity": 113,
      "chip": "ym2612"
    },
    {
      "channel": 1,
      "note": 71,
      "start": 54.2296,
      "duration": 0.0085,
      "velocity": 113,
      "chip": "ym2612"
    },
    {
      "channel": 4,
      "note": 43,
      "start": 54.2298,
      "duration": 0.0483,
      "velocity": 105,
      "chip": "ym2612"
    },
    {
      "channel": 2,
      "note": 67,
      "start": 54.231,
      "duration": 0.107,
      "velocity": 113,
      "chip": "ym2612"
    },
    {
      "channel": 1,
      "note": 67,
      "start": 54.238,
      "duration": 0.2001,
      "velocity": 113,
      "chip": "ym2612"
    },
    {
      "channel": 2,
      "note": 71,
      "start": 54.338,
      "duration": 0.1012,
      "velocity": 113,
      "chip": "ym2612"
    },
    {
      "channel": 1,
      "note": 72,
      "start": 54.4382,
      "duration": 0.0572,
      "velocity": 113,
      "chip": "ym2612"
    },
    {
      "channel": 4,
      "note": 43,
      "start": 54.4384,
      "duration": 0.0012,
      "velocity": 105,
      "chip": "ym2612"
    },
    {
      "channel": 2,
      "note": 67,
      "start": 54.4393,
      "duration": 0.0574,
      "velocity": 113,
      "chip": "ym2612"
    },
    {
      "channel": 1,
      "note": 67,
      "start": 54.4954,
      "duration": 0.0772,
      "velocity": 113,
      "chip": "ym2612"
    },
    {
      "channel": 4,
      "note": 43,
      "start": 54.4956,
      "duration": 0.001,
      "velocity": 105,
      "chip": "ym2612"
    },
    {
      "channel": 2,
      "note": 72,
      "start": 54.4967,
      "duration": 0.077,
      "velocity": 113,
      "chip": "ym2612"
    },
    {
      "channel": 1,
      "note": 71,
      "start": 54.5727,
      "duration": 0.009,
      "velocity": 113,
      "chip": "ym2612"
    },
    {
      "channel": 4,
      "note": 43,
      "start": 54.5728,
      "duration": 0.0017,
      "velocity": 105,
      "chip": "ym2612"
    },
    {
      "channel": 2,
      "note": 67,
      "start": 54.5737,
      "duration": 0.0093,
      "velocity": 113,
      "chip": "ym2612"
    },
    {
      "channel": 0,
      "note": 43,
      "start": 54.5816,
      "duration": 0.3432,
      "velocity": 120,
      "chip": "ym2612"
    },
    {
      "channel": 1,
      "note": 67,
      "start": 54.5817,
      "duration": 0.0567,
      "velocity": 113,
      "chip": "ym2612"
    },
    {
      "channel": 3,
      "note": 65,
      "start": 54.5818,
      "duration": 0.2366,
      "velocity": 98,
      "chip": "ym2612"
    },
    {
      "channel": 4,
      "note": 40,
      "start": 54.5819,
      "duration": 0.1166,
      "velocity": 105,
      "chip": "ym2612"
    },
    {
      "channel": 2,
      "note": 71,
      "start": 54.583,
      "duration": 0.1553,
      "velocity": 113,
      "chip": "ym2612"
    },
    {
      "channel": 1,
      "note": 67,
      "start": 54.6384,
      "duration": 0.2002,
      "velocity": 113,
      "chip": "ym2612"
    },
    {
      "channel": 2,
      "note": 67,
      "start": 54.7384,
      "duration": 0.1015,
      "velocity": 113,
      "chip": "ym2612"
    },
    {
      "channel": 1,
      "note": 67,
      "start": 54.8388,
      "duration": 0.0571,
      "velocity": 113,
      "chip": "ym2612"
    },
    {
      "channel": 3,
      "note": 64,
      "start": 54.8389,
      "duration": 0.0861,
      "velocity": 98,
      "chip": "ym2612"
    },
    {
      "channel": 4,
      "note": 40,
      "start": 54.8389,
      "duration": 0.0577,
      "velocity": 105,
      "chip": "ym2612"
    },
    {
      "channel": 2,
      "note": 67,
      "start": 54.8399,
      "duration": 0.0572,
      "velocity": 113,
      "chip": "ym2612"
    },
    {
      "channel": 1,
      "note": 71,
      "start": 54.8959,
      "duration": 0.029,
      "velocity": 113,
      "chip": "ym2612"
    },
    {
      "channel": 2,
      "note": 67,
      "start": 54.8972,
      "duration": 0.0289,
      "velocity": 113,
      "chip": "ym2612"
    },
    {
      "channel": 0,
      "note": 40,
      "start": 54.9249,
      "duration": 0.3163,
      "velocity": 120,
      "chip": "ym2612"
    },
    {
      "channel": 1,
      "note": 67,
      "start": 54.9249,
      "duration": 0.0569,
      "velocity": 113,
      "chip": "ym2612"
    },
    {
      "channel": 3,
      "note": 62,
      "start": 54.9251,
      "duration": 0.1144,
      "velocity": 98,
      "chip": "ym2612"
    },
    {
      "channel": 4,
      "note": 40,
      "start": 54.9251,
      "duration": 0.0576,
      "velocity": 105,
      "chip": "ym2612"
    },
    {
      "channel": 2,
      "note": 71,
      "start": 54.9261,
      "duration": 0.057,
      "velocity": 113,
      "chip": "ym2612"
    },
    {
      "channel": 1,
      "note": 72,
      "start": 54.9818,
      "duration": 0.0576,
      "velocity": 113,
      "chip": "ym2612"
    },
    {
      "channel": 2,
      "note": 67,
      "start": 54.9831,
      "duration": 0.1559,
      "velocity": 113,
      "chip": "ym2612"
    },
    {
      "channel": 1,
      "note": 67,
      "start": 55.0395,
      "duration": 0.1997,
      "velocity": 113,
      "chip": "ym2612"
    },
    {
      "channel": 3,
      "note": 60,
      "start": 55.0396,
      "duration": 0.2009,
      "velocity": 98,
      "chip": "ym2612"
    },
    {
      "channel": 4,
      "note": 40,
      "start": 55.0397,
      "duration": 0.1394,
      "velocity": 105,
      "chip": "ym2612"
    },
    {
      "channel": 2,
      "note": 72,
      "start": 55.1391,
      "duration": 0.1014,
      "velocity": 113,
      "chip": "ym2612"
    },
    {
      "channel": 1,
      "note": 71,
      "start": 55.2391,
      "duration": 0.009,
      "velocity": 113,
      "chip": "ym2612"
    },
    {
      "channel": 4,
      "note": 40,
      "start": 55.2393,
      "duration": 0.0657,
      "velocity": 105,
      "chip": "ym2612"
    },
    {
      "channel": 2,
      "note": 67,
      "start": 55.2405,
      "duration": 0.009,
      "velocity": 113,
      "chip": "ym2612"
    },
    {
      "channel": 0,
      "note": 41,
      "start": 55.2481,
      "duration": 0.6591,
      "velocity": 120,
      "chip": "ym2612"
    },
    {
      "channel": 1,
      "note": 67,
      "start": 55.2482,
      "duration": 0.0769,
      "velocity": 113,
      "chip": "ym2612"
    },
    {
      "channel": 3,
      "note": 60,
      "start": 55.2483,
      "duration": 0.6372,
      "velocity": 98,
      "chip": "ym2612"
    },
    {
      "channel": 2,
      "note": 71,
      "start": 55.2495,
      "duration": 0.0768,
      "velocity": 113,
      "chip": "ym2612"
    },
    {
      "channel": 1,
      "note": 65,
      "start": 55.3251,
      "duration": 0.0572,
      "velocity": 113,
      "chip": "ym2612"
    },
    {
      "channel": 4,
      "note": 41,
      "start": 55.3254,
      "duration": 0.117,
      "velocity": 105,
      "chip": "ym2612"
    },
    {
      "channel": 2,
      "note": 67,
      "start": 55.3263,
      "duration": 0.156,
      "velocity": 113,
      "chip": "ym2612"
    },
    {
      "channel": 1,
      "note": 65,
      "start": 55.3824,
      "duration": 0.1801,
      "velocity": 113,
      "chip": "ym2612"
    },
    {
      "channel": 2,
      "note": 65,
      "start": 55.4824,
      "duration": 0.0815,
      "velocity": 113,
      "chip": "ym2612"
    },
    {
      "channel": 1,
      "note": 69,
      "start": 55.5625,
      "duration": 0.0285,
      "velocity": 113,
      "chip": "ym2612"
    },
    {
      "channel": 4,
      "note": 41,
      "start": 55.5627,
      "duration": 0.0883,
      "velocity": 105,
      "chip": "ym2612"
    },
    {
      "channel": 2,
      "note": 65,
      "start": 55.5639,
      "duration": 0.107,
      "velocity": 113,
      "chip": "ym2612"
    },
    {
      "channel": 1,
      "note": 65,
      "start": 55.591,
      "duration": 0.1801,
      "velocity": 113,
      "chip": "ym2612"
    },
    {
      "channel": 2,
      "note": 69,
      "start": 55.671,
      "duration": 0.1015,
      "velocity": 113,
      "chip": "ym2612"
    },
    {
      "channel": 1,
      "note": 71,
      "start": 55.7711,
      "duration": 0.0573,
      "velocity": 113,
      "chip": "ym2612"
    },
    {
      "channel": 4,
      "note": 41,
      "start": 55.7713,
      "duration": 0.002,
      "velocity": 105,
      "chip": "ym2612"
    },
    {
      "channel": 2,
      "note": 65,
      "start": 55.7724,
      "duration": 0.0572,
      "velocity": 113,
      "chip": "ym2612"
    },
    {
      "channel": 1,
      "note": 65,
      "start": 55.8283,
      "duration": 0.0772,
      "velocity": 113,
      "chip": "ym2612"
    },
    {
      "channel": 4,
      "note": 41,
      "start": 55.8285,
      "duration": 0.002,
      "velocity": 105,
      "chip": "ym2612"
    },
    {
      "channel": 2,
      "note": 71,
      "start": 55.8297,
      "duration": 0.0771,
      "velocity": 113,
      "chip": "ym2612"
    },
    {
      "channel": 1,
      "note": 72,
      "start": 55.9055,
      "duration": 0.009,
      "velocity": 113,
      "chip": "ym2612"
    },
    {
      "channel": 4,
      "note": 41,
      "start": 55.9056,
      "duration": 0.0012,
      "velocity": 105,
      "chip": "ym2612"
    },
    {
      "channel": 2,
      "note": 65,
      "start": 55.9068,
      "duration": 0.0091,
      "velocity": 113,
      "chip": "ym2612"
    },
    {
      "channel": 0,
      "note": 41,
      "start": 55.9145,
      "duration": 0.3433,
      "velocity": 120,
      "chip": "ym2612"
    },
    {
      "channel": 1,
      "note": 65,
      "start": 55.9146,
      "duration": 0.0767,
      "velocity": 113,
      "chip": "ym2612"
    },
    {
      "channel": 3,
      "note": 60,
      "start": 55.9147,
      "duration": 0.294,
      "velocity": 98,
      "chip": "ym2612"
    },
    {
      "channel": 4,
      "note": 41,
      "start": 55.9148,
      "duration": 0.0766,
      "velocity": 105,
      "chip": "ym2612"
    },
    {
      "channel": 2,
      "note": 72,
      "start": 55.9159,
      "duration": 0.1554,
      "velocity": 113,
      "chip": "ym2612"
    },
    {
      "channel": 1,
      "note": 65,
      "start": 55.9914,
      "duration": 0.18,
      "velocity": 113,
      "chip": "ym2612"
    },
    {
      "channel": 2,
      "note": 65,
      "start": 56.0714,
      "duration": 0.1015,
      "velocity": 113,
      "chip": "ym2612"
    },
    {
      "channel": 1,
      "note": 65,
      "start": 56.1715,
      "duration": 0.0575,
      "velocity": 113,
      "chip": "ym2612"
    },
    {
      "channel": 4,
      "note": 41,
      "start": 56.1717,
      "duration": 0.0575,
      "velocity": 105,
      "chip": "ym2612"
    },
    {
      "channel": 2,
      "note": 65,
      "start": 56.1729,
      "duration": 0.0576,
      "velocity": 113,
      "chip": "ym2612"
    },
    {
      "channel": 1,
      "note": 72,
      "start": 56.229,
      "duration": 0.0288,
      "velocity": 113,
      "chip": "ym2612"
    },
    {
      "channel": 3,
      "note": 62,
      "start": 56.2291,
      "duration": 0.0022,
      "velocity": 98,
      "chip": "ym2612"
    },
    {
      "channel": 4,
      "note": 43,
      "start": 56.2292,
      "duration": 0.0288,
      "velocity": 105,
      "chip": "ym2612"
    },
    {
      "channel": 2,
      "note": 65,
      "start": 56.2305,
      "duration": 0.0287,
      "velocity": 113,
      "chip": "ym2612"
    },
    {
      "channel": 0,
      "note": 45,
      "start": 56.2578,
      "duration": 0.3231,
      "velocity": 120,
      "chip": "ym2612"
    },
    {
      "channel": 1,
      "note": 64,
      "start": 56.2579,
      "duration": 0.0568,
      "velocity": 113,
      "chip": "ym2612"
    },
    {
      "channel": 3,
      "note": 64,
      "start": 56.258,
      "duration": 0.1341,
      "velocity": 98,
      "chip": "ym2612"
    },
    {
      "channel": 4,
      "note": 45,
      "start": 56.258,
      "duration": 0.0567,
      "velocity": 105,
      "chip": "ym2612"
    },
    {
      "channel": 2,
      "note": 72,
      "start": 56.2592,
      "duration": 0.0567,
      "velocity": 113,
      "chip": "ym2612"
    },
    {
      "channel": 1,
      "note": 71,
      "start": 56.3146,
      "duration": 0.0774,
      "velocity": 113,
      "chip": "ym2612"
    },
    {
      "channel": 2,
      "note": 64,
      "start": 56.3159,
      "duration": 0.1559,
      "velocity": 113,
      "chip": "ym2612"
    },
    {
      "channel": 1,
      "note": 64,
      "start": 56.3921,
      "duration": 0.1801,
      "velocity": 113,
      "chip": "ym2612"
    },
    {
      "channel": 3,
      "note": 62,
      "start": 56.3922,
      "duration": 0.18,
      "velocity": 98,
      "chip": "ym2612"
    },
    {
      "channel": 4,
      "note": 45,
      "start": 56.3923,
      "duration": 0.0995,
      "velocity": 105,
      "chip": "ym2612"
    },
    {
      "channel": 2,
      "note": 71,
      "start": 56.4719,
      "duration": 0.1016,
      "velocity": 113,
      "chip": "ym2612"
    },
    {
      "channel": 1,
      "note": 69,
      "start": 56.5722,
      "duration": 0.0088,
      "velocity": 113,
      "chip": "ym2612"
    },
    {
      "channel": 3,
      "note": 60,
      "start": 56.5723,
      "duration": 0.0088,
      "velocity": 98,
      "chip": "ym2612"
    },
    {
      "channel": 4,
      "note": 45,
      "start": 56.5724,
      "duration": 0.0088,
      "velocity": 105,
      "chip": "ym2612"
    },
    {
      "channel": 2,
      "note": 64,
      "start": 56.5735,
      "duration": 0.0089,
      "velocity": 113,
      "chip": "ym2612"
    },
    {
      "channel": 0,
      "note": 43,
      "start": 56.5809,
      "duration": 0.6589,
      "velocity": 120,
      "chip": "ym2612"
    },
    {
      "channel": 1,
      "note": 64,
      "start": 56.5811,
      "duration": 0.0768,
      "velocity": 113,
      "chip": "ym2612"
    },
    {
      "channel": 3,
      "note": 62,
      "start": 56.5812,
      "duration": 0.9253,
      "velocity": 98,
      "chip": "ym2612"
    },
    {
      "channel": 4,
      "note": 43,
      "start": 56.5812,
      "duration": 0.0013,
      "velocity": 105,
      "chip": "ym2612"
    },
    {
      "channel": 2,
      "note": 69,
      "start": 56.5825,
      "duration": 0.0768,
      "velocity": 113,
      "chip": "ym2612"
    },
    {
      "channel": 1,
      "note": 62,
      "start": 56.6579,
      "duration": 0.0572,
      "velocity": 113,
      "chip": "ym2612"
    },
    {
      "channel": 4,
      "note": 43,
      "start": 56.6581,
      "duration": 0.1571,
      "velocity": 105,
      "chip": "ym2612"
    },
    {
      "channel": 2,
      "note": 64,
      "start": 56.6593,
      "duration": 0.1559,
      "velocity": 113,
      "chip": "ym2612"
    },
    {
      "channel": 1,
      "note": 67,
      "start": 56.7151,
      "duration": 0.2001,
      "velocity": 113,
      "chip": "ym2612"
    },
    {
      "channel": 2,
      "note": 62,
      "start": 56.8151,
      "duration": 0.1012,
      "velocity": 113,
      "chip": "ym2612"
    },
    {
      "channel": 1,
      "note": 69,
      "start": 56.9152,
      "duration": 0.0083,
      "velocity": 113,
      "chip": "ym2612"
    },
    {
      "channel": 4,
      "note": 43,
      "start": 56.9154,
      "duration": 0.0881,
      "velocity": 105,
      "chip": "ym2612"
    },
    {
      "channel": 2,
      "note": 67,
      "start": 56.9164,
      "duration": 0.1071,
      "velocity": 113,
      "chip": "ym2612"
    },
    {
      "channel": 1,
      "note": 62,
      "start": 56.9236,
      "duration": 0.1801,
      "velocity": 113,
      "chip": "ym2612"
    },
    {
      "channel": 2,
      "note": 69,
      "start": 57.0236,
      "duration": 0.0815,
      "velocity": 113,
      "chip": "ym2612"
    },
    {
      "channel": 1,
      "note": 71,
      "start": 57.1037,
      "duration": 0.0773,
      "velocity": 113,
      "chip": "ym2612"
    },
    {
      "channel": 4,
      "note": 43,
      "start": 57.1039,
      "duration": 0.0012,
      "velocity": 105,
      "chip": "ym2612"
    },
    {
      "channel": 2,
      "note": 62,
      "start": 57.1051,
      "duration": 0.0771,
      "velocity": 113,
      "chip": "ym2612"
    },
    {
      "channel": 1,
      "note": 62,
      "start": 57.181,
      "duration": 0.0572,
      "velocity": 113,
      "chip": "ym2612"
    },
    {
      "channel": 4,
      "note": 43,
      "start": 57.1812,
      "duration": 0.0578,
      "velocity": 105,
      "chip": "ym2612"
    },
    {
      "channel": 2,
      "note": 71,
      "start": 57.1821,
      "duration": 0.0574,
      "velocity": 113,
      "chip": "ym2612"
    },
    {
      "channel": 1,
      "note": 69,
      "start": 57.2382,
      "duration": 0.0288,
      "velocity": 113,
      "chip": "ym2612"
    },
    {
      "channel": 2,
      "note": 62,
      "start": 57.2395,
      "duration": 0.0288,
      "velocity": 113,
      "chip": "ym2612"
    },
    {
      "channel": 0,
      "note": 43,
      "start": 57.267,
      "duration": 0.4015,
      "velocity": 120,
      "chip": "ym2612"
    },
    {
      "channel": 1,
      "note": 62,
      "start": 57.2671,
      "duration": 0.057,
      "velocity": 113,
      "chip": "ym2612"
    },
    {
      "channel": 4,
      "note": 43,
      "start": 57.2672,
      "duration": 0.1169,
      "velocity": 105,
      "chip": "ym2612"
    },
    {
      "channel": 2,
      "note": 69,
      "start": 57.2683,
      "duration": 0.1557,
      "velocity": 113,
      "chip": "ym2612"
    },
    {
      "channel": 1,
      "note": 67,
      "start": 57.3241,
      "duration": 0.18,
      "velocity": 113,
      "chip": "ym2612"
    },
    {
      "channel": 2,
      "note": 62,
      "start": 57.4241,
      "duration": 0.0815,
      "velocity": 113,
      "chip": "ym2612"
    },
    {
      "channel": 1,
      "note": 62,
      "start": 57.5042,
      "duration": 0.0773,
      "velocity": 113,
      "chip": "ym2612"
    },
    {
      "channel": 4,
      "note": 43,
      "start": 57.5044,
      "duration": 0.017,
      "velocity": 105,
      "chip": "ym2612"
    },
    {
      "channel": 2,
      "note": 67,
      "start": 57.5056,
      "duration": 0.077,
      "velocity": 113,
      "chip": "ym2612"
    },
    {
      "channel": 3,
      "note": 62,
      "start": 57.5065,
      "duration": 0.1701,
      "velocity": 98,
      "chip": "ym2612"
    },
    {
      "channel": 1,
      "note": 69,
      "start": 57.5816,
      "duration": 0.0084,
      "velocity": 113,
      "chip": "ym2612"
    },
    {
      "channel": 4,
      "note": 43,
      "start": 57.5818,
      "duration": 0.0014,
      "velocity": 105,
      "chip": "ym2612"
    },
    {
      "channel": 2,
      "note": 62,
      "start": 57.5827,
      "duration": 0.0087,
      "velocity": 113,
      "chip": "ym2612"
    },
    {
      "channel": 1,
      "note": 62,
      "start": 57.59,
      "duration": 0.0773,
      "velocity": 113,
      "chip": "ym2612"
    },
    {
      "channel": 4,
      "note": 43,
      "start": 57.5902,
      "duration": 0.017,
      "velocity": 105,
      "chip": "ym2612"
    },
    {
      "channel": 2,
      "note": 69,
      "start": 57.5914,
      "duration": 0.0769,
      "velocity": 113,
      "chip": "ym2612"
    },
    {
      "channel": 1,
      "note": 71,
      "start": 57.6673,
      "duration": 0.0085,
      "velocity": 113,
      "chip": "ym2612"
    },
    {
      "channel": 4,
      "note": 43,
      "start": 57.6675,
      "duration": 0.0091,
      "velocity": 105,
      "chip": "ym2612"
    },
    {
      "channel": 2,
      "note": 62,
      "start": 57.6684,
      "duration": 0.0089,
      "velocity": 113,
      "chip": "ym2612"
    },
    {
      "channel": 0,
      "note": 43,
      "start": 57.6758,
      "duration": 0.1529,
      "velocity": 127,
      "chip": "ym2612"
    },
    {
      "channel": 1,
      "note": 62,
      "start": 57.6759,
      "duration": 0.0573,
      "velocity": 113,
      "chip": "ym2612"
    },
    {
      "channel": 2,
      "note": 71,
      "start": 57.6772,
      "duration": 0.0572,
      "velocity": 113,
      "chip": "ym2612"
    },
    {
      "channel": 1,
      "note": 74,
      "start": 57.7332,
      "duration": 0.0286,
      "velocity": 113,
      "chip": "ym2612"
    },
    {
      "channel": 4,
      "note": 43,
      "start": 57.7334,
      "duration": 0.0015,
      "velocity": 105,
      "chip": "ym2612"
    },
    {
      "channel": 2,
      "note": 62,
      "start": 57.7345,
      "duration": 0.0285,
      "velocity": 113,
      "chip": "ym2612"
    },
    {
      "channel": 1,
      "note": 62,
      "start": 57.7618,
      "duration": 0.0679,
      "velocity": 100,
      "chip": "ym2612"
    },
    {
      "channel": 4,
      "note": 43,
      "start": 57.7619,
      "duration": 0.0703,
      "velocity": 105,
      "chip": "ym2612"
    },
    {
      "channel": 2,
      "note": 74,
      "start": 57.7629,
      "duration": 0.0676,
      "velocity": 100,
      "chip": "ym2612"
    },
    {
      "channel": 0,
      "note": 45,
      "start": 57.8288,
      "duration": 71.8041,
      "velocity": 127,
      "chip": "ym2612"
    },
    {
      "channel": 3,
      "note": 69,
      "start": 57.8313,
      "duration": 0.0025,
      "velocity": 82,
      "chip": "ym2612"
    },
    {
      "channel": 4,
      "note": 45,
      "start": 57.8323,
      "duration": 0.0646,
      "velocity": 105,
      "chip": "ym2612"
    },
    {
      "channel": 3,
      "note": 64,
      "start": 57.8339,
      "duration": 0.0629,
      "velocity": 82,
      "chip": "ym2612"
    },
    {
      "channel": 3,
      "note": 57,
      "start": 57.8968,
      "duration": 0.0798,
      "velocity": 82,
      "chip": "ym2612"
    },
    {
      "channel": 4,
      "note": 45,
      "start": 57.8969,
      "duration": 71.736,
      "velocity": 105,
      "chip": "ym2612"
    },
    {
      "channel": 3,
      "note": 52,
      "start": 57.9767,
      "duration": 71.6562,
      "velocity": 82,
      "chip": "ym2612"
    }
  ]
}