{
  "track_name": "08 - Unknown (Sound Test 1)",
  "duration_sec": 30.106,
  "sample_rate": 44100,
  "note_count": 372,
  "unique_pitches": 24,
  "pitch_range": 56,
  "avg_note_duration": 0.2959,
  "reconstruction_stats": {
    "notes_reconstructed": 372,
    "keyon_events": 372,
    "keyoff_events": 328,
    "orphan_keyons": 0,
    "unique_pitches": 24,
    "pitch_range": 56,
    "avg_duration_sec": 0.2959
  },
  "metadata": {
    "source": "J\\Junction\\08 - Unknown (Sound Test 1).vgz"
  },
  "notes": [
    {
      "channel": 1,
      "note": 79,
      "start": 0.0,
      "duration": 0.1907,
      "velocity": 90,
      "chip": "ym2612"
    },
    {
      "channel": 2,
      "note": 76,
      "start": 0.0066,
      "duration": 0.1845,
      "velocity": 90,
      "chip": "ym2612"
    },
    {
      "channel": 3,
      "note": 74,
      "start": 0.0135,
      "duration": 0.1779,
      "velocity": 90,
      "chip": "ym2612"
    },
    {
      "channel": 4,
      "note": 57,
      "start": 0.0206,
      "duration": 0.1712,
      "velocity": 87,
      "chip": "ym2612"
    },
    {
      "channel": 5,
      "note": 37,
      "start": 0.0273,
      "duration": 0.165,
      "velocity": 121,
      "chip": "ym2612"
    },
    {
      "channel": 5,
      "note": 61,
      "start": 0.4046,
      "duration": 0.1571,
      "velocity": 127,
      "chip": "ym2612"
    },
    {
      "channel": 1,
      "note": 79,
      "start": 0.5873,
      "duration": 0.1595,
      "velocity": 90,
      "chip": "ym2612"
    },
    {
      "channel": 2,
      "note": 76,
      "start": 0.5883,
      "duration": 0.1589,
      "velocity": 90,
      "chip": "ym2612"
    },
    {
      "channel": 3,
      "note": 74,
      "start": 0.5892,
      "duration": 0.1583,
      "velocity": 90,
      "chip": "ym2612"
    },
    {
      "channel": 4,
      "note": 57,
      "start": 0.5902,
      "duration": 0.1578,
      "velocity": 87,
      "chip": "ym2612"
    },
    {
      "channel": 5,
      "note": 37,
      "start": 0.595,
      "duration": 0.1534,
      "velocity": 121,
      "chip": "ym2612"
    },
    {
      "channel": 1,
      "note": 79,
      "start": 0.9579,
      "duration": 0.5558,
      "velocity": 90,
      "chip": "ym2612"
    },
    {
      "channel": 2,
      "note": 76,
      "start": 0.9588,
      "duration": 0.5558,
      "velocity": 90,
      "chip": "ym2612"
    },
    {
      "channel": 3,
      "note": 74,
      "start": 0.9598,
      "duration": 0.5557,
      "velocity": 90,
      "chip": "ym2612"
    },
    {
      "channel": 4,
      "note": 45,
      "start": 0.961,
      "duration": 0.5561,
      "velocity": 87,
      "chip": "ym2612"
    },
    {
      "channel": 5,
      "note": 37,
      "start": 0.962,
      "duration": 0.1569,
      "velocity": 121,
      "chip": "ym2612"
    },
    {
      "channel": 5,
      "note": 61,
      "start": 1.1466,
      "duration": 0.1581,
      "velocity": 127,
      "chip": "ym2612"
    },
    {
      "channel": 1,
      "note": 79,
      "start": 1.5137,
      "duration": 1.087,
      "velocity": 90,
      "chip": "ym2612"
    },
    {
      "channel": 2,
      "note": 76,
      "start": 1.5146,
      "duration": 1.0865,
      "velocity": 90,
      "chip": "ym2612"
    },
    {
      "channel": 3,
      "note": 74,
      "start": 1.5156,
      "duration": 1.0859,
      "velocity": 90,
      "chip": "ym2612"
    },
    {
      "channel": 4,
      "note": 45,
      "start": 1.5171,
      "duration": 0.7137,
      "velocity": 87,
      "chip": "ym2612"
    },
    {
      "channel": 5,
      "note": 37,
      "start": 1.5232,
      "duration": 0.1517,
      "velocity": 121,
      "chip": "ym2612"
    },
    {
      "channel": 5,
      "note": 37,
      "start": 1.6989,
      "duration": 0.1614,
      "velocity": 121,
      "chip": "ym2612"
    },
    {
      "channel": 5,
      "note": 61,
      "start": 2.0741,
      "duration": 0.1571,
      "velocity": 127,
      "chip": "ym2612"
    },
    {
      "channel": 4,
      "note": 52,
      "start": 2.2553,
      "duration": 0.1609,
      "velocity": 87,
      "chip": "ym2612"
    },
    {
      "channel": 4,
      "note": 45,
      "start": 2.4402,
      "duration": 0.1617,
      "velocity": 87,
      "chip": "ym2612"
    },
    {
      "channel": 5,
      "note": 37,
      "start": 2.4449,
      "duration": 0.1578,
      "velocity": 121,
      "chip": "ym2612"
    },
    {
      "channel": 4,
      "note": 67,
      "start": 2.627,
      "duration": 0.1592,
      "velocity": 87,
      "chip": "ym2612"
    },
    {
      "channel": 5,
      "note": 61,
      "start": 2.6318,
      "duration": 0.1548,
      "velocity": 127,
      "chip": "ym2612"
    },
    {
      "channel": 1,
      "note": 79,
      "start": 2.8117,
      "duration": 0.1597,
      "velocity": 90,
      "chip": "ym2612"
    },
    {
      "channel": 2,
      "note": 76,
      "start": 2.8127,
      "duration": 0.1592,
      "velocity": 90,
      "chip": "ym2612"
    },
    {
      "channel": 3,
      "note": 74,
      "start": 2.8137,
      "duration": 0.1586,
      "velocity": 90,
      "chip": "ym2612"
    },
    {
      "channel": 4,
      "note": 69,
      "start": 2.8148,
      "duration": 0.1579,
      "velocity": 87,
      "chip": "ym2612"
    },
    {
      "channel": 5,
      "note": 37,
      "start": 2.8201,
      "duration": 0.1529,
      "velocity": 121,
      "chip": "ym2612"
    },
    {
      "channel": 1,
      "note": 79,
      "start": 2.9971,
      "duration": 0.1598,
      "velocity": 90,
      "chip": "ym2612"
    },
    {
      "channel": 2,
      "note": 74,
      "start": 2.9981,
      "duration": 0.1592,
      "velocity": 90,
      "chip": "ym2612"
    },
    {
      "channel": 3,
      "note": 71,
      "start": 2.9991,
      "duration": 0.1586,
      "velocity": 90,
      "chip": "ym2612"
    },
    {
      "channel": 4,
      "note": 50,
      "start": 3.0004,
      "duration": 0.342,
      "velocity": 87,
      "chip": "ym2612"
    },
    {
      "channel": 5,
      "note": 37,
      "start": 3.0063,
      "duration": 0.1521,
      "velocity": 121,
      "chip": "ym2612"
    },
    {
      "channel": 5,
      "note": 61,
      "start": 3.3727,
      "duration": 0.1552,
      "velocity": 127,
      "chip": "ym2612"
    },
    {
      "channel": 1,
      "note": 79,
      "start": 3.5516,
      "duration": 0.1615,
      "velocity": 90,
      "chip": "ym2612"
    },
    {
      "channel": 2,
      "note": 74,
      "start": 3.553,
      "duration": 0.1604,
      "velocity": 90,
      "chip": "ym2612"
    },
    {
      "channel": 3,
      "note": 71,
      "start": 3.5541,
      "duration": 0.1597,
      "velocity": 90,
      "chip": "ym2612"
    },
    {
      "channel": 4,
      "note": 57,
      "start": 3.5551,
      "duration": 0.3434,
      "velocity": 87,
      "chip": "ym2612"
    },
    {
      "channel": 5,
      "note": 37,
      "start": 3.56,
      "duration": 0.1545,
      "velocity": 121,
      "chip": "ym2612"
    },
    {
      "channel": 1,
      "note": 78,
      "start": 3.9241,
      "duration": 0.5558,
      "velocity": 90,
      "chip": "ym2612"
    },
    {
      "channel": 2,
      "note": 74,
      "start": 3.925,
      "duration": 0.5558,
      "velocity": 90,
      "chip": "ym2612"
    },
    {
      "channel": 3,
      "note": 69,
      "start": 3.9261,
      "duration": 0.5557,
      "velocity": 90,
      "chip": "ym2612"
    },
    {
      "channel": 4,
      "note": 50,
      "start": 3.9271,
      "duration": 0.5562,
      "velocity": 87,
      "chip": "ym2612"
    },
    {
      "channel": 5,
      "note": 37,
      "start": 3.9282,
      "duration": 0.1569,
      "velocity": 121,
      "chip": "ym2612"
    },
    {
      "channel": 5,
      "note": 61,
      "start": 4.1128,
      "duration": 0.1581,
      "velocity": 127,
      "chip": "ym2612"
    },
    {
      "channel": 1,
      "note": 78,
      "start": 4.4799,
      "duration": 1.087,
      "velocity": 90,
      "chip": "ym2612"
    },
    {
      "channel": 2,
      "note": 74,
      "start": 4.4808,
      "duration": 1.0864,
      "velocity": 90,
      "chip": "ym2612"
    },
    {
      "channel": 3,
      "note": 69,
      "start": 4.4818,
      "duration": 1.0859,
      "velocity": 90,
      "chip": "ym2612"
    },
    {
      "channel": 4,
      "note": 50,
      "start": 4.4833,
      "duration": 0.7137,
      "velocity": 87,
      "chip": "ym2612"
    },
    {
      "channel": 5,
      "note": 37,
      "start": 4.4889,
      "duration": 0.1522,
      "velocity": 121,
      "chip": "ym2612"
    },
    {
      "channel": 5,
      "note": 37,
      "start": 4.6651,
      "duration": 0.1614,
      "velocity": 121,
      "chip": "ym2612"
    },
    {
      "channel": 5,
      "note": 61,
      "start": 5.0402,
      "duration": 0.1572,
      "velocity": 127,
      "chip": "ym2612"
    },
    {
      "channel": 4,
      "note": 62,
      "start": 5.2217,
      "duration": 0.1607,
      "velocity": 87,
      "chip": "ym2612"
    },
    {
      "channel": 4,
      "note": 57,
      "start": 5.4063,
      "duration": 0.1617,
      "velocity": 87,
      "chip": "ym2612"
    },
    {
      "channel": 5,
      "note": 37,
      "start": 5.4112,
      "duration": 0.1573,
      "velocity": 121,
      "chip": "ym2612"
    },
    {
      "channel": 4,
      "note": 50,
      "start": 5.5931,
      "duration": 0.1587,
      "velocity": 87,
      "chip": "ym2612"
    },
    {
      "channel": 5,
      "note": 61,
      "start": 5.598,
      "duration": 0.1547,
      "velocity": 127,
      "chip": "ym2612"
    },
    {
      "channel": 4,
      "note": 55,
      "start": 5.7758,
      "duration": 0.1614,
      "velocity": 87,
      "chip": "ym2612"
    },
    {
      "channel": 5,
      "note": 61,
      "start": 5.7768,
      "duration": 0.1609,
      "velocity": 127,
      "chip": "ym2612"
    },
    {
      "channel": 1,
      "note": 79,
      "start": 5.9647,
      "duration": 0.1816,
      "velocity": 90,
      "chip": "ym2612"
    },
    {
      "channel": 2,
      "note": 76,
      "start": 5.9712,
      "duration": 0.3599,
      "velocity": 97,
      "chip": "ym2612"
    },
    {
      "channel": 4,
      "note": 57,
      "start": 5.9782,
      "duration": 0.169,
      "velocity": 87,
      "chip": "ym2612"
    },
    {
      "channel": 5,
      "note": 37,
      "start": 5.9834,
      "duration": 0.1642,
      "velocity": 121,
      "chip": "ym2612"
    },
    {
      "channel": 3,
      "note": 76,
      "start": 6.0782,
      "duration": 0.3456,
      "velocity": 96,
      "chip": "ym2612"
    },
    {
      "channel": 5,
      "note": 61,
      "start": 6.3597,
      "duration": 0.1569,
      "velocity": 127,
      "chip": "ym2612"
    },
    {
      "channel": 1,
      "note": 79,
      "start": 6.5427,
      "duration": 0.1603,
      "velocity": 90,
      "chip": "ym2612"
    },
    {
      "channel": 2,
      "note": 83,
      "start": 6.5437,
      "duration": 0.3434,
      "velocity": 97,
      "chip": "ym2612"
    },
    {
      "channel": 4,
      "note": 57,
      "start": 6.5448,
      "duration": 0.1592,
      "velocity": 87,
      "chip": "ym2612"
    },
    {
      "channel": 5,
      "note": 37,
      "start": 6.5496,
      "duration": 0.1547,
      "velocity": 121,
      "chip": "ym2612"
    },
    {
      "channel": 3,
      "note": 83,
      "start": 6.6348,
      "duration": 0.3461,
      "velocity": 96,
      "chip": "ym2612"
    },
    {
      "channel": 1,
      "note": 79,
      "start": 6.9135,
      "duration": 0.5563,
      "velocity": 90,
      "chip": "ym2612"
    },
    {
      "channel": 4,
      "note": 45,
      "start": 6.9154,
      "duration": 0.5584,
      "velocity": 87,
      "chip": "ym2612"
    },
    {
      "channel": 5,
      "note": 37,
      "start": 6.9163,
      "duration": 0.1576,
      "velocity": 121,
      "chip": "ym2612"
    },
    {
      "channel": 2,
      "note": 85,
      "start": 7.0974,
      "duration": 0.3735,
      "velocity": 97,
      "chip": "ym2612"
    },
    {
      "channel": 5,
      "note": 61,
      "start": 7.1032,
      "duration": 0.1566,
      "velocity": 127,
      "chip": "ym2612"
    },
    {
      "channel": 3,
      "note": 85,
      "start": 7.1908,
      "duration": 0.2814,
      "velocity": 96,
      "chip": "ym2612"
    },
    {
      "channel": 1,
      "note": 79,
      "start": 7.4698,
      "duration": 1.0865,
      "velocity": 90,
      "chip": "ym2612"
    },
    {
      "channel": 2,
      "note": 85,
      "start": 7.471,
      "duration": 0.7153,
      "velocity": 97,
      "chip": "ym2612"
    },
    {
      "channel": 3,
      "note": 85,
      "start": 7.4722,
      "duration": 0.7144,
      "velocity": 96,
      "chip": "ym2612"
    },
    {
      "channel": 4,
      "note": 45,
      "start": 7.4738,
      "duration": 0.7133,
      "velocity": 87,
      "chip": "ym2612"
    },
    {
      "channel": 5,
      "note": 37,
      "start": 7.4793,
      "duration": 0.1513,
      "velocity": 121,
      "chip": "ym2612"
    },
    {
      "channel": 5,
      "note": 37,
      "start": 7.655,
      "duration": 0.1609,
      "velocity": 121,
      "chip": "ym2612"
    },
    {
      "channel": 5,
      "note": 61,
      "start": 8.0291,
      "duration": 0.1584,
      "velocity": 127,
      "chip": "ym2612"
    },
    {
      "channel": 2,
      "note": 88,
      "start": 8.2098,
      "duration": 0.1614,
      "velocity": 97,
      "chip": "ym2612"
    },
    {
      "channel": 4,
      "note": 52,
      "start": 8.2118,
      "duration": 0.16,
      "velocity": 87,
      "chip": "ym2612"
    },
    {
      "channel": 3,
      "note": 88,
      "start": 8.3036,
      "duration": 0.1606,
      "velocity": 96,
      "chip": "ym2612"
    },
    {
      "channel": 2,
      "note": 85,
      "start": 8.3951,
      "duration": 0.1615,
      "velocity": 97,
      "chip": "ym2612"
    },
    {
      "channel": 4,
      "note": 45,
      "start": 8.3964,
      "duration": 0.161,
      "velocity": 87,
      "chip": "ym2612"
    },
    {
      "channel": 5,
      "note": 37,
      "start": 8.4012,
      "duration": 0.1565,
      "velocity": 121,
      "chip": "ym2612"
    },
    {
      "channel": 3,
      "note": 85,
      "start": 8.4887,
      "duration": 0.16,
      "velocity": 96,
      "chip": "ym2612"
    },
    {
      "channel": 2,
      "note": 83,
      "start": 8.5815,
      "duration": 0.1596,
      "velocity": 97,
      "chip": "ym2612"
    },
    {
      "channel": 4,
      "note": 67,
      "start": 8.5829,
      "duration": 0.1589,
      "velocity": 87,
      "chip": "ym2612"
    },
    {
      "channel": 5,
      "note": 61,
      "start": 8.5882,
      "duration": 0.1539,
      "velocity": 127,
      "chip": "ym2612"
    },
    {
      "channel": 3,
      "note": 83,
      "start": 8.673,
      "duration": 0.162,
      "velocity": 96,
      "chip": "ym2612"
    },
    {
      "channel": 1,
      "note": 79,
      "start": 8.7673,
      "duration": 0.1597,
      "velocity": 90,
      "chip": "ym2612"
    },
    {
      "channel": 2,
      "note": 85,
      "start": 8.7683,
      "duration": 0.1592,
      "velocity": 97,
      "chip": "ym2612"
    },
    {
      "channel": 4,
      "note": 69,
      "start": 8.7702,
      "duration": 0.1581,
      "velocity": 87,
      "chip": "ym2612"
    },
    {
      "channel": 5,
      "note": 37,
      "start": 8.775,
      "duration": 0.1536,
      "velocity": 121,
      "chip": "ym2612"
    },
    {
      "channel": 3,
      "note": 85,
      "start": 8.8592,
      "duration": 0.0686,
      "velocity": 96,
      "chip": "ym2612"
    },
    {
      "channel": 1,
      "note": 79,
      "start": 8.9532,
      "duration": 0.1592,
      "velocity": 90,
      "chip": "ym2612"
    },
    {
      "channel": 2,
      "note": 83,
      "start": 8.9545,
      "duration": 0.5281,
      "velocity": 97,
      "chip": "ym2612"
    },
    {
      "channel": 4,
      "note": 50,
      "start": 8.9563,
      "duration": 0.3415,
      "velocity": 87,
      "chip": "ym2612"
    },
    {
      "channel": 5,
      "note": 37,
      "start": 8.9617,
      "duration": 0.152,
      "velocity": 121,
      "chip": "ym2612"
    },
    {
      "channel": 3,
      "note": 83,
      "start": 9.0445,
      "duration": 0.532,
      "velocity": 96,
      "chip": "ym2612"
    },
    {
      "channel": 5,
      "note": 61,
      "start": 9.3262,
      "duration": 0.1572,
      "velocity": 127,
      "chip": "ym2612"
    },
    {
      "channel": 1,
      "note": 79,
      "start": 9.5089,
      "duration": 0.1597,
      "velocity": 90,
      "chip": "ym2612"
    },
    {
      "channel": 2,
      "note": 81,
      "start": 9.5098,
      "duration": 0.5538,
      "velocity": 97,
      "chip": "ym2612"
    },
    {
      "channel": 4,
      "note": 57,
      "start": 9.5112,
      "duration": 0.3427,
      "velocity": 87,
      "chip": "ym2612"
    },
    {
      "channel": 5,
      "note": 37,
      "start": 9.5161,
      "duration": 0.1543,
      "velocity": 121,
      "chip": "ym2612"
    },
    {
      "channel": 3,
      "note": 81,
      "start": 9.6009,
      "duration": 0.5562,
      "velocity": 96,
      "chip": "ym2612"
    },
    {
      "channel": 1,
      "note": 78,
      "start": 9.8797,
      "duration": 0.5563,
      "velocity": 90,
      "chip": "ym2612"
    },
    {
      "channel": 4,
      "note": 50,
      "start": 9.8814,
      "duration": 0.5586,
      "velocity": 87,
      "chip": "ym2612"
    },
    {
      "channel": 5,
      "note": 37,
      "start": 9.8824,
      "duration": 0.1582,
      "velocity": 121,
      "chip": "ym2612"
    },
    {
      "channel": 2,
      "note": 81,
      "start": 10.0637,
      "duration": 0.3735,
      "velocity": 97,
      "chip": "ym2612"
    },
    {
      "channel": 5,
      "note": 61,
      "start": 10.0696,
      "duration": 0.1564,
      "velocity": 127,
      "chip": "ym2612"
    },
    {
      "channel": 3,
      "note": 81,
      "start": 10.1571,
      "duration": 0.2814,
      "velocity": 96,
      "chip": "ym2612"
    },
    {
      "channel": 1,
      "note": 78,
      "start": 10.436,
      "duration": 1.0865,
      "velocity": 90,
      "chip": "ym2612"
    },
    {
      "channel": 2,
      "note": 81,
      "start": 10.4372,
      "duration": 0.7148,
      "velocity": 97,
      "chip": "ym2612"
    },
    {
      "channel": 3,
      "note": 81,
      "start": 10.4385,
      "duration": 0.7144,
      "velocity": 96,
      "chip": "ym2612"
    },
    {
      "channel": 4,
      "note": 50,
      "start": 10.44,
      "duration": 0.7133,
      "velocity": 87,
      "chip": "ym2612"
    },
    {
      "channel": 5,
      "note": 37,
      "start": 10.4451,
      "duration": 0.1517,
      "velocity": 121,
      "chip": "ym2612"
    },
    {
      "channel": 5,
      "note": 37,
      "start": 10.6212,
      "duration": 0.1609,
      "velocity": 121,
      "chip": "ym2612"
    },
    {
      "channel": 5,
      "note": 61,
      "start": 10.9953,
      "duration": 0.1584,
      "velocity": 127,
      "chip": "ym2612"
    },
    {
      "channel": 2,
      "note": 81,
      "start": 11.1759,
      "duration": 0.1615,
      "velocity": 97,
      "chip": "ym2612"
    },
    {
      "channel": 4,
      "note": 50,
      "start": 11.1773,
      "duration": 0.1608,
      "velocity": 87,
      "chip": "ym2612"
    },
    {
      "channel": 3,
      "note": 81,
      "start": 11.2698,
      "duration": 0.1606,
      "velocity": 96,
      "chip": "ym2612"
    },
    {
      "channel": 2,
      "note": 74,
      "start": 11.3615,
      "duration": 0.1614,
      "velocity": 97,
      "chip": "ym2612"
    },
    {
      "channel": 4,
      "note": 54,
      "start": 11.3628,
      "duration": 0.1608,
      "velocity": 87,
      "chip": "ym2612"
    },
    {
      "channel": 5,
      "note": 37,
      "start": 11.3676,
      "duration": 0.1564,
      "velocity": 121,
      "chip": "ym2612"
    },
    {
      "channel": 3,
      "note": 74,
      "start": 11.4553,
      "duration": 0.1596,
      "velocity": 96,
      "chip": "ym2612"
    },
    {
      "channel": 2,
      "note": 76,
      "start": 11.5476,
      "duration": 0.1597,
      "velocity": 97,
      "chip": "ym2612"
    },
    {
      "channel": 4,
      "note": 57,
      "start": 11.5491,
      "duration": 0.1589,
      "velocity": 87,
      "chip": "ym2612"
    },
    {
      "channel": 5,
      "note": 61,
      "start": 11.5544,
      "duration": 0.1539,
      "velocity": 127,
      "chip": "ym2612"
    },
    {
      "channel": 3,
      "note": 76,
      "start": 11.6392,
      "duration": 0.1611,
      "velocity": 96,
      "chip": "ym2612"
    },
    {
      "channel": 2,
      "note": 81,
      "start": 11.7314,
      "duration": 0.1613,
      "velocity": 97,
      "chip": "ym2612"
    },
    {
      "channel": 4,
      "note": 59,
      "start": 11.7327,
      "duration": 0.1608,
      "velocity": 87,
      "chip": "ym2612"
    },
    {
      "channel": 5,
      "note": 61,
      "start": 11.7337,
      "duration": 0.1602,
      "velocity": 127,
      "chip": "ym2612"
    },
    {
      "channel": 3,
      "note": 81,
      "start": 11.8247,
      "duration": 0.0684,
      "velocity": 96,
      "chip": "ym2612"
    },
    {
      "channel": 1,
      "note": 79,
      "start": 11.9204,
      "duration": 0.1583,
      "velocity": 90,
      "chip": "ym2612"
    },
    {
      "channel": 2,
      "note": 71,
      "start": 11.9215,
      "duration": 0.3419,
      "velocity": 97,
      "chip": "ym2612"
    },
    {
      "channel": 4,
      "note": 57,
      "start": 11.9233,
      "duration": 0.1563,
      "velocity": 87,
      "chip": "ym2612"
    },
    {
      "channel": 5,
      "note": 37,
      "start": 11.9285,
      "duration": 0.1516,
      "velocity": 121,
      "chip": "ym2612"
    },
    {
      "channel": 3,
      "note": 71,
      "start": 12.0105,
      "duration": 0.3457,
      "velocity": 96,
      "chip": "ym2612"
    },
    {
      "channel": 5,
      "note": 61,
      "start": 12.2921,
      "duration": 0.1569,
      "velocity": 127,
      "chip": "ym2612"
    },
    {
      "channel": 1,
      "note": 79,
      "start": 12.4751,
      "duration": 0.1597,
      "velocity": 90,
      "chip": "ym2612"
    },
    {
      "channel": 2,
      "note": 76,
      "start": 12.4761,
      "duration": 0.3437,
      "velocity": 97,
      "chip": "ym2612"
    },
    {
      "channel": 4,
      "note": 57,
      "start": 12.4771,
      "duration": 0.1592,
      "velocity": 87,
      "chip": "ym2612"
    },
    {
      "channel": 5,
      "note": 37,
      "start": 12.4819,
      "duration": 0.1549,
      "velocity": 121,
      "chip": "ym2612"
    },
    {
      "channel": 3,
      "note": 76,
      "start": 12.567,
      "duration": 0.3462,
      "velocity": 96,
      "chip": "ym2612"
    },
    {
      "channel": 1,
      "note": 79,
      "start": 12.8459,
      "duration": 0.5558,
      "velocity": 90,
      "chip": "ym2612"
    },
    {
      "channel": 4,
      "note": 45,
      "start": 12.8478,
      "duration": 0.5578,
      "velocity": 87,
      "chip": "ym2612"
    },
    {
      "channel": 5,
      "note": 37,
      "start": 12.8488,
      "duration": 0.1576,
      "velocity": 121,
      "chip": "ym2612"
    },
    {
      "channel": 2,
      "note": 79,
      "start": 13.0299,
      "duration": 0.3732,
      "velocity": 97,
      "chip": "ym2612"
    },
    {
      "channel": 5,
      "note": 61,
      "start": 13.035,
      "duration": 0.1571,
      "velocity": 127,
      "chip": "ym2612"
    },
    {
      "channel": 3,
      "note": 79,
      "start": 13.1232,
      "duration": 0.2809,
      "velocity": 96,
      "chip": "ym2612"
    },
    {
      "channel": 1,
      "note": 79,
      "start": 13.4017,
      "duration": 1.087,
      "velocity": 90,
      "chip": "ym2612"
    },
    {
      "channel": 2,
      "note": 79,
      "start": 13.4031,
      "duration": 0.7151,
      "velocity": 97,
      "chip": "ym2612"
    },
    {
      "channel": 3,
      "note": 79,
      "start": 13.4041,
      "duration": 0.7146,
      "velocity": 96,
      "chip": "ym2612"
    },
    {
      "channel": 4,
      "note": 45,
      "start": 13.4056,
      "duration": 0.7139,
      "velocity": 87,
      "chip": "ym2612"
    },
    {
      "channel": 5,
      "note": 37,
      "start": 13.411,
      "duration": 0.1519,
      "velocity": 121,
      "chip": "ym2612"
    },
    {
      "channel": 5,
      "note": 37,
      "start": 13.5874,
      "duration": 0.1609,
      "velocity": 121,
      "chip": "ym2612"
    },
    {
      "channel": 5,
      "note": 61,
      "start": 13.9616,
      "duration": 0.1584,
      "velocity": 127,
      "chip": "ym2612"
    },
    {
      "channel": 2,
      "note": 79,
      "start": 14.1422,
      "duration": 0.1617,
      "velocity": 97,
      "chip": "ym2612"
    },
    {
      "channel": 4,
      "note": 52,
      "start": 14.1442,
      "duration": 0.1604,
      "velocity": 87,
      "chip": "ym2612"
    },
    {
      "channel": 3,
      "note": 79,
      "start": 14.2361,
      "duration": 0.1605,
      "velocity": 96,
      "chip": "ym2612"
    },
    {
      "channel": 2,
      "note": 78,
      "start": 14.3275,
      "duration": 0.1615,
      "velocity": 97,
      "chip": "ym2612"
    },
    {
      "channel": 4,
      "note": 45,
      "start": 14.3288,
      "duration": 0.1609,
      "velocity": 87,
      "chip": "ym2612"
    },
    {
      "channel": 5,
      "note": 37,
      "start": 14.3336,
      "duration": 0.1566,
      "velocity": 121,
      "chip": "ym2612"
    },
    {
      "channel": 3,
      "note": 78,
      "start": 14.4214,
      "duration": 0.1597,
      "velocity": 96,
      "chip": "ym2612"
    },
    {
      "channel": 2,
      "note": 79,
      "start": 14.5139,
      "duration": 0.1597,
      "velocity": 97,
      "chip": "ym2612"
    },
    {
      "channel": 4,
      "note": 67,
      "start": 14.5153,
      "duration": 0.1589,
      "velocity": 87,
      "chip": "ym2612"
    },
    {
      "channel": 5,
      "note": 61,
      "start": 14.5207,
      "duration": 0.1539,
      "velocity": 127,
      "chip": "ym2612"
    },
    {
      "channel": 3,
      "note": 79,
      "start": 14.6054,
      "duration": 0.162,
      "velocity": 96,
      "chip": "ym2612"
    },
    {
      "channel": 1,
      "note": 79,
      "start": 14.6997,
      "duration": 0.1598,
      "velocity": 90,
      "chip": "ym2612"
    },
    {
      "channel": 2,
      "note": 81,
      "start": 14.7009,
      "duration": 0.159,
      "velocity": 97,
      "chip": "ym2612"
    },
    {
      "channel": 4,
      "note": 69,
      "start": 14.7028,
      "duration": 0.1579,
      "velocity": 87,
      "chip": "ym2612"
    },
    {
      "channel": 5,
      "note": 37,
      "start": 14.7076,
      "duration": 0.1535,
      "velocity": 121,
      "chip": "ym2612"
    },
    {
      "channel": 3,
      "note": 81,
      "start": 14.7918,
      "duration": 0.0685,
      "velocity": 96,
      "chip": "ym2612"
    },
    {
      "channel": 1,
      "note": 79,
      "start": 14.8851,
      "duration": 0.1598,
      "velocity": 90,
      "chip": "ym2612"
    },
    {
      "channel": 2,
      "note": 81,
      "start": 14.8869,
      "duration": 0.5282,
      "velocity": 97,
      "chip": "ym2612"
    },
    {
      "channel": 4,
      "note": 50,
      "start": 14.8887,
      "duration": 0.3415,
      "velocity": 87,
      "chip": "ym2612"
    },
    {
      "channel": 5,
      "note": 37,
      "start": 14.8941,
      "duration": 0.152,
      "velocity": 121,
      "chip": "ym2612"
    },
    {
      "channel": 3,
      "note": 81,
      "start": 14.9769,
      "duration": 0.5321,
      "velocity": 96,
      "chip": "ym2612"
    },
    {
      "channel": 5,
      "note": 61,
      "start": 15.2588,
      "duration": 0.1571,
      "velocity": 127,
      "chip": "ym2612"
    },
    {
      "channel": 1,
      "note": 79,
      "start": 15.4413,
      "duration": 0.1597,
      "velocity": 90,
      "chip": "ym2612"
    },
    {
      "channel": 2,
      "note": 78,
      "start": 15.4424,
      "duration": 0.5537,
      "velocity": 97,
      "chip": "ym2612"
    },
    {
      "channel": 4,
      "note": 57,
      "start": 15.4438,
      "duration": 0.3431,
      "velocity": 87,
      "chip": "ym2612"
    },
    {
      "channel": 5,
      "note": 37,
      "start": 15.4486,
      "duration": 0.1542,
      "velocity": 121,
      "chip": "ym2612"
    },
    {
      "channel": 3,
      "note": 78,
      "start": 15.5334,
      "duration": 0.5556,
      "velocity": 96,
      "chip": "ym2612"
    },
    {
      "channel": 1,
      "note": 78,
      "start": 15.8121,
      "duration": 0.5558,
      "velocity": 90,
      "chip": "ym2612"
    },
    {
      "channel": 4,
      "note": 50,
      "start": 15.8139,
      "duration": 0.5579,
      "velocity": 87,
      "chip": "ym2612"
    },
    {
      "channel": 5,
      "note": 37,
      "start": 15.8148,
      "duration": 0.1582,
      "velocity": 121,
      "chip": "ym2612"
    },
    {
      "channel": 2,
      "note": 78,
      "start": 15.9961,
      "duration": 0.3732,
      "velocity": 97,
      "chip": "ym2612"
    },
    {
      "channel": 5,
      "note": 61,
      "start": 16.0015,
      "duration": 0.1569,
      "velocity": 127,
      "chip": "ym2612"
    },
    {
      "channel": 3,
      "note": 78,
      "start": 16.0891,
      "duration": 0.2812,
      "velocity": 96,
      "chip": "ym2612"
    },
    {
      "channel": 1,
      "note": 78,
      "start": 16.3679,
      "duration": 1.087,
      "velocity": 90,
      "chip": "ym2612"
    },
    {
      "channel": 2,
      "note": 78,
      "start": 16.3693,
      "duration": 0.7151,
      "velocity": 97,
      "chip": "ym2612"
    },
    {
      "channel": 3,
      "note": 78,
      "start": 16.3703,
      "duration": 0.7145,
      "velocity": 96,
      "chip": "ym2612"
    },
    {
      "channel": 4,
      "note": 50,
      "start": 16.3718,
      "duration": 0.7134,
      "velocity": 87,
      "chip": "ym2612"
    },
    {
      "channel": 5,
      "note": 37,
      "start": 16.377,
      "duration": 0.1522,
      "velocity": 121,
      "chip": "ym2612"
    },
    {
      "channel": 5,
      "note": 37,
      "start": 16.5536,
      "duration": 0.161,
      "velocity": 121,
      "chip": "ym2612"
    },
    {
      "channel": 5,
      "note": 61,
      "start": 16.9278,
      "duration": 0.1583,
      "velocity": 127,
      "chip": "ym2612"
    },
    {
      "channel": 4,
      "note": 50,
      "start": 17.1093,
      "duration": 0.1611,
      "velocity": 87,
      "chip": "ym2612"
    },
    {
      "channel": 2,
      "note": 78,
      "start": 17.2938,
      "duration": 0.1615,
      "velocity": 97,
      "chip": "ym2612"
    },
    {
      "channel": 4,
      "note": 54,
      "start": 17.2951,
      "duration": 0.1608,
      "velocity": 87,
      "chip": "ym2612"
    },
    {
      "channel": 5,
      "note": 37,
      "start": 17.3,
      "duration": 0.1564,
      "velocity": 121,
      "chip": "ym2612"
    },
    {
      "channel": 3,
      "note": 78,
      "start": 17.3876,
      "duration": 0.1597,
      "velocity": 96,
      "chip": "ym2612"
    },
    {
      "channel": 2,
      "note": 79,
      "start": 17.4801,
      "duration": 0.1596,
      "velocity": 97,
      "chip": "ym2612"
    },
    {
      "channel": 4,
      "note": 57,
      "start": 17.4815,
      "duration": 0.1589,
      "velocity": 87,
      "chip": "ym2612"
    },
    {
      "channel": 5,
      "note": 61,
      "start": 17.4868,
      "duration": 0.154,
      "velocity": 127,
      "chip": "ym2612"
    },
    {
      "channel": 3,
      "note": 79,
      "start": 17.5716,
      "duration": 0.1611,
      "velocity": 96,
      "chip": "ym2612"
    },
    {
      "channel": 2,
      "note": 81,
      "start": 17.6639,
      "duration": 0.1612,
      "velocity": 97,
      "chip": "ym2612"
    },
    {
      "channel": 4,
      "note": 59,
      "start": 17.6651,
      "duration": 0.1607,
      "velocity": 87,
      "chip": "ym2612"
    },
    {
      "channel": 5,
      "note": 61,
      "start": 17.6661,
      "duration": 0.1602,
      "velocity": 127,
      "chip": "ym2612"
    },
    {
      "channel": 3,
      "note": 81,
      "start": 17.7571,
      "duration": 0.0684,
      "velocity": 96,
      "chip": "ym2612"
    },
    {
      "channel": 1,
      "note": 79,
      "start": 17.8528,
      "duration": 0.1583,
      "velocity": 90,
      "chip": "ym2612"
    },
    {
      "channel": 2,
      "note": 76,
      "start": 17.8539,
      "duration": 0.3419,
      "velocity": 97,
      "chip": "ym2612"
    },
    {
      "channel": 4,
      "note": 57,
      "start": 17.8558,
      "duration": 0.1563,
      "velocity": 87,
      "chip": "ym2612"
    },
    {
      "channel": 5,
      "note": 37,
      "start": 17.8609,
      "duration": 0.1516,
      "velocity": 121,
      "chip": "ym2612"
    },
    {
      "channel": 3,
      "note": 76,
      "start": 17.943,
      "duration": 0.3457,
      "velocity": 96,
      "chip": "ym2612"
    },
    {
      "channel": 5,
      "note": 61,
      "start": 18.225,
      "duration": 0.1564,
      "velocity": 127,
      "chip": "ym2612"
    },
    {
      "channel": 1,
      "note": 79,
      "start": 18.4075,
      "duration": 0.1598,
      "velocity": 90,
      "chip": "ym2612"
    },
    {
      "channel": 2,
      "note": 83,
      "start": 18.4086,
      "duration": 0.3434,
      "velocity": 97,
      "chip": "ym2612"
    },
    {
      "channel": 4,
      "note": 57,
      "start": 18.4097,
      "duration": 0.1586,
      "velocity": 87,
      "chip": "ym2612"
    },
    {
      "channel": 5,
      "note": 37,
      "start": 18.4144,
      "duration": 0.1542,
      "velocity": 121,
      "chip": "ym2612"
    },
    {
      "channel": 3,
      "note": 83,
      "start": 18.4996,
      "duration": 0.3461,
      "velocity": 96,
      "chip": "ym2612"
    },
    {
      "channel": 1,
      "note": 79,
      "start": 18.7783,
      "duration": 0.5558,
      "velocity": 90,
      "chip": "ym2612"
    },
    {
      "channel": 4,
      "note": 45,
      "start": 18.7802,
      "duration": 0.5584,
      "velocity": 87,
      "chip": "ym2612"
    },
    {
      "channel": 5,
      "note": 37,
      "start": 18.7812,
      "duration": 0.1576,
      "velocity": 121,
      "chip": "ym2612"
    },
    {
      "channel": 2,
      "note": 85,
      "start": 18.9623,
      "duration": 0.373,
      "velocity": 97,
      "chip": "ym2612"
    },
    {
      "channel": 5,
      "note": 61,
      "start": 18.9675,
      "duration": 0.1571,
      "velocity": 127,
      "chip": "ym2612"
    },
    {
      "channel": 3,
      "note": 85,
      "start": 19.0556,
      "duration": 0.2814,
      "velocity": 96,
      "chip": "ym2612"
    },
    {
      "channel": 1,
      "note": 79,
      "start": 19.3341,
      "duration": 1.087,
      "velocity": 90,
      "chip": "ym2612"
    },
    {
      "channel": 2,
      "note": 85,
      "start": 19.3353,
      "duration": 0.7153,
      "velocity": 97,
      "chip": "ym2612"
    },
    {
      "channel": 3,
      "note": 85,
      "start": 19.3371,
      "duration": 0.7139,
      "velocity": 96,
      "chip": "ym2612"
    },
    {
      "channel": 4,
      "note": 45,
      "start": 19.3386,
      "duration": 0.7129,
      "velocity": 87,
      "chip": "ym2612"
    },
    {
      "channel": 5,
      "note": 37,
      "start": 19.3441,
      "duration": 0.1513,
      "velocity": 121,
      "chip": "ym2612"
    },
    {
      "channel": 5,
      "note": 37,
      "start": 19.5198,
      "duration": 0.1609,
      "velocity": 121,
      "chip": "ym2612"
    },
    {
      "channel": 5,
      "note": 61,
      "start": 19.894,
      "duration": 0.1578,
      "velocity": 127,
      "chip": "ym2612"
    },
    {
      "channel": 2,
      "note": 88,
      "start": 20.0746,
      "duration": 0.1619,
      "velocity": 97,
      "chip": "ym2612"
    },
    {
      "channel": 4,
      "note": 52,
      "start": 20.0766,
      "duration": 0.1605,
      "velocity": 87,
      "chip": "ym2612"
    },
    {
      "channel": 3,
      "note": 88,
      "start": 20.1679,
      "duration": 0.1611,
      "velocity": 96,
      "chip": "ym2612"
    },
    {
      "channel": 2,
      "note": 85,
      "start": 20.26,
      "duration": 0.1615,
      "velocity": 97,
      "chip": "ym2612"
    },
    {
      "channel": 4,
      "note": 45,
      "start": 20.2612,
      "duration": 0.1609,
      "velocity": 87,
      "chip": "ym2612"
    },
    {
      "channel": 5,
      "note": 37,
      "start": 20.2661,
      "duration": 0.1565,
      "velocity": 121,
      "chip": "ym2612"
    },
    {
      "channel": 3,
      "note": 85,
      "start": 20.3539,
      "duration": 0.1597,
      "velocity": 96,
      "chip": "ym2612"
    },
    {
      "channel": 2,
      "note": 83,
      "start": 20.4463,
      "duration": 0.1596,
      "velocity": 97,
      "chip": "ym2612"
    },
    {
      "channel": 4,
      "note": 67,
      "start": 20.4477,
      "duration": 0.1589,
      "velocity": 87,
      "chip": "ym2612"
    },
    {
      "channel": 5,
      "note": 61,
      "start": 20.453,
      "duration": 0.154,
      "velocity": 127,
      "chip": "ym2612"
    },
    {
      "channel": 3,
      "note": 83,
      "start": 20.5378,
      "duration": 0.162,
      "velocity": 96,
      "chip": "ym2612"
    },
    {
      "channel": 1,
      "note": 79,
      "start": 20.6322,
      "duration": 0.1597,
      "velocity": 90,
      "chip": "ym2612"
    },
    {
      "channel": 2,
      "note": 85,
      "start": 20.6331,
      "duration": 0.1592,
      "velocity": 97,
      "chip": "ym2612"
    },
    {
      "channel": 4,
      "note": 69,
      "start": 20.6345,
      "duration": 0.1586,
      "velocity": 87,
      "chip": "ym2612"
    },
    {
      "channel": 5,
      "note": 37,
      "start": 20.6399,
      "duration": 0.1536,
      "velocity": 121,
      "chip": "ym2612"
    },
    {
      "channel": 3,
      "note": 85,
      "start": 20.724,
      "duration": 0.0686,
      "velocity": 96,
      "chip": "ym2612"
    },
    {
      "channel": 1,
      "note": 79,
      "start": 20.8175,
      "duration": 0.1598,
      "velocity": 90,
      "chip": "ym2612"
    },
    {
      "channel": 2,
      "note": 93,
      "start": 20.8195,
      "duration": 0.7144,
      "velocity": 97,
      "chip": "ym2612"
    },
    {
      "channel": 4,
      "note": 50,
      "start": 20.8214,
      "duration": 0.3413,
      "velocity": 87,
      "chip": "ym2612"
    },
    {
      "channel": 5,
      "note": 37,
      "start": 20.8268,
      "duration": 0.1516,
      "velocity": 121,
      "chip": "ym2612"
    },
    {
      "channel": 3,
      "note": 93,
      "start": 21.0035,
      "duration": 0.715,
      "velocity": 96,
      "chip": "ym2612"
    },
    {
      "channel": 5,
      "note": 61,
      "start": 21.1915,
      "duration": 0.1566,
      "velocity": 127,
      "chip": "ym2612"
    },
    {
      "channel": 1,
      "note": 79,
      "start": 21.3737,
      "duration": 0.1598,
      "velocity": 90,
      "chip": "ym2612"
    },
    {
      "channel": 4,
      "note": 57,
      "start": 21.3754,
      "duration": 0.344,
      "velocity": 87,
      "chip": "ym2612"
    },
    {
      "channel": 5,
      "note": 37,
      "start": 21.3802,
      "duration": 0.1546,
      "velocity": 121,
      "chip": "ym2612"
    },
    {
      "channel": 2,
      "note": 90,
      "start": 21.5588,
      "duration": 0.7427,
      "velocity": 97,
      "chip": "ym2612"
    },
    {
      "channel": 1,
      "note": 78,
      "start": 21.7445,
      "duration": 0.5558,
      "velocity": 90,
      "chip": "ym2612"
    },
    {
      "channel": 3,
      "note": 90,
      "start": 21.7463,
      "duration": 0.557,
      "velocity": 96,
      "chip": "ym2612"
    },
    {
      "channel": 4,
      "note": 50,
      "start": 21.7474,
      "duration": 0.5574,
      "velocity": 87,
      "chip": "ym2612"
    },
    {
      "channel": 5,
      "note": 37,
      "start": 21.7484,
      "duration": 0.1571,
      "velocity": 121,
      "chip": "ym2612"
    },
    {
      "channel": 5,
      "note": 61,
      "start": 21.9332,
      "duration": 0.1576,
      "velocity": 127,
      "chip": "ym2612"
    },
    {
      "channel": 1,
      "note": 78,
      "start": 22.3003,
      "duration": 1.087,
      "velocity": 90,
      "chip": "ym2612"
    },
    {
      "channel": 2,
      "note": 90,
      "start": 22.3015,
      "duration": 0.7154,
      "velocity": 97,
      "chip": "ym2612"
    },
    {
      "channel": 3,
      "note": 90,
      "start": 22.3033,
      "duration": 0.7139,
      "velocity": 96,
      "chip": "ym2612"
    },
    {
      "channel": 4,
      "note": 50,
      "start": 22.3048,
      "duration": 0.7128,
      "velocity": 87,
      "chip": "ym2612"
    },
    {
      "channel": 5,
      "note": 37,
      "start": 22.3099,
      "duration": 0.1517,
      "velocity": 121,
      "chip": "ym2612"
    },
    {
      "channel": 5,
      "note": 37,
      "start": 22.4861,
      "duration": 0.1609,
      "velocity": 121,
      "chip": "ym2612"
    },
    {
      "channel": 5,
      "note": 61,
      "start": 22.8602,
      "duration": 0.1578,
      "velocity": 127,
      "chip": "ym2612"
    },
    {
      "channel": 4,
      "note": 50,
      "start": 23.0424,
      "duration": 0.1604,
      "velocity": 87,
      "chip": "ym2612"
    },
    {
      "channel": 2,
      "note": 78,
      "start": 23.2264,
      "duration": 0.1613,
      "velocity": 97,
      "chip": "ym2612"
    },
    {
      "channel": 4,
      "note": 54,
      "start": 23.2274,
      "duration": 0.161,
      "velocity": 87,
      "chip": "ym2612"
    },
    {
      "channel": 5,
      "note": 37,
      "start": 23.2322,
      "duration": 0.1566,
      "velocity": 121,
      "chip": "ym2612"
    },
    {
      "channel": 3,
      "note": 78,
      "start": 23.3202,
      "duration": 0.1595,
      "velocity": 96,
      "chip": "ym2612"
    },
    {
      "channel": 2,
      "note": 79,
      "start": 23.4124,
      "duration": 0.1597,
      "velocity": 97,
      "chip": "ym2612"
    },
    {
      "channel": 4,
      "note": 57,
      "start": 23.4139,
      "duration": 0.1589,
      "velocity": 87,
      "chip": "ym2612"
    },
    {
      "channel": 5,
      "note": 61,
      "start": 23.4188,
      "duration": 0.1544,
      "velocity": 127,
      "chip": "ym2612"
    },
    {
      "channel": 3,
      "note": 79,
      "start": 23.5044,
      "duration": 0.1607,
      "velocity": 96,
      "chip": "ym2612"
    },
    {
      "channel": 2,
      "note": 81,
      "start": 23.5962,
      "duration": 0.1612,
      "velocity": 97,
      "chip": "ym2612"
    },
    {
      "channel": 4,
      "note": 59,
      "start": 23.5975,
      "duration": 0.1608,
      "velocity": 87,
      "chip": "ym2612"
    },
    {
      "channel": 5,
      "note": 61,
      "start": 23.5985,
      "duration": 0.1602,
      "velocity": 127,
      "chip": "ym2612"
    },
    {
      "channel": 3,
      "note": 81,
      "start": 23.6895,
      "duration": 0.0685,
      "velocity": 96,
      "chip": "ym2612"
    },
    {
      "channel": 1,
      "note": 79,
      "start": 23.7848,
      "duration": 0.1587,
      "velocity": 90,
      "chip": "ym2612"
    },
    {
      "channel": 2,
      "note": 79,
      "start": 23.7864,
      "duration": 0.3419,
      "velocity": 97,
      "chip": "ym2612"
    },
    {
      "channel": 4,
      "note": 57,
      "start": 23.7882,
      "duration": 0.1562,
      "velocity": 87,
      "chip": "ym2612"
    },
    {
      "channel": 5,
      "note": 37,
      "start": 23.7933,
      "duration": 0.1516,
      "velocity": 121,
      "chip": "ym2612"
    },
    {
      "channel": 3,
      "note": 79,
      "start": 23.8754,
      "duration": 0.3457,
      "velocity": 96,
      "chip": "ym2612"
    },
    {
      "channel": 5,
      "note": 61,
      "start": 24.1575,
      "duration": 0.1564,
      "velocity": 127,
      "chip": "ym2612"
    },
    {
      "channel": 1,
      "note": 79,
      "start": 24.3399,
      "duration": 0.1597,
      "velocity": 90,
      "chip": "ym2612"
    },
    {
      "channel": 2,
      "note": 79,
      "start": 24.3409,
      "duration": 0.3436,
      "velocity": 97,
      "chip": "ym2612"
    },
    {
      "channel": 4,
      "note": 57,
      "start": 24.3419,
      "duration": 0.1587,
      "velocity": 87,
      "chip": "ym2612"
    },
    {
      "channel": 5,
      "note": 37,
      "start": 24.3467,
      "duration": 0.1543,
      "velocity": 121,
      "chip": "ym2612"
    },
    {
      "channel": 3,
      "note": 79,
      "start": 24.4315,
      "duration": 0.3466,
      "velocity": 96,
      "chip": "ym2612"
    },
    {
      "channel": 1,
      "note": 79,
      "start": 24.7107,
      "duration": 0.5558,
      "velocity": 90,
      "chip": "ym2612"
    },
    {
      "channel": 4,
      "note": 45,
      "start": 24.7126,
      "duration": 0.5579,
      "velocity": 87,
      "chip": "ym2612"
    },
    {
      "channel": 5,
      "note": 37,
      "start": 24.7136,
      "duration": 0.1576,
      "velocity": 121,
      "chip": "ym2612"
    },
    {
      "channel": 2,
      "note": 79,
      "start": 24.8947,
      "duration": 0.3727,
      "velocity": 97,
      "chip": "ym2612"
    },
    {
      "channel": 5,
      "note": 61,
      "start": 24.8999,
      "duration": 0.1571,
      "velocity": 127,
      "chip": "ym2612"
    },
    {
      "channel": 3,
      "note": 79,
      "start": 24.9885,
      "duration": 0.2798,
      "velocity": 96,
      "chip": "ym2612"
    },
    {
      "channel": 1,
      "note": 79,
      "start": 25.2665,
      "duration": 1.0871,
      "velocity": 90,
      "chip": "ym2612"
    },
    {
      "channel": 2,
      "note": 79,
      "start": 25.2674,
      "duration": 0.7156,
      "velocity": 97,
      "chip": "ym2612"
    },
    {
      "channel": 3,
      "note": 79,
      "start": 25.2684,
      "duration": 0.7151,
      "velocity": 96,
      "chip": "ym2612"
    },
    {
      "channel": 4,
      "note": 45,
      "start": 25.2705,
      "duration": 0.7134,
      "velocity": 87,
      "chip": "ym2612"
    },
    {
      "channel": 5,
      "note": 37,
      "start": 25.2759,
      "duration": 0.1519,
      "velocity": 121,
      "chip": "ym2612"
    },
    {
      "channel": 5,
      "note": 37,
      "start": 25.4518,
      "duration": 0.1614,
      "velocity": 121,
      "chip": "ym2612"
    },
    {
      "channel": 5,
      "note": 61,
      "start": 25.8264,
      "duration": 0.1579,
      "velocity": 127,
      "chip": "ym2612"
    },
    {
      "channel": 2,
      "note": 86,
      "start": 26.0072,
      "duration": 0.1613,
      "velocity": 97,
      "chip": "ym2612"
    },
    {
      "channel": 4,
      "note": 52,
      "start": 26.0092,
      "duration": 0.1604,
      "velocity": 87,
      "chip": "ym2612"
    },
    {
      "channel": 3,
      "note": 88,
      "start": 26.1002,
      "duration": 0.1612,
      "velocity": 96,
      "chip": "ym2612"
    },
    {
      "channel": 2,
      "note": 85,
      "start": 26.1924,
      "duration": 0.1616,
      "velocity": 97,
      "chip": "ym2612"
    },
    {
      "channel": 4,
      "note": 45,
      "start": 26.1937,
      "duration": 0.161,
      "velocity": 87,
      "chip": "ym2612"
    },
    {
      "channel": 5,
      "note": 37,
      "start": 26.1985,
      "duration": 0.1567,
      "velocity": 121,
      "chip": "ym2612"
    },
    {
      "channel": 3,
      "note": 85,
      "start": 26.2862,
      "duration": 0.1597,
      "velocity": 96,
      "chip": "ym2612"
    },
    {
      "channel": 2,
      "note": 83,
      "start": 26.3787,
      "duration": 0.1596,
      "velocity": 97,
      "chip": "ym2612"
    },
    {
      "channel": 4,
      "note": 67,
      "start": 26.3801,
      "duration": 0.1589,
      "velocity": 87,
      "chip": "ym2612"
    },
    {
      "channel": 5,
      "note": 61,
      "start": 26.385,
      "duration": 0.1544,
      "velocity": 127,
      "chip": "ym2612"
    },
    {
      "channel": 3,
      "note": 83,
      "start": 26.4708,
      "duration": 0.1615,
      "velocity": 96,
      "chip": "ym2612"
    },
    {
      "channel": 1,
      "note": 79,
      "start": 26.5646,
      "duration": 0.1598,
      "velocity": 90,
      "chip": "ym2612"
    },
    {
      "channel": 2,
      "note": 85,
      "start": 26.5656,
      "duration": 0.1592,
      "velocity": 97,
      "chip": "ym2612"
    },
    {
      "channel": 4,
      "note": 69,
      "start": 26.567,
      "duration": 0.1585,
      "velocity": 87,
      "chip": "ym2612"
    },
    {
      "channel": 5,
      "note": 37,
      "start": 26.5723,
      "duration": 0.1536,
      "velocity": 121,
      "chip": "ym2612"
    },
    {
      "channel": 3,
      "note": 85,
      "start": 26.6565,
      "duration": 0.0686,
      "velocity": 96,
      "chip": "ym2612"
    },
    {
      "channel": 1,
      "note": 79,
      "start": 26.75,
      "duration": 0.1597,
      "velocity": 90,
      "chip": "ym2612"
    },
    {
      "channel": 2,
      "note": 86,
      "start": 26.7512,
      "duration": 0.3433,
      "velocity": 97,
      "chip": "ym2612"
    },
    {
      "channel": 3,
      "note": 79,
      "start": 26.7539,
      "duration": 0.341,
      "velocity": 96,
      "chip": "ym2612"
    },
    {
      "channel": 4,
      "note": 50,
      "start": 26.7552,
      "duration": 0.3401,
      "velocity": 87,
      "chip": "ym2612"
    },
    {
      "channel": 5,
      "note": 37,
      "start": 26.7606,
      "duration": 0.1504,
      "velocity": 121,
      "chip": "ym2612"
    },
    {
      "channel": 5,
      "note": 61,
      "start": 27.1243,
      "duration": 0.1558,
      "velocity": 127,
      "chip": "ym2612"
    },
    {
      "channel": 1,
      "note": 79,
      "start": 27.3061,
      "duration": 0.1597,
      "velocity": 90,
      "chip": "ym2612"
    },
    {
      "channel": 2,
      "note": 88,
      "start": 27.3071,
      "duration": 0.3435,
      "velocity": 97,
      "chip": "ym2612"
    },
    {
      "channel": 3,
      "note": 79,
      "start": 27.3084,
      "duration": 0.3427,
      "velocity": 96,
      "chip": "ym2612"
    },
    {
      "channel": 4,
      "note": 57,
      "start": 27.3095,
      "duration": 0.3419,
      "velocity": 87,
      "chip": "ym2612"
    },
    {
      "channel": 5,
      "note": 37,
      "start": 27.3144,
      "duration": 0.1528,
      "velocity": 121,
      "chip": "ym2612"
    },
    {
      "channel": 1,
      "note": 78,
      "start": 27.677,
      "duration": 0.5558,
      "velocity": 90,
      "chip": "ym2612"
    },
    {
      "channel": 4,
      "note": 50,
      "start": 27.679,
      "duration": 0.558,
      "velocity": 87,
      "chip": "ym2612"
    },
    {
      "channel": 5,
      "note": 37,
      "start": 27.68,
      "duration": 0.1577,
      "velocity": 121,
      "chip": "ym2612"
    },
    {
      "channel": 2,
      "note": 86,
      "start": 27.8609,
      "duration": 0.373,
      "velocity": 97,
      "chip": "ym2612"
    },
    {
      "channel": 3,
      "note": 78,
      "start": 27.8623,
      "duration": 0.3726,
      "velocity": 96,
      "chip": "ym2612"
    },
    {
      "channel": 5,
      "note": 61,
      "start": 27.8673,
      "duration": 0.1559,
      "velocity": 127,
      "chip": "ym2612"
    },
    {
      "channel": 1,
      "note": 78,
      "start": 28.2327,
      "duration": 1.0875,
      "velocity": 90,
      "chip": "ym2612"
    },
    {
      "channel": 2,
      "note": 86,
      "start": 28.2339,
      "duration": 1.456,
      "velocity": 97,
      "chip": "ym2612"
    },
    {
      "channel": 3,
      "note": 78,
      "start": 28.2349,
      "duration": 1.4554,
      "velocity": 96,
      "chip": "ym2612"
    },
    {
      "channel": 4,
      "note": 50,
      "start": 28.2369,
      "duration": 0.7129,
      "velocity": 87,
      "chip": "ym2612"
    },
    {
      "channel": 5,
      "note": 37,
      "start": 28.2421,
      "duration": 0.1519,
      "velocity": 121,
      "chip": "ym2612"
    },
    {
      "channel": 5,
      "note": 37,
      "start": 28.4179,
      "duration": 0.1615,
      "velocity": 121,
      "chip": "ym2612"
    },
    {
      "channel": 5,
      "note": 61,
      "start": 28.7928,
      "duration": 0.1574,
      "velocity": 127,
      "chip": "ym2612"
    },
    {
      "channel": 4,
      "note": 50,
      "start": 28.9738,
      "duration": 0.1614,
      "velocity": 87,
      "chip": "ym2612"
    },
    {
      "channel": 4,
      "note": 54,
      "start": 29.1592,
      "duration": 0.162,
      "velocity": 87,
      "chip": "ym2612"
    },
    {
      "channel": 5,
      "note": 37,
      "start": 29.164,
      "duration": 0.1576,
      "velocity": 121,
      "chip": "ym2612"
    },
    {
      "channel": 4,
      "note": 57,
      "start": 29.3456,
      "duration": 0.1595,
      "velocity": 87,
      "chip": "ym2612"
    },
    {
      "channel": 5,
      "note": 61,
      "start": 29.3505,
      "duration": 0.155,
      "velocity": 127,
      "chip": "ym2612"
    },
    {
      "channel": 4,
      "note": 62,
      "start": 29.5291,
      "duration": 0.1616,
      "velocity": 87,
      "chip": "ym2612"
    },
    {
      "channel": 5,
      "note": 61,
      "start": 29.5301,
      "duration": 0.161,
      "velocity": 127,
      "chip": "ym2612"
    },
    {
      "channel": 1,
      "note": 79,
      "start": 29.7279,
      "duration": 0.1712,
      "velocity": 90,
      "chip": "ym2612"
    },
    {
      "channel": 2,
      "note": 76,
      "start": 29.7337,
      "duration": 0.1658,
      "velocity": 90,
      "chip": "ym2612"
    },
    {
      "channel": 3,
      "note": 74,
      "start": 29.7401,
      "duration": 0.1598,
      "velocity": 90,
      "chip": "ym2612"
    },
    {
      "channel": 4,
      "note": 57,
      "start": 29.746,
      "duration": 0.1543,
      "velocity": 87,
      "chip": "ym2612"
    },
    {
      "channel": 5,
      "note": 37,
      "start": 29.7521,
      "duration": 0.1486,
      "velocity": 121,
      "chip": "ym2612"
    }
  ]
}