{
  "track_name": "08 - Technoir Disco",
  "duration_sec": 32.332,
  "sample_rate": 44100,
  "note_count": 2778,
  "unique_pitches": 86,
  "pitch_range": 91,
  "avg_note_duration": 0.0693,
  "reconstruction_stats": {
    "notes_reconstructed": 2778,
    "keyon_events": 2778,
    "keyoff_events": 1303,
    "orphan_keyons": 5,
    "unique_pitches": 86,
    "pitch_range": 91,
    "avg_duration_sec": 0.0693
  },
  "metadata": {
    "source": "T\\The Terminator\\08 - Technoir Disco.vgz"
  },
  "notes": [
    {
      "channel": 0,
      "note": 31,
      "start": 0.0,
      "duration": 0.0,
      "velocity": 47,
      "chip": "ym2612"
    },
    {
      "channel": 0,
      "note": 50,
      "start": 0.0,
      "duration": 0.0817,
      "velocity": 47,
      "chip": "ym2612"
    },
    {
      "channel": 1,
      "note": 31,
      "start": 0.0,
      "duration": 0.3331,
      "velocity": 47,
      "chip": "ym2612"
    },
    {
      "channel": 2,
      "note": 31,
      "start": 0.0,
      "duration": 0.0018,
      "velocity": 122,
      "chip": "ym2612"
    },
    {
      "channel": 3,
      "note": 31,
      "start": 0.0,
      "duration": 0.0037,
      "velocity": 68,
      "chip": "ym2612"
    },
    {
      "channel": 4,
      "note": 31,
      "start": 0.0,
      "duration": 0.0056,
      "velocity": 69,
      "chip": "ym2612"
    },
    {
      "channel": 5,
      "note": 31,
      "start": 0.0,
      "duration": 7.9996,
      "velocity": 1,
      "chip": "ym2612"
    },
    {
      "channel": 2,
      "note": 38,
      "start": 0.002,
      "duration": 0.1635,
      "velocity": 122,
      "chip": "ym2612"
    },
    {
      "channel": 3,
      "note": 114,
      "start": 0.0039,
      "duration": 0.0024,
      "velocity": 68,
      "chip": "ym2612"
    },
    {
      "channel": 4,
      "note": 115,
      "start": 0.0058,
      "duration": 0.0006,
      "velocity": 69,
      "chip": "ym2612"
    },
    {
      "channel": 3,
      "note": 114,
      "start": 0.0062,
      "duration": 0.0085,
      "velocity": 68,
      "chip": "ym2612"
    },
    {
      "channel": 4,
      "note": 115,
      "start": 0.0065,
      "duration": 0.0084,
      "velocity": 69,
      "chip": "ym2612"
    },
    {
      "channel": 3,
      "note": 114,
      "start": 0.0147,
      "duration": 0.0167,
      "velocity": 68,
      "chip": "ym2612"
    },
    {
      "channel": 4,
      "note": 115,
      "start": 0.0149,
      "duration": 0.0167,
      "velocity": 69,
      "chip": "ym2612"
    },
    {
      "channel": 3,
      "note": 114,
      "start": 0.0313,
      "duration": 0.0167,
      "velocity": 68,
      "chip": "ym2612"
    },
    {
      "channel": 4,
      "note": 115,
      "start": 0.0315,
      "duration": 0.0167,
      "velocity": 69,
      "chip": "ym2612"
    },
    {
      "channel": 3,
      "note": 114,
      "start": 0.048,
      "duration": 0.0167,
      "velocity": 68,
      "chip": "ym2612"
    },
    {
      "channel": 4,
      "note": 115,
      "start": 0.0482,
      "duration": 0.0167,
      "velocity": 69,
      "chip": "ym2612"
    },
    {
      "channel": 3,
      "note": 114,
      "start": 0.0647,
      "duration": 0.0178,
      "velocity": 68,
      "chip": "ym2612"
    },
    {
      "channel": 4,
      "note": 115,
      "start": 0.0649,
      "duration": 0.0178,
      "velocity": 69,
      "chip": "ym2612"
    },
    {
      "channel": 0,
      "note": 62,
      "start": 0.0819,
      "duration": 0.0831,
      "velocity": 47,
      "chip": "ym2612"
    },
    {
      "channel": 3,
      "note": 114,
      "start": 0.0825,
      "duration": 0.0155,
      "velocity": 68,
      "chip": "ym2612"
    },
    {
      "channel": 4,
      "note": 115,
      "start": 0.0827,
      "duration": 0.0155,
      "velocity": 69,
      "chip": "ym2612"
    },
    {
      "channel": 3,
      "note": 114,
      "start": 0.098,
      "duration": 0.0167,
      "velocity": 68,
      "chip": "ym2612"
    },
    {
      "channel": 4,
      "note": 115,
      "start": 0.0982,
      "duration": 0.0167,
      "velocity": 69,
      "chip": "ym2612"
    },
    {
      "channel": 3,
      "note": 114,
      "start": 0.1147,
      "duration": 0.0167,
      "velocity": 68,
      "chip": "ym2612"
    },
    {
      "channel": 4,
      "note": 115,
      "start": 0.1149,
      "duration": 0.0167,
      "velocity": 69,
      "chip": "ym2612"
    },
    {
      "channel": 3,
      "note": 113,
      "start": 0.1313,
      "duration": 0.0167,
      "velocity": 68,
      "chip": "ym2612"
    },
    {
      "channel": 4,
      "note": 114,
      "start": 0.1315,
      "duration": 0.0167,
      "velocity": 69,
      "chip": "ym2612"
    },
    {
      "channel": 3,
      "note": 113,
      "start": 0.148,
      "duration": 0.0181,
      "velocity": 68,
      "chip": "ym2612"
    },
    {
      "channel": 4,
      "note": 114,
      "start": 0.1482,
      "duration": 0.0182,
      "velocity": 69,
      "chip": "ym2612"
    },
    {
      "channel": 0,
      "note": 57,
      "start": 0.1651,
      "duration": 0.0832,
      "velocity": 47,
      "chip": "ym2612"
    },
    {
      "channel": 2,
      "note": 50,
      "start": 0.1656,
      "duration": 0.0832,
      "velocity": 122,
      "chip": "ym2612"
    },
    {
      "channel": 3,
      "note": 113,
      "start": 0.1661,
      "duration": 0.0152,
      "velocity": 68,
      "chip": "ym2612"
    },
    {
      "channel": 4,
      "note": 114,
      "start": 0.1664,
      "duration": 0.0152,
      "velocity": 69,
      "chip": "ym2612"
    },
    {
      "channel": 3,
      "note": 113,
      "start": 0.1813,
      "duration": 0.0167,
      "velocity": 68,
      "chip": "ym2612"
    },
    {
      "channel": 4,
      "note": 114,
      "start": 0.1816,
      "duration": 0.0167,
      "velocity": 69,
      "chip": "ym2612"
    },
    {
      "channel": 3,
      "note": 113,
      "start": 0.198,
      "duration": 0.0167,
      "velocity": 68,
      "chip": "ym2612"
    },
    {
      "channel": 4,
      "note": 114,
      "start": 0.1983,
      "duration": 0.0167,
      "velocity": 69,
      "chip": "ym2612"
    },
    {
      "channel": 3,
      "note": 113,
      "start": 0.2147,
      "duration": 0.0167,
      "velocity": 68,
      "chip": "ym2612"
    },
    {
      "channel": 4,
      "note": 114,
      "start": 0.2149,
      "duration": 0.0167,
      "velocity": 69,
      "chip": "ym2612"
    },
    {
      "channel": 3,
      "note": 113,
      "start": 0.2313,
      "duration": 0.0181,
      "velocity": 68,
      "chip": "ym2612"
    },
    {
      "channel": 4,
      "note": 114,
      "start": 0.2316,
      "duration": 0.0181,
      "velocity": 69,
      "chip": "ym2612"
    },
    {
      "channel": 0,
      "note": 60,
      "start": 0.2484,
      "duration": 0.4165,
      "velocity": 47,
      "chip": "ym2612"
    },
    {
      "channel": 2,
      "note": 38,
      "start": 0.249,
      "duration": 0.0846,
      "velocity": 122,
      "chip": "ym2612"
    },
    {
      "channel": 3,
      "note": 113,
      "start": 0.2495,
      "duration": 0.0152,
      "velocity": 68,
      "chip": "ym2612"
    },
    {
      "channel": 4,
      "note": 114,
      "start": 0.2497,
      "duration": 0.0151,
      "velocity": 69,
      "chip": "ym2612"
    },
    {
      "channel": 3,
      "note": 113,
      "start": 0.2647,
      "duration": 0.0167,
      "velocity": 68,
      "chip": "ym2612"
    },
    {
      "channel": 4,
      "note": 114,
      "start": 0.2649,
      "duration": 0.0167,
      "velocity": 69,
      "chip": "ym2612"
    },
    {
      "channel": 3,
      "note": 113,
      "start": 0.2813,
      "duration": 0.0167,
      "velocity": 68,
      "chip": "ym2612"
    },
    {
      "channel": 4,
      "note": 114,
      "start": 0.2815,
      "duration": 0.0167,
      "velocity": 69,
      "chip": "ym2612"
    },
    {
      "channel": 3,
      "note": 113,
      "start": 0.298,
      "duration": 0.0167,
      "velocity": 68,
      "chip": "ym2612"
    },
    {
      "channel": 4,
      "note": 114,
      "start": 0.2982,
      "duration": 0.0167,
      "velocity": 69,
      "chip": "ym2612"
    },
    {
      "channel": 3,
      "note": 113,
      "start": 0.3147,
      "duration": 0.0196,
      "velocity": 68,
      "chip": "ym2612"
    },
    {
      "channel": 4,
      "note": 114,
      "start": 0.3149,
      "duration": 0.0196,
      "velocity": 69,
      "chip": "ym2612"
    },
    {
      "channel": 1,
      "note": 50,
      "start": 0.3332,
      "duration": 0.0817,
      "velocity": 47,
      "chip": "ym2612"
    },
    {
      "channel": 2,
      "note": 48,
      "start": 0.3338,
      "duration": 0.0817,
      "velocity": 122,
      "chip": "ym2612"
    },
    {
      "channel": 3,
      "note": 113,
      "start": 0.3343,
      "duration": 0.0137,
      "velocity": 68,
      "chip": "ym2612"
    },
    {
      "channel": 4,
      "note": 114,
      "start": 0.3345,
      "duration": 0.0137,
      "velocity": 69,
      "chip": "ym2612"
    },
    {
      "channel": 3,
      "note": 113,
      "start": 0.348,
      "duration": 0.0167,
      "velocity": 68,
      "chip": "ym2612"
    },
    {
      "channel": 4,
      "note": 114,
      "start": 0.3482,
      "duration": 0.0167,
      "velocity": 69,
      "chip": "ym2612"
    },
    {
      "channel": 3,
      "note": 112,
      "start": 0.3647,
      "duration": 0.0167,
      "velocity": 68,
      "chip": "ym2612"
    },
    {
      "channel": 4,
      "note": 114,
      "start": 0.3649,
      "duration": 0.0167,
      "velocity": 69,
      "chip": "ym2612"
    },
    {
      "channel": 3,
      "note": 112,
      "start": 0.3813,
      "duration": 0.0167,
      "velocity": 68,
      "chip": "ym2612"
    },
    {
      "channel": 4,
      "note": 114,
      "start": 0.3816,
      "duration": 0.0167,
      "velocity": 69,
      "chip": "ym2612"
    },
    {
      "channel": 3,
      "note": 112,
      "start": 0.398,
      "duration": 0.0181,
      "velocity": 68,
      "chip": "ym2612"
    },
    {
      "channel": 4,
      "note": 113,
      "start": 0.3983,
      "duration": 0.0181,
      "velocity": 69,
      "chip": "ym2612"
    },
    {
      "channel": 1,
      "note": 62,
      "start": 0.4151,
      "duration": 0.0831,
      "velocity": 47,
      "chip": "ym2612"
    },
    {
      "channel": 2,
      "note": 50,
      "start": 0.4156,
      "duration": 0.0832,
      "velocity": 122,
      "chip": "ym2612"
    },
    {
      "channel": 3,
      "note": 112,
      "start": 0.4161,
      "duration": 0.0152,
      "velocity": 68,
      "chip": "ym2612"
    },
    {
      "channel": 4,
      "note": 113,
      "start": 0.4164,
      "duration": 0.0151,
      "velocity": 69,
      "chip": "ym2612"
    },
    {
      "channel": 3,
      "note": 112,
      "start": 0.4313,
      "duration": 0.0167,
      "velocity": 68,
      "chip": "ym2612"
    },
    {
      "channel": 4,
      "note": 113,
      "start": 0.4315,
      "duration": 0.0167,
      "velocity": 69,
      "chip": "ym2612"
    },
    {
      "channel": 3,
      "note": 112,
      "start": 0.448,
      "duration": 0.0167,
      "velocity": 68,
      "chip": "ym2612"
    },
    {
      "channel": 4,
      "note": 113,
      "start": 0.4482,
      "duration": 0.0167,
      "velocity": 69,
      "chip": "ym2612"
    },
    {
      "channel": 3,
      "note": 112,
      "start": 0.4647,
      "duration": 0.0167,
      "velocity": 68,
      "chip": "ym2612"
    },
    {
      "channel": 4,
      "note": 113,
      "start": 0.4649,
      "duration": 0.0167,
      "velocity": 69,
      "chip": "ym2612"
    },
    {
      "channel": 3,
      "note": 112,
      "start": 0.4813,
      "duration": 0.0181,
      "velocity": 68,
      "chip": "ym2612"
    },
    {
      "channel": 4,
      "note": 113,
      "start": 0.4815,
      "duration": 0.0182,
      "velocity": 69,
      "chip": "ym2612"
    },
    {
      "channel": 1,
      "note": 57,
      "start": 0.4985,
      "duration": 0.0831,
      "velocity": 47,
      "chip": "ym2612"
    },
    {
      "channel": 2,
      "note": 36,
      "start": 0.499,
      "duration": 0.0832,
      "velocity": 122,
      "chip": "ym2612"
    },
    {
      "channel": 3,
      "note": 112,
      "start": 0.4995,
      "duration": 0.0152,
      "velocity": 68,
      "chip": "ym2612"
    },
    {
      "channel": 4,
      "note": 113,
      "start": 0.4997,
      "duration": 0.0151,
      "velocity": 69,
      "chip": "ym2612"
    },
    {
      "channel": 3,
      "note": 112,
      "start": 0.5147,
      "duration": 0.0167,
      "velocity": 68,
      "chip": "ym2612"
    },
    {
      "channel": 4,
      "note": 113,
      "start": 0.5149,
      "duration": 0.0167,
      "velocity": 69,
      "chip": "ym2612"
    },
    {
      "channel": 3,
      "note": 112,
      "start": 0.5313,
      "duration": 0.0167,
      "velocity": 68,
      "chip": "ym2612"
    },
    {
      "channel": 4,
      "note": 113,
      "start": 0.5316,
      "duration": 0.0167,
      "velocity": 69,
      "chip": "ym2612"
    },
    {
      "channel": 3,
      "note": 112,
      "start": 0.548,
      "duration": 0.0167,
      "velocity": 68,
      "chip": "ym2612"
    },
    {
      "channel": 4,
      "note": 113,
      "start": 0.5483,
      "duration": 0.0167,
      "velocity": 69,
      "chip": "ym2612"
    },
    {
      "channel": 3,
      "note": 112,
      "start": 0.5647,
      "duration": 0.0181,
      "velocity": 68,
      "chip": "ym2612"
    },
    {
      "channel": 4,
      "note": 113,
      "start": 0.5649,
      "duration": 0.0181,
      "velocity": 69,
      "chip": "ym2612"
    },
    {
      "channel": 1,
      "note": 60,
      "start": 0.5818,
      "duration": 0.4165,
      "velocity": 47,
      "chip": "ym2612"
    },
    {
      "channel": 2,
      "note": 33,
      "start": 0.5823,
      "duration": 0.0832,
      "velocity": 122,
      "chip": "ym2612"
    },
    {
      "channel": 3,
      "note": 112,
      "start": 0.5828,
      "duration": 0.0152,
      "velocity": 68,
      "chip": "ym2612"
    },
    {
      "channel": 4,
      "note": 113,
      "start": 0.5831,
      "duration": 0.0151,
      "velocity": 69,
      "chip": "ym2612"
    },
    {
      "channel": 3,
      "note": 112,
      "start": 0.598,
      "duration": 0.0167,
      "velocity": 68,
      "chip": "ym2612"
    },
    {
      "channel": 4,
      "note": 113,
      "start": 0.5982,
      "duration": 0.0167,
      "velocity": 69,
      "chip": "ym2612"
    },
    {
      "channel": 3,
      "note": 111,
      "start": 0.6147,
      "duration": 0.0167,
      "velocity": 68,
      "chip": "ym2612"
    },
    {
      "channel": 4,
      "note": 113,
      "start": 0.6149,
      "duration": 0.0167,
      "velocity": 69,
      "chip": "ym2612"
    },
    {
      "channel": 3,
      "note": 111,
      "start": 0.6313,
      "duration": 0.0167,
      "velocity": 68,
      "chip": "ym2612"
    },
    {
      "channel": 4,
      "note": 113,
      "start": 0.6315,
      "duration": 0.0167,
      "velocity": 69,
      "chip": "ym2612"
    },
    {
      "channel": 3,
      "note": 111,
      "start": 0.648,
      "duration": 0.0182,
      "velocity": 68,
      "chip": "ym2612"
    },
    {
      "channel": 4,
      "note": 112,
      "start": 0.6482,
      "duration": 0.0183,
      "velocity": 69,
      "chip": "ym2612"
    },
    {
      "channel": 0,
      "note": 50,
      "start": 0.6651,
      "duration": 0.0831,
      "velocity": 47,
      "chip": "ym2612"
    },
    {
      "channel": 2,
      "note": 38,
      "start": 0.6657,
      "duration": 0.1664,
      "velocity": 122,
      "chip": "ym2612"
    },
    {
      "channel": 3,
      "note": 111,
      "start": 0.6662,
      "duration": 0.0151,
      "velocity": 68,
      "chip": "ym2612"
    },
    {
      "channel": 4,
      "note": 112,
      "start": 0.6665,
      "duration": 0.0151,
      "velocity": 69,
      "chip": "ym2612"
    },
    {
      "channel": 3,
      "note": 111,
      "start": 0.6813,
      "duration": 0.0167,
      "velocity": 68,
      "chip": "ym2612"
    },
    {
      "channel": 4,
      "note": 112,
      "start": 0.6815,
      "duration": 0.0167,
      "velocity": 69,
      "chip": "ym2612"
    },
    {
      "channel": 3,
      "note": 111,
      "start": 0.698,
      "duration": 0.0167,
      "velocity": 68,
      "chip": "ym2612"
    },
    {
      "channel": 4,
      "note": 112,
      "start": 0.6983,
      "duration": 0.0167,
      "velocity": 69,
      "chip": "ym2612"
    },
    {
      "channel": 3,
      "note": 111,
      "start": 0.7147,
      "duration": 0.0167,
      "velocity": 68,
      "chip": "ym2612"
    },
    {
      "channel": 4,
      "note": 112,
      "start": 0.7149,
      "duration": 0.0167,
      "velocity": 69,
      "chip": "ym2612"
    },
    {
      "channel": 3,
      "note": 111,
      "start": 0.7313,
      "duration": 0.0177,
      "velocity": 68,
      "chip": "ym2612"
    },
    {
      "channel": 4,
      "note": 112,
      "start": 0.7316,
      "duration": 0.0177,
      "velocity": 69,
      "chip": "ym2612"
    },
    {
      "channel": 0,
      "note": 62,
      "start": 0.7484,
      "duration": 0.0832,
      "velocity": 47,
      "chip": "ym2612"
    },
    {
      "channel": 3,
      "note": 111,
      "start": 0.749,
      "duration": 0.0156,
      "velocity": 68,
      "chip": "ym2612"
    },
    {
      "channel": 4,
      "note": 112,
      "start": 0.7493,
      "duration": 0.0156,
      "velocity": 69,
      "chip": "ym2612"
    },
    {
      "channel": 3,
      "note": 111,
      "start": 0.7647,
      "duration": 0.0167,
      "velocity": 68,
      "chip": "ym2612"
    },
    {
      "channel": 4,
      "note": 112,
      "start": 0.7649,
      "duration": 0.0167,
      "velocity": 69,
      "chip": "ym2612"
    },
    {
      "channel": 3,
      "note": 111,
      "start": 0.7813,
      "duration": 0.0167,
      "velocity": 68,
      "chip": "ym2612"
    },
    {
      "channel": 4,
      "note": 112,
      "start": 0.7815,
      "duration": 0.0167,
      "velocity": 69,
      "chip": "ym2612"
    },
    {
      "channel": 3,
      "note": 111,
      "start": 0.798,
      "duration": 0.0167,
      "velocity": 68,
      "chip": "ym2612"
    },
    {
      "channel": 4,
      "note": 112,
      "start": 0.7982,
      "duration": 0.0167,
      "velocity": 69,
      "chip": "ym2612"
    },
    {
      "channel": 3,
      "note": 111,
      "start": 0.8147,
      "duration": 0.0181,
      "velocity": 68,
      "chip": "ym2612"
    },
    {
      "channel": 4,
      "note": 112,
      "start": 0.8149,
      "duration": 0.0182,
      "velocity": 69,
      "chip": "ym2612"
    },
    {
      "channel": 0,
      "note": 57,
      "start": 0.8317,
      "duration": 0.0832,
      "velocity": 47,
      "chip": "ym2612"
    },
    {
      "channel": 2,
      "note": 50,
      "start": 0.8323,
      "duration": 0.0832,
      "velocity": 122,
      "chip": "ym2612"
    },
    {
      "channel": 3,
      "note": 110,
      "start": 0.8328,
      "duration": 0.0152,
      "velocity": 68,
      "chip": "ym2612"
    },
    {
      "channel": 4,
      "note": 112,
      "start": 0.8331,
      "duration": 0.0151,
      "velocity": 69,
      "chip": "ym2612"
    },
    {
      "channel": 3,
      "note": 110,
      "start": 0.848,
      "duration": 0.0167,
      "velocity": 68,
      "chip": "ym2612"
    },
    {
      "channel": 4,
      "note": 112,
      "start": 0.8482,
      "duration": 0.0167,
      "velocity": 69,
      "chip": "ym2612"
    },
    {
      "channel": 3,
      "note": 110,
      "start": 0.8647,
      "duration": 0.0167,
      "velocity": 68,
      "chip": "ym2612"
    },
    {
      "channel": 4,
      "note": 112,
      "start": 0.8649,
      "duration": 0.0166,
      "velocity": 69,
      "chip": "ym2612"
    },
    {
      "channel": 3,
      "note": 110,
      "start": 0.8813,
      "duration": 0.0167,
      "velocity": 68,
      "chip": "ym2612"
    },
    {
      "channel": 4,
      "note": 111,
      "start": 0.8815,
      "duration": 0.0167,
      "velocity": 69,
      "chip": "ym2612"
    },
    {
      "channel": 3,
      "note": 110,
      "start": 0.898,
      "duration": 0.0181,
      "velocity": 68,
      "chip": "ym2612"
    },
    {
      "channel": 4,
      "note": 111,
      "start": 0.8982,
      "duration": 0.0182,
      "velocity": 69,
      "chip": "ym2612"
    },
    {
      "channel": 0,
      "note": 60,
      "start": 0.9151,
      "duration": 0.4165,
      "velocity": 47,
      "chip": "ym2612"
    },
    {
      "channel": 2,
      "note": 38,
      "start": 0.9156,
      "duration": 0.0832,
      "velocity": 122,
      "chip": "ym2612"
    },
    {
      "channel": 3,
      "note": 110,
      "start": 0.9161,
      "duration": 0.0152,
      "velocity": 68,
      "chip": "ym2612"
    },
    {
      "channel": 4,
      "note": 111,
      "start": 0.9164,
      "duration": 0.0151,
      "velocity": 69,
      "chip": "ym2612"
    },
    {
      "channel": 3,
      "note": 110,
      "start": 0.9313,
      "duration": 0.0167,
      "velocity": 68,
      "chip": "ym2612"
    },
    {
      "channel": 4,
      "note": 111,
      "start": 0.9315,
      "duration": 0.0167,
      "velocity": 69,
      "chip": "ym2612"
    },
    {
      "channel": 3,
      "note": 110,
      "start": 0.948,
      "duration": 0.0167,
      "velocity": 68,
      "chip": "ym2612"
    },
    {
      "channel": 4,
      "note": 111,
      "start": 0.9482,
      "duration": 0.0167,
      "velocity": 69,
      "chip": "ym2612"
    },
    {
      "channel": 3,
      "note": 110,
      "start": 0.9647,
      "duration": 0.0167,
      "velocity": 68,
      "chip": "ym2612"
    },
    {
      "channel": 4,
      "note": 111,
      "start": 0.9649,
      "duration": 0.0167,
      "velocity": 69,
      "chip": "ym2612"
    },
    {
      "channel": 3,
      "note": 110,
      "start": 0.9813,
      "duration": 0.0182,
      "velocity": 68,
      "chip": "ym2612"
    },
    {
      "channel": 4,
      "note": 111,
      "start": 0.9815,
      "duration": 0.0183,
      "velocity": 69,
      "chip": "ym2612"
    },
    {
      "channel": 1,
      "note": 50,
      "start": 0.9985,
      "duration": 0.0831,
      "velocity": 47,
      "chip": "ym2612"
    },
    {
      "channel": 2,
      "note": 48,
      "start": 0.999,
      "duration": 0.0831,
      "velocity": 122,
      "chip": "ym2612"
    },
    {
      "channel": 3,
      "note": 110,
      "start": 0.9995,
      "duration": 0.0151,
      "velocity": 68,
      "chip": "ym2612"
    },
    {
      "channel": 4,
      "note": 111,
      "start": 0.9998,
      "duration": 0.0151,
      "velocity": 69,
      "chip": "ym2612"
    },
    {
      "channel": 3,
      "note": 110,
      "start": 1.0147,
      "duration": 0.0167,
      "velocity": 68,
      "chip": "ym2612"
    },
    {
      "channel": 4,
      "note": 111,
      "start": 1.0149,
      "duration": 0.0167,
      "velocity": 69,
      "chip": "ym2612"
    },
    {
      "channel": 3,
      "note": 110,
      "start": 1.0313,
      "duration": 0.0167,
      "velocity": 68,
      "chip": "ym2612"
    },
    {
      "channel": 4,
      "note": 111,
      "start": 1.0316,
      "duration": 0.0167,
      "velocity": 69,
      "chip": "ym2612"
    },
    {
      "channel": 3,
      "note": 109,
      "start": 1.048,
      "duration": 0.0167,
      "velocity": 68,
      "chip": "ym2612"
    },
    {
      "channel": 4,
      "note": 111,
      "start": 1.0483,
      "duration": 0.0166,
      "velocity": 69,
      "chip": "ym2612"
    },
    {
      "channel": 3,
      "note": 109,
      "start": 1.0647,
      "duration": 0.0181,
      "velocity": 68,
      "chip": "ym2612"
    },
    {
      "channel": 4,
      "note": 111,
      "start": 1.0649,
      "duration": 0.0182,
      "velocity": 69,
      "chip": "ym2612"
    },
    {
      "channel": 1,
      "note": 62,
      "start": 1.0818,
      "duration": 0.0831,
      "velocity": 47,
      "chip": "ym2612"
    },
    {
      "channel": 2,
      "note": 50,
      "start": 1.0823,
      "duration": 0.0832,
      "velocity": 122,
      "chip": "ym2612"
    },
    {
      "channel": 3,
      "note": 109,
      "start": 1.0828,
      "duration": 0.0152,
      "velocity": 68,
      "chip": "ym2612"
    },
    {
      "channel": 4,
      "note": 111,
      "start": 1.0831,
      "duration": 0.0151,
      "velocity": 69,
      "chip": "ym2612"
    },
    {
      "channel": 3,
      "note": 109,
      "start": 1.098,
      "duration": 0.0167,
      "velocity": 68,
      "chip": "ym2612"
    },
    {
      "channel": 4,
      "note": 110,
      "start": 1.0982,
      "duration": 0.0167,
      "velocity": 69,
      "chip": "ym2612"
    },
    {
      "channel": 3,
      "note": 109,
      "start": 1.1147,
      "duration": 0.0167,
      "velocity": 68,
      "chip": "ym2612"
    },
    {
      "channel": 4,
      "note": 110,
      "start": 1.1149,
      "duration": 0.0167,
      "velocity": 69,
      "chip": "ym2612"
    },
    {
      "channel": 3,
      "note": 109,
      "start": 1.1313,
      "duration": 0.0167,
      "velocity": 68,
      "chip": "ym2612"
    },
    {
      "channel": 4,
      "note": 110,
      "start": 1.1315,
      "duration": 0.0167,
      "velocity": 69,
      "chip": "ym2612"
    },
    {
      "channel": 3,
      "note": 109,
      "start": 1.148,
      "duration": 0.0181,
      "velocity": 68,
      "chip": "ym2612"
    },
    {
      "channel": 4,
      "note": 110,
      "start": 1.1482,
      "duration": 0.0182,
      "velocity": 69,
      "chip": "ym2612"
    },
    {
      "channel": 1,
      "note": 57,
      "start": 1.1651,
      "duration": 0.0832,
      "velocity": 47,
      "chip": "ym2612"
    },
    {
      "channel": 2,
      "note": 36,
      "start": 1.1656,
      "duration": 0.0832,
      "velocity": 122,
      "chip": "ym2612"
    },
    {
      "channel": 3,
      "note": 109,
      "start": 1.1661,
      "duration": 0.0152,
      "velocity": 68,
      "chip": "ym2612"
    },
    {
      "channel": 4,
      "note": 110,
      "start": 1.1664,
      "duration": 0.0151,
      "velocity": 69,
      "chip": "ym2612"
    },
    {
      "channel": 3,
      "note": 109,
      "start": 1.1813,
      "duration": 0.0167,
      "velocity": 68,
      "chip": "ym2612"
    },
    {
      "channel": 4,
      "note": 110,
      "start": 1.1815,
      "duration": 0.0167,
      "velocity": 69,
      "chip": "ym2612"
    },
    {
      "channel": 3,
      "note": 109,
      "start": 1.198,
      "duration": 0.0167,
      "velocity": 68,
      "chip": "ym2612"
    },
    {
      "channel": 4,
      "note": 110,
      "start": 1.1982,
      "duration": 0.0167,
      "velocity": 69,
      "chip": "ym2612"
    },
    {
      "channel": 3,
      "note": 109,
      "start": 1.2147,
      "duration": 0.0167,
      "velocity": 68,
      "chip": "ym2612"
    },
    {
      "channel": 4,
      "note": 110,
      "start": 1.2149,
      "duration": 0.0167,
      "velocity": 69,
      "chip": "ym2612"
    },
    {
      "channel": 3,
      "note": 108,
      "start": 1.2313,
      "duration": 0.0181,
      "velocity": 68,
      "chip": "ym2612"
    },
    {
      "channel": 4,
      "note": 110,
      "start": 1.2316,
      "duration": 0.0181,
      "velocity": 69,
      "chip": "ym2612"
    },
    {
      "channel": 1,
      "note": 60,
      "start": 1.2485,
      "duration": 0.4165,
      "velocity": 47,
      "chip": "ym2612"
    },
    {
      "channel": 2,
      "note": 33,
      "start": 1.249,
      "duration": 0.0832,
      "velocity": 122,
      "chip": "ym2612"
    },
    {
      "channel": 3,
      "note": 108,
      "start": 1.2495,
      "duration": 0.0152,
      "velocity": 68,
      "chip": "ym2612"
    },
    {
      "channel": 4,
      "note": 110,
      "start": 1.2497,
      "duration": 0.0151,
      "velocity": 69,
      "chip": "ym2612"
    },
    {
      "channel": 3,
      "note": 108,
      "start": 1.2647,
      "duration": 0.0167,
      "velocity": 68,
      "chip": "ym2612"
    },
    {
      "channel": 4,
      "note": 110,
      "start": 1.2649,
      "duration": 0.0167,
      "velocity": 69,
      "chip": "ym2612"
    },
    {
      "channel": 3,
      "note": 108,
      "start": 1.2813,
      "duration": 0.0167,
      "velocity": 68,
      "chip": "ym2612"
    },
    {
      "channel": 4,
      "note": 110,
      "start": 1.2815,
      "duration": 0.0167,
      "velocity": 69,
      "chip": "ym2612"
    },
    {
      "channel": 3,
      "note": 108,
      "start": 1.298,
      "duration": 0.0167,
      "velocity": 68,
      "chip": "ym2612"
    },
    {
      "channel": 4,
      "note": 110,
      "start": 1.2982,
      "duration": 0.0167,
      "velocity": 69,
      "chip": "ym2612"
    },
    {
      "channel": 3,
      "note": 108,
      "start": 1.3147,
      "duration": 0.0182,
      "velocity": 68,
      "chip": "ym2612"
    },
    {
      "channel": 4,
      "note": 109,
      "start": 1.3149,
      "duration": 0.0183,
      "velocity": 69,
      "chip": "ym2612"
    },
    {
      "channel": 0,
      "note": 53,
      "start": 1.3318,
      "duration": 0.0831,
      "velocity": 47,
      "chip": "ym2612"
    },
    {
      "channel": 2,
      "note": 34,
      "start": 1.3324,
      "duration": 0.1664,
      "velocity": 122,
      "chip": "ym2612"
    },
    {
      "channel": 3,
      "note": 108,
      "start": 1.3329,
      "duration": 0.0151,
      "velocity": 68,
      "chip": "ym2612"
    },
    {
      "channel": 4,
      "note": 109,
      "start": 1.3331,
      "duration": 0.0151,
      "velocity": 69,
      "chip": "ym2612"
    },
    {
      "channel": 3,
      "note": 108,
      "start": 1.348,
      "duration": 0.0167,
      "velocity": 68,
      "chip": "ym2612"
    },
    {
      "channel": 4,
      "note": 109,
      "start": 1.3482,
      "duration": 0.0167,
      "velocity": 69,
      "chip": "ym2612"
    },
    {
      "channel": 3,
      "note": 108,
      "start": 1.3647,
      "duration": 0.0167,
      "velocity": 68,
      "chip": "ym2612"
    },
    {
      "channel": 4,
      "note": 109,
      "start": 1.3649,
      "duration": 0.0167,
      "velocity": 69,
      "chip": "ym2612"
    },
    {
      "channel": 3,
      "note": 108,
      "start": 1.3813,
      "duration": 0.0167,
      "velocity": 68,
      "chip": "ym2612"
    },
    {
      "channel": 4,
      "note": 109,
      "start": 1.3815,
      "duration": 0.0167,
      "velocity": 69,
      "chip": "ym2612"
    },
    {
      "channel": 3,
      "note": 108,
      "start": 1.398,
      "duration": 0.0177,
      "velocity": 68,
      "chip": "ym2612"
    },
    {
      "channel": 4,
      "note": 109,
      "start": 1.3983,
      "duration": 0.0177,
      "velocity": 69,
      "chip": "ym2612"
    },
    {
      "channel": 0,
      "note": 65,
      "start": 1.4151,
      "duration": 0.0832,
      "velocity": 47,
      "chip": "ym2612"
    },
    {
      "channel": 3,
      "note": 108,
      "start": 1.4157,
      "duration": 0.0156,
      "velocity": 68,
      "chip": "ym2612"
    },
    {
      "channel": 4,
      "note": 109,
      "start": 1.4159,
      "duration": 0.0156,
      "velocity": 69,
      "chip": "ym2612"
    },
    {
      "channel": 3,
      "note": 107,
      "start": 1.4313,
      "duration": 0.0167,
      "velocity": 68,
      "chip": "ym2612"
    },
    {
      "channel": 4,
      "note": 109,
      "start": 1.4315,
      "duration": 0.0167,
      "velocity": 69,
      "chip": "ym2612"
    },
    {
      "channel": 3,
      "note": 107,
      "start": 1.448,
      "duration": 0.0167,
      "velocity": 68,
      "chip": "ym2612"
    },
    {
      "channel": 4,
      "note": 109,
      "start": 1.4482,
      "duration": 0.0167,
      "velocity": 69,
      "chip": "ym2612"
    },
    {
      "channel": 3,
      "note": 107,
      "start": 1.4647,
      "duration": 0.0167,
      "velocity": 68,
      "chip": "ym2612"
    },
    {
      "channel": 4,
      "note": 109,
      "start": 1.4649,
      "duration": 0.0167,
      "velocity": 69,
      "chip": "ym2612"
    },
    {
      "channel": 3,
      "note": 107,
      "start": 1.4813,
      "duration": 0.0181,
      "velocity": 68,
      "chip": "ym2612"
    },
    {
      "channel": 4,
      "note": 109,
      "start": 1.4815,
      "duration": 0.0182,
      "velocity": 69,
      "chip": "ym2612"
    },
    {
      "channel": 0,
      "note": 60,
      "start": 1.4984,
      "duration": 0.0832,
      "velocity": 47,
      "chip": "ym2612"
    },
    {
      "channel": 2,
      "note": 46,
      "start": 1.499,
      "duration": 0.0832,
      "velocity": 122,
      "chip": "ym2612"
    },
    {
      "channel": 3,
      "note": 107,
      "start": 1.4995,
      "duration": 0.0152,
      "velocity": 68,
      "chip": "ym2612"
    },
    {
      "channel": 4,
      "note": 109,
      "start": 1.4997,
      "duration": 0.0151,
      "velocity": 69,
      "chip": "ym2612"
    },
    {
      "channel": 3,
      "note": 107,
      "start": 1.5147,
      "duration": 0.0167,
      "velocity": 68,
      "chip": "ym2612"
    },
    {
      "channel": 4,
      "note": 108,
      "start": 1.5149,
      "duration": 0.0167,
      "velocity": 69,
      "chip": "ym2612"
    },
    {
      "channel": 3,
      "note": 107,
      "start": 1.5313,
      "duration": 0.0167,
      "velocity": 68,
      "chip": "ym2612"
    },
    {
      "channel": 4,
      "note": 108,
      "start": 1.5316,
      "duration": 0.0167,
      "velocity": 69,
      "chip": "ym2612"
    },
    {
      "channel": 3,
      "note": 107,
      "start": 1.548,
      "duration": 0.0167,
      "velocity": 68,
      "chip": "ym2612"
    },
    {
      "channel": 4,
      "note": 108,
      "start": 1.5483,
      "duration": 0.0167,
      "velocity": 69,
      "chip": "ym2612"
    },
    {
      "channel": 3,
      "note": 107,
      "start": 1.5647,
      "duration": 0.0181,
      "velocity": 68,
      "chip": "ym2612"
    },
    {
      "channel": 4,
      "note": 108,
      "start": 1.5649,
      "duration": 0.0181,
      "velocity": 69,
      "chip": "ym2612"
    },
    {
      "channel": 0,
      "note": 63,
      "start": 1.5817,
      "duration": 0.4165,
      "velocity": 47,
      "chip": "ym2612"
    },
    {
      "channel": 2,
      "note": 34,
      "start": 1.5823,
      "duration": 0.0832,
      "velocity": 122,
      "chip": "ym2612"
    },
    {
      "channel": 3,
      "note": 107,
      "start": 1.5828,
      "duration": 0.0152,
      "velocity": 68,
      "chip": "ym2612"
    },
    {
      "channel": 4,
      "note": 108,
      "start": 1.5831,
      "duration": 0.0152,
      "velocity": 69,
      "chip": "ym2612"
    },
    {
      "channel": 3,
      "note": 106,
      "start": 1.598,
      "duration": 0.0167,
      "velocity": 68,
      "chip": "ym2612"
    },
    {
      "channel": 4,
      "note": 108,
      "start": 1.5983,
      "duration": 0.0167,
      "velocity": 69,
      "chip": "ym2612"
    },
    {
      "channel": 3,
      "note": 106,
      "start": 1.6147,
      "duration": 0.0167,
      "velocity": 68,
      "chip": "ym2612"
    },
    {
      "channel": 4,
      "note": 108,
      "start": 1.6149,
      "duration": 0.0167,
      "velocity": 69,
      "chip": "ym2612"
    },
    {
      "channel": 3,
      "note": 106,
      "start": 1.6313,
      "duration": 0.0167,
      "velocity": 68,
      "chip": "ym2612"
    },
    {
      "channel": 4,
      "note": 108,
      "start": 1.6316,
      "duration": 0.0167,
      "velocity": 69,
      "chip": "ym2612"
    },
    {
      "channel": 3,
      "note": 106,
      "start": 1.648,
      "duration": 0.0182,
      "velocity": 68,
      "chip": "ym2612"
    },
    {
      "channel": 4,
      "note": 108,
      "start": 1.6483,
      "duration": 0.0181,
      "velocity": 69,
      "chip": "ym2612"
    },
    {
      "channel": 1,
      "note": 53,
      "start": 1.6652,
      "duration": 0.0831,
      "velocity": 47,
      "chip": "ym2612"
    },
    {
      "channel": 2,
      "note": 44,
      "start": 1.6657,
      "duration": 0.0831,
      "velocity": 122,
      "chip": "ym2612"
    },
    {
      "channel": 3,
      "note": 106,
      "start": 1.6662,
      "duration": 0.0151,
      "velocity": 68,
      "chip": "ym2612"
    },
    {
      "channel": 4,
      "note": 108,
      "start": 1.6664,
      "duration": 0.0151,
      "velocity": 69,
      "chip": "ym2612"
    },
    {
      "channel": 3,
      "note": 106,
      "start": 1.6813,
      "duration": 0.0167,
      "velocity": 68,
      "chip": "ym2612"
    },
    {
      "channel": 4,
      "note": 108,
      "start": 1.6815,
      "duration": 0.0167,
      "velocity": 69,
      "chip": "ym2612"
    },
    {
      "channel": 3,
      "note": 106,
      "start": 1.698,
      "duration": 0.0167,
      "velocity": 68,
      "chip": "ym2612"
    },
    {
      "channel": 4,
      "note": 107,
      "start": 1.6982,
      "duration": 0.0167,
      "velocity": 69,
      "chip": "ym2612"
    },
    {
      "channel": 3,
      "note": 106,
      "start": 1.7147,
      "duration": 0.0167,
      "velocity": 68,
      "chip": "ym2612"
    },
    {
      "channel": 4,
      "note": 107,
      "start": 1.7149,
      "duration": 0.0167,
      "velocity": 69,
      "chip": "ym2612"
    },
    {
      "channel": 3,
      "note": 106,
      "start": 1.7313,
      "duration": 0.0181,
      "velocity": 68,
      "chip": "ym2612"
    },
    {
      "channel": 4,
      "note": 107,
      "start": 1.7315,
      "duration": 0.0182,
      "velocity": 69,
      "chip": "ym2612"
    },
    {
      "channel": 1,
      "note": 65,
      "start": 1.7485,
      "duration": 0.0832,
      "velocity": 47,
      "chip": "ym2612"
    },
    {
      "channel": 2,
      "note": 46,
      "start": 1.749,
      "duration": 0.0832,
      "velocity": 122,
      "chip": "ym2612"
    },
    {
      "channel": 3,
      "note": 106,
      "start": 1.7495,
      "duration": 0.0152,
      "velocity": 68,
      "chip": "ym2612"
    },
    {
      "channel": 4,
      "note": 107,
      "start": 1.7497,
      "duration": 0.0151,
      "velocity": 69,
      "chip": "ym2612"
    },
    {
      "channel": 3,
      "note": 105,
      "start": 1.7647,
      "duration": 0.0167,
      "velocity": 68,
      "chip": "ym2612"
    },
    {
      "channel": 4,
      "note": 107,
      "start": 1.7649,
      "duration": 0.0167,
      "velocity": 69,
      "chip": "ym2612"
    },
    {
      "channel": 3,
      "note": 105,
      "start": 1.7813,
      "duration": 0.0167,
      "velocity": 68,
      "chip": "ym2612"
    },
    {
      "channel": 4,
      "note": 107,
      "start": 1.7815,
      "duration": 0.0167,
      "velocity": 69,
      "chip": "ym2612"
    },
    {
      "channel": 3,
      "note": 105,
      "start": 1.798,
      "duration": 0.0167,
      "velocity": 68,
      "chip": "ym2612"
    },
    {
      "channel": 4,
      "note": 107,
      "start": 1.7982,
      "duration": 0.0167,
      "velocity": 69,
      "chip": "ym2612"
    },
    {
      "channel": 3,
      "note": 105,
      "start": 1.8147,
      "duration": 0.0181,
      "velocity": 68,
      "chip": "ym2612"
    },
    {
      "channel": 4,
      "note": 107,
      "start": 1.8149,
      "duration": 0.0181,
      "velocity": 69,
      "chip": "ym2612"
    },
    {
      "channel": 1,
      "note": 60,
      "start": 1.8318,
      "duration": 0.0832,
      "velocity": 47,
      "chip": "ym2612"
    },
    {
      "channel": 2,
      "note": 32,
      "start": 1.8323,
      "duration": 0.0832,
      "velocity": 122,
      "chip": "ym2612"
    },
    {
      "channel": 3,
      "note": 105,
      "start": 1.8328,
      "duration": 0.0152,
      "velocity": 68,
      "chip": "ym2612"
    },
    {
      "channel": 4,
      "note": 107,
      "start": 1.8331,
      "duration": 0.0151,
      "velocity": 69,
      "chip": "ym2612"
    },
    {
      "channel": 3,
      "note": 105,
      "start": 1.848,
      "duration": 0.0167,
      "velocity": 68,
      "chip": "ym2612"
    },
    {
      "channel": 4,
      "note": 107,
      "start": 1.8482,
      "duration": 0.0167,
      "velocity": 69,
      "chip": "ym2612"
    },
    {
      "channel": 3,
      "note": 105,
      "start": 1.8647,
      "duration": 0.0167,
      "velocity": 68,
      "chip": "ym2612"
    },
    {
      "channel": 4,
      "note": 106,
      "start": 1.8649,
      "duration": 0.0167,
      "velocity": 69,
      "chip": "ym2612"
    },
    {
      "channel": 3,
      "note": 105,
      "start": 1.8813,
      "duration": 0.0167,
      "velocity": 68,
      "chip": "ym2612"
    },
    {
      "channel": 4,
      "note": 106,
      "start": 1.8815,
      "duration": 0.0167,
      "velocity": 69,
      "chip": "ym2612"
    },
    {
      "channel": 3,
      "note": 105,
      "start": 1.898,
      "duration": 0.0181,
      "velocity": 68,
      "chip": "ym2612"
    },
    {
      "channel": 4,
      "note": 106,
      "start": 1.8982,
      "duration": 0.0182,
      "velocity": 69,
      "chip": "ym2612"
    },
    {
      "channel": 1,
      "note": 63,
      "start": 1.9151,
      "duration": 0.4165,
      "velocity": 47,
      "chip": "ym2612"
    },
    {
      "channel": 2,
      "note": 34,
      "start": 1.9156,
      "duration": 0.0832,
      "velocity": 122,
      "chip": "ym2612"
    },
    {
      "channel": 3,
      "note": 105,
      "start": 1.9161,
      "duration": 0.0152,
      "velocity": 68,
      "chip": "ym2612"
    },
    {
      "channel": 4,
      "note": 106,
      "start": 1.9164,
      "duration": 0.0151,
      "velocity": 69,
      "chip": "ym2612"
    },
    {
      "channel": 3,
      "note": 104,
      "start": 1.9313,
      "duration": 0.0167,
      "velocity": 68,
      "chip": "ym2612"
    },
    {
      "channel": 4,
      "note": 106,
      "start": 1.9315,
      "duration": 0.0167,
      "velocity": 69,
      "chip": "ym2612"
    },
    {
      "channel": 3,
      "note": 104,
      "start": 1.948,
      "duration": 0.0167,
      "velocity": 68,
      "chip": "ym2612"
    },
    {
      "channel": 4,
      "note": 106,
      "start": 1.9483,
      "duration": 0.0167,
      "velocity": 69,
      "chip": "ym2612"
    },
    {
      "channel": 3,
      "note": 104,
      "start": 1.9647,
      "duration": 0.0167,
      "velocity": 68,
      "chip": "ym2612"
    },
    {
      "channel": 4,
      "note": 106,
      "start": 1.9649,
      "duration": 0.0167,
      "velocity": 69,
      "chip": "ym2612"
    },
    {
      "channel": 3,
      "note": 104,
      "start": 1.9813,
      "duration": 0.0182,
      "velocity": 68,
      "chip": "ym2612"
    },
    {
      "channel": 4,
      "note": 106,
      "start": 1.9816,
      "duration": 0.0181,
      "velocity": 69,
      "chip": "ym2612"
    },
    {
      "channel": 0,
      "note": 53,
      "start": 1.9985,
      "duration": 0.0831,
      "velocity": 47,
      "chip": "ym2612"
    },
    {
      "channel": 2,
      "note": 34,
      "start": 1.999,
      "duration": 0.1664,
      "velocity": 122,
      "chip": "ym2612"
    },
    {
      "channel": 3,
      "note": 104,
      "start": 1.9995,
      "duration": 0.0151,
      "velocity": 68,
      "chip": "ym2612"
    },
    {
      "channel": 4,
      "note": 106,
      "start": 1.9997,
      "duration": 0.0151,
      "velocity": 69,
      "chip": "ym2612"
    },
    {
      "channel": 3,
      "note": 104,
      "start": 2.0147,
      "duration": 0.0167,
      "velocity": 68,
      "chip": "ym2612"
    },
    {
      "channel": 4,
      "note": 106,
      "start": 2.0149,
      "duration": 0.0167,
      "velocity": 69,
      "chip": "ym2612"
    },
    {
      "channel": 3,
      "note": 104,
      "start": 2.0313,
      "duration": 0.0167,
      "velocity": 68,
      "chip": "ym2612"
    },
    {
      "channel": 4,
      "note": 105,
      "start": 2.0315,
      "duration": 0.0167,
      "velocity": 69,
      "chip": "ym2612"
    },
    {
      "channel": 3,
      "note": 104,
      "start": 2.048,
      "duration": 0.0167,
      "velocity": 68,
      "chip": "ym2612"
    },
    {
      "channel": 4,
      "note": 105,
      "start": 2.0482,
      "duration": 0.0167,
      "velocity": 69,
      "chip": "ym2612"
    },
    {
      "channel": 3,
      "note": 104,
      "start": 2.0647,
      "duration": 0.0177,
      "velocity": 68,
      "chip": "ym2612"
    },
    {
      "channel": 4,
      "note": 105,
      "start": 2.0649,
      "duration": 0.0177,
      "velocity": 69,
      "chip": "ym2612"
    },
    {
      "channel": 0,
      "note": 65,
      "start": 2.0817,
      "duration": 0.0832,
      "velocity": 47,
      "chip": "ym2612"
    },
    {
      "channel": 3,
      "note": 103,
      "start": 2.0824,
      "duration": 0.0156,
      "velocity": 68,
      "chip": "ym2612"
    },
    {
      "channel": 4,
      "note": 105,
      "start": 2.0826,
      "duration": 0.0156,
      "velocity": 69,
      "chip": "ym2612"
    },
    {
      "channel": 3,
      "note": 103,
      "start": 2.098,
      "duration": 0.0167,
      "velocity": 68,
      "chip": "ym2612"
    },
    {
      "channel": 4,
      "note": 105,
      "start": 2.0982,
      "duration": 0.0167,
      "velocity": 69,
      "chip": "ym2612"
    },
    {
      "channel": 3,
      "note": 103,
      "start": 2.1147,
      "duration": 0.0167,
      "velocity": 68,
      "chip": "ym2612"
    },
    {
      "channel": 4,
      "note": 105,
      "start": 2.1149,
      "duration": 0.0167,
      "velocity": 69,
      "chip": "ym2612"
    },
    {
      "channel": 3,
      "note": 103,
      "start": 2.1313,
      "duration": 0.0167,
      "velocity": 68,
      "chip": "ym2612"
    },
    {
      "channel": 4,
      "note": 105,
      "start": 2.1316,
      "duration": 0.0167,
      "velocity": 69,
      "chip": "ym2612"
    },
    {
      "channel": 3,
      "note": 103,
      "start": 2.148,
      "duration": 0.0181,
      "velocity": 68,
      "chip": "ym2612"
    },
    {
      "channel": 4,
      "note": 105,
      "start": 2.1483,
      "duration": 0.0181,
      "velocity": 69,
      "chip": "ym2612"
    },
    {
      "channel": 0,
      "note": 60,
      "start": 2.1651,
      "duration": 0.0832,
      "velocity": 47,
      "chip": "ym2612"
    },
    {
      "channel": 2,
      "note": 46,
      "start": 2.1656,
      "duration": 0.0832,
      "velocity": 122,
      "chip": "ym2612"
    },
    {
      "channel": 3,
      "note": 103,
      "start": 2.1661,
      "duration": 0.0152,
      "velocity": 68,
      "chip": "ym2612"
    },
    {
      "channel": 4,
      "note": 105,
      "start": 2.1664,
      "duration": 0.0152,
      "velocity": 69,
      "chip": "ym2612"
    },
    {
      "channel": 3,
      "note": 103,
      "start": 2.1813,
      "duration": 0.0167,
      "velocity": 68,
      "chip": "ym2612"
    },
    {
      "channel": 4,
      "note": 105,
      "start": 2.1816,
      "duration": 0.0167,
      "velocity": 69,
      "chip": "ym2612"
    },
    {
      "channel": 3,
      "note": 103,
      "start": 2.198,
      "duration": 0.0167,
      "velocity": 68,
      "chip": "ym2612"
    },
    {
      "channel": 4,
      "note": 104,
      "start": 2.1983,
      "duration": 0.0167,
      "velocity": 69,
      "chip": "ym2612"
    },
    {
      "channel": 3,
      "note": 102,
      "start": 2.2147,
      "duration": 0.0167,
      "velocity": 68,
      "chip": "ym2612"
    },
    {
      "channel": 4,
      "note": 104,
      "start": 2.2149,
      "duration": 0.0167,
      "velocity": 69,
      "chip": "ym2612"
    },
    {
      "channel": 3,
      "note": 102,
      "start": 2.2313,
      "duration": 0.0181,
      "velocity": 68,
      "chip": "ym2612"
    },
    {
      "channel": 4,
      "note": 104,
      "start": 2.2316,
      "duration": 0.0181,
      "velocity": 69,
      "chip": "ym2612"
    },
    {
      "channel": 0,
      "note": 63,
      "start": 2.2484,
      "duration": 0.4165,
      "velocity": 47,
      "chip": "ym2612"
    },
    {
      "channel": 2,
      "note": 34,
      "start": 2.249,
      "duration": 0.0832,
      "velocity": 122,
      "chip": "ym2612"
    },
    {
      "channel": 3,
      "note": 102,
      "start": 2.2495,
      "duration": 0.0152,
      "velocity": 68,
      "chip": "ym2612"
    },
    {
      "channel": 4,
      "note": 104,
      "start": 2.2497,
      "duration": 0.0151,
      "velocity": 69,
      "chip": "ym2612"
    },
    {
      "channel": 3,
      "note": 102,
      "start": 2.2647,
      "duration": 0.0167,
      "velocity": 68,
      "chip": "ym2612"
    },
    {
      "channel": 4,
      "note": 104,
      "start": 2.2649,
      "duration": 0.0167,
      "velocity": 69,
      "chip": "ym2612"
    },
    {
      "channel": 3,
      "note": 102,
      "start": 2.2813,
      "duration": 0.0167,
      "velocity": 68,
      "chip": "ym2612"
    },
    {
      "channel": 4,
      "note": 104,
      "start": 2.2815,
      "duration": 0.0167,
      "velocity": 69,
      "chip": "ym2612"
    },
    {
      "channel": 3,
      "note": 102,
      "start": 2.298,
      "duration": 0.0167,
      "velocity": 68,
      "chip": "ym2612"
    },
    {
      "channel": 4,
      "note": 104,
      "start": 2.2982,
      "duration": 0.0167,
      "velocity": 69,
      "chip": "ym2612"
    },
    {
      "channel": 3,
      "note": 102,
      "start": 2.3147,
      "duration": 0.0182,
      "velocity": 68,
      "chip": "ym2612"
    },
    {
      "channel": 4,
      "note": 104,
      "start": 2.3149,
      "duration": 0.0183,
      "velocity": 69,
      "chip": "ym2612"
    },
    {
      "channel": 1,
      "note": 53,
      "start": 2.3319,
      "duration": 0.0831,
      "velocity": 47,
      "chip": "ym2612"
    },
    {
      "channel": 2,
      "note": 44,
      "start": 2.3324,
      "duration": 0.0832,
      "velocity": 122,
      "chip": "ym2612"
    },
    {
      "channel": 3,
      "note": 102,
      "start": 2.3329,
      "duration": 0.0151,
      "velocity": 68,
      "chip": "ym2612"
    },
    {
      "channel": 4,
      "note": 104,
      "start": 2.3331,
      "duration": 0.0151,
      "velocity": 69,
      "chip": "ym2612"
    },
    {
      "channel": 3,
      "note": 101,
      "start": 2.348,
      "duration": 0.0167,
      "velocity": 68,
      "chip": "ym2612"
    },
    {
      "channel": 4,
      "note": 103,
      "start": 2.3482,
      "duration": 0.0167,
      "velocity": 69,
      "chip": "ym2612"
    },
    {
      "channel": 3,
      "note": 101,
      "start": 2.3647,
      "duration": 0.0167,
      "velocity": 68,
      "chip": "ym2612"
    },
    {
      "channel": 4,
      "note": 103,
      "start": 2.3649,
      "duration": 0.0167,
      "velocity": 69,
      "chip": "ym2612"
    },
    {
      "channel": 3,
      "note": 101,
      "start": 2.3813,
      "duration": 0.0167,
      "velocity": 68,
      "chip": "ym2612"
    },
    {
      "channel": 4,
      "note": 103,
      "start": 2.3815,
      "duration": 0.0167,
      "velocity": 69,
      "chip": "ym2612"
    },
    {
      "channel": 3,
      "note": 101,
      "start": 2.398,
      "duration": 0.0181,
      "velocity": 68,
      "chip": "ym2612"
    },
    {
      "channel": 4,
      "note": 103,
      "start": 2.3983,
      "duration": 0.0181,
      "velocity": 69,
      "chip": "ym2612"
    },
    {
      "channel": 1,
      "note": 65,
      "start": 2.4151,
      "duration": 0.0831,
      "velocity": 47,
      "chip": "ym2612"
    },
    {
      "channel": 2,
      "note": 46,
      "start": 2.4156,
      "duration": 0.0832,
      "velocity": 122,
      "chip": "ym2612"
    },
    {
      "channel": 3,
      "note": 101,
      "start": 2.4161,
      "duration": 0.0152,
      "velocity": 68,
      "chip": "ym2612"
    },
    {
      "channel": 4,
      "note": 103,
      "start": 2.4164,
      "duration": 0.0151,
      "velocity": 69,
      "chip": "ym2612"
    },
    {
      "channel": 3,
      "note": 101,
      "start": 2.4313,
      "duration": 0.0167,
      "velocity": 68,
      "chip": "ym2612"
    },
    {
      "channel": 4,
      "note": 103,
      "start": 2.4315,
      "duration": 0.0167,
      "velocity": 69,
      "chip": "ym2612"
    },
    {
      "channel": 3,
      "note": 101,
      "start": 2.448,
      "duration": 0.0167,
      "velocity": 68,
      "chip": "ym2612"
    },
    {
      "channel": 4,
      "note": 103,
      "start": 2.4482,
      "duration": 0.0167,
      "velocity": 69,
      "chip": "ym2612"
    },
    {
      "channel": 3,
      "note": 100,
      "start": 2.4647,
      "duration": 0.0167,
      "velocity": 68,
      "chip": "ym2612"
    },
    {
      "channel": 4,
      "note": 103,
      "start": 2.4649,
      "duration": 0.0167,
      "velocity": 69,
      "chip": "ym2612"
    },
    {
      "channel": 3,
      "note": 100,
      "start": 2.4813,
      "duration": 0.0181,
      "velocity": 68,
      "chip": "ym2612"
    },
    {
      "channel": 4,
      "note": 102,
      "start": 2.4815,
      "duration": 0.0182,
      "velocity": 69,
      "chip": "ym2612"
    },
    {
      "channel": 1,
      "note": 60,
      "start": 2.4985,
      "duration": 0.0831,
      "velocity": 47,
      "chip": "ym2612"
    },
    {
      "channel": 2,
      "note": 32,
      "start": 2.499,
      "duration": 0.0832,
      "velocity": 122,
      "chip": "ym2612"
    },
    {
      "channel": 3,
      "note": 100,
      "start": 2.4995,
      "duration": 0.0152,
      "velocity": 68,
      "chip": "ym2612"
    },
    {
      "channel": 4,
      "note": 102,
      "start": 2.4997,
      "duration": 0.0151,
      "velocity": 69,
      "chip": "ym2612"
    },
    {
      "channel": 3,
      "note": 100,
      "start": 2.5147,
      "duration": 0.0167,
      "velocity": 68,
      "chip": "ym2612"
    },
    {
      "channel": 4,
      "note": 102,
      "start": 2.5149,
      "duration": 0.0167,
      "velocity": 69,
      "chip": "ym2612"
    },
    {
      "channel": 3,
      "note": 100,
      "start": 2.5313,
      "duration": 0.0167,
      "velocity": 68,
      "chip": "ym2612"
    },
    {
      "channel": 4,
      "note": 102,
      "start": 2.5316,
      "duration": 0.0167,
      "velocity": 69,
      "chip": "ym2612"
    },
    {
      "channel": 3,
      "note": 100,
      "start": 2.548,
      "duration": 0.0167,
      "velocity": 68,
      "chip": "ym2612"
    },
    {
      "channel": 4,
      "note": 102,
      "start": 2.5483,
      "duration": 0.0167,
      "velocity": 69,
      "chip": "ym2612"
    },
    {
      "channel": 3,
      "note": 100,
      "start": 2.5647,
      "duration": 0.0181,
      "velocity": 68,
      "chip": "ym2612"
    },
    {
      "channel": 4,
      "note": 102,
      "start": 2.5649,
      "duration": 0.0181,
      "velocity": 69,
      "chip": "ym2612"
    },
    {
      "channel": 1,
      "note": 63,
      "start": 2.5818,
      "duration": 0.4165,
      "velocity": 47,
      "chip": "ym2612"
    },
    {
      "channel": 2,
      "note": 34,
      "start": 2.5823,
      "duration": 0.0832,
      "velocity": 122,
      "chip": "ym2612"
    },
    {
      "channel": 3,
      "note": 99,
      "start": 2.5828,
      "duration": 0.0152,
      "velocity": 68,
      "chip": "ym2612"
    },
    {
      "channel": 4,
      "note": 102,
      "start": 2.5831,
      "duration": 0.0151,
      "velocity": 69,
      "chip": "ym2612"
    },
    {
      "channel": 3,
      "note": 99,
      "start": 2.598,
      "duration": 0.0167,
      "velocity": 68,
      "chip": "ym2612"
    },
    {
      "channel": 4,
      "note": 102,
      "start": 2.5982,
      "duration": 0.0167,
      "velocity": 69,
      "chip": "ym2612"
    },
    {
      "channel": 3,
      "note": 99,
      "start": 2.6147,
      "duration": 0.0167,
      "velocity": 68,
      "chip": "ym2612"
    },
    {
      "channel": 4,
      "note": 101,
      "start": 2.6149,
      "duration": 0.0167,
      "velocity": 69,
      "chip": "ym2612"
    },
    {
      "channel": 3,
      "note": 99,
      "start": 2.6313,
      "duration": 0.0167,
      "velocity": 68,
      "chip": "ym2612"
    },
    {
      "channel": 4,
      "note": 101,
      "start": 2.6315,
      "duration": 0.0167,
      "velocity": 69,
      "chip": "ym2612"
    },
    {
      "channel": 3,
      "note": 99,
      "start": 2.648,
      "duration": 0.0182,
      "velocity": 68,
      "chip": "ym2612"
    },
    {
      "channel": 4,
      "note": 101,
      "start": 2.6482,
      "duration": 0.0183,
      "velocity": 69,
      "chip": "ym2612"
    },
    {
      "channel": 0,
      "note": 55,
      "start": 2.6651,
      "duration": 0.0831,
      "velocity": 47,
      "chip": "ym2612"
    },
    {
      "channel": 2,
      "note": 36,
      "start": 2.6657,
      "duration": 0.1664,
      "velocity": 122,
      "chip": "ym2612"
    },
    {
      "channel": 3,
      "note": 99,
      "start": 2.6662,
      "duration": 0.0151,
      "velocity": 68,
      "chip": "ym2612"
    },
    {
      "channel": 4,
      "note": 101,
      "start": 2.6665,
      "duration": 0.0151,
      "velocity": 69,
      "chip": "ym2612"
    },
    {
      "channel": 3,
      "note": 99,
      "start": 2.6813,
      "duration": 0.0167,
      "velocity": 68,
      "chip": "ym2612"
    },
    {
      "channel": 4,
      "note": 101,
      "start": 2.6815,
      "duration": 0.0167,
      "velocity": 69,
      "chip": "ym2612"
    },
    {
      "channel": 3,
      "note": 98,
      "start": 2.698,
      "duration": 0.0167,
      "velocity": 68,
      "chip": "ym2612"
    },
    {
      "channel": 4,
      "note": 101,
      "start": 2.6983,
      "duration": 0.0167,
      "velocity": 69,
      "chip": "ym2612"
    },
    {
      "channel": 3,
      "note": 98,
      "start": 2.7147,
      "duration": 0.0167,
      "velocity": 68,
      "chip": "ym2612"
    },
    {
      "channel": 4,
      "note": 101,
      "start": 2.7149,
      "duration": 0.0167,
      "velocity": 69,
      "chip": "ym2612"
    },
    {
      "channel": 3,
      "note": 98,
      "start": 2.7313,
      "duration": 0.0177,
      "velocity": 68,
      "chip": "ym2612"
    },
    {
      "channel": 4,
      "note": 101,
      "start": 2.7316,
      "duration": 0.0177,
      "velocity": 69,
      "chip": "ym2612"
    },
    {
      "channel": 0,
      "note": 67,
      "start": 2.7484,
      "duration": 0.0832,
      "velocity": 47,
      "chip": "ym2612"
    },
    {
      "channel": 3,
      "note": 98,
      "start": 2.749,
      "duration": 0.0156,
      "velocity": 68,
      "chip": "ym2612"
    },
    {
      "channel": 4,
      "note": 100,
      "start": 2.7493,
      "duration": 0.0156,
      "velocity": 69,
      "chip": "ym2612"
    },
    {
      "channel": 3,
      "note": 98,
      "start": 2.7647,
      "duration": 0.0167,
      "velocity": 68,
      "chip": "ym2612"
    },
    {
      "channel": 4,
      "note": 100,
      "start": 2.7649,
      "duration": 0.0167,
      "velocity": 69,
      "chip": "ym2612"
    },
    {
      "channel": 3,
      "note": 98,
      "start": 2.7813,
      "duration": 0.0167,
      "velocity": 68,
      "chip": "ym2612"
    },
    {
      "channel": 4,
      "note": 100,
      "start": 2.7815,
      "duration": 0.0167,
      "velocity": 69,
      "chip": "ym2612"
    },
    {
      "channel": 3,
      "note": 97,
      "start": 2.798,
      "duration": 0.0167,
      "velocity": 68,
      "chip": "ym2612"
    },
    {
      "channel": 4,
      "note": 100,
      "start": 2.7982,
      "duration": 0.0167,
      "velocity": 69,
      "chip": "ym2612"
    },
    {
      "channel": 3,
      "note": 97,
      "start": 2.8147,
      "duration": 0.0181,
      "velocity": 68,
      "chip": "ym2612"
    },
    {
      "channel": 4,
      "note": 100,
      "start": 2.8149,
      "duration": 0.0182,
      "velocity": 69,
      "chip": "ym2612"
    },
    {
      "channel": 0,
      "note": 62,
      "start": 2.8317,
      "duration": 0.0832,
      "velocity": 47,
      "chip": "ym2612"
    },
    {
      "channel": 2,
      "note": 48,
      "start": 2.8323,
      "duration": 0.0832,
      "velocity": 122,
      "chip": "ym2612"
    },
    {
      "channel": 3,
      "note": 97,
      "start": 2.8328,
      "duration": 0.0152,
      "velocity": 68,
      "chip": "ym2612"
    },
    {
      "channel": 4,
      "note": 100,
      "start": 2.8331,
      "duration": 0.0151,
      "velocity": 69,
      "chip": "ym2612"
    },
    {
      "channel": 3,
      "note": 97,
      "start": 2.848,
      "duration": 0.0167,
      "velocity": 68,
      "chip": "ym2612"
    },
    {
      "channel": 4,
      "note": 100,
      "start": 2.8482,
      "duration": 0.0167,
      "velocity": 69,
      "chip": "ym2612"
    },
    {
      "channel": 3,
      "note": 97,
      "start": 2.8647,
      "duration": 0.0167,
      "velocity": 68,
      "chip": "ym2612"
    },
    {
      "channel": 4,
      "note": 99,
      "start": 2.8649,
      "duration": 0.0167,
      "velocity": 69,
      "chip": "ym2612"
    },
    {
      "channel": 3,
      "note": 97,
      "start": 2.8813,
      "duration": 0.0167,
      "velocity": 68,
      "chip": "ym2612"
    },
    {
      "channel": 4,
      "note": 99,
      "start": 2.8816,
      "duration": 0.0166,
      "velocity": 69,
      "chip": "ym2612"
    },
    {
      "channel": 3,
      "note": 96,
      "start": 2.898,
      "duration": 0.0181,
      "velocity": 68,
      "chip": "ym2612"
    },
    {
      "channel": 4,
      "note": 99,
      "start": 2.8982,
      "duration": 0.0182,
      "velocity": 69,
      "chip": "ym2612"
    },
    {
      "channel": 0,
      "note": 65,
      "start": 2.9151,
      "duration": 0.4165,
      "velocity": 47,
      "chip": "ym2612"
    },
    {
      "channel": 2,
      "note": 36,
      "start": 2.9156,
      "duration": 0.0832,
      "velocity": 122,
      "chip": "ym2612"
    },
    {
      "channel": 3,
      "note": 96,
      "start": 2.9161,
      "duration": 0.0152,
      "velocity": 68,
      "chip": "ym2612"
    },
    {
      "channel": 4,
      "note": 99,
      "start": 2.9164,
      "duration": 0.0151,
      "velocity": 69,
      "chip": "ym2612"
    },
    {
      "channel": 3,
      "note": 96,
      "start": 2.9313,
      "duration": 0.0167,
      "velocity": 68,
      "chip": "ym2612"
    },
    {
      "channel": 4,
      "note": 99,
      "start": 2.9315,
      "duration": 0.0167,
      "velocity": 69,
      "chip": "ym2612"
    },
    {
      "channel": 3,
      "note": 96,
      "start": 2.948,
      "duration": 0.0167,
      "velocity": 68,
      "chip": "ym2612"
    },
    {
      "channel": 4,
      "note": 99,
      "start": 2.9482,
      "duration": 0.0167,
      "velocity": 69,
      "chip": "ym2612"
    },
    {
      "channel": 3,
      "note": 96,
      "start": 2.9647,
      "duration": 0.0167,
      "velocity": 68,
      "chip": "ym2612"
    },
    {
      "channel": 4,
      "note": 98,
      "start": 2.9649,
      "duration": 0.0167,
      "velocity": 69,
      "chip": "ym2612"
    },
    {
      "channel": 3,
      "note": 96,
      "start": 2.9813,
      "duration": 0.0182,
      "velocity": 68,
      "chip": "ym2612"
    },
    {
      "channel": 4,
      "note": 98,
      "start": 2.9815,
      "duration": 0.0183,
      "velocity": 69,
      "chip": "ym2612"
    },
    {
      "channel": 1,
      "note": 55,
      "start": 2.9985,
      "duration": 0.0831,
      "velocity": 47,
      "chip": "ym2612"
    },
    {
      "channel": 2,
      "note": 46,
      "start": 2.999,
      "duration": 0.0831,
      "velocity": 122,
      "chip": "ym2612"
    },
    {
      "channel": 3,
      "note": 95,
      "start": 2.9995,
      "duration": 0.0151,
      "velocity": 68,
      "chip": "ym2612"
    },
    {
      "channel": 4,
      "note": 98,
      "start": 2.9998,
      "duration": 0.0151,
      "velocity": 69,
      "chip": "ym2612"
    },
    {
      "channel": 3,
      "note": 95,
      "start": 3.0147,
      "duration": 0.0167,
      "velocity": 68,
      "chip": "ym2612"
    },
    {
      "channel": 4,
      "note": 98,
      "start": 3.0149,
      "duration": 0.0167,
      "velocity": 69,
      "chip": "ym2612"
    },
    {
      "channel": 3,
      "note": 95,
      "start": 3.0313,
      "duration": 0.0167,
      "velocity": 68,
      "chip": "ym2612"
    },
    {
      "channel": 4,
      "note": 98,
      "start": 3.0316,
      "duration": 0.0167,
      "velocity": 69,
      "chip": "ym2612"
    },
    {
      "channel": 3,
      "note": 95,
      "start": 3.048,
      "duration": 0.0167,
      "velocity": 68,
      "chip": "ym2612"
    },
    {
      "channel": 4,
      "note": 98,
      "start": 3.0483,
      "duration": 0.0167,
      "velocity": 69,
      "chip": "ym2612"
    },
    {
      "channel": 3,
      "note": 95,
      "start": 3.0647,
      "duration": 0.0181,
      "velocity": 68,
      "chip": "ym2612"
    },
    {
      "channel": 4,
      "note": 98,
      "start": 3.0649,
      "duration": 0.0181,
      "velocity": 69,
      "chip": "ym2612"
    },
    {
      "channel": 1,
      "note": 67,
      "start": 3.0818,
      "duration": 0.0832,
      "velocity": 47,
      "chip": "ym2612"
    },
    {
      "channel": 2,
      "note": 48,
      "start": 3.0823,
      "duration": 0.0832,
      "velocity": 122,
      "chip": "ym2612"
    },
    {
      "channel": 3,
      "note": 94,
      "start": 3.0828,
      "duration": 0.0152,
      "velocity": 68,
      "chip": "ym2612"
    },
    {
      "channel": 4,
      "note": 97,
      "start": 3.0831,
      "duration": 0.0151,
      "velocity": 69,
      "chip": "ym2612"
    },
    {
      "channel": 3,
      "note": 94,
      "start": 3.098,
      "duration": 0.0167,
      "velocity": 68,
      "chip": "ym2612"
    },
    {
      "channel": 4,
      "note": 97,
      "start": 3.0982,
      "duration": 0.0167,
      "velocity": 69,
      "chip": "ym2612"
    },
    {
      "channel": 3,
      "note": 94,
      "start": 3.1147,
      "duration": 0.0167,
      "velocity": 68,
      "chip": "ym2612"
    },
    {
      "channel": 4,
      "note": 97,
      "start": 3.1149,
      "duration": 0.0167,
      "velocity": 69,
      "chip": "ym2612"
    },
    {
      "channel": 3,
      "note": 94,
      "start": 3.1313,
      "duration": 0.0167,
      "velocity": 68,
      "chip": "ym2612"
    },
    {
      "channel": 4,
      "note": 97,
      "start": 3.1315,
      "duration": 0.0167,
      "velocity": 69,
      "chip": "ym2612"
    },
    {
      "channel": 3,
      "note": 94,
      "start": 3.148,
      "duration": 0.0181,
      "velocity": 68,
      "chip": "ym2612"
    },
    {
      "channel": 4,
      "note": 97,
      "start": 3.1482,
      "duration": 0.0182,
      "velocity": 69,
      "chip": "ym2612"
    },
    {
      "channel": 1,
      "note": 62,
      "start": 3.1651,
      "duration": 0.0831,
      "velocity": 47,
      "chip": "ym2612"
    },
    {
      "channel": 2,
      "note": 36,
      "start": 3.1656,
      "duration": 0.0832,
      "velocity": 122,
      "chip": "ym2612"
    },
    {
      "channel": 3,
      "note": 93,
      "start": 3.1661,
      "duration": 0.0152,
      "velocity": 68,
      "chip": "ym2612"
    },
    {
      "channel": 4,
      "note": 97,
      "start": 3.1664,
      "duration": 0.0151,
      "velocity": 69,
      "chip": "ym2612"
    },
    {
      "channel": 3,
      "note": 93,
      "start": 3.1813,
      "duration": 0.0167,
      "velocity": 68,
      "chip": "ym2612"
    },
    {
      "channel": 4,
      "note": 96,
      "start": 3.1815,
      "duration": 0.0167,
      "velocity": 69,
      "chip": "ym2612"
    },
    {
      "channel": 3,
      "note": 93,
      "start": 3.198,
      "duration": 0.0167,
      "velocity": 68,
      "chip": "ym2612"
    },
    {
      "channel": 4,
      "note": 96,
      "start": 3.1982,
      "duration": 0.0167,
      "velocity": 69,
      "chip": "ym2612"
    },
    {
      "channel": 3,
      "note": 93,
      "start": 3.2147,
      "duration": 0.0167,
      "velocity": 68,
      "chip": "ym2612"
    },
    {
      "channel": 4,
      "note": 96,
      "start": 3.2149,
      "duration": 0.0167,
      "velocity": 69,
      "chip": "ym2612"
    },
    {
      "channel": 3,
      "note": 93,
      "start": 3.2313,
      "duration": 0.0181,
      "velocity": 68,
      "chip": "ym2612"
    },
    {
      "channel": 4,
      "note": 96,
      "start": 3.2316,
      "duration": 0.0181,
      "velocity": 69,
      "chip": "ym2612"
    },
    {
      "channel": 1,
      "note": 65,
      "start": 3.2485,
      "duration": 0.4165,
      "velocity": 47,
      "chip": "ym2612"
    },
    {
      "channel": 2,
      "note": 34,
      "start": 3.249,
      "duration": 0.0832,
      "velocity": 122,
      "chip": "ym2612"
    },
    {
      "channel": 3,
      "note": 92,
      "start": 3.2495,
      "duration": 0.0152,
      "velocity": 68,
      "chip": "ym2612"
    },
    {
      "channel": 4,
      "note": 96,
      "start": 3.2497,
      "duration": 0.0151,
      "velocity": 69,
      "chip": "ym2612"
    },
    {
      "channel": 3,
      "note": 92,
      "start": 3.2647,
      "duration": 0.0167,
      "velocity": 68,
      "chip": "ym2612"
    },
    {
      "channel": 4,
      "note": 95,
      "start": 3.2649,
      "duration": 0.0167,
      "velocity": 69,
      "chip": "ym2612"
    },
    {
      "channel": 3,
      "note": 92,
      "start": 3.2813,
      "duration": 0.0167,
      "velocity": 68,
      "chip": "ym2612"
    },
    {
      "channel": 4,
      "note": 95,
      "start": 3.2815,
      "duration": 0.0167,
      "velocity": 69,
      "chip": "ym2612"
    },
    {
      "channel": 3,
      "note": 92,
      "start": 3.298,
      "duration": 0.0167,
      "velocity": 68,
      "chip": "ym2612"
    },
    {
      "channel": 4,
      "note": 95,
      "start": 3.2982,
      "duration": 0.0167,
      "velocity": 69,
      "chip": "ym2612"
    },
    {
      "channel": 3,
      "note": 91,
      "start": 3.3147,
      "duration": 0.0182,
      "velocity": 68,
      "chip": "ym2612"
    },
    {
      "channel": 4,
      "note": 95,
      "start": 3.3149,
      "duration": 0.0183,
      "velocity": 69,
      "chip": "ym2612"
    },
    {
      "channel": 0,
      "note": 55,
      "start": 3.3318,
      "duration": 0.0831,
      "velocity": 47,
      "chip": "ym2612"
    },
    {
      "channel": 2,
      "note": 36,
      "start": 3.3324,
      "duration": 0.1664,
      "velocity": 122,
      "chip": "ym2612"
    },
    {
      "channel": 3,
      "note": 91,
      "start": 3.3329,
      "duration": 0.0151,
      "velocity": 68,
      "chip": "ym2612"
    },
    {
      "channel": 4,
      "note": 95,
      "start": 3.3331,
      "duration": 0.0151,
      "velocity": 69,
      "chip": "ym2612"
    },
    {
      "channel": 3,
      "note": 91,
      "start": 3.348,
      "duration": 0.0167,
      "velocity": 68,
      "chip": "ym2612"
    },
    {
      "channel": 4,
      "note": 94,
      "start": 3.3482,
      "duration": 0.0167,
      "velocity": 69,
      "chip": "ym2612"
    },
    {
      "channel": 3,
      "note": 91,
      "start": 3.3647,
      "duration": 0.0167,
      "velocity": 68,
      "chip": "ym2612"
    },
    {
      "channel": 4,
      "note": 94,
      "start": 3.3649,
      "duration": 0.0166,
      "velocity": 69,
      "chip": "ym2612"
    },
    {
      "channel": 3,
      "note": 91,
      "start": 3.3813,
      "duration": 0.0167,
      "velocity": 68,
      "chip": "ym2612"
    },
    {
      "channel": 4,
      "note": 94,
      "start": 3.3815,
      "duration": 0.0167,
      "velocity": 69,
      "chip": "ym2612"
    },
    {
      "channel": 3,
      "note": 90,
      "start": 3.398,
      "duration": 0.0177,
      "velocity": 68,
      "chip": "ym2612"
    },
    {
      "channel": 4,
      "note": 94,
      "start": 3.3982,
      "duration": 0.0177,
      "velocity": 69,
      "chip": "ym2612"
    },
    {
      "channel": 0,
      "note": 67,
      "start": 3.4151,
      "duration": 0.0832,
      "velocity": 47,
      "chip": "ym2612"
    },
    {
      "channel": 3,
      "note": 90,
      "start": 3.4157,
      "duration": 0.0156,
      "velocity": 68,
      "chip": "ym2612"
    },
    {
      "channel": 4,
      "note": 94,
      "start": 3.4159,
      "duration": 0.0156,
      "velocity": 69,
      "chip": "ym2612"
    },
    {
      "channel": 3,
      "note": 90,
      "start": 3.4313,
      "duration": 0.0167,
      "velocity": 68,
      "chip": "ym2612"
    },
    {
      "channel": 4,
      "note": 93,
      "start": 3.4315,
      "duration": 0.0167,
      "velocity": 69,
      "chip": "ym2612"
    },
    {
      "channel": 3,
      "note": 90,
      "start": 3.448,
      "duration": 0.0167,
      "velocity": 68,
      "chip": "ym2612"
    },
    {
      "channel": 4,
      "note": 93,
      "start": 3.4482,
      "duration": 0.0167,
      "velocity": 69,
      "chip": "ym2612"
    },
    {
      "channel": 3,
      "note": 89,
      "start": 3.4647,
      "duration": 0.0167,
      "velocity": 68,
      "chip": "ym2612"
    },
    {
      "channel": 4,
      "note": 93,
      "start": 3.4649,
      "duration": 0.0167,
      "velocity": 69,
      "chip": "ym2612"
    },
    {
      "channel": 3,
      "note": 89,
      "start": 3.4813,
      "duration": 0.0181,
      "velocity": 68,
      "chip": "ym2612"
    },
    {
      "channel": 4,
      "note": 93,
      "start": 3.4815,
      "duration": 0.0182,
      "velocity": 69,
      "chip": "ym2612"
    },
    {
      "channel": 0,
      "note": 62,
      "start": 3.4984,
      "duration": 0.0832,
      "velocity": 47,
      "chip": "ym2612"
    },
    {
      "channel": 2,
      "note": 48,
      "start": 3.499,
      "duration": 0.0832,
      "velocity": 122,
      "chip": "ym2612"
    },
    {
      "channel": 3,
      "note": 89,
      "start": 3.4995,
      "duration": 0.0152,
      "velocity": 68,
      "chip": "ym2612"
    },
    {
      "channel": 4,
      "note": 93,
      "start": 3.4997,
      "duration": 0.0151,
      "velocity": 69,
      "chip": "ym2612"
    },
    {
      "channel": 3,
      "note": 88,
      "start": 3.5147,
      "duration": 0.0167,
      "velocity": 68,
      "chip": "ym2612"
    },
    {
      "channel": 4,
      "note": 92,
      "start": 3.5149,
      "duration": 0.0167,
      "velocity": 69,
      "chip": "ym2612"
    },
    {
      "channel": 3,
      "note": 88,
      "start": 3.5313,
      "duration": 0.0167,
      "velocity": 68,
      "chip": "ym2612"
    },
    {
      "channel": 4,
      "note": 92,
      "start": 3.5316,
      "duration": 0.0167,
      "velocity": 69,
      "chip": "ym2612"
    },
    {
      "channel": 3,
      "note": 88,
      "start": 3.548,
      "duration": 0.0167,
      "velocity": 68,
      "chip": "ym2612"
    },
    {
      "channel": 4,
      "note": 92,
      "start": 3.5483,
      "duration": 0.0167,
      "velocity": 69,
      "chip": "ym2612"
    },
    {
      "channel": 3,
      "note": 88,
      "start": 3.5647,
      "duration": 0.0181,
      "velocity": 68,
      "chip": "ym2612"
    },
    {
      "channel": 4,
      "note": 92,
      "start": 3.5649,
      "duration": 0.0181,
      "velocity": 69,
      "chip": "ym2612"
    },
    {
      "channel": 0,
      "note": 65,
      "start": 3.5817,
      "duration": 0.4166,
      "velocity": 47,
      "chip": "ym2612"
    },
    {
      "channel": 2,
      "note": 36,
      "start": 3.5823,
      "duration": 0.0832,
      "velocity": 122,
      "chip": "ym2612"
    },
    {
      "channel": 3,
      "note": 87,
      "start": 3.5828,
      "duration": 0.0152,
      "velocity": 68,
      "chip": "ym2612"
    },
    {
      "channel": 4,
      "note": 92,
      "start": 3.5831,
      "duration": 0.0152,
      "velocity": 69,
      "chip": "ym2612"
    },
    {
      "channel": 3,
      "note": 87,
      "start": 3.598,
      "duration": 0.0167,
      "velocity": 68,
      "chip": "ym2612"
    },
    {
      "channel": 4,
      "note": 91,
      "start": 3.5983,
      "duration": 0.0167,
      "velocity": 69,
      "chip": "ym2612"
    },
    {
      "channel": 3,
      "note": 87,
      "start": 3.6147,
      "duration": 0.0167,
      "velocity": 68,
      "chip": "ym2612"
    },
    {
      "channel": 4,
      "note": 91,
      "start": 3.6149,
      "duration": 0.0167,
      "velocity": 69,
      "chip": "ym2612"
    },
    {
      "channel": 3,
      "note": 86,
      "start": 3.6313,
      "duration": 0.0167,
      "velocity": 68,
      "chip": "ym2612"
    },
    {
      "channel": 4,
      "note": 91,
      "start": 3.6316,
      "duration": 0.0167,
      "velocity": 69,
      "chip": "ym2612"
    },
    {
      "channel": 3,
      "note": 86,
      "start": 3.648,
      "duration": 0.0182,
      "velocity": 68,
      "chip": "ym2612"
    },
    {
      "channel": 4,
      "note": 91,
      "start": 3.6483,
      "duration": 0.0181,
      "velocity": 69,
      "chip": "ym2612"
    },
    {
      "channel": 1,
      "note": 55,
      "start": 3.6652,
      "duration": 0.0831,
      "velocity": 47,
      "chip": "ym2612"
    },
    {
      "channel": 2,
      "note": 46,
      "start": 3.6657,
      "duration": 0.0831,
      "velocity": 122,
      "chip": "ym2612"
    },
    {
      "channel": 3,
      "note": 86,
      "start": 3.6662,
      "duration": 0.0151,
      "velocity": 68,
      "chip": "ym2612"
    },
    {
      "channel": 4,
      "note": 90,
      "start": 3.6664,
      "duration": 0.0151,
      "velocity": 69,
      "chip": "ym2612"
    },
    {
      "channel": 3,
      "note": 85,
      "start": 3.6813,
      "duration": 0.0167,
      "velocity": 68,
      "chip": "ym2612"
    },
    {
      "channel": 4,
      "note": 90,
      "start": 3.6815,
      "duration": 0.0167,
      "velocity": 69,
      "chip": "ym2612"
    },
    {
      "channel": 3,
      "note": 85,
      "start": 3.698,
      "duration": 0.0167,
      "velocity": 68,
      "chip": "ym2612"
    },
    {
      "channel": 4,
      "note": 90,
      "start": 3.6982,
      "duration": 0.0167,
      "velocity": 69,
      "chip": "ym2612"
    },
    {
      "channel": 3,
      "note": 85,
      "start": 3.7147,
      "duration": 0.0167,
      "velocity": 68,
      "chip": "ym2612"
    },
    {
      "channel": 4,
      "note": 90,
      "start": 3.7149,
      "duration": 0.0167,
      "velocity": 69,
      "chip": "ym2612"
    },
    {
      "channel": 3,
      "note": 84,
      "start": 3.7313,
      "duration": 0.0181,
      "velocity": 68,
      "chip": "ym2612"
    },
    {
      "channel": 4,
      "note": 89,
      "start": 3.7315,
      "duration": 0.0182,
      "velocity": 69,
      "chip": "ym2612"
    },
    {
      "channel": 1,
      "note": 67,
      "start": 3.7485,
      "duration": 0.0831,
      "velocity": 47,
      "chip": "ym2612"
    },
    {
      "channel": 2,
      "note": 48,
      "start": 3.749,
      "duration": 0.0832,
      "velocity": 122,
      "chip": "ym2612"
    },
    {
      "channel": 3,
      "note": 84,
      "start": 3.7495,
      "duration": 0.0152,
      "velocity": 68,
      "chip": "ym2612"
    },
    {
      "channel": 4,
      "note": 89,
      "start": 3.7497,
      "duration": 0.0151,
      "velocity": 69,
      "chip": "ym2612"
    },
    {
      "channel": 3,
      "note": 84,
      "start": 3.7647,
      "duration": 0.0167,
      "velocity": 68,
      "chip": "ym2612"
    },
    {
      "channel": 4,
      "note": 89,
      "start": 3.7649,
      "duration": 0.0167,
      "velocity": 69,
      "chip": "ym2612"
    },
    {
      "channel": 3,
      "note": 83,
      "start": 3.7813,
      "duration": 0.0167,
      "velocity": 68,
      "chip": "ym2612"
    },
    {
      "channel": 4,
      "note": 89,
      "start": 3.7816,
      "duration": 0.0167,
      "velocity": 69,
      "chip": "ym2612"
    },
    {
      "channel": 3,
      "note": 83,
      "start": 3.798,
      "duration": 0.0167,
      "velocity": 68,
      "chip": "ym2612"
    },
    {
      "channel": 4,
      "note": 88,
      "start": 3.7983,
      "duration": 0.0167,
      "velocity": 69,
      "chip": "ym2612"
    },
    {
      "channel": 3,
      "note": 83,
      "start": 3.8147,
      "duration": 0.0181,
      "velocity": 68,
      "chip": "ym2612"
    },
    {
      "channel": 4,
      "note": 88,
      "start": 3.8149,
      "duration": 0.0181,
      "velocity": 69,
      "chip": "ym2612"
    },
    {
      "channel": 1,
      "note": 62,
      "start": 3.8318,
      "duration": 0.0832,
      "velocity": 47,
      "chip": "ym2612"
    },
    {
      "channel": 2,
      "note": 36,
      "start": 3.8323,
      "duration": 0.0832,
      "velocity": 122,
      "chip": "ym2612"
    },
    {
      "channel": 3,
      "note": 82,
      "start": 3.8328,
      "duration": 0.0152,
      "velocity": 68,
      "chip": "ym2612"
    },
    {
      "channel": 4,
      "note": 88,
      "start": 3.8331,
      "duration": 0.0151,
      "velocity": 69,
      "chip": "ym2612"
    },
    {
      "channel": 3,
      "note": 82,
      "start": 3.848,
      "duration": 0.0167,
      "velocity": 68,
      "chip": "ym2612"
    },
    {
      "channel": 4,
      "note": 87,
      "start": 3.8482,
      "duration": 0.0167,
      "velocity": 69,
      "chip": "ym2612"
    },
    {
      "channel": 3,
      "note": 81,
      "start": 3.8647,
      "duration": 0.0167,
      "velocity": 68,
      "chip": "ym2612"
    },
    {
      "channel": 4,
      "note": 87,
      "start": 3.8649,
      "duration": 0.0167,
      "velocity": 69,
      "chip": "ym2612"
    },
    {
      "channel": 3,
      "note": 81,
      "start": 3.8813,
      "duration": 0.0167,
      "velocity": 68,
      "chip": "ym2612"
    },
    {
      "channel": 4,
      "note": 87,
      "start": 3.8815,
      "duration": 0.0167,
      "velocity": 69,
      "chip": "ym2612"
    },
    {
      "channel": 3,
      "note": 81,
      "start": 3.898,
      "duration": 0.0181,
      "velocity": 68,
      "chip": "ym2612"
    },
    {
      "channel": 4,
      "note": 86,
      "start": 3.8982,
      "duration": 0.0182,
      "velocity": 69,
      "chip": "ym2612"
    },
    {
      "channel": 1,
      "note": 65,
      "start": 3.9151,
      "duration": 0.4165,
      "velocity": 47,
      "chip": "ym2612"
    },
    {
      "channel": 2,
      "note": 34,
      "start": 3.9156,
      "duration": 0.0833,
      "velocity": 122,
      "chip": "ym2612"
    },
    {
      "channel": 3,
      "note": 80,
      "start": 3.9161,
      "duration": 0.0152,
      "velocity": 68,
      "chip": "ym2612"
    },
    {
      "channel": 4,
      "note": 86,
      "start": 3.9164,
      "duration": 0.0151,
      "velocity": 69,
      "chip": "ym2612"
    },
    {
      "channel": 3,
      "note": 80,
      "start": 3.9313,
      "duration": 0.0167,
      "velocity": 68,
      "chip": "ym2612"
    },
    {
      "channel": 4,
      "note": 86,
      "start": 3.9315,
      "duration": 0.0167,
      "velocity": 69,
      "chip": "ym2612"
    },
    {
      "channel": 3,
      "note": 79,
      "start": 3.948,
      "duration": 0.0167,
      "velocity": 68,
      "chip": "ym2612"
    },
    {
      "channel": 4,
      "note": 86,
      "start": 3.9483,
      "duration": 0.0167,
      "velocity": 69,
      "chip": "ym2612"
    },
    {
      "channel": 3,
      "note": 79,
      "start": 3.9647,
      "duration": 0.0167,
      "velocity": 68,
      "chip": "ym2612"
    },
    {
      "channel": 4,
      "note": 85,
      "start": 3.9649,
      "duration": 0.0167,
      "velocity": 69,
      "chip": "ym2612"
    },
    {
      "channel": 3,
      "note": 78,
      "start": 3.9813,
      "duration": 0.0185,
      "velocity": 68,
      "chip": "ym2612"
    },
    {
      "channel": 4,
      "note": 85,
      "start": 3.9816,
      "duration": 0.0185,
      "velocity": 69,
      "chip": "ym2612"
    },
    {
      "channel": 0,
      "note": 52,
      "start": 3.9985,
      "duration": 0.0831,
      "velocity": 47,
      "chip": "ym2612"
    },
    {
      "channel": 2,
      "note": 33,
      "start": 3.9991,
      "duration": 0.1663,
      "velocity": 122,
      "chip": "ym2612"
    },
    {
      "channel": 3,
      "note": 79,
      "start": 3.9998,
      "duration": 0.0149,
      "velocity": 68,
      "chip": "ym2612"
    },
    {
      "channel": 4,
      "note": 85,
      "start": 4.0,
      "duration": 0.0148,
      "velocity": 69,
      "chip": "ym2612"
    },
    {
      "channel": 3,
      "note": 79,
      "start": 4.0147,
      "duration": 0.0167,
      "velocity": 68,
      "chip": "ym2612"
    },
    {
      "channel": 4,
      "note": 86,
      "start": 4.0149,
      "duration": 0.0167,
      "velocity": 69,
      "chip": "ym2612"
    },
    {
      "channel": 3,
      "note": 80,
      "start": 4.0313,
      "duration": 0.0167,
      "velocity": 68,
      "chip": "ym2612"
    },
    {
      "channel": 4,
      "note": 86,
      "start": 4.0315,
      "duration": 0.0167,
      "velocity": 69,
      "chip": "ym2612"
    },
    {
      "channel": 3,
      "note": 80,
      "start": 4.048,
      "duration": 0.0167,
      "velocity": 68,
      "chip": "ym2612"
    },
    {
      "channel": 4,
      "note": 86,
      "start": 4.0482,
      "duration": 0.0167,
      "velocity": 69,
      "chip": "ym2612"
    },
    {
      "channel": 3,
      "note": 81,
      "start": 4.0647,
      "duration": 0.0178,
      "velocity": 68,
      "chip": "ym2612"
    },
    {
      "channel": 4,
      "note": 86,
      "start": 4.0649,
      "duration": 0.0178,
      "velocity": 69,
      "chip": "ym2612"
    },
    {
      "channel": 0,
      "note": 64,
      "start": 4.0818,
      "duration": 0.0831,
      "velocity": 47,
      "chip": "ym2612"
    },
    {
      "channel": 3,
      "note": 81,
      "start": 4.0824,
      "duration": 0.0156,
      "velocity": 68,
      "chip": "ym2612"
    },
    {
      "channel": 4,
      "note": 87,
      "start": 4.0827,
      "duration": 0.0156,
      "velocity": 69,
      "chip": "ym2612"
    },
    {
      "channel": 3,
      "note": 81,
      "start": 4.098,
      "duration": 0.0167,
      "velocity": 68,
      "chip": "ym2612"
    },
    {
      "channel": 4,
      "note": 87,
      "start": 4.0983,
      "duration": 0.0167,
      "velocity": 69,
      "chip": "ym2612"
    },
    {
      "channel": 3,
      "note": 82,
      "start": 4.1147,
      "duration": 0.0167,
      "velocity": 68,
      "chip": "ym2612"
    },
    {
      "channel": 4,
      "note": 87,
      "start": 4.1149,
      "duration": 0.0167,
      "velocity": 69,
      "chip": "ym2612"
    },
    {
      "channel": 3,
      "note": 82,
      "start": 4.1313,
      "duration": 0.0167,
      "velocity": 68,
      "chip": "ym2612"
    },
    {
      "channel": 4,
      "note": 88,
      "start": 4.1316,
      "duration": 0.0167,
      "velocity": 69,
      "chip": "ym2612"
    },
    {
      "channel": 3,
      "note": 83,
      "start": 4.148,
      "duration": 0.0181,
      "velocity": 68,
      "chip": "ym2612"
    },
    {
      "channel": 4,
      "note": 88,
      "start": 4.1483,
      "duration": 0.0181,
      "velocity": 69,
      "chip": "ym2612"
    },
    {
      "channel": 0,
      "note": 59,
      "start": 4.1651,
      "duration": 0.0832,
      "velocity": 47,
      "chip": "ym2612"
    },
    {
      "channel": 2,
      "note": 45,
      "start": 4.1656,
      "duration": 0.0832,
      "velocity": 122,
      "chip": "ym2612"
    },
    {
      "channel": 3,
      "note": 83,
      "start": 4.1661,
      "duration": 0.0152,
      "velocity": 68,
      "chip": "ym2612"
    },
    {
      "channel": 4,
      "note": 88,
      "start": 4.1664,
      "duration": 0.0151,
      "velocity": 69,
      "chip": "ym2612"
    },
    {
      "channel": 3,
      "note": 83,
      "start": 4.1813,
      "duration": 0.0167,
      "velocity": 68,
      "chip": "ym2612"
    },
    {
      "channel": 4,
      "note": 89,
      "start": 4.1815,
      "duration": 0.0167,
      "velocity": 69,
      "chip": "ym2612"
    },
    {
      "channel": 3,
      "note": 84,
      "start": 4.198,
      "duration": 0.0167,
      "velocity": 68,
      "chip": "ym2612"
    },
    {
      "channel": 4,
      "note": 89,
      "start": 4.1982,
      "duration": 0.0167,
      "velocity": 69,
      "chip": "ym2612"
    },
    {
      "channel": 3,
      "note": 84,
      "start": 4.2147,
      "duration": 0.0167,
      "velocity": 68,
      "chip": "ym2612"
    },
    {
      "channel": 4,
      "note": 89,
      "start": 4.2149,
      "duration": 0.0167,
      "velocity": 69,
      "chip": "ym2612"
    },
    {
      "channel": 3,
      "note": 84,
      "start": 4.2313,
      "duration": 0.0181,
      "velocity": 68,
      "chip": "ym2612"
    },
    {
      "channel": 4,
      "note": 89,
      "start": 4.2315,
      "duration": 0.0182,
      "velocity": 69,
      "chip": "ym2612"
    },
    {
      "channel": 0,
      "note": 62,
      "start": 4.2484,
      "duration": 0.4165,
      "velocity": 47,
      "chip": "ym2612"
    },
    {
      "channel": 2,
      "note": 33,
      "start": 4.249,
      "duration": 0.0832,
      "velocity": 122,
      "chip": "ym2612"
    },
    {
      "channel": 3,
      "note": 85,
      "start": 4.2495,
      "duration": 0.0152,
      "velocity": 68,
      "chip": "ym2612"
    },
    {
      "channel": 4,
      "note": 90,
      "start": 4.2497,
      "duration": 0.0151,
      "velocity": 69,
      "chip": "ym2612"
    },
    {
      "channel": 3,
      "note": 85,
      "start": 4.2647,
      "duration": 0.0167,
      "velocity": 68,
      "chip": "ym2612"
    },
    {
      "channel": 4,
      "note": 90,
      "start": 4.2649,
      "duration": 0.0167,
      "velocity": 69,
      "chip": "ym2612"
    },
    {
      "channel": 3,
      "note": 85,
      "start": 4.2813,
      "duration": 0.0167,
      "velocity": 68,
      "chip": "ym2612"
    },
    {
      "channel": 4,
      "note": 90,
      "start": 4.2815,
      "duration": 0.0167,
      "velocity": 69,
      "chip": "ym2612"
    },
    {
      "channel": 3,
      "note": 86,
      "start": 4.298,
      "duration": 0.0167,
      "velocity": 68,
      "chip": "ym2612"
    },
    {
      "channel": 4,
      "note": 90,
      "start": 4.2982,
      "duration": 0.0167,
      "velocity": 69,
      "chip": "ym2612"
    },
    {
      "channel": 3,
      "note": 86,
      "start": 4.3147,
      "duration": 0.0182,
      "velocity": 68,
      "chip": "ym2612"
    },
    {
      "channel": 4,
      "note": 91,
      "start": 4.3149,
      "duration": 0.0181,
      "velocity": 69,
      "chip": "ym2612"
    },
    {
      "channel": 1,
      "note": 52,
      "start": 4.3319,
      "duration": 0.0831,
      "velocity": 47,
      "chip": "ym2612"
    },
    {
      "channel": 2,
      "note": 43,
      "start": 4.3324,
      "duration": 0.0831,
      "velocity": 122,
      "chip": "ym2612"
    },
    {
      "channel": 3,
      "note": 86,
      "start": 4.3329,
      "duration": 0.0151,
      "velocity": 68,
      "chip": "ym2612"
    },
    {
      "channel": 4,
      "note": 91,
      "start": 4.3331,
      "duration": 0.0151,
      "velocity": 69,
      "chip": "ym2612"
    },
    {
      "channel": 3,
      "note": 87,
      "start": 4.348,
      "duration": 0.0167,
      "velocity": 68,
      "chip": "ym2612"
    },
    {
      "channel": 4,
      "note": 91,
      "start": 4.3482,
      "duration": 0.0167,
      "velocity": 69,
      "chip": "ym2612"
    },
    {
      "channel": 3,
      "note": 87,
      "start": 4.3647,
      "duration": 0.0167,
      "velocity": 68,
      "chip": "ym2612"
    },
    {
      "channel": 4,
      "note": 91,
      "start": 4.3649,
      "duration": 0.0167,
      "velocity": 69,
      "chip": "ym2612"
    },
    {
      "channel": 3,
      "note": 87,
      "start": 4.3813,
      "duration": 0.0167,
      "velocity": 68,
      "chip": "ym2612"
    },
    {
      "channel": 4,
      "note": 92,
      "start": 4.3815,
      "duration": 0.0167,
      "velocity": 69,
      "chip": "ym2612"
    },
    {
      "channel": 3,
      "note": 88,
      "start": 4.398,
      "duration": 0.0181,
      "velocity": 68,
      "chip": "ym2612"
    },
    {
      "channel": 4,
      "note": 92,
      "start": 4.3982,
      "duration": 0.0182,
      "velocity": 69,
      "chip": "ym2612"
    },
    {
      "channel": 1,
      "note": 64,
      "start": 4.4151,
      "duration": 0.0831,
      "velocity": 47,
      "chip": "ym2612"
    },
    {
      "channel": 2,
      "note": 45,
      "start": 4.4156,
      "duration": 0.0832,
      "velocity": 122,
      "chip": "ym2612"
    },
    {
      "channel": 3,
      "note": 88,
      "start": 4.4161,
      "duration": 0.0152,
      "velocity": 68,
      "chip": "ym2612"
    },
    {
      "channel": 4,
      "note": 92,
      "start": 4.4164,
      "duration": 0.0151,
      "velocity": 69,
      "chip": "ym2612"
    },
    {
      "channel": 3,
      "note": 88,
      "start": 4.4313,
      "duration": 0.0167,
      "velocity": 68,
      "chip": "ym2612"
    },
    {
      "channel": 4,
      "note": 92,
      "start": 4.4315,
      "duration": 0.0167,
      "velocity": 69,
      "chip": "ym2612"
    },
    {
      "channel": 3,
      "note": 88,
      "start": 4.448,
      "duration": 0.0167,
      "velocity": 68,
      "chip": "ym2612"
    },
    {
      "channel": 4,
      "note": 92,
      "start": 4.4483,
      "duration": 0.0166,
      "velocity": 69,
      "chip": "ym2612"
    },
    {
      "channel": 3,
      "note": 89,
      "start": 4.4647,
      "duration": 0.0167,
      "velocity": 68,
      "chip": "ym2612"
    },
    {
      "channel": 4,
      "note": 93,
      "start": 4.4649,
      "duration": 0.0167,
      "velocity": 69,
      "chip": "ym2612"
    },
    {
      "channel": 3,
      "note": 89,
      "start": 4.4813,
      "duration": 0.0181,
      "velocity": 68,
      "chip": "ym2612"
    },
    {
      "channel": 4,
      "note": 93,
      "start": 4.4815,
      "duration": 0.0182,
      "velocity": 69,
      "chip": "ym2612"
    },
    {
      "channel": 1,
      "note": 59,
      "start": 4.4985,
      "duration": 0.0831,
      "velocity": 47,
      "chip": "ym2612"
    },
    {
      "channel": 2,
      "note": 33,
      "start": 4.499,
      "duration": 0.0832,
      "velocity": 122,
      "chip": "ym2612"
    },
    {
      "channel": 3,
      "note": 89,
      "start": 4.4995,
      "duration": 0.0152,
      "velocity": 68,
      "chip": "ym2612"
    },
    {
      "channel": 4,
      "note": 93,
      "start": 4.4997,
      "duration": 0.0151,
      "velocity": 69,
      "chip": "ym2612"
    },
    {
      "channel": 3,
      "note": 90,
      "start": 4.5147,
      "duration": 0.0167,
      "velocity": 68,
      "chip": "ym2612"
    },
    {
      "channel": 4,
      "note": 93,
      "start": 4.5149,
      "duration": 0.0167,
      "velocity": 69,
      "chip": "ym2612"
    },
    {
      "channel": 3,
      "note": 90,
      "start": 4.5313,
      "duration": 0.0167,
      "velocity": 68,
      "chip": "ym2612"
    },
    {
      "channel": 4,
      "note": 93,
      "start": 4.5315,
      "duration": 0.0167,
      "velocity": 69,
      "chip": "ym2612"
    },
    {
      "channel": 3,
      "note": 90,
      "start": 4.548,
      "duration": 0.0167,
      "velocity": 68,
      "chip": "ym2612"
    },
    {
      "channel": 4,
      "note": 94,
      "start": 4.5482,
      "duration": 0.0167,
      "velocity": 69,
      "chip": "ym2612"
    },
    {
      "channel": 3,
      "note": 90,
      "start": 4.5647,
      "duration": 0.0181,
      "velocity": 68,
      "chip": "ym2612"
    },
    {
      "channel": 4,
      "note": 94,
      "start": 4.5649,
      "duration": 0.0182,
      "velocity": 69,
      "chip": "ym2612"
    },
    {
      "channel": 1,
      "note": 62,
      "start": 4.5818,
      "duration": 0.4165,
      "velocity": 47,
      "chip": "ym2612"
    },
    {
      "channel": 2,
      "note": 31,
      "start": 4.5823,
      "duration": 0.0832,
      "velocity": 122,
      "chip": "ym2612"
    },
    {
      "channel": 3,
      "note": 91,
      "start": 4.5828,
      "duration": 0.0152,
      "velocity": 68,
      "chip": "ym2612"
    },
    {
      "channel": 4,
      "note": 94,
      "start": 4.5831,
      "duration": 0.0151,
      "velocity": 69,
      "chip": "ym2612"
    },
    {
      "channel": 3,
      "note": 91,
      "start": 4.598,
      "duration": 0.0167,
      "velocity": 68,
      "chip": "ym2612"
    },
    {
      "channel": 4,
      "note": 94,
      "start": 4.5982,
      "duration": 0.0167,
      "velocity": 69,
      "chip": "ym2612"
    },
    {
      "channel": 3,
      "note": 91,
      "start": 4.6147,
      "duration": 0.0167,
      "velocity": 68,
      "chip": "ym2612"
    },
    {
      "channel": 4,
      "note": 94,
      "start": 4.6149,
      "duration": 0.0167,
      "velocity": 69,
      "chip": "ym2612"
    },
    {
      "channel": 3,
      "note": 91,
      "start": 4.6313,
      "duration": 0.0167,
      "velocity": 68,
      "chip": "ym2612"
    },
    {
      "channel": 4,
      "note": 95,
      "start": 4.6316,
      "duration": 0.0167,
      "velocity": 69,
      "chip": "ym2612"
    },
    {
      "channel": 3,
      "note": 91,
      "start": 4.648,
      "duration": 0.0182,
      "velocity": 68,
      "chip": "ym2612"
    },
    {
      "channel": 4,
      "note": 95,
      "start": 4.6483,
      "duration": 0.0181,
      "velocity": 69,
      "chip": "ym2612"
    },
    {
      "channel": 0,
      "note": 52,
      "start": 4.6651,
      "duration": 0.0831,
      "velocity": 47,
      "chip": "ym2612"
    },
    {
      "channel": 2,
      "note": 33,
      "start": 4.6657,
      "duration": 0.1665,
      "velocity": 122,
      "chip": "ym2612"
    },
    {
      "channel": 3,
      "note": 92,
      "start": 4.6662,
      "duration": 0.0151,
      "velocity": 68,
      "chip": "ym2612"
    },
    {
      "channel": 4,
      "note": 95,
      "start": 4.6664,
      "duration": 0.0151,
      "velocity": 69,
      "chip": "ym2612"
    },
    {
      "channel": 3,
      "note": 92,
      "start": 4.6813,
      "duration": 0.0167,
      "velocity": 68,
      "chip": "ym2612"
    },
    {
      "channel": 4,
      "note": 95,
      "start": 4.6815,
      "duration": 0.0167,
      "velocity": 69,
      "chip": "ym2612"
    },
    {
      "channel": 3,
      "note": 92,
      "start": 4.698,
      "duration": 0.0167,
      "velocity": 68,
      "chip": "ym2612"
    },
    {
      "channel": 4,
      "note": 95,
      "start": 4.6982,
      "duration": 0.0167,
      "velocity": 69,
      "chip": "ym2612"
    },
    {
      "channel": 3,
      "note": 92,
      "start": 4.7147,
      "duration": 0.0167,
      "velocity": 68,
      "chip": "ym2612"
    },
    {
      "channel": 4,
      "note": 96,
      "start": 4.7149,
      "duration": 0.0167,
      "velocity": 69,
      "chip": "ym2612"
    },
    {
      "channel": 3,
      "note": 93,
      "start": 4.7313,
      "duration": 0.0177,
      "velocity": 68,
      "chip": "ym2612"
    },
    {
      "channel": 4,
      "note": 96,
      "start": 4.7315,
      "duration": 0.0177,
      "velocity": 69,
      "chip": "ym2612"
    },
    {
      "channel": 0,
      "note": 64,
      "start": 4.7484,
      "duration": 0.0832,
      "velocity": 47,
      "chip": "ym2612"
    },
    {
      "channel": 3,
      "note": 93,
      "start": 4.749,
      "duration": 0.0156,
      "velocity": 68,
      "chip": "ym2612"
    },
    {
      "channel": 4,
      "note": 96,
      "start": 4.7493,
      "duration": 0.0156,
      "velocity": 69,
      "chip": "ym2612"
    },
    {
      "channel": 3,
      "note": 93,
      "start": 4.7647,
      "duration": 0.0167,
      "velocity": 68,
      "chip": "ym2612"
    },
    {
      "channel": 4,
      "note": 96,
      "start": 4.7649,
      "duration": 0.0167,
      "velocity": 69,
      "chip": "ym2612"
    },
    {
      "channel": 3,
      "note": 93,
      "start": 4.7813,
      "duration": 0.0167,
      "velocity": 68,
      "chip": "ym2612"
    },
    {
      "channel": 4,
      "note": 96,
      "start": 4.7815,
      "duration": 0.0167,
      "velocity": 69,
      "chip": "ym2612"
    },
    {
      "channel": 3,
      "note": 93,
      "start": 4.798,
      "duration": 0.0167,
      "velocity": 68,
      "chip": "ym2612"
    },
    {
      "channel": 4,
      "note": 97,
      "start": 4.7982,
      "duration": 0.0167,
      "velocity": 69,
      "chip": "ym2612"
    },
    {
      "channel": 3,
      "note": 94,
      "start": 4.8147,
      "duration": 0.0181,
      "velocity": 68,
      "chip": "ym2612"
    },
    {
      "channel": 4,
      "note": 97,
      "start": 4.8149,
      "duration": 0.0181,
      "velocity": 69,
      "chip": "ym2612"
    },
    {
      "channel": 0,
      "note": 59,
      "start": 4.8318,
      "duration": 0.0831,
      "velocity": 47,
      "chip": "ym2612"
    },
    {
      "channel": 2,
      "note": 45,
      "start": 4.8323,
      "duration": 0.0832,
      "velocity": 122,
      "chip": "ym2612"
    },
    {
      "channel": 3,
      "note": 94,
      "start": 4.8328,
      "duration": 0.0152,
      "velocity": 68,
      "chip": "ym2612"
    },
    {
      "channel": 4,
      "note": 97,
      "start": 4.8331,
      "duration": 0.0151,
      "velocity": 69,
      "chip": "ym2612"
    },
    {
      "channel": 3,
      "note": 94,
      "start": 4.848,
      "duration": 0.0167,
      "velocity": 68,
      "chip": "ym2612"
    },
    {
      "channel": 4,
      "note": 97,
      "start": 4.8482,
      "duration": 0.0167,
      "velocity": 69,
      "chip": "ym2612"
    },
    {
      "channel": 3,
      "note": 94,
      "start": 4.8647,
      "duration": 0.0167,
      "velocity": 68,
      "chip": "ym2612"
    },
    {
      "channel": 4,
      "note": 97,
      "start": 4.8649,
      "duration": 0.0167,
      "velocity": 69,
      "chip": "ym2612"
    },
    {
      "channel": 3,
      "note": 94,
      "start": 4.8813,
      "duration": 0.0167,
      "velocity": 68,
      "chip": "ym2612"
    },
    {
      "channel": 4,
      "note": 97,
      "start": 4.8815,
      "duration": 0.0167,
      "velocity": 69,
      "chip": "ym2612"
    },
    {
      "channel": 3,
      "note": 95,
      "start": 4.898,
      "duration": 0.0181,
      "velocity": 68,
      "chip": "ym2612"
    },
    {
      "channel": 4,
      "note": 98,
      "start": 4.8982,
      "duration": 0.0182,
      "velocity": 69,
      "chip": "ym2612"
    },
    {
      "channel": 0,
      "note": 62,
      "start": 4.9151,
      "duration": 0.4167,
      "velocity": 47,
      "chip": "ym2612"
    },
    {
      "channel": 2,
      "note": 33,
      "start": 4.9156,
      "duration": 0.0832,
      "velocity": 122,
      "chip": "ym2612"
    },
    {
      "channel": 3,
      "note": 95,
      "start": 4.9161,
      "duration": 0.0152,
      "velocity": 68,
      "chip": "ym2612"
    },
    {
      "channel": 4,
      "note": 98,
      "start": 4.9164,
      "duration": 0.0151,
      "velocity": 69,
      "chip": "ym2612"
    },
    {
      "channel": 3,
      "note": 95,
      "start": 4.9313,
      "duration": 0.0167,
      "velocity": 68,
      "chip": "ym2612"
    },
    {
      "channel": 4,
      "note": 98,
      "start": 4.9315,
      "duration": 0.0167,
      "velocity": 69,
      "chip": "ym2612"
    },
    {
      "channel": 3,
      "note": 95,
      "start": 4.948,
      "duration": 0.0167,
      "velocity": 68,
      "chip": "ym2612"
    },
    {
      "channel": 4,
      "note": 98,
      "start": 4.9483,
      "duration": 0.0167,
      "velocity": 69,
      "chip": "ym2612"
    },
    {
      "channel": 3,
      "note": 95,
      "start": 4.9647,
      "duration": 0.0167,
      "velocity": 68,
      "chip": "ym2612"
    },
    {
      "channel": 4,
      "note": 98,
      "start": 4.9649,
      "duration": 0.0167,
      "velocity": 69,
      "chip": "ym2612"
    },
    {
      "channel": 3,
      "note": 96,
      "start": 4.9813,
      "duration": 0.0182,
      "velocity": 68,
      "chip": "ym2612"
    },
    {
      "channel": 4,
      "note": 98,
      "start": 4.9816,
      "duration": 0.0181,
      "velocity": 69,
      "chip": "ym2612"
    },
    {
      "channel": 1,
      "note": 52,
      "start": 4.9985,
      "duration": 0.0831,
      "velocity": 47,
      "chip": "ym2612"
    },
    {
      "channel": 2,
      "note": 43,
      "start": 4.999,
      "duration": 0.0831,
      "velocity": 122,
      "chip": "ym2612"
    },
    {
      "channel": 3,
      "note": 96,
      "start": 4.9995,
      "duration": 0.0151,
      "velocity": 68,
      "chip": "ym2612"
    },
    {
      "channel": 4,
      "note": 98,
      "start": 4.9997,
      "duration": 0.0151,
      "velocity": 69,
      "chip": "ym2612"
    },
    {
      "channel": 3,
      "note": 96,
      "start": 5.0147,
      "duration": 0.0167,
      "velocity": 68,
      "chip": "ym2612"
    },
    {
      "channel": 4,
      "note": 99,
      "start": 5.0149,
      "duration": 0.0167,
      "velocity": 69,
      "chip": "ym2612"
    },
    {
      "channel": 3,
      "note": 96,
      "start": 5.0313,
      "duration": 0.0167,
      "velocity": 68,
      "chip": "ym2612"
    },
    {
      "channel": 4,
      "note": 99,
      "start": 5.0315,
      "duration": 0.0167,
      "velocity": 69,
      "chip": "ym2612"
    },
    {
      "channel": 3,
      "note": 96,
      "start": 5.048,
      "duration": 0.0167,
      "velocity": 68,
      "chip": "ym2612"
    },
    {
      "channel": 4,
      "note": 99,
      "start": 5.0482,
      "duration": 0.0167,
      "velocity": 69,
      "chip": "ym2612"
    },
    {
      "channel": 3,
      "note": 96,
      "start": 5.0647,
      "duration": 0.0181,
      "velocity": 68,
      "chip": "ym2612"
    },
    {
      "channel": 4,
      "note": 99,
      "start": 5.0649,
      "duration": 0.0182,
      "velocity": 69,
      "chip": "ym2612"
    },
    {
      "channel": 1,
      "note": 64,
      "start": 5.0818,
      "duration": 0.0831,
      "velocity": 47,
      "chip": "ym2612"
    },
    {
      "channel": 2,
      "note": 45,
      "start": 5.0823,
      "duration": 0.0832,
      "velocity": 122,
      "chip": "ym2612"
    },
    {
      "channel": 3,
      "note": 97,
      "start": 5.0828,
      "duration": 0.0152,
      "velocity": 68,
      "chip": "ym2612"
    },
    {
      "channel": 4,
      "note": 99,
      "start": 5.0831,
      "duration": 0.0151,
      "velocity": 69,
      "chip": "ym2612"
    },
    {
      "channel": 3,
      "note": 97,
      "start": 5.098,
      "duration": 0.0167,
      "velocity": 68,
      "chip": "ym2612"
    },
    {
      "channel": 4,
      "note": 99,
      "start": 5.0982,
      "duration": 0.0167,
      "velocity": 69,
      "chip": "ym2612"
    },
    {
      "channel": 3,
      "note": 97,
      "start": 5.1147,
      "duration": 0.0167,
      "velocity": 68,
      "chip": "ym2612"
    },
    {
      "channel": 4,
      "note": 100,
      "start": 5.1149,
      "duration": 0.0167,
      "velocity": 69,
      "chip": "ym2612"
    },
    {
      "channel": 3,
      "note": 97,
      "start": 5.1313,
      "duration": 0.0167,
      "velocity": 68,
      "chip": "ym2612"
    },
    {
      "channel": 4,
      "note": 100,
      "start": 5.1316,
      "duration": 0.0167,
      "velocity": 69,
      "chip": "ym2612"
    },
    {
      "channel": 3,
      "note": 97,
      "start": 5.148,
      "duration": 0.0181,
      "velocity": 68,
      "chip": "ym2612"
    },
    {
      "channel": 4,
      "note": 100,
      "start": 5.1483,
      "duration": 0.0181,
      "velocity": 69,
      "chip": "ym2612"
    },
    {
      "channel": 1,
      "note": 59,
      "start": 5.1651,
      "duration": 0.0832,
      "velocity": 47,
      "chip": "ym2612"
    },
    {
      "channel": 2,
      "note": 33,
      "start": 5.1656,
      "duration": 0.0832,
      "velocity": 122,
      "chip": "ym2612"
    },
    {
      "channel": 3,
      "note": 97,
      "start": 5.1661,
      "duration": 0.0152,
      "velocity": 68,
      "chip": "ym2612"
    },
    {
      "channel": 4,
      "note": 100,
      "start": 5.1664,
      "duration": 0.0151,
      "velocity": 69,
      "chip": "ym2612"
    },
    {
      "channel": 3,
      "note": 98,
      "start": 5.1813,
      "duration": 0.0167,
      "velocity": 68,
      "chip": "ym2612"
    },
    {
      "channel": 4,
      "note": 100,
      "start": 5.1815,
      "duration": 0.0167,
      "velocity": 69,
      "chip": "ym2612"
    },
    {
      "channel": 3,
      "note": 98,
      "start": 5.198,
      "duration": 0.0167,
      "velocity": 68,
      "chip": "ym2612"
    },
    {
      "channel": 4,
      "note": 100,
      "start": 5.1982,
      "duration": 0.0167,
      "velocity": 69,
      "chip": "ym2612"
    },
    {
      "channel": 3,
      "note": 98,
      "start": 5.2147,
      "duration": 0.0167,
      "velocity": 68,
      "chip": "ym2612"
    },
    {
      "channel": 4,
      "note": 100,
      "start": 5.2149,
      "duration": 0.0167,
      "velocity": 69,
      "chip": "ym2612"
    },
    {
      "channel": 3,
      "note": 98,
      "start": 5.2313,
      "duration": 0.0182,
      "velocity": 68,
      "chip": "ym2612"
    },
    {
      "channel": 4,
      "note": 101,
      "start": 5.2315,
      "duration": 0.0183,
      "velocity": 69,
      "chip": "ym2612"
    },
    {
      "channel": 1,
      "note": 62,
      "start": 5.2485,
      "duration": 0.4165,
      "velocity": 47,
      "chip": "ym2612"
    },
    {
      "channel": 2,
      "note": 31,
      "start": 5.249,
      "duration": 0.0834,
      "velocity": 122,
      "chip": "ym2612"
    },
    {
      "channel": 3,
      "note": 98,
      "start": 5.2495,
      "duration": 0.0151,
      "velocity": 68,
      "chip": "ym2612"
    },
    {
      "channel": 4,
      "note": 101,
      "start": 5.2498,
      "duration": 0.0151,
      "velocity": 69,
      "chip": "ym2612"
    },
    {
      "channel": 3,
      "note": 98,
      "start": 5.2647,
      "duration": 0.0167,
      "velocity": 68,
      "chip": "ym2612"
    },
    {
      "channel": 4,
      "note": 101,
      "start": 5.2649,
      "duration": 0.0167,
      "velocity": 69,
      "chip": "ym2612"
    },
    {
      "channel": 3,
      "note": 99,
      "start": 5.2813,
      "duration": 0.0167,
      "velocity": 68,
      "chip": "ym2612"
    },
    {
      "channel": 4,
      "note": 101,
      "start": 5.2815,
      "duration": 0.0167,
      "velocity": 69,
      "chip": "ym2612"
    },
    {
      "channel": 3,
      "note": 99,
      "start": 5.298,
      "duration": 0.0167,
      "velocity": 68,
      "chip": "ym2612"
    },
    {
      "channel": 4,
      "note": 101,
      "start": 5.2982,
      "duration": 0.0167,
      "velocity": 69,
      "chip": "ym2612"
    },
    {
      "channel": 3,
      "note": 99,
      "start": 5.3147,
      "duration": 0.0184,
      "velocity": 68,
      "chip": "ym2612"
    },
    {
      "channel": 4,
      "note": 101,
      "start": 5.3149,
      "duration": 0.0184,
      "velocity": 69,
      "chip": "ym2612"
    },
    {
      "channel": 0,
      "note": 50,
      "start": 5.332,
      "duration": 0.0829,
      "velocity": 47,
      "chip": "ym2612"
    },
    {
      "channel": 2,
      "note": 38,
      "start": 5.3325,
      "duration": 0.1662,
      "velocity": 122,
      "chip": "ym2612"
    },
    {
      "channel": 3,
      "note": 99,
      "start": 5.3331,
      "duration": 0.0149,
      "velocity": 68,
      "chip": "ym2612"
    },
    {
      "channel": 4,
      "note": 101,
      "start": 5.3333,
      "duration": 0.0149,
      "velocity": 69,
      "chip": "ym2612"
    },
    {
      "channel": 3,
      "note": 99,
      "start": 5.348,
      "duration": 0.0167,
      "velocity": 68,
      "chip": "ym2612"
    },
    {
      "channel": 4,
      "note": 101,
      "start": 5.3482,
      "duration": 0.0167,
      "velocity": 69,
      "chip": "ym2612"
    },
    {
      "channel": 3,
      "note": 99,
      "start": 5.3647,
      "duration": 0.0167,
      "velocity": 68,
      "chip": "ym2612"
    },
    {
      "channel": 4,
      "note": 102,
      "start": 5.3649,
      "duration": 0.0167,
      "velocity": 69,
      "chip": "ym2612"
    },
    {
      "channel": 3,
      "note": 99,
      "start": 5.3813,
      "duration": 0.0167,
      "velocity": 68,
      "chip": "ym2612"
    },
    {
      "channel": 4,
      "note": 102,
      "start": 5.3816,
      "duration": 0.0167,
      "velocity": 69,
      "chip": "ym2612"
    },
    {
      "channel": 3,
      "note": 100,
      "start": 5.398,
      "duration": 0.0178,
      "velocity": 68,
      "chip": "ym2612"
    },
    {
      "channel": 4,
      "note": 102,
      "start": 5.3983,
      "duration": 0.0177,
      "velocity": 69,
      "chip": "ym2612"
    },
    {
      "channel": 0,
      "note": 62,
      "start": 5.4151,
      "duration": 0.0831,
      "velocity": 47,
      "chip": "ym2612"
    },
    {
      "channel": 3,
      "note": 100,
      "start": 5.4158,
      "duration": 0.0156,
      "velocity": 68,
      "chip": "ym2612"
    },
    {
      "channel": 4,
      "note": 102,
      "start": 5.4159,
      "duration": 0.0156,
      "velocity": 69,
      "chip": "ym2612"
    },
    {
      "channel": 3,
      "note": 100,
      "start": 5.4313,
      "duration": 0.0167,
      "velocity": 68,
      "chip": "ym2612"
    },
    {
      "channel": 4,
      "note": 102,
      "start": 5.4315,
      "duration": 0.0167,
      "velocity": 69,
      "chip": "ym2612"
    },
    {
      "channel": 3,
      "note": 100,
      "start": 5.448,
      "duration": 0.0167,
      "velocity": 68,
      "chip": "ym2612"
    },
    {
      "channel": 4,
      "note": 102,
      "start": 5.4483,
      "duration": 0.0167,
      "velocity": 69,
      "chip": "ym2612"
    },
    {
      "channel": 3,
      "note": 100,
      "start": 5.4647,
      "duration": 0.0167,
      "velocity": 68,
      "chip": "ym2612"
    },
    {
      "channel": 4,
      "note": 102,
      "start": 5.4649,
      "duration": 0.0167,
      "velocity": 69,
      "chip": "ym2612"
    },
    {
      "channel": 3,
      "note": 100,
      "start": 5.4813,
      "duration": 0.0181,
      "velocity": 68,
      "chip": "ym2612"
    },
    {
      "channel": 4,
      "note": 102,
      "start": 5.4816,
      "duration": 0.0181,
      "velocity": 69,
      "chip": "ym2612"
    },
    {
      "channel": 0,
      "note": 57,
      "start": 5.4984,
      "duration": 0.0832,
      "velocity": 47,
      "chip": "ym2612"
    },
    {
      "channel": 2,
      "note": 50,
      "start": 5.499,
      "duration": 0.0832,
      "velocity": 122,
      "chip": "ym2612"
    },
    {
      "channel": 3,
      "note": 100,
      "start": 5.4995,
      "duration": 0.0152,
      "velocity": 68,
      "chip": "ym2612"
    },
    {
      "channel": 4,
      "note": 103,
      "start": 5.4997,
      "duration": 0.0151,
      "velocity": 69,
      "chip": "ym2612"
    },
    {
      "channel": 3,
      "note": 101,
      "start": 5.5147,
      "duration": 0.0167,
      "velocity": 68,
      "chip": "ym2612"
    },
    {
      "channel": 4,
      "note": 103,
      "start": 5.5149,
      "duration": 0.0167,
      "velocity": 69,
      "chip": "ym2612"
    },
    {
      "channel": 3,
      "note": 101,
      "start": 5.5313,
      "duration": 0.0167,
      "velocity": 68,
      "chip": "ym2612"
    },
    {
      "channel": 4,
      "note": 103,
      "start": 5.5315,
      "duration": 0.0167,
      "velocity": 69,
      "chip": "ym2612"
    },
    {
      "channel": 3,
      "note": 101,
      "start": 5.548,
      "duration": 0.0167,
      "velocity": 68,
      "chip": "ym2612"
    },
    {
      "channel": 4,
      "note": 103,
      "start": 5.5482,
      "duration": 0.0167,
      "velocity": 69,
      "chip": "ym2612"
    },
    {
      "channel": 3,
      "note": 101,
      "start": 5.5647,
      "duration": 0.0181,
      "velocity": 68,
      "chip": "ym2612"
    },
    {
      "channel": 4,
      "note": 103,
      "start": 5.5649,
      "duration": 0.0182,
      "velocity": 69,
      "chip": "ym2612"
    },
    {
      "channel": 0,
      "note": 60,
      "start": 5.5817,
      "duration": 0.4165,
      "velocity": 47,
      "chip": "ym2612"
    },
    {
      "channel": 2,
      "note": 38,
      "start": 5.5823,
      "duration": 0.0833,
      "velocity": 122,
      "chip": "ym2612"
    },
    {
      "channel": 3,
      "note": 101,
      "start": 5.5828,
      "duration": 0.0152,
      "velocity": 68,
      "chip": "ym2612"
    },
    {
      "channel": 4,
      "note": 103,
      "start": 5.5831,
      "duration": 0.0151,
      "velocity": 69,
      "chip": "ym2612"
    },
    {
      "channel": 3,
      "note": 101,
      "start": 5.598,
      "duration": 0.0167,
      "velocity": 68,
      "chip": "ym2612"
    },
    {
      "channel": 4,
      "note": 103,
      "start": 5.5982,
      "duration": 0.0167,
      "velocity": 69,
      "chip": "ym2612"
    },
    {
      "channel": 3,
      "note": 101,
      "start": 5.6147,
      "duration": 0.0167,
      "velocity": 68,
      "chip": "ym2612"
    },
    {
      "channel": 4,
      "note": 103,
      "start": 5.6149,
      "duration": 0.0167,
      "velocity": 69,
      "chip": "ym2612"
    },
    {
      "channel": 3,
      "note": 102,
      "start": 5.6313,
      "duration": 0.0167,
      "velocity": 68,
      "chip": "ym2612"
    },
    {
      "channel": 4,
      "note": 104,
      "start": 5.6316,
      "duration": 0.0167,
      "velocity": 69,
      "chip": "ym2612"
    },
    {
      "channel": 3,
      "note": 102,
      "start": 5.648,
      "duration": 0.0182,
      "velocity": 68,
      "chip": "ym2612"
    },
    {
      "channel": 4,
      "note": 104,
      "start": 5.6483,
      "duration": 0.0182,
      "velocity": 69,
      "chip": "ym2612"
    },
    {
      "channel": 1,
      "note": 50,
      "start": 5.6652,
      "duration": 0.0831,
      "velocity": 47,
      "chip": "ym2612"
    },
    {
      "channel": 2,
      "note": 48,
      "start": 5.6657,
      "duration": 0.0831,
      "velocity": 122,
      "chip": "ym2612"
    },
    {
      "channel": 3,
      "note": 102,
      "start": 5.6662,
      "duration": 0.0151,
      "velocity": 68,
      "chip": "ym2612"
    },
    {
      "channel": 4,
      "note": 104,
      "start": 5.6665,
      "duration": 0.0151,
      "velocity": 69,
      "chip": "ym2612"
    },
    {
      "channel": 3,
      "note": 102,
      "start": 5.6813,
      "duration": 0.0167,
      "velocity": 68,
      "chip": "ym2612"
    },
    {
      "channel": 4,
      "note": 104,
      "start": 5.6816,
      "duration": 0.0167,
      "velocity": 69,
      "chip": "ym2612"
    },
    {
      "channel": 3,
      "note": 102,
      "start": 5.698,
      "duration": 0.0167,
      "velocity": 68,
      "chip": "ym2612"
    },
    {
      "channel": 4,
      "note": 104,
      "start": 5.6983,
      "duration": 0.0166,
      "velocity": 69,
      "chip": "ym2612"
    },
    {
      "channel": 3,
      "note": 102,
      "start": 5.7147,
      "duration": 0.0167,
      "velocity": 68,
      "chip": "ym2612"
    },
    {
      "channel": 4,
      "note": 104,
      "start": 5.7149,
      "duration": 0.0167,
      "velocity": 69,
      "chip": "ym2612"
    },
    {
      "channel": 3,
      "note": 102,
      "start": 5.7313,
      "duration": 0.0181,
      "velocity": 68,
      "chip": "ym2612"
    },
    {
      "channel": 4,
      "note": 104,
      "start": 5.7315,
      "duration": 0.0182,
      "velocity": 69,
      "chip": "ym2612"
    },
    {
      "channel": 1,
      "note": 62,
      "start": 5.7485,
      "duration": 0.0831,
      "velocity": 47,
      "chip": "ym2612"
    },
    {
      "channel": 2,
      "note": 50,
      "start": 5.749,
      "duration": 0.0832,
      "velocity": 122,
      "chip": "ym2612"
    },
    {
      "channel": 3,
      "note": 102,
      "start": 5.7495,
      "duration": 0.0152,
      "velocity": 68,
      "chip": "ym2612"
    },
    {
      "channel": 4,
      "note": 104,
      "start": 5.7497,
      "duration": 0.0151,
      "velocity": 69,
      "chip": "ym2612"
    },
    {
      "channel": 3,
      "note": 103,
      "start": 5.7647,
      "duration": 0.0167,
      "velocity": 68,
      "chip": "ym2612"
    },
    {
      "channel": 4,
      "note": 104,
      "start": 5.7649,
      "duration": 0.0167,
      "velocity": 69,
      "chip": "ym2612"
    },
    {
      "channel": 3,
      "note": 103,
      "start": 5.7813,
      "duration": 0.0167,
      "velocity": 68,
      "chip": "ym2612"
    },
    {
      "channel": 4,
      "note": 105,
      "start": 5.7815,
      "duration": 0.0167,
      "velocity": 69,
      "chip": "ym2612"
    },
    {
      "channel": 3,
      "note": 103,
      "start": 5.798,
      "duration": 0.0167,
      "velocity": 68,
      "chip": "ym2612"
    },
    {
      "channel": 4,
      "note": 105,
      "start": 5.7982,
      "duration": 0.0167,
      "velocity": 69,
      "chip": "ym2612"
    },
    {
      "channel": 3,
      "note": 103,
      "start": 5.8147,
      "duration": 0.0181,
      "velocity": 68,
      "chip": "ym2612"
    },
    {
      "channel": 4,
      "note": 105,
      "start": 5.8149,
      "duration": 0.0182,
      "velocity": 69,
      "chip": "ym2612"
    },
    {
      "channel": 1,
      "note": 57,
      "start": 5.8318,
      "duration": 0.0831,
      "velocity": 47,
      "chip": "ym2612"
    },
    {
      "channel": 2,
      "note": 36,
      "start": 5.8323,
      "duration": 0.0832,
      "velocity": 122,
      "chip": "ym2612"
    },
    {
      "channel": 3,
      "note": 103,
      "start": 5.8328,
      "duration": 0.0152,
      "velocity": 68,
      "chip": "ym2612"
    },
    {
      "channel": 4,
      "note": 105,
      "start": 5.8331,
      "duration": 0.0151,
      "velocity": 69,
      "chip": "ym2612"
    },
    {
      "channel": 3,
      "note": 103,
      "start": 5.848,
      "duration": 0.0167,
      "velocity": 68,
      "chip": "ym2612"
    },
    {
      "channel": 4,
      "note": 105,
      "start": 5.8482,
      "duration": 0.0167,
      "velocity": 69,
      "chip": "ym2612"
    },
    {
      "channel": 3,
      "note": 103,
      "start": 5.8647,
      "duration": 0.0167,
      "velocity": 68,
      "chip": "ym2612"
    },
    {
      "channel": 4,
      "note": 105,
      "start": 5.8649,
      "duration": 0.0167,
      "velocity": 69,
      "chip": "ym2612"
    },
    {
      "channel": 3,
      "note": 103,
      "start": 5.8813,
      "duration": 0.0167,
      "velocity": 68,
      "chip": "ym2612"
    },
    {
      "channel": 4,
      "note": 105,
      "start": 5.8816,
      "duration": 0.0167,
      "velocity": 69,
      "chip": "ym2612"
    },
    {
      "channel": 3,
      "note": 104,
      "start": 5.898,
      "duration": 0.0181,
      "velocity": 68,
      "chip": "ym2612"
    },
    {
      "channel": 4,
      "note": 105,
      "start": 5.8983,
      "duration": 0.0181,
      "velocity": 69,
      "chip": "ym2612"
    },
    {
      "channel": 1,
      "note": 60,
      "start": 5.9151,
      "duration": 0.4165,
      "velocity": 47,
      "chip": "ym2612"
    },
    {
      "channel": 2,
      "note": 33,
      "start": 5.9156,
      "duration": 0.0832,
      "velocity": 122,
      "chip": "ym2612"
    },
    {
      "channel": 3,
      "note": 104,
      "start": 5.9161,
      "duration": 0.0152,
      "velocity": 68,
      "chip": "ym2612"
    },
    {
      "channel": 4,
      "note": 105,
      "start": 5.9164,
      "duration": 0.0152,
      "velocity": 69,
      "chip": "ym2612"
    },
    {
      "channel": 3,
      "note": 104,
      "start": 5.9313,
      "duration": 0.0167,
      "velocity": 68,
      "chip": "ym2612"
    },
    {
      "channel": 4,
      "note": 105,
      "start": 5.9316,
      "duration": 0.0167,
      "velocity": 69,
      "chip": "ym2612"
    },
    {
      "channel": 3,
      "note": 104,
      "start": 5.948,
      "duration": 0.0167,
      "velocity": 68,
      "chip": "ym2612"
    },
    {
      "channel": 4,
      "note": 106,
      "start": 5.9483,
      "duration": 0.0167,
      "velocity": 69,
      "chip": "ym2612"
    },
    {
      "channel": 3,
      "note": 104,
      "start": 5.9647,
      "duration": 0.0167,
      "velocity": 68,
      "chip": "ym2612"
    },
    {
      "channel": 4,
      "note": 106,
      "start": 5.9649,
      "duration": 0.0167,
      "velocity": 69,
      "chip": "ym2612"
    },
    {
      "channel": 3,
      "note": 104,
      "start": 5.9813,
      "duration": 0.0182,
      "velocity": 68,
      "chip": "ym2612"
    },
    {
      "channel": 4,
      "note": 106,
      "start": 5.9816,
      "duration": 0.0181,
      "velocity": 69,
      "chip": "ym2612"
    },
    {
      "channel": 0,
      "note": 50,
      "start": 5.9985,
      "duration": 0.0831,
      "velocity": 47,
      "chip": "ym2612"
    },
    {
      "channel": 2,
      "note": 38,
      "start": 5.999,
      "duration": 0.1664,
      "velocity": 122,
      "chip": "ym2612"
    },
    {
      "channel": 3,
      "note": 104,
      "start": 5.9995,
      "duration": 0.0151,
      "velocity": 68,
      "chip": "ym2612"
    },
    {
      "channel": 4,
      "note": 106,
      "start": 5.9997,
      "duration": 0.0151,
      "velocity": 69,
      "chip": "ym2612"
    },
    {
      "channel": 3,
      "note": 104,
      "start": 6.0147,
      "duration": 0.0167,
      "velocity": 68,
      "chip": "ym2612"
    },
    {
      "channel": 4,
      "note": 106,
      "start": 6.0149,
      "duration": 0.0167,
      "velocity": 69,
      "chip": "ym2612"
    },
    {
      "channel": 3,
      "note": 104,
      "start": 6.0313,
      "duration": 0.0167,
      "velocity": 68,
      "chip": "ym2612"
    },
    {
      "channel": 4,
      "note": 106,
      "start": 6.0315,
      "duration": 0.0167,
      "velocity": 69,
      "chip": "ym2612"
    },
    {
      "channel": 3,
      "note": 105,
      "start": 6.048,
      "duration": 0.0167,
      "velocity": 68,
      "chip": "ym2612"
    },
    {
      "channel": 4,
      "note": 106,
      "start": 6.0482,
      "duration": 0.0167,
      "velocity": 69,
      "chip": "ym2612"
    },
    {
      "channel": 3,
      "note": 105,
      "start": 6.0647,
      "duration": 0.0177,
      "velocity": 68,
      "chip": "ym2612"
    },
    {
      "channel": 4,
      "note": 106,
      "start": 6.0649,
      "duration": 0.0177,
      "velocity": 69,
      "chip": "ym2612"
    },
    {
      "channel": 0,
      "note": 62,
      "start": 6.0817,
      "duration": 0.0832,
      "velocity": 47,
      "chip": "ym2612"
    },
    {
      "channel": 3,
      "note": 105,
      "start": 6.0824,
      "duration": 0.0156,
      "velocity": 68,
      "chip": "ym2612"
    },
    {
      "channel": 4,
      "note": 106,
      "start": 6.0826,
      "duration": 0.0156,
      "velocity": 69,
      "chip": "ym2612"
    },
    {
      "channel": 3,
      "note": 105,
      "start": 6.098,
      "duration": 0.0167,
      "velocity": 68,
      "chip": "ym2612"
    },
    {
      "channel": 4,
      "note": 106,
      "start": 6.0982,
      "duration": 0.0167,
      "velocity": 69,
      "chip": "ym2612"
    },
    {
      "channel": 3,
      "note": 105,
      "start": 6.1147,
      "duration": 0.0167,
      "velocity": 68,
      "chip": "ym2612"
    },
    {
      "channel": 4,
      "note": 107,
      "start": 6.1149,
      "duration": 0.0167,
      "velocity": 69,
      "chip": "ym2612"
    },
    {
      "channel": 3,
      "note": 105,
      "start": 6.1313,
      "duration": 0.0167,
      "velocity": 68,
      "chip": "ym2612"
    },
    {
      "channel": 4,
      "note": 107,
      "start": 6.1316,
      "duration": 0.0167,
      "velocity": 69,
      "chip": "ym2612"
    },
    {
      "channel": 3,
      "note": 105,
      "start": 6.148,
      "duration": 0.0181,
      "velocity": 68,
      "chip": "ym2612"
    },
    {
      "channel": 4,
      "note": 107,
      "start": 6.1483,
      "duration": 0.0181,
      "velocity": 69,
      "chip": "ym2612"
    },
    {
      "channel": 0,
      "note": 57,
      "start": 6.1651,
      "duration": 0.0832,
      "velocity": 47,
      "chip": "ym2612"
    },
    {
      "channel": 2,
      "note": 50,
      "start": 6.1656,
      "duration": 0.0832,
      "velocity": 122,
      "chip": "ym2612"
    },
    {
      "channel": 3,
      "note": 105,
      "start": 6.1661,
      "duration": 0.0152,
      "velocity": 68,
      "chip": "ym2612"
    },
    {
      "channel": 4,
      "note": 107,
      "start": 6.1664,
      "duration": 0.0151,
      "velocity": 69,
      "chip": "ym2612"
    },
    {
      "channel": 3,
      "note": 105,
      "start": 6.1813,
      "duration": 0.0167,
      "velocity": 68,
      "chip": "ym2612"
    },
    {
      "channel": 4,
      "note": 107,
      "start": 6.1815,
      "duration": 0.0167,
      "velocity": 69,
      "chip": "ym2612"
    },
    {
      "channel": 3,
      "note": 105,
      "start": 6.198,
      "duration": 0.0167,
      "velocity": 68,
      "chip": "ym2612"
    },
    {
      "channel": 4,
      "note": 107,
      "start": 6.1982,
      "duration": 0.0167,
      "velocity": 69,
      "chip": "ym2612"
    },
    {
      "channel": 3,
      "note": 106,
      "start": 6.2147,
      "duration": 0.0167,
      "velocity": 68,
      "chip": "ym2612"
    },
    {
      "channel": 4,
      "note": 107,
      "start": 6.2149,
      "duration": 0.0167,
      "velocity": 69,
      "chip": "ym2612"
    },
    {
      "channel": 3,
      "note": 106,
      "start": 6.2313,
      "duration": 0.0181,
      "velocity": 68,
      "chip": "ym2612"
    },
    {
      "channel": 4,
      "note": 107,
      "start": 6.2315,
      "duration": 0.0182,
      "velocity": 69,
      "chip": "ym2612"
    },
    {
      "channel": 0,
      "note": 60,
      "start": 6.2484,
      "duration": 0.4165,
      "velocity": 47,
      "chip": "ym2612"
    },
    {
      "channel": 2,
      "note": 38,
      "start": 6.249,
      "duration": 0.0832,
      "velocity": 122,
      "chip": "ym2612"
    },
    {
      "channel": 3,
      "note": 106,
      "start": 6.2495,
      "duration": 0.0152,
      "velocity": 68,
      "chip": "ym2612"
    },
    {
      "channel": 4,
      "note": 107,
      "start": 6.2497,
      "duration": 0.0151,
      "velocity": 69,
      "chip": "ym2612"
    },
    {
      "channel": 3,
      "note": 106,
      "start": 6.2647,
      "duration": 0.0167,
      "velocity": 68,
      "chip": "ym2612"
    },
    {
      "channel": 4,
      "note": 107,
      "start": 6.2649,
      "duration": 0.0167,
      "velocity": 69,
      "chip": "ym2612"
    },
    {
      "channel": 3,
      "note": 106,
      "start": 6.2813,
      "duration": 0.0167,
      "velocity": 68,
      "chip": "ym2612"
    },
    {
      "channel": 4,
      "note": 108,
      "start": 6.2816,
      "duration": 0.0167,
      "velocity": 69,
      "chip": "ym2612"
    },
    {
      "channel": 3,
      "note": 106,
      "start": 6.298,
      "duration": 0.0167,
      "velocity": 68,
      "chip": "ym2612"
    },
    {
      "channel": 4,
      "note": 108,
      "start": 6.2983,
      "duration": 0.0167,
      "velocity": 69,
      "chip": "ym2612"
    },
    {
      "channel": 3,
      "note": 106,
      "start": 6.3147,
      "duration": 0.0182,
      "velocity": 68,
      "chip": "ym2612"
    },
    {
      "channel": 4,
      "note": 108,
      "start": 6.3149,
      "duration": 0.0181,
      "velocity": 69,
      "chip": "ym2612"
    },
    {
      "channel": 1,
      "note": 50,
      "start": 6.3319,
      "duration": 0.0831,
      "velocity": 47,
      "chip": "ym2612"
    },
    {
      "channel": 2,
      "note": 48,
      "start": 6.3324,
      "duration": 0.0831,
      "velocity": 122,
      "chip": "ym2612"
    },
    {
      "channel": 3,
      "note": 106,
      "start": 6.3329,
      "duration": 0.0151,
      "velocity": 68,
      "chip": "ym2612"
    },
    {
      "channel": 4,
      "note": 108,
      "start": 6.3331,
      "duration": 0.0151,
      "velocity": 69,
      "chip": "ym2612"
    },
    {
      "channel": 3,
      "note": 106,
      "start": 6.348,
      "duration": 0.0167,
      "velocity": 68,
      "chip": "ym2612"
    },
    {
      "channel": 4,
      "note": 108,
      "start": 6.3482,
      "duration": 0.0167,
      "velocity": 69,
      "chip": "ym2612"
    },
    {
      "channel": 3,
      "note": 106,
      "start": 6.3647,
      "duration": 0.0167,
      "velocity": 68,
      "chip": "ym2612"
    },
    {
      "channel": 4,
      "note": 108,
      "start": 6.3649,
      "duration": 0.0167,
      "velocity": 69,
      "chip": "ym2612"
    },
    {
      "channel": 3,
      "note": 107,
      "start": 6.3813,
      "duration": 0.0167,
      "velocity": 68,
      "chip": "ym2612"
    },
    {
      "channel": 4,
      "note": 108,
      "start": 6.3815,
      "duration": 0.0167,
      "velocity": 69,
      "chip": "ym2612"
    },
    {
      "channel": 3,
      "note": 107,
      "start": 6.398,
      "duration": 0.0181,
      "velocity": 68,
      "chip": "ym2612"
    },
    {
      "channel": 4,
      "note": 108,
      "start": 6.3982,
      "duration": 0.0182,
      "velocity": 69,
      "chip": "ym2612"
    },
    {
      "channel": 1,
      "note": 62,
      "start": 6.4151,
      "duration": 0.0831,
      "velocity": 47,
      "chip": "ym2612"
    },
    {
      "channel": 2,
      "note": 50,
      "start": 6.4156,
      "duration": 0.0832,
      "velocity": 122,
      "chip": "ym2612"
    },
    {
      "channel": 3,
      "note": 107,
      "start": 6.4161,
      "duration": 0.0152,
      "velocity": 68,
      "chip": "ym2612"
    },
    {
      "channel": 4,
      "note": 108,
      "start": 6.4164,
      "duration": 0.0151,
      "velocity": 69,
      "chip": "ym2612"
    },
    {
      "channel": 3,
      "note": 107,
      "start": 6.4313,
      "duration": 0.0167,
      "velocity": 68,
      "chip": "ym2612"
    },
    {
      "channel": 4,
      "note": 108,
      "start": 6.4315,
      "duration": 0.0167,
      "velocity": 69,
      "chip": "ym2612"
    },
    {
      "channel": 3,
      "note": 107,
      "start": 6.448,
      "duration": 0.0167,
      "velocity": 68,
      "chip": "ym2612"
    },
    {
      "channel": 4,
      "note": 108,
      "start": 6.4482,
      "duration": 0.0167,
      "velocity": 69,
      "chip": "ym2612"
    },
    {
      "channel": 3,
      "note": 107,
      "start": 6.4647,
      "duration": 0.0167,
      "velocity": 68,
      "chip": "ym2612"
    },
    {
      "channel": 4,
      "note": 109,
      "start": 6.4649,
      "duration": 0.0167,
      "velocity": 69,
      "chip": "ym2612"
    },
    {
      "channel": 3,
      "note": 107,
      "start": 6.4813,
      "duration": 0.0181,
      "velocity": 68,
      "chip": "ym2612"
    },
    {
      "channel": 4,
      "note": 109,
      "start": 6.4816,
      "duration": 0.0181,
      "velocity": 69,
      "chip": "ym2612"
    },
    {
      "channel": 1,
      "note": 57,
      "start": 6.4985,
      "duration": 0.0832,
      "velocity": 47,
      "chip": "ym2612"
    },
    {
      "channel": 2,
      "note": 36,
      "start": 6.499,
      "duration": 0.0832,
      "velocity": 122,
      "chip": "ym2612"
    },
    {
      "channel": 3,
      "note": 107,
      "start": 6.4995,
      "duration": 0.0152,
      "velocity": 68,
      "chip": "ym2612"
    },
    {
      "channel": 4,
      "note": 109,
      "start": 6.4997,
      "duration": 0.0152,
      "velocity": 69,
      "chip": "ym2612"
    },
    {
      "channel": 3,
      "note": 107,
      "start": 6.5147,
      "duration": 0.0167,
      "velocity": 68,
      "chip": "ym2612"
    },
    {
      "channel": 4,
      "note": 109,
      "start": 6.5149,
      "duration": 0.0167,
      "velocity": 69,
      "chip": "ym2612"
    },
    {
      "channel": 3,
      "note": 107,
      "start": 6.5313,
      "duration": 0.0167,
      "velocity": 68,
      "chip": "ym2612"
    },
    {
      "channel": 4,
      "note": 109,
      "start": 6.5316,
      "duration": 0.0167,
      "velocity": 69,
      "chip": "ym2612"
    },
    {
      "channel": 3,
      "note": 108,
      "start": 6.548,
      "duration": 0.0167,
      "velocity": 68,
      "chip": "ym2612"
    },
    {
      "channel": 4,
      "note": 109,
      "start": 6.5483,
      "duration": 0.0167,
      "velocity": 69,
      "chip": "ym2612"
    },
    {
      "channel": 3,
      "note": 108,
      "start": 6.5647,
      "duration": 0.0181,
      "velocity": 68,
      "chip": "ym2612"
    },
    {
      "channel": 4,
      "note": 109,
      "start": 6.5649,
      "duration": 0.0181,
      "velocity": 69,
      "chip": "ym2612"
    },
    {
      "channel": 1,
      "note": 60,
      "start": 6.5818,
      "duration": 0.4165,
      "velocity": 47,
      "chip": "ym2612"
    },
    {
      "channel": 2,
      "note": 33,
      "start": 6.5823,
      "duration": 0.0832,
      "velocity": 122,
      "chip": "ym2612"
    },
    {
      "channel": 3,
      "note": 108,
      "start": 6.5828,
      "duration": 0.0152,
      "velocity": 68,
      "chip": "ym2612"
    },
    {
      "channel": 4,
      "note": 109,
      "start": 6.5831,
      "duration": 0.0151,
      "velocity": 69,
      "chip": "ym2612"
    },
    {
      "channel": 3,
      "note": 108,
      "start": 6.598,
      "duration": 0.0167,
      "velocity": 68,
      "chip": "ym2612"
    },
    {
      "channel": 4,
      "note": 109,
      "start": 6.5982,
      "duration": 0.0167,
      "velocity": 69,
      "chip": "ym2612"
    },
    {
      "channel": 3,
      "note": 108,
      "start": 6.6147,
      "duration": 0.0167,
      "velocity": 68,
      "chip": "ym2612"
    },
    {
      "channel": 4,
      "note": 109,
      "start": 6.6149,
      "duration": 0.0167,
      "velocity": 69,
      "chip": "ym2612"
    },
    {
      "channel": 3,
      "note": 108,
      "start": 6.6313,
      "duration": 0.0167,
      "velocity": 68,
      "chip": "ym2612"
    },
    {
      "channel": 4,
      "note": 109,
      "start": 6.6315,
      "duration": 0.0167,
      "velocity": 69,
      "chip": "ym2612"
    },
    {
      "channel": 3,
      "note": 108,
      "start": 6.648,
      "duration": 0.0182,
      "velocity": 68,
      "chip": "ym2612"
    },
    {
      "channel": 4,
      "note": 109,
      "start": 6.6482,
      "duration": 0.0183,
      "velocity": 69,
      "chip": "ym2612"
    },
    {
      "channel": 0,
      "note": 53,
      "start": 6.6651,
      "duration": 0.0831,
      "velocity": 47,
      "chip": "ym2612"
    },
    {
      "channel": 2,
      "note": 34,
      "start": 6.6657,
      "duration": 0.1664,
      "velocity": 122,
      "chip": "ym2612"
    },
    {
      "channel": 3,
      "note": 108,
      "start": 6.6662,
      "duration": 0.0151,
      "velocity": 68,
      "chip": "ym2612"
    },
    {
      "channel": 4,
      "note": 110,
      "start": 6.6665,
      "duration": 0.0151,
      "velocity": 69,
      "chip": "ym2612"
    },
    {
      "channel": 3,
      "note": 108,
      "start": 6.6813,
      "duration": 0.0167,
      "velocity": 68,
      "chip": "ym2612"
    },
    {
      "channel": 4,
      "note": 110,
      "start": 6.6815,
      "duration": 0.0167,
      "velocity": 69,
      "chip": "ym2612"
    },
    {
      "channel": 3,
      "note": 108,
      "start": 6.698,
      "duration": 0.0167,
      "velocity": 68,
      "chip": "ym2612"
    },
    {
      "channel": 4,
      "note": 110,
      "start": 6.6983,
      "duration": 0.0167,
      "velocity": 69,
      "chip": "ym2612"
    },
    {
      "channel": 3,
      "note": 108,
      "start": 6.7147,
      "duration": 0.0167,
      "velocity": 68,
      "chip": "ym2612"
    },
    {
      "channel": 4,
      "note": 110,
      "start": 6.7149,
      "duration": 0.0167,
      "velocity": 69,
      "chip": "ym2612"
    },
    {
      "channel": 3,
      "note": 108,
      "start": 6.7313,
      "duration": 0.0177,
      "velocity": 68,
      "chip": "ym2612"
    },
    {
      "channel": 4,
      "note": 110,
      "start": 6.7316,
      "duration": 0.0177,
      "velocity": 69,
      "chip": "ym2612"
    },
    {
      "channel": 0,
      "note": 65,
      "start": 6.7484,
      "duration": 0.0832,
      "velocity": 47,
      "chip": "ym2612"
    },
    {
      "channel": 3,
      "note": 109,
      "start": 6.749,
      "duration": 0.0156,
      "velocity": 68,
      "chip": "ym2612"
    },
    {
      "channel": 4,
      "note": 110,
      "start": 6.7493,
      "duration": 0.0156,
      "velocity": 69,
      "chip": "ym2612"
    },
    {
      "channel": 3,
      "note": 109,
      "start": 6.7647,
      "duration": 0.0167,
      "velocity": 68,
      "chip": "ym2612"
    },
    {
      "channel": 4,
      "note": 110,
      "start": 6.7649,
      "duration": 0.0167,
      "velocity": 69,
      "chip": "ym2612"
    },
    {
      "channel": 3,
      "note": 109,
      "start": 6.7813,
      "duration": 0.0167,
      "velocity": 68,
      "chip": "ym2612"
    },
    {
      "channel": 4,
      "note": 110,
      "start": 6.7815,
      "duration": 0.0167,
      "velocity": 69,
      "chip": "ym2612"
    },
    {
      "channel": 3,
      "note": 109,
      "start": 6.798,
      "duration": 0.0167,
      "velocity": 68,
      "chip": "ym2612"
    },
    {
      "channel": 4,
      "note": 110,
      "start": 6.7982,
      "duration": 0.0167,
      "velocity": 69,
      "chip": "ym2612"
    },
    {
      "channel": 3,
      "note": 109,
      "start": 6.8147,
      "duration": 0.0181,
      "velocity": 68,
      "chip": "ym2612"
    },
    {
      "channel": 4,
      "note": 110,
      "start": 6.8149,
      "duration": 0.0182,
      "velocity": 69,
      "chip": "ym2612"
    },
    {
      "channel": 0,
      "note": 60,
      "start": 6.8317,
      "duration": 0.0832,
      "velocity": 47,
      "chip": "ym2612"
    },
    {
      "channel": 2,
      "note": 46,
      "start": 6.8323,
      "duration": 0.0832,
      "velocity": 122,
      "chip": "ym2612"
    },
    {
      "channel": 3,
      "note": 109,
      "start": 6.8328,
      "duration": 0.0152,
      "velocity": 68,
      "chip": "ym2612"
    },
    {
      "channel": 4,
      "note": 110,
      "start": 6.8331,
      "duration": 0.0151,
      "velocity": 69,
      "chip": "ym2612"
    },
    {
      "channel": 3,
      "note": 109,
      "start": 6.848,
      "duration": 0.0167,
      "velocity": 68,
      "chip": "ym2612"
    },
    {
      "channel": 4,
      "note": 110,
      "start": 6.8482,
      "duration": 0.0167,
      "velocity": 69,
      "chip": "ym2612"
    },
    {
      "channel": 3,
      "note": 109,
      "start": 6.8647,
      "duration": 0.0167,
      "velocity": 68,
      "chip": "ym2612"
    },
    {
      "channel": 4,
      "note": 110,
      "start": 6.8649,
      "duration": 0.0167,
      "velocity": 69,
      "chip": "ym2612"
    },
    {
      "channel": 3,
      "note": 109,
      "start": 6.8813,
      "duration": 0.0167,
      "velocity": 68,
      "chip": "ym2612"
    },
    {
      "channel": 4,
      "note": 111,
      "start": 6.8816,
      "duration": 0.0167,
      "velocity": 69,
      "chip": "ym2612"
    },
    {
      "channel": 3,
      "note": 109,
      "start": 6.898,
      "duration": 0.0181,
      "velocity": 68,
      "chip": "ym2612"
    },
    {
      "channel": 4,
      "note": 111,
      "start": 6.8983,
      "duration": 0.0181,
      "velocity": 69,
      "chip": "ym2612"
    },
    {
      "channel": 0,
      "note": 63,
      "start": 6.9151,
      "duration": 0.4165,
      "velocity": 47,
      "chip": "ym2612"
    },
    {
      "channel": 2,
      "note": 34,
      "start": 6.9156,
      "duration": 0.0832,
      "velocity": 122,
      "chip": "ym2612"
    },
    {
      "channel": 3,
      "note": 109,
      "start": 6.9161,
      "duration": 0.0152,
      "velocity": 68,
      "chip": "ym2612"
    },
    {
      "channel": 4,
      "note": 111,
      "start": 6.9164,
      "duration": 0.0151,
      "velocity": 69,
      "chip": "ym2612"
    },
    {
      "channel": 3,
      "note": 110,
      "start": 6.9313,
      "duration": 0.0167,
      "velocity": 68,
      "chip": "ym2612"
    },
    {
      "channel": 4,
      "note": 111,
      "start": 6.9315,
      "duration": 0.0167,
      "velocity": 69,
      "chip": "ym2612"
    },
    {
      "channel": 3,
      "note": 110,
      "start": 6.948,
      "duration": 0.0167,
      "velocity": 68,
      "chip": "ym2612"
    },
    {
      "channel": 4,
      "note": 111,
      "start": 6.9482,
      "duration": 0.0167,
      "velocity": 69,
      "chip": "ym2612"
    },
    {
      "channel": 3,
      "note": 110,
      "start": 6.9647,
      "duration": 0.0167,
      "velocity": 68,
      "chip": "ym2612"
    },
    {
      "channel": 4,
      "note": 111,
      "start": 6.9649,
      "duration": 0.0167,
      "velocity": 69,
      "chip": "ym2612"
    },
    {
      "channel": 3,
      "note": 110,
      "start": 6.9813,
      "duration": 0.0182,
      "velocity": 68,
      "chip": "ym2612"
    },
    {
      "channel": 4,
      "note": 111,
      "start": 6.9815,
      "duration": 0.0183,
      "velocity": 69,
      "chip": "ym2612"
    },
    {
      "channel": 1,
      "note": 53,
      "start": 6.9985,
      "duration": 0.0831,
      "velocity": 47,
      "chip": "ym2612"
    },
    {
      "channel": 2,
      "note": 44,
      "start": 6.999,
      "duration": 0.0831,
      "velocity": 122,
      "chip": "ym2612"
    },
    {
      "channel": 3,
      "note": 110,
      "start": 6.9995,
      "duration": 0.0151,
      "velocity": 68,
      "chip": "ym2612"
    },
    {
      "channel": 4,
      "note": 111,
      "start": 6.9998,
      "duration": 0.0151,
      "velocity": 69,
      "chip": "ym2612"
    },
    {
      "channel": 3,
      "note": 110,
      "start": 7.0147,
      "duration": 0.0167,
      "velocity": 68,
      "chip": "ym2612"
    },
    {
      "channel": 4,
      "note": 111,
      "start": 7.0149,
      "duration": 0.0167,
      "velocity": 69,
      "chip": "ym2612"
    },
    {
      "channel": 3,
      "note": 110,
      "start": 7.0313,
      "duration": 0.0167,
      "velocity": 68,
      "chip": "ym2612"
    },
    {
      "channel": 4,
      "note": 111,
      "start": 7.0315,
      "duration": 0.0167,
      "velocity": 69,
      "chip": "ym2612"
    },
    {
      "channel": 3,
      "note": 110,
      "start": 7.048,
      "duration": 0.0167,
      "velocity": 68,
      "chip": "ym2612"
    },
    {
      "channel": 4,
      "note": 111,
      "start": 7.0483,
      "duration": 0.0167,
      "velocity": 69,
      "chip": "ym2612"
    },
    {
      "channel": 3,
      "note": 110,
      "start": 7.0647,
      "duration": 0.0181,
      "velocity": 68,
      "chip": "ym2612"
    },
    {
      "channel": 4,
      "note": 111,
      "start": 7.0649,
      "duration": 0.0181,
      "velocity": 69,
      "chip": "ym2612"
    },
    {
      "channel": 1,
      "note": 65,
      "start": 7.0818,
      "duration": 0.0831,
      "velocity": 47,
      "chip": "ym2612"
    },
    {
      "channel": 2,
      "note": 46,
      "start": 7.0823,
      "duration": 0.0832,
      "velocity": 122,
      "chip": "ym2612"
    },
    {
      "channel": 3,
      "note": 110,
      "start": 7.0828,
      "duration": 0.0152,
      "velocity": 68,
      "chip": "ym2612"
    },
    {
      "channel": 4,
      "note": 111,
      "start": 7.0831,
      "duration": 0.0151,
      "velocity": 69,
      "chip": "ym2612"
    },
    {
      "channel": 3,
      "note": 110,
      "start": 7.098,
      "duration": 0.0167,
      "velocity": 68,
      "chip": "ym2612"
    },
    {
      "channel": 4,
      "note": 112,
      "start": 7.0982,
      "duration": 0.0167,
      "velocity": 69,
      "chip": "ym2612"
    },
    {
      "channel": 3,
      "note": 110,
      "start": 7.1147,
      "duration": 0.0167,
      "velocity": 68,
      "chip": "ym2612"
    },
    {
      "channel": 4,
      "note": 112,
      "start": 7.1149,
      "duration": 0.0167,
      "velocity": 69,
      "chip": "ym2612"
    },
    {
      "channel": 3,
      "note": 110,
      "start": 7.1313,
      "duration": 0.0167,
      "velocity": 68,
      "chip": "ym2612"
    },
    {
      "channel": 4,
      "note": 112,
      "start": 7.1315,
      "duration": 0.0167,
      "velocity": 69,
      "chip": "ym2612"
    },
    {
      "channel": 3,
      "note": 111,
      "start": 7.148,
      "duration": 0.0181,
      "velocity": 68,
      "chip": "ym2612"
    },
    {
      "channel": 4,
      "note": 112,
      "start": 7.1482,
      "duration": 0.0182,
      "velocity": 69,
      "chip": "ym2612"
    },
    {
      "channel": 1,
      "note": 60,
      "start": 7.1651,
      "duration": 0.0831,
      "velocity": 47,
      "chip": "ym2612"
    },
    {
      "channel": 2,
      "note": 32,
      "start": 7.1656,
      "duration": 0.0832,
      "velocity": 122,
      "chip": "ym2612"
    },
    {
      "channel": 3,
      "note": 111,
      "start": 7.1661,
      "duration": 0.0152,
      "velocity": 68,
      "chip": "ym2612"
    },
    {
      "channel": 4,
      "note": 112,
      "start": 7.1664,
      "duration": 0.0151,
      "velocity": 69,
      "chip": "ym2612"
    },
    {
      "channel": 3,
      "note": 111,
      "start": 7.1813,
      "duration": 0.0167,
      "velocity": 68,
      "chip": "ym2612"
    },
    {
      "channel": 4,
      "note": 112,
      "start": 7.1815,
      "duration": 0.0167,
      "velocity": 69,
      "chip": "ym2612"
    },
    {
      "channel": 3,
      "note": 111,
      "start": 7.198,
      "duration": 0.0167,
      "velocity": 68,
      "chip": "ym2612"
    },
    {
      "channel": 4,
      "note": 112,
      "start": 7.1983,
      "duration": 0.0167,
      "velocity": 69,
      "chip": "ym2612"
    },
    {
      "channel": 3,
      "note": 111,
      "start": 7.2147,
      "duration": 0.0167,
      "velocity": 68,
      "chip": "ym2612"
    },
    {
      "channel": 4,
      "note": 112,
      "start": 7.2149,
      "duration": 0.0167,
      "velocity": 69,
      "chip": "ym2612"
    },
    {
      "channel": 3,
      "note": 111,
      "start": 7.2313,
      "duration": 0.0181,
      "velocity": 68,
      "chip": "ym2612"
    },
    {
      "channel": 4,
      "note": 112,
      "start": 7.2316,
      "duration": 0.0181,
      "velocity": 69,
      "chip": "ym2612"
    },
    {
      "channel": 1,
      "note": 63,
      "start": 7.2485,
      "duration": 0.4165,
      "velocity": 47,
      "chip": "ym2612"
    },
    {
      "channel": 2,
      "note": 34,
      "start": 7.249,
      "duration": 0.0832,
      "velocity": 122,
      "chip": "ym2612"
    },
    {
      "channel": 3,
      "note": 111,
      "start": 7.2495,
      "duration": 0.0152,
      "velocity": 68,
      "chip": "ym2612"
    },
    {
      "channel": 4,
      "note": 112,
      "start": 7.2497,
      "duration": 0.0151,
      "velocity": 69,
      "chip": "ym2612"
    },
    {
      "channel": 3,
      "note": 111,
      "start": 7.2647,
      "duration": 0.0167,
      "velocity": 68,
      "chip": "ym2612"
    },
    {
      "channel": 4,
      "note": 112,
      "start": 7.2649,
      "duration": 0.0167,
      "velocity": 69,
      "chip": "ym2612"
    },
    {
      "channel": 3,
      "note": 111,
      "start": 7.2813,
      "duration": 0.0167,
      "velocity": 68,
      "chip": "ym2612"
    },
    {
      "channel": 4,
      "note": 112,
      "start": 7.2815,
      "duration": 0.0167,
      "velocity": 69,
      "chip": "ym2612"
    },
    {
      "channel": 3,
      "note": 111,
      "start": 7.298,
      "duration": 0.0167,
      "velocity": 68,
      "chip": "ym2612"
    },
    {
      "channel": 4,
      "note": 112,
      "start": 7.2982,
      "duration": 0.0167,
      "velocity": 69,
      "chip": "ym2612"
    },
    {
      "channel": 3,
      "note": 111,
      "start": 7.3147,
      "duration": 0.0182,
      "velocity": 68,
      "chip": "ym2612"
    },
    {
      "channel": 4,
      "note": 112,
      "start": 7.3149,
      "duration": 0.0183,
      "velocity": 69,
      "chip": "ym2612"
    },
    {
      "channel": 0,
      "note": 53,
      "start": 7.3318,
      "duration": 0.0831,
      "velocity": 47,
      "chip": "ym2612"
    },
    {
      "channel": 2,
      "note": 34,
      "start": 7.3324,
      "duration": 0.1664,
      "velocity": 122,
      "chip": "ym2612"
    },
    {
      "channel": 3,
      "note": 111,
      "start": 7.3329,
      "duration": 0.0151,
      "velocity": 68,
      "chip": "ym2612"
    },
    {
      "channel": 4,
      "note": 113,
      "start": 7.3331,
      "duration": 0.0151,
      "velocity": 69,
      "chip": "ym2612"
    },
    {
      "channel": 3,
      "note": 111,
      "start": 7.348,
      "duration": 0.0167,
      "velocity": 68,
      "chip": "ym2612"
    },
    {
      "channel": 4,
      "note": 113,
      "start": 7.3482,
      "duration": 0.0167,
      "velocity": 69,
      "chip": "ym2612"
    },
    {
      "channel": 3,
      "note": 112,
      "start": 7.3647,
      "duration": 0.0167,
      "velocity": 68,
      "chip": "ym2612"
    },
    {
      "channel": 4,
      "note": 113,
      "start": 7.3649,
      "duration": 0.0167,
      "velocity": 69,
      "chip": "ym2612"
    },
    {
      "channel": 3,
      "note": 112,
      "start": 7.3813,
      "duration": 0.0167,
      "velocity": 68,
      "chip": "ym2612"
    },
    {
      "channel": 4,
      "note": 113,
      "start": 7.3816,
      "duration": 0.0167,
      "velocity": 69,
      "chip": "ym2612"
    },
    {
      "channel": 3,
      "note": 112,
      "start": 7.398,
      "duration": 0.0177,
      "velocity": 68,
      "chip": "ym2612"
    },
    {
      "channel": 4,
      "note": 113,
      "start": 7.3983,
      "duration": 0.0177,
      "velocity": 69,
      "chip": "ym2612"
    },
    {
      "channel": 0,
      "note": 65,
      "start": 7.4151,
      "duration": 0.0832,
      "velocity": 47,
      "chip": "ym2612"
    },
    {
      "channel": 3,
      "note": 112,
      "start": 7.4157,
      "duration": 0.0156,
      "velocity": 68,
      "chip": "ym2612"
    },
    {
      "channel": 4,
      "note": 113,
      "start": 7.4159,
      "duration": 0.0156,
      "velocity": 69,
      "chip": "ym2612"
    },
    {
      "channel": 3,
      "note": 112,
      "start": 7.4313,
      "duration": 0.0167,
      "velocity": 68,
      "chip": "ym2612"
    },
    {
      "channel": 4,
      "note": 113,
      "start": 7.4315,
      "duration": 0.0167,
      "velocity": 69,
      "chip": "ym2612"
    },
    {
      "channel": 3,
      "note": 112,
      "start": 7.448,
      "duration": 0.0167,
      "velocity": 68,
      "chip": "ym2612"
    },
    {
      "channel": 4,
      "note": 113,
      "start": 7.4482,
      "duration": 0.0167,
      "velocity": 69,
      "chip": "ym2612"
    },
    {
      "channel": 3,
      "note": 112,
      "start": 7.4647,
      "duration": 0.0167,
      "velocity": 68,
      "chip": "ym2612"
    },
    {
      "channel": 4,
      "note": 113,
      "start": 7.4649,
      "duration": 0.0167,
      "velocity": 69,
      "chip": "ym2612"
    },
    {
      "channel": 3,
      "note": 112,
      "start": 7.4813,
      "duration": 0.0181,
      "velocity": 68,
      "chip": "ym2612"
    },
    {
      "channel": 4,
      "note": 113,
      "start": 7.4815,
      "duration": 0.0182,
      "velocity": 69,
      "chip": "ym2612"
    },
    {
      "channel": 0,
      "note": 60,
      "start": 7.4984,
      "duration": 0.0832,
      "velocity": 47,
      "chip": "ym2612"
    },
    {
      "channel": 2,
      "note": 46,
      "start": 7.499,
      "duration": 0.0832,
      "velocity": 122,
      "chip": "ym2612"
    },
    {
      "channel": 3,
      "note": 112,
      "start": 7.4995,
      "duration": 0.0152,
      "velocity": 68,
      "chip": "ym2612"
    },
    {
      "channel": 4,
      "note": 113,
      "start": 7.4997,
      "duration": 0.0151,
      "velocity": 69,
      "chip": "ym2612"
    },
    {
      "channel": 3,
      "note": 112,
      "start": 7.5147,
      "duration": 0.0167,
      "velocity": 68,
      "chip": "ym2612"
    },
    {
      "channel": 4,
      "note": 113,
      "start": 7.5149,
      "duration": 0.0167,
      "velocity": 69,
      "chip": "ym2612"
    },
    {
      "channel": 3,
      "note": 112,
      "start": 7.5313,
      "duration": 0.0167,
      "velocity": 68,
      "chip": "ym2612"
    },
    {
      "channel": 4,
      "note": 113,
      "start": 7.5316,
      "duration": 0.0166,
      "velocity": 69,
      "chip": "ym2612"
    },
    {
      "channel": 3,
      "note": 112,
      "start": 7.548,
      "duration": 0.0167,
      "velocity": 68,
      "chip": "ym2612"
    },
    {
      "channel": 4,
      "note": 113,
      "start": 7.5482,
      "duration": 0.0167,
      "velocity": 69,
      "chip": "ym2612"
    },
    {
      "channel": 3,
      "note": 112,
      "start": 7.5647,
      "duration": 0.0181,
      "velocity": 68,
      "chip": "ym2612"
    },
    {
      "channel": 4,
      "note": 113,
      "start": 7.5649,
      "duration": 0.0182,
      "velocity": 69,
      "chip": "ym2612"
    },
    {
      "channel": 0,
      "note": 63,
      "start": 7.5817,
      "duration": 0.4166,
      "velocity": 47,
      "chip": "ym2612"
    },
    {
      "channel": 2,
      "note": 34,
      "start": 7.5823,
      "duration": 0.0832,
      "velocity": 122,
      "chip": "ym2612"
    },
    {
      "channel": 3,
      "note": 112,
      "start": 7.5828,
      "duration": 0.0152,
      "velocity": 68,
      "chip": "ym2612"
    },
    {
      "channel": 4,
      "note": 114,
      "start": 7.5831,
      "duration": 0.0151,
      "velocity": 69,
      "chip": "ym2612"
    },
    {
      "channel": 3,
      "note": 112,
      "start": 7.598,
      "duration": 0.0167,
      "velocity": 68,
      "chip": "ym2612"
    },
    {
      "channel": 4,
      "note": 114,
      "start": 7.5982,
      "duration": 0.0167,
      "velocity": 69,
      "chip": "ym2612"
    },
    {
      "channel": 3,
      "note": 113,
      "start": 7.6147,
      "duration": 0.0167,
      "velocity": 68,
      "chip": "ym2612"
    },
    {
      "channel": 4,
      "note": 114,
      "start": 7.6149,
      "duration": 0.0167,
      "velocity": 69,
      "chip": "ym2612"
    },
    {
      "channel": 3,
      "note": 113,
      "start": 7.6313,
      "duration": 0.0167,
      "velocity": 68,
      "chip": "ym2612"
    },
    {
      "channel": 4,
      "note": 114,
      "start": 7.6315,
      "duration": 0.0167,
      "velocity": 69,
      "chip": "ym2612"
    },
    {
      "channel": 3,
      "note": 113,
      "start": 7.648,
      "duration": 0.0182,
      "velocity": 68,
      "chip": "ym2612"
    },
    {
      "channel": 4,
      "note": 114,
      "start": 7.6482,
      "duration": 0.0183,
      "velocity": 69,
      "chip": "ym2612"
    },
    {
      "channel": 1,
      "note": 53,
      "start": 7.6652,
      "duration": 0.0831,
      "velocity": 47,
      "chip": "ym2612"
    },
    {
      "channel": 2,
      "note": 44,
      "start": 7.6657,
      "duration": 0.0831,
      "velocity": 122,
      "chip": "ym2612"
    },
    {
      "channel": 3,
      "note": 113,
      "start": 7.6662,
      "duration": 0.0151,
      "velocity": 68,
      "chip": "ym2612"
    },
    {
      "channel": 4,
      "note": 114,
      "start": 7.6665,
      "duration": 0.0151,
      "velocity": 69,
      "chip": "ym2612"
    },
    {
      "channel": 3,
      "note": 113,
      "start": 7.6813,
      "duration": 0.0167,
      "velocity": 68,
      "chip": "ym2612"
    },
    {
      "channel": 4,
      "note": 114,
      "start": 7.6815,
      "duration": 0.0167,
      "velocity": 69,
      "chip": "ym2612"
    },
    {
      "channel": 3,
      "note": 113,
      "start": 7.698,
      "duration": 0.0167,
      "velocity": 68,
      "chip": "ym2612"
    },
    {
      "channel": 4,
      "note": 114,
      "start": 7.6983,
      "duration": 0.0167,
      "velocity": 69,
      "chip": "ym2612"
    },
    {
      "channel": 3,
      "note": 113,
      "start": 7.7147,
      "duration": 0.0167,
      "velocity": 68,
      "chip": "ym2612"
    },
    {
      "channel": 4,
      "note": 114,
      "start": 7.7149,
      "duration": 0.0166,
      "velocity": 69,
      "chip": "ym2612"
    },
    {
      "channel": 3,
      "note": 113,
      "start": 7.7313,
      "duration": 0.0181,
      "velocity": 68,
      "chip": "ym2612"
    },
    {
      "channel": 4,
      "note": 114,
      "start": 7.7315,
      "duration": 0.0182,
      "velocity": 69,
      "chip": "ym2612"
    },
    {
      "channel": 1,
      "note": 65,
      "start": 7.7485,
      "duration": 0.0831,
      "velocity": 47,
      "chip": "ym2612"
    },
    {
      "channel": 2,
      "note": 46,
      "start": 7.749,
      "duration": 0.0832,
      "velocity": 122,
      "chip": "ym2612"
    },
    {
      "channel": 3,
      "note": 113,
      "start": 7.7495,
      "duration": 0.0152,
      "velocity": 68,
      "chip": "ym2612"
    },
    {
      "channel": 4,
      "note": 114,
      "start": 7.7497,
      "duration": 0.0151,
      "velocity": 69,
      "chip": "ym2612"
    },
    {
      "channel": 3,
      "note": 113,
      "start": 7.7647,
      "duration": 0.0167,
      "velocity": 68,
      "chip": "ym2612"
    },
    {
      "channel": 4,
      "note": 114,
      "start": 7.7649,
      "duration": 0.0167,
      "velocity": 69,
      "chip": "ym2612"
    },
    {
      "channel": 3,
      "note": 113,
      "start": 7.7813,
      "duration": 0.0167,
      "velocity": 68,
      "chip": "ym2612"
    },
    {
      "channel": 4,
      "note": 114,
      "start": 7.7815,
      "duration": 0.0167,
      "velocity": 69,
      "chip": "ym2612"
    },
    {
      "channel": 3,
      "note": 113,
      "start": 7.798,
      "duration": 0.0167,
      "velocity": 68,
      "chip": "ym2612"
    },
    {
      "channel": 4,
      "note": 114,
      "start": 7.7982,
      "duration": 0.0167,
      "velocity": 69,
      "chip": "ym2612"
    },
    {
      "channel": 3,
      "note": 113,
      "start": 7.8147,
      "duration": 0.0181,
      "velocity": 68,
      "chip": "ym2612"
    },
    {
      "channel": 4,
      "note": 114,
      "start": 7.8149,
      "duration": 0.0182,
      "velocity": 69,
      "chip": "ym2612"
    },
    {
      "channel": 1,
      "note": 60,
      "start": 7.8318,
      "duration": 0.0832,
      "velocity": 47,
      "chip": "ym2612"
    },
    {
      "channel": 2,
      "note": 32,
      "start": 7.8323,
      "duration": 0.0832,
      "velocity": 122,
      "chip": "ym2612"
    },
    {
      "channel": 3,
      "note": 113,
      "start": 7.8328,
      "duration": 0.0152,
      "velocity": 68,
      "chip": "ym2612"
    },
    {
      "channel": 4,
      "note": 114,
      "start": 7.8331,
      "duration": 0.0151,
      "velocity": 69,
      "chip": "ym2612"
    },
    {
      "channel": 3,
      "note": 114,
      "start": 7.848,
      "duration": 0.0167,
      "velocity": 68,
      "chip": "ym2612"
    },
    {
      "channel": 4,
      "note": 115,
      "start": 7.8482,
      "duration": 0.0167,
      "velocity": 69,
      "chip": "ym2612"
    },
    {
      "channel": 3,
      "note": 114,
      "start": 7.8647,
      "duration": 0.0167,
      "velocity": 68,
      "chip": "ym2612"
    },
    {
      "channel": 4,
      "note": 115,
      "start": 7.8649,
      "duration": 0.0167,
      "velocity": 69,
      "chip": "ym2612"
    },
    {
      "channel": 3,
      "note": 114,
      "start": 7.8813,
      "duration": 0.0167,
      "velocity": 68,
      "chip": "ym2612"
    },
    {
      "channel": 4,
      "note": 115,
      "start": 7.8815,
      "duration": 0.0167,
      "velocity": 69,
      "chip": "ym2612"
    },
    {
      "channel": 3,
      "note": 114,
      "start": 7.898,
      "duration": 0.0181,
      "velocity": 68,
      "chip": "ym2612"
    },
    {
      "channel": 4,
      "note": 115,
      "start": 7.8983,
      "duration": 0.0181,
      "velocity": 69,
      "chip": "ym2612"
    },
    {
      "channel": 1,
      "note": 63,
      "start": 7.9151,
      "duration": 0.4165,
      "velocity": 47,
      "chip": "ym2612"
    },
    {
      "channel": 2,
      "note": 34,
      "start": 7.9156,
      "duration": 0.0833,
      "velocity": 122,
      "chip": "ym2612"
    },
    {
      "channel": 3,
      "note": 114,
      "start": 7.9161,
      "duration": 0.0152,
      "velocity": 68,
      "chip": "ym2612"
    },
    {
      "channel": 4,
      "note": 115,
      "start": 7.9164,
      "duration": 0.0151,
      "velocity": 69,
      "chip": "ym2612"
    },
    {
      "channel": 3,
      "note": 114,
      "start": 7.9313,
      "duration": 0.0167,
      "velocity": 68,
      "chip": "ym2612"
    },
    {
      "channel": 4,
      "note": 115,
      "start": 7.9315,
      "duration": 0.0167,
      "velocity": 69,
      "chip": "ym2612"
    },
    {
      "channel": 3,
      "note": 114,
      "start": 7.948,
      "duration": 0.0167,
      "velocity": 68,
      "chip": "ym2612"
    },
    {
      "channel": 4,
      "note": 115,
      "start": 7.9482,
      "duration": 0.0167,
      "velocity": 69,
      "chip": "ym2612"
    },
    {
      "channel": 3,
      "note": 114,
      "start": 7.9647,
      "duration": 0.0167,
      "velocity": 68,
      "chip": "ym2612"
    },
    {
      "channel": 4,
      "note": 115,
      "start": 7.9649,
      "duration": 0.0167,
      "velocity": 69,
      "chip": "ym2612"
    },
    {
      "channel": 3,
      "note": 114,
      "start": 7.9813,
      "duration": 0.0188,
      "velocity": 68,
      "chip": "ym2612"
    },
    {
      "channel": 4,
      "note": 115,
      "start": 7.9815,
      "duration": 0.0188,
      "velocity": 69,
      "chip": "ym2612"
    },
    {
      "channel": 0,
      "note": 55,
      "start": 7.9985,
      "duration": 0.0831,
      "velocity": 47,
      "chip": "ym2612"
    },
    {
      "channel": 2,
      "note": 36,
      "start": 7.9991,
      "duration": 0.1663,
      "velocity": 122,
      "chip": "ym2612"
    },
    {
      "channel": 5,
      "note": -1,
      "start": 7.9998,
      "duration": 0.0008,
      "velocity": 1,
      "chip": "ym2612"
    },
    {
      "channel": 3,
      "note": 114,
      "start": 8.0001,
      "duration": 0.0146,
      "velocity": 68,
      "chip": "ym2612"
    },
    {
      "channel": 4,
      "note": 115,
      "start": 8.0004,
      "duration": 0.0145,
      "velocity": 69,
      "chip": "ym2612"
    },
    {
      "channel": 5,
      "note": 77,
      "start": 8.0006,
      "duration": 0.0145,
      "velocity": 1,
      "chip": "ym2612"
    },
    {
      "channel": 3,
      "note": 114,
      "start": 8.0147,
      "duration": 0.0167,
      "velocity": 68,
      "chip": "ym2612"
    },
    {
      "channel": 4,
      "note": 115,
      "start": 8.0149,
      "duration": 0.0167,
      "velocity": 69,
      "chip": "ym2612"
    },
    {
      "channel": 5,
      "note": 77,
      "start": 8.0151,
      "duration": 0.0167,
      "velocity": 1,
      "chip": "ym2612"
    },
    {
      "channel": 3,
      "note": 114,
      "start": 8.0313,
      "duration": 0.0167,
      "velocity": 68,
      "chip": "ym2612"
    },
    {
      "channel": 4,
      "note": 115,
      "start": 8.0316,
      "duration": 0.0167,
      "velocity": 69,
      "chip": "ym2612"
    },
    {
      "channel": 5,
      "note": 77,
      "start": 8.0318,
      "duration": 0.0167,
      "velocity": 1,
      "chip": "ym2612"
    },
    {
      "channel": 3,
      "note": 114,
      "start": 8.048,
      "duration": 0.0167,
      "velocity": 68,
      "chip": "ym2612"
    },
    {
      "channel": 4,
      "note": 115,
      "start": 8.0483,
      "duration": 0.0166,
      "velocity": 69,
      "chip": "ym2612"
    },
    {
      "channel": 5,
      "note": 77,
      "start": 8.0485,
      "duration": 0.0167,
      "velocity": 1,
      "chip": "ym2612"
    },
    {
      "channel": 3,
      "note": 114,
      "start": 8.0647,
      "duration": 0.0178,
      "velocity": 68,
      "chip": "ym2612"
    },
    {
      "channel": 4,
      "note": 114,
      "start": 8.0649,
      "duration": 0.0178,
      "velocity": 69,
      "chip": "ym2612"
    },
    {
      "channel": 5,
      "note": 76,
      "start": 8.0651,
      "duration": 0.0177,
      "velocity": 1,
      "chip": "ym2612"
    },
    {
      "channel": 0,
      "note": 67,
      "start": 8.0818,
      "duration": 0.0831,
      "velocity": 47,
      "chip": "ym2612"
    },
    {
      "channel": 3,
      "note": 114,
      "start": 8.0824,
      "duration": 0.0156,
      "velocity": 68,
      "chip": "ym2612"
    },
    {
      "channel": 4,
      "note": 114,
      "start": 8.0827,
      "duration": 0.0155,
      "velocity": 69,
      "chip": "ym2612"
    },
    {
      "channel": 5,
      "note": 76,
      "start": 8.0829,
      "duration": 0.0156,
      "velocity": 1,
      "chip": "ym2612"
    },
    {
      "channel": 3,
      "note": 114,
      "start": 8.098,
      "duration": 0.0167,
      "velocity": 68,
      "chip": "ym2612"
    },
    {
      "channel": 4,
      "note": 114,
      "start": 8.0982,
      "duration": 0.0167,
      "velocity": 69,
      "chip": "ym2612"
    },
    {
      "channel": 5,
      "note": 76,
      "start": 8.0985,
      "duration": 0.0167,
      "velocity": 1,
      "chip": "ym2612"
    },
    {
      "channel": 3,
      "note": 115,
      "start": 8.1147,
      "duration": 0.0167,
      "velocity": 68,
      "chip": "ym2612"
    },
    {
      "channel": 4,
      "note": 114,
      "start": 8.1149,
      "duration": 0.0167,
      "velocity": 69,
      "chip": "ym2612"
    },
    {
      "channel": 5,
      "note": 76,
      "start": 8.1151,
      "duration": 0.0167,
      "velocity": 1,
      "chip": "ym2612"
    },
    {
      "channel": 3,
      "note": 115,
      "start": 8.1313,
      "duration": 0.0167,
      "velocity": 68,
      "chip": "ym2612"
    },
    {
      "channel": 4,
      "note": 114,
      "start": 8.1315,
      "duration": 0.0167,
      "velocity": 69,
      "chip": "ym2612"
    },
    {
      "channel": 5,
      "note": 76,
      "start": 8.1318,
      "duration": 0.0167,
      "velocity": 1,
      "chip": "ym2612"
    },
    {
      "channel": 3,
      "note": 115,
      "start": 8.148,
      "duration": 0.0181,
      "velocity": 68,
      "chip": "ym2612"
    },
    {
      "channel": 4,
      "note": 114,
      "start": 8.1482,
      "duration": 0.0182,
      "velocity": 69,
      "chip": "ym2612"
    },
    {
      "channel": 5,
      "note": 76,
      "start": 8.1485,
      "duration": 0.0182,
      "velocity": 1,
      "chip": "ym2612"
    },
    {
      "channel": 0,
      "note": 62,
      "start": 8.1651,
      "duration": 0.0832,
      "velocity": 47,
      "chip": "ym2612"
    },
    {
      "channel": 2,
      "note": 48,
      "start": 8.1656,
      "duration": 0.0832,
      "velocity": 122,
      "chip": "ym2612"
    },
    {
      "channel": 3,
      "note": 115,
      "start": 8.1661,
      "duration": 0.0152,
      "velocity": 68,
      "chip": "ym2612"
    },
    {
      "channel": 4,
      "note": 114,
      "start": 8.1664,
      "duration": 0.0151,
      "velocity": 69,
      "chip": "ym2612"
    },
    {
      "channel": 5,
      "note": 76,
      "start": 8.1666,
      "duration": 0.0151,
      "velocity": 1,
      "chip": "ym2612"
    },
    {
      "channel": 3,
      "note": 115,
      "start": 8.1813,
      "duration": 0.0167,
      "velocity": 68,
      "chip": "ym2612"
    },
    {
      "channel": 4,
      "note": 114,
      "start": 8.1815,
      "duration": 0.0167,
      "velocity": 69,
      "chip": "ym2612"
    },
    {
      "channel": 5,
      "note": 76,
      "start": 8.1818,
      "duration": 0.0167,
      "velocity": 1,
      "chip": "ym2612"
    },
    {
      "channel": 3,
      "note": 115,
      "start": 8.198,
      "duration": 0.0167,
      "velocity": 68,
      "chip": "ym2612"
    },
    {
      "channel": 4,
      "note": 113,
      "start": 8.1983,
      "duration": 0.0167,
      "velocity": 69,
      "chip": "ym2612"
    },
    {
      "channel": 5,
      "note": 76,
      "start": 8.1985,
      "duration": 0.0167,
      "velocity": 1,
      "chip": "ym2612"
    },
    {
      "channel": 3,
      "note": 115,
      "start": 8.2147,
      "duration": 0.0167,
      "velocity": 68,
      "chip": "ym2612"
    },
    {
      "channel": 4,
      "note": 113,
      "start": 8.2149,
      "duration": 0.0167,
      "velocity": 69,
      "chip": "ym2612"
    },
    {
      "channel": 5,
      "note": 76,
      "start": 8.2151,
      "duration": 0.0167,
      "velocity": 1,
      "chip": "ym2612"
    },
    {
      "channel": 3,
      "note": 115,
      "start": 8.2313,
      "duration": 0.0181,
      "velocity": 68,
      "chip": "ym2612"
    },
    {
      "channel": 4,
      "note": 113,
      "start": 8.2316,
      "duration": 0.0181,
      "velocity": 69,
      "chip": "ym2612"
    },
    {
      "channel": 5,
      "note": 76,
      "start": 8.2318,
      "duration": 0.0182,
      "velocity": 1,
      "chip": "ym2612"
    },
    {
      "channel": 0,
      "note": 65,
      "start": 8.2485,
      "duration": 0.4165,
      "velocity": 47,
      "chip": "ym2612"
    },
    {
      "channel": 2,
      "note": 36,
      "start": 8.249,
      "duration": 0.0832,
      "velocity": 122,
      "chip": "ym2612"
    },
    {
      "channel": 3,
      "note": 115,
      "start": 8.2495,
      "duration": 0.0152,
      "velocity": 68,
      "chip": "ym2612"
    },
    {
      "channel": 4,
      "note": 113,
      "start": 8.2497,
      "duration": 0.0151,
      "velocity": 69,
      "chip": "ym2612"
    },
    {
      "channel": 5,
      "note": 76,
      "start": 8.25,
      "duration": 0.0151,
      "velocity": 1,
      "chip": "ym2612"
    },
    {
      "channel": 3,
      "note": 115,
      "start": 8.2647,
      "duration": 0.0167,
      "velocity": 68,
      "chip": "ym2612"
    },
    {
      "channel": 4,
      "note": 113,
      "start": 8.2649,
      "duration": 0.0167,
      "velocity": 69,
      "chip": "ym2612"
    },
    {
      "channel": 5,
      "note": 76,
      "start": 8.2651,
      "duration": 0.0167,
      "velocity": 1,
      "chip": "ym2612"
    },
    {
      "channel": 3,
      "note": 115,
      "start": 8.2813,
      "duration": 0.0167,
      "velocity": 68,
      "chip": "ym2612"
    },
    {
      "channel": 4,
      "note": 113,
      "start": 8.2815,
      "duration": 0.0167,
      "velocity": 69,
      "chip": "ym2612"
    },
    {
      "channel": 5,
      "note": 76,
      "start": 8.2818,
      "duration": 0.0167,
      "velocity": 1,
      "chip": "ym2612"
    },
    {
      "channel": 3,
      "note": 115,
      "start": 8.298,
      "duration": 0.0167,
      "velocity": 68,
      "chip": "ym2612"
    },
    {
      "channel": 4,
      "note": 113,
      "start": 8.2982,
      "duration": 0.0167,
      "velocity": 69,
      "chip": "ym2612"
    },
    {
      "channel": 5,
      "note": 75,
      "start": 8.2985,
      "duration": 0.0167,
      "velocity": 1,
      "chip": "ym2612"
    },
    {
      "channel": 3,
      "note": 115,
      "start": 8.3147,
      "duration": 0.0182,
      "velocity": 68,
      "chip": "ym2612"
    },
    {
      "channel": 4,
      "note": 112,
      "start": 8.3149,
      "duration": 0.0183,
      "velocity": 69,
      "chip": "ym2612"
    },
    {
      "channel": 5,
      "note": 75,
      "start": 8.3151,
      "duration": 0.0182,
      "velocity": 1,
      "chip": "ym2612"
    },
    {
      "channel": 1,
      "note": 55,
      "start": 8.3319,
      "duration": 0.0831,
      "velocity": 47,
      "chip": "ym2612"
    },
    {
      "channel": 2,
      "note": 46,
      "start": 8.3324,
      "duration": 0.0831,
      "velocity": 122,
      "chip": "ym2612"
    },
    {
      "channel": 3,
      "note": 115,
      "start": 8.3329,
      "duration": 0.0151,
      "velocity": 68,
      "chip": "ym2612"
    },
    {
      "channel": 4,
      "note": 112,
      "start": 8.3331,
      "duration": 0.0151,
      "velocity": 69,
      "chip": "ym2612"
    },
    {
      "channel": 5,
      "note": 75,
      "start": 8.3333,
      "duration": 0.0151,
      "velocity": 1,
      "chip": "ym2612"
    },
    {
      "channel": 3,
      "note": 115,
      "start": 8.348,
      "duration": 0.0167,
      "velocity": 68,
      "chip": "ym2612"
    },
    {
      "channel": 4,
      "note": 112,
      "start": 8.3482,
      "duration": 0.0167,
      "velocity": 69,
      "chip": "ym2612"
    },
    {
      "channel": 5,
      "note": 75,
      "start": 8.3485,
      "duration": 0.0167,
      "velocity": 1,
      "chip": "ym2612"
    },
    {
      "channel": 3,
      "note": 115,
      "start": 8.3647,
      "duration": 0.0167,
      "velocity": 68,
      "chip": "ym2612"
    },
    {
      "channel": 4,
      "note": 112,
      "start": 8.3649,
      "duration": 0.0167,
      "velocity": 69,
      "chip": "ym2612"
    },
    {
      "channel": 5,
      "note": 75,
      "start": 8.3651,
      "duration": 0.0167,
      "velocity": 1,
      "chip": "ym2612"
    },
    {
      "channel": 3,
      "note": 115,
      "start": 8.3813,
      "duration": 0.0167,
      "velocity": 68,
      "chip": "ym2612"
    },
    {
      "channel": 4,
      "note": 112,
      "start": 8.3816,
      "duration": 0.0167,
      "velocity": 69,
      "chip": "ym2612"
    },
    {
      "channel": 5,
      "note": 75,
      "start": 8.3818,
      "duration": 0.0167,
      "velocity": 1,
      "chip": "ym2612"
    },
    {
      "channel": 3,
      "note": 116,
      "start": 8.398,
      "duration": 0.0181,
      "velocity": 68,
      "chip": "ym2612"
    },
    {
      "channel": 4,
      "note": 112,
      "start": 8.3983,
      "duration": 0.0181,
      "velocity": 69,
      "chip": "ym2612"
    },
    {
      "channel": 5,
      "note": 75,
      "start": 8.3985,
      "duration": 0.0181,
      "velocity": 1,
      "chip": "ym2612"
    },
    {
      "channel": 1,
      "note": 67,
      "start": 8.4151,
      "duration": 0.0832,
      "velocity": 47,
      "chip": "ym2612"
    },
    {
      "channel": 2,
      "note": 48,
      "start": 8.4156,
      "duration": 0.0832,
      "velocity": 122,
      "chip": "ym2612"
    },
    {
      "channel": 3,
      "note": 116,
      "start": 8.4161,
      "duration": 0.0152,
      "velocity": 68,
      "chip": "ym2612"
    },
    {
      "channel": 4,
      "note": 112,
      "start": 8.4164,
      "duration": 0.0151,
      "velocity": 69,
      "chip": "ym2612"
    },
    {
      "channel": 5,
      "note": 75,
      "start": 8.4166,
      "duration": 0.0152,
      "velocity": 1,
      "chip": "ym2612"
    },
    {
      "channel": 3,
      "note": 116,
      "start": 8.4313,
      "duration": 0.0167,
      "velocity": 68,
      "chip": "ym2612"
    },
    {
      "channel": 4,
      "note": 111,
      "start": 8.4315,
      "duration": 0.0167,
      "velocity": 69,
      "chip": "ym2612"
    },
    {
      "channel": 5,
      "note": 75,
      "start": 8.4318,
      "duration": 0.0167,
      "velocity": 1,
      "chip": "ym2612"
    },
    {
      "channel": 3,
      "note": 116,
      "start": 8.448,
      "duration": 0.0167,
      "velocity": 68,
      "chip": "ym2612"
    },
    {
      "channel": 4,
      "note": 111,
      "start": 8.4482,
      "duration": 0.0167,
      "velocity": 69,
      "chip": "ym2612"
    },
    {
      "channel": 5,
      "note": 75,
      "start": 8.4485,
      "duration": 0.0167,
      "velocity": 1,
      "chip": "ym2612"
    },
    {
      "channel": 3,
      "note": 116,
      "start": 8.4647,
      "duration": 0.0167,
      "velocity": 68,
      "chip": "ym2612"
    },
    {
      "channel": 4,
      "note": 111,
      "start": 8.4649,
      "duration": 0.0167,
      "velocity": 69,
      "chip": "ym2612"
    },
    {
      "channel": 5,
      "note": 75,
      "start": 8.4651,
      "duration": 0.0167,
      "velocity": 1,
      "chip": "ym2612"
    },
    {
      "channel": 3,
      "note": 116,
      "start": 8.4813,
      "duration": 0.0181,
      "velocity": 68,
      "chip": "ym2612"
    },
    {
      "channel": 4,
      "note": 111,
      "start": 8.4815,
      "duration": 0.0182,
      "velocity": 69,
      "chip": "ym2612"
    },
    {
      "channel": 5,
      "note": 75,
      "start": 8.4818,
      "duration": 0.0182,
      "velocity": 1,
      "chip": "ym2612"
    },
    {
      "channel": 1,
      "note": 62,
      "start": 8.4985,
      "duration": 0.0831,
      "velocity": 47,
      "chip": "ym2612"
    },
    {
      "channel": 2,
      "note": 36,
      "start": 8.499,
      "duration": 0.0832,
      "velocity": 122,
      "chip": "ym2612"
    },
    {
      "channel": 3,
      "note": 116,
      "start": 8.4995,
      "duration": 0.0152,
      "velocity": 68,
      "chip": "ym2612"
    },
    {
      "channel": 4,
      "note": 111,
      "start": 8.4997,
      "duration": 0.0151,
      "velocity": 69,
      "chip": "ym2612"
    },
    {
      "channel": 5,
      "note": 75,
      "start": 8.5,
      "duration": 0.0151,
      "velocity": 1,
      "chip": "ym2612"
    },
    {
      "channel": 3,
      "note": 116,
      "start": 8.5147,
      "duration": 0.0167,
      "velocity": 68,
      "chip": "ym2612"
    },
    {
      "channel": 4,
      "note": 111,
      "start": 8.5149,
      "duration": 0.0167,
      "velocity": 69,
      "chip": "ym2612"
    },
    {
      "channel": 5,
      "note": 74,
      "start": 8.5151,
      "duration": 0.0167,
      "velocity": 1,
      "chip": "ym2612"
    },
    {
      "channel": 3,
      "note": 116,
      "start": 8.5313,
      "duration": 0.0167,
      "velocity": 68,
      "chip": "ym2612"
    },
    {
      "channel": 4,
      "note": 111,
      "start": 8.5316,
      "duration": 0.0167,
      "velocity": 69,
      "chip": "ym2612"
    },
    {
      "channel": 5,
      "note": 74,
      "start": 8.5318,
      "duration": 0.0167,
      "velocity": 1,
      "chip": "ym2612"
    },
    {
      "channel": 3,
      "note": 116,
      "start": 8.548,
      "duration": 0.0167,
      "velocity": 68,
      "chip": "ym2612"
    },
    {
      "channel": 4,
      "note": 110,
      "start": 8.5483,
      "duration": 0.0167,
      "velocity": 69,
      "chip": "ym2612"
    },
    {
      "channel": 5,
      "note": 74,
      "start": 8.5485,
      "duration": 0.0167,
      "velocity": 1,
      "chip": "ym2612"
    },
    {
      "channel": 3,
      "note": 116,
      "start": 8.5647,
      "duration": 0.0181,
      "velocity": 68,
      "chip": "ym2612"
    },
    {
      "channel": 4,
      "note": 110,
      "start": 8.5649,
      "duration": 0.0181,
      "velocity": 69,
      "chip": "ym2612"
    },
    {
      "channel": 5,
      "note": 74,
      "start": 8.5651,
      "duration": 0.0181,
      "velocity": 1,
      "chip": "ym2612"
    },
    {
      "channel": 1,
      "note": 65,
      "start": 8.5818,
      "duration": 0.4165,
      "velocity": 47,
      "chip": "ym2612"
    },
    {
      "channel": 2,
      "note": 34,
      "start": 8.5823,
      "duration": 0.0832,
      "velocity": 122,
      "chip": "ym2612"
    },
    {
      "channel": 3,
      "note": 116,
      "start": 8.5828,
      "duration": 0.0152,
      "velocity": 68,
      "chip": "ym2612"
    },
    {
      "channel": 4,
      "note": 110,
      "start": 8.5831,
      "duration": 0.0151,
      "velocity": 69,
      "chip": "ym2612"
    },
    {
      "channel": 5,
      "note": 74,
      "start": 8.5832,
      "duration": 0.0152,
      "velocity": 1,
      "chip": "ym2612"
    },
    {
      "channel": 3,
      "note": 116,
      "start": 8.598,
      "duration": 0.0167,
      "velocity": 68,
      "chip": "ym2612"
    },
    {
      "channel": 4,
      "note": 110,
      "start": 8.5982,
      "duration": 0.0167,
      "velocity": 69,
      "chip": "ym2612"
    },
    {
      "channel": 5,
      "note": 74,
      "start": 8.5985,
      "duration": 0.0167,
      "velocity": 1,
      "chip": "ym2612"
    },
    {
      "channel": 3,
      "note": 116,
      "start": 8.6147,
      "duration": 0.0167,
      "velocity": 68,
      "chip": "ym2612"
    },
    {
      "channel": 4,
      "note": 110,
      "start": 8.6149,
      "duration": 0.0167,
      "velocity": 69,
      "chip": "ym2612"
    },
    {
      "channel": 5,
      "note": 74,
      "start": 8.6151,
      "duration": 0.0167,
      "velocity": 1,
      "chip": "ym2612"
    },
    {
      "channel": 3,
      "note": 116,
      "start": 8.6313,
      "duration": 0.0167,
      "velocity": 68,
      "chip": "ym2612"
    },
    {
      "channel": 4,
      "note": 110,
      "start": 8.6315,
      "duration": 0.0167,
      "velocity": 69,
      "chip": "ym2612"
    },
    {
      "channel": 5,
      "note": 74,
      "start": 8.6318,
      "duration": 0.0167,
      "velocity": 1,
      "chip": "ym2612"
    },
    {
      "channel": 3,
      "note": 116,
      "start": 8.648,
      "duration": 0.0182,
      "velocity": 68,
      "chip": "ym2612"
    },
    {
      "channel": 4,
      "note": 109,
      "start": 8.6482,
      "duration": 0.0183,
      "velocity": 69,
      "chip": "ym2612"
    },
    {
      "channel": 5,
      "note": 74,
      "start": 8.6485,
      "duration": 0.0182,
      "velocity": 1,
      "chip": "ym2612"
    },
    {
      "channel": 0,
      "note": 55,
      "start": 8.6651,
      "duration": 0.0831,
      "velocity": 47,
      "chip": "ym2612"
    },
    {
      "channel": 2,
      "note": 36,
      "start": 8.6657,
      "duration": 0.1664,
      "velocity": 122,
      "chip": "ym2612"
    },
    {
      "channel": 3,
      "note": 116,
      "start": 8.6662,
      "duration": 0.0151,
      "velocity": 68,
      "chip": "ym2612"
    },
    {
      "channel": 4,
      "note": 109,
      "start": 8.6665,
      "duration": 0.0151,
      "velocity": 69,
      "chip": "ym2612"
    },
    {
      "channel": 5,
      "note": 74,
      "start": 8.6666,
      "duration": 0.0151,
      "velocity": 1,
      "chip": "ym2612"
    },
    {
      "channel": 3,
      "note": 116,
      "start": 8.6813,
      "duration": 0.0167,
      "velocity": 68,
      "chip": "ym2612"
    },
    {
      "channel": 4,
      "note": 109,
      "start": 8.6815,
      "duration": 0.0167,
      "velocity": 69,
      "chip": "ym2612"
    },
    {
      "channel": 5,
      "note": 74,
      "start": 8.6818,
      "duration": 0.0167,
      "velocity": 1,
      "chip": "ym2612"
    },
    {
      "channel": 3,
      "note": 117,
      "start": 8.698,
      "duration": 0.0167,
      "velocity": 68,
      "chip": "ym2612"
    },
    {
      "channel": 4,
      "note": 109,
      "start": 8.6983,
      "duration": 0.0167,
      "velocity": 69,
      "chip": "ym2612"
    },
    {
      "channel": 5,
      "note": 74,
      "start": 8.6985,
      "duration": 0.0167,
      "velocity": 1,
      "chip": "ym2612"
    },
    {
      "channel": 3,
      "note": 117,
      "start": 8.7147,
      "duration": 0.0167,
      "velocity": 68,
      "chip": "ym2612"
    },
    {
      "channel": 4,
      "note": 109,
      "start": 8.7149,
      "duration": 0.0167,
      "velocity": 69,
      "chip": "ym2612"
    },
    {
      "channel": 5,
      "note": 74,
      "start": 8.7151,
      "duration": 0.0167,
      "velocity": 1,
      "chip": "ym2612"
    },
    {
      "channel": 3,
      "note": 117,
      "start": 8.7313,
      "duration": 0.0177,
      "velocity": 68,
      "chip": "ym2612"
    },
    {
      "channel": 4,
      "note": 109,
      "start": 8.7316,
      "duration": 0.0177,
      "velocity": 69,
      "chip": "ym2612"
    },
    {
      "channel": 5,
      "note": 73,
      "start": 8.7318,
      "duration": 0.0177,
      "velocity": 1,
      "chip": "ym2612"
    },
    {
      "channel": 0,
      "note": 67,
      "start": 8.7484,
      "duration": 0.0832,
      "velocity": 47,
      "chip": "ym2612"
    },
    {
      "channel": 3,
      "note": 117,
      "start": 8.749,
      "duration": 0.0156,
      "velocity": 68,
      "chip": "ym2612"
    },
    {
      "channel": 4,
      "note": 108,
      "start": 8.7493,
      "duration": 0.0156,
      "velocity": 69,
      "chip": "ym2612"
    },
    {
      "channel": 5,
      "note": 73,
      "start": 8.7495,
      "duration": 0.0156,
      "velocity": 1,
      "chip": "ym2612"
    },
    {
      "channel": 3,
      "note": 117,
      "start": 8.7647,
      "duration": 0.0167,
      "velocity": 68,
      "chip": "ym2612"
    },
    {
      "channel": 4,
      "note": 108,
      "start": 8.7649,
      "duration": 0.0167,
      "velocity": 69,
      "chip": "ym2612"
    },
    {
      "channel": 5,
      "note": 73,
      "start": 8.7651,
      "duration": 0.0167,
      "velocity": 1,
      "chip": "ym2612"
    },
    {
      "channel": 3,
      "note": 117,
      "start": 8.7813,
      "duration": 0.0167,
      "velocity": 68,
      "chip": "ym2612"
    },
    {
      "channel": 4,
      "note": 108,
      "start": 8.7815,
      "duration": 0.0167,
      "velocity": 69,
      "chip": "ym2612"
    },
    {
      "channel": 5,
      "note": 73,
      "start": 8.7818,
      "duration": 0.0167,
      "velocity": 1,
      "chip": "ym2612"
    },
    {
      "channel": 3,
      "note": 117,
      "start": 8.798,
      "duration": 0.0167,
      "velocity": 68,
      "chip": "ym2612"
    },
    {
      "channel": 4,
      "note": 108,
      "start": 8.7982,
      "duration": 0.0167,
      "velocity": 69,
      "chip": "ym2612"
    },
    {
      "channel": 5,
      "note": 73,
      "start": 8.7985,
      "duration": 0.0167,
      "velocity": 1,
      "chip": "ym2612"
    },
    {
      "channel": 3,
      "note": 117,
      "start": 8.8147,
      "duration": 0.0181,
      "velocity": 68,
      "chip": "ym2612"
    },
    {
      "channel": 4,
      "note": 108,
      "start": 8.8149,
      "duration": 0.0182,
      "velocity": 69,
      "chip": "ym2612"
    },
    {
      "channel": 5,
      "note": 73,
      "start": 8.8151,
      "duration": 0.0181,
      "velocity": 1,
      "chip": "ym2612"
    },
    {
      "channel": 0,
      "note": 62,
      "start": 8.8317,
      "duration": 0.0832,
      "velocity": 47,
      "chip": "ym2612"
    },
    {
      "channel": 2,
      "note": 48,
      "start": 8.8323,
      "duration": 0.0832,
      "velocity": 122,
      "chip": "ym2612"
    },
    {
      "channel": 3,
      "note": 117,
      "start": 8.8328,
      "duration": 0.0152,
      "velocity": 68,
      "chip": "ym2612"
    },
    {
      "channel": 4,
      "note": 108,
      "start": 8.8331,
      "duration": 0.0151,
      "velocity": 69,
      "chip": "ym2612"
    },
    {
      "channel": 5,
      "note": 73,
      "start": 8.8332,
      "duration": 0.0152,
      "velocity": 1,
      "chip": "ym2612"
    },
    {
      "channel": 3,
      "note": 117,
      "start": 8.848,
      "duration": 0.0167,
      "velocity": 68,
      "chip": "ym2612"
    },
    {
      "channel": 4,
      "note": 107,
      "start": 8.8482,
      "duration": 0.0167,
      "velocity": 69,
      "chip": "ym2612"
    },
    {
      "channel": 5,
      "note": 73,
      "start": 8.8485,
      "duration": 0.0167,
      "velocity": 1,
      "chip": "ym2612"
    },
    {
      "channel": 3,
      "note": 117,
      "start": 8.8647,
      "duration": 0.0167,
      "velocity": 68,
      "chip": "ym2612"
    },
    {
      "channel": 4,
      "note": 107,
      "start": 8.8649,
      "duration": 0.0167,
      "velocity": 69,
      "chip": "ym2612"
    },
    {
      "channel": 5,
      "note": 73,
      "start": 8.8651,
      "duration": 0.0167,
      "velocity": 1,
      "chip": "ym2612"
    },
    {
      "channel": 3,
      "note": 117,
      "start": 8.8813,
      "duration": 0.0167,
      "velocity": 68,
      "chip": "ym2612"
    },
    {
      "channel": 4,
      "note": 107,
      "start": 8.8815,
      "duration": 0.0167,
      "velocity": 69,
      "chip": "ym2612"
    },
    {
      "channel": 5,
      "note": 73,
      "start": 8.8818,
      "duration": 0.0167,
      "velocity": 1,
      "chip": "ym2612"
    },
    {
      "channel": 3,
      "note": 117,
      "start": 8.898,
      "duration": 0.0181,
      "velocity": 68,
      "chip": "ym2612"
    },
    {
      "channel": 4,
      "note": 107,
      "start": 8.8982,
      "duration": 0.0182,
      "velocity": 69,
      "chip": "ym2612"
    },
    {
      "channel": 5,
      "note": 73,
      "start": 8.8985,
      "duration": 0.0181,
      "velocity": 1,
      "chip": "ym2612"
    },
    {
      "channel": 0,
      "note": 65,
      "start": 8.9151,
      "duration": 0.4165,
      "velocity": 47,
      "chip": "ym2612"
    },
    {
      "channel": 2,
      "note": 36,
      "start": 8.9156,
      "duration": 0.0832,
      "velocity": 122,
      "chip": "ym2612"
    },
    {
      "channel": 3,
      "note": 117,
      "start": 8.9161,
      "duration": 0.0152,
      "velocity": 68,
      "chip": "ym2612"
    },
    {
      "channel": 4,
      "note": 107,
      "start": 8.9164,
      "duration": 0.0151,
      "velocity": 69,
      "chip": "ym2612"
    },
    {
      "channel": 5,
      "note": 73,
      "start": 8.9166,
      "duration": 0.0152,
      "velocity": 1,
      "chip": "ym2612"
    },
    {
      "channel": 3,
      "note": 117,
      "start": 8.9313,
      "duration": 0.0167,
      "velocity": 68,
      "chip": "ym2612"
    },
    {
      "channel": 4,
      "note": 106,
      "start": 8.9315,
      "duration": 0.0167,
      "velocity": 69,
      "chip": "ym2612"
    },
    {
      "channel": 5,
      "note": 72,
      "start": 8.9318,
      "duration": 0.0167,
      "velocity": 1,
      "chip": "ym2612"
    },
    {
      "channel": 3,
      "note": 117,
      "start": 8.948,
      "duration": 0.0167,
      "velocity": 68,
      "chip": "ym2612"
    },
    {
      "channel": 4,
      "note": 106,
      "start": 8.9482,
      "duration": 0.0167,
      "velocity": 69,
      "chip": "ym2612"
    },
    {
      "channel": 5,
      "note": 72,
      "start": 8.9485,
      "duration": 0.0167,
      "velocity": 1,
      "chip": "ym2612"
    },
    {
      "channel": 3,
      "note": 117,
      "start": 8.9647,
      "duration": 0.0167,
      "velocity": 68,
      "chip": "ym2612"
    },
    {
      "channel": 4,
      "note": 106,
      "start": 8.9649,
      "duration": 0.0167,
      "velocity": 69,
      "chip": "ym2612"
    },
    {
      "channel": 5,
      "note": 72,
      "start": 8.9651,
      "duration": 0.0167,
      "velocity": 1,
      "chip": "ym2612"
    },
    {
      "channel": 3,
      "note": 117,
      "start": 8.9813,
      "duration": 0.0182,
      "velocity": 68,
      "chip": "ym2612"
    },
    {
      "channel": 4,
      "note": 106,
      "start": 8.9815,
      "duration": 0.0183,
      "velocity": 69,
      "chip": "ym2612"
    },
    {
      "channel": 5,
      "note": 72,
      "start": 8.9818,
      "duration": 0.0182,
      "velocity": 1,
      "chip": "ym2612"
    },
    {
      "channel": 1,
      "note": 55,
      "start": 8.9985,
      "duration": 0.0831,
      "velocity": 47,
      "chip": "ym2612"
    },
    {
      "channel": 2,
      "note": 46,
      "start": 8.999,
      "duration": 0.0831,
      "velocity": 122,
      "chip": "ym2612"
    },
    {
      "channel": 3,
      "note": 117,
      "start": 8.9995,
      "duration": 0.0151,
      "velocity": 68,
      "chip": "ym2612"
    },
    {
      "channel": 4,
      "note": 106,
      "start": 8.9998,
      "duration": 0.0151,
      "velocity": 69,
      "chip": "ym2612"
    },
    {
      "channel": 5,
      "note": 72,
      "start": 9.0,
      "duration": 0.0151,
      "velocity": 1,
      "chip": "ym2612"
    },
    {
      "channel": 3,
      "note": 118,
      "start": 9.0147,
      "duration": 0.0167,
      "velocity": 68,
      "chip": "ym2612"
    },
    {
      "channel": 4,
      "note": 105,
      "start": 9.0149,
      "duration": 0.0167,
      "velocity": 69,
      "chip": "ym2612"
    },
    {
      "channel": 5,
      "note": 72,
      "start": 9.0151,
      "duration": 0.0167,
      "velocity": 1,
      "chip": "ym2612"
    },
    {
      "channel": 3,
      "note": 118,
      "start": 9.0313,
      "duration": 0.0167,
      "velocity": 68,
      "chip": "ym2612"
    },
    {
      "channel": 4,
      "note": 105,
      "start": 9.0316,
      "duration": 0.0167,
      "velocity": 69,
      "chip": "ym2612"
    },
    {
      "channel": 5,
      "note": 72,
      "start": 9.0318,
      "duration": 0.0167,
      "velocity": 1,
      "chip": "ym2612"
    },
    {
      "channel": 3,
      "note": 118,
      "start": 9.048,
      "duration": 0.0167,
      "velocity": 68,
      "chip": "ym2612"
    },
    {
      "channel": 4,
      "note": 105,
      "start": 9.0483,
      "duration": 0.0167,
      "velocity": 69,
      "chip": "ym2612"
    },
    {
      "channel": 5,
      "note": 72,
      "start": 9.0485,
      "duration": 0.0167,
      "velocity": 1,
      "chip": "ym2612"
    },
    {
      "channel": 3,
      "note": 118,
      "start": 9.0647,
      "duration": 0.0181,
      "velocity": 68,
      "chip": "ym2612"
    },
    {
      "channel": 4,
      "note": 105,
      "start": 9.0649,
      "duration": 0.0181,
      "velocity": 69,
      "chip": "ym2612"
    },
    {
      "channel": 5,
      "note": 72,
      "start": 9.0651,
      "duration": 0.0181,
      "velocity": 1,
      "chip": "ym2612"
    },
    {
      "channel": 1,
      "note": 67,
      "start": 9.0818,
      "duration": 0.0832,
      "velocity": 47,
      "chip": "ym2612"
    },
    {
      "channel": 2,
      "note": 48,
      "start": 9.0823,
      "duration": 0.0832,
      "velocity": 122,
      "chip": "ym2612"
    },
    {
      "channel": 3,
      "note": 118,
      "start": 9.0828,
      "duration": 0.0152,
      "velocity": 68,
      "chip": "ym2612"
    },
    {
      "channel": 4,
      "note": 105,
      "start": 9.0831,
      "duration": 0.0151,
      "velocity": 69,
      "chip": "ym2612"
    },
    {
      "channel": 5,
      "note": 72,
      "start": 9.0832,
      "duration": 0.0152,
      "velocity": 1,
      "chip": "ym2612"
    },
    {
      "channel": 3,
      "note": 118,
      "start": 9.098,
      "duration": 0.0167,
      "velocity": 68,
      "chip": "ym2612"
    },
    {
      "channel": 4,
      "note": 104,
      "start": 9.0982,
      "duration": 0.0167,
      "velocity": 69,
      "chip": "ym2612"
    },
    {
      "channel": 5,
      "note": 72,
      "start": 9.0985,
      "duration": 0.0167,
      "velocity": 1,
      "chip": "ym2612"
    },
    {
      "channel": 3,
      "note": 118,
      "start": 9.1147,
      "duration": 0.0167,
      "velocity": 68,
      "chip": "ym2612"
    },
    {
      "channel": 4,
      "note": 104,
      "start": 9.1149,
      "duration": 0.0167,
      "velocity": 69,
      "chip": "ym2612"
    },
    {
      "channel": 5,
      "note": 71,
      "start": 9.1151,
      "duration": 0.0167,
      "velocity": 1,
      "chip": "ym2612"
    },
    {
      "channel": 3,
      "note": 118,
      "start": 9.1313,
      "duration": 0.0167,
      "velocity": 68,
      "chip": "ym2612"
    },
    {
      "channel": 4,
      "note": 104,
      "start": 9.1315,
      "duration": 0.0167,
      "velocity": 69,
      "chip": "ym2612"
    },
    {
      "channel": 5,
      "note": 71,
      "start": 9.1318,
      "duration": 0.0167,
      "velocity": 1,
      "chip": "ym2612"
    },
    {
      "channel": 3,
      "note": 118,
      "start": 9.148,
      "duration": 0.0181,
      "velocity": 68,
      "chip": "ym2612"
    },
    {
      "channel": 4,
      "note": 104,
      "start": 9.1482,
      "duration": 0.0182,
      "velocity": 69,
      "chip": "ym2612"
    },
    {
      "channel": 5,
      "note": 71,
      "start": 9.1485,
      "duration": 0.0182,
      "velocity": 1,
      "chip": "ym2612"
    },
    {
      "channel": 1,
      "note": 62,
      "start": 9.1651,
      "duration": 0.0831,
      "velocity": 47,
      "chip": "ym2612"
    },
    {
      "channel": 2,
      "note": 36,
      "start": 9.1656,
      "duration": 0.0832,
      "velocity": 122,
      "chip": "ym2612"
    },
    {
      "channel": 3,
      "note": 118,
      "start": 9.1661,
      "duration": 0.0152,
      "velocity": 68,
      "chip": "ym2612"
    },
    {
      "channel": 4,
      "note": 103,
      "start": 9.1664,
      "duration": 0.0151,
      "velocity": 69,
      "chip": "ym2612"
    },
    {
      "channel": 5,
      "note": 71,
      "start": 9.1666,
      "duration": 0.0151,
      "velocity": 1,
      "chip": "ym2612"
    },
    {
      "channel": 3,
      "note": 118,
      "start": 9.1813,
      "duration": 0.0167,
      "velocity": 68,
      "chip": "ym2612"
    },
    {
      "channel": 4,
      "note": 103,
      "start": 9.1815,
      "duration": 0.0167,
      "velocity": 69,
      "chip": "ym2612"
    },
    {
      "channel": 5,
      "note": 71,
      "start": 9.1818,
      "duration": 0.0167,
      "velocity": 1,
      "chip": "ym2612"
    },
    {
      "channel": 3,
      "note": 118,
      "start": 9.198,
      "duration": 0.0167,
      "velocity": 68,
      "chip": "ym2612"
    },
    {
      "channel": 4,
      "note": 103,
      "start": 9.1983,
      "duration": 0.0166,
      "velocity": 69,
      "chip": "ym2612"
    },
    {
      "channel": 5,
      "note": 71,
      "start": 9.1985,
      "duration": 0.0167,
      "velocity": 1,
      "chip": "ym2612"
    },
    {
      "channel": 3,
      "note": 118,
      "start": 9.2147,
      "duration": 0.0167,
      "velocity": 68,
      "chip": "ym2612"
    },
    {
      "channel": 4,
      "note": 103,
      "start": 9.2149,
      "duration": 0.0167,
      "velocity": 69,
      "chip": "ym2612"
    },
    {
      "channel": 5,
      "note": 71,
      "start": 9.2151,
      "duration": 0.0167,
      "velocity": 1,
      "chip": "ym2612"
    },
    {
      "channel": 3,
      "note": 118,
      "start": 9.2313,
      "duration": 0.0181,
      "velocity": 68,
      "chip": "ym2612"
    },
    {
      "channel": 4,
      "note": 102,
      "start": 9.2315,
      "duration": 0.0182,
      "velocity": 69,
      "chip": "ym2612"
    },
    {
      "channel": 5,
      "note": 71,
      "start": 9.2318,
      "duration": 0.0181,
      "velocity": 1,
      "chip": "ym2612"
    },
    {
      "channel": 1,
      "note": 65,
      "start": 9.2485,
      "duration": 0.4165,
      "velocity": 47,
      "chip": "ym2612"
    },
    {
      "channel": 2,
      "note": 34,
      "start": 9.249,
      "duration": 0.0832,
      "velocity": 122,
      "chip": "ym2612"
    },
    {
      "channel": 3,
      "note": 118,
      "start": 9.2495,
      "duration": 0.0152,
      "velocity": 68,
      "chip": "ym2612"
    },
    {
      "channel": 4,
      "note": 102,
      "start": 9.2497,
      "duration": 0.0151,
      "velocity": 69,
      "chip": "ym2612"
    },
    {
      "channel": 5,
      "note": 71,
      "start": 9.2499,
      "duration": 0.0152,
      "velocity": 1,
      "chip": "ym2612"
    },
    {
      "channel": 3,
      "note": 118,
      "start": 9.2647,
      "duration": 0.0167,
      "velocity": 68,
      "chip": "ym2612"
    },
    {
      "channel": 4,
      "note": 102,
      "start": 9.2649,
      "duration": 0.0167,
      "velocity": 69,
      "chip": "ym2612"
    },
    {
      "channel": 5,
      "note": 71,
      "start": 9.2651,
      "duration": 0.0167,
      "velocity": 1,
      "chip": "ym2612"
    },
    {
      "channel": 3,
      "note": 118,
      "start": 9.2813,
      "duration": 0.0167,
      "velocity": 68,
      "chip": "ym2612"
    },
    {
      "channel": 4,
      "note": 102,
      "start": 9.2815,
      "duration": 0.0167,
      "velocity": 69,
      "chip": "ym2612"
    },
    {
      "channel": 5,
      "note": 70,
      "start": 9.2818,
      "duration": 0.0167,
      "velocity": 1,
      "chip": "ym2612"
    },
    {
      "channel": 3,
      "note": 118,
      "start": 9.298,
      "duration": 0.0167,
      "velocity": 68,
      "chip": "ym2612"
    },
    {
      "channel": 4,
      "note": 101,
      "start": 9.2982,
      "duration": 0.0167,
      "velocity": 69,
      "chip": "ym2612"
    },
    {
      "channel": 5,
      "note": 70,
      "start": 9.2985,
      "duration": 0.0167,
      "velocity": 1,
      "chip": "ym2612"
    },
    {
      "channel": 3,
      "note": 118,
      "start": 9.3147,
      "duration": 0.0182,
      "velocity": 68,
      "chip": "ym2612"
    },
    {
      "channel": 4,
      "note": 101,
      "start": 9.3149,
      "duration": 0.0183,
      "velocity": 69,
      "chip": "ym2612"
    },
    {
      "channel": 5,
      "note": 70,
      "start": 9.3151,
      "duration": 0.0182,
      "velocity": 1,
      "chip": "ym2612"
    },
    {
      "channel": 0,
      "note": 52,
      "start": 9.3318,
      "duration": 0.0831,
      "velocity": 47,
      "chip": "ym2612"
    },
    {
      "channel": 2,
      "note": 33,
      "start": 9.3324,
      "duration": 0.1664,
      "velocity": 122,
      "chip": "ym2612"
    },
    {
      "channel": 3,
      "note": 118,
      "start": 9.3329,
      "duration": 0.0151,
      "velocity": 68,
      "chip": "ym2612"
    },
    {
      "channel": 4,
      "note": 101,
      "start": 9.3331,
      "duration": 0.0151,
      "velocity": 69,
      "chip": "ym2612"
    },
    {
      "channel": 5,
      "note": 70,
      "start": 9.3333,
      "duration": 0.0151,
      "velocity": 1,
      "chip": "ym2612"
    },
    {
      "channel": 3,
      "note": 119,
      "start": 9.348,
      "duration": 0.0167,
      "velocity": 68,
      "chip": "ym2612"
    },
    {
      "channel": 4,
      "note": 101,
      "start": 9.3482,
      "duration": 0.0167,
      "velocity": 69,
      "chip": "ym2612"
    },
    {
      "channel": 5,
      "note": 70,
      "start": 9.3485,
      "duration": 0.0167,
      "velocity": 1,
      "chip": "ym2612"
    },
    {
      "channel": 3,
      "note": 119,
      "start": 9.3647,
      "duration": 0.0167,
      "velocity": 68,
      "chip": "ym2612"
    },
    {
      "channel": 4,
      "note": 100,
      "start": 9.3649,
      "duration": 0.0167,
      "velocity": 69,
      "chip": "ym2612"
    },
    {
      "channel": 5,
      "note": 70,
      "start": 9.3651,
      "duration": 0.0167,
      "velocity": 1,
      "chip": "ym2612"
    },
    {
      "channel": 3,
      "note": 119,
      "start": 9.3813,
      "duration": 0.0167,
      "velocity": 68,
      "chip": "ym2612"
    },
    {
      "channel": 4,
      "note": 100,
      "start": 9.3816,
      "duration": 0.0166,
      "velocity": 69,
      "chip": "ym2612"
    },
    {
      "channel": 5,
      "note": 70,
      "start": 9.3818,
      "duration": 0.0167,
      "velocity": 1,
      "chip": "ym2612"
    },
    {
      "channel": 3,
      "note": 119,
      "start": 9.398,
      "duration": 0.0177,
      "velocity": 68,
      "chip": "ym2612"
    },
    {
      "channel": 4,
      "note": 100,
      "start": 9.3982,
      "duration": 0.0177,
      "velocity": 69,
      "chip": "ym2612"
    },
    {
      "channel": 5,
      "note": 70,
      "start": 9.3985,
      "duration": 0.0177,
      "velocity": 1,
      "chip": "ym2612"
    },
    {
      "channel": 0,
      "note": 64,
      "start": 9.4151,
      "duration": 0.0832,
      "velocity": 47,
      "chip": "ym2612"
    },
    {
      "channel": 3,
      "note": 119,
      "start": 9.4157,
      "duration": 0.0156,
      "velocity": 68,
      "chip": "ym2612"
    },
    {
      "channel": 4,
      "note": 100,
      "start": 9.4159,
      "duration": 0.0156,
      "velocity": 69,
      "chip": "ym2612"
    },
    {
      "channel": 5,
      "note": 70,
      "start": 9.4161,
      "duration": 0.0156,
      "velocity": 1,
      "chip": "ym2612"
    },
    {
      "channel": 3,
      "note": 119,
      "start": 9.4313,
      "duration": 0.0167,
      "velocity": 68,
      "chip": "ym2612"
    },
    {
      "channel": 4,
      "note": 99,
      "start": 9.4315,
      "duration": 0.0167,
      "velocity": 69,
      "chip": "ym2612"
    },
    {
      "channel": 5,
      "note": 70,
      "start": 9.4318,
      "duration": 0.0167,
      "velocity": 1,
      "chip": "ym2612"
    },
    {
      "channel": 3,
      "note": 119,
      "start": 9.448,
      "duration": 0.0167,
      "velocity": 68,
      "chip": "ym2612"
    },
    {
      "channel": 4,
      "note": 99,
      "start": 9.4482,
      "duration": 0.0167,
      "velocity": 69,
      "chip": "ym2612"
    },
    {
      "channel": 5,
      "note": 69,
      "start": 9.4485,
      "duration": 0.0167,
      "velocity": 1,
      "chip": "ym2612"
    },
    {
      "channel": 3,
      "note": 119,
      "start": 9.4647,
      "duration": 0.0167,
      "velocity": 68,
      "chip": "ym2612"
    },
    {
      "channel": 4,
      "note": 99,
      "start": 9.4649,
      "duration": 0.0167,
      "velocity": 69,
      "chip": "ym2612"
    },
    {
      "channel": 5,
      "note": 69,
      "start": 9.4651,
      "duration": 0.0167,
      "velocity": 1,
      "chip": "ym2612"
    },
    {
      "channel": 3,
      "note": 119,
      "start": 9.4813,
      "duration": 0.0181,
      "velocity": 68,
      "chip": "ym2612"
    },
    {
      "channel": 4,
      "note": 98,
      "start": 9.4815,
      "duration": 0.0182,
      "velocity": 69,
      "chip": "ym2612"
    },
    {
      "channel": 5,
      "note": 69,
      "start": 9.4818,
      "duration": 0.0181,
      "velocity": 1,
      "chip": "ym2612"
    },
    {
      "channel": 0,
      "note": 59,
      "start": 9.4984,
      "duration": 0.0832,
      "velocity": 47,
      "chip": "ym2612"
    },
    {
      "channel": 2,
      "note": 45,
      "start": 9.499,
      "duration": 0.0832,
      "velocity": 122,
      "chip": "ym2612"
    },
    {
      "channel": 3,
      "note": 119,
      "start": 9.4995,
      "duration": 0.0152,
      "velocity": 68,
      "chip": "ym2612"
    },
    {
      "channel": 4,
      "note": 98,
      "start": 9.4997,
      "duration": 0.0151,
      "velocity": 69,
      "chip": "ym2612"
    },
    {
      "channel": 5,
      "note": 69,
      "start": 9.4999,
      "duration": 0.0152,
      "velocity": 1,
      "chip": "ym2612"
    },
    {
      "channel": 3,
      "note": 119,
      "start": 9.5147,
      "duration": 0.0167,
      "velocity": 68,
      "chip": "ym2612"
    },
    {
      "channel": 4,
      "note": 98,
      "start": 9.5149,
      "duration": 0.0167,
      "velocity": 69,
      "chip": "ym2612"
    },
    {
      "channel": 5,
      "note": 69,
      "start": 9.5151,
      "duration": 0.0167,
      "velocity": 1,
      "chip": "ym2612"
    },
    {
      "channel": 3,
      "note": 119,
      "start": 9.5313,
      "duration": 0.0167,
      "velocity": 68,
      "chip": "ym2612"
    },
    {
      "channel": 4,
      "note": 97,
      "start": 9.5315,
      "duration": 0.0167,
      "velocity": 69,
      "chip": "ym2612"
    },
    {
      "channel": 5,
      "note": 69,
      "start": 9.5318,
      "duration": 0.0167,
      "velocity": 1,
      "chip": "ym2612"
    },
    {
      "channel": 3,
      "note": 119,
      "start": 9.548,
      "duration": 0.0167,
      "velocity": 68,
      "chip": "ym2612"
    },
    {
      "channel": 4,
      "note": 97,
      "start": 9.5482,
      "duration": 0.0167,
      "velocity": 69,
      "chip": "ym2612"
    },
    {
      "channel": 5,
      "note": 69,
      "start": 9.5485,
      "duration": 0.0167,
      "velocity": 1,
      "chip": "ym2612"
    },
    {
      "channel": 3,
      "note": 119,
      "start": 9.5647,
      "duration": 0.0181,
      "velocity": 68,
      "chip": "ym2612"
    },
    {
      "channel": 4,
      "note": 97,
      "start": 9.5649,
      "duration": 0.0182,
      "velocity": 69,
      "chip": "ym2612"
    },
    {
      "channel": 5,
      "note": 69,
      "start": 9.5651,
      "duration": 0.0182,
      "velocity": 1,
      "chip": "ym2612"
    },
    {
      "channel": 0,
      "note": 62,
      "start": 9.5817,
      "duration": 0.4165,
      "velocity": 47,
      "chip": "ym2612"
    },
    {
      "channel": 2,
      "note": 33,
      "start": 9.5823,
      "duration": 0.0832,
      "velocity": 122,
      "chip": "ym2612"
    },
    {
      "channel": 3,
      "note": 119,
      "start": 9.5828,
      "duration": 0.0152,
      "velocity": 68,
      "chip": "ym2612"
    },
    {
      "channel": 4,
      "note": 96,
      "start": 9.5831,
      "duration": 0.0151,
      "velocity": 69,
      "chip": "ym2612"
    },
    {
      "channel": 5,
      "note": 69,
      "start": 9.5833,
      "duration": 0.0151,
      "velocity": 1,
      "chip": "ym2612"
    },
    {
      "channel": 3,
      "note": 119,
      "start": 9.598,
      "duration": 0.0167,
      "velocity": 68,
      "chip": "ym2612"
    },
    {
      "channel": 4,
      "note": 96,
      "start": 9.5982,
      "duration": 0.0167,
      "velocity": 69,
      "chip": "ym2612"
    },
    {
      "channel": 5,
      "note": 69,
      "start": 9.5985,
      "duration": 0.0167,
      "velocity": 1,
      "chip": "ym2612"
    },
    {
      "channel": 3,
      "note": 119,
      "start": 9.6147,
      "duration": 0.0167,
      "velocity": 68,
      "chip": "ym2612"
    },
    {
      "channel": 4,
      "note": 96,
      "start": 9.6149,
      "duration": 0.0167,
      "velocity": 69,
      "chip": "ym2612"
    },
    {
      "channel": 5,
      "note": 68,
      "start": 9.6151,
      "duration": 0.0167,
      "velocity": 1,
      "chip": "ym2612"
    },
    {
      "channel": 3,
      "note": 119,
      "start": 9.6313,
      "duration": 0.0167,
      "velocity": 68,
      "chip": "ym2612"
    },
    {
      "channel": 4,
      "note": 95,
      "start": 9.6316,
      "duration": 0.0167,
      "velocity": 69,
      "chip": "ym2612"
    },
    {
      "channel": 5,
      "note": 68,
      "start": 9.6318,
      "duration": 0.0167,
      "velocity": 1,
      "chip": "ym2612"
    },
    {
      "channel": 3,
      "note": 119,
      "start": 9.648,
      "duration": 0.0182,
      "velocity": 68,
      "chip": "ym2612"
    },
    {
      "channel": 4,
      "note": 95,
      "start": 9.6483,
      "duration": 0.0181,
      "velocity": 69,
      "chip": "ym2612"
    },
    {
      "channel": 5,
      "note": 68,
      "start": 9.6485,
      "duration": 0.0182,
      "velocity": 1,
      "chip": "ym2612"
    },
    {
      "channel": 1,
      "note": 52,
      "start": 9.6652,
      "duration": 0.0831,
      "velocity": 47,
      "chip": "ym2612"
    },
    {
      "channel": 2,
      "note": 43,
      "start": 9.6657,
      "duration": 0.0831,
      "velocity": 122,
      "chip": "ym2612"
    },
    {
      "channel": 3,
      "note": 119,
      "start": 9.6662,
      "duration": 0.0151,
      "velocity": 68,
      "chip": "ym2612"
    },
    {
      "channel": 4,
      "note": 94,
      "start": 9.6664,
      "duration": 0.0151,
      "velocity": 69,
      "chip": "ym2612"
    },
    {
      "channel": 5,
      "note": 68,
      "start": 9.6666,
      "duration": 0.0151,
      "velocity": 1,
      "chip": "ym2612"
    },
    {
      "channel": 3,
      "note": 119,
      "start": 9.6813,
      "duration": 0.0167,
      "velocity": 68,
      "chip": "ym2612"
    },
    {
      "channel": 4,
      "note": 94,
      "start": 9.6815,
      "duration": 0.0167,
      "velocity": 69,
      "chip": "ym2612"
    },
    {
      "channel": 5,
      "note": 68,
      "start": 9.6818,
      "duration": 0.0167,
      "velocity": 1,
      "chip": "ym2612"
    },
    {
      "channel": 3,
      "note": 120,
      "start": 9.698,
      "duration": 0.0167,
      "velocity": 68,
      "chip": "ym2612"
    },
    {
      "channel": 4,
      "note": 94,
      "start": 9.6982,
      "duration": 0.0167,
      "velocity": 69,
      "chip": "ym2612"
    },
    {
      "channel": 5,
      "note": 68,
      "start": 9.6985,
      "duration": 0.0167,
      "velocity": 1,
      "chip": "ym2612"
    },
    {
      "channel": 3,
      "note": 120,
      "start": 9.7147,
      "duration": 0.0167,
      "velocity": 68,
      "chip": "ym2612"
    },
    {
      "channel": 4,
      "note": 93,
      "start": 9.7149,
      "duration": 0.0167,
      "velocity": 69,
      "chip": "ym2612"
    },
    {
      "channel": 5,
      "note": 68,
      "start": 9.7151,
      "duration": 0.0167,
      "velocity": 1,
      "chip": "ym2612"
    },
    {
      "channel": 3,
      "note": 120,
      "start": 9.7313,
      "duration": 0.0181,
      "velocity": 68,
      "chip": "ym2612"
    },
    {
      "channel": 4,
      "note": 93,
      "start": 9.7315,
      "duration": 0.0182,
      "velocity": 69,
      "chip": "ym2612"
    },
    {
      "channel": 5,
      "note": 68,
      "start": 9.7318,
      "duration": 0.0182,
      "velocity": 1,
      "chip": "ym2612"
    },
    {
      "channel": 1,
      "note": 64,
      "start": 9.7485,
      "duration": 0.0831,
      "velocity": 47,
      "chip": "ym2612"
    },
    {
      "channel": 2,
      "note": 45,
      "start": 9.749,
      "duration": 0.0832,
      "velocity": 122,
      "chip": "ym2612"
    },
    {
      "channel": 3,
      "note": 120,
      "start": 9.7495,
      "duration": 0.0152,
      "velocity": 68,
      "chip": "ym2612"
    },
    {
      "channel": 4,
      "note": 92,
      "start": 9.7497,
      "duration": 0.0151,
      "velocity": 69,
      "chip": "ym2612"
    },
    {
      "channel": 5,
      "note": 68,
      "start": 9.75,
      "duration": 0.0151,
      "velocity": 1,
      "chip": "ym2612"
    },
    {
      "channel": 3,
      "note": 120,
      "start": 9.7647,
      "duration": 0.0167,
      "velocity": 68,
      "chip": "ym2612"
    },
    {
      "channel": 4,
      "note": 92,
      "start": 9.7649,
      "duration": 0.0167,
      "velocity": 69,
      "chip": "ym2612"
    },
    {
      "channel": 5,
      "note": 67,
      "start": 9.7651,
      "duration": 0.0167,
      "velocity": 1,
      "chip": "ym2612"
    },
    {
      "channel": 3,
      "note": 120,
      "start": 9.7813,
      "duration": 0.0167,
      "velocity": 68,
      "chip": "ym2612"
    },
    {
      "channel": 4,
      "note": 92,
      "start": 9.7816,
      "duration": 0.0167,
      "velocity": 69,
      "chip": "ym2612"
    },
    {
      "channel": 5,
      "note": 67,
      "start": 9.7818,
      "duration": 0.0167,
      "velocity": 1,
      "chip": "ym2612"
    },
    {
      "channel": 3,
      "note": 120,
      "start": 9.798,
      "duration": 0.0167,
      "velocity": 68,
      "chip": "ym2612"
    },
    {
      "channel": 4,
      "note": 91,
      "start": 9.7983,
      "duration": 0.0167,
      "velocity": 69,
      "chip": "ym2612"
    },
    {
      "channel": 5,
      "note": 67,
      "start": 9.7985,
      "duration": 0.0167,
      "velocity": 1,
      "chip": "ym2612"
    },
    {
      "channel": 3,
      "note": 120,
      "start": 9.8147,
      "duration": 0.0181,
      "velocity": 68,
      "chip": "ym2612"
    },
    {
      "channel": 4,
      "note": 91,
      "start": 9.8149,
      "duration": 0.0181,
      "velocity": 69,
      "chip": "ym2612"
    },
    {
      "channel": 5,
      "note": 67,
      "start": 9.8151,
      "duration": 0.0181,
      "velocity": 1,
      "chip": "ym2612"
    },
    {
      "channel": 1,
      "note": 59,
      "start": 9.8318,
      "duration": 0.0832,
      "velocity": 47,
      "chip": "ym2612"
    },
    {
      "channel": 2,
      "note": 33,
      "start": 9.8323,
      "duration": 0.0832,
      "velocity": 122,
      "chip": "ym2612"
    },
    {
      "channel": 3,
      "note": 120,
      "start": 9.8328,
      "duration": 0.0152,
      "velocity": 68,
      "chip": "ym2612"
    },
    {
      "channel": 4,
      "note": 90,
      "start": 9.8331,
      "duration": 0.0151,
      "velocity": 69,
      "chip": "ym2612"
    },
    {
      "channel": 5,
      "note": 67,
      "start": 9.8332,
      "duration": 0.0152,
      "velocity": 1,
      "chip": "ym2612"
    },
    {
      "channel": 3,
      "note": 120,
      "start": 9.848,
      "duration": 0.0167,
      "velocity": 68,
      "chip": "ym2612"
    },
    {
      "channel": 4,
      "note": 90,
      "start": 9.8482,
      "duration": 0.0167,
      "velocity": 69,
      "chip": "ym2612"
    },
    {
      "channel": 5,
      "note": 67,
      "start": 9.8485,
      "duration": 0.0167,
      "velocity": 1,
      "chip": "ym2612"
    },
    {
      "channel": 3,
      "note": 120,
      "start": 9.8647,
      "duration": 0.0167,
      "velocity": 68,
      "chip": "ym2612"
    },
    {
      "channel": 4,
      "note": 89,
      "start": 9.8649,
      "duration": 0.0167,
      "velocity": 69,
      "chip": "ym2612"
    },
    {
      "channel": 5,
      "note": 67,
      "start": 9.8651,
      "duration": 0.0167,
      "velocity": 1,
      "chip": "ym2612"
    },
    {
      "channel": 3,
      "note": 120,
      "start": 9.8813,
      "duration": 0.0167,
      "velocity": 68,
      "chip": "ym2612"
    },
    {
      "channel": 4,
      "note": 89,
      "start": 9.8815,
      "duration": 0.0167,
      "velocity": 69,
      "chip": "ym2612"
    },
    {
      "channel": 5,
      "note": 67,
      "start": 9.8818,
      "duration": 0.0167,
      "velocity": 1,
      "chip": "ym2612"
    },
    {
      "channel": 3,
      "note": 120,
      "start": 9.898,
      "duration": 0.0181,
      "velocity": 68,
      "chip": "ym2612"
    },
    {
      "channel": 4,
      "note": 88,
      "start": 9.8982,
      "duration": 0.0182,
      "velocity": 69,
      "chip": "ym2612"
    },
    {
      "channel": 5,
      "note": 66,
      "start": 9.8985,
      "duration": 0.0182,
      "velocity": 1,
      "chip": "ym2612"
    },
    {
      "channel": 1,
      "note": 62,
      "start": 9.9151,
      "duration": 0.4166,
      "velocity": 47,
      "chip": "ym2612"
    },
    {
      "channel": 2,
      "note": 31,
      "start": 9.9156,
      "duration": 0.0832,
      "velocity": 122,
      "chip": "ym2612"
    },
    {
      "channel": 3,
      "note": 120,
      "start": 9.9161,
      "duration": 0.0152,
      "velocity": 68,
      "chip": "ym2612"
    },
    {
      "channel": 4,
      "note": 87,
      "start": 9.9164,
      "duration": 0.0151,
      "velocity": 69,
      "chip": "ym2612"
    },
    {
      "channel": 5,
      "note": 66,
      "start": 9.9166,
      "duration": 0.0151,
      "velocity": 1,
      "chip": "ym2612"
    },
    {
      "channel": 3,
      "note": 120,
      "start": 9.9313,
      "duration": 0.0167,
      "velocity": 68,
      "chip": "ym2612"
    },
    {
      "channel": 4,
      "note": 87,
      "start": 9.9315,
      "duration": 0.0167,
      "velocity": 69,
      "chip": "ym2612"
    },
    {
      "channel": 5,
      "note": 66,
      "start": 9.9318,
      "duration": 0.0167,
      "velocity": 1,
      "chip": "ym2612"
    },
    {
      "channel": 3,
      "note": 120,
      "start": 9.948,
      "duration": 0.0167,
      "velocity": 68,
      "chip": "ym2612"
    },
    {
      "channel": 4,
      "note": 86,
      "start": 9.9483,
      "duration": 0.0167,
      "velocity": 69,
      "chip": "ym2612"
    },
    {
      "channel": 5,
      "note": 66,
      "start": 9.9485,
      "duration": 0.0167,
      "velocity": 1,
      "chip": "ym2612"
    },
    {
      "channel": 3,
      "note": 120,
      "start": 9.9647,
      "duration": 0.0167,
      "velocity": 68,
      "chip": "ym2612"
    },
    {
      "channel": 4,
      "note": 86,
      "start": 9.9649,
      "duration": 0.0167,
      "velocity": 69,
      "chip": "ym2612"
    },
    {
      "channel": 5,
      "note": 66,
      "start": 9.9651,
      "duration": 0.0167,
      "velocity": 1,
      "chip": "ym2612"
    },
    {
      "channel": 3,
      "note": 120,
      "start": 9.9813,
      "duration": 0.0182,
      "velocity": 68,
      "chip": "ym2612"
    },
    {
      "channel": 4,
      "note": 85,
      "start": 9.9816,
      "duration": 0.0181,
      "velocity": 69,
      "chip": "ym2612"
    },
    {
      "channel": 5,
      "note": 66,
      "start": 9.9818,
      "duration": 0.0182,
      "velocity": 1,
      "chip": "ym2612"
    },
    {
      "channel": 0,
      "note": 52,
      "start": 9.9985,
      "duration": 0.0831,
      "velocity": 47,
      "chip": "ym2612"
    },
    {
      "channel": 2,
      "note": 33,
      "start": 9.999,
      "duration": 0.1665,
      "velocity": 122,
      "chip": "ym2612"
    },
    {
      "channel": 3,
      "note": 120,
      "start": 9.9995,
      "duration": 0.0151,
      "velocity": 68,
      "chip": "ym2612"
    },
    {
      "channel": 4,
      "note": 84,
      "start": 9.9997,
      "duration": 0.0151,
      "velocity": 69,
      "chip": "ym2612"
    },
    {
      "channel": 5,
      "note": 66,
      "start": 10.0,
      "duration": 0.0151,
      "velocity": 1,
      "chip": "ym2612"
    },
    {
      "channel": 3,
      "note": 120,
      "start": 10.0147,
      "duration": 0.0167,
      "velocity": 68,
      "chip": "ym2612"
    },
    {
      "channel": 4,
      "note": 83,
      "start": 10.0149,
      "duration": 0.0167,
      "velocity": 69,
      "chip": "ym2612"
    },
    {
      "channel": 5,
      "note": 66,
      "start": 10.0151,
      "duration": 0.0167,
      "velocity": 1,
      "chip": "ym2612"
    },
    {
      "channel": 3,
      "note": 120,
      "start": 10.0313,
      "duration": 0.0167,
      "velocity": 68,
      "chip": "ym2612"
    },
    {
      "channel": 4,
      "note": 83,
      "start": 10.0315,
      "duration": 0.0167,
      "velocity": 69,
      "chip": "ym2612"
    },
    {
      "channel": 5,
      "note": 65,
      "start": 10.0318,
      "duration": 0.0167,
      "velocity": 1,
      "chip": "ym2612"
    },
    {
      "channel": 3,
      "note": 120,
      "start": 10.048,
      "duration": 0.0167,
      "velocity": 68,
      "chip": "ym2612"
    },
    {
      "channel": 4,
      "note": 82,
      "start": 10.0482,
      "duration": 0.0167,
      "velocity": 69,
      "chip": "ym2612"
    },
    {
      "channel": 5,
      "note": 65,
      "start": 10.0485,
      "duration": 0.0167,
      "velocity": 1,
      "chip": "ym2612"
    },
    {
      "channel": 3,
      "note": 121,
      "start": 10.0647,
      "duration": 0.0177,
      "velocity": 68,
      "chip": "ym2612"
    },
    {
      "channel": 4,
      "note": 81,
      "start": 10.0649,
      "duration": 0.0177,
      "velocity": 69,
      "chip": "ym2612"
    },
    {
      "channel": 5,
      "note": 65,
      "start": 10.0651,
      "duration": 0.0177,
      "velocity": 1,
      "chip": "ym2612"
    },
    {
      "channel": 0,
      "note": 64,
      "start": 10.0817,
      "duration": 0.0832,
      "velocity": 47,
      "chip": "ym2612"
    },
    {
      "channel": 3,
      "note": 121,
      "start": 10.0824,
      "duration": 0.0156,
      "velocity": 68,
      "chip": "ym2612"
    },
    {
      "channel": 4,
      "note": 80,
      "start": 10.0826,
      "duration": 0.0156,
      "velocity": 69,
      "chip": "ym2612"
    },
    {
      "channel": 5,
      "note": 65,
      "start": 10.0828,
      "duration": 0.0156,
      "velocity": 1,
      "chip": "ym2612"
    },
    {
      "channel": 3,
      "note": 121,
      "start": 10.098,
      "duration": 0.0167,
      "velocity": 68,
      "chip": "ym2612"
    },
    {
      "channel": 4,
      "note": 79,
      "start": 10.0983,
      "duration": 0.0167,
      "velocity": 69,
      "chip": "ym2612"
    },
    {
      "channel": 5,
      "note": 65,
      "start": 10.0985,
      "duration": 0.0167,
      "velocity": 1,
      "chip": "ym2612"
    },
    {
      "channel": 3,
      "note": 121,
      "start": 10.1147,
      "duration": 0.0167,
      "velocity": 68,
      "chip": "ym2612"
    },
    {
      "channel": 4,
      "note": 78,
      "start": 10.1149,
      "duration": 0.0167,
      "velocity": 69,
      "chip": "ym2612"
    },
    {
      "channel": 5,
      "note": 65,
      "start": 10.1151,
      "duration": 0.0167,
      "velocity": 1,
      "chip": "ym2612"
    },
    {
      "channel": 3,
      "note": 121,
      "start": 10.1313,
      "duration": 0.0167,
      "velocity": 68,
      "chip": "ym2612"
    },
    {
      "channel": 4,
      "note": 77,
      "start": 10.1316,
      "duration": 0.0167,
      "velocity": 69,
      "chip": "ym2612"
    },
    {
      "channel": 5,
      "note": 65,
      "start": 10.1318,
      "duration": 0.0167,
      "velocity": 1,
      "chip": "ym2612"
    },
    {
      "channel": 3,
      "note": 121,
      "start": 10.148,
      "duration": 0.0181,
      "velocity": 68,
      "chip": "ym2612"
    },
    {
      "channel": 4,
      "note": 76,
      "start": 10.1483,
      "duration": 0.0181,
      "velocity": 69,
      "chip": "ym2612"
    },
    {
      "channel": 5,
      "note": 65,
      "start": 10.1485,
      "duration": 0.0182,
      "velocity": 1,
      "chip": "ym2612"
    },
    {
      "channel": 0,
      "note": 59,
      "start": 10.1651,
      "duration": 0.0831,
      "velocity": 47,
      "chip": "ym2612"
    },
    {
      "channel": 2,
      "note": 45,
      "start": 10.1656,
      "duration": 0.0832,
      "velocity": 122,
      "chip": "ym2612"
    },
    {
      "channel": 3,
      "note": 121,
      "start": 10.1661,
      "duration": 0.0152,
      "velocity": 68,
      "chip": "ym2612"
    },
    {
      "channel": 4,
      "note": 75,
      "start": 10.1664,
      "duration": 0.0151,
      "velocity": 69,
      "chip": "ym2612"
    },
    {
      "channel": 5,
      "note": 64,
      "start": 10.1666,
      "duration": 0.0151,
      "velocity": 1,
      "chip": "ym2612"
    },
    {
      "channel": 3,
      "note": 121,
      "start": 10.1813,
      "duration": 0.0167,
      "velocity": 68,
      "chip": "ym2612"
    },
    {
      "channel": 4,
      "note": 74,
      "start": 10.1815,
      "duration": 0.0167,
      "velocity": 69,
      "chip": "ym2612"
    },
    {
      "channel": 5,
      "note": 64,
      "start": 10.1818,
      "duration": 0.0167,
      "velocity": 1,
      "chip": "ym2612"
    },
    {
      "channel": 3,
      "note": 121,
      "start": 10.198,
      "duration": 0.0167,
      "velocity": 68,
      "chip": "ym2612"
    },
    {
      "channel": 4,
      "note": 73,
      "start": 10.1982,
      "duration": 0.0167,
      "velocity": 69,
      "chip": "ym2612"
    },
    {
      "channel": 5,
      "note": 64,
      "start": 10.1985,
      "duration": 0.0167,
      "velocity": 1,
      "chip": "ym2612"
    },
    {
      "channel": 3,
      "note": 121,
      "start": 10.2147,
      "duration": 0.0167,
      "velocity": 68,
      "chip": "ym2612"
    },
    {
      "channel": 4,
      "note": 71,
      "start": 10.2149,
      "duration": 0.0167,
      "velocity": 69,
      "chip": "ym2612"
    },
    {
      "channel": 5,
      "note": 64,
      "start": 10.2151,
      "duration": 0.0167,
      "velocity": 1,
      "chip": "ym2612"
    },
    {
      "channel": 3,
      "note": 121,
      "start": 10.2313,
      "duration": 0.0181,
      "velocity": 68,
      "chip": "ym2612"
    },
    {
      "channel": 4,
      "note": 69,
      "start": 10.2315,
      "duration": 0.0182,
      "velocity": 69,
      "chip": "ym2612"
    },
    {
      "channel": 5,
      "note": 64,
      "start": 10.2318,
      "duration": 0.0182,
      "velocity": 1,
      "chip": "ym2612"
    },
    {
      "channel": 0,
      "note": 62,
      "start": 10.2484,
      "duration": 0.3891,
      "velocity": 47,
      "chip": "ym2612"
    },
    {
      "channel": 2,
      "note": 33,
      "start": 10.249,
      "duration": 0.0833,
      "velocity": 122,
      "chip": "ym2612"
    },
    {
      "channel": 3,
      "note": 121,
      "start": 10.2495,
      "duration": 0.0152,
      "velocity": 68,
      "chip": "ym2612"
    },
    {
      "channel": 4,
      "note": 68,
      "start": 10.2497,
      "duration": 0.0151,
      "velocity": 69,
      "chip": "ym2612"
    },
    {
      "channel": 5,
      "note": 64,
      "start": 10.25,
      "duration": 0.0151,
      "velocity": 1,
      "chip": "ym2612"
    },
    {
      "channel": 3,
      "note": 121,
      "start": 10.2647,
      "duration": 0.0167,
      "velocity": 68,
      "chip": "ym2612"
    },
    {
      "channel": 4,
      "note": 66,
      "start": 10.2649,
      "duration": 0.0167,
      "velocity": 69,
      "chip": "ym2612"
    },
    {
      "channel": 5,
      "note": 64,
      "start": 10.2651,
      "duration": 0.0167,
      "velocity": 1,
      "chip": "ym2612"
    },
    {
      "channel": 3,
      "note": 121,
      "start": 10.2813,
      "duration": 0.0167,
      "velocity": 68,
      "chip": "ym2612"
    },
    {
      "channel": 4,
      "note": 64,
      "start": 10.2816,
      "duration": 0.0167,
      "velocity": 69,
      "chip": "ym2612"
    },
    {
      "channel": 5,
      "note": 63,
      "start": 10.2818,
      "duration": 0.0167,
      "velocity": 1,
      "chip": "ym2612"
    },
    {
      "channel": 3,
      "note": 121,
      "start": 10.298,
      "duration": 0.0167,
      "velocity": 68,
      "chip": "ym2612"
    },
    {
      "channel": 4,
      "note": 61,
      "start": 10.2983,
      "duration": 0.0167,
      "velocity": 69,
      "chip": "ym2612"
    },
    {
      "channel": 5,
      "note": 63,
      "start": 10.2985,
      "duration": 0.0167,
      "velocity": 1,
      "chip": "ym2612"
    },
    {
      "channel": 3,
      "note": 121,
      "start": 10.3147,
      "duration": 0.0203,
      "velocity": 68,
      "chip": "ym2612"
    },
    {
      "channel": 4,
      "note": 58,
      "start": 10.3149,
      "duration": 0.0193,
      "velocity": 121,
      "chip": "ym2612"
    },
    {
      "channel": 5,
      "note": 63,
      "start": 10.3151,
      "duration": 0.0203,
      "velocity": 1,
      "chip": "ym2612"
    },
    {
      "channel": 1,
      "note": 52,
      "start": 10.3319,
      "duration": 0.0769,
      "velocity": 47,
      "chip": "ym2612"
    },
    {
      "channel": 2,
      "note": 43,
      "start": 10.3324,
      "duration": 0.0769,
      "velocity": 122,
      "chip": "ym2612"
    },
    {
      "channel": 4,
      "note": 79,
      "start": 10.3344,
      "duration": 0.0007,
      "velocity": 121,
      "chip": "ym2612"
    },
    {
      "channel": 3,
      "note": 121,
      "start": 10.335,
      "duration": 0.0124,
      "velocity": 68,
      "chip": "ym2612"
    },
    {
      "channel": 4,
      "note": 79,
      "start": 10.3351,
      "duration": 0.0124,
      "velocity": 121,
      "chip": "ym2612"
    },
    {
      "channel": 5,
      "note": 63,
      "start": 10.3354,
      "duration": 0.0124,
      "velocity": 1,
      "chip": "ym2612"
    },
    {
      "channel": 3,
      "note": 121,
      "start": 10.3474,
      "duration": 0.0137,
      "velocity": 68,
      "chip": "ym2612"
    },
    {
      "channel": 4,
      "note": 78,
      "start": 10.3476,
      "duration": 0.0137,
      "velocity": 121,
      "chip": "ym2612"
    },
    {
      "channel": 5,
      "note": 63,
      "start": 10.3478,
      "duration": 0.0137,
      "velocity": 1,
      "chip": "ym2612"
    },
    {
      "channel": 3,
      "note": 121,
      "start": 10.3611,
      "duration": 0.0158,
      "velocity": 68,
      "chip": "ym2612"
    },
    {
      "channel": 4,
      "note": 78,
      "start": 10.3613,
      "duration": 0.0158,
      "velocity": 121,
      "chip": "ym2612"
    },
    {
      "channel": 5,
      "note": 63,
      "start": 10.3615,
      "duration": 0.0158,
      "velocity": 1,
      "chip": "ym2612"
    },
    {
      "channel": 3,
      "note": 121,
      "start": 10.3769,
      "duration": 0.0158,
      "velocity": 68,
      "chip": "ym2612"
    },
    {
      "channel": 4,
      "note": 77,
      "start": 10.3771,
      "duration": 0.0158,
      "velocity": 121,
      "chip": "ym2612"
    },
    {
      "channel": 5,
      "note": 62,
      "start": 10.3773,
      "duration": 0.0158,
      "velocity": 1,
      "chip": "ym2612"
    },
    {
      "channel": 3,
      "note": 121,
      "start": 10.3927,
      "duration": 0.018,
      "velocity": 68,
      "chip": "ym2612"
    },
    {
      "channel": 4,
      "note": 77,
      "start": 10.3929,
      "duration": 0.0171,
      "velocity": 121,
      "chip": "ym2612"
    },
    {
      "channel": 5,
      "note": 62,
      "start": 10.3932,
      "duration": 0.018,
      "velocity": 1,
      "chip": "ym2612"
    },
    {
      "channel": 1,
      "note": 64,
      "start": 10.409,
      "duration": 0.0745,
      "velocity": 47,
      "chip": "ym2612"
    },
    {
      "channel": 2,
      "note": 45,
      "start": 10.4095,
      "duration": 0.0744,
      "velocity": 122,
      "chip": "ym2612"
    },
    {
      "channel": 4,
      "note": 79,
      "start": 10.4101,
      "duration": 0.0008,
      "velocity": 121,
      "chip": "ym2612"
    },
    {
      "channel": 3,
      "note": 121,
      "start": 10.4107,
      "duration": 0.0136,
      "velocity": 68,
      "chip": "ym2612"
    },
    {
      "channel": 4,
      "note": 79,
      "start": 10.411,
      "duration": 0.0136,
      "velocity": 121,
      "chip": "ym2612"
    },
    {
      "channel": 5,
      "note": 62,
      "start": 10.4111,
      "duration": 0.0136,
      "velocity": 1,
      "chip": "ym2612"
    },
    {
      "channel": 3,
      "note": 121,
      "start": 10.4243,
      "duration": 0.0157,
      "velocity": 68,
      "chip": "ym2612"
    },
    {
      "channel": 4,
      "note": 78,
      "start": 10.4245,
      "duration": 0.0157,
      "velocity": 121,
      "chip": "ym2612"
    },
    {
      "channel": 5,
      "note": 62,
      "start": 10.4247,
      "duration": 0.0157,
      "velocity": 1,
      "chip": "ym2612"
    },
    {
      "channel": 3,
      "note": 121,
      "start": 10.44,
      "duration": 0.0157,
      "velocity": 68,
      "chip": "ym2612"
    },
    {
      "channel": 4,
      "note": 78,
      "start": 10.4402,
      "duration": 0.0157,
      "velocity": 121,
      "chip": "ym2612"
    },
    {
      "channel": 5,
      "note": 62,
      "start": 10.4404,
      "duration": 0.0157,
      "velocity": 1,
      "chip": "ym2612"
    },
    {
      "channel": 3,
      "note": 122,
      "start": 10.4556,
      "duration": 0.0137,
      "velocity": 68,
      "chip": "ym2612"
    },
    {
      "channel": 4,
      "note": 77,
      "start": 10.4559,
      "duration": 0.0137,
      "velocity": 121,
      "chip": "ym2612"
    },
    {
      "channel": 5,
      "note": 62,
      "start": 10.4561,
      "duration": 0.0137,
      "velocity": 1,
      "chip": "ym2612"
    },
    {
      "channel": 3,
      "note": 122,
      "start": 10.4693,
      "duration": 0.0161,
      "velocity": 68,
      "chip": "ym2612"
    },
    {
      "channel": 4,
      "note": 77,
      "start": 10.4695,
      "duration": 0.0151,
      "velocity": 121,
      "chip": "ym2612"
    },
    {
      "channel": 5,
      "note": 62,
      "start": 10.4697,
      "duration": 0.0161,
      "velocity": 1,
      "chip": "ym2612"
    },
    {
      "channel": 1,
      "note": 59,
      "start": 10.4837,
      "duration": 0.0791,
      "velocity": 47,
      "chip": "ym2612"
    },
    {
      "channel": 2,
      "note": 33,
      "start": 10.4842,
      "duration": 0.0791,
      "velocity": 122,
      "chip": "ym2612"
    },
    {
      "channel": 4,
      "note": 79,
      "start": 10.4848,
      "duration": 0.0008,
      "velocity": 121,
      "chip": "ym2612"
    },
    {
      "channel": 3,
      "note": 122,
      "start": 10.4853,
      "duration": 0.0138,
      "velocity": 68,
      "chip": "ym2612"
    },
    {
      "channel": 4,
      "note": 79,
      "start": 10.4856,
      "duration": 0.0137,
      "velocity": 121,
      "chip": "ym2612"
    },
    {
      "channel": 5,
      "note": 61,
      "start": 10.4858,
      "duration": 0.0138,
      "velocity": 1,
      "chip": "ym2612"
    },
    {
      "channel": 3,
      "note": 122,
      "start": 10.4991,
      "duration": 0.0158,
      "velocity": 68,
      "chip": "ym2612"
    },
    {
      "channel": 4,
      "note": 78,
      "start": 10.4993,
      "duration": 0.0158,
      "velocity": 121,
      "chip": "ym2612"
    },
    {
      "channel": 5,
      "note": 61,
      "start": 10.4996,
      "duration": 0.0158,
      "velocity": 1,
      "chip": "ym2612"
    },
    {
      "channel": 3,
      "note": 122,
      "start": 10.5149,
      "duration": 0.0158,
      "velocity": 68,
      "chip": "ym2612"
    },
    {
      "channel": 4,
      "note": 78,
      "start": 10.5151,
      "duration": 0.0158,
      "velocity": 121,
      "chip": "ym2612"
    },
    {
      "channel": 5,
      "note": 61,
      "start": 10.5154,
      "duration": 0.0158,
      "velocity": 1,
      "chip": "ym2612"
    },
    {
      "channel": 3,
      "note": 122,
      "start": 10.5307,
      "duration": 0.0158,
      "velocity": 68,
      "chip": "ym2612"
    },
    {
      "channel": 4,
      "note": 77,
      "start": 10.5309,
      "duration": 0.0158,
      "velocity": 121,
      "chip": "ym2612"
    },
    {
      "channel": 5,
      "note": 61,
      "start": 10.5312,
      "duration": 0.0158,
      "velocity": 1,
      "chip": "ym2612"
    },
    {
      "channel": 3,
      "note": 122,
      "start": 10.5466,
      "duration": 0.018,
      "velocity": 68,
      "chip": "ym2612"
    },
    {
      "channel": 4,
      "note": 77,
      "start": 10.5467,
      "duration": 0.0171,
      "velocity": 121,
      "chip": "ym2612"
    },
    {
      "channel": 5,
      "note": 61,
      "start": 10.547,
      "duration": 0.018,
      "velocity": 1,
      "chip": "ym2612"
    },
    {
      "channel": 1,
      "note": 62,
      "start": 10.5629,
      "duration": 0.3595,
      "velocity": 47,
      "chip": "ym2612"
    },
    {
      "channel": 2,
      "note": 31,
      "start": 10.5634,
      "duration": 0.0747,
      "velocity": 122,
      "chip": "ym2612"
    },
    {
      "channel": 4,
      "note": 79,
      "start": 10.564,
      "duration": 0.0008,
      "velocity": 121,
      "chip": "ym2612"
    },
    {
      "channel": 3,
      "note": 122,
      "start": 10.5646,
      "duration": 0.0136,
      "velocity": 68,
      "chip": "ym2612"
    },
    {
      "channel": 4,
      "note": 79,
      "start": 10.5649,
      "duration": 0.0136,
      "velocity": 121,
      "chip": "ym2612"
    },
    {
      "channel": 5,
      "note": 61,
      "start": 10.565,
      "duration": 0.0136,
      "velocity": 1,
      "chip": "ym2612"
    },
    {
      "channel": 3,
      "note": 122,
      "start": 10.5782,
      "duration": 0.0157,
      "velocity": 68,
      "chip": "ym2612"
    },
    {
      "channel": 4,
      "note": 78,
      "start": 10.5784,
      "duration": 0.0157,
      "velocity": 121,
      "chip": "ym2612"
    },
    {
      "channel": 5,
      "note": 60,
      "start": 10.5786,
      "duration": 0.0157,
      "velocity": 1,
      "chip": "ym2612"
    },
    {
      "channel": 3,
      "note": 122,
      "start": 10.5939,
      "duration": 0.0157,
      "velocity": 68,
      "chip": "ym2612"
    },
    {
      "channel": 4,
      "note": 78,
      "start": 10.5941,
      "duration": 0.0157,
      "velocity": 121,
      "chip": "ym2612"
    },
    {
      "channel": 5,
      "note": 60,
      "start": 10.5943,
      "duration": 0.0157,
      "velocity": 1,
      "chip": "ym2612"
    },
    {
      "channel": 3,
      "note": 122,
      "start": 10.6095,
      "duration": 0.0137,
      "velocity": 68,
      "chip": "ym2612"
    },
    {
      "channel": 4,
      "note": 77,
      "start": 10.6098,
      "duration": 0.0137,
      "velocity": 121,
      "chip": "ym2612"
    },
    {
      "channel": 5,
      "note": 60,
      "start": 10.61,
      "duration": 0.0137,
      "velocity": 1,
      "chip": "ym2612"
    },
    {
      "channel": 3,
      "note": 122,
      "start": 10.6232,
      "duration": 0.0168,
      "velocity": 104,
      "chip": "ym2612"
    },
    {
      "channel": 4,
      "note": 77,
      "start": 10.6234,
      "duration": 0.0185,
      "velocity": 107,
      "chip": "ym2612"
    },
    {
      "channel": 5,
      "note": 60,
      "start": 10.6236,
      "duration": 0.0191,
      "velocity": 1,
      "chip": "ym2612"
    },
    {
      "channel": 0,
      "note": 50,
      "start": 10.6377,
      "duration": 0.0689,
      "velocity": 47,
      "chip": "ym2612"
    },
    {
      "channel": 2,
      "note": 38,
      "start": 10.6383,
      "duration": 0.1376,
      "velocity": 122,
      "chip": "ym2612"
    },
    {
      "channel": 3,
      "note": 86,
      "start": 10.6402,
      "duration": 0.0671,
      "velocity": 104,
      "chip": "ym2612"
    },
    {
      "channel": 4,
      "note": 98,
      "start": 10.6421,
      "duration": 0.0656,
      "velocity": 107,
      "chip": "ym2612"
    },
    {
      "channel": 5,
      "note": 60,
      "start": 10.6427,
      "duration": 0.0091,
      "velocity": 1,
      "chip": "ym2612"
    },
    {
      "channel": 5,
      "note": 59,
      "start": 10.6519,
      "duration": 0.0136,
      "velocity": 1,
      "chip": "ym2612"
    },
    {
      "channel": 5,
      "note": 59,
      "start": 10.6655,
      "duration": 0.0136,
      "velocity": 1,
      "chip": "ym2612"
    },
    {
      "channel": 5,
      "note": 59,
      "start": 10.6791,
      "duration": 0.0136,
      "velocity": 1,
      "chip": "ym2612"
    },
    {
      "channel": 5,
      "note": 59,
      "start": 10.6927,
      "duration": 0.0157,
      "velocity": 1,
      "chip": "ym2612"
    },
    {
      "channel": 0,
      "note": 62,
      "start": 10.7068,
      "duration": 0.0685,
      "velocity": 47,
      "chip": "ym2612"
    },
    {
      "channel": 3,
      "note": 98,
      "start": 10.7074,
      "duration": 0.0689,
      "velocity": 104,
      "chip": "ym2612"
    },
    {
      "channel": 4,
      "note": 93,
      "start": 10.7079,
      "duration": 0.0689,
      "velocity": 107,
      "chip": "ym2612"
    },
    {
      "channel": 5,
      "note": 59,
      "start": 10.7084,
      "duration": 0.012,
      "velocity": 1,
      "chip": "ym2612"
    },
    {
      "channel": 5,
      "note": 58,
      "start": 10.7204,
      "duration": 0.0137,
      "velocity": 1,
      "chip": "ym2612"
    },
    {
      "channel": 5,
      "note": 58,
      "start": 10.7341,
      "duration": 0.0137,
      "velocity": 1,
      "chip": "ym2612"
    },
    {
      "channel": 5,
      "note": 58,
      "start": 10.7477,
      "duration": 0.0137,
      "velocity": 1,
      "chip": "ym2612"
    },
    {
      "channel": 5,
      "note": 58,
      "start": 10.7614,
      "duration": 0.0161,
      "velocity": 1,
      "chip": "ym2612"
    },
    {
      "channel": 0,
      "note": 57,
      "start": 10.7754,
      "duration": 0.0784,
      "velocity": 47,
      "chip": "ym2612"
    },
    {
      "channel": 2,
      "note": 50,
      "start": 10.776,
      "duration": 0.0784,
      "velocity": 122,
      "chip": "ym2612"
    },
    {
      "channel": 3,
      "note": 93,
      "start": 10.7765,
      "duration": 0.0785,
      "velocity": 104,
      "chip": "ym2612"
    },
    {
      "channel": 4,
      "note": 96,
      "start": 10.777,
      "duration": 0.0784,
      "velocity": 107,
      "chip": "ym2612"
    },
    {
      "channel": 5,
      "note": 58,
      "start": 10.7775,
      "duration": 0.0134,
      "velocity": 1,
      "chip": "ym2612"
    },
    {
      "channel": 5,
      "note": 57,
      "start": 10.7908,
      "duration": 0.0157,
      "velocity": 1,
      "chip": "ym2612"
    },
    {
      "channel": 5,
      "note": 57,
      "start": 10.8065,
      "duration": 0.0157,
      "velocity": 1,
      "chip": "ym2612"
    },
    {
      "channel": 5,
      "note": 57,
      "start": 10.8222,
      "duration": 0.0157,
      "velocity": 1,
      "chip": "ym2612"
    },
    {
      "channel": 5,
      "note": 57,
      "start": 10.8379,
      "duration": 0.0183,
      "velocity": 1,
      "chip": "ym2612"
    },
    {
      "channel": 0,
      "note": 60,
      "start": 10.8541,
      "duration": 0.3725,
      "velocity": 47,
      "chip": "ym2612"
    },
    {
      "channel": 2,
      "note": 38,
      "start": 10.8546,
      "duration": 0.0683,
      "velocity": 122,
      "chip": "ym2612"
    },
    {
      "channel": 3,
      "note": 96,
      "start": 10.8551,
      "duration": 0.0684,
      "velocity": 104,
      "chip": "ym2612"
    },
    {
      "channel": 4,
      "note": 91,
      "start": 10.8557,
      "duration": 0.0683,
      "velocity": 107,
      "chip": "ym2612"
    },
    {
      "channel": 5,
      "note": 57,
      "start": 10.8562,
      "duration": 0.0115,
      "velocity": 1,
      "chip": "ym2612"
    },
    {
      "channel": 5,
      "note": 56,
      "start": 10.8677,
      "duration": 0.0136,
      "velocity": 1,
      "chip": "ym2612"
    },
    {
      "channel": 5,
      "note": 56,
      "start": 10.8813,
      "duration": 0.0136,
      "velocity": 1,
      "chip": "ym2612"
    },
    {
      "channel": 5,
      "note": 56,
      "start": 10.8949,
      "duration": 0.0136,
      "velocity": 1,
      "chip": "ym2612"
    },
    {
      "channel": 5,
      "note": 56,
      "start": 10.9085,
      "duration": 0.0162,
      "velocity": 1,
      "chip": "ym2612"
    },
    {
      "channel": 1,
      "note": 50,
      "start": 10.9226,
      "duration": 0.0683,
      "velocity": 47,
      "chip": "ym2612"
    },
    {
      "channel": 2,
      "note": 48,
      "start": 10.9231,
      "duration": 0.0683,
      "velocity": 122,
      "chip": "ym2612"
    },
    {
      "channel": 3,
      "note": 91,
      "start": 10.9236,
      "duration": 0.0683,
      "velocity": 104,
      "chip": "ym2612"
    },
    {
      "channel": 4,
      "note": 98,
      "start": 10.9241,
      "duration": 0.0683,
      "velocity": 107,
      "chip": "ym2612"
    },
    {
      "channel": 5,
      "note": 56,
      "start": 10.9247,
      "duration": 0.0114,
      "velocity": 1,
      "chip": "ym2612"
    },
    {
      "channel": 5,
      "note": 55,
      "start": 10.9361,
      "duration": 0.0136,
      "velocity": 1,
      "chip": "ym2612"
    },
    {
      "channel": 5,
      "note": 55,
      "start": 10.9497,
      "duration": 0.0136,
      "velocity": 1,
      "chip": "ym2612"
    },
    {
      "channel": 5,
      "note": 55,
      "start": 10.9633,
      "duration": 0.0136,
      "velocity": 1,
      "chip": "ym2612"
    },
    {
      "channel": 5,
      "note": 55,
      "start": 10.9769,
      "duration": 0.0161,
      "velocity": 1,
      "chip": "ym2612"
    },
    {
      "channel": 1,
      "note": 62,
      "start": 10.991,
      "duration": 0.069,
      "velocity": 47,
      "chip": "ym2612"
    },
    {
      "channel": 2,
      "note": 50,
      "start": 10.9915,
      "duration": 0.0689,
      "velocity": 122,
      "chip": "ym2612"
    },
    {
      "channel": 3,
      "note": 98,
      "start": 10.992,
      "duration": 0.069,
      "velocity": 104,
      "chip": "ym2612"
    },
    {
      "channel": 4,
      "note": 93,
      "start": 10.9926,
      "duration": 0.0689,
      "velocity": 107,
      "chip": "ym2612"
    },
    {
      "channel": 5,
      "note": 54,
      "start": 10.9931,
      "duration": 0.0116,
      "velocity": 1,
      "chip": "ym2612"
    },
    {
      "channel": 5,
      "note": 54,
      "start": 11.0047,
      "duration": 0.0137,
      "velocity": 1,
      "chip": "ym2612"
    },
    {
      "channel": 5,
      "note": 54,
      "start": 11.0184,
      "duration": 0.0138,
      "velocity": 1,
      "chip": "ym2612"
    },
    {
      "channel": 5,
      "note": 54,
      "start": 11.0322,
      "duration": 0.0137,
      "velocity": 1,
      "chip": "ym2612"
    },
    {
      "channel": 5,
      "note": 53,
      "start": 11.046,
      "duration": 0.0175,
      "velocity": 108,
      "chip": "ym2612"
    },
    {
      "channel": 1,
      "note": 57,
      "start": 11.0602,
      "duration": 0.0832,
      "velocity": 47,
      "chip": "ym2612"
    },
    {
      "channel": 2,
      "note": 36,
      "start": 11.0607,
      "duration": 0.0831,
      "velocity": 122,
      "chip": "ym2612"
    },
    {
      "channel": 3,
      "note": 93,
      "start": 11.0612,
      "duration": 0.0832,
      "velocity": 104,
      "chip": "ym2612"
    },
    {
      "channel": 4,
      "note": 96,
      "start": 11.0617,
      "duration": 0.0831,
      "velocity": 107,
      "chip": "ym2612"
    },
    {
      "channel": 5,
      "note": 67,
      "start": 11.0636,
      "duration": 0.6286,
      "velocity": 108,
      "chip": "ym2612"
    },
    {
      "channel": 1,
      "note": 60,
      "start": 11.1435,
      "duration": 0.3994,
      "velocity": 47,
      "chip": "ym2612"
    },
    {
      "channel": 2,
      "note": 33,
      "start": 11.144,
      "duration": 0.0831,
      "velocity": 122,
      "chip": "ym2612"
    },
    {
      "channel": 3,
      "note": 96,
      "start": 11.1445,
      "duration": 0.0832,
      "velocity": 104,
      "chip": "ym2612"
    },
    {
      "channel": 4,
      "note": 91,
      "start": 11.145,
      "duration": 0.0831,
      "velocity": 107,
      "chip": "ym2612"
    },
    {
      "channel": 0,
      "note": 50,
      "start": 11.2268,
      "duration": 0.0831,
      "velocity": 47,
      "chip": "ym2612"
    },
    {
      "channel": 2,
      "note": 38,
      "start": 11.2273,
      "duration": 0.1665,
      "velocity": 122,
      "chip": "ym2612"
    },
    {
      "channel": 3,
      "note": 91,
      "start": 11.2278,
      "duration": 0.0826,
      "velocity": 104,
      "chip": "ym2612"
    },
    {
      "channel": 4,
      "note": 98,
      "start": 11.2284,
      "duration": 0.0826,
      "velocity": 107,
      "chip": "ym2612"
    },
    {
      "channel": 0,
      "note": 62,
      "start": 11.31,
      "duration": 0.0832,
      "velocity": 47,
      "chip": "ym2612"
    },
    {
      "channel": 3,
      "note": 98,
      "start": 11.3107,
      "duration": 0.0837,
      "velocity": 104,
      "chip": "ym2612"
    },
    {
      "channel": 4,
      "note": 93,
      "start": 11.3112,
      "duration": 0.0837,
      "velocity": 107,
      "chip": "ym2612"
    },
    {
      "channel": 0,
      "note": 57,
      "start": 11.3934,
      "duration": 0.0745,
      "velocity": 47,
      "chip": "ym2612"
    },
    {
      "channel": 2,
      "note": 50,
      "start": 11.3939,
      "duration": 0.0746,
      "velocity": 122,
      "chip": "ym2612"
    },
    {
      "channel": 3,
      "note": 93,
      "start": 11.3944,
      "duration": 0.0746,
      "velocity": 104,
      "chip": "ym2612"
    },
    {
      "channel": 4,
      "note": 96,
      "start": 11.395,
      "duration": 0.0745,
      "velocity": 107,
      "chip": "ym2612"
    },
    {
      "channel": 0,
      "note": 60,
      "start": 11.4682,
      "duration": 0.3886,
      "velocity": 47,
      "chip": "ym2612"
    },
    {
      "channel": 2,
      "note": 38,
      "start": 11.4687,
      "duration": 0.0747,
      "velocity": 122,
      "chip": "ym2612"
    },
    {
      "channel": 3,
      "note": 96,
      "start": 11.4692,
      "duration": 0.0747,
      "velocity": 104,
      "chip": "ym2612"
    },
    {
      "channel": 4,
      "note": 91,
      "start": 11.4698,
      "duration": 0.0746,
      "velocity": 107,
      "chip": "ym2612"
    },
    {
      "channel": 1,
      "note": 50,
      "start": 11.543,
      "duration": 0.0722,
      "velocity": 47,
      "chip": "ym2612"
    },
    {
      "channel": 2,
      "note": 48,
      "start": 11.5436,
      "duration": 0.0722,
      "velocity": 122,
      "chip": "ym2612"
    },
    {
      "channel": 3,
      "note": 91,
      "start": 11.5441,
      "duration": 0.0722,
      "velocity": 104,
      "chip": "ym2612"
    },
    {
      "channel": 4,
      "note": 98,
      "start": 11.5446,
      "duration": 0.0722,
      "velocity": 107,
      "chip": "ym2612"
    },
    {
      "channel": 1,
      "note": 62,
      "start": 11.6154,
      "duration": 0.0748,
      "velocity": 47,
      "chip": "ym2612"
    },
    {
      "channel": 2,
      "note": 50,
      "start": 11.6159,
      "duration": 0.0747,
      "velocity": 122,
      "chip": "ym2612"
    },
    {
      "channel": 3,
      "note": 98,
      "start": 11.6164,
      "duration": 0.0748,
      "velocity": 104,
      "chip": "ym2612"
    },
    {
      "channel": 4,
      "note": 93,
      "start": 11.6169,
      "duration": 0.0748,
      "velocity": 107,
      "chip": "ym2612"
    },
    {
      "channel": 1,
      "note": 57,
      "start": 11.6903,
      "duration": 0.0832,
      "velocity": 47,
      "chip": "ym2612"
    },
    {
      "channel": 2,
      "note": 36,
      "start": 11.6908,
      "duration": 0.0831,
      "velocity": 122,
      "chip": "ym2612"
    },
    {
      "channel": 3,
      "note": 93,
      "start": 11.6913,
      "duration": 0.0832,
      "velocity": 104,
      "chip": "ym2612"
    },
    {
      "channel": 4,
      "note": 96,
      "start": 11.6918,
      "duration": 0.0831,
      "velocity": 107,
      "chip": "ym2612"
    },
    {
      "channel": 5,
      "note": 67,
      "start": 11.6924,
      "duration": 0.0831,
      "velocity": 108,
      "chip": "ym2612"
    },
    {
      "channel": 1,
      "note": 60,
      "start": 11.7736,
      "duration": 0.3817,
      "velocity": 47,
      "chip": "ym2612"
    },
    {
      "channel": 2,
      "note": 33,
      "start": 11.7741,
      "duration": 0.0831,
      "velocity": 122,
      "chip": "ym2612"
    },
    {
      "channel": 3,
      "note": 96,
      "start": 11.7746,
      "duration": 0.0832,
      "velocity": 104,
      "chip": "ym2612"
    },
    {
      "channel": 4,
      "note": 91,
      "start": 11.7751,
      "duration": 0.0831,
      "velocity": 107,
      "chip": "ym2612"
    },
    {
      "channel": 5,
      "note": 67,
      "start": 11.7756,
      "duration": 0.5307,
      "velocity": 108,
      "chip": "ym2612"
    },
    {
      "channel": 0,
      "note": 53,
      "start": 11.8569,
      "duration": 0.0762,
      "velocity": 47,
      "chip": "ym2612"
    },
    {
      "channel": 2,
      "note": 34,
      "start": 11.8575,
      "duration": 0.1488,
      "velocity": 122,
      "chip": "ym2612"
    },
    {
      "channel": 3,
      "note": 91,
      "start": 11.858,
      "duration": 0.0757,
      "velocity": 104,
      "chip": "ym2612"
    },
    {
      "channel": 4,
      "note": 94,
      "start": 11.8585,
      "duration": 0.0757,
      "velocity": 107,
      "chip": "ym2612"
    },
    {
      "channel": 0,
      "note": 65,
      "start": 11.9332,
      "duration": 0.0725,
      "velocity": 47,
      "chip": "ym2612"
    },
    {
      "channel": 3,
      "note": 94,
      "start": 11.9339,
      "duration": 0.0729,
      "velocity": 104,
      "chip": "ym2612"
    },
    {
      "channel": 4,
      "note": 89,
      "start": 11.9344,
      "duration": 0.0729,
      "velocity": 107,
      "chip": "ym2612"
    },
    {
      "channel": 0,
      "note": 60,
      "start": 12.0058,
      "duration": 0.0744,
      "velocity": 47,
      "chip": "ym2612"
    },
    {
      "channel": 2,
      "note": 46,
      "start": 12.0064,
      "duration": 0.0744,
      "velocity": 122,
      "chip": "ym2612"
    },
    {
      "channel": 3,
      "note": 89,
      "start": 12.0069,
      "duration": 0.0744,
      "velocity": 104,
      "chip": "ym2612"
    },
    {
      "channel": 4,
      "note": 92,
      "start": 12.0074,
      "duration": 0.0744,
      "velocity": 107,
      "chip": "ym2612"
    },
    {
      "channel": 0,
      "note": 63,
      "start": 12.0804,
      "duration": 0.3905,
      "velocity": 47,
      "chip": "ym2612"
    },
    {
      "channel": 2,
      "note": 34,
      "start": 12.0809,
      "duration": 0.0749,
      "velocity": 122,
      "chip": "ym2612"
    },
    {
      "channel": 3,
      "note": 92,
      "start": 12.0814,
      "duration": 0.0749,
      "velocity": 104,
      "chip": "ym2612"
    },
    {
      "channel": 4,
      "note": 87,
      "start": 12.082,
      "duration": 0.0749,
      "velocity": 107,
      "chip": "ym2612"
    },
    {
      "channel": 1,
      "note": 53,
      "start": 12.1554,
      "duration": 0.0744,
      "velocity": 47,
      "chip": "ym2612"
    },
    {
      "channel": 2,
      "note": 44,
      "start": 12.1559,
      "duration": 0.0744,
      "velocity": 122,
      "chip": "ym2612"
    },
    {
      "channel": 3,
      "note": 87,
      "start": 12.1564,
      "duration": 0.0744,
      "velocity": 104,
      "chip": "ym2612"
    },
    {
      "channel": 4,
      "note": 94,
      "start": 12.157,
      "duration": 0.0744,
      "velocity": 107,
      "chip": "ym2612"
    },
    {
      "channel": 1,
      "note": 65,
      "start": 12.23,
      "duration": 0.0743,
      "velocity": 47,
      "chip": "ym2612"
    },
    {
      "channel": 2,
      "note": 46,
      "start": 12.2305,
      "duration": 0.0742,
      "velocity": 122,
      "chip": "ym2612"
    },
    {
      "channel": 3,
      "note": 94,
      "start": 12.231,
      "duration": 0.0743,
      "velocity": 104,
      "chip": "ym2612"
    },
    {
      "channel": 4,
      "note": 89,
      "start": 12.2316,
      "duration": 0.0742,
      "velocity": 107,
      "chip": "ym2612"
    },
    {
      "channel": 1,
      "note": 60,
      "start": 12.3045,
      "duration": 0.0832,
      "velocity": 47,
      "chip": "ym2612"
    },
    {
      "channel": 2,
      "note": 32,
      "start": 12.305,
      "duration": 0.0831,
      "velocity": 122,
      "chip": "ym2612"
    },
    {
      "channel": 3,
      "note": 89,
      "start": 12.3055,
      "duration": 0.0832,
      "velocity": 104,
      "chip": "ym2612"
    },
    {
      "channel": 4,
      "note": 92,
      "start": 12.306,
      "duration": 0.0831,
      "velocity": 107,
      "chip": "ym2612"
    },
    {
      "channel": 5,
      "note": 67,
      "start": 12.3066,
      "duration": 0.6359,
      "velocity": 108,
      "chip": "ym2612"
    },
    {
      "channel": 1,
      "note": 63,
      "start": 12.3878,
      "duration": 0.4036,
      "velocity": 47,
      "chip": "ym2612"
    },
    {
      "channel": 2,
      "note": 34,
      "start": 12.3883,
      "duration": 0.0831,
      "velocity": 122,
      "chip": "ym2612"
    },
    {
      "channel": 3,
      "note": 92,
      "start": 12.3888,
      "duration": 0.0832,
      "velocity": 104,
      "chip": "ym2612"
    },
    {
      "channel": 4,
      "note": 87,
      "start": 12.3893,
      "duration": 0.0831,
      "velocity": 107,
      "chip": "ym2612"
    },
    {
      "channel": 0,
      "note": 53,
      "start": 12.4711,
      "duration": 0.0831,
      "velocity": 47,
      "chip": "ym2612"
    },
    {
      "channel": 2,
      "note": 34,
      "start": 12.4716,
      "duration": 0.1665,
      "velocity": 122,
      "chip": "ym2612"
    },
    {
      "channel": 3,
      "note": 87,
      "start": 12.4721,
      "duration": 0.0827,
      "velocity": 104,
      "chip": "ym2612"
    },
    {
      "channel": 4,
      "note": 94,
      "start": 12.4727,
      "duration": 0.0826,
      "velocity": 107,
      "chip": "ym2612"
    },
    {
      "channel": 0,
      "note": 65,
      "start": 12.5544,
      "duration": 0.0832,
      "velocity": 47,
      "chip": "ym2612"
    },
    {
      "channel": 3,
      "note": 94,
      "start": 12.555,
      "duration": 0.0837,
      "velocity": 104,
      "chip": "ym2612"
    },
    {
      "channel": 4,
      "note": 89,
      "start": 12.5555,
      "duration": 0.0837,
      "velocity": 107,
      "chip": "ym2612"
    },
    {
      "channel": 0,
      "note": 60,
      "start": 12.6378,
      "duration": 0.0785,
      "velocity": 47,
      "chip": "ym2612"
    },
    {
      "channel": 2,
      "note": 46,
      "start": 12.6383,
      "duration": 0.0785,
      "velocity": 122,
      "chip": "ym2612"
    },
    {
      "channel": 3,
      "note": 89,
      "start": 12.6388,
      "duration": 0.0785,
      "velocity": 104,
      "chip": "ym2612"
    },
    {
      "channel": 4,
      "note": 92,
      "start": 12.6393,
      "duration": 0.0785,
      "velocity": 107,
      "chip": "ym2612"
    },
    {
      "channel": 0,
      "note": 63,
      "start": 12.7164,
      "duration": 0.3906,
      "velocity": 47,
      "chip": "ym2612"
    },
    {
      "channel": 2,
      "note": 34,
      "start": 12.717,
      "duration": 0.0749,
      "velocity": 122,
      "chip": "ym2612"
    },
    {
      "channel": 3,
      "note": 92,
      "start": 12.7175,
      "duration": 0.075,
      "velocity": 104,
      "chip": "ym2612"
    },
    {
      "channel": 4,
      "note": 87,
      "start": 12.718,
      "duration": 0.0749,
      "velocity": 107,
      "chip": "ym2612"
    },
    {
      "channel": 1,
      "note": 53,
      "start": 12.7915,
      "duration": 0.0744,
      "velocity": 47,
      "chip": "ym2612"
    },
    {
      "channel": 2,
      "note": 44,
      "start": 12.792,
      "duration": 0.0744,
      "velocity": 122,
      "chip": "ym2612"
    },
    {
      "channel": 3,
      "note": 87,
      "start": 12.7925,
      "duration": 0.0744,
      "velocity": 104,
      "chip": "ym2612"
    },
    {
      "channel": 4,
      "note": 94,
      "start": 12.7931,
      "duration": 0.0744,
      "velocity": 107,
      "chip": "ym2612"
    },
    {
      "channel": 1,
      "note": 65,
      "start": 12.8661,
      "duration": 0.0743,
      "velocity": 47,
      "chip": "ym2612"
    },
    {
      "channel": 2,
      "note": 46,
      "start": 12.8666,
      "duration": 0.0742,
      "velocity": 122,
      "chip": "ym2612"
    },
    {
      "channel": 3,
      "note": 94,
      "start": 12.8671,
      "duration": 0.0743,
      "velocity": 104,
      "chip": "ym2612"
    },
    {
      "channel": 4,
      "note": 89,
      "start": 12.8677,
      "duration": 0.0742,
      "velocity": 107,
      "chip": "ym2612"
    },
    {
      "channel": 1,
      "note": 60,
      "start": 12.9406,
      "duration": 0.0832,
      "velocity": 47,
      "chip": "ym2612"
    },
    {
      "channel": 2,
      "note": 32,
      "start": 12.9411,
      "duration": 0.0831,
      "velocity": 122,
      "chip": "ym2612"
    },
    {
      "channel": 3,
      "note": 89,
      "start": 12.9416,
      "duration": 0.0832,
      "velocity": 104,
      "chip": "ym2612"
    },
    {
      "channel": 4,
      "note": 92,
      "start": 12.9421,
      "duration": 0.0831,
      "velocity": 107,
      "chip": "ym2612"
    },
    {
      "channel": 5,
      "note": 67,
      "start": 12.9427,
      "duration": 0.0831,
      "velocity": 108,
      "chip": "ym2612"
    },
    {
      "channel": 1,
      "note": 63,
      "start": 13.0239,
      "duration": 0.3797,
      "velocity": 47,
      "chip": "ym2612"
    },
    {
      "channel": 2,
      "note": 34,
      "start": 13.0244,
      "duration": 0.0831,
      "velocity": 122,
      "chip": "ym2612"
    },
    {
      "channel": 3,
      "note": 92,
      "start": 13.0249,
      "duration": 0.0832,
      "velocity": 104,
      "chip": "ym2612"
    },
    {
      "channel": 4,
      "note": 87,
      "start": 13.0254,
      "duration": 0.0831,
      "velocity": 107,
      "chip": "ym2612"
    },
    {
      "channel": 5,
      "note": 67,
      "start": 13.0259,
      "duration": 0.5287,
      "velocity": 108,
      "chip": "ym2612"
    },
    {
      "channel": 0,
      "note": 55,
      "start": 13.1072,
      "duration": 0.0762,
      "velocity": 47,
      "chip": "ym2612"
    },
    {
      "channel": 2,
      "note": 36,
      "start": 13.1078,
      "duration": 0.1488,
      "velocity": 122,
      "chip": "ym2612"
    },
    {
      "channel": 3,
      "note": 87,
      "start": 13.1083,
      "duration": 0.0757,
      "velocity": 104,
      "chip": "ym2612"
    },
    {
      "channel": 4,
      "note": 96,
      "start": 13.1088,
      "duration": 0.0757,
      "velocity": 107,
      "chip": "ym2612"
    },
    {
      "channel": 0,
      "note": 67,
      "start": 13.1835,
      "duration": 0.0725,
      "velocity": 47,
      "chip": "ym2612"
    },
    {
      "channel": 3,
      "note": 96,
      "start": 13.1841,
      "duration": 0.0729,
      "velocity": 104,
      "chip": "ym2612"
    },
    {
      "channel": 4,
      "note": 91,
      "start": 13.1846,
      "duration": 0.0729,
      "velocity": 107,
      "chip": "ym2612"
    },
    {
      "channel": 0,
      "note": 62,
      "start": 13.2561,
      "duration": 0.0723,
      "velocity": 47,
      "chip": "ym2612"
    },
    {
      "channel": 2,
      "note": 48,
      "start": 13.2567,
      "duration": 0.0723,
      "velocity": 122,
      "chip": "ym2612"
    },
    {
      "channel": 3,
      "note": 91,
      "start": 13.2572,
      "duration": 0.0724,
      "velocity": 104,
      "chip": "ym2612"
    },
    {
      "channel": 4,
      "note": 94,
      "start": 13.2577,
      "duration": 0.0723,
      "velocity": 107,
      "chip": "ym2612"
    },
    {
      "channel": 0,
      "note": 65,
      "start": 13.3286,
      "duration": 0.3905,
      "velocity": 47,
      "chip": "ym2612"
    },
    {
      "channel": 2,
      "note": 36,
      "start": 13.3292,
      "duration": 0.0749,
      "velocity": 122,
      "chip": "ym2612"
    },
    {
      "channel": 3,
      "note": 94,
      "start": 13.3297,
      "duration": 0.0749,
      "velocity": 104,
      "chip": "ym2612"
    },
    {
      "channel": 4,
      "note": 89,
      "start": 13.3302,
      "duration": 0.0749,
      "velocity": 107,
      "chip": "ym2612"
    },
    {
      "channel": 1,
      "note": 55,
      "start": 13.4037,
      "duration": 0.0744,
      "velocity": 47,
      "chip": "ym2612"
    },
    {
      "channel": 2,
      "note": 46,
      "start": 13.4042,
      "duration": 0.0744,
      "velocity": 122,
      "chip": "ym2612"
    },
    {
      "channel": 3,
      "note": 89,
      "start": 13.4047,
      "duration": 0.0744,
      "velocity": 104,
      "chip": "ym2612"
    },
    {
      "channel": 4,
      "note": 96,
      "start": 13.4052,
      "duration": 0.0744,
      "velocity": 107,
      "chip": "ym2612"
    },
    {
      "channel": 1,
      "note": 67,
      "start": 13.4783,
      "duration": 0.0743,
      "velocity": 47,
      "chip": "ym2612"
    },
    {
      "channel": 2,
      "note": 48,
      "start": 13.4788,
      "duration": 0.0742,
      "velocity": 122,
      "chip": "ym2612"
    },
    {
      "channel": 3,
      "note": 96,
      "start": 13.4793,
      "duration": 0.0743,
      "velocity": 104,
      "chip": "ym2612"
    },
    {
      "channel": 4,
      "note": 91,
      "start": 13.4798,
      "duration": 0.0742,
      "velocity": 107,
      "chip": "ym2612"
    },
    {
      "channel": 1,
      "note": 62,
      "start": 13.5527,
      "duration": 0.0832,
      "velocity": 47,
      "chip": "ym2612"
    },
    {
      "channel": 2,
      "note": 36,
      "start": 13.5533,
      "duration": 0.0831,
      "velocity": 122,
      "chip": "ym2612"
    },
    {
      "channel": 3,
      "note": 91,
      "start": 13.5538,
      "duration": 0.0832,
      "velocity": 104,
      "chip": "ym2612"
    },
    {
      "channel": 4,
      "note": 94,
      "start": 13.5543,
      "duration": 0.0831,
      "velocity": 107,
      "chip": "ym2612"
    },
    {
      "channel": 5,
      "note": 67,
      "start": 13.5549,
      "duration": 0.636,
      "velocity": 108,
      "chip": "ym2612"
    },
    {
      "channel": 1,
      "note": 65,
      "start": 13.6361,
      "duration": 0.4015,
      "velocity": 47,
      "chip": "ym2612"
    },
    {
      "channel": 2,
      "note": 34,
      "start": 13.6366,
      "duration": 0.0831,
      "velocity": 122,
      "chip": "ym2612"
    },
    {
      "channel": 3,
      "note": 94,
      "start": 13.6371,
      "duration": 0.0832,
      "velocity": 104,
      "chip": "ym2612"
    },
    {
      "channel": 4,
      "note": 89,
      "start": 13.6376,
      "duration": 0.0831,
      "velocity": 107,
      "chip": "ym2612"
    },
    {
      "channel": 0,
      "note": 55,
      "start": 13.7194,
      "duration": 0.0831,
      "velocity": 47,
      "chip": "ym2612"
    },
    {
      "channel": 2,
      "note": 36,
      "start": 13.7199,
      "duration": 0.1665,
      "velocity": 122,
      "chip": "ym2612"
    },
    {
      "channel": 3,
      "note": 89,
      "start": 13.7204,
      "duration": 0.0826,
      "velocity": 104,
      "chip": "ym2612"
    },
    {
      "channel": 4,
      "note": 96,
      "start": 13.721,
      "duration": 0.0826,
      "velocity": 107,
      "chip": "ym2612"
    },
    {
      "channel": 0,
      "note": 67,
      "start": 13.8026,
      "duration": 0.0832,
      "velocity": 47,
      "chip": "ym2612"
    },
    {
      "channel": 3,
      "note": 96,
      "start": 13.8033,
      "duration": 0.0837,
      "velocity": 104,
      "chip": "ym2612"
    },
    {
      "channel": 4,
      "note": 91,
      "start": 13.8038,
      "duration": 0.0837,
      "velocity": 107,
      "chip": "ym2612"
    },
    {
      "channel": 0,
      "note": 62,
      "start": 13.886,
      "duration": 0.0764,
      "velocity": 47,
      "chip": "ym2612"
    },
    {
      "channel": 2,
      "note": 48,
      "start": 13.8865,
      "duration": 0.0765,
      "velocity": 122,
      "chip": "ym2612"
    },
    {
      "channel": 3,
      "note": 91,
      "start": 13.887,
      "duration": 0.0765,
      "velocity": 104,
      "chip": "ym2612"
    },
    {
      "channel": 4,
      "note": 94,
      "start": 13.8876,
      "duration": 0.0765,
      "velocity": 107,
      "chip": "ym2612"
    },
    {
      "channel": 0,
      "note": 65,
      "start": 13.9626,
      "duration": 0.3928,
      "velocity": 47,
      "chip": "ym2612"
    },
    {
      "channel": 2,
      "note": 36,
      "start": 13.9632,
      "duration": 0.0749,
      "velocity": 122,
      "chip": "ym2612"
    },
    {
      "channel": 3,
      "note": 94,
      "start": 13.9637,
      "duration": 0.075,
      "velocity": 104,
      "chip": "ym2612"
    },
    {
      "channel": 4,
      "note": 89,
      "start": 13.9642,
      "duration": 0.0749,
      "velocity": 107,
      "chip": "ym2612"
    },
    {
      "channel": 1,
      "note": 55,
      "start": 14.0377,
      "duration": 0.0766,
      "velocity": 47,
      "chip": "ym2612"
    },
    {
      "channel": 2,
      "note": 46,
      "start": 14.0382,
      "duration": 0.0766,
      "velocity": 122,
      "chip": "ym2612"
    },
    {
      "channel": 3,
      "note": 89,
      "start": 14.0387,
      "duration": 0.0766,
      "velocity": 104,
      "chip": "ym2612"
    },
    {
      "channel": 4,
      "note": 96,
      "start": 14.0393,
      "duration": 0.0766,
      "velocity": 107,
      "chip": "ym2612"
    },
    {
      "channel": 1,
      "note": 67,
      "start": 14.1145,
      "duration": 0.0743,
      "velocity": 47,
      "chip": "ym2612"
    },
    {
      "channel": 2,
      "note": 48,
      "start": 14.115,
      "duration": 0.0742,
      "velocity": 122,
      "chip": "ym2612"
    },
    {
      "channel": 3,
      "note": 96,
      "start": 14.1155,
      "duration": 0.0743,
      "velocity": 104,
      "chip": "ym2612"
    },
    {
      "channel": 4,
      "note": 91,
      "start": 14.116,
      "duration": 0.0742,
      "velocity": 107,
      "chip": "ym2612"
    },
    {
      "channel": 1,
      "note": 62,
      "start": 14.1889,
      "duration": 0.0832,
      "velocity": 47,
      "chip": "ym2612"
    },
    {
      "channel": 2,
      "note": 36,
      "start": 14.1895,
      "duration": 0.0831,
      "velocity": 122,
      "chip": "ym2612"
    },
    {
      "channel": 3,
      "note": 91,
      "start": 14.19,
      "duration": 0.0832,
      "velocity": 104,
      "chip": "ym2612"
    },
    {
      "channel": 4,
      "note": 94,
      "start": 14.1905,
      "duration": 0.0831,
      "velocity": 107,
      "chip": "ym2612"
    },
    {
      "channel": 5,
      "note": 67,
      "start": 14.191,
      "duration": 0.0831,
      "velocity": 108,
      "chip": "ym2612"
    },
    {
      "channel": 1,
      "note": 65,
      "start": 14.2723,
      "duration": 0.388,
      "velocity": 47,
      "chip": "ym2612"
    },
    {
      "channel": 2,
      "note": 34,
      "start": 14.2728,
      "duration": 0.0831,
      "velocity": 122,
      "chip": "ym2612"
    },
    {
      "channel": 3,
      "note": 94,
      "start": 14.2733,
      "duration": 0.0832,
      "velocity": 104,
      "chip": "ym2612"
    },
    {
      "channel": 4,
      "note": 89,
      "start": 14.2738,
      "duration": 0.0832,
      "velocity": 107,
      "chip": "ym2612"
    },
    {
      "channel": 5,
      "note": 67,
      "start": 14.2743,
      "duration": 0.5388,
      "velocity": 108,
      "chip": "ym2612"
    },
    {
      "channel": 0,
      "note": 52,
      "start": 14.3556,
      "duration": 0.0766,
      "velocity": 47,
      "chip": "ym2612"
    },
    {
      "channel": 2,
      "note": 33,
      "start": 14.3561,
      "duration": 0.1513,
      "velocity": 122,
      "chip": "ym2612"
    },
    {
      "channel": 3,
      "note": 89,
      "start": 14.3566,
      "duration": 0.0761,
      "velocity": 104,
      "chip": "ym2612"
    },
    {
      "channel": 4,
      "note": 93,
      "start": 14.3571,
      "duration": 0.0761,
      "velocity": 107,
      "chip": "ym2612"
    },
    {
      "channel": 0,
      "note": 64,
      "start": 14.4323,
      "duration": 0.0745,
      "velocity": 47,
      "chip": "ym2612"
    },
    {
      "channel": 3,
      "note": 93,
      "start": 14.433,
      "duration": 0.075,
      "velocity": 104,
      "chip": "ym2612"
    },
    {
      "channel": 4,
      "note": 88,
      "start": 14.4335,
      "duration": 0.075,
      "velocity": 107,
      "chip": "ym2612"
    },
    {
      "channel": 0,
      "note": 59,
      "start": 14.5071,
      "duration": 0.0785,
      "velocity": 47,
      "chip": "ym2612"
    },
    {
      "channel": 2,
      "note": 45,
      "start": 14.5076,
      "duration": 0.0784,
      "velocity": 122,
      "chip": "ym2612"
    },
    {
      "channel": 3,
      "note": 88,
      "start": 14.5081,
      "duration": 0.0785,
      "velocity": 104,
      "chip": "ym2612"
    },
    {
      "channel": 4,
      "note": 91,
      "start": 14.5086,
      "duration": 0.0784,
      "velocity": 107,
      "chip": "ym2612"
    },
    {
      "channel": 0,
      "note": 62,
      "start": 14.5857,
      "duration": 0.3919,
      "velocity": 47,
      "chip": "ym2612"
    },
    {
      "channel": 2,
      "note": 33,
      "start": 14.5863,
      "duration": 0.0745,
      "velocity": 122,
      "chip": "ym2612"
    },
    {
      "channel": 3,
      "note": 91,
      "start": 14.5868,
      "duration": 0.0745,
      "velocity": 104,
      "chip": "ym2612"
    },
    {
      "channel": 4,
      "note": 86,
      "start": 14.5873,
      "duration": 0.0745,
      "velocity": 107,
      "chip": "ym2612"
    },
    {
      "channel": 1,
      "note": 52,
      "start": 14.6604,
      "duration": 0.0761,
      "velocity": 47,
      "chip": "ym2612"
    },
    {
      "channel": 2,
      "note": 43,
      "start": 14.6609,
      "duration": 0.0761,
      "velocity": 122,
      "chip": "ym2612"
    },
    {
      "channel": 3,
      "note": 86,
      "start": 14.6614,
      "duration": 0.0761,
      "velocity": 104,
      "chip": "ym2612"
    },
    {
      "channel": 4,
      "note": 93,
      "start": 14.662,
      "duration": 0.0761,
      "velocity": 107,
      "chip": "ym2612"
    },
    {
      "channel": 1,
      "note": 64,
      "start": 14.7367,
      "duration": 0.0743,
      "velocity": 47,
      "chip": "ym2612"
    },
    {
      "channel": 2,
      "note": 45,
      "start": 14.7373,
      "duration": 0.0742,
      "velocity": 122,
      "chip": "ym2612"
    },
    {
      "channel": 3,
      "note": 93,
      "start": 14.7378,
      "duration": 0.0743,
      "velocity": 104,
      "chip": "ym2612"
    },
    {
      "channel": 4,
      "note": 88,
      "start": 14.7383,
      "duration": 0.0742,
      "velocity": 107,
      "chip": "ym2612"
    },
    {
      "channel": 1,
      "note": 59,
      "start": 14.8112,
      "duration": 0.0832,
      "velocity": 47,
      "chip": "ym2612"
    },
    {
      "channel": 2,
      "note": 33,
      "start": 14.8117,
      "duration": 0.0831,
      "velocity": 122,
      "chip": "ym2612"
    },
    {
      "channel": 3,
      "note": 88,
      "start": 14.8122,
      "duration": 0.0832,
      "velocity": 104,
      "chip": "ym2612"
    },
    {
      "channel": 4,
      "note": 91,
      "start": 14.8127,
      "duration": 0.0831,
      "velocity": 107,
      "chip": "ym2612"
    },
    {
      "channel": 5,
      "note": 67,
      "start": 14.8133,
      "duration": 0.632,
      "velocity": 108,
      "chip": "ym2612"
    },
    {
      "channel": 1,
      "note": 62,
      "start": 14.8945,
      "duration": 0.3993,
      "velocity": 47,
      "chip": "ym2612"
    },
    {
      "channel": 2,
      "note": 31,
      "start": 14.895,
      "duration": 0.0831,
      "velocity": 122,
      "chip": "ym2612"
    },
    {
      "channel": 3,
      "note": 91,
      "start": 14.8955,
      "duration": 0.0832,
      "velocity": 104,
      "chip": "ym2612"
    },
    {
      "channel": 4,
      "note": 86,
      "start": 14.8961,
      "duration": 0.0831,
      "velocity": 107,
      "chip": "ym2612"
    },
    {
      "channel": 0,
      "note": 52,
      "start": 14.9778,
      "duration": 0.0831,
      "velocity": 47,
      "chip": "ym2612"
    },
    {
      "channel": 2,
      "note": 33,
      "start": 14.9784,
      "duration": 0.1665,
      "velocity": 122,
      "chip": "ym2612"
    },
    {
      "channel": 3,
      "note": 86,
      "start": 14.9789,
      "duration": 0.0826,
      "velocity": 104,
      "chip": "ym2612"
    },
    {
      "channel": 4,
      "note": 93,
      "start": 14.9794,
      "duration": 0.0826,
      "velocity": 107,
      "chip": "ym2612"
    },
    {
      "channel": 0,
      "note": 64,
      "start": 15.0611,
      "duration": 0.0832,
      "velocity": 47,
      "chip": "ym2612"
    },
    {
      "channel": 3,
      "note": 93,
      "start": 15.0617,
      "duration": 0.0837,
      "velocity": 104,
      "chip": "ym2612"
    },
    {
      "channel": 4,
      "note": 88,
      "start": 15.0622,
      "duration": 0.0837,
      "velocity": 107,
      "chip": "ym2612"
    },
    {
      "channel": 0,
      "note": 59,
      "start": 15.1445,
      "duration": 0.0745,
      "velocity": 47,
      "chip": "ym2612"
    },
    {
      "channel": 2,
      "note": 45,
      "start": 15.145,
      "duration": 0.0745,
      "velocity": 122,
      "chip": "ym2612"
    },
    {
      "channel": 3,
      "note": 88,
      "start": 15.1455,
      "duration": 0.0746,
      "velocity": 104,
      "chip": "ym2612"
    },
    {
      "channel": 4,
      "note": 91,
      "start": 15.1461,
      "duration": 0.0745,
      "velocity": 107,
      "chip": "ym2612"
    },
    {
      "channel": 0,
      "note": 62,
      "start": 15.2191,
      "duration": 0.3907,
      "velocity": 47,
      "chip": "ym2612"
    },
    {
      "channel": 2,
      "note": 33,
      "start": 15.2196,
      "duration": 0.0747,
      "velocity": 122,
      "chip": "ym2612"
    },
    {
      "channel": 3,
      "note": 91,
      "start": 15.2201,
      "duration": 0.0747,
      "velocity": 104,
      "chip": "ym2612"
    },
    {
      "channel": 4,
      "note": 86,
      "start": 15.2207,
      "duration": 0.0746,
      "velocity": 107,
      "chip": "ym2612"
    },
    {
      "channel": 1,
      "note": 52,
      "start": 15.294,
      "duration": 0.0743,
      "velocity": 47,
      "chip": "ym2612"
    },
    {
      "channel": 2,
      "note": 43,
      "start": 15.2945,
      "duration": 0.0743,
      "velocity": 122,
      "chip": "ym2612"
    },
    {
      "channel": 3,
      "note": 86,
      "start": 15.295,
      "duration": 0.0743,
      "velocity": 104,
      "chip": "ym2612"
    },
    {
      "channel": 4,
      "note": 93,
      "start": 15.2955,
      "duration": 0.0743,
      "velocity": 107,
      "chip": "ym2612"
    },
    {
      "channel": 1,
      "note": 64,
      "start": 15.3684,
      "duration": 0.0748,
      "velocity": 47,
      "chip": "ym2612"
    },
    {
      "channel": 2,
      "note": 45,
      "start": 15.3689,
      "duration": 0.0747,
      "velocity": 122,
      "chip": "ym2612"
    },
    {
      "channel": 3,
      "note": 93,
      "start": 15.3694,
      "duration": 0.0748,
      "velocity": 104,
      "chip": "ym2612"
    },
    {
      "channel": 4,
      "note": 88,
      "start": 15.37,
      "duration": 0.0748,
      "velocity": 107,
      "chip": "ym2612"
    },
    {
      "channel": 1,
      "note": 59,
      "start": 15.4433,
      "duration": 0.0832,
      "velocity": 47,
      "chip": "ym2612"
    },
    {
      "channel": 2,
      "note": 33,
      "start": 15.4439,
      "duration": 0.0831,
      "velocity": 122,
      "chip": "ym2612"
    },
    {
      "channel": 3,
      "note": 88,
      "start": 15.4444,
      "duration": 0.0832,
      "velocity": 104,
      "chip": "ym2612"
    },
    {
      "channel": 4,
      "note": 91,
      "start": 15.4449,
      "duration": 0.0832,
      "velocity": 107,
      "chip": "ym2612"
    },
    {
      "channel": 5,
      "note": 67,
      "start": 15.4454,
      "duration": 0.0832,
      "velocity": 108,
      "chip": "ym2612"
    },
    {
      "channel": 1,
      "note": 62,
      "start": 15.5267,
      "duration": 0.3774,
      "velocity": 47,
      "chip": "ym2612"
    },
    {
      "channel": 2,
      "note": 31,
      "start": 15.5272,
      "duration": 0.0833,
      "velocity": 122,
      "chip": "ym2612"
    },
    {
      "channel": 3,
      "note": 91,
      "start": 15.5277,
      "duration": 0.0833,
      "velocity": 104,
      "chip": "ym2612"
    },
    {
      "channel": 4,
      "note": 86,
      "start": 15.5282,
      "duration": 0.0834,
      "velocity": 107,
      "chip": "ym2612"
    },
    {
      "channel": 5,
      "note": 67,
      "start": 15.5288,
      "duration": 0.5266,
      "velocity": 108,
      "chip": "ym2612"
    },
    {
      "channel": 0,
      "note": 50,
      "start": 15.61,
      "duration": 0.0765,
      "velocity": 47,
      "chip": "ym2612"
    },
    {
      "channel": 2,
      "note": 38,
      "start": 15.6106,
      "duration": 0.1465,
      "velocity": 122,
      "chip": "ym2612"
    },
    {
      "channel": 3,
      "note": 86,
      "start": 15.6112,
      "duration": 0.0759,
      "velocity": 104,
      "chip": "ym2612"
    },
    {
      "channel": 4,
      "note": 98,
      "start": 15.6117,
      "duration": 0.0759,
      "velocity": 107,
      "chip": "ym2612"
    },
    {
      "channel": 0,
      "note": 62,
      "start": 15.6867,
      "duration": 0.0699,
      "velocity": 47,
      "chip": "ym2612"
    },
    {
      "channel": 3,
      "note": 98,
      "start": 15.6873,
      "duration": 0.0704,
      "velocity": 104,
      "chip": "ym2612"
    },
    {
      "channel": 4,
      "note": 93,
      "start": 15.6878,
      "duration": 0.0704,
      "velocity": 107,
      "chip": "ym2612"
    },
    {
      "channel": 0,
      "note": 57,
      "start": 15.7568,
      "duration": 0.0702,
      "velocity": 47,
      "chip": "ym2612"
    },
    {
      "channel": 2,
      "note": 50,
      "start": 15.7574,
      "duration": 0.0702,
      "velocity": 122,
      "chip": "ym2612"
    },
    {
      "channel": 3,
      "note": 93,
      "start": 15.7579,
      "duration": 0.0703,
      "velocity": 104,
      "chip": "ym2612"
    },
    {
      "channel": 4,
      "note": 96,
      "start": 15.7584,
      "duration": 0.0702,
      "velocity": 107,
      "chip": "ym2612"
    },
    {
      "channel": 0,
      "note": 60,
      "start": 15.8273,
      "duration": 0.3925,
      "velocity": 47,
      "chip": "ym2612"
    },
    {
      "channel": 2,
      "note": 38,
      "start": 15.8278,
      "duration": 0.0768,
      "velocity": 122,
      "chip": "ym2612"
    },
    {
      "channel": 3,
      "note": 96,
      "start": 15.8283,
      "duration": 0.0769,
      "velocity": 104,
      "chip": "ym2612"
    },
    {
      "channel": 4,
      "note": 91,
      "start": 15.8288,
      "duration": 0.0768,
      "velocity": 107,
      "chip": "ym2612"
    },
    {
      "channel": 1,
      "note": 50,
      "start": 15.9043,
      "duration": 0.0742,
      "velocity": 47,
      "chip": "ym2612"
    },
    {
      "channel": 2,
      "note": 48,
      "start": 15.9048,
      "duration": 0.0742,
      "velocity": 122,
      "chip": "ym2612"
    },
    {
      "channel": 3,
      "note": 91,
      "start": 15.9053,
      "duration": 0.0742,
      "velocity": 104,
      "chip": "ym2612"
    },
    {
      "channel": 4,
      "note": 98,
      "start": 15.9058,
      "duration": 0.0742,
      "velocity": 107,
      "chip": "ym2612"
    },
    {
      "channel": 1,
      "note": 62,
      "start": 15.9787,
      "duration": 0.0746,
      "velocity": 47,
      "chip": "ym2612"
    },
    {
      "channel": 2,
      "note": 50,
      "start": 15.9792,
      "duration": 0.0745,
      "velocity": 122,
      "chip": "ym2612"
    },
    {
      "channel": 3,
      "note": 98,
      "start": 15.9797,
      "duration": 0.0746,
      "velocity": 104,
      "chip": "ym2612"
    },
    {
      "channel": 4,
      "note": 93,
      "start": 15.9802,
      "duration": 0.0745,
      "velocity": 107,
      "chip": "ym2612"
    },
    {
      "channel": 1,
      "note": 57,
      "start": 16.0534,
      "duration": 0.0831,
      "velocity": 47,
      "chip": "ym2612"
    },
    {
      "channel": 2,
      "note": 36,
      "start": 16.0539,
      "duration": 0.0831,
      "velocity": 122,
      "chip": "ym2612"
    },
    {
      "channel": 3,
      "note": 93,
      "start": 16.0544,
      "duration": 0.0831,
      "velocity": 104,
      "chip": "ym2612"
    },
    {
      "channel": 4,
      "note": 96,
      "start": 16.0549,
      "duration": 0.0831,
      "velocity": 107,
      "chip": "ym2612"
    },
    {
      "channel": 5,
      "note": 67,
      "start": 16.0555,
      "duration": 0.6379,
      "velocity": 108,
      "chip": "ym2612"
    },
    {
      "channel": 1,
      "note": 60,
      "start": 16.1367,
      "duration": 0.4016,
      "velocity": 47,
      "chip": "ym2612"
    },
    {
      "channel": 2,
      "note": 33,
      "start": 16.1372,
      "duration": 0.0831,
      "velocity": 122,
      "chip": "ym2612"
    },
    {
      "channel": 3,
      "note": 96,
      "start": 16.1377,
      "duration": 0.0832,
      "velocity": 104,
      "chip": "ym2612"
    },
    {
      "channel": 4,
      "note": 91,
      "start": 16.1383,
      "duration": 0.0831,
      "velocity": 107,
      "chip": "ym2612"
    },
    {
      "channel": 0,
      "note": 50,
      "start": 16.22,
      "duration": 0.0831,
      "velocity": 47,
      "chip": "ym2612"
    },
    {
      "channel": 2,
      "note": 38,
      "start": 16.2206,
      "duration": 0.1665,
      "velocity": 122,
      "chip": "ym2612"
    },
    {
      "channel": 3,
      "note": 91,
      "start": 16.2211,
      "duration": 0.0826,
      "velocity": 104,
      "chip": "ym2612"
    },
    {
      "channel": 4,
      "note": 98,
      "start": 16.2216,
      "duration": 0.0826,
      "velocity": 107,
      "chip": "ym2612"
    },
    {
      "channel": 0,
      "note": 62,
      "start": 16.3033,
      "duration": 0.0832,
      "velocity": 47,
      "chip": "ym2612"
    },
    {
      "channel": 3,
      "note": 98,
      "start": 16.3039,
      "duration": 0.0837,
      "velocity": 104,
      "chip": "ym2612"
    },
    {
      "channel": 4,
      "note": 93,
      "start": 16.3044,
      "duration": 0.0837,
      "velocity": 107,
      "chip": "ym2612"
    },
    {
      "channel": 0,
      "note": 57,
      "start": 16.3867,
      "duration": 0.0785,
      "velocity": 47,
      "chip": "ym2612"
    },
    {
      "channel": 2,
      "note": 50,
      "start": 16.3872,
      "duration": 0.0785,
      "velocity": 122,
      "chip": "ym2612"
    },
    {
      "channel": 3,
      "note": 93,
      "start": 16.3877,
      "duration": 0.0786,
      "velocity": 104,
      "chip": "ym2612"
    },
    {
      "channel": 4,
      "note": 96,
      "start": 16.3883,
      "duration": 0.0785,
      "velocity": 107,
      "chip": "ym2612"
    },
    {
      "channel": 0,
      "note": 60,
      "start": 16.4654,
      "duration": 0.3926,
      "velocity": 47,
      "chip": "ym2612"
    },
    {
      "channel": 2,
      "note": 38,
      "start": 16.4659,
      "duration": 0.0729,
      "velocity": 122,
      "chip": "ym2612"
    },
    {
      "channel": 3,
      "note": 96,
      "start": 16.4664,
      "duration": 0.0729,
      "velocity": 104,
      "chip": "ym2612"
    },
    {
      "channel": 4,
      "note": 91,
      "start": 16.467,
      "duration": 0.0728,
      "velocity": 107,
      "chip": "ym2612"
    },
    {
      "channel": 1,
      "note": 50,
      "start": 16.5384,
      "duration": 0.0764,
      "velocity": 47,
      "chip": "ym2612"
    },
    {
      "channel": 2,
      "note": 48,
      "start": 16.539,
      "duration": 0.0764,
      "velocity": 122,
      "chip": "ym2612"
    },
    {
      "channel": 3,
      "note": 91,
      "start": 16.5395,
      "duration": 0.0764,
      "velocity": 104,
      "chip": "ym2612"
    },
    {
      "channel": 4,
      "note": 98,
      "start": 16.54,
      "duration": 0.0764,
      "velocity": 107,
      "chip": "ym2612"
    },
    {
      "channel": 1,
      "note": 62,
      "start": 16.615,
      "duration": 0.0764,
      "velocity": 47,
      "chip": "ym2612"
    },
    {
      "channel": 2,
      "note": 50,
      "start": 16.6155,
      "duration": 0.0763,
      "velocity": 122,
      "chip": "ym2612"
    },
    {
      "channel": 3,
      "note": 98,
      "start": 16.616,
      "duration": 0.0764,
      "velocity": 104,
      "chip": "ym2612"
    },
    {
      "channel": 4,
      "note": 93,
      "start": 16.6165,
      "duration": 0.0763,
      "velocity": 107,
      "chip": "ym2612"
    },
    {
      "channel": 1,
      "note": 57,
      "start": 16.6915,
      "duration": 0.0832,
      "velocity": 47,
      "chip": "ym2612"
    },
    {
      "channel": 2,
      "note": 36,
      "start": 16.692,
      "duration": 0.0831,
      "velocity": 122,
      "chip": "ym2612"
    },
    {
      "channel": 3,
      "note": 93,
      "start": 16.6925,
      "duration": 0.0832,
      "velocity": 104,
      "chip": "ym2612"
    },
    {
      "channel": 4,
      "note": 96,
      "start": 16.693,
      "duration": 0.0831,
      "velocity": 107,
      "chip": "ym2612"
    },
    {
      "channel": 5,
      "note": 67,
      "start": 16.6936,
      "duration": 0.0831,
      "velocity": 108,
      "chip": "ym2612"
    },
    {
      "channel": 1,
      "note": 60,
      "start": 16.7748,
      "duration": 0.3823,
      "velocity": 47,
      "chip": "ym2612"
    },
    {
      "channel": 2,
      "note": 33,
      "start": 16.7753,
      "duration": 0.0832,
      "velocity": 122,
      "chip": "ym2612"
    },
    {
      "channel": 3,
      "note": 96,
      "start": 16.7758,
      "duration": 0.0833,
      "velocity": 104,
      "chip": "ym2612"
    },
    {
      "channel": 4,
      "note": 91,
      "start": 16.7763,
      "duration": 0.0832,
      "velocity": 107,
      "chip": "ym2612"
    },
    {
      "channel": 5,
      "note": 67,
      "start": 16.7768,
      "duration": 0.5354,
      "velocity": 108,
      "chip": "ym2612"
    },
    {
      "channel": 0,
      "note": 53,
      "start": 16.8581,
      "duration": 0.0766,
      "velocity": 47,
      "chip": "ym2612"
    },
    {
      "channel": 2,
      "note": 34,
      "start": 16.8587,
      "duration": 0.1513,
      "velocity": 122,
      "chip": "ym2612"
    },
    {
      "channel": 3,
      "note": 91,
      "start": 16.8592,
      "duration": 0.0761,
      "velocity": 104,
      "chip": "ym2612"
    },
    {
      "channel": 4,
      "note": 94,
      "start": 16.8597,
      "duration": 0.0761,
      "velocity": 107,
      "chip": "ym2612"
    },
    {
      "channel": 0,
      "note": 65,
      "start": 16.9349,
      "duration": 0.0745,
      "velocity": 47,
      "chip": "ym2612"
    },
    {
      "channel": 3,
      "note": 94,
      "start": 16.9355,
      "duration": 0.075,
      "velocity": 104,
      "chip": "ym2612"
    },
    {
      "channel": 4,
      "note": 89,
      "start": 16.936,
      "duration": 0.075,
      "velocity": 107,
      "chip": "ym2612"
    },
    {
      "channel": 0,
      "note": 60,
      "start": 17.0096,
      "duration": 0.0744,
      "velocity": 47,
      "chip": "ym2612"
    },
    {
      "channel": 2,
      "note": 46,
      "start": 17.0102,
      "duration": 0.0744,
      "velocity": 122,
      "chip": "ym2612"
    },
    {
      "channel": 3,
      "note": 89,
      "start": 17.0107,
      "duration": 0.0744,
      "velocity": 104,
      "chip": "ym2612"
    },
    {
      "channel": 4,
      "note": 92,
      "start": 17.0112,
      "duration": 0.0744,
      "velocity": 107,
      "chip": "ym2612"
    },
    {
      "channel": 0,
      "note": 63,
      "start": 17.0842,
      "duration": 0.3925,
      "velocity": 47,
      "chip": "ym2612"
    },
    {
      "channel": 2,
      "note": 34,
      "start": 17.0847,
      "duration": 0.0729,
      "velocity": 122,
      "chip": "ym2612"
    },
    {
      "channel": 3,
      "note": 92,
      "start": 17.0852,
      "duration": 0.0729,
      "velocity": 104,
      "chip": "ym2612"
    },
    {
      "channel": 4,
      "note": 87,
      "start": 17.0858,
      "duration": 0.0728,
      "velocity": 107,
      "chip": "ym2612"
    },
    {
      "channel": 1,
      "note": 53,
      "start": 17.1572,
      "duration": 0.0764,
      "velocity": 47,
      "chip": "ym2612"
    },
    {
      "channel": 2,
      "note": 44,
      "start": 17.1577,
      "duration": 0.0764,
      "velocity": 122,
      "chip": "ym2612"
    },
    {
      "channel": 3,
      "note": 87,
      "start": 17.1582,
      "duration": 0.0764,
      "velocity": 104,
      "chip": "ym2612"
    },
    {
      "channel": 4,
      "note": 94,
      "start": 17.1588,
      "duration": 0.0764,
      "velocity": 107,
      "chip": "ym2612"
    },
    {
      "channel": 1,
      "note": 65,
      "start": 17.2338,
      "duration": 0.0764,
      "velocity": 47,
      "chip": "ym2612"
    },
    {
      "channel": 2,
      "note": 46,
      "start": 17.2343,
      "duration": 0.0763,
      "velocity": 122,
      "chip": "ym2612"
    },
    {
      "channel": 3,
      "note": 94,
      "start": 17.2348,
      "duration": 0.0764,
      "velocity": 104,
      "chip": "ym2612"
    },
    {
      "channel": 4,
      "note": 89,
      "start": 17.2353,
      "duration": 0.0763,
      "velocity": 107,
      "chip": "ym2612"
    },
    {
      "channel": 1,
      "note": 60,
      "start": 17.3102,
      "duration": 0.0832,
      "velocity": 47,
      "chip": "ym2612"
    },
    {
      "channel": 2,
      "note": 32,
      "start": 17.3108,
      "duration": 0.0831,
      "velocity": 122,
      "chip": "ym2612"
    },
    {
      "channel": 3,
      "note": 89,
      "start": 17.3113,
      "duration": 0.0832,
      "velocity": 104,
      "chip": "ym2612"
    },
    {
      "channel": 4,
      "note": 92,
      "start": 17.3118,
      "duration": 0.0831,
      "velocity": 107,
      "chip": "ym2612"
    },
    {
      "channel": 5,
      "note": 67,
      "start": 17.3124,
      "duration": 0.6273,
      "velocity": 108,
      "chip": "ym2612"
    },
    {
      "channel": 1,
      "note": 63,
      "start": 17.3936,
      "duration": 0.4011,
      "velocity": 47,
      "chip": "ym2612"
    },
    {
      "channel": 2,
      "note": 34,
      "start": 17.394,
      "duration": 0.0832,
      "velocity": 122,
      "chip": "ym2612"
    },
    {
      "channel": 3,
      "note": 92,
      "start": 17.3945,
      "duration": 0.0832,
      "velocity": 104,
      "chip": "ym2612"
    },
    {
      "channel": 4,
      "note": 87,
      "start": 17.3951,
      "duration": 0.0831,
      "velocity": 107,
      "chip": "ym2612"
    },
    {
      "channel": 0,
      "note": 53,
      "start": 17.4769,
      "duration": 0.0831,
      "velocity": 47,
      "chip": "ym2612"
    },
    {
      "channel": 2,
      "note": 34,
      "start": 17.4774,
      "duration": 0.1665,
      "velocity": 122,
      "chip": "ym2612"
    },
    {
      "channel": 3,
      "note": 87,
      "start": 17.4779,
      "duration": 0.0827,
      "velocity": 104,
      "chip": "ym2612"
    },
    {
      "channel": 4,
      "note": 94,
      "start": 17.4785,
      "duration": 0.0826,
      "velocity": 107,
      "chip": "ym2612"
    },
    {
      "channel": 0,
      "note": 65,
      "start": 17.5601,
      "duration": 0.0832,
      "velocity": 47,
      "chip": "ym2612"
    },
    {
      "channel": 3,
      "note": 94,
      "start": 17.5608,
      "duration": 0.0837,
      "velocity": 104,
      "chip": "ym2612"
    },
    {
      "channel": 4,
      "note": 89,
      "start": 17.5613,
      "duration": 0.0837,
      "velocity": 107,
      "chip": "ym2612"
    },
    {
      "channel": 0,
      "note": 60,
      "start": 17.6435,
      "duration": 0.0763,
      "velocity": 47,
      "chip": "ym2612"
    },
    {
      "channel": 2,
      "note": 46,
      "start": 17.6441,
      "duration": 0.0763,
      "velocity": 122,
      "chip": "ym2612"
    },
    {
      "channel": 3,
      "note": 89,
      "start": 17.6446,
      "duration": 0.0763,
      "velocity": 104,
      "chip": "ym2612"
    },
    {
      "channel": 4,
      "note": 92,
      "start": 17.6451,
      "duration": 0.0763,
      "velocity": 107,
      "chip": "ym2612"
    },
    {
      "channel": 0,
      "note": 63,
      "start": 17.72,
      "duration": 0.3841,
      "velocity": 47,
      "chip": "ym2612"
    },
    {
      "channel": 2,
      "note": 34,
      "start": 17.7205,
      "duration": 0.0747,
      "velocity": 122,
      "chip": "ym2612"
    },
    {
      "channel": 3,
      "note": 92,
      "start": 17.721,
      "duration": 0.0747,
      "velocity": 104,
      "chip": "ym2612"
    },
    {
      "channel": 4,
      "note": 87,
      "start": 17.7216,
      "duration": 0.0746,
      "velocity": 107,
      "chip": "ym2612"
    },
    {
      "channel": 1,
      "note": 53,
      "start": 17.7949,
      "duration": 0.0722,
      "velocity": 47,
      "chip": "ym2612"
    },
    {
      "channel": 2,
      "note": 44,
      "start": 17.7954,
      "duration": 0.0722,
      "velocity": 122,
      "chip": "ym2612"
    },
    {
      "channel": 3,
      "note": 87,
      "start": 17.7959,
      "duration": 0.0722,
      "velocity": 104,
      "chip": "ym2612"
    },
    {
      "channel": 4,
      "note": 94,
      "start": 17.7964,
      "duration": 0.0722,
      "velocity": 107,
      "chip": "ym2612"
    },
    {
      "channel": 1,
      "note": 65,
      "start": 17.8672,
      "duration": 0.0704,
      "velocity": 47,
      "chip": "ym2612"
    },
    {
      "channel": 2,
      "note": 46,
      "start": 17.8677,
      "duration": 0.0704,
      "velocity": 122,
      "chip": "ym2612"
    },
    {
      "channel": 3,
      "note": 94,
      "start": 17.8682,
      "duration": 0.0704,
      "velocity": 104,
      "chip": "ym2612"
    },
    {
      "channel": 4,
      "note": 89,
      "start": 17.8687,
      "duration": 0.0704,
      "velocity": 107,
      "chip": "ym2612"
    },
    {
      "channel": 1,
      "note": 60,
      "start": 17.9377,
      "duration": 0.0832,
      "velocity": 47,
      "chip": "ym2612"
    },
    {
      "channel": 2,
      "note": 32,
      "start": 17.9382,
      "duration": 0.0831,
      "velocity": 122,
      "chip": "ym2612"
    },
    {
      "channel": 3,
      "note": 89,
      "start": 17.9387,
      "duration": 0.0832,
      "velocity": 104,
      "chip": "ym2612"
    },
    {
      "channel": 4,
      "note": 92,
      "start": 17.9393,
      "duration": 0.0831,
      "velocity": 107,
      "chip": "ym2612"
    },
    {
      "channel": 5,
      "note": 67,
      "start": 17.9398,
      "duration": 0.0831,
      "velocity": 108,
      "chip": "ym2612"
    },
    {
      "channel": 1,
      "note": 63,
      "start": 18.021,
      "duration": 0.3798,
      "velocity": 47,
      "chip": "ym2612"
    },
    {
      "channel": 2,
      "note": 34,
      "start": 18.0216,
      "duration": 0.0831,
      "velocity": 122,
      "chip": "ym2612"
    },
    {
      "channel": 3,
      "note": 92,
      "start": 18.0221,
      "duration": 0.0832,
      "velocity": 104,
      "chip": "ym2612"
    },
    {
      "channel": 4,
      "note": 87,
      "start": 18.0226,
      "duration": 0.0831,
      "velocity": 107,
      "chip": "ym2612"
    },
    {
      "channel": 5,
      "note": 67,
      "start": 18.0231,
      "duration": 0.531,
      "velocity": 108,
      "chip": "ym2612"
    },
    {
      "channel": 0,
      "note": 55,
      "start": 18.1043,
      "duration": 0.0743,
      "velocity": 47,
      "chip": "ym2612"
    },
    {
      "channel": 2,
      "note": 36,
      "start": 18.1049,
      "duration": 0.1468,
      "velocity": 122,
      "chip": "ym2612"
    },
    {
      "channel": 3,
      "note": 87,
      "start": 18.1054,
      "duration": 0.0738,
      "velocity": 104,
      "chip": "ym2612"
    },
    {
      "channel": 4,
      "note": 96,
      "start": 18.1059,
      "duration": 0.0738,
      "velocity": 107,
      "chip": "ym2612"
    },
    {
      "channel": 0,
      "note": 67,
      "start": 18.1788,
      "duration": 0.0724,
      "velocity": 47,
      "chip": "ym2612"
    },
    {
      "channel": 3,
      "note": 96,
      "start": 18.1794,
      "duration": 0.0728,
      "velocity": 104,
      "chip": "ym2612"
    },
    {
      "channel": 4,
      "note": 91,
      "start": 18.1799,
      "duration": 0.0728,
      "velocity": 107,
      "chip": "ym2612"
    },
    {
      "channel": 0,
      "note": 62,
      "start": 18.2512,
      "duration": 0.0744,
      "velocity": 47,
      "chip": "ym2612"
    },
    {
      "channel": 2,
      "note": 48,
      "start": 18.2518,
      "duration": 0.0744,
      "velocity": 122,
      "chip": "ym2612"
    },
    {
      "channel": 3,
      "note": 91,
      "start": 18.2523,
      "duration": 0.0744,
      "velocity": 104,
      "chip": "ym2612"
    },
    {
      "channel": 4,
      "note": 94,
      "start": 18.2528,
      "duration": 0.0744,
      "velocity": 107,
      "chip": "ym2612"
    },
    {
      "channel": 0,
      "note": 65,
      "start": 18.3259,
      "duration": 0.3927,
      "velocity": 47,
      "chip": "ym2612"
    },
    {
      "channel": 2,
      "note": 36,
      "start": 18.3264,
      "duration": 0.0749,
      "velocity": 122,
      "chip": "ym2612"
    },
    {
      "channel": 3,
      "note": 94,
      "start": 18.3269,
      "duration": 0.0749,
      "velocity": 104,
      "chip": "ym2612"
    },
    {
      "channel": 4,
      "note": 89,
      "start": 18.3275,
      "duration": 0.0749,
      "velocity": 107,
      "chip": "ym2612"
    },
    {
      "channel": 1,
      "note": 55,
      "start": 18.4009,
      "duration": 0.0766,
      "velocity": 47,
      "chip": "ym2612"
    },
    {
      "channel": 2,
      "note": 46,
      "start": 18.4014,
      "duration": 0.0766,
      "velocity": 122,
      "chip": "ym2612"
    },
    {
      "channel": 3,
      "note": 89,
      "start": 18.4019,
      "duration": 0.0766,
      "velocity": 104,
      "chip": "ym2612"
    },
    {
      "channel": 4,
      "note": 96,
      "start": 18.4024,
      "duration": 0.0766,
      "velocity": 107,
      "chip": "ym2612"
    },
    {
      "channel": 1,
      "note": 67,
      "start": 18.4777,
      "duration": 0.0743,
      "velocity": 47,
      "chip": "ym2612"
    },
    {
      "channel": 2,
      "note": 48,
      "start": 18.4782,
      "duration": 0.0742,
      "velocity": 122,
      "chip": "ym2612"
    },
    {
      "channel": 3,
      "note": 96,
      "start": 18.4787,
      "duration": 0.0743,
      "velocity": 104,
      "chip": "ym2612"
    },
    {
      "channel": 4,
      "note": 91,
      "start": 18.4792,
      "duration": 0.0742,
      "velocity": 107,
      "chip": "ym2612"
    },
    {
      "channel": 1,
      "note": 62,
      "start": 18.5521,
      "duration": 0.0832,
      "velocity": 47,
      "chip": "ym2612"
    },
    {
      "channel": 2,
      "note": 36,
      "start": 18.5527,
      "duration": 0.0831,
      "velocity": 122,
      "chip": "ym2612"
    },
    {
      "channel": 3,
      "note": 91,
      "start": 18.5532,
      "duration": 0.0832,
      "velocity": 104,
      "chip": "ym2612"
    },
    {
      "channel": 4,
      "note": 94,
      "start": 18.5537,
      "duration": 0.0831,
      "velocity": 107,
      "chip": "ym2612"
    },
    {
      "channel": 5,
      "note": 67,
      "start": 18.5542,
      "duration": 0.6298,
      "velocity": 108,
      "chip": "ym2612"
    },
    {
      "channel": 1,
      "note": 65,
      "start": 18.6355,
      "duration": 0.3993,
      "velocity": 47,
      "chip": "ym2612"
    },
    {
      "channel": 2,
      "note": 34,
      "start": 18.636,
      "duration": 0.0831,
      "velocity": 122,
      "chip": "ym2612"
    },
    {
      "channel": 3,
      "note": 94,
      "start": 18.6365,
      "duration": 0.0832,
      "velocity": 104,
      "chip": "ym2612"
    },
    {
      "channel": 4,
      "note": 89,
      "start": 18.637,
      "duration": 0.0831,
      "velocity": 107,
      "chip": "ym2612"
    },
    {
      "channel": 0,
      "note": 55,
      "start": 18.7188,
      "duration": 0.0831,
      "velocity": 47,
      "chip": "ym2612"
    },
    {
      "channel": 2,
      "note": 36,
      "start": 18.7193,
      "duration": 0.1665,
      "velocity": 122,
      "chip": "ym2612"
    },
    {
      "channel": 3,
      "note": 89,
      "start": 18.7198,
      "duration": 0.0826,
      "velocity": 104,
      "chip": "ym2612"
    },
    {
      "channel": 4,
      "note": 96,
      "start": 18.7203,
      "duration": 0.0826,
      "velocity": 107,
      "chip": "ym2612"
    },
    {
      "channel": 0,
      "note": 67,
      "start": 18.802,
      "duration": 0.0832,
      "velocity": 47,
      "chip": "ym2612"
    },
    {
      "channel": 3,
      "note": 96,
      "start": 18.8027,
      "duration": 0.0837,
      "velocity": 104,
      "chip": "ym2612"
    },
    {
      "channel": 4,
      "note": 91,
      "start": 18.8032,
      "duration": 0.0837,
      "velocity": 107,
      "chip": "ym2612"
    },
    {
      "channel": 0,
      "note": 62,
      "start": 18.8854,
      "duration": 0.0745,
      "velocity": 47,
      "chip": "ym2612"
    },
    {
      "channel": 2,
      "note": 48,
      "start": 18.8859,
      "duration": 0.0745,
      "velocity": 122,
      "chip": "ym2612"
    },
    {
      "channel": 3,
      "note": 91,
      "start": 18.8864,
      "duration": 0.0746,
      "velocity": 104,
      "chip": "ym2612"
    },
    {
      "channel": 4,
      "note": 94,
      "start": 18.887,
      "duration": 0.0745,
      "velocity": 107,
      "chip": "ym2612"
    },
    {
      "channel": 0,
      "note": 65,
      "start": 18.9601,
      "duration": 0.3885,
      "velocity": 47,
      "chip": "ym2612"
    },
    {
      "channel": 2,
      "note": 36,
      "start": 18.9606,
      "duration": 0.0747,
      "velocity": 122,
      "chip": "ym2612"
    },
    {
      "channel": 3,
      "note": 94,
      "start": 18.9611,
      "duration": 0.0747,
      "velocity": 104,
      "chip": "ym2612"
    },
    {
      "channel": 4,
      "note": 89,
      "start": 18.9617,
      "duration": 0.0746,
      "velocity": 107,
      "chip": "ym2612"
    },
    {
      "channel": 1,
      "note": 55,
      "start": 19.0349,
      "duration": 0.0743,
      "velocity": 47,
      "chip": "ym2612"
    },
    {
      "channel": 2,
      "note": 46,
      "start": 19.0355,
      "duration": 0.0743,
      "velocity": 122,
      "chip": "ym2612"
    },
    {
      "channel": 3,
      "note": 89,
      "start": 19.036,
      "duration": 0.0743,
      "velocity": 104,
      "chip": "ym2612"
    },
    {
      "channel": 4,
      "note": 96,
      "start": 19.0365,
      "duration": 0.0743,
      "velocity": 107,
      "chip": "ym2612"
    },
    {
      "channel": 1,
      "note": 67,
      "start": 19.1094,
      "duration": 0.0726,
      "velocity": 47,
      "chip": "ym2612"
    },
    {
      "channel": 2,
      "note": 48,
      "start": 19.1099,
      "duration": 0.0726,
      "velocity": 122,
      "chip": "ym2612"
    },
    {
      "channel": 3,
      "note": 96,
      "start": 19.1104,
      "duration": 0.0726,
      "velocity": 104,
      "chip": "ym2612"
    },
    {
      "channel": 4,
      "note": 91,
      "start": 19.1109,
      "duration": 0.0726,
      "velocity": 107,
      "chip": "ym2612"
    },
    {
      "channel": 1,
      "note": 62,
      "start": 19.1821,
      "duration": 0.0832,
      "velocity": 47,
      "chip": "ym2612"
    },
    {
      "channel": 2,
      "note": 36,
      "start": 19.1826,
      "duration": 0.0831,
      "velocity": 122,
      "chip": "ym2612"
    },
    {
      "channel": 3,
      "note": 91,
      "start": 19.1831,
      "duration": 0.0832,
      "velocity": 104,
      "chip": "ym2612"
    },
    {
      "channel": 4,
      "note": 94,
      "start": 19.1837,
      "duration": 0.0831,
      "velocity": 107,
      "chip": "ym2612"
    },
    {
      "channel": 5,
      "note": 67,
      "start": 19.1842,
      "duration": 0.0831,
      "velocity": 108,
      "chip": "ym2612"
    },
    {
      "channel": 1,
      "note": 65,
      "start": 19.2654,
      "duration": 0.3818,
      "velocity": 47,
      "chip": "ym2612"
    },
    {
      "channel": 2,
      "note": 34,
      "start": 19.2659,
      "duration": 0.0832,
      "velocity": 122,
      "chip": "ym2612"
    },
    {
      "channel": 3,
      "note": 94,
      "start": 19.2664,
      "duration": 0.0832,
      "velocity": 104,
      "chip": "ym2612"
    },
    {
      "channel": 4,
      "note": 89,
      "start": 19.267,
      "duration": 0.0831,
      "velocity": 107,
      "chip": "ym2612"
    },
    {
      "channel": 5,
      "note": 67,
      "start": 19.2675,
      "duration": 0.5309,
      "velocity": 108,
      "chip": "ym2612"
    },
    {
      "channel": 0,
      "note": 52,
      "start": 19.3487,
      "duration": 0.0762,
      "velocity": 47,
      "chip": "ym2612"
    },
    {
      "channel": 2,
      "note": 33,
      "start": 19.3493,
      "duration": 0.1488,
      "velocity": 122,
      "chip": "ym2612"
    },
    {
      "channel": 3,
      "note": 89,
      "start": 19.3498,
      "duration": 0.0757,
      "velocity": 104,
      "chip": "ym2612"
    },
    {
      "channel": 4,
      "note": 93,
      "start": 19.3503,
      "duration": 0.0757,
      "velocity": 107,
      "chip": "ym2612"
    },
    {
      "channel": 0,
      "note": 64,
      "start": 19.4251,
      "duration": 0.0725,
      "velocity": 47,
      "chip": "ym2612"
    },
    {
      "channel": 3,
      "note": 93,
      "start": 19.4257,
      "duration": 0.073,
      "velocity": 104,
      "chip": "ym2612"
    },
    {
      "channel": 4,
      "note": 88,
      "start": 19.4262,
      "duration": 0.073,
      "velocity": 107,
      "chip": "ym2612"
    },
    {
      "channel": 0,
      "note": 59,
      "start": 19.4977,
      "duration": 0.0744,
      "velocity": 47,
      "chip": "ym2612"
    },
    {
      "channel": 2,
      "note": 45,
      "start": 19.4983,
      "duration": 0.0744,
      "velocity": 122,
      "chip": "ym2612"
    },
    {
      "channel": 3,
      "note": 88,
      "start": 19.4988,
      "duration": 0.0744,
      "velocity": 104,
      "chip": "ym2612"
    },
    {
      "channel": 4,
      "note": 91,
      "start": 19.4993,
      "duration": 0.0744,
      "velocity": 107,
      "chip": "ym2612"
    },
    {
      "channel": 0,
      "note": 62,
      "start": 19.5723,
      "duration": 0.3906,
      "velocity": 47,
      "chip": "ym2612"
    },
    {
      "channel": 2,
      "note": 33,
      "start": 19.5728,
      "duration": 0.0749,
      "velocity": 122,
      "chip": "ym2612"
    },
    {
      "channel": 3,
      "note": 91,
      "start": 19.5733,
      "duration": 0.0749,
      "velocity": 104,
      "chip": "ym2612"
    },
    {
      "channel": 4,
      "note": 86,
      "start": 19.5739,
      "duration": 0.0749,
      "velocity": 107,
      "chip": "ym2612"
    },
    {
      "channel": 1,
      "note": 52,
      "start": 19.6473,
      "duration": 0.0704,
      "velocity": 47,
      "chip": "ym2612"
    },
    {
      "channel": 2,
      "note": 43,
      "start": 19.6478,
      "duration": 0.0703,
      "velocity": 122,
      "chip": "ym2612"
    },
    {
      "channel": 3,
      "note": 86,
      "start": 19.6483,
      "duration": 0.0704,
      "velocity": 104,
      "chip": "ym2612"
    },
    {
      "channel": 4,
      "note": 93,
      "start": 19.6489,
      "duration": 0.0704,
      "velocity": 107,
      "chip": "ym2612"
    },
    {
      "channel": 1,
      "note": 64,
      "start": 19.7178,
      "duration": 0.0784,
      "velocity": 47,
      "chip": "ym2612"
    },
    {
      "channel": 2,
      "note": 45,
      "start": 19.7184,
      "duration": 0.0784,
      "velocity": 122,
      "chip": "ym2612"
    },
    {
      "channel": 3,
      "note": 93,
      "start": 19.7189,
      "duration": 0.0785,
      "velocity": 104,
      "chip": "ym2612"
    },
    {
      "channel": 4,
      "note": 88,
      "start": 19.7194,
      "duration": 0.0785,
      "velocity": 107,
      "chip": "ym2612"
    },
    {
      "channel": 1,
      "note": 59,
      "start": 19.7964,
      "duration": 0.0832,
      "velocity": 47,
      "chip": "ym2612"
    },
    {
      "channel": 2,
      "note": 33,
      "start": 19.797,
      "duration": 0.0831,
      "velocity": 122,
      "chip": "ym2612"
    },
    {
      "channel": 3,
      "note": 88,
      "start": 19.7975,
      "duration": 0.0832,
      "velocity": 104,
      "chip": "ym2612"
    },
    {
      "channel": 4,
      "note": 91,
      "start": 19.798,
      "duration": 0.0831,
      "velocity": 107,
      "chip": "ym2612"
    },
    {
      "channel": 5,
      "note": 67,
      "start": 19.7985,
      "duration": 0.6299,
      "velocity": 108,
      "chip": "ym2612"
    },
    {
      "channel": 1,
      "note": 62,
      "start": 19.8798,
      "duration": 0.3993,
      "velocity": 47,
      "chip": "ym2612"
    },
    {
      "channel": 2,
      "note": 31,
      "start": 19.8802,
      "duration": 0.0832,
      "velocity": 122,
      "chip": "ym2612"
    },
    {
      "channel": 3,
      "note": 91,
      "start": 19.8807,
      "duration": 0.0832,
      "velocity": 104,
      "chip": "ym2612"
    },
    {
      "channel": 4,
      "note": 86,
      "start": 19.8813,
      "duration": 0.0831,
      "velocity": 107,
      "chip": "ym2612"
    },
    {
      "channel": 0,
      "note": 52,
      "start": 19.9631,
      "duration": 0.0831,
      "velocity": 47,
      "chip": "ym2612"
    },
    {
      "channel": 2,
      "note": 33,
      "start": 19.9636,
      "duration": 0.1665,
      "velocity": 122,
      "chip": "ym2612"
    },
    {
      "channel": 3,
      "note": 86,
      "start": 19.9641,
      "duration": 0.0827,
      "velocity": 104,
      "chip": "ym2612"
    },
    {
      "channel": 4,
      "note": 93,
      "start": 19.9646,
      "duration": 0.0826,
      "velocity": 107,
      "chip": "ym2612"
    },
    {
      "channel": 0,
      "note": 64,
      "start": 20.0463,
      "duration": 0.0832,
      "velocity": 47,
      "chip": "ym2612"
    },
    {
      "channel": 3,
      "note": 93,
      "start": 20.047,
      "duration": 0.0837,
      "velocity": 104,
      "chip": "ym2612"
    },
    {
      "channel": 4,
      "note": 88,
      "start": 20.0475,
      "duration": 0.0837,
      "velocity": 107,
      "chip": "ym2612"
    },
    {
      "channel": 0,
      "note": 59,
      "start": 20.1297,
      "duration": 0.0745,
      "velocity": 47,
      "chip": "ym2612"
    },
    {
      "channel": 2,
      "note": 45,
      "start": 20.1302,
      "duration": 0.0745,
      "velocity": 122,
      "chip": "ym2612"
    },
    {
      "channel": 3,
      "note": 88,
      "start": 20.1307,
      "duration": 0.0746,
      "velocity": 104,
      "chip": "ym2612"
    },
    {
      "channel": 4,
      "note": 91,
      "start": 20.1313,
      "duration": 0.0745,
      "velocity": 107,
      "chip": "ym2612"
    },
    {
      "channel": 0,
      "note": 62,
      "start": 20.2044,
      "duration": 0.3886,
      "velocity": 47,
      "chip": "ym2612"
    },
    {
      "channel": 2,
      "note": 33,
      "start": 20.2049,
      "duration": 0.0747,
      "velocity": 122,
      "chip": "ym2612"
    },
    {
      "channel": 3,
      "note": 91,
      "start": 20.2054,
      "duration": 0.0747,
      "velocity": 104,
      "chip": "ym2612"
    },
    {
      "channel": 4,
      "note": 86,
      "start": 20.206,
      "duration": 0.0746,
      "velocity": 107,
      "chip": "ym2612"
    },
    {
      "channel": 1,
      "note": 52,
      "start": 20.2793,
      "duration": 0.0722,
      "velocity": 47,
      "chip": "ym2612"
    },
    {
      "channel": 2,
      "note": 43,
      "start": 20.2798,
      "duration": 0.0722,
      "velocity": 122,
      "chip": "ym2612"
    },
    {
      "channel": 3,
      "note": 86,
      "start": 20.2803,
      "duration": 0.0722,
      "velocity": 104,
      "chip": "ym2612"
    },
    {
      "channel": 4,
      "note": 93,
      "start": 20.2808,
      "duration": 0.0722,
      "velocity": 107,
      "chip": "ym2612"
    },
    {
      "channel": 1,
      "note": 64,
      "start": 20.3516,
      "duration": 0.0748,
      "velocity": 47,
      "chip": "ym2612"
    },
    {
      "channel": 2,
      "note": 45,
      "start": 20.3521,
      "duration": 0.0747,
      "velocity": 122,
      "chip": "ym2612"
    },
    {
      "channel": 3,
      "note": 93,
      "start": 20.3526,
      "duration": 0.0748,
      "velocity": 104,
      "chip": "ym2612"
    },
    {
      "channel": 4,
      "note": 88,
      "start": 20.3531,
      "duration": 0.0748,
      "velocity": 107,
      "chip": "ym2612"
    },
    {
      "channel": 1,
      "note": 59,
      "start": 20.4265,
      "duration": 0.0832,
      "velocity": 47,
      "chip": "ym2612"
    },
    {
      "channel": 2,
      "note": 33,
      "start": 20.427,
      "duration": 0.0832,
      "velocity": 122,
      "chip": "ym2612"
    },
    {
      "channel": 3,
      "note": 88,
      "start": 20.4275,
      "duration": 0.0832,
      "velocity": 104,
      "chip": "ym2612"
    },
    {
      "channel": 4,
      "note": 91,
      "start": 20.428,
      "duration": 0.0832,
      "velocity": 107,
      "chip": "ym2612"
    },
    {
      "channel": 5,
      "note": 67,
      "start": 20.4286,
      "duration": 0.0832,
      "velocity": 108,
      "chip": "ym2612"
    },
    {
      "channel": 1,
      "note": 62,
      "start": 20.5098,
      "duration": 0.3814,
      "velocity": 47,
      "chip": "ym2612"
    },
    {
      "channel": 2,
      "note": 31,
      "start": 20.5103,
      "duration": 0.0832,
      "velocity": 122,
      "chip": "ym2612"
    },
    {
      "channel": 3,
      "note": 91,
      "start": 20.5108,
      "duration": 0.0833,
      "velocity": 104,
      "chip": "ym2612"
    },
    {
      "channel": 4,
      "note": 86,
      "start": 20.5114,
      "duration": 0.0833,
      "velocity": 107,
      "chip": "ym2612"
    },
    {
      "channel": 5,
      "note": 67,
      "start": 20.5119,
      "duration": 0.5307,
      "velocity": 108,
      "chip": "ym2612"
    },
    {
      "channel": 0,
      "note": 52,
      "start": 20.5932,
      "duration": 0.0742,
      "velocity": 47,
      "chip": "ym2612"
    },
    {
      "channel": 2,
      "note": 40,
      "start": 20.5937,
      "duration": 0.1465,
      "velocity": 122,
      "chip": "ym2612"
    },
    {
      "channel": 3,
      "note": 88,
      "start": 20.5943,
      "duration": 0.0737,
      "velocity": 104,
      "chip": "ym2612"
    },
    {
      "channel": 4,
      "note": 100,
      "start": 20.5948,
      "duration": 0.0737,
      "velocity": 107,
      "chip": "ym2612"
    },
    {
      "channel": 0,
      "note": 64,
      "start": 20.6676,
      "duration": 0.0722,
      "velocity": 47,
      "chip": "ym2612"
    },
    {
      "channel": 3,
      "note": 100,
      "start": 20.6682,
      "duration": 0.0726,
      "velocity": 104,
      "chip": "ym2612"
    },
    {
      "channel": 4,
      "note": 95,
      "start": 20.6687,
      "duration": 0.0726,
      "velocity": 107,
      "chip": "ym2612"
    },
    {
      "channel": 0,
      "note": 59,
      "start": 20.7399,
      "duration": 0.0765,
      "velocity": 47,
      "chip": "ym2612"
    },
    {
      "channel": 2,
      "note": 52,
      "start": 20.7404,
      "duration": 0.0764,
      "velocity": 122,
      "chip": "ym2612"
    },
    {
      "channel": 3,
      "note": 95,
      "start": 20.7409,
      "duration": 0.0765,
      "velocity": 104,
      "chip": "ym2612"
    },
    {
      "channel": 4,
      "note": 98,
      "start": 20.7415,
      "duration": 0.0765,
      "velocity": 107,
      "chip": "ym2612"
    },
    {
      "channel": 0,
      "note": 62,
      "start": 20.8165,
      "duration": 0.3907,
      "velocity": 47,
      "chip": "ym2612"
    },
    {
      "channel": 2,
      "note": 40,
      "start": 20.817,
      "duration": 0.0747,
      "velocity": 122,
      "chip": "ym2612"
    },
    {
      "channel": 3,
      "note": 98,
      "start": 20.8175,
      "duration": 0.0747,
      "velocity": 104,
      "chip": "ym2612"
    },
    {
      "channel": 4,
      "note": 93,
      "start": 20.818,
      "duration": 0.0747,
      "velocity": 107,
      "chip": "ym2612"
    },
    {
      "channel": 1,
      "note": 52,
      "start": 20.8914,
      "duration": 0.0743,
      "velocity": 47,
      "chip": "ym2612"
    },
    {
      "channel": 2,
      "note": 50,
      "start": 20.8919,
      "duration": 0.0742,
      "velocity": 122,
      "chip": "ym2612"
    },
    {
      "channel": 3,
      "note": 93,
      "start": 20.8924,
      "duration": 0.0743,
      "velocity": 104,
      "chip": "ym2612"
    },
    {
      "channel": 4,
      "note": 100,
      "start": 20.8929,
      "duration": 0.0742,
      "velocity": 107,
      "chip": "ym2612"
    },
    {
      "channel": 1,
      "note": 64,
      "start": 20.9658,
      "duration": 0.0748,
      "velocity": 47,
      "chip": "ym2612"
    },
    {
      "channel": 2,
      "note": 52,
      "start": 20.9663,
      "duration": 0.0747,
      "velocity": 122,
      "chip": "ym2612"
    },
    {
      "channel": 3,
      "note": 100,
      "start": 20.9668,
      "duration": 0.0748,
      "velocity": 104,
      "chip": "ym2612"
    },
    {
      "channel": 4,
      "note": 95,
      "start": 20.9673,
      "duration": 0.0748,
      "velocity": 107,
      "chip": "ym2612"
    },
    {
      "channel": 1,
      "note": 59,
      "start": 21.0407,
      "duration": 0.0832,
      "velocity": 47,
      "chip": "ym2612"
    },
    {
      "channel": 2,
      "note": 38,
      "start": 21.0412,
      "duration": 0.0831,
      "velocity": 122,
      "chip": "ym2612"
    },
    {
      "channel": 3,
      "note": 95,
      "start": 21.0417,
      "duration": 0.0832,
      "velocity": 104,
      "chip": "ym2612"
    },
    {
      "channel": 4,
      "note": 98,
      "start": 21.0422,
      "duration": 0.0831,
      "velocity": 107,
      "chip": "ym2612"
    },
    {
      "channel": 5,
      "note": 67,
      "start": 21.0428,
      "duration": 0.6378,
      "velocity": 108,
      "chip": "ym2612"
    },
    {
      "channel": 1,
      "note": 62,
      "start": 21.124,
      "duration": 0.4016,
      "velocity": 47,
      "chip": "ym2612"
    },
    {
      "channel": 2,
      "note": 35,
      "start": 21.1245,
      "duration": 0.0832,
      "velocity": 122,
      "chip": "ym2612"
    },
    {
      "channel": 3,
      "note": 98,
      "start": 21.125,
      "duration": 0.0832,
      "velocity": 104,
      "chip": "ym2612"
    },
    {
      "channel": 4,
      "note": 93,
      "start": 21.1255,
      "duration": 0.0832,
      "velocity": 107,
      "chip": "ym2612"
    },
    {
      "channel": 0,
      "note": 52,
      "start": 21.2073,
      "duration": 0.0831,
      "velocity": 47,
      "chip": "ym2612"
    },
    {
      "channel": 2,
      "note": 40,
      "start": 21.2079,
      "duration": 0.1665,
      "velocity": 122,
      "chip": "ym2612"
    },
    {
      "channel": 3,
      "note": 93,
      "start": 21.2084,
      "duration": 0.0826,
      "velocity": 104,
      "chip": "ym2612"
    },
    {
      "channel": 4,
      "note": 100,
      "start": 21.2089,
      "duration": 0.0826,
      "velocity": 107,
      "chip": "ym2612"
    },
    {
      "channel": 0,
      "note": 64,
      "start": 21.2906,
      "duration": 0.0832,
      "velocity": 47,
      "chip": "ym2612"
    },
    {
      "channel": 3,
      "note": 100,
      "start": 21.2912,
      "duration": 0.0837,
      "velocity": 104,
      "chip": "ym2612"
    },
    {
      "channel": 4,
      "note": 95,
      "start": 21.2917,
      "duration": 0.0837,
      "velocity": 107,
      "chip": "ym2612"
    },
    {
      "channel": 0,
      "note": 59,
      "start": 21.374,
      "duration": 0.0785,
      "velocity": 47,
      "chip": "ym2612"
    },
    {
      "channel": 2,
      "note": 52,
      "start": 21.3746,
      "duration": 0.0785,
      "velocity": 122,
      "chip": "ym2612"
    },
    {
      "channel": 3,
      "note": 95,
      "start": 21.3751,
      "duration": 0.0785,
      "velocity": 104,
      "chip": "ym2612"
    },
    {
      "channel": 4,
      "note": 98,
      "start": 21.3756,
      "duration": 0.0785,
      "velocity": 107,
      "chip": "ym2612"
    },
    {
      "channel": 0,
      "note": 62,
      "start": 21.4527,
      "duration": 0.3925,
      "velocity": 47,
      "chip": "ym2612"
    },
    {
      "channel": 2,
      "note": 40,
      "start": 21.4532,
      "duration": 0.0729,
      "velocity": 122,
      "chip": "ym2612"
    },
    {
      "channel": 3,
      "note": 98,
      "start": 21.4537,
      "duration": 0.0729,
      "velocity": 104,
      "chip": "ym2612"
    },
    {
      "channel": 4,
      "note": 93,
      "start": 21.4543,
      "duration": 0.0728,
      "velocity": 107,
      "chip": "ym2612"
    },
    {
      "channel": 1,
      "note": 52,
      "start": 21.5257,
      "duration": 0.0763,
      "velocity": 47,
      "chip": "ym2612"
    },
    {
      "channel": 2,
      "note": 50,
      "start": 21.5262,
      "duration": 0.0763,
      "velocity": 122,
      "chip": "ym2612"
    },
    {
      "channel": 3,
      "note": 93,
      "start": 21.5267,
      "duration": 0.0763,
      "velocity": 104,
      "chip": "ym2612"
    },
    {
      "channel": 4,
      "note": 100,
      "start": 21.5273,
      "duration": 0.0763,
      "velocity": 107,
      "chip": "ym2612"
    },
    {
      "channel": 1,
      "note": 64,
      "start": 21.6022,
      "duration": 0.0764,
      "velocity": 47,
      "chip": "ym2612"
    },
    {
      "channel": 2,
      "note": 52,
      "start": 21.6027,
      "duration": 0.0763,
      "velocity": 122,
      "chip": "ym2612"
    },
    {
      "channel": 3,
      "note": 100,
      "start": 21.6032,
      "duration": 0.0764,
      "velocity": 104,
      "chip": "ym2612"
    },
    {
      "channel": 4,
      "note": 95,
      "start": 21.6037,
      "duration": 0.0764,
      "velocity": 107,
      "chip": "ym2612"
    },
    {
      "channel": 1,
      "note": 59,
      "start": 21.6787,
      "duration": 0.0832,
      "velocity": 47,
      "chip": "ym2612"
    },
    {
      "channel": 2,
      "note": 38,
      "start": 21.6792,
      "duration": 0.0831,
      "velocity": 122,
      "chip": "ym2612"
    },
    {
      "channel": 3,
      "note": 95,
      "start": 21.6797,
      "duration": 0.0832,
      "velocity": 104,
      "chip": "ym2612"
    },
    {
      "channel": 4,
      "note": 98,
      "start": 21.6802,
      "duration": 0.0831,
      "velocity": 107,
      "chip": "ym2612"
    },
    {
      "channel": 5,
      "note": 67,
      "start": 21.6808,
      "duration": 0.0831,
      "velocity": 108,
      "chip": "ym2612"
    },
    {
      "channel": 1,
      "note": 62,
      "start": 21.762,
      "duration": 0.378,
      "velocity": 47,
      "chip": "ym2612"
    },
    {
      "channel": 2,
      "note": 35,
      "start": 21.7625,
      "duration": 0.0832,
      "velocity": 122,
      "chip": "ym2612"
    },
    {
      "channel": 3,
      "note": 98,
      "start": 21.763,
      "duration": 0.0833,
      "velocity": 104,
      "chip": "ym2612"
    },
    {
      "channel": 4,
      "note": 93,
      "start": 21.7636,
      "duration": 0.0832,
      "velocity": 107,
      "chip": "ym2612"
    },
    {
      "channel": 5,
      "note": 67,
      "start": 21.7641,
      "duration": 0.5311,
      "velocity": 108,
      "chip": "ym2612"
    },
    {
      "channel": 0,
      "note": 55,
      "start": 21.8453,
      "duration": 0.0766,
      "velocity": 47,
      "chip": "ym2612"
    },
    {
      "channel": 2,
      "note": 36,
      "start": 21.8459,
      "duration": 0.1493,
      "velocity": 122,
      "chip": "ym2612"
    },
    {
      "channel": 3,
      "note": 93,
      "start": 21.8464,
      "duration": 0.0761,
      "velocity": 104,
      "chip": "ym2612"
    },
    {
      "channel": 4,
      "note": 96,
      "start": 21.8469,
      "duration": 0.0761,
      "velocity": 107,
      "chip": "ym2612"
    },
    {
      "channel": 0,
      "note": 67,
      "start": 21.9221,
      "duration": 0.0725,
      "velocity": 47,
      "chip": "ym2612"
    },
    {
      "channel": 3,
      "note": 96,
      "start": 21.9227,
      "duration": 0.0729,
      "velocity": 104,
      "chip": "ym2612"
    },
    {
      "channel": 4,
      "note": 91,
      "start": 21.9232,
      "duration": 0.0729,
      "velocity": 107,
      "chip": "ym2612"
    },
    {
      "channel": 0,
      "note": 62,
      "start": 21.9947,
      "duration": 0.0723,
      "velocity": 47,
      "chip": "ym2612"
    },
    {
      "channel": 2,
      "note": 48,
      "start": 21.9953,
      "duration": 0.0723,
      "velocity": 122,
      "chip": "ym2612"
    },
    {
      "channel": 3,
      "note": 91,
      "start": 21.9958,
      "duration": 0.0723,
      "velocity": 104,
      "chip": "ym2612"
    },
    {
      "channel": 4,
      "note": 94,
      "start": 21.9963,
      "duration": 0.0723,
      "velocity": 107,
      "chip": "ym2612"
    },
    {
      "channel": 0,
      "note": 65,
      "start": 22.0672,
      "duration": 0.3924,
      "velocity": 47,
      "chip": "ym2612"
    },
    {
      "channel": 2,
      "note": 36,
      "start": 22.0677,
      "duration": 0.0729,
      "velocity": 122,
      "chip": "ym2612"
    },
    {
      "channel": 3,
      "note": 94,
      "start": 22.0682,
      "duration": 0.0729,
      "velocity": 104,
      "chip": "ym2612"
    },
    {
      "channel": 4,
      "note": 89,
      "start": 22.0688,
      "duration": 0.0728,
      "velocity": 107,
      "chip": "ym2612"
    },
    {
      "channel": 1,
      "note": 55,
      "start": 22.1402,
      "duration": 0.0763,
      "velocity": 47,
      "chip": "ym2612"
    },
    {
      "channel": 2,
      "note": 46,
      "start": 22.1407,
      "duration": 0.0763,
      "velocity": 122,
      "chip": "ym2612"
    },
    {
      "channel": 3,
      "note": 89,
      "start": 22.1412,
      "duration": 0.0763,
      "velocity": 104,
      "chip": "ym2612"
    },
    {
      "channel": 4,
      "note": 96,
      "start": 22.1417,
      "duration": 0.0763,
      "velocity": 107,
      "chip": "ym2612"
    },
    {
      "channel": 1,
      "note": 67,
      "start": 22.2166,
      "duration": 0.0764,
      "velocity": 47,
      "chip": "ym2612"
    },
    {
      "channel": 2,
      "note": 48,
      "start": 22.2171,
      "duration": 0.0763,
      "velocity": 122,
      "chip": "ym2612"
    },
    {
      "channel": 3,
      "note": 96,
      "start": 22.2176,
      "duration": 0.0764,
      "velocity": 104,
      "chip": "ym2612"
    },
    {
      "channel": 4,
      "note": 91,
      "start": 22.2182,
      "duration": 0.0764,
      "velocity": 107,
      "chip": "ym2612"
    },
    {
      "channel": 1,
      "note": 62,
      "start": 22.2932,
      "duration": 0.0832,
      "velocity": 47,
      "chip": "ym2612"
    },
    {
      "channel": 2,
      "note": 34,
      "start": 22.2937,
      "duration": 0.0831,
      "velocity": 122,
      "chip": "ym2612"
    },
    {
      "channel": 3,
      "note": 91,
      "start": 22.2942,
      "duration": 0.0832,
      "velocity": 104,
      "chip": "ym2612"
    },
    {
      "channel": 4,
      "note": 94,
      "start": 22.2947,
      "duration": 0.0831,
      "velocity": 107,
      "chip": "ym2612"
    },
    {
      "channel": 5,
      "note": 67,
      "start": 22.2953,
      "duration": 0.638,
      "velocity": 108,
      "chip": "ym2612"
    },
    {
      "channel": 1,
      "note": 65,
      "start": 22.3764,
      "duration": 0.4017,
      "velocity": 47,
      "chip": "ym2612"
    },
    {
      "channel": 2,
      "note": 36,
      "start": 22.3769,
      "duration": 0.0832,
      "velocity": 122,
      "chip": "ym2612"
    },
    {
      "channel": 3,
      "note": 94,
      "start": 22.3774,
      "duration": 0.0832,
      "velocity": 104,
      "chip": "ym2612"
    },
    {
      "channel": 4,
      "note": 89,
      "start": 22.378,
      "duration": 0.0832,
      "velocity": 107,
      "chip": "ym2612"
    },
    {
      "channel": 0,
      "note": 55,
      "start": 22.4598,
      "duration": 0.0831,
      "velocity": 47,
      "chip": "ym2612"
    },
    {
      "channel": 2,
      "note": 36,
      "start": 22.4603,
      "duration": 0.1665,
      "velocity": 122,
      "chip": "ym2612"
    },
    {
      "channel": 3,
      "note": 89,
      "start": 22.4608,
      "duration": 0.0827,
      "velocity": 104,
      "chip": "ym2612"
    },
    {
      "channel": 4,
      "note": 96,
      "start": 22.4614,
      "duration": 0.0826,
      "velocity": 107,
      "chip": "ym2612"
    },
    {
      "channel": 0,
      "note": 67,
      "start": 22.543,
      "duration": 0.0832,
      "velocity": 47,
      "chip": "ym2612"
    },
    {
      "channel": 3,
      "note": 96,
      "start": 22.5437,
      "duration": 0.0837,
      "velocity": 104,
      "chip": "ym2612"
    },
    {
      "channel": 4,
      "note": 91,
      "start": 22.5442,
      "duration": 0.0837,
      "velocity": 107,
      "chip": "ym2612"
    },
    {
      "channel": 0,
      "note": 62,
      "start": 22.6264,
      "duration": 0.0785,
      "velocity": 47,
      "chip": "ym2612"
    },
    {
      "channel": 2,
      "note": 48,
      "start": 22.627,
      "duration": 0.0785,
      "velocity": 122,
      "chip": "ym2612"
    },
    {
      "channel": 3,
      "note": 91,
      "start": 22.6275,
      "duration": 0.0786,
      "velocity": 104,
      "chip": "ym2612"
    },
    {
      "channel": 4,
      "note": 94,
      "start": 22.628,
      "duration": 0.0785,
      "velocity": 107,
      "chip": "ym2612"
    },
    {
      "channel": 0,
      "note": 65,
      "start": 22.7052,
      "duration": 0.3926,
      "velocity": 47,
      "chip": "ym2612"
    },
    {
      "channel": 2,
      "note": 36,
      "start": 22.7057,
      "duration": 0.0729,
      "velocity": 122,
      "chip": "ym2612"
    },
    {
      "channel": 3,
      "note": 94,
      "start": 22.7062,
      "duration": 0.0729,
      "velocity": 104,
      "chip": "ym2612"
    },
    {
      "channel": 4,
      "note": 89,
      "start": 22.7068,
      "duration": 0.0728,
      "velocity": 107,
      "chip": "ym2612"
    },
    {
      "channel": 1,
      "note": 55,
      "start": 22.7782,
      "duration": 0.0764,
      "velocity": 47,
      "chip": "ym2612"
    },
    {
      "channel": 2,
      "note": 46,
      "start": 22.7787,
      "duration": 0.0764,
      "velocity": 122,
      "chip": "ym2612"
    },
    {
      "channel": 3,
      "note": 89,
      "start": 22.7792,
      "duration": 0.0764,
      "velocity": 104,
      "chip": "ym2612"
    },
    {
      "channel": 4,
      "note": 96,
      "start": 22.7798,
      "duration": 0.0764,
      "velocity": 107,
      "chip": "ym2612"
    },
    {
      "channel": 1,
      "note": 67,
      "start": 22.8548,
      "duration": 0.0764,
      "velocity": 47,
      "chip": "ym2612"
    },
    {
      "channel": 2,
      "note": 48,
      "start": 22.8553,
      "duration": 0.0763,
      "velocity": 122,
      "chip": "ym2612"
    },
    {
      "channel": 3,
      "note": 96,
      "start": 22.8558,
      "duration": 0.0764,
      "velocity": 104,
      "chip": "ym2612"
    },
    {
      "channel": 4,
      "note": 91,
      "start": 22.8563,
      "duration": 0.0763,
      "velocity": 107,
      "chip": "ym2612"
    },
    {
      "channel": 1,
      "note": 62,
      "start": 22.9312,
      "duration": 0.0832,
      "velocity": 47,
      "chip": "ym2612"
    },
    {
      "channel": 2,
      "note": 34,
      "start": 22.9318,
      "duration": 0.0831,
      "velocity": 122,
      "chip": "ym2612"
    },
    {
      "channel": 3,
      "note": 91,
      "start": 22.9323,
      "duration": 0.0832,
      "velocity": 104,
      "chip": "ym2612"
    },
    {
      "channel": 4,
      "note": 94,
      "start": 22.9328,
      "duration": 0.0831,
      "velocity": 107,
      "chip": "ym2612"
    },
    {
      "channel": 5,
      "note": 67,
      "start": 22.9334,
      "duration": 0.0831,
      "velocity": 108,
      "chip": "ym2612"
    },
    {
      "channel": 1,
      "note": 65,
      "start": 23.0146,
      "duration": 0.3823,
      "velocity": 47,
      "chip": "ym2612"
    },
    {
      "channel": 2,
      "note": 36,
      "start": 23.015,
      "duration": 0.0832,
      "velocity": 122,
      "chip": "ym2612"
    },
    {
      "channel": 3,
      "note": 94,
      "start": 23.0155,
      "duration": 0.0833,
      "velocity": 104,
      "chip": "ym2612"
    },
    {
      "channel": 4,
      "note": 89,
      "start": 23.0161,
      "duration": 0.0832,
      "velocity": 107,
      "chip": "ym2612"
    },
    {
      "channel": 5,
      "note": 67,
      "start": 23.0166,
      "duration": 0.5354,
      "velocity": 108,
      "chip": "ym2612"
    },
    {
      "channel": 0,
      "note": 57,
      "start": 23.0979,
      "duration": 0.0766,
      "velocity": 47,
      "chip": "ym2612"
    },
    {
      "channel": 2,
      "note": 38,
      "start": 23.0984,
      "duration": 0.1513,
      "velocity": 122,
      "chip": "ym2612"
    },
    {
      "channel": 3,
      "note": 89,
      "start": 23.0989,
      "duration": 0.0761,
      "velocity": 104,
      "chip": "ym2612"
    },
    {
      "channel": 4,
      "note": 98,
      "start": 23.0995,
      "duration": 0.0761,
      "velocity": 107,
      "chip": "ym2612"
    },
    {
      "channel": 0,
      "note": 69,
      "start": 23.1746,
      "duration": 0.0745,
      "velocity": 47,
      "chip": "ym2612"
    },
    {
      "channel": 3,
      "note": 98,
      "start": 23.1753,
      "duration": 0.075,
      "velocity": 104,
      "chip": "ym2612"
    },
    {
      "channel": 4,
      "note": 93,
      "start": 23.1758,
      "duration": 0.075,
      "velocity": 107,
      "chip": "ym2612"
    },
    {
      "channel": 0,
      "note": 64,
      "start": 23.2494,
      "duration": 0.0744,
      "velocity": 47,
      "chip": "ym2612"
    },
    {
      "channel": 2,
      "note": 50,
      "start": 23.2499,
      "duration": 0.0744,
      "velocity": 122,
      "chip": "ym2612"
    },
    {
      "channel": 3,
      "note": 93,
      "start": 23.2504,
      "duration": 0.0744,
      "velocity": 104,
      "chip": "ym2612"
    },
    {
      "channel": 4,
      "note": 96,
      "start": 23.251,
      "duration": 0.0744,
      "velocity": 107,
      "chip": "ym2612"
    },
    {
      "channel": 0,
      "note": 67,
      "start": 23.324,
      "duration": 0.3925,
      "velocity": 47,
      "chip": "ym2612"
    },
    {
      "channel": 2,
      "note": 38,
      "start": 23.3245,
      "duration": 0.0729,
      "velocity": 122,
      "chip": "ym2612"
    },
    {
      "channel": 3,
      "note": 96,
      "start": 23.325,
      "duration": 0.0729,
      "velocity": 104,
      "chip": "ym2612"
    },
    {
      "channel": 4,
      "note": 91,
      "start": 23.3256,
      "duration": 0.0728,
      "velocity": 107,
      "chip": "ym2612"
    },
    {
      "channel": 1,
      "note": 57,
      "start": 23.397,
      "duration": 0.0764,
      "velocity": 47,
      "chip": "ym2612"
    },
    {
      "channel": 2,
      "note": 48,
      "start": 23.3975,
      "duration": 0.0764,
      "velocity": 122,
      "chip": "ym2612"
    },
    {
      "channel": 3,
      "note": 91,
      "start": 23.398,
      "duration": 0.0764,
      "velocity": 104,
      "chip": "ym2612"
    },
    {
      "channel": 4,
      "note": 98,
      "start": 23.3985,
      "duration": 0.0764,
      "velocity": 107,
      "chip": "ym2612"
    },
    {
      "channel": 1,
      "note": 69,
      "start": 23.4735,
      "duration": 0.0764,
      "velocity": 47,
      "chip": "ym2612"
    },
    {
      "channel": 2,
      "note": 50,
      "start": 23.4741,
      "duration": 0.0763,
      "velocity": 122,
      "chip": "ym2612"
    },
    {
      "channel": 3,
      "note": 98,
      "start": 23.4746,
      "duration": 0.0764,
      "velocity": 104,
      "chip": "ym2612"
    },
    {
      "channel": 4,
      "note": 93,
      "start": 23.4751,
      "duration": 0.0763,
      "velocity": 107,
      "chip": "ym2612"
    },
    {
      "channel": 1,
      "note": 64,
      "start": 23.55,
      "duration": 0.0832,
      "velocity": 47,
      "chip": "ym2612"
    },
    {
      "channel": 2,
      "note": 38,
      "start": 23.5505,
      "duration": 0.0831,
      "velocity": 122,
      "chip": "ym2612"
    },
    {
      "channel": 3,
      "note": 93,
      "start": 23.551,
      "duration": 0.0832,
      "velocity": 104,
      "chip": "ym2612"
    },
    {
      "channel": 4,
      "note": 96,
      "start": 23.5516,
      "duration": 0.0831,
      "velocity": 107,
      "chip": "ym2612"
    },
    {
      "channel": 5,
      "note": 67,
      "start": 23.5521,
      "duration": 0.6273,
      "velocity": 108,
      "chip": "ym2612"
    },
    {
      "channel": 1,
      "note": 67,
      "start": 23.6334,
      "duration": 0.4011,
      "velocity": 47,
      "chip": "ym2612"
    },
    {
      "channel": 2,
      "note": 36,
      "start": 23.6338,
      "duration": 0.0832,
      "velocity": 122,
      "chip": "ym2612"
    },
    {
      "channel": 3,
      "note": 96,
      "start": 23.6343,
      "duration": 0.0832,
      "velocity": 104,
      "chip": "ym2612"
    },
    {
      "channel": 4,
      "note": 91,
      "start": 23.6349,
      "duration": 0.0831,
      "velocity": 107,
      "chip": "ym2612"
    },
    {
      "channel": 0,
      "note": 57,
      "start": 23.7166,
      "duration": 0.0831,
      "velocity": 47,
      "chip": "ym2612"
    },
    {
      "channel": 2,
      "note": 38,
      "start": 23.7171,
      "duration": 0.1665,
      "velocity": 122,
      "chip": "ym2612"
    },
    {
      "channel": 3,
      "note": 91,
      "start": 23.7176,
      "duration": 0.0827,
      "velocity": 104,
      "chip": "ym2612"
    },
    {
      "channel": 4,
      "note": 98,
      "start": 23.7182,
      "duration": 0.0826,
      "velocity": 107,
      "chip": "ym2612"
    },
    {
      "channel": 0,
      "note": 69,
      "start": 23.7999,
      "duration": 0.0832,
      "velocity": 47,
      "chip": "ym2612"
    },
    {
      "channel": 3,
      "note": 98,
      "start": 23.8005,
      "duration": 0.0837,
      "velocity": 104,
      "chip": "ym2612"
    },
    {
      "channel": 4,
      "note": 93,
      "start": 23.801,
      "duration": 0.0837,
      "velocity": 107,
      "chip": "ym2612"
    },
    {
      "channel": 0,
      "note": 64,
      "start": 23.8833,
      "duration": 0.0763,
      "velocity": 47,
      "chip": "ym2612"
    },
    {
      "channel": 2,
      "note": 50,
      "start": 23.8839,
      "duration": 0.0763,
      "velocity": 122,
      "chip": "ym2612"
    },
    {
      "channel": 3,
      "note": 93,
      "start": 23.8844,
      "duration": 0.0763,
      "velocity": 104,
      "chip": "ym2612"
    },
    {
      "channel": 4,
      "note": 96,
      "start": 23.8849,
      "duration": 0.0763,
      "velocity": 107,
      "chip": "ym2612"
    },
    {
      "channel": 0,
      "note": 67,
      "start": 23.9598,
      "duration": 0.3841,
      "velocity": 47,
      "chip": "ym2612"
    },
    {
      "channel": 2,
      "note": 38,
      "start": 23.9603,
      "duration": 0.0747,
      "velocity": 122,
      "chip": "ym2612"
    },
    {
      "channel": 3,
      "note": 96,
      "start": 23.9608,
      "duration": 0.0747,
      "velocity": 104,
      "chip": "ym2612"
    },
    {
      "channel": 4,
      "note": 91,
      "start": 23.9614,
      "duration": 0.0746,
      "velocity": 107,
      "chip": "ym2612"
    },
    {
      "channel": 1,
      "note": 57,
      "start": 24.0346,
      "duration": 0.0722,
      "velocity": 47,
      "chip": "ym2612"
    },
    {
      "channel": 2,
      "note": 48,
      "start": 24.0351,
      "duration": 0.0722,
      "velocity": 122,
      "chip": "ym2612"
    },
    {
      "channel": 3,
      "note": 91,
      "start": 24.0356,
      "duration": 0.0722,
      "velocity": 104,
      "chip": "ym2612"
    },
    {
      "channel": 4,
      "note": 98,
      "start": 24.0362,
      "duration": 0.0722,
      "velocity": 107,
      "chip": "ym2612"
    },
    {
      "channel": 1,
      "note": 69,
      "start": 24.1069,
      "duration": 0.0704,
      "velocity": 47,
      "chip": "ym2612"
    },
    {
      "channel": 2,
      "note": 50,
      "start": 24.1075,
      "duration": 0.0704,
      "velocity": 122,
      "chip": "ym2612"
    },
    {
      "channel": 3,
      "note": 98,
      "start": 24.108,
      "duration": 0.0704,
      "velocity": 104,
      "chip": "ym2612"
    },
    {
      "channel": 4,
      "note": 93,
      "start": 24.1085,
      "duration": 0.0704,
      "velocity": 107,
      "chip": "ym2612"
    },
    {
      "channel": 1,
      "note": 64,
      "start": 24.1775,
      "duration": 0.0832,
      "velocity": 47,
      "chip": "ym2612"
    },
    {
      "channel": 2,
      "note": 38,
      "start": 24.178,
      "duration": 0.0831,
      "velocity": 122,
      "chip": "ym2612"
    },
    {
      "channel": 3,
      "note": 93,
      "start": 24.1785,
      "duration": 0.0832,
      "velocity": 104,
      "chip": "ym2612"
    },
    {
      "channel": 4,
      "note": 96,
      "start": 24.179,
      "duration": 0.0831,
      "velocity": 107,
      "chip": "ym2612"
    },
    {
      "channel": 5,
      "note": 67,
      "start": 24.1796,
      "duration": 0.0831,
      "velocity": 108,
      "chip": "ym2612"
    },
    {
      "channel": 1,
      "note": 67,
      "start": 24.2608,
      "duration": 0.3798,
      "velocity": 47,
      "chip": "ym2612"
    },
    {
      "channel": 2,
      "note": 36,
      "start": 24.2613,
      "duration": 0.0831,
      "velocity": 122,
      "chip": "ym2612"
    },
    {
      "channel": 3,
      "note": 96,
      "start": 24.2618,
      "duration": 0.0832,
      "velocity": 104,
      "chip": "ym2612"
    },
    {
      "channel": 4,
      "note": 91,
      "start": 24.2624,
      "duration": 0.0831,
      "velocity": 107,
      "chip": "ym2612"
    },
    {
      "channel": 5,
      "note": 67,
      "start": 24.2629,
      "duration": 0.531,
      "velocity": 108,
      "chip": "ym2612"
    },
    {
      "channel": 0,
      "note": 54,
      "start": 24.3441,
      "duration": 0.0743,
      "velocity": 47,
      "chip": "ym2612"
    },
    {
      "channel": 2,
      "note": 35,
      "start": 24.3447,
      "duration": 0.1468,
      "velocity": 122,
      "chip": "ym2612"
    },
    {
      "channel": 3,
      "note": 91,
      "start": 24.3452,
      "duration": 0.0738,
      "velocity": 104,
      "chip": "ym2612"
    },
    {
      "channel": 4,
      "note": 95,
      "start": 24.3457,
      "duration": 0.0738,
      "velocity": 107,
      "chip": "ym2612"
    },
    {
      "channel": 0,
      "note": 66,
      "start": 24.4185,
      "duration": 0.0724,
      "velocity": 47,
      "chip": "ym2612"
    },
    {
      "channel": 3,
      "note": 95,
      "start": 24.4192,
      "duration": 0.0728,
      "velocity": 104,
      "chip": "ym2612"
    },
    {
      "channel": 4,
      "note": 90,
      "start": 24.4197,
      "duration": 0.0728,
      "velocity": 107,
      "chip": "ym2612"
    },
    {
      "channel": 0,
      "note": 61,
      "start": 24.491,
      "duration": 0.0744,
      "velocity": 47,
      "chip": "ym2612"
    },
    {
      "channel": 2,
      "note": 47,
      "start": 24.4916,
      "duration": 0.0744,
      "velocity": 122,
      "chip": "ym2612"
    },
    {
      "channel": 3,
      "note": 90,
      "start": 24.4921,
      "duration": 0.0744,
      "velocity": 104,
      "chip": "ym2612"
    },
    {
      "channel": 4,
      "note": 93,
      "start": 24.4926,
      "duration": 0.0744,
      "velocity": 107,
      "chip": "ym2612"
    },
    {
      "channel": 0,
      "note": 64,
      "start": 24.5656,
      "duration": 0.3927,
      "velocity": 47,
      "chip": "ym2612"
    },
    {
      "channel": 2,
      "note": 35,
      "start": 24.5661,
      "duration": 0.0749,
      "velocity": 122,
      "chip": "ym2612"
    },
    {
      "channel": 3,
      "note": 93,
      "start": 24.5666,
      "duration": 0.0749,
      "velocity": 104,
      "chip": "ym2612"
    },
    {
      "channel": 4,
      "note": 88,
      "start": 24.5672,
      "duration": 0.0749,
      "velocity": 107,
      "chip": "ym2612"
    },
    {
      "channel": 1,
      "note": 54,
      "start": 24.6407,
      "duration": 0.0766,
      "velocity": 47,
      "chip": "ym2612"
    },
    {
      "channel": 2,
      "note": 45,
      "start": 24.6412,
      "duration": 0.0766,
      "velocity": 122,
      "chip": "ym2612"
    },
    {
      "channel": 3,
      "note": 88,
      "start": 24.6417,
      "duration": 0.0766,
      "velocity": 104,
      "chip": "ym2612"
    },
    {
      "channel": 4,
      "note": 95,
      "start": 24.6422,
      "duration": 0.0766,
      "velocity": 107,
      "chip": "ym2612"
    },
    {
      "channel": 1,
      "note": 66,
      "start": 24.7175,
      "duration": 0.0743,
      "velocity": 47,
      "chip": "ym2612"
    },
    {
      "channel": 2,
      "note": 47,
      "start": 24.718,
      "duration": 0.0742,
      "velocity": 122,
      "chip": "ym2612"
    },
    {
      "channel": 3,
      "note": 95,
      "start": 24.7185,
      "duration": 0.0743,
      "velocity": 104,
      "chip": "ym2612"
    },
    {
      "channel": 4,
      "note": 90,
      "start": 24.719,
      "duration": 0.0742,
      "velocity": 107,
      "chip": "ym2612"
    },
    {
      "channel": 1,
      "note": 61,
      "start": 24.7919,
      "duration": 0.0832,
      "velocity": 47,
      "chip": "ym2612"
    },
    {
      "channel": 2,
      "note": 35,
      "start": 24.7924,
      "duration": 0.0831,
      "velocity": 122,
      "chip": "ym2612"
    },
    {
      "channel": 3,
      "note": 90,
      "start": 24.7929,
      "duration": 0.0832,
      "velocity": 104,
      "chip": "ym2612"
    },
    {
      "channel": 4,
      "note": 93,
      "start": 24.7934,
      "duration": 0.0831,
      "velocity": 107,
      "chip": "ym2612"
    },
    {
      "channel": 5,
      "note": 67,
      "start": 24.794,
      "duration": 0.6298,
      "velocity": 108,
      "chip": "ym2612"
    },
    {
      "channel": 1,
      "note": 64,
      "start": 24.8752,
      "duration": 0.3993,
      "velocity": 47,
      "chip": "ym2612"
    },
    {
      "channel": 2,
      "note": 33,
      "start": 24.8758,
      "duration": 0.0831,
      "velocity": 122,
      "chip": "ym2612"
    },
    {
      "channel": 3,
      "note": 93,
      "start": 24.8763,
      "duration": 0.0832,
      "velocity": 104,
      "chip": "ym2612"
    },
    {
      "channel": 4,
      "note": 88,
      "start": 24.8768,
      "duration": 0.0831,
      "velocity": 107,
      "chip": "ym2612"
    },
    {
      "channel": 0,
      "note": 54,
      "start": 24.9585,
      "duration": 0.0831,
      "velocity": 47,
      "chip": "ym2612"
    },
    {
      "channel": 2,
      "note": 35,
      "start": 24.9591,
      "duration": 0.1665,
      "velocity": 122,
      "chip": "ym2612"
    },
    {
      "channel": 3,
      "note": 88,
      "start": 24.9596,
      "duration": 0.0826,
      "velocity": 104,
      "chip": "ym2612"
    },
    {
      "channel": 4,
      "note": 95,
      "start": 24.9601,
      "duration": 0.0826,
      "velocity": 107,
      "chip": "ym2612"
    },
    {
      "channel": 0,
      "note": 66,
      "start": 25.0418,
      "duration": 0.0832,
      "velocity": 47,
      "chip": "ym2612"
    },
    {
      "channel": 3,
      "note": 95,
      "start": 25.0424,
      "duration": 0.0837,
      "velocity": 104,
      "chip": "ym2612"
    },
    {
      "channel": 4,
      "note": 90,
      "start": 25.0429,
      "duration": 0.0837,
      "velocity": 107,
      "chip": "ym2612"
    },
    {
      "channel": 0,
      "note": 61,
      "start": 25.1252,
      "duration": 0.0745,
      "velocity": 47,
      "chip": "ym2612"
    },
    {
      "channel": 2,
      "note": 47,
      "start": 25.1257,
      "duration": 0.0745,
      "velocity": 122,
      "chip": "ym2612"
    },
    {
      "channel": 3,
      "note": 90,
      "start": 25.1262,
      "duration": 0.0746,
      "velocity": 104,
      "chip": "ym2612"
    },
    {
      "channel": 4,
      "note": 93,
      "start": 25.1268,
      "duration": 0.0745,
      "velocity": 107,
      "chip": "ym2612"
    },
    {
      "channel": 0,
      "note": 64,
      "start": 25.1999,
      "duration": 0.3885,
      "velocity": 47,
      "chip": "ym2612"
    },
    {
      "channel": 2,
      "note": 35,
      "start": 25.2004,
      "duration": 0.0747,
      "velocity": 122,
      "chip": "ym2612"
    },
    {
      "channel": 3,
      "note": 93,
      "start": 25.2009,
      "duration": 0.0747,
      "velocity": 104,
      "chip": "ym2612"
    },
    {
      "channel": 4,
      "note": 88,
      "start": 25.2015,
      "duration": 0.0746,
      "velocity": 107,
      "chip": "ym2612"
    },
    {
      "channel": 1,
      "note": 54,
      "start": 25.2747,
      "duration": 0.0743,
      "velocity": 47,
      "chip": "ym2612"
    },
    {
      "channel": 2,
      "note": 45,
      "start": 25.2752,
      "duration": 0.0743,
      "velocity": 122,
      "chip": "ym2612"
    },
    {
      "channel": 3,
      "note": 88,
      "start": 25.2757,
      "duration": 0.0743,
      "velocity": 104,
      "chip": "ym2612"
    },
    {
      "channel": 4,
      "note": 95,
      "start": 25.2763,
      "duration": 0.0743,
      "velocity": 107,
      "chip": "ym2612"
    },
    {
      "channel": 1,
      "note": 66,
      "start": 25.3492,
      "duration": 0.0726,
      "velocity": 47,
      "chip": "ym2612"
    },
    {
      "channel": 2,
      "note": 47,
      "start": 25.3497,
      "duration": 0.0726,
      "velocity": 122,
      "chip": "ym2612"
    },
    {
      "channel": 3,
      "note": 95,
      "start": 25.3502,
      "duration": 0.0726,
      "velocity": 104,
      "chip": "ym2612"
    },
    {
      "channel": 4,
      "note": 90,
      "start": 25.3507,
      "duration": 0.0726,
      "velocity": 107,
      "chip": "ym2612"
    },
    {
      "channel": 1,
      "note": 61,
      "start": 25.4219,
      "duration": 0.0832,
      "velocity": 47,
      "chip": "ym2612"
    },
    {
      "channel": 2,
      "note": 35,
      "start": 25.4224,
      "duration": 0.0831,
      "velocity": 122,
      "chip": "ym2612"
    },
    {
      "channel": 3,
      "note": 90,
      "start": 25.4229,
      "duration": 0.0832,
      "velocity": 104,
      "chip": "ym2612"
    },
    {
      "channel": 4,
      "note": 93,
      "start": 25.4234,
      "duration": 0.0832,
      "velocity": 107,
      "chip": "ym2612"
    },
    {
      "channel": 5,
      "note": 67,
      "start": 25.424,
      "duration": 0.0832,
      "velocity": 108,
      "chip": "ym2612"
    },
    {
      "channel": 1,
      "note": 64,
      "start": 25.5052,
      "duration": 0.3836,
      "velocity": 47,
      "chip": "ym2612"
    },
    {
      "channel": 2,
      "note": 33,
      "start": 25.5057,
      "duration": 0.0832,
      "velocity": 122,
      "chip": "ym2612"
    },
    {
      "channel": 3,
      "note": 93,
      "start": 25.5062,
      "duration": 0.0833,
      "velocity": 104,
      "chip": "ym2612"
    },
    {
      "channel": 4,
      "note": 88,
      "start": 25.5068,
      "duration": 0.0833,
      "velocity": 107,
      "chip": "ym2612"
    },
    {
      "channel": 5,
      "note": 67,
      "start": 25.5073,
      "duration": 0.5286,
      "velocity": 108,
      "chip": "ym2612"
    },
    {
      "channel": 0,
      "note": 52,
      "start": 25.5885,
      "duration": 0.0742,
      "velocity": 47,
      "chip": "ym2612"
    },
    {
      "channel": 2,
      "note": 40,
      "start": 25.5891,
      "duration": 0.1466,
      "velocity": 122,
      "chip": "ym2612"
    },
    {
      "channel": 3,
      "note": 88,
      "start": 25.5897,
      "duration": 0.0737,
      "velocity": 104,
      "chip": "ym2612"
    },
    {
      "channel": 4,
      "note": 100,
      "start": 25.5902,
      "duration": 0.0737,
      "velocity": 107,
      "chip": "ym2612"
    },
    {
      "channel": 0,
      "note": 64,
      "start": 25.6629,
      "duration": 0.0722,
      "velocity": 47,
      "chip": "ym2612"
    },
    {
      "channel": 3,
      "note": 100,
      "start": 25.6636,
      "duration": 0.0727,
      "velocity": 104,
      "chip": "ym2612"
    },
    {
      "channel": 4,
      "note": 95,
      "start": 25.6641,
      "duration": 0.0727,
      "velocity": 107,
      "chip": "ym2612"
    },
    {
      "channel": 0,
      "note": 59,
      "start": 25.7353,
      "duration": 0.0785,
      "velocity": 47,
      "chip": "ym2612"
    },
    {
      "channel": 2,
      "note": 52,
      "start": 25.7359,
      "duration": 0.0785,
      "velocity": 122,
      "chip": "ym2612"
    },
    {
      "channel": 3,
      "note": 95,
      "start": 25.7364,
      "duration": 0.0786,
      "velocity": 104,
      "chip": "ym2612"
    },
    {
      "channel": 4,
      "note": 98,
      "start": 25.7369,
      "duration": 0.0785,
      "velocity": 107,
      "chip": "ym2612"
    },
    {
      "channel": 0,
      "note": 62,
      "start": 25.814,
      "duration": 0.3864,
      "velocity": 47,
      "chip": "ym2612"
    },
    {
      "channel": 2,
      "note": 40,
      "start": 25.8146,
      "duration": 0.0747,
      "velocity": 122,
      "chip": "ym2612"
    },
    {
      "channel": 3,
      "note": 98,
      "start": 25.8151,
      "duration": 0.0747,
      "velocity": 104,
      "chip": "ym2612"
    },
    {
      "channel": 4,
      "note": 93,
      "start": 25.8156,
      "duration": 0.0747,
      "velocity": 107,
      "chip": "ym2612"
    },
    {
      "channel": 1,
      "note": 52,
      "start": 25.889,
      "duration": 0.0743,
      "velocity": 47,
      "chip": "ym2612"
    },
    {
      "channel": 2,
      "note": 50,
      "start": 25.8895,
      "duration": 0.0743,
      "velocity": 122,
      "chip": "ym2612"
    },
    {
      "channel": 3,
      "note": 93,
      "start": 25.89,
      "duration": 0.0743,
      "velocity": 104,
      "chip": "ym2612"
    },
    {
      "channel": 4,
      "note": 100,
      "start": 25.8905,
      "duration": 0.0743,
      "velocity": 107,
      "chip": "ym2612"
    },
    {
      "channel": 1,
      "note": 64,
      "start": 25.9634,
      "duration": 0.0705,
      "velocity": 47,
      "chip": "ym2612"
    },
    {
      "channel": 2,
      "note": 52,
      "start": 25.9639,
      "duration": 0.0704,
      "velocity": 122,
      "chip": "ym2612"
    },
    {
      "channel": 3,
      "note": 100,
      "start": 25.9644,
      "duration": 0.0705,
      "velocity": 104,
      "chip": "ym2612"
    },
    {
      "channel": 4,
      "note": 95,
      "start": 25.9649,
      "duration": 0.0705,
      "velocity": 107,
      "chip": "ym2612"
    },
    {
      "channel": 1,
      "note": 59,
      "start": 26.034,
      "duration": 0.0832,
      "velocity": 47,
      "chip": "ym2612"
    },
    {
      "channel": 2,
      "note": 38,
      "start": 26.0345,
      "duration": 0.0831,
      "velocity": 122,
      "chip": "ym2612"
    },
    {
      "channel": 3,
      "note": 95,
      "start": 26.035,
      "duration": 0.0832,
      "velocity": 104,
      "chip": "ym2612"
    },
    {
      "channel": 4,
      "note": 98,
      "start": 26.0355,
      "duration": 0.0831,
      "velocity": 107,
      "chip": "ym2612"
    },
    {
      "channel": 5,
      "note": 67,
      "start": 26.0361,
      "duration": 0.6338,
      "velocity": 108,
      "chip": "ym2612"
    },
    {
      "channel": 1,
      "note": 62,
      "start": 26.1173,
      "duration": 0.4011,
      "velocity": 47,
      "chip": "ym2612"
    },
    {
      "channel": 2,
      "note": 35,
      "start": 26.1178,
      "duration": 0.0832,
      "velocity": 122,
      "chip": "ym2612"
    },
    {
      "channel": 3,
      "note": 98,
      "start": 26.1183,
      "duration": 0.0832,
      "velocity": 104,
      "chip": "ym2612"
    },
    {
      "channel": 4,
      "note": 93,
      "start": 26.1188,
      "duration": 0.0832,
      "velocity": 107,
      "chip": "ym2612"
    },
    {
      "channel": 0,
      "note": 52,
      "start": 26.2006,
      "duration": 0.0831,
      "velocity": 47,
      "chip": "ym2612"
    },
    {
      "channel": 2,
      "note": 40,
      "start": 26.2011,
      "duration": 0.1665,
      "velocity": 122,
      "chip": "ym2612"
    },
    {
      "channel": 3,
      "note": 93,
      "start": 26.2016,
      "duration": 0.0827,
      "velocity": 104,
      "chip": "ym2612"
    },
    {
      "channel": 4,
      "note": 100,
      "start": 26.2022,
      "duration": 0.0826,
      "velocity": 107,
      "chip": "ym2612"
    },
    {
      "channel": 0,
      "note": 64,
      "start": 26.2839,
      "duration": 0.0832,
      "velocity": 47,
      "chip": "ym2612"
    },
    {
      "channel": 3,
      "note": 100,
      "start": 26.2845,
      "duration": 0.0837,
      "velocity": 104,
      "chip": "ym2612"
    },
    {
      "channel": 4,
      "note": 95,
      "start": 26.285,
      "duration": 0.0837,
      "velocity": 107,
      "chip": "ym2612"
    },
    {
      "channel": 0,
      "note": 59,
      "start": 26.3673,
      "duration": 0.0763,
      "velocity": 47,
      "chip": "ym2612"
    },
    {
      "channel": 2,
      "note": 52,
      "start": 26.3678,
      "duration": 0.0763,
      "velocity": 122,
      "chip": "ym2612"
    },
    {
      "channel": 3,
      "note": 95,
      "start": 26.3683,
      "duration": 0.0763,
      "velocity": 104,
      "chip": "ym2612"
    },
    {
      "channel": 4,
      "note": 98,
      "start": 26.3689,
      "duration": 0.0763,
      "velocity": 107,
      "chip": "ym2612"
    },
    {
      "channel": 0,
      "note": 62,
      "start": 26.4437,
      "duration": 0.3906,
      "velocity": 47,
      "chip": "ym2612"
    },
    {
      "channel": 2,
      "note": 40,
      "start": 26.4442,
      "duration": 0.0747,
      "velocity": 122,
      "chip": "ym2612"
    },
    {
      "channel": 3,
      "note": 98,
      "start": 26.4447,
      "duration": 0.0747,
      "velocity": 104,
      "chip": "ym2612"
    },
    {
      "channel": 4,
      "note": 93,
      "start": 26.4453,
      "duration": 0.0746,
      "velocity": 107,
      "chip": "ym2612"
    },
    {
      "channel": 1,
      "note": 52,
      "start": 26.5186,
      "duration": 0.0743,
      "velocity": 47,
      "chip": "ym2612"
    },
    {
      "channel": 2,
      "note": 50,
      "start": 26.5191,
      "duration": 0.0742,
      "velocity": 122,
      "chip": "ym2612"
    },
    {
      "channel": 3,
      "note": 93,
      "start": 26.5196,
      "duration": 0.0743,
      "velocity": 104,
      "chip": "ym2612"
    },
    {
      "channel": 4,
      "note": 100,
      "start": 26.5201,
      "duration": 0.0742,
      "velocity": 107,
      "chip": "ym2612"
    },
    {
      "channel": 1,
      "note": 64,
      "start": 26.593,
      "duration": 0.0748,
      "velocity": 47,
      "chip": "ym2612"
    },
    {
      "channel": 2,
      "note": 52,
      "start": 26.5935,
      "duration": 0.0747,
      "velocity": 122,
      "chip": "ym2612"
    },
    {
      "channel": 3,
      "note": 100,
      "start": 26.594,
      "duration": 0.0748,
      "velocity": 104,
      "chip": "ym2612"
    },
    {
      "channel": 4,
      "note": 95,
      "start": 26.5945,
      "duration": 0.0748,
      "velocity": 107,
      "chip": "ym2612"
    },
    {
      "channel": 1,
      "note": 59,
      "start": 26.6679,
      "duration": 0.0832,
      "velocity": 47,
      "chip": "ym2612"
    },
    {
      "channel": 2,
      "note": 38,
      "start": 26.6684,
      "duration": 0.0831,
      "velocity": 122,
      "chip": "ym2612"
    },
    {
      "channel": 3,
      "note": 95,
      "start": 26.6689,
      "duration": 0.0832,
      "velocity": 104,
      "chip": "ym2612"
    },
    {
      "channel": 4,
      "note": 98,
      "start": 26.6694,
      "duration": 0.0831,
      "velocity": 107,
      "chip": "ym2612"
    },
    {
      "channel": 5,
      "note": 67,
      "start": 26.67,
      "duration": 0.0831,
      "velocity": 108,
      "chip": "ym2612"
    },
    {
      "channel": 1,
      "note": 62,
      "start": 26.7512,
      "duration": 0.3816,
      "velocity": 47,
      "chip": "ym2612"
    },
    {
      "channel": 2,
      "note": 35,
      "start": 26.7517,
      "duration": 0.0832,
      "velocity": 122,
      "chip": "ym2612"
    },
    {
      "channel": 3,
      "note": 98,
      "start": 26.7522,
      "duration": 0.0832,
      "velocity": 104,
      "chip": "ym2612"
    },
    {
      "channel": 4,
      "note": 93,
      "start": 26.7528,
      "duration": 0.0831,
      "velocity": 107,
      "chip": "ym2612"
    },
    {
      "channel": 5,
      "note": 67,
      "start": 26.7533,
      "duration": 0.5329,
      "velocity": 108,
      "chip": "ym2612"
    },
    {
      "channel": 0,
      "note": 55,
      "start": 26.8345,
      "duration": 0.0762,
      "velocity": 47,
      "chip": "ym2612"
    },
    {
      "channel": 2,
      "note": 36,
      "start": 26.8351,
      "duration": 0.1487,
      "velocity": 122,
      "chip": "ym2612"
    },
    {
      "channel": 3,
      "note": 93,
      "start": 26.8356,
      "duration": 0.0757,
      "velocity": 104,
      "chip": "ym2612"
    },
    {
      "channel": 4,
      "note": 96,
      "start": 26.8361,
      "duration": 0.0757,
      "velocity": 107,
      "chip": "ym2612"
    },
    {
      "channel": 0,
      "note": 67,
      "start": 26.9108,
      "duration": 0.0724,
      "velocity": 47,
      "chip": "ym2612"
    },
    {
      "channel": 3,
      "note": 96,
      "start": 26.9115,
      "duration": 0.0728,
      "velocity": 104,
      "chip": "ym2612"
    },
    {
      "channel": 4,
      "note": 91,
      "start": 26.912,
      "duration": 0.0728,
      "velocity": 107,
      "chip": "ym2612"
    },
    {
      "channel": 0,
      "note": 62,
      "start": 26.9833,
      "duration": 0.0744,
      "velocity": 47,
      "chip": "ym2612"
    },
    {
      "channel": 2,
      "note": 48,
      "start": 26.9839,
      "duration": 0.0744,
      "velocity": 122,
      "chip": "ym2612"
    },
    {
      "channel": 3,
      "note": 91,
      "start": 26.9844,
      "duration": 0.0744,
      "velocity": 104,
      "chip": "ym2612"
    },
    {
      "channel": 4,
      "note": 94,
      "start": 26.9849,
      "duration": 0.0744,
      "velocity": 107,
      "chip": "ym2612"
    },
    {
      "channel": 0,
      "note": 65,
      "start": 27.0579,
      "duration": 0.3927,
      "velocity": 47,
      "chip": "ym2612"
    },
    {
      "channel": 2,
      "note": 36,
      "start": 27.0584,
      "duration": 0.0749,
      "velocity": 122,
      "chip": "ym2612"
    },
    {
      "channel": 3,
      "note": 94,
      "start": 27.0589,
      "duration": 0.0749,
      "velocity": 104,
      "chip": "ym2612"
    },
    {
      "channel": 4,
      "note": 89,
      "start": 27.0595,
      "duration": 0.0749,
      "velocity": 107,
      "chip": "ym2612"
    },
    {
      "channel": 1,
      "note": 55,
      "start": 27.133,
      "duration": 0.0745,
      "velocity": 47,
      "chip": "ym2612"
    },
    {
      "channel": 2,
      "note": 46,
      "start": 27.1335,
      "duration": 0.0745,
      "velocity": 122,
      "chip": "ym2612"
    },
    {
      "channel": 3,
      "note": 89,
      "start": 27.134,
      "duration": 0.0745,
      "velocity": 104,
      "chip": "ym2612"
    },
    {
      "channel": 4,
      "note": 96,
      "start": 27.1345,
      "duration": 0.0745,
      "velocity": 107,
      "chip": "ym2612"
    },
    {
      "channel": 1,
      "note": 67,
      "start": 27.2076,
      "duration": 0.0764,
      "velocity": 47,
      "chip": "ym2612"
    },
    {
      "channel": 2,
      "note": 48,
      "start": 27.2081,
      "duration": 0.0763,
      "velocity": 122,
      "chip": "ym2612"
    },
    {
      "channel": 3,
      "note": 96,
      "start": 27.2086,
      "duration": 0.0764,
      "velocity": 104,
      "chip": "ym2612"
    },
    {
      "channel": 4,
      "note": 91,
      "start": 27.2092,
      "duration": 0.0764,
      "velocity": 107,
      "chip": "ym2612"
    },
    {
      "channel": 1,
      "note": 62,
      "start": 27.2841,
      "duration": 0.0832,
      "velocity": 47,
      "chip": "ym2612"
    },
    {
      "channel": 2,
      "note": 34,
      "start": 27.2847,
      "duration": 0.0831,
      "velocity": 122,
      "chip": "ym2612"
    },
    {
      "channel": 3,
      "note": 91,
      "start": 27.2852,
      "duration": 0.0832,
      "velocity": 104,
      "chip": "ym2612"
    },
    {
      "channel": 4,
      "note": 94,
      "start": 27.2857,
      "duration": 0.0831,
      "velocity": 107,
      "chip": "ym2612"
    },
    {
      "channel": 5,
      "note": 67,
      "start": 27.2863,
      "duration": 0.6378,
      "velocity": 108,
      "chip": "ym2612"
    },
    {
      "channel": 1,
      "note": 65,
      "start": 27.3674,
      "duration": 0.4016,
      "velocity": 47,
      "chip": "ym2612"
    },
    {
      "channel": 2,
      "note": 36,
      "start": 27.3679,
      "duration": 0.0832,
      "velocity": 122,
      "chip": "ym2612"
    },
    {
      "channel": 3,
      "note": 94,
      "start": 27.3684,
      "duration": 0.0832,
      "velocity": 104,
      "chip": "ym2612"
    },
    {
      "channel": 4,
      "note": 89,
      "start": 27.369,
      "duration": 0.0832,
      "velocity": 107,
      "chip": "ym2612"
    },
    {
      "channel": 0,
      "note": 55,
      "start": 27.4508,
      "duration": 0.0831,
      "velocity": 47,
      "chip": "ym2612"
    },
    {
      "channel": 2,
      "note": 36,
      "start": 27.4513,
      "duration": 0.1665,
      "velocity": 122,
      "chip": "ym2612"
    },
    {
      "channel": 3,
      "note": 89,
      "start": 27.4518,
      "duration": 0.0826,
      "velocity": 104,
      "chip": "ym2612"
    },
    {
      "channel": 4,
      "note": 96,
      "start": 27.4524,
      "duration": 0.0826,
      "velocity": 107,
      "chip": "ym2612"
    },
    {
      "channel": 0,
      "note": 67,
      "start": 27.534,
      "duration": 0.0832,
      "velocity": 47,
      "chip": "ym2612"
    },
    {
      "channel": 3,
      "note": 96,
      "start": 27.5347,
      "duration": 0.0837,
      "velocity": 104,
      "chip": "ym2612"
    },
    {
      "channel": 4,
      "note": 91,
      "start": 27.5352,
      "duration": 0.0837,
      "velocity": 107,
      "chip": "ym2612"
    },
    {
      "channel": 0,
      "note": 62,
      "start": 27.6174,
      "duration": 0.0785,
      "velocity": 47,
      "chip": "ym2612"
    },
    {
      "channel": 2,
      "note": 48,
      "start": 27.618,
      "duration": 0.0785,
      "velocity": 122,
      "chip": "ym2612"
    },
    {
      "channel": 3,
      "note": 91,
      "start": 27.6185,
      "duration": 0.0785,
      "velocity": 104,
      "chip": "ym2612"
    },
    {
      "channel": 4,
      "note": 94,
      "start": 27.619,
      "duration": 0.0785,
      "velocity": 107,
      "chip": "ym2612"
    },
    {
      "channel": 0,
      "note": 65,
      "start": 27.6961,
      "duration": 0.3925,
      "velocity": 47,
      "chip": "ym2612"
    },
    {
      "channel": 2,
      "note": 36,
      "start": 27.6966,
      "duration": 0.0729,
      "velocity": 122,
      "chip": "ym2612"
    },
    {
      "channel": 3,
      "note": 94,
      "start": 27.6971,
      "duration": 0.0729,
      "velocity": 104,
      "chip": "ym2612"
    },
    {
      "channel": 4,
      "note": 89,
      "start": 27.6977,
      "duration": 0.0728,
      "velocity": 107,
      "chip": "ym2612"
    },
    {
      "channel": 1,
      "note": 55,
      "start": 27.7692,
      "duration": 0.0763,
      "velocity": 47,
      "chip": "ym2612"
    },
    {
      "channel": 2,
      "note": 46,
      "start": 27.7697,
      "duration": 0.0763,
      "velocity": 122,
      "chip": "ym2612"
    },
    {
      "channel": 3,
      "note": 89,
      "start": 27.7702,
      "duration": 0.0763,
      "velocity": 104,
      "chip": "ym2612"
    },
    {
      "channel": 4,
      "note": 96,
      "start": 27.7707,
      "duration": 0.0763,
      "velocity": 107,
      "chip": "ym2612"
    },
    {
      "channel": 1,
      "note": 67,
      "start": 27.8456,
      "duration": 0.0764,
      "velocity": 47,
      "chip": "ym2612"
    },
    {
      "channel": 2,
      "note": 48,
      "start": 27.8461,
      "duration": 0.0763,
      "velocity": 122,
      "chip": "ym2612"
    },
    {
      "channel": 3,
      "note": 96,
      "start": 27.8466,
      "duration": 0.0764,
      "velocity": 104,
      "chip": "ym2612"
    },
    {
      "channel": 4,
      "note": 91,
      "start": 27.8471,
      "duration": 0.0764,
      "velocity": 107,
      "chip": "ym2612"
    },
    {
      "channel": 1,
      "note": 62,
      "start": 27.9221,
      "duration": 0.0832,
      "velocity": 47,
      "chip": "ym2612"
    },
    {
      "channel": 2,
      "note": 34,
      "start": 27.9227,
      "duration": 0.0831,
      "velocity": 122,
      "chip": "ym2612"
    },
    {
      "channel": 3,
      "note": 91,
      "start": 27.9232,
      "duration": 0.0832,
      "velocity": 104,
      "chip": "ym2612"
    },
    {
      "channel": 4,
      "note": 94,
      "start": 27.9237,
      "duration": 0.0831,
      "velocity": 107,
      "chip": "ym2612"
    },
    {
      "channel": 5,
      "note": 67,
      "start": 27.9242,
      "duration": 0.0831,
      "velocity": 108,
      "chip": "ym2612"
    },
    {
      "channel": 1,
      "note": 65,
      "start": 28.0055,
      "duration": 0.378,
      "velocity": 47,
      "chip": "ym2612"
    },
    {
      "channel": 2,
      "note": 36,
      "start": 28.0059,
      "duration": 0.0832,
      "velocity": 122,
      "chip": "ym2612"
    },
    {
      "channel": 3,
      "note": 94,
      "start": 28.0064,
      "duration": 0.0833,
      "velocity": 104,
      "chip": "ym2612"
    },
    {
      "channel": 4,
      "note": 89,
      "start": 28.007,
      "duration": 0.0832,
      "velocity": 107,
      "chip": "ym2612"
    },
    {
      "channel": 5,
      "note": 67,
      "start": 28.0075,
      "duration": 0.5311,
      "velocity": 108,
      "chip": "ym2612"
    },
    {
      "channel": 0,
      "note": 57,
      "start": 28.0888,
      "duration": 0.0766,
      "velocity": 47,
      "chip": "ym2612"
    },
    {
      "channel": 2,
      "note": 38,
      "start": 28.0893,
      "duration": 0.1493,
      "velocity": 122,
      "chip": "ym2612"
    },
    {
      "channel": 3,
      "note": 89,
      "start": 28.0898,
      "duration": 0.0761,
      "velocity": 104,
      "chip": "ym2612"
    },
    {
      "channel": 4,
      "note": 98,
      "start": 28.0903,
      "duration": 0.0761,
      "velocity": 107,
      "chip": "ym2612"
    },
    {
      "channel": 0,
      "note": 69,
      "start": 28.1655,
      "duration": 0.0725,
      "velocity": 47,
      "chip": "ym2612"
    },
    {
      "channel": 3,
      "note": 98,
      "start": 28.1662,
      "duration": 0.0729,
      "velocity": 104,
      "chip": "ym2612"
    },
    {
      "channel": 4,
      "note": 93,
      "start": 28.1667,
      "duration": 0.0729,
      "velocity": 107,
      "chip": "ym2612"
    },
    {
      "channel": 0,
      "note": 64,
      "start": 28.2381,
      "duration": 0.0723,
      "velocity": 47,
      "chip": "ym2612"
    },
    {
      "channel": 2,
      "note": 50,
      "start": 28.2387,
      "duration": 0.0723,
      "velocity": 122,
      "chip": "ym2612"
    },
    {
      "channel": 3,
      "note": 93,
      "start": 28.2392,
      "duration": 0.0723,
      "velocity": 104,
      "chip": "ym2612"
    },
    {
      "channel": 4,
      "note": 96,
      "start": 28.2397,
      "duration": 0.0723,
      "velocity": 107,
      "chip": "ym2612"
    },
    {
      "channel": 0,
      "note": 67,
      "start": 28.3106,
      "duration": 0.3924,
      "velocity": 47,
      "chip": "ym2612"
    },
    {
      "channel": 2,
      "note": 38,
      "start": 28.3111,
      "duration": 0.0729,
      "velocity": 122,
      "chip": "ym2612"
    },
    {
      "channel": 3,
      "note": 96,
      "start": 28.3116,
      "duration": 0.0729,
      "velocity": 104,
      "chip": "ym2612"
    },
    {
      "channel": 4,
      "note": 91,
      "start": 28.3122,
      "duration": 0.0728,
      "velocity": 107,
      "chip": "ym2612"
    },
    {
      "channel": 1,
      "note": 57,
      "start": 28.3836,
      "duration": 0.0763,
      "velocity": 47,
      "chip": "ym2612"
    },
    {
      "channel": 2,
      "note": 48,
      "start": 28.3841,
      "duration": 0.0763,
      "velocity": 122,
      "chip": "ym2612"
    },
    {
      "channel": 3,
      "note": 91,
      "start": 28.3846,
      "duration": 0.0763,
      "velocity": 104,
      "chip": "ym2612"
    },
    {
      "channel": 4,
      "note": 98,
      "start": 28.3852,
      "duration": 0.0763,
      "velocity": 107,
      "chip": "ym2612"
    },
    {
      "channel": 1,
      "note": 69,
      "start": 28.4601,
      "duration": 0.0764,
      "velocity": 47,
      "chip": "ym2612"
    },
    {
      "channel": 2,
      "note": 50,
      "start": 28.4606,
      "duration": 0.0763,
      "velocity": 122,
      "chip": "ym2612"
    },
    {
      "channel": 3,
      "note": 98,
      "start": 28.4611,
      "duration": 0.0764,
      "velocity": 104,
      "chip": "ym2612"
    },
    {
      "channel": 4,
      "note": 93,
      "start": 28.4616,
      "duration": 0.0764,
      "velocity": 107,
      "chip": "ym2612"
    },
    {
      "channel": 1,
      "note": 64,
      "start": 28.5366,
      "duration": 0.0832,
      "velocity": 47,
      "chip": "ym2612"
    },
    {
      "channel": 2,
      "note": 38,
      "start": 28.5371,
      "duration": 0.0831,
      "velocity": 122,
      "chip": "ym2612"
    },
    {
      "channel": 3,
      "note": 93,
      "start": 28.5376,
      "duration": 0.0832,
      "velocity": 104,
      "chip": "ym2612"
    },
    {
      "channel": 4,
      "note": 96,
      "start": 28.5381,
      "duration": 0.0831,
      "velocity": 107,
      "chip": "ym2612"
    },
    {
      "channel": 5,
      "note": 67,
      "start": 28.5387,
      "duration": 0.638,
      "velocity": 108,
      "chip": "ym2612"
    },
    {
      "channel": 1,
      "note": 67,
      "start": 28.6199,
      "duration": 0.4017,
      "velocity": 47,
      "chip": "ym2612"
    },
    {
      "channel": 2,
      "note": 36,
      "start": 28.6204,
      "duration": 0.0832,
      "velocity": 122,
      "chip": "ym2612"
    },
    {
      "channel": 3,
      "note": 96,
      "start": 28.6209,
      "duration": 0.0832,
      "velocity": 104,
      "chip": "ym2612"
    },
    {
      "channel": 4,
      "note": 91,
      "start": 28.6214,
      "duration": 0.0832,
      "velocity": 107,
      "chip": "ym2612"
    },
    {
      "channel": 0,
      "note": 57,
      "start": 28.7032,
      "duration": 0.0831,
      "velocity": 47,
      "chip": "ym2612"
    },
    {
      "channel": 2,
      "note": 38,
      "start": 28.7037,
      "duration": 0.1665,
      "velocity": 122,
      "chip": "ym2612"
    },
    {
      "channel": 3,
      "note": 91,
      "start": 28.7042,
      "duration": 0.0827,
      "velocity": 104,
      "chip": "ym2612"
    },
    {
      "channel": 4,
      "note": 98,
      "start": 28.7048,
      "duration": 0.0826,
      "velocity": 107,
      "chip": "ym2612"
    },
    {
      "channel": 0,
      "note": 69,
      "start": 28.7865,
      "duration": 0.0832,
      "velocity": 47,
      "chip": "ym2612"
    },
    {
      "channel": 3,
      "note": 98,
      "start": 28.7871,
      "duration": 0.0837,
      "velocity": 104,
      "chip": "ym2612"
    },
    {
      "channel": 4,
      "note": 93,
      "start": 28.7876,
      "duration": 0.0837,
      "velocity": 107,
      "chip": "ym2612"
    },
    {
      "channel": 0,
      "note": 64,
      "start": 28.8699,
      "duration": 0.0785,
      "velocity": 47,
      "chip": "ym2612"
    },
    {
      "channel": 2,
      "note": 50,
      "start": 28.8705,
      "duration": 0.0785,
      "velocity": 122,
      "chip": "ym2612"
    },
    {
      "channel": 3,
      "note": 93,
      "start": 28.871,
      "duration": 0.0786,
      "velocity": 104,
      "chip": "ym2612"
    },
    {
      "channel": 4,
      "note": 96,
      "start": 28.8715,
      "duration": 0.0785,
      "velocity": 107,
      "chip": "ym2612"
    },
    {
      "channel": 0,
      "note": 67,
      "start": 28.9486,
      "duration": 0.3926,
      "velocity": 47,
      "chip": "ym2612"
    },
    {
      "channel": 2,
      "note": 38,
      "start": 28.9491,
      "duration": 0.0729,
      "velocity": 122,
      "chip": "ym2612"
    },
    {
      "channel": 3,
      "note": 96,
      "start": 28.9496,
      "duration": 0.0729,
      "velocity": 104,
      "chip": "ym2612"
    },
    {
      "channel": 4,
      "note": 91,
      "start": 28.9502,
      "duration": 0.0728,
      "velocity": 107,
      "chip": "ym2612"
    },
    {
      "channel": 1,
      "note": 57,
      "start": 29.0217,
      "duration": 0.0764,
      "velocity": 47,
      "chip": "ym2612"
    },
    {
      "channel": 2,
      "note": 48,
      "start": 29.0222,
      "duration": 0.0764,
      "velocity": 122,
      "chip": "ym2612"
    },
    {
      "channel": 3,
      "note": 91,
      "start": 29.0227,
      "duration": 0.0764,
      "velocity": 104,
      "chip": "ym2612"
    },
    {
      "channel": 4,
      "note": 98,
      "start": 29.0232,
      "duration": 0.0764,
      "velocity": 107,
      "chip": "ym2612"
    },
    {
      "channel": 1,
      "note": 69,
      "start": 29.0982,
      "duration": 0.0764,
      "velocity": 47,
      "chip": "ym2612"
    },
    {
      "channel": 2,
      "note": 50,
      "start": 29.0987,
      "duration": 0.0763,
      "velocity": 122,
      "chip": "ym2612"
    },
    {
      "channel": 3,
      "note": 98,
      "start": 29.0992,
      "duration": 0.0764,
      "velocity": 104,
      "chip": "ym2612"
    },
    {
      "channel": 4,
      "note": 93,
      "start": 29.0998,
      "duration": 0.0763,
      "velocity": 107,
      "chip": "ym2612"
    },
    {
      "channel": 1,
      "note": 64,
      "start": 29.1747,
      "duration": 0.0832,
      "velocity": 47,
      "chip": "ym2612"
    },
    {
      "channel": 2,
      "note": 38,
      "start": 29.1752,
      "duration": 0.0831,
      "velocity": 122,
      "chip": "ym2612"
    },
    {
      "channel": 3,
      "note": 93,
      "start": 29.1757,
      "duration": 0.0832,
      "velocity": 104,
      "chip": "ym2612"
    },
    {
      "channel": 4,
      "note": 96,
      "start": 29.1762,
      "duration": 0.0831,
      "velocity": 107,
      "chip": "ym2612"
    },
    {
      "channel": 5,
      "note": 67,
      "start": 29.1768,
      "duration": 0.0831,
      "velocity": 108,
      "chip": "ym2612"
    },
    {
      "channel": 1,
      "note": 67,
      "start": 29.258,
      "duration": 0.3823,
      "velocity": 47,
      "chip": "ym2612"
    },
    {
      "channel": 2,
      "note": 36,
      "start": 29.2585,
      "duration": 0.0832,
      "velocity": 122,
      "chip": "ym2612"
    },
    {
      "channel": 3,
      "note": 96,
      "start": 29.259,
      "duration": 0.0833,
      "velocity": 104,
      "chip": "ym2612"
    },
    {
      "channel": 4,
      "note": 91,
      "start": 29.2596,
      "duration": 0.0832,
      "velocity": 107,
      "chip": "ym2612"
    },
    {
      "channel": 5,
      "note": 67,
      "start": 29.2601,
      "duration": 0.5354,
      "velocity": 108,
      "chip": "ym2612"
    },
    {
      "channel": 0,
      "note": 54,
      "start": 29.3413,
      "duration": 0.0766,
      "velocity": 47,
      "chip": "ym2612"
    },
    {
      "channel": 2,
      "note": 35,
      "start": 29.3419,
      "duration": 0.1513,
      "velocity": 122,
      "chip": "ym2612"
    },
    {
      "channel": 3,
      "note": 91,
      "start": 29.3424,
      "duration": 0.0761,
      "velocity": 104,
      "chip": "ym2612"
    },
    {
      "channel": 4,
      "note": 95,
      "start": 29.3429,
      "duration": 0.0761,
      "velocity": 107,
      "chip": "ym2612"
    },
    {
      "channel": 0,
      "note": 66,
      "start": 29.4181,
      "duration": 0.0745,
      "velocity": 47,
      "chip": "ym2612"
    },
    {
      "channel": 3,
      "note": 95,
      "start": 29.4187,
      "duration": 0.075,
      "velocity": 104,
      "chip": "ym2612"
    },
    {
      "channel": 4,
      "note": 90,
      "start": 29.4192,
      "duration": 0.075,
      "velocity": 107,
      "chip": "ym2612"
    },
    {
      "channel": 0,
      "note": 61,
      "start": 29.4928,
      "duration": 0.0744,
      "velocity": 47,
      "chip": "ym2612"
    },
    {
      "channel": 2,
      "note": 47,
      "start": 29.4934,
      "duration": 0.0744,
      "velocity": 122,
      "chip": "ym2612"
    },
    {
      "channel": 3,
      "note": 90,
      "start": 29.4939,
      "duration": 0.0744,
      "velocity": 104,
      "chip": "ym2612"
    },
    {
      "channel": 4,
      "note": 93,
      "start": 29.4944,
      "duration": 0.0744,
      "velocity": 107,
      "chip": "ym2612"
    },
    {
      "channel": 0,
      "note": 64,
      "start": 29.5674,
      "duration": 0.3925,
      "velocity": 47,
      "chip": "ym2612"
    },
    {
      "channel": 2,
      "note": 35,
      "start": 29.5679,
      "duration": 0.0729,
      "velocity": 122,
      "chip": "ym2612"
    },
    {
      "channel": 3,
      "note": 93,
      "start": 29.5684,
      "duration": 0.0729,
      "velocity": 104,
      "chip": "ym2612"
    },
    {
      "channel": 4,
      "note": 88,
      "start": 29.569,
      "duration": 0.0728,
      "velocity": 107,
      "chip": "ym2612"
    },
    {
      "channel": 1,
      "note": 54,
      "start": 29.6404,
      "duration": 0.0764,
      "velocity": 47,
      "chip": "ym2612"
    },
    {
      "channel": 2,
      "note": 45,
      "start": 29.641,
      "duration": 0.0764,
      "velocity": 122,
      "chip": "ym2612"
    },
    {
      "channel": 3,
      "note": 88,
      "start": 29.6415,
      "duration": 0.0764,
      "velocity": 104,
      "chip": "ym2612"
    },
    {
      "channel": 4,
      "note": 95,
      "start": 29.642,
      "duration": 0.0764,
      "velocity": 107,
      "chip": "ym2612"
    },
    {
      "channel": 1,
      "note": 66,
      "start": 29.717,
      "duration": 0.0764,
      "velocity": 47,
      "chip": "ym2612"
    },
    {
      "channel": 2,
      "note": 47,
      "start": 29.7175,
      "duration": 0.0763,
      "velocity": 122,
      "chip": "ym2612"
    },
    {
      "channel": 3,
      "note": 95,
      "start": 29.718,
      "duration": 0.0764,
      "velocity": 104,
      "chip": "ym2612"
    },
    {
      "channel": 4,
      "note": 90,
      "start": 29.7185,
      "duration": 0.0763,
      "velocity": 107,
      "chip": "ym2612"
    },
    {
      "channel": 1,
      "note": 61,
      "start": 29.7935,
      "duration": 0.0832,
      "velocity": 47,
      "chip": "ym2612"
    },
    {
      "channel": 2,
      "note": 35,
      "start": 29.794,
      "duration": 0.0831,
      "velocity": 122,
      "chip": "ym2612"
    },
    {
      "channel": 3,
      "note": 90,
      "start": 29.7945,
      "duration": 0.0832,
      "velocity": 104,
      "chip": "ym2612"
    },
    {
      "channel": 4,
      "note": 93,
      "start": 29.795,
      "duration": 0.0831,
      "velocity": 107,
      "chip": "ym2612"
    },
    {
      "channel": 5,
      "note": 67,
      "start": 29.7956,
      "duration": 0.6273,
      "velocity": 108,
      "chip": "ym2612"
    },
    {
      "channel": 1,
      "note": 64,
      "start": 29.8768,
      "duration": 0.4011,
      "velocity": 47,
      "chip": "ym2612"
    },
    {
      "channel": 2,
      "note": 33,
      "start": 29.8773,
      "duration": 0.0832,
      "velocity": 122,
      "chip": "ym2612"
    },
    {
      "channel": 3,
      "note": 93,
      "start": 29.8778,
      "duration": 0.0832,
      "velocity": 104,
      "chip": "ym2612"
    },
    {
      "channel": 4,
      "note": 88,
      "start": 29.8783,
      "duration": 0.0831,
      "velocity": 107,
      "chip": "ym2612"
    },
    {
      "channel": 0,
      "note": 54,
      "start": 29.9601,
      "duration": 0.0831,
      "velocity": 47,
      "chip": "ym2612"
    },
    {
      "channel": 2,
      "note": 35,
      "start": 29.9606,
      "duration": 0.1665,
      "velocity": 122,
      "chip": "ym2612"
    },
    {
      "channel": 3,
      "note": 88,
      "start": 29.9611,
      "duration": 0.0827,
      "velocity": 104,
      "chip": "ym2612"
    },
    {
      "channel": 4,
      "note": 95,
      "start": 29.9617,
      "duration": 0.0826,
      "velocity": 107,
      "chip": "ym2612"
    },
    {
      "channel": 0,
      "note": 66,
      "start": 30.0434,
      "duration": 0.0832,
      "velocity": 47,
      "chip": "ym2612"
    },
    {
      "channel": 3,
      "note": 95,
      "start": 30.044,
      "duration": 0.0837,
      "velocity": 104,
      "chip": "ym2612"
    },
    {
      "channel": 4,
      "note": 90,
      "start": 30.0445,
      "duration": 0.0837,
      "velocity": 107,
      "chip": "ym2612"
    },
    {
      "channel": 0,
      "note": 61,
      "start": 30.1268,
      "duration": 0.0763,
      "velocity": 47,
      "chip": "ym2612"
    },
    {
      "channel": 2,
      "note": 47,
      "start": 30.1273,
      "duration": 0.0763,
      "velocity": 122,
      "chip": "ym2612"
    },
    {
      "channel": 3,
      "note": 90,
      "start": 30.1278,
      "duration": 0.0763,
      "velocity": 104,
      "chip": "ym2612"
    },
    {
      "channel": 4,
      "note": 93,
      "start": 30.1283,
      "duration": 0.0763,
      "velocity": 107,
      "chip": "ym2612"
    },
    {
      "channel": 0,
      "note": 64,
      "start": 30.2032,
      "duration": 0.3843,
      "velocity": 47,
      "chip": "ym2612"
    },
    {
      "channel": 2,
      "note": 35,
      "start": 30.2037,
      "duration": 0.0747,
      "velocity": 122,
      "chip": "ym2612"
    },
    {
      "channel": 3,
      "note": 93,
      "start": 30.2042,
      "duration": 0.0747,
      "velocity": 104,
      "chip": "ym2612"
    },
    {
      "channel": 4,
      "note": 88,
      "start": 30.2048,
      "duration": 0.0746,
      "velocity": 107,
      "chip": "ym2612"
    },
    {
      "channel": 1,
      "note": 54,
      "start": 30.2781,
      "duration": 0.0722,
      "velocity": 47,
      "chip": "ym2612"
    },
    {
      "channel": 2,
      "note": 45,
      "start": 30.2786,
      "duration": 0.0722,
      "velocity": 122,
      "chip": "ym2612"
    },
    {
      "channel": 3,
      "note": 88,
      "start": 30.2791,
      "duration": 0.0722,
      "velocity": 104,
      "chip": "ym2612"
    },
    {
      "channel": 4,
      "note": 95,
      "start": 30.2796,
      "duration": 0.0722,
      "velocity": 107,
      "chip": "ym2612"
    },
    {
      "channel": 1,
      "note": 66,
      "start": 30.3504,
      "duration": 0.0704,
      "velocity": 47,
      "chip": "ym2612"
    },
    {
      "channel": 2,
      "note": 47,
      "start": 30.3509,
      "duration": 0.0704,
      "velocity": 122,
      "chip": "ym2612"
    },
    {
      "channel": 3,
      "note": 95,
      "start": 30.3514,
      "duration": 0.0704,
      "velocity": 104,
      "chip": "ym2612"
    },
    {
      "channel": 4,
      "note": 90,
      "start": 30.3519,
      "duration": 0.0704,
      "velocity": 107,
      "chip": "ym2612"
    },
    {
      "channel": 1,
      "note": 61,
      "start": 30.4209,
      "duration": 0.0832,
      "velocity": 47,
      "chip": "ym2612"
    },
    {
      "channel": 2,
      "note": 35,
      "start": 30.4215,
      "duration": 0.0832,
      "velocity": 122,
      "chip": "ym2612"
    },
    {
      "channel": 3,
      "note": 90,
      "start": 30.422,
      "duration": 0.0832,
      "velocity": 104,
      "chip": "ym2612"
    },
    {
      "channel": 4,
      "note": 93,
      "start": 30.4225,
      "duration": 0.1667,
      "velocity": 107,
      "chip": "ym2612"
    },
    {
      "channel": 5,
      "note": 67,
      "start": 30.423,
      "duration": 0.0827,
      "velocity": 108,
      "chip": "ym2612"
    },
    {
      "channel": 1,
      "note": 64,
      "start": 30.5043,
      "duration": 0.3896,
      "velocity": 47,
      "chip": "ym2612"
    },
    {
      "channel": 2,
      "note": 33,
      "start": 30.5048,
      "duration": 0.0833,
      "velocity": 122,
      "chip": "ym2612"
    },
    {
      "channel": 3,
      "note": 93,
      "start": 30.5053,
      "duration": 0.0833,
      "velocity": 104,
      "chip": "ym2612"
    },
    {
      "channel": 5,
      "note": 67,
      "start": 30.5059,
      "duration": 1.8266,
      "velocity": 108,
      "chip": "ym2612"
    },
    {
      "channel": 0,
      "note": 50,
      "start": 30.5877,
      "duration": 0.0743,
      "velocity": 47,
      "chip": "ym2612"
    },
    {
      "channel": 2,
      "note": 38,
      "start": 30.5882,
      "duration": 0.151,
      "velocity": 122,
      "chip": "ym2612"
    },
    {
      "channel": 3,
      "note": 86,
      "start": 30.5888,
      "duration": 0.0737,
      "velocity": 104,
      "chip": "ym2612"
    },
    {
      "channel": 4,
      "note": 98,
      "start": 30.5894,
      "duration": 0.0737,
      "velocity": 107,
      "chip": "ym2612"
    },
    {
      "channel": 0,
      "note": 62,
      "start": 30.6621,
      "duration": 0.0765,
      "velocity": 47,
      "chip": "ym2612"
    },
    {
      "channel": 3,
      "note": 98,
      "start": 30.6627,
      "duration": 0.077,
      "velocity": 104,
      "chip": "ym2612"
    },
    {
      "channel": 4,
      "note": 93,
      "start": 30.6633,
      "duration": 0.0769,
      "velocity": 107,
      "chip": "ym2612"
    },
    {
      "channel": 0,
      "note": 57,
      "start": 30.7388,
      "duration": 0.0784,
      "velocity": 47,
      "chip": "ym2612"
    },
    {
      "channel": 2,
      "note": 50,
      "start": 30.7394,
      "duration": 0.0784,
      "velocity": 122,
      "chip": "ym2612"
    },
    {
      "channel": 3,
      "note": 93,
      "start": 30.7399,
      "duration": 0.0784,
      "velocity": 104,
      "chip": "ym2612"
    },
    {
      "channel": 4,
      "note": 96,
      "start": 30.7404,
      "duration": 0.0784,
      "velocity": 107,
      "chip": "ym2612"
    },
    {
      "channel": 0,
      "note": 60,
      "start": 30.8174,
      "duration": 1.5151,
      "velocity": 47,
      "chip": "ym2612"
    },
    {
      "channel": 2,
      "note": 38,
      "start": 30.818,
      "duration": 0.0763,
      "velocity": 122,
      "chip": "ym2612"
    },
    {
      "channel": 3,
      "note": 96,
      "start": 30.8185,
      "duration": 1.514,
      "velocity": 104,
      "chip": "ym2612"
    },
    {
      "channel": 4,
      "note": 91,
      "start": 30.819,
      "duration": 1.5135,
      "velocity": 107,
      "chip": "ym2612"
    },
    {
      "channel": 1,
      "note": 50,
      "start": 30.894,
      "duration": 1.4385,
      "velocity": 47,
      "chip": "ym2612"
    }
  ]
}