{
  "track_name": "08 - Dungeon (Variation)",
  "duration_sec": 25.434,
  "sample_rate": 44100,
  "note_count": 593,
  "unique_pitches": 40,
  "pitch_range": 61,
  "avg_note_duration": 0.2203,
  "reconstruction_stats": {
    "notes_reconstructed": 593,
    "keyon_events": 593,
    "keyoff_events": 587,
    "orphan_keyons": 6,
    "unique_pitches": 40,
    "pitch_range": 61,
    "avg_duration_sec": 0.2203
  },
  "metadata": {
    "source": "P\\Phantasy Star III\\08 - Dungeon (Variation).vgz"
  },
  "notes": [
    {
      "channel": 0,
      "note": 67,
      "start": 0.0,
      "duration": 0.1376,
      "velocity": 109,
      "chip": "ym2612"
    },
    {
      "channel": 1,
      "note": 30,
      "start": 0.0032,
      "duration": 0.087,
      "velocity": 112,
      "chip": "ym2612"
    },
    {
      "channel": 2,
      "note": 30,
      "start": 0.013,
      "duration": 0.1732,
      "velocity": 119,
      "chip": "ym2612"
    },
    {
      "channel": 1,
      "note": 31,
      "start": 0.0908,
      "duration": 1.0504,
      "velocity": 112,
      "chip": "ym2612"
    },
    {
      "channel": 0,
      "note": 69,
      "start": 0.1382,
      "duration": 0.145,
      "velocity": 109,
      "chip": "ym2612"
    },
    {
      "channel": 0,
      "note": 70,
      "start": 0.2838,
      "duration": 0.1423,
      "velocity": 109,
      "chip": "ym2612"
    },
    {
      "channel": 3,
      "note": 58,
      "start": 0.2849,
      "duration": 0.2852,
      "velocity": 109,
      "chip": "ym2612"
    },
    {
      "channel": 4,
      "note": 55,
      "start": 0.2856,
      "duration": 0.2852,
      "velocity": 109,
      "chip": "ym2612"
    },
    {
      "channel": 5,
      "note": 50,
      "start": 0.2863,
      "duration": 0.2852,
      "velocity": 109,
      "chip": "ym2612"
    },
    {
      "channel": 2,
      "note": 69,
      "start": 0.2872,
      "duration": 0.1361,
      "velocity": 127,
      "chip": "ym2612"
    },
    {
      "channel": 0,
      "note": 69,
      "start": 0.4266,
      "duration": 0.1423,
      "velocity": 109,
      "chip": "ym2612"
    },
    {
      "channel": 2,
      "note": 69,
      "start": 0.429,
      "duration": 0.1371,
      "velocity": 127,
      "chip": "ym2612"
    },
    {
      "channel": 0,
      "note": 70,
      "start": 0.5695,
      "duration": 0.1424,
      "velocity": 109,
      "chip": "ym2612"
    },
    {
      "channel": 3,
      "note": 58,
      "start": 0.5706,
      "duration": 0.2852,
      "velocity": 109,
      "chip": "ym2612"
    },
    {
      "channel": 4,
      "note": 55,
      "start": 0.5714,
      "duration": 0.2852,
      "velocity": 109,
      "chip": "ym2612"
    },
    {
      "channel": 5,
      "note": 50,
      "start": 0.5721,
      "duration": 0.2852,
      "velocity": 109,
      "chip": "ym2612"
    },
    {
      "channel": 2,
      "note": 69,
      "start": 0.5729,
      "duration": 0.1361,
      "velocity": 127,
      "chip": "ym2612"
    },
    {
      "channel": 0,
      "note": 72,
      "start": 0.7125,
      "duration": 0.1422,
      "velocity": 109,
      "chip": "ym2612"
    },
    {
      "channel": 2,
      "note": 69,
      "start": 0.7148,
      "duration": 0.1371,
      "velocity": 127,
      "chip": "ym2612"
    },
    {
      "channel": 0,
      "note": 70,
      "start": 0.8553,
      "duration": 0.1423,
      "velocity": 109,
      "chip": "ym2612"
    },
    {
      "channel": 3,
      "note": 58,
      "start": 0.8564,
      "duration": 0.2855,
      "velocity": 109,
      "chip": "ym2612"
    },
    {
      "channel": 4,
      "note": 55,
      "start": 0.8572,
      "duration": 0.2851,
      "velocity": 109,
      "chip": "ym2612"
    },
    {
      "channel": 5,
      "note": 50,
      "start": 0.8579,
      "duration": 0.2847,
      "velocity": 109,
      "chip": "ym2612"
    },
    {
      "channel": 2,
      "note": 69,
      "start": 0.8588,
      "duration": 0.136,
      "velocity": 127,
      "chip": "ym2612"
    },
    {
      "channel": 0,
      "note": 72,
      "start": 0.9982,
      "duration": 0.1422,
      "velocity": 109,
      "chip": "ym2612"
    },
    {
      "channel": 2,
      "note": 69,
      "start": 1.0005,
      "duration": 0.1371,
      "velocity": 127,
      "chip": "ym2612"
    },
    {
      "channel": 0,
      "note": 74,
      "start": 1.1411,
      "duration": 0.1422,
      "velocity": 109,
      "chip": "ym2612"
    },
    {
      "channel": 1,
      "note": 30,
      "start": 1.1418,
      "duration": 0.0915,
      "velocity": 112,
      "chip": "ym2612"
    },
    {
      "channel": 2,
      "note": 30,
      "start": 1.1436,
      "duration": 0.137,
      "velocity": 119,
      "chip": "ym2612"
    },
    {
      "channel": 1,
      "note": 31,
      "start": 1.2338,
      "duration": 1.0504,
      "velocity": 112,
      "chip": "ym2612"
    },
    {
      "channel": 0,
      "note": 72,
      "start": 1.2839,
      "duration": 0.1395,
      "velocity": 109,
      "chip": "ym2612"
    },
    {
      "channel": 2,
      "note": 69,
      "start": 1.2854,
      "duration": 0.2809,
      "velocity": 127,
      "chip": "ym2612"
    },
    {
      "channel": 0,
      "note": 74,
      "start": 1.424,
      "duration": 0.1451,
      "velocity": 109,
      "chip": "ym2612"
    },
    {
      "channel": 3,
      "note": 58,
      "start": 1.4251,
      "duration": 0.288,
      "velocity": 109,
      "chip": "ym2612"
    },
    {
      "channel": 4,
      "note": 55,
      "start": 1.4259,
      "duration": 0.2879,
      "velocity": 109,
      "chip": "ym2612"
    },
    {
      "channel": 5,
      "note": 50,
      "start": 1.4266,
      "duration": 0.288,
      "velocity": 109,
      "chip": "ym2612"
    },
    {
      "channel": 0,
      "note": 75,
      "start": 1.5697,
      "duration": 0.1423,
      "velocity": 109,
      "chip": "ym2612"
    },
    {
      "channel": 2,
      "note": 69,
      "start": 1.572,
      "duration": 0.1371,
      "velocity": 127,
      "chip": "ym2612"
    },
    {
      "channel": 0,
      "note": 77,
      "start": 1.7126,
      "duration": 0.1423,
      "velocity": 109,
      "chip": "ym2612"
    },
    {
      "channel": 3,
      "note": 58,
      "start": 1.7137,
      "duration": 0.2853,
      "velocity": 109,
      "chip": "ym2612"
    },
    {
      "channel": 4,
      "note": 55,
      "start": 1.7144,
      "duration": 0.2853,
      "velocity": 109,
      "chip": "ym2612"
    },
    {
      "channel": 5,
      "note": 50,
      "start": 1.7151,
      "duration": 0.2853,
      "velocity": 109,
      "chip": "ym2612"
    },
    {
      "channel": 2,
      "note": 69,
      "start": 1.7159,
      "duration": 0.1361,
      "velocity": 127,
      "chip": "ym2612"
    },
    {
      "channel": 0,
      "note": 75,
      "start": 1.8555,
      "duration": 0.1424,
      "velocity": 109,
      "chip": "ym2612"
    },
    {
      "channel": 2,
      "note": 69,
      "start": 1.8578,
      "duration": 0.0578,
      "velocity": 127,
      "chip": "ym2612"
    },
    {
      "channel": 2,
      "note": 69,
      "start": 1.9208,
      "duration": 0.0741,
      "velocity": 127,
      "chip": "ym2612"
    },
    {
      "channel": 0,
      "note": 74,
      "start": 1.9985,
      "duration": 0.1421,
      "velocity": 109,
      "chip": "ym2612"
    },
    {
      "channel": 3,
      "note": 58,
      "start": 1.9995,
      "duration": 0.2854,
      "velocity": 109,
      "chip": "ym2612"
    },
    {
      "channel": 4,
      "note": 55,
      "start": 2.0002,
      "duration": 0.285,
      "velocity": 109,
      "chip": "ym2612"
    },
    {
      "channel": 5,
      "note": 50,
      "start": 2.001,
      "duration": 0.2846,
      "velocity": 109,
      "chip": "ym2612"
    },
    {
      "channel": 2,
      "note": 69,
      "start": 2.0018,
      "duration": 0.1359,
      "velocity": 127,
      "chip": "ym2612"
    },
    {
      "channel": 0,
      "note": 72,
      "start": 2.1411,
      "duration": 0.1424,
      "velocity": 109,
      "chip": "ym2612"
    },
    {
      "channel": 2,
      "note": 69,
      "start": 2.1434,
      "duration": 0.1373,
      "velocity": 127,
      "chip": "ym2612"
    },
    {
      "channel": 0,
      "note": 69,
      "start": 2.2841,
      "duration": 0.1394,
      "velocity": 109,
      "chip": "ym2612"
    },
    {
      "channel": 1,
      "note": 31,
      "start": 2.2849,
      "duration": 0.0915,
      "velocity": 112,
      "chip": "ym2612"
    },
    {
      "channel": 2,
      "note": 30,
      "start": 2.2866,
      "duration": 0.1856,
      "velocity": 119,
      "chip": "ym2612"
    },
    {
      "channel": 1,
      "note": 33,
      "start": 2.377,
      "duration": 1.0503,
      "velocity": 112,
      "chip": "ym2612"
    },
    {
      "channel": 0,
      "note": 71,
      "start": 2.4241,
      "duration": 0.1451,
      "velocity": 109,
      "chip": "ym2612"
    },
    {
      "channel": 0,
      "note": 73,
      "start": 2.5699,
      "duration": 0.1423,
      "velocity": 109,
      "chip": "ym2612"
    },
    {
      "channel": 3,
      "note": 64,
      "start": 2.571,
      "duration": 0.2851,
      "velocity": 109,
      "chip": "ym2612"
    },
    {
      "channel": 4,
      "note": 52,
      "start": 2.5717,
      "duration": 0.2851,
      "velocity": 109,
      "chip": "ym2612"
    },
    {
      "channel": 5,
      "note": 49,
      "start": 2.5724,
      "duration": 0.2851,
      "velocity": 109,
      "chip": "ym2612"
    },
    {
      "channel": 2,
      "note": 69,
      "start": 2.5733,
      "duration": 0.1361,
      "velocity": 127,
      "chip": "ym2612"
    },
    {
      "channel": 0,
      "note": 71,
      "start": 2.7128,
      "duration": 0.1422,
      "velocity": 109,
      "chip": "ym2612"
    },
    {
      "channel": 2,
      "note": 69,
      "start": 2.7151,
      "duration": 0.1371,
      "velocity": 127,
      "chip": "ym2612"
    },
    {
      "channel": 0,
      "note": 73,
      "start": 2.8556,
      "duration": 0.1424,
      "velocity": 109,
      "chip": "ym2612"
    },
    {
      "channel": 3,
      "note": 64,
      "start": 2.8567,
      "duration": 0.2852,
      "velocity": 109,
      "chip": "ym2612"
    },
    {
      "channel": 4,
      "note": 52,
      "start": 2.8574,
      "duration": 0.2852,
      "velocity": 109,
      "chip": "ym2612"
    },
    {
      "channel": 5,
      "note": 49,
      "start": 2.8581,
      "duration": 0.2852,
      "velocity": 109,
      "chip": "ym2612"
    },
    {
      "channel": 2,
      "note": 69,
      "start": 2.859,
      "duration": 0.1362,
      "velocity": 127,
      "chip": "ym2612"
    },
    {
      "channel": 0,
      "note": 74,
      "start": 2.9985,
      "duration": 0.1422,
      "velocity": 109,
      "chip": "ym2612"
    },
    {
      "channel": 2,
      "note": 69,
      "start": 3.0008,
      "duration": 0.1371,
      "velocity": 127,
      "chip": "ym2612"
    },
    {
      "channel": 0,
      "note": 73,
      "start": 3.1413,
      "duration": 0.1423,
      "velocity": 109,
      "chip": "ym2612"
    },
    {
      "channel": 3,
      "note": 64,
      "start": 3.1424,
      "duration": 0.2856,
      "velocity": 109,
      "chip": "ym2612"
    },
    {
      "channel": 4,
      "note": 52,
      "start": 3.1431,
      "duration": 0.2852,
      "velocity": 109,
      "chip": "ym2612"
    },
    {
      "channel": 5,
      "note": 49,
      "start": 3.1439,
      "duration": 0.2848,
      "velocity": 109,
      "chip": "ym2612"
    },
    {
      "channel": 2,
      "note": 69,
      "start": 3.1447,
      "duration": 0.1362,
      "velocity": 127,
      "chip": "ym2612"
    },
    {
      "channel": 0,
      "note": 74,
      "start": 3.2843,
      "duration": 0.1422,
      "velocity": 109,
      "chip": "ym2612"
    },
    {
      "channel": 2,
      "note": 69,
      "start": 3.2866,
      "duration": 0.1372,
      "velocity": 127,
      "chip": "ym2612"
    },
    {
      "channel": 0,
      "note": 76,
      "start": 3.4271,
      "duration": 0.1422,
      "velocity": 109,
      "chip": "ym2612"
    },
    {
      "channel": 1,
      "note": 31,
      "start": 3.4278,
      "duration": 0.0915,
      "velocity": 112,
      "chip": "ym2612"
    },
    {
      "channel": 2,
      "note": 30,
      "start": 3.4297,
      "duration": 0.1369,
      "velocity": 119,
      "chip": "ym2612"
    },
    {
      "channel": 1,
      "note": 33,
      "start": 3.5199,
      "duration": 1.0505,
      "velocity": 112,
      "chip": "ym2612"
    },
    {
      "channel": 0,
      "note": 74,
      "start": 3.57,
      "duration": 0.1395,
      "velocity": 109,
      "chip": "ym2612"
    },
    {
      "channel": 2,
      "note": 69,
      "start": 3.5714,
      "duration": 0.2808,
      "velocity": 127,
      "chip": "ym2612"
    },
    {
      "channel": 0,
      "note": 76,
      "start": 3.71,
      "duration": 0.145,
      "velocity": 109,
      "chip": "ym2612"
    },
    {
      "channel": 3,
      "note": 64,
      "start": 3.7111,
      "duration": 0.2881,
      "velocity": 109,
      "chip": "ym2612"
    },
    {
      "channel": 4,
      "note": 52,
      "start": 3.712,
      "duration": 0.288,
      "velocity": 109,
      "chip": "ym2612"
    },
    {
      "channel": 5,
      "note": 49,
      "start": 3.7127,
      "duration": 0.288,
      "velocity": 109,
      "chip": "ym2612"
    },
    {
      "channel": 0,
      "note": 78,
      "start": 3.8557,
      "duration": 0.1424,
      "velocity": 109,
      "chip": "ym2612"
    },
    {
      "channel": 2,
      "note": 69,
      "start": 3.8579,
      "duration": 0.1374,
      "velocity": 127,
      "chip": "ym2612"
    },
    {
      "channel": 0,
      "note": 79,
      "start": 3.9987,
      "duration": 0.1422,
      "velocity": 109,
      "chip": "ym2612"
    },
    {
      "channel": 3,
      "note": 64,
      "start": 3.9998,
      "duration": 0.2851,
      "velocity": 109,
      "chip": "ym2612"
    },
    {
      "channel": 4,
      "note": 52,
      "start": 4.0005,
      "duration": 0.2852,
      "velocity": 109,
      "chip": "ym2612"
    },
    {
      "channel": 5,
      "note": 49,
      "start": 4.0012,
      "duration": 0.2851,
      "velocity": 109,
      "chip": "ym2612"
    },
    {
      "channel": 2,
      "note": 69,
      "start": 4.0021,
      "duration": 0.136,
      "velocity": 127,
      "chip": "ym2612"
    },
    {
      "channel": 0,
      "note": 78,
      "start": 4.1415,
      "duration": 0.1424,
      "velocity": 109,
      "chip": "ym2612"
    },
    {
      "channel": 2,
      "note": 69,
      "start": 4.1437,
      "duration": 0.0579,
      "velocity": 127,
      "chip": "ym2612"
    },
    {
      "channel": 2,
      "note": 69,
      "start": 4.2069,
      "duration": 0.0741,
      "velocity": 127,
      "chip": "ym2612"
    },
    {
      "channel": 0,
      "note": 79,
      "start": 4.2844,
      "duration": 0.1422,
      "velocity": 109,
      "chip": "ym2612"
    },
    {
      "channel": 3,
      "note": 64,
      "start": 4.2855,
      "duration": 0.2856,
      "velocity": 109,
      "chip": "ym2612"
    },
    {
      "channel": 4,
      "note": 52,
      "start": 4.2862,
      "duration": 0.2851,
      "velocity": 109,
      "chip": "ym2612"
    },
    {
      "channel": 5,
      "note": 49,
      "start": 4.2869,
      "duration": 0.2847,
      "velocity": 109,
      "chip": "ym2612"
    },
    {
      "channel": 2,
      "note": 69,
      "start": 4.2878,
      "duration": 0.136,
      "velocity": 127,
      "chip": "ym2612"
    },
    {
      "channel": 0,
      "note": 81,
      "start": 4.4272,
      "duration": 0.1424,
      "velocity": 109,
      "chip": "ym2612"
    },
    {
      "channel": 2,
      "note": 69,
      "start": 4.4296,
      "duration": 0.1373,
      "velocity": 127,
      "chip": "ym2612"
    },
    {
      "channel": 0,
      "note": 74,
      "start": 4.5702,
      "duration": 0.1395,
      "velocity": 109,
      "chip": "ym2612"
    },
    {
      "channel": 1,
      "note": 25,
      "start": 4.5709,
      "duration": 0.0915,
      "velocity": 112,
      "chip": "ym2612"
    },
    {
      "channel": 2,
      "note": 30,
      "start": 4.5727,
      "duration": 0.1856,
      "velocity": 119,
      "chip": "ym2612"
    },
    {
      "channel": 1,
      "note": 26,
      "start": 4.663,
      "duration": 1.0503,
      "velocity": 112,
      "chip": "ym2612"
    },
    {
      "channel": 0,
      "note": 76,
      "start": 4.7103,
      "duration": 0.145,
      "velocity": 109,
      "chip": "ym2612"
    },
    {
      "channel": 0,
      "note": 78,
      "start": 4.8559,
      "duration": 0.1423,
      "velocity": 109,
      "chip": "ym2612"
    },
    {
      "channel": 3,
      "note": 54,
      "start": 4.857,
      "duration": 0.2852,
      "velocity": 109,
      "chip": "ym2612"
    },
    {
      "channel": 4,
      "note": 50,
      "start": 4.8577,
      "duration": 0.2852,
      "velocity": 109,
      "chip": "ym2612"
    },
    {
      "channel": 5,
      "note": 45,
      "start": 4.8584,
      "duration": 0.2852,
      "velocity": 109,
      "chip": "ym2612"
    },
    {
      "channel": 2,
      "note": 69,
      "start": 4.8593,
      "duration": 0.1361,
      "velocity": 127,
      "chip": "ym2612"
    },
    {
      "channel": 0,
      "note": 76,
      "start": 4.9988,
      "duration": 0.1423,
      "velocity": 109,
      "chip": "ym2612"
    },
    {
      "channel": 2,
      "note": 69,
      "start": 5.0011,
      "duration": 0.1372,
      "velocity": 127,
      "chip": "ym2612"
    },
    {
      "channel": 0,
      "note": 78,
      "start": 5.1417,
      "duration": 0.1422,
      "velocity": 109,
      "chip": "ym2612"
    },
    {
      "channel": 3,
      "note": 54,
      "start": 5.1428,
      "duration": 0.2851,
      "velocity": 109,
      "chip": "ym2612"
    },
    {
      "channel": 4,
      "note": 50,
      "start": 5.1435,
      "duration": 0.2852,
      "velocity": 109,
      "chip": "ym2612"
    },
    {
      "channel": 5,
      "note": 45,
      "start": 5.1442,
      "duration": 0.2852,
      "velocity": 109,
      "chip": "ym2612"
    },
    {
      "channel": 2,
      "note": 69,
      "start": 5.1451,
      "duration": 0.136,
      "velocity": 127,
      "chip": "ym2612"
    },
    {
      "channel": 0,
      "note": 79,
      "start": 5.2845,
      "duration": 0.1423,
      "velocity": 109,
      "chip": "ym2612"
    },
    {
      "channel": 2,
      "note": 69,
      "start": 5.2868,
      "duration": 0.1372,
      "velocity": 127,
      "chip": "ym2612"
    },
    {
      "channel": 0,
      "note": 78,
      "start": 5.4274,
      "duration": 0.1422,
      "velocity": 109,
      "chip": "ym2612"
    },
    {
      "channel": 3,
      "note": 54,
      "start": 5.4285,
      "duration": 0.2856,
      "velocity": 109,
      "chip": "ym2612"
    },
    {
      "channel": 4,
      "note": 50,
      "start": 5.4293,
      "duration": 0.2851,
      "velocity": 109,
      "chip": "ym2612"
    },
    {
      "channel": 5,
      "note": 45,
      "start": 5.43,
      "duration": 0.2847,
      "velocity": 109,
      "chip": "ym2612"
    },
    {
      "channel": 2,
      "note": 69,
      "start": 5.4308,
      "duration": 0.1361,
      "velocity": 127,
      "chip": "ym2612"
    },
    {
      "channel": 0,
      "note": 79,
      "start": 5.5703,
      "duration": 0.1424,
      "velocity": 109,
      "chip": "ym2612"
    },
    {
      "channel": 2,
      "note": 69,
      "start": 5.5726,
      "duration": 0.1372,
      "velocity": 127,
      "chip": "ym2612"
    },
    {
      "channel": 0,
      "note": 81,
      "start": 5.7132,
      "duration": 0.1423,
      "velocity": 109,
      "chip": "ym2612"
    },
    {
      "channel": 1,
      "note": 25,
      "start": 5.7139,
      "duration": 0.0915,
      "velocity": 112,
      "chip": "ym2612"
    },
    {
      "channel": 2,
      "note": 30,
      "start": 5.7157,
      "duration": 0.137,
      "velocity": 119,
      "chip": "ym2612"
    },
    {
      "channel": 1,
      "note": 26,
      "start": 5.806,
      "duration": 1.0505,
      "velocity": 112,
      "chip": "ym2612"
    },
    {
      "channel": 0,
      "note": 79,
      "start": 5.8561,
      "duration": 0.1395,
      "velocity": 109,
      "chip": "ym2612"
    },
    {
      "channel": 2,
      "note": 69,
      "start": 5.8576,
      "duration": 0.2808,
      "velocity": 127,
      "chip": "ym2612"
    },
    {
      "channel": 0,
      "note": 81,
      "start": 5.9962,
      "duration": 0.1449,
      "velocity": 109,
      "chip": "ym2612"
    },
    {
      "channel": 3,
      "note": 54,
      "start": 5.9973,
      "duration": 0.2879,
      "velocity": 109,
      "chip": "ym2612"
    },
    {
      "channel": 4,
      "note": 50,
      "start": 5.998,
      "duration": 0.2879,
      "velocity": 109,
      "chip": "ym2612"
    },
    {
      "channel": 5,
      "note": 45,
      "start": 5.9987,
      "duration": 0.2879,
      "velocity": 109,
      "chip": "ym2612"
    },
    {
      "channel": 0,
      "note": 82,
      "start": 6.1418,
      "duration": 0.1423,
      "velocity": 109,
      "chip": "ym2612"
    },
    {
      "channel": 2,
      "note": 69,
      "start": 6.144,
      "duration": 0.1373,
      "velocity": 127,
      "chip": "ym2612"
    },
    {
      "channel": 0,
      "note": 84,
      "start": 6.2847,
      "duration": 0.1422,
      "velocity": 109,
      "chip": "ym2612"
    },
    {
      "channel": 3,
      "note": 54,
      "start": 6.2858,
      "duration": 0.2851,
      "velocity": 109,
      "chip": "ym2612"
    },
    {
      "channel": 4,
      "note": 50,
      "start": 6.2865,
      "duration": 0.2852,
      "velocity": 109,
      "chip": "ym2612"
    },
    {
      "channel": 5,
      "note": 45,
      "start": 6.2872,
      "duration": 0.2852,
      "velocity": 109,
      "chip": "ym2612"
    },
    {
      "channel": 2,
      "note": 69,
      "start": 6.2881,
      "duration": 0.1361,
      "velocity": 127,
      "chip": "ym2612"
    },
    {
      "channel": 0,
      "note": 82,
      "start": 6.4276,
      "duration": 0.1422,
      "velocity": 109,
      "chip": "ym2612"
    },
    {
      "channel": 2,
      "note": 69,
      "start": 6.4299,
      "duration": 0.0578,
      "velocity": 127,
      "chip": "ym2612"
    },
    {
      "channel": 2,
      "note": 69,
      "start": 6.4929,
      "duration": 0.0742,
      "velocity": 127,
      "chip": "ym2612"
    },
    {
      "channel": 0,
      "note": 84,
      "start": 6.5704,
      "duration": 0.1427,
      "velocity": 109,
      "chip": "ym2612"
    },
    {
      "channel": 3,
      "note": 54,
      "start": 6.5715,
      "duration": 0.2857,
      "velocity": 109,
      "chip": "ym2612"
    },
    {
      "channel": 4,
      "note": 50,
      "start": 6.5722,
      "duration": 0.2852,
      "velocity": 109,
      "chip": "ym2612"
    },
    {
      "channel": 5,
      "note": 45,
      "start": 6.5729,
      "duration": 0.2849,
      "velocity": 109,
      "chip": "ym2612"
    },
    {
      "channel": 2,
      "note": 69,
      "start": 6.5738,
      "duration": 0.1364,
      "velocity": 127,
      "chip": "ym2612"
    },
    {
      "channel": 0,
      "note": 86,
      "start": 6.7137,
      "duration": 0.142,
      "velocity": 109,
      "chip": "ym2612"
    },
    {
      "channel": 2,
      "note": 69,
      "start": 6.7159,
      "duration": 0.137,
      "velocity": 127,
      "chip": "ym2612"
    },
    {
      "channel": 0,
      "note": 67,
      "start": 6.8563,
      "duration": 0.1394,
      "velocity": 109,
      "chip": "ym2612"
    },
    {
      "channel": 1,
      "note": 30,
      "start": 6.857,
      "duration": 0.0915,
      "velocity": 112,
      "chip": "ym2612"
    },
    {
      "channel": 2,
      "note": 30,
      "start": 6.8588,
      "duration": 0.1856,
      "velocity": 119,
      "chip": "ym2612"
    },
    {
      "channel": 1,
      "note": 31,
      "start": 6.949,
      "duration": 1.0503,
      "velocity": 112,
      "chip": "ym2612"
    },
    {
      "channel": 0,
      "note": 69,
      "start": 6.9963,
      "duration": 0.145,
      "velocity": 109,
      "chip": "ym2612"
    },
    {
      "channel": 0,
      "note": 70,
      "start": 7.1419,
      "duration": 0.1422,
      "velocity": 109,
      "chip": "ym2612"
    },
    {
      "channel": 3,
      "note": 58,
      "start": 7.143,
      "duration": 0.2852,
      "velocity": 109,
      "chip": "ym2612"
    },
    {
      "channel": 4,
      "note": 55,
      "start": 7.1437,
      "duration": 0.2853,
      "velocity": 109,
      "chip": "ym2612"
    },
    {
      "channel": 5,
      "note": 50,
      "start": 7.1444,
      "duration": 0.2853,
      "velocity": 109,
      "chip": "ym2612"
    },
    {
      "channel": 2,
      "note": 69,
      "start": 7.1454,
      "duration": 0.1361,
      "velocity": 127,
      "chip": "ym2612"
    },
    {
      "channel": 0,
      "note": 69,
      "start": 7.2848,
      "duration": 0.1424,
      "velocity": 109,
      "chip": "ym2612"
    },
    {
      "channel": 2,
      "note": 69,
      "start": 7.2871,
      "duration": 0.1373,
      "velocity": 127,
      "chip": "ym2612"
    },
    {
      "channel": 0,
      "note": 70,
      "start": 7.4277,
      "duration": 0.1422,
      "velocity": 109,
      "chip": "ym2612"
    },
    {
      "channel": 3,
      "note": 58,
      "start": 7.4289,
      "duration": 0.2852,
      "velocity": 109,
      "chip": "ym2612"
    },
    {
      "channel": 4,
      "note": 55,
      "start": 7.4296,
      "duration": 0.2852,
      "velocity": 109,
      "chip": "ym2612"
    },
    {
      "channel": 5,
      "note": 50,
      "start": 7.4303,
      "duration": 0.2852,
      "velocity": 109,
      "chip": "ym2612"
    },
    {
      "channel": 2,
      "note": 69,
      "start": 7.4312,
      "duration": 0.1361,
      "velocity": 127,
      "chip": "ym2612"
    },
    {
      "channel": 0,
      "note": 72,
      "start": 7.5706,
      "duration": 0.1424,
      "velocity": 109,
      "chip": "ym2612"
    },
    {
      "channel": 2,
      "note": 69,
      "start": 7.5729,
      "duration": 0.1372,
      "velocity": 127,
      "chip": "ym2612"
    },
    {
      "channel": 0,
      "note": 70,
      "start": 7.7135,
      "duration": 0.1422,
      "velocity": 109,
      "chip": "ym2612"
    },
    {
      "channel": 3,
      "note": 58,
      "start": 7.7146,
      "duration": 0.2854,
      "velocity": 109,
      "chip": "ym2612"
    },
    {
      "channel": 4,
      "note": 55,
      "start": 7.7154,
      "duration": 0.285,
      "velocity": 109,
      "chip": "ym2612"
    },
    {
      "channel": 5,
      "note": 50,
      "start": 7.7161,
      "duration": 0.2846,
      "velocity": 109,
      "chip": "ym2612"
    },
    {
      "channel": 2,
      "note": 69,
      "start": 7.717,
      "duration": 0.1359,
      "velocity": 127,
      "chip": "ym2612"
    },
    {
      "channel": 0,
      "note": 72,
      "start": 7.8563,
      "duration": 0.1424,
      "velocity": 109,
      "chip": "ym2612"
    },
    {
      "channel": 2,
      "note": 69,
      "start": 7.8586,
      "duration": 0.1373,
      "velocity": 127,
      "chip": "ym2612"
    },
    {
      "channel": 0,
      "note": 74,
      "start": 7.9992,
      "duration": 0.1422,
      "velocity": 109,
      "chip": "ym2612"
    },
    {
      "channel": 1,
      "note": 30,
      "start": 7.9999,
      "duration": 0.0915,
      "velocity": 112,
      "chip": "ym2612"
    },
    {
      "channel": 2,
      "note": 30,
      "start": 8.0017,
      "duration": 0.137,
      "velocity": 119,
      "chip": "ym2612"
    },
    {
      "channel": 1,
      "note": 31,
      "start": 8.092,
      "duration": 1.0531,
      "velocity": 112,
      "chip": "ym2612"
    },
    {
      "channel": 0,
      "note": 72,
      "start": 8.142,
      "duration": 0.1395,
      "velocity": 109,
      "chip": "ym2612"
    },
    {
      "channel": 2,
      "note": 69,
      "start": 8.1435,
      "duration": 0.281,
      "velocity": 127,
      "chip": "ym2612"
    },
    {
      "channel": 0,
      "note": 74,
      "start": 8.2822,
      "duration": 0.145,
      "velocity": 109,
      "chip": "ym2612"
    },
    {
      "channel": 3,
      "note": 58,
      "start": 8.2833,
      "duration": 0.288,
      "velocity": 109,
      "chip": "ym2612"
    },
    {
      "channel": 4,
      "note": 55,
      "start": 8.2839,
      "duration": 0.288,
      "velocity": 109,
      "chip": "ym2612"
    },
    {
      "channel": 5,
      "note": 50,
      "start": 8.2847,
      "duration": 0.288,
      "velocity": 109,
      "chip": "ym2612"
    },
    {
      "channel": 0,
      "note": 75,
      "start": 8.4278,
      "duration": 0.1423,
      "velocity": 109,
      "chip": "ym2612"
    },
    {
      "channel": 2,
      "note": 69,
      "start": 8.4302,
      "duration": 0.1371,
      "velocity": 127,
      "chip": "ym2612"
    },
    {
      "channel": 0,
      "note": 77,
      "start": 8.5707,
      "duration": 0.1423,
      "velocity": 109,
      "chip": "ym2612"
    },
    {
      "channel": 3,
      "note": 58,
      "start": 8.5718,
      "duration": 0.2852,
      "velocity": 109,
      "chip": "ym2612"
    },
    {
      "channel": 4,
      "note": 55,
      "start": 8.5726,
      "duration": 0.2852,
      "velocity": 109,
      "chip": "ym2612"
    },
    {
      "channel": 5,
      "note": 50,
      "start": 8.5733,
      "duration": 0.2852,
      "velocity": 109,
      "chip": "ym2612"
    },
    {
      "channel": 2,
      "note": 69,
      "start": 8.5741,
      "duration": 0.136,
      "velocity": 127,
      "chip": "ym2612"
    },
    {
      "channel": 0,
      "note": 75,
      "start": 8.7136,
      "duration": 0.1423,
      "velocity": 109,
      "chip": "ym2612"
    },
    {
      "channel": 2,
      "note": 69,
      "start": 8.7159,
      "duration": 0.0579,
      "velocity": 127,
      "chip": "ym2612"
    },
    {
      "channel": 2,
      "note": 69,
      "start": 8.7791,
      "duration": 0.074,
      "velocity": 127,
      "chip": "ym2612"
    },
    {
      "channel": 0,
      "note": 74,
      "start": 8.8565,
      "duration": 0.1424,
      "velocity": 109,
      "chip": "ym2612"
    },
    {
      "channel": 3,
      "note": 58,
      "start": 8.8576,
      "duration": 0.291,
      "velocity": 109,
      "chip": "ym2612"
    },
    {
      "channel": 4,
      "note": 55,
      "start": 8.8583,
      "duration": 0.2932,
      "velocity": 109,
      "chip": "ym2612"
    },
    {
      "channel": 5,
      "note": 50,
      "start": 8.859,
      "duration": 0.2955,
      "velocity": 109,
      "chip": "ym2612"
    },
    {
      "channel": 2,
      "note": 69,
      "start": 8.8599,
      "duration": 0.1361,
      "velocity": 127,
      "chip": "ym2612"
    },
    {
      "channel": 0,
      "note": 72,
      "start": 8.9994,
      "duration": 0.1424,
      "velocity": 109,
      "chip": "ym2612"
    },
    {
      "channel": 2,
      "note": 69,
      "start": 9.0017,
      "duration": 0.1372,
      "velocity": 127,
      "chip": "ym2612"
    },
    {
      "channel": 0,
      "note": 67,
      "start": 9.1424,
      "duration": 0.1393,
      "velocity": 109,
      "chip": "ym2612"
    },
    {
      "channel": 1,
      "note": 30,
      "start": 9.1457,
      "duration": 0.0888,
      "velocity": 112,
      "chip": "ym2612"
    },
    {
      "channel": 2,
      "note": 30,
      "start": 9.1555,
      "duration": 0.1749,
      "velocity": 119,
      "chip": "ym2612"
    },
    {
      "channel": 1,
      "note": 31,
      "start": 9.235,
      "duration": 1.0504,
      "velocity": 112,
      "chip": "ym2612"
    },
    {
      "channel": 0,
      "note": 69,
      "start": 9.2824,
      "duration": 0.145,
      "velocity": 109,
      "chip": "ym2612"
    },
    {
      "channel": 0,
      "note": 70,
      "start": 9.428,
      "duration": 0.1423,
      "velocity": 109,
      "chip": "ym2612"
    },
    {
      "channel": 3,
      "note": 58,
      "start": 9.4291,
      "duration": 0.2852,
      "velocity": 109,
      "chip": "ym2612"
    },
    {
      "channel": 4,
      "note": 55,
      "start": 9.4299,
      "duration": 0.2852,
      "velocity": 109,
      "chip": "ym2612"
    },
    {
      "channel": 5,
      "note": 50,
      "start": 9.4306,
      "duration": 0.2852,
      "velocity": 109,
      "chip": "ym2612"
    },
    {
      "channel": 2,
      "note": 69,
      "start": 9.4315,
      "duration": 0.136,
      "velocity": 127,
      "chip": "ym2612"
    },
    {
      "channel": 0,
      "note": 69,
      "start": 9.5708,
      "duration": 0.1424,
      "velocity": 109,
      "chip": "ym2612"
    },
    {
      "channel": 2,
      "note": 69,
      "start": 9.5731,
      "duration": 0.1372,
      "velocity": 127,
      "chip": "ym2612"
    },
    {
      "channel": 0,
      "note": 70,
      "start": 9.7138,
      "duration": 0.1423,
      "velocity": 109,
      "chip": "ym2612"
    },
    {
      "channel": 3,
      "note": 58,
      "start": 9.7149,
      "duration": 0.2851,
      "velocity": 109,
      "chip": "ym2612"
    },
    {
      "channel": 4,
      "note": 55,
      "start": 9.7156,
      "duration": 0.2851,
      "velocity": 109,
      "chip": "ym2612"
    },
    {
      "channel": 5,
      "note": 50,
      "start": 9.7163,
      "duration": 0.2851,
      "velocity": 109,
      "chip": "ym2612"
    },
    {
      "channel": 2,
      "note": 69,
      "start": 9.7172,
      "duration": 0.1361,
      "velocity": 127,
      "chip": "ym2612"
    },
    {
      "channel": 0,
      "note": 72,
      "start": 9.8567,
      "duration": 0.1422,
      "velocity": 109,
      "chip": "ym2612"
    },
    {
      "channel": 2,
      "note": 69,
      "start": 9.859,
      "duration": 0.1371,
      "velocity": 127,
      "chip": "ym2612"
    },
    {
      "channel": 0,
      "note": 70,
      "start": 9.9995,
      "duration": 0.1423,
      "velocity": 109,
      "chip": "ym2612"
    },
    {
      "channel": 3,
      "note": 58,
      "start": 10.0006,
      "duration": 0.2856,
      "velocity": 109,
      "chip": "ym2612"
    },
    {
      "channel": 4,
      "note": 55,
      "start": 10.0012,
      "duration": 0.2852,
      "velocity": 109,
      "chip": "ym2612"
    },
    {
      "channel": 5,
      "note": 50,
      "start": 10.002,
      "duration": 0.2847,
      "velocity": 109,
      "chip": "ym2612"
    },
    {
      "channel": 2,
      "note": 69,
      "start": 10.0029,
      "duration": 0.1361,
      "velocity": 127,
      "chip": "ym2612"
    },
    {
      "channel": 0,
      "note": 72,
      "start": 10.1424,
      "duration": 0.1423,
      "velocity": 109,
      "chip": "ym2612"
    },
    {
      "channel": 2,
      "note": 69,
      "start": 10.1446,
      "duration": 0.1372,
      "velocity": 127,
      "chip": "ym2612"
    },
    {
      "channel": 0,
      "note": 74,
      "start": 10.2852,
      "duration": 0.1423,
      "velocity": 109,
      "chip": "ym2612"
    },
    {
      "channel": 1,
      "note": 30,
      "start": 10.2859,
      "duration": 0.0915,
      "velocity": 112,
      "chip": "ym2612"
    },
    {
      "channel": 2,
      "note": 30,
      "start": 10.2877,
      "duration": 0.137,
      "velocity": 119,
      "chip": "ym2612"
    },
    {
      "channel": 1,
      "note": 31,
      "start": 10.378,
      "duration": 1.0505,
      "velocity": 112,
      "chip": "ym2612"
    },
    {
      "channel": 0,
      "note": 72,
      "start": 10.4281,
      "duration": 0.1396,
      "velocity": 109,
      "chip": "ym2612"
    },
    {
      "channel": 2,
      "note": 69,
      "start": 10.4296,
      "duration": 0.2809,
      "velocity": 127,
      "chip": "ym2612"
    },
    {
      "channel": 0,
      "note": 74,
      "start": 10.5683,
      "duration": 0.1451,
      "velocity": 109,
      "chip": "ym2612"
    },
    {
      "channel": 3,
      "note": 58,
      "start": 10.5694,
      "duration": 0.2878,
      "velocity": 109,
      "chip": "ym2612"
    },
    {
      "channel": 4,
      "note": 55,
      "start": 10.5701,
      "duration": 0.2879,
      "velocity": 109,
      "chip": "ym2612"
    },
    {
      "channel": 5,
      "note": 50,
      "start": 10.5708,
      "duration": 0.2879,
      "velocity": 109,
      "chip": "ym2612"
    },
    {
      "channel": 0,
      "note": 75,
      "start": 10.714,
      "duration": 0.1422,
      "velocity": 109,
      "chip": "ym2612"
    },
    {
      "channel": 2,
      "note": 69,
      "start": 10.7163,
      "duration": 0.1371,
      "velocity": 127,
      "chip": "ym2612"
    },
    {
      "channel": 0,
      "note": 77,
      "start": 10.8567,
      "duration": 0.1423,
      "velocity": 109,
      "chip": "ym2612"
    },
    {
      "channel": 3,
      "note": 58,
      "start": 10.8578,
      "duration": 0.2853,
      "velocity": 109,
      "chip": "ym2612"
    },
    {
      "channel": 4,
      "note": 55,
      "start": 10.8586,
      "duration": 0.2852,
      "velocity": 109,
      "chip": "ym2612"
    },
    {
      "channel": 5,
      "note": 50,
      "start": 10.8593,
      "duration": 0.2852,
      "velocity": 109,
      "chip": "ym2612"
    },
    {
      "channel": 2,
      "note": 69,
      "start": 10.8602,
      "duration": 0.1361,
      "velocity": 127,
      "chip": "ym2612"
    },
    {
      "channel": 0,
      "note": 75,
      "start": 10.9996,
      "duration": 0.1424,
      "velocity": 109,
      "chip": "ym2612"
    },
    {
      "channel": 2,
      "note": 69,
      "start": 11.0019,
      "duration": 0.0578,
      "velocity": 127,
      "chip": "ym2612"
    },
    {
      "channel": 2,
      "note": 69,
      "start": 11.0651,
      "duration": 0.0741,
      "velocity": 127,
      "chip": "ym2612"
    },
    {
      "channel": 0,
      "note": 74,
      "start": 11.1425,
      "duration": 0.1423,
      "velocity": 109,
      "chip": "ym2612"
    },
    {
      "channel": 3,
      "note": 58,
      "start": 11.1436,
      "duration": 0.2856,
      "velocity": 109,
      "chip": "ym2612"
    },
    {
      "channel": 4,
      "note": 55,
      "start": 11.1444,
      "duration": 0.2851,
      "velocity": 109,
      "chip": "ym2612"
    },
    {
      "channel": 5,
      "note": 50,
      "start": 11.1451,
      "duration": 0.2847,
      "velocity": 109,
      "chip": "ym2612"
    },
    {
      "channel": 2,
      "note": 69,
      "start": 11.146,
      "duration": 0.136,
      "velocity": 127,
      "chip": "ym2612"
    },
    {
      "channel": 0,
      "note": 72,
      "start": 11.2854,
      "duration": 0.1423,
      "velocity": 109,
      "chip": "ym2612"
    },
    {
      "channel": 2,
      "note": 69,
      "start": 11.2877,
      "duration": 0.1372,
      "velocity": 127,
      "chip": "ym2612"
    },
    {
      "channel": 0,
      "note": 69,
      "start": 11.4283,
      "duration": 0.1395,
      "velocity": 109,
      "chip": "ym2612"
    },
    {
      "channel": 1,
      "note": 31,
      "start": 11.429,
      "duration": 0.0914,
      "velocity": 112,
      "chip": "ym2612"
    },
    {
      "channel": 2,
      "note": 30,
      "start": 11.4308,
      "duration": 0.1856,
      "velocity": 119,
      "chip": "ym2612"
    },
    {
      "channel": 1,
      "note": 33,
      "start": 11.521,
      "duration": 1.0505,
      "velocity": 112,
      "chip": "ym2612"
    },
    {
      "channel": 0,
      "note": 71,
      "start": 11.5684,
      "duration": 0.1452,
      "velocity": 109,
      "chip": "ym2612"
    },
    {
      "channel": 0,
      "note": 73,
      "start": 11.7141,
      "duration": 0.1422,
      "velocity": 109,
      "chip": "ym2612"
    },
    {
      "channel": 3,
      "note": 64,
      "start": 11.7152,
      "duration": 0.2851,
      "velocity": 109,
      "chip": "ym2612"
    },
    {
      "channel": 4,
      "note": 52,
      "start": 11.7159,
      "duration": 0.2851,
      "velocity": 109,
      "chip": "ym2612"
    },
    {
      "channel": 5,
      "note": 49,
      "start": 11.7166,
      "duration": 0.2851,
      "velocity": 109,
      "chip": "ym2612"
    },
    {
      "channel": 2,
      "note": 69,
      "start": 11.7175,
      "duration": 0.136,
      "velocity": 127,
      "chip": "ym2612"
    },
    {
      "channel": 0,
      "note": 71,
      "start": 11.8568,
      "duration": 0.1424,
      "velocity": 109,
      "chip": "ym2612"
    },
    {
      "channel": 2,
      "note": 69,
      "start": 11.8591,
      "duration": 0.1373,
      "velocity": 127,
      "chip": "ym2612"
    },
    {
      "channel": 0,
      "note": 73,
      "start": 11.9998,
      "duration": 0.1422,
      "velocity": 109,
      "chip": "ym2612"
    },
    {
      "channel": 3,
      "note": 64,
      "start": 12.0009,
      "duration": 0.2852,
      "velocity": 109,
      "chip": "ym2612"
    },
    {
      "channel": 4,
      "note": 52,
      "start": 12.0016,
      "duration": 0.2852,
      "velocity": 109,
      "chip": "ym2612"
    },
    {
      "channel": 5,
      "note": 49,
      "start": 12.0023,
      "duration": 0.2852,
      "velocity": 109,
      "chip": "ym2612"
    },
    {
      "channel": 2,
      "note": 69,
      "start": 12.0032,
      "duration": 0.1361,
      "velocity": 127,
      "chip": "ym2612"
    },
    {
      "channel": 0,
      "note": 74,
      "start": 12.1427,
      "duration": 0.1423,
      "velocity": 109,
      "chip": "ym2612"
    },
    {
      "channel": 2,
      "note": 69,
      "start": 12.1449,
      "duration": 0.1373,
      "velocity": 127,
      "chip": "ym2612"
    },
    {
      "channel": 0,
      "note": 73,
      "start": 12.2856,
      "duration": 0.1424,
      "velocity": 109,
      "chip": "ym2612"
    },
    {
      "channel": 3,
      "note": 64,
      "start": 12.2866,
      "duration": 0.2856,
      "velocity": 109,
      "chip": "ym2612"
    },
    {
      "channel": 4,
      "note": 52,
      "start": 12.2873,
      "duration": 0.2852,
      "velocity": 109,
      "chip": "ym2612"
    },
    {
      "channel": 5,
      "note": 49,
      "start": 12.2881,
      "duration": 0.2847,
      "velocity": 109,
      "chip": "ym2612"
    },
    {
      "channel": 2,
      "note": 69,
      "start": 12.2889,
      "duration": 0.1362,
      "velocity": 127,
      "chip": "ym2612"
    },
    {
      "channel": 0,
      "note": 74,
      "start": 12.4285,
      "duration": 0.1422,
      "velocity": 109,
      "chip": "ym2612"
    },
    {
      "channel": 2,
      "note": 69,
      "start": 12.4308,
      "duration": 0.1371,
      "velocity": 127,
      "chip": "ym2612"
    },
    {
      "channel": 0,
      "note": 76,
      "start": 12.5714,
      "duration": 0.1422,
      "velocity": 109,
      "chip": "ym2612"
    },
    {
      "channel": 1,
      "note": 31,
      "start": 12.5721,
      "duration": 0.0915,
      "velocity": 112,
      "chip": "ym2612"
    },
    {
      "channel": 2,
      "note": 30,
      "start": 12.5738,
      "duration": 0.1369,
      "velocity": 119,
      "chip": "ym2612"
    },
    {
      "channel": 1,
      "note": 33,
      "start": 12.6642,
      "duration": 1.0504,
      "velocity": 112,
      "chip": "ym2612"
    },
    {
      "channel": 0,
      "note": 74,
      "start": 12.7142,
      "duration": 0.1395,
      "velocity": 109,
      "chip": "ym2612"
    },
    {
      "channel": 2,
      "note": 69,
      "start": 12.7157,
      "duration": 0.2809,
      "velocity": 127,
      "chip": "ym2612"
    },
    {
      "channel": 0,
      "note": 76,
      "start": 12.8544,
      "duration": 0.145,
      "velocity": 109,
      "chip": "ym2612"
    },
    {
      "channel": 3,
      "note": 64,
      "start": 12.8555,
      "duration": 0.2878,
      "velocity": 109,
      "chip": "ym2612"
    },
    {
      "channel": 4,
      "note": 52,
      "start": 12.8561,
      "duration": 0.2879,
      "velocity": 109,
      "chip": "ym2612"
    },
    {
      "channel": 5,
      "note": 49,
      "start": 12.8569,
      "duration": 0.2878,
      "velocity": 109,
      "chip": "ym2612"
    },
    {
      "channel": 0,
      "note": 78,
      "start": 13.0,
      "duration": 0.1422,
      "velocity": 109,
      "chip": "ym2612"
    },
    {
      "channel": 2,
      "note": 69,
      "start": 13.0022,
      "duration": 0.1372,
      "velocity": 127,
      "chip": "ym2612"
    },
    {
      "channel": 0,
      "note": 79,
      "start": 13.1428,
      "duration": 0.1424,
      "velocity": 109,
      "chip": "ym2612"
    },
    {
      "channel": 3,
      "note": 64,
      "start": 13.1439,
      "duration": 0.2855,
      "velocity": 109,
      "chip": "ym2612"
    },
    {
      "channel": 4,
      "note": 52,
      "start": 13.1446,
      "duration": 0.2856,
      "velocity": 109,
      "chip": "ym2612"
    },
    {
      "channel": 5,
      "note": 49,
      "start": 13.1454,
      "duration": 0.2855,
      "velocity": 109,
      "chip": "ym2612"
    },
    {
      "channel": 2,
      "note": 69,
      "start": 13.1462,
      "duration": 0.1361,
      "velocity": 127,
      "chip": "ym2612"
    },
    {
      "channel": 0,
      "note": 78,
      "start": 13.2857,
      "duration": 0.1425,
      "velocity": 109,
      "chip": "ym2612"
    },
    {
      "channel": 2,
      "note": 69,
      "start": 13.288,
      "duration": 0.0578,
      "velocity": 127,
      "chip": "ym2612"
    },
    {
      "channel": 2,
      "note": 69,
      "start": 13.3511,
      "duration": 0.0744,
      "velocity": 127,
      "chip": "ym2612"
    },
    {
      "channel": 0,
      "note": 79,
      "start": 13.4289,
      "duration": 0.1419,
      "velocity": 109,
      "chip": "ym2612"
    },
    {
      "channel": 3,
      "note": 64,
      "start": 13.43,
      "duration": 0.2853,
      "velocity": 109,
      "chip": "ym2612"
    },
    {
      "channel": 4,
      "note": 52,
      "start": 13.4307,
      "duration": 0.2849,
      "velocity": 109,
      "chip": "ym2612"
    },
    {
      "channel": 5,
      "note": 49,
      "start": 13.4315,
      "duration": 0.2844,
      "velocity": 109,
      "chip": "ym2612"
    },
    {
      "channel": 2,
      "note": 69,
      "start": 13.4323,
      "duration": 0.1358,
      "velocity": 127,
      "chip": "ym2612"
    },
    {
      "channel": 0,
      "note": 81,
      "start": 13.5715,
      "duration": 0.1424,
      "velocity": 109,
      "chip": "ym2612"
    },
    {
      "channel": 2,
      "note": 69,
      "start": 13.5737,
      "duration": 0.1373,
      "velocity": 127,
      "chip": "ym2612"
    },
    {
      "channel": 0,
      "note": 74,
      "start": 13.7144,
      "duration": 0.1394,
      "velocity": 109,
      "chip": "ym2612"
    },
    {
      "channel": 1,
      "note": 25,
      "start": 13.7151,
      "duration": 0.0915,
      "velocity": 112,
      "chip": "ym2612"
    },
    {
      "channel": 2,
      "note": 30,
      "start": 13.7169,
      "duration": 0.1855,
      "velocity": 119,
      "chip": "ym2612"
    },
    {
      "channel": 1,
      "note": 26,
      "start": 13.8072,
      "duration": 1.0503,
      "velocity": 112,
      "chip": "ym2612"
    },
    {
      "channel": 0,
      "note": 76,
      "start": 13.8544,
      "duration": 0.1451,
      "velocity": 109,
      "chip": "ym2612"
    },
    {
      "channel": 0,
      "note": 78,
      "start": 14.0001,
      "duration": 0.1422,
      "velocity": 109,
      "chip": "ym2612"
    },
    {
      "channel": 3,
      "note": 54,
      "start": 14.0012,
      "duration": 0.2852,
      "velocity": 109,
      "chip": "ym2612"
    },
    {
      "channel": 4,
      "note": 50,
      "start": 14.0019,
      "duration": 0.2852,
      "velocity": 109,
      "chip": "ym2612"
    },
    {
      "channel": 5,
      "note": 45,
      "start": 14.0027,
      "duration": 0.2852,
      "velocity": 109,
      "chip": "ym2612"
    },
    {
      "channel": 2,
      "note": 69,
      "start": 14.0035,
      "duration": 0.1361,
      "velocity": 127,
      "chip": "ym2612"
    },
    {
      "channel": 0,
      "note": 76,
      "start": 14.143,
      "duration": 0.1423,
      "velocity": 109,
      "chip": "ym2612"
    },
    {
      "channel": 2,
      "note": 69,
      "start": 14.1454,
      "duration": 0.1371,
      "velocity": 127,
      "chip": "ym2612"
    },
    {
      "channel": 0,
      "note": 78,
      "start": 14.2859,
      "duration": 0.1422,
      "velocity": 109,
      "chip": "ym2612"
    },
    {
      "channel": 3,
      "note": 54,
      "start": 14.2869,
      "duration": 0.2852,
      "velocity": 109,
      "chip": "ym2612"
    },
    {
      "channel": 4,
      "note": 50,
      "start": 14.2876,
      "duration": 0.2852,
      "velocity": 109,
      "chip": "ym2612"
    },
    {
      "channel": 5,
      "note": 45,
      "start": 14.2884,
      "duration": 0.2852,
      "velocity": 109,
      "chip": "ym2612"
    },
    {
      "channel": 2,
      "note": 69,
      "start": 14.2892,
      "duration": 0.1361,
      "velocity": 127,
      "chip": "ym2612"
    },
    {
      "channel": 0,
      "note": 79,
      "start": 14.4287,
      "duration": 0.1423,
      "velocity": 109,
      "chip": "ym2612"
    },
    {
      "channel": 2,
      "note": 69,
      "start": 14.431,
      "duration": 0.1372,
      "velocity": 127,
      "chip": "ym2612"
    },
    {
      "channel": 0,
      "note": 78,
      "start": 14.5716,
      "duration": 0.1423,
      "velocity": 109,
      "chip": "ym2612"
    },
    {
      "channel": 3,
      "note": 54,
      "start": 14.5727,
      "duration": 0.2856,
      "velocity": 109,
      "chip": "ym2612"
    },
    {
      "channel": 4,
      "note": 50,
      "start": 14.5734,
      "duration": 0.2852,
      "velocity": 109,
      "chip": "ym2612"
    },
    {
      "channel": 5,
      "note": 45,
      "start": 14.5741,
      "duration": 0.2847,
      "velocity": 109,
      "chip": "ym2612"
    },
    {
      "channel": 2,
      "note": 69,
      "start": 14.575,
      "duration": 0.1361,
      "velocity": 127,
      "chip": "ym2612"
    },
    {
      "channel": 0,
      "note": 79,
      "start": 14.7145,
      "duration": 0.1423,
      "velocity": 109,
      "chip": "ym2612"
    },
    {
      "channel": 2,
      "note": 69,
      "start": 14.7168,
      "duration": 0.1372,
      "velocity": 127,
      "chip": "ym2612"
    },
    {
      "channel": 0,
      "note": 81,
      "start": 14.8574,
      "duration": 0.1423,
      "velocity": 109,
      "chip": "ym2612"
    },
    {
      "channel": 1,
      "note": 25,
      "start": 14.8581,
      "duration": 0.0915,
      "velocity": 112,
      "chip": "ym2612"
    },
    {
      "channel": 2,
      "note": 30,
      "start": 14.8598,
      "duration": 0.137,
      "velocity": 119,
      "chip": "ym2612"
    },
    {
      "channel": 1,
      "note": 26,
      "start": 14.9501,
      "duration": 1.0505,
      "velocity": 112,
      "chip": "ym2612"
    },
    {
      "channel": 0,
      "note": 79,
      "start": 15.0002,
      "duration": 0.1395,
      "velocity": 109,
      "chip": "ym2612"
    },
    {
      "channel": 2,
      "note": 69,
      "start": 15.0017,
      "duration": 0.2809,
      "velocity": 127,
      "chip": "ym2612"
    },
    {
      "channel": 0,
      "note": 81,
      "start": 15.1404,
      "duration": 0.145,
      "velocity": 109,
      "chip": "ym2612"
    },
    {
      "channel": 3,
      "note": 54,
      "start": 15.1415,
      "duration": 0.288,
      "velocity": 109,
      "chip": "ym2612"
    },
    {
      "channel": 4,
      "note": 50,
      "start": 15.1422,
      "duration": 0.288,
      "velocity": 109,
      "chip": "ym2612"
    },
    {
      "channel": 5,
      "note": 45,
      "start": 15.1429,
      "duration": 0.288,
      "velocity": 109,
      "chip": "ym2612"
    },
    {
      "channel": 0,
      "note": 82,
      "start": 15.2861,
      "duration": 0.1422,
      "velocity": 109,
      "chip": "ym2612"
    },
    {
      "channel": 2,
      "note": 69,
      "start": 15.2883,
      "duration": 0.1372,
      "velocity": 127,
      "chip": "ym2612"
    },
    {
      "channel": 0,
      "note": 84,
      "start": 15.4289,
      "duration": 0.1423,
      "velocity": 109,
      "chip": "ym2612"
    },
    {
      "channel": 3,
      "note": 54,
      "start": 15.43,
      "duration": 0.2852,
      "velocity": 109,
      "chip": "ym2612"
    },
    {
      "channel": 4,
      "note": 50,
      "start": 15.4308,
      "duration": 0.2852,
      "velocity": 109,
      "chip": "ym2612"
    },
    {
      "channel": 5,
      "note": 45,
      "start": 15.4315,
      "duration": 0.2852,
      "velocity": 109,
      "chip": "ym2612"
    },
    {
      "channel": 2,
      "note": 69,
      "start": 15.4323,
      "duration": 0.1361,
      "velocity": 127,
      "chip": "ym2612"
    },
    {
      "channel": 0,
      "note": 82,
      "start": 15.5718,
      "duration": 0.1423,
      "velocity": 109,
      "chip": "ym2612"
    },
    {
      "channel": 2,
      "note": 69,
      "start": 15.5741,
      "duration": 0.0578,
      "velocity": 127,
      "chip": "ym2612"
    },
    {
      "channel": 2,
      "note": 69,
      "start": 15.6371,
      "duration": 0.0741,
      "velocity": 127,
      "chip": "ym2612"
    },
    {
      "channel": 0,
      "note": 84,
      "start": 15.7147,
      "duration": 0.1422,
      "velocity": 109,
      "chip": "ym2612"
    },
    {
      "channel": 3,
      "note": 54,
      "start": 15.7158,
      "duration": 0.2856,
      "velocity": 109,
      "chip": "ym2612"
    },
    {
      "channel": 4,
      "note": 50,
      "start": 15.7165,
      "duration": 0.2851,
      "velocity": 109,
      "chip": "ym2612"
    },
    {
      "channel": 5,
      "note": 45,
      "start": 15.7172,
      "duration": 0.2847,
      "velocity": 109,
      "chip": "ym2612"
    },
    {
      "channel": 2,
      "note": 69,
      "start": 15.718,
      "duration": 0.1361,
      "velocity": 127,
      "chip": "ym2612"
    },
    {
      "channel": 0,
      "note": 86,
      "start": 15.8576,
      "duration": 0.1424,
      "velocity": 109,
      "chip": "ym2612"
    },
    {
      "channel": 2,
      "note": 69,
      "start": 15.8598,
      "duration": 0.1373,
      "velocity": 127,
      "chip": "ym2612"
    },
    {
      "channel": 0,
      "note": 67,
      "start": 16.0005,
      "duration": 0.1394,
      "velocity": 109,
      "chip": "ym2612"
    },
    {
      "channel": 1,
      "note": 30,
      "start": 16.0012,
      "duration": 0.0914,
      "velocity": 112,
      "chip": "ym2612"
    },
    {
      "channel": 2,
      "note": 30,
      "start": 16.003,
      "duration": 0.1856,
      "velocity": 119,
      "chip": "ym2612"
    },
    {
      "channel": 1,
      "note": 31,
      "start": 16.0932,
      "duration": 1.0503,
      "velocity": 112,
      "chip": "ym2612"
    },
    {
      "channel": 0,
      "note": 69,
      "start": 16.1405,
      "duration": 0.1451,
      "velocity": 109,
      "chip": "ym2612"
    },
    {
      "channel": 0,
      "note": 70,
      "start": 16.2861,
      "duration": 0.1424,
      "velocity": 109,
      "chip": "ym2612"
    },
    {
      "channel": 3,
      "note": 58,
      "start": 16.2872,
      "duration": 0.2853,
      "velocity": 109,
      "chip": "ym2612"
    },
    {
      "channel": 4,
      "note": 55,
      "start": 16.288,
      "duration": 0.2852,
      "velocity": 109,
      "chip": "ym2612"
    },
    {
      "channel": 5,
      "note": 50,
      "start": 16.2887,
      "duration": 0.2852,
      "velocity": 109,
      "chip": "ym2612"
    },
    {
      "channel": 2,
      "note": 69,
      "start": 16.2895,
      "duration": 0.1361,
      "velocity": 127,
      "chip": "ym2612"
    },
    {
      "channel": 0,
      "note": 69,
      "start": 16.429,
      "duration": 0.1423,
      "velocity": 109,
      "chip": "ym2612"
    },
    {
      "channel": 2,
      "note": 69,
      "start": 16.4313,
      "duration": 0.1372,
      "velocity": 127,
      "chip": "ym2612"
    },
    {
      "channel": 0,
      "note": 70,
      "start": 16.5719,
      "duration": 0.1424,
      "velocity": 109,
      "chip": "ym2612"
    },
    {
      "channel": 3,
      "note": 58,
      "start": 16.573,
      "duration": 0.2852,
      "velocity": 109,
      "chip": "ym2612"
    },
    {
      "channel": 4,
      "note": 55,
      "start": 16.5738,
      "duration": 0.2851,
      "velocity": 109,
      "chip": "ym2612"
    },
    {
      "channel": 5,
      "note": 50,
      "start": 16.5745,
      "duration": 0.2852,
      "velocity": 109,
      "chip": "ym2612"
    },
    {
      "channel": 2,
      "note": 69,
      "start": 16.5754,
      "duration": 0.1361,
      "velocity": 127,
      "chip": "ym2612"
    },
    {
      "channel": 0,
      "note": 72,
      "start": 16.7149,
      "duration": 0.1422,
      "velocity": 109,
      "chip": "ym2612"
    },
    {
      "channel": 2,
      "note": 69,
      "start": 16.7172,
      "duration": 0.1371,
      "velocity": 127,
      "chip": "ym2612"
    },
    {
      "channel": 0,
      "note": 70,
      "start": 16.8577,
      "duration": 0.1422,
      "velocity": 109,
      "chip": "ym2612"
    },
    {
      "channel": 3,
      "note": 58,
      "start": 16.8588,
      "duration": 0.2854,
      "velocity": 109,
      "chip": "ym2612"
    },
    {
      "channel": 4,
      "note": 55,
      "start": 16.8595,
      "duration": 0.2851,
      "velocity": 109,
      "chip": "ym2612"
    },
    {
      "channel": 5,
      "note": 50,
      "start": 16.8602,
      "duration": 0.2846,
      "velocity": 109,
      "chip": "ym2612"
    },
    {
      "channel": 2,
      "note": 69,
      "start": 16.861,
      "duration": 0.1361,
      "velocity": 127,
      "chip": "ym2612"
    },
    {
      "channel": 0,
      "note": 72,
      "start": 17.0005,
      "duration": 0.1422,
      "velocity": 109,
      "chip": "ym2612"
    },
    {
      "channel": 2,
      "note": 69,
      "start": 17.0028,
      "duration": 0.1371,
      "velocity": 127,
      "chip": "ym2612"
    },
    {
      "channel": 0,
      "note": 74,
      "start": 17.1434,
      "duration": 0.1423,
      "velocity": 109,
      "chip": "ym2612"
    },
    {
      "channel": 1,
      "note": 30,
      "start": 17.1441,
      "duration": 0.0916,
      "velocity": 112,
      "chip": "ym2612"
    },
    {
      "channel": 2,
      "note": 30,
      "start": 17.1459,
      "duration": 0.137,
      "velocity": 119,
      "chip": "ym2612"
    },
    {
      "channel": 1,
      "note": 31,
      "start": 17.2362,
      "duration": 1.0505,
      "velocity": 112,
      "chip": "ym2612"
    },
    {
      "channel": 0,
      "note": 72,
      "start": 17.2863,
      "duration": 0.1396,
      "velocity": 109,
      "chip": "ym2612"
    },
    {
      "channel": 2,
      "note": 69,
      "start": 17.2878,
      "duration": 0.2808,
      "velocity": 127,
      "chip": "ym2612"
    },
    {
      "channel": 0,
      "note": 74,
      "start": 17.4264,
      "duration": 0.145,
      "velocity": 109,
      "chip": "ym2612"
    },
    {
      "channel": 3,
      "note": 58,
      "start": 17.4275,
      "duration": 0.288,
      "velocity": 109,
      "chip": "ym2612"
    },
    {
      "channel": 4,
      "note": 55,
      "start": 17.4283,
      "duration": 0.288,
      "velocity": 109,
      "chip": "ym2612"
    },
    {
      "channel": 5,
      "note": 50,
      "start": 17.429,
      "duration": 0.2879,
      "velocity": 109,
      "chip": "ym2612"
    },
    {
      "channel": 0,
      "note": 75,
      "start": 17.572,
      "duration": 0.1424,
      "velocity": 109,
      "chip": "ym2612"
    },
    {
      "channel": 2,
      "note": 69,
      "start": 17.5743,
      "duration": 0.1373,
      "velocity": 127,
      "chip": "ym2612"
    },
    {
      "channel": 0,
      "note": 77,
      "start": 17.715,
      "duration": 0.1422,
      "velocity": 109,
      "chip": "ym2612"
    },
    {
      "channel": 3,
      "note": 58,
      "start": 17.7161,
      "duration": 0.2851,
      "velocity": 109,
      "chip": "ym2612"
    },
    {
      "channel": 4,
      "note": 55,
      "start": 17.7168,
      "duration": 0.285,
      "velocity": 109,
      "chip": "ym2612"
    },
    {
      "channel": 5,
      "note": 50,
      "start": 17.7176,
      "duration": 0.285,
      "velocity": 109,
      "chip": "ym2612"
    },
    {
      "channel": 2,
      "note": 69,
      "start": 17.7184,
      "duration": 0.136,
      "velocity": 127,
      "chip": "ym2612"
    },
    {
      "channel": 0,
      "note": 75,
      "start": 17.8578,
      "duration": 0.1422,
      "velocity": 109,
      "chip": "ym2612"
    },
    {
      "channel": 2,
      "note": 69,
      "start": 17.8601,
      "duration": 0.0578,
      "velocity": 127,
      "chip": "ym2612"
    },
    {
      "channel": 2,
      "note": 69,
      "start": 17.9231,
      "duration": 0.0741,
      "velocity": 127,
      "chip": "ym2612"
    },
    {
      "channel": 0,
      "note": 74,
      "start": 18.0006,
      "duration": 0.1424,
      "velocity": 109,
      "chip": "ym2612"
    },
    {
      "channel": 3,
      "note": 58,
      "start": 18.0017,
      "duration": 0.2859,
      "velocity": 109,
      "chip": "ym2612"
    },
    {
      "channel": 4,
      "note": 55,
      "start": 18.0025,
      "duration": 0.2855,
      "velocity": 109,
      "chip": "ym2612"
    },
    {
      "channel": 5,
      "note": 50,
      "start": 18.0032,
      "duration": 0.2852,
      "velocity": 109,
      "chip": "ym2612"
    },
    {
      "channel": 2,
      "note": 69,
      "start": 18.0041,
      "duration": 0.1362,
      "velocity": 127,
      "chip": "ym2612"
    },
    {
      "channel": 0,
      "note": 72,
      "start": 18.1436,
      "duration": 0.1423,
      "velocity": 109,
      "chip": "ym2612"
    },
    {
      "channel": 2,
      "note": 69,
      "start": 18.146,
      "duration": 0.1371,
      "velocity": 127,
      "chip": "ym2612"
    },
    {
      "channel": 0,
      "note": 63,
      "start": 18.2865,
      "duration": 0.1394,
      "velocity": 109,
      "chip": "ym2612"
    },
    {
      "channel": 1,
      "note": 26,
      "start": 18.2873,
      "duration": 0.0914,
      "velocity": 112,
      "chip": "ym2612"
    },
    {
      "channel": 2,
      "note": 30,
      "start": 18.2894,
      "duration": 0.1852,
      "velocity": 119,
      "chip": "ym2612"
    },
    {
      "channel": 1,
      "note": 27,
      "start": 18.3793,
      "duration": 1.0504,
      "velocity": 112,
      "chip": "ym2612"
    },
    {
      "channel": 0,
      "note": 65,
      "start": 18.4265,
      "duration": 0.1451,
      "velocity": 109,
      "chip": "ym2612"
    },
    {
      "channel": 0,
      "note": 67,
      "start": 18.5722,
      "duration": 0.1424,
      "velocity": 109,
      "chip": "ym2612"
    },
    {
      "channel": 3,
      "note": 55,
      "start": 18.5733,
      "duration": 0.2852,
      "velocity": 109,
      "chip": "ym2612"
    },
    {
      "channel": 4,
      "note": 51,
      "start": 18.574,
      "duration": 0.2852,
      "velocity": 109,
      "chip": "ym2612"
    },
    {
      "channel": 5,
      "note": 46,
      "start": 18.5747,
      "duration": 0.2852,
      "velocity": 109,
      "chip": "ym2612"
    },
    {
      "channel": 2,
      "note": 69,
      "start": 18.5756,
      "duration": 0.1362,
      "velocity": 127,
      "chip": "ym2612"
    },
    {
      "channel": 0,
      "note": 65,
      "start": 18.7152,
      "duration": 0.1422,
      "velocity": 109,
      "chip": "ym2612"
    },
    {
      "channel": 2,
      "note": 69,
      "start": 18.7175,
      "duration": 0.1371,
      "velocity": 127,
      "chip": "ym2612"
    },
    {
      "channel": 0,
      "note": 67,
      "start": 18.858,
      "duration": 0.1422,
      "velocity": 109,
      "chip": "ym2612"
    },
    {
      "channel": 3,
      "note": 55,
      "start": 18.8591,
      "duration": 0.2851,
      "velocity": 109,
      "chip": "ym2612"
    },
    {
      "channel": 4,
      "note": 51,
      "start": 18.8598,
      "duration": 0.2852,
      "velocity": 109,
      "chip": "ym2612"
    },
    {
      "channel": 5,
      "note": 46,
      "start": 18.8605,
      "duration": 0.2852,
      "velocity": 109,
      "chip": "ym2612"
    },
    {
      "channel": 2,
      "note": 69,
      "start": 18.8614,
      "duration": 0.1361,
      "velocity": 127,
      "chip": "ym2612"
    },
    {
      "channel": 0,
      "note": 69,
      "start": 19.0008,
      "duration": 0.1423,
      "velocity": 109,
      "chip": "ym2612"
    },
    {
      "channel": 2,
      "note": 69,
      "start": 19.0031,
      "duration": 0.1373,
      "velocity": 127,
      "chip": "ym2612"
    },
    {
      "channel": 0,
      "note": 67,
      "start": 19.1437,
      "duration": 0.1422,
      "velocity": 109,
      "chip": "ym2612"
    },
    {
      "channel": 3,
      "note": 55,
      "start": 19.1448,
      "duration": 0.2856,
      "velocity": 109,
      "chip": "ym2612"
    },
    {
      "channel": 4,
      "note": 51,
      "start": 19.1456,
      "duration": 0.2851,
      "velocity": 109,
      "chip": "ym2612"
    },
    {
      "channel": 5,
      "note": 46,
      "start": 19.1463,
      "duration": 0.2847,
      "velocity": 109,
      "chip": "ym2612"
    },
    {
      "channel": 2,
      "note": 69,
      "start": 19.1472,
      "duration": 0.136,
      "velocity": 127,
      "chip": "ym2612"
    },
    {
      "channel": 0,
      "note": 69,
      "start": 19.2866,
      "duration": 0.1424,
      "velocity": 109,
      "chip": "ym2612"
    },
    {
      "channel": 2,
      "note": 69,
      "start": 19.2888,
      "duration": 0.1372,
      "velocity": 127,
      "chip": "ym2612"
    },
    {
      "channel": 0,
      "note": 70,
      "start": 19.4295,
      "duration": 0.1423,
      "velocity": 109,
      "chip": "ym2612"
    },
    {
      "channel": 1,
      "note": 26,
      "start": 19.4302,
      "duration": 0.0915,
      "velocity": 112,
      "chip": "ym2612"
    },
    {
      "channel": 2,
      "note": 30,
      "start": 19.432,
      "duration": 0.137,
      "velocity": 119,
      "chip": "ym2612"
    },
    {
      "channel": 1,
      "note": 27,
      "start": 19.5222,
      "duration": 1.0505,
      "velocity": 112,
      "chip": "ym2612"
    },
    {
      "channel": 0,
      "note": 69,
      "start": 19.5724,
      "duration": 0.1396,
      "velocity": 109,
      "chip": "ym2612"
    },
    {
      "channel": 2,
      "note": 69,
      "start": 19.5738,
      "duration": 0.2809,
      "velocity": 127,
      "chip": "ym2612"
    },
    {
      "channel": 0,
      "note": 70,
      "start": 19.7125,
      "duration": 0.145,
      "velocity": 109,
      "chip": "ym2612"
    },
    {
      "channel": 3,
      "note": 55,
      "start": 19.7136,
      "duration": 0.2879,
      "velocity": 109,
      "chip": "ym2612"
    },
    {
      "channel": 4,
      "note": 51,
      "start": 19.7143,
      "duration": 0.2879,
      "velocity": 109,
      "chip": "ym2612"
    },
    {
      "channel": 5,
      "note": 46,
      "start": 19.7151,
      "duration": 0.2879,
      "velocity": 109,
      "chip": "ym2612"
    },
    {
      "channel": 0,
      "note": 72,
      "start": 19.8581,
      "duration": 0.1423,
      "velocity": 109,
      "chip": "ym2612"
    },
    {
      "channel": 2,
      "note": 69,
      "start": 19.8604,
      "duration": 0.1373,
      "velocity": 127,
      "chip": "ym2612"
    },
    {
      "channel": 0,
      "note": 74,
      "start": 20.001,
      "duration": 0.1424,
      "velocity": 109,
      "chip": "ym2612"
    },
    {
      "channel": 3,
      "note": 55,
      "start": 20.0021,
      "duration": 0.2851,
      "velocity": 109,
      "chip": "ym2612"
    },
    {
      "channel": 4,
      "note": 51,
      "start": 20.0028,
      "duration": 0.2852,
      "velocity": 109,
      "chip": "ym2612"
    },
    {
      "channel": 5,
      "note": 46,
      "start": 20.0035,
      "duration": 0.2851,
      "velocity": 109,
      "chip": "ym2612"
    },
    {
      "channel": 2,
      "note": 69,
      "start": 20.0044,
      "duration": 0.1363,
      "velocity": 127,
      "chip": "ym2612"
    },
    {
      "channel": 0,
      "note": 72,
      "start": 20.1441,
      "duration": 0.1421,
      "velocity": 109,
      "chip": "ym2612"
    },
    {
      "channel": 2,
      "note": 69,
      "start": 20.1464,
      "duration": 0.0576,
      "velocity": 127,
      "chip": "ym2612"
    },
    {
      "channel": 2,
      "note": 69,
      "start": 20.2092,
      "duration": 0.0741,
      "velocity": 127,
      "chip": "ym2612"
    },
    {
      "channel": 0,
      "note": 74,
      "start": 20.2867,
      "duration": 0.1424,
      "velocity": 109,
      "chip": "ym2612"
    },
    {
      "channel": 3,
      "note": 55,
      "start": 20.2878,
      "duration": 0.2856,
      "velocity": 109,
      "chip": "ym2612"
    },
    {
      "channel": 4,
      "note": 51,
      "start": 20.2885,
      "duration": 0.2852,
      "velocity": 109,
      "chip": "ym2612"
    },
    {
      "channel": 5,
      "note": 46,
      "start": 20.2892,
      "duration": 0.2848,
      "velocity": 109,
      "chip": "ym2612"
    },
    {
      "channel": 2,
      "note": 69,
      "start": 20.2901,
      "duration": 0.1362,
      "velocity": 127,
      "chip": "ym2612"
    },
    {
      "channel": 0,
      "note": 75,
      "start": 20.4297,
      "duration": 0.1423,
      "velocity": 109,
      "chip": "ym2612"
    },
    {
      "channel": 2,
      "note": 69,
      "start": 20.432,
      "duration": 0.1372,
      "velocity": 127,
      "chip": "ym2612"
    },
    {
      "channel": 0,
      "note": 65,
      "start": 20.5726,
      "duration": 0.1395,
      "velocity": 109,
      "chip": "ym2612"
    },
    {
      "channel": 1,
      "note": 27,
      "start": 20.5733,
      "duration": 0.0914,
      "velocity": 112,
      "chip": "ym2612"
    },
    {
      "channel": 2,
      "note": 30,
      "start": 20.5751,
      "duration": 0.1856,
      "velocity": 119,
      "chip": "ym2612"
    },
    {
      "channel": 1,
      "note": 29,
      "start": 20.6653,
      "duration": 1.0504,
      "velocity": 112,
      "chip": "ym2612"
    },
    {
      "channel": 0,
      "note": 67,
      "start": 20.7127,
      "duration": 0.1449,
      "velocity": 109,
      "chip": "ym2612"
    },
    {
      "channel": 0,
      "note": 69,
      "start": 20.8583,
      "duration": 0.1422,
      "velocity": 109,
      "chip": "ym2612"
    },
    {
      "channel": 3,
      "note": 57,
      "start": 20.8593,
      "duration": 0.2851,
      "velocity": 109,
      "chip": "ym2612"
    },
    {
      "channel": 4,
      "note": 53,
      "start": 20.86,
      "duration": 0.2852,
      "velocity": 109,
      "chip": "ym2612"
    },
    {
      "channel": 5,
      "note": 48,
      "start": 20.8608,
      "duration": 0.2852,
      "velocity": 109,
      "chip": "ym2612"
    },
    {
      "channel": 2,
      "note": 69,
      "start": 20.8616,
      "duration": 0.1361,
      "velocity": 127,
      "chip": "ym2612"
    },
    {
      "channel": 0,
      "note": 67,
      "start": 21.0011,
      "duration": 0.1423,
      "velocity": 109,
      "chip": "ym2612"
    },
    {
      "channel": 2,
      "note": 69,
      "start": 21.0034,
      "duration": 0.1372,
      "velocity": 127,
      "chip": "ym2612"
    },
    {
      "channel": 0,
      "note": 69,
      "start": 21.144,
      "duration": 0.1423,
      "velocity": 109,
      "chip": "ym2612"
    },
    {
      "channel": 3,
      "note": 57,
      "start": 21.1451,
      "duration": 0.2852,
      "velocity": 109,
      "chip": "ym2612"
    },
    {
      "channel": 4,
      "note": 53,
      "start": 21.1459,
      "duration": 0.2852,
      "velocity": 109,
      "chip": "ym2612"
    },
    {
      "channel": 5,
      "note": 48,
      "start": 21.1466,
      "duration": 0.2852,
      "velocity": 109,
      "chip": "ym2612"
    },
    {
      "channel": 2,
      "note": 69,
      "start": 21.1474,
      "duration": 0.1361,
      "velocity": 127,
      "chip": "ym2612"
    },
    {
      "channel": 0,
      "note": 70,
      "start": 21.2869,
      "duration": 0.1424,
      "velocity": 109,
      "chip": "ym2612"
    },
    {
      "channel": 2,
      "note": 69,
      "start": 21.2892,
      "duration": 0.1372,
      "velocity": 127,
      "chip": "ym2612"
    },
    {
      "channel": 0,
      "note": 69,
      "start": 21.4299,
      "duration": 0.1421,
      "velocity": 109,
      "chip": "ym2612"
    },
    {
      "channel": 3,
      "note": 57,
      "start": 21.431,
      "duration": 0.2854,
      "velocity": 109,
      "chip": "ym2612"
    },
    {
      "channel": 4,
      "note": 53,
      "start": 21.4317,
      "duration": 0.2851,
      "velocity": 109,
      "chip": "ym2612"
    },
    {
      "channel": 5,
      "note": 48,
      "start": 21.4324,
      "duration": 0.2846,
      "velocity": 109,
      "chip": "ym2612"
    },
    {
      "channel": 2,
      "note": 69,
      "start": 21.4333,
      "duration": 0.136,
      "velocity": 127,
      "chip": "ym2612"
    },
    {
      "channel": 0,
      "note": 70,
      "start": 21.5726,
      "duration": 0.1423,
      "velocity": 109,
      "chip": "ym2612"
    },
    {
      "channel": 2,
      "note": 69,
      "start": 21.5749,
      "duration": 0.1372,
      "velocity": 127,
      "chip": "ym2612"
    },
    {
      "channel": 0,
      "note": 72,
      "start": 21.7155,
      "duration": 0.1423,
      "velocity": 109,
      "chip": "ym2612"
    },
    {
      "channel": 1,
      "note": 27,
      "start": 21.7162,
      "duration": 0.0916,
      "velocity": 112,
      "chip": "ym2612"
    },
    {
      "channel": 2,
      "note": 30,
      "start": 21.718,
      "duration": 0.137,
      "velocity": 119,
      "chip": "ym2612"
    },
    {
      "channel": 1,
      "note": 29,
      "start": 21.8084,
      "duration": 1.0503,
      "velocity": 112,
      "chip": "ym2612"
    },
    {
      "channel": 0,
      "note": 70,
      "start": 21.8584,
      "duration": 0.1395,
      "velocity": 109,
      "chip": "ym2612"
    },
    {
      "channel": 2,
      "note": 69,
      "start": 21.8598,
      "duration": 0.281,
      "velocity": 127,
      "chip": "ym2612"
    },
    {
      "channel": 0,
      "note": 72,
      "start": 21.9985,
      "duration": 0.145,
      "velocity": 109,
      "chip": "ym2612"
    },
    {
      "channel": 3,
      "note": 57,
      "start": 21.9996,
      "duration": 0.288,
      "velocity": 109,
      "chip": "ym2612"
    },
    {
      "channel": 4,
      "note": 53,
      "start": 22.0003,
      "duration": 0.288,
      "velocity": 109,
      "chip": "ym2612"
    },
    {
      "channel": 5,
      "note": 48,
      "start": 22.0011,
      "duration": 0.288,
      "velocity": 109,
      "chip": "ym2612"
    },
    {
      "channel": 0,
      "note": 74,
      "start": 22.1442,
      "duration": 0.1422,
      "velocity": 109,
      "chip": "ym2612"
    },
    {
      "channel": 2,
      "note": 69,
      "start": 22.1466,
      "duration": 0.1371,
      "velocity": 127,
      "chip": "ym2612"
    },
    {
      "channel": 0,
      "note": 75,
      "start": 22.2871,
      "duration": 0.1423,
      "velocity": 109,
      "chip": "ym2612"
    },
    {
      "channel": 3,
      "note": 57,
      "start": 22.2882,
      "duration": 0.2851,
      "velocity": 109,
      "chip": "ym2612"
    },
    {
      "channel": 4,
      "note": 53,
      "start": 22.2888,
      "duration": 0.2852,
      "velocity": 109,
      "chip": "ym2612"
    },
    {
      "channel": 5,
      "note": 48,
      "start": 22.2896,
      "duration": 0.2851,
      "velocity": 109,
      "chip": "ym2612"
    },
    {
      "channel": 2,
      "note": 69,
      "start": 22.2905,
      "duration": 0.1361,
      "velocity": 127,
      "chip": "ym2612"
    },
    {
      "channel": 0,
      "note": 74,
      "start": 22.43,
      "duration": 0.1422,
      "velocity": 109,
      "chip": "ym2612"
    },
    {
      "channel": 2,
      "note": 69,
      "start": 22.4322,
      "duration": 0.0578,
      "velocity": 127,
      "chip": "ym2612"
    },
    {
      "channel": 2,
      "note": 69,
      "start": 22.4954,
      "duration": 0.074,
      "velocity": 127,
      "chip": "ym2612"
    },
    {
      "channel": 0,
      "note": 75,
      "start": 22.5728,
      "duration": 0.1424,
      "velocity": 109,
      "chip": "ym2612"
    },
    {
      "channel": 3,
      "note": 57,
      "start": 22.5738,
      "duration": 0.2856,
      "velocity": 109,
      "chip": "ym2612"
    },
    {
      "channel": 4,
      "note": 53,
      "start": 22.5746,
      "duration": 0.2851,
      "velocity": 109,
      "chip": "ym2612"
    },
    {
      "channel": 5,
      "note": 48,
      "start": 22.5753,
      "duration": 0.2847,
      "velocity": 109,
      "chip": "ym2612"
    },
    {
      "channel": 2,
      "note": 69,
      "start": 22.5762,
      "duration": 0.1361,
      "velocity": 127,
      "chip": "ym2612"
    },
    {
      "channel": 0,
      "note": 77,
      "start": 22.7157,
      "duration": 0.1423,
      "velocity": 109,
      "chip": "ym2612"
    },
    {
      "channel": 2,
      "note": 69,
      "start": 22.718,
      "duration": 0.1372,
      "velocity": 127,
      "chip": "ym2612"
    },
    {
      "channel": 0,
      "note": 66,
      "start": 22.8586,
      "duration": 0.1395,
      "velocity": 109,
      "chip": "ym2612"
    },
    {
      "channel": 1,
      "note": 29,
      "start": 22.8593,
      "duration": 0.0915,
      "velocity": 112,
      "chip": "ym2612"
    },
    {
      "channel": 2,
      "note": 30,
      "start": 22.861,
      "duration": 0.1856,
      "velocity": 119,
      "chip": "ym2612"
    },
    {
      "channel": 1,
      "note": 30,
      "start": 22.9513,
      "duration": 1.0504,
      "velocity": 112,
      "chip": "ym2612"
    },
    {
      "channel": 0,
      "note": 67,
      "start": 22.9986,
      "duration": 0.1451,
      "velocity": 109,
      "chip": "ym2612"
    },
    {
      "channel": 0,
      "note": 69,
      "start": 23.1443,
      "duration": 0.1423,
      "velocity": 109,
      "chip": "ym2612"
    },
    {
      "channel": 3,
      "note": 62,
      "start": 23.1454,
      "duration": 0.2852,
      "velocity": 109,
      "chip": "ym2612"
    },
    {
      "channel": 4,
      "note": 57,
      "start": 23.1462,
      "duration": 0.2851,
      "velocity": 109,
      "chip": "ym2612"
    },
    {
      "channel": 5,
      "note": 54,
      "start": 23.1469,
      "duration": 0.2852,
      "velocity": 109,
      "chip": "ym2612"
    },
    {
      "channel": 2,
      "note": 69,
      "start": 23.1478,
      "duration": 0.136,
      "velocity": 127,
      "chip": "ym2612"
    },
    {
      "channel": 0,
      "note": 67,
      "start": 23.2871,
      "duration": 0.1424,
      "velocity": 109,
      "chip": "ym2612"
    },
    {
      "channel": 2,
      "note": 69,
      "start": 23.2894,
      "duration": 0.1372,
      "velocity": 127,
      "chip": "ym2612"
    },
    {
      "channel": 0,
      "note": 69,
      "start": 23.4301,
      "duration": 0.1423,
      "velocity": 109,
      "chip": "ym2612"
    },
    {
      "channel": 3,
      "note": 62,
      "start": 23.4312,
      "duration": 0.2851,
      "velocity": 109,
      "chip": "ym2612"
    },
    {
      "channel": 4,
      "note": 57,
      "start": 23.4319,
      "duration": 0.2852,
      "velocity": 109,
      "chip": "ym2612"
    },
    {
      "channel": 5,
      "note": 54,
      "start": 23.4326,
      "duration": 0.2851,
      "velocity": 109,
      "chip": "ym2612"
    },
    {
      "channel": 2,
      "note": 69,
      "start": 23.4334,
      "duration": 0.1361,
      "velocity": 127,
      "chip": "ym2612"
    },
    {
      "channel": 0,
      "note": 70,
      "start": 23.5729,
      "duration": 0.1422,
      "velocity": 109,
      "chip": "ym2612"
    },
    {
      "channel": 2,
      "note": 69,
      "start": 23.5752,
      "duration": 0.1371,
      "velocity": 127,
      "chip": "ym2612"
    },
    {
      "channel": 0,
      "note": 69,
      "start": 23.7158,
      "duration": 0.1423,
      "velocity": 109,
      "chip": "ym2612"
    },
    {
      "channel": 3,
      "note": 62,
      "start": 23.7168,
      "duration": 0.2856,
      "velocity": 109,
      "chip": "ym2612"
    },
    {
      "channel": 4,
      "note": 57,
      "start": 23.7176,
      "duration": 0.2851,
      "velocity": 109,
      "chip": "ym2612"
    },
    {
      "channel": 5,
      "note": 54,
      "start": 23.7183,
      "duration": 0.2847,
      "velocity": 109,
      "chip": "ym2612"
    },
    {
      "channel": 2,
      "note": 69,
      "start": 23.7192,
      "duration": 0.1361,
      "velocity": 127,
      "chip": "ym2612"
    },
    {
      "channel": 0,
      "note": 70,
      "start": 23.8586,
      "duration": 0.1424,
      "velocity": 109,
      "chip": "ym2612"
    },
    {
      "channel": 2,
      "note": 69,
      "start": 23.8609,
      "duration": 0.1373,
      "velocity": 127,
      "chip": "ym2612"
    },
    {
      "channel": 0,
      "note": 72,
      "start": 24.0016,
      "duration": 0.1422,
      "velocity": 109,
      "chip": "ym2612"
    },
    {
      "channel": 1,
      "note": 25,
      "start": 24.0023,
      "duration": 0.0916,
      "velocity": 112,
      "chip": "ym2612"
    },
    {
      "channel": 2,
      "note": 30,
      "start": 24.0041,
      "duration": 0.137,
      "velocity": 119,
      "chip": "ym2612"
    },
    {
      "channel": 1,
      "note": 26,
      "start": 24.0944,
      "duration": 1.053,
      "velocity": 112,
      "chip": "ym2612"
    },
    {
      "channel": 0,
      "note": 70,
      "start": 24.1444,
      "duration": 0.1395,
      "velocity": 109,
      "chip": "ym2612"
    },
    {
      "channel": 2,
      "note": 69,
      "start": 24.146,
      "duration": 0.2808,
      "velocity": 127,
      "chip": "ym2612"
    },
    {
      "channel": 0,
      "note": 72,
      "start": 24.2845,
      "duration": 0.1451,
      "velocity": 109,
      "chip": "ym2612"
    },
    {
      "channel": 3,
      "note": 62,
      "start": 24.2856,
      "duration": 0.288,
      "velocity": 109,
      "chip": "ym2612"
    },
    {
      "channel": 4,
      "note": 57,
      "start": 24.2863,
      "duration": 0.288,
      "velocity": 109,
      "chip": "ym2612"
    },
    {
      "channel": 5,
      "note": 54,
      "start": 24.2871,
      "duration": 0.288,
      "velocity": 109,
      "chip": "ym2612"
    },
    {
      "channel": 0,
      "note": 74,
      "start": 24.4303,
      "duration": 0.1422,
      "velocity": 109,
      "chip": "ym2612"
    },
    {
      "channel": 2,
      "note": 69,
      "start": 24.4326,
      "duration": 0.1371,
      "velocity": 127,
      "chip": "ym2612"
    },
    {
      "channel": 0,
      "note": 75,
      "start": 24.5731,
      "duration": 0.1423,
      "velocity": 109,
      "chip": "ym2612"
    },
    {
      "channel": 3,
      "note": 62,
      "start": 24.5741,
      "duration": 0.2852,
      "velocity": 109,
      "chip": "ym2612"
    },
    {
      "channel": 4,
      "note": 57,
      "start": 24.5749,
      "duration": 0.2852,
      "velocity": 109,
      "chip": "ym2612"
    },
    {
      "channel": 5,
      "note": 54,
      "start": 24.5756,
      "duration": 0.2852,
      "velocity": 109,
      "chip": "ym2612"
    },
    {
      "channel": 2,
      "note": 69,
      "start": 24.5765,
      "duration": 0.1361,
      "velocity": 127,
      "chip": "ym2612"
    },
    {
      "channel": 0,
      "note": 74,
      "start": 24.7159,
      "duration": 0.1423,
      "velocity": 109,
      "chip": "ym2612"
    },
    {
      "channel": 2,
      "note": 69,
      "start": 24.7182,
      "duration": 0.0578,
      "velocity": 127,
      "chip": "ym2612"
    },
    {
      "channel": 2,
      "note": 69,
      "start": 24.7813,
      "duration": 0.0741,
      "velocity": 127,
      "chip": "ym2612"
    },
    {
      "channel": 0,
      "note": 75,
      "start": 24.8588,
      "duration": 0.1423,
      "velocity": 109,
      "chip": "ym2612"
    },
    {
      "channel": 3,
      "note": 62,
      "start": 24.8599,
      "duration": 0.2908,
      "velocity": 109,
      "chip": "ym2612"
    },
    {
      "channel": 4,
      "note": 57,
      "start": 24.8607,
      "duration": 0.2931,
      "velocity": 109,
      "chip": "ym2612"
    },
    {
      "channel": 5,
      "note": 54,
      "start": 24.8614,
      "duration": 0.2953,
      "velocity": 109,
      "chip": "ym2612"
    },
    {
      "channel": 2,
      "note": 69,
      "start": 24.8623,
      "duration": 0.136,
      "velocity": 127,
      "chip": "ym2612"
    },
    {
      "channel": 0,
      "note": 77,
      "start": 25.0017,
      "duration": 0.1424,
      "velocity": 109,
      "chip": "ym2612"
    },
    {
      "channel": 2,
      "note": 69,
      "start": 25.004,
      "duration": 0.1373,
      "velocity": 127,
      "chip": "ym2612"
    },
    {
      "channel": 0,
      "note": 67,
      "start": 25.1447,
      "duration": 0.1394,
      "velocity": 109,
      "chip": "ym2612"
    },
    {
      "channel": 1,
      "note": 30,
      "start": 25.148,
      "duration": 0.0889,
      "velocity": 112,
      "chip": "ym2612"
    },
    {
      "channel": 2,
      "note": 30,
      "start": 25.1576,
      "duration": 0.1751,
      "velocity": 119,
      "chip": "ym2612"
    },
    {
      "channel": 1,
      "note": 31,
      "start": 25.2375,
      "duration": 0.1968,
      "velocity": 112,
      "chip": "ym2612"
    },
    {
      "channel": 0,
      "note": 69,
      "start": 25.2847,
      "duration": 0.1451,
      "velocity": 109,
      "chip": "ym2612"
    },
    {
      "channel": 0,
      "note": 70,
      "start": 25.4304,
      "duration": 0.0039,
      "velocity": 109,
      "chip": "ym2612"
    },
    {
      "channel": 3,
      "note": 58,
      "start": 25.4315,
      "duration": 0.0028,
      "velocity": 109,
      "chip": "ym2612"
    },
    {
      "channel": 4,
      "note": 55,
      "start": 25.4322,
      "duration": 0.002,
      "velocity": 109,
      "chip": "ym2612"
    },
    {
      "channel": 5,
      "note": 50,
      "start": 25.4329,
      "duration": 0.0013,
      "velocity": 109,
      "chip": "ym2612"
    },
    {
      "channel": 2,
      "note": 69,
      "start": 25.4338,
      "duration": 0.0004,
      "velocity": 127,
      "chip": "ym2612"
    }
  ]
}