{
  "track_name": "08 - Sound Code 89",
  "duration_sec": 56.17,
  "sample_rate": 44100,
  "note_count": 390,
  "unique_pitches": 28,
  "pitch_range": 40,
  "avg_note_duration": 0.7037,
  "reconstruction_stats": {
    "notes_reconstructed": 390,
    "keyon_events": 390,
    "keyoff_events": 384,
    "orphan_keyons": 6,
    "unique_pitches": 28,
    "pitch_range": 40,
    "avg_duration_sec": 0.7037
  },
  "metadata": {
    "source": "N\\Nikkan Sports Pro Yakyuu VAN\\08 - Sound Code 89.vgz"
  },
  "notes": [
    {
      "channel": 0,
      "note": 62,
      "start": 0.0,
      "duration": 2.7754,
      "velocity": 103,
      "chip": "ym2612"
    },
    {
      "channel": 1,
      "note": 31,
      "start": 0.0032,
      "duration": 1.212,
      "velocity": 95,
      "chip": "ym2612"
    },
    {
      "channel": 3,
      "note": 58,
      "start": 0.0069,
      "duration": 2.7701,
      "velocity": 103,
      "chip": "ym2612"
    },
    {
      "channel": 4,
      "note": 57,
      "start": 0.0111,
      "duration": 2.7669,
      "velocity": 103,
      "chip": "ym2612"
    },
    {
      "channel": 5,
      "note": 53,
      "start": 0.0148,
      "duration": 2.7641,
      "velocity": 103,
      "chip": "ym2612"
    },
    {
      "channel": 2,
      "note": 30,
      "start": 0.0156,
      "duration": 0.1007,
      "velocity": 119,
      "chip": "ym2612"
    },
    {
      "channel": 2,
      "note": 69,
      "start": 0.6981,
      "duration": 0.3144,
      "velocity": 111,
      "chip": "ym2612"
    },
    {
      "channel": 1,
      "note": 31,
      "start": 1.2156,
      "duration": 0.1734,
      "velocity": 95,
      "chip": "ym2612"
    },
    {
      "channel": 2,
      "note": 30,
      "start": 1.2179,
      "duration": 0.1122,
      "velocity": 119,
      "chip": "ym2612"
    },
    {
      "channel": 1,
      "note": 31,
      "start": 1.3895,
      "duration": 0.1697,
      "velocity": 95,
      "chip": "ym2612"
    },
    {
      "channel": 2,
      "note": 30,
      "start": 1.3917,
      "duration": 0.1114,
      "velocity": 119,
      "chip": "ym2612"
    },
    {
      "channel": 1,
      "note": 34,
      "start": 2.0826,
      "duration": 0.3439,
      "velocity": 95,
      "chip": "ym2612"
    },
    {
      "channel": 2,
      "note": 69,
      "start": 2.0848,
      "duration": 0.3139,
      "velocity": 111,
      "chip": "ym2612"
    },
    {
      "channel": 1,
      "note": 35,
      "start": 2.4273,
      "duration": 0.3488,
      "velocity": 95,
      "chip": "ym2612"
    },
    {
      "channel": 0,
      "note": 62,
      "start": 2.776,
      "duration": 2.773,
      "velocity": 103,
      "chip": "ym2612"
    },
    {
      "channel": 1,
      "note": 36,
      "start": 2.7767,
      "duration": 1.2122,
      "velocity": 95,
      "chip": "ym2612"
    },
    {
      "channel": 3,
      "note": 58,
      "start": 2.7779,
      "duration": 2.7728,
      "velocity": 103,
      "chip": "ym2612"
    },
    {
      "channel": 4,
      "note": 55,
      "start": 2.7788,
      "duration": 2.7728,
      "velocity": 103,
      "chip": "ym2612"
    },
    {
      "channel": 5,
      "note": 52,
      "start": 2.7797,
      "duration": 2.7728,
      "velocity": 103,
      "chip": "ym2612"
    },
    {
      "channel": 2,
      "note": 30,
      "start": 2.7805,
      "duration": 0.1095,
      "velocity": 119,
      "chip": "ym2612"
    },
    {
      "channel": 2,
      "note": 69,
      "start": 3.4712,
      "duration": 0.3144,
      "velocity": 111,
      "chip": "ym2612"
    },
    {
      "channel": 1,
      "note": 36,
      "start": 3.9893,
      "duration": 0.3435,
      "velocity": 95,
      "chip": "ym2612"
    },
    {
      "channel": 2,
      "note": 30,
      "start": 3.9915,
      "duration": 0.1119,
      "velocity": 119,
      "chip": "ym2612"
    },
    {
      "channel": 1,
      "note": 36,
      "start": 4.5098,
      "duration": 0.3458,
      "velocity": 95,
      "chip": "ym2612"
    },
    {
      "channel": 2,
      "note": 30,
      "start": 4.5125,
      "duration": 0.111,
      "velocity": 119,
      "chip": "ym2612"
    },
    {
      "channel": 2,
      "note": 69,
      "start": 4.8581,
      "duration": 0.3141,
      "velocity": 111,
      "chip": "ym2612"
    },
    {
      "channel": 0,
      "note": 62,
      "start": 5.5498,
      "duration": 2.7728,
      "velocity": 103,
      "chip": "ym2612"
    },
    {
      "channel": 1,
      "note": 31,
      "start": 5.5506,
      "duration": 1.2123,
      "velocity": 95,
      "chip": "ym2612"
    },
    {
      "channel": 3,
      "note": 58,
      "start": 5.5515,
      "duration": 2.7726,
      "velocity": 103,
      "chip": "ym2612"
    },
    {
      "channel": 4,
      "note": 57,
      "start": 5.5523,
      "duration": 2.7725,
      "velocity": 103,
      "chip": "ym2612"
    },
    {
      "channel": 5,
      "note": 53,
      "start": 5.5532,
      "duration": 2.7725,
      "velocity": 103,
      "chip": "ym2612"
    },
    {
      "channel": 2,
      "note": 30,
      "start": 5.5541,
      "duration": 0.1094,
      "velocity": 119,
      "chip": "ym2612"
    },
    {
      "channel": 2,
      "note": 69,
      "start": 6.2453,
      "duration": 0.3139,
      "velocity": 111,
      "chip": "ym2612"
    },
    {
      "channel": 1,
      "note": 31,
      "start": 6.7633,
      "duration": 0.1729,
      "velocity": 95,
      "chip": "ym2612"
    },
    {
      "channel": 2,
      "note": 30,
      "start": 6.7654,
      "duration": 0.112,
      "velocity": 119,
      "chip": "ym2612"
    },
    {
      "channel": 1,
      "note": 31,
      "start": 6.9367,
      "duration": 0.1697,
      "velocity": 95,
      "chip": "ym2612"
    },
    {
      "channel": 2,
      "note": 30,
      "start": 6.9389,
      "duration": 0.1115,
      "velocity": 119,
      "chip": "ym2612"
    },
    {
      "channel": 1,
      "note": 34,
      "start": 7.6302,
      "duration": 0.3435,
      "velocity": 95,
      "chip": "ym2612"
    },
    {
      "channel": 2,
      "note": 69,
      "start": 7.6324,
      "duration": 0.3141,
      "velocity": 111,
      "chip": "ym2612"
    },
    {
      "channel": 1,
      "note": 35,
      "start": 7.9743,
      "duration": 0.349,
      "velocity": 95,
      "chip": "ym2612"
    },
    {
      "channel": 0,
      "note": 62,
      "start": 8.3232,
      "duration": 2.7765,
      "velocity": 79,
      "chip": "ym2612"
    },
    {
      "channel": 1,
      "note": 36,
      "start": 8.3239,
      "duration": 1.2122,
      "velocity": 95,
      "chip": "ym2612"
    },
    {
      "channel": 3,
      "note": 58,
      "start": 8.3247,
      "duration": 2.7769,
      "velocity": 103,
      "chip": "ym2612"
    },
    {
      "channel": 4,
      "note": 55,
      "start": 8.3256,
      "duration": 2.777,
      "velocity": 103,
      "chip": "ym2612"
    },
    {
      "channel": 5,
      "note": 52,
      "start": 8.3265,
      "duration": 2.7771,
      "velocity": 103,
      "chip": "ym2612"
    },
    {
      "channel": 2,
      "note": 30,
      "start": 8.3278,
      "duration": 0.1094,
      "velocity": 119,
      "chip": "ym2612"
    },
    {
      "channel": 2,
      "note": 69,
      "start": 9.0184,
      "duration": 0.3144,
      "velocity": 111,
      "chip": "ym2612"
    },
    {
      "channel": 1,
      "note": 36,
      "start": 9.5365,
      "duration": 0.3434,
      "velocity": 95,
      "chip": "ym2612"
    },
    {
      "channel": 2,
      "note": 30,
      "start": 9.5388,
      "duration": 0.1119,
      "velocity": 119,
      "chip": "ym2612"
    },
    {
      "channel": 1,
      "note": 36,
      "start": 10.0571,
      "duration": 0.3457,
      "velocity": 95,
      "chip": "ym2612"
    },
    {
      "channel": 2,
      "note": 30,
      "start": 10.0593,
      "duration": 0.1114,
      "velocity": 119,
      "chip": "ym2612"
    },
    {
      "channel": 2,
      "note": 69,
      "start": 10.4053,
      "duration": 0.3143,
      "velocity": 111,
      "chip": "ym2612"
    },
    {
      "channel": 1,
      "note": 38,
      "start": 10.574,
      "duration": 0.3461,
      "velocity": 95,
      "chip": "ym2612"
    },
    {
      "channel": 0,
      "note": 62,
      "start": 11.1005,
      "duration": 2.0754,
      "velocity": 79,
      "chip": "ym2612"
    },
    {
      "channel": 1,
      "note": 39,
      "start": 11.1013,
      "duration": 1.2084,
      "velocity": 95,
      "chip": "ym2612"
    },
    {
      "channel": 3,
      "note": 58,
      "start": 11.1023,
      "duration": 2.0744,
      "velocity": 103,
      "chip": "ym2612"
    },
    {
      "channel": 4,
      "note": 55,
      "start": 11.1034,
      "duration": 2.0746,
      "velocity": 103,
      "chip": "ym2612"
    },
    {
      "channel": 5,
      "note": 51,
      "start": 11.1044,
      "duration": 2.0744,
      "velocity": 103,
      "chip": "ym2612"
    },
    {
      "channel": 2,
      "note": 30,
      "start": 11.1053,
      "duration": 0.1059,
      "velocity": 119,
      "chip": "ym2612"
    },
    {
      "channel": 2,
      "note": 69,
      "start": 11.792,
      "duration": 0.3143,
      "velocity": 111,
      "chip": "ym2612"
    },
    {
      "channel": 1,
      "note": 34,
      "start": 12.3104,
      "duration": 0.173,
      "velocity": 95,
      "chip": "ym2612"
    },
    {
      "channel": 2,
      "note": 30,
      "start": 12.3129,
      "duration": 0.1112,
      "velocity": 119,
      "chip": "ym2612"
    },
    {
      "channel": 1,
      "note": 39,
      "start": 12.484,
      "duration": 0.1695,
      "velocity": 95,
      "chip": "ym2612"
    },
    {
      "channel": 2,
      "note": 30,
      "start": 12.4862,
      "duration": 0.1114,
      "velocity": 119,
      "chip": "ym2612"
    },
    {
      "channel": 1,
      "note": 34,
      "start": 12.6542,
      "duration": 0.1737,
      "velocity": 95,
      "chip": "ym2612"
    },
    {
      "channel": 1,
      "note": 39,
      "start": 12.8284,
      "duration": 0.1719,
      "velocity": 95,
      "chip": "ym2612"
    },
    {
      "channel": 0,
      "note": 62,
      "start": 13.1765,
      "duration": 0.17,
      "velocity": 79,
      "chip": "ym2612"
    },
    {
      "channel": 3,
      "note": 58,
      "start": 13.1778,
      "duration": 0.5163,
      "velocity": 103,
      "chip": "ym2612"
    },
    {
      "channel": 4,
      "note": 55,
      "start": 13.1785,
      "duration": 0.5159,
      "velocity": 103,
      "chip": "ym2612"
    },
    {
      "channel": 5,
      "note": 51,
      "start": 13.1793,
      "duration": 0.5154,
      "velocity": 103,
      "chip": "ym2612"
    },
    {
      "channel": 2,
      "note": 69,
      "start": 13.1802,
      "duration": 0.3129,
      "velocity": 111,
      "chip": "ym2612"
    },
    {
      "channel": 0,
      "note": 60,
      "start": 13.3473,
      "duration": 0.1732,
      "velocity": 79,
      "chip": "ym2612"
    },
    {
      "channel": 0,
      "note": 58,
      "start": 13.5212,
      "duration": 0.3487,
      "velocity": 79,
      "chip": "ym2612"
    },
    {
      "channel": 0,
      "note": 57,
      "start": 13.8706,
      "duration": 0.6926,
      "velocity": 79,
      "chip": "ym2612"
    },
    {
      "channel": 1,
      "note": 38,
      "start": 13.8714,
      "duration": 1.2119,
      "velocity": 95,
      "chip": "ym2612"
    },
    {
      "channel": 3,
      "note": 57,
      "start": 13.8722,
      "duration": 1.3829,
      "velocity": 103,
      "chip": "ym2612"
    },
    {
      "channel": 4,
      "note": 53,
      "start": 13.8732,
      "duration": 1.3829,
      "velocity": 103,
      "chip": "ym2612"
    },
    {
      "channel": 5,
      "note": 50,
      "start": 13.874,
      "duration": 1.3829,
      "velocity": 103,
      "chip": "ym2612"
    },
    {
      "channel": 2,
      "note": 30,
      "start": 13.8749,
      "duration": 0.1095,
      "velocity": 119,
      "chip": "ym2612"
    },
    {
      "channel": 0,
      "note": 65,
      "start": 14.5639,
      "duration": 0.69,
      "velocity": 79,
      "chip": "ym2612"
    },
    {
      "channel": 2,
      "note": 69,
      "start": 14.5665,
      "duration": 0.3135,
      "velocity": 111,
      "chip": "ym2612"
    },
    {
      "channel": 1,
      "note": 41,
      "start": 15.0838,
      "duration": 0.3437,
      "velocity": 95,
      "chip": "ym2612"
    },
    {
      "channel": 2,
      "note": 30,
      "start": 15.086,
      "duration": 0.1118,
      "velocity": 119,
      "chip": "ym2612"
    },
    {
      "channel": 0,
      "note": 67,
      "start": 15.2547,
      "duration": 0.3486,
      "velocity": 79,
      "chip": "ym2612"
    },
    {
      "channel": 3,
      "note": 62,
      "start": 15.256,
      "duration": 1.3893,
      "velocity": 103,
      "chip": "ym2612"
    },
    {
      "channel": 4,
      "note": 58,
      "start": 15.2568,
      "duration": 1.3893,
      "velocity": 103,
      "chip": "ym2612"
    },
    {
      "channel": 5,
      "note": 53,
      "start": 15.2578,
      "duration": 1.3893,
      "velocity": 103,
      "chip": "ym2612"
    },
    {
      "channel": 0,
      "note": 62,
      "start": 15.6041,
      "duration": 0.3455,
      "velocity": 79,
      "chip": "ym2612"
    },
    {
      "channel": 1,
      "note": 43,
      "start": 15.6048,
      "duration": 0.3457,
      "velocity": 95,
      "chip": "ym2612"
    },
    {
      "channel": 2,
      "note": 30,
      "start": 15.607,
      "duration": 0.1108,
      "velocity": 119,
      "chip": "ym2612"
    },
    {
      "channel": 0,
      "note": 60,
      "start": 15.9503,
      "duration": 0.3441,
      "velocity": 79,
      "chip": "ym2612"
    },
    {
      "channel": 2,
      "note": 69,
      "start": 15.9529,
      "duration": 0.3139,
      "velocity": 111,
      "chip": "ym2612"
    },
    {
      "channel": 1,
      "note": 37,
      "start": 16.1212,
      "duration": 0.3461,
      "velocity": 95,
      "chip": "ym2612"
    },
    {
      "channel": 0,
      "note": 58,
      "start": 16.2952,
      "duration": 1.0412,
      "velocity": 79,
      "chip": "ym2612"
    },
    {
      "channel": 1,
      "note": 36,
      "start": 16.6451,
      "duration": 1.2118,
      "velocity": 95,
      "chip": "ym2612"
    },
    {
      "channel": 3,
      "note": 55,
      "start": 16.646,
      "duration": 1.3862,
      "velocity": 103,
      "chip": "ym2612"
    },
    {
      "channel": 4,
      "note": 51,
      "start": 16.6469,
      "duration": 1.3861,
      "velocity": 103,
      "chip": "ym2612"
    },
    {
      "channel": 5,
      "note": 48,
      "start": 16.6478,
      "duration": 1.3862,
      "velocity": 103,
      "chip": "ym2612"
    },
    {
      "channel": 2,
      "note": 30,
      "start": 16.6487,
      "duration": 0.1092,
      "velocity": 119,
      "chip": "ym2612"
    },
    {
      "channel": 0,
      "note": 58,
      "start": 17.3371,
      "duration": 0.3437,
      "velocity": 79,
      "chip": "ym2612"
    },
    {
      "channel": 2,
      "note": 69,
      "start": 17.3398,
      "duration": 0.3139,
      "velocity": 111,
      "chip": "ym2612"
    },
    {
      "channel": 0,
      "note": 60,
      "start": 17.6816,
      "duration": 0.349,
      "velocity": 79,
      "chip": "ym2612"
    },
    {
      "channel": 1,
      "note": 36,
      "start": 17.8573,
      "duration": 0.1742,
      "velocity": 95,
      "chip": "ym2612"
    },
    {
      "channel": 2,
      "note": 30,
      "start": 17.8595,
      "duration": 0.1119,
      "velocity": 119,
      "chip": "ym2612"
    },
    {
      "channel": 0,
      "note": 57,
      "start": 18.0313,
      "duration": 0.6918,
      "velocity": 79,
      "chip": "ym2612"
    },
    {
      "channel": 1,
      "note": 41,
      "start": 18.032,
      "duration": 0.1688,
      "velocity": 95,
      "chip": "ym2612"
    },
    {
      "channel": 3,
      "note": 53,
      "start": 18.0329,
      "duration": 1.3856,
      "velocity": 103,
      "chip": "ym2612"
    },
    {
      "channel": 4,
      "note": 51,
      "start": 18.0339,
      "duration": 1.3856,
      "velocity": 103,
      "chip": "ym2612"
    },
    {
      "channel": 5,
      "note": 48,
      "start": 18.0348,
      "duration": 1.3856,
      "velocity": 103,
      "chip": "ym2612"
    },
    {
      "channel": 2,
      "note": 30,
      "start": 18.0356,
      "duration": 0.1095,
      "velocity": 119,
      "chip": "ym2612"
    },
    {
      "channel": 0,
      "note": 55,
      "start": 18.7238,
      "duration": 0.6931,
      "velocity": 79,
      "chip": "ym2612"
    },
    {
      "channel": 2,
      "note": 69,
      "start": 18.7262,
      "duration": 0.3141,
      "velocity": 111,
      "chip": "ym2612"
    },
    {
      "channel": 1,
      "note": 36,
      "start": 18.8951,
      "duration": 0.1729,
      "velocity": 95,
      "chip": "ym2612"
    },
    {
      "channel": 1,
      "note": 41,
      "start": 19.0686,
      "duration": 0.1723,
      "velocity": 95,
      "chip": "ym2612"
    },
    {
      "channel": 1,
      "note": 36,
      "start": 19.2415,
      "duration": 0.1763,
      "velocity": 95,
      "chip": "ym2612"
    },
    {
      "channel": 0,
      "note": 53,
      "start": 19.4177,
      "duration": 2.0795,
      "velocity": 79,
      "chip": "ym2612"
    },
    {
      "channel": 1,
      "note": 34,
      "start": 19.4184,
      "duration": 1.2125,
      "velocity": 95,
      "chip": "ym2612"
    },
    {
      "channel": 3,
      "note": 58,
      "start": 19.4193,
      "duration": 2.0784,
      "velocity": 103,
      "chip": "ym2612"
    },
    {
      "channel": 4,
      "note": 57,
      "start": 19.4202,
      "duration": 2.0778,
      "velocity": 103,
      "chip": "ym2612"
    },
    {
      "channel": 5,
      "note": 53,
      "start": 19.4212,
      "duration": 2.0772,
      "velocity": 103,
      "chip": "ym2612"
    },
    {
      "channel": 2,
      "note": 30,
      "start": 19.422,
      "duration": 0.1095,
      "velocity": 119,
      "chip": "ym2612"
    },
    {
      "channel": 2,
      "note": 69,
      "start": 20.1132,
      "duration": 0.3144,
      "velocity": 111,
      "chip": "ym2612"
    },
    {
      "channel": 1,
      "note": 34,
      "start": 20.6313,
      "duration": 0.343,
      "velocity": 95,
      "chip": "ym2612"
    },
    {
      "channel": 2,
      "note": 30,
      "start": 20.6335,
      "duration": 0.112,
      "velocity": 119,
      "chip": "ym2612"
    },
    {
      "channel": 1,
      "note": 34,
      "start": 21.1515,
      "duration": 0.346,
      "velocity": 95,
      "chip": "ym2612"
    },
    {
      "channel": 2,
      "note": 30,
      "start": 21.1537,
      "duration": 0.1113,
      "velocity": 119,
      "chip": "ym2612"
    },
    {
      "channel": 2,
      "note": 69,
      "start": 21.4994,
      "duration": 0.313,
      "velocity": 111,
      "chip": "ym2612"
    },
    {
      "channel": 1,
      "note": 38,
      "start": 21.6679,
      "duration": 0.347,
      "velocity": 95,
      "chip": "ym2612"
    },
    {
      "channel": 0,
      "note": 58,
      "start": 21.842,
      "duration": 0.172,
      "velocity": 79,
      "chip": "ym2612"
    },
    {
      "channel": 0,
      "note": 60,
      "start": 22.0147,
      "duration": 0.176,
      "velocity": 79,
      "chip": "ym2612"
    },
    {
      "channel": 0,
      "note": 62,
      "start": 22.1915,
      "duration": 0.3431,
      "velocity": 79,
      "chip": "ym2612"
    },
    {
      "channel": 1,
      "note": 36,
      "start": 22.1924,
      "duration": 1.2117,
      "velocity": 95,
      "chip": "ym2612"
    },
    {
      "channel": 3,
      "note": 58,
      "start": 22.1934,
      "duration": 2.0773,
      "velocity": 103,
      "chip": "ym2612"
    },
    {
      "channel": 4,
      "note": 55,
      "start": 22.1948,
      "duration": 2.0763,
      "velocity": 103,
      "chip": "ym2612"
    },
    {
      "channel": 5,
      "note": 51,
      "start": 22.1958,
      "duration": 2.0756,
      "velocity": 103,
      "chip": "ym2612"
    },
    {
      "channel": 2,
      "note": 30,
      "start": 22.1966,
      "duration": 0.1085,
      "velocity": 119,
      "chip": "ym2612"
    },
    {
      "channel": 0,
      "note": 58,
      "start": 22.5354,
      "duration": 0.3482,
      "velocity": 79,
      "chip": "ym2612"
    },
    {
      "channel": 0,
      "note": 58,
      "start": 22.8844,
      "duration": 0.3439,
      "velocity": 79,
      "chip": "ym2612"
    },
    {
      "channel": 2,
      "note": 69,
      "start": 22.8869,
      "duration": 0.3138,
      "velocity": 111,
      "chip": "ym2612"
    },
    {
      "channel": 0,
      "note": 55,
      "start": 23.229,
      "duration": 0.3488,
      "velocity": 79,
      "chip": "ym2612"
    },
    {
      "channel": 1,
      "note": 31,
      "start": 23.4046,
      "duration": 0.1741,
      "velocity": 95,
      "chip": "ym2612"
    },
    {
      "channel": 2,
      "note": 30,
      "start": 23.4068,
      "duration": 0.1118,
      "velocity": 119,
      "chip": "ym2612"
    },
    {
      "channel": 0,
      "note": 58,
      "start": 23.5785,
      "duration": 0.3429,
      "velocity": 79,
      "chip": "ym2612"
    },
    {
      "channel": 1,
      "note": 36,
      "start": 23.5793,
      "duration": 0.1688,
      "velocity": 95,
      "chip": "ym2612"
    },
    {
      "channel": 2,
      "note": 30,
      "start": 23.5814,
      "duration": 0.1106,
      "velocity": 119,
      "chip": "ym2612"
    },
    {
      "channel": 1,
      "note": 31,
      "start": 23.7486,
      "duration": 0.1738,
      "velocity": 95,
      "chip": "ym2612"
    },
    {
      "channel": 0,
      "note": 62,
      "start": 23.9222,
      "duration": 0.3481,
      "velocity": 79,
      "chip": "ym2612"
    },
    {
      "channel": 1,
      "note": 36,
      "start": 23.9229,
      "duration": 0.172,
      "velocity": 95,
      "chip": "ym2612"
    },
    {
      "channel": 2,
      "note": 69,
      "start": 24.2724,
      "duration": 0.3137,
      "velocity": 111,
      "chip": "ym2612"
    },
    {
      "channel": 1,
      "note": 31,
      "start": 24.4415,
      "duration": 0.1742,
      "velocity": 95,
      "chip": "ym2612"
    },
    {
      "channel": 0,
      "note": 60,
      "start": 24.6156,
      "duration": 0.6927,
      "velocity": 79,
      "chip": "ym2612"
    },
    {
      "channel": 1,
      "note": 36,
      "start": 24.6163,
      "duration": 0.3487,
      "velocity": 95,
      "chip": "ym2612"
    },
    {
      "channel": 1,
      "note": 38,
      "start": 24.9656,
      "duration": 1.2124,
      "velocity": 95,
      "chip": "ym2612"
    },
    {
      "channel": 3,
      "note": 57,
      "start": 24.9665,
      "duration": 2.0791,
      "velocity": 103,
      "chip": "ym2612"
    },
    {
      "channel": 4,
      "note": 53,
      "start": 24.9675,
      "duration": 2.0785,
      "velocity": 103,
      "chip": "ym2612"
    },
    {
      "channel": 5,
      "note": 50,
      "start": 24.9684,
      "duration": 2.0779,
      "velocity": 103,
      "chip": "ym2612"
    },
    {
      "channel": 2,
      "note": 30,
      "start": 24.9692,
      "duration": 0.11,
      "velocity": 119,
      "chip": "ym2612"
    },
    {
      "channel": 0,
      "note": 62,
      "start": 25.309,
      "duration": 0.3481,
      "velocity": 79,
      "chip": "ym2612"
    },
    {
      "channel": 0,
      "note": 63,
      "start": 25.6579,
      "duration": 0.3438,
      "velocity": 79,
      "chip": "ym2612"
    },
    {
      "channel": 2,
      "note": 69,
      "start": 25.6609,
      "duration": 0.3135,
      "velocity": 111,
      "chip": "ym2612"
    },
    {
      "channel": 0,
      "note": 62,
      "start": 26.0024,
      "duration": 1.042,
      "velocity": 79,
      "chip": "ym2612"
    },
    {
      "channel": 1,
      "note": 33,
      "start": 26.1787,
      "duration": 0.17,
      "velocity": 95,
      "chip": "ym2612"
    },
    {
      "channel": 2,
      "note": 30,
      "start": 26.1809,
      "duration": 0.1113,
      "velocity": 119,
      "chip": "ym2612"
    },
    {
      "channel": 1,
      "note": 38,
      "start": 26.3493,
      "duration": 0.1722,
      "velocity": 95,
      "chip": "ym2612"
    },
    {
      "channel": 1,
      "note": 33,
      "start": 26.5221,
      "duration": 0.1759,
      "velocity": 95,
      "chip": "ym2612"
    },
    {
      "channel": 1,
      "note": 38,
      "start": 26.6987,
      "duration": 0.3467,
      "velocity": 95,
      "chip": "ym2612"
    },
    {
      "channel": 2,
      "note": 30,
      "start": 26.701,
      "duration": 0.1117,
      "velocity": 119,
      "chip": "ym2612"
    },
    {
      "channel": 0,
      "note": 60,
      "start": 27.0451,
      "duration": 0.3434,
      "velocity": 79,
      "chip": "ym2612"
    },
    {
      "channel": 2,
      "note": 69,
      "start": 27.0473,
      "duration": 0.3124,
      "velocity": 111,
      "chip": "ym2612"
    },
    {
      "channel": 0,
      "note": 62,
      "start": 27.3893,
      "duration": 0.3485,
      "velocity": 79,
      "chip": "ym2612"
    },
    {
      "channel": 1,
      "note": 38,
      "start": 27.39,
      "duration": 0.1717,
      "velocity": 95,
      "chip": "ym2612"
    },
    {
      "channel": 1,
      "note": 37,
      "start": 27.5623,
      "duration": 0.1765,
      "velocity": 95,
      "chip": "ym2612"
    },
    {
      "channel": 0,
      "note": 63,
      "start": 27.7385,
      "duration": 0.3433,
      "velocity": 79,
      "chip": "ym2612"
    },
    {
      "channel": 1,
      "note": 36,
      "start": 27.7393,
      "duration": 1.212,
      "velocity": 95,
      "chip": "ym2612"
    },
    {
      "channel": 3,
      "note": 58,
      "start": 27.7402,
      "duration": 2.0784,
      "velocity": 103,
      "chip": "ym2612"
    },
    {
      "channel": 4,
      "note": 55,
      "start": 27.7411,
      "duration": 2.0778,
      "velocity": 103,
      "chip": "ym2612"
    },
    {
      "channel": 5,
      "note": 51,
      "start": 27.742,
      "duration": 2.0772,
      "velocity": 103,
      "chip": "ym2612"
    },
    {
      "channel": 2,
      "note": 30,
      "start": 27.7429,
      "duration": 0.1095,
      "velocity": 119,
      "chip": "ym2612"
    },
    {
      "channel": 0,
      "note": 62,
      "start": 28.0826,
      "duration": 0.3481,
      "velocity": 79,
      "chip": "ym2612"
    },
    {
      "channel": 0,
      "note": 63,
      "start": 28.4314,
      "duration": 0.3439,
      "velocity": 79,
      "chip": "ym2612"
    },
    {
      "channel": 2,
      "note": 69,
      "start": 28.434,
      "duration": 0.3139,
      "velocity": 111,
      "chip": "ym2612"
    },
    {
      "channel": 0,
      "note": 55,
      "start": 28.7761,
      "duration": 0.6925,
      "velocity": 79,
      "chip": "ym2612"
    },
    {
      "channel": 1,
      "note": 31,
      "start": 28.9518,
      "duration": 0.1732,
      "velocity": 95,
      "chip": "ym2612"
    },
    {
      "channel": 2,
      "note": 30,
      "start": 28.9541,
      "duration": 0.1117,
      "velocity": 119,
      "chip": "ym2612"
    },
    {
      "channel": 1,
      "note": 36,
      "start": 29.1256,
      "duration": 0.1695,
      "velocity": 95,
      "chip": "ym2612"
    },
    {
      "channel": 2,
      "note": 30,
      "start": 29.1282,
      "duration": 0.111,
      "velocity": 119,
      "chip": "ym2612"
    },
    {
      "channel": 1,
      "note": 31,
      "start": 29.2957,
      "duration": 0.1737,
      "velocity": 95,
      "chip": "ym2612"
    },
    {
      "channel": 0,
      "note": 55,
      "start": 29.4692,
      "duration": 0.3483,
      "velocity": 79,
      "chip": "ym2612"
    },
    {
      "channel": 1,
      "note": 36,
      "start": 29.4699,
      "duration": 0.172,
      "velocity": 95,
      "chip": "ym2612"
    },
    {
      "channel": 0,
      "note": 60,
      "start": 29.8183,
      "duration": 0.3437,
      "velocity": 79,
      "chip": "ym2612"
    },
    {
      "channel": 2,
      "note": 69,
      "start": 29.8202,
      "duration": 0.3135,
      "velocity": 111,
      "chip": "ym2612"
    },
    {
      "channel": 1,
      "note": 31,
      "start": 29.9891,
      "duration": 0.1738,
      "velocity": 95,
      "chip": "ym2612"
    },
    {
      "channel": 0,
      "note": 58,
      "start": 30.1628,
      "duration": 0.349,
      "velocity": 79,
      "chip": "ym2612"
    },
    {
      "channel": 1,
      "note": 36,
      "start": 30.1635,
      "duration": 0.1718,
      "velocity": 95,
      "chip": "ym2612"
    },
    {
      "channel": 1,
      "note": 31,
      "start": 30.3359,
      "duration": 0.1768,
      "velocity": 95,
      "chip": "ym2612"
    },
    {
      "channel": 0,
      "note": 57,
      "start": 30.5125,
      "duration": 2.0786,
      "velocity": 79,
      "chip": "ym2612"
    },
    {
      "channel": 1,
      "note": 41,
      "start": 30.5132,
      "duration": 1.2116,
      "velocity": 95,
      "chip": "ym2612"
    },
    {
      "channel": 3,
      "note": 57,
      "start": 30.5142,
      "duration": 2.0786,
      "velocity": 103,
      "chip": "ym2612"
    },
    {
      "channel": 4,
      "note": 53,
      "start": 30.5151,
      "duration": 2.0787,
      "velocity": 103,
      "chip": "ym2612"
    },
    {
      "channel": 5,
      "note": 48,
      "start": 30.516,
      "duration": 2.0788,
      "velocity": 103,
      "chip": "ym2612"
    },
    {
      "channel": 2,
      "note": 30,
      "start": 30.5168,
      "duration": 0.1092,
      "velocity": 119,
      "chip": "ym2612"
    },
    {
      "channel": 2,
      "note": 69,
      "start": 31.2072,
      "duration": 0.3144,
      "velocity": 111,
      "chip": "ym2612"
    },
    {
      "channel": 1,
      "note": 41,
      "start": 31.7253,
      "duration": 0.3434,
      "velocity": 95,
      "chip": "ym2612"
    },
    {
      "channel": 2,
      "note": 30,
      "start": 31.728,
      "duration": 0.1115,
      "velocity": 119,
      "chip": "ym2612"
    },
    {
      "channel": 1,
      "note": 41,
      "start": 32.2463,
      "duration": 0.3458,
      "velocity": 95,
      "chip": "ym2612"
    },
    {
      "channel": 2,
      "note": 30,
      "start": 32.2485,
      "duration": 0.111,
      "velocity": 119,
      "chip": "ym2612"
    },
    {
      "channel": 0,
      "note": 60,
      "start": 32.5919,
      "duration": 0.6932,
      "velocity": 79,
      "chip": "ym2612"
    },
    {
      "channel": 1,
      "note": 38,
      "start": 32.5927,
      "duration": 0.6934,
      "velocity": 95,
      "chip": "ym2612"
    },
    {
      "channel": 3,
      "note": 57,
      "start": 32.5934,
      "duration": 0.6935,
      "velocity": 103,
      "chip": "ym2612"
    },
    {
      "channel": 4,
      "note": 53,
      "start": 32.5946,
      "duration": 0.6934,
      "velocity": 103,
      "chip": "ym2612"
    },
    {
      "channel": 5,
      "note": 50,
      "start": 32.5955,
      "duration": 0.6934,
      "velocity": 103,
      "chip": "ym2612"
    },
    {
      "channel": 2,
      "note": 69,
      "start": 32.5964,
      "duration": 0.312,
      "velocity": 111,
      "chip": "ym2612"
    },
    {
      "channel": 0,
      "note": 62,
      "start": 33.2859,
      "duration": 2.0789,
      "velocity": 79,
      "chip": "ym2612"
    },
    {
      "channel": 1,
      "note": 39,
      "start": 33.2867,
      "duration": 1.2117,
      "velocity": 95,
      "chip": "ym2612"
    },
    {
      "channel": 3,
      "note": 58,
      "start": 33.2878,
      "duration": 2.0778,
      "velocity": 103,
      "chip": "ym2612"
    },
    {
      "channel": 4,
      "note": 55,
      "start": 33.2887,
      "duration": 2.0776,
      "velocity": 103,
      "chip": "ym2612"
    },
    {
      "channel": 5,
      "note": 51,
      "start": 33.2898,
      "duration": 2.0774,
      "velocity": 103,
      "chip": "ym2612"
    },
    {
      "channel": 2,
      "note": 30,
      "start": 33.2906,
      "duration": 0.109,
      "velocity": 119,
      "chip": "ym2612"
    },
    {
      "channel": 2,
      "note": 69,
      "start": 33.9812,
      "duration": 0.3144,
      "velocity": 111,
      "chip": "ym2612"
    },
    {
      "channel": 1,
      "note": 34,
      "start": 34.4989,
      "duration": 0.1733,
      "velocity": 95,
      "chip": "ym2612"
    },
    {
      "channel": 2,
      "note": 30,
      "start": 34.5012,
      "duration": 0.1121,
      "velocity": 119,
      "chip": "ym2612"
    },
    {
      "channel": 1,
      "note": 39,
      "start": 34.6728,
      "duration": 0.1695,
      "velocity": 95,
      "chip": "ym2612"
    },
    {
      "channel": 2,
      "note": 30,
      "start": 34.6751,
      "duration": 0.1112,
      "velocity": 119,
      "chip": "ym2612"
    },
    {
      "channel": 1,
      "note": 34,
      "start": 34.8429,
      "duration": 0.1734,
      "velocity": 95,
      "chip": "ym2612"
    },
    {
      "channel": 1,
      "note": 39,
      "start": 35.0168,
      "duration": 0.1722,
      "velocity": 95,
      "chip": "ym2612"
    },
    {
      "channel": 0,
      "note": 62,
      "start": 35.3653,
      "duration": 0.17,
      "velocity": 79,
      "chip": "ym2612"
    },
    {
      "channel": 3,
      "note": 58,
      "start": 35.3662,
      "duration": 0.5163,
      "velocity": 103,
      "chip": "ym2612"
    },
    {
      "channel": 4,
      "note": 55,
      "start": 35.367,
      "duration": 0.5159,
      "velocity": 103,
      "chip": "ym2612"
    },
    {
      "channel": 5,
      "note": 51,
      "start": 35.3677,
      "duration": 0.5155,
      "velocity": 103,
      "chip": "ym2612"
    },
    {
      "channel": 2,
      "note": 69,
      "start": 35.3686,
      "duration": 0.3131,
      "velocity": 111,
      "chip": "ym2612"
    },
    {
      "channel": 0,
      "note": 60,
      "start": 35.536,
      "duration": 0.1732,
      "velocity": 79,
      "chip": "ym2612"
    },
    {
      "channel": 0,
      "note": 58,
      "start": 35.7099,
      "duration": 0.3487,
      "velocity": 79,
      "chip": "ym2612"
    },
    {
      "channel": 0,
      "note": 57,
      "start": 36.0593,
      "duration": 0.6922,
      "velocity": 79,
      "chip": "ym2612"
    },
    {
      "channel": 1,
      "note": 38,
      "start": 36.06,
      "duration": 1.212,
      "velocity": 95,
      "chip": "ym2612"
    },
    {
      "channel": 3,
      "note": 57,
      "start": 36.0614,
      "duration": 1.3829,
      "velocity": 103,
      "chip": "ym2612"
    },
    {
      "channel": 4,
      "note": 53,
      "start": 36.0623,
      "duration": 1.3829,
      "velocity": 103,
      "chip": "ym2612"
    },
    {
      "channel": 5,
      "note": 50,
      "start": 36.0632,
      "duration": 1.3829,
      "velocity": 103,
      "chip": "ym2612"
    },
    {
      "channel": 2,
      "note": 30,
      "start": 36.064,
      "duration": 0.1091,
      "velocity": 119,
      "chip": "ym2612"
    },
    {
      "channel": 0,
      "note": 65,
      "start": 36.7523,
      "duration": 0.6904,
      "velocity": 79,
      "chip": "ym2612"
    },
    {
      "channel": 2,
      "note": 69,
      "start": 36.7549,
      "duration": 0.3139,
      "velocity": 111,
      "chip": "ym2612"
    },
    {
      "channel": 1,
      "note": 41,
      "start": 37.2726,
      "duration": 0.3433,
      "velocity": 95,
      "chip": "ym2612"
    },
    {
      "channel": 2,
      "note": 30,
      "start": 37.2749,
      "duration": 0.1117,
      "velocity": 119,
      "chip": "ym2612"
    },
    {
      "channel": 0,
      "note": 67,
      "start": 37.4434,
      "duration": 0.3486,
      "velocity": 79,
      "chip": "ym2612"
    },
    {
      "channel": 3,
      "note": 62,
      "start": 37.4451,
      "duration": 1.3885,
      "velocity": 103,
      "chip": "ym2612"
    },
    {
      "channel": 4,
      "note": 58,
      "start": 37.446,
      "duration": 1.3885,
      "velocity": 103,
      "chip": "ym2612"
    },
    {
      "channel": 5,
      "note": 53,
      "start": 37.4469,
      "duration": 1.3885,
      "velocity": 103,
      "chip": "ym2612"
    },
    {
      "channel": 0,
      "note": 62,
      "start": 37.7927,
      "duration": 0.3455,
      "velocity": 79,
      "chip": "ym2612"
    },
    {
      "channel": 1,
      "note": 43,
      "start": 37.7935,
      "duration": 0.3457,
      "velocity": 95,
      "chip": "ym2612"
    },
    {
      "channel": 2,
      "note": 30,
      "start": 37.7961,
      "duration": 0.1106,
      "velocity": 119,
      "chip": "ym2612"
    },
    {
      "channel": 0,
      "note": 60,
      "start": 38.139,
      "duration": 0.3437,
      "velocity": 79,
      "chip": "ym2612"
    },
    {
      "channel": 2,
      "note": 69,
      "start": 38.1417,
      "duration": 0.3139,
      "velocity": 111,
      "chip": "ym2612"
    },
    {
      "channel": 1,
      "note": 37,
      "start": 38.31,
      "duration": 0.3462,
      "velocity": 95,
      "chip": "ym2612"
    },
    {
      "channel": 0,
      "note": 58,
      "start": 38.4836,
      "duration": 1.0416,
      "velocity": 79,
      "chip": "ym2612"
    },
    {
      "channel": 1,
      "note": 36,
      "start": 38.8334,
      "duration": 1.2125,
      "velocity": 95,
      "chip": "ym2612"
    },
    {
      "channel": 3,
      "note": 55,
      "start": 38.8343,
      "duration": 1.3863,
      "velocity": 103,
      "chip": "ym2612"
    },
    {
      "channel": 4,
      "note": 51,
      "start": 38.8353,
      "duration": 1.3863,
      "velocity": 103,
      "chip": "ym2612"
    },
    {
      "channel": 5,
      "note": 48,
      "start": 38.8362,
      "duration": 1.3863,
      "velocity": 103,
      "chip": "ym2612"
    },
    {
      "channel": 2,
      "note": 30,
      "start": 38.837,
      "duration": 0.1098,
      "velocity": 119,
      "chip": "ym2612"
    },
    {
      "channel": 0,
      "note": 58,
      "start": 39.5259,
      "duration": 0.3436,
      "velocity": 79,
      "chip": "ym2612"
    },
    {
      "channel": 2,
      "note": 69,
      "start": 39.5289,
      "duration": 0.3135,
      "velocity": 111,
      "chip": "ym2612"
    },
    {
      "channel": 0,
      "note": 60,
      "start": 39.8703,
      "duration": 0.3487,
      "velocity": 79,
      "chip": "ym2612"
    },
    {
      "channel": 1,
      "note": 36,
      "start": 40.0464,
      "duration": 0.1735,
      "velocity": 95,
      "chip": "ym2612"
    },
    {
      "channel": 2,
      "note": 30,
      "start": 40.0486,
      "duration": 0.1118,
      "velocity": 119,
      "chip": "ym2612"
    },
    {
      "channel": 0,
      "note": 57,
      "start": 40.2198,
      "duration": 0.6926,
      "velocity": 79,
      "chip": "ym2612"
    },
    {
      "channel": 1,
      "note": 41,
      "start": 40.2205,
      "duration": 0.1691,
      "velocity": 95,
      "chip": "ym2612"
    },
    {
      "channel": 3,
      "note": 53,
      "start": 40.2214,
      "duration": 1.3859,
      "velocity": 103,
      "chip": "ym2612"
    },
    {
      "channel": 4,
      "note": 51,
      "start": 40.2223,
      "duration": 1.386,
      "velocity": 103,
      "chip": "ym2612"
    },
    {
      "channel": 5,
      "note": 48,
      "start": 40.2232,
      "duration": 1.386,
      "velocity": 103,
      "chip": "ym2612"
    },
    {
      "channel": 2,
      "note": 30,
      "start": 40.224,
      "duration": 0.1095,
      "velocity": 119,
      "chip": "ym2612"
    },
    {
      "channel": 0,
      "note": 55,
      "start": 40.9132,
      "duration": 0.6926,
      "velocity": 79,
      "chip": "ym2612"
    },
    {
      "channel": 2,
      "note": 69,
      "start": 40.9155,
      "duration": 0.3141,
      "velocity": 111,
      "chip": "ym2612"
    },
    {
      "channel": 1,
      "note": 36,
      "start": 41.0836,
      "duration": 0.1733,
      "velocity": 95,
      "chip": "ym2612"
    },
    {
      "channel": 1,
      "note": 41,
      "start": 41.2574,
      "duration": 0.1722,
      "velocity": 95,
      "chip": "ym2612"
    },
    {
      "channel": 1,
      "note": 36,
      "start": 41.4302,
      "duration": 0.1764,
      "velocity": 95,
      "chip": "ym2612"
    },
    {
      "channel": 0,
      "note": 53,
      "start": 41.6065,
      "duration": 2.079,
      "velocity": 79,
      "chip": "ym2612"
    },
    {
      "channel": 1,
      "note": 34,
      "start": 41.6072,
      "duration": 1.2121,
      "velocity": 95,
      "chip": "ym2612"
    },
    {
      "channel": 3,
      "note": 58,
      "start": 41.6081,
      "duration": 2.078,
      "velocity": 103,
      "chip": "ym2612"
    },
    {
      "channel": 4,
      "note": 57,
      "start": 41.6091,
      "duration": 2.0774,
      "velocity": 103,
      "chip": "ym2612"
    },
    {
      "channel": 5,
      "note": 53,
      "start": 41.61,
      "duration": 2.0768,
      "velocity": 103,
      "chip": "ym2612"
    },
    {
      "channel": 2,
      "note": 30,
      "start": 41.6112,
      "duration": 0.109,
      "velocity": 119,
      "chip": "ym2612"
    },
    {
      "channel": 2,
      "note": 69,
      "start": 42.3016,
      "duration": 0.3143,
      "velocity": 111,
      "chip": "ym2612"
    },
    {
      "channel": 1,
      "note": 34,
      "start": 42.8197,
      "duration": 0.3435,
      "velocity": 95,
      "chip": "ym2612"
    },
    {
      "channel": 2,
      "note": 30,
      "start": 42.8219,
      "duration": 0.1119,
      "velocity": 119,
      "chip": "ym2612"
    },
    {
      "channel": 1,
      "note": 34,
      "start": 43.3402,
      "duration": 0.3456,
      "velocity": 95,
      "chip": "ym2612"
    },
    {
      "channel": 2,
      "note": 30,
      "start": 43.3425,
      "duration": 0.1112,
      "velocity": 119,
      "chip": "ym2612"
    },
    {
      "channel": 2,
      "note": 69,
      "start": 43.6878,
      "duration": 0.3135,
      "velocity": 111,
      "chip": "ym2612"
    },
    {
      "channel": 1,
      "note": 38,
      "start": 43.8568,
      "duration": 0.3469,
      "velocity": 95,
      "chip": "ym2612"
    },
    {
      "channel": 0,
      "note": 58,
      "start": 44.0308,
      "duration": 0.172,
      "velocity": 79,
      "chip": "ym2612"
    },
    {
      "channel": 0,
      "note": 60,
      "start": 44.2036,
      "duration": 0.1763,
      "velocity": 79,
      "chip": "ym2612"
    },
    {
      "channel": 0,
      "note": 62,
      "start": 44.3806,
      "duration": 0.3427,
      "velocity": 79,
      "chip": "ym2612"
    },
    {
      "channel": 1,
      "note": 36,
      "start": 44.3814,
      "duration": 1.2113,
      "velocity": 95,
      "chip": "ym2612"
    },
    {
      "channel": 3,
      "note": 58,
      "start": 44.3824,
      "duration": 2.0772,
      "velocity": 103,
      "chip": "ym2612"
    },
    {
      "channel": 4,
      "note": 55,
      "start": 44.3834,
      "duration": 2.0765,
      "velocity": 103,
      "chip": "ym2612"
    },
    {
      "channel": 5,
      "note": 51,
      "start": 44.3845,
      "duration": 2.076,
      "velocity": 103,
      "chip": "ym2612"
    },
    {
      "channel": 2,
      "note": 30,
      "start": 44.3853,
      "duration": 0.1091,
      "velocity": 119,
      "chip": "ym2612"
    },
    {
      "channel": 0,
      "note": 58,
      "start": 44.7241,
      "duration": 0.3481,
      "velocity": 79,
      "chip": "ym2612"
    },
    {
      "channel": 0,
      "note": 58,
      "start": 45.073,
      "duration": 0.3439,
      "velocity": 79,
      "chip": "ym2612"
    },
    {
      "channel": 2,
      "note": 69,
      "start": 45.0756,
      "duration": 0.3139,
      "velocity": 111,
      "chip": "ym2612"
    },
    {
      "channel": 0,
      "note": 55,
      "start": 45.4177,
      "duration": 0.3485,
      "velocity": 79,
      "chip": "ym2612"
    },
    {
      "channel": 1,
      "note": 31,
      "start": 45.5933,
      "duration": 0.1737,
      "velocity": 95,
      "chip": "ym2612"
    },
    {
      "channel": 2,
      "note": 30,
      "start": 45.596,
      "duration": 0.1115,
      "velocity": 119,
      "chip": "ym2612"
    },
    {
      "channel": 0,
      "note": 58,
      "start": 45.7669,
      "duration": 0.3435,
      "velocity": 79,
      "chip": "ym2612"
    },
    {
      "channel": 1,
      "note": 36,
      "start": 45.7676,
      "duration": 0.1691,
      "velocity": 95,
      "chip": "ym2612"
    },
    {
      "channel": 2,
      "note": 30,
      "start": 45.7698,
      "duration": 0.1109,
      "velocity": 119,
      "chip": "ym2612"
    },
    {
      "channel": 0,
      "note": 62,
      "start": 46.1114,
      "duration": 0.6922,
      "velocity": 79,
      "chip": "ym2612"
    },
    {
      "channel": 1,
      "note": 36,
      "start": 46.1121,
      "duration": 0.1713,
      "velocity": 95,
      "chip": "ym2612"
    },
    {
      "channel": 2,
      "note": 69,
      "start": 46.4617,
      "duration": 0.3136,
      "velocity": 111,
      "chip": "ym2612"
    },
    {
      "channel": 1,
      "note": 31,
      "start": 46.6307,
      "duration": 0.1739,
      "velocity": 95,
      "chip": "ym2612"
    },
    {
      "channel": 0,
      "note": 60,
      "start": 46.8044,
      "duration": 0.6926,
      "velocity": 79,
      "chip": "ym2612"
    },
    {
      "channel": 1,
      "note": 36,
      "start": 46.8051,
      "duration": 0.1719,
      "velocity": 95,
      "chip": "ym2612"
    },
    {
      "channel": 1,
      "note": 37,
      "start": 46.9778,
      "duration": 0.1757,
      "velocity": 95,
      "chip": "ym2612"
    },
    {
      "channel": 1,
      "note": 38,
      "start": 47.1542,
      "duration": 0.8628,
      "velocity": 95,
      "chip": "ym2612"
    },
    {
      "channel": 3,
      "note": 57,
      "start": 47.1551,
      "duration": 1.3831,
      "velocity": 103,
      "chip": "ym2612"
    },
    {
      "channel": 4,
      "note": 53,
      "start": 47.156,
      "duration": 1.3831,
      "velocity": 103,
      "chip": "ym2612"
    },
    {
      "channel": 5,
      "note": 50,
      "start": 47.1569,
      "duration": 1.383,
      "velocity": 103,
      "chip": "ym2612"
    },
    {
      "channel": 2,
      "note": 30,
      "start": 47.1578,
      "duration": 0.1098,
      "velocity": 119,
      "chip": "ym2612"
    },
    {
      "channel": 0,
      "note": 62,
      "start": 47.4977,
      "duration": 0.3485,
      "velocity": 79,
      "chip": "ym2612"
    },
    {
      "channel": 0,
      "note": 63,
      "start": 47.847,
      "duration": 0.3434,
      "velocity": 79,
      "chip": "ym2612"
    },
    {
      "channel": 2,
      "note": 69,
      "start": 47.8496,
      "duration": 0.3138,
      "velocity": 111,
      "chip": "ym2612"
    },
    {
      "channel": 1,
      "note": 33,
      "start": 48.0176,
      "duration": 0.1737,
      "velocity": 95,
      "chip": "ym2612"
    },
    {
      "channel": 0,
      "note": 62,
      "start": 48.1912,
      "duration": 0.3459,
      "velocity": 79,
      "chip": "ym2612"
    },
    {
      "channel": 1,
      "note": 38,
      "start": 48.1919,
      "duration": 0.1744,
      "velocity": 95,
      "chip": "ym2612"
    },
    {
      "channel": 1,
      "note": 33,
      "start": 48.3669,
      "duration": 0.1705,
      "velocity": 95,
      "chip": "ym2612"
    },
    {
      "channel": 2,
      "note": 30,
      "start": 48.3691,
      "duration": 0.1118,
      "velocity": 119,
      "chip": "ym2612"
    },
    {
      "channel": 1,
      "note": 43,
      "start": 48.538,
      "duration": 0.1719,
      "velocity": 95,
      "chip": "ym2612"
    },
    {
      "channel": 3,
      "note": 58,
      "start": 48.5389,
      "duration": 1.3898,
      "velocity": 103,
      "chip": "ym2612"
    },
    {
      "channel": 4,
      "note": 57,
      "start": 48.5398,
      "duration": 1.3899,
      "velocity": 103,
      "chip": "ym2612"
    },
    {
      "channel": 5,
      "note": 53,
      "start": 48.5407,
      "duration": 1.3899,
      "velocity": 103,
      "chip": "ym2612"
    },
    {
      "channel": 1,
      "note": 38,
      "start": 48.7109,
      "duration": 0.1757,
      "velocity": 95,
      "chip": "ym2612"
    },
    {
      "channel": 1,
      "note": 31,
      "start": 48.8871,
      "duration": 0.1696,
      "velocity": 95,
      "chip": "ym2612"
    },
    {
      "channel": 2,
      "note": 30,
      "start": 48.8893,
      "duration": 0.1114,
      "velocity": 119,
      "chip": "ym2612"
    },
    {
      "channel": 0,
      "note": 62,
      "start": 49.2334,
      "duration": 0.1698,
      "velocity": 79,
      "chip": "ym2612"
    },
    {
      "channel": 2,
      "note": 69,
      "start": 49.2358,
      "duration": 0.3142,
      "velocity": 111,
      "chip": "ym2612"
    },
    {
      "channel": 0,
      "note": 60,
      "start": 49.4041,
      "duration": 0.1735,
      "velocity": 79,
      "chip": "ym2612"
    },
    {
      "channel": 1,
      "note": 38,
      "start": 49.4048,
      "duration": 0.3461,
      "velocity": 95,
      "chip": "ym2612"
    },
    {
      "channel": 0,
      "note": 58,
      "start": 49.5784,
      "duration": 0.1716,
      "velocity": 79,
      "chip": "ym2612"
    },
    {
      "channel": 0,
      "note": 60,
      "start": 49.7507,
      "duration": 0.176,
      "velocity": 79,
      "chip": "ym2612"
    },
    {
      "channel": 0,
      "note": 58,
      "start": 49.9279,
      "duration": 0.6916,
      "velocity": 79,
      "chip": "ym2612"
    },
    {
      "channel": 1,
      "note": 36,
      "start": 49.9286,
      "duration": 0.6917,
      "velocity": 95,
      "chip": "ym2612"
    },
    {
      "channel": 3,
      "note": 58,
      "start": 49.9295,
      "duration": 1.3858,
      "velocity": 103,
      "chip": "ym2612"
    },
    {
      "channel": 4,
      "note": 55,
      "start": 49.9304,
      "duration": 1.3858,
      "velocity": 103,
      "chip": "ym2612"
    },
    {
      "channel": 5,
      "note": 51,
      "start": 49.9313,
      "duration": 1.3858,
      "velocity": 103,
      "chip": "ym2612"
    },
    {
      "channel": 2,
      "note": 30,
      "start": 49.9322,
      "duration": 0.1089,
      "velocity": 119,
      "chip": "ym2612"
    },
    {
      "channel": 0,
      "note": 58,
      "start": 50.6202,
      "duration": 0.17,
      "velocity": 79,
      "chip": "ym2612"
    },
    {
      "channel": 1,
      "note": 36,
      "start": 50.6207,
      "duration": 0.2276,
      "velocity": 95,
      "chip": "ym2612"
    },
    {
      "channel": 2,
      "note": 69,
      "start": 50.623,
      "duration": 0.3137,
      "velocity": 111,
      "chip": "ym2612"
    },
    {
      "channel": 0,
      "note": 60,
      "start": 50.7908,
      "duration": 0.1731,
      "velocity": 79,
      "chip": "ym2612"
    },
    {
      "channel": 1,
      "note": 43,
      "start": 50.8489,
      "duration": 0.2305,
      "velocity": 95,
      "chip": "ym2612"
    },
    {
      "channel": 0,
      "note": 58,
      "start": 50.9647,
      "duration": 0.349,
      "velocity": 79,
      "chip": "ym2612"
    },
    {
      "channel": 1,
      "note": 42,
      "start": 51.08,
      "duration": 0.2346,
      "velocity": 95,
      "chip": "ym2612"
    },
    {
      "channel": 2,
      "note": 30,
      "start": 51.1424,
      "duration": 0.1122,
      "velocity": 119,
      "chip": "ym2612"
    },
    {
      "channel": 0,
      "note": 57,
      "start": 51.3145,
      "duration": 0.6918,
      "velocity": 79,
      "chip": "ym2612"
    },
    {
      "channel": 1,
      "note": 41,
      "start": 51.3152,
      "duration": 0.2266,
      "velocity": 95,
      "chip": "ym2612"
    },
    {
      "channel": 3,
      "note": 60,
      "start": 51.3161,
      "duration": 1.3856,
      "velocity": 103,
      "chip": "ym2612"
    },
    {
      "channel": 4,
      "note": 57,
      "start": 51.317,
      "duration": 1.3856,
      "velocity": 103,
      "chip": "ym2612"
    },
    {
      "channel": 5,
      "note": 51,
      "start": 51.3179,
      "duration": 1.3856,
      "velocity": 103,
      "chip": "ym2612"
    },
    {
      "channel": 2,
      "note": 30,
      "start": 51.3188,
      "duration": 0.1097,
      "velocity": 119,
      "chip": "ym2612"
    },
    {
      "channel": 1,
      "note": 36,
      "start": 51.5424,
      "duration": 0.2304,
      "velocity": 95,
      "chip": "ym2612"
    },
    {
      "channel": 1,
      "note": 29,
      "start": 51.7733,
      "duration": 0.6929,
      "velocity": 95,
      "chip": "ym2612"
    },
    {
      "channel": 0,
      "note": 60,
      "start": 52.0071,
      "duration": 0.17,
      "velocity": 79,
      "chip": "ym2612"
    },
    {
      "channel": 2,
      "note": 69,
      "start": 52.0097,
      "duration": 0.3139,
      "velocity": 111,
      "chip": "ym2612"
    },
    {
      "channel": 0,
      "note": 58,
      "start": 52.1781,
      "duration": 0.1727,
      "velocity": 79,
      "chip": "ym2612"
    },
    {
      "channel": 0,
      "note": 57,
      "start": 52.3515,
      "duration": 0.3486,
      "velocity": 79,
      "chip": "ym2612"
    },
    {
      "channel": 0,
      "note": 58,
      "start": 52.7009,
      "duration": 1.3834,
      "velocity": 79,
      "chip": "ym2612"
    },
    {
      "channel": 1,
      "note": 34,
      "start": 52.7016,
      "duration": 1.3836,
      "velocity": 95,
      "chip": "ym2612"
    },
    {
      "channel": 3,
      "note": 57,
      "start": 52.7025,
      "duration": 1.3834,
      "velocity": 103,
      "chip": "ym2612"
    },
    {
      "channel": 4,
      "note": 53,
      "start": 52.7034,
      "duration": 1.3834,
      "velocity": 103,
      "chip": "ym2612"
    },
    {
      "channel": 5,
      "note": 50,
      "start": 52.7044,
      "duration": 1.3834,
      "velocity": 103,
      "chip": "ym2612"
    },
    {
      "channel": 2,
      "note": 30,
      "start": 52.7052,
      "duration": 0.1095,
      "velocity": 119,
      "chip": "ym2612"
    },
    {
      "channel": 2,
      "note": 69,
      "start": 53.3964,
      "duration": 0.3144,
      "velocity": 111,
      "chip": "ym2612"
    },
    {
      "channel": 2,
      "note": 30,
      "start": 53.9164,
      "duration": 0.1122,
      "velocity": 119,
      "chip": "ym2612"
    },
    {
      "channel": 0,
      "note": 65,
      "start": 54.085,
      "duration": 0.6952,
      "velocity": 79,
      "chip": "ym2612"
    },
    {
      "channel": 1,
      "note": 33,
      "start": 54.0858,
      "duration": 0.6954,
      "velocity": 95,
      "chip": "ym2612"
    },
    {
      "channel": 3,
      "note": 63,
      "start": 54.0867,
      "duration": 0.6952,
      "velocity": 103,
      "chip": "ym2612"
    },
    {
      "channel": 4,
      "note": 55,
      "start": 54.0876,
      "duration": 0.695,
      "velocity": 103,
      "chip": "ym2612"
    },
    {
      "channel": 5,
      "note": 51,
      "start": 54.0885,
      "duration": 0.6951,
      "velocity": 103,
      "chip": "ym2612"
    },
    {
      "channel": 2,
      "note": 30,
      "start": 54.4364,
      "duration": 0.1118,
      "velocity": 119,
      "chip": "ym2612"
    },
    {
      "channel": 0,
      "note": 63,
      "start": 54.781,
      "duration": 0.696,
      "velocity": 103,
      "chip": "ym2612"
    },
    {
      "channel": 1,
      "note": 38,
      "start": 54.7817,
      "duration": 0.6966,
      "velocity": 95,
      "chip": "ym2612"
    },
    {
      "channel": 3,
      "note": 63,
      "start": 54.7825,
      "duration": 0.6966,
      "velocity": 103,
      "chip": "ym2612"
    },
    {
      "channel": 4,
      "note": 57,
      "start": 54.7834,
      "duration": 0.6966,
      "velocity": 103,
      "chip": "ym2612"
    },
    {
      "channel": 5,
      "note": 54,
      "start": 54.7843,
      "duration": 0.6967,
      "velocity": 103,
      "chip": "ym2612"
    },
    {
      "channel": 2,
      "note": 69,
      "start": 54.7852,
      "duration": 0.3119,
      "velocity": 111,
      "chip": "ym2612"
    },
    {
      "channel": 0,
      "note": 62,
      "start": 55.4781,
      "duration": 0.6915,
      "velocity": 103,
      "chip": "ym2612"
    },
    {
      "channel": 1,
      "note": 31,
      "start": 55.4789,
      "duration": 0.6907,
      "velocity": 95,
      "chip": "ym2612"
    },
    {
      "channel": 3,
      "note": 58,
      "start": 55.4798,
      "duration": 0.6898,
      "velocity": 103,
      "chip": "ym2612"
    },
    {
      "channel": 4,
      "note": 57,
      "start": 55.4808,
      "duration": 0.6888,
      "velocity": 103,
      "chip": "ym2612"
    },
    {
      "channel": 5,
      "note": 53,
      "start": 55.4818,
      "duration": 0.6878,
      "velocity": 103,
      "chip": "ym2612"
    },
    {
      "channel": 2,
      "note": 30,
      "start": 55.4826,
      "duration": 0.1057,
      "velocity": 119,
      "chip": "ym2612"
    },
    {
      "channel": 2,
      "note": 69,
      "start": 56.1696,
      "duration": 0.0,
      "velocity": 111,
      "chip": "ym2612"
    }
  ]
}