{
  "track_name": "08 - Round 3-1",
  "duration_sec": 40.611,
  "sample_rate": 44100,
  "note_count": 1027,
  "unique_pitches": 20,
  "pitch_range": 47,
  "avg_note_duration": 0.1564,
  "reconstruction_stats": {
    "notes_reconstructed": 1027,
    "keyon_events": 1027,
    "keyoff_events": 1022,
    "orphan_keyons": 5,
    "unique_pitches": 20,
    "pitch_range": 47,
    "avg_duration_sec": 0.1564
  },
  "metadata": {
    "source": "E\\Eliminate Down\\08 - Round 3-1.vgm"
  },
  "notes": [
    {
      "channel": 1,
      "note": 73,
      "start": 0.0,
      "duration": 0.1897,
      "velocity": 103,
      "chip": "ym2612"
    },
    {
      "channel": 2,
      "note": 49,
      "start": 0.0017,
      "duration": 0.1882,
      "velocity": 91,
      "chip": "ym2612"
    },
    {
      "channel": 3,
      "note": 45,
      "start": 0.0037,
      "duration": 0.1863,
      "velocity": 127,
      "chip": "ym2612"
    },
    {
      "channel": 4,
      "note": 61,
      "start": 0.0054,
      "duration": 0.1847,
      "velocity": 105,
      "chip": "ym2612"
    },
    {
      "channel": 5,
      "note": 33,
      "start": 0.0072,
      "duration": 0.1831,
      "velocity": 127,
      "chip": "ym2612"
    },
    {
      "channel": 1,
      "note": 76,
      "start": 0.2073,
      "duration": 0.1919,
      "velocity": 103,
      "chip": "ym2612"
    },
    {
      "channel": 2,
      "note": 52,
      "start": 0.2075,
      "duration": 0.1919,
      "velocity": 91,
      "chip": "ym2612"
    },
    {
      "channel": 3,
      "note": 45,
      "start": 0.2076,
      "duration": 0.1919,
      "velocity": 127,
      "chip": "ym2612"
    },
    {
      "channel": 4,
      "note": 64,
      "start": 0.2078,
      "duration": 0.1918,
      "velocity": 105,
      "chip": "ym2612"
    },
    {
      "channel": 5,
      "note": 33,
      "start": 0.2079,
      "duration": 0.1918,
      "velocity": 127,
      "chip": "ym2612"
    },
    {
      "channel": 1,
      "note": 78,
      "start": 0.4168,
      "duration": 0.192,
      "velocity": 103,
      "chip": "ym2612"
    },
    {
      "channel": 2,
      "note": 54,
      "start": 0.417,
      "duration": 0.1919,
      "velocity": 91,
      "chip": "ym2612"
    },
    {
      "channel": 3,
      "note": 45,
      "start": 0.4171,
      "duration": 0.1919,
      "velocity": 127,
      "chip": "ym2612"
    },
    {
      "channel": 4,
      "note": 66,
      "start": 0.4173,
      "duration": 0.1919,
      "velocity": 105,
      "chip": "ym2612"
    },
    {
      "channel": 5,
      "note": 33,
      "start": 0.4174,
      "duration": 0.0866,
      "velocity": 127,
      "chip": "ym2612"
    },
    {
      "channel": 5,
      "note": 68,
      "start": 0.523,
      "duration": 0.0863,
      "velocity": 127,
      "chip": "ym2612"
    },
    {
      "channel": 1,
      "note": 49,
      "start": 0.6277,
      "duration": 0.0858,
      "velocity": 127,
      "chip": "ym2612"
    },
    {
      "channel": 2,
      "note": 49,
      "start": 0.6279,
      "duration": 0.0857,
      "velocity": 91,
      "chip": "ym2612"
    },
    {
      "channel": 5,
      "note": 68,
      "start": 0.628,
      "duration": 0.0857,
      "velocity": 127,
      "chip": "ym2612"
    },
    {
      "channel": 1,
      "note": 49,
      "start": 0.731,
      "duration": 0.0872,
      "velocity": 127,
      "chip": "ym2612"
    },
    {
      "channel": 2,
      "note": 49,
      "start": 0.7311,
      "duration": 0.0872,
      "velocity": 91,
      "chip": "ym2612"
    },
    {
      "channel": 5,
      "note": 33,
      "start": 0.7327,
      "duration": 0.0857,
      "velocity": 127,
      "chip": "ym2612"
    },
    {
      "channel": 1,
      "note": 49,
      "start": 0.8356,
      "duration": 0.192,
      "velocity": 127,
      "chip": "ym2612"
    },
    {
      "channel": 2,
      "note": 49,
      "start": 0.8357,
      "duration": 0.1921,
      "velocity": 91,
      "chip": "ym2612"
    },
    {
      "channel": 5,
      "note": 68,
      "start": 0.8378,
      "duration": 0.0851,
      "velocity": 127,
      "chip": "ym2612"
    },
    {
      "channel": 5,
      "note": 68,
      "start": 0.9419,
      "duration": 0.086,
      "velocity": 127,
      "chip": "ym2612"
    },
    {
      "channel": 1,
      "note": 49,
      "start": 1.0451,
      "duration": 0.0873,
      "velocity": 127,
      "chip": "ym2612"
    },
    {
      "channel": 2,
      "note": 49,
      "start": 1.0453,
      "duration": 0.0873,
      "velocity": 91,
      "chip": "ym2612"
    },
    {
      "channel": 5,
      "note": 68,
      "start": 1.0454,
      "duration": 0.0873,
      "velocity": 127,
      "chip": "ym2612"
    },
    {
      "channel": 1,
      "note": 49,
      "start": 1.1498,
      "duration": 0.0873,
      "velocity": 127,
      "chip": "ym2612"
    },
    {
      "channel": 2,
      "note": 49,
      "start": 1.1499,
      "duration": 0.0873,
      "velocity": 91,
      "chip": "ym2612"
    },
    {
      "channel": 5,
      "note": 68,
      "start": 1.1501,
      "duration": 0.0873,
      "velocity": 127,
      "chip": "ym2612"
    },
    {
      "channel": 1,
      "note": 49,
      "start": 1.2546,
      "duration": 0.192,
      "velocity": 127,
      "chip": "ym2612"
    },
    {
      "channel": 2,
      "note": 49,
      "start": 1.2547,
      "duration": 0.192,
      "velocity": 91,
      "chip": "ym2612"
    },
    {
      "channel": 5,
      "note": 33,
      "start": 1.2564,
      "duration": 0.0854,
      "velocity": 127,
      "chip": "ym2612"
    },
    {
      "channel": 5,
      "note": 68,
      "start": 1.3609,
      "duration": 0.0859,
      "velocity": 127,
      "chip": "ym2612"
    },
    {
      "channel": 1,
      "note": 49,
      "start": 1.464,
      "duration": 0.0873,
      "velocity": 127,
      "chip": "ym2612"
    },
    {
      "channel": 2,
      "note": 49,
      "start": 1.4641,
      "duration": 0.0873,
      "velocity": 91,
      "chip": "ym2612"
    },
    {
      "channel": 5,
      "note": 33,
      "start": 1.4659,
      "duration": 0.0857,
      "velocity": 127,
      "chip": "ym2612"
    },
    {
      "channel": 1,
      "note": 49,
      "start": 1.5687,
      "duration": 0.0873,
      "velocity": 127,
      "chip": "ym2612"
    },
    {
      "channel": 2,
      "note": 49,
      "start": 1.5689,
      "duration": 0.0873,
      "velocity": 91,
      "chip": "ym2612"
    },
    {
      "channel": 5,
      "note": 68,
      "start": 1.571,
      "duration": 0.0853,
      "velocity": 127,
      "chip": "ym2612"
    },
    {
      "channel": 1,
      "note": 49,
      "start": 1.6734,
      "duration": 0.192,
      "velocity": 127,
      "chip": "ym2612"
    },
    {
      "channel": 2,
      "note": 49,
      "start": 1.6736,
      "duration": 0.192,
      "velocity": 91,
      "chip": "ym2612"
    },
    {
      "channel": 5,
      "note": 68,
      "start": 1.6752,
      "duration": 0.0856,
      "velocity": 127,
      "chip": "ym2612"
    },
    {
      "channel": 5,
      "note": 68,
      "start": 1.7798,
      "duration": 0.086,
      "velocity": 127,
      "chip": "ym2612"
    },
    {
      "channel": 1,
      "note": 49,
      "start": 1.8829,
      "duration": 0.0875,
      "velocity": 127,
      "chip": "ym2612"
    },
    {
      "channel": 2,
      "note": 49,
      "start": 1.8831,
      "duration": 0.0875,
      "velocity": 91,
      "chip": "ym2612"
    },
    {
      "channel": 5,
      "note": 68,
      "start": 1.8832,
      "duration": 0.0875,
      "velocity": 127,
      "chip": "ym2612"
    },
    {
      "channel": 1,
      "note": 49,
      "start": 1.9877,
      "duration": 0.0872,
      "velocity": 127,
      "chip": "ym2612"
    },
    {
      "channel": 2,
      "note": 49,
      "start": 1.9878,
      "duration": 0.0872,
      "velocity": 91,
      "chip": "ym2612"
    },
    {
      "channel": 5,
      "note": 68,
      "start": 1.988,
      "duration": 0.0873,
      "velocity": 127,
      "chip": "ym2612"
    },
    {
      "channel": 1,
      "note": 49,
      "start": 2.0924,
      "duration": 0.192,
      "velocity": 127,
      "chip": "ym2612"
    },
    {
      "channel": 2,
      "note": 49,
      "start": 2.0925,
      "duration": 0.192,
      "velocity": 91,
      "chip": "ym2612"
    },
    {
      "channel": 5,
      "note": 33,
      "start": 2.0942,
      "duration": 0.0855,
      "velocity": 127,
      "chip": "ym2612"
    },
    {
      "channel": 5,
      "note": 68,
      "start": 2.1988,
      "duration": 0.0859,
      "velocity": 127,
      "chip": "ym2612"
    },
    {
      "channel": 1,
      "note": 49,
      "start": 2.3019,
      "duration": 0.0872,
      "velocity": 127,
      "chip": "ym2612"
    },
    {
      "channel": 2,
      "note": 49,
      "start": 2.302,
      "duration": 0.0872,
      "velocity": 91,
      "chip": "ym2612"
    },
    {
      "channel": 5,
      "note": 68,
      "start": 2.3021,
      "duration": 0.0873,
      "velocity": 127,
      "chip": "ym2612"
    },
    {
      "channel": 1,
      "note": 49,
      "start": 2.4066,
      "duration": 0.0872,
      "velocity": 127,
      "chip": "ym2612"
    },
    {
      "channel": 2,
      "note": 49,
      "start": 2.4068,
      "duration": 0.0872,
      "velocity": 91,
      "chip": "ym2612"
    },
    {
      "channel": 5,
      "note": 33,
      "start": 2.4085,
      "duration": 0.0857,
      "velocity": 127,
      "chip": "ym2612"
    },
    {
      "channel": 1,
      "note": 49,
      "start": 2.5114,
      "duration": 0.1924,
      "velocity": 127,
      "chip": "ym2612"
    },
    {
      "channel": 2,
      "note": 49,
      "start": 2.5115,
      "duration": 0.1924,
      "velocity": 91,
      "chip": "ym2612"
    },
    {
      "channel": 5,
      "note": 68,
      "start": 2.5132,
      "duration": 0.0855,
      "velocity": 127,
      "chip": "ym2612"
    },
    {
      "channel": 5,
      "note": 68,
      "start": 2.6177,
      "duration": 0.0864,
      "velocity": 127,
      "chip": "ym2612"
    },
    {
      "channel": 1,
      "note": 49,
      "start": 2.7208,
      "duration": 0.0873,
      "velocity": 127,
      "chip": "ym2612"
    },
    {
      "channel": 2,
      "note": 49,
      "start": 2.7209,
      "duration": 0.0873,
      "velocity": 91,
      "chip": "ym2612"
    },
    {
      "channel": 5,
      "note": 68,
      "start": 2.721,
      "duration": 0.0873,
      "velocity": 127,
      "chip": "ym2612"
    },
    {
      "channel": 1,
      "note": 49,
      "start": 2.8256,
      "duration": 0.0873,
      "velocity": 127,
      "chip": "ym2612"
    },
    {
      "channel": 2,
      "note": 49,
      "start": 2.8257,
      "duration": 0.0873,
      "velocity": 91,
      "chip": "ym2612"
    },
    {
      "channel": 5,
      "note": 68,
      "start": 2.8258,
      "duration": 0.0873,
      "velocity": 127,
      "chip": "ym2612"
    },
    {
      "channel": 1,
      "note": 49,
      "start": 2.9302,
      "duration": 0.192,
      "velocity": 127,
      "chip": "ym2612"
    },
    {
      "channel": 2,
      "note": 49,
      "start": 2.9304,
      "duration": 0.192,
      "velocity": 91,
      "chip": "ym2612"
    },
    {
      "channel": 5,
      "note": 33,
      "start": 2.9321,
      "duration": 0.0855,
      "velocity": 127,
      "chip": "ym2612"
    },
    {
      "channel": 5,
      "note": 68,
      "start": 3.037,
      "duration": 0.0856,
      "velocity": 127,
      "chip": "ym2612"
    },
    {
      "channel": 1,
      "note": 49,
      "start": 3.1397,
      "duration": 0.0872,
      "velocity": 127,
      "chip": "ym2612"
    },
    {
      "channel": 2,
      "note": 49,
      "start": 3.1399,
      "duration": 0.0872,
      "velocity": 91,
      "chip": "ym2612"
    },
    {
      "channel": 5,
      "note": 33,
      "start": 3.1415,
      "duration": 0.0857,
      "velocity": 127,
      "chip": "ym2612"
    },
    {
      "channel": 1,
      "note": 49,
      "start": 3.2445,
      "duration": 0.0872,
      "velocity": 127,
      "chip": "ym2612"
    },
    {
      "channel": 2,
      "note": 49,
      "start": 3.2446,
      "duration": 0.0872,
      "velocity": 91,
      "chip": "ym2612"
    },
    {
      "channel": 5,
      "note": 68,
      "start": 3.2463,
      "duration": 0.0856,
      "velocity": 127,
      "chip": "ym2612"
    },
    {
      "channel": 1,
      "note": 73,
      "start": 3.3508,
      "duration": 0.1904,
      "velocity": 103,
      "chip": "ym2612"
    },
    {
      "channel": 2,
      "note": 49,
      "start": 3.3509,
      "duration": 0.1904,
      "velocity": 91,
      "chip": "ym2612"
    },
    {
      "channel": 3,
      "note": 45,
      "start": 3.3511,
      "duration": 0.1904,
      "velocity": 127,
      "chip": "ym2612"
    },
    {
      "channel": 4,
      "note": 61,
      "start": 3.3512,
      "duration": 0.1903,
      "velocity": 105,
      "chip": "ym2612"
    },
    {
      "channel": 5,
      "note": 33,
      "start": 3.353,
      "duration": 0.1887,
      "velocity": 127,
      "chip": "ym2612"
    },
    {
      "channel": 1,
      "note": 76,
      "start": 3.5588,
      "duration": 0.1919,
      "velocity": 103,
      "chip": "ym2612"
    },
    {
      "channel": 2,
      "note": 52,
      "start": 3.5589,
      "duration": 0.1919,
      "velocity": 91,
      "chip": "ym2612"
    },
    {
      "channel": 3,
      "note": 45,
      "start": 3.5591,
      "duration": 0.1919,
      "velocity": 127,
      "chip": "ym2612"
    },
    {
      "channel": 4,
      "note": 64,
      "start": 3.5593,
      "duration": 0.1918,
      "velocity": 105,
      "chip": "ym2612"
    },
    {
      "channel": 5,
      "note": 33,
      "start": 3.5594,
      "duration": 0.1918,
      "velocity": 127,
      "chip": "ym2612"
    },
    {
      "channel": 1,
      "note": 78,
      "start": 3.7682,
      "duration": 0.1919,
      "velocity": 103,
      "chip": "ym2612"
    },
    {
      "channel": 2,
      "note": 54,
      "start": 3.7684,
      "duration": 0.1919,
      "velocity": 91,
      "chip": "ym2612"
    },
    {
      "channel": 3,
      "note": 45,
      "start": 3.7685,
      "duration": 0.1919,
      "velocity": 127,
      "chip": "ym2612"
    },
    {
      "channel": 4,
      "note": 66,
      "start": 3.7687,
      "duration": 0.1918,
      "velocity": 105,
      "chip": "ym2612"
    },
    {
      "channel": 5,
      "note": 33,
      "start": 3.7688,
      "duration": 0.0866,
      "velocity": 127,
      "chip": "ym2612"
    },
    {
      "channel": 5,
      "note": 68,
      "start": 3.8745,
      "duration": 0.0861,
      "velocity": 127,
      "chip": "ym2612"
    },
    {
      "channel": 1,
      "note": 49,
      "start": 3.9792,
      "duration": 0.0857,
      "velocity": 127,
      "chip": "ym2612"
    },
    {
      "channel": 2,
      "note": 49,
      "start": 3.9794,
      "duration": 0.0856,
      "velocity": 91,
      "chip": "ym2612"
    },
    {
      "channel": 5,
      "note": 68,
      "start": 3.9795,
      "duration": 0.0856,
      "velocity": 127,
      "chip": "ym2612"
    },
    {
      "channel": 1,
      "note": 49,
      "start": 4.0823,
      "duration": 0.0873,
      "velocity": 127,
      "chip": "ym2612"
    },
    {
      "channel": 2,
      "note": 49,
      "start": 4.0824,
      "duration": 0.0873,
      "velocity": 91,
      "chip": "ym2612"
    },
    {
      "channel": 5,
      "note": 33,
      "start": 4.0841,
      "duration": 0.0861,
      "velocity": 127,
      "chip": "ym2612"
    },
    {
      "channel": 1,
      "note": 49,
      "start": 4.1871,
      "duration": 0.1919,
      "velocity": 127,
      "chip": "ym2612"
    },
    {
      "channel": 2,
      "note": 49,
      "start": 4.1873,
      "duration": 0.1919,
      "velocity": 91,
      "chip": "ym2612"
    },
    {
      "channel": 5,
      "note": 68,
      "start": 4.1889,
      "duration": 0.0854,
      "velocity": 127,
      "chip": "ym2612"
    },
    {
      "channel": 5,
      "note": 68,
      "start": 4.2934,
      "duration": 0.086,
      "velocity": 127,
      "chip": "ym2612"
    },
    {
      "channel": 1,
      "note": 49,
      "start": 4.3965,
      "duration": 0.0873,
      "velocity": 127,
      "chip": "ym2612"
    },
    {
      "channel": 2,
      "note": 49,
      "start": 4.3966,
      "duration": 0.0873,
      "velocity": 91,
      "chip": "ym2612"
    },
    {
      "channel": 5,
      "note": 68,
      "start": 4.3968,
      "duration": 0.0873,
      "velocity": 127,
      "chip": "ym2612"
    },
    {
      "channel": 1,
      "note": 49,
      "start": 4.5012,
      "duration": 0.0873,
      "velocity": 127,
      "chip": "ym2612"
    },
    {
      "channel": 2,
      "note": 49,
      "start": 4.5014,
      "duration": 0.0873,
      "velocity": 91,
      "chip": "ym2612"
    },
    {
      "channel": 5,
      "note": 68,
      "start": 4.5015,
      "duration": 0.0873,
      "velocity": 127,
      "chip": "ym2612"
    },
    {
      "channel": 1,
      "note": 49,
      "start": 4.606,
      "duration": 0.192,
      "velocity": 127,
      "chip": "ym2612"
    },
    {
      "channel": 2,
      "note": 49,
      "start": 4.6061,
      "duration": 0.192,
      "velocity": 91,
      "chip": "ym2612"
    },
    {
      "channel": 5,
      "note": 33,
      "start": 4.6078,
      "duration": 0.0855,
      "velocity": 127,
      "chip": "ym2612"
    },
    {
      "channel": 5,
      "note": 68,
      "start": 4.7123,
      "duration": 0.0859,
      "velocity": 127,
      "chip": "ym2612"
    },
    {
      "channel": 1,
      "note": 49,
      "start": 4.8155,
      "duration": 0.0873,
      "velocity": 127,
      "chip": "ym2612"
    },
    {
      "channel": 2,
      "note": 49,
      "start": 4.8156,
      "duration": 0.0873,
      "velocity": 91,
      "chip": "ym2612"
    },
    {
      "channel": 5,
      "note": 33,
      "start": 4.8173,
      "duration": 0.0857,
      "velocity": 127,
      "chip": "ym2612"
    },
    {
      "channel": 1,
      "note": 49,
      "start": 4.9204,
      "duration": 0.0871,
      "velocity": 127,
      "chip": "ym2612"
    },
    {
      "channel": 2,
      "note": 49,
      "start": 4.9205,
      "duration": 0.0871,
      "velocity": 91,
      "chip": "ym2612"
    },
    {
      "channel": 5,
      "note": 68,
      "start": 4.9222,
      "duration": 0.0855,
      "velocity": 127,
      "chip": "ym2612"
    },
    {
      "channel": 1,
      "note": 49,
      "start": 5.0249,
      "duration": 0.192,
      "velocity": 127,
      "chip": "ym2612"
    },
    {
      "channel": 2,
      "note": 49,
      "start": 5.025,
      "duration": 0.192,
      "velocity": 91,
      "chip": "ym2612"
    },
    {
      "channel": 5,
      "note": 68,
      "start": 5.0267,
      "duration": 0.0856,
      "velocity": 127,
      "chip": "ym2612"
    },
    {
      "channel": 5,
      "note": 68,
      "start": 5.1312,
      "duration": 0.086,
      "velocity": 127,
      "chip": "ym2612"
    },
    {
      "channel": 1,
      "note": 49,
      "start": 5.2344,
      "duration": 0.0872,
      "velocity": 127,
      "chip": "ym2612"
    },
    {
      "channel": 2,
      "note": 49,
      "start": 5.2345,
      "duration": 0.0872,
      "velocity": 91,
      "chip": "ym2612"
    },
    {
      "channel": 5,
      "note": 68,
      "start": 5.2346,
      "duration": 0.0873,
      "velocity": 127,
      "chip": "ym2612"
    },
    {
      "channel": 1,
      "note": 49,
      "start": 5.3391,
      "duration": 0.0873,
      "velocity": 127,
      "chip": "ym2612"
    },
    {
      "channel": 2,
      "note": 49,
      "start": 5.3392,
      "duration": 0.0873,
      "velocity": 91,
      "chip": "ym2612"
    },
    {
      "channel": 5,
      "note": 68,
      "start": 5.3394,
      "duration": 0.0872,
      "velocity": 127,
      "chip": "ym2612"
    },
    {
      "channel": 1,
      "note": 49,
      "start": 5.4438,
      "duration": 0.192,
      "velocity": 127,
      "chip": "ym2612"
    },
    {
      "channel": 2,
      "note": 49,
      "start": 5.4439,
      "duration": 0.1921,
      "velocity": 91,
      "chip": "ym2612"
    },
    {
      "channel": 5,
      "note": 33,
      "start": 5.4456,
      "duration": 0.0855,
      "velocity": 127,
      "chip": "ym2612"
    },
    {
      "channel": 5,
      "note": 68,
      "start": 5.5502,
      "duration": 0.0859,
      "velocity": 127,
      "chip": "ym2612"
    },
    {
      "channel": 1,
      "note": 49,
      "start": 5.6537,
      "duration": 0.0868,
      "velocity": 127,
      "chip": "ym2612"
    },
    {
      "channel": 2,
      "note": 49,
      "start": 5.6539,
      "duration": 0.0868,
      "velocity": 91,
      "chip": "ym2612"
    },
    {
      "channel": 5,
      "note": 68,
      "start": 5.654,
      "duration": 0.0868,
      "velocity": 127,
      "chip": "ym2612"
    },
    {
      "channel": 1,
      "note": 49,
      "start": 5.758,
      "duration": 0.0873,
      "velocity": 127,
      "chip": "ym2612"
    },
    {
      "channel": 2,
      "note": 49,
      "start": 5.7582,
      "duration": 0.0873,
      "velocity": 91,
      "chip": "ym2612"
    },
    {
      "channel": 5,
      "note": 33,
      "start": 5.7599,
      "duration": 0.0857,
      "velocity": 127,
      "chip": "ym2612"
    },
    {
      "channel": 1,
      "note": 49,
      "start": 5.8628,
      "duration": 0.192,
      "velocity": 127,
      "chip": "ym2612"
    },
    {
      "channel": 2,
      "note": 49,
      "start": 5.8629,
      "duration": 0.192,
      "velocity": 91,
      "chip": "ym2612"
    },
    {
      "channel": 5,
      "note": 68,
      "start": 5.8645,
      "duration": 0.0856,
      "velocity": 127,
      "chip": "ym2612"
    },
    {
      "channel": 5,
      "note": 68,
      "start": 5.969,
      "duration": 0.086,
      "velocity": 127,
      "chip": "ym2612"
    },
    {
      "channel": 1,
      "note": 49,
      "start": 6.0722,
      "duration": 0.0872,
      "velocity": 127,
      "chip": "ym2612"
    },
    {
      "channel": 2,
      "note": 49,
      "start": 6.0724,
      "duration": 0.0872,
      "velocity": 91,
      "chip": "ym2612"
    },
    {
      "channel": 5,
      "note": 68,
      "start": 6.0726,
      "duration": 0.0872,
      "velocity": 127,
      "chip": "ym2612"
    },
    {
      "channel": 1,
      "note": 49,
      "start": 6.1769,
      "duration": 0.0873,
      "velocity": 127,
      "chip": "ym2612"
    },
    {
      "channel": 2,
      "note": 49,
      "start": 6.1771,
      "duration": 0.0873,
      "velocity": 91,
      "chip": "ym2612"
    },
    {
      "channel": 5,
      "note": 68,
      "start": 6.1772,
      "duration": 0.0873,
      "velocity": 127,
      "chip": "ym2612"
    },
    {
      "channel": 1,
      "note": 49,
      "start": 6.2817,
      "duration": 0.192,
      "velocity": 127,
      "chip": "ym2612"
    },
    {
      "channel": 2,
      "note": 49,
      "start": 6.2818,
      "duration": 0.192,
      "velocity": 91,
      "chip": "ym2612"
    },
    {
      "channel": 5,
      "note": 33,
      "start": 6.2835,
      "duration": 0.0855,
      "velocity": 127,
      "chip": "ym2612"
    },
    {
      "channel": 5,
      "note": 68,
      "start": 6.3885,
      "duration": 0.0856,
      "velocity": 127,
      "chip": "ym2612"
    },
    {
      "channel": 1,
      "note": 49,
      "start": 6.4912,
      "duration": 0.0872,
      "velocity": 127,
      "chip": "ym2612"
    },
    {
      "channel": 2,
      "note": 49,
      "start": 6.4913,
      "duration": 0.0872,
      "velocity": 91,
      "chip": "ym2612"
    },
    {
      "channel": 5,
      "note": 33,
      "start": 6.493,
      "duration": 0.0858,
      "velocity": 127,
      "chip": "ym2612"
    },
    {
      "channel": 1,
      "note": 49,
      "start": 6.5959,
      "duration": 0.0873,
      "velocity": 127,
      "chip": "ym2612"
    },
    {
      "channel": 2,
      "note": 49,
      "start": 6.596,
      "duration": 0.0873,
      "velocity": 91,
      "chip": "ym2612"
    },
    {
      "channel": 5,
      "note": 68,
      "start": 6.5977,
      "duration": 0.0857,
      "velocity": 127,
      "chip": "ym2612"
    },
    {
      "channel": 1,
      "note": 73,
      "start": 6.7022,
      "duration": 0.1904,
      "velocity": 103,
      "chip": "ym2612"
    },
    {
      "channel": 2,
      "note": 49,
      "start": 6.7023,
      "duration": 0.1904,
      "velocity": 91,
      "chip": "ym2612"
    },
    {
      "channel": 3,
      "note": 45,
      "start": 6.7025,
      "duration": 0.1903,
      "velocity": 127,
      "chip": "ym2612"
    },
    {
      "channel": 4,
      "note": 61,
      "start": 6.7027,
      "duration": 0.1903,
      "velocity": 105,
      "chip": "ym2612"
    },
    {
      "channel": 5,
      "note": 33,
      "start": 6.7047,
      "duration": 0.1884,
      "velocity": 127,
      "chip": "ym2612"
    },
    {
      "channel": 1,
      "note": 76,
      "start": 6.9102,
      "duration": 0.1919,
      "velocity": 103,
      "chip": "ym2612"
    },
    {
      "channel": 2,
      "note": 52,
      "start": 6.9103,
      "duration": 0.1919,
      "velocity": 91,
      "chip": "ym2612"
    },
    {
      "channel": 3,
      "note": 45,
      "start": 6.9105,
      "duration": 0.1919,
      "velocity": 127,
      "chip": "ym2612"
    },
    {
      "channel": 4,
      "note": 64,
      "start": 6.9107,
      "duration": 0.1918,
      "velocity": 105,
      "chip": "ym2612"
    },
    {
      "channel": 5,
      "note": 33,
      "start": 6.9108,
      "duration": 0.1918,
      "velocity": 127,
      "chip": "ym2612"
    },
    {
      "channel": 1,
      "note": 78,
      "start": 7.1196,
      "duration": 0.192,
      "velocity": 103,
      "chip": "ym2612"
    },
    {
      "channel": 2,
      "note": 54,
      "start": 7.1202,
      "duration": 0.1915,
      "velocity": 91,
      "chip": "ym2612"
    },
    {
      "channel": 3,
      "note": 45,
      "start": 7.1203,
      "duration": 0.1915,
      "velocity": 127,
      "chip": "ym2612"
    },
    {
      "channel": 4,
      "note": 66,
      "start": 7.1205,
      "duration": 0.1915,
      "velocity": 105,
      "chip": "ym2612"
    },
    {
      "channel": 5,
      "note": 33,
      "start": 7.1207,
      "duration": 0.0862,
      "velocity": 127,
      "chip": "ym2612"
    },
    {
      "channel": 5,
      "note": 68,
      "start": 7.2259,
      "duration": 0.0862,
      "velocity": 127,
      "chip": "ym2612"
    },
    {
      "channel": 1,
      "note": 49,
      "start": 7.3306,
      "duration": 0.0857,
      "velocity": 127,
      "chip": "ym2612"
    },
    {
      "channel": 2,
      "note": 49,
      "start": 7.3308,
      "duration": 0.0856,
      "velocity": 91,
      "chip": "ym2612"
    },
    {
      "channel": 5,
      "note": 68,
      "start": 7.331,
      "duration": 0.0856,
      "velocity": 127,
      "chip": "ym2612"
    },
    {
      "channel": 1,
      "note": 49,
      "start": 7.4337,
      "duration": 0.0872,
      "velocity": 127,
      "chip": "ym2612"
    },
    {
      "channel": 2,
      "note": 49,
      "start": 7.4339,
      "duration": 0.0872,
      "velocity": 91,
      "chip": "ym2612"
    },
    {
      "channel": 5,
      "note": 33,
      "start": 7.4356,
      "duration": 0.0857,
      "velocity": 127,
      "chip": "ym2612"
    },
    {
      "channel": 1,
      "note": 49,
      "start": 7.5385,
      "duration": 0.192,
      "velocity": 127,
      "chip": "ym2612"
    },
    {
      "channel": 2,
      "note": 49,
      "start": 7.5386,
      "duration": 0.192,
      "velocity": 91,
      "chip": "ym2612"
    },
    {
      "channel": 5,
      "note": 68,
      "start": 7.5403,
      "duration": 0.0855,
      "velocity": 127,
      "chip": "ym2612"
    },
    {
      "channel": 5,
      "note": 68,
      "start": 7.6448,
      "duration": 0.086,
      "velocity": 127,
      "chip": "ym2612"
    },
    {
      "channel": 1,
      "note": 49,
      "start": 7.748,
      "duration": 0.0872,
      "velocity": 127,
      "chip": "ym2612"
    },
    {
      "channel": 2,
      "note": 49,
      "start": 7.7481,
      "duration": 0.0872,
      "velocity": 91,
      "chip": "ym2612"
    },
    {
      "channel": 5,
      "note": 68,
      "start": 7.7483,
      "duration": 0.0872,
      "velocity": 127,
      "chip": "ym2612"
    },
    {
      "channel": 1,
      "note": 49,
      "start": 7.8527,
      "duration": 0.0873,
      "velocity": 127,
      "chip": "ym2612"
    },
    {
      "channel": 2,
      "note": 49,
      "start": 7.8528,
      "duration": 0.0873,
      "velocity": 91,
      "chip": "ym2612"
    },
    {
      "channel": 5,
      "note": 68,
      "start": 7.853,
      "duration": 0.0873,
      "velocity": 127,
      "chip": "ym2612"
    },
    {
      "channel": 1,
      "note": 49,
      "start": 7.9574,
      "duration": 0.192,
      "velocity": 127,
      "chip": "ym2612"
    },
    {
      "channel": 2,
      "note": 49,
      "start": 7.9576,
      "duration": 0.192,
      "velocity": 91,
      "chip": "ym2612"
    },
    {
      "channel": 5,
      "note": 33,
      "start": 7.9593,
      "duration": 0.0854,
      "velocity": 127,
      "chip": "ym2612"
    },
    {
      "channel": 5,
      "note": 68,
      "start": 8.0638,
      "duration": 0.0859,
      "velocity": 127,
      "chip": "ym2612"
    },
    {
      "channel": 1,
      "note": 49,
      "start": 8.1669,
      "duration": 0.0872,
      "velocity": 127,
      "chip": "ym2612"
    },
    {
      "channel": 2,
      "note": 49,
      "start": 8.167,
      "duration": 0.0872,
      "velocity": 91,
      "chip": "ym2612"
    },
    {
      "channel": 5,
      "note": 33,
      "start": 8.1687,
      "duration": 0.0857,
      "velocity": 127,
      "chip": "ym2612"
    },
    {
      "channel": 1,
      "note": 49,
      "start": 8.2716,
      "duration": 0.0873,
      "velocity": 127,
      "chip": "ym2612"
    },
    {
      "channel": 2,
      "note": 49,
      "start": 8.2717,
      "duration": 0.0873,
      "velocity": 91,
      "chip": "ym2612"
    },
    {
      "channel": 5,
      "note": 68,
      "start": 8.2734,
      "duration": 0.0857,
      "velocity": 127,
      "chip": "ym2612"
    },
    {
      "channel": 1,
      "note": 49,
      "start": 8.3764,
      "duration": 0.192,
      "velocity": 127,
      "chip": "ym2612"
    },
    {
      "channel": 2,
      "note": 49,
      "start": 8.3765,
      "duration": 0.192,
      "velocity": 91,
      "chip": "ym2612"
    },
    {
      "channel": 5,
      "note": 68,
      "start": 8.3782,
      "duration": 0.0856,
      "velocity": 127,
      "chip": "ym2612"
    },
    {
      "channel": 5,
      "note": 68,
      "start": 8.4826,
      "duration": 0.086,
      "velocity": 127,
      "chip": "ym2612"
    },
    {
      "channel": 1,
      "note": 49,
      "start": 8.5859,
      "duration": 0.0872,
      "velocity": 127,
      "chip": "ym2612"
    },
    {
      "channel": 2,
      "note": 49,
      "start": 8.586,
      "duration": 0.0872,
      "velocity": 91,
      "chip": "ym2612"
    },
    {
      "channel": 5,
      "note": 68,
      "start": 8.5861,
      "duration": 0.0873,
      "velocity": 127,
      "chip": "ym2612"
    },
    {
      "channel": 1,
      "note": 49,
      "start": 8.6905,
      "duration": 0.0873,
      "velocity": 127,
      "chip": "ym2612"
    },
    {
      "channel": 2,
      "note": 49,
      "start": 8.6906,
      "duration": 0.0873,
      "velocity": 91,
      "chip": "ym2612"
    },
    {
      "channel": 5,
      "note": 68,
      "start": 8.6908,
      "duration": 0.0873,
      "velocity": 127,
      "chip": "ym2612"
    },
    {
      "channel": 1,
      "note": 49,
      "start": 8.7953,
      "duration": 0.192,
      "velocity": 127,
      "chip": "ym2612"
    },
    {
      "channel": 2,
      "note": 49,
      "start": 8.7954,
      "duration": 0.192,
      "velocity": 91,
      "chip": "ym2612"
    },
    {
      "channel": 5,
      "note": 68,
      "start": 8.7971,
      "duration": 0.0855,
      "velocity": 127,
      "chip": "ym2612"
    },
    {
      "channel": 5,
      "note": 68,
      "start": 8.9,
      "duration": 0.0875,
      "velocity": 127,
      "chip": "ym2612"
    },
    {
      "channel": 1,
      "note": 49,
      "start": 9.0047,
      "duration": 0.0873,
      "velocity": 127,
      "chip": "ym2612"
    },
    {
      "channel": 2,
      "note": 49,
      "start": 9.0049,
      "duration": 0.0873,
      "velocity": 91,
      "chip": "ym2612"
    },
    {
      "channel": 5,
      "note": 68,
      "start": 9.005,
      "duration": 0.0873,
      "velocity": 127,
      "chip": "ym2612"
    },
    {
      "channel": 1,
      "note": 49,
      "start": 9.1095,
      "duration": 0.0873,
      "velocity": 127,
      "chip": "ym2612"
    },
    {
      "channel": 2,
      "note": 49,
      "start": 9.1096,
      "duration": 0.0873,
      "velocity": 91,
      "chip": "ym2612"
    },
    {
      "channel": 5,
      "note": 68,
      "start": 9.1097,
      "duration": 0.0873,
      "velocity": 127,
      "chip": "ym2612"
    },
    {
      "channel": 1,
      "note": 49,
      "start": 9.2142,
      "duration": 0.192,
      "velocity": 127,
      "chip": "ym2612"
    },
    {
      "channel": 2,
      "note": 49,
      "start": 9.2144,
      "duration": 0.192,
      "velocity": 91,
      "chip": "ym2612"
    },
    {
      "channel": 5,
      "note": 68,
      "start": 9.2145,
      "duration": 0.087,
      "velocity": 127,
      "chip": "ym2612"
    },
    {
      "channel": 5,
      "note": 68,
      "start": 9.319,
      "duration": 0.0875,
      "velocity": 127,
      "chip": "ym2612"
    },
    {
      "channel": 1,
      "note": 49,
      "start": 9.4237,
      "duration": 0.0872,
      "velocity": 127,
      "chip": "ym2612"
    },
    {
      "channel": 2,
      "note": 49,
      "start": 9.4238,
      "duration": 0.0872,
      "velocity": 91,
      "chip": "ym2612"
    },
    {
      "channel": 5,
      "note": 68,
      "start": 9.4239,
      "duration": 0.0873,
      "velocity": 127,
      "chip": "ym2612"
    },
    {
      "channel": 1,
      "note": 49,
      "start": 9.5284,
      "duration": 0.0872,
      "velocity": 127,
      "chip": "ym2612"
    },
    {
      "channel": 2,
      "note": 49,
      "start": 9.5285,
      "duration": 0.0872,
      "velocity": 91,
      "chip": "ym2612"
    },
    {
      "channel": 5,
      "note": 68,
      "start": 9.5287,
      "duration": 0.0872,
      "velocity": 127,
      "chip": "ym2612"
    },
    {
      "channel": 1,
      "note": 49,
      "start": 9.6331,
      "duration": 0.1921,
      "velocity": 127,
      "chip": "ym2612"
    },
    {
      "channel": 2,
      "note": 49,
      "start": 9.6332,
      "duration": 0.192,
      "velocity": 91,
      "chip": "ym2612"
    },
    {
      "channel": 5,
      "note": 68,
      "start": 9.6334,
      "duration": 0.0871,
      "velocity": 127,
      "chip": "ym2612"
    },
    {
      "channel": 5,
      "note": 68,
      "start": 9.7379,
      "duration": 0.0875,
      "velocity": 127,
      "chip": "ym2612"
    },
    {
      "channel": 1,
      "note": 49,
      "start": 9.8426,
      "duration": 0.0873,
      "velocity": 127,
      "chip": "ym2612"
    },
    {
      "channel": 2,
      "note": 49,
      "start": 9.8427,
      "duration": 0.0873,
      "velocity": 91,
      "chip": "ym2612"
    },
    {
      "channel": 5,
      "note": 68,
      "start": 9.8429,
      "duration": 0.0873,
      "velocity": 127,
      "chip": "ym2612"
    },
    {
      "channel": 1,
      "note": 49,
      "start": 9.9474,
      "duration": 0.0873,
      "velocity": 127,
      "chip": "ym2612"
    },
    {
      "channel": 2,
      "note": 49,
      "start": 9.9475,
      "duration": 0.0873,
      "velocity": 91,
      "chip": "ym2612"
    },
    {
      "channel": 5,
      "note": 68,
      "start": 9.9476,
      "duration": 0.0873,
      "velocity": 127,
      "chip": "ym2612"
    },
    {
      "channel": 1,
      "note": 73,
      "start": 10.054,
      "duration": 0.1901,
      "velocity": 103,
      "chip": "ym2612"
    },
    {
      "channel": 2,
      "note": 49,
      "start": 10.0541,
      "duration": 0.1901,
      "velocity": 91,
      "chip": "ym2612"
    },
    {
      "channel": 3,
      "note": 45,
      "start": 10.0542,
      "duration": 0.1901,
      "velocity": 127,
      "chip": "ym2612"
    },
    {
      "channel": 4,
      "note": 61,
      "start": 10.0544,
      "duration": 0.19,
      "velocity": 105,
      "chip": "ym2612"
    },
    {
      "channel": 5,
      "note": 33,
      "start": 10.0561,
      "duration": 0.1885,
      "velocity": 127,
      "chip": "ym2612"
    },
    {
      "channel": 1,
      "note": 76,
      "start": 10.2616,
      "duration": 0.1922,
      "velocity": 103,
      "chip": "ym2612"
    },
    {
      "channel": 2,
      "note": 52,
      "start": 10.2618,
      "duration": 0.1921,
      "velocity": 91,
      "chip": "ym2612"
    },
    {
      "channel": 3,
      "note": 45,
      "start": 10.2619,
      "duration": 0.1921,
      "velocity": 127,
      "chip": "ym2612"
    },
    {
      "channel": 4,
      "note": 64,
      "start": 10.2621,
      "duration": 0.192,
      "velocity": 105,
      "chip": "ym2612"
    },
    {
      "channel": 5,
      "note": 33,
      "start": 10.2622,
      "duration": 0.1921,
      "velocity": 127,
      "chip": "ym2612"
    },
    {
      "channel": 1,
      "note": 78,
      "start": 10.471,
      "duration": 0.192,
      "velocity": 103,
      "chip": "ym2612"
    },
    {
      "channel": 2,
      "note": 54,
      "start": 10.4712,
      "duration": 0.1919,
      "velocity": 91,
      "chip": "ym2612"
    },
    {
      "channel": 3,
      "note": 45,
      "start": 10.4713,
      "duration": 1.1519,
      "velocity": 127,
      "chip": "ym2612"
    },
    {
      "channel": 4,
      "note": 66,
      "start": 10.4715,
      "duration": 0.1917,
      "velocity": 105,
      "chip": "ym2612"
    },
    {
      "channel": 5,
      "note": 33,
      "start": 10.4717,
      "duration": 0.0866,
      "velocity": 127,
      "chip": "ym2612"
    },
    {
      "channel": 5,
      "note": 68,
      "start": 10.5773,
      "duration": 0.0861,
      "velocity": 127,
      "chip": "ym2612"
    },
    {
      "channel": 1,
      "note": 49,
      "start": 10.682,
      "duration": 0.0857,
      "velocity": 127,
      "chip": "ym2612"
    },
    {
      "channel": 2,
      "note": 49,
      "start": 10.6822,
      "duration": 0.0856,
      "velocity": 91,
      "chip": "ym2612"
    },
    {
      "channel": 5,
      "note": 68,
      "start": 10.6824,
      "duration": 0.0856,
      "velocity": 127,
      "chip": "ym2612"
    },
    {
      "channel": 1,
      "note": 49,
      "start": 10.7852,
      "duration": 0.0872,
      "velocity": 127,
      "chip": "ym2612"
    },
    {
      "channel": 2,
      "note": 49,
      "start": 10.7854,
      "duration": 0.0872,
      "velocity": 91,
      "chip": "ym2612"
    },
    {
      "channel": 5,
      "note": 33,
      "start": 10.7874,
      "duration": 0.0854,
      "velocity": 127,
      "chip": "ym2612"
    },
    {
      "channel": 1,
      "note": 49,
      "start": 10.8899,
      "duration": 0.192,
      "velocity": 127,
      "chip": "ym2612"
    },
    {
      "channel": 2,
      "note": 49,
      "start": 10.89,
      "duration": 0.192,
      "velocity": 91,
      "chip": "ym2612"
    },
    {
      "channel": 4,
      "note": 73,
      "start": 10.8918,
      "duration": 0.3648,
      "velocity": 103,
      "chip": "ym2612"
    },
    {
      "channel": 5,
      "note": 68,
      "start": 10.8934,
      "duration": 0.0838,
      "velocity": 127,
      "chip": "ym2612"
    },
    {
      "channel": 5,
      "note": 68,
      "start": 10.9962,
      "duration": 0.0859,
      "velocity": 127,
      "chip": "ym2612"
    },
    {
      "channel": 1,
      "note": 49,
      "start": 11.0994,
      "duration": 0.0876,
      "velocity": 127,
      "chip": "ym2612"
    },
    {
      "channel": 2,
      "note": 49,
      "start": 11.0995,
      "duration": 0.0877,
      "velocity": 91,
      "chip": "ym2612"
    },
    {
      "channel": 5,
      "note": 68,
      "start": 11.0997,
      "duration": 0.0877,
      "velocity": 127,
      "chip": "ym2612"
    },
    {
      "channel": 1,
      "note": 49,
      "start": 11.2041,
      "duration": 0.0873,
      "velocity": 127,
      "chip": "ym2612"
    },
    {
      "channel": 2,
      "note": 49,
      "start": 11.2042,
      "duration": 0.0873,
      "velocity": 91,
      "chip": "ym2612"
    },
    {
      "channel": 5,
      "note": 68,
      "start": 11.2044,
      "duration": 0.0873,
      "velocity": 127,
      "chip": "ym2612"
    },
    {
      "channel": 1,
      "note": 49,
      "start": 11.3088,
      "duration": 0.192,
      "velocity": 127,
      "chip": "ym2612"
    },
    {
      "channel": 2,
      "note": 49,
      "start": 11.3089,
      "duration": 0.192,
      "velocity": 91,
      "chip": "ym2612"
    },
    {
      "channel": 4,
      "note": 80,
      "start": 11.3091,
      "duration": 0.3663,
      "velocity": 103,
      "chip": "ym2612"
    },
    {
      "channel": 5,
      "note": 33,
      "start": 11.3109,
      "duration": 0.0853,
      "velocity": 127,
      "chip": "ym2612"
    },
    {
      "channel": 5,
      "note": 68,
      "start": 11.4152,
      "duration": 0.0859,
      "velocity": 127,
      "chip": "ym2612"
    },
    {
      "channel": 1,
      "note": 49,
      "start": 11.5183,
      "duration": 0.0873,
      "velocity": 127,
      "chip": "ym2612"
    },
    {
      "channel": 2,
      "note": 49,
      "start": 11.5184,
      "duration": 0.0873,
      "velocity": 91,
      "chip": "ym2612"
    },
    {
      "channel": 5,
      "note": 33,
      "start": 11.5205,
      "duration": 0.0854,
      "velocity": 127,
      "chip": "ym2612"
    },
    {
      "channel": 1,
      "note": 49,
      "start": 11.623,
      "duration": 0.0873,
      "velocity": 127,
      "chip": "ym2612"
    },
    {
      "channel": 2,
      "note": 49,
      "start": 11.6231,
      "duration": 0.0873,
      "velocity": 91,
      "chip": "ym2612"
    },
    {
      "channel": 5,
      "note": 68,
      "start": 11.625,
      "duration": 0.0856,
      "velocity": 127,
      "chip": "ym2612"
    },
    {
      "channel": 1,
      "note": 49,
      "start": 11.7278,
      "duration": 0.1924,
      "velocity": 127,
      "chip": "ym2612"
    },
    {
      "channel": 2,
      "note": 49,
      "start": 11.7279,
      "duration": 0.1924,
      "velocity": 91,
      "chip": "ym2612"
    },
    {
      "channel": 3,
      "note": 78,
      "start": 11.7295,
      "duration": 0.1909,
      "velocity": 97,
      "chip": "ym2612"
    },
    {
      "channel": 4,
      "note": 78,
      "start": 11.7298,
      "duration": 0.1908,
      "velocity": 103,
      "chip": "ym2612"
    },
    {
      "channel": 5,
      "note": 68,
      "start": 11.7313,
      "duration": 0.0838,
      "velocity": 127,
      "chip": "ym2612"
    },
    {
      "channel": 5,
      "note": 68,
      "start": 11.8341,
      "duration": 0.0866,
      "velocity": 127,
      "chip": "ym2612"
    },
    {
      "channel": 1,
      "note": 49,
      "start": 11.9373,
      "duration": 0.0873,
      "velocity": 127,
      "chip": "ym2612"
    },
    {
      "channel": 2,
      "note": 49,
      "start": 11.9374,
      "duration": 0.0873,
      "velocity": 91,
      "chip": "ym2612"
    },
    {
      "channel": 3,
      "note": 76,
      "start": 11.9376,
      "duration": 0.4013,
      "velocity": 97,
      "chip": "ym2612"
    },
    {
      "channel": 4,
      "note": 76,
      "start": 11.9378,
      "duration": 0.4013,
      "velocity": 103,
      "chip": "ym2612"
    },
    {
      "channel": 5,
      "note": 68,
      "start": 11.9379,
      "duration": 0.0869,
      "velocity": 127,
      "chip": "ym2612"
    },
    {
      "channel": 1,
      "note": 49,
      "start": 12.042,
      "duration": 0.0872,
      "velocity": 127,
      "chip": "ym2612"
    },
    {
      "channel": 2,
      "note": 49,
      "start": 12.0422,
      "duration": 0.0872,
      "velocity": 91,
      "chip": "ym2612"
    },
    {
      "channel": 5,
      "note": 68,
      "start": 12.0423,
      "duration": 0.0872,
      "velocity": 127,
      "chip": "ym2612"
    },
    {
      "channel": 1,
      "note": 49,
      "start": 12.1467,
      "duration": 0.192,
      "velocity": 127,
      "chip": "ym2612"
    },
    {
      "channel": 2,
      "note": 49,
      "start": 12.1468,
      "duration": 0.192,
      "velocity": 91,
      "chip": "ym2612"
    },
    {
      "channel": 5,
      "note": 33,
      "start": 12.1485,
      "duration": 0.0856,
      "velocity": 127,
      "chip": "ym2612"
    },
    {
      "channel": 5,
      "note": 68,
      "start": 12.2532,
      "duration": 0.086,
      "velocity": 127,
      "chip": "ym2612"
    },
    {
      "channel": 1,
      "note": 49,
      "start": 12.3562,
      "duration": 0.0872,
      "velocity": 127,
      "chip": "ym2612"
    },
    {
      "channel": 2,
      "note": 49,
      "start": 12.3563,
      "duration": 0.0872,
      "velocity": 91,
      "chip": "ym2612"
    },
    {
      "channel": 3,
      "note": 78,
      "start": 12.3565,
      "duration": 1.0298,
      "velocity": 97,
      "chip": "ym2612"
    },
    {
      "channel": 4,
      "note": 78,
      "start": 12.3567,
      "duration": 1.0298,
      "velocity": 103,
      "chip": "ym2612"
    },
    {
      "channel": 5,
      "note": 68,
      "start": 12.3568,
      "duration": 0.0869,
      "velocity": 127,
      "chip": "ym2612"
    },
    {
      "channel": 1,
      "note": 49,
      "start": 12.4609,
      "duration": 0.0873,
      "velocity": 127,
      "chip": "ym2612"
    },
    {
      "channel": 2,
      "note": 49,
      "start": 12.461,
      "duration": 0.0873,
      "velocity": 91,
      "chip": "ym2612"
    },
    {
      "channel": 5,
      "note": 33,
      "start": 12.4628,
      "duration": 0.0857,
      "velocity": 127,
      "chip": "ym2612"
    },
    {
      "channel": 1,
      "note": 49,
      "start": 12.5656,
      "duration": 0.192,
      "velocity": 127,
      "chip": "ym2612"
    },
    {
      "channel": 2,
      "note": 49,
      "start": 12.5658,
      "duration": 0.192,
      "velocity": 91,
      "chip": "ym2612"
    },
    {
      "channel": 5,
      "note": 68,
      "start": 12.5674,
      "duration": 0.0856,
      "velocity": 127,
      "chip": "ym2612"
    },
    {
      "channel": 5,
      "note": 68,
      "start": 12.672,
      "duration": 0.086,
      "velocity": 127,
      "chip": "ym2612"
    },
    {
      "channel": 1,
      "note": 49,
      "start": 12.7751,
      "duration": 0.0873,
      "velocity": 127,
      "chip": "ym2612"
    },
    {
      "channel": 2,
      "note": 49,
      "start": 12.7752,
      "duration": 0.0873,
      "velocity": 91,
      "chip": "ym2612"
    },
    {
      "channel": 5,
      "note": 68,
      "start": 12.7754,
      "duration": 0.0873,
      "velocity": 127,
      "chip": "ym2612"
    },
    {
      "channel": 1,
      "note": 49,
      "start": 12.8798,
      "duration": 0.0873,
      "velocity": 127,
      "chip": "ym2612"
    },
    {
      "channel": 2,
      "note": 49,
      "start": 12.8799,
      "duration": 0.0873,
      "velocity": 91,
      "chip": "ym2612"
    },
    {
      "channel": 5,
      "note": 68,
      "start": 12.8801,
      "duration": 0.0873,
      "velocity": 127,
      "chip": "ym2612"
    },
    {
      "channel": 1,
      "note": 49,
      "start": 12.9846,
      "duration": 0.1919,
      "velocity": 127,
      "chip": "ym2612"
    },
    {
      "channel": 2,
      "note": 49,
      "start": 12.9847,
      "duration": 0.1919,
      "velocity": 91,
      "chip": "ym2612"
    },
    {
      "channel": 5,
      "note": 33,
      "start": 12.9864,
      "duration": 0.0854,
      "velocity": 127,
      "chip": "ym2612"
    },
    {
      "channel": 5,
      "note": 68,
      "start": 13.0909,
      "duration": 0.0859,
      "velocity": 127,
      "chip": "ym2612"
    },
    {
      "channel": 1,
      "note": 49,
      "start": 13.1941,
      "duration": 0.0872,
      "velocity": 127,
      "chip": "ym2612"
    },
    {
      "channel": 2,
      "note": 49,
      "start": 13.1942,
      "duration": 0.0872,
      "velocity": 91,
      "chip": "ym2612"
    },
    {
      "channel": 5,
      "note": 33,
      "start": 13.1959,
      "duration": 0.0857,
      "velocity": 127,
      "chip": "ym2612"
    },
    {
      "channel": 1,
      "note": 49,
      "start": 13.2988,
      "duration": 0.0873,
      "velocity": 127,
      "chip": "ym2612"
    },
    {
      "channel": 2,
      "note": 49,
      "start": 13.2989,
      "duration": 0.0873,
      "velocity": 91,
      "chip": "ym2612"
    },
    {
      "channel": 5,
      "note": 68,
      "start": 13.3006,
      "duration": 0.0863,
      "velocity": 127,
      "chip": "ym2612"
    },
    {
      "channel": 1,
      "note": 73,
      "start": 13.4053,
      "duration": 0.1902,
      "velocity": 103,
      "chip": "ym2612"
    },
    {
      "channel": 2,
      "note": 49,
      "start": 13.4054,
      "duration": 0.1902,
      "velocity": 91,
      "chip": "ym2612"
    },
    {
      "channel": 3,
      "note": 45,
      "start": 13.407,
      "duration": 0.1888,
      "velocity": 127,
      "chip": "ym2612"
    },
    {
      "channel": 4,
      "note": 61,
      "start": 13.4087,
      "duration": 0.1872,
      "velocity": 105,
      "chip": "ym2612"
    },
    {
      "channel": 5,
      "note": 33,
      "start": 13.4104,
      "duration": 0.1856,
      "velocity": 127,
      "chip": "ym2612"
    },
    {
      "channel": 1,
      "note": 76,
      "start": 13.613,
      "duration": 0.192,
      "velocity": 103,
      "chip": "ym2612"
    },
    {
      "channel": 2,
      "note": 52,
      "start": 13.6132,
      "duration": 0.192,
      "velocity": 91,
      "chip": "ym2612"
    },
    {
      "channel": 3,
      "note": 45,
      "start": 13.6133,
      "duration": 0.192,
      "velocity": 127,
      "chip": "ym2612"
    },
    {
      "channel": 4,
      "note": 64,
      "start": 13.6135,
      "duration": 0.1919,
      "velocity": 105,
      "chip": "ym2612"
    },
    {
      "channel": 5,
      "note": 33,
      "start": 13.6136,
      "duration": 0.1919,
      "velocity": 127,
      "chip": "ym2612"
    },
    {
      "channel": 1,
      "note": 78,
      "start": 13.8225,
      "duration": 0.1919,
      "velocity": 103,
      "chip": "ym2612"
    },
    {
      "channel": 2,
      "note": 54,
      "start": 13.8227,
      "duration": 0.1919,
      "velocity": 91,
      "chip": "ym2612"
    },
    {
      "channel": 3,
      "note": 45,
      "start": 13.8227,
      "duration": 0.7852,
      "velocity": 127,
      "chip": "ym2612"
    },
    {
      "channel": 4,
      "note": 66,
      "start": 13.8229,
      "duration": 0.1918,
      "velocity": 105,
      "chip": "ym2612"
    },
    {
      "channel": 5,
      "note": 33,
      "start": 13.8231,
      "duration": 0.0867,
      "velocity": 127,
      "chip": "ym2612"
    },
    {
      "channel": 5,
      "note": 68,
      "start": 13.9288,
      "duration": 0.0861,
      "velocity": 127,
      "chip": "ym2612"
    },
    {
      "channel": 1,
      "note": 49,
      "start": 14.0334,
      "duration": 0.0857,
      "velocity": 127,
      "chip": "ym2612"
    },
    {
      "channel": 2,
      "note": 49,
      "start": 14.0336,
      "duration": 0.0856,
      "velocity": 91,
      "chip": "ym2612"
    },
    {
      "channel": 5,
      "note": 68,
      "start": 14.0337,
      "duration": 0.0857,
      "velocity": 127,
      "chip": "ym2612"
    },
    {
      "channel": 1,
      "note": 49,
      "start": 14.1371,
      "duration": 0.0868,
      "velocity": 127,
      "chip": "ym2612"
    },
    {
      "channel": 2,
      "note": 49,
      "start": 14.1372,
      "duration": 0.0868,
      "velocity": 91,
      "chip": "ym2612"
    },
    {
      "channel": 5,
      "note": 33,
      "start": 14.1389,
      "duration": 0.0853,
      "velocity": 127,
      "chip": "ym2612"
    },
    {
      "channel": 1,
      "note": 49,
      "start": 14.2413,
      "duration": 0.192,
      "velocity": 127,
      "chip": "ym2612"
    },
    {
      "channel": 2,
      "note": 49,
      "start": 14.2415,
      "duration": 0.192,
      "velocity": 91,
      "chip": "ym2612"
    },
    {
      "channel": 4,
      "note": 78,
      "start": 14.2431,
      "duration": 0.1905,
      "velocity": 103,
      "chip": "ym2612"
    },
    {
      "channel": 5,
      "note": 68,
      "start": 14.2448,
      "duration": 0.0839,
      "velocity": 127,
      "chip": "ym2612"
    },
    {
      "channel": 5,
      "note": 68,
      "start": 14.3476,
      "duration": 0.0861,
      "velocity": 127,
      "chip": "ym2612"
    },
    {
      "channel": 1,
      "note": 49,
      "start": 14.4508,
      "duration": 0.0873,
      "velocity": 127,
      "chip": "ym2612"
    },
    {
      "channel": 2,
      "note": 49,
      "start": 14.4509,
      "duration": 0.0873,
      "velocity": 91,
      "chip": "ym2612"
    },
    {
      "channel": 4,
      "note": 76,
      "start": 14.4511,
      "duration": 0.1919,
      "velocity": 103,
      "chip": "ym2612"
    },
    {
      "channel": 5,
      "note": 68,
      "start": 14.4512,
      "duration": 0.0871,
      "velocity": 127,
      "chip": "ym2612"
    },
    {
      "channel": 1,
      "note": 49,
      "start": 14.5556,
      "duration": 0.0872,
      "velocity": 127,
      "chip": "ym2612"
    },
    {
      "channel": 2,
      "note": 49,
      "start": 14.5557,
      "duration": 0.0872,
      "velocity": 91,
      "chip": "ym2612"
    },
    {
      "channel": 5,
      "note": 68,
      "start": 14.5558,
      "duration": 0.0873,
      "velocity": 127,
      "chip": "ym2612"
    },
    {
      "channel": 1,
      "note": 49,
      "start": 14.6603,
      "duration": 0.192,
      "velocity": 127,
      "chip": "ym2612"
    },
    {
      "channel": 2,
      "note": 49,
      "start": 14.6604,
      "duration": 0.192,
      "velocity": 91,
      "chip": "ym2612"
    },
    {
      "channel": 3,
      "note": 75,
      "start": 14.662,
      "duration": 0.1905,
      "velocity": 97,
      "chip": "ym2612"
    },
    {
      "channel": 4,
      "note": 75,
      "start": 14.6622,
      "duration": 0.1905,
      "velocity": 103,
      "chip": "ym2612"
    },
    {
      "channel": 5,
      "note": 33,
      "start": 14.6639,
      "duration": 0.0837,
      "velocity": 127,
      "chip": "ym2612"
    },
    {
      "channel": 5,
      "note": 68,
      "start": 14.7666,
      "duration": 0.0861,
      "velocity": 127,
      "chip": "ym2612"
    },
    {
      "channel": 1,
      "note": 49,
      "start": 14.8698,
      "duration": 0.0873,
      "velocity": 127,
      "chip": "ym2612"
    },
    {
      "channel": 2,
      "note": 49,
      "start": 14.8702,
      "duration": 0.087,
      "velocity": 91,
      "chip": "ym2612"
    },
    {
      "channel": 3,
      "note": 73,
      "start": 14.8704,
      "duration": 0.558,
      "velocity": 97,
      "chip": "ym2612"
    },
    {
      "channel": 4,
      "note": 73,
      "start": 14.8706,
      "duration": 0.5579,
      "velocity": 103,
      "chip": "ym2612"
    },
    {
      "channel": 5,
      "note": 33,
      "start": 14.8723,
      "duration": 0.085,
      "velocity": 127,
      "chip": "ym2612"
    },
    {
      "channel": 1,
      "note": 49,
      "start": 14.9745,
      "duration": 0.0873,
      "velocity": 127,
      "chip": "ym2612"
    },
    {
      "channel": 2,
      "note": 49,
      "start": 14.9746,
      "duration": 0.0873,
      "velocity": 91,
      "chip": "ym2612"
    },
    {
      "channel": 5,
      "note": 68,
      "start": 14.9763,
      "duration": 0.0858,
      "velocity": 127,
      "chip": "ym2612"
    },
    {
      "channel": 1,
      "note": 49,
      "start": 15.0792,
      "duration": 0.192,
      "velocity": 127,
      "chip": "ym2612"
    },
    {
      "channel": 2,
      "note": 49,
      "start": 15.0794,
      "duration": 0.192,
      "velocity": 91,
      "chip": "ym2612"
    },
    {
      "channel": 5,
      "note": 68,
      "start": 15.081,
      "duration": 0.0855,
      "velocity": 127,
      "chip": "ym2612"
    },
    {
      "channel": 5,
      "note": 68,
      "start": 15.1855,
      "duration": 0.0859,
      "velocity": 127,
      "chip": "ym2612"
    },
    {
      "channel": 1,
      "note": 49,
      "start": 15.2886,
      "duration": 0.0873,
      "velocity": 127,
      "chip": "ym2612"
    },
    {
      "channel": 2,
      "note": 49,
      "start": 15.2888,
      "duration": 0.0873,
      "velocity": 91,
      "chip": "ym2612"
    },
    {
      "channel": 5,
      "note": 68,
      "start": 15.2889,
      "duration": 0.0873,
      "velocity": 127,
      "chip": "ym2612"
    },
    {
      "channel": 1,
      "note": 49,
      "start": 15.3934,
      "duration": 0.0872,
      "velocity": 127,
      "chip": "ym2612"
    },
    {
      "channel": 2,
      "note": 49,
      "start": 15.3936,
      "duration": 0.0872,
      "velocity": 91,
      "chip": "ym2612"
    },
    {
      "channel": 5,
      "note": 68,
      "start": 15.3937,
      "duration": 0.0873,
      "velocity": 127,
      "chip": "ym2612"
    },
    {
      "channel": 1,
      "note": 49,
      "start": 15.4981,
      "duration": 0.192,
      "velocity": 127,
      "chip": "ym2612"
    },
    {
      "channel": 2,
      "note": 49,
      "start": 15.4983,
      "duration": 0.192,
      "velocity": 91,
      "chip": "ym2612"
    },
    {
      "channel": 3,
      "note": 75,
      "start": 15.4985,
      "duration": 1.0994,
      "velocity": 97,
      "chip": "ym2612"
    },
    {
      "channel": 4,
      "note": 75,
      "start": 15.4986,
      "duration": 1.0994,
      "velocity": 103,
      "chip": "ym2612"
    },
    {
      "channel": 5,
      "note": 33,
      "start": 15.5003,
      "duration": 0.0852,
      "velocity": 127,
      "chip": "ym2612"
    },
    {
      "channel": 5,
      "note": 68,
      "start": 15.6048,
      "duration": 0.0856,
      "velocity": 127,
      "chip": "ym2612"
    },
    {
      "channel": 1,
      "note": 49,
      "start": 15.7076,
      "duration": 0.0873,
      "velocity": 127,
      "chip": "ym2612"
    },
    {
      "channel": 2,
      "note": 49,
      "start": 15.7077,
      "duration": 0.0873,
      "velocity": 91,
      "chip": "ym2612"
    },
    {
      "channel": 5,
      "note": 68,
      "start": 15.7079,
      "duration": 0.0873,
      "velocity": 127,
      "chip": "ym2612"
    },
    {
      "channel": 1,
      "note": 49,
      "start": 15.8123,
      "duration": 0.0873,
      "velocity": 127,
      "chip": "ym2612"
    },
    {
      "channel": 2,
      "note": 49,
      "start": 15.8124,
      "duration": 0.0873,
      "velocity": 91,
      "chip": "ym2612"
    },
    {
      "channel": 5,
      "note": 33,
      "start": 15.8141,
      "duration": 0.0858,
      "velocity": 127,
      "chip": "ym2612"
    },
    {
      "channel": 1,
      "note": 49,
      "start": 15.9171,
      "duration": 0.192,
      "velocity": 127,
      "chip": "ym2612"
    },
    {
      "channel": 2,
      "note": 49,
      "start": 15.9172,
      "duration": 0.192,
      "velocity": 91,
      "chip": "ym2612"
    },
    {
      "channel": 5,
      "note": 68,
      "start": 15.9189,
      "duration": 0.0855,
      "velocity": 127,
      "chip": "ym2612"
    },
    {
      "channel": 5,
      "note": 68,
      "start": 16.0234,
      "duration": 0.0859,
      "velocity": 127,
      "chip": "ym2612"
    },
    {
      "channel": 1,
      "note": 49,
      "start": 16.1265,
      "duration": 0.0873,
      "velocity": 127,
      "chip": "ym2612"
    },
    {
      "channel": 2,
      "note": 49,
      "start": 16.1266,
      "duration": 0.0873,
      "velocity": 91,
      "chip": "ym2612"
    },
    {
      "channel": 5,
      "note": 68,
      "start": 16.1268,
      "duration": 0.0873,
      "velocity": 127,
      "chip": "ym2612"
    },
    {
      "channel": 1,
      "note": 49,
      "start": 16.2313,
      "duration": 0.0873,
      "velocity": 127,
      "chip": "ym2612"
    },
    {
      "channel": 2,
      "note": 49,
      "start": 16.2314,
      "duration": 0.0873,
      "velocity": 91,
      "chip": "ym2612"
    },
    {
      "channel": 5,
      "note": 68,
      "start": 16.2315,
      "duration": 0.0873,
      "velocity": 127,
      "chip": "ym2612"
    },
    {
      "channel": 1,
      "note": 49,
      "start": 16.336,
      "duration": 0.192,
      "velocity": 127,
      "chip": "ym2612"
    },
    {
      "channel": 2,
      "note": 49,
      "start": 16.3362,
      "duration": 0.192,
      "velocity": 91,
      "chip": "ym2612"
    },
    {
      "channel": 5,
      "note": 33,
      "start": 16.3382,
      "duration": 0.0851,
      "velocity": 127,
      "chip": "ym2612"
    },
    {
      "channel": 5,
      "note": 68,
      "start": 16.4423,
      "duration": 0.0859,
      "velocity": 127,
      "chip": "ym2612"
    },
    {
      "channel": 1,
      "note": 49,
      "start": 16.5455,
      "duration": 0.0873,
      "velocity": 127,
      "chip": "ym2612"
    },
    {
      "channel": 2,
      "note": 49,
      "start": 16.5456,
      "duration": 0.0873,
      "velocity": 91,
      "chip": "ym2612"
    },
    {
      "channel": 5,
      "note": 33,
      "start": 16.5472,
      "duration": 0.0858,
      "velocity": 127,
      "chip": "ym2612"
    },
    {
      "channel": 1,
      "note": 49,
      "start": 16.6502,
      "duration": 0.0873,
      "velocity": 127,
      "chip": "ym2612"
    },
    {
      "channel": 2,
      "note": 49,
      "start": 16.6504,
      "duration": 0.0873,
      "velocity": 91,
      "chip": "ym2612"
    },
    {
      "channel": 5,
      "note": 68,
      "start": 16.6521,
      "duration": 0.0857,
      "velocity": 127,
      "chip": "ym2612"
    },
    {
      "channel": 1,
      "note": 73,
      "start": 16.7565,
      "duration": 0.1905,
      "velocity": 103,
      "chip": "ym2612"
    },
    {
      "channel": 2,
      "note": 49,
      "start": 16.7566,
      "duration": 0.1905,
      "velocity": 91,
      "chip": "ym2612"
    },
    {
      "channel": 3,
      "note": 45,
      "start": 16.7582,
      "duration": 0.189,
      "velocity": 127,
      "chip": "ym2612"
    },
    {
      "channel": 4,
      "note": 61,
      "start": 16.7598,
      "duration": 0.1875,
      "velocity": 105,
      "chip": "ym2612"
    },
    {
      "channel": 5,
      "note": 33,
      "start": 16.7615,
      "duration": 0.1859,
      "velocity": 127,
      "chip": "ym2612"
    },
    {
      "channel": 1,
      "note": 76,
      "start": 16.9645,
      "duration": 0.1919,
      "velocity": 103,
      "chip": "ym2612"
    },
    {
      "channel": 2,
      "note": 52,
      "start": 16.9647,
      "duration": 0.1919,
      "velocity": 91,
      "chip": "ym2612"
    },
    {
      "channel": 3,
      "note": 45,
      "start": 16.9648,
      "duration": 0.1919,
      "velocity": 127,
      "chip": "ym2612"
    },
    {
      "channel": 4,
      "note": 64,
      "start": 16.965,
      "duration": 0.1918,
      "velocity": 105,
      "chip": "ym2612"
    },
    {
      "channel": 5,
      "note": 33,
      "start": 16.9651,
      "duration": 0.1918,
      "velocity": 127,
      "chip": "ym2612"
    },
    {
      "channel": 1,
      "note": 78,
      "start": 17.1739,
      "duration": 0.192,
      "velocity": 103,
      "chip": "ym2612"
    },
    {
      "channel": 2,
      "note": 54,
      "start": 17.1741,
      "duration": 0.1919,
      "velocity": 91,
      "chip": "ym2612"
    },
    {
      "channel": 3,
      "note": 45,
      "start": 17.1742,
      "duration": 1.152,
      "velocity": 127,
      "chip": "ym2612"
    },
    {
      "channel": 4,
      "note": 66,
      "start": 17.1744,
      "duration": 0.1917,
      "velocity": 105,
      "chip": "ym2612"
    },
    {
      "channel": 5,
      "note": 33,
      "start": 17.1745,
      "duration": 0.0866,
      "velocity": 127,
      "chip": "ym2612"
    },
    {
      "channel": 5,
      "note": 68,
      "start": 17.2802,
      "duration": 0.0861,
      "velocity": 127,
      "chip": "ym2612"
    },
    {
      "channel": 1,
      "note": 49,
      "start": 17.3848,
      "duration": 0.0858,
      "velocity": 127,
      "chip": "ym2612"
    },
    {
      "channel": 2,
      "note": 49,
      "start": 17.385,
      "duration": 0.0857,
      "velocity": 91,
      "chip": "ym2612"
    },
    {
      "channel": 5,
      "note": 68,
      "start": 17.3851,
      "duration": 0.0858,
      "velocity": 127,
      "chip": "ym2612"
    },
    {
      "channel": 1,
      "note": 49,
      "start": 17.4881,
      "duration": 0.0872,
      "velocity": 127,
      "chip": "ym2612"
    },
    {
      "channel": 2,
      "note": 49,
      "start": 17.4882,
      "duration": 0.0872,
      "velocity": 91,
      "chip": "ym2612"
    },
    {
      "channel": 5,
      "note": 33,
      "start": 17.4899,
      "duration": 0.0857,
      "velocity": 127,
      "chip": "ym2612"
    },
    {
      "channel": 1,
      "note": 49,
      "start": 17.5928,
      "duration": 0.192,
      "velocity": 127,
      "chip": "ym2612"
    },
    {
      "channel": 2,
      "note": 49,
      "start": 17.5929,
      "duration": 0.192,
      "velocity": 91,
      "chip": "ym2612"
    },
    {
      "channel": 4,
      "note": 73,
      "start": 17.5931,
      "duration": 0.3663,
      "velocity": 105,
      "chip": "ym2612"
    },
    {
      "channel": 5,
      "note": 68,
      "start": 17.5948,
      "duration": 0.0853,
      "velocity": 127,
      "chip": "ym2612"
    },
    {
      "channel": 5,
      "note": 68,
      "start": 17.699,
      "duration": 0.0861,
      "velocity": 127,
      "chip": "ym2612"
    },
    {
      "channel": 1,
      "note": 49,
      "start": 17.8023,
      "duration": 0.0872,
      "velocity": 127,
      "chip": "ym2612"
    },
    {
      "channel": 2,
      "note": 49,
      "start": 17.8024,
      "duration": 0.0872,
      "velocity": 91,
      "chip": "ym2612"
    },
    {
      "channel": 5,
      "note": 68,
      "start": 17.8025,
      "duration": 0.0873,
      "velocity": 127,
      "chip": "ym2612"
    },
    {
      "channel": 1,
      "note": 49,
      "start": 17.907,
      "duration": 0.0873,
      "velocity": 127,
      "chip": "ym2612"
    },
    {
      "channel": 2,
      "note": 49,
      "start": 17.9071,
      "duration": 0.0873,
      "velocity": 91,
      "chip": "ym2612"
    },
    {
      "channel": 5,
      "note": 68,
      "start": 17.9073,
      "duration": 0.0872,
      "velocity": 127,
      "chip": "ym2612"
    },
    {
      "channel": 1,
      "note": 49,
      "start": 18.0117,
      "duration": 0.1921,
      "velocity": 127,
      "chip": "ym2612"
    },
    {
      "channel": 2,
      "note": 49,
      "start": 18.0118,
      "duration": 0.1921,
      "velocity": 91,
      "chip": "ym2612"
    },
    {
      "channel": 4,
      "note": 80,
      "start": 18.0121,
      "duration": 0.3662,
      "velocity": 105,
      "chip": "ym2612"
    },
    {
      "channel": 5,
      "note": 33,
      "start": 18.0137,
      "duration": 0.0853,
      "velocity": 127,
      "chip": "ym2612"
    },
    {
      "channel": 5,
      "note": 68,
      "start": 18.1181,
      "duration": 0.0859,
      "velocity": 127,
      "chip": "ym2612"
    },
    {
      "channel": 1,
      "note": 49,
      "start": 18.2212,
      "duration": 0.0873,
      "velocity": 127,
      "chip": "ym2612"
    },
    {
      "channel": 2,
      "note": 49,
      "start": 18.2213,
      "duration": 0.0873,
      "velocity": 91,
      "chip": "ym2612"
    },
    {
      "channel": 5,
      "note": 33,
      "start": 18.223,
      "duration": 0.0857,
      "velocity": 127,
      "chip": "ym2612"
    },
    {
      "channel": 1,
      "note": 49,
      "start": 18.3259,
      "duration": 0.0872,
      "velocity": 127,
      "chip": "ym2612"
    },
    {
      "channel": 2,
      "note": 49,
      "start": 18.3261,
      "duration": 0.0872,
      "velocity": 91,
      "chip": "ym2612"
    },
    {
      "channel": 5,
      "note": 68,
      "start": 18.3279,
      "duration": 0.0855,
      "velocity": 127,
      "chip": "ym2612"
    },
    {
      "channel": 1,
      "note": 49,
      "start": 18.4306,
      "duration": 0.192,
      "velocity": 127,
      "chip": "ym2612"
    },
    {
      "channel": 2,
      "note": 49,
      "start": 18.4308,
      "duration": 0.192,
      "velocity": 91,
      "chip": "ym2612"
    },
    {
      "channel": 3,
      "note": 78,
      "start": 18.4324,
      "duration": 0.1905,
      "velocity": 97,
      "chip": "ym2612"
    },
    {
      "channel": 4,
      "note": 78,
      "start": 18.4326,
      "duration": 0.1905,
      "velocity": 105,
      "chip": "ym2612"
    },
    {
      "channel": 5,
      "note": 68,
      "start": 18.4342,
      "duration": 0.0838,
      "velocity": 127,
      "chip": "ym2612"
    },
    {
      "channel": 5,
      "note": 68,
      "start": 18.5373,
      "duration": 0.0859,
      "velocity": 127,
      "chip": "ym2612"
    },
    {
      "channel": 1,
      "note": 49,
      "start": 18.6401,
      "duration": 0.0873,
      "velocity": 127,
      "chip": "ym2612"
    },
    {
      "channel": 2,
      "note": 49,
      "start": 18.6402,
      "duration": 0.0873,
      "velocity": 91,
      "chip": "ym2612"
    },
    {
      "channel": 3,
      "note": 76,
      "start": 18.6404,
      "duration": 0.4188,
      "velocity": 97,
      "chip": "ym2612"
    },
    {
      "channel": 4,
      "note": 76,
      "start": 18.6406,
      "duration": 0.4188,
      "velocity": 105,
      "chip": "ym2612"
    },
    {
      "channel": 5,
      "note": 68,
      "start": 18.6407,
      "duration": 0.0869,
      "velocity": 127,
      "chip": "ym2612"
    },
    {
      "channel": 1,
      "note": 49,
      "start": 18.7448,
      "duration": 0.0873,
      "velocity": 127,
      "chip": "ym2612"
    },
    {
      "channel": 2,
      "note": 49,
      "start": 18.7449,
      "duration": 0.0873,
      "velocity": 91,
      "chip": "ym2612"
    },
    {
      "channel": 5,
      "note": 68,
      "start": 18.7451,
      "duration": 0.0873,
      "velocity": 127,
      "chip": "ym2612"
    },
    {
      "channel": 1,
      "note": 49,
      "start": 18.8495,
      "duration": 0.192,
      "velocity": 127,
      "chip": "ym2612"
    },
    {
      "channel": 2,
      "note": 49,
      "start": 18.8497,
      "duration": 0.192,
      "velocity": 91,
      "chip": "ym2612"
    },
    {
      "channel": 5,
      "note": 33,
      "start": 18.8514,
      "duration": 0.0857,
      "velocity": 127,
      "chip": "ym2612"
    },
    {
      "channel": 5,
      "note": 68,
      "start": 18.9559,
      "duration": 0.0859,
      "velocity": 127,
      "chip": "ym2612"
    },
    {
      "channel": 1,
      "note": 49,
      "start": 19.059,
      "duration": 0.0873,
      "velocity": 127,
      "chip": "ym2612"
    },
    {
      "channel": 2,
      "note": 49,
      "start": 19.0591,
      "duration": 0.0873,
      "velocity": 91,
      "chip": "ym2612"
    },
    {
      "channel": 3,
      "note": 69,
      "start": 19.0594,
      "duration": 1.0298,
      "velocity": 97,
      "chip": "ym2612"
    },
    {
      "channel": 4,
      "note": 69,
      "start": 19.0596,
      "duration": 1.0297,
      "velocity": 105,
      "chip": "ym2612"
    },
    {
      "channel": 5,
      "note": 68,
      "start": 19.0597,
      "duration": 0.0869,
      "velocity": 127,
      "chip": "ym2612"
    },
    {
      "channel": 1,
      "note": 49,
      "start": 19.1638,
      "duration": 0.0873,
      "velocity": 127,
      "chip": "ym2612"
    },
    {
      "channel": 2,
      "note": 49,
      "start": 19.1639,
      "duration": 0.0873,
      "velocity": 91,
      "chip": "ym2612"
    },
    {
      "channel": 5,
      "note": 33,
      "start": 19.1656,
      "duration": 0.0857,
      "velocity": 127,
      "chip": "ym2612"
    },
    {
      "channel": 1,
      "note": 49,
      "start": 19.2685,
      "duration": 0.192,
      "velocity": 127,
      "chip": "ym2612"
    },
    {
      "channel": 2,
      "note": 49,
      "start": 19.2686,
      "duration": 0.192,
      "velocity": 91,
      "chip": "ym2612"
    },
    {
      "channel": 5,
      "note": 68,
      "start": 19.2707,
      "duration": 0.0851,
      "velocity": 127,
      "chip": "ym2612"
    },
    {
      "channel": 5,
      "note": 68,
      "start": 19.3748,
      "duration": 0.0859,
      "velocity": 127,
      "chip": "ym2612"
    },
    {
      "channel": 1,
      "note": 49,
      "start": 19.478,
      "duration": 0.0873,
      "velocity": 127,
      "chip": "ym2612"
    },
    {
      "channel": 2,
      "note": 49,
      "start": 19.4781,
      "duration": 0.0873,
      "velocity": 91,
      "chip": "ym2612"
    },
    {
      "channel": 5,
      "note": 68,
      "start": 19.4782,
      "duration": 0.0873,
      "velocity": 127,
      "chip": "ym2612"
    },
    {
      "channel": 1,
      "note": 49,
      "start": 19.5827,
      "duration": 0.0876,
      "velocity": 127,
      "chip": "ym2612"
    },
    {
      "channel": 2,
      "note": 49,
      "start": 19.5829,
      "duration": 0.0877,
      "velocity": 91,
      "chip": "ym2612"
    },
    {
      "channel": 5,
      "note": 68,
      "start": 19.583,
      "duration": 0.0877,
      "velocity": 127,
      "chip": "ym2612"
    },
    {
      "channel": 1,
      "note": 49,
      "start": 19.6874,
      "duration": 0.192,
      "velocity": 127,
      "chip": "ym2612"
    },
    {
      "channel": 2,
      "note": 49,
      "start": 19.6876,
      "duration": 0.192,
      "velocity": 91,
      "chip": "ym2612"
    },
    {
      "channel": 5,
      "note": 33,
      "start": 19.6893,
      "duration": 0.0854,
      "velocity": 127,
      "chip": "ym2612"
    },
    {
      "channel": 5,
      "note": 68,
      "start": 19.7937,
      "duration": 0.0859,
      "velocity": 127,
      "chip": "ym2612"
    },
    {
      "channel": 1,
      "note": 49,
      "start": 19.8969,
      "duration": 0.0873,
      "velocity": 127,
      "chip": "ym2612"
    },
    {
      "channel": 2,
      "note": 49,
      "start": 19.8971,
      "duration": 0.0873,
      "velocity": 91,
      "chip": "ym2612"
    },
    {
      "channel": 5,
      "note": 33,
      "start": 19.8988,
      "duration": 0.0857,
      "velocity": 127,
      "chip": "ym2612"
    },
    {
      "channel": 1,
      "note": 49,
      "start": 20.0016,
      "duration": 0.0873,
      "velocity": 127,
      "chip": "ym2612"
    },
    {
      "channel": 2,
      "note": 49,
      "start": 20.0017,
      "duration": 0.0873,
      "velocity": 91,
      "chip": "ym2612"
    },
    {
      "channel": 5,
      "note": 68,
      "start": 20.0039,
      "duration": 0.0856,
      "velocity": 127,
      "chip": "ym2612"
    },
    {
      "channel": 1,
      "note": 73,
      "start": 20.1079,
      "duration": 0.1904,
      "velocity": 103,
      "chip": "ym2612"
    },
    {
      "channel": 2,
      "note": 49,
      "start": 20.108,
      "duration": 0.1904,
      "velocity": 91,
      "chip": "ym2612"
    },
    {
      "channel": 3,
      "note": 45,
      "start": 20.1097,
      "duration": 0.1889,
      "velocity": 127,
      "chip": "ym2612"
    },
    {
      "channel": 4,
      "note": 61,
      "start": 20.1098,
      "duration": 0.1889,
      "velocity": 105,
      "chip": "ym2612"
    },
    {
      "channel": 5,
      "note": 33,
      "start": 20.1115,
      "duration": 0.1873,
      "velocity": 127,
      "chip": "ym2612"
    },
    {
      "channel": 1,
      "note": 76,
      "start": 20.3159,
      "duration": 0.1919,
      "velocity": 103,
      "chip": "ym2612"
    },
    {
      "channel": 2,
      "note": 52,
      "start": 20.3161,
      "duration": 0.1919,
      "velocity": 91,
      "chip": "ym2612"
    },
    {
      "channel": 3,
      "note": 45,
      "start": 20.3162,
      "duration": 0.1919,
      "velocity": 127,
      "chip": "ym2612"
    },
    {
      "channel": 4,
      "note": 64,
      "start": 20.3164,
      "duration": 0.1918,
      "velocity": 105,
      "chip": "ym2612"
    },
    {
      "channel": 5,
      "note": 33,
      "start": 20.3165,
      "duration": 0.1918,
      "velocity": 127,
      "chip": "ym2612"
    },
    {
      "channel": 1,
      "note": 78,
      "start": 20.5254,
      "duration": 0.1919,
      "velocity": 103,
      "chip": "ym2612"
    },
    {
      "channel": 2,
      "note": 54,
      "start": 20.5256,
      "duration": 0.1919,
      "velocity": 91,
      "chip": "ym2612"
    },
    {
      "channel": 3,
      "note": 45,
      "start": 20.5257,
      "duration": 0.7851,
      "velocity": 127,
      "chip": "ym2612"
    },
    {
      "channel": 4,
      "note": 66,
      "start": 20.5259,
      "duration": 0.1917,
      "velocity": 105,
      "chip": "ym2612"
    },
    {
      "channel": 5,
      "note": 33,
      "start": 20.526,
      "duration": 0.0866,
      "velocity": 127,
      "chip": "ym2612"
    },
    {
      "channel": 5,
      "note": 68,
      "start": 20.6317,
      "duration": 0.086,
      "velocity": 127,
      "chip": "ym2612"
    },
    {
      "channel": 1,
      "note": 49,
      "start": 20.7364,
      "duration": 0.0857,
      "velocity": 127,
      "chip": "ym2612"
    },
    {
      "channel": 2,
      "note": 49,
      "start": 20.7369,
      "duration": 0.0853,
      "velocity": 91,
      "chip": "ym2612"
    },
    {
      "channel": 5,
      "note": 68,
      "start": 20.7371,
      "duration": 0.0853,
      "velocity": 127,
      "chip": "ym2612"
    },
    {
      "channel": 1,
      "note": 49,
      "start": 20.8395,
      "duration": 0.0873,
      "velocity": 127,
      "chip": "ym2612"
    },
    {
      "channel": 2,
      "note": 49,
      "start": 20.8396,
      "duration": 0.0873,
      "velocity": 91,
      "chip": "ym2612"
    },
    {
      "channel": 5,
      "note": 33,
      "start": 20.8413,
      "duration": 0.0857,
      "velocity": 127,
      "chip": "ym2612"
    },
    {
      "channel": 1,
      "note": 49,
      "start": 20.9442,
      "duration": 0.192,
      "velocity": 127,
      "chip": "ym2612"
    },
    {
      "channel": 2,
      "note": 49,
      "start": 20.9444,
      "duration": 0.192,
      "velocity": 91,
      "chip": "ym2612"
    },
    {
      "channel": 4,
      "note": 78,
      "start": 20.9446,
      "duration": 0.087,
      "velocity": 105,
      "chip": "ym2612"
    },
    {
      "channel": 5,
      "note": 68,
      "start": 20.9462,
      "duration": 0.0854,
      "velocity": 127,
      "chip": "ym2612"
    },
    {
      "channel": 4,
      "note": 76,
      "start": 21.049,
      "duration": 0.0878,
      "velocity": 105,
      "chip": "ym2612"
    },
    {
      "channel": 5,
      "note": 68,
      "start": 21.0507,
      "duration": 0.0863,
      "velocity": 127,
      "chip": "ym2612"
    },
    {
      "channel": 1,
      "note": 49,
      "start": 21.1537,
      "duration": 0.0872,
      "velocity": 127,
      "chip": "ym2612"
    },
    {
      "channel": 2,
      "note": 49,
      "start": 21.1539,
      "duration": 0.0872,
      "velocity": 91,
      "chip": "ym2612"
    },
    {
      "channel": 4,
      "note": 75,
      "start": 21.154,
      "duration": 0.0872,
      "velocity": 105,
      "chip": "ym2612"
    },
    {
      "channel": 5,
      "note": 68,
      "start": 21.1542,
      "duration": 0.0871,
      "velocity": 127,
      "chip": "ym2612"
    },
    {
      "channel": 1,
      "note": 49,
      "start": 21.2584,
      "duration": 0.0873,
      "velocity": 127,
      "chip": "ym2612"
    },
    {
      "channel": 2,
      "note": 49,
      "start": 21.2586,
      "duration": 0.0873,
      "velocity": 91,
      "chip": "ym2612"
    },
    {
      "channel": 4,
      "note": 73,
      "start": 21.2588,
      "duration": 0.0872,
      "velocity": 105,
      "chip": "ym2612"
    },
    {
      "channel": 5,
      "note": 68,
      "start": 21.2589,
      "duration": 0.0872,
      "velocity": 127,
      "chip": "ym2612"
    },
    {
      "channel": 1,
      "note": 49,
      "start": 21.3631,
      "duration": 0.192,
      "velocity": 127,
      "chip": "ym2612"
    },
    {
      "channel": 2,
      "note": 49,
      "start": 21.3632,
      "duration": 0.1921,
      "velocity": 91,
      "chip": "ym2612"
    },
    {
      "channel": 3,
      "note": 76,
      "start": 21.3649,
      "duration": 0.0856,
      "velocity": 97,
      "chip": "ym2612"
    },
    {
      "channel": 4,
      "note": 76,
      "start": 21.3651,
      "duration": 0.0855,
      "velocity": 105,
      "chip": "ym2612"
    },
    {
      "channel": 5,
      "note": 33,
      "start": 21.3667,
      "duration": 0.084,
      "velocity": 127,
      "chip": "ym2612"
    },
    {
      "channel": 3,
      "note": 75,
      "start": 21.468,
      "duration": 0.0874,
      "velocity": 97,
      "chip": "ym2612"
    },
    {
      "channel": 4,
      "note": 75,
      "start": 21.4682,
      "duration": 0.0873,
      "velocity": 105,
      "chip": "ym2612"
    },
    {
      "channel": 5,
      "note": 68,
      "start": 21.4703,
      "duration": 0.0854,
      "velocity": 127,
      "chip": "ym2612"
    },
    {
      "channel": 1,
      "note": 49,
      "start": 21.5726,
      "duration": 0.0872,
      "velocity": 127,
      "chip": "ym2612"
    },
    {
      "channel": 2,
      "note": 49,
      "start": 21.5727,
      "duration": 0.0872,
      "velocity": 91,
      "chip": "ym2612"
    },
    {
      "channel": 3,
      "note": 73,
      "start": 21.5729,
      "duration": 0.0871,
      "velocity": 97,
      "chip": "ym2612"
    },
    {
      "channel": 4,
      "note": 73,
      "start": 21.5731,
      "duration": 0.0871,
      "velocity": 105,
      "chip": "ym2612"
    },
    {
      "channel": 5,
      "note": 33,
      "start": 21.5749,
      "duration": 0.0855,
      "velocity": 127,
      "chip": "ym2612"
    },
    {
      "channel": 1,
      "note": 49,
      "start": 21.6774,
      "duration": 0.0871,
      "velocity": 127,
      "chip": "ym2612"
    },
    {
      "channel": 2,
      "note": 49,
      "start": 21.6775,
      "duration": 0.0871,
      "velocity": 91,
      "chip": "ym2612"
    },
    {
      "channel": 3,
      "note": 71,
      "start": 21.6777,
      "duration": 0.0871,
      "velocity": 97,
      "chip": "ym2612"
    },
    {
      "channel": 4,
      "note": 71,
      "start": 21.6778,
      "duration": 0.0871,
      "velocity": 105,
      "chip": "ym2612"
    },
    {
      "channel": 5,
      "note": 68,
      "start": 21.6795,
      "duration": 0.0855,
      "velocity": 127,
      "chip": "ym2612"
    },
    {
      "channel": 1,
      "note": 49,
      "start": 21.782,
      "duration": 0.192,
      "velocity": 127,
      "chip": "ym2612"
    },
    {
      "channel": 2,
      "note": 49,
      "start": 21.7822,
      "duration": 0.192,
      "velocity": 91,
      "chip": "ym2612"
    },
    {
      "channel": 3,
      "note": 75,
      "start": 21.7824,
      "duration": 0.087,
      "velocity": 97,
      "chip": "ym2612"
    },
    {
      "channel": 4,
      "note": 75,
      "start": 21.7825,
      "duration": 0.087,
      "velocity": 105,
      "chip": "ym2612"
    },
    {
      "channel": 5,
      "note": 68,
      "start": 21.7842,
      "duration": 0.0854,
      "velocity": 127,
      "chip": "ym2612"
    },
    {
      "channel": 3,
      "note": 73,
      "start": 21.8871,
      "duration": 0.0871,
      "velocity": 97,
      "chip": "ym2612"
    },
    {
      "channel": 4,
      "note": 73,
      "start": 21.8873,
      "duration": 0.0871,
      "velocity": 105,
      "chip": "ym2612"
    },
    {
      "channel": 5,
      "note": 68,
      "start": 21.889,
      "duration": 0.0856,
      "velocity": 127,
      "chip": "ym2612"
    },
    {
      "channel": 1,
      "note": 49,
      "start": 21.9916,
      "duration": 0.0872,
      "velocity": 127,
      "chip": "ym2612"
    },
    {
      "channel": 2,
      "note": 49,
      "start": 21.9917,
      "duration": 0.0872,
      "velocity": 91,
      "chip": "ym2612"
    },
    {
      "channel": 3,
      "note": 71,
      "start": 21.9919,
      "duration": 0.0871,
      "velocity": 97,
      "chip": "ym2612"
    },
    {
      "channel": 4,
      "note": 71,
      "start": 21.9921,
      "duration": 0.0871,
      "velocity": 105,
      "chip": "ym2612"
    },
    {
      "channel": 5,
      "note": 68,
      "start": 21.9922,
      "duration": 0.0871,
      "velocity": 127,
      "chip": "ym2612"
    },
    {
      "channel": 1,
      "note": 49,
      "start": 22.0962,
      "duration": 0.0873,
      "velocity": 127,
      "chip": "ym2612"
    },
    {
      "channel": 2,
      "note": 49,
      "start": 22.0963,
      "duration": 0.0873,
      "velocity": 91,
      "chip": "ym2612"
    },
    {
      "channel": 3,
      "note": 69,
      "start": 22.0965,
      "duration": 0.0873,
      "velocity": 97,
      "chip": "ym2612"
    },
    {
      "channel": 4,
      "note": 69,
      "start": 22.0967,
      "duration": 0.0872,
      "velocity": 105,
      "chip": "ym2612"
    },
    {
      "channel": 5,
      "note": 68,
      "start": 22.0968,
      "duration": 0.0872,
      "velocity": 127,
      "chip": "ym2612"
    },
    {
      "channel": 1,
      "note": 49,
      "start": 22.201,
      "duration": 0.192,
      "velocity": 127,
      "chip": "ym2612"
    },
    {
      "channel": 2,
      "note": 49,
      "start": 22.2011,
      "duration": 0.1921,
      "velocity": 91,
      "chip": "ym2612"
    },
    {
      "channel": 3,
      "note": 61,
      "start": 22.2013,
      "duration": 1.0994,
      "velocity": 97,
      "chip": "ym2612"
    },
    {
      "channel": 4,
      "note": 61,
      "start": 22.2015,
      "duration": 1.0993,
      "velocity": 105,
      "chip": "ym2612"
    },
    {
      "channel": 5,
      "note": 68,
      "start": 22.2032,
      "duration": 0.1901,
      "velocity": 127,
      "chip": "ym2612"
    },
    {
      "channel": 1,
      "note": 49,
      "start": 22.4105,
      "duration": 0.0873,
      "velocity": 127,
      "chip": "ym2612"
    },
    {
      "channel": 2,
      "note": 49,
      "start": 22.4106,
      "duration": 0.0873,
      "velocity": 91,
      "chip": "ym2612"
    },
    {
      "channel": 5,
      "note": 68,
      "start": 22.4107,
      "duration": 0.0873,
      "velocity": 127,
      "chip": "ym2612"
    },
    {
      "channel": 1,
      "note": 49,
      "start": 22.5152,
      "duration": 0.0873,
      "velocity": 127,
      "chip": "ym2612"
    },
    {
      "channel": 2,
      "note": 49,
      "start": 22.5153,
      "duration": 0.0873,
      "velocity": 91,
      "chip": "ym2612"
    },
    {
      "channel": 5,
      "note": 68,
      "start": 22.5154,
      "duration": 0.0873,
      "velocity": 127,
      "chip": "ym2612"
    },
    {
      "channel": 1,
      "note": 49,
      "start": 22.6205,
      "duration": 0.1915,
      "velocity": 127,
      "chip": "ym2612"
    },
    {
      "channel": 2,
      "note": 49,
      "start": 22.6206,
      "duration": 0.1915,
      "velocity": 91,
      "chip": "ym2612"
    },
    {
      "channel": 5,
      "note": 68,
      "start": 22.6207,
      "duration": 0.1915,
      "velocity": 127,
      "chip": "ym2612"
    },
    {
      "channel": 1,
      "note": 49,
      "start": 22.8294,
      "duration": 0.0872,
      "velocity": 127,
      "chip": "ym2612"
    },
    {
      "channel": 2,
      "note": 49,
      "start": 22.8295,
      "duration": 0.0872,
      "velocity": 91,
      "chip": "ym2612"
    },
    {
      "channel": 5,
      "note": 68,
      "start": 22.8297,
      "duration": 0.0873,
      "velocity": 127,
      "chip": "ym2612"
    },
    {
      "channel": 1,
      "note": 49,
      "start": 22.9341,
      "duration": 0.0873,
      "velocity": 127,
      "chip": "ym2612"
    },
    {
      "channel": 2,
      "note": 49,
      "start": 22.9343,
      "duration": 0.0873,
      "velocity": 91,
      "chip": "ym2612"
    },
    {
      "channel": 5,
      "note": 68,
      "start": 22.9344,
      "duration": 0.0872,
      "velocity": 127,
      "chip": "ym2612"
    },
    {
      "channel": 1,
      "note": 49,
      "start": 23.0388,
      "duration": 0.192,
      "velocity": 127,
      "chip": "ym2612"
    },
    {
      "channel": 2,
      "note": 49,
      "start": 23.039,
      "duration": 0.192,
      "velocity": 91,
      "chip": "ym2612"
    },
    {
      "channel": 5,
      "note": 68,
      "start": 23.0391,
      "duration": 0.192,
      "velocity": 127,
      "chip": "ym2612"
    },
    {
      "channel": 1,
      "note": 49,
      "start": 23.2483,
      "duration": 0.0872,
      "velocity": 127,
      "chip": "ym2612"
    },
    {
      "channel": 2,
      "note": 49,
      "start": 23.2485,
      "duration": 0.0872,
      "velocity": 91,
      "chip": "ym2612"
    },
    {
      "channel": 5,
      "note": 68,
      "start": 23.2486,
      "duration": 0.0872,
      "velocity": 127,
      "chip": "ym2612"
    },
    {
      "channel": 1,
      "note": 49,
      "start": 23.3531,
      "duration": 0.0872,
      "velocity": 127,
      "chip": "ym2612"
    },
    {
      "channel": 2,
      "note": 49,
      "start": 23.3535,
      "duration": 0.0869,
      "velocity": 91,
      "chip": "ym2612"
    },
    {
      "channel": 5,
      "note": 68,
      "start": 23.3537,
      "duration": 0.0869,
      "velocity": 127,
      "chip": "ym2612"
    },
    {
      "channel": 1,
      "note": 73,
      "start": 23.4593,
      "duration": 0.365,
      "velocity": 103,
      "chip": "ym2612"
    },
    {
      "channel": 2,
      "note": 61,
      "start": 23.4595,
      "duration": 0.3649,
      "velocity": 91,
      "chip": "ym2612"
    },
    {
      "channel": 3,
      "note": 45,
      "start": 23.4612,
      "duration": 0.3634,
      "velocity": 127,
      "chip": "ym2612"
    },
    {
      "channel": 4,
      "note": 61,
      "start": 23.4613,
      "duration": 0.3634,
      "velocity": 105,
      "chip": "ym2612"
    },
    {
      "channel": 5,
      "note": 33,
      "start": 23.4629,
      "duration": 0.3619,
      "velocity": 127,
      "chip": "ym2612"
    },
    {
      "channel": 1,
      "note": 49,
      "start": 23.8783,
      "duration": 0.1905,
      "velocity": 127,
      "chip": "ym2612"
    },
    {
      "channel": 2,
      "note": 49,
      "start": 23.8785,
      "duration": 0.1904,
      "velocity": 91,
      "chip": "ym2612"
    },
    {
      "channel": 3,
      "note": 73,
      "start": 23.8801,
      "duration": 0.5551,
      "velocity": 97,
      "chip": "ym2612"
    },
    {
      "channel": 4,
      "note": 73,
      "start": 23.8817,
      "duration": 0.5537,
      "velocity": 103,
      "chip": "ym2612"
    },
    {
      "channel": 5,
      "note": 33,
      "start": 23.8818,
      "duration": 0.0821,
      "velocity": 127,
      "chip": "ym2612"
    },
    {
      "channel": 5,
      "note": 68,
      "start": 23.9831,
      "duration": 0.0859,
      "velocity": 127,
      "chip": "ym2612"
    },
    {
      "channel": 1,
      "note": 49,
      "start": 24.0862,
      "duration": 0.0873,
      "velocity": 127,
      "chip": "ym2612"
    },
    {
      "channel": 2,
      "note": 49,
      "start": 24.0863,
      "duration": 0.0873,
      "velocity": 91,
      "chip": "ym2612"
    },
    {
      "channel": 5,
      "note": 68,
      "start": 24.0865,
      "duration": 0.0873,
      "velocity": 127,
      "chip": "ym2612"
    },
    {
      "channel": 1,
      "note": 49,
      "start": 24.1909,
      "duration": 0.0873,
      "velocity": 127,
      "chip": "ym2612"
    },
    {
      "channel": 2,
      "note": 49,
      "start": 24.191,
      "duration": 0.0873,
      "velocity": 91,
      "chip": "ym2612"
    },
    {
      "channel": 5,
      "note": 33,
      "start": 24.1927,
      "duration": 0.0858,
      "velocity": 127,
      "chip": "ym2612"
    },
    {
      "channel": 1,
      "note": 49,
      "start": 24.2956,
      "duration": 0.1921,
      "velocity": 127,
      "chip": "ym2612"
    },
    {
      "channel": 2,
      "note": 49,
      "start": 24.2957,
      "duration": 0.1921,
      "velocity": 91,
      "chip": "ym2612"
    },
    {
      "channel": 5,
      "note": 68,
      "start": 24.2974,
      "duration": 0.0856,
      "velocity": 127,
      "chip": "ym2612"
    },
    {
      "channel": 5,
      "note": 68,
      "start": 24.402,
      "duration": 0.086,
      "velocity": 127,
      "chip": "ym2612"
    },
    {
      "channel": 1,
      "note": 49,
      "start": 24.5051,
      "duration": 0.0872,
      "velocity": 127,
      "chip": "ym2612"
    },
    {
      "channel": 2,
      "note": 49,
      "start": 24.5053,
      "duration": 0.0872,
      "velocity": 91,
      "chip": "ym2612"
    },
    {
      "channel": 3,
      "note": 68,
      "start": 24.5054,
      "duration": 0.5583,
      "velocity": 97,
      "chip": "ym2612"
    },
    {
      "channel": 4,
      "note": 68,
      "start": 24.5056,
      "duration": 0.5582,
      "velocity": 103,
      "chip": "ym2612"
    },
    {
      "channel": 5,
      "note": 68,
      "start": 24.5058,
      "duration": 0.0869,
      "velocity": 127,
      "chip": "ym2612"
    },
    {
      "channel": 1,
      "note": 49,
      "start": 24.6098,
      "duration": 0.0873,
      "velocity": 127,
      "chip": "ym2612"
    },
    {
      "channel": 2,
      "note": 49,
      "start": 24.61,
      "duration": 0.0873,
      "velocity": 91,
      "chip": "ym2612"
    },
    {
      "channel": 5,
      "note": 68,
      "start": 24.6102,
      "duration": 0.0873,
      "velocity": 127,
      "chip": "ym2612"
    },
    {
      "channel": 1,
      "note": 49,
      "start": 24.7146,
      "duration": 0.1919,
      "velocity": 127,
      "chip": "ym2612"
    },
    {
      "channel": 2,
      "note": 49,
      "start": 24.7147,
      "duration": 0.1919,
      "velocity": 91,
      "chip": "ym2612"
    },
    {
      "channel": 5,
      "note": 33,
      "start": 24.7164,
      "duration": 0.0854,
      "velocity": 127,
      "chip": "ym2612"
    },
    {
      "channel": 5,
      "note": 68,
      "start": 24.8213,
      "duration": 0.0856,
      "velocity": 127,
      "chip": "ym2612"
    },
    {
      "channel": 1,
      "note": 49,
      "start": 24.924,
      "duration": 0.0873,
      "velocity": 127,
      "chip": "ym2612"
    },
    {
      "channel": 2,
      "note": 49,
      "start": 24.9241,
      "duration": 0.0873,
      "velocity": 91,
      "chip": "ym2612"
    },
    {
      "channel": 5,
      "note": 33,
      "start": 24.9259,
      "duration": 0.0857,
      "velocity": 127,
      "chip": "ym2612"
    },
    {
      "channel": 1,
      "note": 49,
      "start": 25.0287,
      "duration": 0.0873,
      "velocity": 127,
      "chip": "ym2612"
    },
    {
      "channel": 2,
      "note": 49,
      "start": 25.0288,
      "duration": 0.0873,
      "velocity": 91,
      "chip": "ym2612"
    },
    {
      "channel": 5,
      "note": 68,
      "start": 25.0306,
      "duration": 0.0857,
      "velocity": 127,
      "chip": "ym2612"
    },
    {
      "channel": 1,
      "note": 73,
      "start": 25.1351,
      "duration": 0.1904,
      "velocity": 103,
      "chip": "ym2612"
    },
    {
      "channel": 2,
      "note": 61,
      "start": 25.1353,
      "duration": 0.1903,
      "velocity": 91,
      "chip": "ym2612"
    },
    {
      "channel": 3,
      "note": 45,
      "start": 25.1373,
      "duration": 0.3628,
      "velocity": 127,
      "chip": "ym2612"
    },
    {
      "channel": 4,
      "note": 64,
      "start": 25.1389,
      "duration": 0.3613,
      "velocity": 105,
      "chip": "ym2612"
    },
    {
      "channel": 5,
      "note": 33,
      "start": 25.1406,
      "duration": 0.3598,
      "velocity": 127,
      "chip": "ym2612"
    },
    {
      "channel": 1,
      "note": 49,
      "start": 25.3445,
      "duration": 0.0857,
      "velocity": 127,
      "chip": "ym2612"
    },
    {
      "channel": 2,
      "note": 49,
      "start": 25.3447,
      "duration": 0.0857,
      "velocity": 91,
      "chip": "ym2612"
    },
    {
      "channel": 1,
      "note": 49,
      "start": 25.4477,
      "duration": 0.0873,
      "velocity": 127,
      "chip": "ym2612"
    },
    {
      "channel": 2,
      "note": 49,
      "start": 25.4478,
      "duration": 0.0873,
      "velocity": 91,
      "chip": "ym2612"
    },
    {
      "channel": 1,
      "note": 51,
      "start": 25.5525,
      "duration": 0.1919,
      "velocity": 127,
      "chip": "ym2612"
    },
    {
      "channel": 2,
      "note": 51,
      "start": 25.5527,
      "duration": 0.1919,
      "velocity": 91,
      "chip": "ym2612"
    },
    {
      "channel": 3,
      "note": 75,
      "start": 25.5547,
      "duration": 0.5564,
      "velocity": 97,
      "chip": "ym2612"
    },
    {
      "channel": 4,
      "note": 75,
      "start": 25.5563,
      "duration": 0.5549,
      "velocity": 103,
      "chip": "ym2612"
    },
    {
      "channel": 5,
      "note": 33,
      "start": 25.5565,
      "duration": 0.0833,
      "velocity": 127,
      "chip": "ym2612"
    },
    {
      "channel": 5,
      "note": 68,
      "start": 25.6588,
      "duration": 0.0859,
      "velocity": 127,
      "chip": "ym2612"
    },
    {
      "channel": 1,
      "note": 51,
      "start": 25.7619,
      "duration": 0.0873,
      "velocity": 127,
      "chip": "ym2612"
    },
    {
      "channel": 2,
      "note": 51,
      "start": 25.762,
      "duration": 0.0873,
      "velocity": 91,
      "chip": "ym2612"
    },
    {
      "channel": 5,
      "note": 68,
      "start": 25.7621,
      "duration": 0.0873,
      "velocity": 127,
      "chip": "ym2612"
    },
    {
      "channel": 1,
      "note": 51,
      "start": 25.8666,
      "duration": 0.0873,
      "velocity": 127,
      "chip": "ym2612"
    },
    {
      "channel": 2,
      "note": 51,
      "start": 25.8667,
      "duration": 0.0873,
      "velocity": 91,
      "chip": "ym2612"
    },
    {
      "channel": 5,
      "note": 33,
      "start": 25.8684,
      "duration": 0.0858,
      "velocity": 127,
      "chip": "ym2612"
    },
    {
      "channel": 1,
      "note": 51,
      "start": 25.9713,
      "duration": 0.1921,
      "velocity": 127,
      "chip": "ym2612"
    },
    {
      "channel": 2,
      "note": 51,
      "start": 25.9715,
      "duration": 0.192,
      "velocity": 91,
      "chip": "ym2612"
    },
    {
      "channel": 5,
      "note": 68,
      "start": 25.9731,
      "duration": 0.0856,
      "velocity": 127,
      "chip": "ym2612"
    },
    {
      "channel": 5,
      "note": 68,
      "start": 26.0776,
      "duration": 0.086,
      "velocity": 127,
      "chip": "ym2612"
    },
    {
      "channel": 1,
      "note": 51,
      "start": 26.1808,
      "duration": 0.0873,
      "velocity": 127,
      "chip": "ym2612"
    },
    {
      "channel": 2,
      "note": 51,
      "start": 26.181,
      "duration": 0.0873,
      "velocity": 91,
      "chip": "ym2612"
    },
    {
      "channel": 3,
      "note": 71,
      "start": 26.1811,
      "duration": 0.5583,
      "velocity": 97,
      "chip": "ym2612"
    },
    {
      "channel": 4,
      "note": 71,
      "start": 26.1813,
      "duration": 0.5582,
      "velocity": 103,
      "chip": "ym2612"
    },
    {
      "channel": 5,
      "note": 68,
      "start": 26.1815,
      "duration": 0.087,
      "velocity": 127,
      "chip": "ym2612"
    },
    {
      "channel": 1,
      "note": 51,
      "start": 26.2855,
      "duration": 0.0873,
      "velocity": 127,
      "chip": "ym2612"
    },
    {
      "channel": 2,
      "note": 51,
      "start": 26.2857,
      "duration": 0.0873,
      "velocity": 91,
      "chip": "ym2612"
    },
    {
      "channel": 5,
      "note": 68,
      "start": 26.2859,
      "duration": 0.0872,
      "velocity": 127,
      "chip": "ym2612"
    },
    {
      "channel": 1,
      "note": 51,
      "start": 26.3903,
      "duration": 0.192,
      "velocity": 127,
      "chip": "ym2612"
    },
    {
      "channel": 2,
      "note": 51,
      "start": 26.3904,
      "duration": 0.192,
      "velocity": 91,
      "chip": "ym2612"
    },
    {
      "channel": 5,
      "note": 33,
      "start": 26.3921,
      "duration": 0.0855,
      "velocity": 127,
      "chip": "ym2612"
    },
    {
      "channel": 5,
      "note": 68,
      "start": 26.4967,
      "duration": 0.0859,
      "velocity": 127,
      "chip": "ym2612"
    },
    {
      "channel": 1,
      "note": 51,
      "start": 26.5998,
      "duration": 0.0873,
      "velocity": 127,
      "chip": "ym2612"
    },
    {
      "channel": 2,
      "note": 51,
      "start": 26.5999,
      "duration": 0.0873,
      "velocity": 91,
      "chip": "ym2612"
    },
    {
      "channel": 5,
      "note": 33,
      "start": 26.6016,
      "duration": 0.0858,
      "velocity": 127,
      "chip": "ym2612"
    },
    {
      "channel": 1,
      "note": 51,
      "start": 26.7044,
      "duration": 0.0873,
      "velocity": 127,
      "chip": "ym2612"
    },
    {
      "channel": 2,
      "note": 51,
      "start": 26.7046,
      "duration": 0.0873,
      "velocity": 91,
      "chip": "ym2612"
    },
    {
      "channel": 5,
      "note": 68,
      "start": 26.7063,
      "duration": 0.0857,
      "velocity": 127,
      "chip": "ym2612"
    },
    {
      "channel": 1,
      "note": 75,
      "start": 26.8108,
      "duration": 0.1905,
      "velocity": 103,
      "chip": "ym2612"
    },
    {
      "channel": 2,
      "note": 63,
      "start": 26.811,
      "duration": 0.1904,
      "velocity": 91,
      "chip": "ym2612"
    },
    {
      "channel": 3,
      "note": 45,
      "start": 26.8126,
      "duration": 0.3632,
      "velocity": 127,
      "chip": "ym2612"
    },
    {
      "channel": 4,
      "note": 66,
      "start": 26.8142,
      "duration": 0.3617,
      "velocity": 105,
      "chip": "ym2612"
    },
    {
      "channel": 5,
      "note": 33,
      "start": 26.8159,
      "duration": 0.3601,
      "velocity": 127,
      "chip": "ym2612"
    },
    {
      "channel": 1,
      "note": 51,
      "start": 27.0207,
      "duration": 0.0853,
      "velocity": 127,
      "chip": "ym2612"
    },
    {
      "channel": 2,
      "note": 51,
      "start": 27.0208,
      "duration": 0.0852,
      "velocity": 91,
      "chip": "ym2612"
    },
    {
      "channel": 1,
      "note": 51,
      "start": 27.1234,
      "duration": 0.0873,
      "velocity": 127,
      "chip": "ym2612"
    },
    {
      "channel": 2,
      "note": 51,
      "start": 27.1235,
      "duration": 0.0873,
      "velocity": 91,
      "chip": "ym2612"
    },
    {
      "channel": 1,
      "note": 52,
      "start": 27.2282,
      "duration": 0.1922,
      "velocity": 127,
      "chip": "ym2612"
    },
    {
      "channel": 2,
      "note": 52,
      "start": 27.2284,
      "duration": 0.1921,
      "velocity": 91,
      "chip": "ym2612"
    },
    {
      "channel": 3,
      "note": 76,
      "start": 27.2301,
      "duration": 0.5571,
      "velocity": 97,
      "chip": "ym2612"
    },
    {
      "channel": 4,
      "note": 76,
      "start": 27.2317,
      "duration": 0.5556,
      "velocity": 103,
      "chip": "ym2612"
    },
    {
      "channel": 5,
      "note": 33,
      "start": 27.2318,
      "duration": 0.0837,
      "velocity": 127,
      "chip": "ym2612"
    },
    {
      "channel": 5,
      "note": 68,
      "start": 27.3344,
      "duration": 0.0863,
      "velocity": 127,
      "chip": "ym2612"
    },
    {
      "channel": 1,
      "note": 52,
      "start": 27.4376,
      "duration": 0.0873,
      "velocity": 127,
      "chip": "ym2612"
    },
    {
      "channel": 2,
      "note": 52,
      "start": 27.4377,
      "duration": 0.0873,
      "velocity": 91,
      "chip": "ym2612"
    },
    {
      "channel": 5,
      "note": 68,
      "start": 27.4379,
      "duration": 0.0873,
      "velocity": 127,
      "chip": "ym2612"
    },
    {
      "channel": 1,
      "note": 52,
      "start": 27.5423,
      "duration": 0.0873,
      "velocity": 127,
      "chip": "ym2612"
    },
    {
      "channel": 2,
      "note": 52,
      "start": 27.5425,
      "duration": 0.0873,
      "velocity": 91,
      "chip": "ym2612"
    },
    {
      "channel": 5,
      "note": 33,
      "start": 27.5442,
      "duration": 0.0857,
      "velocity": 127,
      "chip": "ym2612"
    },
    {
      "channel": 1,
      "note": 52,
      "start": 27.6471,
      "duration": 0.192,
      "velocity": 127,
      "chip": "ym2612"
    },
    {
      "channel": 2,
      "note": 52,
      "start": 27.6472,
      "duration": 0.192,
      "velocity": 91,
      "chip": "ym2612"
    },
    {
      "channel": 5,
      "note": 68,
      "start": 27.6489,
      "duration": 0.0855,
      "velocity": 127,
      "chip": "ym2612"
    },
    {
      "channel": 5,
      "note": 68,
      "start": 27.7537,
      "duration": 0.0856,
      "velocity": 127,
      "chip": "ym2612"
    },
    {
      "channel": 1,
      "note": 52,
      "start": 27.8565,
      "duration": 0.0873,
      "velocity": 127,
      "chip": "ym2612"
    },
    {
      "channel": 2,
      "note": 52,
      "start": 27.8566,
      "duration": 0.0873,
      "velocity": 91,
      "chip": "ym2612"
    },
    {
      "channel": 3,
      "note": 73,
      "start": 27.8568,
      "duration": 0.5583,
      "velocity": 97,
      "chip": "ym2612"
    },
    {
      "channel": 4,
      "note": 73,
      "start": 27.857,
      "duration": 0.5583,
      "velocity": 103,
      "chip": "ym2612"
    },
    {
      "channel": 5,
      "note": 68,
      "start": 27.8572,
      "duration": 0.0869,
      "velocity": 127,
      "chip": "ym2612"
    },
    {
      "channel": 1,
      "note": 52,
      "start": 27.9612,
      "duration": 0.0873,
      "velocity": 127,
      "chip": "ym2612"
    },
    {
      "channel": 2,
      "note": 52,
      "start": 27.9614,
      "duration": 0.0873,
      "velocity": 91,
      "chip": "ym2612"
    },
    {
      "channel": 5,
      "note": 68,
      "start": 27.9615,
      "duration": 0.0873,
      "velocity": 127,
      "chip": "ym2612"
    },
    {
      "channel": 1,
      "note": 52,
      "start": 28.066,
      "duration": 0.192,
      "velocity": 127,
      "chip": "ym2612"
    },
    {
      "channel": 2,
      "note": 52,
      "start": 28.0661,
      "duration": 0.192,
      "velocity": 91,
      "chip": "ym2612"
    },
    {
      "channel": 5,
      "note": 33,
      "start": 28.0678,
      "duration": 0.086,
      "velocity": 127,
      "chip": "ym2612"
    },
    {
      "channel": 5,
      "note": 68,
      "start": 28.1724,
      "duration": 0.0859,
      "velocity": 127,
      "chip": "ym2612"
    },
    {
      "channel": 1,
      "note": 52,
      "start": 28.2755,
      "duration": 0.0873,
      "velocity": 127,
      "chip": "ym2612"
    },
    {
      "channel": 2,
      "note": 52,
      "start": 28.2756,
      "duration": 0.0873,
      "velocity": 91,
      "chip": "ym2612"
    },
    {
      "channel": 5,
      "note": 33,
      "start": 28.2773,
      "duration": 0.0857,
      "velocity": 127,
      "chip": "ym2612"
    },
    {
      "channel": 1,
      "note": 52,
      "start": 28.3802,
      "duration": 0.0872,
      "velocity": 127,
      "chip": "ym2612"
    },
    {
      "channel": 2,
      "note": 52,
      "start": 28.3803,
      "duration": 0.0872,
      "velocity": 91,
      "chip": "ym2612"
    },
    {
      "channel": 5,
      "note": 68,
      "start": 28.382,
      "duration": 0.0857,
      "velocity": 127,
      "chip": "ym2612"
    },
    {
      "channel": 1,
      "note": 76,
      "start": 28.4869,
      "duration": 0.19,
      "velocity": 103,
      "chip": "ym2612"
    },
    {
      "channel": 2,
      "note": 64,
      "start": 28.4871,
      "duration": 0.19,
      "velocity": 91,
      "chip": "ym2612"
    },
    {
      "channel": 3,
      "note": 45,
      "start": 28.4886,
      "duration": 0.3629,
      "velocity": 127,
      "chip": "ym2612"
    },
    {
      "channel": 4,
      "note": 56,
      "start": 28.4903,
      "duration": 0.3613,
      "velocity": 105,
      "chip": "ym2612"
    },
    {
      "channel": 5,
      "note": 33,
      "start": 28.492,
      "duration": 0.3597,
      "velocity": 127,
      "chip": "ym2612"
    },
    {
      "channel": 1,
      "note": 52,
      "start": 28.696,
      "duration": 0.0857,
      "velocity": 127,
      "chip": "ym2612"
    },
    {
      "channel": 2,
      "note": 52,
      "start": 28.6962,
      "duration": 0.0856,
      "velocity": 91,
      "chip": "ym2612"
    },
    {
      "channel": 1,
      "note": 52,
      "start": 28.7991,
      "duration": 0.0873,
      "velocity": 127,
      "chip": "ym2612"
    },
    {
      "channel": 2,
      "note": 52,
      "start": 28.7993,
      "duration": 0.0877,
      "velocity": 91,
      "chip": "ym2612"
    },
    {
      "channel": 1,
      "note": 78,
      "start": 28.9054,
      "duration": 0.1904,
      "velocity": 103,
      "chip": "ym2612"
    },
    {
      "channel": 2,
      "note": 54,
      "start": 28.9056,
      "duration": 0.1903,
      "velocity": 91,
      "chip": "ym2612"
    },
    {
      "channel": 3,
      "note": 45,
      "start": 28.9057,
      "duration": 0.1904,
      "velocity": 127,
      "chip": "ym2612"
    },
    {
      "channel": 4,
      "note": 66,
      "start": 28.9059,
      "duration": 0.1903,
      "velocity": 105,
      "chip": "ym2612"
    },
    {
      "channel": 5,
      "note": 33,
      "start": 28.906,
      "duration": 0.1903,
      "velocity": 127,
      "chip": "ym2612"
    },
    {
      "channel": 1,
      "note": 76,
      "start": 29.1134,
      "duration": 0.1919,
      "velocity": 103,
      "chip": "ym2612"
    },
    {
      "channel": 2,
      "note": 52,
      "start": 29.1136,
      "duration": 0.1918,
      "velocity": 91,
      "chip": "ym2612"
    },
    {
      "channel": 3,
      "note": 45,
      "start": 29.1137,
      "duration": 0.1918,
      "velocity": 127,
      "chip": "ym2612"
    },
    {
      "channel": 4,
      "note": 64,
      "start": 29.1139,
      "duration": 0.1917,
      "velocity": 105,
      "chip": "ym2612"
    },
    {
      "channel": 5,
      "note": 33,
      "start": 29.114,
      "duration": 0.1917,
      "velocity": 127,
      "chip": "ym2612"
    },
    {
      "channel": 1,
      "note": 78,
      "start": 29.3228,
      "duration": 0.192,
      "velocity": 103,
      "chip": "ym2612"
    },
    {
      "channel": 2,
      "note": 54,
      "start": 29.323,
      "duration": 0.1919,
      "velocity": 91,
      "chip": "ym2612"
    },
    {
      "channel": 3,
      "note": 45,
      "start": 29.3231,
      "duration": 0.1919,
      "velocity": 127,
      "chip": "ym2612"
    },
    {
      "channel": 4,
      "note": 66,
      "start": 29.3233,
      "duration": 0.1919,
      "velocity": 105,
      "chip": "ym2612"
    },
    {
      "channel": 5,
      "note": 33,
      "start": 29.3234,
      "duration": 0.1919,
      "velocity": 127,
      "chip": "ym2612"
    },
    {
      "channel": 1,
      "note": 76,
      "start": 29.5324,
      "duration": 0.3665,
      "velocity": 103,
      "chip": "ym2612"
    },
    {
      "channel": 2,
      "note": 52,
      "start": 29.5325,
      "duration": 0.3664,
      "velocity": 91,
      "chip": "ym2612"
    },
    {
      "channel": 3,
      "note": 45,
      "start": 29.5327,
      "duration": 0.3664,
      "velocity": 127,
      "chip": "ym2612"
    },
    {
      "channel": 4,
      "note": 64,
      "start": 29.5329,
      "duration": 0.3663,
      "velocity": 105,
      "chip": "ym2612"
    },
    {
      "channel": 5,
      "note": 33,
      "start": 29.533,
      "duration": 0.3663,
      "velocity": 127,
      "chip": "ym2612"
    },
    {
      "channel": 1,
      "note": 75,
      "start": 29.9512,
      "duration": 0.1919,
      "velocity": 103,
      "chip": "ym2612"
    },
    {
      "channel": 2,
      "note": 51,
      "start": 29.9514,
      "duration": 0.1919,
      "velocity": 91,
      "chip": "ym2612"
    },
    {
      "channel": 3,
      "note": 45,
      "start": 29.9516,
      "duration": 0.1919,
      "velocity": 127,
      "chip": "ym2612"
    },
    {
      "channel": 4,
      "note": 63,
      "start": 29.9517,
      "duration": 0.1918,
      "velocity": 105,
      "chip": "ym2612"
    },
    {
      "channel": 5,
      "note": 61,
      "start": 29.9539,
      "duration": 0.1898,
      "velocity": 127,
      "chip": "ym2612"
    },
    {
      "channel": 1,
      "note": 73,
      "start": 30.1607,
      "duration": 0.3666,
      "velocity": 103,
      "chip": "ym2612"
    },
    {
      "channel": 2,
      "note": 49,
      "start": 30.1609,
      "duration": 0.3665,
      "velocity": 91,
      "chip": "ym2612"
    },
    {
      "channel": 3,
      "note": 45,
      "start": 30.161,
      "duration": 0.3665,
      "velocity": 127,
      "chip": "ym2612"
    },
    {
      "channel": 4,
      "note": 61,
      "start": 30.1612,
      "duration": 0.1915,
      "velocity": 105,
      "chip": "ym2612"
    },
    {
      "channel": 5,
      "note": 57,
      "start": 30.1614,
      "duration": 0.3661,
      "velocity": 127,
      "chip": "ym2612"
    },
    {
      "channel": 1,
      "note": 49,
      "start": 30.5811,
      "duration": 0.1905,
      "velocity": 127,
      "chip": "ym2612"
    },
    {
      "channel": 2,
      "note": 49,
      "start": 30.5813,
      "duration": 0.1905,
      "velocity": 91,
      "chip": "ym2612"
    },
    {
      "channel": 3,
      "note": 73,
      "start": 30.5829,
      "duration": 0.5552,
      "velocity": 97,
      "chip": "ym2612"
    },
    {
      "channel": 4,
      "note": 73,
      "start": 30.5846,
      "duration": 0.5537,
      "velocity": 103,
      "chip": "ym2612"
    },
    {
      "channel": 5,
      "note": 33,
      "start": 30.5862,
      "duration": 0.0807,
      "velocity": 127,
      "chip": "ym2612"
    },
    {
      "channel": 5,
      "note": 68,
      "start": 30.6859,
      "duration": 0.0859,
      "velocity": 127,
      "chip": "ym2612"
    },
    {
      "channel": 1,
      "note": 49,
      "start": 30.789,
      "duration": 0.0873,
      "velocity": 127,
      "chip": "ym2612"
    },
    {
      "channel": 2,
      "note": 49,
      "start": 30.7892,
      "duration": 0.0873,
      "velocity": 91,
      "chip": "ym2612"
    },
    {
      "channel": 5,
      "note": 68,
      "start": 30.7893,
      "duration": 0.0872,
      "velocity": 127,
      "chip": "ym2612"
    },
    {
      "channel": 1,
      "note": 49,
      "start": 30.8938,
      "duration": 0.0873,
      "velocity": 127,
      "chip": "ym2612"
    },
    {
      "channel": 2,
      "note": 49,
      "start": 30.8939,
      "duration": 0.0873,
      "velocity": 91,
      "chip": "ym2612"
    },
    {
      "channel": 5,
      "note": 33,
      "start": 30.8956,
      "duration": 0.0858,
      "velocity": 127,
      "chip": "ym2612"
    },
    {
      "channel": 1,
      "note": 49,
      "start": 30.9985,
      "duration": 0.192,
      "velocity": 127,
      "chip": "ym2612"
    },
    {
      "channel": 2,
      "note": 49,
      "start": 30.9986,
      "duration": 0.192,
      "velocity": 91,
      "chip": "ym2612"
    },
    {
      "channel": 5,
      "note": 68,
      "start": 31.0003,
      "duration": 0.0856,
      "velocity": 127,
      "chip": "ym2612"
    },
    {
      "channel": 5,
      "note": 68,
      "start": 31.1053,
      "duration": 0.0854,
      "velocity": 127,
      "chip": "ym2612"
    },
    {
      "channel": 1,
      "note": 49,
      "start": 31.208,
      "duration": 0.0872,
      "velocity": 127,
      "chip": "ym2612"
    },
    {
      "channel": 2,
      "note": 49,
      "start": 31.2081,
      "duration": 0.0872,
      "velocity": 91,
      "chip": "ym2612"
    },
    {
      "channel": 3,
      "note": 68,
      "start": 31.2083,
      "duration": 0.5583,
      "velocity": 97,
      "chip": "ym2612"
    },
    {
      "channel": 4,
      "note": 68,
      "start": 31.2085,
      "duration": 0.5582,
      "velocity": 103,
      "chip": "ym2612"
    },
    {
      "channel": 5,
      "note": 68,
      "start": 31.2086,
      "duration": 0.0868,
      "velocity": 127,
      "chip": "ym2612"
    },
    {
      "channel": 1,
      "note": 49,
      "start": 31.3127,
      "duration": 0.0873,
      "velocity": 127,
      "chip": "ym2612"
    },
    {
      "channel": 2,
      "note": 49,
      "start": 31.3128,
      "duration": 0.0873,
      "velocity": 91,
      "chip": "ym2612"
    },
    {
      "channel": 5,
      "note": 68,
      "start": 31.313,
      "duration": 0.0872,
      "velocity": 127,
      "chip": "ym2612"
    },
    {
      "channel": 1,
      "note": 49,
      "start": 31.4175,
      "duration": 0.192,
      "velocity": 127,
      "chip": "ym2612"
    },
    {
      "channel": 2,
      "note": 49,
      "start": 31.4176,
      "duration": 0.192,
      "velocity": 91,
      "chip": "ym2612"
    },
    {
      "channel": 5,
      "note": 33,
      "start": 31.4193,
      "duration": 0.0856,
      "velocity": 127,
      "chip": "ym2612"
    },
    {
      "channel": 5,
      "note": 68,
      "start": 31.5238,
      "duration": 0.0859,
      "velocity": 127,
      "chip": "ym2612"
    },
    {
      "channel": 1,
      "note": 49,
      "start": 31.6269,
      "duration": 0.0873,
      "velocity": 127,
      "chip": "ym2612"
    },
    {
      "channel": 2,
      "note": 49,
      "start": 31.627,
      "duration": 0.0873,
      "velocity": 91,
      "chip": "ym2612"
    },
    {
      "channel": 5,
      "note": 33,
      "start": 31.6287,
      "duration": 0.0857,
      "velocity": 127,
      "chip": "ym2612"
    },
    {
      "channel": 1,
      "note": 49,
      "start": 31.7317,
      "duration": 0.0873,
      "velocity": 127,
      "chip": "ym2612"
    },
    {
      "channel": 2,
      "note": 49,
      "start": 31.7318,
      "duration": 0.0873,
      "velocity": 91,
      "chip": "ym2612"
    },
    {
      "channel": 5,
      "note": 68,
      "start": 31.7335,
      "duration": 0.0857,
      "velocity": 127,
      "chip": "ym2612"
    },
    {
      "channel": 1,
      "note": 73,
      "start": 31.8383,
      "duration": 0.1901,
      "velocity": 103,
      "chip": "ym2612"
    },
    {
      "channel": 2,
      "note": 61,
      "start": 31.8385,
      "duration": 0.19,
      "velocity": 91,
      "chip": "ym2612"
    },
    {
      "channel": 3,
      "note": 45,
      "start": 31.8401,
      "duration": 0.3629,
      "velocity": 127,
      "chip": "ym2612"
    },
    {
      "channel": 4,
      "note": 64,
      "start": 31.8417,
      "duration": 0.3615,
      "velocity": 105,
      "chip": "ym2612"
    },
    {
      "channel": 5,
      "note": 33,
      "start": 31.8434,
      "duration": 0.3602,
      "velocity": 127,
      "chip": "ym2612"
    },
    {
      "channel": 1,
      "note": 49,
      "start": 32.0474,
      "duration": 0.0857,
      "velocity": 127,
      "chip": "ym2612"
    },
    {
      "channel": 2,
      "note": 49,
      "start": 32.0476,
      "duration": 0.0857,
      "velocity": 91,
      "chip": "ym2612"
    },
    {
      "channel": 1,
      "note": 49,
      "start": 32.1505,
      "duration": 0.0873,
      "velocity": 127,
      "chip": "ym2612"
    },
    {
      "channel": 2,
      "note": 49,
      "start": 32.1507,
      "duration": 0.0873,
      "velocity": 91,
      "chip": "ym2612"
    },
    {
      "channel": 1,
      "note": 51,
      "start": 32.2553,
      "duration": 0.1919,
      "velocity": 127,
      "chip": "ym2612"
    },
    {
      "channel": 2,
      "note": 51,
      "start": 32.2555,
      "duration": 0.1919,
      "velocity": 91,
      "chip": "ym2612"
    },
    {
      "channel": 3,
      "note": 75,
      "start": 32.2572,
      "duration": 0.5567,
      "velocity": 97,
      "chip": "ym2612"
    },
    {
      "channel": 4,
      "note": 75,
      "start": 32.2588,
      "duration": 0.5552,
      "velocity": 103,
      "chip": "ym2612"
    },
    {
      "channel": 5,
      "note": 33,
      "start": 32.2589,
      "duration": 0.0837,
      "velocity": 127,
      "chip": "ym2612"
    },
    {
      "channel": 5,
      "note": 68,
      "start": 32.3616,
      "duration": 0.0859,
      "velocity": 127,
      "chip": "ym2612"
    },
    {
      "channel": 1,
      "note": 51,
      "start": 32.4648,
      "duration": 0.0872,
      "velocity": 127,
      "chip": "ym2612"
    },
    {
      "channel": 2,
      "note": 51,
      "start": 32.4649,
      "duration": 0.0872,
      "velocity": 91,
      "chip": "ym2612"
    },
    {
      "channel": 5,
      "note": 68,
      "start": 32.4651,
      "duration": 0.0873,
      "velocity": 127,
      "chip": "ym2612"
    },
    {
      "channel": 1,
      "note": 51,
      "start": 32.5695,
      "duration": 0.0872,
      "velocity": 127,
      "chip": "ym2612"
    },
    {
      "channel": 2,
      "note": 51,
      "start": 32.5696,
      "duration": 0.0872,
      "velocity": 91,
      "chip": "ym2612"
    },
    {
      "channel": 5,
      "note": 33,
      "start": 32.5717,
      "duration": 0.0853,
      "velocity": 127,
      "chip": "ym2612"
    },
    {
      "channel": 1,
      "note": 51,
      "start": 32.6742,
      "duration": 0.192,
      "velocity": 127,
      "chip": "ym2612"
    },
    {
      "channel": 2,
      "note": 51,
      "start": 32.6743,
      "duration": 0.192,
      "velocity": 91,
      "chip": "ym2612"
    },
    {
      "channel": 5,
      "note": 68,
      "start": 32.676,
      "duration": 0.0856,
      "velocity": 127,
      "chip": "ym2612"
    },
    {
      "channel": 5,
      "note": 68,
      "start": 32.7805,
      "duration": 0.0859,
      "velocity": 127,
      "chip": "ym2612"
    },
    {
      "channel": 1,
      "note": 51,
      "start": 32.8837,
      "duration": 0.0873,
      "velocity": 127,
      "chip": "ym2612"
    },
    {
      "channel": 2,
      "note": 51,
      "start": 32.8838,
      "duration": 0.0873,
      "velocity": 91,
      "chip": "ym2612"
    },
    {
      "channel": 3,
      "note": 71,
      "start": 32.884,
      "duration": 0.5583,
      "velocity": 97,
      "chip": "ym2612"
    },
    {
      "channel": 4,
      "note": 71,
      "start": 32.8842,
      "duration": 0.5582,
      "velocity": 103,
      "chip": "ym2612"
    },
    {
      "channel": 5,
      "note": 68,
      "start": 32.8843,
      "duration": 0.0869,
      "velocity": 127,
      "chip": "ym2612"
    },
    {
      "channel": 1,
      "note": 51,
      "start": 32.9884,
      "duration": 0.0873,
      "velocity": 127,
      "chip": "ym2612"
    },
    {
      "channel": 2,
      "note": 51,
      "start": 32.9885,
      "duration": 0.0873,
      "velocity": 91,
      "chip": "ym2612"
    },
    {
      "channel": 5,
      "note": 68,
      "start": 32.9886,
      "duration": 0.0873,
      "velocity": 127,
      "chip": "ym2612"
    },
    {
      "channel": 1,
      "note": 51,
      "start": 33.0932,
      "duration": 0.192,
      "velocity": 127,
      "chip": "ym2612"
    },
    {
      "channel": 2,
      "note": 51,
      "start": 33.0933,
      "duration": 0.192,
      "velocity": 91,
      "chip": "ym2612"
    },
    {
      "channel": 5,
      "note": 33,
      "start": 33.0949,
      "duration": 0.0856,
      "velocity": 127,
      "chip": "ym2612"
    },
    {
      "channel": 5,
      "note": 68,
      "start": 33.1995,
      "duration": 0.0859,
      "velocity": 127,
      "chip": "ym2612"
    },
    {
      "channel": 1,
      "note": 51,
      "start": 33.3027,
      "duration": 0.0872,
      "velocity": 127,
      "chip": "ym2612"
    },
    {
      "channel": 2,
      "note": 51,
      "start": 33.3028,
      "duration": 0.0872,
      "velocity": 91,
      "chip": "ym2612"
    },
    {
      "channel": 5,
      "note": 33,
      "start": 33.3048,
      "duration": 0.0853,
      "velocity": 127,
      "chip": "ym2612"
    },
    {
      "channel": 1,
      "note": 51,
      "start": 33.4073,
      "duration": 0.0873,
      "velocity": 127,
      "chip": "ym2612"
    },
    {
      "channel": 2,
      "note": 51,
      "start": 33.4075,
      "duration": 0.0873,
      "velocity": 91,
      "chip": "ym2612"
    },
    {
      "channel": 5,
      "note": 68,
      "start": 33.4091,
      "duration": 0.0858,
      "velocity": 127,
      "chip": "ym2612"
    },
    {
      "channel": 1,
      "note": 75,
      "start": 33.5137,
      "duration": 0.1905,
      "velocity": 103,
      "chip": "ym2612"
    },
    {
      "channel": 2,
      "note": 63,
      "start": 33.5138,
      "duration": 0.1904,
      "velocity": 91,
      "chip": "ym2612"
    },
    {
      "channel": 3,
      "note": 45,
      "start": 33.5154,
      "duration": 0.3632,
      "velocity": 127,
      "chip": "ym2612"
    },
    {
      "channel": 4,
      "note": 66,
      "start": 33.5171,
      "duration": 0.3617,
      "velocity": 105,
      "chip": "ym2612"
    },
    {
      "channel": 5,
      "note": 33,
      "start": 33.5188,
      "duration": 0.36,
      "velocity": 127,
      "chip": "ym2612"
    },
    {
      "channel": 1,
      "note": 51,
      "start": 33.7231,
      "duration": 0.0857,
      "velocity": 127,
      "chip": "ym2612"
    },
    {
      "channel": 2,
      "note": 51,
      "start": 33.7233,
      "duration": 0.0856,
      "velocity": 91,
      "chip": "ym2612"
    },
    {
      "channel": 1,
      "note": 51,
      "start": 33.8262,
      "duration": 0.0873,
      "velocity": 127,
      "chip": "ym2612"
    },
    {
      "channel": 2,
      "note": 51,
      "start": 33.8264,
      "duration": 0.0873,
      "velocity": 91,
      "chip": "ym2612"
    },
    {
      "channel": 1,
      "note": 52,
      "start": 33.9311,
      "duration": 0.1919,
      "velocity": 127,
      "chip": "ym2612"
    },
    {
      "channel": 2,
      "note": 52,
      "start": 33.9313,
      "duration": 0.1919,
      "velocity": 91,
      "chip": "ym2612"
    },
    {
      "channel": 3,
      "note": 76,
      "start": 33.9329,
      "duration": 0.5567,
      "velocity": 97,
      "chip": "ym2612"
    },
    {
      "channel": 4,
      "note": 76,
      "start": 33.9345,
      "duration": 0.5551,
      "velocity": 103,
      "chip": "ym2612"
    },
    {
      "channel": 5,
      "note": 33,
      "start": 33.9346,
      "duration": 0.0837,
      "velocity": 127,
      "chip": "ym2612"
    },
    {
      "channel": 5,
      "note": 68,
      "start": 34.0378,
      "duration": 0.0855,
      "velocity": 127,
      "chip": "ym2612"
    },
    {
      "channel": 1,
      "note": 52,
      "start": 34.1404,
      "duration": 0.0873,
      "velocity": 127,
      "chip": "ym2612"
    },
    {
      "channel": 2,
      "note": 52,
      "start": 34.1406,
      "duration": 0.0873,
      "velocity": 91,
      "chip": "ym2612"
    },
    {
      "channel": 5,
      "note": 68,
      "start": 34.1407,
      "duration": 0.0873,
      "velocity": 127,
      "chip": "ym2612"
    },
    {
      "channel": 1,
      "note": 52,
      "start": 34.2452,
      "duration": 0.0873,
      "velocity": 127,
      "chip": "ym2612"
    },
    {
      "channel": 2,
      "note": 52,
      "start": 34.2453,
      "duration": 0.0873,
      "velocity": 91,
      "chip": "ym2612"
    },
    {
      "channel": 5,
      "note": 33,
      "start": 34.2471,
      "duration": 0.0857,
      "velocity": 127,
      "chip": "ym2612"
    },
    {
      "channel": 1,
      "note": 52,
      "start": 34.35,
      "duration": 0.192,
      "velocity": 127,
      "chip": "ym2612"
    },
    {
      "channel": 2,
      "note": 52,
      "start": 34.3501,
      "duration": 0.192,
      "velocity": 91,
      "chip": "ym2612"
    },
    {
      "channel": 5,
      "note": 68,
      "start": 34.3517,
      "duration": 0.0855,
      "velocity": 127,
      "chip": "ym2612"
    },
    {
      "channel": 5,
      "note": 68,
      "start": 34.4562,
      "duration": 0.086,
      "velocity": 127,
      "chip": "ym2612"
    },
    {
      "channel": 1,
      "note": 52,
      "start": 34.5594,
      "duration": 0.0873,
      "velocity": 127,
      "chip": "ym2612"
    },
    {
      "channel": 2,
      "note": 52,
      "start": 34.5595,
      "duration": 0.0873,
      "velocity": 91,
      "chip": "ym2612"
    },
    {
      "channel": 3,
      "note": 73,
      "start": 34.5597,
      "duration": 0.5583,
      "velocity": 97,
      "chip": "ym2612"
    },
    {
      "channel": 4,
      "note": 73,
      "start": 34.5599,
      "duration": 0.5582,
      "velocity": 103,
      "chip": "ym2612"
    },
    {
      "channel": 5,
      "note": 68,
      "start": 34.56,
      "duration": 0.0869,
      "velocity": 127,
      "chip": "ym2612"
    },
    {
      "channel": 1,
      "note": 52,
      "start": 34.6641,
      "duration": 0.0873,
      "velocity": 127,
      "chip": "ym2612"
    },
    {
      "channel": 2,
      "note": 52,
      "start": 34.6643,
      "duration": 0.0873,
      "velocity": 91,
      "chip": "ym2612"
    },
    {
      "channel": 5,
      "note": 68,
      "start": 34.6644,
      "duration": 0.0873,
      "velocity": 127,
      "chip": "ym2612"
    },
    {
      "channel": 1,
      "note": 52,
      "start": 34.7688,
      "duration": 0.1921,
      "velocity": 127,
      "chip": "ym2612"
    },
    {
      "channel": 2,
      "note": 52,
      "start": 34.7689,
      "duration": 0.192,
      "velocity": 91,
      "chip": "ym2612"
    },
    {
      "channel": 5,
      "note": 33,
      "start": 34.771,
      "duration": 0.0852,
      "velocity": 127,
      "chip": "ym2612"
    },
    {
      "channel": 5,
      "note": 68,
      "start": 34.8752,
      "duration": 0.0859,
      "velocity": 127,
      "chip": "ym2612"
    },
    {
      "channel": 1,
      "note": 52,
      "start": 34.9783,
      "duration": 0.0873,
      "velocity": 127,
      "chip": "ym2612"
    },
    {
      "channel": 2,
      "note": 52,
      "start": 34.9785,
      "duration": 0.0873,
      "velocity": 91,
      "chip": "ym2612"
    },
    {
      "channel": 5,
      "note": 33,
      "start": 34.9801,
      "duration": 0.0857,
      "velocity": 127,
      "chip": "ym2612"
    },
    {
      "channel": 1,
      "note": 52,
      "start": 35.0831,
      "duration": 0.0873,
      "velocity": 127,
      "chip": "ym2612"
    },
    {
      "channel": 2,
      "note": 52,
      "start": 35.0832,
      "duration": 0.0873,
      "velocity": 91,
      "chip": "ym2612"
    },
    {
      "channel": 5,
      "note": 68,
      "start": 35.0848,
      "duration": 0.0859,
      "velocity": 127,
      "chip": "ym2612"
    },
    {
      "channel": 1,
      "note": 76,
      "start": 35.1893,
      "duration": 0.1904,
      "velocity": 103,
      "chip": "ym2612"
    },
    {
      "channel": 2,
      "note": 64,
      "start": 35.1895,
      "duration": 0.1903,
      "velocity": 91,
      "chip": "ym2612"
    },
    {
      "channel": 3,
      "note": 45,
      "start": 35.1911,
      "duration": 0.3632,
      "velocity": 127,
      "chip": "ym2612"
    },
    {
      "channel": 4,
      "note": 56,
      "start": 35.1928,
      "duration": 0.3617,
      "velocity": 105,
      "chip": "ym2612"
    },
    {
      "channel": 5,
      "note": 33,
      "start": 35.1945,
      "duration": 0.3601,
      "velocity": 127,
      "chip": "ym2612"
    },
    {
      "channel": 1,
      "note": 52,
      "start": 35.3988,
      "duration": 0.0857,
      "velocity": 127,
      "chip": "ym2612"
    },
    {
      "channel": 2,
      "note": 52,
      "start": 35.399,
      "duration": 0.0856,
      "velocity": 91,
      "chip": "ym2612"
    },
    {
      "channel": 1,
      "note": 52,
      "start": 35.502,
      "duration": 0.0873,
      "velocity": 127,
      "chip": "ym2612"
    },
    {
      "channel": 2,
      "note": 52,
      "start": 35.5021,
      "duration": 0.0873,
      "velocity": 91,
      "chip": "ym2612"
    },
    {
      "channel": 1,
      "note": 78,
      "start": 35.6083,
      "duration": 0.1904,
      "velocity": 103,
      "chip": "ym2612"
    },
    {
      "channel": 2,
      "note": 54,
      "start": 35.6085,
      "duration": 0.1903,
      "velocity": 91,
      "chip": "ym2612"
    },
    {
      "channel": 3,
      "note": 45,
      "start": 35.6086,
      "duration": 0.1904,
      "velocity": 127,
      "chip": "ym2612"
    },
    {
      "channel": 4,
      "note": 66,
      "start": 35.6088,
      "duration": 0.1903,
      "velocity": 105,
      "chip": "ym2612"
    },
    {
      "channel": 5,
      "note": 33,
      "start": 35.6089,
      "duration": 0.1903,
      "velocity": 127,
      "chip": "ym2612"
    },
    {
      "channel": 1,
      "note": 76,
      "start": 35.8163,
      "duration": 0.1919,
      "velocity": 103,
      "chip": "ym2612"
    },
    {
      "channel": 2,
      "note": 52,
      "start": 35.8164,
      "duration": 0.1919,
      "velocity": 91,
      "chip": "ym2612"
    },
    {
      "channel": 3,
      "note": 45,
      "start": 35.8166,
      "duration": 0.1919,
      "velocity": 127,
      "chip": "ym2612"
    },
    {
      "channel": 4,
      "note": 64,
      "start": 35.8168,
      "duration": 0.1918,
      "velocity": 105,
      "chip": "ym2612"
    },
    {
      "channel": 5,
      "note": 33,
      "start": 35.8169,
      "duration": 0.1918,
      "velocity": 127,
      "chip": "ym2612"
    },
    {
      "channel": 1,
      "note": 78,
      "start": 36.0257,
      "duration": 0.192,
      "velocity": 103,
      "chip": "ym2612"
    },
    {
      "channel": 2,
      "note": 54,
      "start": 36.0259,
      "duration": 0.1919,
      "velocity": 91,
      "chip": "ym2612"
    },
    {
      "channel": 3,
      "note": 45,
      "start": 36.026,
      "duration": 0.1919,
      "velocity": 127,
      "chip": "ym2612"
    },
    {
      "channel": 4,
      "note": 66,
      "start": 36.0262,
      "duration": 0.1919,
      "velocity": 105,
      "chip": "ym2612"
    },
    {
      "channel": 5,
      "note": 33,
      "start": 36.0263,
      "duration": 0.1919,
      "velocity": 127,
      "chip": "ym2612"
    },
    {
      "channel": 1,
      "note": 75,
      "start": 36.2352,
      "duration": 0.3665,
      "velocity": 103,
      "chip": "ym2612"
    },
    {
      "channel": 2,
      "note": 51,
      "start": 36.2354,
      "duration": 0.3664,
      "velocity": 91,
      "chip": "ym2612"
    },
    {
      "channel": 3,
      "note": 45,
      "start": 36.2355,
      "duration": 0.3664,
      "velocity": 127,
      "chip": "ym2612"
    },
    {
      "channel": 4,
      "note": 63,
      "start": 36.2357,
      "duration": 0.3663,
      "velocity": 105,
      "chip": "ym2612"
    },
    {
      "channel": 5,
      "note": 33,
      "start": 36.2359,
      "duration": 0.3663,
      "velocity": 127,
      "chip": "ym2612"
    },
    {
      "channel": 1,
      "note": 76,
      "start": 36.6541,
      "duration": 0.192,
      "velocity": 103,
      "chip": "ym2612"
    },
    {
      "channel": 2,
      "note": 52,
      "start": 36.6543,
      "duration": 0.1919,
      "velocity": 91,
      "chip": "ym2612"
    },
    {
      "channel": 3,
      "note": 45,
      "start": 36.6544,
      "duration": 0.1919,
      "velocity": 127,
      "chip": "ym2612"
    },
    {
      "channel": 4,
      "note": 64,
      "start": 36.6546,
      "duration": 0.1919,
      "velocity": 105,
      "chip": "ym2612"
    },
    {
      "channel": 5,
      "note": 68,
      "start": 36.6563,
      "duration": 0.1903,
      "velocity": 127,
      "chip": "ym2612"
    },
    {
      "channel": 1,
      "note": 78,
      "start": 36.8636,
      "duration": 0.1919,
      "velocity": 103,
      "chip": "ym2612"
    },
    {
      "channel": 2,
      "note": 54,
      "start": 36.8638,
      "duration": 0.1919,
      "velocity": 91,
      "chip": "ym2612"
    },
    {
      "channel": 3,
      "note": 45,
      "start": 36.8639,
      "duration": 0.1919,
      "velocity": 127,
      "chip": "ym2612"
    },
    {
      "channel": 4,
      "note": 66,
      "start": 36.8641,
      "duration": 0.1918,
      "velocity": 105,
      "chip": "ym2612"
    },
    {
      "channel": 5,
      "note": 68,
      "start": 36.8642,
      "duration": 0.1918,
      "velocity": 127,
      "chip": "ym2612"
    },
    {
      "channel": 1,
      "note": 80,
      "start": 37.0731,
      "duration": 0.1919,
      "velocity": 103,
      "chip": "ym2612"
    },
    {
      "channel": 2,
      "note": 56,
      "start": 37.0733,
      "duration": 0.1919,
      "velocity": 91,
      "chip": "ym2612"
    },
    {
      "channel": 3,
      "note": 45,
      "start": 37.0733,
      "duration": 0.1919,
      "velocity": 127,
      "chip": "ym2612"
    },
    {
      "channel": 4,
      "note": 68,
      "start": 37.0735,
      "duration": 0.1919,
      "velocity": 105,
      "chip": "ym2612"
    },
    {
      "channel": 5,
      "note": 68,
      "start": 37.0736,
      "duration": 0.1919,
      "velocity": 127,
      "chip": "ym2612"
    },
    {
      "channel": 1,
      "note": 49,
      "start": 37.284,
      "duration": 0.1904,
      "velocity": 127,
      "chip": "ym2612"
    },
    {
      "channel": 2,
      "note": 54,
      "start": 37.2842,
      "duration": 0.1903,
      "velocity": 91,
      "chip": "ym2612"
    },
    {
      "channel": 3,
      "note": 45,
      "start": 37.2843,
      "duration": 1.4646,
      "velocity": 127,
      "chip": "ym2612"
    },
    {
      "channel": 4,
      "note": 61,
      "start": 37.2845,
      "duration": 1.4646,
      "velocity": 105,
      "chip": "ym2612"
    },
    {
      "channel": 5,
      "note": 33,
      "start": 37.2862,
      "duration": 0.0837,
      "velocity": 127,
      "chip": "ym2612"
    },
    {
      "channel": 5,
      "note": 68,
      "start": 37.3888,
      "duration": 0.0859,
      "velocity": 127,
      "chip": "ym2612"
    },
    {
      "channel": 1,
      "note": 49,
      "start": 37.4919,
      "duration": 0.0873,
      "velocity": 127,
      "chip": "ym2612"
    },
    {
      "channel": 2,
      "note": 49,
      "start": 37.4921,
      "duration": 0.0872,
      "velocity": 91,
      "chip": "ym2612"
    },
    {
      "channel": 5,
      "note": 68,
      "start": 37.4922,
      "duration": 0.0873,
      "velocity": 127,
      "chip": "ym2612"
    },
    {
      "channel": 1,
      "note": 49,
      "start": 37.5967,
      "duration": 0.0872,
      "velocity": 127,
      "chip": "ym2612"
    },
    {
      "channel": 2,
      "note": 49,
      "start": 37.5968,
      "duration": 0.0872,
      "velocity": 91,
      "chip": "ym2612"
    },
    {
      "channel": 5,
      "note": 33,
      "start": 37.5985,
      "duration": 0.0857,
      "velocity": 127,
      "chip": "ym2612"
    },
    {
      "channel": 1,
      "note": 49,
      "start": 37.7014,
      "duration": 0.192,
      "velocity": 127,
      "chip": "ym2612"
    },
    {
      "channel": 2,
      "note": 49,
      "start": 37.7015,
      "duration": 0.192,
      "velocity": 91,
      "chip": "ym2612"
    },
    {
      "channel": 5,
      "note": 68,
      "start": 37.7035,
      "duration": 0.0851,
      "velocity": 127,
      "chip": "ym2612"
    },
    {
      "channel": 5,
      "note": 68,
      "start": 37.8077,
      "duration": 0.0859,
      "velocity": 127,
      "chip": "ym2612"
    },
    {
      "channel": 1,
      "note": 49,
      "start": 37.9109,
      "duration": 0.0873,
      "velocity": 127,
      "chip": "ym2612"
    },
    {
      "channel": 2,
      "note": 49,
      "start": 37.911,
      "duration": 0.0873,
      "velocity": 91,
      "chip": "ym2612"
    },
    {
      "channel": 5,
      "note": 68,
      "start": 37.9111,
      "duration": 0.0873,
      "velocity": 127,
      "chip": "ym2612"
    },
    {
      "channel": 1,
      "note": 49,
      "start": 38.0156,
      "duration": 0.0873,
      "velocity": 127,
      "chip": "ym2612"
    },
    {
      "channel": 2,
      "note": 49,
      "start": 38.0157,
      "duration": 0.0873,
      "velocity": 91,
      "chip": "ym2612"
    },
    {
      "channel": 5,
      "note": 68,
      "start": 38.0158,
      "duration": 0.0873,
      "velocity": 127,
      "chip": "ym2612"
    },
    {
      "channel": 1,
      "note": 49,
      "start": 38.1205,
      "duration": 0.1918,
      "velocity": 127,
      "chip": "ym2612"
    },
    {
      "channel": 2,
      "note": 49,
      "start": 38.1206,
      "duration": 0.1918,
      "velocity": 91,
      "chip": "ym2612"
    },
    {
      "channel": 5,
      "note": 33,
      "start": 38.1223,
      "duration": 0.0853,
      "velocity": 127,
      "chip": "ym2612"
    },
    {
      "channel": 5,
      "note": 68,
      "start": 38.2266,
      "duration": 0.0859,
      "velocity": 127,
      "chip": "ym2612"
    },
    {
      "channel": 1,
      "note": 49,
      "start": 38.3298,
      "duration": 0.0873,
      "velocity": 127,
      "chip": "ym2612"
    },
    {
      "channel": 2,
      "note": 49,
      "start": 38.3299,
      "duration": 0.0873,
      "velocity": 91,
      "chip": "ym2612"
    },
    {
      "channel": 5,
      "note": 33,
      "start": 38.3316,
      "duration": 0.0858,
      "velocity": 127,
      "chip": "ym2612"
    },
    {
      "channel": 1,
      "note": 49,
      "start": 38.4344,
      "duration": 0.0873,
      "velocity": 127,
      "chip": "ym2612"
    },
    {
      "channel": 2,
      "note": 49,
      "start": 38.4346,
      "duration": 0.0873,
      "velocity": 91,
      "chip": "ym2612"
    },
    {
      "channel": 5,
      "note": 68,
      "start": 38.4363,
      "duration": 0.0857,
      "velocity": 127,
      "chip": "ym2612"
    },
    {
      "channel": 1,
      "note": 49,
      "start": 38.5392,
      "duration": 0.192,
      "velocity": 127,
      "chip": "ym2612"
    },
    {
      "channel": 2,
      "note": 49,
      "start": 38.5393,
      "duration": 0.192,
      "velocity": 91,
      "chip": "ym2612"
    },
    {
      "channel": 5,
      "note": 68,
      "start": 38.541,
      "duration": 0.0856,
      "velocity": 127,
      "chip": "ym2612"
    },
    {
      "channel": 5,
      "note": 68,
      "start": 38.6455,
      "duration": 0.086,
      "velocity": 127,
      "chip": "ym2612"
    },
    {
      "channel": 1,
      "note": 49,
      "start": 38.7487,
      "duration": 0.0873,
      "velocity": 127,
      "chip": "ym2612"
    },
    {
      "channel": 2,
      "note": 49,
      "start": 38.7488,
      "duration": 0.0873,
      "velocity": 91,
      "chip": "ym2612"
    },
    {
      "channel": 5,
      "note": 68,
      "start": 38.7492,
      "duration": 0.087,
      "velocity": 127,
      "chip": "ym2612"
    },
    {
      "channel": 1,
      "note": 49,
      "start": 38.8537,
      "duration": 0.087,
      "velocity": 127,
      "chip": "ym2612"
    },
    {
      "channel": 2,
      "note": 49,
      "start": 38.8539,
      "duration": 0.087,
      "velocity": 91,
      "chip": "ym2612"
    },
    {
      "channel": 5,
      "note": 68,
      "start": 38.854,
      "duration": 0.087,
      "velocity": 127,
      "chip": "ym2612"
    },
    {
      "channel": 1,
      "note": 49,
      "start": 38.9581,
      "duration": 0.192,
      "velocity": 127,
      "chip": "ym2612"
    },
    {
      "channel": 2,
      "note": 49,
      "start": 38.9583,
      "duration": 0.192,
      "velocity": 91,
      "chip": "ym2612"
    },
    {
      "channel": 5,
      "note": 68,
      "start": 38.9599,
      "duration": 0.0856,
      "velocity": 127,
      "chip": "ym2612"
    },
    {
      "channel": 5,
      "note": 68,
      "start": 39.0629,
      "duration": 0.0875,
      "velocity": 127,
      "chip": "ym2612"
    },
    {
      "channel": 1,
      "note": 49,
      "start": 39.1676,
      "duration": 0.0873,
      "velocity": 127,
      "chip": "ym2612"
    },
    {
      "channel": 2,
      "note": 49,
      "start": 39.1677,
      "duration": 0.0873,
      "velocity": 91,
      "chip": "ym2612"
    },
    {
      "channel": 5,
      "note": 68,
      "start": 39.1679,
      "duration": 0.0873,
      "velocity": 127,
      "chip": "ym2612"
    },
    {
      "channel": 1,
      "note": 49,
      "start": 39.2724,
      "duration": 0.0873,
      "velocity": 127,
      "chip": "ym2612"
    },
    {
      "channel": 2,
      "note": 49,
      "start": 39.2725,
      "duration": 0.0873,
      "velocity": 91,
      "chip": "ym2612"
    },
    {
      "channel": 5,
      "note": 68,
      "start": 39.2726,
      "duration": 0.0873,
      "velocity": 127,
      "chip": "ym2612"
    },
    {
      "channel": 1,
      "note": 49,
      "start": 39.3771,
      "duration": 0.192,
      "velocity": 127,
      "chip": "ym2612"
    },
    {
      "channel": 2,
      "note": 49,
      "start": 39.3772,
      "duration": 0.192,
      "velocity": 91,
      "chip": "ym2612"
    },
    {
      "channel": 5,
      "note": 68,
      "start": 39.3773,
      "duration": 0.0871,
      "velocity": 127,
      "chip": "ym2612"
    },
    {
      "channel": 5,
      "note": 68,
      "start": 39.4819,
      "duration": 0.0875,
      "velocity": 127,
      "chip": "ym2612"
    },
    {
      "channel": 1,
      "note": 49,
      "start": 39.5871,
      "duration": 0.0867,
      "velocity": 127,
      "chip": "ym2612"
    },
    {
      "channel": 2,
      "note": 49,
      "start": 39.5872,
      "duration": 0.0867,
      "velocity": 91,
      "chip": "ym2612"
    },
    {
      "channel": 5,
      "note": 68,
      "start": 39.5874,
      "duration": 0.0867,
      "velocity": 127,
      "chip": "ym2612"
    },
    {
      "channel": 1,
      "note": 49,
      "start": 39.6913,
      "duration": 0.0873,
      "velocity": 127,
      "chip": "ym2612"
    },
    {
      "channel": 2,
      "note": 49,
      "start": 39.6914,
      "duration": 0.0873,
      "velocity": 91,
      "chip": "ym2612"
    },
    {
      "channel": 5,
      "note": 68,
      "start": 39.6915,
      "duration": 0.0873,
      "velocity": 127,
      "chip": "ym2612"
    },
    {
      "channel": 1,
      "note": 49,
      "start": 39.796,
      "duration": 0.192,
      "velocity": 127,
      "chip": "ym2612"
    },
    {
      "channel": 2,
      "note": 49,
      "start": 39.7962,
      "duration": 0.192,
      "velocity": 91,
      "chip": "ym2612"
    },
    {
      "channel": 5,
      "note": 68,
      "start": 39.7963,
      "duration": 0.087,
      "velocity": 127,
      "chip": "ym2612"
    },
    {
      "channel": 5,
      "note": 68,
      "start": 39.9008,
      "duration": 0.0875,
      "velocity": 127,
      "chip": "ym2612"
    },
    {
      "channel": 1,
      "note": 49,
      "start": 40.0055,
      "duration": 0.0872,
      "velocity": 127,
      "chip": "ym2612"
    },
    {
      "channel": 2,
      "note": 49,
      "start": 40.0056,
      "duration": 0.0872,
      "velocity": 91,
      "chip": "ym2612"
    },
    {
      "channel": 5,
      "note": 68,
      "start": 40.0058,
      "duration": 0.0873,
      "velocity": 127,
      "chip": "ym2612"
    },
    {
      "channel": 1,
      "note": 49,
      "start": 40.1102,
      "duration": 0.0873,
      "velocity": 127,
      "chip": "ym2612"
    },
    {
      "channel": 2,
      "note": 49,
      "start": 40.1103,
      "duration": 0.0873,
      "velocity": 91,
      "chip": "ym2612"
    },
    {
      "channel": 5,
      "note": 68,
      "start": 40.1105,
      "duration": 0.0873,
      "velocity": 127,
      "chip": "ym2612"
    },
    {
      "channel": 1,
      "note": 73,
      "start": 40.2165,
      "duration": 0.1904,
      "velocity": 103,
      "chip": "ym2612"
    },
    {
      "channel": 2,
      "note": 49,
      "start": 40.2166,
      "duration": 0.1904,
      "velocity": 91,
      "chip": "ym2612"
    },
    {
      "channel": 3,
      "note": 45,
      "start": 40.2168,
      "duration": 0.1904,
      "velocity": 127,
      "chip": "ym2612"
    },
    {
      "channel": 4,
      "note": 61,
      "start": 40.2169,
      "duration": 0.1904,
      "velocity": 105,
      "chip": "ym2612"
    },
    {
      "channel": 5,
      "note": 33,
      "start": 40.2185,
      "duration": 0.1889,
      "velocity": 127,
      "chip": "ym2612"
    },
    {
      "channel": 1,
      "note": 76,
      "start": 40.4245,
      "duration": 0.187,
      "velocity": 103,
      "chip": "ym2612"
    },
    {
      "channel": 2,
      "note": 52,
      "start": 40.4246,
      "duration": 0.1868,
      "velocity": 91,
      "chip": "ym2612"
    },
    {
      "channel": 3,
      "note": 45,
      "start": 40.4248,
      "duration": 0.1866,
      "velocity": 127,
      "chip": "ym2612"
    },
    {
      "channel": 4,
      "note": 64,
      "start": 40.425,
      "duration": 0.1865,
      "velocity": 105,
      "chip": "ym2612"
    },
    {
      "channel": 5,
      "note": 33,
      "start": 40.4251,
      "duration": 0.1863,
      "velocity": 127,
      "chip": "ym2612"
    }
  ]
}