{
  "track_name": "08 - Ha-Ha Carnival - Magnet Launched Cutscene",
  "duration_sec": 190.079,
  "sample_rate": 44100,
  "note_count": 3964,
  "unique_pitches": 50,
  "pitch_range": 76,
  "avg_note_duration": 0.1586,
  "reconstruction_stats": {
    "notes_reconstructed": 3964,
    "keyon_events": 3964,
    "keyoff_events": 3964,
    "orphan_keyons": 0,
    "unique_pitches": 50,
    "pitch_range": 76,
    "avg_duration_sec": 0.1586
  },
  "metadata": {
    "source": "S\\Scooby-Doo Mystery\\08 - Ha-Ha Carnival - Magnet Launched Cutscene.vgz"
  },
  "notes": [
    {
      "channel": 3,
      "note": 59,
      "start": 0.1128,
      "duration": 0.1218,
      "velocity": 98,
      "chip": "ym2612"
    },
    {
      "channel": 0,
      "note": 43,
      "start": 0.1287,
      "duration": 0.1406,
      "velocity": 106,
      "chip": "ym2612"
    },
    {
      "channel": 3,
      "note": 71,
      "start": 0.2736,
      "duration": 0.0944,
      "velocity": 98,
      "chip": "ym2612"
    },
    {
      "channel": 0,
      "note": 43,
      "start": 0.2774,
      "duration": 0.0753,
      "velocity": 106,
      "chip": "ym2612"
    },
    {
      "channel": 0,
      "note": 43,
      "start": 0.3567,
      "duration": 0.0457,
      "velocity": 106,
      "chip": "ym2612"
    },
    {
      "channel": 3,
      "note": 61,
      "start": 0.44,
      "duration": 0.1283,
      "velocity": 98,
      "chip": "ym2612"
    },
    {
      "channel": 0,
      "note": 36,
      "start": 0.4434,
      "duration": 0.1415,
      "velocity": 106,
      "chip": "ym2612"
    },
    {
      "channel": 3,
      "note": 73,
      "start": 0.5886,
      "duration": 0.13,
      "velocity": 98,
      "chip": "ym2612"
    },
    {
      "channel": 0,
      "note": 36,
      "start": 0.5921,
      "duration": 0.0429,
      "velocity": 106,
      "chip": "ym2612"
    },
    {
      "channel": 0,
      "note": 36,
      "start": 0.6722,
      "duration": 0.0796,
      "velocity": 106,
      "chip": "ym2612"
    },
    {
      "channel": 3,
      "note": 62,
      "start": 0.7555,
      "duration": 0.1298,
      "velocity": 98,
      "chip": "ym2612"
    },
    {
      "channel": 0,
      "note": 43,
      "start": 0.759,
      "duration": 0.143,
      "velocity": 106,
      "chip": "ym2612"
    },
    {
      "channel": 3,
      "note": 74,
      "start": 0.9058,
      "duration": 0.1146,
      "velocity": 98,
      "chip": "ym2612"
    },
    {
      "channel": 0,
      "note": 43,
      "start": 0.909,
      "duration": 0.1599,
      "velocity": 106,
      "chip": "ym2612"
    },
    {
      "channel": 3,
      "note": 61,
      "start": 1.0727,
      "duration": 0.1298,
      "velocity": 98,
      "chip": "ym2612"
    },
    {
      "channel": 0,
      "note": 36,
      "start": 1.0762,
      "duration": 0.1596,
      "velocity": 106,
      "chip": "ym2612"
    },
    {
      "channel": 3,
      "note": 73,
      "start": 1.2396,
      "duration": 0.0963,
      "velocity": 98,
      "chip": "ym2612"
    },
    {
      "channel": 0,
      "note": 36,
      "start": 1.2428,
      "duration": 0.1431,
      "velocity": 106,
      "chip": "ym2612"
    },
    {
      "channel": 3,
      "note": 59,
      "start": 1.3898,
      "duration": 0.1314,
      "velocity": 98,
      "chip": "ym2612"
    },
    {
      "channel": 0,
      "note": 43,
      "start": 1.3929,
      "duration": 0.1599,
      "velocity": 106,
      "chip": "ym2612"
    },
    {
      "channel": 3,
      "note": 71,
      "start": 1.5566,
      "duration": 0.0965,
      "velocity": 98,
      "chip": "ym2612"
    },
    {
      "channel": 0,
      "note": 43,
      "start": 1.5601,
      "duration": 0.0761,
      "velocity": 106,
      "chip": "ym2612"
    },
    {
      "channel": 0,
      "note": 43,
      "start": 1.6402,
      "duration": 0.0476,
      "velocity": 106,
      "chip": "ym2612"
    },
    {
      "channel": 3,
      "note": 57,
      "start": 1.7066,
      "duration": 0.1134,
      "velocity": 98,
      "chip": "ym2612"
    },
    {
      "channel": 0,
      "note": 36,
      "start": 1.71,
      "duration": 0.1599,
      "velocity": 106,
      "chip": "ym2612"
    },
    {
      "channel": 3,
      "note": 69,
      "start": 1.874,
      "duration": 0.0962,
      "velocity": 98,
      "chip": "ym2612"
    },
    {
      "channel": 0,
      "note": 36,
      "start": 1.8774,
      "duration": 0.0425,
      "velocity": 106,
      "chip": "ym2612"
    },
    {
      "channel": 0,
      "note": 36,
      "start": 1.9571,
      "duration": 0.0463,
      "velocity": 106,
      "chip": "ym2612"
    },
    {
      "channel": 3,
      "note": 55,
      "start": 2.0404,
      "duration": 0.0967,
      "velocity": 98,
      "chip": "ym2612"
    },
    {
      "channel": 0,
      "note": 43,
      "start": 2.0442,
      "duration": 0.0608,
      "velocity": 106,
      "chip": "ym2612"
    },
    {
      "channel": 3,
      "note": 67,
      "start": 2.1923,
      "duration": 0.1284,
      "velocity": 98,
      "chip": "ym2612"
    },
    {
      "channel": 0,
      "note": 43,
      "start": 2.1956,
      "duration": 0.0763,
      "velocity": 106,
      "chip": "ym2612"
    },
    {
      "channel": 0,
      "note": 43,
      "start": 2.2758,
      "duration": 0.0446,
      "velocity": 106,
      "chip": "ym2612"
    },
    {
      "channel": 3,
      "note": 54,
      "start": 2.3591,
      "duration": 0.095,
      "velocity": 98,
      "chip": "ym2612"
    },
    {
      "channel": 0,
      "note": 36,
      "start": 2.3624,
      "duration": 0.0415,
      "velocity": 106,
      "chip": "ym2612"
    },
    {
      "channel": 3,
      "note": 66,
      "start": 2.5078,
      "duration": 0.13,
      "velocity": 98,
      "chip": "ym2612"
    },
    {
      "channel": 0,
      "note": 36,
      "start": 2.511,
      "duration": 0.0598,
      "velocity": 106,
      "chip": "ym2612"
    },
    {
      "channel": 3,
      "note": 59,
      "start": 2.6745,
      "duration": 0.1302,
      "velocity": 98,
      "chip": "ym2612"
    },
    {
      "channel": 0,
      "note": 36,
      "start": 2.6781,
      "duration": 0.0763,
      "velocity": 106,
      "chip": "ym2612"
    },
    {
      "channel": 1,
      "note": 37,
      "start": 2.6834,
      "duration": 0.2213,
      "velocity": 124,
      "chip": "ym2612"
    },
    {
      "channel": 3,
      "note": 71,
      "start": 2.8416,
      "duration": 0.098,
      "velocity": 98,
      "chip": "ym2612"
    },
    {
      "channel": 3,
      "note": 61,
      "start": 2.9918,
      "duration": 0.1298,
      "velocity": 98,
      "chip": "ym2612"
    },
    {
      "channel": 1,
      "note": 37,
      "start": 2.9956,
      "duration": 0.2429,
      "velocity": 124,
      "chip": "ym2612"
    },
    {
      "channel": 3,
      "note": 73,
      "start": 3.1587,
      "duration": 0.0964,
      "velocity": 98,
      "chip": "ym2612"
    },
    {
      "channel": 3,
      "note": 62,
      "start": 3.3092,
      "duration": 0.131,
      "velocity": 98,
      "chip": "ym2612"
    },
    {
      "channel": 1,
      "note": 37,
      "start": 3.3129,
      "duration": 0.2426,
      "velocity": 124,
      "chip": "ym2612"
    },
    {
      "channel": 3,
      "note": 74,
      "start": 3.4758,
      "duration": 0.0964,
      "velocity": 98,
      "chip": "ym2612"
    },
    {
      "channel": 3,
      "note": 64,
      "start": 3.6426,
      "duration": 0.1313,
      "velocity": 98,
      "chip": "ym2612"
    },
    {
      "channel": 1,
      "note": 37,
      "start": 3.6464,
      "duration": 0.2261,
      "velocity": 124,
      "chip": "ym2612"
    },
    {
      "channel": 3,
      "note": 76,
      "start": 3.7927,
      "duration": 0.1133,
      "velocity": 98,
      "chip": "ym2612"
    },
    {
      "channel": 3,
      "note": 77,
      "start": 3.9596,
      "duration": 0.0966,
      "velocity": 98,
      "chip": "ym2612"
    },
    {
      "channel": 1,
      "note": 37,
      "start": 3.9641,
      "duration": 0.2271,
      "velocity": 124,
      "chip": "ym2612"
    },
    {
      "channel": 3,
      "note": 65,
      "start": 4.1115,
      "duration": 0.0799,
      "velocity": 98,
      "chip": "ym2612"
    },
    {
      "channel": 3,
      "note": 53,
      "start": 4.2783,
      "duration": 0.095,
      "velocity": 98,
      "chip": "ym2612"
    },
    {
      "channel": 1,
      "note": 37,
      "start": 4.2821,
      "duration": 0.2246,
      "velocity": 124,
      "chip": "ym2612"
    },
    {
      "channel": 3,
      "note": 65,
      "start": 4.445,
      "duration": 0.0951,
      "velocity": 98,
      "chip": "ym2612"
    },
    {
      "channel": 3,
      "note": 77,
      "start": 4.5937,
      "duration": 0.1132,
      "velocity": 98,
      "chip": "ym2612"
    },
    {
      "channel": 1,
      "note": 37,
      "start": 4.5975,
      "duration": 0.243,
      "velocity": 124,
      "chip": "ym2612"
    },
    {
      "channel": 3,
      "note": 65,
      "start": 4.7606,
      "duration": 0.098,
      "velocity": 98,
      "chip": "ym2612"
    },
    {
      "channel": 3,
      "note": 53,
      "start": 4.9108,
      "duration": 0.1148,
      "velocity": 98,
      "chip": "ym2612"
    },
    {
      "channel": 1,
      "note": 37,
      "start": 4.9146,
      "duration": 0.2429,
      "velocity": 124,
      "chip": "ym2612"
    },
    {
      "channel": 3,
      "note": 65,
      "start": 5.078,
      "duration": 0.0963,
      "velocity": 98,
      "chip": "ym2612"
    },
    {
      "channel": 3,
      "note": 59,
      "start": 5.2446,
      "duration": 0.13,
      "velocity": 98,
      "chip": "ym2612"
    },
    {
      "channel": 1,
      "note": 37,
      "start": 5.2499,
      "duration": 0.2248,
      "velocity": 124,
      "chip": "ym2612"
    },
    {
      "channel": 3,
      "note": 71,
      "start": 5.395,
      "duration": 0.1132,
      "velocity": 98,
      "chip": "ym2612"
    },
    {
      "channel": 3,
      "note": 61,
      "start": 5.5618,
      "duration": 0.1313,
      "velocity": 98,
      "chip": "ym2612"
    },
    {
      "channel": 1,
      "note": 37,
      "start": 5.5656,
      "duration": 0.2272,
      "velocity": 124,
      "chip": "ym2612"
    },
    {
      "channel": 3,
      "note": 73,
      "start": 5.7117,
      "duration": 0.13,
      "velocity": 98,
      "chip": "ym2612"
    },
    {
      "channel": 3,
      "note": 62,
      "start": 5.8788,
      "duration": 0.13,
      "velocity": 98,
      "chip": "ym2612"
    },
    {
      "channel": 1,
      "note": 37,
      "start": 5.8825,
      "duration": 0.2277,
      "velocity": 124,
      "chip": "ym2612"
    },
    {
      "channel": 3,
      "note": 74,
      "start": 6.0457,
      "duration": 0.0965,
      "velocity": 98,
      "chip": "ym2612"
    },
    {
      "channel": 3,
      "note": 61,
      "start": 6.1974,
      "duration": 0.1283,
      "velocity": 98,
      "chip": "ym2612"
    },
    {
      "channel": 1,
      "note": 37,
      "start": 6.2012,
      "duration": 0.2429,
      "velocity": 124,
      "chip": "ym2612"
    },
    {
      "channel": 3,
      "note": 73,
      "start": 6.3643,
      "duration": 0.0949,
      "velocity": 98,
      "chip": "ym2612"
    },
    {
      "channel": 3,
      "note": 59,
      "start": 6.5133,
      "duration": 0.1296,
      "velocity": 98,
      "chip": "ym2612"
    },
    {
      "channel": 1,
      "note": 37,
      "start": 6.5171,
      "duration": 0.2426,
      "velocity": 124,
      "chip": "ym2612"
    },
    {
      "channel": 3,
      "note": 71,
      "start": 6.6799,
      "duration": 0.0979,
      "velocity": 98,
      "chip": "ym2612"
    },
    {
      "channel": 3,
      "note": 57,
      "start": 6.8466,
      "duration": 0.0982,
      "velocity": 98,
      "chip": "ym2612"
    },
    {
      "channel": 1,
      "note": 37,
      "start": 6.8503,
      "duration": 0.2264,
      "velocity": 124,
      "chip": "ym2612"
    },
    {
      "channel": 3,
      "note": 69,
      "start": 6.9968,
      "duration": 0.1148,
      "velocity": 98,
      "chip": "ym2612"
    },
    {
      "channel": 3,
      "note": 55,
      "start": 7.1636,
      "duration": 0.0967,
      "velocity": 98,
      "chip": "ym2612"
    },
    {
      "channel": 1,
      "note": 37,
      "start": 7.1674,
      "duration": 0.2264,
      "velocity": 124,
      "chip": "ym2612"
    },
    {
      "channel": 3,
      "note": 67,
      "start": 7.314,
      "duration": 0.1313,
      "velocity": 98,
      "chip": "ym2612"
    },
    {
      "channel": 3,
      "note": 54,
      "start": 7.4809,
      "duration": 0.0965,
      "velocity": 98,
      "chip": "ym2612"
    },
    {
      "channel": 1,
      "note": 37,
      "start": 7.4846,
      "duration": 0.2262,
      "velocity": 124,
      "chip": "ym2612"
    },
    {
      "channel": 3,
      "note": 66,
      "start": 7.6478,
      "duration": 0.1314,
      "velocity": 98,
      "chip": "ym2612"
    },
    {
      "channel": 3,
      "note": 59,
      "start": 7.7978,
      "duration": 0.1299,
      "velocity": 98,
      "chip": "ym2612"
    },
    {
      "channel": 1,
      "note": 37,
      "start": 7.802,
      "duration": 0.2426,
      "velocity": 124,
      "chip": "ym2612"
    },
    {
      "channel": 3,
      "note": 71,
      "start": 7.9648,
      "duration": 0.0965,
      "velocity": 98,
      "chip": "ym2612"
    },
    {
      "channel": 3,
      "note": 61,
      "start": 8.117,
      "duration": 0.128,
      "velocity": 98,
      "chip": "ym2612"
    },
    {
      "channel": 1,
      "note": 37,
      "start": 8.1207,
      "duration": 0.2424,
      "velocity": 124,
      "chip": "ym2612"
    },
    {
      "channel": 3,
      "note": 73,
      "start": 8.2834,
      "duration": 0.095,
      "velocity": 98,
      "chip": "ym2612"
    },
    {
      "channel": 3,
      "note": 62,
      "start": 8.4503,
      "duration": 0.1284,
      "velocity": 98,
      "chip": "ym2612"
    },
    {
      "channel": 1,
      "note": 37,
      "start": 8.454,
      "duration": 0.2247,
      "velocity": 124,
      "chip": "ym2612"
    },
    {
      "channel": 3,
      "note": 74,
      "start": 8.599,
      "duration": 0.1131,
      "velocity": 98,
      "chip": "ym2612"
    },
    {
      "channel": 3,
      "note": 64,
      "start": 8.7659,
      "duration": 0.13,
      "velocity": 98,
      "chip": "ym2612"
    },
    {
      "channel": 1,
      "note": 37,
      "start": 8.7696,
      "duration": 0.2272,
      "velocity": 124,
      "chip": "ym2612"
    },
    {
      "channel": 3,
      "note": 76,
      "start": 8.9161,
      "duration": 0.1146,
      "velocity": 98,
      "chip": "ym2612"
    },
    {
      "channel": 3,
      "note": 77,
      "start": 9.0828,
      "duration": 0.0966,
      "velocity": 98,
      "chip": "ym2612"
    },
    {
      "channel": 1,
      "note": 37,
      "start": 9.0866,
      "duration": 0.2262,
      "velocity": 124,
      "chip": "ym2612"
    },
    {
      "channel": 3,
      "note": 65,
      "start": 9.2498,
      "duration": 0.0631,
      "velocity": 98,
      "chip": "ym2612"
    },
    {
      "channel": 3,
      "note": 53,
      "start": 9.4,
      "duration": 0.1132,
      "velocity": 98,
      "chip": "ym2612"
    },
    {
      "channel": 1,
      "note": 37,
      "start": 9.4038,
      "duration": 0.2428,
      "velocity": 124,
      "chip": "ym2612"
    },
    {
      "channel": 3,
      "note": 65,
      "start": 9.5672,
      "duration": 0.0962,
      "velocity": 98,
      "chip": "ym2612"
    },
    {
      "channel": 3,
      "note": 78,
      "start": 9.7169,
      "duration": 0.1133,
      "velocity": 98,
      "chip": "ym2612"
    },
    {
      "channel": 1,
      "note": 37,
      "start": 9.7207,
      "duration": 0.2429,
      "velocity": 124,
      "chip": "ym2612"
    },
    {
      "channel": 3,
      "note": 66,
      "start": 9.8838,
      "duration": 0.0966,
      "velocity": 98,
      "chip": "ym2612"
    },
    {
      "channel": 3,
      "note": 54,
      "start": 10.0507,
      "duration": 0.0967,
      "velocity": 98,
      "chip": "ym2612"
    },
    {
      "channel": 1,
      "note": 37,
      "start": 10.0545,
      "duration": 0.2278,
      "velocity": 124,
      "chip": "ym2612"
    },
    {
      "channel": 3,
      "note": 66,
      "start": 10.2024,
      "duration": 0.1121,
      "velocity": 98,
      "chip": "ym2612"
    },
    {
      "channel": 3,
      "note": 64,
      "start": 10.3694,
      "duration": 0.095,
      "velocity": 98,
      "chip": "ym2612"
    },
    {
      "channel": 2,
      "note": 39,
      "start": 10.3732,
      "duration": 0.1247,
      "velocity": 116,
      "chip": "ym2612"
    },
    {
      "channel": 1,
      "note": 37,
      "start": 10.3763,
      "duration": 0.2216,
      "velocity": 124,
      "chip": "ym2612"
    },
    {
      "channel": 3,
      "note": 64,
      "start": 10.5182,
      "duration": 0.1131,
      "velocity": 98,
      "chip": "ym2612"
    },
    {
      "channel": 0,
      "note": 52,
      "start": 10.522,
      "duration": 0.1091,
      "velocity": 127,
      "chip": "ym2612"
    },
    {
      "channel": 4,
      "note": 64,
      "start": 10.5256,
      "duration": 0.1058,
      "velocity": 104,
      "chip": "ym2612"
    },
    {
      "channel": 5,
      "note": 55,
      "start": 10.5293,
      "duration": 0.1188,
      "velocity": 120,
      "chip": "ym2612"
    },
    {
      "channel": 0,
      "note": 50,
      "start": 10.6846,
      "duration": 0.0984,
      "velocity": 127,
      "chip": "ym2612"
    },
    {
      "channel": 4,
      "note": 62,
      "start": 10.6883,
      "duration": 0.095,
      "velocity": 104,
      "chip": "ym2612"
    },
    {
      "channel": 2,
      "note": 39,
      "start": 10.6919,
      "duration": 0.1231,
      "velocity": 116,
      "chip": "ym2612"
    },
    {
      "channel": 1,
      "note": 37,
      "start": 10.6961,
      "duration": 0.219,
      "velocity": 124,
      "chip": "ym2612"
    },
    {
      "channel": 3,
      "note": 64,
      "start": 10.852,
      "duration": 0.098,
      "velocity": 98,
      "chip": "ym2612"
    },
    {
      "channel": 0,
      "note": 52,
      "start": 10.8548,
      "duration": 0.095,
      "velocity": 127,
      "chip": "ym2612"
    },
    {
      "channel": 4,
      "note": 64,
      "start": 10.858,
      "duration": 0.0922,
      "velocity": 104,
      "chip": "ym2612"
    },
    {
      "channel": 5,
      "note": 55,
      "start": 10.8617,
      "duration": 0.1202,
      "velocity": 120,
      "chip": "ym2612"
    },
    {
      "channel": 3,
      "note": 62,
      "start": 11.002,
      "duration": 0.0799,
      "velocity": 98,
      "chip": "ym2612"
    },
    {
      "channel": 0,
      "note": 50,
      "start": 11.005,
      "duration": 0.0767,
      "velocity": 127,
      "chip": "ym2612"
    },
    {
      "channel": 4,
      "note": 62,
      "start": 11.0084,
      "duration": 0.0737,
      "velocity": 104,
      "chip": "ym2612"
    },
    {
      "channel": 2,
      "note": 39,
      "start": 11.0117,
      "duration": 0.1205,
      "velocity": 116,
      "chip": "ym2612"
    },
    {
      "channel": 1,
      "note": 37,
      "start": 11.0148,
      "duration": 0.2339,
      "velocity": 124,
      "chip": "ym2612"
    },
    {
      "channel": 3,
      "note": 62,
      "start": 11.1691,
      "duration": 0.0963,
      "velocity": 98,
      "chip": "ym2612"
    },
    {
      "channel": 0,
      "note": 50,
      "start": 11.1721,
      "duration": 0.0932,
      "velocity": 127,
      "chip": "ym2612"
    },
    {
      "channel": 4,
      "note": 62,
      "start": 11.1755,
      "duration": 0.0901,
      "velocity": 104,
      "chip": "ym2612"
    },
    {
      "channel": 5,
      "note": 55,
      "start": 11.1787,
      "duration": 0.1202,
      "velocity": 120,
      "chip": "ym2612"
    },
    {
      "channel": 0,
      "note": 52,
      "start": 11.3191,
      "duration": 0.2467,
      "velocity": 127,
      "chip": "ym2612"
    },
    {
      "channel": 4,
      "note": 64,
      "start": 11.3226,
      "duration": 0.2435,
      "velocity": 104,
      "chip": "ym2612"
    },
    {
      "channel": 2,
      "note": 39,
      "start": 11.3259,
      "duration": 0.1248,
      "velocity": 116,
      "chip": "ym2612"
    },
    {
      "channel": 1,
      "note": 37,
      "start": 11.329,
      "duration": 0.2369,
      "velocity": 124,
      "chip": "ym2612"
    },
    {
      "channel": 5,
      "note": 55,
      "start": 11.4866,
      "duration": 0.1309,
      "velocity": 120,
      "chip": "ym2612"
    },
    {
      "channel": 3,
      "note": 64,
      "start": 11.6533,
      "duration": 0.0962,
      "velocity": 98,
      "chip": "ym2612"
    },
    {
      "channel": 0,
      "note": 52,
      "start": 11.6565,
      "duration": 0.0929,
      "velocity": 127,
      "chip": "ym2612"
    },
    {
      "channel": 4,
      "note": 64,
      "start": 11.66,
      "duration": 0.0897,
      "velocity": 104,
      "chip": "ym2612"
    },
    {
      "channel": 2,
      "note": 39,
      "start": 11.6634,
      "duration": 0.121,
      "velocity": 116,
      "chip": "ym2612"
    },
    {
      "channel": 1,
      "note": 37,
      "start": 11.6666,
      "duration": 0.2163,
      "velocity": 124,
      "chip": "ym2612"
    },
    {
      "channel": 3,
      "note": 64,
      "start": 11.8033,
      "duration": 0.1308,
      "velocity": 98,
      "chip": "ym2612"
    },
    {
      "channel": 0,
      "note": 52,
      "start": 11.8063,
      "duration": 0.1275,
      "velocity": 127,
      "chip": "ym2612"
    },
    {
      "channel": 4,
      "note": 64,
      "start": 11.8097,
      "duration": 0.1246,
      "velocity": 104,
      "chip": "ym2612"
    },
    {
      "channel": 2,
      "note": 39,
      "start": 11.8131,
      "duration": 0.1214,
      "velocity": 116,
      "chip": "ym2612"
    },
    {
      "channel": 0,
      "note": 50,
      "start": 11.9701,
      "duration": 0.0962,
      "velocity": 127,
      "chip": "ym2612"
    },
    {
      "channel": 4,
      "note": 62,
      "start": 11.9735,
      "duration": 0.0931,
      "velocity": 104,
      "chip": "ym2612"
    },
    {
      "channel": 5,
      "note": 85,
      "start": 11.9774,
      "duration": 0.1226,
      "velocity": 127,
      "chip": "ym2612"
    },
    {
      "channel": 1,
      "note": 37,
      "start": 11.9804,
      "duration": 0.2211,
      "velocity": 124,
      "chip": "ym2612"
    },
    {
      "channel": 3,
      "note": 64,
      "start": 12.1218,
      "duration": 0.1116,
      "velocity": 98,
      "chip": "ym2612"
    },
    {
      "channel": 0,
      "note": 52,
      "start": 12.1246,
      "duration": 0.1086,
      "velocity": 127,
      "chip": "ym2612"
    },
    {
      "channel": 4,
      "note": 64,
      "start": 12.1282,
      "duration": 0.1054,
      "velocity": 104,
      "chip": "ym2612"
    },
    {
      "channel": 2,
      "note": 39,
      "start": 12.1315,
      "duration": 0.1188,
      "velocity": 116,
      "chip": "ym2612"
    },
    {
      "channel": 3,
      "note": 62,
      "start": 12.2885,
      "duration": 0.0952,
      "velocity": 98,
      "chip": "ym2612"
    },
    {
      "channel": 0,
      "note": 50,
      "start": 12.2913,
      "duration": 0.0922,
      "velocity": 127,
      "chip": "ym2612"
    },
    {
      "channel": 4,
      "note": 62,
      "start": 12.2945,
      "duration": 0.0893,
      "velocity": 104,
      "chip": "ym2612"
    },
    {
      "channel": 5,
      "note": 85,
      "start": 12.2984,
      "duration": 0.1187,
      "velocity": 127,
      "chip": "ym2612"
    },
    {
      "channel": 1,
      "note": 37,
      "start": 12.3015,
      "duration": 0.2157,
      "velocity": 124,
      "chip": "ym2612"
    },
    {
      "channel": 3,
      "note": 59,
      "start": 12.4556,
      "duration": 0.0616,
      "velocity": 98,
      "chip": "ym2612"
    },
    {
      "channel": 0,
      "note": 47,
      "start": 12.4586,
      "duration": 0.0584,
      "velocity": 127,
      "chip": "ym2612"
    },
    {
      "channel": 4,
      "note": 59,
      "start": 12.462,
      "duration": 0.0554,
      "velocity": 104,
      "chip": "ym2612"
    },
    {
      "channel": 2,
      "note": 39,
      "start": 12.4652,
      "duration": 0.1187,
      "velocity": 116,
      "chip": "ym2612"
    },
    {
      "channel": 0,
      "note": 47,
      "start": 12.6041,
      "duration": 0.2648,
      "velocity": 127,
      "chip": "ym2612"
    },
    {
      "channel": 4,
      "note": 59,
      "start": 12.6076,
      "duration": 0.2615,
      "velocity": 104,
      "chip": "ym2612"
    },
    {
      "channel": 5,
      "note": 85,
      "start": 12.6114,
      "duration": 0.1227,
      "velocity": 127,
      "chip": "ym2612"
    },
    {
      "channel": 1,
      "note": 37,
      "start": 12.6144,
      "duration": 0.2364,
      "velocity": 124,
      "chip": "ym2612"
    },
    {
      "channel": 2,
      "note": 39,
      "start": 12.7715,
      "duration": 0.1296,
      "velocity": 116,
      "chip": "ym2612"
    },
    {
      "channel": 3,
      "note": 64,
      "start": 12.9215,
      "duration": 0.1144,
      "velocity": 98,
      "chip": "ym2612"
    },
    {
      "channel": 2,
      "note": 39,
      "start": 12.9251,
      "duration": 0.1262,
      "velocity": 116,
      "chip": "ym2612"
    },
    {
      "channel": 1,
      "note": 37,
      "start": 12.9286,
      "duration": 0.2393,
      "velocity": 124,
      "chip": "ym2612"
    },
    {
      "channel": 3,
      "note": 64,
      "start": 13.0881,
      "duration": 0.0965,
      "velocity": 98,
      "chip": "ym2612"
    },
    {
      "channel": 0,
      "note": 52,
      "start": 13.0913,
      "duration": 0.0932,
      "velocity": 127,
      "chip": "ym2612"
    },
    {
      "channel": 4,
      "note": 64,
      "start": 13.0948,
      "duration": 0.09,
      "velocity": 104,
      "chip": "ym2612"
    },
    {
      "channel": 5,
      "note": 55,
      "start": 13.0983,
      "duration": 0.1198,
      "velocity": 120,
      "chip": "ym2612"
    },
    {
      "channel": 0,
      "note": 50,
      "start": 13.2548,
      "duration": 0.0632,
      "velocity": 127,
      "chip": "ym2612"
    },
    {
      "channel": 4,
      "note": 62,
      "start": 13.2582,
      "duration": 0.0601,
      "velocity": 104,
      "chip": "ym2612"
    },
    {
      "channel": 2,
      "note": 39,
      "start": 13.2615,
      "duration": 0.1237,
      "velocity": 116,
      "chip": "ym2612"
    },
    {
      "channel": 1,
      "note": 37,
      "start": 13.2656,
      "duration": 0.2193,
      "velocity": 124,
      "chip": "ym2612"
    },
    {
      "channel": 3,
      "note": 64,
      "start": 13.4057,
      "duration": 0.1127,
      "velocity": 98,
      "chip": "ym2612"
    },
    {
      "channel": 0,
      "note": 52,
      "start": 13.4087,
      "duration": 0.1096,
      "velocity": 127,
      "chip": "ym2612"
    },
    {
      "channel": 4,
      "note": 64,
      "start": 13.412,
      "duration": 0.1065,
      "velocity": 104,
      "chip": "ym2612"
    },
    {
      "channel": 5,
      "note": 55,
      "start": 13.4153,
      "duration": 0.1214,
      "velocity": 120,
      "chip": "ym2612"
    },
    {
      "channel": 3,
      "note": 62,
      "start": 13.5721,
      "duration": 0.0799,
      "velocity": 98,
      "chip": "ym2612"
    },
    {
      "channel": 0,
      "note": 50,
      "start": 13.5755,
      "duration": 0.0763,
      "velocity": 127,
      "chip": "ym2612"
    },
    {
      "channel": 4,
      "note": 62,
      "start": 13.5789,
      "duration": 0.0733,
      "velocity": 104,
      "chip": "ym2612"
    },
    {
      "channel": 2,
      "note": 39,
      "start": 13.5821,
      "duration": 0.1215,
      "velocity": 116,
      "chip": "ym2612"
    },
    {
      "channel": 1,
      "note": 37,
      "start": 13.5853,
      "duration": 0.2167,
      "velocity": 124,
      "chip": "ym2612"
    },
    {
      "channel": 3,
      "note": 62,
      "start": 13.7224,
      "duration": 0.1131,
      "velocity": 98,
      "chip": "ym2612"
    },
    {
      "channel": 0,
      "note": 50,
      "start": 13.7254,
      "duration": 0.1099,
      "velocity": 127,
      "chip": "ym2612"
    },
    {
      "channel": 4,
      "note": 62,
      "start": 13.7292,
      "duration": 0.1065,
      "velocity": 104,
      "chip": "ym2612"
    },
    {
      "channel": 5,
      "note": 55,
      "start": 13.7324,
      "duration": 0.1198,
      "velocity": 120,
      "chip": "ym2612"
    },
    {
      "channel": 0,
      "note": 52,
      "start": 13.8888,
      "duration": 0.0966,
      "velocity": 127,
      "chip": "ym2612"
    },
    {
      "channel": 4,
      "note": 64,
      "start": 13.892,
      "duration": 0.0937,
      "velocity": 104,
      "chip": "ym2612"
    },
    {
      "channel": 2,
      "note": 39,
      "start": 13.8953,
      "duration": 0.1239,
      "velocity": 116,
      "chip": "ym2612"
    },
    {
      "channel": 1,
      "note": 37,
      "start": 13.8984,
      "duration": 0.2223,
      "velocity": 124,
      "chip": "ym2612"
    },
    {
      "channel": 0,
      "note": 50,
      "start": 14.0559,
      "duration": 0.0646,
      "velocity": 127,
      "chip": "ym2612"
    },
    {
      "channel": 4,
      "note": 62,
      "start": 14.0593,
      "duration": 0.0616,
      "velocity": 104,
      "chip": "ym2612"
    },
    {
      "channel": 5,
      "note": 55,
      "start": 14.0627,
      "duration": 0.1233,
      "velocity": 120,
      "chip": "ym2612"
    },
    {
      "channel": 3,
      "note": 64,
      "start": 14.2078,
      "duration": 0.1118,
      "velocity": 98,
      "chip": "ym2612"
    },
    {
      "channel": 0,
      "note": 52,
      "start": 14.2107,
      "duration": 0.1086,
      "velocity": 127,
      "chip": "ym2612"
    },
    {
      "channel": 4,
      "note": 64,
      "start": 14.2141,
      "duration": 0.1055,
      "velocity": 104,
      "chip": "ym2612"
    },
    {
      "channel": 2,
      "note": 39,
      "start": 14.2179,
      "duration": 0.1183,
      "velocity": 116,
      "chip": "ym2612"
    },
    {
      "channel": 1,
      "note": 37,
      "start": 14.2211,
      "duration": 0.2332,
      "velocity": 124,
      "chip": "ym2612"
    },
    {
      "channel": 3,
      "note": 62,
      "start": 14.3744,
      "duration": 0.0953,
      "velocity": 98,
      "chip": "ym2612"
    },
    {
      "channel": 0,
      "note": 50,
      "start": 14.3773,
      "duration": 0.0922,
      "velocity": 127,
      "chip": "ym2612"
    },
    {
      "channel": 4,
      "note": 62,
      "start": 14.3805,
      "duration": 0.0894,
      "velocity": 104,
      "chip": "ym2612"
    },
    {
      "channel": 2,
      "note": 39,
      "start": 14.3839,
      "duration": 0.1193,
      "velocity": 116,
      "chip": "ym2612"
    },
    {
      "channel": 3,
      "note": 59,
      "start": 14.5231,
      "duration": 0.1135,
      "velocity": 98,
      "chip": "ym2612"
    },
    {
      "channel": 0,
      "note": 47,
      "start": 14.5259,
      "duration": 0.1104,
      "velocity": 127,
      "chip": "ym2612"
    },
    {
      "channel": 4,
      "note": 59,
      "start": 14.5291,
      "duration": 0.1076,
      "velocity": 104,
      "chip": "ym2612"
    },
    {
      "channel": 5,
      "note": 85,
      "start": 14.5328,
      "duration": 0.1203,
      "velocity": 127,
      "chip": "ym2612"
    },
    {
      "channel": 1,
      "note": 37,
      "start": 14.5374,
      "duration": 0.2325,
      "velocity": 124,
      "chip": "ym2612"
    },
    {
      "channel": 3,
      "note": 59,
      "start": 14.6901,
      "duration": 0.0982,
      "velocity": 98,
      "chip": "ym2612"
    },
    {
      "channel": 0,
      "note": 47,
      "start": 14.6929,
      "duration": 0.0952,
      "velocity": 127,
      "chip": "ym2612"
    },
    {
      "channel": 4,
      "note": 59,
      "start": 14.6961,
      "duration": 0.0923,
      "velocity": 104,
      "chip": "ym2612"
    },
    {
      "channel": 2,
      "note": 39,
      "start": 14.6994,
      "duration": 0.1208,
      "velocity": 116,
      "chip": "ym2612"
    },
    {
      "channel": 3,
      "note": 62,
      "start": 14.8572,
      "duration": 0.1298,
      "velocity": 98,
      "chip": "ym2612"
    },
    {
      "channel": 0,
      "note": 50,
      "start": 14.8602,
      "duration": 0.1266,
      "velocity": 127,
      "chip": "ym2612"
    },
    {
      "channel": 4,
      "note": 62,
      "start": 14.8635,
      "duration": 0.1236,
      "velocity": 104,
      "chip": "ym2612"
    },
    {
      "channel": 5,
      "note": 85,
      "start": 14.867,
      "duration": 0.1202,
      "velocity": 127,
      "chip": "ym2612"
    },
    {
      "channel": 1,
      "note": 37,
      "start": 14.8758,
      "duration": 0.2113,
      "velocity": 124,
      "chip": "ym2612"
    },
    {
      "channel": 0,
      "note": 47,
      "start": 15.0071,
      "duration": 0.0799,
      "velocity": 127,
      "chip": "ym2612"
    },
    {
      "channel": 4,
      "note": 59,
      "start": 15.0104,
      "duration": 0.0768,
      "velocity": 104,
      "chip": "ym2612"
    },
    {
      "channel": 2,
      "note": 39,
      "start": 15.0137,
      "duration": 0.1236,
      "velocity": 116,
      "chip": "ym2612"
    },
    {
      "channel": 0,
      "note": 50,
      "start": 15.1745,
      "duration": 0.2129,
      "velocity": 127,
      "chip": "ym2612"
    },
    {
      "channel": 4,
      "note": 62,
      "start": 15.1784,
      "duration": 0.2092,
      "velocity": 104,
      "chip": "ym2612"
    },
    {
      "channel": 5,
      "note": 85,
      "start": 15.1822,
      "duration": 0.1218,
      "velocity": 127,
      "chip": "ym2612"
    },
    {
      "channel": 1,
      "note": 37,
      "start": 15.1852,
      "duration": 0.2189,
      "velocity": 124,
      "chip": "ym2612"
    },
    {
      "channel": 2,
      "note": 39,
      "start": 15.3248,
      "duration": 0.1312,
      "velocity": 116,
      "chip": "ym2612"
    },
    {
      "channel": 3,
      "note": 64,
      "start": 15.4919,
      "duration": 0.0959,
      "velocity": 98,
      "chip": "ym2612"
    },
    {
      "channel": 2,
      "note": 39,
      "start": 15.4955,
      "duration": 0.1272,
      "velocity": 116,
      "chip": "ym2612"
    },
    {
      "channel": 1,
      "note": 37,
      "start": 15.4986,
      "duration": 0.2225,
      "velocity": 124,
      "chip": "ym2612"
    },
    {
      "channel": 3,
      "note": 64,
      "start": 15.6579,
      "duration": 0.0967,
      "velocity": 98,
      "chip": "ym2612"
    },
    {
      "channel": 0,
      "note": 52,
      "start": 15.661,
      "duration": 0.0934,
      "velocity": 127,
      "chip": "ym2612"
    },
    {
      "channel": 4,
      "note": 64,
      "start": 15.6645,
      "duration": 0.0902,
      "velocity": 104,
      "chip": "ym2612"
    },
    {
      "channel": 5,
      "note": 64,
      "start": 15.668,
      "duration": 0.0869,
      "velocity": 104,
      "chip": "ym2612"
    },
    {
      "channel": 2,
      "note": 55,
      "start": 15.6714,
      "duration": 0.1182,
      "velocity": 120,
      "chip": "ym2612"
    },
    {
      "channel": 3,
      "note": 62,
      "start": 15.8082,
      "duration": 0.1135,
      "velocity": 98,
      "chip": "ym2612"
    },
    {
      "channel": 0,
      "note": 50,
      "start": 15.811,
      "duration": 0.1105,
      "velocity": 127,
      "chip": "ym2612"
    },
    {
      "channel": 4,
      "note": 62,
      "start": 15.8142,
      "duration": 0.1076,
      "velocity": 104,
      "chip": "ym2612"
    },
    {
      "channel": 5,
      "note": 62,
      "start": 15.8176,
      "duration": 0.1043,
      "velocity": 104,
      "chip": "ym2612"
    },
    {
      "channel": 2,
      "note": 39,
      "start": 15.8209,
      "duration": 0.1175,
      "velocity": 116,
      "chip": "ym2612"
    },
    {
      "channel": 1,
      "note": 37,
      "start": 15.8251,
      "duration": 0.23,
      "velocity": 124,
      "chip": "ym2612"
    },
    {
      "channel": 3,
      "note": 64,
      "start": 15.9751,
      "duration": 0.0966,
      "velocity": 98,
      "chip": "ym2612"
    },
    {
      "channel": 0,
      "note": 52,
      "start": 15.978,
      "duration": 0.0936,
      "velocity": 127,
      "chip": "ym2612"
    },
    {
      "channel": 4,
      "note": 64,
      "start": 15.9812,
      "duration": 0.0907,
      "velocity": 104,
      "chip": "ym2612"
    },
    {
      "channel": 5,
      "note": 64,
      "start": 15.9842,
      "duration": 0.0878,
      "velocity": 104,
      "chip": "ym2612"
    },
    {
      "channel": 2,
      "note": 55,
      "start": 15.9874,
      "duration": 0.118,
      "velocity": 120,
      "chip": "ym2612"
    },
    {
      "channel": 3,
      "note": 62,
      "start": 16.1268,
      "duration": 0.0843,
      "velocity": 98,
      "chip": "ym2612"
    },
    {
      "channel": 0,
      "note": 50,
      "start": 16.1298,
      "duration": 0.0811,
      "velocity": 127,
      "chip": "ym2612"
    },
    {
      "channel": 4,
      "note": 62,
      "start": 16.1332,
      "duration": 0.078,
      "velocity": 104,
      "chip": "ym2612"
    },
    {
      "channel": 5,
      "note": 62,
      "start": 16.1364,
      "duration": 0.075,
      "velocity": 104,
      "chip": "ym2612"
    },
    {
      "channel": 2,
      "note": 39,
      "start": 16.1396,
      "duration": 0.1157,
      "velocity": 116,
      "chip": "ym2612"
    },
    {
      "channel": 1,
      "note": 37,
      "start": 16.1428,
      "duration": 0.2307,
      "velocity": 124,
      "chip": "ym2612"
    },
    {
      "channel": 3,
      "note": 62,
      "start": 16.2939,
      "duration": 0.0949,
      "velocity": 98,
      "chip": "ym2612"
    },
    {
      "channel": 0,
      "note": 50,
      "start": 16.2968,
      "duration": 0.0917,
      "velocity": 127,
      "chip": "ym2612"
    },
    {
      "channel": 4,
      "note": 62,
      "start": 16.3002,
      "duration": 0.0887,
      "velocity": 104,
      "chip": "ym2612"
    },
    {
      "channel": 5,
      "note": 62,
      "start": 16.3034,
      "duration": 0.0856,
      "velocity": 104,
      "chip": "ym2612"
    },
    {
      "channel": 2,
      "note": 55,
      "start": 16.3067,
      "duration": 0.1156,
      "velocity": 120,
      "chip": "ym2612"
    },
    {
      "channel": 0,
      "note": 52,
      "start": 16.4606,
      "duration": 0.2283,
      "velocity": 127,
      "chip": "ym2612"
    },
    {
      "channel": 4,
      "note": 64,
      "start": 16.4641,
      "duration": 0.2251,
      "velocity": 104,
      "chip": "ym2612"
    },
    {
      "channel": 5,
      "note": 64,
      "start": 16.4675,
      "duration": 0.2219,
      "velocity": 104,
      "chip": "ym2612"
    },
    {
      "channel": 2,
      "note": 39,
      "start": 16.4706,
      "duration": 0.1185,
      "velocity": 116,
      "chip": "ym2612"
    },
    {
      "channel": 1,
      "note": 37,
      "start": 16.4738,
      "duration": 0.2152,
      "velocity": 124,
      "chip": "ym2612"
    },
    {
      "channel": 3,
      "note": 55,
      "start": 16.6107,
      "duration": 0.1284,
      "velocity": 120,
      "chip": "ym2612"
    },
    {
      "channel": 2,
      "note": 64,
      "start": 16.7764,
      "duration": 0.0981,
      "velocity": 98,
      "chip": "ym2612"
    },
    {
      "channel": 0,
      "note": 52,
      "start": 16.7799,
      "duration": 0.0941,
      "velocity": 127,
      "chip": "ym2612"
    },
    {
      "channel": 4,
      "note": 64,
      "start": 16.7834,
      "duration": 0.0908,
      "velocity": 104,
      "chip": "ym2612"
    },
    {
      "channel": 5,
      "note": 64,
      "start": 16.7868,
      "duration": 0.0876,
      "velocity": 104,
      "chip": "ym2612"
    },
    {
      "channel": 1,
      "note": 37,
      "start": 16.7923,
      "duration": 0.2139,
      "velocity": 124,
      "chip": "ym2612"
    },
    {
      "channel": 2,
      "note": 64,
      "start": 16.9264,
      "duration": 0.1151,
      "velocity": 98,
      "chip": "ym2612"
    },
    {
      "channel": 0,
      "note": 52,
      "start": 16.9292,
      "duration": 0.1118,
      "velocity": 127,
      "chip": "ym2612"
    },
    {
      "channel": 4,
      "note": 64,
      "start": 16.9328,
      "duration": 0.1084,
      "velocity": 104,
      "chip": "ym2612"
    },
    {
      "channel": 5,
      "note": 64,
      "start": 16.9359,
      "duration": 0.1055,
      "velocity": 104,
      "chip": "ym2612"
    },
    {
      "channel": 2,
      "note": 62,
      "start": 17.0933,
      "duration": 0.0968,
      "velocity": 98,
      "chip": "ym2612"
    },
    {
      "channel": 0,
      "note": 50,
      "start": 17.0962,
      "duration": 0.0935,
      "velocity": 127,
      "chip": "ym2612"
    },
    {
      "channel": 4,
      "note": 62,
      "start": 17.0994,
      "duration": 0.0905,
      "velocity": 104,
      "chip": "ym2612"
    },
    {
      "channel": 5,
      "note": 62,
      "start": 17.1024,
      "duration": 0.0876,
      "velocity": 104,
      "chip": "ym2612"
    },
    {
      "channel": 3,
      "note": 85,
      "start": 17.1061,
      "duration": 0.117,
      "velocity": 127,
      "chip": "ym2612"
    },
    {
      "channel": 1,
      "note": 37,
      "start": 17.1092,
      "duration": 0.214,
      "velocity": 124,
      "chip": "ym2612"
    },
    {
      "channel": 2,
      "note": 64,
      "start": 17.2602,
      "duration": 0.0967,
      "velocity": 98,
      "chip": "ym2612"
    },
    {
      "channel": 0,
      "note": 52,
      "start": 17.263,
      "duration": 0.0934,
      "velocity": 127,
      "chip": "ym2612"
    },
    {
      "channel": 4,
      "note": 64,
      "start": 17.2663,
      "duration": 0.0904,
      "velocity": 104,
      "chip": "ym2612"
    },
    {
      "channel": 5,
      "note": 64,
      "start": 17.2693,
      "duration": 0.0875,
      "velocity": 104,
      "chip": "ym2612"
    },
    {
      "channel": 2,
      "note": 62,
      "start": 17.4105,
      "duration": 0.1134,
      "velocity": 98,
      "chip": "ym2612"
    },
    {
      "channel": 0,
      "note": 50,
      "start": 17.4133,
      "duration": 0.1101,
      "velocity": 127,
      "chip": "ym2612"
    },
    {
      "channel": 4,
      "note": 62,
      "start": 17.4165,
      "duration": 0.1071,
      "velocity": 104,
      "chip": "ym2612"
    },
    {
      "channel": 5,
      "note": 62,
      "start": 17.4196,
      "duration": 0.1041,
      "velocity": 104,
      "chip": "ym2612"
    },
    {
      "channel": 3,
      "note": 85,
      "start": 17.4229,
      "duration": 0.1187,
      "velocity": 127,
      "chip": "ym2612"
    },
    {
      "channel": 1,
      "note": 37,
      "start": 17.426,
      "duration": 0.231,
      "velocity": 124,
      "chip": "ym2612"
    },
    {
      "channel": 2,
      "note": 59,
      "start": 17.5778,
      "duration": 0.0963,
      "velocity": 98,
      "chip": "ym2612"
    },
    {
      "channel": 0,
      "note": 47,
      "start": 17.5807,
      "duration": 0.093,
      "velocity": 127,
      "chip": "ym2612"
    },
    {
      "channel": 4,
      "note": 59,
      "start": 17.5839,
      "duration": 0.09,
      "velocity": 104,
      "chip": "ym2612"
    },
    {
      "channel": 5,
      "note": 59,
      "start": 17.5873,
      "duration": 0.0867,
      "velocity": 104,
      "chip": "ym2612"
    },
    {
      "channel": 0,
      "note": 47,
      "start": 17.7274,
      "duration": 0.2467,
      "velocity": 127,
      "chip": "ym2612"
    },
    {
      "channel": 4,
      "note": 59,
      "start": 17.7309,
      "duration": 0.2435,
      "velocity": 104,
      "chip": "ym2612"
    },
    {
      "channel": 5,
      "note": 59,
      "start": 17.7343,
      "duration": 0.2403,
      "velocity": 104,
      "chip": "ym2612"
    },
    {
      "channel": 3,
      "note": 85,
      "start": 17.7378,
      "duration": 0.1194,
      "velocity": 127,
      "chip": "ym2612"
    },
    {
      "channel": 1,
      "note": 37,
      "start": 17.7409,
      "duration": 0.2333,
      "velocity": 124,
      "chip": "ym2612"
    },
    {
      "channel": 2,
      "note": 39,
      "start": 17.8948,
      "duration": 0.1296,
      "velocity": 116,
      "chip": "ym2612"
    },
    {
      "channel": 3,
      "note": 62,
      "start": 18.0615,
      "duration": 0.0962,
      "velocity": 98,
      "chip": "ym2612"
    },
    {
      "channel": 2,
      "note": 39,
      "start": 18.0651,
      "duration": 0.1261,
      "velocity": 116,
      "chip": "ym2612"
    },
    {
      "channel": 1,
      "note": 37,
      "start": 18.0687,
      "duration": 0.2239,
      "velocity": 124,
      "chip": "ym2612"
    },
    {
      "channel": 3,
      "note": 62,
      "start": 18.2129,
      "duration": 0.1118,
      "velocity": 98,
      "chip": "ym2612"
    },
    {
      "channel": 0,
      "note": 50,
      "start": 18.216,
      "duration": 0.1084,
      "velocity": 127,
      "chip": "ym2612"
    },
    {
      "channel": 4,
      "note": 74,
      "start": 18.2195,
      "duration": 0.1053,
      "velocity": 104,
      "chip": "ym2612"
    },
    {
      "channel": 5,
      "note": 62,
      "start": 18.2228,
      "duration": 0.1021,
      "velocity": 104,
      "chip": "ym2612"
    },
    {
      "channel": 2,
      "note": 55,
      "start": 18.2267,
      "duration": 0.1147,
      "velocity": 120,
      "chip": "ym2612"
    },
    {
      "channel": 0,
      "note": 52,
      "start": 18.3924,
      "duration": 0.0824,
      "velocity": 127,
      "chip": "ym2612"
    },
    {
      "channel": 4,
      "note": 76,
      "start": 18.3956,
      "duration": 0.0794,
      "velocity": 104,
      "chip": "ym2612"
    },
    {
      "channel": 5,
      "note": 64,
      "start": 18.3987,
      "duration": 0.0765,
      "velocity": 104,
      "chip": "ym2612"
    },
    {
      "channel": 2,
      "note": 39,
      "start": 18.4018,
      "duration": 0.1065,
      "velocity": 116,
      "chip": "ym2612"
    },
    {
      "channel": 1,
      "note": 37,
      "start": 18.4059,
      "duration": 0.2023,
      "velocity": 124,
      "chip": "ym2612"
    },
    {
      "channel": 3,
      "note": 62,
      "start": 18.5286,
      "duration": 0.1132,
      "velocity": 98,
      "chip": "ym2612"
    },
    {
      "channel": 0,
      "note": 50,
      "start": 18.5314,
      "duration": 0.1102,
      "velocity": 127,
      "chip": "ym2612"
    },
    {
      "channel": 4,
      "note": 74,
      "start": 18.5346,
      "duration": 0.1073,
      "velocity": 104,
      "chip": "ym2612"
    },
    {
      "channel": 5,
      "note": 62,
      "start": 18.5376,
      "duration": 0.1044,
      "velocity": 104,
      "chip": "ym2612"
    },
    {
      "channel": 2,
      "note": 55,
      "start": 18.5424,
      "duration": 0.116,
      "velocity": 120,
      "chip": "ym2612"
    },
    {
      "channel": 3,
      "note": 64,
      "start": 18.6952,
      "duration": 0.0982,
      "velocity": 98,
      "chip": "ym2612"
    },
    {
      "channel": 0,
      "note": 52,
      "start": 18.698,
      "duration": 0.0952,
      "velocity": 127,
      "chip": "ym2612"
    },
    {
      "channel": 4,
      "note": 76,
      "start": 18.7012,
      "duration": 0.0923,
      "velocity": 104,
      "chip": "ym2612"
    },
    {
      "channel": 5,
      "note": 64,
      "start": 18.7043,
      "duration": 0.0894,
      "velocity": 104,
      "chip": "ym2612"
    },
    {
      "channel": 2,
      "note": 39,
      "start": 18.7075,
      "duration": 0.1178,
      "velocity": 116,
      "chip": "ym2612"
    },
    {
      "channel": 1,
      "note": 37,
      "start": 18.7122,
      "duration": 0.2132,
      "velocity": 124,
      "chip": "ym2612"
    },
    {
      "channel": 3,
      "note": 62,
      "start": 18.8624,
      "duration": 0.063,
      "velocity": 98,
      "chip": "ym2612"
    },
    {
      "channel": 0,
      "note": 50,
      "start": 18.8658,
      "duration": 0.0594,
      "velocity": 127,
      "chip": "ym2612"
    },
    {
      "channel": 4,
      "note": 74,
      "start": 18.8691,
      "duration": 0.0565,
      "velocity": 104,
      "chip": "ym2612"
    },
    {
      "channel": 5,
      "note": 62,
      "start": 18.8723,
      "duration": 0.0534,
      "velocity": 104,
      "chip": "ym2612"
    },
    {
      "channel": 2,
      "note": 55,
      "start": 18.877,
      "duration": 0.1151,
      "velocity": 120,
      "chip": "ym2612"
    },
    {
      "channel": 0,
      "note": 50,
      "start": 19.0122,
      "duration": 0.1148,
      "velocity": 127,
      "chip": "ym2612"
    },
    {
      "channel": 4,
      "note": 74,
      "start": 19.016,
      "duration": 0.1113,
      "velocity": 104,
      "chip": "ym2612"
    },
    {
      "channel": 5,
      "note": 62,
      "start": 19.0192,
      "duration": 0.1082,
      "velocity": 104,
      "chip": "ym2612"
    },
    {
      "channel": 2,
      "note": 39,
      "start": 19.0223,
      "duration": 0.1201,
      "velocity": 116,
      "chip": "ym2612"
    },
    {
      "channel": 1,
      "note": 37,
      "start": 19.0263,
      "duration": 0.2329,
      "velocity": 124,
      "chip": "ym2612"
    },
    {
      "channel": 3,
      "note": 62,
      "start": 19.1794,
      "duration": 0.0799,
      "velocity": 98,
      "chip": "ym2612"
    },
    {
      "channel": 0,
      "note": 50,
      "start": 19.1824,
      "duration": 0.0767,
      "velocity": 127,
      "chip": "ym2612"
    },
    {
      "channel": 4,
      "note": 74,
      "start": 19.1857,
      "duration": 0.0737,
      "velocity": 104,
      "chip": "ym2612"
    },
    {
      "channel": 5,
      "note": 62,
      "start": 19.1889,
      "duration": 0.0707,
      "velocity": 104,
      "chip": "ym2612"
    },
    {
      "channel": 2,
      "note": 55,
      "start": 19.1923,
      "duration": 0.117,
      "velocity": 120,
      "chip": "ym2612"
    },
    {
      "channel": 3,
      "note": 62,
      "start": 19.3293,
      "duration": 0.0801,
      "velocity": 98,
      "chip": "ym2612"
    },
    {
      "channel": 0,
      "note": 50,
      "start": 19.3321,
      "duration": 0.0771,
      "velocity": 127,
      "chip": "ym2612"
    },
    {
      "channel": 4,
      "note": 74,
      "start": 19.3354,
      "duration": 0.0742,
      "velocity": 104,
      "chip": "ym2612"
    },
    {
      "channel": 5,
      "note": 69,
      "start": 19.3388,
      "duration": 0.0709,
      "velocity": 104,
      "chip": "ym2612"
    },
    {
      "channel": 2,
      "note": 39,
      "start": 19.3421,
      "duration": 0.1188,
      "velocity": 116,
      "chip": "ym2612"
    },
    {
      "channel": 1,
      "note": 37,
      "start": 19.3453,
      "duration": 0.2308,
      "velocity": 124,
      "chip": "ym2612"
    },
    {
      "channel": 3,
      "note": 62,
      "start": 19.4969,
      "duration": 0.096,
      "velocity": 98,
      "chip": "ym2612"
    },
    {
      "channel": 0,
      "note": 50,
      "start": 19.4999,
      "duration": 0.0928,
      "velocity": 127,
      "chip": "ym2612"
    },
    {
      "channel": 4,
      "note": 74,
      "start": 19.5033,
      "duration": 0.0898,
      "velocity": 104,
      "chip": "ym2612"
    },
    {
      "channel": 5,
      "note": 69,
      "start": 19.5064,
      "duration": 0.0867,
      "velocity": 104,
      "chip": "ym2612"
    },
    {
      "channel": 2,
      "note": 39,
      "start": 19.5098,
      "duration": 0.1181,
      "velocity": 116,
      "chip": "ym2612"
    },
    {
      "channel": 0,
      "note": 50,
      "start": 19.663,
      "duration": 0.0633,
      "velocity": 127,
      "chip": "ym2612"
    },
    {
      "channel": 4,
      "note": 74,
      "start": 19.6664,
      "duration": 0.0602,
      "velocity": 104,
      "chip": "ym2612"
    },
    {
      "channel": 5,
      "note": 69,
      "start": 19.6696,
      "duration": 0.0571,
      "velocity": 104,
      "chip": "ym2612"
    },
    {
      "channel": 1,
      "note": 55,
      "start": 19.6729,
      "duration": 0.1216,
      "velocity": 120,
      "chip": "ym2612"
    },
    {
      "channel": 3,
      "note": 37,
      "start": 19.6772,
      "duration": 0.2161,
      "velocity": 124,
      "chip": "ym2612"
    },
    {
      "channel": 2,
      "note": 62,
      "start": 19.8138,
      "duration": 0.1133,
      "velocity": 98,
      "chip": "ym2612"
    },
    {
      "channel": 0,
      "note": 50,
      "start": 19.8167,
      "duration": 0.1098,
      "velocity": 127,
      "chip": "ym2612"
    },
    {
      "channel": 4,
      "note": 74,
      "start": 19.8201,
      "duration": 0.1067,
      "velocity": 104,
      "chip": "ym2612"
    },
    {
      "channel": 5,
      "note": 69,
      "start": 19.8233,
      "duration": 0.1036,
      "velocity": 104,
      "chip": "ym2612"
    },
    {
      "channel": 2,
      "note": 64,
      "start": 19.9803,
      "duration": 0.0969,
      "velocity": 98,
      "chip": "ym2612"
    },
    {
      "channel": 0,
      "note": 52,
      "start": 19.9832,
      "duration": 0.0935,
      "velocity": 127,
      "chip": "ym2612"
    },
    {
      "channel": 4,
      "note": 76,
      "start": 19.9864,
      "duration": 0.0906,
      "velocity": 104,
      "chip": "ym2612"
    },
    {
      "channel": 5,
      "note": 71,
      "start": 19.9894,
      "duration": 0.0876,
      "velocity": 104,
      "chip": "ym2612"
    },
    {
      "channel": 1,
      "note": 55,
      "start": 19.9924,
      "duration": 0.1176,
      "velocity": 120,
      "chip": "ym2612"
    },
    {
      "channel": 3,
      "note": 37,
      "start": 19.9958,
      "duration": 0.216,
      "velocity": 124,
      "chip": "ym2612"
    },
    {
      "channel": 2,
      "note": 62,
      "start": 20.132,
      "duration": 0.112,
      "velocity": 98,
      "chip": "ym2612"
    },
    {
      "channel": 0,
      "note": 50,
      "start": 20.1349,
      "duration": 0.1086,
      "velocity": 127,
      "chip": "ym2612"
    },
    {
      "channel": 4,
      "note": 74,
      "start": 20.1381,
      "duration": 0.1056,
      "velocity": 104,
      "chip": "ym2612"
    },
    {
      "channel": 5,
      "note": 69,
      "start": 20.1411,
      "duration": 0.1027,
      "velocity": 104,
      "chip": "ym2612"
    },
    {
      "channel": 2,
      "note": 64,
      "start": 20.2989,
      "duration": 0.0955,
      "velocity": 98,
      "chip": "ym2612"
    },
    {
      "channel": 0,
      "note": 52,
      "start": 20.3017,
      "duration": 0.0921,
      "velocity": 127,
      "chip": "ym2612"
    },
    {
      "channel": 4,
      "note": 76,
      "start": 20.305,
      "duration": 0.0891,
      "velocity": 104,
      "chip": "ym2612"
    },
    {
      "channel": 5,
      "note": 71,
      "start": 20.308,
      "duration": 0.0862,
      "velocity": 104,
      "chip": "ym2612"
    },
    {
      "channel": 1,
      "note": 55,
      "start": 20.3112,
      "duration": 0.1161,
      "velocity": 120,
      "chip": "ym2612"
    },
    {
      "channel": 3,
      "note": 37,
      "start": 20.3159,
      "duration": 0.2115,
      "velocity": 124,
      "chip": "ym2612"
    },
    {
      "channel": 2,
      "note": 62,
      "start": 20.4659,
      "duration": 0.0954,
      "velocity": 98,
      "chip": "ym2612"
    },
    {
      "channel": 0,
      "note": 50,
      "start": 20.4694,
      "duration": 0.0914,
      "velocity": 127,
      "chip": "ym2612"
    },
    {
      "channel": 4,
      "note": 74,
      "start": 20.4733,
      "duration": 0.0877,
      "velocity": 104,
      "chip": "ym2612"
    },
    {
      "channel": 5,
      "note": 69,
      "start": 20.4765,
      "duration": 0.0846,
      "velocity": 104,
      "chip": "ym2612"
    },
    {
      "channel": 2,
      "note": 57,
      "start": 20.6147,
      "duration": 0.0797,
      "velocity": 98,
      "chip": "ym2612"
    },
    {
      "channel": 5,
      "note": 81,
      "start": 20.6187,
      "duration": 0.2425,
      "velocity": 88,
      "chip": "ym2612"
    },
    {
      "channel": 1,
      "note": 76,
      "start": 20.622,
      "duration": 0.1738,
      "velocity": 88,
      "chip": "ym2612"
    },
    {
      "channel": 3,
      "note": 42,
      "start": 20.6254,
      "duration": 0.1522,
      "velocity": 106,
      "chip": "ym2612"
    },
    {
      "channel": 2,
      "note": 69,
      "start": 20.7814,
      "duration": 0.0799,
      "velocity": 98,
      "chip": "ym2612"
    },
    {
      "channel": 3,
      "note": 42,
      "start": 20.7847,
      "duration": 0.1432,
      "velocity": 106,
      "chip": "ym2612"
    },
    {
      "channel": 0,
      "note": 55,
      "start": 20.7879,
      "duration": 0.1232,
      "velocity": 120,
      "chip": "ym2612"
    },
    {
      "channel": 2,
      "note": 59,
      "start": 20.9316,
      "duration": 0.0799,
      "velocity": 98,
      "chip": "ym2612"
    },
    {
      "channel": 1,
      "note": 76,
      "start": 20.9349,
      "duration": 0.1947,
      "velocity": 88,
      "chip": "ym2612"
    },
    {
      "channel": 5,
      "note": 81,
      "start": 20.9381,
      "duration": 0.2569,
      "velocity": 88,
      "chip": "ym2612"
    },
    {
      "channel": 3,
      "note": 32,
      "start": 20.9411,
      "duration": 0.1537,
      "velocity": 106,
      "chip": "ym2612"
    },
    {
      "channel": 2,
      "note": 71,
      "start": 21.0985,
      "duration": 0.0798,
      "velocity": 98,
      "chip": "ym2612"
    },
    {
      "channel": 3,
      "note": 42,
      "start": 21.1018,
      "duration": 0.1598,
      "velocity": 106,
      "chip": "ym2612"
    },
    {
      "channel": 0,
      "note": 55,
      "start": 21.1046,
      "duration": 0.1235,
      "velocity": 120,
      "chip": "ym2612"
    },
    {
      "channel": 2,
      "note": 60,
      "start": 21.2655,
      "duration": 0.1297,
      "velocity": 98,
      "chip": "ym2612"
    },
    {
      "channel": 1,
      "note": 74,
      "start": 21.2689,
      "duration": 0.0594,
      "velocity": 88,
      "chip": "ym2612"
    },
    {
      "channel": 5,
      "note": 79,
      "start": 21.2722,
      "duration": 0.0396,
      "velocity": 88,
      "chip": "ym2612"
    },
    {
      "channel": 3,
      "note": 32,
      "start": 21.2751,
      "duration": 0.1367,
      "velocity": 106,
      "chip": "ym2612"
    },
    {
      "channel": 2,
      "note": 72,
      "start": 21.4162,
      "duration": 0.1126,
      "velocity": 98,
      "chip": "ym2612"
    },
    {
      "channel": 1,
      "note": 81,
      "start": 21.42,
      "duration": 0.0752,
      "velocity": 88,
      "chip": "ym2612"
    },
    {
      "channel": 5,
      "note": 76,
      "start": 21.423,
      "duration": 0.0724,
      "velocity": 88,
      "chip": "ym2612"
    },
    {
      "channel": 3,
      "note": 32,
      "start": 21.426,
      "duration": 0.1528,
      "velocity": 106,
      "chip": "ym2612"
    },
    {
      "channel": 0,
      "note": 55,
      "start": 21.4289,
      "duration": 0.1179,
      "velocity": 120,
      "chip": "ym2612"
    },
    {
      "channel": 2,
      "note": 59,
      "start": 21.5825,
      "duration": 0.0965,
      "velocity": 98,
      "chip": "ym2612"
    },
    {
      "channel": 1,
      "note": 76,
      "start": 21.586,
      "duration": 0.2111,
      "velocity": 88,
      "chip": "ym2612"
    },
    {
      "channel": 5,
      "note": 81,
      "start": 21.5892,
      "duration": 0.1731,
      "velocity": 88,
      "chip": "ym2612"
    },
    {
      "channel": 3,
      "note": 42,
      "start": 21.5922,
      "duration": 0.1376,
      "velocity": 106,
      "chip": "ym2612"
    },
    {
      "channel": 2,
      "note": 71,
      "start": 21.7335,
      "duration": 0.1123,
      "velocity": 98,
      "chip": "ym2612"
    },
    {
      "channel": 3,
      "note": 32,
      "start": 21.7368,
      "duration": 0.1589,
      "velocity": 106,
      "chip": "ym2612"
    },
    {
      "channel": 0,
      "note": 55,
      "start": 21.7396,
      "duration": 0.1227,
      "velocity": 120,
      "chip": "ym2612"
    },
    {
      "channel": 2,
      "note": 57,
      "start": 21.8997,
      "duration": 0.1298,
      "velocity": 98,
      "chip": "ym2612"
    },
    {
      "channel": 1,
      "note": 81,
      "start": 21.9031,
      "duration": 0.2278,
      "velocity": 88,
      "chip": "ym2612"
    },
    {
      "channel": 5,
      "note": 76,
      "start": 21.9062,
      "duration": 0.225,
      "velocity": 88,
      "chip": "ym2612"
    },
    {
      "channel": 3,
      "note": 42,
      "start": 21.9091,
      "duration": 0.1535,
      "velocity": 106,
      "chip": "ym2612"
    },
    {
      "channel": 2,
      "note": 69,
      "start": 22.0666,
      "duration": 0.0963,
      "velocity": 98,
      "chip": "ym2612"
    },
    {
      "channel": 3,
      "note": 42,
      "start": 22.0699,
      "duration": 0.1444,
      "velocity": 106,
      "chip": "ym2612"
    },
    {
      "channel": 0,
      "note": 55,
      "start": 22.0731,
      "duration": 0.123,
      "velocity": 120,
      "chip": "ym2612"
    },
    {
      "channel": 2,
      "note": 55,
      "start": 22.2183,
      "duration": 0.1283,
      "velocity": 98,
      "chip": "ym2612"
    },
    {
      "channel": 1,
      "note": 81,
      "start": 22.2221,
      "duration": 0.2577,
      "velocity": 88,
      "chip": "ym2612"
    },
    {
      "channel": 5,
      "note": 76,
      "start": 22.2253,
      "duration": 0.2396,
      "velocity": 88,
      "chip": "ym2612"
    },
    {
      "channel": 3,
      "note": 32,
      "start": 22.2283,
      "duration": 0.153,
      "velocity": 106,
      "chip": "ym2612"
    },
    {
      "channel": 2,
      "note": 67,
      "start": 22.3851,
      "duration": 0.0949,
      "velocity": 98,
      "chip": "ym2612"
    },
    {
      "channel": 3,
      "note": 42,
      "start": 22.3884,
      "duration": 0.1415,
      "velocity": 106,
      "chip": "ym2612"
    },
    {
      "channel": 0,
      "note": 55,
      "start": 22.3912,
      "duration": 0.1219,
      "velocity": 120,
      "chip": "ym2612"
    },
    {
      "channel": 2,
      "note": 53,
      "start": 22.5338,
      "duration": 0.1132,
      "velocity": 98,
      "chip": "ym2612"
    },
    {
      "channel": 1,
      "note": 74,
      "start": 22.5372,
      "duration": 0.0761,
      "velocity": 88,
      "chip": "ym2612"
    },
    {
      "channel": 5,
      "note": 79,
      "start": 22.5404,
      "duration": 0.1064,
      "velocity": 88,
      "chip": "ym2612"
    },
    {
      "channel": 3,
      "note": 32,
      "start": 22.5434,
      "duration": 0.1535,
      "velocity": 106,
      "chip": "ym2612"
    },
    {
      "channel": 2,
      "note": 65,
      "start": 22.7008,
      "duration": 0.1298,
      "velocity": 98,
      "chip": "ym2612"
    },
    {
      "channel": 1,
      "note": 71,
      "start": 22.7042,
      "duration": 0.076,
      "velocity": 88,
      "chip": "ym2612"
    },
    {
      "channel": 5,
      "note": 76,
      "start": 22.7077,
      "duration": 0.0728,
      "velocity": 88,
      "chip": "ym2612"
    },
    {
      "channel": 3,
      "note": 42,
      "start": 22.7113,
      "duration": 0.069,
      "velocity": 106,
      "chip": "ym2612"
    },
    {
      "channel": 0,
      "note": 55,
      "start": 22.7157,
      "duration": 0.1146,
      "velocity": 120,
      "chip": "ym2612"
    },
    {
      "channel": 3,
      "note": 42,
      "start": 22.7844,
      "duration": 0.146,
      "velocity": 106,
      "chip": "ym2612"
    },
    {
      "channel": 2,
      "note": 52,
      "start": 22.8674,
      "duration": 0.1299,
      "velocity": 98,
      "chip": "ym2612"
    },
    {
      "channel": 1,
      "note": 71,
      "start": 22.8708,
      "duration": 0.2264,
      "velocity": 88,
      "chip": "ym2612"
    },
    {
      "channel": 5,
      "note": 76,
      "start": 22.8741,
      "duration": 0.2582,
      "velocity": 88,
      "chip": "ym2612"
    },
    {
      "channel": 4,
      "note": 32,
      "start": 22.8773,
      "duration": 0.1366,
      "velocity": 106,
      "chip": "ym2612"
    },
    {
      "channel": 2,
      "note": 64,
      "start": 23.0177,
      "duration": 0.1299,
      "velocity": 98,
      "chip": "ym2612"
    },
    {
      "channel": 3,
      "note": 42,
      "start": 23.021,
      "duration": 0.1598,
      "velocity": 106,
      "chip": "ym2612"
    },
    {
      "channel": 0,
      "note": 55,
      "start": 23.0238,
      "duration": 0.1235,
      "velocity": 120,
      "chip": "ym2612"
    },
    {
      "channel": 2,
      "note": 57,
      "start": 23.1851,
      "duration": 0.0959,
      "velocity": 98,
      "chip": "ym2612"
    },
    {
      "channel": 1,
      "note": 76,
      "start": 23.1885,
      "duration": 0.2092,
      "velocity": 88,
      "chip": "ym2612"
    },
    {
      "channel": 5,
      "note": 81,
      "start": 23.1916,
      "duration": 0.2063,
      "velocity": 88,
      "chip": "ym2612"
    },
    {
      "channel": 3,
      "note": 42,
      "start": 23.1946,
      "duration": 0.1365,
      "velocity": 106,
      "chip": "ym2612"
    },
    {
      "channel": 2,
      "note": 69,
      "start": 23.3348,
      "duration": 0.1132,
      "velocity": 98,
      "chip": "ym2612"
    },
    {
      "channel": 3,
      "note": 42,
      "start": 23.3381,
      "duration": 0.1597,
      "velocity": 106,
      "chip": "ym2612"
    },
    {
      "channel": 0,
      "note": 55,
      "start": 23.3409,
      "duration": 0.125,
      "velocity": 120,
      "chip": "ym2612"
    },
    {
      "channel": 2,
      "note": 59,
      "start": 23.5018,
      "duration": 0.1631,
      "velocity": 98,
      "chip": "ym2612"
    },
    {
      "channel": 1,
      "note": 81,
      "start": 23.5052,
      "duration": 0.2263,
      "velocity": 88,
      "chip": "ym2612"
    },
    {
      "channel": 5,
      "note": 76,
      "start": 23.5088,
      "duration": 0.2144,
      "velocity": 88,
      "chip": "ym2612"
    },
    {
      "channel": 3,
      "note": 32,
      "start": 23.5117,
      "duration": 0.1529,
      "velocity": 106,
      "chip": "ym2612"
    },
    {
      "channel": 2,
      "note": 71,
      "start": 23.6687,
      "duration": 0.0965,
      "velocity": 98,
      "chip": "ym2612"
    },
    {
      "channel": 3,
      "note": 42,
      "start": 23.672,
      "duration": 0.143,
      "velocity": 106,
      "chip": "ym2612"
    },
    {
      "channel": 0,
      "note": 55,
      "start": 23.6748,
      "duration": 0.1248,
      "velocity": 120,
      "chip": "ym2612"
    },
    {
      "channel": 2,
      "note": 60,
      "start": 23.8188,
      "duration": 0.1132,
      "velocity": 98,
      "chip": "ym2612"
    },
    {
      "channel": 1,
      "note": 79,
      "start": 23.8222,
      "duration": 0.1095,
      "velocity": 88,
      "chip": "ym2612"
    },
    {
      "channel": 5,
      "note": 74,
      "start": 23.8253,
      "duration": 0.1066,
      "velocity": 88,
      "chip": "ym2612"
    },
    {
      "channel": 3,
      "note": 32,
      "start": 23.8282,
      "duration": 0.1536,
      "velocity": 106,
      "chip": "ym2612"
    },
    {
      "channel": 2,
      "note": 72,
      "start": 23.9856,
      "duration": 0.0965,
      "velocity": 98,
      "chip": "ym2612"
    },
    {
      "channel": 1,
      "note": 76,
      "start": 23.989,
      "duration": 0.0762,
      "velocity": 88,
      "chip": "ym2612"
    },
    {
      "channel": 5,
      "note": 81,
      "start": 23.9921,
      "duration": 0.0734,
      "velocity": 88,
      "chip": "ym2612"
    },
    {
      "channel": 3,
      "note": 32,
      "start": 23.995,
      "duration": 0.1385,
      "velocity": 106,
      "chip": "ym2612"
    },
    {
      "channel": 0,
      "note": 55,
      "start": 23.9979,
      "duration": 0.1173,
      "velocity": 120,
      "chip": "ym2612"
    },
    {
      "channel": 2,
      "note": 59,
      "start": 24.1373,
      "duration": 0.1117,
      "velocity": 98,
      "chip": "ym2612"
    },
    {
      "channel": 1,
      "note": 76,
      "start": 24.1407,
      "duration": 0.2081,
      "velocity": 88,
      "chip": "ym2612"
    },
    {
      "channel": 5,
      "note": 81,
      "start": 24.1442,
      "duration": 0.2049,
      "velocity": 88,
      "chip": "ym2612"
    },
    {
      "channel": 3,
      "note": 42,
      "start": 24.1472,
      "duration": 0.1532,
      "velocity": 106,
      "chip": "ym2612"
    },
    {
      "channel": 2,
      "note": 71,
      "start": 24.3041,
      "duration": 0.0951,
      "velocity": 98,
      "chip": "ym2612"
    },
    {
      "channel": 3,
      "note": 32,
      "start": 24.3074,
      "duration": 0.1593,
      "velocity": 106,
      "chip": "ym2612"
    },
    {
      "channel": 0,
      "note": 55,
      "start": 24.3102,
      "duration": 0.1221,
      "velocity": 120,
      "chip": "ym2612"
    },
    {
      "channel": 1,
      "note": 79,
      "start": 24.4364,
      "duration": 0.0793,
      "velocity": 88,
      "chip": "ym2612"
    },
    {
      "channel": 5,
      "note": 84,
      "start": 24.4395,
      "duration": 0.0765,
      "velocity": 88,
      "chip": "ym2612"
    },
    {
      "channel": 2,
      "note": 57,
      "start": 24.4844,
      "duration": 0.0816,
      "velocity": 98,
      "chip": "ym2612"
    },
    {
      "channel": 3,
      "note": 42,
      "start": 24.4881,
      "duration": 0.1278,
      "velocity": 106,
      "chip": "ym2612"
    },
    {
      "channel": 2,
      "note": 69,
      "start": 24.6198,
      "duration": 0.1132,
      "velocity": 98,
      "chip": "ym2612"
    },
    {
      "channel": 3,
      "note": 42,
      "start": 24.6233,
      "duration": 0.076,
      "velocity": 106,
      "chip": "ym2612"
    },
    {
      "channel": 0,
      "note": 55,
      "start": 24.6261,
      "duration": 0.1233,
      "velocity": 120,
      "chip": "ym2612"
    },
    {
      "channel": 3,
      "note": 42,
      "start": 24.7033,
      "duration": 0.163,
      "velocity": 106,
      "chip": "ym2612"
    },
    {
      "channel": 1,
      "note": 79,
      "start": 24.7535,
      "duration": 0.1795,
      "velocity": 88,
      "chip": "ym2612"
    },
    {
      "channel": 5,
      "note": 84,
      "start": 24.7567,
      "duration": 0.2113,
      "velocity": 88,
      "chip": "ym2612"
    },
    {
      "channel": 2,
      "note": 57,
      "start": 24.7865,
      "duration": 0.0981,
      "velocity": 98,
      "chip": "ym2612"
    },
    {
      "channel": 4,
      "note": 32,
      "start": 24.79,
      "duration": 0.1432,
      "velocity": 106,
      "chip": "ym2612"
    },
    {
      "channel": 2,
      "note": 69,
      "start": 24.9369,
      "duration": 0.1146,
      "velocity": 98,
      "chip": "ym2612"
    },
    {
      "channel": 3,
      "note": 42,
      "start": 24.9402,
      "duration": 0.1597,
      "velocity": 106,
      "chip": "ym2612"
    },
    {
      "channel": 0,
      "note": 55,
      "start": 24.943,
      "duration": 0.1234,
      "velocity": 120,
      "chip": "ym2612"
    },
    {
      "channel": 2,
      "note": 59,
      "start": 25.1037,
      "duration": 0.0965,
      "velocity": 98,
      "chip": "ym2612"
    },
    {
      "channel": 1,
      "note": 78,
      "start": 25.1071,
      "duration": 0.0428,
      "velocity": 88,
      "chip": "ym2612"
    },
    {
      "channel": 5,
      "note": 83,
      "start": 25.1107,
      "duration": 0.0727,
      "velocity": 88,
      "chip": "ym2612"
    },
    {
      "channel": 3,
      "note": 32,
      "start": 25.1137,
      "duration": 0.1531,
      "velocity": 106,
      "chip": "ym2612"
    },
    {
      "channel": 2,
      "note": 71,
      "start": 25.2709,
      "duration": 0.0962,
      "velocity": 98,
      "chip": "ym2612"
    },
    {
      "channel": 3,
      "note": 32,
      "start": 25.2742,
      "duration": 0.1428,
      "velocity": 106,
      "chip": "ym2612"
    },
    {
      "channel": 0,
      "note": 55,
      "start": 25.277,
      "duration": 0.1232,
      "velocity": 120,
      "chip": "ym2612"
    },
    {
      "channel": 1,
      "note": 78,
      "start": 25.4043,
      "duration": 0.2311,
      "velocity": 88,
      "chip": "ym2612"
    },
    {
      "channel": 5,
      "note": 83,
      "start": 25.4073,
      "duration": 0.2283,
      "velocity": 88,
      "chip": "ym2612"
    },
    {
      "channel": 2,
      "note": 59,
      "start": 25.4207,
      "duration": 0.1132,
      "velocity": 98,
      "chip": "ym2612"
    },
    {
      "channel": 3,
      "note": 42,
      "start": 25.424,
      "duration": 0.1599,
      "velocity": 106,
      "chip": "ym2612"
    },
    {
      "channel": 2,
      "note": 71,
      "start": 25.5877,
      "duration": 0.0965,
      "velocity": 98,
      "chip": "ym2612"
    },
    {
      "channel": 3,
      "note": 42,
      "start": 25.5913,
      "duration": 0.0761,
      "velocity": 106,
      "chip": "ym2612"
    },
    {
      "channel": 0,
      "note": 55,
      "start": 25.5941,
      "duration": 0.1247,
      "velocity": 120,
      "chip": "ym2612"
    },
    {
      "channel": 3,
      "note": 42,
      "start": 25.6717,
      "duration": 61.6102,
      "velocity": 106,
      "chip": "ym2612"
    },
    {
      "channel": 2,
      "note": 57,
      "start": 25.7378,
      "duration": 0.1144,
      "velocity": 98,
      "chip": "ym2612"
    },
    {
      "channel": 1,
      "note": 81,
      "start": 25.7412,
      "duration": 0.2099,
      "velocity": 88,
      "chip": "ym2612"
    },
    {
      "channel": 5,
      "note": 76,
      "start": 25.7444,
      "duration": 0.2401,
      "velocity": 88,
      "chip": "ym2612"
    },
    {
      "channel": 4,
      "note": 42,
      "start": 25.7477,
      "duration": 0.1534,
      "velocity": 106,
      "chip": "ym2612"
    },
    {
      "channel": 2,
      "note": 69,
      "start": 25.905,
      "duration": 0.0796,
      "velocity": 98,
      "chip": "ym2612"
    },
    {
      "channel": 4,
      "note": 42,
      "start": 25.9083,
      "duration": 0.1595,
      "velocity": 106,
      "chip": "ym2612"
    },
    {
      "channel": 0,
      "note": 55,
      "start": 25.9112,
      "duration": 0.1232,
      "velocity": 120,
      "chip": "ym2612"
    },
    {
      "channel": 2,
      "note": 59,
      "start": 26.0717,
      "duration": 0.0964,
      "velocity": 98,
      "chip": "ym2612"
    },
    {
      "channel": 1,
      "note": 76,
      "start": 26.0752,
      "duration": 0.2597,
      "velocity": 88,
      "chip": "ym2612"
    },
    {
      "channel": 5,
      "note": 81,
      "start": 26.0786,
      "duration": 0.2564,
      "velocity": 88,
      "chip": "ym2612"
    },
    {
      "channel": 4,
      "note": 32,
      "start": 26.0816,
      "duration": 0.1379,
      "velocity": 106,
      "chip": "ym2612"
    },
    {
      "channel": 2,
      "note": 71,
      "start": 26.2234,
      "duration": 0.0797,
      "velocity": 98,
      "chip": "ym2612"
    },
    {
      "channel": 4,
      "note": 42,
      "start": 26.2267,
      "duration": 0.1597,
      "velocity": 106,
      "chip": "ym2612"
    },
    {
      "channel": 0,
      "note": 55,
      "start": 26.2296,
      "duration": 0.1219,
      "velocity": 120,
      "chip": "ym2612"
    },
    {
      "channel": 2,
      "note": 60,
      "start": 26.3903,
      "duration": 0.1283,
      "velocity": 98,
      "chip": "ym2612"
    },
    {
      "channel": 1,
      "note": 74,
      "start": 26.3938,
      "duration": 0.076,
      "velocity": 88,
      "chip": "ym2612"
    },
    {
      "channel": 5,
      "note": 79,
      "start": 26.397,
      "duration": 0.1215,
      "velocity": 88,
      "chip": "ym2612"
    },
    {
      "channel": 4,
      "note": 32,
      "start": 26.4,
      "duration": 0.1351,
      "velocity": 106,
      "chip": "ym2612"
    },
    {
      "channel": 2,
      "note": 72,
      "start": 26.5388,
      "duration": 0.13,
      "velocity": 98,
      "chip": "ym2612"
    },
    {
      "channel": 1,
      "note": 81,
      "start": 26.5423,
      "duration": 0.0762,
      "velocity": 88,
      "chip": "ym2612"
    },
    {
      "channel": 5,
      "note": 76,
      "start": 26.5453,
      "duration": 0.0734,
      "velocity": 88,
      "chip": "ym2612"
    },
    {
      "channel": 4,
      "note": 32,
      "start": 26.5483,
      "duration": 0.1537,
      "velocity": 106,
      "chip": "ym2612"
    },
    {
      "channel": 0,
      "note": 55,
      "start": 26.5527,
      "duration": 0.1158,
      "velocity": 120,
      "chip": "ym2612"
    },
    {
      "channel": 2,
      "note": 59,
      "start": 26.7058,
      "duration": 0.1299,
      "velocity": 98,
      "chip": "ym2612"
    },
    {
      "channel": 1,
      "note": 76,
      "start": 26.7092,
      "duration": 0.2264,
      "velocity": 88,
      "chip": "ym2612"
    },
    {
      "channel": 5,
      "note": 81,
      "start": 26.7128,
      "duration": 0.2062,
      "velocity": 88,
      "chip": "ym2612"
    },
    {
      "channel": 4,
      "note": 42,
      "start": 26.7158,
      "duration": 0.1531,
      "velocity": 106,
      "chip": "ym2612"
    },
    {
      "channel": 2,
      "note": 71,
      "start": 26.8728,
      "duration": 0.0978,
      "velocity": 98,
      "chip": "ym2612"
    },
    {
      "channel": 4,
      "note": 32,
      "start": 26.8761,
      "duration": 0.1429,
      "velocity": 106,
      "chip": "ym2612"
    },
    {
      "channel": 0,
      "note": 55,
      "start": 26.879,
      "duration": 0.1232,
      "velocity": 120,
      "chip": "ym2612"
    },
    {
      "channel": 2,
      "note": 57,
      "start": 27.0234,
      "duration": 0.1293,
      "velocity": 98,
      "chip": "ym2612"
    },
    {
      "channel": 1,
      "note": 81,
      "start": 27.0268,
      "duration": 0.0757,
      "velocity": 88,
      "chip": "ym2612"
    },
    {
      "channel": 5,
      "note": 76,
      "start": 27.0298,
      "duration": 0.0729,
      "velocity": 88,
      "chip": "ym2612"
    },
    {
      "channel": 4,
      "note": 42,
      "start": 27.0328,
      "duration": 0.1531,
      "velocity": 106,
      "chip": "ym2612"
    },
    {
      "channel": 2,
      "note": 69,
      "start": 27.1898,
      "duration": 0.0798,
      "velocity": 98,
      "chip": "ym2612"
    },
    {
      "channel": 1,
      "note": 79,
      "start": 27.1931,
      "duration": 0.0763,
      "velocity": 88,
      "chip": "ym2612"
    },
    {
      "channel": 5,
      "note": 74,
      "start": 27.1963,
      "duration": 0.0398,
      "velocity": 88,
      "chip": "ym2612"
    },
    {
      "channel": 4,
      "note": 42,
      "start": 27.1993,
      "duration": 0.1369,
      "velocity": 106,
      "chip": "ym2612"
    },
    {
      "channel": 0,
      "note": 55,
      "start": 27.2026,
      "duration": 0.1168,
      "velocity": 120,
      "chip": "ym2612"
    },
    {
      "channel": 2,
      "note": 55,
      "start": 27.3401,
      "duration": 0.113,
      "velocity": 98,
      "chip": "ym2612"
    },
    {
      "channel": 1,
      "note": 81,
      "start": 27.3435,
      "duration": 0.2429,
      "velocity": 88,
      "chip": "ym2612"
    },
    {
      "channel": 5,
      "note": 76,
      "start": 27.3471,
      "duration": 0.2562,
      "velocity": 88,
      "chip": "ym2612"
    },
    {
      "channel": 4,
      "note": 32,
      "start": 27.3501,
      "duration": 0.153,
      "velocity": 106,
      "chip": "ym2612"
    },
    {
      "channel": 2,
      "note": 67,
      "start": 27.5068,
      "duration": 0.0966,
      "velocity": 98,
      "chip": "ym2612"
    },
    {
      "channel": 4,
      "note": 42,
      "start": 27.5101,
      "duration": 0.1598,
      "velocity": 106,
      "chip": "ym2612"
    },
    {
      "channel": 0,
      "note": 55,
      "start": 27.513,
      "duration": 0.1249,
      "velocity": 120,
      "chip": "ym2612"
    },
    {
      "channel": 2,
      "note": 53,
      "start": 27.6737,
      "duration": 0.0964,
      "velocity": 98,
      "chip": "ym2612"
    },
    {
      "channel": 1,
      "note": 79,
      "start": 27.6771,
      "duration": 0.0443,
      "velocity": 88,
      "chip": "ym2612"
    },
    {
      "channel": 5,
      "note": 74,
      "start": 27.6803,
      "duration": 0.0564,
      "velocity": 88,
      "chip": "ym2612"
    },
    {
      "channel": 4,
      "note": 32,
      "start": 27.6833,
      "duration": 0.1367,
      "velocity": 106,
      "chip": "ym2612"
    },
    {
      "channel": 2,
      "note": 65,
      "start": 27.8239,
      "duration": 0.1298,
      "velocity": 98,
      "chip": "ym2612"
    },
    {
      "channel": 1,
      "note": 71,
      "start": 27.8274,
      "duration": 0.0427,
      "velocity": 88,
      "chip": "ym2612"
    },
    {
      "channel": 5,
      "note": 76,
      "start": 27.8304,
      "duration": 0.0399,
      "velocity": 88,
      "chip": "ym2612"
    },
    {
      "channel": 4,
      "note": 42,
      "start": 27.8341,
      "duration": 0.0694,
      "velocity": 106,
      "chip": "ym2612"
    },
    {
      "channel": 0,
      "note": 55,
      "start": 27.837,
      "duration": 0.1164,
      "velocity": 120,
      "chip": "ym2612"
    },
    {
      "channel": 4,
      "note": 42,
      "start": 27.9075,
      "duration": 0.1629,
      "velocity": 106,
      "chip": "ym2612"
    },
    {
      "channel": 2,
      "note": 52,
      "start": 27.9906,
      "duration": 0.13,
      "velocity": 98,
      "chip": "ym2612"
    },
    {
      "channel": 1,
      "note": 76,
      "start": 27.9944,
      "duration": 0.1443,
      "velocity": 88,
      "chip": "ym2612"
    },
    {
      "channel": 5,
      "note": 71,
      "start": 27.9975,
      "duration": 0.1415,
      "velocity": 88,
      "chip": "ym2612"
    },
    {
      "channel": 0,
      "note": 32,
      "start": 28.0007,
      "duration": 0.1379,
      "velocity": 106,
      "chip": "ym2612"
    },
    {
      "channel": 2,
      "note": 52,
      "start": 28.1428,
      "duration": 0.0866,
      "velocity": 98,
      "chip": "ym2612"
    },
    {
      "channel": 0,
      "note": 42,
      "start": 28.1459,
      "duration": 0.1595,
      "velocity": 106,
      "chip": "ym2612"
    },
    {
      "channel": 4,
      "note": 55,
      "start": 28.149,
      "duration": 0.1217,
      "velocity": 120,
      "chip": "ym2612"
    },
    {
      "channel": 2,
      "note": 57,
      "start": 28.3095,
      "duration": 0.0949,
      "velocity": 98,
      "chip": "ym2612"
    },
    {
      "channel": 1,
      "note": 76,
      "start": 28.3129,
      "duration": 0.076,
      "velocity": 88,
      "chip": "ym2612"
    },
    {
      "channel": 5,
      "note": 81,
      "start": 28.316,
      "duration": 0.0732,
      "velocity": 88,
      "chip": "ym2612"
    },
    {
      "channel": 0,
      "note": 42,
      "start": 28.3188,
      "duration": 0.1536,
      "velocity": 106,
      "chip": "ym2612"
    },
    {
      "channel": 2,
      "note": 69,
      "start": 28.4762,
      "duration": 0.095,
      "velocity": 98,
      "chip": "ym2612"
    },
    {
      "channel": 0,
      "note": 42,
      "start": 28.4794,
      "duration": 0.1417,
      "velocity": 106,
      "chip": "ym2612"
    },
    {
      "channel": 4,
      "note": 55,
      "start": 28.4824,
      "duration": 0.1221,
      "velocity": 120,
      "chip": "ym2612"
    },
    {
      "channel": 2,
      "note": 59,
      "start": 28.6255,
      "duration": 0.1627,
      "velocity": 98,
      "chip": "ym2612"
    },
    {
      "channel": 1,
      "note": 81,
      "start": 28.6288,
      "duration": 0.0757,
      "velocity": 88,
      "chip": "ym2612"
    },
    {
      "channel": 5,
      "note": 76,
      "start": 28.632,
      "duration": 0.106,
      "velocity": 88,
      "chip": "ym2612"
    },
    {
      "channel": 0,
      "note": 32,
      "start": 28.6348,
      "duration": 0.153,
      "velocity": 106,
      "chip": "ym2612"
    },
    {
      "channel": 2,
      "note": 71,
      "start": 28.792,
      "duration": 0.0796,
      "velocity": 98,
      "chip": "ym2612"
    },
    {
      "channel": 0,
      "note": 42,
      "start": 28.7951,
      "duration": 0.143,
      "velocity": 106,
      "chip": "ym2612"
    },
    {
      "channel": 4,
      "note": 55,
      "start": 28.7981,
      "duration": 0.1234,
      "velocity": 120,
      "chip": "ym2612"
    },
    {
      "channel": 2,
      "note": 60,
      "start": 28.9422,
      "duration": 0.1297,
      "velocity": 98,
      "chip": "ym2612"
    },
    {
      "channel": 1,
      "note": 79,
      "start": 28.9456,
      "duration": 0.0759,
      "velocity": 88,
      "chip": "ym2612"
    },
    {
      "channel": 5,
      "note": 74,
      "start": 28.9492,
      "duration": 0.1073,
      "velocity": 88,
      "chip": "ym2612"
    },
    {
      "channel": 0,
      "note": 32,
      "start": 28.952,
      "duration": 0.153,
      "velocity": 106,
      "chip": "ym2612"
    },
    {
      "channel": 2,
      "note": 72,
      "start": 29.1089,
      "duration": 0.1299,
      "velocity": 98,
      "chip": "ym2612"
    },
    {
      "channel": 1,
      "note": 76,
      "start": 29.1123,
      "duration": 0.0428,
      "velocity": 88,
      "chip": "ym2612"
    },
    {
      "channel": 5,
      "note": 81,
      "start": 29.1154,
      "duration": 0.0399,
      "velocity": 88,
      "chip": "ym2612"
    },
    {
      "channel": 0,
      "note": 32,
      "start": 29.1182,
      "duration": 0.1537,
      "velocity": 106,
      "chip": "ym2612"
    },
    {
      "channel": 4,
      "note": 55,
      "start": 29.1212,
      "duration": 0.1174,
      "velocity": 120,
      "chip": "ym2612"
    },
    {
      "channel": 2,
      "note": 62,
      "start": 29.2758,
      "duration": 0.1299,
      "velocity": 98,
      "chip": "ym2612"
    },
    {
      "channel": 1,
      "note": 84,
      "start": 29.2792,
      "duration": 0.1261,
      "velocity": 88,
      "chip": "ym2612"
    },
    {
      "channel": 5,
      "note": 79,
      "start": 29.2823,
      "duration": 0.1233,
      "velocity": 88,
      "chip": "ym2612"
    },
    {
      "channel": 0,
      "note": 42,
      "start": 29.2851,
      "duration": 0.1369,
      "velocity": 106,
      "chip": "ym2612"
    },
    {
      "channel": 2,
      "note": 74,
      "start": 29.4261,
      "duration": 0.113,
      "velocity": 98,
      "chip": "ym2612"
    },
    {
      "channel": 0,
      "note": 32,
      "start": 29.4293,
      "duration": 0.1596,
      "velocity": 106,
      "chip": "ym2612"
    },
    {
      "channel": 4,
      "note": 55,
      "start": 29.4322,
      "duration": 0.125,
      "velocity": 120,
      "chip": "ym2612"
    },
    {
      "channel": 2,
      "note": 75,
      "start": 29.5929,
      "duration": 0.1312,
      "velocity": 98,
      "chip": "ym2612"
    },
    {
      "channel": 1,
      "note": 79,
      "start": 29.5963,
      "duration": 0.0762,
      "velocity": 88,
      "chip": "ym2612"
    },
    {
      "channel": 5,
      "note": 84,
      "start": 29.5998,
      "duration": 0.0729,
      "velocity": 88,
      "chip": "ym2612"
    },
    {
      "channel": 0,
      "note": 42,
      "start": 29.603,
      "duration": 0.136,
      "velocity": 106,
      "chip": "ym2612"
    },
    {
      "channel": 2,
      "note": 63,
      "start": 29.7431,
      "duration": 0.1131,
      "velocity": 98,
      "chip": "ym2612"
    },
    {
      "channel": 1,
      "note": 81,
      "start": 29.7464,
      "duration": 0.0763,
      "velocity": 88,
      "chip": "ym2612"
    },
    {
      "channel": 5,
      "note": 76,
      "start": 29.7494,
      "duration": 0.0735,
      "velocity": 88,
      "chip": "ym2612"
    },
    {
      "channel": 0,
      "note": 42,
      "start": 29.7526,
      "duration": 0.07,
      "velocity": 106,
      "chip": "ym2612"
    },
    {
      "channel": 4,
      "note": 55,
      "start": 29.7556,
      "duration": 0.1172,
      "velocity": 120,
      "chip": "ym2612"
    },
    {
      "channel": 0,
      "note": 42,
      "start": 29.8267,
      "duration": 0.1627,
      "velocity": 106,
      "chip": "ym2612"
    },
    {
      "channel": 2,
      "note": 62,
      "start": 29.9099,
      "duration": 0.1298,
      "velocity": 98,
      "chip": "ym2612"
    },
    {
      "channel": 1,
      "note": 79,
      "start": 29.9133,
      "duration": 0.1597,
      "velocity": 88,
      "chip": "ym2612"
    },
    {
      "channel": 5,
      "note": 83,
      "start": 29.9163,
      "duration": 0.1569,
      "velocity": 88,
      "chip": "ym2612"
    },
    {
      "channel": 4,
      "note": 32,
      "start": 29.9196,
      "duration": 0.1536,
      "velocity": 106,
      "chip": "ym2612"
    },
    {
      "channel": 2,
      "note": 74,
      "start": 30.0775,
      "duration": 0.0958,
      "velocity": 98,
      "chip": "ym2612"
    },
    {
      "channel": 0,
      "note": 42,
      "start": 30.0807,
      "duration": 0.144,
      "velocity": 106,
      "chip": "ym2612"
    },
    {
      "channel": 1,
      "note": 55,
      "start": 30.0838,
      "duration": 0.1227,
      "velocity": 120,
      "chip": "ym2612"
    },
    {
      "channel": 2,
      "note": 72,
      "start": 30.2285,
      "duration": 0.1117,
      "velocity": 98,
      "chip": "ym2612"
    },
    {
      "channel": 5,
      "note": 84,
      "start": 30.232,
      "duration": 0.1598,
      "velocity": 88,
      "chip": "ym2612"
    },
    {
      "channel": 4,
      "note": 79,
      "start": 30.2353,
      "duration": 0.1724,
      "velocity": 88,
      "chip": "ym2612"
    },
    {
      "channel": 0,
      "note": 32,
      "start": 30.2381,
      "duration": 0.1534,
      "velocity": 106,
      "chip": "ym2612"
    },
    {
      "channel": 2,
      "note": 60,
      "start": 30.3954,
      "duration": 0.0949,
      "velocity": 98,
      "chip": "ym2612"
    },
    {
      "channel": 0,
      "note": 32,
      "start": 30.3986,
      "duration": 0.1415,
      "velocity": 106,
      "chip": "ym2612"
    },
    {
      "channel": 1,
      "note": 55,
      "start": 30.4015,
      "duration": 0.122,
      "velocity": 120,
      "chip": "ym2612"
    },
    {
      "channel": 2,
      "note": 59,
      "start": 30.544,
      "duration": 0.1132,
      "velocity": 98,
      "chip": "ym2612"
    },
    {
      "channel": 4,
      "note": 83,
      "start": 30.5478,
      "duration": 0.1928,
      "velocity": 88,
      "chip": "ym2612"
    },
    {
      "channel": 5,
      "note": 79,
      "start": 30.5509,
      "duration": 0.1898,
      "velocity": 88,
      "chip": "ym2612"
    },
    {
      "channel": 0,
      "note": 42,
      "start": 30.5537,
      "duration": 0.1533,
      "velocity": 106,
      "chip": "ym2612"
    },
    {
      "channel": 2,
      "note": 71,
      "start": 30.711,
      "duration": 0.098,
      "velocity": 98,
      "chip": "ym2612"
    },
    {
      "channel": 0,
      "note": 42,
      "start": 30.7145,
      "duration": 0.076,
      "velocity": 106,
      "chip": "ym2612"
    },
    {
      "channel": 1,
      "note": 55,
      "start": 30.7177,
      "duration": 0.1229,
      "velocity": 120,
      "chip": "ym2612"
    },
    {
      "channel": 0,
      "note": 42,
      "start": 30.795,
      "duration": 0.0789,
      "velocity": 106,
      "chip": "ym2612"
    },
    {
      "channel": 4,
      "note": 69,
      "start": 30.8788,
      "duration": 0.062,
      "velocity": 104,
      "chip": "ym2612"
    },
    {
      "channel": 5,
      "note": 76,
      "start": 30.8822,
      "duration": 0.042,
      "velocity": 104,
      "chip": "ym2612"
    },
    {
      "channel": 2,
      "note": 39,
      "start": 30.8854,
      "duration": 0.1223,
      "velocity": 116,
      "chip": "ym2612"
    },
    {
      "channel": 1,
      "note": 37,
      "start": 30.8889,
      "duration": 0.2187,
      "velocity": 124,
      "chip": "ym2612"
    },
    {
      "channel": 0,
      "note": 64,
      "start": 31.0283,
      "duration": 0.1294,
      "velocity": 98,
      "chip": "ym2612"
    },
    {
      "channel": 5,
      "note": 85,
      "start": 31.0326,
      "duration": 0.1253,
      "velocity": 127,
      "chip": "ym2612"
    },
    {
      "channel": 0,
      "note": 54,
      "start": 31.1944,
      "duration": 0.13,
      "velocity": 98,
      "chip": "ym2612"
    },
    {
      "channel": 4,
      "note": 69,
      "start": 31.1985,
      "duration": 0.076,
      "velocity": 104,
      "chip": "ym2612"
    },
    {
      "channel": 2,
      "note": 76,
      "start": 31.202,
      "duration": 0.0728,
      "velocity": 104,
      "chip": "ym2612"
    },
    {
      "channel": 1,
      "note": 37,
      "start": 31.2057,
      "duration": 0.2189,
      "velocity": 124,
      "chip": "ym2612"
    },
    {
      "channel": 0,
      "note": 66,
      "start": 31.3448,
      "duration": 0.1132,
      "velocity": 98,
      "chip": "ym2612"
    },
    {
      "channel": 5,
      "note": 85,
      "start": 31.3485,
      "duration": 0.1279,
      "velocity": 127,
      "chip": "ym2612"
    },
    {
      "channel": 0,
      "note": 55,
      "start": 31.5117,
      "duration": 0.1314,
      "velocity": 98,
      "chip": "ym2612"
    },
    {
      "channel": 2,
      "note": 39,
      "start": 31.5152,
      "duration": 0.1282,
      "velocity": 116,
      "chip": "ym2612"
    },
    {
      "channel": 1,
      "note": 37,
      "start": 31.5183,
      "duration": 0.2234,
      "velocity": 124,
      "chip": "ym2612"
    },
    {
      "channel": 0,
      "note": 67,
      "start": 31.679,
      "duration": 0.0961,
      "velocity": 98,
      "chip": "ym2612"
    },
    {
      "channel": 5,
      "note": 85,
      "start": 31.6827,
      "duration": 0.1275,
      "velocity": 127,
      "chip": "ym2612"
    },
    {
      "channel": 0,
      "note": 54,
      "start": 31.8286,
      "duration": 0.1135,
      "velocity": 98,
      "chip": "ym2612"
    },
    {
      "channel": 2,
      "note": 39,
      "start": 31.8321,
      "duration": 0.1268,
      "velocity": 116,
      "chip": "ym2612"
    },
    {
      "channel": 1,
      "note": 37,
      "start": 31.8352,
      "duration": 0.2403,
      "velocity": 124,
      "chip": "ym2612"
    },
    {
      "channel": 0,
      "note": 66,
      "start": 31.9956,
      "duration": 0.0965,
      "velocity": 98,
      "chip": "ym2612"
    },
    {
      "channel": 5,
      "note": 85,
      "start": 31.9995,
      "duration": 0.1263,
      "velocity": 127,
      "chip": "ym2612"
    },
    {
      "channel": 0,
      "note": 52,
      "start": 32.1473,
      "duration": 0.1284,
      "velocity": 98,
      "chip": "ym2612"
    },
    {
      "channel": 4,
      "note": 69,
      "start": 32.1509,
      "duration": 0.0764,
      "velocity": 104,
      "chip": "ym2612"
    },
    {
      "channel": 2,
      "note": 76,
      "start": 32.1543,
      "duration": 0.0732,
      "velocity": 104,
      "chip": "ym2612"
    },
    {
      "channel": 1,
      "note": 37,
      "start": 32.1583,
      "duration": 0.2358,
      "velocity": 124,
      "chip": "ym2612"
    },
    {
      "channel": 0,
      "note": 64,
      "start": 32.3142,
      "duration": 0.095,
      "velocity": 98,
      "chip": "ym2612"
    },
    {
      "channel": 2,
      "note": 39,
      "start": 32.3178,
      "duration": 0.125,
      "velocity": 116,
      "chip": "ym2612"
    },
    {
      "channel": 0,
      "note": 54,
      "start": 32.4812,
      "duration": 0.1283,
      "velocity": 98,
      "chip": "ym2612"
    },
    {
      "channel": 4,
      "note": 76,
      "start": 32.4848,
      "duration": 0.0582,
      "velocity": 104,
      "chip": "ym2612"
    },
    {
      "channel": 5,
      "note": 69,
      "start": 32.4881,
      "duration": 0.055,
      "velocity": 104,
      "chip": "ym2612"
    },
    {
      "channel": 1,
      "note": 85,
      "start": 32.4917,
      "duration": 0.1179,
      "velocity": 127,
      "chip": "ym2612"
    },
    {
      "channel": 2,
      "note": 37,
      "start": 32.4955,
      "duration": 0.1354,
      "velocity": 124,
      "chip": "ym2612"
    },
    {
      "channel": 0,
      "note": 66,
      "start": 32.6298,
      "duration": 0.0799,
      "velocity": 98,
      "chip": "ym2612"
    },
    {
      "channel": 2,
      "note": 39,
      "start": 32.6333,
      "duration": 0.1266,
      "velocity": 116,
      "chip": "ym2612"
    },
    {
      "channel": 0,
      "note": 55,
      "start": 32.7967,
      "duration": 0.1299,
      "velocity": 98,
      "chip": "ym2612"
    },
    {
      "channel": 1,
      "note": 85,
      "start": 32.8002,
      "duration": 0.1265,
      "velocity": 127,
      "chip": "ym2612"
    },
    {
      "channel": 4,
      "note": 37,
      "start": 32.8035,
      "duration": 0.2234,
      "velocity": 124,
      "chip": "ym2612"
    },
    {
      "channel": 0,
      "note": 67,
      "start": 32.9468,
      "duration": 0.1147,
      "velocity": 98,
      "chip": "ym2612"
    },
    {
      "channel": 2,
      "note": 39,
      "start": 32.9503,
      "duration": 0.1266,
      "velocity": 116,
      "chip": "ym2612"
    },
    {
      "channel": 0,
      "note": 54,
      "start": 33.1136,
      "duration": 0.0966,
      "velocity": 98,
      "chip": "ym2612"
    },
    {
      "channel": 1,
      "note": 85,
      "start": 33.1173,
      "duration": 0.1264,
      "velocity": 127,
      "chip": "ym2612"
    },
    {
      "channel": 4,
      "note": 37,
      "start": 33.1203,
      "duration": 0.2236,
      "velocity": 124,
      "chip": "ym2612"
    },
    {
      "channel": 0,
      "note": 66,
      "start": 33.281,
      "duration": 0.0962,
      "velocity": 98,
      "chip": "ym2612"
    },
    {
      "channel": 2,
      "note": 39,
      "start": 33.2846,
      "duration": 0.1261,
      "velocity": 116,
      "chip": "ym2612"
    },
    {
      "channel": 5,
      "note": 76,
      "start": 33.4314,
      "duration": 0.0795,
      "velocity": 104,
      "chip": "ym2612"
    },
    {
      "channel": 1,
      "note": 69,
      "start": 33.4352,
      "duration": 0.0755,
      "velocity": 104,
      "chip": "ym2612"
    },
    {
      "channel": 2,
      "note": 39,
      "start": 33.4388,
      "duration": 0.1236,
      "velocity": 116,
      "chip": "ym2612"
    },
    {
      "channel": 4,
      "note": 37,
      "start": 33.4421,
      "duration": 0.2357,
      "velocity": 124,
      "chip": "ym2612"
    },
    {
      "channel": 0,
      "note": 64,
      "start": 33.5988,
      "duration": 0.0954,
      "velocity": 98,
      "chip": "ym2612"
    },
    {
      "channel": 1,
      "note": 85,
      "start": 33.6028,
      "duration": 0.1264,
      "velocity": 127,
      "chip": "ym2612"
    },
    {
      "channel": 0,
      "note": 54,
      "start": 33.7478,
      "duration": 0.1133,
      "velocity": 98,
      "chip": "ym2612"
    },
    {
      "channel": 5,
      "note": 76,
      "start": 33.7515,
      "duration": 0.0764,
      "velocity": 104,
      "chip": "ym2612"
    },
    {
      "channel": 2,
      "note": 69,
      "start": 33.7549,
      "duration": 0.0731,
      "velocity": 104,
      "chip": "ym2612"
    },
    {
      "channel": 4,
      "note": 37,
      "start": 33.7588,
      "duration": 0.236,
      "velocity": 124,
      "chip": "ym2612"
    },
    {
      "channel": 0,
      "note": 66,
      "start": 33.9147,
      "duration": 0.0966,
      "velocity": 98,
      "chip": "ym2612"
    },
    {
      "channel": 1,
      "note": 85,
      "start": 33.9182,
      "duration": 0.1266,
      "velocity": 127,
      "chip": "ym2612"
    },
    {
      "channel": 0,
      "note": 55,
      "start": 34.0815,
      "duration": 0.0967,
      "velocity": 98,
      "chip": "ym2612"
    },
    {
      "channel": 2,
      "note": 39,
      "start": 34.085,
      "duration": 0.1268,
      "velocity": 116,
      "chip": "ym2612"
    },
    {
      "channel": 4,
      "note": 37,
      "start": 34.0882,
      "duration": 0.2252,
      "velocity": 124,
      "chip": "ym2612"
    },
    {
      "channel": 0,
      "note": 67,
      "start": 34.2333,
      "duration": 0.1118,
      "velocity": 98,
      "chip": "ym2612"
    },
    {
      "channel": 1,
      "note": 85,
      "start": 34.2368,
      "duration": 0.125,
      "velocity": 127,
      "chip": "ym2612"
    },
    {
      "channel": 0,
      "note": 57,
      "start": 34.4002,
      "duration": 0.1284,
      "velocity": 98,
      "chip": "ym2612"
    },
    {
      "channel": 2,
      "note": 39,
      "start": 34.4037,
      "duration": 0.1253,
      "velocity": 116,
      "chip": "ym2612"
    },
    {
      "channel": 4,
      "note": 37,
      "start": 34.4069,
      "duration": 0.222,
      "velocity": 124,
      "chip": "ym2612"
    },
    {
      "channel": 0,
      "note": 69,
      "start": 34.549,
      "duration": 0.1131,
      "velocity": 98,
      "chip": "ym2612"
    },
    {
      "channel": 5,
      "note": 72,
      "start": 34.5527,
      "duration": 0.1597,
      "velocity": 104,
      "chip": "ym2612"
    },
    {
      "channel": 1,
      "note": 79,
      "start": 34.5563,
      "duration": 0.1226,
      "velocity": 104,
      "chip": "ym2612"
    },
    {
      "channel": 2,
      "note": 85,
      "start": 34.5603,
      "duration": 0.1189,
      "velocity": 127,
      "chip": "ym2612"
    },
    {
      "channel": 0,
      "note": 58,
      "start": 34.716,
      "duration": 0.1298,
      "velocity": 98,
      "chip": "ym2612"
    },
    {
      "channel": 1,
      "note": 75,
      "start": 34.7196,
      "duration": 0.0761,
      "velocity": 104,
      "chip": "ym2612"
    },
    {
      "channel": 5,
      "note": 82,
      "start": 34.7234,
      "duration": 0.0905,
      "velocity": 104,
      "chip": "ym2612"
    },
    {
      "channel": 2,
      "note": 39,
      "start": 34.7267,
      "duration": 0.1193,
      "velocity": 116,
      "chip": "ym2612"
    },
    {
      "channel": 4,
      "note": 37,
      "start": 34.7315,
      "duration": 0.2145,
      "velocity": 124,
      "chip": "ym2612"
    },
    {
      "channel": 0,
      "note": 70,
      "start": 34.8827,
      "duration": 0.0981,
      "velocity": 98,
      "chip": "ym2612"
    },
    {
      "channel": 2,
      "note": 39,
      "start": 34.8863,
      "duration": 0.1265,
      "velocity": 116,
      "chip": "ym2612"
    },
    {
      "channel": 0,
      "note": 57,
      "start": 35.0331,
      "duration": 0.1145,
      "velocity": 98,
      "chip": "ym2612"
    },
    {
      "channel": 1,
      "note": 75,
      "start": 35.0368,
      "duration": 0.0761,
      "velocity": 104,
      "chip": "ym2612"
    },
    {
      "channel": 5,
      "note": 82,
      "start": 35.04,
      "duration": 0.073,
      "velocity": 104,
      "chip": "ym2612"
    },
    {
      "channel": 4,
      "note": 85,
      "start": 35.0436,
      "duration": 0.1193,
      "velocity": 127,
      "chip": "ym2612"
    },
    {
      "channel": 2,
      "note": 37,
      "start": 35.047,
      "duration": 0.1537,
      "velocity": 124,
      "chip": "ym2612"
    },
    {
      "channel": 0,
      "note": 69,
      "start": 35.1996,
      "duration": 0.0967,
      "velocity": 98,
      "chip": "ym2612"
    },
    {
      "channel": 2,
      "note": 39,
      "start": 35.2031,
      "duration": 0.1268,
      "velocity": 116,
      "chip": "ym2612"
    },
    {
      "channel": 0,
      "note": 55,
      "start": 35.35,
      "duration": 0.1312,
      "velocity": 98,
      "chip": "ym2612"
    },
    {
      "channel": 4,
      "note": 85,
      "start": 35.3537,
      "duration": 0.1278,
      "velocity": 127,
      "chip": "ym2612"
    },
    {
      "channel": 1,
      "note": 37,
      "start": 35.3569,
      "duration": 0.2398,
      "velocity": 124,
      "chip": "ym2612"
    },
    {
      "channel": 0,
      "note": 67,
      "start": 35.5169,
      "duration": 0.0964,
      "velocity": 98,
      "chip": "ym2612"
    },
    {
      "channel": 2,
      "note": 39,
      "start": 35.5204,
      "duration": 0.128,
      "velocity": 116,
      "chip": "ym2612"
    },
    {
      "channel": 0,
      "note": 58,
      "start": 35.6838,
      "duration": 0.1313,
      "velocity": 98,
      "chip": "ym2612"
    },
    {
      "channel": 4,
      "note": 85,
      "start": 35.6877,
      "duration": 0.1276,
      "velocity": 127,
      "chip": "ym2612"
    },
    {
      "channel": 1,
      "note": 37,
      "start": 35.6907,
      "duration": 0.223,
      "velocity": 124,
      "chip": "ym2612"
    },
    {
      "channel": 0,
      "note": 70,
      "start": 35.8341,
      "duration": 0.1129,
      "velocity": 98,
      "chip": "ym2612"
    },
    {
      "channel": 5,
      "note": 74,
      "start": 35.8379,
      "duration": 0.1261,
      "velocity": 104,
      "chip": "ym2612"
    },
    {
      "channel": 2,
      "note": 79,
      "start": 35.8413,
      "duration": 0.1228,
      "velocity": 104,
      "chip": "ym2612"
    },
    {
      "channel": 5,
      "note": 69,
      "start": 36.0015,
      "duration": 0.0793,
      "velocity": 104,
      "chip": "ym2612"
    },
    {
      "channel": 2,
      "note": 76,
      "start": 36.0049,
      "duration": 0.0761,
      "velocity": 104,
      "chip": "ym2612"
    },
    {
      "channel": 1,
      "note": 37,
      "start": 36.0089,
      "duration": 0.2234,
      "velocity": 124,
      "chip": "ym2612"
    },
    {
      "channel": 0,
      "note": 64,
      "start": 36.1525,
      "duration": 0.1117,
      "velocity": 98,
      "chip": "ym2612"
    },
    {
      "channel": 4,
      "note": 55,
      "start": 36.1562,
      "duration": 0.1249,
      "velocity": 120,
      "chip": "ym2612"
    },
    {
      "channel": 0,
      "note": 54,
      "start": 36.3194,
      "duration": 0.1284,
      "velocity": 98,
      "chip": "ym2612"
    },
    {
      "channel": 5,
      "note": 69,
      "start": 36.3234,
      "duration": 0.076,
      "velocity": 104,
      "chip": "ym2612"
    },
    {
      "channel": 2,
      "note": 76,
      "start": 36.3268,
      "duration": 0.0728,
      "velocity": 104,
      "chip": "ym2612"
    },
    {
      "channel": 1,
      "note": 37,
      "start": 36.3306,
      "duration": 0.2174,
      "velocity": 124,
      "chip": "ym2612"
    },
    {
      "channel": 0,
      "note": 66,
      "start": 36.4866,
      "duration": 0.0946,
      "velocity": 98,
      "chip": "ym2612"
    },
    {
      "channel": 4,
      "note": 55,
      "start": 36.4904,
      "duration": 0.1253,
      "velocity": 120,
      "chip": "ym2612"
    },
    {
      "channel": 0,
      "note": 55,
      "start": 36.6349,
      "duration": 0.1134,
      "velocity": 98,
      "chip": "ym2612"
    },
    {
      "channel": 2,
      "note": 39,
      "start": 36.6383,
      "duration": 0.1268,
      "velocity": 116,
      "chip": "ym2612"
    },
    {
      "channel": 1,
      "note": 37,
      "start": 36.6415,
      "duration": 0.2402,
      "velocity": 124,
      "chip": "ym2612"
    },
    {
      "channel": 0,
      "note": 67,
      "start": 36.8019,
      "duration": 0.1298,
      "velocity": 98,
      "chip": "ym2612"
    },
    {
      "channel": 4,
      "note": 55,
      "start": 36.8053,
      "duration": 0.1266,
      "velocity": 120,
      "chip": "ym2612"
    },
    {
      "channel": 0,
      "note": 54,
      "start": 36.952,
      "duration": 0.1147,
      "velocity": 98,
      "chip": "ym2612"
    },
    {
      "channel": 2,
      "note": 39,
      "start": 36.9559,
      "duration": 0.1262,
      "velocity": 116,
      "chip": "ym2612"
    },
    {
      "channel": 1,
      "note": 37,
      "start": 36.959,
      "duration": 0.2398,
      "velocity": 124,
      "chip": "ym2612"
    },
    {
      "channel": 0,
      "note": 66,
      "start": 37.119,
      "duration": 0.0964,
      "velocity": 98,
      "chip": "ym2612"
    },
    {
      "channel": 5,
      "note": 79,
      "start": 37.1228,
      "duration": 0.1597,
      "velocity": 104,
      "chip": "ym2612"
    },
    {
      "channel": 4,
      "note": 72,
      "start": 37.1261,
      "duration": 0.1562,
      "velocity": 104,
      "chip": "ym2612"
    },
    {
      "channel": 2,
      "note": 55,
      "start": 37.1296,
      "duration": 0.1194,
      "velocity": 120,
      "chip": "ym2612"
    },
    {
      "channel": 4,
      "note": 69,
      "start": 37.2867,
      "duration": 0.0457,
      "velocity": 104,
      "chip": "ym2612"
    },
    {
      "channel": 5,
      "note": 76,
      "start": 37.2901,
      "duration": 0.059,
      "velocity": 104,
      "chip": "ym2612"
    },
    {
      "channel": 2,
      "note": 39,
      "start": 37.2934,
      "duration": 0.1225,
      "velocity": 116,
      "chip": "ym2612"
    },
    {
      "channel": 1,
      "note": 37,
      "start": 37.2965,
      "duration": 0.2193,
      "velocity": 124,
      "chip": "ym2612"
    },
    {
      "channel": 0,
      "note": 64,
      "start": 37.436,
      "duration": 0.1132,
      "velocity": 98,
      "chip": "ym2612"
    },
    {
      "channel": 2,
      "note": 39,
      "start": 37.4397,
      "duration": 0.1279,
      "velocity": 116,
      "chip": "ym2612"
    },
    {
      "channel": 0,
      "note": 54,
      "start": 37.6029,
      "duration": 0.1314,
      "velocity": 98,
      "chip": "ym2612"
    },
    {
      "channel": 4,
      "note": 76,
      "start": 37.6068,
      "duration": 0.0759,
      "velocity": 104,
      "chip": "ym2612"
    },
    {
      "channel": 5,
      "note": 69,
      "start": 37.6101,
      "duration": 0.0728,
      "velocity": 104,
      "chip": "ym2612"
    },
    {
      "channel": 1,
      "note": 85,
      "start": 37.6137,
      "duration": 0.1207,
      "velocity": 127,
      "chip": "ym2612"
    },
    {
      "channel": 2,
      "note": 37,
      "start": 37.6174,
      "duration": 0.1368,
      "velocity": 124,
      "chip": "ym2612"
    },
    {
      "channel": 0,
      "note": 66,
      "start": 37.7532,
      "duration": 0.1132,
      "velocity": 98,
      "chip": "ym2612"
    },
    {
      "channel": 2,
      "note": 39,
      "start": 37.7567,
      "duration": 0.1264,
      "velocity": 116,
      "chip": "ym2612"
    },
    {
      "channel": 0,
      "note": 50,
      "start": 37.9199,
      "duration": 0.1299,
      "velocity": 98,
      "chip": "ym2612"
    },
    {
      "channel": 1,
      "note": 85,
      "start": 37.9235,
      "duration": 0.1264,
      "velocity": 127,
      "chip": "ym2612"
    },
    {
      "channel": 4,
      "note": 37,
      "start": 37.9267,
      "duration": 0.2249,
      "velocity": 124,
      "chip": "ym2612"
    },
    {
      "channel": 0,
      "note": 62,
      "start": 38.0871,
      "duration": 0.1296,
      "velocity": 98,
      "chip": "ym2612"
    },
    {
      "channel": 2,
      "note": 39,
      "start": 38.0906,
      "duration": 0.1265,
      "velocity": 116,
      "chip": "ym2612"
    },
    {
      "channel": 0,
      "note": 55,
      "start": 38.2515,
      "duration": 0.0987,
      "velocity": 98,
      "chip": "ym2612"
    },
    {
      "channel": 1,
      "note": 85,
      "start": 38.2553,
      "duration": 0.1117,
      "velocity": 127,
      "chip": "ym2612"
    },
    {
      "channel": 4,
      "note": 37,
      "start": 38.2583,
      "duration": 0.227,
      "velocity": 124,
      "chip": "ym2612"
    },
    {
      "channel": 0,
      "note": 67,
      "start": 38.4054,
      "duration": 0.1283,
      "velocity": 98,
      "chip": "ym2612"
    },
    {
      "channel": 5,
      "note": 79,
      "start": 38.4093,
      "duration": 0.0913,
      "velocity": 104,
      "chip": "ym2612"
    },
    {
      "channel": 2,
      "note": 72,
      "start": 38.4128,
      "duration": 0.1379,
      "velocity": 104,
      "chip": "ym2612"
    },
    {
      "channel": 0,
      "note": 66,
      "start": 38.5541,
      "duration": 0.1131,
      "velocity": 98,
      "chip": "ym2612"
    },
    {
      "channel": 5,
      "note": 69,
      "start": 38.558,
      "duration": 0.0761,
      "velocity": 104,
      "chip": "ym2612"
    },
    {
      "channel": 2,
      "note": 76,
      "start": 38.5613,
      "duration": 0.0729,
      "velocity": 104,
      "chip": "ym2612"
    },
    {
      "channel": 4,
      "note": 37,
      "start": 38.5654,
      "duration": 0.2355,
      "velocity": 124,
      "chip": "ym2612"
    },
    {
      "channel": 0,
      "note": 64,
      "start": 38.721,
      "duration": 0.1298,
      "velocity": 98,
      "chip": "ym2612"
    },
    {
      "channel": 1,
      "note": 85,
      "start": 38.7247,
      "duration": 0.1262,
      "velocity": 127,
      "chip": "ym2612"
    },
    {
      "channel": 0,
      "note": 54,
      "start": 38.8877,
      "duration": 0.13,
      "velocity": 98,
      "chip": "ym2612"
    },
    {
      "channel": 5,
      "note": 69,
      "start": 38.8914,
      "duration": 0.0598,
      "velocity": 104,
      "chip": "ym2612"
    },
    {
      "channel": 2,
      "note": 76,
      "start": 38.8951,
      "duration": 0.0561,
      "velocity": 104,
      "chip": "ym2612"
    },
    {
      "channel": 4,
      "note": 37,
      "start": 38.899,
      "duration": 0.2191,
      "velocity": 124,
      "chip": "ym2612"
    },
    {
      "channel": 0,
      "note": 66,
      "start": 39.0381,
      "duration": 0.0798,
      "velocity": 98,
      "chip": "ym2612"
    },
    {
      "channel": 1,
      "note": 85,
      "start": 39.0416,
      "duration": 0.1263,
      "velocity": 127,
      "chip": "ym2612"
    },
    {
      "channel": 0,
      "note": 55,
      "start": 39.2049,
      "duration": 0.0966,
      "velocity": 98,
      "chip": "ym2612"
    },
    {
      "channel": 2,
      "note": 39,
      "start": 39.2083,
      "duration": 0.1268,
      "velocity": 116,
      "chip": "ym2612"
    },
    {
      "channel": 4,
      "note": 37,
      "start": 39.2116,
      "duration": 0.2235,
      "velocity": 124,
      "chip": "ym2612"
    },
    {
      "channel": 0,
      "note": 67,
      "start": 39.3549,
      "duration": 0.1133,
      "velocity": 98,
      "chip": "ym2612"
    },
    {
      "channel": 1,
      "note": 85,
      "start": 39.3585,
      "duration": 0.128,
      "velocity": 127,
      "chip": "ym2612"
    },
    {
      "channel": 0,
      "note": 57,
      "start": 39.5224,
      "duration": 0.131,
      "velocity": 98,
      "chip": "ym2612"
    },
    {
      "channel": 5,
      "note": 72,
      "start": 39.5262,
      "duration": 0.1275,
      "velocity": 104,
      "chip": "ym2612"
    },
    {
      "channel": 2,
      "note": 79,
      "start": 39.5298,
      "duration": 0.1557,
      "velocity": 104,
      "chip": "ym2612"
    },
    {
      "channel": 4,
      "note": 37,
      "start": 39.5337,
      "duration": 0.2196,
      "velocity": 124,
      "chip": "ym2612"
    },
    {
      "channel": 0,
      "note": 69,
      "start": 39.689,
      "duration": 0.0641,
      "velocity": 98,
      "chip": "ym2612"
    },
    {
      "channel": 5,
      "note": 74,
      "start": 39.6926,
      "duration": 0.143,
      "velocity": 104,
      "chip": "ym2612"
    },
    {
      "channel": 2,
      "note": 81,
      "start": 39.696,
      "duration": 0.1398,
      "velocity": 104,
      "chip": "ym2612"
    },
    {
      "channel": 1,
      "note": 85,
      "start": 39.6998,
      "duration": 0.1206,
      "velocity": 127,
      "chip": "ym2612"
    },
    {
      "channel": 0,
      "note": 70,
      "start": 39.8393,
      "duration": 0.114,
      "velocity": 98,
      "chip": "ym2612"
    },
    {
      "channel": 5,
      "note": 75,
      "start": 39.8431,
      "duration": 0.1105,
      "velocity": 104,
      "chip": "ym2612"
    },
    {
      "channel": 2,
      "note": 82,
      "start": 39.847,
      "duration": 0.0722,
      "velocity": 104,
      "chip": "ym2612"
    },
    {
      "channel": 4,
      "note": 37,
      "start": 39.851,
      "duration": 0.2349,
      "velocity": 124,
      "chip": "ym2612"
    },
    {
      "channel": 0,
      "note": 58,
      "start": 40.006,
      "duration": 0.1799,
      "velocity": 98,
      "chip": "ym2612"
    },
    {
      "channel": 2,
      "note": 39,
      "start": 40.01,
      "duration": 0.1261,
      "velocity": 116,
      "chip": "ym2612"
    },
    {
      "channel": 1,
      "note": 57,
      "start": 40.158,
      "duration": 0.1629,
      "velocity": 98,
      "chip": "ym2612"
    },
    {
      "channel": 5,
      "note": 75,
      "start": 40.1616,
      "duration": 0.0761,
      "velocity": 104,
      "chip": "ym2612"
    },
    {
      "channel": 4,
      "note": 82,
      "start": 40.165,
      "duration": 0.0727,
      "velocity": 104,
      "chip": "ym2612"
    },
    {
      "channel": 2,
      "note": 85,
      "start": 40.1687,
      "duration": 0.1176,
      "velocity": 127,
      "chip": "ym2612"
    },
    {
      "channel": 0,
      "note": 69,
      "start": 40.3246,
      "duration": 0.0798,
      "velocity": 98,
      "chip": "ym2612"
    },
    {
      "channel": 2,
      "note": 39,
      "start": 40.3281,
      "duration": 0.1251,
      "velocity": 116,
      "chip": "ym2612"
    },
    {
      "channel": 0,
      "note": 70,
      "start": 40.4915,
      "duration": 0.1284,
      "velocity": 98,
      "chip": "ym2612"
    },
    {
      "channel": 4,
      "note": 83,
      "start": 40.4951,
      "duration": 0.0581,
      "velocity": 104,
      "chip": "ym2612"
    },
    {
      "channel": 5,
      "note": 76,
      "start": 40.4985,
      "duration": 0.0882,
      "velocity": 104,
      "chip": "ym2612"
    },
    {
      "channel": 1,
      "note": 85,
      "start": 40.5019,
      "duration": 0.1181,
      "velocity": 127,
      "chip": "ym2612"
    },
    {
      "channel": 2,
      "note": 37,
      "start": 40.5053,
      "duration": 0.1359,
      "velocity": 124,
      "chip": "ym2612"
    },
    {
      "channel": 0,
      "note": 58,
      "start": 40.6402,
      "duration": 0.1632,
      "velocity": 98,
      "chip": "ym2612"
    },
    {
      "channel": 2,
      "note": 39,
      "start": 40.6437,
      "duration": 0.1266,
      "velocity": 116,
      "chip": "ym2612"
    },
    {
      "channel": 0,
      "note": 59,
      "start": 40.8075,
      "duration": 0.1294,
      "velocity": 98,
      "chip": "ym2612"
    },
    {
      "channel": 4,
      "note": 82,
      "start": 40.8112,
      "duration": 0.126,
      "velocity": 104,
      "chip": "ym2612"
    },
    {
      "channel": 5,
      "note": 75,
      "start": 40.8145,
      "duration": 0.1229,
      "velocity": 104,
      "chip": "ym2612"
    },
    {
      "channel": 1,
      "note": 85,
      "start": 40.8179,
      "duration": 0.1192,
      "velocity": 127,
      "chip": "ym2612"
    },
    {
      "channel": 2,
      "note": 37,
      "start": 40.823,
      "duration": 0.1424,
      "velocity": 124,
      "chip": "ym2612"
    },
    {
      "channel": 0,
      "note": 71,
      "start": 40.9573,
      "duration": 0.0798,
      "velocity": 98,
      "chip": "ym2612"
    },
    {
      "channel": 4,
      "note": 81,
      "start": 40.9612,
      "duration": 0.126,
      "velocity": 104,
      "chip": "ym2612"
    },
    {
      "channel": 5,
      "note": 74,
      "start": 40.9645,
      "duration": 0.1229,
      "velocity": 104,
      "chip": "ym2612"
    },
    {
      "channel": 2,
      "note": 39,
      "start": 40.9679,
      "duration": 0.1197,
      "velocity": 116,
      "chip": "ym2612"
    },
    {
      "channel": 0,
      "note": 75,
      "start": 41.1249,
      "duration": 0.0956,
      "velocity": 98,
      "chip": "ym2612"
    },
    {
      "channel": 1,
      "note": 87,
      "start": 41.1293,
      "duration": 0.158,
      "velocity": 104,
      "chip": "ym2612"
    },
    {
      "channel": 4,
      "note": 76,
      "start": 41.1328,
      "duration": 0.0712,
      "velocity": 104,
      "chip": "ym2612"
    },
    {
      "channel": 5,
      "note": 69,
      "start": 41.1361,
      "duration": 0.0681,
      "velocity": 104,
      "chip": "ym2612"
    },
    {
      "channel": 2,
      "note": 46,
      "start": 41.1396,
      "duration": 0.1479,
      "velocity": 106,
      "chip": "ym2612"
    },
    {
      "channel": 0,
      "note": 72,
      "start": 41.291,
      "duration": 0.0965,
      "velocity": 98,
      "chip": "ym2612"
    },
    {
      "channel": 1,
      "note": 84,
      "start": 41.2942,
      "duration": 0.1434,
      "velocity": 104,
      "chip": "ym2612"
    },
    {
      "channel": 2,
      "note": 46,
      "start": 41.2974,
      "duration": 0.1404,
      "velocity": 106,
      "chip": "ym2612"
    },
    {
      "channel": 4,
      "note": 85,
      "start": 41.3009,
      "duration": 0.12,
      "velocity": 127,
      "chip": "ym2612"
    },
    {
      "channel": 0,
      "note": 69,
      "start": 41.4412,
      "duration": 0.1132,
      "velocity": 98,
      "chip": "ym2612"
    },
    {
      "channel": 1,
      "note": 81,
      "start": 41.4444,
      "duration": 0.16,
      "velocity": 104,
      "chip": "ym2612"
    },
    {
      "channel": 5,
      "note": 69,
      "start": 41.4478,
      "duration": 0.0735,
      "velocity": 104,
      "chip": "ym2612"
    },
    {
      "channel": 4,
      "note": 76,
      "start": 41.4512,
      "duration": 0.07,
      "velocity": 104,
      "chip": "ym2612"
    },
    {
      "channel": 2,
      "note": 32,
      "start": 41.4544,
      "duration": 0.1504,
      "velocity": 106,
      "chip": "ym2612"
    },
    {
      "channel": 0,
      "note": 66,
      "start": 41.6083,
      "duration": 0.0796,
      "velocity": 98,
      "chip": "ym2612"
    },
    {
      "channel": 1,
      "note": 78,
      "start": 41.6115,
      "duration": 0.1432,
      "velocity": 104,
      "chip": "ym2612"
    },
    {
      "channel": 2,
      "note": 46,
      "start": 41.6147,
      "duration": 0.1402,
      "velocity": 106,
      "chip": "ym2612"
    },
    {
      "channel": 4,
      "note": 85,
      "start": 41.6181,
      "duration": 0.1214,
      "velocity": 127,
      "chip": "ym2612"
    },
    {
      "channel": 0,
      "note": 63,
      "start": 41.7585,
      "duration": 0.1129,
      "velocity": 98,
      "chip": "ym2612"
    },
    {
      "channel": 1,
      "note": 75,
      "start": 41.7617,
      "duration": 0.1598,
      "velocity": 104,
      "chip": "ym2612"
    },
    {
      "channel": 5,
      "note": 75,
      "start": 41.7653,
      "duration": 0.1565,
      "velocity": 104,
      "chip": "ym2612"
    },
    {
      "channel": 2,
      "note": 32,
      "start": 41.7684,
      "duration": 0.1535,
      "velocity": 106,
      "chip": "ym2612"
    },
    {
      "channel": 0,
      "note": 60,
      "start": 41.9257,
      "duration": 0.096,
      "velocity": 98,
      "chip": "ym2612"
    },
    {
      "channel": 1,
      "note": 72,
      "start": 41.9289,
      "duration": 0.1595,
      "velocity": 104,
      "chip": "ym2612"
    },
    {
      "channel": 5,
      "note": 72,
      "start": 41.9325,
      "duration": 0.156,
      "velocity": 104,
      "chip": "ym2612"
    },
    {
      "channel": 2,
      "note": 32,
      "start": 41.9357,
      "duration": 0.153,
      "velocity": 106,
      "chip": "ym2612"
    },
    {
      "channel": 4,
      "note": 85,
      "start": 41.9389,
      "duration": 0.1162,
      "velocity": 127,
      "chip": "ym2612"
    },
    {
      "channel": 0,
      "note": 57,
      "start": 42.0921,
      "duration": 0.0964,
      "velocity": 98,
      "chip": "ym2612"
    },
    {
      "channel": 1,
      "note": 69,
      "start": 42.0953,
      "duration": 0.1448,
      "velocity": 104,
      "chip": "ym2612"
    },
    {
      "channel": 5,
      "note": 69,
      "start": 42.0986,
      "duration": 0.1417,
      "velocity": 104,
      "chip": "ym2612"
    },
    {
      "channel": 2,
      "note": 46,
      "start": 42.1017,
      "duration": 0.1387,
      "velocity": 106,
      "chip": "ym2612"
    },
    {
      "channel": 0,
      "note": 54,
      "start": 42.2438,
      "duration": 0.1116,
      "velocity": 98,
      "chip": "ym2612"
    },
    {
      "channel": 1,
      "note": 66,
      "start": 42.247,
      "duration": 0.1599,
      "velocity": 104,
      "chip": "ym2612"
    },
    {
      "channel": 5,
      "note": 66,
      "start": 42.2503,
      "duration": 0.1569,
      "velocity": 104,
      "chip": "ym2612"
    },
    {
      "channel": 2,
      "note": 32,
      "start": 42.2534,
      "duration": 0.1539,
      "velocity": 106,
      "chip": "ym2612"
    },
    {
      "channel": 4,
      "note": 85,
      "start": 42.2568,
      "duration": 0.1153,
      "velocity": 127,
      "chip": "ym2612"
    },
    {
      "channel": 0,
      "note": 78,
      "start": 42.4107,
      "duration": 0.0949,
      "velocity": 98,
      "chip": "ym2612"
    },
    {
      "channel": 4,
      "note": 99,
      "start": 42.4141,
      "duration": 0.1417,
      "velocity": 127,
      "chip": "ym2612"
    },
    {
      "channel": 1,
      "note": 90,
      "start": 42.4172,
      "duration": 0.1385,
      "velocity": 104,
      "chip": "ym2612"
    },
    {
      "channel": 5,
      "note": 63,
      "start": 42.4205,
      "duration": 0.1355,
      "velocity": 104,
      "chip": "ym2612"
    },
    {
      "channel": 2,
      "note": 46,
      "start": 42.4237,
      "duration": 0.1325,
      "velocity": 106,
      "chip": "ym2612"
    },
    {
      "channel": 0,
      "note": 75,
      "start": 42.5595,
      "duration": 0.113,
      "velocity": 98,
      "chip": "ym2612"
    },
    {
      "channel": 4,
      "note": 96,
      "start": 42.5625,
      "duration": 0.1602,
      "velocity": 127,
      "chip": "ym2612"
    },
    {
      "channel": 1,
      "note": 87,
      "start": 42.566,
      "duration": 0.1566,
      "velocity": 104,
      "chip": "ym2612"
    },
    {
      "channel": 5,
      "note": 60,
      "start": 42.5693,
      "duration": 0.1536,
      "velocity": 104,
      "chip": "ym2612"
    },
    {
      "channel": 2,
      "note": 46,
      "start": 42.5739,
      "duration": 0.1491,
      "velocity": 106,
      "chip": "ym2612"
    },
    {
      "channel": 0,
      "note": 72,
      "start": 42.7263,
      "duration": 0.0978,
      "velocity": 98,
      "chip": "ym2612"
    },
    {
      "channel": 4,
      "note": 93,
      "start": 42.7293,
      "duration": 0.1609,
      "velocity": 127,
      "chip": "ym2612"
    },
    {
      "channel": 1,
      "note": 84,
      "start": 42.7325,
      "duration": 0.1576,
      "velocity": 104,
      "chip": "ym2612"
    },
    {
      "channel": 5,
      "note": 57,
      "start": 42.7357,
      "duration": 0.1546,
      "velocity": 104,
      "chip": "ym2612"
    },
    {
      "channel": 2,
      "note": 32,
      "start": 42.7405,
      "duration": 0.15,
      "velocity": 106,
      "chip": "ym2612"
    },
    {
      "channel": 0,
      "note": 69,
      "start": 42.894,
      "duration": 0.0621,
      "velocity": 98,
      "chip": "ym2612"
    },
    {
      "channel": 4,
      "note": 90,
      "start": 42.897,
      "duration": 0.1428,
      "velocity": 127,
      "chip": "ym2612"
    },
    {
      "channel": 1,
      "note": 81,
      "start": 42.9001,
      "duration": 0.1395,
      "velocity": 104,
      "chip": "ym2612"
    },
    {
      "channel": 5,
      "note": 54,
      "start": 42.9034,
      "duration": 0.1365,
      "velocity": 104,
      "chip": "ym2612"
    },
    {
      "channel": 2,
      "note": 46,
      "start": 42.908,
      "duration": 0.132,
      "velocity": 106,
      "chip": "ym2612"
    },
    {
      "channel": 0,
      "note": 66,
      "start": 43.0435,
      "duration": 0.1144,
      "velocity": 98,
      "chip": "ym2612"
    },
    {
      "channel": 4,
      "note": 87,
      "start": 43.0465,
      "duration": 0.1602,
      "velocity": 127,
      "chip": "ym2612"
    },
    {
      "channel": 1,
      "note": 78,
      "start": 43.0496,
      "duration": 0.1569,
      "velocity": 104,
      "chip": "ym2612"
    },
    {
      "channel": 5,
      "note": 78,
      "start": 43.0529,
      "duration": 0.154,
      "velocity": 104,
      "chip": "ym2612"
    },
    {
      "channel": 2,
      "note": 32,
      "start": 43.0564,
      "duration": 0.1505,
      "velocity": 106,
      "chip": "ym2612"
    },
    {
      "channel": 0,
      "note": 63,
      "start": 43.2104,
      "duration": 0.0962,
      "velocity": 98,
      "chip": "ym2612"
    },
    {
      "channel": 4,
      "note": 84,
      "start": 43.2134,
      "duration": 0.1436,
      "velocity": 127,
      "chip": "ym2612"
    },
    {
      "channel": 1,
      "note": 75,
      "start": 43.2165,
      "duration": 0.1403,
      "velocity": 104,
      "chip": "ym2612"
    },
    {
      "channel": 5,
      "note": 75,
      "start": 43.2197,
      "duration": 0.1373,
      "velocity": 104,
      "chip": "ym2612"
    },
    {
      "channel": 2,
      "note": 46,
      "start": 43.2232,
      "duration": 0.067,
      "velocity": 106,
      "chip": "ym2612"
    },
    {
      "channel": 2,
      "note": 46,
      "start": 43.2941,
      "duration": 0.0631,
      "velocity": 106,
      "chip": "ym2612"
    },
    {
      "channel": 0,
      "note": 60,
      "start": 43.3605,
      "duration": 0.1129,
      "velocity": 98,
      "chip": "ym2612"
    },
    {
      "channel": 4,
      "note": 81,
      "start": 43.3636,
      "duration": 0.1602,
      "velocity": 127,
      "chip": "ym2612"
    },
    {
      "channel": 1,
      "note": 72,
      "start": 43.3667,
      "duration": 0.157,
      "velocity": 104,
      "chip": "ym2612"
    },
    {
      "channel": 5,
      "note": 72,
      "start": 43.3699,
      "duration": 0.154,
      "velocity": 104,
      "chip": "ym2612"
    },
    {
      "channel": 2,
      "note": 32,
      "start": 43.3734,
      "duration": 0.1507,
      "velocity": 106,
      "chip": "ym2612"
    },
    {
      "channel": 0,
      "note": 57,
      "start": 43.5274,
      "duration": 0.0962,
      "velocity": 98,
      "chip": "ym2612"
    },
    {
      "channel": 4,
      "note": 78,
      "start": 43.5304,
      "duration": 0.1603,
      "velocity": 127,
      "chip": "ym2612"
    },
    {
      "channel": 1,
      "note": 69,
      "start": 43.5335,
      "duration": 0.157,
      "velocity": 104,
      "chip": "ym2612"
    },
    {
      "channel": 5,
      "note": 69,
      "start": 43.5368,
      "duration": 0.1541,
      "velocity": 104,
      "chip": "ym2612"
    },
    {
      "channel": 2,
      "note": 46,
      "start": 43.54,
      "duration": 0.151,
      "velocity": 106,
      "chip": "ym2612"
    },
    {
      "channel": 0,
      "note": 81,
      "start": 43.6944,
      "duration": 0.0962,
      "velocity": 98,
      "chip": "ym2612"
    },
    {
      "channel": 4,
      "note": 102,
      "start": 43.6973,
      "duration": 0.1435,
      "velocity": 127,
      "chip": "ym2612"
    },
    {
      "channel": 1,
      "note": 93,
      "start": 43.7005,
      "duration": 0.1402,
      "velocity": 104,
      "chip": "ym2612"
    },
    {
      "channel": 5,
      "note": 66,
      "start": 43.7037,
      "duration": 0.1372,
      "velocity": 104,
      "chip": "ym2612"
    },
    {
      "channel": 2,
      "note": 46,
      "start": 43.7069,
      "duration": 0.1342,
      "velocity": 106,
      "chip": "ym2612"
    },
    {
      "channel": 0,
      "note": 78,
      "start": 43.8444,
      "duration": 0.113,
      "velocity": 98,
      "chip": "ym2612"
    },
    {
      "channel": 4,
      "note": 99,
      "start": 43.8474,
      "duration": 0.1603,
      "velocity": 127,
      "chip": "ym2612"
    },
    {
      "channel": 1,
      "note": 90,
      "start": 43.8505,
      "duration": 0.157,
      "velocity": 104,
      "chip": "ym2612"
    },
    {
      "channel": 5,
      "note": 63,
      "start": 43.8538,
      "duration": 0.1541,
      "velocity": 104,
      "chip": "ym2612"
    },
    {
      "channel": 2,
      "note": 46,
      "start": 43.857,
      "duration": 0.151,
      "velocity": 106,
      "chip": "ym2612"
    },
    {
      "channel": 0,
      "note": 75,
      "start": 44.0114,
      "duration": 0.0963,
      "velocity": 98,
      "chip": "ym2612"
    },
    {
      "channel": 4,
      "note": 96,
      "start": 44.0144,
      "duration": 0.1451,
      "velocity": 127,
      "chip": "ym2612"
    },
    {
      "channel": 1,
      "note": 87,
      "start": 44.0175,
      "duration": 0.1418,
      "velocity": 104,
      "chip": "ym2612"
    },
    {
      "channel": 5,
      "note": 60,
      "start": 44.0207,
      "duration": 0.1388,
      "velocity": 104,
      "chip": "ym2612"
    },
    {
      "channel": 2,
      "note": 32,
      "start": 44.0244,
      "duration": 0.1353,
      "velocity": 106,
      "chip": "ym2612"
    },
    {
      "channel": 0,
      "note": 72,
      "start": 44.1636,
      "duration": 0.0791,
      "velocity": 98,
      "chip": "ym2612"
    },
    {
      "channel": 4,
      "note": 93,
      "start": 44.1666,
      "duration": 0.1597,
      "velocity": 127,
      "chip": "ym2612"
    },
    {
      "channel": 1,
      "note": 84,
      "start": 44.1697,
      "duration": 0.1564,
      "velocity": 104,
      "chip": "ym2612"
    },
    {
      "channel": 5,
      "note": 57,
      "start": 44.1729,
      "duration": 0.1535,
      "velocity": 104,
      "chip": "ym2612"
    },
    {
      "channel": 2,
      "note": 46,
      "start": 44.1761,
      "duration": 0.1504,
      "velocity": 106,
      "chip": "ym2612"
    },
    {
      "channel": 0,
      "note": 69,
      "start": 44.33,
      "duration": 0.0954,
      "velocity": 98,
      "chip": "ym2612"
    },
    {
      "channel": 4,
      "note": 90,
      "start": 44.3334,
      "duration": 0.1598,
      "velocity": 127,
      "chip": "ym2612"
    },
    {
      "channel": 1,
      "note": 81,
      "start": 44.3366,
      "duration": 0.1565,
      "velocity": 104,
      "chip": "ym2612"
    },
    {
      "channel": 5,
      "note": 81,
      "start": 44.3398,
      "duration": 0.1536,
      "velocity": 104,
      "chip": "ym2612"
    },
    {
      "channel": 2,
      "note": 32,
      "start": 44.343,
      "duration": 0.1505,
      "velocity": 106,
      "chip": "ym2612"
    },
    {
      "channel": 0,
      "note": 66,
      "start": 44.4969,
      "duration": 0.0948,
      "velocity": 98,
      "chip": "ym2612"
    },
    {
      "channel": 4,
      "note": 87,
      "start": 44.4999,
      "duration": 0.142,
      "velocity": 127,
      "chip": "ym2612"
    },
    {
      "channel": 1,
      "note": 78,
      "start": 44.503,
      "duration": 0.1387,
      "velocity": 104,
      "chip": "ym2612"
    },
    {
      "channel": 5,
      "note": 78,
      "start": 44.5066,
      "duration": 0.1354,
      "velocity": 104,
      "chip": "ym2612"
    },
    {
      "channel": 2,
      "note": 32,
      "start": 44.5098,
      "duration": 0.1324,
      "velocity": 106,
      "chip": "ym2612"
    },
    {
      "channel": 0,
      "note": 63,
      "start": 44.6455,
      "duration": 0.113,
      "velocity": 98,
      "chip": "ym2612"
    },
    {
      "channel": 4,
      "note": 84,
      "start": 44.6485,
      "duration": 0.1603,
      "velocity": 127,
      "chip": "ym2612"
    },
    {
      "channel": 1,
      "note": 75,
      "start": 44.6516,
      "duration": 0.157,
      "velocity": 104,
      "chip": "ym2612"
    },
    {
      "channel": 5,
      "note": 75,
      "start": 44.6549,
      "duration": 0.154,
      "velocity": 104,
      "chip": "ym2612"
    },
    {
      "channel": 2,
      "note": 46,
      "start": 44.6595,
      "duration": 0.1495,
      "velocity": 106,
      "chip": "ym2612"
    },
    {
      "channel": 0,
      "note": 60,
      "start": 44.8124,
      "duration": 0.0978,
      "velocity": 98,
      "chip": "ym2612"
    },
    {
      "channel": 4,
      "note": 81,
      "start": 44.8154,
      "duration": 0.1436,
      "velocity": 127,
      "chip": "ym2612"
    },
    {
      "channel": 1,
      "note": 72,
      "start": 44.8185,
      "duration": 0.1403,
      "velocity": 104,
      "chip": "ym2612"
    },
    {
      "channel": 5,
      "note": 72,
      "start": 44.8217,
      "duration": 0.1374,
      "velocity": 104,
      "chip": "ym2612"
    },
    {
      "channel": 2,
      "note": 32,
      "start": 44.8268,
      "duration": 0.1324,
      "velocity": 106,
      "chip": "ym2612"
    },
    {
      "channel": 0,
      "note": 84,
      "start": 44.9626,
      "duration": 0.1145,
      "velocity": 98,
      "chip": "ym2612"
    },
    {
      "channel": 4,
      "note": 105,
      "start": 44.9656,
      "duration": 0.1602,
      "velocity": 127,
      "chip": "ym2612"
    },
    {
      "channel": 1,
      "note": 96,
      "start": 44.9687,
      "duration": 0.1569,
      "velocity": 104,
      "chip": "ym2612"
    },
    {
      "channel": 5,
      "note": 69,
      "start": 44.972,
      "duration": 0.1539,
      "velocity": 104,
      "chip": "ym2612"
    },
    {
      "channel": 2,
      "note": 46,
      "start": 44.9752,
      "duration": 0.1509,
      "velocity": 106,
      "chip": "ym2612"
    },
    {
      "channel": 0,
      "note": 81,
      "start": 45.1294,
      "duration": 0.0964,
      "velocity": 98,
      "chip": "ym2612"
    },
    {
      "channel": 4,
      "note": 102,
      "start": 45.1324,
      "duration": 0.1604,
      "velocity": 127,
      "chip": "ym2612"
    },
    {
      "channel": 1,
      "note": 93,
      "start": 45.1359,
      "duration": 0.1567,
      "velocity": 104,
      "chip": "ym2612"
    },
    {
      "channel": 5,
      "note": 66,
      "start": 45.1392,
      "duration": 0.1537,
      "velocity": 104,
      "chip": "ym2612"
    },
    {
      "channel": 2,
      "note": 46,
      "start": 45.1426,
      "duration": 0.0667,
      "velocity": 106,
      "chip": "ym2612"
    },
    {
      "channel": 2,
      "note": 46,
      "start": 45.2132,
      "duration": 0.0799,
      "velocity": 106,
      "chip": "ym2612"
    },
    {
      "channel": 0,
      "note": 78,
      "start": 45.2964,
      "duration": 0.0962,
      "velocity": 98,
      "chip": "ym2612"
    },
    {
      "channel": 4,
      "note": 99,
      "start": 45.2994,
      "duration": 0.1435,
      "velocity": 127,
      "chip": "ym2612"
    },
    {
      "channel": 1,
      "note": 90,
      "start": 45.3025,
      "duration": 0.1402,
      "velocity": 104,
      "chip": "ym2612"
    },
    {
      "channel": 5,
      "note": 63,
      "start": 45.3058,
      "duration": 0.1373,
      "velocity": 104,
      "chip": "ym2612"
    },
    {
      "channel": 2,
      "note": 32,
      "start": 45.3092,
      "duration": 0.1339,
      "velocity": 106,
      "chip": "ym2612"
    },
    {
      "channel": 0,
      "note": 75,
      "start": 45.4467,
      "duration": 0.0795,
      "velocity": 98,
      "chip": "ym2612"
    },
    {
      "channel": 4,
      "note": 96,
      "start": 45.4497,
      "duration": 0.1601,
      "velocity": 127,
      "chip": "ym2612"
    },
    {
      "channel": 1,
      "note": 87,
      "start": 45.4528,
      "duration": 0.1568,
      "velocity": 104,
      "chip": "ym2612"
    },
    {
      "channel": 5,
      "note": 60,
      "start": 45.456,
      "duration": 0.1539,
      "velocity": 104,
      "chip": "ym2612"
    },
    {
      "channel": 2,
      "note": 46,
      "start": 45.4592,
      "duration": 0.1509,
      "velocity": 106,
      "chip": "ym2612"
    },
    {
      "channel": 0,
      "note": 72,
      "start": 45.6136,
      "duration": 0.0961,
      "velocity": 98,
      "chip": "ym2612"
    },
    {
      "channel": 4,
      "note": 93,
      "start": 45.6166,
      "duration": 0.1434,
      "velocity": 127,
      "chip": "ym2612"
    },
    {
      "channel": 1,
      "note": 84,
      "start": 45.6197,
      "duration": 0.1401,
      "velocity": 104,
      "chip": "ym2612"
    },
    {
      "channel": 5,
      "note": 84,
      "start": 45.6229,
      "duration": 0.1371,
      "velocity": 104,
      "chip": "ym2612"
    },
    {
      "channel": 2,
      "note": 32,
      "start": 45.6261,
      "duration": 0.1341,
      "velocity": 106,
      "chip": "ym2612"
    },
    {
      "channel": 0,
      "note": 69,
      "start": 45.7635,
      "duration": 0.1131,
      "velocity": 98,
      "chip": "ym2612"
    },
    {
      "channel": 4,
      "note": 90,
      "start": 45.7665,
      "duration": 0.1603,
      "velocity": 127,
      "chip": "ym2612"
    },
    {
      "channel": 1,
      "note": 81,
      "start": 45.7697,
      "duration": 0.157,
      "velocity": 104,
      "chip": "ym2612"
    },
    {
      "channel": 5,
      "note": 81,
      "start": 45.7729,
      "duration": 0.154,
      "velocity": 104,
      "chip": "ym2612"
    },
    {
      "channel": 2,
      "note": 32,
      "start": 45.7761,
      "duration": 0.151,
      "velocity": 106,
      "chip": "ym2612"
    },
    {
      "channel": 0,
      "note": 66,
      "start": 45.9304,
      "duration": 0.0963,
      "velocity": 98,
      "chip": "ym2612"
    },
    {
      "channel": 4,
      "note": 87,
      "start": 45.9334,
      "duration": 0.1602,
      "velocity": 127,
      "chip": "ym2612"
    },
    {
      "channel": 1,
      "note": 78,
      "start": 45.9366,
      "duration": 0.157,
      "velocity": 104,
      "chip": "ym2612"
    },
    {
      "channel": 5,
      "note": 78,
      "start": 45.9398,
      "duration": 0.154,
      "velocity": 104,
      "chip": "ym2612"
    },
    {
      "channel": 2,
      "note": 46,
      "start": 45.943,
      "duration": 0.151,
      "velocity": 106,
      "chip": "ym2612"
    },
    {
      "channel": 0,
      "note": 63,
      "start": 46.098,
      "duration": 0.0967,
      "velocity": 98,
      "chip": "ym2612"
    },
    {
      "channel": 4,
      "note": 84,
      "start": 46.101,
      "duration": 0.1445,
      "velocity": 127,
      "chip": "ym2612"
    },
    {
      "channel": 1,
      "note": 75,
      "start": 46.1044,
      "duration": 0.1409,
      "velocity": 104,
      "chip": "ym2612"
    },
    {
      "channel": 5,
      "note": 75,
      "start": 46.108,
      "duration": 0.1376,
      "velocity": 104,
      "chip": "ym2612"
    },
    {
      "channel": 2,
      "note": 40,
      "start": 46.1114,
      "duration": 0.0506,
      "velocity": 106,
      "chip": "ym2612"
    },
    {
      "channel": 2,
      "note": 40,
      "start": 46.1662,
      "duration": 0.0795,
      "velocity": 106,
      "chip": "ym2612"
    },
    {
      "channel": 4,
      "note": 108,
      "start": 46.2492,
      "duration": 0.1631,
      "velocity": 127,
      "chip": "ym2612"
    },
    {
      "channel": 2,
      "note": 40,
      "start": 46.2528,
      "duration": 0.1596,
      "velocity": 106,
      "chip": "ym2612"
    },
    {
      "channel": 4,
      "note": 105,
      "start": 46.4158,
      "duration": 0.1451,
      "velocity": 127,
      "chip": "ym2612"
    },
    {
      "channel": 2,
      "note": 40,
      "start": 46.4195,
      "duration": 0.0763,
      "velocity": 106,
      "chip": "ym2612"
    },
    {
      "channel": 2,
      "note": 40,
      "start": 46.4996,
      "duration": 0.0615,
      "velocity": 106,
      "chip": "ym2612"
    },
    {
      "channel": 4,
      "note": 102,
      "start": 46.5645,
      "duration": 0.1634,
      "velocity": 127,
      "chip": "ym2612"
    },
    {
      "channel": 2,
      "note": 32,
      "start": 46.5681,
      "duration": 0.1599,
      "velocity": 106,
      "chip": "ym2612"
    },
    {
      "channel": 4,
      "note": 99,
      "start": 46.7314,
      "duration": 0.1633,
      "velocity": 127,
      "chip": "ym2612"
    },
    {
      "channel": 2,
      "note": 32,
      "start": 46.7351,
      "duration": 0.0762,
      "velocity": 106,
      "chip": "ym2612"
    },
    {
      "channel": 2,
      "note": 32,
      "start": 46.8152,
      "duration": 0.0797,
      "velocity": 106,
      "chip": "ym2612"
    },
    {
      "channel": 4,
      "note": 96,
      "start": 46.8987,
      "duration": 0.1461,
      "velocity": 127,
      "chip": "ym2612"
    },
    {
      "channel": 2,
      "note": 40,
      "start": 46.9027,
      "duration": 0.1422,
      "velocity": 106,
      "chip": "ym2612"
    },
    {
      "channel": 4,
      "note": 93,
      "start": 47.0484,
      "duration": 0.1633,
      "velocity": 127,
      "chip": "ym2612"
    },
    {
      "channel": 2,
      "note": 40,
      "start": 47.0518,
      "duration": 0.1602,
      "velocity": 106,
      "chip": "ym2612"
    },
    {
      "channel": 4,
      "note": 90,
      "start": 47.2153,
      "duration": 0.1466,
      "velocity": 127,
      "chip": "ym2612"
    },
    {
      "channel": 2,
      "note": 32,
      "start": 47.2187,
      "duration": 0.1434,
      "velocity": 106,
      "chip": "ym2612"
    },
    {
      "channel": 4,
      "note": 87,
      "start": 47.3655,
      "duration": 0.1633,
      "velocity": 127,
      "chip": "ym2612"
    },
    {
      "channel": 2,
      "note": 32,
      "start": 47.3688,
      "duration": 0.1602,
      "velocity": 106,
      "chip": "ym2612"
    },
    {
      "channel": 4,
      "note": 83,
      "start": 47.5324,
      "duration": 0.1633,
      "velocity": 127,
      "chip": "ym2612"
    },
    {
      "channel": 2,
      "note": 40,
      "start": 47.5358,
      "duration": 0.1602,
      "velocity": 106,
      "chip": "ym2612"
    },
    {
      "channel": 4,
      "note": 83,
      "start": 47.6993,
      "duration": 0.1466,
      "velocity": 127,
      "chip": "ym2612"
    },
    {
      "channel": 2,
      "note": 40,
      "start": 47.703,
      "duration": 0.0596,
      "velocity": 106,
      "chip": "ym2612"
    },
    {
      "channel": 2,
      "note": 40,
      "start": 47.7665,
      "duration": 0.0796,
      "velocity": 106,
      "chip": "ym2612"
    },
    {
      "channel": 4,
      "note": 83,
      "start": 47.8495,
      "duration": 0.1633,
      "velocity": 127,
      "chip": "ym2612"
    },
    {
      "channel": 2,
      "note": 32,
      "start": 47.8532,
      "duration": 0.1599,
      "velocity": 106,
      "chip": "ym2612"
    },
    {
      "channel": 4,
      "note": 83,
      "start": 48.0164,
      "duration": 0.1481,
      "velocity": 127,
      "chip": "ym2612"
    },
    {
      "channel": 2,
      "note": 32,
      "start": 48.0201,
      "duration": 0.0762,
      "velocity": 106,
      "chip": "ym2612"
    },
    {
      "channel": 2,
      "note": 32,
      "start": 48.1006,
      "duration": 0.0641,
      "velocity": 106,
      "chip": "ym2612"
    },
    {
      "channel": 4,
      "note": 83,
      "start": 48.1683,
      "duration": 0.1632,
      "velocity": 127,
      "chip": "ym2612"
    },
    {
      "channel": 0,
      "note": 95,
      "start": 48.1715,
      "duration": 0.1597,
      "velocity": 127,
      "chip": "ym2612"
    },
    {
      "channel": 2,
      "note": 40,
      "start": 48.1752,
      "duration": 0.1565,
      "velocity": 106,
      "chip": "ym2612"
    },
    {
      "channel": 2,
      "note": 40,
      "start": 48.3359,
      "duration": 0.0791,
      "velocity": 106,
      "chip": "ym2612"
    },
    {
      "channel": 2,
      "note": 40,
      "start": 48.4188,
      "duration": 0.0795,
      "velocity": 106,
      "chip": "ym2612"
    },
    {
      "channel": 2,
      "note": 32,
      "start": 48.5025,
      "duration": 0.1446,
      "velocity": 106,
      "chip": "ym2612"
    },
    {
      "channel": 2,
      "note": 32,
      "start": 48.651,
      "duration": 0.163,
      "velocity": 106,
      "chip": "ym2612"
    },
    {
      "channel": 2,
      "note": 32,
      "start": 48.8182,
      "duration": 0.146,
      "velocity": 106,
      "chip": "ym2612"
    },
    {
      "channel": 1,
      "note": 37,
      "start": 48.8228,
      "duration": 0.2246,
      "velocity": 124,
      "chip": "ym2612"
    },
    {
      "channel": 1,
      "note": 37,
      "start": 49.1351,
      "duration": 0.2293,
      "velocity": 124,
      "chip": "ym2612"
    },
    {
      "channel": 1,
      "note": 37,
      "start": 49.4522,
      "duration": 0.2461,
      "velocity": 124,
      "chip": "ym2612"
    },
    {
      "channel": 1,
      "note": 37,
      "start": 49.7692,
      "duration": 0.2461,
      "velocity": 124,
      "chip": "ym2612"
    },
    {
      "channel": 1,
      "note": 37,
      "start": 50.1037,
      "duration": 0.2301,
      "velocity": 124,
      "chip": "ym2612"
    },
    {
      "channel": 1,
      "note": 37,
      "start": 50.4216,
      "duration": 0.2278,
      "velocity": 124,
      "chip": "ym2612"
    },
    {
      "channel": 1,
      "note": 37,
      "start": 50.7372,
      "duration": 0.2294,
      "velocity": 124,
      "chip": "ym2612"
    },
    {
      "channel": 1,
      "note": 37,
      "start": 51.0543,
      "duration": 0.2459,
      "velocity": 124,
      "chip": "ym2612"
    },
    {
      "channel": 5,
      "note": 54,
      "start": 51.3711,
      "duration": 0.131,
      "velocity": 88,
      "chip": "ym2612"
    },
    {
      "channel": 1,
      "note": 37,
      "start": 51.3758,
      "duration": 0.2416,
      "velocity": 124,
      "chip": "ym2612"
    },
    {
      "channel": 5,
      "note": 57,
      "start": 51.5384,
      "duration": 0.0793,
      "velocity": 88,
      "chip": "ym2612"
    },
    {
      "channel": 5,
      "note": 57,
      "start": 51.7042,
      "duration": 0.0635,
      "velocity": 88,
      "chip": "ym2612"
    },
    {
      "channel": 1,
      "note": 37,
      "start": 51.708,
      "duration": 0.2264,
      "velocity": 124,
      "chip": "ym2612"
    },
    {
      "channel": 5,
      "note": 57,
      "start": 51.8543,
      "duration": 0.0804,
      "velocity": 88,
      "chip": "ym2612"
    },
    {
      "channel": 5,
      "note": 52,
      "start": 52.0212,
      "duration": 0.0802,
      "velocity": 88,
      "chip": "ym2612"
    },
    {
      "channel": 1,
      "note": 37,
      "start": 52.0251,
      "duration": 0.2278,
      "velocity": 124,
      "chip": "ym2612"
    },
    {
      "channel": 5,
      "note": 52,
      "start": 52.173,
      "duration": 0.113,
      "velocity": 88,
      "chip": "ym2612"
    },
    {
      "channel": 5,
      "note": 52,
      "start": 52.3398,
      "duration": 0.0954,
      "velocity": 88,
      "chip": "ym2612"
    },
    {
      "channel": 1,
      "note": 37,
      "start": 52.3437,
      "duration": 0.2248,
      "velocity": 124,
      "chip": "ym2612"
    },
    {
      "channel": 5,
      "note": 52,
      "start": 52.5066,
      "duration": 0.0955,
      "velocity": 88,
      "chip": "ym2612"
    },
    {
      "channel": 5,
      "note": 59,
      "start": 52.6554,
      "duration": 0.1137,
      "velocity": 88,
      "chip": "ym2612"
    },
    {
      "channel": 1,
      "note": 37,
      "start": 52.6601,
      "duration": 0.2423,
      "velocity": 124,
      "chip": "ym2612"
    },
    {
      "channel": 5,
      "note": 59,
      "start": 52.8225,
      "duration": 0.0801,
      "velocity": 88,
      "chip": "ym2612"
    },
    {
      "channel": 5,
      "note": 59,
      "start": 52.9725,
      "duration": 0.0802,
      "velocity": 88,
      "chip": "ym2612"
    },
    {
      "channel": 1,
      "note": 37,
      "start": 52.9763,
      "duration": 0.2431,
      "velocity": 124,
      "chip": "ym2612"
    },
    {
      "channel": 5,
      "note": 59,
      "start": 53.1398,
      "duration": 0.0965,
      "velocity": 88,
      "chip": "ym2612"
    },
    {
      "channel": 5,
      "note": 54,
      "start": 53.3062,
      "duration": 0.097,
      "velocity": 88,
      "chip": "ym2612"
    },
    {
      "channel": 1,
      "note": 37,
      "start": 53.3104,
      "duration": 0.226,
      "velocity": 124,
      "chip": "ym2612"
    },
    {
      "channel": 5,
      "note": 54,
      "start": 53.4566,
      "duration": 0.0801,
      "velocity": 88,
      "chip": "ym2612"
    },
    {
      "channel": 5,
      "note": 54,
      "start": 53.6232,
      "duration": 0.0803,
      "velocity": 88,
      "chip": "ym2612"
    },
    {
      "channel": 1,
      "note": 37,
      "start": 53.6271,
      "duration": 0.2265,
      "velocity": 124,
      "chip": "ym2612"
    },
    {
      "channel": 5,
      "note": 54,
      "start": 53.7736,
      "duration": 0.0802,
      "velocity": 88,
      "chip": "ym2612"
    },
    {
      "channel": 5,
      "note": 54,
      "start": 53.9404,
      "duration": 0.0803,
      "velocity": 88,
      "chip": "ym2612"
    },
    {
      "channel": 1,
      "note": 37,
      "start": 53.9451,
      "duration": 0.2271,
      "velocity": 124,
      "chip": "ym2612"
    },
    {
      "channel": 5,
      "note": 57,
      "start": 54.1075,
      "duration": 0.0967,
      "velocity": 88,
      "chip": "ym2612"
    },
    {
      "channel": 5,
      "note": 57,
      "start": 54.2589,
      "duration": 0.1121,
      "velocity": 88,
      "chip": "ym2612"
    },
    {
      "channel": 1,
      "note": 37,
      "start": 54.2627,
      "duration": 0.2431,
      "velocity": 124,
      "chip": "ym2612"
    },
    {
      "channel": 5,
      "note": 57,
      "start": 54.4259,
      "duration": 0.0801,
      "velocity": 88,
      "chip": "ym2612"
    },
    {
      "channel": 5,
      "note": 52,
      "start": 54.5744,
      "duration": 0.0802,
      "velocity": 88,
      "chip": "ym2612"
    },
    {
      "channel": 1,
      "note": 37,
      "start": 54.5783,
      "duration": 0.2431,
      "velocity": 124,
      "chip": "ym2612"
    },
    {
      "channel": 5,
      "note": 52,
      "start": 54.7414,
      "duration": 0.0802,
      "velocity": 88,
      "chip": "ym2612"
    },
    {
      "channel": 5,
      "note": 52,
      "start": 54.9083,
      "duration": 0.0635,
      "velocity": 88,
      "chip": "ym2612"
    },
    {
      "channel": 1,
      "note": 37,
      "start": 54.9122,
      "duration": 0.2264,
      "velocity": 124,
      "chip": "ym2612"
    },
    {
      "channel": 5,
      "note": 50,
      "start": 55.059,
      "duration": 0.1146,
      "velocity": 88,
      "chip": "ym2612"
    },
    {
      "channel": 5,
      "note": 47,
      "start": 55.2253,
      "duration": 0.097,
      "velocity": 88,
      "chip": "ym2612"
    },
    {
      "channel": 1,
      "note": 37,
      "start": 55.2305,
      "duration": 0.2252,
      "velocity": 124,
      "chip": "ym2612"
    },
    {
      "channel": 5,
      "note": 47,
      "start": 55.3756,
      "duration": 0.1137,
      "velocity": 88,
      "chip": "ym2612"
    },
    {
      "channel": 5,
      "note": 50,
      "start": 55.5424,
      "duration": 0.0969,
      "velocity": 88,
      "chip": "ym2612"
    },
    {
      "channel": 1,
      "note": 37,
      "start": 55.5463,
      "duration": 0.2264,
      "velocity": 124,
      "chip": "ym2612"
    },
    {
      "channel": 5,
      "note": 52,
      "start": 55.7093,
      "duration": 0.0969,
      "velocity": 88,
      "chip": "ym2612"
    },
    {
      "channel": 5,
      "note": 47,
      "start": 55.8594,
      "duration": 0.1137,
      "velocity": 88,
      "chip": "ym2612"
    },
    {
      "channel": 1,
      "note": 37,
      "start": 55.8633,
      "duration": 0.2432,
      "velocity": 124,
      "chip": "ym2612"
    },
    {
      "channel": 5,
      "note": 47,
      "start": 56.0265,
      "duration": 0.1301,
      "velocity": 88,
      "chip": "ym2612"
    },
    {
      "channel": 5,
      "note": 50,
      "start": 56.1782,
      "duration": 0.112,
      "velocity": 88,
      "chip": "ym2612"
    },
    {
      "channel": 1,
      "note": 37,
      "start": 56.182,
      "duration": 0.243,
      "velocity": 124,
      "chip": "ym2612"
    },
    {
      "channel": 5,
      "note": 52,
      "start": 56.3453,
      "duration": 0.08,
      "velocity": 88,
      "chip": "ym2612"
    },
    {
      "channel": 0,
      "note": 52,
      "start": 56.5123,
      "duration": 0.0948,
      "velocity": 127,
      "chip": "ym2612"
    },
    {
      "channel": 4,
      "note": 64,
      "start": 56.516,
      "duration": 0.0914,
      "velocity": 104,
      "chip": "ym2612"
    },
    {
      "channel": 2,
      "note": 39,
      "start": 56.5194,
      "duration": 0.1214,
      "velocity": 116,
      "chip": "ym2612"
    },
    {
      "channel": 1,
      "note": 37,
      "start": 56.5225,
      "duration": 0.2181,
      "velocity": 124,
      "chip": "ym2612"
    },
    {
      "channel": 5,
      "note": 52,
      "start": 56.6608,
      "duration": 0.1134,
      "velocity": 88,
      "chip": "ym2612"
    },
    {
      "channel": 0,
      "note": 52,
      "start": 56.6641,
      "duration": 0.1097,
      "velocity": 127,
      "chip": "ym2612"
    },
    {
      "channel": 4,
      "note": 64,
      "start": 56.6674,
      "duration": 0.1067,
      "velocity": 104,
      "chip": "ym2612"
    },
    {
      "channel": 2,
      "note": 55,
      "start": 56.6708,
      "duration": 0.12,
      "velocity": 120,
      "chip": "ym2612"
    },
    {
      "channel": 5,
      "note": 55,
      "start": 56.8278,
      "duration": 0.0984,
      "velocity": 88,
      "chip": "ym2612"
    },
    {
      "channel": 0,
      "note": 50,
      "start": 56.8307,
      "duration": 0.0951,
      "velocity": 127,
      "chip": "ym2612"
    },
    {
      "channel": 4,
      "note": 62,
      "start": 56.8339,
      "duration": 0.092,
      "velocity": 104,
      "chip": "ym2612"
    },
    {
      "channel": 2,
      "note": 39,
      "start": 56.8372,
      "duration": 0.1206,
      "velocity": 116,
      "chip": "ym2612"
    },
    {
      "channel": 1,
      "note": 37,
      "start": 56.8429,
      "duration": 0.2147,
      "velocity": 124,
      "chip": "ym2612"
    },
    {
      "channel": 5,
      "note": 57,
      "start": 56.9777,
      "duration": 0.1153,
      "velocity": 88,
      "chip": "ym2612"
    },
    {
      "channel": 0,
      "note": 52,
      "start": 56.9806,
      "duration": 0.112,
      "velocity": 127,
      "chip": "ym2612"
    },
    {
      "channel": 4,
      "note": 64,
      "start": 56.9838,
      "duration": 0.109,
      "velocity": 104,
      "chip": "ym2612"
    },
    {
      "channel": 2,
      "note": 55,
      "start": 56.9872,
      "duration": 0.1208,
      "velocity": 120,
      "chip": "ym2612"
    },
    {
      "channel": 5,
      "note": 52,
      "start": 57.1445,
      "duration": 0.0968,
      "velocity": 88,
      "chip": "ym2612"
    },
    {
      "channel": 0,
      "note": 50,
      "start": 57.1476,
      "duration": 0.0768,
      "velocity": 127,
      "chip": "ym2612"
    },
    {
      "channel": 4,
      "note": 62,
      "start": 57.1514,
      "duration": 0.0733,
      "velocity": 104,
      "chip": "ym2612"
    },
    {
      "channel": 2,
      "note": 39,
      "start": 57.1546,
      "duration": 0.1202,
      "velocity": 116,
      "chip": "ym2612"
    },
    {
      "channel": 1,
      "note": 37,
      "start": 57.1578,
      "duration": 0.2169,
      "velocity": 124,
      "chip": "ym2612"
    },
    {
      "channel": 5,
      "note": 52,
      "start": 57.3115,
      "duration": 0.1301,
      "velocity": 88,
      "chip": "ym2612"
    },
    {
      "channel": 0,
      "note": 50,
      "start": 57.3146,
      "duration": 0.0934,
      "velocity": 127,
      "chip": "ym2612"
    },
    {
      "channel": 4,
      "note": 62,
      "start": 57.318,
      "duration": 0.0903,
      "velocity": 104,
      "chip": "ym2612"
    },
    {
      "channel": 2,
      "note": 55,
      "start": 57.3213,
      "duration": 0.1204,
      "velocity": 120,
      "chip": "ym2612"
    },
    {
      "channel": 5,
      "note": 55,
      "start": 57.4618,
      "duration": 0.1134,
      "velocity": 88,
      "chip": "ym2612"
    },
    {
      "channel": 0,
      "note": 52,
      "start": 57.465,
      "duration": 0.2434,
      "velocity": 127,
      "chip": "ym2612"
    },
    {
      "channel": 4,
      "note": 64,
      "start": 57.4685,
      "duration": 0.2402,
      "velocity": 104,
      "chip": "ym2612"
    },
    {
      "channel": 2,
      "note": 39,
      "start": 57.4718,
      "duration": 0.1216,
      "velocity": 116,
      "chip": "ym2612"
    },
    {
      "channel": 1,
      "note": 37,
      "start": 57.475,
      "duration": 0.2336,
      "velocity": 124,
      "chip": "ym2612"
    },
    {
      "channel": 5,
      "note": 57,
      "start": 57.6287,
      "duration": 0.0802,
      "velocity": 88,
      "chip": "ym2612"
    },
    {
      "channel": 2,
      "note": 55,
      "start": 57.6325,
      "duration": 0.1278,
      "velocity": 120,
      "chip": "ym2612"
    },
    {
      "channel": 0,
      "note": 52,
      "start": 57.7789,
      "duration": 0.1132,
      "velocity": 127,
      "chip": "ym2612"
    },
    {
      "channel": 4,
      "note": 64,
      "start": 57.7825,
      "duration": 0.1098,
      "velocity": 104,
      "chip": "ym2612"
    },
    {
      "channel": 2,
      "note": 39,
      "start": 57.7859,
      "duration": 0.1231,
      "velocity": 116,
      "chip": "ym2612"
    },
    {
      "channel": 1,
      "note": 37,
      "start": 57.789,
      "duration": 0.2366,
      "velocity": 124,
      "chip": "ym2612"
    },
    {
      "channel": 5,
      "note": 52,
      "start": 57.9458,
      "duration": 0.0967,
      "velocity": 88,
      "chip": "ym2612"
    },
    {
      "channel": 0,
      "note": 52,
      "start": 57.9488,
      "duration": 0.1268,
      "velocity": 127,
      "chip": "ym2612"
    },
    {
      "channel": 4,
      "note": 64,
      "start": 57.9522,
      "duration": 0.1237,
      "velocity": 104,
      "chip": "ym2612"
    },
    {
      "channel": 2,
      "note": 39,
      "start": 57.9556,
      "duration": 0.1204,
      "velocity": 116,
      "chip": "ym2612"
    },
    {
      "channel": 5,
      "note": 55,
      "start": 58.1123,
      "duration": 0.0971,
      "velocity": 88,
      "chip": "ym2612"
    },
    {
      "channel": 0,
      "note": 50,
      "start": 58.1158,
      "duration": 0.0933,
      "velocity": 127,
      "chip": "ym2612"
    },
    {
      "channel": 4,
      "note": 62,
      "start": 58.1192,
      "duration": 0.0901,
      "velocity": 104,
      "chip": "ym2612"
    },
    {
      "channel": 1,
      "note": 85,
      "start": 58.1229,
      "duration": 0.1196,
      "velocity": 127,
      "chip": "ym2612"
    },
    {
      "channel": 2,
      "note": 37,
      "start": 58.1262,
      "duration": 0.1449,
      "velocity": 124,
      "chip": "ym2612"
    },
    {
      "channel": 5,
      "note": 57,
      "start": 58.2641,
      "duration": 0.1123,
      "velocity": 88,
      "chip": "ym2612"
    },
    {
      "channel": 0,
      "note": 52,
      "start": 58.2671,
      "duration": 0.109,
      "velocity": 127,
      "chip": "ym2612"
    },
    {
      "channel": 4,
      "note": 64,
      "start": 58.2703,
      "duration": 0.106,
      "velocity": 104,
      "chip": "ym2612"
    },
    {
      "channel": 2,
      "note": 39,
      "start": 58.2736,
      "duration": 0.1193,
      "velocity": 116,
      "chip": "ym2612"
    },
    {
      "channel": 5,
      "note": 47,
      "start": 58.4423,
      "duration": 0.0842,
      "velocity": 88,
      "chip": "ym2612"
    },
    {
      "channel": 0,
      "note": 50,
      "start": 58.4453,
      "duration": 0.0808,
      "velocity": 127,
      "chip": "ym2612"
    },
    {
      "channel": 4,
      "note": 62,
      "start": 58.4485,
      "duration": 0.0778,
      "velocity": 104,
      "chip": "ym2612"
    },
    {
      "channel": 1,
      "note": 85,
      "start": 58.4519,
      "duration": 0.1077,
      "velocity": 127,
      "chip": "ym2612"
    },
    {
      "channel": 2,
      "note": 37,
      "start": 58.4555,
      "duration": 0.1324,
      "velocity": 124,
      "chip": "ym2612"
    },
    {
      "channel": 5,
      "note": 47,
      "start": 58.5802,
      "duration": 0.1297,
      "velocity": 88,
      "chip": "ym2612"
    },
    {
      "channel": 0,
      "note": 47,
      "start": 58.5833,
      "duration": 0.0764,
      "velocity": 127,
      "chip": "ym2612"
    },
    {
      "channel": 4,
      "note": 59,
      "start": 58.5871,
      "duration": 0.0728,
      "velocity": 104,
      "chip": "ym2612"
    },
    {
      "channel": 2,
      "note": 39,
      "start": 58.5904,
      "duration": 0.1196,
      "velocity": 116,
      "chip": "ym2612"
    },
    {
      "channel": 5,
      "note": 50,
      "start": 58.7467,
      "duration": 0.0983,
      "velocity": 88,
      "chip": "ym2612"
    },
    {
      "channel": 0,
      "note": 47,
      "start": 58.7499,
      "duration": 0.2618,
      "velocity": 127,
      "chip": "ym2612"
    },
    {
      "channel": 4,
      "note": 59,
      "start": 58.7535,
      "duration": 0.2585,
      "velocity": 104,
      "chip": "ym2612"
    },
    {
      "channel": 1,
      "note": 85,
      "start": 58.7571,
      "duration": 0.1196,
      "velocity": 127,
      "chip": "ym2612"
    },
    {
      "channel": 2,
      "note": 37,
      "start": 58.7619,
      "duration": 0.1531,
      "velocity": 124,
      "chip": "ym2612"
    },
    {
      "channel": 5,
      "note": 52,
      "start": 58.9137,
      "duration": 0.0634,
      "velocity": 88,
      "chip": "ym2612"
    },
    {
      "channel": 2,
      "note": 39,
      "start": 58.9175,
      "duration": 0.1263,
      "velocity": 116,
      "chip": "ym2612"
    },
    {
      "channel": 0,
      "note": 52,
      "start": 59.064,
      "duration": 0.1146,
      "velocity": 127,
      "chip": "ym2612"
    },
    {
      "channel": 4,
      "note": 64,
      "start": 59.0675,
      "duration": 0.1113,
      "velocity": 104,
      "chip": "ym2612"
    },
    {
      "channel": 2,
      "note": 39,
      "start": 59.0709,
      "duration": 0.1231,
      "velocity": 116,
      "chip": "ym2612"
    },
    {
      "channel": 1,
      "note": 37,
      "start": 59.0743,
      "duration": 0.2363,
      "velocity": 124,
      "chip": "ym2612"
    },
    {
      "channel": 5,
      "note": 52,
      "start": 59.2307,
      "duration": 0.0969,
      "velocity": 88,
      "chip": "ym2612"
    },
    {
      "channel": 0,
      "note": 52,
      "start": 59.2337,
      "duration": 0.0936,
      "velocity": 127,
      "chip": "ym2612"
    },
    {
      "channel": 4,
      "note": 64,
      "start": 59.2369,
      "duration": 0.0906,
      "velocity": 104,
      "chip": "ym2612"
    },
    {
      "channel": 2,
      "note": 55,
      "start": 59.2404,
      "duration": 0.1204,
      "velocity": 120,
      "chip": "ym2612"
    },
    {
      "channel": 5,
      "note": 55,
      "start": 59.3807,
      "duration": 0.1137,
      "velocity": 88,
      "chip": "ym2612"
    },
    {
      "channel": 0,
      "note": 50,
      "start": 59.3838,
      "duration": 0.0771,
      "velocity": 127,
      "chip": "ym2612"
    },
    {
      "channel": 4,
      "note": 62,
      "start": 59.3872,
      "duration": 0.0739,
      "velocity": 104,
      "chip": "ym2612"
    },
    {
      "channel": 2,
      "note": 39,
      "start": 59.3908,
      "duration": 0.1218,
      "velocity": 116,
      "chip": "ym2612"
    },
    {
      "channel": 1,
      "note": 37,
      "start": 59.3951,
      "duration": 0.2326,
      "velocity": 124,
      "chip": "ym2612"
    },
    {
      "channel": 5,
      "note": 57,
      "start": 59.5476,
      "duration": 0.097,
      "velocity": 88,
      "chip": "ym2612"
    },
    {
      "channel": 0,
      "note": 52,
      "start": 59.5507,
      "duration": 0.0936,
      "velocity": 127,
      "chip": "ym2612"
    },
    {
      "channel": 4,
      "note": 64,
      "start": 59.5541,
      "duration": 0.0904,
      "velocity": 104,
      "chip": "ym2612"
    },
    {
      "channel": 2,
      "note": 55,
      "start": 59.5574,
      "duration": 0.122,
      "velocity": 120,
      "chip": "ym2612"
    },
    {
      "channel": 5,
      "note": 52,
      "start": 59.7145,
      "duration": 0.0969,
      "velocity": 88,
      "chip": "ym2612"
    },
    {
      "channel": 0,
      "note": 50,
      "start": 59.718,
      "duration": 0.0598,
      "velocity": 127,
      "chip": "ym2612"
    },
    {
      "channel": 4,
      "note": 62,
      "start": 59.7214,
      "duration": 0.0566,
      "velocity": 104,
      "chip": "ym2612"
    },
    {
      "channel": 2,
      "note": 39,
      "start": 59.7246,
      "duration": 0.1217,
      "velocity": 116,
      "chip": "ym2612"
    },
    {
      "channel": 1,
      "note": 37,
      "start": 59.7278,
      "duration": 0.2169,
      "velocity": 124,
      "chip": "ym2612"
    },
    {
      "channel": 5,
      "note": 52,
      "start": 59.8659,
      "duration": 0.129,
      "velocity": 88,
      "chip": "ym2612"
    },
    {
      "channel": 0,
      "note": 50,
      "start": 59.8689,
      "duration": 0.1091,
      "velocity": 127,
      "chip": "ym2612"
    },
    {
      "channel": 4,
      "note": 62,
      "start": 59.8723,
      "duration": 0.106,
      "velocity": 104,
      "chip": "ym2612"
    },
    {
      "channel": 2,
      "note": 55,
      "start": 59.8756,
      "duration": 0.1194,
      "velocity": 120,
      "chip": "ym2612"
    },
    {
      "channel": 5,
      "note": 55,
      "start": 60.032,
      "duration": 0.0965,
      "velocity": 88,
      "chip": "ym2612"
    },
    {
      "channel": 0,
      "note": 52,
      "start": 60.035,
      "duration": 0.0932,
      "velocity": 127,
      "chip": "ym2612"
    },
    {
      "channel": 4,
      "note": 64,
      "start": 60.0386,
      "duration": 0.0898,
      "velocity": 104,
      "chip": "ym2612"
    },
    {
      "channel": 2,
      "note": 39,
      "start": 60.0419,
      "duration": 0.12,
      "velocity": 116,
      "chip": "ym2612"
    },
    {
      "channel": 1,
      "note": 37,
      "start": 60.045,
      "duration": 0.2184,
      "velocity": 124,
      "chip": "ym2612"
    },
    {
      "channel": 5,
      "note": 57,
      "start": 60.1835,
      "duration": 0.0802,
      "velocity": 88,
      "chip": "ym2612"
    },
    {
      "channel": 0,
      "note": 50,
      "start": 60.1866,
      "duration": 0.0767,
      "velocity": 127,
      "chip": "ym2612"
    },
    {
      "channel": 4,
      "note": 62,
      "start": 60.19,
      "duration": 0.0736,
      "velocity": 104,
      "chip": "ym2612"
    },
    {
      "channel": 2,
      "note": 55,
      "start": 60.1934,
      "duration": 0.1186,
      "velocity": 120,
      "chip": "ym2612"
    },
    {
      "channel": 0,
      "note": 52,
      "start": 60.3502,
      "duration": 0.0951,
      "velocity": 127,
      "chip": "ym2612"
    },
    {
      "channel": 4,
      "note": 64,
      "start": 60.3536,
      "duration": 0.092,
      "velocity": 104,
      "chip": "ym2612"
    },
    {
      "channel": 2,
      "note": 39,
      "start": 60.357,
      "duration": 0.1219,
      "velocity": 116,
      "chip": "ym2612"
    },
    {
      "channel": 1,
      "note": 37,
      "start": 60.3601,
      "duration": 0.2187,
      "velocity": 124,
      "chip": "ym2612"
    },
    {
      "channel": 5,
      "note": 47,
      "start": 60.5173,
      "duration": 0.0953,
      "velocity": 88,
      "chip": "ym2612"
    },
    {
      "channel": 0,
      "note": 50,
      "start": 60.5203,
      "duration": 0.092,
      "velocity": 127,
      "chip": "ym2612"
    },
    {
      "channel": 4,
      "note": 62,
      "start": 60.5235,
      "duration": 0.089,
      "velocity": 104,
      "chip": "ym2612"
    },
    {
      "channel": 2,
      "note": 39,
      "start": 60.5269,
      "duration": 0.119,
      "velocity": 116,
      "chip": "ym2612"
    },
    {
      "channel": 5,
      "note": 50,
      "start": 60.6656,
      "duration": 0.1139,
      "velocity": 88,
      "chip": "ym2612"
    },
    {
      "channel": 0,
      "note": 47,
      "start": 60.6686,
      "duration": 0.1105,
      "velocity": 127,
      "chip": "ym2612"
    },
    {
      "channel": 4,
      "note": 59,
      "start": 60.6718,
      "duration": 0.1076,
      "velocity": 104,
      "chip": "ym2612"
    },
    {
      "channel": 1,
      "note": 85,
      "start": 60.6755,
      "duration": 0.1203,
      "velocity": 127,
      "chip": "ym2612"
    },
    {
      "channel": 2,
      "note": 37,
      "start": 60.6803,
      "duration": 0.1592,
      "velocity": 124,
      "chip": "ym2612"
    },
    {
      "channel": 5,
      "note": 52,
      "start": 60.8325,
      "duration": 0.0986,
      "velocity": 88,
      "chip": "ym2612"
    },
    {
      "channel": 0,
      "note": 47,
      "start": 60.8354,
      "duration": 0.0953,
      "velocity": 127,
      "chip": "ym2612"
    },
    {
      "channel": 4,
      "note": 59,
      "start": 60.8387,
      "duration": 0.0923,
      "velocity": 104,
      "chip": "ym2612"
    },
    {
      "channel": 2,
      "note": 39,
      "start": 60.842,
      "duration": 0.1209,
      "velocity": 116,
      "chip": "ym2612"
    },
    {
      "channel": 5,
      "note": 59,
      "start": 60.9828,
      "duration": 0.1151,
      "velocity": 88,
      "chip": "ym2612"
    },
    {
      "channel": 0,
      "note": 50,
      "start": 60.9859,
      "duration": 0.1269,
      "velocity": 127,
      "chip": "ym2612"
    },
    {
      "channel": 4,
      "note": 62,
      "start": 60.9893,
      "duration": 0.1239,
      "velocity": 104,
      "chip": "ym2612"
    },
    {
      "channel": 1,
      "note": 85,
      "start": 60.9926,
      "duration": 0.1204,
      "velocity": 127,
      "chip": "ym2612"
    },
    {
      "channel": 2,
      "note": 37,
      "start": 60.9959,
      "duration": 0.1611,
      "velocity": 124,
      "chip": "ym2612"
    },
    {
      "channel": 5,
      "note": 59,
      "start": 61.1498,
      "duration": 0.1302,
      "velocity": 88,
      "chip": "ym2612"
    },
    {
      "channel": 0,
      "note": 47,
      "start": 61.1529,
      "duration": 0.0768,
      "velocity": 127,
      "chip": "ym2612"
    },
    {
      "channel": 4,
      "note": 59,
      "start": 61.1563,
      "duration": 0.0737,
      "velocity": 104,
      "chip": "ym2612"
    },
    {
      "channel": 2,
      "note": 39,
      "start": 61.1596,
      "duration": 0.1205,
      "velocity": 116,
      "chip": "ym2612"
    },
    {
      "channel": 5,
      "note": 62,
      "start": 61.3166,
      "duration": 0.098,
      "velocity": 88,
      "chip": "ym2612"
    },
    {
      "channel": 0,
      "note": 50,
      "start": 61.3202,
      "duration": 0.1949,
      "velocity": 127,
      "chip": "ym2612"
    },
    {
      "channel": 4,
      "note": 62,
      "start": 61.3238,
      "duration": 0.1916,
      "velocity": 104,
      "chip": "ym2612"
    },
    {
      "channel": 1,
      "note": 85,
      "start": 61.3274,
      "duration": 0.1192,
      "velocity": 127,
      "chip": "ym2612"
    },
    {
      "channel": 2,
      "note": 37,
      "start": 61.3307,
      "duration": 0.1381,
      "velocity": 124,
      "chip": "ym2612"
    },
    {
      "channel": 5,
      "note": 64,
      "start": 61.4675,
      "duration": 0.0795,
      "velocity": 88,
      "chip": "ym2612"
    },
    {
      "channel": 2,
      "note": 39,
      "start": 61.4713,
      "duration": 0.1273,
      "velocity": 116,
      "chip": "ym2612"
    },
    {
      "channel": 0,
      "note": 52,
      "start": 61.6339,
      "duration": 0.0964,
      "velocity": 127,
      "chip": "ym2612"
    },
    {
      "channel": 4,
      "note": 64,
      "start": 61.6379,
      "duration": 0.0927,
      "velocity": 104,
      "chip": "ym2612"
    },
    {
      "channel": 2,
      "note": 39,
      "start": 61.6413,
      "duration": 0.1243,
      "velocity": 116,
      "chip": "ym2612"
    },
    {
      "channel": 1,
      "note": 37,
      "start": 61.6446,
      "duration": 0.2192,
      "velocity": 124,
      "chip": "ym2612"
    },
    {
      "channel": 5,
      "note": 52,
      "start": 61.784,
      "duration": 0.1135,
      "velocity": 88,
      "chip": "ym2612"
    },
    {
      "channel": 0,
      "note": 52,
      "start": 61.787,
      "duration": 0.1102,
      "velocity": 127,
      "chip": "ym2612"
    },
    {
      "channel": 4,
      "note": 64,
      "start": 61.7902,
      "duration": 0.1072,
      "velocity": 104,
      "chip": "ym2612"
    },
    {
      "channel": 2,
      "note": 55,
      "start": 61.7937,
      "duration": 0.1205,
      "velocity": 120,
      "chip": "ym2612"
    },
    {
      "channel": 5,
      "note": 55,
      "start": 61.9506,
      "duration": 0.0972,
      "velocity": 88,
      "chip": "ym2612"
    },
    {
      "channel": 0,
      "note": 50,
      "start": 61.9536,
      "duration": 0.0938,
      "velocity": 127,
      "chip": "ym2612"
    },
    {
      "channel": 4,
      "note": 62,
      "start": 61.9568,
      "duration": 0.0908,
      "velocity": 104,
      "chip": "ym2612"
    },
    {
      "channel": 2,
      "note": 39,
      "start": 61.9601,
      "duration": 0.121,
      "velocity": 116,
      "chip": "ym2612"
    },
    {
      "channel": 1,
      "note": 37,
      "start": 61.9643,
      "duration": 0.2182,
      "velocity": 124,
      "chip": "ym2612"
    },
    {
      "channel": 5,
      "note": 57,
      "start": 62.1176,
      "duration": 0.097,
      "velocity": 88,
      "chip": "ym2612"
    },
    {
      "channel": 0,
      "note": 52,
      "start": 62.1206,
      "duration": 0.0937,
      "velocity": 127,
      "chip": "ym2612"
    },
    {
      "channel": 4,
      "note": 64,
      "start": 62.1238,
      "duration": 0.0907,
      "velocity": 104,
      "chip": "ym2612"
    },
    {
      "channel": 2,
      "note": 55,
      "start": 62.1271,
      "duration": 0.1209,
      "velocity": 120,
      "chip": "ym2612"
    },
    {
      "channel": 5,
      "note": 59,
      "start": 62.2693,
      "duration": 0.1121,
      "velocity": 88,
      "chip": "ym2612"
    },
    {
      "channel": 0,
      "note": 50,
      "start": 62.2724,
      "duration": 0.0769,
      "velocity": 127,
      "chip": "ym2612"
    },
    {
      "channel": 4,
      "note": 62,
      "start": 62.2758,
      "duration": 0.0737,
      "velocity": 104,
      "chip": "ym2612"
    },
    {
      "channel": 2,
      "note": 39,
      "start": 62.279,
      "duration": 0.1191,
      "velocity": 116,
      "chip": "ym2612"
    },
    {
      "channel": 1,
      "note": 37,
      "start": 62.2822,
      "duration": 0.234,
      "velocity": 124,
      "chip": "ym2612"
    },
    {
      "channel": 5,
      "note": 59,
      "start": 62.4363,
      "duration": 0.1286,
      "velocity": 88,
      "chip": "ym2612"
    },
    {
      "channel": 0,
      "note": 50,
      "start": 62.4394,
      "duration": 0.092,
      "velocity": 127,
      "chip": "ym2612"
    },
    {
      "channel": 4,
      "note": 62,
      "start": 62.4427,
      "duration": 0.0888,
      "velocity": 104,
      "chip": "ym2612"
    },
    {
      "channel": 2,
      "note": 55,
      "start": 62.4465,
      "duration": 0.1185,
      "velocity": 120,
      "chip": "ym2612"
    },
    {
      "channel": 5,
      "note": 62,
      "start": 62.585,
      "duration": 0.1134,
      "velocity": 88,
      "chip": "ym2612"
    },
    {
      "channel": 0,
      "note": 52,
      "start": 62.5883,
      "duration": 0.2434,
      "velocity": 127,
      "chip": "ym2612"
    },
    {
      "channel": 4,
      "note": 64,
      "start": 62.5918,
      "duration": 0.2402,
      "velocity": 104,
      "chip": "ym2612"
    },
    {
      "channel": 2,
      "note": 39,
      "start": 62.5951,
      "duration": 0.12,
      "velocity": 116,
      "chip": "ym2612"
    },
    {
      "channel": 1,
      "note": 37,
      "start": 62.5998,
      "duration": 0.2321,
      "velocity": 124,
      "chip": "ym2612"
    },
    {
      "channel": 5,
      "note": 64,
      "start": 62.7519,
      "duration": 0.0802,
      "velocity": 88,
      "chip": "ym2612"
    },
    {
      "channel": 2,
      "note": 55,
      "start": 62.7558,
      "duration": 0.1262,
      "velocity": 120,
      "chip": "ym2612"
    },
    {
      "channel": 0,
      "note": 52,
      "start": 62.9193,
      "duration": 0.0974,
      "velocity": 127,
      "chip": "ym2612"
    },
    {
      "channel": 4,
      "note": 64,
      "start": 62.9229,
      "duration": 0.0941,
      "velocity": 104,
      "chip": "ym2612"
    },
    {
      "channel": 2,
      "note": 39,
      "start": 62.9267,
      "duration": 0.1222,
      "velocity": 116,
      "chip": "ym2612"
    },
    {
      "channel": 1,
      "note": 37,
      "start": 62.9298,
      "duration": 0.219,
      "velocity": 124,
      "chip": "ym2612"
    },
    {
      "channel": 5,
      "note": 59,
      "start": 63.0695,
      "duration": 0.1145,
      "velocity": 88,
      "chip": "ym2612"
    },
    {
      "channel": 0,
      "note": 52,
      "start": 63.0724,
      "duration": 0.1112,
      "velocity": 127,
      "chip": "ym2612"
    },
    {
      "channel": 4,
      "note": 64,
      "start": 63.0756,
      "duration": 0.1083,
      "velocity": 104,
      "chip": "ym2612"
    },
    {
      "channel": 2,
      "note": 39,
      "start": 63.079,
      "duration": 0.12,
      "velocity": 116,
      "chip": "ym2612"
    },
    {
      "channel": 5,
      "note": 62,
      "start": 63.2356,
      "duration": 0.0972,
      "velocity": 88,
      "chip": "ym2612"
    },
    {
      "channel": 0,
      "note": 50,
      "start": 63.2385,
      "duration": 0.0939,
      "velocity": 127,
      "chip": "ym2612"
    },
    {
      "channel": 4,
      "note": 62,
      "start": 63.2422,
      "duration": 0.0905,
      "velocity": 104,
      "chip": "ym2612"
    },
    {
      "channel": 1,
      "note": 85,
      "start": 63.2462,
      "duration": 0.1196,
      "velocity": 127,
      "chip": "ym2612"
    },
    {
      "channel": 2,
      "note": 37,
      "start": 63.2495,
      "duration": 0.1433,
      "velocity": 124,
      "chip": "ym2612"
    },
    {
      "channel": 5,
      "note": 64,
      "start": 63.3859,
      "duration": 0.1137,
      "velocity": 88,
      "chip": "ym2612"
    },
    {
      "channel": 0,
      "note": 52,
      "start": 63.3888,
      "duration": 0.1104,
      "velocity": 127,
      "chip": "ym2612"
    },
    {
      "channel": 4,
      "note": 64,
      "start": 63.3921,
      "duration": 0.1074,
      "velocity": 104,
      "chip": "ym2612"
    },
    {
      "channel": 2,
      "note": 39,
      "start": 63.3954,
      "duration": 0.1224,
      "velocity": 116,
      "chip": "ym2612"
    },
    {
      "channel": 5,
      "note": 59,
      "start": 63.5527,
      "duration": 0.0972,
      "velocity": 88,
      "chip": "ym2612"
    },
    {
      "channel": 0,
      "note": 50,
      "start": 63.5556,
      "duration": 0.0939,
      "velocity": 127,
      "chip": "ym2612"
    },
    {
      "channel": 4,
      "note": 62,
      "start": 63.5589,
      "duration": 0.0908,
      "velocity": 104,
      "chip": "ym2612"
    },
    {
      "channel": 1,
      "note": 85,
      "start": 63.5622,
      "duration": 0.1222,
      "velocity": 127,
      "chip": "ym2612"
    },
    {
      "channel": 2,
      "note": 37,
      "start": 63.5659,
      "duration": 0.1608,
      "velocity": 124,
      "chip": "ym2612"
    },
    {
      "channel": 5,
      "note": 59,
      "start": 63.7197,
      "duration": 0.1317,
      "velocity": 88,
      "chip": "ym2612"
    },
    {
      "channel": 0,
      "note": 47,
      "start": 63.7227,
      "duration": 0.0937,
      "velocity": 127,
      "chip": "ym2612"
    },
    {
      "channel": 4,
      "note": 59,
      "start": 63.7259,
      "duration": 0.0906,
      "velocity": 104,
      "chip": "ym2612"
    },
    {
      "channel": 2,
      "note": 39,
      "start": 63.7292,
      "duration": 0.1224,
      "velocity": 116,
      "chip": "ym2612"
    },
    {
      "channel": 5,
      "note": 55,
      "start": 63.8699,
      "duration": 0.1135,
      "velocity": 88,
      "chip": "ym2612"
    },
    {
      "channel": 0,
      "note": 47,
      "start": 63.8732,
      "duration": 0.2437,
      "velocity": 127,
      "chip": "ym2612"
    },
    {
      "channel": 4,
      "note": 59,
      "start": 63.8767,
      "duration": 0.2404,
      "velocity": 104,
      "chip": "ym2612"
    },
    {
      "channel": 1,
      "note": 85,
      "start": 63.8803,
      "duration": 0.1197,
      "velocity": 127,
      "chip": "ym2612"
    },
    {
      "channel": 2,
      "note": 37,
      "start": 63.8837,
      "duration": 0.1546,
      "velocity": 124,
      "chip": "ym2612"
    },
    {
      "channel": 5,
      "note": 57,
      "start": 64.0369,
      "duration": 0.0803,
      "velocity": 88,
      "chip": "ym2612"
    },
    {
      "channel": 2,
      "note": 39,
      "start": 64.0407,
      "duration": 0.1263,
      "velocity": 116,
      "chip": "ym2612"
    },
    {
      "channel": 0,
      "note": 50,
      "start": 64.1887,
      "duration": 0.1116,
      "velocity": 127,
      "chip": "ym2612"
    },
    {
      "channel": 4,
      "note": 62,
      "start": 64.1923,
      "duration": 0.1083,
      "velocity": 104,
      "chip": "ym2612"
    },
    {
      "channel": 2,
      "note": 39,
      "start": 64.1957,
      "duration": 0.1216,
      "velocity": 116,
      "chip": "ym2612"
    },
    {
      "channel": 1,
      "note": 37,
      "start": 64.199,
      "duration": 0.2357,
      "velocity": 124,
      "chip": "ym2612"
    },
    {
      "channel": 5,
      "note": 52,
      "start": 64.3556,
      "duration": 0.0959,
      "velocity": 88,
      "chip": "ym2612"
    },
    {
      "channel": 0,
      "note": 50,
      "start": 64.3586,
      "duration": 0.0926,
      "velocity": 127,
      "chip": "ym2612"
    },
    {
      "channel": 4,
      "note": 62,
      "start": 64.3618,
      "duration": 0.0896,
      "velocity": 104,
      "chip": "ym2612"
    },
    {
      "channel": 2,
      "note": 55,
      "start": 64.3653,
      "duration": 0.1189,
      "velocity": 120,
      "chip": "ym2612"
    },
    {
      "channel": 5,
      "note": 55,
      "start": 64.5222,
      "duration": 0.0956,
      "velocity": 88,
      "chip": "ym2612"
    },
    {
      "channel": 0,
      "note": 52,
      "start": 64.5251,
      "duration": 0.0924,
      "velocity": 127,
      "chip": "ym2612"
    },
    {
      "channel": 4,
      "note": 64,
      "start": 64.5283,
      "duration": 0.0893,
      "velocity": 104,
      "chip": "ym2612"
    },
    {
      "channel": 2,
      "note": 39,
      "start": 64.5316,
      "duration": 0.1194,
      "velocity": 116,
      "chip": "ym2612"
    },
    {
      "channel": 1,
      "note": 37,
      "start": 64.5359,
      "duration": 0.2151,
      "velocity": 124,
      "chip": "ym2612"
    },
    {
      "channel": 5,
      "note": 57,
      "start": 64.6709,
      "duration": 0.1139,
      "velocity": 88,
      "chip": "ym2612"
    },
    {
      "channel": 0,
      "note": 50,
      "start": 64.6742,
      "duration": 0.1102,
      "velocity": 127,
      "chip": "ym2612"
    },
    {
      "channel": 4,
      "note": 62,
      "start": 64.6774,
      "duration": 0.1072,
      "velocity": 104,
      "chip": "ym2612"
    },
    {
      "channel": 2,
      "note": 55,
      "start": 64.6807,
      "duration": 0.1205,
      "velocity": 120,
      "chip": "ym2612"
    },
    {
      "channel": 5,
      "note": 52,
      "start": 64.838,
      "duration": 0.0983,
      "velocity": 88,
      "chip": "ym2612"
    },
    {
      "channel": 0,
      "note": 52,
      "start": 64.841,
      "duration": 0.0949,
      "velocity": 127,
      "chip": "ym2612"
    },
    {
      "channel": 4,
      "note": 64,
      "start": 64.8442,
      "duration": 0.0919,
      "velocity": 104,
      "chip": "ym2612"
    },
    {
      "channel": 2,
      "note": 39,
      "start": 64.8475,
      "duration": 0.1205,
      "velocity": 116,
      "chip": "ym2612"
    },
    {
      "channel": 1,
      "note": 37,
      "start": 64.8522,
      "duration": 0.2159,
      "velocity": 124,
      "chip": "ym2612"
    },
    {
      "channel": 5,
      "note": 59,
      "start": 64.988,
      "duration": 0.1302,
      "velocity": 88,
      "chip": "ym2612"
    },
    {
      "channel": 0,
      "note": 50,
      "start": 64.9911,
      "duration": 0.0768,
      "velocity": 127,
      "chip": "ym2612"
    },
    {
      "channel": 4,
      "note": 62,
      "start": 64.9945,
      "duration": 0.0738,
      "velocity": 104,
      "chip": "ym2612"
    },
    {
      "channel": 2,
      "note": 55,
      "start": 64.9978,
      "duration": 0.1206,
      "velocity": 120,
      "chip": "ym2612"
    },
    {
      "channel": 5,
      "note": 62,
      "start": 65.1549,
      "duration": 0.097,
      "velocity": 88,
      "chip": "ym2612"
    },
    {
      "channel": 0,
      "note": 50,
      "start": 65.158,
      "duration": 0.0935,
      "velocity": 127,
      "chip": "ym2612"
    },
    {
      "channel": 4,
      "note": 62,
      "start": 65.1618,
      "duration": 0.09,
      "velocity": 104,
      "chip": "ym2612"
    },
    {
      "channel": 2,
      "note": 39,
      "start": 65.165,
      "duration": 0.1202,
      "velocity": 116,
      "chip": "ym2612"
    },
    {
      "channel": 1,
      "note": 37,
      "start": 65.169,
      "duration": 0.2162,
      "velocity": 124,
      "chip": "ym2612"
    },
    {
      "channel": 5,
      "note": 64,
      "start": 65.322,
      "duration": 0.0634,
      "velocity": 88,
      "chip": "ym2612"
    },
    {
      "channel": 0,
      "note": 50,
      "start": 65.3251,
      "duration": 0.0599,
      "velocity": 127,
      "chip": "ym2612"
    },
    {
      "channel": 4,
      "note": 62,
      "start": 65.3285,
      "duration": 0.0569,
      "velocity": 104,
      "chip": "ym2612"
    },
    {
      "channel": 2,
      "note": 55,
      "start": 65.332,
      "duration": 0.1201,
      "velocity": 120,
      "chip": "ym2612"
    },
    {
      "channel": 0,
      "note": 50,
      "start": 65.4718,
      "duration": 0.0801,
      "velocity": 127,
      "chip": "ym2612"
    },
    {
      "channel": 4,
      "note": 62,
      "start": 65.4751,
      "duration": 0.0771,
      "velocity": 104,
      "chip": "ym2612"
    },
    {
      "channel": 2,
      "note": 39,
      "start": 65.4785,
      "duration": 0.1252,
      "velocity": 116,
      "chip": "ym2612"
    },
    {
      "channel": 1,
      "note": 37,
      "start": 65.4816,
      "duration": 0.2372,
      "velocity": 124,
      "chip": "ym2612"
    },
    {
      "channel": 5,
      "note": 52,
      "start": 65.639,
      "duration": 0.0968,
      "velocity": 88,
      "chip": "ym2612"
    },
    {
      "channel": 0,
      "note": 50,
      "start": 65.6422,
      "duration": 0.0934,
      "velocity": 127,
      "chip": "ym2612"
    },
    {
      "channel": 4,
      "note": 62,
      "start": 65.6455,
      "duration": 0.0902,
      "velocity": 104,
      "chip": "ym2612"
    },
    {
      "channel": 2,
      "note": 39,
      "start": 65.6493,
      "duration": 0.1213,
      "velocity": 116,
      "chip": "ym2612"
    },
    {
      "channel": 5,
      "note": 55,
      "start": 65.789,
      "duration": 0.1138,
      "velocity": 88,
      "chip": "ym2612"
    },
    {
      "channel": 0,
      "note": 50,
      "start": 65.7921,
      "duration": 0.0782,
      "velocity": 127,
      "chip": "ym2612"
    },
    {
      "channel": 4,
      "note": 62,
      "start": 65.7954,
      "duration": 0.075,
      "velocity": 104,
      "chip": "ym2612"
    },
    {
      "channel": 1,
      "note": 55,
      "start": 65.7989,
      "duration": 0.1202,
      "velocity": 120,
      "chip": "ym2612"
    },
    {
      "channel": 2,
      "note": 37,
      "start": 65.8032,
      "duration": 0.16,
      "velocity": 124,
      "chip": "ym2612"
    },
    {
      "channel": 5,
      "note": 57,
      "start": 65.956,
      "duration": 0.0981,
      "velocity": 88,
      "chip": "ym2612"
    },
    {
      "channel": 0,
      "note": 50,
      "start": 65.9591,
      "duration": 0.0946,
      "velocity": 127,
      "chip": "ym2612"
    },
    {
      "channel": 4,
      "note": 62,
      "start": 65.9624,
      "duration": 0.0914,
      "velocity": 104,
      "chip": "ym2612"
    },
    {
      "channel": 2,
      "note": 39,
      "start": 65.9658,
      "duration": 0.1204,
      "velocity": 116,
      "chip": "ym2612"
    },
    {
      "channel": 5,
      "note": 59,
      "start": 66.1227,
      "duration": 0.0972,
      "velocity": 88,
      "chip": "ym2612"
    },
    {
      "channel": 0,
      "note": 52,
      "start": 66.1256,
      "duration": 0.0939,
      "velocity": 127,
      "chip": "ym2612"
    },
    {
      "channel": 4,
      "note": 64,
      "start": 66.1288,
      "duration": 0.0909,
      "velocity": 104,
      "chip": "ym2612"
    },
    {
      "channel": 1,
      "note": 55,
      "start": 66.1319,
      "duration": 0.121,
      "velocity": 120,
      "chip": "ym2612"
    },
    {
      "channel": 2,
      "note": 37,
      "start": 66.1354,
      "duration": 0.1465,
      "velocity": 124,
      "chip": "ym2612"
    },
    {
      "channel": 5,
      "note": 62,
      "start": 66.2745,
      "duration": 0.1286,
      "velocity": 88,
      "chip": "ym2612"
    },
    {
      "channel": 0,
      "note": 50,
      "start": 66.2778,
      "duration": 0.1084,
      "velocity": 127,
      "chip": "ym2612"
    },
    {
      "channel": 4,
      "note": 62,
      "start": 66.2811,
      "duration": 0.1054,
      "velocity": 104,
      "chip": "ym2612"
    },
    {
      "channel": 2,
      "note": 39,
      "start": 66.2844,
      "duration": 0.1189,
      "velocity": 116,
      "chip": "ym2612"
    },
    {
      "channel": 5,
      "note": 64,
      "start": 66.4418,
      "duration": 0.0951,
      "velocity": 88,
      "chip": "ym2612"
    },
    {
      "channel": 0,
      "note": 52,
      "start": 66.4448,
      "duration": 0.0918,
      "velocity": 127,
      "chip": "ym2612"
    },
    {
      "channel": 4,
      "note": 64,
      "start": 66.448,
      "duration": 0.0888,
      "velocity": 104,
      "chip": "ym2612"
    },
    {
      "channel": 1,
      "note": 55,
      "start": 66.4512,
      "duration": 0.1188,
      "velocity": 120,
      "chip": "ym2612"
    },
    {
      "channel": 2,
      "note": 37,
      "start": 66.4562,
      "duration": 0.1423,
      "velocity": 124,
      "chip": "ym2612"
    },
    {
      "channel": 5,
      "note": 67,
      "start": 66.5904,
      "duration": 0.0799,
      "velocity": 88,
      "chip": "ym2612"
    },
    {
      "channel": 0,
      "note": 50,
      "start": 66.5936,
      "duration": 0.1099,
      "velocity": 127,
      "chip": "ym2612"
    },
    {
      "channel": 4,
      "note": 62,
      "start": 66.5975,
      "duration": 0.1062,
      "velocity": 104,
      "chip": "ym2612"
    },
    {
      "channel": 2,
      "note": 39,
      "start": 66.601,
      "duration": 0.1195,
      "velocity": 116,
      "chip": "ym2612"
    },
    {
      "channel": 1,
      "note": 76,
      "start": 66.7581,
      "duration": 0.1805,
      "velocity": 88,
      "chip": "ym2612"
    },
    {
      "channel": 5,
      "note": 81,
      "start": 66.7614,
      "duration": 0.2258,
      "velocity": 88,
      "chip": "ym2612"
    },
    {
      "channel": 0,
      "note": 42,
      "start": 66.7657,
      "duration": 0.1546,
      "velocity": 106,
      "chip": "ym2612"
    },
    {
      "channel": 2,
      "note": 39,
      "start": 66.7689,
      "duration": 0.1183,
      "velocity": 116,
      "chip": "ym2612"
    },
    {
      "channel": 4,
      "note": 57,
      "start": 66.9242,
      "duration": 0.0978,
      "velocity": 88,
      "chip": "ym2612"
    },
    {
      "channel": 0,
      "note": 42,
      "start": 66.9275,
      "duration": 0.1431,
      "velocity": 106,
      "chip": "ym2612"
    },
    {
      "channel": 2,
      "note": 55,
      "start": 66.9308,
      "duration": 0.1233,
      "velocity": 120,
      "chip": "ym2612"
    },
    {
      "channel": 4,
      "note": 60,
      "start": 67.074,
      "duration": 0.1149,
      "velocity": 88,
      "chip": "ym2612"
    },
    {
      "channel": 1,
      "note": 81,
      "start": 67.0776,
      "duration": 0.2601,
      "velocity": 88,
      "chip": "ym2612"
    },
    {
      "channel": 5,
      "note": 76,
      "start": 67.0807,
      "duration": 0.1736,
      "velocity": 88,
      "chip": "ym2612"
    },
    {
      "channel": 0,
      "note": 32,
      "start": 67.0836,
      "duration": 0.1539,
      "velocity": 106,
      "chip": "ym2612"
    },
    {
      "channel": 2,
      "note": 39,
      "start": 67.0867,
      "duration": 0.1175,
      "velocity": 116,
      "chip": "ym2612"
    },
    {
      "channel": 4,
      "note": 62,
      "start": 67.2409,
      "duration": 0.0968,
      "velocity": 88,
      "chip": "ym2612"
    },
    {
      "channel": 0,
      "note": 42,
      "start": 67.2442,
      "duration": 0.1435,
      "velocity": 106,
      "chip": "ym2612"
    },
    {
      "channel": 2,
      "note": 55,
      "start": 67.2477,
      "duration": 0.1235,
      "velocity": 120,
      "chip": "ym2612"
    },
    {
      "channel": 4,
      "note": 57,
      "start": 67.3911,
      "duration": 0.1135,
      "velocity": 88,
      "chip": "ym2612"
    },
    {
      "channel": 1,
      "note": 79,
      "start": 67.3946,
      "duration": 0.0598,
      "velocity": 88,
      "chip": "ym2612"
    },
    {
      "channel": 5,
      "note": 74,
      "start": 67.3982,
      "duration": 0.0731,
      "velocity": 88,
      "chip": "ym2612"
    },
    {
      "channel": 0,
      "note": 32,
      "start": 67.4011,
      "duration": 0.1534,
      "velocity": 106,
      "chip": "ym2612"
    },
    {
      "channel": 2,
      "note": 39,
      "start": 67.4042,
      "duration": 0.1186,
      "velocity": 116,
      "chip": "ym2612"
    },
    {
      "channel": 4,
      "note": 57,
      "start": 67.5581,
      "duration": 0.1316,
      "velocity": 88,
      "chip": "ym2612"
    },
    {
      "channel": 1,
      "note": 76,
      "start": 67.5615,
      "duration": 0.0765,
      "velocity": 88,
      "chip": "ym2612"
    },
    {
      "channel": 5,
      "note": 81,
      "start": 67.5645,
      "duration": 0.0737,
      "velocity": 88,
      "chip": "ym2612"
    },
    {
      "channel": 0,
      "note": 32,
      "start": 67.5673,
      "duration": 0.1541,
      "velocity": 106,
      "chip": "ym2612"
    },
    {
      "channel": 2,
      "note": 55,
      "start": 67.5707,
      "duration": 0.1192,
      "velocity": 120,
      "chip": "ym2612"
    },
    {
      "channel": 4,
      "note": 60,
      "start": 67.7251,
      "duration": 0.0966,
      "velocity": 88,
      "chip": "ym2612"
    },
    {
      "channel": 1,
      "note": 81,
      "start": 67.7286,
      "duration": 0.1764,
      "velocity": 88,
      "chip": "ym2612"
    },
    {
      "channel": 5,
      "note": 76,
      "start": 67.7318,
      "duration": 0.19,
      "velocity": 88,
      "chip": "ym2612"
    },
    {
      "channel": 0,
      "note": 42,
      "start": 67.7346,
      "duration": 0.1369,
      "velocity": 106,
      "chip": "ym2612"
    },
    {
      "channel": 2,
      "note": 39,
      "start": 67.7378,
      "duration": 0.1188,
      "velocity": 116,
      "chip": "ym2612"
    },
    {
      "channel": 4,
      "note": 62,
      "start": 67.8757,
      "duration": 0.0795,
      "velocity": 88,
      "chip": "ym2612"
    },
    {
      "channel": 0,
      "note": 32,
      "start": 67.879,
      "duration": 0.1595,
      "velocity": 106,
      "chip": "ym2612"
    },
    {
      "channel": 2,
      "note": 55,
      "start": 67.8821,
      "duration": 0.1232,
      "velocity": 120,
      "chip": "ym2612"
    },
    {
      "channel": 1,
      "note": 76,
      "start": 68.0425,
      "duration": 0.231,
      "velocity": 88,
      "chip": "ym2612"
    },
    {
      "channel": 5,
      "note": 81,
      "start": 68.046,
      "duration": 0.2278,
      "velocity": 88,
      "chip": "ym2612"
    },
    {
      "channel": 0,
      "note": 42,
      "start": 68.0489,
      "duration": 0.1413,
      "velocity": 106,
      "chip": "ym2612"
    },
    {
      "channel": 2,
      "note": 39,
      "start": 68.0519,
      "duration": 0.1202,
      "velocity": 116,
      "chip": "ym2612"
    },
    {
      "channel": 4,
      "note": 52,
      "start": 68.1939,
      "duration": 0.1117,
      "velocity": 88,
      "chip": "ym2612"
    },
    {
      "channel": 0,
      "note": 42,
      "start": 68.1971,
      "duration": 0.1599,
      "velocity": 106,
      "chip": "ym2612"
    },
    {
      "channel": 2,
      "note": 55,
      "start": 68.2002,
      "duration": 0.1221,
      "velocity": 120,
      "chip": "ym2612"
    },
    {
      "channel": 4,
      "note": 55,
      "start": 68.3604,
      "duration": 0.0954,
      "velocity": 88,
      "chip": "ym2612"
    },
    {
      "channel": 1,
      "note": 81,
      "start": 68.364,
      "duration": 0.2585,
      "velocity": 88,
      "chip": "ym2612"
    },
    {
      "channel": 5,
      "note": 76,
      "start": 68.3672,
      "duration": 0.2222,
      "velocity": 88,
      "chip": "ym2612"
    },
    {
      "channel": 0,
      "note": 32,
      "start": 68.37,
      "duration": 0.1539,
      "velocity": 106,
      "chip": "ym2612"
    },
    {
      "channel": 2,
      "note": 39,
      "start": 68.3731,
      "duration": 0.1161,
      "velocity": 116,
      "chip": "ym2612"
    },
    {
      "channel": 4,
      "note": 57,
      "start": 68.5273,
      "duration": 0.0954,
      "velocity": 88,
      "chip": "ym2612"
    },
    {
      "channel": 0,
      "note": 42,
      "start": 68.5306,
      "duration": 0.142,
      "velocity": 106,
      "chip": "ym2612"
    },
    {
      "channel": 2,
      "note": 55,
      "start": 68.5337,
      "duration": 0.1224,
      "velocity": 120,
      "chip": "ym2612"
    },
    {
      "channel": 4,
      "note": 59,
      "start": 68.6761,
      "duration": 0.1136,
      "velocity": 88,
      "chip": "ym2612"
    },
    {
      "channel": 1,
      "note": 79,
      "start": 68.6796,
      "duration": 0.1099,
      "velocity": 88,
      "chip": "ym2612"
    },
    {
      "channel": 5,
      "note": 74,
      "start": 68.6828,
      "duration": 0.0734,
      "velocity": 88,
      "chip": "ym2612"
    },
    {
      "channel": 0,
      "note": 32,
      "start": 68.6861,
      "duration": 0.1534,
      "velocity": 106,
      "chip": "ym2612"
    },
    {
      "channel": 2,
      "note": 39,
      "start": 68.6907,
      "duration": 0.1157,
      "velocity": 116,
      "chip": "ym2612"
    },
    {
      "channel": 4,
      "note": 59,
      "start": 68.8431,
      "duration": 0.1301,
      "velocity": 88,
      "chip": "ym2612"
    },
    {
      "channel": 1,
      "note": 76,
      "start": 68.8464,
      "duration": 0.0766,
      "velocity": 88,
      "chip": "ym2612"
    },
    {
      "channel": 5,
      "note": 71,
      "start": 68.8499,
      "duration": 0.0734,
      "velocity": 88,
      "chip": "ym2612"
    },
    {
      "channel": 0,
      "note": 42,
      "start": 68.853,
      "duration": 0.0698,
      "velocity": 106,
      "chip": "ym2612"
    },
    {
      "channel": 2,
      "note": 55,
      "start": 68.8577,
      "duration": 0.1156,
      "velocity": 120,
      "chip": "ym2612"
    },
    {
      "channel": 0,
      "note": 42,
      "start": 68.927,
      "duration": 0.1461,
      "velocity": 106,
      "chip": "ym2612"
    },
    {
      "channel": 4,
      "note": 62,
      "start": 68.9932,
      "duration": 0.1149,
      "velocity": 88,
      "chip": "ym2612"
    },
    {
      "channel": 1,
      "note": 71,
      "start": 68.9967,
      "duration": 0.2433,
      "velocity": 88,
      "chip": "ym2612"
    },
    {
      "channel": 5,
      "note": 76,
      "start": 68.9999,
      "duration": 0.2569,
      "velocity": 88,
      "chip": "ym2612"
    },
    {
      "channel": 2,
      "note": 32,
      "start": 69.0032,
      "duration": 0.1536,
      "velocity": 106,
      "chip": "ym2612"
    },
    {
      "channel": 4,
      "note": 64,
      "start": 69.1603,
      "duration": 0.0799,
      "velocity": 88,
      "chip": "ym2612"
    },
    {
      "channel": 0,
      "note": 42,
      "start": 69.1636,
      "duration": 0.1599,
      "velocity": 106,
      "chip": "ym2612"
    },
    {
      "channel": 2,
      "note": 55,
      "start": 69.1667,
      "duration": 0.1237,
      "velocity": 120,
      "chip": "ym2612"
    },
    {
      "channel": 1,
      "note": 76,
      "start": 69.3275,
      "duration": 0.1977,
      "velocity": 88,
      "chip": "ym2612"
    },
    {
      "channel": 5,
      "note": 81,
      "start": 69.3306,
      "duration": 0.1949,
      "velocity": 88,
      "chip": "ym2612"
    },
    {
      "channel": 0,
      "note": 42,
      "start": 69.3334,
      "duration": 0.1402,
      "velocity": 106,
      "chip": "ym2612"
    },
    {
      "channel": 2,
      "note": 39,
      "start": 69.3365,
      "duration": 0.1207,
      "velocity": 116,
      "chip": "ym2612"
    },
    {
      "channel": 4,
      "note": 57,
      "start": 69.4778,
      "duration": 0.1128,
      "velocity": 88,
      "chip": "ym2612"
    },
    {
      "channel": 0,
      "note": 42,
      "start": 69.4811,
      "duration": 0.1594,
      "velocity": 106,
      "chip": "ym2612"
    },
    {
      "channel": 2,
      "note": 55,
      "start": 69.4842,
      "duration": 0.1246,
      "velocity": 120,
      "chip": "ym2612"
    },
    {
      "channel": 4,
      "note": 60,
      "start": 69.6439,
      "duration": 0.0969,
      "velocity": 88,
      "chip": "ym2612"
    },
    {
      "channel": 1,
      "note": 76,
      "start": 69.6473,
      "duration": 0.2117,
      "velocity": 88,
      "chip": "ym2612"
    },
    {
      "channel": 5,
      "note": 81,
      "start": 69.6509,
      "duration": 0.2234,
      "velocity": 88,
      "chip": "ym2612"
    },
    {
      "channel": 0,
      "note": 32,
      "start": 69.6538,
      "duration": 0.137,
      "velocity": 106,
      "chip": "ym2612"
    },
    {
      "channel": 2,
      "note": 39,
      "start": 69.6568,
      "duration": 0.1189,
      "velocity": 116,
      "chip": "ym2612"
    },
    {
      "channel": 4,
      "note": 62,
      "start": 69.7941,
      "duration": 0.1135,
      "velocity": 88,
      "chip": "ym2612"
    },
    {
      "channel": 0,
      "note": 42,
      "start": 69.7974,
      "duration": 0.1601,
      "velocity": 106,
      "chip": "ym2612"
    },
    {
      "channel": 2,
      "note": 55,
      "start": 69.8005,
      "duration": 0.124,
      "velocity": 120,
      "chip": "ym2612"
    },
    {
      "channel": 4,
      "note": 57,
      "start": 69.961,
      "duration": 0.0969,
      "velocity": 88,
      "chip": "ym2612"
    },
    {
      "channel": 1,
      "note": 74,
      "start": 69.9645,
      "duration": 0.0932,
      "velocity": 88,
      "chip": "ym2612"
    },
    {
      "channel": 5,
      "note": 79,
      "start": 69.9676,
      "duration": 0.0905,
      "velocity": 88,
      "chip": "ym2612"
    },
    {
      "channel": 0,
      "note": 32,
      "start": 69.9704,
      "duration": 0.1541,
      "velocity": 106,
      "chip": "ym2612"
    },
    {
      "channel": 2,
      "note": 39,
      "start": 69.9739,
      "duration": 0.1174,
      "velocity": 116,
      "chip": "ym2612"
    },
    {
      "channel": 4,
      "note": 57,
      "start": 70.1281,
      "duration": 0.13,
      "velocity": 88,
      "chip": "ym2612"
    },
    {
      "channel": 1,
      "note": 81,
      "start": 70.1317,
      "duration": 0.0612,
      "velocity": 88,
      "chip": "ym2612"
    },
    {
      "channel": 5,
      "note": 76,
      "start": 70.1347,
      "duration": 0.0583,
      "velocity": 88,
      "chip": "ym2612"
    },
    {
      "channel": 0,
      "note": 32,
      "start": 70.1376,
      "duration": 0.1385,
      "velocity": 106,
      "chip": "ym2612"
    },
    {
      "channel": 2,
      "note": 55,
      "start": 70.1407,
      "duration": 0.1175,
      "velocity": 120,
      "chip": "ym2612"
    },
    {
      "channel": 4,
      "note": 60,
      "start": 70.2797,
      "duration": 0.112,
      "velocity": 88,
      "chip": "ym2612"
    },
    {
      "channel": 1,
      "note": 81,
      "start": 70.2832,
      "duration": 0.2084,
      "velocity": 88,
      "chip": "ym2612"
    },
    {
      "channel": 5,
      "note": 76,
      "start": 70.2863,
      "duration": 0.2056,
      "velocity": 88,
      "chip": "ym2612"
    },
    {
      "channel": 0,
      "note": 42,
      "start": 70.2891,
      "duration": 0.1539,
      "velocity": 106,
      "chip": "ym2612"
    },
    {
      "channel": 2,
      "note": 39,
      "start": 70.2922,
      "duration": 0.1161,
      "velocity": 116,
      "chip": "ym2612"
    },
    {
      "channel": 4,
      "note": 62,
      "start": 70.4466,
      "duration": 0.08,
      "velocity": 88,
      "chip": "ym2612"
    },
    {
      "channel": 0,
      "note": 32,
      "start": 70.4502,
      "duration": 0.1415,
      "velocity": 106,
      "chip": "ym2612"
    },
    {
      "channel": 2,
      "note": 55,
      "start": 70.4534,
      "duration": 0.122,
      "velocity": 120,
      "chip": "ym2612"
    },
    {
      "channel": 1,
      "note": 79,
      "start": 70.5795,
      "duration": 0.079,
      "velocity": 88,
      "chip": "ym2612"
    },
    {
      "channel": 5,
      "note": 84,
      "start": 70.5826,
      "duration": 0.0762,
      "velocity": 88,
      "chip": "ym2612"
    },
    {
      "channel": 4,
      "note": 57,
      "start": 70.5954,
      "duration": 0.1139,
      "velocity": 88,
      "chip": "ym2612"
    },
    {
      "channel": 0,
      "note": 42,
      "start": 70.5987,
      "duration": 0.16,
      "velocity": 106,
      "chip": "ym2612"
    },
    {
      "channel": 2,
      "note": 39,
      "start": 70.6017,
      "duration": 0.1237,
      "velocity": 116,
      "chip": "ym2612"
    },
    {
      "channel": 4,
      "note": 57,
      "start": 70.7623,
      "duration": 0.1301,
      "velocity": 88,
      "chip": "ym2612"
    },
    {
      "channel": 0,
      "note": 42,
      "start": 70.7659,
      "duration": 0.0762,
      "velocity": 106,
      "chip": "ym2612"
    },
    {
      "channel": 1,
      "note": 55,
      "start": 70.7689,
      "duration": 0.1233,
      "velocity": 120,
      "chip": "ym2612"
    },
    {
      "channel": 0,
      "note": 42,
      "start": 70.846,
      "duration": 0.1463,
      "velocity": 106,
      "chip": "ym2612"
    },
    {
      "channel": 5,
      "note": 79,
      "start": 70.8965,
      "duration": 0.1794,
      "velocity": 88,
      "chip": "ym2612"
    },
    {
      "channel": 2,
      "note": 84,
      "start": 70.8998,
      "duration": 0.211,
      "velocity": 88,
      "chip": "ym2612"
    },
    {
      "channel": 4,
      "note": 60,
      "start": 70.9294,
      "duration": 0.0979,
      "velocity": 88,
      "chip": "ym2612"
    },
    {
      "channel": 1,
      "note": 32,
      "start": 70.9331,
      "duration": 0.1426,
      "velocity": 106,
      "chip": "ym2612"
    },
    {
      "channel": 4,
      "note": 62,
      "start": 71.0793,
      "duration": 0.08,
      "velocity": 88,
      "chip": "ym2612"
    },
    {
      "channel": 0,
      "note": 42,
      "start": 71.0826,
      "duration": 0.16,
      "velocity": 106,
      "chip": "ym2612"
    },
    {
      "channel": 1,
      "note": 55,
      "start": 71.0857,
      "duration": 0.1236,
      "velocity": 120,
      "chip": "ym2612"
    },
    {
      "channel": 4,
      "note": 52,
      "start": 71.2461,
      "duration": 0.0967,
      "velocity": 88,
      "chip": "ym2612"
    },
    {
      "channel": 5,
      "note": 78,
      "start": 71.2498,
      "duration": 0.043,
      "velocity": 88,
      "chip": "ym2612"
    },
    {
      "channel": 2,
      "note": 83,
      "start": 71.2535,
      "duration": 0.0727,
      "velocity": 88,
      "chip": "ym2612"
    },
    {
      "channel": 0,
      "note": 32,
      "start": 71.2563,
      "duration": 0.1365,
      "velocity": 106,
      "chip": "ym2612"
    },
    {
      "channel": 4,
      "note": 52,
      "start": 71.3964,
      "duration": 0.1316,
      "velocity": 88,
      "chip": "ym2612"
    },
    {
      "channel": 0,
      "note": 32,
      "start": 71.3997,
      "duration": 0.16,
      "velocity": 106,
      "chip": "ym2612"
    },
    {
      "channel": 1,
      "note": 55,
      "start": 71.4025,
      "duration": 0.1253,
      "velocity": 120,
      "chip": "ym2612"
    },
    {
      "channel": 5,
      "note": 83,
      "start": 71.5321,
      "duration": 0.2463,
      "velocity": 88,
      "chip": "ym2612"
    },
    {
      "channel": 2,
      "note": 78,
      "start": 71.5352,
      "duration": 0.2432,
      "velocity": 88,
      "chip": "ym2612"
    },
    {
      "channel": 4,
      "note": 55,
      "start": 71.5632,
      "duration": 0.0967,
      "velocity": 88,
      "chip": "ym2612"
    },
    {
      "channel": 0,
      "note": 42,
      "start": 71.5665,
      "duration": 0.16,
      "velocity": 106,
      "chip": "ym2612"
    },
    {
      "channel": 4,
      "note": 57,
      "start": 71.7303,
      "duration": 0.0633,
      "velocity": 88,
      "chip": "ym2612"
    },
    {
      "channel": 0,
      "note": 42,
      "start": 71.7339,
      "duration": 0.0595,
      "velocity": 106,
      "chip": "ym2612"
    },
    {
      "channel": 1,
      "note": 55,
      "start": 71.7368,
      "duration": 0.1248,
      "velocity": 120,
      "chip": "ym2612"
    },
    {
      "channel": 0,
      "note": 42,
      "start": 71.7978,
      "duration": 2.3432,
      "velocity": 106,
      "chip": "ym2612"
    },
    {
      "channel": 5,
      "note": 81,
      "start": 71.8809,
      "duration": 0.213,
      "velocity": 88,
      "chip": "ym2612"
    },
    {
      "channel": 2,
      "note": 76,
      "start": 71.8842,
      "duration": 0.243,
      "velocity": 88,
      "chip": "ym2612"
    },
    {
      "channel": 4,
      "note": 42,
      "start": 71.8876,
      "duration": 0.1561,
      "velocity": 106,
      "chip": "ym2612"
    },
    {
      "channel": 1,
      "note": 57,
      "start": 72.0474,
      "duration": 0.0963,
      "velocity": 88,
      "chip": "ym2612"
    },
    {
      "channel": 4,
      "note": 42,
      "start": 72.0508,
      "duration": 0.1446,
      "velocity": 106,
      "chip": "ym2612"
    },
    {
      "channel": 1,
      "note": 60,
      "start": 72.1986,
      "duration": 0.112,
      "velocity": 88,
      "chip": "ym2612"
    },
    {
      "channel": 5,
      "note": 76,
      "start": 72.2023,
      "duration": 0.2587,
      "velocity": 88,
      "chip": "ym2612"
    },
    {
      "channel": 2,
      "note": 81,
      "start": 72.2058,
      "duration": 0.2554,
      "velocity": 88,
      "chip": "ym2612"
    },
    {
      "channel": 4,
      "note": 32,
      "start": 72.2088,
      "duration": 0.1536,
      "velocity": 106,
      "chip": "ym2612"
    },
    {
      "channel": 1,
      "note": 62,
      "start": 72.3659,
      "duration": 0.0949,
      "velocity": 88,
      "chip": "ym2612"
    },
    {
      "channel": 4,
      "note": 42,
      "start": 72.3693,
      "duration": 0.1598,
      "velocity": 106,
      "chip": "ym2612"
    },
    {
      "channel": 1,
      "note": 57,
      "start": 72.5324,
      "duration": 0.0954,
      "velocity": 88,
      "chip": "ym2612"
    },
    {
      "channel": 5,
      "note": 79,
      "start": 72.536,
      "duration": 0.1252,
      "velocity": 88,
      "chip": "ym2612"
    },
    {
      "channel": 2,
      "note": 74,
      "start": 72.5393,
      "duration": 0.0552,
      "velocity": 88,
      "chip": "ym2612"
    },
    {
      "channel": 4,
      "note": 32,
      "start": 72.5423,
      "duration": 0.1357,
      "velocity": 106,
      "chip": "ym2612"
    },
    {
      "channel": 1,
      "note": 57,
      "start": 72.6813,
      "duration": 0.13,
      "velocity": 88,
      "chip": "ym2612"
    },
    {
      "channel": 5,
      "note": 81,
      "start": 72.6848,
      "duration": 0.0765,
      "velocity": 88,
      "chip": "ym2612"
    },
    {
      "channel": 2,
      "note": 76,
      "start": 72.6879,
      "duration": 0.0735,
      "velocity": 88,
      "chip": "ym2612"
    },
    {
      "channel": 4,
      "note": 32,
      "start": 72.6909,
      "duration": 0.1539,
      "velocity": 106,
      "chip": "ym2612"
    },
    {
      "channel": 1,
      "note": 60,
      "start": 72.8481,
      "duration": 0.0982,
      "velocity": 88,
      "chip": "ym2612"
    },
    {
      "channel": 5,
      "note": 81,
      "start": 72.8518,
      "duration": 0.21,
      "velocity": 88,
      "chip": "ym2612"
    },
    {
      "channel": 2,
      "note": 76,
      "start": 72.8554,
      "duration": 0.2231,
      "velocity": 88,
      "chip": "ym2612"
    },
    {
      "channel": 4,
      "note": 42,
      "start": 72.8584,
      "duration": 0.1366,
      "velocity": 106,
      "chip": "ym2612"
    },
    {
      "channel": 1,
      "note": 62,
      "start": 72.9985,
      "duration": 0.0797,
      "velocity": 88,
      "chip": "ym2612"
    },
    {
      "channel": 4,
      "note": 32,
      "start": 73.0019,
      "duration": 0.16,
      "velocity": 106,
      "chip": "ym2612"
    },
    {
      "channel": 5,
      "note": 76,
      "start": 73.166,
      "duration": 0.0794,
      "velocity": 88,
      "chip": "ym2612"
    },
    {
      "channel": 2,
      "note": 81,
      "start": 73.1691,
      "duration": 0.0764,
      "velocity": 88,
      "chip": "ym2612"
    },
    {
      "channel": 4,
      "note": 42,
      "start": 73.1721,
      "duration": 0.1566,
      "velocity": 106,
      "chip": "ym2612"
    },
    {
      "channel": 1,
      "note": 47,
      "start": 73.3322,
      "duration": 0.0966,
      "velocity": 88,
      "chip": "ym2612"
    },
    {
      "channel": 5,
      "note": 79,
      "start": 73.3357,
      "duration": 0.0598,
      "velocity": 88,
      "chip": "ym2612"
    },
    {
      "channel": 2,
      "note": 74,
      "start": 73.339,
      "duration": 0.0399,
      "velocity": 88,
      "chip": "ym2612"
    },
    {
      "channel": 4,
      "note": 42,
      "start": 73.342,
      "duration": 0.137,
      "velocity": 106,
      "chip": "ym2612"
    },
    {
      "channel": 1,
      "note": 50,
      "start": 73.4822,
      "duration": 0.1135,
      "velocity": 88,
      "chip": "ym2612"
    },
    {
      "channel": 5,
      "note": 76,
      "start": 73.4858,
      "duration": 0.2603,
      "velocity": 88,
      "chip": "ym2612"
    },
    {
      "channel": 2,
      "note": 81,
      "start": 73.4895,
      "duration": 0.2398,
      "velocity": 88,
      "chip": "ym2612"
    },
    {
      "channel": 4,
      "note": 32,
      "start": 73.4924,
      "duration": 0.1534,
      "velocity": 106,
      "chip": "ym2612"
    },
    {
      "channel": 1,
      "note": 52,
      "start": 73.649,
      "duration": 0.0968,
      "velocity": 88,
      "chip": "ym2612"
    },
    {
      "channel": 4,
      "note": 42,
      "start": 73.6524,
      "duration": 0.1435,
      "velocity": 106,
      "chip": "ym2612"
    },
    {
      "channel": 1,
      "note": 55,
      "start": 73.7991,
      "duration": 0.1136,
      "velocity": 88,
      "chip": "ym2612"
    },
    {
      "channel": 5,
      "note": 79,
      "start": 73.8028,
      "duration": 0.0615,
      "velocity": 88,
      "chip": "ym2612"
    },
    {
      "channel": 2,
      "note": 74,
      "start": 73.8061,
      "duration": 0.0735,
      "velocity": 88,
      "chip": "ym2612"
    },
    {
      "channel": 4,
      "note": 32,
      "start": 73.8094,
      "duration": 0.1535,
      "velocity": 106,
      "chip": "ym2612"
    },
    {
      "channel": 1,
      "note": 59,
      "start": 73.9666,
      "duration": 0.1297,
      "velocity": 88,
      "chip": "ym2612"
    },
    {
      "channel": 5,
      "note": 71,
      "start": 73.9703,
      "duration": 0.0438,
      "velocity": 88,
      "chip": "ym2612"
    },
    {
      "channel": 2,
      "note": 76,
      "start": 73.9734,
      "duration": 0.0408,
      "velocity": 88,
      "chip": "ym2612"
    },
    {
      "channel": 4,
      "note": 42,
      "start": 73.9767,
      "duration": 0.0696,
      "velocity": 106,
      "chip": "ym2612"
    },
    {
      "channel": 4,
      "note": 42,
      "start": 74.0503,
      "duration": 0.1478,
      "velocity": 106,
      "chip": "ym2612"
    },
    {
      "channel": 1,
      "note": 62,
      "start": 74.1331,
      "duration": 0.0968,
      "velocity": 88,
      "chip": "ym2612"
    },
    {
      "channel": 5,
      "note": 76,
      "start": 74.1367,
      "duration": 0.1449,
      "velocity": 88,
      "chip": "ym2612"
    },
    {
      "channel": 2,
      "note": 71,
      "start": 74.1402,
      "duration": 0.1415,
      "velocity": 88,
      "chip": "ym2612"
    },
    {
      "channel": 0,
      "note": 32,
      "start": 74.1434,
      "duration": 0.1379,
      "velocity": 106,
      "chip": "ym2612"
    },
    {
      "channel": 1,
      "note": 64,
      "start": 74.2851,
      "duration": 0.0797,
      "velocity": 88,
      "chip": "ym2612"
    },
    {
      "channel": 0,
      "note": 42,
      "start": 74.2884,
      "duration": 0.1598,
      "velocity": 106,
      "chip": "ym2612"
    },
    {
      "channel": 4,
      "note": 55,
      "start": 74.2915,
      "duration": 0.122,
      "velocity": 120,
      "chip": "ym2612"
    },
    {
      "channel": 5,
      "note": 76,
      "start": 74.4524,
      "duration": 0.0795,
      "velocity": 88,
      "chip": "ym2612"
    },
    {
      "channel": 2,
      "note": 81,
      "start": 74.4556,
      "duration": 0.0764,
      "velocity": 88,
      "chip": "ym2612"
    },
    {
      "channel": 0,
      "note": 42,
      "start": 74.4584,
      "duration": 0.1385,
      "velocity": 106,
      "chip": "ym2612"
    },
    {
      "channel": 1,
      "note": 57,
      "start": 74.6006,
      "duration": 0.1131,
      "velocity": 88,
      "chip": "ym2612"
    },
    {
      "channel": 0,
      "note": 42,
      "start": 74.6038,
      "duration": 0.1599,
      "velocity": 106,
      "chip": "ym2612"
    },
    {
      "channel": 4,
      "note": 55,
      "start": 74.6068,
      "duration": 0.1237,
      "velocity": 120,
      "chip": "ym2612"
    },
    {
      "channel": 1,
      "note": 60,
      "start": 74.7671,
      "duration": 0.0984,
      "velocity": 88,
      "chip": "ym2612"
    },
    {
      "channel": 5,
      "note": 76,
      "start": 74.7707,
      "duration": 0.0949,
      "velocity": 88,
      "chip": "ym2612"
    },
    {
      "channel": 2,
      "note": 81,
      "start": 74.7741,
      "duration": 0.0734,
      "velocity": 88,
      "chip": "ym2612"
    },
    {
      "channel": 0,
      "note": 32,
      "start": 74.7769,
      "duration": 0.1538,
      "velocity": 106,
      "chip": "ym2612"
    },
    {
      "channel": 1,
      "note": 62,
      "start": 74.934,
      "duration": 0.0982,
      "velocity": 88,
      "chip": "ym2612"
    },
    {
      "channel": 0,
      "note": 42,
      "start": 74.9373,
      "duration": 0.1436,
      "velocity": 106,
      "chip": "ym2612"
    },
    {
      "channel": 4,
      "note": 55,
      "start": 74.9402,
      "duration": 0.124,
      "velocity": 120,
      "chip": "ym2612"
    },
    {
      "channel": 1,
      "note": 57,
      "start": 75.0842,
      "duration": 0.1151,
      "velocity": 88,
      "chip": "ym2612"
    },
    {
      "channel": 5,
      "note": 79,
      "start": 75.0877,
      "duration": 0.0767,
      "velocity": 88,
      "chip": "ym2612"
    },
    {
      "channel": 2,
      "note": 74,
      "start": 75.0914,
      "duration": 0.1081,
      "velocity": 88,
      "chip": "ym2612"
    },
    {
      "channel": 0,
      "note": 32,
      "start": 75.0943,
      "duration": 0.1535,
      "velocity": 106,
      "chip": "ym2612"
    },
    {
      "channel": 1,
      "note": 57,
      "start": 75.2512,
      "duration": 0.13,
      "velocity": 88,
      "chip": "ym2612"
    },
    {
      "channel": 5,
      "note": 81,
      "start": 75.2549,
      "duration": 0.0431,
      "velocity": 88,
      "chip": "ym2612"
    },
    {
      "channel": 2,
      "note": 76,
      "start": 75.2581,
      "duration": 0.0401,
      "velocity": 88,
      "chip": "ym2612"
    },
    {
      "channel": 0,
      "note": 32,
      "start": 75.2609,
      "duration": 0.1371,
      "velocity": 106,
      "chip": "ym2612"
    },
    {
      "channel": 4,
      "note": 55,
      "start": 75.2639,
      "duration": 0.1175,
      "velocity": 120,
      "chip": "ym2612"
    },
    {
      "channel": 1,
      "note": 60,
      "start": 75.4015,
      "duration": 0.1133,
      "velocity": 88,
      "chip": "ym2612"
    },
    {
      "channel": 5,
      "note": 79,
      "start": 75.4051,
      "duration": 0.128,
      "velocity": 88,
      "chip": "ym2612"
    },
    {
      "channel": 2,
      "note": 84,
      "start": 75.4083,
      "duration": 0.125,
      "velocity": 88,
      "chip": "ym2612"
    },
    {
      "channel": 0,
      "note": 42,
      "start": 75.4111,
      "duration": 0.1537,
      "velocity": 106,
      "chip": "ym2612"
    },
    {
      "channel": 1,
      "note": 62,
      "start": 75.5687,
      "duration": 0.0796,
      "velocity": 88,
      "chip": "ym2612"
    },
    {
      "channel": 0,
      "note": 32,
      "start": 75.5724,
      "duration": 0.1593,
      "velocity": 106,
      "chip": "ym2612"
    },
    {
      "channel": 4,
      "note": 55,
      "start": 75.5753,
      "duration": 0.1246,
      "velocity": 120,
      "chip": "ym2612"
    },
    {
      "channel": 1,
      "note": 57,
      "start": 75.7351,
      "duration": 0.0967,
      "velocity": 88,
      "chip": "ym2612"
    },
    {
      "channel": 5,
      "note": 84,
      "start": 75.7388,
      "duration": 0.0598,
      "velocity": 88,
      "chip": "ym2612"
    },
    {
      "channel": 2,
      "note": 79,
      "start": 75.742,
      "duration": 0.0568,
      "velocity": 88,
      "chip": "ym2612"
    },
    {
      "channel": 0,
      "note": 42,
      "start": 75.7448,
      "duration": 0.137,
      "velocity": 106,
      "chip": "ym2612"
    },
    {
      "channel": 1,
      "note": 57,
      "start": 75.8853,
      "duration": 0.13,
      "velocity": 88,
      "chip": "ym2612"
    },
    {
      "channel": 5,
      "note": 76,
      "start": 75.8893,
      "duration": 0.0764,
      "velocity": 88,
      "chip": "ym2612"
    },
    {
      "channel": 2,
      "note": 81,
      "start": 75.8924,
      "duration": 0.0734,
      "velocity": 88,
      "chip": "ym2612"
    },
    {
      "channel": 0,
      "note": 42,
      "start": 75.8956,
      "duration": 0.0698,
      "velocity": 106,
      "chip": "ym2612"
    },
    {
      "channel": 4,
      "note": 55,
      "start": 75.8986,
      "duration": 0.117,
      "velocity": 120,
      "chip": "ym2612"
    },
    {
      "channel": 0,
      "note": 42,
      "start": 75.9695,
      "duration": 0.1627,
      "velocity": 106,
      "chip": "ym2612"
    },
    {
      "channel": 1,
      "note": 60,
      "start": 76.0521,
      "duration": 0.0968,
      "velocity": 88,
      "chip": "ym2612"
    },
    {
      "channel": 5,
      "note": 79,
      "start": 76.0557,
      "duration": 0.1449,
      "velocity": 88,
      "chip": "ym2612"
    },
    {
      "channel": 2,
      "note": 83,
      "start": 76.0589,
      "duration": 0.1419,
      "velocity": 88,
      "chip": "ym2612"
    },
    {
      "channel": 4,
      "note": 32,
      "start": 76.0621,
      "duration": 0.1384,
      "velocity": 106,
      "chip": "ym2612"
    },
    {
      "channel": 1,
      "note": 62,
      "start": 76.204,
      "duration": 0.0799,
      "velocity": 88,
      "chip": "ym2612"
    },
    {
      "channel": 0,
      "note": 42,
      "start": 76.2073,
      "duration": 0.16,
      "velocity": 106,
      "chip": "ym2612"
    },
    {
      "channel": 4,
      "note": 55,
      "start": 76.2104,
      "duration": 0.1222,
      "velocity": 120,
      "chip": "ym2612"
    },
    {
      "channel": 1,
      "note": 59,
      "start": 76.3708,
      "duration": 0.0951,
      "velocity": 88,
      "chip": "ym2612"
    },
    {
      "channel": 5,
      "note": 79,
      "start": 76.3745,
      "duration": 0.1751,
      "velocity": 88,
      "chip": "ym2612"
    },
    {
      "channel": 2,
      "note": 84,
      "start": 76.3778,
      "duration": 0.1567,
      "velocity": 88,
      "chip": "ym2612"
    },
    {
      "channel": 0,
      "note": 32,
      "start": 76.3807,
      "duration": 0.1535,
      "velocity": 106,
      "chip": "ym2612"
    },
    {
      "channel": 1,
      "note": 59,
      "start": 76.5378,
      "duration": 0.1285,
      "velocity": 88,
      "chip": "ym2612"
    },
    {
      "channel": 0,
      "note": 32,
      "start": 76.541,
      "duration": 0.1419,
      "velocity": 106,
      "chip": "ym2612"
    },
    {
      "channel": 4,
      "note": 55,
      "start": 76.544,
      "duration": 0.1225,
      "velocity": 120,
      "chip": "ym2612"
    },
    {
      "channel": 1,
      "note": 62,
      "start": 76.6864,
      "duration": 0.1134,
      "velocity": 88,
      "chip": "ym2612"
    },
    {
      "channel": 5,
      "note": 79,
      "start": 76.6905,
      "duration": 0.1776,
      "velocity": 88,
      "chip": "ym2612"
    },
    {
      "channel": 2,
      "note": 83,
      "start": 76.6936,
      "duration": 0.1746,
      "velocity": 88,
      "chip": "ym2612"
    },
    {
      "channel": 0,
      "note": 42,
      "start": 76.6965,
      "duration": 0.1534,
      "velocity": 106,
      "chip": "ym2612"
    },
    {
      "channel": 1,
      "note": 64,
      "start": 76.8537,
      "duration": 0.0796,
      "velocity": 88,
      "chip": "ym2612"
    },
    {
      "channel": 0,
      "note": 42,
      "start": 76.8573,
      "duration": 0.0759,
      "velocity": 106,
      "chip": "ym2612"
    },
    {
      "channel": 4,
      "note": 55,
      "start": 76.861,
      "duration": 0.1224,
      "velocity": 120,
      "chip": "ym2612"
    },
    {
      "channel": 0,
      "note": 42,
      "start": 76.9378,
      "duration": 0.0622,
      "velocity": 106,
      "chip": "ym2612"
    },
    {
      "channel": 1,
      "note": 59,
      "start": 77.0035,
      "duration": 0.1148,
      "velocity": 88,
      "chip": "ym2612"
    },
    {
      "channel": 5,
      "note": 69,
      "start": 77.0074,
      "duration": 0.0762,
      "velocity": 104,
      "chip": "ym2612"
    },
    {
      "channel": 2,
      "note": 76,
      "start": 77.011,
      "duration": 0.056,
      "velocity": 104,
      "chip": "ym2612"
    },
    {
      "channel": 4,
      "note": 37,
      "start": 77.0151,
      "duration": 0.2355,
      "velocity": 124,
      "chip": "ym2612"
    },
    {
      "channel": 1,
      "note": 59,
      "start": 77.17,
      "duration": 0.097,
      "velocity": 88,
      "chip": "ym2612"
    },
    {
      "channel": 0,
      "note": 85,
      "start": 77.1741,
      "duration": 0.1264,
      "velocity": 127,
      "chip": "ym2612"
    },
    {
      "channel": 1,
      "note": 54,
      "start": 77.337,
      "duration": 0.0969,
      "velocity": 88,
      "chip": "ym2612"
    },
    {
      "channel": 5,
      "note": 69,
      "start": 77.3409,
      "duration": 0.0598,
      "velocity": 104,
      "chip": "ym2612"
    },
    {
      "channel": 2,
      "note": 76,
      "start": 77.3446,
      "duration": 0.0562,
      "velocity": 104,
      "chip": "ym2612"
    },
    {
      "channel": 4,
      "note": 37,
      "start": 77.3485,
      "duration": 0.2191,
      "velocity": 124,
      "chip": "ym2612"
    },
    {
      "channel": 1,
      "note": 54,
      "start": 77.4871,
      "duration": 0.1137,
      "velocity": 88,
      "chip": "ym2612"
    },
    {
      "channel": 0,
      "note": 85,
      "start": 77.4907,
      "duration": 0.1281,
      "velocity": 127,
      "chip": "ym2612"
    },
    {
      "channel": 1,
      "note": 57,
      "start": 77.6542,
      "duration": 0.08,
      "velocity": 88,
      "chip": "ym2612"
    },
    {
      "channel": 2,
      "note": 39,
      "start": 77.6578,
      "duration": 0.1283,
      "velocity": 116,
      "chip": "ym2612"
    },
    {
      "channel": 4,
      "note": 37,
      "start": 77.661,
      "duration": 0.2237,
      "velocity": 124,
      "chip": "ym2612"
    },
    {
      "channel": 1,
      "note": 57,
      "start": 77.8043,
      "duration": 0.0802,
      "velocity": 88,
      "chip": "ym2612"
    },
    {
      "channel": 0,
      "note": 85,
      "start": 77.8079,
      "duration": 0.1266,
      "velocity": 127,
      "chip": "ym2612"
    },
    {
      "channel": 1,
      "note": 52,
      "start": 77.9713,
      "duration": 0.0968,
      "velocity": 88,
      "chip": "ym2612"
    },
    {
      "channel": 2,
      "note": 39,
      "start": 77.9749,
      "duration": 0.1268,
      "velocity": 116,
      "chip": "ym2612"
    },
    {
      "channel": 4,
      "note": 37,
      "start": 77.9785,
      "duration": 0.2247,
      "velocity": 124,
      "chip": "ym2612"
    },
    {
      "channel": 1,
      "note": 53,
      "start": 78.138,
      "duration": 0.097,
      "velocity": 88,
      "chip": "ym2612"
    },
    {
      "channel": 0,
      "note": 85,
      "start": 78.1417,
      "duration": 0.1266,
      "velocity": 127,
      "chip": "ym2612"
    },
    {
      "channel": 1,
      "note": 54,
      "start": 78.2898,
      "duration": 0.0801,
      "velocity": 88,
      "chip": "ym2612"
    },
    {
      "channel": 5,
      "note": 76,
      "start": 78.2936,
      "duration": 0.0766,
      "velocity": 104,
      "chip": "ym2612"
    },
    {
      "channel": 2,
      "note": 69,
      "start": 78.297,
      "duration": 0.0733,
      "velocity": 104,
      "chip": "ym2612"
    },
    {
      "channel": 4,
      "note": 37,
      "start": 78.3011,
      "duration": 0.2359,
      "velocity": 124,
      "chip": "ym2612"
    },
    {
      "channel": 1,
      "note": 54,
      "start": 78.4571,
      "duration": 0.0949,
      "velocity": 88,
      "chip": "ym2612"
    },
    {
      "channel": 2,
      "note": 39,
      "start": 78.4609,
      "duration": 0.1247,
      "velocity": 116,
      "chip": "ym2612"
    },
    {
      "channel": 1,
      "note": 57,
      "start": 78.6054,
      "duration": 0.0802,
      "velocity": 88,
      "chip": "ym2612"
    },
    {
      "channel": 5,
      "note": 76,
      "start": 78.6092,
      "duration": 0.0767,
      "velocity": 104,
      "chip": "ym2612"
    },
    {
      "channel": 0,
      "note": 69,
      "start": 78.6126,
      "duration": 0.073,
      "velocity": 104,
      "chip": "ym2612"
    },
    {
      "channel": 4,
      "note": 85,
      "start": 78.6161,
      "duration": 0.1195,
      "velocity": 127,
      "chip": "ym2612"
    },
    {
      "channel": 2,
      "note": 37,
      "start": 78.621,
      "duration": 0.1523,
      "velocity": 124,
      "chip": "ym2612"
    },
    {
      "channel": 1,
      "note": 57,
      "start": 78.7721,
      "duration": 0.0803,
      "velocity": 88,
      "chip": "ym2612"
    },
    {
      "channel": 2,
      "note": 39,
      "start": 78.7758,
      "duration": 0.1269,
      "velocity": 116,
      "chip": "ym2612"
    },
    {
      "channel": 1,
      "note": 59,
      "start": 78.9392,
      "duration": 0.0983,
      "velocity": 88,
      "chip": "ym2612"
    },
    {
      "channel": 4,
      "note": 85,
      "start": 78.943,
      "duration": 0.1265,
      "velocity": 127,
      "chip": "ym2612"
    },
    {
      "channel": 0,
      "note": 37,
      "start": 78.9462,
      "duration": 0.2233,
      "velocity": 124,
      "chip": "ym2612"
    },
    {
      "channel": 1,
      "note": 59,
      "start": 79.0893,
      "duration": 0.1152,
      "velocity": 88,
      "chip": "ym2612"
    },
    {
      "channel": 2,
      "note": 39,
      "start": 79.0929,
      "duration": 0.1268,
      "velocity": 116,
      "chip": "ym2612"
    },
    {
      "channel": 1,
      "note": 52,
      "start": 79.2571,
      "duration": 0.0969,
      "velocity": 88,
      "chip": "ym2612"
    },
    {
      "channel": 4,
      "note": 85,
      "start": 79.261,
      "duration": 0.1255,
      "velocity": 127,
      "chip": "ym2612"
    },
    {
      "channel": 0,
      "note": 37,
      "start": 79.264,
      "duration": 0.2225,
      "velocity": 124,
      "chip": "ym2612"
    },
    {
      "channel": 1,
      "note": 54,
      "start": 79.4066,
      "duration": 0.08,
      "velocity": 88,
      "chip": "ym2612"
    },
    {
      "channel": 2,
      "note": 39,
      "start": 79.4107,
      "duration": 0.1275,
      "velocity": 116,
      "chip": "ym2612"
    },
    {
      "channel": 1,
      "note": 57,
      "start": 79.5733,
      "duration": 0.0968,
      "velocity": 88,
      "chip": "ym2612"
    },
    {
      "channel": 5,
      "note": 76,
      "start": 79.5771,
      "duration": 0.0766,
      "velocity": 104,
      "chip": "ym2612"
    },
    {
      "channel": 4,
      "note": 69,
      "start": 79.5805,
      "duration": 0.0731,
      "velocity": 104,
      "chip": "ym2612"
    },
    {
      "channel": 2,
      "note": 39,
      "start": 79.5838,
      "duration": 0.1214,
      "velocity": 116,
      "chip": "ym2612"
    },
    {
      "channel": 0,
      "note": 37,
      "start": 79.5869,
      "duration": 0.2167,
      "velocity": 124,
      "chip": "ym2612"
    },
    {
      "channel": 1,
      "note": 57,
      "start": 79.7402,
      "duration": 0.0635,
      "velocity": 88,
      "chip": "ym2612"
    },
    {
      "channel": 4,
      "note": 85,
      "start": 79.7447,
      "duration": 0.1273,
      "velocity": 127,
      "chip": "ym2612"
    },
    {
      "channel": 1,
      "note": 57,
      "start": 79.8905,
      "duration": 0.1135,
      "velocity": 88,
      "chip": "ym2612"
    },
    {
      "channel": 5,
      "note": 69,
      "start": 79.8942,
      "duration": 0.0765,
      "velocity": 104,
      "chip": "ym2612"
    },
    {
      "channel": 2,
      "note": 76,
      "start": 79.898,
      "duration": 0.0728,
      "velocity": 104,
      "chip": "ym2612"
    },
    {
      "channel": 0,
      "note": 37,
      "start": 79.9018,
      "duration": 0.2355,
      "velocity": 124,
      "chip": "ym2612"
    },
    {
      "channel": 1,
      "note": 57,
      "start": 80.0577,
      "duration": 0.0797,
      "velocity": 88,
      "chip": "ym2612"
    },
    {
      "channel": 4,
      "note": 85,
      "start": 80.0615,
      "duration": 0.126,
      "velocity": 127,
      "chip": "ym2612"
    },
    {
      "channel": 1,
      "note": 52,
      "start": 80.209,
      "duration": 0.1121,
      "velocity": 88,
      "chip": "ym2612"
    },
    {
      "channel": 2,
      "note": 39,
      "start": 80.2126,
      "duration": 0.1252,
      "velocity": 116,
      "chip": "ym2612"
    },
    {
      "channel": 0,
      "note": 37,
      "start": 80.2156,
      "duration": 0.2403,
      "velocity": 124,
      "chip": "ym2612"
    },
    {
      "channel": 1,
      "note": 52,
      "start": 80.3758,
      "duration": 0.0954,
      "velocity": 88,
      "chip": "ym2612"
    },
    {
      "channel": 4,
      "note": 85,
      "start": 80.3795,
      "duration": 0.1251,
      "velocity": 127,
      "chip": "ym2612"
    },
    {
      "channel": 1,
      "note": 52,
      "start": 80.5425,
      "duration": 0.0954,
      "velocity": 88,
      "chip": "ym2612"
    },
    {
      "channel": 2,
      "note": 39,
      "start": 80.5461,
      "duration": 0.1255,
      "velocity": 116,
      "chip": "ym2612"
    },
    {
      "channel": 0,
      "note": 37,
      "start": 80.5492,
      "duration": 0.2222,
      "velocity": 124,
      "chip": "ym2612"
    },
    {
      "channel": 1,
      "note": 52,
      "start": 80.6914,
      "duration": 0.0802,
      "velocity": 88,
      "chip": "ym2612"
    },
    {
      "channel": 5,
      "note": 79,
      "start": 80.6953,
      "duration": 0.1264,
      "velocity": 104,
      "chip": "ym2612"
    },
    {
      "channel": 4,
      "note": 72,
      "start": 80.6988,
      "duration": 0.1563,
      "velocity": 104,
      "chip": "ym2612"
    },
    {
      "channel": 2,
      "note": 85,
      "start": 80.7024,
      "duration": 0.1194,
      "velocity": 127,
      "chip": "ym2612"
    },
    {
      "channel": 1,
      "note": 54,
      "start": 80.8584,
      "duration": 0.0982,
      "velocity": 88,
      "chip": "ym2612"
    },
    {
      "channel": 4,
      "note": 75,
      "start": 80.8623,
      "duration": 0.0762,
      "velocity": 104,
      "chip": "ym2612"
    },
    {
      "channel": 5,
      "note": 82,
      "start": 80.8657,
      "duration": 0.0912,
      "velocity": 104,
      "chip": "ym2612"
    },
    {
      "channel": 2,
      "note": 39,
      "start": 80.869,
      "duration": 0.1197,
      "velocity": 116,
      "chip": "ym2612"
    },
    {
      "channel": 0,
      "note": 37,
      "start": 80.8736,
      "duration": 0.2149,
      "velocity": 124,
      "chip": "ym2612"
    },
    {
      "channel": 1,
      "note": 54,
      "start": 81.0084,
      "duration": 0.115,
      "velocity": 88,
      "chip": "ym2612"
    },
    {
      "channel": 2,
      "note": 39,
      "start": 81.0122,
      "duration": 0.1268,
      "velocity": 116,
      "chip": "ym2612"
    },
    {
      "channel": 1,
      "note": 54,
      "start": 81.1754,
      "duration": 0.0801,
      "velocity": 88,
      "chip": "ym2612"
    },
    {
      "channel": 4,
      "note": 82,
      "start": 81.1797,
      "duration": 0.0761,
      "velocity": 104,
      "chip": "ym2612"
    },
    {
      "channel": 5,
      "note": 75,
      "start": 81.1829,
      "duration": 0.0729,
      "velocity": 104,
      "chip": "ym2612"
    },
    {
      "channel": 0,
      "note": 85,
      "start": 81.1865,
      "duration": 0.1191,
      "velocity": 127,
      "chip": "ym2612"
    },
    {
      "channel": 2,
      "note": 37,
      "start": 81.1898,
      "duration": 0.1535,
      "velocity": 124,
      "chip": "ym2612"
    },
    {
      "channel": 1,
      "note": 54,
      "start": 81.3422,
      "duration": 0.0636,
      "velocity": 88,
      "chip": "ym2612"
    },
    {
      "channel": 2,
      "note": 39,
      "start": 81.3458,
      "duration": 0.1268,
      "velocity": 116,
      "chip": "ym2612"
    },
    {
      "channel": 1,
      "note": 59,
      "start": 81.4934,
      "duration": 0.0792,
      "velocity": 88,
      "chip": "ym2612"
    },
    {
      "channel": 0,
      "note": 85,
      "start": 81.4971,
      "duration": 0.127,
      "velocity": 127,
      "chip": "ym2612"
    },
    {
      "channel": 4,
      "note": 37,
      "start": 81.5003,
      "duration": 0.2393,
      "velocity": 124,
      "chip": "ym2612"
    },
    {
      "channel": 1,
      "note": 59,
      "start": 81.6597,
      "duration": 0.0964,
      "velocity": 88,
      "chip": "ym2612"
    },
    {
      "channel": 2,
      "note": 39,
      "start": 81.6633,
      "duration": 0.1278,
      "velocity": 116,
      "chip": "ym2612"
    },
    {
      "channel": 1,
      "note": 52,
      "start": 81.8095,
      "duration": 0.1135,
      "velocity": 88,
      "chip": "ym2612"
    },
    {
      "channel": 0,
      "note": 85,
      "start": 81.8134,
      "duration": 0.1263,
      "velocity": 127,
      "chip": "ym2612"
    },
    {
      "channel": 4,
      "note": 37,
      "start": 81.8164,
      "duration": 0.2402,
      "velocity": 124,
      "chip": "ym2612"
    },
    {
      "channel": 1,
      "note": 53,
      "start": 81.9763,
      "duration": 0.0969,
      "velocity": 88,
      "chip": "ym2612"
    },
    {
      "channel": 5,
      "note": 79,
      "start": 81.9802,
      "duration": 0.1265,
      "velocity": 104,
      "chip": "ym2612"
    },
    {
      "channel": 2,
      "note": 74,
      "start": 81.9836,
      "duration": 0.1232,
      "velocity": 104,
      "chip": "ym2612"
    },
    {
      "channel": 1,
      "note": 59,
      "start": 82.1432,
      "duration": 0.097,
      "velocity": 88,
      "chip": "ym2612"
    },
    {
      "channel": 5,
      "note": 76,
      "start": 82.1471,
      "duration": 0.0613,
      "velocity": 104,
      "chip": "ym2612"
    },
    {
      "channel": 2,
      "note": 69,
      "start": 82.1504,
      "duration": 0.0581,
      "velocity": 104,
      "chip": "ym2612"
    },
    {
      "channel": 4,
      "note": 37,
      "start": 82.1549,
      "duration": 0.2204,
      "velocity": 124,
      "chip": "ym2612"
    },
    {
      "channel": 1,
      "note": 59,
      "start": 82.2948,
      "duration": 0.1122,
      "velocity": 88,
      "chip": "ym2612"
    },
    {
      "channel": 0,
      "note": 55,
      "start": 82.2986,
      "duration": 0.125,
      "velocity": 120,
      "chip": "ym2612"
    },
    {
      "channel": 1,
      "note": 54,
      "start": 82.4617,
      "duration": 0.0955,
      "velocity": 88,
      "chip": "ym2612"
    },
    {
      "channel": 5,
      "note": 69,
      "start": 82.4655,
      "duration": 0.0766,
      "velocity": 104,
      "chip": "ym2612"
    },
    {
      "channel": 2,
      "note": 76,
      "start": 82.4692,
      "duration": 0.073,
      "velocity": 104,
      "chip": "ym2612"
    },
    {
      "channel": 4,
      "note": 37,
      "start": 82.4732,
      "duration": 0.2177,
      "velocity": 124,
      "chip": "ym2612"
    },
    {
      "channel": 1,
      "note": 54,
      "start": 82.6104,
      "duration": 0.1136,
      "velocity": 88,
      "chip": "ym2612"
    },
    {
      "channel": 0,
      "note": 55,
      "start": 82.6138,
      "duration": 0.1269,
      "velocity": 120,
      "chip": "ym2612"
    },
    {
      "channel": 1,
      "note": 57,
      "start": 82.7774,
      "duration": 0.0801,
      "velocity": 88,
      "chip": "ym2612"
    },
    {
      "channel": 2,
      "note": 39,
      "start": 82.781,
      "duration": 0.1267,
      "velocity": 116,
      "chip": "ym2612"
    },
    {
      "channel": 4,
      "note": 37,
      "start": 82.7843,
      "duration": 0.2236,
      "velocity": 124,
      "chip": "ym2612"
    },
    {
      "channel": 1,
      "note": 57,
      "start": 82.9443,
      "duration": 0.0634,
      "velocity": 88,
      "chip": "ym2612"
    },
    {
      "channel": 0,
      "note": 55,
      "start": 82.9477,
      "duration": 0.1268,
      "velocity": 120,
      "chip": "ym2612"
    },
    {
      "channel": 1,
      "note": 52,
      "start": 83.0945,
      "duration": 0.115,
      "velocity": 88,
      "chip": "ym2612"
    },
    {
      "channel": 2,
      "note": 39,
      "start": 83.0981,
      "duration": 0.1267,
      "velocity": 116,
      "chip": "ym2612"
    },
    {
      "channel": 4,
      "note": 37,
      "start": 83.1017,
      "duration": 0.2398,
      "velocity": 124,
      "chip": "ym2612"
    },
    {
      "channel": 1,
      "note": 53,
      "start": 83.2614,
      "duration": 0.0969,
      "velocity": 88,
      "chip": "ym2612"
    },
    {
      "channel": 5,
      "note": 79,
      "start": 83.2653,
      "duration": 0.1432,
      "velocity": 104,
      "chip": "ym2612"
    },
    {
      "channel": 0,
      "note": 72,
      "start": 83.2686,
      "duration": 0.1396,
      "velocity": 104,
      "chip": "ym2612"
    },
    {
      "channel": 2,
      "note": 55,
      "start": 83.2722,
      "duration": 0.1196,
      "velocity": 120,
      "chip": "ym2612"
    },
    {
      "channel": 1,
      "note": 54,
      "start": 83.4118,
      "duration": 0.08,
      "velocity": 88,
      "chip": "ym2612"
    },
    {
      "channel": 0,
      "note": 76,
      "start": 83.4155,
      "duration": 0.0761,
      "velocity": 104,
      "chip": "ym2612"
    },
    {
      "channel": 5,
      "note": 69,
      "start": 83.4189,
      "duration": 0.0563,
      "velocity": 104,
      "chip": "ym2612"
    },
    {
      "channel": 2,
      "note": 39,
      "start": 83.4222,
      "duration": 0.1212,
      "velocity": 116,
      "chip": "ym2612"
    },
    {
      "channel": 4,
      "note": 37,
      "start": 83.4255,
      "duration": 0.2333,
      "velocity": 124,
      "chip": "ym2612"
    },
    {
      "channel": 1,
      "note": 54,
      "start": 83.5789,
      "duration": 0.0963,
      "velocity": 88,
      "chip": "ym2612"
    },
    {
      "channel": 2,
      "note": 39,
      "start": 83.5827,
      "duration": 0.1278,
      "velocity": 116,
      "chip": "ym2612"
    },
    {
      "channel": 1,
      "note": 57,
      "start": 83.7454,
      "duration": 0.0636,
      "velocity": 88,
      "chip": "ym2612"
    },
    {
      "channel": 0,
      "note": 69,
      "start": 83.749,
      "duration": 0.0598,
      "velocity": 104,
      "chip": "ym2612"
    },
    {
      "channel": 5,
      "note": 76,
      "start": 83.7527,
      "duration": 0.0564,
      "velocity": 104,
      "chip": "ym2612"
    },
    {
      "channel": 4,
      "note": 85,
      "start": 83.7563,
      "duration": 0.1209,
      "velocity": 127,
      "chip": "ym2612"
    },
    {
      "channel": 2,
      "note": 37,
      "start": 83.7596,
      "duration": 0.137,
      "velocity": 124,
      "chip": "ym2612"
    },
    {
      "channel": 1,
      "note": 57,
      "start": 83.8955,
      "duration": 0.0802,
      "velocity": 88,
      "chip": "ym2612"
    },
    {
      "channel": 2,
      "note": 39,
      "start": 83.8991,
      "duration": 0.1268,
      "velocity": 116,
      "chip": "ym2612"
    },
    {
      "channel": 1,
      "note": 59,
      "start": 84.0634,
      "duration": 0.0958,
      "velocity": 88,
      "chip": "ym2612"
    },
    {
      "channel": 4,
      "note": 85,
      "start": 84.0672,
      "duration": 0.1256,
      "velocity": 127,
      "chip": "ym2612"
    },
    {
      "channel": 0,
      "note": 37,
      "start": 84.0704,
      "duration": 0.2238,
      "velocity": 124,
      "chip": "ym2612"
    },
    {
      "channel": 1,
      "note": 59,
      "start": 84.214,
      "duration": 0.1122,
      "velocity": 88,
      "chip": "ym2612"
    },
    {
      "channel": 2,
      "note": 39,
      "start": 84.2176,
      "duration": 0.1254,
      "velocity": 116,
      "chip": "ym2612"
    },
    {
      "channel": 1,
      "note": 52,
      "start": 84.381,
      "duration": 0.0953,
      "velocity": 88,
      "chip": "ym2612"
    },
    {
      "channel": 4,
      "note": 85,
      "start": 84.3853,
      "duration": 0.1245,
      "velocity": 127,
      "chip": "ym2612"
    },
    {
      "channel": 0,
      "note": 37,
      "start": 84.3882,
      "duration": 0.2216,
      "velocity": 124,
      "chip": "ym2612"
    },
    {
      "channel": 1,
      "note": 54,
      "start": 84.548,
      "duration": 0.062,
      "velocity": 88,
      "chip": "ym2612"
    },
    {
      "channel": 5,
      "note": 79,
      "start": 84.5518,
      "duration": 0.0915,
      "velocity": 104,
      "chip": "ym2612"
    },
    {
      "channel": 2,
      "note": 72,
      "start": 84.5554,
      "duration": 0.138,
      "velocity": 104,
      "chip": "ym2612"
    },
    {
      "channel": 1,
      "note": 57,
      "start": 84.6966,
      "duration": 0.1134,
      "velocity": 88,
      "chip": "ym2612"
    },
    {
      "channel": 5,
      "note": 76,
      "start": 84.7006,
      "duration": 0.0763,
      "velocity": 104,
      "chip": "ym2612"
    },
    {
      "channel": 2,
      "note": 69,
      "start": 84.7039,
      "duration": 0.073,
      "velocity": 104,
      "chip": "ym2612"
    },
    {
      "channel": 0,
      "note": 37,
      "start": 84.7078,
      "duration": 0.2357,
      "velocity": 124,
      "chip": "ym2612"
    },
    {
      "channel": 1,
      "note": 57,
      "start": 84.8635,
      "duration": 0.0801,
      "velocity": 88,
      "chip": "ym2612"
    },
    {
      "channel": 4,
      "note": 85,
      "start": 84.8674,
      "duration": 0.1263,
      "velocity": 127,
      "chip": "ym2612"
    },
    {
      "channel": 1,
      "note": 57,
      "start": 85.0137,
      "duration": 0.1149,
      "velocity": 88,
      "chip": "ym2612"
    },
    {
      "channel": 5,
      "note": 69,
      "start": 85.0174,
      "duration": 0.0766,
      "velocity": 104,
      "chip": "ym2612"
    },
    {
      "channel": 2,
      "note": 76,
      "start": 85.0208,
      "duration": 0.0733,
      "velocity": 104,
      "chip": "ym2612"
    },
    {
      "channel": 0,
      "note": 37,
      "start": 85.0245,
      "duration": 0.2361,
      "velocity": 124,
      "chip": "ym2612"
    },
    {
      "channel": 1,
      "note": 57,
      "start": 85.1809,
      "duration": 0.0798,
      "velocity": 88,
      "chip": "ym2612"
    },
    {
      "channel": 4,
      "note": 85,
      "start": 85.1846,
      "duration": 0.1261,
      "velocity": 127,
      "chip": "ym2612"
    },
    {
      "channel": 1,
      "note": 52,
      "start": 85.3475,
      "duration": 0.0967,
      "velocity": 88,
      "chip": "ym2612"
    },
    {
      "channel": 2,
      "note": 39,
      "start": 85.3511,
      "duration": 0.1267,
      "velocity": 116,
      "chip": "ym2612"
    },
    {
      "channel": 0,
      "note": 37,
      "start": 85.3542,
      "duration": 0.2236,
      "velocity": 124,
      "chip": "ym2612"
    },
    {
      "channel": 1,
      "note": 52,
      "start": 85.4974,
      "duration": 0.1137,
      "velocity": 88,
      "chip": "ym2612"
    },
    {
      "channel": 4,
      "note": 85,
      "start": 85.5012,
      "duration": 0.1283,
      "velocity": 127,
      "chip": "ym2612"
    },
    {
      "channel": 1,
      "note": 52,
      "start": 85.6643,
      "duration": 0.097,
      "velocity": 88,
      "chip": "ym2612"
    },
    {
      "channel": 5,
      "note": 79,
      "start": 85.6686,
      "duration": 0.1428,
      "velocity": 104,
      "chip": "ym2612"
    },
    {
      "channel": 2,
      "note": 72,
      "start": 85.6722,
      "duration": 0.1241,
      "velocity": 104,
      "chip": "ym2612"
    },
    {
      "channel": 0,
      "note": 37,
      "start": 85.6763,
      "duration": 0.2185,
      "velocity": 124,
      "chip": "ym2612"
    },
    {
      "channel": 1,
      "note": 52,
      "start": 85.8147,
      "duration": 0.0802,
      "velocity": 88,
      "chip": "ym2612"
    },
    {
      "channel": 5,
      "note": 81,
      "start": 85.8186,
      "duration": 0.1597,
      "velocity": 104,
      "chip": "ym2612"
    },
    {
      "channel": 2,
      "note": 74,
      "start": 85.822,
      "duration": 0.1565,
      "velocity": 104,
      "chip": "ym2612"
    },
    {
      "channel": 4,
      "note": 85,
      "start": 85.8254,
      "duration": 0.1196,
      "velocity": 127,
      "chip": "ym2612"
    },
    {
      "channel": 1,
      "note": 54,
      "start": 85.9817,
      "duration": 0.0967,
      "velocity": 88,
      "chip": "ym2612"
    },
    {
      "channel": 5,
      "note": 75,
      "start": 85.9856,
      "duration": 0.093,
      "velocity": 104,
      "chip": "ym2612"
    },
    {
      "channel": 2,
      "note": 82,
      "start": 85.9895,
      "duration": 0.0723,
      "velocity": 104,
      "chip": "ym2612"
    },
    {
      "channel": 0,
      "note": 37,
      "start": 85.9934,
      "duration": 0.2199,
      "velocity": 124,
      "chip": "ym2612"
    },
    {
      "channel": 1,
      "note": 54,
      "start": 86.1484,
      "duration": 0.0978,
      "velocity": 88,
      "chip": "ym2612"
    },
    {
      "channel": 2,
      "note": 39,
      "start": 86.1522,
      "duration": 0.1266,
      "velocity": 116,
      "chip": "ym2612"
    },
    {
      "channel": 1,
      "note": 54,
      "start": 86.3002,
      "duration": 0.0801,
      "velocity": 88,
      "chip": "ym2612"
    },
    {
      "channel": 5,
      "note": 82,
      "start": 86.3039,
      "duration": 0.0767,
      "velocity": 104,
      "chip": "ym2612"
    },
    {
      "channel": 4,
      "note": 75,
      "start": 86.3073,
      "duration": 0.0732,
      "velocity": 104,
      "chip": "ym2612"
    },
    {
      "channel": 0,
      "note": 85,
      "start": 86.3109,
      "duration": 0.118,
      "velocity": 127,
      "chip": "ym2612"
    },
    {
      "channel": 2,
      "note": 37,
      "start": 86.3142,
      "duration": 0.1539,
      "velocity": 124,
      "chip": "ym2612"
    },
    {
      "channel": 1,
      "note": 54,
      "start": 86.467,
      "duration": 0.0802,
      "velocity": 88,
      "chip": "ym2612"
    },
    {
      "channel": 2,
      "note": 39,
      "start": 86.4706,
      "duration": 0.1253,
      "velocity": 116,
      "chip": "ym2612"
    },
    {
      "channel": 1,
      "note": 59,
      "start": 86.6156,
      "duration": 0.0802,
      "velocity": 88,
      "chip": "ym2612"
    },
    {
      "channel": 4,
      "note": 76,
      "start": 86.6195,
      "duration": 0.1098,
      "velocity": 104,
      "chip": "ym2612"
    },
    {
      "channel": 5,
      "note": 83,
      "start": 86.6229,
      "duration": 0.0731,
      "velocity": 104,
      "chip": "ym2612"
    },
    {
      "channel": 0,
      "note": 85,
      "start": 86.6261,
      "duration": 0.1198,
      "velocity": 127,
      "chip": "ym2612"
    },
    {
      "channel": 2,
      "note": 37,
      "start": 86.6309,
      "duration": 0.1533,
      "velocity": 124,
      "chip": "ym2612"
    },
    {
      "channel": 1,
      "note": 59,
      "start": 86.783,
      "duration": 0.0979,
      "velocity": 88,
      "chip": "ym2612"
    },
    {
      "channel": 2,
      "note": 39,
      "start": 86.7866,
      "duration": 0.1264,
      "velocity": 116,
      "chip": "ym2612"
    },
    {
      "channel": 1,
      "note": 52,
      "start": 86.9494,
      "duration": 0.0985,
      "velocity": 88,
      "chip": "ym2612"
    },
    {
      "channel": 4,
      "note": 82,
      "start": 86.9532,
      "duration": 0.1266,
      "velocity": 104,
      "chip": "ym2612"
    },
    {
      "channel": 5,
      "note": 75,
      "start": 86.9565,
      "duration": 0.1234,
      "velocity": 104,
      "chip": "ym2612"
    },
    {
      "channel": 0,
      "note": 85,
      "start": 86.9598,
      "duration": 0.1198,
      "velocity": 127,
      "chip": "ym2612"
    },
    {
      "channel": 2,
      "note": 37,
      "start": 86.9649,
      "duration": 0.1429,
      "velocity": 124,
      "chip": "ym2612"
    },
    {
      "channel": 1,
      "note": 53,
      "start": 87.0996,
      "duration": 0.1151,
      "velocity": 88,
      "chip": "ym2612"
    },
    {
      "channel": 4,
      "note": 81,
      "start": 87.1037,
      "duration": 0.1263,
      "velocity": 104,
      "chip": "ym2612"
    },
    {
      "channel": 5,
      "note": 74,
      "start": 87.107,
      "duration": 0.1232,
      "velocity": 104,
      "chip": "ym2612"
    },
    {
      "channel": 2,
      "note": 39,
      "start": 87.1103,
      "duration": 0.1199,
      "velocity": 116,
      "chip": "ym2612"
    },
    {
      "channel": 1,
      "note": 54,
      "start": 87.2666,
      "duration": 0.1301,
      "velocity": 88,
      "chip": "ym2612"
    },
    {
      "channel": 0,
      "note": 75,
      "start": 87.2701,
      "duration": 0.0932,
      "velocity": 98,
      "chip": "ym2612"
    },
    {
      "channel": 4,
      "note": 87,
      "start": 87.2739,
      "duration": 0.1397,
      "velocity": 104,
      "chip": "ym2612"
    },
    {
      "channel": 5,
      "note": 76,
      "start": 87.2774,
      "duration": 0.0694,
      "velocity": 104,
      "chip": "ym2612"
    },
    {
      "channel": 2,
      "note": 69,
      "start": 87.2809,
      "duration": 0.0661,
      "velocity": 104,
      "chip": "ym2612"
    },
    {
      "channel": 3,
      "note": 46,
      "start": 87.2843,
      "duration": 0.1291,
      "velocity": 106,
      "chip": "ym2612"
    },
    {
      "channel": 1,
      "note": 57,
      "start": 87.4169,
      "duration": 0.08,
      "velocity": 88,
      "chip": "ym2612"
    },
    {
      "channel": 0,
      "note": 72,
      "start": 87.42,
      "duration": 0.1103,
      "velocity": 98,
      "chip": "ym2612"
    },
    {
      "channel": 4,
      "note": 84,
      "start": 87.4233,
      "duration": 0.1574,
      "velocity": 104,
      "chip": "ym2612"
    },
    {
      "channel": 3,
      "note": 46,
      "start": 87.4263,
      "duration": 0.1542,
      "velocity": 106,
      "chip": "ym2612"
    },
    {
      "channel": 5,
      "note": 85,
      "start": 87.4299,
      "duration": 0.1187,
      "velocity": 127,
      "chip": "ym2612"
    },
    {
      "channel": 1,
      "note": 57,
      "start": 87.5839,
      "duration": 0.0798,
      "velocity": 88,
      "chip": "ym2612"
    },
    {
      "channel": 0,
      "note": 69,
      "start": 87.5869,
      "duration": 0.0945,
      "velocity": 98,
      "chip": "ym2612"
    },
    {
      "channel": 4,
      "note": 81,
      "start": 87.5902,
      "duration": 0.1572,
      "velocity": 104,
      "chip": "ym2612"
    },
    {
      "channel": 2,
      "note": 76,
      "start": 87.5937,
      "duration": 0.0703,
      "velocity": 104,
      "chip": "ym2612"
    },
    {
      "channel": 5,
      "note": 69,
      "start": 87.5973,
      "duration": 0.0666,
      "velocity": 104,
      "chip": "ym2612"
    },
    {
      "channel": 3,
      "note": 32,
      "start": 87.6003,
      "duration": 0.147,
      "velocity": 106,
      "chip": "ym2612"
    },
    {
      "channel": 1,
      "note": 57,
      "start": 87.7506,
      "duration": 0.0635,
      "velocity": 88,
      "chip": "ym2612"
    },
    {
      "channel": 0,
      "note": 66,
      "start": 87.7538,
      "duration": 0.0601,
      "velocity": 98,
      "chip": "ym2612"
    },
    {
      "channel": 4,
      "note": 78,
      "start": 87.7571,
      "duration": 0.1405,
      "velocity": 104,
      "chip": "ym2612"
    },
    {
      "channel": 3,
      "note": 46,
      "start": 87.7602,
      "duration": 0.1373,
      "velocity": 106,
      "chip": "ym2612"
    },
    {
      "channel": 5,
      "note": 85,
      "start": 87.7636,
      "duration": 0.1188,
      "velocity": 127,
      "chip": "ym2612"
    },
    {
      "channel": 1,
      "note": 52,
      "start": 87.9008,
      "duration": 0.08,
      "velocity": 88,
      "chip": "ym2612"
    },
    {
      "channel": 0,
      "note": 63,
      "start": 87.904,
      "duration": 0.1101,
      "velocity": 98,
      "chip": "ym2612"
    },
    {
      "channel": 4,
      "note": 75,
      "start": 87.9073,
      "duration": 0.1572,
      "velocity": 104,
      "chip": "ym2612"
    },
    {
      "channel": 3,
      "note": 32,
      "start": 87.9104,
      "duration": 0.154,
      "velocity": 106,
      "chip": "ym2612"
    },
    {
      "channel": 2,
      "note": 39,
      "start": 87.9135,
      "duration": 0.1176,
      "velocity": 116,
      "chip": "ym2612"
    },
    {
      "channel": 1,
      "note": 52,
      "start": 88.0678,
      "duration": 0.0967,
      "velocity": 88,
      "chip": "ym2612"
    },
    {
      "channel": 0,
      "note": 60,
      "start": 88.0709,
      "duration": 0.0935,
      "velocity": 98,
      "chip": "ym2612"
    },
    {
      "channel": 4,
      "note": 72,
      "start": 88.0742,
      "duration": 0.1419,
      "velocity": 104,
      "chip": "ym2612"
    },
    {
      "channel": 3,
      "note": 32,
      "start": 88.0773,
      "duration": 0.1388,
      "velocity": 106,
      "chip": "ym2612"
    },
    {
      "channel": 5,
      "note": 85,
      "start": 88.0806,
      "duration": 0.1173,
      "velocity": 127,
      "chip": "ym2612"
    },
    {
      "channel": 1,
      "note": 52,
      "start": 88.2193,
      "duration": 0.112,
      "velocity": 88,
      "chip": "ym2612"
    },
    {
      "channel": 0,
      "note": 57,
      "start": 88.2224,
      "duration": 0.1088,
      "velocity": 98,
      "chip": "ym2612"
    },
    {
      "channel": 4,
      "note": 69,
      "start": 88.2257,
      "duration": 0.1573,
      "velocity": 104,
      "chip": "ym2612"
    },
    {
      "channel": 3,
      "note": 46,
      "start": 88.2288,
      "duration": 0.1542,
      "velocity": 106,
      "chip": "ym2612"
    },
    {
      "channel": 2,
      "note": 39,
      "start": 88.2319,
      "duration": 0.1162,
      "velocity": 116,
      "chip": "ym2612"
    },
    {
      "channel": 1,
      "note": 52,
      "start": 88.3863,
      "duration": 0.0952,
      "velocity": 88,
      "chip": "ym2612"
    },
    {
      "channel": 0,
      "note": 54,
      "start": 88.3893,
      "duration": 0.092,
      "velocity": 98,
      "chip": "ym2612"
    },
    {
      "channel": 4,
      "note": 66,
      "start": 88.3927,
      "duration": 0.1573,
      "velocity": 104,
      "chip": "ym2612"
    },
    {
      "channel": 3,
      "note": 32,
      "start": 88.3957,
      "duration": 0.1541,
      "velocity": 106,
      "chip": "ym2612"
    },
    {
      "channel": 5,
      "note": 85,
      "start": 88.3995,
      "duration": 0.1155,
      "velocity": 127,
      "chip": "ym2612"
    },
    {
      "channel": 1,
      "note": 59,
      "start": 88.5531,
      "duration": 0.0954,
      "velocity": 88,
      "chip": "ym2612"
    },
    {
      "channel": 0,
      "note": 78,
      "start": 88.5562,
      "duration": 0.0922,
      "velocity": 98,
      "chip": "ym2612"
    },
    {
      "channel": 4,
      "note": 90,
      "start": 88.5595,
      "duration": 0.1391,
      "velocity": 104,
      "chip": "ym2612"
    },
    {
      "channel": 3,
      "note": 46,
      "start": 88.5625,
      "duration": 0.1359,
      "velocity": 106,
      "chip": "ym2612"
    },
    {
      "channel": 2,
      "note": 39,
      "start": 88.5658,
      "duration": 0.1161,
      "velocity": 116,
      "chip": "ym2612"
    },
    {
      "channel": 1,
      "note": 59,
      "start": 88.7023,
      "duration": 0.0795,
      "velocity": 88,
      "chip": "ym2612"
    },
    {
      "channel": 0,
      "note": 75,
      "start": 88.7054,
      "duration": 0.1099,
      "velocity": 98,
      "chip": "ym2612"
    },
    {
      "channel": 4,
      "note": 87,
      "start": 88.7087,
      "duration": 0.1567,
      "velocity": 104,
      "chip": "ym2612"
    },
    {
      "channel": 3,
      "note": 46,
      "start": 88.7117,
      "duration": 0.1536,
      "velocity": 106,
      "chip": "ym2612"
    },
    {
      "channel": 2,
      "note": 39,
      "start": 88.7169,
      "duration": 0.1152,
      "velocity": 116,
      "chip": "ym2612"
    },
    {
      "channel": 1,
      "note": 59,
      "start": 88.8686,
      "duration": 0.0802,
      "velocity": 88,
      "chip": "ym2612"
    },
    {
      "channel": 0,
      "note": 72,
      "start": 88.8721,
      "duration": 0.0948,
      "velocity": 98,
      "chip": "ym2612"
    },
    {
      "channel": 4,
      "note": 84,
      "start": 88.8754,
      "duration": 0.1402,
      "velocity": 104,
      "chip": "ym2612"
    },
    {
      "channel": 3,
      "note": 32,
      "start": 88.8784,
      "duration": 0.1371,
      "velocity": 106,
      "chip": "ym2612"
    },
    {
      "channel": 5,
      "note": 85,
      "start": 88.8834,
      "duration": 0.1156,
      "velocity": 127,
      "chip": "ym2612"
    },
    {
      "channel": 1,
      "note": 59,
      "start": 89.019,
      "duration": 0.1148,
      "velocity": 88,
      "chip": "ym2612"
    },
    {
      "channel": 0,
      "note": 69,
      "start": 89.0222,
      "duration": 0.0767,
      "velocity": 98,
      "chip": "ym2612"
    },
    {
      "channel": 4,
      "note": 81,
      "start": 89.0255,
      "duration": 0.157,
      "velocity": 104,
      "chip": "ym2612"
    },
    {
      "channel": 3,
      "note": 46,
      "start": 89.0289,
      "duration": 0.1535,
      "velocity": 106,
      "chip": "ym2612"
    },
    {
      "channel": 2,
      "note": 39,
      "start": 89.0321,
      "duration": 0.1171,
      "velocity": 116,
      "chip": "ym2612"
    },
    {
      "channel": 1,
      "note": 54,
      "start": 89.1857,
      "duration": 0.097,
      "velocity": 88,
      "chip": "ym2612"
    },
    {
      "channel": 0,
      "note": 66,
      "start": 89.1889,
      "duration": 0.0937,
      "velocity": 98,
      "chip": "ym2612"
    },
    {
      "channel": 4,
      "note": 78,
      "start": 89.1922,
      "duration": 0.1571,
      "velocity": 104,
      "chip": "ym2612"
    },
    {
      "channel": 3,
      "note": 32,
      "start": 89.1953,
      "duration": 0.154,
      "velocity": 106,
      "chip": "ym2612"
    },
    {
      "channel": 5,
      "note": 85,
      "start": 89.1986,
      "duration": 0.1174,
      "velocity": 127,
      "chip": "ym2612"
    },
    {
      "channel": 1,
      "note": 54,
      "start": 89.3527,
      "duration": 0.0633,
      "velocity": 88,
      "chip": "ym2612"
    },
    {
      "channel": 0,
      "note": 63,
      "start": 89.3558,
      "duration": 0.0936,
      "velocity": 98,
      "chip": "ym2612"
    },
    {
      "channel": 4,
      "note": 75,
      "start": 89.3595,
      "duration": 0.1401,
      "velocity": 104,
      "chip": "ym2612"
    },
    {
      "channel": 3,
      "note": 46,
      "start": 89.3628,
      "duration": 0.0533,
      "velocity": 106,
      "chip": "ym2612"
    },
    {
      "channel": 2,
      "note": 39,
      "start": 89.3659,
      "duration": 0.117,
      "velocity": 116,
      "chip": "ym2612"
    },
    {
      "channel": 3,
      "note": 46,
      "start": 89.42,
      "duration": 0.0795,
      "velocity": 106,
      "chip": "ym2612"
    },
    {
      "channel": 1,
      "note": 54,
      "start": 89.5028,
      "duration": 0.0801,
      "velocity": 88,
      "chip": "ym2612"
    },
    {
      "channel": 0,
      "note": 60,
      "start": 89.5059,
      "duration": 0.1103,
      "velocity": 98,
      "chip": "ym2612"
    },
    {
      "channel": 4,
      "note": 72,
      "start": 89.5092,
      "duration": 0.1573,
      "velocity": 104,
      "chip": "ym2612"
    },
    {
      "channel": 3,
      "note": 32,
      "start": 89.5125,
      "duration": 0.1538,
      "velocity": 106,
      "chip": "ym2612"
    },
    {
      "channel": 5,
      "note": 85,
      "start": 89.5161,
      "duration": 0.1185,
      "velocity": 127,
      "chip": "ym2612"
    },
    {
      "channel": 1,
      "note": 57,
      "start": 89.6697,
      "duration": 0.0801,
      "velocity": 88,
      "chip": "ym2612"
    },
    {
      "channel": 0,
      "note": 57,
      "start": 89.6727,
      "duration": 0.0936,
      "velocity": 98,
      "chip": "ym2612"
    },
    {
      "channel": 4,
      "note": 69,
      "start": 89.6761,
      "duration": 0.1406,
      "velocity": 104,
      "chip": "ym2612"
    },
    {
      "channel": 3,
      "note": 46,
      "start": 89.6791,
      "duration": 0.1374,
      "velocity": 106,
      "chip": "ym2612"
    },
    {
      "channel": 2,
      "note": 39,
      "start": 89.6823,
      "duration": 0.1192,
      "velocity": 116,
      "chip": "ym2612"
    },
    {
      "channel": 1,
      "note": 57,
      "start": 89.8198,
      "duration": 0.0801,
      "velocity": 88,
      "chip": "ym2612"
    },
    {
      "channel": 0,
      "note": 81,
      "start": 89.8229,
      "duration": 0.1104,
      "velocity": 98,
      "chip": "ym2612"
    },
    {
      "channel": 4,
      "note": 93,
      "start": 89.8262,
      "duration": 0.1573,
      "velocity": 104,
      "chip": "ym2612"
    },
    {
      "channel": 3,
      "note": 46,
      "start": 89.8293,
      "duration": 0.1542,
      "velocity": 106,
      "chip": "ym2612"
    },
    {
      "channel": 2,
      "note": 39,
      "start": 89.8325,
      "duration": 0.1178,
      "velocity": 116,
      "chip": "ym2612"
    },
    {
      "channel": 1,
      "note": 57,
      "start": 89.9869,
      "duration": 0.0968,
      "velocity": 88,
      "chip": "ym2612"
    },
    {
      "channel": 0,
      "note": 78,
      "start": 89.99,
      "duration": 0.0936,
      "velocity": 98,
      "chip": "ym2612"
    },
    {
      "channel": 4,
      "note": 90,
      "start": 89.9933,
      "duration": 0.1572,
      "velocity": 104,
      "chip": "ym2612"
    },
    {
      "channel": 3,
      "note": 46,
      "start": 89.9963,
      "duration": 0.1541,
      "velocity": 106,
      "chip": "ym2612"
    },
    {
      "channel": 5,
      "note": 55,
      "start": 89.9996,
      "duration": 0.1174,
      "velocity": 120,
      "chip": "ym2612"
    },
    {
      "channel": 1,
      "note": 57,
      "start": 90.1537,
      "duration": 0.0969,
      "velocity": 88,
      "chip": "ym2612"
    },
    {
      "channel": 0,
      "note": 75,
      "start": 90.1568,
      "duration": 0.0937,
      "velocity": 98,
      "chip": "ym2612"
    },
    {
      "channel": 4,
      "note": 87,
      "start": 90.1601,
      "duration": 0.1421,
      "velocity": 104,
      "chip": "ym2612"
    },
    {
      "channel": 3,
      "note": 32,
      "start": 90.1631,
      "duration": 0.139,
      "velocity": 106,
      "chip": "ym2612"
    },
    {
      "channel": 2,
      "note": 39,
      "start": 90.1662,
      "duration": 0.1178,
      "velocity": 116,
      "chip": "ym2612"
    },
    {
      "channel": 1,
      "note": 57,
      "start": 90.3056,
      "duration": 0.08,
      "velocity": 88,
      "chip": "ym2612"
    },
    {
      "channel": 0,
      "note": 72,
      "start": 90.3088,
      "duration": 0.0767,
      "velocity": 98,
      "chip": "ym2612"
    },
    {
      "channel": 4,
      "note": 84,
      "start": 90.3121,
      "duration": 0.157,
      "velocity": 104,
      "chip": "ym2612"
    },
    {
      "channel": 3,
      "note": 46,
      "start": 90.3151,
      "duration": 0.1538,
      "velocity": 106,
      "chip": "ym2612"
    },
    {
      "channel": 5,
      "note": 55,
      "start": 90.3182,
      "duration": 0.116,
      "velocity": 120,
      "chip": "ym2612"
    },
    {
      "channel": 1,
      "note": 59,
      "start": 90.4722,
      "duration": 0.0801,
      "velocity": 88,
      "chip": "ym2612"
    },
    {
      "channel": 0,
      "note": 69,
      "start": 90.4755,
      "duration": 0.0919,
      "velocity": 98,
      "chip": "ym2612"
    },
    {
      "channel": 4,
      "note": 81,
      "start": 90.4788,
      "duration": 0.1389,
      "velocity": 104,
      "chip": "ym2612"
    },
    {
      "channel": 3,
      "note": 32,
      "start": 90.4818,
      "duration": 0.1358,
      "velocity": 106,
      "chip": "ym2612"
    },
    {
      "channel": 2,
      "note": 39,
      "start": 90.4849,
      "duration": 0.1162,
      "velocity": 116,
      "chip": "ym2612"
    },
    {
      "channel": 1,
      "note": 59,
      "start": 90.6213,
      "duration": 0.0798,
      "velocity": 88,
      "chip": "ym2612"
    },
    {
      "channel": 0,
      "note": 66,
      "start": 90.6244,
      "duration": 0.11,
      "velocity": 98,
      "chip": "ym2612"
    },
    {
      "channel": 4,
      "note": 78,
      "start": 90.6277,
      "duration": 0.1569,
      "velocity": 104,
      "chip": "ym2612"
    },
    {
      "channel": 3,
      "note": 32,
      "start": 90.6307,
      "duration": 0.1538,
      "velocity": 106,
      "chip": "ym2612"
    },
    {
      "channel": 5,
      "note": 55,
      "start": 90.6353,
      "duration": 0.116,
      "velocity": 120,
      "chip": "ym2612"
    },
    {
      "channel": 1,
      "note": 59,
      "start": 90.7878,
      "duration": 0.0801,
      "velocity": 88,
      "chip": "ym2612"
    },
    {
      "channel": 0,
      "note": 63,
      "start": 90.7913,
      "duration": 0.0948,
      "velocity": 98,
      "chip": "ym2612"
    },
    {
      "channel": 4,
      "note": 75,
      "start": 90.7946,
      "duration": 0.1569,
      "velocity": 104,
      "chip": "ym2612"
    },
    {
      "channel": 3,
      "note": 46,
      "start": 90.798,
      "duration": 0.1533,
      "velocity": 106,
      "chip": "ym2612"
    },
    {
      "channel": 2,
      "note": 39,
      "start": 90.8026,
      "duration": 0.1155,
      "velocity": 116,
      "chip": "ym2612"
    },
    {
      "channel": 1,
      "note": 59,
      "start": 90.9548,
      "duration": 0.0983,
      "velocity": 88,
      "chip": "ym2612"
    },
    {
      "channel": 0,
      "note": 60,
      "start": 90.9579,
      "duration": 0.0951,
      "velocity": 98,
      "chip": "ym2612"
    },
    {
      "channel": 4,
      "note": 72,
      "start": 90.9612,
      "duration": 0.1405,
      "velocity": 104,
      "chip": "ym2612"
    },
    {
      "channel": 3,
      "note": 32,
      "start": 90.9642,
      "duration": 0.1373,
      "velocity": 106,
      "chip": "ym2612"
    },
    {
      "channel": 5,
      "note": 55,
      "start": 90.9689,
      "duration": 0.1161,
      "velocity": 120,
      "chip": "ym2612"
    },
    {
      "channel": 1,
      "note": 47,
      "start": 91.1049,
      "duration": 0.115,
      "velocity": 88,
      "chip": "ym2612"
    },
    {
      "channel": 0,
      "note": 84,
      "start": 91.1079,
      "duration": 0.1118,
      "velocity": 98,
      "chip": "ym2612"
    },
    {
      "channel": 4,
      "note": 96,
      "start": 91.1112,
      "duration": 0.1573,
      "velocity": 104,
      "chip": "ym2612"
    },
    {
      "channel": 3,
      "note": 46,
      "start": 91.1143,
      "duration": 0.1542,
      "velocity": 106,
      "chip": "ym2612"
    },
    {
      "channel": 2,
      "note": 39,
      "start": 91.1176,
      "duration": 0.1177,
      "velocity": 116,
      "chip": "ym2612"
    },
    {
      "channel": 1,
      "note": 47,
      "start": 91.2718,
      "duration": 0.0968,
      "velocity": 88,
      "chip": "ym2612"
    },
    {
      "channel": 0,
      "note": 81,
      "start": 91.2749,
      "duration": 0.0937,
      "velocity": 98,
      "chip": "ym2612"
    },
    {
      "channel": 4,
      "note": 93,
      "start": 91.2782,
      "duration": 0.1405,
      "velocity": 104,
      "chip": "ym2612"
    },
    {
      "channel": 3,
      "note": 46,
      "start": 91.2815,
      "duration": 0.0704,
      "velocity": 106,
      "chip": "ym2612"
    },
    {
      "channel": 2,
      "note": 39,
      "start": 91.2848,
      "duration": 0.1173,
      "velocity": 116,
      "chip": "ym2612"
    },
    {
      "channel": 3,
      "note": 46,
      "start": 91.3557,
      "duration": 0.0629,
      "velocity": 106,
      "chip": "ym2612"
    },
    {
      "channel": 1,
      "note": 50,
      "start": 91.4219,
      "duration": 0.1136,
      "velocity": 88,
      "chip": "ym2612"
    },
    {
      "channel": 0,
      "note": 78,
      "start": 91.4249,
      "duration": 0.1104,
      "velocity": 98,
      "chip": "ym2612"
    },
    {
      "channel": 4,
      "note": 90,
      "start": 91.4283,
      "duration": 0.1574,
      "velocity": 104,
      "chip": "ym2612"
    },
    {
      "channel": 3,
      "note": 32,
      "start": 91.4316,
      "duration": 0.154,
      "velocity": 106,
      "chip": "ym2612"
    },
    {
      "channel": 5,
      "note": 55,
      "start": 91.4349,
      "duration": 0.1189,
      "velocity": 120,
      "chip": "ym2612"
    },
    {
      "channel": 1,
      "note": 52,
      "start": 91.5889,
      "duration": 0.0967,
      "velocity": 88,
      "chip": "ym2612"
    },
    {
      "channel": 0,
      "note": 75,
      "start": 91.5921,
      "duration": 0.0767,
      "velocity": 98,
      "chip": "ym2612"
    },
    {
      "channel": 4,
      "note": 87,
      "start": 91.5954,
      "duration": 0.1571,
      "velocity": 104,
      "chip": "ym2612"
    },
    {
      "channel": 3,
      "note": 46,
      "start": 91.5985,
      "duration": 0.1539,
      "velocity": 106,
      "chip": "ym2612"
    },
    {
      "channel": 2,
      "note": 39,
      "start": 91.6016,
      "duration": 0.1191,
      "velocity": 116,
      "chip": "ym2612"
    },
    {
      "channel": 1,
      "note": 52,
      "start": 91.7557,
      "duration": 0.0969,
      "velocity": 88,
      "chip": "ym2612"
    },
    {
      "channel": 0,
      "note": 72,
      "start": 91.7589,
      "duration": 0.0936,
      "velocity": 98,
      "chip": "ym2612"
    },
    {
      "channel": 4,
      "note": 84,
      "start": 91.7622,
      "duration": 0.1405,
      "velocity": 104,
      "chip": "ym2612"
    },
    {
      "channel": 3,
      "note": 32,
      "start": 91.7652,
      "duration": 0.1373,
      "velocity": 106,
      "chip": "ym2612"
    },
    {
      "channel": 5,
      "note": 55,
      "start": 91.7687,
      "duration": 0.1188,
      "velocity": 120,
      "chip": "ym2612"
    },
    {
      "channel": 1,
      "note": 54,
      "start": 91.906,
      "duration": 0.1301,
      "velocity": 88,
      "chip": "ym2612"
    },
    {
      "channel": 0,
      "note": 69,
      "start": 91.909,
      "duration": 0.1102,
      "velocity": 98,
      "chip": "ym2612"
    },
    {
      "channel": 4,
      "note": 81,
      "start": 91.9128,
      "duration": 0.1569,
      "velocity": 104,
      "chip": "ym2612"
    },
    {
      "channel": 3,
      "note": 32,
      "start": 91.9158,
      "duration": 0.1537,
      "velocity": 106,
      "chip": "ym2612"
    },
    {
      "channel": 2,
      "note": 39,
      "start": 91.9193,
      "duration": 0.1171,
      "velocity": 116,
      "chip": "ym2612"
    },
    {
      "channel": 1,
      "note": 57,
      "start": 92.073,
      "duration": 0.0967,
      "velocity": 88,
      "chip": "ym2612"
    },
    {
      "channel": 0,
      "note": 66,
      "start": 92.076,
      "duration": 0.0935,
      "velocity": 98,
      "chip": "ym2612"
    },
    {
      "channel": 4,
      "note": 78,
      "start": 92.0794,
      "duration": 0.1419,
      "velocity": 104,
      "chip": "ym2612"
    },
    {
      "channel": 3,
      "note": 46,
      "start": 92.0824,
      "duration": 0.1388,
      "velocity": 106,
      "chip": "ym2612"
    },
    {
      "channel": 5,
      "note": 55,
      "start": 92.0854,
      "duration": 0.1176,
      "velocity": 120,
      "chip": "ym2612"
    },
    {
      "channel": 1,
      "note": 59,
      "start": 92.2246,
      "duration": 0.08,
      "velocity": 88,
      "chip": "ym2612"
    },
    {
      "channel": 0,
      "note": 63,
      "start": 92.2277,
      "duration": 0.1086,
      "velocity": 98,
      "chip": "ym2612"
    },
    {
      "channel": 4,
      "note": 75,
      "start": 92.231,
      "duration": 0.1571,
      "velocity": 104,
      "chip": "ym2612"
    },
    {
      "channel": 3,
      "note": 40,
      "start": 92.2347,
      "duration": 0.07,
      "velocity": 106,
      "chip": "ym2612"
    },
    {
      "channel": 2,
      "note": 39,
      "start": 92.238,
      "duration": 0.1154,
      "velocity": 116,
      "chip": "ym2612"
    },
    {
      "channel": 3,
      "note": 40,
      "start": 92.3086,
      "duration": 0.0794,
      "velocity": 106,
      "chip": "ym2612"
    },
    {
      "channel": 0,
      "note": 59,
      "start": 92.3946,
      "duration": 0.1253,
      "velocity": 98,
      "chip": "ym2612"
    },
    {
      "channel": 3,
      "note": 43,
      "start": 92.4018,
      "duration": 0.1531,
      "velocity": 106,
      "chip": "ym2612"
    },
    {
      "channel": 0,
      "note": 71,
      "start": 92.5585,
      "duration": 0.0949,
      "velocity": 98,
      "chip": "ym2612"
    },
    {
      "channel": 3,
      "note": 43,
      "start": 92.5621,
      "duration": 0.0581,
      "velocity": 106,
      "chip": "ym2612"
    },
    {
      "channel": 3,
      "note": 43,
      "start": 92.6243,
      "duration": 0.0626,
      "velocity": 106,
      "chip": "ym2612"
    },
    {
      "channel": 0,
      "note": 61,
      "start": 92.7072,
      "duration": 0.1299,
      "velocity": 98,
      "chip": "ym2612"
    },
    {
      "channel": 3,
      "note": 36,
      "start": 92.7108,
      "duration": 0.1598,
      "velocity": 106,
      "chip": "ym2612"
    },
    {
      "channel": 0,
      "note": 73,
      "start": 92.874,
      "duration": 0.1299,
      "velocity": 98,
      "chip": "ym2612"
    },
    {
      "channel": 3,
      "note": 36,
      "start": 92.8776,
      "duration": 0.043,
      "velocity": 106,
      "chip": "ym2612"
    },
    {
      "channel": 3,
      "note": 36,
      "start": 92.9582,
      "duration": 0.0624,
      "velocity": 106,
      "chip": "ym2612"
    },
    {
      "channel": 0,
      "note": 62,
      "start": 93.0241,
      "duration": 0.13,
      "velocity": 98,
      "chip": "ym2612"
    },
    {
      "channel": 3,
      "note": 43,
      "start": 93.0277,
      "duration": 0.1599,
      "velocity": 106,
      "chip": "ym2612"
    },
    {
      "channel": 0,
      "note": 74,
      "start": 93.1913,
      "duration": 0.0964,
      "velocity": 98,
      "chip": "ym2612"
    },
    {
      "channel": 3,
      "note": 43,
      "start": 93.1945,
      "duration": 0.1599,
      "velocity": 106,
      "chip": "ym2612"
    },
    {
      "channel": 0,
      "note": 61,
      "start": 93.3581,
      "duration": 0.1299,
      "velocity": 98,
      "chip": "ym2612"
    },
    {
      "channel": 3,
      "note": 36,
      "start": 93.3614,
      "duration": 0.1433,
      "velocity": 106,
      "chip": "ym2612"
    },
    {
      "channel": 0,
      "note": 73,
      "start": 93.5087,
      "duration": 0.1127,
      "velocity": 98,
      "chip": "ym2612"
    },
    {
      "channel": 3,
      "note": 36,
      "start": 93.5119,
      "duration": 0.1606,
      "velocity": 106,
      "chip": "ym2612"
    },
    {
      "channel": 0,
      "note": 59,
      "start": 93.6763,
      "duration": 0.1302,
      "velocity": 98,
      "chip": "ym2612"
    },
    {
      "channel": 3,
      "note": 43,
      "start": 93.6795,
      "duration": 0.1423,
      "velocity": 106,
      "chip": "ym2612"
    },
    {
      "channel": 0,
      "note": 71,
      "start": 93.8255,
      "duration": 0.113,
      "velocity": 98,
      "chip": "ym2612"
    },
    {
      "channel": 3,
      "note": 43,
      "start": 93.8291,
      "duration": 0.0761,
      "velocity": 106,
      "chip": "ym2612"
    },
    {
      "channel": 3,
      "note": 43,
      "start": 93.9091,
      "duration": 0.0461,
      "velocity": 106,
      "chip": "ym2612"
    },
    {
      "channel": 0,
      "note": 57,
      "start": 93.992,
      "duration": 0.0966,
      "velocity": 98,
      "chip": "ym2612"
    },
    {
      "channel": 3,
      "note": 36,
      "start": 93.996,
      "duration": 0.1595,
      "velocity": 106,
      "chip": "ym2612"
    },
    {
      "channel": 0,
      "note": 69,
      "start": 94.159,
      "duration": 0.0966,
      "velocity": 98,
      "chip": "ym2612"
    },
    {
      "channel": 3,
      "note": 36,
      "start": 94.1625,
      "duration": 0.0431,
      "velocity": 106,
      "chip": "ym2612"
    },
    {
      "channel": 3,
      "note": 36,
      "start": 94.2276,
      "duration": 0.0615,
      "velocity": 106,
      "chip": "ym2612"
    },
    {
      "channel": 0,
      "note": 55,
      "start": 94.3107,
      "duration": 0.1118,
      "velocity": 98,
      "chip": "ym2612"
    },
    {
      "channel": 3,
      "note": 43,
      "start": 94.3142,
      "duration": 0.0764,
      "velocity": 106,
      "chip": "ym2612"
    },
    {
      "channel": 0,
      "note": 67,
      "start": 94.4776,
      "duration": 0.1283,
      "velocity": 98,
      "chip": "ym2612"
    },
    {
      "channel": 3,
      "note": 43,
      "start": 94.481,
      "duration": 0.0765,
      "velocity": 106,
      "chip": "ym2612"
    },
    {
      "channel": 3,
      "note": 43,
      "start": 94.5616,
      "duration": 0.0445,
      "velocity": 106,
      "chip": "ym2612"
    },
    {
      "channel": 0,
      "note": 54,
      "start": 94.6264,
      "duration": 0.1132,
      "velocity": 98,
      "chip": "ym2612"
    },
    {
      "channel": 3,
      "note": 36,
      "start": 94.6298,
      "duration": 0.0598,
      "velocity": 106,
      "chip": "ym2612"
    },
    {
      "channel": 0,
      "note": 66,
      "start": 94.7932,
      "duration": 0.1299,
      "velocity": 98,
      "chip": "ym2612"
    },
    {
      "channel": 3,
      "note": 36,
      "start": 94.7965,
      "duration": 0.0433,
      "velocity": 106,
      "chip": "ym2612"
    },
    {
      "channel": 0,
      "note": 59,
      "start": 94.96,
      "duration": 0.1301,
      "velocity": 98,
      "chip": "ym2612"
    },
    {
      "channel": 3,
      "note": 36,
      "start": 94.9641,
      "duration": 0.0593,
      "velocity": 106,
      "chip": "ym2612"
    },
    {
      "channel": 5,
      "note": 37,
      "start": 94.969,
      "duration": 0.2213,
      "velocity": 124,
      "chip": "ym2612"
    },
    {
      "channel": 0,
      "note": 71,
      "start": 95.1108,
      "duration": 0.1142,
      "velocity": 98,
      "chip": "ym2612"
    },
    {
      "channel": 0,
      "note": 61,
      "start": 95.2771,
      "duration": 0.1301,
      "velocity": 98,
      "chip": "ym2612"
    },
    {
      "channel": 5,
      "note": 37,
      "start": 95.281,
      "duration": 0.2263,
      "velocity": 124,
      "chip": "ym2612"
    },
    {
      "channel": 0,
      "note": 73,
      "start": 95.4273,
      "duration": 0.1132,
      "velocity": 98,
      "chip": "ym2612"
    },
    {
      "channel": 0,
      "note": 62,
      "start": 95.5954,
      "duration": 0.1303,
      "velocity": 98,
      "chip": "ym2612"
    },
    {
      "channel": 5,
      "note": 37,
      "start": 95.5993,
      "duration": 0.2251,
      "velocity": 124,
      "chip": "ym2612"
    },
    {
      "channel": 0,
      "note": 74,
      "start": 95.7611,
      "duration": 0.0965,
      "velocity": 98,
      "chip": "ym2612"
    },
    {
      "channel": 0,
      "note": 64,
      "start": 95.9113,
      "duration": 0.1299,
      "velocity": 98,
      "chip": "ym2612"
    },
    {
      "channel": 5,
      "note": 37,
      "start": 95.9152,
      "duration": 0.243,
      "velocity": 124,
      "chip": "ym2612"
    },
    {
      "channel": 0,
      "note": 76,
      "start": 96.0782,
      "duration": 0.0964,
      "velocity": 98,
      "chip": "ym2612"
    },
    {
      "channel": 0,
      "note": 77,
      "start": 96.2298,
      "duration": 0.1119,
      "velocity": 98,
      "chip": "ym2612"
    },
    {
      "channel": 5,
      "note": 37,
      "start": 96.2345,
      "duration": 0.2424,
      "velocity": 124,
      "chip": "ym2612"
    },
    {
      "channel": 0,
      "note": 65,
      "start": 96.3969,
      "duration": 0.0798,
      "velocity": 98,
      "chip": "ym2612"
    },
    {
      "channel": 0,
      "note": 53,
      "start": 96.5641,
      "duration": 0.0946,
      "velocity": 98,
      "chip": "ym2612"
    },
    {
      "channel": 5,
      "note": 37,
      "start": 96.568,
      "duration": 0.2243,
      "velocity": 124,
      "chip": "ym2612"
    },
    {
      "channel": 0,
      "note": 65,
      "start": 96.7122,
      "duration": 0.1133,
      "velocity": 98,
      "chip": "ym2612"
    },
    {
      "channel": 0,
      "note": 77,
      "start": 96.8792,
      "duration": 0.098,
      "velocity": 98,
      "chip": "ym2612"
    },
    {
      "channel": 5,
      "note": 37,
      "start": 96.8831,
      "duration": 0.2263,
      "velocity": 124,
      "chip": "ym2612"
    },
    {
      "channel": 0,
      "note": 65,
      "start": 97.0292,
      "duration": 0.1149,
      "velocity": 98,
      "chip": "ym2612"
    },
    {
      "channel": 0,
      "note": 53,
      "start": 97.1962,
      "duration": 0.0966,
      "velocity": 98,
      "chip": "ym2612"
    },
    {
      "channel": 5,
      "note": 37,
      "start": 97.2005,
      "duration": 0.2259,
      "velocity": 124,
      "chip": "ym2612"
    },
    {
      "channel": 0,
      "note": 65,
      "start": 97.3631,
      "duration": 0.0966,
      "velocity": 98,
      "chip": "ym2612"
    },
    {
      "channel": 0,
      "note": 59,
      "start": 97.5134,
      "duration": 0.1314,
      "velocity": 98,
      "chip": "ym2612"
    },
    {
      "channel": 5,
      "note": 37,
      "start": 97.5185,
      "duration": 0.2418,
      "velocity": 124,
      "chip": "ym2612"
    },
    {
      "channel": 0,
      "note": 71,
      "start": 97.6803,
      "duration": 0.0964,
      "velocity": 98,
      "chip": "ym2612"
    },
    {
      "channel": 0,
      "note": 61,
      "start": 97.8305,
      "duration": 0.1299,
      "velocity": 98,
      "chip": "ym2612"
    },
    {
      "channel": 5,
      "note": 37,
      "start": 97.8344,
      "duration": 0.243,
      "velocity": 124,
      "chip": "ym2612"
    },
    {
      "channel": 0,
      "note": 73,
      "start": 97.9972,
      "duration": 0.13,
      "velocity": 98,
      "chip": "ym2612"
    },
    {
      "channel": 0,
      "note": 62,
      "start": 98.1641,
      "duration": 0.1299,
      "velocity": 98,
      "chip": "ym2612"
    },
    {
      "channel": 5,
      "note": 37,
      "start": 98.168,
      "duration": 0.2279,
      "velocity": 124,
      "chip": "ym2612"
    },
    {
      "channel": 0,
      "note": 74,
      "start": 98.3163,
      "duration": 0.1113,
      "velocity": 98,
      "chip": "ym2612"
    },
    {
      "channel": 0,
      "note": 61,
      "start": 98.4829,
      "duration": 0.1282,
      "velocity": 98,
      "chip": "ym2612"
    },
    {
      "channel": 5,
      "note": 37,
      "start": 98.4868,
      "duration": 0.2247,
      "velocity": 124,
      "chip": "ym2612"
    },
    {
      "channel": 0,
      "note": 73,
      "start": 98.6315,
      "duration": 0.1132,
      "velocity": 98,
      "chip": "ym2612"
    },
    {
      "channel": 0,
      "note": 59,
      "start": 98.7984,
      "duration": 0.1298,
      "velocity": 98,
      "chip": "ym2612"
    },
    {
      "channel": 5,
      "note": 37,
      "start": 98.8024,
      "duration": 0.2262,
      "velocity": 124,
      "chip": "ym2612"
    },
    {
      "channel": 0,
      "note": 71,
      "start": 98.9653,
      "duration": 0.098,
      "velocity": 98,
      "chip": "ym2612"
    },
    {
      "channel": 0,
      "note": 57,
      "start": 99.1153,
      "duration": 0.1147,
      "velocity": 98,
      "chip": "ym2612"
    },
    {
      "channel": 5,
      "note": 37,
      "start": 99.1193,
      "duration": 0.2431,
      "velocity": 124,
      "chip": "ym2612"
    },
    {
      "channel": 0,
      "note": 69,
      "start": 99.2822,
      "duration": 0.0967,
      "velocity": 98,
      "chip": "ym2612"
    },
    {
      "channel": 0,
      "note": 55,
      "start": 99.4324,
      "duration": 0.1134,
      "velocity": 98,
      "chip": "ym2612"
    },
    {
      "channel": 5,
      "note": 37,
      "start": 99.4363,
      "duration": 0.2429,
      "velocity": 124,
      "chip": "ym2612"
    },
    {
      "channel": 0,
      "note": 67,
      "start": 99.5994,
      "duration": 0.1313,
      "velocity": 98,
      "chip": "ym2612"
    },
    {
      "channel": 0,
      "note": 54,
      "start": 99.7663,
      "duration": 0.0965,
      "velocity": 98,
      "chip": "ym2612"
    },
    {
      "channel": 5,
      "note": 37,
      "start": 99.7702,
      "duration": 0.2263,
      "velocity": 124,
      "chip": "ym2612"
    },
    {
      "channel": 0,
      "note": 66,
      "start": 99.9169,
      "duration": 0.1294,
      "velocity": 98,
      "chip": "ym2612"
    },
    {
      "channel": 0,
      "note": 59,
      "start": 100.0832,
      "duration": 0.1302,
      "velocity": 98,
      "chip": "ym2612"
    },
    {
      "channel": 5,
      "note": 37,
      "start": 100.0871,
      "duration": 0.228,
      "velocity": 124,
      "chip": "ym2612"
    },
    {
      "channel": 0,
      "note": 71,
      "start": 100.2351,
      "duration": 0.1116,
      "velocity": 98,
      "chip": "ym2612"
    },
    {
      "channel": 0,
      "note": 61,
      "start": 100.402,
      "duration": 0.1283,
      "velocity": 98,
      "chip": "ym2612"
    },
    {
      "channel": 5,
      "note": 37,
      "start": 100.4059,
      "duration": 0.2246,
      "velocity": 124,
      "chip": "ym2612"
    },
    {
      "channel": 0,
      "note": 73,
      "start": 100.5688,
      "duration": 0.095,
      "velocity": 98,
      "chip": "ym2612"
    },
    {
      "channel": 0,
      "note": 62,
      "start": 100.7175,
      "duration": 0.1298,
      "velocity": 98,
      "chip": "ym2612"
    },
    {
      "channel": 5,
      "note": 37,
      "start": 100.7215,
      "duration": 0.2429,
      "velocity": 124,
      "chip": "ym2612"
    },
    {
      "channel": 0,
      "note": 74,
      "start": 100.8843,
      "duration": 0.0981,
      "velocity": 98,
      "chip": "ym2612"
    },
    {
      "channel": 0,
      "note": 64,
      "start": 101.0346,
      "duration": 0.1298,
      "velocity": 98,
      "chip": "ym2612"
    },
    {
      "channel": 5,
      "note": 37,
      "start": 101.0385,
      "duration": 0.2429,
      "velocity": 124,
      "chip": "ym2612"
    },
    {
      "channel": 0,
      "note": 76,
      "start": 101.2018,
      "duration": 0.0962,
      "velocity": 98,
      "chip": "ym2612"
    },
    {
      "channel": 0,
      "note": 77,
      "start": 101.3681,
      "duration": 0.0967,
      "velocity": 98,
      "chip": "ym2612"
    },
    {
      "channel": 5,
      "note": 37,
      "start": 101.3721,
      "duration": 0.2265,
      "velocity": 124,
      "chip": "ym2612"
    },
    {
      "channel": 0,
      "note": 65,
      "start": 101.5186,
      "duration": 0.0797,
      "velocity": 98,
      "chip": "ym2612"
    },
    {
      "channel": 0,
      "note": 53,
      "start": 101.6854,
      "duration": 0.0966,
      "velocity": 98,
      "chip": "ym2612"
    },
    {
      "channel": 5,
      "note": 37,
      "start": 101.6893,
      "duration": 0.2263,
      "velocity": 124,
      "chip": "ym2612"
    },
    {
      "channel": 0,
      "note": 65,
      "start": 101.8366,
      "duration": 0.1121,
      "velocity": 98,
      "chip": "ym2612"
    },
    {
      "channel": 0,
      "note": 78,
      "start": 102.0023,
      "duration": 0.0967,
      "velocity": 98,
      "chip": "ym2612"
    },
    {
      "channel": 5,
      "note": 37,
      "start": 102.0063,
      "duration": 0.2279,
      "velocity": 124,
      "chip": "ym2612"
    },
    {
      "channel": 0,
      "note": 66,
      "start": 102.1692,
      "duration": 0.0967,
      "velocity": 98,
      "chip": "ym2612"
    },
    {
      "channel": 0,
      "note": 54,
      "start": 102.3208,
      "duration": 0.1119,
      "velocity": 98,
      "chip": "ym2612"
    },
    {
      "channel": 5,
      "note": 37,
      "start": 102.3252,
      "duration": 0.2428,
      "velocity": 124,
      "chip": "ym2612"
    },
    {
      "channel": 0,
      "note": 66,
      "start": 102.4879,
      "duration": 0.0951,
      "velocity": 98,
      "chip": "ym2612"
    },
    {
      "channel": 0,
      "note": 64,
      "start": 102.6366,
      "duration": 0.1132,
      "velocity": 98,
      "chip": "ym2612"
    },
    {
      "channel": 2,
      "note": 39,
      "start": 102.6404,
      "duration": 0.1265,
      "velocity": 116,
      "chip": "ym2612"
    },
    {
      "channel": 5,
      "note": 37,
      "start": 102.6437,
      "duration": 0.24,
      "velocity": 124,
      "chip": "ym2612"
    },
    {
      "channel": 0,
      "note": 64,
      "start": 102.8035,
      "duration": 0.098,
      "velocity": 98,
      "chip": "ym2612"
    },
    {
      "channel": 4,
      "note": 64,
      "start": 102.8071,
      "duration": 0.0946,
      "velocity": 104,
      "chip": "ym2612"
    },
    {
      "channel": 1,
      "note": 55,
      "start": 102.8108,
      "duration": 0.1226,
      "velocity": 120,
      "chip": "ym2612"
    },
    {
      "channel": 3,
      "note": 52,
      "start": 102.8372,
      "duration": 0.0963,
      "velocity": 127,
      "chip": "ym2612"
    },
    {
      "channel": 4,
      "note": 62,
      "start": 102.9707,
      "duration": 0.098,
      "velocity": 104,
      "chip": "ym2612"
    },
    {
      "channel": 2,
      "note": 39,
      "start": 102.974,
      "duration": 0.1267,
      "velocity": 116,
      "chip": "ym2612"
    },
    {
      "channel": 5,
      "note": 37,
      "start": 102.9783,
      "duration": 0.2224,
      "velocity": 124,
      "chip": "ym2612"
    },
    {
      "channel": 3,
      "note": 50,
      "start": 102.9886,
      "duration": 0.1118,
      "velocity": 127,
      "chip": "ym2612"
    },
    {
      "channel": 0,
      "note": 64,
      "start": 103.1208,
      "duration": 0.1146,
      "velocity": 98,
      "chip": "ym2612"
    },
    {
      "channel": 4,
      "note": 64,
      "start": 103.1241,
      "duration": 0.1115,
      "velocity": 104,
      "chip": "ym2612"
    },
    {
      "channel": 1,
      "note": 55,
      "start": 103.1272,
      "duration": 0.1234,
      "velocity": 120,
      "chip": "ym2612"
    },
    {
      "channel": 3,
      "note": 52,
      "start": 103.1555,
      "duration": 0.0953,
      "velocity": 127,
      "chip": "ym2612"
    },
    {
      "channel": 0,
      "note": 62,
      "start": 103.2879,
      "duration": 0.0793,
      "velocity": 98,
      "chip": "ym2612"
    },
    {
      "channel": 4,
      "note": 62,
      "start": 103.2914,
      "duration": 0.0761,
      "velocity": 104,
      "chip": "ym2612"
    },
    {
      "channel": 2,
      "note": 39,
      "start": 103.2947,
      "duration": 0.1229,
      "velocity": 116,
      "chip": "ym2612"
    },
    {
      "channel": 5,
      "note": 37,
      "start": 103.2979,
      "duration": 0.2197,
      "velocity": 124,
      "chip": "ym2612"
    },
    {
      "channel": 3,
      "note": 50,
      "start": 103.3042,
      "duration": 0.0798,
      "velocity": 127,
      "chip": "ym2612"
    },
    {
      "channel": 0,
      "note": 62,
      "start": 103.4379,
      "duration": 0.1129,
      "velocity": 98,
      "chip": "ym2612"
    },
    {
      "channel": 4,
      "note": 62,
      "start": 103.4414,
      "duration": 0.1096,
      "velocity": 104,
      "chip": "ym2612"
    },
    {
      "channel": 1,
      "note": 55,
      "start": 103.4445,
      "duration": 0.1245,
      "velocity": 120,
      "chip": "ym2612"
    },
    {
      "channel": 3,
      "note": 50,
      "start": 103.4715,
      "duration": 0.0977,
      "velocity": 127,
      "chip": "ym2612"
    },
    {
      "channel": 4,
      "note": 64,
      "start": 103.6051,
      "duration": 0.2296,
      "velocity": 104,
      "chip": "ym2612"
    },
    {
      "channel": 2,
      "note": 39,
      "start": 103.6083,
      "duration": 0.1278,
      "velocity": 116,
      "chip": "ym2612"
    },
    {
      "channel": 5,
      "note": 37,
      "start": 103.6116,
      "duration": 0.2232,
      "velocity": 124,
      "chip": "ym2612"
    },
    {
      "channel": 3,
      "note": 52,
      "start": 103.6382,
      "duration": 0.2298,
      "velocity": 127,
      "chip": "ym2612"
    },
    {
      "channel": 1,
      "note": 55,
      "start": 103.7719,
      "duration": 0.1309,
      "velocity": 120,
      "chip": "ym2612"
    },
    {
      "channel": 0,
      "note": 64,
      "start": 103.9216,
      "duration": 0.1132,
      "velocity": 98,
      "chip": "ym2612"
    },
    {
      "channel": 4,
      "note": 64,
      "start": 103.9256,
      "duration": 0.1094,
      "velocity": 104,
      "chip": "ym2612"
    },
    {
      "channel": 2,
      "note": 39,
      "start": 103.929,
      "duration": 0.1227,
      "velocity": 116,
      "chip": "ym2612"
    },
    {
      "channel": 5,
      "note": 37,
      "start": 103.9323,
      "duration": 0.2362,
      "velocity": 124,
      "chip": "ym2612"
    },
    {
      "channel": 3,
      "note": 52,
      "start": 103.9553,
      "duration": 0.0963,
      "velocity": 127,
      "chip": "ym2612"
    },
    {
      "channel": 0,
      "note": 64,
      "start": 104.0887,
      "duration": 0.1297,
      "velocity": 98,
      "chip": "ym2612"
    },
    {
      "channel": 4,
      "note": 64,
      "start": 104.0922,
      "duration": 0.1264,
      "velocity": 104,
      "chip": "ym2612"
    },
    {
      "channel": 2,
      "note": 39,
      "start": 104.0956,
      "duration": 0.1232,
      "velocity": 116,
      "chip": "ym2612"
    },
    {
      "channel": 3,
      "note": 52,
      "start": 104.1052,
      "duration": 0.1315,
      "velocity": 127,
      "chip": "ym2612"
    },
    {
      "channel": 4,
      "note": 62,
      "start": 104.2408,
      "duration": 0.1113,
      "velocity": 104,
      "chip": "ym2612"
    },
    {
      "channel": 1,
      "note": 85,
      "start": 104.2446,
      "duration": 0.1239,
      "velocity": 127,
      "chip": "ym2612"
    },
    {
      "channel": 5,
      "note": 37,
      "start": 104.2478,
      "duration": 0.2393,
      "velocity": 124,
      "chip": "ym2612"
    },
    {
      "channel": 3,
      "note": 50,
      "start": 104.2721,
      "duration": 0.0966,
      "velocity": 127,
      "chip": "ym2612"
    },
    {
      "channel": 0,
      "note": 64,
      "start": 104.4073,
      "duration": 0.0948,
      "velocity": 98,
      "chip": "ym2612"
    },
    {
      "channel": 4,
      "note": 64,
      "start": 104.4106,
      "duration": 0.0917,
      "velocity": 104,
      "chip": "ym2612"
    },
    {
      "channel": 2,
      "note": 39,
      "start": 104.4139,
      "duration": 0.1218,
      "velocity": 116,
      "chip": "ym2612"
    },
    {
      "channel": 3,
      "note": 52,
      "start": 104.4388,
      "duration": 0.0967,
      "velocity": 127,
      "chip": "ym2612"
    },
    {
      "channel": 0,
      "note": 62,
      "start": 104.5739,
      "duration": 0.095,
      "velocity": 98,
      "chip": "ym2612"
    },
    {
      "channel": 4,
      "note": 62,
      "start": 104.5772,
      "duration": 0.092,
      "velocity": 104,
      "chip": "ym2612"
    },
    {
      "channel": 1,
      "note": 85,
      "start": 104.5805,
      "duration": 0.1219,
      "velocity": 127,
      "chip": "ym2612"
    },
    {
      "channel": 5,
      "note": 37,
      "start": 104.5837,
      "duration": 0.2191,
      "velocity": 124,
      "chip": "ym2612"
    },
    {
      "channel": 3,
      "note": 50,
      "start": 104.5891,
      "duration": 0.1134,
      "velocity": 127,
      "chip": "ym2612"
    },
    {
      "channel": 0,
      "note": 59,
      "start": 104.7232,
      "duration": 0.0792,
      "velocity": 98,
      "chip": "ym2612"
    },
    {
      "channel": 4,
      "note": 59,
      "start": 104.7267,
      "duration": 0.0759,
      "velocity": 104,
      "chip": "ym2612"
    },
    {
      "channel": 2,
      "note": 39,
      "start": 104.73,
      "duration": 0.1227,
      "velocity": 116,
      "chip": "ym2612"
    },
    {
      "channel": 3,
      "note": 47,
      "start": 104.756,
      "duration": 0.0798,
      "velocity": 127,
      "chip": "ym2612"
    },
    {
      "channel": 4,
      "note": 59,
      "start": 104.8901,
      "duration": 0.2645,
      "velocity": 104,
      "chip": "ym2612"
    },
    {
      "channel": 1,
      "note": 85,
      "start": 104.8937,
      "duration": 0.1258,
      "velocity": 127,
      "chip": "ym2612"
    },
    {
      "channel": 5,
      "note": 37,
      "start": 104.8968,
      "duration": 0.2231,
      "velocity": 124,
      "chip": "ym2612"
    },
    {
      "channel": 3,
      "note": 47,
      "start": 104.9083,
      "duration": 0.2625,
      "velocity": 127,
      "chip": "ym2612"
    },
    {
      "channel": 2,
      "note": 39,
      "start": 105.0407,
      "duration": 0.1304,
      "velocity": 116,
      "chip": "ym2612"
    },
    {
      "channel": 0,
      "note": 64,
      "start": 105.2068,
      "duration": 0.0963,
      "velocity": 98,
      "chip": "ym2612"
    },
    {
      "channel": 2,
      "note": 39,
      "start": 105.2105,
      "duration": 0.1264,
      "velocity": 116,
      "chip": "ym2612"
    },
    {
      "channel": 5,
      "note": 37,
      "start": 105.2138,
      "duration": 0.223,
      "velocity": 124,
      "chip": "ym2612"
    },
    {
      "channel": 0,
      "note": 64,
      "start": 105.3735,
      "duration": 0.0965,
      "velocity": 98,
      "chip": "ym2612"
    },
    {
      "channel": 4,
      "note": 64,
      "start": 105.3771,
      "duration": 0.093,
      "velocity": 104,
      "chip": "ym2612"
    },
    {
      "channel": 1,
      "note": 55,
      "start": 105.3806,
      "duration": 0.1227,
      "velocity": 120,
      "chip": "ym2612"
    },
    {
      "channel": 3,
      "note": 52,
      "start": 105.3903,
      "duration": 0.1132,
      "velocity": 127,
      "chip": "ym2612"
    },
    {
      "channel": 4,
      "note": 62,
      "start": 105.5244,
      "duration": 0.0793,
      "velocity": 104,
      "chip": "ym2612"
    },
    {
      "channel": 2,
      "note": 39,
      "start": 105.5277,
      "duration": 0.1277,
      "velocity": 116,
      "chip": "ym2612"
    },
    {
      "channel": 5,
      "note": 37,
      "start": 105.5321,
      "duration": 0.2386,
      "velocity": 124,
      "chip": "ym2612"
    },
    {
      "channel": 3,
      "note": 50,
      "start": 105.5571,
      "duration": 0.0799,
      "velocity": 127,
      "chip": "ym2612"
    },
    {
      "channel": 0,
      "note": 64,
      "start": 105.6907,
      "duration": 0.0964,
      "velocity": 98,
      "chip": "ym2612"
    },
    {
      "channel": 4,
      "note": 64,
      "start": 105.6942,
      "duration": 0.0932,
      "velocity": 104,
      "chip": "ym2612"
    },
    {
      "channel": 1,
      "note": 55,
      "start": 105.6973,
      "duration": 0.1247,
      "velocity": 120,
      "chip": "ym2612"
    },
    {
      "channel": 3,
      "note": 52,
      "start": 105.7073,
      "duration": 0.1148,
      "velocity": 127,
      "chip": "ym2612"
    },
    {
      "channel": 0,
      "note": 62,
      "start": 105.8408,
      "duration": 0.0797,
      "velocity": 98,
      "chip": "ym2612"
    },
    {
      "channel": 4,
      "note": 62,
      "start": 105.8443,
      "duration": 0.0765,
      "velocity": 104,
      "chip": "ym2612"
    },
    {
      "channel": 2,
      "note": 39,
      "start": 105.8476,
      "duration": 0.1233,
      "velocity": 116,
      "chip": "ym2612"
    },
    {
      "channel": 5,
      "note": 37,
      "start": 105.8509,
      "duration": 0.2368,
      "velocity": 124,
      "chip": "ym2612"
    },
    {
      "channel": 3,
      "note": 50,
      "start": 105.8742,
      "duration": 0.0798,
      "velocity": 127,
      "chip": "ym2612"
    },
    {
      "channel": 0,
      "note": 62,
      "start": 106.0079,
      "duration": 0.0962,
      "velocity": 98,
      "chip": "ym2612"
    },
    {
      "channel": 4,
      "note": 62,
      "start": 106.0114,
      "duration": 0.0929,
      "velocity": 104,
      "chip": "ym2612"
    },
    {
      "channel": 1,
      "note": 55,
      "start": 106.0145,
      "duration": 0.1231,
      "velocity": 120,
      "chip": "ym2612"
    },
    {
      "channel": 3,
      "note": 50,
      "start": 106.0411,
      "duration": 0.0966,
      "velocity": 127,
      "chip": "ym2612"
    },
    {
      "channel": 4,
      "note": 64,
      "start": 106.1748,
      "duration": 0.0964,
      "velocity": 104,
      "chip": "ym2612"
    },
    {
      "channel": 2,
      "note": 39,
      "start": 106.178,
      "duration": 0.1267,
      "velocity": 116,
      "chip": "ym2612"
    },
    {
      "channel": 5,
      "note": 37,
      "start": 106.1813,
      "duration": 0.225,
      "velocity": 124,
      "chip": "ym2612"
    },
    {
      "channel": 3,
      "note": 52,
      "start": 106.1911,
      "duration": 0.1134,
      "velocity": 127,
      "chip": "ym2612"
    },
    {
      "channel": 4,
      "note": 62,
      "start": 106.3267,
      "duration": 0.0795,
      "velocity": 104,
      "chip": "ym2612"
    },
    {
      "channel": 1,
      "note": 55,
      "start": 106.3299,
      "duration": 0.1247,
      "velocity": 120,
      "chip": "ym2612"
    },
    {
      "channel": 3,
      "note": 50,
      "start": 106.3585,
      "duration": 0.0795,
      "velocity": 127,
      "chip": "ym2612"
    },
    {
      "channel": 0,
      "note": 64,
      "start": 106.4931,
      "duration": 0.095,
      "velocity": 98,
      "chip": "ym2612"
    },
    {
      "channel": 4,
      "note": 64,
      "start": 106.4966,
      "duration": 0.0917,
      "velocity": 104,
      "chip": "ym2612"
    },
    {
      "channel": 2,
      "note": 39,
      "start": 106.5,
      "duration": 0.1217,
      "velocity": 116,
      "chip": "ym2612"
    },
    {
      "channel": 5,
      "note": 37,
      "start": 106.5033,
      "duration": 0.2185,
      "velocity": 124,
      "chip": "ym2612"
    },
    {
      "channel": 3,
      "note": 52,
      "start": 106.5083,
      "duration": 0.1132,
      "velocity": 127,
      "chip": "ym2612"
    },
    {
      "channel": 0,
      "note": 62,
      "start": 106.6416,
      "duration": 0.1134,
      "velocity": 98,
      "chip": "ym2612"
    },
    {
      "channel": 4,
      "note": 62,
      "start": 106.645,
      "duration": 0.1102,
      "velocity": 104,
      "chip": "ym2612"
    },
    {
      "channel": 2,
      "note": 39,
      "start": 106.6484,
      "duration": 0.1236,
      "velocity": 116,
      "chip": "ym2612"
    },
    {
      "channel": 3,
      "note": 50,
      "start": 106.6751,
      "duration": 0.0967,
      "velocity": 127,
      "chip": "ym2612"
    },
    {
      "channel": 0,
      "note": 59,
      "start": 106.8089,
      "duration": 0.0978,
      "velocity": 98,
      "chip": "ym2612"
    },
    {
      "channel": 4,
      "note": 59,
      "start": 106.8122,
      "duration": 0.0947,
      "velocity": 104,
      "chip": "ym2612"
    },
    {
      "channel": 1,
      "note": 85,
      "start": 106.8159,
      "duration": 0.1226,
      "velocity": 127,
      "chip": "ym2612"
    },
    {
      "channel": 5,
      "note": 37,
      "start": 106.8191,
      "duration": 0.2198,
      "velocity": 124,
      "chip": "ym2612"
    },
    {
      "channel": 3,
      "note": 47,
      "start": 106.8419,
      "duration": 0.0968,
      "velocity": 127,
      "chip": "ym2612"
    },
    {
      "channel": 0,
      "note": 59,
      "start": 106.9755,
      "duration": 0.0974,
      "velocity": 98,
      "chip": "ym2612"
    },
    {
      "channel": 4,
      "note": 59,
      "start": 106.9789,
      "duration": 0.1018,
      "velocity": 104,
      "chip": "ym2612"
    },
    {
      "channel": 2,
      "note": 39,
      "start": 106.9821,
      "duration": 0.1235,
      "velocity": 116,
      "chip": "ym2612"
    },
    {
      "channel": 3,
      "note": 47,
      "start": 106.9937,
      "duration": 0.1118,
      "velocity": 127,
      "chip": "ym2612"
    },
    {
      "channel": 0,
      "note": 62,
      "start": 107.126,
      "duration": 0.1296,
      "velocity": 98,
      "chip": "ym2612"
    },
    {
      "channel": 4,
      "note": 62,
      "start": 107.1299,
      "duration": 0.1261,
      "velocity": 104,
      "chip": "ym2612"
    },
    {
      "channel": 1,
      "note": 85,
      "start": 107.1332,
      "duration": 0.1225,
      "velocity": 127,
      "chip": "ym2612"
    },
    {
      "channel": 5,
      "note": 37,
      "start": 107.1363,
      "duration": 0.2374,
      "velocity": 124,
      "chip": "ym2612"
    },
    {
      "channel": 3,
      "note": 50,
      "start": 107.1607,
      "duration": 0.1283,
      "velocity": 127,
      "chip": "ym2612"
    },
    {
      "channel": 4,
      "note": 59,
      "start": 107.2931,
      "duration": 0.0804,
      "velocity": 104,
      "chip": "ym2612"
    },
    {
      "channel": 2,
      "note": 39,
      "start": 107.2964,
      "duration": 0.1264,
      "velocity": 116,
      "chip": "ym2612"
    },
    {
      "channel": 3,
      "note": 47,
      "start": 107.3094,
      "duration": 0.0798,
      "velocity": 127,
      "chip": "ym2612"
    },
    {
      "channel": 4,
      "note": 62,
      "start": 107.4433,
      "duration": 0.2145,
      "velocity": 104,
      "chip": "ym2612"
    },
    {
      "channel": 1,
      "note": 85,
      "start": 107.447,
      "duration": 0.1273,
      "velocity": 127,
      "chip": "ym2612"
    },
    {
      "channel": 5,
      "note": 37,
      "start": 107.4505,
      "duration": 0.2394,
      "velocity": 124,
      "chip": "ym2612"
    },
    {
      "channel": 3,
      "note": 50,
      "start": 107.4764,
      "duration": 0.2133,
      "velocity": 127,
      "chip": "ym2612"
    },
    {
      "channel": 2,
      "note": 39,
      "start": 107.6102,
      "duration": 0.1311,
      "velocity": 116,
      "chip": "ym2612"
    },
    {
      "channel": 0,
      "note": 64,
      "start": 107.777,
      "duration": 0.0962,
      "velocity": 98,
      "chip": "ym2612"
    },
    {
      "channel": 2,
      "note": 39,
      "start": 107.7806,
      "duration": 0.1277,
      "velocity": 116,
      "chip": "ym2612"
    },
    {
      "channel": 5,
      "note": 37,
      "start": 107.7839,
      "duration": 0.223,
      "velocity": 124,
      "chip": "ym2612"
    },
    {
      "channel": 0,
      "note": 64,
      "start": 107.9276,
      "duration": 0.1123,
      "velocity": 98,
      "chip": "ym2612"
    },
    {
      "channel": 4,
      "note": 64,
      "start": 107.9313,
      "duration": 0.1089,
      "velocity": 104,
      "chip": "ym2612"
    },
    {
      "channel": 1,
      "note": 64,
      "start": 107.9349,
      "duration": 0.1051,
      "velocity": 104,
      "chip": "ym2612"
    },
    {
      "channel": 3,
      "note": 55,
      "start": 107.9387,
      "duration": 0.1181,
      "velocity": 120,
      "chip": "ym2612"
    },
    {
      "channel": 2,
      "note": 52,
      "start": 107.9605,
      "duration": 0.0964,
      "velocity": 127,
      "chip": "ym2612"
    },
    {
      "channel": 0,
      "note": 62,
      "start": 108.0935,
      "duration": 0.0966,
      "velocity": 98,
      "chip": "ym2612"
    },
    {
      "channel": 4,
      "note": 62,
      "start": 108.0969,
      "duration": 0.0936,
      "velocity": 104,
      "chip": "ym2612"
    },
    {
      "channel": 1,
      "note": 62,
      "start": 108.1,
      "duration": 0.0903,
      "velocity": 104,
      "chip": "ym2612"
    },
    {
      "channel": 2,
      "note": 39,
      "start": 108.1035,
      "duration": 0.1204,
      "velocity": 116,
      "chip": "ym2612"
    },
    {
      "channel": 5,
      "note": 37,
      "start": 108.1079,
      "duration": 0.2175,
      "velocity": 124,
      "chip": "ym2612"
    },
    {
      "channel": 3,
      "note": 50,
      "start": 108.1134,
      "duration": 0.1103,
      "velocity": 127,
      "chip": "ym2612"
    },
    {
      "channel": 0,
      "note": 64,
      "start": 108.2453,
      "duration": 0.1119,
      "velocity": 98,
      "chip": "ym2612"
    },
    {
      "channel": 4,
      "note": 64,
      "start": 108.2486,
      "duration": 0.1089,
      "velocity": 104,
      "chip": "ym2612"
    },
    {
      "channel": 1,
      "note": 64,
      "start": 108.2517,
      "duration": 0.1056,
      "velocity": 104,
      "chip": "ym2612"
    },
    {
      "channel": 3,
      "note": 55,
      "start": 108.2549,
      "duration": 0.119,
      "velocity": 120,
      "chip": "ym2612"
    },
    {
      "channel": 2,
      "note": 52,
      "start": 108.2773,
      "duration": 0.0968,
      "velocity": 127,
      "chip": "ym2612"
    },
    {
      "channel": 0,
      "note": 62,
      "start": 108.4123,
      "duration": 0.0798,
      "velocity": 98,
      "chip": "ym2612"
    },
    {
      "channel": 4,
      "note": 62,
      "start": 108.4158,
      "duration": 0.0766,
      "velocity": 104,
      "chip": "ym2612"
    },
    {
      "channel": 1,
      "note": 62,
      "start": 108.419,
      "duration": 0.0732,
      "velocity": 104,
      "chip": "ym2612"
    },
    {
      "channel": 2,
      "note": 39,
      "start": 108.4222,
      "duration": 0.1187,
      "velocity": 116,
      "chip": "ym2612"
    },
    {
      "channel": 5,
      "note": 37,
      "start": 108.4256,
      "duration": 0.2154,
      "velocity": 124,
      "chip": "ym2612"
    },
    {
      "channel": 3,
      "note": 50,
      "start": 108.4443,
      "duration": 0.063,
      "velocity": 127,
      "chip": "ym2612"
    },
    {
      "channel": 0,
      "note": 62,
      "start": 108.5793,
      "duration": 0.0947,
      "velocity": 98,
      "chip": "ym2612"
    },
    {
      "channel": 4,
      "note": 62,
      "start": 108.5828,
      "duration": 0.0915,
      "velocity": 104,
      "chip": "ym2612"
    },
    {
      "channel": 1,
      "note": 62,
      "start": 108.5861,
      "duration": 0.0881,
      "velocity": 104,
      "chip": "ym2612"
    },
    {
      "channel": 3,
      "note": 55,
      "start": 108.5893,
      "duration": 0.1182,
      "velocity": 120,
      "chip": "ym2612"
    },
    {
      "channel": 2,
      "note": 50,
      "start": 108.595,
      "duration": 0.1127,
      "velocity": 127,
      "chip": "ym2612"
    },
    {
      "channel": 4,
      "note": 64,
      "start": 108.7288,
      "duration": 0.2459,
      "velocity": 104,
      "chip": "ym2612"
    },
    {
      "channel": 1,
      "note": 64,
      "start": 108.7323,
      "duration": 0.2422,
      "velocity": 104,
      "chip": "ym2612"
    },
    {
      "channel": 2,
      "note": 39,
      "start": 108.7354,
      "duration": 0.1224,
      "velocity": 116,
      "chip": "ym2612"
    },
    {
      "channel": 5,
      "note": 37,
      "start": 108.7387,
      "duration": 0.2362,
      "velocity": 124,
      "chip": "ym2612"
    },
    {
      "channel": 0,
      "note": 52,
      "start": 108.7615,
      "duration": 0.2312,
      "velocity": 127,
      "chip": "ym2612"
    },
    {
      "channel": 3,
      "note": 55,
      "start": 108.8951,
      "duration": 0.1295,
      "velocity": 120,
      "chip": "ym2612"
    },
    {
      "channel": 2,
      "note": 64,
      "start": 109.0456,
      "duration": 0.1144,
      "velocity": 98,
      "chip": "ym2612"
    },
    {
      "channel": 4,
      "note": 64,
      "start": 109.0493,
      "duration": 0.1105,
      "velocity": 104,
      "chip": "ym2612"
    },
    {
      "channel": 1,
      "note": 64,
      "start": 109.0531,
      "duration": 0.1066,
      "velocity": 104,
      "chip": "ym2612"
    },
    {
      "channel": 5,
      "note": 37,
      "start": 109.0573,
      "duration": 0.2344,
      "velocity": 124,
      "chip": "ym2612"
    },
    {
      "channel": 0,
      "note": 52,
      "start": 109.0798,
      "duration": 0.0949,
      "velocity": 127,
      "chip": "ym2612"
    },
    {
      "channel": 2,
      "note": 64,
      "start": 109.212,
      "duration": 0.0977,
      "velocity": 98,
      "chip": "ym2612"
    },
    {
      "channel": 4,
      "note": 64,
      "start": 109.2154,
      "duration": 0.0941,
      "velocity": 104,
      "chip": "ym2612"
    },
    {
      "channel": 1,
      "note": 64,
      "start": 109.2185,
      "duration": 0.0908,
      "velocity": 104,
      "chip": "ym2612"
    },
    {
      "channel": 0,
      "note": 52,
      "start": 109.2464,
      "duration": 0.0953,
      "velocity": 127,
      "chip": "ym2612"
    },
    {
      "channel": 2,
      "note": 62,
      "start": 109.3788,
      "duration": 0.0967,
      "velocity": 98,
      "chip": "ym2612"
    },
    {
      "channel": 4,
      "note": 62,
      "start": 109.3822,
      "duration": 0.0932,
      "velocity": 104,
      "chip": "ym2612"
    },
    {
      "channel": 1,
      "note": 62,
      "start": 109.3853,
      "duration": 0.0899,
      "velocity": 104,
      "chip": "ym2612"
    },
    {
      "channel": 3,
      "note": 85,
      "start": 109.3893,
      "duration": 0.1205,
      "velocity": 127,
      "chip": "ym2612"
    },
    {
      "channel": 5,
      "note": 37,
      "start": 109.3925,
      "duration": 0.2163,
      "velocity": 124,
      "chip": "ym2612"
    },
    {
      "channel": 0,
      "note": 50,
      "start": 109.3972,
      "duration": 0.1124,
      "velocity": 127,
      "chip": "ym2612"
    },
    {
      "channel": 2,
      "note": 64,
      "start": 109.529,
      "duration": 0.1134,
      "velocity": 98,
      "chip": "ym2612"
    },
    {
      "channel": 4,
      "note": 64,
      "start": 109.5324,
      "duration": 0.1099,
      "velocity": 104,
      "chip": "ym2612"
    },
    {
      "channel": 1,
      "note": 64,
      "start": 109.5355,
      "duration": 0.1066,
      "velocity": 104,
      "chip": "ym2612"
    },
    {
      "channel": 0,
      "note": 52,
      "start": 109.562,
      "duration": 0.0983,
      "velocity": 127,
      "chip": "ym2612"
    },
    {
      "channel": 2,
      "note": 62,
      "start": 109.6959,
      "duration": 0.0968,
      "velocity": 98,
      "chip": "ym2612"
    },
    {
      "channel": 4,
      "note": 62,
      "start": 109.6992,
      "duration": 0.0932,
      "velocity": 104,
      "chip": "ym2612"
    },
    {
      "channel": 1,
      "note": 62,
      "start": 109.7024,
      "duration": 0.0899,
      "velocity": 104,
      "chip": "ym2612"
    },
    {
      "channel": 3,
      "note": 85,
      "start": 109.7056,
      "duration": 0.1217,
      "velocity": 127,
      "chip": "ym2612"
    },
    {
      "channel": 5,
      "note": 37,
      "start": 109.7089,
      "duration": 0.217,
      "velocity": 124,
      "chip": "ym2612"
    },
    {
      "channel": 0,
      "note": 50,
      "start": 109.7135,
      "duration": 0.1136,
      "velocity": 127,
      "chip": "ym2612"
    },
    {
      "channel": 2,
      "note": 59,
      "start": 109.8462,
      "duration": 0.1132,
      "velocity": 98,
      "chip": "ym2612"
    },
    {
      "channel": 4,
      "note": 59,
      "start": 109.8496,
      "duration": 0.1097,
      "velocity": 104,
      "chip": "ym2612"
    },
    {
      "channel": 1,
      "note": 59,
      "start": 109.8527,
      "duration": 0.1064,
      "velocity": 104,
      "chip": "ym2612"
    },
    {
      "channel": 0,
      "note": 47,
      "start": 109.8794,
      "duration": 0.0963,
      "velocity": 127,
      "chip": "ym2612"
    },
    {
      "channel": 4,
      "note": 59,
      "start": 110.0134,
      "duration": 0.2311,
      "velocity": 104,
      "chip": "ym2612"
    },
    {
      "channel": 1,
      "note": 59,
      "start": 110.0169,
      "duration": 0.2276,
      "velocity": 104,
      "chip": "ym2612"
    },
    {
      "channel": 3,
      "note": 85,
      "start": 110.0205,
      "duration": 0.1223,
      "velocity": 127,
      "chip": "ym2612"
    },
    {
      "channel": 5,
      "note": 37,
      "start": 110.0236,
      "duration": 0.2211,
      "velocity": 124,
      "chip": "ym2612"
    },
    {
      "channel": 0,
      "note": 47,
      "start": 110.0463,
      "duration": 0.2299,
      "velocity": 127,
      "chip": "ym2612"
    },
    {
      "channel": 2,
      "note": 39,
      "start": 110.1803,
      "duration": 0.1295,
      "velocity": 116,
      "chip": "ym2612"
    },
    {
      "channel": 3,
      "note": 62,
      "start": 110.3319,
      "duration": 0.1114,
      "velocity": 98,
      "chip": "ym2612"
    },
    {
      "channel": 2,
      "note": 39,
      "start": 110.3355,
      "duration": 0.1246,
      "velocity": 116,
      "chip": "ym2612"
    },
    {
      "channel": 5,
      "note": 37,
      "start": 110.3388,
      "duration": 0.2395,
      "velocity": 124,
      "chip": "ym2612"
    },
    {
      "channel": 3,
      "note": 62,
      "start": 110.4983,
      "duration": 0.095,
      "velocity": 98,
      "chip": "ym2612"
    },
    {
      "channel": 4,
      "note": 74,
      "start": 110.5024,
      "duration": 0.0911,
      "velocity": 104,
      "chip": "ym2612"
    },
    {
      "channel": 1,
      "note": 62,
      "start": 110.5058,
      "duration": 0.0874,
      "velocity": 104,
      "chip": "ym2612"
    },
    {
      "channel": 0,
      "note": 55,
      "start": 110.5093,
      "duration": 0.1173,
      "velocity": 120,
      "chip": "ym2612"
    },
    {
      "channel": 2,
      "note": 50,
      "start": 110.515,
      "duration": 0.1119,
      "velocity": 127,
      "chip": "ym2612"
    },
    {
      "channel": 4,
      "note": 76,
      "start": 110.6473,
      "duration": 0.1131,
      "velocity": 104,
      "chip": "ym2612"
    },
    {
      "channel": 1,
      "note": 64,
      "start": 110.6504,
      "duration": 0.1098,
      "velocity": 104,
      "chip": "ym2612"
    },
    {
      "channel": 2,
      "note": 39,
      "start": 110.6536,
      "duration": 0.1237,
      "velocity": 116,
      "chip": "ym2612"
    },
    {
      "channel": 5,
      "note": 37,
      "start": 110.6578,
      "duration": 0.2361,
      "velocity": 124,
      "chip": "ym2612"
    },
    {
      "channel": 3,
      "note": 52,
      "start": 110.6805,
      "duration": 0.0965,
      "velocity": 127,
      "chip": "ym2612"
    },
    {
      "channel": 0,
      "note": 62,
      "start": 110.8143,
      "duration": 0.0975,
      "velocity": 98,
      "chip": "ym2612"
    },
    {
      "channel": 4,
      "note": 74,
      "start": 110.8176,
      "duration": 0.0945,
      "velocity": 104,
      "chip": "ym2612"
    },
    {
      "channel": 1,
      "note": 62,
      "start": 110.8207,
      "duration": 0.0912,
      "velocity": 104,
      "chip": "ym2612"
    },
    {
      "channel": 3,
      "note": 55,
      "start": 110.8239,
      "duration": 0.1199,
      "velocity": 120,
      "chip": "ym2612"
    },
    {
      "channel": 2,
      "note": 50,
      "start": 110.8474,
      "duration": 0.0967,
      "velocity": 127,
      "chip": "ym2612"
    },
    {
      "channel": 0,
      "note": 64,
      "start": 110.9806,
      "duration": 0.0981,
      "velocity": 98,
      "chip": "ym2612"
    },
    {
      "channel": 4,
      "note": 76,
      "start": 110.9839,
      "duration": 0.0951,
      "velocity": 104,
      "chip": "ym2612"
    },
    {
      "channel": 1,
      "note": 64,
      "start": 110.9871,
      "duration": 0.0918,
      "velocity": 104,
      "chip": "ym2612"
    },
    {
      "channel": 2,
      "note": 39,
      "start": 110.9902,
      "duration": 0.1206,
      "velocity": 116,
      "chip": "ym2612"
    },
    {
      "channel": 5,
      "note": 37,
      "start": 110.995,
      "duration": 0.2161,
      "velocity": 124,
      "chip": "ym2612"
    },
    {
      "channel": 3,
      "note": 52,
      "start": 111.0,
      "duration": 0.1106,
      "velocity": 127,
      "chip": "ym2612"
    },
    {
      "channel": 0,
      "note": 62,
      "start": 111.1314,
      "duration": 0.0793,
      "velocity": 98,
      "chip": "ym2612"
    },
    {
      "channel": 4,
      "note": 74,
      "start": 111.1349,
      "duration": 0.0761,
      "velocity": 104,
      "chip": "ym2612"
    },
    {
      "channel": 1,
      "note": 62,
      "start": 111.1385,
      "duration": 0.0723,
      "velocity": 104,
      "chip": "ym2612"
    },
    {
      "channel": 3,
      "note": 55,
      "start": 111.1418,
      "duration": 0.119,
      "velocity": 120,
      "chip": "ym2612"
    },
    {
      "channel": 2,
      "note": 50,
      "start": 111.166,
      "duration": 0.0798,
      "velocity": 127,
      "chip": "ym2612"
    },
    {
      "channel": 4,
      "note": 74,
      "start": 111.2983,
      "duration": 0.0963,
      "velocity": 104,
      "chip": "ym2612"
    },
    {
      "channel": 1,
      "note": 62,
      "start": 111.3015,
      "duration": 0.0929,
      "velocity": 104,
      "chip": "ym2612"
    },
    {
      "channel": 2,
      "note": 39,
      "start": 111.3047,
      "duration": 0.1234,
      "velocity": 116,
      "chip": "ym2612"
    },
    {
      "channel": 5,
      "note": 37,
      "start": 111.3087,
      "duration": 0.2196,
      "velocity": 124,
      "chip": "ym2612"
    },
    {
      "channel": 0,
      "note": 50,
      "start": 111.3149,
      "duration": 0.1129,
      "velocity": 127,
      "chip": "ym2612"
    },
    {
      "channel": 3,
      "note": 62,
      "start": 111.4483,
      "duration": 0.0797,
      "velocity": 98,
      "chip": "ym2612"
    },
    {
      "channel": 4,
      "note": 74,
      "start": 111.4519,
      "duration": 0.0763,
      "velocity": 104,
      "chip": "ym2612"
    },
    {
      "channel": 1,
      "note": 62,
      "start": 111.4551,
      "duration": 0.0728,
      "velocity": 104,
      "chip": "ym2612"
    },
    {
      "channel": 0,
      "note": 55,
      "start": 111.4585,
      "duration": 0.1209,
      "velocity": 120,
      "chip": "ym2612"
    },
    {
      "channel": 2,
      "note": 50,
      "start": 111.4816,
      "duration": 0.0798,
      "velocity": 127,
      "chip": "ym2612"
    },
    {
      "channel": 3,
      "note": 62,
      "start": 111.6149,
      "duration": 0.08,
      "velocity": 98,
      "chip": "ym2612"
    },
    {
      "channel": 4,
      "note": 74,
      "start": 111.6183,
      "duration": 0.0767,
      "velocity": 104,
      "chip": "ym2612"
    },
    {
      "channel": 1,
      "note": 69,
      "start": 111.6214,
      "duration": 0.0734,
      "velocity": 104,
      "chip": "ym2612"
    },
    {
      "channel": 2,
      "note": 39,
      "start": 111.6251,
      "duration": 0.1213,
      "velocity": 116,
      "chip": "ym2612"
    },
    {
      "channel": 5,
      "note": 37,
      "start": 111.6284,
      "duration": 0.2168,
      "velocity": 124,
      "chip": "ym2612"
    },
    {
      "channel": 0,
      "note": 50,
      "start": 111.6486,
      "duration": 0.0627,
      "velocity": 127,
      "chip": "ym2612"
    },
    {
      "channel": 3,
      "note": 62,
      "start": 111.7821,
      "duration": 0.0972,
      "velocity": 98,
      "chip": "ym2612"
    },
    {
      "channel": 4,
      "note": 74,
      "start": 111.7856,
      "duration": 0.0938,
      "velocity": 104,
      "chip": "ym2612"
    },
    {
      "channel": 1,
      "note": 69,
      "start": 111.7889,
      "duration": 0.0902,
      "velocity": 104,
      "chip": "ym2612"
    },
    {
      "channel": 2,
      "note": 39,
      "start": 111.7922,
      "duration": 0.1213,
      "velocity": 116,
      "chip": "ym2612"
    },
    {
      "channel": 0,
      "note": 50,
      "start": 111.7984,
      "duration": 0.1147,
      "velocity": 127,
      "chip": "ym2612"
    },
    {
      "channel": 4,
      "note": 74,
      "start": 111.9323,
      "duration": 0.0797,
      "velocity": 104,
      "chip": "ym2612"
    },
    {
      "channel": 1,
      "note": 69,
      "start": 111.9356,
      "duration": 0.0763,
      "velocity": 104,
      "chip": "ym2612"
    },
    {
      "channel": 5,
      "note": 55,
      "start": 111.939,
      "duration": 0.123,
      "velocity": 120,
      "chip": "ym2612"
    },
    {
      "channel": 3,
      "note": 37,
      "start": 111.9432,
      "duration": 0.2355,
      "velocity": 124,
      "chip": "ym2612"
    },
    {
      "channel": 0,
      "note": 50,
      "start": 111.9654,
      "duration": 0.0798,
      "velocity": 127,
      "chip": "ym2612"
    },
    {
      "channel": 2,
      "note": 62,
      "start": 112.0993,
      "duration": 0.0965,
      "velocity": 98,
      "chip": "ym2612"
    },
    {
      "channel": 4,
      "note": 74,
      "start": 112.1031,
      "duration": 0.0924,
      "velocity": 104,
      "chip": "ym2612"
    },
    {
      "channel": 1,
      "note": 69,
      "start": 112.1064,
      "duration": 0.0889,
      "velocity": 104,
      "chip": "ym2612"
    },
    {
      "channel": 0,
      "note": 50,
      "start": 112.1155,
      "duration": 0.1133,
      "velocity": 127,
      "chip": "ym2612"
    },
    {
      "channel": 2,
      "note": 64,
      "start": 112.2507,
      "duration": 0.1119,
      "velocity": 98,
      "chip": "ym2612"
    },
    {
      "channel": 4,
      "note": 76,
      "start": 112.2541,
      "duration": 0.1083,
      "velocity": 104,
      "chip": "ym2612"
    },
    {
      "channel": 1,
      "note": 71,
      "start": 112.2572,
      "duration": 0.105,
      "velocity": 104,
      "chip": "ym2612"
    },
    {
      "channel": 5,
      "note": 55,
      "start": 112.2604,
      "duration": 0.1187,
      "velocity": 120,
      "chip": "ym2612"
    },
    {
      "channel": 3,
      "note": 37,
      "start": 112.2637,
      "duration": 0.2336,
      "velocity": 124,
      "chip": "ym2612"
    },
    {
      "channel": 0,
      "note": 52,
      "start": 112.2822,
      "duration": 0.0966,
      "velocity": 127,
      "chip": "ym2612"
    },
    {
      "channel": 2,
      "note": 62,
      "start": 112.4176,
      "duration": 0.0952,
      "velocity": 98,
      "chip": "ym2612"
    },
    {
      "channel": 4,
      "note": 74,
      "start": 112.4209,
      "duration": 0.0917,
      "velocity": 104,
      "chip": "ym2612"
    },
    {
      "channel": 1,
      "note": 69,
      "start": 112.424,
      "duration": 0.0884,
      "velocity": 104,
      "chip": "ym2612"
    },
    {
      "channel": 0,
      "note": 50,
      "start": 112.4491,
      "duration": 0.0966,
      "velocity": 127,
      "chip": "ym2612"
    },
    {
      "channel": 2,
      "note": 64,
      "start": 112.5844,
      "duration": 0.0953,
      "velocity": 98,
      "chip": "ym2612"
    },
    {
      "channel": 4,
      "note": 76,
      "start": 112.5878,
      "duration": 0.0917,
      "velocity": 104,
      "chip": "ym2612"
    },
    {
      "channel": 1,
      "note": 71,
      "start": 112.5909,
      "duration": 0.0884,
      "velocity": 104,
      "chip": "ym2612"
    },
    {
      "channel": 5,
      "note": 55,
      "start": 112.5946,
      "duration": 0.1184,
      "velocity": 120,
      "chip": "ym2612"
    },
    {
      "channel": 3,
      "note": 37,
      "start": 112.6002,
      "duration": 0.2128,
      "velocity": 124,
      "chip": "ym2612"
    },
    {
      "channel": 0,
      "note": 52,
      "start": 112.6049,
      "duration": 0.1078,
      "velocity": 127,
      "chip": "ym2612"
    },
    {
      "channel": 2,
      "note": 62,
      "start": 112.7332,
      "duration": 0.1134,
      "velocity": 98,
      "chip": "ym2612"
    },
    {
      "channel": 4,
      "note": 74,
      "start": 112.7368,
      "duration": 0.1095,
      "velocity": 104,
      "chip": "ym2612"
    },
    {
      "channel": 1,
      "note": 69,
      "start": 112.7405,
      "duration": 0.1057,
      "velocity": 104,
      "chip": "ym2612"
    },
    {
      "channel": 0,
      "note": 50,
      "start": 112.7665,
      "duration": 0.0963,
      "velocity": 127,
      "chip": "ym2612"
    },
    {
      "channel": 2,
      "note": 57,
      "start": 112.9002,
      "duration": 0.0796,
      "velocity": 98,
      "chip": "ym2612"
    },
    {
      "channel": 1,
      "note": 81,
      "start": 112.9037,
      "duration": 0.2262,
      "velocity": 88,
      "chip": "ym2612"
    },
    {
      "channel": 5,
      "note": 76,
      "start": 112.907,
      "duration": 0.1744,
      "velocity": 88,
      "chip": "ym2612"
    },
    {
      "channel": 3,
      "note": 42,
      "start": 112.9104,
      "duration": 0.1361,
      "velocity": 106,
      "chip": "ym2612"
    },
    {
      "channel": 2,
      "note": 69,
      "start": 113.0507,
      "duration": 0.0795,
      "velocity": 98,
      "chip": "ym2612"
    },
    {
      "channel": 3,
      "note": 42,
      "start": 113.054,
      "duration": 0.1593,
      "velocity": 106,
      "chip": "ym2612"
    },
    {
      "channel": 4,
      "note": 55,
      "start": 113.0572,
      "duration": 0.1228,
      "velocity": 120,
      "chip": "ym2612"
    },
    {
      "channel": 2,
      "note": 59,
      "start": 113.2171,
      "duration": 0.0798,
      "velocity": 98,
      "chip": "ym2612"
    },
    {
      "channel": 1,
      "note": 76,
      "start": 113.2204,
      "duration": 0.1765,
      "velocity": 88,
      "chip": "ym2612"
    },
    {
      "channel": 5,
      "note": 81,
      "start": 113.2236,
      "duration": 0.2568,
      "velocity": 88,
      "chip": "ym2612"
    },
    {
      "channel": 3,
      "note": 32,
      "start": 113.2266,
      "duration": 0.1537,
      "velocity": 106,
      "chip": "ym2612"
    },
    {
      "channel": 2,
      "note": 71,
      "start": 113.384,
      "duration": 0.0631,
      "velocity": 98,
      "chip": "ym2612"
    },
    {
      "channel": 3,
      "note": 42,
      "start": 113.3873,
      "duration": 0.1432,
      "velocity": 106,
      "chip": "ym2612"
    },
    {
      "channel": 4,
      "note": 55,
      "start": 113.3903,
      "duration": 0.1235,
      "velocity": 120,
      "chip": "ym2612"
    },
    {
      "channel": 2,
      "note": 60,
      "start": 113.5345,
      "duration": 0.1311,
      "velocity": 98,
      "chip": "ym2612"
    },
    {
      "channel": 1,
      "note": 74,
      "start": 113.5383,
      "duration": 0.0756,
      "velocity": 88,
      "chip": "ym2612"
    },
    {
      "channel": 5,
      "note": 79,
      "start": 113.5415,
      "duration": 0.0406,
      "velocity": 88,
      "chip": "ym2612"
    },
    {
      "channel": 3,
      "note": 32,
      "start": 113.5444,
      "duration": 0.1529,
      "velocity": 106,
      "chip": "ym2612"
    },
    {
      "channel": 2,
      "note": 72,
      "start": 113.7013,
      "duration": 0.0963,
      "velocity": 98,
      "chip": "ym2612"
    },
    {
      "channel": 1,
      "note": 81,
      "start": 113.7047,
      "duration": 0.0759,
      "velocity": 88,
      "chip": "ym2612"
    },
    {
      "channel": 5,
      "note": 76,
      "start": 113.7078,
      "duration": 0.0731,
      "velocity": 88,
      "chip": "ym2612"
    },
    {
      "channel": 3,
      "note": 32,
      "start": 113.7108,
      "duration": 0.1367,
      "velocity": 106,
      "chip": "ym2612"
    },
    {
      "channel": 4,
      "note": 55,
      "start": 113.7138,
      "duration": 0.1185,
      "velocity": 120,
      "chip": "ym2612"
    },
    {
      "channel": 2,
      "note": 59,
      "start": 113.8513,
      "duration": 0.1133,
      "velocity": 98,
      "chip": "ym2612"
    },
    {
      "channel": 1,
      "note": 76,
      "start": 113.8547,
      "duration": 0.2106,
      "velocity": 88,
      "chip": "ym2612"
    },
    {
      "channel": 5,
      "note": 81,
      "start": 113.8583,
      "duration": 0.1896,
      "velocity": 88,
      "chip": "ym2612"
    },
    {
      "channel": 3,
      "note": 42,
      "start": 113.8612,
      "duration": 0.1532,
      "velocity": 106,
      "chip": "ym2612"
    },
    {
      "channel": 2,
      "note": 71,
      "start": 114.0183,
      "duration": 0.0964,
      "velocity": 98,
      "chip": "ym2612"
    },
    {
      "channel": 3,
      "note": 32,
      "start": 114.0219,
      "duration": 0.1594,
      "velocity": 106,
      "chip": "ym2612"
    },
    {
      "channel": 4,
      "note": 55,
      "start": 114.0249,
      "duration": 0.123,
      "velocity": 120,
      "chip": "ym2612"
    },
    {
      "channel": 2,
      "note": 57,
      "start": 114.1852,
      "duration": 0.1297,
      "velocity": 98,
      "chip": "ym2612"
    },
    {
      "channel": 1,
      "note": 81,
      "start": 114.1887,
      "duration": 0.2277,
      "velocity": 88,
      "chip": "ym2612"
    },
    {
      "channel": 5,
      "note": 76,
      "start": 114.1917,
      "duration": 0.2249,
      "velocity": 88,
      "chip": "ym2612"
    },
    {
      "channel": 3,
      "note": 42,
      "start": 114.1947,
      "duration": 0.1383,
      "velocity": 106,
      "chip": "ym2612"
    },
    {
      "channel": 2,
      "note": 69,
      "start": 114.337,
      "duration": 0.1115,
      "velocity": 98,
      "chip": "ym2612"
    },
    {
      "channel": 3,
      "note": 42,
      "start": 114.3402,
      "duration": 0.1596,
      "velocity": 106,
      "chip": "ym2612"
    },
    {
      "channel": 4,
      "note": 55,
      "start": 114.3432,
      "duration": 0.1218,
      "velocity": 120,
      "chip": "ym2612"
    },
    {
      "channel": 2,
      "note": 55,
      "start": 114.5037,
      "duration": 0.1283,
      "velocity": 98,
      "chip": "ym2612"
    },
    {
      "channel": 1,
      "note": 81,
      "start": 114.5072,
      "duration": 0.2581,
      "velocity": 88,
      "chip": "ym2612"
    },
    {
      "channel": 5,
      "note": 76,
      "start": 114.5104,
      "duration": 0.2217,
      "velocity": 88,
      "chip": "ym2612"
    },
    {
      "channel": 3,
      "note": 32,
      "start": 114.5133,
      "duration": 0.1353,
      "velocity": 106,
      "chip": "ym2612"
    },
    {
      "channel": 2,
      "note": 67,
      "start": 114.6529,
      "duration": 0.1126,
      "velocity": 98,
      "chip": "ym2612"
    },
    {
      "channel": 3,
      "note": 42,
      "start": 114.6562,
      "duration": 0.1593,
      "velocity": 106,
      "chip": "ym2612"
    },
    {
      "channel": 4,
      "note": 55,
      "start": 114.6592,
      "duration": 0.1228,
      "velocity": 120,
      "chip": "ym2612"
    },
    {
      "channel": 2,
      "note": 53,
      "start": 114.8193,
      "duration": 0.098,
      "velocity": 98,
      "chip": "ym2612"
    },
    {
      "channel": 1,
      "note": 74,
      "start": 114.8227,
      "duration": 0.076,
      "velocity": 88,
      "chip": "ym2612"
    },
    {
      "channel": 5,
      "note": 79,
      "start": 114.8263,
      "duration": 0.0908,
      "velocity": 88,
      "chip": "ym2612"
    },
    {
      "channel": 3,
      "note": 32,
      "start": 114.8293,
      "duration": 0.1531,
      "velocity": 106,
      "chip": "ym2612"
    },
    {
      "channel": 2,
      "note": 65,
      "start": 114.9863,
      "duration": 0.1298,
      "velocity": 98,
      "chip": "ym2612"
    },
    {
      "channel": 1,
      "note": 71,
      "start": 114.9897,
      "duration": 0.0593,
      "velocity": 88,
      "chip": "ym2612"
    },
    {
      "channel": 5,
      "note": 76,
      "start": 114.9928,
      "duration": 0.0566,
      "velocity": 88,
      "chip": "ym2612"
    },
    {
      "channel": 3,
      "note": 42,
      "start": 114.996,
      "duration": 0.0531,
      "velocity": 106,
      "chip": "ym2612"
    },
    {
      "channel": 4,
      "note": 55,
      "start": 115.0006,
      "duration": 0.1153,
      "velocity": 120,
      "chip": "ym2612"
    },
    {
      "channel": 3,
      "note": 42,
      "start": 115.0533,
      "duration": 0.1627,
      "velocity": 106,
      "chip": "ym2612"
    },
    {
      "channel": 2,
      "note": 52,
      "start": 115.1362,
      "duration": 0.13,
      "velocity": 98,
      "chip": "ym2612"
    },
    {
      "channel": 1,
      "note": 71,
      "start": 115.1397,
      "duration": 0.2431,
      "velocity": 88,
      "chip": "ym2612"
    },
    {
      "channel": 5,
      "note": 76,
      "start": 115.1429,
      "duration": 0.2569,
      "velocity": 88,
      "chip": "ym2612"
    },
    {
      "channel": 0,
      "note": 32,
      "start": 115.1461,
      "duration": 0.1542,
      "velocity": 106,
      "chip": "ym2612"
    },
    {
      "channel": 2,
      "note": 64,
      "start": 115.3043,
      "duration": 0.1287,
      "velocity": 98,
      "chip": "ym2612"
    },
    {
      "channel": 0,
      "note": 42,
      "start": 115.3075,
      "duration": 0.1422,
      "velocity": 106,
      "chip": "ym2612"
    },
    {
      "channel": 4,
      "note": 55,
      "start": 115.3105,
      "duration": 0.1224,
      "velocity": 120,
      "chip": "ym2612"
    },
    {
      "channel": 2,
      "note": 57,
      "start": 115.4537,
      "duration": 0.1129,
      "velocity": 98,
      "chip": "ym2612"
    },
    {
      "channel": 1,
      "note": 76,
      "start": 115.4571,
      "duration": 0.2109,
      "velocity": 88,
      "chip": "ym2612"
    },
    {
      "channel": 5,
      "note": 81,
      "start": 115.4606,
      "duration": 0.2077,
      "velocity": 88,
      "chip": "ym2612"
    },
    {
      "channel": 0,
      "note": 42,
      "start": 115.4634,
      "duration": 0.153,
      "velocity": 106,
      "chip": "ym2612"
    },
    {
      "channel": 2,
      "note": 69,
      "start": 115.6203,
      "duration": 0.0965,
      "velocity": 98,
      "chip": "ym2612"
    },
    {
      "channel": 0,
      "note": 42,
      "start": 115.6235,
      "duration": 0.1597,
      "velocity": 106,
      "chip": "ym2612"
    },
    {
      "channel": 4,
      "note": 55,
      "start": 115.6265,
      "duration": 0.1251,
      "velocity": 120,
      "chip": "ym2612"
    },
    {
      "channel": 2,
      "note": 59,
      "start": 115.7873,
      "duration": 0.1465,
      "velocity": 98,
      "chip": "ym2612"
    },
    {
      "channel": 1,
      "note": 81,
      "start": 115.7907,
      "duration": 0.2263,
      "velocity": 88,
      "chip": "ym2612"
    },
    {
      "channel": 5,
      "note": 76,
      "start": 115.7939,
      "duration": 0.1898,
      "velocity": 88,
      "chip": "ym2612"
    },
    {
      "channel": 0,
      "note": 32,
      "start": 115.7972,
      "duration": 0.1363,
      "velocity": 106,
      "chip": "ym2612"
    },
    {
      "channel": 2,
      "note": 71,
      "start": 115.9376,
      "duration": 0.1129,
      "velocity": 98,
      "chip": "ym2612"
    },
    {
      "channel": 0,
      "note": 42,
      "start": 115.9408,
      "duration": 0.1596,
      "velocity": 106,
      "chip": "ym2612"
    },
    {
      "channel": 4,
      "note": 55,
      "start": 115.9438,
      "duration": 0.1233,
      "velocity": 120,
      "chip": "ym2612"
    },
    {
      "channel": 2,
      "note": 60,
      "start": 116.1043,
      "duration": 0.0966,
      "velocity": 98,
      "chip": "ym2612"
    },
    {
      "channel": 1,
      "note": 79,
      "start": 116.1077,
      "duration": 0.0928,
      "velocity": 88,
      "chip": "ym2612"
    },
    {
      "channel": 5,
      "note": 74,
      "start": 116.1108,
      "duration": 0.0899,
      "velocity": 88,
      "chip": "ym2612"
    },
    {
      "channel": 0,
      "note": 32,
      "start": 116.1136,
      "duration": 0.1383,
      "velocity": 106,
      "chip": "ym2612"
    },
    {
      "channel": 2,
      "note": 72,
      "start": 116.2559,
      "duration": 0.1117,
      "velocity": 98,
      "chip": "ym2612"
    },
    {
      "channel": 1,
      "note": 76,
      "start": 116.2593,
      "duration": 0.0762,
      "velocity": 88,
      "chip": "ym2612"
    },
    {
      "channel": 5,
      "note": 81,
      "start": 116.2628,
      "duration": 0.073,
      "velocity": 88,
      "chip": "ym2612"
    },
    {
      "channel": 0,
      "note": 32,
      "start": 116.2656,
      "duration": 0.1534,
      "velocity": 106,
      "chip": "ym2612"
    },
    {
      "channel": 4,
      "note": 55,
      "start": 116.2686,
      "duration": 0.1156,
      "velocity": 120,
      "chip": "ym2612"
    },
    {
      "channel": 2,
      "note": 59,
      "start": 116.4229,
      "duration": 0.0949,
      "velocity": 98,
      "chip": "ym2612"
    },
    {
      "channel": 1,
      "note": 76,
      "start": 116.4263,
      "duration": 0.2082,
      "velocity": 88,
      "chip": "ym2612"
    },
    {
      "channel": 5,
      "note": 81,
      "start": 116.4294,
      "duration": 0.2053,
      "velocity": 88,
      "chip": "ym2612"
    },
    {
      "channel": 0,
      "note": 42,
      "start": 116.4322,
      "duration": 0.1536,
      "velocity": 106,
      "chip": "ym2612"
    },
    {
      "channel": 2,
      "note": 71,
      "start": 116.5901,
      "duration": 0.0946,
      "velocity": 98,
      "chip": "ym2612"
    },
    {
      "channel": 0,
      "note": 32,
      "start": 116.5932,
      "duration": 0.1412,
      "velocity": 106,
      "chip": "ym2612"
    },
    {
      "channel": 4,
      "note": 55,
      "start": 116.5962,
      "duration": 0.1218,
      "velocity": 120,
      "chip": "ym2612"
    },
    {
      "channel": 1,
      "note": 79,
      "start": 116.7219,
      "duration": 0.0627,
      "velocity": 88,
      "chip": "ym2612"
    },
    {
      "channel": 5,
      "note": 84,
      "start": 116.725,
      "duration": 0.0598,
      "velocity": 88,
      "chip": "ym2612"
    },
    {
      "channel": 2,
      "note": 57,
      "start": 116.7384,
      "duration": 0.1132,
      "velocity": 98,
      "chip": "ym2612"
    },
    {
      "channel": 0,
      "note": 42,
      "start": 116.7415,
      "duration": 0.1598,
      "velocity": 106,
      "chip": "ym2612"
    },
    {
      "channel": 2,
      "note": 69,
      "start": 116.9052,
      "duration": 0.0981,
      "velocity": 98,
      "chip": "ym2612"
    },
    {
      "channel": 0,
      "note": 42,
      "start": 116.9087,
      "duration": 0.0761,
      "velocity": 106,
      "chip": "ym2612"
    },
    {
      "channel": 4,
      "note": 55,
      "start": 116.9117,
      "duration": 0.1233,
      "velocity": 120,
      "chip": "ym2612"
    },
    {
      "channel": 0,
      "note": 42,
      "start": 116.9888,
      "duration": 0.1462,
      "velocity": 106,
      "chip": "ym2612"
    },
    {
      "channel": 1,
      "note": 79,
      "start": 117.0389,
      "duration": 0.1795,
      "velocity": 88,
      "chip": "ym2612"
    },
    {
      "channel": 5,
      "note": 84,
      "start": 117.0425,
      "duration": 0.2104,
      "velocity": 88,
      "chip": "ym2612"
    },
    {
      "channel": 2,
      "note": 57,
      "start": 117.0565,
      "duration": 0.1136,
      "velocity": 98,
      "chip": "ym2612"
    },
    {
      "channel": 3,
      "note": 32,
      "start": 117.0599,
      "duration": 0.1587,
      "velocity": 106,
      "chip": "ym2612"
    },
    {
      "channel": 2,
      "note": 69,
      "start": 117.2224,
      "duration": 0.0964,
      "velocity": 98,
      "chip": "ym2612"
    },
    {
      "channel": 0,
      "note": 42,
      "start": 117.2256,
      "duration": 0.1598,
      "velocity": 106,
      "chip": "ym2612"
    },
    {
      "channel": 4,
      "note": 55,
      "start": 117.2285,
      "duration": 0.1236,
      "velocity": 120,
      "chip": "ym2612"
    },
    {
      "channel": 2,
      "note": 59,
      "start": 117.3892,
      "duration": 0.0964,
      "velocity": 98,
      "chip": "ym2612"
    },
    {
      "channel": 1,
      "note": 78,
      "start": 117.3926,
      "duration": 0.0429,
      "velocity": 88,
      "chip": "ym2612"
    },
    {
      "channel": 5,
      "note": 83,
      "start": 117.3959,
      "duration": 0.0563,
      "velocity": 88,
      "chip": "ym2612"
    },
    {
      "channel": 0,
      "note": 32,
      "start": 117.3987,
      "duration": 0.1368,
      "velocity": 106,
      "chip": "ym2612"
    },
    {
      "channel": 2,
      "note": 71,
      "start": 117.5394,
      "duration": 0.1131,
      "velocity": 98,
      "chip": "ym2612"
    },
    {
      "channel": 0,
      "note": 32,
      "start": 117.5429,
      "duration": 0.1594,
      "velocity": 106,
      "chip": "ym2612"
    },
    {
      "channel": 4,
      "note": 55,
      "start": 117.5463,
      "duration": 0.1243,
      "velocity": 120,
      "chip": "ym2612"
    },
    {
      "channel": 1,
      "note": 78,
      "start": 117.6746,
      "duration": 0.2463,
      "velocity": 88,
      "chip": "ym2612"
    },
    {
      "channel": 5,
      "note": 83,
      "start": 117.6776,
      "duration": 0.2434,
      "velocity": 88,
      "chip": "ym2612"
    },
    {
      "channel": 2,
      "note": 59,
      "start": 117.7062,
      "duration": 0.0965,
      "velocity": 98,
      "chip": "ym2612"
    },
    {
      "channel": 0,
      "note": 42,
      "start": 117.7094,
      "duration": 0.1432,
      "velocity": 106,
      "chip": "ym2612"
    },
    {
      "channel": 2,
      "note": 71,
      "start": 117.8565,
      "duration": 0.1131,
      "velocity": 98,
      "chip": "ym2612"
    },
    {
      "channel": 0,
      "note": 42,
      "start": 117.86,
      "duration": 0.0761,
      "velocity": 106,
      "chip": "ym2612"
    },
    {
      "channel": 4,
      "note": 55,
      "start": 117.8629,
      "duration": 0.1232,
      "velocity": 120,
      "chip": "ym2612"
    },
    {
      "channel": 0,
      "note": 42,
      "start": 117.9401,
      "duration": 48.4709,
      "velocity": 106,
      "chip": "ym2612"
    },
    {
      "channel": 2,
      "note": 57,
      "start": 118.0233,
      "duration": 0.0966,
      "velocity": 98,
      "chip": "ym2612"
    },
    {
      "channel": 1,
      "note": 81,
      "start": 118.0267,
      "duration": 0.2097,
      "velocity": 88,
      "chip": "ym2612"
    },
    {
      "channel": 5,
      "note": 76,
      "start": 118.0303,
      "duration": 0.2245,
      "velocity": 88,
      "chip": "ym2612"
    },
    {
      "channel": 3,
      "note": 42,
      "start": 118.0336,
      "duration": 0.1529,
      "velocity": 106,
      "chip": "ym2612"
    },
    {
      "channel": 2,
      "note": 69,
      "start": 118.1904,
      "duration": 0.0645,
      "velocity": 98,
      "chip": "ym2612"
    },
    {
      "channel": 3,
      "note": 42,
      "start": 118.1937,
      "duration": 0.1444,
      "velocity": 106,
      "chip": "ym2612"
    },
    {
      "channel": 4,
      "note": 55,
      "start": 118.1966,
      "duration": 0.1233,
      "velocity": 120,
      "chip": "ym2612"
    },
    {
      "channel": 2,
      "note": 59,
      "start": 118.3421,
      "duration": 0.1115,
      "velocity": 98,
      "chip": "ym2612"
    },
    {
      "channel": 1,
      "note": 76,
      "start": 118.3455,
      "duration": 0.2582,
      "velocity": 88,
      "chip": "ym2612"
    },
    {
      "channel": 5,
      "note": 81,
      "start": 118.3485,
      "duration": 0.2553,
      "velocity": 88,
      "chip": "ym2612"
    },
    {
      "channel": 3,
      "note": 32,
      "start": 118.3515,
      "duration": 0.1535,
      "velocity": 106,
      "chip": "ym2612"
    },
    {
      "channel": 2,
      "note": 71,
      "start": 118.5089,
      "duration": 0.0798,
      "velocity": 98,
      "chip": "ym2612"
    },
    {
      "channel": 3,
      "note": 42,
      "start": 118.5122,
      "duration": 0.1415,
      "velocity": 106,
      "chip": "ym2612"
    },
    {
      "channel": 4,
      "note": 55,
      "start": 118.5151,
      "duration": 0.1219,
      "velocity": 120,
      "chip": "ym2612"
    },
    {
      "channel": 2,
      "note": 60,
      "start": 118.658,
      "duration": 0.1294,
      "velocity": 98,
      "chip": "ym2612"
    },
    {
      "channel": 1,
      "note": 74,
      "start": 118.6615,
      "duration": 0.0756,
      "velocity": 88,
      "chip": "ym2612"
    },
    {
      "channel": 5,
      "note": 79,
      "start": 118.6647,
      "duration": 0.1227,
      "velocity": 88,
      "chip": "ym2612"
    },
    {
      "channel": 3,
      "note": 32,
      "start": 118.6676,
      "duration": 0.1529,
      "velocity": 106,
      "chip": "ym2612"
    },
    {
      "channel": 2,
      "note": 72,
      "start": 118.8244,
      "duration": 0.13,
      "velocity": 98,
      "chip": "ym2612"
    },
    {
      "channel": 1,
      "note": 81,
      "start": 118.8282,
      "duration": 0.0759,
      "velocity": 88,
      "chip": "ym2612"
    },
    {
      "channel": 5,
      "note": 76,
      "start": 118.8312,
      "duration": 0.073,
      "velocity": 88,
      "chip": "ym2612"
    },
    {
      "channel": 3,
      "note": 32,
      "start": 118.8341,
      "duration": 0.1533,
      "velocity": 106,
      "chip": "ym2612"
    },
    {
      "channel": 4,
      "note": 55,
      "start": 118.8387,
      "duration": 0.1155,
      "velocity": 120,
      "chip": "ym2612"
    },
    {
      "channel": 2,
      "note": 59,
      "start": 118.9912,
      "duration": 0.1299,
      "velocity": 98,
      "chip": "ym2612"
    },
    {
      "channel": 1,
      "note": 76,
      "start": 118.9946,
      "duration": 0.2264,
      "velocity": 88,
      "chip": "ym2612"
    },
    {
      "channel": 5,
      "note": 81,
      "start": 118.9978,
      "duration": 0.19,
      "velocity": 88,
      "chip": "ym2612"
    },
    {
      "channel": 3,
      "note": 42,
      "start": 119.0008,
      "duration": 0.1369,
      "velocity": 106,
      "chip": "ym2612"
    },
    {
      "channel": 2,
      "note": 71,
      "start": 119.1416,
      "duration": 0.1145,
      "velocity": 98,
      "chip": "ym2612"
    },
    {
      "channel": 3,
      "note": 32,
      "start": 119.1453,
      "duration": 0.1593,
      "velocity": 106,
      "chip": "ym2612"
    },
    {
      "channel": 4,
      "note": 55,
      "start": 119.1482,
      "duration": 0.123,
      "velocity": 120,
      "chip": "ym2612"
    },
    {
      "channel": 2,
      "note": 57,
      "start": 119.3086,
      "duration": 0.1297,
      "velocity": 98,
      "chip": "ym2612"
    },
    {
      "channel": 1,
      "note": 81,
      "start": 119.312,
      "duration": 0.0759,
      "velocity": 88,
      "chip": "ym2612"
    },
    {
      "channel": 5,
      "note": 76,
      "start": 119.3151,
      "duration": 0.0731,
      "velocity": 88,
      "chip": "ym2612"
    },
    {
      "channel": 3,
      "note": 42,
      "start": 119.318,
      "duration": 0.1367,
      "velocity": 106,
      "chip": "ym2612"
    },
    {
      "channel": 2,
      "note": 69,
      "start": 119.4587,
      "duration": 0.0798,
      "velocity": 98,
      "chip": "ym2612"
    },
    {
      "channel": 1,
      "note": 79,
      "start": 119.4619,
      "duration": 0.0762,
      "velocity": 88,
      "chip": "ym2612"
    },
    {
      "channel": 5,
      "note": 74,
      "start": 119.4655,
      "duration": 0.0561,
      "velocity": 88,
      "chip": "ym2612"
    },
    {
      "channel": 3,
      "note": 42,
      "start": 119.4685,
      "duration": 0.1532,
      "velocity": 106,
      "chip": "ym2612"
    },
    {
      "channel": 4,
      "note": 55,
      "start": 119.4715,
      "duration": 0.1183,
      "velocity": 120,
      "chip": "ym2612"
    },
    {
      "channel": 2,
      "note": 55,
      "start": 119.6256,
      "duration": 0.0962,
      "velocity": 98,
      "chip": "ym2612"
    },
    {
      "channel": 1,
      "note": 81,
      "start": 119.629,
      "duration": 0.2262,
      "velocity": 88,
      "chip": "ym2612"
    },
    {
      "channel": 5,
      "note": 76,
      "start": 119.6323,
      "duration": 0.2565,
      "velocity": 88,
      "chip": "ym2612"
    },
    {
      "channel": 3,
      "note": 32,
      "start": 119.6352,
      "duration": 0.1534,
      "velocity": 106,
      "chip": "ym2612"
    },
    {
      "channel": 2,
      "note": 67,
      "start": 119.7924,
      "duration": 0.0966,
      "velocity": 98,
      "chip": "ym2612"
    },
    {
      "channel": 3,
      "note": 42,
      "start": 119.7956,
      "duration": 0.1431,
      "velocity": 106,
      "chip": "ym2612"
    },
    {
      "channel": 4,
      "note": 55,
      "start": 119.7986,
      "duration": 0.1249,
      "velocity": 120,
      "chip": "ym2612"
    },
    {
      "channel": 2,
      "note": 53,
      "start": 119.9426,
      "duration": 0.1131,
      "velocity": 98,
      "chip": "ym2612"
    },
    {
      "channel": 1,
      "note": 79,
      "start": 119.946,
      "duration": 0.0427,
      "velocity": 88,
      "chip": "ym2612"
    },
    {
      "channel": 5,
      "note": 74,
      "start": 119.9492,
      "duration": 0.0731,
      "velocity": 88,
      "chip": "ym2612"
    },
    {
      "channel": 3,
      "note": 32,
      "start": 119.9521,
      "duration": 0.1535,
      "velocity": 106,
      "chip": "ym2612"
    },
    {
      "channel": 2,
      "note": 65,
      "start": 120.1096,
      "duration": 0.1297,
      "velocity": 98,
      "chip": "ym2612"
    },
    {
      "channel": 1,
      "note": 71,
      "start": 120.1134,
      "duration": 0.0422,
      "velocity": 88,
      "chip": "ym2612"
    },
    {
      "channel": 5,
      "note": 76,
      "start": 120.1165,
      "duration": 0.0393,
      "velocity": 88,
      "chip": "ym2612"
    },
    {
      "channel": 3,
      "note": 42,
      "start": 120.1197,
      "duration": 0.0693,
      "velocity": 106,
      "chip": "ym2612"
    },
    {
      "channel": 4,
      "note": 55,
      "start": 120.1228,
      "duration": 0.1163,
      "velocity": 120,
      "chip": "ym2612"
    },
    {
      "channel": 3,
      "note": 42,
      "start": 120.1929,
      "duration": 0.1478,
      "velocity": 106,
      "chip": "ym2612"
    },
    {
      "channel": 2,
      "note": 52,
      "start": 120.2613,
      "duration": 0.1281,
      "velocity": 98,
      "chip": "ym2612"
    },
    {
      "channel": 1,
      "note": 76,
      "start": 120.2648,
      "duration": 0.1593,
      "velocity": 88,
      "chip": "ym2612"
    },
    {
      "channel": 5,
      "note": 71,
      "start": 120.2678,
      "duration": 0.1566,
      "velocity": 88,
      "chip": "ym2612"
    },
    {
      "channel": 4,
      "note": 32,
      "start": 120.271,
      "duration": 0.1532,
      "velocity": 106,
      "chip": "ym2612"
    },
    {
      "channel": 2,
      "note": 52,
      "start": 120.4282,
      "duration": 0.0795,
      "velocity": 98,
      "chip": "ym2612"
    },
    {
      "channel": 3,
      "note": 42,
      "start": 120.4315,
      "duration": 0.1595,
      "velocity": 106,
      "chip": "ym2612"
    },
    {
      "channel": 1,
      "note": 55,
      "start": 120.4346,
      "duration": 0.1216,
      "velocity": 120,
      "chip": "ym2612"
    },
    {
      "channel": 2,
      "note": 57,
      "start": 120.595,
      "duration": 0.0948,
      "velocity": 98,
      "chip": "ym2612"
    },
    {
      "channel": 5,
      "note": 76,
      "start": 120.5986,
      "duration": 0.0578,
      "velocity": 88,
      "chip": "ym2612"
    },
    {
      "channel": 4,
      "note": 81,
      "start": 120.6017,
      "duration": 0.0546,
      "velocity": 88,
      "chip": "ym2612"
    },
    {
      "channel": 3,
      "note": 42,
      "start": 120.6047,
      "duration": 0.1351,
      "velocity": 106,
      "chip": "ym2612"
    },
    {
      "channel": 2,
      "note": 69,
      "start": 120.7436,
      "duration": 0.1131,
      "velocity": 98,
      "chip": "ym2612"
    },
    {
      "channel": 3,
      "note": 42,
      "start": 120.7468,
      "duration": 0.1598,
      "velocity": 106,
      "chip": "ym2612"
    },
    {
      "channel": 1,
      "note": 55,
      "start": 120.7497,
      "duration": 0.1235,
      "velocity": 120,
      "chip": "ym2612"
    },
    {
      "channel": 2,
      "note": 59,
      "start": 120.9106,
      "duration": 0.1465,
      "velocity": 98,
      "chip": "ym2612"
    },
    {
      "channel": 4,
      "note": 81,
      "start": 120.9139,
      "duration": 0.0762,
      "velocity": 88,
      "chip": "ym2612"
    },
    {
      "channel": 5,
      "note": 76,
      "start": 120.9175,
      "duration": 0.0908,
      "velocity": 88,
      "chip": "ym2612"
    },
    {
      "channel": 3,
      "note": 32,
      "start": 120.9209,
      "duration": 0.1359,
      "velocity": 106,
      "chip": "ym2612"
    },
    {
      "channel": 2,
      "note": 71,
      "start": 121.0608,
      "duration": 0.0796,
      "velocity": 98,
      "chip": "ym2612"
    },
    {
      "channel": 3,
      "note": 42,
      "start": 121.0641,
      "duration": 0.1596,
      "velocity": 106,
      "chip": "ym2612"
    },
    {
      "channel": 1,
      "note": 55,
      "start": 121.067,
      "duration": 0.1232,
      "velocity": 120,
      "chip": "ym2612"
    },
    {
      "channel": 2,
      "note": 60,
      "start": 121.2277,
      "duration": 0.1297,
      "velocity": 98,
      "chip": "ym2612"
    },
    {
      "channel": 4,
      "note": 79,
      "start": 121.2312,
      "duration": 0.076,
      "velocity": 88,
      "chip": "ym2612"
    },
    {
      "channel": 5,
      "note": 74,
      "start": 121.2344,
      "duration": 0.0895,
      "velocity": 88,
      "chip": "ym2612"
    },
    {
      "channel": 3,
      "note": 32,
      "start": 121.2374,
      "duration": 0.1532,
      "velocity": 106,
      "chip": "ym2612"
    },
    {
      "channel": 2,
      "note": 72,
      "start": 121.3944,
      "duration": 0.13,
      "velocity": 98,
      "chip": "ym2612"
    },
    {
      "channel": 4,
      "note": 76,
      "start": 121.3979,
      "duration": 0.0427,
      "velocity": 88,
      "chip": "ym2612"
    },
    {
      "channel": 5,
      "note": 81,
      "start": 121.401,
      "duration": 0.0398,
      "velocity": 88,
      "chip": "ym2612"
    },
    {
      "channel": 3,
      "note": 32,
      "start": 121.4039,
      "duration": 0.137,
      "velocity": 106,
      "chip": "ym2612"
    },
    {
      "channel": 1,
      "note": 55,
      "start": 121.4068,
      "duration": 0.1172,
      "velocity": 120,
      "chip": "ym2612"
    },
    {
      "channel": 2,
      "note": 62,
      "start": 121.5447,
      "duration": 0.1314,
      "velocity": 98,
      "chip": "ym2612"
    },
    {
      "channel": 4,
      "note": 84,
      "start": 121.5486,
      "duration": 0.1272,
      "velocity": 88,
      "chip": "ym2612"
    },
    {
      "channel": 5,
      "note": 79,
      "start": 121.5517,
      "duration": 0.1243,
      "velocity": 88,
      "chip": "ym2612"
    },
    {
      "channel": 3,
      "note": 42,
      "start": 121.5546,
      "duration": 0.1531,
      "velocity": 106,
      "chip": "ym2612"
    },
    {
      "channel": 2,
      "note": 74,
      "start": 121.7116,
      "duration": 0.0963,
      "velocity": 98,
      "chip": "ym2612"
    },
    {
      "channel": 3,
      "note": 32,
      "start": 121.7149,
      "duration": 0.1429,
      "velocity": 106,
      "chip": "ym2612"
    },
    {
      "channel": 1,
      "note": 55,
      "start": 121.7178,
      "duration": 0.1248,
      "velocity": 120,
      "chip": "ym2612"
    },
    {
      "channel": 2,
      "note": 75,
      "start": 121.8621,
      "duration": 0.1294,
      "velocity": 98,
      "chip": "ym2612"
    },
    {
      "channel": 4,
      "note": 79,
      "start": 121.8656,
      "duration": 0.0757,
      "velocity": 88,
      "chip": "ym2612"
    },
    {
      "channel": 5,
      "note": 84,
      "start": 121.8687,
      "duration": 0.0728,
      "velocity": 88,
      "chip": "ym2612"
    },
    {
      "channel": 3,
      "note": 42,
      "start": 121.8716,
      "duration": 0.153,
      "velocity": 106,
      "chip": "ym2612"
    },
    {
      "channel": 2,
      "note": 63,
      "start": 122.0286,
      "duration": 0.0964,
      "velocity": 98,
      "chip": "ym2612"
    },
    {
      "channel": 4,
      "note": 81,
      "start": 122.032,
      "duration": 0.0763,
      "velocity": 88,
      "chip": "ym2612"
    },
    {
      "channel": 5,
      "note": 76,
      "start": 122.0351,
      "duration": 0.0734,
      "velocity": 88,
      "chip": "ym2612"
    },
    {
      "channel": 3,
      "note": 42,
      "start": 122.0383,
      "duration": 0.0698,
      "velocity": 106,
      "chip": "ym2612"
    },
    {
      "channel": 1,
      "note": 55,
      "start": 122.0412,
      "duration": 0.117,
      "velocity": 120,
      "chip": "ym2612"
    },
    {
      "channel": 3,
      "note": 42,
      "start": 122.1123,
      "duration": 0.1475,
      "velocity": 106,
      "chip": "ym2612"
    },
    {
      "channel": 2,
      "note": 62,
      "start": 122.1954,
      "duration": 0.1299,
      "velocity": 98,
      "chip": "ym2612"
    },
    {
      "channel": 4,
      "note": 79,
      "start": 122.1989,
      "duration": 0.1445,
      "velocity": 88,
      "chip": "ym2612"
    },
    {
      "channel": 5,
      "note": 83,
      "start": 122.2024,
      "duration": 0.1412,
      "velocity": 88,
      "chip": "ym2612"
    },
    {
      "channel": 1,
      "note": 32,
      "start": 122.2056,
      "duration": 0.1376,
      "velocity": 106,
      "chip": "ym2612"
    },
    {
      "channel": 2,
      "note": 74,
      "start": 122.3474,
      "duration": 0.1114,
      "velocity": 98,
      "chip": "ym2612"
    },
    {
      "channel": 1,
      "note": 42,
      "start": 122.3506,
      "duration": 0.1595,
      "velocity": 106,
      "chip": "ym2612"
    },
    {
      "channel": 3,
      "note": 55,
      "start": 122.3537,
      "duration": 0.1216,
      "velocity": 120,
      "chip": "ym2612"
    },
    {
      "channel": 2,
      "note": 72,
      "start": 122.514,
      "duration": 0.095,
      "velocity": 98,
      "chip": "ym2612"
    },
    {
      "channel": 4,
      "note": 84,
      "start": 122.5174,
      "duration": 0.1416,
      "velocity": 88,
      "chip": "ym2612"
    },
    {
      "channel": 5,
      "note": 79,
      "start": 122.5206,
      "duration": 0.1718,
      "velocity": 88,
      "chip": "ym2612"
    },
    {
      "channel": 1,
      "note": 32,
      "start": 122.5235,
      "duration": 0.1353,
      "velocity": 106,
      "chip": "ym2612"
    },
    {
      "channel": 2,
      "note": 60,
      "start": 122.6627,
      "duration": 0.1131,
      "velocity": 98,
      "chip": "ym2612"
    },
    {
      "channel": 1,
      "note": 32,
      "start": 122.6663,
      "duration": 0.1594,
      "velocity": 106,
      "chip": "ym2612"
    },
    {
      "channel": 3,
      "note": 55,
      "start": 122.6696,
      "duration": 0.1228,
      "velocity": 120,
      "chip": "ym2612"
    },
    {
      "channel": 2,
      "note": 59,
      "start": 122.8296,
      "duration": 0.0979,
      "velocity": 98,
      "chip": "ym2612"
    },
    {
      "channel": 4,
      "note": 83,
      "start": 122.833,
      "duration": 0.1779,
      "velocity": 88,
      "chip": "ym2612"
    },
    {
      "channel": 5,
      "note": 79,
      "start": 122.836,
      "duration": 0.175,
      "velocity": 88,
      "chip": "ym2612"
    },
    {
      "channel": 1,
      "note": 42,
      "start": 122.8389,
      "duration": 0.1537,
      "velocity": 106,
      "chip": "ym2612"
    },
    {
      "channel": 2,
      "note": 71,
      "start": 122.9966,
      "duration": 0.0978,
      "velocity": 98,
      "chip": "ym2612"
    },
    {
      "channel": 1,
      "note": 42,
      "start": 123.0002,
      "duration": 0.0592,
      "velocity": 106,
      "chip": "ym2612"
    },
    {
      "channel": 3,
      "note": 55,
      "start": 123.0034,
      "duration": 0.1227,
      "velocity": 120,
      "chip": "ym2612"
    },
    {
      "channel": 1,
      "note": 42,
      "start": 123.0635,
      "duration": 0.0793,
      "velocity": 106,
      "chip": "ym2612"
    },
    {
      "channel": 4,
      "note": 69,
      "start": 123.1479,
      "duration": 0.0783,
      "velocity": 104,
      "chip": "ym2612"
    },
    {
      "channel": 5,
      "note": 76,
      "start": 123.1514,
      "duration": 0.0417,
      "velocity": 104,
      "chip": "ym2612"
    },
    {
      "channel": 2,
      "note": 39,
      "start": 123.1545,
      "duration": 0.1219,
      "velocity": 116,
      "chip": "ym2612"
    },
    {
      "channel": 3,
      "note": 37,
      "start": 123.158,
      "duration": 0.2351,
      "velocity": 124,
      "chip": "ym2612"
    },
    {
      "channel": 1,
      "note": 64,
      "start": 123.3139,
      "duration": 0.1292,
      "velocity": 98,
      "chip": "ym2612"
    },
    {
      "channel": 5,
      "note": 85,
      "start": 123.3178,
      "duration": 0.1255,
      "velocity": 127,
      "chip": "ym2612"
    },
    {
      "channel": 1,
      "note": 54,
      "start": 123.4638,
      "duration": 0.131,
      "velocity": 98,
      "chip": "ym2612"
    },
    {
      "channel": 4,
      "note": 69,
      "start": 123.4676,
      "duration": 0.0759,
      "velocity": 104,
      "chip": "ym2612"
    },
    {
      "channel": 2,
      "note": 76,
      "start": 123.4709,
      "duration": 0.0727,
      "velocity": 104,
      "chip": "ym2612"
    },
    {
      "channel": 3,
      "note": 37,
      "start": 123.4748,
      "duration": 0.2354,
      "velocity": 124,
      "chip": "ym2612"
    },
    {
      "channel": 1,
      "note": 66,
      "start": 123.6304,
      "duration": 0.0965,
      "velocity": 98,
      "chip": "ym2612"
    },
    {
      "channel": 5,
      "note": 85,
      "start": 123.6341,
      "duration": 0.1278,
      "velocity": 127,
      "chip": "ym2612"
    },
    {
      "channel": 1,
      "note": 55,
      "start": 123.7973,
      "duration": 0.1313,
      "velocity": 98,
      "chip": "ym2612"
    },
    {
      "channel": 2,
      "note": 39,
      "start": 123.8007,
      "duration": 0.1281,
      "velocity": 116,
      "chip": "ym2612"
    },
    {
      "channel": 3,
      "note": 37,
      "start": 123.8039,
      "duration": 0.2234,
      "velocity": 124,
      "chip": "ym2612"
    },
    {
      "channel": 1,
      "note": 67,
      "start": 123.9475,
      "duration": 0.1131,
      "velocity": 98,
      "chip": "ym2612"
    },
    {
      "channel": 5,
      "note": 85,
      "start": 123.9512,
      "duration": 0.1263,
      "velocity": 127,
      "chip": "ym2612"
    },
    {
      "channel": 1,
      "note": 54,
      "start": 124.1142,
      "duration": 0.0966,
      "velocity": 98,
      "chip": "ym2612"
    },
    {
      "channel": 2,
      "note": 39,
      "start": 124.1177,
      "duration": 0.1266,
      "velocity": 116,
      "chip": "ym2612"
    },
    {
      "channel": 3,
      "note": 37,
      "start": 124.1209,
      "duration": 0.2249,
      "velocity": 124,
      "chip": "ym2612"
    },
    {
      "channel": 1,
      "note": 66,
      "start": 124.2659,
      "duration": 0.1118,
      "velocity": 98,
      "chip": "ym2612"
    },
    {
      "channel": 5,
      "note": 85,
      "start": 124.2698,
      "duration": 0.1248,
      "velocity": 127,
      "chip": "ym2612"
    },
    {
      "channel": 1,
      "note": 52,
      "start": 124.4329,
      "duration": 0.1283,
      "velocity": 98,
      "chip": "ym2612"
    },
    {
      "channel": 4,
      "note": 69,
      "start": 124.4365,
      "duration": 0.0764,
      "velocity": 104,
      "chip": "ym2612"
    },
    {
      "channel": 2,
      "note": 76,
      "start": 124.4399,
      "duration": 0.0731,
      "velocity": 104,
      "chip": "ym2612"
    },
    {
      "channel": 3,
      "note": 37,
      "start": 124.444,
      "duration": 0.2175,
      "velocity": 124,
      "chip": "ym2612"
    },
    {
      "channel": 1,
      "note": 64,
      "start": 124.5998,
      "duration": 0.0949,
      "velocity": 98,
      "chip": "ym2612"
    },
    {
      "channel": 2,
      "note": 39,
      "start": 124.6038,
      "duration": 0.1246,
      "velocity": 116,
      "chip": "ym2612"
    },
    {
      "channel": 1,
      "note": 54,
      "start": 124.7484,
      "duration": 0.13,
      "velocity": 98,
      "chip": "ym2612"
    },
    {
      "channel": 4,
      "note": 76,
      "start": 124.7524,
      "duration": 0.0761,
      "velocity": 104,
      "chip": "ym2612"
    },
    {
      "channel": 5,
      "note": 69,
      "start": 124.7558,
      "duration": 0.0728,
      "velocity": 104,
      "chip": "ym2612"
    },
    {
      "channel": 3,
      "note": 85,
      "start": 124.7594,
      "duration": 0.1192,
      "velocity": 127,
      "chip": "ym2612"
    },
    {
      "channel": 2,
      "note": 37,
      "start": 124.7641,
      "duration": 0.1526,
      "velocity": 124,
      "chip": "ym2612"
    },
    {
      "channel": 1,
      "note": 66,
      "start": 124.9158,
      "duration": 0.0794,
      "velocity": 98,
      "chip": "ym2612"
    },
    {
      "channel": 2,
      "note": 39,
      "start": 124.9193,
      "duration": 0.1261,
      "velocity": 116,
      "chip": "ym2612"
    },
    {
      "channel": 1,
      "note": 55,
      "start": 125.0656,
      "duration": 0.1298,
      "velocity": 98,
      "chip": "ym2612"
    },
    {
      "channel": 3,
      "note": 85,
      "start": 125.0692,
      "duration": 0.1263,
      "velocity": 127,
      "chip": "ym2612"
    },
    {
      "channel": 4,
      "note": 37,
      "start": 125.0724,
      "duration": 0.24,
      "velocity": 124,
      "chip": "ym2612"
    },
    {
      "channel": 1,
      "note": 67,
      "start": 125.2325,
      "duration": 0.0965,
      "velocity": 98,
      "chip": "ym2612"
    },
    {
      "channel": 2,
      "note": 39,
      "start": 125.236,
      "duration": 0.1265,
      "velocity": 116,
      "chip": "ym2612"
    },
    {
      "channel": 1,
      "note": 54,
      "start": 125.3993,
      "duration": 0.0966,
      "velocity": 98,
      "chip": "ym2612"
    },
    {
      "channel": 3,
      "note": 85,
      "start": 125.4034,
      "duration": 0.1259,
      "velocity": 127,
      "chip": "ym2612"
    },
    {
      "channel": 4,
      "note": 37,
      "start": 125.4065,
      "duration": 0.2229,
      "velocity": 124,
      "chip": "ym2612"
    },
    {
      "channel": 1,
      "note": 66,
      "start": 125.5495,
      "duration": 0.1132,
      "velocity": 98,
      "chip": "ym2612"
    },
    {
      "channel": 2,
      "note": 39,
      "start": 125.5531,
      "duration": 0.1279,
      "velocity": 116,
      "chip": "ym2612"
    },
    {
      "channel": 5,
      "note": 76,
      "start": 125.7169,
      "duration": 0.0795,
      "velocity": 104,
      "chip": "ym2612"
    },
    {
      "channel": 3,
      "note": 69,
      "start": 125.7203,
      "duration": 0.076,
      "velocity": 104,
      "chip": "ym2612"
    },
    {
      "channel": 2,
      "note": 39,
      "start": 125.7236,
      "duration": 0.1243,
      "velocity": 116,
      "chip": "ym2612"
    },
    {
      "channel": 4,
      "note": 37,
      "start": 125.7268,
      "duration": 0.2196,
      "velocity": 124,
      "chip": "ym2612"
    },
    {
      "channel": 1,
      "note": 64,
      "start": 125.8667,
      "duration": 0.1132,
      "velocity": 98,
      "chip": "ym2612"
    },
    {
      "channel": 3,
      "note": 85,
      "start": 125.8706,
      "duration": 0.1259,
      "velocity": 127,
      "chip": "ym2612"
    },
    {
      "channel": 1,
      "note": 54,
      "start": 126.0333,
      "duration": 0.0966,
      "velocity": 98,
      "chip": "ym2612"
    },
    {
      "channel": 5,
      "note": 76,
      "start": 126.037,
      "duration": 0.0764,
      "velocity": 104,
      "chip": "ym2612"
    },
    {
      "channel": 2,
      "note": 69,
      "start": 126.0404,
      "duration": 0.0732,
      "velocity": 104,
      "chip": "ym2612"
    },
    {
      "channel": 4,
      "note": 37,
      "start": 126.0443,
      "duration": 0.2208,
      "velocity": 124,
      "chip": "ym2612"
    },
    {
      "channel": 1,
      "note": 66,
      "start": 126.2003,
      "duration": 0.0967,
      "velocity": 98,
      "chip": "ym2612"
    },
    {
      "channel": 3,
      "note": 85,
      "start": 126.2039,
      "duration": 0.1264,
      "velocity": 127,
      "chip": "ym2612"
    },
    {
      "channel": 1,
      "note": 55,
      "start": 126.3561,
      "duration": 0.1075,
      "velocity": 98,
      "chip": "ym2612"
    },
    {
      "channel": 2,
      "note": 39,
      "start": 126.3596,
      "duration": 0.121,
      "velocity": 116,
      "chip": "ym2612"
    },
    {
      "channel": 4,
      "note": 37,
      "start": 126.3629,
      "duration": 0.2359,
      "velocity": 124,
      "chip": "ym2612"
    },
    {
      "channel": 1,
      "note": 67,
      "start": 126.5188,
      "duration": 0.0951,
      "velocity": 98,
      "chip": "ym2612"
    },
    {
      "channel": 3,
      "note": 85,
      "start": 126.5224,
      "duration": 0.125,
      "velocity": 127,
      "chip": "ym2612"
    },
    {
      "channel": 1,
      "note": 57,
      "start": 126.6676,
      "duration": 0.13,
      "velocity": 98,
      "chip": "ym2612"
    },
    {
      "channel": 2,
      "note": 39,
      "start": 126.6711,
      "duration": 0.1268,
      "velocity": 116,
      "chip": "ym2612"
    },
    {
      "channel": 4,
      "note": 37,
      "start": 126.6743,
      "duration": 0.2401,
      "velocity": 124,
      "chip": "ym2612"
    },
    {
      "channel": 1,
      "note": 69,
      "start": 126.8349,
      "duration": 0.0976,
      "velocity": 98,
      "chip": "ym2612"
    },
    {
      "channel": 5,
      "note": 72,
      "start": 126.8387,
      "duration": 0.1593,
      "velocity": 104,
      "chip": "ym2612"
    },
    {
      "channel": 3,
      "note": 79,
      "start": 126.8426,
      "duration": 0.1218,
      "velocity": 104,
      "chip": "ym2612"
    },
    {
      "channel": 2,
      "note": 85,
      "start": 126.8462,
      "duration": 0.1185,
      "velocity": 127,
      "chip": "ym2612"
    },
    {
      "channel": 1,
      "note": 58,
      "start": 127.0015,
      "duration": 0.1297,
      "velocity": 98,
      "chip": "ym2612"
    },
    {
      "channel": 3,
      "note": 75,
      "start": 127.0052,
      "duration": 0.0594,
      "velocity": 104,
      "chip": "ym2612"
    },
    {
      "channel": 5,
      "note": 82,
      "start": 127.0086,
      "duration": 0.0909,
      "velocity": 104,
      "chip": "ym2612"
    },
    {
      "channel": 2,
      "note": 39,
      "start": 127.0119,
      "duration": 0.1195,
      "velocity": 116,
      "chip": "ym2612"
    },
    {
      "channel": 4,
      "note": 37,
      "start": 127.0171,
      "duration": 0.2144,
      "velocity": 124,
      "chip": "ym2612"
    },
    {
      "channel": 1,
      "note": 70,
      "start": 127.1517,
      "duration": 0.1146,
      "velocity": 98,
      "chip": "ym2612"
    },
    {
      "channel": 2,
      "note": 39,
      "start": 127.1553,
      "duration": 0.1269,
      "velocity": 116,
      "chip": "ym2612"
    },
    {
      "channel": 1,
      "note": 57,
      "start": 127.3183,
      "duration": 0.0966,
      "velocity": 98,
      "chip": "ym2612"
    },
    {
      "channel": 3,
      "note": 75,
      "start": 127.322,
      "duration": 0.0763,
      "velocity": 104,
      "chip": "ym2612"
    },
    {
      "channel": 5,
      "note": 82,
      "start": 127.3253,
      "duration": 0.0732,
      "velocity": 104,
      "chip": "ym2612"
    },
    {
      "channel": 4,
      "note": 85,
      "start": 127.3288,
      "duration": 0.1195,
      "velocity": 127,
      "chip": "ym2612"
    },
    {
      "channel": 2,
      "note": 37,
      "start": 127.3323,
      "duration": 0.1373,
      "velocity": 124,
      "chip": "ym2612"
    },
    {
      "channel": 1,
      "note": 69,
      "start": 127.4685,
      "duration": 0.1132,
      "velocity": 98,
      "chip": "ym2612"
    },
    {
      "channel": 2,
      "note": 39,
      "start": 127.4721,
      "duration": 0.1281,
      "velocity": 116,
      "chip": "ym2612"
    },
    {
      "channel": 1,
      "note": 55,
      "start": 127.6356,
      "duration": 0.1313,
      "velocity": 98,
      "chip": "ym2612"
    },
    {
      "channel": 4,
      "note": 85,
      "start": 127.6392,
      "duration": 0.1278,
      "velocity": 127,
      "chip": "ym2612"
    },
    {
      "channel": 3,
      "note": 37,
      "start": 127.6424,
      "duration": 0.2231,
      "velocity": 124,
      "chip": "ym2612"
    },
    {
      "channel": 1,
      "note": 67,
      "start": 127.8024,
      "duration": 0.0965,
      "velocity": 98,
      "chip": "ym2612"
    },
    {
      "channel": 2,
      "note": 39,
      "start": 127.8059,
      "duration": 0.1283,
      "velocity": 116,
      "chip": "ym2612"
    },
    {
      "channel": 1,
      "note": 58,
      "start": 127.9526,
      "duration": 0.1307,
      "velocity": 98,
      "chip": "ym2612"
    },
    {
      "channel": 4,
      "note": 85,
      "start": 127.9566,
      "duration": 0.127,
      "velocity": 127,
      "chip": "ym2612"
    },
    {
      "channel": 3,
      "note": 37,
      "start": 127.9596,
      "duration": 0.2397,
      "velocity": 124,
      "chip": "ym2612"
    },
    {
      "channel": 1,
      "note": 70,
      "start": 128.12,
      "duration": 0.096,
      "velocity": 98,
      "chip": "ym2612"
    },
    {
      "channel": 5,
      "note": 74,
      "start": 128.1238,
      "duration": 0.1257,
      "velocity": 104,
      "chip": "ym2612"
    },
    {
      "channel": 2,
      "note": 79,
      "start": 128.1276,
      "duration": 0.1221,
      "velocity": 104,
      "chip": "ym2612"
    },
    {
      "channel": 5,
      "note": 69,
      "start": 128.2718,
      "duration": 0.0794,
      "velocity": 104,
      "chip": "ym2612"
    },
    {
      "channel": 2,
      "note": 76,
      "start": 128.2752,
      "duration": 0.0761,
      "velocity": 104,
      "chip": "ym2612"
    },
    {
      "channel": 3,
      "note": 37,
      "start": 128.2792,
      "duration": 0.2386,
      "velocity": 124,
      "chip": "ym2612"
    },
    {
      "channel": 1,
      "note": 64,
      "start": 128.4381,
      "duration": 0.095,
      "velocity": 98,
      "chip": "ym2612"
    },
    {
      "channel": 4,
      "note": 55,
      "start": 128.4418,
      "duration": 0.1247,
      "velocity": 120,
      "chip": "ym2612"
    },
    {
      "channel": 1,
      "note": 54,
      "start": 128.6049,
      "duration": 0.1284,
      "velocity": 98,
      "chip": "ym2612"
    },
    {
      "channel": 5,
      "note": 69,
      "start": 128.6086,
      "duration": 0.0581,
      "velocity": 104,
      "chip": "ym2612"
    },
    {
      "channel": 2,
      "note": 76,
      "start": 128.612,
      "duration": 0.0549,
      "velocity": 104,
      "chip": "ym2612"
    },
    {
      "channel": 3,
      "note": 37,
      "start": 128.6159,
      "duration": 0.2177,
      "velocity": 124,
      "chip": "ym2612"
    },
    {
      "channel": 1,
      "note": 66,
      "start": 128.7537,
      "duration": 0.1131,
      "velocity": 98,
      "chip": "ym2612"
    },
    {
      "channel": 4,
      "note": 55,
      "start": 128.7571,
      "duration": 0.1265,
      "velocity": 120,
      "chip": "ym2612"
    },
    {
      "channel": 1,
      "note": 55,
      "start": 128.9204,
      "duration": 0.0982,
      "velocity": 98,
      "chip": "ym2612"
    },
    {
      "channel": 2,
      "note": 39,
      "start": 128.9239,
      "duration": 0.1267,
      "velocity": 116,
      "chip": "ym2612"
    },
    {
      "channel": 3,
      "note": 37,
      "start": 128.927,
      "duration": 0.2236,
      "velocity": 124,
      "chip": "ym2612"
    },
    {
      "channel": 1,
      "note": 67,
      "start": 129.0707,
      "duration": 0.1299,
      "velocity": 98,
      "chip": "ym2612"
    },
    {
      "channel": 4,
      "note": 55,
      "start": 129.0741,
      "duration": 0.1267,
      "velocity": 120,
      "chip": "ym2612"
    },
    {
      "channel": 1,
      "note": 54,
      "start": 129.2376,
      "duration": 0.0966,
      "velocity": 98,
      "chip": "ym2612"
    },
    {
      "channel": 2,
      "note": 39,
      "start": 129.241,
      "duration": 0.1265,
      "velocity": 116,
      "chip": "ym2612"
    },
    {
      "channel": 3,
      "note": 37,
      "start": 129.2442,
      "duration": 0.2235,
      "velocity": 124,
      "chip": "ym2612"
    },
    {
      "channel": 1,
      "note": 66,
      "start": 129.4046,
      "duration": 0.0964,
      "velocity": 98,
      "chip": "ym2612"
    },
    {
      "channel": 5,
      "note": 79,
      "start": 129.4083,
      "duration": 0.1429,
      "velocity": 104,
      "chip": "ym2612"
    },
    {
      "channel": 4,
      "note": 72,
      "start": 129.4117,
      "duration": 0.1395,
      "velocity": 104,
      "chip": "ym2612"
    },
    {
      "channel": 2,
      "note": 55,
      "start": 129.4152,
      "duration": 0.1193,
      "velocity": 120,
      "chip": "ym2612"
    },
    {
      "channel": 4,
      "note": 69,
      "start": 129.5559,
      "duration": 0.0469,
      "velocity": 104,
      "chip": "ym2612"
    },
    {
      "channel": 5,
      "note": 76,
      "start": 129.5593,
      "duration": 0.0753,
      "velocity": 104,
      "chip": "ym2612"
    },
    {
      "channel": 2,
      "note": 39,
      "start": 129.5626,
      "duration": 0.1236,
      "velocity": 116,
      "chip": "ym2612"
    },
    {
      "channel": 3,
      "note": 37,
      "start": 129.5658,
      "duration": 0.2357,
      "velocity": 124,
      "chip": "ym2612"
    },
    {
      "channel": 1,
      "note": 64,
      "start": 129.7216,
      "duration": 0.0964,
      "velocity": 98,
      "chip": "ym2612"
    },
    {
      "channel": 2,
      "note": 39,
      "start": 129.7252,
      "duration": 0.1274,
      "velocity": 116,
      "chip": "ym2612"
    },
    {
      "channel": 1,
      "note": 54,
      "start": 129.8729,
      "duration": 0.1287,
      "velocity": 98,
      "chip": "ym2612"
    },
    {
      "channel": 4,
      "note": 76,
      "start": 129.8764,
      "duration": 0.0752,
      "velocity": 104,
      "chip": "ym2612"
    },
    {
      "channel": 5,
      "note": 69,
      "start": 129.8797,
      "duration": 0.0721,
      "velocity": 104,
      "chip": "ym2612"
    },
    {
      "channel": 3,
      "note": 85,
      "start": 129.8833,
      "duration": 0.1184,
      "velocity": 127,
      "chip": "ym2612"
    },
    {
      "channel": 2,
      "note": 37,
      "start": 129.8866,
      "duration": 0.153,
      "velocity": 124,
      "chip": "ym2612"
    },
    {
      "channel": 1,
      "note": 66,
      "start": 130.0386,
      "duration": 0.0966,
      "velocity": 98,
      "chip": "ym2612"
    },
    {
      "channel": 2,
      "note": 39,
      "start": 130.0421,
      "duration": 0.1266,
      "velocity": 116,
      "chip": "ym2612"
    },
    {
      "channel": 1,
      "note": 50,
      "start": 130.2056,
      "duration": 0.1297,
      "velocity": 98,
      "chip": "ym2612"
    },
    {
      "channel": 3,
      "note": 85,
      "start": 130.2092,
      "duration": 0.1263,
      "velocity": 127,
      "chip": "ym2612"
    },
    {
      "channel": 4,
      "note": 37,
      "start": 130.2124,
      "duration": 0.2247,
      "velocity": 124,
      "chip": "ym2612"
    },
    {
      "channel": 1,
      "note": 62,
      "start": 130.3571,
      "duration": 0.1285,
      "velocity": 98,
      "chip": "ym2612"
    },
    {
      "channel": 2,
      "note": 39,
      "start": 130.3606,
      "duration": 0.1253,
      "velocity": 116,
      "chip": "ym2612"
    },
    {
      "channel": 1,
      "note": 55,
      "start": 130.5241,
      "duration": 0.095,
      "velocity": 98,
      "chip": "ym2612"
    },
    {
      "channel": 3,
      "note": 85,
      "start": 130.5282,
      "duration": 0.1243,
      "velocity": 127,
      "chip": "ym2612"
    },
    {
      "channel": 4,
      "note": 37,
      "start": 130.5313,
      "duration": 0.2214,
      "velocity": 124,
      "chip": "ym2612"
    },
    {
      "channel": 1,
      "note": 67,
      "start": 130.6728,
      "duration": 0.1298,
      "velocity": 98,
      "chip": "ym2612"
    },
    {
      "channel": 5,
      "note": 79,
      "start": 130.6766,
      "duration": 0.1094,
      "velocity": 104,
      "chip": "ym2612"
    },
    {
      "channel": 2,
      "note": 72,
      "start": 130.6802,
      "duration": 0.156,
      "velocity": 104,
      "chip": "ym2612"
    },
    {
      "channel": 1,
      "note": 66,
      "start": 130.8397,
      "duration": 0.0978,
      "velocity": 98,
      "chip": "ym2612"
    },
    {
      "channel": 5,
      "note": 69,
      "start": 130.8439,
      "duration": 0.0756,
      "velocity": 104,
      "chip": "ym2612"
    },
    {
      "channel": 2,
      "note": 76,
      "start": 130.8473,
      "duration": 0.0724,
      "velocity": 104,
      "chip": "ym2612"
    },
    {
      "channel": 4,
      "note": 37,
      "start": 130.8517,
      "duration": 0.218,
      "velocity": 124,
      "chip": "ym2612"
    },
    {
      "channel": 1,
      "note": 64,
      "start": 131.0066,
      "duration": 0.1299,
      "velocity": 98,
      "chip": "ym2612"
    },
    {
      "channel": 3,
      "note": 85,
      "start": 131.0103,
      "duration": 0.1262,
      "velocity": 127,
      "chip": "ym2612"
    },
    {
      "channel": 1,
      "note": 54,
      "start": 131.1566,
      "duration": 0.1299,
      "velocity": 98,
      "chip": "ym2612"
    },
    {
      "channel": 5,
      "note": 69,
      "start": 131.1602,
      "duration": 0.0764,
      "velocity": 104,
      "chip": "ym2612"
    },
    {
      "channel": 2,
      "note": 76,
      "start": 131.1636,
      "duration": 0.0732,
      "velocity": 104,
      "chip": "ym2612"
    },
    {
      "channel": 4,
      "note": 37,
      "start": 131.1675,
      "duration": 0.2361,
      "velocity": 124,
      "chip": "ym2612"
    },
    {
      "channel": 1,
      "note": 66,
      "start": 131.3241,
      "duration": 0.0793,
      "velocity": 98,
      "chip": "ym2612"
    },
    {
      "channel": 3,
      "note": 85,
      "start": 131.3277,
      "duration": 0.1258,
      "velocity": 127,
      "chip": "ym2612"
    },
    {
      "channel": 1,
      "note": 55,
      "start": 131.4738,
      "duration": 0.1132,
      "velocity": 98,
      "chip": "ym2612"
    },
    {
      "channel": 2,
      "note": 39,
      "start": 131.4773,
      "duration": 0.128,
      "velocity": 116,
      "chip": "ym2612"
    },
    {
      "channel": 4,
      "note": 37,
      "start": 131.4805,
      "duration": 0.2401,
      "velocity": 124,
      "chip": "ym2612"
    },
    {
      "channel": 1,
      "note": 67,
      "start": 131.6405,
      "duration": 0.0966,
      "velocity": 98,
      "chip": "ym2612"
    },
    {
      "channel": 3,
      "note": 85,
      "start": 131.6441,
      "duration": 0.128,
      "velocity": 127,
      "chip": "ym2612"
    },
    {
      "channel": 1,
      "note": 57,
      "start": 131.8076,
      "duration": 0.1313,
      "velocity": 98,
      "chip": "ym2612"
    },
    {
      "channel": 5,
      "note": 72,
      "start": 131.8114,
      "duration": 0.1277,
      "velocity": 104,
      "chip": "ym2612"
    },
    {
      "channel": 2,
      "note": 79,
      "start": 131.815,
      "duration": 0.1394,
      "velocity": 104,
      "chip": "ym2612"
    },
    {
      "channel": 4,
      "note": 37,
      "start": 131.8188,
      "duration": 0.2188,
      "velocity": 124,
      "chip": "ym2612"
    },
    {
      "channel": 1,
      "note": 69,
      "start": 131.9579,
      "duration": 0.0796,
      "velocity": 98,
      "chip": "ym2612"
    },
    {
      "channel": 5,
      "note": 74,
      "start": 131.9615,
      "duration": 0.1597,
      "velocity": 104,
      "chip": "ym2612"
    },
    {
      "channel": 2,
      "note": 81,
      "start": 131.9653,
      "duration": 0.156,
      "velocity": 104,
      "chip": "ym2612"
    },
    {
      "channel": 3,
      "note": 85,
      "start": 131.9687,
      "duration": 0.119,
      "velocity": 127,
      "chip": "ym2612"
    },
    {
      "channel": 1,
      "note": 70,
      "start": 132.1249,
      "duration": 0.0962,
      "velocity": 98,
      "chip": "ym2612"
    },
    {
      "channel": 5,
      "note": 75,
      "start": 132.1287,
      "duration": 0.0927,
      "velocity": 104,
      "chip": "ym2612"
    },
    {
      "channel": 2,
      "note": 82,
      "start": 132.1322,
      "duration": 0.0725,
      "velocity": 104,
      "chip": "ym2612"
    },
    {
      "channel": 4,
      "note": 37,
      "start": 132.1366,
      "duration": 0.2196,
      "velocity": 124,
      "chip": "ym2612"
    },
    {
      "channel": 1,
      "note": 58,
      "start": 132.2763,
      "duration": 0.1952,
      "velocity": 98,
      "chip": "ym2612"
    },
    {
      "channel": 2,
      "note": 39,
      "start": 132.28,
      "duration": 0.1249,
      "velocity": 116,
      "chip": "ym2612"
    },
    {
      "channel": 3,
      "note": 57,
      "start": 132.4434,
      "duration": 0.1631,
      "velocity": 98,
      "chip": "ym2612"
    },
    {
      "channel": 5,
      "note": 75,
      "start": 132.4471,
      "duration": 0.0762,
      "velocity": 104,
      "chip": "ym2612"
    },
    {
      "channel": 4,
      "note": 82,
      "start": 132.4504,
      "duration": 0.0728,
      "velocity": 104,
      "chip": "ym2612"
    },
    {
      "channel": 2,
      "note": 85,
      "start": 132.4541,
      "duration": 0.1177,
      "velocity": 127,
      "chip": "ym2612"
    },
    {
      "channel": 1,
      "note": 69,
      "start": 132.6106,
      "duration": 0.0612,
      "velocity": 98,
      "chip": "ym2612"
    },
    {
      "channel": 2,
      "note": 39,
      "start": 132.6141,
      "duration": 0.1246,
      "velocity": 116,
      "chip": "ym2612"
    },
    {
      "channel": 1,
      "note": 70,
      "start": 132.7588,
      "duration": 0.1299,
      "velocity": 98,
      "chip": "ym2612"
    },
    {
      "channel": 4,
      "note": 83,
      "start": 132.7624,
      "duration": 0.0764,
      "velocity": 104,
      "chip": "ym2612"
    },
    {
      "channel": 5,
      "note": 76,
      "start": 132.7662,
      "duration": 0.1059,
      "velocity": 104,
      "chip": "ym2612"
    },
    {
      "channel": 3,
      "note": 85,
      "start": 132.7697,
      "duration": 0.1192,
      "velocity": 127,
      "chip": "ym2612"
    },
    {
      "channel": 2,
      "note": 37,
      "start": 132.7745,
      "duration": 0.1522,
      "velocity": 124,
      "chip": "ym2612"
    },
    {
      "channel": 1,
      "note": 58,
      "start": 132.9256,
      "duration": 0.1466,
      "velocity": 98,
      "chip": "ym2612"
    },
    {
      "channel": 2,
      "note": 39,
      "start": 132.9292,
      "duration": 0.1265,
      "velocity": 116,
      "chip": "ym2612"
    },
    {
      "channel": 1,
      "note": 59,
      "start": 133.076,
      "duration": 0.1298,
      "velocity": 98,
      "chip": "ym2612"
    },
    {
      "channel": 4,
      "note": 82,
      "start": 133.0797,
      "duration": 0.1263,
      "velocity": 104,
      "chip": "ym2612"
    },
    {
      "channel": 5,
      "note": 75,
      "start": 133.083,
      "duration": 0.1232,
      "velocity": 104,
      "chip": "ym2612"
    },
    {
      "channel": 3,
      "note": 85,
      "start": 133.0864,
      "duration": 0.1195,
      "velocity": 127,
      "chip": "ym2612"
    },
    {
      "channel": 2,
      "note": 37,
      "start": 133.09,
      "duration": 0.1604,
      "velocity": 124,
      "chip": "ym2612"
    },
    {
      "channel": 1,
      "note": 71,
      "start": 133.2427,
      "duration": 0.0798,
      "velocity": 98,
      "chip": "ym2612"
    },
    {
      "channel": 4,
      "note": 81,
      "start": 133.2463,
      "duration": 0.1264,
      "velocity": 104,
      "chip": "ym2612"
    },
    {
      "channel": 5,
      "note": 74,
      "start": 133.2496,
      "duration": 0.1233,
      "velocity": 104,
      "chip": "ym2612"
    },
    {
      "channel": 2,
      "note": 39,
      "start": 133.2529,
      "duration": 0.1201,
      "velocity": 116,
      "chip": "ym2612"
    },
    {
      "channel": 1,
      "note": 75,
      "start": 133.4105,
      "duration": 0.0956,
      "velocity": 98,
      "chip": "ym2612"
    },
    {
      "channel": 3,
      "note": 87,
      "start": 133.4148,
      "duration": 0.1414,
      "velocity": 104,
      "chip": "ym2612"
    },
    {
      "channel": 4,
      "note": 76,
      "start": 133.4183,
      "duration": 0.0546,
      "velocity": 104,
      "chip": "ym2612"
    },
    {
      "channel": 5,
      "note": 69,
      "start": 133.4216,
      "duration": 0.0515,
      "velocity": 104,
      "chip": "ym2612"
    },
    {
      "channel": 2,
      "note": 46,
      "start": 133.4251,
      "duration": 0.1313,
      "velocity": 106,
      "chip": "ym2612"
    },
    {
      "channel": 1,
      "note": 72,
      "start": 133.5602,
      "duration": 0.1128,
      "velocity": 98,
      "chip": "ym2612"
    },
    {
      "channel": 3,
      "note": 84,
      "start": 133.5635,
      "duration": 0.1596,
      "velocity": 104,
      "chip": "ym2612"
    },
    {
      "channel": 2,
      "note": 46,
      "start": 133.5667,
      "duration": 0.1566,
      "velocity": 106,
      "chip": "ym2612"
    },
    {
      "channel": 4,
      "note": 85,
      "start": 133.5702,
      "duration": 0.1212,
      "velocity": 127,
      "chip": "ym2612"
    },
    {
      "channel": 1,
      "note": 69,
      "start": 133.7267,
      "duration": 0.0965,
      "velocity": 98,
      "chip": "ym2612"
    },
    {
      "channel": 3,
      "note": 81,
      "start": 133.73,
      "duration": 0.1434,
      "velocity": 104,
      "chip": "ym2612"
    },
    {
      "channel": 5,
      "note": 69,
      "start": 133.7338,
      "duration": 0.073,
      "velocity": 104,
      "chip": "ym2612"
    },
    {
      "channel": 4,
      "note": 76,
      "start": 133.7371,
      "duration": 0.0696,
      "velocity": 104,
      "chip": "ym2612"
    },
    {
      "channel": 2,
      "note": 32,
      "start": 133.7402,
      "duration": 0.1334,
      "velocity": 106,
      "chip": "ym2612"
    },
    {
      "channel": 1,
      "note": 66,
      "start": 133.8772,
      "duration": 0.0796,
      "velocity": 98,
      "chip": "ym2612"
    },
    {
      "channel": 3,
      "note": 78,
      "start": 133.8808,
      "duration": 0.1594,
      "velocity": 104,
      "chip": "ym2612"
    },
    {
      "channel": 2,
      "note": 46,
      "start": 133.884,
      "duration": 0.1564,
      "velocity": 106,
      "chip": "ym2612"
    },
    {
      "channel": 4,
      "note": 85,
      "start": 133.8874,
      "duration": 0.1195,
      "velocity": 127,
      "chip": "ym2612"
    },
    {
      "channel": 1,
      "note": 63,
      "start": 134.044,
      "duration": 0.0962,
      "velocity": 98,
      "chip": "ym2612"
    },
    {
      "channel": 3,
      "note": 75,
      "start": 134.0473,
      "duration": 0.1597,
      "velocity": 104,
      "chip": "ym2612"
    },
    {
      "channel": 5,
      "note": 75,
      "start": 134.0508,
      "duration": 0.1563,
      "velocity": 104,
      "chip": "ym2612"
    },
    {
      "channel": 2,
      "note": 32,
      "start": 134.0539,
      "duration": 0.1534,
      "velocity": 106,
      "chip": "ym2612"
    },
    {
      "channel": 1,
      "note": 60,
      "start": 134.2107,
      "duration": 0.0964,
      "velocity": 98,
      "chip": "ym2612"
    },
    {
      "channel": 3,
      "note": 72,
      "start": 134.214,
      "duration": 0.1448,
      "velocity": 104,
      "chip": "ym2612"
    },
    {
      "channel": 5,
      "note": 72,
      "start": 134.2172,
      "duration": 0.1417,
      "velocity": 104,
      "chip": "ym2612"
    },
    {
      "channel": 2,
      "note": 32,
      "start": 134.2203,
      "duration": 0.1388,
      "velocity": 106,
      "chip": "ym2612"
    },
    {
      "channel": 4,
      "note": 85,
      "start": 134.224,
      "duration": 0.1166,
      "velocity": 127,
      "chip": "ym2612"
    },
    {
      "channel": 1,
      "note": 57,
      "start": 134.3625,
      "duration": 0.1115,
      "velocity": 98,
      "chip": "ym2612"
    },
    {
      "channel": 3,
      "note": 69,
      "start": 134.3658,
      "duration": 0.1599,
      "velocity": 104,
      "chip": "ym2612"
    },
    {
      "channel": 5,
      "note": 69,
      "start": 134.369,
      "duration": 0.1568,
      "velocity": 104,
      "chip": "ym2612"
    },
    {
      "channel": 2,
      "note": 46,
      "start": 134.3725,
      "duration": 0.1535,
      "velocity": 106,
      "chip": "ym2612"
    },
    {
      "channel": 1,
      "note": 54,
      "start": 134.5294,
      "duration": 0.0948,
      "velocity": 98,
      "chip": "ym2612"
    },
    {
      "channel": 3,
      "note": 66,
      "start": 134.5327,
      "duration": 0.1417,
      "velocity": 104,
      "chip": "ym2612"
    },
    {
      "channel": 5,
      "note": 66,
      "start": 134.5359,
      "duration": 0.1386,
      "velocity": 104,
      "chip": "ym2612"
    },
    {
      "channel": 2,
      "note": 32,
      "start": 134.539,
      "duration": 0.1356,
      "velocity": 106,
      "chip": "ym2612"
    },
    {
      "channel": 4,
      "note": 85,
      "start": 134.5424,
      "duration": 0.1152,
      "velocity": 127,
      "chip": "ym2612"
    },
    {
      "channel": 1,
      "note": 78,
      "start": 134.6781,
      "duration": 0.1131,
      "velocity": 98,
      "chip": "ym2612"
    },
    {
      "channel": 3,
      "note": 90,
      "start": 134.6813,
      "duration": 0.16,
      "velocity": 104,
      "chip": "ym2612"
    },
    {
      "channel": 5,
      "note": 63,
      "start": 134.6846,
      "duration": 0.157,
      "velocity": 104,
      "chip": "ym2612"
    },
    {
      "channel": 2,
      "note": 46,
      "start": 134.6877,
      "duration": 0.154,
      "velocity": 106,
      "chip": "ym2612"
    },
    {
      "channel": 4,
      "note": 99,
      "start": 134.7116,
      "duration": 0.163,
      "velocity": 127,
      "chip": "ym2612"
    },
    {
      "channel": 1,
      "note": 75,
      "start": 134.8451,
      "duration": 0.0977,
      "velocity": 98,
      "chip": "ym2612"
    },
    {
      "channel": 3,
      "note": 87,
      "start": 134.8484,
      "duration": 0.1598,
      "velocity": 104,
      "chip": "ym2612"
    },
    {
      "channel": 5,
      "note": 60,
      "start": 134.8516,
      "duration": 0.1567,
      "velocity": 104,
      "chip": "ym2612"
    },
    {
      "channel": 2,
      "note": 46,
      "start": 134.8547,
      "duration": 0.1537,
      "velocity": 106,
      "chip": "ym2612"
    },
    {
      "channel": 4,
      "note": 96,
      "start": 134.8785,
      "duration": 0.1479,
      "velocity": 127,
      "chip": "ym2612"
    },
    {
      "channel": 1,
      "note": 72,
      "start": 135.0118,
      "duration": 0.0978,
      "velocity": 98,
      "chip": "ym2612"
    },
    {
      "channel": 3,
      "note": 84,
      "start": 135.0151,
      "duration": 0.1432,
      "velocity": 104,
      "chip": "ym2612"
    },
    {
      "channel": 5,
      "note": 57,
      "start": 135.0183,
      "duration": 0.1401,
      "velocity": 104,
      "chip": "ym2612"
    },
    {
      "channel": 2,
      "note": 32,
      "start": 135.0214,
      "duration": 0.1372,
      "velocity": 106,
      "chip": "ym2612"
    },
    {
      "channel": 4,
      "note": 93,
      "start": 135.0299,
      "duration": 0.1628,
      "velocity": 127,
      "chip": "ym2612"
    },
    {
      "channel": 1,
      "note": 69,
      "start": 135.1622,
      "duration": 0.0795,
      "velocity": 98,
      "chip": "ym2612"
    },
    {
      "channel": 3,
      "note": 81,
      "start": 135.1654,
      "duration": 0.1598,
      "velocity": 104,
      "chip": "ym2612"
    },
    {
      "channel": 5,
      "note": 54,
      "start": 135.1687,
      "duration": 0.1567,
      "velocity": 104,
      "chip": "ym2612"
    },
    {
      "channel": 2,
      "note": 46,
      "start": 135.1717,
      "duration": 0.1537,
      "velocity": 106,
      "chip": "ym2612"
    },
    {
      "channel": 4,
      "note": 90,
      "start": 135.208,
      "duration": 0.134,
      "velocity": 127,
      "chip": "ym2612"
    },
    {
      "channel": 1,
      "note": 66,
      "start": 135.329,
      "duration": 0.0962,
      "velocity": 98,
      "chip": "ym2612"
    },
    {
      "channel": 3,
      "note": 78,
      "start": 135.3323,
      "duration": 0.143,
      "velocity": 104,
      "chip": "ym2612"
    },
    {
      "channel": 5,
      "note": 78,
      "start": 135.3355,
      "duration": 0.14,
      "velocity": 104,
      "chip": "ym2612"
    },
    {
      "channel": 2,
      "note": 32,
      "start": 135.3386,
      "duration": 0.137,
      "velocity": 106,
      "chip": "ym2612"
    },
    {
      "channel": 4,
      "note": 87,
      "start": 135.3454,
      "duration": 0.1634,
      "velocity": 127,
      "chip": "ym2612"
    },
    {
      "channel": 1,
      "note": 63,
      "start": 135.4794,
      "duration": 0.1128,
      "velocity": 98,
      "chip": "ym2612"
    },
    {
      "channel": 3,
      "note": 75,
      "start": 135.4827,
      "duration": 0.1596,
      "velocity": 104,
      "chip": "ym2612"
    },
    {
      "channel": 5,
      "note": 75,
      "start": 135.4859,
      "duration": 0.1566,
      "velocity": 104,
      "chip": "ym2612"
    },
    {
      "channel": 2,
      "note": 46,
      "start": 135.4893,
      "duration": 0.0696,
      "velocity": 106,
      "chip": "ym2612"
    },
    {
      "channel": 4,
      "note": 84,
      "start": 135.5124,
      "duration": 0.1634,
      "velocity": 127,
      "chip": "ym2612"
    },
    {
      "channel": 2,
      "note": 46,
      "start": 135.5628,
      "duration": 0.0799,
      "velocity": 106,
      "chip": "ym2612"
    },
    {
      "channel": 1,
      "note": 60,
      "start": 135.6461,
      "duration": 0.0971,
      "velocity": 98,
      "chip": "ym2612"
    },
    {
      "channel": 3,
      "note": 72,
      "start": 135.6493,
      "duration": 0.1599,
      "velocity": 104,
      "chip": "ym2612"
    },
    {
      "channel": 5,
      "note": 72,
      "start": 135.6526,
      "duration": 0.1568,
      "velocity": 104,
      "chip": "ym2612"
    },
    {
      "channel": 2,
      "note": 32,
      "start": 135.6559,
      "duration": 0.1536,
      "velocity": 106,
      "chip": "ym2612"
    },
    {
      "channel": 4,
      "note": 81,
      "start": 135.6793,
      "duration": 0.1466,
      "velocity": 127,
      "chip": "ym2612"
    },
    {
      "channel": 1,
      "note": 57,
      "start": 135.8129,
      "duration": 0.0962,
      "velocity": 98,
      "chip": "ym2612"
    },
    {
      "channel": 3,
      "note": 69,
      "start": 135.8162,
      "duration": 0.1432,
      "velocity": 104,
      "chip": "ym2612"
    },
    {
      "channel": 5,
      "note": 69,
      "start": 135.8198,
      "duration": 0.1397,
      "velocity": 104,
      "chip": "ym2612"
    },
    {
      "channel": 2,
      "note": 46,
      "start": 135.8229,
      "duration": 0.1367,
      "velocity": 106,
      "chip": "ym2612"
    },
    {
      "channel": 4,
      "note": 78,
      "start": 135.8293,
      "duration": 0.1634,
      "velocity": 127,
      "chip": "ym2612"
    },
    {
      "channel": 1,
      "note": 81,
      "start": 135.9631,
      "duration": 0.113,
      "velocity": 98,
      "chip": "ym2612"
    },
    {
      "channel": 3,
      "note": 93,
      "start": 135.9663,
      "duration": 0.1599,
      "velocity": 104,
      "chip": "ym2612"
    },
    {
      "channel": 5,
      "note": 66,
      "start": 135.9696,
      "duration": 0.1569,
      "velocity": 104,
      "chip": "ym2612"
    },
    {
      "channel": 2,
      "note": 46,
      "start": 135.9727,
      "duration": 0.1539,
      "velocity": 106,
      "chip": "ym2612"
    },
    {
      "channel": 4,
      "note": 102,
      "start": 135.9963,
      "duration": 0.1468,
      "velocity": 127,
      "chip": "ym2612"
    },
    {
      "channel": 1,
      "note": 78,
      "start": 136.13,
      "duration": 0.0962,
      "velocity": 98,
      "chip": "ym2612"
    },
    {
      "channel": 3,
      "note": 90,
      "start": 136.1333,
      "duration": 0.1447,
      "velocity": 104,
      "chip": "ym2612"
    },
    {
      "channel": 5,
      "note": 63,
      "start": 136.1365,
      "duration": 0.1416,
      "velocity": 104,
      "chip": "ym2612"
    },
    {
      "channel": 2,
      "note": 46,
      "start": 136.14,
      "duration": 0.1383,
      "velocity": 106,
      "chip": "ym2612"
    },
    {
      "channel": 4,
      "note": 99,
      "start": 136.1465,
      "duration": 0.1633,
      "velocity": 127,
      "chip": "ym2612"
    },
    {
      "channel": 1,
      "note": 75,
      "start": 136.2817,
      "duration": 0.1115,
      "velocity": 98,
      "chip": "ym2612"
    },
    {
      "channel": 3,
      "note": 87,
      "start": 136.2849,
      "duration": 0.1598,
      "velocity": 104,
      "chip": "ym2612"
    },
    {
      "channel": 5,
      "note": 60,
      "start": 136.2882,
      "duration": 0.1567,
      "velocity": 104,
      "chip": "ym2612"
    },
    {
      "channel": 2,
      "note": 32,
      "start": 136.2912,
      "duration": 0.1538,
      "velocity": 106,
      "chip": "ym2612"
    },
    {
      "channel": 4,
      "note": 96,
      "start": 136.3133,
      "duration": 0.1634,
      "velocity": 127,
      "chip": "ym2612"
    },
    {
      "channel": 1,
      "note": 72,
      "start": 136.4486,
      "duration": 0.0795,
      "velocity": 98,
      "chip": "ym2612"
    },
    {
      "channel": 3,
      "note": 84,
      "start": 136.4523,
      "duration": 0.1593,
      "velocity": 104,
      "chip": "ym2612"
    },
    {
      "channel": 5,
      "note": 57,
      "start": 136.4555,
      "duration": 0.1563,
      "velocity": 104,
      "chip": "ym2612"
    },
    {
      "channel": 2,
      "note": 46,
      "start": 136.4586,
      "duration": 0.1533,
      "velocity": 106,
      "chip": "ym2612"
    },
    {
      "channel": 4,
      "note": 93,
      "start": 136.4802,
      "duration": 0.1473,
      "velocity": 127,
      "chip": "ym2612"
    },
    {
      "channel": 1,
      "note": 69,
      "start": 136.6155,
      "duration": 0.0947,
      "velocity": 98,
      "chip": "ym2612"
    },
    {
      "channel": 3,
      "note": 81,
      "start": 136.6188,
      "duration": 0.1415,
      "velocity": 104,
      "chip": "ym2612"
    },
    {
      "channel": 5,
      "note": 81,
      "start": 136.622,
      "duration": 0.1385,
      "velocity": 104,
      "chip": "ym2612"
    },
    {
      "channel": 2,
      "note": 32,
      "start": 136.6251,
      "duration": 0.1355,
      "velocity": 106,
      "chip": "ym2612"
    },
    {
      "channel": 4,
      "note": 90,
      "start": 136.6309,
      "duration": 0.1628,
      "velocity": 127,
      "chip": "ym2612"
    },
    {
      "channel": 1,
      "note": 66,
      "start": 136.764,
      "duration": 0.1131,
      "velocity": 98,
      "chip": "ym2612"
    },
    {
      "channel": 3,
      "note": 78,
      "start": 136.7673,
      "duration": 0.1599,
      "velocity": 104,
      "chip": "ym2612"
    },
    {
      "channel": 5,
      "note": 78,
      "start": 136.7705,
      "duration": 0.1568,
      "velocity": 104,
      "chip": "ym2612"
    },
    {
      "channel": 2,
      "note": 32,
      "start": 136.7736,
      "duration": 0.1539,
      "velocity": 106,
      "chip": "ym2612"
    },
    {
      "channel": 4,
      "note": 87,
      "start": 136.7973,
      "duration": 0.1482,
      "velocity": 127,
      "chip": "ym2612"
    },
    {
      "channel": 1,
      "note": 63,
      "start": 136.9309,
      "duration": 0.0979,
      "velocity": 98,
      "chip": "ym2612"
    },
    {
      "channel": 3,
      "note": 75,
      "start": 136.9342,
      "duration": 0.1432,
      "velocity": 104,
      "chip": "ym2612"
    },
    {
      "channel": 5,
      "note": 75,
      "start": 136.9374,
      "duration": 0.1401,
      "velocity": 104,
      "chip": "ym2612"
    },
    {
      "channel": 2,
      "note": 46,
      "start": 136.9405,
      "duration": 0.1372,
      "velocity": 106,
      "chip": "ym2612"
    },
    {
      "channel": 4,
      "note": 84,
      "start": 136.949,
      "duration": 0.1634,
      "velocity": 127,
      "chip": "ym2612"
    },
    {
      "channel": 1,
      "note": 60,
      "start": 137.0811,
      "duration": 0.1146,
      "velocity": 98,
      "chip": "ym2612"
    },
    {
      "channel": 3,
      "note": 72,
      "start": 137.0844,
      "duration": 0.16,
      "velocity": 104,
      "chip": "ym2612"
    },
    {
      "channel": 5,
      "note": 72,
      "start": 137.0876,
      "duration": 0.157,
      "velocity": 104,
      "chip": "ym2612"
    },
    {
      "channel": 2,
      "note": 32,
      "start": 137.0907,
      "duration": 0.154,
      "velocity": 106,
      "chip": "ym2612"
    },
    {
      "channel": 4,
      "note": 81,
      "start": 137.1159,
      "duration": 0.1635,
      "velocity": 127,
      "chip": "ym2612"
    },
    {
      "channel": 1,
      "note": 84,
      "start": 137.2481,
      "duration": 0.0963,
      "velocity": 98,
      "chip": "ym2612"
    },
    {
      "channel": 3,
      "note": 96,
      "start": 137.2514,
      "duration": 0.1598,
      "velocity": 104,
      "chip": "ym2612"
    },
    {
      "channel": 5,
      "note": 69,
      "start": 137.2546,
      "duration": 0.1568,
      "velocity": 104,
      "chip": "ym2612"
    },
    {
      "channel": 2,
      "note": 46,
      "start": 137.2577,
      "duration": 0.1539,
      "velocity": 106,
      "chip": "ym2612"
    },
    {
      "channel": 4,
      "note": 105,
      "start": 137.2829,
      "duration": 0.1451,
      "velocity": 127,
      "chip": "ym2612"
    },
    {
      "channel": 1,
      "note": 81,
      "start": 137.4149,
      "duration": 0.0963,
      "velocity": 98,
      "chip": "ym2612"
    },
    {
      "channel": 3,
      "note": 93,
      "start": 137.4182,
      "duration": 0.1432,
      "velocity": 104,
      "chip": "ym2612"
    },
    {
      "channel": 5,
      "note": 66,
      "start": 137.4214,
      "duration": 0.1402,
      "velocity": 104,
      "chip": "ym2612"
    },
    {
      "channel": 2,
      "note": 46,
      "start": 137.4248,
      "duration": 0.0533,
      "velocity": 106,
      "chip": "ym2612"
    },
    {
      "channel": 4,
      "note": 102,
      "start": 137.4319,
      "duration": 0.1629,
      "velocity": 127,
      "chip": "ym2612"
    },
    {
      "channel": 2,
      "note": 46,
      "start": 137.4819,
      "duration": 0.0798,
      "velocity": 106,
      "chip": "ym2612"
    },
    {
      "channel": 1,
      "note": 78,
      "start": 137.5651,
      "duration": 0.113,
      "velocity": 98,
      "chip": "ym2612"
    },
    {
      "channel": 3,
      "note": 90,
      "start": 137.5684,
      "duration": 0.1599,
      "velocity": 104,
      "chip": "ym2612"
    },
    {
      "channel": 5,
      "note": 63,
      "start": 137.5716,
      "duration": 0.1569,
      "velocity": 104,
      "chip": "ym2612"
    },
    {
      "channel": 2,
      "note": 32,
      "start": 137.575,
      "duration": 0.1537,
      "velocity": 106,
      "chip": "ym2612"
    },
    {
      "channel": 4,
      "note": 99,
      "start": 137.5983,
      "duration": 0.1466,
      "velocity": 127,
      "chip": "ym2612"
    },
    {
      "channel": 1,
      "note": 75,
      "start": 137.7326,
      "duration": 0.079,
      "velocity": 98,
      "chip": "ym2612"
    },
    {
      "channel": 3,
      "note": 87,
      "start": 137.7359,
      "duration": 0.1426,
      "velocity": 104,
      "chip": "ym2612"
    },
    {
      "channel": 5,
      "note": 60,
      "start": 137.7391,
      "duration": 0.1395,
      "velocity": 104,
      "chip": "ym2612"
    },
    {
      "channel": 2,
      "note": 46,
      "start": 137.7422,
      "duration": 0.1366,
      "velocity": 106,
      "chip": "ym2612"
    },
    {
      "channel": 4,
      "note": 96,
      "start": 137.7485,
      "duration": 0.1634,
      "velocity": 127,
      "chip": "ym2612"
    },
    {
      "channel": 1,
      "note": 72,
      "start": 137.8824,
      "duration": 0.1128,
      "velocity": 98,
      "chip": "ym2612"
    },
    {
      "channel": 3,
      "note": 84,
      "start": 137.8856,
      "duration": 0.1597,
      "velocity": 104,
      "chip": "ym2612"
    },
    {
      "channel": 5,
      "note": 84,
      "start": 137.8888,
      "duration": 0.1567,
      "velocity": 104,
      "chip": "ym2612"
    },
    {
      "channel": 2,
      "note": 32,
      "start": 137.8923,
      "duration": 0.1533,
      "velocity": 106,
      "chip": "ym2612"
    },
    {
      "channel": 4,
      "note": 93,
      "start": 137.9153,
      "duration": 0.1634,
      "velocity": 127,
      "chip": "ym2612"
    },
    {
      "channel": 1,
      "note": 69,
      "start": 138.049,
      "duration": 0.0964,
      "velocity": 98,
      "chip": "ym2612"
    },
    {
      "channel": 3,
      "note": 81,
      "start": 138.0523,
      "duration": 0.1599,
      "velocity": 104,
      "chip": "ym2612"
    },
    {
      "channel": 5,
      "note": 81,
      "start": 138.0556,
      "duration": 0.1569,
      "velocity": 104,
      "chip": "ym2612"
    },
    {
      "channel": 2,
      "note": 32,
      "start": 138.0586,
      "duration": 0.1539,
      "velocity": 106,
      "chip": "ym2612"
    },
    {
      "channel": 4,
      "note": 90,
      "start": 138.0822,
      "duration": 0.1467,
      "velocity": 127,
      "chip": "ym2612"
    },
    {
      "channel": 1,
      "note": 66,
      "start": 138.216,
      "duration": 0.0963,
      "velocity": 98,
      "chip": "ym2612"
    },
    {
      "channel": 3,
      "note": 78,
      "start": 138.2193,
      "duration": 0.1447,
      "velocity": 104,
      "chip": "ym2612"
    },
    {
      "channel": 5,
      "note": 78,
      "start": 138.2225,
      "duration": 0.1417,
      "velocity": 104,
      "chip": "ym2612"
    },
    {
      "channel": 2,
      "note": 46,
      "start": 138.2256,
      "duration": 0.1387,
      "velocity": 106,
      "chip": "ym2612"
    },
    {
      "channel": 4,
      "note": 87,
      "start": 138.2324,
      "duration": 0.1634,
      "velocity": 127,
      "chip": "ym2612"
    },
    {
      "channel": 1,
      "note": 63,
      "start": 138.368,
      "duration": 0.1111,
      "velocity": 98,
      "chip": "ym2612"
    },
    {
      "channel": 3,
      "note": 75,
      "start": 138.3716,
      "duration": 0.1593,
      "velocity": 104,
      "chip": "ym2612"
    },
    {
      "channel": 5,
      "note": 75,
      "start": 138.3755,
      "duration": 0.1556,
      "velocity": 104,
      "chip": "ym2612"
    },
    {
      "channel": 2,
      "note": 40,
      "start": 138.3789,
      "duration": 0.0686,
      "velocity": 106,
      "chip": "ym2612"
    },
    {
      "channel": 4,
      "note": 84,
      "start": 138.3994,
      "duration": 0.1466,
      "velocity": 127,
      "chip": "ym2612"
    },
    {
      "channel": 2,
      "note": 40,
      "start": 138.4514,
      "duration": 0.0798,
      "velocity": 106,
      "chip": "ym2612"
    },
    {
      "channel": 2,
      "note": 40,
      "start": 138.5354,
      "duration": 0.1442,
      "velocity": 106,
      "chip": "ym2612"
    },
    {
      "channel": 4,
      "note": 108,
      "start": 138.5495,
      "duration": 0.1634,
      "velocity": 127,
      "chip": "ym2612"
    },
    {
      "channel": 2,
      "note": 40,
      "start": 138.6837,
      "duration": 0.0794,
      "velocity": 106,
      "chip": "ym2612"
    },
    {
      "channel": 4,
      "note": 105,
      "start": 138.7165,
      "duration": 0.1633,
      "velocity": 127,
      "chip": "ym2612"
    },
    {
      "channel": 2,
      "note": 40,
      "start": 138.767,
      "duration": 0.0795,
      "velocity": 106,
      "chip": "ym2612"
    },
    {
      "channel": 2,
      "note": 32,
      "start": 138.851,
      "duration": 0.1623,
      "velocity": 106,
      "chip": "ym2612"
    },
    {
      "channel": 4,
      "note": 102,
      "start": 138.8834,
      "duration": 0.1481,
      "velocity": 127,
      "chip": "ym2612"
    },
    {
      "channel": 2,
      "note": 32,
      "start": 139.0176,
      "duration": 0.0626,
      "velocity": 106,
      "chip": "ym2612"
    },
    {
      "channel": 4,
      "note": 99,
      "start": 139.0349,
      "duration": 0.1634,
      "velocity": 127,
      "chip": "ym2612"
    },
    {
      "channel": 2,
      "note": 32,
      "start": 139.084,
      "duration": 0.0795,
      "velocity": 106,
      "chip": "ym2612"
    },
    {
      "channel": 2,
      "note": 40,
      "start": 139.1677,
      "duration": 0.1628,
      "velocity": 106,
      "chip": "ym2612"
    },
    {
      "channel": 4,
      "note": 96,
      "start": 139.2019,
      "duration": 0.1451,
      "velocity": 127,
      "chip": "ym2612"
    },
    {
      "channel": 2,
      "note": 40,
      "start": 139.3344,
      "duration": 0.1463,
      "velocity": 106,
      "chip": "ym2612"
    },
    {
      "channel": 4,
      "note": 93,
      "start": 139.3505,
      "duration": 0.1634,
      "velocity": 127,
      "chip": "ym2612"
    },
    {
      "channel": 2,
      "note": 32,
      "start": 139.4845,
      "duration": 0.1632,
      "velocity": 106,
      "chip": "ym2612"
    },
    {
      "channel": 4,
      "note": 90,
      "start": 139.5174,
      "duration": 0.1634,
      "velocity": 127,
      "chip": "ym2612"
    },
    {
      "channel": 2,
      "note": 32,
      "start": 139.6516,
      "duration": 0.1628,
      "velocity": 106,
      "chip": "ym2612"
    },
    {
      "channel": 4,
      "note": 87,
      "start": 139.6844,
      "duration": 0.1467,
      "velocity": 127,
      "chip": "ym2612"
    },
    {
      "channel": 2,
      "note": 40,
      "start": 139.8183,
      "duration": 0.1463,
      "velocity": 106,
      "chip": "ym2612"
    },
    {
      "channel": 4,
      "note": 83,
      "start": 139.8346,
      "duration": 0.1633,
      "velocity": 127,
      "chip": "ym2612"
    },
    {
      "channel": 2,
      "note": 40,
      "start": 139.9688,
      "duration": 0.0793,
      "velocity": 106,
      "chip": "ym2612"
    },
    {
      "channel": 4,
      "note": 83,
      "start": 140.0018,
      "duration": 0.1463,
      "velocity": 127,
      "chip": "ym2612"
    },
    {
      "channel": 2,
      "note": 40,
      "start": 140.052,
      "duration": 0.0795,
      "velocity": 106,
      "chip": "ym2612"
    },
    {
      "channel": 2,
      "note": 32,
      "start": 140.136,
      "duration": 0.1471,
      "velocity": 106,
      "chip": "ym2612"
    },
    {
      "channel": 4,
      "note": 83,
      "start": 140.1516,
      "duration": 0.1634,
      "velocity": 127,
      "chip": "ym2612"
    },
    {
      "channel": 2,
      "note": 32,
      "start": 140.2873,
      "duration": 0.0794,
      "velocity": 106,
      "chip": "ym2612"
    },
    {
      "channel": 4,
      "note": 83,
      "start": 140.3185,
      "duration": 0.1633,
      "velocity": 127,
      "chip": "ym2612"
    },
    {
      "channel": 2,
      "note": 32,
      "start": 140.3706,
      "duration": 0.0795,
      "velocity": 106,
      "chip": "ym2612"
    },
    {
      "channel": 2,
      "note": 40,
      "start": 140.4542,
      "duration": 0.1627,
      "velocity": 106,
      "chip": "ym2612"
    },
    {
      "channel": 4,
      "note": 83,
      "start": 140.4855,
      "duration": 0.1467,
      "velocity": 127,
      "chip": "ym2612"
    },
    {
      "channel": 1,
      "note": 95,
      "start": 140.4888,
      "duration": 0.1432,
      "velocity": 127,
      "chip": "ym2612"
    },
    {
      "channel": 2,
      "note": 40,
      "start": 140.6211,
      "duration": 0.0611,
      "velocity": 106,
      "chip": "ym2612"
    },
    {
      "channel": 2,
      "note": 40,
      "start": 140.6861,
      "duration": 0.0795,
      "velocity": 106,
      "chip": "ym2612"
    },
    {
      "channel": 2,
      "note": 32,
      "start": 140.7702,
      "duration": 0.1623,
      "velocity": 106,
      "chip": "ym2612"
    },
    {
      "channel": 2,
      "note": 32,
      "start": 140.9364,
      "duration": 0.1464,
      "velocity": 106,
      "chip": "ym2612"
    },
    {
      "channel": 2,
      "note": 32,
      "start": 141.087,
      "duration": 0.1627,
      "velocity": 106,
      "chip": "ym2612"
    },
    {
      "channel": 3,
      "note": 37,
      "start": 141.0916,
      "duration": 0.2413,
      "velocity": 124,
      "chip": "ym2612"
    },
    {
      "channel": 3,
      "note": 37,
      "start": 141.4206,
      "duration": 0.2294,
      "velocity": 124,
      "chip": "ym2612"
    },
    {
      "channel": 3,
      "note": 37,
      "start": 141.7379,
      "duration": 0.2292,
      "velocity": 124,
      "chip": "ym2612"
    },
    {
      "channel": 3,
      "note": 37,
      "start": 142.0548,
      "duration": 0.2308,
      "velocity": 124,
      "chip": "ym2612"
    },
    {
      "channel": 3,
      "note": 37,
      "start": 142.3742,
      "duration": 0.2453,
      "velocity": 124,
      "chip": "ym2612"
    },
    {
      "channel": 3,
      "note": 37,
      "start": 142.6894,
      "duration": 0.2456,
      "velocity": 124,
      "chip": "ym2612"
    },
    {
      "channel": 3,
      "note": 37,
      "start": 143.0227,
      "duration": 0.2293,
      "velocity": 124,
      "chip": "ym2612"
    },
    {
      "channel": 3,
      "note": 37,
      "start": 143.3398,
      "duration": 0.2293,
      "velocity": 124,
      "chip": "ym2612"
    },
    {
      "channel": 5,
      "note": 54,
      "start": 143.6563,
      "duration": 0.1315,
      "velocity": 88,
      "chip": "ym2612"
    },
    {
      "channel": 3,
      "note": 37,
      "start": 143.661,
      "duration": 0.2253,
      "velocity": 124,
      "chip": "ym2612"
    },
    {
      "channel": 5,
      "note": 57,
      "start": 143.823,
      "duration": 0.0634,
      "velocity": 88,
      "chip": "ym2612"
    },
    {
      "channel": 5,
      "note": 57,
      "start": 143.9729,
      "duration": 0.0802,
      "velocity": 88,
      "chip": "ym2612"
    },
    {
      "channel": 3,
      "note": 37,
      "start": 143.9769,
      "duration": 0.2431,
      "velocity": 124,
      "chip": "ym2612"
    },
    {
      "channel": 5,
      "note": 57,
      "start": 144.1398,
      "duration": 0.0804,
      "velocity": 88,
      "chip": "ym2612"
    },
    {
      "channel": 5,
      "note": 52,
      "start": 144.2915,
      "duration": 0.0803,
      "velocity": 88,
      "chip": "ym2612"
    },
    {
      "channel": 3,
      "note": 37,
      "start": 144.2954,
      "duration": 0.2431,
      "velocity": 124,
      "chip": "ym2612"
    },
    {
      "channel": 5,
      "note": 52,
      "start": 144.4585,
      "duration": 0.0953,
      "velocity": 88,
      "chip": "ym2612"
    },
    {
      "channel": 5,
      "note": 52,
      "start": 144.6253,
      "duration": 0.0954,
      "velocity": 88,
      "chip": "ym2612"
    },
    {
      "channel": 3,
      "note": 37,
      "start": 144.6292,
      "duration": 0.2249,
      "velocity": 124,
      "chip": "ym2612"
    },
    {
      "channel": 5,
      "note": 52,
      "start": 144.774,
      "duration": 0.1137,
      "velocity": 88,
      "chip": "ym2612"
    },
    {
      "channel": 5,
      "note": 59,
      "start": 144.9409,
      "duration": 0.0985,
      "velocity": 88,
      "chip": "ym2612"
    },
    {
      "channel": 3,
      "note": 37,
      "start": 144.9456,
      "duration": 0.2257,
      "velocity": 124,
      "chip": "ym2612"
    },
    {
      "channel": 5,
      "note": 59,
      "start": 145.0917,
      "duration": 0.0797,
      "velocity": 88,
      "chip": "ym2612"
    },
    {
      "channel": 5,
      "note": 59,
      "start": 145.2579,
      "duration": 0.0803,
      "velocity": 88,
      "chip": "ym2612"
    },
    {
      "channel": 3,
      "note": 37,
      "start": 145.2618,
      "duration": 0.2264,
      "velocity": 124,
      "chip": "ym2612"
    },
    {
      "channel": 5,
      "note": 59,
      "start": 145.4249,
      "duration": 0.0969,
      "velocity": 88,
      "chip": "ym2612"
    },
    {
      "channel": 5,
      "note": 54,
      "start": 145.5751,
      "duration": 0.1136,
      "velocity": 88,
      "chip": "ym2612"
    },
    {
      "channel": 3,
      "note": 37,
      "start": 145.579,
      "duration": 0.243,
      "velocity": 124,
      "chip": "ym2612"
    },
    {
      "channel": 5,
      "note": 54,
      "start": 145.7421,
      "duration": 0.0801,
      "velocity": 88,
      "chip": "ym2612"
    },
    {
      "channel": 5,
      "note": 54,
      "start": 145.8921,
      "duration": 0.0803,
      "velocity": 88,
      "chip": "ym2612"
    },
    {
      "channel": 3,
      "note": 37,
      "start": 145.896,
      "duration": 0.2431,
      "velocity": 124,
      "chip": "ym2612"
    },
    {
      "channel": 5,
      "note": 54,
      "start": 146.0589,
      "duration": 0.0804,
      "velocity": 88,
      "chip": "ym2612"
    },
    {
      "channel": 5,
      "note": 54,
      "start": 146.2258,
      "duration": 0.0651,
      "velocity": 88,
      "chip": "ym2612"
    },
    {
      "channel": 3,
      "note": 37,
      "start": 146.2305,
      "duration": 0.2272,
      "velocity": 124,
      "chip": "ym2612"
    },
    {
      "channel": 5,
      "note": 57,
      "start": 146.3777,
      "duration": 0.112,
      "velocity": 88,
      "chip": "ym2612"
    },
    {
      "channel": 5,
      "note": 57,
      "start": 146.5445,
      "duration": 0.0954,
      "velocity": 88,
      "chip": "ym2612"
    },
    {
      "channel": 3,
      "note": 37,
      "start": 146.5484,
      "duration": 0.2249,
      "velocity": 124,
      "chip": "ym2612"
    },
    {
      "channel": 5,
      "note": 57,
      "start": 146.6932,
      "duration": 0.0802,
      "velocity": 88,
      "chip": "ym2612"
    },
    {
      "channel": 5,
      "note": 52,
      "start": 146.8604,
      "duration": 0.0799,
      "velocity": 88,
      "chip": "ym2612"
    },
    {
      "channel": 3,
      "note": 37,
      "start": 146.8643,
      "duration": 0.2261,
      "velocity": 124,
      "chip": "ym2612"
    },
    {
      "channel": 5,
      "note": 52,
      "start": 147.0269,
      "duration": 0.0636,
      "velocity": 88,
      "chip": "ym2612"
    },
    {
      "channel": 5,
      "note": 52,
      "start": 147.1771,
      "duration": 0.0803,
      "velocity": 88,
      "chip": "ym2612"
    },
    {
      "channel": 3,
      "note": 37,
      "start": 147.181,
      "duration": 0.2431,
      "velocity": 124,
      "chip": "ym2612"
    },
    {
      "channel": 5,
      "note": 50,
      "start": 147.344,
      "duration": 0.0968,
      "velocity": 88,
      "chip": "ym2612"
    },
    {
      "channel": 5,
      "note": 47,
      "start": 147.4942,
      "duration": 0.1136,
      "velocity": 88,
      "chip": "ym2612"
    },
    {
      "channel": 3,
      "note": 37,
      "start": 147.4991,
      "duration": 0.2422,
      "velocity": 124,
      "chip": "ym2612"
    },
    {
      "channel": 5,
      "note": 47,
      "start": 147.6612,
      "duration": 0.0968,
      "velocity": 88,
      "chip": "ym2612"
    },
    {
      "channel": 5,
      "note": 50,
      "start": 147.8279,
      "duration": 0.097,
      "velocity": 88,
      "chip": "ym2612"
    },
    {
      "channel": 3,
      "note": 37,
      "start": 147.8322,
      "duration": 0.226,
      "velocity": 124,
      "chip": "ym2612"
    },
    {
      "channel": 5,
      "note": 52,
      "start": 147.9781,
      "duration": 0.1147,
      "velocity": 88,
      "chip": "ym2612"
    },
    {
      "channel": 5,
      "note": 47,
      "start": 148.1449,
      "duration": 0.0969,
      "velocity": 88,
      "chip": "ym2612"
    },
    {
      "channel": 3,
      "note": 37,
      "start": 148.1489,
      "duration": 0.228,
      "velocity": 124,
      "chip": "ym2612"
    },
    {
      "channel": 5,
      "note": 47,
      "start": 148.2968,
      "duration": 0.1287,
      "velocity": 88,
      "chip": "ym2612"
    },
    {
      "channel": 5,
      "note": 50,
      "start": 148.4637,
      "duration": 0.0952,
      "velocity": 88,
      "chip": "ym2612"
    },
    {
      "channel": 3,
      "note": 37,
      "start": 148.4676,
      "duration": 0.2248,
      "velocity": 124,
      "chip": "ym2612"
    },
    {
      "channel": 5,
      "note": 52,
      "start": 148.6311,
      "duration": 0.0615,
      "velocity": 88,
      "chip": "ym2612"
    },
    {
      "channel": 1,
      "note": 64,
      "start": 148.7805,
      "duration": 0.1121,
      "velocity": 104,
      "chip": "ym2612"
    },
    {
      "channel": 2,
      "note": 39,
      "start": 148.784,
      "duration": 0.1257,
      "velocity": 116,
      "chip": "ym2612"
    },
    {
      "channel": 3,
      "note": 37,
      "start": 148.7871,
      "duration": 0.2391,
      "velocity": 124,
      "chip": "ym2612"
    },
    {
      "channel": 4,
      "note": 52,
      "start": 148.8131,
      "duration": 0.0964,
      "velocity": 127,
      "chip": "ym2612"
    },
    {
      "channel": 5,
      "note": 52,
      "start": 148.9463,
      "duration": 0.0982,
      "velocity": 88,
      "chip": "ym2612"
    },
    {
      "channel": 1,
      "note": 64,
      "start": 148.9497,
      "duration": 0.0946,
      "velocity": 104,
      "chip": "ym2612"
    },
    {
      "channel": 4,
      "note": 55,
      "start": 148.9531,
      "duration": 0.1231,
      "velocity": 120,
      "chip": "ym2612"
    },
    {
      "channel": 2,
      "note": 52,
      "start": 148.9645,
      "duration": 0.1119,
      "velocity": 127,
      "chip": "ym2612"
    },
    {
      "channel": 5,
      "note": 55,
      "start": 149.0962,
      "duration": 0.1153,
      "velocity": 88,
      "chip": "ym2612"
    },
    {
      "channel": 1,
      "note": 62,
      "start": 149.0995,
      "duration": 0.1117,
      "velocity": 104,
      "chip": "ym2612"
    },
    {
      "channel": 2,
      "note": 39,
      "start": 149.1028,
      "duration": 0.124,
      "velocity": 116,
      "chip": "ym2612"
    },
    {
      "channel": 3,
      "note": 37,
      "start": 149.107,
      "duration": 0.2362,
      "velocity": 124,
      "chip": "ym2612"
    },
    {
      "channel": 4,
      "note": 50,
      "start": 149.1315,
      "duration": 0.0951,
      "velocity": 127,
      "chip": "ym2612"
    },
    {
      "channel": 5,
      "note": 57,
      "start": 149.2632,
      "duration": 0.097,
      "velocity": 88,
      "chip": "ym2612"
    },
    {
      "channel": 1,
      "note": 64,
      "start": 149.2666,
      "duration": 0.0934,
      "velocity": 104,
      "chip": "ym2612"
    },
    {
      "channel": 4,
      "note": 55,
      "start": 149.2699,
      "duration": 0.1236,
      "velocity": 120,
      "chip": "ym2612"
    },
    {
      "channel": 2,
      "note": 52,
      "start": 149.2983,
      "duration": 0.0953,
      "velocity": 127,
      "chip": "ym2612"
    },
    {
      "channel": 5,
      "note": 52,
      "start": 149.43,
      "duration": 0.097,
      "velocity": 88,
      "chip": "ym2612"
    },
    {
      "channel": 1,
      "note": 62,
      "start": 149.4334,
      "duration": 0.0599,
      "velocity": 104,
      "chip": "ym2612"
    },
    {
      "channel": 2,
      "note": 39,
      "start": 149.4367,
      "duration": 0.1235,
      "velocity": 116,
      "chip": "ym2612"
    },
    {
      "channel": 3,
      "note": 37,
      "start": 149.4399,
      "duration": 0.2205,
      "velocity": 124,
      "chip": "ym2612"
    },
    {
      "channel": 4,
      "note": 50,
      "start": 149.4472,
      "duration": 0.0796,
      "velocity": 127,
      "chip": "ym2612"
    },
    {
      "channel": 5,
      "note": 52,
      "start": 149.5803,
      "duration": 0.1317,
      "velocity": 88,
      "chip": "ym2612"
    },
    {
      "channel": 1,
      "note": 62,
      "start": 149.5838,
      "duration": 0.1099,
      "velocity": 104,
      "chip": "ym2612"
    },
    {
      "channel": 4,
      "note": 55,
      "start": 149.5871,
      "duration": 0.1247,
      "velocity": 120,
      "chip": "ym2612"
    },
    {
      "channel": 2,
      "note": 50,
      "start": 149.6144,
      "duration": 0.0977,
      "velocity": 127,
      "chip": "ym2612"
    },
    {
      "channel": 5,
      "note": 55,
      "start": 149.7472,
      "duration": 0.0968,
      "velocity": 88,
      "chip": "ym2612"
    },
    {
      "channel": 1,
      "note": 64,
      "start": 149.7509,
      "duration": 0.2265,
      "velocity": 104,
      "chip": "ym2612"
    },
    {
      "channel": 2,
      "note": 39,
      "start": 149.7541,
      "duration": 0.1248,
      "velocity": 116,
      "chip": "ym2612"
    },
    {
      "channel": 3,
      "note": 37,
      "start": 149.7573,
      "duration": 0.2202,
      "velocity": 124,
      "chip": "ym2612"
    },
    {
      "channel": 4,
      "note": 52,
      "start": 149.7643,
      "duration": 0.2466,
      "velocity": 127,
      "chip": "ym2612"
    },
    {
      "channel": 5,
      "note": 57,
      "start": 149.8976,
      "duration": 0.0801,
      "velocity": 88,
      "chip": "ym2612"
    },
    {
      "channel": 2,
      "note": 55,
      "start": 149.9014,
      "duration": 0.1262,
      "velocity": 120,
      "chip": "ym2612"
    },
    {
      "channel": 1,
      "note": 64,
      "start": 150.0648,
      "duration": 0.0961,
      "velocity": 104,
      "chip": "ym2612"
    },
    {
      "channel": 2,
      "note": 39,
      "start": 150.0682,
      "duration": 0.1263,
      "velocity": 116,
      "chip": "ym2612"
    },
    {
      "channel": 3,
      "note": 37,
      "start": 150.0714,
      "duration": 0.2246,
      "velocity": 124,
      "chip": "ym2612"
    },
    {
      "channel": 4,
      "note": 52,
      "start": 150.098,
      "duration": 0.0964,
      "velocity": 127,
      "chip": "ym2612"
    },
    {
      "channel": 5,
      "note": 52,
      "start": 150.2317,
      "duration": 0.0961,
      "velocity": 88,
      "chip": "ym2612"
    },
    {
      "channel": 1,
      "note": 64,
      "start": 150.2356,
      "duration": 0.1256,
      "velocity": 104,
      "chip": "ym2612"
    },
    {
      "channel": 2,
      "note": 39,
      "start": 150.239,
      "duration": 0.1225,
      "velocity": 116,
      "chip": "ym2612"
    },
    {
      "channel": 4,
      "note": 52,
      "start": 150.2481,
      "duration": 0.1314,
      "velocity": 127,
      "chip": "ym2612"
    },
    {
      "channel": 5,
      "note": 55,
      "start": 150.3828,
      "duration": 0.1121,
      "velocity": 88,
      "chip": "ym2612"
    },
    {
      "channel": 1,
      "note": 62,
      "start": 150.3863,
      "duration": 0.1083,
      "velocity": 104,
      "chip": "ym2612"
    },
    {
      "channel": 3,
      "note": 85,
      "start": 150.39,
      "duration": 0.1214,
      "velocity": 127,
      "chip": "ym2612"
    },
    {
      "channel": 2,
      "note": 37,
      "start": 150.3933,
      "duration": 0.1609,
      "velocity": 124,
      "chip": "ym2612"
    },
    {
      "channel": 4,
      "note": 50,
      "start": 150.4149,
      "duration": 0.0966,
      "velocity": 127,
      "chip": "ym2612"
    },
    {
      "channel": 5,
      "note": 57,
      "start": 150.5496,
      "duration": 0.0955,
      "velocity": 88,
      "chip": "ym2612"
    },
    {
      "channel": 1,
      "note": 64,
      "start": 150.553,
      "duration": 0.0919,
      "velocity": 104,
      "chip": "ym2612"
    },
    {
      "channel": 2,
      "note": 39,
      "start": 150.5567,
      "duration": 0.1217,
      "velocity": 116,
      "chip": "ym2612"
    },
    {
      "channel": 4,
      "note": 52,
      "start": 150.5649,
      "duration": 0.1134,
      "velocity": 127,
      "chip": "ym2612"
    },
    {
      "channel": 5,
      "note": 47,
      "start": 150.6983,
      "duration": 0.1136,
      "velocity": 88,
      "chip": "ym2612"
    },
    {
      "channel": 1,
      "note": 62,
      "start": 150.7017,
      "duration": 0.11,
      "velocity": 104,
      "chip": "ym2612"
    },
    {
      "channel": 3,
      "note": 85,
      "start": 150.705,
      "duration": 0.1234,
      "velocity": 127,
      "chip": "ym2612"
    },
    {
      "channel": 4,
      "note": 37,
      "start": 150.7083,
      "duration": 0.2372,
      "velocity": 124,
      "chip": "ym2612"
    },
    {
      "channel": 2,
      "note": 50,
      "start": 150.732,
      "duration": 0.0967,
      "velocity": 127,
      "chip": "ym2612"
    },
    {
      "channel": 5,
      "note": 47,
      "start": 150.8653,
      "duration": 0.1301,
      "velocity": 88,
      "chip": "ym2612"
    },
    {
      "channel": 1,
      "note": 59,
      "start": 150.8688,
      "duration": 0.0765,
      "velocity": 104,
      "chip": "ym2612"
    },
    {
      "channel": 2,
      "note": 39,
      "start": 150.8721,
      "duration": 0.1234,
      "velocity": 116,
      "chip": "ym2612"
    },
    {
      "channel": 3,
      "note": 47,
      "start": 150.899,
      "duration": 0.0646,
      "velocity": 127,
      "chip": "ym2612"
    },
    {
      "channel": 5,
      "note": 50,
      "start": 151.0333,
      "duration": 0.0973,
      "velocity": 88,
      "chip": "ym2612"
    },
    {
      "channel": 1,
      "note": 59,
      "start": 151.0369,
      "duration": 0.2604,
      "velocity": 104,
      "chip": "ym2612"
    },
    {
      "channel": 4,
      "note": 85,
      "start": 151.0407,
      "duration": 0.1216,
      "velocity": 127,
      "chip": "ym2612"
    },
    {
      "channel": 3,
      "note": 37,
      "start": 151.044,
      "duration": 0.2184,
      "velocity": 124,
      "chip": "ym2612"
    },
    {
      "channel": 2,
      "note": 47,
      "start": 151.0512,
      "duration": 0.2614,
      "velocity": 127,
      "chip": "ym2612"
    },
    {
      "channel": 5,
      "note": 52,
      "start": 151.1826,
      "duration": 0.08,
      "velocity": 88,
      "chip": "ym2612"
    },
    {
      "channel": 1,
      "note": 64,
      "start": 151.3499,
      "duration": 0.0961,
      "velocity": 104,
      "chip": "ym2612"
    },
    {
      "channel": 2,
      "note": 39,
      "start": 151.3534,
      "duration": 0.1262,
      "velocity": 116,
      "chip": "ym2612"
    },
    {
      "channel": 3,
      "note": 37,
      "start": 151.3565,
      "duration": 0.2229,
      "velocity": 124,
      "chip": "ym2612"
    },
    {
      "channel": 4,
      "note": 52,
      "start": 151.3664,
      "duration": 0.113,
      "velocity": 127,
      "chip": "ym2612"
    },
    {
      "channel": 5,
      "note": 52,
      "start": 151.4997,
      "duration": 0.1133,
      "velocity": 88,
      "chip": "ym2612"
    },
    {
      "channel": 1,
      "note": 64,
      "start": 151.503,
      "duration": 0.1098,
      "velocity": 104,
      "chip": "ym2612"
    },
    {
      "channel": 4,
      "note": 55,
      "start": 151.5064,
      "duration": 0.1246,
      "velocity": 120,
      "chip": "ym2612"
    },
    {
      "channel": 2,
      "note": 52,
      "start": 151.5329,
      "duration": 0.0982,
      "velocity": 127,
      "chip": "ym2612"
    },
    {
      "channel": 5,
      "note": 55,
      "start": 151.6661,
      "duration": 0.0971,
      "velocity": 88,
      "chip": "ym2612"
    },
    {
      "channel": 1,
      "note": 62,
      "start": 151.6696,
      "duration": 0.0766,
      "velocity": 104,
      "chip": "ym2612"
    },
    {
      "channel": 2,
      "note": 39,
      "start": 151.6729,
      "duration": 0.1252,
      "velocity": 116,
      "chip": "ym2612"
    },
    {
      "channel": 3,
      "note": 37,
      "start": 151.6771,
      "duration": 0.2194,
      "velocity": 124,
      "chip": "ym2612"
    },
    {
      "channel": 4,
      "note": 50,
      "start": 151.7001,
      "duration": 0.063,
      "velocity": 127,
      "chip": "ym2612"
    },
    {
      "channel": 5,
      "note": 57,
      "start": 151.8332,
      "duration": 0.0969,
      "velocity": 88,
      "chip": "ym2612"
    },
    {
      "channel": 1,
      "note": 64,
      "start": 151.8371,
      "duration": 0.0928,
      "velocity": 104,
      "chip": "ym2612"
    },
    {
      "channel": 4,
      "note": 55,
      "start": 151.8404,
      "duration": 0.1245,
      "velocity": 120,
      "chip": "ym2612"
    },
    {
      "channel": 2,
      "note": 52,
      "start": 151.8504,
      "duration": 0.1147,
      "velocity": 127,
      "chip": "ym2612"
    },
    {
      "channel": 5,
      "note": 52,
      "start": 151.9837,
      "duration": 0.1132,
      "velocity": 88,
      "chip": "ym2612"
    },
    {
      "channel": 1,
      "note": 62,
      "start": 151.9872,
      "duration": 0.0761,
      "velocity": 104,
      "chip": "ym2612"
    },
    {
      "channel": 2,
      "note": 39,
      "start": 151.9904,
      "duration": 0.1231,
      "velocity": 116,
      "chip": "ym2612"
    },
    {
      "channel": 3,
      "note": 37,
      "start": 151.9936,
      "duration": 0.2366,
      "velocity": 124,
      "chip": "ym2612"
    },
    {
      "channel": 4,
      "note": 50,
      "start": 152.0171,
      "duration": 0.0798,
      "velocity": 127,
      "chip": "ym2612"
    },
    {
      "channel": 5,
      "note": 52,
      "start": 152.1503,
      "duration": 0.1302,
      "velocity": 88,
      "chip": "ym2612"
    },
    {
      "channel": 1,
      "note": 62,
      "start": 152.1538,
      "duration": 0.0931,
      "velocity": 104,
      "chip": "ym2612"
    },
    {
      "channel": 4,
      "note": 55,
      "start": 152.1575,
      "duration": 0.1229,
      "velocity": 120,
      "chip": "ym2612"
    },
    {
      "channel": 2,
      "note": 50,
      "start": 152.1673,
      "duration": 0.1134,
      "velocity": 127,
      "chip": "ym2612"
    },
    {
      "channel": 5,
      "note": 55,
      "start": 152.302,
      "duration": 0.112,
      "velocity": 88,
      "chip": "ym2612"
    },
    {
      "channel": 1,
      "note": 64,
      "start": 152.3054,
      "duration": 0.1085,
      "velocity": 104,
      "chip": "ym2612"
    },
    {
      "channel": 2,
      "note": 39,
      "start": 152.3086,
      "duration": 0.1222,
      "velocity": 116,
      "chip": "ym2612"
    },
    {
      "channel": 3,
      "note": 37,
      "start": 152.3118,
      "duration": 0.2371,
      "velocity": 124,
      "chip": "ym2612"
    },
    {
      "channel": 4,
      "note": 52,
      "start": 152.334,
      "duration": 0.0966,
      "velocity": 127,
      "chip": "ym2612"
    },
    {
      "channel": 5,
      "note": 57,
      "start": 152.469,
      "duration": 0.0801,
      "velocity": 88,
      "chip": "ym2612"
    },
    {
      "channel": 1,
      "note": 62,
      "start": 152.4725,
      "duration": 0.0763,
      "velocity": 104,
      "chip": "ym2612"
    },
    {
      "channel": 4,
      "note": 55,
      "start": 152.4759,
      "duration": 0.1215,
      "velocity": 120,
      "chip": "ym2612"
    },
    {
      "channel": 2,
      "note": 50,
      "start": 152.5014,
      "duration": 0.0628,
      "velocity": 127,
      "chip": "ym2612"
    },
    {
      "channel": 1,
      "note": 64,
      "start": 152.6361,
      "duration": 0.0948,
      "velocity": 104,
      "chip": "ym2612"
    },
    {
      "channel": 2,
      "note": 39,
      "start": 152.6395,
      "duration": 0.1251,
      "velocity": 116,
      "chip": "ym2612"
    },
    {
      "channel": 3,
      "note": 37,
      "start": 152.6427,
      "duration": 0.2218,
      "velocity": 124,
      "chip": "ym2612"
    },
    {
      "channel": 5,
      "note": 52,
      "start": 152.6512,
      "duration": 0.1132,
      "velocity": 127,
      "chip": "ym2612"
    },
    {
      "channel": 4,
      "note": 47,
      "start": 152.7847,
      "duration": 0.1132,
      "velocity": 88,
      "chip": "ym2612"
    },
    {
      "channel": 1,
      "note": 62,
      "start": 152.788,
      "duration": 0.1097,
      "velocity": 104,
      "chip": "ym2612"
    },
    {
      "channel": 2,
      "note": 39,
      "start": 152.7915,
      "duration": 0.1232,
      "velocity": 116,
      "chip": "ym2612"
    },
    {
      "channel": 5,
      "note": 50,
      "start": 152.8178,
      "duration": 0.0967,
      "velocity": 127,
      "chip": "ym2612"
    },
    {
      "channel": 4,
      "note": 50,
      "start": 152.9512,
      "duration": 0.0985,
      "velocity": 88,
      "chip": "ym2612"
    },
    {
      "channel": 1,
      "note": 59,
      "start": 152.9545,
      "duration": 0.0949,
      "velocity": 104,
      "chip": "ym2612"
    },
    {
      "channel": 3,
      "note": 85,
      "start": 152.9586,
      "duration": 0.1228,
      "velocity": 127,
      "chip": "ym2612"
    },
    {
      "channel": 5,
      "note": 37,
      "start": 152.9622,
      "duration": 0.2194,
      "velocity": 124,
      "chip": "ym2612"
    },
    {
      "channel": 2,
      "note": 47,
      "start": 152.9698,
      "duration": 0.1119,
      "velocity": 127,
      "chip": "ym2612"
    },
    {
      "channel": 4,
      "note": 52,
      "start": 153.1013,
      "duration": 0.1151,
      "velocity": 88,
      "chip": "ym2612"
    },
    {
      "channel": 1,
      "note": 59,
      "start": 153.1047,
      "duration": 0.1116,
      "velocity": 104,
      "chip": "ym2612"
    },
    {
      "channel": 2,
      "note": 39,
      "start": 153.1079,
      "duration": 0.1239,
      "velocity": 116,
      "chip": "ym2612"
    },
    {
      "channel": 3,
      "note": 47,
      "start": 153.1365,
      "duration": 0.0951,
      "velocity": 127,
      "chip": "ym2612"
    },
    {
      "channel": 4,
      "note": 59,
      "start": 153.2683,
      "duration": 0.0968,
      "velocity": 88,
      "chip": "ym2612"
    },
    {
      "channel": 1,
      "note": 62,
      "start": 153.2717,
      "duration": 0.1267,
      "velocity": 104,
      "chip": "ym2612"
    },
    {
      "channel": 5,
      "note": 85,
      "start": 153.2753,
      "duration": 0.1234,
      "velocity": 127,
      "chip": "ym2612"
    },
    {
      "channel": 3,
      "note": 37,
      "start": 153.2785,
      "duration": 0.2202,
      "velocity": 124,
      "chip": "ym2612"
    },
    {
      "channel": 2,
      "note": 50,
      "start": 153.3035,
      "duration": 0.1284,
      "velocity": 127,
      "chip": "ym2612"
    },
    {
      "channel": 4,
      "note": 59,
      "start": 153.4353,
      "duration": 0.1301,
      "velocity": 88,
      "chip": "ym2612"
    },
    {
      "channel": 1,
      "note": 59,
      "start": 153.4392,
      "duration": 0.0594,
      "velocity": 104,
      "chip": "ym2612"
    },
    {
      "channel": 2,
      "note": 39,
      "start": 153.4424,
      "duration": 0.1232,
      "velocity": 116,
      "chip": "ym2612"
    },
    {
      "channel": 5,
      "note": 47,
      "start": 153.4523,
      "duration": 0.0797,
      "velocity": 127,
      "chip": "ym2612"
    },
    {
      "channel": 4,
      "note": 62,
      "start": 153.5858,
      "duration": 0.1131,
      "velocity": 88,
      "chip": "ym2612"
    },
    {
      "channel": 1,
      "note": 62,
      "start": 153.5895,
      "duration": 0.211,
      "velocity": 104,
      "chip": "ym2612"
    },
    {
      "channel": 3,
      "note": 85,
      "start": 153.5933,
      "duration": 0.1238,
      "velocity": 127,
      "chip": "ym2612"
    },
    {
      "channel": 5,
      "note": 37,
      "start": 153.5965,
      "duration": 0.2361,
      "velocity": 124,
      "chip": "ym2612"
    },
    {
      "channel": 2,
      "note": 50,
      "start": 153.6194,
      "duration": 0.2134,
      "velocity": 127,
      "chip": "ym2612"
    },
    {
      "channel": 4,
      "note": 64,
      "start": 153.7525,
      "duration": 0.08,
      "velocity": 88,
      "chip": "ym2612"
    },
    {
      "channel": 1,
      "note": 64,
      "start": 153.9032,
      "duration": 0.1128,
      "velocity": 104,
      "chip": "ym2612"
    },
    {
      "channel": 2,
      "note": 39,
      "start": 153.9066,
      "duration": 0.1262,
      "velocity": 116,
      "chip": "ym2612"
    },
    {
      "channel": 5,
      "note": 37,
      "start": 153.9099,
      "duration": 0.2396,
      "velocity": 124,
      "chip": "ym2612"
    },
    {
      "channel": 3,
      "note": 52,
      "start": 153.9368,
      "duration": 0.0959,
      "velocity": 127,
      "chip": "ym2612"
    },
    {
      "channel": 4,
      "note": 52,
      "start": 154.0697,
      "duration": 0.0972,
      "velocity": 88,
      "chip": "ym2612"
    },
    {
      "channel": 1,
      "note": 64,
      "start": 154.073,
      "duration": 0.0937,
      "velocity": 104,
      "chip": "ym2612"
    },
    {
      "channel": 3,
      "note": 55,
      "start": 154.0765,
      "duration": 0.123,
      "velocity": 120,
      "chip": "ym2612"
    },
    {
      "channel": 2,
      "note": 52,
      "start": 154.103,
      "duration": 0.0967,
      "velocity": 127,
      "chip": "ym2612"
    },
    {
      "channel": 4,
      "note": 55,
      "start": 154.2361,
      "duration": 0.0972,
      "velocity": 88,
      "chip": "ym2612"
    },
    {
      "channel": 1,
      "note": 62,
      "start": 154.2394,
      "duration": 0.0937,
      "velocity": 104,
      "chip": "ym2612"
    },
    {
      "channel": 2,
      "note": 39,
      "start": 154.2427,
      "duration": 0.124,
      "velocity": 116,
      "chip": "ym2612"
    },
    {
      "channel": 5,
      "note": 37,
      "start": 154.247,
      "duration": 0.2212,
      "velocity": 124,
      "chip": "ym2612"
    },
    {
      "channel": 3,
      "note": 50,
      "start": 154.2533,
      "duration": 0.1132,
      "velocity": 127,
      "chip": "ym2612"
    },
    {
      "channel": 4,
      "note": 57,
      "start": 154.3878,
      "duration": 0.1122,
      "velocity": 88,
      "chip": "ym2612"
    },
    {
      "channel": 1,
      "note": 64,
      "start": 154.3912,
      "duration": 0.1086,
      "velocity": 104,
      "chip": "ym2612"
    },
    {
      "channel": 3,
      "note": 55,
      "start": 154.3945,
      "duration": 0.1221,
      "velocity": 120,
      "chip": "ym2612"
    },
    {
      "channel": 2,
      "note": 52,
      "start": 154.4202,
      "duration": 0.0967,
      "velocity": 127,
      "chip": "ym2612"
    },
    {
      "channel": 4,
      "note": 59,
      "start": 154.5547,
      "duration": 0.0955,
      "velocity": 88,
      "chip": "ym2612"
    },
    {
      "channel": 1,
      "note": 62,
      "start": 154.5582,
      "duration": 0.0767,
      "velocity": 104,
      "chip": "ym2612"
    },
    {
      "channel": 2,
      "note": 39,
      "start": 154.5614,
      "duration": 0.1221,
      "velocity": 116,
      "chip": "ym2612"
    },
    {
      "channel": 5,
      "note": 37,
      "start": 154.5647,
      "duration": 0.219,
      "velocity": 124,
      "chip": "ym2612"
    },
    {
      "channel": 3,
      "note": 50,
      "start": 154.5704,
      "duration": 0.0797,
      "velocity": 127,
      "chip": "ym2612"
    },
    {
      "channel": 4,
      "note": 59,
      "start": 154.7035,
      "duration": 0.1302,
      "velocity": 88,
      "chip": "ym2612"
    },
    {
      "channel": 1,
      "note": 62,
      "start": 154.707,
      "duration": 0.1098,
      "velocity": 104,
      "chip": "ym2612"
    },
    {
      "channel": 3,
      "note": 55,
      "start": 154.7103,
      "duration": 0.1233,
      "velocity": 120,
      "chip": "ym2612"
    },
    {
      "channel": 2,
      "note": 50,
      "start": 154.7373,
      "duration": 0.0966,
      "velocity": 127,
      "chip": "ym2612"
    },
    {
      "channel": 4,
      "note": 62,
      "start": 154.8704,
      "duration": 0.0983,
      "velocity": 88,
      "chip": "ym2612"
    },
    {
      "channel": 1,
      "note": 64,
      "start": 154.8744,
      "duration": 0.2267,
      "velocity": 104,
      "chip": "ym2612"
    },
    {
      "channel": 2,
      "note": 39,
      "start": 154.8777,
      "duration": 0.1229,
      "velocity": 116,
      "chip": "ym2612"
    },
    {
      "channel": 5,
      "note": 37,
      "start": 154.881,
      "duration": 0.2205,
      "velocity": 124,
      "chip": "ym2612"
    },
    {
      "channel": 3,
      "note": 52,
      "start": 154.9042,
      "duration": 0.2312,
      "velocity": 127,
      "chip": "ym2612"
    },
    {
      "channel": 4,
      "note": 64,
      "start": 155.0378,
      "duration": 0.0635,
      "velocity": 88,
      "chip": "ym2612"
    },
    {
      "channel": 2,
      "note": 55,
      "start": 155.0416,
      "duration": 0.1259,
      "velocity": 120,
      "chip": "ym2612"
    },
    {
      "channel": 1,
      "note": 64,
      "start": 155.1881,
      "duration": 0.1133,
      "velocity": 104,
      "chip": "ym2612"
    },
    {
      "channel": 2,
      "note": 39,
      "start": 155.1915,
      "duration": 0.1263,
      "velocity": 116,
      "chip": "ym2612"
    },
    {
      "channel": 5,
      "note": 37,
      "start": 155.1948,
      "duration": 0.2397,
      "velocity": 124,
      "chip": "ym2612"
    },
    {
      "channel": 3,
      "note": 52,
      "start": 155.2227,
      "duration": 0.0949,
      "velocity": 127,
      "chip": "ym2612"
    },
    {
      "channel": 4,
      "note": 59,
      "start": 155.3545,
      "duration": 0.0967,
      "velocity": 88,
      "chip": "ym2612"
    },
    {
      "channel": 1,
      "note": 64,
      "start": 155.3579,
      "duration": 0.0932,
      "velocity": 104,
      "chip": "ym2612"
    },
    {
      "channel": 2,
      "note": 39,
      "start": 155.3613,
      "duration": 0.1234,
      "velocity": 116,
      "chip": "ym2612"
    },
    {
      "channel": 3,
      "note": 52,
      "start": 155.3711,
      "duration": 0.1133,
      "velocity": 127,
      "chip": "ym2612"
    },
    {
      "channel": 4,
      "note": 62,
      "start": 155.5044,
      "duration": 0.1137,
      "velocity": 88,
      "chip": "ym2612"
    },
    {
      "channel": 1,
      "note": 62,
      "start": 155.5077,
      "duration": 0.1101,
      "velocity": 104,
      "chip": "ym2612"
    },
    {
      "channel": 5,
      "note": 85,
      "start": 155.5114,
      "duration": 0.1248,
      "velocity": 127,
      "chip": "ym2612"
    },
    {
      "channel": 3,
      "note": 37,
      "start": 155.5146,
      "duration": 0.2369,
      "velocity": 124,
      "chip": "ym2612"
    },
    {
      "channel": 2,
      "note": 50,
      "start": 155.5382,
      "duration": 0.0982,
      "velocity": 127,
      "chip": "ym2612"
    },
    {
      "channel": 4,
      "note": 64,
      "start": 155.6712,
      "duration": 0.0971,
      "velocity": 88,
      "chip": "ym2612"
    },
    {
      "channel": 1,
      "note": 64,
      "start": 155.6746,
      "duration": 0.0936,
      "velocity": 104,
      "chip": "ym2612"
    },
    {
      "channel": 2,
      "note": 39,
      "start": 155.6778,
      "duration": 0.1256,
      "velocity": 116,
      "chip": "ym2612"
    },
    {
      "channel": 5,
      "note": 52,
      "start": 155.7064,
      "duration": 0.0969,
      "velocity": 127,
      "chip": "ym2612"
    },
    {
      "channel": 4,
      "note": 59,
      "start": 155.8382,
      "duration": 0.097,
      "velocity": 88,
      "chip": "ym2612"
    },
    {
      "channel": 1,
      "note": 62,
      "start": 155.8415,
      "duration": 0.0935,
      "velocity": 104,
      "chip": "ym2612"
    },
    {
      "channel": 3,
      "note": 85,
      "start": 155.8451,
      "duration": 0.1249,
      "velocity": 127,
      "chip": "ym2612"
    },
    {
      "channel": 5,
      "note": 37,
      "start": 155.8483,
      "duration": 0.2204,
      "velocity": 124,
      "chip": "ym2612"
    },
    {
      "channel": 2,
      "note": 50,
      "start": 155.8553,
      "duration": 0.1149,
      "velocity": 127,
      "chip": "ym2612"
    },
    {
      "channel": 4,
      "note": 59,
      "start": 155.9885,
      "duration": 0.1302,
      "velocity": 88,
      "chip": "ym2612"
    },
    {
      "channel": 1,
      "note": 59,
      "start": 155.9918,
      "duration": 0.1101,
      "velocity": 104,
      "chip": "ym2612"
    },
    {
      "channel": 2,
      "note": 39,
      "start": 155.9951,
      "duration": 0.1238,
      "velocity": 116,
      "chip": "ym2612"
    },
    {
      "channel": 3,
      "note": 47,
      "start": 156.022,
      "duration": 0.0966,
      "velocity": 127,
      "chip": "ym2612"
    },
    {
      "channel": 4,
      "note": 55,
      "start": 156.1554,
      "duration": 0.0967,
      "velocity": 88,
      "chip": "ym2612"
    },
    {
      "channel": 1,
      "note": 59,
      "start": 156.1591,
      "duration": 0.2281,
      "velocity": 104,
      "chip": "ym2612"
    },
    {
      "channel": 5,
      "note": 85,
      "start": 156.1629,
      "duration": 0.1227,
      "velocity": 127,
      "chip": "ym2612"
    },
    {
      "channel": 3,
      "note": 37,
      "start": 156.1661,
      "duration": 0.2212,
      "velocity": 124,
      "chip": "ym2612"
    },
    {
      "channel": 2,
      "note": 47,
      "start": 156.1727,
      "duration": 0.2466,
      "velocity": 127,
      "chip": "ym2612"
    },
    {
      "channel": 4,
      "note": 57,
      "start": 156.3073,
      "duration": 0.0802,
      "velocity": 88,
      "chip": "ym2612"
    },
    {
      "channel": 1,
      "note": 62,
      "start": 156.4746,
      "duration": 0.0947,
      "velocity": 104,
      "chip": "ym2612"
    },
    {
      "channel": 2,
      "note": 39,
      "start": 156.478,
      "duration": 0.1249,
      "velocity": 116,
      "chip": "ym2612"
    },
    {
      "channel": 3,
      "note": 37,
      "start": 156.4812,
      "duration": 0.2216,
      "velocity": 124,
      "chip": "ym2612"
    },
    {
      "channel": 5,
      "note": 50,
      "start": 156.5064,
      "duration": 0.0964,
      "velocity": 127,
      "chip": "ym2612"
    },
    {
      "channel": 4,
      "note": 52,
      "start": 156.6414,
      "duration": 0.0948,
      "velocity": 88,
      "chip": "ym2612"
    },
    {
      "channel": 1,
      "note": 62,
      "start": 156.6451,
      "duration": 0.0909,
      "velocity": 104,
      "chip": "ym2612"
    },
    {
      "channel": 5,
      "note": 55,
      "start": 156.6486,
      "duration": 0.121,
      "velocity": 120,
      "chip": "ym2612"
    },
    {
      "channel": 2,
      "note": 50,
      "start": 156.6562,
      "duration": 0.1135,
      "velocity": 127,
      "chip": "ym2612"
    },
    {
      "channel": 4,
      "note": 55,
      "start": 156.7894,
      "duration": 0.1138,
      "velocity": 88,
      "chip": "ym2612"
    },
    {
      "channel": 1,
      "note": 64,
      "start": 156.7928,
      "duration": 0.1103,
      "velocity": 104,
      "chip": "ym2612"
    },
    {
      "channel": 2,
      "note": 39,
      "start": 156.7964,
      "duration": 0.1235,
      "velocity": 116,
      "chip": "ym2612"
    },
    {
      "channel": 3,
      "note": 37,
      "start": 156.8005,
      "duration": 0.236,
      "velocity": 124,
      "chip": "ym2612"
    },
    {
      "channel": 5,
      "note": 52,
      "start": 156.8233,
      "duration": 0.0966,
      "velocity": 127,
      "chip": "ym2612"
    },
    {
      "channel": 4,
      "note": 57,
      "start": 156.9564,
      "duration": 0.0984,
      "velocity": 88,
      "chip": "ym2612"
    },
    {
      "channel": 1,
      "note": 62,
      "start": 156.9597,
      "duration": 0.0949,
      "velocity": 104,
      "chip": "ym2612"
    },
    {
      "channel": 5,
      "note": 55,
      "start": 156.963,
      "duration": 0.1237,
      "velocity": 120,
      "chip": "ym2612"
    },
    {
      "channel": 2,
      "note": 50,
      "start": 156.9749,
      "duration": 0.112,
      "velocity": 127,
      "chip": "ym2612"
    },
    {
      "channel": 4,
      "note": 52,
      "start": 157.1065,
      "duration": 0.1152,
      "velocity": 88,
      "chip": "ym2612"
    },
    {
      "channel": 1,
      "note": 64,
      "start": 157.1098,
      "duration": 0.1117,
      "velocity": 104,
      "chip": "ym2612"
    },
    {
      "channel": 2,
      "note": 39,
      "start": 157.1131,
      "duration": 0.1239,
      "velocity": 116,
      "chip": "ym2612"
    },
    {
      "channel": 3,
      "note": 37,
      "start": 157.1162,
      "duration": 0.2374,
      "velocity": 124,
      "chip": "ym2612"
    },
    {
      "channel": 5,
      "note": 52,
      "start": 157.1417,
      "duration": 0.0951,
      "velocity": 127,
      "chip": "ym2612"
    },
    {
      "channel": 4,
      "note": 59,
      "start": 157.2735,
      "duration": 0.1302,
      "velocity": 88,
      "chip": "ym2612"
    },
    {
      "channel": 1,
      "note": 62,
      "start": 157.277,
      "duration": 0.0765,
      "velocity": 104,
      "chip": "ym2612"
    },
    {
      "channel": 5,
      "note": 55,
      "start": 157.2803,
      "duration": 0.1236,
      "velocity": 120,
      "chip": "ym2612"
    },
    {
      "channel": 2,
      "note": 50,
      "start": 157.3087,
      "duration": 0.0617,
      "velocity": 127,
      "chip": "ym2612"
    },
    {
      "channel": 4,
      "note": 62,
      "start": 157.4403,
      "duration": 0.097,
      "velocity": 88,
      "chip": "ym2612"
    },
    {
      "channel": 1,
      "note": 62,
      "start": 157.4438,
      "duration": 0.0933,
      "velocity": 104,
      "chip": "ym2612"
    },
    {
      "channel": 2,
      "note": 39,
      "start": 157.4471,
      "duration": 0.1238,
      "velocity": 116,
      "chip": "ym2612"
    },
    {
      "channel": 3,
      "note": 37,
      "start": 157.451,
      "duration": 0.2207,
      "velocity": 124,
      "chip": "ym2612"
    },
    {
      "channel": 5,
      "note": 50,
      "start": 157.458,
      "duration": 0.1128,
      "velocity": 127,
      "chip": "ym2612"
    },
    {
      "channel": 4,
      "note": 64,
      "start": 157.5909,
      "duration": 0.081,
      "velocity": 88,
      "chip": "ym2612"
    },
    {
      "channel": 1,
      "note": 62,
      "start": 157.5944,
      "duration": 0.0773,
      "velocity": 104,
      "chip": "ym2612"
    },
    {
      "channel": 5,
      "note": 55,
      "start": 157.5978,
      "duration": 0.1245,
      "velocity": 120,
      "chip": "ym2612"
    },
    {
      "channel": 2,
      "note": 50,
      "start": 157.6244,
      "duration": 0.0798,
      "velocity": 127,
      "chip": "ym2612"
    },
    {
      "channel": 1,
      "note": 62,
      "start": 157.7577,
      "duration": 0.0797,
      "velocity": 104,
      "chip": "ym2612"
    },
    {
      "channel": 2,
      "note": 39,
      "start": 157.7612,
      "duration": 0.1281,
      "velocity": 116,
      "chip": "ym2612"
    },
    {
      "channel": 3,
      "note": 37,
      "start": 157.7643,
      "duration": 0.2234,
      "velocity": 124,
      "chip": "ym2612"
    },
    {
      "channel": 4,
      "note": 50,
      "start": 157.7743,
      "duration": 0.08,
      "velocity": 127,
      "chip": "ym2612"
    },
    {
      "channel": 5,
      "note": 52,
      "start": 157.908,
      "duration": 0.1133,
      "velocity": 88,
      "chip": "ym2612"
    },
    {
      "channel": 1,
      "note": 62,
      "start": 157.9115,
      "duration": 0.1096,
      "velocity": 104,
      "chip": "ym2612"
    },
    {
      "channel": 2,
      "note": 39,
      "start": 157.9149,
      "duration": 0.1231,
      "velocity": 116,
      "chip": "ym2612"
    },
    {
      "channel": 4,
      "note": 50,
      "start": 157.9412,
      "duration": 0.0966,
      "velocity": 127,
      "chip": "ym2612"
    },
    {
      "channel": 5,
      "note": 55,
      "start": 158.0744,
      "duration": 0.097,
      "velocity": 88,
      "chip": "ym2612"
    },
    {
      "channel": 1,
      "note": 62,
      "start": 158.0779,
      "duration": 0.0767,
      "velocity": 104,
      "chip": "ym2612"
    },
    {
      "channel": 3,
      "note": 55,
      "start": 158.0818,
      "duration": 0.1229,
      "velocity": 120,
      "chip": "ym2612"
    },
    {
      "channel": 4,
      "note": 37,
      "start": 158.0864,
      "duration": 0.22,
      "velocity": 124,
      "chip": "ym2612"
    },
    {
      "channel": 2,
      "note": 50,
      "start": 158.1084,
      "duration": 0.0632,
      "velocity": 127,
      "chip": "ym2612"
    },
    {
      "channel": 5,
      "note": 57,
      "start": 158.2417,
      "duration": 0.0966,
      "velocity": 88,
      "chip": "ym2612"
    },
    {
      "channel": 1,
      "note": 62,
      "start": 158.2456,
      "duration": 0.0925,
      "velocity": 104,
      "chip": "ym2612"
    },
    {
      "channel": 2,
      "note": 39,
      "start": 158.2489,
      "duration": 0.1229,
      "velocity": 116,
      "chip": "ym2612"
    },
    {
      "channel": 3,
      "note": 50,
      "start": 158.2586,
      "duration": 0.113,
      "velocity": 127,
      "chip": "ym2612"
    },
    {
      "channel": 5,
      "note": 59,
      "start": 158.3931,
      "duration": 0.1121,
      "velocity": 88,
      "chip": "ym2612"
    },
    {
      "channel": 1,
      "note": 64,
      "start": 158.3964,
      "duration": 0.1085,
      "velocity": 104,
      "chip": "ym2612"
    },
    {
      "channel": 4,
      "note": 55,
      "start": 158.3997,
      "duration": 0.122,
      "velocity": 120,
      "chip": "ym2612"
    },
    {
      "channel": 3,
      "note": 37,
      "start": 158.4032,
      "duration": 0.2369,
      "velocity": 124,
      "chip": "ym2612"
    },
    {
      "channel": 2,
      "note": 52,
      "start": 158.4253,
      "duration": 0.0967,
      "velocity": 127,
      "chip": "ym2612"
    },
    {
      "channel": 5,
      "note": 62,
      "start": 158.5601,
      "duration": 0.1287,
      "velocity": 88,
      "chip": "ym2612"
    },
    {
      "channel": 1,
      "note": 62,
      "start": 158.5634,
      "duration": 0.0918,
      "velocity": 104,
      "chip": "ym2612"
    },
    {
      "channel": 2,
      "note": 39,
      "start": 158.5667,
      "duration": 0.1222,
      "velocity": 116,
      "chip": "ym2612"
    },
    {
      "channel": 4,
      "note": 50,
      "start": 158.5754,
      "duration": 0.1132,
      "velocity": 127,
      "chip": "ym2612"
    },
    {
      "channel": 5,
      "note": 64,
      "start": 158.7087,
      "duration": 0.1137,
      "velocity": 88,
      "chip": "ym2612"
    },
    {
      "channel": 1,
      "note": 64,
      "start": 158.712,
      "duration": 0.1101,
      "velocity": 104,
      "chip": "ym2612"
    },
    {
      "channel": 3,
      "note": 55,
      "start": 158.7155,
      "duration": 0.1233,
      "velocity": 120,
      "chip": "ym2612"
    },
    {
      "channel": 4,
      "note": 37,
      "start": 158.7207,
      "duration": 0.235,
      "velocity": 124,
      "chip": "ym2612"
    },
    {
      "channel": 2,
      "note": 52,
      "start": 158.7424,
      "duration": 0.0967,
      "velocity": 127,
      "chip": "ym2612"
    },
    {
      "channel": 5,
      "note": 67,
      "start": 158.8759,
      "duration": 0.08,
      "velocity": 88,
      "chip": "ym2612"
    },
    {
      "channel": 1,
      "note": 62,
      "start": 158.8795,
      "duration": 0.0944,
      "velocity": 104,
      "chip": "ym2612"
    },
    {
      "channel": 2,
      "note": 39,
      "start": 158.8829,
      "duration": 0.123,
      "velocity": 116,
      "chip": "ym2612"
    },
    {
      "channel": 3,
      "note": 50,
      "start": 158.9095,
      "duration": 0.0962,
      "velocity": 127,
      "chip": "ym2612"
    },
    {
      "channel": 4,
      "note": 76,
      "start": 159.0432,
      "duration": 0.1809,
      "velocity": 88,
      "chip": "ym2612"
    },
    {
      "channel": 5,
      "note": 81,
      "start": 159.0465,
      "duration": 0.2263,
      "velocity": 88,
      "chip": "ym2612"
    },
    {
      "channel": 1,
      "note": 42,
      "start": 159.0504,
      "duration": 0.1388,
      "velocity": 106,
      "chip": "ym2612"
    },
    {
      "channel": 2,
      "note": 39,
      "start": 159.0536,
      "duration": 0.1192,
      "velocity": 116,
      "chip": "ym2612"
    },
    {
      "channel": 3,
      "note": 57,
      "start": 159.193,
      "duration": 0.1146,
      "velocity": 88,
      "chip": "ym2612"
    },
    {
      "channel": 1,
      "note": 42,
      "start": 159.1963,
      "duration": 0.1598,
      "velocity": 106,
      "chip": "ym2612"
    },
    {
      "channel": 2,
      "note": 55,
      "start": 159.1995,
      "duration": 0.1233,
      "velocity": 120,
      "chip": "ym2612"
    },
    {
      "channel": 3,
      "note": 60,
      "start": 159.3594,
      "duration": 0.0968,
      "velocity": 88,
      "chip": "ym2612"
    },
    {
      "channel": 4,
      "note": 81,
      "start": 159.363,
      "duration": 0.2603,
      "velocity": 88,
      "chip": "ym2612"
    },
    {
      "channel": 5,
      "note": 76,
      "start": 159.3666,
      "duration": 0.1732,
      "velocity": 88,
      "chip": "ym2612"
    },
    {
      "channel": 1,
      "note": 32,
      "start": 159.3695,
      "duration": 0.1367,
      "velocity": 106,
      "chip": "ym2612"
    },
    {
      "channel": 2,
      "note": 39,
      "start": 159.3726,
      "duration": 0.1172,
      "velocity": 116,
      "chip": "ym2612"
    },
    {
      "channel": 3,
      "note": 62,
      "start": 159.5095,
      "duration": 0.1136,
      "velocity": 88,
      "chip": "ym2612"
    },
    {
      "channel": 1,
      "note": 42,
      "start": 159.5129,
      "duration": 0.1603,
      "velocity": 106,
      "chip": "ym2612"
    },
    {
      "channel": 2,
      "note": 55,
      "start": 159.516,
      "duration": 0.1255,
      "velocity": 120,
      "chip": "ym2612"
    },
    {
      "channel": 3,
      "note": 57,
      "start": 159.6765,
      "duration": 0.0968,
      "velocity": 88,
      "chip": "ym2612"
    },
    {
      "channel": 4,
      "note": 79,
      "start": 159.6802,
      "duration": 0.0447,
      "velocity": 88,
      "chip": "ym2612"
    },
    {
      "channel": 5,
      "note": 74,
      "start": 159.6834,
      "duration": 0.0734,
      "velocity": 88,
      "chip": "ym2612"
    },
    {
      "channel": 1,
      "note": 32,
      "start": 159.6862,
      "duration": 0.1537,
      "velocity": 106,
      "chip": "ym2612"
    },
    {
      "channel": 2,
      "note": 39,
      "start": 159.6893,
      "duration": 0.119,
      "velocity": 116,
      "chip": "ym2612"
    },
    {
      "channel": 3,
      "note": 57,
      "start": 159.8439,
      "duration": 0.1312,
      "velocity": 88,
      "chip": "ym2612"
    },
    {
      "channel": 4,
      "note": 76,
      "start": 159.8473,
      "duration": 0.0596,
      "velocity": 88,
      "chip": "ym2612"
    },
    {
      "channel": 5,
      "note": 81,
      "start": 159.8504,
      "duration": 0.0567,
      "velocity": 88,
      "chip": "ym2612"
    },
    {
      "channel": 1,
      "note": 32,
      "start": 159.8532,
      "duration": 0.1369,
      "velocity": 106,
      "chip": "ym2612"
    },
    {
      "channel": 2,
      "note": 55,
      "start": 159.8564,
      "duration": 0.1189,
      "velocity": 120,
      "chip": "ym2612"
    },
    {
      "channel": 3,
      "note": 60,
      "start": 159.9936,
      "duration": 0.1134,
      "velocity": 88,
      "chip": "ym2612"
    },
    {
      "channel": 4,
      "note": 81,
      "start": 159.9973,
      "duration": 0.1766,
      "velocity": 88,
      "chip": "ym2612"
    },
    {
      "channel": 5,
      "note": 76,
      "start": 160.0009,
      "duration": 0.2064,
      "velocity": 88,
      "chip": "ym2612"
    },
    {
      "channel": 1,
      "note": 42,
      "start": 160.0041,
      "duration": 0.1529,
      "velocity": 106,
      "chip": "ym2612"
    },
    {
      "channel": 2,
      "note": 39,
      "start": 160.0073,
      "duration": 0.1167,
      "velocity": 116,
      "chip": "ym2612"
    },
    {
      "channel": 3,
      "note": 62,
      "start": 160.1607,
      "duration": 0.0799,
      "velocity": 88,
      "chip": "ym2612"
    },
    {
      "channel": 1,
      "note": 32,
      "start": 160.164,
      "duration": 0.1448,
      "velocity": 106,
      "chip": "ym2612"
    },
    {
      "channel": 2,
      "note": 55,
      "start": 160.1671,
      "duration": 0.1237,
      "velocity": 120,
      "chip": "ym2612"
    },
    {
      "channel": 4,
      "note": 76,
      "start": 160.313,
      "duration": 0.2462,
      "velocity": 88,
      "chip": "ym2612"
    },
    {
      "channel": 5,
      "note": 81,
      "start": 160.3161,
      "duration": 0.2433,
      "velocity": 88,
      "chip": "ym2612"
    },
    {
      "channel": 1,
      "note": 42,
      "start": 160.3189,
      "duration": 0.1568,
      "velocity": 106,
      "chip": "ym2612"
    },
    {
      "channel": 2,
      "note": 39,
      "start": 160.3224,
      "duration": 0.1187,
      "velocity": 116,
      "chip": "ym2612"
    },
    {
      "channel": 3,
      "note": 52,
      "start": 160.4793,
      "duration": 0.0951,
      "velocity": 88,
      "chip": "ym2612"
    },
    {
      "channel": 1,
      "note": 42,
      "start": 160.4827,
      "duration": 0.1598,
      "velocity": 106,
      "chip": "ym2612"
    },
    {
      "channel": 2,
      "note": 55,
      "start": 160.4858,
      "duration": 0.1232,
      "velocity": 120,
      "chip": "ym2612"
    },
    {
      "channel": 3,
      "note": 55,
      "start": 160.6458,
      "duration": 0.0954,
      "velocity": 88,
      "chip": "ym2612"
    },
    {
      "channel": 4,
      "note": 81,
      "start": 160.6495,
      "duration": 0.2589,
      "velocity": 88,
      "chip": "ym2612"
    },
    {
      "channel": 5,
      "note": 76,
      "start": 160.6527,
      "duration": 0.2222,
      "velocity": 88,
      "chip": "ym2612"
    },
    {
      "channel": 1,
      "note": 32,
      "start": 160.6555,
      "duration": 0.1357,
      "velocity": 106,
      "chip": "ym2612"
    },
    {
      "channel": 2,
      "note": 39,
      "start": 160.6588,
      "duration": 0.1161,
      "velocity": 116,
      "chip": "ym2612"
    },
    {
      "channel": 3,
      "note": 57,
      "start": 160.7946,
      "duration": 0.1136,
      "velocity": 88,
      "chip": "ym2612"
    },
    {
      "channel": 1,
      "note": 42,
      "start": 160.7979,
      "duration": 0.1603,
      "velocity": 106,
      "chip": "ym2612"
    },
    {
      "channel": 2,
      "note": 55,
      "start": 160.801,
      "duration": 0.124,
      "velocity": 120,
      "chip": "ym2612"
    },
    {
      "channel": 3,
      "note": 59,
      "start": 160.9615,
      "duration": 0.0984,
      "velocity": 88,
      "chip": "ym2612"
    },
    {
      "channel": 4,
      "note": 79,
      "start": 160.9651,
      "duration": 0.0949,
      "velocity": 88,
      "chip": "ym2612"
    },
    {
      "channel": 5,
      "note": 74,
      "start": 160.9687,
      "duration": 0.073,
      "velocity": 88,
      "chip": "ym2612"
    },
    {
      "channel": 1,
      "note": 32,
      "start": 160.9716,
      "duration": 0.1367,
      "velocity": 106,
      "chip": "ym2612"
    },
    {
      "channel": 2,
      "note": 39,
      "start": 160.9762,
      "duration": 0.1157,
      "velocity": 116,
      "chip": "ym2612"
    },
    {
      "channel": 3,
      "note": 59,
      "start": 161.1118,
      "duration": 0.1301,
      "velocity": 88,
      "chip": "ym2612"
    },
    {
      "channel": 4,
      "note": 76,
      "start": 161.1152,
      "duration": 0.0767,
      "velocity": 88,
      "chip": "ym2612"
    },
    {
      "channel": 5,
      "note": 71,
      "start": 161.1183,
      "duration": 0.0738,
      "velocity": 88,
      "chip": "ym2612"
    },
    {
      "channel": 1,
      "note": 42,
      "start": 161.1215,
      "duration": 0.0703,
      "velocity": 106,
      "chip": "ym2612"
    },
    {
      "channel": 2,
      "note": 55,
      "start": 161.1246,
      "duration": 0.1175,
      "velocity": 120,
      "chip": "ym2612"
    },
    {
      "channel": 1,
      "note": 42,
      "start": 161.1959,
      "duration": 0.1627,
      "velocity": 106,
      "chip": "ym2612"
    },
    {
      "channel": 3,
      "note": 62,
      "start": 161.2785,
      "duration": 0.0968,
      "velocity": 88,
      "chip": "ym2612"
    },
    {
      "channel": 4,
      "note": 71,
      "start": 161.2821,
      "duration": 0.2269,
      "velocity": 88,
      "chip": "ym2612"
    },
    {
      "channel": 5,
      "note": 76,
      "start": 161.2853,
      "duration": 0.257,
      "velocity": 88,
      "chip": "ym2612"
    },
    {
      "channel": 2,
      "note": 32,
      "start": 161.2886,
      "duration": 0.1537,
      "velocity": 106,
      "chip": "ym2612"
    },
    {
      "channel": 3,
      "note": 64,
      "start": 161.4462,
      "duration": 0.0627,
      "velocity": 88,
      "chip": "ym2612"
    },
    {
      "channel": 1,
      "note": 42,
      "start": 161.4495,
      "duration": 0.1427,
      "velocity": 106,
      "chip": "ym2612"
    },
    {
      "channel": 2,
      "note": 55,
      "start": 161.4526,
      "duration": 0.1232,
      "velocity": 120,
      "chip": "ym2612"
    },
    {
      "channel": 4,
      "note": 76,
      "start": 161.5964,
      "duration": 0.2144,
      "velocity": 88,
      "chip": "ym2612"
    },
    {
      "channel": 5,
      "note": 81,
      "start": 161.5998,
      "duration": 0.2111,
      "velocity": 88,
      "chip": "ym2612"
    },
    {
      "channel": 1,
      "note": 42,
      "start": 161.6027,
      "duration": 0.1565,
      "velocity": 106,
      "chip": "ym2612"
    },
    {
      "channel": 2,
      "note": 39,
      "start": 161.6058,
      "duration": 0.1217,
      "velocity": 116,
      "chip": "ym2612"
    },
    {
      "channel": 3,
      "note": 57,
      "start": 161.7629,
      "duration": 0.0964,
      "velocity": 88,
      "chip": "ym2612"
    },
    {
      "channel": 1,
      "note": 42,
      "start": 161.7666,
      "duration": 0.1428,
      "velocity": 106,
      "chip": "ym2612"
    },
    {
      "channel": 2,
      "note": 55,
      "start": 161.7697,
      "duration": 0.1246,
      "velocity": 120,
      "chip": "ym2612"
    },
    {
      "channel": 3,
      "note": 60,
      "start": 161.9127,
      "duration": 0.1135,
      "velocity": 88,
      "chip": "ym2612"
    },
    {
      "channel": 4,
      "note": 76,
      "start": 161.9162,
      "duration": 0.2103,
      "velocity": 88,
      "chip": "ym2612"
    },
    {
      "channel": 5,
      "note": 81,
      "start": 161.9194,
      "duration": 0.2404,
      "velocity": 88,
      "chip": "ym2612"
    },
    {
      "channel": 1,
      "note": 32,
      "start": 161.9223,
      "duration": 0.1539,
      "velocity": 106,
      "chip": "ym2612"
    },
    {
      "channel": 2,
      "note": 39,
      "start": 161.9254,
      "duration": 0.1177,
      "velocity": 116,
      "chip": "ym2612"
    },
    {
      "channel": 3,
      "note": 62,
      "start": 162.0796,
      "duration": 0.0969,
      "velocity": 88,
      "chip": "ym2612"
    },
    {
      "channel": 1,
      "note": 42,
      "start": 162.0829,
      "duration": 0.1602,
      "velocity": 106,
      "chip": "ym2612"
    },
    {
      "channel": 2,
      "note": 55,
      "start": 162.086,
      "duration": 0.124,
      "velocity": 120,
      "chip": "ym2612"
    },
    {
      "channel": 3,
      "note": 57,
      "start": 162.2464,
      "duration": 0.0968,
      "velocity": 88,
      "chip": "ym2612"
    },
    {
      "channel": 4,
      "note": 74,
      "start": 162.25,
      "duration": 0.0934,
      "velocity": 88,
      "chip": "ym2612"
    },
    {
      "channel": 5,
      "note": 79,
      "start": 162.2531,
      "duration": 0.0904,
      "velocity": 88,
      "chip": "ym2612"
    },
    {
      "channel": 1,
      "note": 32,
      "start": 162.256,
      "duration": 0.1388,
      "velocity": 106,
      "chip": "ym2612"
    },
    {
      "channel": 2,
      "note": 39,
      "start": 162.2591,
      "duration": 0.1177,
      "velocity": 116,
      "chip": "ym2612"
    },
    {
      "channel": 3,
      "note": 57,
      "start": 162.3983,
      "duration": 0.1286,
      "velocity": 88,
      "chip": "ym2612"
    },
    {
      "channel": 4,
      "note": 81,
      "start": 162.4019,
      "duration": 0.0765,
      "velocity": 88,
      "chip": "ym2612"
    },
    {
      "channel": 5,
      "note": 76,
      "start": 162.4054,
      "duration": 0.0732,
      "velocity": 88,
      "chip": "ym2612"
    },
    {
      "channel": 1,
      "note": 32,
      "start": 162.4082,
      "duration": 0.1536,
      "velocity": 106,
      "chip": "ym2612"
    },
    {
      "channel": 2,
      "note": 55,
      "start": 162.4114,
      "duration": 0.1156,
      "velocity": 120,
      "chip": "ym2612"
    },
    {
      "channel": 3,
      "note": 60,
      "start": 162.5653,
      "duration": 0.0952,
      "velocity": 88,
      "chip": "ym2612"
    },
    {
      "channel": 4,
      "note": 81,
      "start": 162.569,
      "duration": 0.2083,
      "velocity": 88,
      "chip": "ym2612"
    },
    {
      "channel": 5,
      "note": 76,
      "start": 162.572,
      "duration": 0.2054,
      "velocity": 88,
      "chip": "ym2612"
    },
    {
      "channel": 1,
      "note": 42,
      "start": 162.5749,
      "duration": 0.1363,
      "velocity": 106,
      "chip": "ym2612"
    },
    {
      "channel": 2,
      "note": 39,
      "start": 162.578,
      "duration": 0.1159,
      "velocity": 116,
      "chip": "ym2612"
    },
    {
      "channel": 3,
      "note": 62,
      "start": 162.7148,
      "duration": 0.0791,
      "velocity": 88,
      "chip": "ym2612"
    },
    {
      "channel": 1,
      "note": 32,
      "start": 162.7181,
      "duration": 0.1591,
      "velocity": 106,
      "chip": "ym2612"
    },
    {
      "channel": 2,
      "note": 55,
      "start": 162.7216,
      "duration": 0.1225,
      "velocity": 120,
      "chip": "ym2612"
    },
    {
      "channel": 4,
      "note": 79,
      "start": 162.8481,
      "duration": 0.0794,
      "velocity": 88,
      "chip": "ym2612"
    },
    {
      "channel": 5,
      "note": 84,
      "start": 162.8511,
      "duration": 0.0765,
      "velocity": 88,
      "chip": "ym2612"
    },
    {
      "channel": 3,
      "note": 57,
      "start": 162.8811,
      "duration": 0.0978,
      "velocity": 88,
      "chip": "ym2612"
    },
    {
      "channel": 1,
      "note": 42,
      "start": 162.8844,
      "duration": 0.1597,
      "velocity": 106,
      "chip": "ym2612"
    },
    {
      "channel": 2,
      "note": 39,
      "start": 162.8875,
      "duration": 0.1244,
      "velocity": 116,
      "chip": "ym2612"
    },
    {
      "channel": 3,
      "note": 57,
      "start": 163.0477,
      "duration": 0.1301,
      "velocity": 88,
      "chip": "ym2612"
    },
    {
      "channel": 1,
      "note": 42,
      "start": 163.0513,
      "duration": 0.0596,
      "velocity": 106,
      "chip": "ym2612"
    },
    {
      "channel": 4,
      "note": 55,
      "start": 163.0544,
      "duration": 0.1235,
      "velocity": 120,
      "chip": "ym2612"
    },
    {
      "channel": 1,
      "note": 42,
      "start": 163.1149,
      "duration": 0.1629,
      "velocity": 106,
      "chip": "ym2612"
    },
    {
      "channel": 5,
      "note": 79,
      "start": 163.182,
      "duration": 0.1805,
      "velocity": 88,
      "chip": "ym2612"
    },
    {
      "channel": 2,
      "note": 84,
      "start": 163.1857,
      "duration": 0.1924,
      "velocity": 88,
      "chip": "ym2612"
    },
    {
      "channel": 3,
      "note": 60,
      "start": 163.1978,
      "duration": 0.1149,
      "velocity": 88,
      "chip": "ym2612"
    },
    {
      "channel": 4,
      "note": 32,
      "start": 163.2015,
      "duration": 0.1609,
      "velocity": 106,
      "chip": "ym2612"
    },
    {
      "channel": 3,
      "note": 62,
      "start": 163.3658,
      "duration": 0.0789,
      "velocity": 88,
      "chip": "ym2612"
    },
    {
      "channel": 1,
      "note": 42,
      "start": 163.3691,
      "duration": 0.1424,
      "velocity": 106,
      "chip": "ym2612"
    },
    {
      "channel": 4,
      "note": 55,
      "start": 163.3722,
      "duration": 0.1226,
      "velocity": 120,
      "chip": "ym2612"
    },
    {
      "channel": 3,
      "note": 52,
      "start": 163.5151,
      "duration": 0.1133,
      "velocity": 88,
      "chip": "ym2612"
    },
    {
      "channel": 5,
      "note": 78,
      "start": 163.5187,
      "duration": 0.0596,
      "velocity": 88,
      "chip": "ym2612"
    },
    {
      "channel": 2,
      "note": 83,
      "start": 163.522,
      "duration": 0.0731,
      "velocity": 88,
      "chip": "ym2612"
    },
    {
      "channel": 1,
      "note": 32,
      "start": 163.5253,
      "duration": 0.1531,
      "velocity": 106,
      "chip": "ym2612"
    },
    {
      "channel": 3,
      "note": 52,
      "start": 163.6818,
      "duration": 0.1315,
      "velocity": 88,
      "chip": "ym2612"
    },
    {
      "channel": 1,
      "note": 32,
      "start": 163.6852,
      "duration": 0.1601,
      "velocity": 106,
      "chip": "ym2612"
    },
    {
      "channel": 4,
      "note": 55,
      "start": 163.6881,
      "duration": 0.1253,
      "velocity": 120,
      "chip": "ym2612"
    },
    {
      "channel": 5,
      "note": 83,
      "start": 163.8175,
      "duration": 0.2281,
      "velocity": 88,
      "chip": "ym2612"
    },
    {
      "channel": 2,
      "note": 78,
      "start": 163.8207,
      "duration": 0.2251,
      "velocity": 88,
      "chip": "ym2612"
    },
    {
      "channel": 3,
      "note": 55,
      "start": 163.8488,
      "duration": 0.0966,
      "velocity": 88,
      "chip": "ym2612"
    },
    {
      "channel": 1,
      "note": 42,
      "start": 163.8521,
      "duration": 0.1434,
      "velocity": 106,
      "chip": "ym2612"
    },
    {
      "channel": 3,
      "note": 57,
      "start": 163.9991,
      "duration": 0.0799,
      "velocity": 88,
      "chip": "ym2612"
    },
    {
      "channel": 1,
      "note": 42,
      "start": 164.0027,
      "duration": 0.0761,
      "velocity": 106,
      "chip": "ym2612"
    },
    {
      "channel": 4,
      "note": 55,
      "start": 164.0057,
      "duration": 0.1233,
      "velocity": 120,
      "chip": "ym2612"
    },
    {
      "channel": 1,
      "note": 42,
      "start": 164.0829,
      "duration": 15.4679,
      "velocity": 106,
      "chip": "ym2612"
    },
    {
      "channel": 5,
      "note": 81,
      "start": 164.1664,
      "duration": 0.213,
      "velocity": 88,
      "chip": "ym2612"
    },
    {
      "channel": 2,
      "note": 76,
      "start": 164.1701,
      "duration": 0.2275,
      "velocity": 88,
      "chip": "ym2612"
    },
    {
      "channel": 3,
      "note": 42,
      "start": 164.1735,
      "duration": 0.1406,
      "velocity": 106,
      "chip": "ym2612"
    },
    {
      "channel": 4,
      "note": 57,
      "start": 164.3182,
      "duration": 0.1112,
      "velocity": 88,
      "chip": "ym2612"
    },
    {
      "channel": 3,
      "note": 42,
      "start": 164.3216,
      "duration": 0.1592,
      "velocity": 106,
      "chip": "ym2612"
    },
    {
      "channel": 4,
      "note": 60,
      "start": 164.4841,
      "duration": 0.0954,
      "velocity": 88,
      "chip": "ym2612"
    },
    {
      "channel": 5,
      "note": 76,
      "start": 164.4878,
      "duration": 0.2588,
      "velocity": 88,
      "chip": "ym2612"
    },
    {
      "channel": 2,
      "note": 81,
      "start": 164.4909,
      "duration": 0.2558,
      "velocity": 88,
      "chip": "ym2612"
    },
    {
      "channel": 3,
      "note": 32,
      "start": 164.4939,
      "duration": 0.1539,
      "velocity": 106,
      "chip": "ym2612"
    },
    {
      "channel": 4,
      "note": 62,
      "start": 164.6511,
      "duration": 0.0954,
      "velocity": 88,
      "chip": "ym2612"
    },
    {
      "channel": 3,
      "note": 42,
      "start": 164.6545,
      "duration": 0.142,
      "velocity": 106,
      "chip": "ym2612"
    },
    {
      "channel": 4,
      "note": 57,
      "start": 164.7998,
      "duration": 0.1135,
      "velocity": 88,
      "chip": "ym2612"
    },
    {
      "channel": 5,
      "note": 79,
      "start": 164.8034,
      "duration": 0.1266,
      "velocity": 88,
      "chip": "ym2612"
    },
    {
      "channel": 2,
      "note": 74,
      "start": 164.8067,
      "duration": 0.0733,
      "velocity": 88,
      "chip": "ym2612"
    },
    {
      "channel": 3,
      "note": 32,
      "start": 164.8097,
      "duration": 0.1537,
      "velocity": 106,
      "chip": "ym2612"
    },
    {
      "channel": 4,
      "note": 57,
      "start": 164.9668,
      "duration": 0.1301,
      "velocity": 88,
      "chip": "ym2612"
    },
    {
      "channel": 5,
      "note": 81,
      "start": 164.9703,
      "duration": 0.0767,
      "velocity": 88,
      "chip": "ym2612"
    },
    {
      "channel": 2,
      "note": 76,
      "start": 164.9739,
      "duration": 0.0733,
      "velocity": 88,
      "chip": "ym2612"
    },
    {
      "channel": 3,
      "note": 32,
      "start": 164.9768,
      "duration": 0.1367,
      "velocity": 106,
      "chip": "ym2612"
    },
    {
      "channel": 4,
      "note": 60,
      "start": 165.1169,
      "duration": 0.1149,
      "velocity": 88,
      "chip": "ym2612"
    },
    {
      "channel": 5,
      "note": 81,
      "start": 165.1206,
      "duration": 0.21,
      "velocity": 88,
      "chip": "ym2612"
    },
    {
      "channel": 2,
      "note": 76,
      "start": 165.1239,
      "duration": 0.2402,
      "velocity": 88,
      "chip": "ym2612"
    },
    {
      "channel": 3,
      "note": 42,
      "start": 165.1272,
      "duration": 0.1532,
      "velocity": 106,
      "chip": "ym2612"
    },
    {
      "channel": 4,
      "note": 62,
      "start": 165.2841,
      "duration": 0.0798,
      "velocity": 88,
      "chip": "ym2612"
    },
    {
      "channel": 3,
      "note": 32,
      "start": 165.2874,
      "duration": 0.1598,
      "velocity": 106,
      "chip": "ym2612"
    },
    {
      "channel": 5,
      "note": 76,
      "start": 165.4514,
      "duration": 0.0627,
      "velocity": 88,
      "chip": "ym2612"
    },
    {
      "channel": 2,
      "note": 81,
      "start": 165.4545,
      "duration": 0.0597,
      "velocity": 88,
      "chip": "ym2612"
    },
    {
      "channel": 3,
      "note": 42,
      "start": 165.4574,
      "duration": 0.1401,
      "velocity": 106,
      "chip": "ym2612"
    },
    {
      "channel": 4,
      "note": 47,
      "start": 165.6012,
      "duration": 0.1132,
      "velocity": 88,
      "chip": "ym2612"
    },
    {
      "channel": 5,
      "note": 79,
      "start": 165.6047,
      "duration": 0.0764,
      "velocity": 88,
      "chip": "ym2612"
    },
    {
      "channel": 2,
      "note": 74,
      "start": 165.6083,
      "duration": 0.0409,
      "velocity": 88,
      "chip": "ym2612"
    },
    {
      "channel": 3,
      "note": 42,
      "start": 165.6113,
      "duration": 0.1531,
      "velocity": 106,
      "chip": "ym2612"
    },
    {
      "channel": 4,
      "note": 50,
      "start": 165.7681,
      "duration": 0.0964,
      "velocity": 88,
      "chip": "ym2612"
    },
    {
      "channel": 5,
      "note": 76,
      "start": 165.7718,
      "duration": 0.2598,
      "velocity": 88,
      "chip": "ym2612"
    },
    {
      "channel": 2,
      "note": 81,
      "start": 165.7751,
      "duration": 0.2231,
      "velocity": 88,
      "chip": "ym2612"
    },
    {
      "channel": 3,
      "note": 32,
      "start": 165.778,
      "duration": 0.1366,
      "velocity": 106,
      "chip": "ym2612"
    },
    {
      "channel": 4,
      "note": 52,
      "start": 165.9179,
      "duration": 0.1135,
      "velocity": 88,
      "chip": "ym2612"
    },
    {
      "channel": 3,
      "note": 42,
      "start": 165.9213,
      "duration": 0.1602,
      "velocity": 106,
      "chip": "ym2612"
    },
    {
      "channel": 4,
      "note": 55,
      "start": 166.0848,
      "duration": 0.0968,
      "velocity": 88,
      "chip": "ym2612"
    },
    {
      "channel": 5,
      "note": 79,
      "start": 166.0885,
      "duration": 0.0432,
      "velocity": 88,
      "chip": "ym2612"
    },
    {
      "channel": 2,
      "note": 74,
      "start": 166.0918,
      "duration": 0.0732,
      "velocity": 88,
      "chip": "ym2612"
    },
    {
      "channel": 3,
      "note": 32,
      "start": 166.0947,
      "duration": 0.1536,
      "velocity": 106,
      "chip": "ym2612"
    },
    {
      "channel": 4,
      "note": 59,
      "start": 166.2517,
      "duration": 0.1302,
      "velocity": 88,
      "chip": "ym2612"
    },
    {
      "channel": 5,
      "note": 71,
      "start": 166.2554,
      "duration": 0.0431,
      "velocity": 88,
      "chip": "ym2612"
    },
    {
      "channel": 2,
      "note": 76,
      "start": 166.2589,
      "duration": 0.0397,
      "velocity": 88,
      "chip": "ym2612"
    },
    {
      "channel": 3,
      "note": 42,
      "start": 166.2622,
      "duration": 0.0544,
      "velocity": 106,
      "chip": "ym2612"
    },
    {
      "channel": 3,
      "note": 42,
      "start": 166.3205,
      "duration": 0.1629,
      "velocity": 106,
      "chip": "ym2612"
    },
    {
      "channel": 4,
      "note": 62,
      "start": 166.4034,
      "duration": 0.112,
      "velocity": 88,
      "chip": "ym2612"
    },
    {
      "channel": 5,
      "note": 76,
      "start": 166.407,
      "duration": 0.1601,
      "velocity": 88,
      "chip": "ym2612"
    },
    {
      "channel": 2,
      "note": 71,
      "start": 166.4101,
      "duration": 0.1571,
      "velocity": 88,
      "chip": "ym2612"
    },
    {
      "channel": 0,
      "note": 32,
      "start": 166.4134,
      "duration": 0.1535,
      "velocity": 106,
      "chip": "ym2612"
    },
    {
      "channel": 4,
      "note": 64,
      "start": 166.5707,
      "duration": 0.0796,
      "velocity": 88,
      "chip": "ym2612"
    },
    {
      "channel": 0,
      "note": 42,
      "start": 166.574,
      "duration": 0.1415,
      "velocity": 106,
      "chip": "ym2612"
    },
    {
      "channel": 3,
      "note": 55,
      "start": 166.5771,
      "duration": 0.1217,
      "velocity": 120,
      "chip": "ym2612"
    },
    {
      "channel": 5,
      "note": 76,
      "start": 166.7198,
      "duration": 0.0793,
      "velocity": 88,
      "chip": "ym2612"
    },
    {
      "channel": 2,
      "note": 81,
      "start": 166.7229,
      "duration": 0.0763,
      "velocity": 88,
      "chip": "ym2612"
    },
    {
      "channel": 0,
      "note": 42,
      "start": 166.7258,
      "duration": 0.1567,
      "velocity": 106,
      "chip": "ym2612"
    },
    {
      "channel": 4,
      "note": 57,
      "start": 166.8862,
      "duration": 0.098,
      "velocity": 88,
      "chip": "ym2612"
    },
    {
      "channel": 0,
      "note": 42,
      "start": 166.8898,
      "duration": 0.1594,
      "velocity": 106,
      "chip": "ym2612"
    },
    {
      "channel": 3,
      "note": 55,
      "start": 166.8928,
      "duration": 0.1233,
      "velocity": 120,
      "chip": "ym2612"
    },
    {
      "channel": 4,
      "note": 60,
      "start": 167.0527,
      "duration": 0.0983,
      "velocity": 88,
      "chip": "ym2612"
    },
    {
      "channel": 5,
      "note": 76,
      "start": 167.0564,
      "duration": 0.0948,
      "velocity": 88,
      "chip": "ym2612"
    },
    {
      "channel": 2,
      "note": 81,
      "start": 167.0601,
      "duration": 0.0562,
      "velocity": 88,
      "chip": "ym2612"
    },
    {
      "channel": 0,
      "note": 32,
      "start": 167.0629,
      "duration": 0.1366,
      "velocity": 106,
      "chip": "ym2612"
    },
    {
      "channel": 4,
      "note": 62,
      "start": 167.203,
      "duration": 0.1143,
      "velocity": 88,
      "chip": "ym2612"
    },
    {
      "channel": 0,
      "note": 42,
      "start": 167.2062,
      "duration": 0.1603,
      "velocity": 106,
      "chip": "ym2612"
    },
    {
      "channel": 3,
      "note": 55,
      "start": 167.2092,
      "duration": 0.1249,
      "velocity": 120,
      "chip": "ym2612"
    },
    {
      "channel": 4,
      "note": 57,
      "start": 167.37,
      "duration": 0.0968,
      "velocity": 88,
      "chip": "ym2612"
    },
    {
      "channel": 5,
      "note": 79,
      "start": 167.3735,
      "duration": 0.0766,
      "velocity": 88,
      "chip": "ym2612"
    },
    {
      "channel": 2,
      "note": 74,
      "start": 167.3768,
      "duration": 0.0901,
      "velocity": 88,
      "chip": "ym2612"
    },
    {
      "channel": 0,
      "note": 32,
      "start": 167.3796,
      "duration": 0.1379,
      "velocity": 106,
      "chip": "ym2612"
    },
    {
      "channel": 4,
      "note": 57,
      "start": 167.5215,
      "duration": 0.1303,
      "velocity": 88,
      "chip": "ym2612"
    },
    {
      "channel": 5,
      "note": 81,
      "start": 167.5252,
      "duration": 0.0583,
      "velocity": 88,
      "chip": "ym2612"
    },
    {
      "channel": 2,
      "note": 76,
      "start": 167.5283,
      "duration": 0.0553,
      "velocity": 88,
      "chip": "ym2612"
    },
    {
      "channel": 0,
      "note": 32,
      "start": 167.5312,
      "duration": 0.1522,
      "velocity": 106,
      "chip": "ym2612"
    },
    {
      "channel": 3,
      "note": 55,
      "start": 167.5342,
      "duration": 0.1175,
      "velocity": 120,
      "chip": "ym2612"
    },
    {
      "channel": 4,
      "note": 60,
      "start": 167.687,
      "duration": 0.0967,
      "velocity": 88,
      "chip": "ym2612"
    },
    {
      "channel": 5,
      "note": 79,
      "start": 167.6907,
      "duration": 0.128,
      "velocity": 88,
      "chip": "ym2612"
    },
    {
      "channel": 2,
      "note": 84,
      "start": 167.6942,
      "duration": 0.1245,
      "velocity": 88,
      "chip": "ym2612"
    },
    {
      "channel": 0,
      "note": 42,
      "start": 167.6971,
      "duration": 0.1533,
      "velocity": 106,
      "chip": "ym2612"
    },
    {
      "channel": 4,
      "note": 62,
      "start": 167.8539,
      "duration": 0.0633,
      "velocity": 88,
      "chip": "ym2612"
    },
    {
      "channel": 0,
      "note": 32,
      "start": 167.8572,
      "duration": 0.1434,
      "velocity": 106,
      "chip": "ym2612"
    },
    {
      "channel": 3,
      "note": 55,
      "start": 167.8605,
      "duration": 0.125,
      "velocity": 120,
      "chip": "ym2612"
    },
    {
      "channel": 4,
      "note": 57,
      "start": 168.0041,
      "duration": 0.1134,
      "velocity": 88,
      "chip": "ym2612"
    },
    {
      "channel": 5,
      "note": 84,
      "start": 168.0078,
      "duration": 0.0763,
      "velocity": 88,
      "chip": "ym2612"
    },
    {
      "channel": 2,
      "note": 79,
      "start": 168.011,
      "duration": 0.0733,
      "velocity": 88,
      "chip": "ym2612"
    },
    {
      "channel": 0,
      "note": 42,
      "start": 168.0138,
      "duration": 0.1537,
      "velocity": 106,
      "chip": "ym2612"
    },
    {
      "channel": 4,
      "note": 57,
      "start": 168.171,
      "duration": 0.13,
      "velocity": 88,
      "chip": "ym2612"
    },
    {
      "channel": 5,
      "note": 76,
      "start": 168.1745,
      "duration": 0.0765,
      "velocity": 88,
      "chip": "ym2612"
    },
    {
      "channel": 2,
      "note": 81,
      "start": 168.1777,
      "duration": 0.0735,
      "velocity": 88,
      "chip": "ym2612"
    },
    {
      "channel": 0,
      "note": 42,
      "start": 168.1808,
      "duration": 0.0699,
      "velocity": 106,
      "chip": "ym2612"
    },
    {
      "channel": 3,
      "note": 55,
      "start": 168.1838,
      "duration": 0.1171,
      "velocity": 120,
      "chip": "ym2612"
    },
    {
      "channel": 0,
      "note": 42,
      "start": 168.2549,
      "duration": 0.1476,
      "velocity": 106,
      "chip": "ym2612"
    },
    {
      "channel": 4,
      "note": 60,
      "start": 168.3225,
      "duration": 0.112,
      "velocity": 88,
      "chip": "ym2612"
    },
    {
      "channel": 5,
      "note": 79,
      "start": 168.3262,
      "duration": 0.1601,
      "velocity": 88,
      "chip": "ym2612"
    },
    {
      "channel": 2,
      "note": 83,
      "start": 168.3293,
      "duration": 0.1571,
      "velocity": 88,
      "chip": "ym2612"
    },
    {
      "channel": 3,
      "note": 32,
      "start": 168.3325,
      "duration": 0.1536,
      "velocity": 106,
      "chip": "ym2612"
    },
    {
      "channel": 4,
      "note": 62,
      "start": 168.4898,
      "duration": 0.0798,
      "velocity": 88,
      "chip": "ym2612"
    },
    {
      "channel": 0,
      "note": 42,
      "start": 168.493,
      "duration": 0.1598,
      "velocity": 106,
      "chip": "ym2612"
    },
    {
      "channel": 3,
      "note": 55,
      "start": 168.4961,
      "duration": 0.1219,
      "velocity": 120,
      "chip": "ym2612"
    },
    {
      "channel": 4,
      "note": 59,
      "start": 168.6564,
      "duration": 0.0953,
      "velocity": 88,
      "chip": "ym2612"
    },
    {
      "channel": 5,
      "note": 79,
      "start": 168.6604,
      "duration": 0.1747,
      "velocity": 88,
      "chip": "ym2612"
    },
    {
      "channel": 2,
      "note": 84,
      "start": 168.6637,
      "duration": 0.1381,
      "velocity": 88,
      "chip": "ym2612"
    },
    {
      "channel": 0,
      "note": 32,
      "start": 168.667,
      "duration": 0.1346,
      "velocity": 106,
      "chip": "ym2612"
    },
    {
      "channel": 4,
      "note": 59,
      "start": 168.8056,
      "duration": 0.1296,
      "velocity": 88,
      "chip": "ym2612"
    },
    {
      "channel": 0,
      "note": 32,
      "start": 168.8089,
      "duration": 0.1595,
      "velocity": 106,
      "chip": "ym2612"
    },
    {
      "channel": 3,
      "note": 55,
      "start": 168.8118,
      "duration": 0.1233,
      "velocity": 120,
      "chip": "ym2612"
    },
    {
      "channel": 4,
      "note": 62,
      "start": 168.972,
      "duration": 0.0981,
      "velocity": 88,
      "chip": "ym2612"
    },
    {
      "channel": 5,
      "note": 79,
      "start": 168.9757,
      "duration": 0.1781,
      "velocity": 88,
      "chip": "ym2612"
    },
    {
      "channel": 2,
      "note": 83,
      "start": 168.9788,
      "duration": 0.1751,
      "velocity": 88,
      "chip": "ym2612"
    },
    {
      "channel": 0,
      "note": 42,
      "start": 168.9817,
      "duration": 0.1369,
      "velocity": 106,
      "chip": "ym2612"
    },
    {
      "channel": 4,
      "note": 64,
      "start": 169.1222,
      "duration": 0.0801,
      "velocity": 88,
      "chip": "ym2612"
    },
    {
      "channel": 0,
      "note": 42,
      "start": 169.1258,
      "duration": 0.0763,
      "velocity": 106,
      "chip": "ym2612"
    },
    {
      "channel": 3,
      "note": 55,
      "start": 169.129,
      "duration": 0.1233,
      "velocity": 120,
      "chip": "ym2612"
    },
    {
      "channel": 0,
      "note": 42,
      "start": 169.2063,
      "duration": 0.0791,
      "velocity": 106,
      "chip": "ym2612"
    },
    {
      "channel": 4,
      "note": 59,
      "start": 169.289,
      "duration": 0.0967,
      "velocity": 88,
      "chip": "ym2612"
    },
    {
      "channel": 5,
      "note": 69,
      "start": 169.2929,
      "duration": 0.0762,
      "velocity": 104,
      "chip": "ym2612"
    },
    {
      "channel": 2,
      "note": 76,
      "start": 169.2968,
      "duration": 0.039,
      "velocity": 104,
      "chip": "ym2612"
    },
    {
      "channel": 3,
      "note": 37,
      "start": 169.301,
      "duration": 0.2183,
      "velocity": 124,
      "chip": "ym2612"
    },
    {
      "channel": 4,
      "note": 59,
      "start": 169.4558,
      "duration": 0.097,
      "velocity": 88,
      "chip": "ym2612"
    },
    {
      "channel": 0,
      "note": 85,
      "start": 169.4598,
      "duration": 0.1261,
      "velocity": 127,
      "chip": "ym2612"
    },
    {
      "channel": 4,
      "note": 54,
      "start": 169.6061,
      "duration": 0.1134,
      "velocity": 88,
      "chip": "ym2612"
    },
    {
      "channel": 5,
      "note": 69,
      "start": 169.61,
      "duration": 0.0762,
      "velocity": 104,
      "chip": "ym2612"
    },
    {
      "channel": 2,
      "note": 76,
      "start": 169.6133,
      "duration": 0.073,
      "velocity": 104,
      "chip": "ym2612"
    },
    {
      "channel": 3,
      "note": 37,
      "start": 169.6172,
      "duration": 0.2359,
      "velocity": 124,
      "chip": "ym2612"
    },
    {
      "channel": 4,
      "note": 54,
      "start": 169.7728,
      "duration": 0.0969,
      "velocity": 88,
      "chip": "ym2612"
    },
    {
      "channel": 0,
      "note": 85,
      "start": 169.7764,
      "duration": 0.128,
      "velocity": 127,
      "chip": "ym2612"
    },
    {
      "channel": 4,
      "note": 57,
      "start": 169.9232,
      "duration": 0.0801,
      "velocity": 88,
      "chip": "ym2612"
    },
    {
      "channel": 2,
      "note": 39,
      "start": 169.9268,
      "duration": 0.1266,
      "velocity": 116,
      "chip": "ym2612"
    },
    {
      "channel": 3,
      "note": 37,
      "start": 169.9299,
      "duration": 0.2401,
      "velocity": 124,
      "chip": "ym2612"
    },
    {
      "channel": 4,
      "note": 57,
      "start": 170.0899,
      "duration": 0.0802,
      "velocity": 88,
      "chip": "ym2612"
    },
    {
      "channel": 0,
      "note": 85,
      "start": 170.0935,
      "duration": 0.1265,
      "velocity": 127,
      "chip": "ym2612"
    },
    {
      "channel": 4,
      "note": 52,
      "start": 170.2569,
      "duration": 0.0968,
      "velocity": 88,
      "chip": "ym2612"
    },
    {
      "channel": 2,
      "note": 39,
      "start": 170.2605,
      "duration": 0.1266,
      "velocity": 116,
      "chip": "ym2612"
    },
    {
      "channel": 3,
      "note": 37,
      "start": 170.2637,
      "duration": 0.225,
      "velocity": 124,
      "chip": "ym2612"
    },
    {
      "channel": 4,
      "note": 53,
      "start": 170.4089,
      "duration": 0.1117,
      "velocity": 88,
      "chip": "ym2612"
    },
    {
      "channel": 0,
      "note": 85,
      "start": 170.413,
      "duration": 0.1241,
      "velocity": 127,
      "chip": "ym2612"
    },
    {
      "channel": 4,
      "note": 54,
      "start": 170.5754,
      "duration": 0.0801,
      "velocity": 88,
      "chip": "ym2612"
    },
    {
      "channel": 5,
      "note": 76,
      "start": 170.5792,
      "duration": 0.0765,
      "velocity": 104,
      "chip": "ym2612"
    },
    {
      "channel": 2,
      "note": 69,
      "start": 170.5826,
      "duration": 0.0732,
      "velocity": 104,
      "chip": "ym2612"
    },
    {
      "channel": 3,
      "note": 37,
      "start": 170.5871,
      "duration": 0.2171,
      "velocity": 124,
      "chip": "ym2612"
    },
    {
      "channel": 4,
      "note": 54,
      "start": 170.7241,
      "duration": 0.1135,
      "velocity": 88,
      "chip": "ym2612"
    },
    {
      "channel": 2,
      "note": 39,
      "start": 170.7278,
      "duration": 0.1265,
      "velocity": 116,
      "chip": "ym2612"
    },
    {
      "channel": 4,
      "note": 57,
      "start": 170.8911,
      "duration": 0.0802,
      "velocity": 88,
      "chip": "ym2612"
    },
    {
      "channel": 5,
      "note": 76,
      "start": 170.8948,
      "duration": 0.0766,
      "velocity": 104,
      "chip": "ym2612"
    },
    {
      "channel": 0,
      "note": 69,
      "start": 170.8982,
      "duration": 0.0729,
      "velocity": 104,
      "chip": "ym2612"
    },
    {
      "channel": 3,
      "note": 85,
      "start": 170.9017,
      "duration": 0.1195,
      "velocity": 127,
      "chip": "ym2612"
    },
    {
      "channel": 2,
      "note": 37,
      "start": 170.9066,
      "duration": 0.1524,
      "velocity": 124,
      "chip": "ym2612"
    },
    {
      "channel": 4,
      "note": 57,
      "start": 171.0578,
      "duration": 0.0635,
      "velocity": 88,
      "chip": "ym2612"
    },
    {
      "channel": 2,
      "note": 39,
      "start": 171.0614,
      "duration": 0.1267,
      "velocity": 116,
      "chip": "ym2612"
    },
    {
      "channel": 4,
      "note": 59,
      "start": 171.2081,
      "duration": 0.1149,
      "velocity": 88,
      "chip": "ym2612"
    },
    {
      "channel": 3,
      "note": 85,
      "start": 171.2118,
      "duration": 0.1265,
      "velocity": 127,
      "chip": "ym2612"
    },
    {
      "channel": 0,
      "note": 37,
      "start": 171.215,
      "duration": 0.24,
      "velocity": 124,
      "chip": "ym2612"
    },
    {
      "channel": 4,
      "note": 59,
      "start": 171.3749,
      "duration": 0.0968,
      "velocity": 88,
      "chip": "ym2612"
    },
    {
      "channel": 2,
      "note": 39,
      "start": 171.3785,
      "duration": 0.1268,
      "velocity": 116,
      "chip": "ym2612"
    },
    {
      "channel": 4,
      "note": 52,
      "start": 171.5251,
      "duration": 0.1136,
      "velocity": 88,
      "chip": "ym2612"
    },
    {
      "channel": 3,
      "note": 85,
      "start": 171.5289,
      "duration": 0.1279,
      "velocity": 127,
      "chip": "ym2612"
    },
    {
      "channel": 0,
      "note": 37,
      "start": 171.5319,
      "duration": 0.2401,
      "velocity": 124,
      "chip": "ym2612"
    },
    {
      "channel": 4,
      "note": 54,
      "start": 171.692,
      "duration": 0.0802,
      "velocity": 88,
      "chip": "ym2612"
    },
    {
      "channel": 2,
      "note": 39,
      "start": 171.6958,
      "duration": 0.128,
      "velocity": 116,
      "chip": "ym2612"
    },
    {
      "channel": 4,
      "note": 57,
      "start": 171.859,
      "duration": 0.0967,
      "velocity": 88,
      "chip": "ym2612"
    },
    {
      "channel": 5,
      "note": 76,
      "start": 171.8631,
      "duration": 0.0594,
      "velocity": 104,
      "chip": "ym2612"
    },
    {
      "channel": 3,
      "note": 69,
      "start": 171.8665,
      "duration": 0.0558,
      "velocity": 104,
      "chip": "ym2612"
    },
    {
      "channel": 2,
      "note": 39,
      "start": 171.8698,
      "duration": 0.121,
      "velocity": 116,
      "chip": "ym2612"
    },
    {
      "channel": 0,
      "note": 37,
      "start": 171.8729,
      "duration": 0.2162,
      "velocity": 124,
      "chip": "ym2612"
    },
    {
      "channel": 4,
      "note": 57,
      "start": 172.0096,
      "duration": 0.0798,
      "velocity": 88,
      "chip": "ym2612"
    },
    {
      "channel": 3,
      "note": 85,
      "start": 172.0136,
      "duration": 0.1257,
      "velocity": 127,
      "chip": "ym2612"
    },
    {
      "channel": 4,
      "note": 57,
      "start": 172.176,
      "duration": 0.0968,
      "velocity": 88,
      "chip": "ym2612"
    },
    {
      "channel": 5,
      "note": 69,
      "start": 172.1797,
      "duration": 0.0764,
      "velocity": 104,
      "chip": "ym2612"
    },
    {
      "channel": 2,
      "note": 76,
      "start": 172.1831,
      "duration": 0.0732,
      "velocity": 104,
      "chip": "ym2612"
    },
    {
      "channel": 0,
      "note": 37,
      "start": 172.1868,
      "duration": 0.2209,
      "velocity": 124,
      "chip": "ym2612"
    },
    {
      "channel": 4,
      "note": 57,
      "start": 172.3278,
      "duration": 0.0802,
      "velocity": 88,
      "chip": "ym2612"
    },
    {
      "channel": 3,
      "note": 85,
      "start": 172.3315,
      "duration": 0.1249,
      "velocity": 127,
      "chip": "ym2612"
    },
    {
      "channel": 4,
      "note": 52,
      "start": 172.4946,
      "duration": 0.0953,
      "velocity": 88,
      "chip": "ym2612"
    },
    {
      "channel": 2,
      "note": 39,
      "start": 172.4982,
      "duration": 0.1252,
      "velocity": 116,
      "chip": "ym2612"
    },
    {
      "channel": 0,
      "note": 37,
      "start": 172.5016,
      "duration": 0.2216,
      "velocity": 124,
      "chip": "ym2612"
    },
    {
      "channel": 4,
      "note": 52,
      "start": 172.6613,
      "duration": 0.0955,
      "velocity": 88,
      "chip": "ym2612"
    },
    {
      "channel": 3,
      "note": 85,
      "start": 172.665,
      "duration": 0.1252,
      "velocity": 127,
      "chip": "ym2612"
    },
    {
      "channel": 4,
      "note": 52,
      "start": 172.81,
      "duration": 0.1137,
      "velocity": 88,
      "chip": "ym2612"
    },
    {
      "channel": 2,
      "note": 39,
      "start": 172.8136,
      "duration": 0.1268,
      "velocity": 116,
      "chip": "ym2612"
    },
    {
      "channel": 0,
      "note": 37,
      "start": 172.8167,
      "duration": 0.2403,
      "velocity": 124,
      "chip": "ym2612"
    },
    {
      "channel": 4,
      "note": 52,
      "start": 172.9771,
      "duration": 0.0801,
      "velocity": 88,
      "chip": "ym2612"
    },
    {
      "channel": 5,
      "note": 79,
      "start": 172.981,
      "duration": 0.1263,
      "velocity": 104,
      "chip": "ym2612"
    },
    {
      "channel": 3,
      "note": 72,
      "start": 172.9845,
      "duration": 0.1393,
      "velocity": 104,
      "chip": "ym2612"
    },
    {
      "channel": 2,
      "note": 85,
      "start": 172.9881,
      "duration": 0.1193,
      "velocity": 127,
      "chip": "ym2612"
    },
    {
      "channel": 4,
      "note": 54,
      "start": 173.1273,
      "duration": 0.115,
      "velocity": 88,
      "chip": "ym2612"
    },
    {
      "channel": 3,
      "note": 75,
      "start": 173.1315,
      "duration": 0.0759,
      "velocity": 104,
      "chip": "ym2612"
    },
    {
      "channel": 5,
      "note": 82,
      "start": 173.1349,
      "duration": 0.1075,
      "velocity": 104,
      "chip": "ym2612"
    },
    {
      "channel": 2,
      "note": 39,
      "start": 173.1382,
      "duration": 0.1193,
      "velocity": 116,
      "chip": "ym2612"
    },
    {
      "channel": 0,
      "note": 37,
      "start": 173.1413,
      "duration": 0.2328,
      "velocity": 124,
      "chip": "ym2612"
    },
    {
      "channel": 4,
      "note": 54,
      "start": 173.2939,
      "duration": 0.0969,
      "velocity": 88,
      "chip": "ym2612"
    },
    {
      "channel": 2,
      "note": 39,
      "start": 173.298,
      "duration": 0.1263,
      "velocity": 116,
      "chip": "ym2612"
    },
    {
      "channel": 4,
      "note": 54,
      "start": 173.4614,
      "duration": 0.0631,
      "velocity": 88,
      "chip": "ym2612"
    },
    {
      "channel": 3,
      "note": 82,
      "start": 173.4652,
      "duration": 0.0591,
      "velocity": 104,
      "chip": "ym2612"
    },
    {
      "channel": 5,
      "note": 75,
      "start": 173.4685,
      "duration": 0.0561,
      "velocity": 104,
      "chip": "ym2612"
    },
    {
      "channel": 0,
      "note": 85,
      "start": 173.472,
      "duration": 0.1189,
      "velocity": 127,
      "chip": "ym2612"
    },
    {
      "channel": 2,
      "note": 37,
      "start": 173.4754,
      "duration": 0.1368,
      "velocity": 124,
      "chip": "ym2612"
    },
    {
      "channel": 4,
      "note": 54,
      "start": 173.611,
      "duration": 0.0803,
      "velocity": 88,
      "chip": "ym2612"
    },
    {
      "channel": 2,
      "note": 39,
      "start": 173.6147,
      "duration": 0.1282,
      "velocity": 116,
      "chip": "ym2612"
    },
    {
      "channel": 4,
      "note": 59,
      "start": 173.778,
      "duration": 0.0802,
      "velocity": 88,
      "chip": "ym2612"
    },
    {
      "channel": 0,
      "note": 85,
      "start": 173.7816,
      "duration": 0.1281,
      "velocity": 127,
      "chip": "ym2612"
    },
    {
      "channel": 3,
      "note": 37,
      "start": 173.7848,
      "duration": 0.2236,
      "velocity": 124,
      "chip": "ym2612"
    },
    {
      "channel": 4,
      "note": 59,
      "start": 173.9283,
      "duration": 0.1134,
      "velocity": 88,
      "chip": "ym2612"
    },
    {
      "channel": 2,
      "note": 39,
      "start": 173.9319,
      "duration": 0.1267,
      "velocity": 116,
      "chip": "ym2612"
    },
    {
      "channel": 4,
      "note": 52,
      "start": 174.0949,
      "duration": 0.0971,
      "velocity": 88,
      "chip": "ym2612"
    },
    {
      "channel": 0,
      "note": 85,
      "start": 174.0993,
      "duration": 0.126,
      "velocity": 127,
      "chip": "ym2612"
    },
    {
      "channel": 3,
      "note": 37,
      "start": 174.1023,
      "duration": 0.2246,
      "velocity": 124,
      "chip": "ym2612"
    },
    {
      "channel": 4,
      "note": 53,
      "start": 174.2619,
      "duration": 0.097,
      "velocity": 88,
      "chip": "ym2612"
    },
    {
      "channel": 5,
      "note": 79,
      "start": 174.2657,
      "duration": 0.1265,
      "velocity": 104,
      "chip": "ym2612"
    },
    {
      "channel": 2,
      "note": 74,
      "start": 174.2691,
      "duration": 0.1232,
      "velocity": 104,
      "chip": "ym2612"
    },
    {
      "channel": 4,
      "note": 59,
      "start": 174.4136,
      "duration": 0.1122,
      "velocity": 88,
      "chip": "ym2612"
    },
    {
      "channel": 5,
      "note": 76,
      "start": 174.4178,
      "duration": 0.0761,
      "velocity": 104,
      "chip": "ym2612"
    },
    {
      "channel": 2,
      "note": 69,
      "start": 174.4212,
      "duration": 0.0728,
      "velocity": 104,
      "chip": "ym2612"
    },
    {
      "channel": 3,
      "note": 37,
      "start": 174.4252,
      "duration": 0.2354,
      "velocity": 124,
      "chip": "ym2612"
    },
    {
      "channel": 4,
      "note": 59,
      "start": 174.5804,
      "duration": 0.0955,
      "velocity": 88,
      "chip": "ym2612"
    },
    {
      "channel": 0,
      "note": 55,
      "start": 174.5842,
      "duration": 0.1249,
      "velocity": 120,
      "chip": "ym2612"
    },
    {
      "channel": 4,
      "note": 54,
      "start": 174.7291,
      "duration": 0.1136,
      "velocity": 88,
      "chip": "ym2612"
    },
    {
      "channel": 5,
      "note": 69,
      "start": 174.7329,
      "duration": 0.0765,
      "velocity": 104,
      "chip": "ym2612"
    },
    {
      "channel": 2,
      "note": 76,
      "start": 174.7363,
      "duration": 0.0733,
      "velocity": 104,
      "chip": "ym2612"
    },
    {
      "channel": 3,
      "note": 37,
      "start": 174.7401,
      "duration": 0.2362,
      "velocity": 124,
      "chip": "ym2612"
    },
    {
      "channel": 4,
      "note": 54,
      "start": 174.8961,
      "duration": 0.0984,
      "velocity": 88,
      "chip": "ym2612"
    },
    {
      "channel": 0,
      "note": 55,
      "start": 174.8994,
      "duration": 0.1268,
      "velocity": 120,
      "chip": "ym2612"
    },
    {
      "channel": 4,
      "note": 57,
      "start": 175.0631,
      "duration": 0.0635,
      "velocity": 88,
      "chip": "ym2612"
    },
    {
      "channel": 2,
      "note": 39,
      "start": 175.0666,
      "duration": 0.1267,
      "velocity": 116,
      "chip": "ym2612"
    },
    {
      "channel": 3,
      "note": 37,
      "start": 175.0698,
      "duration": 0.2235,
      "velocity": 124,
      "chip": "ym2612"
    },
    {
      "channel": 4,
      "note": 57,
      "start": 175.2132,
      "duration": 0.0802,
      "velocity": 88,
      "chip": "ym2612"
    },
    {
      "channel": 0,
      "note": 55,
      "start": 175.2166,
      "duration": 0.1268,
      "velocity": 120,
      "chip": "ym2612"
    },
    {
      "channel": 4,
      "note": 52,
      "start": 175.3802,
      "duration": 0.0968,
      "velocity": 88,
      "chip": "ym2612"
    },
    {
      "channel": 2,
      "note": 39,
      "start": 175.3838,
      "duration": 0.1267,
      "velocity": 116,
      "chip": "ym2612"
    },
    {
      "channel": 3,
      "note": 37,
      "start": 175.3869,
      "duration": 0.2235,
      "velocity": 124,
      "chip": "ym2612"
    },
    {
      "channel": 4,
      "note": 53,
      "start": 175.5305,
      "duration": 0.1133,
      "velocity": 88,
      "chip": "ym2612"
    },
    {
      "channel": 5,
      "note": 79,
      "start": 175.5344,
      "duration": 0.1596,
      "velocity": 104,
      "chip": "ym2612"
    },
    {
      "channel": 0,
      "note": 72,
      "start": 175.5378,
      "duration": 0.1559,
      "velocity": 104,
      "chip": "ym2612"
    },
    {
      "channel": 2,
      "note": 55,
      "start": 175.5413,
      "duration": 0.1207,
      "velocity": 120,
      "chip": "ym2612"
    },
    {
      "channel": 4,
      "note": 54,
      "start": 175.6974,
      "duration": 0.08,
      "velocity": 88,
      "chip": "ym2612"
    },
    {
      "channel": 0,
      "note": 76,
      "start": 175.7011,
      "duration": 0.0761,
      "velocity": 104,
      "chip": "ym2612"
    },
    {
      "channel": 5,
      "note": 69,
      "start": 175.7049,
      "duration": 0.0406,
      "velocity": 104,
      "chip": "ym2612"
    },
    {
      "channel": 2,
      "note": 39,
      "start": 175.7082,
      "duration": 0.1208,
      "velocity": 116,
      "chip": "ym2612"
    },
    {
      "channel": 3,
      "note": 37,
      "start": 175.7125,
      "duration": 0.2158,
      "velocity": 124,
      "chip": "ym2612"
    },
    {
      "channel": 4,
      "note": 54,
      "start": 175.8643,
      "duration": 0.0965,
      "velocity": 88,
      "chip": "ym2612"
    },
    {
      "channel": 2,
      "note": 39,
      "start": 175.868,
      "duration": 0.1279,
      "velocity": 116,
      "chip": "ym2612"
    },
    {
      "channel": 4,
      "note": 57,
      "start": 176.0143,
      "duration": 0.0802,
      "velocity": 88,
      "chip": "ym2612"
    },
    {
      "channel": 0,
      "note": 69,
      "start": 176.018,
      "duration": 0.0763,
      "velocity": 104,
      "chip": "ym2612"
    },
    {
      "channel": 5,
      "note": 76,
      "start": 176.0213,
      "duration": 0.0734,
      "velocity": 104,
      "chip": "ym2612"
    },
    {
      "channel": 3,
      "note": 85,
      "start": 176.0249,
      "duration": 0.1195,
      "velocity": 127,
      "chip": "ym2612"
    },
    {
      "channel": 2,
      "note": 37,
      "start": 176.0282,
      "duration": 0.154,
      "velocity": 124,
      "chip": "ym2612"
    },
    {
      "channel": 4,
      "note": 57,
      "start": 176.1811,
      "duration": 0.0801,
      "velocity": 88,
      "chip": "ym2612"
    },
    {
      "channel": 2,
      "note": 39,
      "start": 176.1847,
      "duration": 0.1267,
      "velocity": 116,
      "chip": "ym2612"
    },
    {
      "channel": 4,
      "note": 59,
      "start": 176.3329,
      "duration": 0.1119,
      "velocity": 88,
      "chip": "ym2612"
    },
    {
      "channel": 3,
      "note": 85,
      "start": 176.3366,
      "duration": 0.1248,
      "velocity": 127,
      "chip": "ym2612"
    },
    {
      "channel": 0,
      "note": 37,
      "start": 176.3399,
      "duration": 0.2398,
      "velocity": 124,
      "chip": "ym2612"
    },
    {
      "channel": 4,
      "note": 59,
      "start": 176.4996,
      "duration": 0.0954,
      "velocity": 88,
      "chip": "ym2612"
    },
    {
      "channel": 2,
      "note": 39,
      "start": 176.5032,
      "duration": 0.1253,
      "velocity": 116,
      "chip": "ym2612"
    },
    {
      "channel": 4,
      "note": 52,
      "start": 176.6665,
      "duration": 0.0954,
      "velocity": 88,
      "chip": "ym2612"
    },
    {
      "channel": 3,
      "note": 85,
      "start": 176.6704,
      "duration": 0.1249,
      "velocity": 127,
      "chip": "ym2612"
    },
    {
      "channel": 0,
      "note": 37,
      "start": 176.6734,
      "duration": 0.222,
      "velocity": 124,
      "chip": "ym2612"
    },
    {
      "channel": 4,
      "note": 54,
      "start": 176.8154,
      "duration": 0.0801,
      "velocity": 88,
      "chip": "ym2612"
    },
    {
      "channel": 5,
      "note": 79,
      "start": 176.8193,
      "duration": 0.1096,
      "velocity": 104,
      "chip": "ym2612"
    },
    {
      "channel": 2,
      "note": 72,
      "start": 176.8228,
      "duration": 0.1561,
      "velocity": 104,
      "chip": "ym2612"
    },
    {
      "channel": 4,
      "note": 57,
      "start": 176.9822,
      "duration": 0.0983,
      "velocity": 88,
      "chip": "ym2612"
    },
    {
      "channel": 5,
      "note": 76,
      "start": 176.9861,
      "duration": 0.0762,
      "velocity": 104,
      "chip": "ym2612"
    },
    {
      "channel": 2,
      "note": 69,
      "start": 176.9899,
      "duration": 0.0726,
      "velocity": 104,
      "chip": "ym2612"
    },
    {
      "channel": 0,
      "note": 37,
      "start": 176.9938,
      "duration": 0.2186,
      "velocity": 124,
      "chip": "ym2612"
    },
    {
      "channel": 4,
      "note": 57,
      "start": 177.1339,
      "duration": 0.0787,
      "velocity": 88,
      "chip": "ym2612"
    },
    {
      "channel": 3,
      "note": 85,
      "start": 177.1377,
      "duration": 0.1247,
      "velocity": 127,
      "chip": "ym2612"
    },
    {
      "channel": 4,
      "note": 57,
      "start": 177.2993,
      "duration": 0.0968,
      "velocity": 88,
      "chip": "ym2612"
    },
    {
      "channel": 5,
      "note": 69,
      "start": 177.303,
      "duration": 0.0764,
      "velocity": 104,
      "chip": "ym2612"
    },
    {
      "channel": 2,
      "note": 76,
      "start": 177.3064,
      "duration": 0.0731,
      "velocity": 104,
      "chip": "ym2612"
    },
    {
      "channel": 0,
      "note": 37,
      "start": 177.3101,
      "duration": 0.2193,
      "velocity": 124,
      "chip": "ym2612"
    },
    {
      "channel": 4,
      "note": 57,
      "start": 177.4662,
      "duration": 0.0634,
      "velocity": 88,
      "chip": "ym2612"
    },
    {
      "channel": 3,
      "note": 85,
      "start": 177.4699,
      "duration": 0.1264,
      "velocity": 127,
      "chip": "ym2612"
    },
    {
      "channel": 4,
      "note": 52,
      "start": 177.6164,
      "duration": 0.1135,
      "velocity": 88,
      "chip": "ym2612"
    },
    {
      "channel": 2,
      "note": 39,
      "start": 177.62,
      "duration": 0.1281,
      "velocity": 116,
      "chip": "ym2612"
    },
    {
      "channel": 0,
      "note": 37,
      "start": 177.6234,
      "duration": 0.2398,
      "velocity": 124,
      "chip": "ym2612"
    },
    {
      "channel": 4,
      "note": 52,
      "start": 177.7831,
      "duration": 0.0968,
      "velocity": 88,
      "chip": "ym2612"
    },
    {
      "channel": 3,
      "note": 85,
      "start": 177.7868,
      "duration": 0.1281,
      "velocity": 127,
      "chip": "ym2612"
    },
    {
      "channel": 4,
      "note": 52,
      "start": 177.9333,
      "duration": 0.1136,
      "velocity": 88,
      "chip": "ym2612"
    },
    {
      "channel": 5,
      "note": 79,
      "start": 177.9372,
      "duration": 0.1598,
      "velocity": 104,
      "chip": "ym2612"
    },
    {
      "channel": 2,
      "note": 72,
      "start": 177.9407,
      "duration": 0.123,
      "velocity": 104,
      "chip": "ym2612"
    },
    {
      "channel": 0,
      "note": 37,
      "start": 177.9445,
      "duration": 0.2358,
      "velocity": 124,
      "chip": "ym2612"
    },
    {
      "channel": 4,
      "note": 52,
      "start": 178.1003,
      "duration": 0.0802,
      "velocity": 88,
      "chip": "ym2612"
    },
    {
      "channel": 5,
      "note": 81,
      "start": 178.1042,
      "duration": 0.1597,
      "velocity": 104,
      "chip": "ym2612"
    },
    {
      "channel": 2,
      "note": 74,
      "start": 178.108,
      "duration": 0.1561,
      "velocity": 104,
      "chip": "ym2612"
    },
    {
      "channel": 3,
      "note": 85,
      "start": 178.1114,
      "duration": 0.1191,
      "velocity": 127,
      "chip": "ym2612"
    },
    {
      "channel": 4,
      "note": 54,
      "start": 178.2673,
      "duration": 0.0966,
      "velocity": 88,
      "chip": "ym2612"
    },
    {
      "channel": 5,
      "note": 75,
      "start": 178.2712,
      "duration": 0.0928,
      "velocity": 104,
      "chip": "ym2612"
    },
    {
      "channel": 2,
      "note": 82,
      "start": 178.2748,
      "duration": 0.0575,
      "velocity": 104,
      "chip": "ym2612"
    },
    {
      "channel": 0,
      "note": 37,
      "start": 178.2787,
      "duration": 0.2202,
      "velocity": 124,
      "chip": "ym2612"
    },
    {
      "channel": 4,
      "note": 54,
      "start": 178.4187,
      "duration": 0.1122,
      "velocity": 88,
      "chip": "ym2612"
    },
    {
      "channel": 2,
      "note": 39,
      "start": 178.4224,
      "duration": 0.1251,
      "velocity": 116,
      "chip": "ym2612"
    },
    {
      "channel": 4,
      "note": 54,
      "start": 178.5862,
      "duration": 0.0797,
      "velocity": 88,
      "chip": "ym2612"
    },
    {
      "channel": 5,
      "note": 82,
      "start": 178.59,
      "duration": 0.0761,
      "velocity": 104,
      "chip": "ym2612"
    },
    {
      "channel": 3,
      "note": 75,
      "start": 178.5933,
      "duration": 0.0725,
      "velocity": 104,
      "chip": "ym2612"
    },
    {
      "channel": 0,
      "note": 85,
      "start": 178.597,
      "duration": 0.1173,
      "velocity": 127,
      "chip": "ym2612"
    },
    {
      "channel": 2,
      "note": 37,
      "start": 178.6002,
      "duration": 0.1353,
      "velocity": 124,
      "chip": "ym2612"
    },
    {
      "channel": 4,
      "note": 54,
      "start": 178.7344,
      "duration": 0.0801,
      "velocity": 88,
      "chip": "ym2612"
    },
    {
      "channel": 2,
      "note": 39,
      "start": 178.738,
      "duration": 0.1267,
      "velocity": 116,
      "chip": "ym2612"
    },
    {
      "channel": 4,
      "note": 59,
      "start": 178.9013,
      "duration": 0.0801,
      "velocity": 88,
      "chip": "ym2612"
    },
    {
      "channel": 3,
      "note": 76,
      "start": 178.9051,
      "duration": 0.0946,
      "velocity": 104,
      "chip": "ym2612"
    },
    {
      "channel": 5,
      "note": 83,
      "start": 178.909,
      "duration": 0.0726,
      "velocity": 104,
      "chip": "ym2612"
    },
    {
      "channel": 0,
      "note": 85,
      "start": 178.9121,
      "duration": 0.1193,
      "velocity": 127,
      "chip": "ym2612"
    },
    {
      "channel": 2,
      "note": 37,
      "start": 178.9169,
      "duration": 0.1525,
      "velocity": 124,
      "chip": "ym2612"
    },
    {
      "channel": 4,
      "note": 59,
      "start": 179.0683,
      "duration": 0.0982,
      "velocity": 88,
      "chip": "ym2612"
    },
    {
      "channel": 2,
      "note": 39,
      "start": 179.072,
      "duration": 0.1265,
      "velocity": 116,
      "chip": "ym2612"
    },
    {
      "channel": 4,
      "note": 52,
      "start": 179.2183,
      "duration": 0.1151,
      "velocity": 88,
      "chip": "ym2612"
    },
    {
      "channel": 3,
      "note": 82,
      "start": 179.2221,
      "duration": 0.1265,
      "velocity": 104,
      "chip": "ym2612"
    },
    {
      "channel": 5,
      "note": 75,
      "start": 179.2254,
      "duration": 0.1234,
      "velocity": 104,
      "chip": "ym2612"
    },
    {
      "channel": 0,
      "note": 85,
      "start": 179.2291,
      "duration": 0.1194,
      "velocity": 127,
      "chip": "ym2612"
    },
    {
      "channel": 2,
      "note": 37,
      "start": 179.2327,
      "duration": 0.1603,
      "velocity": 124,
      "chip": "ym2612"
    },
    {
      "channel": 4,
      "note": 53,
      "start": 179.3852,
      "duration": 0.0969,
      "velocity": 88,
      "chip": "ym2612"
    },
    {
      "channel": 3,
      "note": 81,
      "start": 179.3888,
      "duration": 0.1265,
      "velocity": 104,
      "chip": "ym2612"
    },
    {
      "channel": 5,
      "note": 74,
      "start": 179.3921,
      "duration": 0.1234,
      "velocity": 104,
      "chip": "ym2612"
    },
    {
      "channel": 2,
      "note": 39,
      "start": 179.3955,
      "duration": 0.1202,
      "velocity": 116,
      "chip": "ym2612"
    },
    {
      "channel": 4,
      "note": 54,
      "start": 179.5355,
      "duration": 0.1316,
      "velocity": 88,
      "chip": "ym2612"
    },
    {
      "channel": 0,
      "note": 75,
      "start": 179.539,
      "duration": 0.1098,
      "velocity": 98,
      "chip": "ym2612"
    },
    {
      "channel": 3,
      "note": 87,
      "start": 179.5428,
      "duration": 0.1563,
      "velocity": 104,
      "chip": "ym2612"
    },
    {
      "channel": 5,
      "note": 76,
      "start": 179.5463,
      "duration": 0.0694,
      "velocity": 104,
      "chip": "ym2612"
    },
    {
      "channel": 2,
      "note": 69,
      "start": 179.5498,
      "duration": 0.066,
      "velocity": 104,
      "chip": "ym2612"
    },
    {
      "channel": 1,
      "note": 46,
      "start": 179.5532,
      "duration": 0.1458,
      "velocity": 106,
      "chip": "ym2612"
    },
    {
      "channel": 4,
      "note": 57,
      "start": 179.7026,
      "duration": 0.0799,
      "velocity": 88,
      "chip": "ym2612"
    },
    {
      "channel": 0,
      "note": 72,
      "start": 179.7057,
      "duration": 0.0933,
      "velocity": 98,
      "chip": "ym2612"
    },
    {
      "channel": 3,
      "note": 84,
      "start": 179.709,
      "duration": 0.157,
      "velocity": 104,
      "chip": "ym2612"
    },
    {
      "channel": 1,
      "note": 46,
      "start": 179.712,
      "duration": 0.1539,
      "velocity": 106,
      "chip": "ym2612"
    },
    {
      "channel": 5,
      "note": 85,
      "start": 179.7155,
      "duration": 0.1185,
      "velocity": 127,
      "chip": "ym2612"
    },
    {
      "channel": 4,
      "note": 57,
      "start": 179.8693,
      "duration": 0.0634,
      "velocity": 88,
      "chip": "ym2612"
    },
    {
      "channel": 0,
      "note": 69,
      "start": 179.8724,
      "duration": 0.0936,
      "velocity": 98,
      "chip": "ym2612"
    },
    {
      "channel": 3,
      "note": 81,
      "start": 179.8756,
      "duration": 0.1405,
      "velocity": 104,
      "chip": "ym2612"
    },
    {
      "channel": 2,
      "note": 76,
      "start": 179.8795,
      "duration": 0.0534,
      "velocity": 104,
      "chip": "ym2612"
    },
    {
      "channel": 5,
      "note": 69,
      "start": 179.8831,
      "duration": 0.0497,
      "velocity": 104,
      "chip": "ym2612"
    },
    {
      "channel": 1,
      "note": 32,
      "start": 179.8861,
      "duration": 0.13,
      "velocity": 106,
      "chip": "ym2612"
    },
    {
      "channel": 4,
      "note": 57,
      "start": 180.0195,
      "duration": 0.0801,
      "velocity": 88,
      "chip": "ym2612"
    },
    {
      "channel": 0,
      "note": 66,
      "start": 180.0227,
      "duration": 0.0767,
      "velocity": 98,
      "chip": "ym2612"
    },
    {
      "channel": 3,
      "note": 78,
      "start": 180.026,
      "duration": 0.157,
      "velocity": 104,
      "chip": "ym2612"
    },
    {
      "channel": 1,
      "note": 46,
      "start": 180.029,
      "duration": 0.1539,
      "velocity": 106,
      "chip": "ym2612"
    },
    {
      "channel": 5,
      "note": 85,
      "start": 180.0324,
      "duration": 0.1172,
      "velocity": 127,
      "chip": "ym2612"
    },
    {
      "channel": 4,
      "note": 52,
      "start": 180.1864,
      "duration": 0.0801,
      "velocity": 88,
      "chip": "ym2612"
    },
    {
      "channel": 0,
      "note": 63,
      "start": 180.19,
      "duration": 0.093,
      "velocity": 98,
      "chip": "ym2612"
    },
    {
      "channel": 3,
      "note": 75,
      "start": 180.1932,
      "duration": 0.1415,
      "velocity": 104,
      "chip": "ym2612"
    },
    {
      "channel": 1,
      "note": 32,
      "start": 180.1962,
      "duration": 0.1384,
      "velocity": 106,
      "chip": "ym2612"
    },
    {
      "channel": 2,
      "note": 39,
      "start": 180.1994,
      "duration": 0.1172,
      "velocity": 116,
      "chip": "ym2612"
    },
    {
      "channel": 4,
      "note": 52,
      "start": 180.3382,
      "duration": 0.1119,
      "velocity": 88,
      "chip": "ym2612"
    },
    {
      "channel": 0,
      "note": 60,
      "start": 180.3413,
      "duration": 0.1086,
      "velocity": 98,
      "chip": "ym2612"
    },
    {
      "channel": 3,
      "note": 72,
      "start": 180.3446,
      "duration": 0.157,
      "velocity": 104,
      "chip": "ym2612"
    },
    {
      "channel": 1,
      "note": 32,
      "start": 180.3479,
      "duration": 0.1535,
      "velocity": 106,
      "chip": "ym2612"
    },
    {
      "channel": 5,
      "note": 85,
      "start": 180.3512,
      "duration": 0.1155,
      "velocity": 127,
      "chip": "ym2612"
    },
    {
      "channel": 4,
      "note": 52,
      "start": 180.5053,
      "duration": 0.0949,
      "velocity": 88,
      "chip": "ym2612"
    },
    {
      "channel": 0,
      "note": 57,
      "start": 180.5084,
      "duration": 0.0916,
      "velocity": 98,
      "chip": "ym2612"
    },
    {
      "channel": 3,
      "note": 69,
      "start": 180.5117,
      "duration": 0.1568,
      "velocity": 104,
      "chip": "ym2612"
    },
    {
      "channel": 1,
      "note": 46,
      "start": 180.5146,
      "duration": 0.1537,
      "velocity": 106,
      "chip": "ym2612"
    },
    {
      "channel": 2,
      "note": 39,
      "start": 180.5178,
      "duration": 0.1159,
      "velocity": 116,
      "chip": "ym2612"
    },
    {
      "channel": 4,
      "note": 52,
      "start": 180.6718,
      "duration": 0.0954,
      "velocity": 88,
      "chip": "ym2612"
    },
    {
      "channel": 0,
      "note": 54,
      "start": 180.6749,
      "duration": 0.0921,
      "velocity": 98,
      "chip": "ym2612"
    },
    {
      "channel": 3,
      "note": 66,
      "start": 180.6785,
      "duration": 0.1387,
      "velocity": 104,
      "chip": "ym2612"
    },
    {
      "channel": 1,
      "note": 32,
      "start": 180.6815,
      "duration": 0.1355,
      "velocity": 106,
      "chip": "ym2612"
    },
    {
      "channel": 5,
      "note": 85,
      "start": 180.685,
      "duration": 0.1155,
      "velocity": 127,
      "chip": "ym2612"
    },
    {
      "channel": 4,
      "note": 59,
      "start": 180.8205,
      "duration": 0.1135,
      "velocity": 88,
      "chip": "ym2612"
    },
    {
      "channel": 0,
      "note": 78,
      "start": 180.8236,
      "duration": 0.1102,
      "velocity": 98,
      "chip": "ym2612"
    },
    {
      "channel": 3,
      "note": 90,
      "start": 180.8269,
      "duration": 0.1571,
      "velocity": 104,
      "chip": "ym2612"
    },
    {
      "channel": 1,
      "note": 46,
      "start": 180.8299,
      "duration": 0.154,
      "velocity": 106,
      "chip": "ym2612"
    },
    {
      "channel": 2,
      "note": 39,
      "start": 180.8346,
      "duration": 0.1161,
      "velocity": 116,
      "chip": "ym2612"
    },
    {
      "channel": 4,
      "note": 59,
      "start": 180.9875,
      "duration": 0.08,
      "velocity": 88,
      "chip": "ym2612"
    },
    {
      "channel": 0,
      "note": 75,
      "start": 180.9905,
      "duration": 0.0949,
      "velocity": 98,
      "chip": "ym2612"
    },
    {
      "channel": 3,
      "note": 87,
      "start": 180.9938,
      "duration": 0.1404,
      "velocity": 104,
      "chip": "ym2612"
    },
    {
      "channel": 1,
      "note": 46,
      "start": 180.9968,
      "duration": 0.1372,
      "velocity": 106,
      "chip": "ym2612"
    },
    {
      "channel": 2,
      "note": 39,
      "start": 181.0001,
      "duration": 0.1176,
      "velocity": 116,
      "chip": "ym2612"
    },
    {
      "channel": 4,
      "note": 59,
      "start": 181.1375,
      "duration": 0.0801,
      "velocity": 88,
      "chip": "ym2612"
    },
    {
      "channel": 0,
      "note": 72,
      "start": 181.1406,
      "duration": 0.1118,
      "velocity": 98,
      "chip": "ym2612"
    },
    {
      "channel": 3,
      "note": 84,
      "start": 181.1439,
      "duration": 0.1572,
      "velocity": 104,
      "chip": "ym2612"
    },
    {
      "channel": 1,
      "note": 32,
      "start": 181.1469,
      "duration": 0.1541,
      "velocity": 106,
      "chip": "ym2612"
    },
    {
      "channel": 5,
      "note": 85,
      "start": 181.1503,
      "duration": 0.1174,
      "velocity": 127,
      "chip": "ym2612"
    },
    {
      "channel": 4,
      "note": 59,
      "start": 181.3046,
      "duration": 0.0966,
      "velocity": 88,
      "chip": "ym2612"
    },
    {
      "channel": 0,
      "note": 69,
      "start": 181.3078,
      "duration": 0.0767,
      "velocity": 98,
      "chip": "ym2612"
    },
    {
      "channel": 3,
      "note": 81,
      "start": 181.3111,
      "duration": 0.1569,
      "velocity": 104,
      "chip": "ym2612"
    },
    {
      "channel": 1,
      "note": 46,
      "start": 181.3141,
      "duration": 0.1538,
      "velocity": 106,
      "chip": "ym2612"
    },
    {
      "channel": 2,
      "note": 39,
      "start": 181.3172,
      "duration": 0.1176,
      "velocity": 116,
      "chip": "ym2612"
    },
    {
      "channel": 4,
      "note": 54,
      "start": 181.4713,
      "duration": 0.0969,
      "velocity": 88,
      "chip": "ym2612"
    },
    {
      "channel": 0,
      "note": 66,
      "start": 181.4746,
      "duration": 0.0934,
      "velocity": 98,
      "chip": "ym2612"
    },
    {
      "channel": 3,
      "note": 78,
      "start": 181.4778,
      "duration": 0.1403,
      "velocity": 104,
      "chip": "ym2612"
    },
    {
      "channel": 1,
      "note": 32,
      "start": 181.4808,
      "duration": 0.1372,
      "velocity": 106,
      "chip": "ym2612"
    },
    {
      "channel": 5,
      "note": 85,
      "start": 181.4841,
      "duration": 0.1174,
      "velocity": 127,
      "chip": "ym2612"
    },
    {
      "channel": 4,
      "note": 54,
      "start": 181.6216,
      "duration": 0.0801,
      "velocity": 88,
      "chip": "ym2612"
    },
    {
      "channel": 0,
      "note": 63,
      "start": 181.6247,
      "duration": 0.1102,
      "velocity": 98,
      "chip": "ym2612"
    },
    {
      "channel": 3,
      "note": 75,
      "start": 181.628,
      "duration": 0.1577,
      "velocity": 104,
      "chip": "ym2612"
    },
    {
      "channel": 1,
      "note": 46,
      "start": 181.6313,
      "duration": 0.0703,
      "velocity": 106,
      "chip": "ym2612"
    },
    {
      "channel": 2,
      "note": 39,
      "start": 181.6344,
      "duration": 0.1188,
      "velocity": 116,
      "chip": "ym2612"
    },
    {
      "channel": 1,
      "note": 46,
      "start": 181.7055,
      "duration": 0.0801,
      "velocity": 106,
      "chip": "ym2612"
    },
    {
      "channel": 4,
      "note": 54,
      "start": 181.789,
      "duration": 0.0795,
      "velocity": 88,
      "chip": "ym2612"
    },
    {
      "channel": 0,
      "note": 60,
      "start": 181.7921,
      "duration": 0.093,
      "velocity": 98,
      "chip": "ym2612"
    },
    {
      "channel": 3,
      "note": 72,
      "start": 181.7954,
      "duration": 0.14,
      "velocity": 104,
      "chip": "ym2612"
    },
    {
      "channel": 1,
      "note": 32,
      "start": 181.7987,
      "duration": 0.1366,
      "velocity": 106,
      "chip": "ym2612"
    },
    {
      "channel": 5,
      "note": 85,
      "start": 181.8023,
      "duration": 0.1179,
      "velocity": 127,
      "chip": "ym2612"
    },
    {
      "channel": 4,
      "note": 57,
      "start": 181.9388,
      "duration": 0.08,
      "velocity": 88,
      "chip": "ym2612"
    },
    {
      "channel": 0,
      "note": 57,
      "start": 181.9418,
      "duration": 0.1102,
      "velocity": 98,
      "chip": "ym2612"
    },
    {
      "channel": 3,
      "note": 69,
      "start": 181.9451,
      "duration": 0.1571,
      "velocity": 104,
      "chip": "ym2612"
    },
    {
      "channel": 1,
      "note": 46,
      "start": 181.9481,
      "duration": 0.154,
      "velocity": 106,
      "chip": "ym2612"
    },
    {
      "channel": 2,
      "note": 39,
      "start": 181.9513,
      "duration": 0.1175,
      "velocity": 116,
      "chip": "ym2612"
    },
    {
      "channel": 4,
      "note": 57,
      "start": 182.1056,
      "duration": 0.08,
      "velocity": 88,
      "chip": "ym2612"
    },
    {
      "channel": 0,
      "note": 81,
      "start": 182.1086,
      "duration": 0.0935,
      "velocity": 98,
      "chip": "ym2612"
    },
    {
      "channel": 3,
      "note": 93,
      "start": 182.1119,
      "duration": 0.1571,
      "velocity": 104,
      "chip": "ym2612"
    },
    {
      "channel": 1,
      "note": 46,
      "start": 182.1153,
      "duration": 0.1536,
      "velocity": 106,
      "chip": "ym2612"
    },
    {
      "channel": 2,
      "note": 39,
      "start": 182.1185,
      "duration": 0.1172,
      "velocity": 116,
      "chip": "ym2612"
    },
    {
      "channel": 4,
      "note": 57,
      "start": 182.2725,
      "duration": 0.0968,
      "velocity": 88,
      "chip": "ym2612"
    },
    {
      "channel": 0,
      "note": 78,
      "start": 182.2755,
      "duration": 0.0935,
      "velocity": 98,
      "chip": "ym2612"
    },
    {
      "channel": 3,
      "note": 90,
      "start": 182.2788,
      "duration": 0.1419,
      "velocity": 104,
      "chip": "ym2612"
    },
    {
      "channel": 1,
      "note": 46,
      "start": 182.2818,
      "duration": 0.1388,
      "velocity": 106,
      "chip": "ym2612"
    },
    {
      "channel": 5,
      "note": 55,
      "start": 182.2851,
      "duration": 0.1174,
      "velocity": 120,
      "chip": "ym2612"
    },
    {
      "channel": 4,
      "note": 57,
      "start": 182.4245,
      "duration": 0.1116,
      "velocity": 88,
      "chip": "ym2612"
    },
    {
      "channel": 0,
      "note": 75,
      "start": 182.4279,
      "duration": 0.108,
      "velocity": 98,
      "chip": "ym2612"
    },
    {
      "channel": 3,
      "note": 87,
      "start": 182.4312,
      "duration": 0.1564,
      "velocity": 104,
      "chip": "ym2612"
    },
    {
      "channel": 1,
      "note": 32,
      "start": 182.4342,
      "duration": 0.1533,
      "velocity": 106,
      "chip": "ym2612"
    },
    {
      "channel": 2,
      "note": 39,
      "start": 182.4373,
      "duration": 0.1155,
      "velocity": 116,
      "chip": "ym2612"
    },
    {
      "channel": 4,
      "note": 57,
      "start": 182.5911,
      "duration": 0.08,
      "velocity": 88,
      "chip": "ym2612"
    },
    {
      "channel": 0,
      "note": 72,
      "start": 182.5943,
      "duration": 0.0766,
      "velocity": 98,
      "chip": "ym2612"
    },
    {
      "channel": 3,
      "note": 84,
      "start": 182.5976,
      "duration": 0.1387,
      "velocity": 104,
      "chip": "ym2612"
    },
    {
      "channel": 1,
      "note": 46,
      "start": 182.6006,
      "duration": 0.1356,
      "velocity": 106,
      "chip": "ym2612"
    },
    {
      "channel": 5,
      "note": 55,
      "start": 182.6041,
      "duration": 0.1156,
      "velocity": 120,
      "chip": "ym2612"
    },
    {
      "channel": 4,
      "note": 59,
      "start": 182.7397,
      "duration": 0.0801,
      "velocity": 88,
      "chip": "ym2612"
    },
    {
      "channel": 0,
      "note": 69,
      "start": 182.7429,
      "duration": 0.1101,
      "velocity": 98,
      "chip": "ym2612"
    },
    {
      "channel": 3,
      "note": 81,
      "start": 182.7462,
      "duration": 0.1571,
      "velocity": 104,
      "chip": "ym2612"
    },
    {
      "channel": 1,
      "note": 32,
      "start": 182.7492,
      "duration": 0.1539,
      "velocity": 106,
      "chip": "ym2612"
    },
    {
      "channel": 2,
      "note": 39,
      "start": 182.7537,
      "duration": 0.1162,
      "velocity": 116,
      "chip": "ym2612"
    },
    {
      "channel": 4,
      "note": 59,
      "start": 182.9066,
      "duration": 0.08,
      "velocity": 88,
      "chip": "ym2612"
    },
    {
      "channel": 0,
      "note": 66,
      "start": 182.9096,
      "duration": 0.0951,
      "velocity": 98,
      "chip": "ym2612"
    },
    {
      "channel": 3,
      "note": 78,
      "start": 182.9129,
      "duration": 0.1573,
      "velocity": 104,
      "chip": "ym2612"
    },
    {
      "channel": 1,
      "note": 32,
      "start": 182.9159,
      "duration": 0.1542,
      "velocity": 106,
      "chip": "ym2612"
    },
    {
      "channel": 5,
      "note": 55,
      "start": 182.919,
      "duration": 0.1176,
      "velocity": 120,
      "chip": "ym2612"
    },
    {
      "channel": 4,
      "note": 59,
      "start": 183.0736,
      "duration": 0.0632,
      "velocity": 88,
      "chip": "ym2612"
    },
    {
      "channel": 0,
      "note": 63,
      "start": 183.0766,
      "duration": 0.0949,
      "velocity": 98,
      "chip": "ym2612"
    },
    {
      "channel": 3,
      "note": 75,
      "start": 183.0799,
      "duration": 0.1403,
      "velocity": 104,
      "chip": "ym2612"
    },
    {
      "channel": 1,
      "note": 46,
      "start": 183.0829,
      "duration": 0.1372,
      "velocity": 106,
      "chip": "ym2612"
    },
    {
      "channel": 2,
      "note": 39,
      "start": 183.0879,
      "duration": 0.1158,
      "velocity": 116,
      "chip": "ym2612"
    },
    {
      "channel": 4,
      "note": 59,
      "start": 183.2237,
      "duration": 0.1149,
      "velocity": 88,
      "chip": "ym2612"
    },
    {
      "channel": 0,
      "note": 60,
      "start": 183.2268,
      "duration": 0.1116,
      "velocity": 98,
      "chip": "ym2612"
    },
    {
      "channel": 3,
      "note": 72,
      "start": 183.2305,
      "duration": 0.1568,
      "velocity": 104,
      "chip": "ym2612"
    },
    {
      "channel": 1,
      "note": 32,
      "start": 183.2334,
      "duration": 0.1537,
      "velocity": 106,
      "chip": "ym2612"
    },
    {
      "channel": 5,
      "note": 55,
      "start": 183.2367,
      "duration": 0.1171,
      "velocity": 120,
      "chip": "ym2612"
    },
    {
      "channel": 4,
      "note": 47,
      "start": 183.3906,
      "duration": 0.0968,
      "velocity": 88,
      "chip": "ym2612"
    },
    {
      "channel": 0,
      "note": 84,
      "start": 183.3936,
      "duration": 0.0935,
      "velocity": 98,
      "chip": "ym2612"
    },
    {
      "channel": 3,
      "note": 96,
      "start": 183.3969,
      "duration": 0.1405,
      "velocity": 104,
      "chip": "ym2612"
    },
    {
      "channel": 1,
      "note": 46,
      "start": 183.3999,
      "duration": 0.1373,
      "velocity": 106,
      "chip": "ym2612"
    },
    {
      "channel": 2,
      "note": 39,
      "start": 183.4032,
      "duration": 0.1185,
      "velocity": 116,
      "chip": "ym2612"
    },
    {
      "channel": 4,
      "note": 47,
      "start": 183.5407,
      "duration": 0.1135,
      "velocity": 88,
      "chip": "ym2612"
    },
    {
      "channel": 0,
      "note": 81,
      "start": 183.5438,
      "duration": 0.1102,
      "velocity": 98,
      "chip": "ym2612"
    },
    {
      "channel": 3,
      "note": 93,
      "start": 183.5471,
      "duration": 0.1572,
      "velocity": 104,
      "chip": "ym2612"
    },
    {
      "channel": 1,
      "note": 46,
      "start": 183.5504,
      "duration": 0.0703,
      "velocity": 106,
      "chip": "ym2612"
    },
    {
      "channel": 2,
      "note": 39,
      "start": 183.5536,
      "duration": 0.1189,
      "velocity": 116,
      "chip": "ym2612"
    },
    {
      "channel": 1,
      "note": 46,
      "start": 183.6245,
      "duration": 0.0796,
      "velocity": 106,
      "chip": "ym2612"
    },
    {
      "channel": 4,
      "note": 50,
      "start": 183.7076,
      "duration": 0.0968,
      "velocity": 88,
      "chip": "ym2612"
    },
    {
      "channel": 0,
      "note": 78,
      "start": 183.7106,
      "duration": 0.0935,
      "velocity": 98,
      "chip": "ym2612"
    },
    {
      "channel": 3,
      "note": 90,
      "start": 183.7139,
      "duration": 0.1572,
      "velocity": 104,
      "chip": "ym2612"
    },
    {
      "channel": 1,
      "note": 32,
      "start": 183.7172,
      "duration": 0.1537,
      "velocity": 106,
      "chip": "ym2612"
    },
    {
      "channel": 5,
      "note": 55,
      "start": 183.7209,
      "duration": 0.1184,
      "velocity": 120,
      "chip": "ym2612"
    },
    {
      "channel": 4,
      "note": 52,
      "start": 183.8744,
      "duration": 0.0969,
      "velocity": 88,
      "chip": "ym2612"
    },
    {
      "channel": 0,
      "note": 75,
      "start": 183.8776,
      "duration": 0.0601,
      "velocity": 98,
      "chip": "ym2612"
    },
    {
      "channel": 3,
      "note": 87,
      "start": 183.8809,
      "duration": 0.1404,
      "velocity": 104,
      "chip": "ym2612"
    },
    {
      "channel": 1,
      "note": 46,
      "start": 183.8843,
      "duration": 0.1369,
      "velocity": 106,
      "chip": "ym2612"
    },
    {
      "channel": 2,
      "note": 39,
      "start": 183.8874,
      "duration": 0.1188,
      "velocity": 116,
      "chip": "ym2612"
    },
    {
      "channel": 4,
      "note": 52,
      "start": 184.0247,
      "duration": 0.1135,
      "velocity": 88,
      "chip": "ym2612"
    },
    {
      "channel": 0,
      "note": 72,
      "start": 184.0279,
      "duration": 0.11,
      "velocity": 98,
      "chip": "ym2612"
    },
    {
      "channel": 3,
      "note": 84,
      "start": 184.0312,
      "duration": 0.1571,
      "velocity": 104,
      "chip": "ym2612"
    },
    {
      "channel": 1,
      "note": 32,
      "start": 184.0342,
      "duration": 0.1539,
      "velocity": 106,
      "chip": "ym2612"
    },
    {
      "channel": 5,
      "note": 55,
      "start": 184.0373,
      "duration": 0.1176,
      "velocity": 120,
      "chip": "ym2612"
    },
    {
      "channel": 4,
      "note": 54,
      "start": 184.1917,
      "duration": 0.1299,
      "velocity": 88,
      "chip": "ym2612"
    },
    {
      "channel": 0,
      "note": 69,
      "start": 184.1948,
      "duration": 0.0933,
      "velocity": 98,
      "chip": "ym2612"
    },
    {
      "channel": 3,
      "note": 81,
      "start": 184.198,
      "duration": 0.1418,
      "velocity": 104,
      "chip": "ym2612"
    },
    {
      "channel": 1,
      "note": 32,
      "start": 184.201,
      "duration": 0.1387,
      "velocity": 106,
      "chip": "ym2612"
    },
    {
      "channel": 2,
      "note": 39,
      "start": 184.2042,
      "duration": 0.1176,
      "velocity": 116,
      "chip": "ym2612"
    },
    {
      "channel": 4,
      "note": 57,
      "start": 184.3437,
      "duration": 0.1116,
      "velocity": 88,
      "chip": "ym2612"
    },
    {
      "channel": 0,
      "note": 66,
      "start": 184.3472,
      "duration": 0.1079,
      "velocity": 98,
      "chip": "ym2612"
    },
    {
      "channel": 3,
      "note": 78,
      "start": 184.3505,
      "duration": 0.1563,
      "velocity": 104,
      "chip": "ym2612"
    },
    {
      "channel": 1,
      "note": 46,
      "start": 184.3534,
      "duration": 0.1532,
      "velocity": 106,
      "chip": "ym2612"
    },
    {
      "channel": 5,
      "note": 55,
      "start": 184.3565,
      "duration": 0.1154,
      "velocity": 120,
      "chip": "ym2612"
    },
    {
      "channel": 4,
      "note": 59,
      "start": 184.5103,
      "duration": 0.08,
      "velocity": 88,
      "chip": "ym2612"
    },
    {
      "channel": 0,
      "note": 63,
      "start": 184.5133,
      "duration": 0.0919,
      "velocity": 98,
      "chip": "ym2612"
    },
    {
      "channel": 3,
      "note": 75,
      "start": 184.5166,
      "duration": 0.157,
      "velocity": 104,
      "chip": "ym2612"
    },
    {
      "channel": 1,
      "note": 40,
      "start": 184.5199,
      "duration": 0.0702,
      "velocity": 106,
      "chip": "ym2612"
    },
    {
      "channel": 2,
      "note": 39,
      "start": 184.5232,
      "duration": 0.1156,
      "velocity": 116,
      "chip": "ym2612"
    },
    {
      "channel": 1,
      "note": 40,
      "start": 184.594,
      "duration": 0.0795,
      "velocity": 106,
      "chip": "ym2612"
    },
    {
      "channel": 0,
      "note": 59,
      "start": 184.6798,
      "duration": 0.1257,
      "velocity": 98,
      "chip": "ym2612"
    },
    {
      "channel": 1,
      "note": 43,
      "start": 184.6869,
      "duration": 0.1353,
      "velocity": 106,
      "chip": "ym2612"
    },
    {
      "channel": 0,
      "note": 71,
      "start": 184.8259,
      "duration": 0.1131,
      "velocity": 98,
      "chip": "ym2612"
    },
    {
      "channel": 1,
      "note": 43,
      "start": 184.8294,
      "duration": 0.0762,
      "velocity": 106,
      "chip": "ym2612"
    },
    {
      "channel": 1,
      "note": 43,
      "start": 184.9096,
      "duration": 0.0461,
      "velocity": 106,
      "chip": "ym2612"
    },
    {
      "channel": 0,
      "note": 61,
      "start": 184.9927,
      "duration": 0.1298,
      "velocity": 98,
      "chip": "ym2612"
    },
    {
      "channel": 1,
      "note": 36,
      "start": 184.9962,
      "duration": 0.1431,
      "velocity": 106,
      "chip": "ym2612"
    },
    {
      "channel": 0,
      "note": 73,
      "start": 185.1429,
      "duration": 0.1299,
      "velocity": 98,
      "chip": "ym2612"
    },
    {
      "channel": 1,
      "note": 36,
      "start": 185.1464,
      "duration": 0.0597,
      "velocity": 106,
      "chip": "ym2612"
    },
    {
      "channel": 1,
      "note": 36,
      "start": 185.2269,
      "duration": 0.0792,
      "velocity": 106,
      "chip": "ym2612"
    },
    {
      "channel": 0,
      "note": 62,
      "start": 185.3097,
      "duration": 0.13,
      "velocity": 98,
      "chip": "ym2612"
    },
    {
      "channel": 1,
      "note": 43,
      "start": 185.3132,
      "duration": 0.1599,
      "velocity": 106,
      "chip": "ym2612"
    },
    {
      "channel": 0,
      "note": 74,
      "start": 185.4768,
      "duration": 0.0964,
      "velocity": 98,
      "chip": "ym2612"
    },
    {
      "channel": 1,
      "note": 43,
      "start": 185.48,
      "duration": 0.1433,
      "velocity": 106,
      "chip": "ym2612"
    },
    {
      "channel": 0,
      "note": 61,
      "start": 185.627,
      "duration": 0.1312,
      "velocity": 98,
      "chip": "ym2612"
    },
    {
      "channel": 1,
      "note": 36,
      "start": 185.6302,
      "duration": 0.16,
      "velocity": 106,
      "chip": "ym2612"
    },
    {
      "channel": 0,
      "note": 73,
      "start": 185.7942,
      "duration": 0.0959,
      "velocity": 98,
      "chip": "ym2612"
    },
    {
      "channel": 1,
      "note": 36,
      "start": 185.7975,
      "duration": 0.1428,
      "velocity": 106,
      "chip": "ym2612"
    },
    {
      "channel": 0,
      "note": 59,
      "start": 185.9439,
      "duration": 0.1299,
      "velocity": 98,
      "chip": "ym2612"
    },
    {
      "channel": 1,
      "note": 43,
      "start": 185.9472,
      "duration": 0.16,
      "velocity": 106,
      "chip": "ym2612"
    },
    {
      "channel": 0,
      "note": 71,
      "start": 186.1108,
      "duration": 0.0964,
      "velocity": 98,
      "chip": "ym2612"
    },
    {
      "channel": 1,
      "note": 43,
      "start": 186.1144,
      "duration": 0.0762,
      "velocity": 106,
      "chip": "ym2612"
    },
    {
      "channel": 1,
      "note": 43,
      "start": 186.1946,
      "duration": 0.0462,
      "velocity": 106,
      "chip": "ym2612"
    },
    {
      "channel": 0,
      "note": 57,
      "start": 186.2775,
      "duration": 0.0967,
      "velocity": 98,
      "chip": "ym2612"
    },
    {
      "channel": 1,
      "note": 36,
      "start": 186.2814,
      "duration": 0.1444,
      "velocity": 106,
      "chip": "ym2612"
    },
    {
      "channel": 0,
      "note": 69,
      "start": 186.4293,
      "duration": 0.1117,
      "velocity": 98,
      "chip": "ym2612"
    },
    {
      "channel": 1,
      "note": 36,
      "start": 186.4328,
      "duration": 0.0416,
      "velocity": 106,
      "chip": "ym2612"
    },
    {
      "channel": 1,
      "note": 36,
      "start": 186.513,
      "duration": 0.0448,
      "velocity": 106,
      "chip": "ym2612"
    },
    {
      "channel": 0,
      "note": 55,
      "start": 186.5961,
      "duration": 0.0951,
      "velocity": 98,
      "chip": "ym2612"
    },
    {
      "channel": 1,
      "note": 43,
      "start": 186.5996,
      "duration": 0.0765,
      "velocity": 106,
      "chip": "ym2612"
    },
    {
      "channel": 0,
      "note": 67,
      "start": 186.745,
      "duration": 0.1298,
      "velocity": 98,
      "chip": "ym2612"
    },
    {
      "channel": 1,
      "note": 43,
      "start": 186.7483,
      "duration": 0.0765,
      "velocity": 106,
      "chip": "ym2612"
    },
    {
      "channel": 1,
      "note": 43,
      "start": 186.8288,
      "duration": 0.0461,
      "velocity": 106,
      "chip": "ym2612"
    },
    {
      "channel": 0,
      "note": 54,
      "start": 186.9119,
      "duration": 0.0979,
      "velocity": 98,
      "chip": "ym2612"
    },
    {
      "channel": 1,
      "note": 36,
      "start": 186.9153,
      "duration": 0.0431,
      "velocity": 106,
      "chip": "ym2612"
    },
    {
      "channel": 0,
      "note": 66,
      "start": 187.0788,
      "duration": 0.1299,
      "velocity": 98,
      "chip": "ym2612"
    },
    {
      "channel": 1,
      "note": 36,
      "start": 187.082,
      "duration": 0.0432,
      "velocity": 106,
      "chip": "ym2612"
    },
    {
      "channel": 0,
      "note": 59,
      "start": 187.2287,
      "duration": 0.1302,
      "velocity": 98,
      "chip": "ym2612"
    },
    {
      "channel": 1,
      "note": 36,
      "start": 187.2328,
      "duration": 0.0761,
      "velocity": 106,
      "chip": "ym2612"
    },
    {
      "channel": 5,
      "note": 37,
      "start": 187.2378,
      "duration": 0.238,
      "velocity": 124,
      "chip": "ym2612"
    },
    {
      "channel": 0,
      "note": 71,
      "start": 187.3963,
      "duration": 0.0961,
      "velocity": 98,
      "chip": "ym2612"
    },
    {
      "channel": 0,
      "note": 61,
      "start": 187.546,
      "duration": 0.1314,
      "velocity": 98,
      "chip": "ym2612"
    },
    {
      "channel": 5,
      "note": 37,
      "start": 187.5499,
      "duration": 0.243,
      "velocity": 124,
      "chip": "ym2612"
    },
    {
      "channel": 0,
      "note": 73,
      "start": 187.7129,
      "duration": 0.0964,
      "velocity": 98,
      "chip": "ym2612"
    },
    {
      "channel": 0,
      "note": 62,
      "start": 187.8798,
      "duration": 0.1313,
      "velocity": 98,
      "chip": "ym2612"
    },
    {
      "channel": 5,
      "note": 37,
      "start": 187.8837,
      "duration": 0.2262,
      "velocity": 124,
      "chip": "ym2612"
    },
    {
      "channel": 0,
      "note": 74,
      "start": 188.0299,
      "duration": 0.1132,
      "velocity": 98,
      "chip": "ym2612"
    },
    {
      "channel": 0,
      "note": 64,
      "start": 188.1969,
      "duration": 0.1298,
      "velocity": 98,
      "chip": "ym2612"
    },
    {
      "channel": 5,
      "note": 37,
      "start": 188.2008,
      "duration": 0.2272,
      "velocity": 124,
      "chip": "ym2612"
    },
    {
      "channel": 0,
      "note": 76,
      "start": 188.3486,
      "duration": 0.1117,
      "velocity": 98,
      "chip": "ym2612"
    },
    {
      "channel": 0,
      "note": 77,
      "start": 188.5153,
      "duration": 0.0951,
      "velocity": 98,
      "chip": "ym2612"
    },
    {
      "channel": 5,
      "note": 37,
      "start": 188.52,
      "duration": 0.2241,
      "velocity": 124,
      "chip": "ym2612"
    },
    {
      "channel": 0,
      "note": 65,
      "start": 188.6824,
      "duration": 0.0615,
      "velocity": 98,
      "chip": "ym2612"
    },
    {
      "channel": 0,
      "note": 53,
      "start": 188.8313,
      "duration": 0.1128,
      "velocity": 98,
      "chip": "ym2612"
    },
    {
      "channel": 5,
      "note": 37,
      "start": 188.8353,
      "duration": 0.2426,
      "velocity": 124,
      "chip": "ym2612"
    },
    {
      "channel": 0,
      "note": 65,
      "start": 188.9978,
      "duration": 0.0981,
      "velocity": 98,
      "chip": "ym2612"
    },
    {
      "channel": 0,
      "note": 77,
      "start": 189.1479,
      "duration": 0.1148,
      "velocity": 98,
      "chip": "ym2612"
    },
    {
      "channel": 5,
      "note": 37,
      "start": 189.1519,
      "duration": 0.243,
      "velocity": 124,
      "chip": "ym2612"
    },
    {
      "channel": 0,
      "note": 65,
      "start": 189.3148,
      "duration": 0.0966,
      "velocity": 98,
      "chip": "ym2612"
    },
    {
      "channel": 0,
      "note": 53,
      "start": 189.4817,
      "duration": 0.0966,
      "velocity": 98,
      "chip": "ym2612"
    },
    {
      "channel": 5,
      "note": 37,
      "start": 189.4861,
      "duration": 0.2259,
      "velocity": 124,
      "chip": "ym2612"
    },
    {
      "channel": 0,
      "note": 65,
      "start": 189.6319,
      "duration": 0.1132,
      "velocity": 98,
      "chip": "ym2612"
    },
    {
      "channel": 0,
      "note": 59,
      "start": 189.7989,
      "duration": 0.1314,
      "velocity": 98,
      "chip": "ym2612"
    },
    {
      "channel": 5,
      "note": 37,
      "start": 189.8039,
      "duration": 0.2252,
      "velocity": 124,
      "chip": "ym2612"
    },
    {
      "channel": 0,
      "note": 71,
      "start": 189.9491,
      "duration": 0.1131,
      "velocity": 98,
      "chip": "ym2612"
    }
  ]
}