{
  "track_name": "08 - Bonus Table 8",
  "duration_sec": 20.699,
  "sample_rate": 44100,
  "note_count": 876,
  "unique_pitches": 29,
  "pitch_range": 43,
  "avg_note_duration": 0.1,
  "reconstruction_stats": {
    "notes_reconstructed": 876,
    "keyon_events": 876,
    "keyoff_events": 871,
    "orphan_keyons": 5,
    "unique_pitches": 29,
    "pitch_range": 43,
    "avg_duration_sec": 0.1
  },
  "metadata": {
    "source": "D\\Dragon's Fury\\08 - Bonus Table 8.vgz"
  },
  "notes": [
    {
      "channel": 0,
      "note": 61,
      "start": 0.0,
      "duration": 0.0,
      "velocity": 81,
      "chip": "ym2612"
    },
    {
      "channel": 0,
      "note": 59,
      "start": 0.0,
      "duration": 0.0,
      "velocity": 81,
      "chip": "ym2612"
    },
    {
      "channel": 0,
      "note": 61,
      "start": 0.0,
      "duration": 0.0,
      "velocity": 81,
      "chip": "ym2612"
    },
    {
      "channel": 0,
      "note": 62,
      "start": 0.0,
      "duration": 0.0,
      "velocity": 81,
      "chip": "ym2612"
    },
    {
      "channel": 0,
      "note": 66,
      "start": 0.0,
      "duration": 0.0,
      "velocity": 81,
      "chip": "ym2612"
    },
    {
      "channel": 1,
      "note": 54,
      "start": 0.0,
      "duration": 0.0,
      "velocity": 95,
      "chip": "ym2612"
    },
    {
      "channel": 2,
      "note": 64,
      "start": 0.0,
      "duration": 0.0,
      "velocity": 81,
      "chip": "ym2612"
    },
    {
      "channel": 2,
      "note": 62,
      "start": 0.0,
      "duration": 0.0,
      "velocity": 81,
      "chip": "ym2612"
    },
    {
      "channel": 2,
      "note": 64,
      "start": 0.0,
      "duration": 0.0,
      "velocity": 81,
      "chip": "ym2612"
    },
    {
      "channel": 2,
      "note": 66,
      "start": 0.0,
      "duration": 0.0,
      "velocity": 81,
      "chip": "ym2612"
    },
    {
      "channel": 2,
      "note": 69,
      "start": 0.0,
      "duration": 0.0,
      "velocity": 81,
      "chip": "ym2612"
    },
    {
      "channel": 3,
      "note": 61,
      "start": 0.0,
      "duration": 0.0,
      "velocity": 127,
      "chip": "ym2612"
    },
    {
      "channel": 3,
      "note": 61,
      "start": 0.0,
      "duration": 0.0,
      "velocity": 127,
      "chip": "ym2612"
    },
    {
      "channel": 3,
      "note": 61,
      "start": 0.0,
      "duration": 0.0,
      "velocity": 127,
      "chip": "ym2612"
    },
    {
      "channel": 4,
      "note": 64,
      "start": 0.0,
      "duration": 0.0,
      "velocity": 81,
      "chip": "ym2612"
    },
    {
      "channel": 4,
      "note": 62,
      "start": 0.0,
      "duration": 0.0,
      "velocity": 81,
      "chip": "ym2612"
    },
    {
      "channel": 4,
      "note": 61,
      "start": 0.0,
      "duration": 0.0,
      "velocity": 81,
      "chip": "ym2612"
    },
    {
      "channel": 4,
      "note": 59,
      "start": 0.0,
      "duration": 0.0,
      "velocity": 81,
      "chip": "ym2612"
    },
    {
      "channel": 4,
      "note": 61,
      "start": 0.0,
      "duration": 0.0,
      "velocity": 81,
      "chip": "ym2612"
    },
    {
      "channel": 5,
      "note": 67,
      "start": 0.0,
      "duration": 0.0,
      "velocity": 81,
      "chip": "ym2612"
    },
    {
      "channel": 5,
      "note": 66,
      "start": 0.0,
      "duration": 0.0,
      "velocity": 81,
      "chip": "ym2612"
    },
    {
      "channel": 5,
      "note": 64,
      "start": 0.0,
      "duration": 0.0,
      "velocity": 81,
      "chip": "ym2612"
    },
    {
      "channel": 5,
      "note": 62,
      "start": 0.0,
      "duration": 0.0,
      "velocity": 81,
      "chip": "ym2612"
    },
    {
      "channel": 5,
      "note": 64,
      "start": 0.0,
      "duration": 0.0,
      "velocity": 81,
      "chip": "ym2612"
    },
    {
      "channel": 0,
      "note": 59,
      "start": 0.0002,
      "duration": 0.9857,
      "velocity": 103,
      "chip": "ym2612"
    },
    {
      "channel": 1,
      "note": 47,
      "start": 0.0021,
      "duration": 0.0746,
      "velocity": 95,
      "chip": "ym2612"
    },
    {
      "channel": 2,
      "note": 71,
      "start": 0.0038,
      "duration": 0.0738,
      "velocity": 95,
      "chip": "ym2612"
    },
    {
      "channel": 3,
      "note": 61,
      "start": 0.0089,
      "duration": 0.0696,
      "velocity": 127,
      "chip": "ym2612"
    },
    {
      "channel": 4,
      "note": 54,
      "start": 0.0107,
      "duration": 0.9763,
      "velocity": 103,
      "chip": "ym2612"
    },
    {
      "channel": 1,
      "note": 59,
      "start": 0.1119,
      "duration": 0.066,
      "velocity": 95,
      "chip": "ym2612"
    },
    {
      "channel": 2,
      "note": 74,
      "start": 0.1136,
      "duration": 0.0651,
      "velocity": 95,
      "chip": "ym2612"
    },
    {
      "channel": 5,
      "note": 71,
      "start": 0.166,
      "duration": 0.0662,
      "velocity": 95,
      "chip": "ym2612"
    },
    {
      "channel": 1,
      "note": 47,
      "start": 0.214,
      "duration": 0.0649,
      "velocity": 95,
      "chip": "ym2612"
    },
    {
      "channel": 2,
      "note": 83,
      "start": 0.2157,
      "duration": 0.0641,
      "velocity": 95,
      "chip": "ym2612"
    },
    {
      "channel": 3,
      "note": 61,
      "start": 0.2212,
      "duration": 0.0093,
      "velocity": 119,
      "chip": "ym2612"
    },
    {
      "channel": 5,
      "note": 74,
      "start": 0.2671,
      "duration": 0.0666,
      "velocity": 95,
      "chip": "ym2612"
    },
    {
      "channel": 1,
      "note": 59,
      "start": 0.3141,
      "duration": 0.066,
      "velocity": 95,
      "chip": "ym2612"
    },
    {
      "channel": 2,
      "note": 82,
      "start": 0.3159,
      "duration": 0.0651,
      "velocity": 95,
      "chip": "ym2612"
    },
    {
      "channel": 3,
      "note": 61,
      "start": 0.3213,
      "duration": 0.0606,
      "velocity": 127,
      "chip": "ym2612"
    },
    {
      "channel": 5,
      "note": 83,
      "start": 0.3678,
      "duration": 0.0665,
      "velocity": 95,
      "chip": "ym2612"
    },
    {
      "channel": 1,
      "note": 47,
      "start": 0.4154,
      "duration": 0.0658,
      "velocity": 95,
      "chip": "ym2612"
    },
    {
      "channel": 2,
      "note": 83,
      "start": 0.4172,
      "duration": 0.0649,
      "velocity": 95,
      "chip": "ym2612"
    },
    {
      "channel": 3,
      "note": 61,
      "start": 0.4227,
      "duration": 0.0604,
      "velocity": 127,
      "chip": "ym2612"
    },
    {
      "channel": 5,
      "note": 82,
      "start": 0.469,
      "duration": 0.0663,
      "velocity": 95,
      "chip": "ym2612"
    },
    {
      "channel": 1,
      "note": 59,
      "start": 0.5164,
      "duration": 0.0658,
      "velocity": 95,
      "chip": "ym2612"
    },
    {
      "channel": 2,
      "note": 85,
      "start": 0.5181,
      "duration": 0.0651,
      "velocity": 95,
      "chip": "ym2612"
    },
    {
      "channel": 5,
      "note": 83,
      "start": 0.5705,
      "duration": 0.0661,
      "velocity": 95,
      "chip": "ym2612"
    },
    {
      "channel": 1,
      "note": 47,
      "start": 0.6181,
      "duration": 0.0646,
      "velocity": 95,
      "chip": "ym2612"
    },
    {
      "channel": 2,
      "note": 83,
      "start": 0.6198,
      "duration": 0.0638,
      "velocity": 95,
      "chip": "ym2612"
    },
    {
      "channel": 3,
      "note": 61,
      "start": 0.6252,
      "duration": 0.0097,
      "velocity": 119,
      "chip": "ym2612"
    },
    {
      "channel": 5,
      "note": 85,
      "start": 0.6698,
      "duration": 0.0653,
      "velocity": 95,
      "chip": "ym2612"
    },
    {
      "channel": 1,
      "note": 59,
      "start": 0.718,
      "duration": 0.0659,
      "velocity": 95,
      "chip": "ym2612"
    },
    {
      "channel": 2,
      "note": 82,
      "start": 0.7196,
      "duration": 0.0644,
      "velocity": 95,
      "chip": "ym2612"
    },
    {
      "channel": 3,
      "note": 61,
      "start": 0.725,
      "duration": 0.0595,
      "velocity": 127,
      "chip": "ym2612"
    },
    {
      "channel": 5,
      "note": 83,
      "start": 0.7695,
      "duration": 0.066,
      "velocity": 95,
      "chip": "ym2612"
    },
    {
      "channel": 1,
      "note": 47,
      "start": 0.8191,
      "duration": 0.0658,
      "velocity": 95,
      "chip": "ym2612"
    },
    {
      "channel": 2,
      "note": 83,
      "start": 0.8208,
      "duration": 0.0644,
      "velocity": 95,
      "chip": "ym2612"
    },
    {
      "channel": 3,
      "note": 61,
      "start": 0.8263,
      "duration": 0.0089,
      "velocity": 119,
      "chip": "ym2612"
    },
    {
      "channel": 5,
      "note": 82,
      "start": 0.8705,
      "duration": 0.066,
      "velocity": 95,
      "chip": "ym2612"
    },
    {
      "channel": 1,
      "note": 59,
      "start": 0.9201,
      "duration": 0.0661,
      "velocity": 95,
      "chip": "ym2612"
    },
    {
      "channel": 2,
      "note": 78,
      "start": 0.9218,
      "duration": 0.0646,
      "velocity": 95,
      "chip": "ym2612"
    },
    {
      "channel": 3,
      "note": 61,
      "start": 0.9271,
      "duration": 0.0596,
      "velocity": 127,
      "chip": "ym2612"
    },
    {
      "channel": 5,
      "note": 83,
      "start": 0.9711,
      "duration": 0.0665,
      "velocity": 95,
      "chip": "ym2612"
    },
    {
      "channel": 0,
      "note": 59,
      "start": 1.0213,
      "duration": 0.1669,
      "velocity": 103,
      "chip": "ym2612"
    },
    {
      "channel": 1,
      "note": 47,
      "start": 1.0232,
      "duration": 0.0641,
      "velocity": 95,
      "chip": "ym2612"
    },
    {
      "channel": 2,
      "note": 79,
      "start": 1.0248,
      "duration": 0.0626,
      "velocity": 95,
      "chip": "ym2612"
    },
    {
      "channel": 3,
      "note": 61,
      "start": 1.0302,
      "duration": 0.0576,
      "velocity": 127,
      "chip": "ym2612"
    },
    {
      "channel": 4,
      "note": 54,
      "start": 1.032,
      "duration": 0.1575,
      "velocity": 103,
      "chip": "ym2612"
    },
    {
      "channel": 5,
      "note": 78,
      "start": 1.0722,
      "duration": 0.0665,
      "velocity": 95,
      "chip": "ym2612"
    },
    {
      "channel": 1,
      "note": 59,
      "start": 1.1224,
      "duration": 0.0661,
      "velocity": 95,
      "chip": "ym2612"
    },
    {
      "channel": 2,
      "note": 73,
      "start": 1.124,
      "duration": 0.0646,
      "velocity": 95,
      "chip": "ym2612"
    },
    {
      "channel": 5,
      "note": 79,
      "start": 1.1738,
      "duration": 0.0666,
      "velocity": 95,
      "chip": "ym2612"
    },
    {
      "channel": 0,
      "note": 61,
      "start": 1.2234,
      "duration": 0.9759,
      "velocity": 103,
      "chip": "ym2612"
    },
    {
      "channel": 1,
      "note": 47,
      "start": 1.2257,
      "duration": 0.0637,
      "velocity": 95,
      "chip": "ym2612"
    },
    {
      "channel": 2,
      "note": 69,
      "start": 1.2277,
      "duration": 0.062,
      "velocity": 95,
      "chip": "ym2612"
    },
    {
      "channel": 3,
      "note": 61,
      "start": 1.2336,
      "duration": 0.0564,
      "velocity": 127,
      "chip": "ym2612"
    },
    {
      "channel": 4,
      "note": 57,
      "start": 1.2353,
      "duration": 0.9651,
      "velocity": 103,
      "chip": "ym2612"
    },
    {
      "channel": 5,
      "note": 73,
      "start": 1.2745,
      "duration": 0.0664,
      "velocity": 95,
      "chip": "ym2612"
    },
    {
      "channel": 1,
      "note": 59,
      "start": 1.3246,
      "duration": 0.066,
      "velocity": 95,
      "chip": "ym2612"
    },
    {
      "channel": 2,
      "note": 73,
      "start": 1.3262,
      "duration": 0.0646,
      "velocity": 95,
      "chip": "ym2612"
    },
    {
      "channel": 5,
      "note": 69,
      "start": 1.3764,
      "duration": 0.0659,
      "velocity": 95,
      "chip": "ym2612"
    },
    {
      "channel": 1,
      "note": 47,
      "start": 1.4259,
      "duration": 0.0659,
      "velocity": 95,
      "chip": "ym2612"
    },
    {
      "channel": 2,
      "note": 81,
      "start": 1.4275,
      "duration": 0.0644,
      "velocity": 95,
      "chip": "ym2612"
    },
    {
      "channel": 3,
      "note": 61,
      "start": 1.4329,
      "duration": 0.0091,
      "velocity": 119,
      "chip": "ym2612"
    },
    {
      "channel": 5,
      "note": 73,
      "start": 1.4772,
      "duration": 0.066,
      "velocity": 95,
      "chip": "ym2612"
    },
    {
      "channel": 1,
      "note": 59,
      "start": 1.5268,
      "duration": 0.0666,
      "velocity": 95,
      "chip": "ym2612"
    },
    {
      "channel": 2,
      "note": 80,
      "start": 1.5285,
      "duration": 0.0651,
      "velocity": 95,
      "chip": "ym2612"
    },
    {
      "channel": 3,
      "note": 61,
      "start": 1.5339,
      "duration": 0.06,
      "velocity": 127,
      "chip": "ym2612"
    },
    {
      "channel": 5,
      "note": 81,
      "start": 1.5779,
      "duration": 0.0665,
      "velocity": 95,
      "chip": "ym2612"
    },
    {
      "channel": 1,
      "note": 47,
      "start": 1.6281,
      "duration": 0.0659,
      "velocity": 95,
      "chip": "ym2612"
    },
    {
      "channel": 2,
      "note": 81,
      "start": 1.6297,
      "duration": 0.0645,
      "velocity": 95,
      "chip": "ym2612"
    },
    {
      "channel": 3,
      "note": 61,
      "start": 1.6353,
      "duration": 0.0593,
      "velocity": 127,
      "chip": "ym2612"
    },
    {
      "channel": 5,
      "note": 80,
      "start": 1.679,
      "duration": 0.0664,
      "velocity": 95,
      "chip": "ym2612"
    },
    {
      "channel": 1,
      "note": 59,
      "start": 1.7292,
      "duration": 0.0659,
      "velocity": 95,
      "chip": "ym2612"
    },
    {
      "channel": 2,
      "note": 76,
      "start": 1.7308,
      "duration": 0.0644,
      "velocity": 95,
      "chip": "ym2612"
    },
    {
      "channel": 5,
      "note": 81,
      "start": 1.7805,
      "duration": 0.0662,
      "velocity": 95,
      "chip": "ym2612"
    },
    {
      "channel": 1,
      "note": 47,
      "start": 1.8303,
      "duration": 0.0659,
      "velocity": 95,
      "chip": "ym2612"
    },
    {
      "channel": 2,
      "note": 81,
      "start": 1.8321,
      "duration": 0.0643,
      "velocity": 95,
      "chip": "ym2612"
    },
    {
      "channel": 3,
      "note": 61,
      "start": 1.8374,
      "duration": 0.009,
      "velocity": 119,
      "chip": "ym2612"
    },
    {
      "channel": 5,
      "note": 76,
      "start": 1.8826,
      "duration": 0.0651,
      "velocity": 95,
      "chip": "ym2612"
    },
    {
      "channel": 1,
      "note": 59,
      "start": 1.9313,
      "duration": 0.0663,
      "velocity": 95,
      "chip": "ym2612"
    },
    {
      "channel": 2,
      "note": 83,
      "start": 1.9331,
      "duration": 0.0647,
      "velocity": 95,
      "chip": "ym2612"
    },
    {
      "channel": 3,
      "note": 61,
      "start": 1.9385,
      "duration": 0.0597,
      "velocity": 127,
      "chip": "ym2612"
    },
    {
      "channel": 5,
      "note": 81,
      "start": 1.9823,
      "duration": 0.0666,
      "velocity": 95,
      "chip": "ym2612"
    },
    {
      "channel": 1,
      "note": 47,
      "start": 2.0326,
      "duration": 0.0658,
      "velocity": 95,
      "chip": "ym2612"
    },
    {
      "channel": 2,
      "note": 81,
      "start": 2.0342,
      "duration": 0.0644,
      "velocity": 95,
      "chip": "ym2612"
    },
    {
      "channel": 3,
      "note": 61,
      "start": 2.0398,
      "duration": 0.0088,
      "velocity": 119,
      "chip": "ym2612"
    },
    {
      "channel": 5,
      "note": 83,
      "start": 2.0839,
      "duration": 0.066,
      "velocity": 95,
      "chip": "ym2612"
    },
    {
      "channel": 1,
      "note": 59,
      "start": 2.1336,
      "duration": 0.0661,
      "velocity": 95,
      "chip": "ym2612"
    },
    {
      "channel": 2,
      "note": 80,
      "start": 2.1353,
      "duration": 0.0646,
      "velocity": 95,
      "chip": "ym2612"
    },
    {
      "channel": 3,
      "note": 61,
      "start": 2.1406,
      "duration": 0.0596,
      "velocity": 127,
      "chip": "ym2612"
    },
    {
      "channel": 5,
      "note": 81,
      "start": 2.1846,
      "duration": 0.0664,
      "velocity": 95,
      "chip": "ym2612"
    },
    {
      "channel": 0,
      "note": 61,
      "start": 2.2347,
      "duration": 0.1672,
      "velocity": 103,
      "chip": "ym2612"
    },
    {
      "channel": 1,
      "note": 47,
      "start": 2.2365,
      "duration": 0.0641,
      "velocity": 95,
      "chip": "ym2612"
    },
    {
      "channel": 2,
      "note": 81,
      "start": 2.2382,
      "duration": 0.0627,
      "velocity": 95,
      "chip": "ym2612"
    },
    {
      "channel": 3,
      "note": 61,
      "start": 2.2435,
      "duration": 0.0576,
      "velocity": 127,
      "chip": "ym2612"
    },
    {
      "channel": 4,
      "note": 57,
      "start": 2.2453,
      "duration": 0.1578,
      "velocity": 103,
      "chip": "ym2612"
    },
    {
      "channel": 5,
      "note": 80,
      "start": 2.2862,
      "duration": 0.066,
      "velocity": 95,
      "chip": "ym2612"
    },
    {
      "channel": 1,
      "note": 59,
      "start": 2.3358,
      "duration": 0.0663,
      "velocity": 95,
      "chip": "ym2612"
    },
    {
      "channel": 2,
      "note": 76,
      "start": 2.3374,
      "duration": 0.0649,
      "velocity": 95,
      "chip": "ym2612"
    },
    {
      "channel": 5,
      "note": 81,
      "start": 2.3872,
      "duration": 0.0666,
      "velocity": 95,
      "chip": "ym2612"
    },
    {
      "channel": 0,
      "note": 64,
      "start": 2.4369,
      "duration": 0.976,
      "velocity": 103,
      "chip": "ym2612"
    },
    {
      "channel": 1,
      "note": 47,
      "start": 2.4391,
      "duration": 0.0637,
      "velocity": 95,
      "chip": "ym2612"
    },
    {
      "channel": 2,
      "note": 71,
      "start": 2.4411,
      "duration": 0.062,
      "velocity": 95,
      "chip": "ym2612"
    },
    {
      "channel": 3,
      "note": 61,
      "start": 2.447,
      "duration": 0.0564,
      "velocity": 127,
      "chip": "ym2612"
    },
    {
      "channel": 4,
      "note": 59,
      "start": 2.4488,
      "duration": 0.9651,
      "velocity": 103,
      "chip": "ym2612"
    },
    {
      "channel": 5,
      "note": 76,
      "start": 2.4879,
      "duration": 0.0664,
      "velocity": 95,
      "chip": "ym2612"
    },
    {
      "channel": 1,
      "note": 59,
      "start": 2.538,
      "duration": 0.066,
      "velocity": 95,
      "chip": "ym2612"
    },
    {
      "channel": 2,
      "note": 74,
      "start": 2.5397,
      "duration": 0.0646,
      "velocity": 95,
      "chip": "ym2612"
    },
    {
      "channel": 5,
      "note": 71,
      "start": 2.5898,
      "duration": 0.0659,
      "velocity": 95,
      "chip": "ym2612"
    },
    {
      "channel": 1,
      "note": 47,
      "start": 2.6393,
      "duration": 0.0658,
      "velocity": 95,
      "chip": "ym2612"
    },
    {
      "channel": 2,
      "note": 83,
      "start": 2.641,
      "duration": 0.0644,
      "velocity": 95,
      "chip": "ym2612"
    },
    {
      "channel": 3,
      "note": 61,
      "start": 2.6463,
      "duration": 0.009,
      "velocity": 119,
      "chip": "ym2612"
    },
    {
      "channel": 5,
      "note": 74,
      "start": 2.6911,
      "duration": 0.0655,
      "velocity": 95,
      "chip": "ym2612"
    },
    {
      "channel": 1,
      "note": 59,
      "start": 2.7403,
      "duration": 0.066,
      "velocity": 95,
      "chip": "ym2612"
    },
    {
      "channel": 2,
      "note": 82,
      "start": 2.742,
      "duration": 0.0645,
      "velocity": 95,
      "chip": "ym2612"
    },
    {
      "channel": 3,
      "note": 61,
      "start": 2.7473,
      "duration": 0.0595,
      "velocity": 127,
      "chip": "ym2612"
    },
    {
      "channel": 5,
      "note": 83,
      "start": 2.7913,
      "duration": 0.0665,
      "velocity": 95,
      "chip": "ym2612"
    },
    {
      "channel": 1,
      "note": 47,
      "start": 2.8416,
      "duration": 0.0659,
      "velocity": 95,
      "chip": "ym2612"
    },
    {
      "channel": 2,
      "note": 83,
      "start": 2.8432,
      "duration": 0.0644,
      "velocity": 95,
      "chip": "ym2612"
    },
    {
      "channel": 3,
      "note": 61,
      "start": 2.8487,
      "duration": 0.0593,
      "velocity": 127,
      "chip": "ym2612"
    },
    {
      "channel": 5,
      "note": 82,
      "start": 2.8924,
      "duration": 0.0665,
      "velocity": 95,
      "chip": "ym2612"
    },
    {
      "channel": 1,
      "note": 59,
      "start": 2.9426,
      "duration": 0.0659,
      "velocity": 95,
      "chip": "ym2612"
    },
    {
      "channel": 2,
      "note": 85,
      "start": 2.9442,
      "duration": 0.0644,
      "velocity": 95,
      "chip": "ym2612"
    },
    {
      "channel": 5,
      "note": 83,
      "start": 2.994,
      "duration": 0.0661,
      "velocity": 95,
      "chip": "ym2612"
    },
    {
      "channel": 1,
      "note": 47,
      "start": 3.0438,
      "duration": 0.0659,
      "velocity": 95,
      "chip": "ym2612"
    },
    {
      "channel": 2,
      "note": 83,
      "start": 3.0454,
      "duration": 0.0644,
      "velocity": 95,
      "chip": "ym2612"
    },
    {
      "channel": 3,
      "note": 61,
      "start": 3.0509,
      "duration": 0.009,
      "velocity": 119,
      "chip": "ym2612"
    },
    {
      "channel": 5,
      "note": 85,
      "start": 3.0951,
      "duration": 0.066,
      "velocity": 95,
      "chip": "ym2612"
    },
    {
      "channel": 1,
      "note": 59,
      "start": 3.1447,
      "duration": 0.066,
      "velocity": 95,
      "chip": "ym2612"
    },
    {
      "channel": 2,
      "note": 82,
      "start": 3.1464,
      "duration": 0.0646,
      "velocity": 95,
      "chip": "ym2612"
    },
    {
      "channel": 3,
      "note": 61,
      "start": 3.1518,
      "duration": 0.0595,
      "velocity": 127,
      "chip": "ym2612"
    },
    {
      "channel": 5,
      "note": 83,
      "start": 3.1958,
      "duration": 0.0672,
      "velocity": 95,
      "chip": "ym2612"
    },
    {
      "channel": 1,
      "note": 47,
      "start": 3.246,
      "duration": 0.0659,
      "velocity": 95,
      "chip": "ym2612"
    },
    {
      "channel": 2,
      "note": 83,
      "start": 3.2477,
      "duration": 0.0644,
      "velocity": 95,
      "chip": "ym2612"
    },
    {
      "channel": 3,
      "note": 61,
      "start": 3.2533,
      "duration": 0.0093,
      "velocity": 119,
      "chip": "ym2612"
    },
    {
      "channel": 5,
      "note": 82,
      "start": 3.2973,
      "duration": 0.066,
      "velocity": 95,
      "chip": "ym2612"
    },
    {
      "channel": 1,
      "note": 59,
      "start": 3.347,
      "duration": 0.0661,
      "velocity": 95,
      "chip": "ym2612"
    },
    {
      "channel": 2,
      "note": 78,
      "start": 3.3487,
      "duration": 0.0646,
      "velocity": 95,
      "chip": "ym2612"
    },
    {
      "channel": 3,
      "note": 61,
      "start": 3.3541,
      "duration": 0.0596,
      "velocity": 127,
      "chip": "ym2612"
    },
    {
      "channel": 5,
      "note": 83,
      "start": 3.398,
      "duration": 0.0666,
      "velocity": 95,
      "chip": "ym2612"
    },
    {
      "channel": 0,
      "note": 64,
      "start": 3.4481,
      "duration": 0.167,
      "velocity": 103,
      "chip": "ym2612"
    },
    {
      "channel": 1,
      "note": 47,
      "start": 3.4501,
      "duration": 0.0641,
      "velocity": 95,
      "chip": "ym2612"
    },
    {
      "channel": 2,
      "note": 79,
      "start": 3.4517,
      "duration": 0.0626,
      "velocity": 95,
      "chip": "ym2612"
    },
    {
      "channel": 3,
      "note": 61,
      "start": 3.4571,
      "duration": 0.0576,
      "velocity": 127,
      "chip": "ym2612"
    },
    {
      "channel": 4,
      "note": 59,
      "start": 3.4588,
      "duration": 0.1576,
      "velocity": 103,
      "chip": "ym2612"
    },
    {
      "channel": 5,
      "note": 78,
      "start": 3.4991,
      "duration": 0.0664,
      "velocity": 95,
      "chip": "ym2612"
    },
    {
      "channel": 1,
      "note": 59,
      "start": 3.5502,
      "duration": 0.0652,
      "velocity": 95,
      "chip": "ym2612"
    },
    {
      "channel": 2,
      "note": 73,
      "start": 3.5518,
      "duration": 0.0637,
      "velocity": 95,
      "chip": "ym2612"
    },
    {
      "channel": 5,
      "note": 79,
      "start": 3.6007,
      "duration": 0.0666,
      "velocity": 95,
      "chip": "ym2612"
    },
    {
      "channel": 0,
      "note": 59,
      "start": 3.6504,
      "duration": 1.1782,
      "velocity": 103,
      "chip": "ym2612"
    },
    {
      "channel": 1,
      "note": 47,
      "start": 3.6526,
      "duration": 0.0638,
      "velocity": 95,
      "chip": "ym2612"
    },
    {
      "channel": 2,
      "note": 71,
      "start": 3.6546,
      "duration": 0.062,
      "velocity": 95,
      "chip": "ym2612"
    },
    {
      "channel": 3,
      "note": 61,
      "start": 3.6605,
      "duration": 0.0565,
      "velocity": 127,
      "chip": "ym2612"
    },
    {
      "channel": 4,
      "note": 54,
      "start": 3.6622,
      "duration": 1.1676,
      "velocity": 103,
      "chip": "ym2612"
    },
    {
      "channel": 5,
      "note": 73,
      "start": 3.7014,
      "duration": 0.0664,
      "velocity": 95,
      "chip": "ym2612"
    },
    {
      "channel": 1,
      "note": 59,
      "start": 3.7515,
      "duration": 0.066,
      "velocity": 95,
      "chip": "ym2612"
    },
    {
      "channel": 2,
      "note": 74,
      "start": 3.7532,
      "duration": 0.0646,
      "velocity": 95,
      "chip": "ym2612"
    },
    {
      "channel": 5,
      "note": 71,
      "start": 3.8033,
      "duration": 0.0659,
      "velocity": 95,
      "chip": "ym2612"
    },
    {
      "channel": 1,
      "note": 47,
      "start": 3.8528,
      "duration": 0.0658,
      "velocity": 95,
      "chip": "ym2612"
    },
    {
      "channel": 2,
      "note": 83,
      "start": 3.8544,
      "duration": 0.0644,
      "velocity": 95,
      "chip": "ym2612"
    },
    {
      "channel": 3,
      "note": 61,
      "start": 3.8598,
      "duration": 0.009,
      "velocity": 119,
      "chip": "ym2612"
    },
    {
      "channel": 5,
      "note": 74,
      "start": 3.904,
      "duration": 0.066,
      "velocity": 95,
      "chip": "ym2612"
    },
    {
      "channel": 1,
      "note": 59,
      "start": 3.9542,
      "duration": 0.0656,
      "velocity": 95,
      "chip": "ym2612"
    },
    {
      "channel": 2,
      "note": 82,
      "start": 3.9558,
      "duration": 0.0641,
      "velocity": 95,
      "chip": "ym2612"
    },
    {
      "channel": 3,
      "note": 61,
      "start": 3.9612,
      "duration": 0.0591,
      "velocity": 127,
      "chip": "ym2612"
    },
    {
      "channel": 5,
      "note": 83,
      "start": 4.0047,
      "duration": 0.0665,
      "velocity": 95,
      "chip": "ym2612"
    },
    {
      "channel": 1,
      "note": 47,
      "start": 4.055,
      "duration": 0.0659,
      "velocity": 95,
      "chip": "ym2612"
    },
    {
      "channel": 2,
      "note": 83,
      "start": 4.0566,
      "duration": 0.0645,
      "velocity": 95,
      "chip": "ym2612"
    },
    {
      "channel": 3,
      "note": 61,
      "start": 4.0621,
      "duration": 0.0593,
      "velocity": 127,
      "chip": "ym2612"
    },
    {
      "channel": 5,
      "note": 82,
      "start": 4.1059,
      "duration": 0.0664,
      "velocity": 95,
      "chip": "ym2612"
    },
    {
      "channel": 1,
      "note": 59,
      "start": 4.156,
      "duration": 0.066,
      "velocity": 95,
      "chip": "ym2612"
    },
    {
      "channel": 2,
      "note": 85,
      "start": 4.1577,
      "duration": 0.0644,
      "velocity": 95,
      "chip": "ym2612"
    },
    {
      "channel": 5,
      "note": 83,
      "start": 4.2074,
      "duration": 0.0662,
      "velocity": 95,
      "chip": "ym2612"
    },
    {
      "channel": 1,
      "note": 47,
      "start": 4.2572,
      "duration": 0.0659,
      "velocity": 95,
      "chip": "ym2612"
    },
    {
      "channel": 2,
      "note": 83,
      "start": 4.2589,
      "duration": 0.0644,
      "velocity": 95,
      "chip": "ym2612"
    },
    {
      "channel": 3,
      "note": 61,
      "start": 4.2642,
      "duration": 0.0091,
      "velocity": 119,
      "chip": "ym2612"
    },
    {
      "channel": 5,
      "note": 85,
      "start": 4.3085,
      "duration": 0.066,
      "velocity": 95,
      "chip": "ym2612"
    },
    {
      "channel": 1,
      "note": 59,
      "start": 4.3583,
      "duration": 0.0659,
      "velocity": 95,
      "chip": "ym2612"
    },
    {
      "channel": 2,
      "note": 82,
      "start": 4.36,
      "duration": 0.0644,
      "velocity": 95,
      "chip": "ym2612"
    },
    {
      "channel": 3,
      "note": 61,
      "start": 4.3653,
      "duration": 0.0594,
      "velocity": 127,
      "chip": "ym2612"
    },
    {
      "channel": 5,
      "note": 83,
      "start": 4.4093,
      "duration": 0.0666,
      "velocity": 95,
      "chip": "ym2612"
    },
    {
      "channel": 1,
      "note": 47,
      "start": 4.4595,
      "duration": 0.0659,
      "velocity": 95,
      "chip": "ym2612"
    },
    {
      "channel": 2,
      "note": 83,
      "start": 4.4612,
      "duration": 0.0644,
      "velocity": 95,
      "chip": "ym2612"
    },
    {
      "channel": 3,
      "note": 61,
      "start": 4.4667,
      "duration": 0.0088,
      "velocity": 119,
      "chip": "ym2612"
    },
    {
      "channel": 5,
      "note": 82,
      "start": 4.5108,
      "duration": 0.066,
      "velocity": 95,
      "chip": "ym2612"
    },
    {
      "channel": 1,
      "note": 59,
      "start": 4.5605,
      "duration": 0.066,
      "velocity": 95,
      "chip": "ym2612"
    },
    {
      "channel": 2,
      "note": 78,
      "start": 4.5621,
      "duration": 0.0645,
      "velocity": 95,
      "chip": "ym2612"
    },
    {
      "channel": 3,
      "note": 61,
      "start": 4.5675,
      "duration": 0.0594,
      "velocity": 127,
      "chip": "ym2612"
    },
    {
      "channel": 5,
      "note": 83,
      "start": 4.6115,
      "duration": 0.0664,
      "velocity": 95,
      "chip": "ym2612"
    },
    {
      "channel": 1,
      "note": 47,
      "start": 4.6617,
      "duration": 0.0659,
      "velocity": 95,
      "chip": "ym2612"
    },
    {
      "channel": 2,
      "note": 79,
      "start": 4.6634,
      "duration": 0.0644,
      "velocity": 95,
      "chip": "ym2612"
    },
    {
      "channel": 3,
      "note": 61,
      "start": 4.6689,
      "duration": 0.0592,
      "velocity": 127,
      "chip": "ym2612"
    },
    {
      "channel": 5,
      "note": 78,
      "start": 4.7126,
      "duration": 0.0665,
      "velocity": 95,
      "chip": "ym2612"
    },
    {
      "channel": 1,
      "note": 59,
      "start": 4.7628,
      "duration": 0.066,
      "velocity": 95,
      "chip": "ym2612"
    },
    {
      "channel": 2,
      "note": 73,
      "start": 4.7645,
      "duration": 0.0645,
      "velocity": 95,
      "chip": "ym2612"
    },
    {
      "channel": 5,
      "note": 79,
      "start": 4.8141,
      "duration": 0.0829,
      "velocity": 95,
      "chip": "ym2612"
    },
    {
      "channel": 0,
      "note": 59,
      "start": 4.8641,
      "duration": 0.9925,
      "velocity": 103,
      "chip": "ym2612"
    },
    {
      "channel": 1,
      "note": 47,
      "start": 4.8665,
      "duration": 0.0802,
      "velocity": 95,
      "chip": "ym2612"
    },
    {
      "channel": 2,
      "note": 71,
      "start": 4.8685,
      "duration": 0.0785,
      "velocity": 95,
      "chip": "ym2612"
    },
    {
      "channel": 3,
      "note": 61,
      "start": 4.8743,
      "duration": 0.073,
      "velocity": 127,
      "chip": "ym2612"
    },
    {
      "channel": 4,
      "note": 54,
      "start": 4.8763,
      "duration": 0.9812,
      "velocity": 103,
      "chip": "ym2612"
    },
    {
      "channel": 5,
      "note": 73,
      "start": 4.9324,
      "duration": 0.0657,
      "velocity": 95,
      "chip": "ym2612"
    },
    {
      "channel": 1,
      "note": 59,
      "start": 4.9818,
      "duration": 0.066,
      "velocity": 95,
      "chip": "ym2612"
    },
    {
      "channel": 2,
      "note": 74,
      "start": 4.9835,
      "duration": 0.0646,
      "velocity": 95,
      "chip": "ym2612"
    },
    {
      "channel": 5,
      "note": 71,
      "start": 5.0336,
      "duration": 0.0659,
      "velocity": 95,
      "chip": "ym2612"
    },
    {
      "channel": 1,
      "note": 47,
      "start": 5.0831,
      "duration": 0.0658,
      "velocity": 95,
      "chip": "ym2612"
    },
    {
      "channel": 2,
      "note": 83,
      "start": 5.0848,
      "duration": 0.0643,
      "velocity": 95,
      "chip": "ym2612"
    },
    {
      "channel": 3,
      "note": 61,
      "start": 5.0902,
      "duration": 0.009,
      "velocity": 119,
      "chip": "ym2612"
    },
    {
      "channel": 5,
      "note": 74,
      "start": 5.1344,
      "duration": 0.0661,
      "velocity": 95,
      "chip": "ym2612"
    },
    {
      "channel": 1,
      "note": 59,
      "start": 5.1841,
      "duration": 0.066,
      "velocity": 95,
      "chip": "ym2612"
    },
    {
      "channel": 2,
      "note": 82,
      "start": 5.1857,
      "duration": 0.0646,
      "velocity": 95,
      "chip": "ym2612"
    },
    {
      "channel": 3,
      "note": 61,
      "start": 5.1911,
      "duration": 0.0595,
      "velocity": 127,
      "chip": "ym2612"
    },
    {
      "channel": 5,
      "note": 83,
      "start": 5.2351,
      "duration": 0.0664,
      "velocity": 95,
      "chip": "ym2612"
    },
    {
      "channel": 1,
      "note": 47,
      "start": 5.2853,
      "duration": 0.0659,
      "velocity": 95,
      "chip": "ym2612"
    },
    {
      "channel": 2,
      "note": 83,
      "start": 5.287,
      "duration": 0.0644,
      "velocity": 95,
      "chip": "ym2612"
    },
    {
      "channel": 3,
      "note": 61,
      "start": 5.2924,
      "duration": 0.0592,
      "velocity": 127,
      "chip": "ym2612"
    },
    {
      "channel": 5,
      "note": 82,
      "start": 5.3364,
      "duration": 0.0662,
      "velocity": 95,
      "chip": "ym2612"
    },
    {
      "channel": 1,
      "note": 59,
      "start": 5.3863,
      "duration": 0.066,
      "velocity": 95,
      "chip": "ym2612"
    },
    {
      "channel": 2,
      "note": 85,
      "start": 5.388,
      "duration": 0.0644,
      "velocity": 95,
      "chip": "ym2612"
    },
    {
      "channel": 5,
      "note": 83,
      "start": 5.4377,
      "duration": 0.0662,
      "velocity": 95,
      "chip": "ym2612"
    },
    {
      "channel": 1,
      "note": 47,
      "start": 5.4876,
      "duration": 0.0659,
      "velocity": 95,
      "chip": "ym2612"
    },
    {
      "channel": 2,
      "note": 83,
      "start": 5.4892,
      "duration": 0.0644,
      "velocity": 95,
      "chip": "ym2612"
    },
    {
      "channel": 3,
      "note": 61,
      "start": 5.4946,
      "duration": 0.009,
      "velocity": 119,
      "chip": "ym2612"
    },
    {
      "channel": 5,
      "note": 85,
      "start": 5.5388,
      "duration": 0.066,
      "velocity": 95,
      "chip": "ym2612"
    },
    {
      "channel": 1,
      "note": 59,
      "start": 5.5885,
      "duration": 0.066,
      "velocity": 95,
      "chip": "ym2612"
    },
    {
      "channel": 2,
      "note": 82,
      "start": 5.5902,
      "duration": 0.0645,
      "velocity": 95,
      "chip": "ym2612"
    },
    {
      "channel": 3,
      "note": 61,
      "start": 5.5955,
      "duration": 0.0595,
      "velocity": 127,
      "chip": "ym2612"
    },
    {
      "channel": 5,
      "note": 83,
      "start": 5.6395,
      "duration": 0.0666,
      "velocity": 95,
      "chip": "ym2612"
    },
    {
      "channel": 1,
      "note": 47,
      "start": 5.6898,
      "duration": 0.0658,
      "velocity": 95,
      "chip": "ym2612"
    },
    {
      "channel": 2,
      "note": 83,
      "start": 5.6914,
      "duration": 0.0644,
      "velocity": 95,
      "chip": "ym2612"
    },
    {
      "channel": 3,
      "note": 61,
      "start": 5.6969,
      "duration": 0.0089,
      "velocity": 119,
      "chip": "ym2612"
    },
    {
      "channel": 5,
      "note": 82,
      "start": 5.7413,
      "duration": 0.0658,
      "velocity": 95,
      "chip": "ym2612"
    },
    {
      "channel": 1,
      "note": 59,
      "start": 5.7907,
      "duration": 0.0661,
      "velocity": 95,
      "chip": "ym2612"
    },
    {
      "channel": 2,
      "note": 78,
      "start": 5.7924,
      "duration": 0.0646,
      "velocity": 95,
      "chip": "ym2612"
    },
    {
      "channel": 3,
      "note": 61,
      "start": 5.7977,
      "duration": 0.0596,
      "velocity": 127,
      "chip": "ym2612"
    },
    {
      "channel": 5,
      "note": 83,
      "start": 5.8417,
      "duration": 0.0673,
      "velocity": 95,
      "chip": "ym2612"
    },
    {
      "channel": 0,
      "note": 59,
      "start": 5.8919,
      "duration": 0.167,
      "velocity": 103,
      "chip": "ym2612"
    },
    {
      "channel": 1,
      "note": 47,
      "start": 5.8937,
      "duration": 0.0642,
      "velocity": 95,
      "chip": "ym2612"
    },
    {
      "channel": 2,
      "note": 79,
      "start": 5.8953,
      "duration": 0.0627,
      "velocity": 95,
      "chip": "ym2612"
    },
    {
      "channel": 3,
      "note": 61,
      "start": 5.9007,
      "duration": 0.0576,
      "velocity": 127,
      "chip": "ym2612"
    },
    {
      "channel": 4,
      "note": 54,
      "start": 5.9025,
      "duration": 0.1576,
      "velocity": 103,
      "chip": "ym2612"
    },
    {
      "channel": 5,
      "note": 78,
      "start": 5.9429,
      "duration": 0.0664,
      "velocity": 95,
      "chip": "ym2612"
    },
    {
      "channel": 1,
      "note": 59,
      "start": 5.993,
      "duration": 0.0661,
      "velocity": 95,
      "chip": "ym2612"
    },
    {
      "channel": 2,
      "note": 73,
      "start": 5.9946,
      "duration": 0.0647,
      "velocity": 95,
      "chip": "ym2612"
    },
    {
      "channel": 5,
      "note": 79,
      "start": 6.0445,
      "duration": 0.0666,
      "velocity": 95,
      "chip": "ym2612"
    },
    {
      "channel": 0,
      "note": 61,
      "start": 6.0941,
      "duration": 0.976,
      "velocity": 103,
      "chip": "ym2612"
    },
    {
      "channel": 1,
      "note": 47,
      "start": 6.0964,
      "duration": 0.0637,
      "velocity": 95,
      "chip": "ym2612"
    },
    {
      "channel": 2,
      "note": 69,
      "start": 6.0984,
      "duration": 0.062,
      "velocity": 95,
      "chip": "ym2612"
    },
    {
      "channel": 3,
      "note": 61,
      "start": 6.1043,
      "duration": 0.0564,
      "velocity": 127,
      "chip": "ym2612"
    },
    {
      "channel": 4,
      "note": 57,
      "start": 6.106,
      "duration": 0.965,
      "velocity": 103,
      "chip": "ym2612"
    },
    {
      "channel": 5,
      "note": 73,
      "start": 6.1451,
      "duration": 0.0665,
      "velocity": 95,
      "chip": "ym2612"
    },
    {
      "channel": 1,
      "note": 59,
      "start": 6.1953,
      "duration": 0.066,
      "velocity": 95,
      "chip": "ym2612"
    },
    {
      "channel": 2,
      "note": 73,
      "start": 6.1969,
      "duration": 0.0645,
      "velocity": 95,
      "chip": "ym2612"
    },
    {
      "channel": 5,
      "note": 69,
      "start": 6.247,
      "duration": 0.0662,
      "velocity": 95,
      "chip": "ym2612"
    },
    {
      "channel": 1,
      "note": 47,
      "start": 6.2965,
      "duration": 0.0658,
      "velocity": 95,
      "chip": "ym2612"
    },
    {
      "channel": 2,
      "note": 81,
      "start": 6.2982,
      "duration": 0.0644,
      "velocity": 95,
      "chip": "ym2612"
    },
    {
      "channel": 3,
      "note": 61,
      "start": 6.3037,
      "duration": 0.0092,
      "velocity": 119,
      "chip": "ym2612"
    },
    {
      "channel": 5,
      "note": 73,
      "start": 6.3478,
      "duration": 0.0661,
      "velocity": 95,
      "chip": "ym2612"
    },
    {
      "channel": 1,
      "note": 59,
      "start": 6.3975,
      "duration": 0.0661,
      "velocity": 95,
      "chip": "ym2612"
    },
    {
      "channel": 2,
      "note": 80,
      "start": 6.3992,
      "duration": 0.0646,
      "velocity": 95,
      "chip": "ym2612"
    },
    {
      "channel": 3,
      "note": 61,
      "start": 6.4046,
      "duration": 0.0595,
      "velocity": 127,
      "chip": "ym2612"
    },
    {
      "channel": 5,
      "note": 81,
      "start": 6.4486,
      "duration": 0.0665,
      "velocity": 95,
      "chip": "ym2612"
    },
    {
      "channel": 1,
      "note": 47,
      "start": 6.4988,
      "duration": 0.0659,
      "velocity": 95,
      "chip": "ym2612"
    },
    {
      "channel": 2,
      "note": 81,
      "start": 6.5005,
      "duration": 0.0644,
      "velocity": 95,
      "chip": "ym2612"
    },
    {
      "channel": 3,
      "note": 61,
      "start": 6.5059,
      "duration": 0.0592,
      "velocity": 127,
      "chip": "ym2612"
    },
    {
      "channel": 5,
      "note": 80,
      "start": 6.5498,
      "duration": 0.0663,
      "velocity": 95,
      "chip": "ym2612"
    },
    {
      "channel": 1,
      "note": 59,
      "start": 6.6004,
      "duration": 0.0653,
      "velocity": 95,
      "chip": "ym2612"
    },
    {
      "channel": 2,
      "note": 76,
      "start": 6.6021,
      "duration": 0.0639,
      "velocity": 95,
      "chip": "ym2612"
    },
    {
      "channel": 5,
      "note": 81,
      "start": 6.6512,
      "duration": 0.0662,
      "velocity": 95,
      "chip": "ym2612"
    },
    {
      "channel": 1,
      "note": 47,
      "start": 6.701,
      "duration": 0.0658,
      "velocity": 95,
      "chip": "ym2612"
    },
    {
      "channel": 2,
      "note": 81,
      "start": 6.7027,
      "duration": 0.0643,
      "velocity": 95,
      "chip": "ym2612"
    },
    {
      "channel": 3,
      "note": 61,
      "start": 6.708,
      "duration": 0.009,
      "velocity": 119,
      "chip": "ym2612"
    },
    {
      "channel": 5,
      "note": 76,
      "start": 6.7523,
      "duration": 0.066,
      "velocity": 95,
      "chip": "ym2612"
    },
    {
      "channel": 1,
      "note": 59,
      "start": 6.8019,
      "duration": 0.066,
      "velocity": 95,
      "chip": "ym2612"
    },
    {
      "channel": 2,
      "note": 83,
      "start": 6.8036,
      "duration": 0.0646,
      "velocity": 95,
      "chip": "ym2612"
    },
    {
      "channel": 3,
      "note": 61,
      "start": 6.8089,
      "duration": 0.0595,
      "velocity": 127,
      "chip": "ym2612"
    },
    {
      "channel": 5,
      "note": 81,
      "start": 6.853,
      "duration": 0.0666,
      "velocity": 95,
      "chip": "ym2612"
    },
    {
      "channel": 1,
      "note": 47,
      "start": 6.9032,
      "duration": 0.0659,
      "velocity": 95,
      "chip": "ym2612"
    },
    {
      "channel": 2,
      "note": 81,
      "start": 6.9049,
      "duration": 0.0644,
      "velocity": 95,
      "chip": "ym2612"
    },
    {
      "channel": 3,
      "note": 61,
      "start": 6.9103,
      "duration": 0.009,
      "velocity": 119,
      "chip": "ym2612"
    },
    {
      "channel": 5,
      "note": 83,
      "start": 6.9545,
      "duration": 0.066,
      "velocity": 95,
      "chip": "ym2612"
    },
    {
      "channel": 1,
      "note": 59,
      "start": 7.0045,
      "duration": 0.0658,
      "velocity": 95,
      "chip": "ym2612"
    },
    {
      "channel": 2,
      "note": 80,
      "start": 7.0061,
      "duration": 0.0644,
      "velocity": 95,
      "chip": "ym2612"
    },
    {
      "channel": 3,
      "note": 61,
      "start": 7.0115,
      "duration": 0.0594,
      "velocity": 127,
      "chip": "ym2612"
    },
    {
      "channel": 5,
      "note": 81,
      "start": 7.0552,
      "duration": 0.0665,
      "velocity": 95,
      "chip": "ym2612"
    },
    {
      "channel": 0,
      "note": 61,
      "start": 7.1053,
      "duration": 0.167,
      "velocity": 103,
      "chip": "ym2612"
    },
    {
      "channel": 1,
      "note": 47,
      "start": 7.1071,
      "duration": 0.0642,
      "velocity": 95,
      "chip": "ym2612"
    },
    {
      "channel": 2,
      "note": 81,
      "start": 7.1088,
      "duration": 0.0627,
      "velocity": 95,
      "chip": "ym2612"
    },
    {
      "channel": 3,
      "note": 61,
      "start": 7.1141,
      "duration": 0.0577,
      "velocity": 127,
      "chip": "ym2612"
    },
    {
      "channel": 4,
      "note": 57,
      "start": 7.1159,
      "duration": 0.1576,
      "velocity": 103,
      "chip": "ym2612"
    },
    {
      "channel": 5,
      "note": 80,
      "start": 7.1563,
      "duration": 0.0665,
      "velocity": 95,
      "chip": "ym2612"
    },
    {
      "channel": 1,
      "note": 59,
      "start": 7.2065,
      "duration": 0.0661,
      "velocity": 95,
      "chip": "ym2612"
    },
    {
      "channel": 2,
      "note": 76,
      "start": 7.2081,
      "duration": 0.0646,
      "velocity": 95,
      "chip": "ym2612"
    },
    {
      "channel": 5,
      "note": 81,
      "start": 7.2579,
      "duration": 0.0666,
      "velocity": 95,
      "chip": "ym2612"
    },
    {
      "channel": 0,
      "note": 64,
      "start": 7.3075,
      "duration": 0.976,
      "velocity": 103,
      "chip": "ym2612"
    },
    {
      "channel": 1,
      "note": 47,
      "start": 7.3098,
      "duration": 0.0637,
      "velocity": 95,
      "chip": "ym2612"
    },
    {
      "channel": 2,
      "note": 71,
      "start": 7.3118,
      "duration": 0.062,
      "velocity": 95,
      "chip": "ym2612"
    },
    {
      "channel": 3,
      "note": 61,
      "start": 7.3176,
      "duration": 0.0564,
      "velocity": 127,
      "chip": "ym2612"
    },
    {
      "channel": 4,
      "note": 59,
      "start": 7.3194,
      "duration": 0.965,
      "velocity": 103,
      "chip": "ym2612"
    },
    {
      "channel": 5,
      "note": 76,
      "start": 7.3586,
      "duration": 0.0664,
      "velocity": 95,
      "chip": "ym2612"
    },
    {
      "channel": 1,
      "note": 59,
      "start": 7.4087,
      "duration": 0.066,
      "velocity": 95,
      "chip": "ym2612"
    },
    {
      "channel": 2,
      "note": 74,
      "start": 7.4103,
      "duration": 0.0646,
      "velocity": 95,
      "chip": "ym2612"
    },
    {
      "channel": 5,
      "note": 71,
      "start": 7.4605,
      "duration": 0.0659,
      "velocity": 95,
      "chip": "ym2612"
    },
    {
      "channel": 1,
      "note": 47,
      "start": 7.51,
      "duration": 0.0665,
      "velocity": 95,
      "chip": "ym2612"
    },
    {
      "channel": 2,
      "note": 83,
      "start": 7.5116,
      "duration": 0.0651,
      "velocity": 95,
      "chip": "ym2612"
    },
    {
      "channel": 3,
      "note": 61,
      "start": 7.517,
      "duration": 0.009,
      "velocity": 119,
      "chip": "ym2612"
    },
    {
      "channel": 5,
      "note": 74,
      "start": 7.5613,
      "duration": 0.066,
      "velocity": 95,
      "chip": "ym2612"
    },
    {
      "channel": 1,
      "note": 59,
      "start": 7.6109,
      "duration": 0.066,
      "velocity": 95,
      "chip": "ym2612"
    },
    {
      "channel": 2,
      "note": 82,
      "start": 7.6126,
      "duration": 0.0646,
      "velocity": 95,
      "chip": "ym2612"
    },
    {
      "channel": 3,
      "note": 61,
      "start": 7.618,
      "duration": 0.0595,
      "velocity": 127,
      "chip": "ym2612"
    },
    {
      "channel": 5,
      "note": 83,
      "start": 7.662,
      "duration": 0.0665,
      "velocity": 95,
      "chip": "ym2612"
    },
    {
      "channel": 1,
      "note": 47,
      "start": 7.7122,
      "duration": 0.0658,
      "velocity": 95,
      "chip": "ym2612"
    },
    {
      "channel": 2,
      "note": 83,
      "start": 7.7139,
      "duration": 0.0644,
      "velocity": 95,
      "chip": "ym2612"
    },
    {
      "channel": 3,
      "note": 61,
      "start": 7.7195,
      "duration": 0.0591,
      "velocity": 127,
      "chip": "ym2612"
    },
    {
      "channel": 5,
      "note": 82,
      "start": 7.7631,
      "duration": 0.0664,
      "velocity": 95,
      "chip": "ym2612"
    },
    {
      "channel": 1,
      "note": 59,
      "start": 7.8133,
      "duration": 0.0659,
      "velocity": 95,
      "chip": "ym2612"
    },
    {
      "channel": 2,
      "note": 85,
      "start": 7.815,
      "duration": 0.0644,
      "velocity": 95,
      "chip": "ym2612"
    },
    {
      "channel": 5,
      "note": 83,
      "start": 7.8646,
      "duration": 0.0663,
      "velocity": 95,
      "chip": "ym2612"
    },
    {
      "channel": 1,
      "note": 47,
      "start": 7.9145,
      "duration": 0.0662,
      "velocity": 95,
      "chip": "ym2612"
    },
    {
      "channel": 2,
      "note": 83,
      "start": 7.9162,
      "duration": 0.0647,
      "velocity": 95,
      "chip": "ym2612"
    },
    {
      "channel": 3,
      "note": 61,
      "start": 7.9216,
      "duration": 0.0089,
      "velocity": 119,
      "chip": "ym2612"
    },
    {
      "channel": 5,
      "note": 85,
      "start": 7.9658,
      "duration": 0.066,
      "velocity": 95,
      "chip": "ym2612"
    },
    {
      "channel": 1,
      "note": 59,
      "start": 8.0154,
      "duration": 0.066,
      "velocity": 95,
      "chip": "ym2612"
    },
    {
      "channel": 2,
      "note": 82,
      "start": 8.0171,
      "duration": 0.0645,
      "velocity": 95,
      "chip": "ym2612"
    },
    {
      "channel": 3,
      "note": 61,
      "start": 8.0225,
      "duration": 0.0594,
      "velocity": 127,
      "chip": "ym2612"
    },
    {
      "channel": 5,
      "note": 83,
      "start": 8.0665,
      "duration": 0.0666,
      "velocity": 95,
      "chip": "ym2612"
    },
    {
      "channel": 1,
      "note": 47,
      "start": 8.1168,
      "duration": 0.0658,
      "velocity": 95,
      "chip": "ym2612"
    },
    {
      "channel": 2,
      "note": 83,
      "start": 8.1184,
      "duration": 0.0643,
      "velocity": 95,
      "chip": "ym2612"
    },
    {
      "channel": 3,
      "note": 61,
      "start": 8.1239,
      "duration": 0.0088,
      "velocity": 119,
      "chip": "ym2612"
    },
    {
      "channel": 5,
      "note": 82,
      "start": 8.168,
      "duration": 0.066,
      "velocity": 95,
      "chip": "ym2612"
    },
    {
      "channel": 1,
      "note": 59,
      "start": 8.2177,
      "duration": 0.066,
      "velocity": 95,
      "chip": "ym2612"
    },
    {
      "channel": 2,
      "note": 78,
      "start": 8.2194,
      "duration": 0.0646,
      "velocity": 95,
      "chip": "ym2612"
    },
    {
      "channel": 3,
      "note": 61,
      "start": 8.2247,
      "duration": 0.0595,
      "velocity": 127,
      "chip": "ym2612"
    },
    {
      "channel": 5,
      "note": 83,
      "start": 8.2694,
      "duration": 0.0658,
      "velocity": 95,
      "chip": "ym2612"
    },
    {
      "channel": 0,
      "note": 64,
      "start": 8.3187,
      "duration": 0.1671,
      "velocity": 103,
      "chip": "ym2612"
    },
    {
      "channel": 1,
      "note": 47,
      "start": 8.3206,
      "duration": 0.0642,
      "velocity": 95,
      "chip": "ym2612"
    },
    {
      "channel": 2,
      "note": 79,
      "start": 8.3222,
      "duration": 0.0627,
      "velocity": 95,
      "chip": "ym2612"
    },
    {
      "channel": 3,
      "note": 61,
      "start": 8.3276,
      "duration": 0.0577,
      "velocity": 127,
      "chip": "ym2612"
    },
    {
      "channel": 4,
      "note": 59,
      "start": 8.3293,
      "duration": 0.1577,
      "velocity": 103,
      "chip": "ym2612"
    },
    {
      "channel": 5,
      "note": 78,
      "start": 8.3698,
      "duration": 0.0664,
      "velocity": 95,
      "chip": "ym2612"
    },
    {
      "channel": 1,
      "note": 59,
      "start": 8.4199,
      "duration": 0.0661,
      "velocity": 95,
      "chip": "ym2612"
    },
    {
      "channel": 2,
      "note": 73,
      "start": 8.4215,
      "duration": 0.0647,
      "velocity": 95,
      "chip": "ym2612"
    },
    {
      "channel": 5,
      "note": 79,
      "start": 8.4713,
      "duration": 0.0664,
      "velocity": 95,
      "chip": "ym2612"
    },
    {
      "channel": 0,
      "note": 59,
      "start": 8.521,
      "duration": 1.1782,
      "velocity": 103,
      "chip": "ym2612"
    },
    {
      "channel": 1,
      "note": 47,
      "start": 8.5232,
      "duration": 0.0638,
      "velocity": 95,
      "chip": "ym2612"
    },
    {
      "channel": 2,
      "note": 71,
      "start": 8.5252,
      "duration": 0.062,
      "velocity": 95,
      "chip": "ym2612"
    },
    {
      "channel": 3,
      "note": 61,
      "start": 8.5309,
      "duration": 0.0567,
      "velocity": 127,
      "chip": "ym2612"
    },
    {
      "channel": 4,
      "note": 54,
      "start": 8.5327,
      "duration": 1.1676,
      "velocity": 103,
      "chip": "ym2612"
    },
    {
      "channel": 5,
      "note": 73,
      "start": 8.572,
      "duration": 0.0664,
      "velocity": 95,
      "chip": "ym2612"
    },
    {
      "channel": 1,
      "note": 59,
      "start": 8.6222,
      "duration": 0.066,
      "velocity": 95,
      "chip": "ym2612"
    },
    {
      "channel": 2,
      "note": 74,
      "start": 8.6238,
      "duration": 0.0645,
      "velocity": 95,
      "chip": "ym2612"
    },
    {
      "channel": 5,
      "note": 71,
      "start": 8.6742,
      "duration": 0.0656,
      "velocity": 95,
      "chip": "ym2612"
    },
    {
      "channel": 1,
      "note": 47,
      "start": 8.7234,
      "duration": 0.0658,
      "velocity": 95,
      "chip": "ym2612"
    },
    {
      "channel": 2,
      "note": 83,
      "start": 8.7251,
      "duration": 0.0644,
      "velocity": 95,
      "chip": "ym2612"
    },
    {
      "channel": 3,
      "note": 61,
      "start": 8.7304,
      "duration": 0.009,
      "velocity": 119,
      "chip": "ym2612"
    },
    {
      "channel": 5,
      "note": 74,
      "start": 8.7747,
      "duration": 0.0661,
      "velocity": 95,
      "chip": "ym2612"
    },
    {
      "channel": 1,
      "note": 59,
      "start": 8.8244,
      "duration": 0.066,
      "velocity": 95,
      "chip": "ym2612"
    },
    {
      "channel": 2,
      "note": 82,
      "start": 8.8261,
      "duration": 0.0646,
      "velocity": 95,
      "chip": "ym2612"
    },
    {
      "channel": 3,
      "note": 61,
      "start": 8.8281,
      "duration": 0.0124,
      "velocity": 119,
      "chip": "ym2612"
    },
    {
      "channel": 5,
      "note": 83,
      "start": 8.8759,
      "duration": 0.066,
      "velocity": 95,
      "chip": "ym2612"
    },
    {
      "channel": 1,
      "note": 47,
      "start": 8.9257,
      "duration": 0.0659,
      "velocity": 95,
      "chip": "ym2612"
    },
    {
      "channel": 2,
      "note": 83,
      "start": 8.9273,
      "duration": 0.0644,
      "velocity": 95,
      "chip": "ym2612"
    },
    {
      "channel": 3,
      "note": 61,
      "start": 8.9327,
      "duration": 0.0594,
      "velocity": 127,
      "chip": "ym2612"
    },
    {
      "channel": 5,
      "note": 82,
      "start": 8.9766,
      "duration": 0.0664,
      "velocity": 95,
      "chip": "ym2612"
    },
    {
      "channel": 1,
      "note": 59,
      "start": 9.0267,
      "duration": 0.0659,
      "velocity": 95,
      "chip": "ym2612"
    },
    {
      "channel": 2,
      "note": 85,
      "start": 9.0283,
      "duration": 0.0644,
      "velocity": 95,
      "chip": "ym2612"
    },
    {
      "channel": 5,
      "note": 83,
      "start": 9.0783,
      "duration": 0.0658,
      "velocity": 95,
      "chip": "ym2612"
    },
    {
      "channel": 1,
      "note": 47,
      "start": 9.1279,
      "duration": 0.0658,
      "velocity": 95,
      "chip": "ym2612"
    },
    {
      "channel": 2,
      "note": 83,
      "start": 9.1295,
      "duration": 0.0644,
      "velocity": 95,
      "chip": "ym2612"
    },
    {
      "channel": 3,
      "note": 61,
      "start": 9.1349,
      "duration": 0.0593,
      "velocity": 127,
      "chip": "ym2612"
    },
    {
      "channel": 5,
      "note": 85,
      "start": 9.1788,
      "duration": 0.0671,
      "velocity": 95,
      "chip": "ym2612"
    },
    {
      "channel": 1,
      "note": 59,
      "start": 9.2288,
      "duration": 0.066,
      "velocity": 95,
      "chip": "ym2612"
    },
    {
      "channel": 2,
      "note": 82,
      "start": 9.2305,
      "duration": 0.0646,
      "velocity": 95,
      "chip": "ym2612"
    },
    {
      "channel": 3,
      "note": 61,
      "start": 9.236,
      "duration": 0.0594,
      "velocity": 127,
      "chip": "ym2612"
    },
    {
      "channel": 5,
      "note": 83,
      "start": 9.2799,
      "duration": 0.0665,
      "velocity": 95,
      "chip": "ym2612"
    },
    {
      "channel": 1,
      "note": 47,
      "start": 9.3301,
      "duration": 0.0659,
      "velocity": 95,
      "chip": "ym2612"
    },
    {
      "channel": 2,
      "note": 83,
      "start": 9.3319,
      "duration": 0.0642,
      "velocity": 95,
      "chip": "ym2612"
    },
    {
      "channel": 3,
      "note": 61,
      "start": 9.3341,
      "duration": 0.0624,
      "velocity": 127,
      "chip": "ym2612"
    },
    {
      "channel": 5,
      "note": 82,
      "start": 9.381,
      "duration": 0.0666,
      "velocity": 95,
      "chip": "ym2612"
    },
    {
      "channel": 1,
      "note": 59,
      "start": 9.4311,
      "duration": 0.066,
      "velocity": 95,
      "chip": "ym2612"
    },
    {
      "channel": 2,
      "note": 78,
      "start": 9.4328,
      "duration": 0.0645,
      "velocity": 95,
      "chip": "ym2612"
    },
    {
      "channel": 3,
      "note": 61,
      "start": 9.4349,
      "duration": 0.0627,
      "velocity": 127,
      "chip": "ym2612"
    },
    {
      "channel": 5,
      "note": 83,
      "start": 9.4822,
      "duration": 0.0663,
      "velocity": 95,
      "chip": "ym2612"
    },
    {
      "channel": 1,
      "note": 47,
      "start": 9.5323,
      "duration": 0.0659,
      "velocity": 95,
      "chip": "ym2612"
    },
    {
      "channel": 2,
      "note": 79,
      "start": 9.5341,
      "duration": 0.0644,
      "velocity": 95,
      "chip": "ym2612"
    },
    {
      "channel": 3,
      "note": 61,
      "start": 9.5362,
      "duration": 0.0625,
      "velocity": 127,
      "chip": "ym2612"
    },
    {
      "channel": 5,
      "note": 78,
      "start": 9.5833,
      "duration": 0.0668,
      "velocity": 95,
      "chip": "ym2612"
    },
    {
      "channel": 1,
      "note": 59,
      "start": 9.6334,
      "duration": 0.0661,
      "velocity": 95,
      "chip": "ym2612"
    },
    {
      "channel": 2,
      "note": 73,
      "start": 9.635,
      "duration": 0.0647,
      "velocity": 95,
      "chip": "ym2612"
    },
    {
      "channel": 3,
      "note": 61,
      "start": 9.6371,
      "duration": 0.0628,
      "velocity": 127,
      "chip": "ym2612"
    },
    {
      "channel": 5,
      "note": 79,
      "start": 9.6844,
      "duration": 0.0834,
      "velocity": 95,
      "chip": "ym2612"
    },
    {
      "channel": 0,
      "note": 71,
      "start": 9.735,
      "duration": 0.5878,
      "velocity": 103,
      "chip": "ym2612"
    },
    {
      "channel": 1,
      "note": 47,
      "start": 9.7372,
      "duration": 0.0801,
      "velocity": 95,
      "chip": "ym2612"
    },
    {
      "channel": 2,
      "note": 71,
      "start": 9.7392,
      "duration": 0.0783,
      "velocity": 95,
      "chip": "ym2612"
    },
    {
      "channel": 3,
      "note": 61,
      "start": 9.7449,
      "duration": 0.073,
      "velocity": 127,
      "chip": "ym2612"
    },
    {
      "channel": 4,
      "note": 83,
      "start": 9.7469,
      "duration": 0.0207,
      "velocity": 103,
      "chip": "ym2612"
    },
    {
      "channel": 5,
      "note": 73,
      "start": 9.8023,
      "duration": 0.0664,
      "velocity": 95,
      "chip": "ym2612"
    },
    {
      "channel": 1,
      "note": 59,
      "start": 9.8524,
      "duration": 0.066,
      "velocity": 95,
      "chip": "ym2612"
    },
    {
      "channel": 2,
      "note": 74,
      "start": 9.8541,
      "duration": 0.0645,
      "velocity": 95,
      "chip": "ym2612"
    },
    {
      "channel": 4,
      "note": 71,
      "start": 9.9042,
      "duration": 0.5712,
      "velocity": 103,
      "chip": "ym2612"
    },
    {
      "channel": 5,
      "note": 71,
      "start": 9.9062,
      "duration": 0.0639,
      "velocity": 95,
      "chip": "ym2612"
    },
    {
      "channel": 1,
      "note": 47,
      "start": 9.9537,
      "duration": 0.0658,
      "velocity": 95,
      "chip": "ym2612"
    },
    {
      "channel": 2,
      "note": 77,
      "start": 9.9554,
      "duration": 0.0644,
      "velocity": 95,
      "chip": "ym2612"
    },
    {
      "channel": 3,
      "note": 61,
      "start": 9.9607,
      "duration": 0.0091,
      "velocity": 119,
      "chip": "ym2612"
    },
    {
      "channel": 5,
      "note": 74,
      "start": 10.005,
      "duration": 0.0662,
      "velocity": 95,
      "chip": "ym2612"
    },
    {
      "channel": 1,
      "note": 59,
      "start": 10.0551,
      "duration": 0.0656,
      "velocity": 95,
      "chip": "ym2612"
    },
    {
      "channel": 2,
      "note": 78,
      "start": 10.0568,
      "duration": 0.0641,
      "velocity": 95,
      "chip": "ym2612"
    },
    {
      "channel": 3,
      "note": 61,
      "start": 10.0589,
      "duration": 0.012,
      "velocity": 119,
      "chip": "ym2612"
    },
    {
      "channel": 5,
      "note": 77,
      "start": 10.1061,
      "duration": 0.0661,
      "velocity": 95,
      "chip": "ym2612"
    },
    {
      "channel": 1,
      "note": 47,
      "start": 10.1559,
      "duration": 0.0667,
      "velocity": 95,
      "chip": "ym2612"
    },
    {
      "channel": 2,
      "note": 80,
      "start": 10.1576,
      "duration": 0.0653,
      "velocity": 95,
      "chip": "ym2612"
    },
    {
      "channel": 3,
      "note": 61,
      "start": 10.1629,
      "duration": 0.0602,
      "velocity": 127,
      "chip": "ym2612"
    },
    {
      "channel": 5,
      "note": 78,
      "start": 10.2069,
      "duration": 0.0664,
      "velocity": 95,
      "chip": "ym2612"
    },
    {
      "channel": 1,
      "note": 59,
      "start": 10.257,
      "duration": 0.066,
      "velocity": 95,
      "chip": "ym2612"
    },
    {
      "channel": 2,
      "note": 83,
      "start": 10.2587,
      "duration": 0.0646,
      "velocity": 95,
      "chip": "ym2612"
    },
    {
      "channel": 5,
      "note": 80,
      "start": 10.3084,
      "duration": 0.066,
      "velocity": 95,
      "chip": "ym2612"
    },
    {
      "channel": 0,
      "note": 78,
      "start": 10.358,
      "duration": 0.167,
      "velocity": 103,
      "chip": "ym2612"
    },
    {
      "channel": 1,
      "note": 47,
      "start": 10.3599,
      "duration": 0.0642,
      "velocity": 95,
      "chip": "ym2612"
    },
    {
      "channel": 2,
      "note": 80,
      "start": 10.3615,
      "duration": 0.0627,
      "velocity": 95,
      "chip": "ym2612"
    },
    {
      "channel": 3,
      "note": 61,
      "start": 10.3669,
      "duration": 0.0577,
      "velocity": 127,
      "chip": "ym2612"
    },
    {
      "channel": 5,
      "note": 83,
      "start": 10.4091,
      "duration": 0.0665,
      "velocity": 95,
      "chip": "ym2612"
    },
    {
      "channel": 1,
      "note": 59,
      "start": 10.4591,
      "duration": 0.0662,
      "velocity": 95,
      "chip": "ym2612"
    },
    {
      "channel": 2,
      "note": 78,
      "start": 10.4608,
      "duration": 0.0647,
      "velocity": 95,
      "chip": "ym2612"
    },
    {
      "channel": 4,
      "note": 78,
      "start": 10.5106,
      "duration": 0.1671,
      "velocity": 103,
      "chip": "ym2612"
    },
    {
      "channel": 5,
      "note": 80,
      "start": 10.5122,
      "duration": 0.0646,
      "velocity": 95,
      "chip": "ym2612"
    },
    {
      "channel": 0,
      "note": 76,
      "start": 10.5603,
      "duration": 0.1671,
      "velocity": 103,
      "chip": "ym2612"
    },
    {
      "channel": 1,
      "note": 47,
      "start": 10.562,
      "duration": 0.0648,
      "velocity": 95,
      "chip": "ym2612"
    },
    {
      "channel": 2,
      "note": 77,
      "start": 10.5637,
      "duration": 0.0633,
      "velocity": 95,
      "chip": "ym2612"
    },
    {
      "channel": 3,
      "note": 61,
      "start": 10.5692,
      "duration": 0.0073,
      "velocity": 119,
      "chip": "ym2612"
    },
    {
      "channel": 5,
      "note": 78,
      "start": 10.6117,
      "duration": 0.0662,
      "velocity": 95,
      "chip": "ym2612"
    },
    {
      "channel": 1,
      "note": 59,
      "start": 10.6614,
      "duration": 0.0661,
      "velocity": 95,
      "chip": "ym2612"
    },
    {
      "channel": 2,
      "note": 74,
      "start": 10.6631,
      "duration": 0.0646,
      "velocity": 95,
      "chip": "ym2612"
    },
    {
      "channel": 3,
      "note": 61,
      "start": 10.6685,
      "duration": 0.0595,
      "velocity": 127,
      "chip": "ym2612"
    },
    {
      "channel": 4,
      "note": 76,
      "start": 10.7124,
      "duration": 0.1676,
      "velocity": 103,
      "chip": "ym2612"
    },
    {
      "channel": 5,
      "note": 77,
      "start": 10.714,
      "duration": 0.0649,
      "velocity": 95,
      "chip": "ym2612"
    },
    {
      "channel": 0,
      "note": 74,
      "start": 10.7625,
      "duration": 0.1671,
      "velocity": 103,
      "chip": "ym2612"
    },
    {
      "channel": 1,
      "note": 47,
      "start": 10.7643,
      "duration": 0.0642,
      "velocity": 95,
      "chip": "ym2612"
    },
    {
      "channel": 2,
      "note": 71,
      "start": 10.7661,
      "duration": 0.0627,
      "velocity": 95,
      "chip": "ym2612"
    },
    {
      "channel": 3,
      "note": 61,
      "start": 10.7682,
      "duration": 0.0608,
      "velocity": 127,
      "chip": "ym2612"
    },
    {
      "channel": 5,
      "note": 74,
      "start": 10.8135,
      "duration": 0.0666,
      "velocity": 95,
      "chip": "ym2612"
    },
    {
      "channel": 1,
      "note": 59,
      "start": 10.8637,
      "duration": 0.0661,
      "velocity": 95,
      "chip": "ym2612"
    },
    {
      "channel": 2,
      "note": 70,
      "start": 10.8654,
      "duration": 0.0646,
      "velocity": 95,
      "chip": "ym2612"
    },
    {
      "channel": 3,
      "note": 61,
      "start": 10.8708,
      "duration": 0.0595,
      "velocity": 127,
      "chip": "ym2612"
    },
    {
      "channel": 4,
      "note": 74,
      "start": 10.9154,
      "duration": 0.1667,
      "velocity": 103,
      "chip": "ym2612"
    },
    {
      "channel": 5,
      "note": 71,
      "start": 10.9171,
      "duration": 0.0641,
      "velocity": 95,
      "chip": "ym2612"
    },
    {
      "channel": 0,
      "note": 73,
      "start": 10.9648,
      "duration": 0.167,
      "velocity": 103,
      "chip": "ym2612"
    },
    {
      "channel": 1,
      "note": 45,
      "start": 10.9671,
      "duration": 0.0639,
      "velocity": 95,
      "chip": "ym2612"
    },
    {
      "channel": 2,
      "note": 69,
      "start": 10.9691,
      "duration": 0.0621,
      "velocity": 95,
      "chip": "ym2612"
    },
    {
      "channel": 3,
      "note": 61,
      "start": 10.9748,
      "duration": 0.0568,
      "velocity": 127,
      "chip": "ym2612"
    },
    {
      "channel": 5,
      "note": 70,
      "start": 11.0158,
      "duration": 0.0665,
      "velocity": 95,
      "chip": "ym2612"
    },
    {
      "channel": 1,
      "note": 57,
      "start": 11.0659,
      "duration": 0.0661,
      "velocity": 95,
      "chip": "ym2612"
    },
    {
      "channel": 2,
      "note": 73,
      "start": 11.0676,
      "duration": 0.0646,
      "velocity": 95,
      "chip": "ym2612"
    },
    {
      "channel": 4,
      "note": 73,
      "start": 11.1173,
      "duration": 0.1672,
      "velocity": 103,
      "chip": "ym2612"
    },
    {
      "channel": 5,
      "note": 69,
      "start": 11.1193,
      "duration": 0.0643,
      "velocity": 95,
      "chip": "ym2612"
    },
    {
      "channel": 0,
      "note": 74,
      "start": 11.1671,
      "duration": 0.0828,
      "velocity": 103,
      "chip": "ym2612"
    },
    {
      "channel": 1,
      "note": 45,
      "start": 11.1689,
      "duration": 0.0641,
      "velocity": 95,
      "chip": "ym2612"
    },
    {
      "channel": 2,
      "note": 76,
      "start": 11.1706,
      "duration": 0.0627,
      "velocity": 95,
      "chip": "ym2612"
    },
    {
      "channel": 3,
      "note": 61,
      "start": 11.1759,
      "duration": 0.0074,
      "velocity": 119,
      "chip": "ym2612"
    },
    {
      "channel": 5,
      "note": 73,
      "start": 11.2185,
      "duration": 0.0662,
      "velocity": 95,
      "chip": "ym2612"
    },
    {
      "channel": 0,
      "note": 73,
      "start": 11.2681,
      "duration": 0.0828,
      "velocity": 103,
      "chip": "ym2612"
    },
    {
      "channel": 1,
      "note": 57,
      "start": 11.2698,
      "duration": 0.0644,
      "velocity": 95,
      "chip": "ym2612"
    },
    {
      "channel": 2,
      "note": 79,
      "start": 11.2714,
      "duration": 0.0629,
      "velocity": 95,
      "chip": "ym2612"
    },
    {
      "channel": 3,
      "note": 61,
      "start": 11.2735,
      "duration": 0.0108,
      "velocity": 119,
      "chip": "ym2612"
    },
    {
      "channel": 4,
      "note": 74,
      "start": 11.3199,
      "duration": 0.082,
      "velocity": 103,
      "chip": "ym2612"
    },
    {
      "channel": 5,
      "note": 76,
      "start": 11.3215,
      "duration": 0.0641,
      "velocity": 95,
      "chip": "ym2612"
    },
    {
      "channel": 0,
      "note": 74,
      "start": 11.3693,
      "duration": 0.1838,
      "velocity": 103,
      "chip": "ym2612"
    },
    {
      "channel": 1,
      "note": 45,
      "start": 11.3711,
      "duration": 0.0656,
      "velocity": 95,
      "chip": "ym2612"
    },
    {
      "channel": 2,
      "note": 80,
      "start": 11.3727,
      "duration": 0.0642,
      "velocity": 95,
      "chip": "ym2612"
    },
    {
      "channel": 3,
      "note": 61,
      "start": 11.3781,
      "duration": 0.0591,
      "velocity": 127,
      "chip": "ym2612"
    },
    {
      "channel": 4,
      "note": 73,
      "start": 11.4202,
      "duration": 0.0847,
      "velocity": 103,
      "chip": "ym2612"
    },
    {
      "channel": 5,
      "note": 79,
      "start": 11.4218,
      "duration": 0.0648,
      "velocity": 95,
      "chip": "ym2612"
    },
    {
      "channel": 1,
      "note": 57,
      "start": 11.4704,
      "duration": 0.066,
      "velocity": 95,
      "chip": "ym2612"
    },
    {
      "channel": 2,
      "note": 81,
      "start": 11.472,
      "duration": 0.0646,
      "velocity": 95,
      "chip": "ym2612"
    },
    {
      "channel": 4,
      "note": 74,
      "start": 11.5218,
      "duration": 0.1839,
      "velocity": 103,
      "chip": "ym2612"
    },
    {
      "channel": 5,
      "note": 80,
      "start": 11.5234,
      "duration": 0.0659,
      "velocity": 95,
      "chip": "ym2612"
    },
    {
      "channel": 0,
      "note": 69,
      "start": 11.5715,
      "duration": 0.5715,
      "velocity": 103,
      "chip": "ym2612"
    },
    {
      "channel": 1,
      "note": 45,
      "start": 11.5733,
      "duration": 0.0642,
      "velocity": 95,
      "chip": "ym2612"
    },
    {
      "channel": 2,
      "note": 80,
      "start": 11.575,
      "duration": 0.0627,
      "velocity": 95,
      "chip": "ym2612"
    },
    {
      "channel": 3,
      "note": 61,
      "start": 11.5803,
      "duration": 0.0577,
      "velocity": 127,
      "chip": "ym2612"
    },
    {
      "channel": 5,
      "note": 81,
      "start": 11.6225,
      "duration": 0.0664,
      "velocity": 95,
      "chip": "ym2612"
    },
    {
      "channel": 1,
      "note": 57,
      "start": 11.6726,
      "duration": 0.066,
      "velocity": 95,
      "chip": "ym2612"
    },
    {
      "channel": 2,
      "note": 81,
      "start": 11.6743,
      "duration": 0.0646,
      "velocity": 95,
      "chip": "ym2612"
    },
    {
      "channel": 4,
      "note": 69,
      "start": 11.724,
      "duration": 0.5721,
      "velocity": 103,
      "chip": "ym2612"
    },
    {
      "channel": 5,
      "note": 80,
      "start": 11.7257,
      "duration": 0.0646,
      "velocity": 95,
      "chip": "ym2612"
    },
    {
      "channel": 1,
      "note": 45,
      "start": 11.7739,
      "duration": 0.0659,
      "velocity": 95,
      "chip": "ym2612"
    },
    {
      "channel": 2,
      "note": 80,
      "start": 11.7755,
      "duration": 0.0644,
      "velocity": 95,
      "chip": "ym2612"
    },
    {
      "channel": 3,
      "note": 61,
      "start": 11.7809,
      "duration": 0.009,
      "velocity": 119,
      "chip": "ym2612"
    },
    {
      "channel": 5,
      "note": 81,
      "start": 11.8252,
      "duration": 0.0669,
      "velocity": 95,
      "chip": "ym2612"
    },
    {
      "channel": 1,
      "note": 57,
      "start": 11.8748,
      "duration": 0.066,
      "velocity": 95,
      "chip": "ym2612"
    },
    {
      "channel": 2,
      "note": 76,
      "start": 11.8765,
      "duration": 0.0646,
      "velocity": 95,
      "chip": "ym2612"
    },
    {
      "channel": 3,
      "note": 61,
      "start": 11.8819,
      "duration": 0.0595,
      "velocity": 127,
      "chip": "ym2612"
    },
    {
      "channel": 5,
      "note": 80,
      "start": 11.9259,
      "duration": 0.0666,
      "velocity": 95,
      "chip": "ym2612"
    },
    {
      "channel": 1,
      "note": 45,
      "start": 11.9761,
      "duration": 0.0659,
      "velocity": 95,
      "chip": "ym2612"
    },
    {
      "channel": 2,
      "note": 73,
      "start": 11.9778,
      "duration": 0.0645,
      "velocity": 95,
      "chip": "ym2612"
    },
    {
      "channel": 3,
      "note": 61,
      "start": 11.9799,
      "duration": 0.0627,
      "velocity": 127,
      "chip": "ym2612"
    },
    {
      "channel": 5,
      "note": 76,
      "start": 12.0271,
      "duration": 0.0664,
      "velocity": 95,
      "chip": "ym2612"
    },
    {
      "channel": 1,
      "note": 57,
      "start": 12.0771,
      "duration": 0.066,
      "velocity": 95,
      "chip": "ym2612"
    },
    {
      "channel": 2,
      "note": 69,
      "start": 12.0788,
      "duration": 0.0646,
      "velocity": 95,
      "chip": "ym2612"
    },
    {
      "channel": 3,
      "note": 61,
      "start": 12.0842,
      "duration": 0.0595,
      "velocity": 127,
      "chip": "ym2612"
    },
    {
      "channel": 5,
      "note": 73,
      "start": 12.1281,
      "duration": 0.0665,
      "velocity": 95,
      "chip": "ym2612"
    },
    {
      "channel": 0,
      "note": 71,
      "start": 12.1785,
      "duration": 2.3913,
      "velocity": 103,
      "chip": "ym2612"
    },
    {
      "channel": 1,
      "note": 44,
      "start": 12.1807,
      "duration": 0.0634,
      "velocity": 95,
      "chip": "ym2612"
    },
    {
      "channel": 2,
      "note": 68,
      "start": 12.1828,
      "duration": 0.0616,
      "velocity": 95,
      "chip": "ym2612"
    },
    {
      "channel": 3,
      "note": 61,
      "start": 12.1885,
      "duration": 0.0562,
      "velocity": 127,
      "chip": "ym2612"
    },
    {
      "channel": 5,
      "note": 69,
      "start": 12.2292,
      "duration": 0.0671,
      "velocity": 95,
      "chip": "ym2612"
    },
    {
      "channel": 1,
      "note": 56,
      "start": 12.2793,
      "duration": 0.066,
      "velocity": 95,
      "chip": "ym2612"
    },
    {
      "channel": 2,
      "note": 71,
      "start": 12.281,
      "duration": 0.0645,
      "velocity": 95,
      "chip": "ym2612"
    },
    {
      "channel": 4,
      "note": 71,
      "start": 12.3311,
      "duration": 2.3914,
      "velocity": 103,
      "chip": "ym2612"
    },
    {
      "channel": 5,
      "note": 68,
      "start": 12.3332,
      "duration": 0.0639,
      "velocity": 95,
      "chip": "ym2612"
    },
    {
      "channel": 1,
      "note": 44,
      "start": 12.3806,
      "duration": 0.0658,
      "velocity": 95,
      "chip": "ym2612"
    },
    {
      "channel": 2,
      "note": 73,
      "start": 12.3823,
      "duration": 0.0643,
      "velocity": 95,
      "chip": "ym2612"
    },
    {
      "channel": 3,
      "note": 61,
      "start": 12.3878,
      "duration": 0.0089,
      "velocity": 119,
      "chip": "ym2612"
    },
    {
      "channel": 5,
      "note": 71,
      "start": 12.432,
      "duration": 0.0662,
      "velocity": 95,
      "chip": "ym2612"
    },
    {
      "channel": 1,
      "note": 56,
      "start": 12.4816,
      "duration": 0.0659,
      "velocity": 95,
      "chip": "ym2612"
    },
    {
      "channel": 2,
      "note": 74,
      "start": 12.4834,
      "duration": 0.0644,
      "velocity": 95,
      "chip": "ym2612"
    },
    {
      "channel": 3,
      "note": 61,
      "start": 12.4855,
      "duration": 0.0124,
      "velocity": 119,
      "chip": "ym2612"
    },
    {
      "channel": 5,
      "note": 73,
      "start": 12.5331,
      "duration": 0.066,
      "velocity": 95,
      "chip": "ym2612"
    },
    {
      "channel": 1,
      "note": 44,
      "start": 12.5841,
      "duration": 0.0647,
      "velocity": 95,
      "chip": "ym2612"
    },
    {
      "channel": 2,
      "note": 77,
      "start": 12.5857,
      "duration": 0.0632,
      "velocity": 95,
      "chip": "ym2612"
    },
    {
      "channel": 3,
      "note": 61,
      "start": 12.5911,
      "duration": 0.0582,
      "velocity": 127,
      "chip": "ym2612"
    },
    {
      "channel": 5,
      "note": 74,
      "start": 12.6339,
      "duration": 0.0664,
      "velocity": 95,
      "chip": "ym2612"
    },
    {
      "channel": 1,
      "note": 56,
      "start": 12.6839,
      "duration": 0.0659,
      "velocity": 95,
      "chip": "ym2612"
    },
    {
      "channel": 2,
      "note": 80,
      "start": 12.6856,
      "duration": 0.0644,
      "velocity": 95,
      "chip": "ym2612"
    },
    {
      "channel": 5,
      "note": 77,
      "start": 12.7353,
      "duration": 0.066,
      "velocity": 95,
      "chip": "ym2612"
    },
    {
      "channel": 1,
      "note": 44,
      "start": 12.7851,
      "duration": 0.0658,
      "velocity": 95,
      "chip": "ym2612"
    },
    {
      "channel": 2,
      "note": 77,
      "start": 12.7867,
      "duration": 0.0644,
      "velocity": 95,
      "chip": "ym2612"
    },
    {
      "channel": 3,
      "note": 61,
      "start": 12.7921,
      "duration": 0.0593,
      "velocity": 127,
      "chip": "ym2612"
    },
    {
      "channel": 5,
      "note": 80,
      "start": 12.836,
      "duration": 0.0664,
      "velocity": 95,
      "chip": "ym2612"
    },
    {
      "channel": 1,
      "note": 56,
      "start": 12.886,
      "duration": 0.066,
      "velocity": 95,
      "chip": "ym2612"
    },
    {
      "channel": 2,
      "note": 74,
      "start": 12.8877,
      "duration": 0.0646,
      "velocity": 95,
      "chip": "ym2612"
    },
    {
      "channel": 5,
      "note": 77,
      "start": 12.9375,
      "duration": 0.0662,
      "velocity": 95,
      "chip": "ym2612"
    },
    {
      "channel": 1,
      "note": 44,
      "start": 12.9876,
      "duration": 0.0655,
      "velocity": 95,
      "chip": "ym2612"
    },
    {
      "channel": 2,
      "note": 73,
      "start": 12.9893,
      "duration": 0.0641,
      "velocity": 95,
      "chip": "ym2612"
    },
    {
      "channel": 3,
      "note": 61,
      "start": 12.9946,
      "duration": 0.0088,
      "velocity": 119,
      "chip": "ym2612"
    },
    {
      "channel": 5,
      "note": 74,
      "start": 13.0386,
      "duration": 0.066,
      "velocity": 95,
      "chip": "ym2612"
    },
    {
      "channel": 1,
      "note": 56,
      "start": 13.0883,
      "duration": 0.066,
      "velocity": 95,
      "chip": "ym2612"
    },
    {
      "channel": 2,
      "note": 71,
      "start": 13.0899,
      "duration": 0.0646,
      "velocity": 95,
      "chip": "ym2612"
    },
    {
      "channel": 3,
      "note": 61,
      "start": 13.0953,
      "duration": 0.0595,
      "velocity": 127,
      "chip": "ym2612"
    },
    {
      "channel": 5,
      "note": 73,
      "start": 13.1393,
      "duration": 0.0664,
      "velocity": 95,
      "chip": "ym2612"
    },
    {
      "channel": 1,
      "note": 44,
      "start": 13.1896,
      "duration": 0.0658,
      "velocity": 95,
      "chip": "ym2612"
    },
    {
      "channel": 2,
      "note": 68,
      "start": 13.1912,
      "duration": 0.0644,
      "velocity": 95,
      "chip": "ym2612"
    },
    {
      "channel": 3,
      "note": 61,
      "start": 13.1934,
      "duration": 0.0625,
      "velocity": 127,
      "chip": "ym2612"
    },
    {
      "channel": 5,
      "note": 71,
      "start": 13.2404,
      "duration": 0.0665,
      "velocity": 95,
      "chip": "ym2612"
    },
    {
      "channel": 1,
      "note": 56,
      "start": 13.2905,
      "duration": 0.066,
      "velocity": 95,
      "chip": "ym2612"
    },
    {
      "channel": 2,
      "note": 71,
      "start": 13.2922,
      "duration": 0.0645,
      "velocity": 95,
      "chip": "ym2612"
    },
    {
      "channel": 3,
      "note": 61,
      "start": 13.2976,
      "duration": 0.0595,
      "velocity": 127,
      "chip": "ym2612"
    },
    {
      "channel": 5,
      "note": 68,
      "start": 13.3416,
      "duration": 0.0664,
      "velocity": 95,
      "chip": "ym2612"
    },
    {
      "channel": 1,
      "note": 45,
      "start": 13.3937,
      "duration": 0.0639,
      "velocity": 95,
      "chip": "ym2612"
    },
    {
      "channel": 2,
      "note": 69,
      "start": 13.3957,
      "duration": 0.0622,
      "velocity": 95,
      "chip": "ym2612"
    },
    {
      "channel": 3,
      "note": 61,
      "start": 13.4014,
      "duration": 0.0567,
      "velocity": 127,
      "chip": "ym2612"
    },
    {
      "channel": 5,
      "note": 71,
      "start": 13.4427,
      "duration": 0.0665,
      "velocity": 95,
      "chip": "ym2612"
    },
    {
      "channel": 1,
      "note": 57,
      "start": 13.4928,
      "duration": 0.0673,
      "velocity": 95,
      "chip": "ym2612"
    },
    {
      "channel": 2,
      "note": 73,
      "start": 13.4944,
      "duration": 0.0659,
      "velocity": 95,
      "chip": "ym2612"
    },
    {
      "channel": 5,
      "note": 69,
      "start": 13.546,
      "duration": 0.0644,
      "velocity": 95,
      "chip": "ym2612"
    },
    {
      "channel": 1,
      "note": 45,
      "start": 13.594,
      "duration": 0.0659,
      "velocity": 95,
      "chip": "ym2612"
    },
    {
      "channel": 2,
      "note": 76,
      "start": 13.5957,
      "duration": 0.0644,
      "velocity": 95,
      "chip": "ym2612"
    },
    {
      "channel": 3,
      "note": 61,
      "start": 13.6011,
      "duration": 0.009,
      "velocity": 119,
      "chip": "ym2612"
    },
    {
      "channel": 5,
      "note": 73,
      "start": 13.6453,
      "duration": 0.0662,
      "velocity": 95,
      "chip": "ym2612"
    },
    {
      "channel": 1,
      "note": 57,
      "start": 13.695,
      "duration": 0.066,
      "velocity": 95,
      "chip": "ym2612"
    },
    {
      "channel": 2,
      "note": 79,
      "start": 13.6967,
      "duration": 0.0646,
      "velocity": 95,
      "chip": "ym2612"
    },
    {
      "channel": 3,
      "note": 61,
      "start": 13.6988,
      "duration": 0.0124,
      "velocity": 119,
      "chip": "ym2612"
    },
    {
      "channel": 5,
      "note": 76,
      "start": 13.7465,
      "duration": 0.066,
      "velocity": 95,
      "chip": "ym2612"
    },
    {
      "channel": 1,
      "note": 45,
      "start": 13.7963,
      "duration": 0.0658,
      "velocity": 95,
      "chip": "ym2612"
    },
    {
      "channel": 2,
      "note": 80,
      "start": 13.798,
      "duration": 0.0644,
      "velocity": 95,
      "chip": "ym2612"
    },
    {
      "channel": 3,
      "note": 61,
      "start": 13.8035,
      "duration": 0.0592,
      "velocity": 127,
      "chip": "ym2612"
    },
    {
      "channel": 5,
      "note": 79,
      "start": 13.8472,
      "duration": 0.0665,
      "velocity": 95,
      "chip": "ym2612"
    },
    {
      "channel": 1,
      "note": 57,
      "start": 13.8972,
      "duration": 0.0665,
      "velocity": 95,
      "chip": "ym2612"
    },
    {
      "channel": 2,
      "note": 81,
      "start": 13.899,
      "duration": 0.065,
      "velocity": 95,
      "chip": "ym2612"
    },
    {
      "channel": 5,
      "note": 80,
      "start": 13.9488,
      "duration": 0.0659,
      "velocity": 95,
      "chip": "ym2612"
    },
    {
      "channel": 1,
      "note": 45,
      "start": 13.9986,
      "duration": 0.0657,
      "velocity": 95,
      "chip": "ym2612"
    },
    {
      "channel": 2,
      "note": 80,
      "start": 14.0003,
      "duration": 0.0643,
      "velocity": 95,
      "chip": "ym2612"
    },
    {
      "channel": 3,
      "note": 61,
      "start": 14.0057,
      "duration": 0.0592,
      "velocity": 127,
      "chip": "ym2612"
    },
    {
      "channel": 5,
      "note": 81,
      "start": 14.0494,
      "duration": 0.0664,
      "velocity": 95,
      "chip": "ym2612"
    },
    {
      "channel": 1,
      "note": 57,
      "start": 14.0995,
      "duration": 0.066,
      "velocity": 95,
      "chip": "ym2612"
    },
    {
      "channel": 2,
      "note": 81,
      "start": 14.1012,
      "duration": 0.0644,
      "velocity": 95,
      "chip": "ym2612"
    },
    {
      "channel": 5,
      "note": 80,
      "start": 14.151,
      "duration": 0.066,
      "velocity": 95,
      "chip": "ym2612"
    },
    {
      "channel": 1,
      "note": 45,
      "start": 14.2008,
      "duration": 0.0658,
      "velocity": 95,
      "chip": "ym2612"
    },
    {
      "channel": 2,
      "note": 80,
      "start": 14.2024,
      "duration": 0.0644,
      "velocity": 95,
      "chip": "ym2612"
    },
    {
      "channel": 3,
      "note": 61,
      "start": 14.2078,
      "duration": 0.0594,
      "velocity": 127,
      "chip": "ym2612"
    },
    {
      "channel": 5,
      "note": 81,
      "start": 14.2525,
      "duration": 0.0658,
      "velocity": 95,
      "chip": "ym2612"
    },
    {
      "channel": 1,
      "note": 57,
      "start": 14.3017,
      "duration": 0.0661,
      "velocity": 95,
      "chip": "ym2612"
    },
    {
      "channel": 2,
      "note": 76,
      "start": 14.3034,
      "duration": 0.0646,
      "velocity": 95,
      "chip": "ym2612"
    },
    {
      "channel": 3,
      "note": 61,
      "start": 14.3088,
      "duration": 0.0092,
      "velocity": 119,
      "chip": "ym2612"
    },
    {
      "channel": 5,
      "note": 80,
      "start": 14.3532,
      "duration": 0.066,
      "velocity": 95,
      "chip": "ym2612"
    },
    {
      "channel": 1,
      "note": 45,
      "start": 14.403,
      "duration": 0.0659,
      "velocity": 95,
      "chip": "ym2612"
    },
    {
      "channel": 2,
      "note": 73,
      "start": 14.4047,
      "duration": 0.0644,
      "velocity": 95,
      "chip": "ym2612"
    },
    {
      "channel": 3,
      "note": 61,
      "start": 14.41,
      "duration": 0.0593,
      "velocity": 127,
      "chip": "ym2612"
    },
    {
      "channel": 5,
      "note": 76,
      "start": 14.4539,
      "duration": 0.0664,
      "velocity": 95,
      "chip": "ym2612"
    },
    {
      "channel": 1,
      "note": 57,
      "start": 14.504,
      "duration": 0.0661,
      "velocity": 95,
      "chip": "ym2612"
    },
    {
      "channel": 2,
      "note": 69,
      "start": 14.5056,
      "duration": 0.0646,
      "velocity": 95,
      "chip": "ym2612"
    },
    {
      "channel": 3,
      "note": 61,
      "start": 14.5077,
      "duration": 0.0628,
      "velocity": 127,
      "chip": "ym2612"
    },
    {
      "channel": 5,
      "note": 73,
      "start": 14.555,
      "duration": 0.0665,
      "velocity": 95,
      "chip": "ym2612"
    },
    {
      "channel": 0,
      "note": 71,
      "start": 14.6054,
      "duration": 0.5712,
      "velocity": 103,
      "chip": "ym2612"
    },
    {
      "channel": 1,
      "note": 47,
      "start": 14.6077,
      "duration": 0.0635,
      "velocity": 95,
      "chip": "ym2612"
    },
    {
      "channel": 2,
      "note": 71,
      "start": 14.6096,
      "duration": 0.0617,
      "velocity": 95,
      "chip": "ym2612"
    },
    {
      "channel": 3,
      "note": 61,
      "start": 14.6153,
      "duration": 0.0564,
      "velocity": 127,
      "chip": "ym2612"
    },
    {
      "channel": 5,
      "note": 69,
      "start": 14.6565,
      "duration": 0.0662,
      "velocity": 95,
      "chip": "ym2612"
    },
    {
      "channel": 1,
      "note": 59,
      "start": 14.7063,
      "duration": 0.0661,
      "velocity": 95,
      "chip": "ym2612"
    },
    {
      "channel": 2,
      "note": 74,
      "start": 14.7079,
      "duration": 0.0646,
      "velocity": 95,
      "chip": "ym2612"
    },
    {
      "channel": 4,
      "note": 71,
      "start": 14.7579,
      "duration": 0.5712,
      "velocity": 103,
      "chip": "ym2612"
    },
    {
      "channel": 5,
      "note": 71,
      "start": 14.76,
      "duration": 0.0639,
      "velocity": 95,
      "chip": "ym2612"
    },
    {
      "channel": 1,
      "note": 47,
      "start": 14.8075,
      "duration": 0.0659,
      "velocity": 95,
      "chip": "ym2612"
    },
    {
      "channel": 2,
      "note": 77,
      "start": 14.8092,
      "duration": 0.0644,
      "velocity": 95,
      "chip": "ym2612"
    },
    {
      "channel": 3,
      "note": 61,
      "start": 14.8145,
      "duration": 0.009,
      "velocity": 119,
      "chip": "ym2612"
    },
    {
      "channel": 5,
      "note": 74,
      "start": 14.8588,
      "duration": 0.0662,
      "velocity": 95,
      "chip": "ym2612"
    },
    {
      "channel": 1,
      "note": 59,
      "start": 14.9085,
      "duration": 0.066,
      "velocity": 95,
      "chip": "ym2612"
    },
    {
      "channel": 2,
      "note": 78,
      "start": 14.9101,
      "duration": 0.0646,
      "velocity": 95,
      "chip": "ym2612"
    },
    {
      "channel": 3,
      "note": 61,
      "start": 14.9122,
      "duration": 0.0125,
      "velocity": 119,
      "chip": "ym2612"
    },
    {
      "channel": 5,
      "note": 77,
      "start": 14.96,
      "duration": 0.066,
      "velocity": 95,
      "chip": "ym2612"
    },
    {
      "channel": 1,
      "note": 47,
      "start": 15.0098,
      "duration": 0.0659,
      "velocity": 95,
      "chip": "ym2612"
    },
    {
      "channel": 2,
      "note": 80,
      "start": 15.0114,
      "duration": 0.0644,
      "velocity": 95,
      "chip": "ym2612"
    },
    {
      "channel": 3,
      "note": 61,
      "start": 15.0168,
      "duration": 0.0593,
      "velocity": 127,
      "chip": "ym2612"
    },
    {
      "channel": 5,
      "note": 78,
      "start": 15.0607,
      "duration": 0.0664,
      "velocity": 95,
      "chip": "ym2612"
    },
    {
      "channel": 1,
      "note": 59,
      "start": 15.1108,
      "duration": 0.066,
      "velocity": 95,
      "chip": "ym2612"
    },
    {
      "channel": 2,
      "note": 83,
      "start": 15.1124,
      "duration": 0.0646,
      "velocity": 95,
      "chip": "ym2612"
    },
    {
      "channel": 5,
      "note": 80,
      "start": 15.1622,
      "duration": 0.067,
      "velocity": 95,
      "chip": "ym2612"
    },
    {
      "channel": 0,
      "note": 78,
      "start": 15.2119,
      "duration": 0.167,
      "velocity": 103,
      "chip": "ym2612"
    },
    {
      "channel": 1,
      "note": 47,
      "start": 15.2137,
      "duration": 0.0642,
      "velocity": 95,
      "chip": "ym2612"
    },
    {
      "channel": 2,
      "note": 80,
      "start": 15.2154,
      "duration": 0.0627,
      "velocity": 95,
      "chip": "ym2612"
    },
    {
      "channel": 3,
      "note": 61,
      "start": 15.2208,
      "duration": 0.0576,
      "velocity": 127,
      "chip": "ym2612"
    },
    {
      "channel": 5,
      "note": 83,
      "start": 15.2629,
      "duration": 0.0665,
      "velocity": 95,
      "chip": "ym2612"
    },
    {
      "channel": 1,
      "note": 59,
      "start": 15.3129,
      "duration": 0.0661,
      "velocity": 95,
      "chip": "ym2612"
    },
    {
      "channel": 2,
      "note": 78,
      "start": 15.3146,
      "duration": 0.0646,
      "velocity": 95,
      "chip": "ym2612"
    },
    {
      "channel": 4,
      "note": 78,
      "start": 15.3644,
      "duration": 0.1671,
      "velocity": 103,
      "chip": "ym2612"
    },
    {
      "channel": 5,
      "note": 80,
      "start": 15.3661,
      "duration": 0.0646,
      "velocity": 95,
      "chip": "ym2612"
    },
    {
      "channel": 0,
      "note": 76,
      "start": 15.4141,
      "duration": 0.167,
      "velocity": 103,
      "chip": "ym2612"
    },
    {
      "channel": 1,
      "note": 47,
      "start": 15.4159,
      "duration": 0.0641,
      "velocity": 95,
      "chip": "ym2612"
    },
    {
      "channel": 2,
      "note": 77,
      "start": 15.4176,
      "duration": 0.0627,
      "velocity": 95,
      "chip": "ym2612"
    },
    {
      "channel": 3,
      "note": 61,
      "start": 15.423,
      "duration": 0.0073,
      "velocity": 119,
      "chip": "ym2612"
    },
    {
      "channel": 5,
      "note": 78,
      "start": 15.4656,
      "duration": 0.066,
      "velocity": 95,
      "chip": "ym2612"
    },
    {
      "channel": 1,
      "note": 59,
      "start": 15.5152,
      "duration": 0.0661,
      "velocity": 95,
      "chip": "ym2612"
    },
    {
      "channel": 2,
      "note": 74,
      "start": 15.5169,
      "duration": 0.0646,
      "velocity": 95,
      "chip": "ym2612"
    },
    {
      "channel": 3,
      "note": 61,
      "start": 15.5222,
      "duration": 0.0595,
      "velocity": 127,
      "chip": "ym2612"
    },
    {
      "channel": 4,
      "note": 76,
      "start": 15.5661,
      "duration": 0.1676,
      "velocity": 103,
      "chip": "ym2612"
    },
    {
      "channel": 5,
      "note": 77,
      "start": 15.5678,
      "duration": 0.0653,
      "velocity": 95,
      "chip": "ym2612"
    },
    {
      "channel": 0,
      "note": 74,
      "start": 15.6163,
      "duration": 0.167,
      "velocity": 103,
      "chip": "ym2612"
    },
    {
      "channel": 1,
      "note": 47,
      "start": 15.6182,
      "duration": 0.0641,
      "velocity": 95,
      "chip": "ym2612"
    },
    {
      "channel": 2,
      "note": 71,
      "start": 15.6198,
      "duration": 0.0627,
      "velocity": 95,
      "chip": "ym2612"
    },
    {
      "channel": 3,
      "note": 61,
      "start": 15.6219,
      "duration": 0.0609,
      "velocity": 127,
      "chip": "ym2612"
    },
    {
      "channel": 5,
      "note": 74,
      "start": 15.6674,
      "duration": 0.0665,
      "velocity": 95,
      "chip": "ym2612"
    },
    {
      "channel": 1,
      "note": 59,
      "start": 15.7175,
      "duration": 0.0661,
      "velocity": 95,
      "chip": "ym2612"
    },
    {
      "channel": 2,
      "note": 70,
      "start": 15.7191,
      "duration": 0.0646,
      "velocity": 95,
      "chip": "ym2612"
    },
    {
      "channel": 3,
      "note": 61,
      "start": 15.7244,
      "duration": 0.0596,
      "velocity": 127,
      "chip": "ym2612"
    },
    {
      "channel": 4,
      "note": 74,
      "start": 15.7684,
      "duration": 0.1675,
      "velocity": 103,
      "chip": "ym2612"
    },
    {
      "channel": 5,
      "note": 71,
      "start": 15.7701,
      "duration": 0.0649,
      "velocity": 95,
      "chip": "ym2612"
    },
    {
      "channel": 0,
      "note": 73,
      "start": 15.8185,
      "duration": 0.167,
      "velocity": 103,
      "chip": "ym2612"
    },
    {
      "channel": 1,
      "note": 45,
      "start": 15.8208,
      "duration": 0.0638,
      "velocity": 95,
      "chip": "ym2612"
    },
    {
      "channel": 2,
      "note": 69,
      "start": 15.8227,
      "duration": 0.062,
      "velocity": 95,
      "chip": "ym2612"
    },
    {
      "channel": 3,
      "note": 61,
      "start": 15.8284,
      "duration": 0.0567,
      "velocity": 127,
      "chip": "ym2612"
    },
    {
      "channel": 5,
      "note": 70,
      "start": 15.8695,
      "duration": 0.0666,
      "velocity": 95,
      "chip": "ym2612"
    },
    {
      "channel": 1,
      "note": 57,
      "start": 15.9204,
      "duration": 0.0654,
      "velocity": 95,
      "chip": "ym2612"
    },
    {
      "channel": 2,
      "note": 73,
      "start": 15.922,
      "duration": 0.0639,
      "velocity": 95,
      "chip": "ym2612"
    },
    {
      "channel": 4,
      "note": 73,
      "start": 15.971,
      "duration": 0.1673,
      "velocity": 103,
      "chip": "ym2612"
    },
    {
      "channel": 5,
      "note": 69,
      "start": 15.9731,
      "duration": 0.0643,
      "velocity": 95,
      "chip": "ym2612"
    },
    {
      "channel": 0,
      "note": 74,
      "start": 16.0208,
      "duration": 0.0827,
      "velocity": 103,
      "chip": "ym2612"
    },
    {
      "channel": 1,
      "note": 45,
      "start": 16.0227,
      "duration": 0.0641,
      "velocity": 95,
      "chip": "ym2612"
    },
    {
      "channel": 2,
      "note": 76,
      "start": 16.0243,
      "duration": 0.0627,
      "velocity": 95,
      "chip": "ym2612"
    },
    {
      "channel": 3,
      "note": 61,
      "start": 16.0297,
      "duration": 0.0074,
      "velocity": 119,
      "chip": "ym2612"
    },
    {
      "channel": 5,
      "note": 73,
      "start": 16.0722,
      "duration": 0.0663,
      "velocity": 95,
      "chip": "ym2612"
    },
    {
      "channel": 0,
      "note": 73,
      "start": 16.1219,
      "duration": 0.0828,
      "velocity": 103,
      "chip": "ym2612"
    },
    {
      "channel": 1,
      "note": 57,
      "start": 16.1236,
      "duration": 0.0644,
      "velocity": 95,
      "chip": "ym2612"
    },
    {
      "channel": 2,
      "note": 79,
      "start": 16.1252,
      "duration": 0.0629,
      "velocity": 95,
      "chip": "ym2612"
    },
    {
      "channel": 3,
      "note": 61,
      "start": 16.1273,
      "duration": 0.0108,
      "velocity": 119,
      "chip": "ym2612"
    },
    {
      "channel": 4,
      "note": 74,
      "start": 16.1733,
      "duration": 0.0824,
      "velocity": 103,
      "chip": "ym2612"
    },
    {
      "channel": 5,
      "note": 76,
      "start": 16.175,
      "duration": 0.0644,
      "velocity": 95,
      "chip": "ym2612"
    },
    {
      "channel": 0,
      "note": 74,
      "start": 16.2231,
      "duration": 0.1838,
      "velocity": 103,
      "chip": "ym2612"
    },
    {
      "channel": 1,
      "note": 45,
      "start": 16.2249,
      "duration": 0.0656,
      "velocity": 95,
      "chip": "ym2612"
    },
    {
      "channel": 2,
      "note": 80,
      "start": 16.2266,
      "duration": 0.0642,
      "velocity": 95,
      "chip": "ym2612"
    },
    {
      "channel": 3,
      "note": 61,
      "start": 16.2319,
      "duration": 0.0591,
      "velocity": 127,
      "chip": "ym2612"
    },
    {
      "channel": 4,
      "note": 73,
      "start": 16.2739,
      "duration": 0.0848,
      "velocity": 103,
      "chip": "ym2612"
    },
    {
      "channel": 5,
      "note": 79,
      "start": 16.2756,
      "duration": 0.0649,
      "velocity": 95,
      "chip": "ym2612"
    },
    {
      "channel": 1,
      "note": 57,
      "start": 16.3245,
      "duration": 0.0656,
      "velocity": 95,
      "chip": "ym2612"
    },
    {
      "channel": 2,
      "note": 81,
      "start": 16.3262,
      "duration": 0.0642,
      "velocity": 95,
      "chip": "ym2612"
    },
    {
      "channel": 4,
      "note": 74,
      "start": 16.3756,
      "duration": 0.1839,
      "velocity": 103,
      "chip": "ym2612"
    },
    {
      "channel": 5,
      "note": 80,
      "start": 16.3773,
      "duration": 0.0658,
      "velocity": 95,
      "chip": "ym2612"
    },
    {
      "channel": 0,
      "note": 69,
      "start": 16.4253,
      "duration": 0.5715,
      "velocity": 103,
      "chip": "ym2612"
    },
    {
      "channel": 1,
      "note": 45,
      "start": 16.4271,
      "duration": 0.0641,
      "velocity": 95,
      "chip": "ym2612"
    },
    {
      "channel": 2,
      "note": 80,
      "start": 16.4288,
      "duration": 0.0627,
      "velocity": 95,
      "chip": "ym2612"
    },
    {
      "channel": 3,
      "note": 61,
      "start": 16.4342,
      "duration": 0.0576,
      "velocity": 127,
      "chip": "ym2612"
    },
    {
      "channel": 5,
      "note": 81,
      "start": 16.4763,
      "duration": 0.0665,
      "velocity": 95,
      "chip": "ym2612"
    },
    {
      "channel": 1,
      "note": 57,
      "start": 16.5264,
      "duration": 0.066,
      "velocity": 95,
      "chip": "ym2612"
    },
    {
      "channel": 2,
      "note": 81,
      "start": 16.5281,
      "duration": 0.0645,
      "velocity": 95,
      "chip": "ym2612"
    },
    {
      "channel": 4,
      "note": 69,
      "start": 16.5778,
      "duration": 0.5715,
      "velocity": 103,
      "chip": "ym2612"
    },
    {
      "channel": 5,
      "note": 80,
      "start": 16.5795,
      "duration": 0.0646,
      "velocity": 95,
      "chip": "ym2612"
    },
    {
      "channel": 1,
      "note": 45,
      "start": 16.6277,
      "duration": 0.0658,
      "velocity": 95,
      "chip": "ym2612"
    },
    {
      "channel": 2,
      "note": 80,
      "start": 16.6293,
      "duration": 0.0644,
      "velocity": 95,
      "chip": "ym2612"
    },
    {
      "channel": 3,
      "note": 61,
      "start": 16.6348,
      "duration": 0.009,
      "velocity": 119,
      "chip": "ym2612"
    },
    {
      "channel": 5,
      "note": 81,
      "start": 16.679,
      "duration": 0.066,
      "velocity": 95,
      "chip": "ym2612"
    },
    {
      "channel": 1,
      "note": 57,
      "start": 16.7287,
      "duration": 0.066,
      "velocity": 95,
      "chip": "ym2612"
    },
    {
      "channel": 2,
      "note": 76,
      "start": 16.7303,
      "duration": 0.0646,
      "velocity": 95,
      "chip": "ym2612"
    },
    {
      "channel": 3,
      "note": 61,
      "start": 16.7358,
      "duration": 0.0594,
      "velocity": 127,
      "chip": "ym2612"
    },
    {
      "channel": 5,
      "note": 80,
      "start": 16.7797,
      "duration": 0.0666,
      "velocity": 95,
      "chip": "ym2612"
    },
    {
      "channel": 1,
      "note": 45,
      "start": 16.8299,
      "duration": 0.0667,
      "velocity": 95,
      "chip": "ym2612"
    },
    {
      "channel": 2,
      "note": 73,
      "start": 16.8316,
      "duration": 0.0653,
      "velocity": 95,
      "chip": "ym2612"
    },
    {
      "channel": 3,
      "note": 61,
      "start": 16.8338,
      "duration": 0.0634,
      "velocity": 127,
      "chip": "ym2612"
    },
    {
      "channel": 5,
      "note": 76,
      "start": 16.8809,
      "duration": 0.0665,
      "velocity": 95,
      "chip": "ym2612"
    },
    {
      "channel": 1,
      "note": 57,
      "start": 16.931,
      "duration": 0.0661,
      "velocity": 95,
      "chip": "ym2612"
    },
    {
      "channel": 2,
      "note": 69,
      "start": 16.9327,
      "duration": 0.0646,
      "velocity": 95,
      "chip": "ym2612"
    },
    {
      "channel": 3,
      "note": 61,
      "start": 16.9381,
      "duration": 0.0595,
      "velocity": 127,
      "chip": "ym2612"
    },
    {
      "channel": 5,
      "note": 73,
      "start": 16.982,
      "duration": 0.0664,
      "velocity": 95,
      "chip": "ym2612"
    },
    {
      "channel": 0,
      "note": 68,
      "start": 17.0323,
      "duration": 0.5712,
      "velocity": 103,
      "chip": "ym2612"
    },
    {
      "channel": 1,
      "note": 44,
      "start": 17.0346,
      "duration": 0.0634,
      "velocity": 95,
      "chip": "ym2612"
    },
    {
      "channel": 2,
      "note": 68,
      "start": 17.0366,
      "duration": 0.0616,
      "velocity": 95,
      "chip": "ym2612"
    },
    {
      "channel": 3,
      "note": 61,
      "start": 17.0422,
      "duration": 0.0563,
      "velocity": 127,
      "chip": "ym2612"
    },
    {
      "channel": 5,
      "note": 69,
      "start": 17.0831,
      "duration": 0.0665,
      "velocity": 95,
      "chip": "ym2612"
    },
    {
      "channel": 1,
      "note": 56,
      "start": 17.1332,
      "duration": 0.066,
      "velocity": 95,
      "chip": "ym2612"
    },
    {
      "channel": 2,
      "note": 71,
      "start": 17.1348,
      "duration": 0.0645,
      "velocity": 95,
      "chip": "ym2612"
    },
    {
      "channel": 4,
      "note": 68,
      "start": 17.1849,
      "duration": 0.5713,
      "velocity": 103,
      "chip": "ym2612"
    },
    {
      "channel": 5,
      "note": 68,
      "start": 17.1868,
      "duration": 0.064,
      "velocity": 95,
      "chip": "ym2612"
    },
    {
      "channel": 1,
      "note": 44,
      "start": 17.2344,
      "duration": 0.0663,
      "velocity": 95,
      "chip": "ym2612"
    },
    {
      "channel": 2,
      "note": 73,
      "start": 17.2361,
      "duration": 0.0649,
      "velocity": 95,
      "chip": "ym2612"
    },
    {
      "channel": 3,
      "note": 61,
      "start": 17.2414,
      "duration": 0.0091,
      "velocity": 119,
      "chip": "ym2612"
    },
    {
      "channel": 5,
      "note": 71,
      "start": 17.2857,
      "duration": 0.0662,
      "velocity": 95,
      "chip": "ym2612"
    },
    {
      "channel": 1,
      "note": 56,
      "start": 17.3354,
      "duration": 0.066,
      "velocity": 95,
      "chip": "ym2612"
    },
    {
      "channel": 2,
      "note": 74,
      "start": 17.3371,
      "duration": 0.0645,
      "velocity": 95,
      "chip": "ym2612"
    },
    {
      "channel": 3,
      "note": 61,
      "start": 17.3391,
      "duration": 0.0125,
      "velocity": 119,
      "chip": "ym2612"
    },
    {
      "channel": 5,
      "note": 73,
      "start": 17.3868,
      "duration": 0.066,
      "velocity": 95,
      "chip": "ym2612"
    },
    {
      "channel": 1,
      "note": 44,
      "start": 17.4367,
      "duration": 0.0659,
      "velocity": 95,
      "chip": "ym2612"
    },
    {
      "channel": 2,
      "note": 77,
      "start": 17.4383,
      "duration": 0.0644,
      "velocity": 95,
      "chip": "ym2612"
    },
    {
      "channel": 3,
      "note": 61,
      "start": 17.4437,
      "duration": 0.0594,
      "velocity": 127,
      "chip": "ym2612"
    },
    {
      "channel": 5,
      "note": 74,
      "start": 17.4876,
      "duration": 0.0664,
      "velocity": 95,
      "chip": "ym2612"
    },
    {
      "channel": 1,
      "note": 56,
      "start": 17.5377,
      "duration": 0.066,
      "velocity": 95,
      "chip": "ym2612"
    },
    {
      "channel": 2,
      "note": 80,
      "start": 17.5393,
      "duration": 0.0646,
      "velocity": 95,
      "chip": "ym2612"
    },
    {
      "channel": 5,
      "note": 77,
      "start": 17.5902,
      "duration": 0.0649,
      "velocity": 95,
      "chip": "ym2612"
    },
    {
      "channel": 0,
      "note": 69,
      "start": 17.6388,
      "duration": 0.049,
      "velocity": 103,
      "chip": "ym2612"
    },
    {
      "channel": 1,
      "note": 44,
      "start": 17.6405,
      "duration": 0.0659,
      "velocity": 95,
      "chip": "ym2612"
    },
    {
      "channel": 2,
      "note": 77,
      "start": 17.6422,
      "duration": 0.0644,
      "velocity": 95,
      "chip": "ym2612"
    },
    {
      "channel": 3,
      "note": 61,
      "start": 17.6476,
      "duration": 0.0593,
      "velocity": 127,
      "chip": "ym2612"
    },
    {
      "channel": 5,
      "note": 80,
      "start": 17.6898,
      "duration": 0.0666,
      "velocity": 95,
      "chip": "ym2612"
    },
    {
      "channel": 0,
      "note": 71,
      "start": 17.7062,
      "duration": 0.049,
      "velocity": 103,
      "chip": "ym2612"
    },
    {
      "channel": 1,
      "note": 56,
      "start": 17.7398,
      "duration": 0.066,
      "velocity": 95,
      "chip": "ym2612"
    },
    {
      "channel": 2,
      "note": 74,
      "start": 17.7415,
      "duration": 0.0646,
      "velocity": 95,
      "chip": "ym2612"
    },
    {
      "channel": 0,
      "note": 73,
      "start": 17.7736,
      "duration": 0.4367,
      "velocity": 103,
      "chip": "ym2612"
    },
    {
      "channel": 4,
      "note": 69,
      "start": 17.7912,
      "duration": 0.0588,
      "velocity": 103,
      "chip": "ym2612"
    },
    {
      "channel": 5,
      "note": 77,
      "start": 17.7929,
      "duration": 0.0662,
      "velocity": 95,
      "chip": "ym2612"
    },
    {
      "channel": 1,
      "note": 44,
      "start": 17.8427,
      "duration": 0.0643,
      "velocity": 95,
      "chip": "ym2612"
    },
    {
      "channel": 2,
      "note": 73,
      "start": 17.8443,
      "duration": 0.0628,
      "velocity": 95,
      "chip": "ym2612"
    },
    {
      "channel": 3,
      "note": 61,
      "start": 17.8497,
      "duration": 0.0075,
      "velocity": 119,
      "chip": "ym2612"
    },
    {
      "channel": 4,
      "note": 71,
      "start": 17.8589,
      "duration": 0.0491,
      "velocity": 103,
      "chip": "ym2612"
    },
    {
      "channel": 5,
      "note": 74,
      "start": 17.8924,
      "duration": 0.066,
      "velocity": 95,
      "chip": "ym2612"
    },
    {
      "channel": 4,
      "note": 73,
      "start": 17.9261,
      "duration": 0.4367,
      "velocity": 103,
      "chip": "ym2612"
    },
    {
      "channel": 1,
      "note": 56,
      "start": 17.9421,
      "duration": 0.066,
      "velocity": 95,
      "chip": "ym2612"
    },
    {
      "channel": 2,
      "note": 71,
      "start": 17.9437,
      "duration": 0.0646,
      "velocity": 95,
      "chip": "ym2612"
    },
    {
      "channel": 3,
      "note": 61,
      "start": 17.9491,
      "duration": 0.0595,
      "velocity": 127,
      "chip": "ym2612"
    },
    {
      "channel": 5,
      "note": 73,
      "start": 17.9949,
      "duration": 0.0646,
      "velocity": 95,
      "chip": "ym2612"
    },
    {
      "channel": 1,
      "note": 44,
      "start": 18.0434,
      "duration": 0.0659,
      "velocity": 95,
      "chip": "ym2612"
    },
    {
      "channel": 2,
      "note": 68,
      "start": 18.045,
      "duration": 0.0644,
      "velocity": 95,
      "chip": "ym2612"
    },
    {
      "channel": 3,
      "note": 61,
      "start": 18.0471,
      "duration": 0.0627,
      "velocity": 127,
      "chip": "ym2612"
    },
    {
      "channel": 5,
      "note": 71,
      "start": 18.0942,
      "duration": 0.0665,
      "velocity": 95,
      "chip": "ym2612"
    },
    {
      "channel": 1,
      "note": 56,
      "start": 18.1444,
      "duration": 0.0661,
      "velocity": 95,
      "chip": "ym2612"
    },
    {
      "channel": 2,
      "note": 71,
      "start": 18.146,
      "duration": 0.0647,
      "velocity": 95,
      "chip": "ym2612"
    },
    {
      "channel": 3,
      "note": 61,
      "start": 18.1514,
      "duration": 0.0596,
      "velocity": 127,
      "chip": "ym2612"
    },
    {
      "channel": 5,
      "note": 68,
      "start": 18.1954,
      "duration": 0.0664,
      "velocity": 95,
      "chip": "ym2612"
    },
    {
      "channel": 0,
      "note": 70,
      "start": 18.2458,
      "duration": 1.1779,
      "velocity": 103,
      "chip": "ym2612"
    },
    {
      "channel": 1,
      "note": 42,
      "start": 18.2479,
      "duration": 0.0635,
      "velocity": 95,
      "chip": "ym2612"
    },
    {
      "channel": 2,
      "note": 73,
      "start": 18.2501,
      "duration": 0.0616,
      "velocity": 95,
      "chip": "ym2612"
    },
    {
      "channel": 3,
      "note": 61,
      "start": 18.2557,
      "duration": 0.0563,
      "velocity": 127,
      "chip": "ym2612"
    },
    {
      "channel": 5,
      "note": 71,
      "start": 18.2965,
      "duration": 0.0666,
      "velocity": 95,
      "chip": "ym2612"
    },
    {
      "channel": 1,
      "note": 54,
      "start": 18.3466,
      "duration": 0.066,
      "velocity": 95,
      "chip": "ym2612"
    },
    {
      "channel": 2,
      "note": 66,
      "start": 18.3483,
      "duration": 0.0644,
      "velocity": 95,
      "chip": "ym2612"
    },
    {
      "channel": 3,
      "note": 61,
      "start": 18.3537,
      "duration": 0.0593,
      "velocity": 127,
      "chip": "ym2612"
    },
    {
      "channel": 4,
      "note": 70,
      "start": 18.3978,
      "duration": 1.0271,
      "velocity": 103,
      "chip": "ym2612"
    },
    {
      "channel": 5,
      "note": 73,
      "start": 18.4,
      "duration": 0.0641,
      "velocity": 95,
      "chip": "ym2612"
    },
    {
      "channel": 1,
      "note": 42,
      "start": 18.4477,
      "duration": 0.0661,
      "velocity": 95,
      "chip": "ym2612"
    },
    {
      "channel": 2,
      "note": 68,
      "start": 18.4494,
      "duration": 0.0646,
      "velocity": 95,
      "chip": "ym2612"
    },
    {
      "channel": 5,
      "note": 66,
      "start": 18.4992,
      "duration": 0.0674,
      "velocity": 95,
      "chip": "ym2612"
    },
    {
      "channel": 1,
      "note": 54,
      "start": 18.5488,
      "duration": 0.066,
      "velocity": 95,
      "chip": "ym2612"
    },
    {
      "channel": 2,
      "note": 70,
      "start": 18.5505,
      "duration": 0.0645,
      "velocity": 95,
      "chip": "ym2612"
    },
    {
      "channel": 3,
      "note": 61,
      "start": 18.5526,
      "duration": 0.0627,
      "velocity": 127,
      "chip": "ym2612"
    },
    {
      "channel": 5,
      "note": 68,
      "start": 18.5999,
      "duration": 0.0665,
      "velocity": 95,
      "chip": "ym2612"
    },
    {
      "channel": 1,
      "note": 42,
      "start": 18.65,
      "duration": 0.066,
      "velocity": 95,
      "chip": "ym2612"
    },
    {
      "channel": 2,
      "note": 71,
      "start": 18.6516,
      "duration": 0.0646,
      "velocity": 95,
      "chip": "ym2612"
    },
    {
      "channel": 3,
      "note": 61,
      "start": 18.657,
      "duration": 0.0595,
      "velocity": 127,
      "chip": "ym2612"
    },
    {
      "channel": 5,
      "note": 70,
      "start": 18.7011,
      "duration": 0.0664,
      "velocity": 95,
      "chip": "ym2612"
    },
    {
      "channel": 1,
      "note": 58,
      "start": 18.7512,
      "duration": 0.0659,
      "velocity": 95,
      "chip": "ym2612"
    },
    {
      "channel": 2,
      "note": 73,
      "start": 18.7528,
      "duration": 0.0644,
      "velocity": 95,
      "chip": "ym2612"
    },
    {
      "channel": 5,
      "note": 71,
      "start": 18.8025,
      "duration": 0.0661,
      "velocity": 95,
      "chip": "ym2612"
    },
    {
      "channel": 1,
      "note": 61,
      "start": 18.8522,
      "duration": 0.066,
      "velocity": 95,
      "chip": "ym2612"
    },
    {
      "channel": 2,
      "note": 74,
      "start": 18.8539,
      "duration": 0.0646,
      "velocity": 95,
      "chip": "ym2612"
    },
    {
      "channel": 3,
      "note": 71,
      "start": 18.8594,
      "duration": 0.009,
      "velocity": 121,
      "chip": "ym2612"
    },
    {
      "channel": 3,
      "note": 71,
      "start": 18.9034,
      "duration": 0.0158,
      "velocity": 121,
      "chip": "ym2612"
    },
    {
      "channel": 5,
      "note": 73,
      "start": 18.9052,
      "duration": 0.0651,
      "velocity": 95,
      "chip": "ym2612"
    },
    {
      "channel": 1,
      "note": 59,
      "start": 18.9533,
      "duration": 0.066,
      "velocity": 95,
      "chip": "ym2612"
    },
    {
      "channel": 2,
      "note": 76,
      "start": 18.9549,
      "duration": 0.0646,
      "velocity": 95,
      "chip": "ym2612"
    },
    {
      "channel": 3,
      "note": 71,
      "start": 18.957,
      "duration": 0.0129,
      "velocity": 121,
      "chip": "ym2612"
    },
    {
      "channel": 5,
      "note": 74,
      "start": 19.0047,
      "duration": 0.0662,
      "velocity": 95,
      "chip": "ym2612"
    },
    {
      "channel": 1,
      "note": 58,
      "start": 19.0544,
      "duration": 0.066,
      "velocity": 95,
      "chip": "ym2612"
    },
    {
      "channel": 2,
      "note": 77,
      "start": 19.0561,
      "duration": 0.0646,
      "velocity": 95,
      "chip": "ym2612"
    },
    {
      "channel": 3,
      "note": 66,
      "start": 19.0584,
      "duration": 0.0123,
      "velocity": 121,
      "chip": "ym2612"
    },
    {
      "channel": 5,
      "note": 76,
      "start": 19.1059,
      "duration": 0.0662,
      "velocity": 95,
      "chip": "ym2612"
    },
    {
      "channel": 1,
      "note": 56,
      "start": 19.1555,
      "duration": 0.066,
      "velocity": 95,
      "chip": "ym2612"
    },
    {
      "channel": 2,
      "note": 78,
      "start": 19.1571,
      "duration": 0.0646,
      "velocity": 95,
      "chip": "ym2612"
    },
    {
      "channel": 3,
      "note": 66,
      "start": 19.1593,
      "duration": 0.0125,
      "velocity": 121,
      "chip": "ym2612"
    },
    {
      "channel": 5,
      "note": 77,
      "start": 19.207,
      "duration": 0.0661,
      "velocity": 95,
      "chip": "ym2612"
    },
    {
      "channel": 1,
      "note": 54,
      "start": 19.2575,
      "duration": 0.0651,
      "velocity": 95,
      "chip": "ym2612"
    },
    {
      "channel": 2,
      "note": 80,
      "start": 19.2591,
      "duration": 0.0637,
      "velocity": 95,
      "chip": "ym2612"
    },
    {
      "channel": 3,
      "note": 61,
      "start": 19.2614,
      "duration": 0.0115,
      "velocity": 121,
      "chip": "ym2612"
    },
    {
      "channel": 5,
      "note": 78,
      "start": 19.3081,
      "duration": 0.0663,
      "velocity": 95,
      "chip": "ym2612"
    },
    {
      "channel": 1,
      "note": 58,
      "start": 19.3578,
      "duration": 0.0661,
      "velocity": 95,
      "chip": "ym2612"
    },
    {
      "channel": 2,
      "note": 82,
      "start": 19.3594,
      "duration": 0.0646,
      "velocity": 95,
      "chip": "ym2612"
    },
    {
      "channel": 3,
      "note": 61,
      "start": 19.3615,
      "duration": 0.0125,
      "velocity": 121,
      "chip": "ym2612"
    },
    {
      "channel": 5,
      "note": 80,
      "start": 19.4093,
      "duration": 0.0829,
      "velocity": 95,
      "chip": "ym2612"
    },
    {
      "channel": 0,
      "note": 59,
      "start": 19.4602,
      "duration": 0.9915,
      "velocity": 103,
      "chip": "ym2612"
    },
    {
      "channel": 1,
      "note": 47,
      "start": 19.4633,
      "duration": 0.0785,
      "velocity": 95,
      "chip": "ym2612"
    },
    {
      "channel": 2,
      "note": 71,
      "start": 19.4663,
      "duration": 0.0756,
      "velocity": 95,
      "chip": "ym2612"
    },
    {
      "channel": 3,
      "note": 61,
      "start": 19.4734,
      "duration": 0.0689,
      "velocity": 127,
      "chip": "ym2612"
    },
    {
      "channel": 4,
      "note": 54,
      "start": 19.4765,
      "duration": 0.9761,
      "velocity": 103,
      "chip": "ym2612"
    },
    {
      "channel": 5,
      "note": 82,
      "start": 19.5268,
      "duration": 0.0664,
      "velocity": 95,
      "chip": "ym2612"
    },
    {
      "channel": 1,
      "note": 59,
      "start": 19.5769,
      "duration": 0.066,
      "velocity": 95,
      "chip": "ym2612"
    },
    {
      "channel": 2,
      "note": 74,
      "start": 19.5785,
      "duration": 0.0646,
      "velocity": 95,
      "chip": "ym2612"
    },
    {
      "channel": 5,
      "note": 71,
      "start": 19.6297,
      "duration": 0.0649,
      "velocity": 95,
      "chip": "ym2612"
    },
    {
      "channel": 1,
      "note": 47,
      "start": 19.6782,
      "duration": 0.0658,
      "velocity": 95,
      "chip": "ym2612"
    },
    {
      "channel": 2,
      "note": 83,
      "start": 19.6799,
      "duration": 0.0643,
      "velocity": 95,
      "chip": "ym2612"
    },
    {
      "channel": 3,
      "note": 61,
      "start": 19.6852,
      "duration": 0.009,
      "velocity": 119,
      "chip": "ym2612"
    },
    {
      "channel": 5,
      "note": 74,
      "start": 19.7295,
      "duration": 0.066,
      "velocity": 95,
      "chip": "ym2612"
    },
    {
      "channel": 1,
      "note": 59,
      "start": 19.7791,
      "duration": 0.066,
      "velocity": 95,
      "chip": "ym2612"
    },
    {
      "channel": 2,
      "note": 82,
      "start": 19.7808,
      "duration": 0.0645,
      "velocity": 95,
      "chip": "ym2612"
    },
    {
      "channel": 3,
      "note": 61,
      "start": 19.7863,
      "duration": 0.0594,
      "velocity": 127,
      "chip": "ym2612"
    },
    {
      "channel": 5,
      "note": 83,
      "start": 19.8302,
      "duration": 0.0665,
      "velocity": 95,
      "chip": "ym2612"
    },
    {
      "channel": 1,
      "note": 47,
      "start": 19.8804,
      "duration": 0.067,
      "velocity": 95,
      "chip": "ym2612"
    },
    {
      "channel": 2,
      "note": 83,
      "start": 19.8822,
      "duration": 0.0655,
      "velocity": 95,
      "chip": "ym2612"
    },
    {
      "channel": 3,
      "note": 61,
      "start": 19.8877,
      "duration": 0.0602,
      "velocity": 127,
      "chip": "ym2612"
    },
    {
      "channel": 5,
      "note": 82,
      "start": 19.9313,
      "duration": 0.0666,
      "velocity": 95,
      "chip": "ym2612"
    },
    {
      "channel": 1,
      "note": 59,
      "start": 19.9815,
      "duration": 0.0659,
      "velocity": 95,
      "chip": "ym2612"
    },
    {
      "channel": 2,
      "note": 85,
      "start": 19.9832,
      "duration": 0.0643,
      "velocity": 95,
      "chip": "ym2612"
    },
    {
      "channel": 5,
      "note": 83,
      "start": 20.0328,
      "duration": 0.0662,
      "velocity": 95,
      "chip": "ym2612"
    },
    {
      "channel": 1,
      "note": 47,
      "start": 20.0827,
      "duration": 0.0659,
      "velocity": 95,
      "chip": "ym2612"
    },
    {
      "channel": 2,
      "note": 83,
      "start": 20.0844,
      "duration": 0.0643,
      "velocity": 95,
      "chip": "ym2612"
    },
    {
      "channel": 3,
      "note": 61,
      "start": 20.0897,
      "duration": 0.009,
      "velocity": 119,
      "chip": "ym2612"
    },
    {
      "channel": 5,
      "note": 85,
      "start": 20.134,
      "duration": 0.066,
      "velocity": 95,
      "chip": "ym2612"
    },
    {
      "channel": 1,
      "note": 59,
      "start": 20.1836,
      "duration": 0.066,
      "velocity": 95,
      "chip": "ym2612"
    },
    {
      "channel": 2,
      "note": 82,
      "start": 20.1853,
      "duration": 0.0645,
      "velocity": 95,
      "chip": "ym2612"
    },
    {
      "channel": 3,
      "note": 61,
      "start": 20.1907,
      "duration": 0.0595,
      "velocity": 127,
      "chip": "ym2612"
    },
    {
      "channel": 5,
      "note": 83,
      "start": 20.2355,
      "duration": 0.0657,
      "velocity": 95,
      "chip": "ym2612"
    },
    {
      "channel": 1,
      "note": 47,
      "start": 20.2849,
      "duration": 0.066,
      "velocity": 95,
      "chip": "ym2612"
    },
    {
      "channel": 2,
      "note": 83,
      "start": 20.2865,
      "duration": 0.0646,
      "velocity": 95,
      "chip": "ym2612"
    },
    {
      "channel": 3,
      "note": 61,
      "start": 20.292,
      "duration": 0.0089,
      "velocity": 119,
      "chip": "ym2612"
    },
    {
      "channel": 5,
      "note": 82,
      "start": 20.3362,
      "duration": 0.066,
      "velocity": 95,
      "chip": "ym2612"
    },
    {
      "channel": 1,
      "note": 59,
      "start": 20.3859,
      "duration": 0.0661,
      "velocity": 95,
      "chip": "ym2612"
    },
    {
      "channel": 2,
      "note": 78,
      "start": 20.3875,
      "duration": 0.0646,
      "velocity": 95,
      "chip": "ym2612"
    },
    {
      "channel": 3,
      "note": 61,
      "start": 20.3928,
      "duration": 0.0596,
      "velocity": 127,
      "chip": "ym2612"
    },
    {
      "channel": 5,
      "note": 83,
      "start": 20.4368,
      "duration": 0.0665,
      "velocity": 95,
      "chip": "ym2612"
    },
    {
      "channel": 0,
      "note": 59,
      "start": 20.487,
      "duration": 0.167,
      "velocity": 103,
      "chip": "ym2612"
    },
    {
      "channel": 1,
      "note": 47,
      "start": 20.4888,
      "duration": 0.0642,
      "velocity": 95,
      "chip": "ym2612"
    },
    {
      "channel": 2,
      "note": 79,
      "start": 20.4904,
      "duration": 0.0627,
      "velocity": 95,
      "chip": "ym2612"
    },
    {
      "channel": 3,
      "note": 61,
      "start": 20.4958,
      "duration": 0.0577,
      "velocity": 127,
      "chip": "ym2612"
    },
    {
      "channel": 4,
      "note": 54,
      "start": 20.4975,
      "duration": 0.1577,
      "velocity": 103,
      "chip": "ym2612"
    },
    {
      "channel": 5,
      "note": 78,
      "start": 20.538,
      "duration": 0.0664,
      "velocity": 95,
      "chip": "ym2612"
    },
    {
      "channel": 1,
      "note": 59,
      "start": 20.5881,
      "duration": 0.0661,
      "velocity": 95,
      "chip": "ym2612"
    },
    {
      "channel": 2,
      "note": 73,
      "start": 20.5897,
      "duration": 0.0647,
      "velocity": 95,
      "chip": "ym2612"
    },
    {
      "channel": 5,
      "note": 79,
      "start": 20.64,
      "duration": 0.0594,
      "velocity": 95,
      "chip": "ym2612"
    },
    {
      "channel": 0,
      "note": 61,
      "start": 20.6892,
      "duration": 0.0103,
      "velocity": 103,
      "chip": "ym2612"
    },
    {
      "channel": 1,
      "note": 47,
      "start": 20.6915,
      "duration": 0.008,
      "velocity": 95,
      "chip": "ym2612"
    },
    {
      "channel": 2,
      "note": 69,
      "start": 20.6935,
      "duration": 0.006,
      "velocity": 95,
      "chip": "ym2612"
    },
    {
      "channel": 3,
      "note": 61,
      "start": 20.6993,
      "duration": 0.0002,
      "velocity": 127,
      "chip": "ym2612"
    }
  ]
}