{
  "track_name": "08 - BrainChild",
  "duration_sec": 100.151,
  "sample_rate": 44100,
  "note_count": 575,
  "unique_pitches": 26,
  "pitch_range": 76,
  "avg_note_duration": 0.1299,
  "reconstruction_stats": {
    "notes_reconstructed": 575,
    "keyon_events": 575,
    "keyoff_events": 575,
    "orphan_keyons": 0,
    "unique_pitches": 26,
    "pitch_range": 76,
    "avg_duration_sec": 0.1299
  },
  "metadata": {
    "source": "X\\X-Men 2 - Clone Wars\\08 - BrainChild.vgz"
  },
  "notes": [
    {
      "channel": 1,
      "note": 31,
      "start": 0.0112,
      "duration": 0.047,
      "velocity": 124,
      "chip": "ym2612"
    },
    {
      "channel": 0,
      "note": 103,
      "start": 0.0274,
      "duration": 1.22,
      "velocity": 118,
      "chip": "ym2612"
    },
    {
      "channel": 4,
      "note": 56,
      "start": 0.0332,
      "duration": 1.4635,
      "velocity": 118,
      "chip": "ym2612"
    },
    {
      "channel": 1,
      "note": 31,
      "start": 0.437,
      "duration": 0.0257,
      "velocity": 124,
      "chip": "ym2612"
    },
    {
      "channel": 1,
      "note": 31,
      "start": 0.8856,
      "duration": 0.0195,
      "velocity": 124,
      "chip": "ym2612"
    },
    {
      "channel": 1,
      "note": 31,
      "start": 1.1002,
      "duration": 0.0204,
      "velocity": 124,
      "chip": "ym2612"
    },
    {
      "channel": 0,
      "note": 103,
      "start": 1.3177,
      "duration": 0.7093,
      "velocity": 118,
      "chip": "ym2612"
    },
    {
      "channel": 1,
      "note": 31,
      "start": 1.5332,
      "duration": 0.0203,
      "velocity": 124,
      "chip": "ym2612"
    },
    {
      "channel": 1,
      "note": 31,
      "start": 1.7505,
      "duration": 0.0196,
      "velocity": 124,
      "chip": "ym2612"
    },
    {
      "channel": 1,
      "note": 27,
      "start": 1.9658,
      "duration": 0.0176,
      "velocity": 124,
      "chip": "ym2612"
    },
    {
      "channel": 1,
      "note": 31,
      "start": 2.0303,
      "duration": 0.0227,
      "velocity": 124,
      "chip": "ym2612"
    },
    {
      "channel": 0,
      "note": 98,
      "start": 2.041,
      "duration": 1.2145,
      "velocity": 118,
      "chip": "ym2612"
    },
    {
      "channel": 1,
      "note": 31,
      "start": 2.441,
      "duration": 0.0194,
      "velocity": 124,
      "chip": "ym2612"
    },
    {
      "channel": 1,
      "note": 31,
      "start": 2.8756,
      "duration": 0.0262,
      "velocity": 124,
      "chip": "ym2612"
    },
    {
      "channel": 1,
      "note": 31,
      "start": 3.0914,
      "duration": 0.0275,
      "velocity": 124,
      "chip": "ym2612"
    },
    {
      "channel": 0,
      "note": 91,
      "start": 3.3104,
      "duration": 0.6656,
      "velocity": 118,
      "chip": "ym2612"
    },
    {
      "channel": 1,
      "note": 31,
      "start": 3.542,
      "duration": 0.02,
      "velocity": 124,
      "chip": "ym2612"
    },
    {
      "channel": 1,
      "note": 31,
      "start": 3.7581,
      "duration": 0.02,
      "velocity": 124,
      "chip": "ym2612"
    },
    {
      "channel": 1,
      "note": 27,
      "start": 3.8878,
      "duration": 0.016,
      "velocity": 124,
      "chip": "ym2612"
    },
    {
      "channel": 1,
      "note": 27,
      "start": 3.9477,
      "duration": 0.0168,
      "velocity": 124,
      "chip": "ym2612"
    },
    {
      "channel": 1,
      "note": 31,
      "start": 3.9798,
      "duration": 0.015,
      "velocity": 124,
      "chip": "ym2612"
    },
    {
      "channel": 3,
      "note": 33,
      "start": 4.1443,
      "duration": 0.0143,
      "velocity": 126,
      "chip": "ym2612"
    },
    {
      "channel": 1,
      "note": 31,
      "start": 4.2239,
      "duration": 0.0261,
      "velocity": 124,
      "chip": "ym2612"
    },
    {
      "channel": 1,
      "note": 31,
      "start": 4.6187,
      "duration": 0.0195,
      "velocity": 124,
      "chip": "ym2612"
    },
    {
      "channel": 1,
      "note": 31,
      "start": 4.8907,
      "duration": 0.02,
      "velocity": 124,
      "chip": "ym2612"
    },
    {
      "channel": 3,
      "note": 33,
      "start": 5.0768,
      "duration": 0.0158,
      "velocity": 126,
      "chip": "ym2612"
    },
    {
      "channel": 1,
      "note": 31,
      "start": 5.1585,
      "duration": 0.0256,
      "velocity": 124,
      "chip": "ym2612"
    },
    {
      "channel": 1,
      "note": 31,
      "start": 5.3761,
      "duration": 0.0269,
      "velocity": 124,
      "chip": "ym2612"
    },
    {
      "channel": 3,
      "note": 33,
      "start": 5.4823,
      "duration": 0.0156,
      "velocity": 126,
      "chip": "ym2612"
    },
    {
      "channel": 1,
      "note": 27,
      "start": 5.5623,
      "duration": 0.0178,
      "velocity": 124,
      "chip": "ym2612"
    },
    {
      "channel": 1,
      "note": 31,
      "start": 5.618,
      "duration": 0.0169,
      "velocity": 124,
      "chip": "ym2612"
    },
    {
      "channel": 3,
      "note": 33,
      "start": 5.8043,
      "duration": 0.0158,
      "velocity": 126,
      "chip": "ym2612"
    },
    {
      "channel": 1,
      "note": 31,
      "start": 5.8847,
      "duration": 0.0195,
      "velocity": 124,
      "chip": "ym2612"
    },
    {
      "channel": 1,
      "note": 31,
      "start": 6.2632,
      "duration": 0.0266,
      "velocity": 124,
      "chip": "ym2612"
    },
    {
      "channel": 1,
      "note": 31,
      "start": 6.536,
      "duration": 0.0267,
      "velocity": 124,
      "chip": "ym2612"
    },
    {
      "channel": 3,
      "note": 33,
      "start": 6.7154,
      "duration": 0.0213,
      "velocity": 126,
      "chip": "ym2612"
    },
    {
      "channel": 1,
      "note": 31,
      "start": 6.8024,
      "duration": 0.0183,
      "velocity": 124,
      "chip": "ym2612"
    },
    {
      "channel": 1,
      "note": 31,
      "start": 7.0243,
      "duration": 0.0202,
      "velocity": 124,
      "chip": "ym2612"
    },
    {
      "channel": 3,
      "note": 33,
      "start": 7.1178,
      "duration": 0.0202,
      "velocity": 126,
      "chip": "ym2612"
    },
    {
      "channel": 1,
      "note": 27,
      "start": 7.2027,
      "duration": 0.0128,
      "velocity": 124,
      "chip": "ym2612"
    },
    {
      "channel": 1,
      "note": 31,
      "start": 7.2544,
      "duration": 0.0253,
      "velocity": 124,
      "chip": "ym2612"
    },
    {
      "channel": 3,
      "note": 33,
      "start": 7.4314,
      "duration": 0.0207,
      "velocity": 126,
      "chip": "ym2612"
    },
    {
      "channel": 1,
      "note": 31,
      "start": 7.5183,
      "duration": 0.019,
      "velocity": 124,
      "chip": "ym2612"
    },
    {
      "channel": 1,
      "note": 31,
      "start": 7.8949,
      "duration": 0.0201,
      "velocity": 124,
      "chip": "ym2612"
    },
    {
      "channel": 3,
      "note": 33,
      "start": 7.9996,
      "duration": 0.0157,
      "velocity": 126,
      "chip": "ym2612"
    },
    {
      "channel": 1,
      "note": 31,
      "start": 8.0798,
      "duration": 0.0199,
      "velocity": 124,
      "chip": "ym2612"
    },
    {
      "channel": 3,
      "note": 33,
      "start": 8.2606,
      "duration": 0.0148,
      "velocity": 126,
      "chip": "ym2612"
    },
    {
      "channel": 1,
      "note": 31,
      "start": 8.3415,
      "duration": 0.0257,
      "velocity": 124,
      "chip": "ym2612"
    },
    {
      "channel": 1,
      "note": 31,
      "start": 8.5576,
      "duration": 0.0273,
      "velocity": 124,
      "chip": "ym2612"
    },
    {
      "channel": 3,
      "note": 33,
      "start": 8.6627,
      "duration": 0.0157,
      "velocity": 126,
      "chip": "ym2612"
    },
    {
      "channel": 1,
      "note": 27,
      "start": 8.7437,
      "duration": 0.0181,
      "velocity": 124,
      "chip": "ym2612"
    },
    {
      "channel": 1,
      "note": 31,
      "start": 8.8008,
      "duration": 0.0188,
      "velocity": 124,
      "chip": "ym2612"
    },
    {
      "channel": 3,
      "note": 33,
      "start": 8.9835,
      "duration": 0.0155,
      "velocity": 126,
      "chip": "ym2612"
    },
    {
      "channel": 1,
      "note": 31,
      "start": 9.0647,
      "duration": 0.025,
      "velocity": 124,
      "chip": "ym2612"
    },
    {
      "channel": 1,
      "note": 31,
      "start": 9.4598,
      "duration": 0.0195,
      "velocity": 124,
      "chip": "ym2612"
    },
    {
      "channel": 1,
      "note": 31,
      "start": 9.7426,
      "duration": 0.0207,
      "velocity": 124,
      "chip": "ym2612"
    },
    {
      "channel": 3,
      "note": 33,
      "start": 9.9316,
      "duration": 0.0151,
      "velocity": 126,
      "chip": "ym2612"
    },
    {
      "channel": 1,
      "note": 31,
      "start": 10.012,
      "duration": 0.0199,
      "velocity": 124,
      "chip": "ym2612"
    },
    {
      "channel": 1,
      "note": 31,
      "start": 10.2218,
      "duration": 0.0196,
      "velocity": 124,
      "chip": "ym2612"
    },
    {
      "channel": 3,
      "note": 33,
      "start": 10.3129,
      "duration": 0.0218,
      "velocity": 126,
      "chip": "ym2612"
    },
    {
      "channel": 1,
      "note": 27,
      "start": 10.4015,
      "duration": 0.0138,
      "velocity": 124,
      "chip": "ym2612"
    },
    {
      "channel": 4,
      "note": 67,
      "start": 10.4622,
      "duration": 1.1797,
      "velocity": 118,
      "chip": "ym2612"
    },
    {
      "channel": 1,
      "note": 31,
      "start": 10.4749,
      "duration": 0.0277,
      "velocity": 124,
      "chip": "ym2612"
    },
    {
      "channel": 0,
      "note": 67,
      "start": 10.4863,
      "duration": 1.1682,
      "velocity": 118,
      "chip": "ym2612"
    },
    {
      "channel": 2,
      "note": 79,
      "start": 10.4893,
      "duration": 0.0086,
      "velocity": 107,
      "chip": "ym2612"
    },
    {
      "channel": 3,
      "note": 79,
      "start": 10.6183,
      "duration": 0.0087,
      "velocity": 107,
      "chip": "ym2612"
    },
    {
      "channel": 2,
      "note": 33,
      "start": 10.6615,
      "duration": 0.0214,
      "velocity": 126,
      "chip": "ym2612"
    },
    {
      "channel": 1,
      "note": 79,
      "start": 10.707,
      "duration": 0.0083,
      "velocity": 107,
      "chip": "ym2612"
    },
    {
      "channel": 3,
      "note": 31,
      "start": 10.7493,
      "duration": 0.0211,
      "velocity": 124,
      "chip": "ym2612"
    },
    {
      "channel": 2,
      "note": 79,
      "start": 10.757,
      "duration": 0.0073,
      "velocity": 107,
      "chip": "ym2612"
    },
    {
      "channel": 1,
      "note": 79,
      "start": 10.883,
      "duration": 0.0083,
      "velocity": 107,
      "chip": "ym2612"
    },
    {
      "channel": 2,
      "note": 79,
      "start": 11.015,
      "duration": 0.045,
      "velocity": 107,
      "chip": "ym2612"
    },
    {
      "channel": 3,
      "note": 31,
      "start": 11.1295,
      "duration": 0.0274,
      "velocity": 124,
      "chip": "ym2612"
    },
    {
      "channel": 2,
      "note": 79,
      "start": 11.241,
      "duration": 0.0284,
      "velocity": 107,
      "chip": "ym2612"
    },
    {
      "channel": 3,
      "note": 31,
      "start": 11.4024,
      "duration": 0.0271,
      "velocity": 124,
      "chip": "ym2612"
    },
    {
      "channel": 1,
      "note": 80,
      "start": 11.4096,
      "duration": 0.0087,
      "velocity": 107,
      "chip": "ym2612"
    },
    {
      "channel": 2,
      "note": 80,
      "start": 11.5399,
      "duration": 0.013,
      "velocity": 107,
      "chip": "ym2612"
    },
    {
      "channel": 1,
      "note": 33,
      "start": 11.5885,
      "duration": 0.0146,
      "velocity": 126,
      "chip": "ym2612"
    },
    {
      "channel": 3,
      "note": 80,
      "start": 11.6334,
      "duration": 0.0084,
      "velocity": 107,
      "chip": "ym2612"
    },
    {
      "channel": 4,
      "note": 68,
      "start": 11.6582,
      "duration": 0.4629,
      "velocity": 118,
      "chip": "ym2612"
    },
    {
      "channel": 2,
      "note": 31,
      "start": 11.6777,
      "duration": 0.0232,
      "velocity": 124,
      "chip": "ym2612"
    },
    {
      "channel": 0,
      "note": 68,
      "start": 11.685,
      "duration": 0.4468,
      "velocity": 118,
      "chip": "ym2612"
    },
    {
      "channel": 1,
      "note": 79,
      "start": 11.6879,
      "duration": 0.006,
      "velocity": 107,
      "chip": "ym2612"
    },
    {
      "channel": 3,
      "note": 79,
      "start": 11.8335,
      "duration": 0.0085,
      "velocity": 107,
      "chip": "ym2612"
    },
    {
      "channel": 2,
      "note": 31,
      "start": 11.9082,
      "duration": 0.0197,
      "velocity": 124,
      "chip": "ym2612"
    },
    {
      "channel": 1,
      "note": 79,
      "start": 11.9552,
      "duration": 0.0132,
      "velocity": 107,
      "chip": "ym2612"
    },
    {
      "channel": 3,
      "note": 33,
      "start": 12.0034,
      "duration": 0.0147,
      "velocity": 126,
      "chip": "ym2612"
    },
    {
      "channel": 2,
      "note": 27,
      "start": 12.0858,
      "duration": 0.0173,
      "velocity": 124,
      "chip": "ym2612"
    },
    {
      "channel": 1,
      "note": 79,
      "start": 12.0934,
      "duration": 0.0061,
      "velocity": 107,
      "chip": "ym2612"
    },
    {
      "channel": 4,
      "note": 66,
      "start": 12.1365,
      "duration": 1.183,
      "velocity": 118,
      "chip": "ym2612"
    },
    {
      "channel": 2,
      "note": 31,
      "start": 12.1453,
      "duration": 0.0251,
      "velocity": 124,
      "chip": "ym2612"
    },
    {
      "channel": 0,
      "note": 66,
      "start": 12.1564,
      "duration": 1.1751,
      "velocity": 118,
      "chip": "ym2612"
    },
    {
      "channel": 3,
      "note": 78,
      "start": 12.1591,
      "duration": 0.008,
      "velocity": 107,
      "chip": "ym2612"
    },
    {
      "channel": 1,
      "note": 78,
      "start": 12.2728,
      "duration": 0.0087,
      "velocity": 107,
      "chip": "ym2612"
    },
    {
      "channel": 3,
      "note": 33,
      "start": 12.322,
      "duration": 0.0145,
      "velocity": 126,
      "chip": "ym2612"
    },
    {
      "channel": 2,
      "note": 78,
      "start": 12.3673,
      "duration": 0.0093,
      "velocity": 107,
      "chip": "ym2612"
    },
    {
      "channel": 1,
      "note": 31,
      "start": 12.4046,
      "duration": 0.0265,
      "velocity": 124,
      "chip": "ym2612"
    },
    {
      "channel": 3,
      "note": 79,
      "start": 12.4117,
      "duration": 0.0132,
      "velocity": 107,
      "chip": "ym2612"
    },
    {
      "channel": 2,
      "note": 79,
      "start": 12.5425,
      "duration": 0.0091,
      "velocity": 107,
      "chip": "ym2612"
    },
    {
      "channel": 3,
      "note": 79,
      "start": 12.6861,
      "duration": 0.0279,
      "velocity": 107,
      "chip": "ym2612"
    },
    {
      "channel": 1,
      "note": 31,
      "start": 12.8004,
      "duration": 0.0197,
      "velocity": 124,
      "chip": "ym2612"
    },
    {
      "channel": 3,
      "note": 79,
      "start": 12.8959,
      "duration": 0.0449,
      "velocity": 107,
      "chip": "ym2612"
    },
    {
      "channel": 1,
      "note": 31,
      "start": 13.0738,
      "duration": 0.0208,
      "velocity": 124,
      "chip": "ym2612"
    },
    {
      "channel": 2,
      "note": 81,
      "start": 13.081,
      "duration": 0.0088,
      "velocity": 107,
      "chip": "ym2612"
    },
    {
      "channel": 3,
      "note": 81,
      "start": 13.21,
      "duration": 0.0071,
      "velocity": 107,
      "chip": "ym2612"
    },
    {
      "channel": 2,
      "note": 33,
      "start": 13.2639,
      "duration": 0.016,
      "velocity": 126,
      "chip": "ym2612"
    },
    {
      "channel": 1,
      "note": 81,
      "start": 13.3039,
      "duration": 0.0154,
      "velocity": 107,
      "chip": "ym2612"
    },
    {
      "channel": 4,
      "note": 66,
      "start": 13.3356,
      "duration": 0.4556,
      "velocity": 118,
      "chip": "ym2612"
    },
    {
      "channel": 3,
      "note": 31,
      "start": 13.3473,
      "duration": 0.0283,
      "velocity": 124,
      "chip": "ym2612"
    },
    {
      "channel": 0,
      "note": 66,
      "start": 13.355,
      "duration": 0.4432,
      "velocity": 118,
      "chip": "ym2612"
    },
    {
      "channel": 2,
      "note": 84,
      "start": 13.3579,
      "duration": 0.0061,
      "velocity": 107,
      "chip": "ym2612"
    },
    {
      "channel": 1,
      "note": 84,
      "start": 13.4911,
      "duration": 0.0146,
      "velocity": 107,
      "chip": "ym2612"
    },
    {
      "channel": 3,
      "note": 31,
      "start": 13.5662,
      "duration": 0.0193,
      "velocity": 124,
      "chip": "ym2612"
    },
    {
      "channel": 2,
      "note": 84,
      "start": 13.6177,
      "duration": 0.009,
      "velocity": 107,
      "chip": "ym2612"
    },
    {
      "channel": 1,
      "note": 33,
      "start": 13.6733,
      "duration": 0.0149,
      "velocity": 126,
      "chip": "ym2612"
    },
    {
      "channel": 3,
      "note": 27,
      "start": 13.7539,
      "duration": 0.0165,
      "velocity": 124,
      "chip": "ym2612"
    },
    {
      "channel": 2,
      "note": 84,
      "start": 13.7639,
      "duration": 0.0044,
      "velocity": 107,
      "chip": "ym2612"
    },
    {
      "channel": 4,
      "note": 65,
      "start": 13.8031,
      "duration": 1.0727,
      "velocity": 118,
      "chip": "ym2612"
    },
    {
      "channel": 3,
      "note": 31,
      "start": 13.8156,
      "duration": 0.0261,
      "velocity": 124,
      "chip": "ym2612"
    },
    {
      "channel": 0,
      "note": 65,
      "start": 13.8289,
      "duration": 1.0653,
      "velocity": 118,
      "chip": "ym2612"
    },
    {
      "channel": 1,
      "note": 82,
      "start": 13.8317,
      "duration": 0.0084,
      "velocity": 107,
      "chip": "ym2612"
    },
    {
      "channel": 2,
      "note": 82,
      "start": 13.9446,
      "duration": 0.0072,
      "velocity": 107,
      "chip": "ym2612"
    },
    {
      "channel": 1,
      "note": 33,
      "start": 13.9863,
      "duration": 0.0207,
      "velocity": 126,
      "chip": "ym2612"
    },
    {
      "channel": 3,
      "note": 82,
      "start": 14.031,
      "duration": 0.0086,
      "velocity": 107,
      "chip": "ym2612"
    },
    {
      "channel": 2,
      "note": 31,
      "start": 14.0742,
      "duration": 0.0213,
      "velocity": 124,
      "chip": "ym2612"
    },
    {
      "channel": 1,
      "note": 83,
      "start": 14.0818,
      "duration": 0.0071,
      "velocity": 107,
      "chip": "ym2612"
    },
    {
      "channel": 3,
      "note": 83,
      "start": 14.2041,
      "duration": 0.0088,
      "velocity": 107,
      "chip": "ym2612"
    },
    {
      "channel": 1,
      "note": 83,
      "start": 14.3519,
      "duration": 0.0281,
      "velocity": 107,
      "chip": "ym2612"
    },
    {
      "channel": 2,
      "note": 31,
      "start": 14.4501,
      "duration": 0.0273,
      "velocity": 124,
      "chip": "ym2612"
    },
    {
      "channel": 3,
      "note": 33,
      "start": 14.5561,
      "duration": 0.0173,
      "velocity": 126,
      "chip": "ym2612"
    },
    {
      "channel": 1,
      "note": 83,
      "start": 14.5595,
      "duration": 0.0081,
      "velocity": 107,
      "chip": "ym2612"
    },
    {
      "channel": 2,
      "note": 31,
      "start": 14.639,
      "duration": 0.0273,
      "velocity": 124,
      "chip": "ym2612"
    },
    {
      "channel": 1,
      "note": 84,
      "start": 14.6468,
      "duration": 0.0132,
      "velocity": 107,
      "chip": "ym2612"
    },
    {
      "channel": 3,
      "note": 84,
      "start": 14.7803,
      "duration": 0.0087,
      "velocity": 107,
      "chip": "ym2612"
    },
    {
      "channel": 1,
      "note": 33,
      "start": 14.8224,
      "duration": 0.0203,
      "velocity": 126,
      "chip": "ym2612"
    },
    {
      "channel": 2,
      "note": 84,
      "start": 14.867,
      "duration": 0.0089,
      "velocity": 107,
      "chip": "ym2612"
    },
    {
      "channel": 4,
      "note": 65,
      "start": 14.8988,
      "duration": 0.4624,
      "velocity": 118,
      "chip": "ym2612"
    },
    {
      "channel": 3,
      "note": 31,
      "start": 14.9115,
      "duration": 0.0217,
      "velocity": 124,
      "chip": "ym2612"
    },
    {
      "channel": 0,
      "note": 65,
      "start": 14.9182,
      "duration": 0.45,
      "velocity": 118,
      "chip": "ym2612"
    },
    {
      "channel": 1,
      "note": 87,
      "start": 14.9207,
      "duration": 0.0057,
      "velocity": 107,
      "chip": "ym2612"
    },
    {
      "channel": 2,
      "note": 87,
      "start": 15.063,
      "duration": 0.0092,
      "velocity": 107,
      "chip": "ym2612"
    },
    {
      "channel": 3,
      "note": 31,
      "start": 15.1388,
      "duration": 0.0196,
      "velocity": 124,
      "chip": "ym2612"
    },
    {
      "channel": 1,
      "note": 87,
      "start": 15.1871,
      "duration": 0.0135,
      "velocity": 107,
      "chip": "ym2612"
    },
    {
      "channel": 2,
      "note": 33,
      "start": 15.2354,
      "duration": 0.0214,
      "velocity": 126,
      "chip": "ym2612"
    },
    {
      "channel": 3,
      "note": 27,
      "start": 15.3245,
      "duration": 0.0156,
      "velocity": 124,
      "chip": "ym2612"
    },
    {
      "channel": 1,
      "note": 87,
      "start": 15.3338,
      "duration": 0.0041,
      "velocity": 107,
      "chip": "ym2612"
    },
    {
      "channel": 4,
      "note": 60,
      "start": 15.3726,
      "duration": 1.1693,
      "velocity": 118,
      "chip": "ym2612"
    },
    {
      "channel": 3,
      "note": 31,
      "start": 15.3812,
      "duration": 0.0253,
      "velocity": 124,
      "chip": "ym2612"
    },
    {
      "channel": 0,
      "note": 60,
      "start": 15.3924,
      "duration": 1.1615,
      "velocity": 118,
      "chip": "ym2612"
    },
    {
      "channel": 2,
      "note": 86,
      "start": 15.3962,
      "duration": 0.0072,
      "velocity": 107,
      "chip": "ym2612"
    },
    {
      "channel": 1,
      "note": 86,
      "start": 15.5123,
      "duration": 0.0128,
      "velocity": 107,
      "chip": "ym2612"
    },
    {
      "channel": 2,
      "note": 33,
      "start": 15.5601,
      "duration": 0.0152,
      "velocity": 126,
      "chip": "ym2612"
    },
    {
      "channel": 3,
      "note": 86,
      "start": 15.6058,
      "duration": 0.0088,
      "velocity": 107,
      "chip": "ym2612"
    },
    {
      "channel": 1,
      "note": 31,
      "start": 15.6489,
      "duration": 0.0204,
      "velocity": 124,
      "chip": "ym2612"
    },
    {
      "channel": 2,
      "note": 82,
      "start": 15.6572,
      "duration": 0.0054,
      "velocity": 107,
      "chip": "ym2612"
    },
    {
      "channel": 3,
      "note": 82,
      "start": 15.779,
      "duration": 0.0091,
      "velocity": 107,
      "chip": "ym2612"
    },
    {
      "channel": 2,
      "note": 82,
      "start": 15.9098,
      "duration": 0.0284,
      "velocity": 107,
      "chip": "ym2612"
    },
    {
      "channel": 1,
      "note": 31,
      "start": 16.0244,
      "duration": 0.02,
      "velocity": 124,
      "chip": "ym2612"
    },
    {
      "channel": 2,
      "note": 82,
      "start": 16.118,
      "duration": 0.045,
      "velocity": 107,
      "chip": "ym2612"
    },
    {
      "channel": 1,
      "note": 31,
      "start": 16.2973,
      "duration": 0.0207,
      "velocity": 124,
      "chip": "ym2612"
    },
    {
      "channel": 3,
      "note": 86,
      "start": 16.3045,
      "duration": 0.0083,
      "velocity": 107,
      "chip": "ym2612"
    },
    {
      "channel": 2,
      "note": 86,
      "start": 16.4331,
      "duration": 0.0066,
      "velocity": 107,
      "chip": "ym2612"
    },
    {
      "channel": 3,
      "note": 33,
      "start": 16.4867,
      "duration": 0.0158,
      "velocity": 126,
      "chip": "ym2612"
    },
    {
      "channel": 1,
      "note": 86,
      "start": 16.5315,
      "duration": 0.0103,
      "velocity": 107,
      "chip": "ym2612"
    },
    {
      "channel": 4,
      "note": 60,
      "start": 16.5581,
      "duration": 0.4407,
      "velocity": 118,
      "chip": "ym2612"
    },
    {
      "channel": 2,
      "note": 31,
      "start": 16.5698,
      "duration": 0.028,
      "velocity": 124,
      "chip": "ym2612"
    },
    {
      "channel": 0,
      "note": 60,
      "start": 16.5774,
      "duration": 0.4366,
      "velocity": 118,
      "chip": "ym2612"
    },
    {
      "channel": 3,
      "note": 81,
      "start": 16.5802,
      "duration": 0.0121,
      "velocity": 107,
      "chip": "ym2612"
    },
    {
      "channel": 1,
      "note": 81,
      "start": 16.7301,
      "duration": 0.0082,
      "velocity": 107,
      "chip": "ym2612"
    },
    {
      "channel": 2,
      "note": 31,
      "start": 16.7729,
      "duration": 0.0273,
      "velocity": 124,
      "chip": "ym2612"
    },
    {
      "channel": 3,
      "note": 81,
      "start": 16.8254,
      "duration": 0.0087,
      "velocity": 107,
      "chip": "ym2612"
    },
    {
      "channel": 1,
      "note": 33,
      "start": 16.8756,
      "duration": 0.0162,
      "velocity": 126,
      "chip": "ym2612"
    },
    {
      "channel": 2,
      "note": 27,
      "start": 16.9565,
      "duration": 0.0196,
      "velocity": 124,
      "chip": "ym2612"
    },
    {
      "channel": 3,
      "note": 81,
      "start": 16.9666,
      "duration": 0.0043,
      "velocity": 107,
      "chip": "ym2612"
    },
    {
      "channel": 4,
      "note": 67,
      "start": 17.0182,
      "duration": 1.1883,
      "velocity": 118,
      "chip": "ym2612"
    },
    {
      "channel": 2,
      "note": 31,
      "start": 17.0383,
      "duration": 0.024,
      "velocity": 124,
      "chip": "ym2612"
    },
    {
      "channel": 0,
      "note": 67,
      "start": 17.0486,
      "duration": 1.1767,
      "velocity": 118,
      "chip": "ym2612"
    },
    {
      "channel": 1,
      "note": 79,
      "start": 17.0512,
      "duration": 0.0081,
      "velocity": 107,
      "chip": "ym2612"
    },
    {
      "channel": 3,
      "note": 79,
      "start": 17.1727,
      "duration": 0.0089,
      "velocity": 107,
      "chip": "ym2612"
    },
    {
      "channel": 1,
      "note": 33,
      "start": 17.2282,
      "duration": 0.0154,
      "velocity": 126,
      "chip": "ym2612"
    },
    {
      "channel": 2,
      "note": 79,
      "start": 17.2668,
      "duration": 0.0156,
      "velocity": 107,
      "chip": "ym2612"
    },
    {
      "channel": 3,
      "note": 31,
      "start": 17.3101,
      "duration": 0.0208,
      "velocity": 124,
      "chip": "ym2612"
    },
    {
      "channel": 1,
      "note": 80,
      "start": 17.3174,
      "duration": 0.0071,
      "velocity": 107,
      "chip": "ym2612"
    },
    {
      "channel": 2,
      "note": 80,
      "start": 17.4407,
      "duration": 0.0144,
      "velocity": 107,
      "chip": "ym2612"
    },
    {
      "channel": 1,
      "note": 80,
      "start": 17.5876,
      "duration": 0.0281,
      "velocity": 107,
      "chip": "ym2612"
    },
    {
      "channel": 3,
      "note": 31,
      "start": 17.7022,
      "duration": 0.0198,
      "velocity": 124,
      "chip": "ym2612"
    },
    {
      "channel": 1,
      "note": 80,
      "start": 17.8061,
      "duration": 0.0283,
      "velocity": 107,
      "chip": "ym2612"
    },
    {
      "channel": 3,
      "note": 31,
      "start": 17.9685,
      "duration": 0.0273,
      "velocity": 124,
      "chip": "ym2612"
    },
    {
      "channel": 2,
      "note": 81,
      "start": 17.9758,
      "duration": 0.0144,
      "velocity": 107,
      "chip": "ym2612"
    },
    {
      "channel": 1,
      "note": 81,
      "start": 18.1101,
      "duration": 0.009,
      "velocity": 107,
      "chip": "ym2612"
    },
    {
      "channel": 2,
      "note": 33,
      "start": 18.1532,
      "duration": 0.0205,
      "velocity": 126,
      "chip": "ym2612"
    },
    {
      "channel": 3,
      "note": 81,
      "start": 18.1983,
      "duration": 0.0081,
      "velocity": 107,
      "chip": "ym2612"
    },
    {
      "channel": 4,
      "note": 67,
      "start": 18.2298,
      "duration": 0.4571,
      "velocity": 118,
      "chip": "ym2612"
    },
    {
      "channel": 1,
      "note": 31,
      "start": 18.2422,
      "duration": 0.0217,
      "velocity": 124,
      "chip": "ym2612"
    },
    {
      "channel": 0,
      "note": 67,
      "start": 18.2489,
      "duration": 0.445,
      "velocity": 118,
      "chip": "ym2612"
    },
    {
      "channel": 2,
      "note": 84,
      "start": 18.2516,
      "duration": 0.0058,
      "velocity": 107,
      "chip": "ym2612"
    },
    {
      "channel": 3,
      "note": 84,
      "start": 18.3944,
      "duration": 0.0086,
      "velocity": 107,
      "chip": "ym2612"
    },
    {
      "channel": 1,
      "note": 31,
      "start": 18.4687,
      "duration": 0.0193,
      "velocity": 124,
      "chip": "ym2612"
    },
    {
      "channel": 2,
      "note": 84,
      "start": 18.522,
      "duration": 0.0089,
      "velocity": 107,
      "chip": "ym2612"
    },
    {
      "channel": 3,
      "note": 33,
      "start": 18.5642,
      "duration": 0.0206,
      "velocity": 126,
      "chip": "ym2612"
    },
    {
      "channel": 1,
      "note": 27,
      "start": 18.6505,
      "duration": 0.0153,
      "velocity": 124,
      "chip": "ym2612"
    },
    {
      "channel": 2,
      "note": 84,
      "start": 18.6598,
      "duration": 0.0041,
      "velocity": 107,
      "chip": "ym2612"
    },
    {
      "channel": 4,
      "note": 62,
      "start": 18.6981,
      "duration": 1.1613,
      "velocity": 118,
      "chip": "ym2612"
    },
    {
      "channel": 1,
      "note": 31,
      "start": 18.7066,
      "duration": 0.0249,
      "velocity": 124,
      "chip": "ym2612"
    },
    {
      "channel": 0,
      "note": 62,
      "start": 18.7173,
      "duration": 1.1548,
      "velocity": 118,
      "chip": "ym2612"
    },
    {
      "channel": 3,
      "note": 78,
      "start": 18.721,
      "duration": 0.007,
      "velocity": 107,
      "chip": "ym2612"
    },
    {
      "channel": 2,
      "note": 78,
      "start": 18.8374,
      "duration": 0.0134,
      "velocity": 107,
      "chip": "ym2612"
    },
    {
      "channel": 3,
      "note": 33,
      "start": 18.8849,
      "duration": 0.0216,
      "velocity": 126,
      "chip": "ym2612"
    },
    {
      "channel": 1,
      "note": 78,
      "start": 18.9306,
      "duration": 0.0086,
      "velocity": 107,
      "chip": "ym2612"
    },
    {
      "channel": 2,
      "note": 31,
      "start": 18.9749,
      "duration": 0.021,
      "velocity": 124,
      "chip": "ym2612"
    },
    {
      "channel": 3,
      "note": 79,
      "start": 18.9833,
      "duration": 0.0057,
      "velocity": 107,
      "chip": "ym2612"
    },
    {
      "channel": 1,
      "note": 79,
      "start": 19.1074,
      "duration": 0.0084,
      "velocity": 107,
      "chip": "ym2612"
    },
    {
      "channel": 3,
      "note": 79,
      "start": 19.2375,
      "duration": 0.0445,
      "velocity": 107,
      "chip": "ym2612"
    },
    {
      "channel": 2,
      "note": 31,
      "start": 19.352,
      "duration": 0.02,
      "velocity": 124,
      "chip": "ym2612"
    },
    {
      "channel": 3,
      "note": 79,
      "start": 19.4615,
      "duration": 0.0283,
      "velocity": 107,
      "chip": "ym2612"
    },
    {
      "channel": 2,
      "note": 31,
      "start": 19.623,
      "duration": 0.0213,
      "velocity": 124,
      "chip": "ym2612"
    },
    {
      "channel": 1,
      "note": 81,
      "start": 19.6301,
      "duration": 0.0083,
      "velocity": 107,
      "chip": "ym2612"
    },
    {
      "channel": 3,
      "note": 81,
      "start": 19.7598,
      "duration": 0.0126,
      "velocity": 107,
      "chip": "ym2612"
    },
    {
      "channel": 1,
      "note": 33,
      "start": 19.8055,
      "duration": 0.0152,
      "velocity": 126,
      "chip": "ym2612"
    },
    {
      "channel": 2,
      "note": 81,
      "start": 19.8508,
      "duration": 0.0088,
      "velocity": 107,
      "chip": "ym2612"
    },
    {
      "channel": 4,
      "note": 62,
      "start": 19.8754,
      "duration": 0.4519,
      "velocity": 118,
      "chip": "ym2612"
    },
    {
      "channel": 3,
      "note": 31,
      "start": 19.8898,
      "duration": 0.0268,
      "velocity": 124,
      "chip": "ym2612"
    },
    {
      "channel": 0,
      "note": 62,
      "start": 19.897,
      "duration": 0.4408,
      "velocity": 118,
      "chip": "ym2612"
    },
    {
      "channel": 1,
      "note": 84,
      "start": 19.8998,
      "duration": 0.0103,
      "velocity": 107,
      "chip": "ym2612"
    },
    {
      "channel": 2,
      "note": 84,
      "start": 20.0476,
      "duration": 0.0085,
      "velocity": 107,
      "chip": "ym2612"
    },
    {
      "channel": 3,
      "note": 31,
      "start": 20.1062,
      "duration": 0.0279,
      "velocity": 124,
      "chip": "ym2612"
    },
    {
      "channel": 1,
      "note": 84,
      "start": 20.1602,
      "duration": 0.0084,
      "velocity": 107,
      "chip": "ym2612"
    },
    {
      "channel": 2,
      "note": 33,
      "start": 20.21,
      "duration": 0.0151,
      "velocity": 126,
      "chip": "ym2612"
    },
    {
      "channel": 3,
      "note": 27,
      "start": 20.2899,
      "duration": 0.0189,
      "velocity": 124,
      "chip": "ym2612"
    },
    {
      "channel": 1,
      "note": 84,
      "start": 20.299,
      "duration": 0.0065,
      "velocity": 107,
      "chip": "ym2612"
    },
    {
      "channel": 4,
      "note": 65,
      "start": 20.3427,
      "duration": 1.0982,
      "velocity": 118,
      "chip": "ym2612"
    },
    {
      "channel": 3,
      "note": 31,
      "start": 20.3514,
      "duration": 0.0268,
      "velocity": 124,
      "chip": "ym2612"
    },
    {
      "channel": 0,
      "note": 65,
      "start": 20.365,
      "duration": 1.088,
      "velocity": 118,
      "chip": "ym2612"
    },
    {
      "channel": 2,
      "note": 82,
      "start": 20.3676,
      "duration": 0.0083,
      "velocity": 107,
      "chip": "ym2612"
    },
    {
      "channel": 1,
      "note": 82,
      "start": 20.4799,
      "duration": 0.0073,
      "velocity": 107,
      "chip": "ym2612"
    },
    {
      "channel": 2,
      "note": 33,
      "start": 20.5359,
      "duration": 0.0157,
      "velocity": 126,
      "chip": "ym2612"
    },
    {
      "channel": 3,
      "note": 82,
      "start": 20.5802,
      "duration": 0.0106,
      "velocity": 107,
      "chip": "ym2612"
    },
    {
      "channel": 1,
      "note": 31,
      "start": 20.6186,
      "duration": 0.027,
      "velocity": 124,
      "chip": "ym2612"
    },
    {
      "channel": 2,
      "note": 83,
      "start": 20.626,
      "duration": 0.0134,
      "velocity": 107,
      "chip": "ym2612"
    },
    {
      "channel": 3,
      "note": 83,
      "start": 20.751,
      "duration": 0.0147,
      "velocity": 107,
      "chip": "ym2612"
    },
    {
      "channel": 2,
      "note": 83,
      "start": 20.8991,
      "duration": 0.0284,
      "velocity": 107,
      "chip": "ym2612"
    },
    {
      "channel": 1,
      "note": 31,
      "start": 21.0137,
      "duration": 0.0201,
      "velocity": 124,
      "chip": "ym2612"
    },
    {
      "channel": 3,
      "note": 33,
      "start": 21.1091,
      "duration": 0.0224,
      "velocity": 126,
      "chip": "ym2612"
    },
    {
      "channel": 2,
      "note": 83,
      "start": 21.1129,
      "duration": 0.0057,
      "velocity": 107,
      "chip": "ym2612"
    },
    {
      "channel": 1,
      "note": 31,
      "start": 21.1952,
      "duration": 0.0215,
      "velocity": 124,
      "chip": "ym2612"
    },
    {
      "channel": 2,
      "note": 84,
      "start": 21.2029,
      "duration": 0.0073,
      "velocity": 107,
      "chip": "ym2612"
    },
    {
      "channel": 3,
      "note": 84,
      "start": 21.3315,
      "duration": 0.0071,
      "velocity": 107,
      "chip": "ym2612"
    },
    {
      "channel": 2,
      "note": 33,
      "start": 21.3867,
      "duration": 0.0157,
      "velocity": 126,
      "chip": "ym2612"
    },
    {
      "channel": 1,
      "note": 84,
      "start": 21.4261,
      "duration": 0.0146,
      "velocity": 107,
      "chip": "ym2612"
    },
    {
      "channel": 4,
      "note": 65,
      "start": 21.4574,
      "duration": 0.4468,
      "velocity": 118,
      "chip": "ym2612"
    },
    {
      "channel": 3,
      "note": 31,
      "start": 21.4695,
      "duration": 0.023,
      "velocity": 124,
      "chip": "ym2612"
    },
    {
      "channel": 0,
      "note": 65,
      "start": 21.4771,
      "duration": 0.4341,
      "velocity": 118,
      "chip": "ym2612"
    },
    {
      "channel": 2,
      "note": 87,
      "start": 21.4799,
      "duration": 0.0056,
      "velocity": 107,
      "chip": "ym2612"
    },
    {
      "channel": 1,
      "note": 87,
      "start": 21.6123,
      "duration": 0.0149,
      "velocity": 107,
      "chip": "ym2612"
    },
    {
      "channel": 3,
      "note": 31,
      "start": 21.6877,
      "duration": 0.0197,
      "velocity": 124,
      "chip": "ym2612"
    },
    {
      "channel": 2,
      "note": 87,
      "start": 21.7396,
      "duration": 0.0085,
      "velocity": 107,
      "chip": "ym2612"
    },
    {
      "channel": 1,
      "note": 33,
      "start": 21.7819,
      "duration": 0.0204,
      "velocity": 126,
      "chip": "ym2612"
    },
    {
      "channel": 3,
      "note": 27,
      "start": 21.8676,
      "duration": 0.0159,
      "velocity": 124,
      "chip": "ym2612"
    },
    {
      "channel": 2,
      "note": 87,
      "start": 21.8769,
      "duration": 0.0043,
      "velocity": 107,
      "chip": "ym2612"
    },
    {
      "channel": 4,
      "note": 60,
      "start": 21.916,
      "duration": 1.165,
      "velocity": 118,
      "chip": "ym2612"
    },
    {
      "channel": 3,
      "note": 31,
      "start": 21.9245,
      "duration": 0.0253,
      "velocity": 124,
      "chip": "ym2612"
    },
    {
      "channel": 0,
      "note": 60,
      "start": 21.9354,
      "duration": 1.1579,
      "velocity": 118,
      "chip": "ym2612"
    },
    {
      "channel": 1,
      "note": 86,
      "start": 21.9392,
      "duration": 0.007,
      "velocity": 107,
      "chip": "ym2612"
    },
    {
      "channel": 2,
      "note": 86,
      "start": 22.0631,
      "duration": 0.0069,
      "velocity": 107,
      "chip": "ym2612"
    },
    {
      "channel": 1,
      "note": 33,
      "start": 22.1041,
      "duration": 0.0205,
      "velocity": 126,
      "chip": "ym2612"
    },
    {
      "channel": 3,
      "note": 86,
      "start": 22.149,
      "duration": 0.0087,
      "velocity": 107,
      "chip": "ym2612"
    },
    {
      "channel": 2,
      "note": 31,
      "start": 22.1927,
      "duration": 0.0215,
      "velocity": 124,
      "chip": "ym2612"
    },
    {
      "channel": 1,
      "note": 87,
      "start": 22.2003,
      "duration": 0.0071,
      "velocity": 107,
      "chip": "ym2612"
    },
    {
      "channel": 3,
      "note": 87,
      "start": 22.3242,
      "duration": 0.0088,
      "velocity": 107,
      "chip": "ym2612"
    },
    {
      "channel": 1,
      "note": 87,
      "start": 22.472,
      "duration": 0.0281,
      "velocity": 107,
      "chip": "ym2612"
    },
    {
      "channel": 2,
      "note": 31,
      "start": 22.5702,
      "duration": 0.0266,
      "velocity": 124,
      "chip": "ym2612"
    },
    {
      "channel": 1,
      "note": 87,
      "start": 22.6796,
      "duration": 0.0283,
      "velocity": 107,
      "chip": "ym2612"
    },
    {
      "channel": 2,
      "note": 31,
      "start": 22.8412,
      "duration": 0.0272,
      "velocity": 124,
      "chip": "ym2612"
    },
    {
      "channel": 3,
      "note": 89,
      "start": 22.8484,
      "duration": 0.0088,
      "velocity": 107,
      "chip": "ym2612"
    },
    {
      "channel": 1,
      "note": 89,
      "start": 22.9777,
      "duration": 0.0133,
      "velocity": 107,
      "chip": "ym2612"
    },
    {
      "channel": 3,
      "note": 33,
      "start": 23.0264,
      "duration": 0.0212,
      "velocity": 126,
      "chip": "ym2612"
    },
    {
      "channel": 2,
      "note": 89,
      "start": 23.0724,
      "duration": 0.0087,
      "velocity": 107,
      "chip": "ym2612"
    },
    {
      "channel": 4,
      "note": 60,
      "start": 23.097,
      "duration": 0.4625,
      "velocity": 118,
      "chip": "ym2612"
    },
    {
      "channel": 1,
      "note": 31,
      "start": 23.1161,
      "duration": 0.0223,
      "velocity": 124,
      "chip": "ym2612"
    },
    {
      "channel": 0,
      "note": 60,
      "start": 23.1237,
      "duration": 0.4497,
      "velocity": 118,
      "chip": "ym2612"
    },
    {
      "channel": 3,
      "note": 92,
      "start": 23.1267,
      "duration": 0.0056,
      "velocity": 107,
      "chip": "ym2612"
    },
    {
      "channel": 2,
      "note": 92,
      "start": 23.2712,
      "duration": 0.0082,
      "velocity": 107,
      "chip": "ym2612"
    },
    {
      "channel": 1,
      "note": 31,
      "start": 23.3304,
      "duration": 0.0199,
      "velocity": 124,
      "chip": "ym2612"
    },
    {
      "channel": 3,
      "note": 92,
      "start": 23.3772,
      "duration": 0.0136,
      "velocity": 107,
      "chip": "ym2612"
    },
    {
      "channel": 2,
      "note": 33,
      "start": 23.4264,
      "duration": 0.0149,
      "velocity": 126,
      "chip": "ym2612"
    },
    {
      "channel": 1,
      "note": 27,
      "start": 23.5136,
      "duration": 0.0159,
      "velocity": 124,
      "chip": "ym2612"
    },
    {
      "channel": 3,
      "note": 92,
      "start": 23.5232,
      "duration": 0.0043,
      "velocity": 107,
      "chip": "ym2612"
    },
    {
      "channel": 1,
      "note": 31,
      "start": 23.5898,
      "duration": 0.0175,
      "velocity": 124,
      "chip": "ym2612"
    },
    {
      "channel": 2,
      "note": 33,
      "start": 23.7688,
      "duration": 0.0141,
      "velocity": 126,
      "chip": "ym2612"
    },
    {
      "channel": 1,
      "note": 27,
      "start": 24.681,
      "duration": 0.0175,
      "velocity": 124,
      "chip": "ym2612"
    },
    {
      "channel": 1,
      "note": 31,
      "start": 24.7623,
      "duration": 0.0201,
      "velocity": 124,
      "chip": "ym2612"
    },
    {
      "channel": 2,
      "note": 33,
      "start": 24.9483,
      "duration": 0.0157,
      "velocity": 126,
      "chip": "ym2612"
    },
    {
      "channel": 4,
      "note": 56,
      "start": 25.0171,
      "duration": 0.4411,
      "velocity": 118,
      "chip": "ym2612"
    },
    {
      "channel": 1,
      "note": 31,
      "start": 25.0296,
      "duration": 0.0254,
      "velocity": 124,
      "chip": "ym2612"
    },
    {
      "channel": 0,
      "note": 56,
      "start": 25.036,
      "duration": 0.4344,
      "velocity": 118,
      "chip": "ym2612"
    },
    {
      "channel": 2,
      "note": 33,
      "start": 25.134,
      "duration": 0.0157,
      "velocity": 126,
      "chip": "ym2612"
    },
    {
      "channel": 1,
      "note": 31,
      "start": 25.2144,
      "duration": 0.0257,
      "velocity": 124,
      "chip": "ym2612"
    },
    {
      "channel": 2,
      "note": 33,
      "start": 25.3204,
      "duration": 0.0154,
      "velocity": 126,
      "chip": "ym2612"
    },
    {
      "channel": 1,
      "note": 31,
      "start": 25.4006,
      "duration": 0.0198,
      "velocity": 124,
      "chip": "ym2612"
    },
    {
      "channel": 4,
      "note": 80,
      "start": 25.4747,
      "duration": 1.4505,
      "velocity": 118,
      "chip": "ym2612"
    },
    {
      "channel": 3,
      "note": 80,
      "start": 25.4783,
      "duration": 1.4468,
      "velocity": 118,
      "chip": "ym2612"
    },
    {
      "channel": 2,
      "note": 71,
      "start": 25.4811,
      "duration": 1.4442,
      "velocity": 118,
      "chip": "ym2612"
    },
    {
      "channel": 0,
      "note": 92,
      "start": 25.4967,
      "duration": 0.0031,
      "velocity": 118,
      "chip": "ym2612"
    },
    {
      "channel": 1,
      "note": 80,
      "start": 25.4992,
      "duration": 1.4591,
      "velocity": 118,
      "chip": "ym2612"
    },
    {
      "channel": 0,
      "note": 86,
      "start": 25.5021,
      "duration": 1.456,
      "velocity": 118,
      "chip": "ym2612"
    },
    {
      "channel": 3,
      "note": 59,
      "start": 27.146,
      "duration": 2.0422,
      "velocity": 118,
      "chip": "ym2612"
    },
    {
      "channel": 5,
      "note": 31,
      "start": 27.1795,
      "duration": 0.0018,
      "velocity": 124,
      "chip": "ym2612"
    },
    {
      "channel": 4,
      "note": 33,
      "start": 27.3632,
      "duration": 0.0193,
      "velocity": 126,
      "chip": "ym2612"
    },
    {
      "channel": 2,
      "note": 31,
      "start": 27.4488,
      "duration": 0.0189,
      "velocity": 124,
      "chip": "ym2612"
    },
    {
      "channel": 2,
      "note": 31,
      "start": 27.8264,
      "duration": 0.0261,
      "velocity": 124,
      "chip": "ym2612"
    },
    {
      "channel": 2,
      "note": 31,
      "start": 28.0965,
      "duration": 0.0261,
      "velocity": 124,
      "chip": "ym2612"
    },
    {
      "channel": 4,
      "note": 33,
      "start": 28.2765,
      "duration": 0.0156,
      "velocity": 126,
      "chip": "ym2612"
    },
    {
      "channel": 2,
      "note": 31,
      "start": 28.3633,
      "duration": 0.0194,
      "velocity": 124,
      "chip": "ym2612"
    },
    {
      "channel": 2,
      "note": 31,
      "start": 28.589,
      "duration": 0.02,
      "velocity": 124,
      "chip": "ym2612"
    },
    {
      "channel": 4,
      "note": 33,
      "start": 28.684,
      "duration": 0.0145,
      "velocity": 126,
      "chip": "ym2612"
    },
    {
      "channel": 2,
      "note": 27,
      "start": 28.763,
      "duration": 0.017,
      "velocity": 124,
      "chip": "ym2612"
    },
    {
      "channel": 2,
      "note": 31,
      "start": 28.8225,
      "duration": 0.0179,
      "velocity": 124,
      "chip": "ym2612"
    },
    {
      "channel": 4,
      "note": 33,
      "start": 28.9944,
      "duration": 0.0151,
      "velocity": 126,
      "chip": "ym2612"
    },
    {
      "channel": 2,
      "note": 31,
      "start": 29.0748,
      "duration": 0.0252,
      "velocity": 124,
      "chip": "ym2612"
    },
    {
      "channel": 2,
      "note": 31,
      "start": 29.4655,
      "duration": 0.02,
      "velocity": 124,
      "chip": "ym2612"
    },
    {
      "channel": 2,
      "note": 31,
      "start": 29.7366,
      "duration": 0.0193,
      "velocity": 124,
      "chip": "ym2612"
    },
    {
      "channel": 4,
      "note": 33,
      "start": 29.9211,
      "duration": 0.0155,
      "velocity": 126,
      "chip": "ym2612"
    },
    {
      "channel": 2,
      "note": 31,
      "start": 30.0022,
      "duration": 0.0271,
      "velocity": 124,
      "chip": "ym2612"
    },
    {
      "channel": 2,
      "note": 31,
      "start": 30.2206,
      "duration": 0.019,
      "velocity": 124,
      "chip": "ym2612"
    },
    {
      "channel": 4,
      "note": 33,
      "start": 30.3246,
      "duration": 0.0146,
      "velocity": 126,
      "chip": "ym2612"
    },
    {
      "channel": 2,
      "note": 27,
      "start": 30.4044,
      "duration": 0.0144,
      "velocity": 124,
      "chip": "ym2612"
    },
    {
      "channel": 2,
      "note": 31,
      "start": 30.4633,
      "duration": 0.0247,
      "velocity": 124,
      "chip": "ym2612"
    },
    {
      "channel": 4,
      "note": 33,
      "start": 30.6328,
      "duration": 0.0212,
      "velocity": 126,
      "chip": "ym2612"
    },
    {
      "channel": 2,
      "note": 31,
      "start": 30.7192,
      "duration": 0.0202,
      "velocity": 124,
      "chip": "ym2612"
    },
    {
      "channel": 2,
      "note": 31,
      "start": 31.0945,
      "duration": 0.0255,
      "velocity": 124,
      "chip": "ym2612"
    },
    {
      "channel": 4,
      "note": 33,
      "start": 31.2021,
      "duration": 0.0156,
      "velocity": 126,
      "chip": "ym2612"
    },
    {
      "channel": 2,
      "note": 31,
      "start": 31.2849,
      "duration": 0.0252,
      "velocity": 124,
      "chip": "ym2612"
    },
    {
      "channel": 4,
      "note": 33,
      "start": 31.4653,
      "duration": 0.0206,
      "velocity": 126,
      "chip": "ym2612"
    },
    {
      "channel": 2,
      "note": 31,
      "start": 31.5499,
      "duration": 0.0207,
      "velocity": 124,
      "chip": "ym2612"
    },
    {
      "channel": 2,
      "note": 31,
      "start": 31.7776,
      "duration": 0.0198,
      "velocity": 124,
      "chip": "ym2612"
    },
    {
      "channel": 4,
      "note": 33,
      "start": 31.8695,
      "duration": 0.0204,
      "velocity": 126,
      "chip": "ym2612"
    },
    {
      "channel": 2,
      "note": 27,
      "start": 31.9555,
      "duration": 0.0145,
      "velocity": 124,
      "chip": "ym2612"
    },
    {
      "channel": 2,
      "note": 31,
      "start": 32.0092,
      "duration": 0.0193,
      "velocity": 124,
      "chip": "ym2612"
    },
    {
      "channel": 4,
      "note": 33,
      "start": 32.185,
      "duration": 0.0141,
      "velocity": 126,
      "chip": "ym2612"
    },
    {
      "channel": 2,
      "note": 31,
      "start": 32.2713,
      "duration": 0.0188,
      "velocity": 124,
      "chip": "ym2612"
    },
    {
      "channel": 2,
      "note": 31,
      "start": 32.6481,
      "duration": 0.0197,
      "velocity": 124,
      "chip": "ym2612"
    },
    {
      "channel": 2,
      "note": 31,
      "start": 32.9205,
      "duration": 0.0208,
      "velocity": 124,
      "chip": "ym2612"
    },
    {
      "channel": 4,
      "note": 33,
      "start": 33.111,
      "duration": 0.0161,
      "velocity": 126,
      "chip": "ym2612"
    },
    {
      "channel": 2,
      "note": 31,
      "start": 33.1923,
      "duration": 0.0261,
      "velocity": 124,
      "chip": "ym2612"
    },
    {
      "channel": 2,
      "note": 31,
      "start": 33.3937,
      "duration": 0.0266,
      "velocity": 124,
      "chip": "ym2612"
    },
    {
      "channel": 4,
      "note": 33,
      "start": 33.4947,
      "duration": 0.016,
      "velocity": 126,
      "chip": "ym2612"
    },
    {
      "channel": 2,
      "note": 27,
      "start": 33.5768,
      "duration": 0.0167,
      "velocity": 124,
      "chip": "ym2612"
    },
    {
      "channel": 2,
      "note": 31,
      "start": 33.6573,
      "duration": 0.0285,
      "velocity": 124,
      "chip": "ym2612"
    },
    {
      "channel": 3,
      "note": 67,
      "start": 33.6678,
      "duration": 1.1798,
      "velocity": 118,
      "chip": "ym2612"
    },
    {
      "channel": 0,
      "note": 67,
      "start": 33.6714,
      "duration": 1.1761,
      "velocity": 118,
      "chip": "ym2612"
    },
    {
      "channel": 1,
      "note": 79,
      "start": 33.6742,
      "duration": 0.0095,
      "velocity": 107,
      "chip": "ym2612"
    },
    {
      "channel": 4,
      "note": 79,
      "start": 33.7934,
      "duration": 0.008,
      "velocity": 107,
      "chip": "ym2612"
    },
    {
      "channel": 1,
      "note": 33,
      "start": 33.8484,
      "duration": 0.0156,
      "velocity": 126,
      "chip": "ym2612"
    },
    {
      "channel": 2,
      "note": 79,
      "start": 33.8883,
      "duration": 0.0148,
      "velocity": 107,
      "chip": "ym2612"
    },
    {
      "channel": 4,
      "note": 31,
      "start": 33.9315,
      "duration": 0.0212,
      "velocity": 124,
      "chip": "ym2612"
    },
    {
      "channel": 1,
      "note": 79,
      "start": 33.9391,
      "duration": 0.0068,
      "velocity": 107,
      "chip": "ym2612"
    },
    {
      "channel": 2,
      "note": 79,
      "start": 34.0633,
      "duration": 0.0148,
      "velocity": 107,
      "chip": "ym2612"
    },
    {
      "channel": 1,
      "note": 79,
      "start": 34.2111,
      "duration": 0.0283,
      "velocity": 107,
      "chip": "ym2612"
    },
    {
      "channel": 4,
      "note": 31,
      "start": 34.3258,
      "duration": 0.0199,
      "velocity": 124,
      "chip": "ym2612"
    },
    {
      "channel": 1,
      "note": 79,
      "start": 34.4289,
      "duration": 0.0284,
      "velocity": 107,
      "chip": "ym2612"
    },
    {
      "channel": 4,
      "note": 31,
      "start": 34.5912,
      "duration": 0.0279,
      "velocity": 124,
      "chip": "ym2612"
    },
    {
      "channel": 2,
      "note": 80,
      "start": 34.5983,
      "duration": 0.0148,
      "velocity": 107,
      "chip": "ym2612"
    },
    {
      "channel": 1,
      "note": 80,
      "start": 34.7337,
      "duration": 0.0088,
      "velocity": 107,
      "chip": "ym2612"
    },
    {
      "channel": 2,
      "note": 33,
      "start": 34.7759,
      "duration": 0.021,
      "velocity": 126,
      "chip": "ym2612"
    },
    {
      "channel": 4,
      "note": 80,
      "start": 34.8201,
      "duration": 0.0088,
      "velocity": 107,
      "chip": "ym2612"
    },
    {
      "channel": 1,
      "note": 31,
      "start": 34.8637,
      "duration": 0.0232,
      "velocity": 124,
      "chip": "ym2612"
    },
    {
      "channel": 3,
      "note": 68,
      "start": 34.8712,
      "duration": 0.4433,
      "velocity": 118,
      "chip": "ym2612"
    },
    {
      "channel": 0,
      "note": 68,
      "start": 34.8738,
      "duration": 0.4406,
      "velocity": 118,
      "chip": "ym2612"
    },
    {
      "channel": 2,
      "note": 79,
      "start": 34.8767,
      "duration": 0.0071,
      "velocity": 107,
      "chip": "ym2612"
    },
    {
      "channel": 4,
      "note": 79,
      "start": 35.0167,
      "duration": 0.0094,
      "velocity": 107,
      "chip": "ym2612"
    },
    {
      "channel": 1,
      "note": 31,
      "start": 35.0924,
      "duration": 0.0195,
      "velocity": 124,
      "chip": "ym2612"
    },
    {
      "channel": 2,
      "note": 79,
      "start": 35.144,
      "duration": 0.0085,
      "velocity": 107,
      "chip": "ym2612"
    },
    {
      "channel": 4,
      "note": 33,
      "start": 35.1856,
      "duration": 0.0199,
      "velocity": 126,
      "chip": "ym2612"
    },
    {
      "channel": 1,
      "note": 27,
      "start": 35.2703,
      "duration": 0.0154,
      "velocity": 124,
      "chip": "ym2612"
    },
    {
      "channel": 2,
      "note": 79,
      "start": 35.2793,
      "duration": 0.0044,
      "velocity": 107,
      "chip": "ym2612"
    },
    {
      "channel": 1,
      "note": 31,
      "start": 35.3252,
      "duration": 0.0267,
      "velocity": 124,
      "chip": "ym2612"
    },
    {
      "channel": 3,
      "note": 66,
      "start": 35.3356,
      "duration": 1.159,
      "velocity": 118,
      "chip": "ym2612"
    },
    {
      "channel": 0,
      "note": 66,
      "start": 35.3383,
      "duration": 1.1562,
      "velocity": 118,
      "chip": "ym2612"
    },
    {
      "channel": 4,
      "note": 78,
      "start": 35.342,
      "duration": 0.0072,
      "velocity": 107,
      "chip": "ym2612"
    },
    {
      "channel": 2,
      "note": 78,
      "start": 35.4584,
      "duration": 0.0128,
      "velocity": 107,
      "chip": "ym2612"
    },
    {
      "channel": 4,
      "note": 33,
      "start": 35.5063,
      "duration": 0.0208,
      "velocity": 126,
      "chip": "ym2612"
    },
    {
      "channel": 1,
      "note": 78,
      "start": 35.5513,
      "duration": 0.0083,
      "velocity": 107,
      "chip": "ym2612"
    },
    {
      "channel": 2,
      "note": 31,
      "start": 35.5933,
      "duration": 0.0204,
      "velocity": 124,
      "chip": "ym2612"
    },
    {
      "channel": 4,
      "note": 79,
      "start": 35.6008,
      "duration": 0.0069,
      "velocity": 107,
      "chip": "ym2612"
    },
    {
      "channel": 1,
      "note": 79,
      "start": 35.724,
      "duration": 0.0085,
      "velocity": 107,
      "chip": "ym2612"
    },
    {
      "channel": 4,
      "note": 79,
      "start": 35.8563,
      "duration": 0.045,
      "velocity": 107,
      "chip": "ym2612"
    },
    {
      "channel": 2,
      "note": 31,
      "start": 35.9712,
      "duration": 0.0199,
      "velocity": 124,
      "chip": "ym2612"
    },
    {
      "channel": 4,
      "note": 79,
      "start": 36.0816,
      "duration": 0.0283,
      "velocity": 107,
      "chip": "ym2612"
    },
    {
      "channel": 2,
      "note": 31,
      "start": 36.2443,
      "duration": 0.0213,
      "velocity": 124,
      "chip": "ym2612"
    },
    {
      "channel": 1,
      "note": 81,
      "start": 36.2517,
      "duration": 0.0082,
      "velocity": 107,
      "chip": "ym2612"
    },
    {
      "channel": 4,
      "note": 81,
      "start": 36.3811,
      "duration": 0.0133,
      "velocity": 107,
      "chip": "ym2612"
    },
    {
      "channel": 1,
      "note": 33,
      "start": 36.4288,
      "duration": 0.0146,
      "velocity": 126,
      "chip": "ym2612"
    },
    {
      "channel": 2,
      "note": 81,
      "start": 36.473,
      "duration": 0.0089,
      "velocity": 107,
      "chip": "ym2612"
    },
    {
      "channel": 4,
      "note": 31,
      "start": 36.5093,
      "duration": 0.0288,
      "velocity": 124,
      "chip": "ym2612"
    },
    {
      "channel": 3,
      "note": 66,
      "start": 36.5164,
      "duration": 0.4382,
      "velocity": 118,
      "chip": "ym2612"
    },
    {
      "channel": 0,
      "note": 66,
      "start": 36.5193,
      "duration": 0.4353,
      "velocity": 118,
      "chip": "ym2612"
    },
    {
      "channel": 1,
      "note": 84,
      "start": 36.5219,
      "duration": 0.0099,
      "velocity": 107,
      "chip": "ym2612"
    },
    {
      "channel": 2,
      "note": 84,
      "start": 36.6681,
      "duration": 0.0084,
      "velocity": 107,
      "chip": "ym2612"
    },
    {
      "channel": 4,
      "note": 31,
      "start": 36.7272,
      "duration": 0.0268,
      "velocity": 124,
      "chip": "ym2612"
    },
    {
      "channel": 1,
      "note": 84,
      "start": 36.7796,
      "duration": 0.008,
      "velocity": 107,
      "chip": "ym2612"
    },
    {
      "channel": 2,
      "note": 33,
      "start": 36.8279,
      "duration": 0.0146,
      "velocity": 126,
      "chip": "ym2612"
    },
    {
      "channel": 4,
      "note": 27,
      "start": 36.9067,
      "duration": 0.0192,
      "velocity": 124,
      "chip": "ym2612"
    },
    {
      "channel": 1,
      "note": 84,
      "start": 36.9159,
      "duration": 0.0065,
      "velocity": 107,
      "chip": "ym2612"
    },
    {
      "channel": 4,
      "note": 31,
      "start": 36.9655,
      "duration": 0.0295,
      "velocity": 124,
      "chip": "ym2612"
    },
    {
      "channel": 3,
      "note": 65,
      "start": 36.9791,
      "duration": 1.0922,
      "velocity": 118,
      "chip": "ym2612"
    },
    {
      "channel": 0,
      "note": 65,
      "start": 36.9818,
      "duration": 1.0895,
      "velocity": 118,
      "chip": "ym2612"
    },
    {
      "channel": 2,
      "note": 82,
      "start": 36.9844,
      "duration": 0.0084,
      "velocity": 107,
      "chip": "ym2612"
    },
    {
      "channel": 1,
      "note": 82,
      "start": 37.0979,
      "duration": 0.0071,
      "velocity": 107,
      "chip": "ym2612"
    },
    {
      "channel": 2,
      "note": 33,
      "start": 37.153,
      "duration": 0.0159,
      "velocity": 126,
      "chip": "ym2612"
    },
    {
      "channel": 4,
      "note": 82,
      "start": 37.1974,
      "duration": 0.0101,
      "velocity": 107,
      "chip": "ym2612"
    },
    {
      "channel": 1,
      "note": 31,
      "start": 37.2358,
      "duration": 0.0269,
      "velocity": 124,
      "chip": "ym2612"
    },
    {
      "channel": 2,
      "note": 83,
      "start": 37.2434,
      "duration": 0.013,
      "velocity": 107,
      "chip": "ym2612"
    },
    {
      "channel": 4,
      "note": 83,
      "start": 37.3667,
      "duration": 0.015,
      "velocity": 107,
      "chip": "ym2612"
    },
    {
      "channel": 2,
      "note": 83,
      "start": 37.5158,
      "duration": 0.0284,
      "velocity": 107,
      "chip": "ym2612"
    },
    {
      "channel": 1,
      "note": 31,
      "start": 37.6304,
      "duration": 0.0199,
      "velocity": 124,
      "chip": "ym2612"
    },
    {
      "channel": 4,
      "note": 33,
      "start": 37.7254,
      "duration": 0.022,
      "velocity": 126,
      "chip": "ym2612"
    },
    {
      "channel": 2,
      "note": 83,
      "start": 37.7292,
      "duration": 0.0058,
      "velocity": 107,
      "chip": "ym2612"
    },
    {
      "channel": 1,
      "note": 31,
      "start": 37.8121,
      "duration": 0.0209,
      "velocity": 124,
      "chip": "ym2612"
    },
    {
      "channel": 2,
      "note": 84,
      "start": 37.8198,
      "duration": 0.0066,
      "velocity": 107,
      "chip": "ym2612"
    },
    {
      "channel": 4,
      "note": 84,
      "start": 37.9481,
      "duration": 0.0069,
      "velocity": 107,
      "chip": "ym2612"
    },
    {
      "channel": 2,
      "note": 33,
      "start": 38.0034,
      "duration": 0.0161,
      "velocity": 126,
      "chip": "ym2612"
    },
    {
      "channel": 1,
      "note": 84,
      "start": 38.043,
      "duration": 0.0157,
      "velocity": 107,
      "chip": "ym2612"
    },
    {
      "channel": 4,
      "note": 31,
      "start": 38.0863,
      "duration": 0.0224,
      "velocity": 124,
      "chip": "ym2612"
    },
    {
      "channel": 3,
      "note": 65,
      "start": 38.0936,
      "duration": 0.4371,
      "velocity": 118,
      "chip": "ym2612"
    },
    {
      "channel": 0,
      "note": 65,
      "start": 38.0961,
      "duration": 0.4344,
      "velocity": 118,
      "chip": "ym2612"
    },
    {
      "channel": 2,
      "note": 87,
      "start": 38.099,
      "duration": 0.0068,
      "velocity": 107,
      "chip": "ym2612"
    },
    {
      "channel": 1,
      "note": 87,
      "start": 38.2291,
      "duration": 0.0149,
      "velocity": 107,
      "chip": "ym2612"
    },
    {
      "channel": 4,
      "note": 31,
      "start": 38.3054,
      "duration": 0.02,
      "velocity": 124,
      "chip": "ym2612"
    },
    {
      "channel": 2,
      "note": 87,
      "start": 38.3578,
      "duration": 0.0087,
      "velocity": 107,
      "chip": "ym2612"
    },
    {
      "channel": 1,
      "note": 33,
      "start": 38.4004,
      "duration": 0.0204,
      "velocity": 126,
      "chip": "ym2612"
    },
    {
      "channel": 4,
      "note": 27,
      "start": 38.485,
      "duration": 0.0168,
      "velocity": 124,
      "chip": "ym2612"
    },
    {
      "channel": 2,
      "note": 87,
      "start": 38.4953,
      "duration": 0.0044,
      "velocity": 107,
      "chip": "ym2612"
    },
    {
      "channel": 4,
      "note": 31,
      "start": 38.5416,
      "duration": 0.0272,
      "velocity": 124,
      "chip": "ym2612"
    },
    {
      "channel": 3,
      "note": 60,
      "start": 38.5523,
      "duration": 1.1579,
      "velocity": 118,
      "chip": "ym2612"
    },
    {
      "channel": 0,
      "note": 60,
      "start": 38.555,
      "duration": 1.1551,
      "velocity": 118,
      "chip": "ym2612"
    },
    {
      "channel": 1,
      "note": 86,
      "start": 38.5588,
      "duration": 0.0069,
      "velocity": 107,
      "chip": "ym2612"
    },
    {
      "channel": 2,
      "note": 86,
      "start": 38.6777,
      "duration": 0.0085,
      "velocity": 107,
      "chip": "ym2612"
    },
    {
      "channel": 1,
      "note": 33,
      "start": 38.7205,
      "duration": 0.0201,
      "velocity": 126,
      "chip": "ym2612"
    },
    {
      "channel": 4,
      "note": 86,
      "start": 38.7642,
      "duration": 0.0087,
      "velocity": 107,
      "chip": "ym2612"
    },
    {
      "channel": 2,
      "note": 31,
      "start": 38.8077,
      "duration": 0.0209,
      "velocity": 124,
      "chip": "ym2612"
    },
    {
      "channel": 1,
      "note": 82,
      "start": 38.8152,
      "duration": 0.0067,
      "velocity": 107,
      "chip": "ym2612"
    },
    {
      "channel": 4,
      "note": 82,
      "start": 38.9395,
      "duration": 0.0087,
      "velocity": 107,
      "chip": "ym2612"
    },
    {
      "channel": 1,
      "note": 82,
      "start": 39.089,
      "duration": 0.0283,
      "velocity": 107,
      "chip": "ym2612"
    },
    {
      "channel": 2,
      "note": 31,
      "start": 39.1873,
      "duration": 0.0268,
      "velocity": 124,
      "chip": "ym2612"
    },
    {
      "channel": 1,
      "note": 82,
      "start": 39.2983,
      "duration": 0.028,
      "velocity": 107,
      "chip": "ym2612"
    },
    {
      "channel": 2,
      "note": 31,
      "start": 39.46,
      "duration": 0.0279,
      "velocity": 124,
      "chip": "ym2612"
    },
    {
      "channel": 4,
      "note": 86,
      "start": 39.4677,
      "duration": 0.0083,
      "velocity": 107,
      "chip": "ym2612"
    },
    {
      "channel": 1,
      "note": 86,
      "start": 39.5974,
      "duration": 0.0132,
      "velocity": 107,
      "chip": "ym2612"
    },
    {
      "channel": 4,
      "note": 33,
      "start": 39.6449,
      "duration": 0.0206,
      "velocity": 126,
      "chip": "ym2612"
    },
    {
      "channel": 2,
      "note": 86,
      "start": 39.6889,
      "duration": 0.0088,
      "velocity": 107,
      "chip": "ym2612"
    },
    {
      "channel": 1,
      "note": 31,
      "start": 39.7313,
      "duration": 0.0223,
      "velocity": 124,
      "chip": "ym2612"
    },
    {
      "channel": 3,
      "note": 60,
      "start": 39.739,
      "duration": 0.446,
      "velocity": 118,
      "chip": "ym2612"
    },
    {
      "channel": 0,
      "note": 60,
      "start": 39.7416,
      "duration": 0.4432,
      "velocity": 118,
      "chip": "ym2612"
    },
    {
      "channel": 4,
      "note": 81,
      "start": 39.7442,
      "duration": 0.0069,
      "velocity": 107,
      "chip": "ym2612"
    },
    {
      "channel": 2,
      "note": 81,
      "start": 39.8842,
      "duration": 0.0088,
      "velocity": 107,
      "chip": "ym2612"
    },
    {
      "channel": 1,
      "note": 31,
      "start": 39.9435,
      "duration": 0.0194,
      "velocity": 124,
      "chip": "ym2612"
    },
    {
      "channel": 4,
      "note": 81,
      "start": 39.9905,
      "duration": 0.0141,
      "velocity": 107,
      "chip": "ym2612"
    },
    {
      "channel": 2,
      "note": 33,
      "start": 40.0406,
      "duration": 0.0143,
      "velocity": 126,
      "chip": "ym2612"
    },
    {
      "channel": 1,
      "note": 27,
      "start": 40.1258,
      "duration": 0.0154,
      "velocity": 124,
      "chip": "ym2612"
    },
    {
      "channel": 4,
      "note": 81,
      "start": 40.1351,
      "duration": 0.0041,
      "velocity": 107,
      "chip": "ym2612"
    },
    {
      "channel": 1,
      "note": 31,
      "start": 40.2022,
      "duration": 0.027,
      "velocity": 124,
      "chip": "ym2612"
    },
    {
      "channel": 3,
      "note": 67,
      "start": 40.2116,
      "duration": 1.1783,
      "velocity": 118,
      "chip": "ym2612"
    },
    {
      "channel": 0,
      "note": 67,
      "start": 40.2144,
      "duration": 1.1753,
      "velocity": 118,
      "chip": "ym2612"
    },
    {
      "channel": 2,
      "note": 79,
      "start": 40.2182,
      "duration": 0.0081,
      "velocity": 107,
      "chip": "ym2612"
    },
    {
      "channel": 4,
      "note": 79,
      "start": 40.3376,
      "duration": 0.0064,
      "velocity": 107,
      "chip": "ym2612"
    },
    {
      "channel": 2,
      "note": 33,
      "start": 40.3846,
      "duration": 0.0153,
      "velocity": 126,
      "chip": "ym2612"
    },
    {
      "channel": 1,
      "note": 79,
      "start": 40.4296,
      "duration": 0.0088,
      "velocity": 107,
      "chip": "ym2612"
    },
    {
      "channel": 4,
      "note": 31,
      "start": 40.4665,
      "duration": 0.0265,
      "velocity": 124,
      "chip": "ym2612"
    },
    {
      "channel": 2,
      "note": 80,
      "start": 40.4737,
      "duration": 0.013,
      "velocity": 107,
      "chip": "ym2612"
    },
    {
      "channel": 1,
      "note": 80,
      "start": 40.6019,
      "duration": 0.0097,
      "velocity": 107,
      "chip": "ym2612"
    },
    {
      "channel": 2,
      "note": 80,
      "start": 40.7456,
      "duration": 0.0283,
      "velocity": 107,
      "chip": "ym2612"
    },
    {
      "channel": 4,
      "note": 31,
      "start": 40.8603,
      "duration": 0.0197,
      "velocity": 124,
      "chip": "ym2612"
    },
    {
      "channel": 2,
      "note": 80,
      "start": 40.954,
      "duration": 0.0449,
      "velocity": 107,
      "chip": "ym2612"
    },
    {
      "channel": 4,
      "note": 31,
      "start": 41.1326,
      "duration": 0.0219,
      "velocity": 124,
      "chip": "ym2612"
    },
    {
      "channel": 1,
      "note": 81,
      "start": 41.1398,
      "duration": 0.0093,
      "velocity": 107,
      "chip": "ym2612"
    },
    {
      "channel": 2,
      "note": 81,
      "start": 41.2689,
      "duration": 0.0069,
      "velocity": 107,
      "chip": "ym2612"
    },
    {
      "channel": 1,
      "note": 33,
      "start": 41.3228,
      "duration": 0.0159,
      "velocity": 126,
      "chip": "ym2612"
    },
    {
      "channel": 4,
      "note": 81,
      "start": 41.3624,
      "duration": 0.0154,
      "velocity": 107,
      "chip": "ym2612"
    },
    {
      "channel": 2,
      "note": 31,
      "start": 41.4053,
      "duration": 0.029,
      "velocity": 124,
      "chip": "ym2612"
    },
    {
      "channel": 3,
      "note": 67,
      "start": 41.4127,
      "duration": 0.4461,
      "velocity": 118,
      "chip": "ym2612"
    },
    {
      "channel": 0,
      "note": 67,
      "start": 41.4152,
      "duration": 0.4434,
      "velocity": 118,
      "chip": "ym2612"
    },
    {
      "channel": 1,
      "note": 84,
      "start": 41.4178,
      "duration": 0.0064,
      "velocity": 107,
      "chip": "ym2612"
    },
    {
      "channel": 4,
      "note": 84,
      "start": 41.5478,
      "duration": 0.0148,
      "velocity": 107,
      "chip": "ym2612"
    },
    {
      "channel": 2,
      "note": 31,
      "start": 41.6241,
      "duration": 0.0269,
      "velocity": 124,
      "chip": "ym2612"
    },
    {
      "channel": 1,
      "note": 84,
      "start": 41.6764,
      "duration": 0.0079,
      "velocity": 107,
      "chip": "ym2612"
    },
    {
      "channel": 4,
      "note": 33,
      "start": 41.731,
      "duration": 0.0159,
      "velocity": 126,
      "chip": "ym2612"
    },
    {
      "channel": 2,
      "note": 27,
      "start": 41.8135,
      "duration": 0.0169,
      "velocity": 124,
      "chip": "ym2612"
    },
    {
      "channel": 1,
      "note": 84,
      "start": 41.8237,
      "duration": 0.0043,
      "velocity": 107,
      "chip": "ym2612"
    },
    {
      "channel": 2,
      "note": 31,
      "start": 41.874,
      "duration": 0.0282,
      "velocity": 124,
      "chip": "ym2612"
    },
    {
      "channel": 3,
      "note": 62,
      "start": 41.8853,
      "duration": 1.161,
      "velocity": 118,
      "chip": "ym2612"
    },
    {
      "channel": 0,
      "note": 62,
      "start": 41.8879,
      "duration": 1.1583,
      "velocity": 118,
      "chip": "ym2612"
    },
    {
      "channel": 4,
      "note": 78,
      "start": 41.8919,
      "duration": 0.007,
      "velocity": 107,
      "chip": "ym2612"
    },
    {
      "channel": 1,
      "note": 78,
      "start": 42.0052,
      "duration": 0.0086,
      "velocity": 107,
      "chip": "ym2612"
    },
    {
      "channel": 4,
      "note": 33,
      "start": 42.0609,
      "duration": 0.0152,
      "velocity": 126,
      "chip": "ym2612"
    },
    {
      "channel": 2,
      "note": 78,
      "start": 42.1005,
      "duration": 0.0152,
      "velocity": 107,
      "chip": "ym2612"
    },
    {
      "channel": 1,
      "note": 31,
      "start": 42.143,
      "duration": 0.0209,
      "velocity": 124,
      "chip": "ym2612"
    },
    {
      "channel": 4,
      "note": 79,
      "start": 42.1504,
      "duration": 0.007,
      "velocity": 107,
      "chip": "ym2612"
    },
    {
      "channel": 2,
      "note": 79,
      "start": 42.2735,
      "duration": 0.0088,
      "velocity": 107,
      "chip": "ym2612"
    },
    {
      "channel": 4,
      "note": 79,
      "start": 42.4228,
      "duration": 0.0283,
      "velocity": 107,
      "chip": "ym2612"
    },
    {
      "channel": 1,
      "note": 31,
      "start": 42.5207,
      "duration": 0.0266,
      "velocity": 124,
      "chip": "ym2612"
    },
    {
      "channel": 4,
      "note": 79,
      "start": 42.6295,
      "duration": 0.0284,
      "velocity": 107,
      "chip": "ym2612"
    },
    {
      "channel": 1,
      "note": 31,
      "start": 42.7918,
      "duration": 0.028,
      "velocity": 124,
      "chip": "ym2612"
    },
    {
      "channel": 2,
      "note": 81,
      "start": 42.7993,
      "duration": 0.0139,
      "velocity": 107,
      "chip": "ym2612"
    },
    {
      "channel": 4,
      "note": 81,
      "start": 42.9344,
      "duration": 0.0085,
      "velocity": 107,
      "chip": "ym2612"
    },
    {
      "channel": 2,
      "note": 33,
      "start": 42.9761,
      "duration": 0.0203,
      "velocity": 126,
      "chip": "ym2612"
    },
    {
      "channel": 1,
      "note": 81,
      "start": 43.0194,
      "duration": 0.0086,
      "velocity": 107,
      "chip": "ym2612"
    },
    {
      "channel": 4,
      "note": 31,
      "start": 43.0625,
      "duration": 0.0228,
      "velocity": 124,
      "chip": "ym2612"
    },
    {
      "channel": 3,
      "note": 62,
      "start": 43.0701,
      "duration": 0.4472,
      "velocity": 118,
      "chip": "ym2612"
    },
    {
      "channel": 0,
      "note": 62,
      "start": 43.0727,
      "duration": 0.4445,
      "velocity": 118,
      "chip": "ym2612"
    },
    {
      "channel": 2,
      "note": 84,
      "start": 43.0754,
      "duration": 0.007,
      "velocity": 107,
      "chip": "ym2612"
    },
    {
      "channel": 1,
      "note": 84,
      "start": 43.2156,
      "duration": 0.0082,
      "velocity": 107,
      "chip": "ym2612"
    },
    {
      "channel": 4,
      "note": 31,
      "start": 43.2898,
      "duration": 0.0197,
      "velocity": 124,
      "chip": "ym2612"
    },
    {
      "channel": 2,
      "note": 84,
      "start": 43.3389,
      "duration": 0.0127,
      "velocity": 107,
      "chip": "ym2612"
    },
    {
      "channel": 1,
      "note": 33,
      "start": 43.3874,
      "duration": 0.0209,
      "velocity": 126,
      "chip": "ym2612"
    },
    {
      "channel": 4,
      "note": 27,
      "start": 43.4735,
      "duration": 0.0156,
      "velocity": 124,
      "chip": "ym2612"
    },
    {
      "channel": 2,
      "note": 84,
      "start": 43.4826,
      "duration": 0.0045,
      "velocity": 107,
      "chip": "ym2612"
    },
    {
      "channel": 4,
      "note": 31,
      "start": 43.5285,
      "duration": 0.0318,
      "velocity": 124,
      "chip": "ym2612"
    },
    {
      "channel": 3,
      "note": 65,
      "start": 43.5425,
      "duration": 1.0634,
      "velocity": 118,
      "chip": "ym2612"
    },
    {
      "channel": 0,
      "note": 65,
      "start": 43.5453,
      "duration": 1.0606,
      "velocity": 118,
      "chip": "ym2612"
    },
    {
      "channel": 1,
      "note": 82,
      "start": 43.5479,
      "duration": 0.0089,
      "velocity": 107,
      "chip": "ym2612"
    },
    {
      "channel": 2,
      "note": 82,
      "start": 43.661,
      "duration": 0.0135,
      "velocity": 107,
      "chip": "ym2612"
    },
    {
      "channel": 1,
      "note": 33,
      "start": 43.7105,
      "duration": 0.0136,
      "velocity": 126,
      "chip": "ym2612"
    },
    {
      "channel": 4,
      "note": 82,
      "start": 43.7534,
      "duration": 0.0085,
      "velocity": 107,
      "chip": "ym2612"
    },
    {
      "channel": 2,
      "note": 31,
      "start": 43.7962,
      "duration": 0.0208,
      "velocity": 124,
      "chip": "ym2612"
    },
    {
      "channel": 1,
      "note": 83,
      "start": 43.8037,
      "duration": 0.0066,
      "velocity": 107,
      "chip": "ym2612"
    },
    {
      "channel": 4,
      "note": 83,
      "start": 43.9272,
      "duration": 0.0085,
      "velocity": 107,
      "chip": "ym2612"
    },
    {
      "channel": 1,
      "note": 83,
      "start": 44.0594,
      "duration": 0.0446,
      "velocity": 107,
      "chip": "ym2612"
    },
    {
      "channel": 2,
      "note": 31,
      "start": 44.1743,
      "duration": 0.0196,
      "velocity": 124,
      "chip": "ym2612"
    },
    {
      "channel": 4,
      "note": 33,
      "start": 44.2666,
      "duration": 0.0226,
      "velocity": 126,
      "chip": "ym2612"
    },
    {
      "channel": 1,
      "note": 83,
      "start": 44.2701,
      "duration": 0.0124,
      "velocity": 107,
      "chip": "ym2612"
    },
    {
      "channel": 2,
      "note": 31,
      "start": 44.355,
      "duration": 0.0215,
      "velocity": 124,
      "chip": "ym2612"
    },
    {
      "channel": 1,
      "note": 84,
      "start": 44.363,
      "duration": 0.0069,
      "velocity": 107,
      "chip": "ym2612"
    },
    {
      "channel": 4,
      "note": 84,
      "start": 44.4919,
      "duration": 0.007,
      "velocity": 107,
      "chip": "ym2612"
    },
    {
      "channel": 1,
      "note": 33,
      "start": 44.5405,
      "duration": 0.0148,
      "velocity": 126,
      "chip": "ym2612"
    },
    {
      "channel": 2,
      "note": 84,
      "start": 44.5854,
      "duration": 0.0085,
      "velocity": 107,
      "chip": "ym2612"
    },
    {
      "channel": 4,
      "note": 31,
      "start": 44.6224,
      "duration": 0.0279,
      "velocity": 124,
      "chip": "ym2612"
    },
    {
      "channel": 3,
      "note": 65,
      "start": 44.6296,
      "duration": 0.4446,
      "velocity": 118,
      "chip": "ym2612"
    },
    {
      "channel": 0,
      "note": 65,
      "start": 44.6321,
      "duration": 0.4421,
      "velocity": 118,
      "chip": "ym2612"
    },
    {
      "channel": 1,
      "note": 87,
      "start": 44.6346,
      "duration": 0.0085,
      "velocity": 107,
      "chip": "ym2612"
    },
    {
      "channel": 2,
      "note": 87,
      "start": 44.7795,
      "duration": 0.0084,
      "velocity": 107,
      "chip": "ym2612"
    },
    {
      "channel": 4,
      "note": 31,
      "start": 44.8376,
      "duration": 0.0267,
      "velocity": 124,
      "chip": "ym2612"
    },
    {
      "channel": 1,
      "note": 87,
      "start": 44.8899,
      "duration": 0.0084,
      "velocity": 107,
      "chip": "ym2612"
    },
    {
      "channel": 2,
      "note": 33,
      "start": 44.9452,
      "duration": 0.0154,
      "velocity": 126,
      "chip": "ym2612"
    },
    {
      "channel": 4,
      "note": 27,
      "start": 45.0264,
      "duration": 0.0197,
      "velocity": 124,
      "chip": "ym2612"
    },
    {
      "channel": 1,
      "note": 87,
      "start": 45.0361,
      "duration": 0.0061,
      "velocity": 107,
      "chip": "ym2612"
    },
    {
      "channel": 4,
      "note": 31,
      "start": 45.0862,
      "duration": 0.0274,
      "velocity": 124,
      "chip": "ym2612"
    },
    {
      "channel": 3,
      "note": 60,
      "start": 45.0971,
      "duration": 1.1847,
      "velocity": 118,
      "chip": "ym2612"
    },
    {
      "channel": 0,
      "note": 60,
      "start": 45.1007,
      "duration": 1.181,
      "velocity": 118,
      "chip": "ym2612"
    },
    {
      "channel": 2,
      "note": 86,
      "start": 45.1034,
      "duration": 0.0069,
      "velocity": 107,
      "chip": "ym2612"
    },
    {
      "channel": 1,
      "note": 86,
      "start": 45.2175,
      "duration": 0.0083,
      "velocity": 107,
      "chip": "ym2612"
    },
    {
      "channel": 2,
      "note": 33,
      "start": 45.2721,
      "duration": 0.016,
      "velocity": 126,
      "chip": "ym2612"
    },
    {
      "channel": 4,
      "note": 86,
      "start": 45.3117,
      "duration": 0.0147,
      "velocity": 107,
      "chip": "ym2612"
    },
    {
      "channel": 1,
      "note": 31,
      "start": 45.3537,
      "duration": 0.0264,
      "velocity": 124,
      "chip": "ym2612"
    },
    {
      "channel": 2,
      "note": 87,
      "start": 45.3609,
      "duration": 0.0068,
      "velocity": 107,
      "chip": "ym2612"
    },
    {
      "channel": 4,
      "note": 87,
      "start": 45.4859,
      "duration": 0.0146,
      "velocity": 107,
      "chip": "ym2612"
    },
    {
      "channel": 2,
      "note": 87,
      "start": 45.6347,
      "duration": 0.0282,
      "velocity": 107,
      "chip": "ym2612"
    },
    {
      "channel": 1,
      "note": 31,
      "start": 45.7492,
      "duration": 0.0199,
      "velocity": 124,
      "chip": "ym2612"
    },
    {
      "channel": 2,
      "note": 87,
      "start": 45.8532,
      "duration": 0.028,
      "velocity": 107,
      "chip": "ym2612"
    },
    {
      "channel": 1,
      "note": 31,
      "start": 46.0316,
      "duration": 0.0217,
      "velocity": 124,
      "chip": "ym2612"
    },
    {
      "channel": 4,
      "note": 89,
      "start": 46.039,
      "duration": 0.0085,
      "velocity": 107,
      "chip": "ym2612"
    },
    {
      "channel": 2,
      "note": 89,
      "start": 46.1689,
      "duration": 0.0071,
      "velocity": 107,
      "chip": "ym2612"
    },
    {
      "channel": 4,
      "note": 33,
      "start": 46.211,
      "duration": 0.0206,
      "velocity": 126,
      "chip": "ym2612"
    },
    {
      "channel": 1,
      "note": 89,
      "start": 46.2554,
      "duration": 0.0083,
      "velocity": 107,
      "chip": "ym2612"
    },
    {
      "channel": 2,
      "note": 31,
      "start": 46.2979,
      "duration": 0.0233,
      "velocity": 124,
      "chip": "ym2612"
    },
    {
      "channel": 3,
      "note": 60,
      "start": 46.3056,
      "duration": 0.4423,
      "velocity": 118,
      "chip": "ym2612"
    },
    {
      "channel": 0,
      "note": 60,
      "start": 46.3086,
      "duration": 0.4393,
      "velocity": 118,
      "chip": "ym2612"
    },
    {
      "channel": 4,
      "note": 92,
      "start": 46.3123,
      "duration": 0.0058,
      "velocity": 107,
      "chip": "ym2612"
    },
    {
      "channel": 1,
      "note": 92,
      "start": 46.4514,
      "duration": 0.0085,
      "velocity": 107,
      "chip": "ym2612"
    },
    {
      "channel": 2,
      "note": 31,
      "start": 46.5103,
      "duration": 0.0198,
      "velocity": 124,
      "chip": "ym2612"
    },
    {
      "channel": 4,
      "note": 92,
      "start": 46.5624,
      "duration": 0.0087,
      "velocity": 107,
      "chip": "ym2612"
    },
    {
      "channel": 1,
      "note": 33,
      "start": 46.6044,
      "duration": 0.0201,
      "velocity": 126,
      "chip": "ym2612"
    },
    {
      "channel": 2,
      "note": 27,
      "start": 46.6897,
      "duration": 0.0165,
      "velocity": 124,
      "chip": "ym2612"
    },
    {
      "channel": 4,
      "note": 92,
      "start": 46.6998,
      "duration": 0.0042,
      "velocity": 107,
      "chip": "ym2612"
    },
    {
      "channel": 2,
      "note": 31,
      "start": 46.7643,
      "duration": 0.0245,
      "velocity": 124,
      "chip": "ym2612"
    },
    {
      "channel": 1,
      "note": 33,
      "start": 46.9424,
      "duration": 0.0207,
      "velocity": 126,
      "chip": "ym2612"
    }
  ]
}