{
  "track_name": "08 - Pop & Roll",
  "duration_sec": 60.009,
  "sample_rate": 44100,
  "note_count": 754,
  "unique_pitches": 34,
  "pitch_range": 62,
  "avg_note_duration": 0.4418,
  "reconstruction_stats": {
    "notes_reconstructed": 754,
    "keyon_events": 754,
    "keyoff_events": 753,
    "orphan_keyons": 1,
    "unique_pitches": 34,
    "pitch_range": 62,
    "avg_duration_sec": 0.4418
  },
  "metadata": {
    "source": "M\\Mirage 2\\08 - Pop & Roll.vgz"
  },
  "notes": [
    {
      "channel": 0,
      "note": 65,
      "start": 0.003,
      "duration": 0.3632,
      "velocity": 103,
      "chip": "ym2612"
    },
    {
      "channel": 2,
      "note": 58,
      "start": 0.0048,
      "duration": 0.5473,
      "velocity": 100,
      "chip": "ym2612"
    },
    {
      "channel": 3,
      "note": 79,
      "start": 0.0064,
      "duration": 0.1742,
      "velocity": 115,
      "chip": "ym2612"
    },
    {
      "channel": 4,
      "note": 98,
      "start": 0.008,
      "duration": 0.3583,
      "velocity": 102,
      "chip": "ym2612"
    },
    {
      "channel": 5,
      "note": 94,
      "start": 0.0096,
      "duration": 0.3568,
      "velocity": 102,
      "chip": "ym2612"
    },
    {
      "channel": 3,
      "note": 79,
      "start": 0.181,
      "duration": 0.1774,
      "velocity": 115,
      "chip": "ym2612"
    },
    {
      "channel": 1,
      "note": 65,
      "start": 0.2751,
      "duration": 0.3621,
      "velocity": 103,
      "chip": "ym2612"
    },
    {
      "channel": 0,
      "note": 70,
      "start": 0.3669,
      "duration": 0.1775,
      "velocity": 103,
      "chip": "ym2612"
    },
    {
      "channel": 3,
      "note": 79,
      "start": 0.3674,
      "duration": 0.177,
      "velocity": 115,
      "chip": "ym2612"
    },
    {
      "channel": 4,
      "note": 99,
      "start": 0.3679,
      "duration": 0.1766,
      "velocity": 102,
      "chip": "ym2612"
    },
    {
      "channel": 5,
      "note": 96,
      "start": 0.3684,
      "duration": 0.1762,
      "velocity": 102,
      "chip": "ym2612"
    },
    {
      "channel": 0,
      "note": 77,
      "start": 0.5527,
      "duration": 0.1773,
      "velocity": 103,
      "chip": "ym2612"
    },
    {
      "channel": 2,
      "note": 58,
      "start": 0.5531,
      "duration": 0.177,
      "velocity": 100,
      "chip": "ym2612"
    },
    {
      "channel": 3,
      "note": 79,
      "start": 0.5536,
      "duration": 0.1766,
      "velocity": 115,
      "chip": "ym2612"
    },
    {
      "channel": 4,
      "note": 101,
      "start": 0.5544,
      "duration": 0.1759,
      "velocity": 102,
      "chip": "ym2612"
    },
    {
      "channel": 5,
      "note": 98,
      "start": 0.555,
      "duration": 0.1754,
      "velocity": 102,
      "chip": "ym2612"
    },
    {
      "channel": 1,
      "note": 70,
      "start": 0.6452,
      "duration": 0.1776,
      "velocity": 103,
      "chip": "ym2612"
    },
    {
      "channel": 2,
      "note": 57,
      "start": 0.7381,
      "duration": 0.5492,
      "velocity": 100,
      "chip": "ym2612"
    },
    {
      "channel": 3,
      "note": 79,
      "start": 0.7394,
      "duration": 0.3621,
      "velocity": 112,
      "chip": "ym2612"
    },
    {
      "channel": 1,
      "note": 77,
      "start": 0.8311,
      "duration": 0.1784,
      "velocity": 103,
      "chip": "ym2612"
    },
    {
      "channel": 0,
      "note": 75,
      "start": 0.9241,
      "duration": 0.1775,
      "velocity": 103,
      "chip": "ym2612"
    },
    {
      "channel": 4,
      "note": 99,
      "start": 0.9246,
      "duration": 0.1771,
      "velocity": 102,
      "chip": "ym2612"
    },
    {
      "channel": 5,
      "note": 96,
      "start": 0.9252,
      "duration": 0.1766,
      "velocity": 102,
      "chip": "ym2612"
    },
    {
      "channel": 3,
      "note": 79,
      "start": 1.1106,
      "duration": 0.1768,
      "velocity": 115,
      "chip": "ym2612"
    },
    {
      "channel": 1,
      "note": 75,
      "start": 1.2026,
      "duration": 0.1776,
      "velocity": 103,
      "chip": "ym2612"
    },
    {
      "channel": 0,
      "note": 74,
      "start": 1.2954,
      "duration": 0.1777,
      "velocity": 103,
      "chip": "ym2612"
    },
    {
      "channel": 2,
      "note": 55,
      "start": 1.2959,
      "duration": 0.3631,
      "velocity": 100,
      "chip": "ym2612"
    },
    {
      "channel": 3,
      "note": 79,
      "start": 1.2963,
      "duration": 0.1768,
      "velocity": 115,
      "chip": "ym2612"
    },
    {
      "channel": 4,
      "note": 98,
      "start": 1.2969,
      "duration": 0.1765,
      "velocity": 102,
      "chip": "ym2612"
    },
    {
      "channel": 5,
      "note": 94,
      "start": 1.2974,
      "duration": 0.1761,
      "velocity": 102,
      "chip": "ym2612"
    },
    {
      "channel": 3,
      "note": 79,
      "start": 1.482,
      "duration": 0.1768,
      "velocity": 115,
      "chip": "ym2612"
    },
    {
      "channel": 1,
      "note": 74,
      "start": 1.5746,
      "duration": 0.1772,
      "velocity": 103,
      "chip": "ym2612"
    },
    {
      "channel": 0,
      "note": 72,
      "start": 1.6669,
      "duration": 0.1776,
      "velocity": 103,
      "chip": "ym2612"
    },
    {
      "channel": 2,
      "note": 55,
      "start": 1.6674,
      "duration": 0.3632,
      "velocity": 100,
      "chip": "ym2612"
    },
    {
      "channel": 3,
      "note": 79,
      "start": 1.6679,
      "duration": 0.1768,
      "velocity": 115,
      "chip": "ym2612"
    },
    {
      "channel": 4,
      "note": 96,
      "start": 1.6684,
      "duration": 0.1763,
      "velocity": 102,
      "chip": "ym2612"
    },
    {
      "channel": 5,
      "note": 93,
      "start": 1.6689,
      "duration": 0.1759,
      "velocity": 102,
      "chip": "ym2612"
    },
    {
      "channel": 3,
      "note": 79,
      "start": 1.8528,
      "duration": 0.1776,
      "velocity": 115,
      "chip": "ym2612"
    },
    {
      "channel": 1,
      "note": 72,
      "start": 1.9456,
      "duration": 0.1777,
      "velocity": 103,
      "chip": "ym2612"
    },
    {
      "channel": 0,
      "note": 70,
      "start": 2.0384,
      "duration": 0.1778,
      "velocity": 103,
      "chip": "ym2612"
    },
    {
      "channel": 2,
      "note": 55,
      "start": 2.0389,
      "duration": 0.1774,
      "velocity": 100,
      "chip": "ym2612"
    },
    {
      "channel": 3,
      "note": 79,
      "start": 2.0394,
      "duration": 0.1771,
      "velocity": 115,
      "chip": "ym2612"
    },
    {
      "channel": 4,
      "note": 94,
      "start": 2.0399,
      "duration": 0.1766,
      "velocity": 102,
      "chip": "ym2612"
    },
    {
      "channel": 5,
      "note": 91,
      "start": 2.0404,
      "duration": 0.1762,
      "velocity": 102,
      "chip": "ym2612"
    },
    {
      "channel": 2,
      "note": 53,
      "start": 2.2244,
      "duration": 0.7348,
      "velocity": 100,
      "chip": "ym2612"
    },
    {
      "channel": 3,
      "note": 79,
      "start": 2.2258,
      "duration": 0.3619,
      "velocity": 112,
      "chip": "ym2612"
    },
    {
      "channel": 1,
      "note": 70,
      "start": 2.3171,
      "duration": 0.1776,
      "velocity": 103,
      "chip": "ym2612"
    },
    {
      "channel": 0,
      "note": 69,
      "start": 2.4101,
      "duration": 0.1777,
      "velocity": 103,
      "chip": "ym2612"
    },
    {
      "channel": 4,
      "note": 93,
      "start": 2.4106,
      "duration": 0.1773,
      "velocity": 102,
      "chip": "ym2612"
    },
    {
      "channel": 5,
      "note": 89,
      "start": 2.4111,
      "duration": 0.1769,
      "velocity": 102,
      "chip": "ym2612"
    },
    {
      "channel": 3,
      "note": 79,
      "start": 2.5966,
      "duration": 0.1769,
      "velocity": 115,
      "chip": "ym2612"
    },
    {
      "channel": 1,
      "note": 69,
      "start": 2.6887,
      "duration": 0.1776,
      "velocity": 103,
      "chip": "ym2612"
    },
    {
      "channel": 0,
      "note": 67,
      "start": 2.7815,
      "duration": 3.1499,
      "velocity": 103,
      "chip": "ym2612"
    },
    {
      "channel": 3,
      "note": 79,
      "start": 2.782,
      "duration": 0.1774,
      "velocity": 115,
      "chip": "ym2612"
    },
    {
      "channel": 4,
      "note": 91,
      "start": 2.7826,
      "duration": 2.4058,
      "velocity": 102,
      "chip": "ym2612"
    },
    {
      "channel": 5,
      "note": 87,
      "start": 2.7831,
      "duration": 2.4054,
      "velocity": 102,
      "chip": "ym2612"
    },
    {
      "channel": 2,
      "note": 51,
      "start": 2.9674,
      "duration": 2.9639,
      "velocity": 100,
      "chip": "ym2612"
    },
    {
      "channel": 3,
      "note": 79,
      "start": 2.9687,
      "duration": 0.1761,
      "velocity": 115,
      "chip": "ym2612"
    },
    {
      "channel": 1,
      "note": 67,
      "start": 3.0601,
      "duration": 3.1498,
      "velocity": 103,
      "chip": "ym2612"
    },
    {
      "channel": 3,
      "note": 79,
      "start": 3.1531,
      "duration": 0.1777,
      "velocity": 115,
      "chip": "ym2612"
    },
    {
      "channel": 3,
      "note": 79,
      "start": 3.3388,
      "duration": 0.1776,
      "velocity": 115,
      "chip": "ym2612"
    },
    {
      "channel": 3,
      "note": 79,
      "start": 3.5246,
      "duration": 0.1776,
      "velocity": 115,
      "chip": "ym2612"
    },
    {
      "channel": 3,
      "note": 79,
      "start": 3.7113,
      "duration": 0.3624,
      "velocity": 112,
      "chip": "ym2612"
    },
    {
      "channel": 3,
      "note": 79,
      "start": 4.0827,
      "duration": 0.1768,
      "velocity": 115,
      "chip": "ym2612"
    },
    {
      "channel": 3,
      "note": 79,
      "start": 4.2676,
      "duration": 0.1776,
      "velocity": 115,
      "chip": "ym2612"
    },
    {
      "channel": 3,
      "note": 79,
      "start": 4.4546,
      "duration": 0.1765,
      "velocity": 115,
      "chip": "ym2612"
    },
    {
      "channel": 3,
      "note": 79,
      "start": 4.6391,
      "duration": 0.1776,
      "velocity": 115,
      "chip": "ym2612"
    },
    {
      "channel": 3,
      "note": 79,
      "start": 4.8249,
      "duration": 0.1776,
      "velocity": 115,
      "chip": "ym2612"
    },
    {
      "channel": 3,
      "note": 79,
      "start": 5.0107,
      "duration": 0.1775,
      "velocity": 115,
      "chip": "ym2612"
    },
    {
      "channel": 3,
      "note": 79,
      "start": 5.1972,
      "duration": 0.3625,
      "velocity": 112,
      "chip": "ym2612"
    },
    {
      "channel": 4,
      "note": 93,
      "start": 5.1977,
      "duration": 0.7338,
      "velocity": 102,
      "chip": "ym2612"
    },
    {
      "channel": 5,
      "note": 89,
      "start": 5.1982,
      "duration": 0.7334,
      "velocity": 102,
      "chip": "ym2612"
    },
    {
      "channel": 3,
      "note": 79,
      "start": 5.5688,
      "duration": 0.1767,
      "velocity": 115,
      "chip": "ym2612"
    },
    {
      "channel": 3,
      "note": 79,
      "start": 5.7537,
      "duration": 0.1778,
      "velocity": 115,
      "chip": "ym2612"
    },
    {
      "channel": 0,
      "note": 65,
      "start": 5.9394,
      "duration": 0.3634,
      "velocity": 103,
      "chip": "ym2612"
    },
    {
      "channel": 2,
      "note": 58,
      "start": 5.9398,
      "duration": 0.5488,
      "velocity": 100,
      "chip": "ym2612"
    },
    {
      "channel": 3,
      "note": 79,
      "start": 5.9412,
      "duration": 0.1758,
      "velocity": 115,
      "chip": "ym2612"
    },
    {
      "channel": 4,
      "note": 98,
      "start": 5.9417,
      "duration": 0.3613,
      "velocity": 102,
      "chip": "ym2612"
    },
    {
      "channel": 5,
      "note": 94,
      "start": 5.9422,
      "duration": 0.3609,
      "velocity": 102,
      "chip": "ym2612"
    },
    {
      "channel": 3,
      "note": 79,
      "start": 6.1252,
      "duration": 0.1777,
      "velocity": 115,
      "chip": "ym2612"
    },
    {
      "channel": 1,
      "note": 65,
      "start": 6.218,
      "duration": 0.3634,
      "velocity": 103,
      "chip": "ym2612"
    },
    {
      "channel": 0,
      "note": 70,
      "start": 6.311,
      "duration": 0.1775,
      "velocity": 103,
      "chip": "ym2612"
    },
    {
      "channel": 3,
      "note": 79,
      "start": 6.3115,
      "duration": 0.1772,
      "velocity": 115,
      "chip": "ym2612"
    },
    {
      "channel": 4,
      "note": 99,
      "start": 6.312,
      "duration": 0.1768,
      "velocity": 102,
      "chip": "ym2612"
    },
    {
      "channel": 5,
      "note": 96,
      "start": 6.3126,
      "duration": 0.1764,
      "velocity": 102,
      "chip": "ym2612"
    },
    {
      "channel": 0,
      "note": 77,
      "start": 6.4967,
      "duration": 0.1777,
      "velocity": 103,
      "chip": "ym2612"
    },
    {
      "channel": 2,
      "note": 58,
      "start": 6.4971,
      "duration": 0.1773,
      "velocity": 100,
      "chip": "ym2612"
    },
    {
      "channel": 3,
      "note": 79,
      "start": 6.4976,
      "duration": 0.1769,
      "velocity": 115,
      "chip": "ym2612"
    },
    {
      "channel": 4,
      "note": 101,
      "start": 6.4981,
      "duration": 0.1765,
      "velocity": 102,
      "chip": "ym2612"
    },
    {
      "channel": 5,
      "note": 98,
      "start": 6.4987,
      "duration": 0.1761,
      "velocity": 102,
      "chip": "ym2612"
    },
    {
      "channel": 1,
      "note": 70,
      "start": 6.5897,
      "duration": 0.1775,
      "velocity": 103,
      "chip": "ym2612"
    },
    {
      "channel": 2,
      "note": 57,
      "start": 6.6825,
      "duration": 0.5491,
      "velocity": 100,
      "chip": "ym2612"
    },
    {
      "channel": 3,
      "note": 79,
      "start": 6.6842,
      "duration": 0.3616,
      "velocity": 112,
      "chip": "ym2612"
    },
    {
      "channel": 1,
      "note": 77,
      "start": 6.7756,
      "duration": 0.1775,
      "velocity": 103,
      "chip": "ym2612"
    },
    {
      "channel": 0,
      "note": 75,
      "start": 6.8682,
      "duration": 0.1778,
      "velocity": 103,
      "chip": "ym2612"
    },
    {
      "channel": 4,
      "note": 99,
      "start": 6.8687,
      "duration": 0.1773,
      "velocity": 102,
      "chip": "ym2612"
    },
    {
      "channel": 5,
      "note": 96,
      "start": 6.8693,
      "duration": 0.1769,
      "velocity": 102,
      "chip": "ym2612"
    },
    {
      "channel": 3,
      "note": 79,
      "start": 7.0552,
      "duration": 0.1765,
      "velocity": 115,
      "chip": "ym2612"
    },
    {
      "channel": 1,
      "note": 75,
      "start": 7.1468,
      "duration": 0.1777,
      "velocity": 103,
      "chip": "ym2612"
    },
    {
      "channel": 0,
      "note": 74,
      "start": 7.2397,
      "duration": 0.1776,
      "velocity": 103,
      "chip": "ym2612"
    },
    {
      "channel": 2,
      "note": 55,
      "start": 7.2402,
      "duration": 0.363,
      "velocity": 100,
      "chip": "ym2612"
    },
    {
      "channel": 3,
      "note": 79,
      "start": 7.2407,
      "duration": 0.1768,
      "velocity": 115,
      "chip": "ym2612"
    },
    {
      "channel": 4,
      "note": 98,
      "start": 7.2412,
      "duration": 0.1764,
      "velocity": 102,
      "chip": "ym2612"
    },
    {
      "channel": 5,
      "note": 94,
      "start": 7.2417,
      "duration": 0.176,
      "velocity": 102,
      "chip": "ym2612"
    },
    {
      "channel": 3,
      "note": 79,
      "start": 7.4263,
      "duration": 0.1768,
      "velocity": 115,
      "chip": "ym2612"
    },
    {
      "channel": 1,
      "note": 74,
      "start": 7.5185,
      "duration": 0.1775,
      "velocity": 103,
      "chip": "ym2612"
    },
    {
      "channel": 0,
      "note": 72,
      "start": 7.6113,
      "duration": 0.1776,
      "velocity": 103,
      "chip": "ym2612"
    },
    {
      "channel": 2,
      "note": 55,
      "start": 7.6118,
      "duration": 0.3633,
      "velocity": 100,
      "chip": "ym2612"
    },
    {
      "channel": 3,
      "note": 79,
      "start": 7.6123,
      "duration": 0.1767,
      "velocity": 115,
      "chip": "ym2612"
    },
    {
      "channel": 4,
      "note": 96,
      "start": 7.6128,
      "duration": 0.1763,
      "velocity": 102,
      "chip": "ym2612"
    },
    {
      "channel": 5,
      "note": 93,
      "start": 7.6133,
      "duration": 0.1759,
      "velocity": 102,
      "chip": "ym2612"
    },
    {
      "channel": 3,
      "note": 79,
      "start": 7.797,
      "duration": 0.178,
      "velocity": 115,
      "chip": "ym2612"
    },
    {
      "channel": 1,
      "note": 72,
      "start": 7.8899,
      "duration": 0.1776,
      "velocity": 103,
      "chip": "ym2612"
    },
    {
      "channel": 0,
      "note": 70,
      "start": 7.9828,
      "duration": 0.1776,
      "velocity": 103,
      "chip": "ym2612"
    },
    {
      "channel": 2,
      "note": 55,
      "start": 7.9832,
      "duration": 0.1773,
      "velocity": 100,
      "chip": "ym2612"
    },
    {
      "channel": 3,
      "note": 79,
      "start": 7.9839,
      "duration": 0.1768,
      "velocity": 115,
      "chip": "ym2612"
    },
    {
      "channel": 4,
      "note": 94,
      "start": 7.9846,
      "duration": 0.1761,
      "velocity": 102,
      "chip": "ym2612"
    },
    {
      "channel": 5,
      "note": 91,
      "start": 7.9851,
      "duration": 0.1757,
      "velocity": 102,
      "chip": "ym2612"
    },
    {
      "channel": 2,
      "note": 53,
      "start": 8.1685,
      "duration": 0.7349,
      "velocity": 100,
      "chip": "ym2612"
    },
    {
      "channel": 3,
      "note": 79,
      "start": 8.1698,
      "duration": 0.3621,
      "velocity": 112,
      "chip": "ym2612"
    },
    {
      "channel": 1,
      "note": 70,
      "start": 8.2615,
      "duration": 0.1776,
      "velocity": 103,
      "chip": "ym2612"
    },
    {
      "channel": 0,
      "note": 69,
      "start": 8.3546,
      "duration": 0.1774,
      "velocity": 103,
      "chip": "ym2612"
    },
    {
      "channel": 4,
      "note": 93,
      "start": 8.3551,
      "duration": 0.177,
      "velocity": 102,
      "chip": "ym2612"
    },
    {
      "channel": 5,
      "note": 89,
      "start": 8.3556,
      "duration": 0.1766,
      "velocity": 102,
      "chip": "ym2612"
    },
    {
      "channel": 3,
      "note": 79,
      "start": 8.5409,
      "duration": 0.1768,
      "velocity": 115,
      "chip": "ym2612"
    },
    {
      "channel": 1,
      "note": 69,
      "start": 8.6329,
      "duration": 0.1777,
      "velocity": 103,
      "chip": "ym2612"
    },
    {
      "channel": 0,
      "note": 67,
      "start": 8.7258,
      "duration": 3.15,
      "velocity": 103,
      "chip": "ym2612"
    },
    {
      "channel": 3,
      "note": 79,
      "start": 8.7263,
      "duration": 0.1774,
      "velocity": 115,
      "chip": "ym2612"
    },
    {
      "channel": 4,
      "note": 91,
      "start": 8.7268,
      "duration": 3.1494,
      "velocity": 102,
      "chip": "ym2612"
    },
    {
      "channel": 5,
      "note": 87,
      "start": 8.7273,
      "duration": 3.149,
      "velocity": 102,
      "chip": "ym2612"
    },
    {
      "channel": 2,
      "note": 51,
      "start": 8.9117,
      "duration": 2.964,
      "velocity": 100,
      "chip": "ym2612"
    },
    {
      "channel": 3,
      "note": 79,
      "start": 8.913,
      "duration": 0.1762,
      "velocity": 115,
      "chip": "ym2612"
    },
    {
      "channel": 1,
      "note": 67,
      "start": 9.0047,
      "duration": 2.8714,
      "velocity": 103,
      "chip": "ym2612"
    },
    {
      "channel": 3,
      "note": 79,
      "start": 9.0973,
      "duration": 0.1777,
      "velocity": 115,
      "chip": "ym2612"
    },
    {
      "channel": 3,
      "note": 79,
      "start": 9.2832,
      "duration": 0.1777,
      "velocity": 115,
      "chip": "ym2612"
    },
    {
      "channel": 3,
      "note": 79,
      "start": 9.4689,
      "duration": 0.1776,
      "velocity": 115,
      "chip": "ym2612"
    },
    {
      "channel": 3,
      "note": 79,
      "start": 9.6556,
      "duration": 0.3624,
      "velocity": 112,
      "chip": "ym2612"
    },
    {
      "channel": 3,
      "note": 79,
      "start": 10.027,
      "duration": 0.1768,
      "velocity": 115,
      "chip": "ym2612"
    },
    {
      "channel": 3,
      "note": 79,
      "start": 10.212,
      "duration": 0.1776,
      "velocity": 115,
      "chip": "ym2612"
    },
    {
      "channel": 3,
      "note": 79,
      "start": 10.3985,
      "duration": 0.1769,
      "velocity": 115,
      "chip": "ym2612"
    },
    {
      "channel": 3,
      "note": 79,
      "start": 10.5834,
      "duration": 0.1777,
      "velocity": 115,
      "chip": "ym2612"
    },
    {
      "channel": 3,
      "note": 79,
      "start": 10.7693,
      "duration": 0.1776,
      "velocity": 115,
      "chip": "ym2612"
    },
    {
      "channel": 3,
      "note": 79,
      "start": 10.955,
      "duration": 0.1777,
      "velocity": 115,
      "chip": "ym2612"
    },
    {
      "channel": 3,
      "note": 79,
      "start": 11.1415,
      "duration": 0.3627,
      "velocity": 112,
      "chip": "ym2612"
    },
    {
      "channel": 3,
      "note": 79,
      "start": 11.5132,
      "duration": 0.1767,
      "velocity": 115,
      "chip": "ym2612"
    },
    {
      "channel": 3,
      "note": 79,
      "start": 11.698,
      "duration": 0.1779,
      "velocity": 115,
      "chip": "ym2612"
    },
    {
      "channel": 0,
      "note": 74,
      "start": 11.8838,
      "duration": 0.5495,
      "velocity": 103,
      "chip": "ym2612"
    },
    {
      "channel": 2,
      "note": 55,
      "start": 11.8845,
      "duration": 0.5489,
      "velocity": 100,
      "chip": "ym2612"
    },
    {
      "channel": 3,
      "note": 79,
      "start": 11.886,
      "duration": 0.1759,
      "velocity": 115,
      "chip": "ym2612"
    },
    {
      "channel": 3,
      "note": 79,
      "start": 12.0699,
      "duration": 0.1776,
      "velocity": 115,
      "chip": "ym2612"
    },
    {
      "channel": 1,
      "note": 74,
      "start": 12.1627,
      "duration": 0.55,
      "velocity": 103,
      "chip": "ym2612"
    },
    {
      "channel": 3,
      "note": 79,
      "start": 12.2558,
      "duration": 0.1778,
      "velocity": 115,
      "chip": "ym2612"
    },
    {
      "channel": 4,
      "note": 86,
      "start": 12.2563,
      "duration": 0.3629,
      "velocity": 102,
      "chip": "ym2612"
    },
    {
      "channel": 5,
      "note": 82,
      "start": 12.2568,
      "duration": 0.3625,
      "velocity": 102,
      "chip": "ym2612"
    },
    {
      "channel": 0,
      "note": 75,
      "start": 12.4414,
      "duration": 0.5492,
      "velocity": 103,
      "chip": "ym2612"
    },
    {
      "channel": 2,
      "note": 55,
      "start": 12.4418,
      "duration": 0.5489,
      "velocity": 100,
      "chip": "ym2612"
    },
    {
      "channel": 3,
      "note": 79,
      "start": 12.4423,
      "duration": 0.1767,
      "velocity": 115,
      "chip": "ym2612"
    },
    {
      "channel": 3,
      "note": 79,
      "start": 12.628,
      "duration": 0.3628,
      "velocity": 112,
      "chip": "ym2612"
    },
    {
      "channel": 4,
      "note": 87,
      "start": 12.6285,
      "duration": 0.1762,
      "velocity": 102,
      "chip": "ym2612"
    },
    {
      "channel": 5,
      "note": 84,
      "start": 12.629,
      "duration": 0.1758,
      "velocity": 102,
      "chip": "ym2612"
    },
    {
      "channel": 1,
      "note": 75,
      "start": 12.7201,
      "duration": 0.549,
      "velocity": 103,
      "chip": "ym2612"
    },
    {
      "channel": 4,
      "note": 89,
      "start": 12.813,
      "duration": 0.1778,
      "velocity": 102,
      "chip": "ym2612"
    },
    {
      "channel": 5,
      "note": 86,
      "start": 12.8136,
      "duration": 0.1774,
      "velocity": 102,
      "chip": "ym2612"
    },
    {
      "channel": 0,
      "note": 77,
      "start": 12.9987,
      "duration": 0.3633,
      "velocity": 103,
      "chip": "ym2612"
    },
    {
      "channel": 2,
      "note": 55,
      "start": 12.9992,
      "duration": 0.363,
      "velocity": 100,
      "chip": "ym2612"
    },
    {
      "channel": 3,
      "note": 79,
      "start": 13.0005,
      "duration": 0.1759,
      "velocity": 115,
      "chip": "ym2612"
    },
    {
      "channel": 3,
      "note": 79,
      "start": 13.1848,
      "duration": 0.1775,
      "velocity": 115,
      "chip": "ym2612"
    },
    {
      "channel": 4,
      "note": 87,
      "start": 13.1853,
      "duration": 1.6632,
      "velocity": 102,
      "chip": "ym2612"
    },
    {
      "channel": 5,
      "note": 84,
      "start": 13.1859,
      "duration": 1.6628,
      "velocity": 102,
      "chip": "ym2612"
    },
    {
      "channel": 1,
      "note": 77,
      "start": 13.2777,
      "duration": 0.3631,
      "velocity": 103,
      "chip": "ym2612"
    },
    {
      "channel": 0,
      "note": 79,
      "start": 13.3702,
      "duration": 0.3633,
      "velocity": 103,
      "chip": "ym2612"
    },
    {
      "channel": 2,
      "note": 60,
      "start": 13.3707,
      "duration": 0.5488,
      "velocity": 100,
      "chip": "ym2612"
    },
    {
      "channel": 3,
      "note": 79,
      "start": 13.3721,
      "duration": 0.1757,
      "velocity": 115,
      "chip": "ym2612"
    },
    {
      "channel": 3,
      "note": 79,
      "start": 13.5559,
      "duration": 0.1777,
      "velocity": 115,
      "chip": "ym2612"
    },
    {
      "channel": 1,
      "note": 79,
      "start": 13.6488,
      "duration": 0.3634,
      "velocity": 103,
      "chip": "ym2612"
    },
    {
      "channel": 3,
      "note": 79,
      "start": 13.7417,
      "duration": 0.1777,
      "velocity": 115,
      "chip": "ym2612"
    },
    {
      "channel": 2,
      "note": 60,
      "start": 13.9274,
      "duration": 0.5494,
      "velocity": 100,
      "chip": "ym2612"
    },
    {
      "channel": 3,
      "note": 79,
      "start": 13.9279,
      "duration": 0.1771,
      "velocity": 115,
      "chip": "ym2612"
    },
    {
      "channel": 0,
      "note": 70,
      "start": 14.1133,
      "duration": 0.3636,
      "velocity": 103,
      "chip": "ym2612"
    },
    {
      "channel": 3,
      "note": 79,
      "start": 14.1149,
      "duration": 0.3621,
      "velocity": 112,
      "chip": "ym2612"
    },
    {
      "channel": 1,
      "note": 70,
      "start": 14.3919,
      "duration": 0.3633,
      "velocity": 103,
      "chip": "ym2612"
    },
    {
      "channel": 2,
      "note": 60,
      "start": 14.4849,
      "duration": 0.3632,
      "velocity": 100,
      "chip": "ym2612"
    },
    {
      "channel": 3,
      "note": 79,
      "start": 14.4864,
      "duration": 0.1761,
      "velocity": 115,
      "chip": "ym2612"
    },
    {
      "channel": 3,
      "note": 79,
      "start": 14.6705,
      "duration": 0.1777,
      "velocity": 115,
      "chip": "ym2612"
    },
    {
      "channel": 0,
      "note": 69,
      "start": 14.8562,
      "duration": 0.5491,
      "velocity": 103,
      "chip": "ym2612"
    },
    {
      "channel": 2,
      "note": 53,
      "start": 14.8567,
      "duration": 0.5488,
      "velocity": 100,
      "chip": "ym2612"
    },
    {
      "channel": 3,
      "note": 79,
      "start": 14.858,
      "duration": 0.1758,
      "velocity": 115,
      "chip": "ym2612"
    },
    {
      "channel": 4,
      "note": 87,
      "start": 14.8586,
      "duration": 0.3612,
      "velocity": 102,
      "chip": "ym2612"
    },
    {
      "channel": 5,
      "note": 84,
      "start": 14.8592,
      "duration": 0.3607,
      "velocity": 102,
      "chip": "ym2612"
    },
    {
      "channel": 3,
      "note": 79,
      "start": 15.042,
      "duration": 0.1777,
      "velocity": 115,
      "chip": "ym2612"
    },
    {
      "channel": 1,
      "note": 69,
      "start": 15.1351,
      "duration": 0.549,
      "velocity": 103,
      "chip": "ym2612"
    },
    {
      "channel": 3,
      "note": 79,
      "start": 15.2278,
      "duration": 0.1778,
      "velocity": 115,
      "chip": "ym2612"
    },
    {
      "channel": 4,
      "note": 91,
      "start": 15.2283,
      "duration": 0.3629,
      "velocity": 102,
      "chip": "ym2612"
    },
    {
      "channel": 5,
      "note": 87,
      "start": 15.2288,
      "duration": 0.3625,
      "velocity": 102,
      "chip": "ym2612"
    },
    {
      "channel": 0,
      "note": 72,
      "start": 15.4137,
      "duration": 0.5491,
      "velocity": 103,
      "chip": "ym2612"
    },
    {
      "channel": 2,
      "note": 53,
      "start": 15.4141,
      "duration": 0.5488,
      "velocity": 100,
      "chip": "ym2612"
    },
    {
      "channel": 3,
      "note": 79,
      "start": 15.4149,
      "duration": 0.1763,
      "velocity": 115,
      "chip": "ym2612"
    },
    {
      "channel": 3,
      "note": 79,
      "start": 15.6002,
      "duration": 0.3628,
      "velocity": 112,
      "chip": "ym2612"
    },
    {
      "channel": 4,
      "note": 89,
      "start": 15.6007,
      "duration": 0.1763,
      "velocity": 102,
      "chip": "ym2612"
    },
    {
      "channel": 5,
      "note": 86,
      "start": 15.6012,
      "duration": 0.1759,
      "velocity": 102,
      "chip": "ym2612"
    },
    {
      "channel": 1,
      "note": 72,
      "start": 15.6923,
      "duration": 0.5491,
      "velocity": 103,
      "chip": "ym2612"
    },
    {
      "channel": 4,
      "note": 87,
      "start": 15.7851,
      "duration": 0.3634,
      "velocity": 102,
      "chip": "ym2612"
    },
    {
      "channel": 5,
      "note": 84,
      "start": 15.7856,
      "duration": 0.363,
      "velocity": 102,
      "chip": "ym2612"
    },
    {
      "channel": 0,
      "note": 77,
      "start": 15.9708,
      "duration": 0.3638,
      "velocity": 103,
      "chip": "ym2612"
    },
    {
      "channel": 2,
      "note": 53,
      "start": 15.9712,
      "duration": 0.3635,
      "velocity": 100,
      "chip": "ym2612"
    },
    {
      "channel": 3,
      "note": 79,
      "start": 15.9726,
      "duration": 0.1759,
      "velocity": 115,
      "chip": "ym2612"
    },
    {
      "channel": 3,
      "note": 79,
      "start": 16.1566,
      "duration": 0.1783,
      "velocity": 115,
      "chip": "ym2612"
    },
    {
      "channel": 4,
      "note": 86,
      "start": 16.1571,
      "duration": 0.7347,
      "velocity": 102,
      "chip": "ym2612"
    },
    {
      "channel": 5,
      "note": 82,
      "start": 16.1576,
      "duration": 0.7343,
      "velocity": 102,
      "chip": "ym2612"
    },
    {
      "channel": 1,
      "note": 77,
      "start": 16.2495,
      "duration": 0.3635,
      "velocity": 103,
      "chip": "ym2612"
    },
    {
      "channel": 0,
      "note": 74,
      "start": 16.3423,
      "duration": 1.4779,
      "velocity": 103,
      "chip": "ym2612"
    },
    {
      "channel": 2,
      "note": 58,
      "start": 16.3428,
      "duration": 0.5488,
      "velocity": 100,
      "chip": "ym2612"
    },
    {
      "channel": 3,
      "note": 79,
      "start": 16.3441,
      "duration": 0.1758,
      "velocity": 115,
      "chip": "ym2612"
    },
    {
      "channel": 3,
      "note": 79,
      "start": 16.5281,
      "duration": 0.1776,
      "velocity": 115,
      "chip": "ym2612"
    },
    {
      "channel": 1,
      "note": 74,
      "start": 16.621,
      "duration": 1.4779,
      "velocity": 103,
      "chip": "ym2612"
    },
    {
      "channel": 3,
      "note": 79,
      "start": 16.714,
      "duration": 0.1777,
      "velocity": 115,
      "chip": "ym2612"
    },
    {
      "channel": 2,
      "note": 58,
      "start": 16.8996,
      "duration": 0.3635,
      "velocity": 100,
      "chip": "ym2612"
    },
    {
      "channel": 3,
      "note": 79,
      "start": 16.9001,
      "duration": 0.1773,
      "velocity": 115,
      "chip": "ym2612"
    },
    {
      "channel": 4,
      "note": 82,
      "start": 16.9006,
      "duration": 0.92,
      "velocity": 102,
      "chip": "ym2612"
    },
    {
      "channel": 5,
      "note": 79,
      "start": 16.9011,
      "duration": 0.9195,
      "velocity": 102,
      "chip": "ym2612"
    },
    {
      "channel": 3,
      "note": 79,
      "start": 17.0863,
      "duration": 0.3626,
      "velocity": 112,
      "chip": "ym2612"
    },
    {
      "channel": 2,
      "note": 58,
      "start": 17.2711,
      "duration": 0.1777,
      "velocity": 100,
      "chip": "ym2612"
    },
    {
      "channel": 2,
      "note": 57,
      "start": 17.4568,
      "duration": 0.3635,
      "velocity": 100,
      "chip": "ym2612"
    },
    {
      "channel": 3,
      "note": 79,
      "start": 17.4582,
      "duration": 0.1765,
      "velocity": 115,
      "chip": "ym2612"
    },
    {
      "channel": 3,
      "note": 79,
      "start": 17.6427,
      "duration": 0.1778,
      "velocity": 115,
      "chip": "ym2612"
    },
    {
      "channel": 0,
      "note": 74,
      "start": 17.8285,
      "duration": 0.549,
      "velocity": 103,
      "chip": "ym2612"
    },
    {
      "channel": 2,
      "note": 55,
      "start": 17.829,
      "duration": 0.5487,
      "velocity": 100,
      "chip": "ym2612"
    },
    {
      "channel": 3,
      "note": 79,
      "start": 17.8303,
      "duration": 0.1758,
      "velocity": 115,
      "chip": "ym2612"
    },
    {
      "channel": 3,
      "note": 79,
      "start": 18.0146,
      "duration": 0.1772,
      "velocity": 115,
      "chip": "ym2612"
    },
    {
      "channel": 1,
      "note": 74,
      "start": 18.1071,
      "duration": 0.549,
      "velocity": 103,
      "chip": "ym2612"
    },
    {
      "channel": 3,
      "note": 79,
      "start": 18.2,
      "duration": 0.1777,
      "velocity": 115,
      "chip": "ym2612"
    },
    {
      "channel": 4,
      "note": 86,
      "start": 18.2006,
      "duration": 0.363,
      "velocity": 102,
      "chip": "ym2612"
    },
    {
      "channel": 5,
      "note": 82,
      "start": 18.2011,
      "duration": 0.3626,
      "velocity": 102,
      "chip": "ym2612"
    },
    {
      "channel": 0,
      "note": 75,
      "start": 18.3857,
      "duration": 0.5492,
      "velocity": 103,
      "chip": "ym2612"
    },
    {
      "channel": 2,
      "note": 55,
      "start": 18.3861,
      "duration": 0.5488,
      "velocity": 100,
      "chip": "ym2612"
    },
    {
      "channel": 3,
      "note": 79,
      "start": 18.3868,
      "duration": 0.1767,
      "velocity": 115,
      "chip": "ym2612"
    },
    {
      "channel": 3,
      "note": 79,
      "start": 18.5723,
      "duration": 0.3627,
      "velocity": 112,
      "chip": "ym2612"
    },
    {
      "channel": 4,
      "note": 87,
      "start": 18.5728,
      "duration": 0.1763,
      "velocity": 102,
      "chip": "ym2612"
    },
    {
      "channel": 5,
      "note": 84,
      "start": 18.5733,
      "duration": 0.1759,
      "velocity": 102,
      "chip": "ym2612"
    },
    {
      "channel": 1,
      "note": 75,
      "start": 18.6647,
      "duration": 0.5527,
      "velocity": 103,
      "chip": "ym2612"
    },
    {
      "channel": 4,
      "note": 89,
      "start": 18.7573,
      "duration": 0.5532,
      "velocity": 102,
      "chip": "ym2612"
    },
    {
      "channel": 5,
      "note": 86,
      "start": 18.7578,
      "duration": 0.5528,
      "velocity": 102,
      "chip": "ym2612"
    },
    {
      "channel": 0,
      "note": 77,
      "start": 18.9429,
      "duration": 0.3673,
      "velocity": 103,
      "chip": "ym2612"
    },
    {
      "channel": 2,
      "note": 55,
      "start": 18.9434,
      "duration": 0.3669,
      "velocity": 100,
      "chip": "ym2612"
    },
    {
      "channel": 3,
      "note": 79,
      "start": 18.945,
      "duration": 0.1756,
      "velocity": 115,
      "chip": "ym2612"
    },
    {
      "channel": 3,
      "note": 79,
      "start": 19.1288,
      "duration": 0.1816,
      "velocity": 115,
      "chip": "ym2612"
    },
    {
      "channel": 1,
      "note": 77,
      "start": 19.2255,
      "duration": 0.3634,
      "velocity": 103,
      "chip": "ym2612"
    },
    {
      "channel": 0,
      "note": 79,
      "start": 19.3185,
      "duration": 0.3634,
      "velocity": 103,
      "chip": "ym2612"
    },
    {
      "channel": 2,
      "note": 60,
      "start": 19.3189,
      "duration": 0.5487,
      "velocity": 100,
      "chip": "ym2612"
    },
    {
      "channel": 3,
      "note": 79,
      "start": 19.3202,
      "duration": 0.1759,
      "velocity": 115,
      "chip": "ym2612"
    },
    {
      "channel": 4,
      "note": 87,
      "start": 19.3208,
      "duration": 1.8471,
      "velocity": 102,
      "chip": "ym2612"
    },
    {
      "channel": 5,
      "note": 84,
      "start": 19.3213,
      "duration": 1.8467,
      "velocity": 102,
      "chip": "ym2612"
    },
    {
      "channel": 3,
      "note": 79,
      "start": 19.5041,
      "duration": 0.1778,
      "velocity": 115,
      "chip": "ym2612"
    },
    {
      "channel": 1,
      "note": 79,
      "start": 19.597,
      "duration": 0.3635,
      "velocity": 103,
      "chip": "ym2612"
    },
    {
      "channel": 3,
      "note": 79,
      "start": 19.6899,
      "duration": 0.1776,
      "velocity": 115,
      "chip": "ym2612"
    },
    {
      "channel": 2,
      "note": 60,
      "start": 19.8757,
      "duration": 0.5492,
      "velocity": 100,
      "chip": "ym2612"
    },
    {
      "channel": 3,
      "note": 79,
      "start": 19.8762,
      "duration": 0.1771,
      "velocity": 115,
      "chip": "ym2612"
    },
    {
      "channel": 0,
      "note": 70,
      "start": 20.0615,
      "duration": 0.3635,
      "velocity": 103,
      "chip": "ym2612"
    },
    {
      "channel": 3,
      "note": 79,
      "start": 20.0628,
      "duration": 0.3622,
      "velocity": 112,
      "chip": "ym2612"
    },
    {
      "channel": 1,
      "note": 70,
      "start": 20.34,
      "duration": 0.3635,
      "velocity": 103,
      "chip": "ym2612"
    },
    {
      "channel": 2,
      "note": 60,
      "start": 20.4331,
      "duration": 0.3633,
      "velocity": 100,
      "chip": "ym2612"
    },
    {
      "channel": 3,
      "note": 79,
      "start": 20.4347,
      "duration": 0.1759,
      "velocity": 115,
      "chip": "ym2612"
    },
    {
      "channel": 3,
      "note": 79,
      "start": 20.6187,
      "duration": 0.1778,
      "velocity": 115,
      "chip": "ym2612"
    },
    {
      "channel": 0,
      "note": 77,
      "start": 20.8047,
      "duration": 0.5489,
      "velocity": 103,
      "chip": "ym2612"
    },
    {
      "channel": 2,
      "note": 53,
      "start": 20.8051,
      "duration": 0.5485,
      "velocity": 100,
      "chip": "ym2612"
    },
    {
      "channel": 3,
      "note": 79,
      "start": 20.8066,
      "duration": 0.1756,
      "velocity": 115,
      "chip": "ym2612"
    },
    {
      "channel": 3,
      "note": 79,
      "start": 20.9902,
      "duration": 0.1776,
      "velocity": 115,
      "chip": "ym2612"
    },
    {
      "channel": 1,
      "note": 77,
      "start": 21.0832,
      "duration": 0.549,
      "velocity": 103,
      "chip": "ym2612"
    },
    {
      "channel": 3,
      "note": 79,
      "start": 21.176,
      "duration": 0.1778,
      "velocity": 115,
      "chip": "ym2612"
    },
    {
      "channel": 4,
      "note": 91,
      "start": 21.1765,
      "duration": 0.363,
      "velocity": 102,
      "chip": "ym2612"
    },
    {
      "channel": 5,
      "note": 87,
      "start": 21.177,
      "duration": 0.3627,
      "velocity": 102,
      "chip": "ym2612"
    },
    {
      "channel": 0,
      "note": 74,
      "start": 21.3617,
      "duration": 0.5492,
      "velocity": 103,
      "chip": "ym2612"
    },
    {
      "channel": 2,
      "note": 53,
      "start": 21.3622,
      "duration": 0.5489,
      "velocity": 100,
      "chip": "ym2612"
    },
    {
      "channel": 3,
      "note": 79,
      "start": 21.3627,
      "duration": 0.1768,
      "velocity": 115,
      "chip": "ym2612"
    },
    {
      "channel": 3,
      "note": 79,
      "start": 21.5483,
      "duration": 0.3628,
      "velocity": 112,
      "chip": "ym2612"
    },
    {
      "channel": 4,
      "note": 89,
      "start": 21.5488,
      "duration": 0.1763,
      "velocity": 102,
      "chip": "ym2612"
    },
    {
      "channel": 5,
      "note": 86,
      "start": 21.5494,
      "duration": 0.1758,
      "velocity": 102,
      "chip": "ym2612"
    },
    {
      "channel": 1,
      "note": 74,
      "start": 21.6404,
      "duration": 0.5491,
      "velocity": 103,
      "chip": "ym2612"
    },
    {
      "channel": 4,
      "note": 87,
      "start": 21.7334,
      "duration": 0.5493,
      "velocity": 102,
      "chip": "ym2612"
    },
    {
      "channel": 5,
      "note": 84,
      "start": 21.7339,
      "duration": 0.5489,
      "velocity": 102,
      "chip": "ym2612"
    },
    {
      "channel": 0,
      "note": 72,
      "start": 21.9191,
      "duration": 0.3633,
      "velocity": 103,
      "chip": "ym2612"
    },
    {
      "channel": 2,
      "note": 53,
      "start": 21.9195,
      "duration": 0.3629,
      "velocity": 100,
      "chip": "ym2612"
    },
    {
      "channel": 3,
      "note": 79,
      "start": 21.9209,
      "duration": 0.1763,
      "velocity": 115,
      "chip": "ym2612"
    },
    {
      "channel": 3,
      "note": 79,
      "start": 22.1051,
      "duration": 0.1775,
      "velocity": 115,
      "chip": "ym2612"
    },
    {
      "channel": 1,
      "note": 72,
      "start": 22.1984,
      "duration": 0.3627,
      "velocity": 103,
      "chip": "ym2612"
    },
    {
      "channel": 0,
      "note": 70,
      "start": 22.2905,
      "duration": 1.8495,
      "velocity": 103,
      "chip": "ym2612"
    },
    {
      "channel": 2,
      "note": 58,
      "start": 22.291,
      "duration": 0.7345,
      "velocity": 100,
      "chip": "ym2612"
    },
    {
      "channel": 3,
      "note": 79,
      "start": 22.2923,
      "duration": 0.1758,
      "velocity": 115,
      "chip": "ym2612"
    },
    {
      "channel": 4,
      "note": 86,
      "start": 22.2929,
      "duration": 1.4759,
      "velocity": 102,
      "chip": "ym2612"
    },
    {
      "channel": 5,
      "note": 82,
      "start": 22.2934,
      "duration": 1.4755,
      "velocity": 102,
      "chip": "ym2612"
    },
    {
      "channel": 3,
      "note": 79,
      "start": 22.4763,
      "duration": 0.1776,
      "velocity": 115,
      "chip": "ym2612"
    },
    {
      "channel": 1,
      "note": 70,
      "start": 22.5691,
      "duration": 1.8495,
      "velocity": 103,
      "chip": "ym2612"
    },
    {
      "channel": 3,
      "note": 79,
      "start": 22.6622,
      "duration": 0.1776,
      "velocity": 115,
      "chip": "ym2612"
    },
    {
      "channel": 3,
      "note": 79,
      "start": 22.8478,
      "duration": 0.1778,
      "velocity": 115,
      "chip": "ym2612"
    },
    {
      "channel": 2,
      "note": 57,
      "start": 23.0337,
      "duration": 0.7349,
      "velocity": 100,
      "chip": "ym2612"
    },
    {
      "channel": 3,
      "note": 79,
      "start": 23.0353,
      "duration": 0.3618,
      "velocity": 112,
      "chip": "ym2612"
    },
    {
      "channel": 3,
      "note": 79,
      "start": 23.4059,
      "duration": 0.1768,
      "velocity": 115,
      "chip": "ym2612"
    },
    {
      "channel": 3,
      "note": 79,
      "start": 23.591,
      "duration": 0.1777,
      "velocity": 115,
      "chip": "ym2612"
    },
    {
      "channel": 2,
      "note": 55,
      "start": 23.7766,
      "duration": 0.5493,
      "velocity": 100,
      "chip": "ym2612"
    },
    {
      "channel": 3,
      "note": 79,
      "start": 23.7779,
      "duration": 0.1766,
      "velocity": 115,
      "chip": "ym2612"
    },
    {
      "channel": 4,
      "note": 74,
      "start": 23.7793,
      "duration": 0.5468,
      "velocity": 107,
      "chip": "ym2612"
    },
    {
      "channel": 5,
      "note": 70,
      "start": 23.781,
      "duration": 0.5452,
      "velocity": 107,
      "chip": "ym2612"
    },
    {
      "channel": 3,
      "note": 79,
      "start": 23.9624,
      "duration": 0.1778,
      "velocity": 115,
      "chip": "ym2612"
    },
    {
      "channel": 0,
      "note": 79,
      "start": 24.1489,
      "duration": 0.1769,
      "velocity": 92,
      "chip": "ym2612"
    },
    {
      "channel": 3,
      "note": 79,
      "start": 24.1495,
      "duration": 0.1766,
      "velocity": 115,
      "chip": "ym2612"
    },
    {
      "channel": 0,
      "note": 82,
      "start": 24.334,
      "duration": 0.1776,
      "velocity": 92,
      "chip": "ym2612"
    },
    {
      "channel": 2,
      "note": 55,
      "start": 24.3348,
      "duration": 0.5484,
      "velocity": 100,
      "chip": "ym2612"
    },
    {
      "channel": 3,
      "note": 79,
      "start": 24.3353,
      "duration": 0.1764,
      "velocity": 115,
      "chip": "ym2612"
    },
    {
      "channel": 4,
      "note": 75,
      "start": 24.3357,
      "duration": 0.5476,
      "velocity": 107,
      "chip": "ym2612"
    },
    {
      "channel": 5,
      "note": 72,
      "start": 24.3362,
      "duration": 0.5472,
      "velocity": 107,
      "chip": "ym2612"
    },
    {
      "channel": 1,
      "note": 79,
      "start": 24.4277,
      "duration": 0.177,
      "velocity": 92,
      "chip": "ym2612"
    },
    {
      "channel": 0,
      "note": 86,
      "start": 24.5196,
      "duration": 0.1776,
      "velocity": 92,
      "chip": "ym2612"
    },
    {
      "channel": 3,
      "note": 79,
      "start": 24.521,
      "duration": 0.3622,
      "velocity": 112,
      "chip": "ym2612"
    },
    {
      "channel": 1,
      "note": 82,
      "start": 24.6126,
      "duration": 0.1776,
      "velocity": 92,
      "chip": "ym2612"
    },
    {
      "channel": 0,
      "note": 89,
      "start": 24.7055,
      "duration": 0.1776,
      "velocity": 92,
      "chip": "ym2612"
    },
    {
      "channel": 1,
      "note": 86,
      "start": 24.7983,
      "duration": 0.1776,
      "velocity": 92,
      "chip": "ym2612"
    },
    {
      "channel": 2,
      "note": 55,
      "start": 24.8911,
      "duration": 0.3635,
      "velocity": 100,
      "chip": "ym2612"
    },
    {
      "channel": 3,
      "note": 79,
      "start": 24.8925,
      "duration": 0.1764,
      "velocity": 115,
      "chip": "ym2612"
    },
    {
      "channel": 4,
      "note": 77,
      "start": 24.8929,
      "duration": 0.3619,
      "velocity": 107,
      "chip": "ym2612"
    },
    {
      "channel": 5,
      "note": 74,
      "start": 24.8934,
      "duration": 0.3615,
      "velocity": 107,
      "chip": "ym2612"
    },
    {
      "channel": 1,
      "note": 89,
      "start": 24.9841,
      "duration": 0.1776,
      "velocity": 92,
      "chip": "ym2612"
    },
    {
      "channel": 0,
      "note": 87,
      "start": 25.0769,
      "duration": 0.1778,
      "velocity": 92,
      "chip": "ym2612"
    },
    {
      "channel": 3,
      "note": 79,
      "start": 25.0774,
      "duration": 0.1777,
      "velocity": 115,
      "chip": "ym2612"
    },
    {
      "channel": 2,
      "note": 60,
      "start": 25.2628,
      "duration": 0.549,
      "velocity": 100,
      "chip": "ym2612"
    },
    {
      "channel": 3,
      "note": 79,
      "start": 25.2641,
      "duration": 0.1762,
      "velocity": 115,
      "chip": "ym2612"
    },
    {
      "channel": 4,
      "note": 79,
      "start": 25.2648,
      "duration": 0.7335,
      "velocity": 107,
      "chip": "ym2612"
    },
    {
      "channel": 5,
      "note": 75,
      "start": 25.2653,
      "duration": 0.7332,
      "velocity": 107,
      "chip": "ym2612"
    },
    {
      "channel": 1,
      "note": 87,
      "start": 25.3556,
      "duration": 0.1776,
      "velocity": 92,
      "chip": "ym2612"
    },
    {
      "channel": 0,
      "note": 87,
      "start": 25.4484,
      "duration": 0.1777,
      "velocity": 92,
      "chip": "ym2612"
    },
    {
      "channel": 3,
      "note": 79,
      "start": 25.4489,
      "duration": 0.1773,
      "velocity": 115,
      "chip": "ym2612"
    },
    {
      "channel": 0,
      "note": 86,
      "start": 25.6346,
      "duration": 0.3637,
      "velocity": 92,
      "chip": "ym2612"
    },
    {
      "channel": 3,
      "note": 79,
      "start": 25.6351,
      "duration": 0.1768,
      "velocity": 115,
      "chip": "ym2612"
    },
    {
      "channel": 1,
      "note": 87,
      "start": 25.7272,
      "duration": 0.1776,
      "velocity": 92,
      "chip": "ym2612"
    },
    {
      "channel": 2,
      "note": 60,
      "start": 25.8199,
      "duration": 0.5492,
      "velocity": 100,
      "chip": "ym2612"
    },
    {
      "channel": 3,
      "note": 79,
      "start": 25.8204,
      "duration": 0.1781,
      "velocity": 115,
      "chip": "ym2612"
    },
    {
      "channel": 1,
      "note": 86,
      "start": 25.9129,
      "duration": 0.3633,
      "velocity": 92,
      "chip": "ym2612"
    },
    {
      "channel": 0,
      "note": 84,
      "start": 26.0057,
      "duration": 0.3635,
      "velocity": 92,
      "chip": "ym2612"
    },
    {
      "channel": 3,
      "note": 79,
      "start": 26.0071,
      "duration": 0.3622,
      "velocity": 112,
      "chip": "ym2612"
    },
    {
      "channel": 4,
      "note": 70,
      "start": 26.0076,
      "duration": 0.7333,
      "velocity": 107,
      "chip": "ym2612"
    },
    {
      "channel": 5,
      "note": 77,
      "start": 26.0081,
      "duration": 0.7329,
      "velocity": 107,
      "chip": "ym2612"
    },
    {
      "channel": 1,
      "note": 84,
      "start": 26.2846,
      "duration": 0.3632,
      "velocity": 92,
      "chip": "ym2612"
    },
    {
      "channel": 0,
      "note": 82,
      "start": 26.3773,
      "duration": 0.3633,
      "velocity": 92,
      "chip": "ym2612"
    },
    {
      "channel": 2,
      "note": 60,
      "start": 26.3778,
      "duration": 0.3629,
      "velocity": 100,
      "chip": "ym2612"
    },
    {
      "channel": 3,
      "note": 79,
      "start": 26.3791,
      "duration": 0.1757,
      "velocity": 115,
      "chip": "ym2612"
    },
    {
      "channel": 3,
      "note": 79,
      "start": 26.563,
      "duration": 0.1778,
      "velocity": 115,
      "chip": "ym2612"
    },
    {
      "channel": 1,
      "note": 82,
      "start": 26.6559,
      "duration": 0.3634,
      "velocity": 92,
      "chip": "ym2612"
    },
    {
      "channel": 0,
      "note": 81,
      "start": 26.7489,
      "duration": 0.3632,
      "velocity": 92,
      "chip": "ym2612"
    },
    {
      "channel": 2,
      "note": 53,
      "start": 26.7493,
      "duration": 0.5492,
      "velocity": 100,
      "chip": "ym2612"
    },
    {
      "channel": 3,
      "note": 79,
      "start": 26.7507,
      "duration": 0.1757,
      "velocity": 115,
      "chip": "ym2612"
    },
    {
      "channel": 4,
      "note": 72,
      "start": 26.7511,
      "duration": 0.5476,
      "velocity": 107,
      "chip": "ym2612"
    },
    {
      "channel": 5,
      "note": 69,
      "start": 26.7516,
      "duration": 0.5472,
      "velocity": 107,
      "chip": "ym2612"
    },
    {
      "channel": 3,
      "note": 79,
      "start": 26.9349,
      "duration": 0.1773,
      "velocity": 115,
      "chip": "ym2612"
    },
    {
      "channel": 1,
      "note": 81,
      "start": 27.0274,
      "duration": 0.3634,
      "velocity": 92,
      "chip": "ym2612"
    },
    {
      "channel": 0,
      "note": 84,
      "start": 27.1204,
      "duration": 0.3633,
      "velocity": 92,
      "chip": "ym2612"
    },
    {
      "channel": 3,
      "note": 79,
      "start": 27.1209,
      "duration": 0.1778,
      "velocity": 115,
      "chip": "ym2612"
    },
    {
      "channel": 2,
      "note": 53,
      "start": 27.3061,
      "duration": 0.5492,
      "velocity": 100,
      "chip": "ym2612"
    },
    {
      "channel": 3,
      "note": 79,
      "start": 27.3066,
      "duration": 0.1771,
      "velocity": 115,
      "chip": "ym2612"
    },
    {
      "channel": 4,
      "note": 74,
      "start": 27.3071,
      "duration": 0.5484,
      "velocity": 107,
      "chip": "ym2612"
    },
    {
      "channel": 5,
      "note": 70,
      "start": 27.3076,
      "duration": 0.5479,
      "velocity": 107,
      "chip": "ym2612"
    },
    {
      "channel": 1,
      "note": 84,
      "start": 27.3989,
      "duration": 0.3634,
      "velocity": 92,
      "chip": "ym2612"
    },
    {
      "channel": 0,
      "note": 89,
      "start": 27.4918,
      "duration": 0.3634,
      "velocity": 92,
      "chip": "ym2612"
    },
    {
      "channel": 3,
      "note": 79,
      "start": 27.4931,
      "duration": 0.3622,
      "velocity": 112,
      "chip": "ym2612"
    },
    {
      "channel": 1,
      "note": 89,
      "start": 27.7704,
      "duration": 0.3674,
      "velocity": 92,
      "chip": "ym2612"
    },
    {
      "channel": 0,
      "note": 93,
      "start": 27.8633,
      "duration": 0.3673,
      "velocity": 92,
      "chip": "ym2612"
    },
    {
      "channel": 2,
      "note": 53,
      "start": 27.8638,
      "duration": 0.3669,
      "velocity": 100,
      "chip": "ym2612"
    },
    {
      "channel": 3,
      "note": 79,
      "start": 27.8654,
      "duration": 0.1794,
      "velocity": 115,
      "chip": "ym2612"
    },
    {
      "channel": 4,
      "note": 75,
      "start": 27.8658,
      "duration": 0.3651,
      "velocity": 107,
      "chip": "ym2612"
    },
    {
      "channel": 5,
      "note": 72,
      "start": 27.8663,
      "duration": 0.3647,
      "velocity": 107,
      "chip": "ym2612"
    },
    {
      "channel": 3,
      "note": 79,
      "start": 28.053,
      "duration": 0.1778,
      "velocity": 115,
      "chip": "ym2612"
    },
    {
      "channel": 1,
      "note": 93,
      "start": 28.1459,
      "duration": 0.3633,
      "velocity": 92,
      "chip": "ym2612"
    },
    {
      "channel": 0,
      "note": 91,
      "start": 28.2387,
      "duration": 0.3634,
      "velocity": 92,
      "chip": "ym2612"
    },
    {
      "channel": 2,
      "note": 58,
      "start": 28.2391,
      "duration": 0.5488,
      "velocity": 100,
      "chip": "ym2612"
    },
    {
      "channel": 3,
      "note": 79,
      "start": 28.2405,
      "duration": 0.176,
      "velocity": 115,
      "chip": "ym2612"
    },
    {
      "channel": 4,
      "note": 74,
      "start": 28.241,
      "duration": 1.476,
      "velocity": 107,
      "chip": "ym2612"
    },
    {
      "channel": 5,
      "note": 70,
      "start": 28.2414,
      "duration": 1.4756,
      "velocity": 107,
      "chip": "ym2612"
    },
    {
      "channel": 3,
      "note": 79,
      "start": 28.4248,
      "duration": 0.1774,
      "velocity": 115,
      "chip": "ym2612"
    },
    {
      "channel": 1,
      "note": 91,
      "start": 28.5174,
      "duration": 0.3636,
      "velocity": 92,
      "chip": "ym2612"
    },
    {
      "channel": 3,
      "note": 79,
      "start": 28.6104,
      "duration": 0.1775,
      "velocity": 115,
      "chip": "ym2612"
    },
    {
      "channel": 2,
      "note": 58,
      "start": 28.796,
      "duration": 0.3635,
      "velocity": 100,
      "chip": "ym2612"
    },
    {
      "channel": 3,
      "note": 79,
      "start": 28.7965,
      "duration": 0.1771,
      "velocity": 115,
      "chip": "ym2612"
    },
    {
      "channel": 0,
      "note": 89,
      "start": 28.9823,
      "duration": 0.3629,
      "velocity": 92,
      "chip": "ym2612"
    },
    {
      "channel": 3,
      "note": 79,
      "start": 28.9837,
      "duration": 0.3617,
      "velocity": 112,
      "chip": "ym2612"
    },
    {
      "channel": 2,
      "note": 58,
      "start": 29.1675,
      "duration": 0.1777,
      "velocity": 100,
      "chip": "ym2612"
    },
    {
      "channel": 1,
      "note": 89,
      "start": 29.2604,
      "duration": 0.3634,
      "velocity": 92,
      "chip": "ym2612"
    },
    {
      "channel": 0,
      "note": 87,
      "start": 29.3533,
      "duration": 0.1776,
      "velocity": 92,
      "chip": "ym2612"
    },
    {
      "channel": 2,
      "note": 57,
      "start": 29.3539,
      "duration": 0.3629,
      "velocity": 100,
      "chip": "ym2612"
    },
    {
      "channel": 3,
      "note": 79,
      "start": 29.3554,
      "duration": 0.1756,
      "velocity": 115,
      "chip": "ym2612"
    },
    {
      "channel": 0,
      "note": 86,
      "start": 29.539,
      "duration": 0.5531,
      "velocity": 92,
      "chip": "ym2612"
    },
    {
      "channel": 3,
      "note": 79,
      "start": 29.5395,
      "duration": 0.1773,
      "velocity": 115,
      "chip": "ym2612"
    },
    {
      "channel": 1,
      "note": 87,
      "start": 29.632,
      "duration": 0.1776,
      "velocity": 92,
      "chip": "ym2612"
    },
    {
      "channel": 2,
      "note": 55,
      "start": 29.7251,
      "duration": 0.5528,
      "velocity": 100,
      "chip": "ym2612"
    },
    {
      "channel": 3,
      "note": 79,
      "start": 29.7264,
      "duration": 0.176,
      "velocity": 115,
      "chip": "ym2612"
    },
    {
      "channel": 4,
      "note": 74,
      "start": 29.727,
      "duration": 0.5511,
      "velocity": 107,
      "chip": "ym2612"
    },
    {
      "channel": 5,
      "note": 70,
      "start": 29.7275,
      "duration": 0.5507,
      "velocity": 107,
      "chip": "ym2612"
    },
    {
      "channel": 1,
      "note": 86,
      "start": 29.8178,
      "duration": 0.5529,
      "velocity": 92,
      "chip": "ym2612"
    },
    {
      "channel": 3,
      "note": 79,
      "start": 29.9106,
      "duration": 0.1817,
      "velocity": 115,
      "chip": "ym2612"
    },
    {
      "channel": 0,
      "note": 79,
      "start": 30.1002,
      "duration": 0.1776,
      "velocity": 92,
      "chip": "ym2612"
    },
    {
      "channel": 3,
      "note": 79,
      "start": 30.1007,
      "duration": 0.1773,
      "velocity": 115,
      "chip": "ym2612"
    },
    {
      "channel": 0,
      "note": 82,
      "start": 30.2859,
      "duration": 0.1776,
      "velocity": 92,
      "chip": "ym2612"
    },
    {
      "channel": 2,
      "note": 55,
      "start": 30.2864,
      "duration": 0.5488,
      "velocity": 100,
      "chip": "ym2612"
    },
    {
      "channel": 3,
      "note": 79,
      "start": 30.2869,
      "duration": 0.1767,
      "velocity": 115,
      "chip": "ym2612"
    },
    {
      "channel": 4,
      "note": 75,
      "start": 30.2874,
      "duration": 0.548,
      "velocity": 107,
      "chip": "ym2612"
    },
    {
      "channel": 5,
      "note": 72,
      "start": 30.2878,
      "duration": 0.5477,
      "velocity": 107,
      "chip": "ym2612"
    },
    {
      "channel": 1,
      "note": 79,
      "start": 30.3788,
      "duration": 0.1777,
      "velocity": 92,
      "chip": "ym2612"
    },
    {
      "channel": 0,
      "note": 86,
      "start": 30.4717,
      "duration": 0.1776,
      "velocity": 92,
      "chip": "ym2612"
    },
    {
      "channel": 3,
      "note": 79,
      "start": 30.4732,
      "duration": 0.3621,
      "velocity": 112,
      "chip": "ym2612"
    },
    {
      "channel": 1,
      "note": 82,
      "start": 30.5651,
      "duration": 0.1771,
      "velocity": 92,
      "chip": "ym2612"
    },
    {
      "channel": 0,
      "note": 89,
      "start": 30.6575,
      "duration": 0.1776,
      "velocity": 92,
      "chip": "ym2612"
    },
    {
      "channel": 1,
      "note": 86,
      "start": 30.7503,
      "duration": 0.1777,
      "velocity": 92,
      "chip": "ym2612"
    },
    {
      "channel": 2,
      "note": 55,
      "start": 30.8433,
      "duration": 0.3633,
      "velocity": 100,
      "chip": "ym2612"
    },
    {
      "channel": 3,
      "note": 79,
      "start": 30.8449,
      "duration": 0.176,
      "velocity": 115,
      "chip": "ym2612"
    },
    {
      "channel": 4,
      "note": 77,
      "start": 30.8453,
      "duration": 0.3615,
      "velocity": 107,
      "chip": "ym2612"
    },
    {
      "channel": 5,
      "note": 74,
      "start": 30.8459,
      "duration": 0.361,
      "velocity": 107,
      "chip": "ym2612"
    },
    {
      "channel": 1,
      "note": 89,
      "start": 30.9361,
      "duration": 0.1776,
      "velocity": 92,
      "chip": "ym2612"
    },
    {
      "channel": 0,
      "note": 87,
      "start": 31.029,
      "duration": 0.1777,
      "velocity": 92,
      "chip": "ym2612"
    },
    {
      "channel": 3,
      "note": 79,
      "start": 31.0295,
      "duration": 0.1776,
      "velocity": 115,
      "chip": "ym2612"
    },
    {
      "channel": 2,
      "note": 60,
      "start": 31.215,
      "duration": 0.5489,
      "velocity": 100,
      "chip": "ym2612"
    },
    {
      "channel": 3,
      "note": 79,
      "start": 31.2164,
      "duration": 0.176,
      "velocity": 115,
      "chip": "ym2612"
    },
    {
      "channel": 4,
      "note": 79,
      "start": 31.2168,
      "duration": 0.733,
      "velocity": 107,
      "chip": "ym2612"
    },
    {
      "channel": 5,
      "note": 75,
      "start": 31.2173,
      "duration": 0.7326,
      "velocity": 107,
      "chip": "ym2612"
    },
    {
      "channel": 1,
      "note": 87,
      "start": 31.3077,
      "duration": 0.1777,
      "velocity": 92,
      "chip": "ym2612"
    },
    {
      "channel": 0,
      "note": 87,
      "start": 31.4006,
      "duration": 0.1776,
      "velocity": 92,
      "chip": "ym2612"
    },
    {
      "channel": 3,
      "note": 79,
      "start": 31.4011,
      "duration": 0.1771,
      "velocity": 115,
      "chip": "ym2612"
    },
    {
      "channel": 0,
      "note": 86,
      "start": 31.5863,
      "duration": 0.3634,
      "velocity": 92,
      "chip": "ym2612"
    },
    {
      "channel": 3,
      "note": 79,
      "start": 31.5868,
      "duration": 0.1772,
      "velocity": 115,
      "chip": "ym2612"
    },
    {
      "channel": 1,
      "note": 87,
      "start": 31.6791,
      "duration": 0.1776,
      "velocity": 92,
      "chip": "ym2612"
    },
    {
      "channel": 2,
      "note": 60,
      "start": 31.772,
      "duration": 0.5492,
      "velocity": 100,
      "chip": "ym2612"
    },
    {
      "channel": 3,
      "note": 79,
      "start": 31.7725,
      "duration": 0.1775,
      "velocity": 115,
      "chip": "ym2612"
    },
    {
      "channel": 1,
      "note": 86,
      "start": 31.8651,
      "duration": 0.3632,
      "velocity": 92,
      "chip": "ym2612"
    },
    {
      "channel": 0,
      "note": 84,
      "start": 31.9578,
      "duration": 0.3635,
      "velocity": 92,
      "chip": "ym2612"
    },
    {
      "channel": 3,
      "note": 79,
      "start": 31.9591,
      "duration": 0.3622,
      "velocity": 112,
      "chip": "ym2612"
    },
    {
      "channel": 4,
      "note": 70,
      "start": 31.9596,
      "duration": 0.7334,
      "velocity": 107,
      "chip": "ym2612"
    },
    {
      "channel": 5,
      "note": 77,
      "start": 31.96,
      "duration": 0.733,
      "velocity": 107,
      "chip": "ym2612"
    },
    {
      "channel": 1,
      "note": 84,
      "start": 32.2365,
      "duration": 0.3635,
      "velocity": 92,
      "chip": "ym2612"
    },
    {
      "channel": 0,
      "note": 82,
      "start": 32.3293,
      "duration": 0.3634,
      "velocity": 92,
      "chip": "ym2612"
    },
    {
      "channel": 2,
      "note": 60,
      "start": 32.3298,
      "duration": 0.363,
      "velocity": 100,
      "chip": "ym2612"
    },
    {
      "channel": 3,
      "note": 79,
      "start": 32.3311,
      "duration": 0.1758,
      "velocity": 115,
      "chip": "ym2612"
    },
    {
      "channel": 3,
      "note": 79,
      "start": 32.5151,
      "duration": 0.1778,
      "velocity": 115,
      "chip": "ym2612"
    },
    {
      "channel": 1,
      "note": 82,
      "start": 32.608,
      "duration": 0.3633,
      "velocity": 92,
      "chip": "ym2612"
    },
    {
      "channel": 0,
      "note": 81,
      "start": 32.7009,
      "duration": 0.3633,
      "velocity": 92,
      "chip": "ym2612"
    },
    {
      "channel": 2,
      "note": 53,
      "start": 32.7014,
      "duration": 0.5486,
      "velocity": 100,
      "chip": "ym2612"
    },
    {
      "channel": 3,
      "note": 79,
      "start": 32.7027,
      "duration": 0.1757,
      "velocity": 115,
      "chip": "ym2612"
    },
    {
      "channel": 4,
      "note": 77,
      "start": 32.7032,
      "duration": 0.547,
      "velocity": 107,
      "chip": "ym2612"
    },
    {
      "channel": 5,
      "note": 74,
      "start": 32.7036,
      "duration": 0.5467,
      "velocity": 107,
      "chip": "ym2612"
    },
    {
      "channel": 3,
      "note": 79,
      "start": 32.8866,
      "duration": 0.178,
      "velocity": 115,
      "chip": "ym2612"
    },
    {
      "channel": 1,
      "note": 81,
      "start": 32.9795,
      "duration": 0.3635,
      "velocity": 92,
      "chip": "ym2612"
    },
    {
      "channel": 0,
      "note": 84,
      "start": 33.0723,
      "duration": 0.3635,
      "velocity": 92,
      "chip": "ym2612"
    },
    {
      "channel": 3,
      "note": 79,
      "start": 33.0728,
      "duration": 0.1772,
      "velocity": 115,
      "chip": "ym2612"
    },
    {
      "channel": 2,
      "note": 53,
      "start": 33.258,
      "duration": 0.5494,
      "velocity": 100,
      "chip": "ym2612"
    },
    {
      "channel": 3,
      "note": 79,
      "start": 33.2586,
      "duration": 0.1773,
      "velocity": 115,
      "chip": "ym2612"
    },
    {
      "channel": 4,
      "note": 75,
      "start": 33.259,
      "duration": 0.5486,
      "velocity": 107,
      "chip": "ym2612"
    },
    {
      "channel": 5,
      "note": 72,
      "start": 33.2595,
      "duration": 0.5482,
      "velocity": 107,
      "chip": "ym2612"
    },
    {
      "channel": 1,
      "note": 84,
      "start": 33.351,
      "duration": 0.3637,
      "velocity": 92,
      "chip": "ym2612"
    },
    {
      "channel": 0,
      "note": 87,
      "start": 33.4439,
      "duration": 0.3635,
      "velocity": 92,
      "chip": "ym2612"
    },
    {
      "channel": 3,
      "note": 79,
      "start": 33.4454,
      "duration": 0.3621,
      "velocity": 112,
      "chip": "ym2612"
    },
    {
      "channel": 1,
      "note": 87,
      "start": 33.7225,
      "duration": 0.3634,
      "velocity": 92,
      "chip": "ym2612"
    },
    {
      "channel": 0,
      "note": 86,
      "start": 33.8154,
      "duration": 0.3635,
      "velocity": 92,
      "chip": "ym2612"
    },
    {
      "channel": 2,
      "note": 53,
      "start": 33.8158,
      "duration": 0.3631,
      "velocity": 100,
      "chip": "ym2612"
    },
    {
      "channel": 3,
      "note": 79,
      "start": 33.8172,
      "duration": 0.1759,
      "velocity": 115,
      "chip": "ym2612"
    },
    {
      "channel": 4,
      "note": 74,
      "start": 33.8176,
      "duration": 0.3615,
      "velocity": 107,
      "chip": "ym2612"
    },
    {
      "channel": 5,
      "note": 70,
      "start": 33.8181,
      "duration": 0.3612,
      "velocity": 107,
      "chip": "ym2612"
    },
    {
      "channel": 3,
      "note": 79,
      "start": 34.0012,
      "duration": 0.1778,
      "velocity": 115,
      "chip": "ym2612"
    },
    {
      "channel": 1,
      "note": 86,
      "start": 34.094,
      "duration": 0.3634,
      "velocity": 92,
      "chip": "ym2612"
    },
    {
      "channel": 0,
      "note": 84,
      "start": 34.187,
      "duration": 0.3633,
      "velocity": 92,
      "chip": "ym2612"
    },
    {
      "channel": 2,
      "note": 58,
      "start": 34.1874,
      "duration": 0.7345,
      "velocity": 100,
      "chip": "ym2612"
    },
    {
      "channel": 3,
      "note": 79,
      "start": 34.1888,
      "duration": 0.1759,
      "velocity": 115,
      "chip": "ym2612"
    },
    {
      "channel": 4,
      "note": 70,
      "start": 34.1892,
      "duration": 1.4763,
      "velocity": 107,
      "chip": "ym2612"
    },
    {
      "channel": 5,
      "note": 67,
      "start": 34.1897,
      "duration": 1.4759,
      "velocity": 107,
      "chip": "ym2612"
    },
    {
      "channel": 3,
      "note": 79,
      "start": 34.3727,
      "duration": 0.1777,
      "velocity": 115,
      "chip": "ym2612"
    },
    {
      "channel": 1,
      "note": 84,
      "start": 34.4655,
      "duration": 0.3634,
      "velocity": 92,
      "chip": "ym2612"
    },
    {
      "channel": 0,
      "note": 86,
      "start": 34.5584,
      "duration": 0.1777,
      "velocity": 92,
      "chip": "ym2612"
    },
    {
      "channel": 3,
      "note": 79,
      "start": 34.5589,
      "duration": 0.1773,
      "velocity": 115,
      "chip": "ym2612"
    },
    {
      "channel": 0,
      "note": 82,
      "start": 34.7442,
      "duration": 0.921,
      "velocity": 92,
      "chip": "ym2612"
    },
    {
      "channel": 3,
      "note": 79,
      "start": 34.745,
      "duration": 0.177,
      "velocity": 115,
      "chip": "ym2612"
    },
    {
      "channel": 1,
      "note": 86,
      "start": 34.8371,
      "duration": 0.1776,
      "velocity": 92,
      "chip": "ym2612"
    },
    {
      "channel": 2,
      "note": 57,
      "start": 34.9299,
      "duration": 0.7354,
      "velocity": 100,
      "chip": "ym2612"
    },
    {
      "channel": 3,
      "note": 79,
      "start": 34.9312,
      "duration": 0.3621,
      "velocity": 112,
      "chip": "ym2612"
    },
    {
      "channel": 1,
      "note": 82,
      "start": 35.0228,
      "duration": 0.643,
      "velocity": 92,
      "chip": "ym2612"
    },
    {
      "channel": 3,
      "note": 79,
      "start": 35.3024,
      "duration": 0.1768,
      "velocity": 115,
      "chip": "ym2612"
    },
    {
      "channel": 3,
      "note": 79,
      "start": 35.4873,
      "duration": 0.1781,
      "velocity": 115,
      "chip": "ym2612"
    },
    {
      "channel": 2,
      "note": 48,
      "start": 35.674,
      "duration": 0.5483,
      "velocity": 100,
      "chip": "ym2612"
    },
    {
      "channel": 3,
      "note": 79,
      "start": 35.6756,
      "duration": 0.1751,
      "velocity": 115,
      "chip": "ym2612"
    },
    {
      "channel": 4,
      "note": 46,
      "start": 35.6771,
      "duration": 1.1025,
      "velocity": 102,
      "chip": "ym2612"
    },
    {
      "channel": 5,
      "note": 39,
      "start": 35.6785,
      "duration": 1.1012,
      "velocity": 102,
      "chip": "ym2612"
    },
    {
      "channel": 3,
      "note": 79,
      "start": 35.8588,
      "duration": 0.1777,
      "velocity": 115,
      "chip": "ym2612"
    },
    {
      "channel": 0,
      "note": 79,
      "start": 36.0447,
      "duration": 0.3632,
      "velocity": 98,
      "chip": "ym2612"
    },
    {
      "channel": 3,
      "note": 79,
      "start": 36.0461,
      "duration": 0.362,
      "velocity": 112,
      "chip": "ym2612"
    },
    {
      "channel": 2,
      "note": 48,
      "start": 36.2302,
      "duration": 0.5492,
      "velocity": 100,
      "chip": "ym2612"
    },
    {
      "channel": 1,
      "note": 79,
      "start": 36.3231,
      "duration": 0.3634,
      "velocity": 98,
      "chip": "ym2612"
    },
    {
      "channel": 0,
      "note": 82,
      "start": 36.4161,
      "duration": 0.1776,
      "velocity": 98,
      "chip": "ym2612"
    },
    {
      "channel": 3,
      "note": 79,
      "start": 36.4174,
      "duration": 0.1763,
      "velocity": 115,
      "chip": "ym2612"
    },
    {
      "channel": 0,
      "note": 86,
      "start": 36.6018,
      "duration": 0.1777,
      "velocity": 98,
      "chip": "ym2612"
    },
    {
      "channel": 3,
      "note": 79,
      "start": 36.6023,
      "duration": 0.1775,
      "velocity": 115,
      "chip": "ym2612"
    },
    {
      "channel": 1,
      "note": 82,
      "start": 36.6949,
      "duration": 0.1774,
      "velocity": 98,
      "chip": "ym2612"
    },
    {
      "channel": 2,
      "note": 48,
      "start": 36.7875,
      "duration": 0.3634,
      "velocity": 100,
      "chip": "ym2612"
    },
    {
      "channel": 3,
      "note": 79,
      "start": 36.7888,
      "duration": 0.3622,
      "velocity": 112,
      "chip": "ym2612"
    },
    {
      "channel": 4,
      "note": 46,
      "start": 36.7893,
      "duration": 0.3618,
      "velocity": 102,
      "chip": "ym2612"
    },
    {
      "channel": 5,
      "note": 39,
      "start": 36.7898,
      "duration": 0.3614,
      "velocity": 102,
      "chip": "ym2612"
    },
    {
      "channel": 1,
      "note": 86,
      "start": 36.8805,
      "duration": 0.1776,
      "velocity": 98,
      "chip": "ym2612"
    },
    {
      "channel": 0,
      "note": 84,
      "start": 36.9734,
      "duration": 0.9207,
      "velocity": 98,
      "chip": "ym2612"
    },
    {
      "channel": 2,
      "note": 53,
      "start": 37.159,
      "duration": 0.5493,
      "velocity": 100,
      "chip": "ym2612"
    },
    {
      "channel": 3,
      "note": 79,
      "start": 37.1604,
      "duration": 0.1763,
      "velocity": 115,
      "chip": "ym2612"
    },
    {
      "channel": 4,
      "note": 48,
      "start": 37.1608,
      "duration": 1.4763,
      "velocity": 102,
      "chip": "ym2612"
    },
    {
      "channel": 5,
      "note": 41,
      "start": 37.1613,
      "duration": 1.4759,
      "velocity": 102,
      "chip": "ym2612"
    },
    {
      "channel": 1,
      "note": 84,
      "start": 37.252,
      "duration": 0.9206,
      "velocity": 98,
      "chip": "ym2612"
    },
    {
      "channel": 3,
      "note": 79,
      "start": 37.3451,
      "duration": 0.1774,
      "velocity": 115,
      "chip": "ym2612"
    },
    {
      "channel": 3,
      "note": 79,
      "start": 37.5314,
      "duration": 0.3625,
      "velocity": 112,
      "chip": "ym2612"
    },
    {
      "channel": 2,
      "note": 53,
      "start": 37.7163,
      "duration": 0.5492,
      "velocity": 100,
      "chip": "ym2612"
    },
    {
      "channel": 0,
      "note": 86,
      "start": 37.9022,
      "duration": 0.3634,
      "velocity": 98,
      "chip": "ym2612"
    },
    {
      "channel": 3,
      "note": 79,
      "start": 37.9035,
      "duration": 0.1762,
      "velocity": 115,
      "chip": "ym2612"
    },
    {
      "channel": 3,
      "note": 79,
      "start": 38.0879,
      "duration": 0.1778,
      "velocity": 115,
      "chip": "ym2612"
    },
    {
      "channel": 1,
      "note": 86,
      "start": 38.1807,
      "duration": 0.3634,
      "velocity": 98,
      "chip": "ym2612"
    },
    {
      "channel": 0,
      "note": 87,
      "start": 38.2736,
      "duration": 0.3634,
      "velocity": 98,
      "chip": "ym2612"
    },
    {
      "channel": 2,
      "note": 53,
      "start": 38.2741,
      "duration": 0.363,
      "velocity": 100,
      "chip": "ym2612"
    },
    {
      "channel": 3,
      "note": 79,
      "start": 38.2758,
      "duration": 0.3618,
      "velocity": 112,
      "chip": "ym2612"
    },
    {
      "channel": 1,
      "note": 87,
      "start": 38.5522,
      "duration": 0.3634,
      "velocity": 98,
      "chip": "ym2612"
    },
    {
      "channel": 0,
      "note": 89,
      "start": 38.6451,
      "duration": 1.1065,
      "velocity": 98,
      "chip": "ym2612"
    },
    {
      "channel": 2,
      "note": 53,
      "start": 38.6456,
      "duration": 0.5491,
      "velocity": 100,
      "chip": "ym2612"
    },
    {
      "channel": 3,
      "note": 79,
      "start": 38.6469,
      "duration": 0.1759,
      "velocity": 115,
      "chip": "ym2612"
    },
    {
      "channel": 4,
      "note": 48,
      "start": 38.6474,
      "duration": 1.1045,
      "velocity": 102,
      "chip": "ym2612"
    },
    {
      "channel": 5,
      "note": 41,
      "start": 38.648,
      "duration": 1.104,
      "velocity": 102,
      "chip": "ym2612"
    },
    {
      "channel": 3,
      "note": 79,
      "start": 38.831,
      "duration": 0.1776,
      "velocity": 115,
      "chip": "ym2612"
    },
    {
      "channel": 1,
      "note": 89,
      "start": 38.9237,
      "duration": 1.1066,
      "velocity": 98,
      "chip": "ym2612"
    },
    {
      "channel": 3,
      "note": 79,
      "start": 39.0175,
      "duration": 0.3626,
      "velocity": 112,
      "chip": "ym2612"
    },
    {
      "channel": 2,
      "note": 53,
      "start": 39.2024,
      "duration": 0.5492,
      "velocity": 100,
      "chip": "ym2612"
    },
    {
      "channel": 3,
      "note": 79,
      "start": 39.389,
      "duration": 0.1768,
      "velocity": 115,
      "chip": "ym2612"
    },
    {
      "channel": 3,
      "note": 79,
      "start": 39.574,
      "duration": 0.1778,
      "velocity": 115,
      "chip": "ym2612"
    },
    {
      "channel": 0,
      "note": 81,
      "start": 39.7597,
      "duration": 0.3635,
      "velocity": 98,
      "chip": "ym2612"
    },
    {
      "channel": 2,
      "note": 53,
      "start": 39.7601,
      "duration": 0.3632,
      "velocity": 100,
      "chip": "ym2612"
    },
    {
      "channel": 3,
      "note": 79,
      "start": 39.7615,
      "duration": 0.362,
      "velocity": 112,
      "chip": "ym2612"
    },
    {
      "channel": 4,
      "note": 48,
      "start": 39.7619,
      "duration": 0.3616,
      "velocity": 102,
      "chip": "ym2612"
    },
    {
      "channel": 5,
      "note": 41,
      "start": 39.7624,
      "duration": 0.3612,
      "velocity": 102,
      "chip": "ym2612"
    },
    {
      "channel": 1,
      "note": 81,
      "start": 40.0383,
      "duration": 0.3642,
      "velocity": 98,
      "chip": "ym2612"
    },
    {
      "channel": 0,
      "note": 82,
      "start": 40.1312,
      "duration": 1.8495,
      "velocity": 98,
      "chip": "ym2612"
    },
    {
      "channel": 2,
      "note": 55,
      "start": 40.1316,
      "duration": 0.5487,
      "velocity": 100,
      "chip": "ym2612"
    },
    {
      "channel": 3,
      "note": 79,
      "start": 40.133,
      "duration": 0.1759,
      "velocity": 115,
      "chip": "ym2612"
    },
    {
      "channel": 4,
      "note": 50,
      "start": 40.1335,
      "duration": 1.4759,
      "velocity": 102,
      "chip": "ym2612"
    },
    {
      "channel": 5,
      "note": 43,
      "start": 40.1339,
      "duration": 1.4755,
      "velocity": 102,
      "chip": "ym2612"
    },
    {
      "channel": 3,
      "note": 79,
      "start": 40.317,
      "duration": 0.1777,
      "velocity": 115,
      "chip": "ym2612"
    },
    {
      "channel": 1,
      "note": 82,
      "start": 40.4098,
      "duration": 1.8495,
      "velocity": 98,
      "chip": "ym2612"
    },
    {
      "channel": 3,
      "note": 79,
      "start": 40.5037,
      "duration": 0.3625,
      "velocity": 112,
      "chip": "ym2612"
    },
    {
      "channel": 2,
      "note": 55,
      "start": 40.6885,
      "duration": 0.5493,
      "velocity": 100,
      "chip": "ym2612"
    },
    {
      "channel": 3,
      "note": 79,
      "start": 40.8756,
      "duration": 0.1763,
      "velocity": 115,
      "chip": "ym2612"
    },
    {
      "channel": 3,
      "note": 79,
      "start": 41.06,
      "duration": 0.1778,
      "velocity": 115,
      "chip": "ym2612"
    },
    {
      "channel": 2,
      "note": 58,
      "start": 41.2458,
      "duration": 0.3633,
      "velocity": 100,
      "chip": "ym2612"
    },
    {
      "channel": 3,
      "note": 79,
      "start": 41.2472,
      "duration": 0.3621,
      "velocity": 112,
      "chip": "ym2612"
    },
    {
      "channel": 2,
      "note": 51,
      "start": 41.6173,
      "duration": 0.5492,
      "velocity": 100,
      "chip": "ym2612"
    },
    {
      "channel": 3,
      "note": 79,
      "start": 41.6186,
      "duration": 0.1763,
      "velocity": 115,
      "chip": "ym2612"
    },
    {
      "channel": 4,
      "note": 46,
      "start": 41.6191,
      "duration": 1.105,
      "velocity": 102,
      "chip": "ym2612"
    },
    {
      "channel": 5,
      "note": 39,
      "start": 41.6196,
      "duration": 1.1046,
      "velocity": 102,
      "chip": "ym2612"
    },
    {
      "channel": 3,
      "note": 79,
      "start": 41.8031,
      "duration": 0.1776,
      "velocity": 115,
      "chip": "ym2612"
    },
    {
      "channel": 0,
      "note": 79,
      "start": 41.9888,
      "duration": 0.3635,
      "velocity": 98,
      "chip": "ym2612"
    },
    {
      "channel": 3,
      "note": 79,
      "start": 41.9901,
      "duration": 0.3623,
      "velocity": 112,
      "chip": "ym2612"
    },
    {
      "channel": 2,
      "note": 51,
      "start": 42.1748,
      "duration": 0.5491,
      "velocity": 100,
      "chip": "ym2612"
    },
    {
      "channel": 1,
      "note": 79,
      "start": 42.2676,
      "duration": 0.3634,
      "velocity": 98,
      "chip": "ym2612"
    },
    {
      "channel": 0,
      "note": 82,
      "start": 42.3603,
      "duration": 0.1777,
      "velocity": 98,
      "chip": "ym2612"
    },
    {
      "channel": 3,
      "note": 79,
      "start": 42.3617,
      "duration": 0.1765,
      "velocity": 115,
      "chip": "ym2612"
    },
    {
      "channel": 0,
      "note": 86,
      "start": 42.5461,
      "duration": 0.1777,
      "velocity": 98,
      "chip": "ym2612"
    },
    {
      "channel": 3,
      "note": 79,
      "start": 42.5467,
      "duration": 0.1773,
      "velocity": 115,
      "chip": "ym2612"
    },
    {
      "channel": 1,
      "note": 82,
      "start": 42.6389,
      "duration": 0.1777,
      "velocity": 98,
      "chip": "ym2612"
    },
    {
      "channel": 2,
      "note": 51,
      "start": 42.7318,
      "duration": 0.3634,
      "velocity": 100,
      "chip": "ym2612"
    },
    {
      "channel": 3,
      "note": 79,
      "start": 42.7332,
      "duration": 0.3622,
      "velocity": 112,
      "chip": "ym2612"
    },
    {
      "channel": 4,
      "note": 46,
      "start": 42.7337,
      "duration": 0.3618,
      "velocity": 102,
      "chip": "ym2612"
    },
    {
      "channel": 5,
      "note": 39,
      "start": 42.7341,
      "duration": 0.3614,
      "velocity": 102,
      "chip": "ym2612"
    },
    {
      "channel": 1,
      "note": 86,
      "start": 42.825,
      "duration": 0.1774,
      "velocity": 98,
      "chip": "ym2612"
    },
    {
      "channel": 0,
      "note": 84,
      "start": 43.1034,
      "duration": 0.5491,
      "velocity": 98,
      "chip": "ym2612"
    },
    {
      "channel": 2,
      "note": 53,
      "start": 43.1038,
      "duration": 0.5488,
      "velocity": 100,
      "chip": "ym2612"
    },
    {
      "channel": 3,
      "note": 79,
      "start": 43.1054,
      "duration": 0.1756,
      "velocity": 115,
      "chip": "ym2612"
    },
    {
      "channel": 4,
      "note": 48,
      "start": 43.1059,
      "duration": 1.4757,
      "velocity": 102,
      "chip": "ym2612"
    },
    {
      "channel": 5,
      "note": 41,
      "start": 43.1064,
      "duration": 1.4753,
      "velocity": 102,
      "chip": "ym2612"
    },
    {
      "channel": 3,
      "note": 79,
      "start": 43.2893,
      "duration": 0.1775,
      "velocity": 115,
      "chip": "ym2612"
    },
    {
      "channel": 1,
      "note": 84,
      "start": 43.3821,
      "duration": 0.5491,
      "velocity": 98,
      "chip": "ym2612"
    },
    {
      "channel": 3,
      "note": 79,
      "start": 43.476,
      "duration": 0.3623,
      "velocity": 112,
      "chip": "ym2612"
    },
    {
      "channel": 0,
      "note": 86,
      "start": 43.6606,
      "duration": 0.5492,
      "velocity": 98,
      "chip": "ym2612"
    },
    {
      "channel": 2,
      "note": 53,
      "start": 43.6611,
      "duration": 0.5488,
      "velocity": 100,
      "chip": "ym2612"
    },
    {
      "channel": 3,
      "note": 79,
      "start": 43.8473,
      "duration": 0.1767,
      "velocity": 115,
      "chip": "ym2612"
    },
    {
      "channel": 1,
      "note": 86,
      "start": 43.9394,
      "duration": 0.5492,
      "velocity": 98,
      "chip": "ym2612"
    },
    {
      "channel": 3,
      "note": 79,
      "start": 44.0322,
      "duration": 0.1778,
      "velocity": 115,
      "chip": "ym2612"
    },
    {
      "channel": 0,
      "note": 87,
      "start": 44.218,
      "duration": 0.3634,
      "velocity": 98,
      "chip": "ym2612"
    },
    {
      "channel": 2,
      "note": 53,
      "start": 44.2185,
      "duration": 0.363,
      "velocity": 100,
      "chip": "ym2612"
    },
    {
      "channel": 3,
      "note": 79,
      "start": 44.2198,
      "duration": 0.3617,
      "velocity": 112,
      "chip": "ym2612"
    },
    {
      "channel": 1,
      "note": 87,
      "start": 44.4966,
      "duration": 0.3634,
      "velocity": 98,
      "chip": "ym2612"
    },
    {
      "channel": 0,
      "note": 86,
      "start": 44.5895,
      "duration": 0.5492,
      "velocity": 98,
      "chip": "ym2612"
    },
    {
      "channel": 2,
      "note": 46,
      "start": 44.59,
      "duration": 0.5488,
      "velocity": 100,
      "chip": "ym2612"
    },
    {
      "channel": 3,
      "note": 79,
      "start": 44.5913,
      "duration": 0.1759,
      "velocity": 115,
      "chip": "ym2612"
    },
    {
      "channel": 4,
      "note": 50,
      "start": 44.5918,
      "duration": 1.1044,
      "velocity": 102,
      "chip": "ym2612"
    },
    {
      "channel": 5,
      "note": 43,
      "start": 44.5923,
      "duration": 1.104,
      "velocity": 102,
      "chip": "ym2612"
    },
    {
      "channel": 3,
      "note": 79,
      "start": 44.7754,
      "duration": 0.1775,
      "velocity": 115,
      "chip": "ym2612"
    },
    {
      "channel": 1,
      "note": 86,
      "start": 44.8682,
      "duration": 0.5492,
      "velocity": 98,
      "chip": "ym2612"
    },
    {
      "channel": 3,
      "note": 79,
      "start": 44.9618,
      "duration": 0.3629,
      "velocity": 112,
      "chip": "ym2612"
    },
    {
      "channel": 0,
      "note": 84,
      "start": 45.1467,
      "duration": 0.5492,
      "velocity": 98,
      "chip": "ym2612"
    },
    {
      "channel": 2,
      "note": 46,
      "start": 45.1471,
      "duration": 0.5488,
      "velocity": 100,
      "chip": "ym2612"
    },
    {
      "channel": 3,
      "note": 79,
      "start": 45.3334,
      "duration": 0.1768,
      "velocity": 115,
      "chip": "ym2612"
    },
    {
      "channel": 1,
      "note": 84,
      "start": 45.4254,
      "duration": 0.5493,
      "velocity": 98,
      "chip": "ym2612"
    },
    {
      "channel": 3,
      "note": 79,
      "start": 45.5183,
      "duration": 0.1778,
      "velocity": 115,
      "chip": "ym2612"
    },
    {
      "channel": 0,
      "note": 82,
      "start": 45.704,
      "duration": 1.8495,
      "velocity": 98,
      "chip": "ym2612"
    },
    {
      "channel": 2,
      "note": 46,
      "start": 45.7047,
      "duration": 0.3627,
      "velocity": 100,
      "chip": "ym2612"
    },
    {
      "channel": 3,
      "note": 79,
      "start": 45.7061,
      "duration": 0.3614,
      "velocity": 112,
      "chip": "ym2612"
    },
    {
      "channel": 4,
      "note": 50,
      "start": 45.7066,
      "duration": 0.361,
      "velocity": 102,
      "chip": "ym2612"
    },
    {
      "channel": 5,
      "note": 43,
      "start": 45.7071,
      "duration": 0.3606,
      "velocity": 102,
      "chip": "ym2612"
    },
    {
      "channel": 1,
      "note": 82,
      "start": 45.9827,
      "duration": 1.5715,
      "velocity": 98,
      "chip": "ym2612"
    },
    {
      "channel": 2,
      "note": 46,
      "start": 46.0755,
      "duration": 0.5492,
      "velocity": 100,
      "chip": "ym2612"
    },
    {
      "channel": 3,
      "note": 79,
      "start": 46.0769,
      "duration": 0.1763,
      "velocity": 115,
      "chip": "ym2612"
    },
    {
      "channel": 4,
      "note": 50,
      "start": 46.0774,
      "duration": 0.7331,
      "velocity": 102,
      "chip": "ym2612"
    },
    {
      "channel": 5,
      "note": 43,
      "start": 46.0779,
      "duration": 0.7327,
      "velocity": 102,
      "chip": "ym2612"
    },
    {
      "channel": 3,
      "note": 79,
      "start": 46.2613,
      "duration": 0.1777,
      "velocity": 115,
      "chip": "ym2612"
    },
    {
      "channel": 3,
      "note": 79,
      "start": 46.4479,
      "duration": 0.3625,
      "velocity": 112,
      "chip": "ym2612"
    },
    {
      "channel": 2,
      "note": 58,
      "start": 46.6329,
      "duration": 0.3633,
      "velocity": 100,
      "chip": "ym2612"
    },
    {
      "channel": 3,
      "note": 79,
      "start": 46.8194,
      "duration": 0.1769,
      "velocity": 115,
      "chip": "ym2612"
    },
    {
      "channel": 4,
      "note": 48,
      "start": 46.8199,
      "duration": 0.7339,
      "velocity": 102,
      "chip": "ym2612"
    },
    {
      "channel": 5,
      "note": 41,
      "start": 46.8204,
      "duration": 0.7335,
      "velocity": 102,
      "chip": "ym2612"
    },
    {
      "channel": 2,
      "note": 58,
      "start": 47.0047,
      "duration": 0.1773,
      "velocity": 100,
      "chip": "ym2612"
    },
    {
      "channel": 3,
      "note": 79,
      "start": 47.0052,
      "duration": 0.1769,
      "velocity": 115,
      "chip": "ym2612"
    },
    {
      "channel": 2,
      "note": 46,
      "start": 47.1901,
      "duration": 0.3635,
      "velocity": 100,
      "chip": "ym2612"
    },
    {
      "channel": 3,
      "note": 79,
      "start": 47.1915,
      "duration": 0.3623,
      "velocity": 112,
      "chip": "ym2612"
    },
    {
      "channel": 2,
      "note": 51,
      "start": 47.5616,
      "duration": 0.5492,
      "velocity": 100,
      "chip": "ym2612"
    },
    {
      "channel": 3,
      "note": 79,
      "start": 47.5629,
      "duration": 0.1763,
      "velocity": 115,
      "chip": "ym2612"
    },
    {
      "channel": 4,
      "note": 46,
      "start": 47.5634,
      "duration": 1.1048,
      "velocity": 102,
      "chip": "ym2612"
    },
    {
      "channel": 5,
      "note": 39,
      "start": 47.5639,
      "duration": 1.1044,
      "velocity": 102,
      "chip": "ym2612"
    },
    {
      "channel": 3,
      "note": 79,
      "start": 47.7474,
      "duration": 0.1776,
      "velocity": 115,
      "chip": "ym2612"
    },
    {
      "channel": 0,
      "note": 79,
      "start": 47.9331,
      "duration": 0.3634,
      "velocity": 98,
      "chip": "ym2612"
    },
    {
      "channel": 3,
      "note": 79,
      "start": 47.9347,
      "duration": 0.362,
      "velocity": 112,
      "chip": "ym2612"
    },
    {
      "channel": 2,
      "note": 51,
      "start": 48.1189,
      "duration": 0.5492,
      "velocity": 100,
      "chip": "ym2612"
    },
    {
      "channel": 1,
      "note": 79,
      "start": 48.2118,
      "duration": 0.3633,
      "velocity": 98,
      "chip": "ym2612"
    },
    {
      "channel": 0,
      "note": 82,
      "start": 48.305,
      "duration": 0.1773,
      "velocity": 98,
      "chip": "ym2612"
    },
    {
      "channel": 3,
      "note": 79,
      "start": 48.3063,
      "duration": 0.1761,
      "velocity": 115,
      "chip": "ym2612"
    },
    {
      "channel": 0,
      "note": 86,
      "start": 48.4904,
      "duration": 0.1777,
      "velocity": 98,
      "chip": "ym2612"
    },
    {
      "channel": 3,
      "note": 79,
      "start": 48.4909,
      "duration": 0.1775,
      "velocity": 115,
      "chip": "ym2612"
    },
    {
      "channel": 1,
      "note": 82,
      "start": 48.5833,
      "duration": 0.1778,
      "velocity": 98,
      "chip": "ym2612"
    },
    {
      "channel": 2,
      "note": 51,
      "start": 48.6761,
      "duration": 0.3635,
      "velocity": 100,
      "chip": "ym2612"
    },
    {
      "channel": 3,
      "note": 79,
      "start": 48.6776,
      "duration": 0.3622,
      "velocity": 112,
      "chip": "ym2612"
    },
    {
      "channel": 4,
      "note": 46,
      "start": 48.6781,
      "duration": 0.3618,
      "velocity": 102,
      "chip": "ym2612"
    },
    {
      "channel": 5,
      "note": 39,
      "start": 48.6785,
      "duration": 0.3615,
      "velocity": 102,
      "chip": "ym2612"
    },
    {
      "channel": 1,
      "note": 86,
      "start": 48.769,
      "duration": 0.1777,
      "velocity": 98,
      "chip": "ym2612"
    },
    {
      "channel": 0,
      "note": 84,
      "start": 48.8619,
      "duration": 0.9209,
      "velocity": 98,
      "chip": "ym2612"
    },
    {
      "channel": 2,
      "note": 53,
      "start": 49.0477,
      "duration": 0.5492,
      "velocity": 100,
      "chip": "ym2612"
    },
    {
      "channel": 3,
      "note": 79,
      "start": 49.049,
      "duration": 0.1763,
      "velocity": 115,
      "chip": "ym2612"
    },
    {
      "channel": 4,
      "note": 48,
      "start": 49.0495,
      "duration": 1.4765,
      "velocity": 102,
      "chip": "ym2612"
    },
    {
      "channel": 5,
      "note": 41,
      "start": 49.05,
      "duration": 1.4761,
      "velocity": 102,
      "chip": "ym2612"
    },
    {
      "channel": 1,
      "note": 84,
      "start": 49.1405,
      "duration": 0.9208,
      "velocity": 98,
      "chip": "ym2612"
    },
    {
      "channel": 3,
      "note": 79,
      "start": 49.2335,
      "duration": 0.1777,
      "velocity": 115,
      "chip": "ym2612"
    },
    {
      "channel": 3,
      "note": 79,
      "start": 49.4202,
      "duration": 0.3625,
      "velocity": 112,
      "chip": "ym2612"
    },
    {
      "channel": 2,
      "note": 53,
      "start": 49.6051,
      "duration": 0.549,
      "velocity": 100,
      "chip": "ym2612"
    },
    {
      "channel": 0,
      "note": 86,
      "start": 49.7907,
      "duration": 0.3635,
      "velocity": 98,
      "chip": "ym2612"
    },
    {
      "channel": 3,
      "note": 79,
      "start": 49.7921,
      "duration": 0.1764,
      "velocity": 115,
      "chip": "ym2612"
    },
    {
      "channel": 3,
      "note": 79,
      "start": 49.9765,
      "duration": 0.1781,
      "velocity": 115,
      "chip": "ym2612"
    },
    {
      "channel": 1,
      "note": 86,
      "start": 50.0695,
      "duration": 0.3632,
      "velocity": 98,
      "chip": "ym2612"
    },
    {
      "channel": 0,
      "note": 87,
      "start": 50.1622,
      "duration": 0.3635,
      "velocity": 98,
      "chip": "ym2612"
    },
    {
      "channel": 2,
      "note": 53,
      "start": 50.1627,
      "duration": 0.3632,
      "velocity": 100,
      "chip": "ym2612"
    },
    {
      "channel": 3,
      "note": 79,
      "start": 50.164,
      "duration": 0.3622,
      "velocity": 112,
      "chip": "ym2612"
    },
    {
      "channel": 1,
      "note": 87,
      "start": 50.441,
      "duration": 0.3644,
      "velocity": 98,
      "chip": "ym2612"
    },
    {
      "channel": 0,
      "note": 89,
      "start": 50.5337,
      "duration": 1.1065,
      "velocity": 98,
      "chip": "ym2612"
    },
    {
      "channel": 2,
      "note": 53,
      "start": 50.5342,
      "duration": 0.5488,
      "velocity": 100,
      "chip": "ym2612"
    },
    {
      "channel": 3,
      "note": 79,
      "start": 50.5358,
      "duration": 0.1757,
      "velocity": 115,
      "chip": "ym2612"
    },
    {
      "channel": 4,
      "note": 48,
      "start": 50.5363,
      "duration": 1.1042,
      "velocity": 102,
      "chip": "ym2612"
    },
    {
      "channel": 5,
      "note": 41,
      "start": 50.5368,
      "duration": 1.1039,
      "velocity": 102,
      "chip": "ym2612"
    },
    {
      "channel": 3,
      "note": 79,
      "start": 50.7197,
      "duration": 0.1775,
      "velocity": 115,
      "chip": "ym2612"
    },
    {
      "channel": 1,
      "note": 89,
      "start": 50.8125,
      "duration": 1.1064,
      "velocity": 98,
      "chip": "ym2612"
    },
    {
      "channel": 3,
      "note": 79,
      "start": 50.9063,
      "duration": 0.3625,
      "velocity": 112,
      "chip": "ym2612"
    },
    {
      "channel": 2,
      "note": 53,
      "start": 51.091,
      "duration": 0.5493,
      "velocity": 100,
      "chip": "ym2612"
    },
    {
      "channel": 3,
      "note": 79,
      "start": 51.2778,
      "duration": 0.1768,
      "velocity": 115,
      "chip": "ym2612"
    },
    {
      "channel": 3,
      "note": 79,
      "start": 51.4626,
      "duration": 0.1778,
      "velocity": 115,
      "chip": "ym2612"
    },
    {
      "channel": 0,
      "note": 81,
      "start": 51.6483,
      "duration": 0.3635,
      "velocity": 98,
      "chip": "ym2612"
    },
    {
      "channel": 2,
      "note": 53,
      "start": 51.6488,
      "duration": 0.3632,
      "velocity": 100,
      "chip": "ym2612"
    },
    {
      "channel": 3,
      "note": 79,
      "start": 51.6501,
      "duration": 0.3619,
      "velocity": 112,
      "chip": "ym2612"
    },
    {
      "channel": 4,
      "note": 48,
      "start": 51.6506,
      "duration": 0.3615,
      "velocity": 102,
      "chip": "ym2612"
    },
    {
      "channel": 5,
      "note": 41,
      "start": 51.6512,
      "duration": 0.361,
      "velocity": 102,
      "chip": "ym2612"
    },
    {
      "channel": 1,
      "note": 81,
      "start": 51.9269,
      "duration": 0.3634,
      "velocity": 98,
      "chip": "ym2612"
    },
    {
      "channel": 0,
      "note": 82,
      "start": 52.0198,
      "duration": 2.2211,
      "velocity": 98,
      "chip": "ym2612"
    },
    {
      "channel": 2,
      "note": 55,
      "start": 52.0203,
      "duration": 0.5487,
      "velocity": 100,
      "chip": "ym2612"
    },
    {
      "channel": 3,
      "note": 79,
      "start": 52.0216,
      "duration": 0.176,
      "velocity": 115,
      "chip": "ym2612"
    },
    {
      "channel": 4,
      "note": 50,
      "start": 52.0221,
      "duration": 1.476,
      "velocity": 102,
      "chip": "ym2612"
    },
    {
      "channel": 5,
      "note": 43,
      "start": 52.0226,
      "duration": 1.4756,
      "velocity": 102,
      "chip": "ym2612"
    },
    {
      "channel": 3,
      "note": 79,
      "start": 52.2057,
      "duration": 0.1776,
      "velocity": 115,
      "chip": "ym2612"
    },
    {
      "channel": 1,
      "note": 82,
      "start": 52.2985,
      "duration": 2.221,
      "velocity": 98,
      "chip": "ym2612"
    },
    {
      "channel": 3,
      "note": 79,
      "start": 52.3922,
      "duration": 0.3625,
      "velocity": 112,
      "chip": "ym2612"
    },
    {
      "channel": 2,
      "note": 55,
      "start": 52.5771,
      "duration": 0.5493,
      "velocity": 100,
      "chip": "ym2612"
    },
    {
      "channel": 3,
      "note": 79,
      "start": 52.7637,
      "duration": 0.1769,
      "velocity": 115,
      "chip": "ym2612"
    },
    {
      "channel": 3,
      "note": 79,
      "start": 52.9487,
      "duration": 0.1778,
      "velocity": 115,
      "chip": "ym2612"
    },
    {
      "channel": 2,
      "note": 58,
      "start": 53.1346,
      "duration": 0.3633,
      "velocity": 100,
      "chip": "ym2612"
    },
    {
      "channel": 3,
      "note": 79,
      "start": 53.136,
      "duration": 0.362,
      "velocity": 112,
      "chip": "ym2612"
    },
    {
      "channel": 2,
      "note": 51,
      "start": 53.5059,
      "duration": 0.5491,
      "velocity": 100,
      "chip": "ym2612"
    },
    {
      "channel": 3,
      "note": 79,
      "start": 53.5073,
      "duration": 0.1763,
      "velocity": 115,
      "chip": "ym2612"
    },
    {
      "channel": 4,
      "note": 46,
      "start": 53.5078,
      "duration": 1.1049,
      "velocity": 102,
      "chip": "ym2612"
    },
    {
      "channel": 5,
      "note": 39,
      "start": 53.5083,
      "duration": 1.1045,
      "velocity": 102,
      "chip": "ym2612"
    },
    {
      "channel": 3,
      "note": 79,
      "start": 53.6918,
      "duration": 0.1775,
      "velocity": 115,
      "chip": "ym2612"
    },
    {
      "channel": 3,
      "note": 79,
      "start": 53.8784,
      "duration": 0.3626,
      "velocity": 112,
      "chip": "ym2612"
    },
    {
      "channel": 2,
      "note": 51,
      "start": 54.0632,
      "duration": 0.5493,
      "velocity": 100,
      "chip": "ym2612"
    },
    {
      "channel": 0,
      "note": 86,
      "start": 54.249,
      "duration": 0.3633,
      "velocity": 98,
      "chip": "ym2612"
    },
    {
      "channel": 3,
      "note": 79,
      "start": 54.2504,
      "duration": 0.1762,
      "velocity": 115,
      "chip": "ym2612"
    },
    {
      "channel": 3,
      "note": 79,
      "start": 54.4351,
      "duration": 0.1774,
      "velocity": 115,
      "chip": "ym2612"
    },
    {
      "channel": 1,
      "note": 86,
      "start": 54.5277,
      "duration": 0.3634,
      "velocity": 98,
      "chip": "ym2612"
    },
    {
      "channel": 0,
      "note": 87,
      "start": 54.6205,
      "duration": 0.3634,
      "velocity": 98,
      "chip": "ym2612"
    },
    {
      "channel": 2,
      "note": 51,
      "start": 54.621,
      "duration": 0.3631,
      "velocity": 100,
      "chip": "ym2612"
    },
    {
      "channel": 3,
      "note": 79,
      "start": 54.6224,
      "duration": 0.3618,
      "velocity": 112,
      "chip": "ym2612"
    },
    {
      "channel": 4,
      "note": 46,
      "start": 54.6228,
      "duration": 0.3617,
      "velocity": 102,
      "chip": "ym2612"
    },
    {
      "channel": 5,
      "note": 39,
      "start": 54.6233,
      "duration": 0.3613,
      "velocity": 102,
      "chip": "ym2612"
    },
    {
      "channel": 1,
      "note": 87,
      "start": 54.8992,
      "duration": 0.3633,
      "velocity": 98,
      "chip": "ym2612"
    },
    {
      "channel": 0,
      "note": 89,
      "start": 54.9921,
      "duration": 1.1065,
      "velocity": 98,
      "chip": "ym2612"
    },
    {
      "channel": 2,
      "note": 53,
      "start": 54.9925,
      "duration": 0.5487,
      "velocity": 100,
      "chip": "ym2612"
    },
    {
      "channel": 3,
      "note": 79,
      "start": 54.9939,
      "duration": 0.1758,
      "velocity": 115,
      "chip": "ym2612"
    },
    {
      "channel": 4,
      "note": 48,
      "start": 54.9946,
      "duration": 1.4758,
      "velocity": 102,
      "chip": "ym2612"
    },
    {
      "channel": 5,
      "note": 41,
      "start": 54.9951,
      "duration": 1.4754,
      "velocity": 102,
      "chip": "ym2612"
    },
    {
      "channel": 3,
      "note": 79,
      "start": 55.1778,
      "duration": 0.1776,
      "velocity": 115,
      "chip": "ym2612"
    },
    {
      "channel": 1,
      "note": 89,
      "start": 55.2708,
      "duration": 1.1063,
      "velocity": 98,
      "chip": "ym2612"
    },
    {
      "channel": 3,
      "note": 79,
      "start": 55.3646,
      "duration": 0.3623,
      "velocity": 112,
      "chip": "ym2612"
    },
    {
      "channel": 2,
      "note": 53,
      "start": 55.5493,
      "duration": 0.5494,
      "velocity": 100,
      "chip": "ym2612"
    },
    {
      "channel": 3,
      "note": 79,
      "start": 55.7359,
      "duration": 0.1768,
      "velocity": 115,
      "chip": "ym2612"
    },
    {
      "channel": 3,
      "note": 79,
      "start": 55.9208,
      "duration": 0.1779,
      "velocity": 115,
      "chip": "ym2612"
    },
    {
      "channel": 0,
      "note": 93,
      "start": 56.1066,
      "duration": 0.3635,
      "velocity": 98,
      "chip": "ym2612"
    },
    {
      "channel": 2,
      "note": 53,
      "start": 56.1071,
      "duration": 0.3631,
      "velocity": 100,
      "chip": "ym2612"
    },
    {
      "channel": 3,
      "note": 79,
      "start": 56.1084,
      "duration": 0.3619,
      "velocity": 112,
      "chip": "ym2612"
    },
    {
      "channel": 1,
      "note": 93,
      "start": 56.3852,
      "duration": 0.3634,
      "velocity": 98,
      "chip": "ym2612"
    },
    {
      "channel": 0,
      "note": 94,
      "start": 56.4781,
      "duration": 1.478,
      "velocity": 98,
      "chip": "ym2612"
    },
    {
      "channel": 2,
      "note": 58,
      "start": 56.4785,
      "duration": 0.5487,
      "velocity": 100,
      "chip": "ym2612"
    },
    {
      "channel": 3,
      "note": 79,
      "start": 56.48,
      "duration": 0.1758,
      "velocity": 115,
      "chip": "ym2612"
    },
    {
      "channel": 4,
      "note": 50,
      "start": 56.4805,
      "duration": 1.1043,
      "velocity": 102,
      "chip": "ym2612"
    },
    {
      "channel": 5,
      "note": 43,
      "start": 56.4809,
      "duration": 1.1039,
      "velocity": 102,
      "chip": "ym2612"
    },
    {
      "channel": 3,
      "note": 79,
      "start": 56.6639,
      "duration": 0.1777,
      "velocity": 115,
      "chip": "ym2612"
    },
    {
      "channel": 1,
      "note": 94,
      "start": 56.7568,
      "duration": 1.4779,
      "velocity": 98,
      "chip": "ym2612"
    },
    {
      "channel": 3,
      "note": 79,
      "start": 56.8505,
      "duration": 0.3625,
      "velocity": 112,
      "chip": "ym2612"
    },
    {
      "channel": 2,
      "note": 58,
      "start": 57.0354,
      "duration": 1.2922,
      "velocity": 100,
      "chip": "ym2612"
    },
    {
      "channel": 3,
      "note": 79,
      "start": 57.2221,
      "duration": 0.1768,
      "velocity": 115,
      "chip": "ym2612"
    },
    {
      "channel": 3,
      "note": 79,
      "start": 57.407,
      "duration": 0.1777,
      "velocity": 115,
      "chip": "ym2612"
    },
    {
      "channel": 3,
      "note": 79,
      "start": 57.5936,
      "duration": 0.3626,
      "velocity": 112,
      "chip": "ym2612"
    },
    {
      "channel": 4,
      "note": 50,
      "start": 57.5941,
      "duration": 0.3622,
      "velocity": 102,
      "chip": "ym2612"
    },
    {
      "channel": 5,
      "note": 43,
      "start": 57.5949,
      "duration": 0.3615,
      "velocity": 102,
      "chip": "ym2612"
    },
    {
      "channel": 0,
      "note": 89,
      "start": 57.9641,
      "duration": 1.482,
      "velocity": 98,
      "chip": "ym2612"
    },
    {
      "channel": 3,
      "note": 79,
      "start": 57.9657,
      "duration": 0.1761,
      "velocity": 115,
      "chip": "ym2612"
    },
    {
      "channel": 4,
      "note": 50,
      "start": 57.9662,
      "duration": 0.7369,
      "velocity": 102,
      "chip": "ym2612"
    },
    {
      "channel": 5,
      "note": 43,
      "start": 57.9667,
      "duration": 0.7365,
      "velocity": 102,
      "chip": "ym2612"
    },
    {
      "channel": 3,
      "note": 79,
      "start": 58.1501,
      "duration": 0.1776,
      "velocity": 115,
      "chip": "ym2612"
    },
    {
      "channel": 1,
      "note": 89,
      "start": 58.2428,
      "duration": 1.2037,
      "velocity": 98,
      "chip": "ym2612"
    },
    {
      "channel": 2,
      "note": 70,
      "start": 58.3358,
      "duration": 0.1775,
      "velocity": 100,
      "chip": "ym2612"
    },
    {
      "channel": 3,
      "note": 79,
      "start": 58.3371,
      "duration": 0.3659,
      "velocity": 112,
      "chip": "ym2612"
    },
    {
      "channel": 2,
      "note": 58,
      "start": 58.5214,
      "duration": 0.3678,
      "velocity": 100,
      "chip": "ym2612"
    },
    {
      "channel": 3,
      "note": 79,
      "start": 58.712,
      "duration": 0.1772,
      "velocity": 115,
      "chip": "ym2612"
    },
    {
      "channel": 4,
      "note": 48,
      "start": 58.7125,
      "duration": 0.7339,
      "velocity": 102,
      "chip": "ym2612"
    },
    {
      "channel": 5,
      "note": 41,
      "start": 58.713,
      "duration": 0.7335,
      "velocity": 102,
      "chip": "ym2612"
    },
    {
      "channel": 2,
      "note": 70,
      "start": 58.8969,
      "duration": 0.1777,
      "velocity": 100,
      "chip": "ym2612"
    },
    {
      "channel": 3,
      "note": 79,
      "start": 58.8974,
      "duration": 0.1773,
      "velocity": 115,
      "chip": "ym2612"
    },
    {
      "channel": 2,
      "note": 58,
      "start": 59.0827,
      "duration": 0.3635,
      "velocity": 100,
      "chip": "ym2612"
    },
    {
      "channel": 3,
      "note": 79,
      "start": 59.084,
      "duration": 0.3623,
      "velocity": 112,
      "chip": "ym2612"
    },
    {
      "channel": 0,
      "note": 65,
      "start": 59.4556,
      "duration": 0.3619,
      "velocity": 103,
      "chip": "ym2612"
    },
    {
      "channel": 2,
      "note": 58,
      "start": 59.4571,
      "duration": 0.5463,
      "velocity": 100,
      "chip": "ym2612"
    },
    {
      "channel": 3,
      "note": 79,
      "start": 59.4587,
      "duration": 0.1732,
      "velocity": 115,
      "chip": "ym2612"
    },
    {
      "channel": 4,
      "note": 98,
      "start": 59.4603,
      "duration": 0.3574,
      "velocity": 102,
      "chip": "ym2612"
    },
    {
      "channel": 5,
      "note": 94,
      "start": 59.462,
      "duration": 0.3558,
      "velocity": 102,
      "chip": "ym2612"
    },
    {
      "channel": 3,
      "note": 79,
      "start": 59.6399,
      "duration": 0.1777,
      "velocity": 115,
      "chip": "ym2612"
    },
    {
      "channel": 1,
      "note": 65,
      "start": 59.7339,
      "duration": 0.2753,
      "velocity": 103,
      "chip": "ym2612"
    },
    {
      "channel": 0,
      "note": 70,
      "start": 59.8258,
      "duration": 0.1775,
      "velocity": 103,
      "chip": "ym2612"
    },
    {
      "channel": 3,
      "note": 79,
      "start": 59.8263,
      "duration": 0.1772,
      "velocity": 115,
      "chip": "ym2612"
    },
    {
      "channel": 4,
      "note": 99,
      "start": 59.8268,
      "duration": 0.1768,
      "velocity": 102,
      "chip": "ym2612"
    },
    {
      "channel": 5,
      "note": 96,
      "start": 59.8273,
      "duration": 0.1763,
      "velocity": 102,
      "chip": "ym2612"
    }
  ]
}