{
  "track_name": "08 - Devilish Forest BGM",
  "duration_sec": 99.699,
  "sample_rate": 44100,
  "note_count": 1801,
  "unique_pitches": 51,
  "pitch_range": 54,
  "avg_note_duration": 0.1792,
  "reconstruction_stats": {
    "notes_reconstructed": 1801,
    "keyon_events": 1801,
    "keyoff_events": 1798,
    "orphan_keyons": 3,
    "unique_pitches": 51,
    "pitch_range": 54,
    "avg_duration_sec": 0.1792
  },
  "metadata": {
    "source": "Y\\Yu Yu Hakusho - Makyou Touitsusen\\08 - Devilish Forest BGM.vgz"
  },
  "notes": [
    {
      "channel": 0,
      "note": 61,
      "start": 0.0,
      "duration": 0.0079,
      "velocity": 126,
      "chip": "ym2612"
    },
    {
      "channel": 3,
      "note": 61,
      "start": 0.0039,
      "duration": 0.0051,
      "velocity": 126,
      "chip": "ym2612"
    },
    {
      "channel": 1,
      "note": 71,
      "start": 0.0083,
      "duration": 0.0397,
      "velocity": 87,
      "chip": "ym2612"
    },
    {
      "channel": 4,
      "note": 71,
      "start": 0.0093,
      "duration": 0.0411,
      "velocity": 106,
      "chip": "ym2612"
    },
    {
      "channel": 2,
      "note": 71,
      "start": 0.0147,
      "duration": 0.0383,
      "velocity": 85,
      "chip": "ym2612"
    },
    {
      "channel": 0,
      "note": 54,
      "start": 0.0479,
      "duration": 0.0062,
      "velocity": 126,
      "chip": "ym2612"
    },
    {
      "channel": 1,
      "note": 66,
      "start": 0.0483,
      "duration": 0.0061,
      "velocity": 87,
      "chip": "ym2612"
    },
    {
      "channel": 3,
      "note": 54,
      "start": 0.0503,
      "duration": 0.0062,
      "velocity": 126,
      "chip": "ym2612"
    },
    {
      "channel": 4,
      "note": 66,
      "start": 0.0506,
      "duration": 0.0062,
      "velocity": 106,
      "chip": "ym2612"
    },
    {
      "channel": 2,
      "note": 66,
      "start": 0.0533,
      "duration": 0.0106,
      "velocity": 85,
      "chip": "ym2612"
    },
    {
      "channel": 0,
      "note": 61,
      "start": 0.0543,
      "duration": 0.0427,
      "velocity": 126,
      "chip": "ym2612"
    },
    {
      "channel": 1,
      "note": 73,
      "start": 0.0546,
      "duration": 0.0427,
      "velocity": 87,
      "chip": "ym2612"
    },
    {
      "channel": 3,
      "note": 61,
      "start": 0.0568,
      "duration": 0.043,
      "velocity": 126,
      "chip": "ym2612"
    },
    {
      "channel": 4,
      "note": 73,
      "start": 0.0571,
      "duration": 0.043,
      "velocity": 106,
      "chip": "ym2612"
    },
    {
      "channel": 2,
      "note": 73,
      "start": 0.0642,
      "duration": 0.0387,
      "velocity": 85,
      "chip": "ym2612"
    },
    {
      "channel": 0,
      "note": 54,
      "start": 0.0973,
      "duration": 0.0068,
      "velocity": 126,
      "chip": "ym2612"
    },
    {
      "channel": 1,
      "note": 66,
      "start": 0.0977,
      "duration": 0.0066,
      "velocity": 87,
      "chip": "ym2612"
    },
    {
      "channel": 3,
      "note": 54,
      "start": 0.1,
      "duration": 0.0073,
      "velocity": 126,
      "chip": "ym2612"
    },
    {
      "channel": 4,
      "note": 66,
      "start": 0.1003,
      "duration": 0.0073,
      "velocity": 106,
      "chip": "ym2612"
    },
    {
      "channel": 2,
      "note": 66,
      "start": 0.1032,
      "duration": 0.0107,
      "velocity": 85,
      "chip": "ym2612"
    },
    {
      "channel": 0,
      "note": 61,
      "start": 0.1043,
      "duration": 0.0427,
      "velocity": 126,
      "chip": "ym2612"
    },
    {
      "channel": 1,
      "note": 71,
      "start": 0.1046,
      "duration": 0.0428,
      "velocity": 87,
      "chip": "ym2612"
    },
    {
      "channel": 3,
      "note": 61,
      "start": 0.1075,
      "duration": 0.0422,
      "velocity": 126,
      "chip": "ym2612"
    },
    {
      "channel": 4,
      "note": 71,
      "start": 0.1078,
      "duration": 0.0422,
      "velocity": 106,
      "chip": "ym2612"
    },
    {
      "channel": 2,
      "note": 71,
      "start": 0.1142,
      "duration": 0.0387,
      "velocity": 85,
      "chip": "ym2612"
    },
    {
      "channel": 0,
      "note": 59,
      "start": 0.1473,
      "duration": 0.0494,
      "velocity": 126,
      "chip": "ym2612"
    },
    {
      "channel": 1,
      "note": 66,
      "start": 0.1477,
      "duration": 0.0071,
      "velocity": 87,
      "chip": "ym2612"
    },
    {
      "channel": 3,
      "note": 59,
      "start": 0.1499,
      "duration": 0.0496,
      "velocity": 126,
      "chip": "ym2612"
    },
    {
      "channel": 4,
      "note": 66,
      "start": 0.1502,
      "duration": 0.0068,
      "velocity": 106,
      "chip": "ym2612"
    },
    {
      "channel": 2,
      "note": 66,
      "start": 0.1531,
      "duration": 0.0106,
      "velocity": 85,
      "chip": "ym2612"
    },
    {
      "channel": 1,
      "note": 76,
      "start": 0.1551,
      "duration": 0.0421,
      "velocity": 87,
      "chip": "ym2612"
    },
    {
      "channel": 4,
      "note": 76,
      "start": 0.1572,
      "duration": 0.0426,
      "velocity": 106,
      "chip": "ym2612"
    },
    {
      "channel": 2,
      "note": 76,
      "start": 0.164,
      "duration": 0.0393,
      "velocity": 85,
      "chip": "ym2612"
    },
    {
      "channel": 0,
      "note": 52,
      "start": 0.1971,
      "duration": 0.0146,
      "velocity": 126,
      "chip": "ym2612"
    },
    {
      "channel": 1,
      "note": 66,
      "start": 0.1975,
      "duration": 0.0076,
      "velocity": 87,
      "chip": "ym2612"
    },
    {
      "channel": 3,
      "note": 52,
      "start": 0.1997,
      "duration": 0.0137,
      "velocity": 126,
      "chip": "ym2612"
    },
    {
      "channel": 4,
      "note": 66,
      "start": 0.2,
      "duration": 0.0076,
      "velocity": 106,
      "chip": "ym2612"
    },
    {
      "channel": 2,
      "note": 66,
      "start": 0.2035,
      "duration": 0.007,
      "velocity": 85,
      "chip": "ym2612"
    },
    {
      "channel": 1,
      "note": 71,
      "start": 0.2055,
      "duration": 0.0066,
      "velocity": 87,
      "chip": "ym2612"
    },
    {
      "channel": 4,
      "note": 71,
      "start": 0.2078,
      "duration": 0.0059,
      "velocity": 106,
      "chip": "ym2612"
    },
    {
      "channel": 2,
      "note": 71,
      "start": 0.2107,
      "duration": 0.0096,
      "velocity": 85,
      "chip": "ym2612"
    },
    {
      "channel": 0,
      "note": 54,
      "start": 0.212,
      "duration": 0.1749,
      "velocity": 126,
      "chip": "ym2612"
    },
    {
      "channel": 3,
      "note": 54,
      "start": 0.2137,
      "duration": 0.176,
      "velocity": 126,
      "chip": "ym2612"
    },
    {
      "channel": 1,
      "note": 73,
      "start": 0.2539,
      "duration": 0.1334,
      "velocity": 87,
      "chip": "ym2612"
    },
    {
      "channel": 4,
      "note": 73,
      "start": 0.2877,
      "duration": 0.1023,
      "velocity": 106,
      "chip": "ym2612"
    },
    {
      "channel": 2,
      "note": 73,
      "start": 0.3541,
      "duration": 0.0374,
      "velocity": 85,
      "chip": "ym2612"
    },
    {
      "channel": 0,
      "note": 61,
      "start": 0.3872,
      "duration": 0.0048,
      "velocity": 126,
      "chip": "ym2612"
    },
    {
      "channel": 3,
      "note": 61,
      "start": 0.3899,
      "duration": 0.003,
      "velocity": 126,
      "chip": "ym2612"
    },
    {
      "channel": 1,
      "note": 71,
      "start": 0.3922,
      "duration": 0.0579,
      "velocity": 87,
      "chip": "ym2612"
    },
    {
      "channel": 4,
      "note": 71,
      "start": 0.3932,
      "duration": 0.0591,
      "velocity": 106,
      "chip": "ym2612"
    },
    {
      "channel": 2,
      "note": 71,
      "start": 0.4002,
      "duration": 0.055,
      "velocity": 85,
      "chip": "ym2612"
    },
    {
      "channel": 0,
      "note": 54,
      "start": 0.45,
      "duration": 0.0067,
      "velocity": 126,
      "chip": "ym2612"
    },
    {
      "channel": 1,
      "note": 66,
      "start": 0.4504,
      "duration": 0.0067,
      "velocity": 87,
      "chip": "ym2612"
    },
    {
      "channel": 3,
      "note": 54,
      "start": 0.4523,
      "duration": 0.0071,
      "velocity": 126,
      "chip": "ym2612"
    },
    {
      "channel": 4,
      "note": 66,
      "start": 0.4526,
      "duration": 0.0071,
      "velocity": 106,
      "chip": "ym2612"
    },
    {
      "channel": 2,
      "note": 66,
      "start": 0.4554,
      "duration": 0.0077,
      "velocity": 85,
      "chip": "ym2612"
    },
    {
      "channel": 0,
      "note": 61,
      "start": 0.457,
      "duration": 0.0077,
      "velocity": 126,
      "chip": "ym2612"
    },
    {
      "channel": 1,
      "note": 73,
      "start": 0.4575,
      "duration": 0.0077,
      "velocity": 87,
      "chip": "ym2612"
    },
    {
      "channel": 3,
      "note": 61,
      "start": 0.4596,
      "duration": 0.0079,
      "velocity": 126,
      "chip": "ym2612"
    },
    {
      "channel": 4,
      "note": 73,
      "start": 0.4598,
      "duration": 0.008,
      "velocity": 106,
      "chip": "ym2612"
    },
    {
      "channel": 2,
      "note": 73,
      "start": 0.4633,
      "duration": 0.0073,
      "velocity": 85,
      "chip": "ym2612"
    },
    {
      "channel": 0,
      "note": 54,
      "start": 0.4651,
      "duration": 0.0067,
      "velocity": 126,
      "chip": "ym2612"
    },
    {
      "channel": 1,
      "note": 66,
      "start": 0.4655,
      "duration": 0.0065,
      "velocity": 87,
      "chip": "ym2612"
    },
    {
      "channel": 3,
      "note": 54,
      "start": 0.4678,
      "duration": 0.0063,
      "velocity": 126,
      "chip": "ym2612"
    },
    {
      "channel": 4,
      "note": 66,
      "start": 0.4681,
      "duration": 0.0064,
      "velocity": 106,
      "chip": "ym2612"
    },
    {
      "channel": 2,
      "note": 66,
      "start": 0.4708,
      "duration": 0.0107,
      "velocity": 85,
      "chip": "ym2612"
    },
    {
      "channel": 0,
      "note": 61,
      "start": 0.4719,
      "duration": 0.0427,
      "velocity": 126,
      "chip": "ym2612"
    },
    {
      "channel": 1,
      "note": 71,
      "start": 0.4723,
      "duration": 0.0427,
      "velocity": 87,
      "chip": "ym2612"
    },
    {
      "channel": 3,
      "note": 61,
      "start": 0.4744,
      "duration": 0.043,
      "velocity": 126,
      "chip": "ym2612"
    },
    {
      "channel": 4,
      "note": 71,
      "start": 0.4746,
      "duration": 0.0431,
      "velocity": 106,
      "chip": "ym2612"
    },
    {
      "channel": 2,
      "note": 71,
      "start": 0.4819,
      "duration": 0.0389,
      "velocity": 85,
      "chip": "ym2612"
    },
    {
      "channel": 0,
      "note": 59,
      "start": 0.5149,
      "duration": 0.0495,
      "velocity": 126,
      "chip": "ym2612"
    },
    {
      "channel": 1,
      "note": 66,
      "start": 0.5153,
      "duration": 0.0068,
      "velocity": 87,
      "chip": "ym2612"
    },
    {
      "channel": 3,
      "note": 59,
      "start": 0.5176,
      "duration": 0.0496,
      "velocity": 126,
      "chip": "ym2612"
    },
    {
      "channel": 4,
      "note": 66,
      "start": 0.5179,
      "duration": 0.0069,
      "velocity": 106,
      "chip": "ym2612"
    },
    {
      "channel": 2,
      "note": 66,
      "start": 0.5209,
      "duration": 0.0104,
      "velocity": 85,
      "chip": "ym2612"
    },
    {
      "channel": 1,
      "note": 76,
      "start": 0.5223,
      "duration": 0.0426,
      "velocity": 87,
      "chip": "ym2612"
    },
    {
      "channel": 4,
      "note": 76,
      "start": 0.5251,
      "duration": 0.0425,
      "velocity": 106,
      "chip": "ym2612"
    },
    {
      "channel": 2,
      "note": 76,
      "start": 0.5317,
      "duration": 0.0388,
      "velocity": 85,
      "chip": "ym2612"
    },
    {
      "channel": 0,
      "note": 52,
      "start": 0.5648,
      "duration": 0.008,
      "velocity": 126,
      "chip": "ym2612"
    },
    {
      "channel": 1,
      "note": 66,
      "start": 0.5652,
      "duration": 0.0078,
      "velocity": 87,
      "chip": "ym2612"
    },
    {
      "channel": 3,
      "note": 52,
      "start": 0.5675,
      "duration": 0.0078,
      "velocity": 126,
      "chip": "ym2612"
    },
    {
      "channel": 4,
      "note": 66,
      "start": 0.5677,
      "duration": 0.0077,
      "velocity": 106,
      "chip": "ym2612"
    },
    {
      "channel": 2,
      "note": 66,
      "start": 0.5707,
      "duration": 0.007,
      "velocity": 85,
      "chip": "ym2612"
    },
    {
      "channel": 1,
      "note": 71,
      "start": 0.5734,
      "duration": 0.0053,
      "velocity": 87,
      "chip": "ym2612"
    },
    {
      "channel": 4,
      "note": 71,
      "start": 0.5756,
      "duration": 0.0039,
      "velocity": 106,
      "chip": "ym2612"
    },
    {
      "channel": 2,
      "note": 71,
      "start": 0.578,
      "duration": 0.0083,
      "velocity": 85,
      "chip": "ym2612"
    },
    {
      "channel": 1,
      "note": 73,
      "start": 0.6199,
      "duration": 0.0062,
      "velocity": 87,
      "chip": "ym2612"
    },
    {
      "channel": 4,
      "note": 73,
      "start": 0.6216,
      "duration": 0.0067,
      "velocity": 106,
      "chip": "ym2612"
    },
    {
      "channel": 2,
      "note": 73,
      "start": 0.6237,
      "duration": 0.0067,
      "velocity": 85,
      "chip": "ym2612"
    },
    {
      "channel": 0,
      "note": 61,
      "start": 0.6261,
      "duration": 0.0047,
      "velocity": 126,
      "chip": "ym2612"
    },
    {
      "channel": 3,
      "note": 61,
      "start": 0.6283,
      "duration": 0.0036,
      "velocity": 126,
      "chip": "ym2612"
    },
    {
      "channel": 1,
      "note": 71,
      "start": 0.6312,
      "duration": 0.0415,
      "velocity": 87,
      "chip": "ym2612"
    },
    {
      "channel": 4,
      "note": 71,
      "start": 0.6322,
      "duration": 0.0434,
      "velocity": 106,
      "chip": "ym2612"
    },
    {
      "channel": 2,
      "note": 71,
      "start": 0.6394,
      "duration": 0.0391,
      "velocity": 85,
      "chip": "ym2612"
    },
    {
      "channel": 0,
      "note": 54,
      "start": 0.6726,
      "duration": 0.0075,
      "velocity": 126,
      "chip": "ym2612"
    },
    {
      "channel": 1,
      "note": 66,
      "start": 0.673,
      "duration": 0.0075,
      "velocity": 87,
      "chip": "ym2612"
    },
    {
      "channel": 3,
      "note": 54,
      "start": 0.6755,
      "duration": 0.0075,
      "velocity": 126,
      "chip": "ym2612"
    },
    {
      "channel": 4,
      "note": 66,
      "start": 0.6759,
      "duration": 0.0074,
      "velocity": 106,
      "chip": "ym2612"
    },
    {
      "channel": 2,
      "note": 66,
      "start": 0.6787,
      "duration": 0.0073,
      "velocity": 85,
      "chip": "ym2612"
    },
    {
      "channel": 0,
      "note": 61,
      "start": 0.6805,
      "duration": 0.0074,
      "velocity": 126,
      "chip": "ym2612"
    },
    {
      "channel": 1,
      "note": 73,
      "start": 0.6809,
      "duration": 0.0074,
      "velocity": 87,
      "chip": "ym2612"
    },
    {
      "channel": 3,
      "note": 61,
      "start": 0.6832,
      "duration": 0.0074,
      "velocity": 126,
      "chip": "ym2612"
    },
    {
      "channel": 4,
      "note": 73,
      "start": 0.6836,
      "duration": 0.0073,
      "velocity": 106,
      "chip": "ym2612"
    },
    {
      "channel": 2,
      "note": 73,
      "start": 0.6862,
      "duration": 0.0074,
      "velocity": 85,
      "chip": "ym2612"
    },
    {
      "channel": 0,
      "note": 54,
      "start": 0.6882,
      "duration": 0.0067,
      "velocity": 126,
      "chip": "ym2612"
    },
    {
      "channel": 1,
      "note": 66,
      "start": 0.6886,
      "duration": 0.0065,
      "velocity": 87,
      "chip": "ym2612"
    },
    {
      "channel": 3,
      "note": 54,
      "start": 0.6908,
      "duration": 0.0063,
      "velocity": 126,
      "chip": "ym2612"
    },
    {
      "channel": 4,
      "note": 66,
      "start": 0.691,
      "duration": 0.0065,
      "velocity": 106,
      "chip": "ym2612"
    },
    {
      "channel": 2,
      "note": 66,
      "start": 0.6938,
      "duration": 0.0108,
      "velocity": 85,
      "chip": "ym2612"
    },
    {
      "channel": 0,
      "note": 61,
      "start": 0.695,
      "duration": 0.0426,
      "velocity": 126,
      "chip": "ym2612"
    },
    {
      "channel": 1,
      "note": 71,
      "start": 0.6954,
      "duration": 0.0427,
      "velocity": 87,
      "chip": "ym2612"
    },
    {
      "channel": 3,
      "note": 61,
      "start": 0.6975,
      "duration": 0.043,
      "velocity": 126,
      "chip": "ym2612"
    },
    {
      "channel": 4,
      "note": 71,
      "start": 0.6977,
      "duration": 0.043,
      "velocity": 106,
      "chip": "ym2612"
    },
    {
      "channel": 2,
      "note": 71,
      "start": 0.705,
      "duration": 0.0385,
      "velocity": 85,
      "chip": "ym2612"
    },
    {
      "channel": 0,
      "note": 59,
      "start": 0.738,
      "duration": 0.049,
      "velocity": 126,
      "chip": "ym2612"
    },
    {
      "channel": 1,
      "note": 66,
      "start": 0.7384,
      "duration": 0.0064,
      "velocity": 87,
      "chip": "ym2612"
    },
    {
      "channel": 3,
      "note": 59,
      "start": 0.7407,
      "duration": 0.0491,
      "velocity": 126,
      "chip": "ym2612"
    },
    {
      "channel": 4,
      "note": 66,
      "start": 0.7409,
      "duration": 0.0059,
      "velocity": 106,
      "chip": "ym2612"
    },
    {
      "channel": 2,
      "note": 66,
      "start": 0.7437,
      "duration": 0.0104,
      "velocity": 85,
      "chip": "ym2612"
    },
    {
      "channel": 1,
      "note": 76,
      "start": 0.745,
      "duration": 0.0425,
      "velocity": 87,
      "chip": "ym2612"
    },
    {
      "channel": 4,
      "note": 76,
      "start": 0.7469,
      "duration": 0.0432,
      "velocity": 106,
      "chip": "ym2612"
    },
    {
      "channel": 2,
      "note": 76,
      "start": 0.7543,
      "duration": 0.0388,
      "velocity": 85,
      "chip": "ym2612"
    },
    {
      "channel": 0,
      "note": 52,
      "start": 0.7874,
      "duration": 0.0148,
      "velocity": 126,
      "chip": "ym2612"
    },
    {
      "channel": 1,
      "note": 66,
      "start": 0.7878,
      "duration": 0.0069,
      "velocity": 87,
      "chip": "ym2612"
    },
    {
      "channel": 3,
      "note": 52,
      "start": 0.7901,
      "duration": 0.0138,
      "velocity": 126,
      "chip": "ym2612"
    },
    {
      "channel": 4,
      "note": 66,
      "start": 0.7904,
      "duration": 0.0077,
      "velocity": 106,
      "chip": "ym2612"
    },
    {
      "channel": 2,
      "note": 66,
      "start": 0.7933,
      "duration": 0.0077,
      "velocity": 85,
      "chip": "ym2612"
    },
    {
      "channel": 1,
      "note": 71,
      "start": 0.795,
      "duration": 0.0074,
      "velocity": 87,
      "chip": "ym2612"
    },
    {
      "channel": 4,
      "note": 71,
      "start": 0.7983,
      "duration": 0.0059,
      "velocity": 106,
      "chip": "ym2612"
    },
    {
      "channel": 2,
      "note": 71,
      "start": 0.8011,
      "duration": 0.009,
      "velocity": 85,
      "chip": "ym2612"
    },
    {
      "channel": 0,
      "note": 54,
      "start": 0.8024,
      "duration": 0.1909,
      "velocity": 126,
      "chip": "ym2612"
    },
    {
      "channel": 3,
      "note": 54,
      "start": 0.8041,
      "duration": 0.1914,
      "velocity": 126,
      "chip": "ym2612"
    },
    {
      "channel": 1,
      "note": 73,
      "start": 0.8604,
      "duration": 0.1334,
      "velocity": 87,
      "chip": "ym2612"
    },
    {
      "channel": 4,
      "note": 73,
      "start": 0.8941,
      "duration": 0.1016,
      "velocity": 106,
      "chip": "ym2612"
    },
    {
      "channel": 2,
      "note": 73,
      "start": 0.9605,
      "duration": 0.0373,
      "velocity": 85,
      "chip": "ym2612"
    },
    {
      "channel": 0,
      "note": 61,
      "start": 0.9936,
      "duration": 0.0047,
      "velocity": 126,
      "chip": "ym2612"
    },
    {
      "channel": 3,
      "note": 61,
      "start": 0.9957,
      "duration": 0.0037,
      "velocity": 126,
      "chip": "ym2612"
    },
    {
      "channel": 1,
      "note": 71,
      "start": 0.9986,
      "duration": 0.0415,
      "velocity": 87,
      "chip": "ym2612"
    },
    {
      "channel": 4,
      "note": 71,
      "start": 0.9997,
      "duration": 0.0427,
      "velocity": 106,
      "chip": "ym2612"
    },
    {
      "channel": 2,
      "note": 71,
      "start": 1.0067,
      "duration": 0.0389,
      "velocity": 85,
      "chip": "ym2612"
    },
    {
      "channel": 0,
      "note": 54,
      "start": 1.04,
      "duration": 0.0073,
      "velocity": 126,
      "chip": "ym2612"
    },
    {
      "channel": 1,
      "note": 66,
      "start": 1.0404,
      "duration": 0.0073,
      "velocity": 87,
      "chip": "ym2612"
    },
    {
      "channel": 3,
      "note": 54,
      "start": 1.0423,
      "duration": 0.0076,
      "velocity": 126,
      "chip": "ym2612"
    },
    {
      "channel": 4,
      "note": 66,
      "start": 1.0425,
      "duration": 0.0077,
      "velocity": 106,
      "chip": "ym2612"
    },
    {
      "channel": 2,
      "note": 66,
      "start": 1.0459,
      "duration": 0.0072,
      "velocity": 85,
      "chip": "ym2612"
    },
    {
      "channel": 0,
      "note": 61,
      "start": 1.0476,
      "duration": 0.007,
      "velocity": 126,
      "chip": "ym2612"
    },
    {
      "channel": 1,
      "note": 73,
      "start": 1.048,
      "duration": 0.007,
      "velocity": 87,
      "chip": "ym2612"
    },
    {
      "channel": 3,
      "note": 61,
      "start": 1.0502,
      "duration": 0.008,
      "velocity": 126,
      "chip": "ym2612"
    },
    {
      "channel": 4,
      "note": 73,
      "start": 1.0505,
      "duration": 0.0082,
      "velocity": 106,
      "chip": "ym2612"
    },
    {
      "channel": 2,
      "note": 73,
      "start": 1.0533,
      "duration": 0.0081,
      "velocity": 85,
      "chip": "ym2612"
    },
    {
      "channel": 0,
      "note": 54,
      "start": 1.0549,
      "duration": 0.0079,
      "velocity": 126,
      "chip": "ym2612"
    },
    {
      "channel": 1,
      "note": 66,
      "start": 1.0553,
      "duration": 0.0077,
      "velocity": 87,
      "chip": "ym2612"
    },
    {
      "channel": 3,
      "note": 54,
      "start": 1.0585,
      "duration": 0.0065,
      "velocity": 126,
      "chip": "ym2612"
    },
    {
      "channel": 4,
      "note": 66,
      "start": 1.0589,
      "duration": 0.0065,
      "velocity": 106,
      "chip": "ym2612"
    },
    {
      "channel": 2,
      "note": 66,
      "start": 1.0616,
      "duration": 0.0103,
      "velocity": 85,
      "chip": "ym2612"
    },
    {
      "channel": 0,
      "note": 61,
      "start": 1.0629,
      "duration": 0.0586,
      "velocity": 126,
      "chip": "ym2612"
    },
    {
      "channel": 1,
      "note": 71,
      "start": 1.0632,
      "duration": 0.0587,
      "velocity": 87,
      "chip": "ym2612"
    },
    {
      "channel": 3,
      "note": 61,
      "start": 1.0653,
      "duration": 0.059,
      "velocity": 126,
      "chip": "ym2612"
    },
    {
      "channel": 4,
      "note": 71,
      "start": 1.0655,
      "duration": 0.059,
      "velocity": 106,
      "chip": "ym2612"
    },
    {
      "channel": 2,
      "note": 71,
      "start": 1.0722,
      "duration": 0.0552,
      "velocity": 85,
      "chip": "ym2612"
    },
    {
      "channel": 0,
      "note": 59,
      "start": 1.1219,
      "duration": 0.0493,
      "velocity": 126,
      "chip": "ym2612"
    },
    {
      "channel": 1,
      "note": 66,
      "start": 1.1223,
      "duration": 0.0065,
      "velocity": 87,
      "chip": "ym2612"
    },
    {
      "channel": 3,
      "note": 59,
      "start": 1.1244,
      "duration": 0.0495,
      "velocity": 126,
      "chip": "ym2612"
    },
    {
      "channel": 4,
      "note": 66,
      "start": 1.1248,
      "duration": 0.0061,
      "velocity": 106,
      "chip": "ym2612"
    },
    {
      "channel": 2,
      "note": 66,
      "start": 1.1276,
      "duration": 0.0106,
      "velocity": 85,
      "chip": "ym2612"
    },
    {
      "channel": 1,
      "note": 76,
      "start": 1.129,
      "duration": 0.0426,
      "velocity": 87,
      "chip": "ym2612"
    },
    {
      "channel": 4,
      "note": 76,
      "start": 1.131,
      "duration": 0.0433,
      "velocity": 106,
      "chip": "ym2612"
    },
    {
      "channel": 2,
      "note": 76,
      "start": 1.1385,
      "duration": 0.0385,
      "velocity": 85,
      "chip": "ym2612"
    },
    {
      "channel": 0,
      "note": 52,
      "start": 1.1715,
      "duration": 0.0154,
      "velocity": 126,
      "chip": "ym2612"
    },
    {
      "channel": 1,
      "note": 66,
      "start": 1.1719,
      "duration": 0.0068,
      "velocity": 87,
      "chip": "ym2612"
    },
    {
      "channel": 3,
      "note": 52,
      "start": 1.1742,
      "duration": 0.0153,
      "velocity": 126,
      "chip": "ym2612"
    },
    {
      "channel": 4,
      "note": 66,
      "start": 1.1744,
      "duration": 0.0068,
      "velocity": 106,
      "chip": "ym2612"
    },
    {
      "channel": 2,
      "note": 66,
      "start": 1.1773,
      "duration": 0.0079,
      "velocity": 85,
      "chip": "ym2612"
    },
    {
      "channel": 1,
      "note": 71,
      "start": 1.179,
      "duration": 0.0083,
      "velocity": 87,
      "chip": "ym2612"
    },
    {
      "channel": 4,
      "note": 71,
      "start": 1.1816,
      "duration": 0.0083,
      "velocity": 106,
      "chip": "ym2612"
    },
    {
      "channel": 2,
      "note": 71,
      "start": 1.1854,
      "duration": 0.0076,
      "velocity": 85,
      "chip": "ym2612"
    },
    {
      "channel": 0,
      "note": 64,
      "start": 1.1873,
      "duration": 0.0149,
      "velocity": 126,
      "chip": "ym2612"
    },
    {
      "channel": 3,
      "note": 64,
      "start": 1.1898,
      "duration": 0.0179,
      "velocity": 113,
      "chip": "ym2612"
    },
    {
      "channel": 1,
      "note": 73,
      "start": 1.1948,
      "duration": 0.0095,
      "velocity": 126,
      "chip": "ym2612"
    },
    {
      "channel": 4,
      "note": 73,
      "start": 1.1982,
      "duration": 0.0099,
      "velocity": 106,
      "chip": "ym2612"
    },
    {
      "channel": 2,
      "note": 73,
      "start": 1.2005,
      "duration": 0.0112,
      "velocity": 126,
      "chip": "ym2612"
    },
    {
      "channel": 0,
      "note": 61,
      "start": 1.2025,
      "duration": 0.0108,
      "velocity": 126,
      "chip": "ym2612"
    },
    {
      "channel": 1,
      "note": 66,
      "start": 1.2045,
      "duration": 0.0088,
      "velocity": 126,
      "chip": "ym2612"
    },
    {
      "channel": 3,
      "note": 37,
      "start": 1.208,
      "duration": 0.0066,
      "velocity": 113,
      "chip": "ym2612"
    },
    {
      "channel": 2,
      "note": 66,
      "start": 1.212,
      "duration": 0.0077,
      "velocity": 126,
      "chip": "ym2612"
    },
    {
      "channel": 1,
      "note": 71,
      "start": 1.2135,
      "duration": 0.0399,
      "velocity": 126,
      "chip": "ym2612"
    },
    {
      "channel": 3,
      "note": 40,
      "start": 1.2148,
      "duration": 0.0408,
      "velocity": 113,
      "chip": "ym2612"
    },
    {
      "channel": 4,
      "note": 71,
      "start": 1.2151,
      "duration": 0.0409,
      "velocity": 106,
      "chip": "ym2612"
    },
    {
      "channel": 2,
      "note": 71,
      "start": 1.22,
      "duration": 0.0394,
      "velocity": 126,
      "chip": "ym2612"
    },
    {
      "channel": 0,
      "note": 54,
      "start": 1.2533,
      "duration": 0.0073,
      "velocity": 126,
      "chip": "ym2612"
    },
    {
      "channel": 1,
      "note": 73,
      "start": 1.2537,
      "duration": 0.0073,
      "velocity": 126,
      "chip": "ym2612"
    },
    {
      "channel": 3,
      "note": 42,
      "start": 1.2559,
      "duration": 0.0071,
      "velocity": 113,
      "chip": "ym2612"
    },
    {
      "channel": 4,
      "note": 66,
      "start": 1.2562,
      "duration": 0.0071,
      "velocity": 106,
      "chip": "ym2612"
    },
    {
      "channel": 2,
      "note": 73,
      "start": 1.2596,
      "duration": 0.0101,
      "velocity": 126,
      "chip": "ym2612"
    },
    {
      "channel": 0,
      "note": 61,
      "start": 1.2608,
      "duration": 0.0419,
      "velocity": 126,
      "chip": "ym2612"
    },
    {
      "channel": 1,
      "note": 78,
      "start": 1.2611,
      "duration": 0.1717,
      "velocity": 126,
      "chip": "ym2612"
    },
    {
      "channel": 3,
      "note": 47,
      "start": 1.2632,
      "duration": 0.1716,
      "velocity": 113,
      "chip": "ym2612"
    },
    {
      "channel": 4,
      "note": 73,
      "start": 1.2634,
      "duration": 0.0419,
      "velocity": 106,
      "chip": "ym2612"
    },
    {
      "channel": 2,
      "note": 78,
      "start": 1.27,
      "duration": 0.1712,
      "velocity": 126,
      "chip": "ym2612"
    },
    {
      "channel": 0,
      "note": 54,
      "start": 1.3031,
      "duration": 0.0069,
      "velocity": 126,
      "chip": "ym2612"
    },
    {
      "channel": 4,
      "note": 66,
      "start": 1.3056,
      "duration": 0.0066,
      "velocity": 106,
      "chip": "ym2612"
    },
    {
      "channel": 0,
      "note": 61,
      "start": 1.3101,
      "duration": 0.0418,
      "velocity": 126,
      "chip": "ym2612"
    },
    {
      "channel": 4,
      "note": 71,
      "start": 1.3125,
      "duration": 0.0429,
      "velocity": 106,
      "chip": "ym2612"
    },
    {
      "channel": 0,
      "note": 59,
      "start": 1.3522,
      "duration": 0.0657,
      "velocity": 126,
      "chip": "ym2612"
    },
    {
      "channel": 4,
      "note": 66,
      "start": 1.3557,
      "duration": 0.0058,
      "velocity": 106,
      "chip": "ym2612"
    },
    {
      "channel": 4,
      "note": 76,
      "start": 1.3616,
      "duration": 0.0592,
      "velocity": 106,
      "chip": "ym2612"
    },
    {
      "channel": 0,
      "note": 52,
      "start": 1.4183,
      "duration": 0.0143,
      "velocity": 126,
      "chip": "ym2612"
    },
    {
      "channel": 4,
      "note": 66,
      "start": 1.421,
      "duration": 0.0068,
      "velocity": 106,
      "chip": "ym2612"
    },
    {
      "channel": 4,
      "note": 71,
      "start": 1.428,
      "duration": 0.0071,
      "velocity": 106,
      "chip": "ym2612"
    },
    {
      "channel": 0,
      "note": 54,
      "start": 1.4328,
      "duration": 0.1915,
      "velocity": 126,
      "chip": "ym2612"
    },
    {
      "channel": 1,
      "note": 76,
      "start": 1.4331,
      "duration": 0.0412,
      "velocity": 126,
      "chip": "ym2612"
    },
    {
      "channel": 3,
      "note": 45,
      "start": 1.435,
      "duration": 0.0733,
      "velocity": 113,
      "chip": "ym2612"
    },
    {
      "channel": 2,
      "note": 76,
      "start": 1.4417,
      "duration": 0.1496,
      "velocity": 126,
      "chip": "ym2612"
    },
    {
      "channel": 1,
      "note": 75,
      "start": 1.4748,
      "duration": 0.15,
      "velocity": 126,
      "chip": "ym2612"
    },
    {
      "channel": 3,
      "note": 44,
      "start": 1.5086,
      "duration": 0.1186,
      "velocity": 113,
      "chip": "ym2612"
    },
    {
      "channel": 4,
      "note": 73,
      "start": 1.509,
      "duration": 0.1184,
      "velocity": 106,
      "chip": "ym2612"
    },
    {
      "channel": 2,
      "note": 75,
      "start": 1.5916,
      "duration": 0.0379,
      "velocity": 126,
      "chip": "ym2612"
    },
    {
      "channel": 0,
      "note": 61,
      "start": 1.6247,
      "duration": 0.0058,
      "velocity": 126,
      "chip": "ym2612"
    },
    {
      "channel": 1,
      "note": 71,
      "start": 1.6251,
      "duration": 0.1606,
      "velocity": 126,
      "chip": "ym2612"
    },
    {
      "channel": 3,
      "note": 42,
      "start": 1.6273,
      "duration": 0.1615,
      "velocity": 113,
      "chip": "ym2612"
    },
    {
      "channel": 2,
      "note": 71,
      "start": 1.6297,
      "duration": 0.1623,
      "velocity": 126,
      "chip": "ym2612"
    },
    {
      "channel": 4,
      "note": 71,
      "start": 1.6328,
      "duration": 0.0426,
      "velocity": 106,
      "chip": "ym2612"
    },
    {
      "channel": 0,
      "note": 54,
      "start": 1.673,
      "duration": 0.007,
      "velocity": 126,
      "chip": "ym2612"
    },
    {
      "channel": 4,
      "note": 66,
      "start": 1.6756,
      "duration": 0.0073,
      "velocity": 106,
      "chip": "ym2612"
    },
    {
      "channel": 0,
      "note": 61,
      "start": 1.6805,
      "duration": 0.0064,
      "velocity": 126,
      "chip": "ym2612"
    },
    {
      "channel": 4,
      "note": 73,
      "start": 1.6832,
      "duration": 0.0068,
      "velocity": 106,
      "chip": "ym2612"
    },
    {
      "channel": 0,
      "note": 54,
      "start": 1.6873,
      "duration": 0.0073,
      "velocity": 126,
      "chip": "ym2612"
    },
    {
      "channel": 4,
      "note": 66,
      "start": 1.6902,
      "duration": 0.0067,
      "velocity": 106,
      "chip": "ym2612"
    },
    {
      "channel": 0,
      "note": 61,
      "start": 1.6948,
      "duration": 0.0416,
      "velocity": 126,
      "chip": "ym2612"
    },
    {
      "channel": 4,
      "note": 71,
      "start": 1.6971,
      "duration": 0.0419,
      "velocity": 106,
      "chip": "ym2612"
    },
    {
      "channel": 0,
      "note": 59,
      "start": 1.7367,
      "duration": 0.0486,
      "velocity": 126,
      "chip": "ym2612"
    },
    {
      "channel": 4,
      "note": 66,
      "start": 1.7393,
      "duration": 0.0063,
      "velocity": 106,
      "chip": "ym2612"
    },
    {
      "channel": 4,
      "note": 76,
      "start": 1.7458,
      "duration": 0.0434,
      "velocity": 106,
      "chip": "ym2612"
    },
    {
      "channel": 0,
      "note": 52,
      "start": 1.7857,
      "duration": 0.0077,
      "velocity": 126,
      "chip": "ym2612"
    },
    {
      "channel": 1,
      "note": 68,
      "start": 1.7861,
      "duration": 0.0135,
      "velocity": 126,
      "chip": "ym2612"
    },
    {
      "channel": 3,
      "note": 37,
      "start": 1.7891,
      "duration": 0.0122,
      "velocity": 113,
      "chip": "ym2612"
    },
    {
      "channel": 4,
      "note": 66,
      "start": 1.7893,
      "duration": 0.0065,
      "velocity": 106,
      "chip": "ym2612"
    },
    {
      "channel": 2,
      "note": 68,
      "start": 1.7922,
      "duration": 0.0159,
      "velocity": 126,
      "chip": "ym2612"
    },
    {
      "channel": 4,
      "note": 71,
      "start": 1.796,
      "duration": 0.0056,
      "velocity": 106,
      "chip": "ym2612"
    },
    {
      "channel": 1,
      "note": 71,
      "start": 1.7998,
      "duration": 0.0505,
      "velocity": 126,
      "chip": "ym2612"
    },
    {
      "channel": 3,
      "note": 42,
      "start": 1.8016,
      "duration": 0.0514,
      "velocity": 113,
      "chip": "ym2612"
    },
    {
      "channel": 2,
      "note": 71,
      "start": 1.8084,
      "duration": 0.047,
      "velocity": 126,
      "chip": "ym2612"
    },
    {
      "channel": 4,
      "note": 73,
      "start": 1.8441,
      "duration": 0.0092,
      "velocity": 106,
      "chip": "ym2612"
    },
    {
      "channel": 0,
      "note": 61,
      "start": 1.8503,
      "duration": 0.0061,
      "velocity": 126,
      "chip": "ym2612"
    },
    {
      "channel": 1,
      "note": 67,
      "start": 1.8508,
      "duration": 0.0057,
      "velocity": 126,
      "chip": "ym2612"
    },
    {
      "channel": 3,
      "note": 35,
      "start": 1.8532,
      "duration": 0.0049,
      "velocity": 113,
      "chip": "ym2612"
    },
    {
      "channel": 2,
      "note": 67,
      "start": 1.8556,
      "duration": 0.0097,
      "velocity": 126,
      "chip": "ym2612"
    },
    {
      "channel": 1,
      "note": 71,
      "start": 1.8567,
      "duration": 0.0423,
      "velocity": 126,
      "chip": "ym2612"
    },
    {
      "channel": 3,
      "note": 38,
      "start": 1.8582,
      "duration": 0.043,
      "velocity": 113,
      "chip": "ym2612"
    },
    {
      "channel": 4,
      "note": 71,
      "start": 1.8585,
      "duration": 0.0431,
      "velocity": 106,
      "chip": "ym2612"
    },
    {
      "channel": 2,
      "note": 71,
      "start": 1.8657,
      "duration": 0.0386,
      "velocity": 126,
      "chip": "ym2612"
    },
    {
      "channel": 0,
      "note": 54,
      "start": 1.8989,
      "duration": 0.0067,
      "velocity": 126,
      "chip": "ym2612"
    },
    {
      "channel": 1,
      "note": 73,
      "start": 1.8993,
      "duration": 0.0067,
      "velocity": 126,
      "chip": "ym2612"
    },
    {
      "channel": 3,
      "note": 43,
      "start": 1.9015,
      "duration": 0.0077,
      "velocity": 113,
      "chip": "ym2612"
    },
    {
      "channel": 4,
      "note": 66,
      "start": 1.9017,
      "duration": 0.0078,
      "velocity": 106,
      "chip": "ym2612"
    },
    {
      "channel": 2,
      "note": 73,
      "start": 1.9044,
      "duration": 0.0079,
      "velocity": 126,
      "chip": "ym2612"
    },
    {
      "channel": 0,
      "note": 61,
      "start": 1.9059,
      "duration": 0.008,
      "velocity": 126,
      "chip": "ym2612"
    },
    {
      "channel": 1,
      "note": 79,
      "start": 1.9064,
      "duration": 0.4247,
      "velocity": 126,
      "chip": "ym2612"
    },
    {
      "channel": 3,
      "note": 50,
      "start": 1.9094,
      "duration": 0.4239,
      "velocity": 113,
      "chip": "ym2612"
    },
    {
      "channel": 4,
      "note": 73,
      "start": 1.9097,
      "duration": 0.007,
      "velocity": 106,
      "chip": "ym2612"
    },
    {
      "channel": 2,
      "note": 79,
      "start": 1.9126,
      "duration": 0.4238,
      "velocity": 126,
      "chip": "ym2612"
    },
    {
      "channel": 0,
      "note": 54,
      "start": 1.9143,
      "duration": 0.0071,
      "velocity": 126,
      "chip": "ym2612"
    },
    {
      "channel": 4,
      "note": 66,
      "start": 1.9169,
      "duration": 0.0065,
      "velocity": 106,
      "chip": "ym2612"
    },
    {
      "channel": 0,
      "note": 61,
      "start": 1.9215,
      "duration": 0.0416,
      "velocity": 126,
      "chip": "ym2612"
    },
    {
      "channel": 4,
      "note": 71,
      "start": 1.9237,
      "duration": 0.0422,
      "velocity": 106,
      "chip": "ym2612"
    },
    {
      "channel": 0,
      "note": 59,
      "start": 1.9635,
      "duration": 0.0485,
      "velocity": 126,
      "chip": "ym2612"
    },
    {
      "channel": 4,
      "note": 66,
      "start": 1.9662,
      "duration": 0.0064,
      "velocity": 106,
      "chip": "ym2612"
    },
    {
      "channel": 4,
      "note": 76,
      "start": 1.9727,
      "duration": 0.042,
      "velocity": 106,
      "chip": "ym2612"
    },
    {
      "channel": 0,
      "note": 52,
      "start": 2.0124,
      "duration": 0.0137,
      "velocity": 126,
      "chip": "ym2612"
    },
    {
      "channel": 4,
      "note": 66,
      "start": 2.0149,
      "duration": 0.0074,
      "velocity": 106,
      "chip": "ym2612"
    },
    {
      "channel": 4,
      "note": 71,
      "start": 2.0226,
      "duration": 0.0065,
      "velocity": 106,
      "chip": "ym2612"
    },
    {
      "channel": 0,
      "note": 54,
      "start": 2.0263,
      "duration": 0.1921,
      "velocity": 126,
      "chip": "ym2612"
    },
    {
      "channel": 4,
      "note": 73,
      "start": 2.1028,
      "duration": 0.1184,
      "velocity": 106,
      "chip": "ym2612"
    },
    {
      "channel": 0,
      "note": 61,
      "start": 2.2188,
      "duration": 0.0055,
      "velocity": 126,
      "chip": "ym2612"
    },
    {
      "channel": 4,
      "note": 71,
      "start": 2.2259,
      "duration": 0.0433,
      "velocity": 106,
      "chip": "ym2612"
    },
    {
      "channel": 0,
      "note": 54,
      "start": 2.2668,
      "duration": 0.0065,
      "velocity": 126,
      "chip": "ym2612"
    },
    {
      "channel": 4,
      "note": 66,
      "start": 2.2694,
      "duration": 0.0068,
      "velocity": 106,
      "chip": "ym2612"
    },
    {
      "channel": 0,
      "note": 61,
      "start": 2.2738,
      "duration": 0.0076,
      "velocity": 126,
      "chip": "ym2612"
    },
    {
      "channel": 4,
      "note": 73,
      "start": 2.2764,
      "duration": 0.0076,
      "velocity": 106,
      "chip": "ym2612"
    },
    {
      "channel": 0,
      "note": 54,
      "start": 2.2817,
      "duration": 0.0062,
      "velocity": 126,
      "chip": "ym2612"
    },
    {
      "channel": 4,
      "note": 66,
      "start": 2.2843,
      "duration": 0.0066,
      "velocity": 106,
      "chip": "ym2612"
    },
    {
      "channel": 0,
      "note": 61,
      "start": 2.2881,
      "duration": 0.0425,
      "velocity": 126,
      "chip": "ym2612"
    },
    {
      "channel": 4,
      "note": 71,
      "start": 2.2911,
      "duration": 0.0424,
      "velocity": 106,
      "chip": "ym2612"
    },
    {
      "channel": 0,
      "note": 59,
      "start": 2.3311,
      "duration": 0.0487,
      "velocity": 126,
      "chip": "ym2612"
    },
    {
      "channel": 1,
      "note": 78,
      "start": 2.3315,
      "duration": 0.0487,
      "velocity": 126,
      "chip": "ym2612"
    },
    {
      "channel": 3,
      "note": 47,
      "start": 2.3335,
      "duration": 0.049,
      "velocity": 113,
      "chip": "ym2612"
    },
    {
      "channel": 4,
      "note": 66,
      "start": 2.3338,
      "duration": 0.0064,
      "velocity": 106,
      "chip": "ym2612"
    },
    {
      "channel": 2,
      "note": 78,
      "start": 2.3366,
      "duration": 0.0497,
      "velocity": 126,
      "chip": "ym2612"
    },
    {
      "channel": 4,
      "note": 76,
      "start": 2.3404,
      "duration": 0.0423,
      "velocity": 106,
      "chip": "ym2612"
    },
    {
      "channel": 0,
      "note": 52,
      "start": 2.3801,
      "duration": 0.0147,
      "velocity": 126,
      "chip": "ym2612"
    },
    {
      "channel": 1,
      "note": 76,
      "start": 2.3805,
      "duration": 0.0147,
      "velocity": 126,
      "chip": "ym2612"
    },
    {
      "channel": 3,
      "note": 43,
      "start": 2.3827,
      "duration": 0.0158,
      "velocity": 113,
      "chip": "ym2612"
    },
    {
      "channel": 4,
      "note": 66,
      "start": 2.3829,
      "duration": 0.0077,
      "velocity": 106,
      "chip": "ym2612"
    },
    {
      "channel": 2,
      "note": 76,
      "start": 2.3866,
      "duration": 0.0162,
      "velocity": 126,
      "chip": "ym2612"
    },
    {
      "channel": 4,
      "note": 71,
      "start": 2.3909,
      "duration": 0.0079,
      "velocity": 106,
      "chip": "ym2612"
    },
    {
      "channel": 0,
      "note": 64,
      "start": 2.3952,
      "duration": 0.0167,
      "velocity": 126,
      "chip": "ym2612"
    },
    {
      "channel": 1,
      "note": 71,
      "start": 2.3956,
      "duration": 0.0168,
      "velocity": 126,
      "chip": "ym2612"
    },
    {
      "channel": 3,
      "note": 38,
      "start": 2.3987,
      "duration": 0.0163,
      "velocity": 113,
      "chip": "ym2612"
    },
    {
      "channel": 2,
      "note": 71,
      "start": 2.4032,
      "duration": 0.0143,
      "velocity": 126,
      "chip": "ym2612"
    },
    {
      "channel": 4,
      "note": 73,
      "start": 2.4083,
      "duration": 0.0069,
      "velocity": 106,
      "chip": "ym2612"
    },
    {
      "channel": 0,
      "note": 61,
      "start": 2.4123,
      "duration": 0.0062,
      "velocity": 126,
      "chip": "ym2612"
    },
    {
      "channel": 1,
      "note": 66,
      "start": 2.4127,
      "duration": 0.0058,
      "velocity": 126,
      "chip": "ym2612"
    },
    {
      "channel": 3,
      "note": 37,
      "start": 2.4152,
      "duration": 0.0048,
      "velocity": 113,
      "chip": "ym2612"
    },
    {
      "channel": 2,
      "note": 66,
      "start": 2.4177,
      "duration": 0.009,
      "velocity": 126,
      "chip": "ym2612"
    },
    {
      "channel": 1,
      "note": 71,
      "start": 2.4187,
      "duration": 0.0583,
      "velocity": 126,
      "chip": "ym2612"
    },
    {
      "channel": 3,
      "note": 40,
      "start": 2.4202,
      "duration": 0.059,
      "velocity": 113,
      "chip": "ym2612"
    },
    {
      "channel": 4,
      "note": 71,
      "start": 2.4205,
      "duration": 0.059,
      "velocity": 106,
      "chip": "ym2612"
    },
    {
      "channel": 2,
      "note": 71,
      "start": 2.427,
      "duration": 0.0551,
      "velocity": 126,
      "chip": "ym2612"
    },
    {
      "channel": 0,
      "note": 54,
      "start": 2.4769,
      "duration": 0.0065,
      "velocity": 126,
      "chip": "ym2612"
    },
    {
      "channel": 1,
      "note": 73,
      "start": 2.4773,
      "duration": 0.0064,
      "velocity": 126,
      "chip": "ym2612"
    },
    {
      "channel": 3,
      "note": 42,
      "start": 2.4795,
      "duration": 0.006,
      "velocity": 113,
      "chip": "ym2612"
    },
    {
      "channel": 4,
      "note": 66,
      "start": 2.4797,
      "duration": 0.006,
      "velocity": 106,
      "chip": "ym2612"
    },
    {
      "channel": 2,
      "note": 73,
      "start": 2.4824,
      "duration": 0.0106,
      "velocity": 126,
      "chip": "ym2612"
    },
    {
      "channel": 0,
      "note": 61,
      "start": 2.4836,
      "duration": 0.0423,
      "velocity": 126,
      "chip": "ym2612"
    },
    {
      "channel": 1,
      "note": 78,
      "start": 2.4839,
      "duration": 0.155,
      "velocity": 126,
      "chip": "ym2612"
    },
    {
      "channel": 3,
      "note": 47,
      "start": 2.4856,
      "duration": 0.1551,
      "velocity": 113,
      "chip": "ym2612"
    },
    {
      "channel": 4,
      "note": 73,
      "start": 2.486,
      "duration": 0.0427,
      "velocity": 106,
      "chip": "ym2612"
    },
    {
      "channel": 2,
      "note": 78,
      "start": 2.4933,
      "duration": 0.1546,
      "velocity": 126,
      "chip": "ym2612"
    },
    {
      "channel": 0,
      "note": 54,
      "start": 2.5263,
      "duration": 0.0064,
      "velocity": 126,
      "chip": "ym2612"
    },
    {
      "channel": 4,
      "note": 66,
      "start": 2.529,
      "duration": 0.0058,
      "velocity": 106,
      "chip": "ym2612"
    },
    {
      "channel": 0,
      "note": 61,
      "start": 2.5329,
      "duration": 0.0424,
      "velocity": 126,
      "chip": "ym2612"
    },
    {
      "channel": 4,
      "note": 71,
      "start": 2.535,
      "duration": 0.043,
      "velocity": 106,
      "chip": "ym2612"
    },
    {
      "channel": 0,
      "note": 59,
      "start": 2.5757,
      "duration": 0.0487,
      "velocity": 126,
      "chip": "ym2612"
    },
    {
      "channel": 4,
      "note": 66,
      "start": 2.5783,
      "duration": 0.0065,
      "velocity": 106,
      "chip": "ym2612"
    },
    {
      "channel": 4,
      "note": 76,
      "start": 2.5851,
      "duration": 0.0419,
      "velocity": 106,
      "chip": "ym2612"
    },
    {
      "channel": 0,
      "note": 52,
      "start": 2.6248,
      "duration": 0.0138,
      "velocity": 126,
      "chip": "ym2612"
    },
    {
      "channel": 4,
      "note": 66,
      "start": 2.6272,
      "duration": 0.0076,
      "velocity": 106,
      "chip": "ym2612"
    },
    {
      "channel": 4,
      "note": 71,
      "start": 2.635,
      "duration": 0.0061,
      "velocity": 106,
      "chip": "ym2612"
    },
    {
      "channel": 0,
      "note": 54,
      "start": 2.6388,
      "duration": 0.1755,
      "velocity": 126,
      "chip": "ym2612"
    },
    {
      "channel": 1,
      "note": 76,
      "start": 2.6391,
      "duration": 0.0418,
      "velocity": 126,
      "chip": "ym2612"
    },
    {
      "channel": 3,
      "note": 45,
      "start": 2.641,
      "duration": 0.0738,
      "velocity": 113,
      "chip": "ym2612"
    },
    {
      "channel": 2,
      "note": 76,
      "start": 2.6483,
      "duration": 0.1329,
      "velocity": 126,
      "chip": "ym2612"
    },
    {
      "channel": 1,
      "note": 75,
      "start": 2.6813,
      "duration": 0.1333,
      "velocity": 126,
      "chip": "ym2612"
    },
    {
      "channel": 3,
      "note": 44,
      "start": 2.7151,
      "duration": 0.1021,
      "velocity": 113,
      "chip": "ym2612"
    },
    {
      "channel": 4,
      "note": 73,
      "start": 2.7155,
      "duration": 0.102,
      "velocity": 106,
      "chip": "ym2612"
    },
    {
      "channel": 2,
      "note": 75,
      "start": 2.7815,
      "duration": 0.0388,
      "velocity": 126,
      "chip": "ym2612"
    },
    {
      "channel": 0,
      "note": 61,
      "start": 2.8146,
      "duration": 0.0067,
      "velocity": 126,
      "chip": "ym2612"
    },
    {
      "channel": 1,
      "note": 71,
      "start": 2.8151,
      "duration": 0.1621,
      "velocity": 126,
      "chip": "ym2612"
    },
    {
      "channel": 3,
      "note": 42,
      "start": 2.8174,
      "duration": 0.1622,
      "velocity": 113,
      "chip": "ym2612"
    },
    {
      "channel": 2,
      "note": 71,
      "start": 2.8205,
      "duration": 0.162,
      "velocity": 126,
      "chip": "ym2612"
    },
    {
      "channel": 4,
      "note": 71,
      "start": 2.8231,
      "duration": 0.043,
      "velocity": 106,
      "chip": "ym2612"
    },
    {
      "channel": 0,
      "note": 54,
      "start": 2.8631,
      "duration": 0.0076,
      "velocity": 126,
      "chip": "ym2612"
    },
    {
      "channel": 4,
      "note": 66,
      "start": 2.8663,
      "duration": 0.0073,
      "velocity": 106,
      "chip": "ym2612"
    },
    {
      "channel": 0,
      "note": 61,
      "start": 2.8711,
      "duration": 0.0072,
      "velocity": 126,
      "chip": "ym2612"
    },
    {
      "channel": 4,
      "note": 73,
      "start": 2.8738,
      "duration": 0.0073,
      "velocity": 106,
      "chip": "ym2612"
    },
    {
      "channel": 0,
      "note": 54,
      "start": 2.8787,
      "duration": 0.0065,
      "velocity": 126,
      "chip": "ym2612"
    },
    {
      "channel": 4,
      "note": 66,
      "start": 2.8814,
      "duration": 0.006,
      "velocity": 106,
      "chip": "ym2612"
    },
    {
      "channel": 0,
      "note": 61,
      "start": 2.8854,
      "duration": 0.0424,
      "velocity": 126,
      "chip": "ym2612"
    },
    {
      "channel": 4,
      "note": 71,
      "start": 2.8876,
      "duration": 0.043,
      "velocity": 106,
      "chip": "ym2612"
    },
    {
      "channel": 0,
      "note": 59,
      "start": 2.9282,
      "duration": 0.0485,
      "velocity": 126,
      "chip": "ym2612"
    },
    {
      "channel": 4,
      "note": 66,
      "start": 2.9309,
      "duration": 0.0055,
      "velocity": 106,
      "chip": "ym2612"
    },
    {
      "channel": 4,
      "note": 76,
      "start": 2.9366,
      "duration": 0.0433,
      "velocity": 106,
      "chip": "ym2612"
    },
    {
      "channel": 0,
      "note": 52,
      "start": 2.9771,
      "duration": 0.0069,
      "velocity": 126,
      "chip": "ym2612"
    },
    {
      "channel": 1,
      "note": 68,
      "start": 2.9775,
      "duration": 0.0125,
      "velocity": 126,
      "chip": "ym2612"
    },
    {
      "channel": 3,
      "note": 37,
      "start": 2.9798,
      "duration": 0.012,
      "velocity": 113,
      "chip": "ym2612"
    },
    {
      "channel": 4,
      "note": 66,
      "start": 2.98,
      "duration": 0.0068,
      "velocity": 106,
      "chip": "ym2612"
    },
    {
      "channel": 2,
      "note": 68,
      "start": 2.9828,
      "duration": 0.0158,
      "velocity": 126,
      "chip": "ym2612"
    },
    {
      "channel": 4,
      "note": 71,
      "start": 2.9871,
      "duration": 0.005,
      "velocity": 106,
      "chip": "ym2612"
    },
    {
      "channel": 1,
      "note": 71,
      "start": 2.9902,
      "duration": 0.0663,
      "velocity": 126,
      "chip": "ym2612"
    },
    {
      "channel": 3,
      "note": 42,
      "start": 2.992,
      "duration": 0.0669,
      "velocity": 113,
      "chip": "ym2612"
    },
    {
      "channel": 2,
      "note": 71,
      "start": 2.9989,
      "duration": 0.0631,
      "velocity": 126,
      "chip": "ym2612"
    },
    {
      "channel": 4,
      "note": 73,
      "start": 3.0511,
      "duration": 0.0081,
      "velocity": 106,
      "chip": "ym2612"
    },
    {
      "channel": 0,
      "note": 61,
      "start": 3.0565,
      "duration": 0.0065,
      "velocity": 126,
      "chip": "ym2612"
    },
    {
      "channel": 1,
      "note": 67,
      "start": 3.0569,
      "duration": 0.0476,
      "velocity": 126,
      "chip": "ym2612"
    },
    {
      "channel": 3,
      "note": 35,
      "start": 3.0592,
      "duration": 0.0476,
      "velocity": 113,
      "chip": "ym2612"
    },
    {
      "channel": 2,
      "note": 67,
      "start": 3.0622,
      "duration": 0.0482,
      "velocity": 126,
      "chip": "ym2612"
    },
    {
      "channel": 4,
      "note": 71,
      "start": 3.0648,
      "duration": 0.0422,
      "velocity": 106,
      "chip": "ym2612"
    },
    {
      "channel": 0,
      "note": 54,
      "start": 3.1044,
      "duration": 0.0076,
      "velocity": 126,
      "chip": "ym2612"
    },
    {
      "channel": 1,
      "note": 74,
      "start": 3.1048,
      "duration": 0.0146,
      "velocity": 126,
      "chip": "ym2612"
    },
    {
      "channel": 3,
      "note": 43,
      "start": 3.1069,
      "duration": 0.0155,
      "velocity": 113,
      "chip": "ym2612"
    },
    {
      "channel": 4,
      "note": 66,
      "start": 3.1073,
      "duration": 0.0076,
      "velocity": 106,
      "chip": "ym2612"
    },
    {
      "channel": 2,
      "note": 74,
      "start": 3.1106,
      "duration": 0.0148,
      "velocity": 126,
      "chip": "ym2612"
    },
    {
      "channel": 0,
      "note": 61,
      "start": 3.1123,
      "duration": 0.0066,
      "velocity": 126,
      "chip": "ym2612"
    },
    {
      "channel": 4,
      "note": 73,
      "start": 3.1151,
      "duration": 0.0076,
      "velocity": 106,
      "chip": "ym2612"
    },
    {
      "channel": 0,
      "note": 54,
      "start": 3.1193,
      "duration": 0.0072,
      "velocity": 126,
      "chip": "ym2612"
    },
    {
      "channel": 1,
      "note": 79,
      "start": 3.1197,
      "duration": 0.1282,
      "velocity": 126,
      "chip": "ym2612"
    },
    {
      "channel": 3,
      "note": 50,
      "start": 3.1227,
      "duration": 0.1271,
      "velocity": 113,
      "chip": "ym2612"
    },
    {
      "channel": 4,
      "note": 66,
      "start": 3.123,
      "duration": 0.0056,
      "velocity": 106,
      "chip": "ym2612"
    },
    {
      "channel": 2,
      "note": 79,
      "start": 3.1256,
      "duration": 0.1308,
      "velocity": 126,
      "chip": "ym2612"
    },
    {
      "channel": 0,
      "note": 61,
      "start": 3.1267,
      "duration": 0.0579,
      "velocity": 126,
      "chip": "ym2612"
    },
    {
      "channel": 4,
      "note": 71,
      "start": 3.1288,
      "duration": 0.0585,
      "velocity": 106,
      "chip": "ym2612"
    },
    {
      "channel": 0,
      "note": 59,
      "start": 3.185,
      "duration": 0.0484,
      "velocity": 126,
      "chip": "ym2612"
    },
    {
      "channel": 4,
      "note": 66,
      "start": 3.1875,
      "duration": 0.0058,
      "velocity": 106,
      "chip": "ym2612"
    },
    {
      "channel": 4,
      "note": 76,
      "start": 3.1935,
      "duration": 0.0427,
      "velocity": 106,
      "chip": "ym2612"
    },
    {
      "channel": 0,
      "note": 52,
      "start": 3.2338,
      "duration": 0.0138,
      "velocity": 126,
      "chip": "ym2612"
    },
    {
      "channel": 4,
      "note": 66,
      "start": 3.2364,
      "duration": 0.0065,
      "velocity": 106,
      "chip": "ym2612"
    },
    {
      "channel": 4,
      "note": 71,
      "start": 3.2431,
      "duration": 0.007,
      "velocity": 106,
      "chip": "ym2612"
    },
    {
      "channel": 0,
      "note": 54,
      "start": 3.2478,
      "duration": 0.1917,
      "velocity": 126,
      "chip": "ym2612"
    },
    {
      "channel": 1,
      "note": 74,
      "start": 3.2481,
      "duration": 0.0413,
      "velocity": 126,
      "chip": "ym2612"
    },
    {
      "channel": 3,
      "note": 47,
      "start": 3.2501,
      "duration": 0.09,
      "velocity": 113,
      "chip": "ym2612"
    },
    {
      "channel": 2,
      "note": 74,
      "start": 3.2568,
      "duration": 0.1496,
      "velocity": 126,
      "chip": "ym2612"
    },
    {
      "channel": 1,
      "note": 79,
      "start": 3.2899,
      "duration": 0.1501,
      "velocity": 126,
      "chip": "ym2612"
    },
    {
      "channel": 3,
      "note": 50,
      "start": 3.3404,
      "duration": 0.1019,
      "velocity": 113,
      "chip": "ym2612"
    },
    {
      "channel": 4,
      "note": 73,
      "start": 3.3408,
      "duration": 0.1016,
      "velocity": 106,
      "chip": "ym2612"
    },
    {
      "channel": 2,
      "note": 79,
      "start": 3.4067,
      "duration": 0.0378,
      "velocity": 126,
      "chip": "ym2612"
    },
    {
      "channel": 0,
      "note": 61,
      "start": 3.4399,
      "duration": 0.0063,
      "velocity": 126,
      "chip": "ym2612"
    },
    {
      "channel": 1,
      "note": 83,
      "start": 3.4403,
      "duration": 0.1115,
      "velocity": 126,
      "chip": "ym2612"
    },
    {
      "channel": 3,
      "note": 55,
      "start": 3.4423,
      "duration": 0.1124,
      "velocity": 113,
      "chip": "ym2612"
    },
    {
      "channel": 2,
      "note": 83,
      "start": 3.4448,
      "duration": 0.1131,
      "velocity": 126,
      "chip": "ym2612"
    },
    {
      "channel": 4,
      "note": 71,
      "start": 3.4479,
      "duration": 0.0425,
      "velocity": 106,
      "chip": "ym2612"
    },
    {
      "channel": 0,
      "note": 54,
      "start": 3.488,
      "duration": 0.0074,
      "velocity": 126,
      "chip": "ym2612"
    },
    {
      "channel": 4,
      "note": 66,
      "start": 3.4906,
      "duration": 0.0074,
      "velocity": 106,
      "chip": "ym2612"
    },
    {
      "channel": 0,
      "note": 61,
      "start": 3.4958,
      "duration": 0.0063,
      "velocity": 126,
      "chip": "ym2612"
    },
    {
      "channel": 4,
      "note": 73,
      "start": 3.4982,
      "duration": 0.0068,
      "velocity": 106,
      "chip": "ym2612"
    },
    {
      "channel": 0,
      "note": 54,
      "start": 3.5025,
      "duration": 0.007,
      "velocity": 126,
      "chip": "ym2612"
    },
    {
      "channel": 4,
      "note": 66,
      "start": 3.5053,
      "duration": 0.0063,
      "velocity": 106,
      "chip": "ym2612"
    },
    {
      "channel": 0,
      "note": 61,
      "start": 3.5097,
      "duration": 0.0416,
      "velocity": 126,
      "chip": "ym2612"
    },
    {
      "channel": 4,
      "note": 71,
      "start": 3.5119,
      "duration": 0.0432,
      "velocity": 106,
      "chip": "ym2612"
    },
    {
      "channel": 0,
      "note": 59,
      "start": 3.5517,
      "duration": 0.0656,
      "velocity": 126,
      "chip": "ym2612"
    },
    {
      "channel": 1,
      "note": 86,
      "start": 3.5522,
      "duration": 0.0656,
      "velocity": 126,
      "chip": "ym2612"
    },
    {
      "channel": 3,
      "note": 54,
      "start": 3.555,
      "duration": 0.065,
      "velocity": 113,
      "chip": "ym2612"
    },
    {
      "channel": 4,
      "note": 66,
      "start": 3.5554,
      "duration": 0.0056,
      "velocity": 106,
      "chip": "ym2612"
    },
    {
      "channel": 2,
      "note": 86,
      "start": 3.5581,
      "duration": 0.0651,
      "velocity": 126,
      "chip": "ym2612"
    },
    {
      "channel": 4,
      "note": 76,
      "start": 3.5612,
      "duration": 0.0592,
      "velocity": 106,
      "chip": "ym2612"
    },
    {
      "channel": 0,
      "note": 52,
      "start": 3.6177,
      "duration": 0.0147,
      "velocity": 126,
      "chip": "ym2612"
    },
    {
      "channel": 1,
      "note": 85,
      "start": 3.6181,
      "duration": 0.0148,
      "velocity": 126,
      "chip": "ym2612"
    },
    {
      "channel": 3,
      "note": 52,
      "start": 3.6202,
      "duration": 0.0154,
      "velocity": 113,
      "chip": "ym2612"
    },
    {
      "channel": 4,
      "note": 66,
      "start": 3.6205,
      "duration": 0.0066,
      "velocity": 106,
      "chip": "ym2612"
    },
    {
      "channel": 2,
      "note": 85,
      "start": 3.6234,
      "duration": 0.0158,
      "velocity": 126,
      "chip": "ym2612"
    },
    {
      "channel": 4,
      "note": 71,
      "start": 3.6274,
      "duration": 0.0086,
      "velocity": 106,
      "chip": "ym2612"
    },
    {
      "channel": 0,
      "note": 64,
      "start": 3.6329,
      "duration": 0.016,
      "velocity": 126,
      "chip": "ym2612"
    },
    {
      "channel": 1,
      "note": 83,
      "start": 3.6332,
      "duration": 0.0177,
      "velocity": 110,
      "chip": "ym2612"
    },
    {
      "channel": 3,
      "note": 50,
      "start": 3.6359,
      "duration": 0.0185,
      "velocity": 106,
      "chip": "ym2612"
    },
    {
      "channel": 2,
      "note": 83,
      "start": 3.6395,
      "duration": 0.019,
      "velocity": 108,
      "chip": "ym2612"
    },
    {
      "channel": 4,
      "note": 73,
      "start": 3.6444,
      "duration": 0.0103,
      "velocity": 106,
      "chip": "ym2612"
    },
    {
      "channel": 0,
      "note": 61,
      "start": 3.6492,
      "duration": 0.0103,
      "velocity": 126,
      "chip": "ym2612"
    },
    {
      "channel": 1,
      "note": 61,
      "start": 3.6512,
      "duration": 0.2129,
      "velocity": 110,
      "chip": "ym2612"
    },
    {
      "channel": 3,
      "note": 45,
      "start": 3.6546,
      "duration": 0.2115,
      "velocity": 106,
      "chip": "ym2612"
    },
    {
      "channel": 2,
      "note": 61,
      "start": 3.6587,
      "duration": 0.2137,
      "velocity": 108,
      "chip": "ym2612"
    },
    {
      "channel": 4,
      "note": 71,
      "start": 3.6618,
      "duration": 0.0409,
      "velocity": 106,
      "chip": "ym2612"
    },
    {
      "channel": 0,
      "note": 54,
      "start": 3.7003,
      "duration": 0.007,
      "velocity": 126,
      "chip": "ym2612"
    },
    {
      "channel": 4,
      "note": 66,
      "start": 3.7029,
      "duration": 0.0067,
      "velocity": 106,
      "chip": "ym2612"
    },
    {
      "channel": 0,
      "note": 61,
      "start": 3.7075,
      "duration": 0.0418,
      "velocity": 126,
      "chip": "ym2612"
    },
    {
      "channel": 4,
      "note": 73,
      "start": 3.7098,
      "duration": 0.0425,
      "velocity": 106,
      "chip": "ym2612"
    },
    {
      "channel": 0,
      "note": 54,
      "start": 3.7497,
      "duration": 0.0074,
      "velocity": 126,
      "chip": "ym2612"
    },
    {
      "channel": 4,
      "note": 66,
      "start": 3.7525,
      "duration": 0.007,
      "velocity": 106,
      "chip": "ym2612"
    },
    {
      "channel": 0,
      "note": 61,
      "start": 3.7573,
      "duration": 0.0418,
      "velocity": 126,
      "chip": "ym2612"
    },
    {
      "channel": 4,
      "note": 71,
      "start": 3.7597,
      "duration": 0.0423,
      "velocity": 106,
      "chip": "ym2612"
    },
    {
      "channel": 0,
      "note": 59,
      "start": 3.7995,
      "duration": 0.0491,
      "velocity": 126,
      "chip": "ym2612"
    },
    {
      "channel": 4,
      "note": 66,
      "start": 3.8022,
      "duration": 0.0066,
      "velocity": 106,
      "chip": "ym2612"
    },
    {
      "channel": 4,
      "note": 76,
      "start": 3.8091,
      "duration": 0.0431,
      "velocity": 106,
      "chip": "ym2612"
    },
    {
      "channel": 0,
      "note": 52,
      "start": 3.849,
      "duration": 0.0148,
      "velocity": 126,
      "chip": "ym2612"
    },
    {
      "channel": 4,
      "note": 66,
      "start": 3.8525,
      "duration": 0.0068,
      "velocity": 106,
      "chip": "ym2612"
    },
    {
      "channel": 4,
      "note": 71,
      "start": 3.8596,
      "duration": 0.0068,
      "velocity": 106,
      "chip": "ym2612"
    },
    {
      "channel": 0,
      "note": 54,
      "start": 3.864,
      "duration": 0.1914,
      "velocity": 126,
      "chip": "ym2612"
    },
    {
      "channel": 1,
      "note": 62,
      "start": 3.8644,
      "duration": 0.0411,
      "velocity": 110,
      "chip": "ym2612"
    },
    {
      "channel": 3,
      "note": 47,
      "start": 3.8663,
      "duration": 0.073,
      "velocity": 106,
      "chip": "ym2612"
    },
    {
      "channel": 2,
      "note": 62,
      "start": 3.8728,
      "duration": 0.1497,
      "velocity": 108,
      "chip": "ym2612"
    },
    {
      "channel": 1,
      "note": 64,
      "start": 3.9059,
      "duration": 0.15,
      "velocity": 110,
      "chip": "ym2612"
    },
    {
      "channel": 3,
      "note": 49,
      "start": 3.9396,
      "duration": 0.1187,
      "velocity": 106,
      "chip": "ym2612"
    },
    {
      "channel": 4,
      "note": 73,
      "start": 3.94,
      "duration": 0.1185,
      "velocity": 106,
      "chip": "ym2612"
    },
    {
      "channel": 2,
      "note": 64,
      "start": 4.0228,
      "duration": 0.0379,
      "velocity": 108,
      "chip": "ym2612"
    },
    {
      "channel": 0,
      "note": 61,
      "start": 4.0558,
      "duration": 0.0058,
      "velocity": 126,
      "chip": "ym2612"
    },
    {
      "channel": 1,
      "note": 59,
      "start": 4.0562,
      "duration": 0.1754,
      "velocity": 110,
      "chip": "ym2612"
    },
    {
      "channel": 3,
      "note": 43,
      "start": 4.0584,
      "duration": 0.1756,
      "velocity": 106,
      "chip": "ym2612"
    },
    {
      "channel": 2,
      "note": 59,
      "start": 4.061,
      "duration": 0.1798,
      "velocity": 108,
      "chip": "ym2612"
    },
    {
      "channel": 4,
      "note": 71,
      "start": 4.0633,
      "duration": 0.043,
      "velocity": 106,
      "chip": "ym2612"
    },
    {
      "channel": 0,
      "note": 54,
      "start": 4.1037,
      "duration": 0.0067,
      "velocity": 126,
      "chip": "ym2612"
    },
    {
      "channel": 4,
      "note": 66,
      "start": 4.1065,
      "duration": 0.0075,
      "velocity": 106,
      "chip": "ym2612"
    },
    {
      "channel": 0,
      "note": 61,
      "start": 4.1107,
      "duration": 0.0075,
      "velocity": 126,
      "chip": "ym2612"
    },
    {
      "channel": 4,
      "note": 73,
      "start": 4.1142,
      "duration": 0.0071,
      "velocity": 106,
      "chip": "ym2612"
    },
    {
      "channel": 0,
      "note": 54,
      "start": 4.1186,
      "duration": 0.0074,
      "velocity": 126,
      "chip": "ym2612"
    },
    {
      "channel": 4,
      "note": 66,
      "start": 4.1215,
      "duration": 0.007,
      "velocity": 106,
      "chip": "ym2612"
    },
    {
      "channel": 0,
      "note": 61,
      "start": 4.1262,
      "duration": 0.0419,
      "velocity": 126,
      "chip": "ym2612"
    },
    {
      "channel": 4,
      "note": 71,
      "start": 4.1287,
      "duration": 0.0423,
      "velocity": 106,
      "chip": "ym2612"
    },
    {
      "channel": 0,
      "note": 59,
      "start": 4.1685,
      "duration": 0.0492,
      "velocity": 126,
      "chip": "ym2612"
    },
    {
      "channel": 4,
      "note": 66,
      "start": 4.1713,
      "duration": 0.0067,
      "velocity": 106,
      "chip": "ym2612"
    },
    {
      "channel": 4,
      "note": 76,
      "start": 4.1781,
      "duration": 0.0424,
      "velocity": 106,
      "chip": "ym2612"
    },
    {
      "channel": 0,
      "note": 52,
      "start": 4.2181,
      "duration": 0.0076,
      "velocity": 126,
      "chip": "ym2612"
    },
    {
      "channel": 4,
      "note": 66,
      "start": 4.2208,
      "duration": 0.0075,
      "velocity": 106,
      "chip": "ym2612"
    },
    {
      "channel": 4,
      "note": 71,
      "start": 4.2285,
      "duration": 0.0058,
      "velocity": 106,
      "chip": "ym2612"
    },
    {
      "channel": 1,
      "note": 50,
      "start": 4.2319,
      "duration": 0.0422,
      "velocity": 110,
      "chip": "ym2612"
    },
    {
      "channel": 3,
      "note": 38,
      "start": 4.2342,
      "duration": 0.0421,
      "velocity": 106,
      "chip": "ym2612"
    },
    {
      "channel": 2,
      "note": 50,
      "start": 4.2411,
      "duration": 0.039,
      "velocity": 108,
      "chip": "ym2612"
    },
    {
      "channel": 1,
      "note": 59,
      "start": 4.2744,
      "duration": 0.0094,
      "velocity": 110,
      "chip": "ym2612"
    },
    {
      "channel": 3,
      "note": 47,
      "start": 4.2766,
      "duration": 0.0094,
      "velocity": 106,
      "chip": "ym2612"
    },
    {
      "channel": 4,
      "note": 73,
      "start": 4.2769,
      "duration": 0.0093,
      "velocity": 106,
      "chip": "ym2612"
    },
    {
      "channel": 2,
      "note": 59,
      "start": 4.2804,
      "duration": 0.008,
      "velocity": 108,
      "chip": "ym2612"
    },
    {
      "channel": 0,
      "note": 61,
      "start": 4.2837,
      "duration": 0.0057,
      "velocity": 126,
      "chip": "ym2612"
    },
    {
      "channel": 1,
      "note": 61,
      "start": 4.284,
      "duration": 0.1125,
      "velocity": 110,
      "chip": "ym2612"
    },
    {
      "channel": 3,
      "note": 45,
      "start": 4.2861,
      "duration": 0.1127,
      "velocity": 106,
      "chip": "ym2612"
    },
    {
      "channel": 2,
      "note": 61,
      "start": 4.2887,
      "duration": 0.1133,
      "velocity": 108,
      "chip": "ym2612"
    },
    {
      "channel": 4,
      "note": 71,
      "start": 4.291,
      "duration": 0.0431,
      "velocity": 106,
      "chip": "ym2612"
    },
    {
      "channel": 0,
      "note": 54,
      "start": 4.3314,
      "duration": 0.0068,
      "velocity": 126,
      "chip": "ym2612"
    },
    {
      "channel": 4,
      "note": 66,
      "start": 4.3343,
      "duration": 0.0068,
      "velocity": 106,
      "chip": "ym2612"
    },
    {
      "channel": 0,
      "note": 61,
      "start": 4.3386,
      "duration": 0.0076,
      "velocity": 126,
      "chip": "ym2612"
    },
    {
      "channel": 4,
      "note": 73,
      "start": 4.3413,
      "duration": 0.0076,
      "velocity": 106,
      "chip": "ym2612"
    },
    {
      "channel": 0,
      "note": 54,
      "start": 4.3465,
      "duration": 0.0068,
      "velocity": 126,
      "chip": "ym2612"
    },
    {
      "channel": 4,
      "note": 66,
      "start": 4.3492,
      "duration": 0.0071,
      "velocity": 106,
      "chip": "ym2612"
    },
    {
      "channel": 0,
      "note": 61,
      "start": 4.3535,
      "duration": 0.0426,
      "velocity": 126,
      "chip": "ym2612"
    },
    {
      "channel": 4,
      "note": 71,
      "start": 4.3566,
      "duration": 0.0424,
      "velocity": 106,
      "chip": "ym2612"
    },
    {
      "channel": 0,
      "note": 59,
      "start": 4.3965,
      "duration": 0.0492,
      "velocity": 126,
      "chip": "ym2612"
    },
    {
      "channel": 1,
      "note": 61,
      "start": 4.3969,
      "duration": 0.0492,
      "velocity": 110,
      "chip": "ym2612"
    },
    {
      "channel": 3,
      "note": 45,
      "start": 4.3989,
      "duration": 0.0495,
      "velocity": 106,
      "chip": "ym2612"
    },
    {
      "channel": 4,
      "note": 66,
      "start": 4.3993,
      "duration": 0.0068,
      "velocity": 106,
      "chip": "ym2612"
    },
    {
      "channel": 2,
      "note": 61,
      "start": 4.4021,
      "duration": 0.0499,
      "velocity": 108,
      "chip": "ym2612"
    },
    {
      "channel": 4,
      "note": 76,
      "start": 4.4063,
      "duration": 0.0424,
      "velocity": 106,
      "chip": "ym2612"
    },
    {
      "channel": 0,
      "note": 52,
      "start": 4.446,
      "duration": 0.0145,
      "velocity": 126,
      "chip": "ym2612"
    },
    {
      "channel": 1,
      "note": 62,
      "start": 4.4464,
      "duration": 0.0144,
      "velocity": 110,
      "chip": "ym2612"
    },
    {
      "channel": 3,
      "note": 47,
      "start": 4.4487,
      "duration": 0.0141,
      "velocity": 106,
      "chip": "ym2612"
    },
    {
      "channel": 4,
      "note": 66,
      "start": 4.4489,
      "duration": 0.0074,
      "velocity": 106,
      "chip": "ym2612"
    },
    {
      "channel": 2,
      "note": 62,
      "start": 4.4523,
      "duration": 0.0175,
      "velocity": 108,
      "chip": "ym2612"
    },
    {
      "channel": 4,
      "note": 71,
      "start": 4.4566,
      "duration": 0.0063,
      "velocity": 106,
      "chip": "ym2612"
    },
    {
      "channel": 0,
      "note": 54,
      "start": 4.4607,
      "duration": 0.1754,
      "velocity": 126,
      "chip": "ym2612"
    },
    {
      "channel": 1,
      "note": 64,
      "start": 4.461,
      "duration": 0.1756,
      "velocity": 110,
      "chip": "ym2612"
    },
    {
      "channel": 3,
      "note": 49,
      "start": 4.4628,
      "duration": 0.1769,
      "velocity": 106,
      "chip": "ym2612"
    },
    {
      "channel": 2,
      "note": 64,
      "start": 4.4701,
      "duration": 0.1722,
      "velocity": 108,
      "chip": "ym2612"
    },
    {
      "channel": 4,
      "note": 73,
      "start": 4.5372,
      "duration": 0.1028,
      "velocity": 106,
      "chip": "ym2612"
    },
    {
      "channel": 0,
      "note": 61,
      "start": 4.6365,
      "duration": 0.0067,
      "velocity": 126,
      "chip": "ym2612"
    },
    {
      "channel": 1,
      "note": 67,
      "start": 4.637,
      "duration": 0.1292,
      "velocity": 110,
      "chip": "ym2612"
    },
    {
      "channel": 3,
      "note": 52,
      "start": 4.64,
      "duration": 0.1285,
      "velocity": 106,
      "chip": "ym2612"
    },
    {
      "channel": 2,
      "note": 67,
      "start": 4.6425,
      "duration": 0.1293,
      "velocity": 108,
      "chip": "ym2612"
    },
    {
      "channel": 4,
      "note": 71,
      "start": 4.6449,
      "duration": 0.0591,
      "velocity": 106,
      "chip": "ym2612"
    },
    {
      "channel": 0,
      "note": 54,
      "start": 4.7015,
      "duration": 0.0068,
      "velocity": 126,
      "chip": "ym2612"
    },
    {
      "channel": 4,
      "note": 66,
      "start": 4.7042,
      "duration": 0.0069,
      "velocity": 106,
      "chip": "ym2612"
    },
    {
      "channel": 0,
      "note": 61,
      "start": 4.7088,
      "duration": 0.0072,
      "velocity": 126,
      "chip": "ym2612"
    },
    {
      "channel": 4,
      "note": 73,
      "start": 4.7115,
      "duration": 0.0075,
      "velocity": 106,
      "chip": "ym2612"
    },
    {
      "channel": 0,
      "note": 54,
      "start": 4.7163,
      "duration": 0.0066,
      "velocity": 126,
      "chip": "ym2612"
    },
    {
      "channel": 4,
      "note": 66,
      "start": 4.7191,
      "duration": 0.0061,
      "velocity": 106,
      "chip": "ym2612"
    },
    {
      "channel": 0,
      "note": 61,
      "start": 4.7231,
      "duration": 0.0427,
      "velocity": 126,
      "chip": "ym2612"
    },
    {
      "channel": 4,
      "note": 71,
      "start": 4.7255,
      "duration": 0.0434,
      "velocity": 106,
      "chip": "ym2612"
    },
    {
      "channel": 0,
      "note": 59,
      "start": 4.7661,
      "duration": 0.0498,
      "velocity": 126,
      "chip": "ym2612"
    },
    {
      "channel": 1,
      "note": 66,
      "start": 4.7666,
      "duration": 0.0498,
      "velocity": 110,
      "chip": "ym2612"
    },
    {
      "channel": 3,
      "note": 52,
      "start": 4.7688,
      "duration": 0.0498,
      "velocity": 106,
      "chip": "ym2612"
    },
    {
      "channel": 4,
      "note": 66,
      "start": 4.769,
      "duration": 0.007,
      "velocity": 106,
      "chip": "ym2612"
    },
    {
      "channel": 2,
      "note": 66,
      "start": 4.772,
      "duration": 0.0497,
      "velocity": 108,
      "chip": "ym2612"
    },
    {
      "channel": 4,
      "note": 76,
      "start": 4.7763,
      "duration": 0.0425,
      "velocity": 106,
      "chip": "ym2612"
    },
    {
      "channel": 0,
      "note": 52,
      "start": 4.8163,
      "duration": 0.0147,
      "velocity": 126,
      "chip": "ym2612"
    },
    {
      "channel": 1,
      "note": 64,
      "start": 4.8167,
      "duration": 0.0148,
      "velocity": 110,
      "chip": "ym2612"
    },
    {
      "channel": 3,
      "note": 50,
      "start": 4.8188,
      "duration": 0.0154,
      "velocity": 106,
      "chip": "ym2612"
    },
    {
      "channel": 4,
      "note": 66,
      "start": 4.819,
      "duration": 0.0077,
      "velocity": 106,
      "chip": "ym2612"
    },
    {
      "channel": 2,
      "note": 64,
      "start": 4.822,
      "duration": 0.0168,
      "velocity": 108,
      "chip": "ym2612"
    },
    {
      "channel": 4,
      "note": 71,
      "start": 4.8269,
      "duration": 0.0077,
      "velocity": 106,
      "chip": "ym2612"
    },
    {
      "channel": 0,
      "note": 64,
      "start": 4.8314,
      "duration": 0.0167,
      "velocity": 126,
      "chip": "ym2612"
    },
    {
      "channel": 1,
      "note": 62,
      "start": 4.8318,
      "duration": 0.0165,
      "velocity": 110,
      "chip": "ym2612"
    },
    {
      "channel": 3,
      "note": 49,
      "start": 4.8345,
      "duration": 0.0158,
      "velocity": 106,
      "chip": "ym2612"
    },
    {
      "channel": 2,
      "note": 62,
      "start": 4.839,
      "duration": 0.0145,
      "velocity": 108,
      "chip": "ym2612"
    },
    {
      "channel": 4,
      "note": 73,
      "start": 4.8445,
      "duration": 0.0061,
      "velocity": 106,
      "chip": "ym2612"
    },
    {
      "channel": 0,
      "note": 61,
      "start": 4.8482,
      "duration": 0.0061,
      "velocity": 126,
      "chip": "ym2612"
    },
    {
      "channel": 1,
      "note": 69,
      "start": 4.8485,
      "duration": 0.9791,
      "velocity": 110,
      "chip": "ym2612"
    },
    {
      "channel": 3,
      "note": 52,
      "start": 4.8505,
      "duration": 1.0107,
      "velocity": 106,
      "chip": "ym2612"
    },
    {
      "channel": 2,
      "note": 69,
      "start": 4.8537,
      "duration": 1.074,
      "velocity": 108,
      "chip": "ym2612"
    },
    {
      "channel": 4,
      "note": 71,
      "start": 4.8561,
      "duration": 0.0057,
      "velocity": 106,
      "chip": "ym2612"
    },
    {
      "channel": 0,
      "note": 54,
      "start": 4.859,
      "duration": 0.0066,
      "velocity": 126,
      "chip": "ym2612"
    },
    {
      "channel": 4,
      "note": 66,
      "start": 4.862,
      "duration": 0.0057,
      "velocity": 106,
      "chip": "ym2612"
    },
    {
      "channel": 0,
      "note": 61,
      "start": 4.8657,
      "duration": 0.1114,
      "velocity": 126,
      "chip": "ym2612"
    },
    {
      "channel": 4,
      "note": 73,
      "start": 4.868,
      "duration": 0.1435,
      "velocity": 106,
      "chip": "ym2612"
    },
    {
      "channel": 0,
      "note": 54,
      "start": 4.9775,
      "duration": 0.133,
      "velocity": 126,
      "chip": "ym2612"
    },
    {
      "channel": 4,
      "note": 66,
      "start": 5.0118,
      "duration": 0.133,
      "velocity": 106,
      "chip": "ym2612"
    },
    {
      "channel": 0,
      "note": 61,
      "start": 5.1108,
      "duration": 0.1497,
      "velocity": 126,
      "chip": "ym2612"
    },
    {
      "channel": 4,
      "note": 71,
      "start": 5.1451,
      "duration": 0.1497,
      "velocity": 106,
      "chip": "ym2612"
    },
    {
      "channel": 0,
      "note": 59,
      "start": 5.2609,
      "duration": 0.2829,
      "velocity": 126,
      "chip": "ym2612"
    },
    {
      "channel": 4,
      "note": 66,
      "start": 5.2951,
      "duration": 0.1331,
      "velocity": 106,
      "chip": "ym2612"
    },
    {
      "channel": 4,
      "note": 76,
      "start": 5.4285,
      "duration": 0.1496,
      "velocity": 106,
      "chip": "ym2612"
    },
    {
      "channel": 0,
      "note": 52,
      "start": 5.5441,
      "duration": 0.2831,
      "velocity": 126,
      "chip": "ym2612"
    },
    {
      "channel": 4,
      "note": 66,
      "start": 5.5784,
      "duration": 0.1497,
      "velocity": 106,
      "chip": "ym2612"
    },
    {
      "channel": 4,
      "note": 71,
      "start": 5.7285,
      "duration": 0.1331,
      "velocity": 106,
      "chip": "ym2612"
    },
    {
      "channel": 0,
      "note": 54,
      "start": 5.8276,
      "duration": 0.283,
      "velocity": 126,
      "chip": "ym2612"
    },
    {
      "channel": 1,
      "note": 67,
      "start": 5.828,
      "duration": 0.1494,
      "velocity": 110,
      "chip": "ym2612"
    },
    {
      "channel": 3,
      "note": 50,
      "start": 5.8616,
      "duration": 0.1497,
      "velocity": 106,
      "chip": "ym2612"
    },
    {
      "channel": 2,
      "note": 67,
      "start": 5.9281,
      "duration": 0.1495,
      "velocity": 108,
      "chip": "ym2612"
    },
    {
      "channel": 1,
      "note": 69,
      "start": 5.9777,
      "duration": 0.1332,
      "velocity": 110,
      "chip": "ym2612"
    },
    {
      "channel": 3,
      "note": 52,
      "start": 6.0116,
      "duration": 0.133,
      "velocity": 106,
      "chip": "ym2612"
    },
    {
      "channel": 4,
      "note": 73,
      "start": 6.012,
      "duration": 0.133,
      "velocity": 106,
      "chip": "ym2612"
    },
    {
      "channel": 2,
      "note": 69,
      "start": 6.078,
      "duration": 0.1498,
      "velocity": 108,
      "chip": "ym2612"
    },
    {
      "channel": 0,
      "note": 61,
      "start": 6.1109,
      "duration": 0.1496,
      "velocity": 126,
      "chip": "ym2612"
    },
    {
      "channel": 1,
      "note": 67,
      "start": 6.1113,
      "duration": 0.8663,
      "velocity": 110,
      "chip": "ym2612"
    },
    {
      "channel": 3,
      "note": 50,
      "start": 6.1449,
      "duration": 0.8663,
      "velocity": 106,
      "chip": "ym2612"
    },
    {
      "channel": 2,
      "note": 67,
      "start": 6.2281,
      "duration": 0.8495,
      "velocity": 108,
      "chip": "ym2612"
    },
    {
      "channel": 4,
      "note": 71,
      "start": 6.2949,
      "duration": 0.1333,
      "velocity": 106,
      "chip": "ym2612"
    },
    {
      "channel": 0,
      "note": 54,
      "start": 6.3941,
      "duration": 0.1497,
      "velocity": 126,
      "chip": "ym2612"
    },
    {
      "channel": 4,
      "note": 66,
      "start": 6.4285,
      "duration": 0.1495,
      "velocity": 106,
      "chip": "ym2612"
    },
    {
      "channel": 0,
      "note": 61,
      "start": 6.5441,
      "duration": 0.133,
      "velocity": 126,
      "chip": "ym2612"
    },
    {
      "channel": 4,
      "note": 73,
      "start": 6.5784,
      "duration": 0.1498,
      "velocity": 106,
      "chip": "ym2612"
    },
    {
      "channel": 0,
      "note": 54,
      "start": 6.6775,
      "duration": 0.1498,
      "velocity": 126,
      "chip": "ym2612"
    },
    {
      "channel": 4,
      "note": 66,
      "start": 6.7285,
      "duration": 0.1329,
      "velocity": 106,
      "chip": "ym2612"
    },
    {
      "channel": 0,
      "note": 61,
      "start": 6.8276,
      "duration": 0.1496,
      "velocity": 126,
      "chip": "ym2612"
    },
    {
      "channel": 4,
      "note": 71,
      "start": 6.8618,
      "duration": 0.1499,
      "velocity": 106,
      "chip": "ym2612"
    },
    {
      "channel": 0,
      "note": 59,
      "start": 6.9776,
      "duration": 0.2829,
      "velocity": 126,
      "chip": "ym2612"
    },
    {
      "channel": 1,
      "note": 66,
      "start": 6.9779,
      "duration": 0.283,
      "velocity": 110,
      "chip": "ym2612"
    },
    {
      "channel": 3,
      "note": 49,
      "start": 7.0116,
      "duration": 0.283,
      "velocity": 106,
      "chip": "ym2612"
    },
    {
      "channel": 4,
      "note": 66,
      "start": 7.012,
      "duration": 0.1328,
      "velocity": 106,
      "chip": "ym2612"
    },
    {
      "channel": 2,
      "note": 66,
      "start": 7.078,
      "duration": 0.2829,
      "velocity": 108,
      "chip": "ym2612"
    },
    {
      "channel": 4,
      "note": 76,
      "start": 7.1451,
      "duration": 0.1499,
      "velocity": 106,
      "chip": "ym2612"
    },
    {
      "channel": 0,
      "note": 52,
      "start": 7.2609,
      "duration": 0.133,
      "velocity": 126,
      "chip": "ym2612"
    },
    {
      "channel": 1,
      "note": 64,
      "start": 7.2612,
      "duration": 0.2827,
      "velocity": 110,
      "chip": "ym2612"
    },
    {
      "channel": 3,
      "note": 47,
      "start": 7.2949,
      "duration": 0.2828,
      "velocity": 106,
      "chip": "ym2612"
    },
    {
      "channel": 4,
      "note": 66,
      "start": 7.2953,
      "duration": 0.1326,
      "velocity": 106,
      "chip": "ym2612"
    },
    {
      "channel": 2,
      "note": 64,
      "start": 7.3613,
      "duration": 0.2828,
      "velocity": 108,
      "chip": "ym2612"
    },
    {
      "channel": 4,
      "note": 71,
      "start": 7.4282,
      "duration": 0.1499,
      "velocity": 106,
      "chip": "ym2612"
    },
    {
      "channel": 1,
      "note": 62,
      "start": 7.5443,
      "duration": 0.1414,
      "velocity": 110,
      "chip": "ym2612"
    },
    {
      "channel": 3,
      "note": 45,
      "start": 7.578,
      "duration": 0.1106,
      "velocity": 106,
      "chip": "ym2612"
    },
    {
      "channel": 2,
      "note": 62,
      "start": 7.6445,
      "duration": 0.069,
      "velocity": 108,
      "chip": "ym2612"
    },
    {
      "channel": 4,
      "note": 73,
      "start": 7.6808,
      "duration": 0.0081,
      "velocity": 106,
      "chip": "ym2612"
    },
    {
      "channel": 0,
      "note": 61,
      "start": 7.6856,
      "duration": 0.0773,
      "velocity": 126,
      "chip": "ym2612"
    },
    {
      "channel": 1,
      "note": 61,
      "start": 7.686,
      "duration": 1.2105,
      "velocity": 110,
      "chip": "ym2612"
    },
    {
      "channel": 3,
      "note": 42,
      "start": 7.6888,
      "duration": 1.2413,
      "velocity": 106,
      "chip": "ym2612"
    },
    {
      "channel": 2,
      "note": 61,
      "start": 7.7139,
      "duration": 1.2994,
      "velocity": 108,
      "chip": "ym2612"
    },
    {
      "channel": 4,
      "note": 71,
      "start": 7.7973,
      "duration": 0.1332,
      "velocity": 106,
      "chip": "ym2612"
    },
    {
      "channel": 0,
      "note": 54,
      "start": 7.8966,
      "duration": 0.1497,
      "velocity": 126,
      "chip": "ym2612"
    },
    {
      "channel": 4,
      "note": 66,
      "start": 7.9309,
      "duration": 0.1496,
      "velocity": 106,
      "chip": "ym2612"
    },
    {
      "channel": 0,
      "note": 61,
      "start": 8.0466,
      "duration": 0.133,
      "velocity": 126,
      "chip": "ym2612"
    },
    {
      "channel": 4,
      "note": 73,
      "start": 8.0808,
      "duration": 0.1332,
      "velocity": 106,
      "chip": "ym2612"
    },
    {
      "channel": 0,
      "note": 54,
      "start": 8.1799,
      "duration": 0.1497,
      "velocity": 126,
      "chip": "ym2612"
    },
    {
      "channel": 4,
      "note": 66,
      "start": 8.2143,
      "duration": 0.1496,
      "velocity": 106,
      "chip": "ym2612"
    },
    {
      "channel": 0,
      "note": 61,
      "start": 8.3299,
      "duration": 0.133,
      "velocity": 126,
      "chip": "ym2612"
    },
    {
      "channel": 4,
      "note": 71,
      "start": 8.3642,
      "duration": 0.1498,
      "velocity": 106,
      "chip": "ym2612"
    },
    {
      "channel": 0,
      "note": 59,
      "start": 8.4633,
      "duration": 0.2996,
      "velocity": 126,
      "chip": "ym2612"
    },
    {
      "channel": 4,
      "note": 66,
      "start": 8.5143,
      "duration": 0.1329,
      "velocity": 106,
      "chip": "ym2612"
    },
    {
      "channel": 4,
      "note": 76,
      "start": 8.6475,
      "duration": 0.1497,
      "velocity": 106,
      "chip": "ym2612"
    },
    {
      "channel": 0,
      "note": 52,
      "start": 8.7632,
      "duration": 0.283,
      "velocity": 126,
      "chip": "ym2612"
    },
    {
      "channel": 4,
      "note": 66,
      "start": 8.7975,
      "duration": 0.1328,
      "velocity": 106,
      "chip": "ym2612"
    },
    {
      "channel": 4,
      "note": 71,
      "start": 8.9307,
      "duration": 0.1499,
      "velocity": 106,
      "chip": "ym2612"
    },
    {
      "channel": 0,
      "note": 54,
      "start": 9.0466,
      "duration": 0.2831,
      "velocity": 126,
      "chip": "ym2612"
    },
    {
      "channel": 1,
      "note": 61,
      "start": 9.047,
      "duration": 0.1328,
      "velocity": 110,
      "chip": "ym2612"
    },
    {
      "channel": 3,
      "note": 42,
      "start": 9.0805,
      "duration": 0.1333,
      "velocity": 106,
      "chip": "ym2612"
    },
    {
      "channel": 2,
      "note": 61,
      "start": 9.1471,
      "duration": 0.1497,
      "velocity": 108,
      "chip": "ym2612"
    },
    {
      "channel": 1,
      "note": 62,
      "start": 9.1802,
      "duration": 0.1499,
      "velocity": 110,
      "chip": "ym2612"
    },
    {
      "channel": 3,
      "note": 45,
      "start": 9.2141,
      "duration": 0.1496,
      "velocity": 106,
      "chip": "ym2612"
    },
    {
      "channel": 4,
      "note": 73,
      "start": 9.2144,
      "duration": 0.1497,
      "velocity": 106,
      "chip": "ym2612"
    },
    {
      "channel": 2,
      "note": 62,
      "start": 9.2971,
      "duration": 0.133,
      "velocity": 108,
      "chip": "ym2612"
    },
    {
      "channel": 0,
      "note": 61,
      "start": 9.33,
      "duration": 0.1329,
      "velocity": 126,
      "chip": "ym2612"
    },
    {
      "channel": 1,
      "note": 64,
      "start": 9.3304,
      "duration": 0.8498,
      "velocity": 110,
      "chip": "ym2612"
    },
    {
      "channel": 3,
      "note": 47,
      "start": 9.364,
      "duration": 0.819,
      "velocity": 106,
      "chip": "ym2612"
    },
    {
      "channel": 2,
      "note": 64,
      "start": 9.4305,
      "duration": 0.7596,
      "velocity": 108,
      "chip": "ym2612"
    },
    {
      "channel": 4,
      "note": 71,
      "start": 9.5141,
      "duration": 0.1332,
      "velocity": 106,
      "chip": "ym2612"
    },
    {
      "channel": 0,
      "note": 54,
      "start": 9.6133,
      "duration": 0.1496,
      "velocity": 126,
      "chip": "ym2612"
    },
    {
      "channel": 4,
      "note": 66,
      "start": 9.6475,
      "duration": 0.1496,
      "velocity": 106,
      "chip": "ym2612"
    },
    {
      "channel": 0,
      "note": 61,
      "start": 9.7632,
      "duration": 0.133,
      "velocity": 126,
      "chip": "ym2612"
    },
    {
      "channel": 4,
      "note": 73,
      "start": 9.7975,
      "duration": 0.133,
      "velocity": 106,
      "chip": "ym2612"
    },
    {
      "channel": 0,
      "note": 54,
      "start": 9.8966,
      "duration": 0.1497,
      "velocity": 126,
      "chip": "ym2612"
    },
    {
      "channel": 4,
      "note": 66,
      "start": 9.9309,
      "duration": 0.1497,
      "velocity": 106,
      "chip": "ym2612"
    },
    {
      "channel": 0,
      "note": 61,
      "start": 10.0466,
      "duration": 0.1333,
      "velocity": 126,
      "chip": "ym2612"
    },
    {
      "channel": 4,
      "note": 71,
      "start": 10.0809,
      "duration": 0.1024,
      "velocity": 106,
      "chip": "ym2612"
    },
    {
      "channel": 0,
      "note": 59,
      "start": 10.1802,
      "duration": 0.0212,
      "velocity": 126,
      "chip": "ym2612"
    },
    {
      "channel": 1,
      "note": 66,
      "start": 10.1806,
      "duration": 0.0584,
      "velocity": 87,
      "chip": "ym2612"
    },
    {
      "channel": 3,
      "note": 49,
      "start": 10.1832,
      "duration": 0.0589,
      "velocity": 126,
      "chip": "ym2612"
    },
    {
      "channel": 4,
      "note": 66,
      "start": 10.1835,
      "duration": 0.0132,
      "velocity": 106,
      "chip": "ym2612"
    },
    {
      "channel": 2,
      "note": 66,
      "start": 10.1904,
      "duration": 0.0575,
      "velocity": 85,
      "chip": "ym2612"
    },
    {
      "channel": 4,
      "note": 76,
      "start": 10.197,
      "duration": 0.0087,
      "velocity": 106,
      "chip": "ym2612"
    },
    {
      "channel": 0,
      "note": 52,
      "start": 10.2018,
      "duration": 0.0176,
      "velocity": 126,
      "chip": "ym2612"
    },
    {
      "channel": 4,
      "note": 66,
      "start": 10.206,
      "duration": 0.0076,
      "velocity": 106,
      "chip": "ym2612"
    },
    {
      "channel": 4,
      "note": 71,
      "start": 10.2138,
      "duration": 0.0087,
      "velocity": 106,
      "chip": "ym2612"
    },
    {
      "channel": 0,
      "note": 64,
      "start": 10.2198,
      "duration": 0.0171,
      "velocity": 127,
      "chip": "ym2612"
    },
    {
      "channel": 4,
      "note": 73,
      "start": 10.2295,
      "duration": 0.0144,
      "velocity": 127,
      "chip": "ym2612"
    },
    {
      "channel": 0,
      "note": 61,
      "start": 10.2372,
      "duration": 0.0114,
      "velocity": 127,
      "chip": "ym2612"
    },
    {
      "channel": 3,
      "note": 61,
      "start": 10.2424,
      "duration": 0.0075,
      "velocity": 126,
      "chip": "ym2612"
    },
    {
      "channel": 4,
      "note": 71,
      "start": 10.2441,
      "duration": 0.0057,
      "velocity": 127,
      "chip": "ym2612"
    },
    {
      "channel": 1,
      "note": 71,
      "start": 10.2489,
      "duration": 0.0386,
      "velocity": 87,
      "chip": "ym2612"
    },
    {
      "channel": 4,
      "note": 66,
      "start": 10.2501,
      "duration": 0.0398,
      "velocity": 127,
      "chip": "ym2612"
    },
    {
      "channel": 2,
      "note": 71,
      "start": 10.2541,
      "duration": 0.0387,
      "velocity": 85,
      "chip": "ym2612"
    },
    {
      "channel": 0,
      "note": 54,
      "start": 10.2874,
      "duration": 0.0066,
      "velocity": 127,
      "chip": "ym2612"
    },
    {
      "channel": 1,
      "note": 66,
      "start": 10.2878,
      "duration": 0.0066,
      "velocity": 87,
      "chip": "ym2612"
    },
    {
      "channel": 3,
      "note": 54,
      "start": 10.2898,
      "duration": 0.0085,
      "velocity": 126,
      "chip": "ym2612"
    },
    {
      "channel": 4,
      "note": 73,
      "start": 10.2902,
      "duration": 0.0084,
      "velocity": 127,
      "chip": "ym2612"
    },
    {
      "channel": 2,
      "note": 66,
      "start": 10.293,
      "duration": 0.0092,
      "velocity": 85,
      "chip": "ym2612"
    },
    {
      "channel": 0,
      "note": 61,
      "start": 10.2943,
      "duration": 0.0094,
      "velocity": 127,
      "chip": "ym2612"
    },
    {
      "channel": 1,
      "note": 73,
      "start": 10.2947,
      "duration": 0.0096,
      "velocity": 87,
      "chip": "ym2612"
    },
    {
      "channel": 3,
      "note": 61,
      "start": 10.2985,
      "duration": 0.0082,
      "velocity": 126,
      "chip": "ym2612"
    },
    {
      "channel": 4,
      "note": 66,
      "start": 10.2989,
      "duration": 0.0082,
      "velocity": 127,
      "chip": "ym2612"
    },
    {
      "channel": 2,
      "note": 73,
      "start": 10.3026,
      "duration": 0.0074,
      "velocity": 85,
      "chip": "ym2612"
    },
    {
      "channel": 0,
      "note": 54,
      "start": 10.3042,
      "duration": 0.0078,
      "velocity": 127,
      "chip": "ym2612"
    },
    {
      "channel": 1,
      "note": 66,
      "start": 10.3046,
      "duration": 0.0078,
      "velocity": 87,
      "chip": "ym2612"
    },
    {
      "channel": 3,
      "note": 54,
      "start": 10.3071,
      "duration": 0.0096,
      "velocity": 126,
      "chip": "ym2612"
    },
    {
      "channel": 4,
      "note": 71,
      "start": 10.3073,
      "duration": 0.0096,
      "velocity": 127,
      "chip": "ym2612"
    },
    {
      "channel": 2,
      "note": 66,
      "start": 10.3102,
      "duration": 0.01,
      "velocity": 85,
      "chip": "ym2612"
    },
    {
      "channel": 0,
      "note": 61,
      "start": 10.3124,
      "duration": 0.0096,
      "velocity": 127,
      "chip": "ym2612"
    },
    {
      "channel": 1,
      "note": 71,
      "start": 10.3128,
      "duration": 0.0098,
      "velocity": 87,
      "chip": "ym2612"
    },
    {
      "channel": 3,
      "note": 61,
      "start": 10.3169,
      "duration": 0.0082,
      "velocity": 126,
      "chip": "ym2612"
    },
    {
      "channel": 4,
      "note": 66,
      "start": 10.3172,
      "duration": 0.0081,
      "velocity": 127,
      "chip": "ym2612"
    },
    {
      "channel": 2,
      "note": 71,
      "start": 10.3206,
      "duration": 0.0084,
      "velocity": 85,
      "chip": "ym2612"
    },
    {
      "channel": 0,
      "note": 59,
      "start": 10.3225,
      "duration": 0.0495,
      "velocity": 127,
      "chip": "ym2612"
    },
    {
      "channel": 1,
      "note": 66,
      "start": 10.3229,
      "duration": 0.0076,
      "velocity": 87,
      "chip": "ym2612"
    },
    {
      "channel": 3,
      "note": 59,
      "start": 10.3252,
      "duration": 0.0809,
      "velocity": 126,
      "chip": "ym2612"
    },
    {
      "channel": 4,
      "note": 76,
      "start": 10.3256,
      "duration": 0.0071,
      "velocity": 127,
      "chip": "ym2612"
    },
    {
      "channel": 2,
      "note": 66,
      "start": 10.3292,
      "duration": 0.0099,
      "velocity": 85,
      "chip": "ym2612"
    },
    {
      "channel": 1,
      "note": 76,
      "start": 10.3308,
      "duration": 0.0416,
      "velocity": 87,
      "chip": "ym2612"
    },
    {
      "channel": 4,
      "note": 66,
      "start": 10.3329,
      "duration": 0.0736,
      "velocity": 127,
      "chip": "ym2612"
    },
    {
      "channel": 2,
      "note": 76,
      "start": 10.3395,
      "duration": 0.1497,
      "velocity": 85,
      "chip": "ym2612"
    },
    {
      "channel": 0,
      "note": 52,
      "start": 10.3723,
      "duration": 0.1601,
      "velocity": 127,
      "chip": "ym2612"
    },
    {
      "channel": 1,
      "note": 66,
      "start": 10.3727,
      "duration": 0.1496,
      "velocity": 87,
      "chip": "ym2612"
    },
    {
      "channel": 3,
      "note": 52,
      "start": 10.4065,
      "duration": 0.129,
      "velocity": 126,
      "chip": "ym2612"
    },
    {
      "channel": 4,
      "note": 71,
      "start": 10.4068,
      "duration": 0.1202,
      "velocity": 127,
      "chip": "ym2612"
    },
    {
      "channel": 2,
      "note": 66,
      "start": 10.4895,
      "duration": 0.0412,
      "velocity": 85,
      "chip": "ym2612"
    },
    {
      "channel": 1,
      "note": 71,
      "start": 10.5227,
      "duration": 0.0101,
      "velocity": 87,
      "chip": "ym2612"
    },
    {
      "channel": 4,
      "note": 66,
      "start": 10.5274,
      "duration": 0.0085,
      "velocity": 127,
      "chip": "ym2612"
    },
    {
      "channel": 2,
      "note": 71,
      "start": 10.531,
      "duration": 0.0074,
      "velocity": 85,
      "chip": "ym2612"
    },
    {
      "channel": 0,
      "note": 54,
      "start": 10.5328,
      "duration": 0.0463,
      "velocity": 127,
      "chip": "ym2612"
    },
    {
      "channel": 3,
      "note": 54,
      "start": 10.5358,
      "duration": 0.0456,
      "velocity": 126,
      "chip": "ym2612"
    },
    {
      "channel": 4,
      "note": 73,
      "start": 10.5361,
      "duration": 0.0055,
      "velocity": 127,
      "chip": "ym2612"
    },
    {
      "channel": 1,
      "note": 73,
      "start": 10.5398,
      "duration": 0.0398,
      "velocity": 87,
      "chip": "ym2612"
    },
    {
      "channel": 4,
      "note": 66,
      "start": 10.5418,
      "duration": 0.0398,
      "velocity": 127,
      "chip": "ym2612"
    },
    {
      "channel": 2,
      "note": 73,
      "start": 10.5447,
      "duration": 0.0391,
      "velocity": 85,
      "chip": "ym2612"
    },
    {
      "channel": 0,
      "note": 61,
      "start": 10.5794,
      "duration": 0.0052,
      "velocity": 127,
      "chip": "ym2612"
    },
    {
      "channel": 3,
      "note": 61,
      "start": 10.5816,
      "duration": 0.0044,
      "velocity": 126,
      "chip": "ym2612"
    },
    {
      "channel": 4,
      "note": 71,
      "start": 10.5818,
      "duration": 0.0042,
      "velocity": 127,
      "chip": "ym2612"
    },
    {
      "channel": 1,
      "note": 71,
      "start": 10.5849,
      "duration": 0.0419,
      "velocity": 87,
      "chip": "ym2612"
    },
    {
      "channel": 4,
      "note": 66,
      "start": 10.5861,
      "duration": 0.0431,
      "velocity": 127,
      "chip": "ym2612"
    },
    {
      "channel": 2,
      "note": 71,
      "start": 10.5935,
      "duration": 0.0386,
      "velocity": 85,
      "chip": "ym2612"
    },
    {
      "channel": 0,
      "note": 54,
      "start": 10.6267,
      "duration": 0.0066,
      "velocity": 127,
      "chip": "ym2612"
    },
    {
      "channel": 1,
      "note": 66,
      "start": 10.6271,
      "duration": 0.0066,
      "velocity": 87,
      "chip": "ym2612"
    },
    {
      "channel": 3,
      "note": 54,
      "start": 10.6292,
      "duration": 0.0074,
      "velocity": 126,
      "chip": "ym2612"
    },
    {
      "channel": 4,
      "note": 73,
      "start": 10.6295,
      "duration": 0.0073,
      "velocity": 127,
      "chip": "ym2612"
    },
    {
      "channel": 2,
      "note": 66,
      "start": 10.6324,
      "duration": 0.0089,
      "velocity": 85,
      "chip": "ym2612"
    },
    {
      "channel": 0,
      "note": 61,
      "start": 10.6336,
      "duration": 0.0093,
      "velocity": 127,
      "chip": "ym2612"
    },
    {
      "channel": 1,
      "note": 73,
      "start": 10.6341,
      "duration": 0.0093,
      "velocity": 87,
      "chip": "ym2612"
    },
    {
      "channel": 3,
      "note": 61,
      "start": 10.6368,
      "duration": 0.0091,
      "velocity": 126,
      "chip": "ym2612"
    },
    {
      "channel": 4,
      "note": 66,
      "start": 10.6371,
      "duration": 0.0091,
      "velocity": 127,
      "chip": "ym2612"
    },
    {
      "channel": 2,
      "note": 73,
      "start": 10.6415,
      "duration": 0.0077,
      "velocity": 85,
      "chip": "ym2612"
    },
    {
      "channel": 0,
      "note": 54,
      "start": 10.6433,
      "duration": 0.007,
      "velocity": 127,
      "chip": "ym2612"
    },
    {
      "channel": 1,
      "note": 66,
      "start": 10.6437,
      "duration": 0.0069,
      "velocity": 87,
      "chip": "ym2612"
    },
    {
      "channel": 3,
      "note": 54,
      "start": 10.6461,
      "duration": 0.0086,
      "velocity": 126,
      "chip": "ym2612"
    },
    {
      "channel": 4,
      "note": 71,
      "start": 10.6465,
      "duration": 0.0086,
      "velocity": 127,
      "chip": "ym2612"
    },
    {
      "channel": 2,
      "note": 66,
      "start": 10.6493,
      "duration": 0.0083,
      "velocity": 85,
      "chip": "ym2612"
    },
    {
      "channel": 0,
      "note": 61,
      "start": 10.6506,
      "duration": 0.0084,
      "velocity": 127,
      "chip": "ym2612"
    },
    {
      "channel": 1,
      "note": 71,
      "start": 10.6511,
      "duration": 0.0084,
      "velocity": 87,
      "chip": "ym2612"
    },
    {
      "channel": 3,
      "note": 61,
      "start": 10.6549,
      "duration": 0.0072,
      "velocity": 126,
      "chip": "ym2612"
    },
    {
      "channel": 4,
      "note": 66,
      "start": 10.6552,
      "duration": 0.0074,
      "velocity": 127,
      "chip": "ym2612"
    },
    {
      "channel": 2,
      "note": 71,
      "start": 10.658,
      "duration": 0.0073,
      "velocity": 85,
      "chip": "ym2612"
    },
    {
      "channel": 0,
      "note": 59,
      "start": 10.6594,
      "duration": 0.0497,
      "velocity": 127,
      "chip": "ym2612"
    },
    {
      "channel": 1,
      "note": 66,
      "start": 10.6598,
      "duration": 0.0075,
      "velocity": 87,
      "chip": "ym2612"
    },
    {
      "channel": 3,
      "note": 59,
      "start": 10.6624,
      "duration": 0.0494,
      "velocity": 126,
      "chip": "ym2612"
    },
    {
      "channel": 4,
      "note": 76,
      "start": 10.6627,
      "duration": 0.0067,
      "velocity": 127,
      "chip": "ym2612"
    },
    {
      "channel": 2,
      "note": 66,
      "start": 10.6655,
      "duration": 0.0106,
      "velocity": 85,
      "chip": "ym2612"
    },
    {
      "channel": 1,
      "note": 76,
      "start": 10.6674,
      "duration": 0.0421,
      "velocity": 87,
      "chip": "ym2612"
    },
    {
      "channel": 4,
      "note": 66,
      "start": 10.6697,
      "duration": 0.0423,
      "velocity": 127,
      "chip": "ym2612"
    },
    {
      "channel": 2,
      "note": 76,
      "start": 10.6764,
      "duration": 0.0395,
      "velocity": 85,
      "chip": "ym2612"
    },
    {
      "channel": 0,
      "note": 52,
      "start": 10.7095,
      "duration": 0.0077,
      "velocity": 127,
      "chip": "ym2612"
    },
    {
      "channel": 1,
      "note": 66,
      "start": 10.7098,
      "duration": 0.0075,
      "velocity": 87,
      "chip": "ym2612"
    },
    {
      "channel": 3,
      "note": 52,
      "start": 10.712,
      "duration": 0.0081,
      "velocity": 126,
      "chip": "ym2612"
    },
    {
      "channel": 4,
      "note": 71,
      "start": 10.7122,
      "duration": 0.0079,
      "velocity": 127,
      "chip": "ym2612"
    },
    {
      "channel": 2,
      "note": 66,
      "start": 10.7161,
      "duration": 0.0065,
      "velocity": 85,
      "chip": "ym2612"
    },
    {
      "channel": 1,
      "note": 71,
      "start": 10.7177,
      "duration": 0.0061,
      "velocity": 87,
      "chip": "ym2612"
    },
    {
      "channel": 4,
      "note": 66,
      "start": 10.7204,
      "duration": 0.0054,
      "velocity": 127,
      "chip": "ym2612"
    },
    {
      "channel": 2,
      "note": 71,
      "start": 10.7229,
      "duration": 0.005,
      "velocity": 85,
      "chip": "ym2612"
    },
    {
      "channel": 4,
      "note": 73,
      "start": 10.7261,
      "duration": 0.0056,
      "velocity": 127,
      "chip": "ym2612"
    },
    {
      "channel": 1,
      "note": 73,
      "start": 10.7303,
      "duration": 0.0042,
      "velocity": 87,
      "chip": "ym2612"
    },
    {
      "channel": 4,
      "note": 66,
      "start": 10.732,
      "duration": 0.0047,
      "velocity": 127,
      "chip": "ym2612"
    },
    {
      "channel": 2,
      "note": 73,
      "start": 10.7335,
      "duration": 0.0107,
      "velocity": 85,
      "chip": "ym2612"
    },
    {
      "channel": 0,
      "note": 61,
      "start": 10.7344,
      "duration": 0.0428,
      "velocity": 127,
      "chip": "ym2612"
    },
    {
      "channel": 3,
      "note": 61,
      "start": 10.7366,
      "duration": 0.0743,
      "velocity": 126,
      "chip": "ym2612"
    },
    {
      "channel": 4,
      "note": 71,
      "start": 10.7369,
      "duration": 0.0741,
      "velocity": 127,
      "chip": "ym2612"
    },
    {
      "channel": 1,
      "note": 71,
      "start": 10.7778,
      "duration": 0.15,
      "velocity": 87,
      "chip": "ym2612"
    },
    {
      "channel": 4,
      "note": 66,
      "start": 10.8114,
      "duration": 0.1187,
      "velocity": 127,
      "chip": "ym2612"
    },
    {
      "channel": 2,
      "note": 71,
      "start": 10.8778,
      "duration": 0.0551,
      "velocity": 85,
      "chip": "ym2612"
    },
    {
      "channel": 0,
      "note": 54,
      "start": 10.9277,
      "duration": 0.0064,
      "velocity": 127,
      "chip": "ym2612"
    },
    {
      "channel": 1,
      "note": 66,
      "start": 10.9281,
      "duration": 0.0064,
      "velocity": 87,
      "chip": "ym2612"
    },
    {
      "channel": 3,
      "note": 54,
      "start": 10.93,
      "duration": 0.0073,
      "velocity": 126,
      "chip": "ym2612"
    },
    {
      "channel": 4,
      "note": 73,
      "start": 10.9302,
      "duration": 0.0074,
      "velocity": 127,
      "chip": "ym2612"
    },
    {
      "channel": 2,
      "note": 66,
      "start": 10.9332,
      "duration": 0.0089,
      "velocity": 85,
      "chip": "ym2612"
    },
    {
      "channel": 0,
      "note": 61,
      "start": 10.9344,
      "duration": 0.0091,
      "velocity": 127,
      "chip": "ym2612"
    },
    {
      "channel": 1,
      "note": 73,
      "start": 10.9349,
      "duration": 0.0091,
      "velocity": 87,
      "chip": "ym2612"
    },
    {
      "channel": 3,
      "note": 61,
      "start": 10.9376,
      "duration": 0.0089,
      "velocity": 126,
      "chip": "ym2612"
    },
    {
      "channel": 4,
      "note": 66,
      "start": 10.9379,
      "duration": 0.009,
      "velocity": 127,
      "chip": "ym2612"
    },
    {
      "channel": 2,
      "note": 73,
      "start": 10.9422,
      "duration": 0.0075,
      "velocity": 85,
      "chip": "ym2612"
    },
    {
      "channel": 0,
      "note": 54,
      "start": 10.9439,
      "duration": 0.0069,
      "velocity": 127,
      "chip": "ym2612"
    },
    {
      "channel": 1,
      "note": 66,
      "start": 10.9444,
      "duration": 0.0068,
      "velocity": 87,
      "chip": "ym2612"
    },
    {
      "channel": 3,
      "note": 54,
      "start": 10.9468,
      "duration": 0.0089,
      "velocity": 126,
      "chip": "ym2612"
    },
    {
      "channel": 4,
      "note": 71,
      "start": 10.9471,
      "duration": 0.009,
      "velocity": 127,
      "chip": "ym2612"
    },
    {
      "channel": 2,
      "note": 66,
      "start": 10.9499,
      "duration": 0.0105,
      "velocity": 85,
      "chip": "ym2612"
    },
    {
      "channel": 0,
      "note": 61,
      "start": 10.9512,
      "duration": 0.0107,
      "velocity": 127,
      "chip": "ym2612"
    },
    {
      "channel": 1,
      "note": 71,
      "start": 10.9516,
      "duration": 0.0108,
      "velocity": 87,
      "chip": "ym2612"
    },
    {
      "channel": 3,
      "note": 61,
      "start": 10.9559,
      "duration": 0.009,
      "velocity": 126,
      "chip": "ym2612"
    },
    {
      "channel": 4,
      "note": 66,
      "start": 10.9562,
      "duration": 0.009,
      "velocity": 127,
      "chip": "ym2612"
    },
    {
      "channel": 2,
      "note": 71,
      "start": 10.9606,
      "duration": 0.0075,
      "velocity": 85,
      "chip": "ym2612"
    },
    {
      "channel": 0,
      "note": 59,
      "start": 10.9623,
      "duration": 0.0495,
      "velocity": 127,
      "chip": "ym2612"
    },
    {
      "channel": 1,
      "note": 66,
      "start": 10.9628,
      "duration": 0.0067,
      "velocity": 87,
      "chip": "ym2612"
    },
    {
      "channel": 3,
      "note": 59,
      "start": 10.9652,
      "duration": 0.0493,
      "velocity": 126,
      "chip": "ym2612"
    },
    {
      "channel": 4,
      "note": 76,
      "start": 10.9654,
      "duration": 0.007,
      "velocity": 127,
      "chip": "ym2612"
    },
    {
      "channel": 2,
      "note": 66,
      "start": 10.9683,
      "duration": 0.0104,
      "velocity": 85,
      "chip": "ym2612"
    },
    {
      "channel": 1,
      "note": 76,
      "start": 10.9697,
      "duration": 0.0426,
      "velocity": 87,
      "chip": "ym2612"
    },
    {
      "channel": 4,
      "note": 66,
      "start": 10.9727,
      "duration": 0.042,
      "velocity": 127,
      "chip": "ym2612"
    },
    {
      "channel": 2,
      "note": 76,
      "start": 10.979,
      "duration": 0.0386,
      "velocity": 85,
      "chip": "ym2612"
    },
    {
      "channel": 0,
      "note": 52,
      "start": 11.0122,
      "duration": 0.0157,
      "velocity": 127,
      "chip": "ym2612"
    },
    {
      "channel": 1,
      "note": 66,
      "start": 11.0126,
      "duration": 0.0073,
      "velocity": 87,
      "chip": "ym2612"
    },
    {
      "channel": 3,
      "note": 52,
      "start": 11.0146,
      "duration": 0.0151,
      "velocity": 126,
      "chip": "ym2612"
    },
    {
      "channel": 4,
      "note": 71,
      "start": 11.015,
      "duration": 0.0079,
      "velocity": 127,
      "chip": "ym2612"
    },
    {
      "channel": 2,
      "note": 66,
      "start": 11.0178,
      "duration": 0.0086,
      "velocity": 85,
      "chip": "ym2612"
    },
    {
      "channel": 1,
      "note": 71,
      "start": 11.0202,
      "duration": 0.0079,
      "velocity": 87,
      "chip": "ym2612"
    },
    {
      "channel": 4,
      "note": 66,
      "start": 11.0232,
      "duration": 0.0068,
      "velocity": 127,
      "chip": "ym2612"
    },
    {
      "channel": 2,
      "note": 71,
      "start": 11.0267,
      "duration": 0.0066,
      "velocity": 85,
      "chip": "ym2612"
    },
    {
      "channel": 0,
      "note": 54,
      "start": 11.028,
      "duration": 0.0293,
      "velocity": 127,
      "chip": "ym2612"
    },
    {
      "channel": 3,
      "note": 54,
      "start": 11.03,
      "duration": 0.0298,
      "velocity": 126,
      "chip": "ym2612"
    },
    {
      "channel": 4,
      "note": 73,
      "start": 11.0302,
      "duration": 0.006,
      "velocity": 127,
      "chip": "ym2612"
    },
    {
      "channel": 1,
      "note": 73,
      "start": 11.0345,
      "duration": 0.0233,
      "velocity": 87,
      "chip": "ym2612"
    },
    {
      "channel": 4,
      "note": 66,
      "start": 11.0365,
      "duration": 0.0236,
      "velocity": 127,
      "chip": "ym2612"
    },
    {
      "channel": 2,
      "note": 73,
      "start": 11.0395,
      "duration": 0.0235,
      "velocity": 85,
      "chip": "ym2612"
    },
    {
      "channel": 0,
      "note": 61,
      "start": 11.0576,
      "duration": 0.0062,
      "velocity": 127,
      "chip": "ym2612"
    },
    {
      "channel": 3,
      "note": 61,
      "start": 11.06,
      "duration": 0.005,
      "velocity": 126,
      "chip": "ym2612"
    },
    {
      "channel": 4,
      "note": 71,
      "start": 11.0602,
      "duration": 0.0048,
      "velocity": 127,
      "chip": "ym2612"
    },
    {
      "channel": 1,
      "note": 71,
      "start": 11.064,
      "duration": 0.0414,
      "velocity": 87,
      "chip": "ym2612"
    },
    {
      "channel": 4,
      "note": 66,
      "start": 11.0653,
      "duration": 0.043,
      "velocity": 127,
      "chip": "ym2612"
    },
    {
      "channel": 2,
      "note": 71,
      "start": 11.0721,
      "duration": 0.0391,
      "velocity": 85,
      "chip": "ym2612"
    },
    {
      "channel": 0,
      "note": 54,
      "start": 11.1054,
      "duration": 0.0071,
      "velocity": 127,
      "chip": "ym2612"
    },
    {
      "channel": 1,
      "note": 66,
      "start": 11.1057,
      "duration": 0.0071,
      "velocity": 87,
      "chip": "ym2612"
    },
    {
      "channel": 3,
      "note": 54,
      "start": 11.1082,
      "duration": 0.0075,
      "velocity": 126,
      "chip": "ym2612"
    },
    {
      "channel": 4,
      "note": 73,
      "start": 11.1086,
      "duration": 0.0074,
      "velocity": 127,
      "chip": "ym2612"
    },
    {
      "channel": 2,
      "note": 66,
      "start": 11.1114,
      "duration": 0.0081,
      "velocity": 85,
      "chip": "ym2612"
    },
    {
      "channel": 0,
      "note": 61,
      "start": 11.1128,
      "duration": 0.0093,
      "velocity": 127,
      "chip": "ym2612"
    },
    {
      "channel": 1,
      "note": 73,
      "start": 11.1132,
      "duration": 0.0092,
      "velocity": 87,
      "chip": "ym2612"
    },
    {
      "channel": 3,
      "note": 61,
      "start": 11.1159,
      "duration": 0.0089,
      "velocity": 126,
      "chip": "ym2612"
    },
    {
      "channel": 4,
      "note": 66,
      "start": 11.1162,
      "duration": 0.0089,
      "velocity": 127,
      "chip": "ym2612"
    },
    {
      "channel": 2,
      "note": 73,
      "start": 11.1199,
      "duration": 0.0079,
      "velocity": 85,
      "chip": "ym2612"
    },
    {
      "channel": 0,
      "note": 54,
      "start": 11.1224,
      "duration": 0.0069,
      "velocity": 127,
      "chip": "ym2612"
    },
    {
      "channel": 1,
      "note": 66,
      "start": 11.1228,
      "duration": 0.0067,
      "velocity": 87,
      "chip": "ym2612"
    },
    {
      "channel": 3,
      "note": 54,
      "start": 11.1251,
      "duration": 0.0072,
      "velocity": 126,
      "chip": "ym2612"
    },
    {
      "channel": 4,
      "note": 71,
      "start": 11.1254,
      "duration": 0.0072,
      "velocity": 127,
      "chip": "ym2612"
    },
    {
      "channel": 2,
      "note": 66,
      "start": 11.128,
      "duration": 0.0089,
      "velocity": 85,
      "chip": "ym2612"
    },
    {
      "channel": 0,
      "note": 61,
      "start": 11.1295,
      "duration": 0.009,
      "velocity": 127,
      "chip": "ym2612"
    },
    {
      "channel": 1,
      "note": 71,
      "start": 11.1299,
      "duration": 0.009,
      "velocity": 87,
      "chip": "ym2612"
    },
    {
      "channel": 3,
      "note": 61,
      "start": 11.1325,
      "duration": 0.0089,
      "velocity": 126,
      "chip": "ym2612"
    },
    {
      "channel": 4,
      "note": 66,
      "start": 11.1328,
      "duration": 0.0088,
      "velocity": 127,
      "chip": "ym2612"
    },
    {
      "channel": 2,
      "note": 71,
      "start": 11.1372,
      "duration": 0.0072,
      "velocity": 85,
      "chip": "ym2612"
    },
    {
      "channel": 0,
      "note": 59,
      "start": 11.1388,
      "duration": 0.0498,
      "velocity": 127,
      "chip": "ym2612"
    },
    {
      "channel": 1,
      "note": 66,
      "start": 11.1392,
      "duration": 0.0068,
      "velocity": 87,
      "chip": "ym2612"
    },
    {
      "channel": 3,
      "note": 59,
      "start": 11.1416,
      "duration": 0.0499,
      "velocity": 126,
      "chip": "ym2612"
    },
    {
      "channel": 4,
      "note": 76,
      "start": 11.1418,
      "duration": 0.0063,
      "velocity": 127,
      "chip": "ym2612"
    },
    {
      "channel": 2,
      "note": 66,
      "start": 11.1446,
      "duration": 0.011,
      "velocity": 85,
      "chip": "ym2612"
    },
    {
      "channel": 1,
      "note": 76,
      "start": 11.1462,
      "duration": 0.0429,
      "velocity": 87,
      "chip": "ym2612"
    },
    {
      "channel": 4,
      "note": 66,
      "start": 11.1483,
      "duration": 0.0434,
      "velocity": 127,
      "chip": "ym2612"
    },
    {
      "channel": 2,
      "note": 76,
      "start": 11.156,
      "duration": 0.0387,
      "velocity": 85,
      "chip": "ym2612"
    },
    {
      "channel": 0,
      "note": 52,
      "start": 11.189,
      "duration": 0.0495,
      "velocity": 127,
      "chip": "ym2612"
    },
    {
      "channel": 1,
      "note": 66,
      "start": 11.1894,
      "duration": 0.0066,
      "velocity": 87,
      "chip": "ym2612"
    },
    {
      "channel": 3,
      "note": 52,
      "start": 11.1917,
      "duration": 0.0513,
      "velocity": 126,
      "chip": "ym2612"
    },
    {
      "channel": 4,
      "note": 71,
      "start": 11.192,
      "duration": 0.0069,
      "velocity": 127,
      "chip": "ym2612"
    },
    {
      "channel": 2,
      "note": 66,
      "start": 11.1949,
      "duration": 0.0105,
      "velocity": 85,
      "chip": "ym2612"
    },
    {
      "channel": 1,
      "note": 71,
      "start": 11.1962,
      "duration": 0.0427,
      "velocity": 87,
      "chip": "ym2612"
    },
    {
      "channel": 4,
      "note": 66,
      "start": 11.1991,
      "duration": 0.0442,
      "velocity": 127,
      "chip": "ym2612"
    },
    {
      "channel": 2,
      "note": 71,
      "start": 11.2057,
      "duration": 0.0403,
      "velocity": 85,
      "chip": "ym2612"
    },
    {
      "channel": 0,
      "note": 64,
      "start": 11.2389,
      "duration": 0.0158,
      "velocity": 127,
      "chip": "ym2612"
    },
    {
      "channel": 3,
      "note": 64,
      "start": 11.2432,
      "duration": 0.0168,
      "velocity": 113,
      "chip": "ym2612"
    },
    {
      "channel": 4,
      "note": 73,
      "start": 11.2435,
      "duration": 0.0071,
      "velocity": 127,
      "chip": "ym2612"
    },
    {
      "channel": 1,
      "note": 73,
      "start": 11.2488,
      "duration": 0.0081,
      "velocity": 126,
      "chip": "ym2612"
    },
    {
      "channel": 4,
      "note": 66,
      "start": 11.2508,
      "duration": 0.0095,
      "velocity": 127,
      "chip": "ym2612"
    },
    {
      "channel": 2,
      "note": 73,
      "start": 11.2531,
      "duration": 0.0122,
      "velocity": 126,
      "chip": "ym2612"
    },
    {
      "channel": 0,
      "note": 61,
      "start": 11.255,
      "duration": 0.0115,
      "velocity": 127,
      "chip": "ym2612"
    },
    {
      "channel": 1,
      "note": 66,
      "start": 11.2571,
      "duration": 0.0095,
      "velocity": 126,
      "chip": "ym2612"
    },
    {
      "channel": 3,
      "note": 37,
      "start": 11.2603,
      "duration": 0.008,
      "velocity": 113,
      "chip": "ym2612"
    },
    {
      "channel": 4,
      "note": 71,
      "start": 11.2605,
      "duration": 0.008,
      "velocity": 127,
      "chip": "ym2612"
    },
    {
      "channel": 2,
      "note": 66,
      "start": 11.2655,
      "duration": 0.0078,
      "velocity": 126,
      "chip": "ym2612"
    },
    {
      "channel": 1,
      "note": 71,
      "start": 11.2668,
      "duration": 0.0401,
      "velocity": 126,
      "chip": "ym2612"
    },
    {
      "channel": 3,
      "note": 40,
      "start": 11.2685,
      "duration": 0.0408,
      "velocity": 113,
      "chip": "ym2612"
    },
    {
      "channel": 4,
      "note": 66,
      "start": 11.2688,
      "duration": 0.0408,
      "velocity": 127,
      "chip": "ym2612"
    },
    {
      "channel": 2,
      "note": 71,
      "start": 11.2736,
      "duration": 0.0397,
      "velocity": 126,
      "chip": "ym2612"
    },
    {
      "channel": 0,
      "note": 54,
      "start": 11.3069,
      "duration": 0.0077,
      "velocity": 127,
      "chip": "ym2612"
    },
    {
      "channel": 1,
      "note": 73,
      "start": 11.3073,
      "duration": 0.0078,
      "velocity": 126,
      "chip": "ym2612"
    },
    {
      "channel": 3,
      "note": 42,
      "start": 11.3095,
      "duration": 0.0078,
      "velocity": 113,
      "chip": "ym2612"
    },
    {
      "channel": 4,
      "note": 73,
      "start": 11.3099,
      "duration": 0.0078,
      "velocity": 127,
      "chip": "ym2612"
    },
    {
      "channel": 2,
      "note": 73,
      "start": 11.3135,
      "duration": 0.0075,
      "velocity": 126,
      "chip": "ym2612"
    },
    {
      "channel": 0,
      "note": 61,
      "start": 11.3149,
      "duration": 0.0076,
      "velocity": 127,
      "chip": "ym2612"
    },
    {
      "channel": 1,
      "note": 78,
      "start": 11.3153,
      "duration": 0.0905,
      "velocity": 126,
      "chip": "ym2612"
    },
    {
      "channel": 3,
      "note": 47,
      "start": 11.3176,
      "duration": 0.0907,
      "velocity": 113,
      "chip": "ym2612"
    },
    {
      "channel": 4,
      "note": 66,
      "start": 11.3179,
      "duration": 0.0085,
      "velocity": 127,
      "chip": "ym2612"
    },
    {
      "channel": 2,
      "note": 78,
      "start": 11.3213,
      "duration": 0.0906,
      "velocity": 126,
      "chip": "ym2612"
    },
    {
      "channel": 0,
      "note": 54,
      "start": 11.323,
      "duration": 0.0073,
      "velocity": 127,
      "chip": "ym2612"
    },
    {
      "channel": 4,
      "note": 71,
      "start": 11.3267,
      "duration": 0.0068,
      "velocity": 127,
      "chip": "ym2612"
    },
    {
      "channel": 0,
      "note": 61,
      "start": 11.3306,
      "duration": 0.0091,
      "velocity": 127,
      "chip": "ym2612"
    },
    {
      "channel": 4,
      "note": 66,
      "start": 11.3337,
      "duration": 0.0088,
      "velocity": 127,
      "chip": "ym2612"
    },
    {
      "channel": 0,
      "note": 59,
      "start": 11.3401,
      "duration": 0.0493,
      "velocity": 127,
      "chip": "ym2612"
    },
    {
      "channel": 4,
      "note": 76,
      "start": 11.3427,
      "duration": 0.0062,
      "velocity": 127,
      "chip": "ym2612"
    },
    {
      "channel": 4,
      "note": 66,
      "start": 11.3492,
      "duration": 0.0433,
      "velocity": 127,
      "chip": "ym2612"
    },
    {
      "channel": 0,
      "note": 52,
      "start": 11.3898,
      "duration": 0.0156,
      "velocity": 127,
      "chip": "ym2612"
    },
    {
      "channel": 4,
      "note": 71,
      "start": 11.3926,
      "duration": 0.0067,
      "velocity": 127,
      "chip": "ym2612"
    },
    {
      "channel": 4,
      "note": 66,
      "start": 11.3995,
      "duration": 0.0091,
      "velocity": 127,
      "chip": "ym2612"
    },
    {
      "channel": 0,
      "note": 54,
      "start": 11.4058,
      "duration": 0.048,
      "velocity": 127,
      "chip": "ym2612"
    },
    {
      "channel": 1,
      "note": 76,
      "start": 11.4062,
      "duration": 0.0074,
      "velocity": 126,
      "chip": "ym2612"
    },
    {
      "channel": 3,
      "note": 45,
      "start": 11.4085,
      "duration": 0.0084,
      "velocity": 113,
      "chip": "ym2612"
    },
    {
      "channel": 4,
      "note": 73,
      "start": 11.4088,
      "duration": 0.0084,
      "velocity": 127,
      "chip": "ym2612"
    },
    {
      "channel": 2,
      "note": 76,
      "start": 11.4122,
      "duration": 0.0085,
      "velocity": 126,
      "chip": "ym2612"
    },
    {
      "channel": 1,
      "note": 75,
      "start": 11.4138,
      "duration": 0.0403,
      "velocity": 126,
      "chip": "ym2612"
    },
    {
      "channel": 3,
      "note": 44,
      "start": 11.4171,
      "duration": 0.0392,
      "velocity": 113,
      "chip": "ym2612"
    },
    {
      "channel": 4,
      "note": 66,
      "start": 11.4175,
      "duration": 0.039,
      "velocity": 127,
      "chip": "ym2612"
    },
    {
      "channel": 2,
      "note": 75,
      "start": 11.421,
      "duration": 0.0382,
      "velocity": 126,
      "chip": "ym2612"
    },
    {
      "channel": 0,
      "note": 61,
      "start": 11.4541,
      "duration": 0.0071,
      "velocity": 127,
      "chip": "ym2612"
    },
    {
      "channel": 1,
      "note": 71,
      "start": 11.4545,
      "duration": 0.1464,
      "velocity": 126,
      "chip": "ym2612"
    },
    {
      "channel": 3,
      "note": 42,
      "start": 11.4565,
      "duration": 0.1468,
      "velocity": 113,
      "chip": "ym2612"
    },
    {
      "channel": 4,
      "note": 71,
      "start": 11.4567,
      "duration": 0.0063,
      "velocity": 127,
      "chip": "ym2612"
    },
    {
      "channel": 2,
      "note": 71,
      "start": 11.4595,
      "duration": 0.1469,
      "velocity": 126,
      "chip": "ym2612"
    },
    {
      "channel": 4,
      "note": 66,
      "start": 11.4632,
      "duration": 0.0421,
      "velocity": 127,
      "chip": "ym2612"
    },
    {
      "channel": 0,
      "note": 54,
      "start": 11.5028,
      "duration": 0.0071,
      "velocity": 127,
      "chip": "ym2612"
    },
    {
      "channel": 4,
      "note": 73,
      "start": 11.5055,
      "duration": 0.0075,
      "velocity": 127,
      "chip": "ym2612"
    },
    {
      "channel": 0,
      "note": 61,
      "start": 11.5103,
      "duration": 0.008,
      "velocity": 127,
      "chip": "ym2612"
    },
    {
      "channel": 4,
      "note": 66,
      "start": 11.5132,
      "duration": 0.008,
      "velocity": 127,
      "chip": "ym2612"
    },
    {
      "channel": 0,
      "note": 54,
      "start": 11.5187,
      "duration": 0.0072,
      "velocity": 127,
      "chip": "ym2612"
    },
    {
      "channel": 4,
      "note": 71,
      "start": 11.5215,
      "duration": 0.0076,
      "velocity": 127,
      "chip": "ym2612"
    },
    {
      "channel": 0,
      "note": 61,
      "start": 11.5262,
      "duration": 0.0082,
      "velocity": 127,
      "chip": "ym2612"
    },
    {
      "channel": 4,
      "note": 66,
      "start": 11.5294,
      "duration": 0.0087,
      "velocity": 127,
      "chip": "ym2612"
    },
    {
      "channel": 0,
      "note": 59,
      "start": 11.5348,
      "duration": 0.0657,
      "velocity": 127,
      "chip": "ym2612"
    },
    {
      "channel": 4,
      "note": 76,
      "start": 11.5382,
      "duration": 0.0058,
      "velocity": 127,
      "chip": "ym2612"
    },
    {
      "channel": 4,
      "note": 66,
      "start": 11.5442,
      "duration": 0.0592,
      "velocity": 127,
      "chip": "ym2612"
    },
    {
      "channel": 0,
      "note": 52,
      "start": 11.6008,
      "duration": 0.0067,
      "velocity": 127,
      "chip": "ym2612"
    },
    {
      "channel": 1,
      "note": 68,
      "start": 11.6013,
      "duration": 0.0138,
      "velocity": 126,
      "chip": "ym2612"
    },
    {
      "channel": 3,
      "note": 37,
      "start": 11.6034,
      "duration": 0.0144,
      "velocity": 113,
      "chip": "ym2612"
    },
    {
      "channel": 4,
      "note": 71,
      "start": 11.6036,
      "duration": 0.0066,
      "velocity": 127,
      "chip": "ym2612"
    },
    {
      "channel": 2,
      "note": 68,
      "start": 11.6065,
      "duration": 0.0144,
      "velocity": 126,
      "chip": "ym2612"
    },
    {
      "channel": 4,
      "note": 66,
      "start": 11.6104,
      "duration": 0.0076,
      "velocity": 127,
      "chip": "ym2612"
    },
    {
      "channel": 1,
      "note": 71,
      "start": 11.6156,
      "duration": 0.015,
      "velocity": 126,
      "chip": "ym2612"
    },
    {
      "channel": 3,
      "note": 42,
      "start": 11.618,
      "duration": 0.015,
      "velocity": 113,
      "chip": "ym2612"
    },
    {
      "channel": 4,
      "note": 73,
      "start": 11.6184,
      "duration": 0.0068,
      "velocity": 127,
      "chip": "ym2612"
    },
    {
      "channel": 2,
      "note": 71,
      "start": 11.6211,
      "duration": 0.015,
      "velocity": 126,
      "chip": "ym2612"
    },
    {
      "channel": 4,
      "note": 66,
      "start": 11.6254,
      "duration": 0.0078,
      "velocity": 127,
      "chip": "ym2612"
    },
    {
      "channel": 0,
      "note": 61,
      "start": 11.6305,
      "duration": 0.0067,
      "velocity": 127,
      "chip": "ym2612"
    },
    {
      "channel": 1,
      "note": 67,
      "start": 11.631,
      "duration": 0.0063,
      "velocity": 126,
      "chip": "ym2612"
    },
    {
      "channel": 3,
      "note": 35,
      "start": 11.6332,
      "duration": 0.0065,
      "velocity": 113,
      "chip": "ym2612"
    },
    {
      "channel": 4,
      "note": 71,
      "start": 11.6335,
      "duration": 0.0065,
      "velocity": 127,
      "chip": "ym2612"
    },
    {
      "channel": 2,
      "note": 67,
      "start": 11.6363,
      "duration": 0.01,
      "velocity": 126,
      "chip": "ym2612"
    },
    {
      "channel": 1,
      "note": 71,
      "start": 11.6374,
      "duration": 0.0426,
      "velocity": 126,
      "chip": "ym2612"
    },
    {
      "channel": 3,
      "note": 38,
      "start": 11.6399,
      "duration": 0.0425,
      "velocity": 113,
      "chip": "ym2612"
    },
    {
      "channel": 4,
      "note": 66,
      "start": 11.6402,
      "duration": 0.0426,
      "velocity": 127,
      "chip": "ym2612"
    },
    {
      "channel": 2,
      "note": 71,
      "start": 11.6466,
      "duration": 0.039,
      "velocity": 126,
      "chip": "ym2612"
    },
    {
      "channel": 0,
      "note": 54,
      "start": 11.6799,
      "duration": 0.0078,
      "velocity": 127,
      "chip": "ym2612"
    },
    {
      "channel": 1,
      "note": 73,
      "start": 11.6803,
      "duration": 0.0078,
      "velocity": 126,
      "chip": "ym2612"
    },
    {
      "channel": 3,
      "note": 43,
      "start": 11.6827,
      "duration": 0.0096,
      "velocity": 113,
      "chip": "ym2612"
    },
    {
      "channel": 4,
      "note": 73,
      "start": 11.6829,
      "duration": 0.0097,
      "velocity": 127,
      "chip": "ym2612"
    },
    {
      "channel": 2,
      "note": 73,
      "start": 11.6859,
      "duration": 0.0105,
      "velocity": 126,
      "chip": "ym2612"
    },
    {
      "channel": 0,
      "note": 61,
      "start": 11.6881,
      "duration": 0.0097,
      "velocity": 127,
      "chip": "ym2612"
    },
    {
      "channel": 1,
      "note": 79,
      "start": 11.6885,
      "duration": 0.2208,
      "velocity": 126,
      "chip": "ym2612"
    },
    {
      "channel": 3,
      "note": 50,
      "start": 11.6925,
      "duration": 0.2192,
      "velocity": 113,
      "chip": "ym2612"
    },
    {
      "channel": 4,
      "note": 66,
      "start": 11.6928,
      "duration": 0.008,
      "velocity": 127,
      "chip": "ym2612"
    },
    {
      "channel": 2,
      "note": 79,
      "start": 11.6965,
      "duration": 0.2203,
      "velocity": 126,
      "chip": "ym2612"
    },
    {
      "channel": 0,
      "note": 54,
      "start": 11.6983,
      "duration": 0.0076,
      "velocity": 127,
      "chip": "ym2612"
    },
    {
      "channel": 4,
      "note": 71,
      "start": 11.7011,
      "duration": 0.0081,
      "velocity": 127,
      "chip": "ym2612"
    },
    {
      "channel": 0,
      "note": 61,
      "start": 11.7063,
      "duration": 0.0083,
      "velocity": 127,
      "chip": "ym2612"
    },
    {
      "channel": 4,
      "note": 66,
      "start": 11.7095,
      "duration": 0.008,
      "velocity": 127,
      "chip": "ym2612"
    },
    {
      "channel": 0,
      "note": 59,
      "start": 11.7149,
      "duration": 0.0495,
      "velocity": 127,
      "chip": "ym2612"
    },
    {
      "channel": 4,
      "note": 76,
      "start": 11.7177,
      "duration": 0.0067,
      "velocity": 127,
      "chip": "ym2612"
    },
    {
      "channel": 4,
      "note": 66,
      "start": 11.7246,
      "duration": 0.0432,
      "velocity": 127,
      "chip": "ym2612"
    },
    {
      "channel": 0,
      "note": 52,
      "start": 11.7648,
      "duration": 0.0158,
      "velocity": 127,
      "chip": "ym2612"
    },
    {
      "channel": 4,
      "note": 71,
      "start": 11.768,
      "duration": 0.007,
      "velocity": 127,
      "chip": "ym2612"
    },
    {
      "channel": 4,
      "note": 66,
      "start": 11.7752,
      "duration": 0.0081,
      "velocity": 127,
      "chip": "ym2612"
    },
    {
      "channel": 0,
      "note": 54,
      "start": 11.7808,
      "duration": 0.047,
      "velocity": 127,
      "chip": "ym2612"
    },
    {
      "channel": 4,
      "note": 73,
      "start": 11.7835,
      "duration": 0.0072,
      "velocity": 127,
      "chip": "ym2612"
    },
    {
      "channel": 4,
      "note": 66,
      "start": 11.791,
      "duration": 0.0397,
      "velocity": 127,
      "chip": "ym2612"
    },
    {
      "channel": 0,
      "note": 61,
      "start": 11.8282,
      "duration": 0.0064,
      "velocity": 127,
      "chip": "ym2612"
    },
    {
      "channel": 4,
      "note": 71,
      "start": 11.8308,
      "duration": 0.0054,
      "velocity": 127,
      "chip": "ym2612"
    },
    {
      "channel": 4,
      "note": 66,
      "start": 11.8364,
      "duration": 0.0433,
      "velocity": 127,
      "chip": "ym2612"
    },
    {
      "channel": 0,
      "note": 54,
      "start": 11.8771,
      "duration": 0.0068,
      "velocity": 127,
      "chip": "ym2612"
    },
    {
      "channel": 4,
      "note": 73,
      "start": 11.8799,
      "duration": 0.0081,
      "velocity": 127,
      "chip": "ym2612"
    },
    {
      "channel": 0,
      "note": 61,
      "start": 11.8842,
      "duration": 0.0089,
      "velocity": 127,
      "chip": "ym2612"
    },
    {
      "channel": 4,
      "note": 66,
      "start": 11.8883,
      "duration": 0.008,
      "velocity": 127,
      "chip": "ym2612"
    },
    {
      "channel": 0,
      "note": 54,
      "start": 11.8937,
      "duration": 0.0073,
      "velocity": 127,
      "chip": "ym2612"
    },
    {
      "channel": 4,
      "note": 71,
      "start": 11.8965,
      "duration": 0.0076,
      "velocity": 127,
      "chip": "ym2612"
    },
    {
      "channel": 0,
      "note": 61,
      "start": 11.9012,
      "duration": 0.0077,
      "velocity": 127,
      "chip": "ym2612"
    },
    {
      "channel": 4,
      "note": 66,
      "start": 11.9043,
      "duration": 0.0078,
      "velocity": 127,
      "chip": "ym2612"
    },
    {
      "channel": 0,
      "note": 59,
      "start": 11.9092,
      "duration": 0.0192,
      "velocity": 127,
      "chip": "ym2612"
    },
    {
      "channel": 1,
      "note": 78,
      "start": 11.9095,
      "duration": 0.0193,
      "velocity": 126,
      "chip": "ym2612"
    },
    {
      "channel": 3,
      "note": 47,
      "start": 11.9119,
      "duration": 0.0194,
      "velocity": 113,
      "chip": "ym2612"
    },
    {
      "channel": 4,
      "note": 76,
      "start": 11.9122,
      "duration": 0.0112,
      "velocity": 127,
      "chip": "ym2612"
    },
    {
      "channel": 2,
      "note": 78,
      "start": 11.9171,
      "duration": 0.0182,
      "velocity": 126,
      "chip": "ym2612"
    },
    {
      "channel": 4,
      "note": 66,
      "start": 11.9237,
      "duration": 0.0078,
      "velocity": 127,
      "chip": "ym2612"
    },
    {
      "channel": 0,
      "note": 52,
      "start": 11.9288,
      "duration": 0.0147,
      "velocity": 127,
      "chip": "ym2612"
    },
    {
      "channel": 1,
      "note": 76,
      "start": 11.9293,
      "duration": 0.0147,
      "velocity": 126,
      "chip": "ym2612"
    },
    {
      "channel": 3,
      "note": 43,
      "start": 11.9315,
      "duration": 0.0161,
      "velocity": 113,
      "chip": "ym2612"
    },
    {
      "channel": 4,
      "note": 71,
      "start": 11.9319,
      "duration": 0.0075,
      "velocity": 127,
      "chip": "ym2612"
    },
    {
      "channel": 2,
      "note": 76,
      "start": 11.9355,
      "duration": 0.0158,
      "velocity": 126,
      "chip": "ym2612"
    },
    {
      "channel": 4,
      "note": 66,
      "start": 11.9396,
      "duration": 0.0082,
      "velocity": 127,
      "chip": "ym2612"
    },
    {
      "channel": 0,
      "note": 64,
      "start": 11.9439,
      "duration": 0.0167,
      "velocity": 127,
      "chip": "ym2612"
    },
    {
      "channel": 1,
      "note": 71,
      "start": 11.9443,
      "duration": 0.0167,
      "velocity": 126,
      "chip": "ym2612"
    },
    {
      "channel": 3,
      "note": 38,
      "start": 11.9478,
      "duration": 0.0155,
      "velocity": 113,
      "chip": "ym2612"
    },
    {
      "channel": 4,
      "note": 73,
      "start": 11.9481,
      "duration": 0.0075,
      "velocity": 127,
      "chip": "ym2612"
    },
    {
      "channel": 2,
      "note": 71,
      "start": 11.9517,
      "duration": 0.015,
      "velocity": 126,
      "chip": "ym2612"
    },
    {
      "channel": 4,
      "note": 66,
      "start": 11.9558,
      "duration": 0.0078,
      "velocity": 127,
      "chip": "ym2612"
    },
    {
      "channel": 0,
      "note": 61,
      "start": 11.9609,
      "duration": 0.007,
      "velocity": 127,
      "chip": "ym2612"
    },
    {
      "channel": 1,
      "note": 66,
      "start": 11.9613,
      "duration": 0.0067,
      "velocity": 126,
      "chip": "ym2612"
    },
    {
      "channel": 3,
      "note": 37,
      "start": 11.9636,
      "duration": 0.0061,
      "velocity": 113,
      "chip": "ym2612"
    },
    {
      "channel": 4,
      "note": 71,
      "start": 11.9639,
      "duration": 0.006,
      "velocity": 127,
      "chip": "ym2612"
    },
    {
      "channel": 2,
      "note": 66,
      "start": 11.9668,
      "duration": 0.0102,
      "velocity": 126,
      "chip": "ym2612"
    },
    {
      "channel": 1,
      "note": 71,
      "start": 11.9682,
      "duration": 0.0424,
      "velocity": 126,
      "chip": "ym2612"
    },
    {
      "channel": 3,
      "note": 40,
      "start": 11.9698,
      "duration": 0.0431,
      "velocity": 113,
      "chip": "ym2612"
    },
    {
      "channel": 4,
      "note": 66,
      "start": 11.9702,
      "duration": 0.0429,
      "velocity": 127,
      "chip": "ym2612"
    },
    {
      "channel": 2,
      "note": 71,
      "start": 11.9773,
      "duration": 0.0384,
      "velocity": 126,
      "chip": "ym2612"
    },
    {
      "channel": 0,
      "note": 54,
      "start": 12.0105,
      "duration": 0.0063,
      "velocity": 127,
      "chip": "ym2612"
    },
    {
      "channel": 1,
      "note": 73,
      "start": 12.0109,
      "duration": 0.0064,
      "velocity": 126,
      "chip": "ym2612"
    },
    {
      "channel": 3,
      "note": 42,
      "start": 12.0131,
      "duration": 0.0068,
      "velocity": 113,
      "chip": "ym2612"
    },
    {
      "channel": 4,
      "note": 73,
      "start": 12.0132,
      "duration": 0.0071,
      "velocity": 127,
      "chip": "ym2612"
    },
    {
      "channel": 2,
      "note": 73,
      "start": 12.0159,
      "duration": 0.009,
      "velocity": 126,
      "chip": "ym2612"
    },
    {
      "channel": 0,
      "note": 61,
      "start": 12.0172,
      "duration": 0.009,
      "velocity": 127,
      "chip": "ym2612"
    },
    {
      "channel": 1,
      "note": 78,
      "start": 12.0176,
      "duration": 0.091,
      "velocity": 126,
      "chip": "ym2612"
    },
    {
      "channel": 3,
      "note": 47,
      "start": 12.0202,
      "duration": 0.0908,
      "velocity": 113,
      "chip": "ym2612"
    },
    {
      "channel": 4,
      "note": 66,
      "start": 12.0206,
      "duration": 0.0087,
      "velocity": 127,
      "chip": "ym2612"
    },
    {
      "channel": 2,
      "note": 78,
      "start": 12.0251,
      "duration": 0.0906,
      "velocity": 126,
      "chip": "ym2612"
    },
    {
      "channel": 0,
      "note": 54,
      "start": 12.0268,
      "duration": 0.0065,
      "velocity": 127,
      "chip": "ym2612"
    },
    {
      "channel": 4,
      "note": 71,
      "start": 12.0296,
      "duration": 0.0079,
      "velocity": 127,
      "chip": "ym2612"
    },
    {
      "channel": 0,
      "note": 61,
      "start": 12.0337,
      "duration": 0.0091,
      "velocity": 127,
      "chip": "ym2612"
    },
    {
      "channel": 4,
      "note": 66,
      "start": 12.0378,
      "duration": 0.0079,
      "velocity": 127,
      "chip": "ym2612"
    },
    {
      "channel": 0,
      "note": 59,
      "start": 12.0432,
      "duration": 0.049,
      "velocity": 127,
      "chip": "ym2612"
    },
    {
      "channel": 4,
      "note": 76,
      "start": 12.0459,
      "duration": 0.0068,
      "velocity": 127,
      "chip": "ym2612"
    },
    {
      "channel": 4,
      "note": 66,
      "start": 12.0529,
      "duration": 0.0423,
      "velocity": 127,
      "chip": "ym2612"
    },
    {
      "channel": 0,
      "note": 52,
      "start": 12.0926,
      "duration": 0.0156,
      "velocity": 127,
      "chip": "ym2612"
    },
    {
      "channel": 4,
      "note": 71,
      "start": 12.0954,
      "duration": 0.0077,
      "velocity": 127,
      "chip": "ym2612"
    },
    {
      "channel": 4,
      "note": 66,
      "start": 12.1034,
      "duration": 0.0079,
      "velocity": 127,
      "chip": "ym2612"
    },
    {
      "channel": 0,
      "note": 54,
      "start": 12.1085,
      "duration": 0.0321,
      "velocity": 127,
      "chip": "ym2612"
    },
    {
      "channel": 1,
      "note": 76,
      "start": 12.109,
      "duration": 0.0083,
      "velocity": 126,
      "chip": "ym2612"
    },
    {
      "channel": 3,
      "note": 45,
      "start": 12.1112,
      "duration": 0.0082,
      "velocity": 113,
      "chip": "ym2612"
    },
    {
      "channel": 4,
      "note": 73,
      "start": 12.1115,
      "duration": 0.0082,
      "velocity": 127,
      "chip": "ym2612"
    },
    {
      "channel": 2,
      "note": 76,
      "start": 12.1159,
      "duration": 0.0073,
      "velocity": 126,
      "chip": "ym2612"
    },
    {
      "channel": 1,
      "note": 75,
      "start": 12.1176,
      "duration": 0.0235,
      "velocity": 126,
      "chip": "ym2612"
    },
    {
      "channel": 3,
      "note": 44,
      "start": 12.1197,
      "duration": 0.0244,
      "velocity": 113,
      "chip": "ym2612"
    },
    {
      "channel": 4,
      "note": 66,
      "start": 12.12,
      "duration": 0.0244,
      "velocity": 127,
      "chip": "ym2612"
    },
    {
      "channel": 2,
      "note": 75,
      "start": 12.1236,
      "duration": 0.0236,
      "velocity": 126,
      "chip": "ym2612"
    },
    {
      "channel": 0,
      "note": 61,
      "start": 12.141,
      "duration": 0.0073,
      "velocity": 127,
      "chip": "ym2612"
    },
    {
      "channel": 1,
      "note": 71,
      "start": 12.1414,
      "duration": 0.1476,
      "velocity": 126,
      "chip": "ym2612"
    },
    {
      "channel": 3,
      "note": 42,
      "start": 12.1444,
      "duration": 0.1469,
      "velocity": 113,
      "chip": "ym2612"
    },
    {
      "channel": 4,
      "note": 71,
      "start": 12.1446,
      "duration": 0.0055,
      "velocity": 127,
      "chip": "ym2612"
    },
    {
      "channel": 2,
      "note": 71,
      "start": 12.1474,
      "duration": 0.1471,
      "velocity": 126,
      "chip": "ym2612"
    },
    {
      "channel": 4,
      "note": 66,
      "start": 12.1503,
      "duration": 0.0588,
      "velocity": 127,
      "chip": "ym2612"
    },
    {
      "channel": 0,
      "note": 54,
      "start": 12.2066,
      "duration": 0.0066,
      "velocity": 127,
      "chip": "ym2612"
    },
    {
      "channel": 4,
      "note": 73,
      "start": 12.2093,
      "duration": 0.007,
      "velocity": 127,
      "chip": "ym2612"
    },
    {
      "channel": 0,
      "note": 61,
      "start": 12.2136,
      "duration": 0.0088,
      "velocity": 127,
      "chip": "ym2612"
    },
    {
      "channel": 4,
      "note": 66,
      "start": 12.2167,
      "duration": 0.0087,
      "velocity": 127,
      "chip": "ym2612"
    },
    {
      "channel": 0,
      "note": 54,
      "start": 12.2228,
      "duration": 0.0066,
      "velocity": 127,
      "chip": "ym2612"
    },
    {
      "channel": 4,
      "note": 71,
      "start": 12.2256,
      "duration": 0.0069,
      "velocity": 127,
      "chip": "ym2612"
    },
    {
      "channel": 0,
      "note": 61,
      "start": 12.2297,
      "duration": 0.0089,
      "velocity": 127,
      "chip": "ym2612"
    },
    {
      "channel": 4,
      "note": 66,
      "start": 12.2327,
      "duration": 0.0089,
      "velocity": 127,
      "chip": "ym2612"
    },
    {
      "channel": 0,
      "note": 59,
      "start": 12.239,
      "duration": 0.0496,
      "velocity": 127,
      "chip": "ym2612"
    },
    {
      "channel": 4,
      "note": 76,
      "start": 12.2419,
      "duration": 0.007,
      "velocity": 127,
      "chip": "ym2612"
    },
    {
      "channel": 4,
      "note": 66,
      "start": 12.249,
      "duration": 0.0426,
      "velocity": 127,
      "chip": "ym2612"
    },
    {
      "channel": 0,
      "note": 52,
      "start": 12.289,
      "duration": 0.0078,
      "velocity": 127,
      "chip": "ym2612"
    },
    {
      "channel": 1,
      "note": 68,
      "start": 12.2894,
      "duration": 0.0144,
      "velocity": 126,
      "chip": "ym2612"
    },
    {
      "channel": 3,
      "note": 37,
      "start": 12.2916,
      "duration": 0.0143,
      "velocity": 113,
      "chip": "ym2612"
    },
    {
      "channel": 4,
      "note": 71,
      "start": 12.2918,
      "duration": 0.0078,
      "velocity": 127,
      "chip": "ym2612"
    },
    {
      "channel": 2,
      "note": 68,
      "start": 12.2948,
      "duration": 0.0153,
      "velocity": 126,
      "chip": "ym2612"
    },
    {
      "channel": 4,
      "note": 66,
      "start": 12.2998,
      "duration": 0.0064,
      "velocity": 127,
      "chip": "ym2612"
    },
    {
      "channel": 1,
      "note": 71,
      "start": 12.304,
      "duration": 0.0312,
      "velocity": 126,
      "chip": "ym2612"
    },
    {
      "channel": 3,
      "note": 42,
      "start": 12.3061,
      "duration": 0.0315,
      "velocity": 113,
      "chip": "ym2612"
    },
    {
      "channel": 4,
      "note": 73,
      "start": 12.3065,
      "duration": 0.0071,
      "velocity": 127,
      "chip": "ym2612"
    },
    {
      "channel": 2,
      "note": 71,
      "start": 12.3102,
      "duration": 0.0311,
      "velocity": 126,
      "chip": "ym2612"
    },
    {
      "channel": 4,
      "note": 66,
      "start": 12.3138,
      "duration": 0.0241,
      "velocity": 127,
      "chip": "ym2612"
    },
    {
      "channel": 0,
      "note": 61,
      "start": 12.3352,
      "duration": 0.0074,
      "velocity": 127,
      "chip": "ym2612"
    },
    {
      "channel": 1,
      "note": 67,
      "start": 12.3356,
      "duration": 0.0488,
      "velocity": 126,
      "chip": "ym2612"
    },
    {
      "channel": 3,
      "note": 35,
      "start": 12.3378,
      "duration": 0.0496,
      "velocity": 113,
      "chip": "ym2612"
    },
    {
      "channel": 4,
      "note": 71,
      "start": 12.3381,
      "duration": 0.0063,
      "velocity": 127,
      "chip": "ym2612"
    },
    {
      "channel": 2,
      "note": 67,
      "start": 12.3416,
      "duration": 0.0493,
      "velocity": 126,
      "chip": "ym2612"
    },
    {
      "channel": 4,
      "note": 66,
      "start": 12.3446,
      "duration": 0.0431,
      "velocity": 127,
      "chip": "ym2612"
    },
    {
      "channel": 0,
      "note": 54,
      "start": 12.3844,
      "duration": 0.0079,
      "velocity": 127,
      "chip": "ym2612"
    },
    {
      "channel": 1,
      "note": 74,
      "start": 12.3847,
      "duration": 0.0163,
      "velocity": 126,
      "chip": "ym2612"
    },
    {
      "channel": 3,
      "note": 43,
      "start": 12.3876,
      "duration": 0.0158,
      "velocity": 113,
      "chip": "ym2612"
    },
    {
      "channel": 4,
      "note": 73,
      "start": 12.388,
      "duration": 0.0073,
      "velocity": 127,
      "chip": "ym2612"
    },
    {
      "channel": 2,
      "note": 74,
      "start": 12.3912,
      "duration": 0.016,
      "velocity": 126,
      "chip": "ym2612"
    },
    {
      "channel": 0,
      "note": 61,
      "start": 12.3926,
      "duration": 0.0081,
      "velocity": 127,
      "chip": "ym2612"
    },
    {
      "channel": 4,
      "note": 66,
      "start": 12.3955,
      "duration": 0.0082,
      "velocity": 127,
      "chip": "ym2612"
    },
    {
      "channel": 0,
      "note": 54,
      "start": 12.401,
      "duration": 0.0077,
      "velocity": 127,
      "chip": "ym2612"
    },
    {
      "channel": 1,
      "note": 79,
      "start": 12.4013,
      "duration": 0.2086,
      "velocity": 126,
      "chip": "ym2612"
    },
    {
      "channel": 3,
      "note": 50,
      "start": 12.4037,
      "duration": 0.2082,
      "velocity": 113,
      "chip": "ym2612"
    },
    {
      "channel": 4,
      "note": 71,
      "start": 12.4039,
      "duration": 0.0075,
      "velocity": 127,
      "chip": "ym2612"
    },
    {
      "channel": 2,
      "note": 79,
      "start": 12.4074,
      "duration": 0.2081,
      "velocity": 126,
      "chip": "ym2612"
    },
    {
      "channel": 0,
      "note": 61,
      "start": 12.409,
      "duration": 0.0072,
      "velocity": 127,
      "chip": "ym2612"
    },
    {
      "channel": 4,
      "note": 66,
      "start": 12.4116,
      "duration": 0.0076,
      "velocity": 127,
      "chip": "ym2612"
    },
    {
      "channel": 0,
      "note": 59,
      "start": 12.4167,
      "duration": 0.0488,
      "velocity": 127,
      "chip": "ym2612"
    },
    {
      "channel": 4,
      "note": 76,
      "start": 12.4195,
      "duration": 0.0056,
      "velocity": 127,
      "chip": "ym2612"
    },
    {
      "channel": 4,
      "note": 66,
      "start": 12.4254,
      "duration": 0.0744,
      "velocity": 127,
      "chip": "ym2612"
    },
    {
      "channel": 0,
      "note": 52,
      "start": 12.4659,
      "duration": 0.1438,
      "velocity": 127,
      "chip": "ym2612"
    },
    {
      "channel": 4,
      "note": 71,
      "start": 12.5001,
      "duration": 0.1048,
      "velocity": 127,
      "chip": "ym2612"
    },
    {
      "channel": 4,
      "note": 66,
      "start": 12.6051,
      "duration": 0.007,
      "velocity": 127,
      "chip": "ym2612"
    },
    {
      "channel": 0,
      "note": 54,
      "start": 12.6098,
      "duration": 0.0473,
      "velocity": 127,
      "chip": "ym2612"
    },
    {
      "channel": 1,
      "note": 74,
      "start": 12.6101,
      "duration": 0.0078,
      "velocity": 126,
      "chip": "ym2612"
    },
    {
      "channel": 3,
      "note": 47,
      "start": 12.6121,
      "duration": 0.0083,
      "velocity": 113,
      "chip": "ym2612"
    },
    {
      "channel": 4,
      "note": 73,
      "start": 12.6124,
      "duration": 0.0082,
      "velocity": 127,
      "chip": "ym2612"
    },
    {
      "channel": 2,
      "note": 74,
      "start": 12.6158,
      "duration": 0.0084,
      "velocity": 126,
      "chip": "ym2612"
    },
    {
      "channel": 1,
      "note": 79,
      "start": 12.6182,
      "duration": 0.0393,
      "velocity": 126,
      "chip": "ym2612"
    },
    {
      "channel": 3,
      "note": 50,
      "start": 12.6206,
      "duration": 0.0394,
      "velocity": 113,
      "chip": "ym2612"
    },
    {
      "channel": 4,
      "note": 66,
      "start": 12.621,
      "duration": 0.0391,
      "velocity": 127,
      "chip": "ym2612"
    },
    {
      "channel": 2,
      "note": 79,
      "start": 12.6245,
      "duration": 0.039,
      "velocity": 126,
      "chip": "ym2612"
    },
    {
      "channel": 0,
      "note": 61,
      "start": 12.6575,
      "duration": 0.0073,
      "velocity": 127,
      "chip": "ym2612"
    },
    {
      "channel": 1,
      "note": 83,
      "start": 12.6579,
      "duration": 0.0812,
      "velocity": 126,
      "chip": "ym2612"
    },
    {
      "channel": 3,
      "note": 55,
      "start": 12.66,
      "duration": 0.0815,
      "velocity": 113,
      "chip": "ym2612"
    },
    {
      "channel": 4,
      "note": 71,
      "start": 12.6602,
      "duration": 0.0063,
      "velocity": 127,
      "chip": "ym2612"
    },
    {
      "channel": 2,
      "note": 83,
      "start": 12.6637,
      "duration": 0.0812,
      "velocity": 126,
      "chip": "ym2612"
    },
    {
      "channel": 4,
      "note": 66,
      "start": 12.6668,
      "duration": 0.0422,
      "velocity": 127,
      "chip": "ym2612"
    },
    {
      "channel": 0,
      "note": 54,
      "start": 12.7065,
      "duration": 0.0072,
      "velocity": 127,
      "chip": "ym2612"
    },
    {
      "channel": 4,
      "note": 73,
      "start": 12.7093,
      "duration": 0.0077,
      "velocity": 127,
      "chip": "ym2612"
    },
    {
      "channel": 0,
      "note": 61,
      "start": 12.7141,
      "duration": 0.0079,
      "velocity": 127,
      "chip": "ym2612"
    },
    {
      "channel": 4,
      "note": 66,
      "start": 12.7172,
      "duration": 0.0084,
      "velocity": 127,
      "chip": "ym2612"
    },
    {
      "channel": 0,
      "note": 54,
      "start": 12.7224,
      "duration": 0.0073,
      "velocity": 127,
      "chip": "ym2612"
    },
    {
      "channel": 4,
      "note": 71,
      "start": 12.7259,
      "duration": 0.0069,
      "velocity": 127,
      "chip": "ym2612"
    },
    {
      "channel": 0,
      "note": 61,
      "start": 12.73,
      "duration": 0.0087,
      "velocity": 127,
      "chip": "ym2612"
    },
    {
      "channel": 4,
      "note": 66,
      "start": 12.733,
      "duration": 0.009,
      "velocity": 127,
      "chip": "ym2612"
    },
    {
      "channel": 0,
      "note": 59,
      "start": 12.739,
      "duration": 0.0496,
      "velocity": 127,
      "chip": "ym2612"
    },
    {
      "channel": 1,
      "note": 86,
      "start": 12.7395,
      "duration": 0.0496,
      "velocity": 126,
      "chip": "ym2612"
    },
    {
      "channel": 3,
      "note": 54,
      "start": 12.7419,
      "duration": 0.0495,
      "velocity": 113,
      "chip": "ym2612"
    },
    {
      "channel": 4,
      "note": 76,
      "start": 12.7423,
      "duration": 0.006,
      "velocity": 127,
      "chip": "ym2612"
    },
    {
      "channel": 2,
      "note": 86,
      "start": 12.7451,
      "duration": 0.0495,
      "velocity": 126,
      "chip": "ym2612"
    },
    {
      "channel": 4,
      "note": 66,
      "start": 12.7485,
      "duration": 0.0432,
      "velocity": 127,
      "chip": "ym2612"
    },
    {
      "channel": 0,
      "note": 52,
      "start": 12.7891,
      "duration": 0.0155,
      "velocity": 127,
      "chip": "ym2612"
    },
    {
      "channel": 1,
      "note": 85,
      "start": 12.7895,
      "duration": 0.0156,
      "velocity": 126,
      "chip": "ym2612"
    },
    {
      "channel": 3,
      "note": 52,
      "start": 12.7916,
      "duration": 0.0161,
      "velocity": 113,
      "chip": "ym2612"
    },
    {
      "channel": 4,
      "note": 71,
      "start": 12.7918,
      "duration": 0.0069,
      "velocity": 127,
      "chip": "ym2612"
    },
    {
      "channel": 2,
      "note": 85,
      "start": 12.7949,
      "duration": 0.0168,
      "velocity": 126,
      "chip": "ym2612"
    },
    {
      "channel": 4,
      "note": 66,
      "start": 12.799,
      "duration": 0.0091,
      "velocity": 127,
      "chip": "ym2612"
    },
    {
      "channel": 0,
      "note": 64,
      "start": 12.805,
      "duration": 0.0193,
      "velocity": 127,
      "chip": "ym2612"
    },
    {
      "channel": 1,
      "note": 83,
      "start": 12.8054,
      "duration": 0.0209,
      "velocity": 110,
      "chip": "ym2612"
    },
    {
      "channel": 3,
      "note": 50,
      "start": 12.808,
      "duration": 0.0217,
      "velocity": 106,
      "chip": "ym2612"
    },
    {
      "channel": 4,
      "note": 73,
      "start": 12.8084,
      "duration": 0.0106,
      "velocity": 127,
      "chip": "ym2612"
    },
    {
      "channel": 2,
      "note": 83,
      "start": 12.8119,
      "duration": 0.0237,
      "velocity": 108,
      "chip": "ym2612"
    },
    {
      "channel": 4,
      "note": 66,
      "start": 12.8192,
      "duration": 0.0121,
      "velocity": 127,
      "chip": "ym2612"
    },
    {
      "channel": 0,
      "note": 61,
      "start": 12.8246,
      "duration": 0.0129,
      "velocity": 127,
      "chip": "ym2612"
    },
    {
      "channel": 1,
      "note": 61,
      "start": 12.8266,
      "duration": 0.1635,
      "velocity": 110,
      "chip": "ym2612"
    },
    {
      "channel": 3,
      "note": 45,
      "start": 12.83,
      "duration": 0.1626,
      "velocity": 106,
      "chip": "ym2612"
    },
    {
      "channel": 4,
      "note": 71,
      "start": 12.8314,
      "duration": 0.0077,
      "velocity": 127,
      "chip": "ym2612"
    },
    {
      "channel": 2,
      "note": 61,
      "start": 12.8358,
      "duration": 0.1605,
      "velocity": 108,
      "chip": "ym2612"
    },
    {
      "channel": 4,
      "note": 66,
      "start": 12.8394,
      "duration": 0.0398,
      "velocity": 127,
      "chip": "ym2612"
    },
    {
      "channel": 0,
      "note": 54,
      "start": 12.8767,
      "duration": 0.007,
      "velocity": 127,
      "chip": "ym2612"
    },
    {
      "channel": 4,
      "note": 73,
      "start": 12.8794,
      "duration": 0.0073,
      "velocity": 127,
      "chip": "ym2612"
    },
    {
      "channel": 0,
      "note": 61,
      "start": 12.8841,
      "duration": 0.0076,
      "velocity": 127,
      "chip": "ym2612"
    },
    {
      "channel": 4,
      "note": 66,
      "start": 12.8869,
      "duration": 0.0077,
      "velocity": 127,
      "chip": "ym2612"
    },
    {
      "channel": 0,
      "note": 54,
      "start": 12.892,
      "duration": 0.0072,
      "velocity": 127,
      "chip": "ym2612"
    },
    {
      "channel": 4,
      "note": 71,
      "start": 12.8948,
      "duration": 0.0076,
      "velocity": 127,
      "chip": "ym2612"
    },
    {
      "channel": 0,
      "note": 61,
      "start": 12.8996,
      "duration": 0.008,
      "velocity": 127,
      "chip": "ym2612"
    },
    {
      "channel": 4,
      "note": 66,
      "start": 12.9027,
      "duration": 0.0094,
      "velocity": 104,
      "chip": "ym2612"
    },
    {
      "channel": 0,
      "note": 59,
      "start": 12.9078,
      "duration": 0.0662,
      "velocity": 127,
      "chip": "ym2612"
    },
    {
      "channel": 4,
      "note": 45,
      "start": 12.9124,
      "duration": 0.0026,
      "velocity": 104,
      "chip": "ym2612"
    },
    {
      "channel": 4,
      "note": 57,
      "start": 12.9152,
      "duration": 0.0029,
      "velocity": 104,
      "chip": "ym2612"
    },
    {
      "channel": 4,
      "note": 52,
      "start": 12.9183,
      "duration": 0.0066,
      "velocity": 104,
      "chip": "ym2612"
    },
    {
      "channel": 4,
      "note": 57,
      "start": 12.9252,
      "duration": 0.0516,
      "velocity": 104,
      "chip": "ym2612"
    },
    {
      "channel": 0,
      "note": 52,
      "start": 12.9744,
      "duration": 0.0152,
      "velocity": 127,
      "chip": "ym2612"
    },
    {
      "channel": 4,
      "note": 64,
      "start": 12.9771,
      "duration": 0.0027,
      "velocity": 104,
      "chip": "ym2612"
    },
    {
      "channel": 4,
      "note": 64,
      "start": 12.98,
      "duration": 0.0037,
      "velocity": 104,
      "chip": "ym2612"
    },
    {
      "channel": 4,
      "note": 69,
      "start": 12.984,
      "duration": 0.0044,
      "velocity": 104,
      "chip": "ym2612"
    },
    {
      "channel": 4,
      "note": 69,
      "start": 12.9887,
      "duration": 0.0041,
      "velocity": 104,
      "chip": "ym2612"
    },
    {
      "channel": 0,
      "note": 54,
      "start": 12.99,
      "duration": 0.016,
      "velocity": 127,
      "chip": "ym2612"
    },
    {
      "channel": 1,
      "note": 62,
      "start": 12.9904,
      "duration": 0.0078,
      "velocity": 110,
      "chip": "ym2612"
    },
    {
      "channel": 3,
      "note": 47,
      "start": 12.9927,
      "duration": 0.0078,
      "velocity": 106,
      "chip": "ym2612"
    },
    {
      "channel": 4,
      "note": 76,
      "start": 12.9931,
      "duration": 0.0038,
      "velocity": 104,
      "chip": "ym2612"
    },
    {
      "channel": 2,
      "note": 62,
      "start": 12.9967,
      "duration": 0.0077,
      "velocity": 108,
      "chip": "ym2612"
    },
    {
      "channel": 4,
      "note": 76,
      "start": 12.9971,
      "duration": 0.0037,
      "velocity": 104,
      "chip": "ym2612"
    },
    {
      "channel": 1,
      "note": 64,
      "start": 12.9985,
      "duration": 0.0079,
      "velocity": 110,
      "chip": "ym2612"
    },
    {
      "channel": 3,
      "note": 49,
      "start": 13.0007,
      "duration": 0.0081,
      "velocity": 106,
      "chip": "ym2612"
    },
    {
      "channel": 4,
      "note": 81,
      "start": 13.001,
      "duration": 0.0037,
      "velocity": 104,
      "chip": "ym2612"
    },
    {
      "channel": 2,
      "note": 64,
      "start": 13.0046,
      "duration": 0.0086,
      "velocity": 108,
      "chip": "ym2612"
    },
    {
      "channel": 4,
      "note": 88,
      "start": 13.005,
      "duration": 0.0054,
      "velocity": 127,
      "chip": "ym2612"
    },
    {
      "channel": 0,
      "note": 61,
      "start": 13.0063,
      "duration": 0.0081,
      "velocity": 127,
      "chip": "ym2612"
    },
    {
      "channel": 1,
      "note": 59,
      "start": 13.0068,
      "duration": 0.3219,
      "velocity": 110,
      "chip": "ym2612"
    },
    {
      "channel": 3,
      "note": 43,
      "start": 13.009,
      "duration": 0.3216,
      "velocity": 106,
      "chip": "ym2612"
    },
    {
      "channel": 4,
      "note": 71,
      "start": 13.0106,
      "duration": 0.0063,
      "velocity": 127,
      "chip": "ym2612"
    },
    {
      "channel": 2,
      "note": 59,
      "start": 13.0134,
      "duration": 0.3205,
      "velocity": 108,
      "chip": "ym2612"
    },
    {
      "channel": 4,
      "note": 66,
      "start": 13.0171,
      "duration": 0.0417,
      "velocity": 127,
      "chip": "ym2612"
    },
    {
      "channel": 0,
      "note": 54,
      "start": 13.0565,
      "duration": 0.007,
      "velocity": 127,
      "chip": "ym2612"
    },
    {
      "channel": 4,
      "note": 73,
      "start": 13.059,
      "duration": 0.0075,
      "velocity": 127,
      "chip": "ym2612"
    },
    {
      "channel": 0,
      "note": 61,
      "start": 13.0638,
      "duration": 0.0073,
      "velocity": 127,
      "chip": "ym2612"
    },
    {
      "channel": 4,
      "note": 66,
      "start": 13.0668,
      "duration": 0.0071,
      "velocity": 127,
      "chip": "ym2612"
    },
    {
      "channel": 0,
      "note": 54,
      "start": 13.0716,
      "duration": 0.0068,
      "velocity": 127,
      "chip": "ym2612"
    },
    {
      "channel": 4,
      "note": 71,
      "start": 13.0742,
      "duration": 0.0065,
      "velocity": 127,
      "chip": "ym2612"
    },
    {
      "channel": 0,
      "note": 61,
      "start": 13.0785,
      "duration": 0.0419,
      "velocity": 127,
      "chip": "ym2612"
    },
    {
      "channel": 4,
      "note": 66,
      "start": 13.0809,
      "duration": 0.0422,
      "velocity": 127,
      "chip": "ym2612"
    },
    {
      "channel": 0,
      "note": 59,
      "start": 13.1207,
      "duration": 0.0485,
      "velocity": 127,
      "chip": "ym2612"
    },
    {
      "channel": 4,
      "note": 76,
      "start": 13.1234,
      "duration": 0.0064,
      "velocity": 127,
      "chip": "ym2612"
    },
    {
      "channel": 4,
      "note": 66,
      "start": 13.13,
      "duration": 0.0903,
      "velocity": 127,
      "chip": "ym2612"
    },
    {
      "channel": 0,
      "note": 52,
      "start": 13.1697,
      "duration": 0.1499,
      "velocity": 127,
      "chip": "ym2612"
    },
    {
      "channel": 4,
      "note": 71,
      "start": 13.2206,
      "duration": 0.1034,
      "velocity": 127,
      "chip": "ym2612"
    },
    {
      "channel": 4,
      "note": 66,
      "start": 13.3243,
      "duration": 0.0066,
      "velocity": 127,
      "chip": "ym2612"
    },
    {
      "channel": 1,
      "note": 50,
      "start": 13.3289,
      "duration": 0.0062,
      "velocity": 110,
      "chip": "ym2612"
    },
    {
      "channel": 3,
      "note": 38,
      "start": 13.3309,
      "duration": 0.0064,
      "velocity": 106,
      "chip": "ym2612"
    },
    {
      "channel": 4,
      "note": 73,
      "start": 13.3312,
      "duration": 0.0064,
      "velocity": 127,
      "chip": "ym2612"
    },
    {
      "channel": 2,
      "note": 50,
      "start": 13.3341,
      "duration": 0.0077,
      "velocity": 108,
      "chip": "ym2612"
    },
    {
      "channel": 1,
      "note": 59,
      "start": 13.3354,
      "duration": 0.0401,
      "velocity": 110,
      "chip": "ym2612"
    },
    {
      "channel": 3,
      "note": 47,
      "start": 13.3376,
      "duration": 0.0402,
      "velocity": 106,
      "chip": "ym2612"
    },
    {
      "channel": 4,
      "note": 66,
      "start": 13.3379,
      "duration": 0.0413,
      "velocity": 127,
      "chip": "ym2612"
    },
    {
      "channel": 2,
      "note": 59,
      "start": 13.3422,
      "duration": 0.0396,
      "velocity": 108,
      "chip": "ym2612"
    },
    {
      "channel": 0,
      "note": 61,
      "start": 13.3754,
      "duration": 0.0075,
      "velocity": 127,
      "chip": "ym2612"
    },
    {
      "channel": 1,
      "note": 61,
      "start": 13.3759,
      "duration": 0.08,
      "velocity": 110,
      "chip": "ym2612"
    },
    {
      "channel": 3,
      "note": 45,
      "start": 13.3779,
      "duration": 0.0803,
      "velocity": 106,
      "chip": "ym2612"
    },
    {
      "channel": 4,
      "note": 71,
      "start": 13.3794,
      "duration": 0.0051,
      "velocity": 127,
      "chip": "ym2612"
    },
    {
      "channel": 2,
      "note": 61,
      "start": 13.382,
      "duration": 0.0815,
      "velocity": 108,
      "chip": "ym2612"
    },
    {
      "channel": 4,
      "note": 66,
      "start": 13.3847,
      "duration": 0.0423,
      "velocity": 127,
      "chip": "ym2612"
    },
    {
      "channel": 0,
      "note": 54,
      "start": 13.4246,
      "duration": 0.0062,
      "velocity": 127,
      "chip": "ym2612"
    },
    {
      "channel": 4,
      "note": 73,
      "start": 13.4273,
      "duration": 0.0077,
      "velocity": 127,
      "chip": "ym2612"
    },
    {
      "channel": 0,
      "note": 61,
      "start": 13.4312,
      "duration": 0.0087,
      "velocity": 127,
      "chip": "ym2612"
    },
    {
      "channel": 4,
      "note": 66,
      "start": 13.4352,
      "duration": 0.0078,
      "velocity": 127,
      "chip": "ym2612"
    },
    {
      "channel": 0,
      "note": 54,
      "start": 13.4405,
      "duration": 0.0072,
      "velocity": 127,
      "chip": "ym2612"
    },
    {
      "channel": 4,
      "note": 71,
      "start": 13.4432,
      "duration": 0.0075,
      "velocity": 127,
      "chip": "ym2612"
    },
    {
      "channel": 0,
      "note": 61,
      "start": 13.448,
      "duration": 0.0074,
      "velocity": 127,
      "chip": "ym2612"
    },
    {
      "channel": 4,
      "note": 66,
      "start": 13.451,
      "duration": 0.0088,
      "velocity": 104,
      "chip": "ym2612"
    },
    {
      "channel": 0,
      "note": 59,
      "start": 13.4558,
      "duration": 0.0502,
      "velocity": 127,
      "chip": "ym2612"
    },
    {
      "channel": 1,
      "note": 61,
      "start": 13.4562,
      "duration": 0.0502,
      "velocity": 110,
      "chip": "ym2612"
    },
    {
      "channel": 3,
      "note": 45,
      "start": 13.4585,
      "duration": 0.0502,
      "velocity": 106,
      "chip": "ym2612"
    },
    {
      "channel": 4,
      "note": 45,
      "start": 13.4601,
      "duration": 0.0038,
      "velocity": 104,
      "chip": "ym2612"
    },
    {
      "channel": 2,
      "note": 61,
      "start": 13.4637,
      "duration": 0.0487,
      "velocity": 108,
      "chip": "ym2612"
    },
    {
      "channel": 4,
      "note": 57,
      "start": 13.4641,
      "duration": 0.0029,
      "velocity": 104,
      "chip": "ym2612"
    },
    {
      "channel": 4,
      "note": 52,
      "start": 13.4673,
      "duration": 0.0062,
      "velocity": 104,
      "chip": "ym2612"
    },
    {
      "channel": 4,
      "note": 57,
      "start": 13.4738,
      "duration": 0.0352,
      "velocity": 104,
      "chip": "ym2612"
    },
    {
      "channel": 0,
      "note": 52,
      "start": 13.5064,
      "duration": 0.0155,
      "velocity": 127,
      "chip": "ym2612"
    },
    {
      "channel": 1,
      "note": 62,
      "start": 13.5068,
      "duration": 0.0156,
      "velocity": 110,
      "chip": "ym2612"
    },
    {
      "channel": 3,
      "note": 47,
      "start": 13.5089,
      "duration": 0.017,
      "velocity": 106,
      "chip": "ym2612"
    },
    {
      "channel": 4,
      "note": 64,
      "start": 13.5091,
      "duration": 0.0038,
      "velocity": 104,
      "chip": "ym2612"
    },
    {
      "channel": 2,
      "note": 62,
      "start": 13.5127,
      "duration": 0.0169,
      "velocity": 108,
      "chip": "ym2612"
    },
    {
      "channel": 4,
      "note": 64,
      "start": 13.5131,
      "duration": 0.0037,
      "velocity": 104,
      "chip": "ym2612"
    },
    {
      "channel": 4,
      "note": 69,
      "start": 13.5172,
      "duration": 0.0035,
      "velocity": 104,
      "chip": "ym2612"
    },
    {
      "channel": 4,
      "note": 69,
      "start": 13.521,
      "duration": 0.0053,
      "velocity": 104,
      "chip": "ym2612"
    },
    {
      "channel": 0,
      "note": 54,
      "start": 13.5223,
      "duration": 0.0166,
      "velocity": 127,
      "chip": "ym2612"
    },
    {
      "channel": 1,
      "note": 64,
      "start": 13.5228,
      "duration": 0.0166,
      "velocity": 110,
      "chip": "ym2612"
    },
    {
      "channel": 3,
      "note": 49,
      "start": 13.5262,
      "duration": 0.0155,
      "velocity": 106,
      "chip": "ym2612"
    },
    {
      "channel": 4,
      "note": 76,
      "start": 13.5265,
      "duration": 0.0036,
      "velocity": 104,
      "chip": "ym2612"
    },
    {
      "channel": 2,
      "note": 64,
      "start": 13.5298,
      "duration": 0.0159,
      "velocity": 108,
      "chip": "ym2612"
    },
    {
      "channel": 4,
      "note": 76,
      "start": 13.5302,
      "duration": 0.0037,
      "velocity": 104,
      "chip": "ym2612"
    },
    {
      "channel": 4,
      "note": 81,
      "start": 13.5342,
      "duration": 0.003,
      "velocity": 104,
      "chip": "ym2612"
    },
    {
      "channel": 4,
      "note": 88,
      "start": 13.5373,
      "duration": 0.0058,
      "velocity": 127,
      "chip": "ym2612"
    },
    {
      "channel": 0,
      "note": 61,
      "start": 13.5393,
      "duration": 0.0076,
      "velocity": 127,
      "chip": "ym2612"
    },
    {
      "channel": 1,
      "note": 67,
      "start": 13.5397,
      "duration": 0.0805,
      "velocity": 110,
      "chip": "ym2612"
    },
    {
      "channel": 3,
      "note": 52,
      "start": 13.5419,
      "duration": 0.0806,
      "velocity": 106,
      "chip": "ym2612"
    },
    {
      "channel": 4,
      "note": 71,
      "start": 13.5433,
      "duration": 0.0051,
      "velocity": 127,
      "chip": "ym2612"
    },
    {
      "channel": 2,
      "note": 67,
      "start": 13.5459,
      "duration": 0.0794,
      "velocity": 108,
      "chip": "ym2612"
    },
    {
      "channel": 4,
      "note": 66,
      "start": 13.5486,
      "duration": 0.0421,
      "velocity": 127,
      "chip": "ym2612"
    },
    {
      "channel": 0,
      "note": 54,
      "start": 13.5883,
      "duration": 0.0063,
      "velocity": 127,
      "chip": "ym2612"
    },
    {
      "channel": 4,
      "note": 73,
      "start": 13.591,
      "duration": 0.0067,
      "velocity": 127,
      "chip": "ym2612"
    },
    {
      "channel": 0,
      "note": 61,
      "start": 13.5949,
      "duration": 0.0086,
      "velocity": 127,
      "chip": "ym2612"
    },
    {
      "channel": 4,
      "note": 66,
      "start": 13.598,
      "duration": 0.0085,
      "velocity": 127,
      "chip": "ym2612"
    },
    {
      "channel": 0,
      "note": 54,
      "start": 13.6039,
      "duration": 0.0068,
      "velocity": 127,
      "chip": "ym2612"
    },
    {
      "channel": 4,
      "note": 71,
      "start": 13.6068,
      "duration": 0.0079,
      "velocity": 127,
      "chip": "ym2612"
    },
    {
      "channel": 0,
      "note": 61,
      "start": 13.611,
      "duration": 0.0085,
      "velocity": 127,
      "chip": "ym2612"
    },
    {
      "channel": 4,
      "note": 66,
      "start": 13.6149,
      "duration": 0.0077,
      "velocity": 127,
      "chip": "ym2612"
    },
    {
      "channel": 0,
      "note": 59,
      "start": 13.6201,
      "duration": 0.0484,
      "velocity": 127,
      "chip": "ym2612"
    },
    {
      "channel": 1,
      "note": 66,
      "start": 13.6205,
      "duration": 0.0485,
      "velocity": 110,
      "chip": "ym2612"
    },
    {
      "channel": 3,
      "note": 52,
      "start": 13.6226,
      "duration": 0.0486,
      "velocity": 106,
      "chip": "ym2612"
    },
    {
      "channel": 4,
      "note": 76,
      "start": 13.6228,
      "duration": 0.0064,
      "velocity": 127,
      "chip": "ym2612"
    },
    {
      "channel": 2,
      "note": 66,
      "start": 13.6255,
      "duration": 0.0496,
      "velocity": 108,
      "chip": "ym2612"
    },
    {
      "channel": 4,
      "note": 66,
      "start": 13.6294,
      "duration": 0.0421,
      "velocity": 127,
      "chip": "ym2612"
    },
    {
      "channel": 0,
      "note": 52,
      "start": 13.6689,
      "duration": 0.0153,
      "velocity": 127,
      "chip": "ym2612"
    },
    {
      "channel": 1,
      "note": 64,
      "start": 13.6693,
      "duration": 0.0153,
      "velocity": 110,
      "chip": "ym2612"
    },
    {
      "channel": 3,
      "note": 50,
      "start": 13.6715,
      "duration": 0.0155,
      "velocity": 106,
      "chip": "ym2612"
    },
    {
      "channel": 4,
      "note": 71,
      "start": 13.6717,
      "duration": 0.0078,
      "velocity": 127,
      "chip": "ym2612"
    },
    {
      "channel": 2,
      "note": 64,
      "start": 13.6754,
      "duration": 0.0152,
      "velocity": 108,
      "chip": "ym2612"
    },
    {
      "channel": 4,
      "note": 66,
      "start": 13.6798,
      "duration": 0.0074,
      "velocity": 127,
      "chip": "ym2612"
    },
    {
      "channel": 0,
      "note": 64,
      "start": 13.6846,
      "duration": 0.0141,
      "velocity": 127,
      "chip": "ym2612"
    },
    {
      "channel": 1,
      "note": 62,
      "start": 13.685,
      "duration": 0.0141,
      "velocity": 110,
      "chip": "ym2612"
    },
    {
      "channel": 3,
      "note": 49,
      "start": 13.6871,
      "duration": 0.015,
      "velocity": 106,
      "chip": "ym2612"
    },
    {
      "channel": 4,
      "note": 73,
      "start": 13.6874,
      "duration": 0.0069,
      "velocity": 127,
      "chip": "ym2612"
    },
    {
      "channel": 2,
      "note": 62,
      "start": 13.6909,
      "duration": 0.0154,
      "velocity": 108,
      "chip": "ym2612"
    },
    {
      "channel": 4,
      "note": 66,
      "start": 13.6946,
      "duration": 0.0091,
      "velocity": 127,
      "chip": "ym2612"
    },
    {
      "channel": 0,
      "note": 61,
      "start": 13.699,
      "duration": 0.0085,
      "velocity": 127,
      "chip": "ym2612"
    },
    {
      "channel": 1,
      "note": 69,
      "start": 13.6994,
      "duration": 0.1635,
      "velocity": 110,
      "chip": "ym2612"
    },
    {
      "channel": 3,
      "note": 52,
      "start": 13.7024,
      "duration": 0.1629,
      "velocity": 106,
      "chip": "ym2612"
    },
    {
      "channel": 4,
      "note": 71,
      "start": 13.7039,
      "duration": 0.0052,
      "velocity": 127,
      "chip": "ym2612"
    },
    {
      "channel": 2,
      "note": 69,
      "start": 13.7065,
      "duration": 0.1635,
      "velocity": 108,
      "chip": "ym2612"
    },
    {
      "channel": 4,
      "note": 66,
      "start": 13.7094,
      "duration": 0.058,
      "velocity": 127,
      "chip": "ym2612"
    },
    {
      "channel": 0,
      "note": 54,
      "start": 13.7651,
      "duration": 0.0062,
      "velocity": 127,
      "chip": "ym2612"
    },
    {
      "channel": 4,
      "note": 73,
      "start": 13.7677,
      "duration": 0.0068,
      "velocity": 127,
      "chip": "ym2612"
    },
    {
      "channel": 0,
      "note": 61,
      "start": 13.7717,
      "duration": 0.0087,
      "velocity": 127,
      "chip": "ym2612"
    },
    {
      "channel": 4,
      "note": 66,
      "start": 13.7748,
      "duration": 0.0085,
      "velocity": 127,
      "chip": "ym2612"
    },
    {
      "channel": 0,
      "note": 54,
      "start": 13.7807,
      "duration": 0.0064,
      "velocity": 127,
      "chip": "ym2612"
    },
    {
      "channel": 4,
      "note": 71,
      "start": 13.7835,
      "duration": 0.0067,
      "velocity": 127,
      "chip": "ym2612"
    },
    {
      "channel": 0,
      "note": 61,
      "start": 13.7874,
      "duration": 0.0093,
      "velocity": 127,
      "chip": "ym2612"
    },
    {
      "channel": 4,
      "note": 66,
      "start": 13.7905,
      "duration": 0.0103,
      "velocity": 104,
      "chip": "ym2612"
    },
    {
      "channel": 0,
      "note": 59,
      "start": 13.7971,
      "duration": 0.0497,
      "velocity": 127,
      "chip": "ym2612"
    },
    {
      "channel": 4,
      "note": 45,
      "start": 13.801,
      "duration": 0.0027,
      "velocity": 104,
      "chip": "ym2612"
    },
    {
      "channel": 4,
      "note": 57,
      "start": 13.8039,
      "duration": 0.0036,
      "velocity": 104,
      "chip": "ym2612"
    },
    {
      "channel": 4,
      "note": 52,
      "start": 13.8077,
      "duration": 0.0064,
      "velocity": 104,
      "chip": "ym2612"
    },
    {
      "channel": 4,
      "note": 57,
      "start": 13.8145,
      "duration": 0.0351,
      "velocity": 104,
      "chip": "ym2612"
    },
    {
      "channel": 0,
      "note": 52,
      "start": 13.8472,
      "duration": 0.0154,
      "velocity": 127,
      "chip": "ym2612"
    },
    {
      "channel": 4,
      "note": 64,
      "start": 13.8498,
      "duration": 0.0029,
      "velocity": 104,
      "chip": "ym2612"
    },
    {
      "channel": 4,
      "note": 64,
      "start": 13.8529,
      "duration": 0.0045,
      "velocity": 104,
      "chip": "ym2612"
    },
    {
      "channel": 4,
      "note": 69,
      "start": 13.8578,
      "duration": 0.0036,
      "velocity": 104,
      "chip": "ym2612"
    },
    {
      "channel": 4,
      "note": 69,
      "start": 13.8617,
      "duration": 0.0039,
      "velocity": 104,
      "chip": "ym2612"
    },
    {
      "channel": 0,
      "note": 54,
      "start": 13.8628,
      "duration": 0.0322,
      "velocity": 127,
      "chip": "ym2612"
    },
    {
      "channel": 1,
      "note": 67,
      "start": 13.8631,
      "duration": 0.0088,
      "velocity": 110,
      "chip": "ym2612"
    },
    {
      "channel": 3,
      "note": 50,
      "start": 13.8655,
      "duration": 0.0084,
      "velocity": 106,
      "chip": "ym2612"
    },
    {
      "channel": 4,
      "note": 76,
      "start": 13.8658,
      "duration": 0.0048,
      "velocity": 104,
      "chip": "ym2612"
    },
    {
      "channel": 2,
      "note": 67,
      "start": 13.8704,
      "duration": 0.0071,
      "velocity": 108,
      "chip": "ym2612"
    },
    {
      "channel": 4,
      "note": 76,
      "start": 13.8708,
      "duration": 0.0034,
      "velocity": 104,
      "chip": "ym2612"
    },
    {
      "channel": 1,
      "note": 69,
      "start": 13.8722,
      "duration": 0.0232,
      "velocity": 110,
      "chip": "ym2612"
    },
    {
      "channel": 3,
      "note": 52,
      "start": 13.8741,
      "duration": 0.0235,
      "velocity": 106,
      "chip": "ym2612"
    },
    {
      "channel": 4,
      "note": 81,
      "start": 13.8745,
      "duration": 0.0034,
      "velocity": 104,
      "chip": "ym2612"
    },
    {
      "channel": 2,
      "note": 69,
      "start": 13.8778,
      "duration": 0.0244,
      "velocity": 108,
      "chip": "ym2612"
    },
    {
      "channel": 4,
      "note": 88,
      "start": 13.8782,
      "duration": 0.0208,
      "velocity": 127,
      "chip": "ym2612"
    },
    {
      "channel": 0,
      "note": 61,
      "start": 13.8953,
      "duration": 0.0081,
      "velocity": 127,
      "chip": "ym2612"
    },
    {
      "channel": 1,
      "note": 67,
      "start": 13.8957,
      "duration": 0.0812,
      "velocity": 110,
      "chip": "ym2612"
    },
    {
      "channel": 3,
      "note": 50,
      "start": 13.8978,
      "duration": 0.0815,
      "velocity": 106,
      "chip": "ym2612"
    },
    {
      "channel": 4,
      "note": 71,
      "start": 13.8992,
      "duration": 0.0059,
      "velocity": 127,
      "chip": "ym2612"
    },
    {
      "channel": 2,
      "note": 67,
      "start": 13.9024,
      "duration": 0.08,
      "velocity": 108,
      "chip": "ym2612"
    },
    {
      "channel": 4,
      "note": 66,
      "start": 13.9053,
      "duration": 0.042,
      "velocity": 127,
      "chip": "ym2612"
    },
    {
      "channel": 0,
      "note": 54,
      "start": 13.9444,
      "duration": 0.0071,
      "velocity": 127,
      "chip": "ym2612"
    },
    {
      "channel": 4,
      "note": 73,
      "start": 13.9476,
      "duration": 0.0069,
      "velocity": 127,
      "chip": "ym2612"
    },
    {
      "channel": 0,
      "note": 61,
      "start": 13.9518,
      "duration": 0.0087,
      "velocity": 127,
      "chip": "ym2612"
    },
    {
      "channel": 4,
      "note": 66,
      "start": 13.9548,
      "duration": 0.0086,
      "velocity": 127,
      "chip": "ym2612"
    },
    {
      "channel": 0,
      "note": 54,
      "start": 13.9609,
      "duration": 0.0064,
      "velocity": 127,
      "chip": "ym2612"
    },
    {
      "channel": 4,
      "note": 71,
      "start": 13.9636,
      "duration": 0.0068,
      "velocity": 127,
      "chip": "ym2612"
    },
    {
      "channel": 0,
      "note": 61,
      "start": 13.9676,
      "duration": 0.0089,
      "velocity": 127,
      "chip": "ym2612"
    },
    {
      "channel": 4,
      "note": 66,
      "start": 13.9706,
      "duration": 0.009,
      "velocity": 127,
      "chip": "ym2612"
    },
    {
      "channel": 0,
      "note": 59,
      "start": 13.9768,
      "duration": 0.0492,
      "velocity": 127,
      "chip": "ym2612"
    },
    {
      "channel": 1,
      "note": 66,
      "start": 13.9773,
      "duration": 0.0492,
      "velocity": 110,
      "chip": "ym2612"
    },
    {
      "channel": 3,
      "note": 49,
      "start": 13.9795,
      "duration": 0.0493,
      "velocity": 106,
      "chip": "ym2612"
    },
    {
      "channel": 4,
      "note": 76,
      "start": 13.9799,
      "duration": 0.0058,
      "velocity": 127,
      "chip": "ym2612"
    },
    {
      "channel": 2,
      "note": 66,
      "start": 13.9826,
      "duration": 0.0492,
      "velocity": 108,
      "chip": "ym2612"
    },
    {
      "channel": 4,
      "note": 66,
      "start": 13.9859,
      "duration": 0.0432,
      "velocity": 127,
      "chip": "ym2612"
    },
    {
      "channel": 0,
      "note": 52,
      "start": 14.0264,
      "duration": 0.0065,
      "velocity": 127,
      "chip": "ym2612"
    },
    {
      "channel": 1,
      "note": 64,
      "start": 14.0268,
      "duration": 0.0142,
      "velocity": 110,
      "chip": "ym2612"
    },
    {
      "channel": 3,
      "note": 47,
      "start": 14.029,
      "duration": 0.0142,
      "velocity": 106,
      "chip": "ym2612"
    },
    {
      "channel": 4,
      "note": 71,
      "start": 14.0293,
      "duration": 0.0071,
      "velocity": 127,
      "chip": "ym2612"
    },
    {
      "channel": 2,
      "note": 64,
      "start": 14.032,
      "duration": 0.0134,
      "velocity": 108,
      "chip": "ym2612"
    },
    {
      "channel": 4,
      "note": 66,
      "start": 14.0366,
      "duration": 0.0068,
      "velocity": 127,
      "chip": "ym2612"
    },
    {
      "channel": 1,
      "note": 62,
      "start": 14.0413,
      "duration": 0.0133,
      "velocity": 110,
      "chip": "ym2612"
    },
    {
      "channel": 3,
      "note": 45,
      "start": 14.0434,
      "duration": 0.0137,
      "velocity": 106,
      "chip": "ym2612"
    },
    {
      "channel": 4,
      "note": 73,
      "start": 14.0436,
      "duration": 0.0059,
      "velocity": 127,
      "chip": "ym2612"
    },
    {
      "channel": 2,
      "note": 62,
      "start": 14.0456,
      "duration": 0.0166,
      "velocity": 108,
      "chip": "ym2612"
    },
    {
      "channel": 4,
      "note": 66,
      "start": 14.0498,
      "duration": 0.0088,
      "velocity": 127,
      "chip": "ym2612"
    },
    {
      "channel": 0,
      "note": 61,
      "start": 14.0545,
      "duration": 0.009,
      "velocity": 127,
      "chip": "ym2612"
    },
    {
      "channel": 1,
      "note": 61,
      "start": 14.055,
      "duration": 0.1378,
      "velocity": 110,
      "chip": "ym2612"
    },
    {
      "channel": 3,
      "note": 42,
      "start": 14.0573,
      "duration": 0.1379,
      "velocity": 106,
      "chip": "ym2612"
    },
    {
      "channel": 4,
      "note": 71,
      "start": 14.0589,
      "duration": 0.0065,
      "velocity": 127,
      "chip": "ym2612"
    },
    {
      "channel": 2,
      "note": 61,
      "start": 14.0624,
      "duration": 0.1356,
      "velocity": 108,
      "chip": "ym2612"
    },
    {
      "channel": 4,
      "note": 66,
      "start": 14.0657,
      "duration": 0.0415,
      "velocity": 127,
      "chip": "ym2612"
    },
    {
      "channel": 0,
      "note": 54,
      "start": 14.1047,
      "duration": 0.0069,
      "velocity": 127,
      "chip": "ym2612"
    },
    {
      "channel": 4,
      "note": 73,
      "start": 14.1074,
      "duration": 0.0074,
      "velocity": 127,
      "chip": "ym2612"
    },
    {
      "channel": 0,
      "note": 61,
      "start": 14.1121,
      "duration": 0.0076,
      "velocity": 127,
      "chip": "ym2612"
    },
    {
      "channel": 4,
      "note": 66,
      "start": 14.1151,
      "duration": 0.0082,
      "velocity": 127,
      "chip": "ym2612"
    },
    {
      "channel": 0,
      "note": 54,
      "start": 14.1201,
      "duration": 0.007,
      "velocity": 127,
      "chip": "ym2612"
    },
    {
      "channel": 4,
      "note": 71,
      "start": 14.1235,
      "duration": 0.0066,
      "velocity": 127,
      "chip": "ym2612"
    },
    {
      "channel": 0,
      "note": 61,
      "start": 14.1274,
      "duration": 0.0083,
      "velocity": 127,
      "chip": "ym2612"
    },
    {
      "channel": 4,
      "note": 66,
      "start": 14.1304,
      "duration": 0.0093,
      "velocity": 104,
      "chip": "ym2612"
    },
    {
      "channel": 0,
      "note": 59,
      "start": 14.1361,
      "duration": 0.0496,
      "velocity": 127,
      "chip": "ym2612"
    },
    {
      "channel": 4,
      "note": 45,
      "start": 14.1399,
      "duration": 0.0027,
      "velocity": 104,
      "chip": "ym2612"
    },
    {
      "channel": 4,
      "note": 57,
      "start": 14.1429,
      "duration": 0.0028,
      "velocity": 104,
      "chip": "ym2612"
    },
    {
      "channel": 4,
      "note": 52,
      "start": 14.1459,
      "duration": 0.0073,
      "velocity": 104,
      "chip": "ym2612"
    },
    {
      "channel": 4,
      "note": 57,
      "start": 14.1535,
      "duration": 0.035,
      "velocity": 104,
      "chip": "ym2612"
    },
    {
      "channel": 0,
      "note": 52,
      "start": 14.1861,
      "duration": 0.0129,
      "velocity": 127,
      "chip": "ym2612"
    },
    {
      "channel": 4,
      "note": 64,
      "start": 14.1888,
      "duration": 0.0027,
      "velocity": 104,
      "chip": "ym2612"
    },
    {
      "channel": 4,
      "note": 64,
      "start": 14.1917,
      "duration": 0.0036,
      "velocity": 104,
      "chip": "ym2612"
    },
    {
      "channel": 4,
      "note": 69,
      "start": 14.1954,
      "duration": 0.0027,
      "velocity": 104,
      "chip": "ym2612"
    },
    {
      "channel": 4,
      "note": 69,
      "start": 14.1984,
      "duration": 0.0027,
      "velocity": 104,
      "chip": "ym2612"
    },
    {
      "channel": 0,
      "note": 54,
      "start": 14.1992,
      "duration": 0.0472,
      "velocity": 127,
      "chip": "ym2612"
    },
    {
      "channel": 1,
      "note": 61,
      "start": 14.1996,
      "duration": 0.006,
      "velocity": 110,
      "chip": "ym2612"
    },
    {
      "channel": 3,
      "note": 42,
      "start": 14.201,
      "duration": 0.0079,
      "velocity": 106,
      "chip": "ym2612"
    },
    {
      "channel": 4,
      "note": 76,
      "start": 14.2012,
      "duration": 0.003,
      "velocity": 104,
      "chip": "ym2612"
    },
    {
      "channel": 2,
      "note": 61,
      "start": 14.204,
      "duration": 0.0092,
      "velocity": 108,
      "chip": "ym2612"
    },
    {
      "channel": 4,
      "note": 76,
      "start": 14.2045,
      "duration": 0.0047,
      "velocity": 104,
      "chip": "ym2612"
    },
    {
      "channel": 1,
      "note": 62,
      "start": 14.2059,
      "duration": 0.0409,
      "velocity": 110,
      "chip": "ym2612"
    },
    {
      "channel": 3,
      "note": 45,
      "start": 14.2091,
      "duration": 0.0398,
      "velocity": 106,
      "chip": "ym2612"
    },
    {
      "channel": 4,
      "note": 81,
      "start": 14.2094,
      "duration": 0.0044,
      "velocity": 104,
      "chip": "ym2612"
    },
    {
      "channel": 2,
      "note": 62,
      "start": 14.2135,
      "duration": 0.0395,
      "velocity": 108,
      "chip": "ym2612"
    },
    {
      "channel": 4,
      "note": 88,
      "start": 14.2141,
      "duration": 0.0362,
      "velocity": 127,
      "chip": "ym2612"
    },
    {
      "channel": 0,
      "note": 61,
      "start": 14.2467,
      "duration": 0.0081,
      "velocity": 127,
      "chip": "ym2612"
    },
    {
      "channel": 1,
      "note": 64,
      "start": 14.2471,
      "duration": 0.0794,
      "velocity": 110,
      "chip": "ym2612"
    },
    {
      "channel": 3,
      "note": 47,
      "start": 14.249,
      "duration": 0.0809,
      "velocity": 106,
      "chip": "ym2612"
    },
    {
      "channel": 4,
      "note": 71,
      "start": 14.2505,
      "duration": 0.0059,
      "velocity": 127,
      "chip": "ym2612"
    },
    {
      "channel": 2,
      "note": 64,
      "start": 14.2532,
      "duration": 0.0829,
      "velocity": 108,
      "chip": "ym2612"
    },
    {
      "channel": 4,
      "note": 66,
      "start": 14.2566,
      "duration": 0.0414,
      "velocity": 127,
      "chip": "ym2612"
    },
    {
      "channel": 0,
      "note": 54,
      "start": 14.2956,
      "duration": 0.007,
      "velocity": 127,
      "chip": "ym2612"
    },
    {
      "channel": 4,
      "note": 73,
      "start": 14.2983,
      "duration": 0.0073,
      "velocity": 127,
      "chip": "ym2612"
    },
    {
      "channel": 0,
      "note": 61,
      "start": 14.303,
      "duration": 0.0076,
      "velocity": 127,
      "chip": "ym2612"
    },
    {
      "channel": 4,
      "note": 66,
      "start": 14.3058,
      "duration": 0.0077,
      "velocity": 127,
      "chip": "ym2612"
    },
    {
      "channel": 0,
      "note": 54,
      "start": 14.311,
      "duration": 0.0072,
      "velocity": 127,
      "chip": "ym2612"
    },
    {
      "channel": 4,
      "note": 71,
      "start": 14.3137,
      "duration": 0.0076,
      "velocity": 127,
      "chip": "ym2612"
    },
    {
      "channel": 0,
      "note": 61,
      "start": 14.3185,
      "duration": 0.0076,
      "velocity": 127,
      "chip": "ym2612"
    },
    {
      "channel": 4,
      "note": 66,
      "start": 14.3216,
      "duration": 0.0085,
      "velocity": 127,
      "chip": "ym2612"
    },
    {
      "channel": 0,
      "note": 59,
      "start": 14.3264,
      "duration": 0.0202,
      "velocity": 127,
      "chip": "ym2612"
    },
    {
      "channel": 1,
      "note": 66,
      "start": 14.3269,
      "duration": 0.0573,
      "velocity": 104,
      "chip": "ym2612"
    },
    {
      "channel": 3,
      "note": 49,
      "start": 14.3301,
      "duration": 0.0575,
      "velocity": 105,
      "chip": "ym2612"
    },
    {
      "channel": 4,
      "note": 76,
      "start": 14.3305,
      "duration": 0.0102,
      "velocity": 127,
      "chip": "ym2612"
    },
    {
      "channel": 2,
      "note": 66,
      "start": 14.3364,
      "duration": 0.0582,
      "velocity": 102,
      "chip": "ym2612"
    },
    {
      "channel": 4,
      "note": 66,
      "start": 14.3411,
      "duration": 0.0105,
      "velocity": 127,
      "chip": "ym2612"
    },
    {
      "channel": 0,
      "note": 52,
      "start": 14.347,
      "duration": 0.0181,
      "velocity": 127,
      "chip": "ym2612"
    },
    {
      "channel": 4,
      "note": 71,
      "start": 14.3518,
      "duration": 0.0076,
      "velocity": 127,
      "chip": "ym2612"
    },
    {
      "channel": 4,
      "note": 66,
      "start": 14.3596,
      "duration": 0.0086,
      "velocity": 127,
      "chip": "ym2612"
    },
    {
      "channel": 0,
      "note": 64,
      "start": 14.3654,
      "duration": 0.0168,
      "velocity": 113,
      "chip": "ym2612"
    },
    {
      "channel": 4,
      "note": 73,
      "start": 14.3685,
      "duration": 0.0071,
      "velocity": 127,
      "chip": "ym2612"
    },
    {
      "channel": 4,
      "note": 66,
      "start": 14.3758,
      "duration": 0.0137,
      "velocity": 126,
      "chip": "ym2612"
    },
    {
      "channel": 1,
      "note": 83,
      "start": 14.3845,
      "duration": 0.1008,
      "velocity": 104,
      "chip": "ym2612"
    },
    {
      "channel": 3,
      "note": 57,
      "start": 14.3878,
      "duration": 0.0987,
      "velocity": 105,
      "chip": "ym2612"
    },
    {
      "channel": 2,
      "note": 83,
      "start": 14.3948,
      "duration": 0.0977,
      "velocity": 102,
      "chip": "ym2612"
    },
    {
      "channel": 0,
      "note": 50,
      "start": 14.4139,
      "duration": 0.0102,
      "velocity": 113,
      "chip": "ym2612"
    },
    {
      "channel": 4,
      "note": 60,
      "start": 14.4186,
      "duration": 0.0082,
      "velocity": 126,
      "chip": "ym2612"
    },
    {
      "channel": 0,
      "note": 38,
      "start": 14.4244,
      "duration": 0.0066,
      "velocity": 113,
      "chip": "ym2612"
    },
    {
      "channel": 4,
      "note": 60,
      "start": 14.427,
      "duration": 0.0066,
      "velocity": 126,
      "chip": "ym2612"
    },
    {
      "channel": 0,
      "note": 38,
      "start": 14.4313,
      "duration": 0.0066,
      "velocity": 113,
      "chip": "ym2612"
    },
    {
      "channel": 4,
      "note": 60,
      "start": 14.4338,
      "duration": 0.0058,
      "velocity": 126,
      "chip": "ym2612"
    },
    {
      "channel": 0,
      "note": 38,
      "start": 14.4794,
      "duration": 0.0058,
      "velocity": 113,
      "chip": "ym2612"
    },
    {
      "channel": 4,
      "note": 62,
      "start": 14.4823,
      "duration": 0.0043,
      "velocity": 126,
      "chip": "ym2612"
    },
    {
      "channel": 1,
      "note": 74,
      "start": 14.5428,
      "duration": 0.0071,
      "velocity": 104,
      "chip": "ym2612"
    },
    {
      "channel": 3,
      "note": 47,
      "start": 14.5463,
      "duration": 0.0053,
      "velocity": 105,
      "chip": "ym2612"
    },
    {
      "channel": 4,
      "note": 65,
      "start": 14.5466,
      "duration": 0.0054,
      "velocity": 126,
      "chip": "ym2612"
    },
    {
      "channel": 2,
      "note": 74,
      "start": 14.5488,
      "duration": 0.0058,
      "velocity": 102,
      "chip": "ym2612"
    },
    {
      "channel": 1,
      "note": 83,
      "start": 14.55,
      "duration": 0.0057,
      "velocity": 104,
      "chip": "ym2612"
    },
    {
      "channel": 3,
      "note": 55,
      "start": 14.552,
      "duration": 0.0056,
      "velocity": 105,
      "chip": "ym2612"
    },
    {
      "channel": 2,
      "note": 83,
      "start": 14.555,
      "duration": 0.0054,
      "velocity": 102,
      "chip": "ym2612"
    },
    {
      "channel": 1,
      "note": 81,
      "start": 14.5561,
      "duration": 0.5284,
      "velocity": 104,
      "chip": "ym2612"
    },
    {
      "channel": 3,
      "note": 52,
      "start": 14.5578,
      "duration": 0.5277,
      "velocity": 105,
      "chip": "ym2612"
    },
    {
      "channel": 2,
      "note": 81,
      "start": 14.5606,
      "duration": 0.5307,
      "velocity": 102,
      "chip": "ym2612"
    },
    {
      "channel": 0,
      "note": 50,
      "start": 15.0132,
      "duration": 0.0096,
      "velocity": 113,
      "chip": "ym2612"
    },
    {
      "channel": 4,
      "note": 60,
      "start": 15.0176,
      "duration": 0.0078,
      "velocity": 126,
      "chip": "ym2612"
    },
    {
      "channel": 0,
      "note": 38,
      "start": 15.0231,
      "duration": 0.0065,
      "velocity": 113,
      "chip": "ym2612"
    },
    {
      "channel": 4,
      "note": 60,
      "start": 15.0256,
      "duration": 0.0069,
      "velocity": 126,
      "chip": "ym2612"
    },
    {
      "channel": 0,
      "note": 38,
      "start": 15.0301,
      "duration": 0.0069,
      "velocity": 113,
      "chip": "ym2612"
    },
    {
      "channel": 4,
      "note": 60,
      "start": 15.0328,
      "duration": 0.0059,
      "velocity": 126,
      "chip": "ym2612"
    },
    {
      "channel": 0,
      "note": 38,
      "start": 15.0783,
      "duration": 0.0061,
      "velocity": 113,
      "chip": "ym2612"
    },
    {
      "channel": 4,
      "note": 62,
      "start": 15.0805,
      "duration": 0.0051,
      "velocity": 126,
      "chip": "ym2612"
    },
    {
      "channel": 0,
      "note": 50,
      "start": 15.1251,
      "duration": 0.0082,
      "velocity": 113,
      "chip": "ym2612"
    },
    {
      "channel": 1,
      "note": 74,
      "start": 15.1254,
      "duration": 0.0079,
      "velocity": 104,
      "chip": "ym2612"
    },
    {
      "channel": 3,
      "note": 47,
      "start": 15.1293,
      "duration": 0.0059,
      "velocity": 105,
      "chip": "ym2612"
    },
    {
      "channel": 4,
      "note": 67,
      "start": 15.1297,
      "duration": 0.0058,
      "velocity": 126,
      "chip": "ym2612"
    },
    {
      "channel": 2,
      "note": 74,
      "start": 15.1323,
      "duration": 0.0053,
      "velocity": 102,
      "chip": "ym2612"
    },
    {
      "channel": 1,
      "note": 79,
      "start": 15.1337,
      "duration": 0.5493,
      "velocity": 104,
      "chip": "ym2612"
    },
    {
      "channel": 3,
      "note": 52,
      "start": 15.1354,
      "duration": 0.5488,
      "velocity": 105,
      "chip": "ym2612"
    },
    {
      "channel": 2,
      "note": 79,
      "start": 15.1378,
      "duration": 0.5522,
      "velocity": 102,
      "chip": "ym2612"
    },
    {
      "channel": 0,
      "note": 50,
      "start": 15.6116,
      "duration": 0.0095,
      "velocity": 113,
      "chip": "ym2612"
    },
    {
      "channel": 4,
      "note": 60,
      "start": 15.6161,
      "duration": 0.0083,
      "velocity": 126,
      "chip": "ym2612"
    },
    {
      "channel": 0,
      "note": 38,
      "start": 15.6214,
      "duration": 0.0069,
      "velocity": 113,
      "chip": "ym2612"
    },
    {
      "channel": 4,
      "note": 60,
      "start": 15.6246,
      "duration": 0.0064,
      "velocity": 126,
      "chip": "ym2612"
    },
    {
      "channel": 0,
      "note": 38,
      "start": 15.6287,
      "duration": 0.0067,
      "velocity": 113,
      "chip": "ym2612"
    },
    {
      "channel": 4,
      "note": 60,
      "start": 15.6313,
      "duration": 0.0057,
      "velocity": 126,
      "chip": "ym2612"
    },
    {
      "channel": 0,
      "note": 38,
      "start": 15.6767,
      "duration": 0.0062,
      "velocity": 113,
      "chip": "ym2612"
    },
    {
      "channel": 4,
      "note": 62,
      "start": 15.6789,
      "duration": 0.0053,
      "velocity": 126,
      "chip": "ym2612"
    },
    {
      "channel": 1,
      "note": 77,
      "start": 15.7237,
      "duration": 0.0075,
      "velocity": 104,
      "chip": "ym2612"
    },
    {
      "channel": 3,
      "note": 50,
      "start": 15.7273,
      "duration": 0.006,
      "velocity": 105,
      "chip": "ym2612"
    },
    {
      "channel": 4,
      "note": 65,
      "start": 15.7276,
      "duration": 0.006,
      "velocity": 126,
      "chip": "ym2612"
    },
    {
      "channel": 2,
      "note": 77,
      "start": 15.7304,
      "duration": 0.0051,
      "velocity": 102,
      "chip": "ym2612"
    },
    {
      "channel": 1,
      "note": 76,
      "start": 15.7315,
      "duration": 0.005,
      "velocity": 104,
      "chip": "ym2612"
    },
    {
      "channel": 3,
      "note": 48,
      "start": 15.7335,
      "duration": 0.0052,
      "velocity": 105,
      "chip": "ym2612"
    },
    {
      "channel": 2,
      "note": 76,
      "start": 15.7358,
      "duration": 0.0073,
      "velocity": 102,
      "chip": "ym2612"
    },
    {
      "channel": 1,
      "note": 74,
      "start": 15.7368,
      "duration": 0.4902,
      "velocity": 104,
      "chip": "ym2612"
    },
    {
      "channel": 3,
      "note": 47,
      "start": 15.739,
      "duration": 0.4902,
      "velocity": 105,
      "chip": "ym2612"
    },
    {
      "channel": 2,
      "note": 74,
      "start": 15.7435,
      "duration": 0.4886,
      "velocity": 102,
      "chip": "ym2612"
    },
    {
      "channel": 0,
      "note": 50,
      "start": 16.21,
      "duration": 0.0089,
      "velocity": 113,
      "chip": "ym2612"
    },
    {
      "channel": 4,
      "note": 60,
      "start": 16.2143,
      "duration": 0.0075,
      "velocity": 126,
      "chip": "ym2612"
    },
    {
      "channel": 0,
      "note": 38,
      "start": 16.2194,
      "duration": 0.0071,
      "velocity": 113,
      "chip": "ym2612"
    },
    {
      "channel": 4,
      "note": 60,
      "start": 16.2221,
      "duration": 0.0075,
      "velocity": 126,
      "chip": "ym2612"
    },
    {
      "channel": 0,
      "note": 38,
      "start": 16.2269,
      "duration": 0.0064,
      "velocity": 113,
      "chip": "ym2612"
    },
    {
      "channel": 1,
      "note": 71,
      "start": 16.2273,
      "duration": 0.0482,
      "velocity": 104,
      "chip": "ym2612"
    },
    {
      "channel": 3,
      "note": 43,
      "start": 16.2295,
      "duration": 0.048,
      "velocity": 105,
      "chip": "ym2612"
    },
    {
      "channel": 4,
      "note": 60,
      "start": 16.2298,
      "duration": 0.006,
      "velocity": 126,
      "chip": "ym2612"
    },
    {
      "channel": 2,
      "note": 71,
      "start": 16.2323,
      "duration": 0.0483,
      "velocity": 102,
      "chip": "ym2612"
    },
    {
      "channel": 0,
      "note": 38,
      "start": 16.2754,
      "duration": 0.0072,
      "velocity": 113,
      "chip": "ym2612"
    },
    {
      "channel": 1,
      "note": 72,
      "start": 16.2758,
      "duration": 0.0482,
      "velocity": 104,
      "chip": "ym2612"
    },
    {
      "channel": 3,
      "note": 45,
      "start": 16.2777,
      "duration": 0.0493,
      "velocity": 105,
      "chip": "ym2612"
    },
    {
      "channel": 4,
      "note": 62,
      "start": 16.2781,
      "duration": 0.0063,
      "velocity": 126,
      "chip": "ym2612"
    },
    {
      "channel": 2,
      "note": 72,
      "start": 16.2809,
      "duration": 0.0497,
      "velocity": 102,
      "chip": "ym2612"
    },
    {
      "channel": 0,
      "note": 50,
      "start": 16.3239,
      "duration": 0.0081,
      "velocity": 113,
      "chip": "ym2612"
    },
    {
      "channel": 1,
      "note": 74,
      "start": 16.3242,
      "duration": 0.0125,
      "velocity": 104,
      "chip": "ym2612"
    },
    {
      "channel": 3,
      "note": 47,
      "start": 16.3272,
      "duration": 0.0118,
      "velocity": 105,
      "chip": "ym2612"
    },
    {
      "channel": 4,
      "note": 67,
      "start": 16.3274,
      "duration": 0.0069,
      "velocity": 126,
      "chip": "ym2612"
    },
    {
      "channel": 2,
      "note": 74,
      "start": 16.3308,
      "duration": 0.0124,
      "velocity": 102,
      "chip": "ym2612"
    },
    {
      "channel": 1,
      "note": 86,
      "start": 16.3371,
      "duration": 0.0968,
      "velocity": 104,
      "chip": "ym2612"
    },
    {
      "channel": 3,
      "note": 59,
      "start": 16.3392,
      "duration": 0.0962,
      "velocity": 105,
      "chip": "ym2612"
    },
    {
      "channel": 2,
      "note": 86,
      "start": 16.3434,
      "duration": 0.0978,
      "velocity": 102,
      "chip": "ym2612"
    },
    {
      "channel": 0,
      "note": 53,
      "start": 16.3638,
      "duration": 0.009,
      "velocity": 113,
      "chip": "ym2612"
    },
    {
      "channel": 4,
      "note": 60,
      "start": 16.3683,
      "duration": 0.0072,
      "velocity": 126,
      "chip": "ym2612"
    },
    {
      "channel": 0,
      "note": 41,
      "start": 16.3731,
      "duration": 0.0073,
      "velocity": 113,
      "chip": "ym2612"
    },
    {
      "channel": 4,
      "note": 60,
      "start": 16.3756,
      "duration": 0.0071,
      "velocity": 126,
      "chip": "ym2612"
    },
    {
      "channel": 0,
      "note": 41,
      "start": 16.3807,
      "duration": 0.0057,
      "velocity": 113,
      "chip": "ym2612"
    },
    {
      "channel": 4,
      "note": 60,
      "start": 16.383,
      "duration": 0.005,
      "velocity": 126,
      "chip": "ym2612"
    },
    {
      "channel": 0,
      "note": 41,
      "start": 16.4283,
      "duration": 0.0057,
      "velocity": 113,
      "chip": "ym2612"
    },
    {
      "channel": 4,
      "note": 62,
      "start": 16.4306,
      "duration": 0.0049,
      "velocity": 126,
      "chip": "ym2612"
    },
    {
      "channel": 0,
      "note": 53,
      "start": 16.4751,
      "duration": 0.0086,
      "velocity": 113,
      "chip": "ym2612"
    },
    {
      "channel": 1,
      "note": 74,
      "start": 16.4755,
      "duration": 0.0082,
      "velocity": 104,
      "chip": "ym2612"
    },
    {
      "channel": 3,
      "note": 47,
      "start": 16.4788,
      "duration": 0.0068,
      "velocity": 105,
      "chip": "ym2612"
    },
    {
      "channel": 4,
      "note": 65,
      "start": 16.4791,
      "duration": 0.0068,
      "velocity": 126,
      "chip": "ym2612"
    },
    {
      "channel": 2,
      "note": 74,
      "start": 16.4819,
      "duration": 0.0062,
      "velocity": 102,
      "chip": "ym2612"
    },
    {
      "channel": 1,
      "note": 86,
      "start": 16.484,
      "duration": 0.0052,
      "velocity": 104,
      "chip": "ym2612"
    },
    {
      "channel": 3,
      "note": 59,
      "start": 16.4859,
      "duration": 0.0049,
      "velocity": 105,
      "chip": "ym2612"
    },
    {
      "channel": 2,
      "note": 86,
      "start": 16.4884,
      "duration": 0.0066,
      "velocity": 102,
      "chip": "ym2612"
    },
    {
      "channel": 1,
      "note": 84,
      "start": 16.4895,
      "duration": 0.5212,
      "velocity": 104,
      "chip": "ym2612"
    },
    {
      "channel": 3,
      "note": 57,
      "start": 16.4912,
      "duration": 0.5215,
      "velocity": 105,
      "chip": "ym2612"
    },
    {
      "channel": 2,
      "note": 84,
      "start": 16.4953,
      "duration": 0.5201,
      "velocity": 102,
      "chip": "ym2612"
    },
    {
      "channel": 0,
      "note": 53,
      "start": 16.9451,
      "duration": 0.0096,
      "velocity": 113,
      "chip": "ym2612"
    },
    {
      "channel": 4,
      "note": 60,
      "start": 16.9502,
      "duration": 0.0073,
      "velocity": 126,
      "chip": "ym2612"
    },
    {
      "channel": 0,
      "note": 41,
      "start": 16.9551,
      "duration": 0.0069,
      "velocity": 113,
      "chip": "ym2612"
    },
    {
      "channel": 4,
      "note": 60,
      "start": 16.9578,
      "duration": 0.0071,
      "velocity": 126,
      "chip": "ym2612"
    },
    {
      "channel": 0,
      "note": 41,
      "start": 16.9625,
      "duration": 0.0063,
      "velocity": 113,
      "chip": "ym2612"
    },
    {
      "channel": 4,
      "note": 60,
      "start": 16.9651,
      "duration": 0.0054,
      "velocity": 126,
      "chip": "ym2612"
    },
    {
      "channel": 0,
      "note": 41,
      "start": 17.0107,
      "duration": 0.0059,
      "velocity": 113,
      "chip": "ym2612"
    },
    {
      "channel": 1,
      "note": 83,
      "start": 17.0111,
      "duration": 0.0471,
      "velocity": 104,
      "chip": "ym2612"
    },
    {
      "channel": 3,
      "note": 55,
      "start": 17.0129,
      "duration": 0.0495,
      "velocity": 105,
      "chip": "ym2612"
    },
    {
      "channel": 4,
      "note": 62,
      "start": 17.0132,
      "duration": 0.0051,
      "velocity": 126,
      "chip": "ym2612"
    },
    {
      "channel": 2,
      "note": 83,
      "start": 17.0156,
      "duration": 0.0499,
      "velocity": 102,
      "chip": "ym2612"
    },
    {
      "channel": 1,
      "note": 79,
      "start": 17.0585,
      "duration": 0.0532,
      "velocity": 104,
      "chip": "ym2612"
    },
    {
      "channel": 3,
      "note": 52,
      "start": 17.0627,
      "duration": 0.0829,
      "velocity": 105,
      "chip": "ym2612"
    },
    {
      "channel": 4,
      "note": 67,
      "start": 17.0629,
      "duration": 0.0062,
      "velocity": 126,
      "chip": "ym2612"
    },
    {
      "channel": 2,
      "note": 79,
      "start": 17.0657,
      "duration": 0.1463,
      "velocity": 102,
      "chip": "ym2612"
    },
    {
      "channel": 1,
      "note": 74,
      "start": 17.1121,
      "duration": 0.133,
      "velocity": 104,
      "chip": "ym2612"
    },
    {
      "channel": 3,
      "note": 47,
      "start": 17.1459,
      "duration": 0.133,
      "velocity": 105,
      "chip": "ym2612"
    },
    {
      "channel": 2,
      "note": 74,
      "start": 17.2124,
      "duration": 0.1497,
      "velocity": 102,
      "chip": "ym2612"
    },
    {
      "channel": 1,
      "note": 79,
      "start": 17.2454,
      "duration": 0.1499,
      "velocity": 104,
      "chip": "ym2612"
    },
    {
      "channel": 3,
      "note": 52,
      "start": 17.2792,
      "duration": 0.1497,
      "velocity": 105,
      "chip": "ym2612"
    },
    {
      "channel": 2,
      "note": 79,
      "start": 17.3624,
      "duration": 0.1329,
      "velocity": 102,
      "chip": "ym2612"
    },
    {
      "channel": 1,
      "note": 83,
      "start": 17.3956,
      "duration": 0.2622,
      "velocity": 104,
      "chip": "ym2612"
    },
    {
      "channel": 3,
      "note": 55,
      "start": 17.4292,
      "duration": 0.2327,
      "velocity": 105,
      "chip": "ym2612"
    },
    {
      "channel": 2,
      "note": 83,
      "start": 17.4957,
      "duration": 0.1694,
      "velocity": 102,
      "chip": "ym2612"
    },
    {
      "channel": 0,
      "note": 50,
      "start": 17.5289,
      "duration": 0.0101,
      "velocity": 113,
      "chip": "ym2612"
    },
    {
      "channel": 4,
      "note": 60,
      "start": 17.5335,
      "duration": 0.0083,
      "velocity": 126,
      "chip": "ym2612"
    },
    {
      "channel": 0,
      "note": 38,
      "start": 17.5395,
      "duration": 0.0059,
      "velocity": 113,
      "chip": "ym2612"
    },
    {
      "channel": 4,
      "note": 60,
      "start": 17.542,
      "duration": 0.0068,
      "velocity": 126,
      "chip": "ym2612"
    },
    {
      "channel": 0,
      "note": 38,
      "start": 17.5458,
      "duration": 0.0067,
      "velocity": 113,
      "chip": "ym2612"
    },
    {
      "channel": 4,
      "note": 60,
      "start": 17.5491,
      "duration": 0.005,
      "velocity": 126,
      "chip": "ym2612"
    },
    {
      "channel": 0,
      "note": 38,
      "start": 17.6105,
      "duration": 0.0055,
      "velocity": 113,
      "chip": "ym2612"
    },
    {
      "channel": 4,
      "note": 62,
      "start": 17.6127,
      "duration": 0.0049,
      "velocity": 126,
      "chip": "ym2612"
    },
    {
      "channel": 1,
      "note": 81,
      "start": 17.658,
      "duration": 0.0083,
      "velocity": 104,
      "chip": "ym2612"
    },
    {
      "channel": 3,
      "note": 53,
      "start": 17.6623,
      "duration": 0.0059,
      "velocity": 105,
      "chip": "ym2612"
    },
    {
      "channel": 4,
      "note": 65,
      "start": 17.6626,
      "duration": 0.0059,
      "velocity": 126,
      "chip": "ym2612"
    },
    {
      "channel": 2,
      "note": 81,
      "start": 17.6654,
      "duration": 0.0056,
      "velocity": 102,
      "chip": "ym2612"
    },
    {
      "channel": 1,
      "note": 83,
      "start": 17.6666,
      "duration": 0.0055,
      "velocity": 104,
      "chip": "ym2612"
    },
    {
      "channel": 3,
      "note": 55,
      "start": 17.6684,
      "duration": 0.0053,
      "velocity": 105,
      "chip": "ym2612"
    },
    {
      "channel": 2,
      "note": 83,
      "start": 17.6713,
      "duration": 0.0048,
      "velocity": 102,
      "chip": "ym2612"
    },
    {
      "channel": 1,
      "note": 84,
      "start": 17.6723,
      "duration": 0.4737,
      "velocity": 104,
      "chip": "ym2612"
    },
    {
      "channel": 3,
      "note": 57,
      "start": 17.6739,
      "duration": 0.4744,
      "velocity": 105,
      "chip": "ym2612"
    },
    {
      "channel": 2,
      "note": 84,
      "start": 17.6763,
      "duration": 0.4753,
      "velocity": 102,
      "chip": "ym2612"
    },
    {
      "channel": 0,
      "note": 50,
      "start": 18.1285,
      "duration": 0.01,
      "velocity": 113,
      "chip": "ym2612"
    },
    {
      "channel": 4,
      "note": 60,
      "start": 18.1329,
      "duration": 0.0083,
      "velocity": 126,
      "chip": "ym2612"
    },
    {
      "channel": 0,
      "note": 38,
      "start": 18.1389,
      "duration": 0.0067,
      "velocity": 113,
      "chip": "ym2612"
    },
    {
      "channel": 4,
      "note": 60,
      "start": 18.1415,
      "duration": 0.0071,
      "velocity": 126,
      "chip": "ym2612"
    },
    {
      "channel": 0,
      "note": 38,
      "start": 18.146,
      "duration": 0.007,
      "velocity": 113,
      "chip": "ym2612"
    },
    {
      "channel": 1,
      "note": 86,
      "start": 18.1464,
      "duration": 0.0127,
      "velocity": 104,
      "chip": "ym2612"
    },
    {
      "channel": 3,
      "note": 59,
      "start": 18.1485,
      "duration": 0.0134,
      "velocity": 105,
      "chip": "ym2612"
    },
    {
      "channel": 4,
      "note": 60,
      "start": 18.1488,
      "duration": 0.0068,
      "velocity": 126,
      "chip": "ym2612"
    },
    {
      "channel": 2,
      "note": 86,
      "start": 18.1519,
      "duration": 0.0137,
      "velocity": 102,
      "chip": "ym2612"
    },
    {
      "channel": 0,
      "note": 38,
      "start": 18.159,
      "duration": 0.008,
      "velocity": 113,
      "chip": "ym2612"
    },
    {
      "channel": 1,
      "note": 84,
      "start": 18.1594,
      "duration": 0.0152,
      "velocity": 104,
      "chip": "ym2612"
    },
    {
      "channel": 3,
      "note": 57,
      "start": 18.1622,
      "duration": 0.0145,
      "velocity": 105,
      "chip": "ym2612"
    },
    {
      "channel": 4,
      "note": 62,
      "start": 18.1625,
      "duration": 0.0073,
      "velocity": 126,
      "chip": "ym2612"
    },
    {
      "channel": 2,
      "note": 84,
      "start": 18.1659,
      "duration": 0.0141,
      "velocity": 102,
      "chip": "ym2612"
    },
    {
      "channel": 0,
      "note": 50,
      "start": 18.1746,
      "duration": 0.0067,
      "velocity": 113,
      "chip": "ym2612"
    },
    {
      "channel": 1,
      "note": 86,
      "start": 18.1749,
      "duration": 0.0169,
      "velocity": 112,
      "chip": "ym2612"
    },
    {
      "channel": 3,
      "note": 59,
      "start": 18.177,
      "duration": 0.0179,
      "velocity": 112,
      "chip": "ym2612"
    },
    {
      "channel": 4,
      "note": 67,
      "start": 18.1772,
      "duration": 0.0068,
      "velocity": 126,
      "chip": "ym2612"
    },
    {
      "channel": 2,
      "note": 86,
      "start": 18.1802,
      "duration": 0.0203,
      "velocity": 112,
      "chip": "ym2612"
    },
    {
      "channel": 0,
      "note": 34,
      "start": 18.1905,
      "duration": 0.0111,
      "velocity": 79,
      "chip": "ym2612"
    },
    {
      "channel": 1,
      "note": 63,
      "start": 18.192,
      "duration": 0.3199,
      "velocity": 112,
      "chip": "ym2612"
    },
    {
      "channel": 3,
      "note": 60,
      "start": 18.1951,
      "duration": 0.3198,
      "velocity": 112,
      "chip": "ym2612"
    },
    {
      "channel": 4,
      "note": 46,
      "start": 18.1967,
      "duration": 0.0065,
      "velocity": 127,
      "chip": "ym2612"
    },
    {
      "channel": 2,
      "note": 63,
      "start": 18.2007,
      "duration": 0.3166,
      "velocity": 112,
      "chip": "ym2612"
    },
    {
      "channel": 0,
      "note": 34,
      "start": 18.2406,
      "duration": 0.0062,
      "velocity": 79,
      "chip": "ym2612"
    },
    {
      "channel": 4,
      "note": 46,
      "start": 18.2429,
      "duration": 0.0078,
      "velocity": 127,
      "chip": "ym2612"
    },
    {
      "channel": 0,
      "note": 34,
      "start": 18.2471,
      "duration": 0.0085,
      "velocity": 79,
      "chip": "ym2612"
    },
    {
      "channel": 4,
      "note": 46,
      "start": 18.251,
      "duration": 0.0073,
      "velocity": 127,
      "chip": "ym2612"
    },
    {
      "channel": 0,
      "note": 34,
      "start": 18.2613,
      "duration": 0.0424,
      "velocity": 79,
      "chip": "ym2612"
    },
    {
      "channel": 4,
      "note": 46,
      "start": 18.2635,
      "duration": 0.0432,
      "velocity": 127,
      "chip": "ym2612"
    },
    {
      "channel": 0,
      "note": 34,
      "start": 18.3041,
      "duration": 0.007,
      "velocity": 79,
      "chip": "ym2612"
    },
    {
      "channel": 4,
      "note": 46,
      "start": 18.3069,
      "duration": 0.0059,
      "velocity": 127,
      "chip": "ym2612"
    },
    {
      "channel": 0,
      "note": 34,
      "start": 18.3522,
      "duration": 0.1498,
      "velocity": 79,
      "chip": "ym2612"
    },
    {
      "channel": 4,
      "note": 46,
      "start": 18.3865,
      "duration": 0.1205,
      "velocity": 127,
      "chip": "ym2612"
    },
    {
      "channel": 0,
      "note": 34,
      "start": 18.5024,
      "duration": 0.0094,
      "velocity": 79,
      "chip": "ym2612"
    },
    {
      "channel": 4,
      "note": 46,
      "start": 18.5072,
      "duration": 0.008,
      "velocity": 127,
      "chip": "ym2612"
    },
    {
      "channel": 1,
      "note": 62,
      "start": 18.5122,
      "duration": 0.0066,
      "velocity": 112,
      "chip": "ym2612"
    },
    {
      "channel": 3,
      "note": 58,
      "start": 18.5151,
      "duration": 0.0057,
      "velocity": 112,
      "chip": "ym2612"
    },
    {
      "channel": 2,
      "note": 62,
      "start": 18.5176,
      "duration": 0.007,
      "velocity": 112,
      "chip": "ym2612"
    },
    {
      "channel": 0,
      "note": 34,
      "start": 18.5187,
      "duration": 0.0403,
      "velocity": 79,
      "chip": "ym2612"
    },
    {
      "channel": 1,
      "note": 60,
      "start": 18.519,
      "duration": 0.0405,
      "velocity": 112,
      "chip": "ym2612"
    },
    {
      "channel": 3,
      "note": 56,
      "start": 18.5211,
      "duration": 0.0406,
      "velocity": 112,
      "chip": "ym2612"
    },
    {
      "channel": 4,
      "note": 46,
      "start": 18.5215,
      "duration": 0.0405,
      "velocity": 127,
      "chip": "ym2612"
    },
    {
      "channel": 2,
      "note": 60,
      "start": 18.5249,
      "duration": 0.0398,
      "velocity": 112,
      "chip": "ym2612"
    },
    {
      "channel": 0,
      "note": 34,
      "start": 18.5594,
      "duration": 0.0066,
      "velocity": 79,
      "chip": "ym2612"
    },
    {
      "channel": 1,
      "note": 56,
      "start": 18.5598,
      "duration": 0.1117,
      "velocity": 112,
      "chip": "ym2612"
    },
    {
      "channel": 3,
      "note": 51,
      "start": 18.5619,
      "duration": 0.1119,
      "velocity": 112,
      "chip": "ym2612"
    },
    {
      "channel": 4,
      "note": 46,
      "start": 18.5621,
      "duration": 0.0057,
      "velocity": 127,
      "chip": "ym2612"
    },
    {
      "channel": 2,
      "note": 56,
      "start": 18.5649,
      "duration": 0.1118,
      "velocity": 112,
      "chip": "ym2612"
    },
    {
      "channel": 0,
      "note": 34,
      "start": 18.6078,
      "duration": 0.0063,
      "velocity": 79,
      "chip": "ym2612"
    },
    {
      "channel": 4,
      "note": 46,
      "start": 18.6102,
      "duration": 0.007,
      "velocity": 127,
      "chip": "ym2612"
    },
    {
      "channel": 0,
      "note": 34,
      "start": 18.6145,
      "duration": 0.0087,
      "velocity": 79,
      "chip": "ym2612"
    },
    {
      "channel": 4,
      "note": 46,
      "start": 18.6174,
      "duration": 0.0081,
      "velocity": 127,
      "chip": "ym2612"
    },
    {
      "channel": 0,
      "note": 34,
      "start": 18.6281,
      "duration": 0.043,
      "velocity": 79,
      "chip": "ym2612"
    },
    {
      "channel": 4,
      "note": 46,
      "start": 18.6307,
      "duration": 0.0434,
      "velocity": 127,
      "chip": "ym2612"
    },
    {
      "channel": 0,
      "note": 34,
      "start": 18.6715,
      "duration": 0.0073,
      "velocity": 79,
      "chip": "ym2612"
    },
    {
      "channel": 1,
      "note": 56,
      "start": 18.6719,
      "duration": 0.0479,
      "velocity": 112,
      "chip": "ym2612"
    },
    {
      "channel": 3,
      "note": 51,
      "start": 18.6741,
      "duration": 0.0793,
      "velocity": 112,
      "chip": "ym2612"
    },
    {
      "channel": 4,
      "note": 46,
      "start": 18.6744,
      "duration": 0.0062,
      "velocity": 127,
      "chip": "ym2612"
    },
    {
      "channel": 2,
      "note": 56,
      "start": 18.677,
      "duration": 0.1595,
      "velocity": 112,
      "chip": "ym2612"
    },
    {
      "channel": 0,
      "note": 34,
      "start": 18.7197,
      "duration": 0.1498,
      "velocity": 79,
      "chip": "ym2612"
    },
    {
      "channel": 1,
      "note": 55,
      "start": 18.7201,
      "duration": 0.1599,
      "velocity": 112,
      "chip": "ym2612"
    },
    {
      "channel": 3,
      "note": 50,
      "start": 18.7537,
      "duration": 0.1295,
      "velocity": 112,
      "chip": "ym2612"
    },
    {
      "channel": 4,
      "note": 46,
      "start": 18.7541,
      "duration": 0.1205,
      "velocity": 127,
      "chip": "ym2612"
    },
    {
      "channel": 2,
      "note": 55,
      "start": 18.8369,
      "duration": 0.0487,
      "velocity": 112,
      "chip": "ym2612"
    },
    {
      "channel": 0,
      "note": 34,
      "start": 18.8699,
      "duration": 0.0099,
      "velocity": 79,
      "chip": "ym2612"
    },
    {
      "channel": 4,
      "note": 46,
      "start": 18.8748,
      "duration": 0.0086,
      "velocity": 127,
      "chip": "ym2612"
    },
    {
      "channel": 1,
      "note": 56,
      "start": 18.8803,
      "duration": 0.0139,
      "velocity": 112,
      "chip": "ym2612"
    },
    {
      "channel": 3,
      "note": 51,
      "start": 18.8834,
      "duration": 0.0139,
      "velocity": 112,
      "chip": "ym2612"
    },
    {
      "channel": 2,
      "note": 56,
      "start": 18.8858,
      "duration": 0.0146,
      "velocity": 112,
      "chip": "ym2612"
    },
    {
      "channel": 0,
      "note": 34,
      "start": 18.8877,
      "duration": 0.0061,
      "velocity": 79,
      "chip": "ym2612"
    },
    {
      "channel": 4,
      "note": 46,
      "start": 18.8901,
      "duration": 0.0075,
      "velocity": 127,
      "chip": "ym2612"
    },
    {
      "channel": 0,
      "note": 36,
      "start": 18.8941,
      "duration": 0.0076,
      "velocity": 79,
      "chip": "ym2612"
    },
    {
      "channel": 1,
      "note": 58,
      "start": 18.8946,
      "duration": 0.0071,
      "velocity": 112,
      "chip": "ym2612"
    },
    {
      "channel": 3,
      "note": 53,
      "start": 18.8976,
      "duration": 0.0056,
      "velocity": 112,
      "chip": "ym2612"
    },
    {
      "channel": 4,
      "note": 48,
      "start": 18.8979,
      "duration": 0.0056,
      "velocity": 127,
      "chip": "ym2612"
    },
    {
      "channel": 2,
      "note": 58,
      "start": 18.9006,
      "duration": 0.0087,
      "velocity": 112,
      "chip": "ym2612"
    },
    {
      "channel": 1,
      "note": 53,
      "start": 18.9019,
      "duration": 0.0577,
      "velocity": 112,
      "chip": "ym2612"
    },
    {
      "channel": 3,
      "note": 50,
      "start": 18.9034,
      "duration": 0.0582,
      "velocity": 112,
      "chip": "ym2612"
    },
    {
      "channel": 2,
      "note": 53,
      "start": 18.9096,
      "duration": 0.0549,
      "velocity": 112,
      "chip": "ym2612"
    },
    {
      "channel": 0,
      "note": 36,
      "start": 18.9595,
      "duration": 0.0061,
      "velocity": 79,
      "chip": "ym2612"
    },
    {
      "channel": 1,
      "note": 58,
      "start": 18.9599,
      "duration": 0.0061,
      "velocity": 112,
      "chip": "ym2612"
    },
    {
      "channel": 3,
      "note": 53,
      "start": 18.9618,
      "duration": 0.007,
      "velocity": 112,
      "chip": "ym2612"
    },
    {
      "channel": 4,
      "note": 48,
      "start": 18.962,
      "duration": 0.0071,
      "velocity": 127,
      "chip": "ym2612"
    },
    {
      "channel": 2,
      "note": 58,
      "start": 18.9647,
      "duration": 0.0086,
      "velocity": 112,
      "chip": "ym2612"
    },
    {
      "channel": 0,
      "note": 36,
      "start": 18.966,
      "duration": 0.0088,
      "velocity": 79,
      "chip": "ym2612"
    },
    {
      "channel": 1,
      "note": 55,
      "start": 18.9664,
      "duration": 0.2557,
      "velocity": 112,
      "chip": "ym2612"
    },
    {
      "channel": 3,
      "note": 52,
      "start": 18.969,
      "duration": 0.2569,
      "velocity": 112,
      "chip": "ym2612"
    },
    {
      "channel": 4,
      "note": 48,
      "start": 18.9693,
      "duration": 0.0079,
      "velocity": 127,
      "chip": "ym2612"
    },
    {
      "channel": 2,
      "note": 55,
      "start": 18.9736,
      "duration": 0.2546,
      "velocity": 112,
      "chip": "ym2612"
    },
    {
      "channel": 0,
      "note": 36,
      "start": 18.98,
      "duration": 0.0431,
      "velocity": 79,
      "chip": "ym2612"
    },
    {
      "channel": 4,
      "note": 48,
      "start": 18.9821,
      "duration": 0.0438,
      "velocity": 127,
      "chip": "ym2612"
    },
    {
      "channel": 0,
      "note": 36,
      "start": 19.0235,
      "duration": 0.0063,
      "velocity": 79,
      "chip": "ym2612"
    },
    {
      "channel": 4,
      "note": 48,
      "start": 19.0261,
      "duration": 0.0061,
      "velocity": 127,
      "chip": "ym2612"
    },
    {
      "channel": 0,
      "note": 36,
      "start": 19.0719,
      "duration": 0.1498,
      "velocity": 79,
      "chip": "ym2612"
    },
    {
      "channel": 4,
      "note": 48,
      "start": 19.1061,
      "duration": 0.12,
      "velocity": 127,
      "chip": "ym2612"
    },
    {
      "channel": 0,
      "note": 36,
      "start": 19.222,
      "duration": 0.007,
      "velocity": 79,
      "chip": "ym2612"
    },
    {
      "channel": 4,
      "note": 48,
      "start": 19.2263,
      "duration": 0.0043,
      "velocity": 127,
      "chip": "ym2612"
    },
    {
      "channel": 1,
      "note": 53,
      "start": 19.2294,
      "duration": 0.0045,
      "velocity": 112,
      "chip": "ym2612"
    },
    {
      "channel": 3,
      "note": 50,
      "start": 19.2305,
      "duration": 0.0054,
      "velocity": 112,
      "chip": "ym2612"
    },
    {
      "channel": 2,
      "note": 53,
      "start": 19.2328,
      "duration": 0.0068,
      "velocity": 112,
      "chip": "ym2612"
    },
    {
      "channel": 0,
      "note": 36,
      "start": 19.2338,
      "duration": 0.0248,
      "velocity": 79,
      "chip": "ym2612"
    },
    {
      "channel": 1,
      "note": 52,
      "start": 19.234,
      "duration": 0.025,
      "velocity": 112,
      "chip": "ym2612"
    },
    {
      "channel": 3,
      "note": 48,
      "start": 19.2362,
      "duration": 0.0253,
      "velocity": 112,
      "chip": "ym2612"
    },
    {
      "channel": 4,
      "note": 48,
      "start": 19.2365,
      "duration": 0.0253,
      "velocity": 127,
      "chip": "ym2612"
    },
    {
      "channel": 2,
      "note": 52,
      "start": 19.2399,
      "duration": 0.0255,
      "velocity": 112,
      "chip": "ym2612"
    },
    {
      "channel": 0,
      "note": 36,
      "start": 19.259,
      "duration": 0.0075,
      "velocity": 79,
      "chip": "ym2612"
    },
    {
      "channel": 1,
      "note": 50,
      "start": 19.2594,
      "duration": 0.1128,
      "velocity": 112,
      "chip": "ym2612"
    },
    {
      "channel": 3,
      "note": 46,
      "start": 19.2617,
      "duration": 0.1128,
      "velocity": 112,
      "chip": "ym2612"
    },
    {
      "channel": 4,
      "note": 48,
      "start": 19.2621,
      "duration": 0.0062,
      "velocity": 127,
      "chip": "ym2612"
    },
    {
      "channel": 2,
      "note": 50,
      "start": 19.2656,
      "duration": 0.1119,
      "velocity": 112,
      "chip": "ym2612"
    },
    {
      "channel": 0,
      "note": 36,
      "start": 19.3077,
      "duration": 0.0069,
      "velocity": 79,
      "chip": "ym2612"
    },
    {
      "channel": 4,
      "note": 48,
      "start": 19.311,
      "duration": 0.0069,
      "velocity": 127,
      "chip": "ym2612"
    },
    {
      "channel": 0,
      "note": 36,
      "start": 19.315,
      "duration": 0.0086,
      "velocity": 79,
      "chip": "ym2612"
    },
    {
      "channel": 4,
      "note": 48,
      "start": 19.3181,
      "duration": 0.0078,
      "velocity": 127,
      "chip": "ym2612"
    },
    {
      "channel": 0,
      "note": 36,
      "start": 19.3286,
      "duration": 0.0431,
      "velocity": 79,
      "chip": "ym2612"
    },
    {
      "channel": 4,
      "note": 48,
      "start": 19.3308,
      "duration": 0.044,
      "velocity": 127,
      "chip": "ym2612"
    },
    {
      "channel": 0,
      "note": 36,
      "start": 19.3721,
      "duration": 0.0067,
      "velocity": 79,
      "chip": "ym2612"
    },
    {
      "channel": 1,
      "note": 50,
      "start": 19.3725,
      "duration": 0.0481,
      "velocity": 112,
      "chip": "ym2612"
    },
    {
      "channel": 3,
      "note": 46,
      "start": 19.3747,
      "duration": 0.0481,
      "velocity": 112,
      "chip": "ym2612"
    },
    {
      "channel": 4,
      "note": 48,
      "start": 19.3751,
      "duration": 0.0054,
      "velocity": 127,
      "chip": "ym2612"
    },
    {
      "channel": 2,
      "note": 50,
      "start": 19.3778,
      "duration": 0.0483,
      "velocity": 112,
      "chip": "ym2612"
    },
    {
      "channel": 0,
      "note": 36,
      "start": 19.4205,
      "duration": 0.0066,
      "velocity": 79,
      "chip": "ym2612"
    },
    {
      "channel": 1,
      "note": 52,
      "start": 19.4209,
      "duration": 0.0159,
      "velocity": 112,
      "chip": "ym2612"
    },
    {
      "channel": 3,
      "note": 48,
      "start": 19.423,
      "duration": 0.0171,
      "velocity": 112,
      "chip": "ym2612"
    },
    {
      "channel": 4,
      "note": 48,
      "start": 19.4232,
      "duration": 0.0083,
      "velocity": 127,
      "chip": "ym2612"
    },
    {
      "channel": 2,
      "note": 52,
      "start": 19.4262,
      "duration": 0.0159,
      "velocity": 112,
      "chip": "ym2612"
    },
    {
      "channel": 0,
      "note": 36,
      "start": 19.4276,
      "duration": 0.0091,
      "velocity": 79,
      "chip": "ym2612"
    },
    {
      "channel": 4,
      "note": 48,
      "start": 19.4318,
      "duration": 0.0086,
      "velocity": 127,
      "chip": "ym2612"
    },
    {
      "channel": 1,
      "note": 53,
      "start": 19.4371,
      "duration": 0.0141,
      "velocity": 112,
      "chip": "ym2612"
    },
    {
      "channel": 3,
      "note": 50,
      "start": 19.4403,
      "duration": 0.0134,
      "velocity": 112,
      "chip": "ym2612"
    },
    {
      "channel": 2,
      "note": 53,
      "start": 19.4423,
      "duration": 0.0154,
      "velocity": 112,
      "chip": "ym2612"
    },
    {
      "channel": 0,
      "note": 36,
      "start": 19.4447,
      "duration": 0.0061,
      "velocity": 79,
      "chip": "ym2612"
    },
    {
      "channel": 4,
      "note": 48,
      "start": 19.4471,
      "duration": 0.0069,
      "velocity": 127,
      "chip": "ym2612"
    },
    {
      "channel": 0,
      "note": 34,
      "start": 19.4512,
      "duration": 0.0079,
      "velocity": 79,
      "chip": "ym2612"
    },
    {
      "channel": 1,
      "note": 60,
      "start": 19.4515,
      "duration": 0.3108,
      "velocity": 112,
      "chip": "ym2612"
    },
    {
      "channel": 3,
      "note": 53,
      "start": 19.4539,
      "duration": 0.3126,
      "velocity": 112,
      "chip": "ym2612"
    },
    {
      "channel": 4,
      "note": 46,
      "start": 19.4542,
      "duration": 0.0066,
      "velocity": 127,
      "chip": "ym2612"
    },
    {
      "channel": 2,
      "note": 60,
      "start": 19.458,
      "duration": 0.3112,
      "velocity": 112,
      "chip": "ym2612"
    },
    {
      "channel": 0,
      "note": 34,
      "start": 19.5002,
      "duration": 0.0071,
      "velocity": 79,
      "chip": "ym2612"
    },
    {
      "channel": 4,
      "note": 46,
      "start": 19.5029,
      "duration": 0.0077,
      "velocity": 127,
      "chip": "ym2612"
    },
    {
      "channel": 0,
      "note": 34,
      "start": 19.5077,
      "duration": 0.0078,
      "velocity": 79,
      "chip": "ym2612"
    },
    {
      "channel": 4,
      "note": 46,
      "start": 19.5109,
      "duration": 0.0077,
      "velocity": 127,
      "chip": "ym2612"
    },
    {
      "channel": 0,
      "note": 34,
      "start": 19.5212,
      "duration": 0.059,
      "velocity": 79,
      "chip": "ym2612"
    },
    {
      "channel": 4,
      "note": 46,
      "start": 19.5231,
      "duration": 0.06,
      "velocity": 127,
      "chip": "ym2612"
    },
    {
      "channel": 0,
      "note": 34,
      "start": 19.5806,
      "duration": 0.0065,
      "velocity": 79,
      "chip": "ym2612"
    },
    {
      "channel": 4,
      "note": 46,
      "start": 19.5834,
      "duration": 0.0055,
      "velocity": 127,
      "chip": "ym2612"
    },
    {
      "channel": 0,
      "note": 34,
      "start": 19.6288,
      "duration": 0.1331,
      "velocity": 79,
      "chip": "ym2612"
    },
    {
      "channel": 4,
      "note": 46,
      "start": 19.663,
      "duration": 0.1036,
      "velocity": 127,
      "chip": "ym2612"
    },
    {
      "channel": 0,
      "note": 34,
      "start": 19.7622,
      "duration": 0.0076,
      "velocity": 79,
      "chip": "ym2612"
    },
    {
      "channel": 4,
      "note": 46,
      "start": 19.7668,
      "duration": 0.0043,
      "velocity": 127,
      "chip": "ym2612"
    },
    {
      "channel": 1,
      "note": 55,
      "start": 19.7701,
      "duration": 0.004,
      "velocity": 112,
      "chip": "ym2612"
    },
    {
      "channel": 3,
      "note": 48,
      "start": 19.7711,
      "duration": 0.0061,
      "velocity": 112,
      "chip": "ym2612"
    },
    {
      "channel": 2,
      "note": 55,
      "start": 19.7729,
      "duration": 0.0095,
      "velocity": 112,
      "chip": "ym2612"
    },
    {
      "channel": 0,
      "note": 34,
      "start": 19.774,
      "duration": 0.0415,
      "velocity": 79,
      "chip": "ym2612"
    },
    {
      "channel": 1,
      "note": 60,
      "start": 19.7744,
      "duration": 0.0416,
      "velocity": 112,
      "chip": "ym2612"
    },
    {
      "channel": 3,
      "note": 53,
      "start": 19.7775,
      "duration": 0.041,
      "velocity": 112,
      "chip": "ym2612"
    },
    {
      "channel": 4,
      "note": 46,
      "start": 19.7777,
      "duration": 0.041,
      "velocity": 127,
      "chip": "ym2612"
    },
    {
      "channel": 2,
      "note": 60,
      "start": 19.7829,
      "duration": 0.0385,
      "velocity": 112,
      "chip": "ym2612"
    },
    {
      "channel": 0,
      "note": 34,
      "start": 19.8159,
      "duration": 0.0075,
      "velocity": 79,
      "chip": "ym2612"
    },
    {
      "channel": 1,
      "note": 67,
      "start": 19.8163,
      "duration": 0.1114,
      "velocity": 112,
      "chip": "ym2612"
    },
    {
      "channel": 3,
      "note": 60,
      "start": 19.8187,
      "duration": 0.112,
      "velocity": 112,
      "chip": "ym2612"
    },
    {
      "channel": 4,
      "note": 46,
      "start": 19.819,
      "duration": 0.0062,
      "velocity": 127,
      "chip": "ym2612"
    },
    {
      "channel": 2,
      "note": 67,
      "start": 19.8217,
      "duration": 0.1119,
      "velocity": 112,
      "chip": "ym2612"
    },
    {
      "channel": 0,
      "note": 34,
      "start": 19.8645,
      "duration": 0.0067,
      "velocity": 79,
      "chip": "ym2612"
    },
    {
      "channel": 4,
      "note": 46,
      "start": 19.867,
      "duration": 0.0072,
      "velocity": 127,
      "chip": "ym2612"
    },
    {
      "channel": 0,
      "note": 34,
      "start": 19.8715,
      "duration": 0.0078,
      "velocity": 79,
      "chip": "ym2612"
    },
    {
      "channel": 4,
      "note": 46,
      "start": 19.8745,
      "duration": 0.0072,
      "velocity": 127,
      "chip": "ym2612"
    },
    {
      "channel": 0,
      "note": 34,
      "start": 19.8848,
      "duration": 0.0425,
      "velocity": 79,
      "chip": "ym2612"
    },
    {
      "channel": 4,
      "note": 46,
      "start": 19.8868,
      "duration": 0.0442,
      "velocity": 127,
      "chip": "ym2612"
    },
    {
      "channel": 0,
      "note": 34,
      "start": 19.9277,
      "duration": 0.007,
      "velocity": 79,
      "chip": "ym2612"
    },
    {
      "channel": 1,
      "note": 65,
      "start": 19.928,
      "duration": 0.0641,
      "velocity": 112,
      "chip": "ym2612"
    },
    {
      "channel": 3,
      "note": 58,
      "start": 19.9309,
      "duration": 0.095,
      "velocity": 112,
      "chip": "ym2612"
    },
    {
      "channel": 4,
      "note": 46,
      "start": 19.9311,
      "duration": 0.0053,
      "velocity": 127,
      "chip": "ym2612"
    },
    {
      "channel": 2,
      "note": 65,
      "start": 19.9338,
      "duration": 0.1585,
      "velocity": 112,
      "chip": "ym2612"
    },
    {
      "channel": 0,
      "note": 34,
      "start": 19.9922,
      "duration": 0.1331,
      "velocity": 79,
      "chip": "ym2612"
    },
    {
      "channel": 1,
      "note": 64,
      "start": 19.9925,
      "duration": 0.1442,
      "velocity": 112,
      "chip": "ym2612"
    },
    {
      "channel": 3,
      "note": 57,
      "start": 20.0262,
      "duration": 0.1127,
      "velocity": 112,
      "chip": "ym2612"
    },
    {
      "channel": 4,
      "note": 46,
      "start": 20.0266,
      "duration": 0.1038,
      "velocity": 127,
      "chip": "ym2612"
    },
    {
      "channel": 2,
      "note": 64,
      "start": 20.0926,
      "duration": 0.0482,
      "velocity": 112,
      "chip": "ym2612"
    },
    {
      "channel": 0,
      "note": 34,
      "start": 20.1257,
      "duration": 0.0109,
      "velocity": 79,
      "chip": "ym2612"
    },
    {
      "channel": 4,
      "note": 46,
      "start": 20.1307,
      "duration": 0.0084,
      "velocity": 127,
      "chip": "ym2612"
    },
    {
      "channel": 1,
      "note": 62,
      "start": 20.137,
      "duration": 0.0479,
      "velocity": 112,
      "chip": "ym2612"
    },
    {
      "channel": 3,
      "note": 58,
      "start": 20.1391,
      "duration": 0.0482,
      "velocity": 112,
      "chip": "ym2612"
    },
    {
      "channel": 2,
      "note": 62,
      "start": 20.141,
      "duration": 0.0495,
      "velocity": 112,
      "chip": "ym2612"
    },
    {
      "channel": 0,
      "note": 34,
      "start": 20.1419,
      "duration": 0.0427,
      "velocity": 79,
      "chip": "ym2612"
    },
    {
      "channel": 4,
      "note": 46,
      "start": 20.1439,
      "duration": 0.0437,
      "velocity": 127,
      "chip": "ym2612"
    },
    {
      "channel": 0,
      "note": 36,
      "start": 20.1848,
      "duration": 0.0068,
      "velocity": 79,
      "chip": "ym2612"
    },
    {
      "channel": 1,
      "note": 65,
      "start": 20.1853,
      "duration": 0.0065,
      "velocity": 112,
      "chip": "ym2612"
    },
    {
      "channel": 3,
      "note": 58,
      "start": 20.1875,
      "duration": 0.0066,
      "velocity": 112,
      "chip": "ym2612"
    },
    {
      "channel": 4,
      "note": 48,
      "start": 20.1878,
      "duration": 0.0064,
      "velocity": 127,
      "chip": "ym2612"
    },
    {
      "channel": 2,
      "note": 65,
      "start": 20.1907,
      "duration": 0.0093,
      "velocity": 112,
      "chip": "ym2612"
    },
    {
      "channel": 1,
      "note": 58,
      "start": 20.192,
      "duration": 0.0418,
      "velocity": 112,
      "chip": "ym2612"
    },
    {
      "channel": 3,
      "note": 53,
      "start": 20.1942,
      "duration": 0.0417,
      "velocity": 112,
      "chip": "ym2612"
    },
    {
      "channel": 2,
      "note": 58,
      "start": 20.2003,
      "duration": 0.0387,
      "velocity": 112,
      "chip": "ym2612"
    },
    {
      "channel": 0,
      "note": 36,
      "start": 20.2337,
      "duration": 0.0072,
      "velocity": 79,
      "chip": "ym2612"
    },
    {
      "channel": 1,
      "note": 65,
      "start": 20.2341,
      "duration": 0.0073,
      "velocity": 112,
      "chip": "ym2612"
    },
    {
      "channel": 3,
      "note": 58,
      "start": 20.2361,
      "duration": 0.0079,
      "velocity": 112,
      "chip": "ym2612"
    },
    {
      "channel": 4,
      "note": 48,
      "start": 20.2364,
      "duration": 0.008,
      "velocity": 127,
      "chip": "ym2612"
    },
    {
      "channel": 2,
      "note": 65,
      "start": 20.2392,
      "duration": 0.0087,
      "velocity": 112,
      "chip": "ym2612"
    },
    {
      "channel": 0,
      "note": 36,
      "start": 20.2412,
      "duration": 0.0083,
      "velocity": 79,
      "chip": "ym2612"
    },
    {
      "channel": 1,
      "note": 64,
      "start": 20.2417,
      "duration": 0.2553,
      "velocity": 112,
      "chip": "ym2612"
    },
    {
      "channel": 3,
      "note": 60,
      "start": 20.2443,
      "duration": 0.2571,
      "velocity": 112,
      "chip": "ym2612"
    },
    {
      "channel": 4,
      "note": 48,
      "start": 20.2447,
      "duration": 0.0074,
      "velocity": 127,
      "chip": "ym2612"
    },
    {
      "channel": 2,
      "note": 64,
      "start": 20.2481,
      "duration": 0.2567,
      "velocity": 112,
      "chip": "ym2612"
    },
    {
      "channel": 0,
      "note": 36,
      "start": 20.2552,
      "duration": 0.0425,
      "velocity": 79,
      "chip": "ym2612"
    },
    {
      "channel": 4,
      "note": 48,
      "start": 20.2573,
      "duration": 0.0433,
      "velocity": 127,
      "chip": "ym2612"
    },
    {
      "channel": 0,
      "note": 36,
      "start": 20.2981,
      "duration": 0.0073,
      "velocity": 79,
      "chip": "ym2612"
    },
    {
      "channel": 4,
      "note": 48,
      "start": 20.3008,
      "duration": 0.0063,
      "velocity": 127,
      "chip": "ym2612"
    },
    {
      "channel": 0,
      "note": 36,
      "start": 20.3467,
      "duration": 0.1499,
      "velocity": 79,
      "chip": "ym2612"
    },
    {
      "channel": 4,
      "note": 48,
      "start": 20.3976,
      "duration": 0.1041,
      "velocity": 127,
      "chip": "ym2612"
    },
    {
      "channel": 0,
      "note": 36,
      "start": 20.4968,
      "duration": 0.0104,
      "velocity": 79,
      "chip": "ym2612"
    },
    {
      "channel": 1,
      "note": 55,
      "start": 20.4973,
      "duration": 0.01,
      "velocity": 112,
      "chip": "ym2612"
    },
    {
      "channel": 3,
      "note": 48,
      "start": 20.5017,
      "duration": 0.0079,
      "velocity": 112,
      "chip": "ym2612"
    },
    {
      "channel": 4,
      "note": 48,
      "start": 20.502,
      "duration": 0.008,
      "velocity": 127,
      "chip": "ym2612"
    },
    {
      "channel": 2,
      "note": 55,
      "start": 20.5052,
      "duration": 0.0069,
      "velocity": 112,
      "chip": "ym2612"
    },
    {
      "channel": 1,
      "note": 60,
      "start": 20.5076,
      "duration": 0.0057,
      "velocity": 112,
      "chip": "ym2612"
    },
    {
      "channel": 3,
      "note": 52,
      "start": 20.5098,
      "duration": 0.0058,
      "velocity": 112,
      "chip": "ym2612"
    },
    {
      "channel": 2,
      "note": 60,
      "start": 20.5123,
      "duration": 0.0083,
      "velocity": 112,
      "chip": "ym2612"
    },
    {
      "channel": 0,
      "note": 36,
      "start": 20.5133,
      "duration": 0.0403,
      "velocity": 79,
      "chip": "ym2612"
    },
    {
      "channel": 1,
      "note": 64,
      "start": 20.5136,
      "duration": 0.0404,
      "velocity": 112,
      "chip": "ym2612"
    },
    {
      "channel": 3,
      "note": 55,
      "start": 20.516,
      "duration": 0.0404,
      "velocity": 112,
      "chip": "ym2612"
    },
    {
      "channel": 4,
      "note": 48,
      "start": 20.5163,
      "duration": 0.0404,
      "velocity": 127,
      "chip": "ym2612"
    },
    {
      "channel": 2,
      "note": 64,
      "start": 20.521,
      "duration": 0.0387,
      "velocity": 112,
      "chip": "ym2612"
    },
    {
      "channel": 0,
      "note": 36,
      "start": 20.5539,
      "duration": 0.0069,
      "velocity": 79,
      "chip": "ym2612"
    },
    {
      "channel": 1,
      "note": 65,
      "start": 20.5543,
      "duration": 0.0066,
      "velocity": 112,
      "chip": "ym2612"
    },
    {
      "channel": 3,
      "note": 62,
      "start": 20.5566,
      "duration": 0.0059,
      "velocity": 112,
      "chip": "ym2612"
    },
    {
      "channel": 4,
      "note": 48,
      "start": 20.5569,
      "duration": 0.0059,
      "velocity": 127,
      "chip": "ym2612"
    },
    {
      "channel": 2,
      "note": 65,
      "start": 20.5599,
      "duration": 0.0094,
      "velocity": 112,
      "chip": "ym2612"
    },
    {
      "channel": 1,
      "note": 58,
      "start": 20.5612,
      "duration": 0.0418,
      "velocity": 112,
      "chip": "ym2612"
    },
    {
      "channel": 3,
      "note": 53,
      "start": 20.5628,
      "duration": 0.0424,
      "velocity": 112,
      "chip": "ym2612"
    },
    {
      "channel": 2,
      "note": 58,
      "start": 20.5696,
      "duration": 0.0388,
      "velocity": 112,
      "chip": "ym2612"
    },
    {
      "channel": 0,
      "note": 36,
      "start": 20.6029,
      "duration": 0.0068,
      "velocity": 79,
      "chip": "ym2612"
    },
    {
      "channel": 1,
      "note": 65,
      "start": 20.6033,
      "duration": 0.0068,
      "velocity": 112,
      "chip": "ym2612"
    },
    {
      "channel": 3,
      "note": 62,
      "start": 20.6055,
      "duration": 0.0082,
      "velocity": 112,
      "chip": "ym2612"
    },
    {
      "channel": 4,
      "note": 48,
      "start": 20.6059,
      "duration": 0.0082,
      "velocity": 127,
      "chip": "ym2612"
    },
    {
      "channel": 2,
      "note": 65,
      "start": 20.6086,
      "duration": 0.009,
      "velocity": 112,
      "chip": "ym2612"
    },
    {
      "channel": 0,
      "note": 36,
      "start": 20.6101,
      "duration": 0.009,
      "velocity": 79,
      "chip": "ym2612"
    },
    {
      "channel": 1,
      "note": 67,
      "start": 20.6105,
      "duration": 0.1192,
      "velocity": 112,
      "chip": "ym2612"
    },
    {
      "channel": 3,
      "note": 64,
      "start": 20.614,
      "duration": 0.1188,
      "velocity": 112,
      "chip": "ym2612"
    },
    {
      "channel": 4,
      "note": 48,
      "start": 20.6143,
      "duration": 0.0074,
      "velocity": 127,
      "chip": "ym2612"
    },
    {
      "channel": 2,
      "note": 67,
      "start": 20.618,
      "duration": 0.1173,
      "velocity": 112,
      "chip": "ym2612"
    },
    {
      "channel": 0,
      "note": 36,
      "start": 20.6247,
      "duration": 0.042,
      "velocity": 79,
      "chip": "ym2612"
    },
    {
      "channel": 4,
      "note": 48,
      "start": 20.6267,
      "duration": 0.0426,
      "velocity": 127,
      "chip": "ym2612"
    },
    {
      "channel": 0,
      "note": 48,
      "start": 20.6671,
      "duration": 0.0067,
      "velocity": 79,
      "chip": "ym2612"
    },
    {
      "channel": 4,
      "note": 60,
      "start": 20.6695,
      "duration": 0.0058,
      "velocity": 127,
      "chip": "ym2612"
    },
    {
      "channel": 0,
      "note": 36,
      "start": 20.7148,
      "duration": 0.0064,
      "velocity": 79,
      "chip": "ym2612"
    },
    {
      "channel": 4,
      "note": 48,
      "start": 20.7171,
      "duration": 0.0073,
      "velocity": 127,
      "chip": "ym2612"
    },
    {
      "channel": 0,
      "note": 36,
      "start": 20.7216,
      "duration": 0.0079,
      "velocity": 79,
      "chip": "ym2612"
    },
    {
      "channel": 4,
      "note": 48,
      "start": 20.7246,
      "duration": 0.0085,
      "velocity": 127,
      "chip": "ym2612"
    },
    {
      "channel": 1,
      "note": 65,
      "start": 20.7299,
      "duration": 0.0068,
      "velocity": 112,
      "chip": "ym2612"
    },
    {
      "channel": 3,
      "note": 62,
      "start": 20.7331,
      "duration": 0.006,
      "velocity": 112,
      "chip": "ym2612"
    },
    {
      "channel": 2,
      "note": 65,
      "start": 20.7355,
      "duration": 0.0068,
      "velocity": 112,
      "chip": "ym2612"
    },
    {
      "channel": 0,
      "note": 48,
      "start": 20.7367,
      "duration": 0.009,
      "velocity": 124,
      "chip": "ym2612"
    },
    {
      "channel": 1,
      "note": 67,
      "start": 20.7371,
      "duration": 0.0101,
      "velocity": 112,
      "chip": "ym2612"
    },
    {
      "channel": 3,
      "note": 64,
      "start": 20.7393,
      "duration": 0.0102,
      "velocity": 112,
      "chip": "ym2612"
    },
    {
      "channel": 4,
      "note": 60,
      "start": 20.7396,
      "duration": 0.0112,
      "velocity": 112,
      "chip": "ym2612"
    },
    {
      "channel": 2,
      "note": 67,
      "start": 20.7426,
      "duration": 0.0109,
      "velocity": 112,
      "chip": "ym2612"
    },
    {
      "channel": 4,
      "note": 57,
      "start": 20.7511,
      "duration": 0.0024,
      "velocity": 112,
      "chip": "ym2612"
    },
    {
      "channel": 4,
      "note": 58,
      "start": 20.7537,
      "duration": 0.0005,
      "velocity": 112,
      "chip": "ym2612"
    },
    {
      "channel": 4,
      "note": 57,
      "start": 20.7545,
      "duration": 0.0048,
      "velocity": 112,
      "chip": "ym2612"
    },
    {
      "channel": 4,
      "note": 58,
      "start": 20.7596,
      "duration": 0.0363,
      "velocity": 112,
      "chip": "ym2612"
    },
    {
      "channel": 0,
      "note": 51,
      "start": 20.7928,
      "duration": 0.0129,
      "velocity": 124,
      "chip": "ym2612"
    },
    {
      "channel": 1,
      "note": 71,
      "start": 20.7932,
      "duration": 0.013,
      "velocity": 112,
      "chip": "ym2612"
    },
    {
      "channel": 3,
      "note": 66,
      "start": 20.7958,
      "duration": 0.0125,
      "velocity": 112,
      "chip": "ym2612"
    },
    {
      "channel": 4,
      "note": 57,
      "start": 20.7961,
      "duration": 0.0023,
      "velocity": 112,
      "chip": "ym2612"
    },
    {
      "channel": 2,
      "note": 71,
      "start": 20.7982,
      "duration": 0.0131,
      "velocity": 112,
      "chip": "ym2612"
    },
    {
      "channel": 4,
      "note": 58,
      "start": 20.7986,
      "duration": 0.0027,
      "velocity": 112,
      "chip": "ym2612"
    },
    {
      "channel": 4,
      "note": 57,
      "start": 20.8015,
      "duration": 0.0032,
      "velocity": 112,
      "chip": "ym2612"
    },
    {
      "channel": 4,
      "note": 58,
      "start": 20.805,
      "duration": 0.0036,
      "velocity": 112,
      "chip": "ym2612"
    },
    {
      "channel": 0,
      "note": 50,
      "start": 20.8061,
      "duration": 0.0131,
      "velocity": 124,
      "chip": "ym2612"
    },
    {
      "channel": 1,
      "note": 70,
      "start": 20.8065,
      "duration": 0.0129,
      "velocity": 112,
      "chip": "ym2612"
    },
    {
      "channel": 3,
      "note": 65,
      "start": 20.8085,
      "duration": 0.0151,
      "velocity": 112,
      "chip": "ym2612"
    },
    {
      "channel": 4,
      "note": 57,
      "start": 20.8089,
      "duration": 0.0027,
      "velocity": 112,
      "chip": "ym2612"
    },
    {
      "channel": 2,
      "note": 70,
      "start": 20.8115,
      "duration": 0.0156,
      "velocity": 112,
      "chip": "ym2612"
    },
    {
      "channel": 4,
      "note": 58,
      "start": 20.8118,
      "duration": 0.0036,
      "velocity": 112,
      "chip": "ym2612"
    },
    {
      "channel": 4,
      "note": 57,
      "start": 20.8156,
      "duration": 0.0025,
      "velocity": 112,
      "chip": "ym2612"
    },
    {
      "channel": 4,
      "note": 58,
      "start": 20.8183,
      "duration": 0.0057,
      "velocity": 112,
      "chip": "ym2612"
    },
    {
      "channel": 0,
      "note": 49,
      "start": 20.8194,
      "duration": 0.0168,
      "velocity": 124,
      "chip": "ym2612"
    },
    {
      "channel": 1,
      "note": 69,
      "start": 20.8198,
      "duration": 0.0169,
      "velocity": 112,
      "chip": "ym2612"
    },
    {
      "channel": 3,
      "note": 64,
      "start": 20.824,
      "duration": 0.015,
      "velocity": 112,
      "chip": "ym2612"
    },
    {
      "channel": 4,
      "note": 57,
      "start": 20.8243,
      "duration": 0.0031,
      "velocity": 112,
      "chip": "ym2612"
    },
    {
      "channel": 2,
      "note": 69,
      "start": 20.8273,
      "duration": 0.0155,
      "velocity": 112,
      "chip": "ym2612"
    },
    {
      "channel": 4,
      "note": 58,
      "start": 20.8276,
      "duration": 0.004,
      "velocity": 112,
      "chip": "ym2612"
    },
    {
      "channel": 4,
      "note": 57,
      "start": 20.8319,
      "duration": 0.0031,
      "velocity": 112,
      "chip": "ym2612"
    },
    {
      "channel": 4,
      "note": 58,
      "start": 20.8352,
      "duration": 0.004,
      "velocity": 112,
      "chip": "ym2612"
    },
    {
      "channel": 0,
      "note": 60,
      "start": 20.8366,
      "duration": 0.0133,
      "velocity": 124,
      "chip": "ym2612"
    },
    {
      "channel": 1,
      "note": 68,
      "start": 20.837,
      "duration": 0.0133,
      "velocity": 112,
      "chip": "ym2612"
    },
    {
      "channel": 3,
      "note": 65,
      "start": 20.8392,
      "duration": 0.0134,
      "velocity": 112,
      "chip": "ym2612"
    },
    {
      "channel": 4,
      "note": 57,
      "start": 20.8394,
      "duration": 0.0037,
      "velocity": 112,
      "chip": "ym2612"
    },
    {
      "channel": 2,
      "note": 68,
      "start": 20.843,
      "duration": 0.0129,
      "velocity": 112,
      "chip": "ym2612"
    },
    {
      "channel": 4,
      "note": 58,
      "start": 20.8434,
      "duration": 0.0027,
      "velocity": 112,
      "chip": "ym2612"
    },
    {
      "channel": 4,
      "note": 57,
      "start": 20.8464,
      "duration": 0.0026,
      "velocity": 112,
      "chip": "ym2612"
    },
    {
      "channel": 4,
      "note": 58,
      "start": 20.8492,
      "duration": 0.0037,
      "velocity": 112,
      "chip": "ym2612"
    },
    {
      "channel": 0,
      "note": 56,
      "start": 20.8502,
      "duration": 0.0129,
      "velocity": 124,
      "chip": "ym2612"
    },
    {
      "channel": 1,
      "note": 67,
      "start": 20.8506,
      "duration": 0.0127,
      "velocity": 112,
      "chip": "ym2612"
    },
    {
      "channel": 3,
      "note": 62,
      "start": 20.8527,
      "duration": 0.014,
      "velocity": 112,
      "chip": "ym2612"
    },
    {
      "channel": 4,
      "note": 57,
      "start": 20.8529,
      "duration": 0.0034,
      "velocity": 112,
      "chip": "ym2612"
    },
    {
      "channel": 2,
      "note": 67,
      "start": 20.8561,
      "duration": 0.0121,
      "velocity": 112,
      "chip": "ym2612"
    },
    {
      "channel": 4,
      "note": 58,
      "start": 20.8566,
      "duration": 0.0026,
      "velocity": 112,
      "chip": "ym2612"
    },
    {
      "channel": 4,
      "note": 57,
      "start": 20.8595,
      "duration": 0.0026,
      "velocity": 112,
      "chip": "ym2612"
    },
    {
      "channel": 4,
      "note": 58,
      "start": 20.8623,
      "duration": 0.0045,
      "velocity": 112,
      "chip": "ym2612"
    },
    {
      "channel": 0,
      "note": 61,
      "start": 21.4108,
      "duration": 0.008,
      "velocity": 126,
      "chip": "ym2612"
    },
    {
      "channel": 3,
      "note": 61,
      "start": 21.4144,
      "duration": 0.0054,
      "velocity": 126,
      "chip": "ym2612"
    },
    {
      "channel": 1,
      "note": 71,
      "start": 21.4191,
      "duration": 78.2797,
      "velocity": 87,
      "chip": "ym2612"
    },
    {
      "channel": 4,
      "note": 71,
      "start": 21.42,
      "duration": 78.2788,
      "velocity": 106,
      "chip": "ym2612"
    },
    {
      "channel": 2,
      "note": 71,
      "start": 21.4249,
      "duration": 78.2739,
      "velocity": 85,
      "chip": "ym2612"
    }
  ]
}