{
  "track_name": "08 - Round 4",
  "duration_sec": 47.604,
  "sample_rate": 44100,
  "note_count": 734,
  "unique_pitches": 39,
  "pitch_range": 42,
  "avg_note_duration": 0.2221,
  "reconstruction_stats": {
    "notes_reconstructed": 734,
    "keyon_events": 734,
    "keyoff_events": 731,
    "orphan_keyons": 3,
    "unique_pitches": 39,
    "pitch_range": 42,
    "avg_duration_sec": 0.2221
  },
  "metadata": {
    "source": "M\\Mazin Saga\\08 - Round 4.vgz"
  },
  "notes": [
    {
      "channel": 1,
      "note": 57,
      "start": 0.0,
      "duration": 0.0543,
      "velocity": 83,
      "chip": "ym2612"
    },
    {
      "channel": 3,
      "note": 69,
      "start": 0.0072,
      "duration": 0.0259,
      "velocity": 105,
      "chip": "ym2612"
    },
    {
      "channel": 4,
      "note": 63,
      "start": 0.0107,
      "duration": 0.0232,
      "velocity": 105,
      "chip": "ym2612"
    },
    {
      "channel": 3,
      "note": 69,
      "start": 0.0337,
      "duration": 0.0214,
      "velocity": 105,
      "chip": "ym2612"
    },
    {
      "channel": 4,
      "note": 63,
      "start": 0.0346,
      "duration": 0.0213,
      "velocity": 105,
      "chip": "ym2612"
    },
    {
      "channel": 1,
      "note": 63,
      "start": 0.0549,
      "duration": 0.0445,
      "velocity": 83,
      "chip": "ym2612"
    },
    {
      "channel": 3,
      "note": 69,
      "start": 0.0557,
      "duration": 0.0223,
      "velocity": 105,
      "chip": "ym2612"
    },
    {
      "channel": 4,
      "note": 63,
      "start": 0.0564,
      "duration": 0.0223,
      "velocity": 105,
      "chip": "ym2612"
    },
    {
      "channel": 3,
      "note": 69,
      "start": 0.0785,
      "duration": 0.0214,
      "velocity": 105,
      "chip": "ym2612"
    },
    {
      "channel": 4,
      "note": 63,
      "start": 0.0793,
      "duration": 0.0216,
      "velocity": 105,
      "chip": "ym2612"
    },
    {
      "channel": 1,
      "note": 62,
      "start": 0.0999,
      "duration": 0.1007,
      "velocity": 83,
      "chip": "ym2612"
    },
    {
      "channel": 3,
      "note": 69,
      "start": 0.1007,
      "duration": 0.0544,
      "velocity": 105,
      "chip": "ym2612"
    },
    {
      "channel": 4,
      "note": 63,
      "start": 0.1015,
      "duration": 0.054,
      "velocity": 105,
      "chip": "ym2612"
    },
    {
      "channel": 1,
      "note": 63,
      "start": 0.2012,
      "duration": 0.0367,
      "velocity": 83,
      "chip": "ym2612"
    },
    {
      "channel": 1,
      "note": 60,
      "start": 0.2385,
      "duration": 0.0454,
      "velocity": 83,
      "chip": "ym2612"
    },
    {
      "channel": 3,
      "note": 72,
      "start": 0.2394,
      "duration": 0.0232,
      "velocity": 105,
      "chip": "ym2612"
    },
    {
      "channel": 4,
      "note": 70,
      "start": 0.2408,
      "duration": 0.0226,
      "velocity": 105,
      "chip": "ym2612"
    },
    {
      "channel": 3,
      "note": 72,
      "start": 0.2632,
      "duration": 0.0211,
      "velocity": 105,
      "chip": "ym2612"
    },
    {
      "channel": 4,
      "note": 70,
      "start": 0.2639,
      "duration": 0.0218,
      "velocity": 105,
      "chip": "ym2612"
    },
    {
      "channel": 3,
      "note": 72,
      "start": 0.2856,
      "duration": 0.0203,
      "velocity": 105,
      "chip": "ym2612"
    },
    {
      "channel": 4,
      "note": 70,
      "start": 0.2863,
      "duration": 0.0203,
      "velocity": 105,
      "chip": "ym2612"
    },
    {
      "channel": 3,
      "note": 69,
      "start": 0.3065,
      "duration": 0.0218,
      "velocity": 105,
      "chip": "ym2612"
    },
    {
      "channel": 4,
      "note": 63,
      "start": 0.3072,
      "duration": 0.0218,
      "velocity": 105,
      "chip": "ym2612"
    },
    {
      "channel": 3,
      "note": 69,
      "start": 0.3288,
      "duration": 0.0466,
      "velocity": 105,
      "chip": "ym2612"
    },
    {
      "channel": 4,
      "note": 63,
      "start": 0.3296,
      "duration": 0.0465,
      "velocity": 105,
      "chip": "ym2612"
    },
    {
      "channel": 3,
      "note": 69,
      "start": 0.376,
      "duration": 0.05,
      "velocity": 105,
      "chip": "ym2612"
    },
    {
      "channel": 4,
      "note": 63,
      "start": 0.3767,
      "duration": 0.05,
      "velocity": 105,
      "chip": "ym2612"
    },
    {
      "channel": 1,
      "note": 57,
      "start": 0.4257,
      "duration": 0.0478,
      "velocity": 83,
      "chip": "ym2612"
    },
    {
      "channel": 3,
      "note": 65,
      "start": 0.4266,
      "duration": 0.0213,
      "velocity": 105,
      "chip": "ym2612"
    },
    {
      "channel": 4,
      "note": 60,
      "start": 0.4272,
      "duration": 0.0214,
      "velocity": 105,
      "chip": "ym2612"
    },
    {
      "channel": 3,
      "note": 65,
      "start": 0.4485,
      "duration": 0.0264,
      "velocity": 105,
      "chip": "ym2612"
    },
    {
      "channel": 4,
      "note": 60,
      "start": 0.4492,
      "duration": 0.0265,
      "velocity": 105,
      "chip": "ym2612"
    },
    {
      "channel": 1,
      "note": 60,
      "start": 0.4741,
      "duration": 0.0459,
      "velocity": 83,
      "chip": "ym2612"
    },
    {
      "channel": 3,
      "note": 69,
      "start": 0.4754,
      "duration": 0.0221,
      "velocity": 105,
      "chip": "ym2612"
    },
    {
      "channel": 4,
      "note": 63,
      "start": 0.4762,
      "duration": 0.022,
      "velocity": 105,
      "chip": "ym2612"
    },
    {
      "channel": 3,
      "note": 69,
      "start": 0.4981,
      "duration": 0.0229,
      "velocity": 105,
      "chip": "ym2612"
    },
    {
      "channel": 4,
      "note": 63,
      "start": 0.4988,
      "duration": 0.0229,
      "velocity": 105,
      "chip": "ym2612"
    },
    {
      "channel": 1,
      "note": 57,
      "start": 0.5207,
      "duration": 0.0446,
      "velocity": 83,
      "chip": "ym2612"
    },
    {
      "channel": 3,
      "note": 69,
      "start": 0.5215,
      "duration": 0.0211,
      "velocity": 105,
      "chip": "ym2612"
    },
    {
      "channel": 4,
      "note": 63,
      "start": 0.5223,
      "duration": 0.0211,
      "velocity": 105,
      "chip": "ym2612"
    },
    {
      "channel": 3,
      "note": 69,
      "start": 0.5433,
      "duration": 0.0225,
      "velocity": 105,
      "chip": "ym2612"
    },
    {
      "channel": 4,
      "note": 63,
      "start": 0.544,
      "duration": 0.0226,
      "velocity": 105,
      "chip": "ym2612"
    },
    {
      "channel": 3,
      "note": 69,
      "start": 0.5663,
      "duration": 0.046,
      "velocity": 105,
      "chip": "ym2612"
    },
    {
      "channel": 4,
      "note": 63,
      "start": 0.5671,
      "duration": 0.0456,
      "velocity": 105,
      "chip": "ym2612"
    },
    {
      "channel": 1,
      "note": 57,
      "start": 0.6612,
      "duration": 0.037,
      "velocity": 83,
      "chip": "ym2612"
    },
    {
      "channel": 3,
      "note": 72,
      "start": 0.6992,
      "duration": 0.0209,
      "velocity": 105,
      "chip": "ym2612"
    },
    {
      "channel": 4,
      "note": 70,
      "start": 0.7,
      "duration": 0.0215,
      "velocity": 105,
      "chip": "ym2612"
    },
    {
      "channel": 3,
      "note": 72,
      "start": 0.7213,
      "duration": 0.0202,
      "velocity": 105,
      "chip": "ym2612"
    },
    {
      "channel": 4,
      "note": 70,
      "start": 0.7221,
      "duration": 0.0202,
      "velocity": 105,
      "chip": "ym2612"
    },
    {
      "channel": 1,
      "note": 60,
      "start": 0.7413,
      "duration": 0.1004,
      "velocity": 83,
      "chip": "ym2612"
    },
    {
      "channel": 3,
      "note": 72,
      "start": 0.7421,
      "duration": 0.0483,
      "velocity": 105,
      "chip": "ym2612"
    },
    {
      "channel": 4,
      "note": 70,
      "start": 0.7429,
      "duration": 0.0483,
      "velocity": 105,
      "chip": "ym2612"
    },
    {
      "channel": 3,
      "note": 69,
      "start": 0.791,
      "duration": 0.0516,
      "velocity": 105,
      "chip": "ym2612"
    },
    {
      "channel": 4,
      "note": 63,
      "start": 0.7917,
      "duration": 0.0515,
      "velocity": 105,
      "chip": "ym2612"
    },
    {
      "channel": 1,
      "note": 54,
      "start": 0.8423,
      "duration": 0.1053,
      "velocity": 83,
      "chip": "ym2612"
    },
    {
      "channel": 3,
      "note": 69,
      "start": 0.8431,
      "duration": 0.0497,
      "velocity": 105,
      "chip": "ym2612"
    },
    {
      "channel": 4,
      "note": 63,
      "start": 0.8438,
      "duration": 0.0497,
      "velocity": 105,
      "chip": "ym2612"
    },
    {
      "channel": 3,
      "note": 69,
      "start": 0.8934,
      "duration": 0.0546,
      "velocity": 105,
      "chip": "ym2612"
    },
    {
      "channel": 4,
      "note": 63,
      "start": 0.8941,
      "duration": 0.0546,
      "velocity": 105,
      "chip": "ym2612"
    },
    {
      "channel": 3,
      "note": 65,
      "start": 0.9485,
      "duration": 0.0214,
      "velocity": 105,
      "chip": "ym2612"
    },
    {
      "channel": 4,
      "note": 60,
      "start": 0.9493,
      "duration": 0.0215,
      "velocity": 105,
      "chip": "ym2612"
    },
    {
      "channel": 3,
      "note": 65,
      "start": 0.9706,
      "duration": 0.0232,
      "velocity": 105,
      "chip": "ym2612"
    },
    {
      "channel": 4,
      "note": 60,
      "start": 0.9713,
      "duration": 0.0234,
      "velocity": 105,
      "chip": "ym2612"
    },
    {
      "channel": 1,
      "note": 57,
      "start": 0.9932,
      "duration": 0.0457,
      "velocity": 83,
      "chip": "ym2612"
    },
    {
      "channel": 3,
      "note": 69,
      "start": 0.9944,
      "duration": 0.0236,
      "velocity": 105,
      "chip": "ym2612"
    },
    {
      "channel": 4,
      "note": 63,
      "start": 0.996,
      "duration": 0.0228,
      "velocity": 105,
      "chip": "ym2612"
    },
    {
      "channel": 3,
      "note": 69,
      "start": 1.0186,
      "duration": 0.0212,
      "velocity": 105,
      "chip": "ym2612"
    },
    {
      "channel": 4,
      "note": 63,
      "start": 1.0194,
      "duration": 0.0211,
      "velocity": 105,
      "chip": "ym2612"
    },
    {
      "channel": 1,
      "note": 63,
      "start": 1.0395,
      "duration": 0.0444,
      "velocity": 83,
      "chip": "ym2612"
    },
    {
      "channel": 3,
      "note": 69,
      "start": 1.0403,
      "duration": 0.0225,
      "velocity": 105,
      "chip": "ym2612"
    },
    {
      "channel": 4,
      "note": 63,
      "start": 1.0411,
      "duration": 0.0225,
      "velocity": 105,
      "chip": "ym2612"
    },
    {
      "channel": 3,
      "note": 69,
      "start": 1.0634,
      "duration": 0.0213,
      "velocity": 105,
      "chip": "ym2612"
    },
    {
      "channel": 4,
      "note": 63,
      "start": 1.0642,
      "duration": 0.0213,
      "velocity": 105,
      "chip": "ym2612"
    },
    {
      "channel": 1,
      "note": 62,
      "start": 1.0845,
      "duration": 0.098,
      "velocity": 83,
      "chip": "ym2612"
    },
    {
      "channel": 3,
      "note": 69,
      "start": 1.0853,
      "duration": 0.0523,
      "velocity": 105,
      "chip": "ym2612"
    },
    {
      "channel": 4,
      "note": 63,
      "start": 1.0861,
      "duration": 0.0519,
      "velocity": 105,
      "chip": "ym2612"
    },
    {
      "channel": 1,
      "note": 63,
      "start": 1.1832,
      "duration": 0.0376,
      "velocity": 83,
      "chip": "ym2612"
    },
    {
      "channel": 1,
      "note": 60,
      "start": 1.2213,
      "duration": 0.0461,
      "velocity": 83,
      "chip": "ym2612"
    },
    {
      "channel": 3,
      "note": 72,
      "start": 1.2228,
      "duration": 0.0224,
      "velocity": 105,
      "chip": "ym2612"
    },
    {
      "channel": 4,
      "note": 70,
      "start": 1.2236,
      "duration": 0.0224,
      "velocity": 105,
      "chip": "ym2612"
    },
    {
      "channel": 3,
      "note": 72,
      "start": 1.2459,
      "duration": 0.022,
      "velocity": 105,
      "chip": "ym2612"
    },
    {
      "channel": 4,
      "note": 70,
      "start": 1.2466,
      "duration": 0.022,
      "velocity": 105,
      "chip": "ym2612"
    },
    {
      "channel": 3,
      "note": 72,
      "start": 1.2684,
      "duration": 0.0198,
      "velocity": 105,
      "chip": "ym2612"
    },
    {
      "channel": 4,
      "note": 70,
      "start": 1.2691,
      "duration": 0.0197,
      "velocity": 105,
      "chip": "ym2612"
    },
    {
      "channel": 3,
      "note": 69,
      "start": 1.2887,
      "duration": 0.0218,
      "velocity": 105,
      "chip": "ym2612"
    },
    {
      "channel": 4,
      "note": 63,
      "start": 1.2894,
      "duration": 0.0218,
      "velocity": 105,
      "chip": "ym2612"
    },
    {
      "channel": 3,
      "note": 69,
      "start": 1.3111,
      "duration": 0.0494,
      "velocity": 105,
      "chip": "ym2612"
    },
    {
      "channel": 4,
      "note": 63,
      "start": 1.3118,
      "duration": 0.0495,
      "velocity": 105,
      "chip": "ym2612"
    },
    {
      "channel": 3,
      "note": 69,
      "start": 1.3611,
      "duration": 0.0487,
      "velocity": 105,
      "chip": "ym2612"
    },
    {
      "channel": 4,
      "note": 63,
      "start": 1.3619,
      "duration": 0.0487,
      "velocity": 105,
      "chip": "ym2612"
    },
    {
      "channel": 1,
      "note": 57,
      "start": 1.4096,
      "duration": 0.048,
      "velocity": 83,
      "chip": "ym2612"
    },
    {
      "channel": 3,
      "note": 65,
      "start": 1.4104,
      "duration": 0.0217,
      "velocity": 105,
      "chip": "ym2612"
    },
    {
      "channel": 4,
      "note": 60,
      "start": 1.4112,
      "duration": 0.0217,
      "velocity": 105,
      "chip": "ym2612"
    },
    {
      "channel": 3,
      "note": 65,
      "start": 1.4327,
      "duration": 0.0261,
      "velocity": 105,
      "chip": "ym2612"
    },
    {
      "channel": 4,
      "note": 60,
      "start": 1.4335,
      "duration": 0.0257,
      "velocity": 105,
      "chip": "ym2612"
    },
    {
      "channel": 1,
      "note": 60,
      "start": 1.4582,
      "duration": 0.039,
      "velocity": 83,
      "chip": "ym2612"
    },
    {
      "channel": 1,
      "note": 57,
      "start": 1.4977,
      "duration": 0.1006,
      "velocity": 83,
      "chip": "ym2612"
    },
    {
      "channel": 3,
      "note": 69,
      "start": 1.4985,
      "duration": 0.05,
      "velocity": 105,
      "chip": "ym2612"
    },
    {
      "channel": 4,
      "note": 63,
      "start": 1.4992,
      "duration": 0.0496,
      "velocity": 105,
      "chip": "ym2612"
    },
    {
      "channel": 1,
      "note": 51,
      "start": 1.5989,
      "duration": 0.0384,
      "velocity": 83,
      "chip": "ym2612"
    },
    {
      "channel": 1,
      "note": 53,
      "start": 1.6379,
      "duration": 0.1352,
      "velocity": 83,
      "chip": "ym2612"
    },
    {
      "channel": 3,
      "note": 65,
      "start": 1.6387,
      "duration": 0.0454,
      "velocity": 105,
      "chip": "ym2612"
    },
    {
      "channel": 4,
      "note": 59,
      "start": 1.6394,
      "duration": 0.0449,
      "velocity": 105,
      "chip": "ym2612"
    },
    {
      "channel": 1,
      "note": 54,
      "start": 1.7737,
      "duration": 0.1386,
      "velocity": 83,
      "chip": "ym2612"
    },
    {
      "channel": 3,
      "note": 66,
      "start": 1.7745,
      "duration": 0.0503,
      "velocity": 105,
      "chip": "ym2612"
    },
    {
      "channel": 4,
      "note": 60,
      "start": 1.7753,
      "duration": 0.0498,
      "velocity": 105,
      "chip": "ym2612"
    },
    {
      "channel": 1,
      "note": 56,
      "start": 1.9129,
      "duration": 0.1055,
      "velocity": 83,
      "chip": "ym2612"
    },
    {
      "channel": 3,
      "note": 68,
      "start": 1.9137,
      "duration": 0.0538,
      "velocity": 105,
      "chip": "ym2612"
    },
    {
      "channel": 4,
      "note": 63,
      "start": 1.9144,
      "duration": 0.0534,
      "velocity": 105,
      "chip": "ym2612"
    },
    {
      "channel": 1,
      "note": 57,
      "start": 2.019,
      "duration": 0.0453,
      "velocity": 83,
      "chip": "ym2612"
    },
    {
      "channel": 3,
      "note": 69,
      "start": 2.0209,
      "duration": 0.0227,
      "velocity": 105,
      "chip": "ym2612"
    },
    {
      "channel": 4,
      "note": 63,
      "start": 2.0218,
      "duration": 0.0226,
      "velocity": 105,
      "chip": "ym2612"
    },
    {
      "channel": 3,
      "note": 69,
      "start": 2.0442,
      "duration": 0.0209,
      "velocity": 105,
      "chip": "ym2612"
    },
    {
      "channel": 4,
      "note": 63,
      "start": 2.0449,
      "duration": 0.021,
      "velocity": 105,
      "chip": "ym2612"
    },
    {
      "channel": 1,
      "note": 63,
      "start": 2.0649,
      "duration": 0.0443,
      "velocity": 83,
      "chip": "ym2612"
    },
    {
      "channel": 3,
      "note": 69,
      "start": 2.0657,
      "duration": 0.0224,
      "velocity": 105,
      "chip": "ym2612"
    },
    {
      "channel": 4,
      "note": 63,
      "start": 2.0664,
      "duration": 0.0223,
      "velocity": 105,
      "chip": "ym2612"
    },
    {
      "channel": 3,
      "note": 69,
      "start": 2.0886,
      "duration": 0.0214,
      "velocity": 105,
      "chip": "ym2612"
    },
    {
      "channel": 4,
      "note": 63,
      "start": 2.0893,
      "duration": 0.0214,
      "velocity": 105,
      "chip": "ym2612"
    },
    {
      "channel": 1,
      "note": 62,
      "start": 2.1098,
      "duration": 0.1018,
      "velocity": 83,
      "chip": "ym2612"
    },
    {
      "channel": 3,
      "note": 69,
      "start": 2.1106,
      "duration": 0.0538,
      "velocity": 105,
      "chip": "ym2612"
    },
    {
      "channel": 4,
      "note": 63,
      "start": 2.1114,
      "duration": 0.0533,
      "velocity": 105,
      "chip": "ym2612"
    },
    {
      "channel": 1,
      "note": 63,
      "start": 2.2122,
      "duration": 0.0377,
      "velocity": 83,
      "chip": "ym2612"
    },
    {
      "channel": 1,
      "note": 60,
      "start": 2.2511,
      "duration": 0.046,
      "velocity": 83,
      "chip": "ym2612"
    },
    {
      "channel": 3,
      "note": 72,
      "start": 2.252,
      "duration": 0.0227,
      "velocity": 105,
      "chip": "ym2612"
    },
    {
      "channel": 4,
      "note": 70,
      "start": 2.2527,
      "duration": 0.0227,
      "velocity": 105,
      "chip": "ym2612"
    },
    {
      "channel": 3,
      "note": 72,
      "start": 2.2753,
      "duration": 0.0222,
      "velocity": 105,
      "chip": "ym2612"
    },
    {
      "channel": 4,
      "note": 70,
      "start": 2.276,
      "duration": 0.0223,
      "velocity": 105,
      "chip": "ym2612"
    },
    {
      "channel": 3,
      "note": 72,
      "start": 2.2981,
      "duration": 0.0198,
      "velocity": 105,
      "chip": "ym2612"
    },
    {
      "channel": 4,
      "note": 70,
      "start": 2.2988,
      "duration": 0.0198,
      "velocity": 105,
      "chip": "ym2612"
    },
    {
      "channel": 3,
      "note": 69,
      "start": 2.3185,
      "duration": 0.0221,
      "velocity": 105,
      "chip": "ym2612"
    },
    {
      "channel": 4,
      "note": 63,
      "start": 2.3192,
      "duration": 0.0222,
      "velocity": 105,
      "chip": "ym2612"
    },
    {
      "channel": 3,
      "note": 69,
      "start": 2.3412,
      "duration": 0.0446,
      "velocity": 105,
      "chip": "ym2612"
    },
    {
      "channel": 4,
      "note": 63,
      "start": 2.3419,
      "duration": 0.0446,
      "velocity": 105,
      "chip": "ym2612"
    },
    {
      "channel": 3,
      "note": 69,
      "start": 2.3864,
      "duration": 0.0518,
      "velocity": 105,
      "chip": "ym2612"
    },
    {
      "channel": 4,
      "note": 63,
      "start": 2.3871,
      "duration": 0.0519,
      "velocity": 105,
      "chip": "ym2612"
    },
    {
      "channel": 1,
      "note": 57,
      "start": 2.438,
      "duration": 0.0483,
      "velocity": 83,
      "chip": "ym2612"
    },
    {
      "channel": 3,
      "note": 65,
      "start": 2.4388,
      "duration": 0.022,
      "velocity": 105,
      "chip": "ym2612"
    },
    {
      "channel": 4,
      "note": 60,
      "start": 2.4396,
      "duration": 0.0219,
      "velocity": 105,
      "chip": "ym2612"
    },
    {
      "channel": 3,
      "note": 65,
      "start": 2.4613,
      "duration": 0.0263,
      "velocity": 105,
      "chip": "ym2612"
    },
    {
      "channel": 4,
      "note": 60,
      "start": 2.4621,
      "duration": 0.0263,
      "velocity": 105,
      "chip": "ym2612"
    },
    {
      "channel": 1,
      "note": 60,
      "start": 2.487,
      "duration": 0.0463,
      "velocity": 83,
      "chip": "ym2612"
    },
    {
      "channel": 3,
      "note": 69,
      "start": 2.4882,
      "duration": 0.0224,
      "velocity": 105,
      "chip": "ym2612"
    },
    {
      "channel": 4,
      "note": 63,
      "start": 2.489,
      "duration": 0.0224,
      "velocity": 105,
      "chip": "ym2612"
    },
    {
      "channel": 3,
      "note": 69,
      "start": 2.5113,
      "duration": 0.0228,
      "velocity": 105,
      "chip": "ym2612"
    },
    {
      "channel": 4,
      "note": 63,
      "start": 2.512,
      "duration": 0.0229,
      "velocity": 105,
      "chip": "ym2612"
    },
    {
      "channel": 1,
      "note": 57,
      "start": 2.5338,
      "duration": 0.0444,
      "velocity": 83,
      "chip": "ym2612"
    },
    {
      "channel": 3,
      "note": 69,
      "start": 2.5347,
      "duration": 0.0212,
      "velocity": 105,
      "chip": "ym2612"
    },
    {
      "channel": 4,
      "note": 63,
      "start": 2.5354,
      "duration": 0.0212,
      "velocity": 105,
      "chip": "ym2612"
    },
    {
      "channel": 3,
      "note": 69,
      "start": 2.5564,
      "duration": 0.0223,
      "velocity": 105,
      "chip": "ym2612"
    },
    {
      "channel": 4,
      "note": 63,
      "start": 2.5572,
      "duration": 0.0223,
      "velocity": 105,
      "chip": "ym2612"
    },
    {
      "channel": 3,
      "note": 69,
      "start": 2.5793,
      "duration": 0.0469,
      "velocity": 105,
      "chip": "ym2612"
    },
    {
      "channel": 4,
      "note": 63,
      "start": 2.58,
      "duration": 0.0464,
      "velocity": 105,
      "chip": "ym2612"
    },
    {
      "channel": 1,
      "note": 57,
      "start": 2.6769,
      "duration": 0.0367,
      "velocity": 83,
      "chip": "ym2612"
    },
    {
      "channel": 3,
      "note": 72,
      "start": 2.7146,
      "duration": 0.0214,
      "velocity": 105,
      "chip": "ym2612"
    },
    {
      "channel": 4,
      "note": 70,
      "start": 2.7153,
      "duration": 0.0214,
      "velocity": 105,
      "chip": "ym2612"
    },
    {
      "channel": 3,
      "note": 72,
      "start": 2.7365,
      "duration": 0.0202,
      "velocity": 105,
      "chip": "ym2612"
    },
    {
      "channel": 4,
      "note": 70,
      "start": 2.7373,
      "duration": 0.0201,
      "velocity": 105,
      "chip": "ym2612"
    },
    {
      "channel": 1,
      "note": 60,
      "start": 2.7565,
      "duration": 0.1054,
      "velocity": 83,
      "chip": "ym2612"
    },
    {
      "channel": 3,
      "note": 72,
      "start": 2.7573,
      "duration": 0.0502,
      "velocity": 105,
      "chip": "ym2612"
    },
    {
      "channel": 4,
      "note": 70,
      "start": 2.758,
      "duration": 0.0503,
      "velocity": 105,
      "chip": "ym2612"
    },
    {
      "channel": 3,
      "note": 69,
      "start": 2.8081,
      "duration": 0.0545,
      "velocity": 105,
      "chip": "ym2612"
    },
    {
      "channel": 4,
      "note": 63,
      "start": 2.8088,
      "duration": 0.0546,
      "velocity": 105,
      "chip": "ym2612"
    },
    {
      "channel": 1,
      "note": 54,
      "start": 2.8624,
      "duration": 0.1017,
      "velocity": 83,
      "chip": "ym2612"
    },
    {
      "channel": 3,
      "note": 69,
      "start": 2.8632,
      "duration": 0.0487,
      "velocity": 105,
      "chip": "ym2612"
    },
    {
      "channel": 4,
      "note": 63,
      "start": 2.864,
      "duration": 0.0487,
      "velocity": 105,
      "chip": "ym2612"
    },
    {
      "channel": 3,
      "note": 69,
      "start": 2.9125,
      "duration": 0.0521,
      "velocity": 105,
      "chip": "ym2612"
    },
    {
      "channel": 4,
      "note": 63,
      "start": 2.9133,
      "duration": 0.052,
      "velocity": 105,
      "chip": "ym2612"
    },
    {
      "channel": 3,
      "note": 65,
      "start": 2.9651,
      "duration": 0.0217,
      "velocity": 105,
      "chip": "ym2612"
    },
    {
      "channel": 4,
      "note": 60,
      "start": 2.9659,
      "duration": 0.0217,
      "velocity": 105,
      "chip": "ym2612"
    },
    {
      "channel": 3,
      "note": 65,
      "start": 2.9874,
      "duration": 0.0242,
      "velocity": 105,
      "chip": "ym2612"
    },
    {
      "channel": 4,
      "note": 60,
      "start": 2.9882,
      "duration": 0.0242,
      "velocity": 105,
      "chip": "ym2612"
    },
    {
      "channel": 1,
      "note": 57,
      "start": 3.0103,
      "duration": 0.0457,
      "velocity": 83,
      "chip": "ym2612"
    },
    {
      "channel": 3,
      "note": 69,
      "start": 3.0123,
      "duration": 0.0229,
      "velocity": 105,
      "chip": "ym2612"
    },
    {
      "channel": 4,
      "note": 63,
      "start": 3.0131,
      "duration": 0.0229,
      "velocity": 105,
      "chip": "ym2612"
    },
    {
      "channel": 3,
      "note": 69,
      "start": 3.0358,
      "duration": 0.0211,
      "velocity": 105,
      "chip": "ym2612"
    },
    {
      "channel": 4,
      "note": 63,
      "start": 3.0366,
      "duration": 0.0211,
      "velocity": 105,
      "chip": "ym2612"
    },
    {
      "channel": 1,
      "note": 63,
      "start": 3.0566,
      "duration": 0.0446,
      "velocity": 83,
      "chip": "ym2612"
    },
    {
      "channel": 3,
      "note": 69,
      "start": 3.0574,
      "duration": 0.0223,
      "velocity": 105,
      "chip": "ym2612"
    },
    {
      "channel": 4,
      "note": 63,
      "start": 3.0582,
      "duration": 0.0222,
      "velocity": 105,
      "chip": "ym2612"
    },
    {
      "channel": 3,
      "note": 69,
      "start": 3.0803,
      "duration": 0.0217,
      "velocity": 105,
      "chip": "ym2612"
    },
    {
      "channel": 4,
      "note": 63,
      "start": 3.081,
      "duration": 0.0217,
      "velocity": 105,
      "chip": "ym2612"
    },
    {
      "channel": 1,
      "note": 62,
      "start": 3.1018,
      "duration": 0.0989,
      "velocity": 83,
      "chip": "ym2612"
    },
    {
      "channel": 3,
      "note": 69,
      "start": 3.1026,
      "duration": 0.0537,
      "velocity": 105,
      "chip": "ym2612"
    },
    {
      "channel": 4,
      "note": 63,
      "start": 3.1033,
      "duration": 0.0533,
      "velocity": 105,
      "chip": "ym2612"
    },
    {
      "channel": 1,
      "note": 63,
      "start": 3.2019,
      "duration": 0.0373,
      "velocity": 83,
      "chip": "ym2612"
    },
    {
      "channel": 1,
      "note": 60,
      "start": 3.2398,
      "duration": 0.0459,
      "velocity": 83,
      "chip": "ym2612"
    },
    {
      "channel": 3,
      "note": 72,
      "start": 3.2407,
      "duration": 0.0223,
      "velocity": 105,
      "chip": "ym2612"
    },
    {
      "channel": 4,
      "note": 70,
      "start": 3.2415,
      "duration": 0.0224,
      "velocity": 105,
      "chip": "ym2612"
    },
    {
      "channel": 3,
      "note": 72,
      "start": 3.2636,
      "duration": 0.0224,
      "velocity": 105,
      "chip": "ym2612"
    },
    {
      "channel": 4,
      "note": 70,
      "start": 3.2644,
      "duration": 0.0224,
      "velocity": 105,
      "chip": "ym2612"
    },
    {
      "channel": 3,
      "note": 72,
      "start": 3.2867,
      "duration": 0.0193,
      "velocity": 105,
      "chip": "ym2612"
    },
    {
      "channel": 4,
      "note": 70,
      "start": 3.2875,
      "duration": 0.0192,
      "velocity": 105,
      "chip": "ym2612"
    },
    {
      "channel": 3,
      "note": 69,
      "start": 3.3066,
      "duration": 0.0219,
      "velocity": 105,
      "chip": "ym2612"
    },
    {
      "channel": 4,
      "note": 63,
      "start": 3.3073,
      "duration": 0.022,
      "velocity": 105,
      "chip": "ym2612"
    },
    {
      "channel": 3,
      "note": 69,
      "start": 3.329,
      "duration": 0.0493,
      "velocity": 105,
      "chip": "ym2612"
    },
    {
      "channel": 4,
      "note": 63,
      "start": 3.3298,
      "duration": 0.0493,
      "velocity": 105,
      "chip": "ym2612"
    },
    {
      "channel": 3,
      "note": 69,
      "start": 3.3789,
      "duration": 0.0512,
      "velocity": 105,
      "chip": "ym2612"
    },
    {
      "channel": 4,
      "note": 63,
      "start": 3.3796,
      "duration": 0.0512,
      "velocity": 105,
      "chip": "ym2612"
    },
    {
      "channel": 1,
      "note": 57,
      "start": 3.4298,
      "duration": 0.0457,
      "velocity": 83,
      "chip": "ym2612"
    },
    {
      "channel": 3,
      "note": 65,
      "start": 3.4307,
      "duration": 0.0218,
      "velocity": 105,
      "chip": "ym2612"
    },
    {
      "channel": 4,
      "note": 60,
      "start": 3.4314,
      "duration": 0.0218,
      "velocity": 105,
      "chip": "ym2612"
    },
    {
      "channel": 3,
      "note": 65,
      "start": 3.4531,
      "duration": 0.0237,
      "velocity": 105,
      "chip": "ym2612"
    },
    {
      "channel": 4,
      "note": 60,
      "start": 3.4538,
      "duration": 0.0233,
      "velocity": 105,
      "chip": "ym2612"
    },
    {
      "channel": 1,
      "note": 60,
      "start": 3.4761,
      "duration": 0.039,
      "velocity": 83,
      "chip": "ym2612"
    },
    {
      "channel": 1,
      "note": 57,
      "start": 3.5157,
      "duration": 0.0973,
      "velocity": 83,
      "chip": "ym2612"
    },
    {
      "channel": 3,
      "note": 69,
      "start": 3.5165,
      "duration": 0.0483,
      "velocity": 105,
      "chip": "ym2612"
    },
    {
      "channel": 4,
      "note": 63,
      "start": 3.5172,
      "duration": 0.0479,
      "velocity": 105,
      "chip": "ym2612"
    },
    {
      "channel": 1,
      "note": 51,
      "start": 3.6136,
      "duration": 0.0383,
      "velocity": 83,
      "chip": "ym2612"
    },
    {
      "channel": 1,
      "note": 53,
      "start": 3.6525,
      "duration": 0.1379,
      "velocity": 83,
      "chip": "ym2612"
    },
    {
      "channel": 3,
      "note": 65,
      "start": 3.6533,
      "duration": 0.0482,
      "velocity": 105,
      "chip": "ym2612"
    },
    {
      "channel": 4,
      "note": 59,
      "start": 3.654,
      "duration": 0.0478,
      "velocity": 105,
      "chip": "ym2612"
    },
    {
      "channel": 1,
      "note": 54,
      "start": 3.791,
      "duration": 0.1471,
      "velocity": 83,
      "chip": "ym2612"
    },
    {
      "channel": 3,
      "note": 66,
      "start": 3.7917,
      "duration": 0.0486,
      "velocity": 105,
      "chip": "ym2612"
    },
    {
      "channel": 4,
      "note": 60,
      "start": 3.7925,
      "duration": 0.0482,
      "velocity": 105,
      "chip": "ym2612"
    },
    {
      "channel": 0,
      "note": 81,
      "start": 3.8924,
      "duration": 0.0309,
      "velocity": 96,
      "chip": "ym2612"
    },
    {
      "channel": 2,
      "note": 69,
      "start": 3.8935,
      "duration": 0.0309,
      "velocity": 101,
      "chip": "ym2612"
    },
    {
      "channel": 0,
      "note": 84,
      "start": 3.9239,
      "duration": 0.0501,
      "velocity": 96,
      "chip": "ym2612"
    },
    {
      "channel": 2,
      "note": 72,
      "start": 3.925,
      "duration": 0.0501,
      "velocity": 101,
      "chip": "ym2612"
    },
    {
      "channel": 1,
      "note": 56,
      "start": 3.9387,
      "duration": 0.1044,
      "velocity": 83,
      "chip": "ym2612"
    },
    {
      "channel": 3,
      "note": 68,
      "start": 3.9398,
      "duration": 0.0529,
      "velocity": 105,
      "chip": "ym2612"
    },
    {
      "channel": 4,
      "note": 63,
      "start": 3.9405,
      "duration": 0.0525,
      "velocity": 105,
      "chip": "ym2612"
    },
    {
      "channel": 0,
      "note": 83,
      "start": 3.9747,
      "duration": 0.0675,
      "velocity": 96,
      "chip": "ym2612"
    },
    {
      "channel": 2,
      "note": 71,
      "start": 3.9758,
      "duration": 0.068,
      "velocity": 101,
      "chip": "ym2612"
    },
    {
      "channel": 0,
      "note": 87,
      "start": 4.0429,
      "duration": 0.4585,
      "velocity": 96,
      "chip": "ym2612"
    },
    {
      "channel": 1,
      "note": 57,
      "start": 4.0437,
      "duration": 0.0519,
      "velocity": 83,
      "chip": "ym2612"
    },
    {
      "channel": 2,
      "note": 75,
      "start": 4.0445,
      "duration": 0.4585,
      "velocity": 101,
      "chip": "ym2612"
    },
    {
      "channel": 3,
      "note": 69,
      "start": 4.0453,
      "duration": 0.0262,
      "velocity": 105,
      "chip": "ym2612"
    },
    {
      "channel": 4,
      "note": 63,
      "start": 4.0468,
      "duration": 0.0255,
      "velocity": 105,
      "chip": "ym2612"
    },
    {
      "channel": 3,
      "note": 69,
      "start": 4.0721,
      "duration": 0.0246,
      "velocity": 105,
      "chip": "ym2612"
    },
    {
      "channel": 4,
      "note": 63,
      "start": 4.0729,
      "duration": 0.0245,
      "velocity": 105,
      "chip": "ym2612"
    },
    {
      "channel": 1,
      "note": 63,
      "start": 4.0962,
      "duration": 0.0516,
      "velocity": 83,
      "chip": "ym2612"
    },
    {
      "channel": 3,
      "note": 69,
      "start": 4.0973,
      "duration": 0.0252,
      "velocity": 105,
      "chip": "ym2612"
    },
    {
      "channel": 4,
      "note": 63,
      "start": 4.0987,
      "duration": 0.0246,
      "velocity": 105,
      "chip": "ym2612"
    },
    {
      "channel": 3,
      "note": 69,
      "start": 4.123,
      "duration": 0.0258,
      "velocity": 105,
      "chip": "ym2612"
    },
    {
      "channel": 4,
      "note": 63,
      "start": 4.1238,
      "duration": 0.0265,
      "velocity": 105,
      "chip": "ym2612"
    },
    {
      "channel": 1,
      "note": 62,
      "start": 4.1483,
      "duration": 0.1038,
      "velocity": 83,
      "chip": "ym2612"
    },
    {
      "channel": 3,
      "note": 69,
      "start": 4.1501,
      "duration": 0.0534,
      "velocity": 105,
      "chip": "ym2612"
    },
    {
      "channel": 4,
      "note": 63,
      "start": 4.1509,
      "duration": 0.0529,
      "velocity": 105,
      "chip": "ym2612"
    },
    {
      "channel": 1,
      "note": 63,
      "start": 4.2527,
      "duration": 0.0431,
      "velocity": 83,
      "chip": "ym2612"
    },
    {
      "channel": 1,
      "note": 60,
      "start": 4.2964,
      "duration": 0.0515,
      "velocity": 83,
      "chip": "ym2612"
    },
    {
      "channel": 3,
      "note": 72,
      "start": 4.2976,
      "duration": 0.0253,
      "velocity": 105,
      "chip": "ym2612"
    },
    {
      "channel": 4,
      "note": 70,
      "start": 4.2983,
      "duration": 0.0253,
      "velocity": 105,
      "chip": "ym2612"
    },
    {
      "channel": 3,
      "note": 72,
      "start": 4.3234,
      "duration": 0.0251,
      "velocity": 105,
      "chip": "ym2612"
    },
    {
      "channel": 4,
      "note": 70,
      "start": 4.3242,
      "duration": 0.0251,
      "velocity": 105,
      "chip": "ym2612"
    },
    {
      "channel": 3,
      "note": 72,
      "start": 4.3492,
      "duration": 0.0226,
      "velocity": 105,
      "chip": "ym2612"
    },
    {
      "channel": 4,
      "note": 70,
      "start": 4.3499,
      "duration": 0.0226,
      "velocity": 105,
      "chip": "ym2612"
    },
    {
      "channel": 3,
      "note": 69,
      "start": 4.3724,
      "duration": 0.0248,
      "velocity": 105,
      "chip": "ym2612"
    },
    {
      "channel": 4,
      "note": 63,
      "start": 4.3731,
      "duration": 0.0249,
      "velocity": 105,
      "chip": "ym2612"
    },
    {
      "channel": 3,
      "note": 69,
      "start": 4.3978,
      "duration": 0.0496,
      "velocity": 105,
      "chip": "ym2612"
    },
    {
      "channel": 4,
      "note": 63,
      "start": 4.3986,
      "duration": 0.0496,
      "velocity": 105,
      "chip": "ym2612"
    },
    {
      "channel": 3,
      "note": 69,
      "start": 4.448,
      "duration": 0.0556,
      "velocity": 105,
      "chip": "ym2612"
    },
    {
      "channel": 4,
      "note": 63,
      "start": 4.4487,
      "duration": 0.0557,
      "velocity": 105,
      "chip": "ym2612"
    },
    {
      "channel": 0,
      "note": 87,
      "start": 4.502,
      "duration": 0.0521,
      "velocity": 96,
      "chip": "ym2612"
    },
    {
      "channel": 1,
      "note": 57,
      "start": 4.5028,
      "duration": 0.0521,
      "velocity": 83,
      "chip": "ym2612"
    },
    {
      "channel": 2,
      "note": 75,
      "start": 4.5035,
      "duration": 0.0522,
      "velocity": 101,
      "chip": "ym2612"
    },
    {
      "channel": 3,
      "note": 65,
      "start": 4.5043,
      "duration": 0.0247,
      "velocity": 105,
      "chip": "ym2612"
    },
    {
      "channel": 4,
      "note": 60,
      "start": 4.505,
      "duration": 0.0248,
      "velocity": 105,
      "chip": "ym2612"
    },
    {
      "channel": 3,
      "note": 65,
      "start": 4.5296,
      "duration": 0.0269,
      "velocity": 105,
      "chip": "ym2612"
    },
    {
      "channel": 4,
      "note": 60,
      "start": 4.5304,
      "duration": 0.027,
      "velocity": 105,
      "chip": "ym2612"
    },
    {
      "channel": 0,
      "note": 84,
      "start": 4.5548,
      "duration": 0.4075,
      "velocity": 96,
      "chip": "ym2612"
    },
    {
      "channel": 1,
      "note": 60,
      "start": 4.5555,
      "duration": 0.0515,
      "velocity": 83,
      "chip": "ym2612"
    },
    {
      "channel": 2,
      "note": 72,
      "start": 4.5563,
      "duration": 0.4075,
      "velocity": 101,
      "chip": "ym2612"
    },
    {
      "channel": 3,
      "note": 69,
      "start": 4.5571,
      "duration": 0.0252,
      "velocity": 105,
      "chip": "ym2612"
    },
    {
      "channel": 4,
      "note": 63,
      "start": 4.5579,
      "duration": 0.0251,
      "velocity": 105,
      "chip": "ym2612"
    },
    {
      "channel": 3,
      "note": 69,
      "start": 4.5829,
      "duration": 0.0252,
      "velocity": 105,
      "chip": "ym2612"
    },
    {
      "channel": 4,
      "note": 63,
      "start": 4.5836,
      "duration": 0.0252,
      "velocity": 105,
      "chip": "ym2612"
    },
    {
      "channel": 1,
      "note": 57,
      "start": 4.6076,
      "duration": 0.0517,
      "velocity": 83,
      "chip": "ym2612"
    },
    {
      "channel": 3,
      "note": 69,
      "start": 4.6087,
      "duration": 0.0246,
      "velocity": 105,
      "chip": "ym2612"
    },
    {
      "channel": 4,
      "note": 63,
      "start": 4.6094,
      "duration": 0.0254,
      "velocity": 105,
      "chip": "ym2612"
    },
    {
      "channel": 3,
      "note": 69,
      "start": 4.6339,
      "duration": 0.0261,
      "velocity": 105,
      "chip": "ym2612"
    },
    {
      "channel": 4,
      "note": 63,
      "start": 4.6353,
      "duration": 0.0254,
      "velocity": 105,
      "chip": "ym2612"
    },
    {
      "channel": 3,
      "note": 69,
      "start": 4.6605,
      "duration": 0.0527,
      "velocity": 105,
      "chip": "ym2612"
    },
    {
      "channel": 4,
      "note": 63,
      "start": 4.6613,
      "duration": 0.0524,
      "velocity": 105,
      "chip": "ym2612"
    },
    {
      "channel": 1,
      "note": 57,
      "start": 4.7674,
      "duration": 0.0426,
      "velocity": 83,
      "chip": "ym2612"
    },
    {
      "channel": 3,
      "note": 72,
      "start": 4.8112,
      "duration": 0.025,
      "velocity": 105,
      "chip": "ym2612"
    },
    {
      "channel": 4,
      "note": 70,
      "start": 4.812,
      "duration": 0.025,
      "velocity": 105,
      "chip": "ym2612"
    },
    {
      "channel": 3,
      "note": 72,
      "start": 4.8368,
      "duration": 0.023,
      "velocity": 105,
      "chip": "ym2612"
    },
    {
      "channel": 4,
      "note": 70,
      "start": 4.8376,
      "duration": 0.023,
      "velocity": 105,
      "chip": "ym2612"
    },
    {
      "channel": 1,
      "note": 60,
      "start": 4.8593,
      "duration": 0.1037,
      "velocity": 83,
      "chip": "ym2612"
    },
    {
      "channel": 3,
      "note": 72,
      "start": 4.8604,
      "duration": 0.0532,
      "velocity": 105,
      "chip": "ym2612"
    },
    {
      "channel": 4,
      "note": 70,
      "start": 4.8612,
      "duration": 0.0531,
      "velocity": 105,
      "chip": "ym2612"
    },
    {
      "channel": 3,
      "note": 69,
      "start": 4.9142,
      "duration": 0.0503,
      "velocity": 105,
      "chip": "ym2612"
    },
    {
      "channel": 4,
      "note": 63,
      "start": 4.9149,
      "duration": 0.0503,
      "velocity": 105,
      "chip": "ym2612"
    },
    {
      "channel": 0,
      "note": 81,
      "start": 4.9628,
      "duration": 0.0697,
      "velocity": 96,
      "chip": "ym2612"
    },
    {
      "channel": 1,
      "note": 54,
      "start": 4.9636,
      "duration": 0.1041,
      "velocity": 83,
      "chip": "ym2612"
    },
    {
      "channel": 2,
      "note": 69,
      "start": 4.9643,
      "duration": 0.0693,
      "velocity": 101,
      "chip": "ym2612"
    },
    {
      "channel": 3,
      "note": 69,
      "start": 4.9651,
      "duration": 0.0514,
      "velocity": 105,
      "chip": "ym2612"
    },
    {
      "channel": 4,
      "note": 63,
      "start": 4.9658,
      "duration": 0.0514,
      "velocity": 105,
      "chip": "ym2612"
    },
    {
      "channel": 3,
      "note": 69,
      "start": 5.0171,
      "duration": 0.0512,
      "velocity": 105,
      "chip": "ym2612"
    },
    {
      "channel": 4,
      "note": 63,
      "start": 5.0178,
      "duration": 0.0513,
      "velocity": 105,
      "chip": "ym2612"
    },
    {
      "channel": 0,
      "note": 84,
      "start": 5.0331,
      "duration": 0.0516,
      "velocity": 96,
      "chip": "ym2612"
    },
    {
      "channel": 2,
      "note": 72,
      "start": 5.0342,
      "duration": 0.0513,
      "velocity": 101,
      "chip": "ym2612"
    },
    {
      "channel": 3,
      "note": 65,
      "start": 5.0689,
      "duration": 0.0253,
      "velocity": 105,
      "chip": "ym2612"
    },
    {
      "channel": 4,
      "note": 60,
      "start": 5.0696,
      "duration": 0.0253,
      "velocity": 105,
      "chip": "ym2612"
    },
    {
      "channel": 0,
      "note": 83,
      "start": 5.0853,
      "duration": 0.032,
      "velocity": 96,
      "chip": "ym2612"
    },
    {
      "channel": 2,
      "note": 71,
      "start": 5.0861,
      "duration": 0.0328,
      "velocity": 101,
      "chip": "ym2612"
    },
    {
      "channel": 3,
      "note": 65,
      "start": 5.0947,
      "duration": 0.025,
      "velocity": 105,
      "chip": "ym2612"
    },
    {
      "channel": 4,
      "note": 60,
      "start": 5.0955,
      "duration": 0.0258,
      "velocity": 105,
      "chip": "ym2612"
    },
    {
      "channel": 0,
      "note": 87,
      "start": 5.1179,
      "duration": 0.4494,
      "velocity": 96,
      "chip": "ym2612"
    },
    {
      "channel": 1,
      "note": 57,
      "start": 5.1186,
      "duration": 0.0523,
      "velocity": 83,
      "chip": "ym2612"
    },
    {
      "channel": 2,
      "note": 75,
      "start": 5.1195,
      "duration": 0.4493,
      "velocity": 101,
      "chip": "ym2612"
    },
    {
      "channel": 3,
      "note": 69,
      "start": 5.121,
      "duration": 0.0258,
      "velocity": 105,
      "chip": "ym2612"
    },
    {
      "channel": 4,
      "note": 63,
      "start": 5.1218,
      "duration": 0.0257,
      "velocity": 105,
      "chip": "ym2612"
    },
    {
      "channel": 3,
      "note": 69,
      "start": 5.1474,
      "duration": 0.0247,
      "velocity": 105,
      "chip": "ym2612"
    },
    {
      "channel": 4,
      "note": 63,
      "start": 5.1481,
      "duration": 0.0254,
      "velocity": 105,
      "chip": "ym2612"
    },
    {
      "channel": 1,
      "note": 63,
      "start": 5.1716,
      "duration": 0.052,
      "velocity": 83,
      "chip": "ym2612"
    },
    {
      "channel": 3,
      "note": 69,
      "start": 5.1733,
      "duration": 0.0251,
      "velocity": 105,
      "chip": "ym2612"
    },
    {
      "channel": 4,
      "note": 63,
      "start": 5.1741,
      "duration": 0.0251,
      "velocity": 105,
      "chip": "ym2612"
    },
    {
      "channel": 3,
      "note": 69,
      "start": 5.199,
      "duration": 0.0263,
      "velocity": 105,
      "chip": "ym2612"
    },
    {
      "channel": 4,
      "note": 63,
      "start": 5.1998,
      "duration": 0.0263,
      "velocity": 105,
      "chip": "ym2612"
    },
    {
      "channel": 1,
      "note": 62,
      "start": 5.2248,
      "duration": 0.0981,
      "velocity": 83,
      "chip": "ym2612"
    },
    {
      "channel": 3,
      "note": 69,
      "start": 5.2259,
      "duration": 0.0502,
      "velocity": 105,
      "chip": "ym2612"
    },
    {
      "channel": 4,
      "note": 63,
      "start": 5.2267,
      "duration": 0.0497,
      "velocity": 105,
      "chip": "ym2612"
    },
    {
      "channel": 1,
      "note": 63,
      "start": 5.3235,
      "duration": 0.0434,
      "velocity": 83,
      "chip": "ym2612"
    },
    {
      "channel": 1,
      "note": 60,
      "start": 5.3675,
      "duration": 0.052,
      "velocity": 83,
      "chip": "ym2612"
    },
    {
      "channel": 3,
      "note": 72,
      "start": 5.3686,
      "duration": 0.0251,
      "velocity": 105,
      "chip": "ym2612"
    },
    {
      "channel": 4,
      "note": 70,
      "start": 5.3694,
      "duration": 0.0251,
      "velocity": 105,
      "chip": "ym2612"
    },
    {
      "channel": 3,
      "note": 72,
      "start": 5.3943,
      "duration": 0.0257,
      "velocity": 105,
      "chip": "ym2612"
    },
    {
      "channel": 4,
      "note": 70,
      "start": 5.3951,
      "duration": 0.0258,
      "velocity": 105,
      "chip": "ym2612"
    },
    {
      "channel": 3,
      "note": 72,
      "start": 5.4207,
      "duration": 0.0227,
      "velocity": 105,
      "chip": "ym2612"
    },
    {
      "channel": 4,
      "note": 70,
      "start": 5.4215,
      "duration": 0.0227,
      "velocity": 105,
      "chip": "ym2612"
    },
    {
      "channel": 3,
      "note": 69,
      "start": 5.444,
      "duration": 0.0248,
      "velocity": 105,
      "chip": "ym2612"
    },
    {
      "channel": 4,
      "note": 63,
      "start": 5.4448,
      "duration": 0.0249,
      "velocity": 105,
      "chip": "ym2612"
    },
    {
      "channel": 3,
      "note": 69,
      "start": 5.4694,
      "duration": 0.0495,
      "velocity": 105,
      "chip": "ym2612"
    },
    {
      "channel": 4,
      "note": 63,
      "start": 5.4702,
      "duration": 0.0495,
      "velocity": 105,
      "chip": "ym2612"
    },
    {
      "channel": 3,
      "note": 69,
      "start": 5.5196,
      "duration": 0.0499,
      "velocity": 105,
      "chip": "ym2612"
    },
    {
      "channel": 4,
      "note": 63,
      "start": 5.5203,
      "duration": 0.0499,
      "velocity": 105,
      "chip": "ym2612"
    },
    {
      "channel": 0,
      "note": 87,
      "start": 5.5679,
      "duration": 0.0518,
      "velocity": 96,
      "chip": "ym2612"
    },
    {
      "channel": 1,
      "note": 57,
      "start": 5.5686,
      "duration": 0.0518,
      "velocity": 83,
      "chip": "ym2612"
    },
    {
      "channel": 2,
      "note": 75,
      "start": 5.5693,
      "duration": 0.0519,
      "velocity": 101,
      "chip": "ym2612"
    },
    {
      "channel": 3,
      "note": 65,
      "start": 5.5701,
      "duration": 0.0246,
      "velocity": 105,
      "chip": "ym2612"
    },
    {
      "channel": 4,
      "note": 60,
      "start": 5.5708,
      "duration": 0.0246,
      "velocity": 105,
      "chip": "ym2612"
    },
    {
      "channel": 3,
      "note": 65,
      "start": 5.5952,
      "duration": 0.0268,
      "velocity": 105,
      "chip": "ym2612"
    },
    {
      "channel": 4,
      "note": 60,
      "start": 5.5959,
      "duration": 0.0265,
      "velocity": 105,
      "chip": "ym2612"
    },
    {
      "channel": 0,
      "note": 84,
      "start": 5.6203,
      "duration": 0.4411,
      "velocity": 96,
      "chip": "ym2612"
    },
    {
      "channel": 1,
      "note": 60,
      "start": 5.621,
      "duration": 0.0451,
      "velocity": 83,
      "chip": "ym2612"
    },
    {
      "channel": 2,
      "note": 72,
      "start": 5.6218,
      "duration": 0.4407,
      "velocity": 101,
      "chip": "ym2612"
    },
    {
      "channel": 1,
      "note": 57,
      "start": 5.6667,
      "duration": 0.1034,
      "velocity": 83,
      "chip": "ym2612"
    },
    {
      "channel": 3,
      "note": 69,
      "start": 5.6678,
      "duration": 0.0532,
      "velocity": 105,
      "chip": "ym2612"
    },
    {
      "channel": 4,
      "note": 63,
      "start": 5.6685,
      "duration": 0.0529,
      "velocity": 105,
      "chip": "ym2612"
    },
    {
      "channel": 1,
      "note": 51,
      "start": 5.7707,
      "duration": 0.0444,
      "velocity": 83,
      "chip": "ym2612"
    },
    {
      "channel": 1,
      "note": 53,
      "start": 5.8157,
      "duration": 0.1425,
      "velocity": 83,
      "chip": "ym2612"
    },
    {
      "channel": 3,
      "note": 65,
      "start": 5.8168,
      "duration": 0.0525,
      "velocity": 105,
      "chip": "ym2612"
    },
    {
      "channel": 4,
      "note": 59,
      "start": 5.8175,
      "duration": 0.0521,
      "velocity": 105,
      "chip": "ym2612"
    },
    {
      "channel": 1,
      "note": 54,
      "start": 5.9588,
      "duration": 0.1484,
      "velocity": 83,
      "chip": "ym2612"
    },
    {
      "channel": 3,
      "note": 66,
      "start": 5.9599,
      "duration": 0.0552,
      "velocity": 105,
      "chip": "ym2612"
    },
    {
      "channel": 4,
      "note": 60,
      "start": 5.9606,
      "duration": 0.0548,
      "velocity": 105,
      "chip": "ym2612"
    },
    {
      "channel": 0,
      "note": 81,
      "start": 6.062,
      "duration": 0.0307,
      "velocity": 96,
      "chip": "ym2612"
    },
    {
      "channel": 2,
      "note": 69,
      "start": 6.0631,
      "duration": 0.0308,
      "velocity": 101,
      "chip": "ym2612"
    },
    {
      "channel": 0,
      "note": 84,
      "start": 6.0933,
      "duration": 0.0478,
      "velocity": 96,
      "chip": "ym2612"
    },
    {
      "channel": 2,
      "note": 72,
      "start": 6.0944,
      "duration": 0.0478,
      "velocity": 101,
      "chip": "ym2612"
    },
    {
      "channel": 1,
      "note": 56,
      "start": 6.1078,
      "duration": 0.1009,
      "velocity": 83,
      "chip": "ym2612"
    },
    {
      "channel": 3,
      "note": 68,
      "start": 6.1089,
      "duration": 0.0518,
      "velocity": 105,
      "chip": "ym2612"
    },
    {
      "channel": 4,
      "note": 63,
      "start": 6.1096,
      "duration": 0.0514,
      "velocity": 105,
      "chip": "ym2612"
    },
    {
      "channel": 0,
      "note": 83,
      "start": 6.1418,
      "duration": 0.066,
      "velocity": 96,
      "chip": "ym2612"
    },
    {
      "channel": 2,
      "note": 71,
      "start": 6.1429,
      "duration": 0.0667,
      "velocity": 101,
      "chip": "ym2612"
    },
    {
      "channel": 0,
      "note": 87,
      "start": 6.2085,
      "duration": 0.451,
      "velocity": 96,
      "chip": "ym2612"
    },
    {
      "channel": 1,
      "note": 57,
      "start": 6.2093,
      "duration": 0.0522,
      "velocity": 83,
      "chip": "ym2612"
    },
    {
      "channel": 2,
      "note": 75,
      "start": 6.2108,
      "duration": 0.4501,
      "velocity": 101,
      "chip": "ym2612"
    },
    {
      "channel": 3,
      "note": 69,
      "start": 6.2116,
      "duration": 0.0258,
      "velocity": 105,
      "chip": "ym2612"
    },
    {
      "channel": 4,
      "note": 63,
      "start": 6.2125,
      "duration": 0.0257,
      "velocity": 105,
      "chip": "ym2612"
    },
    {
      "channel": 3,
      "note": 69,
      "start": 6.238,
      "duration": 0.0246,
      "velocity": 105,
      "chip": "ym2612"
    },
    {
      "channel": 4,
      "note": 63,
      "start": 6.2388,
      "duration": 0.0253,
      "velocity": 105,
      "chip": "ym2612"
    },
    {
      "channel": 1,
      "note": 63,
      "start": 6.2621,
      "duration": 0.0517,
      "velocity": 83,
      "chip": "ym2612"
    },
    {
      "channel": 3,
      "note": 69,
      "start": 6.2639,
      "duration": 0.0246,
      "velocity": 105,
      "chip": "ym2612"
    },
    {
      "channel": 4,
      "note": 63,
      "start": 6.2646,
      "duration": 0.0247,
      "velocity": 105,
      "chip": "ym2612"
    },
    {
      "channel": 3,
      "note": 69,
      "start": 6.2891,
      "duration": 0.0258,
      "velocity": 105,
      "chip": "ym2612"
    },
    {
      "channel": 4,
      "note": 63,
      "start": 6.2899,
      "duration": 0.0257,
      "velocity": 105,
      "chip": "ym2612"
    },
    {
      "channel": 1,
      "note": 62,
      "start": 6.3144,
      "duration": 0.0991,
      "velocity": 83,
      "chip": "ym2612"
    },
    {
      "channel": 3,
      "note": 69,
      "start": 6.3155,
      "duration": 0.0511,
      "velocity": 105,
      "chip": "ym2612"
    },
    {
      "channel": 4,
      "note": 63,
      "start": 6.3162,
      "duration": 0.0508,
      "velocity": 105,
      "chip": "ym2612"
    },
    {
      "channel": 1,
      "note": 63,
      "start": 6.4141,
      "duration": 0.0423,
      "velocity": 83,
      "chip": "ym2612"
    },
    {
      "channel": 1,
      "note": 60,
      "start": 6.4571,
      "duration": 0.0515,
      "velocity": 83,
      "chip": "ym2612"
    },
    {
      "channel": 3,
      "note": 72,
      "start": 6.4581,
      "duration": 0.0248,
      "velocity": 105,
      "chip": "ym2612"
    },
    {
      "channel": 4,
      "note": 70,
      "start": 6.4589,
      "duration": 0.0248,
      "velocity": 105,
      "chip": "ym2612"
    },
    {
      "channel": 3,
      "note": 72,
      "start": 6.4835,
      "duration": 0.0257,
      "velocity": 105,
      "chip": "ym2612"
    },
    {
      "channel": 4,
      "note": 70,
      "start": 6.4843,
      "duration": 0.0257,
      "velocity": 105,
      "chip": "ym2612"
    },
    {
      "channel": 3,
      "note": 72,
      "start": 6.5099,
      "duration": 0.0224,
      "velocity": 105,
      "chip": "ym2612"
    },
    {
      "channel": 4,
      "note": 70,
      "start": 6.5106,
      "duration": 0.0224,
      "velocity": 105,
      "chip": "ym2612"
    },
    {
      "channel": 3,
      "note": 69,
      "start": 6.5328,
      "duration": 0.0247,
      "velocity": 105,
      "chip": "ym2612"
    },
    {
      "channel": 4,
      "note": 63,
      "start": 6.5336,
      "duration": 0.0247,
      "velocity": 105,
      "chip": "ym2612"
    },
    {
      "channel": 3,
      "note": 69,
      "start": 6.5581,
      "duration": 0.0495,
      "velocity": 105,
      "chip": "ym2612"
    },
    {
      "channel": 4,
      "note": 63,
      "start": 6.5588,
      "duration": 0.0495,
      "velocity": 105,
      "chip": "ym2612"
    },
    {
      "channel": 3,
      "note": 69,
      "start": 6.6082,
      "duration": 0.0535,
      "velocity": 105,
      "chip": "ym2612"
    },
    {
      "channel": 4,
      "note": 63,
      "start": 6.6089,
      "duration": 0.0535,
      "velocity": 105,
      "chip": "ym2612"
    },
    {
      "channel": 0,
      "note": 87,
      "start": 6.66,
      "duration": 0.0519,
      "velocity": 96,
      "chip": "ym2612"
    },
    {
      "channel": 1,
      "note": 57,
      "start": 6.6608,
      "duration": 0.0519,
      "velocity": 83,
      "chip": "ym2612"
    },
    {
      "channel": 2,
      "note": 75,
      "start": 6.6615,
      "duration": 0.052,
      "velocity": 101,
      "chip": "ym2612"
    },
    {
      "channel": 3,
      "note": 65,
      "start": 6.6622,
      "duration": 0.0246,
      "velocity": 105,
      "chip": "ym2612"
    },
    {
      "channel": 4,
      "note": 60,
      "start": 6.6629,
      "duration": 0.0246,
      "velocity": 105,
      "chip": "ym2612"
    },
    {
      "channel": 3,
      "note": 65,
      "start": 6.6874,
      "duration": 0.0269,
      "velocity": 105,
      "chip": "ym2612"
    },
    {
      "channel": 4,
      "note": 60,
      "start": 6.6882,
      "duration": 0.0269,
      "velocity": 105,
      "chip": "ym2612"
    },
    {
      "channel": 0,
      "note": 84,
      "start": 6.7126,
      "duration": 0.4089,
      "velocity": 96,
      "chip": "ym2612"
    },
    {
      "channel": 1,
      "note": 60,
      "start": 6.7133,
      "duration": 0.0515,
      "velocity": 83,
      "chip": "ym2612"
    },
    {
      "channel": 2,
      "note": 72,
      "start": 6.714,
      "duration": 0.4089,
      "velocity": 101,
      "chip": "ym2612"
    },
    {
      "channel": 3,
      "note": 69,
      "start": 6.7149,
      "duration": 0.0252,
      "velocity": 105,
      "chip": "ym2612"
    },
    {
      "channel": 4,
      "note": 63,
      "start": 6.7157,
      "duration": 0.0251,
      "velocity": 105,
      "chip": "ym2612"
    },
    {
      "channel": 3,
      "note": 69,
      "start": 6.7407,
      "duration": 0.0252,
      "velocity": 105,
      "chip": "ym2612"
    },
    {
      "channel": 4,
      "note": 63,
      "start": 6.7421,
      "duration": 0.0246,
      "velocity": 105,
      "chip": "ym2612"
    },
    {
      "channel": 1,
      "note": 57,
      "start": 6.7654,
      "duration": 0.0513,
      "velocity": 83,
      "chip": "ym2612"
    },
    {
      "channel": 3,
      "note": 69,
      "start": 6.7665,
      "duration": 0.0252,
      "velocity": 105,
      "chip": "ym2612"
    },
    {
      "channel": 4,
      "note": 63,
      "start": 6.7672,
      "duration": 0.0251,
      "velocity": 105,
      "chip": "ym2612"
    },
    {
      "channel": 3,
      "note": 69,
      "start": 6.7922,
      "duration": 0.0251,
      "velocity": 105,
      "chip": "ym2612"
    },
    {
      "channel": 4,
      "note": 63,
      "start": 6.7929,
      "duration": 0.0252,
      "velocity": 105,
      "chip": "ym2612"
    },
    {
      "channel": 3,
      "note": 69,
      "start": 6.8179,
      "duration": 0.0509,
      "velocity": 105,
      "chip": "ym2612"
    },
    {
      "channel": 4,
      "note": 63,
      "start": 6.8187,
      "duration": 0.0505,
      "velocity": 105,
      "chip": "ym2612"
    },
    {
      "channel": 1,
      "note": 57,
      "start": 6.9233,
      "duration": 0.0438,
      "velocity": 83,
      "chip": "ym2612"
    },
    {
      "channel": 3,
      "note": 72,
      "start": 6.9684,
      "duration": 0.025,
      "velocity": 105,
      "chip": "ym2612"
    },
    {
      "channel": 4,
      "note": 70,
      "start": 6.9691,
      "duration": 0.025,
      "velocity": 105,
      "chip": "ym2612"
    },
    {
      "channel": 3,
      "note": 72,
      "start": 6.994,
      "duration": 0.0229,
      "velocity": 105,
      "chip": "ym2612"
    },
    {
      "channel": 4,
      "note": 70,
      "start": 6.9947,
      "duration": 0.0229,
      "velocity": 105,
      "chip": "ym2612"
    },
    {
      "channel": 1,
      "note": 60,
      "start": 7.0164,
      "duration": 0.1057,
      "velocity": 83,
      "chip": "ym2612"
    },
    {
      "channel": 3,
      "note": 72,
      "start": 7.0175,
      "duration": 0.0556,
      "velocity": 105,
      "chip": "ym2612"
    },
    {
      "channel": 4,
      "note": 70,
      "start": 7.0183,
      "duration": 0.0556,
      "velocity": 105,
      "chip": "ym2612"
    },
    {
      "channel": 3,
      "note": 69,
      "start": 7.0738,
      "duration": 0.0499,
      "velocity": 105,
      "chip": "ym2612"
    },
    {
      "channel": 4,
      "note": 63,
      "start": 7.0745,
      "duration": 0.0499,
      "velocity": 105,
      "chip": "ym2612"
    },
    {
      "channel": 0,
      "note": 81,
      "start": 7.122,
      "duration": 0.0719,
      "velocity": 96,
      "chip": "ym2612"
    },
    {
      "channel": 1,
      "note": 54,
      "start": 7.1227,
      "duration": 0.106,
      "velocity": 83,
      "chip": "ym2612"
    },
    {
      "channel": 2,
      "note": 69,
      "start": 7.1235,
      "duration": 0.0715,
      "velocity": 101,
      "chip": "ym2612"
    },
    {
      "channel": 3,
      "note": 69,
      "start": 7.1242,
      "duration": 0.0539,
      "velocity": 105,
      "chip": "ym2612"
    },
    {
      "channel": 4,
      "note": 63,
      "start": 7.1249,
      "duration": 0.0539,
      "velocity": 105,
      "chip": "ym2612"
    },
    {
      "channel": 3,
      "note": 69,
      "start": 7.1788,
      "duration": 0.0506,
      "velocity": 105,
      "chip": "ym2612"
    },
    {
      "channel": 4,
      "note": 63,
      "start": 7.1795,
      "duration": 0.0506,
      "velocity": 105,
      "chip": "ym2612"
    },
    {
      "channel": 0,
      "note": 84,
      "start": 7.1946,
      "duration": 0.051,
      "velocity": 96,
      "chip": "ym2612"
    },
    {
      "channel": 2,
      "note": 72,
      "start": 7.1956,
      "duration": 0.0507,
      "velocity": 101,
      "chip": "ym2612"
    },
    {
      "channel": 3,
      "note": 65,
      "start": 7.2299,
      "duration": 0.025,
      "velocity": 105,
      "chip": "ym2612"
    },
    {
      "channel": 4,
      "note": 60,
      "start": 7.2307,
      "duration": 0.025,
      "velocity": 105,
      "chip": "ym2612"
    },
    {
      "channel": 0,
      "note": 83,
      "start": 7.2461,
      "duration": 0.0322,
      "velocity": 96,
      "chip": "ym2612"
    },
    {
      "channel": 2,
      "note": 71,
      "start": 7.2469,
      "duration": 0.033,
      "velocity": 101,
      "chip": "ym2612"
    },
    {
      "channel": 3,
      "note": 65,
      "start": 7.2555,
      "duration": 0.0259,
      "velocity": 105,
      "chip": "ym2612"
    },
    {
      "channel": 4,
      "note": 60,
      "start": 7.2562,
      "duration": 0.026,
      "velocity": 105,
      "chip": "ym2612"
    },
    {
      "channel": 0,
      "note": 87,
      "start": 7.2789,
      "duration": 0.4501,
      "velocity": 96,
      "chip": "ym2612"
    },
    {
      "channel": 1,
      "note": 57,
      "start": 7.2796,
      "duration": 0.0526,
      "velocity": 83,
      "chip": "ym2612"
    },
    {
      "channel": 2,
      "note": 75,
      "start": 7.2812,
      "duration": 0.4493,
      "velocity": 101,
      "chip": "ym2612"
    },
    {
      "channel": 3,
      "note": 69,
      "start": 7.282,
      "duration": 0.0261,
      "velocity": 105,
      "chip": "ym2612"
    },
    {
      "channel": 4,
      "note": 63,
      "start": 7.2828,
      "duration": 0.026,
      "velocity": 105,
      "chip": "ym2612"
    },
    {
      "channel": 3,
      "note": 69,
      "start": 7.3087,
      "duration": 0.0254,
      "velocity": 105,
      "chip": "ym2612"
    },
    {
      "channel": 4,
      "note": 63,
      "start": 7.3094,
      "duration": 0.0254,
      "velocity": 105,
      "chip": "ym2612"
    },
    {
      "channel": 1,
      "note": 63,
      "start": 7.3329,
      "duration": 0.0515,
      "velocity": 83,
      "chip": "ym2612"
    },
    {
      "channel": 3,
      "note": 69,
      "start": 7.3346,
      "duration": 0.0247,
      "velocity": 105,
      "chip": "ym2612"
    },
    {
      "channel": 4,
      "note": 63,
      "start": 7.3354,
      "duration": 0.0247,
      "velocity": 105,
      "chip": "ym2612"
    },
    {
      "channel": 3,
      "note": 69,
      "start": 7.3599,
      "duration": 0.0255,
      "velocity": 105,
      "chip": "ym2612"
    },
    {
      "channel": 4,
      "note": 63,
      "start": 7.3606,
      "duration": 0.0255,
      "velocity": 105,
      "chip": "ym2612"
    },
    {
      "channel": 1,
      "note": 62,
      "start": 7.3849,
      "duration": 0.1005,
      "velocity": 83,
      "chip": "ym2612"
    },
    {
      "channel": 3,
      "note": 69,
      "start": 7.386,
      "duration": 0.0501,
      "velocity": 105,
      "chip": "ym2612"
    },
    {
      "channel": 4,
      "note": 63,
      "start": 7.3867,
      "duration": 0.0497,
      "velocity": 105,
      "chip": "ym2612"
    },
    {
      "channel": 1,
      "note": 63,
      "start": 7.486,
      "duration": 0.043,
      "velocity": 83,
      "chip": "ym2612"
    },
    {
      "channel": 1,
      "note": 60,
      "start": 7.5296,
      "duration": 0.0519,
      "velocity": 83,
      "chip": "ym2612"
    },
    {
      "channel": 3,
      "note": 72,
      "start": 7.5308,
      "duration": 0.0251,
      "velocity": 105,
      "chip": "ym2612"
    },
    {
      "channel": 4,
      "note": 70,
      "start": 7.5315,
      "duration": 0.0251,
      "velocity": 105,
      "chip": "ym2612"
    },
    {
      "channel": 3,
      "note": 72,
      "start": 7.5565,
      "duration": 0.0257,
      "velocity": 105,
      "chip": "ym2612"
    },
    {
      "channel": 4,
      "note": 70,
      "start": 7.5573,
      "duration": 0.0258,
      "velocity": 105,
      "chip": "ym2612"
    },
    {
      "channel": 3,
      "note": 72,
      "start": 7.5828,
      "duration": 0.0227,
      "velocity": 105,
      "chip": "ym2612"
    },
    {
      "channel": 4,
      "note": 70,
      "start": 7.5836,
      "duration": 0.0227,
      "velocity": 105,
      "chip": "ym2612"
    },
    {
      "channel": 3,
      "note": 69,
      "start": 7.6061,
      "duration": 0.0248,
      "velocity": 105,
      "chip": "ym2612"
    },
    {
      "channel": 4,
      "note": 63,
      "start": 7.6068,
      "duration": 0.0248,
      "velocity": 105,
      "chip": "ym2612"
    },
    {
      "channel": 3,
      "note": 69,
      "start": 7.6315,
      "duration": 0.0496,
      "velocity": 105,
      "chip": "ym2612"
    },
    {
      "channel": 4,
      "note": 63,
      "start": 7.6322,
      "duration": 0.0496,
      "velocity": 105,
      "chip": "ym2612"
    },
    {
      "channel": 3,
      "note": 69,
      "start": 7.6816,
      "duration": 0.0496,
      "velocity": 105,
      "chip": "ym2612"
    },
    {
      "channel": 4,
      "note": 63,
      "start": 7.6824,
      "duration": 0.0495,
      "velocity": 105,
      "chip": "ym2612"
    },
    {
      "channel": 0,
      "note": 87,
      "start": 7.7296,
      "duration": 0.0516,
      "velocity": 96,
      "chip": "ym2612"
    },
    {
      "channel": 1,
      "note": 57,
      "start": 7.7303,
      "duration": 0.0516,
      "velocity": 83,
      "chip": "ym2612"
    },
    {
      "channel": 2,
      "note": 75,
      "start": 7.731,
      "duration": 0.0517,
      "velocity": 101,
      "chip": "ym2612"
    },
    {
      "channel": 3,
      "note": 65,
      "start": 7.7318,
      "duration": 0.0246,
      "velocity": 105,
      "chip": "ym2612"
    },
    {
      "channel": 4,
      "note": 60,
      "start": 7.7325,
      "duration": 0.0246,
      "velocity": 105,
      "chip": "ym2612"
    },
    {
      "channel": 3,
      "note": 65,
      "start": 7.757,
      "duration": 0.0266,
      "velocity": 105,
      "chip": "ym2612"
    },
    {
      "channel": 4,
      "note": 60,
      "start": 7.7584,
      "duration": 0.0255,
      "velocity": 105,
      "chip": "ym2612"
    },
    {
      "channel": 0,
      "note": 84,
      "start": 7.7818,
      "duration": 0.5922,
      "velocity": 96,
      "chip": "ym2612"
    },
    {
      "channel": 1,
      "note": 60,
      "start": 7.7825,
      "duration": 0.0449,
      "velocity": 83,
      "chip": "ym2612"
    },
    {
      "channel": 2,
      "note": 72,
      "start": 7.7833,
      "duration": 0.593,
      "velocity": 101,
      "chip": "ym2612"
    },
    {
      "channel": 1,
      "note": 57,
      "start": 7.828,
      "duration": 0.1062,
      "velocity": 83,
      "chip": "ym2612"
    },
    {
      "channel": 3,
      "note": 69,
      "start": 7.8291,
      "duration": 0.0539,
      "velocity": 105,
      "chip": "ym2612"
    },
    {
      "channel": 4,
      "note": 63,
      "start": 7.8298,
      "duration": 0.0536,
      "velocity": 105,
      "chip": "ym2612"
    },
    {
      "channel": 1,
      "note": 51,
      "start": 7.9349,
      "duration": 0.0444,
      "velocity": 83,
      "chip": "ym2612"
    },
    {
      "channel": 1,
      "note": 53,
      "start": 7.9798,
      "duration": 0.1448,
      "velocity": 83,
      "chip": "ym2612"
    },
    {
      "channel": 3,
      "note": 65,
      "start": 7.9809,
      "duration": 0.0521,
      "velocity": 105,
      "chip": "ym2612"
    },
    {
      "channel": 4,
      "note": 59,
      "start": 7.9816,
      "duration": 0.0517,
      "velocity": 105,
      "chip": "ym2612"
    },
    {
      "channel": 1,
      "note": 54,
      "start": 8.1252,
      "duration": 0.1473,
      "velocity": 83,
      "chip": "ym2612"
    },
    {
      "channel": 3,
      "note": 66,
      "start": 8.1263,
      "duration": 0.0546,
      "velocity": 105,
      "chip": "ym2612"
    },
    {
      "channel": 4,
      "note": 60,
      "start": 8.127,
      "duration": 0.0541,
      "velocity": 105,
      "chip": "ym2612"
    },
    {
      "channel": 1,
      "note": 56,
      "start": 8.273,
      "duration": 0.1018,
      "velocity": 83,
      "chip": "ym2612"
    },
    {
      "channel": 3,
      "note": 68,
      "start": 8.2741,
      "duration": 0.0519,
      "velocity": 105,
      "chip": "ym2612"
    },
    {
      "channel": 4,
      "note": 63,
      "start": 8.2756,
      "duration": 0.0507,
      "velocity": 105,
      "chip": "ym2612"
    },
    {
      "channel": 0,
      "note": 77,
      "start": 8.3746,
      "duration": 0.5193,
      "velocity": 96,
      "chip": "ym2612"
    },
    {
      "channel": 1,
      "note": 53,
      "start": 8.3761,
      "duration": 0.0507,
      "velocity": 83,
      "chip": "ym2612"
    },
    {
      "channel": 2,
      "note": 65,
      "start": 8.3769,
      "duration": 0.5184,
      "velocity": 101,
      "chip": "ym2612"
    },
    {
      "channel": 3,
      "note": 57,
      "start": 8.3778,
      "duration": 0.6255,
      "velocity": 105,
      "chip": "ym2612"
    },
    {
      "channel": 4,
      "note": 65,
      "start": 8.3786,
      "duration": 0.6253,
      "velocity": 105,
      "chip": "ym2612"
    },
    {
      "channel": 1,
      "note": 65,
      "start": 8.4281,
      "duration": 0.1045,
      "velocity": 83,
      "chip": "ym2612"
    },
    {
      "channel": 1,
      "note": 53,
      "start": 8.5333,
      "duration": 0.0496,
      "velocity": 83,
      "chip": "ym2612"
    },
    {
      "channel": 1,
      "note": 65,
      "start": 8.5835,
      "duration": 0.1046,
      "velocity": 83,
      "chip": "ym2612"
    },
    {
      "channel": 1,
      "note": 53,
      "start": 8.6886,
      "duration": 0.0494,
      "velocity": 83,
      "chip": "ym2612"
    },
    {
      "channel": 1,
      "note": 65,
      "start": 8.7386,
      "duration": 0.1052,
      "velocity": 83,
      "chip": "ym2612"
    },
    {
      "channel": 1,
      "note": 53,
      "start": 8.8444,
      "duration": 0.0502,
      "velocity": 83,
      "chip": "ym2612"
    },
    {
      "channel": 0,
      "note": 75,
      "start": 8.8945,
      "duration": 0.049,
      "velocity": 96,
      "chip": "ym2612"
    },
    {
      "channel": 1,
      "note": 65,
      "start": 8.8952,
      "duration": 0.1066,
      "velocity": 83,
      "chip": "ym2612"
    },
    {
      "channel": 2,
      "note": 63,
      "start": 8.8959,
      "duration": 0.0487,
      "velocity": 101,
      "chip": "ym2612"
    },
    {
      "channel": 0,
      "note": 77,
      "start": 8.9441,
      "duration": 0.0568,
      "velocity": 96,
      "chip": "ym2612"
    },
    {
      "channel": 2,
      "note": 65,
      "start": 8.9459,
      "duration": 0.0567,
      "velocity": 101,
      "chip": "ym2612"
    },
    {
      "channel": 0,
      "note": 80,
      "start": 9.0016,
      "duration": 0.5183,
      "velocity": 96,
      "chip": "ym2612"
    },
    {
      "channel": 1,
      "note": 56,
      "start": 9.0023,
      "duration": 0.0512,
      "velocity": 83,
      "chip": "ym2612"
    },
    {
      "channel": 2,
      "note": 68,
      "start": 9.0031,
      "duration": 0.5183,
      "velocity": 101,
      "chip": "ym2612"
    },
    {
      "channel": 3,
      "note": 60,
      "start": 9.0038,
      "duration": 0.6252,
      "velocity": 105,
      "chip": "ym2612"
    },
    {
      "channel": 4,
      "note": 68,
      "start": 9.0046,
      "duration": 0.6251,
      "velocity": 105,
      "chip": "ym2612"
    },
    {
      "channel": 1,
      "note": 68,
      "start": 9.0541,
      "duration": 0.1042,
      "velocity": 83,
      "chip": "ym2612"
    },
    {
      "channel": 1,
      "note": 56,
      "start": 9.1589,
      "duration": 0.05,
      "velocity": 83,
      "chip": "ym2612"
    },
    {
      "channel": 1,
      "note": 68,
      "start": 9.2095,
      "duration": 0.1056,
      "velocity": 83,
      "chip": "ym2612"
    },
    {
      "channel": 1,
      "note": 56,
      "start": 9.3157,
      "duration": 0.0495,
      "velocity": 83,
      "chip": "ym2612"
    },
    {
      "channel": 1,
      "note": 68,
      "start": 9.3657,
      "duration": 0.1039,
      "velocity": 83,
      "chip": "ym2612"
    },
    {
      "channel": 1,
      "note": 56,
      "start": 9.4702,
      "duration": 0.0505,
      "velocity": 83,
      "chip": "ym2612"
    },
    {
      "channel": 0,
      "note": 77,
      "start": 9.5205,
      "duration": 0.0534,
      "velocity": 96,
      "chip": "ym2612"
    },
    {
      "channel": 1,
      "note": 68,
      "start": 9.5212,
      "duration": 0.1062,
      "velocity": 83,
      "chip": "ym2612"
    },
    {
      "channel": 2,
      "note": 65,
      "start": 9.5227,
      "duration": 0.0522,
      "velocity": 101,
      "chip": "ym2612"
    },
    {
      "channel": 0,
      "note": 80,
      "start": 9.5744,
      "duration": 0.0515,
      "velocity": 96,
      "chip": "ym2612"
    },
    {
      "channel": 2,
      "note": 68,
      "start": 9.5755,
      "duration": 0.0527,
      "velocity": 101,
      "chip": "ym2612"
    },
    {
      "channel": 0,
      "note": 82,
      "start": 9.6266,
      "duration": 0.5195,
      "velocity": 96,
      "chip": "ym2612"
    },
    {
      "channel": 1,
      "note": 58,
      "start": 9.6281,
      "duration": 0.0509,
      "velocity": 83,
      "chip": "ym2612"
    },
    {
      "channel": 2,
      "note": 70,
      "start": 9.6288,
      "duration": 0.5187,
      "velocity": 101,
      "chip": "ym2612"
    },
    {
      "channel": 3,
      "note": 58,
      "start": 9.6295,
      "duration": 0.6242,
      "velocity": 105,
      "chip": "ym2612"
    },
    {
      "channel": 4,
      "note": 65,
      "start": 9.6302,
      "duration": 0.6243,
      "velocity": 105,
      "chip": "ym2612"
    },
    {
      "channel": 1,
      "note": 70,
      "start": 9.6796,
      "duration": 0.1036,
      "velocity": 83,
      "chip": "ym2612"
    },
    {
      "channel": 1,
      "note": 58,
      "start": 9.7838,
      "duration": 0.0494,
      "velocity": 83,
      "chip": "ym2612"
    },
    {
      "channel": 1,
      "note": 70,
      "start": 9.8337,
      "duration": 0.1088,
      "velocity": 83,
      "chip": "ym2612"
    },
    {
      "channel": 1,
      "note": 58,
      "start": 9.9432,
      "duration": 0.0498,
      "velocity": 83,
      "chip": "ym2612"
    },
    {
      "channel": 1,
      "note": 70,
      "start": 9.9935,
      "duration": 0.1027,
      "velocity": 83,
      "chip": "ym2612"
    },
    {
      "channel": 1,
      "note": 58,
      "start": 10.0968,
      "duration": 0.05,
      "velocity": 83,
      "chip": "ym2612"
    },
    {
      "channel": 0,
      "note": 80,
      "start": 10.1466,
      "duration": 0.0523,
      "velocity": 96,
      "chip": "ym2612"
    },
    {
      "channel": 1,
      "note": 70,
      "start": 10.1474,
      "duration": 0.1049,
      "velocity": 83,
      "chip": "ym2612"
    },
    {
      "channel": 2,
      "note": 68,
      "start": 10.1481,
      "duration": 0.0526,
      "velocity": 101,
      "chip": "ym2612"
    },
    {
      "channel": 0,
      "note": 82,
      "start": 10.1996,
      "duration": 0.0519,
      "velocity": 96,
      "chip": "ym2612"
    },
    {
      "channel": 2,
      "note": 70,
      "start": 10.2014,
      "duration": 0.0517,
      "velocity": 101,
      "chip": "ym2612"
    },
    {
      "channel": 0,
      "note": 84,
      "start": 10.252,
      "duration": 0.6802,
      "velocity": 96,
      "chip": "ym2612"
    },
    {
      "channel": 1,
      "note": 60,
      "start": 10.2528,
      "duration": 0.0515,
      "velocity": 83,
      "chip": "ym2612"
    },
    {
      "channel": 2,
      "note": 72,
      "start": 10.2536,
      "duration": 0.6804,
      "velocity": 101,
      "chip": "ym2612"
    },
    {
      "channel": 3,
      "note": 60,
      "start": 10.2543,
      "duration": 0.6805,
      "velocity": 105,
      "chip": "ym2612"
    },
    {
      "channel": 4,
      "note": 64,
      "start": 10.2551,
      "duration": 0.6807,
      "velocity": 105,
      "chip": "ym2612"
    },
    {
      "channel": 1,
      "note": 72,
      "start": 10.3049,
      "duration": 0.1034,
      "velocity": 83,
      "chip": "ym2612"
    },
    {
      "channel": 1,
      "note": 58,
      "start": 10.4089,
      "duration": 0.0496,
      "velocity": 83,
      "chip": "ym2612"
    },
    {
      "channel": 1,
      "note": 70,
      "start": 10.4591,
      "duration": 0.1014,
      "velocity": 83,
      "chip": "ym2612"
    },
    {
      "channel": 1,
      "note": 56,
      "start": 10.561,
      "duration": 0.0497,
      "velocity": 83,
      "chip": "ym2612"
    },
    {
      "channel": 1,
      "note": 68,
      "start": 10.6113,
      "duration": 0.1073,
      "velocity": 83,
      "chip": "ym2612"
    },
    {
      "channel": 1,
      "note": 51,
      "start": 10.7191,
      "duration": 0.1033,
      "velocity": 83,
      "chip": "ym2612"
    },
    {
      "channel": 1,
      "note": 63,
      "start": 10.823,
      "duration": 0.11,
      "velocity": 83,
      "chip": "ym2612"
    },
    {
      "channel": 0,
      "note": 77,
      "start": 10.9328,
      "duration": 0.5228,
      "velocity": 96,
      "chip": "ym2612"
    },
    {
      "channel": 1,
      "note": 53,
      "start": 10.9336,
      "duration": 0.0521,
      "velocity": 83,
      "chip": "ym2612"
    },
    {
      "channel": 2,
      "note": 65,
      "start": 10.9346,
      "duration": 0.5225,
      "velocity": 101,
      "chip": "ym2612"
    },
    {
      "channel": 3,
      "note": 57,
      "start": 10.9354,
      "duration": 0.6273,
      "velocity": 105,
      "chip": "ym2612"
    },
    {
      "channel": 4,
      "note": 65,
      "start": 10.9363,
      "duration": 0.6272,
      "velocity": 105,
      "chip": "ym2612"
    },
    {
      "channel": 1,
      "note": 65,
      "start": 10.9862,
      "duration": 0.1033,
      "velocity": 83,
      "chip": "ym2612"
    },
    {
      "channel": 1,
      "note": 53,
      "start": 11.0901,
      "duration": 0.0498,
      "velocity": 83,
      "chip": "ym2612"
    },
    {
      "channel": 1,
      "note": 65,
      "start": 11.1405,
      "duration": 0.1076,
      "velocity": 83,
      "chip": "ym2612"
    },
    {
      "channel": 1,
      "note": 53,
      "start": 11.2486,
      "duration": 0.0497,
      "velocity": 83,
      "chip": "ym2612"
    },
    {
      "channel": 1,
      "note": 65,
      "start": 11.2989,
      "duration": 0.1057,
      "velocity": 83,
      "chip": "ym2612"
    },
    {
      "channel": 1,
      "note": 53,
      "start": 11.4051,
      "duration": 0.0512,
      "velocity": 83,
      "chip": "ym2612"
    },
    {
      "channel": 0,
      "note": 75,
      "start": 11.4562,
      "duration": 0.051,
      "velocity": 96,
      "chip": "ym2612"
    },
    {
      "channel": 1,
      "note": 65,
      "start": 11.4569,
      "duration": 0.1044,
      "velocity": 83,
      "chip": "ym2612"
    },
    {
      "channel": 2,
      "note": 63,
      "start": 11.4577,
      "duration": 0.0513,
      "velocity": 101,
      "chip": "ym2612"
    },
    {
      "channel": 0,
      "note": 77,
      "start": 11.5078,
      "duration": 0.0526,
      "velocity": 96,
      "chip": "ym2612"
    },
    {
      "channel": 2,
      "note": 65,
      "start": 11.5096,
      "duration": 0.0524,
      "velocity": 101,
      "chip": "ym2612"
    },
    {
      "channel": 0,
      "note": 80,
      "start": 11.5611,
      "duration": 0.5251,
      "velocity": 96,
      "chip": "ym2612"
    },
    {
      "channel": 1,
      "note": 56,
      "start": 11.5618,
      "duration": 0.0512,
      "velocity": 83,
      "chip": "ym2612"
    },
    {
      "channel": 2,
      "note": 68,
      "start": 11.5626,
      "duration": 0.5258,
      "velocity": 101,
      "chip": "ym2612"
    },
    {
      "channel": 3,
      "note": 60,
      "start": 11.5634,
      "duration": 0.6317,
      "velocity": 105,
      "chip": "ym2612"
    },
    {
      "channel": 4,
      "note": 68,
      "start": 11.5641,
      "duration": 0.6317,
      "velocity": 105,
      "chip": "ym2612"
    },
    {
      "channel": 1,
      "note": 68,
      "start": 11.6136,
      "duration": 0.1064,
      "velocity": 83,
      "chip": "ym2612"
    },
    {
      "channel": 1,
      "note": 56,
      "start": 11.7206,
      "duration": 0.0496,
      "velocity": 83,
      "chip": "ym2612"
    },
    {
      "channel": 1,
      "note": 68,
      "start": 11.7707,
      "duration": 0.107,
      "velocity": 83,
      "chip": "ym2612"
    },
    {
      "channel": 1,
      "note": 56,
      "start": 11.8783,
      "duration": 0.0497,
      "velocity": 83,
      "chip": "ym2612"
    },
    {
      "channel": 1,
      "note": 68,
      "start": 11.9286,
      "duration": 0.1067,
      "velocity": 83,
      "chip": "ym2612"
    },
    {
      "channel": 1,
      "note": 56,
      "start": 12.0359,
      "duration": 0.051,
      "velocity": 83,
      "chip": "ym2612"
    },
    {
      "channel": 0,
      "note": 77,
      "start": 12.0868,
      "duration": 0.0519,
      "velocity": 96,
      "chip": "ym2612"
    },
    {
      "channel": 1,
      "note": 68,
      "start": 12.0882,
      "duration": 0.1053,
      "velocity": 83,
      "chip": "ym2612"
    },
    {
      "channel": 2,
      "note": 65,
      "start": 12.0889,
      "duration": 0.0508,
      "velocity": 101,
      "chip": "ym2612"
    },
    {
      "channel": 0,
      "note": 80,
      "start": 12.1392,
      "duration": 0.0534,
      "velocity": 96,
      "chip": "ym2612"
    },
    {
      "channel": 2,
      "note": 68,
      "start": 12.1403,
      "duration": 0.0539,
      "velocity": 101,
      "chip": "ym2612"
    },
    {
      "channel": 0,
      "note": 82,
      "start": 12.1933,
      "duration": 0.5216,
      "velocity": 96,
      "chip": "ym2612"
    },
    {
      "channel": 1,
      "note": 58,
      "start": 12.1941,
      "duration": 0.0511,
      "velocity": 83,
      "chip": "ym2612"
    },
    {
      "channel": 2,
      "note": 70,
      "start": 12.1948,
      "duration": 0.5215,
      "velocity": 101,
      "chip": "ym2612"
    },
    {
      "channel": 3,
      "note": 58,
      "start": 12.1956,
      "duration": 0.6283,
      "velocity": 105,
      "chip": "ym2612"
    },
    {
      "channel": 4,
      "note": 65,
      "start": 12.1963,
      "duration": 0.6283,
      "velocity": 105,
      "chip": "ym2612"
    },
    {
      "channel": 1,
      "note": 70,
      "start": 12.2459,
      "duration": 0.1039,
      "velocity": 83,
      "chip": "ym2612"
    },
    {
      "channel": 1,
      "note": 58,
      "start": 12.3503,
      "duration": 0.0499,
      "velocity": 83,
      "chip": "ym2612"
    },
    {
      "channel": 1,
      "note": 70,
      "start": 12.4009,
      "duration": 0.1072,
      "velocity": 83,
      "chip": "ym2612"
    },
    {
      "channel": 1,
      "note": 58,
      "start": 12.5087,
      "duration": 0.0497,
      "velocity": 83,
      "chip": "ym2612"
    },
    {
      "channel": 1,
      "note": 70,
      "start": 12.559,
      "duration": 0.105,
      "velocity": 83,
      "chip": "ym2612"
    },
    {
      "channel": 1,
      "note": 58,
      "start": 12.6646,
      "duration": 0.051,
      "velocity": 83,
      "chip": "ym2612"
    },
    {
      "channel": 0,
      "note": 80,
      "start": 12.7154,
      "duration": 0.0518,
      "velocity": 96,
      "chip": "ym2612"
    },
    {
      "channel": 1,
      "note": 70,
      "start": 12.7162,
      "duration": 0.1062,
      "velocity": 83,
      "chip": "ym2612"
    },
    {
      "channel": 2,
      "note": 68,
      "start": 12.7169,
      "duration": 0.0521,
      "velocity": 101,
      "chip": "ym2612"
    },
    {
      "channel": 0,
      "note": 82,
      "start": 12.7686,
      "duration": 0.053,
      "velocity": 96,
      "chip": "ym2612"
    },
    {
      "channel": 2,
      "note": 70,
      "start": 12.7697,
      "duration": 0.0535,
      "velocity": 101,
      "chip": "ym2612"
    },
    {
      "channel": 0,
      "note": 84,
      "start": 12.8222,
      "duration": 0.6768,
      "velocity": 96,
      "chip": "ym2612"
    },
    {
      "channel": 1,
      "note": 60,
      "start": 12.8231,
      "duration": 0.0508,
      "velocity": 83,
      "chip": "ym2612"
    },
    {
      "channel": 2,
      "note": 72,
      "start": 12.8238,
      "duration": 0.6771,
      "velocity": 101,
      "chip": "ym2612"
    },
    {
      "channel": 3,
      "note": 60,
      "start": 12.8245,
      "duration": 0.6774,
      "velocity": 105,
      "chip": "ym2612"
    },
    {
      "channel": 4,
      "note": 64,
      "start": 12.8252,
      "duration": 0.6776,
      "velocity": 105,
      "chip": "ym2612"
    },
    {
      "channel": 1,
      "note": 72,
      "start": 12.8745,
      "duration": 0.1048,
      "velocity": 83,
      "chip": "ym2612"
    },
    {
      "channel": 1,
      "note": 58,
      "start": 12.9798,
      "duration": 0.0495,
      "velocity": 83,
      "chip": "ym2612"
    },
    {
      "channel": 1,
      "note": 70,
      "start": 13.03,
      "duration": 0.1051,
      "velocity": 83,
      "chip": "ym2612"
    },
    {
      "channel": 1,
      "note": 56,
      "start": 13.1357,
      "duration": 0.0492,
      "velocity": 83,
      "chip": "ym2612"
    },
    {
      "channel": 1,
      "note": 68,
      "start": 13.1855,
      "duration": 0.1041,
      "velocity": 83,
      "chip": "ym2612"
    },
    {
      "channel": 1,
      "note": 51,
      "start": 13.2902,
      "duration": 0.106,
      "velocity": 83,
      "chip": "ym2612"
    },
    {
      "channel": 1,
      "note": 63,
      "start": 13.3968,
      "duration": 0.1032,
      "velocity": 83,
      "chip": "ym2612"
    },
    {
      "channel": 0,
      "note": 86,
      "start": 13.4997,
      "duration": 0.2053,
      "velocity": 96,
      "chip": "ym2612"
    },
    {
      "channel": 1,
      "note": 58,
      "start": 13.5006,
      "duration": 0.0516,
      "velocity": 83,
      "chip": "ym2612"
    },
    {
      "channel": 2,
      "note": 74,
      "start": 13.5016,
      "duration": 0.2048,
      "velocity": 101,
      "chip": "ym2612"
    },
    {
      "channel": 3,
      "note": 70,
      "start": 13.5025,
      "duration": 0.5122,
      "velocity": 105,
      "chip": "ym2612"
    },
    {
      "channel": 4,
      "note": 65,
      "start": 13.5034,
      "duration": 0.5121,
      "velocity": 105,
      "chip": "ym2612"
    },
    {
      "channel": 1,
      "note": 58,
      "start": 13.5527,
      "duration": 0.0502,
      "velocity": 83,
      "chip": "ym2612"
    },
    {
      "channel": 1,
      "note": 58,
      "start": 13.6035,
      "duration": 0.1022,
      "velocity": 83,
      "chip": "ym2612"
    },
    {
      "channel": 0,
      "note": 82,
      "start": 13.7056,
      "duration": 0.0244,
      "velocity": 96,
      "chip": "ym2612"
    },
    {
      "channel": 1,
      "note": 58,
      "start": 13.7063,
      "duration": 0.0507,
      "velocity": 83,
      "chip": "ym2612"
    },
    {
      "channel": 2,
      "note": 70,
      "start": 13.7071,
      "duration": 0.024,
      "velocity": 101,
      "chip": "ym2612"
    },
    {
      "channel": 0,
      "note": 84,
      "start": 13.7307,
      "duration": 0.0256,
      "velocity": 96,
      "chip": "ym2612"
    },
    {
      "channel": 2,
      "note": 72,
      "start": 13.7317,
      "duration": 0.026,
      "velocity": 101,
      "chip": "ym2612"
    },
    {
      "channel": 0,
      "note": 86,
      "start": 13.7569,
      "duration": 0.2556,
      "velocity": 96,
      "chip": "ym2612"
    },
    {
      "channel": 1,
      "note": 58,
      "start": 13.7576,
      "duration": 0.0492,
      "velocity": 83,
      "chip": "ym2612"
    },
    {
      "channel": 2,
      "note": 74,
      "start": 13.7584,
      "duration": 0.2556,
      "velocity": 101,
      "chip": "ym2612"
    },
    {
      "channel": 1,
      "note": 58,
      "start": 13.8074,
      "duration": 0.0503,
      "velocity": 83,
      "chip": "ym2612"
    },
    {
      "channel": 1,
      "note": 58,
      "start": 13.8583,
      "duration": 0.1039,
      "velocity": 83,
      "chip": "ym2612"
    },
    {
      "channel": 1,
      "note": 58,
      "start": 13.9627,
      "duration": 0.0505,
      "velocity": 83,
      "chip": "ym2612"
    },
    {
      "channel": 0,
      "note": 88,
      "start": 14.0131,
      "duration": 0.2042,
      "velocity": 96,
      "chip": "ym2612"
    },
    {
      "channel": 1,
      "note": 60,
      "start": 14.0138,
      "duration": 0.051,
      "velocity": 83,
      "chip": "ym2612"
    },
    {
      "channel": 2,
      "note": 76,
      "start": 14.0146,
      "duration": 0.2043,
      "velocity": 101,
      "chip": "ym2612"
    },
    {
      "channel": 3,
      "note": 72,
      "start": 14.0154,
      "duration": 0.513,
      "velocity": 105,
      "chip": "ym2612"
    },
    {
      "channel": 4,
      "note": 67,
      "start": 14.0161,
      "duration": 0.5131,
      "velocity": 105,
      "chip": "ym2612"
    },
    {
      "channel": 1,
      "note": 60,
      "start": 14.0654,
      "duration": 0.0499,
      "velocity": 83,
      "chip": "ym2612"
    },
    {
      "channel": 1,
      "note": 60,
      "start": 14.1159,
      "duration": 0.1023,
      "velocity": 83,
      "chip": "ym2612"
    },
    {
      "channel": 0,
      "note": 84,
      "start": 14.218,
      "duration": 0.0259,
      "velocity": 96,
      "chip": "ym2612"
    },
    {
      "channel": 1,
      "note": 60,
      "start": 14.2187,
      "duration": 0.0506,
      "velocity": 83,
      "chip": "ym2612"
    },
    {
      "channel": 2,
      "note": 72,
      "start": 14.2195,
      "duration": 0.0255,
      "velocity": 101,
      "chip": "ym2612"
    },
    {
      "channel": 0,
      "note": 86,
      "start": 14.2445,
      "duration": 0.024,
      "velocity": 96,
      "chip": "ym2612"
    },
    {
      "channel": 2,
      "note": 74,
      "start": 14.2456,
      "duration": 0.0245,
      "velocity": 101,
      "chip": "ym2612"
    },
    {
      "channel": 0,
      "note": 88,
      "start": 14.2691,
      "duration": 0.2569,
      "velocity": 96,
      "chip": "ym2612"
    },
    {
      "channel": 1,
      "note": 60,
      "start": 14.2699,
      "duration": 0.0493,
      "velocity": 83,
      "chip": "ym2612"
    },
    {
      "channel": 2,
      "note": 76,
      "start": 14.2706,
      "duration": 0.2571,
      "velocity": 101,
      "chip": "ym2612"
    },
    {
      "channel": 1,
      "note": 60,
      "start": 14.3198,
      "duration": 0.0504,
      "velocity": 83,
      "chip": "ym2612"
    },
    {
      "channel": 1,
      "note": 60,
      "start": 14.3715,
      "duration": 0.1049,
      "velocity": 83,
      "chip": "ym2612"
    },
    {
      "channel": 1,
      "note": 60,
      "start": 14.4769,
      "duration": 0.05,
      "velocity": 83,
      "chip": "ym2612"
    },
    {
      "channel": 0,
      "note": 89,
      "start": 14.5266,
      "duration": 0.2028,
      "velocity": 96,
      "chip": "ym2612"
    },
    {
      "channel": 1,
      "note": 58,
      "start": 14.5275,
      "duration": 0.0507,
      "velocity": 83,
      "chip": "ym2612"
    },
    {
      "channel": 2,
      "note": 77,
      "start": 14.5282,
      "duration": 0.2027,
      "velocity": 101,
      "chip": "ym2612"
    },
    {
      "channel": 3,
      "note": 70,
      "start": 14.529,
      "duration": 0.5087,
      "velocity": 105,
      "chip": "ym2612"
    },
    {
      "channel": 4,
      "note": 65,
      "start": 14.5298,
      "duration": 0.5088,
      "velocity": 105,
      "chip": "ym2612"
    },
    {
      "channel": 1,
      "note": 58,
      "start": 14.5788,
      "duration": 0.0499,
      "velocity": 83,
      "chip": "ym2612"
    },
    {
      "channel": 1,
      "note": 58,
      "start": 14.6293,
      "duration": 0.1009,
      "velocity": 83,
      "chip": "ym2612"
    },
    {
      "channel": 0,
      "note": 86,
      "start": 14.73,
      "duration": 0.0249,
      "velocity": 96,
      "chip": "ym2612"
    },
    {
      "channel": 1,
      "note": 58,
      "start": 14.7307,
      "duration": 0.051,
      "velocity": 83,
      "chip": "ym2612"
    },
    {
      "channel": 2,
      "note": 74,
      "start": 14.7315,
      "duration": 0.0245,
      "velocity": 101,
      "chip": "ym2612"
    },
    {
      "channel": 0,
      "note": 88,
      "start": 14.7556,
      "duration": 0.0254,
      "velocity": 96,
      "chip": "ym2612"
    },
    {
      "channel": 2,
      "note": 76,
      "start": 14.7567,
      "duration": 0.0258,
      "velocity": 101,
      "chip": "ym2612"
    },
    {
      "channel": 0,
      "note": 89,
      "start": 14.7816,
      "duration": 0.254,
      "velocity": 96,
      "chip": "ym2612"
    },
    {
      "channel": 1,
      "note": 58,
      "start": 14.7823,
      "duration": 0.0494,
      "velocity": 83,
      "chip": "ym2612"
    },
    {
      "channel": 2,
      "note": 77,
      "start": 14.7831,
      "duration": 0.254,
      "velocity": 101,
      "chip": "ym2612"
    },
    {
      "channel": 1,
      "note": 58,
      "start": 14.8323,
      "duration": 0.0494,
      "velocity": 83,
      "chip": "ym2612"
    },
    {
      "channel": 1,
      "note": 58,
      "start": 14.8823,
      "duration": 0.1027,
      "velocity": 83,
      "chip": "ym2612"
    },
    {
      "channel": 1,
      "note": 58,
      "start": 14.9856,
      "duration": 0.0507,
      "velocity": 83,
      "chip": "ym2612"
    },
    {
      "channel": 0,
      "note": 91,
      "start": 15.0362,
      "duration": 0.2064,
      "velocity": 96,
      "chip": "ym2612"
    },
    {
      "channel": 1,
      "note": 60,
      "start": 15.0369,
      "duration": 0.0512,
      "velocity": 83,
      "chip": "ym2612"
    },
    {
      "channel": 2,
      "note": 79,
      "start": 15.0377,
      "duration": 0.2064,
      "velocity": 101,
      "chip": "ym2612"
    },
    {
      "channel": 3,
      "note": 72,
      "start": 15.0384,
      "duration": 0.5937,
      "velocity": 105,
      "chip": "ym2612"
    },
    {
      "channel": 4,
      "note": 67,
      "start": 15.0391,
      "duration": 0.5937,
      "velocity": 105,
      "chip": "ym2612"
    },
    {
      "channel": 1,
      "note": 60,
      "start": 15.0887,
      "duration": 0.05,
      "velocity": 83,
      "chip": "ym2612"
    },
    {
      "channel": 1,
      "note": 60,
      "start": 15.1393,
      "duration": 0.1041,
      "velocity": 83,
      "chip": "ym2612"
    },
    {
      "channel": 0,
      "note": 88,
      "start": 15.2432,
      "duration": 0.0261,
      "velocity": 96,
      "chip": "ym2612"
    },
    {
      "channel": 1,
      "note": 60,
      "start": 15.2439,
      "duration": 0.0509,
      "velocity": 83,
      "chip": "ym2612"
    },
    {
      "channel": 2,
      "note": 76,
      "start": 15.2447,
      "duration": 0.0257,
      "velocity": 101,
      "chip": "ym2612"
    },
    {
      "channel": 0,
      "note": 89,
      "start": 15.2699,
      "duration": 0.0241,
      "velocity": 96,
      "chip": "ym2612"
    },
    {
      "channel": 2,
      "note": 77,
      "start": 15.2709,
      "duration": 0.0246,
      "velocity": 101,
      "chip": "ym2612"
    },
    {
      "channel": 0,
      "note": 91,
      "start": 15.2946,
      "duration": 0.3351,
      "velocity": 96,
      "chip": "ym2612"
    },
    {
      "channel": 1,
      "note": 60,
      "start": 15.2954,
      "duration": 0.1076,
      "velocity": 83,
      "chip": "ym2612"
    },
    {
      "channel": 2,
      "note": 79,
      "start": 15.2961,
      "duration": 0.3352,
      "velocity": 101,
      "chip": "ym2612"
    },
    {
      "channel": 1,
      "note": 60,
      "start": 15.4035,
      "duration": 0.074,
      "velocity": 83,
      "chip": "ym2612"
    },
    {
      "channel": 1,
      "note": 60,
      "start": 15.4781,
      "duration": 0.0499,
      "velocity": 83,
      "chip": "ym2612"
    },
    {
      "channel": 1,
      "note": 60,
      "start": 15.5285,
      "duration": 0.102,
      "velocity": 83,
      "chip": "ym2612"
    },
    {
      "channel": 0,
      "note": 93,
      "start": 15.6304,
      "duration": 0.5157,
      "velocity": 96,
      "chip": "ym2612"
    },
    {
      "channel": 1,
      "note": 57,
      "start": 15.6312,
      "duration": 0.0505,
      "velocity": 83,
      "chip": "ym2612"
    },
    {
      "channel": 2,
      "note": 81,
      "start": 15.632,
      "duration": 0.5156,
      "velocity": 101,
      "chip": "ym2612"
    },
    {
      "channel": 3,
      "note": 73,
      "start": 15.6327,
      "duration": 0.5156,
      "velocity": 105,
      "chip": "ym2612"
    },
    {
      "channel": 4,
      "note": 69,
      "start": 15.6335,
      "duration": 0.5155,
      "velocity": 105,
      "chip": "ym2612"
    },
    {
      "channel": 1,
      "note": 57,
      "start": 15.6823,
      "duration": 0.0502,
      "velocity": 83,
      "chip": "ym2612"
    },
    {
      "channel": 1,
      "note": 57,
      "start": 15.733,
      "duration": 0.1073,
      "velocity": 83,
      "chip": "ym2612"
    },
    {
      "channel": 1,
      "note": 57,
      "start": 15.8409,
      "duration": 0.0492,
      "velocity": 83,
      "chip": "ym2612"
    },
    {
      "channel": 1,
      "note": 57,
      "start": 15.8907,
      "duration": 0.049,
      "velocity": 83,
      "chip": "ym2612"
    },
    {
      "channel": 1,
      "note": 57,
      "start": 15.9403,
      "duration": 0.0503,
      "velocity": 83,
      "chip": "ym2612"
    },
    {
      "channel": 1,
      "note": 57,
      "start": 15.9911,
      "duration": 0.1046,
      "velocity": 83,
      "chip": "ym2612"
    },
    {
      "channel": 1,
      "note": 57,
      "start": 16.0963,
      "duration": 0.0505,
      "velocity": 83,
      "chip": "ym2612"
    },
    {
      "channel": 0,
      "note": 91,
      "start": 16.1466,
      "duration": 0.5141,
      "velocity": 96,
      "chip": "ym2612"
    },
    {
      "channel": 1,
      "note": 55,
      "start": 16.1474,
      "duration": 0.0511,
      "velocity": 83,
      "chip": "ym2612"
    },
    {
      "channel": 2,
      "note": 79,
      "start": 16.1481,
      "duration": 0.5141,
      "velocity": 101,
      "chip": "ym2612"
    },
    {
      "channel": 3,
      "note": 71,
      "start": 16.1489,
      "duration": 0.5141,
      "velocity": 105,
      "chip": "ym2612"
    },
    {
      "channel": 4,
      "note": 67,
      "start": 16.1496,
      "duration": 0.5142,
      "velocity": 105,
      "chip": "ym2612"
    },
    {
      "channel": 1,
      "note": 55,
      "start": 16.1991,
      "duration": 0.0496,
      "velocity": 83,
      "chip": "ym2612"
    },
    {
      "channel": 1,
      "note": 55,
      "start": 16.2492,
      "duration": 0.1076,
      "velocity": 83,
      "chip": "ym2612"
    },
    {
      "channel": 1,
      "note": 55,
      "start": 16.3575,
      "duration": 0.0488,
      "velocity": 83,
      "chip": "ym2612"
    },
    {
      "channel": 1,
      "note": 55,
      "start": 16.4068,
      "duration": 0.0494,
      "velocity": 83,
      "chip": "ym2612"
    },
    {
      "channel": 1,
      "note": 55,
      "start": 16.4575,
      "duration": 0.0502,
      "velocity": 83,
      "chip": "ym2612"
    },
    {
      "channel": 1,
      "note": 55,
      "start": 16.5082,
      "duration": 0.1032,
      "velocity": 83,
      "chip": "ym2612"
    },
    {
      "channel": 1,
      "note": 55,
      "start": 16.6119,
      "duration": 0.0495,
      "velocity": 83,
      "chip": "ym2612"
    },
    {
      "channel": 0,
      "note": 92,
      "start": 16.6614,
      "duration": 0.5141,
      "velocity": 96,
      "chip": "ym2612"
    },
    {
      "channel": 1,
      "note": 64,
      "start": 16.662,
      "duration": 0.0521,
      "velocity": 83,
      "chip": "ym2612"
    },
    {
      "channel": 2,
      "note": 80,
      "start": 16.6629,
      "duration": 0.5141,
      "velocity": 101,
      "chip": "ym2612"
    },
    {
      "channel": 3,
      "note": 68,
      "start": 16.6636,
      "duration": 0.5141,
      "velocity": 105,
      "chip": "ym2612"
    },
    {
      "channel": 4,
      "note": 64,
      "start": 16.6643,
      "duration": 0.5142,
      "velocity": 105,
      "chip": "ym2612"
    },
    {
      "channel": 1,
      "note": 64,
      "start": 16.7148,
      "duration": 0.0494,
      "velocity": 83,
      "chip": "ym2612"
    },
    {
      "channel": 1,
      "note": 64,
      "start": 16.7649,
      "duration": 0.1036,
      "velocity": 83,
      "chip": "ym2612"
    },
    {
      "channel": 1,
      "note": 64,
      "start": 16.869,
      "duration": 0.0494,
      "velocity": 83,
      "chip": "ym2612"
    },
    {
      "channel": 1,
      "note": 64,
      "start": 16.919,
      "duration": 0.0484,
      "velocity": 83,
      "chip": "ym2612"
    },
    {
      "channel": 1,
      "note": 64,
      "start": 16.968,
      "duration": 0.0504,
      "velocity": 83,
      "chip": "ym2612"
    },
    {
      "channel": 1,
      "note": 64,
      "start": 17.019,
      "duration": 0.106,
      "velocity": 83,
      "chip": "ym2612"
    },
    {
      "channel": 1,
      "note": 64,
      "start": 17.1256,
      "duration": 0.0507,
      "velocity": 83,
      "chip": "ym2612"
    },
    {
      "channel": 0,
      "note": 88,
      "start": 17.1761,
      "duration": 0.5919,
      "velocity": 96,
      "chip": "ym2612"
    },
    {
      "channel": 1,
      "note": 52,
      "start": 17.1768,
      "duration": 0.0512,
      "velocity": 83,
      "chip": "ym2612"
    },
    {
      "channel": 2,
      "note": 76,
      "start": 17.1776,
      "duration": 0.5945,
      "velocity": 101,
      "chip": "ym2612"
    },
    {
      "channel": 3,
      "note": 68,
      "start": 17.1783,
      "duration": 0.5969,
      "velocity": 105,
      "chip": "ym2612"
    },
    {
      "channel": 4,
      "note": 64,
      "start": 17.1791,
      "duration": 0.6004,
      "velocity": 105,
      "chip": "ym2612"
    },
    {
      "channel": 1,
      "note": 52,
      "start": 17.2286,
      "duration": 0.0496,
      "velocity": 83,
      "chip": "ym2612"
    },
    {
      "channel": 1,
      "note": 52,
      "start": 17.2788,
      "duration": 0.1017,
      "velocity": 83,
      "chip": "ym2612"
    },
    {
      "channel": 1,
      "note": 52,
      "start": 17.381,
      "duration": 0.0499,
      "velocity": 83,
      "chip": "ym2612"
    },
    {
      "channel": 1,
      "note": 52,
      "start": 17.4315,
      "duration": 0.1063,
      "velocity": 83,
      "chip": "ym2612"
    },
    {
      "channel": 1,
      "note": 52,
      "start": 17.5384,
      "duration": 0.0762,
      "velocity": 83,
      "chip": "ym2612"
    },
    {
      "channel": 1,
      "note": 52,
      "start": 17.6151,
      "duration": 0.0492,
      "velocity": 83,
      "chip": "ym2612"
    },
    {
      "channel": 1,
      "note": 52,
      "start": 17.6649,
      "duration": 0.1036,
      "velocity": 83,
      "chip": "ym2612"
    },
    {
      "channel": 1,
      "note": 57,
      "start": 17.769,
      "duration": 0.0549,
      "velocity": 83,
      "chip": "ym2612"
    },
    {
      "channel": 3,
      "note": 69,
      "start": 17.7758,
      "duration": 0.026,
      "velocity": 105,
      "chip": "ym2612"
    },
    {
      "channel": 4,
      "note": 63,
      "start": 17.78,
      "duration": 0.0225,
      "velocity": 105,
      "chip": "ym2612"
    },
    {
      "channel": 3,
      "note": 69,
      "start": 17.8024,
      "duration": 0.0224,
      "velocity": 105,
      "chip": "ym2612"
    },
    {
      "channel": 4,
      "note": 63,
      "start": 17.8032,
      "duration": 0.0225,
      "velocity": 105,
      "chip": "ym2612"
    },
    {
      "channel": 1,
      "note": 63,
      "start": 17.8246,
      "duration": 29.7798,
      "velocity": 83,
      "chip": "ym2612"
    },
    {
      "channel": 3,
      "note": 69,
      "start": 17.8254,
      "duration": 0.0209,
      "velocity": 105,
      "chip": "ym2612"
    },
    {
      "channel": 4,
      "note": 63,
      "start": 17.8262,
      "duration": 0.0209,
      "velocity": 105,
      "chip": "ym2612"
    },
    {
      "channel": 3,
      "note": 69,
      "start": 17.8469,
      "duration": 29.7574,
      "velocity": 105,
      "chip": "ym2612"
    },
    {
      "channel": 4,
      "note": 63,
      "start": 17.8477,
      "duration": 29.7567,
      "velocity": 105,
      "chip": "ym2612"
    }
  ]
}