{
  "track_name": "08 - Infiltration",
  "duration_sec": 30.379,
  "sample_rate": 44100,
  "note_count": 187,
  "unique_pitches": 12,
  "pitch_range": 40,
  "avg_note_duration": 0.3692,
  "reconstruction_stats": {
    "notes_reconstructed": 187,
    "keyon_events": 187,
    "keyoff_events": 187,
    "orphan_keyons": 0,
    "unique_pitches": 12,
    "pitch_range": 40,
    "avg_duration_sec": 0.3692
  },
  "metadata": {
    "source": "S\\Shadowrun (GEN)\\08 - Infiltration.vgz"
  },
  "notes": [
    {
      "channel": 0,
      "note": 49,
      "start": 0.0,
      "duration": 3.2928,
      "velocity": 104,
      "chip": "ym2612"
    },
    {
      "channel": 1,
      "note": 74,
      "start": 0.005,
      "duration": 0.4046,
      "velocity": 121,
      "chip": "ym2612"
    },
    {
      "channel": 1,
      "note": 74,
      "start": 0.4129,
      "duration": 0.2134,
      "velocity": 121,
      "chip": "ym2612"
    },
    {
      "channel": 1,
      "note": 74,
      "start": 0.6298,
      "duration": 0.4131,
      "velocity": 121,
      "chip": "ym2612"
    },
    {
      "channel": 1,
      "note": 74,
      "start": 1.0461,
      "duration": 0.1968,
      "velocity": 121,
      "chip": "ym2612"
    },
    {
      "channel": 1,
      "note": 74,
      "start": 1.2457,
      "duration": 0.2138,
      "velocity": 121,
      "chip": "ym2612"
    },
    {
      "channel": 1,
      "note": 74,
      "start": 1.4625,
      "duration": 0.1971,
      "velocity": 121,
      "chip": "ym2612"
    },
    {
      "channel": 1,
      "note": 74,
      "start": 1.6627,
      "duration": 0.4135,
      "velocity": 121,
      "chip": "ym2612"
    },
    {
      "channel": 5,
      "note": 49,
      "start": 1.6672,
      "duration": 0.2092,
      "velocity": 125,
      "chip": "ym2612"
    },
    {
      "channel": 3,
      "note": 59,
      "start": 1.6718,
      "duration": 0.2044,
      "velocity": 90,
      "chip": "ym2612"
    },
    {
      "channel": 5,
      "note": 49,
      "start": 1.8801,
      "duration": 0.1963,
      "velocity": 125,
      "chip": "ym2612"
    },
    {
      "channel": 1,
      "note": 74,
      "start": 2.0795,
      "duration": 0.2134,
      "velocity": 121,
      "chip": "ym2612"
    },
    {
      "channel": 1,
      "note": 74,
      "start": 2.2961,
      "duration": 0.3968,
      "velocity": 121,
      "chip": "ym2612"
    },
    {
      "channel": 4,
      "note": 55,
      "start": 2.498,
      "duration": 0.195,
      "velocity": 105,
      "chip": "ym2612"
    },
    {
      "channel": 1,
      "note": 74,
      "start": 2.6965,
      "duration": 0.213,
      "velocity": 121,
      "chip": "ym2612"
    },
    {
      "channel": 4,
      "note": 55,
      "start": 2.6998,
      "duration": 0.2098,
      "velocity": 105,
      "chip": "ym2612"
    },
    {
      "channel": 1,
      "note": 74,
      "start": 2.9125,
      "duration": 0.1971,
      "velocity": 121,
      "chip": "ym2612"
    },
    {
      "channel": 1,
      "note": 74,
      "start": 3.1125,
      "duration": 0.2138,
      "velocity": 121,
      "chip": "ym2612"
    },
    {
      "channel": 1,
      "note": 74,
      "start": 3.3295,
      "duration": 0.4134,
      "velocity": 121,
      "chip": "ym2612"
    },
    {
      "channel": 1,
      "note": 74,
      "start": 3.746,
      "duration": 0.1969,
      "velocity": 121,
      "chip": "ym2612"
    },
    {
      "channel": 1,
      "note": 74,
      "start": 3.9462,
      "duration": 0.4134,
      "velocity": 121,
      "chip": "ym2612"
    },
    {
      "channel": 1,
      "note": 74,
      "start": 4.3632,
      "duration": 0.213,
      "velocity": 121,
      "chip": "ym2612"
    },
    {
      "channel": 1,
      "note": 74,
      "start": 4.5792,
      "duration": 0.1971,
      "velocity": 121,
      "chip": "ym2612"
    },
    {
      "channel": 1,
      "note": 74,
      "start": 4.7792,
      "duration": 0.2137,
      "velocity": 121,
      "chip": "ym2612"
    },
    {
      "channel": 1,
      "note": 74,
      "start": 4.9961,
      "duration": 0.4134,
      "velocity": 121,
      "chip": "ym2612"
    },
    {
      "channel": 5,
      "note": 49,
      "start": 4.9988,
      "duration": 0.1943,
      "velocity": 125,
      "chip": "ym2612"
    },
    {
      "channel": 3,
      "note": 59,
      "start": 5.0015,
      "duration": 0.1915,
      "velocity": 90,
      "chip": "ym2612"
    },
    {
      "channel": 5,
      "note": 49,
      "start": 5.1965,
      "duration": 0.2132,
      "velocity": 125,
      "chip": "ym2612"
    },
    {
      "channel": 1,
      "note": 74,
      "start": 5.4129,
      "duration": 0.1967,
      "velocity": 121,
      "chip": "ym2612"
    },
    {
      "channel": 1,
      "note": 74,
      "start": 5.6128,
      "duration": 0.4134,
      "velocity": 121,
      "chip": "ym2612"
    },
    {
      "channel": 4,
      "note": 56,
      "start": 5.8295,
      "duration": 0.1969,
      "velocity": 105,
      "chip": "ym2612"
    },
    {
      "channel": 1,
      "note": 74,
      "start": 6.0295,
      "duration": 0.2133,
      "velocity": 121,
      "chip": "ym2612"
    },
    {
      "channel": 4,
      "note": 56,
      "start": 6.0324,
      "duration": 0.2105,
      "velocity": 105,
      "chip": "ym2612"
    },
    {
      "channel": 1,
      "note": 74,
      "start": 6.2459,
      "duration": 0.197,
      "velocity": 121,
      "chip": "ym2612"
    },
    {
      "channel": 1,
      "note": 74,
      "start": 6.4462,
      "duration": 0.2134,
      "velocity": 121,
      "chip": "ym2612"
    },
    {
      "channel": 0,
      "note": 49,
      "start": 6.6629,
      "duration": 3.3299,
      "velocity": 104,
      "chip": "ym2612"
    },
    {
      "channel": 1,
      "note": 74,
      "start": 6.6656,
      "duration": 0.4106,
      "velocity": 121,
      "chip": "ym2612"
    },
    {
      "channel": 2,
      "note": 49,
      "start": 6.6705,
      "duration": 0.4061,
      "velocity": 104,
      "chip": "ym2612"
    },
    {
      "channel": 1,
      "note": 74,
      "start": 7.0795,
      "duration": 0.1967,
      "velocity": 121,
      "chip": "ym2612"
    },
    {
      "channel": 2,
      "note": 51,
      "start": 7.0832,
      "duration": 0.1933,
      "velocity": 104,
      "chip": "ym2612"
    },
    {
      "channel": 1,
      "note": 74,
      "start": 7.2795,
      "duration": 0.4134,
      "velocity": 121,
      "chip": "ym2612"
    },
    {
      "channel": 2,
      "note": 52,
      "start": 7.2828,
      "duration": 0.4104,
      "velocity": 104,
      "chip": "ym2612"
    },
    {
      "channel": 1,
      "note": 74,
      "start": 7.6961,
      "duration": 0.2134,
      "velocity": 121,
      "chip": "ym2612"
    },
    {
      "channel": 2,
      "note": 54,
      "start": 7.6994,
      "duration": 0.2104,
      "velocity": 104,
      "chip": "ym2612"
    },
    {
      "channel": 1,
      "note": 74,
      "start": 7.9125,
      "duration": 0.1971,
      "velocity": 121,
      "chip": "ym2612"
    },
    {
      "channel": 2,
      "note": 52,
      "start": 7.9155,
      "duration": 0.1944,
      "velocity": 104,
      "chip": "ym2612"
    },
    {
      "channel": 1,
      "note": 74,
      "start": 8.1126,
      "duration": 0.2137,
      "velocity": 121,
      "chip": "ym2612"
    },
    {
      "channel": 2,
      "note": 51,
      "start": 8.1156,
      "duration": 0.211,
      "velocity": 104,
      "chip": "ym2612"
    },
    {
      "channel": 1,
      "note": 74,
      "start": 8.3299,
      "duration": 0.413,
      "velocity": 121,
      "chip": "ym2612"
    },
    {
      "channel": 5,
      "note": 49,
      "start": 8.3327,
      "duration": 0.1938,
      "velocity": 125,
      "chip": "ym2612"
    },
    {
      "channel": 3,
      "note": 59,
      "start": 8.3356,
      "duration": 0.1907,
      "velocity": 90,
      "chip": "ym2612"
    },
    {
      "channel": 2,
      "note": 52,
      "start": 8.3385,
      "duration": 0.4047,
      "velocity": 104,
      "chip": "ym2612"
    },
    {
      "channel": 5,
      "note": 49,
      "start": 8.5298,
      "duration": 0.2133,
      "velocity": 125,
      "chip": "ym2612"
    },
    {
      "channel": 1,
      "note": 74,
      "start": 8.7463,
      "duration": 0.1966,
      "velocity": 121,
      "chip": "ym2612"
    },
    {
      "channel": 2,
      "note": 51,
      "start": 8.7496,
      "duration": 0.1936,
      "velocity": 104,
      "chip": "ym2612"
    },
    {
      "channel": 1,
      "note": 74,
      "start": 8.9462,
      "duration": 0.4134,
      "velocity": 121,
      "chip": "ym2612"
    },
    {
      "channel": 2,
      "note": 52,
      "start": 8.9499,
      "duration": 0.4101,
      "velocity": 104,
      "chip": "ym2612"
    },
    {
      "channel": 4,
      "note": 55,
      "start": 9.1628,
      "duration": 0.1969,
      "velocity": 105,
      "chip": "ym2612"
    },
    {
      "channel": 1,
      "note": 74,
      "start": 9.363,
      "duration": 0.2133,
      "velocity": 121,
      "chip": "ym2612"
    },
    {
      "channel": 4,
      "note": 55,
      "start": 9.3659,
      "duration": 0.2105,
      "velocity": 105,
      "chip": "ym2612"
    },
    {
      "channel": 2,
      "note": 51,
      "start": 9.369,
      "duration": 0.2076,
      "velocity": 104,
      "chip": "ym2612"
    },
    {
      "channel": 1,
      "note": 74,
      "start": 9.5793,
      "duration": 0.1969,
      "velocity": 121,
      "chip": "ym2612"
    },
    {
      "channel": 2,
      "note": 49,
      "start": 9.5823,
      "duration": 0.1941,
      "velocity": 104,
      "chip": "ym2612"
    },
    {
      "channel": 1,
      "note": 74,
      "start": 9.7792,
      "duration": 0.2137,
      "velocity": 121,
      "chip": "ym2612"
    },
    {
      "channel": 2,
      "note": 47,
      "start": 9.7825,
      "duration": 0.2107,
      "velocity": 104,
      "chip": "ym2612"
    },
    {
      "channel": 1,
      "note": 74,
      "start": 9.9962,
      "duration": 0.4133,
      "velocity": 121,
      "chip": "ym2612"
    },
    {
      "channel": 3,
      "note": 61,
      "start": 10.0012,
      "duration": 0.1917,
      "velocity": 86,
      "chip": "ym2612"
    },
    {
      "channel": 3,
      "note": 49,
      "start": 10.197,
      "duration": 0.2127,
      "velocity": 86,
      "chip": "ym2612"
    },
    {
      "channel": 1,
      "note": 74,
      "start": 10.4132,
      "duration": 0.1963,
      "velocity": 121,
      "chip": "ym2612"
    },
    {
      "channel": 1,
      "note": 74,
      "start": 10.6127,
      "duration": 0.4135,
      "velocity": 121,
      "chip": "ym2612"
    },
    {
      "channel": 1,
      "note": 74,
      "start": 11.0295,
      "duration": 0.1968,
      "velocity": 121,
      "chip": "ym2612"
    },
    {
      "channel": 1,
      "note": 74,
      "start": 11.2291,
      "duration": 0.2137,
      "velocity": 121,
      "chip": "ym2612"
    },
    {
      "channel": 1,
      "note": 74,
      "start": 11.4458,
      "duration": 0.1971,
      "velocity": 121,
      "chip": "ym2612"
    },
    {
      "channel": 1,
      "note": 74,
      "start": 11.6462,
      "duration": 0.4133,
      "velocity": 121,
      "chip": "ym2612"
    },
    {
      "channel": 5,
      "note": 49,
      "start": 11.6489,
      "duration": 0.2109,
      "velocity": 125,
      "chip": "ym2612"
    },
    {
      "channel": 4,
      "note": 59,
      "start": 11.6517,
      "duration": 0.2079,
      "velocity": 90,
      "chip": "ym2612"
    },
    {
      "channel": 5,
      "note": 49,
      "start": 11.8632,
      "duration": 0.1966,
      "velocity": 125,
      "chip": "ym2612"
    },
    {
      "channel": 1,
      "note": 74,
      "start": 12.0632,
      "duration": 0.2131,
      "velocity": 121,
      "chip": "ym2612"
    },
    {
      "channel": 1,
      "note": 74,
      "start": 12.2795,
      "duration": 0.4134,
      "velocity": 121,
      "chip": "ym2612"
    },
    {
      "channel": 0,
      "note": 56,
      "start": 12.4796,
      "duration": 0.2132,
      "velocity": 105,
      "chip": "ym2612"
    },
    {
      "channel": 1,
      "note": 74,
      "start": 12.6962,
      "duration": 0.1968,
      "velocity": 121,
      "chip": "ym2612"
    },
    {
      "channel": 0,
      "note": 56,
      "start": 12.6989,
      "duration": 0.1939,
      "velocity": 105,
      "chip": "ym2612"
    },
    {
      "channel": 1,
      "note": 74,
      "start": 12.8959,
      "duration": 0.2137,
      "velocity": 121,
      "chip": "ym2612"
    },
    {
      "channel": 1,
      "note": 74,
      "start": 13.1125,
      "duration": 0.197,
      "velocity": 121,
      "chip": "ym2612"
    },
    {
      "channel": 2,
      "note": 49,
      "start": 13.3136,
      "duration": 3.3461,
      "velocity": 104,
      "chip": "ym2612"
    },
    {
      "channel": 1,
      "note": 74,
      "start": 13.3163,
      "duration": 0.41,
      "velocity": 121,
      "chip": "ym2612"
    },
    {
      "channel": 3,
      "note": 49,
      "start": 13.3195,
      "duration": 0.4069,
      "velocity": 104,
      "chip": "ym2612"
    },
    {
      "channel": 1,
      "note": 74,
      "start": 13.7296,
      "duration": 0.2134,
      "velocity": 121,
      "chip": "ym2612"
    },
    {
      "channel": 3,
      "note": 51,
      "start": 13.7327,
      "duration": 0.2104,
      "velocity": 104,
      "chip": "ym2612"
    },
    {
      "channel": 1,
      "note": 74,
      "start": 13.9466,
      "duration": 0.413,
      "velocity": 121,
      "chip": "ym2612"
    },
    {
      "channel": 3,
      "note": 52,
      "start": 13.9501,
      "duration": 0.4097,
      "velocity": 104,
      "chip": "ym2612"
    },
    {
      "channel": 1,
      "note": 74,
      "start": 14.3629,
      "duration": 0.1967,
      "velocity": 121,
      "chip": "ym2612"
    },
    {
      "channel": 3,
      "note": 54,
      "start": 14.366,
      "duration": 0.1938,
      "velocity": 104,
      "chip": "ym2612"
    },
    {
      "channel": 1,
      "note": 74,
      "start": 14.5626,
      "duration": 0.2137,
      "velocity": 121,
      "chip": "ym2612"
    },
    {
      "channel": 3,
      "note": 52,
      "start": 14.5655,
      "duration": 0.2109,
      "velocity": 104,
      "chip": "ym2612"
    },
    {
      "channel": 1,
      "note": 74,
      "start": 14.7793,
      "duration": 0.197,
      "velocity": 121,
      "chip": "ym2612"
    },
    {
      "channel": 3,
      "note": 51,
      "start": 14.7821,
      "duration": 0.1943,
      "velocity": 104,
      "chip": "ym2612"
    },
    {
      "channel": 1,
      "note": 74,
      "start": 14.9796,
      "duration": 0.4133,
      "velocity": 121,
      "chip": "ym2612"
    },
    {
      "channel": 5,
      "note": 49,
      "start": 14.9827,
      "duration": 0.2104,
      "velocity": 125,
      "chip": "ym2612"
    },
    {
      "channel": 4,
      "note": 59,
      "start": 14.9853,
      "duration": 0.2076,
      "velocity": 90,
      "chip": "ym2612"
    },
    {
      "channel": 3,
      "note": 52,
      "start": 14.9881,
      "duration": 0.4049,
      "velocity": 104,
      "chip": "ym2612"
    },
    {
      "channel": 5,
      "note": 49,
      "start": 15.1964,
      "duration": 0.1968,
      "velocity": 125,
      "chip": "ym2612"
    },
    {
      "channel": 1,
      "note": 74,
      "start": 15.3963,
      "duration": 0.2132,
      "velocity": 121,
      "chip": "ym2612"
    },
    {
      "channel": 3,
      "note": 51,
      "start": 15.3994,
      "duration": 0.2103,
      "velocity": 104,
      "chip": "ym2612"
    },
    {
      "channel": 1,
      "note": 74,
      "start": 15.6129,
      "duration": 0.4135,
      "velocity": 121,
      "chip": "ym2612"
    },
    {
      "channel": 3,
      "note": 52,
      "start": 15.6159,
      "duration": 0.4106,
      "velocity": 104,
      "chip": "ym2612"
    },
    {
      "channel": 0,
      "note": 55,
      "start": 15.8131,
      "duration": 0.2131,
      "velocity": 105,
      "chip": "ym2612"
    },
    {
      "channel": 1,
      "note": 74,
      "start": 16.0301,
      "duration": 0.1962,
      "velocity": 121,
      "chip": "ym2612"
    },
    {
      "channel": 0,
      "note": 55,
      "start": 16.0328,
      "duration": 0.1934,
      "velocity": 105,
      "chip": "ym2612"
    },
    {
      "channel": 3,
      "note": 51,
      "start": 16.0361,
      "duration": 0.1904,
      "velocity": 104,
      "chip": "ym2612"
    },
    {
      "channel": 1,
      "note": 74,
      "start": 16.2293,
      "duration": 0.2136,
      "velocity": 121,
      "chip": "ym2612"
    },
    {
      "channel": 3,
      "note": 49,
      "start": 16.2322,
      "duration": 0.2109,
      "velocity": 104,
      "chip": "ym2612"
    },
    {
      "channel": 1,
      "note": 74,
      "start": 16.4459,
      "duration": 0.197,
      "velocity": 121,
      "chip": "ym2612"
    },
    {
      "channel": 3,
      "note": 47,
      "start": 16.449,
      "duration": 0.194,
      "velocity": 104,
      "chip": "ym2612"
    },
    {
      "channel": 1,
      "note": 74,
      "start": 16.6462,
      "duration": 0.4132,
      "velocity": 121,
      "chip": "ym2612"
    },
    {
      "channel": 4,
      "note": 61,
      "start": 16.6494,
      "duration": 0.2102,
      "velocity": 86,
      "chip": "ym2612"
    },
    {
      "channel": 4,
      "note": 49,
      "start": 16.8634,
      "duration": 0.1962,
      "velocity": 86,
      "chip": "ym2612"
    },
    {
      "channel": 1,
      "note": 74,
      "start": 17.0629,
      "duration": 0.2133,
      "velocity": 121,
      "chip": "ym2612"
    },
    {
      "channel": 1,
      "note": 74,
      "start": 17.2794,
      "duration": 0.4136,
      "velocity": 121,
      "chip": "ym2612"
    },
    {
      "channel": 1,
      "note": 74,
      "start": 17.6965,
      "duration": 0.1963,
      "velocity": 121,
      "chip": "ym2612"
    },
    {
      "channel": 1,
      "note": 74,
      "start": 17.8958,
      "duration": 0.2137,
      "velocity": 121,
      "chip": "ym2612"
    },
    {
      "channel": 1,
      "note": 74,
      "start": 18.1125,
      "duration": 0.1971,
      "velocity": 121,
      "chip": "ym2612"
    },
    {
      "channel": 1,
      "note": 74,
      "start": 18.3129,
      "duration": 0.4134,
      "velocity": 121,
      "chip": "ym2612"
    },
    {
      "channel": 5,
      "note": 49,
      "start": 18.3156,
      "duration": 0.2108,
      "velocity": 125,
      "chip": "ym2612"
    },
    {
      "channel": 0,
      "note": 59,
      "start": 18.3186,
      "duration": 0.2075,
      "velocity": 90,
      "chip": "ym2612"
    },
    {
      "channel": 5,
      "note": 49,
      "start": 18.5298,
      "duration": 0.1967,
      "velocity": 125,
      "chip": "ym2612"
    },
    {
      "channel": 1,
      "note": 74,
      "start": 18.7296,
      "duration": 0.2133,
      "velocity": 121,
      "chip": "ym2612"
    },
    {
      "channel": 1,
      "note": 74,
      "start": 18.9461,
      "duration": 0.4134,
      "velocity": 121,
      "chip": "ym2612"
    },
    {
      "channel": 3,
      "note": 56,
      "start": 19.1464,
      "duration": 0.2133,
      "velocity": 105,
      "chip": "ym2612"
    },
    {
      "channel": 1,
      "note": 74,
      "start": 19.3629,
      "duration": 0.1966,
      "velocity": 121,
      "chip": "ym2612"
    },
    {
      "channel": 3,
      "note": 56,
      "start": 19.3658,
      "duration": 0.1939,
      "velocity": 105,
      "chip": "ym2612"
    },
    {
      "channel": 1,
      "note": 74,
      "start": 19.5625,
      "duration": 0.197,
      "velocity": 121,
      "chip": "ym2612"
    },
    {
      "channel": 1,
      "note": 74,
      "start": 19.7629,
      "duration": 0.2134,
      "velocity": 121,
      "chip": "ym2612"
    },
    {
      "channel": 1,
      "note": 74,
      "start": 19.9795,
      "duration": 0.4134,
      "velocity": 121,
      "chip": "ym2612"
    },
    {
      "channel": 2,
      "note": 47,
      "start": 19.985,
      "duration": 6.6416,
      "velocity": 117,
      "chip": "ym2612"
    },
    {
      "channel": 1,
      "note": 74,
      "start": 20.3961,
      "duration": 0.1968,
      "velocity": 121,
      "chip": "ym2612"
    },
    {
      "channel": 1,
      "note": 74,
      "start": 20.5961,
      "duration": 0.4134,
      "velocity": 121,
      "chip": "ym2612"
    },
    {
      "channel": 1,
      "note": 74,
      "start": 21.0127,
      "duration": 0.2134,
      "velocity": 121,
      "chip": "ym2612"
    },
    {
      "channel": 1,
      "note": 74,
      "start": 21.2291,
      "duration": 0.1971,
      "velocity": 121,
      "chip": "ym2612"
    },
    {
      "channel": 1,
      "note": 74,
      "start": 21.4292,
      "duration": 0.2136,
      "velocity": 121,
      "chip": "ym2612"
    },
    {
      "channel": 1,
      "note": 74,
      "start": 21.6464,
      "duration": 0.4131,
      "velocity": 121,
      "chip": "ym2612"
    },
    {
      "channel": 5,
      "note": 49,
      "start": 21.6492,
      "duration": 0.1939,
      "velocity": 125,
      "chip": "ym2612"
    },
    {
      "channel": 5,
      "note": 49,
      "start": 21.8464,
      "duration": 0.2134,
      "velocity": 125,
      "chip": "ym2612"
    },
    {
      "channel": 1,
      "note": 74,
      "start": 22.0629,
      "duration": 0.1966,
      "velocity": 121,
      "chip": "ym2612"
    },
    {
      "channel": 1,
      "note": 74,
      "start": 22.2628,
      "duration": 0.4134,
      "velocity": 121,
      "chip": "ym2612"
    },
    {
      "channel": 3,
      "note": 55,
      "start": 22.4795,
      "duration": 0.1968,
      "velocity": 105,
      "chip": "ym2612"
    },
    {
      "channel": 1,
      "note": 74,
      "start": 22.6795,
      "duration": 0.2134,
      "velocity": 121,
      "chip": "ym2612"
    },
    {
      "channel": 3,
      "note": 55,
      "start": 22.6824,
      "duration": 0.2107,
      "velocity": 105,
      "chip": "ym2612"
    },
    {
      "channel": 1,
      "note": 74,
      "start": 22.8959,
      "duration": 0.197,
      "velocity": 121,
      "chip": "ym2612"
    },
    {
      "channel": 1,
      "note": 74,
      "start": 23.0959,
      "duration": 0.2137,
      "velocity": 121,
      "chip": "ym2612"
    },
    {
      "channel": 1,
      "note": 74,
      "start": 23.3128,
      "duration": 0.4134,
      "velocity": 121,
      "chip": "ym2612"
    },
    {
      "channel": 0,
      "note": 83,
      "start": 23.3299,
      "duration": 2.9296,
      "velocity": 90,
      "chip": "ym2612"
    },
    {
      "channel": 1,
      "note": 74,
      "start": 23.7298,
      "duration": 0.1965,
      "velocity": 121,
      "chip": "ym2612"
    },
    {
      "channel": 1,
      "note": 74,
      "start": 23.9295,
      "duration": 0.4135,
      "velocity": 121,
      "chip": "ym2612"
    },
    {
      "channel": 1,
      "note": 74,
      "start": 24.3461,
      "duration": 0.2135,
      "velocity": 121,
      "chip": "ym2612"
    },
    {
      "channel": 1,
      "note": 74,
      "start": 24.5625,
      "duration": 0.197,
      "velocity": 121,
      "chip": "ym2612"
    },
    {
      "channel": 1,
      "note": 74,
      "start": 24.7625,
      "duration": 0.2137,
      "velocity": 121,
      "chip": "ym2612"
    },
    {
      "channel": 1,
      "note": 74,
      "start": 24.9794,
      "duration": 0.4136,
      "velocity": 121,
      "chip": "ym2612"
    },
    {
      "channel": 5,
      "note": 49,
      "start": 24.9825,
      "duration": 0.1939,
      "velocity": 125,
      "chip": "ym2612"
    },
    {
      "channel": 5,
      "note": 49,
      "start": 25.1797,
      "duration": 0.2134,
      "velocity": 125,
      "chip": "ym2612"
    },
    {
      "channel": 1,
      "note": 74,
      "start": 25.3966,
      "duration": 0.1964,
      "velocity": 121,
      "chip": "ym2612"
    },
    {
      "channel": 1,
      "note": 74,
      "start": 25.5961,
      "duration": 0.4134,
      "velocity": 121,
      "chip": "ym2612"
    },
    {
      "channel": 3,
      "note": 56,
      "start": 25.8132,
      "duration": 0.1965,
      "velocity": 105,
      "chip": "ym2612"
    },
    {
      "channel": 1,
      "note": 74,
      "start": 26.0128,
      "duration": 0.2135,
      "velocity": 121,
      "chip": "ym2612"
    },
    {
      "channel": 3,
      "note": 56,
      "start": 26.0155,
      "duration": 0.2109,
      "velocity": 105,
      "chip": "ym2612"
    },
    {
      "channel": 1,
      "note": 74,
      "start": 26.2293,
      "duration": 0.197,
      "velocity": 121,
      "chip": "ym2612"
    },
    {
      "channel": 1,
      "note": 74,
      "start": 26.4293,
      "duration": 0.197,
      "velocity": 121,
      "chip": "ym2612"
    },
    {
      "channel": 0,
      "note": 87,
      "start": 26.4322,
      "duration": 0.194,
      "velocity": 90,
      "chip": "ym2612"
    },
    {
      "channel": 4,
      "note": 49,
      "start": 26.6492,
      "duration": 3.2771,
      "velocity": 104,
      "chip": "ym2612"
    },
    {
      "channel": 1,
      "note": 74,
      "start": 26.6544,
      "duration": 0.4052,
      "velocity": 121,
      "chip": "ym2612"
    },
    {
      "channel": 1,
      "note": 74,
      "start": 27.0629,
      "duration": 0.1966,
      "velocity": 121,
      "chip": "ym2612"
    },
    {
      "channel": 1,
      "note": 74,
      "start": 27.2627,
      "duration": 0.4134,
      "velocity": 121,
      "chip": "ym2612"
    },
    {
      "channel": 1,
      "note": 74,
      "start": 27.6798,
      "duration": 0.2131,
      "velocity": 121,
      "chip": "ym2612"
    },
    {
      "channel": 1,
      "note": 74,
      "start": 27.8958,
      "duration": 0.197,
      "velocity": 121,
      "chip": "ym2612"
    },
    {
      "channel": 1,
      "note": 74,
      "start": 28.0958,
      "duration": 0.1971,
      "velocity": 121,
      "chip": "ym2612"
    },
    {
      "channel": 1,
      "note": 74,
      "start": 28.2961,
      "duration": 0.4134,
      "velocity": 121,
      "chip": "ym2612"
    },
    {
      "channel": 5,
      "note": 49,
      "start": 28.3006,
      "duration": 0.2092,
      "velocity": 125,
      "chip": "ym2612"
    },
    {
      "channel": 0,
      "note": 59,
      "start": 28.3051,
      "duration": 0.2044,
      "velocity": 90,
      "chip": "ym2612"
    },
    {
      "channel": 5,
      "note": 49,
      "start": 28.5132,
      "duration": 0.1966,
      "velocity": 125,
      "chip": "ym2612"
    },
    {
      "channel": 1,
      "note": 74,
      "start": 28.7129,
      "duration": 0.2134,
      "velocity": 121,
      "chip": "ym2612"
    },
    {
      "channel": 1,
      "note": 74,
      "start": 28.9295,
      "duration": 0.4135,
      "velocity": 121,
      "chip": "ym2612"
    },
    {
      "channel": 3,
      "note": 55,
      "start": 29.1312,
      "duration": 0.2118,
      "velocity": 105,
      "chip": "ym2612"
    },
    {
      "channel": 1,
      "note": 74,
      "start": 29.3466,
      "duration": 0.1964,
      "velocity": 121,
      "chip": "ym2612"
    },
    {
      "channel": 3,
      "note": 55,
      "start": 29.3495,
      "duration": 0.1936,
      "velocity": 105,
      "chip": "ym2612"
    },
    {
      "channel": 1,
      "note": 74,
      "start": 29.5459,
      "duration": 0.2136,
      "velocity": 121,
      "chip": "ym2612"
    },
    {
      "channel": 1,
      "note": 74,
      "start": 29.7625,
      "duration": 0.197,
      "velocity": 121,
      "chip": "ym2612"
    },
    {
      "channel": 1,
      "note": 74,
      "start": 29.9627,
      "duration": 0.4135,
      "velocity": 121,
      "chip": "ym2612"
    }
  ]
}