{
  "track_name": "08 - Train Ride",
  "duration_sec": 105.767,
  "sample_rate": 44100,
  "note_count": 1965,
  "unique_pitches": 46,
  "pitch_range": 48,
  "avg_note_duration": 0.1494,
  "reconstruction_stats": {
    "notes_reconstructed": 1965,
    "keyon_events": 1965,
    "keyoff_events": 1844,
    "orphan_keyons": 2,
    "unique_pitches": 46,
    "pitch_range": 48,
    "avg_duration_sec": 0.1494
  },
  "metadata": {
    "source": "M\\McDonald's Treasure Land Adventure\\08 - Train Ride.vgz"
  },
  "notes": [
    {
      "channel": 0,
      "note": 84,
      "start": 0.0,
      "duration": 0.2489,
      "velocity": 96,
      "chip": "ym2612"
    },
    {
      "channel": 1,
      "note": 56,
      "start": 0.0009,
      "duration": 0.1148,
      "velocity": 107,
      "chip": "ym2612"
    },
    {
      "channel": 2,
      "note": 80,
      "start": 0.0019,
      "duration": 0.2474,
      "velocity": 107,
      "chip": "ym2612"
    },
    {
      "channel": 0,
      "note": 92,
      "start": 0.2492,
      "duration": 0.083,
      "velocity": 96,
      "chip": "ym2612"
    },
    {
      "channel": 2,
      "note": 87,
      "start": 0.2495,
      "duration": 0.083,
      "velocity": 107,
      "chip": "ym2612"
    },
    {
      "channel": 0,
      "note": 87,
      "start": 0.3324,
      "duration": 0.0832,
      "velocity": 96,
      "chip": "ym2612"
    },
    {
      "channel": 2,
      "note": 84,
      "start": 0.3327,
      "duration": 0.0832,
      "velocity": 107,
      "chip": "ym2612"
    },
    {
      "channel": 0,
      "note": 84,
      "start": 0.4159,
      "duration": 0.0999,
      "velocity": 96,
      "chip": "ym2612"
    },
    {
      "channel": 2,
      "note": 80,
      "start": 0.4161,
      "duration": 0.1001,
      "velocity": 107,
      "chip": "ym2612"
    },
    {
      "channel": 0,
      "note": 82,
      "start": 0.5159,
      "duration": 0.2661,
      "velocity": 96,
      "chip": "ym2612"
    },
    {
      "channel": 1,
      "note": 54,
      "start": 0.5162,
      "duration": 0.116,
      "velocity": 107,
      "chip": "ym2612"
    },
    {
      "channel": 2,
      "note": 78,
      "start": 0.5164,
      "duration": 0.266,
      "velocity": 107,
      "chip": "ym2612"
    },
    {
      "channel": 0,
      "note": 94,
      "start": 0.7823,
      "duration": 0.0998,
      "velocity": 96,
      "chip": "ym2612"
    },
    {
      "channel": 2,
      "note": 90,
      "start": 0.7826,
      "duration": 0.0999,
      "velocity": 107,
      "chip": "ym2612"
    },
    {
      "channel": 0,
      "note": 90,
      "start": 0.8823,
      "duration": 0.0997,
      "velocity": 96,
      "chip": "ym2612"
    },
    {
      "channel": 2,
      "note": 85,
      "start": 0.8827,
      "duration": 0.0998,
      "velocity": 107,
      "chip": "ym2612"
    },
    {
      "channel": 0,
      "note": 85,
      "start": 0.9823,
      "duration": 0.0998,
      "velocity": 96,
      "chip": "ym2612"
    },
    {
      "channel": 2,
      "note": 82,
      "start": 0.9826,
      "duration": 0.1,
      "velocity": 107,
      "chip": "ym2612"
    },
    {
      "channel": 0,
      "note": 77,
      "start": 1.0823,
      "duration": 1.1834,
      "velocity": 96,
      "chip": "ym2612"
    },
    {
      "channel": 1,
      "note": 51,
      "start": 1.0825,
      "duration": 1.1834,
      "velocity": 107,
      "chip": "ym2612"
    },
    {
      "channel": 2,
      "note": 73,
      "start": 1.0828,
      "duration": 1.1833,
      "velocity": 107,
      "chip": "ym2612"
    },
    {
      "channel": 3,
      "note": 82,
      "start": 1.3661,
      "duration": 0.0998,
      "velocity": 106,
      "chip": "ym2612"
    },
    {
      "channel": 4,
      "note": 77,
      "start": 1.3664,
      "duration": 0.0998,
      "velocity": 106,
      "chip": "ym2612"
    },
    {
      "channel": 3,
      "note": 84,
      "start": 1.4661,
      "duration": 0.0999,
      "velocity": 106,
      "chip": "ym2612"
    },
    {
      "channel": 4,
      "note": 79,
      "start": 1.4664,
      "duration": 0.0998,
      "velocity": 106,
      "chip": "ym2612"
    },
    {
      "channel": 3,
      "note": 85,
      "start": 1.5662,
      "duration": 0.0999,
      "velocity": 106,
      "chip": "ym2612"
    },
    {
      "channel": 4,
      "note": 80,
      "start": 1.5665,
      "duration": 0.0998,
      "velocity": 106,
      "chip": "ym2612"
    },
    {
      "channel": 3,
      "note": 87,
      "start": 1.6662,
      "duration": 0.0998,
      "velocity": 106,
      "chip": "ym2612"
    },
    {
      "channel": 4,
      "note": 82,
      "start": 1.6665,
      "duration": 0.0998,
      "velocity": 106,
      "chip": "ym2612"
    },
    {
      "channel": 3,
      "note": 85,
      "start": 1.7662,
      "duration": 0.0998,
      "velocity": 106,
      "chip": "ym2612"
    },
    {
      "channel": 4,
      "note": 80,
      "start": 1.7665,
      "duration": 0.0997,
      "velocity": 106,
      "chip": "ym2612"
    },
    {
      "channel": 3,
      "note": 84,
      "start": 1.8662,
      "duration": 0.0999,
      "velocity": 106,
      "chip": "ym2612"
    },
    {
      "channel": 4,
      "note": 79,
      "start": 1.8664,
      "duration": 0.0999,
      "velocity": 106,
      "chip": "ym2612"
    },
    {
      "channel": 3,
      "note": 82,
      "start": 1.9662,
      "duration": 0.3,
      "velocity": 106,
      "chip": "ym2612"
    },
    {
      "channel": 4,
      "note": 77,
      "start": 1.9666,
      "duration": 0.2998,
      "velocity": 106,
      "chip": "ym2612"
    },
    {
      "channel": 0,
      "note": 77,
      "start": 2.2658,
      "duration": 0.0378,
      "velocity": 113,
      "chip": "ym2612"
    },
    {
      "channel": 1,
      "note": 51,
      "start": 2.2659,
      "duration": 0.0385,
      "velocity": 107,
      "chip": "ym2612"
    },
    {
      "channel": 2,
      "note": 73,
      "start": 2.2661,
      "duration": 0.0393,
      "velocity": 100,
      "chip": "ym2612"
    },
    {
      "channel": 3,
      "note": 82,
      "start": 2.2662,
      "duration": 0.0402,
      "velocity": 95,
      "chip": "ym2612"
    },
    {
      "channel": 4,
      "note": 77,
      "start": 2.2664,
      "duration": 0.041,
      "velocity": 104,
      "chip": "ym2612"
    },
    {
      "channel": 1,
      "note": 68,
      "start": 2.3045,
      "duration": 0.1816,
      "velocity": 107,
      "chip": "ym2612"
    },
    {
      "channel": 3,
      "note": 63,
      "start": 2.3065,
      "duration": 0.0798,
      "velocity": 95,
      "chip": "ym2612"
    },
    {
      "channel": 4,
      "note": 56,
      "start": 2.3075,
      "duration": 0.079,
      "velocity": 104,
      "chip": "ym2612"
    },
    {
      "channel": 0,
      "note": 74,
      "start": 2.5363,
      "duration": 0.0165,
      "velocity": 113,
      "chip": "ym2612"
    },
    {
      "channel": 2,
      "note": 71,
      "start": 2.5366,
      "duration": 0.0166,
      "velocity": 100,
      "chip": "ym2612"
    },
    {
      "channel": 0,
      "note": 75,
      "start": 2.5531,
      "duration": 0.3213,
      "velocity": 113,
      "chip": "ym2612"
    },
    {
      "channel": 2,
      "note": 72,
      "start": 2.5534,
      "duration": 0.3214,
      "velocity": 100,
      "chip": "ym2612"
    },
    {
      "channel": 3,
      "note": 65,
      "start": 2.5538,
      "duration": 0.0065,
      "velocity": 95,
      "chip": "ym2612"
    },
    {
      "channel": 4,
      "note": 56,
      "start": 2.5541,
      "duration": 0.0063,
      "velocity": 104,
      "chip": "ym2612"
    },
    {
      "channel": 1,
      "note": 63,
      "start": 2.7082,
      "duration": 0.183,
      "velocity": 107,
      "chip": "ym2612"
    },
    {
      "channel": 3,
      "note": 63,
      "start": 2.7085,
      "duration": 0.0831,
      "velocity": 95,
      "chip": "ym2612"
    },
    {
      "channel": 4,
      "note": 56,
      "start": 2.7087,
      "duration": 0.083,
      "velocity": 104,
      "chip": "ym2612"
    },
    {
      "channel": 0,
      "note": 77,
      "start": 2.8746,
      "duration": 0.2381,
      "velocity": 113,
      "chip": "ym2612"
    },
    {
      "channel": 2,
      "note": 73,
      "start": 2.8751,
      "duration": 0.2382,
      "velocity": 100,
      "chip": "ym2612"
    },
    {
      "channel": 3,
      "note": 65,
      "start": 2.9585,
      "duration": 0.0066,
      "velocity": 95,
      "chip": "ym2612"
    },
    {
      "channel": 4,
      "note": 56,
      "start": 2.9588,
      "duration": 0.0063,
      "velocity": 104,
      "chip": "ym2612"
    },
    {
      "channel": 0,
      "note": 75,
      "start": 3.113,
      "duration": 0.3211,
      "velocity": 113,
      "chip": "ym2612"
    },
    {
      "channel": 1,
      "note": 68,
      "start": 3.1132,
      "duration": 0.183,
      "velocity": 107,
      "chip": "ym2612"
    },
    {
      "channel": 2,
      "note": 72,
      "start": 3.1135,
      "duration": 0.3211,
      "velocity": 100,
      "chip": "ym2612"
    },
    {
      "channel": 3,
      "note": 63,
      "start": 3.1136,
      "duration": 0.0829,
      "velocity": 95,
      "chip": "ym2612"
    },
    {
      "channel": 4,
      "note": 56,
      "start": 3.1138,
      "duration": 0.0829,
      "velocity": 104,
      "chip": "ym2612"
    },
    {
      "channel": 3,
      "note": 65,
      "start": 3.3633,
      "duration": 0.0066,
      "velocity": 95,
      "chip": "ym2612"
    },
    {
      "channel": 4,
      "note": 56,
      "start": 3.3637,
      "duration": 0.0062,
      "velocity": 104,
      "chip": "ym2612"
    },
    {
      "channel": 0,
      "note": 77,
      "start": 3.4344,
      "duration": 0.3332,
      "velocity": 113,
      "chip": "ym2612"
    },
    {
      "channel": 2,
      "note": 73,
      "start": 3.4347,
      "duration": 0.3332,
      "velocity": 100,
      "chip": "ym2612"
    },
    {
      "channel": 1,
      "note": 63,
      "start": 3.5178,
      "duration": 0.1832,
      "velocity": 107,
      "chip": "ym2612"
    },
    {
      "channel": 3,
      "note": 63,
      "start": 3.5181,
      "duration": 0.0832,
      "velocity": 95,
      "chip": "ym2612"
    },
    {
      "channel": 4,
      "note": 56,
      "start": 3.5184,
      "duration": 0.0831,
      "velocity": 104,
      "chip": "ym2612"
    },
    {
      "channel": 0,
      "note": 71,
      "start": 3.7678,
      "duration": 0.0712,
      "velocity": 113,
      "chip": "ym2612"
    },
    {
      "channel": 2,
      "note": 67,
      "start": 3.7682,
      "duration": 0.0713,
      "velocity": 100,
      "chip": "ym2612"
    },
    {
      "channel": 3,
      "note": 65,
      "start": 3.7685,
      "duration": 0.0712,
      "velocity": 95,
      "chip": "ym2612"
    },
    {
      "channel": 4,
      "note": 56,
      "start": 3.7688,
      "duration": 0.0061,
      "velocity": 104,
      "chip": "ym2612"
    },
    {
      "channel": 0,
      "note": 72,
      "start": 3.8393,
      "duration": 0.0833,
      "velocity": 113,
      "chip": "ym2612"
    },
    {
      "channel": 2,
      "note": 68,
      "start": 3.8396,
      "duration": 0.0835,
      "velocity": 100,
      "chip": "ym2612"
    },
    {
      "channel": 3,
      "note": 63,
      "start": 3.8399,
      "duration": 0.0833,
      "velocity": 95,
      "chip": "ym2612"
    },
    {
      "channel": 0,
      "note": 72,
      "start": 3.9226,
      "duration": 0.2331,
      "velocity": 113,
      "chip": "ym2612"
    },
    {
      "channel": 1,
      "note": 68,
      "start": 3.9229,
      "duration": 0.1829,
      "velocity": 107,
      "chip": "ym2612"
    },
    {
      "channel": 2,
      "note": 68,
      "start": 3.9231,
      "duration": 0.233,
      "velocity": 100,
      "chip": "ym2612"
    },
    {
      "channel": 3,
      "note": 63,
      "start": 3.9232,
      "duration": 0.0829,
      "velocity": 95,
      "chip": "ym2612"
    },
    {
      "channel": 4,
      "note": 56,
      "start": 3.9234,
      "duration": 0.0829,
      "velocity": 104,
      "chip": "ym2612"
    },
    {
      "channel": 0,
      "note": 74,
      "start": 4.1559,
      "duration": 0.0165,
      "velocity": 113,
      "chip": "ym2612"
    },
    {
      "channel": 2,
      "note": 71,
      "start": 4.1563,
      "duration": 0.0165,
      "velocity": 100,
      "chip": "ym2612"
    },
    {
      "channel": 0,
      "note": 75,
      "start": 4.1727,
      "duration": 0.3215,
      "velocity": 113,
      "chip": "ym2612"
    },
    {
      "channel": 2,
      "note": 72,
      "start": 4.173,
      "duration": 0.3216,
      "velocity": 100,
      "chip": "ym2612"
    },
    {
      "channel": 3,
      "note": 65,
      "start": 4.1734,
      "duration": 0.0066,
      "velocity": 95,
      "chip": "ym2612"
    },
    {
      "channel": 4,
      "note": 56,
      "start": 4.1737,
      "duration": 0.0063,
      "velocity": 104,
      "chip": "ym2612"
    },
    {
      "channel": 1,
      "note": 63,
      "start": 4.3276,
      "duration": 0.1833,
      "velocity": 107,
      "chip": "ym2612"
    },
    {
      "channel": 3,
      "note": 63,
      "start": 4.328,
      "duration": 0.0832,
      "velocity": 95,
      "chip": "ym2612"
    },
    {
      "channel": 4,
      "note": 56,
      "start": 4.3282,
      "duration": 0.0832,
      "velocity": 104,
      "chip": "ym2612"
    },
    {
      "channel": 0,
      "note": 77,
      "start": 4.4944,
      "duration": 0.2381,
      "velocity": 113,
      "chip": "ym2612"
    },
    {
      "channel": 2,
      "note": 73,
      "start": 4.4948,
      "duration": 0.2382,
      "velocity": 100,
      "chip": "ym2612"
    },
    {
      "channel": 3,
      "note": 65,
      "start": 4.5781,
      "duration": 0.0066,
      "velocity": 95,
      "chip": "ym2612"
    },
    {
      "channel": 4,
      "note": 56,
      "start": 4.5785,
      "duration": 0.0063,
      "velocity": 104,
      "chip": "ym2612"
    },
    {
      "channel": 0,
      "note": 78,
      "start": 4.7327,
      "duration": 0.2498,
      "velocity": 113,
      "chip": "ym2612"
    },
    {
      "channel": 1,
      "note": 68,
      "start": 4.7329,
      "duration": 0.183,
      "velocity": 107,
      "chip": "ym2612"
    },
    {
      "channel": 2,
      "note": 75,
      "start": 4.7331,
      "duration": 0.25,
      "velocity": 100,
      "chip": "ym2612"
    },
    {
      "channel": 3,
      "note": 63,
      "start": 4.7333,
      "duration": 0.0829,
      "velocity": 95,
      "chip": "ym2612"
    },
    {
      "channel": 4,
      "note": 56,
      "start": 4.7335,
      "duration": 0.0828,
      "velocity": 104,
      "chip": "ym2612"
    },
    {
      "channel": 0,
      "note": 77,
      "start": 4.9828,
      "duration": 0.1554,
      "velocity": 113,
      "chip": "ym2612"
    },
    {
      "channel": 1,
      "note": 70,
      "start": 4.9831,
      "duration": 0.0885,
      "velocity": 107,
      "chip": "ym2612"
    },
    {
      "channel": 2,
      "note": 73,
      "start": 4.9833,
      "duration": 0.1554,
      "velocity": 100,
      "chip": "ym2612"
    },
    {
      "channel": 3,
      "note": 65,
      "start": 4.9837,
      "duration": 0.007,
      "velocity": 95,
      "chip": "ym2612"
    },
    {
      "channel": 4,
      "note": 56,
      "start": 4.9841,
      "duration": 0.0067,
      "velocity": 104,
      "chip": "ym2612"
    },
    {
      "channel": 0,
      "note": 75,
      "start": 5.1384,
      "duration": 0.1666,
      "velocity": 113,
      "chip": "ym2612"
    },
    {
      "channel": 1,
      "note": 71,
      "start": 5.1386,
      "duration": 0.1687,
      "velocity": 107,
      "chip": "ym2612"
    },
    {
      "channel": 2,
      "note": 72,
      "start": 5.1389,
      "duration": 0.1665,
      "velocity": 100,
      "chip": "ym2612"
    },
    {
      "channel": 3,
      "note": 63,
      "start": 5.1391,
      "duration": 0.0829,
      "velocity": 95,
      "chip": "ym2612"
    },
    {
      "channel": 4,
      "note": 56,
      "start": 5.1393,
      "duration": 0.0829,
      "velocity": 104,
      "chip": "ym2612"
    },
    {
      "channel": 0,
      "note": 72,
      "start": 5.3052,
      "duration": 0.1605,
      "velocity": 113,
      "chip": "ym2612"
    },
    {
      "channel": 2,
      "note": 68,
      "start": 5.3056,
      "duration": 0.1605,
      "velocity": 100,
      "chip": "ym2612"
    },
    {
      "channel": 1,
      "note": 72,
      "start": 5.3111,
      "duration": 0.088,
      "velocity": 107,
      "chip": "ym2612"
    },
    {
      "channel": 3,
      "note": 65,
      "start": 5.3115,
      "duration": 0.0714,
      "velocity": 95,
      "chip": "ym2612"
    },
    {
      "channel": 4,
      "note": 56,
      "start": 5.3117,
      "duration": 0.0069,
      "velocity": 104,
      "chip": "ym2612"
    },
    {
      "channel": 3,
      "note": 63,
      "start": 5.383,
      "duration": 0.0833,
      "velocity": 95,
      "chip": "ym2612"
    },
    {
      "channel": 1,
      "note": 68,
      "start": 5.466,
      "duration": 0.1828,
      "velocity": 107,
      "chip": "ym2612"
    },
    {
      "channel": 3,
      "note": 63,
      "start": 5.4663,
      "duration": 0.0828,
      "velocity": 95,
      "chip": "ym2612"
    },
    {
      "channel": 4,
      "note": 56,
      "start": 5.4664,
      "duration": 0.0828,
      "velocity": 104,
      "chip": "ym2612"
    },
    {
      "channel": 0,
      "note": 74,
      "start": 5.699,
      "duration": 0.0165,
      "velocity": 113,
      "chip": "ym2612"
    },
    {
      "channel": 2,
      "note": 71,
      "start": 5.6993,
      "duration": 0.0166,
      "velocity": 100,
      "chip": "ym2612"
    },
    {
      "channel": 0,
      "note": 75,
      "start": 5.7158,
      "duration": 0.3213,
      "velocity": 113,
      "chip": "ym2612"
    },
    {
      "channel": 2,
      "note": 72,
      "start": 5.7161,
      "duration": 0.3214,
      "velocity": 100,
      "chip": "ym2612"
    },
    {
      "channel": 3,
      "note": 65,
      "start": 5.7165,
      "duration": 0.0065,
      "velocity": 95,
      "chip": "ym2612"
    },
    {
      "channel": 4,
      "note": 56,
      "start": 5.7168,
      "duration": 0.0062,
      "velocity": 104,
      "chip": "ym2612"
    },
    {
      "channel": 1,
      "note": 63,
      "start": 5.8708,
      "duration": 0.1831,
      "velocity": 107,
      "chip": "ym2612"
    },
    {
      "channel": 3,
      "note": 63,
      "start": 5.8711,
      "duration": 0.0831,
      "velocity": 95,
      "chip": "ym2612"
    },
    {
      "channel": 4,
      "note": 56,
      "start": 5.8713,
      "duration": 0.083,
      "velocity": 104,
      "chip": "ym2612"
    },
    {
      "channel": 0,
      "note": 77,
      "start": 6.0373,
      "duration": 0.2381,
      "velocity": 113,
      "chip": "ym2612"
    },
    {
      "channel": 2,
      "note": 73,
      "start": 6.0378,
      "duration": 0.2382,
      "velocity": 100,
      "chip": "ym2612"
    },
    {
      "channel": 3,
      "note": 65,
      "start": 6.1211,
      "duration": 0.0066,
      "velocity": 95,
      "chip": "ym2612"
    },
    {
      "channel": 4,
      "note": 56,
      "start": 6.1214,
      "duration": 0.0063,
      "velocity": 104,
      "chip": "ym2612"
    },
    {
      "channel": 0,
      "note": 75,
      "start": 6.2757,
      "duration": 0.3211,
      "velocity": 113,
      "chip": "ym2612"
    },
    {
      "channel": 1,
      "note": 68,
      "start": 6.2759,
      "duration": 0.1829,
      "velocity": 107,
      "chip": "ym2612"
    },
    {
      "channel": 2,
      "note": 72,
      "start": 6.2761,
      "duration": 0.3211,
      "velocity": 100,
      "chip": "ym2612"
    },
    {
      "channel": 3,
      "note": 63,
      "start": 6.2763,
      "duration": 0.0829,
      "velocity": 95,
      "chip": "ym2612"
    },
    {
      "channel": 4,
      "note": 56,
      "start": 6.2764,
      "duration": 0.0829,
      "velocity": 104,
      "chip": "ym2612"
    },
    {
      "channel": 3,
      "note": 65,
      "start": 6.526,
      "duration": 0.0066,
      "velocity": 95,
      "chip": "ym2612"
    },
    {
      "channel": 4,
      "note": 56,
      "start": 6.5263,
      "duration": 0.0062,
      "velocity": 104,
      "chip": "ym2612"
    },
    {
      "channel": 0,
      "note": 77,
      "start": 6.5971,
      "duration": 0.3332,
      "velocity": 113,
      "chip": "ym2612"
    },
    {
      "channel": 2,
      "note": 73,
      "start": 6.5974,
      "duration": 0.3332,
      "velocity": 100,
      "chip": "ym2612"
    },
    {
      "channel": 1,
      "note": 63,
      "start": 6.6804,
      "duration": 0.1832,
      "velocity": 107,
      "chip": "ym2612"
    },
    {
      "channel": 3,
      "note": 63,
      "start": 6.6808,
      "duration": 0.0832,
      "velocity": 95,
      "chip": "ym2612"
    },
    {
      "channel": 4,
      "note": 56,
      "start": 6.681,
      "duration": 0.0831,
      "velocity": 104,
      "chip": "ym2612"
    },
    {
      "channel": 0,
      "note": 71,
      "start": 6.9305,
      "duration": 0.0712,
      "velocity": 113,
      "chip": "ym2612"
    },
    {
      "channel": 2,
      "note": 67,
      "start": 6.9308,
      "duration": 0.0713,
      "velocity": 100,
      "chip": "ym2612"
    },
    {
      "channel": 3,
      "note": 65,
      "start": 6.9311,
      "duration": 0.0712,
      "velocity": 95,
      "chip": "ym2612"
    },
    {
      "channel": 4,
      "note": 56,
      "start": 6.9314,
      "duration": 0.0061,
      "velocity": 104,
      "chip": "ym2612"
    },
    {
      "channel": 0,
      "note": 72,
      "start": 7.0019,
      "duration": 0.0833,
      "velocity": 113,
      "chip": "ym2612"
    },
    {
      "channel": 2,
      "note": 68,
      "start": 7.0022,
      "duration": 0.0835,
      "velocity": 100,
      "chip": "ym2612"
    },
    {
      "channel": 3,
      "note": 63,
      "start": 7.0026,
      "duration": 0.0833,
      "velocity": 95,
      "chip": "ym2612"
    },
    {
      "channel": 0,
      "note": 72,
      "start": 7.0853,
      "duration": 0.2331,
      "velocity": 113,
      "chip": "ym2612"
    },
    {
      "channel": 1,
      "note": 68,
      "start": 7.0855,
      "duration": 0.1829,
      "velocity": 107,
      "chip": "ym2612"
    },
    {
      "channel": 2,
      "note": 68,
      "start": 7.0857,
      "duration": 0.233,
      "velocity": 100,
      "chip": "ym2612"
    },
    {
      "channel": 3,
      "note": 63,
      "start": 7.0859,
      "duration": 0.0829,
      "velocity": 95,
      "chip": "ym2612"
    },
    {
      "channel": 4,
      "note": 56,
      "start": 7.086,
      "duration": 0.0829,
      "velocity": 104,
      "chip": "ym2612"
    },
    {
      "channel": 0,
      "note": 74,
      "start": 7.3186,
      "duration": 0.0165,
      "velocity": 113,
      "chip": "ym2612"
    },
    {
      "channel": 2,
      "note": 71,
      "start": 7.3189,
      "duration": 0.0165,
      "velocity": 100,
      "chip": "ym2612"
    },
    {
      "channel": 0,
      "note": 75,
      "start": 7.3353,
      "duration": 0.3215,
      "velocity": 113,
      "chip": "ym2612"
    },
    {
      "channel": 2,
      "note": 72,
      "start": 7.3356,
      "duration": 0.3216,
      "velocity": 100,
      "chip": "ym2612"
    },
    {
      "channel": 3,
      "note": 65,
      "start": 7.336,
      "duration": 0.0066,
      "velocity": 95,
      "chip": "ym2612"
    },
    {
      "channel": 4,
      "note": 56,
      "start": 7.3363,
      "duration": 0.0063,
      "velocity": 104,
      "chip": "ym2612"
    },
    {
      "channel": 1,
      "note": 63,
      "start": 7.4903,
      "duration": 0.1833,
      "velocity": 107,
      "chip": "ym2612"
    },
    {
      "channel": 3,
      "note": 63,
      "start": 7.4906,
      "duration": 0.0832,
      "velocity": 95,
      "chip": "ym2612"
    },
    {
      "channel": 4,
      "note": 56,
      "start": 7.4908,
      "duration": 0.0832,
      "velocity": 104,
      "chip": "ym2612"
    },
    {
      "channel": 0,
      "note": 77,
      "start": 7.657,
      "duration": 0.2381,
      "velocity": 113,
      "chip": "ym2612"
    },
    {
      "channel": 2,
      "note": 73,
      "start": 7.6574,
      "duration": 0.2382,
      "velocity": 100,
      "chip": "ym2612"
    },
    {
      "channel": 3,
      "note": 65,
      "start": 7.7408,
      "duration": 0.0066,
      "velocity": 95,
      "chip": "ym2612"
    },
    {
      "channel": 4,
      "note": 56,
      "start": 7.7411,
      "duration": 0.0063,
      "velocity": 104,
      "chip": "ym2612"
    },
    {
      "channel": 0,
      "note": 78,
      "start": 7.8954,
      "duration": 0.2498,
      "velocity": 113,
      "chip": "ym2612"
    },
    {
      "channel": 1,
      "note": 68,
      "start": 7.8956,
      "duration": 0.183,
      "velocity": 107,
      "chip": "ym2612"
    },
    {
      "channel": 2,
      "note": 75,
      "start": 7.8957,
      "duration": 0.25,
      "velocity": 100,
      "chip": "ym2612"
    },
    {
      "channel": 3,
      "note": 63,
      "start": 7.8959,
      "duration": 0.0829,
      "velocity": 95,
      "chip": "ym2612"
    },
    {
      "channel": 4,
      "note": 56,
      "start": 7.8961,
      "duration": 0.0828,
      "velocity": 104,
      "chip": "ym2612"
    },
    {
      "channel": 0,
      "note": 77,
      "start": 8.1454,
      "duration": 0.1554,
      "velocity": 113,
      "chip": "ym2612"
    },
    {
      "channel": 1,
      "note": 70,
      "start": 8.1457,
      "duration": 0.0885,
      "velocity": 107,
      "chip": "ym2612"
    },
    {
      "channel": 2,
      "note": 73,
      "start": 8.146,
      "duration": 0.1554,
      "velocity": 100,
      "chip": "ym2612"
    },
    {
      "channel": 3,
      "note": 65,
      "start": 8.1463,
      "duration": 0.007,
      "velocity": 95,
      "chip": "ym2612"
    },
    {
      "channel": 4,
      "note": 56,
      "start": 8.1467,
      "duration": 0.0067,
      "velocity": 104,
      "chip": "ym2612"
    },
    {
      "channel": 0,
      "note": 75,
      "start": 8.301,
      "duration": 0.1666,
      "velocity": 113,
      "chip": "ym2612"
    },
    {
      "channel": 1,
      "note": 71,
      "start": 8.3012,
      "duration": 0.1687,
      "velocity": 107,
      "chip": "ym2612"
    },
    {
      "channel": 2,
      "note": 72,
      "start": 8.3015,
      "duration": 0.1665,
      "velocity": 100,
      "chip": "ym2612"
    },
    {
      "channel": 3,
      "note": 63,
      "start": 8.3018,
      "duration": 0.0829,
      "velocity": 95,
      "chip": "ym2612"
    },
    {
      "channel": 4,
      "note": 56,
      "start": 8.302,
      "duration": 0.0829,
      "velocity": 104,
      "chip": "ym2612"
    },
    {
      "channel": 0,
      "note": 80,
      "start": 8.4678,
      "duration": 0.0056,
      "velocity": 113,
      "chip": "ym2612"
    },
    {
      "channel": 2,
      "note": 75,
      "start": 8.4683,
      "duration": 0.0056,
      "velocity": 100,
      "chip": "ym2612"
    },
    {
      "channel": 1,
      "note": 72,
      "start": 8.4737,
      "duration": 0.087,
      "velocity": 107,
      "chip": "ym2612"
    },
    {
      "channel": 3,
      "note": 65,
      "start": 8.4741,
      "duration": 0.0716,
      "velocity": 95,
      "chip": "ym2612"
    },
    {
      "channel": 4,
      "note": 56,
      "start": 8.4743,
      "duration": 0.0053,
      "velocity": 104,
      "chip": "ym2612"
    },
    {
      "channel": 0,
      "note": 76,
      "start": 8.5454,
      "duration": 0.082,
      "velocity": 97,
      "chip": "ym2612"
    },
    {
      "channel": 3,
      "note": 63,
      "start": 8.5459,
      "duration": 0.0822,
      "velocity": 95,
      "chip": "ym2612"
    },
    {
      "channel": 0,
      "note": 77,
      "start": 8.6277,
      "duration": 0.1661,
      "velocity": 97,
      "chip": "ym2612"
    },
    {
      "channel": 1,
      "note": 73,
      "start": 8.6279,
      "duration": 0.1828,
      "velocity": 107,
      "chip": "ym2612"
    },
    {
      "channel": 3,
      "note": 68,
      "start": 8.6281,
      "duration": 0.0828,
      "velocity": 95,
      "chip": "ym2612"
    },
    {
      "channel": 4,
      "note": 61,
      "start": 8.6282,
      "duration": 0.0827,
      "velocity": 104,
      "chip": "ym2612"
    },
    {
      "channel": 0,
      "note": 85,
      "start": 8.794,
      "duration": 0.0832,
      "velocity": 97,
      "chip": "ym2612"
    },
    {
      "channel": 0,
      "note": 80,
      "start": 8.8775,
      "duration": 0.0713,
      "velocity": 97,
      "chip": "ym2612"
    },
    {
      "channel": 3,
      "note": 70,
      "start": 8.878,
      "duration": 0.006,
      "velocity": 95,
      "chip": "ym2612"
    },
    {
      "channel": 4,
      "note": 61,
      "start": 8.8784,
      "duration": 0.0058,
      "velocity": 104,
      "chip": "ym2612"
    },
    {
      "channel": 0,
      "note": 77,
      "start": 8.949,
      "duration": 0.0831,
      "velocity": 97,
      "chip": "ym2612"
    },
    {
      "channel": 0,
      "note": 85,
      "start": 9.0324,
      "duration": 0.05,
      "velocity": 97,
      "chip": "ym2612"
    },
    {
      "channel": 1,
      "note": 68,
      "start": 9.0326,
      "duration": 0.1832,
      "velocity": 107,
      "chip": "ym2612"
    },
    {
      "channel": 2,
      "note": 77,
      "start": 9.0338,
      "duration": 0.0488,
      "velocity": 60,
      "chip": "ym2612"
    },
    {
      "channel": 3,
      "note": 68,
      "start": 9.0341,
      "duration": 0.0819,
      "velocity": 95,
      "chip": "ym2612"
    },
    {
      "channel": 4,
      "note": 61,
      "start": 9.0342,
      "duration": 0.0819,
      "velocity": 104,
      "chip": "ym2612"
    },
    {
      "channel": 0,
      "note": 84,
      "start": 9.2827,
      "duration": 0.0054,
      "velocity": 97,
      "chip": "ym2612"
    },
    {
      "channel": 2,
      "note": 76,
      "start": 9.283,
      "duration": 0.0051,
      "velocity": 60,
      "chip": "ym2612"
    },
    {
      "channel": 3,
      "note": 70,
      "start": 9.2833,
      "duration": 0.0713,
      "velocity": 95,
      "chip": "ym2612"
    },
    {
      "channel": 4,
      "note": 61,
      "start": 9.2837,
      "duration": 0.0713,
      "velocity": 104,
      "chip": "ym2612"
    },
    {
      "channel": 0,
      "note": 83,
      "start": 9.3542,
      "duration": 0.0834,
      "velocity": 97,
      "chip": "ym2612"
    },
    {
      "channel": 2,
      "note": 75,
      "start": 9.3546,
      "duration": 0.0834,
      "velocity": 60,
      "chip": "ym2612"
    },
    {
      "channel": 3,
      "note": 71,
      "start": 9.3549,
      "duration": 0.0832,
      "velocity": 95,
      "chip": "ym2612"
    },
    {
      "channel": 4,
      "note": 61,
      "start": 9.3552,
      "duration": 0.0832,
      "velocity": 104,
      "chip": "ym2612"
    },
    {
      "channel": 0,
      "note": 83,
      "start": 9.4376,
      "duration": 0.4388,
      "velocity": 97,
      "chip": "ym2612"
    },
    {
      "channel": 1,
      "note": 71,
      "start": 9.4379,
      "duration": 0.1831,
      "velocity": 107,
      "chip": "ym2612"
    },
    {
      "channel": 2,
      "note": 75,
      "start": 9.438,
      "duration": 0.5722,
      "velocity": 60,
      "chip": "ym2612"
    },
    {
      "channel": 3,
      "note": 71,
      "start": 9.4382,
      "duration": 0.083,
      "velocity": 95,
      "chip": "ym2612"
    },
    {
      "channel": 4,
      "note": 61,
      "start": 9.4384,
      "duration": 0.083,
      "velocity": 104,
      "chip": "ym2612"
    },
    {
      "channel": 1,
      "note": 73,
      "start": 9.688,
      "duration": 0.0885,
      "velocity": 107,
      "chip": "ym2612"
    },
    {
      "channel": 3,
      "note": 70,
      "start": 9.6885,
      "duration": 0.0071,
      "velocity": 95,
      "chip": "ym2612"
    },
    {
      "channel": 4,
      "note": 61,
      "start": 9.6889,
      "duration": 0.0068,
      "velocity": 104,
      "chip": "ym2612"
    },
    {
      "channel": 1,
      "note": 68,
      "start": 9.8434,
      "duration": 0.1688,
      "velocity": 107,
      "chip": "ym2612"
    },
    {
      "channel": 3,
      "note": 68,
      "start": 9.8437,
      "duration": 0.0833,
      "velocity": 95,
      "chip": "ym2612"
    },
    {
      "channel": 4,
      "note": 61,
      "start": 9.844,
      "duration": 0.0832,
      "velocity": 104,
      "chip": "ym2612"
    },
    {
      "channel": 0,
      "note": 82,
      "start": 9.8767,
      "duration": 0.0498,
      "velocity": 97,
      "chip": "ym2612"
    },
    {
      "channel": 0,
      "note": 81,
      "start": 9.9267,
      "duration": 0.033,
      "velocity": 97,
      "chip": "ym2612"
    },
    {
      "channel": 0,
      "note": 80,
      "start": 9.9599,
      "duration": 0.0499,
      "velocity": 97,
      "chip": "ym2612"
    },
    {
      "channel": 0,
      "note": 83,
      "start": 10.0101,
      "duration": 0.0039,
      "velocity": 97,
      "chip": "ym2612"
    },
    {
      "channel": 2,
      "note": 77,
      "start": 10.0105,
      "duration": 0.1615,
      "velocity": 60,
      "chip": "ym2612"
    },
    {
      "channel": 0,
      "note": 85,
      "start": 10.0141,
      "duration": 0.1574,
      "velocity": 97,
      "chip": "ym2612"
    },
    {
      "channel": 1,
      "note": 61,
      "start": 10.0164,
      "duration": 0.0885,
      "velocity": 107,
      "chip": "ym2612"
    },
    {
      "channel": 3,
      "note": 70,
      "start": 10.0169,
      "duration": 0.0073,
      "velocity": 95,
      "chip": "ym2612"
    },
    {
      "channel": 4,
      "note": 61,
      "start": 10.0173,
      "duration": 0.007,
      "velocity": 104,
      "chip": "ym2612"
    },
    {
      "channel": 0,
      "note": 82,
      "start": 10.1718,
      "duration": 0.8109,
      "velocity": 97,
      "chip": "ym2612"
    },
    {
      "channel": 1,
      "note": 66,
      "start": 10.172,
      "duration": 0.2499,
      "velocity": 107,
      "chip": "ym2612"
    },
    {
      "channel": 2,
      "note": 78,
      "start": 10.1722,
      "duration": 0.25,
      "velocity": 60,
      "chip": "ym2612"
    },
    {
      "channel": 3,
      "note": 66,
      "start": 10.1723,
      "duration": 0.8111,
      "velocity": 95,
      "chip": "ym2612"
    },
    {
      "channel": 4,
      "note": 61,
      "start": 10.1726,
      "duration": 0.8111,
      "velocity": 104,
      "chip": "ym2612"
    },
    {
      "channel": 1,
      "note": 73,
      "start": 10.4221,
      "duration": 0.1553,
      "velocity": 107,
      "chip": "ym2612"
    },
    {
      "channel": 2,
      "note": 77,
      "start": 10.4224,
      "duration": 0.1552,
      "velocity": 60,
      "chip": "ym2612"
    },
    {
      "channel": 1,
      "note": 66,
      "start": 10.5775,
      "duration": 0.2498,
      "velocity": 107,
      "chip": "ym2612"
    },
    {
      "channel": 2,
      "note": 76,
      "start": 10.5778,
      "duration": 0.2499,
      "velocity": 60,
      "chip": "ym2612"
    },
    {
      "channel": 1,
      "note": 78,
      "start": 10.8275,
      "duration": 0.1555,
      "velocity": 107,
      "chip": "ym2612"
    },
    {
      "channel": 2,
      "note": 75,
      "start": 10.8279,
      "duration": 0.1553,
      "velocity": 60,
      "chip": "ym2612"
    },
    {
      "channel": 0,
      "note": 81,
      "start": 10.9829,
      "duration": 0.6016,
      "velocity": 97,
      "chip": "ym2612"
    },
    {
      "channel": 1,
      "note": 69,
      "start": 10.9831,
      "duration": 0.4057,
      "velocity": 107,
      "chip": "ym2612"
    },
    {
      "channel": 2,
      "note": 73,
      "start": 10.9834,
      "duration": 0.25,
      "velocity": 60,
      "chip": "ym2612"
    },
    {
      "channel": 3,
      "note": 69,
      "start": 10.9836,
      "duration": 0.7382,
      "velocity": 102,
      "chip": "ym2612"
    },
    {
      "channel": 4,
      "note": 64,
      "start": 10.9839,
      "duration": 0.738,
      "velocity": 104,
      "chip": "ym2612"
    },
    {
      "channel": 2,
      "note": 75,
      "start": 11.2336,
      "duration": 0.1555,
      "velocity": 60,
      "chip": "ym2612"
    },
    {
      "channel": 1,
      "note": 73,
      "start": 11.389,
      "duration": 0.3302,
      "velocity": 107,
      "chip": "ym2612"
    },
    {
      "channel": 2,
      "note": 76,
      "start": 11.3893,
      "duration": 0.0829,
      "velocity": 60,
      "chip": "ym2612"
    },
    {
      "channel": 2,
      "note": 75,
      "start": 11.4724,
      "duration": 0.0832,
      "velocity": 60,
      "chip": "ym2612"
    },
    {
      "channel": 2,
      "note": 76,
      "start": 11.5559,
      "duration": 0.0066,
      "velocity": 60,
      "chip": "ym2612"
    },
    {
      "channel": 2,
      "note": 78,
      "start": 11.5627,
      "duration": 0.0223,
      "velocity": 60,
      "chip": "ym2612"
    },
    {
      "channel": 0,
      "note": 80,
      "start": 11.5848,
      "duration": 0.033,
      "velocity": 97,
      "chip": "ym2612"
    },
    {
      "channel": 2,
      "note": 72,
      "start": 11.5852,
      "duration": 0.033,
      "velocity": 60,
      "chip": "ym2612"
    },
    {
      "channel": 0,
      "note": 79,
      "start": 11.618,
      "duration": 0.0164,
      "velocity": 97,
      "chip": "ym2612"
    },
    {
      "channel": 2,
      "note": 71,
      "start": 11.6184,
      "duration": 0.0165,
      "velocity": 60,
      "chip": "ym2612"
    },
    {
      "channel": 0,
      "note": 78,
      "start": 11.6347,
      "duration": 0.0164,
      "velocity": 97,
      "chip": "ym2612"
    },
    {
      "channel": 2,
      "note": 70,
      "start": 11.6351,
      "duration": 0.0165,
      "velocity": 60,
      "chip": "ym2612"
    },
    {
      "channel": 0,
      "note": 77,
      "start": 11.6514,
      "duration": 0.0331,
      "velocity": 97,
      "chip": "ym2612"
    },
    {
      "channel": 2,
      "note": 69,
      "start": 11.6517,
      "duration": 0.0331,
      "velocity": 60,
      "chip": "ym2612"
    },
    {
      "channel": 0,
      "note": 76,
      "start": 11.6847,
      "duration": 0.0165,
      "velocity": 97,
      "chip": "ym2612"
    },
    {
      "channel": 2,
      "note": 68,
      "start": 11.6851,
      "duration": 0.0165,
      "velocity": 60,
      "chip": "ym2612"
    },
    {
      "channel": 0,
      "note": 75,
      "start": 11.7014,
      "duration": 0.0176,
      "velocity": 97,
      "chip": "ym2612"
    },
    {
      "channel": 2,
      "note": 67,
      "start": 11.7018,
      "duration": 0.0188,
      "velocity": 102,
      "chip": "ym2612"
    },
    {
      "channel": 0,
      "note": 68,
      "start": 11.7192,
      "duration": 0.2493,
      "velocity": 97,
      "chip": "ym2612"
    },
    {
      "channel": 1,
      "note": 68,
      "start": 11.7194,
      "duration": 0.4046,
      "velocity": 107,
      "chip": "ym2612"
    },
    {
      "channel": 2,
      "note": 72,
      "start": 11.7208,
      "duration": 0.2488,
      "velocity": 104,
      "chip": "ym2612"
    },
    {
      "channel": 3,
      "note": 68,
      "start": 11.7218,
      "duration": 0.2489,
      "velocity": 104,
      "chip": "ym2612"
    },
    {
      "channel": 0,
      "note": 68,
      "start": 11.9687,
      "duration": 0.0084,
      "velocity": 97,
      "chip": "ym2612"
    },
    {
      "channel": 2,
      "note": 84,
      "start": 11.9698,
      "duration": 0.155,
      "velocity": 102,
      "chip": "ym2612"
    },
    {
      "channel": 3,
      "note": 80,
      "start": 11.971,
      "duration": 0.1548,
      "velocity": 102,
      "chip": "ym2612"
    },
    {
      "channel": 0,
      "note": 67,
      "start": 11.9772,
      "duration": 0.0632,
      "velocity": 97,
      "chip": "ym2612"
    },
    {
      "channel": 0,
      "note": 68,
      "start": 12.0406,
      "duration": 0.0831,
      "velocity": 97,
      "chip": "ym2612"
    },
    {
      "channel": 0,
      "note": 69,
      "start": 12.124,
      "duration": 0.2497,
      "velocity": 97,
      "chip": "ym2612"
    },
    {
      "channel": 1,
      "note": 67,
      "start": 12.1242,
      "duration": 0.4049,
      "velocity": 107,
      "chip": "ym2612"
    },
    {
      "channel": 2,
      "note": 71,
      "start": 12.1251,
      "duration": 0.2498,
      "velocity": 104,
      "chip": "ym2612"
    },
    {
      "channel": 3,
      "note": 67,
      "start": 12.126,
      "duration": 0.25,
      "velocity": 104,
      "chip": "ym2612"
    },
    {
      "channel": 0,
      "note": 69,
      "start": 12.3739,
      "duration": 0.0083,
      "velocity": 97,
      "chip": "ym2612"
    },
    {
      "channel": 2,
      "note": 85,
      "start": 12.3751,
      "duration": 0.1548,
      "velocity": 102,
      "chip": "ym2612"
    },
    {
      "channel": 3,
      "note": 82,
      "start": 12.3762,
      "duration": 0.1546,
      "velocity": 102,
      "chip": "ym2612"
    },
    {
      "channel": 0,
      "note": 65,
      "start": 12.3824,
      "duration": 0.063,
      "velocity": 97,
      "chip": "ym2612"
    },
    {
      "channel": 0,
      "note": 69,
      "start": 12.4457,
      "duration": 0.0831,
      "velocity": 97,
      "chip": "ym2612"
    },
    {
      "channel": 0,
      "note": 70,
      "start": 12.5291,
      "duration": 0.2498,
      "velocity": 97,
      "chip": "ym2612"
    },
    {
      "channel": 1,
      "note": 66,
      "start": 12.5293,
      "duration": 0.4052,
      "velocity": 107,
      "chip": "ym2612"
    },
    {
      "channel": 2,
      "note": 70,
      "start": 12.5301,
      "duration": 0.2499,
      "velocity": 104,
      "chip": "ym2612"
    },
    {
      "channel": 3,
      "note": 66,
      "start": 12.531,
      "duration": 0.2502,
      "velocity": 104,
      "chip": "ym2612"
    },
    {
      "channel": 0,
      "note": 70,
      "start": 12.7791,
      "duration": 0.0084,
      "velocity": 97,
      "chip": "ym2612"
    },
    {
      "channel": 2,
      "note": 86,
      "start": 12.7802,
      "duration": 0.1551,
      "velocity": 102,
      "chip": "ym2612"
    },
    {
      "channel": 3,
      "note": 83,
      "start": 12.7814,
      "duration": 0.1548,
      "velocity": 102,
      "chip": "ym2612"
    },
    {
      "channel": 0,
      "note": 65,
      "start": 12.7876,
      "duration": 0.0632,
      "velocity": 97,
      "chip": "ym2612"
    },
    {
      "channel": 0,
      "note": 70,
      "start": 12.851,
      "duration": 0.0831,
      "velocity": 97,
      "chip": "ym2612"
    },
    {
      "channel": 0,
      "note": 71,
      "start": 12.9344,
      "duration": 0.1721,
      "velocity": 97,
      "chip": "ym2612"
    },
    {
      "channel": 1,
      "note": 65,
      "start": 12.9346,
      "duration": 0.3266,
      "velocity": 107,
      "chip": "ym2612"
    },
    {
      "channel": 2,
      "note": 68,
      "start": 12.9355,
      "duration": 0.172,
      "velocity": 104,
      "chip": "ym2612"
    },
    {
      "channel": 3,
      "note": 65,
      "start": 12.9364,
      "duration": 0.172,
      "velocity": 104,
      "chip": "ym2612"
    },
    {
      "channel": 0,
      "note": 71,
      "start": 13.1067,
      "duration": 0.0078,
      "velocity": 97,
      "chip": "ym2612"
    },
    {
      "channel": 2,
      "note": 87,
      "start": 13.1076,
      "duration": 0.1544,
      "velocity": 96,
      "chip": "ym2612"
    },
    {
      "channel": 3,
      "note": 84,
      "start": 13.1085,
      "duration": 0.1535,
      "velocity": 104,
      "chip": "ym2612"
    },
    {
      "channel": 0,
      "note": 65,
      "start": 13.1146,
      "duration": 0.0629,
      "velocity": 97,
      "chip": "ym2612"
    },
    {
      "channel": 0,
      "note": 71,
      "start": 13.1778,
      "duration": 0.0831,
      "velocity": 97,
      "chip": "ym2612"
    },
    {
      "channel": 0,
      "note": 59,
      "start": 13.2611,
      "duration": 0.0826,
      "velocity": 97,
      "chip": "ym2612"
    },
    {
      "channel": 0,
      "note": 65,
      "start": 13.344,
      "duration": 0.0832,
      "velocity": 97,
      "chip": "ym2612"
    },
    {
      "channel": 0,
      "note": 68,
      "start": 13.4274,
      "duration": 0.0051,
      "velocity": 97,
      "chip": "ym2612"
    },
    {
      "channel": 0,
      "note": 75,
      "start": 13.4327,
      "duration": 0.4816,
      "velocity": 97,
      "chip": "ym2612"
    },
    {
      "channel": 2,
      "note": 84,
      "start": 13.433,
      "duration": 0.4825,
      "velocity": 104,
      "chip": "ym2612"
    },
    {
      "channel": 0,
      "note": 75,
      "start": 13.9145,
      "duration": 0.1728,
      "velocity": 97,
      "chip": "ym2612"
    },
    {
      "channel": 1,
      "note": 63,
      "start": 13.9147,
      "duration": 0.1662,
      "velocity": 107,
      "chip": "ym2612"
    },
    {
      "channel": 3,
      "note": 63,
      "start": 13.9166,
      "duration": 0.1651,
      "velocity": 104,
      "chip": "ym2612"
    },
    {
      "channel": 1,
      "note": 75,
      "start": 14.0812,
      "duration": 0.13,
      "velocity": 107,
      "chip": "ym2612"
    },
    {
      "channel": 2,
      "note": 84,
      "start": 14.0815,
      "duration": 0.1306,
      "velocity": 100,
      "chip": "ym2612"
    },
    {
      "channel": 3,
      "note": 73,
      "start": 14.0819,
      "duration": 0.1312,
      "velocity": 95,
      "chip": "ym2612"
    },
    {
      "channel": 4,
      "note": 79,
      "start": 14.0822,
      "duration": 0.1319,
      "velocity": 104,
      "chip": "ym2612"
    },
    {
      "channel": 0,
      "note": 74,
      "start": 14.0875,
      "duration": 0.0042,
      "velocity": 97,
      "chip": "ym2612"
    },
    {
      "channel": 0,
      "note": 72,
      "start": 14.0918,
      "duration": 0.0029,
      "velocity": 97,
      "chip": "ym2612"
    },
    {
      "channel": 0,
      "note": 70,
      "start": 14.0949,
      "duration": 0.0144,
      "velocity": 97,
      "chip": "ym2612"
    },
    {
      "channel": 0,
      "note": 69,
      "start": 14.1096,
      "duration": 0.0499,
      "velocity": 97,
      "chip": "ym2612"
    },
    {
      "channel": 0,
      "note": 67,
      "start": 14.1598,
      "duration": 0.0028,
      "velocity": 97,
      "chip": "ym2612"
    },
    {
      "channel": 0,
      "note": 65,
      "start": 14.1627,
      "duration": 0.0041,
      "velocity": 97,
      "chip": "ym2612"
    },
    {
      "channel": 0,
      "note": 63,
      "start": 14.1671,
      "duration": 0.0039,
      "velocity": 97,
      "chip": "ym2612"
    },
    {
      "channel": 0,
      "note": 62,
      "start": 14.1712,
      "duration": 0.0032,
      "velocity": 97,
      "chip": "ym2612"
    },
    {
      "channel": 0,
      "note": 60,
      "start": 14.1746,
      "duration": 0.003,
      "velocity": 97,
      "chip": "ym2612"
    },
    {
      "channel": 0,
      "note": 58,
      "start": 14.1778,
      "duration": 0.0032,
      "velocity": 97,
      "chip": "ym2612"
    },
    {
      "channel": 0,
      "note": 57,
      "start": 14.1813,
      "duration": 0.0038,
      "velocity": 97,
      "chip": "ym2612"
    },
    {
      "channel": 0,
      "note": 55,
      "start": 14.1852,
      "duration": 0.0021,
      "velocity": 97,
      "chip": "ym2612"
    },
    {
      "channel": 0,
      "note": 53,
      "start": 14.1876,
      "duration": 0.0045,
      "velocity": 97,
      "chip": "ym2612"
    },
    {
      "channel": 1,
      "note": 68,
      "start": 14.2114,
      "duration": 0.1821,
      "velocity": 107,
      "chip": "ym2612"
    },
    {
      "channel": 3,
      "note": 63,
      "start": 14.2132,
      "duration": 0.0804,
      "velocity": 95,
      "chip": "ym2612"
    },
    {
      "channel": 4,
      "note": 56,
      "start": 14.2143,
      "duration": 0.0794,
      "velocity": 104,
      "chip": "ym2612"
    },
    {
      "channel": 0,
      "note": 74,
      "start": 14.4436,
      "duration": 0.0165,
      "velocity": 113,
      "chip": "ym2612"
    },
    {
      "channel": 2,
      "note": 71,
      "start": 14.4439,
      "duration": 0.0165,
      "velocity": 100,
      "chip": "ym2612"
    },
    {
      "channel": 0,
      "note": 75,
      "start": 14.4603,
      "duration": 0.3207,
      "velocity": 113,
      "chip": "ym2612"
    },
    {
      "channel": 2,
      "note": 72,
      "start": 14.4607,
      "duration": 0.3208,
      "velocity": 100,
      "chip": "ym2612"
    },
    {
      "channel": 3,
      "note": 65,
      "start": 14.461,
      "duration": 0.0051,
      "velocity": 95,
      "chip": "ym2612"
    },
    {
      "channel": 4,
      "note": 56,
      "start": 14.4614,
      "duration": 0.0049,
      "velocity": 104,
      "chip": "ym2612"
    },
    {
      "channel": 1,
      "note": 63,
      "start": 14.6147,
      "duration": 0.1831,
      "velocity": 107,
      "chip": "ym2612"
    },
    {
      "channel": 3,
      "note": 63,
      "start": 14.615,
      "duration": 0.0829,
      "velocity": 95,
      "chip": "ym2612"
    },
    {
      "channel": 4,
      "note": 56,
      "start": 14.6153,
      "duration": 0.0828,
      "velocity": 104,
      "chip": "ym2612"
    },
    {
      "channel": 0,
      "note": 77,
      "start": 14.7812,
      "duration": 0.2375,
      "velocity": 113,
      "chip": "ym2612"
    },
    {
      "channel": 2,
      "note": 73,
      "start": 14.7816,
      "duration": 0.2377,
      "velocity": 100,
      "chip": "ym2612"
    },
    {
      "channel": 3,
      "note": 65,
      "start": 14.8648,
      "duration": 0.0057,
      "velocity": 95,
      "chip": "ym2612"
    },
    {
      "channel": 4,
      "note": 56,
      "start": 14.8651,
      "duration": 0.0054,
      "velocity": 104,
      "chip": "ym2612"
    },
    {
      "channel": 0,
      "note": 75,
      "start": 15.019,
      "duration": 0.321,
      "velocity": 113,
      "chip": "ym2612"
    },
    {
      "channel": 1,
      "note": 68,
      "start": 15.0192,
      "duration": 0.1831,
      "velocity": 107,
      "chip": "ym2612"
    },
    {
      "channel": 2,
      "note": 72,
      "start": 15.0195,
      "duration": 0.3209,
      "velocity": 100,
      "chip": "ym2612"
    },
    {
      "channel": 3,
      "note": 63,
      "start": 15.0198,
      "duration": 0.0827,
      "velocity": 95,
      "chip": "ym2612"
    },
    {
      "channel": 4,
      "note": 56,
      "start": 15.02,
      "duration": 0.0827,
      "velocity": 104,
      "chip": "ym2612"
    },
    {
      "channel": 3,
      "note": 65,
      "start": 15.2694,
      "duration": 0.0056,
      "velocity": 95,
      "chip": "ym2612"
    },
    {
      "channel": 4,
      "note": 56,
      "start": 15.2698,
      "duration": 0.0053,
      "velocity": 104,
      "chip": "ym2612"
    },
    {
      "channel": 0,
      "note": 77,
      "start": 15.3402,
      "duration": 0.3331,
      "velocity": 113,
      "chip": "ym2612"
    },
    {
      "channel": 2,
      "note": 73,
      "start": 15.3406,
      "duration": 0.3331,
      "velocity": 100,
      "chip": "ym2612"
    },
    {
      "channel": 1,
      "note": 63,
      "start": 15.4236,
      "duration": 0.1831,
      "velocity": 107,
      "chip": "ym2612"
    },
    {
      "channel": 3,
      "note": 63,
      "start": 15.4239,
      "duration": 0.0829,
      "velocity": 95,
      "chip": "ym2612"
    },
    {
      "channel": 4,
      "note": 56,
      "start": 15.4242,
      "duration": 0.0828,
      "velocity": 104,
      "chip": "ym2612"
    },
    {
      "channel": 0,
      "note": 71,
      "start": 15.6736,
      "duration": 0.0708,
      "velocity": 113,
      "chip": "ym2612"
    },
    {
      "channel": 2,
      "note": 67,
      "start": 15.6739,
      "duration": 0.0708,
      "velocity": 100,
      "chip": "ym2612"
    },
    {
      "channel": 3,
      "note": 65,
      "start": 15.6742,
      "duration": 0.0708,
      "velocity": 95,
      "chip": "ym2612"
    },
    {
      "channel": 4,
      "note": 56,
      "start": 15.6745,
      "duration": 0.0051,
      "velocity": 104,
      "chip": "ym2612"
    },
    {
      "channel": 0,
      "note": 72,
      "start": 15.7446,
      "duration": 0.0833,
      "velocity": 113,
      "chip": "ym2612"
    },
    {
      "channel": 2,
      "note": 68,
      "start": 15.7449,
      "duration": 0.0834,
      "velocity": 100,
      "chip": "ym2612"
    },
    {
      "channel": 3,
      "note": 63,
      "start": 15.7452,
      "duration": 0.0833,
      "velocity": 95,
      "chip": "ym2612"
    },
    {
      "channel": 0,
      "note": 72,
      "start": 15.8279,
      "duration": 0.233,
      "velocity": 113,
      "chip": "ym2612"
    },
    {
      "channel": 1,
      "note": 68,
      "start": 15.8282,
      "duration": 0.1827,
      "velocity": 107,
      "chip": "ym2612"
    },
    {
      "channel": 2,
      "note": 68,
      "start": 15.8283,
      "duration": 0.2329,
      "velocity": 100,
      "chip": "ym2612"
    },
    {
      "channel": 3,
      "note": 63,
      "start": 15.8285,
      "duration": 0.0825,
      "velocity": 95,
      "chip": "ym2612"
    },
    {
      "channel": 4,
      "note": 56,
      "start": 15.8287,
      "duration": 0.0825,
      "velocity": 104,
      "chip": "ym2612"
    },
    {
      "channel": 0,
      "note": 74,
      "start": 16.0611,
      "duration": 0.0165,
      "velocity": 113,
      "chip": "ym2612"
    },
    {
      "channel": 2,
      "note": 71,
      "start": 16.0614,
      "duration": 0.0165,
      "velocity": 100,
      "chip": "ym2612"
    },
    {
      "channel": 0,
      "note": 75,
      "start": 16.0778,
      "duration": 0.3206,
      "velocity": 113,
      "chip": "ym2612"
    },
    {
      "channel": 2,
      "note": 72,
      "start": 16.0781,
      "duration": 0.3207,
      "velocity": 100,
      "chip": "ym2612"
    },
    {
      "channel": 3,
      "note": 65,
      "start": 16.0785,
      "duration": 0.0051,
      "velocity": 95,
      "chip": "ym2612"
    },
    {
      "channel": 4,
      "note": 56,
      "start": 16.0789,
      "duration": 0.0049,
      "velocity": 104,
      "chip": "ym2612"
    },
    {
      "channel": 1,
      "note": 63,
      "start": 16.2322,
      "duration": 0.1831,
      "velocity": 107,
      "chip": "ym2612"
    },
    {
      "channel": 3,
      "note": 63,
      "start": 16.2325,
      "duration": 0.0829,
      "velocity": 95,
      "chip": "ym2612"
    },
    {
      "channel": 4,
      "note": 56,
      "start": 16.2327,
      "duration": 0.0828,
      "velocity": 104,
      "chip": "ym2612"
    },
    {
      "channel": 0,
      "note": 77,
      "start": 16.3987,
      "duration": 0.2375,
      "velocity": 113,
      "chip": "ym2612"
    },
    {
      "channel": 2,
      "note": 73,
      "start": 16.3991,
      "duration": 0.2377,
      "velocity": 100,
      "chip": "ym2612"
    },
    {
      "channel": 3,
      "note": 65,
      "start": 16.4822,
      "duration": 0.0057,
      "velocity": 95,
      "chip": "ym2612"
    },
    {
      "channel": 4,
      "note": 56,
      "start": 16.4826,
      "duration": 0.0054,
      "velocity": 104,
      "chip": "ym2612"
    },
    {
      "channel": 0,
      "note": 78,
      "start": 16.6365,
      "duration": 0.2499,
      "velocity": 113,
      "chip": "ym2612"
    },
    {
      "channel": 1,
      "note": 68,
      "start": 16.6367,
      "duration": 0.183,
      "velocity": 107,
      "chip": "ym2612"
    },
    {
      "channel": 2,
      "note": 75,
      "start": 16.6369,
      "duration": 0.2501,
      "velocity": 100,
      "chip": "ym2612"
    },
    {
      "channel": 3,
      "note": 63,
      "start": 16.6371,
      "duration": 0.0827,
      "velocity": 95,
      "chip": "ym2612"
    },
    {
      "channel": 4,
      "note": 56,
      "start": 16.6373,
      "duration": 0.0826,
      "velocity": 104,
      "chip": "ym2612"
    },
    {
      "channel": 0,
      "note": 77,
      "start": 16.8865,
      "duration": 0.1547,
      "velocity": 113,
      "chip": "ym2612"
    },
    {
      "channel": 1,
      "note": 70,
      "start": 16.8869,
      "duration": 0.0877,
      "velocity": 107,
      "chip": "ym2612"
    },
    {
      "channel": 2,
      "note": 73,
      "start": 16.8872,
      "duration": 0.1546,
      "velocity": 100,
      "chip": "ym2612"
    },
    {
      "channel": 3,
      "note": 65,
      "start": 16.8876,
      "duration": 0.0059,
      "velocity": 95,
      "chip": "ym2612"
    },
    {
      "channel": 4,
      "note": 56,
      "start": 16.8879,
      "duration": 0.0056,
      "velocity": 104,
      "chip": "ym2612"
    },
    {
      "channel": 0,
      "note": 75,
      "start": 17.0415,
      "duration": 0.1665,
      "velocity": 113,
      "chip": "ym2612"
    },
    {
      "channel": 1,
      "note": 71,
      "start": 17.0418,
      "duration": 0.1685,
      "velocity": 107,
      "chip": "ym2612"
    },
    {
      "channel": 2,
      "note": 72,
      "start": 17.042,
      "duration": 0.1665,
      "velocity": 100,
      "chip": "ym2612"
    },
    {
      "channel": 3,
      "note": 63,
      "start": 17.0423,
      "duration": 0.0825,
      "velocity": 95,
      "chip": "ym2612"
    },
    {
      "channel": 4,
      "note": 56,
      "start": 17.0425,
      "duration": 0.0824,
      "velocity": 104,
      "chip": "ym2612"
    },
    {
      "channel": 0,
      "note": 72,
      "start": 17.2083,
      "duration": 0.0815,
      "velocity": 113,
      "chip": "ym2612"
    },
    {
      "channel": 2,
      "note": 68,
      "start": 17.2087,
      "duration": 0.0814,
      "velocity": 100,
      "chip": "ym2612"
    },
    {
      "channel": 1,
      "note": 72,
      "start": 17.2134,
      "duration": 0.0724,
      "velocity": 107,
      "chip": "ym2612"
    },
    {
      "channel": 3,
      "note": 65,
      "start": 17.2137,
      "duration": 0.0703,
      "velocity": 95,
      "chip": "ym2612"
    },
    {
      "channel": 4,
      "note": 56,
      "start": 17.2139,
      "duration": 0.0052,
      "velocity": 104,
      "chip": "ym2612"
    },
    {
      "channel": 3,
      "note": 63,
      "start": 17.2842,
      "duration": 0.0061,
      "velocity": 95,
      "chip": "ym2612"
    },
    {
      "channel": 1,
      "note": 68,
      "start": 17.2901,
      "duration": 0.1827,
      "velocity": 107,
      "chip": "ym2612"
    },
    {
      "channel": 3,
      "note": 63,
      "start": 17.2904,
      "duration": 0.0826,
      "velocity": 95,
      "chip": "ym2612"
    },
    {
      "channel": 4,
      "note": 56,
      "start": 17.2905,
      "duration": 0.0826,
      "velocity": 104,
      "chip": "ym2612"
    },
    {
      "channel": 0,
      "note": 74,
      "start": 17.523,
      "duration": 0.0164,
      "velocity": 113,
      "chip": "ym2612"
    },
    {
      "channel": 2,
      "note": 71,
      "start": 17.5233,
      "duration": 0.0165,
      "velocity": 100,
      "chip": "ym2612"
    },
    {
      "channel": 0,
      "note": 75,
      "start": 17.5397,
      "duration": 0.3206,
      "velocity": 113,
      "chip": "ym2612"
    },
    {
      "channel": 2,
      "note": 72,
      "start": 17.54,
      "duration": 0.3207,
      "velocity": 100,
      "chip": "ym2612"
    },
    {
      "channel": 3,
      "note": 65,
      "start": 17.5404,
      "duration": 0.0053,
      "velocity": 95,
      "chip": "ym2612"
    },
    {
      "channel": 4,
      "note": 56,
      "start": 17.5407,
      "duration": 0.0051,
      "velocity": 104,
      "chip": "ym2612"
    },
    {
      "channel": 1,
      "note": 63,
      "start": 17.6942,
      "duration": 0.1829,
      "velocity": 107,
      "chip": "ym2612"
    },
    {
      "channel": 3,
      "note": 63,
      "start": 17.6944,
      "duration": 0.0828,
      "velocity": 95,
      "chip": "ym2612"
    },
    {
      "channel": 4,
      "note": 56,
      "start": 17.6946,
      "duration": 0.0828,
      "velocity": 104,
      "chip": "ym2612"
    },
    {
      "channel": 0,
      "note": 77,
      "start": 17.8605,
      "duration": 0.2376,
      "velocity": 113,
      "chip": "ym2612"
    },
    {
      "channel": 2,
      "note": 73,
      "start": 17.8609,
      "duration": 0.2378,
      "velocity": 100,
      "chip": "ym2612"
    },
    {
      "channel": 3,
      "note": 65,
      "start": 17.9441,
      "duration": 0.0057,
      "velocity": 95,
      "chip": "ym2612"
    },
    {
      "channel": 4,
      "note": 56,
      "start": 17.9445,
      "duration": 0.0054,
      "velocity": 104,
      "chip": "ym2612"
    },
    {
      "channel": 0,
      "note": 75,
      "start": 18.0983,
      "duration": 0.321,
      "velocity": 113,
      "chip": "ym2612"
    },
    {
      "channel": 1,
      "note": 68,
      "start": 18.0985,
      "duration": 0.1831,
      "velocity": 107,
      "chip": "ym2612"
    },
    {
      "channel": 2,
      "note": 72,
      "start": 18.0988,
      "duration": 0.3208,
      "velocity": 100,
      "chip": "ym2612"
    },
    {
      "channel": 3,
      "note": 63,
      "start": 18.0991,
      "duration": 0.0827,
      "velocity": 95,
      "chip": "ym2612"
    },
    {
      "channel": 4,
      "note": 56,
      "start": 18.0993,
      "duration": 0.0826,
      "velocity": 104,
      "chip": "ym2612"
    },
    {
      "channel": 3,
      "note": 65,
      "start": 18.3486,
      "duration": 0.0057,
      "velocity": 95,
      "chip": "ym2612"
    },
    {
      "channel": 4,
      "note": 56,
      "start": 18.349,
      "duration": 0.0054,
      "velocity": 104,
      "chip": "ym2612"
    },
    {
      "channel": 0,
      "note": 77,
      "start": 18.4195,
      "duration": 0.333,
      "velocity": 113,
      "chip": "ym2612"
    },
    {
      "channel": 2,
      "note": 73,
      "start": 18.4199,
      "duration": 0.333,
      "velocity": 100,
      "chip": "ym2612"
    },
    {
      "channel": 1,
      "note": 63,
      "start": 18.5029,
      "duration": 0.1831,
      "velocity": 107,
      "chip": "ym2612"
    },
    {
      "channel": 3,
      "note": 63,
      "start": 18.5032,
      "duration": 0.0829,
      "velocity": 95,
      "chip": "ym2612"
    },
    {
      "channel": 4,
      "note": 56,
      "start": 18.5034,
      "duration": 0.0828,
      "velocity": 104,
      "chip": "ym2612"
    },
    {
      "channel": 0,
      "note": 71,
      "start": 18.7528,
      "duration": 0.0708,
      "velocity": 113,
      "chip": "ym2612"
    },
    {
      "channel": 2,
      "note": 67,
      "start": 18.7531,
      "duration": 0.0708,
      "velocity": 100,
      "chip": "ym2612"
    },
    {
      "channel": 3,
      "note": 65,
      "start": 18.7534,
      "duration": 0.0708,
      "velocity": 95,
      "chip": "ym2612"
    },
    {
      "channel": 4,
      "note": 56,
      "start": 18.7537,
      "duration": 0.0051,
      "velocity": 104,
      "chip": "ym2612"
    },
    {
      "channel": 0,
      "note": 72,
      "start": 18.8238,
      "duration": 0.0833,
      "velocity": 113,
      "chip": "ym2612"
    },
    {
      "channel": 2,
      "note": 68,
      "start": 18.8241,
      "duration": 0.0834,
      "velocity": 100,
      "chip": "ym2612"
    },
    {
      "channel": 3,
      "note": 63,
      "start": 18.8244,
      "duration": 0.0833,
      "velocity": 95,
      "chip": "ym2612"
    },
    {
      "channel": 0,
      "note": 72,
      "start": 18.9071,
      "duration": 0.233,
      "velocity": 113,
      "chip": "ym2612"
    },
    {
      "channel": 1,
      "note": 68,
      "start": 18.9074,
      "duration": 0.1827,
      "velocity": 107,
      "chip": "ym2612"
    },
    {
      "channel": 2,
      "note": 68,
      "start": 18.9076,
      "duration": 0.2329,
      "velocity": 100,
      "chip": "ym2612"
    },
    {
      "channel": 3,
      "note": 63,
      "start": 18.9077,
      "duration": 0.0825,
      "velocity": 95,
      "chip": "ym2612"
    },
    {
      "channel": 4,
      "note": 56,
      "start": 18.9079,
      "duration": 0.0825,
      "velocity": 104,
      "chip": "ym2612"
    },
    {
      "channel": 0,
      "note": 74,
      "start": 19.1403,
      "duration": 0.0165,
      "velocity": 113,
      "chip": "ym2612"
    },
    {
      "channel": 2,
      "note": 71,
      "start": 19.1406,
      "duration": 0.0165,
      "velocity": 100,
      "chip": "ym2612"
    },
    {
      "channel": 0,
      "note": 75,
      "start": 19.1571,
      "duration": 0.3206,
      "velocity": 113,
      "chip": "ym2612"
    },
    {
      "channel": 2,
      "note": 72,
      "start": 19.1574,
      "duration": 0.3207,
      "velocity": 100,
      "chip": "ym2612"
    },
    {
      "channel": 3,
      "note": 65,
      "start": 19.1578,
      "duration": 0.0051,
      "velocity": 95,
      "chip": "ym2612"
    },
    {
      "channel": 4,
      "note": 56,
      "start": 19.1581,
      "duration": 0.0049,
      "velocity": 104,
      "chip": "ym2612"
    },
    {
      "channel": 1,
      "note": 63,
      "start": 19.3114,
      "duration": 0.1831,
      "velocity": 107,
      "chip": "ym2612"
    },
    {
      "channel": 3,
      "note": 63,
      "start": 19.3117,
      "duration": 0.0829,
      "velocity": 95,
      "chip": "ym2612"
    },
    {
      "channel": 4,
      "note": 56,
      "start": 19.312,
      "duration": 0.0828,
      "velocity": 104,
      "chip": "ym2612"
    },
    {
      "channel": 0,
      "note": 77,
      "start": 19.4779,
      "duration": 0.2375,
      "velocity": 113,
      "chip": "ym2612"
    },
    {
      "channel": 2,
      "note": 73,
      "start": 19.4783,
      "duration": 0.2377,
      "velocity": 100,
      "chip": "ym2612"
    },
    {
      "channel": 3,
      "note": 65,
      "start": 19.5615,
      "duration": 0.0057,
      "velocity": 95,
      "chip": "ym2612"
    },
    {
      "channel": 4,
      "note": 56,
      "start": 19.5618,
      "duration": 0.0054,
      "velocity": 104,
      "chip": "ym2612"
    },
    {
      "channel": 0,
      "note": 78,
      "start": 19.7157,
      "duration": 0.2498,
      "velocity": 113,
      "chip": "ym2612"
    },
    {
      "channel": 1,
      "note": 68,
      "start": 19.7159,
      "duration": 0.1829,
      "velocity": 107,
      "chip": "ym2612"
    },
    {
      "channel": 2,
      "note": 75,
      "start": 19.7161,
      "duration": 0.25,
      "velocity": 100,
      "chip": "ym2612"
    },
    {
      "channel": 3,
      "note": 63,
      "start": 19.7163,
      "duration": 0.0827,
      "velocity": 95,
      "chip": "ym2612"
    },
    {
      "channel": 4,
      "note": 56,
      "start": 19.7165,
      "duration": 0.0826,
      "velocity": 104,
      "chip": "ym2612"
    },
    {
      "channel": 0,
      "note": 77,
      "start": 19.9656,
      "duration": 0.1547,
      "velocity": 113,
      "chip": "ym2612"
    },
    {
      "channel": 1,
      "note": 70,
      "start": 19.966,
      "duration": 0.0877,
      "velocity": 107,
      "chip": "ym2612"
    },
    {
      "channel": 2,
      "note": 73,
      "start": 19.9663,
      "duration": 0.1546,
      "velocity": 100,
      "chip": "ym2612"
    },
    {
      "channel": 3,
      "note": 65,
      "start": 19.9667,
      "duration": 0.0059,
      "velocity": 95,
      "chip": "ym2612"
    },
    {
      "channel": 4,
      "note": 56,
      "start": 19.9671,
      "duration": 0.0056,
      "velocity": 104,
      "chip": "ym2612"
    },
    {
      "channel": 0,
      "note": 75,
      "start": 20.1207,
      "duration": 0.1665,
      "velocity": 113,
      "chip": "ym2612"
    },
    {
      "channel": 1,
      "note": 71,
      "start": 20.1209,
      "duration": 0.1685,
      "velocity": 107,
      "chip": "ym2612"
    },
    {
      "channel": 2,
      "note": 72,
      "start": 20.1211,
      "duration": 0.1664,
      "velocity": 100,
      "chip": "ym2612"
    },
    {
      "channel": 3,
      "note": 63,
      "start": 20.1215,
      "duration": 0.0825,
      "velocity": 95,
      "chip": "ym2612"
    },
    {
      "channel": 4,
      "note": 56,
      "start": 20.1217,
      "duration": 0.0824,
      "velocity": 104,
      "chip": "ym2612"
    },
    {
      "channel": 0,
      "note": 80,
      "start": 20.2873,
      "duration": 0.0108,
      "velocity": 113,
      "chip": "ym2612"
    },
    {
      "channel": 2,
      "note": 75,
      "start": 20.2878,
      "duration": 0.0828,
      "velocity": 100,
      "chip": "ym2612"
    },
    {
      "channel": 1,
      "note": 72,
      "start": 20.2926,
      "duration": 0.0729,
      "velocity": 107,
      "chip": "ym2612"
    },
    {
      "channel": 3,
      "note": 65,
      "start": 20.2928,
      "duration": 0.0716,
      "velocity": 95,
      "chip": "ym2612"
    },
    {
      "channel": 4,
      "note": 56,
      "start": 20.2931,
      "duration": 0.0052,
      "velocity": 104,
      "chip": "ym2612"
    },
    {
      "channel": 0,
      "note": 76,
      "start": 20.3642,
      "duration": 0.0059,
      "velocity": 97,
      "chip": "ym2612"
    },
    {
      "channel": 3,
      "note": 63,
      "start": 20.3646,
      "duration": 0.0062,
      "velocity": 95,
      "chip": "ym2612"
    },
    {
      "channel": 0,
      "note": 77,
      "start": 20.3703,
      "duration": 0.1663,
      "velocity": 97,
      "chip": "ym2612"
    },
    {
      "channel": 1,
      "note": 73,
      "start": 20.3705,
      "duration": 0.1829,
      "velocity": 107,
      "chip": "ym2612"
    },
    {
      "channel": 3,
      "note": 68,
      "start": 20.3707,
      "duration": 0.0828,
      "velocity": 95,
      "chip": "ym2612"
    },
    {
      "channel": 4,
      "note": 61,
      "start": 20.3709,
      "duration": 0.0829,
      "velocity": 104,
      "chip": "ym2612"
    },
    {
      "channel": 0,
      "note": 85,
      "start": 20.5368,
      "duration": 0.0831,
      "velocity": 97,
      "chip": "ym2612"
    },
    {
      "channel": 0,
      "note": 80,
      "start": 20.6202,
      "duration": 0.0711,
      "velocity": 97,
      "chip": "ym2612"
    },
    {
      "channel": 3,
      "note": 70,
      "start": 20.6206,
      "duration": 0.006,
      "velocity": 95,
      "chip": "ym2612"
    },
    {
      "channel": 4,
      "note": 61,
      "start": 20.621,
      "duration": 0.0058,
      "velocity": 104,
      "chip": "ym2612"
    },
    {
      "channel": 0,
      "note": 77,
      "start": 20.6916,
      "duration": 0.0832,
      "velocity": 97,
      "chip": "ym2612"
    },
    {
      "channel": 0,
      "note": 85,
      "start": 20.775,
      "duration": 0.0499,
      "velocity": 97,
      "chip": "ym2612"
    },
    {
      "channel": 1,
      "note": 68,
      "start": 20.7752,
      "duration": 0.1831,
      "velocity": 107,
      "chip": "ym2612"
    },
    {
      "channel": 2,
      "note": 77,
      "start": 20.7765,
      "duration": 0.0487,
      "velocity": 60,
      "chip": "ym2612"
    },
    {
      "channel": 3,
      "note": 68,
      "start": 20.7767,
      "duration": 0.0818,
      "velocity": 95,
      "chip": "ym2612"
    },
    {
      "channel": 4,
      "note": 61,
      "start": 20.777,
      "duration": 0.0817,
      "velocity": 104,
      "chip": "ym2612"
    },
    {
      "channel": 0,
      "note": 84,
      "start": 21.0253,
      "duration": 0.0051,
      "velocity": 97,
      "chip": "ym2612"
    },
    {
      "channel": 2,
      "note": 76,
      "start": 21.0256,
      "duration": 0.0049,
      "velocity": 60,
      "chip": "ym2612"
    },
    {
      "channel": 3,
      "note": 70,
      "start": 21.026,
      "duration": 0.0061,
      "velocity": 95,
      "chip": "ym2612"
    },
    {
      "channel": 4,
      "note": 61,
      "start": 21.0263,
      "duration": 0.0059,
      "velocity": 104,
      "chip": "ym2612"
    },
    {
      "channel": 0,
      "note": 83,
      "start": 21.0966,
      "duration": 0.0833,
      "velocity": 97,
      "chip": "ym2612"
    },
    {
      "channel": 2,
      "note": 75,
      "start": 21.097,
      "duration": 0.0833,
      "velocity": 60,
      "chip": "ym2612"
    },
    {
      "channel": 3,
      "note": 71,
      "start": 21.0973,
      "duration": 0.0833,
      "velocity": 95,
      "chip": "ym2612"
    },
    {
      "channel": 4,
      "note": 61,
      "start": 21.0976,
      "duration": 0.0831,
      "velocity": 104,
      "chip": "ym2612"
    },
    {
      "channel": 0,
      "note": 83,
      "start": 21.1799,
      "duration": 0.4386,
      "velocity": 97,
      "chip": "ym2612"
    },
    {
      "channel": 1,
      "note": 71,
      "start": 21.1802,
      "duration": 0.1831,
      "velocity": 107,
      "chip": "ym2612"
    },
    {
      "channel": 2,
      "note": 75,
      "start": 21.1804,
      "duration": 0.572,
      "velocity": 60,
      "chip": "ym2612"
    },
    {
      "channel": 3,
      "note": 71,
      "start": 21.1805,
      "duration": 0.2499,
      "velocity": 95,
      "chip": "ym2612"
    },
    {
      "channel": 4,
      "note": 61,
      "start": 21.1807,
      "duration": 0.0829,
      "velocity": 104,
      "chip": "ym2612"
    },
    {
      "channel": 1,
      "note": 73,
      "start": 21.4302,
      "duration": 0.0885,
      "velocity": 107,
      "chip": "ym2612"
    },
    {
      "channel": 3,
      "note": 70,
      "start": 21.4307,
      "duration": 0.007,
      "velocity": 95,
      "chip": "ym2612"
    },
    {
      "channel": 4,
      "note": 61,
      "start": 21.4311,
      "duration": 0.0068,
      "velocity": 104,
      "chip": "ym2612"
    },
    {
      "channel": 1,
      "note": 68,
      "start": 21.5856,
      "duration": 0.1685,
      "velocity": 107,
      "chip": "ym2612"
    },
    {
      "channel": 3,
      "note": 68,
      "start": 21.5859,
      "duration": 0.0831,
      "velocity": 95,
      "chip": "ym2612"
    },
    {
      "channel": 4,
      "note": 61,
      "start": 21.5862,
      "duration": 0.083,
      "velocity": 104,
      "chip": "ym2612"
    },
    {
      "channel": 0,
      "note": 82,
      "start": 21.6188,
      "duration": 0.0498,
      "velocity": 97,
      "chip": "ym2612"
    },
    {
      "channel": 0,
      "note": 81,
      "start": 21.6688,
      "duration": 0.0332,
      "velocity": 97,
      "chip": "ym2612"
    },
    {
      "channel": 0,
      "note": 80,
      "start": 21.7022,
      "duration": 0.0498,
      "velocity": 97,
      "chip": "ym2612"
    },
    {
      "channel": 0,
      "note": 83,
      "start": 21.7522,
      "duration": 0.0039,
      "velocity": 97,
      "chip": "ym2612"
    },
    {
      "channel": 2,
      "note": 77,
      "start": 21.7526,
      "duration": 0.162,
      "velocity": 60,
      "chip": "ym2612"
    },
    {
      "channel": 0,
      "note": 85,
      "start": 21.7562,
      "duration": 0.1579,
      "velocity": 97,
      "chip": "ym2612"
    },
    {
      "channel": 1,
      "note": 61,
      "start": 21.7588,
      "duration": 0.0887,
      "velocity": 107,
      "chip": "ym2612"
    },
    {
      "channel": 3,
      "note": 70,
      "start": 21.7593,
      "duration": 0.0073,
      "velocity": 95,
      "chip": "ym2612"
    },
    {
      "channel": 4,
      "note": 61,
      "start": 21.7596,
      "duration": 0.007,
      "velocity": 104,
      "chip": "ym2612"
    },
    {
      "channel": 0,
      "note": 82,
      "start": 21.9143,
      "duration": 0.8109,
      "velocity": 97,
      "chip": "ym2612"
    },
    {
      "channel": 1,
      "note": 66,
      "start": 21.9145,
      "duration": 0.2499,
      "velocity": 107,
      "chip": "ym2612"
    },
    {
      "channel": 2,
      "note": 78,
      "start": 21.9147,
      "duration": 0.25,
      "velocity": 60,
      "chip": "ym2612"
    },
    {
      "channel": 3,
      "note": 66,
      "start": 21.9149,
      "duration": 0.8111,
      "velocity": 95,
      "chip": "ym2612"
    },
    {
      "channel": 4,
      "note": 61,
      "start": 21.9151,
      "duration": 0.8111,
      "velocity": 104,
      "chip": "ym2612"
    },
    {
      "channel": 1,
      "note": 73,
      "start": 22.1647,
      "duration": 0.1553,
      "velocity": 107,
      "chip": "ym2612"
    },
    {
      "channel": 2,
      "note": 77,
      "start": 22.165,
      "duration": 0.1552,
      "velocity": 60,
      "chip": "ym2612"
    },
    {
      "channel": 1,
      "note": 66,
      "start": 22.3201,
      "duration": 0.2498,
      "velocity": 107,
      "chip": "ym2612"
    },
    {
      "channel": 2,
      "note": 76,
      "start": 22.3203,
      "duration": 0.2499,
      "velocity": 60,
      "chip": "ym2612"
    },
    {
      "channel": 1,
      "note": 78,
      "start": 22.5701,
      "duration": 0.1555,
      "velocity": 107,
      "chip": "ym2612"
    },
    {
      "channel": 2,
      "note": 75,
      "start": 22.5704,
      "duration": 0.1553,
      "velocity": 60,
      "chip": "ym2612"
    },
    {
      "channel": 0,
      "note": 81,
      "start": 22.7255,
      "duration": 0.6016,
      "velocity": 97,
      "chip": "ym2612"
    },
    {
      "channel": 1,
      "note": 69,
      "start": 22.7257,
      "duration": 0.4057,
      "velocity": 107,
      "chip": "ym2612"
    },
    {
      "channel": 2,
      "note": 73,
      "start": 22.7259,
      "duration": 0.25,
      "velocity": 60,
      "chip": "ym2612"
    },
    {
      "channel": 3,
      "note": 69,
      "start": 22.7261,
      "duration": 0.6628,
      "velocity": 102,
      "chip": "ym2612"
    },
    {
      "channel": 4,
      "note": 64,
      "start": 22.7265,
      "duration": 0.6626,
      "velocity": 104,
      "chip": "ym2612"
    },
    {
      "channel": 2,
      "note": 75,
      "start": 22.9762,
      "duration": 0.1555,
      "velocity": 60,
      "chip": "ym2612"
    },
    {
      "channel": 1,
      "note": 73,
      "start": 23.1316,
      "duration": 0.2549,
      "velocity": 107,
      "chip": "ym2612"
    },
    {
      "channel": 2,
      "note": 76,
      "start": 23.1319,
      "duration": 0.0829,
      "velocity": 60,
      "chip": "ym2612"
    },
    {
      "channel": 2,
      "note": 75,
      "start": 23.2149,
      "duration": 0.0832,
      "velocity": 60,
      "chip": "ym2612"
    },
    {
      "channel": 2,
      "note": 76,
      "start": 23.2984,
      "duration": 0.0066,
      "velocity": 60,
      "chip": "ym2612"
    },
    {
      "channel": 2,
      "note": 78,
      "start": 23.3052,
      "duration": 0.0223,
      "velocity": 60,
      "chip": "ym2612"
    },
    {
      "channel": 0,
      "note": 80,
      "start": 23.3273,
      "duration": 0.033,
      "velocity": 97,
      "chip": "ym2612"
    },
    {
      "channel": 2,
      "note": 72,
      "start": 23.3278,
      "duration": 0.033,
      "velocity": 60,
      "chip": "ym2612"
    },
    {
      "channel": 0,
      "note": 79,
      "start": 23.3606,
      "duration": 0.0165,
      "velocity": 97,
      "chip": "ym2612"
    },
    {
      "channel": 2,
      "note": 71,
      "start": 23.361,
      "duration": 0.0166,
      "velocity": 60,
      "chip": "ym2612"
    },
    {
      "channel": 0,
      "note": 78,
      "start": 23.3773,
      "duration": 0.0012,
      "velocity": 97,
      "chip": "ym2612"
    },
    {
      "channel": 2,
      "note": 70,
      "start": 23.3776,
      "duration": 0.0012,
      "velocity": 60,
      "chip": "ym2612"
    },
    {
      "channel": 0,
      "note": 77,
      "start": 23.3787,
      "duration": 0.002,
      "velocity": 97,
      "chip": "ym2612"
    },
    {
      "channel": 2,
      "note": 69,
      "start": 23.379,
      "duration": 0.0021,
      "velocity": 60,
      "chip": "ym2612"
    },
    {
      "channel": 0,
      "note": 76,
      "start": 23.3809,
      "duration": 0.0011,
      "velocity": 97,
      "chip": "ym2612"
    },
    {
      "channel": 2,
      "note": 68,
      "start": 23.3812,
      "duration": 0.0011,
      "velocity": 60,
      "chip": "ym2612"
    },
    {
      "channel": 0,
      "note": 75,
      "start": 23.3822,
      "duration": 0.004,
      "velocity": 97,
      "chip": "ym2612"
    },
    {
      "channel": 2,
      "note": 67,
      "start": 23.3824,
      "duration": 0.0054,
      "velocity": 102,
      "chip": "ym2612"
    },
    {
      "channel": 0,
      "note": 68,
      "start": 23.3864,
      "duration": 0.2492,
      "velocity": 97,
      "chip": "ym2612"
    },
    {
      "channel": 1,
      "note": 68,
      "start": 23.3866,
      "duration": 0.4045,
      "velocity": 107,
      "chip": "ym2612"
    },
    {
      "channel": 2,
      "note": 72,
      "start": 23.388,
      "duration": 0.2488,
      "velocity": 104,
      "chip": "ym2612"
    },
    {
      "channel": 3,
      "note": 68,
      "start": 23.389,
      "duration": 0.2488,
      "velocity": 104,
      "chip": "ym2612"
    },
    {
      "channel": 0,
      "note": 68,
      "start": 23.6358,
      "duration": 0.0084,
      "velocity": 97,
      "chip": "ym2612"
    },
    {
      "channel": 2,
      "note": 84,
      "start": 23.637,
      "duration": 0.1549,
      "velocity": 102,
      "chip": "ym2612"
    },
    {
      "channel": 3,
      "note": 80,
      "start": 23.6381,
      "duration": 0.1547,
      "velocity": 102,
      "chip": "ym2612"
    },
    {
      "channel": 0,
      "note": 67,
      "start": 23.6444,
      "duration": 0.0631,
      "velocity": 97,
      "chip": "ym2612"
    },
    {
      "channel": 0,
      "note": 68,
      "start": 23.7077,
      "duration": 0.0831,
      "velocity": 97,
      "chip": "ym2612"
    },
    {
      "channel": 0,
      "note": 69,
      "start": 23.791,
      "duration": 0.2496,
      "velocity": 97,
      "chip": "ym2612"
    },
    {
      "channel": 1,
      "note": 67,
      "start": 23.7912,
      "duration": 0.4049,
      "velocity": 107,
      "chip": "ym2612"
    },
    {
      "channel": 2,
      "note": 71,
      "start": 23.792,
      "duration": 0.2498,
      "velocity": 104,
      "chip": "ym2612"
    },
    {
      "channel": 3,
      "note": 67,
      "start": 23.7929,
      "duration": 0.25,
      "velocity": 104,
      "chip": "ym2612"
    },
    {
      "channel": 0,
      "note": 69,
      "start": 24.0409,
      "duration": 0.0083,
      "velocity": 97,
      "chip": "ym2612"
    },
    {
      "channel": 2,
      "note": 85,
      "start": 24.042,
      "duration": 0.1549,
      "velocity": 102,
      "chip": "ym2612"
    },
    {
      "channel": 3,
      "note": 82,
      "start": 24.0432,
      "duration": 0.1548,
      "velocity": 102,
      "chip": "ym2612"
    },
    {
      "channel": 0,
      "note": 65,
      "start": 24.0494,
      "duration": 0.0631,
      "velocity": 97,
      "chip": "ym2612"
    },
    {
      "channel": 0,
      "note": 69,
      "start": 24.1128,
      "duration": 0.0832,
      "velocity": 97,
      "chip": "ym2612"
    },
    {
      "channel": 0,
      "note": 70,
      "start": 24.1961,
      "duration": 0.2498,
      "velocity": 97,
      "chip": "ym2612"
    },
    {
      "channel": 1,
      "note": 66,
      "start": 24.1963,
      "duration": 0.4051,
      "velocity": 107,
      "chip": "ym2612"
    },
    {
      "channel": 2,
      "note": 70,
      "start": 24.1971,
      "duration": 0.25,
      "velocity": 104,
      "chip": "ym2612"
    },
    {
      "channel": 3,
      "note": 66,
      "start": 24.1981,
      "duration": 0.2501,
      "velocity": 104,
      "chip": "ym2612"
    },
    {
      "channel": 0,
      "note": 70,
      "start": 24.4461,
      "duration": 0.0084,
      "velocity": 97,
      "chip": "ym2612"
    },
    {
      "channel": 2,
      "note": 86,
      "start": 24.4473,
      "duration": 0.155,
      "velocity": 102,
      "chip": "ym2612"
    },
    {
      "channel": 3,
      "note": 83,
      "start": 24.4484,
      "duration": 0.1548,
      "velocity": 102,
      "chip": "ym2612"
    },
    {
      "channel": 0,
      "note": 65,
      "start": 24.4547,
      "duration": 0.0631,
      "velocity": 97,
      "chip": "ym2612"
    },
    {
      "channel": 0,
      "note": 70,
      "start": 24.518,
      "duration": 0.0831,
      "velocity": 97,
      "chip": "ym2612"
    },
    {
      "channel": 0,
      "note": 71,
      "start": 24.6014,
      "duration": 0.172,
      "velocity": 97,
      "chip": "ym2612"
    },
    {
      "channel": 1,
      "note": 65,
      "start": 24.6016,
      "duration": 0.3273,
      "velocity": 92,
      "chip": "ym2612"
    },
    {
      "channel": 2,
      "note": 68,
      "start": 24.6024,
      "duration": 0.1721,
      "velocity": 104,
      "chip": "ym2612"
    },
    {
      "channel": 3,
      "note": 65,
      "start": 24.6034,
      "duration": 0.1721,
      "velocity": 104,
      "chip": "ym2612"
    },
    {
      "channel": 0,
      "note": 71,
      "start": 24.7737,
      "duration": 0.0074,
      "velocity": 97,
      "chip": "ym2612"
    },
    {
      "channel": 2,
      "note": 87,
      "start": 24.7747,
      "duration": 0.1553,
      "velocity": 92,
      "chip": "ym2612"
    },
    {
      "channel": 3,
      "note": 84,
      "start": 24.7757,
      "duration": 0.1552,
      "velocity": 104,
      "chip": "ym2612"
    },
    {
      "channel": 0,
      "note": 65,
      "start": 24.7814,
      "duration": 0.0632,
      "velocity": 97,
      "chip": "ym2612"
    },
    {
      "channel": 0,
      "note": 71,
      "start": 24.8448,
      "duration": 0.0831,
      "velocity": 97,
      "chip": "ym2612"
    },
    {
      "channel": 0,
      "note": 59,
      "start": 24.9281,
      "duration": 0.0831,
      "velocity": 97,
      "chip": "ym2612"
    },
    {
      "channel": 1,
      "note": 60,
      "start": 24.929,
      "duration": 0.1157,
      "velocity": 92,
      "chip": "ym2612"
    },
    {
      "channel": 0,
      "note": 65,
      "start": 25.0115,
      "duration": 0.0831,
      "velocity": 97,
      "chip": "ym2612"
    },
    {
      "channel": 0,
      "note": 68,
      "start": 25.0948,
      "duration": 0.0831,
      "velocity": 97,
      "chip": "ym2612"
    },
    {
      "channel": 2,
      "note": 82,
      "start": 25.0951,
      "duration": 0.1543,
      "velocity": 92,
      "chip": "ym2612"
    },
    {
      "channel": 3,
      "note": 76,
      "start": 25.0954,
      "duration": 0.0863,
      "velocity": 104,
      "chip": "ym2612"
    },
    {
      "channel": 4,
      "note": 79,
      "start": 25.0957,
      "duration": 0.0862,
      "velocity": 104,
      "chip": "ym2612"
    },
    {
      "channel": 0,
      "note": 75,
      "start": 25.1783,
      "duration": 0.5589,
      "velocity": 97,
      "chip": "ym2612"
    },
    {
      "channel": 1,
      "note": 60,
      "start": 25.2493,
      "duration": 0.1163,
      "velocity": 92,
      "chip": "ym2612"
    },
    {
      "channel": 2,
      "note": 82,
      "start": 25.3329,
      "duration": 0.2499,
      "velocity": 92,
      "chip": "ym2612"
    },
    {
      "channel": 3,
      "note": 76,
      "start": 25.3331,
      "duration": 0.116,
      "velocity": 104,
      "chip": "ym2612"
    },
    {
      "channel": 4,
      "note": 79,
      "start": 25.3333,
      "duration": 0.1159,
      "velocity": 104,
      "chip": "ym2612"
    },
    {
      "channel": 1,
      "note": 60,
      "start": 25.5826,
      "duration": 0.0213,
      "velocity": 92,
      "chip": "ym2612"
    },
    {
      "channel": 2,
      "note": 82,
      "start": 25.6542,
      "duration": 0.0835,
      "velocity": 92,
      "chip": "ym2612"
    },
    {
      "channel": 3,
      "note": 76,
      "start": 25.6545,
      "duration": 0.0834,
      "velocity": 104,
      "chip": "ym2612"
    },
    {
      "channel": 4,
      "note": 79,
      "start": 25.6548,
      "duration": 0.0833,
      "velocity": 104,
      "chip": "ym2612"
    },
    {
      "channel": 0,
      "note": 75,
      "start": 25.7374,
      "duration": 0.2496,
      "velocity": 97,
      "chip": "ym2612"
    },
    {
      "channel": 2,
      "note": 82,
      "start": 25.7377,
      "duration": 0.1664,
      "velocity": 92,
      "chip": "ym2612"
    },
    {
      "channel": 3,
      "note": 76,
      "start": 25.7379,
      "duration": 0.2499,
      "velocity": 104,
      "chip": "ym2612"
    },
    {
      "channel": 4,
      "note": 79,
      "start": 25.738,
      "duration": 0.1662,
      "velocity": 104,
      "chip": "ym2612"
    },
    {
      "channel": 1,
      "note": 60,
      "start": 25.904,
      "duration": 0.0878,
      "velocity": 92,
      "chip": "ym2612"
    },
    {
      "channel": 0,
      "note": 74,
      "start": 25.9873,
      "duration": 0.0042,
      "velocity": 97,
      "chip": "ym2612"
    },
    {
      "channel": 2,
      "note": 82,
      "start": 25.9877,
      "duration": 0.0068,
      "velocity": 92,
      "chip": "ym2612"
    },
    {
      "channel": 3,
      "note": 76,
      "start": 25.988,
      "duration": 0.0067,
      "velocity": 104,
      "chip": "ym2612"
    },
    {
      "channel": 4,
      "note": 79,
      "start": 25.9884,
      "duration": 0.0065,
      "velocity": 104,
      "chip": "ym2612"
    },
    {
      "channel": 0,
      "note": 72,
      "start": 25.9917,
      "duration": 0.0025,
      "velocity": 97,
      "chip": "ym2612"
    },
    {
      "channel": 0,
      "note": 70,
      "start": 25.9944,
      "duration": 0.0028,
      "velocity": 97,
      "chip": "ym2612"
    },
    {
      "channel": 0,
      "note": 69,
      "start": 25.9974,
      "duration": 0.0024,
      "velocity": 97,
      "chip": "ym2612"
    },
    {
      "channel": 0,
      "note": 67,
      "start": 26.0001,
      "duration": 0.0023,
      "velocity": 97,
      "chip": "ym2612"
    },
    {
      "channel": 0,
      "note": 65,
      "start": 26.0026,
      "duration": 0.0018,
      "velocity": 97,
      "chip": "ym2612"
    },
    {
      "channel": 0,
      "note": 63,
      "start": 26.0047,
      "duration": 0.0046,
      "velocity": 97,
      "chip": "ym2612"
    },
    {
      "channel": 1,
      "note": 72,
      "start": 26.005,
      "duration": 0.0214,
      "velocity": 92,
      "chip": "ym2612"
    },
    {
      "channel": 2,
      "note": 76,
      "start": 26.0059,
      "duration": 0.0069,
      "velocity": 104,
      "chip": "ym2612"
    },
    {
      "channel": 3,
      "note": 79,
      "start": 26.0062,
      "duration": 0.0067,
      "velocity": 104,
      "chip": "ym2612"
    },
    {
      "channel": 4,
      "note": 84,
      "start": 26.0064,
      "duration": 0.0065,
      "velocity": 104,
      "chip": "ym2612"
    },
    {
      "channel": 0,
      "note": 62,
      "start": 26.0094,
      "duration": 0.003,
      "velocity": 97,
      "chip": "ym2612"
    },
    {
      "channel": 0,
      "note": 60,
      "start": 26.0126,
      "duration": 0.0135,
      "velocity": 97,
      "chip": "ym2612"
    },
    {
      "channel": 0,
      "note": 58,
      "start": 26.0263,
      "duration": 0.0499,
      "velocity": 97,
      "chip": "ym2612"
    },
    {
      "channel": 0,
      "note": 57,
      "start": 26.0764,
      "duration": 0.0042,
      "velocity": 97,
      "chip": "ym2612"
    },
    {
      "channel": 1,
      "note": 72,
      "start": 26.0767,
      "duration": 0.0124,
      "velocity": 92,
      "chip": "ym2612"
    },
    {
      "channel": 2,
      "note": 76,
      "start": 26.077,
      "duration": 0.0063,
      "velocity": 104,
      "chip": "ym2612"
    },
    {
      "channel": 3,
      "note": 79,
      "start": 26.0773,
      "duration": 0.0061,
      "velocity": 104,
      "chip": "ym2612"
    },
    {
      "channel": 4,
      "note": 84,
      "start": 26.0776,
      "duration": 0.006,
      "velocity": 104,
      "chip": "ym2612"
    },
    {
      "channel": 0,
      "note": 55,
      "start": 26.0808,
      "duration": 0.002,
      "velocity": 97,
      "chip": "ym2612"
    },
    {
      "channel": 0,
      "note": 53,
      "start": 26.083,
      "duration": 0.006,
      "velocity": 97,
      "chip": "ym2612"
    },
    {
      "channel": 1,
      "note": 53,
      "start": 26.1058,
      "duration": 0.6171,
      "velocity": 99,
      "chip": "ym2612"
    },
    {
      "channel": 4,
      "note": 77,
      "start": 26.1074,
      "duration": 0.0011,
      "velocity": 109,
      "chip": "ym2612"
    },
    {
      "channel": 4,
      "note": 77,
      "start": 26.1888,
      "duration": 0.0163,
      "velocity": 109,
      "chip": "ym2612"
    },
    {
      "channel": 0,
      "note": 81,
      "start": 26.2726,
      "duration": 0.157,
      "velocity": 96,
      "chip": "ym2612"
    },
    {
      "channel": 2,
      "note": 72,
      "start": 26.2738,
      "duration": 0.1562,
      "velocity": 96,
      "chip": "ym2612"
    },
    {
      "channel": 3,
      "note": 77,
      "start": 26.2749,
      "duration": 0.1553,
      "velocity": 96,
      "chip": "ym2612"
    },
    {
      "channel": 4,
      "note": 77,
      "start": 26.2752,
      "duration": 0.0134,
      "velocity": 109,
      "chip": "ym2612"
    },
    {
      "channel": 4,
      "note": 77,
      "start": 26.3554,
      "duration": 0.0019,
      "velocity": 109,
      "chip": "ym2612"
    },
    {
      "channel": 4,
      "note": 77,
      "start": 26.3657,
      "duration": 0.0142,
      "velocity": 109,
      "chip": "ym2612"
    },
    {
      "channel": 0,
      "note": 81,
      "start": 26.4298,
      "duration": 0.0164,
      "velocity": 96,
      "chip": "ym2612"
    },
    {
      "channel": 2,
      "note": 72,
      "start": 26.4301,
      "duration": 0.0163,
      "velocity": 96,
      "chip": "ym2612"
    },
    {
      "channel": 3,
      "note": 77,
      "start": 26.4304,
      "duration": 0.0161,
      "velocity": 96,
      "chip": "ym2612"
    },
    {
      "channel": 4,
      "note": 77,
      "start": 26.4315,
      "duration": 0.0009,
      "velocity": 109,
      "chip": "ym2612"
    },
    {
      "channel": 4,
      "note": 77,
      "start": 26.5137,
      "duration": 0.0161,
      "velocity": 109,
      "chip": "ym2612"
    },
    {
      "channel": 0,
      "note": 60,
      "start": 26.5975,
      "duration": 0.0821,
      "velocity": 75,
      "chip": "ym2612"
    },
    {
      "channel": 2,
      "note": 77,
      "start": 26.5989,
      "duration": 0.0811,
      "velocity": 75,
      "chip": "ym2612"
    },
    {
      "channel": 4,
      "note": 77,
      "start": 26.5993,
      "duration": 0.0139,
      "velocity": 109,
      "chip": "ym2612"
    },
    {
      "channel": 0,
      "note": 64,
      "start": 26.6798,
      "duration": 0.0114,
      "velocity": 75,
      "chip": "ym2612"
    },
    {
      "channel": 2,
      "note": 80,
      "start": 26.6803,
      "duration": 0.0113,
      "velocity": 75,
      "chip": "ym2612"
    },
    {
      "channel": 4,
      "note": 77,
      "start": 26.6807,
      "duration": 0.003,
      "velocity": 109,
      "chip": "ym2612"
    },
    {
      "channel": 0,
      "note": 65,
      "start": 26.6914,
      "duration": 0.0313,
      "velocity": 96,
      "chip": "ym2612"
    },
    {
      "channel": 2,
      "note": 81,
      "start": 26.6917,
      "duration": 0.032,
      "velocity": 96,
      "chip": "ym2612"
    },
    {
      "channel": 4,
      "note": 77,
      "start": 26.6921,
      "duration": 0.002,
      "velocity": 109,
      "chip": "ym2612"
    },
    {
      "channel": 0,
      "note": 79,
      "start": 26.7228,
      "duration": 0.2614,
      "velocity": 96,
      "chip": "ym2612"
    },
    {
      "channel": 1,
      "note": 53,
      "start": 26.7229,
      "duration": 0.519,
      "velocity": 99,
      "chip": "ym2612"
    },
    {
      "channel": 2,
      "note": 72,
      "start": 26.7239,
      "duration": 0.2607,
      "velocity": 96,
      "chip": "ym2612"
    },
    {
      "channel": 3,
      "note": 76,
      "start": 26.7242,
      "duration": 0.2606,
      "velocity": 96,
      "chip": "ym2612"
    },
    {
      "channel": 4,
      "note": 77,
      "start": 26.7253,
      "duration": 0.0008,
      "velocity": 109,
      "chip": "ym2612"
    },
    {
      "channel": 4,
      "note": 77,
      "start": 26.8057,
      "duration": 0.0165,
      "velocity": 109,
      "chip": "ym2612"
    },
    {
      "channel": 4,
      "note": 77,
      "start": 26.8891,
      "duration": 0.0163,
      "velocity": 109,
      "chip": "ym2612"
    },
    {
      "channel": 4,
      "note": 77,
      "start": 26.9725,
      "duration": 0.0035,
      "velocity": 109,
      "chip": "ym2612"
    },
    {
      "channel": 0,
      "note": 77,
      "start": 26.9844,
      "duration": 0.0029,
      "velocity": 96,
      "chip": "ym2612"
    },
    {
      "channel": 2,
      "note": 70,
      "start": 26.9847,
      "duration": 0.0027,
      "velocity": 96,
      "chip": "ym2612"
    },
    {
      "channel": 3,
      "note": 74,
      "start": 26.9851,
      "duration": 0.0024,
      "velocity": 96,
      "chip": "ym2612"
    },
    {
      "channel": 4,
      "note": 77,
      "start": 26.9854,
      "duration": 0.0022,
      "velocity": 109,
      "chip": "ym2612"
    },
    {
      "channel": 0,
      "note": 60,
      "start": 26.9923,
      "duration": 0.1659,
      "velocity": 75,
      "chip": "ym2612"
    },
    {
      "channel": 2,
      "note": 77,
      "start": 26.9934,
      "duration": 0.1652,
      "velocity": 75,
      "chip": "ym2612"
    },
    {
      "channel": 3,
      "note": 69,
      "start": 26.9944,
      "duration": 0.1645,
      "velocity": 75,
      "chip": "ym2612"
    },
    {
      "channel": 4,
      "note": 77,
      "start": 26.9955,
      "duration": 0.001,
      "velocity": 109,
      "chip": "ym2612"
    },
    {
      "channel": 4,
      "note": 77,
      "start": 27.0754,
      "duration": 0.0164,
      "velocity": 109,
      "chip": "ym2612"
    },
    {
      "channel": 0,
      "note": 57,
      "start": 27.1584,
      "duration": 0.0832,
      "velocity": 75,
      "chip": "ym2612"
    },
    {
      "channel": 2,
      "note": 72,
      "start": 27.1588,
      "duration": 0.0834,
      "velocity": 75,
      "chip": "ym2612"
    },
    {
      "channel": 3,
      "note": 65,
      "start": 27.1591,
      "duration": 0.0834,
      "velocity": 75,
      "chip": "ym2612"
    },
    {
      "channel": 4,
      "note": 77,
      "start": 27.1595,
      "duration": 0.0157,
      "velocity": 109,
      "chip": "ym2612"
    },
    {
      "channel": 0,
      "note": 72,
      "start": 27.2419,
      "duration": 0.0084,
      "velocity": 75,
      "chip": "ym2612"
    },
    {
      "channel": 1,
      "note": 59,
      "start": 27.2422,
      "duration": 0.013,
      "velocity": 99,
      "chip": "ym2612"
    },
    {
      "channel": 2,
      "note": 89,
      "start": 27.2424,
      "duration": 0.008,
      "velocity": 75,
      "chip": "ym2612"
    },
    {
      "channel": 3,
      "note": 77,
      "start": 27.2428,
      "duration": 0.0078,
      "velocity": 75,
      "chip": "ym2612"
    },
    {
      "channel": 4,
      "note": 77,
      "start": 27.2431,
      "duration": 0.0036,
      "velocity": 109,
      "chip": "ym2612"
    },
    {
      "channel": 1,
      "note": 60,
      "start": 27.2555,
      "duration": 0.0054,
      "velocity": 99,
      "chip": "ym2612"
    },
    {
      "channel": 4,
      "note": 77,
      "start": 27.2558,
      "duration": 0.0021,
      "velocity": 109,
      "chip": "ym2612"
    },
    {
      "channel": 1,
      "note": 65,
      "start": 27.261,
      "duration": 0.1674,
      "velocity": 99,
      "chip": "ym2612"
    },
    {
      "channel": 4,
      "note": 77,
      "start": 27.2622,
      "duration": 0.0008,
      "velocity": 109,
      "chip": "ym2612"
    },
    {
      "channel": 4,
      "note": 77,
      "start": 27.3444,
      "duration": 0.0163,
      "velocity": 109,
      "chip": "ym2612"
    },
    {
      "channel": 0,
      "note": 81,
      "start": 27.4283,
      "duration": 0.1569,
      "velocity": 96,
      "chip": "ym2612"
    },
    {
      "channel": 1,
      "note": 53,
      "start": 27.4286,
      "duration": 0.157,
      "velocity": 99,
      "chip": "ym2612"
    },
    {
      "channel": 2,
      "note": 72,
      "start": 27.4297,
      "duration": 0.1561,
      "velocity": 96,
      "chip": "ym2612"
    },
    {
      "channel": 3,
      "note": 77,
      "start": 27.4307,
      "duration": 0.1553,
      "velocity": 96,
      "chip": "ym2612"
    },
    {
      "channel": 4,
      "note": 77,
      "start": 27.4311,
      "duration": 0.013,
      "velocity": 109,
      "chip": "ym2612"
    },
    {
      "channel": 4,
      "note": 77,
      "start": 27.511,
      "duration": 0.0019,
      "velocity": 109,
      "chip": "ym2612"
    },
    {
      "channel": 4,
      "note": 77,
      "start": 27.5212,
      "duration": 0.0144,
      "velocity": 109,
      "chip": "ym2612"
    },
    {
      "channel": 0,
      "note": 81,
      "start": 27.5854,
      "duration": 0.0498,
      "velocity": 96,
      "chip": "ym2612"
    },
    {
      "channel": 1,
      "note": 57,
      "start": 27.5857,
      "duration": 0.2692,
      "velocity": 99,
      "chip": "ym2612"
    },
    {
      "channel": 2,
      "note": 72,
      "start": 27.5859,
      "duration": 0.0496,
      "velocity": 96,
      "chip": "ym2612"
    },
    {
      "channel": 3,
      "note": 77,
      "start": 27.5862,
      "duration": 0.0494,
      "velocity": 96,
      "chip": "ym2612"
    },
    {
      "channel": 4,
      "note": 77,
      "start": 27.5873,
      "duration": 0.0009,
      "velocity": 109,
      "chip": "ym2612"
    },
    {
      "channel": 4,
      "note": 77,
      "start": 27.6695,
      "duration": 0.0161,
      "velocity": 109,
      "chip": "ym2612"
    },
    {
      "channel": 4,
      "note": 77,
      "start": 27.7524,
      "duration": 0.0163,
      "velocity": 109,
      "chip": "ym2612"
    },
    {
      "channel": 0,
      "note": 81,
      "start": 27.8356,
      "duration": 0.0059,
      "velocity": 96,
      "chip": "ym2612"
    },
    {
      "channel": 2,
      "note": 72,
      "start": 27.836,
      "duration": 0.0058,
      "velocity": 96,
      "chip": "ym2612"
    },
    {
      "channel": 3,
      "note": 77,
      "start": 27.8363,
      "duration": 0.0055,
      "velocity": 96,
      "chip": "ym2612"
    },
    {
      "channel": 4,
      "note": 77,
      "start": 27.8367,
      "duration": 0.0032,
      "velocity": 109,
      "chip": "ym2612"
    },
    {
      "channel": 4,
      "note": 77,
      "start": 27.8492,
      "duration": 0.0018,
      "velocity": 109,
      "chip": "ym2612"
    },
    {
      "channel": 0,
      "note": 79,
      "start": 27.8549,
      "duration": 0.2423,
      "velocity": 96,
      "chip": "ym2612"
    },
    {
      "channel": 1,
      "note": 58,
      "start": 27.8551,
      "duration": 0.2424,
      "velocity": 99,
      "chip": "ym2612"
    },
    {
      "channel": 2,
      "note": 72,
      "start": 27.8552,
      "duration": 0.2425,
      "velocity": 96,
      "chip": "ym2612"
    },
    {
      "channel": 3,
      "note": 76,
      "start": 27.8554,
      "duration": 0.2426,
      "velocity": 96,
      "chip": "ym2612"
    },
    {
      "channel": 4,
      "note": 77,
      "start": 27.8564,
      "duration": 0.0009,
      "velocity": 109,
      "chip": "ym2612"
    },
    {
      "channel": 4,
      "note": 77,
      "start": 27.9383,
      "duration": 0.0165,
      "velocity": 109,
      "chip": "ym2612"
    },
    {
      "channel": 4,
      "note": 77,
      "start": 28.0216,
      "duration": 0.0009,
      "velocity": 109,
      "chip": "ym2612"
    },
    {
      "channel": 4,
      "note": 77,
      "start": 28.0877,
      "duration": 0.002,
      "velocity": 109,
      "chip": "ym2612"
    },
    {
      "channel": 0,
      "note": 77,
      "start": 28.0973,
      "duration": 0.0163,
      "velocity": 96,
      "chip": "ym2612"
    },
    {
      "channel": 1,
      "note": 60,
      "start": 28.0976,
      "duration": 0.0843,
      "velocity": 99,
      "chip": "ym2612"
    },
    {
      "channel": 2,
      "note": 70,
      "start": 28.0978,
      "duration": 0.016,
      "velocity": 96,
      "chip": "ym2612"
    },
    {
      "channel": 3,
      "note": 74,
      "start": 28.0981,
      "duration": 0.0158,
      "velocity": 96,
      "chip": "ym2612"
    },
    {
      "channel": 4,
      "note": 77,
      "start": 28.0984,
      "duration": 0.0156,
      "velocity": 109,
      "chip": "ym2612"
    },
    {
      "channel": 2,
      "note": 84,
      "start": 28.1649,
      "duration": 0.0065,
      "velocity": 96,
      "chip": "ym2612"
    },
    {
      "channel": 4,
      "note": 77,
      "start": 28.1661,
      "duration": 0.001,
      "velocity": 109,
      "chip": "ym2612"
    },
    {
      "channel": 2,
      "note": 82,
      "start": 28.1715,
      "duration": 0.0047,
      "velocity": 96,
      "chip": "ym2612"
    },
    {
      "channel": 4,
      "note": 77,
      "start": 28.1718,
      "duration": 0.0009,
      "velocity": 109,
      "chip": "ym2612"
    },
    {
      "channel": 2,
      "note": 81,
      "start": 28.1764,
      "duration": 0.0058,
      "velocity": 96,
      "chip": "ym2612"
    },
    {
      "channel": 4,
      "note": 77,
      "start": 28.1766,
      "duration": 0.001,
      "velocity": 109,
      "chip": "ym2612"
    },
    {
      "channel": 1,
      "note": 67,
      "start": 28.182,
      "duration": 0.0025,
      "velocity": 99,
      "chip": "ym2612"
    },
    {
      "channel": 2,
      "note": 79,
      "start": 28.1823,
      "duration": 0.006,
      "velocity": 96,
      "chip": "ym2612"
    },
    {
      "channel": 4,
      "note": 77,
      "start": 28.1827,
      "duration": 0.002,
      "velocity": 109,
      "chip": "ym2612"
    },
    {
      "channel": 1,
      "note": 68,
      "start": 28.1846,
      "duration": 0.001,
      "velocity": 99,
      "chip": "ym2612"
    },
    {
      "channel": 1,
      "note": 69,
      "start": 28.1855,
      "duration": 0.0008,
      "velocity": 99,
      "chip": "ym2612"
    },
    {
      "channel": 1,
      "note": 70,
      "start": 28.1863,
      "duration": 0.0019,
      "velocity": 99,
      "chip": "ym2612"
    },
    {
      "channel": 1,
      "note": 71,
      "start": 28.1882,
      "duration": 0.0012,
      "velocity": 99,
      "chip": "ym2612"
    },
    {
      "channel": 2,
      "note": 77,
      "start": 28.1885,
      "duration": 0.0055,
      "velocity": 96,
      "chip": "ym2612"
    },
    {
      "channel": 1,
      "note": 72,
      "start": 28.1894,
      "duration": 0.001,
      "velocity": 99,
      "chip": "ym2612"
    },
    {
      "channel": 1,
      "note": 71,
      "start": 28.1904,
      "duration": 0.0017,
      "velocity": 99,
      "chip": "ym2612"
    },
    {
      "channel": 1,
      "note": 70,
      "start": 28.1921,
      "duration": 0.0018,
      "velocity": 99,
      "chip": "ym2612"
    },
    {
      "channel": 1,
      "note": 69,
      "start": 28.1939,
      "duration": 0.0015,
      "velocity": 99,
      "chip": "ym2612"
    },
    {
      "channel": 2,
      "note": 76,
      "start": 28.1942,
      "duration": 0.0058,
      "velocity": 96,
      "chip": "ym2612"
    },
    {
      "channel": 4,
      "note": 77,
      "start": 28.1945,
      "duration": 0.0019,
      "velocity": 109,
      "chip": "ym2612"
    },
    {
      "channel": 1,
      "note": 68,
      "start": 28.1955,
      "duration": 0.0018,
      "velocity": 99,
      "chip": "ym2612"
    },
    {
      "channel": 1,
      "note": 67,
      "start": 28.1973,
      "duration": 0.0024,
      "velocity": 99,
      "chip": "ym2612"
    },
    {
      "channel": 1,
      "note": 65,
      "start": 28.1999,
      "duration": 0.1831,
      "velocity": 99,
      "chip": "ym2612"
    },
    {
      "channel": 2,
      "note": 75,
      "start": 28.2001,
      "duration": 0.033,
      "velocity": 96,
      "chip": "ym2612"
    },
    {
      "channel": 4,
      "note": 77,
      "start": 28.2015,
      "duration": 0.001,
      "velocity": 109,
      "chip": "ym2612"
    },
    {
      "channel": 2,
      "note": 74,
      "start": 28.2333,
      "duration": 0.0499,
      "velocity": 96,
      "chip": "ym2612"
    },
    {
      "channel": 2,
      "note": 73,
      "start": 28.2834,
      "duration": 0.0332,
      "velocity": 96,
      "chip": "ym2612"
    },
    {
      "channel": 4,
      "note": 77,
      "start": 28.2838,
      "duration": 0.0161,
      "velocity": 109,
      "chip": "ym2612"
    },
    {
      "channel": 2,
      "note": 72,
      "start": 28.3167,
      "duration": 0.0509,
      "velocity": 75,
      "chip": "ym2612"
    },
    {
      "channel": 0,
      "note": 81,
      "start": 28.3665,
      "duration": 0.0987,
      "velocity": 96,
      "chip": "ym2612"
    },
    {
      "channel": 2,
      "note": 72,
      "start": 28.3678,
      "duration": 0.098,
      "velocity": 75,
      "chip": "ym2612"
    },
    {
      "channel": 3,
      "note": 77,
      "start": 28.3681,
      "duration": 0.0979,
      "velocity": 104,
      "chip": "ym2612"
    },
    {
      "channel": 4,
      "note": 77,
      "start": 28.3684,
      "duration": 0.0148,
      "velocity": 109,
      "chip": "ym2612"
    },
    {
      "channel": 1,
      "note": 53,
      "start": 28.45,
      "duration": 0.011,
      "velocity": 99,
      "chip": "ym2612"
    },
    {
      "channel": 4,
      "note": 77,
      "start": 28.4503,
      "duration": 0.0019,
      "velocity": 109,
      "chip": "ym2612"
    },
    {
      "channel": 4,
      "note": 77,
      "start": 28.4601,
      "duration": 0.0017,
      "velocity": 109,
      "chip": "ym2612"
    },
    {
      "channel": 0,
      "note": 81,
      "start": 28.4655,
      "duration": 0.0163,
      "velocity": 96,
      "chip": "ym2612"
    },
    {
      "channel": 1,
      "note": 65,
      "start": 28.4657,
      "duration": 0.1828,
      "velocity": 99,
      "chip": "ym2612"
    },
    {
      "channel": 2,
      "note": 72,
      "start": 28.4659,
      "duration": 0.0828,
      "velocity": 75,
      "chip": "ym2612"
    },
    {
      "channel": 3,
      "note": 77,
      "start": 28.4661,
      "duration": 0.0828,
      "velocity": 104,
      "chip": "ym2612"
    },
    {
      "channel": 4,
      "note": 77,
      "start": 28.4663,
      "duration": 0.0009,
      "velocity": 109,
      "chip": "ym2612"
    },
    {
      "channel": 4,
      "note": 77,
      "start": 28.5493,
      "duration": 0.0161,
      "velocity": 109,
      "chip": "ym2612"
    },
    {
      "channel": 0,
      "note": 72,
      "start": 28.633,
      "duration": 0.0822,
      "velocity": 96,
      "chip": "ym2612"
    },
    {
      "channel": 2,
      "note": 77,
      "start": 28.6344,
      "duration": 0.0814,
      "velocity": 96,
      "chip": "ym2612"
    },
    {
      "channel": 4,
      "note": 77,
      "start": 28.6348,
      "duration": 0.0139,
      "velocity": 109,
      "chip": "ym2612"
    },
    {
      "channel": 0,
      "note": 76,
      "start": 28.7154,
      "duration": 0.0102,
      "velocity": 96,
      "chip": "ym2612"
    },
    {
      "channel": 1,
      "note": 53,
      "start": 28.7158,
      "duration": 0.0114,
      "velocity": 99,
      "chip": "ym2612"
    },
    {
      "channel": 2,
      "note": 80,
      "start": 28.7159,
      "duration": 0.01,
      "velocity": 96,
      "chip": "ym2612"
    },
    {
      "channel": 4,
      "note": 77,
      "start": 28.7162,
      "duration": 0.0019,
      "velocity": 109,
      "chip": "ym2612"
    },
    {
      "channel": 0,
      "note": 77,
      "start": 28.7258,
      "duration": 0.0059,
      "velocity": 96,
      "chip": "ym2612"
    },
    {
      "channel": 2,
      "note": 81,
      "start": 28.7261,
      "duration": 0.0069,
      "velocity": 75,
      "chip": "ym2612"
    },
    {
      "channel": 4,
      "note": 77,
      "start": 28.7263,
      "duration": 0.0016,
      "velocity": 109,
      "chip": "ym2612"
    },
    {
      "channel": 0,
      "note": 79,
      "start": 28.7318,
      "duration": 0.2591,
      "velocity": 96,
      "chip": "ym2612"
    },
    {
      "channel": 1,
      "note": 65,
      "start": 28.7321,
      "duration": 0.1823,
      "velocity": 99,
      "chip": "ym2612"
    },
    {
      "channel": 2,
      "note": 72,
      "start": 28.7332,
      "duration": 0.258,
      "velocity": 75,
      "chip": "ym2612"
    },
    {
      "channel": 3,
      "note": 76,
      "start": 28.7335,
      "duration": 0.2581,
      "velocity": 104,
      "chip": "ym2612"
    },
    {
      "channel": 4,
      "note": 77,
      "start": 28.7338,
      "duration": 0.001,
      "velocity": 109,
      "chip": "ym2612"
    },
    {
      "channel": 4,
      "note": 77,
      "start": 28.8149,
      "duration": 0.0164,
      "velocity": 109,
      "chip": "ym2612"
    },
    {
      "channel": 4,
      "note": 77,
      "start": 28.8983,
      "duration": 0.0163,
      "velocity": 109,
      "chip": "ym2612"
    },
    {
      "channel": 1,
      "note": 53,
      "start": 28.9813,
      "duration": 0.0116,
      "velocity": 99,
      "chip": "ym2612"
    },
    {
      "channel": 4,
      "note": 77,
      "start": 28.9816,
      "duration": 0.0017,
      "velocity": 109,
      "chip": "ym2612"
    },
    {
      "channel": 0,
      "note": 77,
      "start": 28.9911,
      "duration": 0.0026,
      "velocity": 96,
      "chip": "ym2612"
    },
    {
      "channel": 2,
      "note": 70,
      "start": 28.9915,
      "duration": 0.0059,
      "velocity": 75,
      "chip": "ym2612"
    },
    {
      "channel": 3,
      "note": 74,
      "start": 28.9918,
      "duration": 0.0056,
      "velocity": 104,
      "chip": "ym2612"
    },
    {
      "channel": 4,
      "note": 77,
      "start": 28.992,
      "duration": 0.0017,
      "velocity": 109,
      "chip": "ym2612"
    },
    {
      "channel": 1,
      "note": 65,
      "start": 28.9973,
      "duration": 0.1829,
      "velocity": 99,
      "chip": "ym2612"
    },
    {
      "channel": 4,
      "note": 77,
      "start": 28.9978,
      "duration": 0.0009,
      "velocity": 109,
      "chip": "ym2612"
    },
    {
      "channel": 4,
      "note": 77,
      "start": 29.0807,
      "duration": 0.0163,
      "velocity": 109,
      "chip": "ym2612"
    },
    {
      "channel": 4,
      "note": 77,
      "start": 29.1639,
      "duration": 0.0163,
      "velocity": 109,
      "chip": "ym2612"
    },
    {
      "channel": 0,
      "note": 96,
      "start": 29.2479,
      "duration": 0.0079,
      "velocity": 99,
      "chip": "ym2612"
    },
    {
      "channel": 1,
      "note": 59,
      "start": 29.2481,
      "duration": 0.0124,
      "velocity": 99,
      "chip": "ym2612"
    },
    {
      "channel": 2,
      "note": 89,
      "start": 29.2492,
      "duration": 0.0068,
      "velocity": 99,
      "chip": "ym2612"
    },
    {
      "channel": 3,
      "note": 77,
      "start": 29.2502,
      "duration": 0.0058,
      "velocity": 99,
      "chip": "ym2612"
    },
    {
      "channel": 4,
      "note": 77,
      "start": 29.2505,
      "duration": 0.0019,
      "velocity": 109,
      "chip": "ym2612"
    },
    {
      "channel": 0,
      "note": 96,
      "start": 29.2604,
      "duration": 0.0051,
      "velocity": 99,
      "chip": "ym2612"
    },
    {
      "channel": 1,
      "note": 60,
      "start": 29.2607,
      "duration": 0.0049,
      "velocity": 99,
      "chip": "ym2612"
    },
    {
      "channel": 2,
      "note": 89,
      "start": 29.261,
      "duration": 0.0049,
      "velocity": 99,
      "chip": "ym2612"
    },
    {
      "channel": 4,
      "note": 77,
      "start": 29.2614,
      "duration": 0.0017,
      "velocity": 109,
      "chip": "ym2612"
    },
    {
      "channel": 1,
      "note": 65,
      "start": 29.2659,
      "duration": 0.1675,
      "velocity": 99,
      "chip": "ym2612"
    },
    {
      "channel": 4,
      "note": 77,
      "start": 29.2663,
      "duration": 0.001,
      "velocity": 109,
      "chip": "ym2612"
    },
    {
      "channel": 0,
      "note": 96,
      "start": 29.3492,
      "duration": 0.0839,
      "velocity": 96,
      "chip": "ym2612"
    },
    {
      "channel": 2,
      "note": 89,
      "start": 29.3498,
      "duration": 0.085,
      "velocity": 75,
      "chip": "ym2612"
    },
    {
      "channel": 4,
      "note": 77,
      "start": 29.3501,
      "duration": 0.0156,
      "velocity": 109,
      "chip": "ym2612"
    },
    {
      "channel": 0,
      "note": 81,
      "start": 29.4333,
      "duration": 0.0974,
      "velocity": 96,
      "chip": "ym2612"
    },
    {
      "channel": 1,
      "note": 53,
      "start": 29.4336,
      "duration": 0.0973,
      "velocity": 99,
      "chip": "ym2612"
    },
    {
      "channel": 2,
      "note": 72,
      "start": 29.4349,
      "duration": 0.0962,
      "velocity": 75,
      "chip": "ym2612"
    },
    {
      "channel": 3,
      "note": 77,
      "start": 29.4362,
      "duration": 0.0951,
      "velocity": 104,
      "chip": "ym2612"
    },
    {
      "channel": 4,
      "note": 77,
      "start": 29.4366,
      "duration": 0.0124,
      "velocity": 109,
      "chip": "ym2612"
    },
    {
      "channel": 4,
      "note": 77,
      "start": 29.5159,
      "duration": 0.0019,
      "velocity": 109,
      "chip": "ym2612"
    },
    {
      "channel": 4,
      "note": 77,
      "start": 29.5256,
      "duration": 0.0017,
      "velocity": 109,
      "chip": "ym2612"
    },
    {
      "channel": 0,
      "note": 81,
      "start": 29.5309,
      "duration": 0.05,
      "velocity": 96,
      "chip": "ym2612"
    },
    {
      "channel": 1,
      "note": 57,
      "start": 29.531,
      "duration": 0.1832,
      "velocity": 99,
      "chip": "ym2612"
    },
    {
      "channel": 2,
      "note": 72,
      "start": 29.5312,
      "duration": 0.0833,
      "velocity": 75,
      "chip": "ym2612"
    },
    {
      "channel": 3,
      "note": 77,
      "start": 29.5315,
      "duration": 0.0832,
      "velocity": 104,
      "chip": "ym2612"
    },
    {
      "channel": 4,
      "note": 77,
      "start": 29.5318,
      "duration": 0.001,
      "velocity": 109,
      "chip": "ym2612"
    },
    {
      "channel": 4,
      "note": 77,
      "start": 29.6151,
      "duration": 0.016,
      "velocity": 109,
      "chip": "ym2612"
    },
    {
      "channel": 4,
      "note": 77,
      "start": 29.698,
      "duration": 0.0163,
      "velocity": 109,
      "chip": "ym2612"
    },
    {
      "channel": 0,
      "note": 81,
      "start": 29.7811,
      "duration": 0.0043,
      "velocity": 96,
      "chip": "ym2612"
    },
    {
      "channel": 1,
      "note": 57,
      "start": 29.7815,
      "duration": 0.0115,
      "velocity": 99,
      "chip": "ym2612"
    },
    {
      "channel": 2,
      "note": 72,
      "start": 29.7816,
      "duration": 0.0058,
      "velocity": 75,
      "chip": "ym2612"
    },
    {
      "channel": 3,
      "note": 77,
      "start": 29.7818,
      "duration": 0.0057,
      "velocity": 104,
      "chip": "ym2612"
    },
    {
      "channel": 4,
      "note": 77,
      "start": 29.7822,
      "duration": 0.0019,
      "velocity": 109,
      "chip": "ym2612"
    },
    {
      "channel": 4,
      "note": 77,
      "start": 29.7922,
      "duration": 0.0015,
      "velocity": 109,
      "chip": "ym2612"
    },
    {
      "channel": 0,
      "note": 79,
      "start": 29.7969,
      "duration": 0.26,
      "velocity": 96,
      "chip": "ym2612"
    },
    {
      "channel": 1,
      "note": 58,
      "start": 29.7971,
      "duration": 0.183,
      "velocity": 99,
      "chip": "ym2612"
    },
    {
      "channel": 2,
      "note": 72,
      "start": 29.7973,
      "duration": 0.26,
      "velocity": 75,
      "chip": "ym2612"
    },
    {
      "channel": 3,
      "note": 76,
      "start": 29.7976,
      "duration": 0.26,
      "velocity": 104,
      "chip": "ym2612"
    },
    {
      "channel": 4,
      "note": 77,
      "start": 29.798,
      "duration": 0.001,
      "velocity": 109,
      "chip": "ym2612"
    },
    {
      "channel": 4,
      "note": 77,
      "start": 29.8806,
      "duration": 0.0164,
      "velocity": 109,
      "chip": "ym2612"
    },
    {
      "channel": 4,
      "note": 77,
      "start": 29.9639,
      "duration": 0.0164,
      "velocity": 109,
      "chip": "ym2612"
    },
    {
      "channel": 1,
      "note": 58,
      "start": 30.047,
      "duration": 0.0101,
      "velocity": 99,
      "chip": "ym2612"
    },
    {
      "channel": 4,
      "note": 77,
      "start": 30.0474,
      "duration": 0.0019,
      "velocity": 109,
      "chip": "ym2612"
    },
    {
      "channel": 0,
      "note": 77,
      "start": 30.0571,
      "duration": 0.0026,
      "velocity": 96,
      "chip": "ym2612"
    },
    {
      "channel": 1,
      "note": 60,
      "start": 30.0572,
      "duration": 0.1794,
      "velocity": 99,
      "chip": "ym2612"
    },
    {
      "channel": 2,
      "note": 70,
      "start": 30.0575,
      "duration": 0.0058,
      "velocity": 75,
      "chip": "ym2612"
    },
    {
      "channel": 3,
      "note": 74,
      "start": 30.0577,
      "duration": 0.0056,
      "velocity": 104,
      "chip": "ym2612"
    },
    {
      "channel": 4,
      "note": 77,
      "start": 30.0581,
      "duration": 0.0019,
      "velocity": 109,
      "chip": "ym2612"
    },
    {
      "channel": 4,
      "note": 77,
      "start": 30.0636,
      "duration": 0.001,
      "velocity": 109,
      "chip": "ym2612"
    },
    {
      "channel": 4,
      "note": 77,
      "start": 30.1465,
      "duration": 0.0163,
      "velocity": 109,
      "chip": "ym2612"
    },
    {
      "channel": 4,
      "note": 77,
      "start": 30.2299,
      "duration": 0.0009,
      "velocity": 109,
      "chip": "ym2612"
    },
    {
      "channel": 0,
      "note": 76,
      "start": 30.2365,
      "duration": 0.0102,
      "velocity": 96,
      "chip": "ym2612"
    },
    {
      "channel": 1,
      "note": 60,
      "start": 30.2367,
      "duration": 0.0103,
      "velocity": 99,
      "chip": "ym2612"
    },
    {
      "channel": 4,
      "note": 77,
      "start": 30.2371,
      "duration": 0.0018,
      "velocity": 109,
      "chip": "ym2612"
    },
    {
      "channel": 0,
      "note": 77,
      "start": 30.2469,
      "duration": 0.0062,
      "velocity": 104,
      "chip": "ym2612"
    },
    {
      "channel": 1,
      "note": 60,
      "start": 30.2471,
      "duration": 0.0068,
      "velocity": 94,
      "chip": "ym2612"
    },
    {
      "channel": 4,
      "note": 77,
      "start": 30.2475,
      "duration": 0.0019,
      "velocity": 109,
      "chip": "ym2612"
    },
    {
      "channel": 0,
      "note": 70,
      "start": 30.2532,
      "duration": 0.1661,
      "velocity": 104,
      "chip": "ym2612"
    },
    {
      "channel": 1,
      "note": 58,
      "start": 30.2541,
      "duration": 0.5371,
      "velocity": 94,
      "chip": "ym2612"
    },
    {
      "channel": 2,
      "note": 77,
      "start": 30.2552,
      "duration": 0.5362,
      "velocity": 92,
      "chip": "ym2612"
    },
    {
      "channel": 3,
      "note": 74,
      "start": 30.2564,
      "duration": 0.5351,
      "velocity": 99,
      "chip": "ym2612"
    },
    {
      "channel": 4,
      "note": 82,
      "start": 30.2577,
      "duration": 0.534,
      "velocity": 99,
      "chip": "ym2612"
    },
    {
      "channel": 0,
      "note": 77,
      "start": 30.4196,
      "duration": 0.0831,
      "velocity": 104,
      "chip": "ym2612"
    },
    {
      "channel": 0,
      "note": 76,
      "start": 30.5029,
      "duration": 0.0073,
      "velocity": 104,
      "chip": "ym2612"
    },
    {
      "channel": 0,
      "note": 77,
      "start": 30.5221,
      "duration": 0.0829,
      "velocity": 104,
      "chip": "ym2612"
    },
    {
      "channel": 0,
      "note": 72,
      "start": 30.772,
      "duration": 0.0126,
      "velocity": 104,
      "chip": "ym2612"
    },
    {
      "channel": 0,
      "note": 70,
      "start": 30.7848,
      "duration": 0.0063,
      "velocity": 104,
      "chip": "ym2612"
    },
    {
      "channel": 0,
      "note": 70,
      "start": 30.7911,
      "duration": 0.5339,
      "velocity": 104,
      "chip": "ym2612"
    },
    {
      "channel": 2,
      "note": 77,
      "start": 30.7914,
      "duration": 0.1665,
      "velocity": 92,
      "chip": "ym2612"
    },
    {
      "channel": 3,
      "note": 74,
      "start": 30.7915,
      "duration": 0.1678,
      "velocity": 104,
      "chip": "ym2612"
    },
    {
      "channel": 4,
      "note": 82,
      "start": 30.7917,
      "duration": 0.169,
      "velocity": 104,
      "chip": "ym2612"
    },
    {
      "channel": 1,
      "note": 70,
      "start": 30.9578,
      "duration": 0.0831,
      "velocity": 94,
      "chip": "ym2612"
    },
    {
      "channel": 2,
      "note": 77,
      "start": 30.9581,
      "duration": 0.0953,
      "velocity": 92,
      "chip": "ym2612"
    },
    {
      "channel": 3,
      "note": 74,
      "start": 30.9595,
      "duration": 0.0939,
      "velocity": 104,
      "chip": "ym2612"
    },
    {
      "channel": 4,
      "note": 82,
      "start": 30.9609,
      "duration": 0.0927,
      "velocity": 104,
      "chip": "ym2612"
    },
    {
      "channel": 1,
      "note": 58,
      "start": 31.0411,
      "duration": 0.0071,
      "velocity": 94,
      "chip": "ym2612"
    },
    {
      "channel": 1,
      "note": 58,
      "start": 31.058,
      "duration": 0.0834,
      "velocity": 94,
      "chip": "ym2612"
    },
    {
      "channel": 2,
      "note": 77,
      "start": 31.0584,
      "duration": 0.0832,
      "velocity": 92,
      "chip": "ym2612"
    },
    {
      "channel": 3,
      "note": 74,
      "start": 31.0586,
      "duration": 0.0831,
      "velocity": 104,
      "chip": "ym2612"
    },
    {
      "channel": 4,
      "note": 82,
      "start": 31.0589,
      "duration": 0.0831,
      "velocity": 104,
      "chip": "ym2612"
    },
    {
      "channel": 1,
      "note": 58,
      "start": 31.3083,
      "duration": 0.0081,
      "velocity": 94,
      "chip": "ym2612"
    },
    {
      "channel": 2,
      "note": 77,
      "start": 31.3086,
      "duration": 0.0079,
      "velocity": 92,
      "chip": "ym2612"
    },
    {
      "channel": 3,
      "note": 74,
      "start": 31.3089,
      "duration": 0.0076,
      "velocity": 104,
      "chip": "ym2612"
    },
    {
      "channel": 4,
      "note": 82,
      "start": 31.3091,
      "duration": 0.0076,
      "velocity": 104,
      "chip": "ym2612"
    },
    {
      "channel": 0,
      "note": 72,
      "start": 31.3252,
      "duration": 0.1667,
      "velocity": 104,
      "chip": "ym2612"
    },
    {
      "channel": 1,
      "note": 60,
      "start": 31.3255,
      "duration": 0.5383,
      "velocity": 94,
      "chip": "ym2612"
    },
    {
      "channel": 2,
      "note": 77,
      "start": 31.3257,
      "duration": 0.5383,
      "velocity": 92,
      "chip": "ym2612"
    },
    {
      "channel": 3,
      "note": 74,
      "start": 31.3268,
      "duration": 0.5373,
      "velocity": 99,
      "chip": "ym2612"
    },
    {
      "channel": 4,
      "note": 82,
      "start": 31.328,
      "duration": 0.5363,
      "velocity": 99,
      "chip": "ym2612"
    },
    {
      "channel": 0,
      "note": 79,
      "start": 31.4922,
      "duration": 0.0831,
      "velocity": 104,
      "chip": "ym2612"
    },
    {
      "channel": 0,
      "note": 78,
      "start": 31.5755,
      "duration": 0.0073,
      "velocity": 104,
      "chip": "ym2612"
    },
    {
      "channel": 0,
      "note": 79,
      "start": 31.5947,
      "duration": 0.0829,
      "velocity": 104,
      "chip": "ym2612"
    },
    {
      "channel": 0,
      "note": 74,
      "start": 31.8446,
      "duration": 0.0126,
      "velocity": 104,
      "chip": "ym2612"
    },
    {
      "channel": 0,
      "note": 72,
      "start": 31.8574,
      "duration": 0.0063,
      "velocity": 104,
      "chip": "ym2612"
    },
    {
      "channel": 0,
      "note": 72,
      "start": 31.8637,
      "duration": 0.5296,
      "velocity": 104,
      "chip": "ym2612"
    },
    {
      "channel": 2,
      "note": 77,
      "start": 31.8639,
      "duration": 0.1665,
      "velocity": 92,
      "chip": "ym2612"
    },
    {
      "channel": 3,
      "note": 74,
      "start": 31.8641,
      "duration": 0.1678,
      "velocity": 104,
      "chip": "ym2612"
    },
    {
      "channel": 4,
      "note": 82,
      "start": 31.8643,
      "duration": 0.169,
      "velocity": 104,
      "chip": "ym2612"
    },
    {
      "channel": 1,
      "note": 72,
      "start": 32.0304,
      "duration": 0.0832,
      "velocity": 94,
      "chip": "ym2612"
    },
    {
      "channel": 2,
      "note": 77,
      "start": 32.0307,
      "duration": 0.1027,
      "velocity": 92,
      "chip": "ym2612"
    },
    {
      "channel": 3,
      "note": 74,
      "start": 32.0321,
      "duration": 0.095,
      "velocity": 104,
      "chip": "ym2612"
    },
    {
      "channel": 4,
      "note": 82,
      "start": 32.0335,
      "duration": 0.0936,
      "velocity": 104,
      "chip": "ym2612"
    },
    {
      "channel": 1,
      "note": 60,
      "start": 32.1138,
      "duration": 0.0193,
      "velocity": 94,
      "chip": "ym2612"
    },
    {
      "channel": 1,
      "note": 67,
      "start": 32.1333,
      "duration": 0.0832,
      "velocity": 94,
      "chip": "ym2612"
    },
    {
      "channel": 2,
      "note": 77,
      "start": 32.1335,
      "duration": 0.0833,
      "velocity": 92,
      "chip": "ym2612"
    },
    {
      "channel": 3,
      "note": 74,
      "start": 32.1337,
      "duration": 0.0833,
      "velocity": 104,
      "chip": "ym2612"
    },
    {
      "channel": 4,
      "note": 82,
      "start": 32.1339,
      "duration": 0.0832,
      "velocity": 104,
      "chip": "ym2612"
    },
    {
      "channel": 1,
      "note": 65,
      "start": 32.2167,
      "duration": 0.0831,
      "velocity": 94,
      "chip": "ym2612"
    },
    {
      "channel": 1,
      "note": 64,
      "start": 32.3,
      "duration": 0.0831,
      "velocity": 94,
      "chip": "ym2612"
    },
    {
      "channel": 1,
      "note": 60,
      "start": 32.3833,
      "duration": 0.0198,
      "velocity": 94,
      "chip": "ym2612"
    },
    {
      "channel": 2,
      "note": 77,
      "start": 32.3836,
      "duration": 0.0079,
      "velocity": 92,
      "chip": "ym2612"
    },
    {
      "channel": 3,
      "note": 74,
      "start": 32.3839,
      "duration": 0.0077,
      "velocity": 104,
      "chip": "ym2612"
    },
    {
      "channel": 4,
      "note": 82,
      "start": 32.3841,
      "duration": 0.0075,
      "velocity": 104,
      "chip": "ym2612"
    },
    {
      "channel": 0,
      "note": 71,
      "start": 32.3933,
      "duration": 0.002,
      "velocity": 104,
      "chip": "ym2612"
    },
    {
      "channel": 0,
      "note": 70,
      "start": 32.3954,
      "duration": 0.0009,
      "velocity": 104,
      "chip": "ym2612"
    },
    {
      "channel": 0,
      "note": 69,
      "start": 32.3963,
      "duration": 0.0011,
      "velocity": 104,
      "chip": "ym2612"
    },
    {
      "channel": 0,
      "note": 68,
      "start": 32.3974,
      "duration": 0.0019,
      "velocity": 104,
      "chip": "ym2612"
    },
    {
      "channel": 0,
      "note": 67,
      "start": 32.3993,
      "duration": 0.0009,
      "velocity": 104,
      "chip": "ym2612"
    },
    {
      "channel": 0,
      "note": 66,
      "start": 32.4001,
      "duration": 0.0027,
      "velocity": 104,
      "chip": "ym2612"
    },
    {
      "channel": 0,
      "note": 70,
      "start": 32.4031,
      "duration": 0.1669,
      "velocity": 104,
      "chip": "ym2612"
    },
    {
      "channel": 1,
      "note": 58,
      "start": 32.4033,
      "duration": 0.539,
      "velocity": 94,
      "chip": "ym2612"
    },
    {
      "channel": 2,
      "note": 77,
      "start": 32.4034,
      "duration": 0.539,
      "velocity": 92,
      "chip": "ym2612"
    },
    {
      "channel": 3,
      "note": 74,
      "start": 32.4047,
      "duration": 0.538,
      "velocity": 99,
      "chip": "ym2612"
    },
    {
      "channel": 4,
      "note": 82,
      "start": 32.406,
      "duration": 0.5368,
      "velocity": 99,
      "chip": "ym2612"
    },
    {
      "channel": 0,
      "note": 77,
      "start": 32.5702,
      "duration": 0.0831,
      "velocity": 104,
      "chip": "ym2612"
    },
    {
      "channel": 0,
      "note": 76,
      "start": 32.6536,
      "duration": 0.0074,
      "velocity": 104,
      "chip": "ym2612"
    },
    {
      "channel": 0,
      "note": 77,
      "start": 32.6729,
      "duration": 0.0828,
      "velocity": 104,
      "chip": "ym2612"
    },
    {
      "channel": 0,
      "note": 72,
      "start": 32.9226,
      "duration": 0.0127,
      "velocity": 104,
      "chip": "ym2612"
    },
    {
      "channel": 0,
      "note": 70,
      "start": 32.9356,
      "duration": 0.0067,
      "velocity": 104,
      "chip": "ym2612"
    },
    {
      "channel": 0,
      "note": 70,
      "start": 32.9422,
      "duration": 0.5347,
      "velocity": 96,
      "chip": "ym2612"
    },
    {
      "channel": 2,
      "note": 77,
      "start": 32.9425,
      "duration": 0.1665,
      "velocity": 92,
      "chip": "ym2612"
    },
    {
      "channel": 3,
      "note": 74,
      "start": 32.9427,
      "duration": 0.1677,
      "velocity": 104,
      "chip": "ym2612"
    },
    {
      "channel": 4,
      "note": 82,
      "start": 32.9428,
      "duration": 0.169,
      "velocity": 104,
      "chip": "ym2612"
    },
    {
      "channel": 1,
      "note": 58,
      "start": 33.1089,
      "duration": 0.0832,
      "velocity": 94,
      "chip": "ym2612"
    },
    {
      "channel": 2,
      "note": 77,
      "start": 33.1091,
      "duration": 0.0956,
      "velocity": 92,
      "chip": "ym2612"
    },
    {
      "channel": 3,
      "note": 74,
      "start": 33.1106,
      "duration": 0.0943,
      "velocity": 104,
      "chip": "ym2612"
    },
    {
      "channel": 4,
      "note": 82,
      "start": 33.112,
      "duration": 0.093,
      "velocity": 104,
      "chip": "ym2612"
    },
    {
      "channel": 1,
      "note": 70,
      "start": 33.1922,
      "duration": 0.0072,
      "velocity": 94,
      "chip": "ym2612"
    },
    {
      "channel": 1,
      "note": 58,
      "start": 33.2094,
      "duration": 0.0835,
      "velocity": 94,
      "chip": "ym2612"
    },
    {
      "channel": 2,
      "note": 77,
      "start": 33.2098,
      "duration": 0.0833,
      "velocity": 92,
      "chip": "ym2612"
    },
    {
      "channel": 3,
      "note": 74,
      "start": 33.21,
      "duration": 0.0832,
      "velocity": 104,
      "chip": "ym2612"
    },
    {
      "channel": 4,
      "note": 82,
      "start": 33.2103,
      "duration": 0.0831,
      "velocity": 104,
      "chip": "ym2612"
    },
    {
      "channel": 1,
      "note": 58,
      "start": 33.4597,
      "duration": 0.0078,
      "velocity": 94,
      "chip": "ym2612"
    },
    {
      "channel": 2,
      "note": 77,
      "start": 33.46,
      "duration": 0.0076,
      "velocity": 92,
      "chip": "ym2612"
    },
    {
      "channel": 3,
      "note": 74,
      "start": 33.4604,
      "duration": 0.0073,
      "velocity": 104,
      "chip": "ym2612"
    },
    {
      "channel": 4,
      "note": 82,
      "start": 33.4606,
      "duration": 0.0072,
      "velocity": 104,
      "chip": "ym2612"
    },
    {
      "channel": 0,
      "note": 84,
      "start": 33.4771,
      "duration": 0.0824,
      "velocity": 96,
      "chip": "ym2612"
    },
    {
      "channel": 1,
      "note": 63,
      "start": 33.4774,
      "duration": 0.1657,
      "velocity": 94,
      "chip": "ym2612"
    },
    {
      "channel": 2,
      "note": 79,
      "start": 33.4777,
      "duration": 0.2688,
      "velocity": 92,
      "chip": "ym2612"
    },
    {
      "channel": 3,
      "note": 75,
      "start": 33.478,
      "duration": 0.2688,
      "velocity": 104,
      "chip": "ym2612"
    },
    {
      "channel": 4,
      "note": 82,
      "start": 33.4783,
      "duration": 0.2688,
      "velocity": 104,
      "chip": "ym2612"
    },
    {
      "channel": 0,
      "note": 85,
      "start": 33.5598,
      "duration": 0.083,
      "velocity": 96,
      "chip": "ym2612"
    },
    {
      "channel": 0,
      "note": 87,
      "start": 33.6431,
      "duration": 0.0832,
      "velocity": 96,
      "chip": "ym2612"
    },
    {
      "channel": 0,
      "note": 85,
      "start": 33.7265,
      "duration": 0.0077,
      "velocity": 96,
      "chip": "ym2612"
    },
    {
      "channel": 1,
      "note": 63,
      "start": 33.7268,
      "duration": 0.0136,
      "velocity": 94,
      "chip": "ym2612"
    },
    {
      "channel": 0,
      "note": 87,
      "start": 33.7343,
      "duration": 0.0059,
      "velocity": 96,
      "chip": "ym2612"
    },
    {
      "channel": 0,
      "note": 89,
      "start": 33.7403,
      "duration": 0.0057,
      "velocity": 96,
      "chip": "ym2612"
    },
    {
      "channel": 0,
      "note": 87,
      "start": 33.7463,
      "duration": 0.0832,
      "velocity": 96,
      "chip": "ym2612"
    },
    {
      "channel": 1,
      "note": 61,
      "start": 33.7465,
      "duration": 0.1666,
      "velocity": 94,
      "chip": "ym2612"
    },
    {
      "channel": 2,
      "note": 79,
      "start": 33.7468,
      "duration": 0.2691,
      "velocity": 92,
      "chip": "ym2612"
    },
    {
      "channel": 3,
      "note": 75,
      "start": 33.7469,
      "duration": 0.2692,
      "velocity": 104,
      "chip": "ym2612"
    },
    {
      "channel": 4,
      "note": 82,
      "start": 33.7472,
      "duration": 0.2692,
      "velocity": 104,
      "chip": "ym2612"
    },
    {
      "channel": 0,
      "note": 89,
      "start": 33.8297,
      "duration": 0.0831,
      "velocity": 96,
      "chip": "ym2612"
    },
    {
      "channel": 0,
      "note": 91,
      "start": 33.913,
      "duration": 0.0831,
      "velocity": 96,
      "chip": "ym2612"
    },
    {
      "channel": 0,
      "note": 89,
      "start": 33.9963,
      "duration": 0.0071,
      "velocity": 96,
      "chip": "ym2612"
    },
    {
      "channel": 1,
      "note": 61,
      "start": 33.9966,
      "duration": 0.0132,
      "velocity": 94,
      "chip": "ym2612"
    },
    {
      "channel": 0,
      "note": 91,
      "start": 34.0037,
      "duration": 0.0059,
      "velocity": 96,
      "chip": "ym2612"
    },
    {
      "channel": 0,
      "note": 92,
      "start": 34.0097,
      "duration": 0.0056,
      "velocity": 96,
      "chip": "ym2612"
    },
    {
      "channel": 0,
      "note": 91,
      "start": 34.0156,
      "duration": 0.0079,
      "velocity": 96,
      "chip": "ym2612"
    },
    {
      "channel": 1,
      "note": 60,
      "start": 34.0158,
      "duration": 0.0141,
      "velocity": 94,
      "chip": "ym2612"
    },
    {
      "channel": 2,
      "note": 79,
      "start": 34.016,
      "duration": 0.0198,
      "velocity": 92,
      "chip": "ym2612"
    },
    {
      "channel": 3,
      "note": 75,
      "start": 34.0163,
      "duration": 0.0198,
      "velocity": 104,
      "chip": "ym2612"
    },
    {
      "channel": 4,
      "note": 82,
      "start": 34.0166,
      "duration": 0.0197,
      "velocity": 104,
      "chip": "ym2612"
    },
    {
      "channel": 0,
      "note": 92,
      "start": 34.0236,
      "duration": 0.006,
      "velocity": 96,
      "chip": "ym2612"
    },
    {
      "channel": 0,
      "note": 94,
      "start": 34.0298,
      "duration": 0.0054,
      "velocity": 96,
      "chip": "ym2612"
    },
    {
      "channel": 0,
      "note": 92,
      "start": 34.0355,
      "duration": 0.0078,
      "velocity": 96,
      "chip": "ym2612"
    },
    {
      "channel": 1,
      "note": 60,
      "start": 34.0358,
      "duration": 0.0142,
      "velocity": 94,
      "chip": "ym2612"
    },
    {
      "channel": 2,
      "note": 79,
      "start": 34.036,
      "duration": 0.02,
      "velocity": 92,
      "chip": "ym2612"
    },
    {
      "channel": 3,
      "note": 75,
      "start": 34.0362,
      "duration": 0.02,
      "velocity": 104,
      "chip": "ym2612"
    },
    {
      "channel": 4,
      "note": 82,
      "start": 34.0364,
      "duration": 0.0201,
      "velocity": 104,
      "chip": "ym2612"
    },
    {
      "channel": 0,
      "note": 94,
      "start": 34.0434,
      "duration": 0.0062,
      "velocity": 96,
      "chip": "ym2612"
    },
    {
      "channel": 0,
      "note": 96,
      "start": 34.0499,
      "duration": 0.0055,
      "velocity": 96,
      "chip": "ym2612"
    },
    {
      "channel": 0,
      "note": 94,
      "start": 34.0557,
      "duration": 0.0097,
      "velocity": 96,
      "chip": "ym2612"
    },
    {
      "channel": 1,
      "note": 58,
      "start": 34.0559,
      "duration": 0.0161,
      "velocity": 94,
      "chip": "ym2612"
    },
    {
      "channel": 2,
      "note": 79,
      "start": 34.0561,
      "duration": 0.0231,
      "velocity": 104,
      "chip": "ym2612"
    },
    {
      "channel": 3,
      "note": 75,
      "start": 34.0565,
      "duration": 0.023,
      "velocity": 104,
      "chip": "ym2612"
    },
    {
      "channel": 4,
      "note": 82,
      "start": 34.0568,
      "duration": 0.0229,
      "velocity": 104,
      "chip": "ym2612"
    },
    {
      "channel": 0,
      "note": 96,
      "start": 34.0655,
      "duration": 0.0062,
      "velocity": 96,
      "chip": "ym2612"
    },
    {
      "channel": 0,
      "note": 97,
      "start": 34.0719,
      "duration": 0.0061,
      "velocity": 95,
      "chip": "ym2612"
    },
    {
      "channel": 0,
      "note": 99,
      "start": 34.0782,
      "duration": 0.0038,
      "velocity": 95,
      "chip": "ym2612"
    },
    {
      "channel": 1,
      "note": 58,
      "start": 34.0784,
      "duration": 0.0166,
      "velocity": 94,
      "chip": "ym2612"
    },
    {
      "channel": 2,
      "note": 91,
      "start": 34.0794,
      "duration": 0.0042,
      "velocity": 104,
      "chip": "ym2612"
    },
    {
      "channel": 3,
      "note": 75,
      "start": 34.0796,
      "duration": 0.0255,
      "velocity": 95,
      "chip": "ym2612"
    },
    {
      "channel": 4,
      "note": 82,
      "start": 34.0799,
      "duration": 0.0263,
      "velocity": 104,
      "chip": "ym2612"
    },
    {
      "channel": 0,
      "note": 99,
      "start": 34.0822,
      "duration": 0.0012,
      "velocity": 95,
      "chip": "ym2612"
    },
    {
      "channel": 0,
      "note": 98,
      "start": 34.0835,
      "duration": 0.0015,
      "velocity": 95,
      "chip": "ym2612"
    },
    {
      "channel": 2,
      "note": 89,
      "start": 34.0839,
      "duration": 0.004,
      "velocity": 104,
      "chip": "ym2612"
    },
    {
      "channel": 0,
      "note": 96,
      "start": 34.0852,
      "duration": 0.0023,
      "velocity": 95,
      "chip": "ym2612"
    },
    {
      "channel": 0,
      "note": 94,
      "start": 34.0876,
      "duration": 0.0015,
      "velocity": 95,
      "chip": "ym2612"
    },
    {
      "channel": 2,
      "note": 87,
      "start": 34.088,
      "duration": 0.0028,
      "velocity": 104,
      "chip": "ym2612"
    },
    {
      "channel": 0,
      "note": 93,
      "start": 34.0893,
      "duration": 0.0012,
      "velocity": 95,
      "chip": "ym2612"
    },
    {
      "channel": 0,
      "note": 91,
      "start": 34.0907,
      "duration": 0.0027,
      "velocity": 95,
      "chip": "ym2612"
    },
    {
      "channel": 2,
      "note": 86,
      "start": 34.0911,
      "duration": 0.0041,
      "velocity": 104,
      "chip": "ym2612"
    },
    {
      "channel": 0,
      "note": 89,
      "start": 34.0935,
      "duration": 0.0012,
      "velocity": 95,
      "chip": "ym2612"
    },
    {
      "channel": 0,
      "note": 87,
      "start": 34.0949,
      "duration": 0.0016,
      "velocity": 95,
      "chip": "ym2612"
    },
    {
      "channel": 2,
      "note": 84,
      "start": 34.0953,
      "duration": 0.0039,
      "velocity": 104,
      "chip": "ym2612"
    },
    {
      "channel": 0,
      "note": 86,
      "start": 34.0966,
      "duration": 0.0021,
      "velocity": 95,
      "chip": "ym2612"
    },
    {
      "channel": 0,
      "note": 84,
      "start": 34.099,
      "duration": 0.0015,
      "velocity": 95,
      "chip": "ym2612"
    },
    {
      "channel": 2,
      "note": 82,
      "start": 34.0993,
      "duration": 0.0049,
      "velocity": 100,
      "chip": "ym2612"
    },
    {
      "channel": 0,
      "note": 82,
      "start": 34.1006,
      "duration": 0.0017,
      "velocity": 113,
      "chip": "ym2612"
    },
    {
      "channel": 1,
      "note": 68,
      "start": 34.1034,
      "duration": 0.1815,
      "velocity": 107,
      "chip": "ym2612"
    },
    {
      "channel": 3,
      "note": 63,
      "start": 34.1053,
      "duration": 0.0798,
      "velocity": 95,
      "chip": "ym2612"
    },
    {
      "channel": 4,
      "note": 56,
      "start": 34.1064,
      "duration": 0.0789,
      "velocity": 104,
      "chip": "ym2612"
    },
    {
      "channel": 0,
      "note": 74,
      "start": 34.3352,
      "duration": 0.0165,
      "velocity": 113,
      "chip": "ym2612"
    },
    {
      "channel": 2,
      "note": 71,
      "start": 34.3355,
      "duration": 0.0165,
      "velocity": 100,
      "chip": "ym2612"
    },
    {
      "channel": 0,
      "note": 75,
      "start": 34.3519,
      "duration": 0.321,
      "velocity": 113,
      "chip": "ym2612"
    },
    {
      "channel": 2,
      "note": 72,
      "start": 34.3522,
      "duration": 0.0877,
      "velocity": 100,
      "chip": "ym2612"
    },
    {
      "channel": 3,
      "note": 65,
      "start": 34.3526,
      "duration": 0.006,
      "velocity": 95,
      "chip": "ym2612"
    },
    {
      "channel": 4,
      "note": 56,
      "start": 34.3529,
      "duration": 0.0057,
      "velocity": 104,
      "chip": "ym2612"
    },
    {
      "channel": 1,
      "note": 63,
      "start": 34.5067,
      "duration": 0.1829,
      "velocity": 107,
      "chip": "ym2612"
    },
    {
      "channel": 3,
      "note": 63,
      "start": 34.5069,
      "duration": 0.0829,
      "velocity": 95,
      "chip": "ym2612"
    },
    {
      "channel": 4,
      "note": 56,
      "start": 34.5071,
      "duration": 0.0828,
      "velocity": 104,
      "chip": "ym2612"
    },
    {
      "channel": 0,
      "note": 77,
      "start": 34.6732,
      "duration": 0.238,
      "velocity": 113,
      "chip": "ym2612"
    },
    {
      "channel": 2,
      "note": 73,
      "start": 34.6736,
      "duration": 0.0902,
      "velocity": 100,
      "chip": "ym2612"
    },
    {
      "channel": 3,
      "note": 65,
      "start": 34.7567,
      "duration": 0.0063,
      "velocity": 95,
      "chip": "ym2612"
    },
    {
      "channel": 4,
      "note": 56,
      "start": 34.7571,
      "duration": 0.0059,
      "velocity": 104,
      "chip": "ym2612"
    },
    {
      "channel": 0,
      "note": 75,
      "start": 34.9114,
      "duration": 0.3214,
      "velocity": 113,
      "chip": "ym2612"
    },
    {
      "channel": 1,
      "note": 68,
      "start": 34.9117,
      "duration": 0.1829,
      "velocity": 107,
      "chip": "ym2612"
    },
    {
      "channel": 2,
      "note": 72,
      "start": 34.9119,
      "duration": 0.1827,
      "velocity": 100,
      "chip": "ym2612"
    },
    {
      "channel": 3,
      "note": 63,
      "start": 34.912,
      "duration": 0.0828,
      "velocity": 95,
      "chip": "ym2612"
    },
    {
      "channel": 4,
      "note": 56,
      "start": 34.9122,
      "duration": 0.0827,
      "velocity": 104,
      "chip": "ym2612"
    },
    {
      "channel": 3,
      "note": 65,
      "start": 35.1616,
      "duration": 0.0063,
      "velocity": 95,
      "chip": "ym2612"
    },
    {
      "channel": 4,
      "note": 56,
      "start": 35.162,
      "duration": 0.006,
      "velocity": 104,
      "chip": "ym2612"
    },
    {
      "channel": 0,
      "note": 77,
      "start": 35.2331,
      "duration": 0.3329,
      "velocity": 113,
      "chip": "ym2612"
    },
    {
      "channel": 2,
      "note": 73,
      "start": 35.2334,
      "duration": 0.1828,
      "velocity": 100,
      "chip": "ym2612"
    },
    {
      "channel": 1,
      "note": 63,
      "start": 35.3164,
      "duration": 0.183,
      "velocity": 107,
      "chip": "ym2612"
    },
    {
      "channel": 3,
      "note": 63,
      "start": 35.3167,
      "duration": 0.0829,
      "velocity": 95,
      "chip": "ym2612"
    },
    {
      "channel": 4,
      "note": 56,
      "start": 35.3169,
      "duration": 0.0828,
      "velocity": 104,
      "chip": "ym2612"
    },
    {
      "channel": 0,
      "note": 71,
      "start": 35.5662,
      "duration": 0.0712,
      "velocity": 113,
      "chip": "ym2612"
    },
    {
      "channel": 2,
      "note": 67,
      "start": 35.5666,
      "duration": 0.0712,
      "velocity": 100,
      "chip": "ym2612"
    },
    {
      "channel": 3,
      "note": 65,
      "start": 35.5669,
      "duration": 0.0712,
      "velocity": 95,
      "chip": "ym2612"
    },
    {
      "channel": 4,
      "note": 56,
      "start": 35.5672,
      "duration": 0.0056,
      "velocity": 104,
      "chip": "ym2612"
    },
    {
      "channel": 0,
      "note": 72,
      "start": 35.6377,
      "duration": 0.0833,
      "velocity": 113,
      "chip": "ym2612"
    },
    {
      "channel": 2,
      "note": 68,
      "start": 35.638,
      "duration": 0.0834,
      "velocity": 100,
      "chip": "ym2612"
    },
    {
      "channel": 3,
      "note": 63,
      "start": 35.6383,
      "duration": 0.0833,
      "velocity": 95,
      "chip": "ym2612"
    },
    {
      "channel": 0,
      "note": 72,
      "start": 35.7209,
      "duration": 0.233,
      "velocity": 113,
      "chip": "ym2612"
    },
    {
      "channel": 1,
      "note": 68,
      "start": 35.7212,
      "duration": 0.1828,
      "velocity": 107,
      "chip": "ym2612"
    },
    {
      "channel": 2,
      "note": 68,
      "start": 35.7214,
      "duration": 0.2329,
      "velocity": 100,
      "chip": "ym2612"
    },
    {
      "channel": 3,
      "note": 63,
      "start": 35.7216,
      "duration": 0.0826,
      "velocity": 95,
      "chip": "ym2612"
    },
    {
      "channel": 4,
      "note": 56,
      "start": 35.7217,
      "duration": 0.0826,
      "velocity": 104,
      "chip": "ym2612"
    },
    {
      "channel": 0,
      "note": 74,
      "start": 35.9542,
      "duration": 0.0165,
      "velocity": 113,
      "chip": "ym2612"
    },
    {
      "channel": 2,
      "note": 71,
      "start": 35.9545,
      "duration": 0.0165,
      "velocity": 100,
      "chip": "ym2612"
    },
    {
      "channel": 0,
      "note": 75,
      "start": 35.971,
      "duration": 0.321,
      "velocity": 113,
      "chip": "ym2612"
    },
    {
      "channel": 2,
      "note": 72,
      "start": 35.9713,
      "duration": 0.0877,
      "velocity": 100,
      "chip": "ym2612"
    },
    {
      "channel": 3,
      "note": 65,
      "start": 35.9717,
      "duration": 0.006,
      "velocity": 95,
      "chip": "ym2612"
    },
    {
      "channel": 4,
      "note": 56,
      "start": 35.972,
      "duration": 0.0057,
      "velocity": 104,
      "chip": "ym2612"
    },
    {
      "channel": 1,
      "note": 63,
      "start": 36.1257,
      "duration": 0.1829,
      "velocity": 107,
      "chip": "ym2612"
    },
    {
      "channel": 3,
      "note": 63,
      "start": 36.126,
      "duration": 0.0829,
      "velocity": 95,
      "chip": "ym2612"
    },
    {
      "channel": 4,
      "note": 56,
      "start": 36.1262,
      "duration": 0.0828,
      "velocity": 104,
      "chip": "ym2612"
    },
    {
      "channel": 0,
      "note": 77,
      "start": 36.2922,
      "duration": 0.238,
      "velocity": 113,
      "chip": "ym2612"
    },
    {
      "channel": 2,
      "note": 73,
      "start": 36.2926,
      "duration": 0.0902,
      "velocity": 100,
      "chip": "ym2612"
    },
    {
      "channel": 3,
      "note": 65,
      "start": 36.3758,
      "duration": 0.0063,
      "velocity": 95,
      "chip": "ym2612"
    },
    {
      "channel": 4,
      "note": 56,
      "start": 36.3761,
      "duration": 0.0059,
      "velocity": 104,
      "chip": "ym2612"
    },
    {
      "channel": 0,
      "note": 78,
      "start": 36.5305,
      "duration": 0.2497,
      "velocity": 113,
      "chip": "ym2612"
    },
    {
      "channel": 1,
      "note": 68,
      "start": 36.5307,
      "duration": 0.1828,
      "velocity": 107,
      "chip": "ym2612"
    },
    {
      "channel": 2,
      "note": 75,
      "start": 36.5309,
      "duration": 0.1826,
      "velocity": 100,
      "chip": "ym2612"
    },
    {
      "channel": 3,
      "note": 63,
      "start": 36.5311,
      "duration": 0.0826,
      "velocity": 95,
      "chip": "ym2612"
    },
    {
      "channel": 4,
      "note": 56,
      "start": 36.5312,
      "duration": 0.0826,
      "velocity": 104,
      "chip": "ym2612"
    },
    {
      "channel": 0,
      "note": 77,
      "start": 36.7804,
      "duration": 0.1546,
      "velocity": 113,
      "chip": "ym2612"
    },
    {
      "channel": 1,
      "note": 70,
      "start": 36.7807,
      "duration": 0.0876,
      "velocity": 107,
      "chip": "ym2612"
    },
    {
      "channel": 2,
      "note": 73,
      "start": 36.781,
      "duration": 0.0873,
      "velocity": 100,
      "chip": "ym2612"
    },
    {
      "channel": 3,
      "note": 65,
      "start": 36.7814,
      "duration": 0.0061,
      "velocity": 95,
      "chip": "ym2612"
    },
    {
      "channel": 4,
      "note": 56,
      "start": 36.7817,
      "duration": 0.0058,
      "velocity": 104,
      "chip": "ym2612"
    },
    {
      "channel": 0,
      "note": 75,
      "start": 36.9353,
      "duration": 0.1666,
      "velocity": 113,
      "chip": "ym2612"
    },
    {
      "channel": 1,
      "note": 71,
      "start": 36.9355,
      "duration": 0.1686,
      "velocity": 107,
      "chip": "ym2612"
    },
    {
      "channel": 2,
      "note": 72,
      "start": 36.9358,
      "duration": 0.1665,
      "velocity": 100,
      "chip": "ym2612"
    },
    {
      "channel": 3,
      "note": 63,
      "start": 36.9361,
      "duration": 0.0826,
      "velocity": 95,
      "chip": "ym2612"
    },
    {
      "channel": 4,
      "note": 56,
      "start": 36.9363,
      "duration": 0.0825,
      "velocity": 104,
      "chip": "ym2612"
    },
    {
      "channel": 0,
      "note": 72,
      "start": 37.1021,
      "duration": 0.159,
      "velocity": 113,
      "chip": "ym2612"
    },
    {
      "channel": 2,
      "note": 68,
      "start": 37.1025,
      "duration": 0.0118,
      "velocity": 100,
      "chip": "ym2612"
    },
    {
      "channel": 1,
      "note": 72,
      "start": 37.1071,
      "duration": 0.0874,
      "velocity": 107,
      "chip": "ym2612"
    },
    {
      "channel": 3,
      "note": 65,
      "start": 37.1074,
      "duration": 0.0705,
      "velocity": 95,
      "chip": "ym2612"
    },
    {
      "channel": 4,
      "note": 56,
      "start": 37.1076,
      "duration": 0.0059,
      "velocity": 104,
      "chip": "ym2612"
    },
    {
      "channel": 3,
      "note": 63,
      "start": 37.1781,
      "duration": 0.0834,
      "velocity": 95,
      "chip": "ym2612"
    },
    {
      "channel": 1,
      "note": 68,
      "start": 37.2614,
      "duration": 0.1829,
      "velocity": 107,
      "chip": "ym2612"
    },
    {
      "channel": 3,
      "note": 63,
      "start": 37.2616,
      "duration": 0.0829,
      "velocity": 95,
      "chip": "ym2612"
    },
    {
      "channel": 4,
      "note": 56,
      "start": 37.2618,
      "duration": 0.0827,
      "velocity": 104,
      "chip": "ym2612"
    },
    {
      "channel": 0,
      "note": 74,
      "start": 37.4945,
      "duration": 0.0165,
      "velocity": 113,
      "chip": "ym2612"
    },
    {
      "channel": 2,
      "note": 71,
      "start": 37.4948,
      "duration": 0.0165,
      "velocity": 100,
      "chip": "ym2612"
    },
    {
      "channel": 0,
      "note": 75,
      "start": 37.5112,
      "duration": 0.321,
      "velocity": 113,
      "chip": "ym2612"
    },
    {
      "channel": 2,
      "note": 72,
      "start": 37.5115,
      "duration": 0.0877,
      "velocity": 100,
      "chip": "ym2612"
    },
    {
      "channel": 3,
      "note": 65,
      "start": 37.5119,
      "duration": 0.006,
      "velocity": 95,
      "chip": "ym2612"
    },
    {
      "channel": 4,
      "note": 56,
      "start": 37.5122,
      "duration": 0.0057,
      "velocity": 104,
      "chip": "ym2612"
    },
    {
      "channel": 1,
      "note": 63,
      "start": 37.666,
      "duration": 0.1829,
      "velocity": 107,
      "chip": "ym2612"
    },
    {
      "channel": 3,
      "note": 63,
      "start": 37.6662,
      "duration": 0.0829,
      "velocity": 95,
      "chip": "ym2612"
    },
    {
      "channel": 4,
      "note": 56,
      "start": 37.6664,
      "duration": 0.0828,
      "velocity": 104,
      "chip": "ym2612"
    },
    {
      "channel": 0,
      "note": 77,
      "start": 37.8325,
      "duration": 0.2379,
      "velocity": 113,
      "chip": "ym2612"
    },
    {
      "channel": 2,
      "note": 73,
      "start": 37.8329,
      "duration": 0.0902,
      "velocity": 100,
      "chip": "ym2612"
    },
    {
      "channel": 3,
      "note": 65,
      "start": 37.916,
      "duration": 0.0063,
      "velocity": 95,
      "chip": "ym2612"
    },
    {
      "channel": 4,
      "note": 56,
      "start": 37.9164,
      "duration": 0.0059,
      "velocity": 104,
      "chip": "ym2612"
    },
    {
      "channel": 0,
      "note": 75,
      "start": 38.0707,
      "duration": 0.3214,
      "velocity": 113,
      "chip": "ym2612"
    },
    {
      "channel": 1,
      "note": 68,
      "start": 38.0709,
      "duration": 0.1829,
      "velocity": 107,
      "chip": "ym2612"
    },
    {
      "channel": 2,
      "note": 72,
      "start": 38.0712,
      "duration": 0.1827,
      "velocity": 100,
      "chip": "ym2612"
    },
    {
      "channel": 3,
      "note": 63,
      "start": 38.0713,
      "duration": 0.0827,
      "velocity": 95,
      "chip": "ym2612"
    },
    {
      "channel": 4,
      "note": 56,
      "start": 38.0715,
      "duration": 0.0827,
      "velocity": 104,
      "chip": "ym2612"
    },
    {
      "channel": 3,
      "note": 65,
      "start": 38.3208,
      "duration": 0.0063,
      "velocity": 95,
      "chip": "ym2612"
    },
    {
      "channel": 4,
      "note": 56,
      "start": 38.3212,
      "duration": 0.006,
      "velocity": 104,
      "chip": "ym2612"
    },
    {
      "channel": 0,
      "note": 77,
      "start": 38.3923,
      "duration": 0.3329,
      "velocity": 113,
      "chip": "ym2612"
    },
    {
      "channel": 2,
      "note": 73,
      "start": 38.3926,
      "duration": 0.1828,
      "velocity": 100,
      "chip": "ym2612"
    },
    {
      "channel": 1,
      "note": 63,
      "start": 38.4756,
      "duration": 0.183,
      "velocity": 107,
      "chip": "ym2612"
    },
    {
      "channel": 3,
      "note": 63,
      "start": 38.4759,
      "duration": 0.0829,
      "velocity": 95,
      "chip": "ym2612"
    },
    {
      "channel": 4,
      "note": 56,
      "start": 38.4761,
      "duration": 0.0828,
      "velocity": 104,
      "chip": "ym2612"
    },
    {
      "channel": 0,
      "note": 71,
      "start": 38.7255,
      "duration": 0.0712,
      "velocity": 113,
      "chip": "ym2612"
    },
    {
      "channel": 2,
      "note": 67,
      "start": 38.7258,
      "duration": 0.0712,
      "velocity": 100,
      "chip": "ym2612"
    },
    {
      "channel": 3,
      "note": 65,
      "start": 38.7261,
      "duration": 0.0712,
      "velocity": 95,
      "chip": "ym2612"
    },
    {
      "channel": 4,
      "note": 56,
      "start": 38.7264,
      "duration": 0.0056,
      "velocity": 104,
      "chip": "ym2612"
    },
    {
      "channel": 0,
      "note": 72,
      "start": 38.7969,
      "duration": 0.0833,
      "velocity": 113,
      "chip": "ym2612"
    },
    {
      "channel": 2,
      "note": 68,
      "start": 38.7972,
      "duration": 0.0834,
      "velocity": 100,
      "chip": "ym2612"
    },
    {
      "channel": 3,
      "note": 63,
      "start": 38.7975,
      "duration": 0.0833,
      "velocity": 95,
      "chip": "ym2612"
    },
    {
      "channel": 0,
      "note": 72,
      "start": 38.8802,
      "duration": 0.233,
      "velocity": 113,
      "chip": "ym2612"
    },
    {
      "channel": 1,
      "note": 68,
      "start": 38.8804,
      "duration": 0.1828,
      "velocity": 107,
      "chip": "ym2612"
    },
    {
      "channel": 2,
      "note": 68,
      "start": 38.8806,
      "duration": 0.2329,
      "velocity": 100,
      "chip": "ym2612"
    },
    {
      "channel": 3,
      "note": 63,
      "start": 38.8808,
      "duration": 0.0826,
      "velocity": 95,
      "chip": "ym2612"
    },
    {
      "channel": 4,
      "note": 56,
      "start": 38.881,
      "duration": 0.0826,
      "velocity": 104,
      "chip": "ym2612"
    },
    {
      "channel": 0,
      "note": 74,
      "start": 39.1134,
      "duration": 0.0165,
      "velocity": 113,
      "chip": "ym2612"
    },
    {
      "channel": 2,
      "note": 71,
      "start": 39.1138,
      "duration": 0.0165,
      "velocity": 100,
      "chip": "ym2612"
    },
    {
      "channel": 0,
      "note": 75,
      "start": 39.1302,
      "duration": 0.321,
      "velocity": 113,
      "chip": "ym2612"
    },
    {
      "channel": 2,
      "note": 72,
      "start": 39.1305,
      "duration": 0.0877,
      "velocity": 100,
      "chip": "ym2612"
    },
    {
      "channel": 3,
      "note": 65,
      "start": 39.1309,
      "duration": 0.006,
      "velocity": 95,
      "chip": "ym2612"
    },
    {
      "channel": 4,
      "note": 56,
      "start": 39.1312,
      "duration": 0.0057,
      "velocity": 104,
      "chip": "ym2612"
    },
    {
      "channel": 1,
      "note": 63,
      "start": 39.285,
      "duration": 0.1829,
      "velocity": 107,
      "chip": "ym2612"
    },
    {
      "channel": 3,
      "note": 63,
      "start": 39.2852,
      "duration": 0.0829,
      "velocity": 95,
      "chip": "ym2612"
    },
    {
      "channel": 4,
      "note": 56,
      "start": 39.2854,
      "duration": 0.0828,
      "velocity": 104,
      "chip": "ym2612"
    },
    {
      "channel": 0,
      "note": 77,
      "start": 39.4515,
      "duration": 0.238,
      "velocity": 113,
      "chip": "ym2612"
    },
    {
      "channel": 2,
      "note": 73,
      "start": 39.4519,
      "duration": 0.0902,
      "velocity": 100,
      "chip": "ym2612"
    },
    {
      "channel": 3,
      "note": 65,
      "start": 39.535,
      "duration": 0.0063,
      "velocity": 95,
      "chip": "ym2612"
    },
    {
      "channel": 4,
      "note": 56,
      "start": 39.5354,
      "duration": 0.0059,
      "velocity": 104,
      "chip": "ym2612"
    },
    {
      "channel": 0,
      "note": 78,
      "start": 39.6897,
      "duration": 0.2497,
      "velocity": 113,
      "chip": "ym2612"
    },
    {
      "channel": 1,
      "note": 68,
      "start": 39.6899,
      "duration": 0.1828,
      "velocity": 107,
      "chip": "ym2612"
    },
    {
      "channel": 2,
      "note": 75,
      "start": 39.6901,
      "duration": 0.1826,
      "velocity": 100,
      "chip": "ym2612"
    },
    {
      "channel": 3,
      "note": 63,
      "start": 39.6903,
      "duration": 0.0826,
      "velocity": 95,
      "chip": "ym2612"
    },
    {
      "channel": 4,
      "note": 56,
      "start": 39.6905,
      "duration": 0.0826,
      "velocity": 104,
      "chip": "ym2612"
    },
    {
      "channel": 0,
      "note": 77,
      "start": 39.9396,
      "duration": 0.1546,
      "velocity": 113,
      "chip": "ym2612"
    },
    {
      "channel": 1,
      "note": 70,
      "start": 39.94,
      "duration": 0.0876,
      "velocity": 107,
      "chip": "ym2612"
    },
    {
      "channel": 2,
      "note": 73,
      "start": 39.9403,
      "duration": 0.0873,
      "velocity": 100,
      "chip": "ym2612"
    },
    {
      "channel": 3,
      "note": 65,
      "start": 39.9406,
      "duration": 0.0061,
      "velocity": 95,
      "chip": "ym2612"
    },
    {
      "channel": 4,
      "note": 56,
      "start": 39.941,
      "duration": 0.0058,
      "velocity": 104,
      "chip": "ym2612"
    },
    {
      "channel": 0,
      "note": 75,
      "start": 40.0945,
      "duration": 0.1666,
      "velocity": 113,
      "chip": "ym2612"
    },
    {
      "channel": 1,
      "note": 71,
      "start": 40.0947,
      "duration": 0.1686,
      "velocity": 107,
      "chip": "ym2612"
    },
    {
      "channel": 2,
      "note": 72,
      "start": 40.095,
      "duration": 0.1665,
      "velocity": 100,
      "chip": "ym2612"
    },
    {
      "channel": 3,
      "note": 63,
      "start": 40.0953,
      "duration": 0.0826,
      "velocity": 95,
      "chip": "ym2612"
    },
    {
      "channel": 4,
      "note": 56,
      "start": 40.0956,
      "duration": 0.0825,
      "velocity": 104,
      "chip": "ym2612"
    },
    {
      "channel": 0,
      "note": 80,
      "start": 40.2613,
      "duration": 0.0049,
      "velocity": 113,
      "chip": "ym2612"
    },
    {
      "channel": 2,
      "note": 75,
      "start": 40.2617,
      "duration": 0.0049,
      "velocity": 100,
      "chip": "ym2612"
    },
    {
      "channel": 1,
      "note": 72,
      "start": 40.2665,
      "duration": 0.0873,
      "velocity": 107,
      "chip": "ym2612"
    },
    {
      "channel": 3,
      "note": 65,
      "start": 40.2669,
      "duration": 0.0717,
      "velocity": 95,
      "chip": "ym2612"
    },
    {
      "channel": 4,
      "note": 56,
      "start": 40.2672,
      "duration": 0.0058,
      "velocity": 104,
      "chip": "ym2612"
    },
    {
      "channel": 0,
      "note": 76,
      "start": 40.3383,
      "duration": 0.082,
      "velocity": 97,
      "chip": "ym2612"
    },
    {
      "channel": 3,
      "note": 63,
      "start": 40.3388,
      "duration": 0.0822,
      "velocity": 95,
      "chip": "ym2612"
    },
    {
      "channel": 0,
      "note": 77,
      "start": 40.4206,
      "duration": 0.1663,
      "velocity": 97,
      "chip": "ym2612"
    },
    {
      "channel": 1,
      "note": 73,
      "start": 40.4208,
      "duration": 0.1829,
      "velocity": 107,
      "chip": "ym2612"
    },
    {
      "channel": 3,
      "note": 68,
      "start": 40.421,
      "duration": 0.0829,
      "velocity": 95,
      "chip": "ym2612"
    },
    {
      "channel": 4,
      "note": 61,
      "start": 40.4211,
      "duration": 0.0829,
      "velocity": 104,
      "chip": "ym2612"
    },
    {
      "channel": 0,
      "note": 85,
      "start": 40.5871,
      "duration": 0.0832,
      "velocity": 97,
      "chip": "ym2612"
    },
    {
      "channel": 0,
      "note": 80,
      "start": 40.6706,
      "duration": 0.0714,
      "velocity": 97,
      "chip": "ym2612"
    },
    {
      "channel": 3,
      "note": 70,
      "start": 40.6711,
      "duration": 0.0064,
      "velocity": 95,
      "chip": "ym2612"
    },
    {
      "channel": 4,
      "note": 61,
      "start": 40.6713,
      "duration": 0.0063,
      "velocity": 104,
      "chip": "ym2612"
    },
    {
      "channel": 0,
      "note": 77,
      "start": 40.7422,
      "duration": 0.0831,
      "velocity": 97,
      "chip": "ym2612"
    },
    {
      "channel": 0,
      "note": 85,
      "start": 40.8256,
      "duration": 0.05,
      "velocity": 97,
      "chip": "ym2612"
    },
    {
      "channel": 1,
      "note": 68,
      "start": 40.8257,
      "duration": 0.1831,
      "velocity": 107,
      "chip": "ym2612"
    },
    {
      "channel": 2,
      "note": 77,
      "start": 40.8269,
      "duration": 0.0488,
      "velocity": 60,
      "chip": "ym2612"
    },
    {
      "channel": 3,
      "note": 68,
      "start": 40.8272,
      "duration": 0.0819,
      "velocity": 95,
      "chip": "ym2612"
    },
    {
      "channel": 4,
      "note": 61,
      "start": 40.8274,
      "duration": 0.0819,
      "velocity": 104,
      "chip": "ym2612"
    },
    {
      "channel": 0,
      "note": 84,
      "start": 41.0758,
      "duration": 0.0056,
      "velocity": 97,
      "chip": "ym2612"
    },
    {
      "channel": 2,
      "note": 76,
      "start": 41.0761,
      "duration": 0.0053,
      "velocity": 60,
      "chip": "ym2612"
    },
    {
      "channel": 3,
      "note": 70,
      "start": 41.0764,
      "duration": 0.0715,
      "velocity": 95,
      "chip": "ym2612"
    },
    {
      "channel": 4,
      "note": 61,
      "start": 41.0767,
      "duration": 0.0716,
      "velocity": 104,
      "chip": "ym2612"
    },
    {
      "channel": 0,
      "note": 83,
      "start": 41.1475,
      "duration": 0.0834,
      "velocity": 97,
      "chip": "ym2612"
    },
    {
      "channel": 2,
      "note": 75,
      "start": 41.1479,
      "duration": 0.0835,
      "velocity": 60,
      "chip": "ym2612"
    },
    {
      "channel": 3,
      "note": 71,
      "start": 41.1482,
      "duration": 0.0833,
      "velocity": 95,
      "chip": "ym2612"
    },
    {
      "channel": 4,
      "note": 61,
      "start": 41.1484,
      "duration": 0.0833,
      "velocity": 104,
      "chip": "ym2612"
    },
    {
      "channel": 0,
      "note": 83,
      "start": 41.2309,
      "duration": 0.4388,
      "velocity": 97,
      "chip": "ym2612"
    },
    {
      "channel": 1,
      "note": 71,
      "start": 41.2312,
      "duration": 0.1831,
      "velocity": 107,
      "chip": "ym2612"
    },
    {
      "channel": 2,
      "note": 75,
      "start": 41.2314,
      "duration": 0.5723,
      "velocity": 60,
      "chip": "ym2612"
    },
    {
      "channel": 3,
      "note": 71,
      "start": 41.2315,
      "duration": 0.083,
      "velocity": 95,
      "chip": "ym2612"
    },
    {
      "channel": 4,
      "note": 61,
      "start": 41.2317,
      "duration": 0.083,
      "velocity": 104,
      "chip": "ym2612"
    },
    {
      "channel": 1,
      "note": 73,
      "start": 41.4812,
      "duration": 0.0886,
      "velocity": 107,
      "chip": "ym2612"
    },
    {
      "channel": 3,
      "note": 70,
      "start": 41.4817,
      "duration": 0.0074,
      "velocity": 95,
      "chip": "ym2612"
    },
    {
      "channel": 4,
      "note": 61,
      "start": 41.4821,
      "duration": 0.0072,
      "velocity": 104,
      "chip": "ym2612"
    },
    {
      "channel": 1,
      "note": 68,
      "start": 41.6368,
      "duration": 0.1687,
      "velocity": 107,
      "chip": "ym2612"
    },
    {
      "channel": 3,
      "note": 68,
      "start": 41.6371,
      "duration": 0.0832,
      "velocity": 95,
      "chip": "ym2612"
    },
    {
      "channel": 4,
      "note": 61,
      "start": 41.6374,
      "duration": 0.0832,
      "velocity": 104,
      "chip": "ym2612"
    },
    {
      "channel": 0,
      "note": 82,
      "start": 41.67,
      "duration": 0.0498,
      "velocity": 97,
      "chip": "ym2612"
    },
    {
      "channel": 0,
      "note": 81,
      "start": 41.72,
      "duration": 0.0331,
      "velocity": 97,
      "chip": "ym2612"
    },
    {
      "channel": 0,
      "note": 80,
      "start": 41.7534,
      "duration": 0.0498,
      "velocity": 97,
      "chip": "ym2612"
    },
    {
      "channel": 0,
      "note": 83,
      "start": 41.8034,
      "duration": 0.0039,
      "velocity": 97,
      "chip": "ym2612"
    },
    {
      "channel": 2,
      "note": 77,
      "start": 41.8039,
      "duration": 0.1614,
      "velocity": 60,
      "chip": "ym2612"
    },
    {
      "channel": 0,
      "note": 85,
      "start": 41.8075,
      "duration": 0.1573,
      "velocity": 97,
      "chip": "ym2612"
    },
    {
      "channel": 1,
      "note": 61,
      "start": 41.8098,
      "duration": 0.0884,
      "velocity": 107,
      "chip": "ym2612"
    },
    {
      "channel": 3,
      "note": 70,
      "start": 41.8103,
      "duration": 0.0075,
      "velocity": 95,
      "chip": "ym2612"
    },
    {
      "channel": 4,
      "note": 61,
      "start": 41.8107,
      "duration": 0.0073,
      "velocity": 104,
      "chip": "ym2612"
    },
    {
      "channel": 0,
      "note": 82,
      "start": 41.9651,
      "duration": 0.8123,
      "velocity": 97,
      "chip": "ym2612"
    },
    {
      "channel": 1,
      "note": 66,
      "start": 41.9652,
      "duration": 0.2498,
      "velocity": 107,
      "chip": "ym2612"
    },
    {
      "channel": 2,
      "note": 78,
      "start": 41.9654,
      "duration": 0.2499,
      "velocity": 60,
      "chip": "ym2612"
    },
    {
      "channel": 3,
      "note": 66,
      "start": 41.9656,
      "duration": 0.8125,
      "velocity": 95,
      "chip": "ym2612"
    },
    {
      "channel": 4,
      "note": 61,
      "start": 41.9658,
      "duration": 0.8125,
      "velocity": 104,
      "chip": "ym2612"
    },
    {
      "channel": 1,
      "note": 73,
      "start": 42.2152,
      "duration": 0.1561,
      "velocity": 107,
      "chip": "ym2612"
    },
    {
      "channel": 2,
      "note": 77,
      "start": 42.2156,
      "duration": 0.1561,
      "velocity": 60,
      "chip": "ym2612"
    },
    {
      "channel": 1,
      "note": 66,
      "start": 42.3716,
      "duration": 0.2499,
      "velocity": 107,
      "chip": "ym2612"
    },
    {
      "channel": 2,
      "note": 76,
      "start": 42.3719,
      "duration": 0.25,
      "velocity": 60,
      "chip": "ym2612"
    },
    {
      "channel": 1,
      "note": 78,
      "start": 42.6217,
      "duration": 0.1559,
      "velocity": 107,
      "chip": "ym2612"
    },
    {
      "channel": 2,
      "note": 75,
      "start": 42.6221,
      "duration": 0.1557,
      "velocity": 60,
      "chip": "ym2612"
    },
    {
      "channel": 0,
      "note": 81,
      "start": 42.7775,
      "duration": 0.6025,
      "velocity": 97,
      "chip": "ym2612"
    },
    {
      "channel": 1,
      "note": 69,
      "start": 42.7778,
      "duration": 0.4061,
      "velocity": 107,
      "chip": "ym2612"
    },
    {
      "channel": 2,
      "note": 73,
      "start": 42.778,
      "duration": 0.2498,
      "velocity": 60,
      "chip": "ym2612"
    },
    {
      "channel": 3,
      "note": 69,
      "start": 42.7782,
      "duration": 0.739,
      "velocity": 102,
      "chip": "ym2612"
    },
    {
      "channel": 4,
      "note": 64,
      "start": 42.7785,
      "duration": 0.7389,
      "velocity": 104,
      "chip": "ym2612"
    },
    {
      "channel": 2,
      "note": 75,
      "start": 43.0281,
      "duration": 0.156,
      "velocity": 60,
      "chip": "ym2612"
    },
    {
      "channel": 1,
      "note": 73,
      "start": 43.184,
      "duration": 0.3308,
      "velocity": 107,
      "chip": "ym2612"
    },
    {
      "channel": 2,
      "note": 76,
      "start": 43.1843,
      "duration": 0.083,
      "velocity": 60,
      "chip": "ym2612"
    },
    {
      "channel": 2,
      "note": 75,
      "start": 43.2676,
      "duration": 0.0832,
      "velocity": 60,
      "chip": "ym2612"
    },
    {
      "channel": 2,
      "note": 76,
      "start": 43.351,
      "duration": 0.0069,
      "velocity": 60,
      "chip": "ym2612"
    },
    {
      "channel": 2,
      "note": 78,
      "start": 43.3581,
      "duration": 0.0224,
      "velocity": 60,
      "chip": "ym2612"
    },
    {
      "channel": 0,
      "note": 80,
      "start": 43.3803,
      "duration": 0.033,
      "velocity": 97,
      "chip": "ym2612"
    },
    {
      "channel": 2,
      "note": 72,
      "start": 43.3807,
      "duration": 0.033,
      "velocity": 60,
      "chip": "ym2612"
    },
    {
      "channel": 0,
      "note": 79,
      "start": 43.4136,
      "duration": 0.0164,
      "velocity": 97,
      "chip": "ym2612"
    },
    {
      "channel": 2,
      "note": 71,
      "start": 43.4139,
      "duration": 0.0165,
      "velocity": 60,
      "chip": "ym2612"
    },
    {
      "channel": 0,
      "note": 78,
      "start": 43.4302,
      "duration": 0.0165,
      "velocity": 97,
      "chip": "ym2612"
    },
    {
      "channel": 2,
      "note": 70,
      "start": 43.4306,
      "duration": 0.0165,
      "velocity": 60,
      "chip": "ym2612"
    },
    {
      "channel": 0,
      "note": 77,
      "start": 43.447,
      "duration": 0.033,
      "velocity": 97,
      "chip": "ym2612"
    },
    {
      "channel": 2,
      "note": 69,
      "start": 43.4473,
      "duration": 0.0331,
      "velocity": 60,
      "chip": "ym2612"
    },
    {
      "channel": 0,
      "note": 76,
      "start": 43.4802,
      "duration": 0.0164,
      "velocity": 97,
      "chip": "ym2612"
    },
    {
      "channel": 2,
      "note": 68,
      "start": 43.4806,
      "duration": 0.0165,
      "velocity": 60,
      "chip": "ym2612"
    },
    {
      "channel": 0,
      "note": 75,
      "start": 43.4969,
      "duration": 0.0177,
      "velocity": 97,
      "chip": "ym2612"
    },
    {
      "channel": 2,
      "note": 67,
      "start": 43.4973,
      "duration": 0.0189,
      "velocity": 102,
      "chip": "ym2612"
    },
    {
      "channel": 0,
      "note": 68,
      "start": 43.5147,
      "duration": 0.2493,
      "velocity": 97,
      "chip": "ym2612"
    },
    {
      "channel": 1,
      "note": 68,
      "start": 43.5149,
      "duration": 0.4045,
      "velocity": 107,
      "chip": "ym2612"
    },
    {
      "channel": 2,
      "note": 72,
      "start": 43.5164,
      "duration": 0.2488,
      "velocity": 104,
      "chip": "ym2612"
    },
    {
      "channel": 3,
      "note": 68,
      "start": 43.5174,
      "duration": 0.2489,
      "velocity": 104,
      "chip": "ym2612"
    },
    {
      "channel": 0,
      "note": 68,
      "start": 43.7642,
      "duration": 0.0085,
      "velocity": 97,
      "chip": "ym2612"
    },
    {
      "channel": 2,
      "note": 84,
      "start": 43.7654,
      "duration": 0.1548,
      "velocity": 102,
      "chip": "ym2612"
    },
    {
      "channel": 3,
      "note": 80,
      "start": 43.7665,
      "duration": 0.1546,
      "velocity": 102,
      "chip": "ym2612"
    },
    {
      "channel": 0,
      "note": 67,
      "start": 43.7729,
      "duration": 0.0629,
      "velocity": 97,
      "chip": "ym2612"
    },
    {
      "channel": 0,
      "note": 68,
      "start": 43.836,
      "duration": 0.0832,
      "velocity": 97,
      "chip": "ym2612"
    },
    {
      "channel": 0,
      "note": 69,
      "start": 43.9194,
      "duration": 0.2496,
      "velocity": 97,
      "chip": "ym2612"
    },
    {
      "channel": 1,
      "note": 67,
      "start": 43.9196,
      "duration": 0.405,
      "velocity": 107,
      "chip": "ym2612"
    },
    {
      "channel": 2,
      "note": 71,
      "start": 43.9204,
      "duration": 0.2498,
      "velocity": 104,
      "chip": "ym2612"
    },
    {
      "channel": 3,
      "note": 67,
      "start": 43.9213,
      "duration": 0.25,
      "velocity": 104,
      "chip": "ym2612"
    },
    {
      "channel": 0,
      "note": 69,
      "start": 44.1692,
      "duration": 0.0084,
      "velocity": 97,
      "chip": "ym2612"
    },
    {
      "channel": 2,
      "note": 85,
      "start": 44.1704,
      "duration": 0.155,
      "velocity": 102,
      "chip": "ym2612"
    },
    {
      "channel": 3,
      "note": 82,
      "start": 44.1715,
      "duration": 0.1549,
      "velocity": 102,
      "chip": "ym2612"
    },
    {
      "channel": 0,
      "note": 65,
      "start": 44.1778,
      "duration": 0.0631,
      "velocity": 97,
      "chip": "ym2612"
    },
    {
      "channel": 0,
      "note": 69,
      "start": 44.2412,
      "duration": 0.0831,
      "velocity": 97,
      "chip": "ym2612"
    },
    {
      "channel": 0,
      "note": 70,
      "start": 44.3246,
      "duration": 0.2496,
      "velocity": 97,
      "chip": "ym2612"
    },
    {
      "channel": 1,
      "note": 66,
      "start": 44.3248,
      "duration": 0.4049,
      "velocity": 107,
      "chip": "ym2612"
    },
    {
      "channel": 2,
      "note": 70,
      "start": 44.3256,
      "duration": 0.2497,
      "velocity": 104,
      "chip": "ym2612"
    },
    {
      "channel": 3,
      "note": 66,
      "start": 44.3266,
      "duration": 0.2499,
      "velocity": 104,
      "chip": "ym2612"
    },
    {
      "channel": 0,
      "note": 70,
      "start": 44.5744,
      "duration": 0.0085,
      "velocity": 97,
      "chip": "ym2612"
    },
    {
      "channel": 2,
      "note": 86,
      "start": 44.5756,
      "duration": 0.1549,
      "velocity": 102,
      "chip": "ym2612"
    },
    {
      "channel": 3,
      "note": 83,
      "start": 44.5767,
      "duration": 0.1547,
      "velocity": 102,
      "chip": "ym2612"
    },
    {
      "channel": 0,
      "note": 65,
      "start": 44.5831,
      "duration": 0.0629,
      "velocity": 97,
      "chip": "ym2612"
    },
    {
      "channel": 0,
      "note": 70,
      "start": 44.6462,
      "duration": 0.0832,
      "velocity": 97,
      "chip": "ym2612"
    },
    {
      "channel": 0,
      "note": 71,
      "start": 44.7296,
      "duration": 0.1728,
      "velocity": 97,
      "chip": "ym2612"
    },
    {
      "channel": 1,
      "note": 65,
      "start": 44.7298,
      "duration": 0.328,
      "velocity": 107,
      "chip": "ym2612"
    },
    {
      "channel": 2,
      "note": 68,
      "start": 44.7307,
      "duration": 0.1729,
      "velocity": 104,
      "chip": "ym2612"
    },
    {
      "channel": 3,
      "note": 65,
      "start": 44.7316,
      "duration": 0.1731,
      "velocity": 104,
      "chip": "ym2612"
    },
    {
      "channel": 0,
      "note": 71,
      "start": 44.9027,
      "duration": 0.0085,
      "velocity": 97,
      "chip": "ym2612"
    },
    {
      "channel": 2,
      "note": 87,
      "start": 44.9038,
      "duration": 0.1549,
      "velocity": 96,
      "chip": "ym2612"
    },
    {
      "channel": 3,
      "note": 84,
      "start": 44.9049,
      "duration": 0.1539,
      "velocity": 104,
      "chip": "ym2612"
    },
    {
      "channel": 0,
      "note": 65,
      "start": 44.9113,
      "duration": 0.0629,
      "velocity": 97,
      "chip": "ym2612"
    },
    {
      "channel": 0,
      "note": 71,
      "start": 44.9745,
      "duration": 0.0831,
      "velocity": 97,
      "chip": "ym2612"
    },
    {
      "channel": 0,
      "note": 59,
      "start": 45.0578,
      "duration": 0.0828,
      "velocity": 97,
      "chip": "ym2612"
    },
    {
      "channel": 0,
      "note": 65,
      "start": 45.1409,
      "duration": 0.0832,
      "velocity": 97,
      "chip": "ym2612"
    },
    {
      "channel": 0,
      "note": 68,
      "start": 45.2243,
      "duration": 0.0051,
      "velocity": 97,
      "chip": "ym2612"
    },
    {
      "channel": 0,
      "note": 75,
      "start": 45.2297,
      "duration": 0.4813,
      "velocity": 97,
      "chip": "ym2612"
    },
    {
      "channel": 2,
      "note": 84,
      "start": 45.2298,
      "duration": 0.4824,
      "velocity": 104,
      "chip": "ym2612"
    },
    {
      "channel": 0,
      "note": 75,
      "start": 45.7112,
      "duration": 0.1734,
      "velocity": 97,
      "chip": "ym2612"
    },
    {
      "channel": 1,
      "note": 63,
      "start": 45.7115,
      "duration": 0.1664,
      "velocity": 107,
      "chip": "ym2612"
    },
    {
      "channel": 3,
      "note": 63,
      "start": 45.7133,
      "duration": 0.1653,
      "velocity": 104,
      "chip": "ym2612"
    },
    {
      "channel": 1,
      "note": 75,
      "start": 45.8781,
      "duration": 0.1327,
      "velocity": 107,
      "chip": "ym2612"
    },
    {
      "channel": 2,
      "note": 84,
      "start": 45.8784,
      "duration": 0.1333,
      "velocity": 100,
      "chip": "ym2612"
    },
    {
      "channel": 3,
      "note": 73,
      "start": 45.8788,
      "duration": 0.1339,
      "velocity": 95,
      "chip": "ym2612"
    },
    {
      "channel": 4,
      "note": 79,
      "start": 45.8791,
      "duration": 0.1346,
      "velocity": 104,
      "chip": "ym2612"
    },
    {
      "channel": 0,
      "note": 74,
      "start": 45.8848,
      "duration": 0.0042,
      "velocity": 97,
      "chip": "ym2612"
    },
    {
      "channel": 0,
      "note": 72,
      "start": 45.8892,
      "duration": 0.0032,
      "velocity": 97,
      "chip": "ym2612"
    },
    {
      "channel": 0,
      "note": 70,
      "start": 45.8925,
      "duration": 0.0141,
      "velocity": 97,
      "chip": "ym2612"
    },
    {
      "channel": 0,
      "note": 69,
      "start": 45.9068,
      "duration": 0.0499,
      "velocity": 97,
      "chip": "ym2612"
    },
    {
      "channel": 0,
      "note": 67,
      "start": 45.957,
      "duration": 0.0029,
      "velocity": 97,
      "chip": "ym2612"
    },
    {
      "channel": 0,
      "note": 65,
      "start": 45.9601,
      "duration": 0.0037,
      "velocity": 97,
      "chip": "ym2612"
    },
    {
      "channel": 0,
      "note": 63,
      "start": 45.9641,
      "duration": 0.0043,
      "velocity": 97,
      "chip": "ym2612"
    },
    {
      "channel": 0,
      "note": 62,
      "start": 45.9685,
      "duration": 0.0031,
      "velocity": 97,
      "chip": "ym2612"
    },
    {
      "channel": 0,
      "note": 60,
      "start": 45.9719,
      "duration": 0.003,
      "velocity": 97,
      "chip": "ym2612"
    },
    {
      "channel": 0,
      "note": 58,
      "start": 45.9751,
      "duration": 0.0033,
      "velocity": 97,
      "chip": "ym2612"
    },
    {
      "channel": 0,
      "note": 57,
      "start": 45.9786,
      "duration": 0.0043,
      "velocity": 97,
      "chip": "ym2612"
    },
    {
      "channel": 0,
      "note": 55,
      "start": 45.9831,
      "duration": 0.0021,
      "velocity": 97,
      "chip": "ym2612"
    },
    {
      "channel": 0,
      "note": 53,
      "start": 45.9855,
      "duration": 0.0051,
      "velocity": 97,
      "chip": "ym2612"
    },
    {
      "channel": 1,
      "note": 68,
      "start": 46.0109,
      "duration": 0.1824,
      "velocity": 107,
      "chip": "ym2612"
    },
    {
      "channel": 3,
      "note": 63,
      "start": 46.0128,
      "duration": 0.0806,
      "velocity": 95,
      "chip": "ym2612"
    },
    {
      "channel": 4,
      "note": 56,
      "start": 46.014,
      "duration": 0.0795,
      "velocity": 104,
      "chip": "ym2612"
    },
    {
      "channel": 0,
      "note": 74,
      "start": 46.2434,
      "duration": 0.0165,
      "velocity": 113,
      "chip": "ym2612"
    },
    {
      "channel": 2,
      "note": 71,
      "start": 46.2437,
      "duration": 0.0166,
      "velocity": 100,
      "chip": "ym2612"
    },
    {
      "channel": 0,
      "note": 75,
      "start": 46.2602,
      "duration": 0.3211,
      "velocity": 113,
      "chip": "ym2612"
    },
    {
      "channel": 2,
      "note": 72,
      "start": 46.2605,
      "duration": 0.3212,
      "velocity": 100,
      "chip": "ym2612"
    },
    {
      "channel": 3,
      "note": 65,
      "start": 46.2609,
      "duration": 0.0059,
      "velocity": 95,
      "chip": "ym2612"
    },
    {
      "channel": 4,
      "note": 56,
      "start": 46.2612,
      "duration": 0.0057,
      "velocity": 104,
      "chip": "ym2612"
    },
    {
      "channel": 1,
      "note": 63,
      "start": 46.415,
      "duration": 0.1831,
      "velocity": 107,
      "chip": "ym2612"
    },
    {
      "channel": 3,
      "note": 63,
      "start": 46.4153,
      "duration": 0.083,
      "velocity": 95,
      "chip": "ym2612"
    },
    {
      "channel": 4,
      "note": 56,
      "start": 46.4156,
      "duration": 0.0828,
      "velocity": 104,
      "chip": "ym2612"
    },
    {
      "channel": 0,
      "note": 77,
      "start": 46.5816,
      "duration": 0.2379,
      "velocity": 113,
      "chip": "ym2612"
    },
    {
      "channel": 2,
      "note": 73,
      "start": 46.582,
      "duration": 0.2381,
      "velocity": 100,
      "chip": "ym2612"
    },
    {
      "channel": 3,
      "note": 65,
      "start": 46.6651,
      "duration": 0.0061,
      "velocity": 95,
      "chip": "ym2612"
    },
    {
      "channel": 4,
      "note": 56,
      "start": 46.6655,
      "duration": 0.0059,
      "velocity": 104,
      "chip": "ym2612"
    },
    {
      "channel": 0,
      "note": 75,
      "start": 46.8197,
      "duration": 0.3211,
      "velocity": 113,
      "chip": "ym2612"
    },
    {
      "channel": 1,
      "note": 68,
      "start": 46.8199,
      "duration": 0.183,
      "velocity": 107,
      "chip": "ym2612"
    },
    {
      "channel": 2,
      "note": 72,
      "start": 46.8202,
      "duration": 0.321,
      "velocity": 100,
      "chip": "ym2612"
    },
    {
      "channel": 3,
      "note": 63,
      "start": 46.8205,
      "duration": 0.0826,
      "velocity": 95,
      "chip": "ym2612"
    },
    {
      "channel": 4,
      "note": 56,
      "start": 46.8207,
      "duration": 0.0825,
      "velocity": 104,
      "chip": "ym2612"
    },
    {
      "channel": 3,
      "note": 65,
      "start": 47.07,
      "duration": 0.0061,
      "velocity": 95,
      "chip": "ym2612"
    },
    {
      "channel": 4,
      "note": 56,
      "start": 47.0704,
      "duration": 0.0059,
      "velocity": 104,
      "chip": "ym2612"
    },
    {
      "channel": 0,
      "note": 77,
      "start": 47.1411,
      "duration": 0.333,
      "velocity": 113,
      "chip": "ym2612"
    },
    {
      "channel": 2,
      "note": 73,
      "start": 47.1414,
      "duration": 0.3331,
      "velocity": 100,
      "chip": "ym2612"
    },
    {
      "channel": 1,
      "note": 63,
      "start": 47.2245,
      "duration": 0.183,
      "velocity": 107,
      "chip": "ym2612"
    },
    {
      "channel": 3,
      "note": 63,
      "start": 47.2248,
      "duration": 0.0828,
      "velocity": 95,
      "chip": "ym2612"
    },
    {
      "channel": 4,
      "note": 56,
      "start": 47.225,
      "duration": 0.0828,
      "velocity": 104,
      "chip": "ym2612"
    },
    {
      "channel": 0,
      "note": 71,
      "start": 47.4744,
      "duration": 0.071,
      "velocity": 113,
      "chip": "ym2612"
    },
    {
      "channel": 2,
      "note": 67,
      "start": 47.4747,
      "duration": 0.071,
      "velocity": 100,
      "chip": "ym2612"
    },
    {
      "channel": 3,
      "note": 65,
      "start": 47.475,
      "duration": 0.071,
      "velocity": 95,
      "chip": "ym2612"
    },
    {
      "channel": 4,
      "note": 56,
      "start": 47.4754,
      "duration": 0.0057,
      "velocity": 104,
      "chip": "ym2612"
    },
    {
      "channel": 0,
      "note": 72,
      "start": 47.5456,
      "duration": 0.0834,
      "velocity": 113,
      "chip": "ym2612"
    },
    {
      "channel": 2,
      "note": 68,
      "start": 47.5459,
      "duration": 0.0836,
      "velocity": 100,
      "chip": "ym2612"
    },
    {
      "channel": 3,
      "note": 63,
      "start": 47.5462,
      "duration": 0.0834,
      "velocity": 95,
      "chip": "ym2612"
    },
    {
      "channel": 0,
      "note": 72,
      "start": 47.629,
      "duration": 0.2328,
      "velocity": 113,
      "chip": "ym2612"
    },
    {
      "channel": 1,
      "note": 68,
      "start": 47.6293,
      "duration": 0.1827,
      "velocity": 107,
      "chip": "ym2612"
    },
    {
      "channel": 2,
      "note": 68,
      "start": 47.6295,
      "duration": 0.2327,
      "velocity": 100,
      "chip": "ym2612"
    },
    {
      "channel": 3,
      "note": 63,
      "start": 47.6297,
      "duration": 0.0824,
      "velocity": 95,
      "chip": "ym2612"
    },
    {
      "channel": 4,
      "note": 56,
      "start": 47.6298,
      "duration": 0.0824,
      "velocity": 104,
      "chip": "ym2612"
    },
    {
      "channel": 0,
      "note": 74,
      "start": 47.8621,
      "duration": 0.0165,
      "velocity": 113,
      "chip": "ym2612"
    },
    {
      "channel": 2,
      "note": 71,
      "start": 47.8624,
      "duration": 0.0165,
      "velocity": 100,
      "chip": "ym2612"
    },
    {
      "channel": 0,
      "note": 75,
      "start": 47.8788,
      "duration": 0.321,
      "velocity": 113,
      "chip": "ym2612"
    },
    {
      "channel": 2,
      "note": 72,
      "start": 47.8791,
      "duration": 0.3211,
      "velocity": 100,
      "chip": "ym2612"
    },
    {
      "channel": 3,
      "note": 65,
      "start": 47.8795,
      "duration": 0.0059,
      "velocity": 95,
      "chip": "ym2612"
    },
    {
      "channel": 4,
      "note": 56,
      "start": 47.8799,
      "duration": 0.0056,
      "velocity": 104,
      "chip": "ym2612"
    },
    {
      "channel": 1,
      "note": 63,
      "start": 48.0335,
      "duration": 0.1831,
      "velocity": 107,
      "chip": "ym2612"
    },
    {
      "channel": 3,
      "note": 63,
      "start": 48.0338,
      "duration": 0.083,
      "velocity": 95,
      "chip": "ym2612"
    },
    {
      "channel": 4,
      "note": 56,
      "start": 48.0341,
      "duration": 0.0828,
      "velocity": 104,
      "chip": "ym2612"
    },
    {
      "channel": 0,
      "note": 77,
      "start": 48.2001,
      "duration": 0.2379,
      "velocity": 113,
      "chip": "ym2612"
    },
    {
      "channel": 2,
      "note": 73,
      "start": 48.2005,
      "duration": 0.238,
      "velocity": 100,
      "chip": "ym2612"
    },
    {
      "channel": 3,
      "note": 65,
      "start": 48.2837,
      "duration": 0.0061,
      "velocity": 95,
      "chip": "ym2612"
    },
    {
      "channel": 4,
      "note": 56,
      "start": 48.284,
      "duration": 0.0059,
      "velocity": 104,
      "chip": "ym2612"
    },
    {
      "channel": 0,
      "note": 78,
      "start": 48.4382,
      "duration": 0.2499,
      "velocity": 113,
      "chip": "ym2612"
    },
    {
      "channel": 1,
      "note": 68,
      "start": 48.4384,
      "duration": 0.183,
      "velocity": 107,
      "chip": "ym2612"
    },
    {
      "channel": 2,
      "note": 75,
      "start": 48.4386,
      "duration": 0.2501,
      "velocity": 100,
      "chip": "ym2612"
    },
    {
      "channel": 3,
      "note": 63,
      "start": 48.4389,
      "duration": 0.0828,
      "velocity": 95,
      "chip": "ym2612"
    },
    {
      "channel": 4,
      "note": 56,
      "start": 48.4391,
      "duration": 0.0827,
      "velocity": 104,
      "chip": "ym2612"
    },
    {
      "channel": 0,
      "note": 77,
      "start": 48.6883,
      "duration": 0.1548,
      "velocity": 113,
      "chip": "ym2612"
    },
    {
      "channel": 1,
      "note": 70,
      "start": 48.6887,
      "duration": 0.0878,
      "velocity": 107,
      "chip": "ym2612"
    },
    {
      "channel": 2,
      "note": 73,
      "start": 48.689,
      "duration": 0.1547,
      "velocity": 100,
      "chip": "ym2612"
    },
    {
      "channel": 3,
      "note": 65,
      "start": 48.6894,
      "duration": 0.0065,
      "velocity": 95,
      "chip": "ym2612"
    },
    {
      "channel": 4,
      "note": 56,
      "start": 48.6897,
      "duration": 0.0062,
      "velocity": 104,
      "chip": "ym2612"
    },
    {
      "channel": 0,
      "note": 75,
      "start": 48.8434,
      "duration": 0.1664,
      "velocity": 113,
      "chip": "ym2612"
    },
    {
      "channel": 1,
      "note": 71,
      "start": 48.8437,
      "duration": 0.1685,
      "velocity": 107,
      "chip": "ym2612"
    },
    {
      "channel": 2,
      "note": 72,
      "start": 48.8439,
      "duration": 0.1664,
      "velocity": 100,
      "chip": "ym2612"
    },
    {
      "channel": 3,
      "note": 63,
      "start": 48.8442,
      "duration": 0.0824,
      "velocity": 95,
      "chip": "ym2612"
    },
    {
      "channel": 4,
      "note": 56,
      "start": 48.8445,
      "duration": 0.0823,
      "velocity": 104,
      "chip": "ym2612"
    },
    {
      "channel": 0,
      "note": 72,
      "start": 49.0101,
      "duration": 0.0813,
      "velocity": 113,
      "chip": "ym2612"
    },
    {
      "channel": 2,
      "note": 68,
      "start": 49.0106,
      "duration": 0.0813,
      "velocity": 100,
      "chip": "ym2612"
    },
    {
      "channel": 1,
      "note": 72,
      "start": 49.0154,
      "duration": 0.0723,
      "velocity": 107,
      "chip": "ym2612"
    },
    {
      "channel": 3,
      "note": 65,
      "start": 49.0156,
      "duration": 0.0702,
      "velocity": 95,
      "chip": "ym2612"
    },
    {
      "channel": 4,
      "note": 56,
      "start": 49.0159,
      "duration": 0.0055,
      "velocity": 104,
      "chip": "ym2612"
    },
    {
      "channel": 3,
      "note": 63,
      "start": 49.086,
      "duration": 0.0062,
      "velocity": 95,
      "chip": "ym2612"
    },
    {
      "channel": 1,
      "note": 68,
      "start": 49.0919,
      "duration": 0.1828,
      "velocity": 107,
      "chip": "ym2612"
    },
    {
      "channel": 3,
      "note": 63,
      "start": 49.0922,
      "duration": 0.0827,
      "velocity": 95,
      "chip": "ym2612"
    },
    {
      "channel": 4,
      "note": 56,
      "start": 49.0924,
      "duration": 0.0826,
      "velocity": 104,
      "chip": "ym2612"
    },
    {
      "channel": 0,
      "note": 74,
      "start": 49.3249,
      "duration": 0.0165,
      "velocity": 113,
      "chip": "ym2612"
    },
    {
      "channel": 2,
      "note": 71,
      "start": 49.3252,
      "duration": 0.0165,
      "velocity": 100,
      "chip": "ym2612"
    },
    {
      "channel": 0,
      "note": 75,
      "start": 49.3416,
      "duration": 0.321,
      "velocity": 113,
      "chip": "ym2612"
    },
    {
      "channel": 2,
      "note": 72,
      "start": 49.3419,
      "duration": 0.3211,
      "velocity": 100,
      "chip": "ym2612"
    },
    {
      "channel": 3,
      "note": 65,
      "start": 49.3423,
      "duration": 0.0059,
      "velocity": 95,
      "chip": "ym2612"
    },
    {
      "channel": 4,
      "note": 56,
      "start": 49.3426,
      "duration": 0.0057,
      "velocity": 104,
      "chip": "ym2612"
    },
    {
      "channel": 1,
      "note": 63,
      "start": 49.4963,
      "duration": 0.183,
      "velocity": 107,
      "chip": "ym2612"
    },
    {
      "channel": 3,
      "note": 63,
      "start": 49.4966,
      "duration": 0.0828,
      "velocity": 95,
      "chip": "ym2612"
    },
    {
      "channel": 4,
      "note": 56,
      "start": 49.4968,
      "duration": 0.0828,
      "velocity": 104,
      "chip": "ym2612"
    },
    {
      "channel": 0,
      "note": 77,
      "start": 49.6628,
      "duration": 0.2378,
      "velocity": 113,
      "chip": "ym2612"
    },
    {
      "channel": 2,
      "note": 73,
      "start": 49.6632,
      "duration": 0.238,
      "velocity": 100,
      "chip": "ym2612"
    },
    {
      "channel": 3,
      "note": 65,
      "start": 49.7463,
      "duration": 0.0061,
      "velocity": 95,
      "chip": "ym2612"
    },
    {
      "channel": 4,
      "note": 56,
      "start": 49.7467,
      "duration": 0.0059,
      "velocity": 104,
      "chip": "ym2612"
    },
    {
      "channel": 0,
      "note": 75,
      "start": 49.9009,
      "duration": 0.3211,
      "velocity": 113,
      "chip": "ym2612"
    },
    {
      "channel": 1,
      "note": 68,
      "start": 49.9011,
      "duration": 0.183,
      "velocity": 107,
      "chip": "ym2612"
    },
    {
      "channel": 2,
      "note": 72,
      "start": 49.9013,
      "duration": 0.321,
      "velocity": 100,
      "chip": "ym2612"
    },
    {
      "channel": 3,
      "note": 63,
      "start": 49.9016,
      "duration": 0.0826,
      "velocity": 95,
      "chip": "ym2612"
    },
    {
      "channel": 4,
      "note": 56,
      "start": 49.9019,
      "duration": 0.0825,
      "velocity": 104,
      "chip": "ym2612"
    },
    {
      "channel": 3,
      "note": 65,
      "start": 50.1511,
      "duration": 0.0061,
      "velocity": 95,
      "chip": "ym2612"
    },
    {
      "channel": 4,
      "note": 56,
      "start": 50.1515,
      "duration": 0.0059,
      "velocity": 104,
      "chip": "ym2612"
    },
    {
      "channel": 0,
      "note": 77,
      "start": 50.2222,
      "duration": 0.333,
      "velocity": 113,
      "chip": "ym2612"
    },
    {
      "channel": 2,
      "note": 73,
      "start": 50.2226,
      "duration": 0.3331,
      "velocity": 100,
      "chip": "ym2612"
    },
    {
      "channel": 1,
      "note": 63,
      "start": 50.3056,
      "duration": 0.183,
      "velocity": 107,
      "chip": "ym2612"
    },
    {
      "channel": 3,
      "note": 63,
      "start": 50.3059,
      "duration": 0.0828,
      "velocity": 95,
      "chip": "ym2612"
    },
    {
      "channel": 4,
      "note": 56,
      "start": 50.3061,
      "duration": 0.0828,
      "velocity": 104,
      "chip": "ym2612"
    },
    {
      "channel": 0,
      "note": 71,
      "start": 50.5556,
      "duration": 0.071,
      "velocity": 113,
      "chip": "ym2612"
    },
    {
      "channel": 2,
      "note": 67,
      "start": 50.5559,
      "duration": 0.071,
      "velocity": 100,
      "chip": "ym2612"
    },
    {
      "channel": 3,
      "note": 65,
      "start": 50.5562,
      "duration": 0.071,
      "velocity": 95,
      "chip": "ym2612"
    },
    {
      "channel": 4,
      "note": 56,
      "start": 50.5565,
      "duration": 0.0057,
      "velocity": 104,
      "chip": "ym2612"
    },
    {
      "channel": 0,
      "note": 72,
      "start": 50.6268,
      "duration": 0.0834,
      "velocity": 113,
      "chip": "ym2612"
    },
    {
      "channel": 2,
      "note": 68,
      "start": 50.6271,
      "duration": 0.0836,
      "velocity": 100,
      "chip": "ym2612"
    },
    {
      "channel": 3,
      "note": 63,
      "start": 50.6274,
      "duration": 0.0834,
      "velocity": 95,
      "chip": "ym2612"
    },
    {
      "channel": 0,
      "note": 72,
      "start": 50.7102,
      "duration": 0.2328,
      "velocity": 113,
      "chip": "ym2612"
    },
    {
      "channel": 1,
      "note": 68,
      "start": 50.7104,
      "duration": 0.1827,
      "velocity": 107,
      "chip": "ym2612"
    },
    {
      "channel": 2,
      "note": 68,
      "start": 50.7107,
      "duration": 0.2327,
      "velocity": 100,
      "chip": "ym2612"
    },
    {
      "channel": 3,
      "note": 63,
      "start": 50.7108,
      "duration": 0.0824,
      "velocity": 95,
      "chip": "ym2612"
    },
    {
      "channel": 4,
      "note": 56,
      "start": 50.711,
      "duration": 0.0824,
      "velocity": 104,
      "chip": "ym2612"
    },
    {
      "channel": 0,
      "note": 74,
      "start": 50.9432,
      "duration": 0.0165,
      "velocity": 113,
      "chip": "ym2612"
    },
    {
      "channel": 2,
      "note": 71,
      "start": 50.9436,
      "duration": 0.0165,
      "velocity": 100,
      "chip": "ym2612"
    },
    {
      "channel": 0,
      "note": 75,
      "start": 50.96,
      "duration": 0.321,
      "velocity": 113,
      "chip": "ym2612"
    },
    {
      "channel": 2,
      "note": 72,
      "start": 50.9603,
      "duration": 0.3211,
      "velocity": 100,
      "chip": "ym2612"
    },
    {
      "channel": 3,
      "note": 65,
      "start": 50.9607,
      "duration": 0.0059,
      "velocity": 95,
      "chip": "ym2612"
    },
    {
      "channel": 4,
      "note": 56,
      "start": 50.961,
      "duration": 0.0056,
      "velocity": 104,
      "chip": "ym2612"
    },
    {
      "channel": 1,
      "note": 63,
      "start": 51.1147,
      "duration": 0.1831,
      "velocity": 107,
      "chip": "ym2612"
    },
    {
      "channel": 3,
      "note": 63,
      "start": 51.115,
      "duration": 0.083,
      "velocity": 95,
      "chip": "ym2612"
    },
    {
      "channel": 4,
      "note": 56,
      "start": 51.1152,
      "duration": 0.0828,
      "velocity": 104,
      "chip": "ym2612"
    },
    {
      "channel": 0,
      "note": 77,
      "start": 51.2812,
      "duration": 0.2379,
      "velocity": 113,
      "chip": "ym2612"
    },
    {
      "channel": 2,
      "note": 73,
      "start": 51.2816,
      "duration": 0.238,
      "velocity": 100,
      "chip": "ym2612"
    },
    {
      "channel": 3,
      "note": 65,
      "start": 51.3648,
      "duration": 0.0061,
      "velocity": 95,
      "chip": "ym2612"
    },
    {
      "channel": 4,
      "note": 56,
      "start": 51.3652,
      "duration": 0.0059,
      "velocity": 104,
      "chip": "ym2612"
    },
    {
      "channel": 0,
      "note": 78,
      "start": 51.5194,
      "duration": 0.2497,
      "velocity": 113,
      "chip": "ym2612"
    },
    {
      "channel": 1,
      "note": 68,
      "start": 51.5196,
      "duration": 0.1828,
      "velocity": 107,
      "chip": "ym2612"
    },
    {
      "channel": 2,
      "note": 75,
      "start": 51.5198,
      "duration": 0.2499,
      "velocity": 100,
      "chip": "ym2612"
    },
    {
      "channel": 3,
      "note": 63,
      "start": 51.52,
      "duration": 0.0826,
      "velocity": 95,
      "chip": "ym2612"
    },
    {
      "channel": 4,
      "note": 56,
      "start": 51.5201,
      "duration": 0.0826,
      "velocity": 104,
      "chip": "ym2612"
    },
    {
      "channel": 0,
      "note": 77,
      "start": 51.7693,
      "duration": 0.1547,
      "velocity": 113,
      "chip": "ym2612"
    },
    {
      "channel": 1,
      "note": 70,
      "start": 51.7697,
      "duration": 0.0877,
      "velocity": 107,
      "chip": "ym2612"
    },
    {
      "channel": 2,
      "note": 73,
      "start": 51.77,
      "duration": 0.1546,
      "velocity": 100,
      "chip": "ym2612"
    },
    {
      "channel": 3,
      "note": 65,
      "start": 51.7703,
      "duration": 0.0062,
      "velocity": 95,
      "chip": "ym2612"
    },
    {
      "channel": 4,
      "note": 56,
      "start": 51.7707,
      "duration": 0.0059,
      "velocity": 104,
      "chip": "ym2612"
    },
    {
      "channel": 0,
      "note": 75,
      "start": 51.9243,
      "duration": 0.1664,
      "velocity": 113,
      "chip": "ym2612"
    },
    {
      "channel": 1,
      "note": 71,
      "start": 51.9245,
      "duration": 0.1685,
      "velocity": 107,
      "chip": "ym2612"
    },
    {
      "channel": 2,
      "note": 72,
      "start": 51.9247,
      "duration": 0.1664,
      "velocity": 100,
      "chip": "ym2612"
    },
    {
      "channel": 3,
      "note": 63,
      "start": 51.9251,
      "duration": 0.0824,
      "velocity": 95,
      "chip": "ym2612"
    },
    {
      "channel": 4,
      "note": 56,
      "start": 51.9253,
      "duration": 0.0823,
      "velocity": 104,
      "chip": "ym2612"
    },
    {
      "channel": 0,
      "note": 80,
      "start": 52.0909,
      "duration": 0.0115,
      "velocity": 113,
      "chip": "ym2612"
    },
    {
      "channel": 2,
      "note": 75,
      "start": 52.0913,
      "duration": 0.0832,
      "velocity": 100,
      "chip": "ym2612"
    },
    {
      "channel": 1,
      "note": 72,
      "start": 52.0961,
      "duration": 0.0734,
      "velocity": 107,
      "chip": "ym2612"
    },
    {
      "channel": 3,
      "note": 65,
      "start": 52.0963,
      "duration": 0.0721,
      "velocity": 95,
      "chip": "ym2612"
    },
    {
      "channel": 4,
      "note": 56,
      "start": 52.0966,
      "duration": 0.0061,
      "velocity": 104,
      "chip": "ym2612"
    },
    {
      "channel": 0,
      "note": 76,
      "start": 52.1681,
      "duration": 0.0059,
      "velocity": 97,
      "chip": "ym2612"
    },
    {
      "channel": 3,
      "note": 63,
      "start": 52.1685,
      "duration": 0.0062,
      "velocity": 95,
      "chip": "ym2612"
    },
    {
      "channel": 0,
      "note": 77,
      "start": 52.1742,
      "duration": 0.1664,
      "velocity": 97,
      "chip": "ym2612"
    },
    {
      "channel": 1,
      "note": 73,
      "start": 52.1745,
      "duration": 0.183,
      "velocity": 107,
      "chip": "ym2612"
    },
    {
      "channel": 3,
      "note": 68,
      "start": 52.1747,
      "duration": 0.083,
      "velocity": 95,
      "chip": "ym2612"
    },
    {
      "channel": 4,
      "note": 61,
      "start": 52.1749,
      "duration": 0.0829,
      "velocity": 104,
      "chip": "ym2612"
    },
    {
      "channel": 0,
      "note": 85,
      "start": 52.3409,
      "duration": 0.0832,
      "velocity": 97,
      "chip": "ym2612"
    },
    {
      "channel": 0,
      "note": 80,
      "start": 52.4243,
      "duration": 0.0712,
      "velocity": 97,
      "chip": "ym2612"
    },
    {
      "channel": 3,
      "note": 70,
      "start": 52.4247,
      "duration": 0.0066,
      "velocity": 95,
      "chip": "ym2612"
    },
    {
      "channel": 4,
      "note": 61,
      "start": 52.4251,
      "duration": 0.0063,
      "velocity": 104,
      "chip": "ym2612"
    },
    {
      "channel": 0,
      "note": 77,
      "start": 52.4958,
      "duration": 0.0832,
      "velocity": 97,
      "chip": "ym2612"
    },
    {
      "channel": 0,
      "note": 85,
      "start": 52.5793,
      "duration": 0.05,
      "velocity": 97,
      "chip": "ym2612"
    },
    {
      "channel": 1,
      "note": 68,
      "start": 52.5794,
      "duration": 0.1832,
      "velocity": 107,
      "chip": "ym2612"
    },
    {
      "channel": 2,
      "note": 77,
      "start": 52.5807,
      "duration": 0.0488,
      "velocity": 60,
      "chip": "ym2612"
    },
    {
      "channel": 3,
      "note": 68,
      "start": 52.5809,
      "duration": 0.082,
      "velocity": 95,
      "chip": "ym2612"
    },
    {
      "channel": 4,
      "note": 61,
      "start": 52.5812,
      "duration": 0.0818,
      "velocity": 104,
      "chip": "ym2612"
    },
    {
      "channel": 0,
      "note": 84,
      "start": 52.8295,
      "duration": 0.0054,
      "velocity": 97,
      "chip": "ym2612"
    },
    {
      "channel": 2,
      "note": 76,
      "start": 52.8298,
      "duration": 0.0052,
      "velocity": 60,
      "chip": "ym2612"
    },
    {
      "channel": 3,
      "note": 70,
      "start": 52.8302,
      "duration": 0.0067,
      "velocity": 95,
      "chip": "ym2612"
    },
    {
      "channel": 4,
      "note": 61,
      "start": 52.8305,
      "duration": 0.0065,
      "velocity": 104,
      "chip": "ym2612"
    },
    {
      "channel": 0,
      "note": 83,
      "start": 52.9013,
      "duration": 0.0834,
      "velocity": 97,
      "chip": "ym2612"
    },
    {
      "channel": 2,
      "note": 75,
      "start": 52.9017,
      "duration": 0.0834,
      "velocity": 60,
      "chip": "ym2612"
    },
    {
      "channel": 3,
      "note": 71,
      "start": 52.902,
      "duration": 0.0834,
      "velocity": 95,
      "chip": "ym2612"
    },
    {
      "channel": 4,
      "note": 61,
      "start": 52.9023,
      "duration": 0.0832,
      "velocity": 104,
      "chip": "ym2612"
    },
    {
      "channel": 0,
      "note": 83,
      "start": 52.9847,
      "duration": 0.4392,
      "velocity": 97,
      "chip": "ym2612"
    },
    {
      "channel": 1,
      "note": 71,
      "start": 52.985,
      "duration": 0.1831,
      "velocity": 107,
      "chip": "ym2612"
    },
    {
      "channel": 2,
      "note": 75,
      "start": 52.9851,
      "duration": 0.5725,
      "velocity": 60,
      "chip": "ym2612"
    },
    {
      "channel": 3,
      "note": 71,
      "start": 52.9854,
      "duration": 0.25,
      "velocity": 95,
      "chip": "ym2612"
    },
    {
      "channel": 4,
      "note": 61,
      "start": 52.9855,
      "duration": 0.0829,
      "velocity": 104,
      "chip": "ym2612"
    },
    {
      "channel": 1,
      "note": 73,
      "start": 53.2351,
      "duration": 0.0888,
      "velocity": 107,
      "chip": "ym2612"
    },
    {
      "channel": 3,
      "note": 70,
      "start": 53.2356,
      "duration": 0.0077,
      "velocity": 95,
      "chip": "ym2612"
    },
    {
      "channel": 4,
      "note": 61,
      "start": 53.236,
      "duration": 0.0074,
      "velocity": 104,
      "chip": "ym2612"
    },
    {
      "channel": 1,
      "note": 68,
      "start": 53.3909,
      "duration": 0.1686,
      "velocity": 107,
      "chip": "ym2612"
    },
    {
      "channel": 3,
      "note": 68,
      "start": 53.3912,
      "duration": 0.0832,
      "velocity": 95,
      "chip": "ym2612"
    },
    {
      "channel": 4,
      "note": 61,
      "start": 53.3915,
      "duration": 0.0832,
      "velocity": 104,
      "chip": "ym2612"
    },
    {
      "channel": 0,
      "note": 82,
      "start": 53.4241,
      "duration": 0.0498,
      "velocity": 97,
      "chip": "ym2612"
    },
    {
      "channel": 0,
      "note": 81,
      "start": 53.4741,
      "duration": 0.0331,
      "velocity": 97,
      "chip": "ym2612"
    },
    {
      "channel": 0,
      "note": 80,
      "start": 53.5075,
      "duration": 0.0498,
      "velocity": 97,
      "chip": "ym2612"
    },
    {
      "channel": 0,
      "note": 83,
      "start": 53.5575,
      "duration": 0.0038,
      "velocity": 97,
      "chip": "ym2612"
    },
    {
      "channel": 2,
      "note": 77,
      "start": 53.5579,
      "duration": 0.1621,
      "velocity": 60,
      "chip": "ym2612"
    },
    {
      "channel": 0,
      "note": 85,
      "start": 53.5614,
      "duration": 0.1581,
      "velocity": 97,
      "chip": "ym2612"
    },
    {
      "channel": 1,
      "note": 61,
      "start": 53.5641,
      "duration": 0.0889,
      "velocity": 107,
      "chip": "ym2612"
    },
    {
      "channel": 3,
      "note": 70,
      "start": 53.5646,
      "duration": 0.008,
      "velocity": 95,
      "chip": "ym2612"
    },
    {
      "channel": 4,
      "note": 61,
      "start": 53.5649,
      "duration": 0.0078,
      "velocity": 104,
      "chip": "ym2612"
    },
    {
      "channel": 0,
      "note": 82,
      "start": 53.7198,
      "duration": 0.8118,
      "velocity": 97,
      "chip": "ym2612"
    },
    {
      "channel": 1,
      "note": 66,
      "start": 53.72,
      "duration": 0.2498,
      "velocity": 107,
      "chip": "ym2612"
    },
    {
      "channel": 2,
      "note": 78,
      "start": 53.7202,
      "duration": 0.2499,
      "velocity": 60,
      "chip": "ym2612"
    },
    {
      "channel": 3,
      "note": 66,
      "start": 53.7203,
      "duration": 0.812,
      "velocity": 95,
      "chip": "ym2612"
    },
    {
      "channel": 4,
      "note": 61,
      "start": 53.7205,
      "duration": 0.8121,
      "velocity": 104,
      "chip": "ym2612"
    },
    {
      "channel": 1,
      "note": 73,
      "start": 53.97,
      "duration": 0.1559,
      "velocity": 107,
      "chip": "ym2612"
    },
    {
      "channel": 2,
      "note": 77,
      "start": 53.9703,
      "duration": 0.1559,
      "velocity": 60,
      "chip": "ym2612"
    },
    {
      "channel": 1,
      "note": 66,
      "start": 54.1262,
      "duration": 0.2498,
      "velocity": 107,
      "chip": "ym2612"
    },
    {
      "channel": 2,
      "note": 76,
      "start": 54.1265,
      "duration": 0.2499,
      "velocity": 60,
      "chip": "ym2612"
    },
    {
      "channel": 1,
      "note": 78,
      "start": 54.3763,
      "duration": 0.1556,
      "velocity": 107,
      "chip": "ym2612"
    },
    {
      "channel": 2,
      "note": 75,
      "start": 54.3766,
      "duration": 0.1555,
      "velocity": 60,
      "chip": "ym2612"
    },
    {
      "channel": 0,
      "note": 81,
      "start": 54.5318,
      "duration": 0.6023,
      "velocity": 97,
      "chip": "ym2612"
    },
    {
      "channel": 1,
      "note": 69,
      "start": 54.532,
      "duration": 0.4059,
      "velocity": 107,
      "chip": "ym2612"
    },
    {
      "channel": 2,
      "note": 73,
      "start": 54.5323,
      "duration": 0.2498,
      "velocity": 60,
      "chip": "ym2612"
    },
    {
      "channel": 3,
      "note": 69,
      "start": 54.5325,
      "duration": 0.6636,
      "velocity": 102,
      "chip": "ym2612"
    },
    {
      "channel": 4,
      "note": 64,
      "start": 54.5328,
      "duration": 0.6634,
      "velocity": 104,
      "chip": "ym2612"
    },
    {
      "channel": 2,
      "note": 75,
      "start": 54.7823,
      "duration": 0.1558,
      "velocity": 60,
      "chip": "ym2612"
    },
    {
      "channel": 1,
      "note": 73,
      "start": 54.938,
      "duration": 0.2556,
      "velocity": 107,
      "chip": "ym2612"
    },
    {
      "channel": 2,
      "note": 76,
      "start": 54.9384,
      "duration": 0.0829,
      "velocity": 60,
      "chip": "ym2612"
    },
    {
      "channel": 2,
      "note": 75,
      "start": 55.0215,
      "duration": 0.0832,
      "velocity": 60,
      "chip": "ym2612"
    },
    {
      "channel": 2,
      "note": 76,
      "start": 55.105,
      "duration": 0.0069,
      "velocity": 60,
      "chip": "ym2612"
    },
    {
      "channel": 2,
      "note": 78,
      "start": 55.1121,
      "duration": 0.0224,
      "velocity": 60,
      "chip": "ym2612"
    },
    {
      "channel": 0,
      "note": 80,
      "start": 55.1343,
      "duration": 0.033,
      "velocity": 97,
      "chip": "ym2612"
    },
    {
      "channel": 2,
      "note": 72,
      "start": 55.1347,
      "duration": 0.033,
      "velocity": 60,
      "chip": "ym2612"
    },
    {
      "channel": 0,
      "note": 79,
      "start": 55.1676,
      "duration": 0.0165,
      "velocity": 97,
      "chip": "ym2612"
    },
    {
      "channel": 2,
      "note": 71,
      "start": 55.168,
      "duration": 0.0165,
      "velocity": 60,
      "chip": "ym2612"
    },
    {
      "channel": 0,
      "note": 78,
      "start": 55.1844,
      "duration": 0.0011,
      "velocity": 97,
      "chip": "ym2612"
    },
    {
      "channel": 2,
      "note": 70,
      "start": 55.1846,
      "duration": 0.0011,
      "velocity": 60,
      "chip": "ym2612"
    },
    {
      "channel": 0,
      "note": 77,
      "start": 55.1856,
      "duration": 0.0025,
      "velocity": 97,
      "chip": "ym2612"
    },
    {
      "channel": 2,
      "note": 69,
      "start": 55.1859,
      "duration": 0.0025,
      "velocity": 60,
      "chip": "ym2612"
    },
    {
      "channel": 0,
      "note": 76,
      "start": 55.1883,
      "duration": 0.0012,
      "velocity": 97,
      "chip": "ym2612"
    },
    {
      "channel": 2,
      "note": 68,
      "start": 55.1885,
      "duration": 0.0012,
      "velocity": 60,
      "chip": "ym2612"
    },
    {
      "channel": 0,
      "note": 75,
      "start": 55.1896,
      "duration": 0.0038,
      "velocity": 97,
      "chip": "ym2612"
    },
    {
      "channel": 2,
      "note": 67,
      "start": 55.1899,
      "duration": 0.0051,
      "velocity": 102,
      "chip": "ym2612"
    },
    {
      "channel": 0,
      "note": 68,
      "start": 55.1936,
      "duration": 0.2492,
      "velocity": 97,
      "chip": "ym2612"
    },
    {
      "channel": 1,
      "note": 68,
      "start": 55.1938,
      "duration": 0.4045,
      "velocity": 107,
      "chip": "ym2612"
    },
    {
      "channel": 2,
      "note": 72,
      "start": 55.1952,
      "duration": 0.2488,
      "velocity": 104,
      "chip": "ym2612"
    },
    {
      "channel": 3,
      "note": 68,
      "start": 55.1962,
      "duration": 0.2488,
      "velocity": 104,
      "chip": "ym2612"
    },
    {
      "channel": 0,
      "note": 68,
      "start": 55.443,
      "duration": 0.0084,
      "velocity": 97,
      "chip": "ym2612"
    },
    {
      "channel": 2,
      "note": 84,
      "start": 55.4441,
      "duration": 0.1549,
      "velocity": 102,
      "chip": "ym2612"
    },
    {
      "channel": 3,
      "note": 80,
      "start": 55.4453,
      "duration": 0.1548,
      "velocity": 102,
      "chip": "ym2612"
    },
    {
      "channel": 0,
      "note": 67,
      "start": 55.4516,
      "duration": 0.063,
      "velocity": 97,
      "chip": "ym2612"
    },
    {
      "channel": 0,
      "note": 68,
      "start": 55.5149,
      "duration": 0.0831,
      "velocity": 97,
      "chip": "ym2612"
    },
    {
      "channel": 0,
      "note": 69,
      "start": 55.5983,
      "duration": 0.2496,
      "velocity": 97,
      "chip": "ym2612"
    },
    {
      "channel": 1,
      "note": 67,
      "start": 55.5985,
      "duration": 0.4051,
      "velocity": 107,
      "chip": "ym2612"
    },
    {
      "channel": 2,
      "note": 71,
      "start": 55.5993,
      "duration": 0.2498,
      "velocity": 104,
      "chip": "ym2612"
    },
    {
      "channel": 3,
      "note": 67,
      "start": 55.6002,
      "duration": 0.25,
      "velocity": 104,
      "chip": "ym2612"
    },
    {
      "channel": 0,
      "note": 69,
      "start": 55.8481,
      "duration": 0.0083,
      "velocity": 97,
      "chip": "ym2612"
    },
    {
      "channel": 2,
      "note": 85,
      "start": 55.8493,
      "duration": 0.155,
      "velocity": 102,
      "chip": "ym2612"
    },
    {
      "channel": 3,
      "note": 82,
      "start": 55.8504,
      "duration": 0.1549,
      "velocity": 102,
      "chip": "ym2612"
    },
    {
      "channel": 0,
      "note": 65,
      "start": 55.8566,
      "duration": 0.0632,
      "velocity": 97,
      "chip": "ym2612"
    },
    {
      "channel": 0,
      "note": 69,
      "start": 55.92,
      "duration": 0.0832,
      "velocity": 97,
      "chip": "ym2612"
    },
    {
      "channel": 0,
      "note": 70,
      "start": 56.0035,
      "duration": 0.2497,
      "velocity": 97,
      "chip": "ym2612"
    },
    {
      "channel": 1,
      "note": 66,
      "start": 56.0037,
      "duration": 0.405,
      "velocity": 107,
      "chip": "ym2612"
    },
    {
      "channel": 2,
      "note": 70,
      "start": 56.0045,
      "duration": 0.2498,
      "velocity": 104,
      "chip": "ym2612"
    },
    {
      "channel": 3,
      "note": 66,
      "start": 56.0054,
      "duration": 0.25,
      "velocity": 104,
      "chip": "ym2612"
    },
    {
      "channel": 0,
      "note": 70,
      "start": 56.2534,
      "duration": 0.0084,
      "velocity": 97,
      "chip": "ym2612"
    },
    {
      "channel": 2,
      "note": 86,
      "start": 56.2545,
      "duration": 0.155,
      "velocity": 102,
      "chip": "ym2612"
    },
    {
      "channel": 3,
      "note": 83,
      "start": 56.2556,
      "duration": 0.1548,
      "velocity": 102,
      "chip": "ym2612"
    },
    {
      "channel": 0,
      "note": 65,
      "start": 56.262,
      "duration": 0.063,
      "velocity": 97,
      "chip": "ym2612"
    },
    {
      "channel": 0,
      "note": 70,
      "start": 56.3253,
      "duration": 0.0831,
      "velocity": 97,
      "chip": "ym2612"
    },
    {
      "channel": 0,
      "note": 71,
      "start": 56.4087,
      "duration": 0.1727,
      "velocity": 97,
      "chip": "ym2612"
    },
    {
      "channel": 1,
      "note": 65,
      "start": 56.4089,
      "duration": 0.3287,
      "velocity": 92,
      "chip": "ym2612"
    },
    {
      "channel": 2,
      "note": 68,
      "start": 56.4097,
      "duration": 0.1729,
      "velocity": 104,
      "chip": "ym2612"
    },
    {
      "channel": 3,
      "note": 65,
      "start": 56.4107,
      "duration": 0.173,
      "velocity": 104,
      "chip": "ym2612"
    },
    {
      "channel": 0,
      "note": 71,
      "start": 56.5817,
      "duration": 0.0084,
      "velocity": 97,
      "chip": "ym2612"
    },
    {
      "channel": 2,
      "note": 87,
      "start": 56.5828,
      "duration": 0.1559,
      "velocity": 92,
      "chip": "ym2612"
    },
    {
      "channel": 3,
      "note": 84,
      "start": 56.584,
      "duration": 0.1556,
      "velocity": 104,
      "chip": "ym2612"
    },
    {
      "channel": 0,
      "note": 65,
      "start": 56.5903,
      "duration": 0.0629,
      "velocity": 97,
      "chip": "ym2612"
    },
    {
      "channel": 0,
      "note": 71,
      "start": 56.6535,
      "duration": 0.0831,
      "velocity": 97,
      "chip": "ym2612"
    },
    {
      "channel": 0,
      "note": 59,
      "start": 56.7368,
      "duration": 0.0831,
      "velocity": 97,
      "chip": "ym2612"
    },
    {
      "channel": 1,
      "note": 60,
      "start": 56.7378,
      "duration": 0.1157,
      "velocity": 92,
      "chip": "ym2612"
    },
    {
      "channel": 0,
      "note": 65,
      "start": 56.8202,
      "duration": 0.083,
      "velocity": 97,
      "chip": "ym2612"
    },
    {
      "channel": 0,
      "note": 68,
      "start": 56.9034,
      "duration": 0.0832,
      "velocity": 97,
      "chip": "ym2612"
    },
    {
      "channel": 2,
      "note": 82,
      "start": 56.9038,
      "duration": 0.1543,
      "velocity": 92,
      "chip": "ym2612"
    },
    {
      "channel": 3,
      "note": 76,
      "start": 56.9041,
      "duration": 0.0866,
      "velocity": 104,
      "chip": "ym2612"
    },
    {
      "channel": 4,
      "note": 79,
      "start": 56.9043,
      "duration": 0.0865,
      "velocity": 104,
      "chip": "ym2612"
    },
    {
      "channel": 0,
      "note": 75,
      "start": 56.987,
      "duration": 0.559,
      "velocity": 97,
      "chip": "ym2612"
    },
    {
      "channel": 1,
      "note": 60,
      "start": 57.058,
      "duration": 0.1165,
      "velocity": 92,
      "chip": "ym2612"
    },
    {
      "channel": 2,
      "note": 82,
      "start": 57.1416,
      "duration": 0.25,
      "velocity": 92,
      "chip": "ym2612"
    },
    {
      "channel": 3,
      "note": 76,
      "start": 57.1418,
      "duration": 0.1162,
      "velocity": 104,
      "chip": "ym2612"
    },
    {
      "channel": 4,
      "note": 79,
      "start": 57.142,
      "duration": 0.116,
      "velocity": 104,
      "chip": "ym2612"
    },
    {
      "channel": 1,
      "note": 60,
      "start": 57.3914,
      "duration": 0.0213,
      "velocity": 92,
      "chip": "ym2612"
    },
    {
      "channel": 2,
      "note": 82,
      "start": 57.4629,
      "duration": 0.0835,
      "velocity": 92,
      "chip": "ym2612"
    },
    {
      "channel": 3,
      "note": 76,
      "start": 57.4632,
      "duration": 0.0835,
      "velocity": 104,
      "chip": "ym2612"
    },
    {
      "channel": 4,
      "note": 79,
      "start": 57.4635,
      "duration": 0.0833,
      "velocity": 104,
      "chip": "ym2612"
    },
    {
      "channel": 0,
      "note": 75,
      "start": 57.5462,
      "duration": 0.2496,
      "velocity": 97,
      "chip": "ym2612"
    },
    {
      "channel": 2,
      "note": 82,
      "start": 57.5465,
      "duration": 0.1664,
      "velocity": 92,
      "chip": "ym2612"
    },
    {
      "channel": 3,
      "note": 76,
      "start": 57.5467,
      "duration": 0.2498,
      "velocity": 104,
      "chip": "ym2612"
    },
    {
      "channel": 4,
      "note": 79,
      "start": 57.5468,
      "duration": 0.1663,
      "velocity": 104,
      "chip": "ym2612"
    },
    {
      "channel": 1,
      "note": 60,
      "start": 57.7128,
      "duration": 0.0878,
      "velocity": 92,
      "chip": "ym2612"
    },
    {
      "channel": 0,
      "note": 74,
      "start": 57.796,
      "duration": 0.0043,
      "velocity": 97,
      "chip": "ym2612"
    },
    {
      "channel": 2,
      "note": 82,
      "start": 57.7964,
      "duration": 0.0072,
      "velocity": 92,
      "chip": "ym2612"
    },
    {
      "channel": 3,
      "note": 76,
      "start": 57.7967,
      "duration": 0.0071,
      "velocity": 104,
      "chip": "ym2612"
    },
    {
      "channel": 4,
      "note": 79,
      "start": 57.7971,
      "duration": 0.0068,
      "velocity": 104,
      "chip": "ym2612"
    },
    {
      "channel": 0,
      "note": 72,
      "start": 57.8005,
      "duration": 0.0027,
      "velocity": 97,
      "chip": "ym2612"
    },
    {
      "channel": 0,
      "note": 70,
      "start": 57.8035,
      "duration": 0.0029,
      "velocity": 97,
      "chip": "ym2612"
    },
    {
      "channel": 0,
      "note": 69,
      "start": 57.8066,
      "duration": 0.0029,
      "velocity": 97,
      "chip": "ym2612"
    },
    {
      "channel": 0,
      "note": 67,
      "start": 57.8098,
      "duration": 0.0034,
      "velocity": 97,
      "chip": "ym2612"
    },
    {
      "channel": 0,
      "note": 65,
      "start": 57.8134,
      "duration": 0.0019,
      "velocity": 97,
      "chip": "ym2612"
    },
    {
      "channel": 0,
      "note": 63,
      "start": 57.8156,
      "duration": 0.0048,
      "velocity": 97,
      "chip": "ym2612"
    },
    {
      "channel": 1,
      "note": 72,
      "start": 57.8158,
      "duration": 0.0219,
      "velocity": 92,
      "chip": "ym2612"
    },
    {
      "channel": 2,
      "note": 76,
      "start": 57.8168,
      "duration": 0.0076,
      "velocity": 104,
      "chip": "ym2612"
    },
    {
      "channel": 3,
      "note": 79,
      "start": 57.817,
      "duration": 0.0074,
      "velocity": 104,
      "chip": "ym2612"
    },
    {
      "channel": 4,
      "note": 84,
      "start": 57.8173,
      "duration": 0.0072,
      "velocity": 104,
      "chip": "ym2612"
    },
    {
      "channel": 0,
      "note": 62,
      "start": 57.8206,
      "duration": 0.0034,
      "velocity": 97,
      "chip": "ym2612"
    },
    {
      "channel": 0,
      "note": 60,
      "start": 57.8241,
      "duration": 0.0133,
      "velocity": 97,
      "chip": "ym2612"
    },
    {
      "channel": 0,
      "note": 58,
      "start": 57.8377,
      "duration": 0.0498,
      "velocity": 97,
      "chip": "ym2612"
    },
    {
      "channel": 0,
      "note": 57,
      "start": 57.8877,
      "duration": 0.0044,
      "velocity": 97,
      "chip": "ym2612"
    },
    {
      "channel": 1,
      "note": 72,
      "start": 57.888,
      "duration": 0.0124,
      "velocity": 92,
      "chip": "ym2612"
    },
    {
      "channel": 2,
      "note": 76,
      "start": 57.8883,
      "duration": 0.0065,
      "velocity": 104,
      "chip": "ym2612"
    },
    {
      "channel": 3,
      "note": 79,
      "start": 57.8886,
      "duration": 0.0064,
      "velocity": 104,
      "chip": "ym2612"
    },
    {
      "channel": 4,
      "note": 84,
      "start": 57.8889,
      "duration": 0.0062,
      "velocity": 104,
      "chip": "ym2612"
    },
    {
      "channel": 0,
      "note": 55,
      "start": 57.8923,
      "duration": 0.0021,
      "velocity": 97,
      "chip": "ym2612"
    },
    {
      "channel": 0,
      "note": 53,
      "start": 57.8946,
      "duration": 0.0056,
      "velocity": 97,
      "chip": "ym2612"
    },
    {
      "channel": 1,
      "note": 53,
      "start": 57.9173,
      "duration": 0.6169,
      "velocity": 99,
      "chip": "ym2612"
    },
    {
      "channel": 4,
      "note": 77,
      "start": 57.9188,
      "duration": 0.001,
      "velocity": 109,
      "chip": "ym2612"
    },
    {
      "channel": 4,
      "note": 77,
      "start": 57.9999,
      "duration": 0.0163,
      "velocity": 109,
      "chip": "ym2612"
    },
    {
      "channel": 0,
      "note": 81,
      "start": 58.0836,
      "duration": 0.1567,
      "velocity": 96,
      "chip": "ym2612"
    },
    {
      "channel": 2,
      "note": 72,
      "start": 58.0849,
      "duration": 0.1558,
      "velocity": 96,
      "chip": "ym2612"
    },
    {
      "channel": 3,
      "note": 77,
      "start": 58.0859,
      "duration": 0.155,
      "velocity": 96,
      "chip": "ym2612"
    },
    {
      "channel": 4,
      "note": 77,
      "start": 58.0863,
      "duration": 0.0134,
      "velocity": 109,
      "chip": "ym2612"
    },
    {
      "channel": 4,
      "note": 77,
      "start": 58.1666,
      "duration": 0.002,
      "velocity": 109,
      "chip": "ym2612"
    },
    {
      "channel": 4,
      "note": 77,
      "start": 58.1767,
      "duration": 0.014,
      "velocity": 109,
      "chip": "ym2612"
    },
    {
      "channel": 0,
      "note": 81,
      "start": 58.2405,
      "duration": 0.0166,
      "velocity": 96,
      "chip": "ym2612"
    },
    {
      "channel": 2,
      "note": 72,
      "start": 58.2409,
      "duration": 0.0165,
      "velocity": 96,
      "chip": "ym2612"
    },
    {
      "channel": 3,
      "note": 77,
      "start": 58.2411,
      "duration": 0.0163,
      "velocity": 96,
      "chip": "ym2612"
    },
    {
      "channel": 4,
      "note": 77,
      "start": 58.2423,
      "duration": 0.001,
      "velocity": 109,
      "chip": "ym2612"
    },
    {
      "channel": 4,
      "note": 77,
      "start": 58.3248,
      "duration": 0.016,
      "velocity": 109,
      "chip": "ym2612"
    },
    {
      "channel": 0,
      "note": 60,
      "start": 58.4085,
      "duration": 0.0821,
      "velocity": 75,
      "chip": "ym2612"
    },
    {
      "channel": 2,
      "note": 77,
      "start": 58.4099,
      "duration": 0.0812,
      "velocity": 75,
      "chip": "ym2612"
    },
    {
      "channel": 4,
      "note": 77,
      "start": 58.4103,
      "duration": 0.0138,
      "velocity": 109,
      "chip": "ym2612"
    },
    {
      "channel": 0,
      "note": 64,
      "start": 58.4909,
      "duration": 0.0119,
      "velocity": 75,
      "chip": "ym2612"
    },
    {
      "channel": 2,
      "note": 80,
      "start": 58.4913,
      "duration": 0.0119,
      "velocity": 75,
      "chip": "ym2612"
    },
    {
      "channel": 4,
      "note": 77,
      "start": 58.4918,
      "duration": 0.0032,
      "velocity": 109,
      "chip": "ym2612"
    },
    {
      "channel": 0,
      "note": 65,
      "start": 58.5029,
      "duration": 0.0309,
      "velocity": 96,
      "chip": "ym2612"
    },
    {
      "channel": 2,
      "note": 81,
      "start": 58.5033,
      "duration": 0.0316,
      "velocity": 96,
      "chip": "ym2612"
    },
    {
      "channel": 4,
      "note": 77,
      "start": 58.5036,
      "duration": 0.0021,
      "velocity": 109,
      "chip": "ym2612"
    },
    {
      "channel": 0,
      "note": 79,
      "start": 58.534,
      "duration": 0.2615,
      "velocity": 96,
      "chip": "ym2612"
    },
    {
      "channel": 1,
      "note": 53,
      "start": 58.5341,
      "duration": 0.5186,
      "velocity": 99,
      "chip": "ym2612"
    },
    {
      "channel": 2,
      "note": 72,
      "start": 58.5351,
      "duration": 0.2609,
      "velocity": 96,
      "chip": "ym2612"
    },
    {
      "channel": 3,
      "note": 76,
      "start": 58.5354,
      "duration": 0.2609,
      "velocity": 96,
      "chip": "ym2612"
    },
    {
      "channel": 4,
      "note": 77,
      "start": 58.5363,
      "duration": 0.001,
      "velocity": 109,
      "chip": "ym2612"
    },
    {
      "channel": 4,
      "note": 77,
      "start": 58.617,
      "duration": 0.0164,
      "velocity": 109,
      "chip": "ym2612"
    },
    {
      "channel": 4,
      "note": 77,
      "start": 58.7003,
      "duration": 0.0164,
      "velocity": 109,
      "chip": "ym2612"
    },
    {
      "channel": 4,
      "note": 77,
      "start": 58.7837,
      "duration": 0.0039,
      "velocity": 109,
      "chip": "ym2612"
    },
    {
      "channel": 0,
      "note": 77,
      "start": 58.7958,
      "duration": 0.0029,
      "velocity": 96,
      "chip": "ym2612"
    },
    {
      "channel": 2,
      "note": 70,
      "start": 58.7962,
      "duration": 0.0027,
      "velocity": 96,
      "chip": "ym2612"
    },
    {
      "channel": 3,
      "note": 74,
      "start": 58.7965,
      "duration": 0.0024,
      "velocity": 96,
      "chip": "ym2612"
    },
    {
      "channel": 4,
      "note": 77,
      "start": 58.7968,
      "duration": 0.0022,
      "velocity": 109,
      "chip": "ym2612"
    },
    {
      "channel": 0,
      "note": 60,
      "start": 58.8032,
      "duration": 0.1657,
      "velocity": 75,
      "chip": "ym2612"
    },
    {
      "channel": 2,
      "note": 77,
      "start": 58.8044,
      "duration": 0.165,
      "velocity": 75,
      "chip": "ym2612"
    },
    {
      "channel": 3,
      "note": 69,
      "start": 58.8053,
      "duration": 0.1644,
      "velocity": 75,
      "chip": "ym2612"
    },
    {
      "channel": 4,
      "note": 77,
      "start": 58.8064,
      "duration": 0.0009,
      "velocity": 109,
      "chip": "ym2612"
    },
    {
      "channel": 4,
      "note": 77,
      "start": 58.8863,
      "duration": 0.0163,
      "velocity": 109,
      "chip": "ym2612"
    },
    {
      "channel": 0,
      "note": 57,
      "start": 58.9692,
      "duration": 0.0832,
      "velocity": 75,
      "chip": "ym2612"
    },
    {
      "channel": 2,
      "note": 72,
      "start": 58.9697,
      "duration": 0.0834,
      "velocity": 75,
      "chip": "ym2612"
    },
    {
      "channel": 3,
      "note": 65,
      "start": 58.9699,
      "duration": 0.0834,
      "velocity": 75,
      "chip": "ym2612"
    },
    {
      "channel": 4,
      "note": 77,
      "start": 58.9703,
      "duration": 0.0156,
      "velocity": 109,
      "chip": "ym2612"
    },
    {
      "channel": 0,
      "note": 72,
      "start": 59.0527,
      "duration": 0.0087,
      "velocity": 75,
      "chip": "ym2612"
    },
    {
      "channel": 1,
      "note": 59,
      "start": 59.053,
      "duration": 0.0135,
      "velocity": 99,
      "chip": "ym2612"
    },
    {
      "channel": 2,
      "note": 89,
      "start": 59.0532,
      "duration": 0.0084,
      "velocity": 75,
      "chip": "ym2612"
    },
    {
      "channel": 3,
      "note": 77,
      "start": 59.0536,
      "duration": 0.0081,
      "velocity": 75,
      "chip": "ym2612"
    },
    {
      "channel": 4,
      "note": 77,
      "start": 59.054,
      "duration": 0.0037,
      "velocity": 109,
      "chip": "ym2612"
    },
    {
      "channel": 1,
      "note": 60,
      "start": 59.0668,
      "duration": 0.0057,
      "velocity": 99,
      "chip": "ym2612"
    },
    {
      "channel": 4,
      "note": 77,
      "start": 59.0672,
      "duration": 0.0022,
      "velocity": 109,
      "chip": "ym2612"
    },
    {
      "channel": 1,
      "note": 65,
      "start": 59.0727,
      "duration": 0.1671,
      "velocity": 99,
      "chip": "ym2612"
    },
    {
      "channel": 4,
      "note": 77,
      "start": 59.0739,
      "duration": 0.0008,
      "velocity": 109,
      "chip": "ym2612"
    },
    {
      "channel": 4,
      "note": 77,
      "start": 59.1558,
      "duration": 0.0163,
      "velocity": 109,
      "chip": "ym2612"
    },
    {
      "channel": 0,
      "note": 81,
      "start": 59.2397,
      "duration": 0.1568,
      "velocity": 96,
      "chip": "ym2612"
    },
    {
      "channel": 1,
      "note": 53,
      "start": 59.24,
      "duration": 0.1568,
      "velocity": 99,
      "chip": "ym2612"
    },
    {
      "channel": 2,
      "note": 72,
      "start": 59.2411,
      "duration": 0.1559,
      "velocity": 96,
      "chip": "ym2612"
    },
    {
      "channel": 3,
      "note": 77,
      "start": 59.2422,
      "duration": 0.1551,
      "velocity": 96,
      "chip": "ym2612"
    },
    {
      "channel": 4,
      "note": 77,
      "start": 59.2425,
      "duration": 0.013,
      "velocity": 109,
      "chip": "ym2612"
    },
    {
      "channel": 4,
      "note": 77,
      "start": 59.3224,
      "duration": 0.0021,
      "velocity": 109,
      "chip": "ym2612"
    },
    {
      "channel": 4,
      "note": 77,
      "start": 59.3326,
      "duration": 0.0142,
      "velocity": 109,
      "chip": "ym2612"
    },
    {
      "channel": 0,
      "note": 81,
      "start": 59.3967,
      "duration": 0.0499,
      "velocity": 96,
      "chip": "ym2612"
    },
    {
      "channel": 1,
      "note": 57,
      "start": 59.397,
      "duration": 0.2692,
      "velocity": 99,
      "chip": "ym2612"
    },
    {
      "channel": 2,
      "note": 72,
      "start": 59.3972,
      "duration": 0.0497,
      "velocity": 96,
      "chip": "ym2612"
    },
    {
      "channel": 3,
      "note": 77,
      "start": 59.3974,
      "duration": 0.0495,
      "velocity": 96,
      "chip": "ym2612"
    },
    {
      "channel": 4,
      "note": 77,
      "start": 59.3985,
      "duration": 0.0009,
      "velocity": 109,
      "chip": "ym2612"
    },
    {
      "channel": 4,
      "note": 77,
      "start": 59.481,
      "duration": 0.016,
      "velocity": 109,
      "chip": "ym2612"
    },
    {
      "channel": 4,
      "note": 77,
      "start": 59.5639,
      "duration": 0.0163,
      "velocity": 109,
      "chip": "ym2612"
    },
    {
      "channel": 0,
      "note": 81,
      "start": 59.647,
      "duration": 0.0062,
      "velocity": 96,
      "chip": "ym2612"
    },
    {
      "channel": 2,
      "note": 72,
      "start": 59.6474,
      "duration": 0.006,
      "velocity": 96,
      "chip": "ym2612"
    },
    {
      "channel": 3,
      "note": 77,
      "start": 59.6477,
      "duration": 0.0058,
      "velocity": 96,
      "chip": "ym2612"
    },
    {
      "channel": 4,
      "note": 77,
      "start": 59.6481,
      "duration": 0.0034,
      "velocity": 109,
      "chip": "ym2612"
    },
    {
      "channel": 4,
      "note": 77,
      "start": 59.6609,
      "duration": 0.0019,
      "velocity": 109,
      "chip": "ym2612"
    },
    {
      "channel": 0,
      "note": 79,
      "start": 59.6661,
      "duration": 0.2429,
      "velocity": 96,
      "chip": "ym2612"
    },
    {
      "channel": 1,
      "note": 58,
      "start": 59.6663,
      "duration": 0.243,
      "velocity": 99,
      "chip": "ym2612"
    },
    {
      "channel": 2,
      "note": 72,
      "start": 59.6665,
      "duration": 0.2431,
      "velocity": 96,
      "chip": "ym2612"
    },
    {
      "channel": 3,
      "note": 76,
      "start": 59.6668,
      "duration": 0.243,
      "velocity": 96,
      "chip": "ym2612"
    },
    {
      "channel": 4,
      "note": 77,
      "start": 59.6679,
      "duration": 0.001,
      "velocity": 109,
      "chip": "ym2612"
    },
    {
      "channel": 4,
      "note": 77,
      "start": 59.75,
      "duration": 0.0165,
      "velocity": 109,
      "chip": "ym2612"
    },
    {
      "channel": 4,
      "note": 77,
      "start": 59.8333,
      "duration": 0.0009,
      "velocity": 109,
      "chip": "ym2612"
    },
    {
      "channel": 4,
      "note": 77,
      "start": 59.8995,
      "duration": 0.002,
      "velocity": 109,
      "chip": "ym2612"
    },
    {
      "channel": 0,
      "note": 77,
      "start": 59.9092,
      "duration": 0.0165,
      "velocity": 96,
      "chip": "ym2612"
    },
    {
      "channel": 1,
      "note": 60,
      "start": 59.9095,
      "duration": 0.0841,
      "velocity": 99,
      "chip": "ym2612"
    },
    {
      "channel": 2,
      "note": 70,
      "start": 59.9097,
      "duration": 0.0162,
      "velocity": 96,
      "chip": "ym2612"
    },
    {
      "channel": 3,
      "note": 74,
      "start": 59.91,
      "duration": 0.016,
      "velocity": 96,
      "chip": "ym2612"
    },
    {
      "channel": 4,
      "note": 77,
      "start": 59.9103,
      "duration": 0.0158,
      "velocity": 109,
      "chip": "ym2612"
    },
    {
      "channel": 2,
      "note": 84,
      "start": 59.9768,
      "duration": 0.0062,
      "velocity": 96,
      "chip": "ym2612"
    },
    {
      "channel": 4,
      "note": 77,
      "start": 59.978,
      "duration": 0.001,
      "velocity": 109,
      "chip": "ym2612"
    },
    {
      "channel": 2,
      "note": 82,
      "start": 59.9832,
      "duration": 0.0048,
      "velocity": 96,
      "chip": "ym2612"
    },
    {
      "channel": 4,
      "note": 77,
      "start": 59.9836,
      "duration": 0.001,
      "velocity": 109,
      "chip": "ym2612"
    },
    {
      "channel": 2,
      "note": 81,
      "start": 59.9883,
      "duration": 0.0056,
      "velocity": 96,
      "chip": "ym2612"
    },
    {
      "channel": 4,
      "note": 77,
      "start": 59.9886,
      "duration": 0.0009,
      "velocity": 109,
      "chip": "ym2612"
    },
    {
      "channel": 1,
      "note": 67,
      "start": 59.9938,
      "duration": 0.0025,
      "velocity": 99,
      "chip": "ym2612"
    },
    {
      "channel": 2,
      "note": 79,
      "start": 59.9941,
      "duration": 0.006,
      "velocity": 96,
      "chip": "ym2612"
    },
    {
      "channel": 4,
      "note": 77,
      "start": 59.9944,
      "duration": 0.0019,
      "velocity": 109,
      "chip": "ym2612"
    },
    {
      "channel": 1,
      "note": 68,
      "start": 59.9963,
      "duration": 0.001,
      "velocity": 99,
      "chip": "ym2612"
    },
    {
      "channel": 1,
      "note": 69,
      "start": 59.9973,
      "duration": 0.0009,
      "velocity": 99,
      "chip": "ym2612"
    },
    {
      "channel": 1,
      "note": 70,
      "start": 59.9982,
      "duration": 0.0018,
      "velocity": 99,
      "chip": "ym2612"
    },
    {
      "channel": 1,
      "note": 71,
      "start": 60.0,
      "duration": 0.0012,
      "velocity": 99,
      "chip": "ym2612"
    },
    {
      "channel": 2,
      "note": 77,
      "start": 60.0003,
      "duration": 0.0056,
      "velocity": 96,
      "chip": "ym2612"
    },
    {
      "channel": 1,
      "note": 72,
      "start": 60.0012,
      "duration": 0.0009,
      "velocity": 99,
      "chip": "ym2612"
    },
    {
      "channel": 1,
      "note": 71,
      "start": 60.0021,
      "duration": 0.0018,
      "velocity": 99,
      "chip": "ym2612"
    },
    {
      "channel": 1,
      "note": 70,
      "start": 60.0039,
      "duration": 0.0018,
      "velocity": 99,
      "chip": "ym2612"
    },
    {
      "channel": 1,
      "note": 69,
      "start": 60.0057,
      "duration": 0.0014,
      "velocity": 99,
      "chip": "ym2612"
    },
    {
      "channel": 2,
      "note": 76,
      "start": 60.0059,
      "duration": 0.0059,
      "velocity": 96,
      "chip": "ym2612"
    },
    {
      "channel": 4,
      "note": 77,
      "start": 60.0063,
      "duration": 0.0019,
      "velocity": 109,
      "chip": "ym2612"
    },
    {
      "channel": 1,
      "note": 68,
      "start": 60.0071,
      "duration": 0.0018,
      "velocity": 99,
      "chip": "ym2612"
    },
    {
      "channel": 1,
      "note": 67,
      "start": 60.009,
      "duration": 0.0026,
      "velocity": 99,
      "chip": "ym2612"
    },
    {
      "channel": 1,
      "note": 65,
      "start": 60.0117,
      "duration": 0.1831,
      "velocity": 99,
      "chip": "ym2612"
    },
    {
      "channel": 2,
      "note": 75,
      "start": 60.012,
      "duration": 0.0329,
      "velocity": 96,
      "chip": "ym2612"
    },
    {
      "channel": 4,
      "note": 77,
      "start": 60.0135,
      "duration": 0.001,
      "velocity": 109,
      "chip": "ym2612"
    },
    {
      "channel": 2,
      "note": 74,
      "start": 60.0451,
      "duration": 0.0499,
      "velocity": 96,
      "chip": "ym2612"
    },
    {
      "channel": 2,
      "note": 73,
      "start": 60.0951,
      "duration": 0.0332,
      "velocity": 96,
      "chip": "ym2612"
    },
    {
      "channel": 4,
      "note": 77,
      "start": 60.0956,
      "duration": 0.016,
      "velocity": 109,
      "chip": "ym2612"
    },
    {
      "channel": 2,
      "note": 72,
      "start": 60.1284,
      "duration": 0.051,
      "velocity": 75,
      "chip": "ym2612"
    },
    {
      "channel": 0,
      "note": 81,
      "start": 60.1783,
      "duration": 0.0988,
      "velocity": 96,
      "chip": "ym2612"
    },
    {
      "channel": 2,
      "note": 72,
      "start": 60.1796,
      "duration": 0.098,
      "velocity": 75,
      "chip": "ym2612"
    },
    {
      "channel": 3,
      "note": 77,
      "start": 60.1799,
      "duration": 0.098,
      "velocity": 104,
      "chip": "ym2612"
    },
    {
      "channel": 4,
      "note": 77,
      "start": 60.1802,
      "duration": 0.0148,
      "velocity": 109,
      "chip": "ym2612"
    },
    {
      "channel": 1,
      "note": 53,
      "start": 60.2617,
      "duration": 0.0112,
      "velocity": 99,
      "chip": "ym2612"
    },
    {
      "channel": 4,
      "note": 77,
      "start": 60.262,
      "duration": 0.0021,
      "velocity": 109,
      "chip": "ym2612"
    },
    {
      "channel": 4,
      "note": 77,
      "start": 60.2719,
      "duration": 0.0019,
      "velocity": 109,
      "chip": "ym2612"
    },
    {
      "channel": 0,
      "note": 81,
      "start": 60.2773,
      "duration": 0.0167,
      "velocity": 96,
      "chip": "ym2612"
    },
    {
      "channel": 1,
      "note": 65,
      "start": 60.2775,
      "duration": 0.1832,
      "velocity": 99,
      "chip": "ym2612"
    },
    {
      "channel": 2,
      "note": 72,
      "start": 60.2779,
      "duration": 0.083,
      "velocity": 75,
      "chip": "ym2612"
    },
    {
      "channel": 3,
      "note": 77,
      "start": 60.2781,
      "duration": 0.0829,
      "velocity": 104,
      "chip": "ym2612"
    },
    {
      "channel": 4,
      "note": 77,
      "start": 60.2785,
      "duration": 0.001,
      "velocity": 109,
      "chip": "ym2612"
    },
    {
      "channel": 4,
      "note": 77,
      "start": 60.3615,
      "duration": 0.016,
      "velocity": 109,
      "chip": "ym2612"
    },
    {
      "channel": 0,
      "note": 72,
      "start": 60.4451,
      "duration": 0.0822,
      "velocity": 96,
      "chip": "ym2612"
    },
    {
      "channel": 2,
      "note": 77,
      "start": 60.4465,
      "duration": 0.0814,
      "velocity": 96,
      "chip": "ym2612"
    },
    {
      "channel": 4,
      "note": 77,
      "start": 60.4469,
      "duration": 0.0139,
      "velocity": 109,
      "chip": "ym2612"
    },
    {
      "channel": 0,
      "note": 76,
      "start": 60.5276,
      "duration": 0.0099,
      "velocity": 96,
      "chip": "ym2612"
    },
    {
      "channel": 1,
      "note": 53,
      "start": 60.5279,
      "duration": 0.011,
      "velocity": 99,
      "chip": "ym2612"
    },
    {
      "channel": 2,
      "note": 80,
      "start": 60.5281,
      "duration": 0.0096,
      "velocity": 96,
      "chip": "ym2612"
    },
    {
      "channel": 4,
      "note": 77,
      "start": 60.5284,
      "duration": 0.0019,
      "velocity": 109,
      "chip": "ym2612"
    },
    {
      "channel": 0,
      "note": 77,
      "start": 60.5376,
      "duration": 0.0062,
      "velocity": 96,
      "chip": "ym2612"
    },
    {
      "channel": 2,
      "note": 81,
      "start": 60.5379,
      "duration": 0.0071,
      "velocity": 75,
      "chip": "ym2612"
    },
    {
      "channel": 4,
      "note": 77,
      "start": 60.5382,
      "duration": 0.0017,
      "velocity": 109,
      "chip": "ym2612"
    },
    {
      "channel": 0,
      "note": 79,
      "start": 60.5439,
      "duration": 0.2597,
      "velocity": 96,
      "chip": "ym2612"
    },
    {
      "channel": 1,
      "note": 65,
      "start": 60.5441,
      "duration": 0.1824,
      "velocity": 99,
      "chip": "ym2612"
    },
    {
      "channel": 2,
      "note": 72,
      "start": 60.5451,
      "duration": 0.2587,
      "velocity": 75,
      "chip": "ym2612"
    },
    {
      "channel": 3,
      "note": 76,
      "start": 60.5454,
      "duration": 0.2588,
      "velocity": 104,
      "chip": "ym2612"
    },
    {
      "channel": 4,
      "note": 77,
      "start": 60.5458,
      "duration": 0.0009,
      "velocity": 109,
      "chip": "ym2612"
    },
    {
      "channel": 4,
      "note": 77,
      "start": 60.627,
      "duration": 0.0163,
      "velocity": 109,
      "chip": "ym2612"
    },
    {
      "channel": 4,
      "note": 77,
      "start": 60.7103,
      "duration": 0.0163,
      "velocity": 109,
      "chip": "ym2612"
    },
    {
      "channel": 1,
      "note": 53,
      "start": 60.7934,
      "duration": 0.0122,
      "velocity": 99,
      "chip": "ym2612"
    },
    {
      "channel": 4,
      "note": 77,
      "start": 60.7936,
      "duration": 0.0022,
      "velocity": 109,
      "chip": "ym2612"
    },
    {
      "channel": 0,
      "note": 77,
      "start": 60.8037,
      "duration": 0.0028,
      "velocity": 96,
      "chip": "ym2612"
    },
    {
      "channel": 2,
      "note": 70,
      "start": 60.8041,
      "duration": 0.0057,
      "velocity": 75,
      "chip": "ym2612"
    },
    {
      "channel": 3,
      "note": 74,
      "start": 60.8044,
      "duration": 0.0055,
      "velocity": 104,
      "chip": "ym2612"
    },
    {
      "channel": 4,
      "note": 77,
      "start": 60.8046,
      "duration": 0.0019,
      "velocity": 109,
      "chip": "ym2612"
    },
    {
      "channel": 1,
      "note": 65,
      "start": 60.8097,
      "duration": 0.1829,
      "velocity": 99,
      "chip": "ym2612"
    },
    {
      "channel": 4,
      "note": 77,
      "start": 60.8102,
      "duration": 0.001,
      "velocity": 109,
      "chip": "ym2612"
    },
    {
      "channel": 4,
      "note": 77,
      "start": 60.893,
      "duration": 0.0163,
      "velocity": 109,
      "chip": "ym2612"
    },
    {
      "channel": 4,
      "note": 77,
      "start": 60.9764,
      "duration": 0.0163,
      "velocity": 109,
      "chip": "ym2612"
    },
    {
      "channel": 0,
      "note": 96,
      "start": 61.0603,
      "duration": 0.0083,
      "velocity": 99,
      "chip": "ym2612"
    },
    {
      "channel": 1,
      "note": 59,
      "start": 61.0606,
      "duration": 0.0127,
      "velocity": 99,
      "chip": "ym2612"
    },
    {
      "channel": 2,
      "note": 89,
      "start": 61.0617,
      "duration": 0.0071,
      "velocity": 99,
      "chip": "ym2612"
    },
    {
      "channel": 3,
      "note": 77,
      "start": 61.0627,
      "duration": 0.0061,
      "velocity": 99,
      "chip": "ym2612"
    },
    {
      "channel": 4,
      "note": 77,
      "start": 61.063,
      "duration": 0.0021,
      "velocity": 109,
      "chip": "ym2612"
    },
    {
      "channel": 0,
      "note": 96,
      "start": 61.0732,
      "duration": 0.0049,
      "velocity": 99,
      "chip": "ym2612"
    },
    {
      "channel": 1,
      "note": 60,
      "start": 61.0734,
      "duration": 0.0049,
      "velocity": 99,
      "chip": "ym2612"
    },
    {
      "channel": 2,
      "note": 89,
      "start": 61.0737,
      "duration": 0.0048,
      "velocity": 99,
      "chip": "ym2612"
    },
    {
      "channel": 4,
      "note": 77,
      "start": 61.074,
      "duration": 0.0018,
      "velocity": 109,
      "chip": "ym2612"
    },
    {
      "channel": 1,
      "note": 65,
      "start": 61.0785,
      "duration": 0.1673,
      "velocity": 99,
      "chip": "ym2612"
    },
    {
      "channel": 4,
      "note": 77,
      "start": 61.0789,
      "duration": 0.0009,
      "velocity": 109,
      "chip": "ym2612"
    },
    {
      "channel": 0,
      "note": 96,
      "start": 61.1616,
      "duration": 0.0839,
      "velocity": 96,
      "chip": "ym2612"
    },
    {
      "channel": 2,
      "note": 89,
      "start": 61.1622,
      "duration": 0.085,
      "velocity": 75,
      "chip": "ym2612"
    },
    {
      "channel": 4,
      "note": 77,
      "start": 61.1626,
      "duration": 0.0157,
      "velocity": 109,
      "chip": "ym2612"
    },
    {
      "channel": 0,
      "note": 81,
      "start": 61.2457,
      "duration": 0.0977,
      "velocity": 96,
      "chip": "ym2612"
    },
    {
      "channel": 1,
      "note": 53,
      "start": 61.246,
      "duration": 0.0976,
      "velocity": 99,
      "chip": "ym2612"
    },
    {
      "channel": 2,
      "note": 72,
      "start": 61.2474,
      "duration": 0.0965,
      "velocity": 75,
      "chip": "ym2612"
    },
    {
      "channel": 3,
      "note": 77,
      "start": 61.2486,
      "duration": 0.0954,
      "velocity": 104,
      "chip": "ym2612"
    },
    {
      "channel": 4,
      "note": 77,
      "start": 61.249,
      "duration": 0.0125,
      "velocity": 109,
      "chip": "ym2612"
    },
    {
      "channel": 4,
      "note": 77,
      "start": 61.3283,
      "duration": 0.0019,
      "velocity": 109,
      "chip": "ym2612"
    },
    {
      "channel": 4,
      "note": 77,
      "start": 61.3383,
      "duration": 0.0018,
      "velocity": 109,
      "chip": "ym2612"
    },
    {
      "channel": 0,
      "note": 81,
      "start": 61.3436,
      "duration": 0.0498,
      "velocity": 96,
      "chip": "ym2612"
    },
    {
      "channel": 1,
      "note": 57,
      "start": 61.3438,
      "duration": 0.183,
      "velocity": 99,
      "chip": "ym2612"
    },
    {
      "channel": 2,
      "note": 72,
      "start": 61.344,
      "duration": 0.0832,
      "velocity": 75,
      "chip": "ym2612"
    },
    {
      "channel": 3,
      "note": 77,
      "start": 61.3442,
      "duration": 0.0831,
      "velocity": 104,
      "chip": "ym2612"
    },
    {
      "channel": 4,
      "note": 77,
      "start": 61.3445,
      "duration": 0.001,
      "velocity": 109,
      "chip": "ym2612"
    },
    {
      "channel": 4,
      "note": 77,
      "start": 61.4278,
      "duration": 0.016,
      "velocity": 109,
      "chip": "ym2612"
    },
    {
      "channel": 4,
      "note": 77,
      "start": 61.5107,
      "duration": 0.0163,
      "velocity": 109,
      "chip": "ym2612"
    },
    {
      "channel": 0,
      "note": 81,
      "start": 61.5937,
      "duration": 0.0052,
      "velocity": 96,
      "chip": "ym2612"
    },
    {
      "channel": 1,
      "note": 57,
      "start": 61.594,
      "duration": 0.0125,
      "velocity": 99,
      "chip": "ym2612"
    },
    {
      "channel": 2,
      "note": 72,
      "start": 61.5942,
      "duration": 0.0067,
      "velocity": 75,
      "chip": "ym2612"
    },
    {
      "channel": 3,
      "note": 77,
      "start": 61.5946,
      "duration": 0.0064,
      "velocity": 104,
      "chip": "ym2612"
    },
    {
      "channel": 4,
      "note": 77,
      "start": 61.5949,
      "duration": 0.0021,
      "velocity": 109,
      "chip": "ym2612"
    },
    {
      "channel": 4,
      "note": 77,
      "start": 61.6057,
      "duration": 0.0017,
      "velocity": 109,
      "chip": "ym2612"
    },
    {
      "channel": 0,
      "note": 79,
      "start": 61.6104,
      "duration": 0.2602,
      "velocity": 96,
      "chip": "ym2612"
    },
    {
      "channel": 1,
      "note": 58,
      "start": 61.6106,
      "duration": 0.183,
      "velocity": 99,
      "chip": "ym2612"
    },
    {
      "channel": 2,
      "note": 72,
      "start": 61.6109,
      "duration": 0.2602,
      "velocity": 75,
      "chip": "ym2612"
    },
    {
      "channel": 3,
      "note": 76,
      "start": 61.611,
      "duration": 0.2603,
      "velocity": 104,
      "chip": "ym2612"
    },
    {
      "channel": 4,
      "note": 77,
      "start": 61.6114,
      "duration": 0.001,
      "velocity": 109,
      "chip": "ym2612"
    },
    {
      "channel": 4,
      "note": 77,
      "start": 61.6941,
      "duration": 0.0163,
      "velocity": 109,
      "chip": "ym2612"
    },
    {
      "channel": 4,
      "note": 77,
      "start": 61.7774,
      "duration": 0.0164,
      "velocity": 109,
      "chip": "ym2612"
    },
    {
      "channel": 1,
      "note": 58,
      "start": 61.8605,
      "duration": 0.0103,
      "velocity": 99,
      "chip": "ym2612"
    },
    {
      "channel": 4,
      "note": 77,
      "start": 61.8609,
      "duration": 0.0021,
      "velocity": 109,
      "chip": "ym2612"
    },
    {
      "channel": 0,
      "note": 77,
      "start": 61.8707,
      "duration": 0.0028,
      "velocity": 96,
      "chip": "ym2612"
    },
    {
      "channel": 1,
      "note": 60,
      "start": 61.871,
      "duration": 0.1795,
      "velocity": 99,
      "chip": "ym2612"
    },
    {
      "channel": 2,
      "note": 70,
      "start": 61.8713,
      "duration": 0.0058,
      "velocity": 75,
      "chip": "ym2612"
    },
    {
      "channel": 3,
      "note": 74,
      "start": 61.8715,
      "duration": 0.0057,
      "velocity": 104,
      "chip": "ym2612"
    },
    {
      "channel": 4,
      "note": 77,
      "start": 61.8718,
      "duration": 0.002,
      "velocity": 109,
      "chip": "ym2612"
    },
    {
      "channel": 4,
      "note": 77,
      "start": 61.8776,
      "duration": 0.001,
      "velocity": 109,
      "chip": "ym2612"
    },
    {
      "channel": 4,
      "note": 77,
      "start": 61.9605,
      "duration": 0.0163,
      "velocity": 109,
      "chip": "ym2612"
    },
    {
      "channel": 4,
      "note": 77,
      "start": 62.0437,
      "duration": 0.001,
      "velocity": 109,
      "chip": "ym2612"
    },
    {
      "channel": 0,
      "note": 76,
      "start": 62.0503,
      "duration": 0.0101,
      "velocity": 96,
      "chip": "ym2612"
    },
    {
      "channel": 1,
      "note": 60,
      "start": 62.0505,
      "duration": 0.0101,
      "velocity": 99,
      "chip": "ym2612"
    },
    {
      "channel": 4,
      "note": 77,
      "start": 62.0509,
      "duration": 0.0018,
      "velocity": 109,
      "chip": "ym2612"
    },
    {
      "channel": 0,
      "note": 77,
      "start": 62.0606,
      "duration": 0.0057,
      "velocity": 104,
      "chip": "ym2612"
    },
    {
      "channel": 1,
      "note": 60,
      "start": 62.0608,
      "duration": 0.0063,
      "velocity": 94,
      "chip": "ym2612"
    },
    {
      "channel": 4,
      "note": 77,
      "start": 62.0612,
      "duration": 0.0018,
      "velocity": 109,
      "chip": "ym2612"
    },
    {
      "channel": 0,
      "note": 70,
      "start": 62.0664,
      "duration": 0.166,
      "velocity": 104,
      "chip": "ym2612"
    },
    {
      "channel": 1,
      "note": 58,
      "start": 62.0673,
      "duration": 0.5373,
      "velocity": 94,
      "chip": "ym2612"
    },
    {
      "channel": 2,
      "note": 77,
      "start": 62.0683,
      "duration": 0.5364,
      "velocity": 92,
      "chip": "ym2612"
    },
    {
      "channel": 3,
      "note": 74,
      "start": 62.0695,
      "duration": 0.5354,
      "velocity": 99,
      "chip": "ym2612"
    },
    {
      "channel": 4,
      "note": 82,
      "start": 62.0708,
      "duration": 0.5344,
      "velocity": 99,
      "chip": "ym2612"
    },
    {
      "channel": 0,
      "note": 77,
      "start": 62.2327,
      "duration": 0.0832,
      "velocity": 104,
      "chip": "ym2612"
    },
    {
      "channel": 0,
      "note": 76,
      "start": 62.3161,
      "duration": 0.0071,
      "velocity": 104,
      "chip": "ym2612"
    },
    {
      "channel": 0,
      "note": 77,
      "start": 62.335,
      "duration": 0.0829,
      "velocity": 104,
      "chip": "ym2612"
    },
    {
      "channel": 0,
      "note": 72,
      "start": 62.5849,
      "duration": 0.0129,
      "velocity": 104,
      "chip": "ym2612"
    },
    {
      "channel": 0,
      "note": 70,
      "start": 62.5979,
      "duration": 0.0066,
      "velocity": 104,
      "chip": "ym2612"
    },
    {
      "channel": 0,
      "note": 70,
      "start": 62.6045,
      "duration": 0.534,
      "velocity": 104,
      "chip": "ym2612"
    },
    {
      "channel": 2,
      "note": 77,
      "start": 62.6047,
      "duration": 0.1667,
      "velocity": 92,
      "chip": "ym2612"
    },
    {
      "channel": 3,
      "note": 74,
      "start": 62.6049,
      "duration": 0.1679,
      "velocity": 104,
      "chip": "ym2612"
    },
    {
      "channel": 4,
      "note": 82,
      "start": 62.6051,
      "duration": 0.1691,
      "velocity": 104,
      "chip": "ym2612"
    },
    {
      "channel": 1,
      "note": 70,
      "start": 62.7714,
      "duration": 0.0831,
      "velocity": 94,
      "chip": "ym2612"
    },
    {
      "channel": 2,
      "note": 77,
      "start": 62.7716,
      "duration": 0.0953,
      "velocity": 92,
      "chip": "ym2612"
    },
    {
      "channel": 3,
      "note": 74,
      "start": 62.7731,
      "duration": 0.0939,
      "velocity": 104,
      "chip": "ym2612"
    },
    {
      "channel": 4,
      "note": 82,
      "start": 62.7745,
      "duration": 0.0927,
      "velocity": 104,
      "chip": "ym2612"
    },
    {
      "channel": 1,
      "note": 58,
      "start": 62.8546,
      "duration": 0.0071,
      "velocity": 94,
      "chip": "ym2612"
    },
    {
      "channel": 1,
      "note": 58,
      "start": 62.8716,
      "duration": 0.0834,
      "velocity": 94,
      "chip": "ym2612"
    },
    {
      "channel": 2,
      "note": 77,
      "start": 62.8719,
      "duration": 0.0832,
      "velocity": 92,
      "chip": "ym2612"
    },
    {
      "channel": 3,
      "note": 74,
      "start": 62.8722,
      "duration": 0.0831,
      "velocity": 104,
      "chip": "ym2612"
    },
    {
      "channel": 4,
      "note": 82,
      "start": 62.8724,
      "duration": 0.0831,
      "velocity": 104,
      "chip": "ym2612"
    },
    {
      "channel": 1,
      "note": 58,
      "start": 63.1218,
      "duration": 0.0081,
      "velocity": 94,
      "chip": "ym2612"
    },
    {
      "channel": 2,
      "note": 77,
      "start": 63.1221,
      "duration": 0.0079,
      "velocity": 92,
      "chip": "ym2612"
    },
    {
      "channel": 3,
      "note": 74,
      "start": 63.1224,
      "duration": 0.0076,
      "velocity": 104,
      "chip": "ym2612"
    },
    {
      "channel": 4,
      "note": 82,
      "start": 63.1227,
      "duration": 0.0076,
      "velocity": 104,
      "chip": "ym2612"
    },
    {
      "channel": 0,
      "note": 72,
      "start": 63.1388,
      "duration": 0.1667,
      "velocity": 104,
      "chip": "ym2612"
    },
    {
      "channel": 1,
      "note": 60,
      "start": 63.139,
      "duration": 0.5383,
      "velocity": 94,
      "chip": "ym2612"
    },
    {
      "channel": 2,
      "note": 77,
      "start": 63.1392,
      "duration": 0.5383,
      "velocity": 92,
      "chip": "ym2612"
    },
    {
      "channel": 3,
      "note": 74,
      "start": 63.1404,
      "duration": 0.5373,
      "velocity": 99,
      "chip": "ym2612"
    },
    {
      "channel": 4,
      "note": 82,
      "start": 63.1415,
      "duration": 0.5363,
      "velocity": 99,
      "chip": "ym2612"
    },
    {
      "channel": 0,
      "note": 79,
      "start": 63.3057,
      "duration": 0.0831,
      "velocity": 104,
      "chip": "ym2612"
    },
    {
      "channel": 0,
      "note": 78,
      "start": 63.3891,
      "duration": 0.0073,
      "velocity": 104,
      "chip": "ym2612"
    },
    {
      "channel": 0,
      "note": 79,
      "start": 63.4083,
      "duration": 0.0829,
      "velocity": 104,
      "chip": "ym2612"
    },
    {
      "channel": 0,
      "note": 74,
      "start": 63.6581,
      "duration": 0.0126,
      "velocity": 104,
      "chip": "ym2612"
    },
    {
      "channel": 0,
      "note": 72,
      "start": 63.6709,
      "duration": 0.0063,
      "velocity": 104,
      "chip": "ym2612"
    },
    {
      "channel": 0,
      "note": 72,
      "start": 63.6773,
      "duration": 0.5296,
      "velocity": 104,
      "chip": "ym2612"
    },
    {
      "channel": 2,
      "note": 77,
      "start": 63.6775,
      "duration": 0.1665,
      "velocity": 92,
      "chip": "ym2612"
    },
    {
      "channel": 3,
      "note": 74,
      "start": 63.6776,
      "duration": 0.1678,
      "velocity": 104,
      "chip": "ym2612"
    },
    {
      "channel": 4,
      "note": 82,
      "start": 63.6779,
      "duration": 0.169,
      "velocity": 104,
      "chip": "ym2612"
    },
    {
      "channel": 1,
      "note": 72,
      "start": 63.844,
      "duration": 0.0832,
      "velocity": 94,
      "chip": "ym2612"
    },
    {
      "channel": 2,
      "note": 77,
      "start": 63.8442,
      "duration": 0.1027,
      "velocity": 92,
      "chip": "ym2612"
    },
    {
      "channel": 3,
      "note": 74,
      "start": 63.8457,
      "duration": 0.095,
      "velocity": 104,
      "chip": "ym2612"
    },
    {
      "channel": 4,
      "note": 82,
      "start": 63.8471,
      "duration": 0.0936,
      "velocity": 104,
      "chip": "ym2612"
    },
    {
      "channel": 1,
      "note": 60,
      "start": 63.9273,
      "duration": 0.0193,
      "velocity": 94,
      "chip": "ym2612"
    },
    {
      "channel": 1,
      "note": 67,
      "start": 63.9468,
      "duration": 0.0832,
      "velocity": 94,
      "chip": "ym2612"
    },
    {
      "channel": 2,
      "note": 77,
      "start": 63.9471,
      "duration": 0.0833,
      "velocity": 92,
      "chip": "ym2612"
    },
    {
      "channel": 3,
      "note": 74,
      "start": 63.9472,
      "duration": 0.0833,
      "velocity": 104,
      "chip": "ym2612"
    },
    {
      "channel": 4,
      "note": 82,
      "start": 63.9475,
      "duration": 0.0832,
      "velocity": 104,
      "chip": "ym2612"
    },
    {
      "channel": 1,
      "note": 65,
      "start": 64.0302,
      "duration": 0.0831,
      "velocity": 94,
      "chip": "ym2612"
    },
    {
      "channel": 1,
      "note": 64,
      "start": 64.1135,
      "duration": 0.0831,
      "velocity": 94,
      "chip": "ym2612"
    },
    {
      "channel": 1,
      "note": 60,
      "start": 64.1968,
      "duration": 0.0198,
      "velocity": 94,
      "chip": "ym2612"
    },
    {
      "channel": 2,
      "note": 77,
      "start": 64.1971,
      "duration": 0.0079,
      "velocity": 92,
      "chip": "ym2612"
    },
    {
      "channel": 3,
      "note": 74,
      "start": 64.1975,
      "duration": 0.0077,
      "velocity": 104,
      "chip": "ym2612"
    },
    {
      "channel": 4,
      "note": 82,
      "start": 64.1977,
      "duration": 0.0075,
      "velocity": 104,
      "chip": "ym2612"
    },
    {
      "channel": 0,
      "note": 71,
      "start": 64.2069,
      "duration": 0.002,
      "velocity": 104,
      "chip": "ym2612"
    },
    {
      "channel": 0,
      "note": 70,
      "start": 64.2089,
      "duration": 0.0009,
      "velocity": 104,
      "chip": "ym2612"
    },
    {
      "channel": 0,
      "note": 69,
      "start": 64.2098,
      "duration": 0.0011,
      "velocity": 104,
      "chip": "ym2612"
    },
    {
      "channel": 0,
      "note": 68,
      "start": 64.2109,
      "duration": 0.0019,
      "velocity": 104,
      "chip": "ym2612"
    },
    {
      "channel": 0,
      "note": 67,
      "start": 64.2128,
      "duration": 0.0009,
      "velocity": 104,
      "chip": "ym2612"
    },
    {
      "channel": 0,
      "note": 66,
      "start": 64.2137,
      "duration": 0.0027,
      "velocity": 104,
      "chip": "ym2612"
    },
    {
      "channel": 0,
      "note": 70,
      "start": 64.2166,
      "duration": 0.1669,
      "velocity": 104,
      "chip": "ym2612"
    },
    {
      "channel": 1,
      "note": 58,
      "start": 64.2168,
      "duration": 0.5391,
      "velocity": 94,
      "chip": "ym2612"
    },
    {
      "channel": 2,
      "note": 77,
      "start": 64.217,
      "duration": 0.5391,
      "velocity": 92,
      "chip": "ym2612"
    },
    {
      "channel": 3,
      "note": 74,
      "start": 64.2182,
      "duration": 0.538,
      "velocity": 99,
      "chip": "ym2612"
    },
    {
      "channel": 4,
      "note": 82,
      "start": 64.2196,
      "duration": 0.5368,
      "velocity": 99,
      "chip": "ym2612"
    },
    {
      "channel": 0,
      "note": 77,
      "start": 64.3838,
      "duration": 0.0831,
      "velocity": 104,
      "chip": "ym2612"
    },
    {
      "channel": 0,
      "note": 76,
      "start": 64.4671,
      "duration": 0.0074,
      "velocity": 104,
      "chip": "ym2612"
    },
    {
      "channel": 0,
      "note": 77,
      "start": 64.4864,
      "duration": 0.0828,
      "velocity": 104,
      "chip": "ym2612"
    },
    {
      "channel": 0,
      "note": 72,
      "start": 64.7362,
      "duration": 0.0131,
      "velocity": 104,
      "chip": "ym2612"
    },
    {
      "channel": 0,
      "note": 70,
      "start": 64.7494,
      "duration": 0.0064,
      "velocity": 104,
      "chip": "ym2612"
    },
    {
      "channel": 0,
      "note": 70,
      "start": 64.7558,
      "duration": 0.5349,
      "velocity": 96,
      "chip": "ym2612"
    },
    {
      "channel": 2,
      "note": 77,
      "start": 64.7561,
      "duration": 0.1667,
      "velocity": 92,
      "chip": "ym2612"
    },
    {
      "channel": 3,
      "note": 74,
      "start": 64.7562,
      "duration": 0.1679,
      "velocity": 104,
      "chip": "ym2612"
    },
    {
      "channel": 4,
      "note": 82,
      "start": 64.7563,
      "duration": 0.1693,
      "velocity": 104,
      "chip": "ym2612"
    },
    {
      "channel": 1,
      "note": 58,
      "start": 64.9227,
      "duration": 0.0832,
      "velocity": 94,
      "chip": "ym2612"
    },
    {
      "channel": 2,
      "note": 77,
      "start": 64.9229,
      "duration": 0.0956,
      "velocity": 92,
      "chip": "ym2612"
    },
    {
      "channel": 3,
      "note": 74,
      "start": 64.9244,
      "duration": 0.0943,
      "velocity": 104,
      "chip": "ym2612"
    },
    {
      "channel": 4,
      "note": 82,
      "start": 64.9258,
      "duration": 0.093,
      "velocity": 104,
      "chip": "ym2612"
    },
    {
      "channel": 1,
      "note": 70,
      "start": 65.006,
      "duration": 0.0072,
      "velocity": 94,
      "chip": "ym2612"
    },
    {
      "channel": 1,
      "note": 58,
      "start": 65.0232,
      "duration": 0.0835,
      "velocity": 94,
      "chip": "ym2612"
    },
    {
      "channel": 2,
      "note": 77,
      "start": 65.0236,
      "duration": 0.0833,
      "velocity": 92,
      "chip": "ym2612"
    },
    {
      "channel": 3,
      "note": 74,
      "start": 65.0238,
      "duration": 0.0832,
      "velocity": 104,
      "chip": "ym2612"
    },
    {
      "channel": 4,
      "note": 82,
      "start": 65.0241,
      "duration": 0.0831,
      "velocity": 104,
      "chip": "ym2612"
    },
    {
      "channel": 1,
      "note": 58,
      "start": 65.2735,
      "duration": 0.0078,
      "velocity": 94,
      "chip": "ym2612"
    },
    {
      "channel": 2,
      "note": 77,
      "start": 65.2738,
      "duration": 0.0076,
      "velocity": 92,
      "chip": "ym2612"
    },
    {
      "channel": 3,
      "note": 74,
      "start": 65.2741,
      "duration": 0.0073,
      "velocity": 104,
      "chip": "ym2612"
    },
    {
      "channel": 4,
      "note": 82,
      "start": 65.2744,
      "duration": 0.0072,
      "velocity": 104,
      "chip": "ym2612"
    },
    {
      "channel": 0,
      "note": 84,
      "start": 65.2909,
      "duration": 0.0824,
      "velocity": 96,
      "chip": "ym2612"
    },
    {
      "channel": 1,
      "note": 63,
      "start": 65.2912,
      "duration": 0.1657,
      "velocity": 94,
      "chip": "ym2612"
    },
    {
      "channel": 2,
      "note": 79,
      "start": 65.2915,
      "duration": 0.2688,
      "velocity": 92,
      "chip": "ym2612"
    },
    {
      "channel": 3,
      "note": 75,
      "start": 65.2918,
      "duration": 0.2688,
      "velocity": 104,
      "chip": "ym2612"
    },
    {
      "channel": 4,
      "note": 82,
      "start": 65.292,
      "duration": 0.2688,
      "velocity": 104,
      "chip": "ym2612"
    },
    {
      "channel": 0,
      "note": 85,
      "start": 65.3736,
      "duration": 0.083,
      "velocity": 96,
      "chip": "ym2612"
    },
    {
      "channel": 0,
      "note": 87,
      "start": 65.4568,
      "duration": 0.0832,
      "velocity": 96,
      "chip": "ym2612"
    },
    {
      "channel": 0,
      "note": 85,
      "start": 65.5403,
      "duration": 0.0077,
      "velocity": 96,
      "chip": "ym2612"
    },
    {
      "channel": 1,
      "note": 63,
      "start": 65.5405,
      "duration": 0.0136,
      "velocity": 94,
      "chip": "ym2612"
    },
    {
      "channel": 0,
      "note": 87,
      "start": 65.5481,
      "duration": 0.0059,
      "velocity": 96,
      "chip": "ym2612"
    },
    {
      "channel": 0,
      "note": 89,
      "start": 65.5541,
      "duration": 0.0057,
      "velocity": 96,
      "chip": "ym2612"
    },
    {
      "channel": 0,
      "note": 87,
      "start": 65.56,
      "duration": 0.0832,
      "velocity": 96,
      "chip": "ym2612"
    },
    {
      "channel": 1,
      "note": 61,
      "start": 65.5602,
      "duration": 0.1666,
      "velocity": 94,
      "chip": "ym2612"
    },
    {
      "channel": 2,
      "note": 79,
      "start": 65.5605,
      "duration": 0.2691,
      "velocity": 92,
      "chip": "ym2612"
    },
    {
      "channel": 3,
      "note": 75,
      "start": 65.5607,
      "duration": 0.2692,
      "velocity": 104,
      "chip": "ym2612"
    },
    {
      "channel": 4,
      "note": 82,
      "start": 65.561,
      "duration": 0.2692,
      "velocity": 104,
      "chip": "ym2612"
    },
    {
      "channel": 0,
      "note": 89,
      "start": 65.6435,
      "duration": 0.0831,
      "velocity": 96,
      "chip": "ym2612"
    },
    {
      "channel": 0,
      "note": 91,
      "start": 65.7268,
      "duration": 0.0831,
      "velocity": 96,
      "chip": "ym2612"
    },
    {
      "channel": 0,
      "note": 89,
      "start": 65.8101,
      "duration": 0.0071,
      "velocity": 96,
      "chip": "ym2612"
    },
    {
      "channel": 1,
      "note": 61,
      "start": 65.8104,
      "duration": 0.0132,
      "velocity": 94,
      "chip": "ym2612"
    },
    {
      "channel": 0,
      "note": 91,
      "start": 65.8174,
      "duration": 0.0059,
      "velocity": 96,
      "chip": "ym2612"
    },
    {
      "channel": 0,
      "note": 92,
      "start": 65.8235,
      "duration": 0.0056,
      "velocity": 96,
      "chip": "ym2612"
    },
    {
      "channel": 0,
      "note": 91,
      "start": 65.8293,
      "duration": 0.0079,
      "velocity": 96,
      "chip": "ym2612"
    },
    {
      "channel": 1,
      "note": 60,
      "start": 65.8296,
      "duration": 0.0141,
      "velocity": 94,
      "chip": "ym2612"
    },
    {
      "channel": 2,
      "note": 79,
      "start": 65.8298,
      "duration": 0.0198,
      "velocity": 92,
      "chip": "ym2612"
    },
    {
      "channel": 3,
      "note": 75,
      "start": 65.8301,
      "duration": 0.0198,
      "velocity": 104,
      "chip": "ym2612"
    },
    {
      "channel": 4,
      "note": 82,
      "start": 65.8304,
      "duration": 0.0197,
      "velocity": 104,
      "chip": "ym2612"
    },
    {
      "channel": 0,
      "note": 92,
      "start": 65.8374,
      "duration": 0.006,
      "velocity": 96,
      "chip": "ym2612"
    },
    {
      "channel": 0,
      "note": 94,
      "start": 65.8436,
      "duration": 0.0054,
      "velocity": 96,
      "chip": "ym2612"
    },
    {
      "channel": 0,
      "note": 92,
      "start": 65.8493,
      "duration": 0.0078,
      "velocity": 96,
      "chip": "ym2612"
    },
    {
      "channel": 1,
      "note": 60,
      "start": 65.8495,
      "duration": 0.0142,
      "velocity": 94,
      "chip": "ym2612"
    },
    {
      "channel": 2,
      "note": 79,
      "start": 65.8498,
      "duration": 0.02,
      "velocity": 92,
      "chip": "ym2612"
    },
    {
      "channel": 3,
      "note": 75,
      "start": 65.85,
      "duration": 0.02,
      "velocity": 104,
      "chip": "ym2612"
    },
    {
      "channel": 4,
      "note": 82,
      "start": 65.8502,
      "duration": 0.0201,
      "velocity": 104,
      "chip": "ym2612"
    },
    {
      "channel": 0,
      "note": 94,
      "start": 65.8572,
      "duration": 0.0062,
      "velocity": 96,
      "chip": "ym2612"
    },
    {
      "channel": 0,
      "note": 96,
      "start": 65.8637,
      "duration": 0.0055,
      "velocity": 96,
      "chip": "ym2612"
    },
    {
      "channel": 0,
      "note": 94,
      "start": 65.8695,
      "duration": 0.0097,
      "velocity": 96,
      "chip": "ym2612"
    },
    {
      "channel": 1,
      "note": 58,
      "start": 65.8697,
      "duration": 0.0161,
      "velocity": 94,
      "chip": "ym2612"
    },
    {
      "channel": 2,
      "note": 79,
      "start": 65.8699,
      "duration": 0.0231,
      "velocity": 104,
      "chip": "ym2612"
    },
    {
      "channel": 3,
      "note": 75,
      "start": 65.8702,
      "duration": 0.023,
      "velocity": 104,
      "chip": "ym2612"
    },
    {
      "channel": 4,
      "note": 82,
      "start": 65.8706,
      "duration": 0.0229,
      "velocity": 104,
      "chip": "ym2612"
    },
    {
      "channel": 0,
      "note": 96,
      "start": 65.8793,
      "duration": 0.0062,
      "velocity": 96,
      "chip": "ym2612"
    },
    {
      "channel": 0,
      "note": 97,
      "start": 65.8857,
      "duration": 0.0061,
      "velocity": 95,
      "chip": "ym2612"
    },
    {
      "channel": 0,
      "note": 99,
      "start": 65.892,
      "duration": 0.0038,
      "velocity": 95,
      "chip": "ym2612"
    },
    {
      "channel": 1,
      "note": 58,
      "start": 65.8922,
      "duration": 0.0166,
      "velocity": 94,
      "chip": "ym2612"
    },
    {
      "channel": 2,
      "note": 91,
      "start": 65.8932,
      "duration": 0.0042,
      "velocity": 104,
      "chip": "ym2612"
    },
    {
      "channel": 3,
      "note": 75,
      "start": 65.8934,
      "duration": 0.0252,
      "velocity": 104,
      "chip": "ym2612"
    },
    {
      "channel": 4,
      "note": 82,
      "start": 65.8937,
      "duration": 0.0251,
      "velocity": 104,
      "chip": "ym2612"
    },
    {
      "channel": 0,
      "note": 99,
      "start": 65.896,
      "duration": 0.0012,
      "velocity": 95,
      "chip": "ym2612"
    },
    {
      "channel": 0,
      "note": 98,
      "start": 65.8973,
      "duration": 0.0015,
      "velocity": 95,
      "chip": "ym2612"
    },
    {
      "channel": 2,
      "note": 89,
      "start": 65.8977,
      "duration": 0.004,
      "velocity": 104,
      "chip": "ym2612"
    },
    {
      "channel": 0,
      "note": 96,
      "start": 65.899,
      "duration": 0.0023,
      "velocity": 95,
      "chip": "ym2612"
    },
    {
      "channel": 0,
      "note": 94,
      "start": 65.9014,
      "duration": 0.0015,
      "velocity": 95,
      "chip": "ym2612"
    },
    {
      "channel": 2,
      "note": 87,
      "start": 65.9018,
      "duration": 0.0028,
      "velocity": 104,
      "chip": "ym2612"
    },
    {
      "channel": 0,
      "note": 93,
      "start": 65.9031,
      "duration": 0.0012,
      "velocity": 95,
      "chip": "ym2612"
    },
    {
      "channel": 0,
      "note": 91,
      "start": 65.9044,
      "duration": 0.0027,
      "velocity": 95,
      "chip": "ym2612"
    },
    {
      "channel": 2,
      "note": 86,
      "start": 65.9049,
      "duration": 0.0041,
      "velocity": 104,
      "chip": "ym2612"
    },
    {
      "channel": 0,
      "note": 89,
      "start": 65.9073,
      "duration": 0.0012,
      "velocity": 95,
      "chip": "ym2612"
    },
    {
      "channel": 0,
      "note": 87,
      "start": 65.9087,
      "duration": 0.0016,
      "velocity": 95,
      "chip": "ym2612"
    },
    {
      "channel": 2,
      "note": 84,
      "start": 65.9091,
      "duration": 0.0039,
      "velocity": 104,
      "chip": "ym2612"
    },
    {
      "channel": 0,
      "note": 86,
      "start": 65.9104,
      "duration": 0.0021,
      "velocity": 95,
      "chip": "ym2612"
    },
    {
      "channel": 0,
      "note": 84,
      "start": 65.9127,
      "duration": 0.0015,
      "velocity": 95,
      "chip": "ym2612"
    },
    {
      "channel": 2,
      "note": 82,
      "start": 65.9131,
      "duration": 0.0053,
      "velocity": 107,
      "chip": "ym2612"
    },
    {
      "channel": 0,
      "note": 82,
      "start": 65.9144,
      "duration": 0.002,
      "velocity": 96,
      "chip": "ym2612"
    },
    {
      "channel": 0,
      "note": 84,
      "start": 65.9165,
      "duration": 0.2487,
      "velocity": 96,
      "chip": "ym2612"
    },
    {
      "channel": 1,
      "note": 56,
      "start": 65.9175,
      "duration": 0.1144,
      "velocity": 107,
      "chip": "ym2612"
    },
    {
      "channel": 2,
      "note": 80,
      "start": 65.9186,
      "duration": 0.247,
      "velocity": 107,
      "chip": "ym2612"
    },
    {
      "channel": 0,
      "note": 92,
      "start": 66.1654,
      "duration": 0.0998,
      "velocity": 96,
      "chip": "ym2612"
    },
    {
      "channel": 2,
      "note": 87,
      "start": 66.1658,
      "duration": 0.0998,
      "velocity": 107,
      "chip": "ym2612"
    },
    {
      "channel": 0,
      "note": 87,
      "start": 66.2654,
      "duration": 0.083,
      "velocity": 96,
      "chip": "ym2612"
    },
    {
      "channel": 2,
      "note": 84,
      "start": 66.2658,
      "duration": 0.083,
      "velocity": 107,
      "chip": "ym2612"
    },
    {
      "channel": 0,
      "note": 84,
      "start": 66.3487,
      "duration": 0.0832,
      "velocity": 96,
      "chip": "ym2612"
    },
    {
      "channel": 2,
      "note": 80,
      "start": 66.349,
      "duration": 0.0837,
      "velocity": 107,
      "chip": "ym2612"
    },
    {
      "channel": 0,
      "note": 82,
      "start": 66.4322,
      "duration": 39.3346,
      "velocity": 96,
      "chip": "ym2612"
    },
    {
      "channel": 1,
      "note": 54,
      "start": 66.4326,
      "duration": 39.3342,
      "velocity": 107,
      "chip": "ym2612"
    }
  ]
}