{
  "track_name": "08 - Results (1st Rank)",
  "duration_sec": 25.62,
  "sample_rate": 44100,
  "note_count": 583,
  "unique_pitches": 30,
  "pitch_range": 84,
  "avg_note_duration": 0.2178,
  "reconstruction_stats": {
    "notes_reconstructed": 583,
    "keyon_events": 583,
    "keyoff_events": 578,
    "orphan_keyons": 5,
    "unique_pitches": 30,
    "pitch_range": 84,
    "avg_duration_sec": 0.2178
  },
  "metadata": {
    "source": "S\\SegaSonic Bros\\08 - Results (1st Rank).vgz"
  },
  "notes": [
    {
      "channel": 1,
      "note": 67,
      "start": 0.0188,
      "duration": 0.1988,
      "velocity": 106,
      "chip": "ym2612"
    },
    {
      "channel": 2,
      "note": 79,
      "start": 0.0196,
      "duration": 0.5977,
      "velocity": 100,
      "chip": "ym2612"
    },
    {
      "channel": 3,
      "note": 79,
      "start": 0.0205,
      "duration": 0.7969,
      "velocity": 105,
      "chip": "ym2612"
    },
    {
      "channel": 4,
      "note": 74,
      "start": 0.0216,
      "duration": 0.596,
      "velocity": 100,
      "chip": "ym2612"
    },
    {
      "channel": 5,
      "note": 24,
      "start": 0.0218,
      "duration": 0.1962,
      "velocity": 101,
      "chip": "ym2612"
    },
    {
      "channel": 0,
      "note": 74,
      "start": 0.2176,
      "duration": 0.1998,
      "velocity": 87,
      "chip": "ym2612"
    },
    {
      "channel": 1,
      "note": 55,
      "start": 0.2178,
      "duration": 0.1998,
      "velocity": 106,
      "chip": "ym2612"
    },
    {
      "channel": 5,
      "note": 24,
      "start": 0.2182,
      "duration": 0.1998,
      "velocity": 117,
      "chip": "ym2612"
    },
    {
      "channel": 0,
      "note": 76,
      "start": 0.4176,
      "duration": 0.1992,
      "velocity": 87,
      "chip": "ym2612"
    },
    {
      "channel": 1,
      "note": 62,
      "start": 0.4178,
      "duration": 0.1992,
      "velocity": 106,
      "chip": "ym2612"
    },
    {
      "channel": 5,
      "note": 35,
      "start": 0.4182,
      "duration": 0.2998,
      "velocity": 101,
      "chip": "ym2612"
    },
    {
      "channel": 0,
      "note": 79,
      "start": 0.617,
      "duration": 0.1998,
      "velocity": 87,
      "chip": "ym2612"
    },
    {
      "channel": 1,
      "note": 55,
      "start": 0.6173,
      "duration": 0.1998,
      "velocity": 106,
      "chip": "ym2612"
    },
    {
      "channel": 2,
      "note": 74,
      "start": 0.6175,
      "duration": 0.1,
      "velocity": 100,
      "chip": "ym2612"
    },
    {
      "channel": 4,
      "note": 71,
      "start": 0.6178,
      "duration": 0.1,
      "velocity": 100,
      "chip": "ym2612"
    },
    {
      "channel": 2,
      "note": 74,
      "start": 0.7177,
      "duration": 0.0996,
      "velocity": 100,
      "chip": "ym2612"
    },
    {
      "channel": 4,
      "note": 71,
      "start": 0.718,
      "duration": 0.0996,
      "velocity": 100,
      "chip": "ym2612"
    },
    {
      "channel": 5,
      "note": 24,
      "start": 0.7182,
      "duration": 0.1999,
      "velocity": 101,
      "chip": "ym2612"
    },
    {
      "channel": 0,
      "note": 81,
      "start": 0.817,
      "duration": 0.1004,
      "velocity": 87,
      "chip": "ym2612"
    },
    {
      "channel": 1,
      "note": 60,
      "start": 0.8173,
      "duration": 0.1003,
      "velocity": 106,
      "chip": "ym2612"
    },
    {
      "channel": 1,
      "note": 59,
      "start": 0.9177,
      "duration": 0.0999,
      "velocity": 106,
      "chip": "ym2612"
    },
    {
      "channel": 5,
      "note": 24,
      "start": 0.9183,
      "duration": 0.1001,
      "velocity": 101,
      "chip": "ym2612"
    },
    {
      "channel": 0,
      "note": 83,
      "start": 1.0176,
      "duration": 0.0992,
      "velocity": 87,
      "chip": "ym2612"
    },
    {
      "channel": 1,
      "note": 60,
      "start": 1.0178,
      "duration": 0.0992,
      "velocity": 106,
      "chip": "ym2612"
    },
    {
      "channel": 2,
      "note": 74,
      "start": 1.0181,
      "duration": 0.0992,
      "velocity": 100,
      "chip": "ym2612"
    },
    {
      "channel": 4,
      "note": 71,
      "start": 1.0183,
      "duration": 0.0993,
      "velocity": 100,
      "chip": "ym2612"
    },
    {
      "channel": 5,
      "note": 24,
      "start": 1.0185,
      "duration": 0.1995,
      "velocity": 117,
      "chip": "ym2612"
    },
    {
      "channel": 0,
      "note": 81,
      "start": 1.117,
      "duration": 0.2998,
      "velocity": 87,
      "chip": "ym2612"
    },
    {
      "channel": 1,
      "note": 62,
      "start": 1.1173,
      "duration": 0.2998,
      "velocity": 106,
      "chip": "ym2612"
    },
    {
      "channel": 2,
      "note": 74,
      "start": 1.1175,
      "duration": 0.1,
      "velocity": 100,
      "chip": "ym2612"
    },
    {
      "channel": 4,
      "note": 71,
      "start": 1.1177,
      "duration": 0.1002,
      "velocity": 100,
      "chip": "ym2612"
    },
    {
      "channel": 3,
      "note": 74,
      "start": 1.2178,
      "duration": 0.1995,
      "velocity": 105,
      "chip": "ym2612"
    },
    {
      "channel": 5,
      "note": 35,
      "start": 1.2182,
      "duration": 0.4004,
      "velocity": 101,
      "chip": "ym2612"
    },
    {
      "channel": 0,
      "note": 79,
      "start": 1.417,
      "duration": 0.2005,
      "velocity": 87,
      "chip": "ym2612"
    },
    {
      "channel": 1,
      "note": 55,
      "start": 1.4172,
      "duration": 0.2005,
      "velocity": 106,
      "chip": "ym2612"
    },
    {
      "channel": 3,
      "note": 72,
      "start": 1.4175,
      "duration": 0.2007,
      "velocity": 105,
      "chip": "ym2612"
    },
    {
      "channel": 0,
      "note": 76,
      "start": 1.6177,
      "duration": 0.2992,
      "velocity": 87,
      "chip": "ym2612"
    },
    {
      "channel": 1,
      "note": 67,
      "start": 1.6179,
      "duration": 0.1996,
      "velocity": 106,
      "chip": "ym2612"
    },
    {
      "channel": 2,
      "note": 79,
      "start": 1.6181,
      "duration": 0.5992,
      "velocity": 100,
      "chip": "ym2612"
    },
    {
      "channel": 3,
      "note": 71,
      "start": 1.6184,
      "duration": 0.7989,
      "velocity": 105,
      "chip": "ym2612"
    },
    {
      "channel": 4,
      "note": 76,
      "start": 1.6186,
      "duration": 0.599,
      "velocity": 100,
      "chip": "ym2612"
    },
    {
      "channel": 5,
      "note": 24,
      "start": 1.6188,
      "duration": 0.199,
      "velocity": 101,
      "chip": "ym2612"
    },
    {
      "channel": 1,
      "note": 55,
      "start": 1.8177,
      "duration": 0.1999,
      "velocity": 106,
      "chip": "ym2612"
    },
    {
      "channel": 5,
      "note": 24,
      "start": 1.818,
      "duration": 0.1999,
      "velocity": 117,
      "chip": "ym2612"
    },
    {
      "channel": 0,
      "note": 83,
      "start": 1.917,
      "duration": 0.1005,
      "velocity": 87,
      "chip": "ym2612"
    },
    {
      "channel": 1,
      "note": 64,
      "start": 2.0178,
      "duration": 0.1993,
      "velocity": 106,
      "chip": "ym2612"
    },
    {
      "channel": 5,
      "note": 35,
      "start": 2.0181,
      "duration": 0.2999,
      "velocity": 101,
      "chip": "ym2612"
    },
    {
      "channel": 0,
      "note": 76,
      "start": 2.217,
      "duration": 0.7998,
      "velocity": 87,
      "chip": "ym2612"
    },
    {
      "channel": 1,
      "note": 55,
      "start": 2.2173,
      "duration": 0.1996,
      "velocity": 106,
      "chip": "ym2612"
    },
    {
      "channel": 2,
      "note": 76,
      "start": 2.2175,
      "duration": 0.1,
      "velocity": 100,
      "chip": "ym2612"
    },
    {
      "channel": 4,
      "note": 71,
      "start": 2.2178,
      "duration": 0.1,
      "velocity": 100,
      "chip": "ym2612"
    },
    {
      "channel": 2,
      "note": 76,
      "start": 2.3177,
      "duration": 0.0994,
      "velocity": 100,
      "chip": "ym2612"
    },
    {
      "channel": 4,
      "note": 71,
      "start": 2.318,
      "duration": 0.0994,
      "velocity": 100,
      "chip": "ym2612"
    },
    {
      "channel": 5,
      "note": 24,
      "start": 2.3182,
      "duration": 0.1998,
      "velocity": 101,
      "chip": "ym2612"
    },
    {
      "channel": 1,
      "note": 64,
      "start": 2.4171,
      "duration": 0.1004,
      "velocity": 106,
      "chip": "ym2612"
    },
    {
      "channel": 1,
      "note": 62,
      "start": 2.5177,
      "duration": 0.0998,
      "velocity": 106,
      "chip": "ym2612"
    },
    {
      "channel": 5,
      "note": 24,
      "start": 2.5182,
      "duration": 0.1002,
      "velocity": 101,
      "chip": "ym2612"
    },
    {
      "channel": 1,
      "note": 64,
      "start": 2.6177,
      "duration": 0.0992,
      "velocity": 106,
      "chip": "ym2612"
    },
    {
      "channel": 2,
      "note": 76,
      "start": 2.6179,
      "duration": 0.0993,
      "velocity": 100,
      "chip": "ym2612"
    },
    {
      "channel": 3,
      "note": 71,
      "start": 2.6181,
      "duration": 0.1996,
      "velocity": 105,
      "chip": "ym2612"
    },
    {
      "channel": 4,
      "note": 71,
      "start": 2.6183,
      "duration": 0.099,
      "velocity": 100,
      "chip": "ym2612"
    },
    {
      "channel": 5,
      "note": 24,
      "start": 2.6186,
      "duration": 0.1994,
      "velocity": 117,
      "chip": "ym2612"
    },
    {
      "channel": 1,
      "note": 67,
      "start": 2.7171,
      "duration": 0.2999,
      "velocity": 106,
      "chip": "ym2612"
    },
    {
      "channel": 2,
      "note": 76,
      "start": 2.7173,
      "duration": 0.1002,
      "velocity": 100,
      "chip": "ym2612"
    },
    {
      "channel": 4,
      "note": 71,
      "start": 2.7176,
      "duration": 0.1003,
      "velocity": 100,
      "chip": "ym2612"
    },
    {
      "channel": 3,
      "note": 72,
      "start": 2.8178,
      "duration": 0.1994,
      "velocity": 105,
      "chip": "ym2612"
    },
    {
      "channel": 5,
      "note": 35,
      "start": 2.8182,
      "duration": 0.4003,
      "velocity": 101,
      "chip": "ym2612"
    },
    {
      "channel": 1,
      "note": 55,
      "start": 3.0171,
      "duration": 0.2005,
      "velocity": 106,
      "chip": "ym2612"
    },
    {
      "channel": 3,
      "note": 74,
      "start": 3.0174,
      "duration": 0.2007,
      "velocity": 105,
      "chip": "ym2612"
    },
    {
      "channel": 1,
      "note": 60,
      "start": 3.2178,
      "duration": 0.1999,
      "velocity": 106,
      "chip": "ym2612"
    },
    {
      "channel": 2,
      "note": 79,
      "start": 3.218,
      "duration": 0.3999,
      "velocity": 100,
      "chip": "ym2612"
    },
    {
      "channel": 3,
      "note": 76,
      "start": 3.2183,
      "duration": 0.799,
      "velocity": 105,
      "chip": "ym2612"
    },
    {
      "channel": 4,
      "note": 76,
      "start": 3.2185,
      "duration": 0.3997,
      "velocity": 100,
      "chip": "ym2612"
    },
    {
      "channel": 5,
      "note": 24,
      "start": 3.2187,
      "duration": 0.1993,
      "velocity": 101,
      "chip": "ym2612"
    },
    {
      "channel": 0,
      "note": 76,
      "start": 3.4176,
      "duration": 0.1998,
      "velocity": 87,
      "chip": "ym2612"
    },
    {
      "channel": 1,
      "note": 52,
      "start": 3.4178,
      "duration": 0.1998,
      "velocity": 106,
      "chip": "ym2612"
    },
    {
      "channel": 5,
      "note": 24,
      "start": 3.4182,
      "duration": 0.2002,
      "velocity": 117,
      "chip": "ym2612"
    },
    {
      "channel": 0,
      "note": 84,
      "start": 3.6176,
      "duration": 0.1992,
      "velocity": 87,
      "chip": "ym2612"
    },
    {
      "channel": 1,
      "note": 60,
      "start": 3.6178,
      "duration": 0.1991,
      "velocity": 106,
      "chip": "ym2612"
    },
    {
      "channel": 2,
      "note": 76,
      "start": 3.6181,
      "duration": 0.0988,
      "velocity": 100,
      "chip": "ym2612"
    },
    {
      "channel": 4,
      "note": 72,
      "start": 3.6183,
      "duration": 0.0988,
      "velocity": 100,
      "chip": "ym2612"
    },
    {
      "channel": 5,
      "note": 35,
      "start": 3.6186,
      "duration": 0.2996,
      "velocity": 101,
      "chip": "ym2612"
    },
    {
      "channel": 2,
      "note": 76,
      "start": 3.7171,
      "duration": 0.1001,
      "velocity": 100,
      "chip": "ym2612"
    },
    {
      "channel": 4,
      "note": 72,
      "start": 3.7173,
      "duration": 0.1,
      "velocity": 100,
      "chip": "ym2612"
    },
    {
      "channel": 1,
      "note": 55,
      "start": 3.8172,
      "duration": 0.1997,
      "velocity": 106,
      "chip": "ym2612"
    },
    {
      "channel": 0,
      "note": 76,
      "start": 3.9176,
      "duration": 0.3992,
      "velocity": 87,
      "chip": "ym2612"
    },
    {
      "channel": 2,
      "note": 76,
      "start": 3.9179,
      "duration": 0.0992,
      "velocity": 100,
      "chip": "ym2612"
    },
    {
      "channel": 4,
      "note": 72,
      "start": 3.9182,
      "duration": 0.0992,
      "velocity": 100,
      "chip": "ym2612"
    },
    {
      "channel": 5,
      "note": 24,
      "start": 3.9184,
      "duration": 0.1996,
      "velocity": 101,
      "chip": "ym2612"
    },
    {
      "channel": 1,
      "note": 60,
      "start": 4.0171,
      "duration": 0.1004,
      "velocity": 106,
      "chip": "ym2612"
    },
    {
      "channel": 1,
      "note": 59,
      "start": 4.1177,
      "duration": 0.0998,
      "velocity": 106,
      "chip": "ym2612"
    },
    {
      "channel": 5,
      "note": 24,
      "start": 4.1182,
      "duration": 0.1002,
      "velocity": 101,
      "chip": "ym2612"
    },
    {
      "channel": 1,
      "note": 60,
      "start": 4.2177,
      "duration": 0.0993,
      "velocity": 106,
      "chip": "ym2612"
    },
    {
      "channel": 2,
      "note": 76,
      "start": 4.2179,
      "duration": 0.0993,
      "velocity": 100,
      "chip": "ym2612"
    },
    {
      "channel": 3,
      "note": 76,
      "start": 4.2181,
      "duration": 0.1998,
      "velocity": 105,
      "chip": "ym2612"
    },
    {
      "channel": 4,
      "note": 72,
      "start": 4.2183,
      "duration": 0.0991,
      "velocity": 100,
      "chip": "ym2612"
    },
    {
      "channel": 5,
      "note": 24,
      "start": 4.2186,
      "duration": 0.1997,
      "velocity": 117,
      "chip": "ym2612"
    },
    {
      "channel": 1,
      "note": 60,
      "start": 4.3172,
      "duration": 0.2999,
      "velocity": 106,
      "chip": "ym2612"
    },
    {
      "channel": 2,
      "note": 76,
      "start": 4.3174,
      "duration": 0.1004,
      "velocity": 100,
      "chip": "ym2612"
    },
    {
      "channel": 4,
      "note": 72,
      "start": 4.3176,
      "duration": 0.1005,
      "velocity": 100,
      "chip": "ym2612"
    },
    {
      "channel": 0,
      "note": 78,
      "start": 4.4177,
      "duration": 0.1992,
      "velocity": 87,
      "chip": "ym2612"
    },
    {
      "channel": 3,
      "note": 78,
      "start": 4.418,
      "duration": 0.1993,
      "velocity": 105,
      "chip": "ym2612"
    },
    {
      "channel": 5,
      "note": 35,
      "start": 4.4184,
      "duration": 0.4002,
      "velocity": 101,
      "chip": "ym2612"
    },
    {
      "channel": 0,
      "note": 76,
      "start": 4.617,
      "duration": 0.2005,
      "velocity": 87,
      "chip": "ym2612"
    },
    {
      "channel": 1,
      "note": 52,
      "start": 4.6172,
      "duration": 0.2005,
      "velocity": 106,
      "chip": "ym2612"
    },
    {
      "channel": 3,
      "note": 79,
      "start": 4.6175,
      "duration": 0.2007,
      "velocity": 105,
      "chip": "ym2612"
    },
    {
      "channel": 0,
      "note": 74,
      "start": 4.8177,
      "duration": 0.2992,
      "velocity": 87,
      "chip": "ym2612"
    },
    {
      "channel": 1,
      "note": 62,
      "start": 4.8179,
      "duration": 0.1996,
      "velocity": 106,
      "chip": "ym2612"
    },
    {
      "channel": 2,
      "note": 79,
      "start": 4.8181,
      "duration": 0.5998,
      "velocity": 100,
      "chip": "ym2612"
    },
    {
      "channel": 3,
      "note": 74,
      "start": 4.8184,
      "duration": 0.2988,
      "velocity": 105,
      "chip": "ym2612"
    },
    {
      "channel": 4,
      "note": 69,
      "start": 4.8186,
      "duration": 0.5998,
      "velocity": 100,
      "chip": "ym2612"
    },
    {
      "channel": 5,
      "note": 24,
      "start": 4.8188,
      "duration": 0.199,
      "velocity": 101,
      "chip": "ym2612"
    },
    {
      "channel": 1,
      "note": 50,
      "start": 5.0177,
      "duration": 0.1998,
      "velocity": 106,
      "chip": "ym2612"
    },
    {
      "channel": 5,
      "note": 24,
      "start": 5.018,
      "duration": 0.1998,
      "velocity": 117,
      "chip": "ym2612"
    },
    {
      "channel": 0,
      "note": 76,
      "start": 5.117,
      "duration": 0.3004,
      "velocity": 87,
      "chip": "ym2612"
    },
    {
      "channel": 3,
      "note": 76,
      "start": 5.1173,
      "duration": 0.3008,
      "velocity": 105,
      "chip": "ym2612"
    },
    {
      "channel": 1,
      "note": 57,
      "start": 5.2177,
      "duration": 0.2,
      "velocity": 106,
      "chip": "ym2612"
    },
    {
      "channel": 5,
      "note": 35,
      "start": 5.218,
      "duration": 0.2006,
      "velocity": 101,
      "chip": "ym2612"
    },
    {
      "channel": 0,
      "note": 78,
      "start": 5.4176,
      "duration": 0.5998,
      "velocity": 87,
      "chip": "ym2612"
    },
    {
      "channel": 1,
      "note": 54,
      "start": 5.4178,
      "duration": 0.1996,
      "velocity": 106,
      "chip": "ym2612"
    },
    {
      "channel": 2,
      "note": 74,
      "start": 5.4181,
      "duration": 0.0988,
      "velocity": 100,
      "chip": "ym2612"
    },
    {
      "channel": 3,
      "note": 78,
      "start": 5.4183,
      "duration": 0.5997,
      "velocity": 105,
      "chip": "ym2612"
    },
    {
      "channel": 4,
      "note": 69,
      "start": 5.4185,
      "duration": 0.0986,
      "velocity": 100,
      "chip": "ym2612"
    },
    {
      "channel": 5,
      "note": 24,
      "start": 5.4188,
      "duration": 0.1992,
      "velocity": 101,
      "chip": "ym2612"
    },
    {
      "channel": 2,
      "note": 74,
      "start": 5.5171,
      "duration": 0.1007,
      "velocity": 100,
      "chip": "ym2612"
    },
    {
      "channel": 4,
      "note": 69,
      "start": 5.5173,
      "duration": 0.1005,
      "velocity": 100,
      "chip": "ym2612"
    },
    {
      "channel": 1,
      "note": 60,
      "start": 5.6177,
      "duration": 0.0998,
      "velocity": 106,
      "chip": "ym2612"
    },
    {
      "channel": 5,
      "note": 24,
      "start": 5.6182,
      "duration": 0.1,
      "velocity": 101,
      "chip": "ym2612"
    },
    {
      "channel": 1,
      "note": 59,
      "start": 5.7177,
      "duration": 0.0998,
      "velocity": 106,
      "chip": "ym2612"
    },
    {
      "channel": 5,
      "note": 24,
      "start": 5.7183,
      "duration": 0.0999,
      "velocity": 101,
      "chip": "ym2612"
    },
    {
      "channel": 1,
      "note": 60,
      "start": 5.8177,
      "duration": 0.0998,
      "velocity": 106,
      "chip": "ym2612"
    },
    {
      "channel": 2,
      "note": 79,
      "start": 5.8179,
      "duration": 0.1998,
      "velocity": 100,
      "chip": "ym2612"
    },
    {
      "channel": 4,
      "note": 74,
      "start": 5.8182,
      "duration": 0.2,
      "velocity": 100,
      "chip": "ym2612"
    },
    {
      "channel": 5,
      "note": 24,
      "start": 5.8184,
      "duration": 0.0994,
      "velocity": 101,
      "chip": "ym2612"
    },
    {
      "channel": 1,
      "note": 62,
      "start": 5.9177,
      "duration": 0.2998,
      "velocity": 106,
      "chip": "ym2612"
    },
    {
      "channel": 5,
      "note": 24,
      "start": 5.918,
      "duration": 0.1004,
      "velocity": 117,
      "chip": "ym2612"
    },
    {
      "channel": 0,
      "note": 74,
      "start": 6.0176,
      "duration": 0.3999,
      "velocity": 87,
      "chip": "ym2612"
    },
    {
      "channel": 2,
      "note": 78,
      "start": 6.0179,
      "duration": 0.4,
      "velocity": 100,
      "chip": "ym2612"
    },
    {
      "channel": 3,
      "note": 74,
      "start": 6.0181,
      "duration": 0.4,
      "velocity": 105,
      "chip": "ym2612"
    },
    {
      "channel": 4,
      "note": 74,
      "start": 6.0184,
      "duration": 0.4008,
      "velocity": 105,
      "chip": "ym2612"
    },
    {
      "channel": 5,
      "note": 35,
      "start": 6.0186,
      "duration": 0.1992,
      "velocity": 117,
      "chip": "ym2612"
    },
    {
      "channel": 1,
      "note": 54,
      "start": 6.2177,
      "duration": 0.2,
      "velocity": 106,
      "chip": "ym2612"
    },
    {
      "channel": 5,
      "note": 35,
      "start": 6.218,
      "duration": 0.0996,
      "velocity": 117,
      "chip": "ym2612"
    },
    {
      "channel": 5,
      "note": 35,
      "start": 6.3178,
      "duration": 0.1016,
      "velocity": 101,
      "chip": "ym2612"
    },
    {
      "channel": 1,
      "note": 67,
      "start": 6.4178,
      "duration": 0.1998,
      "velocity": 106,
      "chip": "ym2612"
    },
    {
      "channel": 2,
      "note": 79,
      "start": 6.4181,
      "duration": 0.5992,
      "velocity": 100,
      "chip": "ym2612"
    },
    {
      "channel": 3,
      "note": 79,
      "start": 6.4183,
      "duration": 0.7991,
      "velocity": 105,
      "chip": "ym2612"
    },
    {
      "channel": 4,
      "note": 71,
      "start": 6.4194,
      "duration": 0.7982,
      "velocity": 105,
      "chip": "ym2612"
    },
    {
      "channel": 5,
      "note": 24,
      "start": 6.4196,
      "duration": 0.1984,
      "velocity": 101,
      "chip": "ym2612"
    },
    {
      "channel": 0,
      "note": 74,
      "start": 6.6176,
      "duration": 0.1998,
      "velocity": 87,
      "chip": "ym2612"
    },
    {
      "channel": 1,
      "note": 55,
      "start": 6.6178,
      "duration": 0.1998,
      "velocity": 106,
      "chip": "ym2612"
    },
    {
      "channel": 5,
      "note": 24,
      "start": 6.6182,
      "duration": 0.1998,
      "velocity": 117,
      "chip": "ym2612"
    },
    {
      "channel": 0,
      "note": 76,
      "start": 6.8176,
      "duration": 0.1992,
      "velocity": 87,
      "chip": "ym2612"
    },
    {
      "channel": 1,
      "note": 62,
      "start": 6.8178,
      "duration": 0.1992,
      "velocity": 106,
      "chip": "ym2612"
    },
    {
      "channel": 5,
      "note": 35,
      "start": 6.8182,
      "duration": 0.2996,
      "velocity": 101,
      "chip": "ym2612"
    },
    {
      "channel": 0,
      "note": 79,
      "start": 7.017,
      "duration": 0.1998,
      "velocity": 87,
      "chip": "ym2612"
    },
    {
      "channel": 1,
      "note": 55,
      "start": 7.0173,
      "duration": 0.1998,
      "velocity": 106,
      "chip": "ym2612"
    },
    {
      "channel": 2,
      "note": 74,
      "start": 7.0175,
      "duration": 0.1,
      "velocity": 100,
      "chip": "ym2612"
    },
    {
      "channel": 2,
      "note": 74,
      "start": 7.1177,
      "duration": 0.0996,
      "velocity": 100,
      "chip": "ym2612"
    },
    {
      "channel": 5,
      "note": 24,
      "start": 7.118,
      "duration": 0.2,
      "velocity": 101,
      "chip": "ym2612"
    },
    {
      "channel": 0,
      "note": 81,
      "start": 7.217,
      "duration": 0.1004,
      "velocity": 87,
      "chip": "ym2612"
    },
    {
      "channel": 1,
      "note": 60,
      "start": 7.2173,
      "duration": 0.1003,
      "velocity": 106,
      "chip": "ym2612"
    },
    {
      "channel": 1,
      "note": 59,
      "start": 7.3177,
      "duration": 0.0999,
      "velocity": 106,
      "chip": "ym2612"
    },
    {
      "channel": 5,
      "note": 24,
      "start": 7.3182,
      "duration": 0.1,
      "velocity": 101,
      "chip": "ym2612"
    },
    {
      "channel": 0,
      "note": 83,
      "start": 7.4176,
      "duration": 0.0992,
      "velocity": 87,
      "chip": "ym2612"
    },
    {
      "channel": 1,
      "note": 60,
      "start": 7.4178,
      "duration": 0.0992,
      "velocity": 106,
      "chip": "ym2612"
    },
    {
      "channel": 2,
      "note": 74,
      "start": 7.4181,
      "duration": 0.0992,
      "velocity": 100,
      "chip": "ym2612"
    },
    {
      "channel": 5,
      "note": 24,
      "start": 7.4184,
      "duration": 0.2006,
      "velocity": 117,
      "chip": "ym2612"
    },
    {
      "channel": 0,
      "note": 81,
      "start": 7.517,
      "duration": 0.2998,
      "velocity": 87,
      "chip": "ym2612"
    },
    {
      "channel": 1,
      "note": 62,
      "start": 7.5173,
      "duration": 0.2998,
      "velocity": 106,
      "chip": "ym2612"
    },
    {
      "channel": 2,
      "note": 74,
      "start": 7.5175,
      "duration": 0.1009,
      "velocity": 100,
      "chip": "ym2612"
    },
    {
      "channel": 3,
      "note": 74,
      "start": 7.6187,
      "duration": 0.1986,
      "velocity": 105,
      "chip": "ym2612"
    },
    {
      "channel": 4,
      "note": 79,
      "start": 7.6189,
      "duration": 0.1986,
      "velocity": 105,
      "chip": "ym2612"
    },
    {
      "channel": 5,
      "note": 35,
      "start": 7.6191,
      "duration": 0.3995,
      "velocity": 101,
      "chip": "ym2612"
    },
    {
      "channel": 0,
      "note": 79,
      "start": 7.817,
      "duration": 0.2005,
      "velocity": 87,
      "chip": "ym2612"
    },
    {
      "channel": 1,
      "note": 55,
      "start": 7.8172,
      "duration": 0.2005,
      "velocity": 106,
      "chip": "ym2612"
    },
    {
      "channel": 3,
      "note": 72,
      "start": 7.8175,
      "duration": 0.2007,
      "velocity": 105,
      "chip": "ym2612"
    },
    {
      "channel": 4,
      "note": 79,
      "start": 7.8177,
      "duration": 0.2007,
      "velocity": 105,
      "chip": "ym2612"
    },
    {
      "channel": 0,
      "note": 76,
      "start": 8.0177,
      "duration": 0.2992,
      "velocity": 87,
      "chip": "ym2612"
    },
    {
      "channel": 1,
      "note": 67,
      "start": 8.0179,
      "duration": 0.1996,
      "velocity": 106,
      "chip": "ym2612"
    },
    {
      "channel": 2,
      "note": 79,
      "start": 8.0181,
      "duration": 0.5992,
      "velocity": 100,
      "chip": "ym2612"
    },
    {
      "channel": 3,
      "note": 71,
      "start": 8.0184,
      "duration": 0.7989,
      "velocity": 105,
      "chip": "ym2612"
    },
    {
      "channel": 4,
      "note": 76,
      "start": 8.0186,
      "duration": 0.7988,
      "velocity": 105,
      "chip": "ym2612"
    },
    {
      "channel": 5,
      "note": 24,
      "start": 8.0188,
      "duration": 0.199,
      "velocity": 101,
      "chip": "ym2612"
    },
    {
      "channel": 1,
      "note": 55,
      "start": 8.2177,
      "duration": 0.1999,
      "velocity": 106,
      "chip": "ym2612"
    },
    {
      "channel": 5,
      "note": 24,
      "start": 8.218,
      "duration": 0.1999,
      "velocity": 117,
      "chip": "ym2612"
    },
    {
      "channel": 0,
      "note": 83,
      "start": 8.317,
      "duration": 0.1005,
      "velocity": 87,
      "chip": "ym2612"
    },
    {
      "channel": 1,
      "note": 64,
      "start": 8.4178,
      "duration": 0.1993,
      "velocity": 106,
      "chip": "ym2612"
    },
    {
      "channel": 5,
      "note": 35,
      "start": 8.4181,
      "duration": 0.2997,
      "velocity": 101,
      "chip": "ym2612"
    },
    {
      "channel": 0,
      "note": 76,
      "start": 8.617,
      "duration": 0.7998,
      "velocity": 87,
      "chip": "ym2612"
    },
    {
      "channel": 1,
      "note": 55,
      "start": 8.6173,
      "duration": 0.1996,
      "velocity": 106,
      "chip": "ym2612"
    },
    {
      "channel": 2,
      "note": 76,
      "start": 8.6175,
      "duration": 0.1,
      "velocity": 100,
      "chip": "ym2612"
    },
    {
      "channel": 2,
      "note": 76,
      "start": 8.7177,
      "duration": 0.0994,
      "velocity": 100,
      "chip": "ym2612"
    },
    {
      "channel": 5,
      "note": 24,
      "start": 8.718,
      "duration": 0.1999,
      "velocity": 101,
      "chip": "ym2612"
    },
    {
      "channel": 1,
      "note": 64,
      "start": 8.8171,
      "duration": 0.1004,
      "velocity": 106,
      "chip": "ym2612"
    },
    {
      "channel": 1,
      "note": 62,
      "start": 8.9177,
      "duration": 0.0998,
      "velocity": 106,
      "chip": "ym2612"
    },
    {
      "channel": 5,
      "note": 24,
      "start": 8.9181,
      "duration": 0.1003,
      "velocity": 101,
      "chip": "ym2612"
    },
    {
      "channel": 1,
      "note": 64,
      "start": 9.0177,
      "duration": 0.0992,
      "velocity": 106,
      "chip": "ym2612"
    },
    {
      "channel": 2,
      "note": 76,
      "start": 9.0179,
      "duration": 0.0993,
      "velocity": 100,
      "chip": "ym2612"
    },
    {
      "channel": 3,
      "note": 71,
      "start": 9.0181,
      "duration": 0.1996,
      "velocity": 105,
      "chip": "ym2612"
    },
    {
      "channel": 4,
      "note": 76,
      "start": 9.0183,
      "duration": 0.1996,
      "velocity": 105,
      "chip": "ym2612"
    },
    {
      "channel": 5,
      "note": 24,
      "start": 9.0186,
      "duration": 0.1995,
      "velocity": 117,
      "chip": "ym2612"
    },
    {
      "channel": 1,
      "note": 67,
      "start": 9.1171,
      "duration": 0.2999,
      "velocity": 106,
      "chip": "ym2612"
    },
    {
      "channel": 2,
      "note": 76,
      "start": 9.1173,
      "duration": 0.1002,
      "velocity": 100,
      "chip": "ym2612"
    },
    {
      "channel": 3,
      "note": 72,
      "start": 9.2178,
      "duration": 0.1994,
      "velocity": 105,
      "chip": "ym2612"
    },
    {
      "channel": 4,
      "note": 76,
      "start": 9.2181,
      "duration": 0.1994,
      "velocity": 105,
      "chip": "ym2612"
    },
    {
      "channel": 5,
      "note": 35,
      "start": 9.2183,
      "duration": 0.4002,
      "velocity": 101,
      "chip": "ym2612"
    },
    {
      "channel": 1,
      "note": 55,
      "start": 9.4171,
      "duration": 0.2005,
      "velocity": 106,
      "chip": "ym2612"
    },
    {
      "channel": 3,
      "note": 74,
      "start": 9.4174,
      "duration": 0.2007,
      "velocity": 105,
      "chip": "ym2612"
    },
    {
      "channel": 4,
      "note": 76,
      "start": 9.4176,
      "duration": 0.2007,
      "velocity": 105,
      "chip": "ym2612"
    },
    {
      "channel": 1,
      "note": 60,
      "start": 9.6178,
      "duration": 0.1999,
      "velocity": 106,
      "chip": "ym2612"
    },
    {
      "channel": 2,
      "note": 79,
      "start": 9.618,
      "duration": 0.3999,
      "velocity": 100,
      "chip": "ym2612"
    },
    {
      "channel": 3,
      "note": 76,
      "start": 9.6183,
      "duration": 0.799,
      "velocity": 105,
      "chip": "ym2612"
    },
    {
      "channel": 4,
      "note": 72,
      "start": 9.6185,
      "duration": 0.7989,
      "velocity": 105,
      "chip": "ym2612"
    },
    {
      "channel": 5,
      "note": 24,
      "start": 9.6187,
      "duration": 0.1993,
      "velocity": 101,
      "chip": "ym2612"
    },
    {
      "channel": 0,
      "note": 76,
      "start": 9.8176,
      "duration": 0.1998,
      "velocity": 87,
      "chip": "ym2612"
    },
    {
      "channel": 1,
      "note": 52,
      "start": 9.8178,
      "duration": 0.1998,
      "velocity": 106,
      "chip": "ym2612"
    },
    {
      "channel": 5,
      "note": 24,
      "start": 9.8182,
      "duration": 0.2,
      "velocity": 117,
      "chip": "ym2612"
    },
    {
      "channel": 0,
      "note": 84,
      "start": 10.0176,
      "duration": 0.1992,
      "velocity": 87,
      "chip": "ym2612"
    },
    {
      "channel": 1,
      "note": 60,
      "start": 10.0178,
      "duration": 0.1991,
      "velocity": 106,
      "chip": "ym2612"
    },
    {
      "channel": 2,
      "note": 76,
      "start": 10.0181,
      "duration": 0.0988,
      "velocity": 100,
      "chip": "ym2612"
    },
    {
      "channel": 5,
      "note": 35,
      "start": 10.0184,
      "duration": 0.2996,
      "velocity": 101,
      "chip": "ym2612"
    },
    {
      "channel": 2,
      "note": 76,
      "start": 10.1171,
      "duration": 0.1001,
      "velocity": 100,
      "chip": "ym2612"
    },
    {
      "channel": 1,
      "note": 55,
      "start": 10.2172,
      "duration": 0.1997,
      "velocity": 106,
      "chip": "ym2612"
    },
    {
      "channel": 0,
      "note": 76,
      "start": 10.3176,
      "duration": 0.3992,
      "velocity": 87,
      "chip": "ym2612"
    },
    {
      "channel": 2,
      "note": 76,
      "start": 10.3179,
      "duration": 0.0992,
      "velocity": 100,
      "chip": "ym2612"
    },
    {
      "channel": 5,
      "note": 24,
      "start": 10.3182,
      "duration": 0.1997,
      "velocity": 101,
      "chip": "ym2612"
    },
    {
      "channel": 1,
      "note": 60,
      "start": 10.4171,
      "duration": 0.1004,
      "velocity": 106,
      "chip": "ym2612"
    },
    {
      "channel": 1,
      "note": 59,
      "start": 10.5177,
      "duration": 0.0998,
      "velocity": 106,
      "chip": "ym2612"
    },
    {
      "channel": 5,
      "note": 24,
      "start": 10.5181,
      "duration": 0.1003,
      "velocity": 101,
      "chip": "ym2612"
    },
    {
      "channel": 1,
      "note": 60,
      "start": 10.6177,
      "duration": 0.0993,
      "velocity": 106,
      "chip": "ym2612"
    },
    {
      "channel": 2,
      "note": 76,
      "start": 10.6179,
      "duration": 0.0993,
      "velocity": 100,
      "chip": "ym2612"
    },
    {
      "channel": 3,
      "note": 76,
      "start": 10.6181,
      "duration": 0.1998,
      "velocity": 105,
      "chip": "ym2612"
    },
    {
      "channel": 4,
      "note": 72,
      "start": 10.6183,
      "duration": 0.1998,
      "velocity": 105,
      "chip": "ym2612"
    },
    {
      "channel": 5,
      "note": 24,
      "start": 10.6186,
      "duration": 0.1998,
      "velocity": 117,
      "chip": "ym2612"
    },
    {
      "channel": 1,
      "note": 60,
      "start": 10.7172,
      "duration": 0.2999,
      "velocity": 106,
      "chip": "ym2612"
    },
    {
      "channel": 2,
      "note": 76,
      "start": 10.7174,
      "duration": 0.1004,
      "velocity": 100,
      "chip": "ym2612"
    },
    {
      "channel": 0,
      "note": 76,
      "start": 10.8177,
      "duration": 0.1992,
      "velocity": 87,
      "chip": "ym2612"
    },
    {
      "channel": 3,
      "note": 78,
      "start": 10.818,
      "duration": 0.1993,
      "velocity": 105,
      "chip": "ym2612"
    },
    {
      "channel": 4,
      "note": 74,
      "start": 10.8183,
      "duration": 0.1993,
      "velocity": 105,
      "chip": "ym2612"
    },
    {
      "channel": 5,
      "note": 35,
      "start": 10.8185,
      "duration": 0.4003,
      "velocity": 101,
      "chip": "ym2612"
    },
    {
      "channel": 0,
      "note": 78,
      "start": 11.017,
      "duration": 0.2005,
      "velocity": 87,
      "chip": "ym2612"
    },
    {
      "channel": 1,
      "note": 52,
      "start": 11.0172,
      "duration": 0.2005,
      "velocity": 106,
      "chip": "ym2612"
    },
    {
      "channel": 3,
      "note": 79,
      "start": 11.0175,
      "duration": 0.4003,
      "velocity": 105,
      "chip": "ym2612"
    },
    {
      "channel": 4,
      "note": 76,
      "start": 11.0177,
      "duration": 0.2009,
      "velocity": 105,
      "chip": "ym2612"
    },
    {
      "channel": 0,
      "note": 83,
      "start": 11.2177,
      "duration": 0.5992,
      "velocity": 87,
      "chip": "ym2612"
    },
    {
      "channel": 1,
      "note": 62,
      "start": 11.2179,
      "duration": 0.1996,
      "velocity": 106,
      "chip": "ym2612"
    },
    {
      "channel": 2,
      "note": 79,
      "start": 11.2181,
      "duration": 0.5992,
      "velocity": 100,
      "chip": "ym2612"
    },
    {
      "channel": 4,
      "note": 69,
      "start": 11.2188,
      "duration": 0.3992,
      "velocity": 105,
      "chip": "ym2612"
    },
    {
      "channel": 5,
      "note": 24,
      "start": 11.219,
      "duration": 0.1992,
      "velocity": 101,
      "chip": "ym2612"
    },
    {
      "channel": 1,
      "note": 50,
      "start": 11.4177,
      "duration": 0.1998,
      "velocity": 106,
      "chip": "ym2612"
    },
    {
      "channel": 3,
      "note": 74,
      "start": 11.4179,
      "duration": 0.1998,
      "velocity": 105,
      "chip": "ym2612"
    },
    {
      "channel": 5,
      "note": 24,
      "start": 11.4184,
      "duration": 0.1998,
      "velocity": 117,
      "chip": "ym2612"
    },
    {
      "channel": 1,
      "note": 57,
      "start": 11.6177,
      "duration": 0.1994,
      "velocity": 106,
      "chip": "ym2612"
    },
    {
      "channel": 3,
      "note": 76,
      "start": 11.6179,
      "duration": 0.1996,
      "velocity": 105,
      "chip": "ym2612"
    },
    {
      "channel": 4,
      "note": 72,
      "start": 11.6181,
      "duration": 0.1996,
      "velocity": 105,
      "chip": "ym2612"
    },
    {
      "channel": 5,
      "note": 35,
      "start": 11.6184,
      "duration": 0.2996,
      "velocity": 101,
      "chip": "ym2612"
    },
    {
      "channel": 0,
      "note": 84,
      "start": 11.817,
      "duration": 0.1004,
      "velocity": 87,
      "chip": "ym2612"
    },
    {
      "channel": 1,
      "note": 54,
      "start": 11.8173,
      "duration": 0.1996,
      "velocity": 106,
      "chip": "ym2612"
    },
    {
      "channel": 2,
      "note": 74,
      "start": 11.8175,
      "duration": 0.1002,
      "velocity": 100,
      "chip": "ym2612"
    },
    {
      "channel": 3,
      "note": 79,
      "start": 11.8177,
      "duration": 0.1995,
      "velocity": 105,
      "chip": "ym2612"
    },
    {
      "channel": 4,
      "note": 72,
      "start": 11.8179,
      "duration": 0.1995,
      "velocity": 105,
      "chip": "ym2612"
    },
    {
      "channel": 0,
      "note": 83,
      "start": 11.9176,
      "duration": 0.0659,
      "velocity": 87,
      "chip": "ym2612"
    },
    {
      "channel": 2,
      "note": 74,
      "start": 11.9179,
      "duration": 0.0992,
      "velocity": 100,
      "chip": "ym2612"
    },
    {
      "channel": 5,
      "note": 24,
      "start": 11.9182,
      "duration": 0.1997,
      "velocity": 101,
      "chip": "ym2612"
    },
    {
      "channel": 0,
      "note": 81,
      "start": 11.9837,
      "duration": 0.4338,
      "velocity": 87,
      "chip": "ym2612"
    },
    {
      "channel": 1,
      "note": 60,
      "start": 12.0171,
      "duration": 0.1004,
      "velocity": 106,
      "chip": "ym2612"
    },
    {
      "channel": 3,
      "note": 86,
      "start": 12.0174,
      "duration": 0.4005,
      "velocity": 105,
      "chip": "ym2612"
    },
    {
      "channel": 4,
      "note": 74,
      "start": 12.0176,
      "duration": 0.8009,
      "velocity": 105,
      "chip": "ym2612"
    },
    {
      "channel": 1,
      "note": 59,
      "start": 12.1177,
      "duration": 0.0998,
      "velocity": 106,
      "chip": "ym2612"
    },
    {
      "channel": 5,
      "note": 24,
      "start": 12.1181,
      "duration": 0.1001,
      "velocity": 101,
      "chip": "ym2612"
    },
    {
      "channel": 1,
      "note": 60,
      "start": 12.2177,
      "duration": 0.0998,
      "velocity": 106,
      "chip": "ym2612"
    },
    {
      "channel": 2,
      "note": 79,
      "start": 12.2179,
      "duration": 0.1998,
      "velocity": 100,
      "chip": "ym2612"
    },
    {
      "channel": 5,
      "note": 24,
      "start": 12.2184,
      "duration": 0.0995,
      "velocity": 101,
      "chip": "ym2612"
    },
    {
      "channel": 1,
      "note": 62,
      "start": 12.3177,
      "duration": 0.2998,
      "velocity": 106,
      "chip": "ym2612"
    },
    {
      "channel": 5,
      "note": 24,
      "start": 12.318,
      "duration": 0.1002,
      "velocity": 117,
      "chip": "ym2612"
    },
    {
      "channel": 0,
      "note": 78,
      "start": 12.4176,
      "duration": 0.3999,
      "velocity": 87,
      "chip": "ym2612"
    },
    {
      "channel": 2,
      "note": 78,
      "start": 12.4179,
      "duration": 0.4001,
      "velocity": 100,
      "chip": "ym2612"
    },
    {
      "channel": 3,
      "note": 84,
      "start": 12.4181,
      "duration": 0.1996,
      "velocity": 105,
      "chip": "ym2612"
    },
    {
      "channel": 5,
      "note": 35,
      "start": 12.4184,
      "duration": 0.0993,
      "velocity": 117,
      "chip": "ym2612"
    },
    {
      "channel": 5,
      "note": 35,
      "start": 12.5178,
      "duration": 0.1002,
      "velocity": 117,
      "chip": "ym2612"
    },
    {
      "channel": 1,
      "note": 54,
      "start": 12.6177,
      "duration": 0.2001,
      "velocity": 106,
      "chip": "ym2612"
    },
    {
      "channel": 3,
      "note": 86,
      "start": 12.6179,
      "duration": 0.0996,
      "velocity": 105,
      "chip": "ym2612"
    },
    {
      "channel": 5,
      "note": 35,
      "start": 12.6182,
      "duration": 0.0996,
      "velocity": 117,
      "chip": "ym2612"
    },
    {
      "channel": 3,
      "note": 84,
      "start": 12.7177,
      "duration": 0.1005,
      "velocity": 105,
      "chip": "ym2612"
    },
    {
      "channel": 5,
      "note": 35,
      "start": 12.718,
      "duration": 0.1007,
      "velocity": 101,
      "chip": "ym2612"
    },
    {
      "channel": 0,
      "note": 79,
      "start": 12.8177,
      "duration": 0.5998,
      "velocity": 100,
      "chip": "ym2612"
    },
    {
      "channel": 1,
      "note": 67,
      "start": 12.8179,
      "duration": 0.1996,
      "velocity": 106,
      "chip": "ym2612"
    },
    {
      "channel": 2,
      "note": 79,
      "start": 12.8182,
      "duration": 0.5998,
      "velocity": 100,
      "chip": "ym2612"
    },
    {
      "channel": 3,
      "note": 83,
      "start": 12.8184,
      "duration": 1.6006,
      "velocity": 101,
      "chip": "ym2612"
    },
    {
      "channel": 4,
      "note": 79,
      "start": 12.8187,
      "duration": 1.6007,
      "velocity": 105,
      "chip": "ym2612"
    },
    {
      "channel": 5,
      "note": 24,
      "start": 12.8189,
      "duration": 0.1989,
      "velocity": 101,
      "chip": "ym2612"
    },
    {
      "channel": 1,
      "note": 55,
      "start": 13.0177,
      "duration": 0.1998,
      "velocity": 106,
      "chip": "ym2612"
    },
    {
      "channel": 5,
      "note": 24,
      "start": 13.018,
      "duration": 0.1998,
      "velocity": 117,
      "chip": "ym2612"
    },
    {
      "channel": 1,
      "note": 62,
      "start": 13.2177,
      "duration": 0.2001,
      "velocity": 106,
      "chip": "ym2612"
    },
    {
      "channel": 5,
      "note": 35,
      "start": 13.218,
      "duration": 0.3002,
      "velocity": 101,
      "chip": "ym2612"
    },
    {
      "channel": 0,
      "note": 71,
      "start": 13.4177,
      "duration": 0.0998,
      "velocity": 100,
      "chip": "ym2612"
    },
    {
      "channel": 1,
      "note": 55,
      "start": 13.4179,
      "duration": 0.0998,
      "velocity": 106,
      "chip": "ym2612"
    },
    {
      "channel": 2,
      "note": 74,
      "start": 13.4181,
      "duration": 0.0998,
      "velocity": 100,
      "chip": "ym2612"
    },
    {
      "channel": 0,
      "note": 71,
      "start": 13.5176,
      "duration": 0.0992,
      "velocity": 100,
      "chip": "ym2612"
    },
    {
      "channel": 1,
      "note": 60,
      "start": 13.5178,
      "duration": 0.2005,
      "velocity": 106,
      "chip": "ym2612"
    },
    {
      "channel": 2,
      "note": 74,
      "start": 13.5181,
      "duration": 0.0991,
      "velocity": 100,
      "chip": "ym2612"
    },
    {
      "channel": 5,
      "note": 24,
      "start": 13.5184,
      "duration": 0.2005,
      "velocity": 101,
      "chip": "ym2612"
    },
    {
      "channel": 1,
      "note": 59,
      "start": 13.7186,
      "duration": 0.0991,
      "velocity": 106,
      "chip": "ym2612"
    },
    {
      "channel": 5,
      "note": 24,
      "start": 13.719,
      "duration": 0.0992,
      "velocity": 101,
      "chip": "ym2612"
    },
    {
      "channel": 0,
      "note": 71,
      "start": 13.8176,
      "duration": 0.0992,
      "velocity": 100,
      "chip": "ym2612"
    },
    {
      "channel": 1,
      "note": 60,
      "start": 13.8178,
      "duration": 0.0992,
      "velocity": 106,
      "chip": "ym2612"
    },
    {
      "channel": 2,
      "note": 74,
      "start": 13.8181,
      "duration": 0.0992,
      "velocity": 100,
      "chip": "ym2612"
    },
    {
      "channel": 5,
      "note": 24,
      "start": 13.8184,
      "duration": 0.1995,
      "velocity": 117,
      "chip": "ym2612"
    },
    {
      "channel": 0,
      "note": 71,
      "start": 13.917,
      "duration": 0.1004,
      "velocity": 100,
      "chip": "ym2612"
    },
    {
      "channel": 1,
      "note": 62,
      "start": 13.9173,
      "duration": 0.2996,
      "velocity": 106,
      "chip": "ym2612"
    },
    {
      "channel": 2,
      "note": 74,
      "start": 13.9175,
      "duration": 0.1001,
      "velocity": 100,
      "chip": "ym2612"
    },
    {
      "channel": 5,
      "note": 35,
      "start": 14.018,
      "duration": 0.4015,
      "velocity": 101,
      "chip": "ym2612"
    },
    {
      "channel": 1,
      "note": 55,
      "start": 14.2171,
      "duration": 0.2007,
      "velocity": 106,
      "chip": "ym2612"
    },
    {
      "channel": 0,
      "note": 76,
      "start": 14.4177,
      "duration": 0.5992,
      "velocity": 100,
      "chip": "ym2612"
    },
    {
      "channel": 1,
      "note": 67,
      "start": 14.4179,
      "duration": 0.1996,
      "velocity": 106,
      "chip": "ym2612"
    },
    {
      "channel": 2,
      "note": 79,
      "start": 14.4181,
      "duration": 0.5992,
      "velocity": 100,
      "chip": "ym2612"
    },
    {
      "channel": 5,
      "note": 24,
      "start": 14.4197,
      "duration": 0.1982,
      "velocity": 101,
      "chip": "ym2612"
    },
    {
      "channel": 1,
      "note": 55,
      "start": 14.6177,
      "duration": 0.1998,
      "velocity": 106,
      "chip": "ym2612"
    },
    {
      "channel": 5,
      "note": 24,
      "start": 14.618,
      "duration": 0.2,
      "velocity": 117,
      "chip": "ym2612"
    },
    {
      "channel": 1,
      "note": 64,
      "start": 14.8177,
      "duration": 0.1994,
      "velocity": 106,
      "chip": "ym2612"
    },
    {
      "channel": 3,
      "note": 100,
      "start": 14.8179,
      "duration": 0.099,
      "velocity": 101,
      "chip": "ym2612"
    },
    {
      "channel": 5,
      "note": 35,
      "start": 14.8182,
      "duration": 0.3004,
      "velocity": 101,
      "chip": "ym2612"
    },
    {
      "channel": 3,
      "note": 98,
      "start": 14.9171,
      "duration": 0.1004,
      "velocity": 101,
      "chip": "ym2612"
    },
    {
      "channel": 4,
      "note": 100,
      "start": 14.9173,
      "duration": 0.1004,
      "velocity": 101,
      "chip": "ym2612"
    },
    {
      "channel": 0,
      "note": 71,
      "start": 15.017,
      "duration": 0.1004,
      "velocity": 100,
      "chip": "ym2612"
    },
    {
      "channel": 1,
      "note": 55,
      "start": 15.0173,
      "duration": 0.1004,
      "velocity": 106,
      "chip": "ym2612"
    },
    {
      "channel": 2,
      "note": 76,
      "start": 15.0175,
      "duration": 0.1004,
      "velocity": 100,
      "chip": "ym2612"
    },
    {
      "channel": 3,
      "note": 100,
      "start": 15.0177,
      "duration": 0.1004,
      "velocity": 101,
      "chip": "ym2612"
    },
    {
      "channel": 4,
      "note": 98,
      "start": 15.018,
      "duration": 0.1004,
      "velocity": 101,
      "chip": "ym2612"
    },
    {
      "channel": 0,
      "note": 71,
      "start": 15.1176,
      "duration": 0.0992,
      "velocity": 100,
      "chip": "ym2612"
    },
    {
      "channel": 1,
      "note": 64,
      "start": 15.1178,
      "duration": 0.1997,
      "velocity": 106,
      "chip": "ym2612"
    },
    {
      "channel": 2,
      "note": 76,
      "start": 15.1181,
      "duration": 0.0991,
      "velocity": 100,
      "chip": "ym2612"
    },
    {
      "channel": 3,
      "note": 103,
      "start": 15.1183,
      "duration": 0.8999,
      "velocity": 101,
      "chip": "ym2612"
    },
    {
      "channel": 4,
      "note": 100,
      "start": 15.1185,
      "duration": 0.0988,
      "velocity": 101,
      "chip": "ym2612"
    },
    {
      "channel": 5,
      "note": 24,
      "start": 15.1188,
      "duration": 0.1992,
      "velocity": 101,
      "chip": "ym2612"
    },
    {
      "channel": 4,
      "note": 103,
      "start": 15.2175,
      "duration": 0.8995,
      "velocity": 101,
      "chip": "ym2612"
    },
    {
      "channel": 1,
      "note": 62,
      "start": 15.3177,
      "duration": 0.0999,
      "velocity": 106,
      "chip": "ym2612"
    },
    {
      "channel": 5,
      "note": 24,
      "start": 15.3182,
      "duration": 0.1,
      "velocity": 101,
      "chip": "ym2612"
    },
    {
      "channel": 0,
      "note": 71,
      "start": 15.4176,
      "duration": 0.0992,
      "velocity": 100,
      "chip": "ym2612"
    },
    {
      "channel": 1,
      "note": 64,
      "start": 15.4178,
      "duration": 0.0992,
      "velocity": 106,
      "chip": "ym2612"
    },
    {
      "channel": 2,
      "note": 76,
      "start": 15.4181,
      "duration": 0.0992,
      "velocity": 100,
      "chip": "ym2612"
    },
    {
      "channel": 5,
      "note": 24,
      "start": 15.4184,
      "duration": 0.1995,
      "velocity": 117,
      "chip": "ym2612"
    },
    {
      "channel": 0,
      "note": 71,
      "start": 15.517,
      "duration": 0.1004,
      "velocity": 100,
      "chip": "ym2612"
    },
    {
      "channel": 1,
      "note": 67,
      "start": 15.5173,
      "duration": 0.2996,
      "velocity": 106,
      "chip": "ym2612"
    },
    {
      "channel": 2,
      "note": 76,
      "start": 15.5175,
      "duration": 0.1001,
      "velocity": 100,
      "chip": "ym2612"
    },
    {
      "channel": 5,
      "note": 35,
      "start": 15.618,
      "duration": 0.4003,
      "velocity": 101,
      "chip": "ym2612"
    },
    {
      "channel": 1,
      "note": 55,
      "start": 15.8171,
      "duration": 0.2007,
      "velocity": 106,
      "chip": "ym2612"
    },
    {
      "channel": 0,
      "note": 76,
      "start": 16.0177,
      "duration": 0.3998,
      "velocity": 100,
      "chip": "ym2612"
    },
    {
      "channel": 1,
      "note": 60,
      "start": 16.0179,
      "duration": 0.1996,
      "velocity": 106,
      "chip": "ym2612"
    },
    {
      "channel": 2,
      "note": 79,
      "start": 16.0181,
      "duration": 0.3998,
      "velocity": 100,
      "chip": "ym2612"
    },
    {
      "channel": 5,
      "note": 24,
      "start": 16.0185,
      "duration": 0.1993,
      "velocity": 101,
      "chip": "ym2612"
    },
    {
      "channel": 1,
      "note": 52,
      "start": 16.2177,
      "duration": 0.2,
      "velocity": 106,
      "chip": "ym2612"
    },
    {
      "channel": 5,
      "note": 24,
      "start": 16.218,
      "duration": 0.2004,
      "velocity": 117,
      "chip": "ym2612"
    },
    {
      "channel": 0,
      "note": 72,
      "start": 16.4176,
      "duration": 0.0992,
      "velocity": 100,
      "chip": "ym2612"
    },
    {
      "channel": 1,
      "note": 60,
      "start": 16.4178,
      "duration": 0.1991,
      "velocity": 106,
      "chip": "ym2612"
    },
    {
      "channel": 2,
      "note": 76,
      "start": 16.4181,
      "duration": 0.099,
      "velocity": 100,
      "chip": "ym2612"
    },
    {
      "channel": 3,
      "note": 100,
      "start": 16.4183,
      "duration": 0.099,
      "velocity": 101,
      "chip": "ym2612"
    },
    {
      "channel": 5,
      "note": 35,
      "start": 16.4186,
      "duration": 0.3,
      "velocity": 101,
      "chip": "ym2612"
    },
    {
      "channel": 0,
      "note": 72,
      "start": 16.517,
      "duration": 0.0998,
      "velocity": 100,
      "chip": "ym2612"
    },
    {
      "channel": 2,
      "note": 76,
      "start": 16.5173,
      "duration": 0.1,
      "velocity": 100,
      "chip": "ym2612"
    },
    {
      "channel": 3,
      "note": 98,
      "start": 16.5175,
      "duration": 0.0998,
      "velocity": 101,
      "chip": "ym2612"
    },
    {
      "channel": 4,
      "note": 100,
      "start": 16.5177,
      "duration": 0.0998,
      "velocity": 101,
      "chip": "ym2612"
    },
    {
      "channel": 1,
      "note": 55,
      "start": 16.6172,
      "duration": 0.1005,
      "velocity": 106,
      "chip": "ym2612"
    },
    {
      "channel": 3,
      "note": 100,
      "start": 16.6175,
      "duration": 0.1006,
      "velocity": 101,
      "chip": "ym2612"
    },
    {
      "channel": 4,
      "note": 98,
      "start": 16.6177,
      "duration": 0.1006,
      "velocity": 101,
      "chip": "ym2612"
    },
    {
      "channel": 0,
      "note": 72,
      "start": 16.7176,
      "duration": 0.0992,
      "velocity": 100,
      "chip": "ym2612"
    },
    {
      "channel": 1,
      "note": 60,
      "start": 16.7178,
      "duration": 0.1997,
      "velocity": 106,
      "chip": "ym2612"
    },
    {
      "channel": 2,
      "note": 76,
      "start": 16.7181,
      "duration": 0.0991,
      "velocity": 100,
      "chip": "ym2612"
    },
    {
      "channel": 3,
      "note": 102,
      "start": 16.7183,
      "duration": 0.099,
      "velocity": 101,
      "chip": "ym2612"
    },
    {
      "channel": 4,
      "note": 100,
      "start": 16.7185,
      "duration": 0.099,
      "velocity": 101,
      "chip": "ym2612"
    },
    {
      "channel": 5,
      "note": 24,
      "start": 16.7188,
      "duration": 0.1996,
      "velocity": 101,
      "chip": "ym2612"
    },
    {
      "channel": 3,
      "note": 103,
      "start": 16.8175,
      "duration": 0.1005,
      "velocity": 101,
      "chip": "ym2612"
    },
    {
      "channel": 4,
      "note": 102,
      "start": 16.8177,
      "duration": 0.1005,
      "velocity": 101,
      "chip": "ym2612"
    },
    {
      "channel": 1,
      "note": 59,
      "start": 16.9177,
      "duration": 0.0999,
      "velocity": 106,
      "chip": "ym2612"
    },
    {
      "channel": 3,
      "note": 105,
      "start": 16.9181,
      "duration": 0.1,
      "velocity": 101,
      "chip": "ym2612"
    },
    {
      "channel": 4,
      "note": 103,
      "start": 16.9183,
      "duration": 0.0999,
      "velocity": 101,
      "chip": "ym2612"
    },
    {
      "channel": 5,
      "note": 24,
      "start": 16.9185,
      "duration": 0.0999,
      "velocity": 101,
      "chip": "ym2612"
    },
    {
      "channel": 0,
      "note": 72,
      "start": 17.0176,
      "duration": 0.0992,
      "velocity": 100,
      "chip": "ym2612"
    },
    {
      "channel": 1,
      "note": 60,
      "start": 17.0178,
      "duration": 0.0992,
      "velocity": 106,
      "chip": "ym2612"
    },
    {
      "channel": 2,
      "note": 76,
      "start": 17.0181,
      "duration": 0.0992,
      "velocity": 100,
      "chip": "ym2612"
    },
    {
      "channel": 4,
      "note": 105,
      "start": 17.0184,
      "duration": 0.0993,
      "velocity": 101,
      "chip": "ym2612"
    },
    {
      "channel": 5,
      "note": 24,
      "start": 17.0186,
      "duration": 0.1994,
      "velocity": 117,
      "chip": "ym2612"
    },
    {
      "channel": 0,
      "note": 72,
      "start": 17.117,
      "duration": 0.1004,
      "velocity": 100,
      "chip": "ym2612"
    },
    {
      "channel": 1,
      "note": 60,
      "start": 17.1173,
      "duration": 0.2996,
      "velocity": 106,
      "chip": "ym2612"
    },
    {
      "channel": 2,
      "note": 76,
      "start": 17.1175,
      "duration": 0.1001,
      "velocity": 100,
      "chip": "ym2612"
    },
    {
      "channel": 3,
      "note": 103,
      "start": 17.1177,
      "duration": 0.2994,
      "velocity": 101,
      "chip": "ym2612"
    },
    {
      "channel": 4,
      "note": 103,
      "start": 17.218,
      "duration": 0.2992,
      "velocity": 101,
      "chip": "ym2612"
    },
    {
      "channel": 5,
      "note": 35,
      "start": 17.2182,
      "duration": 0.4004,
      "velocity": 101,
      "chip": "ym2612"
    },
    {
      "channel": 1,
      "note": 52,
      "start": 17.4171,
      "duration": 0.2007,
      "velocity": 106,
      "chip": "ym2612"
    },
    {
      "channel": 3,
      "note": 103,
      "start": 17.4173,
      "duration": 0.0996,
      "velocity": 101,
      "chip": "ym2612"
    },
    {
      "channel": 3,
      "note": 105,
      "start": 17.5171,
      "duration": 0.101,
      "velocity": 101,
      "chip": "ym2612"
    },
    {
      "channel": 4,
      "note": 103,
      "start": 17.5173,
      "duration": 0.1011,
      "velocity": 101,
      "chip": "ym2612"
    },
    {
      "channel": 0,
      "note": 69,
      "start": 17.6177,
      "duration": 0.5998,
      "velocity": 100,
      "chip": "ym2612"
    },
    {
      "channel": 1,
      "note": 62,
      "start": 17.6179,
      "duration": 0.1996,
      "velocity": 106,
      "chip": "ym2612"
    },
    {
      "channel": 2,
      "note": 79,
      "start": 17.6181,
      "duration": 0.5998,
      "velocity": 100,
      "chip": "ym2612"
    },
    {
      "channel": 3,
      "note": 107,
      "start": 17.6183,
      "duration": 0.5998,
      "velocity": 101,
      "chip": "ym2612"
    },
    {
      "channel": 4,
      "note": 105,
      "start": 17.6186,
      "duration": 0.0984,
      "velocity": 101,
      "chip": "ym2612"
    },
    {
      "channel": 5,
      "note": 24,
      "start": 17.6188,
      "duration": 0.199,
      "velocity": 101,
      "chip": "ym2612"
    },
    {
      "channel": 4,
      "note": 107,
      "start": 17.7172,
      "duration": 0.6006,
      "velocity": 101,
      "chip": "ym2612"
    },
    {
      "channel": 1,
      "note": 50,
      "start": 17.8177,
      "duration": 0.1998,
      "velocity": 106,
      "chip": "ym2612"
    },
    {
      "channel": 5,
      "note": 24,
      "start": 17.818,
      "duration": 0.1998,
      "velocity": 117,
      "chip": "ym2612"
    },
    {
      "channel": 1,
      "note": 57,
      "start": 18.0177,
      "duration": 0.2,
      "velocity": 106,
      "chip": "ym2612"
    },
    {
      "channel": 5,
      "note": 35,
      "start": 18.018,
      "duration": 0.2004,
      "velocity": 101,
      "chip": "ym2612"
    },
    {
      "channel": 0,
      "note": 69,
      "start": 18.2176,
      "duration": 0.0992,
      "velocity": 100,
      "chip": "ym2612"
    },
    {
      "channel": 1,
      "note": 54,
      "start": 18.2179,
      "duration": 0.0992,
      "velocity": 106,
      "chip": "ym2612"
    },
    {
      "channel": 2,
      "note": 74,
      "start": 18.2181,
      "duration": 0.0992,
      "velocity": 100,
      "chip": "ym2612"
    },
    {
      "channel": 3,
      "note": 108,
      "start": 18.2183,
      "duration": 0.0992,
      "velocity": 101,
      "chip": "ym2612"
    },
    {
      "channel": 5,
      "note": 24,
      "start": 18.2186,
      "duration": 0.1996,
      "velocity": 101,
      "chip": "ym2612"
    },
    {
      "channel": 0,
      "note": 69,
      "start": 18.317,
      "duration": 0.1005,
      "velocity": 100,
      "chip": "ym2612"
    },
    {
      "channel": 1,
      "note": 60,
      "start": 18.3172,
      "duration": 0.2004,
      "velocity": 106,
      "chip": "ym2612"
    },
    {
      "channel": 2,
      "note": 74,
      "start": 18.3174,
      "duration": 0.1003,
      "velocity": 100,
      "chip": "ym2612"
    },
    {
      "channel": 3,
      "note": 107,
      "start": 18.3177,
      "duration": 0.0659,
      "velocity": 101,
      "chip": "ym2612"
    },
    {
      "channel": 4,
      "note": 108,
      "start": 18.3179,
      "duration": 0.1,
      "velocity": 101,
      "chip": "ym2612"
    },
    {
      "channel": 3,
      "note": 105,
      "start": 18.3838,
      "duration": 0.4342,
      "velocity": 101,
      "chip": "ym2612"
    },
    {
      "channel": 4,
      "note": 107,
      "start": 18.4181,
      "duration": 0.0655,
      "velocity": 101,
      "chip": "ym2612"
    },
    {
      "channel": 5,
      "note": 24,
      "start": 18.4183,
      "duration": 0.0996,
      "velocity": 101,
      "chip": "ym2612"
    },
    {
      "channel": 4,
      "note": 105,
      "start": 18.4838,
      "duration": 0.4332,
      "velocity": 101,
      "chip": "ym2612"
    },
    {
      "channel": 1,
      "note": 59,
      "start": 18.5177,
      "duration": 0.1,
      "velocity": 106,
      "chip": "ym2612"
    },
    {
      "channel": 5,
      "note": 24,
      "start": 18.5182,
      "duration": 0.1,
      "velocity": 101,
      "chip": "ym2612"
    },
    {
      "channel": 0,
      "note": 74,
      "start": 18.6176,
      "duration": 0.1998,
      "velocity": 100,
      "chip": "ym2612"
    },
    {
      "channel": 1,
      "note": 60,
      "start": 18.6178,
      "duration": 0.0996,
      "velocity": 106,
      "chip": "ym2612"
    },
    {
      "channel": 2,
      "note": 79,
      "start": 18.6181,
      "duration": 0.1996,
      "velocity": 100,
      "chip": "ym2612"
    },
    {
      "channel": 5,
      "note": 24,
      "start": 18.6184,
      "duration": 0.0994,
      "velocity": 101,
      "chip": "ym2612"
    },
    {
      "channel": 1,
      "note": 62,
      "start": 18.7177,
      "duration": 0.2998,
      "velocity": 106,
      "chip": "ym2612"
    },
    {
      "channel": 5,
      "note": 24,
      "start": 18.718,
      "duration": 0.1002,
      "velocity": 117,
      "chip": "ym2612"
    },
    {
      "channel": 0,
      "note": 74,
      "start": 18.8176,
      "duration": 0.3999,
      "velocity": 100,
      "chip": "ym2612"
    },
    {
      "channel": 2,
      "note": 78,
      "start": 18.8179,
      "duration": 0.4001,
      "velocity": 100,
      "chip": "ym2612"
    },
    {
      "channel": 3,
      "note": 102,
      "start": 18.8181,
      "duration": 0.2995,
      "velocity": 101,
      "chip": "ym2612"
    },
    {
      "channel": 5,
      "note": 35,
      "start": 18.8184,
      "duration": 0.1994,
      "velocity": 117,
      "chip": "ym2612"
    },
    {
      "channel": 4,
      "note": 102,
      "start": 18.9172,
      "duration": 0.3012,
      "velocity": 101,
      "chip": "ym2612"
    },
    {
      "channel": 1,
      "note": 54,
      "start": 19.0177,
      "duration": 0.2001,
      "velocity": 106,
      "chip": "ym2612"
    },
    {
      "channel": 5,
      "note": 35,
      "start": 19.018,
      "duration": 0.0998,
      "velocity": 117,
      "chip": "ym2612"
    },
    {
      "channel": 5,
      "note": 35,
      "start": 19.118,
      "duration": 0.1005,
      "velocity": 101,
      "chip": "ym2612"
    },
    {
      "channel": 0,
      "note": 74,
      "start": 19.2177,
      "duration": 0.6,
      "velocity": 100,
      "chip": "ym2612"
    },
    {
      "channel": 1,
      "note": 67,
      "start": 19.2179,
      "duration": 0.1996,
      "velocity": 106,
      "chip": "ym2612"
    },
    {
      "channel": 2,
      "note": 79,
      "start": 19.2182,
      "duration": 0.6,
      "velocity": 100,
      "chip": "ym2612"
    },
    {
      "channel": 5,
      "note": 24,
      "start": 19.2187,
      "duration": 0.1991,
      "velocity": 101,
      "chip": "ym2612"
    },
    {
      "channel": 1,
      "note": 55,
      "start": 19.4177,
      "duration": 0.1998,
      "velocity": 106,
      "chip": "ym2612"
    },
    {
      "channel": 5,
      "note": 24,
      "start": 19.418,
      "duration": 0.1998,
      "velocity": 117,
      "chip": "ym2612"
    },
    {
      "channel": 1,
      "note": 62,
      "start": 19.6177,
      "duration": 0.2002,
      "velocity": 106,
      "chip": "ym2612"
    },
    {
      "channel": 5,
      "note": 35,
      "start": 19.618,
      "duration": 0.3002,
      "velocity": 101,
      "chip": "ym2612"
    },
    {
      "channel": 0,
      "note": 71,
      "start": 19.8179,
      "duration": 0.0996,
      "velocity": 100,
      "chip": "ym2612"
    },
    {
      "channel": 1,
      "note": 55,
      "start": 19.8181,
      "duration": 0.0996,
      "velocity": 106,
      "chip": "ym2612"
    },
    {
      "channel": 2,
      "note": 74,
      "start": 19.8183,
      "duration": 0.0996,
      "velocity": 100,
      "chip": "ym2612"
    },
    {
      "channel": 0,
      "note": 71,
      "start": 19.9176,
      "duration": 0.0992,
      "velocity": 100,
      "chip": "ym2612"
    },
    {
      "channel": 1,
      "note": 60,
      "start": 19.9178,
      "duration": 0.1997,
      "velocity": 106,
      "chip": "ym2612"
    },
    {
      "channel": 2,
      "note": 74,
      "start": 19.9181,
      "duration": 0.0991,
      "velocity": 100,
      "chip": "ym2612"
    },
    {
      "channel": 5,
      "note": 24,
      "start": 19.9184,
      "duration": 0.1996,
      "velocity": 101,
      "chip": "ym2612"
    },
    {
      "channel": 1,
      "note": 59,
      "start": 20.1177,
      "duration": 0.0999,
      "velocity": 106,
      "chip": "ym2612"
    },
    {
      "channel": 5,
      "note": 24,
      "start": 20.1182,
      "duration": 0.1,
      "velocity": 101,
      "chip": "ym2612"
    },
    {
      "channel": 0,
      "note": 71,
      "start": 20.2176,
      "duration": 0.0992,
      "velocity": 100,
      "chip": "ym2612"
    },
    {
      "channel": 1,
      "note": 60,
      "start": 20.2178,
      "duration": 0.0992,
      "velocity": 106,
      "chip": "ym2612"
    },
    {
      "channel": 2,
      "note": 74,
      "start": 20.2181,
      "duration": 0.0992,
      "velocity": 100,
      "chip": "ym2612"
    },
    {
      "channel": 5,
      "note": 24,
      "start": 20.2184,
      "duration": 0.1995,
      "velocity": 117,
      "chip": "ym2612"
    },
    {
      "channel": 0,
      "note": 71,
      "start": 20.317,
      "duration": 0.1004,
      "velocity": 100,
      "chip": "ym2612"
    },
    {
      "channel": 1,
      "note": 62,
      "start": 20.3173,
      "duration": 0.2996,
      "velocity": 106,
      "chip": "ym2612"
    },
    {
      "channel": 2,
      "note": 74,
      "start": 20.3175,
      "duration": 0.1001,
      "velocity": 100,
      "chip": "ym2612"
    },
    {
      "channel": 5,
      "note": 35,
      "start": 20.418,
      "duration": 0.4012,
      "velocity": 101,
      "chip": "ym2612"
    },
    {
      "channel": 1,
      "note": 55,
      "start": 20.6171,
      "duration": 0.2007,
      "velocity": 106,
      "chip": "ym2612"
    },
    {
      "channel": 0,
      "note": 76,
      "start": 20.8177,
      "duration": 0.5992,
      "velocity": 100,
      "chip": "ym2612"
    },
    {
      "channel": 1,
      "note": 67,
      "start": 20.8179,
      "duration": 0.1996,
      "velocity": 106,
      "chip": "ym2612"
    },
    {
      "channel": 2,
      "note": 79,
      "start": 20.8181,
      "duration": 0.5992,
      "velocity": 100,
      "chip": "ym2612"
    },
    {
      "channel": 5,
      "note": 24,
      "start": 20.8194,
      "duration": 0.1984,
      "velocity": 101,
      "chip": "ym2612"
    },
    {
      "channel": 1,
      "note": 55,
      "start": 21.0177,
      "duration": 0.1998,
      "velocity": 106,
      "chip": "ym2612"
    },
    {
      "channel": 5,
      "note": 24,
      "start": 21.018,
      "duration": 0.2,
      "velocity": 117,
      "chip": "ym2612"
    },
    {
      "channel": 1,
      "note": 64,
      "start": 21.2177,
      "duration": 0.1994,
      "velocity": 106,
      "chip": "ym2612"
    },
    {
      "channel": 3,
      "note": 100,
      "start": 21.2179,
      "duration": 0.099,
      "velocity": 101,
      "chip": "ym2612"
    },
    {
      "channel": 5,
      "note": 35,
      "start": 21.2182,
      "duration": 0.3004,
      "velocity": 101,
      "chip": "ym2612"
    },
    {
      "channel": 3,
      "note": 98,
      "start": 21.3171,
      "duration": 0.1004,
      "velocity": 101,
      "chip": "ym2612"
    },
    {
      "channel": 4,
      "note": 100,
      "start": 21.3173,
      "duration": 0.1004,
      "velocity": 101,
      "chip": "ym2612"
    },
    {
      "channel": 0,
      "note": 71,
      "start": 21.417,
      "duration": 0.1004,
      "velocity": 100,
      "chip": "ym2612"
    },
    {
      "channel": 1,
      "note": 55,
      "start": 21.4173,
      "duration": 0.1004,
      "velocity": 106,
      "chip": "ym2612"
    },
    {
      "channel": 2,
      "note": 76,
      "start": 21.4175,
      "duration": 0.1004,
      "velocity": 100,
      "chip": "ym2612"
    },
    {
      "channel": 3,
      "note": 100,
      "start": 21.4177,
      "duration": 0.1004,
      "velocity": 101,
      "chip": "ym2612"
    },
    {
      "channel": 4,
      "note": 98,
      "start": 21.418,
      "duration": 0.1004,
      "velocity": 101,
      "chip": "ym2612"
    },
    {
      "channel": 0,
      "note": 71,
      "start": 21.5176,
      "duration": 0.0992,
      "velocity": 100,
      "chip": "ym2612"
    },
    {
      "channel": 1,
      "note": 64,
      "start": 21.5178,
      "duration": 0.1997,
      "velocity": 106,
      "chip": "ym2612"
    },
    {
      "channel": 2,
      "note": 76,
      "start": 21.5181,
      "duration": 0.0991,
      "velocity": 100,
      "chip": "ym2612"
    },
    {
      "channel": 3,
      "note": 103,
      "start": 21.5183,
      "duration": 0.8999,
      "velocity": 101,
      "chip": "ym2612"
    },
    {
      "channel": 4,
      "note": 100,
      "start": 21.5185,
      "duration": 0.0988,
      "velocity": 101,
      "chip": "ym2612"
    },
    {
      "channel": 5,
      "note": 24,
      "start": 21.5188,
      "duration": 0.1992,
      "velocity": 101,
      "chip": "ym2612"
    },
    {
      "channel": 4,
      "note": 103,
      "start": 21.6175,
      "duration": 0.8995,
      "velocity": 101,
      "chip": "ym2612"
    },
    {
      "channel": 1,
      "note": 62,
      "start": 21.7177,
      "duration": 0.0999,
      "velocity": 106,
      "chip": "ym2612"
    },
    {
      "channel": 5,
      "note": 24,
      "start": 21.7182,
      "duration": 0.1,
      "velocity": 101,
      "chip": "ym2612"
    },
    {
      "channel": 0,
      "note": 71,
      "start": 21.8176,
      "duration": 0.0992,
      "velocity": 100,
      "chip": "ym2612"
    },
    {
      "channel": 1,
      "note": 64,
      "start": 21.8178,
      "duration": 0.0992,
      "velocity": 106,
      "chip": "ym2612"
    },
    {
      "channel": 2,
      "note": 76,
      "start": 21.8181,
      "duration": 0.0992,
      "velocity": 100,
      "chip": "ym2612"
    },
    {
      "channel": 5,
      "note": 24,
      "start": 21.8184,
      "duration": 0.1995,
      "velocity": 117,
      "chip": "ym2612"
    },
    {
      "channel": 0,
      "note": 71,
      "start": 21.917,
      "duration": 0.1004,
      "velocity": 100,
      "chip": "ym2612"
    },
    {
      "channel": 1,
      "note": 67,
      "start": 21.9173,
      "duration": 0.2996,
      "velocity": 106,
      "chip": "ym2612"
    },
    {
      "channel": 2,
      "note": 76,
      "start": 21.9175,
      "duration": 0.1001,
      "velocity": 100,
      "chip": "ym2612"
    },
    {
      "channel": 5,
      "note": 35,
      "start": 22.018,
      "duration": 0.4003,
      "velocity": 101,
      "chip": "ym2612"
    },
    {
      "channel": 1,
      "note": 55,
      "start": 22.2171,
      "duration": 0.2007,
      "velocity": 106,
      "chip": "ym2612"
    },
    {
      "channel": 0,
      "note": 76,
      "start": 22.4177,
      "duration": 0.3998,
      "velocity": 100,
      "chip": "ym2612"
    },
    {
      "channel": 1,
      "note": 60,
      "start": 22.4179,
      "duration": 0.1996,
      "velocity": 106,
      "chip": "ym2612"
    },
    {
      "channel": 2,
      "note": 79,
      "start": 22.4181,
      "duration": 0.3998,
      "velocity": 100,
      "chip": "ym2612"
    },
    {
      "channel": 5,
      "note": 24,
      "start": 22.4185,
      "duration": 0.1993,
      "velocity": 101,
      "chip": "ym2612"
    },
    {
      "channel": 1,
      "note": 52,
      "start": 22.6177,
      "duration": 0.2,
      "velocity": 106,
      "chip": "ym2612"
    },
    {
      "channel": 5,
      "note": 24,
      "start": 22.618,
      "duration": 0.2004,
      "velocity": 117,
      "chip": "ym2612"
    },
    {
      "channel": 0,
      "note": 72,
      "start": 22.8176,
      "duration": 0.0992,
      "velocity": 100,
      "chip": "ym2612"
    },
    {
      "channel": 1,
      "note": 60,
      "start": 22.8178,
      "duration": 0.1991,
      "velocity": 106,
      "chip": "ym2612"
    },
    {
      "channel": 2,
      "note": 76,
      "start": 22.8181,
      "duration": 0.099,
      "velocity": 100,
      "chip": "ym2612"
    },
    {
      "channel": 3,
      "note": 100,
      "start": 22.8183,
      "duration": 0.099,
      "velocity": 101,
      "chip": "ym2612"
    },
    {
      "channel": 5,
      "note": 35,
      "start": 22.8186,
      "duration": 0.3,
      "velocity": 101,
      "chip": "ym2612"
    },
    {
      "channel": 0,
      "note": 72,
      "start": 22.917,
      "duration": 0.0998,
      "velocity": 100,
      "chip": "ym2612"
    },
    {
      "channel": 2,
      "note": 76,
      "start": 22.9173,
      "duration": 0.1,
      "velocity": 100,
      "chip": "ym2612"
    },
    {
      "channel": 3,
      "note": 98,
      "start": 22.9175,
      "duration": 0.0998,
      "velocity": 101,
      "chip": "ym2612"
    },
    {
      "channel": 4,
      "note": 100,
      "start": 22.9177,
      "duration": 0.0998,
      "velocity": 101,
      "chip": "ym2612"
    },
    {
      "channel": 1,
      "note": 55,
      "start": 23.0172,
      "duration": 0.1005,
      "velocity": 106,
      "chip": "ym2612"
    },
    {
      "channel": 3,
      "note": 100,
      "start": 23.0175,
      "duration": 0.1006,
      "velocity": 101,
      "chip": "ym2612"
    },
    {
      "channel": 4,
      "note": 98,
      "start": 23.0177,
      "duration": 0.1006,
      "velocity": 101,
      "chip": "ym2612"
    },
    {
      "channel": 0,
      "note": 72,
      "start": 23.1176,
      "duration": 0.0992,
      "velocity": 100,
      "chip": "ym2612"
    },
    {
      "channel": 1,
      "note": 60,
      "start": 23.1178,
      "duration": 0.1997,
      "velocity": 106,
      "chip": "ym2612"
    },
    {
      "channel": 2,
      "note": 76,
      "start": 23.1181,
      "duration": 0.0991,
      "velocity": 100,
      "chip": "ym2612"
    },
    {
      "channel": 3,
      "note": 102,
      "start": 23.1183,
      "duration": 0.099,
      "velocity": 101,
      "chip": "ym2612"
    },
    {
      "channel": 4,
      "note": 100,
      "start": 23.1185,
      "duration": 0.099,
      "velocity": 101,
      "chip": "ym2612"
    },
    {
      "channel": 5,
      "note": 24,
      "start": 23.1188,
      "duration": 0.1996,
      "velocity": 101,
      "chip": "ym2612"
    },
    {
      "channel": 3,
      "note": 103,
      "start": 23.2175,
      "duration": 0.1005,
      "velocity": 101,
      "chip": "ym2612"
    },
    {
      "channel": 4,
      "note": 102,
      "start": 23.2177,
      "duration": 0.1005,
      "velocity": 101,
      "chip": "ym2612"
    },
    {
      "channel": 1,
      "note": 59,
      "start": 23.3177,
      "duration": 0.0999,
      "velocity": 106,
      "chip": "ym2612"
    },
    {
      "channel": 3,
      "note": 105,
      "start": 23.3181,
      "duration": 0.1,
      "velocity": 101,
      "chip": "ym2612"
    },
    {
      "channel": 4,
      "note": 103,
      "start": 23.3183,
      "duration": 0.0999,
      "velocity": 101,
      "chip": "ym2612"
    },
    {
      "channel": 5,
      "note": 24,
      "start": 23.3185,
      "duration": 0.0999,
      "velocity": 101,
      "chip": "ym2612"
    },
    {
      "channel": 0,
      "note": 72,
      "start": 23.4176,
      "duration": 0.0992,
      "velocity": 100,
      "chip": "ym2612"
    },
    {
      "channel": 1,
      "note": 60,
      "start": 23.4178,
      "duration": 0.0992,
      "velocity": 106,
      "chip": "ym2612"
    },
    {
      "channel": 2,
      "note": 76,
      "start": 23.4181,
      "duration": 0.0992,
      "velocity": 100,
      "chip": "ym2612"
    },
    {
      "channel": 4,
      "note": 105,
      "start": 23.4184,
      "duration": 0.0993,
      "velocity": 101,
      "chip": "ym2612"
    },
    {
      "channel": 5,
      "note": 24,
      "start": 23.4186,
      "duration": 0.1994,
      "velocity": 117,
      "chip": "ym2612"
    },
    {
      "channel": 0,
      "note": 72,
      "start": 23.517,
      "duration": 0.1004,
      "velocity": 100,
      "chip": "ym2612"
    },
    {
      "channel": 1,
      "note": 60,
      "start": 23.5173,
      "duration": 0.2996,
      "velocity": 106,
      "chip": "ym2612"
    },
    {
      "channel": 2,
      "note": 76,
      "start": 23.5175,
      "duration": 0.1001,
      "velocity": 100,
      "chip": "ym2612"
    },
    {
      "channel": 3,
      "note": 103,
      "start": 23.5177,
      "duration": 0.2994,
      "velocity": 101,
      "chip": "ym2612"
    },
    {
      "channel": 4,
      "note": 103,
      "start": 23.618,
      "duration": 0.2992,
      "velocity": 101,
      "chip": "ym2612"
    },
    {
      "channel": 5,
      "note": 35,
      "start": 23.6182,
      "duration": 0.4004,
      "velocity": 101,
      "chip": "ym2612"
    },
    {
      "channel": 1,
      "note": 52,
      "start": 23.8171,
      "duration": 0.2007,
      "velocity": 106,
      "chip": "ym2612"
    },
    {
      "channel": 3,
      "note": 103,
      "start": 23.8173,
      "duration": 0.0996,
      "velocity": 101,
      "chip": "ym2612"
    },
    {
      "channel": 3,
      "note": 105,
      "start": 23.9171,
      "duration": 0.101,
      "velocity": 101,
      "chip": "ym2612"
    },
    {
      "channel": 4,
      "note": 103,
      "start": 23.9173,
      "duration": 0.1011,
      "velocity": 101,
      "chip": "ym2612"
    },
    {
      "channel": 0,
      "note": 69,
      "start": 24.0177,
      "duration": 0.5992,
      "velocity": 100,
      "chip": "ym2612"
    },
    {
      "channel": 1,
      "note": 62,
      "start": 24.0179,
      "duration": 0.1996,
      "velocity": 106,
      "chip": "ym2612"
    },
    {
      "channel": 2,
      "note": 79,
      "start": 24.0181,
      "duration": 0.5992,
      "velocity": 100,
      "chip": "ym2612"
    },
    {
      "channel": 3,
      "note": 107,
      "start": 24.0183,
      "duration": 0.5992,
      "velocity": 101,
      "chip": "ym2612"
    },
    {
      "channel": 4,
      "note": 105,
      "start": 24.0186,
      "duration": 0.0984,
      "velocity": 101,
      "chip": "ym2612"
    },
    {
      "channel": 5,
      "note": 24,
      "start": 24.0188,
      "duration": 0.199,
      "velocity": 101,
      "chip": "ym2612"
    },
    {
      "channel": 4,
      "note": 107,
      "start": 24.1172,
      "duration": 0.6012,
      "velocity": 101,
      "chip": "ym2612"
    },
    {
      "channel": 1,
      "note": 50,
      "start": 24.2177,
      "duration": 0.1998,
      "velocity": 106,
      "chip": "ym2612"
    },
    {
      "channel": 5,
      "note": 24,
      "start": 24.218,
      "duration": 0.1998,
      "velocity": 117,
      "chip": "ym2612"
    },
    {
      "channel": 1,
      "note": 57,
      "start": 24.4177,
      "duration": 0.1994,
      "velocity": 106,
      "chip": "ym2612"
    },
    {
      "channel": 5,
      "note": 35,
      "start": 24.418,
      "duration": 0.3006,
      "velocity": 101,
      "chip": "ym2612"
    },
    {
      "channel": 0,
      "note": 69,
      "start": 24.617,
      "duration": 0.1004,
      "velocity": 100,
      "chip": "ym2612"
    },
    {
      "channel": 1,
      "note": 54,
      "start": 24.6173,
      "duration": 0.1004,
      "velocity": 106,
      "chip": "ym2612"
    },
    {
      "channel": 2,
      "note": 74,
      "start": 24.6175,
      "duration": 0.1004,
      "velocity": 100,
      "chip": "ym2612"
    },
    {
      "channel": 3,
      "note": 108,
      "start": 24.6177,
      "duration": 0.1004,
      "velocity": 101,
      "chip": "ym2612"
    },
    {
      "channel": 0,
      "note": 69,
      "start": 24.7176,
      "duration": 0.0992,
      "velocity": 100,
      "chip": "ym2612"
    },
    {
      "channel": 1,
      "note": 60,
      "start": 24.7178,
      "duration": 0.1997,
      "velocity": 106,
      "chip": "ym2612"
    },
    {
      "channel": 2,
      "note": 74,
      "start": 24.7181,
      "duration": 0.0991,
      "velocity": 100,
      "chip": "ym2612"
    },
    {
      "channel": 3,
      "note": 107,
      "start": 24.7183,
      "duration": 0.0653,
      "velocity": 101,
      "chip": "ym2612"
    },
    {
      "channel": 4,
      "note": 108,
      "start": 24.7185,
      "duration": 0.0988,
      "velocity": 101,
      "chip": "ym2612"
    },
    {
      "channel": 5,
      "note": 24,
      "start": 24.7188,
      "duration": 0.1992,
      "velocity": 101,
      "chip": "ym2612"
    },
    {
      "channel": 3,
      "note": 105,
      "start": 24.7838,
      "duration": 0.4341,
      "velocity": 101,
      "chip": "ym2612"
    },
    {
      "channel": 4,
      "note": 107,
      "start": 24.8175,
      "duration": 0.0661,
      "velocity": 101,
      "chip": "ym2612"
    },
    {
      "channel": 4,
      "note": 105,
      "start": 24.8838,
      "duration": 0.4338,
      "velocity": 101,
      "chip": "ym2612"
    },
    {
      "channel": 1,
      "note": 59,
      "start": 24.9177,
      "duration": 0.1,
      "velocity": 106,
      "chip": "ym2612"
    },
    {
      "channel": 5,
      "note": 24,
      "start": 24.9182,
      "duration": 0.1,
      "velocity": 101,
      "chip": "ym2612"
    },
    {
      "channel": 0,
      "note": 74,
      "start": 25.0176,
      "duration": 0.1998,
      "velocity": 100,
      "chip": "ym2612"
    },
    {
      "channel": 1,
      "note": 60,
      "start": 25.0178,
      "duration": 0.0996,
      "velocity": 106,
      "chip": "ym2612"
    },
    {
      "channel": 2,
      "note": 79,
      "start": 25.0181,
      "duration": 0.1996,
      "velocity": 100,
      "chip": "ym2612"
    },
    {
      "channel": 5,
      "note": 24,
      "start": 25.0184,
      "duration": 0.0994,
      "velocity": 101,
      "chip": "ym2612"
    },
    {
      "channel": 1,
      "note": 62,
      "start": 25.1177,
      "duration": 0.2998,
      "velocity": 106,
      "chip": "ym2612"
    },
    {
      "channel": 5,
      "note": 24,
      "start": 25.118,
      "duration": 0.1002,
      "velocity": 117,
      "chip": "ym2612"
    },
    {
      "channel": 0,
      "note": 74,
      "start": 25.2176,
      "duration": 0.4006,
      "velocity": 87,
      "chip": "ym2612"
    },
    {
      "channel": 2,
      "note": 78,
      "start": 25.2179,
      "duration": 0.4008,
      "velocity": 100,
      "chip": "ym2612"
    },
    {
      "channel": 3,
      "note": 102,
      "start": 25.2181,
      "duration": 0.2995,
      "velocity": 101,
      "chip": "ym2612"
    },
    {
      "channel": 5,
      "note": 35,
      "start": 25.2184,
      "duration": 0.0994,
      "velocity": 117,
      "chip": "ym2612"
    },
    {
      "channel": 4,
      "note": 102,
      "start": 25.3178,
      "duration": 0.3024,
      "velocity": 101,
      "chip": "ym2612"
    },
    {
      "channel": 5,
      "note": 35,
      "start": 25.318,
      "duration": 0.0998,
      "velocity": 117,
      "chip": "ym2612"
    },
    {
      "channel": 1,
      "note": 54,
      "start": 25.4177,
      "duration": 0.2007,
      "velocity": 106,
      "chip": "ym2612"
    },
    {
      "channel": 5,
      "note": 35,
      "start": 25.418,
      "duration": 0.0998,
      "velocity": 117,
      "chip": "ym2612"
    },
    {
      "channel": 5,
      "note": 35,
      "start": 25.518,
      "duration": 0.1021,
      "velocity": 101,
      "chip": "ym2612"
    },
    {
      "channel": 1,
      "note": 67,
      "start": 25.6185,
      "duration": 0.0016,
      "velocity": 106,
      "chip": "ym2612"
    },
    {
      "channel": 2,
      "note": 79,
      "start": 25.6189,
      "duration": 0.0013,
      "velocity": 100,
      "chip": "ym2612"
    },
    {
      "channel": 3,
      "note": 79,
      "start": 25.6198,
      "duration": 0.0003,
      "velocity": 105,
      "chip": "ym2612"
    }
  ]
}