{
  "track_name": "08 - Final Results",
  "duration_sec": 66.006,
  "sample_rate": 44100,
  "note_count": 1503,
  "unique_pitches": 19,
  "pitch_range": 59,
  "avg_note_duration": 0.0557,
  "reconstruction_stats": {
    "notes_reconstructed": 1503,
    "keyon_events": 1503,
    "keyoff_events": 1503,
    "orphan_keyons": 0,
    "unique_pitches": 19,
    "pitch_range": 59,
    "avg_duration_sec": 0.0557
  },
  "metadata": {
    "source": "N\\NBA Jam\\08 - Final Results.vgz"
  },
  "notes": [
    {
      "channel": 0,
      "note": 30,
      "start": 0.0,
      "duration": 0.0553,
      "velocity": 113,
      "chip": "ym2612"
    },
    {
      "channel": 1,
      "note": 70,
      "start": 0.0058,
      "duration": 0.024,
      "velocity": 106,
      "chip": "ym2612"
    },
    {
      "channel": 3,
      "note": 34,
      "start": 0.0117,
      "duration": 2.5549,
      "velocity": 105,
      "chip": "ym2612"
    },
    {
      "channel": 4,
      "note": 34,
      "start": 0.0259,
      "duration": 2.5682,
      "velocity": 113,
      "chip": "ym2612"
    },
    {
      "channel": 1,
      "note": 70,
      "start": 0.1086,
      "duration": 0.0467,
      "velocity": 106,
      "chip": "ym2612"
    },
    {
      "channel": 5,
      "note": 89,
      "start": 0.2418,
      "duration": 0.0136,
      "velocity": 118,
      "chip": "ym2612"
    },
    {
      "channel": 1,
      "note": 70,
      "start": 0.2447,
      "duration": 0.0273,
      "velocity": 106,
      "chip": "ym2612"
    },
    {
      "channel": 5,
      "note": 89,
      "start": 0.3588,
      "duration": 0.0133,
      "velocity": 118,
      "chip": "ym2612"
    },
    {
      "channel": 1,
      "note": 70,
      "start": 0.3622,
      "duration": 0.0265,
      "velocity": 106,
      "chip": "ym2612"
    },
    {
      "channel": 0,
      "note": 30,
      "start": 0.521,
      "duration": 0.0228,
      "velocity": 113,
      "chip": "ym2612"
    },
    {
      "channel": 1,
      "note": 70,
      "start": 0.5235,
      "duration": 0.0141,
      "velocity": 106,
      "chip": "ym2612"
    },
    {
      "channel": 1,
      "note": 70,
      "start": 0.5885,
      "duration": 0.03,
      "velocity": 106,
      "chip": "ym2612"
    },
    {
      "channel": 1,
      "note": 70,
      "start": 0.7052,
      "duration": 0.03,
      "velocity": 106,
      "chip": "ym2612"
    },
    {
      "channel": 0,
      "note": 30,
      "start": 0.8219,
      "duration": 0.0633,
      "velocity": 113,
      "chip": "ym2612"
    },
    {
      "channel": 1,
      "note": 70,
      "start": 0.8246,
      "duration": 0.0272,
      "velocity": 106,
      "chip": "ym2612"
    },
    {
      "channel": 1,
      "note": 70,
      "start": 0.9385,
      "duration": 0.0467,
      "velocity": 106,
      "chip": "ym2612"
    },
    {
      "channel": 2,
      "note": 89,
      "start": 1.0549,
      "duration": 0.0304,
      "velocity": 118,
      "chip": "ym2612"
    },
    {
      "channel": 1,
      "note": 70,
      "start": 1.0579,
      "duration": 0.044,
      "velocity": 106,
      "chip": "ym2612"
    },
    {
      "channel": 2,
      "note": 89,
      "start": 1.1883,
      "duration": 0.0137,
      "velocity": 118,
      "chip": "ym2612"
    },
    {
      "channel": 1,
      "note": 70,
      "start": 1.1913,
      "duration": 0.0272,
      "velocity": 106,
      "chip": "ym2612"
    },
    {
      "channel": 1,
      "note": 70,
      "start": 1.3085,
      "duration": 0.0106,
      "velocity": 106,
      "chip": "ym2612"
    },
    {
      "channel": 0,
      "note": 68,
      "start": 1.3115,
      "duration": 0.0075,
      "velocity": 68,
      "chip": "ym2612"
    },
    {
      "channel": 1,
      "note": 70,
      "start": 1.3532,
      "duration": 0.0161,
      "velocity": 106,
      "chip": "ym2612"
    },
    {
      "channel": 0,
      "note": 68,
      "start": 1.3561,
      "duration": 0.02,
      "velocity": 68,
      "chip": "ym2612"
    },
    {
      "channel": 2,
      "note": 89,
      "start": 1.4,
      "duration": 0.0304,
      "velocity": 118,
      "chip": "ym2612"
    },
    {
      "channel": 1,
      "note": 70,
      "start": 1.4029,
      "duration": 0.0439,
      "velocity": 106,
      "chip": "ym2612"
    },
    {
      "channel": 2,
      "note": 89,
      "start": 1.5333,
      "duration": 0.0139,
      "velocity": 118,
      "chip": "ym2612"
    },
    {
      "channel": 1,
      "note": 70,
      "start": 1.5362,
      "duration": 0.0274,
      "velocity": 106,
      "chip": "ym2612"
    },
    {
      "channel": 0,
      "note": 68,
      "start": 1.5393,
      "duration": 0.0742,
      "velocity": 68,
      "chip": "ym2612"
    },
    {
      "channel": 5,
      "note": 30,
      "start": 1.6501,
      "duration": 0.0636,
      "velocity": 113,
      "chip": "ym2612"
    },
    {
      "channel": 1,
      "note": 70,
      "start": 1.6529,
      "duration": 0.0272,
      "velocity": 106,
      "chip": "ym2612"
    },
    {
      "channel": 2,
      "note": 89,
      "start": 1.8833,
      "duration": 0.019,
      "velocity": 118,
      "chip": "ym2612"
    },
    {
      "channel": 5,
      "note": 30,
      "start": 1.8861,
      "duration": 0.0041,
      "velocity": 113,
      "chip": "ym2612"
    },
    {
      "channel": 1,
      "note": 70,
      "start": 1.8893,
      "duration": 0.0205,
      "velocity": 106,
      "chip": "ym2612"
    },
    {
      "channel": 2,
      "note": 89,
      "start": 1.9495,
      "duration": 0.0082,
      "velocity": 118,
      "chip": "ym2612"
    },
    {
      "channel": 1,
      "note": 70,
      "start": 1.9521,
      "duration": 0.0105,
      "velocity": 106,
      "chip": "ym2612"
    },
    {
      "channel": 1,
      "note": 70,
      "start": 2.0008,
      "duration": 0.0105,
      "velocity": 106,
      "chip": "ym2612"
    },
    {
      "channel": 0,
      "note": 30,
      "start": 2.0506,
      "duration": 0.0258,
      "velocity": 113,
      "chip": "ym2612"
    },
    {
      "channel": 1,
      "note": 70,
      "start": 2.053,
      "duration": 0.0175,
      "velocity": 106,
      "chip": "ym2612"
    },
    {
      "channel": 1,
      "note": 70,
      "start": 2.0978,
      "duration": 0.0196,
      "velocity": 106,
      "chip": "ym2612"
    },
    {
      "channel": 1,
      "note": 70,
      "start": 2.1506,
      "duration": 0.0135,
      "velocity": 106,
      "chip": "ym2612"
    },
    {
      "channel": 0,
      "note": 30,
      "start": 2.2032,
      "duration": 0.0279,
      "velocity": 113,
      "chip": "ym2612"
    },
    {
      "channel": 1,
      "note": 70,
      "start": 2.2069,
      "duration": 0.0104,
      "velocity": 106,
      "chip": "ym2612"
    },
    {
      "channel": 2,
      "note": 89,
      "start": 2.3095,
      "duration": 0.0129,
      "velocity": 118,
      "chip": "ym2612"
    },
    {
      "channel": 1,
      "note": 70,
      "start": 2.3124,
      "duration": 0.0173,
      "velocity": 106,
      "chip": "ym2612"
    },
    {
      "channel": 2,
      "note": 89,
      "start": 2.371,
      "duration": 0.0076,
      "velocity": 118,
      "chip": "ym2612"
    },
    {
      "channel": 1,
      "note": 70,
      "start": 2.4197,
      "duration": 0.0137,
      "velocity": 106,
      "chip": "ym2612"
    },
    {
      "channel": 2,
      "note": 89,
      "start": 2.5171,
      "duration": 0.013,
      "velocity": 118,
      "chip": "ym2612"
    },
    {
      "channel": 1,
      "note": 70,
      "start": 2.5199,
      "duration": 0.0159,
      "velocity": 106,
      "chip": "ym2612"
    },
    {
      "channel": 2,
      "note": 89,
      "start": 2.5695,
      "duration": 0.0159,
      "velocity": 118,
      "chip": "ym2612"
    },
    {
      "channel": 1,
      "note": 70,
      "start": 2.5764,
      "duration": 0.0113,
      "velocity": 106,
      "chip": "ym2612"
    },
    {
      "channel": 3,
      "note": 32,
      "start": 2.5796,
      "duration": 0.0364,
      "velocity": 105,
      "chip": "ym2612"
    },
    {
      "channel": 0,
      "note": 30,
      "start": 2.6265,
      "duration": 0.0296,
      "velocity": 113,
      "chip": "ym2612"
    },
    {
      "channel": 1,
      "note": 70,
      "start": 2.6292,
      "duration": 0.0124,
      "velocity": 106,
      "chip": "ym2612"
    },
    {
      "channel": 3,
      "note": 34,
      "start": 2.6328,
      "duration": 0.1015,
      "velocity": 105,
      "chip": "ym2612"
    },
    {
      "channel": 1,
      "note": 70,
      "start": 2.6815,
      "duration": 0.0198,
      "velocity": 106,
      "chip": "ym2612"
    },
    {
      "channel": 2,
      "note": 89,
      "start": 2.7541,
      "duration": 0.0304,
      "velocity": 118,
      "chip": "ym2612"
    },
    {
      "channel": 1,
      "note": 70,
      "start": 2.7571,
      "duration": 0.044,
      "velocity": 106,
      "chip": "ym2612"
    },
    {
      "channel": 2,
      "note": 89,
      "start": 2.8874,
      "duration": 0.0139,
      "velocity": 118,
      "chip": "ym2612"
    },
    {
      "channel": 1,
      "note": 70,
      "start": 2.8907,
      "duration": 0.027,
      "velocity": 106,
      "chip": "ym2612"
    },
    {
      "channel": 3,
      "note": 34,
      "start": 2.894,
      "duration": 1.2137,
      "velocity": 105,
      "chip": "ym2612"
    },
    {
      "channel": 1,
      "note": 70,
      "start": 3.008,
      "duration": 0.0107,
      "velocity": 106,
      "chip": "ym2612"
    },
    {
      "channel": 0,
      "note": 30,
      "start": 3.0515,
      "duration": 0.0211,
      "velocity": 113,
      "chip": "ym2612"
    },
    {
      "channel": 1,
      "note": 70,
      "start": 3.0998,
      "duration": 0.0466,
      "velocity": 106,
      "chip": "ym2612"
    },
    {
      "channel": 0,
      "note": 30,
      "start": 3.3494,
      "duration": 0.0469,
      "velocity": 113,
      "chip": "ym2612"
    },
    {
      "channel": 1,
      "note": 70,
      "start": 3.3521,
      "duration": 0.0276,
      "velocity": 106,
      "chip": "ym2612"
    },
    {
      "channel": 4,
      "note": 68,
      "start": 3.3554,
      "duration": 0.0412,
      "velocity": 68,
      "chip": "ym2612"
    },
    {
      "channel": 4,
      "note": 68,
      "start": 3.4669,
      "duration": 0.0962,
      "velocity": 68,
      "chip": "ym2612"
    },
    {
      "channel": 2,
      "note": 89,
      "start": 3.5829,
      "duration": 0.0303,
      "velocity": 118,
      "chip": "ym2612"
    },
    {
      "channel": 1,
      "note": 70,
      "start": 3.5859,
      "duration": 0.0437,
      "velocity": 106,
      "chip": "ym2612"
    },
    {
      "channel": 2,
      "note": 89,
      "start": 3.7163,
      "duration": 0.0137,
      "velocity": 118,
      "chip": "ym2612"
    },
    {
      "channel": 1,
      "note": 70,
      "start": 3.7192,
      "duration": 0.0272,
      "velocity": 106,
      "chip": "ym2612"
    },
    {
      "channel": 4,
      "note": 68,
      "start": 3.7223,
      "duration": 0.0908,
      "velocity": 68,
      "chip": "ym2612"
    },
    {
      "channel": 1,
      "note": 70,
      "start": 3.8364,
      "duration": 0.0107,
      "velocity": 106,
      "chip": "ym2612"
    },
    {
      "channel": 1,
      "note": 70,
      "start": 3.8802,
      "duration": 0.009,
      "velocity": 106,
      "chip": "ym2612"
    },
    {
      "channel": 1,
      "note": 70,
      "start": 3.9277,
      "duration": 0.0467,
      "velocity": 106,
      "chip": "ym2612"
    },
    {
      "channel": 1,
      "note": 70,
      "start": 4.0611,
      "duration": 0.03,
      "velocity": 106,
      "chip": "ym2612"
    },
    {
      "channel": 0,
      "note": 30,
      "start": 4.1774,
      "duration": 0.047,
      "velocity": 113,
      "chip": "ym2612"
    },
    {
      "channel": 1,
      "note": 70,
      "start": 4.1801,
      "duration": 0.0276,
      "velocity": 106,
      "chip": "ym2612"
    },
    {
      "channel": 3,
      "note": 34,
      "start": 4.1832,
      "duration": 0.4078,
      "velocity": 105,
      "chip": "ym2612"
    },
    {
      "channel": 1,
      "note": 70,
      "start": 4.2946,
      "duration": 0.0298,
      "velocity": 106,
      "chip": "ym2612"
    },
    {
      "channel": 2,
      "note": 89,
      "start": 4.4109,
      "duration": 0.0303,
      "velocity": 118,
      "chip": "ym2612"
    },
    {
      "channel": 0,
      "note": 30,
      "start": 4.4138,
      "duration": 0.0605,
      "velocity": 113,
      "chip": "ym2612"
    },
    {
      "channel": 2,
      "note": 89,
      "start": 4.5445,
      "duration": 0.0134,
      "velocity": 118,
      "chip": "ym2612"
    },
    {
      "channel": 1,
      "note": 70,
      "start": 4.5474,
      "duration": 0.0268,
      "velocity": 106,
      "chip": "ym2612"
    },
    {
      "channel": 0,
      "note": 30,
      "start": 4.7062,
      "duration": 0.0228,
      "velocity": 113,
      "chip": "ym2612"
    },
    {
      "channel": 1,
      "note": 70,
      "start": 4.7091,
      "duration": 0.008,
      "velocity": 106,
      "chip": "ym2612"
    },
    {
      "channel": 2,
      "note": 89,
      "start": 4.7569,
      "duration": 0.0086,
      "velocity": 118,
      "chip": "ym2612"
    },
    {
      "channel": 2,
      "note": 89,
      "start": 4.8177,
      "duration": 0.009,
      "velocity": 118,
      "chip": "ym2612"
    },
    {
      "channel": 1,
      "note": 70,
      "start": 4.8215,
      "duration": 0.0097,
      "velocity": 106,
      "chip": "ym2612"
    },
    {
      "channel": 1,
      "note": 70,
      "start": 4.8654,
      "duration": 0.0127,
      "velocity": 106,
      "chip": "ym2612"
    },
    {
      "channel": 1,
      "note": 70,
      "start": 4.9179,
      "duration": 0.0128,
      "velocity": 106,
      "chip": "ym2612"
    },
    {
      "channel": 2,
      "note": 89,
      "start": 4.9633,
      "duration": 0.0093,
      "velocity": 118,
      "chip": "ym2612"
    },
    {
      "channel": 1,
      "note": 70,
      "start": 4.9664,
      "duration": 0.0171,
      "velocity": 106,
      "chip": "ym2612"
    },
    {
      "channel": 2,
      "note": 89,
      "start": 5.0166,
      "duration": 0.0085,
      "velocity": 118,
      "chip": "ym2612"
    },
    {
      "channel": 1,
      "note": 70,
      "start": 5.0194,
      "duration": 0.0118,
      "velocity": 106,
      "chip": "ym2612"
    },
    {
      "channel": 0,
      "note": 30,
      "start": 5.0735,
      "duration": 0.0163,
      "velocity": 113,
      "chip": "ym2612"
    },
    {
      "channel": 1,
      "note": 70,
      "start": 5.0761,
      "duration": 0.0075,
      "velocity": 106,
      "chip": "ym2612"
    },
    {
      "channel": 1,
      "note": 70,
      "start": 5.1165,
      "duration": 0.0132,
      "velocity": 106,
      "chip": "ym2612"
    },
    {
      "channel": 2,
      "note": 89,
      "start": 5.1697,
      "duration": 0.0067,
      "velocity": 118,
      "chip": "ym2612"
    },
    {
      "channel": 1,
      "note": 70,
      "start": 5.1738,
      "duration": 0.0167,
      "velocity": 106,
      "chip": "ym2612"
    },
    {
      "channel": 2,
      "note": 89,
      "start": 5.2228,
      "duration": 0.0155,
      "velocity": 118,
      "chip": "ym2612"
    },
    {
      "channel": 0,
      "note": 30,
      "start": 5.2871,
      "duration": 0.0216,
      "velocity": 113,
      "chip": "ym2612"
    },
    {
      "channel": 1,
      "note": 70,
      "start": 5.2897,
      "duration": 0.0112,
      "velocity": 106,
      "chip": "ym2612"
    },
    {
      "channel": 3,
      "note": 32,
      "start": 5.2927,
      "duration": 0.0162,
      "velocity": 105,
      "chip": "ym2612"
    },
    {
      "channel": 4,
      "note": 34,
      "start": 5.2972,
      "duration": 2.4925,
      "velocity": 113,
      "chip": "ym2612"
    },
    {
      "channel": 1,
      "note": 70,
      "start": 5.3411,
      "duration": 0.0121,
      "velocity": 106,
      "chip": "ym2612"
    },
    {
      "channel": 3,
      "note": 34,
      "start": 5.3439,
      "duration": 0.0795,
      "velocity": 105,
      "chip": "ym2612"
    },
    {
      "channel": 2,
      "note": 89,
      "start": 5.4266,
      "duration": 0.0135,
      "velocity": 118,
      "chip": "ym2612"
    },
    {
      "channel": 1,
      "note": 70,
      "start": 5.4295,
      "duration": 0.0437,
      "velocity": 106,
      "chip": "ym2612"
    },
    {
      "channel": 2,
      "note": 89,
      "start": 5.5429,
      "duration": 0.0305,
      "velocity": 118,
      "chip": "ym2612"
    },
    {
      "channel": 1,
      "note": 70,
      "start": 5.5465,
      "duration": 0.0434,
      "velocity": 106,
      "chip": "ym2612"
    },
    {
      "channel": 3,
      "note": 34,
      "start": 5.5493,
      "duration": 0.1462,
      "velocity": 105,
      "chip": "ym2612"
    },
    {
      "channel": 0,
      "note": 30,
      "start": 5.7224,
      "duration": 0.0234,
      "velocity": 113,
      "chip": "ym2612"
    },
    {
      "channel": 1,
      "note": 70,
      "start": 5.7249,
      "duration": 0.0099,
      "velocity": 106,
      "chip": "ym2612"
    },
    {
      "channel": 3,
      "note": 34,
      "start": 5.7276,
      "duration": 0.0923,
      "velocity": 105,
      "chip": "ym2612"
    },
    {
      "channel": 1,
      "note": 70,
      "start": 5.7731,
      "duration": 0.0466,
      "velocity": 106,
      "chip": "ym2612"
    },
    {
      "channel": 1,
      "note": 70,
      "start": 5.8898,
      "duration": 0.0467,
      "velocity": 106,
      "chip": "ym2612"
    },
    {
      "channel": 0,
      "note": 30,
      "start": 6.0228,
      "duration": 0.0469,
      "velocity": 113,
      "chip": "ym2612"
    },
    {
      "channel": 1,
      "note": 70,
      "start": 6.0255,
      "duration": 0.0277,
      "velocity": 106,
      "chip": "ym2612"
    },
    {
      "channel": 3,
      "note": 34,
      "start": 6.0285,
      "duration": 0.6528,
      "velocity": 105,
      "chip": "ym2612"
    },
    {
      "channel": 1,
      "note": 70,
      "start": 6.1398,
      "duration": 0.03,
      "velocity": 106,
      "chip": "ym2612"
    },
    {
      "channel": 2,
      "note": 89,
      "start": 6.2562,
      "duration": 0.0137,
      "velocity": 118,
      "chip": "ym2612"
    },
    {
      "channel": 1,
      "note": 70,
      "start": 6.2592,
      "duration": 0.0439,
      "velocity": 106,
      "chip": "ym2612"
    },
    {
      "channel": 2,
      "note": 89,
      "start": 6.3728,
      "duration": 0.0304,
      "velocity": 118,
      "chip": "ym2612"
    },
    {
      "channel": 1,
      "note": 70,
      "start": 6.3757,
      "duration": 0.044,
      "velocity": 106,
      "chip": "ym2612"
    },
    {
      "channel": 1,
      "note": 70,
      "start": 6.5099,
      "duration": 0.0106,
      "velocity": 106,
      "chip": "ym2612"
    },
    {
      "channel": 1,
      "note": 70,
      "start": 6.5537,
      "duration": 0.009,
      "velocity": 106,
      "chip": "ym2612"
    },
    {
      "channel": 2,
      "note": 89,
      "start": 6.6009,
      "duration": 0.0139,
      "velocity": 118,
      "chip": "ym2612"
    },
    {
      "channel": 1,
      "note": 70,
      "start": 6.6039,
      "duration": 0.0439,
      "velocity": 106,
      "chip": "ym2612"
    },
    {
      "channel": 2,
      "note": 89,
      "start": 6.7176,
      "duration": 0.0304,
      "velocity": 118,
      "chip": "ym2612"
    },
    {
      "channel": 1,
      "note": 70,
      "start": 6.7206,
      "duration": 0.0438,
      "velocity": 106,
      "chip": "ym2612"
    },
    {
      "channel": 0,
      "note": 30,
      "start": 6.8509,
      "duration": 0.0469,
      "velocity": 113,
      "chip": "ym2612"
    },
    {
      "channel": 1,
      "note": 70,
      "start": 6.8537,
      "duration": 0.0275,
      "velocity": 106,
      "chip": "ym2612"
    },
    {
      "channel": 3,
      "note": 34,
      "start": 6.8569,
      "duration": 0.3548,
      "velocity": 105,
      "chip": "ym2612"
    },
    {
      "channel": 5,
      "note": 68,
      "start": 6.8604,
      "duration": 0.021,
      "velocity": 68,
      "chip": "ym2612"
    },
    {
      "channel": 5,
      "note": 68,
      "start": 6.9685,
      "duration": 0.0961,
      "velocity": 68,
      "chip": "ym2612"
    },
    {
      "channel": 2,
      "note": 89,
      "start": 7.0846,
      "duration": 0.0116,
      "velocity": 118,
      "chip": "ym2612"
    },
    {
      "channel": 0,
      "note": 30,
      "start": 7.0873,
      "duration": 0.0304,
      "velocity": 113,
      "chip": "ym2612"
    },
    {
      "channel": 1,
      "note": 70,
      "start": 7.0905,
      "duration": 0.0207,
      "velocity": 106,
      "chip": "ym2612"
    },
    {
      "channel": 2,
      "note": 89,
      "start": 7.1416,
      "duration": 0.0158,
      "velocity": 118,
      "chip": "ym2612"
    },
    {
      "channel": 1,
      "note": 70,
      "start": 7.1456,
      "duration": 0.0171,
      "velocity": 106,
      "chip": "ym2612"
    },
    {
      "channel": 0,
      "note": 68,
      "start": 7.1525,
      "duration": 0.0222,
      "velocity": 68,
      "chip": "ym2612"
    },
    {
      "channel": 1,
      "note": 70,
      "start": 7.2003,
      "duration": 0.0113,
      "velocity": 106,
      "chip": "ym2612"
    },
    {
      "channel": 2,
      "note": 30,
      "start": 7.2514,
      "duration": 0.0262,
      "velocity": 113,
      "chip": "ym2612"
    },
    {
      "channel": 1,
      "note": 70,
      "start": 7.2541,
      "duration": 0.0115,
      "velocity": 106,
      "chip": "ym2612"
    },
    {
      "channel": 1,
      "note": 70,
      "start": 7.2991,
      "duration": 0.0187,
      "velocity": 106,
      "chip": "ym2612"
    },
    {
      "channel": 1,
      "note": 70,
      "start": 7.345,
      "duration": 0.0207,
      "velocity": 106,
      "chip": "ym2612"
    },
    {
      "channel": 2,
      "note": 30,
      "start": 7.4055,
      "duration": 0.02,
      "velocity": 113,
      "chip": "ym2612"
    },
    {
      "channel": 1,
      "note": 70,
      "start": 7.4083,
      "duration": 0.0109,
      "velocity": 106,
      "chip": "ym2612"
    },
    {
      "channel": 0,
      "note": 89,
      "start": 7.5046,
      "duration": 0.0086,
      "velocity": 118,
      "chip": "ym2612"
    },
    {
      "channel": 1,
      "note": 70,
      "start": 7.5074,
      "duration": 0.0165,
      "velocity": 106,
      "chip": "ym2612"
    },
    {
      "channel": 0,
      "note": 89,
      "start": 7.5512,
      "duration": 0.0125,
      "velocity": 118,
      "chip": "ym2612"
    },
    {
      "channel": 1,
      "note": 70,
      "start": 7.6073,
      "duration": 0.0156,
      "velocity": 106,
      "chip": "ym2612"
    },
    {
      "channel": 3,
      "note": 68,
      "start": 7.614,
      "duration": 0.0142,
      "velocity": 68,
      "chip": "ym2612"
    },
    {
      "channel": 3,
      "note": 68,
      "start": 7.663,
      "duration": 0.0331,
      "velocity": 68,
      "chip": "ym2612"
    },
    {
      "channel": 0,
      "note": 89,
      "start": 7.7047,
      "duration": 0.0109,
      "velocity": 118,
      "chip": "ym2612"
    },
    {
      "channel": 1,
      "note": 70,
      "start": 7.7085,
      "duration": 0.0157,
      "velocity": 106,
      "chip": "ym2612"
    },
    {
      "channel": 0,
      "note": 89,
      "start": 7.7519,
      "duration": 0.0161,
      "velocity": 118,
      "chip": "ym2612"
    },
    {
      "channel": 1,
      "note": 70,
      "start": 7.7586,
      "duration": 0.0173,
      "velocity": 106,
      "chip": "ym2612"
    },
    {
      "channel": 3,
      "note": 68,
      "start": 7.7654,
      "duration": 0.0312,
      "velocity": 68,
      "chip": "ym2612"
    },
    {
      "channel": 2,
      "note": 30,
      "start": 7.8145,
      "duration": 0.0212,
      "velocity": 113,
      "chip": "ym2612"
    },
    {
      "channel": 1,
      "note": 70,
      "start": 7.8172,
      "duration": 0.0127,
      "velocity": 106,
      "chip": "ym2612"
    },
    {
      "channel": 0,
      "note": 34,
      "start": 7.8201,
      "duration": 1.3665,
      "velocity": 105,
      "chip": "ym2612"
    },
    {
      "channel": 1,
      "note": 70,
      "start": 7.8678,
      "duration": 0.0126,
      "velocity": 106,
      "chip": "ym2612"
    },
    {
      "channel": 4,
      "note": 89,
      "start": 7.9513,
      "duration": 0.0137,
      "velocity": 118,
      "chip": "ym2612"
    },
    {
      "channel": 1,
      "note": 70,
      "start": 7.9542,
      "duration": 0.0273,
      "velocity": 106,
      "chip": "ym2612"
    },
    {
      "channel": 4,
      "note": 89,
      "start": 8.0679,
      "duration": 0.0304,
      "velocity": 118,
      "chip": "ym2612"
    },
    {
      "channel": 1,
      "note": 70,
      "start": 8.0712,
      "duration": 0.0438,
      "velocity": 106,
      "chip": "ym2612"
    },
    {
      "channel": 1,
      "note": 70,
      "start": 8.2055,
      "duration": 0.0104,
      "velocity": 106,
      "chip": "ym2612"
    },
    {
      "channel": 2,
      "note": 30,
      "start": 8.249,
      "duration": 0.0156,
      "velocity": 113,
      "chip": "ym2612"
    },
    {
      "channel": 1,
      "note": 70,
      "start": 8.297,
      "duration": 0.03,
      "velocity": 106,
      "chip": "ym2612"
    },
    {
      "channel": 2,
      "note": 30,
      "start": 8.547,
      "duration": 0.0468,
      "velocity": 113,
      "chip": "ym2612"
    },
    {
      "channel": 1,
      "note": 70,
      "start": 8.5497,
      "duration": 0.0274,
      "velocity": 106,
      "chip": "ym2612"
    },
    {
      "channel": 4,
      "note": 89,
      "start": 8.7804,
      "duration": 0.0135,
      "velocity": 118,
      "chip": "ym2612"
    },
    {
      "channel": 1,
      "note": 70,
      "start": 8.7835,
      "duration": 0.0268,
      "velocity": 106,
      "chip": "ym2612"
    },
    {
      "channel": 4,
      "note": 89,
      "start": 8.8966,
      "duration": 0.0139,
      "velocity": 118,
      "chip": "ym2612"
    },
    {
      "channel": 1,
      "note": 70,
      "start": 8.8996,
      "duration": 0.0442,
      "velocity": 106,
      "chip": "ym2612"
    },
    {
      "channel": 1,
      "note": 70,
      "start": 9.034,
      "duration": 0.0105,
      "velocity": 106,
      "chip": "ym2612"
    },
    {
      "channel": 1,
      "note": 70,
      "start": 9.0828,
      "duration": 0.0074,
      "velocity": 106,
      "chip": "ym2612"
    },
    {
      "channel": 1,
      "note": 70,
      "start": 9.123,
      "duration": 0.0102,
      "velocity": 106,
      "chip": "ym2612"
    },
    {
      "channel": 1,
      "note": 70,
      "start": 9.1707,
      "duration": 0.016,
      "velocity": 106,
      "chip": "ym2612"
    },
    {
      "channel": 2,
      "note": 30,
      "start": 9.2209,
      "duration": 0.018,
      "velocity": 113,
      "chip": "ym2612"
    },
    {
      "channel": 1,
      "note": 70,
      "start": 9.2235,
      "duration": 0.0104,
      "velocity": 106,
      "chip": "ym2612"
    },
    {
      "channel": 0,
      "note": 34,
      "start": 9.2262,
      "duration": 0.2227,
      "velocity": 105,
      "chip": "ym2612"
    },
    {
      "channel": 3,
      "note": 34,
      "start": 9.2304,
      "duration": 0.9558,
      "velocity": 113,
      "chip": "ym2612"
    },
    {
      "channel": 1,
      "note": 70,
      "start": 9.2793,
      "duration": 0.0298,
      "velocity": 106,
      "chip": "ym2612"
    },
    {
      "channel": 4,
      "note": 89,
      "start": 9.3955,
      "duration": 0.0102,
      "velocity": 118,
      "chip": "ym2612"
    },
    {
      "channel": 2,
      "note": 30,
      "start": 9.3983,
      "duration": 0.0288,
      "velocity": 113,
      "chip": "ym2612"
    },
    {
      "channel": 4,
      "note": 89,
      "start": 9.4526,
      "duration": 0.0081,
      "velocity": 118,
      "chip": "ym2612"
    },
    {
      "channel": 1,
      "note": 70,
      "start": 9.4556,
      "duration": 0.016,
      "velocity": 106,
      "chip": "ym2612"
    },
    {
      "channel": 2,
      "note": 30,
      "start": 9.5591,
      "duration": 0.0209,
      "velocity": 113,
      "chip": "ym2612"
    },
    {
      "channel": 1,
      "note": 70,
      "start": 9.5619,
      "duration": 0.0104,
      "velocity": 106,
      "chip": "ym2612"
    },
    {
      "channel": 4,
      "note": 89,
      "start": 9.6106,
      "duration": 0.0056,
      "velocity": 118,
      "chip": "ym2612"
    },
    {
      "channel": 4,
      "note": 89,
      "start": 9.663,
      "duration": 0.008,
      "velocity": 118,
      "chip": "ym2612"
    },
    {
      "channel": 1,
      "note": 70,
      "start": 9.666,
      "duration": 0.0179,
      "velocity": 106,
      "chip": "ym2612"
    },
    {
      "channel": 1,
      "note": 70,
      "start": 9.7154,
      "duration": 0.0195,
      "velocity": 106,
      "chip": "ym2612"
    },
    {
      "channel": 1,
      "note": 70,
      "start": 9.7742,
      "duration": 0.0127,
      "velocity": 106,
      "chip": "ym2612"
    },
    {
      "channel": 4,
      "note": 89,
      "start": 9.8195,
      "duration": 0.0096,
      "velocity": 118,
      "chip": "ym2612"
    },
    {
      "channel": 1,
      "note": 70,
      "start": 9.8223,
      "duration": 0.0124,
      "velocity": 106,
      "chip": "ym2612"
    },
    {
      "channel": 4,
      "note": 89,
      "start": 9.8735,
      "duration": 0.0088,
      "velocity": 118,
      "chip": "ym2612"
    },
    {
      "channel": 1,
      "note": 70,
      "start": 9.8763,
      "duration": 0.0181,
      "velocity": 106,
      "chip": "ym2612"
    },
    {
      "channel": 1,
      "note": 70,
      "start": 9.9259,
      "duration": 0.0198,
      "velocity": 106,
      "chip": "ym2612"
    },
    {
      "channel": 0,
      "note": 40,
      "start": 9.9285,
      "duration": 0.0387,
      "velocity": 105,
      "chip": "ym2612"
    },
    {
      "channel": 2,
      "note": 68,
      "start": 9.9356,
      "duration": 0.0319,
      "velocity": 68,
      "chip": "ym2612"
    },
    {
      "channel": 4,
      "note": 30,
      "start": 9.985,
      "duration": 0.0259,
      "velocity": 113,
      "chip": "ym2612"
    },
    {
      "channel": 1,
      "note": 70,
      "start": 9.9875,
      "duration": 0.019,
      "velocity": 106,
      "chip": "ym2612"
    },
    {
      "channel": 0,
      "note": 41,
      "start": 9.99,
      "duration": 0.0475,
      "velocity": 105,
      "chip": "ym2612"
    },
    {
      "channel": 2,
      "note": 70,
      "start": 9.9973,
      "duration": 0.0328,
      "velocity": 68,
      "chip": "ym2612"
    },
    {
      "channel": 1,
      "note": 89,
      "start": 10.0415,
      "duration": 0.0122,
      "velocity": 118,
      "chip": "ym2612"
    },
    {
      "channel": 4,
      "note": 30,
      "start": 10.044,
      "duration": 0.0259,
      "velocity": 113,
      "chip": "ym2612"
    },
    {
      "channel": 2,
      "note": 70,
      "start": 10.0468,
      "duration": 0.0117,
      "velocity": 106,
      "chip": "ym2612"
    },
    {
      "channel": 0,
      "note": 40,
      "start": 10.0495,
      "duration": 0.0281,
      "velocity": 105,
      "chip": "ym2612"
    },
    {
      "channel": 1,
      "note": 89,
      "start": 10.0952,
      "duration": 0.0135,
      "velocity": 118,
      "chip": "ym2612"
    },
    {
      "channel": 0,
      "note": 41,
      "start": 10.1015,
      "duration": 0.0308,
      "velocity": 105,
      "chip": "ym2612"
    },
    {
      "channel": 4,
      "note": 30,
      "start": 10.1518,
      "duration": 0.0276,
      "velocity": 113,
      "chip": "ym2612"
    },
    {
      "channel": 2,
      "note": 70,
      "start": 10.1547,
      "duration": 0.0183,
      "velocity": 106,
      "chip": "ym2612"
    },
    {
      "channel": 0,
      "note": 34,
      "start": 10.1587,
      "duration": 0.0494,
      "velocity": 105,
      "chip": "ym2612"
    },
    {
      "channel": 1,
      "note": 70,
      "start": 10.1617,
      "duration": 0.0553,
      "velocity": 68,
      "chip": "ym2612"
    },
    {
      "channel": 2,
      "note": 70,
      "start": 10.2116,
      "duration": 0.0128,
      "velocity": 106,
      "chip": "ym2612"
    },
    {
      "channel": 4,
      "note": 65,
      "start": 10.2151,
      "duration": 0.0168,
      "velocity": 104,
      "chip": "ym2612"
    },
    {
      "channel": 3,
      "note": 89,
      "start": 10.2965,
      "duration": 0.0165,
      "velocity": 118,
      "chip": "ym2612"
    },
    {
      "channel": 0,
      "note": 30,
      "start": 10.2993,
      "duration": 0.0606,
      "velocity": 113,
      "chip": "ym2612"
    },
    {
      "channel": 2,
      "note": 70,
      "start": 10.3023,
      "duration": 0.0244,
      "velocity": 106,
      "chip": "ym2612"
    },
    {
      "channel": 1,
      "note": 34,
      "start": 10.3055,
      "duration": 0.1543,
      "velocity": 105,
      "chip": "ym2612"
    },
    {
      "channel": 4,
      "note": 68,
      "start": 10.3089,
      "duration": 0.0043,
      "velocity": 104,
      "chip": "ym2612"
    },
    {
      "channel": 5,
      "note": 73,
      "start": 10.3116,
      "duration": 0.0018,
      "velocity": 104,
      "chip": "ym2612"
    },
    {
      "channel": 3,
      "note": 89,
      "start": 10.4128,
      "duration": 0.0139,
      "velocity": 118,
      "chip": "ym2612"
    },
    {
      "channel": 2,
      "note": 70,
      "start": 10.4165,
      "duration": 0.0436,
      "velocity": 106,
      "chip": "ym2612"
    },
    {
      "channel": 4,
      "note": 68,
      "start": 10.4196,
      "duration": 0.057,
      "velocity": 104,
      "chip": "ym2612"
    },
    {
      "channel": 5,
      "note": 73,
      "start": 10.4222,
      "duration": 0.0546,
      "velocity": 104,
      "chip": "ym2612"
    },
    {
      "channel": 4,
      "note": 65,
      "start": 10.5335,
      "duration": 0.0213,
      "velocity": 104,
      "chip": "ym2612"
    },
    {
      "channel": 0,
      "note": 30,
      "start": 10.5818,
      "duration": 0.02,
      "velocity": 113,
      "chip": "ym2612"
    },
    {
      "channel": 2,
      "note": 70,
      "start": 10.5847,
      "duration": 0.0139,
      "velocity": 106,
      "chip": "ym2612"
    },
    {
      "channel": 1,
      "note": 34,
      "start": 10.5874,
      "duration": 0.0505,
      "velocity": 105,
      "chip": "ym2612"
    },
    {
      "channel": 4,
      "note": 68,
      "start": 10.5912,
      "duration": 0.0073,
      "velocity": 104,
      "chip": "ym2612"
    },
    {
      "channel": 3,
      "note": 73,
      "start": 10.5937,
      "duration": 0.0014,
      "velocity": 104,
      "chip": "ym2612"
    },
    {
      "channel": 2,
      "note": 70,
      "start": 10.6415,
      "duration": 0.03,
      "velocity": 106,
      "chip": "ym2612"
    },
    {
      "channel": 3,
      "note": 65,
      "start": 10.6448,
      "duration": 0.0264,
      "velocity": 104,
      "chip": "ym2612"
    },
    {
      "channel": 2,
      "note": 70,
      "start": 10.7581,
      "duration": 0.0466,
      "velocity": 106,
      "chip": "ym2612"
    },
    {
      "channel": 3,
      "note": 73,
      "start": 10.7611,
      "duration": 0.1434,
      "velocity": 104,
      "chip": "ym2612"
    },
    {
      "channel": 4,
      "note": 68,
      "start": 10.7639,
      "duration": 0.2073,
      "velocity": 104,
      "chip": "ym2612"
    },
    {
      "channel": 0,
      "note": 30,
      "start": 10.8742,
      "duration": 0.0636,
      "velocity": 113,
      "chip": "ym2612"
    },
    {
      "channel": 2,
      "note": 70,
      "start": 10.8771,
      "duration": 0.0443,
      "velocity": 106,
      "chip": "ym2612"
    },
    {
      "channel": 1,
      "note": 34,
      "start": 10.8801,
      "duration": 0.2244,
      "velocity": 105,
      "chip": "ym2612"
    },
    {
      "channel": 5,
      "note": 65,
      "start": 10.8831,
      "duration": 0.0382,
      "velocity": 104,
      "chip": "ym2612"
    },
    {
      "channel": 2,
      "note": 70,
      "start": 11.008,
      "duration": 0.03,
      "velocity": 106,
      "chip": "ym2612"
    },
    {
      "channel": 3,
      "note": 65,
      "start": 11.0109,
      "duration": 0.0938,
      "velocity": 104,
      "chip": "ym2612"
    },
    {
      "channel": 5,
      "note": 89,
      "start": 11.1242,
      "duration": 0.0137,
      "velocity": 118,
      "chip": "ym2612"
    },
    {
      "channel": 2,
      "note": 70,
      "start": 11.1273,
      "duration": 0.0274,
      "velocity": 106,
      "chip": "ym2612"
    },
    {
      "channel": 3,
      "note": 72,
      "start": 11.1305,
      "duration": 0.0741,
      "velocity": 104,
      "chip": "ym2612"
    },
    {
      "channel": 4,
      "note": 68,
      "start": 11.1335,
      "duration": 0.0543,
      "velocity": 104,
      "chip": "ym2612"
    },
    {
      "channel": 5,
      "note": 89,
      "start": 11.2408,
      "duration": 0.0139,
      "velocity": 118,
      "chip": "ym2612"
    },
    {
      "channel": 2,
      "note": 70,
      "start": 11.2439,
      "duration": 0.0441,
      "velocity": 106,
      "chip": "ym2612"
    },
    {
      "channel": 3,
      "note": 65,
      "start": 11.2468,
      "duration": 0.0578,
      "velocity": 104,
      "chip": "ym2612"
    },
    {
      "channel": 2,
      "note": 70,
      "start": 11.3615,
      "duration": 0.0175,
      "velocity": 106,
      "chip": "ym2612"
    },
    {
      "channel": 3,
      "note": 70,
      "start": 11.3642,
      "duration": 0.0209,
      "velocity": 104,
      "chip": "ym2612"
    },
    {
      "channel": 4,
      "note": 68,
      "start": 11.3667,
      "duration": 0.0122,
      "velocity": 104,
      "chip": "ym2612"
    },
    {
      "channel": 2,
      "note": 70,
      "start": 11.4132,
      "duration": 0.0104,
      "velocity": 106,
      "chip": "ym2612"
    },
    {
      "channel": 3,
      "note": 65,
      "start": 11.4159,
      "duration": 0.0134,
      "velocity": 104,
      "chip": "ym2612"
    },
    {
      "channel": 0,
      "note": 89,
      "start": 11.4693,
      "duration": 0.0136,
      "velocity": 118,
      "chip": "ym2612"
    },
    {
      "channel": 2,
      "note": 70,
      "start": 11.4725,
      "duration": 0.0273,
      "velocity": 106,
      "chip": "ym2612"
    },
    {
      "channel": 3,
      "note": 68,
      "start": 11.4755,
      "duration": 0.0241,
      "velocity": 104,
      "chip": "ym2612"
    },
    {
      "channel": 0,
      "note": 89,
      "start": 11.5856,
      "duration": 0.0139,
      "velocity": 118,
      "chip": "ym2612"
    },
    {
      "channel": 2,
      "note": 70,
      "start": 11.5888,
      "duration": 0.0442,
      "velocity": 106,
      "chip": "ym2612"
    },
    {
      "channel": 3,
      "note": 65,
      "start": 11.5918,
      "duration": 0.0578,
      "velocity": 104,
      "chip": "ym2612"
    },
    {
      "channel": 1,
      "note": 30,
      "start": 11.7029,
      "duration": 0.0633,
      "velocity": 113,
      "chip": "ym2612"
    },
    {
      "channel": 2,
      "note": 70,
      "start": 11.706,
      "duration": 0.0438,
      "velocity": 106,
      "chip": "ym2612"
    },
    {
      "channel": 4,
      "note": 34,
      "start": 11.7092,
      "duration": 0.1239,
      "velocity": 105,
      "chip": "ym2612"
    },
    {
      "channel": 3,
      "note": 68,
      "start": 11.7122,
      "duration": 0.0207,
      "velocity": 104,
      "chip": "ym2612"
    },
    {
      "channel": 5,
      "note": 70,
      "start": 11.7152,
      "duration": 0.0179,
      "velocity": 104,
      "chip": "ym2612"
    },
    {
      "channel": 3,
      "note": 68,
      "start": 11.8369,
      "duration": 0.046,
      "velocity": 104,
      "chip": "ym2612"
    },
    {
      "channel": 5,
      "note": 70,
      "start": 11.8396,
      "duration": 0.0268,
      "velocity": 104,
      "chip": "ym2612"
    },
    {
      "channel": 0,
      "note": 89,
      "start": 11.9528,
      "duration": 0.0134,
      "velocity": 118,
      "chip": "ym2612"
    },
    {
      "channel": 1,
      "note": 30,
      "start": 11.9555,
      "duration": 0.0441,
      "velocity": 113,
      "chip": "ym2612"
    },
    {
      "channel": 2,
      "note": 70,
      "start": 11.9589,
      "duration": 0.0242,
      "velocity": 106,
      "chip": "ym2612"
    },
    {
      "channel": 4,
      "note": 34,
      "start": 11.962,
      "duration": 0.1877,
      "velocity": 105,
      "chip": "ym2612"
    },
    {
      "channel": 3,
      "note": 65,
      "start": 11.9646,
      "duration": 0.0183,
      "velocity": 104,
      "chip": "ym2612"
    },
    {
      "channel": 0,
      "note": 89,
      "start": 12.069,
      "duration": 0.0139,
      "velocity": 118,
      "chip": "ym2612"
    },
    {
      "channel": 2,
      "note": 70,
      "start": 12.0722,
      "duration": 0.0443,
      "velocity": 106,
      "chip": "ym2612"
    },
    {
      "channel": 3,
      "note": 68,
      "start": 12.0753,
      "duration": 0.0576,
      "velocity": 104,
      "chip": "ym2612"
    },
    {
      "channel": 5,
      "note": 70,
      "start": 12.078,
      "duration": 0.0384,
      "velocity": 104,
      "chip": "ym2612"
    },
    {
      "channel": 2,
      "note": 70,
      "start": 12.1898,
      "duration": 0.0173,
      "velocity": 106,
      "chip": "ym2612"
    },
    {
      "channel": 3,
      "note": 65,
      "start": 12.1927,
      "duration": 0.0197,
      "velocity": 104,
      "chip": "ym2612"
    },
    {
      "channel": 1,
      "note": 30,
      "start": 12.2402,
      "duration": 0.0198,
      "velocity": 113,
      "chip": "ym2612"
    },
    {
      "channel": 2,
      "note": 70,
      "start": 12.243,
      "duration": 0.0139,
      "velocity": 106,
      "chip": "ym2612"
    },
    {
      "channel": 4,
      "note": 37,
      "start": 12.246,
      "duration": 0.049,
      "velocity": 105,
      "chip": "ym2612"
    },
    {
      "channel": 3,
      "note": 68,
      "start": 12.2487,
      "duration": 0.0115,
      "velocity": 104,
      "chip": "ym2612"
    },
    {
      "channel": 0,
      "note": 70,
      "start": 12.2523,
      "duration": 0.0044,
      "velocity": 104,
      "chip": "ym2612"
    },
    {
      "channel": 2,
      "note": 70,
      "start": 12.2985,
      "duration": 0.03,
      "velocity": 106,
      "chip": "ym2612"
    },
    {
      "channel": 0,
      "note": 65,
      "start": 12.3013,
      "duration": 0.027,
      "velocity": 104,
      "chip": "ym2612"
    },
    {
      "channel": 2,
      "note": 70,
      "start": 12.4152,
      "duration": 0.0299,
      "velocity": 106,
      "chip": "ym2612"
    },
    {
      "channel": 0,
      "note": 65,
      "start": 12.418,
      "duration": 0.0769,
      "velocity": 104,
      "chip": "ym2612"
    },
    {
      "channel": 1,
      "note": 30,
      "start": 12.5314,
      "duration": 0.0636,
      "velocity": 113,
      "chip": "ym2612"
    },
    {
      "channel": 2,
      "note": 70,
      "start": 12.5345,
      "duration": 0.044,
      "velocity": 106,
      "chip": "ym2612"
    },
    {
      "channel": 4,
      "note": 39,
      "start": 12.5376,
      "duration": 0.4923,
      "velocity": 105,
      "chip": "ym2612"
    },
    {
      "channel": 0,
      "note": 70,
      "start": 12.5404,
      "duration": 0.0378,
      "velocity": 104,
      "chip": "ym2612"
    },
    {
      "channel": 3,
      "note": 67,
      "start": 12.543,
      "duration": 0.052,
      "velocity": 104,
      "chip": "ym2612"
    },
    {
      "channel": 0,
      "note": 70,
      "start": 12.6656,
      "duration": 0.046,
      "velocity": 104,
      "chip": "ym2612"
    },
    {
      "channel": 3,
      "note": 67,
      "start": 12.6681,
      "duration": 0.0437,
      "velocity": 104,
      "chip": "ym2612"
    },
    {
      "channel": 5,
      "note": 89,
      "start": 12.7814,
      "duration": 0.0137,
      "velocity": 118,
      "chip": "ym2612"
    },
    {
      "channel": 2,
      "note": 70,
      "start": 12.7846,
      "duration": 0.0272,
      "velocity": 106,
      "chip": "ym2612"
    },
    {
      "channel": 0,
      "note": 65,
      "start": 12.7872,
      "duration": 0.041,
      "velocity": 104,
      "chip": "ym2612"
    },
    {
      "channel": 5,
      "note": 89,
      "start": 12.898,
      "duration": 0.0014,
      "velocity": 118,
      "chip": "ym2612"
    },
    {
      "channel": 0,
      "note": 70,
      "start": 12.9049,
      "duration": 0.0116,
      "velocity": 104,
      "chip": "ym2612"
    },
    {
      "channel": 3,
      "note": 67,
      "start": 12.9074,
      "duration": 0.0228,
      "velocity": 104,
      "chip": "ym2612"
    },
    {
      "channel": 2,
      "note": 70,
      "start": 12.9593,
      "duration": 0.0149,
      "velocity": 106,
      "chip": "ym2612"
    },
    {
      "channel": 0,
      "note": 65,
      "start": 12.9617,
      "duration": 0.0182,
      "velocity": 104,
      "chip": "ym2612"
    },
    {
      "channel": 0,
      "note": 70,
      "start": 13.0072,
      "duration": 0.0165,
      "velocity": 104,
      "chip": "ym2612"
    },
    {
      "channel": 3,
      "note": 67,
      "start": 13.0105,
      "duration": 0.0133,
      "velocity": 104,
      "chip": "ym2612"
    },
    {
      "channel": 1,
      "note": 89,
      "start": 13.0617,
      "duration": 0.0136,
      "velocity": 118,
      "chip": "ym2612"
    },
    {
      "channel": 2,
      "note": 70,
      "start": 13.065,
      "duration": 0.0271,
      "velocity": 106,
      "chip": "ym2612"
    },
    {
      "channel": 4,
      "note": 37,
      "start": 13.068,
      "duration": 0.0907,
      "velocity": 105,
      "chip": "ym2612"
    },
    {
      "channel": 0,
      "note": 65,
      "start": 13.0711,
      "duration": 0.0374,
      "velocity": 104,
      "chip": "ym2612"
    },
    {
      "channel": 1,
      "note": 89,
      "start": 13.1781,
      "duration": 0.011,
      "velocity": 118,
      "chip": "ym2612"
    },
    {
      "channel": 2,
      "note": 70,
      "start": 13.1847,
      "duration": 0.0098,
      "velocity": 106,
      "chip": "ym2612"
    },
    {
      "channel": 4,
      "note": 39,
      "start": 13.1874,
      "duration": 0.02,
      "velocity": 105,
      "chip": "ym2612"
    },
    {
      "channel": 3,
      "note": 30,
      "start": 13.2276,
      "duration": 0.0249,
      "velocity": 113,
      "chip": "ym2612"
    },
    {
      "channel": 2,
      "note": 70,
      "start": 13.2314,
      "duration": 0.0154,
      "velocity": 106,
      "chip": "ym2612"
    },
    {
      "channel": 4,
      "note": 34,
      "start": 13.2341,
      "duration": 0.0246,
      "velocity": 105,
      "chip": "ym2612"
    },
    {
      "channel": 0,
      "note": 65,
      "start": 13.2367,
      "duration": 0.1166,
      "velocity": 104,
      "chip": "ym2612"
    },
    {
      "channel": 2,
      "note": 70,
      "start": 13.2902,
      "duration": 0.03,
      "velocity": 106,
      "chip": "ym2612"
    },
    {
      "channel": 1,
      "note": 89,
      "start": 13.4061,
      "duration": 0.0159,
      "velocity": 118,
      "chip": "ym2612"
    },
    {
      "channel": 3,
      "note": 30,
      "start": 13.4088,
      "duration": 0.0445,
      "velocity": 113,
      "chip": "ym2612"
    },
    {
      "channel": 2,
      "note": 70,
      "start": 13.4118,
      "duration": 0.0252,
      "velocity": 106,
      "chip": "ym2612"
    },
    {
      "channel": 4,
      "note": 34,
      "start": 13.4149,
      "duration": 0.2051,
      "velocity": 105,
      "chip": "ym2612"
    },
    {
      "channel": 0,
      "note": 68,
      "start": 13.4177,
      "duration": 0.0189,
      "velocity": 104,
      "chip": "ym2612"
    },
    {
      "channel": 5,
      "note": 73,
      "start": 13.4205,
      "duration": 0.0329,
      "velocity": 104,
      "chip": "ym2612"
    },
    {
      "channel": 1,
      "note": 89,
      "start": 13.5229,
      "duration": 0.0138,
      "velocity": 118,
      "chip": "ym2612"
    },
    {
      "channel": 2,
      "note": 70,
      "start": 13.5263,
      "duration": 0.0271,
      "velocity": 106,
      "chip": "ym2612"
    },
    {
      "channel": 0,
      "note": 65,
      "start": 13.5291,
      "duration": 0.0575,
      "velocity": 104,
      "chip": "ym2612"
    },
    {
      "channel": 2,
      "note": 70,
      "start": 13.6442,
      "duration": 0.0174,
      "velocity": 106,
      "chip": "ym2612"
    },
    {
      "channel": 0,
      "note": 68,
      "start": 13.647,
      "duration": 0.0145,
      "velocity": 104,
      "chip": "ym2612"
    },
    {
      "channel": 3,
      "note": 73,
      "start": 13.6494,
      "duration": 0.0122,
      "velocity": 104,
      "chip": "ym2612"
    },
    {
      "channel": 1,
      "note": 30,
      "start": 13.6952,
      "duration": 0.0184,
      "velocity": 113,
      "chip": "ym2612"
    },
    {
      "channel": 4,
      "note": 32,
      "start": 13.6982,
      "duration": 0.1339,
      "velocity": 105,
      "chip": "ym2612"
    },
    {
      "channel": 0,
      "note": 68,
      "start": 13.7012,
      "duration": 0.0123,
      "velocity": 104,
      "chip": "ym2612"
    },
    {
      "channel": 3,
      "note": 73,
      "start": 13.7034,
      "duration": 0.0102,
      "velocity": 104,
      "chip": "ym2612"
    },
    {
      "channel": 2,
      "note": 70,
      "start": 13.7522,
      "duration": 0.0299,
      "velocity": 106,
      "chip": "ym2612"
    },
    {
      "channel": 0,
      "note": 65,
      "start": 13.7548,
      "duration": 0.0438,
      "velocity": 104,
      "chip": "ym2612"
    },
    {
      "channel": 0,
      "note": 68,
      "start": 13.8689,
      "duration": 0.1963,
      "velocity": 104,
      "chip": "ym2612"
    },
    {
      "channel": 3,
      "note": 73,
      "start": 13.8714,
      "duration": 0.194,
      "velocity": 104,
      "chip": "ym2612"
    },
    {
      "channel": 1,
      "note": 30,
      "start": 13.9849,
      "duration": 0.0637,
      "velocity": 113,
      "chip": "ym2612"
    },
    {
      "channel": 2,
      "note": 70,
      "start": 13.9878,
      "duration": 0.0444,
      "velocity": 106,
      "chip": "ym2612"
    },
    {
      "channel": 4,
      "note": 34,
      "start": 13.9908,
      "duration": 0.2744,
      "velocity": 105,
      "chip": "ym2612"
    },
    {
      "channel": 5,
      "note": 65,
      "start": 13.9938,
      "duration": 0.0383,
      "velocity": 104,
      "chip": "ym2612"
    },
    {
      "channel": 0,
      "note": 65,
      "start": 14.1022,
      "duration": 0.0797,
      "velocity": 104,
      "chip": "ym2612"
    },
    {
      "channel": 5,
      "note": 89,
      "start": 14.2354,
      "duration": 0.0133,
      "velocity": 118,
      "chip": "ym2612"
    },
    {
      "channel": 2,
      "note": 70,
      "start": 14.2387,
      "duration": 0.0267,
      "velocity": 106,
      "chip": "ym2612"
    },
    {
      "channel": 0,
      "note": 68,
      "start": 14.2421,
      "duration": 0.0397,
      "velocity": 104,
      "chip": "ym2612"
    },
    {
      "channel": 3,
      "note": 72,
      "start": 14.2446,
      "duration": 0.0374,
      "velocity": 104,
      "chip": "ym2612"
    },
    {
      "channel": 5,
      "note": 89,
      "start": 14.3516,
      "duration": 0.0043,
      "velocity": 118,
      "chip": "ym2612"
    },
    {
      "channel": 2,
      "note": 70,
      "start": 14.3548,
      "duration": 0.0153,
      "velocity": 106,
      "chip": "ym2612"
    },
    {
      "channel": 0,
      "note": 65,
      "start": 14.3612,
      "duration": 0.0235,
      "velocity": 104,
      "chip": "ym2612"
    },
    {
      "channel": 2,
      "note": 70,
      "start": 14.4148,
      "duration": 0.0158,
      "velocity": 106,
      "chip": "ym2612"
    },
    {
      "channel": 0,
      "note": 70,
      "start": 14.4173,
      "duration": 0.0191,
      "velocity": 104,
      "chip": "ym2612"
    },
    {
      "channel": 3,
      "note": 68,
      "start": 14.4198,
      "duration": 0.0167,
      "velocity": 104,
      "chip": "ym2612"
    },
    {
      "channel": 2,
      "note": 70,
      "start": 14.4582,
      "duration": 0.0171,
      "velocity": 106,
      "chip": "ym2612"
    },
    {
      "channel": 0,
      "note": 65,
      "start": 14.4608,
      "duration": 0.0262,
      "velocity": 104,
      "chip": "ym2612"
    },
    {
      "channel": 2,
      "note": 70,
      "start": 14.5188,
      "duration": 0.0302,
      "velocity": 106,
      "chip": "ym2612"
    },
    {
      "channel": 0,
      "note": 70,
      "start": 14.5217,
      "duration": 0.0268,
      "velocity": 104,
      "chip": "ym2612"
    },
    {
      "channel": 3,
      "note": 68,
      "start": 14.5243,
      "duration": 0.0244,
      "velocity": 104,
      "chip": "ym2612"
    },
    {
      "channel": 2,
      "note": 70,
      "start": 14.6354,
      "duration": 0.03,
      "velocity": 106,
      "chip": "ym2612"
    },
    {
      "channel": 0,
      "note": 65,
      "start": 14.6386,
      "duration": 0.0599,
      "velocity": 104,
      "chip": "ym2612"
    },
    {
      "channel": 1,
      "note": 30,
      "start": 14.7516,
      "duration": 0.0636,
      "velocity": 113,
      "chip": "ym2612"
    },
    {
      "channel": 2,
      "note": 70,
      "start": 14.7546,
      "duration": 0.0443,
      "velocity": 106,
      "chip": "ym2612"
    },
    {
      "channel": 4,
      "note": 34,
      "start": 14.7576,
      "duration": 0.1076,
      "velocity": 105,
      "chip": "ym2612"
    },
    {
      "channel": 0,
      "note": 68,
      "start": 14.7605,
      "duration": 0.038,
      "velocity": 104,
      "chip": "ym2612"
    },
    {
      "channel": 3,
      "note": 70,
      "start": 14.7632,
      "duration": 0.0021,
      "velocity": 104,
      "chip": "ym2612"
    },
    {
      "channel": 2,
      "note": 70,
      "start": 14.8689,
      "duration": 0.0464,
      "velocity": 106,
      "chip": "ym2612"
    },
    {
      "channel": 0,
      "note": 68,
      "start": 14.8719,
      "duration": 0.06,
      "velocity": 104,
      "chip": "ym2612"
    },
    {
      "channel": 3,
      "note": 70,
      "start": 14.8744,
      "duration": 0.0576,
      "velocity": 104,
      "chip": "ym2612"
    },
    {
      "channel": 5,
      "note": 89,
      "start": 15.0016,
      "duration": 0.0138,
      "velocity": 118,
      "chip": "ym2612"
    },
    {
      "channel": 1,
      "note": 30,
      "start": 15.0042,
      "duration": 0.0444,
      "velocity": 113,
      "chip": "ym2612"
    },
    {
      "channel": 4,
      "note": 34,
      "start": 15.0074,
      "duration": 0.1746,
      "velocity": 105,
      "chip": "ym2612"
    },
    {
      "channel": 0,
      "note": 65,
      "start": 15.01,
      "duration": 0.0385,
      "velocity": 104,
      "chip": "ym2612"
    },
    {
      "channel": 5,
      "note": 89,
      "start": 15.1183,
      "duration": 0.0137,
      "velocity": 118,
      "chip": "ym2612"
    },
    {
      "channel": 2,
      "note": 70,
      "start": 15.1214,
      "duration": 0.0275,
      "velocity": 106,
      "chip": "ym2612"
    },
    {
      "channel": 0,
      "note": 70,
      "start": 15.1244,
      "duration": 0.0242,
      "velocity": 104,
      "chip": "ym2612"
    },
    {
      "channel": 3,
      "note": 68,
      "start": 15.1274,
      "duration": 0.0545,
      "velocity": 104,
      "chip": "ym2612"
    },
    {
      "channel": 0,
      "note": 65,
      "start": 15.2386,
      "duration": 0.0212,
      "velocity": 104,
      "chip": "ym2612"
    },
    {
      "channel": 1,
      "note": 30,
      "start": 15.2811,
      "duration": 0.0254,
      "velocity": 113,
      "chip": "ym2612"
    },
    {
      "channel": 2,
      "note": 70,
      "start": 15.2843,
      "duration": 0.0165,
      "velocity": 106,
      "chip": "ym2612"
    },
    {
      "channel": 4,
      "note": 37,
      "start": 15.2869,
      "duration": 0.0891,
      "velocity": 105,
      "chip": "ym2612"
    },
    {
      "channel": 0,
      "note": 68,
      "start": 15.2893,
      "duration": 0.0171,
      "velocity": 104,
      "chip": "ym2612"
    },
    {
      "channel": 3,
      "note": 70,
      "start": 15.2927,
      "duration": 0.0079,
      "velocity": 104,
      "chip": "ym2612"
    },
    {
      "channel": 3,
      "note": 89,
      "start": 15.3456,
      "duration": 0.0136,
      "velocity": 118,
      "chip": "ym2612"
    },
    {
      "channel": 0,
      "note": 65,
      "start": 15.3486,
      "duration": 0.0272,
      "velocity": 104,
      "chip": "ym2612"
    },
    {
      "channel": 3,
      "note": 89,
      "start": 15.4621,
      "duration": 0.0138,
      "velocity": 118,
      "chip": "ym2612"
    },
    {
      "channel": 2,
      "note": 70,
      "start": 15.4654,
      "duration": 0.0272,
      "velocity": 106,
      "chip": "ym2612"
    },
    {
      "channel": 0,
      "note": 65,
      "start": 15.4683,
      "duration": 0.0575,
      "velocity": 104,
      "chip": "ym2612"
    },
    {
      "channel": 1,
      "note": 30,
      "start": 15.5789,
      "duration": 0.0636,
      "velocity": 113,
      "chip": "ym2612"
    },
    {
      "channel": 2,
      "note": 70,
      "start": 15.5818,
      "duration": 0.0444,
      "velocity": 106,
      "chip": "ym2612"
    },
    {
      "channel": 4,
      "note": 39,
      "start": 15.5849,
      "duration": 0.5427,
      "velocity": 105,
      "chip": "ym2612"
    },
    {
      "channel": 0,
      "note": 70,
      "start": 15.5878,
      "duration": 0.038,
      "velocity": 104,
      "chip": "ym2612"
    },
    {
      "channel": 5,
      "note": 67,
      "start": 15.5908,
      "duration": 0.0352,
      "velocity": 104,
      "chip": "ym2612"
    },
    {
      "channel": 2,
      "note": 70,
      "start": 15.6961,
      "duration": 0.0466,
      "velocity": 106,
      "chip": "ym2612"
    },
    {
      "channel": 0,
      "note": 70,
      "start": 15.6991,
      "duration": 0.06,
      "velocity": 104,
      "chip": "ym2612"
    },
    {
      "channel": 5,
      "note": 67,
      "start": 15.7016,
      "duration": 0.0577,
      "velocity": 104,
      "chip": "ym2612"
    },
    {
      "channel": 3,
      "note": 89,
      "start": 15.8288,
      "duration": 0.0138,
      "velocity": 118,
      "chip": "ym2612"
    },
    {
      "channel": 2,
      "note": 70,
      "start": 15.832,
      "duration": 0.0273,
      "velocity": 106,
      "chip": "ym2612"
    },
    {
      "channel": 0,
      "note": 65,
      "start": 15.8346,
      "duration": 0.0411,
      "velocity": 104,
      "chip": "ym2612"
    },
    {
      "channel": 3,
      "note": 89,
      "start": 15.9455,
      "duration": 0.0137,
      "velocity": 118,
      "chip": "ym2612"
    },
    {
      "channel": 2,
      "note": 70,
      "start": 15.9487,
      "duration": 0.0273,
      "velocity": 106,
      "chip": "ym2612"
    },
    {
      "channel": 0,
      "note": 70,
      "start": 15.9515,
      "duration": 0.0576,
      "velocity": 104,
      "chip": "ym2612"
    },
    {
      "channel": 5,
      "note": 67,
      "start": 15.9541,
      "duration": 0.0554,
      "velocity": 104,
      "chip": "ym2612"
    },
    {
      "channel": 2,
      "note": 70,
      "start": 16.0663,
      "duration": 0.0174,
      "velocity": 106,
      "chip": "ym2612"
    },
    {
      "channel": 0,
      "note": 65,
      "start": 16.0687,
      "duration": 0.0203,
      "velocity": 104,
      "chip": "ym2612"
    },
    {
      "channel": 2,
      "note": 70,
      "start": 16.1115,
      "duration": 0.0161,
      "velocity": 106,
      "chip": "ym2612"
    },
    {
      "channel": 0,
      "note": 65,
      "start": 16.1141,
      "duration": 0.0311,
      "velocity": 104,
      "chip": "ym2612"
    },
    {
      "channel": 3,
      "note": 89,
      "start": 16.1746,
      "duration": 0.0142,
      "velocity": 118,
      "chip": "ym2612"
    },
    {
      "channel": 2,
      "note": 70,
      "start": 16.1779,
      "duration": 0.0271,
      "velocity": 106,
      "chip": "ym2612"
    },
    {
      "channel": 4,
      "note": 37,
      "start": 16.1813,
      "duration": 0.0567,
      "velocity": 105,
      "chip": "ym2612"
    },
    {
      "channel": 0,
      "note": 70,
      "start": 16.1845,
      "duration": 0.02,
      "velocity": 104,
      "chip": "ym2612"
    },
    {
      "channel": 1,
      "note": 68,
      "start": 16.1872,
      "duration": 0.0175,
      "velocity": 104,
      "chip": "ym2612"
    },
    {
      "channel": 3,
      "note": 89,
      "start": 16.2907,
      "duration": 0.0129,
      "velocity": 118,
      "chip": "ym2612"
    },
    {
      "channel": 4,
      "note": 39,
      "start": 16.2971,
      "duration": 0.0286,
      "velocity": 105,
      "chip": "ym2612"
    },
    {
      "channel": 0,
      "note": 68,
      "start": 16.2997,
      "duration": 0.0258,
      "velocity": 104,
      "chip": "ym2612"
    },
    {
      "channel": 1,
      "note": 70,
      "start": 16.3022,
      "duration": 0.0169,
      "velocity": 104,
      "chip": "ym2612"
    },
    {
      "channel": 2,
      "note": 30,
      "start": 16.3411,
      "duration": 0.0246,
      "velocity": 113,
      "chip": "ym2612"
    },
    {
      "channel": 3,
      "note": 70,
      "start": 16.3451,
      "duration": 0.0144,
      "velocity": 106,
      "chip": "ym2612"
    },
    {
      "channel": 4,
      "note": 34,
      "start": 16.348,
      "duration": 0.0678,
      "velocity": 105,
      "chip": "ym2612"
    },
    {
      "channel": 0,
      "note": 65,
      "start": 16.3505,
      "duration": 0.1319,
      "velocity": 104,
      "chip": "ym2612"
    },
    {
      "channel": 3,
      "note": 70,
      "start": 16.3879,
      "duration": 0.0445,
      "velocity": 106,
      "chip": "ym2612"
    },
    {
      "channel": 1,
      "note": 89,
      "start": 16.5189,
      "duration": 0.0135,
      "velocity": 118,
      "chip": "ym2612"
    },
    {
      "channel": 3,
      "note": 70,
      "start": 16.5219,
      "duration": 0.0272,
      "velocity": 106,
      "chip": "ym2612"
    },
    {
      "channel": 4,
      "note": 34,
      "start": 16.525,
      "duration": 0.1661,
      "velocity": 105,
      "chip": "ym2612"
    },
    {
      "channel": 0,
      "note": 68,
      "start": 16.5279,
      "duration": 0.0211,
      "velocity": 104,
      "chip": "ym2612"
    },
    {
      "channel": 2,
      "note": 73,
      "start": 16.5309,
      "duration": 0.0185,
      "velocity": 104,
      "chip": "ym2612"
    },
    {
      "channel": 1,
      "note": 89,
      "start": 16.6353,
      "duration": 0.0117,
      "velocity": 118,
      "chip": "ym2612"
    },
    {
      "channel": 3,
      "note": 70,
      "start": 16.6388,
      "duration": 0.0156,
      "velocity": 106,
      "chip": "ym2612"
    },
    {
      "channel": 0,
      "note": 65,
      "start": 16.6455,
      "duration": 0.0308,
      "velocity": 104,
      "chip": "ym2612"
    },
    {
      "channel": 0,
      "note": 68,
      "start": 16.6993,
      "duration": 0.0149,
      "velocity": 104,
      "chip": "ym2612"
    },
    {
      "channel": 2,
      "note": 73,
      "start": 16.7021,
      "duration": 0.0016,
      "velocity": 104,
      "chip": "ym2612"
    },
    {
      "channel": 1,
      "note": 30,
      "start": 16.7413,
      "duration": 0.0258,
      "velocity": 113,
      "chip": "ym2612"
    },
    {
      "channel": 3,
      "note": 70,
      "start": 16.7441,
      "duration": 0.017,
      "velocity": 106,
      "chip": "ym2612"
    },
    {
      "channel": 4,
      "note": 32,
      "start": 16.7478,
      "duration": 0.2163,
      "velocity": 105,
      "chip": "ym2612"
    },
    {
      "channel": 0,
      "note": 68,
      "start": 16.7503,
      "duration": 0.0168,
      "velocity": 104,
      "chip": "ym2612"
    },
    {
      "channel": 2,
      "note": 73,
      "start": 16.7528,
      "duration": 0.0145,
      "velocity": 104,
      "chip": "ym2612"
    },
    {
      "channel": 3,
      "note": 70,
      "start": 16.8008,
      "duration": 0.03,
      "velocity": 106,
      "chip": "ym2612"
    },
    {
      "channel": 0,
      "note": 65,
      "start": 16.8035,
      "duration": 0.0439,
      "velocity": 104,
      "chip": "ym2612"
    },
    {
      "channel": 3,
      "note": 70,
      "start": 16.9175,
      "duration": 0.0299,
      "velocity": 106,
      "chip": "ym2612"
    },
    {
      "channel": 0,
      "note": 68,
      "start": 16.9208,
      "duration": 0.1932,
      "velocity": 104,
      "chip": "ym2612"
    },
    {
      "channel": 2,
      "note": 73,
      "start": 16.9235,
      "duration": 0.1908,
      "velocity": 104,
      "chip": "ym2612"
    },
    {
      "channel": 1,
      "note": 30,
      "start": 17.0338,
      "duration": 0.0636,
      "velocity": 113,
      "chip": "ym2612"
    },
    {
      "channel": 3,
      "note": 70,
      "start": 17.0365,
      "duration": 0.0444,
      "velocity": 106,
      "chip": "ym2612"
    },
    {
      "channel": 4,
      "note": 34,
      "start": 17.0395,
      "duration": 0.1746,
      "velocity": 105,
      "chip": "ym2612"
    },
    {
      "channel": 5,
      "note": 65,
      "start": 17.0425,
      "duration": 0.0385,
      "velocity": 104,
      "chip": "ym2612"
    },
    {
      "channel": 3,
      "note": 70,
      "start": 17.1509,
      "duration": 0.0465,
      "velocity": 106,
      "chip": "ym2612"
    },
    {
      "channel": 0,
      "note": 65,
      "start": 17.1537,
      "duration": 0.077,
      "velocity": 104,
      "chip": "ym2612"
    },
    {
      "channel": 5,
      "note": 89,
      "start": 17.2839,
      "duration": 0.0136,
      "velocity": 118,
      "chip": "ym2612"
    },
    {
      "channel": 3,
      "note": 70,
      "start": 17.2869,
      "duration": 0.0273,
      "velocity": 106,
      "chip": "ym2612"
    },
    {
      "channel": 0,
      "note": 68,
      "start": 17.2899,
      "duration": 0.0408,
      "velocity": 104,
      "chip": "ym2612"
    },
    {
      "channel": 2,
      "note": 72,
      "start": 17.2925,
      "duration": 0.0385,
      "velocity": 104,
      "chip": "ym2612"
    },
    {
      "channel": 5,
      "note": 89,
      "start": 17.4004,
      "duration": 0.0137,
      "velocity": 118,
      "chip": "ym2612"
    },
    {
      "channel": 3,
      "note": 70,
      "start": 17.4035,
      "duration": 0.0274,
      "velocity": 106,
      "chip": "ym2612"
    },
    {
      "channel": 0,
      "note": 65,
      "start": 17.4061,
      "duration": 0.0412,
      "velocity": 104,
      "chip": "ym2612"
    },
    {
      "channel": 3,
      "note": 70,
      "start": 17.5208,
      "duration": 0.0115,
      "velocity": 106,
      "chip": "ym2612"
    },
    {
      "channel": 0,
      "note": 70,
      "start": 17.5233,
      "duration": 0.0211,
      "velocity": 104,
      "chip": "ym2612"
    },
    {
      "channel": 2,
      "note": 68,
      "start": 17.5263,
      "duration": 0.0062,
      "velocity": 104,
      "chip": "ym2612"
    },
    {
      "channel": 3,
      "note": 70,
      "start": 17.5654,
      "duration": 0.0171,
      "velocity": 106,
      "chip": "ym2612"
    },
    {
      "channel": 0,
      "note": 65,
      "start": 17.5691,
      "duration": 0.0205,
      "velocity": 104,
      "chip": "ym2612"
    },
    {
      "channel": 1,
      "note": 89,
      "start": 17.6288,
      "duration": 0.0135,
      "velocity": 118,
      "chip": "ym2612"
    },
    {
      "channel": 3,
      "note": 70,
      "start": 17.6318,
      "duration": 0.0273,
      "velocity": 106,
      "chip": "ym2612"
    },
    {
      "channel": 1,
      "note": 89,
      "start": 17.7453,
      "duration": 0.0137,
      "velocity": 118,
      "chip": "ym2612"
    },
    {
      "channel": 3,
      "note": 70,
      "start": 17.7483,
      "duration": 0.0275,
      "velocity": 106,
      "chip": "ym2612"
    },
    {
      "channel": 0,
      "note": 65,
      "start": 17.7512,
      "duration": 0.0412,
      "velocity": 104,
      "chip": "ym2612"
    },
    {
      "channel": 4,
      "note": 30,
      "start": 17.8624,
      "duration": 0.0634,
      "velocity": 113,
      "chip": "ym2612"
    },
    {
      "channel": 3,
      "note": 70,
      "start": 17.8654,
      "duration": 0.0272,
      "velocity": 106,
      "chip": "ym2612"
    },
    {
      "channel": 2,
      "note": 34,
      "start": 17.8689,
      "duration": 0.0904,
      "velocity": 105,
      "chip": "ym2612"
    },
    {
      "channel": 0,
      "note": 70,
      "start": 17.8718,
      "duration": 0.0207,
      "velocity": 104,
      "chip": "ym2612"
    },
    {
      "channel": 5,
      "note": 68,
      "start": 17.8745,
      "duration": 0.0183,
      "velocity": 104,
      "chip": "ym2612"
    },
    {
      "channel": 0,
      "note": 70,
      "start": 17.9794,
      "duration": 0.063,
      "velocity": 104,
      "chip": "ym2612"
    },
    {
      "channel": 5,
      "note": 68,
      "start": 17.9824,
      "duration": 0.0602,
      "velocity": 104,
      "chip": "ym2612"
    },
    {
      "channel": 1,
      "note": 89,
      "start": 18.1124,
      "duration": 0.0135,
      "velocity": 118,
      "chip": "ym2612"
    },
    {
      "channel": 4,
      "note": 30,
      "start": 18.1151,
      "duration": 0.0441,
      "velocity": 113,
      "chip": "ym2612"
    },
    {
      "channel": 3,
      "note": 70,
      "start": 18.1184,
      "duration": 0.0241,
      "velocity": 106,
      "chip": "ym2612"
    },
    {
      "channel": 0,
      "note": 65,
      "start": 18.1212,
      "duration": 0.0378,
      "velocity": 104,
      "chip": "ym2612"
    },
    {
      "channel": 1,
      "note": 89,
      "start": 18.2286,
      "duration": 0.0138,
      "velocity": 118,
      "chip": "ym2612"
    },
    {
      "channel": 3,
      "note": 70,
      "start": 18.2316,
      "duration": 0.0276,
      "velocity": 106,
      "chip": "ym2612"
    },
    {
      "channel": 2,
      "note": 34,
      "start": 18.2348,
      "duration": 0.15,
      "velocity": 105,
      "chip": "ym2612"
    },
    {
      "channel": 0,
      "note": 68,
      "start": 18.2375,
      "duration": 0.0383,
      "velocity": 104,
      "chip": "ym2612"
    },
    {
      "channel": 5,
      "note": 70,
      "start": 18.2402,
      "duration": 0.0192,
      "velocity": 104,
      "chip": "ym2612"
    },
    {
      "channel": 3,
      "note": 70,
      "start": 18.3496,
      "duration": 0.011,
      "velocity": 106,
      "chip": "ym2612"
    },
    {
      "channel": 0,
      "note": 65,
      "start": 18.3522,
      "duration": 0.0202,
      "velocity": 104,
      "chip": "ym2612"
    },
    {
      "channel": 4,
      "note": 30,
      "start": 18.3942,
      "duration": 0.0258,
      "velocity": 113,
      "chip": "ym2612"
    },
    {
      "channel": 3,
      "note": 70,
      "start": 18.3969,
      "duration": 0.0169,
      "velocity": 106,
      "chip": "ym2612"
    },
    {
      "channel": 2,
      "note": 37,
      "start": 18.3999,
      "duration": 0.0886,
      "velocity": 105,
      "chip": "ym2612"
    },
    {
      "channel": 0,
      "note": 68,
      "start": 18.4024,
      "duration": 0.0175,
      "velocity": 104,
      "chip": "ym2612"
    },
    {
      "channel": 1,
      "note": 70,
      "start": 18.4049,
      "duration": 0.0088,
      "velocity": 104,
      "chip": "ym2612"
    },
    {
      "channel": 3,
      "note": 70,
      "start": 18.4584,
      "duration": 0.0298,
      "velocity": 106,
      "chip": "ym2612"
    },
    {
      "channel": 0,
      "note": 65,
      "start": 18.4616,
      "duration": 0.0432,
      "velocity": 104,
      "chip": "ym2612"
    },
    {
      "channel": 3,
      "note": 70,
      "start": 18.575,
      "duration": 0.03,
      "velocity": 106,
      "chip": "ym2612"
    },
    {
      "channel": 0,
      "note": 65,
      "start": 18.5779,
      "duration": 0.077,
      "velocity": 104,
      "chip": "ym2612"
    },
    {
      "channel": 4,
      "note": 30,
      "start": 18.6914,
      "duration": 0.0636,
      "velocity": 113,
      "chip": "ym2612"
    },
    {
      "channel": 3,
      "note": 70,
      "start": 18.6944,
      "duration": 0.0273,
      "velocity": 106,
      "chip": "ym2612"
    },
    {
      "channel": 2,
      "note": 39,
      "start": 18.6976,
      "duration": 0.5301,
      "velocity": 105,
      "chip": "ym2612"
    },
    {
      "channel": 0,
      "note": 67,
      "start": 18.7005,
      "duration": 0.021,
      "velocity": 104,
      "chip": "ym2612"
    },
    {
      "channel": 1,
      "note": 70,
      "start": 18.7031,
      "duration": 0.0019,
      "velocity": 104,
      "chip": "ym2612"
    },
    {
      "channel": 0,
      "note": 67,
      "start": 18.8087,
      "duration": 0.0795,
      "velocity": 104,
      "chip": "ym2612"
    },
    {
      "channel": 1,
      "note": 70,
      "start": 18.8113,
      "duration": 0.0604,
      "velocity": 104,
      "chip": "ym2612"
    },
    {
      "channel": 5,
      "note": 89,
      "start": 18.9415,
      "duration": 0.0136,
      "velocity": 118,
      "chip": "ym2612"
    },
    {
      "channel": 3,
      "note": 70,
      "start": 18.9445,
      "duration": 0.0272,
      "velocity": 106,
      "chip": "ym2612"
    },
    {
      "channel": 0,
      "note": 65,
      "start": 18.9472,
      "duration": 0.041,
      "velocity": 104,
      "chip": "ym2612"
    },
    {
      "channel": 5,
      "note": 89,
      "start": 19.058,
      "duration": 0.0137,
      "velocity": 118,
      "chip": "ym2612"
    },
    {
      "channel": 0,
      "note": 67,
      "start": 19.0616,
      "duration": 0.0433,
      "velocity": 104,
      "chip": "ym2612"
    },
    {
      "channel": 1,
      "note": 70,
      "start": 19.0641,
      "duration": 0.0241,
      "velocity": 104,
      "chip": "ym2612"
    },
    {
      "channel": 3,
      "note": 70,
      "start": 19.1785,
      "duration": 0.0105,
      "velocity": 106,
      "chip": "ym2612"
    },
    {
      "channel": 0,
      "note": 65,
      "start": 19.1811,
      "duration": 0.0259,
      "velocity": 104,
      "chip": "ym2612"
    },
    {
      "channel": 0,
      "note": 70,
      "start": 19.2237,
      "duration": 0.0218,
      "velocity": 104,
      "chip": "ym2612"
    },
    {
      "channel": 1,
      "note": 67,
      "start": 19.226,
      "duration": 0.0196,
      "velocity": 104,
      "chip": "ym2612"
    },
    {
      "channel": 4,
      "note": 89,
      "start": 19.2701,
      "duration": 0.0303,
      "velocity": 118,
      "chip": "ym2612"
    },
    {
      "channel": 3,
      "note": 70,
      "start": 19.2732,
      "duration": 0.0438,
      "velocity": 106,
      "chip": "ym2612"
    },
    {
      "channel": 2,
      "note": 37,
      "start": 19.2764,
      "duration": 0.0742,
      "velocity": 105,
      "chip": "ym2612"
    },
    {
      "channel": 0,
      "note": 65,
      "start": 19.2791,
      "duration": 0.0711,
      "velocity": 104,
      "chip": "ym2612"
    },
    {
      "channel": 4,
      "note": 89,
      "start": 19.4032,
      "duration": 0.0167,
      "velocity": 118,
      "chip": "ym2612"
    },
    {
      "channel": 3,
      "note": 70,
      "start": 19.4097,
      "duration": 0.0124,
      "velocity": 106,
      "chip": "ym2612"
    },
    {
      "channel": 2,
      "note": 39,
      "start": 19.4126,
      "duration": 0.0333,
      "velocity": 105,
      "chip": "ym2612"
    },
    {
      "channel": 0,
      "note": 70,
      "start": 19.4155,
      "duration": 0.0117,
      "velocity": 104,
      "chip": "ym2612"
    },
    {
      "channel": 1,
      "note": 68,
      "start": 19.4177,
      "duration": 0.0096,
      "velocity": 104,
      "chip": "ym2612"
    },
    {
      "channel": 4,
      "note": 30,
      "start": 19.4545,
      "duration": 0.0253,
      "velocity": 113,
      "chip": "ym2612"
    },
    {
      "channel": 3,
      "note": 70,
      "start": 19.457,
      "duration": 0.0114,
      "velocity": 106,
      "chip": "ym2612"
    },
    {
      "channel": 2,
      "note": 34,
      "start": 19.4615,
      "duration": 0.0841,
      "velocity": 105,
      "chip": "ym2612"
    },
    {
      "channel": 0,
      "note": 65,
      "start": 19.4639,
      "duration": 0.0218,
      "velocity": 104,
      "chip": "ym2612"
    },
    {
      "channel": 3,
      "note": 70,
      "start": 19.5035,
      "duration": 0.0418,
      "velocity": 106,
      "chip": "ym2612"
    },
    {
      "channel": 0,
      "note": 65,
      "start": 19.5061,
      "duration": 0.0724,
      "velocity": 104,
      "chip": "ym2612"
    },
    {
      "channel": 1,
      "note": 89,
      "start": 19.6151,
      "duration": 0.0303,
      "velocity": 118,
      "chip": "ym2612"
    },
    {
      "channel": 4,
      "note": 30,
      "start": 19.6178,
      "duration": 0.0609,
      "velocity": 113,
      "chip": "ym2612"
    },
    {
      "channel": 3,
      "note": 70,
      "start": 19.6206,
      "duration": 0.0415,
      "velocity": 106,
      "chip": "ym2612"
    },
    {
      "channel": 2,
      "note": 34,
      "start": 19.6238,
      "duration": 0.1944,
      "velocity": 105,
      "chip": "ym2612"
    },
    {
      "channel": 0,
      "note": 68,
      "start": 19.6267,
      "duration": 0.0352,
      "velocity": 104,
      "chip": "ym2612"
    },
    {
      "channel": 5,
      "note": 73,
      "start": 19.6294,
      "duration": 0.0494,
      "velocity": 104,
      "chip": "ym2612"
    },
    {
      "channel": 1,
      "note": 89,
      "start": 19.7481,
      "duration": 0.0108,
      "velocity": 118,
      "chip": "ym2612"
    },
    {
      "channel": 3,
      "note": 70,
      "start": 19.7515,
      "duration": 0.0149,
      "velocity": 106,
      "chip": "ym2612"
    },
    {
      "channel": 0,
      "note": 65,
      "start": 19.7575,
      "duration": 0.0164,
      "velocity": 104,
      "chip": "ym2612"
    },
    {
      "channel": 3,
      "note": 70,
      "start": 19.8112,
      "duration": 0.01,
      "velocity": 106,
      "chip": "ym2612"
    },
    {
      "channel": 0,
      "note": 68,
      "start": 19.814,
      "duration": 0.0071,
      "velocity": 104,
      "chip": "ym2612"
    },
    {
      "channel": 4,
      "note": 73,
      "start": 19.8168,
      "duration": 0.0045,
      "velocity": 104,
      "chip": "ym2612"
    },
    {
      "channel": 1,
      "note": 30,
      "start": 19.8539,
      "duration": 0.0251,
      "velocity": 113,
      "chip": "ym2612"
    },
    {
      "channel": 2,
      "note": 32,
      "start": 19.8567,
      "duration": 0.1212,
      "velocity": 105,
      "chip": "ym2612"
    },
    {
      "channel": 0,
      "note": 68,
      "start": 19.8605,
      "duration": 0.0246,
      "velocity": 104,
      "chip": "ym2612"
    },
    {
      "channel": 4,
      "note": 73,
      "start": 19.8629,
      "duration": 0.0224,
      "velocity": 104,
      "chip": "ym2612"
    },
    {
      "channel": 3,
      "note": 70,
      "start": 19.9026,
      "duration": 0.0418,
      "velocity": 106,
      "chip": "ym2612"
    },
    {
      "channel": 0,
      "note": 65,
      "start": 19.9053,
      "duration": 0.0723,
      "velocity": 104,
      "chip": "ym2612"
    },
    {
      "channel": 0,
      "note": 68,
      "start": 20.0312,
      "duration": 0.0798,
      "velocity": 104,
      "chip": "ym2612"
    },
    {
      "channel": 4,
      "note": 73,
      "start": 20.0339,
      "duration": 0.0938,
      "velocity": 104,
      "chip": "ym2612"
    },
    {
      "channel": 1,
      "note": 30,
      "start": 20.1477,
      "duration": 0.0632,
      "velocity": 113,
      "chip": "ym2612"
    },
    {
      "channel": 3,
      "note": 70,
      "start": 20.1505,
      "duration": 0.0273,
      "velocity": 106,
      "chip": "ym2612"
    },
    {
      "channel": 2,
      "note": 34,
      "start": 20.1537,
      "duration": 0.2241,
      "velocity": 105,
      "chip": "ym2612"
    },
    {
      "channel": 0,
      "note": 65,
      "start": 20.1564,
      "duration": 0.0212,
      "velocity": 104,
      "chip": "ym2612"
    },
    {
      "channel": 0,
      "note": 65,
      "start": 20.2648,
      "duration": 0.0795,
      "velocity": 104,
      "chip": "ym2612"
    },
    {
      "channel": 5,
      "note": 89,
      "start": 20.3812,
      "duration": 0.03,
      "velocity": 118,
      "chip": "ym2612"
    },
    {
      "channel": 3,
      "note": 70,
      "start": 20.3843,
      "duration": 0.0434,
      "velocity": 106,
      "chip": "ym2612"
    },
    {
      "channel": 0,
      "note": 68,
      "start": 20.3872,
      "duration": 0.0738,
      "velocity": 104,
      "chip": "ym2612"
    },
    {
      "channel": 4,
      "note": 72,
      "start": 20.3897,
      "duration": 0.0715,
      "velocity": 104,
      "chip": "ym2612"
    },
    {
      "channel": 5,
      "note": 89,
      "start": 20.5139,
      "duration": 0.0139,
      "velocity": 118,
      "chip": "ym2612"
    },
    {
      "channel": 3,
      "note": 70,
      "start": 20.517,
      "duration": 0.0274,
      "velocity": 106,
      "chip": "ym2612"
    },
    {
      "channel": 0,
      "note": 65,
      "start": 20.5197,
      "duration": 0.0746,
      "velocity": 104,
      "chip": "ym2612"
    },
    {
      "channel": 3,
      "note": 70,
      "start": 20.6346,
      "duration": 0.0116,
      "velocity": 106,
      "chip": "ym2612"
    },
    {
      "channel": 0,
      "note": 68,
      "start": 20.6373,
      "duration": 0.0208,
      "velocity": 104,
      "chip": "ym2612"
    },
    {
      "channel": 4,
      "note": 70,
      "start": 20.6397,
      "duration": 0.0185,
      "velocity": 104,
      "chip": "ym2612"
    },
    {
      "channel": 3,
      "note": 70,
      "start": 20.6834,
      "duration": 0.0151,
      "velocity": 106,
      "chip": "ym2612"
    },
    {
      "channel": 0,
      "note": 65,
      "start": 20.6861,
      "duration": 0.0244,
      "velocity": 104,
      "chip": "ym2612"
    },
    {
      "channel": 3,
      "note": 70,
      "start": 20.7252,
      "duration": 0.017,
      "velocity": 106,
      "chip": "ym2612"
    },
    {
      "channel": 0,
      "note": 68,
      "start": 20.7279,
      "duration": 0.0083,
      "velocity": 104,
      "chip": "ym2612"
    },
    {
      "channel": 3,
      "note": 70,
      "start": 20.7901,
      "duration": 0.0111,
      "velocity": 106,
      "chip": "ym2612"
    },
    {
      "channel": 0,
      "note": 65,
      "start": 20.7931,
      "duration": 0.0199,
      "velocity": 104,
      "chip": "ym2612"
    },
    {
      "channel": 1,
      "note": 30,
      "start": 20.8349,
      "duration": 0.026,
      "velocity": 113,
      "chip": "ym2612"
    },
    {
      "channel": 3,
      "note": 70,
      "start": 20.8376,
      "duration": 0.0126,
      "velocity": 106,
      "chip": "ym2612"
    },
    {
      "channel": 2,
      "note": 34,
      "start": 20.8405,
      "duration": 0.0332,
      "velocity": 105,
      "chip": "ym2612"
    },
    {
      "channel": 0,
      "note": 70,
      "start": 20.8432,
      "duration": 0.0069,
      "velocity": 104,
      "chip": "ym2612"
    },
    {
      "channel": 4,
      "note": 68,
      "start": 20.8455,
      "duration": 0.0048,
      "velocity": 104,
      "chip": "ym2612"
    },
    {
      "channel": 3,
      "note": 70,
      "start": 20.8828,
      "duration": 0.0466,
      "velocity": 106,
      "chip": "ym2612"
    },
    {
      "channel": 0,
      "note": 68,
      "start": 20.8858,
      "duration": 0.0602,
      "velocity": 104,
      "chip": "ym2612"
    },
    {
      "channel": 4,
      "note": 70,
      "start": 20.8885,
      "duration": 0.041,
      "velocity": 104,
      "chip": "ym2612"
    },
    {
      "channel": 1,
      "note": 89,
      "start": 20.999,
      "duration": 0.0303,
      "velocity": 118,
      "chip": "ym2612"
    },
    {
      "channel": 5,
      "note": 30,
      "start": 21.0018,
      "duration": 0.0609,
      "velocity": 113,
      "chip": "ym2612"
    },
    {
      "channel": 0,
      "note": 65,
      "start": 21.0048,
      "duration": 0.0744,
      "velocity": 104,
      "chip": "ym2612"
    },
    {
      "channel": 1,
      "note": 89,
      "start": 21.1321,
      "duration": 0.0139,
      "velocity": 118,
      "chip": "ym2612"
    },
    {
      "channel": 3,
      "note": 70,
      "start": 21.1351,
      "duration": 0.0276,
      "velocity": 106,
      "chip": "ym2612"
    },
    {
      "channel": 2,
      "note": 34,
      "start": 21.1386,
      "duration": 0.1412,
      "velocity": 105,
      "chip": "ym2612"
    },
    {
      "channel": 0,
      "note": 68,
      "start": 21.1419,
      "duration": 0.0373,
      "velocity": 104,
      "chip": "ym2612"
    },
    {
      "channel": 4,
      "note": 70,
      "start": 21.1445,
      "duration": 0.0183,
      "velocity": 104,
      "chip": "ym2612"
    },
    {
      "channel": 0,
      "note": 65,
      "start": 21.2529,
      "duration": 0.0267,
      "velocity": 104,
      "chip": "ym2612"
    },
    {
      "channel": 1,
      "note": 30,
      "start": 21.2956,
      "duration": 0.0254,
      "velocity": 113,
      "chip": "ym2612"
    },
    {
      "channel": 3,
      "note": 70,
      "start": 21.2985,
      "duration": 0.0163,
      "velocity": 106,
      "chip": "ym2612"
    },
    {
      "channel": 2,
      "note": 37,
      "start": 21.3016,
      "duration": 0.0725,
      "velocity": 105,
      "chip": "ym2612"
    },
    {
      "channel": 0,
      "note": 68,
      "start": 21.305,
      "duration": 0.0158,
      "velocity": 104,
      "chip": "ym2612"
    },
    {
      "channel": 4,
      "note": 70,
      "start": 21.3076,
      "duration": 0.0073,
      "velocity": 104,
      "chip": "ym2612"
    },
    {
      "channel": 3,
      "note": 89,
      "start": 21.3435,
      "duration": 0.0304,
      "velocity": 118,
      "chip": "ym2612"
    },
    {
      "channel": 0,
      "note": 65,
      "start": 21.3467,
      "duration": 0.0604,
      "velocity": 104,
      "chip": "ym2612"
    },
    {
      "channel": 3,
      "note": 89,
      "start": 21.4766,
      "duration": 0.0139,
      "velocity": 118,
      "chip": "ym2612"
    },
    {
      "channel": 4,
      "note": 70,
      "start": 21.48,
      "duration": 0.0271,
      "velocity": 106,
      "chip": "ym2612"
    },
    {
      "channel": 0,
      "note": 65,
      "start": 21.4828,
      "duration": 0.0576,
      "velocity": 104,
      "chip": "ym2612"
    },
    {
      "channel": 4,
      "note": 70,
      "start": 21.5939,
      "duration": 0.03,
      "velocity": 106,
      "chip": "ym2612"
    },
    {
      "channel": 2,
      "note": 39,
      "start": 21.5971,
      "duration": 0.5593,
      "velocity": 105,
      "chip": "ym2612"
    },
    {
      "channel": 0,
      "note": 70,
      "start": 21.6003,
      "duration": 0.04,
      "velocity": 104,
      "chip": "ym2612"
    },
    {
      "channel": 1,
      "note": 67,
      "start": 21.6031,
      "duration": 0.0706,
      "velocity": 104,
      "chip": "ym2612"
    },
    {
      "channel": 4,
      "note": 70,
      "start": 21.7106,
      "duration": 0.0466,
      "velocity": 106,
      "chip": "ym2612"
    },
    {
      "channel": 0,
      "note": 65,
      "start": 21.7134,
      "duration": 0.0436,
      "velocity": 104,
      "chip": "ym2612"
    },
    {
      "channel": 3,
      "note": 89,
      "start": 21.8267,
      "duration": 0.0304,
      "velocity": 118,
      "chip": "ym2612"
    },
    {
      "channel": 4,
      "note": 70,
      "start": 21.8298,
      "duration": 0.0441,
      "velocity": 106,
      "chip": "ym2612"
    },
    {
      "channel": 0,
      "note": 65,
      "start": 21.8326,
      "duration": 0.0745,
      "velocity": 104,
      "chip": "ym2612"
    },
    {
      "channel": 3,
      "note": 89,
      "start": 21.96,
      "duration": 0.0137,
      "velocity": 118,
      "chip": "ym2612"
    },
    {
      "channel": 4,
      "note": 70,
      "start": 21.9631,
      "duration": 0.0274,
      "velocity": 106,
      "chip": "ym2612"
    },
    {
      "channel": 0,
      "note": 70,
      "start": 21.9661,
      "duration": 0.041,
      "velocity": 104,
      "chip": "ym2612"
    },
    {
      "channel": 1,
      "note": 68,
      "start": 21.9685,
      "duration": 0.0387,
      "velocity": 104,
      "chip": "ym2612"
    },
    {
      "channel": 4,
      "note": 70,
      "start": 22.0808,
      "duration": 0.0108,
      "velocity": 106,
      "chip": "ym2612"
    },
    {
      "channel": 0,
      "note": 65,
      "start": 22.083,
      "duration": 0.0149,
      "velocity": 104,
      "chip": "ym2612"
    },
    {
      "channel": 3,
      "note": 30,
      "start": 22.1254,
      "duration": 0.0239,
      "velocity": 113,
      "chip": "ym2612"
    },
    {
      "channel": 4,
      "note": 70,
      "start": 22.128,
      "duration": 0.0155,
      "velocity": 106,
      "chip": "ym2612"
    },
    {
      "channel": 0,
      "note": 70,
      "start": 22.1309,
      "duration": 0.0182,
      "velocity": 104,
      "chip": "ym2612"
    },
    {
      "channel": 1,
      "note": 68,
      "start": 22.1331,
      "duration": 0.0161,
      "velocity": 104,
      "chip": "ym2612"
    },
    {
      "channel": 4,
      "note": 89,
      "start": 22.1722,
      "duration": 0.03,
      "velocity": 118,
      "chip": "ym2612"
    },
    {
      "channel": 0,
      "note": 70,
      "start": 22.1755,
      "duration": 0.0433,
      "velocity": 106,
      "chip": "ym2612"
    },
    {
      "channel": 2,
      "note": 34,
      "start": 22.1787,
      "duration": 0.0903,
      "velocity": 105,
      "chip": "ym2612"
    },
    {
      "channel": 1,
      "note": 65,
      "start": 22.1813,
      "duration": 0.0541,
      "velocity": 104,
      "chip": "ym2612"
    },
    {
      "channel": 4,
      "note": 89,
      "start": 22.305,
      "duration": 0.0132,
      "velocity": 118,
      "chip": "ym2612"
    },
    {
      "channel": 2,
      "note": 37,
      "start": 22.3117,
      "duration": 0.0341,
      "velocity": 105,
      "chip": "ym2612"
    },
    {
      "channel": 1,
      "note": 68,
      "start": 22.3144,
      "duration": 0.0135,
      "velocity": 104,
      "chip": "ym2612"
    },
    {
      "channel": 3,
      "note": 70,
      "start": 22.3169,
      "duration": 0.005,
      "velocity": 104,
      "chip": "ym2612"
    },
    {
      "channel": 0,
      "note": 30,
      "start": 22.3583,
      "duration": 0.0162,
      "velocity": 113,
      "chip": "ym2612"
    },
    {
      "channel": 4,
      "note": 70,
      "start": 22.3613,
      "duration": 0.0101,
      "velocity": 106,
      "chip": "ym2612"
    },
    {
      "channel": 2,
      "note": 39,
      "start": 22.3642,
      "duration": 0.0351,
      "velocity": 105,
      "chip": "ym2612"
    },
    {
      "channel": 1,
      "note": 65,
      "start": 22.3678,
      "duration": 0.0067,
      "velocity": 104,
      "chip": "ym2612"
    },
    {
      "channel": 4,
      "note": 70,
      "start": 22.4026,
      "duration": 0.0278,
      "velocity": 106,
      "chip": "ym2612"
    },
    {
      "channel": 1,
      "note": 65,
      "start": 22.4055,
      "duration": 0.0748,
      "velocity": 104,
      "chip": "ym2612"
    },
    {
      "channel": 3,
      "note": 89,
      "start": 22.5168,
      "duration": 0.0302,
      "velocity": 118,
      "chip": "ym2612"
    },
    {
      "channel": 4,
      "note": 70,
      "start": 22.5198,
      "duration": 0.0439,
      "velocity": 106,
      "chip": "ym2612"
    },
    {
      "channel": 2,
      "note": 39,
      "start": 22.5234,
      "duration": 0.1808,
      "velocity": 105,
      "chip": "ym2612"
    },
    {
      "channel": 1,
      "note": 73,
      "start": 22.5267,
      "duration": 0.0536,
      "velocity": 104,
      "chip": "ym2612"
    },
    {
      "channel": 0,
      "note": 68,
      "start": 22.5295,
      "duration": 0.0341,
      "velocity": 104,
      "chip": "ym2612"
    },
    {
      "channel": 3,
      "note": 89,
      "start": 22.6499,
      "duration": 0.011,
      "velocity": 118,
      "chip": "ym2612"
    },
    {
      "channel": 4,
      "note": 70,
      "start": 22.6534,
      "duration": 0.0146,
      "velocity": 106,
      "chip": "ym2612"
    },
    {
      "channel": 0,
      "note": 65,
      "start": 22.6595,
      "duration": 0.0232,
      "velocity": 104,
      "chip": "ym2612"
    },
    {
      "channel": 0,
      "note": 73,
      "start": 22.7124,
      "duration": 0.0085,
      "velocity": 104,
      "chip": "ym2612"
    },
    {
      "channel": 1,
      "note": 68,
      "start": 22.7148,
      "duration": 0.0062,
      "velocity": 104,
      "chip": "ym2612"
    },
    {
      "channel": 3,
      "note": 30,
      "start": 22.7536,
      "duration": 0.0266,
      "velocity": 113,
      "chip": "ym2612"
    },
    {
      "channel": 4,
      "note": 70,
      "start": 22.7564,
      "duration": 0.0135,
      "velocity": 106,
      "chip": "ym2612"
    },
    {
      "channel": 2,
      "note": 37,
      "start": 22.7604,
      "duration": 0.0687,
      "velocity": 105,
      "chip": "ym2612"
    },
    {
      "channel": 0,
      "note": 73,
      "start": 22.7631,
      "duration": 0.017,
      "velocity": 104,
      "chip": "ym2612"
    },
    {
      "channel": 1,
      "note": 68,
      "start": 22.7653,
      "duration": 0.0148,
      "velocity": 104,
      "chip": "ym2612"
    },
    {
      "channel": 4,
      "note": 70,
      "start": 22.8036,
      "duration": 0.0421,
      "velocity": 106,
      "chip": "ym2612"
    },
    {
      "channel": 0,
      "note": 65,
      "start": 22.8069,
      "duration": 0.072,
      "velocity": 104,
      "chip": "ym2612"
    },
    {
      "channel": 4,
      "note": 70,
      "start": 22.9324,
      "duration": 0.03,
      "velocity": 106,
      "chip": "ym2612"
    },
    {
      "channel": 0,
      "note": 68,
      "start": 22.9354,
      "duration": 0.2268,
      "velocity": 104,
      "chip": "ym2612"
    },
    {
      "channel": 1,
      "note": 73,
      "start": 22.938,
      "duration": 0.2909,
      "velocity": 104,
      "chip": "ym2612"
    },
    {
      "channel": 3,
      "note": 30,
      "start": 23.0487,
      "duration": 0.047,
      "velocity": 113,
      "chip": "ym2612"
    },
    {
      "channel": 4,
      "note": 70,
      "start": 23.0515,
      "duration": 0.0276,
      "velocity": 106,
      "chip": "ym2612"
    },
    {
      "channel": 2,
      "note": 39,
      "start": 23.0546,
      "duration": 0.2078,
      "velocity": 105,
      "chip": "ym2612"
    },
    {
      "channel": 5,
      "note": 65,
      "start": 23.0576,
      "duration": 0.0216,
      "velocity": 104,
      "chip": "ym2612"
    },
    {
      "channel": 4,
      "note": 70,
      "start": 23.1658,
      "duration": 0.0298,
      "velocity": 106,
      "chip": "ym2612"
    },
    {
      "channel": 0,
      "note": 65,
      "start": 23.1686,
      "duration": 0.077,
      "velocity": 104,
      "chip": "ym2612"
    },
    {
      "channel": 5,
      "note": 89,
      "start": 23.282,
      "duration": 0.0137,
      "velocity": 118,
      "chip": "ym2612"
    },
    {
      "channel": 4,
      "note": 70,
      "start": 23.285,
      "duration": 0.044,
      "velocity": 106,
      "chip": "ym2612"
    },
    {
      "channel": 0,
      "note": 68,
      "start": 23.2879,
      "duration": 0.0744,
      "velocity": 104,
      "chip": "ym2612"
    },
    {
      "channel": 1,
      "note": 75,
      "start": 23.2903,
      "duration": 0.0721,
      "velocity": 104,
      "chip": "ym2612"
    },
    {
      "channel": 5,
      "note": 89,
      "start": 23.4152,
      "duration": 0.0139,
      "velocity": 118,
      "chip": "ym2612"
    },
    {
      "channel": 4,
      "note": 70,
      "start": 23.4183,
      "duration": 0.0274,
      "velocity": 106,
      "chip": "ym2612"
    },
    {
      "channel": 0,
      "note": 65,
      "start": 23.4215,
      "duration": 0.0408,
      "velocity": 104,
      "chip": "ym2612"
    },
    {
      "channel": 4,
      "note": 70,
      "start": 23.5357,
      "duration": 0.0113,
      "velocity": 106,
      "chip": "ym2612"
    },
    {
      "channel": 0,
      "note": 75,
      "start": 23.5383,
      "duration": 0.0264,
      "velocity": 104,
      "chip": "ym2612"
    },
    {
      "channel": 1,
      "note": 68,
      "start": 23.5407,
      "duration": 0.0132,
      "velocity": 104,
      "chip": "ym2612"
    },
    {
      "channel": 4,
      "note": 70,
      "start": 23.5803,
      "duration": 0.011,
      "velocity": 106,
      "chip": "ym2612"
    },
    {
      "channel": 0,
      "note": 65,
      "start": 23.5837,
      "duration": 0.0207,
      "velocity": 104,
      "chip": "ym2612"
    },
    {
      "channel": 3,
      "note": 89,
      "start": 23.6268,
      "duration": 0.0137,
      "velocity": 118,
      "chip": "ym2612"
    },
    {
      "channel": 4,
      "note": 70,
      "start": 23.6298,
      "duration": 0.044,
      "velocity": 106,
      "chip": "ym2612"
    },
    {
      "channel": 0,
      "note": 68,
      "start": 23.6326,
      "duration": 0.0578,
      "velocity": 104,
      "chip": "ym2612"
    },
    {
      "channel": 3,
      "note": 89,
      "start": 23.76,
      "duration": 0.0139,
      "velocity": 118,
      "chip": "ym2612"
    },
    {
      "channel": 4,
      "note": 70,
      "start": 23.763,
      "duration": 0.0275,
      "velocity": 106,
      "chip": "ym2612"
    },
    {
      "channel": 2,
      "note": 37,
      "start": 23.7662,
      "duration": 0.0578,
      "velocity": 105,
      "chip": "ym2612"
    },
    {
      "channel": 0,
      "note": 65,
      "start": 23.769,
      "duration": 0.0547,
      "velocity": 104,
      "chip": "ym2612"
    },
    {
      "channel": 1,
      "note": 30,
      "start": 23.877,
      "duration": 0.0467,
      "velocity": 113,
      "chip": "ym2612"
    },
    {
      "channel": 4,
      "note": 70,
      "start": 23.88,
      "duration": 0.0272,
      "velocity": 106,
      "chip": "ym2612"
    },
    {
      "channel": 2,
      "note": 39,
      "start": 23.8832,
      "duration": 0.1074,
      "velocity": 105,
      "chip": "ym2612"
    },
    {
      "channel": 0,
      "note": 67,
      "start": 23.8861,
      "duration": 0.1876,
      "velocity": 104,
      "chip": "ym2612"
    },
    {
      "channel": 5,
      "note": 69,
      "start": 23.8891,
      "duration": 0.0044,
      "velocity": 104,
      "chip": "ym2612"
    },
    {
      "channel": 3,
      "note": 75,
      "start": 23.8919,
      "duration": 0.032,
      "velocity": 104,
      "chip": "ym2612"
    },
    {
      "channel": 3,
      "note": 75,
      "start": 23.9941,
      "duration": 0.0797,
      "velocity": 104,
      "chip": "ym2612"
    },
    {
      "channel": 5,
      "note": 89,
      "start": 24.1105,
      "duration": 0.0134,
      "velocity": 118,
      "chip": "ym2612"
    },
    {
      "channel": 1,
      "note": 30,
      "start": 24.1132,
      "duration": 0.0606,
      "velocity": 113,
      "chip": "ym2612"
    },
    {
      "channel": 4,
      "note": 70,
      "start": 24.1165,
      "duration": 0.0407,
      "velocity": 106,
      "chip": "ym2612"
    },
    {
      "channel": 2,
      "note": 39,
      "start": 24.1197,
      "duration": 0.249,
      "velocity": 105,
      "chip": "ym2612"
    },
    {
      "channel": 0,
      "note": 65,
      "start": 24.1222,
      "duration": 0.0681,
      "velocity": 104,
      "chip": "ym2612"
    },
    {
      "channel": 5,
      "note": 89,
      "start": 24.2268,
      "duration": 0.0304,
      "velocity": 118,
      "chip": "ym2612"
    },
    {
      "channel": 4,
      "note": 70,
      "start": 24.2298,
      "duration": 0.044,
      "velocity": 106,
      "chip": "ym2612"
    },
    {
      "channel": 0,
      "note": 75,
      "start": 24.2328,
      "duration": 0.0576,
      "velocity": 104,
      "chip": "ym2612"
    },
    {
      "channel": 3,
      "note": 67,
      "start": 24.2354,
      "duration": 0.0552,
      "velocity": 104,
      "chip": "ym2612"
    },
    {
      "channel": 4,
      "note": 70,
      "start": 24.3638,
      "duration": 0.0111,
      "velocity": 106,
      "chip": "ym2612"
    },
    {
      "channel": 0,
      "note": 65,
      "start": 24.3663,
      "duration": 0.015,
      "velocity": 104,
      "chip": "ym2612"
    },
    {
      "channel": 1,
      "note": 30,
      "start": 24.4084,
      "duration": 0.0253,
      "velocity": 113,
      "chip": "ym2612"
    },
    {
      "channel": 4,
      "note": 70,
      "start": 24.4109,
      "duration": 0.0128,
      "velocity": 106,
      "chip": "ym2612"
    },
    {
      "channel": 2,
      "note": 37,
      "start": 24.414,
      "duration": 0.2214,
      "velocity": 105,
      "chip": "ym2612"
    },
    {
      "channel": 0,
      "note": 75,
      "start": 24.4166,
      "duration": 0.0229,
      "velocity": 104,
      "chip": "ym2612"
    },
    {
      "channel": 3,
      "note": 67,
      "start": 24.4202,
      "duration": 0.0194,
      "velocity": 104,
      "chip": "ym2612"
    },
    {
      "channel": 4,
      "note": 70,
      "start": 24.4554,
      "duration": 0.0467,
      "velocity": 106,
      "chip": "ym2612"
    },
    {
      "channel": 0,
      "note": 65,
      "start": 24.4583,
      "duration": 0.0436,
      "velocity": 104,
      "chip": "ym2612"
    },
    {
      "channel": 4,
      "note": 70,
      "start": 24.572,
      "duration": 0.0467,
      "velocity": 106,
      "chip": "ym2612"
    },
    {
      "channel": 0,
      "note": 65,
      "start": 24.5748,
      "duration": 0.0771,
      "velocity": 104,
      "chip": "ym2612"
    },
    {
      "channel": 1,
      "note": 30,
      "start": 24.7049,
      "duration": 0.0471,
      "velocity": 113,
      "chip": "ym2612"
    },
    {
      "channel": 4,
      "note": 70,
      "start": 24.7079,
      "duration": 0.0275,
      "velocity": 106,
      "chip": "ym2612"
    },
    {
      "channel": 2,
      "note": 32,
      "start": 24.711,
      "duration": 0.7083,
      "velocity": 105,
      "chip": "ym2612"
    },
    {
      "channel": 0,
      "note": 68,
      "start": 24.714,
      "duration": 0.0379,
      "velocity": 104,
      "chip": "ym2612"
    },
    {
      "channel": 3,
      "note": 75,
      "start": 24.7164,
      "duration": 0.0357,
      "velocity": 104,
      "chip": "ym2612"
    },
    {
      "channel": 0,
      "note": 65,
      "start": 24.822,
      "duration": 0.0632,
      "velocity": 104,
      "chip": "ym2612"
    },
    {
      "channel": 5,
      "note": 89,
      "start": 24.9385,
      "duration": 0.0136,
      "velocity": 118,
      "chip": "ym2612"
    },
    {
      "channel": 4,
      "note": 70,
      "start": 24.9415,
      "duration": 0.0439,
      "velocity": 106,
      "chip": "ym2612"
    },
    {
      "channel": 0,
      "note": 65,
      "start": 24.9443,
      "duration": 0.0742,
      "velocity": 104,
      "chip": "ym2612"
    },
    {
      "channel": 5,
      "note": 89,
      "start": 25.055,
      "duration": 0.0304,
      "velocity": 118,
      "chip": "ym2612"
    },
    {
      "channel": 0,
      "note": 75,
      "start": 25.0587,
      "duration": 0.0598,
      "velocity": 104,
      "chip": "ym2612"
    },
    {
      "channel": 3,
      "note": 68,
      "start": 25.0612,
      "duration": 0.0574,
      "velocity": 104,
      "chip": "ym2612"
    },
    {
      "channel": 4,
      "note": 70,
      "start": 25.1922,
      "duration": 0.0109,
      "velocity": 106,
      "chip": "ym2612"
    },
    {
      "channel": 0,
      "note": 65,
      "start": 25.1946,
      "duration": 0.0263,
      "velocity": 104,
      "chip": "ym2612"
    },
    {
      "channel": 0,
      "note": 68,
      "start": 25.2373,
      "duration": 0.0933,
      "velocity": 104,
      "chip": "ym2612"
    },
    {
      "channel": 3,
      "note": 75,
      "start": 25.2397,
      "duration": 0.1075,
      "velocity": 104,
      "chip": "ym2612"
    },
    {
      "channel": 1,
      "note": 89,
      "start": 25.2836,
      "duration": 0.0136,
      "velocity": 118,
      "chip": "ym2612"
    },
    {
      "channel": 4,
      "note": 70,
      "start": 25.2868,
      "duration": 0.0439,
      "velocity": 106,
      "chip": "ym2612"
    },
    {
      "channel": 5,
      "note": 65,
      "start": 25.2899,
      "duration": 0.111,
      "velocity": 104,
      "chip": "ym2612"
    },
    {
      "channel": 1,
      "note": 89,
      "start": 25.4001,
      "duration": 0.0189,
      "velocity": 118,
      "chip": "ym2612"
    },
    {
      "channel": 4,
      "note": 70,
      "start": 25.4068,
      "duration": 0.0176,
      "velocity": 106,
      "chip": "ym2612"
    },
    {
      "channel": 0,
      "note": 37,
      "start": 25.4097,
      "duration": 0.0036,
      "velocity": 105,
      "chip": "ym2612"
    },
    {
      "channel": 3,
      "note": 70,
      "start": 25.4124,
      "duration": 0.0304,
      "velocity": 104,
      "chip": "ym2612"
    },
    {
      "channel": 0,
      "note": 75,
      "start": 25.4152,
      "duration": 0.0275,
      "velocity": 104,
      "chip": "ym2612"
    },
    {
      "channel": 1,
      "note": 30,
      "start": 25.4578,
      "duration": 0.019,
      "velocity": 113,
      "chip": "ym2612"
    },
    {
      "channel": 4,
      "note": 70,
      "start": 25.4604,
      "duration": 0.0112,
      "velocity": 106,
      "chip": "ym2612"
    },
    {
      "channel": 2,
      "note": 39,
      "start": 25.4644,
      "duration": 0.0609,
      "velocity": 105,
      "chip": "ym2612"
    },
    {
      "channel": 0,
      "note": 65,
      "start": 25.4671,
      "duration": 0.1246,
      "velocity": 104,
      "chip": "ym2612"
    },
    {
      "channel": 4,
      "note": 70,
      "start": 25.5118,
      "duration": 0.03,
      "velocity": 106,
      "chip": "ym2612"
    },
    {
      "channel": 3,
      "note": 89,
      "start": 25.6282,
      "duration": 0.0136,
      "velocity": 118,
      "chip": "ym2612"
    },
    {
      "channel": 4,
      "note": 70,
      "start": 25.6312,
      "duration": 0.0439,
      "velocity": 106,
      "chip": "ym2612"
    },
    {
      "channel": 2,
      "note": 39,
      "start": 25.6344,
      "duration": 0.1508,
      "velocity": 105,
      "chip": "ym2612"
    },
    {
      "channel": 0,
      "note": 73,
      "start": 25.6373,
      "duration": 0.0543,
      "velocity": 104,
      "chip": "ym2612"
    },
    {
      "channel": 1,
      "note": 68,
      "start": 25.6399,
      "duration": 0.0519,
      "velocity": 104,
      "chip": "ym2612"
    },
    {
      "channel": 3,
      "note": 89,
      "start": 25.7445,
      "duration": 0.0177,
      "velocity": 118,
      "chip": "ym2612"
    },
    {
      "channel": 4,
      "note": 70,
      "start": 25.748,
      "duration": 0.0216,
      "velocity": 106,
      "chip": "ym2612"
    },
    {
      "channel": 0,
      "note": 65,
      "start": 25.754,
      "duration": 0.0309,
      "velocity": 104,
      "chip": "ym2612"
    },
    {
      "channel": 4,
      "note": 70,
      "start": 25.8132,
      "duration": 0.0103,
      "velocity": 106,
      "chip": "ym2612"
    },
    {
      "channel": 0,
      "note": 73,
      "start": 25.8158,
      "duration": 0.004,
      "velocity": 104,
      "chip": "ym2612"
    },
    {
      "channel": 1,
      "note": 68,
      "start": 25.8185,
      "duration": 0.0048,
      "velocity": 104,
      "chip": "ym2612"
    },
    {
      "channel": 3,
      "note": 30,
      "start": 25.8561,
      "duration": 0.0251,
      "velocity": 113,
      "chip": "ym2612"
    },
    {
      "channel": 2,
      "note": 37,
      "start": 25.8591,
      "duration": 0.1057,
      "velocity": 105,
      "chip": "ym2612"
    },
    {
      "channel": 0,
      "note": 68,
      "start": 25.8627,
      "duration": 0.0246,
      "velocity": 104,
      "chip": "ym2612"
    },
    {
      "channel": 1,
      "note": 73,
      "start": 25.865,
      "duration": 0.0161,
      "velocity": 104,
      "chip": "ym2612"
    },
    {
      "channel": 4,
      "note": 70,
      "start": 25.9037,
      "duration": 0.0443,
      "velocity": 106,
      "chip": "ym2612"
    },
    {
      "channel": 0,
      "note": 65,
      "start": 25.9063,
      "duration": 0.0581,
      "velocity": 104,
      "chip": "ym2612"
    },
    {
      "channel": 0,
      "note": 73,
      "start": 26.0182,
      "duration": 0.1797,
      "velocity": 104,
      "chip": "ym2612"
    },
    {
      "channel": 1,
      "note": 68,
      "start": 26.0208,
      "duration": 0.1604,
      "velocity": 104,
      "chip": "ym2612"
    },
    {
      "channel": 3,
      "note": 30,
      "start": 26.1509,
      "duration": 0.0471,
      "velocity": 113,
      "chip": "ym2612"
    },
    {
      "channel": 4,
      "note": 70,
      "start": 26.1537,
      "duration": 0.0276,
      "velocity": 106,
      "chip": "ym2612"
    },
    {
      "channel": 2,
      "note": 39,
      "start": 26.1572,
      "duration": 0.3076,
      "velocity": 105,
      "chip": "ym2612"
    },
    {
      "channel": 5,
      "note": 65,
      "start": 26.1605,
      "duration": 0.0209,
      "velocity": 104,
      "chip": "ym2612"
    },
    {
      "channel": 0,
      "note": 65,
      "start": 26.268,
      "duration": 0.0797,
      "velocity": 104,
      "chip": "ym2612"
    },
    {
      "channel": 1,
      "note": 89,
      "start": 26.3847,
      "duration": 0.0131,
      "velocity": 118,
      "chip": "ym2612"
    },
    {
      "channel": 4,
      "note": 70,
      "start": 26.3879,
      "duration": 0.0433,
      "velocity": 106,
      "chip": "ym2612"
    },
    {
      "channel": 0,
      "note": 75,
      "start": 26.3906,
      "duration": 0.0739,
      "velocity": 104,
      "chip": "ym2612"
    },
    {
      "channel": 1,
      "note": 89,
      "start": 26.5006,
      "duration": 0.0305,
      "velocity": 118,
      "chip": "ym2612"
    },
    {
      "channel": 4,
      "note": 70,
      "start": 26.5037,
      "duration": 0.0443,
      "velocity": 106,
      "chip": "ym2612"
    },
    {
      "channel": 0,
      "note": 65,
      "start": 26.5064,
      "duration": 0.0747,
      "velocity": 104,
      "chip": "ym2612"
    },
    {
      "channel": 4,
      "note": 70,
      "start": 26.638,
      "duration": 0.0116,
      "velocity": 106,
      "chip": "ym2612"
    },
    {
      "channel": 0,
      "note": 68,
      "start": 26.6406,
      "duration": 0.0149,
      "velocity": 104,
      "chip": "ym2612"
    },
    {
      "channel": 3,
      "note": 73,
      "start": 26.6432,
      "duration": 0.0124,
      "velocity": 104,
      "chip": "ym2612"
    },
    {
      "channel": 4,
      "note": 70,
      "start": 26.6829,
      "duration": 0.0109,
      "velocity": 106,
      "chip": "ym2612"
    },
    {
      "channel": 0,
      "note": 65,
      "start": 26.6862,
      "duration": 0.0136,
      "velocity": 104,
      "chip": "ym2612"
    },
    {
      "channel": 4,
      "note": 70,
      "start": 26.7294,
      "duration": 0.0467,
      "velocity": 106,
      "chip": "ym2612"
    },
    {
      "channel": 0,
      "note": 68,
      "start": 26.7324,
      "duration": 0.0435,
      "velocity": 104,
      "chip": "ym2612"
    },
    {
      "channel": 3,
      "note": 73,
      "start": 26.7354,
      "duration": 0.0073,
      "velocity": 104,
      "chip": "ym2612"
    },
    {
      "channel": 4,
      "note": 70,
      "start": 26.8459,
      "duration": 0.0468,
      "velocity": 106,
      "chip": "ym2612"
    },
    {
      "channel": 2,
      "note": 34,
      "start": 26.8491,
      "duration": 0.077,
      "velocity": 105,
      "chip": "ym2612"
    },
    {
      "channel": 0,
      "note": 65,
      "start": 26.8519,
      "duration": 0.074,
      "velocity": 104,
      "chip": "ym2612"
    },
    {
      "channel": 1,
      "note": 30,
      "start": 26.9792,
      "duration": 0.0468,
      "velocity": 113,
      "chip": "ym2612"
    },
    {
      "channel": 4,
      "note": 70,
      "start": 26.982,
      "duration": 0.0276,
      "velocity": 106,
      "chip": "ym2612"
    },
    {
      "channel": 2,
      "note": 39,
      "start": 26.9852,
      "duration": 0.1076,
      "velocity": 105,
      "chip": "ym2612"
    },
    {
      "channel": 0,
      "note": 73,
      "start": 26.9881,
      "duration": 0.0212,
      "velocity": 104,
      "chip": "ym2612"
    },
    {
      "channel": 3,
      "note": 69,
      "start": 26.9906,
      "duration": 0.0189,
      "velocity": 104,
      "chip": "ym2612"
    },
    {
      "channel": 4,
      "note": 70,
      "start": 27.0963,
      "duration": 0.0298,
      "velocity": 106,
      "chip": "ym2612"
    },
    {
      "channel": 0,
      "note": 73,
      "start": 27.0993,
      "duration": 0.0433,
      "velocity": 104,
      "chip": "ym2612"
    },
    {
      "channel": 3,
      "note": 67,
      "start": 27.1019,
      "duration": 0.0241,
      "velocity": 104,
      "chip": "ym2612"
    },
    {
      "channel": 5,
      "note": 89,
      "start": 27.2123,
      "duration": 0.0138,
      "velocity": 118,
      "chip": "ym2612"
    },
    {
      "channel": 1,
      "note": 30,
      "start": 27.2149,
      "duration": 0.0611,
      "velocity": 113,
      "chip": "ym2612"
    },
    {
      "channel": 2,
      "note": 39,
      "start": 27.2183,
      "duration": 0.1912,
      "velocity": 105,
      "chip": "ym2612"
    },
    {
      "channel": 0,
      "note": 65,
      "start": 27.221,
      "duration": 0.055,
      "velocity": 104,
      "chip": "ym2612"
    },
    {
      "channel": 5,
      "note": 89,
      "start": 27.3289,
      "duration": 0.0305,
      "velocity": 118,
      "chip": "ym2612"
    },
    {
      "channel": 4,
      "note": 70,
      "start": 27.3319,
      "duration": 0.044,
      "velocity": 106,
      "chip": "ym2612"
    },
    {
      "channel": 0,
      "note": 73,
      "start": 27.3352,
      "duration": 0.0574,
      "velocity": 104,
      "chip": "ym2612"
    },
    {
      "channel": 3,
      "note": 67,
      "start": 27.3377,
      "duration": 0.0551,
      "velocity": 104,
      "chip": "ym2612"
    },
    {
      "channel": 0,
      "note": 65,
      "start": 27.4661,
      "duration": 0.0152,
      "velocity": 104,
      "chip": "ym2612"
    },
    {
      "channel": 1,
      "note": 30,
      "start": 27.5087,
      "duration": 0.0199,
      "velocity": 113,
      "chip": "ym2612"
    },
    {
      "channel": 4,
      "note": 70,
      "start": 27.5117,
      "duration": 0.0126,
      "velocity": 106,
      "chip": "ym2612"
    },
    {
      "channel": 2,
      "note": 39,
      "start": 27.5146,
      "duration": 0.0727,
      "velocity": 105,
      "chip": "ym2612"
    },
    {
      "channel": 0,
      "note": 67,
      "start": 27.5173,
      "duration": 0.0237,
      "velocity": 104,
      "chip": "ym2612"
    },
    {
      "channel": 3,
      "note": 73,
      "start": 27.5208,
      "duration": 0.0035,
      "velocity": 104,
      "chip": "ym2612"
    },
    {
      "channel": 3,
      "note": 89,
      "start": 27.5568,
      "duration": 0.0137,
      "velocity": 118,
      "chip": "ym2612"
    },
    {
      "channel": 0,
      "note": 65,
      "start": 27.5598,
      "duration": 0.0272,
      "velocity": 104,
      "chip": "ym2612"
    },
    {
      "channel": 3,
      "note": 89,
      "start": 27.6733,
      "duration": 0.0304,
      "velocity": 118,
      "chip": "ym2612"
    },
    {
      "channel": 4,
      "note": 70,
      "start": 27.6765,
      "duration": 0.0439,
      "velocity": 106,
      "chip": "ym2612"
    },
    {
      "channel": 0,
      "note": 65,
      "start": 27.6793,
      "duration": 0.0743,
      "velocity": 104,
      "chip": "ym2612"
    },
    {
      "channel": 4,
      "note": 70,
      "start": 27.8071,
      "duration": 0.0302,
      "velocity": 106,
      "chip": "ym2612"
    },
    {
      "channel": 2,
      "note": 37,
      "start": 27.8103,
      "duration": 0.4769,
      "velocity": 105,
      "chip": "ym2612"
    },
    {
      "channel": 0,
      "note": 73,
      "start": 27.8135,
      "duration": 0.0235,
      "velocity": 104,
      "chip": "ym2612"
    },
    {
      "channel": 1,
      "note": 68,
      "start": 27.8162,
      "duration": 0.0209,
      "velocity": 104,
      "chip": "ym2612"
    },
    {
      "channel": 4,
      "note": 70,
      "start": 27.9238,
      "duration": 0.0299,
      "velocity": 106,
      "chip": "ym2612"
    },
    {
      "channel": 0,
      "note": 73,
      "start": 27.9268,
      "duration": 0.0768,
      "velocity": 104,
      "chip": "ym2612"
    },
    {
      "channel": 1,
      "note": 68,
      "start": 27.9292,
      "duration": 0.0745,
      "velocity": 104,
      "chip": "ym2612"
    },
    {
      "channel": 3,
      "note": 89,
      "start": 28.0399,
      "duration": 0.0139,
      "velocity": 118,
      "chip": "ym2612"
    },
    {
      "channel": 4,
      "note": 70,
      "start": 28.043,
      "duration": 0.0275,
      "velocity": 106,
      "chip": "ym2612"
    },
    {
      "channel": 0,
      "note": 65,
      "start": 28.0458,
      "duration": 0.0578,
      "velocity": 104,
      "chip": "ym2612"
    },
    {
      "channel": 3,
      "note": 89,
      "start": 28.1566,
      "duration": 0.0305,
      "velocity": 118,
      "chip": "ym2612"
    },
    {
      "channel": 4,
      "note": 70,
      "start": 28.1596,
      "duration": 0.0441,
      "velocity": 106,
      "chip": "ym2612"
    },
    {
      "channel": 0,
      "note": 73,
      "start": 28.1626,
      "duration": 0.091,
      "velocity": 104,
      "chip": "ym2612"
    },
    {
      "channel": 1,
      "note": 67,
      "start": 28.1652,
      "duration": 0.072,
      "velocity": 104,
      "chip": "ym2612"
    },
    {
      "channel": 3,
      "note": 30,
      "start": 28.2939,
      "duration": 0.0188,
      "velocity": 113,
      "chip": "ym2612"
    },
    {
      "channel": 4,
      "note": 70,
      "start": 28.2964,
      "duration": 0.0107,
      "velocity": 106,
      "chip": "ym2612"
    },
    {
      "channel": 2,
      "note": 39,
      "start": 28.2997,
      "duration": 0.0701,
      "velocity": 105,
      "chip": "ym2612"
    },
    {
      "channel": 0,
      "note": 65,
      "start": 28.3025,
      "duration": 0.0171,
      "velocity": 104,
      "chip": "ym2612"
    },
    {
      "channel": 4,
      "note": 70,
      "start": 28.34,
      "duration": 0.012,
      "velocity": 106,
      "chip": "ym2612"
    },
    {
      "channel": 0,
      "note": 73,
      "start": 28.3436,
      "duration": 0.0144,
      "velocity": 104,
      "chip": "ym2612"
    },
    {
      "channel": 1,
      "note": 68,
      "start": 28.346,
      "duration": 0.0236,
      "velocity": 104,
      "chip": "ym2612"
    },
    {
      "channel": 3,
      "note": 89,
      "start": 28.3853,
      "duration": 0.0133,
      "velocity": 118,
      "chip": "ym2612"
    },
    {
      "channel": 4,
      "note": 70,
      "start": 28.3885,
      "duration": 0.0268,
      "velocity": 106,
      "chip": "ym2612"
    },
    {
      "channel": 2,
      "note": 37,
      "start": 28.3917,
      "duration": 0.0904,
      "velocity": 105,
      "chip": "ym2612"
    },
    {
      "channel": 0,
      "note": 65,
      "start": 28.3943,
      "duration": 0.0709,
      "velocity": 104,
      "chip": "ym2612"
    },
    {
      "channel": 3,
      "note": 89,
      "start": 28.5013,
      "duration": 0.0129,
      "velocity": 118,
      "chip": "ym2612"
    },
    {
      "channel": 2,
      "note": 39,
      "start": 28.5081,
      "duration": 0.0464,
      "velocity": 105,
      "chip": "ym2612"
    },
    {
      "channel": 0,
      "note": 73,
      "start": 28.5106,
      "duration": 0.026,
      "velocity": 104,
      "chip": "ym2612"
    },
    {
      "channel": 1,
      "note": 68,
      "start": 28.5129,
      "duration": 0.0172,
      "velocity": 104,
      "chip": "ym2612"
    },
    {
      "channel": 4,
      "note": 30,
      "start": 28.5591,
      "duration": 0.0173,
      "velocity": 113,
      "chip": "ym2612"
    },
    {
      "channel": 3,
      "note": 70,
      "start": 28.5619,
      "duration": 0.0095,
      "velocity": 106,
      "chip": "ym2612"
    },
    {
      "channel": 2,
      "note": 34,
      "start": 28.5648,
      "duration": 0.045,
      "velocity": 105,
      "chip": "ym2612"
    },
    {
      "channel": 0,
      "note": 65,
      "start": 28.567,
      "duration": 0.0093,
      "velocity": 104,
      "chip": "ym2612"
    },
    {
      "channel": 3,
      "note": 70,
      "start": 28.6131,
      "duration": 0.0299,
      "velocity": 106,
      "chip": "ym2612"
    },
    {
      "channel": 0,
      "note": 65,
      "start": 28.6159,
      "duration": 0.077,
      "velocity": 104,
      "chip": "ym2612"
    },
    {
      "channel": 1,
      "note": 89,
      "start": 28.7296,
      "duration": 0.0137,
      "velocity": 118,
      "chip": "ym2612"
    },
    {
      "channel": 3,
      "note": 70,
      "start": 28.7326,
      "duration": 0.0271,
      "velocity": 106,
      "chip": "ym2612"
    },
    {
      "channel": 2,
      "note": 34,
      "start": 28.7358,
      "duration": 0.1367,
      "velocity": 105,
      "chip": "ym2612"
    },
    {
      "channel": 0,
      "note": 68,
      "start": 28.739,
      "duration": 0.054,
      "velocity": 104,
      "chip": "ym2612"
    },
    {
      "channel": 4,
      "note": 70,
      "start": 28.7418,
      "duration": 0.018,
      "velocity": 104,
      "chip": "ym2612"
    },
    {
      "channel": 1,
      "note": 89,
      "start": 28.8459,
      "duration": 0.0137,
      "velocity": 118,
      "chip": "ym2612"
    },
    {
      "channel": 3,
      "note": 70,
      "start": 28.8494,
      "duration": 0.023,
      "velocity": 106,
      "chip": "ym2612"
    },
    {
      "channel": 0,
      "note": 70,
      "start": 28.8557,
      "duration": 0.031,
      "velocity": 104,
      "chip": "ym2612"
    },
    {
      "channel": 4,
      "note": 68,
      "start": 28.8582,
      "duration": 0.0213,
      "velocity": 104,
      "chip": "ym2612"
    },
    {
      "channel": 0,
      "note": 65,
      "start": 28.915,
      "duration": 0.0138,
      "velocity": 104,
      "chip": "ym2612"
    },
    {
      "channel": 1,
      "note": 30,
      "start": 28.956,
      "duration": 0.0198,
      "velocity": 113,
      "chip": "ym2612"
    },
    {
      "channel": 3,
      "note": 70,
      "start": 28.9595,
      "duration": 0.0123,
      "velocity": 106,
      "chip": "ym2612"
    },
    {
      "channel": 2,
      "note": 32,
      "start": 28.9623,
      "duration": 0.0695,
      "velocity": 105,
      "chip": "ym2612"
    },
    {
      "channel": 0,
      "note": 68,
      "start": 28.9648,
      "duration": 0.011,
      "velocity": 104,
      "chip": "ym2612"
    },
    {
      "channel": 4,
      "note": 70,
      "start": 28.9673,
      "duration": 0.0087,
      "velocity": 104,
      "chip": "ym2612"
    },
    {
      "channel": 3,
      "note": 70,
      "start": 29.0037,
      "duration": 0.0278,
      "velocity": 106,
      "chip": "ym2612"
    },
    {
      "channel": 0,
      "note": 65,
      "start": 29.0065,
      "duration": 0.075,
      "velocity": 104,
      "chip": "ym2612"
    },
    {
      "channel": 3,
      "note": 70,
      "start": 29.1182,
      "duration": 0.0467,
      "velocity": 106,
      "chip": "ym2612"
    },
    {
      "channel": 0,
      "note": 68,
      "start": 29.1212,
      "duration": 0.2436,
      "velocity": 104,
      "chip": "ym2612"
    },
    {
      "channel": 4,
      "note": 73,
      "start": 29.1237,
      "duration": 0.2413,
      "velocity": 104,
      "chip": "ym2612"
    },
    {
      "channel": 1,
      "note": 30,
      "start": 29.2345,
      "duration": 0.0637,
      "velocity": 113,
      "chip": "ym2612"
    },
    {
      "channel": 3,
      "note": 70,
      "start": 29.2373,
      "duration": 0.0442,
      "velocity": 106,
      "chip": "ym2612"
    },
    {
      "channel": 2,
      "note": 34,
      "start": 29.2408,
      "duration": 0.2408,
      "velocity": 105,
      "chip": "ym2612"
    },
    {
      "channel": 5,
      "note": 65,
      "start": 29.2437,
      "duration": 0.0547,
      "velocity": 104,
      "chip": "ym2612"
    },
    {
      "channel": 3,
      "note": 70,
      "start": 29.3684,
      "duration": 0.0298,
      "velocity": 106,
      "chip": "ym2612"
    },
    {
      "channel": 0,
      "note": 65,
      "start": 29.3712,
      "duration": 0.0769,
      "velocity": 104,
      "chip": "ym2612"
    },
    {
      "channel": 1,
      "note": 89,
      "start": 29.4846,
      "duration": 0.0136,
      "velocity": 118,
      "chip": "ym2612"
    },
    {
      "channel": 3,
      "note": 70,
      "start": 29.4876,
      "duration": 0.0273,
      "velocity": 106,
      "chip": "ym2612"
    },
    {
      "channel": 0,
      "note": 68,
      "start": 29.4906,
      "duration": 0.0575,
      "velocity": 104,
      "chip": "ym2612"
    },
    {
      "channel": 4,
      "note": 72,
      "start": 29.4936,
      "duration": 0.0713,
      "velocity": 104,
      "chip": "ym2612"
    },
    {
      "channel": 1,
      "note": 89,
      "start": 29.6009,
      "duration": 0.0139,
      "velocity": 118,
      "chip": "ym2612"
    },
    {
      "channel": 3,
      "note": 70,
      "start": 29.6039,
      "duration": 0.0443,
      "velocity": 106,
      "chip": "ym2612"
    },
    {
      "channel": 0,
      "note": 65,
      "start": 29.6067,
      "duration": 0.0747,
      "velocity": 104,
      "chip": "ym2612"
    },
    {
      "channel": 3,
      "note": 70,
      "start": 29.7215,
      "duration": 0.0176,
      "velocity": 106,
      "chip": "ym2612"
    },
    {
      "channel": 0,
      "note": 68,
      "start": 29.7242,
      "duration": 0.021,
      "velocity": 104,
      "chip": "ym2612"
    },
    {
      "channel": 4,
      "note": 70,
      "start": 29.7266,
      "duration": 0.0187,
      "velocity": 104,
      "chip": "ym2612"
    },
    {
      "channel": 3,
      "note": 70,
      "start": 29.7731,
      "duration": 0.01,
      "velocity": 106,
      "chip": "ym2612"
    },
    {
      "channel": 0,
      "note": 65,
      "start": 29.7759,
      "duration": 0.025,
      "velocity": 104,
      "chip": "ym2612"
    },
    {
      "channel": 1,
      "note": 89,
      "start": 29.8288,
      "duration": 0.0139,
      "velocity": 118,
      "chip": "ym2612"
    },
    {
      "channel": 3,
      "note": 70,
      "start": 29.8318,
      "duration": 0.0276,
      "velocity": 106,
      "chip": "ym2612"
    },
    {
      "channel": 1,
      "note": 89,
      "start": 29.9456,
      "duration": 0.0137,
      "velocity": 118,
      "chip": "ym2612"
    },
    {
      "channel": 3,
      "note": 70,
      "start": 29.9486,
      "duration": 0.0441,
      "velocity": 106,
      "chip": "ym2612"
    },
    {
      "channel": 2,
      "note": 32,
      "start": 29.9518,
      "duration": 0.1078,
      "velocity": 105,
      "chip": "ym2612"
    },
    {
      "channel": 0,
      "note": 65,
      "start": 29.9546,
      "duration": 0.0714,
      "velocity": 104,
      "chip": "ym2612"
    },
    {
      "channel": 4,
      "note": 30,
      "start": 30.0628,
      "duration": 0.0635,
      "velocity": 113,
      "chip": "ym2612"
    },
    {
      "channel": 3,
      "note": 70,
      "start": 30.0658,
      "duration": 0.0438,
      "velocity": 106,
      "chip": "ym2612"
    },
    {
      "channel": 2,
      "note": 34,
      "start": 30.0689,
      "duration": 0.0906,
      "velocity": 105,
      "chip": "ym2612"
    },
    {
      "channel": 0,
      "note": 68,
      "start": 30.0718,
      "duration": 0.0543,
      "velocity": 104,
      "chip": "ym2612"
    },
    {
      "channel": 5,
      "note": 70,
      "start": 30.075,
      "duration": 0.0347,
      "velocity": 104,
      "chip": "ym2612"
    },
    {
      "channel": 0,
      "note": 68,
      "start": 30.1965,
      "duration": 0.0797,
      "velocity": 104,
      "chip": "ym2612"
    },
    {
      "channel": 5,
      "note": 70,
      "start": 30.1992,
      "duration": 0.0437,
      "velocity": 104,
      "chip": "ym2612"
    },
    {
      "channel": 1,
      "note": 89,
      "start": 30.3126,
      "duration": 0.0134,
      "velocity": 118,
      "chip": "ym2612"
    },
    {
      "channel": 4,
      "note": 30,
      "start": 30.3154,
      "duration": 0.0609,
      "velocity": 113,
      "chip": "ym2612"
    },
    {
      "channel": 3,
      "note": 70,
      "start": 30.3187,
      "duration": 0.0242,
      "velocity": 106,
      "chip": "ym2612"
    },
    {
      "channel": 2,
      "note": 34,
      "start": 30.3218,
      "duration": 0.1546,
      "velocity": 105,
      "chip": "ym2612"
    },
    {
      "channel": 0,
      "note": 65,
      "start": 30.3244,
      "duration": 0.0517,
      "velocity": 104,
      "chip": "ym2612"
    },
    {
      "channel": 1,
      "note": 89,
      "start": 30.4289,
      "duration": 0.0137,
      "velocity": 118,
      "chip": "ym2612"
    },
    {
      "channel": 3,
      "note": 70,
      "start": 30.4319,
      "duration": 0.0442,
      "velocity": 106,
      "chip": "ym2612"
    },
    {
      "channel": 0,
      "note": 68,
      "start": 30.4347,
      "duration": 0.058,
      "velocity": 104,
      "chip": "ym2612"
    },
    {
      "channel": 5,
      "note": 70,
      "start": 30.4374,
      "duration": 0.0389,
      "velocity": 104,
      "chip": "ym2612"
    },
    {
      "channel": 3,
      "note": 70,
      "start": 30.5498,
      "duration": 0.0172,
      "velocity": 106,
      "chip": "ym2612"
    },
    {
      "channel": 0,
      "note": 65,
      "start": 30.5526,
      "duration": 0.0197,
      "velocity": 104,
      "chip": "ym2612"
    },
    {
      "channel": 4,
      "note": 30,
      "start": 30.6002,
      "duration": 0.0197,
      "velocity": 113,
      "chip": "ym2612"
    },
    {
      "channel": 3,
      "note": 70,
      "start": 30.6027,
      "duration": 0.0126,
      "velocity": 106,
      "chip": "ym2612"
    },
    {
      "channel": 2,
      "note": 37,
      "start": 30.6055,
      "duration": 0.0828,
      "velocity": 105,
      "chip": "ym2612"
    },
    {
      "channel": 0,
      "note": 68,
      "start": 30.6082,
      "duration": 0.0117,
      "velocity": 104,
      "chip": "ym2612"
    },
    {
      "channel": 1,
      "note": 70,
      "start": 30.6117,
      "duration": 0.0035,
      "velocity": 104,
      "chip": "ym2612"
    },
    {
      "channel": 3,
      "note": 70,
      "start": 30.6581,
      "duration": 0.03,
      "velocity": 106,
      "chip": "ym2612"
    },
    {
      "channel": 0,
      "note": 65,
      "start": 30.6608,
      "duration": 0.0272,
      "velocity": 104,
      "chip": "ym2612"
    },
    {
      "channel": 3,
      "note": 70,
      "start": 30.7747,
      "duration": 0.0467,
      "velocity": 106,
      "chip": "ym2612"
    },
    {
      "channel": 0,
      "note": 65,
      "start": 30.7776,
      "duration": 0.077,
      "velocity": 104,
      "chip": "ym2612"
    },
    {
      "channel": 4,
      "note": 30,
      "start": 30.8911,
      "duration": 0.0638,
      "velocity": 113,
      "chip": "ym2612"
    },
    {
      "channel": 3,
      "note": 70,
      "start": 30.8941,
      "duration": 0.044,
      "velocity": 106,
      "chip": "ym2612"
    },
    {
      "channel": 2,
      "note": 39,
      "start": 30.8972,
      "duration": 0.5284,
      "velocity": 105,
      "chip": "ym2612"
    },
    {
      "channel": 0,
      "note": 70,
      "start": 30.9001,
      "duration": 0.0544,
      "velocity": 104,
      "chip": "ym2612"
    },
    {
      "channel": 1,
      "note": 67,
      "start": 30.9025,
      "duration": 0.0522,
      "velocity": 104,
      "chip": "ym2612"
    },
    {
      "channel": 0,
      "note": 67,
      "start": 31.0254,
      "duration": 0.0625,
      "velocity": 104,
      "chip": "ym2612"
    },
    {
      "channel": 1,
      "note": 70,
      "start": 31.028,
      "duration": 0.0432,
      "velocity": 104,
      "chip": "ym2612"
    },
    {
      "channel": 5,
      "note": 89,
      "start": 31.1412,
      "duration": 0.0136,
      "velocity": 118,
      "chip": "ym2612"
    },
    {
      "channel": 3,
      "note": 70,
      "start": 31.1441,
      "duration": 0.0273,
      "velocity": 106,
      "chip": "ym2612"
    },
    {
      "channel": 0,
      "note": 65,
      "start": 31.1469,
      "duration": 0.0578,
      "velocity": 104,
      "chip": "ym2612"
    },
    {
      "channel": 5,
      "note": 89,
      "start": 31.2577,
      "duration": 0.0138,
      "velocity": 118,
      "chip": "ym2612"
    },
    {
      "channel": 0,
      "note": 67,
      "start": 31.2609,
      "duration": 0.0604,
      "velocity": 104,
      "chip": "ym2612"
    },
    {
      "channel": 1,
      "note": 70,
      "start": 31.2635,
      "duration": 0.0412,
      "velocity": 104,
      "chip": "ym2612"
    },
    {
      "channel": 3,
      "note": 70,
      "start": 31.3783,
      "duration": 0.0172,
      "velocity": 106,
      "chip": "ym2612"
    },
    {
      "channel": 0,
      "note": 65,
      "start": 31.3809,
      "duration": 0.0261,
      "velocity": 104,
      "chip": "ym2612"
    },
    {
      "channel": 0,
      "note": 67,
      "start": 31.4296,
      "duration": 0.0215,
      "velocity": 104,
      "chip": "ym2612"
    },
    {
      "channel": 1,
      "note": 70,
      "start": 31.4323,
      "duration": 0.0133,
      "velocity": 104,
      "chip": "ym2612"
    },
    {
      "channel": 4,
      "note": 89,
      "start": 31.4868,
      "duration": 0.0136,
      "velocity": 118,
      "chip": "ym2612"
    },
    {
      "channel": 3,
      "note": 70,
      "start": 31.49,
      "duration": 0.0271,
      "velocity": 106,
      "chip": "ym2612"
    },
    {
      "channel": 2,
      "note": 37,
      "start": 31.4935,
      "duration": 0.1071,
      "velocity": 105,
      "chip": "ym2612"
    },
    {
      "channel": 0,
      "note": 65,
      "start": 31.4963,
      "duration": 0.0707,
      "velocity": 104,
      "chip": "ym2612"
    },
    {
      "channel": 4,
      "note": 89,
      "start": 31.6035,
      "duration": 0.0169,
      "velocity": 118,
      "chip": "ym2612"
    },
    {
      "channel": 3,
      "note": 70,
      "start": 31.61,
      "duration": 0.0179,
      "velocity": 106,
      "chip": "ym2612"
    },
    {
      "channel": 2,
      "note": 39,
      "start": 31.6129,
      "duration": 0.0272,
      "velocity": 105,
      "chip": "ym2612"
    },
    {
      "channel": 0,
      "note": 68,
      "start": 31.6158,
      "duration": 0.018,
      "velocity": 104,
      "chip": "ym2612"
    },
    {
      "channel": 1,
      "note": 70,
      "start": 31.6182,
      "duration": 0.0097,
      "velocity": 104,
      "chip": "ym2612"
    },
    {
      "channel": 4,
      "note": 30,
      "start": 31.655,
      "duration": 0.0253,
      "velocity": 113,
      "chip": "ym2612"
    },
    {
      "channel": 3,
      "note": 70,
      "start": 31.6576,
      "duration": 0.0168,
      "velocity": 106,
      "chip": "ym2612"
    },
    {
      "channel": 2,
      "note": 34,
      "start": 31.6605,
      "duration": 0.0834,
      "velocity": 105,
      "chip": "ym2612"
    },
    {
      "channel": 0,
      "note": 65,
      "start": 31.664,
      "duration": 0.0161,
      "velocity": 104,
      "chip": "ym2612"
    },
    {
      "channel": 3,
      "note": 70,
      "start": 31.7138,
      "duration": 0.0299,
      "velocity": 106,
      "chip": "ym2612"
    },
    {
      "channel": 0,
      "note": 65,
      "start": 31.7166,
      "duration": 0.0938,
      "velocity": 104,
      "chip": "ym2612"
    },
    {
      "channel": 1,
      "note": 89,
      "start": 31.8302,
      "duration": 0.0138,
      "velocity": 118,
      "chip": "ym2612"
    },
    {
      "channel": 3,
      "note": 70,
      "start": 31.8332,
      "duration": 0.0272,
      "velocity": 106,
      "chip": "ym2612"
    },
    {
      "channel": 2,
      "note": 34,
      "start": 31.8364,
      "duration": 0.1433,
      "velocity": 105,
      "chip": "ym2612"
    },
    {
      "channel": 0,
      "note": 68,
      "start": 31.8393,
      "duration": 0.0046,
      "velocity": 104,
      "chip": "ym2612"
    },
    {
      "channel": 4,
      "note": 73,
      "start": 31.8424,
      "duration": 0.0181,
      "velocity": 104,
      "chip": "ym2612"
    },
    {
      "channel": 1,
      "note": 89,
      "start": 31.9466,
      "duration": 0.0132,
      "velocity": 118,
      "chip": "ym2612"
    },
    {
      "channel": 3,
      "note": 70,
      "start": 31.95,
      "duration": 0.0231,
      "velocity": 106,
      "chip": "ym2612"
    },
    {
      "channel": 0,
      "note": 73,
      "start": 31.9563,
      "duration": 0.0304,
      "velocity": 104,
      "chip": "ym2612"
    },
    {
      "channel": 4,
      "note": 68,
      "start": 31.9587,
      "duration": 0.0209,
      "velocity": 104,
      "chip": "ym2612"
    },
    {
      "channel": 3,
      "note": 70,
      "start": 32.0087,
      "duration": 0.0143,
      "velocity": 106,
      "chip": "ym2612"
    },
    {
      "channel": 0,
      "note": 65,
      "start": 32.0111,
      "duration": 0.018,
      "velocity": 104,
      "chip": "ym2612"
    },
    {
      "channel": 1,
      "note": 30,
      "start": 32.0559,
      "duration": 0.0192,
      "velocity": 113,
      "chip": "ym2612"
    },
    {
      "channel": 2,
      "note": 32,
      "start": 32.0599,
      "duration": 0.1319,
      "velocity": 105,
      "chip": "ym2612"
    },
    {
      "channel": 0,
      "note": 68,
      "start": 32.0624,
      "duration": 0.0127,
      "velocity": 104,
      "chip": "ym2612"
    },
    {
      "channel": 4,
      "note": 73,
      "start": 32.0649,
      "duration": 0.0047,
      "velocity": 104,
      "chip": "ym2612"
    },
    {
      "channel": 3,
      "note": 70,
      "start": 32.1115,
      "duration": 0.03,
      "velocity": 106,
      "chip": "ym2612"
    },
    {
      "channel": 0,
      "note": 65,
      "start": 32.1148,
      "duration": 0.0767,
      "velocity": 104,
      "chip": "ym2612"
    },
    {
      "channel": 0,
      "note": 68,
      "start": 32.2285,
      "duration": 0.213,
      "velocity": 104,
      "chip": "ym2612"
    },
    {
      "channel": 4,
      "note": 73,
      "start": 32.2312,
      "duration": 0.2438,
      "velocity": 104,
      "chip": "ym2612"
    },
    {
      "channel": 1,
      "note": 30,
      "start": 32.3449,
      "duration": 0.0632,
      "velocity": 113,
      "chip": "ym2612"
    },
    {
      "channel": 3,
      "note": 70,
      "start": 32.3477,
      "duration": 0.0439,
      "velocity": 106,
      "chip": "ym2612"
    },
    {
      "channel": 2,
      "note": 34,
      "start": 32.3508,
      "duration": 0.3242,
      "velocity": 105,
      "chip": "ym2612"
    },
    {
      "channel": 5,
      "note": 65,
      "start": 32.3538,
      "duration": 0.038,
      "velocity": 104,
      "chip": "ym2612"
    },
    {
      "channel": 0,
      "note": 65,
      "start": 32.4785,
      "duration": 0.063,
      "velocity": 104,
      "chip": "ym2612"
    },
    {
      "channel": 3,
      "note": 89,
      "start": 32.595,
      "duration": 0.0132,
      "velocity": 118,
      "chip": "ym2612"
    },
    {
      "channel": 5,
      "note": 70,
      "start": 32.5984,
      "duration": 0.0266,
      "velocity": 106,
      "chip": "ym2612"
    },
    {
      "channel": 0,
      "note": 68,
      "start": 32.6014,
      "duration": 0.0401,
      "velocity": 104,
      "chip": "ym2612"
    },
    {
      "channel": 4,
      "note": 72,
      "start": 32.6038,
      "duration": 0.0378,
      "velocity": 104,
      "chip": "ym2612"
    },
    {
      "channel": 3,
      "note": 89,
      "start": 32.7111,
      "duration": 0.0138,
      "velocity": 118,
      "chip": "ym2612"
    },
    {
      "channel": 5,
      "note": 70,
      "start": 32.7142,
      "duration": 0.0276,
      "velocity": 106,
      "chip": "ym2612"
    },
    {
      "channel": 0,
      "note": 65,
      "start": 32.7173,
      "duration": 0.0576,
      "velocity": 104,
      "chip": "ym2612"
    },
    {
      "channel": 1,
      "note": 70,
      "start": 32.8319,
      "duration": 0.0171,
      "velocity": 106,
      "chip": "ym2612"
    },
    {
      "channel": 0,
      "note": 70,
      "start": 32.8343,
      "duration": 0.0211,
      "velocity": 104,
      "chip": "ym2612"
    },
    {
      "channel": 4,
      "note": 68,
      "start": 32.8368,
      "duration": 0.0188,
      "velocity": 104,
      "chip": "ym2612"
    },
    {
      "channel": 1,
      "note": 70,
      "start": 32.8871,
      "duration": 0.0079,
      "velocity": 106,
      "chip": "ym2612"
    },
    {
      "channel": 0,
      "note": 65,
      "start": 32.8896,
      "duration": 0.0173,
      "velocity": 104,
      "chip": "ym2612"
    },
    {
      "channel": 1,
      "note": 70,
      "start": 32.9278,
      "duration": 0.0114,
      "velocity": 106,
      "chip": "ym2612"
    },
    {
      "channel": 0,
      "note": 68,
      "start": 32.9304,
      "duration": 0.003,
      "velocity": 104,
      "chip": "ym2612"
    },
    {
      "channel": 1,
      "note": 70,
      "start": 32.9763,
      "duration": 0.0115,
      "velocity": 106,
      "chip": "ym2612"
    },
    {
      "channel": 2,
      "note": 32,
      "start": 32.9797,
      "duration": 0.0325,
      "velocity": 105,
      "chip": "ym2612"
    },
    {
      "channel": 0,
      "note": 65,
      "start": 32.9823,
      "duration": 0.0183,
      "velocity": 104,
      "chip": "ym2612"
    },
    {
      "channel": 3,
      "note": 30,
      "start": 33.0209,
      "duration": 0.0265,
      "velocity": 113,
      "chip": "ym2612"
    },
    {
      "channel": 1,
      "note": 70,
      "start": 33.0235,
      "duration": 0.0176,
      "velocity": 106,
      "chip": "ym2612"
    },
    {
      "channel": 2,
      "note": 34,
      "start": 33.0276,
      "duration": 0.0528,
      "velocity": 105,
      "chip": "ym2612"
    },
    {
      "channel": 0,
      "note": 68,
      "start": 33.0301,
      "duration": 0.011,
      "velocity": 104,
      "chip": "ym2612"
    },
    {
      "channel": 4,
      "note": 70,
      "start": 33.0328,
      "duration": 0.0023,
      "velocity": 104,
      "chip": "ym2612"
    },
    {
      "channel": 1,
      "note": 70,
      "start": 33.0838,
      "duration": 0.0298,
      "velocity": 106,
      "chip": "ym2612"
    },
    {
      "channel": 0,
      "note": 68,
      "start": 33.0868,
      "duration": 0.06,
      "velocity": 104,
      "chip": "ym2612"
    },
    {
      "channel": 4,
      "note": 70,
      "start": 33.0895,
      "duration": 0.0243,
      "velocity": 104,
      "chip": "ym2612"
    },
    {
      "channel": 3,
      "note": 89,
      "start": 33.2,
      "duration": 0.0136,
      "velocity": 118,
      "chip": "ym2612"
    },
    {
      "channel": 5,
      "note": 30,
      "start": 33.2029,
      "duration": 0.0442,
      "velocity": 113,
      "chip": "ym2612"
    },
    {
      "channel": 2,
      "note": 34,
      "start": 33.2062,
      "duration": 0.1909,
      "velocity": 105,
      "chip": "ym2612"
    },
    {
      "channel": 0,
      "note": 65,
      "start": 33.2089,
      "duration": 0.0379,
      "velocity": 104,
      "chip": "ym2612"
    },
    {
      "channel": 3,
      "note": 89,
      "start": 33.3164,
      "duration": 0.0139,
      "velocity": 118,
      "chip": "ym2612"
    },
    {
      "channel": 1,
      "note": 70,
      "start": 33.3194,
      "duration": 0.0276,
      "velocity": 106,
      "chip": "ym2612"
    },
    {
      "channel": 0,
      "note": 68,
      "start": 33.3222,
      "duration": 0.0579,
      "velocity": 104,
      "chip": "ym2612"
    },
    {
      "channel": 4,
      "note": 70,
      "start": 33.3248,
      "duration": 0.0222,
      "velocity": 104,
      "chip": "ym2612"
    },
    {
      "channel": 0,
      "note": 65,
      "start": 33.4371,
      "duration": 0.0269,
      "velocity": 104,
      "chip": "ym2612"
    },
    {
      "channel": 3,
      "note": 30,
      "start": 33.4858,
      "duration": 0.0193,
      "velocity": 113,
      "chip": "ym2612"
    },
    {
      "channel": 1,
      "note": 70,
      "start": 33.4886,
      "duration": 0.0135,
      "velocity": 106,
      "chip": "ym2612"
    },
    {
      "channel": 2,
      "note": 37,
      "start": 33.4913,
      "duration": 0.1334,
      "velocity": 105,
      "chip": "ym2612"
    },
    {
      "channel": 0,
      "note": 68,
      "start": 33.4952,
      "duration": 0.0097,
      "velocity": 104,
      "chip": "ym2612"
    },
    {
      "channel": 4,
      "note": 70,
      "start": 33.4976,
      "duration": 0.0046,
      "velocity": 104,
      "chip": "ym2612"
    },
    {
      "channel": 1,
      "note": 89,
      "start": 33.5442,
      "duration": 0.0136,
      "velocity": 118,
      "chip": "ym2612"
    },
    {
      "channel": 0,
      "note": 65,
      "start": 33.5474,
      "duration": 0.0438,
      "velocity": 104,
      "chip": "ym2612"
    },
    {
      "channel": 1,
      "note": 89,
      "start": 33.6606,
      "duration": 0.0138,
      "velocity": 118,
      "chip": "ym2612"
    },
    {
      "channel": 4,
      "note": 70,
      "start": 33.6639,
      "duration": 0.0273,
      "velocity": 106,
      "chip": "ym2612"
    },
    {
      "channel": 0,
      "note": 65,
      "start": 33.6668,
      "duration": 0.0743,
      "velocity": 104,
      "chip": "ym2612"
    },
    {
      "channel": 4,
      "note": 70,
      "start": 33.7778,
      "duration": 0.047,
      "velocity": 106,
      "chip": "ym2612"
    },
    {
      "channel": 2,
      "note": 39,
      "start": 33.7811,
      "duration": 0.7058,
      "velocity": 105,
      "chip": "ym2612"
    },
    {
      "channel": 0,
      "note": 70,
      "start": 33.7839,
      "duration": 0.0406,
      "velocity": 104,
      "chip": "ym2612"
    },
    {
      "channel": 3,
      "note": 67,
      "start": 33.7866,
      "duration": 0.038,
      "velocity": 104,
      "chip": "ym2612"
    },
    {
      "channel": 4,
      "note": 70,
      "start": 33.9113,
      "duration": 0.03,
      "velocity": 106,
      "chip": "ym2612"
    },
    {
      "channel": 0,
      "note": 67,
      "start": 33.9146,
      "duration": 0.0599,
      "velocity": 104,
      "chip": "ym2612"
    },
    {
      "channel": 3,
      "note": 70,
      "start": 33.9173,
      "duration": 0.0405,
      "velocity": 104,
      "chip": "ym2612"
    },
    {
      "channel": 1,
      "note": 89,
      "start": 34.0274,
      "duration": 0.0137,
      "velocity": 118,
      "chip": "ym2612"
    },
    {
      "channel": 4,
      "note": 70,
      "start": 34.0305,
      "duration": 0.0274,
      "velocity": 106,
      "chip": "ym2612"
    },
    {
      "channel": 0,
      "note": 65,
      "start": 34.0332,
      "duration": 0.0412,
      "velocity": 104,
      "chip": "ym2612"
    },
    {
      "channel": 1,
      "note": 89,
      "start": 34.144,
      "duration": 0.0139,
      "velocity": 118,
      "chip": "ym2612"
    },
    {
      "channel": 4,
      "note": 70,
      "start": 34.147,
      "duration": 0.0276,
      "velocity": 106,
      "chip": "ym2612"
    },
    {
      "channel": 0,
      "note": 70,
      "start": 34.1498,
      "duration": 0.058,
      "velocity": 104,
      "chip": "ym2612"
    },
    {
      "channel": 3,
      "note": 67,
      "start": 34.1525,
      "duration": 0.072,
      "velocity": 104,
      "chip": "ym2612"
    },
    {
      "channel": 4,
      "note": 70,
      "start": 34.2646,
      "duration": 0.0175,
      "velocity": 106,
      "chip": "ym2612"
    },
    {
      "channel": 0,
      "note": 65,
      "start": 34.2671,
      "duration": 0.0265,
      "velocity": 104,
      "chip": "ym2612"
    },
    {
      "channel": 1,
      "note": 30,
      "start": 34.3096,
      "duration": 0.0239,
      "velocity": 113,
      "chip": "ym2612"
    },
    {
      "channel": 4,
      "note": 70,
      "start": 34.3123,
      "duration": 0.0154,
      "velocity": 106,
      "chip": "ym2612"
    },
    {
      "channel": 0,
      "note": 70,
      "start": 34.3149,
      "duration": 0.0256,
      "velocity": 104,
      "chip": "ym2612"
    },
    {
      "channel": 3,
      "note": 68,
      "start": 34.3177,
      "duration": 0.016,
      "velocity": 104,
      "chip": "ym2612"
    },
    {
      "channel": 4,
      "note": 89,
      "start": 34.3735,
      "duration": 0.0134,
      "velocity": 118,
      "chip": "ym2612"
    },
    {
      "channel": 1,
      "note": 30,
      "start": 34.3761,
      "duration": 0.044,
      "velocity": 113,
      "chip": "ym2612"
    },
    {
      "channel": 3,
      "note": 70,
      "start": 34.3793,
      "duration": 0.0242,
      "velocity": 106,
      "chip": "ym2612"
    },
    {
      "channel": 0,
      "note": 65,
      "start": 34.382,
      "duration": 0.038,
      "velocity": 104,
      "chip": "ym2612"
    },
    {
      "channel": 4,
      "note": 89,
      "start": 34.4896,
      "duration": 0.0109,
      "velocity": 118,
      "chip": "ym2612"
    },
    {
      "channel": 2,
      "note": 34,
      "start": 34.4968,
      "duration": 0.0549,
      "velocity": 105,
      "chip": "ym2612"
    },
    {
      "channel": 0,
      "note": 65,
      "start": 34.4991,
      "duration": 0.0193,
      "velocity": 104,
      "chip": "ym2612"
    },
    {
      "channel": 1,
      "note": 30,
      "start": 34.5407,
      "duration": 0.0228,
      "velocity": 113,
      "chip": "ym2612"
    },
    {
      "channel": 3,
      "note": 70,
      "start": 34.5434,
      "duration": 0.0142,
      "velocity": 106,
      "chip": "ym2612"
    },
    {
      "channel": 4,
      "note": 37,
      "start": 34.5466,
      "duration": 0.03,
      "velocity": 105,
      "chip": "ym2612"
    },
    {
      "channel": 0,
      "note": 65,
      "start": 34.5503,
      "duration": 0.1144,
      "velocity": 104,
      "chip": "ym2612"
    },
    {
      "channel": 3,
      "note": 70,
      "start": 34.5851,
      "duration": 0.0463,
      "velocity": 106,
      "chip": "ym2612"
    },
    {
      "channel": 2,
      "note": 89,
      "start": 34.7181,
      "duration": 0.0157,
      "velocity": 118,
      "chip": "ym2612"
    },
    {
      "channel": 1,
      "note": 30,
      "start": 34.7208,
      "duration": 0.0441,
      "velocity": 113,
      "chip": "ym2612"
    },
    {
      "channel": 3,
      "note": 70,
      "start": 34.7235,
      "duration": 0.0247,
      "velocity": 106,
      "chip": "ym2612"
    },
    {
      "channel": 4,
      "note": 37,
      "start": 34.7266,
      "duration": 0.1497,
      "velocity": 105,
      "chip": "ym2612"
    },
    {
      "channel": 0,
      "note": 70,
      "start": 34.7294,
      "duration": 0.0353,
      "velocity": 104,
      "chip": "ym2612"
    },
    {
      "channel": 5,
      "note": 77,
      "start": 34.7321,
      "duration": 0.0329,
      "velocity": 104,
      "chip": "ym2612"
    },
    {
      "channel": 2,
      "note": 89,
      "start": 34.8346,
      "duration": 0.0109,
      "velocity": 118,
      "chip": "ym2612"
    },
    {
      "channel": 3,
      "note": 70,
      "start": 34.8381,
      "duration": 0.0149,
      "velocity": 106,
      "chip": "ym2612"
    },
    {
      "channel": 0,
      "note": 65,
      "start": 34.8441,
      "duration": 0.0319,
      "velocity": 104,
      "chip": "ym2612"
    },
    {
      "channel": 0,
      "note": 77,
      "start": 34.8978,
      "duration": 0.02,
      "velocity": 104,
      "chip": "ym2612"
    },
    {
      "channel": 1,
      "note": 70,
      "start": 34.9007,
      "duration": 0.0113,
      "velocity": 104,
      "chip": "ym2612"
    },
    {
      "channel": 2,
      "note": 30,
      "start": 34.9387,
      "duration": 0.0269,
      "velocity": 113,
      "chip": "ym2612"
    },
    {
      "channel": 3,
      "note": 70,
      "start": 34.9415,
      "duration": 0.0177,
      "velocity": 106,
      "chip": "ym2612"
    },
    {
      "channel": 4,
      "note": 37,
      "start": 34.945,
      "duration": 0.0322,
      "velocity": 105,
      "chip": "ym2612"
    },
    {
      "channel": 0,
      "note": 70,
      "start": 34.9477,
      "duration": 0.0177,
      "velocity": 104,
      "chip": "ym2612"
    },
    {
      "channel": 1,
      "note": 77,
      "start": 34.9499,
      "duration": 0.0155,
      "velocity": 104,
      "chip": "ym2612"
    },
    {
      "channel": 3,
      "note": 70,
      "start": 34.9991,
      "duration": 0.0301,
      "velocity": 106,
      "chip": "ym2612"
    },
    {
      "channel": 0,
      "note": 65,
      "start": 35.002,
      "duration": 0.0772,
      "velocity": 104,
      "chip": "ym2612"
    },
    {
      "channel": 3,
      "note": 70,
      "start": 35.1158,
      "duration": 0.03,
      "velocity": 106,
      "chip": "ym2612"
    },
    {
      "channel": 0,
      "note": 70,
      "start": 35.1188,
      "duration": 0.2602,
      "velocity": 104,
      "chip": "ym2612"
    },
    {
      "channel": 1,
      "note": 77,
      "start": 35.1212,
      "duration": 0.258,
      "velocity": 104,
      "chip": "ym2612"
    },
    {
      "channel": 2,
      "note": 30,
      "start": 35.2328,
      "duration": 0.0632,
      "velocity": 113,
      "chip": "ym2612"
    },
    {
      "channel": 3,
      "note": 70,
      "start": 35.2355,
      "duration": 0.0436,
      "velocity": 106,
      "chip": "ym2612"
    },
    {
      "channel": 4,
      "note": 37,
      "start": 35.2386,
      "duration": 0.1906,
      "velocity": 105,
      "chip": "ym2612"
    },
    {
      "channel": 5,
      "note": 65,
      "start": 35.2419,
      "duration": 0.0374,
      "velocity": 104,
      "chip": "ym2612"
    },
    {
      "channel": 3,
      "note": 70,
      "start": 35.3491,
      "duration": 0.0468,
      "velocity": 106,
      "chip": "ym2612"
    },
    {
      "channel": 5,
      "note": 65,
      "start": 35.3521,
      "duration": 0.0938,
      "velocity": 104,
      "chip": "ym2612"
    },
    {
      "channel": 2,
      "note": 89,
      "start": 35.4823,
      "duration": 0.0137,
      "velocity": 118,
      "chip": "ym2612"
    },
    {
      "channel": 3,
      "note": 70,
      "start": 35.4853,
      "duration": 0.0272,
      "velocity": 106,
      "chip": "ym2612"
    },
    {
      "channel": 0,
      "note": 75,
      "start": 35.4883,
      "duration": 0.0409,
      "velocity": 104,
      "chip": "ym2612"
    },
    {
      "channel": 1,
      "note": 70,
      "start": 35.4909,
      "duration": 0.0716,
      "velocity": 104,
      "chip": "ym2612"
    },
    {
      "channel": 2,
      "note": 89,
      "start": 35.5989,
      "duration": 0.0137,
      "velocity": 118,
      "chip": "ym2612"
    },
    {
      "channel": 3,
      "note": 70,
      "start": 35.6019,
      "duration": 0.0272,
      "velocity": 106,
      "chip": "ym2612"
    },
    {
      "channel": 0,
      "note": 65,
      "start": 35.6046,
      "duration": 0.0744,
      "velocity": 104,
      "chip": "ym2612"
    },
    {
      "channel": 3,
      "note": 70,
      "start": 35.7192,
      "duration": 0.0175,
      "velocity": 106,
      "chip": "ym2612"
    },
    {
      "channel": 0,
      "note": 73,
      "start": 35.7217,
      "duration": 0.0271,
      "velocity": 104,
      "chip": "ym2612"
    },
    {
      "channel": 1,
      "note": 70,
      "start": 35.7242,
      "duration": 0.0189,
      "velocity": 104,
      "chip": "ym2612"
    },
    {
      "channel": 3,
      "note": 70,
      "start": 35.764,
      "duration": 0.0168,
      "velocity": 106,
      "chip": "ym2612"
    },
    {
      "channel": 0,
      "note": 65,
      "start": 35.7678,
      "duration": 0.0249,
      "velocity": 104,
      "chip": "ym2612"
    },
    {
      "channel": 2,
      "note": 89,
      "start": 35.8267,
      "duration": 0.0139,
      "velocity": 118,
      "chip": "ym2612"
    },
    {
      "channel": 3,
      "note": 70,
      "start": 35.8297,
      "duration": 0.0274,
      "velocity": 106,
      "chip": "ym2612"
    },
    {
      "channel": 0,
      "note": 70,
      "start": 35.8326,
      "duration": 0.0577,
      "velocity": 104,
      "chip": "ym2612"
    },
    {
      "channel": 1,
      "note": 75,
      "start": 35.8351,
      "duration": 0.0385,
      "velocity": 104,
      "chip": "ym2612"
    },
    {
      "channel": 2,
      "note": 89,
      "start": 35.9435,
      "duration": 0.0137,
      "velocity": 118,
      "chip": "ym2612"
    },
    {
      "channel": 3,
      "note": 70,
      "start": 35.9465,
      "duration": 0.0272,
      "velocity": 106,
      "chip": "ym2612"
    },
    {
      "channel": 4,
      "note": 32,
      "start": 35.9495,
      "duration": 0.0909,
      "velocity": 105,
      "chip": "ym2612"
    },
    {
      "channel": 0,
      "note": 65,
      "start": 35.9522,
      "duration": 0.0713,
      "velocity": 104,
      "chip": "ym2612"
    },
    {
      "channel": 5,
      "note": 30,
      "start": 36.0602,
      "duration": 0.0637,
      "velocity": 113,
      "chip": "ym2612"
    },
    {
      "channel": 3,
      "note": 70,
      "start": 36.0631,
      "duration": 0.044,
      "velocity": 106,
      "chip": "ym2612"
    },
    {
      "channel": 4,
      "note": 37,
      "start": 36.0662,
      "duration": 0.0743,
      "velocity": 105,
      "chip": "ym2612"
    },
    {
      "channel": 0,
      "note": 73,
      "start": 36.069,
      "duration": 0.0379,
      "velocity": 104,
      "chip": "ym2612"
    },
    {
      "channel": 1,
      "note": 70,
      "start": 36.0717,
      "duration": 0.052,
      "velocity": 104,
      "chip": "ym2612"
    },
    {
      "channel": 0,
      "note": 73,
      "start": 36.1777,
      "duration": 0.0792,
      "velocity": 104,
      "chip": "ym2612"
    },
    {
      "channel": 1,
      "note": 70,
      "start": 36.1801,
      "duration": 0.0769,
      "velocity": 104,
      "chip": "ym2612"
    },
    {
      "channel": 2,
      "note": 89,
      "start": 36.3105,
      "duration": 0.0133,
      "velocity": 118,
      "chip": "ym2612"
    },
    {
      "channel": 5,
      "note": 30,
      "start": 36.3133,
      "duration": 0.0438,
      "velocity": 113,
      "chip": "ym2612"
    },
    {
      "channel": 3,
      "note": 70,
      "start": 36.3166,
      "duration": 0.0237,
      "velocity": 106,
      "chip": "ym2612"
    },
    {
      "channel": 0,
      "note": 65,
      "start": 36.3194,
      "duration": 0.0542,
      "velocity": 104,
      "chip": "ym2612"
    },
    {
      "channel": 2,
      "note": 89,
      "start": 36.4268,
      "duration": 0.0137,
      "velocity": 118,
      "chip": "ym2612"
    },
    {
      "channel": 3,
      "note": 70,
      "start": 36.4298,
      "duration": 0.0273,
      "velocity": 106,
      "chip": "ym2612"
    },
    {
      "channel": 4,
      "note": 37,
      "start": 36.4332,
      "duration": 0.1424,
      "velocity": 105,
      "chip": "ym2612"
    },
    {
      "channel": 0,
      "note": 70,
      "start": 36.4361,
      "duration": 0.0541,
      "velocity": 104,
      "chip": "ym2612"
    },
    {
      "channel": 1,
      "note": 73,
      "start": 36.4387,
      "duration": 0.0183,
      "velocity": 104,
      "chip": "ym2612"
    },
    {
      "channel": 3,
      "note": 70,
      "start": 36.547,
      "duration": 0.017,
      "velocity": 106,
      "chip": "ym2612"
    },
    {
      "channel": 0,
      "note": 65,
      "start": 36.5495,
      "duration": 0.02,
      "velocity": 104,
      "chip": "ym2612"
    },
    {
      "channel": 2,
      "note": 30,
      "start": 36.5917,
      "duration": 0.0256,
      "velocity": 113,
      "chip": "ym2612"
    },
    {
      "channel": 3,
      "note": 70,
      "start": 36.5945,
      "duration": 0.0168,
      "velocity": 106,
      "chip": "ym2612"
    },
    {
      "channel": 4,
      "note": 37,
      "start": 36.5971,
      "duration": 0.0326,
      "velocity": 105,
      "chip": "ym2612"
    },
    {
      "channel": 0,
      "note": 73,
      "start": 36.5997,
      "duration": 0.0173,
      "velocity": 104,
      "chip": "ym2612"
    },
    {
      "channel": 1,
      "note": 70,
      "start": 36.6034,
      "duration": 0.0197,
      "velocity": 104,
      "chip": "ym2612"
    },
    {
      "channel": 3,
      "note": 70,
      "start": 36.6556,
      "duration": 0.03,
      "velocity": 106,
      "chip": "ym2612"
    },
    {
      "channel": 0,
      "note": 65,
      "start": 36.6585,
      "duration": 0.0438,
      "velocity": 104,
      "chip": "ym2612"
    },
    {
      "channel": 3,
      "note": 70,
      "start": 36.7723,
      "duration": 0.0299,
      "velocity": 106,
      "chip": "ym2612"
    },
    {
      "channel": 0,
      "note": 65,
      "start": 36.7751,
      "duration": 0.0772,
      "velocity": 104,
      "chip": "ym2612"
    },
    {
      "channel": 2,
      "note": 30,
      "start": 36.8888,
      "duration": 0.0636,
      "velocity": 113,
      "chip": "ym2612"
    },
    {
      "channel": 3,
      "note": 70,
      "start": 36.8918,
      "duration": 0.0438,
      "velocity": 106,
      "chip": "ym2612"
    },
    {
      "channel": 4,
      "note": 37,
      "start": 36.8948,
      "duration": 0.2575,
      "velocity": 105,
      "chip": "ym2612"
    },
    {
      "channel": 0,
      "note": 70,
      "start": 36.8976,
      "duration": 0.0713,
      "velocity": 104,
      "chip": "ym2612"
    },
    {
      "channel": 1,
      "note": 75,
      "start": 36.9001,
      "duration": 0.0521,
      "velocity": 104,
      "chip": "ym2612"
    },
    {
      "channel": 0,
      "note": 65,
      "start": 37.0056,
      "duration": 0.0633,
      "velocity": 104,
      "chip": "ym2612"
    },
    {
      "channel": 5,
      "note": 89,
      "start": 37.1386,
      "duration": 0.0138,
      "velocity": 118,
      "chip": "ym2612"
    },
    {
      "channel": 3,
      "note": 70,
      "start": 37.1416,
      "duration": 0.0274,
      "velocity": 106,
      "chip": "ym2612"
    },
    {
      "channel": 0,
      "note": 65,
      "start": 37.1445,
      "duration": 0.0576,
      "velocity": 104,
      "chip": "ym2612"
    },
    {
      "channel": 5,
      "note": 89,
      "start": 37.2552,
      "duration": 0.0139,
      "velocity": 118,
      "chip": "ym2612"
    },
    {
      "channel": 0,
      "note": 73,
      "start": 37.2585,
      "duration": 0.0436,
      "velocity": 104,
      "chip": "ym2612"
    },
    {
      "channel": 1,
      "note": 70,
      "start": 37.2613,
      "duration": 0.041,
      "velocity": 104,
      "chip": "ym2612"
    },
    {
      "channel": 3,
      "note": 70,
      "start": 37.3757,
      "duration": 0.0171,
      "velocity": 106,
      "chip": "ym2612"
    },
    {
      "channel": 0,
      "note": 65,
      "start": 37.3782,
      "duration": 0.026,
      "velocity": 104,
      "chip": "ym2612"
    },
    {
      "channel": 0,
      "note": 70,
      "start": 37.4207,
      "duration": 0.0271,
      "velocity": 104,
      "chip": "ym2612"
    },
    {
      "channel": 1,
      "note": 75,
      "start": 37.4232,
      "duration": 0.031,
      "velocity": 104,
      "chip": "ym2612"
    },
    {
      "channel": 2,
      "note": 89,
      "start": 37.4836,
      "duration": 0.0138,
      "velocity": 118,
      "chip": "ym2612"
    },
    {
      "channel": 3,
      "note": 70,
      "start": 37.4868,
      "duration": 0.0271,
      "velocity": 106,
      "chip": "ym2612"
    },
    {
      "channel": 4,
      "note": 41,
      "start": 37.4898,
      "duration": 0.1074,
      "velocity": 105,
      "chip": "ym2612"
    },
    {
      "channel": 0,
      "note": 65,
      "start": 37.4924,
      "duration": 0.0881,
      "velocity": 104,
      "chip": "ym2612"
    },
    {
      "channel": 2,
      "note": 89,
      "start": 37.6003,
      "duration": 0.0167,
      "velocity": 118,
      "chip": "ym2612"
    },
    {
      "channel": 3,
      "note": 70,
      "start": 37.6068,
      "duration": 0.0123,
      "velocity": 106,
      "chip": "ym2612"
    },
    {
      "channel": 4,
      "note": 37,
      "start": 37.6095,
      "duration": 0.0338,
      "velocity": 105,
      "chip": "ym2612"
    },
    {
      "channel": 0,
      "note": 70,
      "start": 37.6121,
      "duration": 0.031,
      "velocity": 104,
      "chip": "ym2612"
    },
    {
      "channel": 1,
      "note": 77,
      "start": 37.6146,
      "duration": 0.0221,
      "velocity": 104,
      "chip": "ym2612"
    },
    {
      "channel": 2,
      "note": 30,
      "start": 37.6519,
      "duration": 0.0255,
      "velocity": 113,
      "chip": "ym2612"
    },
    {
      "channel": 3,
      "note": 70,
      "start": 37.6546,
      "duration": 0.0112,
      "velocity": 106,
      "chip": "ym2612"
    },
    {
      "channel": 4,
      "note": 39,
      "start": 37.6573,
      "duration": 0.038,
      "velocity": 105,
      "chip": "ym2612"
    },
    {
      "channel": 0,
      "note": 65,
      "start": 37.6612,
      "duration": 0.0159,
      "velocity": 104,
      "chip": "ym2612"
    },
    {
      "channel": 3,
      "note": 70,
      "start": 37.7009,
      "duration": 0.0418,
      "velocity": 106,
      "chip": "ym2612"
    },
    {
      "channel": 0,
      "note": 65,
      "start": 37.7037,
      "duration": 0.089,
      "velocity": 104,
      "chip": "ym2612"
    },
    {
      "channel": 1,
      "note": 89,
      "start": 37.8291,
      "duration": 0.0161,
      "velocity": 118,
      "chip": "ym2612"
    },
    {
      "channel": 2,
      "note": 30,
      "start": 37.832,
      "duration": 0.0443,
      "velocity": 113,
      "chip": "ym2612"
    },
    {
      "channel": 3,
      "note": 70,
      "start": 37.8348,
      "duration": 0.0246,
      "velocity": 106,
      "chip": "ym2612"
    },
    {
      "channel": 4,
      "note": 39,
      "start": 37.8382,
      "duration": 0.1481,
      "velocity": 105,
      "chip": "ym2612"
    },
    {
      "channel": 0,
      "note": 75,
      "start": 37.8411,
      "duration": 0.0349,
      "velocity": 104,
      "chip": "ym2612"
    },
    {
      "channel": 5,
      "note": 70,
      "start": 37.8437,
      "duration": 0.0325,
      "velocity": 104,
      "chip": "ym2612"
    },
    {
      "channel": 1,
      "note": 89,
      "start": 37.9455,
      "duration": 0.0109,
      "velocity": 118,
      "chip": "ym2612"
    },
    {
      "channel": 3,
      "note": 70,
      "start": 37.9489,
      "duration": 0.0148,
      "velocity": 106,
      "chip": "ym2612"
    },
    {
      "channel": 0,
      "note": 65,
      "start": 37.9549,
      "duration": 0.0312,
      "velocity": 104,
      "chip": "ym2612"
    },
    {
      "channel": 3,
      "note": 70,
      "start": 38.0089,
      "duration": 0.0098,
      "velocity": 106,
      "chip": "ym2612"
    },
    {
      "channel": 0,
      "note": 70,
      "start": 38.0117,
      "duration": 0.0185,
      "velocity": 104,
      "chip": "ym2612"
    },
    {
      "channel": 2,
      "note": 77,
      "start": 38.0141,
      "duration": 0.0163,
      "velocity": 104,
      "chip": "ym2612"
    },
    {
      "channel": 1,
      "note": 30,
      "start": 38.0511,
      "duration": 0.025,
      "velocity": 113,
      "chip": "ym2612"
    },
    {
      "channel": 4,
      "note": 39,
      "start": 38.0538,
      "duration": 0.1188,
      "velocity": 105,
      "chip": "ym2612"
    },
    {
      "channel": 0,
      "note": 70,
      "start": 38.0567,
      "duration": 0.0253,
      "velocity": 104,
      "chip": "ym2612"
    },
    {
      "channel": 2,
      "note": 77,
      "start": 38.0602,
      "duration": 0.0221,
      "velocity": 104,
      "chip": "ym2612"
    },
    {
      "channel": 3,
      "note": 70,
      "start": 38.1092,
      "duration": 0.03,
      "velocity": 106,
      "chip": "ym2612"
    },
    {
      "channel": 0,
      "note": 65,
      "start": 38.1119,
      "duration": 0.0606,
      "velocity": 104,
      "chip": "ym2612"
    },
    {
      "channel": 0,
      "note": 77,
      "start": 38.2263,
      "duration": 0.2295,
      "velocity": 104,
      "chip": "ym2612"
    },
    {
      "channel": 2,
      "note": 70,
      "start": 38.2291,
      "duration": 0.2103,
      "velocity": 104,
      "chip": "ym2612"
    },
    {
      "channel": 1,
      "note": 30,
      "start": 38.3422,
      "duration": 0.0637,
      "velocity": 113,
      "chip": "ym2612"
    },
    {
      "channel": 3,
      "note": 70,
      "start": 38.345,
      "duration": 0.0276,
      "velocity": 106,
      "chip": "ym2612"
    },
    {
      "channel": 4,
      "note": 39,
      "start": 38.348,
      "duration": 0.258,
      "velocity": 105,
      "chip": "ym2612"
    },
    {
      "channel": 5,
      "note": 65,
      "start": 38.351,
      "duration": 0.2051,
      "velocity": 104,
      "chip": "ym2612"
    },
    {
      "channel": 3,
      "note": 89,
      "start": 38.5927,
      "duration": 0.0132,
      "velocity": 118,
      "chip": "ym2612"
    },
    {
      "channel": 1,
      "note": 70,
      "start": 38.5961,
      "duration": 0.0265,
      "velocity": 106,
      "chip": "ym2612"
    },
    {
      "channel": 0,
      "note": 70,
      "start": 38.599,
      "duration": 0.0568,
      "velocity": 104,
      "chip": "ym2612"
    },
    {
      "channel": 5,
      "note": 75,
      "start": 38.6022,
      "duration": 0.0372,
      "velocity": 104,
      "chip": "ym2612"
    },
    {
      "channel": 3,
      "note": 89,
      "start": 38.7088,
      "duration": 0.0137,
      "velocity": 118,
      "chip": "ym2612"
    },
    {
      "channel": 1,
      "note": 70,
      "start": 38.7118,
      "duration": 0.0276,
      "velocity": 106,
      "chip": "ym2612"
    },
    {
      "channel": 0,
      "note": 65,
      "start": 38.7146,
      "duration": 0.0746,
      "velocity": 104,
      "chip": "ym2612"
    },
    {
      "channel": 1,
      "note": 70,
      "start": 38.8292,
      "duration": 0.0117,
      "velocity": 106,
      "chip": "ym2612"
    },
    {
      "channel": 0,
      "note": 73,
      "start": 38.8317,
      "duration": 0.0273,
      "velocity": 104,
      "chip": "ym2612"
    },
    {
      "channel": 2,
      "note": 70,
      "start": 38.8343,
      "duration": 0.025,
      "velocity": 104,
      "chip": "ym2612"
    },
    {
      "channel": 1,
      "note": 70,
      "start": 38.8743,
      "duration": 0.0171,
      "velocity": 106,
      "chip": "ym2612"
    },
    {
      "channel": 0,
      "note": 65,
      "start": 38.8779,
      "duration": 0.0315,
      "velocity": 104,
      "chip": "ym2612"
    },
    {
      "channel": 1,
      "note": 70,
      "start": 38.9379,
      "duration": 0.03,
      "velocity": 106,
      "chip": "ym2612"
    },
    {
      "channel": 0,
      "note": 75,
      "start": 38.9409,
      "duration": 0.0436,
      "velocity": 104,
      "chip": "ym2612"
    },
    {
      "channel": 2,
      "note": 70,
      "start": 38.9441,
      "duration": 0.0574,
      "velocity": 104,
      "chip": "ym2612"
    },
    {
      "channel": 1,
      "note": 70,
      "start": 39.0546,
      "duration": 0.03,
      "velocity": 106,
      "chip": "ym2612"
    },
    {
      "channel": 0,
      "note": 65,
      "start": 39.0572,
      "duration": 0.0773,
      "velocity": 104,
      "chip": "ym2612"
    },
    {
      "channel": 4,
      "note": 30,
      "start": 39.1716,
      "duration": 0.0632,
      "velocity": 113,
      "chip": "ym2612"
    },
    {
      "channel": 1,
      "note": 70,
      "start": 39.1743,
      "duration": 0.0269,
      "velocity": 106,
      "chip": "ym2612"
    },
    {
      "channel": 3,
      "note": 39,
      "start": 39.1775,
      "duration": 0.1071,
      "velocity": 105,
      "chip": "ym2612"
    },
    {
      "channel": 0,
      "note": 73,
      "start": 39.1804,
      "duration": 0.0541,
      "velocity": 104,
      "chip": "ym2612"
    },
    {
      "channel": 2,
      "note": 70,
      "start": 39.183,
      "duration": 0.0519,
      "velocity": 104,
      "chip": "ym2612"
    },
    {
      "channel": 1,
      "note": 70,
      "start": 39.2881,
      "duration": 0.0464,
      "velocity": 106,
      "chip": "ym2612"
    },
    {
      "channel": 0,
      "note": 70,
      "start": 39.2911,
      "duration": 0.0934,
      "velocity": 104,
      "chip": "ym2612"
    },
    {
      "channel": 2,
      "note": 73,
      "start": 39.2939,
      "duration": 0.0575,
      "velocity": 104,
      "chip": "ym2612"
    },
    {
      "channel": 5,
      "note": 89,
      "start": 39.4043,
      "duration": 0.0304,
      "velocity": 118,
      "chip": "ym2612"
    },
    {
      "channel": 4,
      "note": 30,
      "start": 39.4071,
      "duration": 0.0609,
      "velocity": 113,
      "chip": "ym2612"
    },
    {
      "channel": 0,
      "note": 65,
      "start": 39.41,
      "duration": 0.0745,
      "velocity": 104,
      "chip": "ym2612"
    },
    {
      "channel": 5,
      "note": 89,
      "start": 39.5375,
      "duration": 0.0139,
      "velocity": 118,
      "chip": "ym2612"
    },
    {
      "channel": 1,
      "note": 70,
      "start": 39.5405,
      "duration": 0.0274,
      "velocity": 106,
      "chip": "ym2612"
    },
    {
      "channel": 3,
      "note": 39,
      "start": 39.5435,
      "duration": 0.1413,
      "velocity": 105,
      "chip": "ym2612"
    },
    {
      "channel": 0,
      "note": 73,
      "start": 39.5468,
      "duration": 0.0377,
      "velocity": 104,
      "chip": "ym2612"
    },
    {
      "channel": 2,
      "note": 70,
      "start": 39.5494,
      "duration": 0.0354,
      "velocity": 104,
      "chip": "ym2612"
    },
    {
      "channel": 0,
      "note": 65,
      "start": 39.6579,
      "duration": 0.021,
      "velocity": 104,
      "chip": "ym2612"
    },
    {
      "channel": 4,
      "note": 30,
      "start": 39.7003,
      "duration": 0.0254,
      "velocity": 113,
      "chip": "ym2612"
    },
    {
      "channel": 1,
      "note": 70,
      "start": 39.7032,
      "duration": 0.0165,
      "velocity": 106,
      "chip": "ym2612"
    },
    {
      "channel": 3,
      "note": 39,
      "start": 39.7058,
      "duration": 0.106,
      "velocity": 105,
      "chip": "ym2612"
    },
    {
      "channel": 0,
      "note": 70,
      "start": 39.7085,
      "duration": 0.1032,
      "velocity": 104,
      "chip": "ym2612"
    },
    {
      "channel": 2,
      "note": 73,
      "start": 39.7121,
      "duration": 0.0137,
      "velocity": 104,
      "chip": "ym2612"
    },
    {
      "channel": 1,
      "note": 89,
      "start": 39.748,
      "duration": 0.0303,
      "velocity": 118,
      "chip": "ym2612"
    },
    {
      "channel": 2,
      "note": 65,
      "start": 39.7515,
      "duration": 0.0437,
      "velocity": 104,
      "chip": "ym2612"
    },
    {
      "channel": 1,
      "note": 89,
      "start": 39.8812,
      "duration": 0.0138,
      "velocity": 118,
      "chip": "ym2612"
    },
    {
      "channel": 4,
      "note": 70,
      "start": 39.8846,
      "duration": 0.0272,
      "velocity": 106,
      "chip": "ym2612"
    },
    {
      "channel": 0,
      "note": 65,
      "start": 39.8874,
      "duration": 0.091,
      "velocity": 104,
      "chip": "ym2612"
    },
    {
      "channel": 5,
      "note": 30,
      "start": 39.9983,
      "duration": 0.0635,
      "velocity": 113,
      "chip": "ym2612"
    },
    {
      "channel": 4,
      "note": 70,
      "start": 40.0012,
      "duration": 0.0273,
      "velocity": 106,
      "chip": "ym2612"
    },
    {
      "channel": 3,
      "note": 39,
      "start": 40.0045,
      "duration": 0.5035,
      "velocity": 105,
      "chip": "ym2612"
    },
    {
      "channel": 0,
      "note": 70,
      "start": 40.0078,
      "duration": 0.1705,
      "velocity": 104,
      "chip": "ym2612"
    },
    {
      "channel": 2,
      "note": 73,
      "start": 40.0106,
      "duration": 0.0017,
      "velocity": 104,
      "chip": "ym2612"
    },
    {
      "channel": 4,
      "note": 70,
      "start": 40.115,
      "duration": 0.0468,
      "velocity": 106,
      "chip": "ym2612"
    },
    {
      "channel": 2,
      "note": 73,
      "start": 40.1181,
      "duration": 0.0604,
      "velocity": 104,
      "chip": "ym2612"
    },
    {
      "channel": 1,
      "note": 89,
      "start": 40.2312,
      "duration": 0.0305,
      "velocity": 118,
      "chip": "ym2612"
    },
    {
      "channel": 4,
      "note": 70,
      "start": 40.2342,
      "duration": 0.0441,
      "velocity": 106,
      "chip": "ym2612"
    },
    {
      "channel": 0,
      "note": 65,
      "start": 40.2371,
      "duration": 0.0746,
      "velocity": 104,
      "chip": "ym2612"
    },
    {
      "channel": 1,
      "note": 89,
      "start": 40.3646,
      "duration": 0.0137,
      "velocity": 118,
      "chip": "ym2612"
    },
    {
      "channel": 4,
      "note": 70,
      "start": 40.3676,
      "duration": 0.0275,
      "velocity": 106,
      "chip": "ym2612"
    },
    {
      "channel": 0,
      "note": 73,
      "start": 40.3706,
      "duration": 0.0411,
      "velocity": 104,
      "chip": "ym2612"
    },
    {
      "channel": 2,
      "note": 70,
      "start": 40.3732,
      "duration": 0.0387,
      "velocity": 104,
      "chip": "ym2612"
    },
    {
      "channel": 4,
      "note": 70,
      "start": 40.4852,
      "duration": 0.011,
      "velocity": 106,
      "chip": "ym2612"
    },
    {
      "channel": 0,
      "note": 65,
      "start": 40.4878,
      "duration": 0.0264,
      "velocity": 104,
      "chip": "ym2612"
    },
    {
      "channel": 4,
      "note": 70,
      "start": 40.5305,
      "duration": 0.0173,
      "velocity": 106,
      "chip": "ym2612"
    },
    {
      "channel": 0,
      "note": 70,
      "start": 40.5334,
      "duration": 0.0319,
      "velocity": 104,
      "chip": "ym2612"
    },
    {
      "channel": 2,
      "note": 75,
      "start": 40.5362,
      "duration": 0.0174,
      "velocity": 104,
      "chip": "ym2612"
    },
    {
      "channel": 1,
      "note": 89,
      "start": 40.5772,
      "duration": 0.03,
      "velocity": 118,
      "chip": "ym2612"
    },
    {
      "channel": 4,
      "note": 70,
      "start": 40.5803,
      "duration": 0.0436,
      "velocity": 106,
      "chip": "ym2612"
    },
    {
      "channel": 3,
      "note": 40,
      "start": 40.5833,
      "duration": 0.0739,
      "velocity": 105,
      "chip": "ym2612"
    },
    {
      "channel": 0,
      "note": 65,
      "start": 40.5861,
      "duration": 0.0877,
      "velocity": 104,
      "chip": "ym2612"
    },
    {
      "channel": 1,
      "note": 89,
      "start": 40.7099,
      "duration": 0.0133,
      "velocity": 118,
      "chip": "ym2612"
    },
    {
      "channel": 3,
      "note": 41,
      "start": 40.7167,
      "duration": 0.0404,
      "velocity": 105,
      "chip": "ym2612"
    },
    {
      "channel": 0,
      "note": 73,
      "start": 40.7193,
      "duration": 0.026,
      "velocity": 104,
      "chip": "ym2612"
    },
    {
      "channel": 2,
      "note": 70,
      "start": 40.7218,
      "duration": 0.0237,
      "velocity": 104,
      "chip": "ym2612"
    },
    {
      "channel": 4,
      "note": 30,
      "start": 40.7607,
      "duration": 0.0238,
      "velocity": 113,
      "chip": "ym2612"
    },
    {
      "channel": 1,
      "note": 70,
      "start": 40.7648,
      "duration": 0.0075,
      "velocity": 106,
      "chip": "ym2612"
    },
    {
      "channel": 0,
      "note": 65,
      "start": 40.7676,
      "duration": 0.1185,
      "velocity": 104,
      "chip": "ym2612"
    },
    {
      "channel": 1,
      "note": 70,
      "start": 40.8062,
      "duration": 0.0466,
      "velocity": 106,
      "chip": "ym2612"
    },
    {
      "channel": 3,
      "note": 42,
      "start": 40.8092,
      "duration": 0.0604,
      "velocity": 105,
      "chip": "ym2612"
    },
    {
      "channel": 2,
      "note": 89,
      "start": 40.9228,
      "duration": 0.0303,
      "velocity": 118,
      "chip": "ym2612"
    },
    {
      "channel": 1,
      "note": 70,
      "start": 40.9258,
      "duration": 0.0438,
      "velocity": 106,
      "chip": "ym2612"
    },
    {
      "channel": 3,
      "note": 42,
      "start": 40.9288,
      "duration": 0.1598,
      "velocity": 105,
      "chip": "ym2612"
    },
    {
      "channel": 0,
      "note": 70,
      "start": 40.932,
      "duration": 0.0708,
      "velocity": 104,
      "chip": "ym2612"
    },
    {
      "channel": 4,
      "note": 77,
      "start": 40.9348,
      "duration": 0.0514,
      "velocity": 104,
      "chip": "ym2612"
    },
    {
      "channel": 2,
      "note": 89,
      "start": 41.056,
      "duration": 0.011,
      "velocity": 118,
      "chip": "ym2612"
    },
    {
      "channel": 1,
      "note": 70,
      "start": 41.0594,
      "duration": 0.0151,
      "velocity": 106,
      "chip": "ym2612"
    },
    {
      "channel": 0,
      "note": 65,
      "start": 41.0654,
      "duration": 0.0231,
      "velocity": 104,
      "chip": "ym2612"
    },
    {
      "channel": 0,
      "note": 70,
      "start": 41.1184,
      "duration": 0.0271,
      "velocity": 104,
      "chip": "ym2612"
    },
    {
      "channel": 4,
      "note": 77,
      "start": 41.1209,
      "duration": 0.0181,
      "velocity": 104,
      "chip": "ym2612"
    },
    {
      "channel": 2,
      "note": 30,
      "start": 41.16,
      "duration": 0.0267,
      "velocity": 113,
      "chip": "ym2612"
    },
    {
      "channel": 1,
      "note": 70,
      "start": 41.1627,
      "duration": 0.0177,
      "velocity": 106,
      "chip": "ym2612"
    },
    {
      "channel": 3,
      "note": 42,
      "start": 41.1668,
      "duration": 0.0316,
      "velocity": 105,
      "chip": "ym2612"
    },
    {
      "channel": 0,
      "note": 70,
      "start": 41.1694,
      "duration": 0.0229,
      "velocity": 104,
      "chip": "ym2612"
    },
    {
      "channel": 4,
      "note": 77,
      "start": 41.1721,
      "duration": 0.0145,
      "velocity": 104,
      "chip": "ym2612"
    },
    {
      "channel": 1,
      "note": 70,
      "start": 41.2101,
      "duration": 0.0421,
      "velocity": 106,
      "chip": "ym2612"
    },
    {
      "channel": 0,
      "note": 65,
      "start": 41.2129,
      "duration": 0.0724,
      "velocity": 104,
      "chip": "ym2612"
    },
    {
      "channel": 1,
      "note": 70,
      "start": 41.3388,
      "duration": 0.0299,
      "velocity": 106,
      "chip": "ym2612"
    },
    {
      "channel": 0,
      "note": 70,
      "start": 41.3418,
      "duration": 0.227,
      "velocity": 104,
      "chip": "ym2612"
    },
    {
      "channel": 4,
      "note": 77,
      "start": 41.3443,
      "duration": 0.2246,
      "velocity": 104,
      "chip": "ym2612"
    },
    {
      "channel": 2,
      "note": 30,
      "start": 41.4553,
      "duration": 0.0637,
      "velocity": 113,
      "chip": "ym2612"
    },
    {
      "channel": 1,
      "note": 70,
      "start": 41.458,
      "duration": 0.0274,
      "velocity": 106,
      "chip": "ym2612"
    },
    {
      "channel": 3,
      "note": 42,
      "start": 41.461,
      "duration": 0.2245,
      "velocity": 105,
      "chip": "ym2612"
    },
    {
      "channel": 5,
      "note": 65,
      "start": 41.464,
      "duration": 0.005,
      "velocity": 104,
      "chip": "ym2612"
    },
    {
      "channel": 1,
      "note": 70,
      "start": 41.5723,
      "duration": 0.0464,
      "velocity": 106,
      "chip": "ym2612"
    },
    {
      "channel": 0,
      "note": 65,
      "start": 41.5751,
      "duration": 0.0936,
      "velocity": 104,
      "chip": "ym2612"
    },
    {
      "channel": 5,
      "note": 89,
      "start": 41.6886,
      "duration": 0.0303,
      "velocity": 118,
      "chip": "ym2612"
    },
    {
      "channel": 1,
      "note": 70,
      "start": 41.6916,
      "duration": 0.0438,
      "velocity": 106,
      "chip": "ym2612"
    },
    {
      "channel": 0,
      "note": 75,
      "start": 41.6949,
      "duration": 0.0738,
      "velocity": 104,
      "chip": "ym2612"
    },
    {
      "channel": 4,
      "note": 70,
      "start": 41.6975,
      "duration": 0.0715,
      "velocity": 104,
      "chip": "ym2612"
    },
    {
      "channel": 5,
      "note": 89,
      "start": 41.8217,
      "duration": 0.0138,
      "velocity": 118,
      "chip": "ym2612"
    },
    {
      "channel": 1,
      "note": 70,
      "start": 41.8247,
      "duration": 0.0275,
      "velocity": 106,
      "chip": "ym2612"
    },
    {
      "channel": 0,
      "note": 65,
      "start": 41.8274,
      "duration": 0.058,
      "velocity": 104,
      "chip": "ym2612"
    },
    {
      "channel": 1,
      "note": 70,
      "start": 41.9421,
      "duration": 0.0115,
      "velocity": 106,
      "chip": "ym2612"
    },
    {
      "channel": 0,
      "note": 73,
      "start": 41.9449,
      "duration": 0.0156,
      "velocity": 104,
      "chip": "ym2612"
    },
    {
      "channel": 4,
      "note": 70,
      "start": 41.9473,
      "duration": 0.0134,
      "velocity": 104,
      "chip": "ym2612"
    },
    {
      "channel": 1,
      "note": 70,
      "start": 41.9869,
      "duration": 0.0169,
      "velocity": 106,
      "chip": "ym2612"
    },
    {
      "channel": 0,
      "note": 65,
      "start": 41.9904,
      "duration": 0.0253,
      "velocity": 104,
      "chip": "ym2612"
    },
    {
      "channel": 2,
      "note": 89,
      "start": 42.0331,
      "duration": 0.0303,
      "velocity": 118,
      "chip": "ym2612"
    },
    {
      "channel": 1,
      "note": 70,
      "start": 42.0361,
      "duration": 0.0438,
      "velocity": 106,
      "chip": "ym2612"
    },
    {
      "channel": 0,
      "note": 75,
      "start": 42.039,
      "duration": 0.0575,
      "velocity": 104,
      "chip": "ym2612"
    },
    {
      "channel": 4,
      "note": 70,
      "start": 42.0421,
      "duration": 0.0712,
      "velocity": 104,
      "chip": "ym2612"
    },
    {
      "channel": 2,
      "note": 89,
      "start": 42.1664,
      "duration": 0.0137,
      "velocity": 118,
      "chip": "ym2612"
    },
    {
      "channel": 1,
      "note": 70,
      "start": 42.1694,
      "duration": 0.0272,
      "velocity": 106,
      "chip": "ym2612"
    },
    {
      "channel": 0,
      "note": 65,
      "start": 42.1721,
      "duration": 0.0578,
      "velocity": 104,
      "chip": "ym2612"
    },
    {
      "channel": 3,
      "note": 30,
      "start": 42.2832,
      "duration": 0.0468,
      "velocity": 113,
      "chip": "ym2612"
    },
    {
      "channel": 1,
      "note": 70,
      "start": 42.2861,
      "duration": 0.0272,
      "velocity": 106,
      "chip": "ym2612"
    },
    {
      "channel": 5,
      "note": 42,
      "start": 42.2893,
      "duration": 0.1074,
      "velocity": 105,
      "chip": "ym2612"
    },
    {
      "channel": 0,
      "note": 73,
      "start": 42.2922,
      "duration": 0.0211,
      "velocity": 104,
      "chip": "ym2612"
    },
    {
      "channel": 4,
      "note": 70,
      "start": 42.2947,
      "duration": 0.0188,
      "velocity": 104,
      "chip": "ym2612"
    },
    {
      "channel": 0,
      "note": 70,
      "start": 42.4004,
      "duration": 0.0962,
      "velocity": 104,
      "chip": "ym2612"
    },
    {
      "channel": 4,
      "note": 73,
      "start": 42.403,
      "duration": 0.0602,
      "velocity": 104,
      "chip": "ym2612"
    },
    {
      "channel": 2,
      "note": 89,
      "start": 42.5166,
      "duration": 0.0301,
      "velocity": 118,
      "chip": "ym2612"
    },
    {
      "channel": 3,
      "note": 30,
      "start": 42.5194,
      "duration": 0.0606,
      "velocity": 113,
      "chip": "ym2612"
    },
    {
      "channel": 1,
      "note": 70,
      "start": 42.5226,
      "duration": 0.0406,
      "velocity": 106,
      "chip": "ym2612"
    },
    {
      "channel": 5,
      "note": 42,
      "start": 42.5258,
      "duration": 0.1876,
      "velocity": 105,
      "chip": "ym2612"
    },
    {
      "channel": 0,
      "note": 65,
      "start": 42.5285,
      "duration": 0.068,
      "velocity": 104,
      "chip": "ym2612"
    },
    {
      "channel": 2,
      "note": 89,
      "start": 42.6497,
      "duration": 0.0137,
      "velocity": 118,
      "chip": "ym2612"
    },
    {
      "channel": 1,
      "note": 70,
      "start": 42.6526,
      "duration": 0.0274,
      "velocity": 106,
      "chip": "ym2612"
    },
    {
      "channel": 0,
      "note": 73,
      "start": 42.656,
      "duration": 0.0406,
      "velocity": 104,
      "chip": "ym2612"
    },
    {
      "channel": 4,
      "note": 70,
      "start": 42.6586,
      "duration": 0.0546,
      "velocity": 104,
      "chip": "ym2612"
    },
    {
      "channel": 1,
      "note": 70,
      "start": 42.7704,
      "duration": 0.0107,
      "velocity": 106,
      "chip": "ym2612"
    },
    {
      "channel": 0,
      "note": 65,
      "start": 42.7726,
      "duration": 0.0264,
      "velocity": 104,
      "chip": "ym2612"
    },
    {
      "channel": 3,
      "note": 30,
      "start": 42.815,
      "duration": 0.0252,
      "velocity": 113,
      "chip": "ym2612"
    },
    {
      "channel": 1,
      "note": 70,
      "start": 42.8175,
      "duration": 0.0124,
      "velocity": 106,
      "chip": "ym2612"
    },
    {
      "channel": 2,
      "note": 42,
      "start": 42.8203,
      "duration": 0.1047,
      "velocity": 105,
      "chip": "ym2612"
    },
    {
      "channel": 0,
      "note": 73,
      "start": 42.8229,
      "duration": 0.0171,
      "velocity": 104,
      "chip": "ym2612"
    },
    {
      "channel": 4,
      "note": 70,
      "start": 42.8263,
      "duration": 0.0197,
      "velocity": 104,
      "chip": "ym2612"
    },
    {
      "channel": 1,
      "note": 70,
      "start": 42.8615,
      "duration": 0.0469,
      "velocity": 106,
      "chip": "ym2612"
    },
    {
      "channel": 0,
      "note": 65,
      "start": 42.8644,
      "duration": 0.0439,
      "velocity": 104,
      "chip": "ym2612"
    },
    {
      "channel": 1,
      "note": 70,
      "start": 42.9949,
      "duration": 0.0301,
      "velocity": 106,
      "chip": "ym2612"
    },
    {
      "channel": 0,
      "note": 65,
      "start": 42.9978,
      "duration": 0.0604,
      "velocity": 104,
      "chip": "ym2612"
    },
    {
      "channel": 3,
      "note": 30,
      "start": 43.1113,
      "duration": 0.047,
      "velocity": 113,
      "chip": "ym2612"
    },
    {
      "channel": 1,
      "note": 70,
      "start": 43.1142,
      "duration": 0.0273,
      "velocity": 106,
      "chip": "ym2612"
    },
    {
      "channel": 2,
      "note": 42,
      "start": 43.1173,
      "duration": 0.6195,
      "velocity": 105,
      "chip": "ym2612"
    },
    {
      "channel": 0,
      "note": 70,
      "start": 43.1205,
      "duration": 0.1877,
      "velocity": 104,
      "chip": "ym2612"
    },
    {
      "channel": 4,
      "note": 75,
      "start": 43.1232,
      "duration": 0.0185,
      "velocity": 104,
      "chip": "ym2612"
    },
    {
      "channel": 4,
      "note": 75,
      "start": 43.2286,
      "duration": 0.0798,
      "velocity": 104,
      "chip": "ym2612"
    },
    {
      "channel": 5,
      "note": 89,
      "start": 43.3447,
      "duration": 0.0304,
      "velocity": 118,
      "chip": "ym2612"
    },
    {
      "channel": 1,
      "note": 70,
      "start": 43.3476,
      "duration": 0.044,
      "velocity": 106,
      "chip": "ym2612"
    },
    {
      "channel": 0,
      "note": 65,
      "start": 43.3505,
      "duration": 0.0576,
      "velocity": 104,
      "chip": "ym2612"
    },
    {
      "channel": 5,
      "note": 89,
      "start": 43.478,
      "duration": 0.0137,
      "velocity": 118,
      "chip": "ym2612"
    },
    {
      "channel": 0,
      "note": 75,
      "start": 43.4812,
      "duration": 0.0437,
      "velocity": 104,
      "chip": "ym2612"
    },
    {
      "channel": 4,
      "note": 70,
      "start": 43.4838,
      "duration": 0.0578,
      "velocity": 104,
      "chip": "ym2612"
    },
    {
      "channel": 1,
      "note": 70,
      "start": 43.5984,
      "duration": 0.0106,
      "velocity": 106,
      "chip": "ym2612"
    },
    {
      "channel": 0,
      "note": 65,
      "start": 43.6008,
      "duration": 0.0261,
      "velocity": 104,
      "chip": "ym2612"
    },
    {
      "channel": 0,
      "note": 70,
      "start": 43.6433,
      "duration": 0.0273,
      "velocity": 104,
      "chip": "ym2612"
    },
    {
      "channel": 4,
      "note": 75,
      "start": 43.6457,
      "duration": 0.0196,
      "velocity": 104,
      "chip": "ym2612"
    },
    {
      "channel": 3,
      "note": 89,
      "start": 43.6896,
      "duration": 0.0136,
      "velocity": 118,
      "chip": "ym2612"
    },
    {
      "channel": 1,
      "note": 70,
      "start": 43.6927,
      "duration": 0.0438,
      "velocity": 106,
      "chip": "ym2612"
    },
    {
      "channel": 0,
      "note": 65,
      "start": 43.6954,
      "duration": 0.0578,
      "velocity": 104,
      "chip": "ym2612"
    },
    {
      "channel": 3,
      "note": 89,
      "start": 43.8227,
      "duration": 0.0167,
      "velocity": 118,
      "chip": "ym2612"
    },
    {
      "channel": 1,
      "note": 70,
      "start": 43.8292,
      "duration": 0.0124,
      "velocity": 106,
      "chip": "ym2612"
    },
    {
      "channel": 2,
      "note": 40,
      "start": 43.8324,
      "duration": 0.0383,
      "velocity": 105,
      "chip": "ym2612"
    },
    {
      "channel": 0,
      "note": 75,
      "start": 43.8349,
      "duration": 0.0116,
      "velocity": 104,
      "chip": "ym2612"
    },
    {
      "channel": 4,
      "note": 70,
      "start": 43.8372,
      "duration": 0.0095,
      "velocity": 104,
      "chip": "ym2612"
    },
    {
      "channel": 3,
      "note": 30,
      "start": 43.8736,
      "duration": 0.0194,
      "velocity": 113,
      "chip": "ym2612"
    },
    {
      "channel": 1,
      "note": 70,
      "start": 43.8762,
      "duration": 0.0112,
      "velocity": 106,
      "chip": "ym2612"
    },
    {
      "channel": 2,
      "note": 41,
      "start": 43.8791,
      "duration": 0.0376,
      "velocity": 105,
      "chip": "ym2612"
    },
    {
      "channel": 0,
      "note": 65,
      "start": 43.8826,
      "duration": 0.0047,
      "velocity": 104,
      "chip": "ym2612"
    },
    {
      "channel": 1,
      "note": 70,
      "start": 43.9222,
      "duration": 0.0253,
      "velocity": 106,
      "chip": "ym2612"
    },
    {
      "channel": 0,
      "note": 65,
      "start": 43.925,
      "duration": 0.0891,
      "velocity": 104,
      "chip": "ym2612"
    },
    {
      "channel": 4,
      "note": 89,
      "start": 44.0339,
      "duration": 0.0162,
      "velocity": 118,
      "chip": "ym2612"
    },
    {
      "channel": 3,
      "note": 30,
      "start": 44.0367,
      "duration": 0.0608,
      "velocity": 113,
      "chip": "ym2612"
    },
    {
      "channel": 1,
      "note": 70,
      "start": 44.0394,
      "duration": 0.0414,
      "velocity": 106,
      "chip": "ym2612"
    },
    {
      "channel": 2,
      "note": 41,
      "start": 44.0425,
      "duration": 0.1581,
      "velocity": 105,
      "chip": "ym2612"
    },
    {
      "channel": 0,
      "note": 70,
      "start": 44.0458,
      "duration": 0.0683,
      "velocity": 104,
      "chip": "ym2612"
    },
    {
      "channel": 5,
      "note": 77,
      "start": 44.0485,
      "duration": 0.0491,
      "velocity": 104,
      "chip": "ym2612"
    },
    {
      "channel": 4,
      "note": 89,
      "start": 44.1671,
      "duration": 0.0115,
      "velocity": 118,
      "chip": "ym2612"
    },
    {
      "channel": 1,
      "note": 70,
      "start": 44.1704,
      "duration": 0.0153,
      "velocity": 106,
      "chip": "ym2612"
    },
    {
      "channel": 0,
      "note": 65,
      "start": 44.177,
      "duration": 0.0233,
      "velocity": 104,
      "chip": "ym2612"
    },
    {
      "channel": 1,
      "note": 70,
      "start": 44.2305,
      "duration": 0.0095,
      "velocity": 106,
      "chip": "ym2612"
    },
    {
      "channel": 0,
      "note": 70,
      "start": 44.2332,
      "duration": 0.0127,
      "velocity": 104,
      "chip": "ym2612"
    },
    {
      "channel": 3,
      "note": 77,
      "start": 44.2357,
      "duration": 0.0044,
      "velocity": 104,
      "chip": "ym2612"
    },
    {
      "channel": 4,
      "note": 30,
      "start": 44.2728,
      "duration": 0.0254,
      "velocity": 113,
      "chip": "ym2612"
    },
    {
      "channel": 2,
      "note": 41,
      "start": 44.2756,
      "duration": 0.088,
      "velocity": 105,
      "chip": "ym2612"
    },
    {
      "channel": 0,
      "note": 77,
      "start": 44.2794,
      "duration": 0.0186,
      "velocity": 104,
      "chip": "ym2612"
    },
    {
      "channel": 3,
      "note": 70,
      "start": 44.282,
      "duration": 0.0219,
      "velocity": 104,
      "chip": "ym2612"
    },
    {
      "channel": 1,
      "note": 70,
      "start": 44.3217,
      "duration": 0.0417,
      "velocity": 106,
      "chip": "ym2612"
    },
    {
      "channel": 0,
      "note": 65,
      "start": 44.3244,
      "duration": 0.0724,
      "velocity": 104,
      "chip": "ym2612"
    },
    {
      "channel": 0,
      "note": 77,
      "start": 44.4336,
      "duration": 0.0798,
      "velocity": 104,
      "chip": "ym2612"
    },
    {
      "channel": 3,
      "note": 70,
      "start": 44.4361,
      "duration": 0.0775,
      "velocity": 104,
      "chip": "ym2612"
    },
    {
      "channel": 4,
      "note": 30,
      "start": 44.5665,
      "duration": 0.047,
      "velocity": 113,
      "chip": "ym2612"
    },
    {
      "channel": 1,
      "note": 70,
      "start": 44.5692,
      "duration": 0.0276,
      "velocity": 106,
      "chip": "ym2612"
    },
    {
      "channel": 2,
      "note": 41,
      "start": 44.5724,
      "duration": 0.4879,
      "velocity": 105,
      "chip": "ym2612"
    },
    {
      "channel": 0,
      "note": 65,
      "start": 44.5751,
      "duration": 0.005,
      "velocity": 104,
      "chip": "ym2612"
    },
    {
      "channel": 0,
      "note": 65,
      "start": 44.6835,
      "duration": 0.0798,
      "velocity": 104,
      "chip": "ym2612"
    },
    {
      "channel": 5,
      "note": 89,
      "start": 44.8002,
      "duration": 0.0134,
      "velocity": 118,
      "chip": "ym2612"
    },
    {
      "channel": 1,
      "note": 70,
      "start": 44.8032,
      "duration": 0.0436,
      "velocity": 106,
      "chip": "ym2612"
    },
    {
      "channel": 0,
      "note": 75,
      "start": 44.8062,
      "duration": 0.0405,
      "velocity": 104,
      "chip": "ym2612"
    },
    {
      "channel": 3,
      "note": 70,
      "start": 44.8092,
      "duration": 0.0543,
      "velocity": 104,
      "chip": "ym2612"
    },
    {
      "channel": 5,
      "note": 89,
      "start": 44.9164,
      "duration": 0.0304,
      "velocity": 118,
      "chip": "ym2612"
    },
    {
      "channel": 1,
      "note": 70,
      "start": 44.9193,
      "duration": 0.0441,
      "velocity": 106,
      "chip": "ym2612"
    },
    {
      "channel": 0,
      "note": 65,
      "start": 44.9221,
      "duration": 0.058,
      "velocity": 104,
      "chip": "ym2612"
    },
    {
      "channel": 1,
      "note": 70,
      "start": 45.0536,
      "duration": 0.0119,
      "velocity": 106,
      "chip": "ym2612"
    },
    {
      "channel": 0,
      "note": 70,
      "start": 45.0564,
      "duration": 0.009,
      "velocity": 104,
      "chip": "ym2612"
    },
    {
      "channel": 3,
      "note": 75,
      "start": 45.0588,
      "duration": 0.0068,
      "velocity": 104,
      "chip": "ym2612"
    },
    {
      "channel": 1,
      "note": 70,
      "start": 45.1025,
      "duration": 0.009,
      "velocity": 106,
      "chip": "ym2612"
    },
    {
      "channel": 0,
      "note": 65,
      "start": 45.1051,
      "duration": 0.0301,
      "velocity": 104,
      "chip": "ym2612"
    },
    {
      "channel": 1,
      "note": 70,
      "start": 45.1444,
      "duration": 0.018,
      "velocity": 106,
      "chip": "ym2612"
    },
    {
      "channel": 0,
      "note": 70,
      "start": 45.1471,
      "duration": 0.027,
      "velocity": 104,
      "chip": "ym2612"
    },
    {
      "channel": 3,
      "note": 75,
      "start": 45.1505,
      "duration": 0.0176,
      "velocity": 104,
      "chip": "ym2612"
    },
    {
      "channel": 1,
      "note": 70,
      "start": 45.193,
      "duration": 0.0184,
      "velocity": 106,
      "chip": "ym2612"
    },
    {
      "channel": 2,
      "note": 40,
      "start": 45.1959,
      "duration": 0.0338,
      "velocity": 105,
      "chip": "ym2612"
    },
    {
      "channel": 0,
      "note": 65,
      "start": 45.1989,
      "duration": 0.0247,
      "velocity": 104,
      "chip": "ym2612"
    },
    {
      "channel": 3,
      "note": 75,
      "start": 45.2012,
      "duration": 0.0171,
      "velocity": 104,
      "chip": "ym2612"
    },
    {
      "channel": 4,
      "note": 30,
      "start": 45.2443,
      "duration": 0.0198,
      "velocity": 113,
      "chip": "ym2612"
    },
    {
      "channel": 1,
      "note": 70,
      "start": 45.2479,
      "duration": 0.0104,
      "velocity": 106,
      "chip": "ym2612"
    },
    {
      "channel": 2,
      "note": 41,
      "start": 45.2512,
      "duration": 0.0467,
      "velocity": 105,
      "chip": "ym2612"
    },
    {
      "channel": 0,
      "note": 65,
      "start": 45.2538,
      "duration": 0.0607,
      "velocity": 104,
      "chip": "ym2612"
    },
    {
      "channel": 1,
      "note": 70,
      "start": 45.3013,
      "duration": 0.0298,
      "velocity": 106,
      "chip": "ym2612"
    },
    {
      "channel": 3,
      "note": 89,
      "start": 45.4176,
      "duration": 0.0188,
      "velocity": 118,
      "chip": "ym2612"
    },
    {
      "channel": 4,
      "note": 30,
      "start": 45.4203,
      "duration": 0.034,
      "velocity": 113,
      "chip": "ym2612"
    },
    {
      "channel": 2,
      "note": 41,
      "start": 45.4236,
      "duration": 0.0892,
      "velocity": 105,
      "chip": "ym2612"
    },
    {
      "channel": 0,
      "note": 75,
      "start": 45.43,
      "duration": 0.0033,
      "velocity": 104,
      "chip": "ym2612"
    },
    {
      "channel": 1,
      "note": 80,
      "start": 45.4324,
      "duration": 0.0218,
      "velocity": 104,
      "chip": "ym2612"
    },
    {
      "channel": 0,
      "note": 69,
      "start": 45.4351,
      "duration": 0.0261,
      "velocity": 104,
      "chip": "ym2612"
    },
    {
      "channel": 3,
      "note": 89,
      "start": 45.4786,
      "duration": 0.0161,
      "velocity": 118,
      "chip": "ym2612"
    },
    {
      "channel": 1,
      "note": 70,
      "start": 45.4818,
      "duration": 0.0189,
      "velocity": 106,
      "chip": "ym2612"
    },
    {
      "channel": 0,
      "note": 65,
      "start": 45.4887,
      "duration": 0.0239,
      "velocity": 104,
      "chip": "ym2612"
    },
    {
      "channel": 0,
      "note": 69,
      "start": 45.5421,
      "duration": 0.0161,
      "velocity": 104,
      "chip": "ym2612"
    },
    {
      "channel": 4,
      "note": 80,
      "start": 45.5445,
      "duration": 0.0071,
      "velocity": 104,
      "chip": "ym2612"
    },
    {
      "channel": 3,
      "note": 75,
      "start": 45.547,
      "duration": 0.0045,
      "velocity": 104,
      "chip": "ym2612"
    },
    {
      "channel": 1,
      "note": 30,
      "start": 45.5895,
      "duration": 0.0307,
      "velocity": 113,
      "chip": "ym2612"
    },
    {
      "channel": 2,
      "note": 70,
      "start": 45.5925,
      "duration": 0.02,
      "velocity": 106,
      "chip": "ym2612"
    },
    {
      "channel": 3,
      "note": 41,
      "start": 45.5961,
      "duration": 0.0644,
      "velocity": 105,
      "chip": "ym2612"
    },
    {
      "channel": 0,
      "note": 69,
      "start": 45.6029,
      "duration": 0.003,
      "velocity": 104,
      "chip": "ym2612"
    },
    {
      "channel": 4,
      "note": 80,
      "start": 45.6051,
      "duration": 0.0073,
      "velocity": 104,
      "chip": "ym2612"
    },
    {
      "channel": 0,
      "note": 75,
      "start": 45.6078,
      "duration": 0.0124,
      "velocity": 104,
      "chip": "ym2612"
    },
    {
      "channel": 4,
      "note": 89,
      "start": 45.6412,
      "duration": 0.0081,
      "velocity": 118,
      "chip": "ym2612"
    },
    {
      "channel": 0,
      "note": 65,
      "start": 45.6479,
      "duration": 0.0246,
      "velocity": 104,
      "chip": "ym2612"
    },
    {
      "channel": 4,
      "note": 89,
      "start": 45.6875,
      "duration": 0.0166,
      "velocity": 118,
      "chip": "ym2612"
    },
    {
      "channel": 2,
      "note": 70,
      "start": 45.6905,
      "duration": 0.0205,
      "velocity": 106,
      "chip": "ym2612"
    },
    {
      "channel": 0,
      "note": 80,
      "start": 45.6978,
      "duration": 0.0204,
      "velocity": 104,
      "chip": "ym2612"
    },
    {
      "channel": 1,
      "note": 69,
      "start": 45.7002,
      "duration": 0.0105,
      "velocity": 104,
      "chip": "ym2612"
    },
    {
      "channel": 3,
      "note": 75,
      "start": 45.7027,
      "duration": 0.0156,
      "velocity": 104,
      "chip": "ym2612"
    },
    {
      "channel": 2,
      "note": 70,
      "start": 45.7512,
      "duration": 0.0145,
      "velocity": 106,
      "chip": "ym2612"
    },
    {
      "channel": 4,
      "note": 41,
      "start": 45.7541,
      "duration": 0.3271,
      "velocity": 105,
      "chip": "ym2612"
    },
    {
      "channel": 0,
      "note": 65,
      "start": 45.7568,
      "duration": 0.0086,
      "velocity": 104,
      "chip": "ym2612"
    },
    {
      "channel": 2,
      "note": 70,
      "start": 45.8049,
      "duration": 0.0133,
      "velocity": 106,
      "chip": "ym2612"
    },
    {
      "channel": 0,
      "note": 65,
      "start": 45.8074,
      "duration": 0.0616,
      "velocity": 104,
      "chip": "ym2612"
    },
    {
      "channel": 1,
      "note": 89,
      "start": 45.8888,
      "duration": 0.0136,
      "velocity": 118,
      "chip": "ym2612"
    },
    {
      "channel": 2,
      "note": 70,
      "start": 45.892,
      "duration": 0.0439,
      "velocity": 106,
      "chip": "ym2612"
    },
    {
      "channel": 0,
      "note": 75,
      "start": 45.8949,
      "duration": 0.0574,
      "velocity": 104,
      "chip": "ym2612"
    },
    {
      "channel": 3,
      "note": 80,
      "start": 45.8978,
      "duration": 0.0712,
      "velocity": 104,
      "chip": "ym2612"
    },
    {
      "channel": 5,
      "note": 69,
      "start": 45.9004,
      "duration": 0.0688,
      "velocity": 104,
      "chip": "ym2612"
    },
    {
      "channel": 1,
      "note": 89,
      "start": 46.0052,
      "duration": 0.0169,
      "velocity": 118,
      "chip": "ym2612"
    },
    {
      "channel": 2,
      "note": 70,
      "start": 46.0083,
      "duration": 0.0198,
      "velocity": 106,
      "chip": "ym2612"
    },
    {
      "channel": 0,
      "note": 65,
      "start": 46.0148,
      "duration": 0.0258,
      "velocity": 104,
      "chip": "ym2612"
    },
    {
      "channel": 2,
      "note": 70,
      "start": 46.0648,
      "duration": 0.0196,
      "velocity": 106,
      "chip": "ym2612"
    },
    {
      "channel": 3,
      "note": 37,
      "start": 46.0673,
      "duration": 0.235,
      "velocity": 105,
      "chip": "ym2612"
    },
    {
      "channel": 0,
      "note": 75,
      "start": 46.0744,
      "duration": 0.0034,
      "velocity": 104,
      "chip": "ym2612"
    },
    {
      "channel": 1,
      "note": 80,
      "start": 46.0771,
      "duration": 0.011,
      "velocity": 104,
      "chip": "ym2612"
    },
    {
      "channel": 0,
      "note": 70,
      "start": 46.0797,
      "duration": 0.0083,
      "velocity": 104,
      "chip": "ym2612"
    },
    {
      "channel": 4,
      "note": 30,
      "start": 46.119,
      "duration": 0.0293,
      "velocity": 113,
      "chip": "ym2612"
    },
    {
      "channel": 2,
      "note": 70,
      "start": 46.1229,
      "duration": 0.0166,
      "velocity": 106,
      "chip": "ym2612"
    },
    {
      "channel": 0,
      "note": 80,
      "start": 46.1299,
      "duration": 0.0033,
      "velocity": 104,
      "chip": "ym2612"
    },
    {
      "channel": 1,
      "note": 75,
      "start": 46.1324,
      "duration": 0.0158,
      "velocity": 104,
      "chip": "ym2612"
    },
    {
      "channel": 0,
      "note": 70,
      "start": 46.135,
      "duration": 0.0253,
      "velocity": 104,
      "chip": "ym2612"
    },
    {
      "channel": 2,
      "note": 89,
      "start": 46.1696,
      "duration": 0.012,
      "velocity": 118,
      "chip": "ym2612"
    },
    {
      "channel": 1,
      "note": 70,
      "start": 46.1737,
      "duration": 0.017,
      "velocity": 106,
      "chip": "ym2612"
    },
    {
      "channel": 0,
      "note": 65,
      "start": 46.1802,
      "duration": 0.0277,
      "velocity": 104,
      "chip": "ym2612"
    },
    {
      "channel": 2,
      "note": 89,
      "start": 46.2166,
      "duration": 0.0174,
      "velocity": 118,
      "chip": "ym2612"
    },
    {
      "channel": 0,
      "note": 75,
      "start": 46.2278,
      "duration": 0.0486,
      "velocity": 104,
      "chip": "ym2612"
    },
    {
      "channel": 4,
      "note": 80,
      "start": 46.2301,
      "duration": 0.0465,
      "velocity": 104,
      "chip": "ym2612"
    },
    {
      "channel": 1,
      "note": 70,
      "start": 46.2326,
      "duration": 0.073,
      "velocity": 104,
      "chip": "ym2612"
    },
    {
      "channel": 2,
      "note": 30,
      "start": 46.2835,
      "duration": 0.0244,
      "velocity": 113,
      "chip": "ym2612"
    },
    {
      "channel": 0,
      "note": 70,
      "start": 46.2876,
      "duration": 0.0116,
      "velocity": 106,
      "chip": "ym2612"
    },
    {
      "channel": 4,
      "note": 34,
      "start": 46.2927,
      "duration": 2.459,
      "velocity": 105,
      "chip": "ym2612"
    },
    {
      "channel": 0,
      "note": 34,
      "start": 46.3012,
      "duration": 2.4844,
      "velocity": 113,
      "chip": "ym2612"
    },
    {
      "channel": 3,
      "note": 70,
      "start": 46.3352,
      "duration": 0.0123,
      "velocity": 106,
      "chip": "ym2612"
    },
    {
      "channel": 1,
      "note": 89,
      "start": 46.419,
      "duration": 0.0134,
      "velocity": 118,
      "chip": "ym2612"
    },
    {
      "channel": 3,
      "note": 70,
      "start": 46.422,
      "duration": 0.0438,
      "velocity": 106,
      "chip": "ym2612"
    },
    {
      "channel": 1,
      "note": 89,
      "start": 46.5354,
      "duration": 0.0303,
      "velocity": 118,
      "chip": "ym2612"
    },
    {
      "channel": 3,
      "note": 70,
      "start": 46.5385,
      "duration": 0.0439,
      "velocity": 106,
      "chip": "ym2612"
    },
    {
      "channel": 2,
      "note": 30,
      "start": 46.715,
      "duration": 0.0169,
      "velocity": 113,
      "chip": "ym2612"
    },
    {
      "channel": 3,
      "note": 70,
      "start": 46.7178,
      "duration": 0.008,
      "velocity": 106,
      "chip": "ym2612"
    },
    {
      "channel": 3,
      "note": 70,
      "start": 46.766,
      "duration": 0.0466,
      "velocity": 106,
      "chip": "ym2612"
    },
    {
      "channel": 3,
      "note": 70,
      "start": 46.8827,
      "duration": 0.0468,
      "velocity": 106,
      "chip": "ym2612"
    },
    {
      "channel": 2,
      "note": 30,
      "start": 47.016,
      "duration": 0.0468,
      "velocity": 113,
      "chip": "ym2612"
    },
    {
      "channel": 3,
      "note": 70,
      "start": 47.0187,
      "duration": 0.0273,
      "velocity": 106,
      "chip": "ym2612"
    },
    {
      "channel": 3,
      "note": 70,
      "start": 47.1327,
      "duration": 0.03,
      "velocity": 106,
      "chip": "ym2612"
    },
    {
      "channel": 1,
      "note": 89,
      "start": 47.2489,
      "duration": 0.0137,
      "velocity": 118,
      "chip": "ym2612"
    },
    {
      "channel": 3,
      "note": 70,
      "start": 47.2518,
      "duration": 0.0275,
      "velocity": 106,
      "chip": "ym2612"
    },
    {
      "channel": 1,
      "note": 89,
      "start": 47.3655,
      "duration": 0.0305,
      "velocity": 118,
      "chip": "ym2612"
    },
    {
      "channel": 3,
      "note": 70,
      "start": 47.3688,
      "duration": 0.044,
      "velocity": 106,
      "chip": "ym2612"
    },
    {
      "channel": 3,
      "note": 70,
      "start": 47.5028,
      "duration": 0.0112,
      "velocity": 106,
      "chip": "ym2612"
    },
    {
      "channel": 2,
      "note": 68,
      "start": 47.5059,
      "duration": 0.0082,
      "velocity": 68,
      "chip": "ym2612"
    },
    {
      "channel": 3,
      "note": 70,
      "start": 47.5483,
      "duration": 0.0101,
      "velocity": 106,
      "chip": "ym2612"
    },
    {
      "channel": 2,
      "note": 68,
      "start": 47.5514,
      "duration": 0.0132,
      "velocity": 68,
      "chip": "ym2612"
    },
    {
      "channel": 1,
      "note": 89,
      "start": 47.5946,
      "duration": 0.0137,
      "velocity": 118,
      "chip": "ym2612"
    },
    {
      "channel": 3,
      "note": 70,
      "start": 47.5976,
      "duration": 0.0275,
      "velocity": 106,
      "chip": "ym2612"
    },
    {
      "channel": 1,
      "note": 89,
      "start": 47.7112,
      "duration": 0.0305,
      "velocity": 118,
      "chip": "ym2612"
    },
    {
      "channel": 3,
      "note": 70,
      "start": 47.7142,
      "duration": 0.0443,
      "velocity": 106,
      "chip": "ym2612"
    },
    {
      "channel": 2,
      "note": 68,
      "start": 47.7176,
      "duration": 0.0743,
      "velocity": 68,
      "chip": "ym2612"
    },
    {
      "channel": 5,
      "note": 30,
      "start": 47.845,
      "duration": 0.0469,
      "velocity": 113,
      "chip": "ym2612"
    },
    {
      "channel": 3,
      "note": 70,
      "start": 47.8479,
      "duration": 0.0271,
      "velocity": 106,
      "chip": "ym2612"
    },
    {
      "channel": 1,
      "note": 89,
      "start": 48.0782,
      "duration": 0.0115,
      "velocity": 118,
      "chip": "ym2612"
    },
    {
      "channel": 5,
      "note": 30,
      "start": 48.081,
      "duration": 0.0038,
      "velocity": 113,
      "chip": "ym2612"
    },
    {
      "channel": 3,
      "note": 70,
      "start": 48.0839,
      "duration": 0.0132,
      "velocity": 106,
      "chip": "ym2612"
    },
    {
      "channel": 1,
      "note": 89,
      "start": 48.1353,
      "duration": 0.0094,
      "velocity": 118,
      "chip": "ym2612"
    },
    {
      "channel": 3,
      "note": 70,
      "start": 48.1391,
      "duration": 0.0164,
      "velocity": 106,
      "chip": "ym2612"
    },
    {
      "channel": 3,
      "note": 70,
      "start": 48.1922,
      "duration": 0.0126,
      "velocity": 106,
      "chip": "ym2612"
    },
    {
      "channel": 2,
      "note": 30,
      "start": 48.244,
      "duration": 0.0198,
      "velocity": 113,
      "chip": "ym2612"
    },
    {
      "channel": 3,
      "note": 70,
      "start": 48.2465,
      "duration": 0.0113,
      "velocity": 106,
      "chip": "ym2612"
    },
    {
      "channel": 3,
      "note": 70,
      "start": 48.2924,
      "duration": 0.0118,
      "velocity": 106,
      "chip": "ym2612"
    },
    {
      "channel": 3,
      "note": 70,
      "start": 48.3379,
      "duration": 0.0213,
      "velocity": 106,
      "chip": "ym2612"
    },
    {
      "channel": 2,
      "note": 30,
      "start": 48.3993,
      "duration": 0.0204,
      "velocity": 113,
      "chip": "ym2612"
    },
    {
      "channel": 3,
      "note": 70,
      "start": 48.402,
      "duration": 0.0104,
      "velocity": 106,
      "chip": "ym2612"
    },
    {
      "channel": 1,
      "note": 89,
      "start": 48.5024,
      "duration": 0.0075,
      "velocity": 118,
      "chip": "ym2612"
    },
    {
      "channel": 3,
      "note": 70,
      "start": 48.5056,
      "duration": 0.0109,
      "velocity": 106,
      "chip": "ym2612"
    },
    {
      "channel": 1,
      "note": 89,
      "start": 48.5549,
      "duration": 0.0092,
      "velocity": 118,
      "chip": "ym2612"
    },
    {
      "channel": 3,
      "note": 70,
      "start": 48.6051,
      "duration": 0.0189,
      "velocity": 106,
      "chip": "ym2612"
    },
    {
      "channel": 1,
      "note": 89,
      "start": 48.7078,
      "duration": 0.0109,
      "velocity": 118,
      "chip": "ym2612"
    },
    {
      "channel": 3,
      "note": 70,
      "start": 48.7115,
      "duration": 0.0115,
      "velocity": 106,
      "chip": "ym2612"
    },
    {
      "channel": 1,
      "note": 89,
      "start": 48.7551,
      "duration": 0.0147,
      "velocity": 118,
      "chip": "ym2612"
    },
    {
      "channel": 3,
      "note": 70,
      "start": 48.7619,
      "duration": 0.0161,
      "velocity": 106,
      "chip": "ym2612"
    },
    {
      "channel": 4,
      "note": 32,
      "start": 48.7647,
      "duration": 0.0366,
      "velocity": 105,
      "chip": "ym2612"
    },
    {
      "channel": 2,
      "note": 30,
      "start": 48.8112,
      "duration": 0.0292,
      "velocity": 113,
      "chip": "ym2612"
    },
    {
      "channel": 3,
      "note": 70,
      "start": 48.8139,
      "duration": 0.0192,
      "velocity": 106,
      "chip": "ym2612"
    },
    {
      "channel": 4,
      "note": 34,
      "start": 48.8178,
      "duration": 0.116,
      "velocity": 105,
      "chip": "ym2612"
    },
    {
      "channel": 3,
      "note": 70,
      "start": 48.8718,
      "duration": 0.0117,
      "velocity": 106,
      "chip": "ym2612"
    },
    {
      "channel": 1,
      "note": 89,
      "start": 48.9532,
      "duration": 0.0138,
      "velocity": 118,
      "chip": "ym2612"
    },
    {
      "channel": 3,
      "note": 70,
      "start": 48.9562,
      "duration": 0.0276,
      "velocity": 106,
      "chip": "ym2612"
    }
  ]
}