{
  "track_name": "08 Menu BGM 5",
  "duration_sec": 63.64,
  "sample_rate": 44100,
  "note_count": 474,
  "unique_pitches": 9,
  "pitch_range": 106,
  "avg_note_duration": 0.06,
  "reconstruction_stats": {
    "notes_reconstructed": 474,
    "keyon_events": 474,
    "keyoff_events": 474,
    "orphan_keyons": 0,
    "unique_pitches": 9,
    "pitch_range": 106,
    "avg_duration_sec": 0.06
  },
  "metadata": {
    "source": "F\\FIFA International Soccer\\08 Menu BGM 5.vgz"
  },
  "notes": [
    {
      "channel": 1,
      "note": -1,
      "start": 0.0,
      "duration": 0.0704,
      "velocity": 127,
      "chip": "ym2612"
    },
    {
      "channel": 1,
      "note": 0,
      "start": 0.0704,
      "duration": 0.0899,
      "velocity": 127,
      "chip": "ym2612"
    },
    {
      "channel": 0,
      "note": 0,
      "start": 0.1799,
      "duration": 0.1474,
      "velocity": 126,
      "chip": "ym2612"
    },
    {
      "channel": 1,
      "note": 106,
      "start": 0.1817,
      "duration": 0.0621,
      "velocity": 114,
      "chip": "ym2612"
    },
    {
      "channel": 1,
      "note": 101,
      "start": 0.2956,
      "duration": 0.1322,
      "velocity": 127,
      "chip": "ym2612"
    },
    {
      "channel": 0,
      "note": 45,
      "start": 0.5221,
      "duration": 0.0332,
      "velocity": 126,
      "chip": "ym2612"
    },
    {
      "channel": 1,
      "note": 106,
      "start": 0.5224,
      "duration": 0.0501,
      "velocity": 127,
      "chip": "ym2612"
    },
    {
      "channel": 1,
      "note": 106,
      "start": 0.607,
      "duration": 0.0817,
      "velocity": 114,
      "chip": "ym2612"
    },
    {
      "channel": 1,
      "note": 101,
      "start": 0.7078,
      "duration": 0.0583,
      "velocity": 127,
      "chip": "ym2612"
    },
    {
      "channel": 0,
      "note": 45,
      "start": 0.8339,
      "duration": 0.1889,
      "velocity": 126,
      "chip": "ym2612"
    },
    {
      "channel": 1,
      "note": 106,
      "start": 0.8358,
      "duration": 0.0031,
      "velocity": 114,
      "chip": "ym2612"
    },
    {
      "channel": 1,
      "note": 101,
      "start": 0.841,
      "duration": 0.1597,
      "velocity": 127,
      "chip": "ym2612"
    },
    {
      "channel": 1,
      "note": 106,
      "start": 1.0205,
      "duration": 0.0025,
      "velocity": 114,
      "chip": "ym2612"
    },
    {
      "channel": 0,
      "note": 43,
      "start": 1.0234,
      "duration": 0.0597,
      "velocity": 126,
      "chip": "ym2612"
    },
    {
      "channel": 1,
      "note": 101,
      "start": 1.0252,
      "duration": 0.058,
      "velocity": 127,
      "chip": "ym2612"
    },
    {
      "channel": 1,
      "note": 106,
      "start": 1.1348,
      "duration": 0.0651,
      "velocity": 114,
      "chip": "ym2612"
    },
    {
      "channel": 1,
      "note": 101,
      "start": 1.2516,
      "duration": 0.0324,
      "velocity": 127,
      "chip": "ym2612"
    },
    {
      "channel": 1,
      "note": 106,
      "start": 1.3368,
      "duration": 0.0024,
      "velocity": 114,
      "chip": "ym2612"
    },
    {
      "channel": 1,
      "note": 101,
      "start": 1.345,
      "duration": 0.1656,
      "velocity": 127,
      "chip": "ym2612"
    },
    {
      "channel": 1,
      "note": 106,
      "start": 1.5626,
      "duration": 0.048,
      "velocity": 114,
      "chip": "ym2612"
    },
    {
      "channel": 1,
      "note": 101,
      "start": 1.6628,
      "duration": 0.0912,
      "velocity": 127,
      "chip": "ym2612"
    },
    {
      "channel": 0,
      "note": 45,
      "start": 1.7887,
      "duration": 0.1489,
      "velocity": 126,
      "chip": "ym2612"
    },
    {
      "channel": 1,
      "note": 106,
      "start": 1.7906,
      "duration": 0.0472,
      "velocity": 114,
      "chip": "ym2612"
    },
    {
      "channel": 1,
      "note": 101,
      "start": 1.8892,
      "duration": 0.1656,
      "velocity": 127,
      "chip": "ym2612"
    },
    {
      "channel": 0,
      "note": 45,
      "start": 2.1162,
      "duration": 0.0327,
      "velocity": 126,
      "chip": "ym2612"
    },
    {
      "channel": 1,
      "note": 106,
      "start": 2.1166,
      "duration": 0.0489,
      "velocity": 127,
      "chip": "ym2612"
    },
    {
      "channel": 1,
      "note": 106,
      "start": 2.2001,
      "duration": 0.0484,
      "velocity": 114,
      "chip": "ym2612"
    },
    {
      "channel": 1,
      "note": 101,
      "start": 2.3178,
      "duration": 0.058,
      "velocity": 127,
      "chip": "ym2612"
    },
    {
      "channel": 0,
      "note": 45,
      "start": 2.4269,
      "duration": 0.2017,
      "velocity": 126,
      "chip": "ym2612"
    },
    {
      "channel": 1,
      "note": 106,
      "start": 2.4288,
      "duration": 0.0038,
      "velocity": 114,
      "chip": "ym2612"
    },
    {
      "channel": 1,
      "note": 101,
      "start": 2.4349,
      "duration": 0.1587,
      "velocity": 127,
      "chip": "ym2612"
    },
    {
      "channel": 0,
      "note": 43,
      "start": 2.6305,
      "duration": 0.0072,
      "velocity": 126,
      "chip": "ym2612"
    },
    {
      "channel": 1,
      "note": 106,
      "start": 2.6309,
      "duration": 0.0037,
      "velocity": 127,
      "chip": "ym2612"
    },
    {
      "channel": 1,
      "note": 106,
      "start": 2.6557,
      "duration": 0.065,
      "velocity": 114,
      "chip": "ym2612"
    },
    {
      "channel": 1,
      "note": 101,
      "start": 2.773,
      "duration": 0.0054,
      "velocity": 127,
      "chip": "ym2612"
    },
    {
      "channel": 1,
      "note": 106,
      "start": 2.7818,
      "duration": 0.0024,
      "velocity": 114,
      "chip": "ym2612"
    },
    {
      "channel": 1,
      "note": 101,
      "start": 2.7876,
      "duration": 0.0029,
      "velocity": 127,
      "chip": "ym2612"
    },
    {
      "channel": 1,
      "note": 106,
      "start": 2.7943,
      "duration": 0.0691,
      "velocity": 127,
      "chip": "ym2612"
    },
    {
      "channel": 1,
      "note": 106,
      "start": 2.8634,
      "duration": 0.0751,
      "velocity": 127,
      "chip": "ym2612"
    },
    {
      "channel": 0,
      "note": 45,
      "start": 2.972,
      "duration": 0.1669,
      "velocity": 126,
      "chip": "ym2612"
    },
    {
      "channel": 1,
      "note": 106,
      "start": 2.9738,
      "duration": 0.0476,
      "velocity": 114,
      "chip": "ym2612"
    },
    {
      "channel": 1,
      "note": 101,
      "start": 3.0739,
      "duration": 0.1477,
      "velocity": 127,
      "chip": "ym2612"
    },
    {
      "channel": 0,
      "note": 45,
      "start": 3.3085,
      "duration": 0.0317,
      "velocity": 126,
      "chip": "ym2612"
    },
    {
      "channel": 1,
      "note": 106,
      "start": 3.3089,
      "duration": 0.0651,
      "velocity": 127,
      "chip": "ym2612"
    },
    {
      "channel": 1,
      "note": 106,
      "start": 3.3924,
      "duration": 0.0813,
      "velocity": 114,
      "chip": "ym2612"
    },
    {
      "channel": 1,
      "note": 101,
      "start": 3.5101,
      "duration": 0.0564,
      "velocity": 127,
      "chip": "ym2612"
    },
    {
      "channel": 0,
      "note": 45,
      "start": 3.6184,
      "duration": 0.2057,
      "velocity": 126,
      "chip": "ym2612"
    },
    {
      "channel": 1,
      "note": 106,
      "start": 3.6203,
      "duration": 0.0023,
      "velocity": 114,
      "chip": "ym2612"
    },
    {
      "channel": 1,
      "note": 101,
      "start": 3.6258,
      "duration": 0.1581,
      "velocity": 127,
      "chip": "ym2612"
    },
    {
      "channel": 1,
      "note": 106,
      "start": 3.8202,
      "duration": 0.002,
      "velocity": 114,
      "chip": "ym2612"
    },
    {
      "channel": 0,
      "note": 43,
      "start": 3.8241,
      "duration": 0.0739,
      "velocity": 126,
      "chip": "ym2612"
    },
    {
      "channel": 1,
      "note": 101,
      "start": 3.826,
      "duration": 0.0387,
      "velocity": 127,
      "chip": "ym2612"
    },
    {
      "channel": 1,
      "note": 106,
      "start": 3.9335,
      "duration": 0.0485,
      "velocity": 114,
      "chip": "ym2612"
    },
    {
      "channel": 1,
      "note": 101,
      "start": 4.0342,
      "duration": 0.0316,
      "velocity": 127,
      "chip": "ym2612"
    },
    {
      "channel": 1,
      "note": 106,
      "start": 4.1354,
      "duration": 0.0019,
      "velocity": 114,
      "chip": "ym2612"
    },
    {
      "channel": 0,
      "note": 45,
      "start": 4.1381,
      "duration": 0.1541,
      "velocity": 126,
      "chip": "ym2612"
    },
    {
      "channel": 1,
      "note": 101,
      "start": 4.1399,
      "duration": 0.1524,
      "velocity": 127,
      "chip": "ym2612"
    },
    {
      "channel": 0,
      "note": 40,
      "start": 4.3432,
      "duration": 0.1171,
      "velocity": 126,
      "chip": "ym2612"
    },
    {
      "channel": 1,
      "note": 106,
      "start": 4.3451,
      "duration": 0.0644,
      "velocity": 114,
      "chip": "ym2612"
    },
    {
      "channel": 1,
      "note": 101,
      "start": 4.462,
      "duration": 0.0738,
      "velocity": 127,
      "chip": "ym2612"
    },
    {
      "channel": 0,
      "note": 43,
      "start": 4.5704,
      "duration": 0.1658,
      "velocity": 126,
      "chip": "ym2612"
    },
    {
      "channel": 1,
      "note": 106,
      "start": 4.5722,
      "duration": 0.0471,
      "velocity": 114,
      "chip": "ym2612"
    },
    {
      "channel": 1,
      "note": 101,
      "start": 4.688,
      "duration": 0.1649,
      "velocity": 127,
      "chip": "ym2612"
    },
    {
      "channel": 0,
      "note": 45,
      "start": 4.9063,
      "duration": 0.0333,
      "velocity": 126,
      "chip": "ym2612"
    },
    {
      "channel": 1,
      "note": 106,
      "start": 4.9067,
      "duration": 0.0656,
      "velocity": 127,
      "chip": "ym2612"
    },
    {
      "channel": 1,
      "note": 106,
      "start": 5.0078,
      "duration": 0.048,
      "velocity": 114,
      "chip": "ym2612"
    },
    {
      "channel": 1,
      "note": 101,
      "start": 5.1084,
      "duration": 0.0583,
      "velocity": 127,
      "chip": "ym2612"
    },
    {
      "channel": 0,
      "note": 45,
      "start": 5.2176,
      "duration": 0.2033,
      "velocity": 126,
      "chip": "ym2612"
    },
    {
      "channel": 1,
      "note": 106,
      "start": 5.2194,
      "duration": 0.0036,
      "velocity": 114,
      "chip": "ym2612"
    },
    {
      "channel": 1,
      "note": 101,
      "start": 5.225,
      "duration": 0.1753,
      "velocity": 127,
      "chip": "ym2612"
    },
    {
      "channel": 0,
      "note": 43,
      "start": 5.4213,
      "duration": 0.0058,
      "velocity": 126,
      "chip": "ym2612"
    },
    {
      "channel": 1,
      "note": 106,
      "start": 5.4217,
      "duration": 0.0056,
      "velocity": 127,
      "chip": "ym2612"
    },
    {
      "channel": 1,
      "note": 106,
      "start": 5.4632,
      "duration": 0.0484,
      "velocity": 114,
      "chip": "ym2612"
    },
    {
      "channel": 1,
      "note": 101,
      "start": 5.5809,
      "duration": 0.0055,
      "velocity": 127,
      "chip": "ym2612"
    },
    {
      "channel": 1,
      "note": 106,
      "start": 5.5902,
      "duration": 0.0031,
      "velocity": 114,
      "chip": "ym2612"
    },
    {
      "channel": 1,
      "note": 101,
      "start": 5.5954,
      "duration": 0.0038,
      "velocity": 127,
      "chip": "ym2612"
    },
    {
      "channel": 1,
      "note": 106,
      "start": 5.6018,
      "duration": 0.0525,
      "velocity": 127,
      "chip": "ym2612"
    },
    {
      "channel": 1,
      "note": 106,
      "start": 5.6544,
      "duration": 0.0908,
      "velocity": 127,
      "chip": "ym2612"
    },
    {
      "channel": 0,
      "note": 45,
      "start": 5.7626,
      "duration": 0.1668,
      "velocity": 126,
      "chip": "ym2612"
    },
    {
      "channel": 1,
      "note": 106,
      "start": 5.7644,
      "duration": 0.0643,
      "velocity": 114,
      "chip": "ym2612"
    },
    {
      "channel": 1,
      "note": 101,
      "start": 5.8804,
      "duration": 0.1318,
      "velocity": 127,
      "chip": "ym2612"
    },
    {
      "channel": 0,
      "note": 45,
      "start": 6.1073,
      "duration": 0.0036,
      "velocity": 126,
      "chip": "ym2612"
    },
    {
      "channel": 1,
      "note": 106,
      "start": 6.1077,
      "duration": 0.0493,
      "velocity": 127,
      "chip": "ym2612"
    },
    {
      "channel": 1,
      "note": 106,
      "start": 6.1913,
      "duration": 0.0817,
      "velocity": 114,
      "chip": "ym2612"
    },
    {
      "channel": 1,
      "note": 101,
      "start": 6.2929,
      "duration": 0.0571,
      "velocity": 127,
      "chip": "ym2612"
    },
    {
      "channel": 0,
      "note": 45,
      "start": 6.4178,
      "duration": 0.1869,
      "velocity": 126,
      "chip": "ym2612"
    },
    {
      "channel": 1,
      "note": 106,
      "start": 6.4197,
      "duration": 0.0022,
      "velocity": 114,
      "chip": "ym2612"
    },
    {
      "channel": 1,
      "note": 101,
      "start": 6.4246,
      "duration": 0.1593,
      "velocity": 127,
      "chip": "ym2612"
    },
    {
      "channel": 1,
      "note": 106,
      "start": 6.6022,
      "duration": 0.0026,
      "velocity": 114,
      "chip": "ym2612"
    },
    {
      "channel": 0,
      "note": 43,
      "start": 6.6068,
      "duration": 0.1082,
      "velocity": 126,
      "chip": "ym2612"
    },
    {
      "channel": 1,
      "note": 101,
      "start": 6.6086,
      "duration": 0.0562,
      "velocity": 127,
      "chip": "ym2612"
    },
    {
      "channel": 1,
      "note": 106,
      "start": 6.7166,
      "duration": 0.0651,
      "velocity": 114,
      "chip": "ym2612"
    },
    {
      "channel": 1,
      "note": 101,
      "start": 6.8344,
      "duration": 0.0311,
      "velocity": 127,
      "chip": "ym2612"
    },
    {
      "channel": 1,
      "note": 106,
      "start": 6.9177,
      "duration": 0.0022,
      "velocity": 114,
      "chip": "ym2612"
    },
    {
      "channel": 1,
      "note": 101,
      "start": 6.9271,
      "duration": 0.1477,
      "velocity": 127,
      "chip": "ym2612"
    },
    {
      "channel": 1,
      "note": 106,
      "start": 7.1433,
      "duration": 0.0488,
      "velocity": 114,
      "chip": "ym2612"
    },
    {
      "channel": 1,
      "note": 101,
      "start": 7.2441,
      "duration": 0.091,
      "velocity": 127,
      "chip": "ym2612"
    },
    {
      "channel": 0,
      "note": 45,
      "start": 7.3692,
      "duration": 0.1333,
      "velocity": 126,
      "chip": "ym2612"
    },
    {
      "channel": 1,
      "note": 106,
      "start": 7.371,
      "duration": 0.048,
      "velocity": 114,
      "chip": "ym2612"
    },
    {
      "channel": 1,
      "note": 101,
      "start": 7.4704,
      "duration": 0.1651,
      "velocity": 127,
      "chip": "ym2612"
    },
    {
      "channel": 0,
      "note": 45,
      "start": 7.6968,
      "duration": 0.0334,
      "velocity": 126,
      "chip": "ym2612"
    },
    {
      "channel": 1,
      "note": 106,
      "start": 7.6971,
      "duration": 0.05,
      "velocity": 127,
      "chip": "ym2612"
    },
    {
      "channel": 1,
      "note": 106,
      "start": 7.7826,
      "duration": 0.0477,
      "velocity": 114,
      "chip": "ym2612"
    },
    {
      "channel": 1,
      "note": 101,
      "start": 7.8994,
      "duration": 0.0581,
      "velocity": 127,
      "chip": "ym2612"
    },
    {
      "channel": 0,
      "note": 45,
      "start": 8.0096,
      "duration": 0.2018,
      "velocity": 126,
      "chip": "ym2612"
    },
    {
      "channel": 1,
      "note": 106,
      "start": 8.0115,
      "duration": 0.0022,
      "velocity": 114,
      "chip": "ym2612"
    },
    {
      "channel": 1,
      "note": 101,
      "start": 8.0158,
      "duration": 0.1593,
      "velocity": 127,
      "chip": "ym2612"
    },
    {
      "channel": 0,
      "note": 43,
      "start": 8.2119,
      "duration": 0.0054,
      "velocity": 126,
      "chip": "ym2612"
    },
    {
      "channel": 1,
      "note": 106,
      "start": 8.2122,
      "duration": 0.0051,
      "velocity": 127,
      "chip": "ym2612"
    },
    {
      "channel": 1,
      "note": 106,
      "start": 8.2374,
      "duration": 0.0651,
      "velocity": 114,
      "chip": "ym2612"
    },
    {
      "channel": 1,
      "note": 101,
      "start": 8.3549,
      "duration": 0.0056,
      "velocity": 127,
      "chip": "ym2612"
    },
    {
      "channel": 1,
      "note": 106,
      "start": 8.3632,
      "duration": 0.0025,
      "velocity": 114,
      "chip": "ym2612"
    },
    {
      "channel": 1,
      "note": 101,
      "start": 8.3682,
      "duration": 0.0026,
      "velocity": 127,
      "chip": "ym2612"
    },
    {
      "channel": 1,
      "note": 106,
      "start": 8.3739,
      "duration": 0.0694,
      "velocity": 127,
      "chip": "ym2612"
    },
    {
      "channel": 1,
      "note": 106,
      "start": 8.4433,
      "duration": 0.0744,
      "velocity": 127,
      "chip": "ym2612"
    },
    {
      "channel": 0,
      "note": 45,
      "start": 8.5518,
      "duration": 0.1329,
      "velocity": 126,
      "chip": "ym2612"
    },
    {
      "channel": 1,
      "note": 106,
      "start": 8.5536,
      "duration": 0.0476,
      "velocity": 114,
      "chip": "ym2612"
    },
    {
      "channel": 1,
      "note": 101,
      "start": 8.6534,
      "duration": 0.148,
      "velocity": 127,
      "chip": "ym2612"
    },
    {
      "channel": 0,
      "note": 45,
      "start": 8.8887,
      "duration": 0.0323,
      "velocity": 126,
      "chip": "ym2612"
    },
    {
      "channel": 1,
      "note": 106,
      "start": 8.889,
      "duration": 0.0653,
      "velocity": 127,
      "chip": "ym2612"
    },
    {
      "channel": 1,
      "note": 106,
      "start": 8.973,
      "duration": 0.0815,
      "velocity": 114,
      "chip": "ym2612"
    },
    {
      "channel": 1,
      "note": 101,
      "start": 9.0907,
      "duration": 0.0568,
      "velocity": 127,
      "chip": "ym2612"
    },
    {
      "channel": 0,
      "note": 45,
      "start": 9.199,
      "duration": 0.2054,
      "velocity": 126,
      "chip": "ym2612"
    },
    {
      "channel": 1,
      "note": 106,
      "start": 9.2009,
      "duration": 0.002,
      "velocity": 114,
      "chip": "ym2612"
    },
    {
      "channel": 1,
      "note": 101,
      "start": 9.2063,
      "duration": 0.1588,
      "velocity": 127,
      "chip": "ym2612"
    },
    {
      "channel": 1,
      "note": 106,
      "start": 9.4005,
      "duration": 0.0023,
      "velocity": 114,
      "chip": "ym2612"
    },
    {
      "channel": 0,
      "note": 43,
      "start": 9.4045,
      "duration": 0.0417,
      "velocity": 126,
      "chip": "ym2612"
    },
    {
      "channel": 1,
      "note": 101,
      "start": 9.4063,
      "duration": 0.0399,
      "velocity": 127,
      "chip": "ym2612"
    },
    {
      "channel": 1,
      "note": 106,
      "start": 9.5145,
      "duration": 0.0481,
      "velocity": 114,
      "chip": "ym2612"
    },
    {
      "channel": 0,
      "note": 45,
      "start": 9.6146,
      "duration": 0.0161,
      "velocity": 126,
      "chip": "ym2612"
    },
    {
      "channel": 1,
      "note": 101,
      "start": 9.6164,
      "duration": 0.031,
      "velocity": 127,
      "chip": "ym2612"
    },
    {
      "channel": 0,
      "note": 40,
      "start": 9.6988,
      "duration": 0.0417,
      "velocity": 126,
      "chip": "ym2612"
    },
    {
      "channel": 1,
      "note": 106,
      "start": 9.7006,
      "duration": 0.0027,
      "velocity": 114,
      "chip": "ym2612"
    },
    {
      "channel": 1,
      "note": 101,
      "start": 9.7093,
      "duration": 0.1647,
      "velocity": 127,
      "chip": "ym2612"
    },
    {
      "channel": 0,
      "note": 43,
      "start": 9.9247,
      "duration": 0.1207,
      "velocity": 126,
      "chip": "ym2612"
    },
    {
      "channel": 1,
      "note": 106,
      "start": 9.9266,
      "duration": 0.0643,
      "velocity": 114,
      "chip": "ym2612"
    },
    {
      "channel": 1,
      "note": 101,
      "start": 10.0438,
      "duration": 0.0736,
      "velocity": 127,
      "chip": "ym2612"
    },
    {
      "channel": 1,
      "note": 106,
      "start": 10.1523,
      "duration": 0.049,
      "velocity": 114,
      "chip": "ym2612"
    },
    {
      "channel": 0,
      "note": 48,
      "start": 10.2686,
      "duration": 0.166,
      "velocity": 126,
      "chip": "ym2612"
    },
    {
      "channel": 1,
      "note": 101,
      "start": 10.2705,
      "duration": 0.1643,
      "velocity": 127,
      "chip": "ym2612"
    },
    {
      "channel": 1,
      "note": 106,
      "start": 10.4868,
      "duration": 0.0668,
      "velocity": 127,
      "chip": "ym2612"
    },
    {
      "channel": 0,
      "note": 45,
      "start": 10.5876,
      "duration": 0.104,
      "velocity": 126,
      "chip": "ym2612"
    },
    {
      "channel": 1,
      "note": 106,
      "start": 10.5894,
      "duration": 0.0482,
      "velocity": 114,
      "chip": "ym2612"
    },
    {
      "channel": 1,
      "note": 101,
      "start": 10.6895,
      "duration": 0.0573,
      "velocity": 127,
      "chip": "ym2612"
    },
    {
      "channel": 1,
      "note": 106,
      "start": 10.7999,
      "duration": 0.0023,
      "velocity": 114,
      "chip": "ym2612"
    },
    {
      "channel": 0,
      "note": 43,
      "start": 10.8027,
      "duration": 0.1779,
      "velocity": 126,
      "chip": "ym2612"
    },
    {
      "channel": 1,
      "note": 101,
      "start": 10.8045,
      "duration": 0.1762,
      "velocity": 127,
      "chip": "ym2612"
    },
    {
      "channel": 1,
      "note": 106,
      "start": 11.0004,
      "duration": 0.0049,
      "velocity": 127,
      "chip": "ym2612"
    },
    {
      "channel": 1,
      "note": 106,
      "start": 11.0437,
      "duration": 0.0477,
      "velocity": 114,
      "chip": "ym2612"
    },
    {
      "channel": 1,
      "note": 101,
      "start": 11.1606,
      "duration": 0.0059,
      "velocity": 127,
      "chip": "ym2612"
    },
    {
      "channel": 1,
      "note": 106,
      "start": 11.1697,
      "duration": 0.0021,
      "velocity": 114,
      "chip": "ym2612"
    },
    {
      "channel": 1,
      "note": 101,
      "start": 11.1739,
      "duration": 0.0028,
      "velocity": 127,
      "chip": "ym2612"
    },
    {
      "channel": 1,
      "note": 106,
      "start": 11.1809,
      "duration": 0.0522,
      "velocity": 127,
      "chip": "ym2612"
    },
    {
      "channel": 1,
      "note": 106,
      "start": 11.2332,
      "duration": 0.0913,
      "velocity": 127,
      "chip": "ym2612"
    },
    {
      "channel": 0,
      "note": 45,
      "start": 11.3417,
      "duration": 0.15,
      "velocity": 126,
      "chip": "ym2612"
    },
    {
      "channel": 1,
      "note": 106,
      "start": 11.3436,
      "duration": 0.0644,
      "velocity": 114,
      "chip": "ym2612"
    },
    {
      "channel": 1,
      "note": 101,
      "start": 11.4596,
      "duration": 0.1318,
      "velocity": 127,
      "chip": "ym2612"
    },
    {
      "channel": 0,
      "note": 53,
      "start": 11.6871,
      "duration": 0.0055,
      "velocity": 126,
      "chip": "ym2612"
    },
    {
      "channel": 1,
      "note": 106,
      "start": 11.6874,
      "duration": 0.0056,
      "velocity": 127,
      "chip": "ym2612"
    },
    {
      "channel": 1,
      "note": 106,
      "start": 11.6956,
      "duration": 0.0029,
      "velocity": 114,
      "chip": "ym2612"
    },
    {
      "channel": 1,
      "note": 101,
      "start": 11.7175,
      "duration": 0.0576,
      "velocity": 127,
      "chip": "ym2612"
    },
    {
      "channel": 0,
      "note": 53,
      "start": 11.8423,
      "duration": 0.4001,
      "velocity": 126,
      "chip": "ym2612"
    },
    {
      "channel": 1,
      "note": 106,
      "start": 11.8441,
      "duration": 0.0479,
      "velocity": 114,
      "chip": "ym2612"
    },
    {
      "channel": 1,
      "note": 101,
      "start": 11.9435,
      "duration": 0.1986,
      "velocity": 127,
      "chip": "ym2612"
    },
    {
      "channel": 1,
      "note": 106,
      "start": 12.1605,
      "duration": 0.082,
      "velocity": 114,
      "chip": "ym2612"
    },
    {
      "channel": 0,
      "note": 48,
      "start": 12.2774,
      "duration": 0.0587,
      "velocity": 126,
      "chip": "ym2612"
    },
    {
      "channel": 1,
      "note": 101,
      "start": 12.2792,
      "duration": 0.057,
      "velocity": 127,
      "chip": "ym2612"
    },
    {
      "channel": 1,
      "note": 106,
      "start": 12.3873,
      "duration": 0.0484,
      "velocity": 114,
      "chip": "ym2612"
    },
    {
      "channel": 1,
      "note": 101,
      "start": 12.5048,
      "duration": 0.0036,
      "velocity": 127,
      "chip": "ym2612"
    },
    {
      "channel": 1,
      "note": 106,
      "start": 12.5117,
      "duration": 0.0028,
      "velocity": 114,
      "chip": "ym2612"
    },
    {
      "channel": 1,
      "note": 101,
      "start": 12.55,
      "duration": 0.148,
      "velocity": 127,
      "chip": "ym2612"
    },
    {
      "channel": 1,
      "note": 106,
      "start": 12.7682,
      "duration": 0.0103,
      "velocity": 127,
      "chip": "ym2612"
    },
    {
      "channel": 0,
      "note": 53,
      "start": 12.8118,
      "duration": 0.1495,
      "velocity": 126,
      "chip": "ym2612"
    },
    {
      "channel": 1,
      "note": 106,
      "start": 12.8136,
      "duration": 0.0476,
      "velocity": 114,
      "chip": "ym2612"
    },
    {
      "channel": 1,
      "note": 101,
      "start": 12.9136,
      "duration": 0.1645,
      "velocity": 127,
      "chip": "ym2612"
    },
    {
      "channel": 0,
      "note": 53,
      "start": 13.14,
      "duration": 0.0035,
      "velocity": 126,
      "chip": "ym2612"
    },
    {
      "channel": 1,
      "note": 106,
      "start": 13.1404,
      "duration": 0.004,
      "velocity": 127,
      "chip": "ym2612"
    },
    {
      "channel": 1,
      "note": 106,
      "start": 13.1477,
      "duration": 0.0016,
      "velocity": 114,
      "chip": "ym2612"
    },
    {
      "channel": 1,
      "note": 101,
      "start": 13.1851,
      "duration": 0.0567,
      "velocity": 127,
      "chip": "ym2612"
    },
    {
      "channel": 0,
      "note": 53,
      "start": 13.2926,
      "duration": 0.3355,
      "velocity": 126,
      "chip": "ym2612"
    },
    {
      "channel": 1,
      "note": 106,
      "start": 13.2944,
      "duration": 0.0812,
      "velocity": 114,
      "chip": "ym2612"
    },
    {
      "channel": 1,
      "note": 101,
      "start": 13.3939,
      "duration": 0.1987,
      "velocity": 127,
      "chip": "ym2612"
    },
    {
      "channel": 0,
      "note": 48,
      "start": 13.6293,
      "duration": 0.0076,
      "velocity": 126,
      "chip": "ym2612"
    },
    {
      "channel": 1,
      "note": 106,
      "start": 13.6297,
      "duration": 0.0051,
      "velocity": 127,
      "chip": "ym2612"
    },
    {
      "channel": 1,
      "note": 106,
      "start": 13.6553,
      "duration": 0.0655,
      "velocity": 114,
      "chip": "ym2612"
    },
    {
      "channel": 1,
      "note": 101,
      "start": 13.7726,
      "duration": 0.006,
      "velocity": 127,
      "chip": "ym2612"
    },
    {
      "channel": 1,
      "note": 106,
      "start": 13.7818,
      "duration": 0.0016,
      "velocity": 114,
      "chip": "ym2612"
    },
    {
      "channel": 1,
      "note": 101,
      "start": 13.7859,
      "duration": 0.0033,
      "velocity": 127,
      "chip": "ym2612"
    },
    {
      "channel": 1,
      "note": 106,
      "start": 13.7934,
      "duration": 0.0684,
      "velocity": 127,
      "chip": "ym2612"
    },
    {
      "channel": 1,
      "note": 106,
      "start": 13.8619,
      "duration": 0.0746,
      "velocity": 127,
      "chip": "ym2612"
    },
    {
      "channel": 0,
      "note": 53,
      "start": 13.9712,
      "duration": 0.1656,
      "velocity": 126,
      "chip": "ym2612"
    },
    {
      "channel": 1,
      "note": 106,
      "start": 13.973,
      "duration": 0.0803,
      "velocity": 114,
      "chip": "ym2612"
    },
    {
      "channel": 1,
      "note": 101,
      "start": 14.072,
      "duration": 0.1484,
      "velocity": 127,
      "chip": "ym2612"
    },
    {
      "channel": 0,
      "note": 45,
      "start": 14.3067,
      "duration": 0.0056,
      "velocity": 126,
      "chip": "ym2612"
    },
    {
      "channel": 1,
      "note": 106,
      "start": 14.307,
      "duration": 0.0054,
      "velocity": 127,
      "chip": "ym2612"
    },
    {
      "channel": 1,
      "note": 106,
      "start": 14.3146,
      "duration": 0.0025,
      "velocity": 114,
      "chip": "ym2612"
    },
    {
      "channel": 1,
      "note": 101,
      "start": 14.3537,
      "duration": 0.0578,
      "velocity": 127,
      "chip": "ym2612"
    },
    {
      "channel": 0,
      "note": 45,
      "start": 14.4619,
      "duration": 0.3366,
      "velocity": 126,
      "chip": "ym2612"
    },
    {
      "channel": 1,
      "note": 106,
      "start": 14.4637,
      "duration": 0.0814,
      "velocity": 114,
      "chip": "ym2612"
    },
    {
      "channel": 1,
      "note": 101,
      "start": 14.5797,
      "duration": 0.1656,
      "velocity": 127,
      "chip": "ym2612"
    },
    {
      "channel": 0,
      "note": 43,
      "start": 14.7985,
      "duration": 0.0093,
      "velocity": 126,
      "chip": "ym2612"
    },
    {
      "channel": 1,
      "note": 106,
      "start": 14.7989,
      "duration": 0.0039,
      "velocity": 127,
      "chip": "ym2612"
    },
    {
      "channel": 1,
      "note": 106,
      "start": 14.8431,
      "duration": 0.0149,
      "velocity": 114,
      "chip": "ym2612"
    },
    {
      "channel": 1,
      "note": 101,
      "start": 14.9437,
      "duration": 0.0037,
      "velocity": 127,
      "chip": "ym2612"
    },
    {
      "channel": 1,
      "note": 106,
      "start": 14.951,
      "duration": 0.002,
      "velocity": 114,
      "chip": "ym2612"
    },
    {
      "channel": 0,
      "note": 45,
      "start": 14.9873,
      "duration": 0.1662,
      "velocity": 126,
      "chip": "ym2612"
    },
    {
      "channel": 1,
      "note": 101,
      "start": 14.9892,
      "duration": 0.1315,
      "velocity": 127,
      "chip": "ym2612"
    },
    {
      "channel": 0,
      "note": 40,
      "start": 15.2045,
      "duration": 0.0036,
      "velocity": 126,
      "chip": "ym2612"
    },
    {
      "channel": 1,
      "note": 106,
      "start": 15.2083,
      "duration": 0.0035,
      "velocity": 127,
      "chip": "ym2612"
    },
    {
      "channel": 0,
      "note": 43,
      "start": 15.25,
      "duration": 0.1668,
      "velocity": 126,
      "chip": "ym2612"
    },
    {
      "channel": 1,
      "note": 106,
      "start": 15.2519,
      "duration": 0.0475,
      "velocity": 114,
      "chip": "ym2612"
    },
    {
      "channel": 1,
      "note": 101,
      "start": 15.3678,
      "duration": 0.1322,
      "velocity": 127,
      "chip": "ym2612"
    },
    {
      "channel": 0,
      "note": 45,
      "start": 15.5871,
      "duration": 0.0046,
      "velocity": 126,
      "chip": "ym2612"
    },
    {
      "channel": 1,
      "note": 106,
      "start": 15.5874,
      "duration": 0.0044,
      "velocity": 127,
      "chip": "ym2612"
    },
    {
      "channel": 1,
      "note": 106,
      "start": 15.5948,
      "duration": 0.0021,
      "velocity": 114,
      "chip": "ym2612"
    },
    {
      "channel": 1,
      "note": 101,
      "start": 15.6333,
      "duration": 0.0568,
      "velocity": 127,
      "chip": "ym2612"
    },
    {
      "channel": 0,
      "note": 45,
      "start": 15.7408,
      "duration": 0.3356,
      "velocity": 126,
      "chip": "ym2612"
    },
    {
      "channel": 1,
      "note": 106,
      "start": 15.7427,
      "duration": 0.0643,
      "velocity": 114,
      "chip": "ym2612"
    },
    {
      "channel": 1,
      "note": 101,
      "start": 15.8593,
      "duration": 0.1646,
      "velocity": 127,
      "chip": "ym2612"
    },
    {
      "channel": 0,
      "note": 43,
      "start": 16.0779,
      "duration": 0.0045,
      "velocity": 126,
      "chip": "ym2612"
    },
    {
      "channel": 1,
      "note": 106,
      "start": 16.0783,
      "duration": 0.0065,
      "velocity": 127,
      "chip": "ym2612"
    },
    {
      "channel": 1,
      "note": 106,
      "start": 16.1203,
      "duration": 0.0315,
      "velocity": 114,
      "chip": "ym2612"
    },
    {
      "channel": 1,
      "note": 101,
      "start": 16.238,
      "duration": 0.0049,
      "velocity": 127,
      "chip": "ym2612"
    },
    {
      "channel": 1,
      "note": 106,
      "start": 16.2462,
      "duration": 0.002,
      "velocity": 114,
      "chip": "ym2612"
    },
    {
      "channel": 1,
      "note": 101,
      "start": 16.2507,
      "duration": 0.0032,
      "velocity": 127,
      "chip": "ym2612"
    },
    {
      "channel": 1,
      "note": 106,
      "start": 16.2585,
      "duration": 0.0521,
      "velocity": 127,
      "chip": "ym2612"
    },
    {
      "channel": 1,
      "note": 106,
      "start": 16.3106,
      "duration": 0.0911,
      "velocity": 127,
      "chip": "ym2612"
    },
    {
      "channel": 0,
      "note": 45,
      "start": 16.4198,
      "duration": 0.1658,
      "velocity": 126,
      "chip": "ym2612"
    },
    {
      "channel": 1,
      "note": 106,
      "start": 16.4217,
      "duration": 0.0643,
      "velocity": 114,
      "chip": "ym2612"
    },
    {
      "channel": 1,
      "note": 101,
      "start": 16.5371,
      "duration": 0.1317,
      "velocity": 127,
      "chip": "ym2612"
    },
    {
      "channel": 0,
      "note": 53,
      "start": 16.7634,
      "duration": 0.0041,
      "velocity": 126,
      "chip": "ym2612"
    },
    {
      "channel": 1,
      "note": 106,
      "start": 16.7638,
      "duration": 0.0058,
      "velocity": 127,
      "chip": "ym2612"
    },
    {
      "channel": 1,
      "note": 106,
      "start": 16.7727,
      "duration": 0.0021,
      "velocity": 114,
      "chip": "ym2612"
    },
    {
      "channel": 1,
      "note": 101,
      "start": 16.7931,
      "duration": 0.0585,
      "velocity": 127,
      "chip": "ym2612"
    },
    {
      "channel": 0,
      "note": 53,
      "start": 16.9192,
      "duration": 0.4003,
      "velocity": 126,
      "chip": "ym2612"
    },
    {
      "channel": 1,
      "note": 106,
      "start": 16.9211,
      "duration": 0.0472,
      "velocity": 114,
      "chip": "ym2612"
    },
    {
      "channel": 1,
      "note": 101,
      "start": 17.0198,
      "duration": 0.1987,
      "velocity": 127,
      "chip": "ym2612"
    },
    {
      "channel": 1,
      "note": 106,
      "start": 17.2367,
      "duration": 0.0829,
      "velocity": 114,
      "chip": "ym2612"
    },
    {
      "channel": 0,
      "note": 48,
      "start": 17.3532,
      "duration": 0.1093,
      "velocity": 126,
      "chip": "ym2612"
    },
    {
      "channel": 1,
      "note": 101,
      "start": 17.355,
      "duration": 0.0574,
      "velocity": 127,
      "chip": "ym2612"
    },
    {
      "channel": 1,
      "note": 106,
      "start": 17.4641,
      "duration": 0.048,
      "velocity": 114,
      "chip": "ym2612"
    },
    {
      "channel": 1,
      "note": 101,
      "start": 17.5812,
      "duration": 0.0039,
      "velocity": 127,
      "chip": "ym2612"
    },
    {
      "channel": 1,
      "note": 106,
      "start": 17.588,
      "duration": 0.0037,
      "velocity": 114,
      "chip": "ym2612"
    },
    {
      "channel": 1,
      "note": 101,
      "start": 17.6261,
      "duration": 0.1486,
      "velocity": 127,
      "chip": "ym2612"
    },
    {
      "channel": 1,
      "note": 106,
      "start": 17.8453,
      "duration": 0.0091,
      "velocity": 127,
      "chip": "ym2612"
    },
    {
      "channel": 0,
      "note": 53,
      "start": 17.888,
      "duration": 0.1329,
      "velocity": 126,
      "chip": "ym2612"
    },
    {
      "channel": 1,
      "note": 106,
      "start": 17.8898,
      "duration": 0.0477,
      "velocity": 114,
      "chip": "ym2612"
    },
    {
      "channel": 1,
      "note": 101,
      "start": 17.9892,
      "duration": 0.1652,
      "velocity": 127,
      "chip": "ym2612"
    },
    {
      "channel": 0,
      "note": 53,
      "start": 18.216,
      "duration": 0.004,
      "velocity": 126,
      "chip": "ym2612"
    },
    {
      "channel": 1,
      "note": 106,
      "start": 18.2163,
      "duration": 0.0048,
      "velocity": 127,
      "chip": "ym2612"
    },
    {
      "channel": 1,
      "note": 106,
      "start": 18.224,
      "duration": 0.0021,
      "velocity": 114,
      "chip": "ym2612"
    },
    {
      "channel": 1,
      "note": 101,
      "start": 18.2622,
      "duration": 0.0577,
      "velocity": 127,
      "chip": "ym2612"
    },
    {
      "channel": 0,
      "note": 53,
      "start": 18.3706,
      "duration": 0.3355,
      "velocity": 126,
      "chip": "ym2612"
    },
    {
      "channel": 1,
      "note": 106,
      "start": 18.3725,
      "duration": 0.0812,
      "velocity": 114,
      "chip": "ym2612"
    },
    {
      "channel": 1,
      "note": 101,
      "start": 18.472,
      "duration": 0.1988,
      "velocity": 127,
      "chip": "ym2612"
    },
    {
      "channel": 0,
      "note": 48,
      "start": 18.7071,
      "duration": 0.0052,
      "velocity": 126,
      "chip": "ym2612"
    },
    {
      "channel": 1,
      "note": 106,
      "start": 18.7074,
      "duration": 0.0049,
      "velocity": 127,
      "chip": "ym2612"
    },
    {
      "channel": 1,
      "note": 106,
      "start": 18.7334,
      "duration": 0.0646,
      "velocity": 114,
      "chip": "ym2612"
    },
    {
      "channel": 1,
      "note": 101,
      "start": 18.8512,
      "duration": 0.0046,
      "velocity": 127,
      "chip": "ym2612"
    },
    {
      "channel": 1,
      "note": 106,
      "start": 18.8591,
      "duration": 0.0017,
      "velocity": 114,
      "chip": "ym2612"
    },
    {
      "channel": 1,
      "note": 101,
      "start": 18.8639,
      "duration": 0.003,
      "velocity": 127,
      "chip": "ym2612"
    },
    {
      "channel": 1,
      "note": 106,
      "start": 18.8699,
      "duration": 0.0695,
      "velocity": 127,
      "chip": "ym2612"
    },
    {
      "channel": 1,
      "note": 106,
      "start": 18.9394,
      "duration": 0.0734,
      "velocity": 127,
      "chip": "ym2612"
    },
    {
      "channel": 0,
      "note": 53,
      "start": 19.0474,
      "duration": 0.1657,
      "velocity": 126,
      "chip": "ym2612"
    },
    {
      "channel": 1,
      "note": 106,
      "start": 19.0492,
      "duration": 0.0805,
      "velocity": 114,
      "chip": "ym2612"
    },
    {
      "channel": 1,
      "note": 101,
      "start": 19.1483,
      "duration": 0.1488,
      "velocity": 127,
      "chip": "ym2612"
    },
    {
      "channel": 0,
      "note": 45,
      "start": 19.3832,
      "duration": 0.0056,
      "velocity": 126,
      "chip": "ym2612"
    },
    {
      "channel": 1,
      "note": 106,
      "start": 19.3835,
      "duration": 0.0054,
      "velocity": 127,
      "chip": "ym2612"
    },
    {
      "channel": 1,
      "note": 106,
      "start": 19.3917,
      "duration": 0.0028,
      "velocity": 114,
      "chip": "ym2612"
    },
    {
      "channel": 1,
      "note": 101,
      "start": 19.4302,
      "duration": 0.0577,
      "velocity": 127,
      "chip": "ym2612"
    },
    {
      "channel": 0,
      "note": 45,
      "start": 19.5392,
      "duration": 0.3363,
      "velocity": 126,
      "chip": "ym2612"
    },
    {
      "channel": 1,
      "note": 106,
      "start": 19.541,
      "duration": 0.0805,
      "velocity": 114,
      "chip": "ym2612"
    },
    {
      "channel": 1,
      "note": 101,
      "start": 19.6568,
      "duration": 0.1649,
      "velocity": 127,
      "chip": "ym2612"
    },
    {
      "channel": 0,
      "note": 43,
      "start": 19.8755,
      "duration": 0.0096,
      "velocity": 126,
      "chip": "ym2612"
    },
    {
      "channel": 1,
      "note": 106,
      "start": 19.8758,
      "duration": 0.0043,
      "velocity": 127,
      "chip": "ym2612"
    },
    {
      "channel": 1,
      "note": 106,
      "start": 19.9206,
      "duration": 0.015,
      "velocity": 114,
      "chip": "ym2612"
    },
    {
      "channel": 1,
      "note": 101,
      "start": 20.021,
      "duration": 0.0043,
      "velocity": 127,
      "chip": "ym2612"
    },
    {
      "channel": 1,
      "note": 106,
      "start": 20.0273,
      "duration": 0.002,
      "velocity": 114,
      "chip": "ym2612"
    },
    {
      "channel": 0,
      "note": 45,
      "start": 20.064,
      "duration": 0.1669,
      "velocity": 126,
      "chip": "ym2612"
    },
    {
      "channel": 1,
      "note": 101,
      "start": 20.0659,
      "duration": 0.1313,
      "velocity": 127,
      "chip": "ym2612"
    },
    {
      "channel": 0,
      "note": 40,
      "start": 20.2812,
      "duration": 0.0034,
      "velocity": 126,
      "chip": "ym2612"
    },
    {
      "channel": 1,
      "note": 106,
      "start": 20.2848,
      "duration": 0.0037,
      "velocity": 127,
      "chip": "ym2612"
    },
    {
      "channel": 0,
      "note": 43,
      "start": 20.3267,
      "duration": 0.1662,
      "velocity": 126,
      "chip": "ym2612"
    },
    {
      "channel": 1,
      "note": 106,
      "start": 20.3285,
      "duration": 0.0476,
      "velocity": 114,
      "chip": "ym2612"
    },
    {
      "channel": 1,
      "note": 101,
      "start": 20.4445,
      "duration": 0.132,
      "velocity": 127,
      "chip": "ym2612"
    },
    {
      "channel": 0,
      "note": 45,
      "start": 20.6636,
      "duration": 0.0042,
      "velocity": 126,
      "chip": "ym2612"
    },
    {
      "channel": 1,
      "note": 106,
      "start": 20.664,
      "duration": 0.0039,
      "velocity": 127,
      "chip": "ym2612"
    },
    {
      "channel": 1,
      "note": 106,
      "start": 20.671,
      "duration": 0.0019,
      "velocity": 114,
      "chip": "ym2612"
    },
    {
      "channel": 1,
      "note": 101,
      "start": 20.7089,
      "duration": 0.0578,
      "velocity": 127,
      "chip": "ym2612"
    },
    {
      "channel": 0,
      "note": 45,
      "start": 20.8175,
      "duration": 0.3353,
      "velocity": 126,
      "chip": "ym2612"
    },
    {
      "channel": 1,
      "note": 106,
      "start": 20.8193,
      "duration": 0.0643,
      "velocity": 114,
      "chip": "ym2612"
    },
    {
      "channel": 1,
      "note": 101,
      "start": 20.9353,
      "duration": 0.1652,
      "velocity": 127,
      "chip": "ym2612"
    },
    {
      "channel": 0,
      "note": 43,
      "start": 21.1544,
      "duration": 0.0044,
      "velocity": 126,
      "chip": "ym2612"
    },
    {
      "channel": 1,
      "note": 106,
      "start": 21.1548,
      "duration": 0.0064,
      "velocity": 127,
      "chip": "ym2612"
    },
    {
      "channel": 1,
      "note": 106,
      "start": 21.1961,
      "duration": 0.0321,
      "velocity": 114,
      "chip": "ym2612"
    },
    {
      "channel": 1,
      "note": 101,
      "start": 21.2976,
      "duration": 0.0052,
      "velocity": 127,
      "chip": "ym2612"
    },
    {
      "channel": 1,
      "note": 106,
      "start": 21.3059,
      "duration": 0.0025,
      "velocity": 114,
      "chip": "ym2612"
    },
    {
      "channel": 1,
      "note": 101,
      "start": 21.3116,
      "duration": 0.002,
      "velocity": 127,
      "chip": "ym2612"
    },
    {
      "channel": 1,
      "note": 106,
      "start": 21.3181,
      "duration": 0.0695,
      "velocity": 127,
      "chip": "ym2612"
    },
    {
      "channel": 1,
      "note": 106,
      "start": 21.3876,
      "duration": 0.0914,
      "velocity": 127,
      "chip": "ym2612"
    },
    {
      "channel": 2,
      "note": 0,
      "start": 21.3895,
      "duration": 0.003,
      "velocity": 117,
      "chip": "ym2612"
    },
    {
      "channel": 2,
      "note": 76,
      "start": 21.4792,
      "duration": 0.0488,
      "velocity": 117,
      "chip": "ym2612"
    },
    {
      "channel": 1,
      "note": 106,
      "start": 21.4963,
      "duration": 0.0655,
      "velocity": 114,
      "chip": "ym2612"
    },
    {
      "channel": 1,
      "note": 101,
      "start": 21.6142,
      "duration": 0.0115,
      "velocity": 127,
      "chip": "ym2612"
    },
    {
      "channel": 1,
      "note": 106,
      "start": 21.7207,
      "duration": 0.0491,
      "velocity": 127,
      "chip": "ym2612"
    },
    {
      "channel": 2,
      "note": 76,
      "start": 21.7211,
      "duration": 0.0012,
      "velocity": 117,
      "chip": "ym2612"
    },
    {
      "channel": 2,
      "note": 76,
      "start": 21.77,
      "duration": 0.0832,
      "velocity": 117,
      "chip": "ym2612"
    },
    {
      "channel": 1,
      "note": 106,
      "start": 21.8048,
      "duration": 0.0813,
      "velocity": 114,
      "chip": "ym2612"
    },
    {
      "channel": 1,
      "note": 101,
      "start": 21.9058,
      "duration": 0.0446,
      "velocity": 127,
      "chip": "ym2612"
    },
    {
      "channel": 1,
      "note": 106,
      "start": 22.0195,
      "duration": 0.0018,
      "velocity": 114,
      "chip": "ym2612"
    },
    {
      "channel": 1,
      "note": 101,
      "start": 22.0245,
      "duration": 0.1611,
      "velocity": 127,
      "chip": "ym2612"
    },
    {
      "channel": 2,
      "note": 76,
      "start": 22.0249,
      "duration": 0.01,
      "velocity": 117,
      "chip": "ym2612"
    },
    {
      "channel": 2,
      "note": 76,
      "start": 22.1858,
      "duration": 0.0203,
      "velocity": 117,
      "chip": "ym2612"
    },
    {
      "channel": 1,
      "note": 106,
      "start": 22.2044,
      "duration": 0.0033,
      "velocity": 114,
      "chip": "ym2612"
    },
    {
      "channel": 1,
      "note": 101,
      "start": 22.2102,
      "duration": 0.0447,
      "velocity": 127,
      "chip": "ym2612"
    },
    {
      "channel": 1,
      "note": 106,
      "start": 22.3072,
      "duration": 0.0478,
      "velocity": 114,
      "chip": "ym2612"
    },
    {
      "channel": 1,
      "note": 101,
      "start": 22.4247,
      "duration": 0.0309,
      "velocity": 127,
      "chip": "ym2612"
    },
    {
      "channel": 2,
      "note": 76,
      "start": 22.4251,
      "duration": 0.0035,
      "velocity": 117,
      "chip": "ym2612"
    },
    {
      "channel": 2,
      "note": 76,
      "start": 22.4728,
      "duration": 0.0372,
      "velocity": 117,
      "chip": "ym2612"
    },
    {
      "channel": 1,
      "note": 106,
      "start": 22.5087,
      "duration": 0.0032,
      "velocity": 114,
      "chip": "ym2612"
    },
    {
      "channel": 1,
      "note": 101,
      "start": 22.5175,
      "duration": 0.0292,
      "velocity": 127,
      "chip": "ym2612"
    },
    {
      "channel": 1,
      "note": 106,
      "start": 22.6151,
      "duration": 0.0477,
      "velocity": 114,
      "chip": "ym2612"
    },
    {
      "channel": 1,
      "note": 101,
      "start": 22.7159,
      "duration": 0.091,
      "velocity": 127,
      "chip": "ym2612"
    },
    {
      "channel": 2,
      "note": 76,
      "start": 22.7163,
      "duration": 0.0022,
      "velocity": 117,
      "chip": "ym2612"
    },
    {
      "channel": 2,
      "note": 76,
      "start": 22.8071,
      "duration": 0.0829,
      "velocity": 117,
      "chip": "ym2612"
    },
    {
      "channel": 1,
      "note": 106,
      "start": 22.8247,
      "duration": 0.0652,
      "velocity": 114,
      "chip": "ym2612"
    },
    {
      "channel": 1,
      "note": 101,
      "start": 22.942,
      "duration": 0.0457,
      "velocity": 127,
      "chip": "ym2612"
    },
    {
      "channel": 1,
      "note": 106,
      "start": 23.049,
      "duration": 0.0497,
      "velocity": 127,
      "chip": "ym2612"
    },
    {
      "channel": 2,
      "note": 76,
      "start": 23.0494,
      "duration": 0.0022,
      "velocity": 117,
      "chip": "ym2612"
    },
    {
      "channel": 2,
      "note": 76,
      "start": 23.0988,
      "duration": 0.0833,
      "velocity": 117,
      "chip": "ym2612"
    },
    {
      "channel": 1,
      "note": 106,
      "start": 23.1332,
      "duration": 0.0488,
      "velocity": 114,
      "chip": "ym2612"
    },
    {
      "channel": 1,
      "note": 101,
      "start": 23.2513,
      "duration": 0.0448,
      "velocity": 127,
      "chip": "ym2612"
    },
    {
      "channel": 1,
      "note": 106,
      "start": 23.3479,
      "duration": 0.0028,
      "velocity": 114,
      "chip": "ym2612"
    },
    {
      "channel": 1,
      "note": 101,
      "start": 23.3538,
      "duration": 0.1598,
      "velocity": 127,
      "chip": "ym2612"
    },
    {
      "channel": 2,
      "note": 76,
      "start": 23.3542,
      "duration": 0.0254,
      "velocity": 117,
      "chip": "ym2612"
    },
    {
      "channel": 2,
      "note": 76,
      "start": 23.5138,
      "duration": 0.0348,
      "velocity": 117,
      "chip": "ym2612"
    },
    {
      "channel": 1,
      "note": 106,
      "start": 23.5504,
      "duration": 0.0038,
      "velocity": 127,
      "chip": "ym2612"
    },
    {
      "channel": 1,
      "note": 106,
      "start": 23.5759,
      "duration": 0.0648,
      "velocity": 114,
      "chip": "ym2612"
    },
    {
      "channel": 1,
      "note": 101,
      "start": 23.694,
      "duration": 0.0056,
      "velocity": 127,
      "chip": "ym2612"
    },
    {
      "channel": 2,
      "note": 76,
      "start": 23.6944,
      "duration": 0.0034,
      "velocity": 117,
      "chip": "ym2612"
    },
    {
      "channel": 2,
      "note": 76,
      "start": 23.7012,
      "duration": 0.0043,
      "velocity": 117,
      "chip": "ym2612"
    },
    {
      "channel": 1,
      "note": 106,
      "start": 23.7038,
      "duration": 0.0021,
      "velocity": 114,
      "chip": "ym2612"
    },
    {
      "channel": 1,
      "note": 101,
      "start": 23.7095,
      "duration": 0.0036,
      "velocity": 127,
      "chip": "ym2612"
    },
    {
      "channel": 1,
      "note": 106,
      "start": 23.7165,
      "duration": 0.0669,
      "velocity": 127,
      "chip": "ym2612"
    },
    {
      "channel": 1,
      "note": 106,
      "start": 23.7835,
      "duration": 0.0748,
      "velocity": 127,
      "chip": "ym2612"
    },
    {
      "channel": 2,
      "note": 76,
      "start": 23.7839,
      "duration": 0.0023,
      "velocity": 117,
      "chip": "ym2612"
    },
    {
      "channel": 2,
      "note": 76,
      "start": 23.8585,
      "duration": 0.0824,
      "velocity": 117,
      "chip": "ym2612"
    },
    {
      "channel": 1,
      "note": 106,
      "start": 23.8923,
      "duration": 0.0484,
      "velocity": 114,
      "chip": "ym2612"
    },
    {
      "channel": 1,
      "note": 101,
      "start": 23.9932,
      "duration": 0.0275,
      "velocity": 127,
      "chip": "ym2612"
    },
    {
      "channel": 1,
      "note": 106,
      "start": 24.107,
      "duration": 0.067,
      "velocity": 127,
      "chip": "ym2612"
    },
    {
      "channel": 2,
      "note": 76,
      "start": 24.1074,
      "duration": 0.002,
      "velocity": 117,
      "chip": "ym2612"
    },
    {
      "channel": 2,
      "note": 76,
      "start": 24.1741,
      "duration": 0.0821,
      "velocity": 117,
      "chip": "ym2612"
    },
    {
      "channel": 1,
      "note": 106,
      "start": 24.1912,
      "duration": 0.0818,
      "velocity": 114,
      "chip": "ym2612"
    },
    {
      "channel": 1,
      "note": 101,
      "start": 24.3098,
      "duration": 0.0437,
      "velocity": 127,
      "chip": "ym2612"
    },
    {
      "channel": 1,
      "note": 106,
      "start": 24.4059,
      "duration": 0.0023,
      "velocity": 114,
      "chip": "ym2612"
    },
    {
      "channel": 1,
      "note": 101,
      "start": 24.4117,
      "duration": 0.1603,
      "velocity": 127,
      "chip": "ym2612"
    },
    {
      "channel": 2,
      "note": 76,
      "start": 24.4121,
      "duration": 0.0592,
      "velocity": 117,
      "chip": "ym2612"
    },
    {
      "channel": 2,
      "note": 76,
      "start": 24.5722,
      "duration": 0.0374,
      "velocity": 117,
      "chip": "ym2612"
    },
    {
      "channel": 1,
      "note": 106,
      "start": 24.6077,
      "duration": 0.0024,
      "velocity": 114,
      "chip": "ym2612"
    },
    {
      "channel": 1,
      "note": 101,
      "start": 24.6118,
      "duration": 0.0441,
      "velocity": 127,
      "chip": "ym2612"
    },
    {
      "channel": 1,
      "note": 106,
      "start": 24.7243,
      "duration": 0.049,
      "velocity": 114,
      "chip": "ym2612"
    },
    {
      "channel": 1,
      "note": 101,
      "start": 24.8257,
      "duration": 0.0308,
      "velocity": 127,
      "chip": "ym2612"
    },
    {
      "channel": 2,
      "note": 76,
      "start": 24.8261,
      "duration": 0.0031,
      "velocity": 117,
      "chip": "ym2612"
    },
    {
      "channel": 2,
      "note": 76,
      "start": 24.8902,
      "duration": 0.0222,
      "velocity": 117,
      "chip": "ym2612"
    },
    {
      "channel": 1,
      "note": 106,
      "start": 24.9092,
      "duration": 0.0036,
      "velocity": 114,
      "chip": "ym2612"
    },
    {
      "channel": 1,
      "note": 101,
      "start": 24.9182,
      "duration": 0.0448,
      "velocity": 127,
      "chip": "ym2612"
    },
    {
      "channel": 1,
      "note": 106,
      "start": 25.0154,
      "duration": 0.0478,
      "velocity": 114,
      "chip": "ym2612"
    },
    {
      "channel": 1,
      "note": 101,
      "start": 25.1328,
      "duration": 0.0739,
      "velocity": 127,
      "chip": "ym2612"
    },
    {
      "channel": 2,
      "note": 76,
      "start": 25.1332,
      "duration": 0.003,
      "velocity": 117,
      "chip": "ym2612"
    },
    {
      "channel": 2,
      "note": 76,
      "start": 25.2068,
      "duration": 0.0832,
      "velocity": 117,
      "chip": "ym2612"
    },
    {
      "channel": 1,
      "note": 106,
      "start": 25.2419,
      "duration": 0.048,
      "velocity": 114,
      "chip": "ym2612"
    },
    {
      "channel": 1,
      "note": 101,
      "start": 25.3586,
      "duration": 0.0289,
      "velocity": 127,
      "chip": "ym2612"
    },
    {
      "channel": 1,
      "note": 106,
      "start": 25.4566,
      "duration": 0.0664,
      "velocity": 127,
      "chip": "ym2612"
    },
    {
      "channel": 2,
      "note": 76,
      "start": 25.457,
      "duration": 0.0024,
      "velocity": 117,
      "chip": "ym2612"
    },
    {
      "channel": 2,
      "note": 76,
      "start": 25.5231,
      "duration": 0.0832,
      "velocity": 117,
      "chip": "ym2612"
    },
    {
      "channel": 1,
      "note": 106,
      "start": 25.5582,
      "duration": 0.048,
      "velocity": 114,
      "chip": "ym2612"
    },
    {
      "channel": 1,
      "note": 101,
      "start": 25.6589,
      "duration": 0.0449,
      "velocity": 127,
      "chip": "ym2612"
    },
    {
      "channel": 1,
      "note": 106,
      "start": 25.7557,
      "duration": 0.0034,
      "velocity": 114,
      "chip": "ym2612"
    },
    {
      "channel": 1,
      "note": 101,
      "start": 25.7609,
      "duration": 0.1598,
      "velocity": 127,
      "chip": "ym2612"
    },
    {
      "channel": 2,
      "note": 76,
      "start": 25.7612,
      "duration": 0.0588,
      "velocity": 117,
      "chip": "ym2612"
    },
    {
      "channel": 2,
      "note": 76,
      "start": 25.9208,
      "duration": 0.0355,
      "velocity": 117,
      "chip": "ym2612"
    },
    {
      "channel": 1,
      "note": 106,
      "start": 25.9576,
      "duration": 0.0053,
      "velocity": 127,
      "chip": "ym2612"
    },
    {
      "channel": 1,
      "note": 106,
      "start": 25.9991,
      "duration": 0.0486,
      "velocity": 114,
      "chip": "ym2612"
    },
    {
      "channel": 1,
      "note": 101,
      "start": 26.1005,
      "duration": 0.0061,
      "velocity": 127,
      "chip": "ym2612"
    },
    {
      "channel": 2,
      "note": 76,
      "start": 26.101,
      "duration": 0.0038,
      "velocity": 117,
      "chip": "ym2612"
    },
    {
      "channel": 2,
      "note": 76,
      "start": 26.1081,
      "duration": 0.0035,
      "velocity": 117,
      "chip": "ym2612"
    },
    {
      "channel": 1,
      "note": 106,
      "start": 26.1103,
      "duration": 0.0036,
      "velocity": 114,
      "chip": "ym2612"
    },
    {
      "channel": 1,
      "note": 101,
      "start": 26.116,
      "duration": 0.004,
      "velocity": 127,
      "chip": "ym2612"
    },
    {
      "channel": 1,
      "note": 106,
      "start": 26.1235,
      "duration": 0.0666,
      "velocity": 127,
      "chip": "ym2612"
    },
    {
      "channel": 1,
      "note": 106,
      "start": 26.1901,
      "duration": 0.0904,
      "velocity": 127,
      "chip": "ym2612"
    },
    {
      "channel": 2,
      "note": 76,
      "start": 26.1905,
      "duration": 0.0016,
      "velocity": 117,
      "chip": "ym2612"
    },
    {
      "channel": 2,
      "note": 76,
      "start": 26.2807,
      "duration": 0.0836,
      "velocity": 117,
      "chip": "ym2612"
    },
    {
      "channel": 1,
      "note": 106,
      "start": 26.2986,
      "duration": 0.0656,
      "velocity": 114,
      "chip": "ym2612"
    },
    {
      "channel": 1,
      "note": 101,
      "start": 26.4157,
      "duration": 0.0119,
      "velocity": 127,
      "chip": "ym2612"
    },
    {
      "channel": 1,
      "note": 106,
      "start": 26.5227,
      "duration": 0.05,
      "velocity": 127,
      "chip": "ym2612"
    },
    {
      "channel": 2,
      "note": 76,
      "start": 26.5231,
      "duration": 0.0016,
      "velocity": 117,
      "chip": "ym2612"
    },
    {
      "channel": 2,
      "note": 76,
      "start": 26.5728,
      "duration": 0.0487,
      "velocity": 117,
      "chip": "ym2612"
    },
    {
      "channel": 1,
      "note": 106,
      "start": 26.6065,
      "duration": 0.0817,
      "velocity": 114,
      "chip": "ym2612"
    },
    {
      "channel": 1,
      "note": 101,
      "start": 26.7086,
      "duration": 0.0434,
      "velocity": 127,
      "chip": "ym2612"
    },
    {
      "channel": 1,
      "note": 106,
      "start": 26.8212,
      "duration": 0.0019,
      "velocity": 114,
      "chip": "ym2612"
    },
    {
      "channel": 1,
      "note": 101,
      "start": 26.8265,
      "duration": 0.1606,
      "velocity": 127,
      "chip": "ym2612"
    },
    {
      "channel": 2,
      "note": 76,
      "start": 26.8269,
      "duration": 0.0088,
      "velocity": 117,
      "chip": "ym2612"
    },
    {
      "channel": 2,
      "note": 76,
      "start": 26.9873,
      "duration": 0.0196,
      "velocity": 117,
      "chip": "ym2612"
    },
    {
      "channel": 1,
      "note": 106,
      "start": 27.005,
      "duration": 0.0027,
      "velocity": 114,
      "chip": "ym2612"
    },
    {
      "channel": 1,
      "note": 101,
      "start": 27.0111,
      "duration": 0.0432,
      "velocity": 127,
      "chip": "ym2612"
    },
    {
      "channel": 1,
      "note": 106,
      "start": 27.106,
      "duration": 0.049,
      "velocity": 114,
      "chip": "ym2612"
    },
    {
      "channel": 1,
      "note": 101,
      "start": 27.2247,
      "duration": 0.0309,
      "velocity": 127,
      "chip": "ym2612"
    },
    {
      "channel": 2,
      "note": 76,
      "start": 27.2251,
      "duration": 0.0016,
      "velocity": 117,
      "chip": "ym2612"
    },
    {
      "channel": 2,
      "note": 76,
      "start": 27.2728,
      "duration": 0.0367,
      "velocity": 117,
      "chip": "ym2612"
    },
    {
      "channel": 1,
      "note": 106,
      "start": 27.3085,
      "duration": 0.0024,
      "velocity": 114,
      "chip": "ym2612"
    },
    {
      "channel": 1,
      "note": 101,
      "start": 27.3127,
      "duration": 0.0453,
      "velocity": 127,
      "chip": "ym2612"
    },
    {
      "channel": 1,
      "note": 106,
      "start": 27.4265,
      "duration": 0.049,
      "velocity": 114,
      "chip": "ym2612"
    },
    {
      "channel": 1,
      "note": 101,
      "start": 27.5278,
      "duration": 0.0913,
      "velocity": 127,
      "chip": "ym2612"
    },
    {
      "channel": 2,
      "note": 76,
      "start": 27.5283,
      "duration": 0.0026,
      "velocity": 117,
      "chip": "ym2612"
    },
    {
      "channel": 2,
      "note": 76,
      "start": 27.6193,
      "duration": 0.0836,
      "velocity": 117,
      "chip": "ym2612"
    },
    {
      "channel": 1,
      "note": 106,
      "start": 27.637,
      "duration": 0.0658,
      "velocity": 114,
      "chip": "ym2612"
    },
    {
      "channel": 1,
      "note": 101,
      "start": 27.7541,
      "duration": 0.0449,
      "velocity": 127,
      "chip": "ym2612"
    },
    {
      "channel": 1,
      "note": 106,
      "start": 27.8599,
      "duration": 0.0496,
      "velocity": 127,
      "chip": "ym2612"
    },
    {
      "channel": 2,
      "note": 76,
      "start": 27.8603,
      "duration": 0.0021,
      "velocity": 117,
      "chip": "ym2612"
    },
    {
      "channel": 2,
      "note": 76,
      "start": 27.9096,
      "duration": 0.0833,
      "velocity": 117,
      "chip": "ym2612"
    },
    {
      "channel": 1,
      "note": 106,
      "start": 27.9447,
      "duration": 0.0481,
      "velocity": 114,
      "chip": "ym2612"
    },
    {
      "channel": 1,
      "note": 101,
      "start": 28.0621,
      "duration": 0.0289,
      "velocity": 127,
      "chip": "ym2612"
    },
    {
      "channel": 1,
      "note": 106,
      "start": 28.1602,
      "duration": 0.0024,
      "velocity": 114,
      "chip": "ym2612"
    },
    {
      "channel": 1,
      "note": 101,
      "start": 28.1646,
      "duration": 0.1601,
      "velocity": 127,
      "chip": "ym2612"
    },
    {
      "channel": 2,
      "note": 76,
      "start": 28.165,
      "duration": 0.0258,
      "velocity": 117,
      "chip": "ym2612"
    },
    {
      "channel": 2,
      "note": 76,
      "start": 28.3249,
      "duration": 0.0347,
      "velocity": 117,
      "chip": "ym2612"
    },
    {
      "channel": 1,
      "note": 106,
      "start": 28.3611,
      "duration": 0.0063,
      "velocity": 127,
      "chip": "ym2612"
    },
    {
      "channel": 1,
      "note": 106,
      "start": 28.3871,
      "duration": 0.0649,
      "velocity": 114,
      "chip": "ym2612"
    },
    {
      "channel": 1,
      "note": 101,
      "start": 28.5051,
      "duration": 0.0071,
      "velocity": 127,
      "chip": "ym2612"
    },
    {
      "channel": 2,
      "note": 76,
      "start": 28.5056,
      "duration": 0.0033,
      "velocity": 117,
      "chip": "ym2612"
    },
    {
      "channel": 2,
      "note": 76,
      "start": 28.5127,
      "duration": 0.0052,
      "velocity": 117,
      "chip": "ym2612"
    },
    {
      "channel": 1,
      "note": 106,
      "start": 28.5154,
      "duration": 0.0039,
      "velocity": 114,
      "chip": "ym2612"
    },
    {
      "channel": 1,
      "note": 101,
      "start": 28.5222,
      "duration": 0.0041,
      "velocity": 127,
      "chip": "ym2612"
    },
    {
      "channel": 1,
      "note": 106,
      "start": 28.5298,
      "duration": 0.0664,
      "velocity": 127,
      "chip": "ym2612"
    },
    {
      "channel": 1,
      "note": 106,
      "start": 28.5963,
      "duration": 0.0743,
      "velocity": 127,
      "chip": "ym2612"
    },
    {
      "channel": 2,
      "note": 76,
      "start": 28.5967,
      "duration": 0.0022,
      "velocity": 117,
      "chip": "ym2612"
    },
    {
      "channel": 2,
      "note": 76,
      "start": 28.6707,
      "duration": 0.0496,
      "velocity": 117,
      "chip": "ym2612"
    },
    {
      "channel": 1,
      "note": 106,
      "start": 28.7055,
      "duration": 0.048,
      "velocity": 114,
      "chip": "ym2612"
    },
    {
      "channel": 1,
      "note": 101,
      "start": 28.8058,
      "duration": 0.0284,
      "velocity": 127,
      "chip": "ym2612"
    },
    {
      "channel": 1,
      "note": 106,
      "start": 28.9127,
      "duration": 0.0661,
      "velocity": 127,
      "chip": "ym2612"
    },
    {
      "channel": 2,
      "note": 76,
      "start": 28.9131,
      "duration": 0.0022,
      "velocity": 117,
      "chip": "ym2612"
    },
    {
      "channel": 2,
      "note": 76,
      "start": 28.979,
      "duration": 0.0828,
      "velocity": 117,
      "chip": "ym2612"
    },
    {
      "channel": 1,
      "note": 106,
      "start": 28.9967,
      "duration": 0.0817,
      "velocity": 114,
      "chip": "ym2612"
    },
    {
      "channel": 1,
      "note": 101,
      "start": 29.1147,
      "duration": 0.0443,
      "velocity": 127,
      "chip": "ym2612"
    },
    {
      "channel": 1,
      "note": 106,
      "start": 29.2115,
      "duration": 0.0023,
      "velocity": 114,
      "chip": "ym2612"
    },
    {
      "channel": 1,
      "note": 101,
      "start": 29.2169,
      "duration": 0.1606,
      "velocity": 127,
      "chip": "ym2612"
    },
    {
      "channel": 2,
      "note": 76,
      "start": 29.2173,
      "duration": 0.0589,
      "velocity": 117,
      "chip": "ym2612"
    },
    {
      "channel": 2,
      "note": 76,
      "start": 29.3776,
      "duration": 0.0368,
      "velocity": 117,
      "chip": "ym2612"
    },
    {
      "channel": 1,
      "note": 106,
      "start": 29.4121,
      "duration": 0.0028,
      "velocity": 114,
      "chip": "ym2612"
    },
    {
      "channel": 1,
      "note": 101,
      "start": 29.4175,
      "duration": 0.0439,
      "velocity": 127,
      "chip": "ym2612"
    },
    {
      "channel": 1,
      "note": 106,
      "start": 29.5299,
      "duration": 0.0483,
      "velocity": 114,
      "chip": "ym2612"
    },
    {
      "channel": 1,
      "note": 101,
      "start": 29.6319,
      "duration": 0.0305,
      "velocity": 127,
      "chip": "ym2612"
    },
    {
      "channel": 2,
      "note": 76,
      "start": 29.6323,
      "duration": 0.0016,
      "velocity": 117,
      "chip": "ym2612"
    },
    {
      "channel": 2,
      "note": 76,
      "start": 29.6967,
      "duration": 0.0203,
      "velocity": 117,
      "chip": "ym2612"
    },
    {
      "channel": 1,
      "note": 106,
      "start": 29.7148,
      "duration": 0.0027,
      "velocity": 114,
      "chip": "ym2612"
    },
    {
      "channel": 1,
      "note": 101,
      "start": 29.7244,
      "duration": 0.0439,
      "velocity": 127,
      "chip": "ym2612"
    },
    {
      "channel": 1,
      "note": 106,
      "start": 29.8048,
      "duration": 0.0016,
      "velocity": 114,
      "chip": "ym2612"
    },
    {
      "channel": 1,
      "note": 101,
      "start": 29.8099,
      "duration": 0.0009,
      "velocity": 127,
      "chip": "ym2612"
    },
    {
      "channel": 1,
      "note": 106,
      "start": 29.859,
      "duration": 0.0038,
      "velocity": 114,
      "chip": "ym2612"
    },
    {
      "channel": 1,
      "note": 106,
      "start": 29.903,
      "duration": 0.0651,
      "velocity": 127,
      "chip": "ym2612"
    },
    {
      "channel": 1,
      "note": 106,
      "start": 30.0863,
      "duration": 0.0025,
      "velocity": 114,
      "chip": "ym2612"
    },
    {
      "channel": 1,
      "note": 101,
      "start": 30.093,
      "duration": 0.0037,
      "velocity": 127,
      "chip": "ym2612"
    },
    {
      "channel": 1,
      "note": 106,
      "start": 30.1599,
      "duration": 0.0033,
      "velocity": 114,
      "chip": "ym2612"
    },
    {
      "channel": 1,
      "note": 106,
      "start": 30.186,
      "duration": 0.0823,
      "velocity": 127,
      "chip": "ym2612"
    },
    {
      "channel": 1,
      "note": 106,
      "start": 30.3868,
      "duration": 0.0022,
      "velocity": 114,
      "chip": "ym2612"
    },
    {
      "channel": 1,
      "note": 101,
      "start": 30.3921,
      "duration": 0.003,
      "velocity": 127,
      "chip": "ym2612"
    },
    {
      "channel": 1,
      "note": 106,
      "start": 30.442,
      "duration": 0.0078,
      "velocity": 114,
      "chip": "ym2612"
    },
    {
      "channel": 1,
      "note": 106,
      "start": 30.4849,
      "duration": 0.0822,
      "velocity": 127,
      "chip": "ym2612"
    },
    {
      "channel": 1,
      "note": 106,
      "start": 30.6689,
      "duration": 0.0078,
      "velocity": 114,
      "chip": "ym2612"
    },
    {
      "channel": 1,
      "note": 106,
      "start": 30.6954,
      "duration": 0.0815,
      "velocity": 127,
      "chip": "ym2612"
    },
    {
      "channel": 1,
      "note": 106,
      "start": 30.8959,
      "duration": 0.0019,
      "velocity": 114,
      "chip": "ym2612"
    },
    {
      "channel": 1,
      "note": 101,
      "start": 30.9013,
      "duration": 0.0024,
      "velocity": 127,
      "chip": "ym2612"
    },
    {
      "channel": 1,
      "note": 106,
      "start": 30.908,
      "duration": 0.0009,
      "velocity": 114,
      "chip": "ym2612"
    },
    {
      "channel": 1,
      "note": 101,
      "start": 30.9144,
      "duration": 0.0017,
      "velocity": 127,
      "chip": "ym2612"
    }
  ]
}