{
  "track_name": "08 Stage 3",
  "duration_sec": 37.339,
  "sample_rate": 44100,
  "note_count": 689,
  "unique_pitches": 41,
  "pitch_range": 58,
  "avg_note_duration": 0.1767,
  "reconstruction_stats": {
    "notes_reconstructed": 689,
    "keyon_events": 689,
    "keyoff_events": 686,
    "orphan_keyons": 3,
    "unique_pitches": 41,
    "pitch_range": 58,
    "avg_duration_sec": 0.1767
  },
  "metadata": {
    "source": "G\\Gley Lancer\\08 Stage 3.vgz"
  },
  "notes": [
    {
      "channel": 0,
      "note": 64,
      "start": 0.0054,
      "duration": 0.6479,
      "velocity": 87,
      "chip": "ym2612"
    },
    {
      "channel": 1,
      "note": 64,
      "start": 0.0108,
      "duration": 0.6428,
      "velocity": 87,
      "chip": "ym2612"
    },
    {
      "channel": 2,
      "note": 45,
      "start": 0.0171,
      "duration": 0.0153,
      "velocity": 97,
      "chip": "ym2612"
    },
    {
      "channel": 2,
      "note": 45,
      "start": 0.036,
      "duration": 0.0254,
      "velocity": 97,
      "chip": "ym2612"
    },
    {
      "channel": 3,
      "note": 100,
      "start": 0.0497,
      "duration": 0.6285,
      "velocity": 87,
      "chip": "ym2612"
    },
    {
      "channel": 2,
      "note": 52,
      "start": 0.0642,
      "duration": 0.0155,
      "velocity": 97,
      "chip": "ym2612"
    },
    {
      "channel": 4,
      "note": 72,
      "start": 0.0859,
      "duration": 0.6259,
      "velocity": 87,
      "chip": "ym2612"
    },
    {
      "channel": 2,
      "note": 53,
      "start": 0.0895,
      "duration": 0.0989,
      "velocity": 97,
      "chip": "ym2612"
    },
    {
      "channel": 2,
      "note": 60,
      "start": 0.2051,
      "duration": 0.0183,
      "velocity": 97,
      "chip": "ym2612"
    },
    {
      "channel": 2,
      "note": 52,
      "start": 0.2263,
      "duration": 0.0165,
      "velocity": 97,
      "chip": "ym2612"
    },
    {
      "channel": 2,
      "note": 53,
      "start": 0.2458,
      "duration": 0.0532,
      "velocity": 97,
      "chip": "ym2612"
    },
    {
      "channel": 2,
      "note": 60,
      "start": 0.3159,
      "duration": 0.0165,
      "velocity": 97,
      "chip": "ym2612"
    },
    {
      "channel": 2,
      "note": 45,
      "start": 0.3561,
      "duration": 0.018,
      "velocity": 97,
      "chip": "ym2612"
    },
    {
      "channel": 2,
      "note": 52,
      "start": 0.3774,
      "duration": 0.0516,
      "velocity": 97,
      "chip": "ym2612"
    },
    {
      "channel": 2,
      "note": 53,
      "start": 0.4457,
      "duration": 0.0181,
      "velocity": 97,
      "chip": "ym2612"
    },
    {
      "channel": 2,
      "note": 60,
      "start": 0.4667,
      "duration": 0.0163,
      "velocity": 97,
      "chip": "ym2612"
    },
    {
      "channel": 2,
      "note": 52,
      "start": 0.4997,
      "duration": 0.099,
      "velocity": 97,
      "chip": "ym2612"
    },
    {
      "channel": 2,
      "note": 53,
      "start": 0.6154,
      "duration": 0.0183,
      "velocity": 97,
      "chip": "ym2612"
    },
    {
      "channel": 2,
      "note": 60,
      "start": 0.6371,
      "duration": 0.0168,
      "velocity": 97,
      "chip": "ym2612"
    },
    {
      "channel": 0,
      "note": 59,
      "start": 0.657,
      "duration": 0.6382,
      "velocity": 87,
      "chip": "ym2612"
    },
    {
      "channel": 1,
      "note": 59,
      "start": 0.6575,
      "duration": 0.638,
      "velocity": 87,
      "chip": "ym2612"
    },
    {
      "channel": 2,
      "note": 45,
      "start": 0.6582,
      "duration": 0.0162,
      "velocity": 97,
      "chip": "ym2612"
    },
    {
      "channel": 2,
      "note": 45,
      "start": 0.6778,
      "duration": 0.0174,
      "velocity": 97,
      "chip": "ym2612"
    },
    {
      "channel": 3,
      "note": 64,
      "start": 0.6826,
      "duration": 0.6378,
      "velocity": 87,
      "chip": "ym2612"
    },
    {
      "channel": 2,
      "note": 52,
      "start": 0.6981,
      "duration": 0.0171,
      "velocity": 97,
      "chip": "ym2612"
    },
    {
      "channel": 4,
      "note": 64,
      "start": 0.7161,
      "duration": 0.6382,
      "velocity": 87,
      "chip": "ym2612"
    },
    {
      "channel": 2,
      "note": 53,
      "start": 0.7319,
      "duration": 0.0989,
      "velocity": 97,
      "chip": "ym2612"
    },
    {
      "channel": 2,
      "note": 60,
      "start": 0.8475,
      "duration": 0.0181,
      "velocity": 97,
      "chip": "ym2612"
    },
    {
      "channel": 2,
      "note": 52,
      "start": 0.8685,
      "duration": 0.0163,
      "velocity": 97,
      "chip": "ym2612"
    },
    {
      "channel": 2,
      "note": 53,
      "start": 0.8878,
      "duration": 0.0539,
      "velocity": 97,
      "chip": "ym2612"
    },
    {
      "channel": 2,
      "note": 60,
      "start": 0.9587,
      "duration": 0.0179,
      "velocity": 97,
      "chip": "ym2612"
    },
    {
      "channel": 2,
      "note": 45,
      "start": 1.001,
      "duration": 0.0169,
      "velocity": 97,
      "chip": "ym2612"
    },
    {
      "channel": 2,
      "note": 52,
      "start": 1.0208,
      "duration": 0.0504,
      "velocity": 97,
      "chip": "ym2612"
    },
    {
      "channel": 2,
      "note": 53,
      "start": 1.088,
      "duration": 0.0178,
      "velocity": 97,
      "chip": "ym2612"
    },
    {
      "channel": 2,
      "note": 60,
      "start": 1.1087,
      "duration": 0.0163,
      "velocity": 97,
      "chip": "ym2612"
    },
    {
      "channel": 2,
      "note": 52,
      "start": 1.1418,
      "duration": 0.0989,
      "velocity": 97,
      "chip": "ym2612"
    },
    {
      "channel": 2,
      "note": 53,
      "start": 1.2573,
      "duration": 0.0182,
      "velocity": 97,
      "chip": "ym2612"
    },
    {
      "channel": 2,
      "note": 60,
      "start": 1.279,
      "duration": 0.0168,
      "velocity": 97,
      "chip": "ym2612"
    },
    {
      "channel": 0,
      "note": 60,
      "start": 1.2989,
      "duration": 0.6378,
      "velocity": 87,
      "chip": "ym2612"
    },
    {
      "channel": 1,
      "note": 60,
      "start": 1.2994,
      "duration": 0.6376,
      "velocity": 87,
      "chip": "ym2612"
    },
    {
      "channel": 2,
      "note": 45,
      "start": 1.3001,
      "duration": 0.0163,
      "velocity": 97,
      "chip": "ym2612"
    },
    {
      "channel": 2,
      "note": 45,
      "start": 1.32,
      "duration": 0.0177,
      "velocity": 97,
      "chip": "ym2612"
    },
    {
      "channel": 3,
      "note": 59,
      "start": 1.3248,
      "duration": 0.6372,
      "velocity": 87,
      "chip": "ym2612"
    },
    {
      "channel": 2,
      "note": 52,
      "start": 1.3405,
      "duration": 0.017,
      "velocity": 97,
      "chip": "ym2612"
    },
    {
      "channel": 4,
      "note": 59,
      "start": 1.3583,
      "duration": 0.6371,
      "velocity": 87,
      "chip": "ym2612"
    },
    {
      "channel": 2,
      "note": 53,
      "start": 1.3742,
      "duration": 0.099,
      "velocity": 97,
      "chip": "ym2612"
    },
    {
      "channel": 2,
      "note": 60,
      "start": 1.4898,
      "duration": 0.018,
      "velocity": 97,
      "chip": "ym2612"
    },
    {
      "channel": 2,
      "note": 52,
      "start": 1.511,
      "duration": 0.0172,
      "velocity": 97,
      "chip": "ym2612"
    },
    {
      "channel": 2,
      "note": 53,
      "start": 1.5313,
      "duration": 0.0539,
      "velocity": 97,
      "chip": "ym2612"
    },
    {
      "channel": 2,
      "note": 60,
      "start": 1.602,
      "duration": 0.0173,
      "velocity": 97,
      "chip": "ym2612"
    },
    {
      "channel": 2,
      "note": 45,
      "start": 1.6423,
      "duration": 0.0166,
      "velocity": 97,
      "chip": "ym2612"
    },
    {
      "channel": 2,
      "note": 52,
      "start": 1.6618,
      "duration": 0.0505,
      "velocity": 97,
      "chip": "ym2612"
    },
    {
      "channel": 2,
      "note": 53,
      "start": 1.729,
      "duration": 0.0178,
      "velocity": 97,
      "chip": "ym2612"
    },
    {
      "channel": 2,
      "note": 60,
      "start": 1.7497,
      "duration": 0.0163,
      "velocity": 97,
      "chip": "ym2612"
    },
    {
      "channel": 2,
      "note": 52,
      "start": 1.7827,
      "duration": 0.0989,
      "velocity": 97,
      "chip": "ym2612"
    },
    {
      "channel": 2,
      "note": 53,
      "start": 1.8984,
      "duration": 0.0183,
      "velocity": 97,
      "chip": "ym2612"
    },
    {
      "channel": 2,
      "note": 60,
      "start": 1.9202,
      "duration": 0.0171,
      "velocity": 97,
      "chip": "ym2612"
    },
    {
      "channel": 0,
      "note": 67,
      "start": 1.9405,
      "duration": 0.5309,
      "velocity": 87,
      "chip": "ym2612"
    },
    {
      "channel": 1,
      "note": 67,
      "start": 1.941,
      "duration": 0.5307,
      "velocity": 87,
      "chip": "ym2612"
    },
    {
      "channel": 2,
      "note": 45,
      "start": 1.9418,
      "duration": 0.0163,
      "velocity": 97,
      "chip": "ym2612"
    },
    {
      "channel": 2,
      "note": 45,
      "start": 1.9616,
      "duration": 0.0174,
      "velocity": 97,
      "chip": "ym2612"
    },
    {
      "channel": 3,
      "note": 60,
      "start": 1.9664,
      "duration": 0.5328,
      "velocity": 87,
      "chip": "ym2612"
    },
    {
      "channel": 2,
      "note": 52,
      "start": 1.9819,
      "duration": 0.0172,
      "velocity": 97,
      "chip": "ym2612"
    },
    {
      "channel": 4,
      "note": 60,
      "start": 1.9999,
      "duration": 0.5392,
      "velocity": 87,
      "chip": "ym2612"
    },
    {
      "channel": 2,
      "note": 53,
      "start": 2.016,
      "duration": 0.0997,
      "velocity": 97,
      "chip": "ym2612"
    },
    {
      "channel": 2,
      "note": 60,
      "start": 2.1323,
      "duration": 0.0184,
      "velocity": 97,
      "chip": "ym2612"
    },
    {
      "channel": 2,
      "note": 52,
      "start": 2.1539,
      "duration": 0.0174,
      "velocity": 97,
      "chip": "ym2612"
    },
    {
      "channel": 2,
      "note": 53,
      "start": 2.1742,
      "duration": 0.053,
      "velocity": 97,
      "chip": "ym2612"
    },
    {
      "channel": 2,
      "note": 60,
      "start": 2.244,
      "duration": 0.0165,
      "velocity": 97,
      "chip": "ym2612"
    },
    {
      "channel": 2,
      "note": 45,
      "start": 2.2835,
      "duration": 0.0166,
      "velocity": 97,
      "chip": "ym2612"
    },
    {
      "channel": 2,
      "note": 52,
      "start": 2.303,
      "duration": 0.0505,
      "velocity": 97,
      "chip": "ym2612"
    },
    {
      "channel": 2,
      "note": 53,
      "start": 2.3702,
      "duration": 0.0177,
      "velocity": 97,
      "chip": "ym2612"
    },
    {
      "channel": 2,
      "note": 60,
      "start": 2.3915,
      "duration": 0.0175,
      "velocity": 97,
      "chip": "ym2612"
    },
    {
      "channel": 2,
      "note": 52,
      "start": 2.4124,
      "duration": 0.0174,
      "velocity": 97,
      "chip": "ym2612"
    },
    {
      "channel": 2,
      "note": 53,
      "start": 2.4329,
      "duration": 0.017,
      "velocity": 97,
      "chip": "ym2612"
    },
    {
      "channel": 2,
      "note": 60,
      "start": 2.4535,
      "duration": 0.0185,
      "velocity": 97,
      "chip": "ym2612"
    },
    {
      "channel": 0,
      "note": 64,
      "start": 2.4786,
      "duration": 0.0615,
      "velocity": 110,
      "chip": "ym2612"
    },
    {
      "channel": 2,
      "note": 45,
      "start": 2.4798,
      "duration": 0.0162,
      "velocity": 97,
      "chip": "ym2612"
    },
    {
      "channel": 2,
      "note": 45,
      "start": 2.4988,
      "duration": 0.0224,
      "velocity": 97,
      "chip": "ym2612"
    },
    {
      "channel": 3,
      "note": 67,
      "start": 2.5082,
      "duration": 0.0652,
      "velocity": 110,
      "chip": "ym2612"
    },
    {
      "channel": 2,
      "note": 52,
      "start": 2.5243,
      "duration": 0.0163,
      "velocity": 97,
      "chip": "ym2612"
    },
    {
      "channel": 4,
      "note": 67,
      "start": 2.5479,
      "duration": 0.0591,
      "velocity": 110,
      "chip": "ym2612"
    },
    {
      "channel": 0,
      "note": 64,
      "start": 2.5496,
      "duration": 0.0601,
      "velocity": 110,
      "chip": "ym2612"
    },
    {
      "channel": 2,
      "note": 53,
      "start": 2.5504,
      "duration": 0.0186,
      "velocity": 97,
      "chip": "ym2612"
    },
    {
      "channel": 2,
      "note": 60,
      "start": 2.573,
      "duration": 0.0177,
      "velocity": 97,
      "chip": "ym2612"
    },
    {
      "channel": 3,
      "note": 64,
      "start": 2.5781,
      "duration": 0.1649,
      "velocity": 110,
      "chip": "ym2612"
    },
    {
      "channel": 2,
      "note": 52,
      "start": 2.5935,
      "duration": 0.0167,
      "velocity": 97,
      "chip": "ym2612"
    },
    {
      "channel": 4,
      "note": 64,
      "start": 2.6111,
      "duration": 0.1658,
      "velocity": 110,
      "chip": "ym2612"
    },
    {
      "channel": 0,
      "note": 69,
      "start": 2.6264,
      "duration": 0.0659,
      "velocity": 110,
      "chip": "ym2612"
    },
    {
      "channel": 2,
      "note": 53,
      "start": 2.6272,
      "duration": 0.0986,
      "velocity": 97,
      "chip": "ym2612"
    },
    {
      "channel": 2,
      "note": 60,
      "start": 2.7426,
      "duration": 0.0163,
      "velocity": 97,
      "chip": "ym2612"
    },
    {
      "channel": 3,
      "note": 64,
      "start": 2.7462,
      "duration": 0.0104,
      "velocity": 110,
      "chip": "ym2612"
    },
    {
      "channel": 0,
      "note": 76,
      "start": 2.7625,
      "duration": 0.1574,
      "velocity": 110,
      "chip": "ym2612"
    },
    {
      "channel": 4,
      "note": 64,
      "start": 2.7798,
      "duration": 0.011,
      "velocity": 110,
      "chip": "ym2612"
    },
    {
      "channel": 2,
      "note": 45,
      "start": 2.7822,
      "duration": 0.0558,
      "velocity": 97,
      "chip": "ym2612"
    },
    {
      "channel": 3,
      "note": 69,
      "start": 2.7854,
      "duration": 0.1995,
      "velocity": 110,
      "chip": "ym2612"
    },
    {
      "channel": 2,
      "note": 52,
      "start": 2.8546,
      "duration": 0.0989,
      "velocity": 97,
      "chip": "ym2612"
    },
    {
      "channel": 4,
      "note": 69,
      "start": 2.9544,
      "duration": 0.0673,
      "velocity": 110,
      "chip": "ym2612"
    },
    {
      "channel": 2,
      "note": 53,
      "start": 2.9702,
      "duration": 0.017,
      "velocity": 97,
      "chip": "ym2612"
    },
    {
      "channel": 0,
      "note": 72,
      "start": 2.9897,
      "duration": 0.0088,
      "velocity": 110,
      "chip": "ym2612"
    },
    {
      "channel": 2,
      "note": 60,
      "start": 2.9906,
      "duration": 0.0166,
      "velocity": 97,
      "chip": "ym2612"
    },
    {
      "channel": 0,
      "note": 71,
      "start": 3.0105,
      "duration": 0.0102,
      "velocity": 110,
      "chip": "ym2612"
    },
    {
      "channel": 2,
      "note": 52,
      "start": 3.0112,
      "duration": 0.0181,
      "velocity": 97,
      "chip": "ym2612"
    },
    {
      "channel": 3,
      "note": 76,
      "start": 3.016,
      "duration": 0.0082,
      "velocity": 110,
      "chip": "ym2612"
    },
    {
      "channel": 0,
      "note": 72,
      "start": 3.032,
      "duration": 0.0757,
      "velocity": 110,
      "chip": "ym2612"
    },
    {
      "channel": 2,
      "note": 53,
      "start": 3.0328,
      "duration": 0.0166,
      "velocity": 97,
      "chip": "ym2612"
    },
    {
      "channel": 3,
      "note": 72,
      "start": 3.0365,
      "duration": 0.0078,
      "velocity": 110,
      "chip": "ym2612"
    },
    {
      "channel": 4,
      "note": 76,
      "start": 3.0502,
      "duration": 0.0085,
      "velocity": 110,
      "chip": "ym2612"
    },
    {
      "channel": 2,
      "note": 60,
      "start": 3.0525,
      "duration": 0.0558,
      "velocity": 97,
      "chip": "ym2612"
    },
    {
      "channel": 3,
      "note": 71,
      "start": 3.0558,
      "duration": 0.0922,
      "velocity": 110,
      "chip": "ym2612"
    },
    {
      "channel": 4,
      "note": 72,
      "start": 3.1092,
      "duration": 0.0233,
      "velocity": 110,
      "chip": "ym2612"
    },
    {
      "channel": 0,
      "note": 71,
      "start": 3.1246,
      "duration": 0.1198,
      "velocity": 110,
      "chip": "ym2612"
    },
    {
      "channel": 2,
      "note": 45,
      "start": 3.1257,
      "duration": 0.0166,
      "velocity": 97,
      "chip": "ym2612"
    },
    {
      "channel": 4,
      "note": 71,
      "start": 3.1442,
      "duration": 0.0382,
      "velocity": 110,
      "chip": "ym2612"
    },
    {
      "channel": 2,
      "note": 45,
      "start": 3.1465,
      "duration": 0.0191,
      "velocity": 97,
      "chip": "ym2612"
    },
    {
      "channel": 3,
      "note": 72,
      "start": 3.1529,
      "duration": 0.2251,
      "velocity": 110,
      "chip": "ym2612"
    },
    {
      "channel": 2,
      "note": 52,
      "start": 3.1687,
      "duration": 0.0159,
      "velocity": 97,
      "chip": "ym2612"
    },
    {
      "channel": 4,
      "note": 72,
      "start": 3.1854,
      "duration": 0.2268,
      "velocity": 110,
      "chip": "ym2612"
    },
    {
      "channel": 2,
      "note": 53,
      "start": 3.1878,
      "duration": 0.0162,
      "velocity": 97,
      "chip": "ym2612"
    },
    {
      "channel": 2,
      "note": 60,
      "start": 3.208,
      "duration": 0.0175,
      "velocity": 97,
      "chip": "ym2612"
    },
    {
      "channel": 2,
      "note": 52,
      "start": 3.2283,
      "duration": 0.0167,
      "velocity": 97,
      "chip": "ym2612"
    },
    {
      "channel": 0,
      "note": 67,
      "start": 3.2612,
      "duration": 0.0493,
      "velocity": 110,
      "chip": "ym2612"
    },
    {
      "channel": 2,
      "note": 53,
      "start": 3.262,
      "duration": 0.0987,
      "velocity": 97,
      "chip": "ym2612"
    },
    {
      "channel": 0,
      "note": 72,
      "start": 3.3768,
      "duration": 0.0092,
      "velocity": 110,
      "chip": "ym2612"
    },
    {
      "channel": 2,
      "note": 60,
      "start": 3.3776,
      "duration": 0.017,
      "velocity": 97,
      "chip": "ym2612"
    },
    {
      "channel": 3,
      "note": 71,
      "start": 3.3813,
      "duration": 0.0081,
      "velocity": 110,
      "chip": "ym2612"
    },
    {
      "channel": 0,
      "note": 79,
      "start": 3.3969,
      "duration": 0.1576,
      "velocity": 110,
      "chip": "ym2612"
    },
    {
      "channel": 3,
      "note": 67,
      "start": 3.4012,
      "duration": 0.0079,
      "velocity": 110,
      "chip": "ym2612"
    },
    {
      "channel": 4,
      "note": 71,
      "start": 3.4152,
      "duration": 0.0085,
      "velocity": 110,
      "chip": "ym2612"
    },
    {
      "channel": 2,
      "note": 45,
      "start": 3.4175,
      "duration": 0.055,
      "velocity": 97,
      "chip": "ym2612"
    },
    {
      "channel": 3,
      "note": 72,
      "start": 3.4207,
      "duration": 0.1986,
      "velocity": 110,
      "chip": "ym2612"
    },
    {
      "channel": 4,
      "note": 67,
      "start": 3.4733,
      "duration": 0.0493,
      "velocity": 110,
      "chip": "ym2612"
    },
    {
      "channel": 2,
      "note": 52,
      "start": 3.4892,
      "duration": 0.0988,
      "velocity": 97,
      "chip": "ym2612"
    },
    {
      "channel": 4,
      "note": 72,
      "start": 3.5889,
      "duration": 0.0671,
      "velocity": 110,
      "chip": "ym2612"
    },
    {
      "channel": 2,
      "note": 53,
      "start": 3.6047,
      "duration": 0.0171,
      "velocity": 97,
      "chip": "ym2612"
    },
    {
      "channel": 0,
      "note": 77,
      "start": 3.6242,
      "duration": 0.0087,
      "velocity": 110,
      "chip": "ym2612"
    },
    {
      "channel": 2,
      "note": 60,
      "start": 3.625,
      "duration": 0.0163,
      "velocity": 97,
      "chip": "ym2612"
    },
    {
      "channel": 0,
      "note": 76,
      "start": 3.6448,
      "duration": 0.0101,
      "velocity": 110,
      "chip": "ym2612"
    },
    {
      "channel": 2,
      "note": 52,
      "start": 3.6456,
      "duration": 0.018,
      "velocity": 97,
      "chip": "ym2612"
    },
    {
      "channel": 3,
      "note": 79,
      "start": 3.6503,
      "duration": 0.0081,
      "velocity": 110,
      "chip": "ym2612"
    },
    {
      "channel": 0,
      "note": 77,
      "start": 3.6672,
      "duration": 0.0764,
      "velocity": 110,
      "chip": "ym2612"
    },
    {
      "channel": 2,
      "note": 53,
      "start": 3.668,
      "duration": 0.0176,
      "velocity": 97,
      "chip": "ym2612"
    },
    {
      "channel": 3,
      "note": 77,
      "start": 3.6717,
      "duration": 0.0083,
      "velocity": 110,
      "chip": "ym2612"
    },
    {
      "channel": 4,
      "note": 79,
      "start": 3.6864,
      "duration": 0.0094,
      "velocity": 110,
      "chip": "ym2612"
    },
    {
      "channel": 2,
      "note": 60,
      "start": 3.689,
      "duration": 0.0552,
      "velocity": 97,
      "chip": "ym2612"
    },
    {
      "channel": 3,
      "note": 76,
      "start": 3.6926,
      "duration": 0.0935,
      "velocity": 110,
      "chip": "ym2612"
    },
    {
      "channel": 4,
      "note": 77,
      "start": 3.7451,
      "duration": 0.0273,
      "velocity": 110,
      "chip": "ym2612"
    },
    {
      "channel": 0,
      "note": 76,
      "start": 3.7604,
      "duration": 0.7715,
      "velocity": 110,
      "chip": "ym2612"
    },
    {
      "channel": 2,
      "note": 45,
      "start": 3.7659,
      "duration": 0.0163,
      "velocity": 97,
      "chip": "ym2612"
    },
    {
      "channel": 4,
      "note": 76,
      "start": 3.7831,
      "duration": 0.0399,
      "velocity": 110,
      "chip": "ym2612"
    },
    {
      "channel": 1,
      "note": 71,
      "start": 3.7852,
      "duration": 0.0183,
      "velocity": 78,
      "chip": "ym2612"
    },
    {
      "channel": 2,
      "note": 45,
      "start": 3.7857,
      "duration": 0.018,
      "velocity": 97,
      "chip": "ym2612"
    },
    {
      "channel": 3,
      "note": 77,
      "start": 3.7911,
      "duration": 0.7691,
      "velocity": 110,
      "chip": "ym2612"
    },
    {
      "channel": 1,
      "note": 72,
      "start": 3.807,
      "duration": 0.0178,
      "velocity": 78,
      "chip": "ym2612"
    },
    {
      "channel": 2,
      "note": 52,
      "start": 3.8075,
      "duration": 0.0176,
      "velocity": 97,
      "chip": "ym2612"
    },
    {
      "channel": 1,
      "note": 76,
      "start": 3.8334,
      "duration": 0.0162,
      "velocity": 78,
      "chip": "ym2612"
    },
    {
      "channel": 2,
      "note": 53,
      "start": 3.8339,
      "duration": 0.016,
      "velocity": 97,
      "chip": "ym2612"
    },
    {
      "channel": 4,
      "note": 77,
      "start": 3.8508,
      "duration": 0.0183,
      "velocity": 78,
      "chip": "ym2612"
    },
    {
      "channel": 1,
      "note": 79,
      "start": 3.8537,
      "duration": 0.0709,
      "velocity": 78,
      "chip": "ym2612"
    },
    {
      "channel": 2,
      "note": 60,
      "start": 3.8542,
      "duration": 0.017,
      "velocity": 97,
      "chip": "ym2612"
    },
    {
      "channel": 4,
      "note": 71,
      "start": 3.8721,
      "duration": 0.0368,
      "velocity": 78,
      "chip": "ym2612"
    },
    {
      "channel": 2,
      "note": 52,
      "start": 3.8744,
      "duration": 0.0505,
      "velocity": 97,
      "chip": "ym2612"
    },
    {
      "channel": 4,
      "note": 72,
      "start": 3.9258,
      "duration": 0.0313,
      "velocity": 78,
      "chip": "ym2612"
    },
    {
      "channel": 1,
      "note": 83,
      "start": 3.9414,
      "duration": 0.0176,
      "velocity": 78,
      "chip": "ym2612"
    },
    {
      "channel": 2,
      "note": 53,
      "start": 3.9419,
      "duration": 0.0173,
      "velocity": 97,
      "chip": "ym2612"
    },
    {
      "channel": 4,
      "note": 76,
      "start": 3.9601,
      "duration": 0.0406,
      "velocity": 78,
      "chip": "ym2612"
    },
    {
      "channel": 1,
      "note": 84,
      "start": 3.9626,
      "duration": 0.0182,
      "velocity": 78,
      "chip": "ym2612"
    },
    {
      "channel": 2,
      "note": 60,
      "start": 3.9631,
      "duration": 0.0179,
      "velocity": 97,
      "chip": "ym2612"
    },
    {
      "channel": 1,
      "note": 88,
      "start": 3.9844,
      "duration": 0.0182,
      "velocity": 78,
      "chip": "ym2612"
    },
    {
      "channel": 4,
      "note": 79,
      "start": 4.004,
      "duration": 0.0173,
      "velocity": 78,
      "chip": "ym2612"
    },
    {
      "channel": 1,
      "note": 91,
      "start": 4.0065,
      "duration": 0.0376,
      "velocity": 78,
      "chip": "ym2612"
    },
    {
      "channel": 2,
      "note": 45,
      "start": 4.0071,
      "duration": 0.0163,
      "velocity": 97,
      "chip": "ym2612"
    },
    {
      "channel": 4,
      "note": 83,
      "start": 4.0243,
      "duration": 0.018,
      "velocity": 78,
      "chip": "ym2612"
    },
    {
      "channel": 2,
      "note": 52,
      "start": 4.0273,
      "duration": 0.0171,
      "velocity": 97,
      "chip": "ym2612"
    },
    {
      "channel": 4,
      "note": 84,
      "start": 4.0453,
      "duration": 0.0373,
      "velocity": 78,
      "chip": "ym2612"
    },
    {
      "channel": 1,
      "note": 95,
      "start": 4.0475,
      "duration": 0.051,
      "velocity": 78,
      "chip": "ym2612"
    },
    {
      "channel": 2,
      "note": 53,
      "start": 4.048,
      "duration": 0.0507,
      "velocity": 97,
      "chip": "ym2612"
    },
    {
      "channel": 4,
      "note": 88,
      "start": 4.0997,
      "duration": 0.0532,
      "velocity": 78,
      "chip": "ym2612"
    },
    {
      "channel": 1,
      "note": 96,
      "start": 4.1154,
      "duration": 0.0183,
      "velocity": 78,
      "chip": "ym2612"
    },
    {
      "channel": 2,
      "note": 60,
      "start": 4.1159,
      "duration": 0.018,
      "velocity": 97,
      "chip": "ym2612"
    },
    {
      "channel": 1,
      "note": 100,
      "start": 4.1369,
      "duration": 0.0171,
      "velocity": 78,
      "chip": "ym2612"
    },
    {
      "channel": 2,
      "note": 52,
      "start": 4.1374,
      "duration": 0.0168,
      "velocity": 97,
      "chip": "ym2612"
    },
    {
      "channel": 4,
      "note": 91,
      "start": 4.1563,
      "duration": 0.0176,
      "velocity": 78,
      "chip": "ym2612"
    },
    {
      "channel": 1,
      "note": 103,
      "start": 4.1576,
      "duration": 0.0382,
      "velocity": 78,
      "chip": "ym2612"
    },
    {
      "channel": 2,
      "note": 53,
      "start": 4.1581,
      "duration": 0.0178,
      "velocity": 97,
      "chip": "ym2612"
    },
    {
      "channel": 4,
      "note": 95,
      "start": 4.1768,
      "duration": 0.0171,
      "velocity": 78,
      "chip": "ym2612"
    },
    {
      "channel": 2,
      "note": 60,
      "start": 4.1796,
      "duration": 0.0165,
      "velocity": 97,
      "chip": "ym2612"
    },
    {
      "channel": 4,
      "note": 96,
      "start": 4.197,
      "duration": 0.0169,
      "velocity": 78,
      "chip": "ym2612"
    },
    {
      "channel": 1,
      "note": 71,
      "start": 4.1992,
      "duration": 0.0165,
      "velocity": 78,
      "chip": "ym2612"
    },
    {
      "channel": 2,
      "note": 45,
      "start": 4.1998,
      "duration": 0.0161,
      "velocity": 97,
      "chip": "ym2612"
    },
    {
      "channel": 4,
      "note": 100,
      "start": 4.2168,
      "duration": 0.0393,
      "velocity": 78,
      "chip": "ym2612"
    },
    {
      "channel": 1,
      "note": 72,
      "start": 4.2189,
      "duration": 0.0173,
      "velocity": 78,
      "chip": "ym2612"
    },
    {
      "channel": 2,
      "note": 45,
      "start": 4.2195,
      "duration": 0.017,
      "velocity": 97,
      "chip": "ym2612"
    },
    {
      "channel": 1,
      "note": 76,
      "start": 4.2399,
      "duration": 0.0181,
      "velocity": 78,
      "chip": "ym2612"
    },
    {
      "channel": 2,
      "note": 52,
      "start": 4.2404,
      "duration": 0.0179,
      "velocity": 97,
      "chip": "ym2612"
    },
    {
      "channel": 4,
      "note": 103,
      "start": 4.2593,
      "duration": 0.0181,
      "velocity": 78,
      "chip": "ym2612"
    },
    {
      "channel": 1,
      "note": 79,
      "start": 4.2615,
      "duration": 0.0371,
      "velocity": 78,
      "chip": "ym2612"
    },
    {
      "channel": 2,
      "note": 53,
      "start": 4.262,
      "duration": 0.0176,
      "velocity": 97,
      "chip": "ym2612"
    },
    {
      "channel": 4,
      "note": 71,
      "start": 4.2805,
      "duration": 0.0162,
      "velocity": 78,
      "chip": "ym2612"
    },
    {
      "channel": 2,
      "note": 60,
      "start": 4.2829,
      "duration": 0.016,
      "velocity": 97,
      "chip": "ym2612"
    },
    {
      "channel": 4,
      "note": 72,
      "start": 4.2998,
      "duration": 0.0184,
      "velocity": 78,
      "chip": "ym2612"
    },
    {
      "channel": 1,
      "note": 83,
      "start": 4.302,
      "duration": 0.018,
      "velocity": 78,
      "chip": "ym2612"
    },
    {
      "channel": 2,
      "note": 52,
      "start": 4.3025,
      "duration": 0.0178,
      "velocity": 97,
      "chip": "ym2612"
    },
    {
      "channel": 4,
      "note": 76,
      "start": 4.3212,
      "duration": 0.0384,
      "velocity": 78,
      "chip": "ym2612"
    },
    {
      "channel": 1,
      "note": 84,
      "start": 4.3234,
      "duration": 0.0165,
      "velocity": 78,
      "chip": "ym2612"
    },
    {
      "channel": 2,
      "note": 53,
      "start": 4.3239,
      "duration": 0.0162,
      "velocity": 97,
      "chip": "ym2612"
    },
    {
      "channel": 1,
      "note": 88,
      "start": 4.3432,
      "duration": 0.0183,
      "velocity": 78,
      "chip": "ym2612"
    },
    {
      "channel": 2,
      "note": 60,
      "start": 4.3438,
      "duration": 0.018,
      "velocity": 97,
      "chip": "ym2612"
    },
    {
      "channel": 4,
      "note": 79,
      "start": 4.3628,
      "duration": 0.0168,
      "velocity": 78,
      "chip": "ym2612"
    },
    {
      "channel": 1,
      "note": 91,
      "start": 4.365,
      "duration": 0.0376,
      "velocity": 78,
      "chip": "ym2612"
    },
    {
      "channel": 4,
      "note": 83,
      "start": 4.3825,
      "duration": 0.0182,
      "velocity": 78,
      "chip": "ym2612"
    },
    {
      "channel": 2,
      "note": 45,
      "start": 4.3856,
      "duration": 0.0173,
      "velocity": 97,
      "chip": "ym2612"
    },
    {
      "channel": 4,
      "note": 84,
      "start": 4.4038,
      "duration": 0.0182,
      "velocity": 78,
      "chip": "ym2612"
    },
    {
      "channel": 1,
      "note": 95,
      "start": 4.4072,
      "duration": 0.0169,
      "velocity": 78,
      "chip": "ym2612"
    },
    {
      "channel": 2,
      "note": 52,
      "start": 4.4077,
      "duration": 0.0166,
      "velocity": 97,
      "chip": "ym2612"
    },
    {
      "channel": 4,
      "note": 88,
      "start": 4.4252,
      "duration": 0.0402,
      "velocity": 78,
      "chip": "ym2612"
    },
    {
      "channel": 1,
      "note": 96,
      "start": 4.4292,
      "duration": 0.017,
      "velocity": 78,
      "chip": "ym2612"
    },
    {
      "channel": 2,
      "note": 53,
      "start": 4.4298,
      "duration": 0.0167,
      "velocity": 97,
      "chip": "ym2612"
    },
    {
      "channel": 1,
      "note": 100,
      "start": 4.4493,
      "duration": 0.0179,
      "velocity": 78,
      "chip": "ym2612"
    },
    {
      "channel": 2,
      "note": 60,
      "start": 4.4498,
      "duration": 0.0176,
      "velocity": 97,
      "chip": "ym2612"
    },
    {
      "channel": 4,
      "note": 91,
      "start": 4.4685,
      "duration": 0.0183,
      "velocity": 78,
      "chip": "ym2612"
    },
    {
      "channel": 1,
      "note": 103,
      "start": 4.4709,
      "duration": 0.0613,
      "velocity": 78,
      "chip": "ym2612"
    },
    {
      "channel": 2,
      "note": 52,
      "start": 4.4714,
      "duration": 0.0175,
      "velocity": 97,
      "chip": "ym2612"
    },
    {
      "channel": 4,
      "note": 95,
      "start": 4.4899,
      "duration": 0.0187,
      "velocity": 78,
      "chip": "ym2612"
    },
    {
      "channel": 2,
      "note": 53,
      "start": 4.4926,
      "duration": 0.018,
      "velocity": 97,
      "chip": "ym2612"
    },
    {
      "channel": 4,
      "note": 96,
      "start": 4.5115,
      "duration": 0.0187,
      "velocity": 78,
      "chip": "ym2612"
    },
    {
      "channel": 2,
      "note": 60,
      "start": 4.5145,
      "duration": 0.018,
      "velocity": 97,
      "chip": "ym2612"
    },
    {
      "channel": 4,
      "note": 100,
      "start": 4.5334,
      "duration": 0.0649,
      "velocity": 78,
      "chip": "ym2612"
    },
    {
      "channel": 0,
      "note": 64,
      "start": 4.5395,
      "duration": 0.0604,
      "velocity": 110,
      "chip": "ym2612"
    },
    {
      "channel": 2,
      "note": 45,
      "start": 4.5407,
      "duration": 0.0163,
      "velocity": 97,
      "chip": "ym2612"
    },
    {
      "channel": 2,
      "note": 45,
      "start": 4.5598,
      "duration": 0.0222,
      "velocity": 97,
      "chip": "ym2612"
    },
    {
      "channel": 3,
      "note": 76,
      "start": 4.5691,
      "duration": 0.062,
      "velocity": 110,
      "chip": "ym2612"
    },
    {
      "channel": 2,
      "note": 52,
      "start": 4.5848,
      "duration": 0.0157,
      "velocity": 97,
      "chip": "ym2612"
    },
    {
      "channel": 4,
      "note": 103,
      "start": 4.6067,
      "duration": 0.0585,
      "velocity": 110,
      "chip": "ym2612"
    },
    {
      "channel": 0,
      "note": 64,
      "start": 4.6085,
      "duration": 0.0593,
      "velocity": 110,
      "chip": "ym2612"
    },
    {
      "channel": 2,
      "note": 53,
      "start": 4.6093,
      "duration": 0.0174,
      "velocity": 97,
      "chip": "ym2612"
    },
    {
      "channel": 2,
      "note": 60,
      "start": 4.6308,
      "duration": 0.0177,
      "velocity": 97,
      "chip": "ym2612"
    },
    {
      "channel": 3,
      "note": 64,
      "start": 4.6356,
      "duration": 0.1656,
      "velocity": 110,
      "chip": "ym2612"
    },
    {
      "channel": 2,
      "note": 52,
      "start": 4.6514,
      "duration": 0.017,
      "velocity": 97,
      "chip": "ym2612"
    },
    {
      "channel": 4,
      "note": 64,
      "start": 4.6692,
      "duration": 0.1663,
      "velocity": 110,
      "chip": "ym2612"
    },
    {
      "channel": 0,
      "note": 69,
      "start": 4.6846,
      "duration": 0.0659,
      "velocity": 110,
      "chip": "ym2612"
    },
    {
      "channel": 2,
      "note": 53,
      "start": 4.6854,
      "duration": 0.0987,
      "velocity": 97,
      "chip": "ym2612"
    },
    {
      "channel": 2,
      "note": 60,
      "start": 4.8007,
      "duration": 0.0163,
      "velocity": 97,
      "chip": "ym2612"
    },
    {
      "channel": 3,
      "note": 64,
      "start": 4.8043,
      "duration": 0.0103,
      "velocity": 110,
      "chip": "ym2612"
    },
    {
      "channel": 0,
      "note": 76,
      "start": 4.8209,
      "duration": 0.1592,
      "velocity": 110,
      "chip": "ym2612"
    },
    {
      "channel": 4,
      "note": 64,
      "start": 4.8388,
      "duration": 0.0122,
      "velocity": 110,
      "chip": "ym2612"
    },
    {
      "channel": 2,
      "note": 45,
      "start": 4.8413,
      "duration": 0.0567,
      "velocity": 97,
      "chip": "ym2612"
    },
    {
      "channel": 3,
      "note": 69,
      "start": 4.8449,
      "duration": 0.2002,
      "velocity": 110,
      "chip": "ym2612"
    },
    {
      "channel": 2,
      "note": 52,
      "start": 4.9146,
      "duration": 0.0989,
      "velocity": 97,
      "chip": "ym2612"
    },
    {
      "channel": 4,
      "note": 69,
      "start": 5.0144,
      "duration": 0.0668,
      "velocity": 110,
      "chip": "ym2612"
    },
    {
      "channel": 2,
      "note": 53,
      "start": 5.0303,
      "duration": 0.0171,
      "velocity": 97,
      "chip": "ym2612"
    },
    {
      "channel": 0,
      "note": 72,
      "start": 5.0498,
      "duration": 0.0086,
      "velocity": 110,
      "chip": "ym2612"
    },
    {
      "channel": 2,
      "note": 60,
      "start": 5.0507,
      "duration": 0.0163,
      "velocity": 97,
      "chip": "ym2612"
    },
    {
      "channel": 0,
      "note": 71,
      "start": 5.0701,
      "duration": 0.01,
      "velocity": 110,
      "chip": "ym2612"
    },
    {
      "channel": 2,
      "note": 52,
      "start": 5.0709,
      "duration": 0.0179,
      "velocity": 97,
      "chip": "ym2612"
    },
    {
      "channel": 3,
      "note": 76,
      "start": 5.0756,
      "duration": 0.0081,
      "velocity": 110,
      "chip": "ym2612"
    },
    {
      "channel": 0,
      "note": 72,
      "start": 5.0912,
      "duration": 0.0749,
      "velocity": 110,
      "chip": "ym2612"
    },
    {
      "channel": 2,
      "note": 53,
      "start": 5.092,
      "duration": 0.0165,
      "velocity": 97,
      "chip": "ym2612"
    },
    {
      "channel": 3,
      "note": 72,
      "start": 5.0956,
      "duration": 0.0078,
      "velocity": 110,
      "chip": "ym2612"
    },
    {
      "channel": 4,
      "note": 76,
      "start": 5.1094,
      "duration": 0.0085,
      "velocity": 110,
      "chip": "ym2612"
    },
    {
      "channel": 2,
      "note": 60,
      "start": 5.1117,
      "duration": 0.055,
      "velocity": 97,
      "chip": "ym2612"
    },
    {
      "channel": 3,
      "note": 71,
      "start": 5.1149,
      "duration": 0.0892,
      "velocity": 110,
      "chip": "ym2612"
    },
    {
      "channel": 4,
      "note": 72,
      "start": 5.1675,
      "duration": 0.0226,
      "velocity": 110,
      "chip": "ym2612"
    },
    {
      "channel": 0,
      "note": 71,
      "start": 5.1828,
      "duration": 0.1157,
      "velocity": 110,
      "chip": "ym2612"
    },
    {
      "channel": 2,
      "note": 45,
      "start": 5.1839,
      "duration": 0.016,
      "velocity": 97,
      "chip": "ym2612"
    },
    {
      "channel": 4,
      "note": 71,
      "start": 5.2008,
      "duration": 0.0372,
      "velocity": 110,
      "chip": "ym2612"
    },
    {
      "channel": 2,
      "note": 45,
      "start": 5.2037,
      "duration": 0.0178,
      "velocity": 97,
      "chip": "ym2612"
    },
    {
      "channel": 3,
      "note": 72,
      "start": 5.2088,
      "duration": 0.2241,
      "velocity": 110,
      "chip": "ym2612"
    },
    {
      "channel": 2,
      "note": 52,
      "start": 5.2243,
      "duration": 0.0158,
      "velocity": 97,
      "chip": "ym2612"
    },
    {
      "channel": 4,
      "note": 72,
      "start": 5.2409,
      "duration": 0.2289,
      "velocity": 110,
      "chip": "ym2612"
    },
    {
      "channel": 2,
      "note": 53,
      "start": 5.2434,
      "duration": 0.0165,
      "velocity": 97,
      "chip": "ym2612"
    },
    {
      "channel": 2,
      "note": 60,
      "start": 5.2628,
      "duration": 0.0165,
      "velocity": 97,
      "chip": "ym2612"
    },
    {
      "channel": 2,
      "note": 52,
      "start": 5.2822,
      "duration": 0.017,
      "velocity": 97,
      "chip": "ym2612"
    },
    {
      "channel": 0,
      "note": 67,
      "start": 5.3153,
      "duration": 0.0495,
      "velocity": 110,
      "chip": "ym2612"
    },
    {
      "channel": 2,
      "note": 53,
      "start": 5.3161,
      "duration": 0.0993,
      "velocity": 97,
      "chip": "ym2612"
    },
    {
      "channel": 0,
      "note": 72,
      "start": 5.4317,
      "duration": 0.01,
      "velocity": 110,
      "chip": "ym2612"
    },
    {
      "channel": 2,
      "note": 60,
      "start": 5.4326,
      "duration": 0.0185,
      "velocity": 97,
      "chip": "ym2612"
    },
    {
      "channel": 3,
      "note": 71,
      "start": 5.4366,
      "duration": 0.0089,
      "velocity": 110,
      "chip": "ym2612"
    },
    {
      "channel": 0,
      "note": 79,
      "start": 5.4532,
      "duration": 0.1598,
      "velocity": 110,
      "chip": "ym2612"
    },
    {
      "channel": 3,
      "note": 67,
      "start": 5.4588,
      "duration": 0.0077,
      "velocity": 110,
      "chip": "ym2612"
    },
    {
      "channel": 4,
      "note": 71,
      "start": 5.4731,
      "duration": 0.0094,
      "velocity": 110,
      "chip": "ym2612"
    },
    {
      "channel": 2,
      "note": 45,
      "start": 5.4757,
      "duration": 0.0552,
      "velocity": 97,
      "chip": "ym2612"
    },
    {
      "channel": 3,
      "note": 72,
      "start": 5.4792,
      "duration": 0.1985,
      "velocity": 110,
      "chip": "ym2612"
    },
    {
      "channel": 4,
      "note": 67,
      "start": 5.5318,
      "duration": 0.0492,
      "velocity": 110,
      "chip": "ym2612"
    },
    {
      "channel": 2,
      "note": 52,
      "start": 5.5476,
      "duration": 0.0989,
      "velocity": 97,
      "chip": "ym2612"
    },
    {
      "channel": 4,
      "note": 72,
      "start": 5.6474,
      "duration": 0.0666,
      "velocity": 110,
      "chip": "ym2612"
    },
    {
      "channel": 2,
      "note": 53,
      "start": 5.6632,
      "duration": 0.0168,
      "velocity": 97,
      "chip": "ym2612"
    },
    {
      "channel": 0,
      "note": 77,
      "start": 5.6825,
      "duration": 0.0086,
      "velocity": 110,
      "chip": "ym2612"
    },
    {
      "channel": 2,
      "note": 60,
      "start": 5.6833,
      "duration": 0.0162,
      "velocity": 97,
      "chip": "ym2612"
    },
    {
      "channel": 0,
      "note": 76,
      "start": 5.7028,
      "duration": 0.01,
      "velocity": 110,
      "chip": "ym2612"
    },
    {
      "channel": 2,
      "note": 52,
      "start": 5.7036,
      "duration": 0.018,
      "velocity": 97,
      "chip": "ym2612"
    },
    {
      "channel": 3,
      "note": 79,
      "start": 5.7082,
      "duration": 0.0082,
      "velocity": 110,
      "chip": "ym2612"
    },
    {
      "channel": 0,
      "note": 77,
      "start": 5.7238,
      "duration": 0.0749,
      "velocity": 110,
      "chip": "ym2612"
    },
    {
      "channel": 2,
      "note": 53,
      "start": 5.7246,
      "duration": 0.0165,
      "velocity": 97,
      "chip": "ym2612"
    },
    {
      "channel": 3,
      "note": 77,
      "start": 5.7283,
      "duration": 0.0078,
      "velocity": 110,
      "chip": "ym2612"
    },
    {
      "channel": 4,
      "note": 79,
      "start": 5.742,
      "duration": 0.0085,
      "velocity": 110,
      "chip": "ym2612"
    },
    {
      "channel": 2,
      "note": 60,
      "start": 5.7443,
      "duration": 0.055,
      "velocity": 97,
      "chip": "ym2612"
    },
    {
      "channel": 3,
      "note": 76,
      "start": 5.7475,
      "duration": 0.0935,
      "velocity": 110,
      "chip": "ym2612"
    },
    {
      "channel": 4,
      "note": 77,
      "start": 5.8002,
      "duration": 0.027,
      "velocity": 110,
      "chip": "ym2612"
    },
    {
      "channel": 0,
      "note": 76,
      "start": 5.8155,
      "duration": 0.7721,
      "velocity": 110,
      "chip": "ym2612"
    },
    {
      "channel": 2,
      "note": 45,
      "start": 5.8199,
      "duration": 0.0171,
      "velocity": 97,
      "chip": "ym2612"
    },
    {
      "channel": 4,
      "note": 76,
      "start": 5.8379,
      "duration": 0.0401,
      "velocity": 110,
      "chip": "ym2612"
    },
    {
      "channel": 1,
      "note": 71,
      "start": 5.8402,
      "duration": 0.0183,
      "velocity": 78,
      "chip": "ym2612"
    },
    {
      "channel": 2,
      "note": 45,
      "start": 5.8407,
      "duration": 0.018,
      "velocity": 97,
      "chip": "ym2612"
    },
    {
      "channel": 3,
      "note": 77,
      "start": 5.8459,
      "duration": 0.7702,
      "velocity": 110,
      "chip": "ym2612"
    },
    {
      "channel": 1,
      "note": 72,
      "start": 5.8621,
      "duration": 0.0177,
      "velocity": 78,
      "chip": "ym2612"
    },
    {
      "channel": 2,
      "note": 52,
      "start": 5.8626,
      "duration": 0.0174,
      "velocity": 97,
      "chip": "ym2612"
    },
    {
      "channel": 1,
      "note": 76,
      "start": 5.8878,
      "duration": 0.0163,
      "velocity": 78,
      "chip": "ym2612"
    },
    {
      "channel": 2,
      "note": 53,
      "start": 5.8883,
      "duration": 0.016,
      "velocity": 97,
      "chip": "ym2612"
    },
    {
      "channel": 4,
      "note": 77,
      "start": 5.9054,
      "duration": 0.0184,
      "velocity": 78,
      "chip": "ym2612"
    },
    {
      "channel": 1,
      "note": 79,
      "start": 5.9083,
      "duration": 0.0723,
      "velocity": 78,
      "chip": "ym2612"
    },
    {
      "channel": 2,
      "note": 60,
      "start": 5.9088,
      "duration": 0.017,
      "velocity": 97,
      "chip": "ym2612"
    },
    {
      "channel": 4,
      "note": 71,
      "start": 5.9267,
      "duration": 0.0381,
      "velocity": 78,
      "chip": "ym2612"
    },
    {
      "channel": 2,
      "note": 52,
      "start": 5.929,
      "duration": 0.0517,
      "velocity": 97,
      "chip": "ym2612"
    },
    {
      "channel": 4,
      "note": 72,
      "start": 5.9817,
      "duration": 0.0316,
      "velocity": 78,
      "chip": "ym2612"
    },
    {
      "channel": 1,
      "note": 83,
      "start": 5.9973,
      "duration": 0.0181,
      "velocity": 78,
      "chip": "ym2612"
    },
    {
      "channel": 2,
      "note": 53,
      "start": 5.9978,
      "duration": 0.0178,
      "velocity": 97,
      "chip": "ym2612"
    },
    {
      "channel": 4,
      "note": 76,
      "start": 6.0165,
      "duration": 0.0414,
      "velocity": 78,
      "chip": "ym2612"
    },
    {
      "channel": 1,
      "note": 84,
      "start": 6.0192,
      "duration": 0.0188,
      "velocity": 78,
      "chip": "ym2612"
    },
    {
      "channel": 2,
      "note": 60,
      "start": 6.0198,
      "duration": 0.0186,
      "velocity": 97,
      "chip": "ym2612"
    },
    {
      "channel": 1,
      "note": 88,
      "start": 6.0417,
      "duration": 0.0181,
      "velocity": 78,
      "chip": "ym2612"
    },
    {
      "channel": 4,
      "note": 79,
      "start": 6.0611,
      "duration": 0.017,
      "velocity": 78,
      "chip": "ym2612"
    },
    {
      "channel": 1,
      "note": 91,
      "start": 6.0636,
      "duration": 0.0374,
      "velocity": 78,
      "chip": "ym2612"
    },
    {
      "channel": 2,
      "note": 45,
      "start": 6.0641,
      "duration": 0.0161,
      "velocity": 97,
      "chip": "ym2612"
    },
    {
      "channel": 4,
      "note": 83,
      "start": 6.0812,
      "duration": 0.018,
      "velocity": 78,
      "chip": "ym2612"
    },
    {
      "channel": 2,
      "note": 52,
      "start": 6.0842,
      "duration": 0.0171,
      "velocity": 97,
      "chip": "ym2612"
    },
    {
      "channel": 4,
      "note": 84,
      "start": 6.1021,
      "duration": 0.037,
      "velocity": 78,
      "chip": "ym2612"
    },
    {
      "channel": 1,
      "note": 95,
      "start": 6.1043,
      "duration": 0.0505,
      "velocity": 78,
      "chip": "ym2612"
    },
    {
      "channel": 2,
      "note": 53,
      "start": 6.1049,
      "duration": 0.0502,
      "velocity": 97,
      "chip": "ym2612"
    },
    {
      "channel": 4,
      "note": 88,
      "start": 6.1559,
      "duration": 0.0531,
      "velocity": 78,
      "chip": "ym2612"
    },
    {
      "channel": 1,
      "note": 96,
      "start": 6.1715,
      "duration": 0.0176,
      "velocity": 78,
      "chip": "ym2612"
    },
    {
      "channel": 2,
      "note": 60,
      "start": 6.172,
      "duration": 0.0173,
      "velocity": 97,
      "chip": "ym2612"
    },
    {
      "channel": 1,
      "note": 100,
      "start": 6.1928,
      "duration": 0.018,
      "velocity": 78,
      "chip": "ym2612"
    },
    {
      "channel": 2,
      "note": 52,
      "start": 6.1934,
      "duration": 0.0178,
      "velocity": 97,
      "chip": "ym2612"
    },
    {
      "channel": 4,
      "note": 91,
      "start": 6.2122,
      "duration": 0.0176,
      "velocity": 78,
      "chip": "ym2612"
    },
    {
      "channel": 1,
      "note": 103,
      "start": 6.2143,
      "duration": 0.0376,
      "velocity": 78,
      "chip": "ym2612"
    },
    {
      "channel": 2,
      "note": 53,
      "start": 6.2148,
      "duration": 0.0171,
      "velocity": 97,
      "chip": "ym2612"
    },
    {
      "channel": 4,
      "note": 95,
      "start": 6.2328,
      "duration": 0.0172,
      "velocity": 78,
      "chip": "ym2612"
    },
    {
      "channel": 2,
      "note": 60,
      "start": 6.2356,
      "duration": 0.0166,
      "velocity": 97,
      "chip": "ym2612"
    },
    {
      "channel": 4,
      "note": 96,
      "start": 6.2531,
      "duration": 0.0172,
      "velocity": 78,
      "chip": "ym2612"
    },
    {
      "channel": 1,
      "note": 71,
      "start": 6.2553,
      "duration": 0.0169,
      "velocity": 78,
      "chip": "ym2612"
    },
    {
      "channel": 2,
      "note": 45,
      "start": 6.256,
      "duration": 0.0164,
      "velocity": 97,
      "chip": "ym2612"
    },
    {
      "channel": 4,
      "note": 100,
      "start": 6.2734,
      "duration": 0.0395,
      "velocity": 78,
      "chip": "ym2612"
    },
    {
      "channel": 1,
      "note": 72,
      "start": 6.2755,
      "duration": 0.0173,
      "velocity": 78,
      "chip": "ym2612"
    },
    {
      "channel": 2,
      "note": 45,
      "start": 6.2761,
      "duration": 0.0171,
      "velocity": 97,
      "chip": "ym2612"
    },
    {
      "channel": 1,
      "note": 76,
      "start": 6.2965,
      "duration": 0.0182,
      "velocity": 78,
      "chip": "ym2612"
    },
    {
      "channel": 2,
      "note": 52,
      "start": 6.2971,
      "duration": 0.0179,
      "velocity": 97,
      "chip": "ym2612"
    },
    {
      "channel": 4,
      "note": 103,
      "start": 6.316,
      "duration": 0.0192,
      "velocity": 78,
      "chip": "ym2612"
    },
    {
      "channel": 1,
      "note": 79,
      "start": 6.3188,
      "duration": 0.0384,
      "velocity": 78,
      "chip": "ym2612"
    },
    {
      "channel": 2,
      "note": 53,
      "start": 6.3193,
      "duration": 0.0182,
      "velocity": 97,
      "chip": "ym2612"
    },
    {
      "channel": 4,
      "note": 71,
      "start": 6.3385,
      "duration": 0.0177,
      "velocity": 78,
      "chip": "ym2612"
    },
    {
      "channel": 2,
      "note": 60,
      "start": 6.3411,
      "duration": 0.0164,
      "velocity": 97,
      "chip": "ym2612"
    },
    {
      "channel": 4,
      "note": 72,
      "start": 6.3594,
      "duration": 0.0199,
      "velocity": 78,
      "chip": "ym2612"
    },
    {
      "channel": 1,
      "note": 83,
      "start": 6.3619,
      "duration": 0.0193,
      "velocity": 78,
      "chip": "ym2612"
    },
    {
      "channel": 2,
      "note": 52,
      "start": 6.3624,
      "duration": 0.019,
      "velocity": 97,
      "chip": "ym2612"
    },
    {
      "channel": 4,
      "note": 76,
      "start": 6.3824,
      "duration": 0.0381,
      "velocity": 78,
      "chip": "ym2612"
    },
    {
      "channel": 1,
      "note": 84,
      "start": 6.3847,
      "duration": 0.0164,
      "velocity": 78,
      "chip": "ym2612"
    },
    {
      "channel": 2,
      "note": 53,
      "start": 6.3853,
      "duration": 0.0161,
      "velocity": 97,
      "chip": "ym2612"
    },
    {
      "channel": 1,
      "note": 88,
      "start": 6.4041,
      "duration": 0.0182,
      "velocity": 78,
      "chip": "ym2612"
    },
    {
      "channel": 2,
      "note": 60,
      "start": 6.4046,
      "duration": 0.0179,
      "velocity": 97,
      "chip": "ym2612"
    },
    {
      "channel": 4,
      "note": 79,
      "start": 6.4236,
      "duration": 0.0166,
      "velocity": 78,
      "chip": "ym2612"
    },
    {
      "channel": 1,
      "note": 91,
      "start": 6.4257,
      "duration": 0.0376,
      "velocity": 78,
      "chip": "ym2612"
    },
    {
      "channel": 4,
      "note": 83,
      "start": 6.4431,
      "duration": 0.0183,
      "velocity": 78,
      "chip": "ym2612"
    },
    {
      "channel": 2,
      "note": 45,
      "start": 6.4463,
      "duration": 0.0173,
      "velocity": 97,
      "chip": "ym2612"
    },
    {
      "channel": 4,
      "note": 84,
      "start": 6.4645,
      "duration": 0.0175,
      "velocity": 78,
      "chip": "ym2612"
    },
    {
      "channel": 1,
      "note": 95,
      "start": 6.4675,
      "duration": 0.0163,
      "velocity": 78,
      "chip": "ym2612"
    },
    {
      "channel": 2,
      "note": 52,
      "start": 6.4681,
      "duration": 0.0161,
      "velocity": 97,
      "chip": "ym2612"
    },
    {
      "channel": 4,
      "note": 88,
      "start": 6.485,
      "duration": 0.0402,
      "velocity": 78,
      "chip": "ym2612"
    },
    {
      "channel": 1,
      "note": 96,
      "start": 6.4878,
      "duration": 0.0181,
      "velocity": 78,
      "chip": "ym2612"
    },
    {
      "channel": 2,
      "note": 53,
      "start": 6.4883,
      "duration": 0.0178,
      "velocity": 97,
      "chip": "ym2612"
    },
    {
      "channel": 1,
      "note": 100,
      "start": 6.5095,
      "duration": 0.0176,
      "velocity": 78,
      "chip": "ym2612"
    },
    {
      "channel": 2,
      "note": 60,
      "start": 6.51,
      "duration": 0.0173,
      "velocity": 97,
      "chip": "ym2612"
    },
    {
      "channel": 4,
      "note": 91,
      "start": 6.5283,
      "duration": 0.0185,
      "velocity": 78,
      "chip": "ym2612"
    },
    {
      "channel": 1,
      "note": 103,
      "start": 6.531,
      "duration": 0.0569,
      "velocity": 78,
      "chip": "ym2612"
    },
    {
      "channel": 2,
      "note": 52,
      "start": 6.5315,
      "duration": 0.0173,
      "velocity": 97,
      "chip": "ym2612"
    },
    {
      "channel": 4,
      "note": 95,
      "start": 6.5499,
      "duration": 0.0166,
      "velocity": 78,
      "chip": "ym2612"
    },
    {
      "channel": 2,
      "note": 53,
      "start": 6.5522,
      "duration": 0.0164,
      "velocity": 97,
      "chip": "ym2612"
    },
    {
      "channel": 4,
      "note": 96,
      "start": 6.5695,
      "duration": 0.0165,
      "velocity": 78,
      "chip": "ym2612"
    },
    {
      "channel": 2,
      "note": 60,
      "start": 6.5718,
      "duration": 0.0164,
      "velocity": 97,
      "chip": "ym2612"
    },
    {
      "channel": 4,
      "note": 100,
      "start": 6.5891,
      "duration": 0.111,
      "velocity": 78,
      "chip": "ym2612"
    },
    {
      "channel": 0,
      "note": 77,
      "start": 6.5956,
      "duration": 0.1054,
      "velocity": 110,
      "chip": "ym2612"
    },
    {
      "channel": 1,
      "note": 65,
      "start": 6.5963,
      "duration": 0.5018,
      "velocity": 78,
      "chip": "ym2612"
    },
    {
      "channel": 2,
      "note": 51,
      "start": 6.597,
      "duration": 0.0159,
      "velocity": 97,
      "chip": "ym2612"
    },
    {
      "channel": 2,
      "note": 51,
      "start": 6.6157,
      "duration": 0.0527,
      "velocity": 97,
      "chip": "ym2612"
    },
    {
      "channel": 3,
      "note": 76,
      "start": 6.6241,
      "duration": 0.1071,
      "velocity": 110,
      "chip": "ym2612"
    },
    {
      "channel": 2,
      "note": 56,
      "start": 6.6851,
      "duration": 0.0164,
      "velocity": 97,
      "chip": "ym2612"
    },
    {
      "channel": 4,
      "note": 103,
      "start": 6.7088,
      "duration": 0.0549,
      "velocity": 110,
      "chip": "ym2612"
    },
    {
      "channel": 0,
      "note": 77,
      "start": 6.7102,
      "duration": 0.0551,
      "velocity": 110,
      "chip": "ym2612"
    },
    {
      "channel": 2,
      "note": 58,
      "start": 6.711,
      "duration": 0.0171,
      "velocity": 97,
      "chip": "ym2612"
    },
    {
      "channel": 2,
      "note": 63,
      "start": 6.7309,
      "duration": 0.0165,
      "velocity": 97,
      "chip": "ym2612"
    },
    {
      "channel": 3,
      "note": 77,
      "start": 6.7349,
      "duration": 0.0545,
      "velocity": 110,
      "chip": "ym2612"
    },
    {
      "channel": 2,
      "note": 56,
      "start": 6.7502,
      "duration": 0.0156,
      "velocity": 97,
      "chip": "ym2612"
    },
    {
      "channel": 4,
      "note": 77,
      "start": 6.7667,
      "duration": 0.0811,
      "velocity": 110,
      "chip": "ym2612"
    },
    {
      "channel": 0,
      "note": 82,
      "start": 6.7685,
      "duration": 0.0107,
      "velocity": 110,
      "chip": "ym2612"
    },
    {
      "channel": 2,
      "note": 58,
      "start": 6.7693,
      "duration": 0.0156,
      "velocity": 97,
      "chip": "ym2612"
    },
    {
      "channel": 2,
      "note": 63,
      "start": 6.7889,
      "duration": 0.0163,
      "velocity": 97,
      "chip": "ym2612"
    },
    {
      "channel": 3,
      "note": 77,
      "start": 6.7925,
      "duration": 0.0103,
      "velocity": 110,
      "chip": "ym2612"
    },
    {
      "channel": 0,
      "note": 89,
      "start": 6.8076,
      "duration": 0.1035,
      "velocity": 110,
      "chip": "ym2612"
    },
    {
      "channel": 4,
      "note": 77,
      "start": 6.8646,
      "duration": 0.025,
      "velocity": 110,
      "chip": "ym2612"
    },
    {
      "channel": 2,
      "note": 51,
      "start": 6.8805,
      "duration": 0.0164,
      "velocity": 97,
      "chip": "ym2612"
    },
    {
      "channel": 3,
      "note": 82,
      "start": 6.8841,
      "duration": 0.0757,
      "velocity": 110,
      "chip": "ym2612"
    },
    {
      "channel": 2,
      "note": 56,
      "start": 6.9009,
      "duration": 0.0161,
      "velocity": 97,
      "chip": "ym2612"
    },
    {
      "channel": 4,
      "note": 82,
      "start": 6.9178,
      "duration": 0.1049,
      "velocity": 110,
      "chip": "ym2612"
    },
    {
      "channel": 2,
      "note": 58,
      "start": 6.9201,
      "duration": 0.0559,
      "velocity": 97,
      "chip": "ym2612"
    },
    {
      "channel": 0,
      "note": 87,
      "start": 6.9922,
      "duration": 0.0097,
      "velocity": 110,
      "chip": "ym2612"
    },
    {
      "channel": 2,
      "note": 63,
      "start": 6.9931,
      "duration": 0.0174,
      "velocity": 97,
      "chip": "ym2612"
    },
    {
      "channel": 0,
      "note": 86,
      "start": 7.0129,
      "duration": 0.0087,
      "velocity": 110,
      "chip": "ym2612"
    },
    {
      "channel": 2,
      "note": 56,
      "start": 7.0137,
      "duration": 0.0166,
      "velocity": 97,
      "chip": "ym2612"
    },
    {
      "channel": 3,
      "note": 89,
      "start": 7.017,
      "duration": 0.0081,
      "velocity": 110,
      "chip": "ym2612"
    },
    {
      "channel": 0,
      "note": 87,
      "start": 7.0326,
      "duration": 0.0653,
      "velocity": 110,
      "chip": "ym2612"
    },
    {
      "channel": 2,
      "note": 58,
      "start": 7.0334,
      "duration": 0.0161,
      "velocity": 97,
      "chip": "ym2612"
    },
    {
      "channel": 3,
      "note": 87,
      "start": 7.0367,
      "duration": 0.0078,
      "velocity": 110,
      "chip": "ym2612"
    },
    {
      "channel": 4,
      "note": 89,
      "start": 7.0503,
      "duration": 0.0085,
      "velocity": 110,
      "chip": "ym2612"
    },
    {
      "channel": 2,
      "note": 63,
      "start": 7.0527,
      "duration": 0.0458,
      "velocity": 97,
      "chip": "ym2612"
    },
    {
      "channel": 3,
      "note": 86,
      "start": 7.0559,
      "duration": 0.0812,
      "velocity": 110,
      "chip": "ym2612"
    },
    {
      "channel": 4,
      "note": 87,
      "start": 7.0993,
      "duration": 0.0231,
      "velocity": 110,
      "chip": "ym2612"
    },
    {
      "channel": 0,
      "note": 80,
      "start": 7.1148,
      "duration": 0.1202,
      "velocity": 110,
      "chip": "ym2612"
    },
    {
      "channel": 1,
      "note": 68,
      "start": 7.1153,
      "duration": 0.12,
      "velocity": 78,
      "chip": "ym2612"
    },
    {
      "channel": 2,
      "note": 54,
      "start": 7.1159,
      "duration": 0.0164,
      "velocity": 97,
      "chip": "ym2612"
    },
    {
      "channel": 4,
      "note": 86,
      "start": 7.1341,
      "duration": 0.0378,
      "velocity": 110,
      "chip": "ym2612"
    },
    {
      "channel": 2,
      "note": 54,
      "start": 7.1357,
      "duration": 0.0176,
      "velocity": 97,
      "chip": "ym2612"
    },
    {
      "channel": 3,
      "note": 87,
      "start": 7.1405,
      "duration": 0.1197,
      "velocity": 110,
      "chip": "ym2612"
    },
    {
      "channel": 2,
      "note": 59,
      "start": 7.158,
      "duration": 0.0159,
      "velocity": 97,
      "chip": "ym2612"
    },
    {
      "channel": 4,
      "note": 87,
      "start": 7.1748,
      "duration": 0.1196,
      "velocity": 110,
      "chip": "ym2612"
    },
    {
      "channel": 2,
      "note": 61,
      "start": 7.1772,
      "duration": 0.0163,
      "velocity": 97,
      "chip": "ym2612"
    },
    {
      "channel": 2,
      "note": 66,
      "start": 7.1975,
      "duration": 0.0179,
      "velocity": 97,
      "chip": "ym2612"
    },
    {
      "channel": 2,
      "note": 59,
      "start": 7.2192,
      "duration": 0.0165,
      "velocity": 97,
      "chip": "ym2612"
    },
    {
      "channel": 0,
      "note": 80,
      "start": 7.239,
      "duration": 0.009,
      "velocity": 110,
      "chip": "ym2612"
    },
    {
      "channel": 1,
      "note": 80,
      "start": 7.2396,
      "duration": 0.0165,
      "velocity": 78,
      "chip": "ym2612"
    },
    {
      "channel": 2,
      "note": 61,
      "start": 7.2402,
      "duration": 0.0163,
      "velocity": 97,
      "chip": "ym2612"
    },
    {
      "channel": 0,
      "note": 85,
      "start": 7.2588,
      "duration": 0.0094,
      "velocity": 110,
      "chip": "ym2612"
    },
    {
      "channel": 1,
      "note": 85,
      "start": 7.2593,
      "duration": 0.0171,
      "velocity": 78,
      "chip": "ym2612"
    },
    {
      "channel": 2,
      "note": 66,
      "start": 7.2599,
      "duration": 0.0169,
      "velocity": 97,
      "chip": "ym2612"
    },
    {
      "channel": 3,
      "note": 80,
      "start": 7.2636,
      "duration": 0.0081,
      "velocity": 110,
      "chip": "ym2612"
    },
    {
      "channel": 0,
      "note": 92,
      "start": 7.2791,
      "duration": 0.1613,
      "velocity": 110,
      "chip": "ym2612"
    },
    {
      "channel": 1,
      "note": 92,
      "start": 7.2796,
      "duration": 0.161,
      "velocity": 78,
      "chip": "ym2612"
    },
    {
      "channel": 3,
      "note": 80,
      "start": 7.2836,
      "duration": 0.0078,
      "velocity": 110,
      "chip": "ym2612"
    },
    {
      "channel": 4,
      "note": 80,
      "start": 7.2973,
      "duration": 0.0103,
      "velocity": 110,
      "chip": "ym2612"
    },
    {
      "channel": 2,
      "note": 54,
      "start": 7.2996,
      "duration": 0.0181,
      "velocity": 97,
      "chip": "ym2612"
    },
    {
      "channel": 3,
      "note": 85,
      "start": 7.3047,
      "duration": 0.1609,
      "velocity": 110,
      "chip": "ym2612"
    },
    {
      "channel": 4,
      "note": 80,
      "start": 7.3186,
      "duration": 0.0107,
      "velocity": 110,
      "chip": "ym2612"
    },
    {
      "channel": 2,
      "note": 59,
      "start": 7.3216,
      "duration": 0.0178,
      "velocity": 97,
      "chip": "ym2612"
    },
    {
      "channel": 4,
      "note": 85,
      "start": 7.3403,
      "duration": 0.2104,
      "velocity": 110,
      "chip": "ym2612"
    },
    {
      "channel": 2,
      "note": 61,
      "start": 7.3437,
      "duration": 0.0162,
      "velocity": 97,
      "chip": "ym2612"
    },
    {
      "channel": 2,
      "note": 66,
      "start": 7.3642,
      "duration": 0.0162,
      "velocity": 97,
      "chip": "ym2612"
    },
    {
      "channel": 2,
      "note": 59,
      "start": 7.3833,
      "duration": 0.0166,
      "velocity": 97,
      "chip": "ym2612"
    },
    {
      "channel": 2,
      "note": 61,
      "start": 7.4028,
      "duration": 0.0177,
      "velocity": 97,
      "chip": "ym2612"
    },
    {
      "channel": 2,
      "note": 66,
      "start": 7.4237,
      "duration": 0.0173,
      "velocity": 97,
      "chip": "ym2612"
    },
    {
      "channel": 0,
      "note": 77,
      "start": 7.4445,
      "duration": 0.1078,
      "velocity": 110,
      "chip": "ym2612"
    },
    {
      "channel": 1,
      "note": 65,
      "start": 7.4452,
      "duration": 0.5009,
      "velocity": 78,
      "chip": "ym2612"
    },
    {
      "channel": 2,
      "note": 51,
      "start": 7.4457,
      "duration": 0.0167,
      "velocity": 97,
      "chip": "ym2612"
    },
    {
      "channel": 2,
      "note": 51,
      "start": 7.4653,
      "duration": 0.0549,
      "velocity": 97,
      "chip": "ym2612"
    },
    {
      "channel": 3,
      "note": 92,
      "start": 7.4685,
      "duration": 0.108,
      "velocity": 110,
      "chip": "ym2612"
    },
    {
      "channel": 2,
      "note": 56,
      "start": 7.5369,
      "duration": 0.016,
      "velocity": 97,
      "chip": "ym2612"
    },
    {
      "channel": 4,
      "note": 92,
      "start": 7.5538,
      "duration": 0.0549,
      "velocity": 110,
      "chip": "ym2612"
    },
    {
      "channel": 0,
      "note": 77,
      "start": 7.5568,
      "duration": 0.0534,
      "velocity": 110,
      "chip": "ym2612"
    },
    {
      "channel": 2,
      "note": 58,
      "start": 7.5576,
      "duration": 0.0158,
      "velocity": 97,
      "chip": "ym2612"
    },
    {
      "channel": 2,
      "note": 63,
      "start": 7.5762,
      "duration": 0.0162,
      "velocity": 97,
      "chip": "ym2612"
    },
    {
      "channel": 3,
      "note": 77,
      "start": 7.5798,
      "duration": 0.0546,
      "velocity": 110,
      "chip": "ym2612"
    },
    {
      "channel": 2,
      "note": 56,
      "start": 7.5952,
      "duration": 0.0156,
      "velocity": 97,
      "chip": "ym2612"
    },
    {
      "channel": 4,
      "note": 77,
      "start": 7.6117,
      "duration": 0.0816,
      "velocity": 110,
      "chip": "ym2612"
    },
    {
      "channel": 0,
      "note": 82,
      "start": 7.6135,
      "duration": 0.0107,
      "velocity": 110,
      "chip": "ym2612"
    },
    {
      "channel": 2,
      "note": 58,
      "start": 7.6143,
      "duration": 0.0156,
      "velocity": 97,
      "chip": "ym2612"
    },
    {
      "channel": 2,
      "note": 63,
      "start": 7.634,
      "duration": 0.0164,
      "velocity": 97,
      "chip": "ym2612"
    },
    {
      "channel": 3,
      "note": 77,
      "start": 7.6376,
      "duration": 0.0104,
      "velocity": 110,
      "chip": "ym2612"
    },
    {
      "channel": 0,
      "note": 89,
      "start": 7.6529,
      "duration": 0.104,
      "velocity": 110,
      "chip": "ym2612"
    },
    {
      "channel": 4,
      "note": 77,
      "start": 7.7101,
      "duration": 0.0251,
      "velocity": 110,
      "chip": "ym2612"
    },
    {
      "channel": 2,
      "note": 51,
      "start": 7.7259,
      "duration": 0.0167,
      "velocity": 97,
      "chip": "ym2612"
    },
    {
      "channel": 3,
      "note": 82,
      "start": 7.7295,
      "duration": 0.0759,
      "velocity": 110,
      "chip": "ym2612"
    },
    {
      "channel": 2,
      "note": 56,
      "start": 7.7466,
      "duration": 0.0161,
      "velocity": 97,
      "chip": "ym2612"
    },
    {
      "channel": 4,
      "note": 82,
      "start": 7.7635,
      "duration": 0.1065,
      "velocity": 110,
      "chip": "ym2612"
    },
    {
      "channel": 2,
      "note": 58,
      "start": 7.7659,
      "duration": 0.056,
      "velocity": 97,
      "chip": "ym2612"
    },
    {
      "channel": 0,
      "note": 87,
      "start": 7.8382,
      "duration": 0.0095,
      "velocity": 110,
      "chip": "ym2612"
    },
    {
      "channel": 2,
      "note": 63,
      "start": 7.839,
      "duration": 0.018,
      "velocity": 97,
      "chip": "ym2612"
    },
    {
      "channel": 0,
      "note": 86,
      "start": 7.8585,
      "duration": 0.0094,
      "velocity": 110,
      "chip": "ym2612"
    },
    {
      "channel": 2,
      "note": 56,
      "start": 7.8603,
      "duration": 0.0171,
      "velocity": 97,
      "chip": "ym2612"
    },
    {
      "channel": 3,
      "note": 89,
      "start": 7.8639,
      "duration": 0.0079,
      "velocity": 110,
      "chip": "ym2612"
    },
    {
      "channel": 0,
      "note": 87,
      "start": 7.88,
      "duration": 0.0658,
      "velocity": 110,
      "chip": "ym2612"
    },
    {
      "channel": 2,
      "note": 58,
      "start": 7.8808,
      "duration": 0.017,
      "velocity": 97,
      "chip": "ym2612"
    },
    {
      "channel": 3,
      "note": 87,
      "start": 7.8844,
      "duration": 0.0083,
      "velocity": 110,
      "chip": "ym2612"
    },
    {
      "channel": 4,
      "note": 89,
      "start": 7.8987,
      "duration": 0.0085,
      "velocity": 110,
      "chip": "ym2612"
    },
    {
      "channel": 2,
      "note": 63,
      "start": 7.901,
      "duration": 0.0454,
      "velocity": 97,
      "chip": "ym2612"
    },
    {
      "channel": 3,
      "note": 86,
      "start": 7.9042,
      "duration": 0.0787,
      "velocity": 110,
      "chip": "ym2612"
    },
    {
      "channel": 4,
      "note": 87,
      "start": 7.9472,
      "duration": 0.0224,
      "velocity": 110,
      "chip": "ym2612"
    },
    {
      "channel": 0,
      "note": 80,
      "start": 7.9625,
      "duration": 0.1173,
      "velocity": 110,
      "chip": "ym2612"
    },
    {
      "channel": 1,
      "note": 63,
      "start": 7.963,
      "duration": 0.1171,
      "velocity": 78,
      "chip": "ym2612"
    },
    {
      "channel": 2,
      "note": 48,
      "start": 7.9636,
      "duration": 0.0158,
      "velocity": 97,
      "chip": "ym2612"
    },
    {
      "channel": 4,
      "note": 86,
      "start": 7.9803,
      "duration": 0.0363,
      "velocity": 110,
      "chip": "ym2612"
    },
    {
      "channel": 2,
      "note": 48,
      "start": 7.9826,
      "duration": 0.016,
      "velocity": 97,
      "chip": "ym2612"
    },
    {
      "channel": 3,
      "note": 87,
      "start": 7.9861,
      "duration": 0.1194,
      "velocity": 110,
      "chip": "ym2612"
    },
    {
      "channel": 2,
      "note": 52,
      "start": 8.003,
      "duration": 0.0157,
      "velocity": 97,
      "chip": "ym2612"
    },
    {
      "channel": 4,
      "note": 87,
      "start": 8.0195,
      "duration": 0.1204,
      "velocity": 110,
      "chip": "ym2612"
    },
    {
      "channel": 2,
      "note": 53,
      "start": 8.0218,
      "duration": 0.0163,
      "velocity": 97,
      "chip": "ym2612"
    },
    {
      "channel": 2,
      "note": 60,
      "start": 8.0422,
      "duration": 0.0178,
      "velocity": 97,
      "chip": "ym2612"
    },
    {
      "channel": 2,
      "note": 52,
      "start": 8.0639,
      "duration": 0.0166,
      "velocity": 97,
      "chip": "ym2612"
    },
    {
      "channel": 0,
      "note": 84,
      "start": 8.0839,
      "duration": 0.0091,
      "velocity": 110,
      "chip": "ym2612"
    },
    {
      "channel": 1,
      "note": 84,
      "start": 8.0845,
      "duration": 0.0168,
      "velocity": 78,
      "chip": "ym2612"
    },
    {
      "channel": 2,
      "note": 53,
      "start": 8.0851,
      "duration": 0.0165,
      "velocity": 97,
      "chip": "ym2612"
    },
    {
      "channel": 0,
      "note": 89,
      "start": 8.104,
      "duration": 0.0095,
      "velocity": 110,
      "chip": "ym2612"
    },
    {
      "channel": 1,
      "note": 89,
      "start": 8.1045,
      "duration": 0.0174,
      "velocity": 78,
      "chip": "ym2612"
    },
    {
      "channel": 2,
      "note": 60,
      "start": 8.1051,
      "duration": 0.0171,
      "velocity": 97,
      "chip": "ym2612"
    },
    {
      "channel": 3,
      "note": 80,
      "start": 8.1088,
      "duration": 0.0083,
      "velocity": 110,
      "chip": "ym2612"
    },
    {
      "channel": 0,
      "note": 88,
      "start": 8.1245,
      "duration": 0.164,
      "velocity": 110,
      "chip": "ym2612"
    },
    {
      "channel": 1,
      "note": 88,
      "start": 8.1251,
      "duration": 0.1638,
      "velocity": 78,
      "chip": "ym2612"
    },
    {
      "channel": 3,
      "note": 84,
      "start": 8.1291,
      "duration": 0.0078,
      "velocity": 110,
      "chip": "ym2612"
    },
    {
      "channel": 4,
      "note": 80,
      "start": 8.1428,
      "duration": 0.0108,
      "velocity": 110,
      "chip": "ym2612"
    },
    {
      "channel": 2,
      "note": 48,
      "start": 8.1454,
      "duration": 0.0181,
      "velocity": 97,
      "chip": "ym2612"
    },
    {
      "channel": 3,
      "note": 89,
      "start": 8.1506,
      "duration": 0.1624,
      "velocity": 110,
      "chip": "ym2612"
    },
    {
      "channel": 4,
      "note": 84,
      "start": 8.1644,
      "duration": 0.0107,
      "velocity": 110,
      "chip": "ym2612"
    },
    {
      "channel": 2,
      "note": 52,
      "start": 8.1676,
      "duration": 0.0178,
      "velocity": 97,
      "chip": "ym2612"
    },
    {
      "channel": 4,
      "note": 89,
      "start": 8.1862,
      "duration": 0.2122,
      "velocity": 110,
      "chip": "ym2612"
    },
    {
      "channel": 2,
      "note": 53,
      "start": 8.1907,
      "duration": 0.0167,
      "velocity": 97,
      "chip": "ym2612"
    },
    {
      "channel": 2,
      "note": 60,
      "start": 8.212,
      "duration": 0.0176,
      "velocity": 97,
      "chip": "ym2612"
    },
    {
      "channel": 2,
      "note": 52,
      "start": 8.2324,
      "duration": 0.0166,
      "velocity": 97,
      "chip": "ym2612"
    },
    {
      "channel": 2,
      "note": 53,
      "start": 8.2532,
      "duration": 0.0163,
      "velocity": 97,
      "chip": "ym2612"
    },
    {
      "channel": 2,
      "note": 60,
      "start": 8.2725,
      "duration": 0.0167,
      "velocity": 97,
      "chip": "ym2612"
    },
    {
      "channel": 0,
      "note": 77,
      "start": 8.2925,
      "duration": 0.1076,
      "velocity": 110,
      "chip": "ym2612"
    },
    {
      "channel": 1,
      "note": 65,
      "start": 8.2932,
      "duration": 0.5012,
      "velocity": 78,
      "chip": "ym2612"
    },
    {
      "channel": 2,
      "note": 51,
      "start": 8.2937,
      "duration": 0.0162,
      "velocity": 97,
      "chip": "ym2612"
    },
    {
      "channel": 2,
      "note": 51,
      "start": 8.3127,
      "duration": 0.0552,
      "velocity": 97,
      "chip": "ym2612"
    },
    {
      "channel": 3,
      "note": 88,
      "start": 8.316,
      "duration": 0.1083,
      "velocity": 110,
      "chip": "ym2612"
    },
    {
      "channel": 2,
      "note": 56,
      "start": 8.3846,
      "duration": 0.0161,
      "velocity": 97,
      "chip": "ym2612"
    },
    {
      "channel": 4,
      "note": 88,
      "start": 8.4015,
      "duration": 0.0555,
      "velocity": 110,
      "chip": "ym2612"
    },
    {
      "channel": 0,
      "note": 77,
      "start": 8.4046,
      "duration": 0.0541,
      "velocity": 110,
      "chip": "ym2612"
    },
    {
      "channel": 2,
      "note": 58,
      "start": 8.4054,
      "duration": 0.0157,
      "velocity": 97,
      "chip": "ym2612"
    },
    {
      "channel": 2,
      "note": 63,
      "start": 8.4239,
      "duration": 0.0165,
      "velocity": 97,
      "chip": "ym2612"
    },
    {
      "channel": 3,
      "note": 77,
      "start": 8.4276,
      "duration": 0.0553,
      "velocity": 110,
      "chip": "ym2612"
    },
    {
      "channel": 2,
      "note": 56,
      "start": 8.4433,
      "duration": 0.0159,
      "velocity": 97,
      "chip": "ym2612"
    },
    {
      "channel": 4,
      "note": 77,
      "start": 8.4601,
      "duration": 0.0821,
      "velocity": 110,
      "chip": "ym2612"
    },
    {
      "channel": 0,
      "note": 82,
      "start": 8.462,
      "duration": 0.0107,
      "velocity": 110,
      "chip": "ym2612"
    },
    {
      "channel": 2,
      "note": 58,
      "start": 8.4628,
      "duration": 0.0156,
      "velocity": 97,
      "chip": "ym2612"
    },
    {
      "channel": 2,
      "note": 63,
      "start": 8.4825,
      "duration": 0.0163,
      "velocity": 97,
      "chip": "ym2612"
    },
    {
      "channel": 3,
      "note": 77,
      "start": 8.4861,
      "duration": 0.0103,
      "velocity": 110,
      "chip": "ym2612"
    },
    {
      "channel": 0,
      "note": 89,
      "start": 8.5012,
      "duration": 0.1066,
      "velocity": 110,
      "chip": "ym2612"
    },
    {
      "channel": 4,
      "note": 77,
      "start": 8.5592,
      "duration": 0.0259,
      "velocity": 110,
      "chip": "ym2612"
    },
    {
      "channel": 2,
      "note": 51,
      "start": 8.5752,
      "duration": 0.017,
      "velocity": 97,
      "chip": "ym2612"
    },
    {
      "channel": 3,
      "note": 82,
      "start": 8.579,
      "duration": 0.0781,
      "velocity": 110,
      "chip": "ym2612"
    },
    {
      "channel": 2,
      "note": 56,
      "start": 8.5964,
      "duration": 0.0177,
      "velocity": 97,
      "chip": "ym2612"
    },
    {
      "channel": 4,
      "note": 82,
      "start": 8.615,
      "duration": 0.1049,
      "velocity": 110,
      "chip": "ym2612"
    },
    {
      "channel": 2,
      "note": 58,
      "start": 8.6176,
      "duration": 0.0559,
      "velocity": 97,
      "chip": "ym2612"
    },
    {
      "channel": 0,
      "note": 87,
      "start": 8.6897,
      "duration": 0.0098,
      "velocity": 110,
      "chip": "ym2612"
    },
    {
      "channel": 2,
      "note": 63,
      "start": 8.6905,
      "duration": 0.0175,
      "velocity": 97,
      "chip": "ym2612"
    },
    {
      "channel": 0,
      "note": 86,
      "start": 8.7102,
      "duration": 0.0086,
      "velocity": 110,
      "chip": "ym2612"
    },
    {
      "channel": 2,
      "note": 56,
      "start": 8.711,
      "duration": 0.0165,
      "velocity": 97,
      "chip": "ym2612"
    },
    {
      "channel": 3,
      "note": 89,
      "start": 8.7143,
      "duration": 0.008,
      "velocity": 110,
      "chip": "ym2612"
    },
    {
      "channel": 0,
      "note": 87,
      "start": 8.7298,
      "duration": 0.0643,
      "velocity": 110,
      "chip": "ym2612"
    },
    {
      "channel": 2,
      "note": 58,
      "start": 8.7306,
      "duration": 0.0162,
      "velocity": 97,
      "chip": "ym2612"
    },
    {
      "channel": 3,
      "note": 87,
      "start": 8.7339,
      "duration": 0.0078,
      "velocity": 110,
      "chip": "ym2612"
    },
    {
      "channel": 4,
      "note": 89,
      "start": 8.7476,
      "duration": 0.0085,
      "velocity": 110,
      "chip": "ym2612"
    },
    {
      "channel": 2,
      "note": 63,
      "start": 8.7499,
      "duration": 0.0447,
      "velocity": 97,
      "chip": "ym2612"
    },
    {
      "channel": 3,
      "note": 86,
      "start": 8.7531,
      "duration": 0.078,
      "velocity": 110,
      "chip": "ym2612"
    },
    {
      "channel": 4,
      "note": 87,
      "start": 8.7955,
      "duration": 0.0224,
      "velocity": 110,
      "chip": "ym2612"
    },
    {
      "channel": 0,
      "note": 80,
      "start": 8.8107,
      "duration": 0.1179,
      "velocity": 110,
      "chip": "ym2612"
    },
    {
      "channel": 1,
      "note": 68,
      "start": 8.8113,
      "duration": 0.1177,
      "velocity": 78,
      "chip": "ym2612"
    },
    {
      "channel": 2,
      "note": 54,
      "start": 8.8118,
      "duration": 0.0158,
      "velocity": 97,
      "chip": "ym2612"
    },
    {
      "channel": 4,
      "note": 86,
      "start": 8.8285,
      "duration": 0.0365,
      "velocity": 110,
      "chip": "ym2612"
    },
    {
      "channel": 2,
      "note": 54,
      "start": 8.8308,
      "duration": 0.016,
      "velocity": 97,
      "chip": "ym2612"
    },
    {
      "channel": 3,
      "note": 87,
      "start": 8.8343,
      "duration": 0.12,
      "velocity": 110,
      "chip": "ym2612"
    },
    {
      "channel": 2,
      "note": 59,
      "start": 8.8512,
      "duration": 0.0159,
      "velocity": 97,
      "chip": "ym2612"
    },
    {
      "channel": 4,
      "note": 87,
      "start": 8.868,
      "duration": 0.123,
      "velocity": 110,
      "chip": "ym2612"
    },
    {
      "channel": 2,
      "note": 61,
      "start": 8.8704,
      "duration": 0.0165,
      "velocity": 97,
      "chip": "ym2612"
    },
    {
      "channel": 2,
      "note": 66,
      "start": 8.891,
      "duration": 0.0179,
      "velocity": 97,
      "chip": "ym2612"
    },
    {
      "channel": 2,
      "note": 59,
      "start": 8.9127,
      "duration": 0.0166,
      "velocity": 97,
      "chip": "ym2612"
    },
    {
      "channel": 0,
      "note": 80,
      "start": 8.9329,
      "duration": 0.0092,
      "velocity": 110,
      "chip": "ym2612"
    },
    {
      "channel": 1,
      "note": 80,
      "start": 8.9336,
      "duration": 0.0167,
      "velocity": 78,
      "chip": "ym2612"
    },
    {
      "channel": 2,
      "note": 61,
      "start": 8.9341,
      "duration": 0.0164,
      "velocity": 97,
      "chip": "ym2612"
    },
    {
      "channel": 0,
      "note": 85,
      "start": 8.9529,
      "duration": 0.0089,
      "velocity": 110,
      "chip": "ym2612"
    },
    {
      "channel": 1,
      "note": 85,
      "start": 8.9534,
      "duration": 0.0174,
      "velocity": 78,
      "chip": "ym2612"
    },
    {
      "channel": 2,
      "note": 66,
      "start": 8.954,
      "duration": 0.0182,
      "velocity": 97,
      "chip": "ym2612"
    },
    {
      "channel": 3,
      "note": 80,
      "start": 8.9577,
      "duration": 0.0089,
      "velocity": 110,
      "chip": "ym2612"
    },
    {
      "channel": 0,
      "note": 92,
      "start": 8.9743,
      "duration": 0.0567,
      "velocity": 110,
      "chip": "ym2612"
    },
    {
      "channel": 1,
      "note": 92,
      "start": 8.9759,
      "duration": 0.1596,
      "velocity": 78,
      "chip": "ym2612"
    },
    {
      "channel": 3,
      "note": 80,
      "start": 8.9801,
      "duration": 0.0076,
      "velocity": 110,
      "chip": "ym2612"
    },
    {
      "channel": 4,
      "note": 80,
      "start": 8.9942,
      "duration": 0.0111,
      "velocity": 110,
      "chip": "ym2612"
    },
    {
      "channel": 2,
      "note": 54,
      "start": 8.9967,
      "duration": 0.0184,
      "velocity": 97,
      "chip": "ym2612"
    },
    {
      "channel": 3,
      "note": 85,
      "start": 9.0021,
      "duration": 0.0524,
      "velocity": 110,
      "chip": "ym2612"
    },
    {
      "channel": 4,
      "note": 80,
      "start": 9.016,
      "duration": 0.0106,
      "velocity": 110,
      "chip": "ym2612"
    },
    {
      "channel": 2,
      "note": 59,
      "start": 9.0189,
      "duration": 0.018,
      "velocity": 97,
      "chip": "ym2612"
    },
    {
      "channel": 4,
      "note": 85,
      "start": 9.0377,
      "duration": 0.0516,
      "velocity": 110,
      "chip": "ym2612"
    },
    {
      "channel": 2,
      "note": 61,
      "start": 9.0409,
      "duration": 0.016,
      "velocity": 97,
      "chip": "ym2612"
    },
    {
      "channel": 0,
      "note": 90,
      "start": 9.0608,
      "duration": 0.0501,
      "velocity": 110,
      "chip": "ym2612"
    },
    {
      "channel": 2,
      "note": 66,
      "start": 9.0616,
      "duration": 0.0158,
      "velocity": 97,
      "chip": "ym2612"
    },
    {
      "channel": 2,
      "note": 59,
      "start": 9.0802,
      "duration": 0.0164,
      "velocity": 97,
      "chip": "ym2612"
    },
    {
      "channel": 3,
      "note": 92,
      "start": 9.0838,
      "duration": 0.0496,
      "velocity": 110,
      "chip": "ym2612"
    },
    {
      "channel": 2,
      "note": 61,
      "start": 9.1006,
      "duration": 0.0161,
      "velocity": 97,
      "chip": "ym2612"
    },
    {
      "channel": 4,
      "note": 92,
      "start": 9.1175,
      "duration": 0.0529,
      "velocity": 110,
      "chip": "ym2612"
    },
    {
      "channel": 2,
      "note": 66,
      "start": 9.1199,
      "duration": 0.0159,
      "velocity": 97,
      "chip": "ym2612"
    },
    {
      "channel": 0,
      "note": 89,
      "start": 9.1398,
      "duration": 0.8524,
      "velocity": 110,
      "chip": "ym2612"
    },
    {
      "channel": 1,
      "note": 94,
      "start": 9.1422,
      "duration": 0.016,
      "velocity": 78,
      "chip": "ym2612"
    },
    {
      "channel": 2,
      "note": 51,
      "start": 9.1427,
      "duration": 0.0158,
      "velocity": 97,
      "chip": "ym2612"
    },
    {
      "channel": 1,
      "note": 86,
      "start": 9.161,
      "duration": 0.0543,
      "velocity": 78,
      "chip": "ym2612"
    },
    {
      "channel": 2,
      "note": 51,
      "start": 9.1616,
      "duration": 0.054,
      "velocity": 97,
      "chip": "ym2612"
    },
    {
      "channel": 3,
      "note": 90,
      "start": 9.1648,
      "duration": 0.8677,
      "velocity": 110,
      "chip": "ym2612"
    },
    {
      "channel": 1,
      "note": 89,
      "start": 9.232,
      "duration": 0.0161,
      "velocity": 78,
      "chip": "ym2612"
    },
    {
      "channel": 2,
      "note": 56,
      "start": 9.2326,
      "duration": 0.0159,
      "velocity": 97,
      "chip": "ym2612"
    },
    {
      "channel": 4,
      "note": 90,
      "start": 9.2544,
      "duration": 0.0164,
      "velocity": 78,
      "chip": "ym2612"
    },
    {
      "channel": 1,
      "note": 86,
      "start": 9.2565,
      "duration": 0.0162,
      "velocity": 78,
      "chip": "ym2612"
    },
    {
      "channel": 2,
      "note": 58,
      "start": 9.2571,
      "duration": 0.0159,
      "velocity": 97,
      "chip": "ym2612"
    },
    {
      "channel": 4,
      "note": 94,
      "start": 9.2738,
      "duration": 0.0167,
      "velocity": 78,
      "chip": "ym2612"
    },
    {
      "channel": 1,
      "note": 94,
      "start": 9.276,
      "duration": 0.0163,
      "velocity": 78,
      "chip": "ym2612"
    },
    {
      "channel": 2,
      "note": 63,
      "start": 9.2766,
      "duration": 0.0161,
      "velocity": 97,
      "chip": "ym2612"
    },
    {
      "channel": 4,
      "note": 86,
      "start": 9.2935,
      "duration": 0.0171,
      "velocity": 78,
      "chip": "ym2612"
    },
    {
      "channel": 1,
      "note": 86,
      "start": 9.2959,
      "duration": 0.0169,
      "velocity": 78,
      "chip": "ym2612"
    },
    {
      "channel": 2,
      "note": 56,
      "start": 9.2964,
      "duration": 0.0166,
      "velocity": 97,
      "chip": "ym2612"
    },
    {
      "channel": 4,
      "note": 89,
      "start": 9.3139,
      "duration": 0.0168,
      "velocity": 78,
      "chip": "ym2612"
    },
    {
      "channel": 1,
      "note": 89,
      "start": 9.3163,
      "duration": 0.0166,
      "velocity": 78,
      "chip": "ym2612"
    },
    {
      "channel": 2,
      "note": 58,
      "start": 9.3168,
      "duration": 0.0163,
      "velocity": 97,
      "chip": "ym2612"
    },
    {
      "channel": 4,
      "note": 86,
      "start": 9.3352,
      "duration": 0.0167,
      "velocity": 78,
      "chip": "ym2612"
    },
    {
      "channel": 1,
      "note": 86,
      "start": 9.3366,
      "duration": 0.0172,
      "velocity": 78,
      "chip": "ym2612"
    },
    {
      "channel": 2,
      "note": 63,
      "start": 9.3371,
      "duration": 0.017,
      "velocity": 97,
      "chip": "ym2612"
    },
    {
      "channel": 4,
      "note": 94,
      "start": 9.3549,
      "duration": 0.0414,
      "velocity": 78,
      "chip": "ym2612"
    },
    {
      "channel": 1,
      "note": 94,
      "start": 9.3571,
      "duration": 0.0549,
      "velocity": 78,
      "chip": "ym2612"
    },
    {
      "channel": 4,
      "note": 86,
      "start": 9.4131,
      "duration": 0.0301,
      "velocity": 78,
      "chip": "ym2612"
    },
    {
      "channel": 1,
      "note": 86,
      "start": 9.4287,
      "duration": 0.0163,
      "velocity": 78,
      "chip": "ym2612"
    },
    {
      "channel": 2,
      "note": 51,
      "start": 9.4292,
      "duration": 0.0161,
      "velocity": 97,
      "chip": "ym2612"
    },
    {
      "channel": 4,
      "note": 89,
      "start": 9.4462,
      "duration": 0.0174,
      "velocity": 78,
      "chip": "ym2612"
    },
    {
      "channel": 1,
      "note": 89,
      "start": 9.4491,
      "duration": 0.0163,
      "velocity": 78,
      "chip": "ym2612"
    },
    {
      "channel": 2,
      "note": 56,
      "start": 9.4496,
      "duration": 0.0161,
      "velocity": 97,
      "chip": "ym2612"
    },
    {
      "channel": 4,
      "note": 86,
      "start": 9.4667,
      "duration": 0.0415,
      "velocity": 78,
      "chip": "ym2612"
    },
    {
      "channel": 1,
      "note": 86,
      "start": 9.4688,
      "duration": 0.0551,
      "velocity": 78,
      "chip": "ym2612"
    },
    {
      "channel": 2,
      "note": 58,
      "start": 9.4693,
      "duration": 0.0549,
      "velocity": 97,
      "chip": "ym2612"
    },
    {
      "channel": 4,
      "note": 94,
      "start": 9.5251,
      "duration": 0.0313,
      "velocity": 78,
      "chip": "ym2612"
    },
    {
      "channel": 1,
      "note": 94,
      "start": 9.5408,
      "duration": 0.0174,
      "velocity": 78,
      "chip": "ym2612"
    },
    {
      "channel": 2,
      "note": 63,
      "start": 9.5413,
      "duration": 0.0171,
      "velocity": 97,
      "chip": "ym2612"
    },
    {
      "channel": 4,
      "note": 86,
      "start": 9.5594,
      "duration": 0.0163,
      "velocity": 78,
      "chip": "ym2612"
    },
    {
      "channel": 1,
      "note": 86,
      "start": 9.5615,
      "duration": 0.016,
      "velocity": 78,
      "chip": "ym2612"
    },
    {
      "channel": 2,
      "note": 56,
      "start": 9.562,
      "duration": 0.0157,
      "velocity": 97,
      "chip": "ym2612"
    },
    {
      "channel": 4,
      "note": 89,
      "start": 9.5786,
      "duration": 0.0163,
      "velocity": 78,
      "chip": "ym2612"
    },
    {
      "channel": 1,
      "note": 89,
      "start": 9.5807,
      "duration": 0.0161,
      "velocity": 78,
      "chip": "ym2612"
    },
    {
      "channel": 2,
      "note": 58,
      "start": 9.5812,
      "duration": 0.0158,
      "velocity": 97,
      "chip": "ym2612"
    },
    {
      "channel": 4,
      "note": 86,
      "start": 9.5981,
      "duration": 0.0312,
      "velocity": 78,
      "chip": "ym2612"
    },
    {
      "channel": 1,
      "note": 86,
      "start": 9.6002,
      "duration": 0.0448,
      "velocity": 78,
      "chip": "ym2612"
    },
    {
      "channel": 2,
      "note": 63,
      "start": 9.6007,
      "duration": 0.0445,
      "velocity": 97,
      "chip": "ym2612"
    },
    {
      "channel": 4,
      "note": 94,
      "start": 9.6462,
      "duration": 0.0303,
      "velocity": 78,
      "chip": "ym2612"
    },
    {
      "channel": 1,
      "note": 95,
      "start": 9.6618,
      "duration": 0.0167,
      "velocity": 78,
      "chip": "ym2612"
    },
    {
      "channel": 2,
      "note": 52,
      "start": 9.6624,
      "duration": 0.0163,
      "velocity": 97,
      "chip": "ym2612"
    },
    {
      "channel": 4,
      "note": 86,
      "start": 9.6796,
      "duration": 0.0168,
      "velocity": 78,
      "chip": "ym2612"
    },
    {
      "channel": 1,
      "note": 86,
      "start": 9.6817,
      "duration": 0.0165,
      "velocity": 78,
      "chip": "ym2612"
    },
    {
      "channel": 2,
      "note": 52,
      "start": 9.6823,
      "duration": 0.0162,
      "velocity": 97,
      "chip": "ym2612"
    },
    {
      "channel": 4,
      "note": 89,
      "start": 9.6994,
      "duration": 0.0174,
      "velocity": 78,
      "chip": "ym2612"
    },
    {
      "channel": 1,
      "note": 90,
      "start": 9.7022,
      "duration": 0.0164,
      "velocity": 78,
      "chip": "ym2612"
    },
    {
      "channel": 2,
      "note": 57,
      "start": 9.7028,
      "duration": 0.0161,
      "velocity": 97,
      "chip": "ym2612"
    },
    {
      "channel": 4,
      "note": 86,
      "start": 9.72,
      "duration": 0.0173,
      "velocity": 78,
      "chip": "ym2612"
    },
    {
      "channel": 1,
      "note": 86,
      "start": 9.7221,
      "duration": 0.0173,
      "velocity": 78,
      "chip": "ym2612"
    },
    {
      "channel": 2,
      "note": 59,
      "start": 9.7226,
      "duration": 0.017,
      "velocity": 97,
      "chip": "ym2612"
    },
    {
      "channel": 4,
      "note": 95,
      "start": 9.7405,
      "duration": 0.0197,
      "velocity": 78,
      "chip": "ym2612"
    },
    {
      "channel": 1,
      "note": 95,
      "start": 9.7442,
      "duration": 0.0171,
      "velocity": 78,
      "chip": "ym2612"
    },
    {
      "channel": 2,
      "note": 64,
      "start": 9.7447,
      "duration": 0.0168,
      "velocity": 97,
      "chip": "ym2612"
    },
    {
      "channel": 4,
      "note": 86,
      "start": 9.7635,
      "duration": 0.0189,
      "velocity": 78,
      "chip": "ym2612"
    },
    {
      "channel": 1,
      "note": 86,
      "start": 9.7653,
      "duration": 0.0189,
      "velocity": 78,
      "chip": "ym2612"
    },
    {
      "channel": 2,
      "note": 57,
      "start": 9.7659,
      "duration": 0.0186,
      "velocity": 97,
      "chip": "ym2612"
    },
    {
      "channel": 4,
      "note": 90,
      "start": 9.7854,
      "duration": 0.0193,
      "velocity": 78,
      "chip": "ym2612"
    },
    {
      "channel": 1,
      "note": 90,
      "start": 9.7882,
      "duration": 0.0184,
      "velocity": 78,
      "chip": "ym2612"
    },
    {
      "channel": 2,
      "note": 59,
      "start": 9.7887,
      "duration": 0.0181,
      "velocity": 97,
      "chip": "ym2612"
    },
    {
      "channel": 4,
      "note": 86,
      "start": 9.8078,
      "duration": 0.0185,
      "velocity": 78,
      "chip": "ym2612"
    },
    {
      "channel": 1,
      "note": 86,
      "start": 9.81,
      "duration": 0.0181,
      "velocity": 78,
      "chip": "ym2612"
    },
    {
      "channel": 2,
      "note": 64,
      "start": 9.8106,
      "duration": 0.0178,
      "velocity": 97,
      "chip": "ym2612"
    },
    {
      "channel": 4,
      "note": 95,
      "start": 9.8293,
      "duration": 0.0182,
      "velocity": 78,
      "chip": "ym2612"
    },
    {
      "channel": 1,
      "note": 95,
      "start": 9.832,
      "duration": 0.0174,
      "velocity": 78,
      "chip": "ym2612"
    },
    {
      "channel": 4,
      "note": 86,
      "start": 9.8505,
      "duration": 0.0173,
      "velocity": 78,
      "chip": "ym2612"
    },
    {
      "channel": 1,
      "note": 86,
      "start": 9.8534,
      "duration": 0.0164,
      "velocity": 78,
      "chip": "ym2612"
    },
    {
      "channel": 2,
      "note": 52,
      "start": 9.8539,
      "duration": 0.0161,
      "velocity": 97,
      "chip": "ym2612"
    },
    {
      "channel": 4,
      "note": 90,
      "start": 9.8709,
      "duration": 0.0166,
      "velocity": 78,
      "chip": "ym2612"
    },
    {
      "channel": 1,
      "note": 90,
      "start": 9.873,
      "duration": 0.0163,
      "velocity": 78,
      "chip": "ym2612"
    },
    {
      "channel": 2,
      "note": 57,
      "start": 9.8735,
      "duration": 0.016,
      "velocity": 97,
      "chip": "ym2612"
    },
    {
      "channel": 4,
      "note": 86,
      "start": 9.8906,
      "duration": 0.0167,
      "velocity": 78,
      "chip": "ym2612"
    },
    {
      "channel": 1,
      "note": 86,
      "start": 9.8927,
      "duration": 0.0164,
      "velocity": 78,
      "chip": "ym2612"
    },
    {
      "channel": 2,
      "note": 59,
      "start": 9.8932,
      "duration": 0.0162,
      "velocity": 97,
      "chip": "ym2612"
    },
    {
      "channel": 4,
      "note": 95,
      "start": 9.9103,
      "duration": 0.0193,
      "velocity": 78,
      "chip": "ym2612"
    },
    {
      "channel": 1,
      "note": 95,
      "start": 9.9132,
      "duration": 0.0181,
      "velocity": 78,
      "chip": "ym2612"
    },
    {
      "channel": 2,
      "note": 64,
      "start": 9.9137,
      "duration": 0.0179,
      "velocity": 97,
      "chip": "ym2612"
    },
    {
      "channel": 4,
      "note": 86,
      "start": 9.9325,
      "duration": 0.0181,
      "velocity": 78,
      "chip": "ym2612"
    },
    {
      "channel": 1,
      "note": 86,
      "start": 9.9346,
      "duration": 0.0178,
      "velocity": 78,
      "chip": "ym2612"
    },
    {
      "channel": 2,
      "note": 57,
      "start": 9.9352,
      "duration": 0.0176,
      "velocity": 97,
      "chip": "ym2612"
    },
    {
      "channel": 4,
      "note": 90,
      "start": 9.9537,
      "duration": 0.0168,
      "velocity": 78,
      "chip": "ym2612"
    },
    {
      "channel": 1,
      "note": 90,
      "start": 9.9558,
      "duration": 0.0167,
      "velocity": 78,
      "chip": "ym2612"
    },
    {
      "channel": 2,
      "note": 59,
      "start": 9.9564,
      "duration": 0.0163,
      "velocity": 97,
      "chip": "ym2612"
    },
    {
      "channel": 4,
      "note": 86,
      "start": 9.9738,
      "duration": 0.0168,
      "velocity": 78,
      "chip": "ym2612"
    },
    {
      "channel": 1,
      "note": 86,
      "start": 9.9759,
      "duration": 0.0166,
      "velocity": 78,
      "chip": "ym2612"
    },
    {
      "channel": 2,
      "note": 64,
      "start": 9.9765,
      "duration": 0.0163,
      "velocity": 97,
      "chip": "ym2612"
    },
    {
      "channel": 4,
      "note": 95,
      "start": 9.9937,
      "duration": 0.0333,
      "velocity": 78,
      "chip": "ym2612"
    },
    {
      "channel": 0,
      "note": 64,
      "start": 10.0018,
      "duration": 27.3375,
      "velocity": 87,
      "chip": "ym2612"
    },
    {
      "channel": 1,
      "note": 64,
      "start": 10.0062,
      "duration": 27.3331,
      "velocity": 87,
      "chip": "ym2612"
    },
    {
      "channel": 2,
      "note": 45,
      "start": 10.0136,
      "duration": 0.0154,
      "velocity": 97,
      "chip": "ym2612"
    },
    {
      "channel": 4,
      "note": 86,
      "start": 10.0299,
      "duration": 0.0258,
      "velocity": 78,
      "chip": "ym2612"
    },
    {
      "channel": 2,
      "note": 45,
      "start": 10.0322,
      "duration": 0.0256,
      "velocity": 97,
      "chip": "ym2612"
    },
    {
      "channel": 3,
      "note": 89,
      "start": 10.0449,
      "duration": 27.2944,
      "velocity": 87,
      "chip": "ym2612"
    },
    {
      "channel": 4,
      "note": 90,
      "start": 10.0586,
      "duration": 0.0172,
      "velocity": 78,
      "chip": "ym2612"
    },
    {
      "channel": 2,
      "note": 52,
      "start": 10.0612,
      "duration": 0.016,
      "velocity": 97,
      "chip": "ym2612"
    }
  ]
}