{
  "track_name": "09 - Beastman Wander",
  "duration_sec": 80.495,
  "sample_rate": 44100,
  "note_count": 432,
  "unique_pitches": 18,
  "pitch_range": 24,
  "avg_note_duration": 0.3755,
  "reconstruction_stats": {
    "notes_reconstructed": 432,
    "keyon_events": 432,
    "keyoff_events": 432,
    "orphan_keyons": 0,
    "unique_pitches": 18,
    "pitch_range": 24,
    "avg_duration_sec": 0.3755
  },
  "metadata": {
    "source": "D\\Dungeons & Dragons - Warriors of the Eternal Sun\\09 - Beastman Wander.vgz"
  },
  "notes": [
    {
      "channel": 1,
      "note": 60,
      "start": 0.1158,
      "duration": 0.5599,
      "velocity": 93,
      "chip": "ym2612"
    },
    {
      "channel": 1,
      "note": 60,
      "start": 0.6784,
      "duration": 0.225,
      "velocity": 93,
      "chip": "ym2612"
    },
    {
      "channel": 1,
      "note": 60,
      "start": 0.906,
      "duration": 0.2306,
      "velocity": 93,
      "chip": "ym2612"
    },
    {
      "channel": 1,
      "note": 60,
      "start": 1.1393,
      "duration": 0.2307,
      "velocity": 93,
      "chip": "ym2612"
    },
    {
      "channel": 1,
      "note": 58,
      "start": 1.3727,
      "duration": 0.108,
      "velocity": 93,
      "chip": "ym2612"
    },
    {
      "channel": 1,
      "note": 58,
      "start": 1.4831,
      "duration": 0.2184,
      "velocity": 93,
      "chip": "ym2612"
    },
    {
      "channel": 1,
      "note": 60,
      "start": 1.7044,
      "duration": 0.4803,
      "velocity": 93,
      "chip": "ym2612"
    },
    {
      "channel": 1,
      "note": 60,
      "start": 2.1877,
      "duration": 0.1017,
      "velocity": 93,
      "chip": "ym2612"
    },
    {
      "channel": 1,
      "note": 60,
      "start": 2.2928,
      "duration": 0.2244,
      "velocity": 93,
      "chip": "ym2612"
    },
    {
      "channel": 1,
      "note": 61,
      "start": 2.5202,
      "duration": 0.4637,
      "velocity": 93,
      "chip": "ym2612"
    },
    {
      "channel": 1,
      "note": 61,
      "start": 2.9874,
      "duration": 0.1078,
      "velocity": 93,
      "chip": "ym2612"
    },
    {
      "channel": 1,
      "note": 61,
      "start": 3.0977,
      "duration": 0.2181,
      "velocity": 93,
      "chip": "ym2612"
    },
    {
      "channel": 1,
      "note": 60,
      "start": 3.3187,
      "duration": 0.5847,
      "velocity": 93,
      "chip": "ym2612"
    },
    {
      "channel": 1,
      "note": 60,
      "start": 3.9063,
      "duration": 0.2082,
      "velocity": 93,
      "chip": "ym2612"
    },
    {
      "channel": 1,
      "note": 60,
      "start": 4.1171,
      "duration": 0.2473,
      "velocity": 93,
      "chip": "ym2612"
    },
    {
      "channel": 1,
      "note": 60,
      "start": 4.3672,
      "duration": 0.2305,
      "velocity": 93,
      "chip": "ym2612"
    },
    {
      "channel": 1,
      "note": 58,
      "start": 4.6005,
      "duration": 0.1037,
      "velocity": 93,
      "chip": "ym2612"
    },
    {
      "channel": 1,
      "note": 58,
      "start": 4.7066,
      "duration": 0.2245,
      "velocity": 93,
      "chip": "ym2612"
    },
    {
      "channel": 1,
      "note": 60,
      "start": 4.9341,
      "duration": 0.4803,
      "velocity": 93,
      "chip": "ym2612"
    },
    {
      "channel": 1,
      "note": 60,
      "start": 5.4174,
      "duration": 0.1024,
      "velocity": 93,
      "chip": "ym2612"
    },
    {
      "channel": 1,
      "note": 60,
      "start": 5.5232,
      "duration": 0.2078,
      "velocity": 93,
      "chip": "ym2612"
    },
    {
      "channel": 1,
      "note": 61,
      "start": 5.7339,
      "duration": 0.4803,
      "velocity": 93,
      "chip": "ym2612"
    },
    {
      "channel": 1,
      "note": 61,
      "start": 6.2173,
      "duration": 0.1029,
      "velocity": 93,
      "chip": "ym2612"
    },
    {
      "channel": 1,
      "note": 61,
      "start": 6.3235,
      "duration": 0.2245,
      "velocity": 93,
      "chip": "ym2612"
    },
    {
      "channel": 0,
      "note": 67,
      "start": 6.5511,
      "duration": 2.4098,
      "velocity": 104,
      "chip": "ym2612"
    },
    {
      "channel": 3,
      "note": 60,
      "start": 6.5539,
      "duration": 2.4073,
      "velocity": 104,
      "chip": "ym2612"
    },
    {
      "channel": 1,
      "note": 60,
      "start": 6.5564,
      "duration": 0.5695,
      "velocity": 93,
      "chip": "ym2612"
    },
    {
      "channel": 1,
      "note": 60,
      "start": 7.1286,
      "duration": 0.218,
      "velocity": 93,
      "chip": "ym2612"
    },
    {
      "channel": 1,
      "note": 60,
      "start": 7.3499,
      "duration": 0.2302,
      "velocity": 93,
      "chip": "ym2612"
    },
    {
      "channel": 1,
      "note": 60,
      "start": 7.5828,
      "duration": 0.2472,
      "velocity": 93,
      "chip": "ym2612"
    },
    {
      "channel": 1,
      "note": 58,
      "start": 7.8327,
      "duration": 0.1026,
      "velocity": 93,
      "chip": "ym2612"
    },
    {
      "channel": 1,
      "note": 58,
      "start": 7.9376,
      "duration": 0.2249,
      "velocity": 93,
      "chip": "ym2612"
    },
    {
      "channel": 1,
      "note": 60,
      "start": 8.1655,
      "duration": 0.4637,
      "velocity": 93,
      "chip": "ym2612"
    },
    {
      "channel": 1,
      "note": 60,
      "start": 8.6323,
      "duration": 0.1082,
      "velocity": 93,
      "chip": "ym2612"
    },
    {
      "channel": 1,
      "note": 60,
      "start": 8.743,
      "duration": 0.2181,
      "velocity": 93,
      "chip": "ym2612"
    },
    {
      "channel": 0,
      "note": 68,
      "start": 8.9639,
      "duration": 0.7967,
      "velocity": 104,
      "chip": "ym2612"
    },
    {
      "channel": 3,
      "note": 61,
      "start": 8.9664,
      "duration": 0.7945,
      "velocity": 104,
      "chip": "ym2612"
    },
    {
      "channel": 1,
      "note": 61,
      "start": 8.9689,
      "duration": 0.4754,
      "velocity": 93,
      "chip": "ym2612"
    },
    {
      "channel": 1,
      "note": 61,
      "start": 9.4473,
      "duration": 0.1023,
      "velocity": 93,
      "chip": "ym2612"
    },
    {
      "channel": 1,
      "note": 61,
      "start": 9.5529,
      "duration": 0.2079,
      "velocity": 93,
      "chip": "ym2612"
    },
    {
      "channel": 0,
      "note": 67,
      "start": 9.7639,
      "duration": 2.4274,
      "velocity": 104,
      "chip": "ym2612"
    },
    {
      "channel": 3,
      "note": 60,
      "start": 9.7667,
      "duration": 2.4249,
      "velocity": 104,
      "chip": "ym2612"
    },
    {
      "channel": 1,
      "note": 60,
      "start": 9.7692,
      "duration": 0.5793,
      "velocity": 93,
      "chip": "ym2612"
    },
    {
      "channel": 1,
      "note": 60,
      "start": 10.351,
      "duration": 0.2248,
      "velocity": 93,
      "chip": "ym2612"
    },
    {
      "channel": 1,
      "note": 60,
      "start": 10.5785,
      "duration": 0.2307,
      "velocity": 93,
      "chip": "ym2612"
    },
    {
      "channel": 1,
      "note": 60,
      "start": 10.812,
      "duration": 0.2306,
      "velocity": 93,
      "chip": "ym2612"
    },
    {
      "channel": 1,
      "note": 58,
      "start": 11.0453,
      "duration": 0.1087,
      "velocity": 93,
      "chip": "ym2612"
    },
    {
      "channel": 1,
      "note": 58,
      "start": 11.1566,
      "duration": 0.2184,
      "velocity": 93,
      "chip": "ym2612"
    },
    {
      "channel": 1,
      "note": 60,
      "start": 11.378,
      "duration": 0.4803,
      "velocity": 93,
      "chip": "ym2612"
    },
    {
      "channel": 1,
      "note": 60,
      "start": 11.8617,
      "duration": 0.1019,
      "velocity": 93,
      "chip": "ym2612"
    },
    {
      "channel": 1,
      "note": 60,
      "start": 11.9671,
      "duration": 0.2244,
      "velocity": 93,
      "chip": "ym2612"
    },
    {
      "channel": 0,
      "note": 68,
      "start": 12.1944,
      "duration": 0.7972,
      "velocity": 104,
      "chip": "ym2612"
    },
    {
      "channel": 3,
      "note": 61,
      "start": 12.1968,
      "duration": 0.795,
      "velocity": 104,
      "chip": "ym2612"
    },
    {
      "channel": 1,
      "note": 61,
      "start": 12.1993,
      "duration": 0.4588,
      "velocity": 93,
      "chip": "ym2612"
    },
    {
      "channel": 1,
      "note": 61,
      "start": 12.6611,
      "duration": 0.1095,
      "velocity": 93,
      "chip": "ym2612"
    },
    {
      "channel": 1,
      "note": 61,
      "start": 12.7732,
      "duration": 0.2185,
      "velocity": 93,
      "chip": "ym2612"
    },
    {
      "channel": 0,
      "note": 72,
      "start": 12.9953,
      "duration": 2.4098,
      "velocity": 104,
      "chip": "ym2612"
    },
    {
      "channel": 3,
      "note": 77,
      "start": 12.9986,
      "duration": 2.4068,
      "velocity": 104,
      "chip": "ym2612"
    },
    {
      "channel": 1,
      "note": 65,
      "start": 13.0011,
      "duration": 0.5778,
      "velocity": 93,
      "chip": "ym2612"
    },
    {
      "channel": 1,
      "note": 65,
      "start": 13.5815,
      "duration": 0.2083,
      "velocity": 93,
      "chip": "ym2612"
    },
    {
      "channel": 1,
      "note": 65,
      "start": 13.7925,
      "duration": 0.2473,
      "velocity": 93,
      "chip": "ym2612"
    },
    {
      "channel": 1,
      "note": 65,
      "start": 14.0425,
      "duration": 0.2305,
      "velocity": 93,
      "chip": "ym2612"
    },
    {
      "channel": 1,
      "note": 63,
      "start": 14.2758,
      "duration": 0.1095,
      "velocity": 93,
      "chip": "ym2612"
    },
    {
      "channel": 1,
      "note": 63,
      "start": 14.3878,
      "duration": 0.2185,
      "velocity": 93,
      "chip": "ym2612"
    },
    {
      "channel": 1,
      "note": 65,
      "start": 14.6093,
      "duration": 0.4804,
      "velocity": 93,
      "chip": "ym2612"
    },
    {
      "channel": 1,
      "note": 65,
      "start": 15.0926,
      "duration": 0.1019,
      "velocity": 93,
      "chip": "ym2612"
    },
    {
      "channel": 1,
      "note": 65,
      "start": 15.1978,
      "duration": 0.2076,
      "velocity": 93,
      "chip": "ym2612"
    },
    {
      "channel": 0,
      "note": 73,
      "start": 15.4081,
      "duration": 0.8129,
      "velocity": 104,
      "chip": "ym2612"
    },
    {
      "channel": 3,
      "note": 78,
      "start": 15.4106,
      "duration": 0.8107,
      "velocity": 104,
      "chip": "ym2612"
    },
    {
      "channel": 1,
      "note": 66,
      "start": 15.4131,
      "duration": 0.4754,
      "velocity": 93,
      "chip": "ym2612"
    },
    {
      "channel": 1,
      "note": 66,
      "start": 15.892,
      "duration": 0.1015,
      "velocity": 93,
      "chip": "ym2612"
    },
    {
      "channel": 1,
      "note": 66,
      "start": 15.9969,
      "duration": 0.2243,
      "velocity": 93,
      "chip": "ym2612"
    },
    {
      "channel": 0,
      "note": 72,
      "start": 16.2243,
      "duration": 2.4098,
      "velocity": 104,
      "chip": "ym2612"
    },
    {
      "channel": 3,
      "note": 77,
      "start": 16.2271,
      "duration": 2.4072,
      "velocity": 104,
      "chip": "ym2612"
    },
    {
      "channel": 1,
      "note": 65,
      "start": 16.2296,
      "duration": 0.569,
      "velocity": 93,
      "chip": "ym2612"
    },
    {
      "channel": 1,
      "note": 65,
      "start": 16.8013,
      "duration": 0.2181,
      "velocity": 93,
      "chip": "ym2612"
    },
    {
      "channel": 1,
      "note": 65,
      "start": 17.0222,
      "duration": 0.2306,
      "velocity": 93,
      "chip": "ym2612"
    },
    {
      "channel": 1,
      "note": 65,
      "start": 17.2554,
      "duration": 0.2473,
      "velocity": 93,
      "chip": "ym2612"
    },
    {
      "channel": 1,
      "note": 63,
      "start": 17.5054,
      "duration": 0.1027,
      "velocity": 93,
      "chip": "ym2612"
    },
    {
      "channel": 1,
      "note": 63,
      "start": 17.6105,
      "duration": 0.2249,
      "velocity": 93,
      "chip": "ym2612"
    },
    {
      "channel": 1,
      "note": 65,
      "start": 17.8383,
      "duration": 0.4637,
      "velocity": 93,
      "chip": "ym2612"
    },
    {
      "channel": 1,
      "note": 65,
      "start": 18.3051,
      "duration": 0.1085,
      "velocity": 93,
      "chip": "ym2612"
    },
    {
      "channel": 1,
      "note": 65,
      "start": 18.4161,
      "duration": 0.2181,
      "velocity": 93,
      "chip": "ym2612"
    },
    {
      "channel": 0,
      "note": 73,
      "start": 18.637,
      "duration": 0.7962,
      "velocity": 104,
      "chip": "ym2612"
    },
    {
      "channel": 3,
      "note": 78,
      "start": 18.6395,
      "duration": 0.794,
      "velocity": 104,
      "chip": "ym2612"
    },
    {
      "channel": 1,
      "note": 66,
      "start": 18.642,
      "duration": 0.4755,
      "velocity": 93,
      "chip": "ym2612"
    },
    {
      "channel": 1,
      "note": 66,
      "start": 19.1205,
      "duration": 0.102,
      "velocity": 93,
      "chip": "ym2612"
    },
    {
      "channel": 1,
      "note": 66,
      "start": 19.2259,
      "duration": 0.2075,
      "velocity": 93,
      "chip": "ym2612"
    },
    {
      "channel": 0,
      "note": 67,
      "start": 19.4365,
      "duration": 2.4281,
      "velocity": 104,
      "chip": "ym2612"
    },
    {
      "channel": 3,
      "note": 72,
      "start": 19.4393,
      "duration": 2.4256,
      "velocity": 104,
      "chip": "ym2612"
    },
    {
      "channel": 1,
      "note": 60,
      "start": 19.4418,
      "duration": 0.5793,
      "velocity": 93,
      "chip": "ym2612"
    },
    {
      "channel": 1,
      "note": 60,
      "start": 20.0236,
      "duration": 0.2249,
      "velocity": 93,
      "chip": "ym2612"
    },
    {
      "channel": 1,
      "note": 60,
      "start": 20.2517,
      "duration": 0.23,
      "velocity": 93,
      "chip": "ym2612"
    },
    {
      "channel": 1,
      "note": 60,
      "start": 20.4844,
      "duration": 0.2473,
      "velocity": 93,
      "chip": "ym2612"
    },
    {
      "channel": 1,
      "note": 58,
      "start": 20.7344,
      "duration": 0.102,
      "velocity": 93,
      "chip": "ym2612"
    },
    {
      "channel": 1,
      "note": 58,
      "start": 20.8399,
      "duration": 0.2081,
      "velocity": 93,
      "chip": "ym2612"
    },
    {
      "channel": 1,
      "note": 60,
      "start": 21.051,
      "duration": 0.4803,
      "velocity": 93,
      "chip": "ym2612"
    },
    {
      "channel": 1,
      "note": 60,
      "start": 21.5343,
      "duration": 0.1027,
      "velocity": 93,
      "chip": "ym2612"
    },
    {
      "channel": 1,
      "note": 60,
      "start": 21.6403,
      "duration": 0.2245,
      "velocity": 93,
      "chip": "ym2612"
    },
    {
      "channel": 0,
      "note": 68,
      "start": 21.8676,
      "duration": 0.7952,
      "velocity": 104,
      "chip": "ym2612"
    },
    {
      "channel": 3,
      "note": 73,
      "start": 21.8701,
      "duration": 0.7929,
      "velocity": 104,
      "chip": "ym2612"
    },
    {
      "channel": 1,
      "note": 61,
      "start": 21.8726,
      "duration": 0.4588,
      "velocity": 93,
      "chip": "ym2612"
    },
    {
      "channel": 1,
      "note": 61,
      "start": 22.3344,
      "duration": 0.1079,
      "velocity": 93,
      "chip": "ym2612"
    },
    {
      "channel": 1,
      "note": 61,
      "start": 22.4449,
      "duration": 0.2181,
      "velocity": 93,
      "chip": "ym2612"
    },
    {
      "channel": 0,
      "note": 67,
      "start": 22.6661,
      "duration": 1.6127,
      "velocity": 104,
      "chip": "ym2612"
    },
    {
      "channel": 3,
      "note": 72,
      "start": 22.6689,
      "duration": 1.6101,
      "velocity": 104,
      "chip": "ym2612"
    },
    {
      "channel": 1,
      "note": 60,
      "start": 22.6714,
      "duration": 0.5794,
      "velocity": 93,
      "chip": "ym2612"
    },
    {
      "channel": 4,
      "note": 72,
      "start": 22.6738,
      "duration": 0.4725,
      "velocity": 108,
      "chip": "ym2612"
    },
    {
      "channel": 4,
      "note": 72,
      "start": 23.1495,
      "duration": 0.1014,
      "velocity": 108,
      "chip": "ym2612"
    },
    {
      "channel": 1,
      "note": 60,
      "start": 23.2544,
      "duration": 0.208,
      "velocity": 93,
      "chip": "ym2612"
    },
    {
      "channel": 4,
      "note": 74,
      "start": 23.2563,
      "duration": 0.2062,
      "velocity": 108,
      "chip": "ym2612"
    },
    {
      "channel": 1,
      "note": 60,
      "start": 23.4651,
      "duration": 0.2471,
      "velocity": 93,
      "chip": "ym2612"
    },
    {
      "channel": 4,
      "note": 75,
      "start": 23.4677,
      "duration": 0.8115,
      "velocity": 108,
      "chip": "ym2612"
    },
    {
      "channel": 1,
      "note": 60,
      "start": 23.7149,
      "duration": 0.2306,
      "velocity": 93,
      "chip": "ym2612"
    },
    {
      "channel": 1,
      "note": 58,
      "start": 23.9483,
      "duration": 0.1095,
      "velocity": 93,
      "chip": "ym2612"
    },
    {
      "channel": 1,
      "note": 58,
      "start": 24.0603,
      "duration": 0.2185,
      "velocity": 93,
      "chip": "ym2612"
    },
    {
      "channel": 1,
      "note": 60,
      "start": 24.282,
      "duration": 0.4801,
      "velocity": 93,
      "chip": "ym2612"
    },
    {
      "channel": 4,
      "note": 75,
      "start": 24.2846,
      "duration": 0.4777,
      "velocity": 108,
      "chip": "ym2612"
    },
    {
      "channel": 1,
      "note": 60,
      "start": 24.7657,
      "duration": 0.102,
      "velocity": 93,
      "chip": "ym2612"
    },
    {
      "channel": 4,
      "note": 79,
      "start": 24.7683,
      "duration": 0.0996,
      "velocity": 108,
      "chip": "ym2612"
    },
    {
      "channel": 1,
      "note": 60,
      "start": 24.8702,
      "duration": 0.2071,
      "velocity": 93,
      "chip": "ym2612"
    },
    {
      "channel": 4,
      "note": 80,
      "start": 24.8736,
      "duration": 0.204,
      "velocity": 108,
      "chip": "ym2612"
    },
    {
      "channel": 1,
      "note": 61,
      "start": 25.0805,
      "duration": 0.4802,
      "velocity": 93,
      "chip": "ym2612"
    },
    {
      "channel": 4,
      "note": 79,
      "start": 25.0839,
      "duration": 2.4249,
      "velocity": 108,
      "chip": "ym2612"
    },
    {
      "channel": 1,
      "note": 61,
      "start": 25.5638,
      "duration": 0.1022,
      "velocity": 93,
      "chip": "ym2612"
    },
    {
      "channel": 1,
      "note": 61,
      "start": 25.6693,
      "duration": 0.2246,
      "velocity": 93,
      "chip": "ym2612"
    },
    {
      "channel": 1,
      "note": 60,
      "start": 25.897,
      "duration": 0.5748,
      "velocity": 93,
      "chip": "ym2612"
    },
    {
      "channel": 1,
      "note": 60,
      "start": 26.4746,
      "duration": 0.2181,
      "velocity": 93,
      "chip": "ym2612"
    },
    {
      "channel": 1,
      "note": 60,
      "start": 26.6955,
      "duration": 0.2471,
      "velocity": 93,
      "chip": "ym2612"
    },
    {
      "channel": 1,
      "note": 60,
      "start": 26.9454,
      "duration": 0.2307,
      "velocity": 93,
      "chip": "ym2612"
    },
    {
      "channel": 1,
      "note": 58,
      "start": 27.1787,
      "duration": 0.1025,
      "velocity": 93,
      "chip": "ym2612"
    },
    {
      "channel": 1,
      "note": 58,
      "start": 27.2837,
      "duration": 0.225,
      "velocity": 93,
      "chip": "ym2612"
    },
    {
      "channel": 1,
      "note": 60,
      "start": 27.5117,
      "duration": 0.4635,
      "velocity": 93,
      "chip": "ym2612"
    },
    {
      "channel": 4,
      "note": 79,
      "start": 27.5143,
      "duration": 0.1111,
      "velocity": 108,
      "chip": "ym2612"
    },
    {
      "channel": 4,
      "note": 80,
      "start": 27.6282,
      "duration": 0.1139,
      "velocity": 108,
      "chip": "ym2612"
    },
    {
      "channel": 4,
      "note": 79,
      "start": 27.7451,
      "duration": 0.2303,
      "velocity": 108,
      "chip": "ym2612"
    },
    {
      "channel": 1,
      "note": 60,
      "start": 27.9783,
      "duration": 0.1098,
      "velocity": 93,
      "chip": "ym2612"
    },
    {
      "channel": 4,
      "note": 77,
      "start": 27.9806,
      "duration": 0.1077,
      "velocity": 108,
      "chip": "ym2612"
    },
    {
      "channel": 1,
      "note": 60,
      "start": 28.0907,
      "duration": 0.2164,
      "velocity": 93,
      "chip": "ym2612"
    },
    {
      "channel": 4,
      "note": 75,
      "start": 28.0927,
      "duration": 0.2146,
      "velocity": 108,
      "chip": "ym2612"
    },
    {
      "channel": 1,
      "note": 61,
      "start": 28.3102,
      "duration": 0.4802,
      "velocity": 93,
      "chip": "ym2612"
    },
    {
      "channel": 4,
      "note": 77,
      "start": 28.3124,
      "duration": 0.228,
      "velocity": 108,
      "chip": "ym2612"
    },
    {
      "channel": 4,
      "note": 75,
      "start": 28.5433,
      "duration": 0.2473,
      "velocity": 108,
      "chip": "ym2612"
    },
    {
      "channel": 1,
      "note": 61,
      "start": 28.794,
      "duration": 0.1029,
      "velocity": 93,
      "chip": "ym2612"
    },
    {
      "channel": 4,
      "note": 74,
      "start": 28.7963,
      "duration": 0.1007,
      "velocity": 108,
      "chip": "ym2612"
    },
    {
      "channel": 1,
      "note": 61,
      "start": 28.8995,
      "duration": 0.207,
      "velocity": 93,
      "chip": "ym2612"
    },
    {
      "channel": 4,
      "note": 75,
      "start": 28.9027,
      "duration": 0.2039,
      "velocity": 108,
      "chip": "ym2612"
    },
    {
      "channel": 1,
      "note": 65,
      "start": 29.1095,
      "duration": 0.5912,
      "velocity": 93,
      "chip": "ym2612"
    },
    {
      "channel": 4,
      "note": 77,
      "start": 29.112,
      "duration": 0.5888,
      "velocity": 108,
      "chip": "ym2612"
    },
    {
      "channel": 1,
      "note": 65,
      "start": 29.7033,
      "duration": 0.2193,
      "velocity": 93,
      "chip": "ym2612"
    },
    {
      "channel": 4,
      "note": 79,
      "start": 29.7064,
      "duration": 0.2164,
      "velocity": 108,
      "chip": "ym2612"
    },
    {
      "channel": 1,
      "note": 65,
      "start": 29.9254,
      "duration": 0.2304,
      "velocity": 93,
      "chip": "ym2612"
    },
    {
      "channel": 4,
      "note": 80,
      "start": 29.9282,
      "duration": 1.3829,
      "velocity": 108,
      "chip": "ym2612"
    },
    {
      "channel": 1,
      "note": 65,
      "start": 30.1586,
      "duration": 0.2473,
      "velocity": 93,
      "chip": "ym2612"
    },
    {
      "channel": 1,
      "note": 63,
      "start": 30.4086,
      "duration": 0.1028,
      "velocity": 93,
      "chip": "ym2612"
    },
    {
      "channel": 1,
      "note": 63,
      "start": 30.5148,
      "duration": 0.2077,
      "velocity": 93,
      "chip": "ym2612"
    },
    {
      "channel": 1,
      "note": 65,
      "start": 30.7255,
      "duration": 0.4803,
      "velocity": 93,
      "chip": "ym2612"
    },
    {
      "channel": 1,
      "note": 65,
      "start": 31.2089,
      "duration": 0.1021,
      "velocity": 93,
      "chip": "ym2612"
    },
    {
      "channel": 1,
      "note": 65,
      "start": 31.3145,
      "duration": 0.2246,
      "velocity": 93,
      "chip": "ym2612"
    },
    {
      "channel": 4,
      "note": 79,
      "start": 31.3168,
      "duration": 0.1057,
      "velocity": 108,
      "chip": "ym2612"
    },
    {
      "channel": 4,
      "note": 80,
      "start": 31.4253,
      "duration": 0.1139,
      "velocity": 108,
      "chip": "ym2612"
    },
    {
      "channel": 1,
      "note": 66,
      "start": 31.5422,
      "duration": 0.4636,
      "velocity": 93,
      "chip": "ym2612"
    },
    {
      "channel": 4,
      "note": 82,
      "start": 31.5452,
      "duration": 0.2273,
      "velocity": 108,
      "chip": "ym2612"
    },
    {
      "channel": 4,
      "note": 80,
      "start": 31.7754,
      "duration": 0.2305,
      "velocity": 108,
      "chip": "ym2612"
    },
    {
      "channel": 1,
      "note": 66,
      "start": 32.0088,
      "duration": 0.1096,
      "velocity": 93,
      "chip": "ym2612"
    },
    {
      "channel": 4,
      "note": 79,
      "start": 32.0111,
      "duration": 0.1074,
      "velocity": 108,
      "chip": "ym2612"
    },
    {
      "channel": 1,
      "note": 66,
      "start": 32.1208,
      "duration": 0.2162,
      "velocity": 93,
      "chip": "ym2612"
    },
    {
      "channel": 4,
      "note": 80,
      "start": 32.1228,
      "duration": 0.2144,
      "velocity": 108,
      "chip": "ym2612"
    },
    {
      "channel": 1,
      "note": 65,
      "start": 32.3401,
      "duration": 0.5844,
      "velocity": 93,
      "chip": "ym2612"
    },
    {
      "channel": 4,
      "note": 77,
      "start": 32.3427,
      "duration": 0.582,
      "velocity": 108,
      "chip": "ym2612"
    },
    {
      "channel": 1,
      "note": 65,
      "start": 32.9273,
      "duration": 0.2258,
      "velocity": 93,
      "chip": "ym2612"
    },
    {
      "channel": 4,
      "note": 72,
      "start": 32.9295,
      "duration": 1.5069,
      "velocity": 108,
      "chip": "ym2612"
    },
    {
      "channel": 1,
      "note": 65,
      "start": 33.1564,
      "duration": 0.23,
      "velocity": 93,
      "chip": "ym2612"
    },
    {
      "channel": 1,
      "note": 65,
      "start": 33.3891,
      "duration": 0.2306,
      "velocity": 93,
      "chip": "ym2612"
    },
    {
      "channel": 1,
      "note": 63,
      "start": 33.6225,
      "duration": 0.1095,
      "velocity": 93,
      "chip": "ym2612"
    },
    {
      "channel": 1,
      "note": 63,
      "start": 33.7345,
      "duration": 0.2183,
      "velocity": 93,
      "chip": "ym2612"
    },
    {
      "channel": 1,
      "note": 65,
      "start": 33.9559,
      "duration": 0.4804,
      "velocity": 93,
      "chip": "ym2612"
    },
    {
      "channel": 1,
      "note": 65,
      "start": 34.4394,
      "duration": 0.1023,
      "velocity": 93,
      "chip": "ym2612"
    },
    {
      "channel": 4,
      "note": 72,
      "start": 34.4419,
      "duration": 0.0999,
      "velocity": 108,
      "chip": "ym2612"
    },
    {
      "channel": 1,
      "note": 65,
      "start": 34.5442,
      "duration": 0.2073,
      "velocity": 93,
      "chip": "ym2612"
    },
    {
      "channel": 4,
      "note": 70,
      "start": 34.5475,
      "duration": 0.2041,
      "velocity": 108,
      "chip": "ym2612"
    },
    {
      "channel": 1,
      "note": 66,
      "start": 34.7546,
      "duration": 0.4802,
      "velocity": 93,
      "chip": "ym2612"
    },
    {
      "channel": 4,
      "note": 68,
      "start": 34.7572,
      "duration": 0.4778,
      "velocity": 108,
      "chip": "ym2612"
    },
    {
      "channel": 1,
      "note": 66,
      "start": 35.2379,
      "duration": 0.1031,
      "velocity": 93,
      "chip": "ym2612"
    },
    {
      "channel": 4,
      "note": 70,
      "start": 35.2402,
      "duration": 0.3276,
      "velocity": 108,
      "chip": "ym2612"
    },
    {
      "channel": 1,
      "note": 66,
      "start": 35.3444,
      "duration": 0.2232,
      "velocity": 93,
      "chip": "ym2612"
    },
    {
      "channel": 1,
      "note": 60,
      "start": 35.5707,
      "duration": 0.5858,
      "velocity": 93,
      "chip": "ym2612"
    },
    {
      "channel": 4,
      "note": 72,
      "start": 35.5735,
      "duration": 3.209,
      "velocity": 108,
      "chip": "ym2612"
    },
    {
      "channel": 1,
      "note": 60,
      "start": 36.1591,
      "duration": 0.2081,
      "velocity": 93,
      "chip": "ym2612"
    },
    {
      "channel": 1,
      "note": 60,
      "start": 36.37,
      "duration": 0.2473,
      "velocity": 93,
      "chip": "ym2612"
    },
    {
      "channel": 1,
      "note": 60,
      "start": 36.62,
      "duration": 0.2306,
      "velocity": 93,
      "chip": "ym2612"
    },
    {
      "channel": 1,
      "note": 58,
      "start": 36.8534,
      "duration": 0.1037,
      "velocity": 93,
      "chip": "ym2612"
    },
    {
      "channel": 1,
      "note": 58,
      "start": 36.9595,
      "duration": 0.2248,
      "velocity": 93,
      "chip": "ym2612"
    },
    {
      "channel": 1,
      "note": 60,
      "start": 37.1873,
      "duration": 0.4636,
      "velocity": 93,
      "chip": "ym2612"
    },
    {
      "channel": 1,
      "note": 60,
      "start": 37.6545,
      "duration": 0.1086,
      "velocity": 93,
      "chip": "ym2612"
    },
    {
      "channel": 1,
      "note": 60,
      "start": 37.7656,
      "duration": 0.2182,
      "velocity": 93,
      "chip": "ym2612"
    },
    {
      "channel": 1,
      "note": 61,
      "start": 37.9868,
      "duration": 0.4804,
      "velocity": 93,
      "chip": "ym2612"
    },
    {
      "channel": 1,
      "note": 61,
      "start": 38.4702,
      "duration": 0.1015,
      "velocity": 93,
      "chip": "ym2612"
    },
    {
      "channel": 1,
      "note": 61,
      "start": 38.575,
      "duration": 0.2074,
      "velocity": 93,
      "chip": "ym2612"
    },
    {
      "channel": 1,
      "note": 60,
      "start": 38.7855,
      "duration": 0.5911,
      "velocity": 93,
      "chip": "ym2612"
    },
    {
      "channel": 1,
      "note": 60,
      "start": 39.3793,
      "duration": 0.2181,
      "velocity": 93,
      "chip": "ym2612"
    },
    {
      "channel": 1,
      "note": 60,
      "start": 39.6001,
      "duration": 0.2305,
      "velocity": 93,
      "chip": "ym2612"
    },
    {
      "channel": 1,
      "note": 60,
      "start": 39.8334,
      "duration": 0.2474,
      "velocity": 93,
      "chip": "ym2612"
    },
    {
      "channel": 1,
      "note": 58,
      "start": 40.0834,
      "duration": 0.1024,
      "velocity": 93,
      "chip": "ym2612"
    },
    {
      "channel": 1,
      "note": 58,
      "start": 40.1892,
      "duration": 0.2078,
      "velocity": 93,
      "chip": "ym2612"
    },
    {
      "channel": 1,
      "note": 60,
      "start": 40.4,
      "duration": 0.4803,
      "velocity": 93,
      "chip": "ym2612"
    },
    {
      "channel": 1,
      "note": 60,
      "start": 40.8833,
      "duration": 0.1055,
      "velocity": 93,
      "chip": "ym2612"
    },
    {
      "channel": 1,
      "note": 60,
      "start": 40.9912,
      "duration": 0.1109,
      "velocity": 93,
      "chip": "ym2612"
    },
    {
      "channel": 0,
      "note": 61,
      "start": 41.1045,
      "duration": 0.4292,
      "velocity": 104,
      "chip": "ym2612"
    },
    {
      "channel": 3,
      "note": 68,
      "start": 41.1067,
      "duration": 0.4271,
      "velocity": 104,
      "chip": "ym2612"
    },
    {
      "channel": 1,
      "note": 61,
      "start": 41.1089,
      "duration": 0.2062,
      "velocity": 93,
      "chip": "ym2612"
    },
    {
      "channel": 1,
      "note": 63,
      "start": 41.3175,
      "duration": 0.2163,
      "velocity": 93,
      "chip": "ym2612"
    },
    {
      "channel": 0,
      "note": 70,
      "start": 41.5368,
      "duration": 1.124,
      "velocity": 104,
      "chip": "ym2612"
    },
    {
      "channel": 3,
      "note": 77,
      "start": 41.5408,
      "duration": 1.1203,
      "velocity": 104,
      "chip": "ym2612"
    },
    {
      "channel": 1,
      "note": 70,
      "start": 41.5437,
      "duration": 0.4116,
      "velocity": 93,
      "chip": "ym2612"
    },
    {
      "channel": 4,
      "note": 73,
      "start": 41.5468,
      "duration": 0.304,
      "velocity": 111,
      "chip": "ym2612"
    },
    {
      "channel": 4,
      "note": 73,
      "start": 41.8544,
      "duration": 0.1009,
      "velocity": 111,
      "chip": "ym2612"
    },
    {
      "channel": 1,
      "note": 70,
      "start": 41.9589,
      "duration": 0.196,
      "velocity": 93,
      "chip": "ym2612"
    },
    {
      "channel": 4,
      "note": 72,
      "start": 41.9608,
      "duration": 0.1943,
      "velocity": 111,
      "chip": "ym2612"
    },
    {
      "channel": 1,
      "note": 70,
      "start": 42.1577,
      "duration": 0.1022,
      "velocity": 93,
      "chip": "ym2612"
    },
    {
      "channel": 4,
      "note": 70,
      "start": 42.1602,
      "duration": 0.2031,
      "velocity": 111,
      "chip": "ym2612"
    },
    {
      "channel": 1,
      "note": 70,
      "start": 42.2633,
      "duration": 0.0999,
      "velocity": 93,
      "chip": "ym2612"
    },
    {
      "channel": 1,
      "note": 70,
      "start": 42.3656,
      "duration": 0.1081,
      "velocity": 93,
      "chip": "ym2612"
    },
    {
      "channel": 4,
      "note": 72,
      "start": 42.3679,
      "duration": 0.106,
      "velocity": 111,
      "chip": "ym2612"
    },
    {
      "channel": 1,
      "note": 70,
      "start": 42.4761,
      "duration": 0.1849,
      "velocity": 93,
      "chip": "ym2612"
    },
    {
      "channel": 4,
      "note": 73,
      "start": 42.4783,
      "duration": 0.1829,
      "velocity": 111,
      "chip": "ym2612"
    },
    {
      "channel": 0,
      "note": 66,
      "start": 42.6639,
      "duration": 0.4335,
      "velocity": 104,
      "chip": "ym2612"
    },
    {
      "channel": 3,
      "note": 73,
      "start": 42.6664,
      "duration": 0.4312,
      "velocity": 104,
      "chip": "ym2612"
    },
    {
      "channel": 1,
      "note": 66,
      "start": 42.6688,
      "duration": 0.3236,
      "velocity": 93,
      "chip": "ym2612"
    },
    {
      "channel": 4,
      "note": 75,
      "start": 42.6713,
      "duration": 0.4263,
      "velocity": 111,
      "chip": "ym2612"
    },
    {
      "channel": 1,
      "note": 66,
      "start": 42.9955,
      "duration": 0.102,
      "velocity": 93,
      "chip": "ym2612"
    },
    {
      "channel": 0,
      "note": 68,
      "start": 43.1008,
      "duration": 0.6954,
      "velocity": 104,
      "chip": "ym2612"
    },
    {
      "channel": 3,
      "note": 75,
      "start": 43.1031,
      "duration": 0.6934,
      "velocity": 104,
      "chip": "ym2612"
    },
    {
      "channel": 1,
      "note": 68,
      "start": 43.1053,
      "duration": 0.3924,
      "velocity": 93,
      "chip": "ym2612"
    },
    {
      "channel": 4,
      "note": 72,
      "start": 43.1074,
      "duration": 0.3903,
      "velocity": 111,
      "chip": "ym2612"
    },
    {
      "channel": 1,
      "note": 68,
      "start": 43.5004,
      "duration": 0.1031,
      "velocity": 93,
      "chip": "ym2612"
    },
    {
      "channel": 4,
      "note": 73,
      "start": 43.5027,
      "duration": 0.101,
      "velocity": 111,
      "chip": "ym2612"
    },
    {
      "channel": 1,
      "note": 68,
      "start": 43.606,
      "duration": 0.1903,
      "velocity": 93,
      "chip": "ym2612"
    },
    {
      "channel": 4,
      "note": 72,
      "start": 43.6082,
      "duration": 0.1884,
      "velocity": 111,
      "chip": "ym2612"
    },
    {
      "channel": 0,
      "note": 70,
      "start": 43.7995,
      "duration": 1.1342,
      "velocity": 104,
      "chip": "ym2612"
    },
    {
      "channel": 3,
      "note": 77,
      "start": 43.8023,
      "duration": 1.1317,
      "velocity": 104,
      "chip": "ym2612"
    },
    {
      "channel": 1,
      "note": 70,
      "start": 43.8047,
      "duration": 0.427,
      "velocity": 93,
      "chip": "ym2612"
    },
    {
      "channel": 4,
      "note": 73,
      "start": 43.8073,
      "duration": 0.3193,
      "velocity": 111,
      "chip": "ym2612"
    },
    {
      "channel": 4,
      "note": 73,
      "start": 44.1297,
      "duration": 0.1022,
      "velocity": 111,
      "chip": "ym2612"
    },
    {
      "channel": 1,
      "note": 70,
      "start": 44.2353,
      "duration": 0.18,
      "velocity": 93,
      "chip": "ym2612"
    },
    {
      "channel": 4,
      "note": 72,
      "start": 44.2372,
      "duration": 0.1783,
      "velocity": 111,
      "chip": "ym2612"
    },
    {
      "channel": 1,
      "note": 70,
      "start": 44.4181,
      "duration": 0.1108,
      "velocity": 93,
      "chip": "ym2612"
    },
    {
      "channel": 4,
      "note": 73,
      "start": 44.4203,
      "duration": 0.1087,
      "velocity": 111,
      "chip": "ym2612"
    },
    {
      "channel": 1,
      "note": 70,
      "start": 44.5314,
      "duration": 0.1017,
      "velocity": 93,
      "chip": "ym2612"
    },
    {
      "channel": 4,
      "note": 72,
      "start": 44.5341,
      "duration": 0.0992,
      "velocity": 111,
      "chip": "ym2612"
    },
    {
      "channel": 1,
      "note": 70,
      "start": 44.6356,
      "duration": 0.1017,
      "velocity": 93,
      "chip": "ym2612"
    },
    {
      "channel": 4,
      "note": 70,
      "start": 44.6378,
      "duration": 0.0996,
      "velocity": 111,
      "chip": "ym2612"
    },
    {
      "channel": 1,
      "note": 70,
      "start": 44.7397,
      "duration": 0.1941,
      "velocity": 93,
      "chip": "ym2612"
    },
    {
      "channel": 4,
      "note": 65,
      "start": 44.7418,
      "duration": 0.1923,
      "velocity": 111,
      "chip": "ym2612"
    },
    {
      "channel": 0,
      "note": 66,
      "start": 44.9368,
      "duration": 0.4235,
      "velocity": 104,
      "chip": "ym2612"
    },
    {
      "channel": 3,
      "note": 73,
      "start": 44.9393,
      "duration": 0.4211,
      "velocity": 104,
      "chip": "ym2612"
    },
    {
      "channel": 1,
      "note": 66,
      "start": 44.9422,
      "duration": 0.3071,
      "velocity": 93,
      "chip": "ym2612"
    },
    {
      "channel": 4,
      "note": 75,
      "start": 44.9447,
      "duration": 0.4157,
      "velocity": 111,
      "chip": "ym2612"
    },
    {
      "channel": 1,
      "note": 66,
      "start": 45.2524,
      "duration": 0.1079,
      "velocity": 93,
      "chip": "ym2612"
    },
    {
      "channel": 0,
      "note": 68,
      "start": 45.3626,
      "duration": 0.7024,
      "velocity": 104,
      "chip": "ym2612"
    },
    {
      "channel": 3,
      "note": 75,
      "start": 45.3649,
      "duration": 0.7004,
      "velocity": 104,
      "chip": "ym2612"
    },
    {
      "channel": 1,
      "note": 68,
      "start": 45.3681,
      "duration": 0.4003,
      "velocity": 93,
      "chip": "ym2612"
    },
    {
      "channel": 4,
      "note": 72,
      "start": 45.3711,
      "duration": 0.3975,
      "velocity": 111,
      "chip": "ym2612"
    },
    {
      "channel": 1,
      "note": 68,
      "start": 45.7712,
      "duration": 0.1008,
      "velocity": 93,
      "chip": "ym2612"
    },
    {
      "channel": 4,
      "note": 73,
      "start": 45.7735,
      "duration": 0.0987,
      "velocity": 111,
      "chip": "ym2612"
    },
    {
      "channel": 1,
      "note": 68,
      "start": 45.8746,
      "duration": 0.1906,
      "velocity": 93,
      "chip": "ym2612"
    },
    {
      "channel": 4,
      "note": 72,
      "start": 45.8767,
      "duration": 0.1888,
      "velocity": 111,
      "chip": "ym2612"
    },
    {
      "channel": 0,
      "note": 65,
      "start": 46.0684,
      "duration": 1.1147,
      "velocity": 104,
      "chip": "ym2612"
    },
    {
      "channel": 3,
      "note": 72,
      "start": 46.0712,
      "duration": 1.1122,
      "velocity": 104,
      "chip": "ym2612"
    },
    {
      "channel": 1,
      "note": 65,
      "start": 46.0737,
      "duration": 0.4188,
      "velocity": 93,
      "chip": "ym2612"
    },
    {
      "channel": 4,
      "note": 72,
      "start": 46.0761,
      "duration": 0.3048,
      "velocity": 111,
      "chip": "ym2612"
    },
    {
      "channel": 4,
      "note": 72,
      "start": 46.3841,
      "duration": 0.1085,
      "velocity": 111,
      "chip": "ym2612"
    },
    {
      "channel": 1,
      "note": 65,
      "start": 46.4952,
      "duration": 0.1904,
      "velocity": 93,
      "chip": "ym2612"
    },
    {
      "channel": 4,
      "note": 72,
      "start": 46.4972,
      "duration": 0.1885,
      "velocity": 111,
      "chip": "ym2612"
    },
    {
      "channel": 1,
      "note": 65,
      "start": 46.6884,
      "duration": 0.1027,
      "velocity": 93,
      "chip": "ym2612"
    },
    {
      "channel": 4,
      "note": 72,
      "start": 46.6909,
      "duration": 0.2102,
      "velocity": 111,
      "chip": "ym2612"
    },
    {
      "channel": 1,
      "note": 65,
      "start": 46.7945,
      "duration": 0.1064,
      "velocity": 93,
      "chip": "ym2612"
    },
    {
      "channel": 1,
      "note": 65,
      "start": 46.9043,
      "duration": 0.1009,
      "velocity": 93,
      "chip": "ym2612"
    },
    {
      "channel": 4,
      "note": 70,
      "start": 46.9067,
      "duration": 0.0987,
      "velocity": 111,
      "chip": "ym2612"
    },
    {
      "channel": 1,
      "note": 65,
      "start": 47.0078,
      "duration": 0.1754,
      "velocity": 93,
      "chip": "ym2612"
    },
    {
      "channel": 4,
      "note": 68,
      "start": 47.0098,
      "duration": 0.1737,
      "velocity": 111,
      "chip": "ym2612"
    },
    {
      "channel": 0,
      "note": 63,
      "start": 47.1861,
      "duration": 0.4338,
      "velocity": 104,
      "chip": "ym2612"
    },
    {
      "channel": 3,
      "note": 70,
      "start": 47.1886,
      "duration": 0.4315,
      "velocity": 104,
      "chip": "ym2612"
    },
    {
      "channel": 1,
      "note": 63,
      "start": 47.1911,
      "duration": 0.4289,
      "velocity": 93,
      "chip": "ym2612"
    },
    {
      "channel": 4,
      "note": 70,
      "start": 47.1936,
      "duration": 0.3217,
      "velocity": 111,
      "chip": "ym2612"
    },
    {
      "channel": 4,
      "note": 70,
      "start": 47.5184,
      "duration": 0.1018,
      "velocity": 111,
      "chip": "ym2612"
    },
    {
      "channel": 0,
      "note": 66,
      "start": 47.624,
      "duration": 0.6924,
      "velocity": 104,
      "chip": "ym2612"
    },
    {
      "channel": 3,
      "note": 73,
      "start": 47.6262,
      "duration": 0.6905,
      "velocity": 104,
      "chip": "ym2612"
    },
    {
      "channel": 1,
      "note": 66,
      "start": 47.6281,
      "duration": 0.4077,
      "velocity": 93,
      "chip": "ym2612"
    },
    {
      "channel": 4,
      "note": 73,
      "start": 47.6315,
      "duration": 0.4044,
      "velocity": 111,
      "chip": "ym2612"
    },
    {
      "channel": 1,
      "note": 66,
      "start": 48.0384,
      "duration": 0.1021,
      "velocity": 93,
      "chip": "ym2612"
    },
    {
      "channel": 4,
      "note": 73,
      "start": 48.0408,
      "duration": 0.0998,
      "velocity": 111,
      "chip": "ym2612"
    },
    {
      "channel": 1,
      "note": 66,
      "start": 48.143,
      "duration": 0.1736,
      "velocity": 93,
      "chip": "ym2612"
    },
    {
      "channel": 4,
      "note": 75,
      "start": 48.1451,
      "duration": 0.1718,
      "velocity": 111,
      "chip": "ym2612"
    },
    {
      "channel": 0,
      "note": 65,
      "start": 48.3198,
      "duration": 1.1395,
      "velocity": 104,
      "chip": "ym2612"
    },
    {
      "channel": 3,
      "note": 72,
      "start": 48.3231,
      "duration": 1.1364,
      "velocity": 104,
      "chip": "ym2612"
    },
    {
      "channel": 1,
      "note": 65,
      "start": 48.3261,
      "duration": 0.4267,
      "velocity": 93,
      "chip": "ym2612"
    },
    {
      "channel": 4,
      "note": 72,
      "start": 48.3291,
      "duration": 0.3191,
      "velocity": 111,
      "chip": "ym2612"
    },
    {
      "channel": 4,
      "note": 72,
      "start": 48.6513,
      "duration": 0.1015,
      "velocity": 111,
      "chip": "ym2612"
    },
    {
      "channel": 1,
      "note": 65,
      "start": 48.7563,
      "duration": 0.1967,
      "velocity": 93,
      "chip": "ym2612"
    },
    {
      "channel": 4,
      "note": 70,
      "start": 48.7583,
      "duration": 0.1949,
      "velocity": 111,
      "chip": "ym2612"
    },
    {
      "channel": 1,
      "note": 65,
      "start": 48.9559,
      "duration": 0.1022,
      "velocity": 93,
      "chip": "ym2612"
    },
    {
      "channel": 4,
      "note": 72,
      "start": 48.9584,
      "duration": 0.2031,
      "velocity": 111,
      "chip": "ym2612"
    },
    {
      "channel": 1,
      "note": 65,
      "start": 49.0615,
      "duration": 0.0999,
      "velocity": 93,
      "chip": "ym2612"
    },
    {
      "channel": 1,
      "note": 65,
      "start": 49.1639,
      "duration": 0.1083,
      "velocity": 93,
      "chip": "ym2612"
    },
    {
      "channel": 4,
      "note": 72,
      "start": 49.1661,
      "duration": 0.1061,
      "velocity": 111,
      "chip": "ym2612"
    },
    {
      "channel": 1,
      "note": 65,
      "start": 49.2745,
      "duration": 0.1849,
      "velocity": 93,
      "chip": "ym2612"
    },
    {
      "channel": 4,
      "note": 72,
      "start": 49.2767,
      "duration": 0.1829,
      "velocity": 111,
      "chip": "ym2612"
    },
    {
      "channel": 0,
      "note": 63,
      "start": 49.4623,
      "duration": 0.4339,
      "velocity": 104,
      "chip": "ym2612"
    },
    {
      "channel": 3,
      "note": 70,
      "start": 49.4648,
      "duration": 0.4316,
      "velocity": 104,
      "chip": "ym2612"
    },
    {
      "channel": 1,
      "note": 63,
      "start": 49.4669,
      "duration": 0.1006,
      "velocity": 93,
      "chip": "ym2612"
    },
    {
      "channel": 4,
      "note": 70,
      "start": 49.4695,
      "duration": 0.4269,
      "velocity": 111,
      "chip": "ym2612"
    },
    {
      "channel": 1,
      "note": 63,
      "start": 49.57,
      "duration": 0.2209,
      "velocity": 93,
      "chip": "ym2612"
    },
    {
      "channel": 1,
      "note": 63,
      "start": 49.7936,
      "duration": 0.1027,
      "velocity": 93,
      "chip": "ym2612"
    },
    {
      "channel": 0,
      "note": 65,
      "start": 49.8987,
      "duration": 0.3989,
      "velocity": 104,
      "chip": "ym2612"
    },
    {
      "channel": 3,
      "note": 72,
      "start": 49.9008,
      "duration": 0.397,
      "velocity": 104,
      "chip": "ym2612"
    },
    {
      "channel": 1,
      "note": 65,
      "start": 49.9027,
      "duration": 0.1768,
      "velocity": 93,
      "chip": "ym2612"
    },
    {
      "channel": 4,
      "note": 72,
      "start": 49.9048,
      "duration": 0.3931,
      "velocity": 111,
      "chip": "ym2612"
    },
    {
      "channel": 1,
      "note": 65,
      "start": 50.0821,
      "duration": 0.1081,
      "velocity": 93,
      "chip": "ym2612"
    },
    {
      "channel": 1,
      "note": 65,
      "start": 50.1928,
      "duration": 0.1049,
      "velocity": 93,
      "chip": "ym2612"
    },
    {
      "channel": 0,
      "note": 68,
      "start": 50.3,
      "duration": 0.2906,
      "velocity": 104,
      "chip": "ym2612"
    },
    {
      "channel": 3,
      "note": 75,
      "start": 50.3024,
      "duration": 0.2885,
      "velocity": 104,
      "chip": "ym2612"
    },
    {
      "channel": 1,
      "note": 68,
      "start": 50.3042,
      "duration": 0.1045,
      "velocity": 93,
      "chip": "ym2612"
    },
    {
      "channel": 4,
      "note": 75,
      "start": 50.3077,
      "duration": 0.2833,
      "velocity": 111,
      "chip": "ym2612"
    },
    {
      "channel": 1,
      "note": 68,
      "start": 50.4121,
      "duration": 0.1786,
      "velocity": 93,
      "chip": "ym2612"
    },
    {
      "channel": 0,
      "note": 70,
      "start": 50.594,
      "duration": 1.1287,
      "velocity": 104,
      "chip": "ym2612"
    },
    {
      "channel": 3,
      "note": 77,
      "start": 50.5968,
      "duration": 1.1262,
      "velocity": 104,
      "chip": "ym2612"
    },
    {
      "channel": 1,
      "note": 70,
      "start": 50.5992,
      "duration": 0.4278,
      "velocity": 93,
      "chip": "ym2612"
    },
    {
      "channel": 4,
      "note": 73,
      "start": 50.6015,
      "duration": 0.3208,
      "velocity": 111,
      "chip": "ym2612"
    },
    {
      "channel": 4,
      "note": 73,
      "start": 50.9254,
      "duration": 0.1017,
      "velocity": 111,
      "chip": "ym2612"
    },
    {
      "channel": 1,
      "note": 70,
      "start": 51.0306,
      "duration": 0.1799,
      "velocity": 93,
      "chip": "ym2612"
    },
    {
      "channel": 4,
      "note": 72,
      "start": 51.0326,
      "duration": 0.1781,
      "velocity": 111,
      "chip": "ym2612"
    },
    {
      "channel": 1,
      "note": 70,
      "start": 51.2133,
      "duration": 0.1105,
      "velocity": 93,
      "chip": "ym2612"
    },
    {
      "channel": 4,
      "note": 70,
      "start": 51.2158,
      "duration": 0.2095,
      "velocity": 111,
      "chip": "ym2612"
    },
    {
      "channel": 1,
      "note": 70,
      "start": 51.3262,
      "duration": 0.099,
      "velocity": 93,
      "chip": "ym2612"
    },
    {
      "channel": 1,
      "note": 70,
      "start": 51.4277,
      "duration": 0.1012,
      "velocity": 93,
      "chip": "ym2612"
    },
    {
      "channel": 4,
      "note": 72,
      "start": 51.431,
      "duration": 0.0981,
      "velocity": 111,
      "chip": "ym2612"
    },
    {
      "channel": 1,
      "note": 70,
      "start": 51.5314,
      "duration": 0.1914,
      "velocity": 93,
      "chip": "ym2612"
    },
    {
      "channel": 4,
      "note": 73,
      "start": 51.534,
      "duration": 0.1891,
      "velocity": 111,
      "chip": "ym2612"
    },
    {
      "channel": 0,
      "note": 66,
      "start": 51.7258,
      "duration": 0.4232,
      "velocity": 104,
      "chip": "ym2612"
    },
    {
      "channel": 3,
      "note": 73,
      "start": 51.7283,
      "duration": 0.4209,
      "velocity": 104,
      "chip": "ym2612"
    },
    {
      "channel": 1,
      "note": 66,
      "start": 51.7307,
      "duration": 0.3064,
      "velocity": 93,
      "chip": "ym2612"
    },
    {
      "channel": 4,
      "note": 75,
      "start": 51.7332,
      "duration": 0.416,
      "velocity": 111,
      "chip": "ym2612"
    },
    {
      "channel": 1,
      "note": 66,
      "start": 52.0406,
      "duration": 0.1084,
      "velocity": 93,
      "chip": "ym2612"
    },
    {
      "channel": 0,
      "note": 68,
      "start": 52.1514,
      "duration": 0.7042,
      "velocity": 104,
      "chip": "ym2612"
    },
    {
      "channel": 3,
      "note": 75,
      "start": 52.1537,
      "duration": 0.7021,
      "velocity": 104,
      "chip": "ym2612"
    },
    {
      "channel": 1,
      "note": 68,
      "start": 52.1559,
      "duration": 0.4027,
      "velocity": 93,
      "chip": "ym2612"
    },
    {
      "channel": 4,
      "note": 72,
      "start": 52.1592,
      "duration": 0.3995,
      "velocity": 111,
      "chip": "ym2612"
    },
    {
      "channel": 1,
      "note": 68,
      "start": 52.5614,
      "duration": 0.1012,
      "velocity": 93,
      "chip": "ym2612"
    },
    {
      "channel": 4,
      "note": 73,
      "start": 52.5637,
      "duration": 0.099,
      "velocity": 111,
      "chip": "ym2612"
    },
    {
      "channel": 1,
      "note": 68,
      "start": 52.6651,
      "duration": 0.1906,
      "velocity": 93,
      "chip": "ym2612"
    },
    {
      "channel": 4,
      "note": 72,
      "start": 52.6671,
      "duration": 0.1889,
      "velocity": 111,
      "chip": "ym2612"
    },
    {
      "channel": 0,
      "note": 70,
      "start": 52.8589,
      "duration": 1.1149,
      "velocity": 104,
      "chip": "ym2612"
    },
    {
      "channel": 3,
      "note": 77,
      "start": 52.8617,
      "duration": 1.1124,
      "velocity": 104,
      "chip": "ym2612"
    },
    {
      "channel": 1,
      "note": 70,
      "start": 52.8641,
      "duration": 0.4181,
      "velocity": 93,
      "chip": "ym2612"
    },
    {
      "channel": 4,
      "note": 73,
      "start": 52.8667,
      "duration": 0.3042,
      "velocity": 111,
      "chip": "ym2612"
    },
    {
      "channel": 4,
      "note": 73,
      "start": 53.174,
      "duration": 0.1085,
      "velocity": 111,
      "chip": "ym2612"
    },
    {
      "channel": 1,
      "note": 70,
      "start": 53.2851,
      "duration": 0.1903,
      "velocity": 93,
      "chip": "ym2612"
    },
    {
      "channel": 4,
      "note": 72,
      "start": 53.2871,
      "duration": 0.1884,
      "velocity": 111,
      "chip": "ym2612"
    },
    {
      "channel": 1,
      "note": 70,
      "start": 53.4782,
      "duration": 0.1035,
      "velocity": 93,
      "chip": "ym2612"
    },
    {
      "channel": 4,
      "note": 73,
      "start": 53.4804,
      "duration": 0.1014,
      "velocity": 111,
      "chip": "ym2612"
    },
    {
      "channel": 1,
      "note": 70,
      "start": 53.5851,
      "duration": 0.1076,
      "velocity": 93,
      "chip": "ym2612"
    },
    {
      "channel": 4,
      "note": 72,
      "start": 53.588,
      "duration": 0.1049,
      "velocity": 111,
      "chip": "ym2612"
    },
    {
      "channel": 1,
      "note": 70,
      "start": 53.6952,
      "duration": 0.101,
      "velocity": 93,
      "chip": "ym2612"
    },
    {
      "channel": 4,
      "note": 70,
      "start": 53.6982,
      "duration": 0.0981,
      "velocity": 111,
      "chip": "ym2612"
    },
    {
      "channel": 1,
      "note": 70,
      "start": 53.7986,
      "duration": 0.1754,
      "velocity": 93,
      "chip": "ym2612"
    },
    {
      "channel": 4,
      "note": 65,
      "start": 53.8005,
      "duration": 0.1737,
      "velocity": 111,
      "chip": "ym2612"
    },
    {
      "channel": 0,
      "note": 66,
      "start": 53.9769,
      "duration": 0.4331,
      "velocity": 104,
      "chip": "ym2612"
    },
    {
      "channel": 3,
      "note": 73,
      "start": 53.9794,
      "duration": 0.4308,
      "velocity": 104,
      "chip": "ym2612"
    },
    {
      "channel": 1,
      "note": 66,
      "start": 53.9819,
      "duration": 0.3235,
      "velocity": 93,
      "chip": "ym2612"
    },
    {
      "channel": 4,
      "note": 75,
      "start": 53.9844,
      "duration": 0.4259,
      "velocity": 111,
      "chip": "ym2612"
    },
    {
      "channel": 1,
      "note": 66,
      "start": 54.3085,
      "duration": 0.1017,
      "velocity": 93,
      "chip": "ym2612"
    },
    {
      "channel": 0,
      "note": 68,
      "start": 54.4143,
      "duration": 0.6924,
      "velocity": 104,
      "chip": "ym2612"
    },
    {
      "channel": 3,
      "note": 75,
      "start": 54.4164,
      "duration": 0.6907,
      "velocity": 104,
      "chip": "ym2612"
    },
    {
      "channel": 1,
      "note": 68,
      "start": 54.4186,
      "duration": 0.4078,
      "velocity": 93,
      "chip": "ym2612"
    },
    {
      "channel": 4,
      "note": 72,
      "start": 54.4217,
      "duration": 0.4048,
      "velocity": 111,
      "chip": "ym2612"
    },
    {
      "channel": 1,
      "note": 68,
      "start": 54.8289,
      "duration": 0.1014,
      "velocity": 93,
      "chip": "ym2612"
    },
    {
      "channel": 4,
      "note": 73,
      "start": 54.8322,
      "duration": 0.0982,
      "velocity": 111,
      "chip": "ym2612"
    },
    {
      "channel": 1,
      "note": 68,
      "start": 54.9328,
      "duration": 0.1741,
      "velocity": 93,
      "chip": "ym2612"
    },
    {
      "channel": 4,
      "note": 72,
      "start": 54.9348,
      "duration": 0.1723,
      "velocity": 111,
      "chip": "ym2612"
    },
    {
      "channel": 0,
      "note": 65,
      "start": 55.1101,
      "duration": 1.1384,
      "velocity": 104,
      "chip": "ym2612"
    },
    {
      "channel": 3,
      "note": 72,
      "start": 55.1134,
      "duration": 1.1353,
      "velocity": 104,
      "chip": "ym2612"
    },
    {
      "channel": 1,
      "note": 65,
      "start": 55.1164,
      "duration": 0.4272,
      "velocity": 93,
      "chip": "ym2612"
    },
    {
      "channel": 4,
      "note": 72,
      "start": 55.1189,
      "duration": 0.3198,
      "velocity": 111,
      "chip": "ym2612"
    },
    {
      "channel": 4,
      "note": 72,
      "start": 55.4423,
      "duration": 0.1014,
      "velocity": 111,
      "chip": "ym2612"
    },
    {
      "channel": 1,
      "note": 65,
      "start": 55.5472,
      "duration": 0.1961,
      "velocity": 93,
      "chip": "ym2612"
    },
    {
      "channel": 4,
      "note": 72,
      "start": 55.5491,
      "duration": 0.1944,
      "velocity": 111,
      "chip": "ym2612"
    },
    {
      "channel": 1,
      "note": 65,
      "start": 55.7461,
      "duration": 0.1022,
      "velocity": 93,
      "chip": "ym2612"
    },
    {
      "channel": 4,
      "note": 72,
      "start": 55.7486,
      "duration": 0.2029,
      "velocity": 111,
      "chip": "ym2612"
    },
    {
      "channel": 1,
      "note": 65,
      "start": 55.8516,
      "duration": 0.0998,
      "velocity": 93,
      "chip": "ym2612"
    },
    {
      "channel": 1,
      "note": 65,
      "start": 55.9538,
      "duration": 0.1074,
      "velocity": 93,
      "chip": "ym2612"
    },
    {
      "channel": 4,
      "note": 70,
      "start": 55.9561,
      "duration": 0.1052,
      "velocity": 111,
      "chip": "ym2612"
    },
    {
      "channel": 1,
      "note": 65,
      "start": 56.0636,
      "duration": 0.185,
      "velocity": 93,
      "chip": "ym2612"
    },
    {
      "channel": 4,
      "note": 68,
      "start": 56.0658,
      "duration": 0.183,
      "velocity": 111,
      "chip": "ym2612"
    },
    {
      "channel": 0,
      "note": 63,
      "start": 56.2515,
      "duration": 0.4338,
      "velocity": 104,
      "chip": "ym2612"
    },
    {
      "channel": 3,
      "note": 70,
      "start": 56.254,
      "duration": 0.4315,
      "velocity": 104,
      "chip": "ym2612"
    },
    {
      "channel": 1,
      "note": 63,
      "start": 56.2564,
      "duration": 0.429,
      "velocity": 93,
      "chip": "ym2612"
    },
    {
      "channel": 4,
      "note": 70,
      "start": 56.259,
      "duration": 0.322,
      "velocity": 111,
      "chip": "ym2612"
    },
    {
      "channel": 4,
      "note": 70,
      "start": 56.5841,
      "duration": 0.1015,
      "velocity": 111,
      "chip": "ym2612"
    },
    {
      "channel": 0,
      "note": 66,
      "start": 56.6888,
      "duration": 0.704,
      "velocity": 104,
      "chip": "ym2612"
    },
    {
      "channel": 3,
      "note": 73,
      "start": 56.691,
      "duration": 0.702,
      "velocity": 104,
      "chip": "ym2612"
    },
    {
      "channel": 1,
      "note": 66,
      "start": 56.693,
      "duration": 0.4021,
      "velocity": 93,
      "chip": "ym2612"
    },
    {
      "channel": 4,
      "note": 73,
      "start": 56.6954,
      "duration": 0.3999,
      "velocity": 111,
      "chip": "ym2612"
    },
    {
      "channel": 1,
      "note": 66,
      "start": 57.0978,
      "duration": 0.1072,
      "velocity": 93,
      "chip": "ym2612"
    },
    {
      "channel": 4,
      "note": 73,
      "start": 57.1002,
      "duration": 0.1049,
      "velocity": 111,
      "chip": "ym2612"
    },
    {
      "channel": 1,
      "note": 66,
      "start": 57.2074,
      "duration": 0.1854,
      "velocity": 93,
      "chip": "ym2612"
    },
    {
      "channel": 4,
      "note": 75,
      "start": 57.2097,
      "duration": 0.1834,
      "velocity": 111,
      "chip": "ym2612"
    },
    {
      "channel": 0,
      "note": 65,
      "start": 57.3961,
      "duration": 1.1307,
      "velocity": 104,
      "chip": "ym2612"
    },
    {
      "channel": 3,
      "note": 72,
      "start": 57.3988,
      "duration": 1.1283,
      "velocity": 104,
      "chip": "ym2612"
    },
    {
      "channel": 1,
      "note": 65,
      "start": 57.4013,
      "duration": 0.4288,
      "velocity": 93,
      "chip": "ym2612"
    },
    {
      "channel": 4,
      "note": 72,
      "start": 57.4038,
      "duration": 0.3211,
      "velocity": 111,
      "chip": "ym2612"
    },
    {
      "channel": 4,
      "note": 72,
      "start": 57.728,
      "duration": 0.1022,
      "velocity": 111,
      "chip": "ym2612"
    },
    {
      "channel": 1,
      "note": 65,
      "start": 57.8337,
      "duration": 0.18,
      "velocity": 93,
      "chip": "ym2612"
    },
    {
      "channel": 4,
      "note": 70,
      "start": 57.8357,
      "duration": 0.1783,
      "velocity": 111,
      "chip": "ym2612"
    },
    {
      "channel": 1,
      "note": 65,
      "start": 58.0165,
      "duration": 0.1111,
      "velocity": 93,
      "chip": "ym2612"
    },
    {
      "channel": 4,
      "note": 72,
      "start": 58.0196,
      "duration": 0.2097,
      "velocity": 111,
      "chip": "ym2612"
    },
    {
      "channel": 1,
      "note": 65,
      "start": 58.1299,
      "duration": 0.0992,
      "velocity": 93,
      "chip": "ym2612"
    },
    {
      "channel": 1,
      "note": 65,
      "start": 58.2316,
      "duration": 0.1014,
      "velocity": 93,
      "chip": "ym2612"
    },
    {
      "channel": 4,
      "note": 72,
      "start": 58.2339,
      "duration": 0.0992,
      "velocity": 111,
      "chip": "ym2612"
    },
    {
      "channel": 1,
      "note": 65,
      "start": 58.3356,
      "duration": 0.1915,
      "velocity": 93,
      "chip": "ym2612"
    },
    {
      "channel": 4,
      "note": 72,
      "start": 58.3377,
      "duration": 0.1896,
      "velocity": 111,
      "chip": "ym2612"
    },
    {
      "channel": 1,
      "note": 63,
      "start": 58.5299,
      "duration": 0.1021,
      "velocity": 93,
      "chip": "ym2612"
    },
    {
      "channel": 4,
      "note": 70,
      "start": 58.5324,
      "duration": 0.421,
      "velocity": 111,
      "chip": "ym2612"
    },
    {
      "channel": 1,
      "note": 63,
      "start": 58.6354,
      "duration": 0.2067,
      "velocity": 93,
      "chip": "ym2612"
    },
    {
      "channel": 1,
      "note": 63,
      "start": 58.8448,
      "duration": 0.1084,
      "velocity": 93,
      "chip": "ym2612"
    },
    {
      "channel": 1,
      "note": 65,
      "start": 58.9557,
      "duration": 0.1906,
      "velocity": 93,
      "chip": "ym2612"
    },
    {
      "channel": 4,
      "note": 72,
      "start": 58.9578,
      "duration": 0.407,
      "velocity": 111,
      "chip": "ym2612"
    },
    {
      "channel": 1,
      "note": 65,
      "start": 59.149,
      "duration": 0.1095,
      "velocity": 93,
      "chip": "ym2612"
    },
    {
      "channel": 1,
      "note": 65,
      "start": 59.2615,
      "duration": 0.1031,
      "velocity": 93,
      "chip": "ym2612"
    },
    {
      "channel": 1,
      "note": 68,
      "start": 59.367,
      "duration": 0.0997,
      "velocity": 93,
      "chip": "ym2612"
    },
    {
      "channel": 4,
      "note": 75,
      "start": 59.3693,
      "duration": 0.2915,
      "velocity": 111,
      "chip": "ym2612"
    },
    {
      "channel": 1,
      "note": 68,
      "start": 59.4692,
      "duration": 0.1915,
      "velocity": 93,
      "chip": "ym2612"
    }
  ]
}