{
  "track_name": "09 - Level 7- The Fountain Mountain",
  "duration_sec": 47.077,
  "sample_rate": 44100,
  "note_count": 1537,
  "unique_pitches": 30,
  "pitch_range": 60,
  "avg_note_duration": 0.1169,
  "reconstruction_stats": {
    "notes_reconstructed": 1537,
    "keyon_events": 1537,
    "keyoff_events": 1534,
    "orphan_keyons": 3,
    "unique_pitches": 30,
    "pitch_range": 60,
    "avg_duration_sec": 0.1169
  },
  "metadata": {
    "source": "S\\Snake Rattle 'n' Roll\\09 - Level 7- The Fountain Mountain.vgz"
  },
  "notes": [
    {
      "channel": 0,
      "note": 73,
      "start": 0.0022,
      "duration": 0.0968,
      "velocity": 117,
      "chip": "ym2612"
    },
    {
      "channel": 1,
      "note": 68,
      "start": 0.0051,
      "duration": 0.0941,
      "velocity": 127,
      "chip": "ym2612"
    },
    {
      "channel": 2,
      "note": 27,
      "start": 0.0078,
      "duration": 0.0916,
      "velocity": 93,
      "chip": "ym2612"
    },
    {
      "channel": 3,
      "note": 70,
      "start": 0.0107,
      "duration": 0.0888,
      "velocity": 117,
      "chip": "ym2612"
    },
    {
      "channel": 4,
      "note": 78,
      "start": 0.0136,
      "duration": 0.0861,
      "velocity": 117,
      "chip": "ym2612"
    },
    {
      "channel": 5,
      "note": 30,
      "start": 0.0164,
      "duration": 0.3634,
      "velocity": 110,
      "chip": "ym2612"
    },
    {
      "channel": 0,
      "note": 73,
      "start": 0.141,
      "duration": 0.098,
      "velocity": 117,
      "chip": "ym2612"
    },
    {
      "channel": 1,
      "note": 68,
      "start": 0.1432,
      "duration": 0.096,
      "velocity": 127,
      "chip": "ym2612"
    },
    {
      "channel": 2,
      "note": 49,
      "start": 0.1458,
      "duration": 0.0936,
      "velocity": 123,
      "chip": "ym2612"
    },
    {
      "channel": 3,
      "note": 70,
      "start": 0.1479,
      "duration": 0.0916,
      "velocity": 117,
      "chip": "ym2612"
    },
    {
      "channel": 4,
      "note": 78,
      "start": 0.1502,
      "duration": 0.0895,
      "velocity": 117,
      "chip": "ym2612"
    },
    {
      "channel": 0,
      "note": 75,
      "start": 0.2811,
      "duration": 0.0979,
      "velocity": 117,
      "chip": "ym2612"
    },
    {
      "channel": 1,
      "note": 68,
      "start": 0.2834,
      "duration": 0.0958,
      "velocity": 127,
      "chip": "ym2612"
    },
    {
      "channel": 2,
      "note": 35,
      "start": 0.286,
      "duration": 0.0934,
      "velocity": 127,
      "chip": "ym2612"
    },
    {
      "channel": 3,
      "note": 70,
      "start": 0.2883,
      "duration": 0.0912,
      "velocity": 117,
      "chip": "ym2612"
    },
    {
      "channel": 4,
      "note": 78,
      "start": 0.2906,
      "duration": 0.0891,
      "velocity": 117,
      "chip": "ym2612"
    },
    {
      "channel": 0,
      "note": 73,
      "start": 0.401,
      "duration": 0.098,
      "velocity": 117,
      "chip": "ym2612"
    },
    {
      "channel": 1,
      "note": 68,
      "start": 0.4032,
      "duration": 0.096,
      "velocity": 127,
      "chip": "ym2612"
    },
    {
      "channel": 2,
      "note": 26,
      "start": 0.4058,
      "duration": 0.0936,
      "velocity": 93,
      "chip": "ym2612"
    },
    {
      "channel": 3,
      "note": 70,
      "start": 0.4079,
      "duration": 0.0916,
      "velocity": 117,
      "chip": "ym2612"
    },
    {
      "channel": 4,
      "note": 78,
      "start": 0.4102,
      "duration": 0.0895,
      "velocity": 117,
      "chip": "ym2612"
    },
    {
      "channel": 5,
      "note": 30,
      "start": 0.4123,
      "duration": 0.0875,
      "velocity": 110,
      "chip": "ym2612"
    },
    {
      "channel": 0,
      "note": 73,
      "start": 0.5411,
      "duration": 0.0979,
      "velocity": 117,
      "chip": "ym2612"
    },
    {
      "channel": 1,
      "note": 69,
      "start": 0.5435,
      "duration": 0.0956,
      "velocity": 127,
      "chip": "ym2612"
    },
    {
      "channel": 2,
      "note": 27,
      "start": 0.5456,
      "duration": 0.0937,
      "velocity": 93,
      "chip": "ym2612"
    },
    {
      "channel": 3,
      "note": 70,
      "start": 0.5479,
      "duration": 0.0916,
      "velocity": 117,
      "chip": "ym2612"
    },
    {
      "channel": 4,
      "note": 78,
      "start": 0.5502,
      "duration": 0.0895,
      "velocity": 117,
      "chip": "ym2612"
    },
    {
      "channel": 5,
      "note": 30,
      "start": 0.5524,
      "duration": 0.3475,
      "velocity": 110,
      "chip": "ym2612"
    },
    {
      "channel": 0,
      "note": 73,
      "start": 0.681,
      "duration": 0.098,
      "velocity": 117,
      "chip": "ym2612"
    },
    {
      "channel": 1,
      "note": 68,
      "start": 0.6832,
      "duration": 0.096,
      "velocity": 127,
      "chip": "ym2612"
    },
    {
      "channel": 2,
      "note": 49,
      "start": 0.6857,
      "duration": 0.0936,
      "velocity": 123,
      "chip": "ym2612"
    },
    {
      "channel": 3,
      "note": 70,
      "start": 0.6879,
      "duration": 0.0916,
      "velocity": 117,
      "chip": "ym2612"
    },
    {
      "channel": 4,
      "note": 78,
      "start": 0.6901,
      "duration": 0.0896,
      "velocity": 117,
      "chip": "ym2612"
    },
    {
      "channel": 0,
      "note": 75,
      "start": 0.8011,
      "duration": 0.0979,
      "velocity": 117,
      "chip": "ym2612"
    },
    {
      "channel": 1,
      "note": 69,
      "start": 0.8034,
      "duration": 0.0958,
      "velocity": 127,
      "chip": "ym2612"
    },
    {
      "channel": 2,
      "note": 35,
      "start": 0.806,
      "duration": 0.0934,
      "velocity": 127,
      "chip": "ym2612"
    },
    {
      "channel": 3,
      "note": 70,
      "start": 0.8083,
      "duration": 0.0912,
      "velocity": 117,
      "chip": "ym2612"
    },
    {
      "channel": 4,
      "note": 78,
      "start": 0.8106,
      "duration": 0.0891,
      "velocity": 117,
      "chip": "ym2612"
    },
    {
      "channel": 0,
      "note": 73,
      "start": 0.9409,
      "duration": 0.2381,
      "velocity": 117,
      "chip": "ym2612"
    },
    {
      "channel": 1,
      "note": 68,
      "start": 0.9432,
      "duration": 0.236,
      "velocity": 127,
      "chip": "ym2612"
    },
    {
      "channel": 2,
      "note": 26,
      "start": 0.9456,
      "duration": 0.0935,
      "velocity": 93,
      "chip": "ym2612"
    },
    {
      "channel": 3,
      "note": 68,
      "start": 0.9478,
      "duration": 0.2317,
      "velocity": 117,
      "chip": "ym2612"
    },
    {
      "channel": 4,
      "note": 77,
      "start": 0.9499,
      "duration": 0.2298,
      "velocity": 117,
      "chip": "ym2612"
    },
    {
      "channel": 5,
      "note": 37,
      "start": 0.952,
      "duration": 0.2278,
      "velocity": 110,
      "chip": "ym2612"
    },
    {
      "channel": 2,
      "note": 49,
      "start": 1.0815,
      "duration": 0.0978,
      "velocity": 123,
      "chip": "ym2612"
    },
    {
      "channel": 0,
      "note": 73,
      "start": 1.201,
      "duration": 0.098,
      "velocity": 117,
      "chip": "ym2612"
    },
    {
      "channel": 1,
      "note": 68,
      "start": 1.2032,
      "duration": 0.096,
      "velocity": 127,
      "chip": "ym2612"
    },
    {
      "channel": 2,
      "note": 49,
      "start": 1.2054,
      "duration": 0.0939,
      "velocity": 123,
      "chip": "ym2612"
    },
    {
      "channel": 3,
      "note": 68,
      "start": 1.2076,
      "duration": 0.092,
      "velocity": 117,
      "chip": "ym2612"
    },
    {
      "channel": 4,
      "note": 77,
      "start": 1.2098,
      "duration": 0.0899,
      "velocity": 117,
      "chip": "ym2612"
    },
    {
      "channel": 5,
      "note": 37,
      "start": 1.2119,
      "duration": 0.0879,
      "velocity": 110,
      "chip": "ym2612"
    },
    {
      "channel": 0,
      "note": 73,
      "start": 1.3411,
      "duration": 0.0979,
      "velocity": 117,
      "chip": "ym2612"
    },
    {
      "channel": 1,
      "note": 69,
      "start": 1.3433,
      "duration": 0.0959,
      "velocity": 127,
      "chip": "ym2612"
    },
    {
      "channel": 2,
      "note": 35,
      "start": 1.3459,
      "duration": 0.0934,
      "velocity": 127,
      "chip": "ym2612"
    },
    {
      "channel": 3,
      "note": 70,
      "start": 1.3481,
      "duration": 0.0914,
      "velocity": 117,
      "chip": "ym2612"
    },
    {
      "channel": 4,
      "note": 77,
      "start": 1.3504,
      "duration": 0.0893,
      "velocity": 117,
      "chip": "ym2612"
    },
    {
      "channel": 5,
      "note": 25,
      "start": 1.3525,
      "duration": 0.0873,
      "velocity": 110,
      "chip": "ym2612"
    },
    {
      "channel": 0,
      "note": 73,
      "start": 1.481,
      "duration": 0.098,
      "velocity": 117,
      "chip": "ym2612"
    },
    {
      "channel": 1,
      "note": 68,
      "start": 1.4832,
      "duration": 0.096,
      "velocity": 127,
      "chip": "ym2612"
    },
    {
      "channel": 2,
      "note": 26,
      "start": 1.4858,
      "duration": 0.0936,
      "velocity": 93,
      "chip": "ym2612"
    },
    {
      "channel": 3,
      "note": 68,
      "start": 1.4879,
      "duration": 0.0916,
      "velocity": 117,
      "chip": "ym2612"
    },
    {
      "channel": 4,
      "note": 77,
      "start": 1.4902,
      "duration": 0.0895,
      "velocity": 117,
      "chip": "ym2612"
    },
    {
      "channel": 5,
      "note": 25,
      "start": 1.4923,
      "duration": 0.0875,
      "velocity": 110,
      "chip": "ym2612"
    },
    {
      "channel": 0,
      "note": 73,
      "start": 1.6012,
      "duration": 0.0978,
      "velocity": 117,
      "chip": "ym2612"
    },
    {
      "channel": 1,
      "note": 69,
      "start": 1.6035,
      "duration": 0.0957,
      "velocity": 127,
      "chip": "ym2612"
    },
    {
      "channel": 2,
      "note": 27,
      "start": 1.6056,
      "duration": 0.0937,
      "velocity": 93,
      "chip": "ym2612"
    },
    {
      "channel": 3,
      "note": 68,
      "start": 1.6079,
      "duration": 0.0916,
      "velocity": 117,
      "chip": "ym2612"
    },
    {
      "channel": 4,
      "note": 77,
      "start": 1.6102,
      "duration": 0.0895,
      "velocity": 117,
      "chip": "ym2612"
    },
    {
      "channel": 5,
      "note": 27,
      "start": 1.6124,
      "duration": 0.0875,
      "velocity": 110,
      "chip": "ym2612"
    },
    {
      "channel": 0,
      "note": 73,
      "start": 1.741,
      "duration": 0.098,
      "velocity": 117,
      "chip": "ym2612"
    },
    {
      "channel": 1,
      "note": 68,
      "start": 1.7432,
      "duration": 0.096,
      "velocity": 127,
      "chip": "ym2612"
    },
    {
      "channel": 2,
      "note": 49,
      "start": 1.7458,
      "duration": 0.0936,
      "velocity": 123,
      "chip": "ym2612"
    },
    {
      "channel": 3,
      "note": 68,
      "start": 1.7479,
      "duration": 0.0916,
      "velocity": 117,
      "chip": "ym2612"
    },
    {
      "channel": 4,
      "note": 77,
      "start": 1.7502,
      "duration": 0.0895,
      "velocity": 117,
      "chip": "ym2612"
    },
    {
      "channel": 5,
      "note": 27,
      "start": 1.7523,
      "duration": 0.0875,
      "velocity": 110,
      "chip": "ym2612"
    },
    {
      "channel": 0,
      "note": 73,
      "start": 1.8811,
      "duration": 0.0979,
      "velocity": 117,
      "chip": "ym2612"
    },
    {
      "channel": 1,
      "note": 69,
      "start": 1.8834,
      "duration": 0.0958,
      "velocity": 127,
      "chip": "ym2612"
    },
    {
      "channel": 2,
      "note": 35,
      "start": 1.886,
      "duration": 0.0934,
      "velocity": 127,
      "chip": "ym2612"
    },
    {
      "channel": 3,
      "note": 70,
      "start": 1.8883,
      "duration": 0.0912,
      "velocity": 117,
      "chip": "ym2612"
    },
    {
      "channel": 4,
      "note": 77,
      "start": 1.8906,
      "duration": 0.0891,
      "velocity": 117,
      "chip": "ym2612"
    },
    {
      "channel": 5,
      "note": 29,
      "start": 1.8927,
      "duration": 0.0871,
      "velocity": 110,
      "chip": "ym2612"
    },
    {
      "channel": 0,
      "note": 73,
      "start": 2.001,
      "duration": 0.098,
      "velocity": 117,
      "chip": "ym2612"
    },
    {
      "channel": 1,
      "note": 68,
      "start": 2.0032,
      "duration": 0.096,
      "velocity": 127,
      "chip": "ym2612"
    },
    {
      "channel": 2,
      "note": 49,
      "start": 2.0058,
      "duration": 0.0936,
      "velocity": 123,
      "chip": "ym2612"
    },
    {
      "channel": 3,
      "note": 68,
      "start": 2.0079,
      "duration": 0.0916,
      "velocity": 117,
      "chip": "ym2612"
    },
    {
      "channel": 4,
      "note": 77,
      "start": 2.0102,
      "duration": 0.0895,
      "velocity": 117,
      "chip": "ym2612"
    },
    {
      "channel": 5,
      "note": 29,
      "start": 2.0123,
      "duration": 0.0875,
      "velocity": 110,
      "chip": "ym2612"
    },
    {
      "channel": 0,
      "note": 73,
      "start": 2.1413,
      "duration": 0.0977,
      "velocity": 117,
      "chip": "ym2612"
    },
    {
      "channel": 1,
      "note": 68,
      "start": 2.1437,
      "duration": 0.0955,
      "velocity": 127,
      "chip": "ym2612"
    },
    {
      "channel": 2,
      "note": 27,
      "start": 2.1463,
      "duration": 0.093,
      "velocity": 93,
      "chip": "ym2612"
    },
    {
      "channel": 3,
      "note": 70,
      "start": 2.1488,
      "duration": 0.0907,
      "velocity": 117,
      "chip": "ym2612"
    },
    {
      "channel": 4,
      "note": 78,
      "start": 2.1514,
      "duration": 0.0883,
      "velocity": 117,
      "chip": "ym2612"
    },
    {
      "channel": 5,
      "note": 30,
      "start": 2.1536,
      "duration": 0.3462,
      "velocity": 110,
      "chip": "ym2612"
    },
    {
      "channel": 0,
      "note": 73,
      "start": 2.281,
      "duration": 0.098,
      "velocity": 117,
      "chip": "ym2612"
    },
    {
      "channel": 1,
      "note": 68,
      "start": 2.2832,
      "duration": 0.096,
      "velocity": 127,
      "chip": "ym2612"
    },
    {
      "channel": 2,
      "note": 49,
      "start": 2.2858,
      "duration": 0.0936,
      "velocity": 123,
      "chip": "ym2612"
    },
    {
      "channel": 3,
      "note": 70,
      "start": 2.2879,
      "duration": 0.0916,
      "velocity": 117,
      "chip": "ym2612"
    },
    {
      "channel": 4,
      "note": 78,
      "start": 2.2902,
      "duration": 0.0895,
      "velocity": 117,
      "chip": "ym2612"
    },
    {
      "channel": 0,
      "note": 75,
      "start": 2.4011,
      "duration": 0.0979,
      "velocity": 117,
      "chip": "ym2612"
    },
    {
      "channel": 1,
      "note": 68,
      "start": 2.4034,
      "duration": 0.0958,
      "velocity": 127,
      "chip": "ym2612"
    },
    {
      "channel": 2,
      "note": 35,
      "start": 2.406,
      "duration": 0.0934,
      "velocity": 127,
      "chip": "ym2612"
    },
    {
      "channel": 3,
      "note": 70,
      "start": 2.4083,
      "duration": 0.0912,
      "velocity": 117,
      "chip": "ym2612"
    },
    {
      "channel": 4,
      "note": 78,
      "start": 2.4106,
      "duration": 0.0891,
      "velocity": 117,
      "chip": "ym2612"
    },
    {
      "channel": 0,
      "note": 73,
      "start": 2.541,
      "duration": 0.098,
      "velocity": 117,
      "chip": "ym2612"
    },
    {
      "channel": 1,
      "note": 68,
      "start": 2.5432,
      "duration": 0.096,
      "velocity": 127,
      "chip": "ym2612"
    },
    {
      "channel": 2,
      "note": 26,
      "start": 2.5458,
      "duration": 0.0936,
      "velocity": 93,
      "chip": "ym2612"
    },
    {
      "channel": 3,
      "note": 70,
      "start": 2.5479,
      "duration": 0.0916,
      "velocity": 117,
      "chip": "ym2612"
    },
    {
      "channel": 4,
      "note": 78,
      "start": 2.5502,
      "duration": 0.0895,
      "velocity": 117,
      "chip": "ym2612"
    },
    {
      "channel": 5,
      "note": 30,
      "start": 2.5523,
      "duration": 0.0875,
      "velocity": 110,
      "chip": "ym2612"
    },
    {
      "channel": 0,
      "note": 73,
      "start": 2.6611,
      "duration": 0.0979,
      "velocity": 117,
      "chip": "ym2612"
    },
    {
      "channel": 1,
      "note": 69,
      "start": 2.6635,
      "duration": 0.0956,
      "velocity": 127,
      "chip": "ym2612"
    },
    {
      "channel": 2,
      "note": 27,
      "start": 2.6656,
      "duration": 0.0937,
      "velocity": 93,
      "chip": "ym2612"
    },
    {
      "channel": 3,
      "note": 70,
      "start": 2.6679,
      "duration": 0.0916,
      "velocity": 117,
      "chip": "ym2612"
    },
    {
      "channel": 4,
      "note": 78,
      "start": 2.6702,
      "duration": 0.0895,
      "velocity": 117,
      "chip": "ym2612"
    },
    {
      "channel": 5,
      "note": 30,
      "start": 2.6724,
      "duration": 0.3675,
      "velocity": 110,
      "chip": "ym2612"
    },
    {
      "channel": 0,
      "note": 73,
      "start": 2.801,
      "duration": 0.098,
      "velocity": 117,
      "chip": "ym2612"
    },
    {
      "channel": 1,
      "note": 68,
      "start": 2.8032,
      "duration": 0.096,
      "velocity": 127,
      "chip": "ym2612"
    },
    {
      "channel": 2,
      "note": 49,
      "start": 2.8057,
      "duration": 0.0936,
      "velocity": 123,
      "chip": "ym2612"
    },
    {
      "channel": 3,
      "note": 70,
      "start": 2.8079,
      "duration": 0.0916,
      "velocity": 117,
      "chip": "ym2612"
    },
    {
      "channel": 4,
      "note": 78,
      "start": 2.8101,
      "duration": 0.0896,
      "velocity": 117,
      "chip": "ym2612"
    },
    {
      "channel": 0,
      "note": 75,
      "start": 2.9411,
      "duration": 0.0979,
      "velocity": 117,
      "chip": "ym2612"
    },
    {
      "channel": 1,
      "note": 69,
      "start": 2.9434,
      "duration": 0.0958,
      "velocity": 127,
      "chip": "ym2612"
    },
    {
      "channel": 2,
      "note": 35,
      "start": 2.946,
      "duration": 0.0934,
      "velocity": 127,
      "chip": "ym2612"
    },
    {
      "channel": 3,
      "note": 70,
      "start": 2.9483,
      "duration": 0.0912,
      "velocity": 117,
      "chip": "ym2612"
    },
    {
      "channel": 4,
      "note": 78,
      "start": 2.9506,
      "duration": 0.0891,
      "velocity": 117,
      "chip": "ym2612"
    },
    {
      "channel": 0,
      "note": 73,
      "start": 3.0609,
      "duration": 0.2381,
      "velocity": 117,
      "chip": "ym2612"
    },
    {
      "channel": 1,
      "note": 68,
      "start": 3.0632,
      "duration": 0.236,
      "velocity": 127,
      "chip": "ym2612"
    },
    {
      "channel": 2,
      "note": 26,
      "start": 3.0656,
      "duration": 0.0935,
      "velocity": 93,
      "chip": "ym2612"
    },
    {
      "channel": 3,
      "note": 68,
      "start": 3.0678,
      "duration": 0.2317,
      "velocity": 117,
      "chip": "ym2612"
    },
    {
      "channel": 4,
      "note": 77,
      "start": 3.0699,
      "duration": 0.2298,
      "velocity": 117,
      "chip": "ym2612"
    },
    {
      "channel": 5,
      "note": 37,
      "start": 3.072,
      "duration": 0.2278,
      "velocity": 110,
      "chip": "ym2612"
    },
    {
      "channel": 2,
      "note": 49,
      "start": 3.2015,
      "duration": 0.0978,
      "velocity": 123,
      "chip": "ym2612"
    },
    {
      "channel": 0,
      "note": 73,
      "start": 3.341,
      "duration": 0.098,
      "velocity": 117,
      "chip": "ym2612"
    },
    {
      "channel": 1,
      "note": 68,
      "start": 3.3432,
      "duration": 0.096,
      "velocity": 127,
      "chip": "ym2612"
    },
    {
      "channel": 2,
      "note": 49,
      "start": 3.3454,
      "duration": 0.0939,
      "velocity": 123,
      "chip": "ym2612"
    },
    {
      "channel": 3,
      "note": 68,
      "start": 3.3476,
      "duration": 0.0919,
      "velocity": 117,
      "chip": "ym2612"
    },
    {
      "channel": 4,
      "note": 77,
      "start": 3.3498,
      "duration": 0.0899,
      "velocity": 117,
      "chip": "ym2612"
    },
    {
      "channel": 5,
      "note": 37,
      "start": 3.3519,
      "duration": 0.0879,
      "velocity": 110,
      "chip": "ym2612"
    },
    {
      "channel": 0,
      "note": 73,
      "start": 3.4611,
      "duration": 0.0979,
      "velocity": 117,
      "chip": "ym2612"
    },
    {
      "channel": 1,
      "note": 69,
      "start": 3.4633,
      "duration": 0.0959,
      "velocity": 127,
      "chip": "ym2612"
    },
    {
      "channel": 2,
      "note": 35,
      "start": 3.4659,
      "duration": 0.0934,
      "velocity": 127,
      "chip": "ym2612"
    },
    {
      "channel": 3,
      "note": 70,
      "start": 3.4681,
      "duration": 0.0914,
      "velocity": 117,
      "chip": "ym2612"
    },
    {
      "channel": 4,
      "note": 77,
      "start": 3.4704,
      "duration": 0.0893,
      "velocity": 117,
      "chip": "ym2612"
    },
    {
      "channel": 5,
      "note": 25,
      "start": 3.4725,
      "duration": 0.0873,
      "velocity": 110,
      "chip": "ym2612"
    },
    {
      "channel": 0,
      "note": 73,
      "start": 3.601,
      "duration": 0.098,
      "velocity": 117,
      "chip": "ym2612"
    },
    {
      "channel": 1,
      "note": 68,
      "start": 3.6032,
      "duration": 0.096,
      "velocity": 127,
      "chip": "ym2612"
    },
    {
      "channel": 2,
      "note": 26,
      "start": 3.6057,
      "duration": 0.0936,
      "velocity": 93,
      "chip": "ym2612"
    },
    {
      "channel": 3,
      "note": 68,
      "start": 3.6079,
      "duration": 0.0916,
      "velocity": 117,
      "chip": "ym2612"
    },
    {
      "channel": 4,
      "note": 77,
      "start": 3.6101,
      "duration": 0.0896,
      "velocity": 117,
      "chip": "ym2612"
    },
    {
      "channel": 5,
      "note": 25,
      "start": 3.6122,
      "duration": 0.0876,
      "velocity": 110,
      "chip": "ym2612"
    },
    {
      "channel": 0,
      "note": 73,
      "start": 3.7412,
      "duration": 0.0978,
      "velocity": 117,
      "chip": "ym2612"
    },
    {
      "channel": 1,
      "note": 69,
      "start": 3.7435,
      "duration": 0.0957,
      "velocity": 127,
      "chip": "ym2612"
    },
    {
      "channel": 2,
      "note": 27,
      "start": 3.7456,
      "duration": 0.0937,
      "velocity": 93,
      "chip": "ym2612"
    },
    {
      "channel": 3,
      "note": 68,
      "start": 3.7479,
      "duration": 0.0916,
      "velocity": 117,
      "chip": "ym2612"
    },
    {
      "channel": 4,
      "note": 77,
      "start": 3.7502,
      "duration": 0.0895,
      "velocity": 117,
      "chip": "ym2612"
    },
    {
      "channel": 5,
      "note": 27,
      "start": 3.7524,
      "duration": 0.0875,
      "velocity": 110,
      "chip": "ym2612"
    },
    {
      "channel": 0,
      "note": 73,
      "start": 3.861,
      "duration": 0.098,
      "velocity": 117,
      "chip": "ym2612"
    },
    {
      "channel": 1,
      "note": 68,
      "start": 3.8632,
      "duration": 0.096,
      "velocity": 127,
      "chip": "ym2612"
    },
    {
      "channel": 2,
      "note": 49,
      "start": 3.8657,
      "duration": 0.0936,
      "velocity": 123,
      "chip": "ym2612"
    },
    {
      "channel": 3,
      "note": 68,
      "start": 3.8679,
      "duration": 0.0916,
      "velocity": 117,
      "chip": "ym2612"
    },
    {
      "channel": 4,
      "note": 77,
      "start": 3.8701,
      "duration": 0.0896,
      "velocity": 117,
      "chip": "ym2612"
    },
    {
      "channel": 5,
      "note": 27,
      "start": 3.8722,
      "duration": 0.0876,
      "velocity": 110,
      "chip": "ym2612"
    },
    {
      "channel": 0,
      "note": 73,
      "start": 4.0011,
      "duration": 0.0979,
      "velocity": 117,
      "chip": "ym2612"
    },
    {
      "channel": 1,
      "note": 69,
      "start": 4.0034,
      "duration": 0.0958,
      "velocity": 127,
      "chip": "ym2612"
    },
    {
      "channel": 2,
      "note": 35,
      "start": 4.006,
      "duration": 0.0934,
      "velocity": 127,
      "chip": "ym2612"
    },
    {
      "channel": 3,
      "note": 70,
      "start": 4.0083,
      "duration": 0.0912,
      "velocity": 117,
      "chip": "ym2612"
    },
    {
      "channel": 4,
      "note": 77,
      "start": 4.0106,
      "duration": 0.0891,
      "velocity": 117,
      "chip": "ym2612"
    },
    {
      "channel": 5,
      "note": 29,
      "start": 4.0127,
      "duration": 0.0871,
      "velocity": 110,
      "chip": "ym2612"
    },
    {
      "channel": 0,
      "note": 73,
      "start": 4.141,
      "duration": 0.098,
      "velocity": 117,
      "chip": "ym2612"
    },
    {
      "channel": 1,
      "note": 68,
      "start": 4.1432,
      "duration": 0.096,
      "velocity": 127,
      "chip": "ym2612"
    },
    {
      "channel": 2,
      "note": 49,
      "start": 4.1458,
      "duration": 0.0936,
      "velocity": 123,
      "chip": "ym2612"
    },
    {
      "channel": 3,
      "note": 68,
      "start": 4.1479,
      "duration": 0.0916,
      "velocity": 117,
      "chip": "ym2612"
    },
    {
      "channel": 4,
      "note": 77,
      "start": 4.1502,
      "duration": 0.0895,
      "velocity": 117,
      "chip": "ym2612"
    },
    {
      "channel": 5,
      "note": 29,
      "start": 4.1523,
      "duration": 0.0875,
      "velocity": 110,
      "chip": "ym2612"
    },
    {
      "channel": 1,
      "note": 70,
      "start": 4.2647,
      "duration": 0.0944,
      "velocity": 117,
      "chip": "ym2612"
    },
    {
      "channel": 2,
      "note": 27,
      "start": 4.2676,
      "duration": 0.0917,
      "velocity": 93,
      "chip": "ym2612"
    },
    {
      "channel": 3,
      "note": 73,
      "start": 4.27,
      "duration": 0.0894,
      "velocity": 117,
      "chip": "ym2612"
    },
    {
      "channel": 4,
      "note": 73,
      "start": 4.2732,
      "duration": 0.273,
      "velocity": 97,
      "chip": "ym2612"
    },
    {
      "channel": 5,
      "note": 30,
      "start": 4.2755,
      "duration": 0.3642,
      "velocity": 110,
      "chip": "ym2612"
    },
    {
      "channel": 1,
      "note": 70,
      "start": 4.4011,
      "duration": 0.0979,
      "velocity": 117,
      "chip": "ym2612"
    },
    {
      "channel": 2,
      "note": 49,
      "start": 4.4037,
      "duration": 0.0956,
      "velocity": 123,
      "chip": "ym2612"
    },
    {
      "channel": 3,
      "note": 73,
      "start": 4.4059,
      "duration": 0.0935,
      "velocity": 117,
      "chip": "ym2612"
    },
    {
      "channel": 0,
      "note": 73,
      "start": 4.4412,
      "duration": 0.2578,
      "velocity": 97,
      "chip": "ym2612"
    },
    {
      "channel": 1,
      "note": 70,
      "start": 4.5412,
      "duration": 0.0979,
      "velocity": 117,
      "chip": "ym2612"
    },
    {
      "channel": 2,
      "note": 35,
      "start": 4.5438,
      "duration": 0.0955,
      "velocity": 127,
      "chip": "ym2612"
    },
    {
      "channel": 3,
      "note": 73,
      "start": 4.5461,
      "duration": 0.0934,
      "velocity": 117,
      "chip": "ym2612"
    },
    {
      "channel": 1,
      "note": 70,
      "start": 4.6611,
      "duration": 0.0979,
      "velocity": 117,
      "chip": "ym2612"
    },
    {
      "channel": 2,
      "note": 26,
      "start": 4.6637,
      "duration": 0.0955,
      "velocity": 93,
      "chip": "ym2612"
    },
    {
      "channel": 3,
      "note": 73,
      "start": 4.6659,
      "duration": 0.0935,
      "velocity": 117,
      "chip": "ym2612"
    },
    {
      "channel": 4,
      "note": 69,
      "start": 4.668,
      "duration": 0.0916,
      "velocity": 97,
      "chip": "ym2612"
    },
    {
      "channel": 5,
      "note": 30,
      "start": 4.6701,
      "duration": 0.0896,
      "velocity": 110,
      "chip": "ym2612"
    },
    {
      "channel": 1,
      "note": 70,
      "start": 4.8012,
      "duration": 0.0979,
      "velocity": 117,
      "chip": "ym2612"
    },
    {
      "channel": 2,
      "note": 27,
      "start": 4.8033,
      "duration": 0.0959,
      "velocity": 93,
      "chip": "ym2612"
    },
    {
      "channel": 3,
      "note": 73,
      "start": 4.8056,
      "duration": 0.0938,
      "velocity": 117,
      "chip": "ym2612"
    },
    {
      "channel": 4,
      "note": 70,
      "start": 4.8078,
      "duration": 0.0918,
      "velocity": 97,
      "chip": "ym2612"
    },
    {
      "channel": 5,
      "note": 30,
      "start": 4.8099,
      "duration": 0.4898,
      "velocity": 110,
      "chip": "ym2612"
    },
    {
      "channel": 0,
      "note": 69,
      "start": 4.8409,
      "duration": 0.0981,
      "velocity": 97,
      "chip": "ym2612"
    },
    {
      "channel": 1,
      "note": 70,
      "start": 4.9412,
      "duration": 0.0979,
      "velocity": 117,
      "chip": "ym2612"
    },
    {
      "channel": 2,
      "note": 49,
      "start": 4.9438,
      "duration": 0.0955,
      "velocity": 123,
      "chip": "ym2612"
    },
    {
      "channel": 3,
      "note": 73,
      "start": 4.946,
      "duration": 0.0934,
      "velocity": 117,
      "chip": "ym2612"
    },
    {
      "channel": 4,
      "note": 73,
      "start": 4.9481,
      "duration": 0.0914,
      "velocity": 97,
      "chip": "ym2612"
    },
    {
      "channel": 0,
      "note": 70,
      "start": 4.9609,
      "duration": 0.0981,
      "velocity": 97,
      "chip": "ym2612"
    },
    {
      "channel": 1,
      "note": 70,
      "start": 5.0613,
      "duration": 0.0978,
      "velocity": 117,
      "chip": "ym2612"
    },
    {
      "channel": 2,
      "note": 35,
      "start": 5.0639,
      "duration": 0.0954,
      "velocity": 127,
      "chip": "ym2612"
    },
    {
      "channel": 3,
      "note": 73,
      "start": 5.0661,
      "duration": 0.0933,
      "velocity": 117,
      "chip": "ym2612"
    },
    {
      "channel": 4,
      "note": 75,
      "start": 5.0683,
      "duration": 0.0913,
      "velocity": 97,
      "chip": "ym2612"
    },
    {
      "channel": 0,
      "note": 73,
      "start": 5.1009,
      "duration": 0.0981,
      "velocity": 97,
      "chip": "ym2612"
    },
    {
      "channel": 1,
      "note": 70,
      "start": 5.2012,
      "duration": 0.0979,
      "velocity": 117,
      "chip": "ym2612"
    },
    {
      "channel": 2,
      "note": 49,
      "start": 5.2038,
      "duration": 0.0955,
      "velocity": 123,
      "chip": "ym2612"
    },
    {
      "channel": 3,
      "note": 73,
      "start": 5.206,
      "duration": 0.0934,
      "velocity": 117,
      "chip": "ym2612"
    },
    {
      "channel": 4,
      "note": 73,
      "start": 5.2081,
      "duration": 0.2579,
      "velocity": 97,
      "chip": "ym2612"
    },
    {
      "channel": 0,
      "note": 75,
      "start": 5.2209,
      "duration": 0.0981,
      "velocity": 97,
      "chip": "ym2612"
    },
    {
      "channel": 1,
      "note": 70,
      "start": 5.3213,
      "duration": 0.0978,
      "velocity": 117,
      "chip": "ym2612"
    },
    {
      "channel": 2,
      "note": 27,
      "start": 5.324,
      "duration": 0.0953,
      "velocity": 93,
      "chip": "ym2612"
    },
    {
      "channel": 3,
      "note": 73,
      "start": 5.3263,
      "duration": 0.0932,
      "velocity": 117,
      "chip": "ym2612"
    },
    {
      "channel": 5,
      "note": 30,
      "start": 5.3285,
      "duration": 0.3712,
      "velocity": 110,
      "chip": "ym2612"
    },
    {
      "channel": 0,
      "note": 73,
      "start": 5.3609,
      "duration": 0.2581,
      "velocity": 97,
      "chip": "ym2612"
    },
    {
      "channel": 1,
      "note": 70,
      "start": 5.4611,
      "duration": 0.0979,
      "velocity": 117,
      "chip": "ym2612"
    },
    {
      "channel": 2,
      "note": 49,
      "start": 5.4637,
      "duration": 0.0956,
      "velocity": 123,
      "chip": "ym2612"
    },
    {
      "channel": 3,
      "note": 73,
      "start": 5.4659,
      "duration": 0.0935,
      "velocity": 117,
      "chip": "ym2612"
    },
    {
      "channel": 1,
      "note": 70,
      "start": 5.6012,
      "duration": 0.0979,
      "velocity": 117,
      "chip": "ym2612"
    },
    {
      "channel": 2,
      "note": 35,
      "start": 5.6038,
      "duration": 0.0955,
      "velocity": 127,
      "chip": "ym2612"
    },
    {
      "channel": 3,
      "note": 73,
      "start": 5.6061,
      "duration": 0.0934,
      "velocity": 117,
      "chip": "ym2612"
    },
    {
      "channel": 1,
      "note": 70,
      "start": 5.7211,
      "duration": 0.0979,
      "velocity": 117,
      "chip": "ym2612"
    },
    {
      "channel": 2,
      "note": 26,
      "start": 5.7237,
      "duration": 0.0955,
      "velocity": 93,
      "chip": "ym2612"
    },
    {
      "channel": 3,
      "note": 73,
      "start": 5.7259,
      "duration": 0.0935,
      "velocity": 117,
      "chip": "ym2612"
    },
    {
      "channel": 4,
      "note": 70,
      "start": 5.7281,
      "duration": 0.0914,
      "velocity": 97,
      "chip": "ym2612"
    },
    {
      "channel": 5,
      "note": 25,
      "start": 5.7302,
      "duration": 0.0895,
      "velocity": 110,
      "chip": "ym2612"
    },
    {
      "channel": 1,
      "note": 70,
      "start": 5.8612,
      "duration": 0.0979,
      "velocity": 117,
      "chip": "ym2612"
    },
    {
      "channel": 2,
      "note": 27,
      "start": 5.8633,
      "duration": 0.0959,
      "velocity": 93,
      "chip": "ym2612"
    },
    {
      "channel": 3,
      "note": 73,
      "start": 5.8656,
      "duration": 0.0938,
      "velocity": 117,
      "chip": "ym2612"
    },
    {
      "channel": 4,
      "note": 69,
      "start": 5.8678,
      "duration": 0.0918,
      "velocity": 97,
      "chip": "ym2612"
    },
    {
      "channel": 5,
      "note": 27,
      "start": 5.8699,
      "duration": 0.2298,
      "velocity": 110,
      "chip": "ym2612"
    },
    {
      "channel": 0,
      "note": 70,
      "start": 5.901,
      "duration": 0.098,
      "velocity": 97,
      "chip": "ym2612"
    },
    {
      "channel": 1,
      "note": 70,
      "start": 6.0012,
      "duration": 0.0979,
      "velocity": 117,
      "chip": "ym2612"
    },
    {
      "channel": 2,
      "note": 49,
      "start": 6.0038,
      "duration": 0.0955,
      "velocity": 123,
      "chip": "ym2612"
    },
    {
      "channel": 3,
      "note": 73,
      "start": 6.006,
      "duration": 0.0934,
      "velocity": 117,
      "chip": "ym2612"
    },
    {
      "channel": 4,
      "note": 70,
      "start": 6.0081,
      "duration": 0.1182,
      "velocity": 97,
      "chip": "ym2612"
    },
    {
      "channel": 0,
      "note": 69,
      "start": 6.0209,
      "duration": 0.0981,
      "velocity": 97,
      "chip": "ym2612"
    },
    {
      "channel": 1,
      "note": 70,
      "start": 6.1213,
      "duration": 0.0978,
      "velocity": 117,
      "chip": "ym2612"
    },
    {
      "channel": 2,
      "note": 35,
      "start": 6.1239,
      "duration": 0.0954,
      "velocity": 127,
      "chip": "ym2612"
    },
    {
      "channel": 3,
      "note": 73,
      "start": 6.1261,
      "duration": 0.0933,
      "velocity": 117,
      "chip": "ym2612"
    },
    {
      "channel": 5,
      "note": 29,
      "start": 6.1285,
      "duration": 0.2312,
      "velocity": 110,
      "chip": "ym2612"
    },
    {
      "channel": 0,
      "note": 70,
      "start": 6.1609,
      "duration": 0.1381,
      "velocity": 97,
      "chip": "ym2612"
    },
    {
      "channel": 1,
      "note": 70,
      "start": 6.2611,
      "duration": 0.0979,
      "velocity": 117,
      "chip": "ym2612"
    },
    {
      "channel": 2,
      "note": 49,
      "start": 6.2637,
      "duration": 0.0956,
      "velocity": 123,
      "chip": "ym2612"
    },
    {
      "channel": 3,
      "note": 73,
      "start": 6.2659,
      "duration": 0.0935,
      "velocity": 117,
      "chip": "ym2612"
    },
    {
      "channel": 1,
      "note": 70,
      "start": 6.4012,
      "duration": 0.0979,
      "velocity": 117,
      "chip": "ym2612"
    },
    {
      "channel": 2,
      "note": 27,
      "start": 6.4039,
      "duration": 0.0954,
      "velocity": 93,
      "chip": "ym2612"
    },
    {
      "channel": 3,
      "note": 73,
      "start": 6.4061,
      "duration": 0.0933,
      "velocity": 117,
      "chip": "ym2612"
    },
    {
      "channel": 4,
      "note": 73,
      "start": 6.4084,
      "duration": 0.2579,
      "velocity": 97,
      "chip": "ym2612"
    },
    {
      "channel": 5,
      "note": 30,
      "start": 6.4105,
      "duration": 0.3492,
      "velocity": 110,
      "chip": "ym2612"
    },
    {
      "channel": 1,
      "note": 70,
      "start": 6.5211,
      "duration": 0.0979,
      "velocity": 117,
      "chip": "ym2612"
    },
    {
      "channel": 2,
      "note": 49,
      "start": 6.5237,
      "duration": 0.0955,
      "velocity": 123,
      "chip": "ym2612"
    },
    {
      "channel": 3,
      "note": 73,
      "start": 6.5259,
      "duration": 0.0935,
      "velocity": 117,
      "chip": "ym2612"
    },
    {
      "channel": 0,
      "note": 73,
      "start": 6.561,
      "duration": 0.258,
      "velocity": 97,
      "chip": "ym2612"
    },
    {
      "channel": 1,
      "note": 70,
      "start": 6.6612,
      "duration": 0.0979,
      "velocity": 117,
      "chip": "ym2612"
    },
    {
      "channel": 2,
      "note": 35,
      "start": 6.6638,
      "duration": 0.0955,
      "velocity": 127,
      "chip": "ym2612"
    },
    {
      "channel": 3,
      "note": 73,
      "start": 6.6661,
      "duration": 0.0934,
      "velocity": 117,
      "chip": "ym2612"
    },
    {
      "channel": 1,
      "note": 70,
      "start": 6.8011,
      "duration": 0.0979,
      "velocity": 117,
      "chip": "ym2612"
    },
    {
      "channel": 2,
      "note": 26,
      "start": 6.8037,
      "duration": 0.0956,
      "velocity": 93,
      "chip": "ym2612"
    },
    {
      "channel": 3,
      "note": 73,
      "start": 6.8059,
      "duration": 0.0935,
      "velocity": 117,
      "chip": "ym2612"
    },
    {
      "channel": 4,
      "note": 69,
      "start": 6.808,
      "duration": 0.0916,
      "velocity": 97,
      "chip": "ym2612"
    },
    {
      "channel": 5,
      "note": 30,
      "start": 6.8101,
      "duration": 0.0896,
      "velocity": 110,
      "chip": "ym2612"
    },
    {
      "channel": 1,
      "note": 70,
      "start": 6.9212,
      "duration": 0.0979,
      "velocity": 117,
      "chip": "ym2612"
    },
    {
      "channel": 2,
      "note": 27,
      "start": 6.9233,
      "duration": 0.0959,
      "velocity": 93,
      "chip": "ym2612"
    },
    {
      "channel": 3,
      "note": 73,
      "start": 6.9256,
      "duration": 0.0938,
      "velocity": 117,
      "chip": "ym2612"
    },
    {
      "channel": 4,
      "note": 70,
      "start": 6.9278,
      "duration": 0.0918,
      "velocity": 97,
      "chip": "ym2612"
    },
    {
      "channel": 5,
      "note": 30,
      "start": 6.9299,
      "duration": 0.4898,
      "velocity": 110,
      "chip": "ym2612"
    },
    {
      "channel": 0,
      "note": 69,
      "start": 6.9609,
      "duration": 0.0981,
      "velocity": 97,
      "chip": "ym2612"
    },
    {
      "channel": 1,
      "note": 70,
      "start": 7.0612,
      "duration": 0.0979,
      "velocity": 117,
      "chip": "ym2612"
    },
    {
      "channel": 2,
      "note": 49,
      "start": 7.0638,
      "duration": 0.0955,
      "velocity": 123,
      "chip": "ym2612"
    },
    {
      "channel": 3,
      "note": 73,
      "start": 7.066,
      "duration": 0.0934,
      "velocity": 117,
      "chip": "ym2612"
    },
    {
      "channel": 4,
      "note": 73,
      "start": 7.0681,
      "duration": 0.0914,
      "velocity": 97,
      "chip": "ym2612"
    },
    {
      "channel": 0,
      "note": 70,
      "start": 7.1009,
      "duration": 0.0981,
      "velocity": 97,
      "chip": "ym2612"
    },
    {
      "channel": 1,
      "note": 70,
      "start": 7.2013,
      "duration": 0.0978,
      "velocity": 117,
      "chip": "ym2612"
    },
    {
      "channel": 2,
      "note": 35,
      "start": 7.2039,
      "duration": 0.0954,
      "velocity": 127,
      "chip": "ym2612"
    },
    {
      "channel": 3,
      "note": 73,
      "start": 7.2061,
      "duration": 0.0933,
      "velocity": 117,
      "chip": "ym2612"
    },
    {
      "channel": 4,
      "note": 75,
      "start": 7.2083,
      "duration": 0.0913,
      "velocity": 97,
      "chip": "ym2612"
    },
    {
      "channel": 0,
      "note": 73,
      "start": 7.2209,
      "duration": 0.0981,
      "velocity": 97,
      "chip": "ym2612"
    },
    {
      "channel": 1,
      "note": 70,
      "start": 7.3212,
      "duration": 0.0979,
      "velocity": 117,
      "chip": "ym2612"
    },
    {
      "channel": 2,
      "note": 49,
      "start": 7.3238,
      "duration": 0.0955,
      "velocity": 123,
      "chip": "ym2612"
    },
    {
      "channel": 3,
      "note": 73,
      "start": 7.326,
      "duration": 0.0934,
      "velocity": 117,
      "chip": "ym2612"
    },
    {
      "channel": 4,
      "note": 73,
      "start": 7.3281,
      "duration": 0.2779,
      "velocity": 97,
      "chip": "ym2612"
    },
    {
      "channel": 0,
      "note": 75,
      "start": 7.3609,
      "duration": 0.0981,
      "velocity": 97,
      "chip": "ym2612"
    },
    {
      "channel": 1,
      "note": 70,
      "start": 7.4613,
      "duration": 0.0978,
      "velocity": 117,
      "chip": "ym2612"
    },
    {
      "channel": 2,
      "note": 27,
      "start": 7.464,
      "duration": 0.0953,
      "velocity": 93,
      "chip": "ym2612"
    },
    {
      "channel": 3,
      "note": 73,
      "start": 7.4663,
      "duration": 0.0932,
      "velocity": 117,
      "chip": "ym2612"
    },
    {
      "channel": 5,
      "note": 30,
      "start": 7.4685,
      "duration": 0.3512,
      "velocity": 110,
      "chip": "ym2612"
    },
    {
      "channel": 0,
      "note": 73,
      "start": 7.5009,
      "duration": 0.2581,
      "velocity": 97,
      "chip": "ym2612"
    },
    {
      "channel": 1,
      "note": 70,
      "start": 7.6011,
      "duration": 0.0779,
      "velocity": 117,
      "chip": "ym2612"
    },
    {
      "channel": 2,
      "note": 49,
      "start": 7.6037,
      "duration": 0.0756,
      "velocity": 123,
      "chip": "ym2612"
    },
    {
      "channel": 3,
      "note": 73,
      "start": 7.6059,
      "duration": 0.0735,
      "velocity": 117,
      "chip": "ym2612"
    },
    {
      "channel": 1,
      "note": 70,
      "start": 7.7212,
      "duration": 0.0979,
      "velocity": 117,
      "chip": "ym2612"
    },
    {
      "channel": 2,
      "note": 35,
      "start": 7.7238,
      "duration": 0.0955,
      "velocity": 127,
      "chip": "ym2612"
    },
    {
      "channel": 3,
      "note": 73,
      "start": 7.7261,
      "duration": 0.0934,
      "velocity": 117,
      "chip": "ym2612"
    },
    {
      "channel": 1,
      "note": 70,
      "start": 7.8611,
      "duration": 0.0979,
      "velocity": 117,
      "chip": "ym2612"
    },
    {
      "channel": 2,
      "note": 26,
      "start": 7.8637,
      "duration": 0.0955,
      "velocity": 93,
      "chip": "ym2612"
    },
    {
      "channel": 3,
      "note": 73,
      "start": 7.8659,
      "duration": 0.0935,
      "velocity": 117,
      "chip": "ym2612"
    },
    {
      "channel": 4,
      "note": 70,
      "start": 7.8681,
      "duration": 0.0914,
      "velocity": 97,
      "chip": "ym2612"
    },
    {
      "channel": 5,
      "note": 30,
      "start": 7.8702,
      "duration": 0.0895,
      "velocity": 110,
      "chip": "ym2612"
    },
    {
      "channel": 1,
      "note": 70,
      "start": 7.9812,
      "duration": 0.0979,
      "velocity": 117,
      "chip": "ym2612"
    },
    {
      "channel": 2,
      "note": 27,
      "start": 7.9833,
      "duration": 0.0959,
      "velocity": 93,
      "chip": "ym2612"
    },
    {
      "channel": 3,
      "note": 73,
      "start": 7.9856,
      "duration": 0.0938,
      "velocity": 117,
      "chip": "ym2612"
    },
    {
      "channel": 4,
      "note": 73,
      "start": 7.9878,
      "duration": 0.0918,
      "velocity": 97,
      "chip": "ym2612"
    },
    {
      "channel": 5,
      "note": 32,
      "start": 7.9899,
      "duration": 0.2299,
      "velocity": 110,
      "chip": "ym2612"
    },
    {
      "channel": 0,
      "note": 70,
      "start": 8.021,
      "duration": 0.098,
      "velocity": 97,
      "chip": "ym2612"
    },
    {
      "channel": 1,
      "note": 70,
      "start": 8.1212,
      "duration": 0.0979,
      "velocity": 117,
      "chip": "ym2612"
    },
    {
      "channel": 2,
      "note": 49,
      "start": 8.1238,
      "duration": 0.0955,
      "velocity": 123,
      "chip": "ym2612"
    },
    {
      "channel": 3,
      "note": 73,
      "start": 8.126,
      "duration": 0.0935,
      "velocity": 117,
      "chip": "ym2612"
    },
    {
      "channel": 4,
      "note": 74,
      "start": 8.1281,
      "duration": 0.0915,
      "velocity": 97,
      "chip": "ym2612"
    },
    {
      "channel": 0,
      "note": 73,
      "start": 8.1609,
      "duration": 0.0981,
      "velocity": 97,
      "chip": "ym2612"
    },
    {
      "channel": 1,
      "note": 70,
      "start": 8.2613,
      "duration": 0.0978,
      "velocity": 117,
      "chip": "ym2612"
    },
    {
      "channel": 2,
      "note": 35,
      "start": 8.2639,
      "duration": 0.0954,
      "velocity": 127,
      "chip": "ym2612"
    },
    {
      "channel": 3,
      "note": 73,
      "start": 8.2661,
      "duration": 0.0933,
      "velocity": 117,
      "chip": "ym2612"
    },
    {
      "channel": 4,
      "note": 75,
      "start": 8.2683,
      "duration": 0.1179,
      "velocity": 97,
      "chip": "ym2612"
    },
    {
      "channel": 5,
      "note": 34,
      "start": 8.2704,
      "duration": 0.2093,
      "velocity": 110,
      "chip": "ym2612"
    },
    {
      "channel": 0,
      "note": 74,
      "start": 8.2809,
      "duration": 0.0981,
      "velocity": 97,
      "chip": "ym2612"
    },
    {
      "channel": 1,
      "note": 70,
      "start": 8.3812,
      "duration": 0.0979,
      "velocity": 117,
      "chip": "ym2612"
    },
    {
      "channel": 2,
      "note": 49,
      "start": 8.3838,
      "duration": 0.0955,
      "velocity": 123,
      "chip": "ym2612"
    },
    {
      "channel": 3,
      "note": 73,
      "start": 8.386,
      "duration": 0.0934,
      "velocity": 117,
      "chip": "ym2612"
    },
    {
      "channel": 0,
      "note": 75,
      "start": 8.4209,
      "duration": 0.1381,
      "velocity": 97,
      "chip": "ym2612"
    },
    {
      "channel": 1,
      "note": 75,
      "start": 8.5214,
      "duration": 0.0977,
      "velocity": 117,
      "chip": "ym2612"
    },
    {
      "channel": 2,
      "note": 27,
      "start": 8.524,
      "duration": 0.0952,
      "velocity": 93,
      "chip": "ym2612"
    },
    {
      "channel": 3,
      "note": 78,
      "start": 8.5265,
      "duration": 0.0929,
      "velocity": 117,
      "chip": "ym2612"
    },
    {
      "channel": 4,
      "note": 78,
      "start": 8.5286,
      "duration": 0.2576,
      "velocity": 97,
      "chip": "ym2612"
    },
    {
      "channel": 5,
      "note": 35,
      "start": 8.5307,
      "duration": 0.349,
      "velocity": 110,
      "chip": "ym2612"
    },
    {
      "channel": 1,
      "note": 75,
      "start": 8.6611,
      "duration": 0.0979,
      "velocity": 117,
      "chip": "ym2612"
    },
    {
      "channel": 2,
      "note": 49,
      "start": 8.6637,
      "duration": 0.0955,
      "velocity": 123,
      "chip": "ym2612"
    },
    {
      "channel": 3,
      "note": 78,
      "start": 8.6659,
      "duration": 0.0935,
      "velocity": 117,
      "chip": "ym2612"
    },
    {
      "channel": 0,
      "note": 78,
      "start": 8.6809,
      "duration": 0.2781,
      "velocity": 97,
      "chip": "ym2612"
    },
    {
      "channel": 1,
      "note": 75,
      "start": 8.7812,
      "duration": 0.0979,
      "velocity": 117,
      "chip": "ym2612"
    },
    {
      "channel": 2,
      "note": 35,
      "start": 8.7838,
      "duration": 0.0955,
      "velocity": 127,
      "chip": "ym2612"
    },
    {
      "channel": 3,
      "note": 78,
      "start": 8.7861,
      "duration": 0.0934,
      "velocity": 117,
      "chip": "ym2612"
    },
    {
      "channel": 1,
      "note": 75,
      "start": 8.9211,
      "duration": 0.0979,
      "velocity": 117,
      "chip": "ym2612"
    },
    {
      "channel": 2,
      "note": 26,
      "start": 8.9237,
      "duration": 0.0956,
      "velocity": 93,
      "chip": "ym2612"
    },
    {
      "channel": 3,
      "note": 78,
      "start": 8.9259,
      "duration": 0.0935,
      "velocity": 117,
      "chip": "ym2612"
    },
    {
      "channel": 4,
      "note": 74,
      "start": 8.928,
      "duration": 0.0916,
      "velocity": 97,
      "chip": "ym2612"
    },
    {
      "channel": 5,
      "note": 35,
      "start": 8.9301,
      "duration": 0.0896,
      "velocity": 110,
      "chip": "ym2612"
    },
    {
      "channel": 1,
      "note": 75,
      "start": 9.0612,
      "duration": 0.0979,
      "velocity": 117,
      "chip": "ym2612"
    },
    {
      "channel": 2,
      "note": 27,
      "start": 9.0633,
      "duration": 0.0959,
      "velocity": 93,
      "chip": "ym2612"
    },
    {
      "channel": 3,
      "note": 78,
      "start": 9.0656,
      "duration": 0.0938,
      "velocity": 117,
      "chip": "ym2612"
    },
    {
      "channel": 4,
      "note": 75,
      "start": 9.0678,
      "duration": 0.0918,
      "velocity": 97,
      "chip": "ym2612"
    },
    {
      "channel": 5,
      "note": 35,
      "start": 9.0699,
      "duration": 0.4898,
      "velocity": 110,
      "chip": "ym2612"
    },
    {
      "channel": 0,
      "note": 74,
      "start": 9.0809,
      "duration": 0.0981,
      "velocity": 97,
      "chip": "ym2612"
    },
    {
      "channel": 1,
      "note": 75,
      "start": 9.1812,
      "duration": 0.0979,
      "velocity": 117,
      "chip": "ym2612"
    },
    {
      "channel": 2,
      "note": 49,
      "start": 9.1838,
      "duration": 0.0955,
      "velocity": 123,
      "chip": "ym2612"
    },
    {
      "channel": 3,
      "note": 78,
      "start": 9.186,
      "duration": 0.0935,
      "velocity": 117,
      "chip": "ym2612"
    },
    {
      "channel": 4,
      "note": 78,
      "start": 9.1881,
      "duration": 0.0915,
      "velocity": 97,
      "chip": "ym2612"
    },
    {
      "channel": 0,
      "note": 75,
      "start": 9.2209,
      "duration": 0.0981,
      "velocity": 97,
      "chip": "ym2612"
    },
    {
      "channel": 1,
      "note": 75,
      "start": 9.3213,
      "duration": 0.0978,
      "velocity": 117,
      "chip": "ym2612"
    },
    {
      "channel": 2,
      "note": 35,
      "start": 9.3239,
      "duration": 0.0954,
      "velocity": 127,
      "chip": "ym2612"
    },
    {
      "channel": 3,
      "note": 78,
      "start": 9.3261,
      "duration": 0.0933,
      "velocity": 117,
      "chip": "ym2612"
    },
    {
      "channel": 4,
      "note": 80,
      "start": 9.3283,
      "duration": 0.0913,
      "velocity": 97,
      "chip": "ym2612"
    },
    {
      "channel": 0,
      "note": 78,
      "start": 9.3609,
      "duration": 0.0981,
      "velocity": 97,
      "chip": "ym2612"
    },
    {
      "channel": 1,
      "note": 75,
      "start": 9.4612,
      "duration": 0.0979,
      "velocity": 117,
      "chip": "ym2612"
    },
    {
      "channel": 2,
      "note": 49,
      "start": 9.4638,
      "duration": 0.0955,
      "velocity": 123,
      "chip": "ym2612"
    },
    {
      "channel": 3,
      "note": 78,
      "start": 9.466,
      "duration": 0.0934,
      "velocity": 117,
      "chip": "ym2612"
    },
    {
      "channel": 4,
      "note": 78,
      "start": 9.4681,
      "duration": 0.2579,
      "velocity": 97,
      "chip": "ym2612"
    },
    {
      "channel": 0,
      "note": 80,
      "start": 9.4809,
      "duration": 0.0981,
      "velocity": 97,
      "chip": "ym2612"
    },
    {
      "channel": 1,
      "note": 75,
      "start": 9.5813,
      "duration": 0.0978,
      "velocity": 117,
      "chip": "ym2612"
    },
    {
      "channel": 2,
      "note": 27,
      "start": 9.584,
      "duration": 0.0953,
      "velocity": 93,
      "chip": "ym2612"
    },
    {
      "channel": 3,
      "note": 78,
      "start": 9.5863,
      "duration": 0.0932,
      "velocity": 117,
      "chip": "ym2612"
    },
    {
      "channel": 5,
      "note": 35,
      "start": 9.5885,
      "duration": 0.3712,
      "velocity": 110,
      "chip": "ym2612"
    },
    {
      "channel": 0,
      "note": 78,
      "start": 9.6209,
      "duration": 0.2581,
      "velocity": 97,
      "chip": "ym2612"
    },
    {
      "channel": 1,
      "note": 75,
      "start": 9.7211,
      "duration": 0.0979,
      "velocity": 117,
      "chip": "ym2612"
    },
    {
      "channel": 2,
      "note": 49,
      "start": 9.7237,
      "duration": 0.0956,
      "velocity": 123,
      "chip": "ym2612"
    },
    {
      "channel": 3,
      "note": 78,
      "start": 9.7259,
      "duration": 0.0935,
      "velocity": 117,
      "chip": "ym2612"
    },
    {
      "channel": 1,
      "note": 75,
      "start": 9.8612,
      "duration": 0.0979,
      "velocity": 117,
      "chip": "ym2612"
    },
    {
      "channel": 2,
      "note": 35,
      "start": 9.8638,
      "duration": 0.0955,
      "velocity": 127,
      "chip": "ym2612"
    },
    {
      "channel": 3,
      "note": 78,
      "start": 9.8661,
      "duration": 0.0934,
      "velocity": 117,
      "chip": "ym2612"
    },
    {
      "channel": 1,
      "note": 75,
      "start": 9.9811,
      "duration": 0.0979,
      "velocity": 117,
      "chip": "ym2612"
    },
    {
      "channel": 2,
      "note": 26,
      "start": 9.9837,
      "duration": 0.0955,
      "velocity": 93,
      "chip": "ym2612"
    },
    {
      "channel": 3,
      "note": 78,
      "start": 9.9859,
      "duration": 0.0935,
      "velocity": 117,
      "chip": "ym2612"
    },
    {
      "channel": 4,
      "note": 81,
      "start": 9.988,
      "duration": 0.0916,
      "velocity": 97,
      "chip": "ym2612"
    },
    {
      "channel": 5,
      "note": 35,
      "start": 9.9901,
      "duration": 0.0896,
      "velocity": 110,
      "chip": "ym2612"
    },
    {
      "channel": 1,
      "note": 75,
      "start": 10.1212,
      "duration": 0.0979,
      "velocity": 117,
      "chip": "ym2612"
    },
    {
      "channel": 2,
      "note": 27,
      "start": 10.1233,
      "duration": 0.0959,
      "velocity": 93,
      "chip": "ym2612"
    },
    {
      "channel": 3,
      "note": 78,
      "start": 10.1256,
      "duration": 0.0938,
      "velocity": 117,
      "chip": "ym2612"
    },
    {
      "channel": 4,
      "note": 80,
      "start": 10.1278,
      "duration": 0.0918,
      "velocity": 97,
      "chip": "ym2612"
    },
    {
      "channel": 5,
      "note": 34,
      "start": 10.1299,
      "duration": 0.2099,
      "velocity": 110,
      "chip": "ym2612"
    },
    {
      "channel": 0,
      "note": 81,
      "start": 10.1609,
      "duration": 0.0781,
      "velocity": 97,
      "chip": "ym2612"
    },
    {
      "channel": 1,
      "note": 75,
      "start": 10.2412,
      "duration": 0.0979,
      "velocity": 117,
      "chip": "ym2612"
    },
    {
      "channel": 2,
      "note": 49,
      "start": 10.2438,
      "duration": 0.0955,
      "velocity": 123,
      "chip": "ym2612"
    },
    {
      "channel": 3,
      "note": 78,
      "start": 10.246,
      "duration": 0.0934,
      "velocity": 117,
      "chip": "ym2612"
    },
    {
      "channel": 4,
      "note": 78,
      "start": 10.2481,
      "duration": 0.0914,
      "velocity": 97,
      "chip": "ym2612"
    },
    {
      "channel": 0,
      "note": 80,
      "start": 10.2809,
      "duration": 0.0981,
      "velocity": 97,
      "chip": "ym2612"
    },
    {
      "channel": 1,
      "note": 75,
      "start": 10.3813,
      "duration": 0.0978,
      "velocity": 117,
      "chip": "ym2612"
    },
    {
      "channel": 2,
      "note": 35,
      "start": 10.3839,
      "duration": 0.0954,
      "velocity": 127,
      "chip": "ym2612"
    },
    {
      "channel": 3,
      "note": 78,
      "start": 10.3861,
      "duration": 0.0933,
      "velocity": 117,
      "chip": "ym2612"
    },
    {
      "channel": 4,
      "note": 75,
      "start": 10.3883,
      "duration": 0.1379,
      "velocity": 97,
      "chip": "ym2612"
    },
    {
      "channel": 5,
      "note": 29,
      "start": 10.3904,
      "duration": 0.2293,
      "velocity": 110,
      "chip": "ym2612"
    },
    {
      "channel": 0,
      "note": 78,
      "start": 10.4209,
      "duration": 0.0981,
      "velocity": 97,
      "chip": "ym2612"
    },
    {
      "channel": 1,
      "note": 75,
      "start": 10.5212,
      "duration": 0.0979,
      "velocity": 117,
      "chip": "ym2612"
    },
    {
      "channel": 2,
      "note": 49,
      "start": 10.5238,
      "duration": 0.0955,
      "velocity": 123,
      "chip": "ym2612"
    },
    {
      "channel": 3,
      "note": 78,
      "start": 10.526,
      "duration": 0.0934,
      "velocity": 117,
      "chip": "ym2612"
    },
    {
      "channel": 0,
      "note": 75,
      "start": 10.5409,
      "duration": 0.1381,
      "velocity": 97,
      "chip": "ym2612"
    },
    {
      "channel": 1,
      "note": 70,
      "start": 10.6414,
      "duration": 0.0977,
      "velocity": 117,
      "chip": "ym2612"
    },
    {
      "channel": 2,
      "note": 27,
      "start": 10.644,
      "duration": 0.0952,
      "velocity": 93,
      "chip": "ym2612"
    },
    {
      "channel": 3,
      "note": 73,
      "start": 10.6465,
      "duration": 0.0929,
      "velocity": 117,
      "chip": "ym2612"
    },
    {
      "channel": 4,
      "note": 73,
      "start": 10.6488,
      "duration": 0.2775,
      "velocity": 97,
      "chip": "ym2612"
    },
    {
      "channel": 5,
      "note": 30,
      "start": 10.6509,
      "duration": 0.3688,
      "velocity": 110,
      "chip": "ym2612"
    },
    {
      "channel": 1,
      "note": 70,
      "start": 10.7811,
      "duration": 0.0979,
      "velocity": 117,
      "chip": "ym2612"
    },
    {
      "channel": 2,
      "note": 49,
      "start": 10.7837,
      "duration": 0.0955,
      "velocity": 123,
      "chip": "ym2612"
    },
    {
      "channel": 3,
      "note": 73,
      "start": 10.7859,
      "duration": 0.0935,
      "velocity": 117,
      "chip": "ym2612"
    },
    {
      "channel": 0,
      "note": 73,
      "start": 10.821,
      "duration": 0.258,
      "velocity": 97,
      "chip": "ym2612"
    },
    {
      "channel": 1,
      "note": 70,
      "start": 10.9212,
      "duration": 0.0979,
      "velocity": 117,
      "chip": "ym2612"
    },
    {
      "channel": 2,
      "note": 35,
      "start": 10.9238,
      "duration": 0.0955,
      "velocity": 127,
      "chip": "ym2612"
    },
    {
      "channel": 3,
      "note": 73,
      "start": 10.9261,
      "duration": 0.0934,
      "velocity": 117,
      "chip": "ym2612"
    },
    {
      "channel": 1,
      "note": 70,
      "start": 11.0411,
      "duration": 0.0979,
      "velocity": 117,
      "chip": "ym2612"
    },
    {
      "channel": 2,
      "note": 26,
      "start": 11.0437,
      "duration": 0.0956,
      "velocity": 93,
      "chip": "ym2612"
    },
    {
      "channel": 3,
      "note": 73,
      "start": 11.0459,
      "duration": 0.0935,
      "velocity": 117,
      "chip": "ym2612"
    },
    {
      "channel": 4,
      "note": 69,
      "start": 11.048,
      "duration": 0.0916,
      "velocity": 97,
      "chip": "ym2612"
    },
    {
      "channel": 5,
      "note": 30,
      "start": 11.0501,
      "duration": 0.0896,
      "velocity": 110,
      "chip": "ym2612"
    },
    {
      "channel": 1,
      "note": 70,
      "start": 11.1812,
      "duration": 0.0979,
      "velocity": 117,
      "chip": "ym2612"
    },
    {
      "channel": 2,
      "note": 27,
      "start": 11.1833,
      "duration": 0.0959,
      "velocity": 93,
      "chip": "ym2612"
    },
    {
      "channel": 3,
      "note": 73,
      "start": 11.1856,
      "duration": 0.0938,
      "velocity": 117,
      "chip": "ym2612"
    },
    {
      "channel": 4,
      "note": 70,
      "start": 11.1878,
      "duration": 0.0918,
      "velocity": 97,
      "chip": "ym2612"
    },
    {
      "channel": 5,
      "note": 30,
      "start": 11.1899,
      "duration": 0.4898,
      "velocity": 110,
      "chip": "ym2612"
    },
    {
      "channel": 0,
      "note": 69,
      "start": 11.2209,
      "duration": 0.0981,
      "velocity": 97,
      "chip": "ym2612"
    },
    {
      "channel": 1,
      "note": 70,
      "start": 11.3212,
      "duration": 0.0979,
      "velocity": 117,
      "chip": "ym2612"
    },
    {
      "channel": 2,
      "note": 49,
      "start": 11.3238,
      "duration": 0.0955,
      "velocity": 123,
      "chip": "ym2612"
    },
    {
      "channel": 3,
      "note": 73,
      "start": 11.326,
      "duration": 0.0934,
      "velocity": 117,
      "chip": "ym2612"
    },
    {
      "channel": 4,
      "note": 73,
      "start": 11.3281,
      "duration": 0.0914,
      "velocity": 97,
      "chip": "ym2612"
    },
    {
      "channel": 0,
      "note": 70,
      "start": 11.3409,
      "duration": 0.0981,
      "velocity": 97,
      "chip": "ym2612"
    },
    {
      "channel": 1,
      "note": 70,
      "start": 11.4413,
      "duration": 0.0978,
      "velocity": 117,
      "chip": "ym2612"
    },
    {
      "channel": 2,
      "note": 35,
      "start": 11.4439,
      "duration": 0.0954,
      "velocity": 127,
      "chip": "ym2612"
    },
    {
      "channel": 3,
      "note": 73,
      "start": 11.4461,
      "duration": 0.0933,
      "velocity": 117,
      "chip": "ym2612"
    },
    {
      "channel": 4,
      "note": 75,
      "start": 11.4483,
      "duration": 0.0913,
      "velocity": 97,
      "chip": "ym2612"
    },
    {
      "channel": 0,
      "note": 73,
      "start": 11.4809,
      "duration": 0.0981,
      "velocity": 97,
      "chip": "ym2612"
    },
    {
      "channel": 1,
      "note": 70,
      "start": 11.5812,
      "duration": 0.0979,
      "velocity": 117,
      "chip": "ym2612"
    },
    {
      "channel": 2,
      "note": 49,
      "start": 11.5838,
      "duration": 0.0955,
      "velocity": 123,
      "chip": "ym2612"
    },
    {
      "channel": 3,
      "note": 73,
      "start": 11.586,
      "duration": 0.0934,
      "velocity": 117,
      "chip": "ym2612"
    },
    {
      "channel": 4,
      "note": 73,
      "start": 11.5881,
      "duration": 0.2579,
      "velocity": 97,
      "chip": "ym2612"
    },
    {
      "channel": 0,
      "note": 75,
      "start": 11.6209,
      "duration": 0.0981,
      "velocity": 97,
      "chip": "ym2612"
    },
    {
      "channel": 1,
      "note": 70,
      "start": 11.7213,
      "duration": 0.0978,
      "velocity": 117,
      "chip": "ym2612"
    },
    {
      "channel": 2,
      "note": 27,
      "start": 11.724,
      "duration": 0.0953,
      "velocity": 93,
      "chip": "ym2612"
    },
    {
      "channel": 3,
      "note": 73,
      "start": 11.7263,
      "duration": 0.0932,
      "velocity": 117,
      "chip": "ym2612"
    },
    {
      "channel": 5,
      "note": 30,
      "start": 11.7285,
      "duration": 0.3512,
      "velocity": 110,
      "chip": "ym2612"
    },
    {
      "channel": 0,
      "note": 73,
      "start": 11.7409,
      "duration": 0.2781,
      "velocity": 97,
      "chip": "ym2612"
    },
    {
      "channel": 1,
      "note": 70,
      "start": 11.8411,
      "duration": 0.0979,
      "velocity": 117,
      "chip": "ym2612"
    },
    {
      "channel": 2,
      "note": 49,
      "start": 11.8437,
      "duration": 0.0956,
      "velocity": 123,
      "chip": "ym2612"
    },
    {
      "channel": 3,
      "note": 73,
      "start": 11.8459,
      "duration": 0.0935,
      "velocity": 117,
      "chip": "ym2612"
    },
    {
      "channel": 1,
      "note": 70,
      "start": 11.9812,
      "duration": 0.0979,
      "velocity": 117,
      "chip": "ym2612"
    },
    {
      "channel": 2,
      "note": 35,
      "start": 11.9838,
      "duration": 0.0955,
      "velocity": 127,
      "chip": "ym2612"
    },
    {
      "channel": 3,
      "note": 73,
      "start": 11.9861,
      "duration": 0.0934,
      "velocity": 117,
      "chip": "ym2612"
    },
    {
      "channel": 1,
      "note": 70,
      "start": 12.1211,
      "duration": 0.0979,
      "velocity": 117,
      "chip": "ym2612"
    },
    {
      "channel": 2,
      "note": 26,
      "start": 12.1237,
      "duration": 0.0955,
      "velocity": 93,
      "chip": "ym2612"
    },
    {
      "channel": 3,
      "note": 73,
      "start": 12.1259,
      "duration": 0.0935,
      "velocity": 117,
      "chip": "ym2612"
    },
    {
      "channel": 4,
      "note": 69,
      "start": 12.1281,
      "duration": 0.0914,
      "velocity": 97,
      "chip": "ym2612"
    },
    {
      "channel": 5,
      "note": 30,
      "start": 12.1302,
      "duration": 0.0895,
      "velocity": 110,
      "chip": "ym2612"
    },
    {
      "channel": 1,
      "note": 70,
      "start": 12.2412,
      "duration": 0.0979,
      "velocity": 117,
      "chip": "ym2612"
    },
    {
      "channel": 2,
      "note": 27,
      "start": 12.2433,
      "duration": 0.0959,
      "velocity": 93,
      "chip": "ym2612"
    },
    {
      "channel": 3,
      "note": 73,
      "start": 12.2456,
      "duration": 0.0938,
      "velocity": 117,
      "chip": "ym2612"
    },
    {
      "channel": 4,
      "note": 70,
      "start": 12.2478,
      "duration": 0.0918,
      "velocity": 97,
      "chip": "ym2612"
    },
    {
      "channel": 5,
      "note": 32,
      "start": 12.2499,
      "duration": 0.2299,
      "velocity": 110,
      "chip": "ym2612"
    },
    {
      "channel": 0,
      "note": 69,
      "start": 12.281,
      "duration": 0.098,
      "velocity": 97,
      "chip": "ym2612"
    },
    {
      "channel": 1,
      "note": 70,
      "start": 12.3812,
      "duration": 0.0979,
      "velocity": 117,
      "chip": "ym2612"
    },
    {
      "channel": 2,
      "note": 49,
      "start": 12.3838,
      "duration": 0.0955,
      "velocity": 123,
      "chip": "ym2612"
    },
    {
      "channel": 3,
      "note": 73,
      "start": 12.386,
      "duration": 0.0934,
      "velocity": 117,
      "chip": "ym2612"
    },
    {
      "channel": 4,
      "note": 73,
      "start": 12.3881,
      "duration": 0.0914,
      "velocity": 97,
      "chip": "ym2612"
    },
    {
      "channel": 0,
      "note": 70,
      "start": 12.4209,
      "duration": 0.0981,
      "velocity": 97,
      "chip": "ym2612"
    },
    {
      "channel": 1,
      "note": 70,
      "start": 12.5213,
      "duration": 0.0978,
      "velocity": 117,
      "chip": "ym2612"
    },
    {
      "channel": 2,
      "note": 35,
      "start": 12.5239,
      "duration": 0.0954,
      "velocity": 127,
      "chip": "ym2612"
    },
    {
      "channel": 3,
      "note": 73,
      "start": 12.5261,
      "duration": 0.0933,
      "velocity": 117,
      "chip": "ym2612"
    },
    {
      "channel": 4,
      "note": 75,
      "start": 12.5283,
      "duration": 0.1179,
      "velocity": 97,
      "chip": "ym2612"
    },
    {
      "channel": 5,
      "note": 34,
      "start": 12.5304,
      "duration": 0.2093,
      "velocity": 110,
      "chip": "ym2612"
    },
    {
      "channel": 0,
      "note": 73,
      "start": 12.5409,
      "duration": 0.0981,
      "velocity": 97,
      "chip": "ym2612"
    },
    {
      "channel": 1,
      "note": 70,
      "start": 12.6412,
      "duration": 0.0979,
      "velocity": 117,
      "chip": "ym2612"
    },
    {
      "channel": 2,
      "note": 49,
      "start": 12.6438,
      "duration": 0.0955,
      "velocity": 123,
      "chip": "ym2612"
    },
    {
      "channel": 3,
      "note": 73,
      "start": 12.646,
      "duration": 0.0934,
      "velocity": 117,
      "chip": "ym2612"
    },
    {
      "channel": 0,
      "note": 75,
      "start": 12.6809,
      "duration": 0.1181,
      "velocity": 97,
      "chip": "ym2612"
    },
    {
      "channel": 1,
      "note": 77,
      "start": 12.7814,
      "duration": 0.0977,
      "velocity": 117,
      "chip": "ym2612"
    },
    {
      "channel": 2,
      "note": 27,
      "start": 12.784,
      "duration": 0.0952,
      "velocity": 93,
      "chip": "ym2612"
    },
    {
      "channel": 3,
      "note": 80,
      "start": 12.7865,
      "duration": 0.0929,
      "velocity": 117,
      "chip": "ym2612"
    },
    {
      "channel": 4,
      "note": 80,
      "start": 12.7886,
      "duration": 0.2576,
      "velocity": 97,
      "chip": "ym2612"
    },
    {
      "channel": 5,
      "note": 37,
      "start": 12.7907,
      "duration": 0.349,
      "velocity": 110,
      "chip": "ym2612"
    },
    {
      "channel": 1,
      "note": 77,
      "start": 12.9011,
      "duration": 0.0979,
      "velocity": 117,
      "chip": "ym2612"
    },
    {
      "channel": 2,
      "note": 49,
      "start": 12.9037,
      "duration": 0.0955,
      "velocity": 123,
      "chip": "ym2612"
    },
    {
      "channel": 3,
      "note": 80,
      "start": 12.9059,
      "duration": 0.0935,
      "velocity": 117,
      "chip": "ym2612"
    },
    {
      "channel": 0,
      "note": 80,
      "start": 12.9409,
      "duration": 0.2581,
      "velocity": 97,
      "chip": "ym2612"
    },
    {
      "channel": 1,
      "note": 77,
      "start": 13.0412,
      "duration": 0.0979,
      "velocity": 117,
      "chip": "ym2612"
    },
    {
      "channel": 2,
      "note": 35,
      "start": 13.0438,
      "duration": 0.0955,
      "velocity": 127,
      "chip": "ym2612"
    },
    {
      "channel": 3,
      "note": 80,
      "start": 13.0461,
      "duration": 0.0934,
      "velocity": 117,
      "chip": "ym2612"
    },
    {
      "channel": 1,
      "note": 77,
      "start": 13.1811,
      "duration": 0.0979,
      "velocity": 117,
      "chip": "ym2612"
    },
    {
      "channel": 2,
      "note": 26,
      "start": 13.1837,
      "duration": 0.0956,
      "velocity": 93,
      "chip": "ym2612"
    },
    {
      "channel": 3,
      "note": 80,
      "start": 13.1859,
      "duration": 0.0935,
      "velocity": 117,
      "chip": "ym2612"
    },
    {
      "channel": 4,
      "note": 80,
      "start": 13.188,
      "duration": 0.0916,
      "velocity": 97,
      "chip": "ym2612"
    },
    {
      "channel": 5,
      "note": 37,
      "start": 13.1901,
      "duration": 0.0896,
      "velocity": 110,
      "chip": "ym2612"
    },
    {
      "channel": 1,
      "note": 77,
      "start": 13.3012,
      "duration": 0.0979,
      "velocity": 117,
      "chip": "ym2612"
    },
    {
      "channel": 2,
      "note": 27,
      "start": 13.3033,
      "duration": 0.0959,
      "velocity": 93,
      "chip": "ym2612"
    },
    {
      "channel": 3,
      "note": 80,
      "start": 13.3056,
      "duration": 0.0938,
      "velocity": 117,
      "chip": "ym2612"
    },
    {
      "channel": 4,
      "note": 77,
      "start": 13.3078,
      "duration": 0.0918,
      "velocity": 97,
      "chip": "ym2612"
    },
    {
      "channel": 5,
      "note": 37,
      "start": 13.3099,
      "duration": 0.4898,
      "velocity": 110,
      "chip": "ym2612"
    },
    {
      "channel": 0,
      "note": 80,
      "start": 13.3409,
      "duration": 0.0981,
      "velocity": 97,
      "chip": "ym2612"
    },
    {
      "channel": 1,
      "note": 77,
      "start": 13.4412,
      "duration": 0.0979,
      "velocity": 117,
      "chip": "ym2612"
    },
    {
      "channel": 2,
      "note": 49,
      "start": 13.4438,
      "duration": 0.0955,
      "velocity": 123,
      "chip": "ym2612"
    },
    {
      "channel": 3,
      "note": 80,
      "start": 13.446,
      "duration": 0.0934,
      "velocity": 117,
      "chip": "ym2612"
    },
    {
      "channel": 4,
      "note": 76,
      "start": 13.4481,
      "duration": 0.0914,
      "velocity": 97,
      "chip": "ym2612"
    },
    {
      "channel": 0,
      "note": 77,
      "start": 13.4809,
      "duration": 0.0981,
      "velocity": 97,
      "chip": "ym2612"
    },
    {
      "channel": 1,
      "note": 77,
      "start": 13.5813,
      "duration": 0.0978,
      "velocity": 117,
      "chip": "ym2612"
    },
    {
      "channel": 2,
      "note": 35,
      "start": 13.5839,
      "duration": 0.0954,
      "velocity": 127,
      "chip": "ym2612"
    },
    {
      "channel": 3,
      "note": 80,
      "start": 13.5861,
      "duration": 0.0933,
      "velocity": 117,
      "chip": "ym2612"
    },
    {
      "channel": 4,
      "note": 75,
      "start": 13.5883,
      "duration": 0.0913,
      "velocity": 97,
      "chip": "ym2612"
    },
    {
      "channel": 0,
      "note": 76,
      "start": 13.6009,
      "duration": 0.0981,
      "velocity": 97,
      "chip": "ym2612"
    },
    {
      "channel": 1,
      "note": 77,
      "start": 13.7012,
      "duration": 0.0979,
      "velocity": 117,
      "chip": "ym2612"
    },
    {
      "channel": 2,
      "note": 49,
      "start": 13.7038,
      "duration": 0.0955,
      "velocity": 123,
      "chip": "ym2612"
    },
    {
      "channel": 3,
      "note": 80,
      "start": 13.706,
      "duration": 0.0934,
      "velocity": 117,
      "chip": "ym2612"
    },
    {
      "channel": 4,
      "note": 73,
      "start": 13.7081,
      "duration": 0.2779,
      "velocity": 97,
      "chip": "ym2612"
    },
    {
      "channel": 0,
      "note": 75,
      "start": 13.7409,
      "duration": 0.0981,
      "velocity": 97,
      "chip": "ym2612"
    },
    {
      "channel": 1,
      "note": 77,
      "start": 13.8413,
      "duration": 0.0978,
      "velocity": 117,
      "chip": "ym2612"
    },
    {
      "channel": 2,
      "note": 27,
      "start": 13.844,
      "duration": 0.0953,
      "velocity": 93,
      "chip": "ym2612"
    },
    {
      "channel": 3,
      "note": 80,
      "start": 13.8463,
      "duration": 0.0932,
      "velocity": 117,
      "chip": "ym2612"
    },
    {
      "channel": 5,
      "note": 37,
      "start": 13.8485,
      "duration": 0.3512,
      "velocity": 110,
      "chip": "ym2612"
    },
    {
      "channel": 0,
      "note": 73,
      "start": 13.8809,
      "duration": 0.2581,
      "velocity": 97,
      "chip": "ym2612"
    },
    {
      "channel": 1,
      "note": 77,
      "start": 13.9811,
      "duration": 0.0979,
      "velocity": 117,
      "chip": "ym2612"
    },
    {
      "channel": 2,
      "note": 49,
      "start": 13.9837,
      "duration": 0.0956,
      "velocity": 123,
      "chip": "ym2612"
    },
    {
      "channel": 3,
      "note": 80,
      "start": 13.9859,
      "duration": 0.0935,
      "velocity": 117,
      "chip": "ym2612"
    },
    {
      "channel": 1,
      "note": 77,
      "start": 14.1012,
      "duration": 0.0979,
      "velocity": 117,
      "chip": "ym2612"
    },
    {
      "channel": 2,
      "note": 35,
      "start": 14.1038,
      "duration": 0.0955,
      "velocity": 127,
      "chip": "ym2612"
    },
    {
      "channel": 3,
      "note": 80,
      "start": 14.1061,
      "duration": 0.0934,
      "velocity": 117,
      "chip": "ym2612"
    },
    {
      "channel": 1,
      "note": 77,
      "start": 14.2411,
      "duration": 0.0979,
      "velocity": 117,
      "chip": "ym2612"
    },
    {
      "channel": 2,
      "note": 26,
      "start": 14.2437,
      "duration": 0.0955,
      "velocity": 93,
      "chip": "ym2612"
    },
    {
      "channel": 3,
      "note": 80,
      "start": 14.2459,
      "duration": 0.0935,
      "velocity": 117,
      "chip": "ym2612"
    },
    {
      "channel": 4,
      "note": 69,
      "start": 14.248,
      "duration": 0.0916,
      "velocity": 97,
      "chip": "ym2612"
    },
    {
      "channel": 5,
      "note": 25,
      "start": 14.2501,
      "duration": 0.0896,
      "velocity": 110,
      "chip": "ym2612"
    },
    {
      "channel": 1,
      "note": 77,
      "start": 14.3812,
      "duration": 0.0979,
      "velocity": 117,
      "chip": "ym2612"
    },
    {
      "channel": 2,
      "note": 27,
      "start": 14.3833,
      "duration": 0.0959,
      "velocity": 93,
      "chip": "ym2612"
    },
    {
      "channel": 3,
      "note": 80,
      "start": 14.3856,
      "duration": 0.0938,
      "velocity": 117,
      "chip": "ym2612"
    },
    {
      "channel": 4,
      "note": 70,
      "start": 14.3878,
      "duration": 0.0918,
      "velocity": 97,
      "chip": "ym2612"
    },
    {
      "channel": 5,
      "note": 27,
      "start": 14.3899,
      "duration": 0.2099,
      "velocity": 110,
      "chip": "ym2612"
    },
    {
      "channel": 0,
      "note": 69,
      "start": 14.4009,
      "duration": 0.0981,
      "velocity": 97,
      "chip": "ym2612"
    },
    {
      "channel": 1,
      "note": 77,
      "start": 14.5012,
      "duration": 0.0979,
      "velocity": 117,
      "chip": "ym2612"
    },
    {
      "channel": 2,
      "note": 49,
      "start": 14.5038,
      "duration": 0.0955,
      "velocity": 123,
      "chip": "ym2612"
    },
    {
      "channel": 3,
      "note": 80,
      "start": 14.506,
      "duration": 0.0934,
      "velocity": 117,
      "chip": "ym2612"
    },
    {
      "channel": 4,
      "note": 73,
      "start": 14.5081,
      "duration": 0.0914,
      "velocity": 97,
      "chip": "ym2612"
    },
    {
      "channel": 0,
      "note": 70,
      "start": 14.5409,
      "duration": 0.0981,
      "velocity": 97,
      "chip": "ym2612"
    },
    {
      "channel": 1,
      "note": 77,
      "start": 14.6413,
      "duration": 0.0978,
      "velocity": 117,
      "chip": "ym2612"
    },
    {
      "channel": 2,
      "note": 35,
      "start": 14.6439,
      "duration": 0.0954,
      "velocity": 127,
      "chip": "ym2612"
    },
    {
      "channel": 3,
      "note": 80,
      "start": 14.6461,
      "duration": 0.0933,
      "velocity": 117,
      "chip": "ym2612"
    },
    {
      "channel": 4,
      "note": 75,
      "start": 14.6483,
      "duration": 0.1379,
      "velocity": 97,
      "chip": "ym2612"
    },
    {
      "channel": 5,
      "note": 29,
      "start": 14.6504,
      "duration": 0.2293,
      "velocity": 110,
      "chip": "ym2612"
    },
    {
      "channel": 0,
      "note": 73,
      "start": 14.6809,
      "duration": 0.0981,
      "velocity": 97,
      "chip": "ym2612"
    },
    {
      "channel": 1,
      "note": 77,
      "start": 14.7812,
      "duration": 0.0979,
      "velocity": 117,
      "chip": "ym2612"
    },
    {
      "channel": 2,
      "note": 49,
      "start": 14.7838,
      "duration": 0.0955,
      "velocity": 123,
      "chip": "ym2612"
    },
    {
      "channel": 3,
      "note": 80,
      "start": 14.786,
      "duration": 0.0934,
      "velocity": 117,
      "chip": "ym2612"
    },
    {
      "channel": 0,
      "note": 75,
      "start": 14.8009,
      "duration": 0.1381,
      "velocity": 97,
      "chip": "ym2612"
    },
    {
      "channel": 1,
      "note": 73,
      "start": 14.9014,
      "duration": 0.0976,
      "velocity": 117,
      "chip": "ym2612"
    },
    {
      "channel": 2,
      "note": 27,
      "start": 14.9042,
      "duration": 0.095,
      "velocity": 93,
      "chip": "ym2612"
    },
    {
      "channel": 3,
      "note": 70,
      "start": 14.9068,
      "duration": 0.0926,
      "velocity": 117,
      "chip": "ym2612"
    },
    {
      "channel": 4,
      "note": 78,
      "start": 14.909,
      "duration": 0.1904,
      "velocity": 97,
      "chip": "ym2612"
    },
    {
      "channel": 5,
      "note": 30,
      "start": 14.9113,
      "duration": 0.3684,
      "velocity": 110,
      "chip": "ym2612"
    },
    {
      "channel": 1,
      "note": 73,
      "start": 15.0411,
      "duration": 0.0979,
      "velocity": 117,
      "chip": "ym2612"
    },
    {
      "channel": 2,
      "note": 49,
      "start": 15.0437,
      "duration": 0.0955,
      "velocity": 123,
      "chip": "ym2612"
    },
    {
      "channel": 3,
      "note": 70,
      "start": 15.0459,
      "duration": 0.0935,
      "velocity": 117,
      "chip": "ym2612"
    },
    {
      "channel": 0,
      "note": 78,
      "start": 15.0809,
      "duration": 0.1981,
      "velocity": 97,
      "chip": "ym2612"
    },
    {
      "channel": 1,
      "note": 75,
      "start": 15.1812,
      "duration": 0.098,
      "velocity": 117,
      "chip": "ym2612"
    },
    {
      "channel": 2,
      "note": 35,
      "start": 15.1838,
      "duration": 0.0955,
      "velocity": 127,
      "chip": "ym2612"
    },
    {
      "channel": 3,
      "note": 70,
      "start": 15.1861,
      "duration": 0.0934,
      "velocity": 117,
      "chip": "ym2612"
    },
    {
      "channel": 4,
      "note": 78,
      "start": 15.1882,
      "duration": 0.1711,
      "velocity": 97,
      "chip": "ym2612"
    },
    {
      "channel": 1,
      "note": 73,
      "start": 15.3011,
      "duration": 0.0979,
      "velocity": 117,
      "chip": "ym2612"
    },
    {
      "channel": 2,
      "note": 26,
      "start": 15.3037,
      "duration": 0.0955,
      "velocity": 93,
      "chip": "ym2612"
    },
    {
      "channel": 3,
      "note": 70,
      "start": 15.3059,
      "duration": 0.0935,
      "velocity": 117,
      "chip": "ym2612"
    },
    {
      "channel": 5,
      "note": 30,
      "start": 15.3081,
      "duration": 0.0916,
      "velocity": 110,
      "chip": "ym2612"
    },
    {
      "channel": 0,
      "note": 78,
      "start": 15.3409,
      "duration": 0.1981,
      "velocity": 97,
      "chip": "ym2612"
    },
    {
      "channel": 1,
      "note": 73,
      "start": 15.4412,
      "duration": 0.098,
      "velocity": 117,
      "chip": "ym2612"
    },
    {
      "channel": 2,
      "note": 27,
      "start": 15.4433,
      "duration": 0.096,
      "velocity": 93,
      "chip": "ym2612"
    },
    {
      "channel": 3,
      "note": 70,
      "start": 15.4456,
      "duration": 0.0939,
      "velocity": 117,
      "chip": "ym2612"
    },
    {
      "channel": 4,
      "note": 78,
      "start": 15.4478,
      "duration": 0.0516,
      "velocity": 97,
      "chip": "ym2612"
    },
    {
      "channel": 5,
      "note": 30,
      "start": 15.4499,
      "duration": 0.3519,
      "velocity": 110,
      "chip": "ym2612"
    },
    {
      "channel": 1,
      "note": 73,
      "start": 15.5611,
      "duration": 0.0981,
      "velocity": 117,
      "chip": "ym2612"
    },
    {
      "channel": 2,
      "note": 49,
      "start": 15.5637,
      "duration": 0.0956,
      "velocity": 123,
      "chip": "ym2612"
    },
    {
      "channel": 3,
      "note": 70,
      "start": 15.5659,
      "duration": 0.0936,
      "velocity": 117,
      "chip": "ym2612"
    },
    {
      "channel": 4,
      "note": 78,
      "start": 15.568,
      "duration": 0.1913,
      "velocity": 97,
      "chip": "ym2612"
    },
    {
      "channel": 0,
      "note": 78,
      "start": 15.6009,
      "duration": 0.0581,
      "velocity": 97,
      "chip": "ym2612"
    },
    {
      "channel": 1,
      "note": 75,
      "start": 15.7012,
      "duration": 0.0979,
      "velocity": 117,
      "chip": "ym2612"
    },
    {
      "channel": 2,
      "note": 35,
      "start": 15.7038,
      "duration": 0.0955,
      "velocity": 127,
      "chip": "ym2612"
    },
    {
      "channel": 3,
      "note": 70,
      "start": 15.7061,
      "duration": 0.0933,
      "velocity": 117,
      "chip": "ym2612"
    },
    {
      "channel": 0,
      "note": 78,
      "start": 15.7409,
      "duration": 0.1981,
      "velocity": 97,
      "chip": "ym2612"
    },
    {
      "channel": 4,
      "note": 79,
      "start": 15.8015,
      "duration": 0.0444,
      "velocity": 97,
      "chip": "ym2612"
    },
    {
      "channel": 1,
      "note": 73,
      "start": 15.841,
      "duration": 0.2181,
      "velocity": 117,
      "chip": "ym2612"
    },
    {
      "channel": 2,
      "note": 26,
      "start": 15.8436,
      "duration": 0.0957,
      "velocity": 93,
      "chip": "ym2612"
    },
    {
      "channel": 3,
      "note": 68,
      "start": 15.8457,
      "duration": 0.2137,
      "velocity": 117,
      "chip": "ym2612"
    },
    {
      "channel": 4,
      "note": 80,
      "start": 15.8479,
      "duration": 0.1915,
      "velocity": 97,
      "chip": "ym2612"
    },
    {
      "channel": 5,
      "note": 37,
      "start": 15.85,
      "duration": 0.2097,
      "velocity": 110,
      "chip": "ym2612"
    },
    {
      "channel": 0,
      "note": 79,
      "start": 15.9609,
      "duration": 0.0381,
      "velocity": 97,
      "chip": "ym2612"
    },
    {
      "channel": 2,
      "note": 49,
      "start": 15.9636,
      "duration": 0.0957,
      "velocity": 123,
      "chip": "ym2612"
    },
    {
      "channel": 0,
      "note": 80,
      "start": 16.001,
      "duration": 0.198,
      "velocity": 97,
      "chip": "ym2612"
    },
    {
      "channel": 1,
      "note": 73,
      "start": 16.1011,
      "duration": 0.0981,
      "velocity": 117,
      "chip": "ym2612"
    },
    {
      "channel": 2,
      "note": 49,
      "start": 16.1033,
      "duration": 0.096,
      "velocity": 123,
      "chip": "ym2612"
    },
    {
      "channel": 3,
      "note": 68,
      "start": 16.1056,
      "duration": 0.0939,
      "velocity": 117,
      "chip": "ym2612"
    },
    {
      "channel": 5,
      "note": 37,
      "start": 16.1078,
      "duration": 0.092,
      "velocity": 110,
      "chip": "ym2612"
    },
    {
      "channel": 1,
      "note": 73,
      "start": 16.2412,
      "duration": 0.0979,
      "velocity": 117,
      "chip": "ym2612"
    },
    {
      "channel": 2,
      "note": 35,
      "start": 16.2438,
      "duration": 0.0955,
      "velocity": 127,
      "chip": "ym2612"
    },
    {
      "channel": 3,
      "note": 70,
      "start": 16.246,
      "duration": 0.0934,
      "velocity": 117,
      "chip": "ym2612"
    },
    {
      "channel": 5,
      "note": 25,
      "start": 16.2482,
      "duration": 0.0915,
      "velocity": 110,
      "chip": "ym2612"
    },
    {
      "channel": 1,
      "note": 73,
      "start": 16.3611,
      "duration": 0.0979,
      "velocity": 117,
      "chip": "ym2612"
    },
    {
      "channel": 2,
      "note": 26,
      "start": 16.3637,
      "duration": 0.0955,
      "velocity": 93,
      "chip": "ym2612"
    },
    {
      "channel": 3,
      "note": 68,
      "start": 16.3659,
      "duration": 0.0935,
      "velocity": 117,
      "chip": "ym2612"
    },
    {
      "channel": 4,
      "note": 76,
      "start": 16.368,
      "duration": 0.0916,
      "velocity": 97,
      "chip": "ym2612"
    },
    {
      "channel": 5,
      "note": 25,
      "start": 16.3701,
      "duration": 0.0896,
      "velocity": 110,
      "chip": "ym2612"
    },
    {
      "channel": 1,
      "note": 73,
      "start": 16.5013,
      "duration": 0.0978,
      "velocity": 117,
      "chip": "ym2612"
    },
    {
      "channel": 2,
      "note": 27,
      "start": 16.5035,
      "duration": 0.0958,
      "velocity": 93,
      "chip": "ym2612"
    },
    {
      "channel": 3,
      "note": 68,
      "start": 16.5058,
      "duration": 0.0936,
      "velocity": 117,
      "chip": "ym2612"
    },
    {
      "channel": 4,
      "note": 77,
      "start": 16.5079,
      "duration": 0.0916,
      "velocity": 97,
      "chip": "ym2612"
    },
    {
      "channel": 5,
      "note": 27,
      "start": 16.51,
      "duration": 0.0897,
      "velocity": 110,
      "chip": "ym2612"
    },
    {
      "channel": 0,
      "note": 76,
      "start": 16.5409,
      "duration": 0.0981,
      "velocity": 97,
      "chip": "ym2612"
    },
    {
      "channel": 1,
      "note": 73,
      "start": 16.6412,
      "duration": 0.0979,
      "velocity": 117,
      "chip": "ym2612"
    },
    {
      "channel": 2,
      "note": 49,
      "start": 16.6438,
      "duration": 0.0955,
      "velocity": 123,
      "chip": "ym2612"
    },
    {
      "channel": 3,
      "note": 68,
      "start": 16.646,
      "duration": 0.0934,
      "velocity": 117,
      "chip": "ym2612"
    },
    {
      "channel": 4,
      "note": 75,
      "start": 16.6481,
      "duration": 0.0914,
      "velocity": 97,
      "chip": "ym2612"
    },
    {
      "channel": 5,
      "note": 27,
      "start": 16.6502,
      "duration": 0.0895,
      "velocity": 110,
      "chip": "ym2612"
    },
    {
      "channel": 0,
      "note": 77,
      "start": 16.6609,
      "duration": 0.0981,
      "velocity": 97,
      "chip": "ym2612"
    },
    {
      "channel": 1,
      "note": 73,
      "start": 16.7613,
      "duration": 0.0978,
      "velocity": 117,
      "chip": "ym2612"
    },
    {
      "channel": 2,
      "note": 35,
      "start": 16.7639,
      "duration": 0.0954,
      "velocity": 127,
      "chip": "ym2612"
    },
    {
      "channel": 3,
      "note": 70,
      "start": 16.7662,
      "duration": 0.0932,
      "velocity": 117,
      "chip": "ym2612"
    },
    {
      "channel": 4,
      "note": 73,
      "start": 16.7685,
      "duration": 0.1377,
      "velocity": 97,
      "chip": "ym2612"
    },
    {
      "channel": 5,
      "note": 29,
      "start": 16.7706,
      "duration": 0.0891,
      "velocity": 110,
      "chip": "ym2612"
    },
    {
      "channel": 0,
      "note": 75,
      "start": 16.8009,
      "duration": 0.0981,
      "velocity": 97,
      "chip": "ym2612"
    },
    {
      "channel": 1,
      "note": 73,
      "start": 16.9012,
      "duration": 0.0979,
      "velocity": 117,
      "chip": "ym2612"
    },
    {
      "channel": 2,
      "note": 49,
      "start": 16.9038,
      "duration": 0.0955,
      "velocity": 123,
      "chip": "ym2612"
    },
    {
      "channel": 3,
      "note": 68,
      "start": 16.906,
      "duration": 0.0934,
      "velocity": 117,
      "chip": "ym2612"
    },
    {
      "channel": 5,
      "note": 29,
      "start": 16.9083,
      "duration": 0.0915,
      "velocity": 110,
      "chip": "ym2612"
    },
    {
      "channel": 0,
      "note": 73,
      "start": 16.941,
      "duration": 0.098,
      "velocity": 97,
      "chip": "ym2612"
    },
    {
      "channel": 0,
      "note": 75,
      "start": 17.0419,
      "duration": 0.0971,
      "velocity": 117,
      "chip": "ym2612"
    },
    {
      "channel": 1,
      "note": 63,
      "start": 17.0454,
      "duration": 0.0937,
      "velocity": 113,
      "chip": "ym2612"
    },
    {
      "channel": 2,
      "note": 27,
      "start": 17.0484,
      "duration": 0.0909,
      "velocity": 93,
      "chip": "ym2612"
    },
    {
      "channel": 3,
      "note": 71,
      "start": 17.0511,
      "duration": 0.0884,
      "velocity": 117,
      "chip": "ym2612"
    },
    {
      "channel": 4,
      "note": 78,
      "start": 17.054,
      "duration": 0.0857,
      "velocity": 117,
      "chip": "ym2612"
    },
    {
      "channel": 5,
      "note": 35,
      "start": 17.0569,
      "duration": 0.0829,
      "velocity": 110,
      "chip": "ym2612"
    },
    {
      "channel": 0,
      "note": 75,
      "start": 17.161,
      "duration": 0.098,
      "velocity": 117,
      "chip": "ym2612"
    },
    {
      "channel": 1,
      "note": 63,
      "start": 17.1631,
      "duration": 0.0961,
      "velocity": 113,
      "chip": "ym2612"
    },
    {
      "channel": 2,
      "note": 26,
      "start": 17.1652,
      "duration": 0.0941,
      "velocity": 93,
      "chip": "ym2612"
    },
    {
      "channel": 3,
      "note": 71,
      "start": 17.1674,
      "duration": 0.0921,
      "velocity": 117,
      "chip": "ym2612"
    },
    {
      "channel": 4,
      "note": 78,
      "start": 17.1696,
      "duration": 0.0901,
      "velocity": 117,
      "chip": "ym2612"
    },
    {
      "channel": 5,
      "note": 35,
      "start": 17.1717,
      "duration": 0.0881,
      "velocity": 110,
      "chip": "ym2612"
    },
    {
      "channel": 0,
      "note": 75,
      "start": 17.301,
      "duration": 0.098,
      "velocity": 117,
      "chip": "ym2612"
    },
    {
      "channel": 1,
      "note": 63,
      "start": 17.3031,
      "duration": 0.0961,
      "velocity": 113,
      "chip": "ym2612"
    },
    {
      "channel": 2,
      "note": 35,
      "start": 17.3056,
      "duration": 0.0937,
      "velocity": 127,
      "chip": "ym2612"
    },
    {
      "channel": 3,
      "note": 71,
      "start": 17.3079,
      "duration": 0.0916,
      "velocity": 117,
      "chip": "ym2612"
    },
    {
      "channel": 4,
      "note": 78,
      "start": 17.3102,
      "duration": 0.0895,
      "velocity": 117,
      "chip": "ym2612"
    },
    {
      "channel": 5,
      "note": 35,
      "start": 17.3124,
      "duration": 0.0875,
      "velocity": 110,
      "chip": "ym2612"
    },
    {
      "channel": 0,
      "note": 75,
      "start": 17.4409,
      "duration": 0.0981,
      "velocity": 117,
      "chip": "ym2612"
    },
    {
      "channel": 1,
      "note": 63,
      "start": 17.443,
      "duration": 0.0962,
      "velocity": 113,
      "chip": "ym2612"
    },
    {
      "channel": 2,
      "note": 26,
      "start": 17.4456,
      "duration": 0.0937,
      "velocity": 93,
      "chip": "ym2612"
    },
    {
      "channel": 3,
      "note": 71,
      "start": 17.4477,
      "duration": 0.0918,
      "velocity": 117,
      "chip": "ym2612"
    },
    {
      "channel": 4,
      "note": 78,
      "start": 17.4498,
      "duration": 0.0899,
      "velocity": 117,
      "chip": "ym2612"
    },
    {
      "channel": 5,
      "note": 35,
      "start": 17.4519,
      "duration": 0.6561,
      "velocity": 110,
      "chip": "ym2612"
    },
    {
      "channel": 2,
      "note": 27,
      "start": 17.5638,
      "duration": 0.0954,
      "velocity": 93,
      "chip": "ym2612"
    },
    {
      "channel": 0,
      "note": 78,
      "start": 17.601,
      "duration": 0.098,
      "velocity": 117,
      "chip": "ym2612"
    },
    {
      "channel": 4,
      "note": 80,
      "start": 17.6614,
      "duration": 0.0446,
      "velocity": 117,
      "chip": "ym2612"
    },
    {
      "channel": 1,
      "note": 65,
      "start": 17.7011,
      "duration": 0.0979,
      "velocity": 113,
      "chip": "ym2612"
    },
    {
      "channel": 2,
      "note": 49,
      "start": 17.7037,
      "duration": 0.0955,
      "velocity": 123,
      "chip": "ym2612"
    },
    {
      "channel": 4,
      "note": 83,
      "start": 17.7081,
      "duration": 0.0914,
      "velocity": 117,
      "chip": "ym2612"
    },
    {
      "channel": 1,
      "note": 65,
      "start": 17.841,
      "duration": 0.0781,
      "velocity": 113,
      "chip": "ym2612"
    },
    {
      "channel": 2,
      "note": 35,
      "start": 17.8436,
      "duration": 0.0757,
      "velocity": 127,
      "chip": "ym2612"
    },
    {
      "channel": 4,
      "note": 80,
      "start": 17.8458,
      "duration": 0.0737,
      "velocity": 117,
      "chip": "ym2612"
    },
    {
      "channel": 2,
      "note": 49,
      "start": 17.9615,
      "duration": 0.0976,
      "velocity": 123,
      "chip": "ym2612"
    },
    {
      "channel": 4,
      "note": 78,
      "start": 17.9638,
      "duration": 0.0956,
      "velocity": 117,
      "chip": "ym2612"
    },
    {
      "channel": 0,
      "note": 78,
      "start": 18.1009,
      "duration": 0.0981,
      "velocity": 117,
      "chip": "ym2612"
    },
    {
      "channel": 2,
      "note": 27,
      "start": 18.1056,
      "duration": 0.0936,
      "velocity": 93,
      "chip": "ym2612"
    },
    {
      "channel": 4,
      "note": 83,
      "start": 18.1079,
      "duration": 0.0916,
      "velocity": 117,
      "chip": "ym2612"
    },
    {
      "channel": 5,
      "note": 71,
      "start": 18.1107,
      "duration": 0.089,
      "velocity": 127,
      "chip": "ym2612"
    },
    {
      "channel": 0,
      "note": 78,
      "start": 18.2209,
      "duration": 0.2381,
      "velocity": 117,
      "chip": "ym2612"
    },
    {
      "channel": 1,
      "note": 63,
      "start": 18.2231,
      "duration": 0.136,
      "velocity": 113,
      "chip": "ym2612"
    },
    {
      "channel": 2,
      "note": 49,
      "start": 18.2256,
      "duration": 0.0935,
      "velocity": 123,
      "chip": "ym2612"
    },
    {
      "channel": 4,
      "note": 83,
      "start": 18.2279,
      "duration": 0.0916,
      "velocity": 117,
      "chip": "ym2612"
    },
    {
      "channel": 5,
      "note": 71,
      "start": 18.23,
      "duration": 0.2297,
      "velocity": 127,
      "chip": "ym2612"
    },
    {
      "channel": 2,
      "note": 35,
      "start": 18.3617,
      "duration": 0.0976,
      "velocity": 127,
      "chip": "ym2612"
    },
    {
      "channel": 4,
      "note": 80,
      "start": 18.3639,
      "duration": 0.0956,
      "velocity": 117,
      "chip": "ym2612"
    },
    {
      "channel": 1,
      "note": 63,
      "start": 18.501,
      "duration": 0.0981,
      "velocity": 113,
      "chip": "ym2612"
    },
    {
      "channel": 2,
      "note": 49,
      "start": 18.5036,
      "duration": 0.0957,
      "velocity": 123,
      "chip": "ym2612"
    },
    {
      "channel": 4,
      "note": 78,
      "start": 18.5058,
      "duration": 0.0937,
      "velocity": 117,
      "chip": "ym2612"
    },
    {
      "channel": 5,
      "note": 71,
      "start": 18.508,
      "duration": 0.2116,
      "velocity": 127,
      "chip": "ym2612"
    },
    {
      "channel": 0,
      "note": 78,
      "start": 18.6209,
      "duration": 0.2781,
      "velocity": 117,
      "chip": "ym2612"
    },
    {
      "channel": 1,
      "note": 65,
      "start": 18.623,
      "duration": 0.096,
      "velocity": 113,
      "chip": "ym2612"
    },
    {
      "channel": 2,
      "note": 27,
      "start": 18.6257,
      "duration": 0.0936,
      "velocity": 93,
      "chip": "ym2612"
    },
    {
      "channel": 4,
      "note": 83,
      "start": 18.6279,
      "duration": 0.2316,
      "velocity": 117,
      "chip": "ym2612"
    },
    {
      "channel": 1,
      "note": 65,
      "start": 18.761,
      "duration": 0.0981,
      "velocity": 113,
      "chip": "ym2612"
    },
    {
      "channel": 2,
      "note": 49,
      "start": 18.7636,
      "duration": 0.0957,
      "velocity": 123,
      "chip": "ym2612"
    },
    {
      "channel": 5,
      "note": 71,
      "start": 18.766,
      "duration": 0.0937,
      "velocity": 127,
      "chip": "ym2612"
    },
    {
      "channel": 1,
      "note": 63,
      "start": 18.9011,
      "duration": 0.1179,
      "velocity": 113,
      "chip": "ym2612"
    },
    {
      "channel": 2,
      "note": 35,
      "start": 18.9037,
      "duration": 0.0955,
      "velocity": 127,
      "chip": "ym2612"
    },
    {
      "channel": 4,
      "note": 80,
      "start": 18.9059,
      "duration": 0.0935,
      "velocity": 117,
      "chip": "ym2612"
    },
    {
      "channel": 5,
      "note": 71,
      "start": 18.9081,
      "duration": 0.2114,
      "velocity": 127,
      "chip": "ym2612"
    },
    {
      "channel": 2,
      "note": 49,
      "start": 19.0217,
      "duration": 0.0975,
      "velocity": 123,
      "chip": "ym2612"
    },
    {
      "channel": 4,
      "note": 78,
      "start": 19.0239,
      "duration": 0.0956,
      "velocity": 117,
      "chip": "ym2612"
    },
    {
      "channel": 0,
      "note": 73,
      "start": 19.1612,
      "duration": 0.0978,
      "velocity": 117,
      "chip": "ym2612"
    },
    {
      "channel": 1,
      "note": 63,
      "start": 19.1645,
      "duration": 0.0947,
      "velocity": 113,
      "chip": "ym2612"
    },
    {
      "channel": 2,
      "note": 27,
      "start": 19.1672,
      "duration": 0.0921,
      "velocity": 93,
      "chip": "ym2612"
    },
    {
      "channel": 3,
      "note": 70,
      "start": 19.1697,
      "duration": 0.0898,
      "velocity": 117,
      "chip": "ym2612"
    },
    {
      "channel": 4,
      "note": 78,
      "start": 19.1721,
      "duration": 0.0876,
      "velocity": 117,
      "chip": "ym2612"
    },
    {
      "channel": 5,
      "note": 30,
      "start": 19.1748,
      "duration": 0.085,
      "velocity": 110,
      "chip": "ym2612"
    },
    {
      "channel": 0,
      "note": 73,
      "start": 19.301,
      "duration": 0.098,
      "velocity": 117,
      "chip": "ym2612"
    },
    {
      "channel": 1,
      "note": 63,
      "start": 19.3031,
      "duration": 0.0961,
      "velocity": 113,
      "chip": "ym2612"
    },
    {
      "channel": 2,
      "note": 26,
      "start": 19.3052,
      "duration": 0.0941,
      "velocity": 93,
      "chip": "ym2612"
    },
    {
      "channel": 3,
      "note": 70,
      "start": 19.3074,
      "duration": 0.0921,
      "velocity": 117,
      "chip": "ym2612"
    },
    {
      "channel": 4,
      "note": 78,
      "start": 19.3096,
      "duration": 0.0901,
      "velocity": 117,
      "chip": "ym2612"
    },
    {
      "channel": 5,
      "note": 30,
      "start": 19.3117,
      "duration": 0.0881,
      "velocity": 110,
      "chip": "ym2612"
    },
    {
      "channel": 0,
      "note": 73,
      "start": 19.421,
      "duration": 0.098,
      "velocity": 117,
      "chip": "ym2612"
    },
    {
      "channel": 1,
      "note": 63,
      "start": 19.4231,
      "duration": 0.0961,
      "velocity": 113,
      "chip": "ym2612"
    },
    {
      "channel": 2,
      "note": 35,
      "start": 19.4256,
      "duration": 0.0937,
      "velocity": 127,
      "chip": "ym2612"
    },
    {
      "channel": 3,
      "note": 70,
      "start": 19.4279,
      "duration": 0.0916,
      "velocity": 117,
      "chip": "ym2612"
    },
    {
      "channel": 4,
      "note": 78,
      "start": 19.4302,
      "duration": 0.0895,
      "velocity": 117,
      "chip": "ym2612"
    },
    {
      "channel": 5,
      "note": 30,
      "start": 19.4324,
      "duration": 0.0875,
      "velocity": 110,
      "chip": "ym2612"
    },
    {
      "channel": 0,
      "note": 73,
      "start": 19.5609,
      "duration": 0.0981,
      "velocity": 117,
      "chip": "ym2612"
    },
    {
      "channel": 1,
      "note": 63,
      "start": 19.563,
      "duration": 0.0962,
      "velocity": 113,
      "chip": "ym2612"
    },
    {
      "channel": 2,
      "note": 26,
      "start": 19.5656,
      "duration": 0.0937,
      "velocity": 93,
      "chip": "ym2612"
    },
    {
      "channel": 3,
      "note": 70,
      "start": 19.5677,
      "duration": 0.0918,
      "velocity": 117,
      "chip": "ym2612"
    },
    {
      "channel": 4,
      "note": 78,
      "start": 19.5698,
      "duration": 0.0899,
      "velocity": 117,
      "chip": "ym2612"
    },
    {
      "channel": 5,
      "note": 30,
      "start": 19.5719,
      "duration": 0.6561,
      "velocity": 110,
      "chip": "ym2612"
    },
    {
      "channel": 2,
      "note": 27,
      "start": 19.7039,
      "duration": 0.0953,
      "velocity": 93,
      "chip": "ym2612"
    },
    {
      "channel": 0,
      "note": 73,
      "start": 19.721,
      "duration": 0.098,
      "velocity": 117,
      "chip": "ym2612"
    },
    {
      "channel": 4,
      "note": 75,
      "start": 19.8014,
      "duration": 0.0246,
      "velocity": 117,
      "chip": "ym2612"
    },
    {
      "channel": 1,
      "note": 65,
      "start": 19.8211,
      "duration": 0.0979,
      "velocity": 113,
      "chip": "ym2612"
    },
    {
      "channel": 2,
      "note": 49,
      "start": 19.8237,
      "duration": 0.0955,
      "velocity": 123,
      "chip": "ym2612"
    },
    {
      "channel": 4,
      "note": 78,
      "start": 19.8281,
      "duration": 0.0914,
      "velocity": 117,
      "chip": "ym2612"
    },
    {
      "channel": 1,
      "note": 65,
      "start": 19.961,
      "duration": 0.0981,
      "velocity": 113,
      "chip": "ym2612"
    },
    {
      "channel": 2,
      "note": 35,
      "start": 19.9636,
      "duration": 0.0957,
      "velocity": 127,
      "chip": "ym2612"
    },
    {
      "channel": 4,
      "note": 75,
      "start": 19.9658,
      "duration": 0.0937,
      "velocity": 117,
      "chip": "ym2612"
    },
    {
      "channel": 2,
      "note": 49,
      "start": 20.1015,
      "duration": 0.0976,
      "velocity": 123,
      "chip": "ym2612"
    },
    {
      "channel": 4,
      "note": 73,
      "start": 20.1038,
      "duration": 0.0956,
      "velocity": 117,
      "chip": "ym2612"
    },
    {
      "channel": 0,
      "note": 73,
      "start": 20.2209,
      "duration": 0.0981,
      "velocity": 117,
      "chip": "ym2612"
    },
    {
      "channel": 2,
      "note": 27,
      "start": 20.2256,
      "duration": 0.0936,
      "velocity": 93,
      "chip": "ym2612"
    },
    {
      "channel": 4,
      "note": 78,
      "start": 20.2279,
      "duration": 0.0916,
      "velocity": 117,
      "chip": "ym2612"
    },
    {
      "channel": 5,
      "note": 71,
      "start": 20.2307,
      "duration": 0.089,
      "velocity": 127,
      "chip": "ym2612"
    },
    {
      "channel": 0,
      "note": 73,
      "start": 20.3609,
      "duration": 0.2181,
      "velocity": 117,
      "chip": "ym2612"
    },
    {
      "channel": 1,
      "note": 63,
      "start": 20.3631,
      "duration": 0.116,
      "velocity": 113,
      "chip": "ym2612"
    },
    {
      "channel": 2,
      "note": 49,
      "start": 20.3656,
      "duration": 0.0935,
      "velocity": 123,
      "chip": "ym2612"
    },
    {
      "channel": 4,
      "note": 78,
      "start": 20.3679,
      "duration": 0.0916,
      "velocity": 117,
      "chip": "ym2612"
    },
    {
      "channel": 5,
      "note": 71,
      "start": 20.37,
      "duration": 0.2097,
      "velocity": 127,
      "chip": "ym2612"
    },
    {
      "channel": 2,
      "note": 35,
      "start": 20.4817,
      "duration": 0.0976,
      "velocity": 127,
      "chip": "ym2612"
    },
    {
      "channel": 4,
      "note": 75,
      "start": 20.4839,
      "duration": 0.0956,
      "velocity": 117,
      "chip": "ym2612"
    },
    {
      "channel": 1,
      "note": 63,
      "start": 20.621,
      "duration": 0.0981,
      "velocity": 113,
      "chip": "ym2612"
    },
    {
      "channel": 2,
      "note": 49,
      "start": 20.6236,
      "duration": 0.0957,
      "velocity": 123,
      "chip": "ym2612"
    },
    {
      "channel": 4,
      "note": 73,
      "start": 20.6258,
      "duration": 0.0937,
      "velocity": 117,
      "chip": "ym2612"
    },
    {
      "channel": 5,
      "note": 71,
      "start": 20.628,
      "duration": 0.2316,
      "velocity": 127,
      "chip": "ym2612"
    },
    {
      "channel": 0,
      "note": 73,
      "start": 20.7609,
      "duration": 0.2581,
      "velocity": 117,
      "chip": "ym2612"
    },
    {
      "channel": 1,
      "note": 65,
      "start": 20.763,
      "duration": 0.096,
      "velocity": 113,
      "chip": "ym2612"
    },
    {
      "channel": 2,
      "note": 27,
      "start": 20.7657,
      "duration": 0.0936,
      "velocity": 93,
      "chip": "ym2612"
    },
    {
      "channel": 4,
      "note": 78,
      "start": 20.7679,
      "duration": 0.2116,
      "velocity": 117,
      "chip": "ym2612"
    },
    {
      "channel": 1,
      "note": 65,
      "start": 20.881,
      "duration": 0.0981,
      "velocity": 113,
      "chip": "ym2612"
    },
    {
      "channel": 2,
      "note": 49,
      "start": 20.8836,
      "duration": 0.0957,
      "velocity": 123,
      "chip": "ym2612"
    },
    {
      "channel": 5,
      "note": 71,
      "start": 20.886,
      "duration": 0.0937,
      "velocity": 127,
      "chip": "ym2612"
    },
    {
      "channel": 1,
      "note": 63,
      "start": 21.0211,
      "duration": 0.1379,
      "velocity": 113,
      "chip": "ym2612"
    },
    {
      "channel": 2,
      "note": 35,
      "start": 21.0237,
      "duration": 0.0955,
      "velocity": 127,
      "chip": "ym2612"
    },
    {
      "channel": 4,
      "note": 75,
      "start": 21.0259,
      "duration": 0.0935,
      "velocity": 117,
      "chip": "ym2612"
    },
    {
      "channel": 5,
      "note": 71,
      "start": 21.0281,
      "duration": 0.2314,
      "velocity": 127,
      "chip": "ym2612"
    },
    {
      "channel": 2,
      "note": 49,
      "start": 21.1616,
      "duration": 0.0976,
      "velocity": 123,
      "chip": "ym2612"
    },
    {
      "channel": 4,
      "note": 73,
      "start": 21.1639,
      "duration": 0.0956,
      "velocity": 117,
      "chip": "ym2612"
    },
    {
      "channel": 0,
      "note": 77,
      "start": 21.2812,
      "duration": 0.0978,
      "velocity": 117,
      "chip": "ym2612"
    },
    {
      "channel": 1,
      "note": 63,
      "start": 21.2845,
      "duration": 0.0947,
      "velocity": 113,
      "chip": "ym2612"
    },
    {
      "channel": 2,
      "note": 27,
      "start": 21.2872,
      "duration": 0.0921,
      "velocity": 93,
      "chip": "ym2612"
    },
    {
      "channel": 3,
      "note": 73,
      "start": 21.2897,
      "duration": 0.0898,
      "velocity": 117,
      "chip": "ym2612"
    },
    {
      "channel": 4,
      "note": 80,
      "start": 21.2922,
      "duration": 0.0876,
      "velocity": 117,
      "chip": "ym2612"
    },
    {
      "channel": 5,
      "note": 37,
      "start": 21.2949,
      "duration": 0.0849,
      "velocity": 110,
      "chip": "ym2612"
    },
    {
      "channel": 0,
      "note": 77,
      "start": 21.421,
      "duration": 0.098,
      "velocity": 117,
      "chip": "ym2612"
    },
    {
      "channel": 1,
      "note": 63,
      "start": 21.4231,
      "duration": 0.0961,
      "velocity": 113,
      "chip": "ym2612"
    },
    {
      "channel": 2,
      "note": 26,
      "start": 21.4252,
      "duration": 0.0941,
      "velocity": 93,
      "chip": "ym2612"
    },
    {
      "channel": 3,
      "note": 73,
      "start": 21.4274,
      "duration": 0.0921,
      "velocity": 117,
      "chip": "ym2612"
    },
    {
      "channel": 4,
      "note": 80,
      "start": 21.4296,
      "duration": 0.0901,
      "velocity": 117,
      "chip": "ym2612"
    },
    {
      "channel": 5,
      "note": 37,
      "start": 21.4317,
      "duration": 0.0881,
      "velocity": 110,
      "chip": "ym2612"
    },
    {
      "channel": 0,
      "note": 77,
      "start": 21.561,
      "duration": 0.098,
      "velocity": 117,
      "chip": "ym2612"
    },
    {
      "channel": 1,
      "note": 63,
      "start": 21.5631,
      "duration": 0.0961,
      "velocity": 113,
      "chip": "ym2612"
    },
    {
      "channel": 2,
      "note": 35,
      "start": 21.5656,
      "duration": 0.0937,
      "velocity": 127,
      "chip": "ym2612"
    },
    {
      "channel": 3,
      "note": 73,
      "start": 21.5679,
      "duration": 0.0916,
      "velocity": 117,
      "chip": "ym2612"
    },
    {
      "channel": 4,
      "note": 80,
      "start": 21.5702,
      "duration": 0.0895,
      "velocity": 117,
      "chip": "ym2612"
    },
    {
      "channel": 5,
      "note": 37,
      "start": 21.5724,
      "duration": 0.0875,
      "velocity": 110,
      "chip": "ym2612"
    },
    {
      "channel": 0,
      "note": 77,
      "start": 21.6809,
      "duration": 0.0981,
      "velocity": 117,
      "chip": "ym2612"
    },
    {
      "channel": 1,
      "note": 63,
      "start": 21.683,
      "duration": 0.0962,
      "velocity": 113,
      "chip": "ym2612"
    },
    {
      "channel": 2,
      "note": 26,
      "start": 21.6856,
      "duration": 0.0937,
      "velocity": 93,
      "chip": "ym2612"
    },
    {
      "channel": 3,
      "note": 73,
      "start": 21.6877,
      "duration": 0.0918,
      "velocity": 117,
      "chip": "ym2612"
    },
    {
      "channel": 4,
      "note": 80,
      "start": 21.6898,
      "duration": 0.0899,
      "velocity": 117,
      "chip": "ym2612"
    },
    {
      "channel": 5,
      "note": 37,
      "start": 21.6919,
      "duration": 0.6761,
      "velocity": 110,
      "chip": "ym2612"
    },
    {
      "channel": 2,
      "note": 27,
      "start": 21.8239,
      "duration": 0.0953,
      "velocity": 93,
      "chip": "ym2612"
    },
    {
      "channel": 0,
      "note": 80,
      "start": 21.861,
      "duration": 0.098,
      "velocity": 117,
      "chip": "ym2612"
    },
    {
      "channel": 4,
      "note": 82,
      "start": 21.9214,
      "duration": 0.0446,
      "velocity": 117,
      "chip": "ym2612"
    },
    {
      "channel": 1,
      "note": 65,
      "start": 21.9611,
      "duration": 0.0979,
      "velocity": 113,
      "chip": "ym2612"
    },
    {
      "channel": 2,
      "note": 49,
      "start": 21.9637,
      "duration": 0.0955,
      "velocity": 123,
      "chip": "ym2612"
    },
    {
      "channel": 4,
      "note": 85,
      "start": 21.9681,
      "duration": 0.0914,
      "velocity": 117,
      "chip": "ym2612"
    },
    {
      "channel": 1,
      "note": 65,
      "start": 22.081,
      "duration": 0.0981,
      "velocity": 113,
      "chip": "ym2612"
    },
    {
      "channel": 2,
      "note": 35,
      "start": 22.0836,
      "duration": 0.0957,
      "velocity": 127,
      "chip": "ym2612"
    },
    {
      "channel": 4,
      "note": 82,
      "start": 22.0858,
      "duration": 0.0937,
      "velocity": 117,
      "chip": "ym2612"
    },
    {
      "channel": 2,
      "note": 49,
      "start": 22.2215,
      "duration": 0.0976,
      "velocity": 123,
      "chip": "ym2612"
    },
    {
      "channel": 4,
      "note": 80,
      "start": 22.2238,
      "duration": 0.0956,
      "velocity": 117,
      "chip": "ym2612"
    },
    {
      "channel": 0,
      "note": 80,
      "start": 22.3609,
      "duration": 0.0981,
      "velocity": 117,
      "chip": "ym2612"
    },
    {
      "channel": 2,
      "note": 27,
      "start": 22.3656,
      "duration": 0.0936,
      "velocity": 93,
      "chip": "ym2612"
    },
    {
      "channel": 4,
      "note": 85,
      "start": 22.3679,
      "duration": 0.0916,
      "velocity": 117,
      "chip": "ym2612"
    },
    {
      "channel": 5,
      "note": 71,
      "start": 22.3707,
      "duration": 0.089,
      "velocity": 127,
      "chip": "ym2612"
    },
    {
      "channel": 0,
      "note": 80,
      "start": 22.4809,
      "duration": 0.2381,
      "velocity": 117,
      "chip": "ym2612"
    },
    {
      "channel": 1,
      "note": 63,
      "start": 22.4831,
      "duration": 0.136,
      "velocity": 113,
      "chip": "ym2612"
    },
    {
      "channel": 2,
      "note": 49,
      "start": 22.4856,
      "duration": 0.0935,
      "velocity": 123,
      "chip": "ym2612"
    },
    {
      "channel": 4,
      "note": 85,
      "start": 22.4879,
      "duration": 0.0916,
      "velocity": 117,
      "chip": "ym2612"
    },
    {
      "channel": 5,
      "note": 71,
      "start": 22.49,
      "duration": 0.2297,
      "velocity": 127,
      "chip": "ym2612"
    },
    {
      "channel": 2,
      "note": 35,
      "start": 22.6217,
      "duration": 0.0976,
      "velocity": 127,
      "chip": "ym2612"
    },
    {
      "channel": 4,
      "note": 82,
      "start": 22.6239,
      "duration": 0.0956,
      "velocity": 117,
      "chip": "ym2612"
    },
    {
      "channel": 1,
      "note": 63,
      "start": 22.761,
      "duration": 0.0981,
      "velocity": 113,
      "chip": "ym2612"
    },
    {
      "channel": 2,
      "note": 49,
      "start": 22.7636,
      "duration": 0.0957,
      "velocity": 123,
      "chip": "ym2612"
    },
    {
      "channel": 4,
      "note": 80,
      "start": 22.7658,
      "duration": 0.0937,
      "velocity": 117,
      "chip": "ym2612"
    },
    {
      "channel": 5,
      "note": 71,
      "start": 22.768,
      "duration": 0.2116,
      "velocity": 127,
      "chip": "ym2612"
    },
    {
      "channel": 0,
      "note": 80,
      "start": 22.8809,
      "duration": 0.2581,
      "velocity": 117,
      "chip": "ym2612"
    },
    {
      "channel": 1,
      "note": 65,
      "start": 22.883,
      "duration": 0.096,
      "velocity": 113,
      "chip": "ym2612"
    },
    {
      "channel": 2,
      "note": 27,
      "start": 22.8857,
      "duration": 0.0936,
      "velocity": 93,
      "chip": "ym2612"
    },
    {
      "channel": 4,
      "note": 85,
      "start": 22.8879,
      "duration": 0.2316,
      "velocity": 117,
      "chip": "ym2612"
    },
    {
      "channel": 1,
      "note": 65,
      "start": 23.021,
      "duration": 0.0981,
      "velocity": 113,
      "chip": "ym2612"
    },
    {
      "channel": 2,
      "note": 49,
      "start": 23.0236,
      "duration": 0.0957,
      "velocity": 123,
      "chip": "ym2612"
    },
    {
      "channel": 5,
      "note": 71,
      "start": 23.026,
      "duration": 0.0937,
      "velocity": 127,
      "chip": "ym2612"
    },
    {
      "channel": 1,
      "note": 63,
      "start": 23.1411,
      "duration": 0.1379,
      "velocity": 113,
      "chip": "ym2612"
    },
    {
      "channel": 2,
      "note": 35,
      "start": 23.1437,
      "duration": 0.0955,
      "velocity": 127,
      "chip": "ym2612"
    },
    {
      "channel": 4,
      "note": 82,
      "start": 23.1459,
      "duration": 0.0935,
      "velocity": 117,
      "chip": "ym2612"
    },
    {
      "channel": 5,
      "note": 71,
      "start": 23.1481,
      "duration": 0.2314,
      "velocity": 127,
      "chip": "ym2612"
    },
    {
      "channel": 2,
      "note": 49,
      "start": 23.2817,
      "duration": 0.0975,
      "velocity": 123,
      "chip": "ym2612"
    },
    {
      "channel": 4,
      "note": 80,
      "start": 23.2839,
      "duration": 0.0956,
      "velocity": 117,
      "chip": "ym2612"
    },
    {
      "channel": 0,
      "note": 70,
      "start": 23.4211,
      "duration": 0.2179,
      "velocity": 117,
      "chip": "ym2612"
    },
    {
      "channel": 1,
      "note": 63,
      "start": 23.4244,
      "duration": 0.0946,
      "velocity": 113,
      "chip": "ym2612"
    },
    {
      "channel": 2,
      "note": 27,
      "start": 23.4273,
      "duration": 0.092,
      "velocity": 93,
      "chip": "ym2612"
    },
    {
      "channel": 3,
      "note": 66,
      "start": 23.4297,
      "duration": 0.2098,
      "velocity": 117,
      "chip": "ym2612"
    },
    {
      "channel": 4,
      "note": 73,
      "start": 23.4321,
      "duration": 0.2076,
      "velocity": 117,
      "chip": "ym2612"
    },
    {
      "channel": 5,
      "note": 30,
      "start": 23.4348,
      "duration": 0.3447,
      "velocity": 110,
      "chip": "ym2612"
    },
    {
      "channel": 1,
      "note": 63,
      "start": 23.541,
      "duration": 0.0982,
      "velocity": 113,
      "chip": "ym2612"
    },
    {
      "channel": 2,
      "note": 49,
      "start": 23.5436,
      "duration": 0.0957,
      "velocity": 123,
      "chip": "ym2612"
    },
    {
      "channel": 0,
      "note": 70,
      "start": 23.6809,
      "duration": 0.2381,
      "velocity": 117,
      "chip": "ym2612"
    },
    {
      "channel": 1,
      "note": 63,
      "start": 23.683,
      "duration": 0.096,
      "velocity": 113,
      "chip": "ym2612"
    },
    {
      "channel": 2,
      "note": 35,
      "start": 23.6856,
      "duration": 0.0937,
      "velocity": 127,
      "chip": "ym2612"
    },
    {
      "channel": 3,
      "note": 66,
      "start": 23.6877,
      "duration": 0.2318,
      "velocity": 117,
      "chip": "ym2612"
    },
    {
      "channel": 4,
      "note": 73,
      "start": 23.6898,
      "duration": 0.2299,
      "velocity": 117,
      "chip": "ym2612"
    },
    {
      "channel": 1,
      "note": 63,
      "start": 23.821,
      "duration": 0.0982,
      "velocity": 113,
      "chip": "ym2612"
    },
    {
      "channel": 2,
      "note": 26,
      "start": 23.8236,
      "duration": 0.0957,
      "velocity": 93,
      "chip": "ym2612"
    },
    {
      "channel": 5,
      "note": 30,
      "start": 23.8259,
      "duration": 0.0939,
      "velocity": 110,
      "chip": "ym2612"
    },
    {
      "channel": 0,
      "note": 70,
      "start": 23.9409,
      "duration": 0.2381,
      "velocity": 117,
      "chip": "ym2612"
    },
    {
      "channel": 2,
      "note": 27,
      "start": 23.9432,
      "duration": 0.096,
      "velocity": 93,
      "chip": "ym2612"
    },
    {
      "channel": 3,
      "note": 66,
      "start": 23.9453,
      "duration": 0.2342,
      "velocity": 117,
      "chip": "ym2612"
    },
    {
      "channel": 4,
      "note": 74,
      "start": 23.9474,
      "duration": 0.2323,
      "velocity": 117,
      "chip": "ym2612"
    },
    {
      "channel": 5,
      "note": 30,
      "start": 23.9495,
      "duration": 0.4903,
      "velocity": 110,
      "chip": "ym2612"
    },
    {
      "channel": 1,
      "note": 65,
      "start": 24.081,
      "duration": 0.0982,
      "velocity": 113,
      "chip": "ym2612"
    },
    {
      "channel": 2,
      "note": 49,
      "start": 24.0836,
      "duration": 0.0957,
      "velocity": 123,
      "chip": "ym2612"
    },
    {
      "channel": 0,
      "note": 70,
      "start": 24.2209,
      "duration": 0.2181,
      "velocity": 117,
      "chip": "ym2612"
    },
    {
      "channel": 1,
      "note": 65,
      "start": 24.223,
      "duration": 0.096,
      "velocity": 113,
      "chip": "ym2612"
    },
    {
      "channel": 2,
      "note": 35,
      "start": 24.2256,
      "duration": 0.0937,
      "velocity": 127,
      "chip": "ym2612"
    },
    {
      "channel": 3,
      "note": 66,
      "start": 24.2277,
      "duration": 0.2117,
      "velocity": 117,
      "chip": "ym2612"
    },
    {
      "channel": 4,
      "note": 74,
      "start": 24.2298,
      "duration": 0.2098,
      "velocity": 117,
      "chip": "ym2612"
    },
    {
      "channel": 2,
      "note": 49,
      "start": 24.3415,
      "duration": 0.0977,
      "velocity": 123,
      "chip": "ym2612"
    },
    {
      "channel": 0,
      "note": 70,
      "start": 24.4809,
      "duration": 0.2381,
      "velocity": 117,
      "chip": "ym2612"
    },
    {
      "channel": 2,
      "note": 27,
      "start": 24.4856,
      "duration": 0.0935,
      "velocity": 93,
      "chip": "ym2612"
    },
    {
      "channel": 3,
      "note": 66,
      "start": 24.4878,
      "duration": 0.2317,
      "velocity": 117,
      "chip": "ym2612"
    },
    {
      "channel": 4,
      "note": 75,
      "start": 24.4899,
      "duration": 0.2297,
      "velocity": 117,
      "chip": "ym2612"
    },
    {
      "channel": 5,
      "note": 30,
      "start": 24.492,
      "duration": 0.3475,
      "velocity": 110,
      "chip": "ym2612"
    },
    {
      "channel": 1,
      "note": 63,
      "start": 24.621,
      "duration": 0.1201,
      "velocity": 113,
      "chip": "ym2612"
    },
    {
      "channel": 2,
      "note": 49,
      "start": 24.6237,
      "duration": 0.0956,
      "velocity": 123,
      "chip": "ym2612"
    },
    {
      "channel": 0,
      "note": 70,
      "start": 24.7409,
      "duration": 0.2381,
      "velocity": 117,
      "chip": "ym2612"
    },
    {
      "channel": 2,
      "note": 35,
      "start": 24.7437,
      "duration": 0.0955,
      "velocity": 127,
      "chip": "ym2612"
    },
    {
      "channel": 3,
      "note": 66,
      "start": 24.7458,
      "duration": 0.2337,
      "velocity": 117,
      "chip": "ym2612"
    },
    {
      "channel": 4,
      "note": 75,
      "start": 24.7479,
      "duration": 0.2318,
      "velocity": 117,
      "chip": "ym2612"
    },
    {
      "channel": 1,
      "note": 63,
      "start": 24.881,
      "duration": 0.0982,
      "velocity": 113,
      "chip": "ym2612"
    },
    {
      "channel": 2,
      "note": 26,
      "start": 24.8836,
      "duration": 0.0957,
      "velocity": 93,
      "chip": "ym2612"
    },
    {
      "channel": 5,
      "note": 30,
      "start": 24.8859,
      "duration": 0.0939,
      "velocity": 110,
      "chip": "ym2612"
    },
    {
      "channel": 0,
      "note": 70,
      "start": 25.0209,
      "duration": 0.2181,
      "velocity": 117,
      "chip": "ym2612"
    },
    {
      "channel": 1,
      "note": 65,
      "start": 25.023,
      "duration": 0.096,
      "velocity": 113,
      "chip": "ym2612"
    },
    {
      "channel": 2,
      "note": 27,
      "start": 25.0251,
      "duration": 0.0941,
      "velocity": 93,
      "chip": "ym2612"
    },
    {
      "channel": 3,
      "note": 66,
      "start": 25.0272,
      "duration": 0.2123,
      "velocity": 117,
      "chip": "ym2612"
    },
    {
      "channel": 4,
      "note": 76,
      "start": 25.0293,
      "duration": 0.2104,
      "velocity": 117,
      "chip": "ym2612"
    },
    {
      "channel": 5,
      "note": 30,
      "start": 25.0315,
      "duration": 0.2084,
      "velocity": 110,
      "chip": "ym2612"
    },
    {
      "channel": 1,
      "note": 65,
      "start": 25.141,
      "duration": 0.0982,
      "velocity": 113,
      "chip": "ym2612"
    },
    {
      "channel": 2,
      "note": 49,
      "start": 25.1436,
      "duration": 0.0957,
      "velocity": 123,
      "chip": "ym2612"
    },
    {
      "channel": 0,
      "note": 70,
      "start": 25.2809,
      "duration": 0.2381,
      "velocity": 117,
      "chip": "ym2612"
    },
    {
      "channel": 1,
      "note": 63,
      "start": 25.283,
      "duration": 0.136,
      "velocity": 113,
      "chip": "ym2612"
    },
    {
      "channel": 2,
      "note": 35,
      "start": 25.2856,
      "duration": 0.0936,
      "velocity": 127,
      "chip": "ym2612"
    },
    {
      "channel": 3,
      "note": 66,
      "start": 25.2877,
      "duration": 0.2317,
      "velocity": 117,
      "chip": "ym2612"
    },
    {
      "channel": 4,
      "note": 76,
      "start": 25.2898,
      "duration": 0.2298,
      "velocity": 117,
      "chip": "ym2612"
    },
    {
      "channel": 5,
      "note": 32,
      "start": 25.2919,
      "duration": 0.0876,
      "velocity": 110,
      "chip": "ym2612"
    },
    {
      "channel": 2,
      "note": 49,
      "start": 25.4217,
      "duration": 0.0976,
      "velocity": 123,
      "chip": "ym2612"
    },
    {
      "channel": 5,
      "note": 33,
      "start": 25.424,
      "duration": 0.0958,
      "velocity": 110,
      "chip": "ym2612"
    },
    {
      "channel": 0,
      "note": 75,
      "start": 25.5412,
      "duration": 0.0978,
      "velocity": 117,
      "chip": "ym2612"
    },
    {
      "channel": 1,
      "note": 63,
      "start": 25.5445,
      "duration": 0.0947,
      "velocity": 113,
      "chip": "ym2612"
    },
    {
      "channel": 2,
      "note": 27,
      "start": 25.5472,
      "duration": 0.0921,
      "velocity": 93,
      "chip": "ym2612"
    },
    {
      "channel": 3,
      "note": 71,
      "start": 25.5497,
      "duration": 0.0898,
      "velocity": 117,
      "chip": "ym2612"
    },
    {
      "channel": 4,
      "note": 78,
      "start": 25.5521,
      "duration": 0.0876,
      "velocity": 117,
      "chip": "ym2612"
    },
    {
      "channel": 5,
      "note": 35,
      "start": 25.5547,
      "duration": 0.0851,
      "velocity": 110,
      "chip": "ym2612"
    },
    {
      "channel": 0,
      "note": 75,
      "start": 25.681,
      "duration": 0.098,
      "velocity": 117,
      "chip": "ym2612"
    },
    {
      "channel": 1,
      "note": 63,
      "start": 25.6831,
      "duration": 0.0961,
      "velocity": 113,
      "chip": "ym2612"
    },
    {
      "channel": 2,
      "note": 26,
      "start": 25.6852,
      "duration": 0.0941,
      "velocity": 93,
      "chip": "ym2612"
    },
    {
      "channel": 3,
      "note": 71,
      "start": 25.6874,
      "duration": 0.0921,
      "velocity": 117,
      "chip": "ym2612"
    },
    {
      "channel": 4,
      "note": 78,
      "start": 25.6896,
      "duration": 0.0901,
      "velocity": 117,
      "chip": "ym2612"
    },
    {
      "channel": 5,
      "note": 35,
      "start": 25.6917,
      "duration": 0.0881,
      "velocity": 110,
      "chip": "ym2612"
    },
    {
      "channel": 0,
      "note": 75,
      "start": 25.801,
      "duration": 0.098,
      "velocity": 117,
      "chip": "ym2612"
    },
    {
      "channel": 1,
      "note": 63,
      "start": 25.8031,
      "duration": 0.0961,
      "velocity": 113,
      "chip": "ym2612"
    },
    {
      "channel": 2,
      "note": 35,
      "start": 25.8056,
      "duration": 0.0937,
      "velocity": 127,
      "chip": "ym2612"
    },
    {
      "channel": 3,
      "note": 71,
      "start": 25.8079,
      "duration": 0.0916,
      "velocity": 117,
      "chip": "ym2612"
    },
    {
      "channel": 4,
      "note": 78,
      "start": 25.8102,
      "duration": 0.0895,
      "velocity": 117,
      "chip": "ym2612"
    },
    {
      "channel": 5,
      "note": 35,
      "start": 25.8124,
      "duration": 0.0875,
      "velocity": 110,
      "chip": "ym2612"
    },
    {
      "channel": 0,
      "note": 75,
      "start": 25.9409,
      "duration": 0.0981,
      "velocity": 117,
      "chip": "ym2612"
    },
    {
      "channel": 1,
      "note": 63,
      "start": 25.943,
      "duration": 0.0962,
      "velocity": 113,
      "chip": "ym2612"
    },
    {
      "channel": 2,
      "note": 26,
      "start": 25.9456,
      "duration": 0.0937,
      "velocity": 93,
      "chip": "ym2612"
    },
    {
      "channel": 3,
      "note": 71,
      "start": 25.9477,
      "duration": 0.0918,
      "velocity": 117,
      "chip": "ym2612"
    },
    {
      "channel": 4,
      "note": 78,
      "start": 25.9498,
      "duration": 0.0899,
      "velocity": 117,
      "chip": "ym2612"
    },
    {
      "channel": 5,
      "note": 35,
      "start": 25.9519,
      "duration": 0.6561,
      "velocity": 110,
      "chip": "ym2612"
    },
    {
      "channel": 2,
      "note": 27,
      "start": 26.0838,
      "duration": 0.0954,
      "velocity": 93,
      "chip": "ym2612"
    },
    {
      "channel": 0,
      "note": 78,
      "start": 26.101,
      "duration": 0.098,
      "velocity": 117,
      "chip": "ym2612"
    },
    {
      "channel": 4,
      "note": 80,
      "start": 26.1814,
      "duration": 0.0246,
      "velocity": 117,
      "chip": "ym2612"
    },
    {
      "channel": 1,
      "note": 65,
      "start": 26.2011,
      "duration": 0.0979,
      "velocity": 113,
      "chip": "ym2612"
    },
    {
      "channel": 2,
      "note": 49,
      "start": 26.2037,
      "duration": 0.0955,
      "velocity": 123,
      "chip": "ym2612"
    },
    {
      "channel": 4,
      "note": 83,
      "start": 26.2081,
      "duration": 0.0914,
      "velocity": 117,
      "chip": "ym2612"
    },
    {
      "channel": 1,
      "note": 65,
      "start": 26.341,
      "duration": 0.0981,
      "velocity": 113,
      "chip": "ym2612"
    },
    {
      "channel": 2,
      "note": 35,
      "start": 26.3436,
      "duration": 0.0957,
      "velocity": 127,
      "chip": "ym2612"
    },
    {
      "channel": 4,
      "note": 80,
      "start": 26.3458,
      "duration": 0.0937,
      "velocity": 117,
      "chip": "ym2612"
    },
    {
      "channel": 2,
      "note": 49,
      "start": 26.4815,
      "duration": 0.0976,
      "velocity": 123,
      "chip": "ym2612"
    },
    {
      "channel": 4,
      "note": 78,
      "start": 26.4838,
      "duration": 0.0956,
      "velocity": 117,
      "chip": "ym2612"
    },
    {
      "channel": 0,
      "note": 78,
      "start": 26.6009,
      "duration": 0.0981,
      "velocity": 117,
      "chip": "ym2612"
    },
    {
      "channel": 2,
      "note": 27,
      "start": 26.6056,
      "duration": 0.0936,
      "velocity": 93,
      "chip": "ym2612"
    },
    {
      "channel": 4,
      "note": 83,
      "start": 26.6079,
      "duration": 0.0916,
      "velocity": 117,
      "chip": "ym2612"
    },
    {
      "channel": 5,
      "note": 71,
      "start": 26.6107,
      "duration": 0.089,
      "velocity": 127,
      "chip": "ym2612"
    },
    {
      "channel": 0,
      "note": 78,
      "start": 26.7409,
      "duration": 0.2381,
      "velocity": 117,
      "chip": "ym2612"
    },
    {
      "channel": 1,
      "note": 63,
      "start": 26.7431,
      "duration": 0.136,
      "velocity": 113,
      "chip": "ym2612"
    },
    {
      "channel": 2,
      "note": 49,
      "start": 26.7456,
      "duration": 0.0935,
      "velocity": 123,
      "chip": "ym2612"
    },
    {
      "channel": 4,
      "note": 83,
      "start": 26.7479,
      "duration": 0.0916,
      "velocity": 117,
      "chip": "ym2612"
    },
    {
      "channel": 5,
      "note": 71,
      "start": 26.75,
      "duration": 0.2297,
      "velocity": 127,
      "chip": "ym2612"
    },
    {
      "channel": 2,
      "note": 35,
      "start": 26.8817,
      "duration": 0.0976,
      "velocity": 127,
      "chip": "ym2612"
    },
    {
      "channel": 4,
      "note": 80,
      "start": 26.8839,
      "duration": 0.0956,
      "velocity": 117,
      "chip": "ym2612"
    },
    {
      "channel": 1,
      "note": 63,
      "start": 27.001,
      "duration": 0.0981,
      "velocity": 113,
      "chip": "ym2612"
    },
    {
      "channel": 2,
      "note": 49,
      "start": 27.0036,
      "duration": 0.0957,
      "velocity": 123,
      "chip": "ym2612"
    },
    {
      "channel": 4,
      "note": 78,
      "start": 27.0058,
      "duration": 0.0937,
      "velocity": 117,
      "chip": "ym2612"
    },
    {
      "channel": 5,
      "note": 71,
      "start": 27.008,
      "duration": 0.2316,
      "velocity": 127,
      "chip": "ym2612"
    },
    {
      "channel": 0,
      "note": 78,
      "start": 27.1409,
      "duration": 0.2581,
      "velocity": 117,
      "chip": "ym2612"
    },
    {
      "channel": 1,
      "note": 65,
      "start": 27.143,
      "duration": 0.096,
      "velocity": 113,
      "chip": "ym2612"
    },
    {
      "channel": 2,
      "note": 27,
      "start": 27.1457,
      "duration": 0.0936,
      "velocity": 93,
      "chip": "ym2612"
    },
    {
      "channel": 4,
      "note": 83,
      "start": 27.1479,
      "duration": 0.2316,
      "velocity": 117,
      "chip": "ym2612"
    },
    {
      "channel": 1,
      "note": 65,
      "start": 27.281,
      "duration": 0.0981,
      "velocity": 113,
      "chip": "ym2612"
    },
    {
      "channel": 2,
      "note": 49,
      "start": 27.2836,
      "duration": 0.0957,
      "velocity": 123,
      "chip": "ym2612"
    },
    {
      "channel": 5,
      "note": 71,
      "start": 27.286,
      "duration": 0.0937,
      "velocity": 127,
      "chip": "ym2612"
    },
    {
      "channel": 1,
      "note": 63,
      "start": 27.4011,
      "duration": 0.1379,
      "velocity": 113,
      "chip": "ym2612"
    },
    {
      "channel": 2,
      "note": 35,
      "start": 27.4037,
      "duration": 0.0955,
      "velocity": 127,
      "chip": "ym2612"
    },
    {
      "channel": 4,
      "note": 80,
      "start": 27.4059,
      "duration": 0.0935,
      "velocity": 117,
      "chip": "ym2612"
    },
    {
      "channel": 5,
      "note": 71,
      "start": 27.4081,
      "duration": 0.2314,
      "velocity": 127,
      "chip": "ym2612"
    },
    {
      "channel": 2,
      "note": 49,
      "start": 27.5417,
      "duration": 0.0975,
      "velocity": 123,
      "chip": "ym2612"
    },
    {
      "channel": 4,
      "note": 78,
      "start": 27.5439,
      "duration": 0.0956,
      "velocity": 117,
      "chip": "ym2612"
    },
    {
      "channel": 0,
      "note": 73,
      "start": 27.6812,
      "duration": 0.0978,
      "velocity": 117,
      "chip": "ym2612"
    },
    {
      "channel": 1,
      "note": 63,
      "start": 27.6845,
      "duration": 0.0947,
      "velocity": 113,
      "chip": "ym2612"
    },
    {
      "channel": 2,
      "note": 27,
      "start": 27.6872,
      "duration": 0.0921,
      "velocity": 93,
      "chip": "ym2612"
    },
    {
      "channel": 3,
      "note": 70,
      "start": 27.6897,
      "duration": 0.0898,
      "velocity": 117,
      "chip": "ym2612"
    },
    {
      "channel": 4,
      "note": 78,
      "start": 27.6921,
      "duration": 0.0876,
      "velocity": 117,
      "chip": "ym2612"
    },
    {
      "channel": 5,
      "note": 30,
      "start": 27.6948,
      "duration": 0.085,
      "velocity": 110,
      "chip": "ym2612"
    },
    {
      "channel": 0,
      "note": 73,
      "start": 27.801,
      "duration": 0.098,
      "velocity": 117,
      "chip": "ym2612"
    },
    {
      "channel": 1,
      "note": 63,
      "start": 27.8031,
      "duration": 0.0961,
      "velocity": 113,
      "chip": "ym2612"
    },
    {
      "channel": 2,
      "note": 26,
      "start": 27.8052,
      "duration": 0.0941,
      "velocity": 93,
      "chip": "ym2612"
    },
    {
      "channel": 3,
      "note": 70,
      "start": 27.8074,
      "duration": 0.0921,
      "velocity": 117,
      "chip": "ym2612"
    },
    {
      "channel": 4,
      "note": 78,
      "start": 27.8096,
      "duration": 0.0901,
      "velocity": 117,
      "chip": "ym2612"
    },
    {
      "channel": 5,
      "note": 30,
      "start": 27.8117,
      "duration": 0.0881,
      "velocity": 110,
      "chip": "ym2612"
    },
    {
      "channel": 0,
      "note": 73,
      "start": 27.941,
      "duration": 0.098,
      "velocity": 117,
      "chip": "ym2612"
    },
    {
      "channel": 1,
      "note": 63,
      "start": 27.9431,
      "duration": 0.0961,
      "velocity": 113,
      "chip": "ym2612"
    },
    {
      "channel": 2,
      "note": 35,
      "start": 27.9456,
      "duration": 0.0937,
      "velocity": 127,
      "chip": "ym2612"
    },
    {
      "channel": 3,
      "note": 70,
      "start": 27.9479,
      "duration": 0.0916,
      "velocity": 117,
      "chip": "ym2612"
    },
    {
      "channel": 4,
      "note": 78,
      "start": 27.9502,
      "duration": 0.0895,
      "velocity": 117,
      "chip": "ym2612"
    },
    {
      "channel": 5,
      "note": 30,
      "start": 27.9524,
      "duration": 0.0875,
      "velocity": 110,
      "chip": "ym2612"
    },
    {
      "channel": 0,
      "note": 73,
      "start": 28.0809,
      "duration": 0.0781,
      "velocity": 117,
      "chip": "ym2612"
    },
    {
      "channel": 1,
      "note": 63,
      "start": 28.083,
      "duration": 0.0762,
      "velocity": 113,
      "chip": "ym2612"
    },
    {
      "channel": 2,
      "note": 26,
      "start": 28.0856,
      "duration": 0.0737,
      "velocity": 93,
      "chip": "ym2612"
    },
    {
      "channel": 3,
      "note": 70,
      "start": 28.0877,
      "duration": 0.0718,
      "velocity": 117,
      "chip": "ym2612"
    },
    {
      "channel": 4,
      "note": 78,
      "start": 28.0898,
      "duration": 0.0699,
      "velocity": 117,
      "chip": "ym2612"
    },
    {
      "channel": 5,
      "note": 30,
      "start": 28.0919,
      "duration": 0.6561,
      "velocity": 110,
      "chip": "ym2612"
    },
    {
      "channel": 2,
      "note": 27,
      "start": 28.2039,
      "duration": 0.0953,
      "velocity": 93,
      "chip": "ym2612"
    },
    {
      "channel": 0,
      "note": 73,
      "start": 28.241,
      "duration": 0.098,
      "velocity": 117,
      "chip": "ym2612"
    },
    {
      "channel": 4,
      "note": 75,
      "start": 28.3014,
      "duration": 0.0446,
      "velocity": 117,
      "chip": "ym2612"
    },
    {
      "channel": 1,
      "note": 65,
      "start": 28.3411,
      "duration": 0.0979,
      "velocity": 113,
      "chip": "ym2612"
    },
    {
      "channel": 2,
      "note": 49,
      "start": 28.3437,
      "duration": 0.0955,
      "velocity": 123,
      "chip": "ym2612"
    },
    {
      "channel": 4,
      "note": 78,
      "start": 28.3481,
      "duration": 0.0914,
      "velocity": 117,
      "chip": "ym2612"
    },
    {
      "channel": 1,
      "note": 65,
      "start": 28.461,
      "duration": 0.0981,
      "velocity": 113,
      "chip": "ym2612"
    },
    {
      "channel": 2,
      "note": 35,
      "start": 28.4636,
      "duration": 0.0957,
      "velocity": 127,
      "chip": "ym2612"
    },
    {
      "channel": 4,
      "note": 75,
      "start": 28.4658,
      "duration": 0.0937,
      "velocity": 117,
      "chip": "ym2612"
    },
    {
      "channel": 2,
      "note": 49,
      "start": 28.6015,
      "duration": 0.0976,
      "velocity": 123,
      "chip": "ym2612"
    },
    {
      "channel": 4,
      "note": 73,
      "start": 28.6038,
      "duration": 0.0956,
      "velocity": 117,
      "chip": "ym2612"
    },
    {
      "channel": 0,
      "note": 73,
      "start": 28.7409,
      "duration": 0.0981,
      "velocity": 117,
      "chip": "ym2612"
    },
    {
      "channel": 2,
      "note": 27,
      "start": 28.7456,
      "duration": 0.0936,
      "velocity": 93,
      "chip": "ym2612"
    },
    {
      "channel": 4,
      "note": 78,
      "start": 28.7479,
      "duration": 0.0916,
      "velocity": 117,
      "chip": "ym2612"
    },
    {
      "channel": 5,
      "note": 71,
      "start": 28.7507,
      "duration": 0.089,
      "velocity": 127,
      "chip": "ym2612"
    },
    {
      "channel": 0,
      "note": 73,
      "start": 28.8609,
      "duration": 0.2381,
      "velocity": 117,
      "chip": "ym2612"
    },
    {
      "channel": 1,
      "note": 63,
      "start": 28.8631,
      "duration": 0.136,
      "velocity": 113,
      "chip": "ym2612"
    },
    {
      "channel": 2,
      "note": 49,
      "start": 28.8656,
      "duration": 0.0935,
      "velocity": 123,
      "chip": "ym2612"
    },
    {
      "channel": 4,
      "note": 78,
      "start": 28.8679,
      "duration": 0.0916,
      "velocity": 117,
      "chip": "ym2612"
    },
    {
      "channel": 5,
      "note": 71,
      "start": 28.87,
      "duration": 0.2297,
      "velocity": 127,
      "chip": "ym2612"
    },
    {
      "channel": 2,
      "note": 35,
      "start": 29.0017,
      "duration": 0.0976,
      "velocity": 127,
      "chip": "ym2612"
    },
    {
      "channel": 4,
      "note": 75,
      "start": 29.0039,
      "duration": 0.0956,
      "velocity": 117,
      "chip": "ym2612"
    },
    {
      "channel": 1,
      "note": 63,
      "start": 29.141,
      "duration": 0.0981,
      "velocity": 113,
      "chip": "ym2612"
    },
    {
      "channel": 2,
      "note": 49,
      "start": 29.1436,
      "duration": 0.0957,
      "velocity": 123,
      "chip": "ym2612"
    },
    {
      "channel": 4,
      "note": 73,
      "start": 29.1458,
      "duration": 0.0937,
      "velocity": 117,
      "chip": "ym2612"
    },
    {
      "channel": 5,
      "note": 71,
      "start": 29.148,
      "duration": 0.2116,
      "velocity": 127,
      "chip": "ym2612"
    },
    {
      "channel": 0,
      "note": 73,
      "start": 29.2609,
      "duration": 0.2781,
      "velocity": 117,
      "chip": "ym2612"
    },
    {
      "channel": 1,
      "note": 65,
      "start": 29.263,
      "duration": 0.096,
      "velocity": 113,
      "chip": "ym2612"
    },
    {
      "channel": 2,
      "note": 27,
      "start": 29.2657,
      "duration": 0.0936,
      "velocity": 93,
      "chip": "ym2612"
    },
    {
      "channel": 4,
      "note": 78,
      "start": 29.2679,
      "duration": 0.2316,
      "velocity": 117,
      "chip": "ym2612"
    },
    {
      "channel": 1,
      "note": 65,
      "start": 29.401,
      "duration": 0.0981,
      "velocity": 113,
      "chip": "ym2612"
    },
    {
      "channel": 2,
      "note": 49,
      "start": 29.4036,
      "duration": 0.0957,
      "velocity": 123,
      "chip": "ym2612"
    },
    {
      "channel": 5,
      "note": 71,
      "start": 29.406,
      "duration": 0.0937,
      "velocity": 127,
      "chip": "ym2612"
    },
    {
      "channel": 1,
      "note": 63,
      "start": 29.5411,
      "duration": 0.1179,
      "velocity": 113,
      "chip": "ym2612"
    },
    {
      "channel": 2,
      "note": 35,
      "start": 29.5437,
      "duration": 0.0955,
      "velocity": 127,
      "chip": "ym2612"
    },
    {
      "channel": 4,
      "note": 75,
      "start": 29.5459,
      "duration": 0.0935,
      "velocity": 117,
      "chip": "ym2612"
    },
    {
      "channel": 5,
      "note": 71,
      "start": 29.5481,
      "duration": 0.2114,
      "velocity": 127,
      "chip": "ym2612"
    },
    {
      "channel": 2,
      "note": 49,
      "start": 29.6617,
      "duration": 0.0975,
      "velocity": 123,
      "chip": "ym2612"
    },
    {
      "channel": 4,
      "note": 73,
      "start": 29.6639,
      "duration": 0.0956,
      "velocity": 117,
      "chip": "ym2612"
    },
    {
      "channel": 0,
      "note": 77,
      "start": 29.8012,
      "duration": 0.0978,
      "velocity": 117,
      "chip": "ym2612"
    },
    {
      "channel": 1,
      "note": 63,
      "start": 29.8045,
      "duration": 0.0947,
      "velocity": 113,
      "chip": "ym2612"
    },
    {
      "channel": 2,
      "note": 27,
      "start": 29.8072,
      "duration": 0.0921,
      "velocity": 93,
      "chip": "ym2612"
    },
    {
      "channel": 3,
      "note": 73,
      "start": 29.8097,
      "duration": 0.0898,
      "velocity": 117,
      "chip": "ym2612"
    },
    {
      "channel": 4,
      "note": 80,
      "start": 29.8122,
      "duration": 0.0876,
      "velocity": 117,
      "chip": "ym2612"
    },
    {
      "channel": 5,
      "note": 37,
      "start": 29.8149,
      "duration": 0.0849,
      "velocity": 110,
      "chip": "ym2612"
    },
    {
      "channel": 0,
      "note": 77,
      "start": 29.941,
      "duration": 0.098,
      "velocity": 117,
      "chip": "ym2612"
    },
    {
      "channel": 1,
      "note": 63,
      "start": 29.9431,
      "duration": 0.0961,
      "velocity": 113,
      "chip": "ym2612"
    },
    {
      "channel": 2,
      "note": 26,
      "start": 29.9452,
      "duration": 0.0941,
      "velocity": 93,
      "chip": "ym2612"
    },
    {
      "channel": 3,
      "note": 73,
      "start": 29.9474,
      "duration": 0.0921,
      "velocity": 117,
      "chip": "ym2612"
    },
    {
      "channel": 4,
      "note": 80,
      "start": 29.9496,
      "duration": 0.0901,
      "velocity": 117,
      "chip": "ym2612"
    },
    {
      "channel": 5,
      "note": 37,
      "start": 29.9517,
      "duration": 0.0881,
      "velocity": 110,
      "chip": "ym2612"
    },
    {
      "channel": 0,
      "note": 77,
      "start": 30.061,
      "duration": 0.098,
      "velocity": 117,
      "chip": "ym2612"
    },
    {
      "channel": 1,
      "note": 63,
      "start": 30.0631,
      "duration": 0.0961,
      "velocity": 113,
      "chip": "ym2612"
    },
    {
      "channel": 2,
      "note": 35,
      "start": 30.0656,
      "duration": 0.0937,
      "velocity": 127,
      "chip": "ym2612"
    },
    {
      "channel": 3,
      "note": 73,
      "start": 30.0679,
      "duration": 0.0916,
      "velocity": 117,
      "chip": "ym2612"
    },
    {
      "channel": 4,
      "note": 80,
      "start": 30.0702,
      "duration": 0.0895,
      "velocity": 117,
      "chip": "ym2612"
    },
    {
      "channel": 5,
      "note": 37,
      "start": 30.0724,
      "duration": 0.0875,
      "velocity": 110,
      "chip": "ym2612"
    },
    {
      "channel": 0,
      "note": 77,
      "start": 30.2009,
      "duration": 0.0981,
      "velocity": 117,
      "chip": "ym2612"
    },
    {
      "channel": 1,
      "note": 63,
      "start": 30.203,
      "duration": 0.0962,
      "velocity": 113,
      "chip": "ym2612"
    },
    {
      "channel": 2,
      "note": 26,
      "start": 30.2056,
      "duration": 0.0937,
      "velocity": 93,
      "chip": "ym2612"
    },
    {
      "channel": 3,
      "note": 73,
      "start": 30.2077,
      "duration": 0.0918,
      "velocity": 117,
      "chip": "ym2612"
    },
    {
      "channel": 4,
      "note": 80,
      "start": 30.2098,
      "duration": 0.0899,
      "velocity": 117,
      "chip": "ym2612"
    },
    {
      "channel": 5,
      "note": 37,
      "start": 30.2119,
      "duration": 0.6561,
      "velocity": 110,
      "chip": "ym2612"
    },
    {
      "channel": 2,
      "note": 27,
      "start": 30.3439,
      "duration": 0.0953,
      "velocity": 93,
      "chip": "ym2612"
    },
    {
      "channel": 0,
      "note": 80,
      "start": 30.361,
      "duration": 0.098,
      "velocity": 117,
      "chip": "ym2612"
    },
    {
      "channel": 4,
      "note": 82,
      "start": 30.4414,
      "duration": 0.0246,
      "velocity": 117,
      "chip": "ym2612"
    },
    {
      "channel": 1,
      "note": 65,
      "start": 30.4611,
      "duration": 0.0979,
      "velocity": 113,
      "chip": "ym2612"
    },
    {
      "channel": 2,
      "note": 49,
      "start": 30.4637,
      "duration": 0.0955,
      "velocity": 123,
      "chip": "ym2612"
    },
    {
      "channel": 4,
      "note": 85,
      "start": 30.468,
      "duration": 0.0915,
      "velocity": 117,
      "chip": "ym2612"
    },
    {
      "channel": 1,
      "note": 65,
      "start": 30.601,
      "duration": 0.0981,
      "velocity": 113,
      "chip": "ym2612"
    },
    {
      "channel": 2,
      "note": 35,
      "start": 30.6036,
      "duration": 0.0957,
      "velocity": 127,
      "chip": "ym2612"
    },
    {
      "channel": 4,
      "note": 82,
      "start": 30.6058,
      "duration": 0.0937,
      "velocity": 117,
      "chip": "ym2612"
    },
    {
      "channel": 2,
      "note": 49,
      "start": 30.7215,
      "duration": 0.0976,
      "velocity": 123,
      "chip": "ym2612"
    },
    {
      "channel": 4,
      "note": 80,
      "start": 30.7238,
      "duration": 0.0956,
      "velocity": 117,
      "chip": "ym2612"
    },
    {
      "channel": 0,
      "note": 80,
      "start": 30.8609,
      "duration": 0.0981,
      "velocity": 117,
      "chip": "ym2612"
    },
    {
      "channel": 2,
      "note": 27,
      "start": 30.8656,
      "duration": 0.0936,
      "velocity": 93,
      "chip": "ym2612"
    },
    {
      "channel": 4,
      "note": 85,
      "start": 30.8679,
      "duration": 0.0916,
      "velocity": 117,
      "chip": "ym2612"
    },
    {
      "channel": 5,
      "note": 71,
      "start": 30.8707,
      "duration": 0.089,
      "velocity": 127,
      "chip": "ym2612"
    },
    {
      "channel": 0,
      "note": 80,
      "start": 31.0009,
      "duration": 0.2181,
      "velocity": 117,
      "chip": "ym2612"
    },
    {
      "channel": 1,
      "note": 63,
      "start": 31.0031,
      "duration": 0.116,
      "velocity": 113,
      "chip": "ym2612"
    },
    {
      "channel": 2,
      "note": 49,
      "start": 31.0056,
      "duration": 0.0935,
      "velocity": 123,
      "chip": "ym2612"
    },
    {
      "channel": 4,
      "note": 85,
      "start": 31.0079,
      "duration": 0.0916,
      "velocity": 117,
      "chip": "ym2612"
    },
    {
      "channel": 5,
      "note": 71,
      "start": 31.01,
      "duration": 0.2097,
      "velocity": 127,
      "chip": "ym2612"
    },
    {
      "channel": 2,
      "note": 35,
      "start": 31.1217,
      "duration": 0.0976,
      "velocity": 127,
      "chip": "ym2612"
    },
    {
      "channel": 4,
      "note": 82,
      "start": 31.1239,
      "duration": 0.0956,
      "velocity": 117,
      "chip": "ym2612"
    },
    {
      "channel": 1,
      "note": 63,
      "start": 31.261,
      "duration": 0.0981,
      "velocity": 113,
      "chip": "ym2612"
    },
    {
      "channel": 2,
      "note": 49,
      "start": 31.2636,
      "duration": 0.0957,
      "velocity": 123,
      "chip": "ym2612"
    },
    {
      "channel": 4,
      "note": 80,
      "start": 31.2658,
      "duration": 0.0937,
      "velocity": 117,
      "chip": "ym2612"
    },
    {
      "channel": 5,
      "note": 71,
      "start": 31.268,
      "duration": 0.2316,
      "velocity": 127,
      "chip": "ym2612"
    },
    {
      "channel": 0,
      "note": 80,
      "start": 31.4009,
      "duration": 0.2581,
      "velocity": 117,
      "chip": "ym2612"
    },
    {
      "channel": 1,
      "note": 65,
      "start": 31.403,
      "duration": 0.096,
      "velocity": 113,
      "chip": "ym2612"
    },
    {
      "channel": 2,
      "note": 27,
      "start": 31.4057,
      "duration": 0.0936,
      "velocity": 93,
      "chip": "ym2612"
    },
    {
      "channel": 4,
      "note": 85,
      "start": 31.4079,
      "duration": 0.2116,
      "velocity": 117,
      "chip": "ym2612"
    },
    {
      "channel": 1,
      "note": 65,
      "start": 31.521,
      "duration": 0.0981,
      "velocity": 113,
      "chip": "ym2612"
    },
    {
      "channel": 2,
      "note": 49,
      "start": 31.5236,
      "duration": 0.0957,
      "velocity": 123,
      "chip": "ym2612"
    },
    {
      "channel": 5,
      "note": 71,
      "start": 31.526,
      "duration": 0.0937,
      "velocity": 127,
      "chip": "ym2612"
    },
    {
      "channel": 1,
      "note": 63,
      "start": 31.6611,
      "duration": 0.1379,
      "velocity": 113,
      "chip": "ym2612"
    },
    {
      "channel": 2,
      "note": 35,
      "start": 31.6637,
      "duration": 0.0955,
      "velocity": 127,
      "chip": "ym2612"
    },
    {
      "channel": 4,
      "note": 82,
      "start": 31.6659,
      "duration": 0.0935,
      "velocity": 117,
      "chip": "ym2612"
    },
    {
      "channel": 5,
      "note": 71,
      "start": 31.6681,
      "duration": 0.2314,
      "velocity": 127,
      "chip": "ym2612"
    },
    {
      "channel": 2,
      "note": 49,
      "start": 31.8017,
      "duration": 0.0975,
      "velocity": 123,
      "chip": "ym2612"
    },
    {
      "channel": 4,
      "note": 80,
      "start": 31.8039,
      "duration": 0.0956,
      "velocity": 117,
      "chip": "ym2612"
    },
    {
      "channel": 0,
      "note": 73,
      "start": 31.9213,
      "duration": 0.0977,
      "velocity": 117,
      "chip": "ym2612"
    },
    {
      "channel": 1,
      "note": 63,
      "start": 31.9246,
      "duration": 0.0946,
      "velocity": 113,
      "chip": "ym2612"
    },
    {
      "channel": 2,
      "note": 27,
      "start": 31.9275,
      "duration": 0.0918,
      "velocity": 93,
      "chip": "ym2612"
    },
    {
      "channel": 3,
      "note": 70,
      "start": 31.9302,
      "duration": 0.0893,
      "velocity": 117,
      "chip": "ym2612"
    },
    {
      "channel": 4,
      "note": 78,
      "start": 31.9329,
      "duration": 0.0868,
      "velocity": 117,
      "chip": "ym2612"
    },
    {
      "channel": 5,
      "note": 30,
      "start": 31.9357,
      "duration": 0.3641,
      "velocity": 110,
      "chip": "ym2612"
    },
    {
      "channel": 0,
      "note": 73,
      "start": 32.061,
      "duration": 0.098,
      "velocity": 117,
      "chip": "ym2612"
    },
    {
      "channel": 1,
      "note": 63,
      "start": 32.0631,
      "duration": 0.0961,
      "velocity": 113,
      "chip": "ym2612"
    },
    {
      "channel": 2,
      "note": 49,
      "start": 32.0656,
      "duration": 0.0937,
      "velocity": 123,
      "chip": "ym2612"
    },
    {
      "channel": 3,
      "note": 70,
      "start": 32.0679,
      "duration": 0.0916,
      "velocity": 117,
      "chip": "ym2612"
    },
    {
      "channel": 4,
      "note": 78,
      "start": 32.07,
      "duration": 0.0897,
      "velocity": 117,
      "chip": "ym2612"
    },
    {
      "channel": 0,
      "note": 75,
      "start": 32.2011,
      "duration": 0.0979,
      "velocity": 117,
      "chip": "ym2612"
    },
    {
      "channel": 1,
      "note": 63,
      "start": 32.2032,
      "duration": 0.096,
      "velocity": 113,
      "chip": "ym2612"
    },
    {
      "channel": 2,
      "note": 35,
      "start": 32.2058,
      "duration": 0.0936,
      "velocity": 127,
      "chip": "ym2612"
    },
    {
      "channel": 3,
      "note": 70,
      "start": 32.2081,
      "duration": 0.0914,
      "velocity": 117,
      "chip": "ym2612"
    },
    {
      "channel": 4,
      "note": 78,
      "start": 32.2104,
      "duration": 0.0893,
      "velocity": 117,
      "chip": "ym2612"
    },
    {
      "channel": 0,
      "note": 73,
      "start": 32.321,
      "duration": 0.098,
      "velocity": 117,
      "chip": "ym2612"
    },
    {
      "channel": 1,
      "note": 63,
      "start": 32.3231,
      "duration": 0.0961,
      "velocity": 113,
      "chip": "ym2612"
    },
    {
      "channel": 2,
      "note": 26,
      "start": 32.3256,
      "duration": 0.0937,
      "velocity": 93,
      "chip": "ym2612"
    },
    {
      "channel": 3,
      "note": 70,
      "start": 32.3279,
      "duration": 0.0916,
      "velocity": 117,
      "chip": "ym2612"
    },
    {
      "channel": 4,
      "note": 78,
      "start": 32.33,
      "duration": 0.0897,
      "velocity": 117,
      "chip": "ym2612"
    },
    {
      "channel": 5,
      "note": 30,
      "start": 32.3322,
      "duration": 0.0877,
      "velocity": 110,
      "chip": "ym2612"
    },
    {
      "channel": 0,
      "note": 73,
      "start": 32.4611,
      "duration": 0.0979,
      "velocity": 117,
      "chip": "ym2612"
    },
    {
      "channel": 2,
      "note": 27,
      "start": 32.4633,
      "duration": 0.0959,
      "velocity": 93,
      "chip": "ym2612"
    },
    {
      "channel": 3,
      "note": 70,
      "start": 32.4656,
      "duration": 0.0938,
      "velocity": 117,
      "chip": "ym2612"
    },
    {
      "channel": 4,
      "note": 78,
      "start": 32.4679,
      "duration": 0.0916,
      "velocity": 117,
      "chip": "ym2612"
    },
    {
      "channel": 5,
      "note": 30,
      "start": 32.47,
      "duration": 0.3498,
      "velocity": 110,
      "chip": "ym2612"
    },
    {
      "channel": 0,
      "note": 73,
      "start": 32.601,
      "duration": 0.098,
      "velocity": 117,
      "chip": "ym2612"
    },
    {
      "channel": 1,
      "note": 65,
      "start": 32.6031,
      "duration": 0.0961,
      "velocity": 113,
      "chip": "ym2612"
    },
    {
      "channel": 2,
      "note": 49,
      "start": 32.6056,
      "duration": 0.0937,
      "velocity": 123,
      "chip": "ym2612"
    },
    {
      "channel": 3,
      "note": 70,
      "start": 32.6079,
      "duration": 0.0916,
      "velocity": 117,
      "chip": "ym2612"
    },
    {
      "channel": 4,
      "note": 78,
      "start": 32.61,
      "duration": 0.0897,
      "velocity": 117,
      "chip": "ym2612"
    },
    {
      "channel": 0,
      "note": 75,
      "start": 32.7211,
      "duration": 0.0979,
      "velocity": 117,
      "chip": "ym2612"
    },
    {
      "channel": 1,
      "note": 65,
      "start": 32.7232,
      "duration": 0.096,
      "velocity": 113,
      "chip": "ym2612"
    },
    {
      "channel": 2,
      "note": 35,
      "start": 32.7258,
      "duration": 0.0936,
      "velocity": 127,
      "chip": "ym2612"
    },
    {
      "channel": 3,
      "note": 70,
      "start": 32.7281,
      "duration": 0.0914,
      "velocity": 117,
      "chip": "ym2612"
    },
    {
      "channel": 4,
      "note": 78,
      "start": 32.7304,
      "duration": 0.0893,
      "velocity": 117,
      "chip": "ym2612"
    },
    {
      "channel": 0,
      "note": 73,
      "start": 32.8609,
      "duration": 0.2381,
      "velocity": 117,
      "chip": "ym2612"
    },
    {
      "channel": 2,
      "note": 26,
      "start": 32.8636,
      "duration": 0.0956,
      "velocity": 93,
      "chip": "ym2612"
    },
    {
      "channel": 3,
      "note": 68,
      "start": 32.8657,
      "duration": 0.2337,
      "velocity": 117,
      "chip": "ym2612"
    },
    {
      "channel": 4,
      "note": 77,
      "start": 32.8678,
      "duration": 0.2318,
      "velocity": 117,
      "chip": "ym2612"
    },
    {
      "channel": 5,
      "note": 37,
      "start": 32.8699,
      "duration": 0.2298,
      "velocity": 110,
      "chip": "ym2612"
    },
    {
      "channel": 2,
      "note": 49,
      "start": 33.0035,
      "duration": 0.0957,
      "velocity": 123,
      "chip": "ym2612"
    },
    {
      "channel": 0,
      "note": 73,
      "start": 33.121,
      "duration": 0.098,
      "velocity": 117,
      "chip": "ym2612"
    },
    {
      "channel": 1,
      "note": 63,
      "start": 33.1232,
      "duration": 0.1381,
      "velocity": 113,
      "chip": "ym2612"
    },
    {
      "channel": 2,
      "note": 49,
      "start": 33.1254,
      "duration": 0.0939,
      "velocity": 123,
      "chip": "ym2612"
    },
    {
      "channel": 3,
      "note": 68,
      "start": 33.1276,
      "duration": 0.0919,
      "velocity": 117,
      "chip": "ym2612"
    },
    {
      "channel": 4,
      "note": 77,
      "start": 33.1298,
      "duration": 0.0898,
      "velocity": 117,
      "chip": "ym2612"
    },
    {
      "channel": 5,
      "note": 37,
      "start": 33.1319,
      "duration": 0.0878,
      "velocity": 110,
      "chip": "ym2612"
    },
    {
      "channel": 0,
      "note": 73,
      "start": 33.2611,
      "duration": 0.0979,
      "velocity": 117,
      "chip": "ym2612"
    },
    {
      "channel": 2,
      "note": 35,
      "start": 33.2639,
      "duration": 0.0954,
      "velocity": 127,
      "chip": "ym2612"
    },
    {
      "channel": 3,
      "note": 70,
      "start": 33.2661,
      "duration": 0.0934,
      "velocity": 117,
      "chip": "ym2612"
    },
    {
      "channel": 4,
      "note": 77,
      "start": 33.2685,
      "duration": 0.0911,
      "velocity": 117,
      "chip": "ym2612"
    },
    {
      "channel": 5,
      "note": 25,
      "start": 33.2706,
      "duration": 0.0892,
      "velocity": 110,
      "chip": "ym2612"
    },
    {
      "channel": 0,
      "note": 73,
      "start": 33.381,
      "duration": 0.098,
      "velocity": 117,
      "chip": "ym2612"
    },
    {
      "channel": 1,
      "note": 63,
      "start": 33.3831,
      "duration": 0.0961,
      "velocity": 113,
      "chip": "ym2612"
    },
    {
      "channel": 2,
      "note": 26,
      "start": 33.3856,
      "duration": 0.0937,
      "velocity": 93,
      "chip": "ym2612"
    },
    {
      "channel": 3,
      "note": 68,
      "start": 33.3879,
      "duration": 0.0916,
      "velocity": 117,
      "chip": "ym2612"
    },
    {
      "channel": 4,
      "note": 77,
      "start": 33.39,
      "duration": 0.0897,
      "velocity": 117,
      "chip": "ym2612"
    },
    {
      "channel": 5,
      "note": 25,
      "start": 33.3922,
      "duration": 0.0877,
      "velocity": 110,
      "chip": "ym2612"
    },
    {
      "channel": 0,
      "note": 73,
      "start": 33.5212,
      "duration": 0.0978,
      "velocity": 117,
      "chip": "ym2612"
    },
    {
      "channel": 1,
      "note": 65,
      "start": 33.5233,
      "duration": 0.0959,
      "velocity": 113,
      "chip": "ym2612"
    },
    {
      "channel": 2,
      "note": 27,
      "start": 33.5254,
      "duration": 0.0939,
      "velocity": 93,
      "chip": "ym2612"
    },
    {
      "channel": 3,
      "note": 68,
      "start": 33.5278,
      "duration": 0.0917,
      "velocity": 117,
      "chip": "ym2612"
    },
    {
      "channel": 4,
      "note": 77,
      "start": 33.53,
      "duration": 0.0897,
      "velocity": 117,
      "chip": "ym2612"
    },
    {
      "channel": 5,
      "note": 27,
      "start": 33.5322,
      "duration": 0.0877,
      "velocity": 110,
      "chip": "ym2612"
    },
    {
      "channel": 0,
      "note": 73,
      "start": 33.661,
      "duration": 0.098,
      "velocity": 117,
      "chip": "ym2612"
    },
    {
      "channel": 1,
      "note": 65,
      "start": 33.6631,
      "duration": 0.0961,
      "velocity": 113,
      "chip": "ym2612"
    },
    {
      "channel": 2,
      "note": 49,
      "start": 33.6656,
      "duration": 0.0937,
      "velocity": 123,
      "chip": "ym2612"
    },
    {
      "channel": 3,
      "note": 68,
      "start": 33.6679,
      "duration": 0.0916,
      "velocity": 117,
      "chip": "ym2612"
    },
    {
      "channel": 4,
      "note": 77,
      "start": 33.67,
      "duration": 0.0897,
      "velocity": 117,
      "chip": "ym2612"
    },
    {
      "channel": 5,
      "note": 27,
      "start": 33.6722,
      "duration": 0.0877,
      "velocity": 110,
      "chip": "ym2612"
    },
    {
      "channel": 0,
      "note": 73,
      "start": 33.7811,
      "duration": 0.0979,
      "velocity": 117,
      "chip": "ym2612"
    },
    {
      "channel": 1,
      "note": 63,
      "start": 33.7832,
      "duration": 0.1379,
      "velocity": 113,
      "chip": "ym2612"
    },
    {
      "channel": 2,
      "note": 35,
      "start": 33.7858,
      "duration": 0.0935,
      "velocity": 127,
      "chip": "ym2612"
    },
    {
      "channel": 3,
      "note": 70,
      "start": 33.7881,
      "duration": 0.0913,
      "velocity": 117,
      "chip": "ym2612"
    },
    {
      "channel": 4,
      "note": 77,
      "start": 33.7904,
      "duration": 0.0891,
      "velocity": 117,
      "chip": "ym2612"
    },
    {
      "channel": 5,
      "note": 29,
      "start": 33.7925,
      "duration": 0.0872,
      "velocity": 110,
      "chip": "ym2612"
    },
    {
      "channel": 0,
      "note": 73,
      "start": 33.921,
      "duration": 0.098,
      "velocity": 117,
      "chip": "ym2612"
    },
    {
      "channel": 2,
      "note": 49,
      "start": 33.9237,
      "duration": 0.0955,
      "velocity": 123,
      "chip": "ym2612"
    },
    {
      "channel": 3,
      "note": 68,
      "start": 33.926,
      "duration": 0.0935,
      "velocity": 117,
      "chip": "ym2612"
    },
    {
      "channel": 4,
      "note": 77,
      "start": 33.9281,
      "duration": 0.0914,
      "velocity": 117,
      "chip": "ym2612"
    },
    {
      "channel": 5,
      "note": 29,
      "start": 33.9302,
      "duration": 0.0895,
      "velocity": 110,
      "chip": "ym2612"
    },
    {
      "channel": 1,
      "note": 70,
      "start": 34.0642,
      "duration": 0.0949,
      "velocity": 117,
      "chip": "ym2612"
    },
    {
      "channel": 2,
      "note": 27,
      "start": 34.0671,
      "duration": 0.0922,
      "velocity": 93,
      "chip": "ym2612"
    },
    {
      "channel": 3,
      "note": 73,
      "start": 34.0697,
      "duration": 0.0897,
      "velocity": 117,
      "chip": "ym2612"
    },
    {
      "channel": 5,
      "note": 30,
      "start": 34.0745,
      "duration": 0.3452,
      "velocity": 110,
      "chip": "ym2612"
    },
    {
      "channel": 1,
      "note": 70,
      "start": 34.1811,
      "duration": 0.0979,
      "velocity": 117,
      "chip": "ym2612"
    },
    {
      "channel": 2,
      "note": 49,
      "start": 34.1837,
      "duration": 0.0956,
      "velocity": 123,
      "chip": "ym2612"
    },
    {
      "channel": 3,
      "note": 73,
      "start": 34.1859,
      "duration": 0.0935,
      "velocity": 117,
      "chip": "ym2612"
    },
    {
      "channel": 1,
      "note": 70,
      "start": 34.3212,
      "duration": 0.0979,
      "velocity": 117,
      "chip": "ym2612"
    },
    {
      "channel": 2,
      "note": 35,
      "start": 34.3238,
      "duration": 0.0955,
      "velocity": 127,
      "chip": "ym2612"
    },
    {
      "channel": 3,
      "note": 73,
      "start": 34.3261,
      "duration": 0.0934,
      "velocity": 117,
      "chip": "ym2612"
    },
    {
      "channel": 1,
      "note": 70,
      "start": 34.4611,
      "duration": 0.0979,
      "velocity": 117,
      "chip": "ym2612"
    },
    {
      "channel": 2,
      "note": 26,
      "start": 34.4637,
      "duration": 0.0956,
      "velocity": 93,
      "chip": "ym2612"
    },
    {
      "channel": 3,
      "note": 73,
      "start": 34.4659,
      "duration": 0.0935,
      "velocity": 117,
      "chip": "ym2612"
    },
    {
      "channel": 5,
      "note": 30,
      "start": 34.4681,
      "duration": 0.0916,
      "velocity": 110,
      "chip": "ym2612"
    },
    {
      "channel": 1,
      "note": 70,
      "start": 34.5812,
      "duration": 0.0979,
      "velocity": 117,
      "chip": "ym2612"
    },
    {
      "channel": 2,
      "note": 27,
      "start": 34.5833,
      "duration": 0.0959,
      "velocity": 93,
      "chip": "ym2612"
    },
    {
      "channel": 3,
      "note": 73,
      "start": 34.5856,
      "duration": 0.0938,
      "velocity": 117,
      "chip": "ym2612"
    },
    {
      "channel": 5,
      "note": 30,
      "start": 34.5879,
      "duration": 0.4918,
      "velocity": 110,
      "chip": "ym2612"
    },
    {
      "channel": 1,
      "note": 70,
      "start": 34.7211,
      "duration": 0.0979,
      "velocity": 117,
      "chip": "ym2612"
    },
    {
      "channel": 2,
      "note": 49,
      "start": 34.7237,
      "duration": 0.0956,
      "velocity": 123,
      "chip": "ym2612"
    },
    {
      "channel": 3,
      "note": 73,
      "start": 34.7259,
      "duration": 0.0935,
      "velocity": 117,
      "chip": "ym2612"
    },
    {
      "channel": 1,
      "note": 70,
      "start": 34.8612,
      "duration": 0.0979,
      "velocity": 117,
      "chip": "ym2612"
    },
    {
      "channel": 2,
      "note": 35,
      "start": 34.8638,
      "duration": 0.0955,
      "velocity": 127,
      "chip": "ym2612"
    },
    {
      "channel": 3,
      "note": 73,
      "start": 34.8661,
      "duration": 0.0934,
      "velocity": 117,
      "chip": "ym2612"
    },
    {
      "channel": 1,
      "note": 70,
      "start": 34.9811,
      "duration": 0.0979,
      "velocity": 117,
      "chip": "ym2612"
    },
    {
      "channel": 2,
      "note": 49,
      "start": 34.9837,
      "duration": 0.0956,
      "velocity": 123,
      "chip": "ym2612"
    },
    {
      "channel": 3,
      "note": 73,
      "start": 34.9859,
      "duration": 0.0935,
      "velocity": 117,
      "chip": "ym2612"
    },
    {
      "channel": 1,
      "note": 70,
      "start": 35.1212,
      "duration": 0.0979,
      "velocity": 117,
      "chip": "ym2612"
    },
    {
      "channel": 2,
      "note": 27,
      "start": 35.1239,
      "duration": 0.0954,
      "velocity": 93,
      "chip": "ym2612"
    },
    {
      "channel": 3,
      "note": 73,
      "start": 35.1261,
      "duration": 0.0933,
      "velocity": 117,
      "chip": "ym2612"
    },
    {
      "channel": 5,
      "note": 30,
      "start": 35.1284,
      "duration": 0.3513,
      "velocity": 110,
      "chip": "ym2612"
    },
    {
      "channel": 1,
      "note": 70,
      "start": 35.2611,
      "duration": 0.0979,
      "velocity": 117,
      "chip": "ym2612"
    },
    {
      "channel": 2,
      "note": 49,
      "start": 35.2637,
      "duration": 0.0956,
      "velocity": 123,
      "chip": "ym2612"
    },
    {
      "channel": 3,
      "note": 73,
      "start": 35.2659,
      "duration": 0.0935,
      "velocity": 117,
      "chip": "ym2612"
    },
    {
      "channel": 1,
      "note": 70,
      "start": 35.3812,
      "duration": 0.0979,
      "velocity": 117,
      "chip": "ym2612"
    },
    {
      "channel": 2,
      "note": 35,
      "start": 35.3838,
      "duration": 0.0955,
      "velocity": 127,
      "chip": "ym2612"
    },
    {
      "channel": 3,
      "note": 73,
      "start": 35.3861,
      "duration": 0.0934,
      "velocity": 117,
      "chip": "ym2612"
    },
    {
      "channel": 1,
      "note": 70,
      "start": 35.5211,
      "duration": 0.0979,
      "velocity": 117,
      "chip": "ym2612"
    },
    {
      "channel": 2,
      "note": 26,
      "start": 35.5237,
      "duration": 0.0956,
      "velocity": 93,
      "chip": "ym2612"
    },
    {
      "channel": 3,
      "note": 73,
      "start": 35.5259,
      "duration": 0.0935,
      "velocity": 117,
      "chip": "ym2612"
    },
    {
      "channel": 5,
      "note": 25,
      "start": 35.5281,
      "duration": 0.0916,
      "velocity": 110,
      "chip": "ym2612"
    },
    {
      "channel": 1,
      "note": 70,
      "start": 35.6612,
      "duration": 0.0979,
      "velocity": 117,
      "chip": "ym2612"
    },
    {
      "channel": 2,
      "note": 27,
      "start": 35.6633,
      "duration": 0.0959,
      "velocity": 93,
      "chip": "ym2612"
    },
    {
      "channel": 3,
      "note": 73,
      "start": 35.6656,
      "duration": 0.0938,
      "velocity": 117,
      "chip": "ym2612"
    },
    {
      "channel": 5,
      "note": 27,
      "start": 35.6679,
      "duration": 0.2118,
      "velocity": 110,
      "chip": "ym2612"
    },
    {
      "channel": 1,
      "note": 70,
      "start": 35.7811,
      "duration": 0.0979,
      "velocity": 117,
      "chip": "ym2612"
    },
    {
      "channel": 2,
      "note": 49,
      "start": 35.7837,
      "duration": 0.0955,
      "velocity": 123,
      "chip": "ym2612"
    },
    {
      "channel": 3,
      "note": 73,
      "start": 35.7859,
      "duration": 0.0935,
      "velocity": 117,
      "chip": "ym2612"
    },
    {
      "channel": 1,
      "note": 70,
      "start": 35.9212,
      "duration": 0.0979,
      "velocity": 117,
      "chip": "ym2612"
    },
    {
      "channel": 2,
      "note": 35,
      "start": 35.9238,
      "duration": 0.0955,
      "velocity": 127,
      "chip": "ym2612"
    },
    {
      "channel": 3,
      "note": 73,
      "start": 35.9261,
      "duration": 0.0934,
      "velocity": 117,
      "chip": "ym2612"
    },
    {
      "channel": 5,
      "note": 29,
      "start": 35.9283,
      "duration": 0.2114,
      "velocity": 110,
      "chip": "ym2612"
    },
    {
      "channel": 1,
      "note": 70,
      "start": 36.0411,
      "duration": 0.0979,
      "velocity": 117,
      "chip": "ym2612"
    },
    {
      "channel": 2,
      "note": 49,
      "start": 36.0437,
      "duration": 0.0956,
      "velocity": 123,
      "chip": "ym2612"
    },
    {
      "channel": 3,
      "note": 73,
      "start": 36.0459,
      "duration": 0.0935,
      "velocity": 117,
      "chip": "ym2612"
    },
    {
      "channel": 1,
      "note": 70,
      "start": 36.1812,
      "duration": 0.0979,
      "velocity": 117,
      "chip": "ym2612"
    },
    {
      "channel": 2,
      "note": 27,
      "start": 36.1839,
      "duration": 0.0954,
      "velocity": 93,
      "chip": "ym2612"
    },
    {
      "channel": 3,
      "note": 73,
      "start": 36.1861,
      "duration": 0.0933,
      "velocity": 117,
      "chip": "ym2612"
    },
    {
      "channel": 5,
      "note": 30,
      "start": 36.1884,
      "duration": 0.3513,
      "velocity": 110,
      "chip": "ym2612"
    },
    {
      "channel": 1,
      "note": 70,
      "start": 36.3211,
      "duration": 0.0979,
      "velocity": 117,
      "chip": "ym2612"
    },
    {
      "channel": 2,
      "note": 49,
      "start": 36.3237,
      "duration": 0.0956,
      "velocity": 123,
      "chip": "ym2612"
    },
    {
      "channel": 3,
      "note": 73,
      "start": 36.3259,
      "duration": 0.0935,
      "velocity": 117,
      "chip": "ym2612"
    },
    {
      "channel": 1,
      "note": 70,
      "start": 36.4412,
      "duration": 0.0979,
      "velocity": 117,
      "chip": "ym2612"
    },
    {
      "channel": 2,
      "note": 35,
      "start": 36.4438,
      "duration": 0.0955,
      "velocity": 127,
      "chip": "ym2612"
    },
    {
      "channel": 3,
      "note": 73,
      "start": 36.4461,
      "duration": 0.0934,
      "velocity": 117,
      "chip": "ym2612"
    },
    {
      "channel": 1,
      "note": 70,
      "start": 36.5811,
      "duration": 0.0979,
      "velocity": 117,
      "chip": "ym2612"
    },
    {
      "channel": 2,
      "note": 26,
      "start": 36.5837,
      "duration": 0.0956,
      "velocity": 93,
      "chip": "ym2612"
    },
    {
      "channel": 3,
      "note": 73,
      "start": 36.5859,
      "duration": 0.0935,
      "velocity": 117,
      "chip": "ym2612"
    },
    {
      "channel": 5,
      "note": 30,
      "start": 36.5881,
      "duration": 0.0916,
      "velocity": 110,
      "chip": "ym2612"
    },
    {
      "channel": 1,
      "note": 70,
      "start": 36.7212,
      "duration": 0.0979,
      "velocity": 117,
      "chip": "ym2612"
    },
    {
      "channel": 2,
      "note": 27,
      "start": 36.7233,
      "duration": 0.0959,
      "velocity": 93,
      "chip": "ym2612"
    },
    {
      "channel": 3,
      "note": 73,
      "start": 36.7256,
      "duration": 0.0938,
      "velocity": 117,
      "chip": "ym2612"
    },
    {
      "channel": 5,
      "note": 30,
      "start": 36.7279,
      "duration": 0.4918,
      "velocity": 110,
      "chip": "ym2612"
    },
    {
      "channel": 1,
      "note": 70,
      "start": 36.8411,
      "duration": 0.0979,
      "velocity": 117,
      "chip": "ym2612"
    },
    {
      "channel": 2,
      "note": 49,
      "start": 36.8437,
      "duration": 0.0956,
      "velocity": 123,
      "chip": "ym2612"
    },
    {
      "channel": 3,
      "note": 73,
      "start": 36.8459,
      "duration": 0.0935,
      "velocity": 117,
      "chip": "ym2612"
    },
    {
      "channel": 1,
      "note": 70,
      "start": 36.9812,
      "duration": 0.0979,
      "velocity": 117,
      "chip": "ym2612"
    },
    {
      "channel": 2,
      "note": 35,
      "start": 36.9838,
      "duration": 0.0955,
      "velocity": 127,
      "chip": "ym2612"
    },
    {
      "channel": 3,
      "note": 73,
      "start": 36.9861,
      "duration": 0.0934,
      "velocity": 117,
      "chip": "ym2612"
    },
    {
      "channel": 1,
      "note": 70,
      "start": 37.1211,
      "duration": 0.0979,
      "velocity": 117,
      "chip": "ym2612"
    },
    {
      "channel": 2,
      "note": 49,
      "start": 37.1237,
      "duration": 0.0956,
      "velocity": 123,
      "chip": "ym2612"
    },
    {
      "channel": 3,
      "note": 73,
      "start": 37.1259,
      "duration": 0.0935,
      "velocity": 117,
      "chip": "ym2612"
    },
    {
      "channel": 1,
      "note": 70,
      "start": 37.2412,
      "duration": 0.0979,
      "velocity": 117,
      "chip": "ym2612"
    },
    {
      "channel": 2,
      "note": 27,
      "start": 37.2439,
      "duration": 0.0954,
      "velocity": 93,
      "chip": "ym2612"
    },
    {
      "channel": 3,
      "note": 73,
      "start": 37.2461,
      "duration": 0.0933,
      "velocity": 117,
      "chip": "ym2612"
    },
    {
      "channel": 5,
      "note": 30,
      "start": 37.2484,
      "duration": 0.3713,
      "velocity": 110,
      "chip": "ym2612"
    },
    {
      "channel": 1,
      "note": 70,
      "start": 37.3811,
      "duration": 0.0979,
      "velocity": 117,
      "chip": "ym2612"
    },
    {
      "channel": 2,
      "note": 49,
      "start": 37.3837,
      "duration": 0.0956,
      "velocity": 123,
      "chip": "ym2612"
    },
    {
      "channel": 3,
      "note": 73,
      "start": 37.3859,
      "duration": 0.0935,
      "velocity": 117,
      "chip": "ym2612"
    },
    {
      "channel": 1,
      "note": 70,
      "start": 37.5212,
      "duration": 0.0979,
      "velocity": 117,
      "chip": "ym2612"
    },
    {
      "channel": 2,
      "note": 35,
      "start": 37.5238,
      "duration": 0.0955,
      "velocity": 127,
      "chip": "ym2612"
    },
    {
      "channel": 3,
      "note": 73,
      "start": 37.5261,
      "duration": 0.0934,
      "velocity": 117,
      "chip": "ym2612"
    },
    {
      "channel": 1,
      "note": 70,
      "start": 37.6411,
      "duration": 0.0979,
      "velocity": 117,
      "chip": "ym2612"
    },
    {
      "channel": 2,
      "note": 26,
      "start": 37.6437,
      "duration": 0.0956,
      "velocity": 93,
      "chip": "ym2612"
    },
    {
      "channel": 3,
      "note": 73,
      "start": 37.6459,
      "duration": 0.0935,
      "velocity": 117,
      "chip": "ym2612"
    },
    {
      "channel": 5,
      "note": 30,
      "start": 37.6481,
      "duration": 0.0916,
      "velocity": 110,
      "chip": "ym2612"
    },
    {
      "channel": 1,
      "note": 70,
      "start": 37.7812,
      "duration": 0.0979,
      "velocity": 117,
      "chip": "ym2612"
    },
    {
      "channel": 2,
      "note": 27,
      "start": 37.7833,
      "duration": 0.0959,
      "velocity": 93,
      "chip": "ym2612"
    },
    {
      "channel": 3,
      "note": 73,
      "start": 37.7856,
      "duration": 0.0938,
      "velocity": 117,
      "chip": "ym2612"
    },
    {
      "channel": 5,
      "note": 32,
      "start": 37.7879,
      "duration": 0.2318,
      "velocity": 110,
      "chip": "ym2612"
    },
    {
      "channel": 1,
      "note": 70,
      "start": 37.9211,
      "duration": 0.0979,
      "velocity": 117,
      "chip": "ym2612"
    },
    {
      "channel": 2,
      "note": 49,
      "start": 37.9237,
      "duration": 0.0956,
      "velocity": 123,
      "chip": "ym2612"
    },
    {
      "channel": 3,
      "note": 73,
      "start": 37.9259,
      "duration": 0.0935,
      "velocity": 117,
      "chip": "ym2612"
    },
    {
      "channel": 1,
      "note": 70,
      "start": 38.0412,
      "duration": 0.0979,
      "velocity": 117,
      "chip": "ym2612"
    },
    {
      "channel": 2,
      "note": 35,
      "start": 38.0438,
      "duration": 0.0955,
      "velocity": 127,
      "chip": "ym2612"
    },
    {
      "channel": 3,
      "note": 73,
      "start": 38.0461,
      "duration": 0.0934,
      "velocity": 117,
      "chip": "ym2612"
    },
    {
      "channel": 5,
      "note": 34,
      "start": 38.0483,
      "duration": 0.2314,
      "velocity": 110,
      "chip": "ym2612"
    },
    {
      "channel": 1,
      "note": 70,
      "start": 38.1811,
      "duration": 0.0979,
      "velocity": 117,
      "chip": "ym2612"
    },
    {
      "channel": 2,
      "note": 49,
      "start": 38.1837,
      "duration": 0.0956,
      "velocity": 123,
      "chip": "ym2612"
    },
    {
      "channel": 3,
      "note": 73,
      "start": 38.1859,
      "duration": 0.0935,
      "velocity": 117,
      "chip": "ym2612"
    },
    {
      "channel": 1,
      "note": 75,
      "start": 38.3214,
      "duration": 0.0776,
      "velocity": 117,
      "chip": "ym2612"
    },
    {
      "channel": 2,
      "note": 27,
      "start": 38.3241,
      "duration": 0.0751,
      "velocity": 93,
      "chip": "ym2612"
    },
    {
      "channel": 3,
      "note": 78,
      "start": 38.3266,
      "duration": 0.0728,
      "velocity": 117,
      "chip": "ym2612"
    },
    {
      "channel": 5,
      "note": 35,
      "start": 38.3289,
      "duration": 0.3508,
      "velocity": 110,
      "chip": "ym2612"
    },
    {
      "channel": 1,
      "note": 75,
      "start": 38.4411,
      "duration": 0.0979,
      "velocity": 117,
      "chip": "ym2612"
    },
    {
      "channel": 2,
      "note": 49,
      "start": 38.4437,
      "duration": 0.0955,
      "velocity": 123,
      "chip": "ym2612"
    },
    {
      "channel": 3,
      "note": 78,
      "start": 38.4459,
      "duration": 0.0935,
      "velocity": 117,
      "chip": "ym2612"
    },
    {
      "channel": 1,
      "note": 75,
      "start": 38.5812,
      "duration": 0.0979,
      "velocity": 117,
      "chip": "ym2612"
    },
    {
      "channel": 2,
      "note": 35,
      "start": 38.5838,
      "duration": 0.0955,
      "velocity": 127,
      "chip": "ym2612"
    },
    {
      "channel": 3,
      "note": 78,
      "start": 38.5861,
      "duration": 0.0934,
      "velocity": 117,
      "chip": "ym2612"
    },
    {
      "channel": 1,
      "note": 75,
      "start": 38.7011,
      "duration": 0.0979,
      "velocity": 117,
      "chip": "ym2612"
    },
    {
      "channel": 2,
      "note": 26,
      "start": 38.7037,
      "duration": 0.0955,
      "velocity": 93,
      "chip": "ym2612"
    },
    {
      "channel": 3,
      "note": 78,
      "start": 38.7059,
      "duration": 0.0935,
      "velocity": 117,
      "chip": "ym2612"
    },
    {
      "channel": 5,
      "note": 35,
      "start": 38.7081,
      "duration": 0.0916,
      "velocity": 110,
      "chip": "ym2612"
    },
    {
      "channel": 1,
      "note": 75,
      "start": 38.8412,
      "duration": 0.0979,
      "velocity": 117,
      "chip": "ym2612"
    },
    {
      "channel": 2,
      "note": 27,
      "start": 38.8433,
      "duration": 0.0959,
      "velocity": 93,
      "chip": "ym2612"
    },
    {
      "channel": 3,
      "note": 78,
      "start": 38.8456,
      "duration": 0.0938,
      "velocity": 117,
      "chip": "ym2612"
    },
    {
      "channel": 5,
      "note": 35,
      "start": 38.8479,
      "duration": 0.4918,
      "velocity": 110,
      "chip": "ym2612"
    },
    {
      "channel": 1,
      "note": 75,
      "start": 38.9811,
      "duration": 0.0979,
      "velocity": 117,
      "chip": "ym2612"
    },
    {
      "channel": 2,
      "note": 49,
      "start": 38.9837,
      "duration": 0.0955,
      "velocity": 123,
      "chip": "ym2612"
    },
    {
      "channel": 3,
      "note": 78,
      "start": 38.9859,
      "duration": 0.0935,
      "velocity": 117,
      "chip": "ym2612"
    },
    {
      "channel": 1,
      "note": 75,
      "start": 39.1012,
      "duration": 0.0979,
      "velocity": 117,
      "chip": "ym2612"
    },
    {
      "channel": 2,
      "note": 35,
      "start": 39.1038,
      "duration": 0.0955,
      "velocity": 127,
      "chip": "ym2612"
    },
    {
      "channel": 3,
      "note": 78,
      "start": 39.1061,
      "duration": 0.0934,
      "velocity": 117,
      "chip": "ym2612"
    },
    {
      "channel": 1,
      "note": 75,
      "start": 39.2411,
      "duration": 0.0979,
      "velocity": 117,
      "chip": "ym2612"
    },
    {
      "channel": 2,
      "note": 49,
      "start": 39.2437,
      "duration": 0.0955,
      "velocity": 123,
      "chip": "ym2612"
    },
    {
      "channel": 3,
      "note": 78,
      "start": 39.2459,
      "duration": 0.0935,
      "velocity": 117,
      "chip": "ym2612"
    },
    {
      "channel": 1,
      "note": 75,
      "start": 39.3812,
      "duration": 0.0979,
      "velocity": 117,
      "chip": "ym2612"
    },
    {
      "channel": 2,
      "note": 27,
      "start": 39.3839,
      "duration": 0.0954,
      "velocity": 93,
      "chip": "ym2612"
    },
    {
      "channel": 3,
      "note": 78,
      "start": 39.3861,
      "duration": 0.0933,
      "velocity": 117,
      "chip": "ym2612"
    },
    {
      "channel": 5,
      "note": 35,
      "start": 39.3884,
      "duration": 0.3513,
      "velocity": 110,
      "chip": "ym2612"
    },
    {
      "channel": 1,
      "note": 75,
      "start": 39.5011,
      "duration": 0.0979,
      "velocity": 117,
      "chip": "ym2612"
    },
    {
      "channel": 2,
      "note": 49,
      "start": 39.5037,
      "duration": 0.0955,
      "velocity": 123,
      "chip": "ym2612"
    },
    {
      "channel": 3,
      "note": 78,
      "start": 39.5059,
      "duration": 0.0935,
      "velocity": 117,
      "chip": "ym2612"
    },
    {
      "channel": 1,
      "note": 75,
      "start": 39.6412,
      "duration": 0.0979,
      "velocity": 117,
      "chip": "ym2612"
    },
    {
      "channel": 2,
      "note": 35,
      "start": 39.6438,
      "duration": 0.0955,
      "velocity": 127,
      "chip": "ym2612"
    },
    {
      "channel": 3,
      "note": 78,
      "start": 39.6461,
      "duration": 0.0934,
      "velocity": 117,
      "chip": "ym2612"
    },
    {
      "channel": 1,
      "note": 75,
      "start": 39.7811,
      "duration": 0.0979,
      "velocity": 117,
      "chip": "ym2612"
    },
    {
      "channel": 2,
      "note": 26,
      "start": 39.7837,
      "duration": 0.0955,
      "velocity": 93,
      "chip": "ym2612"
    },
    {
      "channel": 3,
      "note": 78,
      "start": 39.7859,
      "duration": 0.0935,
      "velocity": 117,
      "chip": "ym2612"
    },
    {
      "channel": 5,
      "note": 35,
      "start": 39.7881,
      "duration": 0.0916,
      "velocity": 110,
      "chip": "ym2612"
    },
    {
      "channel": 1,
      "note": 75,
      "start": 39.9012,
      "duration": 0.0979,
      "velocity": 117,
      "chip": "ym2612"
    },
    {
      "channel": 2,
      "note": 27,
      "start": 39.9033,
      "duration": 0.0959,
      "velocity": 93,
      "chip": "ym2612"
    },
    {
      "channel": 3,
      "note": 78,
      "start": 39.9056,
      "duration": 0.0938,
      "velocity": 117,
      "chip": "ym2612"
    },
    {
      "channel": 5,
      "note": 34,
      "start": 39.9079,
      "duration": 0.2318,
      "velocity": 110,
      "chip": "ym2612"
    },
    {
      "channel": 1,
      "note": 75,
      "start": 40.0411,
      "duration": 0.0979,
      "velocity": 117,
      "chip": "ym2612"
    },
    {
      "channel": 2,
      "note": 49,
      "start": 40.0437,
      "duration": 0.0955,
      "velocity": 123,
      "chip": "ym2612"
    },
    {
      "channel": 3,
      "note": 78,
      "start": 40.0459,
      "duration": 0.0935,
      "velocity": 117,
      "chip": "ym2612"
    },
    {
      "channel": 1,
      "note": 75,
      "start": 40.1812,
      "duration": 0.0979,
      "velocity": 117,
      "chip": "ym2612"
    },
    {
      "channel": 2,
      "note": 35,
      "start": 40.1838,
      "duration": 0.0955,
      "velocity": 127,
      "chip": "ym2612"
    },
    {
      "channel": 3,
      "note": 78,
      "start": 40.1861,
      "duration": 0.0934,
      "velocity": 117,
      "chip": "ym2612"
    },
    {
      "channel": 5,
      "note": 29,
      "start": 40.1883,
      "duration": 0.2114,
      "velocity": 110,
      "chip": "ym2612"
    },
    {
      "channel": 1,
      "note": 75,
      "start": 40.3011,
      "duration": 0.0979,
      "velocity": 117,
      "chip": "ym2612"
    },
    {
      "channel": 2,
      "note": 49,
      "start": 40.3037,
      "duration": 0.0955,
      "velocity": 123,
      "chip": "ym2612"
    },
    {
      "channel": 3,
      "note": 78,
      "start": 40.3059,
      "duration": 0.0935,
      "velocity": 117,
      "chip": "ym2612"
    },
    {
      "channel": 1,
      "note": 70,
      "start": 40.4414,
      "duration": 0.0977,
      "velocity": 117,
      "chip": "ym2612"
    },
    {
      "channel": 2,
      "note": 27,
      "start": 40.444,
      "duration": 0.0952,
      "velocity": 93,
      "chip": "ym2612"
    },
    {
      "channel": 3,
      "note": 73,
      "start": 40.4465,
      "duration": 0.0929,
      "velocity": 117,
      "chip": "ym2612"
    },
    {
      "channel": 5,
      "note": 30,
      "start": 40.4487,
      "duration": 0.351,
      "velocity": 110,
      "chip": "ym2612"
    },
    {
      "channel": 1,
      "note": 70,
      "start": 40.5811,
      "duration": 0.0979,
      "velocity": 117,
      "chip": "ym2612"
    },
    {
      "channel": 2,
      "note": 49,
      "start": 40.5837,
      "duration": 0.0955,
      "velocity": 123,
      "chip": "ym2612"
    },
    {
      "channel": 3,
      "note": 73,
      "start": 40.5859,
      "duration": 0.0935,
      "velocity": 117,
      "chip": "ym2612"
    },
    {
      "channel": 1,
      "note": 70,
      "start": 40.7012,
      "duration": 0.0979,
      "velocity": 117,
      "chip": "ym2612"
    },
    {
      "channel": 2,
      "note": 35,
      "start": 40.7038,
      "duration": 0.0955,
      "velocity": 127,
      "chip": "ym2612"
    },
    {
      "channel": 3,
      "note": 73,
      "start": 40.7061,
      "duration": 0.0934,
      "velocity": 117,
      "chip": "ym2612"
    },
    {
      "channel": 1,
      "note": 70,
      "start": 40.8411,
      "duration": 0.0979,
      "velocity": 117,
      "chip": "ym2612"
    },
    {
      "channel": 2,
      "note": 26,
      "start": 40.8437,
      "duration": 0.0955,
      "velocity": 93,
      "chip": "ym2612"
    },
    {
      "channel": 3,
      "note": 73,
      "start": 40.8459,
      "duration": 0.0935,
      "velocity": 117,
      "chip": "ym2612"
    },
    {
      "channel": 5,
      "note": 30,
      "start": 40.8481,
      "duration": 0.0916,
      "velocity": 110,
      "chip": "ym2612"
    },
    {
      "channel": 1,
      "note": 70,
      "start": 40.9612,
      "duration": 0.0979,
      "velocity": 117,
      "chip": "ym2612"
    },
    {
      "channel": 2,
      "note": 27,
      "start": 40.9633,
      "duration": 0.0959,
      "velocity": 93,
      "chip": "ym2612"
    },
    {
      "channel": 3,
      "note": 73,
      "start": 40.9656,
      "duration": 0.0938,
      "velocity": 117,
      "chip": "ym2612"
    },
    {
      "channel": 5,
      "note": 30,
      "start": 40.9679,
      "duration": 0.4918,
      "velocity": 110,
      "chip": "ym2612"
    },
    {
      "channel": 1,
      "note": 70,
      "start": 41.1011,
      "duration": 0.0979,
      "velocity": 117,
      "chip": "ym2612"
    },
    {
      "channel": 2,
      "note": 49,
      "start": 41.1037,
      "duration": 0.0955,
      "velocity": 123,
      "chip": "ym2612"
    },
    {
      "channel": 3,
      "note": 73,
      "start": 41.1059,
      "duration": 0.0935,
      "velocity": 117,
      "chip": "ym2612"
    },
    {
      "channel": 1,
      "note": 70,
      "start": 41.2412,
      "duration": 0.0979,
      "velocity": 117,
      "chip": "ym2612"
    },
    {
      "channel": 2,
      "note": 35,
      "start": 41.2438,
      "duration": 0.0955,
      "velocity": 127,
      "chip": "ym2612"
    },
    {
      "channel": 3,
      "note": 73,
      "start": 41.2461,
      "duration": 0.0934,
      "velocity": 117,
      "chip": "ym2612"
    },
    {
      "channel": 1,
      "note": 70,
      "start": 41.3611,
      "duration": 0.0979,
      "velocity": 117,
      "chip": "ym2612"
    },
    {
      "channel": 2,
      "note": 49,
      "start": 41.3637,
      "duration": 0.0955,
      "velocity": 123,
      "chip": "ym2612"
    },
    {
      "channel": 3,
      "note": 73,
      "start": 41.3659,
      "duration": 0.0935,
      "velocity": 117,
      "chip": "ym2612"
    },
    {
      "channel": 1,
      "note": 70,
      "start": 41.5012,
      "duration": 0.0979,
      "velocity": 117,
      "chip": "ym2612"
    },
    {
      "channel": 2,
      "note": 27,
      "start": 41.5039,
      "duration": 0.0954,
      "velocity": 93,
      "chip": "ym2612"
    },
    {
      "channel": 3,
      "note": 73,
      "start": 41.5061,
      "duration": 0.0933,
      "velocity": 117,
      "chip": "ym2612"
    },
    {
      "channel": 5,
      "note": 30,
      "start": 41.5084,
      "duration": 0.3513,
      "velocity": 110,
      "chip": "ym2612"
    },
    {
      "channel": 1,
      "note": 70,
      "start": 41.6411,
      "duration": 0.0979,
      "velocity": 117,
      "chip": "ym2612"
    },
    {
      "channel": 2,
      "note": 49,
      "start": 41.6437,
      "duration": 0.0955,
      "velocity": 123,
      "chip": "ym2612"
    },
    {
      "channel": 3,
      "note": 73,
      "start": 41.6459,
      "duration": 0.0935,
      "velocity": 117,
      "chip": "ym2612"
    },
    {
      "channel": 1,
      "note": 70,
      "start": 41.7612,
      "duration": 0.0979,
      "velocity": 117,
      "chip": "ym2612"
    },
    {
      "channel": 2,
      "note": 35,
      "start": 41.7638,
      "duration": 0.0955,
      "velocity": 127,
      "chip": "ym2612"
    },
    {
      "channel": 3,
      "note": 73,
      "start": 41.7661,
      "duration": 0.0934,
      "velocity": 117,
      "chip": "ym2612"
    },
    {
      "channel": 1,
      "note": 70,
      "start": 41.9011,
      "duration": 0.0979,
      "velocity": 117,
      "chip": "ym2612"
    },
    {
      "channel": 2,
      "note": 26,
      "start": 41.9037,
      "duration": 0.0955,
      "velocity": 93,
      "chip": "ym2612"
    },
    {
      "channel": 3,
      "note": 73,
      "start": 41.9059,
      "duration": 0.0935,
      "velocity": 117,
      "chip": "ym2612"
    },
    {
      "channel": 5,
      "note": 30,
      "start": 41.9081,
      "duration": 0.0916,
      "velocity": 110,
      "chip": "ym2612"
    },
    {
      "channel": 1,
      "note": 70,
      "start": 42.0412,
      "duration": 0.0979,
      "velocity": 117,
      "chip": "ym2612"
    },
    {
      "channel": 2,
      "note": 27,
      "start": 42.0433,
      "duration": 0.0959,
      "velocity": 93,
      "chip": "ym2612"
    },
    {
      "channel": 3,
      "note": 73,
      "start": 42.0456,
      "duration": 0.0938,
      "velocity": 117,
      "chip": "ym2612"
    },
    {
      "channel": 5,
      "note": 32,
      "start": 42.0479,
      "duration": 0.2118,
      "velocity": 110,
      "chip": "ym2612"
    },
    {
      "channel": 1,
      "note": 70,
      "start": 42.1611,
      "duration": 0.0979,
      "velocity": 117,
      "chip": "ym2612"
    },
    {
      "channel": 2,
      "note": 49,
      "start": 42.1637,
      "duration": 0.0955,
      "velocity": 123,
      "chip": "ym2612"
    },
    {
      "channel": 3,
      "note": 73,
      "start": 42.1659,
      "duration": 0.0935,
      "velocity": 117,
      "chip": "ym2612"
    },
    {
      "channel": 1,
      "note": 70,
      "start": 42.3012,
      "duration": 0.0979,
      "velocity": 117,
      "chip": "ym2612"
    },
    {
      "channel": 2,
      "note": 35,
      "start": 42.3038,
      "duration": 0.0955,
      "velocity": 127,
      "chip": "ym2612"
    },
    {
      "channel": 3,
      "note": 73,
      "start": 42.3061,
      "duration": 0.0934,
      "velocity": 117,
      "chip": "ym2612"
    },
    {
      "channel": 5,
      "note": 34,
      "start": 42.3083,
      "duration": 0.2314,
      "velocity": 110,
      "chip": "ym2612"
    },
    {
      "channel": 1,
      "note": 70,
      "start": 42.4411,
      "duration": 0.0979,
      "velocity": 117,
      "chip": "ym2612"
    },
    {
      "channel": 2,
      "note": 49,
      "start": 42.4437,
      "duration": 0.0955,
      "velocity": 123,
      "chip": "ym2612"
    },
    {
      "channel": 3,
      "note": 73,
      "start": 42.4459,
      "duration": 0.0935,
      "velocity": 117,
      "chip": "ym2612"
    },
    {
      "channel": 0,
      "note": 63,
      "start": 42.5622,
      "duration": 0.0968,
      "velocity": 113,
      "chip": "ym2612"
    },
    {
      "channel": 1,
      "note": 77,
      "start": 42.5646,
      "duration": 0.0946,
      "velocity": 117,
      "chip": "ym2612"
    },
    {
      "channel": 2,
      "note": 27,
      "start": 42.5673,
      "duration": 0.092,
      "velocity": 93,
      "chip": "ym2612"
    },
    {
      "channel": 3,
      "note": 80,
      "start": 42.5698,
      "duration": 0.0897,
      "velocity": 117,
      "chip": "ym2612"
    },
    {
      "channel": 4,
      "note": 68,
      "start": 42.5727,
      "duration": 0.087,
      "velocity": 127,
      "chip": "ym2612"
    },
    {
      "channel": 5,
      "note": 37,
      "start": 42.5748,
      "duration": 0.365,
      "velocity": 110,
      "chip": "ym2612"
    },
    {
      "channel": 0,
      "note": 63,
      "start": 42.7009,
      "duration": 0.0981,
      "velocity": 113,
      "chip": "ym2612"
    },
    {
      "channel": 1,
      "note": 77,
      "start": 42.7032,
      "duration": 0.096,
      "velocity": 117,
      "chip": "ym2612"
    },
    {
      "channel": 2,
      "note": 49,
      "start": 42.7056,
      "duration": 0.0937,
      "velocity": 123,
      "chip": "ym2612"
    },
    {
      "channel": 3,
      "note": 80,
      "start": 42.7079,
      "duration": 0.0916,
      "velocity": 117,
      "chip": "ym2612"
    },
    {
      "channel": 4,
      "note": 68,
      "start": 42.71,
      "duration": 0.0897,
      "velocity": 127,
      "chip": "ym2612"
    },
    {
      "channel": 0,
      "note": 63,
      "start": 42.8409,
      "duration": 0.0981,
      "velocity": 113,
      "chip": "ym2612"
    },
    {
      "channel": 1,
      "note": 77,
      "start": 42.8432,
      "duration": 0.096,
      "velocity": 117,
      "chip": "ym2612"
    },
    {
      "channel": 2,
      "note": 35,
      "start": 42.8458,
      "duration": 0.0936,
      "velocity": 127,
      "chip": "ym2612"
    },
    {
      "channel": 3,
      "note": 80,
      "start": 42.8481,
      "duration": 0.0914,
      "velocity": 117,
      "chip": "ym2612"
    },
    {
      "channel": 4,
      "note": 68,
      "start": 42.8504,
      "duration": 0.0893,
      "velocity": 127,
      "chip": "ym2612"
    },
    {
      "channel": 0,
      "note": 63,
      "start": 42.9609,
      "duration": 0.0981,
      "velocity": 113,
      "chip": "ym2612"
    },
    {
      "channel": 1,
      "note": 77,
      "start": 42.9632,
      "duration": 0.096,
      "velocity": 117,
      "chip": "ym2612"
    },
    {
      "channel": 2,
      "note": 26,
      "start": 42.9656,
      "duration": 0.0937,
      "velocity": 93,
      "chip": "ym2612"
    },
    {
      "channel": 3,
      "note": 80,
      "start": 42.9679,
      "duration": 0.0916,
      "velocity": 117,
      "chip": "ym2612"
    },
    {
      "channel": 4,
      "note": 68,
      "start": 42.97,
      "duration": 0.0897,
      "velocity": 127,
      "chip": "ym2612"
    },
    {
      "channel": 5,
      "note": 37,
      "start": 42.9722,
      "duration": 0.0877,
      "velocity": 110,
      "chip": "ym2612"
    },
    {
      "channel": 1,
      "note": 77,
      "start": 43.1012,
      "duration": 0.0979,
      "velocity": 117,
      "chip": "ym2612"
    },
    {
      "channel": 2,
      "note": 27,
      "start": 43.1033,
      "duration": 0.0959,
      "velocity": 93,
      "chip": "ym2612"
    },
    {
      "channel": 3,
      "note": 80,
      "start": 43.1056,
      "duration": 0.0938,
      "velocity": 117,
      "chip": "ym2612"
    },
    {
      "channel": 4,
      "note": 69,
      "start": 43.1081,
      "duration": 0.0915,
      "velocity": 127,
      "chip": "ym2612"
    },
    {
      "channel": 5,
      "note": 37,
      "start": 43.1102,
      "duration": 0.4895,
      "velocity": 110,
      "chip": "ym2612"
    },
    {
      "channel": 0,
      "note": 65,
      "start": 43.2409,
      "duration": 0.0981,
      "velocity": 113,
      "chip": "ym2612"
    },
    {
      "channel": 1,
      "note": 77,
      "start": 43.2432,
      "duration": 0.096,
      "velocity": 117,
      "chip": "ym2612"
    },
    {
      "channel": 2,
      "note": 49,
      "start": 43.2456,
      "duration": 0.0937,
      "velocity": 123,
      "chip": "ym2612"
    },
    {
      "channel": 3,
      "note": 80,
      "start": 43.2479,
      "duration": 0.0916,
      "velocity": 117,
      "chip": "ym2612"
    },
    {
      "channel": 4,
      "note": 68,
      "start": 43.25,
      "duration": 0.0897,
      "velocity": 127,
      "chip": "ym2612"
    },
    {
      "channel": 0,
      "note": 65,
      "start": 43.3609,
      "duration": 0.0981,
      "velocity": 113,
      "chip": "ym2612"
    },
    {
      "channel": 1,
      "note": 77,
      "start": 43.3632,
      "duration": 0.096,
      "velocity": 117,
      "chip": "ym2612"
    },
    {
      "channel": 2,
      "note": 35,
      "start": 43.3658,
      "duration": 0.0936,
      "velocity": 127,
      "chip": "ym2612"
    },
    {
      "channel": 3,
      "note": 80,
      "start": 43.3681,
      "duration": 0.0914,
      "velocity": 117,
      "chip": "ym2612"
    },
    {
      "channel": 4,
      "note": 69,
      "start": 43.3704,
      "duration": 0.0893,
      "velocity": 127,
      "chip": "ym2612"
    },
    {
      "channel": 1,
      "note": 77,
      "start": 43.5011,
      "duration": 0.0979,
      "velocity": 117,
      "chip": "ym2612"
    },
    {
      "channel": 2,
      "note": 49,
      "start": 43.5037,
      "duration": 0.0955,
      "velocity": 123,
      "chip": "ym2612"
    },
    {
      "channel": 3,
      "note": 80,
      "start": 43.5059,
      "duration": 0.0935,
      "velocity": 117,
      "chip": "ym2612"
    },
    {
      "channel": 4,
      "note": 68,
      "start": 43.5081,
      "duration": 0.2114,
      "velocity": 127,
      "chip": "ym2612"
    },
    {
      "channel": 1,
      "note": 77,
      "start": 43.6232,
      "duration": 0.0959,
      "velocity": 117,
      "chip": "ym2612"
    },
    {
      "channel": 2,
      "note": 27,
      "start": 43.6258,
      "duration": 0.0934,
      "velocity": 93,
      "chip": "ym2612"
    },
    {
      "channel": 3,
      "note": 80,
      "start": 43.6281,
      "duration": 0.0913,
      "velocity": 117,
      "chip": "ym2612"
    },
    {
      "channel": 5,
      "note": 37,
      "start": 43.6304,
      "duration": 0.3694,
      "velocity": 110,
      "chip": "ym2612"
    },
    {
      "channel": 0,
      "note": 63,
      "start": 43.761,
      "duration": 0.138,
      "velocity": 113,
      "chip": "ym2612"
    },
    {
      "channel": 1,
      "note": 77,
      "start": 43.7632,
      "duration": 0.0959,
      "velocity": 117,
      "chip": "ym2612"
    },
    {
      "channel": 2,
      "note": 49,
      "start": 43.7657,
      "duration": 0.0936,
      "velocity": 123,
      "chip": "ym2612"
    },
    {
      "channel": 3,
      "note": 80,
      "start": 43.7679,
      "duration": 0.0915,
      "velocity": 117,
      "chip": "ym2612"
    },
    {
      "channel": 4,
      "note": 68,
      "start": 43.7701,
      "duration": 0.0895,
      "velocity": 127,
      "chip": "ym2612"
    },
    {
      "channel": 1,
      "note": 77,
      "start": 43.9013,
      "duration": 0.0978,
      "velocity": 117,
      "chip": "ym2612"
    },
    {
      "channel": 2,
      "note": 35,
      "start": 43.9039,
      "duration": 0.0954,
      "velocity": 127,
      "chip": "ym2612"
    },
    {
      "channel": 3,
      "note": 80,
      "start": 43.9061,
      "duration": 0.0933,
      "velocity": 117,
      "chip": "ym2612"
    },
    {
      "channel": 4,
      "note": 69,
      "start": 43.9084,
      "duration": 0.0912,
      "velocity": 127,
      "chip": "ym2612"
    },
    {
      "channel": 0,
      "note": 63,
      "start": 44.0209,
      "duration": 0.0981,
      "velocity": 113,
      "chip": "ym2612"
    },
    {
      "channel": 1,
      "note": 77,
      "start": 44.0232,
      "duration": 0.096,
      "velocity": 117,
      "chip": "ym2612"
    },
    {
      "channel": 2,
      "note": 26,
      "start": 44.0256,
      "duration": 0.0937,
      "velocity": 93,
      "chip": "ym2612"
    },
    {
      "channel": 3,
      "note": 80,
      "start": 44.0279,
      "duration": 0.0916,
      "velocity": 117,
      "chip": "ym2612"
    },
    {
      "channel": 4,
      "note": 68,
      "start": 44.03,
      "duration": 0.0897,
      "velocity": 127,
      "chip": "ym2612"
    },
    {
      "channel": 5,
      "note": 25,
      "start": 44.0322,
      "duration": 0.0877,
      "velocity": 110,
      "chip": "ym2612"
    },
    {
      "channel": 0,
      "note": 65,
      "start": 44.1609,
      "duration": 0.0981,
      "velocity": 113,
      "chip": "ym2612"
    },
    {
      "channel": 1,
      "note": 77,
      "start": 44.1632,
      "duration": 0.096,
      "velocity": 117,
      "chip": "ym2612"
    },
    {
      "channel": 2,
      "note": 27,
      "start": 44.1653,
      "duration": 0.094,
      "velocity": 93,
      "chip": "ym2612"
    },
    {
      "channel": 3,
      "note": 80,
      "start": 44.1676,
      "duration": 0.0919,
      "velocity": 117,
      "chip": "ym2612"
    },
    {
      "channel": 4,
      "note": 69,
      "start": 44.1699,
      "duration": 0.0898,
      "velocity": 127,
      "chip": "ym2612"
    },
    {
      "channel": 5,
      "note": 27,
      "start": 44.172,
      "duration": 0.2278,
      "velocity": 110,
      "chip": "ym2612"
    },
    {
      "channel": 0,
      "note": 65,
      "start": 44.3009,
      "duration": 0.0981,
      "velocity": 113,
      "chip": "ym2612"
    },
    {
      "channel": 1,
      "note": 77,
      "start": 44.3032,
      "duration": 0.096,
      "velocity": 117,
      "chip": "ym2612"
    },
    {
      "channel": 2,
      "note": 49,
      "start": 44.3056,
      "duration": 0.0937,
      "velocity": 123,
      "chip": "ym2612"
    },
    {
      "channel": 3,
      "note": 80,
      "start": 44.3079,
      "duration": 0.0916,
      "velocity": 117,
      "chip": "ym2612"
    },
    {
      "channel": 4,
      "note": 68,
      "start": 44.31,
      "duration": 0.0897,
      "velocity": 127,
      "chip": "ym2612"
    },
    {
      "channel": 0,
      "note": 63,
      "start": 44.4209,
      "duration": 0.1381,
      "velocity": 113,
      "chip": "ym2612"
    },
    {
      "channel": 1,
      "note": 77,
      "start": 44.4232,
      "duration": 0.0958,
      "velocity": 117,
      "chip": "ym2612"
    },
    {
      "channel": 2,
      "note": 35,
      "start": 44.4258,
      "duration": 0.0935,
      "velocity": 127,
      "chip": "ym2612"
    },
    {
      "channel": 3,
      "note": 80,
      "start": 44.4281,
      "duration": 0.0914,
      "velocity": 117,
      "chip": "ym2612"
    },
    {
      "channel": 4,
      "note": 69,
      "start": 44.4304,
      "duration": 0.0892,
      "velocity": 127,
      "chip": "ym2612"
    },
    {
      "channel": 5,
      "note": 29,
      "start": 44.4325,
      "duration": 0.2273,
      "velocity": 110,
      "chip": "ym2612"
    },
    {
      "channel": 1,
      "note": 77,
      "start": 44.5612,
      "duration": 0.0979,
      "velocity": 117,
      "chip": "ym2612"
    },
    {
      "channel": 2,
      "note": 49,
      "start": 44.5638,
      "duration": 0.0955,
      "velocity": 123,
      "chip": "ym2612"
    },
    {
      "channel": 3,
      "note": 80,
      "start": 44.566,
      "duration": 0.0934,
      "velocity": 117,
      "chip": "ym2612"
    },
    {
      "channel": 4,
      "note": 68,
      "start": 44.5682,
      "duration": 0.0914,
      "velocity": 127,
      "chip": "ym2612"
    },
    {
      "channel": 0,
      "note": 63,
      "start": 44.7022,
      "duration": 0.0968,
      "velocity": 113,
      "chip": "ym2612"
    },
    {
      "channel": 1,
      "note": 73,
      "start": 44.7047,
      "duration": 0.0945,
      "velocity": 117,
      "chip": "ym2612"
    },
    {
      "channel": 2,
      "note": 27,
      "start": 44.7074,
      "duration": 0.0919,
      "velocity": 93,
      "chip": "ym2612"
    },
    {
      "channel": 3,
      "note": 70,
      "start": 44.71,
      "duration": 0.0895,
      "velocity": 117,
      "chip": "ym2612"
    },
    {
      "channel": 4,
      "note": 68,
      "start": 44.7125,
      "duration": 0.0872,
      "velocity": 127,
      "chip": "ym2612"
    },
    {
      "channel": 5,
      "note": 30,
      "start": 44.7148,
      "duration": 0.345,
      "velocity": 110,
      "chip": "ym2612"
    },
    {
      "channel": 0,
      "note": 63,
      "start": 44.8209,
      "duration": 0.0981,
      "velocity": 113,
      "chip": "ym2612"
    },
    {
      "channel": 1,
      "note": 73,
      "start": 44.8232,
      "duration": 0.096,
      "velocity": 117,
      "chip": "ym2612"
    },
    {
      "channel": 2,
      "note": 49,
      "start": 44.8256,
      "duration": 0.0937,
      "velocity": 123,
      "chip": "ym2612"
    },
    {
      "channel": 3,
      "note": 70,
      "start": 44.8279,
      "duration": 0.0916,
      "velocity": 117,
      "chip": "ym2612"
    },
    {
      "channel": 4,
      "note": 68,
      "start": 44.83,
      "duration": 0.0897,
      "velocity": 127,
      "chip": "ym2612"
    },
    {
      "channel": 0,
      "note": 63,
      "start": 44.9609,
      "duration": 0.0981,
      "velocity": 113,
      "chip": "ym2612"
    },
    {
      "channel": 1,
      "note": 75,
      "start": 44.9632,
      "duration": 0.096,
      "velocity": 117,
      "chip": "ym2612"
    },
    {
      "channel": 2,
      "note": 35,
      "start": 44.9658,
      "duration": 0.0936,
      "velocity": 127,
      "chip": "ym2612"
    },
    {
      "channel": 3,
      "note": 70,
      "start": 44.9681,
      "duration": 0.0914,
      "velocity": 117,
      "chip": "ym2612"
    },
    {
      "channel": 4,
      "note": 68,
      "start": 44.9704,
      "duration": 0.0893,
      "velocity": 127,
      "chip": "ym2612"
    },
    {
      "channel": 0,
      "note": 63,
      "start": 45.1009,
      "duration": 0.0981,
      "velocity": 113,
      "chip": "ym2612"
    },
    {
      "channel": 1,
      "note": 73,
      "start": 45.1032,
      "duration": 0.096,
      "velocity": 117,
      "chip": "ym2612"
    },
    {
      "channel": 2,
      "note": 26,
      "start": 45.1056,
      "duration": 0.0937,
      "velocity": 93,
      "chip": "ym2612"
    },
    {
      "channel": 3,
      "note": 70,
      "start": 45.1079,
      "duration": 0.0916,
      "velocity": 117,
      "chip": "ym2612"
    },
    {
      "channel": 4,
      "note": 68,
      "start": 45.11,
      "duration": 0.0897,
      "velocity": 127,
      "chip": "ym2612"
    },
    {
      "channel": 5,
      "note": 30,
      "start": 45.1122,
      "duration": 0.0877,
      "velocity": 110,
      "chip": "ym2612"
    },
    {
      "channel": 1,
      "note": 73,
      "start": 45.2212,
      "duration": 0.0979,
      "velocity": 117,
      "chip": "ym2612"
    },
    {
      "channel": 2,
      "note": 27,
      "start": 45.2233,
      "duration": 0.0959,
      "velocity": 93,
      "chip": "ym2612"
    },
    {
      "channel": 3,
      "note": 70,
      "start": 45.2256,
      "duration": 0.0938,
      "velocity": 117,
      "chip": "ym2612"
    },
    {
      "channel": 4,
      "note": 69,
      "start": 45.2281,
      "duration": 0.0915,
      "velocity": 127,
      "chip": "ym2612"
    },
    {
      "channel": 5,
      "note": 30,
      "start": 45.2302,
      "duration": 0.3696,
      "velocity": 110,
      "chip": "ym2612"
    },
    {
      "channel": 0,
      "note": 65,
      "start": 45.3609,
      "duration": 0.0981,
      "velocity": 113,
      "chip": "ym2612"
    },
    {
      "channel": 1,
      "note": 73,
      "start": 45.3632,
      "duration": 0.096,
      "velocity": 117,
      "chip": "ym2612"
    },
    {
      "channel": 2,
      "note": 49,
      "start": 45.3656,
      "duration": 0.0937,
      "velocity": 123,
      "chip": "ym2612"
    },
    {
      "channel": 3,
      "note": 70,
      "start": 45.3679,
      "duration": 0.0916,
      "velocity": 117,
      "chip": "ym2612"
    },
    {
      "channel": 4,
      "note": 68,
      "start": 45.37,
      "duration": 0.0897,
      "velocity": 127,
      "chip": "ym2612"
    },
    {
      "channel": 0,
      "note": 65,
      "start": 45.5009,
      "duration": 0.0981,
      "velocity": 113,
      "chip": "ym2612"
    },
    {
      "channel": 1,
      "note": 75,
      "start": 45.5032,
      "duration": 0.096,
      "velocity": 117,
      "chip": "ym2612"
    },
    {
      "channel": 2,
      "note": 35,
      "start": 45.5058,
      "duration": 0.0936,
      "velocity": 127,
      "chip": "ym2612"
    },
    {
      "channel": 3,
      "note": 70,
      "start": 45.5081,
      "duration": 0.0914,
      "velocity": 117,
      "chip": "ym2612"
    },
    {
      "channel": 4,
      "note": 69,
      "start": 45.5104,
      "duration": 0.0893,
      "velocity": 127,
      "chip": "ym2612"
    },
    {
      "channel": 1,
      "note": 73,
      "start": 45.621,
      "duration": 0.2381,
      "velocity": 117,
      "chip": "ym2612"
    },
    {
      "channel": 2,
      "note": 26,
      "start": 45.6236,
      "duration": 0.0956,
      "velocity": 93,
      "chip": "ym2612"
    },
    {
      "channel": 3,
      "note": 68,
      "start": 45.6257,
      "duration": 0.2337,
      "velocity": 117,
      "chip": "ym2612"
    },
    {
      "channel": 4,
      "note": 68,
      "start": 45.6279,
      "duration": 0.2316,
      "velocity": 127,
      "chip": "ym2612"
    },
    {
      "channel": 5,
      "note": 37,
      "start": 45.63,
      "duration": 0.2297,
      "velocity": 110,
      "chip": "ym2612"
    },
    {
      "channel": 2,
      "note": 49,
      "start": 45.7635,
      "duration": 0.0957,
      "velocity": 123,
      "chip": "ym2612"
    },
    {
      "channel": 0,
      "note": 63,
      "start": 45.901,
      "duration": 0.118,
      "velocity": 113,
      "chip": "ym2612"
    },
    {
      "channel": 1,
      "note": 73,
      "start": 45.9032,
      "duration": 0.0958,
      "velocity": 117,
      "chip": "ym2612"
    },
    {
      "channel": 2,
      "note": 49,
      "start": 45.9054,
      "duration": 0.0939,
      "velocity": 123,
      "chip": "ym2612"
    },
    {
      "channel": 3,
      "note": 68,
      "start": 45.9076,
      "duration": 0.0918,
      "velocity": 117,
      "chip": "ym2612"
    },
    {
      "channel": 4,
      "note": 68,
      "start": 45.9098,
      "duration": 0.0898,
      "velocity": 127,
      "chip": "ym2612"
    },
    {
      "channel": 5,
      "note": 37,
      "start": 45.9119,
      "duration": 0.0878,
      "velocity": 110,
      "chip": "ym2612"
    },
    {
      "channel": 1,
      "note": 73,
      "start": 46.0213,
      "duration": 0.0978,
      "velocity": 117,
      "chip": "ym2612"
    },
    {
      "channel": 2,
      "note": 35,
      "start": 46.0239,
      "duration": 0.0954,
      "velocity": 127,
      "chip": "ym2612"
    },
    {
      "channel": 3,
      "note": 70,
      "start": 46.0261,
      "duration": 0.0934,
      "velocity": 117,
      "chip": "ym2612"
    },
    {
      "channel": 4,
      "note": 69,
      "start": 46.0283,
      "duration": 0.0913,
      "velocity": 127,
      "chip": "ym2612"
    },
    {
      "channel": 5,
      "note": 25,
      "start": 46.0304,
      "duration": 0.0894,
      "velocity": 110,
      "chip": "ym2612"
    },
    {
      "channel": 0,
      "note": 63,
      "start": 46.1609,
      "duration": 0.0981,
      "velocity": 113,
      "chip": "ym2612"
    },
    {
      "channel": 1,
      "note": 73,
      "start": 46.1632,
      "duration": 0.096,
      "velocity": 117,
      "chip": "ym2612"
    },
    {
      "channel": 2,
      "note": 26,
      "start": 46.1656,
      "duration": 0.0937,
      "velocity": 93,
      "chip": "ym2612"
    },
    {
      "channel": 3,
      "note": 68,
      "start": 46.1679,
      "duration": 0.0916,
      "velocity": 117,
      "chip": "ym2612"
    },
    {
      "channel": 4,
      "note": 68,
      "start": 46.17,
      "duration": 0.0897,
      "velocity": 127,
      "chip": "ym2612"
    },
    {
      "channel": 5,
      "note": 25,
      "start": 46.1722,
      "duration": 0.0877,
      "velocity": 110,
      "chip": "ym2612"
    },
    {
      "channel": 0,
      "note": 65,
      "start": 46.2809,
      "duration": 0.0981,
      "velocity": 113,
      "chip": "ym2612"
    },
    {
      "channel": 1,
      "note": 73,
      "start": 46.2833,
      "duration": 0.0959,
      "velocity": 117,
      "chip": "ym2612"
    },
    {
      "channel": 2,
      "note": 27,
      "start": 46.2854,
      "duration": 0.0939,
      "velocity": 93,
      "chip": "ym2612"
    },
    {
      "channel": 3,
      "note": 68,
      "start": 46.2878,
      "duration": 0.0917,
      "velocity": 117,
      "chip": "ym2612"
    },
    {
      "channel": 4,
      "note": 69,
      "start": 46.2901,
      "duration": 0.0896,
      "velocity": 127,
      "chip": "ym2612"
    },
    {
      "channel": 5,
      "note": 27,
      "start": 46.2922,
      "duration": 0.0876,
      "velocity": 110,
      "chip": "ym2612"
    },
    {
      "channel": 0,
      "note": 65,
      "start": 46.4209,
      "duration": 0.0981,
      "velocity": 113,
      "chip": "ym2612"
    },
    {
      "channel": 1,
      "note": 73,
      "start": 46.4232,
      "duration": 0.096,
      "velocity": 117,
      "chip": "ym2612"
    },
    {
      "channel": 2,
      "note": 49,
      "start": 46.4256,
      "duration": 0.0937,
      "velocity": 123,
      "chip": "ym2612"
    },
    {
      "channel": 3,
      "note": 68,
      "start": 46.4279,
      "duration": 0.0916,
      "velocity": 117,
      "chip": "ym2612"
    },
    {
      "channel": 4,
      "note": 68,
      "start": 46.43,
      "duration": 0.0897,
      "velocity": 127,
      "chip": "ym2612"
    },
    {
      "channel": 5,
      "note": 27,
      "start": 46.4322,
      "duration": 0.0877,
      "velocity": 110,
      "chip": "ym2612"
    },
    {
      "channel": 0,
      "note": 63,
      "start": 46.5609,
      "duration": 0.1181,
      "velocity": 113,
      "chip": "ym2612"
    },
    {
      "channel": 1,
      "note": 73,
      "start": 46.5632,
      "duration": 0.0958,
      "velocity": 117,
      "chip": "ym2612"
    },
    {
      "channel": 2,
      "note": 35,
      "start": 46.5658,
      "duration": 0.0935,
      "velocity": 127,
      "chip": "ym2612"
    },
    {
      "channel": 3,
      "note": 70,
      "start": 46.5681,
      "duration": 0.0913,
      "velocity": 117,
      "chip": "ym2612"
    },
    {
      "channel": 4,
      "note": 69,
      "start": 46.5704,
      "duration": 0.0891,
      "velocity": 127,
      "chip": "ym2612"
    },
    {
      "channel": 5,
      "note": 29,
      "start": 46.5725,
      "duration": 0.0872,
      "velocity": 110,
      "chip": "ym2612"
    },
    {
      "channel": 1,
      "note": 73,
      "start": 46.6812,
      "duration": 0.0979,
      "velocity": 117,
      "chip": "ym2612"
    },
    {
      "channel": 2,
      "note": 49,
      "start": 46.6838,
      "duration": 0.0955,
      "velocity": 123,
      "chip": "ym2612"
    },
    {
      "channel": 3,
      "note": 68,
      "start": 46.686,
      "duration": 0.0934,
      "velocity": 117,
      "chip": "ym2612"
    },
    {
      "channel": 4,
      "note": 68,
      "start": 46.6882,
      "duration": 0.0914,
      "velocity": 127,
      "chip": "ym2612"
    },
    {
      "channel": 5,
      "note": 29,
      "start": 46.6903,
      "duration": 0.0895,
      "velocity": 110,
      "chip": "ym2612"
    },
    {
      "channel": 1,
      "note": 70,
      "start": 46.8249,
      "duration": 0.0942,
      "velocity": 117,
      "chip": "ym2612"
    },
    {
      "channel": 2,
      "note": 27,
      "start": 46.8279,
      "duration": 0.0914,
      "velocity": 93,
      "chip": "ym2612"
    },
    {
      "channel": 3,
      "note": 73,
      "start": 46.8306,
      "duration": 0.0889,
      "velocity": 117,
      "chip": "ym2612"
    },
    {
      "channel": 4,
      "note": 73,
      "start": 46.8336,
      "duration": 0.2434,
      "velocity": 97,
      "chip": "ym2612"
    },
    {
      "channel": 5,
      "note": 30,
      "start": 46.836,
      "duration": 0.2411,
      "velocity": 110,
      "chip": "ym2612"
    },
    {
      "channel": 1,
      "note": 70,
      "start": 46.9611,
      "duration": 0.0979,
      "velocity": 117,
      "chip": "ym2612"
    },
    {
      "channel": 2,
      "note": 49,
      "start": 46.9637,
      "duration": 0.0956,
      "velocity": 123,
      "chip": "ym2612"
    },
    {
      "channel": 3,
      "note": 73,
      "start": 46.9659,
      "duration": 0.0935,
      "velocity": 117,
      "chip": "ym2612"
    },
    {
      "channel": 0,
      "note": 73,
      "start": 46.9812,
      "duration": 0.0959,
      "velocity": 97,
      "chip": "ym2612"
    }
  ]
}