{
  "track_name": "09 - Boss 1 (Mission 5-6)",
  "duration_sec": 44.848,
  "sample_rate": 44100,
  "note_count": 1153,
  "unique_pitches": 46,
  "pitch_range": 51,
  "avg_note_duration": 0.0188,
  "reconstruction_stats": {
    "notes_reconstructed": 1153,
    "keyon_events": 1153,
    "keyoff_events": 1153,
    "orphan_keyons": 0,
    "unique_pitches": 46,
    "pitch_range": 51,
    "avg_duration_sec": 0.0188
  },
  "metadata": {
    "source": "S\\Sol-Deace\\09 - Boss 1 (Mission 5-6).vgz"
  },
  "notes": [
    {
      "channel": 1,
      "note": 56,
      "start": 0.2338,
      "duration": 0.0233,
      "velocity": 88,
      "chip": "ym2612"
    },
    {
      "channel": 2,
      "note": 68,
      "start": 0.2365,
      "duration": 0.0179,
      "velocity": 121,
      "chip": "ym2612"
    },
    {
      "channel": 3,
      "note": 44,
      "start": 0.2392,
      "duration": 0.0186,
      "velocity": 121,
      "chip": "ym2612"
    },
    {
      "channel": 4,
      "note": 68,
      "start": 0.2418,
      "duration": 0.0128,
      "velocity": 97,
      "chip": "ym2612"
    },
    {
      "channel": 2,
      "note": 69,
      "start": 0.2576,
      "duration": 0.0123,
      "velocity": 121,
      "chip": "ym2612"
    },
    {
      "channel": 4,
      "note": 69,
      "start": 0.2582,
      "duration": 0.0119,
      "velocity": 97,
      "chip": "ym2612"
    },
    {
      "channel": 1,
      "note": 56,
      "start": 0.2729,
      "duration": 0.0171,
      "velocity": 88,
      "chip": "ym2612"
    },
    {
      "channel": 2,
      "note": 68,
      "start": 0.2734,
      "duration": 0.014,
      "velocity": 121,
      "chip": "ym2612"
    },
    {
      "channel": 3,
      "note": 44,
      "start": 0.2739,
      "duration": 0.0168,
      "velocity": 121,
      "chip": "ym2612"
    },
    {
      "channel": 4,
      "note": 68,
      "start": 0.2744,
      "duration": 0.0131,
      "velocity": 97,
      "chip": "ym2612"
    },
    {
      "channel": 2,
      "note": 71,
      "start": 0.2905,
      "duration": 0.0132,
      "velocity": 121,
      "chip": "ym2612"
    },
    {
      "channel": 4,
      "note": 71,
      "start": 0.2911,
      "duration": 0.0127,
      "velocity": 97,
      "chip": "ym2612"
    },
    {
      "channel": 1,
      "note": 56,
      "start": 0.3082,
      "duration": 0.0162,
      "velocity": 88,
      "chip": "ym2612"
    },
    {
      "channel": 2,
      "note": 68,
      "start": 0.3087,
      "duration": 0.0133,
      "velocity": 121,
      "chip": "ym2612"
    },
    {
      "channel": 3,
      "note": 44,
      "start": 0.3093,
      "duration": 0.0158,
      "velocity": 121,
      "chip": "ym2612"
    },
    {
      "channel": 4,
      "note": 68,
      "start": 0.3097,
      "duration": 0.0126,
      "velocity": 97,
      "chip": "ym2612"
    },
    {
      "channel": 2,
      "note": 73,
      "start": 0.3249,
      "duration": 0.0134,
      "velocity": 121,
      "chip": "ym2612"
    },
    {
      "channel": 4,
      "note": 73,
      "start": 0.3256,
      "duration": 0.0129,
      "velocity": 97,
      "chip": "ym2612"
    },
    {
      "channel": 1,
      "note": 56,
      "start": 0.3433,
      "duration": 0.0161,
      "velocity": 88,
      "chip": "ym2612"
    },
    {
      "channel": 2,
      "note": 68,
      "start": 0.3437,
      "duration": 0.0134,
      "velocity": 121,
      "chip": "ym2612"
    },
    {
      "channel": 3,
      "note": 44,
      "start": 0.3442,
      "duration": 0.0158,
      "velocity": 121,
      "chip": "ym2612"
    },
    {
      "channel": 4,
      "note": 68,
      "start": 0.3447,
      "duration": 0.0125,
      "velocity": 97,
      "chip": "ym2612"
    },
    {
      "channel": 2,
      "note": 74,
      "start": 0.3599,
      "duration": 0.0129,
      "velocity": 121,
      "chip": "ym2612"
    },
    {
      "channel": 4,
      "note": 74,
      "start": 0.3605,
      "duration": 0.0124,
      "velocity": 97,
      "chip": "ym2612"
    },
    {
      "channel": 1,
      "note": 56,
      "start": 0.3782,
      "duration": 0.0162,
      "velocity": 88,
      "chip": "ym2612"
    },
    {
      "channel": 2,
      "note": 68,
      "start": 0.3787,
      "duration": 0.0134,
      "velocity": 121,
      "chip": "ym2612"
    },
    {
      "channel": 3,
      "note": 44,
      "start": 0.3792,
      "duration": 0.0158,
      "velocity": 121,
      "chip": "ym2612"
    },
    {
      "channel": 4,
      "note": 68,
      "start": 0.3797,
      "duration": 0.0126,
      "velocity": 97,
      "chip": "ym2612"
    },
    {
      "channel": 2,
      "note": 75,
      "start": 0.3949,
      "duration": 0.0129,
      "velocity": 121,
      "chip": "ym2612"
    },
    {
      "channel": 4,
      "note": 75,
      "start": 0.3955,
      "duration": 0.0126,
      "velocity": 97,
      "chip": "ym2612"
    },
    {
      "channel": 1,
      "note": 56,
      "start": 0.4124,
      "duration": 0.0161,
      "velocity": 88,
      "chip": "ym2612"
    },
    {
      "channel": 2,
      "note": 68,
      "start": 0.4129,
      "duration": 0.0132,
      "velocity": 121,
      "chip": "ym2612"
    },
    {
      "channel": 3,
      "note": 44,
      "start": 0.4134,
      "duration": 0.0157,
      "velocity": 121,
      "chip": "ym2612"
    },
    {
      "channel": 4,
      "note": 68,
      "start": 0.4139,
      "duration": 0.0124,
      "velocity": 97,
      "chip": "ym2612"
    },
    {
      "channel": 2,
      "note": 76,
      "start": 0.429,
      "duration": 0.0127,
      "velocity": 121,
      "chip": "ym2612"
    },
    {
      "channel": 4,
      "note": 76,
      "start": 0.4296,
      "duration": 0.0123,
      "velocity": 97,
      "chip": "ym2612"
    },
    {
      "channel": 1,
      "note": 56,
      "start": 0.447,
      "duration": 0.0167,
      "velocity": 88,
      "chip": "ym2612"
    },
    {
      "channel": 2,
      "note": 68,
      "start": 0.4475,
      "duration": 0.0137,
      "velocity": 121,
      "chip": "ym2612"
    },
    {
      "channel": 3,
      "note": 44,
      "start": 0.448,
      "duration": 0.0163,
      "velocity": 121,
      "chip": "ym2612"
    },
    {
      "channel": 4,
      "note": 68,
      "start": 0.4485,
      "duration": 0.0129,
      "velocity": 97,
      "chip": "ym2612"
    },
    {
      "channel": 2,
      "note": 77,
      "start": 0.4641,
      "duration": 0.0123,
      "velocity": 121,
      "chip": "ym2612"
    },
    {
      "channel": 4,
      "note": 77,
      "start": 0.4647,
      "duration": 0.0119,
      "velocity": 97,
      "chip": "ym2612"
    },
    {
      "channel": 1,
      "note": 57,
      "start": 0.4791,
      "duration": 0.0161,
      "velocity": 88,
      "chip": "ym2612"
    },
    {
      "channel": 2,
      "note": 68,
      "start": 0.4796,
      "duration": 0.0132,
      "velocity": 121,
      "chip": "ym2612"
    },
    {
      "channel": 3,
      "note": 45,
      "start": 0.4801,
      "duration": 0.0157,
      "velocity": 121,
      "chip": "ym2612"
    },
    {
      "channel": 4,
      "note": 68,
      "start": 0.4806,
      "duration": 0.0124,
      "velocity": 97,
      "chip": "ym2612"
    },
    {
      "channel": 2,
      "note": 69,
      "start": 0.4957,
      "duration": 0.0125,
      "velocity": 121,
      "chip": "ym2612"
    },
    {
      "channel": 4,
      "note": 69,
      "start": 0.4963,
      "duration": 0.0121,
      "velocity": 97,
      "chip": "ym2612"
    },
    {
      "channel": 1,
      "note": 56,
      "start": 0.513,
      "duration": 0.0171,
      "velocity": 88,
      "chip": "ym2612"
    },
    {
      "channel": 2,
      "note": 68,
      "start": 0.5135,
      "duration": 0.0142,
      "velocity": 121,
      "chip": "ym2612"
    },
    {
      "channel": 3,
      "note": 44,
      "start": 0.5139,
      "duration": 0.0168,
      "velocity": 121,
      "chip": "ym2612"
    },
    {
      "channel": 4,
      "note": 68,
      "start": 0.5144,
      "duration": 0.0135,
      "velocity": 97,
      "chip": "ym2612"
    },
    {
      "channel": 2,
      "note": 70,
      "start": 0.5305,
      "duration": 0.0127,
      "velocity": 121,
      "chip": "ym2612"
    },
    {
      "channel": 4,
      "note": 70,
      "start": 0.5312,
      "duration": 0.0123,
      "velocity": 97,
      "chip": "ym2612"
    },
    {
      "channel": 1,
      "note": 56,
      "start": 0.5478,
      "duration": 0.0159,
      "velocity": 88,
      "chip": "ym2612"
    },
    {
      "channel": 2,
      "note": 68,
      "start": 0.5483,
      "duration": 0.0129,
      "velocity": 121,
      "chip": "ym2612"
    },
    {
      "channel": 3,
      "note": 44,
      "start": 0.5488,
      "duration": 0.0156,
      "velocity": 121,
      "chip": "ym2612"
    },
    {
      "channel": 4,
      "note": 68,
      "start": 0.5493,
      "duration": 0.0122,
      "velocity": 97,
      "chip": "ym2612"
    },
    {
      "channel": 2,
      "note": 71,
      "start": 0.5642,
      "duration": 0.0135,
      "velocity": 121,
      "chip": "ym2612"
    },
    {
      "channel": 4,
      "note": 71,
      "start": 0.5648,
      "duration": 0.013,
      "velocity": 97,
      "chip": "ym2612"
    },
    {
      "channel": 1,
      "note": 59,
      "start": 0.5824,
      "duration": 0.0189,
      "velocity": 88,
      "chip": "ym2612"
    },
    {
      "channel": 2,
      "note": 68,
      "start": 0.5829,
      "duration": 0.0145,
      "velocity": 121,
      "chip": "ym2612"
    },
    {
      "channel": 3,
      "note": 47,
      "start": 0.5834,
      "duration": 0.0185,
      "velocity": 121,
      "chip": "ym2612"
    },
    {
      "channel": 4,
      "note": 68,
      "start": 0.5839,
      "duration": 0.0138,
      "velocity": 97,
      "chip": "ym2612"
    },
    {
      "channel": 2,
      "note": 72,
      "start": 0.6018,
      "duration": 0.0128,
      "velocity": 121,
      "chip": "ym2612"
    },
    {
      "channel": 4,
      "note": 72,
      "start": 0.6024,
      "duration": 0.0124,
      "velocity": 97,
      "chip": "ym2612"
    },
    {
      "channel": 1,
      "note": 56,
      "start": 0.6193,
      "duration": 0.0163,
      "velocity": 88,
      "chip": "ym2612"
    },
    {
      "channel": 2,
      "note": 68,
      "start": 0.6198,
      "duration": 0.0134,
      "velocity": 121,
      "chip": "ym2612"
    },
    {
      "channel": 3,
      "note": 44,
      "start": 0.6202,
      "duration": 0.0159,
      "velocity": 121,
      "chip": "ym2612"
    },
    {
      "channel": 4,
      "note": 68,
      "start": 0.6208,
      "duration": 0.0126,
      "velocity": 97,
      "chip": "ym2612"
    },
    {
      "channel": 2,
      "note": 73,
      "start": 0.6361,
      "duration": 0.0139,
      "velocity": 121,
      "chip": "ym2612"
    },
    {
      "channel": 4,
      "note": 73,
      "start": 0.6367,
      "duration": 0.0136,
      "velocity": 97,
      "chip": "ym2612"
    },
    {
      "channel": 1,
      "note": 56,
      "start": 0.6527,
      "duration": 0.0165,
      "velocity": 88,
      "chip": "ym2612"
    },
    {
      "channel": 2,
      "note": 68,
      "start": 0.6532,
      "duration": 0.0134,
      "velocity": 121,
      "chip": "ym2612"
    },
    {
      "channel": 3,
      "note": 44,
      "start": 0.6537,
      "duration": 0.0161,
      "velocity": 121,
      "chip": "ym2612"
    },
    {
      "channel": 4,
      "note": 68,
      "start": 0.6542,
      "duration": 0.0127,
      "velocity": 97,
      "chip": "ym2612"
    },
    {
      "channel": 2,
      "note": 74,
      "start": 0.6697,
      "duration": 0.0145,
      "velocity": 121,
      "chip": "ym2612"
    },
    {
      "channel": 4,
      "note": 74,
      "start": 0.6703,
      "duration": 0.0141,
      "velocity": 97,
      "chip": "ym2612"
    },
    {
      "channel": 1,
      "note": 61,
      "start": 0.6869,
      "duration": 0.0181,
      "velocity": 88,
      "chip": "ym2612"
    },
    {
      "channel": 2,
      "note": 68,
      "start": 0.6874,
      "duration": 0.0143,
      "velocity": 121,
      "chip": "ym2612"
    },
    {
      "channel": 3,
      "note": 49,
      "start": 0.6879,
      "duration": 0.0177,
      "velocity": 121,
      "chip": "ym2612"
    },
    {
      "channel": 4,
      "note": 68,
      "start": 0.6884,
      "duration": 0.0136,
      "velocity": 97,
      "chip": "ym2612"
    },
    {
      "channel": 2,
      "note": 75,
      "start": 0.7055,
      "duration": 0.0144,
      "velocity": 121,
      "chip": "ym2612"
    },
    {
      "channel": 4,
      "note": 75,
      "start": 0.7062,
      "duration": 0.0139,
      "velocity": 97,
      "chip": "ym2612"
    },
    {
      "channel": 1,
      "note": 80,
      "start": 0.7269,
      "duration": 0.0748,
      "velocity": 102,
      "chip": "ym2612"
    },
    {
      "channel": 2,
      "note": 75,
      "start": 0.7295,
      "duration": 0.0723,
      "velocity": 102,
      "chip": "ym2612"
    },
    {
      "channel": 3,
      "note": 56,
      "start": 0.7322,
      "duration": 0.0185,
      "velocity": 88,
      "chip": "ym2612"
    },
    {
      "channel": 4,
      "note": 68,
      "start": 0.7348,
      "duration": 0.0134,
      "velocity": 121,
      "chip": "ym2612"
    },
    {
      "channel": 4,
      "note": 69,
      "start": 0.7512,
      "duration": 0.0126,
      "velocity": 121,
      "chip": "ym2612"
    },
    {
      "channel": 3,
      "note": 56,
      "start": 0.7678,
      "duration": 0.0171,
      "velocity": 88,
      "chip": "ym2612"
    },
    {
      "channel": 4,
      "note": 68,
      "start": 0.7683,
      "duration": 0.0141,
      "velocity": 121,
      "chip": "ym2612"
    },
    {
      "channel": 4,
      "note": 71,
      "start": 0.7853,
      "duration": 0.0124,
      "velocity": 121,
      "chip": "ym2612"
    },
    {
      "channel": 3,
      "note": 56,
      "start": 0.8024,
      "duration": 0.016,
      "velocity": 88,
      "chip": "ym2612"
    },
    {
      "channel": 4,
      "note": 68,
      "start": 0.8029,
      "duration": 0.013,
      "velocity": 121,
      "chip": "ym2612"
    },
    {
      "channel": 4,
      "note": 73,
      "start": 0.8189,
      "duration": 0.0135,
      "velocity": 121,
      "chip": "ym2612"
    },
    {
      "channel": 1,
      "note": 87,
      "start": 0.8367,
      "duration": 0.0688,
      "velocity": 102,
      "chip": "ym2612"
    },
    {
      "channel": 2,
      "note": 80,
      "start": 0.8372,
      "duration": 0.0684,
      "velocity": 102,
      "chip": "ym2612"
    },
    {
      "channel": 3,
      "note": 56,
      "start": 0.8377,
      "duration": 0.0159,
      "velocity": 88,
      "chip": "ym2612"
    },
    {
      "channel": 4,
      "note": 68,
      "start": 0.8382,
      "duration": 0.0129,
      "velocity": 121,
      "chip": "ym2612"
    },
    {
      "channel": 4,
      "note": 74,
      "start": 0.854,
      "duration": 0.0129,
      "velocity": 121,
      "chip": "ym2612"
    },
    {
      "channel": 3,
      "note": 56,
      "start": 0.8715,
      "duration": 0.0159,
      "velocity": 88,
      "chip": "ym2612"
    },
    {
      "channel": 4,
      "note": 68,
      "start": 0.8719,
      "duration": 0.0129,
      "velocity": 121,
      "chip": "ym2612"
    },
    {
      "channel": 4,
      "note": 75,
      "start": 0.8878,
      "duration": 0.0136,
      "velocity": 121,
      "chip": "ym2612"
    },
    {
      "channel": 3,
      "note": 56,
      "start": 0.9061,
      "duration": 0.016,
      "velocity": 88,
      "chip": "ym2612"
    },
    {
      "channel": 4,
      "note": 68,
      "start": 0.9066,
      "duration": 0.0129,
      "velocity": 121,
      "chip": "ym2612"
    },
    {
      "channel": 4,
      "note": 76,
      "start": 0.9226,
      "duration": 0.0125,
      "velocity": 121,
      "chip": "ym2612"
    },
    {
      "channel": 1,
      "note": 83,
      "start": 0.9401,
      "duration": 0.101,
      "velocity": 102,
      "chip": "ym2612"
    },
    {
      "channel": 2,
      "note": 80,
      "start": 0.9406,
      "duration": 0.1006,
      "velocity": 102,
      "chip": "ym2612"
    },
    {
      "channel": 3,
      "note": 56,
      "start": 0.9411,
      "duration": 0.0171,
      "velocity": 88,
      "chip": "ym2612"
    },
    {
      "channel": 4,
      "note": 68,
      "start": 0.9417,
      "duration": 0.014,
      "velocity": 121,
      "chip": "ym2612"
    },
    {
      "channel": 4,
      "note": 77,
      "start": 0.9587,
      "duration": 0.0125,
      "velocity": 121,
      "chip": "ym2612"
    },
    {
      "channel": 3,
      "note": 57,
      "start": 0.9756,
      "duration": 0.0183,
      "velocity": 88,
      "chip": "ym2612"
    },
    {
      "channel": 4,
      "note": 68,
      "start": 0.9761,
      "duration": 0.0146,
      "velocity": 121,
      "chip": "ym2612"
    },
    {
      "channel": 4,
      "note": 69,
      "start": 0.9943,
      "duration": 0.0135,
      "velocity": 121,
      "chip": "ym2612"
    },
    {
      "channel": 3,
      "note": 56,
      "start": 1.0114,
      "duration": 0.0169,
      "velocity": 88,
      "chip": "ym2612"
    },
    {
      "channel": 4,
      "note": 68,
      "start": 1.0119,
      "duration": 0.014,
      "velocity": 121,
      "chip": "ym2612"
    },
    {
      "channel": 4,
      "note": 70,
      "start": 1.0288,
      "duration": 0.0127,
      "velocity": 121,
      "chip": "ym2612"
    },
    {
      "channel": 1,
      "note": 90,
      "start": 1.0456,
      "duration": 0.1015,
      "velocity": 102,
      "chip": "ym2612"
    },
    {
      "channel": 2,
      "note": 87,
      "start": 1.0461,
      "duration": 0.1012,
      "velocity": 102,
      "chip": "ym2612"
    },
    {
      "channel": 3,
      "note": 56,
      "start": 1.0467,
      "duration": 0.0158,
      "velocity": 88,
      "chip": "ym2612"
    },
    {
      "channel": 4,
      "note": 68,
      "start": 1.0472,
      "duration": 0.0129,
      "velocity": 121,
      "chip": "ym2612"
    },
    {
      "channel": 4,
      "note": 71,
      "start": 1.063,
      "duration": 0.0137,
      "velocity": 121,
      "chip": "ym2612"
    },
    {
      "channel": 3,
      "note": 59,
      "start": 1.0806,
      "duration": 0.0189,
      "velocity": 88,
      "chip": "ym2612"
    },
    {
      "channel": 4,
      "note": 68,
      "start": 1.0811,
      "duration": 0.0145,
      "velocity": 121,
      "chip": "ym2612"
    },
    {
      "channel": 4,
      "note": 72,
      "start": 1.1,
      "duration": 0.0129,
      "velocity": 121,
      "chip": "ym2612"
    },
    {
      "channel": 3,
      "note": 56,
      "start": 1.1174,
      "duration": 0.0159,
      "velocity": 88,
      "chip": "ym2612"
    },
    {
      "channel": 4,
      "note": 68,
      "start": 1.118,
      "duration": 0.0129,
      "velocity": 121,
      "chip": "ym2612"
    },
    {
      "channel": 4,
      "note": 73,
      "start": 1.1338,
      "duration": 0.0137,
      "velocity": 121,
      "chip": "ym2612"
    },
    {
      "channel": 1,
      "note": 89,
      "start": 1.1516,
      "duration": 0.319,
      "velocity": 102,
      "chip": "ym2612"
    },
    {
      "channel": 2,
      "note": 86,
      "start": 1.1521,
      "duration": 0.3186,
      "velocity": 102,
      "chip": "ym2612"
    },
    {
      "channel": 3,
      "note": 56,
      "start": 1.1527,
      "duration": 0.0161,
      "velocity": 88,
      "chip": "ym2612"
    },
    {
      "channel": 4,
      "note": 68,
      "start": 1.1532,
      "duration": 0.0131,
      "velocity": 121,
      "chip": "ym2612"
    },
    {
      "channel": 4,
      "note": 74,
      "start": 1.1693,
      "duration": 0.0128,
      "velocity": 121,
      "chip": "ym2612"
    },
    {
      "channel": 3,
      "note": 61,
      "start": 1.1866,
      "duration": 0.0198,
      "velocity": 88,
      "chip": "ym2612"
    },
    {
      "channel": 4,
      "note": 68,
      "start": 1.1871,
      "duration": 0.0145,
      "velocity": 121,
      "chip": "ym2612"
    },
    {
      "channel": 4,
      "note": 75,
      "start": 1.2068,
      "duration": 0.0127,
      "velocity": 121,
      "chip": "ym2612"
    },
    {
      "channel": 3,
      "note": 56,
      "start": 1.2242,
      "duration": 0.0164,
      "velocity": 88,
      "chip": "ym2612"
    },
    {
      "channel": 4,
      "note": 68,
      "start": 1.2248,
      "duration": 0.0133,
      "velocity": 121,
      "chip": "ym2612"
    },
    {
      "channel": 4,
      "note": 69,
      "start": 1.2411,
      "duration": 0.0127,
      "velocity": 121,
      "chip": "ym2612"
    },
    {
      "channel": 3,
      "note": 56,
      "start": 1.2587,
      "duration": 0.0177,
      "velocity": 88,
      "chip": "ym2612"
    },
    {
      "channel": 4,
      "note": 68,
      "start": 1.2593,
      "duration": 0.0146,
      "velocity": 121,
      "chip": "ym2612"
    },
    {
      "channel": 4,
      "note": 70,
      "start": 1.2769,
      "duration": 0.0131,
      "velocity": 121,
      "chip": "ym2612"
    },
    {
      "channel": 3,
      "note": 63,
      "start": 1.2929,
      "duration": 0.0193,
      "velocity": 88,
      "chip": "ym2612"
    },
    {
      "channel": 4,
      "note": 68,
      "start": 1.2934,
      "duration": 0.0152,
      "velocity": 121,
      "chip": "ym2612"
    },
    {
      "channel": 4,
      "note": 71,
      "start": 1.3127,
      "duration": 0.0135,
      "velocity": 121,
      "chip": "ym2612"
    },
    {
      "channel": 3,
      "note": 56,
      "start": 1.3306,
      "duration": 0.0164,
      "velocity": 88,
      "chip": "ym2612"
    },
    {
      "channel": 4,
      "note": 68,
      "start": 1.3311,
      "duration": 0.0133,
      "velocity": 121,
      "chip": "ym2612"
    },
    {
      "channel": 4,
      "note": 72,
      "start": 1.3475,
      "duration": 0.0133,
      "velocity": 121,
      "chip": "ym2612"
    },
    {
      "channel": 3,
      "note": 56,
      "start": 1.3645,
      "duration": 0.0166,
      "velocity": 88,
      "chip": "ym2612"
    },
    {
      "channel": 4,
      "note": 68,
      "start": 1.365,
      "duration": 0.0134,
      "velocity": 121,
      "chip": "ym2612"
    },
    {
      "channel": 4,
      "note": 73,
      "start": 1.3815,
      "duration": 0.014,
      "velocity": 121,
      "chip": "ym2612"
    },
    {
      "channel": 3,
      "note": 64,
      "start": 1.3988,
      "duration": 0.0191,
      "velocity": 88,
      "chip": "ym2612"
    },
    {
      "channel": 4,
      "note": 68,
      "start": 1.3993,
      "duration": 0.0149,
      "velocity": 121,
      "chip": "ym2612"
    },
    {
      "channel": 4,
      "note": 74,
      "start": 1.4184,
      "duration": 0.0135,
      "velocity": 121,
      "chip": "ym2612"
    },
    {
      "channel": 3,
      "note": 66,
      "start": 1.4356,
      "duration": 0.02,
      "velocity": 88,
      "chip": "ym2612"
    },
    {
      "channel": 4,
      "note": 68,
      "start": 1.4361,
      "duration": 0.0148,
      "velocity": 121,
      "chip": "ym2612"
    },
    {
      "channel": 4,
      "note": 75,
      "start": 1.4561,
      "duration": 0.0149,
      "velocity": 121,
      "chip": "ym2612"
    },
    {
      "channel": 1,
      "note": 80,
      "start": 1.4758,
      "duration": 0.0693,
      "velocity": 102,
      "chip": "ym2612"
    },
    {
      "channel": 2,
      "note": 75,
      "start": 1.4779,
      "duration": 0.0674,
      "velocity": 102,
      "chip": "ym2612"
    },
    {
      "channel": 3,
      "note": 56,
      "start": 1.4786,
      "duration": 0.0163,
      "velocity": 88,
      "chip": "ym2612"
    },
    {
      "channel": 4,
      "note": 68,
      "start": 1.4791,
      "duration": 0.0132,
      "velocity": 121,
      "chip": "ym2612"
    },
    {
      "channel": 4,
      "note": 73,
      "start": 1.4953,
      "duration": 0.0126,
      "velocity": 121,
      "chip": "ym2612"
    },
    {
      "channel": 3,
      "note": 56,
      "start": 1.5108,
      "duration": 0.0165,
      "velocity": 88,
      "chip": "ym2612"
    },
    {
      "channel": 4,
      "note": 75,
      "start": 1.5113,
      "duration": 0.0135,
      "velocity": 121,
      "chip": "ym2612"
    },
    {
      "channel": 4,
      "note": 80,
      "start": 1.5278,
      "duration": 0.0151,
      "velocity": 121,
      "chip": "ym2612"
    },
    {
      "channel": 3,
      "note": 56,
      "start": 1.5458,
      "duration": 0.0176,
      "velocity": 88,
      "chip": "ym2612"
    },
    {
      "channel": 4,
      "note": 68,
      "start": 1.5463,
      "duration": 0.0132,
      "velocity": 121,
      "chip": "ym2612"
    },
    {
      "channel": 4,
      "note": 73,
      "start": 1.5639,
      "duration": 0.0125,
      "velocity": 121,
      "chip": "ym2612"
    },
    {
      "channel": 1,
      "note": 87,
      "start": 1.5801,
      "duration": 0.0822,
      "velocity": 102,
      "chip": "ym2612"
    },
    {
      "channel": 2,
      "note": 80,
      "start": 1.5806,
      "duration": 0.0819,
      "velocity": 102,
      "chip": "ym2612"
    },
    {
      "channel": 3,
      "note": 56,
      "start": 1.5811,
      "duration": 0.0156,
      "velocity": 88,
      "chip": "ym2612"
    },
    {
      "channel": 4,
      "note": 75,
      "start": 1.5816,
      "duration": 0.0127,
      "velocity": 121,
      "chip": "ym2612"
    },
    {
      "channel": 4,
      "note": 80,
      "start": 1.5973,
      "duration": 0.0131,
      "velocity": 121,
      "chip": "ym2612"
    },
    {
      "channel": 3,
      "note": 56,
      "start": 1.6282,
      "duration": 0.016,
      "velocity": 88,
      "chip": "ym2612"
    },
    {
      "channel": 4,
      "note": 68,
      "start": 1.6287,
      "duration": 0.0131,
      "velocity": 121,
      "chip": "ym2612"
    },
    {
      "channel": 4,
      "note": 73,
      "start": 1.6447,
      "duration": 0.0136,
      "velocity": 121,
      "chip": "ym2612"
    },
    {
      "channel": 3,
      "note": 56,
      "start": 1.6631,
      "duration": 0.0158,
      "velocity": 88,
      "chip": "ym2612"
    },
    {
      "channel": 4,
      "note": 75,
      "start": 1.6635,
      "duration": 0.0129,
      "velocity": 121,
      "chip": "ym2612"
    },
    {
      "channel": 4,
      "note": 80,
      "start": 1.6794,
      "duration": 0.0128,
      "velocity": 121,
      "chip": "ym2612"
    },
    {
      "channel": 1,
      "note": 83,
      "start": 1.6949,
      "duration": 0.0997,
      "velocity": 102,
      "chip": "ym2612"
    },
    {
      "channel": 2,
      "note": 80,
      "start": 1.6954,
      "duration": 0.0993,
      "velocity": 102,
      "chip": "ym2612"
    },
    {
      "channel": 3,
      "note": 56,
      "start": 1.6959,
      "duration": 0.0168,
      "velocity": 88,
      "chip": "ym2612"
    },
    {
      "channel": 4,
      "note": 68,
      "start": 1.6964,
      "duration": 0.0129,
      "velocity": 121,
      "chip": "ym2612"
    },
    {
      "channel": 4,
      "note": 73,
      "start": 1.7132,
      "duration": 0.0141,
      "velocity": 121,
      "chip": "ym2612"
    },
    {
      "channel": 3,
      "note": 57,
      "start": 1.731,
      "duration": 0.0162,
      "velocity": 88,
      "chip": "ym2612"
    },
    {
      "channel": 4,
      "note": 68,
      "start": 1.7316,
      "duration": 0.0132,
      "velocity": 121,
      "chip": "ym2612"
    },
    {
      "channel": 4,
      "note": 73,
      "start": 1.7477,
      "duration": 0.0125,
      "velocity": 121,
      "chip": "ym2612"
    },
    {
      "channel": 3,
      "note": 56,
      "start": 1.7646,
      "duration": 0.0169,
      "velocity": 88,
      "chip": "ym2612"
    },
    {
      "channel": 4,
      "note": 75,
      "start": 1.7651,
      "duration": 0.0139,
      "velocity": 121,
      "chip": "ym2612"
    },
    {
      "channel": 4,
      "note": 80,
      "start": 1.782,
      "duration": 0.0129,
      "velocity": 121,
      "chip": "ym2612"
    },
    {
      "channel": 1,
      "note": 90,
      "start": 1.7991,
      "duration": 0.102,
      "velocity": 102,
      "chip": "ym2612"
    },
    {
      "channel": 2,
      "note": 87,
      "start": 1.7996,
      "duration": 0.1016,
      "velocity": 102,
      "chip": "ym2612"
    },
    {
      "channel": 3,
      "note": 56,
      "start": 1.8001,
      "duration": 0.0181,
      "velocity": 88,
      "chip": "ym2612"
    },
    {
      "channel": 4,
      "note": 68,
      "start": 1.8007,
      "duration": 0.0145,
      "velocity": 121,
      "chip": "ym2612"
    },
    {
      "channel": 4,
      "note": 73,
      "start": 1.8188,
      "duration": 0.0133,
      "velocity": 121,
      "chip": "ym2612"
    },
    {
      "channel": 3,
      "note": 59,
      "start": 1.8358,
      "duration": 0.0168,
      "velocity": 88,
      "chip": "ym2612"
    },
    {
      "channel": 4,
      "note": 75,
      "start": 1.8363,
      "duration": 0.0139,
      "velocity": 121,
      "chip": "ym2612"
    },
    {
      "channel": 4,
      "note": 80,
      "start": 1.8532,
      "duration": 0.0129,
      "velocity": 121,
      "chip": "ym2612"
    },
    {
      "channel": 3,
      "note": 56,
      "start": 1.8703,
      "duration": 0.0167,
      "velocity": 88,
      "chip": "ym2612"
    },
    {
      "channel": 4,
      "note": 68,
      "start": 1.8708,
      "duration": 0.0129,
      "velocity": 121,
      "chip": "ym2612"
    },
    {
      "channel": 4,
      "note": 73,
      "start": 1.8875,
      "duration": 0.0139,
      "velocity": 121,
      "chip": "ym2612"
    },
    {
      "channel": 1,
      "note": 89,
      "start": 1.9041,
      "duration": 0.1051,
      "velocity": 102,
      "chip": "ym2612"
    },
    {
      "channel": 2,
      "note": 86,
      "start": 1.9046,
      "duration": 0.1047,
      "velocity": 102,
      "chip": "ym2612"
    },
    {
      "channel": 3,
      "note": 56,
      "start": 1.9052,
      "duration": 0.0181,
      "velocity": 88,
      "chip": "ym2612"
    },
    {
      "channel": 4,
      "note": 75,
      "start": 1.9057,
      "duration": 0.0144,
      "velocity": 121,
      "chip": "ym2612"
    },
    {
      "channel": 4,
      "note": 80,
      "start": 1.9238,
      "duration": 0.0134,
      "velocity": 121,
      "chip": "ym2612"
    },
    {
      "channel": 3,
      "note": 61,
      "start": 1.941,
      "duration": 0.0191,
      "velocity": 88,
      "chip": "ym2612"
    },
    {
      "channel": 4,
      "note": 68,
      "start": 1.9415,
      "duration": 0.0144,
      "velocity": 121,
      "chip": "ym2612"
    },
    {
      "channel": 4,
      "note": 73,
      "start": 1.9605,
      "duration": 0.0152,
      "velocity": 121,
      "chip": "ym2612"
    },
    {
      "channel": 3,
      "note": 56,
      "start": 1.9803,
      "duration": 0.0162,
      "velocity": 88,
      "chip": "ym2612"
    },
    {
      "channel": 4,
      "note": 68,
      "start": 1.981,
      "duration": 0.0132,
      "velocity": 121,
      "chip": "ym2612"
    },
    {
      "channel": 4,
      "note": 73,
      "start": 1.997,
      "duration": 0.0126,
      "velocity": 121,
      "chip": "ym2612"
    },
    {
      "channel": 1,
      "note": 88,
      "start": 2.0138,
      "duration": 0.1015,
      "velocity": 102,
      "chip": "ym2612"
    },
    {
      "channel": 2,
      "note": 92,
      "start": 2.0143,
      "duration": 0.1012,
      "velocity": 102,
      "chip": "ym2612"
    },
    {
      "channel": 3,
      "note": 56,
      "start": 2.0148,
      "duration": 0.0169,
      "velocity": 88,
      "chip": "ym2612"
    },
    {
      "channel": 4,
      "note": 75,
      "start": 2.0153,
      "duration": 0.014,
      "velocity": 121,
      "chip": "ym2612"
    },
    {
      "channel": 4,
      "note": 80,
      "start": 2.0322,
      "duration": 0.0127,
      "velocity": 121,
      "chip": "ym2612"
    },
    {
      "channel": 3,
      "note": 63,
      "start": 2.0483,
      "duration": 0.0191,
      "velocity": 88,
      "chip": "ym2612"
    },
    {
      "channel": 4,
      "note": 68,
      "start": 2.0488,
      "duration": 0.0146,
      "velocity": 121,
      "chip": "ym2612"
    },
    {
      "channel": 4,
      "note": 73,
      "start": 2.0679,
      "duration": 0.0126,
      "velocity": 121,
      "chip": "ym2612"
    },
    {
      "channel": 3,
      "note": 56,
      "start": 2.0852,
      "duration": 0.017,
      "velocity": 88,
      "chip": "ym2612"
    },
    {
      "channel": 4,
      "note": 75,
      "start": 2.0857,
      "duration": 0.014,
      "velocity": 121,
      "chip": "ym2612"
    },
    {
      "channel": 4,
      "note": 80,
      "start": 2.1027,
      "duration": 0.013,
      "velocity": 121,
      "chip": "ym2612"
    },
    {
      "channel": 1,
      "note": 95,
      "start": 2.12,
      "duration": 0.0312,
      "velocity": 102,
      "chip": "ym2612"
    },
    {
      "channel": 2,
      "note": 92,
      "start": 2.1205,
      "duration": 0.0308,
      "velocity": 102,
      "chip": "ym2612"
    },
    {
      "channel": 3,
      "note": 56,
      "start": 2.121,
      "duration": 0.0159,
      "velocity": 88,
      "chip": "ym2612"
    },
    {
      "channel": 4,
      "note": 68,
      "start": 2.1215,
      "duration": 0.0129,
      "velocity": 121,
      "chip": "ym2612"
    },
    {
      "channel": 4,
      "note": 73,
      "start": 2.1374,
      "duration": 0.0141,
      "velocity": 121,
      "chip": "ym2612"
    },
    {
      "channel": 1,
      "note": 95,
      "start": 2.1543,
      "duration": 0.0156,
      "velocity": 102,
      "chip": "ym2612"
    },
    {
      "channel": 2,
      "note": 92,
      "start": 2.1548,
      "duration": 0.0152,
      "velocity": 102,
      "chip": "ym2612"
    },
    {
      "channel": 3,
      "note": 64,
      "start": 2.1553,
      "duration": 0.0181,
      "velocity": 88,
      "chip": "ym2612"
    },
    {
      "channel": 4,
      "note": 75,
      "start": 2.1558,
      "duration": 0.0144,
      "velocity": 121,
      "chip": "ym2612"
    },
    {
      "channel": 1,
      "note": 94,
      "start": 2.1728,
      "duration": 0.0174,
      "velocity": 102,
      "chip": "ym2612"
    },
    {
      "channel": 2,
      "note": 91,
      "start": 2.1733,
      "duration": 0.0171,
      "velocity": 102,
      "chip": "ym2612"
    },
    {
      "channel": 4,
      "note": 80,
      "start": 2.1739,
      "duration": 0.0166,
      "velocity": 121,
      "chip": "ym2612"
    },
    {
      "channel": 1,
      "note": 92,
      "start": 2.1932,
      "duration": 0.0191,
      "velocity": 102,
      "chip": "ym2612"
    },
    {
      "channel": 2,
      "note": 89,
      "start": 2.1937,
      "duration": 0.0187,
      "velocity": 102,
      "chip": "ym2612"
    },
    {
      "channel": 3,
      "note": 66,
      "start": 2.1942,
      "duration": 0.0219,
      "velocity": 88,
      "chip": "ym2612"
    },
    {
      "channel": 4,
      "note": 68,
      "start": 2.1947,
      "duration": 0.018,
      "velocity": 121,
      "chip": "ym2612"
    },
    {
      "channel": 1,
      "note": 91,
      "start": 2.2155,
      "duration": 0.0165,
      "velocity": 102,
      "chip": "ym2612"
    },
    {
      "channel": 2,
      "note": 88,
      "start": 2.216,
      "duration": 0.0161,
      "velocity": 102,
      "chip": "ym2612"
    },
    {
      "channel": 4,
      "note": 73,
      "start": 2.2166,
      "duration": 0.0157,
      "velocity": 121,
      "chip": "ym2612"
    },
    {
      "channel": 1,
      "note": 75,
      "start": 2.2371,
      "duration": 0.0172,
      "velocity": 97,
      "chip": "ym2612"
    },
    {
      "channel": 3,
      "note": 51,
      "start": 2.2394,
      "duration": 0.0179,
      "velocity": 88,
      "chip": "ym2612"
    },
    {
      "channel": 4,
      "note": 51,
      "start": 2.242,
      "duration": 0.0125,
      "velocity": 88,
      "chip": "ym2612"
    },
    {
      "channel": 1,
      "note": 76,
      "start": 2.257,
      "duration": 0.0136,
      "velocity": 97,
      "chip": "ym2612"
    },
    {
      "channel": 4,
      "note": 63,
      "start": 2.2577,
      "duration": 0.0132,
      "velocity": 88,
      "chip": "ym2612"
    },
    {
      "channel": 2,
      "note": 75,
      "start": 2.2682,
      "duration": 0.0139,
      "velocity": 97,
      "chip": "ym2612"
    },
    {
      "channel": 1,
      "note": 78,
      "start": 2.2735,
      "duration": 0.0144,
      "velocity": 97,
      "chip": "ym2612"
    },
    {
      "channel": 3,
      "note": 51,
      "start": 2.2741,
      "duration": 0.0185,
      "velocity": 88,
      "chip": "ym2612"
    },
    {
      "channel": 4,
      "note": 51,
      "start": 2.2746,
      "duration": 0.0137,
      "velocity": 88,
      "chip": "ym2612"
    },
    {
      "channel": 2,
      "note": 76,
      "start": 2.2849,
      "duration": 0.0152,
      "velocity": 97,
      "chip": "ym2612"
    },
    {
      "channel": 1,
      "note": 79,
      "start": 2.2923,
      "duration": 0.0131,
      "velocity": 97,
      "chip": "ym2612"
    },
    {
      "channel": 4,
      "note": 63,
      "start": 2.293,
      "duration": 0.0127,
      "velocity": 88,
      "chip": "ym2612"
    },
    {
      "channel": 2,
      "note": 78,
      "start": 2.3031,
      "duration": 0.014,
      "velocity": 97,
      "chip": "ym2612"
    },
    {
      "channel": 1,
      "note": 80,
      "start": 2.3087,
      "duration": 0.0136,
      "velocity": 97,
      "chip": "ym2612"
    },
    {
      "channel": 3,
      "note": 51,
      "start": 2.3093,
      "duration": 0.0182,
      "velocity": 88,
      "chip": "ym2612"
    },
    {
      "channel": 4,
      "note": 51,
      "start": 2.3098,
      "duration": 0.0128,
      "velocity": 88,
      "chip": "ym2612"
    },
    {
      "channel": 2,
      "note": 79,
      "start": 2.3199,
      "duration": 0.0155,
      "velocity": 97,
      "chip": "ym2612"
    },
    {
      "channel": 1,
      "note": 82,
      "start": 2.3273,
      "duration": 0.0134,
      "velocity": 97,
      "chip": "ym2612"
    },
    {
      "channel": 4,
      "note": 63,
      "start": 2.328,
      "duration": 0.013,
      "velocity": 88,
      "chip": "ym2612"
    },
    {
      "channel": 2,
      "note": 80,
      "start": 2.3383,
      "duration": 0.0144,
      "velocity": 97,
      "chip": "ym2612"
    },
    {
      "channel": 1,
      "note": 83,
      "start": 2.3436,
      "duration": 0.0142,
      "velocity": 97,
      "chip": "ym2612"
    },
    {
      "channel": 3,
      "note": 63,
      "start": 2.3441,
      "duration": 0.0182,
      "velocity": 88,
      "chip": "ym2612"
    },
    {
      "channel": 4,
      "note": 51,
      "start": 2.3447,
      "duration": 0.0134,
      "velocity": 88,
      "chip": "ym2612"
    },
    {
      "channel": 2,
      "note": 82,
      "start": 2.3554,
      "duration": 0.0146,
      "velocity": 97,
      "chip": "ym2612"
    },
    {
      "channel": 1,
      "note": 82,
      "start": 2.3622,
      "duration": 0.0131,
      "velocity": 97,
      "chip": "ym2612"
    },
    {
      "channel": 4,
      "note": 63,
      "start": 2.3629,
      "duration": 0.0127,
      "velocity": 88,
      "chip": "ym2612"
    },
    {
      "channel": 2,
      "note": 83,
      "start": 2.3728,
      "duration": 0.0142,
      "velocity": 97,
      "chip": "ym2612"
    },
    {
      "channel": 1,
      "note": 80,
      "start": 2.3784,
      "duration": 0.0139,
      "velocity": 97,
      "chip": "ym2612"
    },
    {
      "channel": 3,
      "note": 51,
      "start": 2.379,
      "duration": 0.0185,
      "velocity": 88,
      "chip": "ym2612"
    },
    {
      "channel": 4,
      "note": 51,
      "start": 2.3795,
      "duration": 0.0131,
      "velocity": 88,
      "chip": "ym2612"
    },
    {
      "channel": 2,
      "note": 82,
      "start": 2.3898,
      "duration": 0.0156,
      "velocity": 97,
      "chip": "ym2612"
    },
    {
      "channel": 1,
      "note": 79,
      "start": 2.3973,
      "duration": 0.014,
      "velocity": 97,
      "chip": "ym2612"
    },
    {
      "channel": 4,
      "note": 63,
      "start": 2.398,
      "duration": 0.0137,
      "velocity": 88,
      "chip": "ym2612"
    },
    {
      "channel": 2,
      "note": 80,
      "start": 2.4084,
      "duration": 0.0176,
      "velocity": 97,
      "chip": "ym2612"
    },
    {
      "channel": 1,
      "note": 78,
      "start": 2.4159,
      "duration": 0.0153,
      "velocity": 97,
      "chip": "ym2612"
    },
    {
      "channel": 3,
      "note": 52,
      "start": 2.4165,
      "duration": 0.021,
      "velocity": 88,
      "chip": "ym2612"
    },
    {
      "channel": 4,
      "note": 51,
      "start": 2.417,
      "duration": 0.0145,
      "velocity": 88,
      "chip": "ym2612"
    },
    {
      "channel": 2,
      "note": 79,
      "start": 2.4288,
      "duration": 0.0164,
      "velocity": 97,
      "chip": "ym2612"
    },
    {
      "channel": 1,
      "note": 76,
      "start": 2.4372,
      "duration": 0.0133,
      "velocity": 97,
      "chip": "ym2612"
    },
    {
      "channel": 4,
      "note": 63,
      "start": 2.4379,
      "duration": 0.0129,
      "velocity": 88,
      "chip": "ym2612"
    },
    {
      "channel": 2,
      "note": 78,
      "start": 2.448,
      "duration": 0.0139,
      "velocity": 97,
      "chip": "ym2612"
    },
    {
      "channel": 1,
      "note": 75,
      "start": 2.4534,
      "duration": 0.0139,
      "velocity": 97,
      "chip": "ym2612"
    },
    {
      "channel": 3,
      "note": 54,
      "start": 2.454,
      "duration": 0.0164,
      "velocity": 88,
      "chip": "ym2612"
    },
    {
      "channel": 4,
      "note": 51,
      "start": 2.4545,
      "duration": 0.013,
      "velocity": 88,
      "chip": "ym2612"
    },
    {
      "channel": 2,
      "note": 76,
      "start": 2.4648,
      "duration": 0.0139,
      "velocity": 97,
      "chip": "ym2612"
    },
    {
      "channel": 1,
      "note": 73,
      "start": 2.4701,
      "duration": 0.0139,
      "velocity": 97,
      "chip": "ym2612"
    },
    {
      "channel": 4,
      "note": 63,
      "start": 2.4708,
      "duration": 0.0135,
      "velocity": 88,
      "chip": "ym2612"
    },
    {
      "channel": 2,
      "note": 75,
      "start": 2.4815,
      "duration": 0.0169,
      "velocity": 97,
      "chip": "ym2612"
    },
    {
      "channel": 1,
      "note": 75,
      "start": 2.4896,
      "duration": 0.1006,
      "velocity": 97,
      "chip": "ym2612"
    },
    {
      "channel": 3,
      "note": 51,
      "start": 2.4903,
      "duration": 0.0159,
      "velocity": 88,
      "chip": "ym2612"
    },
    {
      "channel": 4,
      "note": 51,
      "start": 2.4908,
      "duration": 0.013,
      "velocity": 88,
      "chip": "ym2612"
    },
    {
      "channel": 2,
      "note": 73,
      "start": 2.5012,
      "duration": 0.0125,
      "velocity": 97,
      "chip": "ym2612"
    },
    {
      "channel": 4,
      "note": 63,
      "start": 2.5066,
      "duration": 0.0127,
      "velocity": 88,
      "chip": "ym2612"
    },
    {
      "channel": 2,
      "note": 75,
      "start": 2.5166,
      "duration": 0.103,
      "velocity": 97,
      "chip": "ym2612"
    },
    {
      "channel": 3,
      "note": 51,
      "start": 2.5231,
      "duration": 0.0187,
      "velocity": 88,
      "chip": "ym2612"
    },
    {
      "channel": 4,
      "note": 51,
      "start": 2.5236,
      "duration": 0.0138,
      "velocity": 88,
      "chip": "ym2612"
    },
    {
      "channel": 4,
      "note": 63,
      "start": 2.5423,
      "duration": 0.012,
      "velocity": 88,
      "chip": "ym2612"
    },
    {
      "channel": 3,
      "note": 51,
      "start": 2.5593,
      "duration": 0.0182,
      "velocity": 88,
      "chip": "ym2612"
    },
    {
      "channel": 4,
      "note": 51,
      "start": 2.5598,
      "duration": 0.0123,
      "velocity": 88,
      "chip": "ym2612"
    },
    {
      "channel": 4,
      "note": 63,
      "start": 2.578,
      "duration": 0.0125,
      "velocity": 88,
      "chip": "ym2612"
    },
    {
      "channel": 1,
      "note": 70,
      "start": 2.5931,
      "duration": 0.0672,
      "velocity": 97,
      "chip": "ym2612"
    },
    {
      "channel": 3,
      "note": 63,
      "start": 2.5937,
      "duration": 0.0185,
      "velocity": 88,
      "chip": "ym2612"
    },
    {
      "channel": 4,
      "note": 51,
      "start": 2.5942,
      "duration": 0.0142,
      "velocity": 88,
      "chip": "ym2612"
    },
    {
      "channel": 4,
      "note": 63,
      "start": 2.6126,
      "duration": 0.0125,
      "velocity": 88,
      "chip": "ym2612"
    },
    {
      "channel": 2,
      "note": 70,
      "start": 2.6225,
      "duration": 0.0687,
      "velocity": 97,
      "chip": "ym2612"
    },
    {
      "channel": 3,
      "note": 51,
      "start": 2.6293,
      "duration": 0.0183,
      "velocity": 88,
      "chip": "ym2612"
    },
    {
      "channel": 4,
      "note": 51,
      "start": 2.6298,
      "duration": 0.0124,
      "velocity": 88,
      "chip": "ym2612"
    },
    {
      "channel": 4,
      "note": 63,
      "start": 2.6481,
      "duration": 0.0126,
      "velocity": 88,
      "chip": "ym2612"
    },
    {
      "channel": 1,
      "note": 73,
      "start": 2.6638,
      "duration": 0.0324,
      "velocity": 97,
      "chip": "ym2612"
    },
    {
      "channel": 3,
      "note": 52,
      "start": 2.6644,
      "duration": 0.0187,
      "velocity": 88,
      "chip": "ym2612"
    },
    {
      "channel": 4,
      "note": 51,
      "start": 2.6649,
      "duration": 0.0125,
      "velocity": 88,
      "chip": "ym2612"
    },
    {
      "channel": 4,
      "note": 63,
      "start": 2.6836,
      "duration": 0.013,
      "velocity": 88,
      "chip": "ym2612"
    },
    {
      "channel": 2,
      "note": 73,
      "start": 2.6938,
      "duration": 0.0312,
      "velocity": 97,
      "chip": "ym2612"
    },
    {
      "channel": 1,
      "note": 68,
      "start": 2.6991,
      "duration": 0.0311,
      "velocity": 97,
      "chip": "ym2612"
    },
    {
      "channel": 3,
      "note": 54,
      "start": 2.6997,
      "duration": 0.0154,
      "velocity": 88,
      "chip": "ym2612"
    },
    {
      "channel": 4,
      "note": 51,
      "start": 2.7002,
      "duration": 0.0125,
      "velocity": 88,
      "chip": "ym2612"
    },
    {
      "channel": 4,
      "note": 63,
      "start": 2.7156,
      "duration": 0.015,
      "velocity": 88,
      "chip": "ym2612"
    },
    {
      "channel": 2,
      "note": 68,
      "start": 2.7278,
      "duration": 0.0327,
      "velocity": 97,
      "chip": "ym2612"
    },
    {
      "channel": 1,
      "note": 64,
      "start": 2.7363,
      "duration": 0.0136,
      "velocity": 97,
      "chip": "ym2612"
    },
    {
      "channel": 3,
      "note": 52,
      "start": 2.7371,
      "duration": 0.016,
      "velocity": 88,
      "chip": "ym2612"
    },
    {
      "channel": 4,
      "note": 52,
      "start": 2.7376,
      "duration": 0.0126,
      "velocity": 88,
      "chip": "ym2612"
    },
    {
      "channel": 1,
      "note": 68,
      "start": 2.7528,
      "duration": 0.0128,
      "velocity": 97,
      "chip": "ym2612"
    },
    {
      "channel": 4,
      "note": 64,
      "start": 2.7535,
      "duration": 0.0124,
      "velocity": 88,
      "chip": "ym2612"
    },
    {
      "channel": 2,
      "note": 64,
      "start": 2.7633,
      "duration": 0.0161,
      "velocity": 97,
      "chip": "ym2612"
    },
    {
      "channel": 1,
      "note": 71,
      "start": 2.7695,
      "duration": 0.015,
      "velocity": 97,
      "chip": "ym2612"
    },
    {
      "channel": 3,
      "note": 52,
      "start": 2.7701,
      "duration": 0.0197,
      "velocity": 88,
      "chip": "ym2612"
    },
    {
      "channel": 4,
      "note": 52,
      "start": 2.7706,
      "duration": 0.0143,
      "velocity": 88,
      "chip": "ym2612"
    },
    {
      "channel": 2,
      "note": 68,
      "start": 2.7823,
      "duration": 0.0152,
      "velocity": 97,
      "chip": "ym2612"
    },
    {
      "channel": 1,
      "note": 76,
      "start": 2.7895,
      "duration": 0.0132,
      "velocity": 97,
      "chip": "ym2612"
    },
    {
      "channel": 4,
      "note": 64,
      "start": 2.7903,
      "duration": 0.0127,
      "velocity": 88,
      "chip": "ym2612"
    },
    {
      "channel": 2,
      "note": 71,
      "start": 2.8003,
      "duration": 0.0144,
      "velocity": 97,
      "chip": "ym2612"
    },
    {
      "channel": 1,
      "note": 68,
      "start": 2.806,
      "duration": 0.0138,
      "velocity": 97,
      "chip": "ym2612"
    },
    {
      "channel": 3,
      "note": 52,
      "start": 2.8066,
      "duration": 0.0183,
      "velocity": 88,
      "chip": "ym2612"
    },
    {
      "channel": 4,
      "note": 52,
      "start": 2.8071,
      "duration": 0.013,
      "velocity": 88,
      "chip": "ym2612"
    },
    {
      "channel": 2,
      "note": 76,
      "start": 2.8173,
      "duration": 0.0156,
      "velocity": 97,
      "chip": "ym2612"
    },
    {
      "channel": 1,
      "note": 71,
      "start": 2.8248,
      "duration": 0.0134,
      "velocity": 97,
      "chip": "ym2612"
    },
    {
      "channel": 4,
      "note": 64,
      "start": 2.8255,
      "duration": 0.013,
      "velocity": 88,
      "chip": "ym2612"
    },
    {
      "channel": 2,
      "note": 68,
      "start": 2.8357,
      "duration": 0.0143,
      "velocity": 97,
      "chip": "ym2612"
    },
    {
      "channel": 1,
      "note": 76,
      "start": 2.841,
      "duration": 0.0142,
      "velocity": 97,
      "chip": "ym2612"
    },
    {
      "channel": 3,
      "note": 64,
      "start": 2.8416,
      "duration": 0.0181,
      "velocity": 88,
      "chip": "ym2612"
    },
    {
      "channel": 4,
      "note": 52,
      "start": 2.8421,
      "duration": 0.0134,
      "velocity": 88,
      "chip": "ym2612"
    },
    {
      "channel": 2,
      "note": 71,
      "start": 2.8529,
      "duration": 0.0144,
      "velocity": 97,
      "chip": "ym2612"
    },
    {
      "channel": 1,
      "note": 80,
      "start": 2.8595,
      "duration": 0.013,
      "velocity": 97,
      "chip": "ym2612"
    },
    {
      "channel": 4,
      "note": 64,
      "start": 2.8602,
      "duration": 0.0126,
      "velocity": 88,
      "chip": "ym2612"
    },
    {
      "channel": 2,
      "note": 76,
      "start": 2.8701,
      "duration": 0.014,
      "velocity": 97,
      "chip": "ym2612"
    },
    {
      "channel": 1,
      "note": 71,
      "start": 2.8758,
      "duration": 0.0135,
      "velocity": 97,
      "chip": "ym2612"
    },
    {
      "channel": 3,
      "note": 52,
      "start": 2.8764,
      "duration": 0.0181,
      "velocity": 88,
      "chip": "ym2612"
    },
    {
      "channel": 4,
      "note": 52,
      "start": 2.8769,
      "duration": 0.0128,
      "velocity": 88,
      "chip": "ym2612"
    },
    {
      "channel": 2,
      "note": 80,
      "start": 2.887,
      "duration": 0.0155,
      "velocity": 97,
      "chip": "ym2612"
    },
    {
      "channel": 1,
      "note": 76,
      "start": 2.8943,
      "duration": 0.0134,
      "velocity": 97,
      "chip": "ym2612"
    },
    {
      "channel": 4,
      "note": 64,
      "start": 2.895,
      "duration": 0.013,
      "velocity": 88,
      "chip": "ym2612"
    },
    {
      "channel": 2,
      "note": 71,
      "start": 2.9054,
      "duration": 0.0144,
      "velocity": 97,
      "chip": "ym2612"
    },
    {
      "channel": 1,
      "note": 80,
      "start": 2.9112,
      "duration": 0.0137,
      "velocity": 97,
      "chip": "ym2612"
    },
    {
      "channel": 3,
      "note": 53,
      "start": 2.9118,
      "duration": 0.0187,
      "velocity": 88,
      "chip": "ym2612"
    },
    {
      "channel": 4,
      "note": 52,
      "start": 2.9123,
      "duration": 0.0129,
      "velocity": 88,
      "chip": "ym2612"
    },
    {
      "channel": 2,
      "note": 76,
      "start": 2.9225,
      "duration": 0.016,
      "velocity": 97,
      "chip": "ym2612"
    },
    {
      "channel": 1,
      "note": 83,
      "start": 2.9303,
      "duration": 0.0133,
      "velocity": 97,
      "chip": "ym2612"
    },
    {
      "channel": 4,
      "note": 64,
      "start": 2.931,
      "duration": 0.0129,
      "velocity": 88,
      "chip": "ym2612"
    },
    {
      "channel": 2,
      "note": 80,
      "start": 2.9412,
      "duration": 0.0137,
      "velocity": 97,
      "chip": "ym2612"
    },
    {
      "channel": 1,
      "note": 82,
      "start": 2.9465,
      "duration": 0.0137,
      "velocity": 97,
      "chip": "ym2612"
    },
    {
      "channel": 3,
      "note": 55,
      "start": 2.947,
      "duration": 0.0162,
      "velocity": 88,
      "chip": "ym2612"
    },
    {
      "channel": 4,
      "note": 52,
      "start": 2.9475,
      "duration": 0.0129,
      "velocity": 88,
      "chip": "ym2612"
    },
    {
      "channel": 2,
      "note": 83,
      "start": 2.9577,
      "duration": 0.0141,
      "velocity": 97,
      "chip": "ym2612"
    },
    {
      "channel": 1,
      "note": 80,
      "start": 2.9631,
      "duration": 0.0139,
      "velocity": 97,
      "chip": "ym2612"
    },
    {
      "channel": 4,
      "note": 64,
      "start": 2.9638,
      "duration": 0.0136,
      "velocity": 88,
      "chip": "ym2612"
    },
    {
      "channel": 2,
      "note": 82,
      "start": 2.9746,
      "duration": 0.0138,
      "velocity": 97,
      "chip": "ym2612"
    },
    {
      "channel": 1,
      "note": 83,
      "start": 2.98,
      "duration": 0.0133,
      "velocity": 97,
      "chip": "ym2612"
    },
    {
      "channel": 3,
      "note": 52,
      "start": 2.9807,
      "duration": 0.0157,
      "velocity": 88,
      "chip": "ym2612"
    },
    {
      "channel": 4,
      "note": 52,
      "start": 2.9813,
      "duration": 0.0123,
      "velocity": 88,
      "chip": "ym2612"
    },
    {
      "channel": 2,
      "note": 80,
      "start": 2.9911,
      "duration": 0.0128,
      "velocity": 97,
      "chip": "ym2612"
    },
    {
      "channel": 1,
      "note": 80,
      "start": 2.9961,
      "duration": 0.0128,
      "velocity": 97,
      "chip": "ym2612"
    },
    {
      "channel": 4,
      "note": 64,
      "start": 2.9968,
      "duration": 0.0124,
      "velocity": 88,
      "chip": "ym2612"
    },
    {
      "channel": 2,
      "note": 83,
      "start": 3.0067,
      "duration": 0.0131,
      "velocity": 97,
      "chip": "ym2612"
    },
    {
      "channel": 1,
      "note": 82,
      "start": 3.0117,
      "duration": 0.013,
      "velocity": 97,
      "chip": "ym2612"
    },
    {
      "channel": 3,
      "note": 52,
      "start": 3.0122,
      "duration": 0.0154,
      "velocity": 88,
      "chip": "ym2612"
    },
    {
      "channel": 4,
      "note": 52,
      "start": 3.0127,
      "duration": 0.0122,
      "velocity": 88,
      "chip": "ym2612"
    },
    {
      "channel": 2,
      "note": 80,
      "start": 3.0224,
      "duration": 0.0133,
      "velocity": 97,
      "chip": "ym2612"
    },
    {
      "channel": 1,
      "note": 79,
      "start": 3.0273,
      "duration": 0.0133,
      "velocity": 97,
      "chip": "ym2612"
    },
    {
      "channel": 4,
      "note": 64,
      "start": 3.028,
      "duration": 0.0129,
      "velocity": 88,
      "chip": "ym2612"
    },
    {
      "channel": 2,
      "note": 82,
      "start": 3.0384,
      "duration": 0.0168,
      "velocity": 97,
      "chip": "ym2612"
    },
    {
      "channel": 1,
      "note": 81,
      "start": 3.0433,
      "duration": 0.0168,
      "velocity": 97,
      "chip": "ym2612"
    },
    {
      "channel": 3,
      "note": 52,
      "start": 3.0439,
      "duration": 0.0193,
      "velocity": 88,
      "chip": "ym2612"
    },
    {
      "channel": 4,
      "note": 52,
      "start": 3.0444,
      "duration": 0.016,
      "velocity": 88,
      "chip": "ym2612"
    },
    {
      "channel": 2,
      "note": 79,
      "start": 3.0578,
      "duration": 0.0134,
      "velocity": 97,
      "chip": "ym2612"
    },
    {
      "channel": 1,
      "note": 78,
      "start": 3.063,
      "duration": 0.0134,
      "velocity": 97,
      "chip": "ym2612"
    },
    {
      "channel": 4,
      "note": 64,
      "start": 3.0637,
      "duration": 0.013,
      "velocity": 88,
      "chip": "ym2612"
    },
    {
      "channel": 2,
      "note": 81,
      "start": 3.074,
      "duration": 0.0138,
      "velocity": 97,
      "chip": "ym2612"
    },
    {
      "channel": 1,
      "note": 80,
      "start": 3.0792,
      "duration": 0.0143,
      "velocity": 97,
      "chip": "ym2612"
    },
    {
      "channel": 3,
      "note": 64,
      "start": 3.0798,
      "duration": 0.0168,
      "velocity": 88,
      "chip": "ym2612"
    },
    {
      "channel": 4,
      "note": 52,
      "start": 3.0803,
      "duration": 0.0136,
      "velocity": 88,
      "chip": "ym2612"
    },
    {
      "channel": 2,
      "note": 78,
      "start": 3.0911,
      "duration": 0.0135,
      "velocity": 97,
      "chip": "ym2612"
    },
    {
      "channel": 1,
      "note": 77,
      "start": 3.0964,
      "duration": 0.0134,
      "velocity": 97,
      "chip": "ym2612"
    },
    {
      "channel": 4,
      "note": 64,
      "start": 3.0971,
      "duration": 0.013,
      "velocity": 88,
      "chip": "ym2612"
    },
    {
      "channel": 2,
      "note": 80,
      "start": 3.1074,
      "duration": 0.0141,
      "velocity": 97,
      "chip": "ym2612"
    },
    {
      "channel": 1,
      "note": 79,
      "start": 3.1127,
      "duration": 0.0142,
      "velocity": 97,
      "chip": "ym2612"
    },
    {
      "channel": 3,
      "note": 52,
      "start": 3.1132,
      "duration": 0.017,
      "velocity": 88,
      "chip": "ym2612"
    },
    {
      "channel": 4,
      "note": 52,
      "start": 3.1137,
      "duration": 0.0135,
      "velocity": 88,
      "chip": "ym2612"
    },
    {
      "channel": 2,
      "note": 77,
      "start": 3.1244,
      "duration": 0.0141,
      "velocity": 97,
      "chip": "ym2612"
    },
    {
      "channel": 1,
      "note": 76,
      "start": 3.1299,
      "duration": 0.0141,
      "velocity": 97,
      "chip": "ym2612"
    },
    {
      "channel": 4,
      "note": 64,
      "start": 3.1306,
      "duration": 0.0137,
      "velocity": 88,
      "chip": "ym2612"
    },
    {
      "channel": 2,
      "note": 79,
      "start": 3.1415,
      "duration": 0.0149,
      "velocity": 97,
      "chip": "ym2612"
    },
    {
      "channel": 1,
      "note": 78,
      "start": 3.1468,
      "duration": 0.015,
      "velocity": 97,
      "chip": "ym2612"
    },
    {
      "channel": 3,
      "note": 53,
      "start": 3.1474,
      "duration": 0.0178,
      "velocity": 88,
      "chip": "ym2612"
    },
    {
      "channel": 4,
      "note": 52,
      "start": 3.1479,
      "duration": 0.0142,
      "velocity": 88,
      "chip": "ym2612"
    },
    {
      "channel": 2,
      "note": 76,
      "start": 3.1593,
      "duration": 0.0142,
      "velocity": 97,
      "chip": "ym2612"
    },
    {
      "channel": 1,
      "note": 75,
      "start": 3.1649,
      "duration": 0.0139,
      "velocity": 97,
      "chip": "ym2612"
    },
    {
      "channel": 4,
      "note": 64,
      "start": 3.1656,
      "duration": 0.0136,
      "velocity": 88,
      "chip": "ym2612"
    },
    {
      "channel": 2,
      "note": 78,
      "start": 3.1765,
      "duration": 0.0177,
      "velocity": 97,
      "chip": "ym2612"
    },
    {
      "channel": 1,
      "note": 77,
      "start": 3.1842,
      "duration": 0.0154,
      "velocity": 97,
      "chip": "ym2612"
    },
    {
      "channel": 3,
      "note": 55,
      "start": 3.1847,
      "duration": 0.018,
      "velocity": 88,
      "chip": "ym2612"
    },
    {
      "channel": 4,
      "note": 52,
      "start": 3.1853,
      "duration": 0.0146,
      "velocity": 88,
      "chip": "ym2612"
    },
    {
      "channel": 2,
      "note": 75,
      "start": 3.1971,
      "duration": 0.0136,
      "velocity": 97,
      "chip": "ym2612"
    },
    {
      "channel": 1,
      "note": 74,
      "start": 3.2025,
      "duration": 0.014,
      "velocity": 97,
      "chip": "ym2612"
    },
    {
      "channel": 4,
      "note": 64,
      "start": 3.2032,
      "duration": 0.0136,
      "velocity": 88,
      "chip": "ym2612"
    },
    {
      "channel": 2,
      "note": 77,
      "start": 3.214,
      "duration": 0.017,
      "velocity": 97,
      "chip": "ym2612"
    },
    {
      "channel": 1,
      "note": 63,
      "start": 3.2221,
      "duration": 0.014,
      "velocity": 97,
      "chip": "ym2612"
    },
    {
      "channel": 3,
      "note": 51,
      "start": 3.2228,
      "duration": 0.0164,
      "velocity": 88,
      "chip": "ym2612"
    },
    {
      "channel": 4,
      "note": 51,
      "start": 3.2234,
      "duration": 0.013,
      "velocity": 88,
      "chip": "ym2612"
    },
    {
      "channel": 2,
      "note": 74,
      "start": 3.2338,
      "duration": 0.0129,
      "velocity": 97,
      "chip": "ym2612"
    },
    {
      "channel": 1,
      "note": 64,
      "start": 3.239,
      "duration": 0.0129,
      "velocity": 97,
      "chip": "ym2612"
    },
    {
      "channel": 4,
      "note": 63,
      "start": 3.2397,
      "duration": 0.0126,
      "velocity": 88,
      "chip": "ym2612"
    },
    {
      "channel": 2,
      "note": 63,
      "start": 3.2496,
      "duration": 0.0159,
      "velocity": 97,
      "chip": "ym2612"
    },
    {
      "channel": 1,
      "note": 69,
      "start": 3.2554,
      "duration": 0.0152,
      "velocity": 97,
      "chip": "ym2612"
    },
    {
      "channel": 3,
      "note": 51,
      "start": 3.256,
      "duration": 0.0193,
      "velocity": 88,
      "chip": "ym2612"
    },
    {
      "channel": 4,
      "note": 51,
      "start": 3.2565,
      "duration": 0.0145,
      "velocity": 88,
      "chip": "ym2612"
    },
    {
      "channel": 2,
      "note": 64,
      "start": 3.2683,
      "duration": 0.0152,
      "velocity": 97,
      "chip": "ym2612"
    },
    {
      "channel": 1,
      "note": 70,
      "start": 3.275,
      "duration": 0.0137,
      "velocity": 97,
      "chip": "ym2612"
    },
    {
      "channel": 4,
      "note": 63,
      "start": 3.2757,
      "duration": 0.0133,
      "velocity": 88,
      "chip": "ym2612"
    },
    {
      "channel": 2,
      "note": 69,
      "start": 3.2863,
      "duration": 0.0144,
      "velocity": 97,
      "chip": "ym2612"
    },
    {
      "channel": 1,
      "note": 65,
      "start": 3.292,
      "duration": 0.0136,
      "velocity": 97,
      "chip": "ym2612"
    },
    {
      "channel": 3,
      "note": 51,
      "start": 3.2927,
      "duration": 0.018,
      "velocity": 88,
      "chip": "ym2612"
    },
    {
      "channel": 4,
      "note": 51,
      "start": 3.2931,
      "duration": 0.0128,
      "velocity": 88,
      "chip": "ym2612"
    },
    {
      "channel": 2,
      "note": 70,
      "start": 3.3034,
      "duration": 0.0153,
      "velocity": 97,
      "chip": "ym2612"
    },
    {
      "channel": 1,
      "note": 66,
      "start": 3.3104,
      "duration": 0.0135,
      "velocity": 97,
      "chip": "ym2612"
    },
    {
      "channel": 4,
      "note": 63,
      "start": 3.3112,
      "duration": 0.0131,
      "velocity": 88,
      "chip": "ym2612"
    },
    {
      "channel": 2,
      "note": 65,
      "start": 3.3215,
      "duration": 0.0138,
      "velocity": 97,
      "chip": "ym2612"
    },
    {
      "channel": 1,
      "note": 71,
      "start": 3.3267,
      "duration": 0.0143,
      "velocity": 97,
      "chip": "ym2612"
    },
    {
      "channel": 3,
      "note": 63,
      "start": 3.3273,
      "duration": 0.0183,
      "velocity": 88,
      "chip": "ym2612"
    },
    {
      "channel": 4,
      "note": 51,
      "start": 3.3278,
      "duration": 0.0135,
      "velocity": 88,
      "chip": "ym2612"
    },
    {
      "channel": 2,
      "note": 66,
      "start": 3.3386,
      "duration": 0.0145,
      "velocity": 97,
      "chip": "ym2612"
    },
    {
      "channel": 1,
      "note": 72,
      "start": 3.3453,
      "duration": 0.013,
      "velocity": 97,
      "chip": "ym2612"
    },
    {
      "channel": 4,
      "note": 63,
      "start": 3.346,
      "duration": 0.0127,
      "velocity": 88,
      "chip": "ym2612"
    },
    {
      "channel": 2,
      "note": 71,
      "start": 3.356,
      "duration": 0.014,
      "velocity": 97,
      "chip": "ym2612"
    },
    {
      "channel": 1,
      "note": 68,
      "start": 3.3616,
      "duration": 0.0136,
      "velocity": 97,
      "chip": "ym2612"
    },
    {
      "channel": 3,
      "note": 51,
      "start": 3.3622,
      "duration": 0.0183,
      "velocity": 88,
      "chip": "ym2612"
    },
    {
      "channel": 4,
      "note": 51,
      "start": 3.3627,
      "duration": 0.0128,
      "velocity": 88,
      "chip": "ym2612"
    },
    {
      "channel": 2,
      "note": 72,
      "start": 3.3728,
      "duration": 0.0156,
      "velocity": 97,
      "chip": "ym2612"
    },
    {
      "channel": 1,
      "note": 69,
      "start": 3.3803,
      "duration": 0.0134,
      "velocity": 97,
      "chip": "ym2612"
    },
    {
      "channel": 4,
      "note": 63,
      "start": 3.381,
      "duration": 0.013,
      "velocity": 88,
      "chip": "ym2612"
    },
    {
      "channel": 2,
      "note": 68,
      "start": 3.3913,
      "duration": 0.0144,
      "velocity": 97,
      "chip": "ym2612"
    },
    {
      "channel": 1,
      "note": 74,
      "start": 3.3966,
      "duration": 0.0141,
      "velocity": 97,
      "chip": "ym2612"
    },
    {
      "channel": 3,
      "note": 52,
      "start": 3.3972,
      "duration": 0.0191,
      "velocity": 88,
      "chip": "ym2612"
    },
    {
      "channel": 4,
      "note": 51,
      "start": 3.3977,
      "duration": 0.0134,
      "velocity": 88,
      "chip": "ym2612"
    },
    {
      "channel": 2,
      "note": 69,
      "start": 3.4084,
      "duration": 0.0158,
      "velocity": 97,
      "chip": "ym2612"
    },
    {
      "channel": 1,
      "note": 75,
      "start": 3.4161,
      "duration": 0.0132,
      "velocity": 97,
      "chip": "ym2612"
    },
    {
      "channel": 4,
      "note": 63,
      "start": 3.4168,
      "duration": 0.0128,
      "velocity": 88,
      "chip": "ym2612"
    },
    {
      "channel": 2,
      "note": 74,
      "start": 3.4271,
      "duration": 0.0137,
      "velocity": 97,
      "chip": "ym2612"
    },
    {
      "channel": 1,
      "note": 70,
      "start": 3.4322,
      "duration": 0.0138,
      "velocity": 97,
      "chip": "ym2612"
    },
    {
      "channel": 3,
      "note": 54,
      "start": 3.4328,
      "duration": 0.0163,
      "velocity": 88,
      "chip": "ym2612"
    },
    {
      "channel": 4,
      "note": 51,
      "start": 3.4333,
      "duration": 0.013,
      "velocity": 88,
      "chip": "ym2612"
    },
    {
      "channel": 2,
      "note": 75,
      "start": 3.4436,
      "duration": 0.0134,
      "velocity": 97,
      "chip": "ym2612"
    },
    {
      "channel": 1,
      "note": 71,
      "start": 3.4489,
      "duration": 0.0139,
      "velocity": 97,
      "chip": "ym2612"
    },
    {
      "channel": 4,
      "note": 63,
      "start": 3.4496,
      "duration": 0.0135,
      "velocity": 88,
      "chip": "ym2612"
    },
    {
      "channel": 2,
      "note": 70,
      "start": 3.4604,
      "duration": 0.0168,
      "velocity": 97,
      "chip": "ym2612"
    },
    {
      "channel": 1,
      "note": 68,
      "start": 3.4683,
      "duration": 0.014,
      "velocity": 97,
      "chip": "ym2612"
    },
    {
      "channel": 3,
      "note": 51,
      "start": 3.469,
      "duration": 0.0164,
      "velocity": 88,
      "chip": "ym2612"
    },
    {
      "channel": 4,
      "note": 51,
      "start": 3.4696,
      "duration": 0.013,
      "velocity": 88,
      "chip": "ym2612"
    },
    {
      "channel": 2,
      "note": 71,
      "start": 3.48,
      "duration": 0.0128,
      "velocity": 97,
      "chip": "ym2612"
    },
    {
      "channel": 1,
      "note": 69,
      "start": 3.4853,
      "duration": 0.0129,
      "velocity": 97,
      "chip": "ym2612"
    },
    {
      "channel": 4,
      "note": 63,
      "start": 3.486,
      "duration": 0.0124,
      "velocity": 88,
      "chip": "ym2612"
    },
    {
      "channel": 2,
      "note": 68,
      "start": 3.4957,
      "duration": 0.0159,
      "velocity": 97,
      "chip": "ym2612"
    },
    {
      "channel": 1,
      "note": 74,
      "start": 3.5015,
      "duration": 0.0153,
      "velocity": 97,
      "chip": "ym2612"
    },
    {
      "channel": 3,
      "note": 51,
      "start": 3.5021,
      "duration": 0.0193,
      "velocity": 88,
      "chip": "ym2612"
    },
    {
      "channel": 4,
      "note": 51,
      "start": 3.5026,
      "duration": 0.0145,
      "velocity": 88,
      "chip": "ym2612"
    },
    {
      "channel": 2,
      "note": 69,
      "start": 3.5144,
      "duration": 0.0151,
      "velocity": 97,
      "chip": "ym2612"
    },
    {
      "channel": 1,
      "note": 75,
      "start": 3.5211,
      "duration": 0.0135,
      "velocity": 97,
      "chip": "ym2612"
    },
    {
      "channel": 4,
      "note": 63,
      "start": 3.5218,
      "duration": 0.0132,
      "velocity": 88,
      "chip": "ym2612"
    },
    {
      "channel": 2,
      "note": 74,
      "start": 3.5323,
      "duration": 0.0144,
      "velocity": 97,
      "chip": "ym2612"
    },
    {
      "channel": 1,
      "note": 70,
      "start": 3.5381,
      "duration": 0.0138,
      "velocity": 97,
      "chip": "ym2612"
    },
    {
      "channel": 3,
      "note": 51,
      "start": 3.5387,
      "duration": 0.0181,
      "velocity": 88,
      "chip": "ym2612"
    },
    {
      "channel": 4,
      "note": 51,
      "start": 3.5392,
      "duration": 0.0129,
      "velocity": 88,
      "chip": "ym2612"
    },
    {
      "channel": 2,
      "note": 75,
      "start": 3.5496,
      "duration": 0.0151,
      "velocity": 97,
      "chip": "ym2612"
    },
    {
      "channel": 1,
      "note": 71,
      "start": 3.5566,
      "duration": 0.0134,
      "velocity": 97,
      "chip": "ym2612"
    },
    {
      "channel": 4,
      "note": 63,
      "start": 3.5573,
      "duration": 0.013,
      "velocity": 88,
      "chip": "ym2612"
    },
    {
      "channel": 2,
      "note": 70,
      "start": 3.5676,
      "duration": 0.0139,
      "velocity": 97,
      "chip": "ym2612"
    },
    {
      "channel": 1,
      "note": 76,
      "start": 3.5729,
      "duration": 0.0143,
      "velocity": 97,
      "chip": "ym2612"
    },
    {
      "channel": 3,
      "note": 63,
      "start": 3.5735,
      "duration": 0.0181,
      "velocity": 88,
      "chip": "ym2612"
    },
    {
      "channel": 4,
      "note": 51,
      "start": 3.574,
      "duration": 0.0135,
      "velocity": 88,
      "chip": "ym2612"
    },
    {
      "channel": 2,
      "note": 71,
      "start": 3.5844,
      "duration": 0.0149,
      "velocity": 97,
      "chip": "ym2612"
    },
    {
      "channel": 1,
      "note": 77,
      "start": 3.5914,
      "duration": 0.0132,
      "velocity": 97,
      "chip": "ym2612"
    },
    {
      "channel": 4,
      "note": 63,
      "start": 3.5922,
      "duration": 0.0127,
      "velocity": 88,
      "chip": "ym2612"
    },
    {
      "channel": 2,
      "note": 76,
      "start": 3.6021,
      "duration": 0.0141,
      "velocity": 97,
      "chip": "ym2612"
    },
    {
      "channel": 1,
      "note": 72,
      "start": 3.6077,
      "duration": 0.0136,
      "velocity": 97,
      "chip": "ym2612"
    },
    {
      "channel": 3,
      "note": 51,
      "start": 3.6083,
      "duration": 0.0182,
      "velocity": 88,
      "chip": "ym2612"
    },
    {
      "channel": 4,
      "note": 51,
      "start": 3.6088,
      "duration": 0.0128,
      "velocity": 88,
      "chip": "ym2612"
    },
    {
      "channel": 2,
      "note": 77,
      "start": 3.619,
      "duration": 0.0157,
      "velocity": 97,
      "chip": "ym2612"
    },
    {
      "channel": 1,
      "note": 73,
      "start": 3.6263,
      "duration": 0.0136,
      "velocity": 97,
      "chip": "ym2612"
    },
    {
      "channel": 4,
      "note": 63,
      "start": 3.6271,
      "duration": 0.0132,
      "velocity": 88,
      "chip": "ym2612"
    },
    {
      "channel": 2,
      "note": 72,
      "start": 3.6374,
      "duration": 0.0142,
      "velocity": 97,
      "chip": "ym2612"
    },
    {
      "channel": 1,
      "note": 78,
      "start": 3.6427,
      "duration": 0.0143,
      "velocity": 97,
      "chip": "ym2612"
    },
    {
      "channel": 3,
      "note": 52,
      "start": 3.6433,
      "duration": 0.0189,
      "velocity": 88,
      "chip": "ym2612"
    },
    {
      "channel": 4,
      "note": 51,
      "start": 3.6438,
      "duration": 0.0134,
      "velocity": 88,
      "chip": "ym2612"
    },
    {
      "channel": 2,
      "note": 73,
      "start": 3.6545,
      "duration": 0.0157,
      "velocity": 97,
      "chip": "ym2612"
    },
    {
      "channel": 1,
      "note": 79,
      "start": 3.662,
      "duration": 0.0135,
      "velocity": 97,
      "chip": "ym2612"
    },
    {
      "channel": 4,
      "note": 63,
      "start": 3.6627,
      "duration": 0.0131,
      "velocity": 88,
      "chip": "ym2612"
    },
    {
      "channel": 2,
      "note": 78,
      "start": 3.6731,
      "duration": 0.0139,
      "velocity": 97,
      "chip": "ym2612"
    },
    {
      "channel": 1,
      "note": 74,
      "start": 3.6783,
      "duration": 0.014,
      "velocity": 97,
      "chip": "ym2612"
    },
    {
      "channel": 3,
      "note": 54,
      "start": 3.6789,
      "duration": 0.0165,
      "velocity": 88,
      "chip": "ym2612"
    },
    {
      "channel": 4,
      "note": 51,
      "start": 3.6794,
      "duration": 0.0132,
      "velocity": 88,
      "chip": "ym2612"
    },
    {
      "channel": 2,
      "note": 79,
      "start": 3.6898,
      "duration": 0.0136,
      "velocity": 97,
      "chip": "ym2612"
    },
    {
      "channel": 1,
      "note": 75,
      "start": 3.6952,
      "duration": 0.0141,
      "velocity": 97,
      "chip": "ym2612"
    },
    {
      "channel": 4,
      "note": 63,
      "start": 3.6959,
      "duration": 0.0137,
      "velocity": 88,
      "chip": "ym2612"
    },
    {
      "channel": 2,
      "note": 74,
      "start": 3.7062,
      "duration": 0.0174,
      "velocity": 97,
      "chip": "ym2612"
    },
    {
      "channel": 1,
      "note": 83,
      "start": 3.7148,
      "duration": 0.0141,
      "velocity": 97,
      "chip": "ym2612"
    },
    {
      "channel": 3,
      "note": 52,
      "start": 3.7155,
      "duration": 0.0163,
      "velocity": 88,
      "chip": "ym2612"
    },
    {
      "channel": 4,
      "note": 52,
      "start": 3.7161,
      "duration": 0.0131,
      "velocity": 88,
      "chip": "ym2612"
    },
    {
      "channel": 2,
      "note": 75,
      "start": 3.7264,
      "duration": 0.0129,
      "velocity": 97,
      "chip": "ym2612"
    },
    {
      "channel": 1,
      "note": 85,
      "start": 3.7316,
      "duration": 0.013,
      "velocity": 97,
      "chip": "ym2612"
    },
    {
      "channel": 4,
      "note": 64,
      "start": 3.7324,
      "duration": 0.0125,
      "velocity": 88,
      "chip": "ym2612"
    },
    {
      "channel": 2,
      "note": 83,
      "start": 3.7422,
      "duration": 0.016,
      "velocity": 97,
      "chip": "ym2612"
    },
    {
      "channel": 1,
      "note": 83,
      "start": 3.7481,
      "duration": 0.0153,
      "velocity": 97,
      "chip": "ym2612"
    },
    {
      "channel": 3,
      "note": 52,
      "start": 3.7487,
      "duration": 0.0192,
      "velocity": 88,
      "chip": "ym2612"
    },
    {
      "channel": 4,
      "note": 52,
      "start": 3.7492,
      "duration": 0.0145,
      "velocity": 88,
      "chip": "ym2612"
    },
    {
      "channel": 2,
      "note": 85,
      "start": 3.761,
      "duration": 0.0151,
      "velocity": 97,
      "chip": "ym2612"
    },
    {
      "channel": 1,
      "note": 82,
      "start": 3.7677,
      "duration": 0.0136,
      "velocity": 97,
      "chip": "ym2612"
    },
    {
      "channel": 4,
      "note": 64,
      "start": 3.7684,
      "duration": 0.0132,
      "velocity": 88,
      "chip": "ym2612"
    },
    {
      "channel": 2,
      "note": 83,
      "start": 3.7789,
      "duration": 0.0143,
      "velocity": 97,
      "chip": "ym2612"
    },
    {
      "channel": 1,
      "note": 80,
      "start": 3.7845,
      "duration": 0.0139,
      "velocity": 97,
      "chip": "ym2612"
    },
    {
      "channel": 3,
      "note": 52,
      "start": 3.7851,
      "duration": 0.0184,
      "velocity": 88,
      "chip": "ym2612"
    },
    {
      "channel": 4,
      "note": 52,
      "start": 3.7856,
      "duration": 0.013,
      "velocity": 88,
      "chip": "ym2612"
    },
    {
      "channel": 2,
      "note": 82,
      "start": 3.7959,
      "duration": 0.0157,
      "velocity": 97,
      "chip": "ym2612"
    },
    {
      "channel": 1,
      "note": 79,
      "start": 3.8032,
      "duration": 0.0136,
      "velocity": 97,
      "chip": "ym2612"
    },
    {
      "channel": 4,
      "note": 64,
      "start": 3.804,
      "duration": 0.0131,
      "velocity": 88,
      "chip": "ym2612"
    },
    {
      "channel": 2,
      "note": 80,
      "start": 3.8143,
      "duration": 0.0138,
      "velocity": 97,
      "chip": "ym2612"
    },
    {
      "channel": 1,
      "note": 80,
      "start": 3.8197,
      "duration": 0.0143,
      "velocity": 97,
      "chip": "ym2612"
    },
    {
      "channel": 3,
      "note": 64,
      "start": 3.8202,
      "duration": 0.0183,
      "velocity": 88,
      "chip": "ym2612"
    },
    {
      "channel": 4,
      "note": 52,
      "start": 3.8207,
      "duration": 0.0135,
      "velocity": 88,
      "chip": "ym2612"
    },
    {
      "channel": 2,
      "note": 79,
      "start": 3.831,
      "duration": 0.0151,
      "velocity": 97,
      "chip": "ym2612"
    },
    {
      "channel": 1,
      "note": 82,
      "start": 3.8383,
      "duration": 0.013,
      "velocity": 97,
      "chip": "ym2612"
    },
    {
      "channel": 4,
      "note": 64,
      "start": 3.839,
      "duration": 0.0126,
      "velocity": 88,
      "chip": "ym2612"
    },
    {
      "channel": 2,
      "note": 80,
      "start": 3.849,
      "duration": 0.0143,
      "velocity": 97,
      "chip": "ym2612"
    },
    {
      "channel": 1,
      "note": 83,
      "start": 3.8547,
      "duration": 0.0137,
      "velocity": 97,
      "chip": "ym2612"
    },
    {
      "channel": 3,
      "note": 52,
      "start": 3.8553,
      "duration": 0.0183,
      "velocity": 88,
      "chip": "ym2612"
    },
    {
      "channel": 4,
      "note": 52,
      "start": 3.8558,
      "duration": 0.0129,
      "velocity": 88,
      "chip": "ym2612"
    },
    {
      "channel": 2,
      "note": 82,
      "start": 3.8661,
      "duration": 0.0156,
      "velocity": 97,
      "chip": "ym2612"
    },
    {
      "channel": 1,
      "note": 82,
      "start": 3.8734,
      "duration": 0.0135,
      "velocity": 97,
      "chip": "ym2612"
    },
    {
      "channel": 4,
      "note": 64,
      "start": 3.8741,
      "duration": 0.0131,
      "velocity": 88,
      "chip": "ym2612"
    },
    {
      "channel": 2,
      "note": 83,
      "start": 3.8845,
      "duration": 0.0143,
      "velocity": 97,
      "chip": "ym2612"
    },
    {
      "channel": 1,
      "note": 80,
      "start": 3.8898,
      "duration": 0.0143,
      "velocity": 97,
      "chip": "ym2612"
    },
    {
      "channel": 3,
      "note": 53,
      "start": 3.8904,
      "duration": 0.0191,
      "velocity": 88,
      "chip": "ym2612"
    },
    {
      "channel": 4,
      "note": 52,
      "start": 3.8909,
      "duration": 0.0134,
      "velocity": 88,
      "chip": "ym2612"
    },
    {
      "channel": 2,
      "note": 82,
      "start": 3.9016,
      "duration": 0.016,
      "velocity": 97,
      "chip": "ym2612"
    },
    {
      "channel": 1,
      "note": 79,
      "start": 3.9093,
      "duration": 0.0136,
      "velocity": 97,
      "chip": "ym2612"
    },
    {
      "channel": 4,
      "note": 64,
      "start": 3.9101,
      "duration": 0.0131,
      "velocity": 88,
      "chip": "ym2612"
    },
    {
      "channel": 2,
      "note": 80,
      "start": 3.9204,
      "duration": 0.0138,
      "velocity": 97,
      "chip": "ym2612"
    },
    {
      "channel": 1,
      "note": 76,
      "start": 3.9256,
      "duration": 0.0138,
      "velocity": 97,
      "chip": "ym2612"
    },
    {
      "channel": 3,
      "note": 55,
      "start": 3.9262,
      "duration": 0.0165,
      "velocity": 88,
      "chip": "ym2612"
    },
    {
      "channel": 4,
      "note": 52,
      "start": 3.9267,
      "duration": 0.0131,
      "velocity": 88,
      "chip": "ym2612"
    },
    {
      "channel": 2,
      "note": 79,
      "start": 3.9371,
      "duration": 0.0135,
      "velocity": 97,
      "chip": "ym2612"
    },
    {
      "channel": 1,
      "note": 75,
      "start": 3.9424,
      "duration": 0.0132,
      "velocity": 97,
      "chip": "ym2612"
    },
    {
      "channel": 4,
      "note": 64,
      "start": 3.9432,
      "duration": 0.0127,
      "velocity": 88,
      "chip": "ym2612"
    },
    {
      "channel": 2,
      "note": 76,
      "start": 3.9534,
      "duration": 0.0142,
      "velocity": 97,
      "chip": "ym2612"
    },
    {
      "channel": 1,
      "note": 73,
      "start": 3.9592,
      "duration": 0.0133,
      "velocity": 97,
      "chip": "ym2612"
    },
    {
      "channel": 3,
      "note": 52,
      "start": 3.9598,
      "duration": 0.0157,
      "velocity": 88,
      "chip": "ym2612"
    },
    {
      "channel": 4,
      "note": 51,
      "start": 3.9605,
      "duration": 0.0123,
      "velocity": 88,
      "chip": "ym2612"
    },
    {
      "channel": 2,
      "note": 75,
      "start": 3.9703,
      "duration": 0.0128,
      "velocity": 97,
      "chip": "ym2612"
    },
    {
      "channel": 1,
      "note": 75,
      "start": 3.9753,
      "duration": 0.0127,
      "velocity": 97,
      "chip": "ym2612"
    },
    {
      "channel": 4,
      "note": 52,
      "start": 3.976,
      "duration": 0.0124,
      "velocity": 88,
      "chip": "ym2612"
    },
    {
      "channel": 2,
      "note": 73,
      "start": 3.9858,
      "duration": 0.013,
      "velocity": 97,
      "chip": "ym2612"
    },
    {
      "channel": 1,
      "note": 76,
      "start": 3.9908,
      "duration": 0.013,
      "velocity": 97,
      "chip": "ym2612"
    },
    {
      "channel": 3,
      "note": 52,
      "start": 3.9913,
      "duration": 0.0154,
      "velocity": 88,
      "chip": "ym2612"
    },
    {
      "channel": 4,
      "note": 53,
      "start": 3.9919,
      "duration": 0.0122,
      "velocity": 88,
      "chip": "ym2612"
    },
    {
      "channel": 2,
      "note": 75,
      "start": 4.0015,
      "duration": 0.0154,
      "velocity": 97,
      "chip": "ym2612"
    },
    {
      "channel": 1,
      "note": 78,
      "start": 4.0066,
      "duration": 0.0154,
      "velocity": 97,
      "chip": "ym2612"
    },
    {
      "channel": 4,
      "note": 54,
      "start": 4.0073,
      "duration": 0.0149,
      "velocity": 88,
      "chip": "ym2612"
    },
    {
      "channel": 2,
      "note": 76,
      "start": 4.0196,
      "duration": 0.0168,
      "velocity": 97,
      "chip": "ym2612"
    },
    {
      "channel": 1,
      "note": 76,
      "start": 4.0246,
      "duration": 0.017,
      "velocity": 97,
      "chip": "ym2612"
    },
    {
      "channel": 3,
      "note": 52,
      "start": 4.0252,
      "duration": 0.0195,
      "velocity": 88,
      "chip": "ym2612"
    },
    {
      "channel": 4,
      "note": 55,
      "start": 4.0257,
      "duration": 0.0162,
      "velocity": 88,
      "chip": "ym2612"
    },
    {
      "channel": 2,
      "note": 78,
      "start": 4.0391,
      "duration": 0.0134,
      "velocity": 97,
      "chip": "ym2612"
    },
    {
      "channel": 1,
      "note": 75,
      "start": 4.0445,
      "duration": 0.0133,
      "velocity": 97,
      "chip": "ym2612"
    },
    {
      "channel": 4,
      "note": 56,
      "start": 4.0452,
      "duration": 0.0129,
      "velocity": 88,
      "chip": "ym2612"
    },
    {
      "channel": 2,
      "note": 76,
      "start": 4.0554,
      "duration": 0.0139,
      "velocity": 97,
      "chip": "ym2612"
    },
    {
      "channel": 1,
      "note": 73,
      "start": 4.0606,
      "duration": 0.0137,
      "velocity": 97,
      "chip": "ym2612"
    },
    {
      "channel": 3,
      "note": 64,
      "start": 4.0612,
      "duration": 0.0168,
      "velocity": 88,
      "chip": "ym2612"
    },
    {
      "channel": 4,
      "note": 57,
      "start": 4.0617,
      "duration": 0.0129,
      "velocity": 88,
      "chip": "ym2612"
    },
    {
      "channel": 2,
      "note": 75,
      "start": 4.072,
      "duration": 0.014,
      "velocity": 97,
      "chip": "ym2612"
    },
    {
      "channel": 1,
      "note": 75,
      "start": 4.0777,
      "duration": 0.0136,
      "velocity": 97,
      "chip": "ym2612"
    },
    {
      "channel": 4,
      "note": 58,
      "start": 4.0785,
      "duration": 0.0131,
      "velocity": 88,
      "chip": "ym2612"
    },
    {
      "channel": 2,
      "note": 73,
      "start": 4.0888,
      "duration": 0.0144,
      "velocity": 97,
      "chip": "ym2612"
    },
    {
      "channel": 1,
      "note": 76,
      "start": 4.0942,
      "duration": 0.0142,
      "velocity": 97,
      "chip": "ym2612"
    },
    {
      "channel": 3,
      "note": 52,
      "start": 4.0948,
      "duration": 0.0169,
      "velocity": 88,
      "chip": "ym2612"
    },
    {
      "channel": 4,
      "note": 59,
      "start": 4.0953,
      "duration": 0.0135,
      "velocity": 88,
      "chip": "ym2612"
    },
    {
      "channel": 2,
      "note": 75,
      "start": 4.1059,
      "duration": 0.0141,
      "velocity": 97,
      "chip": "ym2612"
    },
    {
      "channel": 1,
      "note": 78,
      "start": 4.1114,
      "duration": 0.0141,
      "velocity": 97,
      "chip": "ym2612"
    },
    {
      "channel": 4,
      "note": 60,
      "start": 4.1122,
      "duration": 0.0137,
      "velocity": 88,
      "chip": "ym2612"
    },
    {
      "channel": 2,
      "note": 76,
      "start": 4.123,
      "duration": 0.0149,
      "velocity": 97,
      "chip": "ym2612"
    },
    {
      "channel": 1,
      "note": 79,
      "start": 4.1285,
      "duration": 0.0149,
      "velocity": 97,
      "chip": "ym2612"
    },
    {
      "channel": 3,
      "note": 53,
      "start": 4.1291,
      "duration": 0.0176,
      "velocity": 88,
      "chip": "ym2612"
    },
    {
      "channel": 4,
      "note": 61,
      "start": 4.1296,
      "duration": 0.0141,
      "velocity": 88,
      "chip": "ym2612"
    },
    {
      "channel": 2,
      "note": 78,
      "start": 4.1409,
      "duration": 0.0141,
      "velocity": 97,
      "chip": "ym2612"
    },
    {
      "channel": 1,
      "note": 80,
      "start": 4.1465,
      "duration": 0.0141,
      "velocity": 97,
      "chip": "ym2612"
    },
    {
      "channel": 4,
      "note": 62,
      "start": 4.1472,
      "duration": 0.0137,
      "velocity": 88,
      "chip": "ym2612"
    },
    {
      "channel": 2,
      "note": 79,
      "start": 4.158,
      "duration": 0.014,
      "velocity": 97,
      "chip": "ym2612"
    },
    {
      "channel": 1,
      "note": 82,
      "start": 4.1636,
      "duration": 0.0136,
      "velocity": 97,
      "chip": "ym2612"
    },
    {
      "channel": 3,
      "note": 55,
      "start": 4.1641,
      "duration": 0.0161,
      "velocity": 88,
      "chip": "ym2612"
    },
    {
      "channel": 4,
      "note": 63,
      "start": 4.1646,
      "duration": 0.0129,
      "velocity": 88,
      "chip": "ym2612"
    },
    {
      "channel": 2,
      "note": 80,
      "start": 4.1748,
      "duration": 0.0136,
      "velocity": 97,
      "chip": "ym2612"
    },
    {
      "channel": 1,
      "note": 83,
      "start": 4.18,
      "duration": 0.0134,
      "velocity": 97,
      "chip": "ym2612"
    },
    {
      "channel": 4,
      "note": 64,
      "start": 4.1808,
      "duration": 0.013,
      "velocity": 88,
      "chip": "ym2612"
    },
    {
      "channel": 2,
      "note": 82,
      "start": 4.1912,
      "duration": 0.0024,
      "velocity": 97,
      "chip": "ym2612"
    },
    {
      "channel": 1,
      "note": 80,
      "start": 4.202,
      "duration": 0.0687,
      "velocity": 102,
      "chip": "ym2612"
    },
    {
      "channel": 2,
      "note": 75,
      "start": 4.2046,
      "duration": 0.0662,
      "velocity": 102,
      "chip": "ym2612"
    },
    {
      "channel": 3,
      "note": 56,
      "start": 4.2051,
      "duration": 0.0155,
      "velocity": 88,
      "chip": "ym2612"
    },
    {
      "channel": 4,
      "note": 44,
      "start": 4.2058,
      "duration": 0.0125,
      "velocity": 88,
      "chip": "ym2612"
    },
    {
      "channel": 4,
      "note": 56,
      "start": 4.2211,
      "duration": 0.0122,
      "velocity": 88,
      "chip": "ym2612"
    },
    {
      "channel": 3,
      "note": 56,
      "start": 4.236,
      "duration": 0.0165,
      "velocity": 88,
      "chip": "ym2612"
    },
    {
      "channel": 4,
      "note": 44,
      "start": 4.2365,
      "duration": 0.0122,
      "velocity": 88,
      "chip": "ym2612"
    },
    {
      "channel": 4,
      "note": 56,
      "start": 4.253,
      "duration": 0.0128,
      "velocity": 88,
      "chip": "ym2612"
    },
    {
      "channel": 3,
      "note": 56,
      "start": 4.2713,
      "duration": 0.0165,
      "velocity": 88,
      "chip": "ym2612"
    },
    {
      "channel": 4,
      "note": 44,
      "start": 4.2718,
      "duration": 0.0123,
      "velocity": 88,
      "chip": "ym2612"
    },
    {
      "channel": 4,
      "note": 56,
      "start": 4.2882,
      "duration": 0.0124,
      "velocity": 88,
      "chip": "ym2612"
    },
    {
      "channel": 1,
      "note": 87,
      "start": 4.3031,
      "duration": 0.069,
      "velocity": 102,
      "chip": "ym2612"
    },
    {
      "channel": 2,
      "note": 80,
      "start": 4.3036,
      "duration": 0.0685,
      "velocity": 102,
      "chip": "ym2612"
    },
    {
      "channel": 3,
      "note": 56,
      "start": 4.3041,
      "duration": 0.0174,
      "velocity": 88,
      "chip": "ym2612"
    },
    {
      "channel": 4,
      "note": 44,
      "start": 4.3046,
      "duration": 0.0122,
      "velocity": 88,
      "chip": "ym2612"
    },
    {
      "channel": 4,
      "note": 56,
      "start": 4.322,
      "duration": 0.0119,
      "velocity": 88,
      "chip": "ym2612"
    },
    {
      "channel": 3,
      "note": 56,
      "start": 4.3383,
      "duration": 0.0169,
      "velocity": 88,
      "chip": "ym2612"
    },
    {
      "channel": 4,
      "note": 44,
      "start": 4.3388,
      "duration": 0.0126,
      "velocity": 88,
      "chip": "ym2612"
    },
    {
      "channel": 4,
      "note": 56,
      "start": 4.3556,
      "duration": 0.0123,
      "velocity": 88,
      "chip": "ym2612"
    },
    {
      "channel": 3,
      "note": 56,
      "start": 4.3727,
      "duration": 0.0193,
      "velocity": 88,
      "chip": "ym2612"
    },
    {
      "channel": 4,
      "note": 44,
      "start": 4.3731,
      "duration": 0.0149,
      "velocity": 88,
      "chip": "ym2612"
    },
    {
      "channel": 4,
      "note": 56,
      "start": 4.3924,
      "duration": 0.0122,
      "velocity": 88,
      "chip": "ym2612"
    },
    {
      "channel": 1,
      "note": 83,
      "start": 4.409,
      "duration": 0.099,
      "velocity": 102,
      "chip": "ym2612"
    },
    {
      "channel": 2,
      "note": 80,
      "start": 4.4096,
      "duration": 0.0986,
      "velocity": 102,
      "chip": "ym2612"
    },
    {
      "channel": 3,
      "note": 56,
      "start": 4.4101,
      "duration": 0.0185,
      "velocity": 88,
      "chip": "ym2612"
    },
    {
      "channel": 4,
      "note": 44,
      "start": 4.4106,
      "duration": 0.0142,
      "velocity": 88,
      "chip": "ym2612"
    },
    {
      "channel": 4,
      "note": 56,
      "start": 4.429,
      "duration": 0.012,
      "velocity": 88,
      "chip": "ym2612"
    },
    {
      "channel": 3,
      "note": 57,
      "start": 4.4472,
      "duration": 0.0162,
      "velocity": 88,
      "chip": "ym2612"
    },
    {
      "channel": 4,
      "note": 44,
      "start": 4.4478,
      "duration": 0.0133,
      "velocity": 88,
      "chip": "ym2612"
    },
    {
      "channel": 4,
      "note": 56,
      "start": 4.4639,
      "duration": 0.012,
      "velocity": 88,
      "chip": "ym2612"
    },
    {
      "channel": 3,
      "note": 56,
      "start": 4.4786,
      "duration": 0.0165,
      "velocity": 88,
      "chip": "ym2612"
    },
    {
      "channel": 4,
      "note": 44,
      "start": 4.4791,
      "duration": 0.0122,
      "velocity": 88,
      "chip": "ym2612"
    },
    {
      "channel": 4,
      "note": 56,
      "start": 4.4956,
      "duration": 0.0129,
      "velocity": 88,
      "chip": "ym2612"
    },
    {
      "channel": 1,
      "note": 90,
      "start": 4.5135,
      "duration": 0.1004,
      "velocity": 102,
      "chip": "ym2612"
    },
    {
      "channel": 2,
      "note": 87,
      "start": 4.514,
      "duration": 0.1,
      "velocity": 102,
      "chip": "ym2612"
    },
    {
      "channel": 3,
      "note": 56,
      "start": 4.5145,
      "duration": 0.0159,
      "velocity": 88,
      "chip": "ym2612"
    },
    {
      "channel": 4,
      "note": 44,
      "start": 4.515,
      "duration": 0.0124,
      "velocity": 88,
      "chip": "ym2612"
    },
    {
      "channel": 4,
      "note": 56,
      "start": 4.5309,
      "duration": 0.0126,
      "velocity": 88,
      "chip": "ym2612"
    },
    {
      "channel": 3,
      "note": 59,
      "start": 4.548,
      "duration": 0.0183,
      "velocity": 88,
      "chip": "ym2612"
    },
    {
      "channel": 4,
      "note": 44,
      "start": 4.5485,
      "duration": 0.0139,
      "velocity": 88,
      "chip": "ym2612"
    },
    {
      "channel": 4,
      "note": 56,
      "start": 4.5668,
      "duration": 0.0126,
      "velocity": 88,
      "chip": "ym2612"
    },
    {
      "channel": 3,
      "note": 56,
      "start": 4.5847,
      "duration": 0.0166,
      "velocity": 88,
      "chip": "ym2612"
    },
    {
      "channel": 4,
      "note": 44,
      "start": 4.5852,
      "duration": 0.0123,
      "velocity": 88,
      "chip": "ym2612"
    },
    {
      "channel": 4,
      "note": 56,
      "start": 4.6018,
      "duration": 0.0124,
      "velocity": 88,
      "chip": "ym2612"
    },
    {
      "channel": 1,
      "note": 89,
      "start": 4.6185,
      "duration": 0.3024,
      "velocity": 102,
      "chip": "ym2612"
    },
    {
      "channel": 2,
      "note": 86,
      "start": 4.619,
      "duration": 0.3021,
      "velocity": 102,
      "chip": "ym2612"
    },
    {
      "channel": 3,
      "note": 56,
      "start": 4.6195,
      "duration": 0.0182,
      "velocity": 88,
      "chip": "ym2612"
    },
    {
      "channel": 4,
      "note": 44,
      "start": 4.62,
      "duration": 0.0147,
      "velocity": 88,
      "chip": "ym2612"
    },
    {
      "channel": 4,
      "note": 56,
      "start": 4.6382,
      "duration": 0.0123,
      "velocity": 88,
      "chip": "ym2612"
    },
    {
      "channel": 3,
      "note": 61,
      "start": 4.6532,
      "duration": 0.0168,
      "velocity": 88,
      "chip": "ym2612"
    },
    {
      "channel": 4,
      "note": 44,
      "start": 4.6537,
      "duration": 0.0125,
      "velocity": 88,
      "chip": "ym2612"
    },
    {
      "channel": 4,
      "note": 56,
      "start": 4.6705,
      "duration": 0.0119,
      "velocity": 88,
      "chip": "ym2612"
    },
    {
      "channel": 3,
      "note": 56,
      "start": 4.6859,
      "duration": 0.0154,
      "velocity": 88,
      "chip": "ym2612"
    },
    {
      "channel": 4,
      "note": 44,
      "start": 4.6866,
      "duration": 0.0126,
      "velocity": 88,
      "chip": "ym2612"
    },
    {
      "channel": 4,
      "note": 56,
      "start": 4.7019,
      "duration": 0.0139,
      "velocity": 88,
      "chip": "ym2612"
    },
    {
      "channel": 3,
      "note": 56,
      "start": 4.719,
      "duration": 0.0146,
      "velocity": 88,
      "chip": "ym2612"
    },
    {
      "channel": 4,
      "note": 44,
      "start": 4.7195,
      "duration": 0.0119,
      "velocity": 88,
      "chip": "ym2612"
    },
    {
      "channel": 4,
      "note": 56,
      "start": 4.7342,
      "duration": 0.0127,
      "velocity": 88,
      "chip": "ym2612"
    },
    {
      "channel": 3,
      "note": 63,
      "start": 4.7495,
      "duration": 0.0157,
      "velocity": 88,
      "chip": "ym2612"
    },
    {
      "channel": 4,
      "note": 44,
      "start": 4.75,
      "duration": 0.0127,
      "velocity": 88,
      "chip": "ym2612"
    },
    {
      "channel": 4,
      "note": 56,
      "start": 4.7657,
      "duration": 0.013,
      "velocity": 88,
      "chip": "ym2612"
    },
    {
      "channel": 3,
      "note": 56,
      "start": 4.7815,
      "duration": 0.0158,
      "velocity": 88,
      "chip": "ym2612"
    },
    {
      "channel": 4,
      "note": 44,
      "start": 4.782,
      "duration": 0.0128,
      "velocity": 88,
      "chip": "ym2612"
    },
    {
      "channel": 4,
      "note": 56,
      "start": 4.7978,
      "duration": 0.0136,
      "velocity": 88,
      "chip": "ym2612"
    },
    {
      "channel": 3,
      "note": 56,
      "start": 4.8142,
      "duration": 0.0166,
      "velocity": 88,
      "chip": "ym2612"
    },
    {
      "channel": 4,
      "note": 44,
      "start": 4.8147,
      "duration": 0.0135,
      "velocity": 88,
      "chip": "ym2612"
    },
    {
      "channel": 4,
      "note": 56,
      "start": 4.8313,
      "duration": 0.0134,
      "velocity": 88,
      "chip": "ym2612"
    },
    {
      "channel": 3,
      "note": 64,
      "start": 4.8476,
      "duration": 0.0174,
      "velocity": 88,
      "chip": "ym2612"
    },
    {
      "channel": 4,
      "note": 44,
      "start": 4.8481,
      "duration": 0.0142,
      "velocity": 88,
      "chip": "ym2612"
    },
    {
      "channel": 4,
      "note": 56,
      "start": 4.8654,
      "duration": 0.0177,
      "velocity": 88,
      "chip": "ym2612"
    },
    {
      "channel": 3,
      "note": 66,
      "start": 4.8872,
      "duration": 0.0193,
      "velocity": 88,
      "chip": "ym2612"
    },
    {
      "channel": 4,
      "note": 44,
      "start": 4.8877,
      "duration": 0.0145,
      "velocity": 88,
      "chip": "ym2612"
    },
    {
      "channel": 4,
      "note": 56,
      "start": 4.907,
      "duration": 0.0142,
      "velocity": 88,
      "chip": "ym2612"
    },
    {
      "channel": 1,
      "note": 80,
      "start": 4.9276,
      "duration": 0.0691,
      "velocity": 102,
      "chip": "ym2612"
    },
    {
      "channel": 2,
      "note": 75,
      "start": 4.9297,
      "duration": 0.0671,
      "velocity": 102,
      "chip": "ym2612"
    },
    {
      "channel": 3,
      "note": 56,
      "start": 4.9302,
      "duration": 0.0162,
      "velocity": 88,
      "chip": "ym2612"
    },
    {
      "channel": 4,
      "note": 44,
      "start": 4.9309,
      "duration": 0.0132,
      "velocity": 88,
      "chip": "ym2612"
    },
    {
      "channel": 4,
      "note": 56,
      "start": 4.9469,
      "duration": 0.012,
      "velocity": 88,
      "chip": "ym2612"
    },
    {
      "channel": 3,
      "note": 56,
      "start": 4.9617,
      "duration": 0.0169,
      "velocity": 88,
      "chip": "ym2612"
    },
    {
      "channel": 4,
      "note": 44,
      "start": 4.9623,
      "duration": 0.0125,
      "velocity": 88,
      "chip": "ym2612"
    },
    {
      "channel": 4,
      "note": 56,
      "start": 4.9791,
      "duration": 0.0128,
      "velocity": 88,
      "chip": "ym2612"
    },
    {
      "channel": 3,
      "note": 56,
      "start": 4.9973,
      "duration": 0.0168,
      "velocity": 88,
      "chip": "ym2612"
    },
    {
      "channel": 4,
      "note": 44,
      "start": 4.9978,
      "duration": 0.0126,
      "velocity": 88,
      "chip": "ym2612"
    },
    {
      "channel": 4,
      "note": 56,
      "start": 5.0146,
      "duration": 0.0123,
      "velocity": 88,
      "chip": "ym2612"
    },
    {
      "channel": 1,
      "note": 87,
      "start": 5.0311,
      "duration": 0.0704,
      "velocity": 102,
      "chip": "ym2612"
    },
    {
      "channel": 2,
      "note": 80,
      "start": 5.0317,
      "duration": 0.0701,
      "velocity": 102,
      "chip": "ym2612"
    },
    {
      "channel": 3,
      "note": 56,
      "start": 5.0322,
      "duration": 0.018,
      "velocity": 88,
      "chip": "ym2612"
    },
    {
      "channel": 4,
      "note": 44,
      "start": 5.0327,
      "duration": 0.0137,
      "velocity": 88,
      "chip": "ym2612"
    },
    {
      "channel": 4,
      "note": 56,
      "start": 5.0507,
      "duration": 0.013,
      "velocity": 88,
      "chip": "ym2612"
    },
    {
      "channel": 3,
      "note": 56,
      "start": 5.068,
      "duration": 0.0166,
      "velocity": 88,
      "chip": "ym2612"
    },
    {
      "channel": 4,
      "note": 44,
      "start": 5.0685,
      "duration": 0.0122,
      "velocity": 88,
      "chip": "ym2612"
    },
    {
      "channel": 4,
      "note": 56,
      "start": 5.0851,
      "duration": 0.0125,
      "velocity": 88,
      "chip": "ym2612"
    },
    {
      "channel": 3,
      "note": 56,
      "start": 5.1022,
      "duration": 0.0193,
      "velocity": 88,
      "chip": "ym2612"
    },
    {
      "channel": 4,
      "note": 44,
      "start": 5.1027,
      "duration": 0.0149,
      "velocity": 88,
      "chip": "ym2612"
    },
    {
      "channel": 4,
      "note": 56,
      "start": 5.122,
      "duration": 0.0123,
      "velocity": 88,
      "chip": "ym2612"
    },
    {
      "channel": 1,
      "note": 83,
      "start": 5.1368,
      "duration": 0.0976,
      "velocity": 102,
      "chip": "ym2612"
    },
    {
      "channel": 2,
      "note": 80,
      "start": 5.1373,
      "duration": 0.0972,
      "velocity": 102,
      "chip": "ym2612"
    },
    {
      "channel": 3,
      "note": 56,
      "start": 5.1378,
      "duration": 0.0169,
      "velocity": 88,
      "chip": "ym2612"
    },
    {
      "channel": 4,
      "note": 44,
      "start": 5.1383,
      "duration": 0.0126,
      "velocity": 88,
      "chip": "ym2612"
    },
    {
      "channel": 4,
      "note": 56,
      "start": 5.1552,
      "duration": 0.012,
      "velocity": 88,
      "chip": "ym2612"
    },
    {
      "channel": 3,
      "note": 57,
      "start": 5.1731,
      "duration": 0.0164,
      "velocity": 88,
      "chip": "ym2612"
    },
    {
      "channel": 4,
      "note": 44,
      "start": 5.1737,
      "duration": 0.0134,
      "velocity": 88,
      "chip": "ym2612"
    },
    {
      "channel": 4,
      "note": 56,
      "start": 5.1899,
      "duration": 0.0118,
      "velocity": 88,
      "chip": "ym2612"
    },
    {
      "channel": 3,
      "note": 56,
      "start": 5.2047,
      "duration": 0.0166,
      "velocity": 88,
      "chip": "ym2612"
    },
    {
      "channel": 4,
      "note": 44,
      "start": 5.2052,
      "duration": 0.0122,
      "velocity": 88,
      "chip": "ym2612"
    },
    {
      "channel": 4,
      "note": 56,
      "start": 5.2218,
      "duration": 0.0129,
      "velocity": 88,
      "chip": "ym2612"
    },
    {
      "channel": 1,
      "note": 90,
      "start": 5.2398,
      "duration": 0.1006,
      "velocity": 102,
      "chip": "ym2612"
    },
    {
      "channel": 2,
      "note": 87,
      "start": 5.2403,
      "duration": 0.1002,
      "velocity": 102,
      "chip": "ym2612"
    },
    {
      "channel": 3,
      "note": 56,
      "start": 5.2408,
      "duration": 0.0159,
      "velocity": 88,
      "chip": "ym2612"
    },
    {
      "channel": 4,
      "note": 44,
      "start": 5.2414,
      "duration": 0.0123,
      "velocity": 88,
      "chip": "ym2612"
    },
    {
      "channel": 4,
      "note": 56,
      "start": 5.2572,
      "duration": 0.0127,
      "velocity": 88,
      "chip": "ym2612"
    },
    {
      "channel": 3,
      "note": 59,
      "start": 5.2744,
      "duration": 0.018,
      "velocity": 88,
      "chip": "ym2612"
    },
    {
      "channel": 4,
      "note": 44,
      "start": 5.2749,
      "duration": 0.0137,
      "velocity": 88,
      "chip": "ym2612"
    },
    {
      "channel": 4,
      "note": 56,
      "start": 5.2929,
      "duration": 0.0127,
      "velocity": 88,
      "chip": "ym2612"
    },
    {
      "channel": 3,
      "note": 56,
      "start": 5.311,
      "duration": 0.0169,
      "velocity": 88,
      "chip": "ym2612"
    },
    {
      "channel": 4,
      "note": 44,
      "start": 5.3115,
      "duration": 0.0123,
      "velocity": 88,
      "chip": "ym2612"
    },
    {
      "channel": 4,
      "note": 56,
      "start": 5.3284,
      "duration": 0.0124,
      "velocity": 88,
      "chip": "ym2612"
    },
    {
      "channel": 1,
      "note": 89,
      "start": 5.345,
      "duration": 0.1028,
      "velocity": 102,
      "chip": "ym2612"
    },
    {
      "channel": 2,
      "note": 86,
      "start": 5.3456,
      "duration": 0.1023,
      "velocity": 102,
      "chip": "ym2612"
    },
    {
      "channel": 3,
      "note": 56,
      "start": 5.3461,
      "duration": 0.0188,
      "velocity": 88,
      "chip": "ym2612"
    },
    {
      "channel": 4,
      "note": 44,
      "start": 5.3466,
      "duration": 0.0141,
      "velocity": 88,
      "chip": "ym2612"
    },
    {
      "channel": 4,
      "note": 56,
      "start": 5.3654,
      "duration": 0.0122,
      "velocity": 88,
      "chip": "ym2612"
    },
    {
      "channel": 3,
      "note": 61,
      "start": 5.3819,
      "duration": 0.0182,
      "velocity": 88,
      "chip": "ym2612"
    },
    {
      "channel": 4,
      "note": 44,
      "start": 5.3824,
      "duration": 0.0139,
      "velocity": 88,
      "chip": "ym2612"
    },
    {
      "channel": 4,
      "note": 56,
      "start": 5.4006,
      "duration": 0.0119,
      "velocity": 88,
      "chip": "ym2612"
    },
    {
      "channel": 3,
      "note": 56,
      "start": 5.4161,
      "duration": 0.0176,
      "velocity": 88,
      "chip": "ym2612"
    },
    {
      "channel": 4,
      "note": 44,
      "start": 5.4166,
      "duration": 0.0148,
      "velocity": 88,
      "chip": "ym2612"
    },
    {
      "channel": 4,
      "note": 56,
      "start": 5.4342,
      "duration": 0.014,
      "velocity": 88,
      "chip": "ym2612"
    },
    {
      "channel": 1,
      "note": 88,
      "start": 5.4506,
      "duration": 0.0902,
      "velocity": 102,
      "chip": "ym2612"
    },
    {
      "channel": 2,
      "note": 92,
      "start": 5.4511,
      "duration": 0.0899,
      "velocity": 102,
      "chip": "ym2612"
    },
    {
      "channel": 3,
      "note": 56,
      "start": 5.4516,
      "duration": 0.0145,
      "velocity": 88,
      "chip": "ym2612"
    },
    {
      "channel": 4,
      "note": 44,
      "start": 5.4521,
      "duration": 0.0117,
      "velocity": 88,
      "chip": "ym2612"
    },
    {
      "channel": 4,
      "note": 56,
      "start": 5.4665,
      "duration": 0.0115,
      "velocity": 88,
      "chip": "ym2612"
    },
    {
      "channel": 3,
      "note": 63,
      "start": 5.4815,
      "duration": 0.0153,
      "velocity": 88,
      "chip": "ym2612"
    },
    {
      "channel": 4,
      "note": 44,
      "start": 5.482,
      "duration": 0.0124,
      "velocity": 88,
      "chip": "ym2612"
    },
    {
      "channel": 4,
      "note": 56,
      "start": 5.4973,
      "duration": 0.0126,
      "velocity": 88,
      "chip": "ym2612"
    },
    {
      "channel": 3,
      "note": 56,
      "start": 5.5125,
      "duration": 0.015,
      "velocity": 88,
      "chip": "ym2612"
    },
    {
      "channel": 4,
      "note": 44,
      "start": 5.513,
      "duration": 0.0122,
      "velocity": 88,
      "chip": "ym2612"
    },
    {
      "channel": 4,
      "note": 56,
      "start": 5.528,
      "duration": 0.0132,
      "velocity": 88,
      "chip": "ym2612"
    },
    {
      "channel": 1,
      "note": 95,
      "start": 5.5438,
      "duration": 0.0301,
      "velocity": 102,
      "chip": "ym2612"
    },
    {
      "channel": 2,
      "note": 92,
      "start": 5.5442,
      "duration": 0.0298,
      "velocity": 102,
      "chip": "ym2612"
    },
    {
      "channel": 3,
      "note": 56,
      "start": 5.5447,
      "duration": 0.0159,
      "velocity": 88,
      "chip": "ym2612"
    },
    {
      "channel": 4,
      "note": 44,
      "start": 5.5452,
      "duration": 0.0129,
      "velocity": 88,
      "chip": "ym2612"
    },
    {
      "channel": 4,
      "note": 56,
      "start": 5.561,
      "duration": 0.0132,
      "velocity": 88,
      "chip": "ym2612"
    },
    {
      "channel": 1,
      "note": 95,
      "start": 5.5769,
      "duration": 0.0141,
      "velocity": 102,
      "chip": "ym2612"
    },
    {
      "channel": 2,
      "note": 92,
      "start": 5.5775,
      "duration": 0.0138,
      "velocity": 102,
      "chip": "ym2612"
    },
    {
      "channel": 3,
      "note": 64,
      "start": 5.578,
      "duration": 0.0176,
      "velocity": 88,
      "chip": "ym2612"
    },
    {
      "channel": 4,
      "note": 44,
      "start": 5.5785,
      "duration": 0.0129,
      "velocity": 88,
      "chip": "ym2612"
    },
    {
      "channel": 1,
      "note": 94,
      "start": 5.5949,
      "duration": 0.0137,
      "velocity": 102,
      "chip": "ym2612"
    },
    {
      "channel": 2,
      "note": 91,
      "start": 5.5954,
      "duration": 0.0133,
      "velocity": 102,
      "chip": "ym2612"
    },
    {
      "channel": 4,
      "note": 56,
      "start": 5.596,
      "duration": 0.0129,
      "velocity": 88,
      "chip": "ym2612"
    },
    {
      "channel": 1,
      "note": 92,
      "start": 5.6117,
      "duration": 0.0151,
      "velocity": 102,
      "chip": "ym2612"
    },
    {
      "channel": 2,
      "note": 89,
      "start": 5.6122,
      "duration": 0.0147,
      "velocity": 102,
      "chip": "ym2612"
    },
    {
      "channel": 3,
      "note": 66,
      "start": 5.6127,
      "duration": 0.0192,
      "velocity": 88,
      "chip": "ym2612"
    },
    {
      "channel": 4,
      "note": 44,
      "start": 5.6132,
      "duration": 0.014,
      "velocity": 88,
      "chip": "ym2612"
    },
    {
      "channel": 1,
      "note": 91,
      "start": 5.6313,
      "duration": 0.0148,
      "velocity": 102,
      "chip": "ym2612"
    },
    {
      "channel": 2,
      "note": 88,
      "start": 5.6318,
      "duration": 0.0145,
      "velocity": 102,
      "chip": "ym2612"
    },
    {
      "channel": 4,
      "note": 56,
      "start": 5.6324,
      "duration": 0.014,
      "velocity": 88,
      "chip": "ym2612"
    },
    {
      "channel": 1,
      "note": 75,
      "start": 5.6527,
      "duration": 0.0159,
      "velocity": 97,
      "chip": "ym2612"
    },
    {
      "channel": 3,
      "note": 51,
      "start": 5.655,
      "duration": 0.0166,
      "velocity": 88,
      "chip": "ym2612"
    },
    {
      "channel": 4,
      "note": 51,
      "start": 5.6557,
      "duration": 0.0131,
      "velocity": 88,
      "chip": "ym2612"
    },
    {
      "channel": 1,
      "note": 76,
      "start": 5.6713,
      "duration": 0.0134,
      "velocity": 97,
      "chip": "ym2612"
    },
    {
      "channel": 4,
      "note": 58,
      "start": 5.672,
      "duration": 0.0131,
      "velocity": 88,
      "chip": "ym2612"
    },
    {
      "channel": 2,
      "note": 75,
      "start": 5.6824,
      "duration": 0.016,
      "velocity": 97,
      "chip": "ym2612"
    },
    {
      "channel": 1,
      "note": 78,
      "start": 5.6885,
      "duration": 0.0152,
      "velocity": 97,
      "chip": "ym2612"
    },
    {
      "channel": 3,
      "note": 51,
      "start": 5.6891,
      "duration": 0.0192,
      "velocity": 88,
      "chip": "ym2612"
    },
    {
      "channel": 4,
      "note": 63,
      "start": 5.6896,
      "duration": 0.0144,
      "velocity": 88,
      "chip": "ym2612"
    },
    {
      "channel": 2,
      "note": 76,
      "start": 5.7012,
      "duration": 0.0147,
      "velocity": 97,
      "chip": "ym2612"
    },
    {
      "channel": 1,
      "note": 79,
      "start": 5.708,
      "duration": 0.0132,
      "velocity": 97,
      "chip": "ym2612"
    },
    {
      "channel": 4,
      "note": 51,
      "start": 5.7088,
      "duration": 0.0127,
      "velocity": 88,
      "chip": "ym2612"
    },
    {
      "channel": 2,
      "note": 78,
      "start": 5.7187,
      "duration": 0.0153,
      "velocity": 97,
      "chip": "ym2612"
    },
    {
      "channel": 1,
      "note": 80,
      "start": 5.7254,
      "duration": 0.0139,
      "velocity": 97,
      "chip": "ym2612"
    },
    {
      "channel": 3,
      "note": 51,
      "start": 5.726,
      "duration": 0.018,
      "velocity": 88,
      "chip": "ym2612"
    },
    {
      "channel": 4,
      "note": 58,
      "start": 5.7265,
      "duration": 0.0131,
      "velocity": 88,
      "chip": "ym2612"
    },
    {
      "channel": 2,
      "note": 79,
      "start": 5.7368,
      "duration": 0.0151,
      "velocity": 97,
      "chip": "ym2612"
    },
    {
      "channel": 1,
      "note": 82,
      "start": 5.7437,
      "duration": 0.0133,
      "velocity": 97,
      "chip": "ym2612"
    },
    {
      "channel": 4,
      "note": 63,
      "start": 5.7444,
      "duration": 0.0129,
      "velocity": 88,
      "chip": "ym2612"
    },
    {
      "channel": 2,
      "note": 80,
      "start": 5.7546,
      "duration": 0.0137,
      "velocity": 97,
      "chip": "ym2612"
    },
    {
      "channel": 1,
      "note": 83,
      "start": 5.7598,
      "duration": 0.0137,
      "velocity": 97,
      "chip": "ym2612"
    },
    {
      "channel": 3,
      "note": 63,
      "start": 5.7604,
      "duration": 0.0177,
      "velocity": 88,
      "chip": "ym2612"
    },
    {
      "channel": 4,
      "note": 51,
      "start": 5.7609,
      "duration": 0.013,
      "velocity": 88,
      "chip": "ym2612"
    },
    {
      "channel": 2,
      "note": 82,
      "start": 5.7711,
      "duration": 0.0153,
      "velocity": 97,
      "chip": "ym2612"
    },
    {
      "channel": 1,
      "note": 82,
      "start": 5.7779,
      "duration": 0.0137,
      "velocity": 97,
      "chip": "ym2612"
    },
    {
      "channel": 4,
      "note": 58,
      "start": 5.7786,
      "duration": 0.0132,
      "velocity": 88,
      "chip": "ym2612"
    },
    {
      "channel": 2,
      "note": 83,
      "start": 5.7892,
      "duration": 0.0142,
      "velocity": 97,
      "chip": "ym2612"
    },
    {
      "channel": 1,
      "note": 80,
      "start": 5.7948,
      "duration": 0.0138,
      "velocity": 97,
      "chip": "ym2612"
    },
    {
      "channel": 3,
      "note": 51,
      "start": 5.7954,
      "duration": 0.0185,
      "velocity": 88,
      "chip": "ym2612"
    },
    {
      "channel": 4,
      "note": 63,
      "start": 5.7959,
      "duration": 0.013,
      "velocity": 88,
      "chip": "ym2612"
    },
    {
      "channel": 2,
      "note": 82,
      "start": 5.8062,
      "duration": 0.0153,
      "velocity": 97,
      "chip": "ym2612"
    },
    {
      "channel": 1,
      "note": 79,
      "start": 5.8136,
      "duration": 0.0133,
      "velocity": 97,
      "chip": "ym2612"
    },
    {
      "channel": 4,
      "note": 51,
      "start": 5.8142,
      "duration": 0.0128,
      "velocity": 88,
      "chip": "ym2612"
    },
    {
      "channel": 2,
      "note": 80,
      "start": 5.8244,
      "duration": 0.0139,
      "velocity": 97,
      "chip": "ym2612"
    },
    {
      "channel": 1,
      "note": 78,
      "start": 5.8297,
      "duration": 0.0137,
      "velocity": 97,
      "chip": "ym2612"
    },
    {
      "channel": 3,
      "note": 52,
      "start": 5.8302,
      "duration": 0.0191,
      "velocity": 88,
      "chip": "ym2612"
    },
    {
      "channel": 4,
      "note": 58,
      "start": 5.8308,
      "duration": 0.013,
      "velocity": 88,
      "chip": "ym2612"
    },
    {
      "channel": 2,
      "note": 79,
      "start": 5.8411,
      "duration": 0.0169,
      "velocity": 97,
      "chip": "ym2612"
    },
    {
      "channel": 1,
      "note": 76,
      "start": 5.8492,
      "duration": 0.0139,
      "velocity": 97,
      "chip": "ym2612"
    },
    {
      "channel": 4,
      "note": 63,
      "start": 5.8499,
      "duration": 0.0136,
      "velocity": 88,
      "chip": "ym2612"
    },
    {
      "channel": 2,
      "note": 78,
      "start": 5.8608,
      "duration": 0.0138,
      "velocity": 97,
      "chip": "ym2612"
    },
    {
      "channel": 1,
      "note": 75,
      "start": 5.866,
      "duration": 0.0134,
      "velocity": 97,
      "chip": "ym2612"
    },
    {
      "channel": 3,
      "note": 54,
      "start": 5.8666,
      "duration": 0.0159,
      "velocity": 88,
      "chip": "ym2612"
    },
    {
      "channel": 4,
      "note": 51,
      "start": 5.8671,
      "duration": 0.0127,
      "velocity": 88,
      "chip": "ym2612"
    },
    {
      "channel": 2,
      "note": 76,
      "start": 5.8772,
      "duration": 0.0132,
      "velocity": 97,
      "chip": "ym2612"
    },
    {
      "channel": 1,
      "note": 73,
      "start": 5.8823,
      "duration": 0.0134,
      "velocity": 97,
      "chip": "ym2612"
    },
    {
      "channel": 4,
      "note": 63,
      "start": 5.883,
      "duration": 0.0131,
      "velocity": 88,
      "chip": "ym2612"
    },
    {
      "channel": 2,
      "note": 75,
      "start": 5.8933,
      "duration": 0.0175,
      "velocity": 97,
      "chip": "ym2612"
    },
    {
      "channel": 1,
      "note": 75,
      "start": 5.9021,
      "duration": 0.101,
      "velocity": 97,
      "chip": "ym2612"
    },
    {
      "channel": 3,
      "note": 51,
      "start": 5.9028,
      "duration": 0.0165,
      "velocity": 88,
      "chip": "ym2612"
    },
    {
      "channel": 4,
      "note": 51,
      "start": 5.9033,
      "duration": 0.0136,
      "velocity": 88,
      "chip": "ym2612"
    },
    {
      "channel": 2,
      "note": 73,
      "start": 5.9142,
      "duration": 0.0127,
      "velocity": 97,
      "chip": "ym2612"
    },
    {
      "channel": 4,
      "note": 58,
      "start": 5.9197,
      "duration": 0.0127,
      "velocity": 88,
      "chip": "ym2612"
    },
    {
      "channel": 2,
      "note": 75,
      "start": 5.9297,
      "duration": 0.1012,
      "velocity": 97,
      "chip": "ym2612"
    },
    {
      "channel": 3,
      "note": 51,
      "start": 5.9357,
      "duration": 0.0181,
      "velocity": 88,
      "chip": "ym2612"
    },
    {
      "channel": 4,
      "note": 63,
      "start": 5.9362,
      "duration": 0.0137,
      "velocity": 88,
      "chip": "ym2612"
    },
    {
      "channel": 4,
      "note": 51,
      "start": 5.9543,
      "duration": 0.0122,
      "velocity": 88,
      "chip": "ym2612"
    },
    {
      "channel": 3,
      "note": 51,
      "start": 5.9721,
      "duration": 0.0185,
      "velocity": 88,
      "chip": "ym2612"
    },
    {
      "channel": 4,
      "note": 58,
      "start": 5.9726,
      "duration": 0.013,
      "velocity": 88,
      "chip": "ym2612"
    },
    {
      "channel": 4,
      "note": 63,
      "start": 5.991,
      "duration": 0.0124,
      "velocity": 88,
      "chip": "ym2612"
    },
    {
      "channel": 1,
      "note": 70,
      "start": 6.0059,
      "duration": 0.0662,
      "velocity": 97,
      "chip": "ym2612"
    },
    {
      "channel": 3,
      "note": 63,
      "start": 6.0065,
      "duration": 0.0168,
      "velocity": 88,
      "chip": "ym2612"
    },
    {
      "channel": 4,
      "note": 51,
      "start": 6.007,
      "duration": 0.0125,
      "velocity": 88,
      "chip": "ym2612"
    },
    {
      "channel": 4,
      "note": 58,
      "start": 6.0238,
      "duration": 0.0131,
      "velocity": 88,
      "chip": "ym2612"
    },
    {
      "channel": 2,
      "note": 70,
      "start": 6.0343,
      "duration": 0.0652,
      "velocity": 97,
      "chip": "ym2612"
    },
    {
      "channel": 3,
      "note": 51,
      "start": 6.041,
      "duration": 0.0185,
      "velocity": 88,
      "chip": "ym2612"
    },
    {
      "channel": 4,
      "note": 63,
      "start": 6.0415,
      "duration": 0.0125,
      "velocity": 88,
      "chip": "ym2612"
    },
    {
      "channel": 4,
      "note": 51,
      "start": 6.06,
      "duration": 0.0124,
      "velocity": 88,
      "chip": "ym2612"
    },
    {
      "channel": 1,
      "note": 73,
      "start": 6.075,
      "duration": 0.0298,
      "velocity": 97,
      "chip": "ym2612"
    },
    {
      "channel": 3,
      "note": 52,
      "start": 6.0756,
      "duration": 0.0153,
      "velocity": 88,
      "chip": "ym2612"
    },
    {
      "channel": 4,
      "note": 58,
      "start": 6.0761,
      "duration": 0.0124,
      "velocity": 88,
      "chip": "ym2612"
    },
    {
      "channel": 4,
      "note": 63,
      "start": 6.0914,
      "duration": 0.0137,
      "velocity": 88,
      "chip": "ym2612"
    },
    {
      "channel": 2,
      "note": 73,
      "start": 6.1024,
      "duration": 0.0307,
      "velocity": 97,
      "chip": "ym2612"
    },
    {
      "channel": 1,
      "note": 68,
      "start": 6.1077,
      "duration": 0.0307,
      "velocity": 97,
      "chip": "ym2612"
    },
    {
      "channel": 3,
      "note": 54,
      "start": 6.1083,
      "duration": 0.0154,
      "velocity": 88,
      "chip": "ym2612"
    },
    {
      "channel": 4,
      "note": 51,
      "start": 6.1088,
      "duration": 0.0123,
      "velocity": 88,
      "chip": "ym2612"
    },
    {
      "channel": 4,
      "note": 63,
      "start": 6.1241,
      "duration": 0.0146,
      "velocity": 88,
      "chip": "ym2612"
    },
    {
      "channel": 2,
      "note": 68,
      "start": 6.1359,
      "duration": 0.0303,
      "velocity": 97,
      "chip": "ym2612"
    },
    {
      "channel": 1,
      "note": 64,
      "start": 6.1415,
      "duration": 0.014,
      "velocity": 97,
      "chip": "ym2612"
    },
    {
      "channel": 3,
      "note": 52,
      "start": 6.1422,
      "duration": 0.0166,
      "velocity": 88,
      "chip": "ym2612"
    },
    {
      "channel": 4,
      "note": 52,
      "start": 6.1428,
      "duration": 0.0131,
      "velocity": 88,
      "chip": "ym2612"
    },
    {
      "channel": 1,
      "note": 68,
      "start": 6.1585,
      "duration": 0.0131,
      "velocity": 97,
      "chip": "ym2612"
    },
    {
      "channel": 4,
      "note": 59,
      "start": 6.1592,
      "duration": 0.0127,
      "velocity": 88,
      "chip": "ym2612"
    },
    {
      "channel": 2,
      "note": 64,
      "start": 6.1691,
      "duration": 0.0156,
      "velocity": 97,
      "chip": "ym2612"
    },
    {
      "channel": 1,
      "note": 71,
      "start": 6.1748,
      "duration": 0.0152,
      "velocity": 97,
      "chip": "ym2612"
    },
    {
      "channel": 3,
      "note": 52,
      "start": 6.1754,
      "duration": 0.0191,
      "velocity": 88,
      "chip": "ym2612"
    },
    {
      "channel": 4,
      "note": 64,
      "start": 6.1759,
      "duration": 0.0143,
      "velocity": 88,
      "chip": "ym2612"
    },
    {
      "channel": 2,
      "note": 68,
      "start": 6.1875,
      "duration": 0.0148,
      "velocity": 97,
      "chip": "ym2612"
    },
    {
      "channel": 1,
      "note": 76,
      "start": 6.1943,
      "duration": 0.0132,
      "velocity": 97,
      "chip": "ym2612"
    },
    {
      "channel": 4,
      "note": 52,
      "start": 6.195,
      "duration": 0.0128,
      "velocity": 88,
      "chip": "ym2612"
    },
    {
      "channel": 2,
      "note": 71,
      "start": 6.2051,
      "duration": 0.0154,
      "velocity": 97,
      "chip": "ym2612"
    },
    {
      "channel": 1,
      "note": 68,
      "start": 6.2113,
      "duration": 0.0144,
      "velocity": 97,
      "chip": "ym2612"
    },
    {
      "channel": 3,
      "note": 52,
      "start": 6.212,
      "duration": 0.0184,
      "velocity": 88,
      "chip": "ym2612"
    },
    {
      "channel": 4,
      "note": 59,
      "start": 6.2124,
      "duration": 0.0137,
      "velocity": 88,
      "chip": "ym2612"
    },
    {
      "channel": 2,
      "note": 76,
      "start": 6.2233,
      "duration": 0.0151,
      "velocity": 97,
      "chip": "ym2612"
    },
    {
      "channel": 1,
      "note": 71,
      "start": 6.2301,
      "duration": 0.0134,
      "velocity": 97,
      "chip": "ym2612"
    },
    {
      "channel": 4,
      "note": 64,
      "start": 6.2309,
      "duration": 0.0129,
      "velocity": 88,
      "chip": "ym2612"
    },
    {
      "channel": 2,
      "note": 68,
      "start": 6.2412,
      "duration": 0.0136,
      "velocity": 97,
      "chip": "ym2612"
    },
    {
      "channel": 1,
      "note": 76,
      "start": 6.2462,
      "duration": 0.0138,
      "velocity": 97,
      "chip": "ym2612"
    },
    {
      "channel": 3,
      "note": 64,
      "start": 6.2468,
      "duration": 0.0178,
      "velocity": 88,
      "chip": "ym2612"
    },
    {
      "channel": 4,
      "note": 52,
      "start": 6.2473,
      "duration": 0.013,
      "velocity": 88,
      "chip": "ym2612"
    },
    {
      "channel": 2,
      "note": 71,
      "start": 6.2576,
      "duration": 0.0146,
      "velocity": 97,
      "chip": "ym2612"
    },
    {
      "channel": 1,
      "note": 80,
      "start": 6.2644,
      "duration": 0.0134,
      "velocity": 97,
      "chip": "ym2612"
    },
    {
      "channel": 4,
      "note": 59,
      "start": 6.2651,
      "duration": 0.013,
      "velocity": 88,
      "chip": "ym2612"
    },
    {
      "channel": 2,
      "note": 76,
      "start": 6.2748,
      "duration": 0.0148,
      "velocity": 97,
      "chip": "ym2612"
    },
    {
      "channel": 1,
      "note": 71,
      "start": 6.281,
      "duration": 0.0139,
      "velocity": 97,
      "chip": "ym2612"
    },
    {
      "channel": 3,
      "note": 52,
      "start": 6.2815,
      "duration": 0.0185,
      "velocity": 88,
      "chip": "ym2612"
    },
    {
      "channel": 4,
      "note": 64,
      "start": 6.282,
      "duration": 0.0131,
      "velocity": 88,
      "chip": "ym2612"
    },
    {
      "channel": 2,
      "note": 80,
      "start": 6.2924,
      "duration": 0.0155,
      "velocity": 97,
      "chip": "ym2612"
    },
    {
      "channel": 1,
      "note": 76,
      "start": 6.2998,
      "duration": 0.0133,
      "velocity": 97,
      "chip": "ym2612"
    },
    {
      "channel": 4,
      "note": 52,
      "start": 6.3006,
      "duration": 0.0128,
      "velocity": 88,
      "chip": "ym2612"
    },
    {
      "channel": 2,
      "note": 71,
      "start": 6.3106,
      "duration": 0.0139,
      "velocity": 97,
      "chip": "ym2612"
    },
    {
      "channel": 1,
      "note": 80,
      "start": 6.316,
      "duration": 0.0139,
      "velocity": 97,
      "chip": "ym2612"
    },
    {
      "channel": 3,
      "note": 53,
      "start": 6.3165,
      "duration": 0.0194,
      "velocity": 88,
      "chip": "ym2612"
    },
    {
      "channel": 4,
      "note": 59,
      "start": 6.317,
      "duration": 0.0131,
      "velocity": 88,
      "chip": "ym2612"
    },
    {
      "channel": 2,
      "note": 76,
      "start": 6.3274,
      "duration": 0.0171,
      "velocity": 97,
      "chip": "ym2612"
    },
    {
      "channel": 1,
      "note": 83,
      "start": 6.3357,
      "duration": 0.014,
      "velocity": 97,
      "chip": "ym2612"
    },
    {
      "channel": 4,
      "note": 64,
      "start": 6.3365,
      "duration": 0.0135,
      "velocity": 88,
      "chip": "ym2612"
    },
    {
      "channel": 2,
      "note": 80,
      "start": 6.3472,
      "duration": 0.0171,
      "velocity": 97,
      "chip": "ym2612"
    },
    {
      "channel": 1,
      "note": 82,
      "start": 6.3544,
      "duration": 0.0151,
      "velocity": 97,
      "chip": "ym2612"
    },
    {
      "channel": 3,
      "note": 55,
      "start": 6.3549,
      "duration": 0.0175,
      "velocity": 88,
      "chip": "ym2612"
    },
    {
      "channel": 4,
      "note": 52,
      "start": 6.3554,
      "duration": 0.0144,
      "velocity": 88,
      "chip": "ym2612"
    },
    {
      "channel": 2,
      "note": 83,
      "start": 6.3671,
      "duration": 0.0133,
      "velocity": 97,
      "chip": "ym2612"
    },
    {
      "channel": 1,
      "note": 80,
      "start": 6.3723,
      "duration": 0.0134,
      "velocity": 97,
      "chip": "ym2612"
    },
    {
      "channel": 4,
      "note": 64,
      "start": 6.373,
      "duration": 0.013,
      "velocity": 88,
      "chip": "ym2612"
    },
    {
      "channel": 2,
      "note": 82,
      "start": 6.3832,
      "duration": 0.0159,
      "velocity": 97,
      "chip": "ym2612"
    },
    {
      "channel": 1,
      "note": 83,
      "start": 6.3886,
      "duration": 0.016,
      "velocity": 97,
      "chip": "ym2612"
    },
    {
      "channel": 3,
      "note": 52,
      "start": 6.3893,
      "duration": 0.0183,
      "velocity": 88,
      "chip": "ym2612"
    },
    {
      "channel": 4,
      "note": 52,
      "start": 6.3898,
      "duration": 0.0151,
      "velocity": 88,
      "chip": "ym2612"
    },
    {
      "channel": 2,
      "note": 80,
      "start": 6.4018,
      "duration": 0.0132,
      "velocity": 97,
      "chip": "ym2612"
    },
    {
      "channel": 1,
      "note": 80,
      "start": 6.4073,
      "duration": 0.0128,
      "velocity": 97,
      "chip": "ym2612"
    },
    {
      "channel": 4,
      "note": 59,
      "start": 6.408,
      "duration": 0.0124,
      "velocity": 88,
      "chip": "ym2612"
    },
    {
      "channel": 2,
      "note": 83,
      "start": 6.4179,
      "duration": 0.013,
      "velocity": 97,
      "chip": "ym2612"
    },
    {
      "channel": 1,
      "note": 82,
      "start": 6.4229,
      "duration": 0.013,
      "velocity": 97,
      "chip": "ym2612"
    },
    {
      "channel": 3,
      "note": 52,
      "start": 6.4234,
      "duration": 0.0154,
      "velocity": 88,
      "chip": "ym2612"
    },
    {
      "channel": 4,
      "note": 64,
      "start": 6.4239,
      "duration": 0.0122,
      "velocity": 88,
      "chip": "ym2612"
    },
    {
      "channel": 2,
      "note": 80,
      "start": 6.4336,
      "duration": 0.0128,
      "velocity": 97,
      "chip": "ym2612"
    },
    {
      "channel": 1,
      "note": 79,
      "start": 6.4386,
      "duration": 0.0127,
      "velocity": 97,
      "chip": "ym2612"
    },
    {
      "channel": 4,
      "note": 52,
      "start": 6.4393,
      "duration": 0.0123,
      "velocity": 88,
      "chip": "ym2612"
    },
    {
      "channel": 2,
      "note": 82,
      "start": 6.4491,
      "duration": 0.014,
      "velocity": 97,
      "chip": "ym2612"
    },
    {
      "channel": 1,
      "note": 81,
      "start": 6.4541,
      "duration": 0.0141,
      "velocity": 97,
      "chip": "ym2612"
    },
    {
      "channel": 3,
      "note": 52,
      "start": 6.4546,
      "duration": 0.0167,
      "velocity": 88,
      "chip": "ym2612"
    },
    {
      "channel": 4,
      "note": 59,
      "start": 6.4551,
      "duration": 0.0134,
      "velocity": 88,
      "chip": "ym2612"
    },
    {
      "channel": 2,
      "note": 79,
      "start": 6.4659,
      "duration": 0.0134,
      "velocity": 97,
      "chip": "ym2612"
    },
    {
      "channel": 1,
      "note": 78,
      "start": 6.4711,
      "duration": 0.0134,
      "velocity": 97,
      "chip": "ym2612"
    },
    {
      "channel": 4,
      "note": 64,
      "start": 6.4718,
      "duration": 0.013,
      "velocity": 88,
      "chip": "ym2612"
    },
    {
      "channel": 2,
      "note": 81,
      "start": 6.4821,
      "duration": 0.0138,
      "velocity": 97,
      "chip": "ym2612"
    },
    {
      "channel": 1,
      "note": 80,
      "start": 6.4873,
      "duration": 0.0138,
      "velocity": 97,
      "chip": "ym2612"
    },
    {
      "channel": 3,
      "note": 64,
      "start": 6.4879,
      "duration": 0.0163,
      "velocity": 88,
      "chip": "ym2612"
    },
    {
      "channel": 4,
      "note": 52,
      "start": 6.4884,
      "duration": 0.013,
      "velocity": 88,
      "chip": "ym2612"
    },
    {
      "channel": 2,
      "note": 78,
      "start": 6.4987,
      "duration": 0.0135,
      "velocity": 97,
      "chip": "ym2612"
    },
    {
      "channel": 1,
      "note": 77,
      "start": 6.504,
      "duration": 0.014,
      "velocity": 97,
      "chip": "ym2612"
    },
    {
      "channel": 4,
      "note": 59,
      "start": 6.5047,
      "duration": 0.0136,
      "velocity": 88,
      "chip": "ym2612"
    },
    {
      "channel": 2,
      "note": 80,
      "start": 6.515,
      "duration": 0.0148,
      "velocity": 97,
      "chip": "ym2612"
    },
    {
      "channel": 1,
      "note": 79,
      "start": 6.5209,
      "duration": 0.0144,
      "velocity": 97,
      "chip": "ym2612"
    },
    {
      "channel": 3,
      "note": 52,
      "start": 6.5215,
      "duration": 0.0171,
      "velocity": 88,
      "chip": "ym2612"
    },
    {
      "channel": 4,
      "note": 64,
      "start": 6.522,
      "duration": 0.0137,
      "velocity": 88,
      "chip": "ym2612"
    },
    {
      "channel": 2,
      "note": 77,
      "start": 6.5328,
      "duration": 0.0141,
      "velocity": 97,
      "chip": "ym2612"
    },
    {
      "channel": 1,
      "note": 76,
      "start": 6.5383,
      "duration": 0.014,
      "velocity": 97,
      "chip": "ym2612"
    },
    {
      "channel": 4,
      "note": 52,
      "start": 6.539,
      "duration": 0.0136,
      "velocity": 88,
      "chip": "ym2612"
    },
    {
      "channel": 2,
      "note": 79,
      "start": 6.5498,
      "duration": 0.0145,
      "velocity": 97,
      "chip": "ym2612"
    },
    {
      "channel": 1,
      "note": 78,
      "start": 6.5554,
      "duration": 0.0144,
      "velocity": 97,
      "chip": "ym2612"
    },
    {
      "channel": 3,
      "note": 53,
      "start": 6.556,
      "duration": 0.0171,
      "velocity": 88,
      "chip": "ym2612"
    },
    {
      "channel": 4,
      "note": 59,
      "start": 6.5565,
      "duration": 0.0136,
      "velocity": 88,
      "chip": "ym2612"
    },
    {
      "channel": 2,
      "note": 76,
      "start": 6.5673,
      "duration": 0.0146,
      "velocity": 97,
      "chip": "ym2612"
    },
    {
      "channel": 1,
      "note": 75,
      "start": 6.5728,
      "duration": 0.0145,
      "velocity": 97,
      "chip": "ym2612"
    },
    {
      "channel": 4,
      "note": 64,
      "start": 6.5736,
      "duration": 0.014,
      "velocity": 88,
      "chip": "ym2612"
    },
    {
      "channel": 2,
      "note": 78,
      "start": 6.5848,
      "duration": 0.0174,
      "velocity": 97,
      "chip": "ym2612"
    },
    {
      "channel": 1,
      "note": 77,
      "start": 6.5922,
      "duration": 0.0152,
      "velocity": 97,
      "chip": "ym2612"
    },
    {
      "channel": 3,
      "note": 55,
      "start": 6.5927,
      "duration": 0.0176,
      "velocity": 88,
      "chip": "ym2612"
    },
    {
      "channel": 4,
      "note": 52,
      "start": 6.5932,
      "duration": 0.0144,
      "velocity": 88,
      "chip": "ym2612"
    },
    {
      "channel": 2,
      "note": 75,
      "start": 6.605,
      "duration": 0.0134,
      "velocity": 97,
      "chip": "ym2612"
    },
    {
      "channel": 1,
      "note": 74,
      "start": 6.6101,
      "duration": 0.0135,
      "velocity": 97,
      "chip": "ym2612"
    },
    {
      "channel": 4,
      "note": 64,
      "start": 6.6108,
      "duration": 0.0131,
      "velocity": 88,
      "chip": "ym2612"
    },
    {
      "channel": 2,
      "note": 77,
      "start": 6.6212,
      "duration": 0.0176,
      "velocity": 97,
      "chip": "ym2612"
    },
    {
      "channel": 1,
      "note": 63,
      "start": 6.6299,
      "duration": 0.0147,
      "velocity": 97,
      "chip": "ym2612"
    },
    {
      "channel": 3,
      "note": 51,
      "start": 6.6306,
      "duration": 0.0171,
      "velocity": 88,
      "chip": "ym2612"
    },
    {
      "channel": 4,
      "note": 51,
      "start": 6.6312,
      "duration": 0.0137,
      "velocity": 88,
      "chip": "ym2612"
    },
    {
      "channel": 2,
      "note": 74,
      "start": 6.6416,
      "duration": 0.0138,
      "velocity": 97,
      "chip": "ym2612"
    },
    {
      "channel": 1,
      "note": 64,
      "start": 6.6474,
      "duration": 0.0132,
      "velocity": 97,
      "chip": "ym2612"
    },
    {
      "channel": 4,
      "note": 58,
      "start": 6.6482,
      "duration": 0.0128,
      "velocity": 88,
      "chip": "ym2612"
    },
    {
      "channel": 2,
      "note": 63,
      "start": 6.6583,
      "duration": 0.0152,
      "velocity": 97,
      "chip": "ym2612"
    },
    {
      "channel": 1,
      "note": 69,
      "start": 6.6636,
      "duration": 0.0149,
      "velocity": 97,
      "chip": "ym2612"
    },
    {
      "channel": 3,
      "note": 51,
      "start": 6.6642,
      "duration": 0.019,
      "velocity": 88,
      "chip": "ym2612"
    },
    {
      "channel": 4,
      "note": 63,
      "start": 6.6647,
      "duration": 0.0141,
      "velocity": 88,
      "chip": "ym2612"
    },
    {
      "channel": 2,
      "note": 64,
      "start": 6.6761,
      "duration": 0.0145,
      "velocity": 97,
      "chip": "ym2612"
    },
    {
      "channel": 1,
      "note": 70,
      "start": 6.6829,
      "duration": 0.013,
      "velocity": 97,
      "chip": "ym2612"
    },
    {
      "channel": 4,
      "note": 51,
      "start": 6.6836,
      "duration": 0.0126,
      "velocity": 88,
      "chip": "ym2612"
    },
    {
      "channel": 2,
      "note": 69,
      "start": 6.6935,
      "duration": 0.0154,
      "velocity": 97,
      "chip": "ym2612"
    },
    {
      "channel": 1,
      "note": 65,
      "start": 6.6999,
      "duration": 0.0142,
      "velocity": 97,
      "chip": "ym2612"
    },
    {
      "channel": 3,
      "note": 51,
      "start": 6.7005,
      "duration": 0.0181,
      "velocity": 88,
      "chip": "ym2612"
    },
    {
      "channel": 4,
      "note": 58,
      "start": 6.701,
      "duration": 0.0134,
      "velocity": 88,
      "chip": "ym2612"
    },
    {
      "channel": 2,
      "note": 70,
      "start": 6.7117,
      "duration": 0.0148,
      "velocity": 97,
      "chip": "ym2612"
    },
    {
      "channel": 1,
      "note": 66,
      "start": 6.7184,
      "duration": 0.0134,
      "velocity": 97,
      "chip": "ym2612"
    },
    {
      "channel": 4,
      "note": 63,
      "start": 6.719,
      "duration": 0.013,
      "velocity": 88,
      "chip": "ym2612"
    },
    {
      "channel": 2,
      "note": 65,
      "start": 6.7294,
      "duration": 0.0138,
      "velocity": 97,
      "chip": "ym2612"
    },
    {
      "channel": 1,
      "note": 71,
      "start": 6.7345,
      "duration": 0.0139,
      "velocity": 97,
      "chip": "ym2612"
    },
    {
      "channel": 3,
      "note": 63,
      "start": 6.7351,
      "duration": 0.018,
      "velocity": 88,
      "chip": "ym2612"
    },
    {
      "channel": 4,
      "note": 51,
      "start": 6.7356,
      "duration": 0.0132,
      "velocity": 88,
      "chip": "ym2612"
    },
    {
      "channel": 2,
      "note": 66,
      "start": 6.746,
      "duration": 0.0147,
      "velocity": 97,
      "chip": "ym2612"
    },
    {
      "channel": 1,
      "note": 72,
      "start": 6.7528,
      "duration": 0.0129,
      "velocity": 97,
      "chip": "ym2612"
    },
    {
      "channel": 4,
      "note": 58,
      "start": 6.7535,
      "duration": 0.0125,
      "velocity": 88,
      "chip": "ym2612"
    },
    {
      "channel": 2,
      "note": 71,
      "start": 6.7634,
      "duration": 0.0146,
      "velocity": 97,
      "chip": "ym2612"
    },
    {
      "channel": 1,
      "note": 68,
      "start": 6.7694,
      "duration": 0.0137,
      "velocity": 97,
      "chip": "ym2612"
    },
    {
      "channel": 3,
      "note": 51,
      "start": 6.77,
      "duration": 0.0184,
      "velocity": 88,
      "chip": "ym2612"
    },
    {
      "channel": 4,
      "note": 63,
      "start": 6.7705,
      "duration": 0.0129,
      "velocity": 88,
      "chip": "ym2612"
    },
    {
      "channel": 2,
      "note": 72,
      "start": 6.7808,
      "duration": 0.0157,
      "velocity": 97,
      "chip": "ym2612"
    },
    {
      "channel": 1,
      "note": 69,
      "start": 6.7882,
      "duration": 0.0134,
      "velocity": 97,
      "chip": "ym2612"
    },
    {
      "channel": 4,
      "note": 51,
      "start": 6.7889,
      "duration": 0.013,
      "velocity": 88,
      "chip": "ym2612"
    },
    {
      "channel": 2,
      "note": 68,
      "start": 6.7991,
      "duration": 0.0139,
      "velocity": 97,
      "chip": "ym2612"
    },
    {
      "channel": 1,
      "note": 74,
      "start": 6.8044,
      "duration": 0.0139,
      "velocity": 97,
      "chip": "ym2612"
    },
    {
      "channel": 3,
      "note": 52,
      "start": 6.805,
      "duration": 0.0194,
      "velocity": 88,
      "chip": "ym2612"
    },
    {
      "channel": 4,
      "note": 58,
      "start": 6.8055,
      "duration": 0.0131,
      "velocity": 88,
      "chip": "ym2612"
    },
    {
      "channel": 2,
      "note": 69,
      "start": 6.8158,
      "duration": 0.0168,
      "velocity": 97,
      "chip": "ym2612"
    },
    {
      "channel": 1,
      "note": 75,
      "start": 6.8242,
      "duration": 0.0137,
      "velocity": 97,
      "chip": "ym2612"
    },
    {
      "channel": 4,
      "note": 63,
      "start": 6.8249,
      "duration": 0.0133,
      "velocity": 88,
      "chip": "ym2612"
    },
    {
      "channel": 2,
      "note": 74,
      "start": 6.8355,
      "duration": 0.0172,
      "velocity": 97,
      "chip": "ym2612"
    },
    {
      "channel": 1,
      "note": 70,
      "start": 6.8426,
      "duration": 0.0152,
      "velocity": 97,
      "chip": "ym2612"
    },
    {
      "channel": 3,
      "note": 54,
      "start": 6.8432,
      "duration": 0.0178,
      "velocity": 88,
      "chip": "ym2612"
    },
    {
      "channel": 4,
      "note": 51,
      "start": 6.8437,
      "duration": 0.0145,
      "velocity": 88,
      "chip": "ym2612"
    },
    {
      "channel": 2,
      "note": 75,
      "start": 6.8554,
      "duration": 0.0134,
      "velocity": 97,
      "chip": "ym2612"
    },
    {
      "channel": 1,
      "note": 71,
      "start": 6.8607,
      "duration": 0.0134,
      "velocity": 97,
      "chip": "ym2612"
    },
    {
      "channel": 4,
      "note": 63,
      "start": 6.8614,
      "duration": 0.013,
      "velocity": 88,
      "chip": "ym2612"
    },
    {
      "channel": 2,
      "note": 70,
      "start": 6.8716,
      "duration": 0.0177,
      "velocity": 97,
      "chip": "ym2612"
    },
    {
      "channel": 1,
      "note": 68,
      "start": 6.8804,
      "duration": 0.014,
      "velocity": 97,
      "chip": "ym2612"
    },
    {
      "channel": 3,
      "note": 51,
      "start": 6.8811,
      "duration": 0.017,
      "velocity": 88,
      "chip": "ym2612"
    },
    {
      "channel": 4,
      "note": 51,
      "start": 6.8817,
      "duration": 0.013,
      "velocity": 88,
      "chip": "ym2612"
    },
    {
      "channel": 2,
      "note": 71,
      "start": 6.8921,
      "duration": 0.0136,
      "velocity": 97,
      "chip": "ym2612"
    },
    {
      "channel": 1,
      "note": 69,
      "start": 6.8978,
      "duration": 0.0132,
      "velocity": 97,
      "chip": "ym2612"
    },
    {
      "channel": 4,
      "note": 58,
      "start": 6.8986,
      "duration": 0.0127,
      "velocity": 88,
      "chip": "ym2612"
    },
    {
      "channel": 2,
      "note": 68,
      "start": 6.9086,
      "duration": 0.0153,
      "velocity": 97,
      "chip": "ym2612"
    },
    {
      "channel": 1,
      "note": 74,
      "start": 6.9138,
      "duration": 0.0151,
      "velocity": 97,
      "chip": "ym2612"
    },
    {
      "channel": 3,
      "note": 51,
      "start": 6.9144,
      "duration": 0.019,
      "velocity": 88,
      "chip": "ym2612"
    },
    {
      "channel": 4,
      "note": 63,
      "start": 6.9149,
      "duration": 0.0144,
      "velocity": 88,
      "chip": "ym2612"
    },
    {
      "channel": 2,
      "note": 69,
      "start": 6.9266,
      "duration": 0.0145,
      "velocity": 97,
      "chip": "ym2612"
    },
    {
      "channel": 1,
      "note": 75,
      "start": 6.9333,
      "duration": 0.013,
      "velocity": 97,
      "chip": "ym2612"
    },
    {
      "channel": 4,
      "note": 51,
      "start": 6.934,
      "duration": 0.0127,
      "velocity": 88,
      "chip": "ym2612"
    },
    {
      "channel": 2,
      "note": 74,
      "start": 6.9438,
      "duration": 0.0155,
      "velocity": 97,
      "chip": "ym2612"
    },
    {
      "channel": 1,
      "note": 70,
      "start": 6.9502,
      "duration": 0.0144,
      "velocity": 97,
      "chip": "ym2612"
    },
    {
      "channel": 3,
      "note": 51,
      "start": 6.9508,
      "duration": 0.0184,
      "velocity": 88,
      "chip": "ym2612"
    },
    {
      "channel": 4,
      "note": 58,
      "start": 6.9513,
      "duration": 0.0135,
      "velocity": 88,
      "chip": "ym2612"
    },
    {
      "channel": 2,
      "note": 75,
      "start": 6.9621,
      "duration": 0.015,
      "velocity": 97,
      "chip": "ym2612"
    },
    {
      "channel": 1,
      "note": 71,
      "start": 6.9689,
      "duration": 0.0134,
      "velocity": 97,
      "chip": "ym2612"
    },
    {
      "channel": 4,
      "note": 63,
      "start": 6.9696,
      "duration": 0.013,
      "velocity": 88,
      "chip": "ym2612"
    },
    {
      "channel": 2,
      "note": 70,
      "start": 6.98,
      "duration": 0.0137,
      "velocity": 97,
      "chip": "ym2612"
    },
    {
      "channel": 1,
      "note": 76,
      "start": 6.9853,
      "duration": 0.0136,
      "velocity": 97,
      "chip": "ym2612"
    },
    {
      "channel": 3,
      "note": 63,
      "start": 6.9859,
      "duration": 0.0176,
      "velocity": 88,
      "chip": "ym2612"
    },
    {
      "channel": 4,
      "note": 51,
      "start": 6.9863,
      "duration": 0.0128,
      "velocity": 88,
      "chip": "ym2612"
    },
    {
      "channel": 2,
      "note": 71,
      "start": 6.9964,
      "duration": 0.0148,
      "velocity": 97,
      "chip": "ym2612"
    },
    {
      "channel": 1,
      "note": 77,
      "start": 7.0032,
      "duration": 0.0131,
      "velocity": 97,
      "chip": "ym2612"
    },
    {
      "channel": 4,
      "note": 58,
      "start": 7.0039,
      "duration": 0.0126,
      "velocity": 88,
      "chip": "ym2612"
    },
    {
      "channel": 2,
      "note": 76,
      "start": 7.014,
      "duration": 0.0151,
      "velocity": 97,
      "chip": "ym2612"
    },
    {
      "channel": 1,
      "note": 72,
      "start": 7.0205,
      "duration": 0.0139,
      "velocity": 97,
      "chip": "ym2612"
    },
    {
      "channel": 3,
      "note": 51,
      "start": 7.021,
      "duration": 0.0181,
      "velocity": 88,
      "chip": "ym2612"
    },
    {
      "channel": 4,
      "note": 63,
      "start": 7.0215,
      "duration": 0.0131,
      "velocity": 88,
      "chip": "ym2612"
    },
    {
      "channel": 2,
      "note": 77,
      "start": 7.0319,
      "duration": 0.0153,
      "velocity": 97,
      "chip": "ym2612"
    },
    {
      "channel": 1,
      "note": 73,
      "start": 7.0389,
      "duration": 0.0134,
      "velocity": 97,
      "chip": "ym2612"
    },
    {
      "channel": 4,
      "note": 51,
      "start": 7.0396,
      "duration": 0.0129,
      "velocity": 88,
      "chip": "ym2612"
    },
    {
      "channel": 2,
      "note": 72,
      "start": 7.0498,
      "duration": 0.0138,
      "velocity": 97,
      "chip": "ym2612"
    },
    {
      "channel": 1,
      "note": 78,
      "start": 7.0551,
      "duration": 0.0137,
      "velocity": 97,
      "chip": "ym2612"
    },
    {
      "channel": 3,
      "note": 52,
      "start": 7.0557,
      "duration": 0.0193,
      "velocity": 88,
      "chip": "ym2612"
    },
    {
      "channel": 4,
      "note": 58,
      "start": 7.0562,
      "duration": 0.013,
      "velocity": 88,
      "chip": "ym2612"
    },
    {
      "channel": 2,
      "note": 73,
      "start": 7.0665,
      "duration": 0.0172,
      "velocity": 97,
      "chip": "ym2612"
    },
    {
      "channel": 1,
      "note": 79,
      "start": 7.0747,
      "duration": 0.0141,
      "velocity": 97,
      "chip": "ym2612"
    },
    {
      "channel": 4,
      "note": 63,
      "start": 7.0755,
      "duration": 0.0137,
      "velocity": 88,
      "chip": "ym2612"
    },
    {
      "channel": 2,
      "note": 78,
      "start": 7.0865,
      "duration": 0.017,
      "velocity": 97,
      "chip": "ym2612"
    },
    {
      "channel": 1,
      "note": 74,
      "start": 7.0935,
      "duration": 0.0151,
      "velocity": 97,
      "chip": "ym2612"
    },
    {
      "channel": 3,
      "note": 54,
      "start": 7.0941,
      "duration": 0.0177,
      "velocity": 88,
      "chip": "ym2612"
    },
    {
      "channel": 4,
      "note": 51,
      "start": 7.0946,
      "duration": 0.0144,
      "velocity": 88,
      "chip": "ym2612"
    },
    {
      "channel": 2,
      "note": 79,
      "start": 7.1063,
      "duration": 0.0133,
      "velocity": 97,
      "chip": "ym2612"
    },
    {
      "channel": 1,
      "note": 75,
      "start": 7.1116,
      "duration": 0.0131,
      "velocity": 97,
      "chip": "ym2612"
    },
    {
      "channel": 4,
      "note": 63,
      "start": 7.1123,
      "duration": 0.0127,
      "velocity": 88,
      "chip": "ym2612"
    },
    {
      "channel": 2,
      "note": 74,
      "start": 7.1223,
      "duration": 0.0176,
      "velocity": 97,
      "chip": "ym2612"
    },
    {
      "channel": 1,
      "note": 83,
      "start": 7.131,
      "duration": 0.014,
      "velocity": 97,
      "chip": "ym2612"
    },
    {
      "channel": 3,
      "note": 52,
      "start": 7.1317,
      "duration": 0.0171,
      "velocity": 88,
      "chip": "ym2612"
    },
    {
      "channel": 4,
      "note": 52,
      "start": 7.1323,
      "duration": 0.0131,
      "velocity": 88,
      "chip": "ym2612"
    },
    {
      "channel": 2,
      "note": 75,
      "start": 7.1426,
      "duration": 0.0137,
      "velocity": 97,
      "chip": "ym2612"
    },
    {
      "channel": 1,
      "note": 85,
      "start": 7.1485,
      "duration": 0.0132,
      "velocity": 97,
      "chip": "ym2612"
    },
    {
      "channel": 4,
      "note": 59,
      "start": 7.1493,
      "duration": 0.0127,
      "velocity": 88,
      "chip": "ym2612"
    },
    {
      "channel": 2,
      "note": 83,
      "start": 7.1593,
      "duration": 0.0152,
      "velocity": 97,
      "chip": "ym2612"
    },
    {
      "channel": 1,
      "note": 83,
      "start": 7.1646,
      "duration": 0.015,
      "velocity": 97,
      "chip": "ym2612"
    },
    {
      "channel": 3,
      "note": 52,
      "start": 7.1651,
      "duration": 0.019,
      "velocity": 88,
      "chip": "ym2612"
    },
    {
      "channel": 4,
      "note": 64,
      "start": 7.1656,
      "duration": 0.0143,
      "velocity": 88,
      "chip": "ym2612"
    },
    {
      "channel": 2,
      "note": 85,
      "start": 7.1772,
      "duration": 0.0146,
      "velocity": 97,
      "chip": "ym2612"
    },
    {
      "channel": 1,
      "note": 82,
      "start": 7.184,
      "duration": 0.013,
      "velocity": 97,
      "chip": "ym2612"
    },
    {
      "channel": 4,
      "note": 52,
      "start": 7.1847,
      "duration": 0.0127,
      "velocity": 88,
      "chip": "ym2612"
    },
    {
      "channel": 2,
      "note": 83,
      "start": 7.1946,
      "duration": 0.0148,
      "velocity": 97,
      "chip": "ym2612"
    },
    {
      "channel": 1,
      "note": 80,
      "start": 7.201,
      "duration": 0.0142,
      "velocity": 97,
      "chip": "ym2612"
    },
    {
      "channel": 3,
      "note": 52,
      "start": 7.2016,
      "duration": 0.0182,
      "velocity": 88,
      "chip": "ym2612"
    },
    {
      "channel": 4,
      "note": 59,
      "start": 7.2021,
      "duration": 0.0134,
      "velocity": 88,
      "chip": "ym2612"
    },
    {
      "channel": 2,
      "note": 82,
      "start": 7.2128,
      "duration": 0.0151,
      "velocity": 97,
      "chip": "ym2612"
    },
    {
      "channel": 1,
      "note": 79,
      "start": 7.2196,
      "duration": 0.0135,
      "velocity": 97,
      "chip": "ym2612"
    },
    {
      "channel": 4,
      "note": 64,
      "start": 7.2203,
      "duration": 0.0131,
      "velocity": 88,
      "chip": "ym2612"
    },
    {
      "channel": 2,
      "note": 80,
      "start": 7.2307,
      "duration": 0.0137,
      "velocity": 97,
      "chip": "ym2612"
    },
    {
      "channel": 1,
      "note": 80,
      "start": 7.236,
      "duration": 0.0135,
      "velocity": 97,
      "chip": "ym2612"
    },
    {
      "channel": 3,
      "note": 64,
      "start": 7.2366,
      "duration": 0.0175,
      "velocity": 88,
      "chip": "ym2612"
    },
    {
      "channel": 4,
      "note": 52,
      "start": 7.2371,
      "duration": 0.0127,
      "velocity": 88,
      "chip": "ym2612"
    },
    {
      "channel": 2,
      "note": 79,
      "start": 7.2472,
      "duration": 0.0146,
      "velocity": 97,
      "chip": "ym2612"
    },
    {
      "channel": 1,
      "note": 82,
      "start": 7.2539,
      "duration": 0.013,
      "velocity": 97,
      "chip": "ym2612"
    },
    {
      "channel": 4,
      "note": 59,
      "start": 7.2546,
      "duration": 0.0126,
      "velocity": 88,
      "chip": "ym2612"
    },
    {
      "channel": 2,
      "note": 80,
      "start": 7.2645,
      "duration": 0.0152,
      "velocity": 97,
      "chip": "ym2612"
    },
    {
      "channel": 1,
      "note": 83,
      "start": 7.2706,
      "duration": 0.0143,
      "velocity": 97,
      "chip": "ym2612"
    },
    {
      "channel": 3,
      "note": 52,
      "start": 7.2712,
      "duration": 0.0183,
      "velocity": 88,
      "chip": "ym2612"
    },
    {
      "channel": 4,
      "note": 64,
      "start": 7.2717,
      "duration": 0.0135,
      "velocity": 88,
      "chip": "ym2612"
    },
    {
      "channel": 2,
      "note": 82,
      "start": 7.2826,
      "duration": 0.015,
      "velocity": 97,
      "chip": "ym2612"
    },
    {
      "channel": 1,
      "note": 82,
      "start": 7.2894,
      "duration": 0.0132,
      "velocity": 97,
      "chip": "ym2612"
    },
    {
      "channel": 4,
      "note": 52,
      "start": 7.2901,
      "duration": 0.0128,
      "velocity": 88,
      "chip": "ym2612"
    },
    {
      "channel": 2,
      "note": 83,
      "start": 7.3004,
      "duration": 0.0137,
      "velocity": 97,
      "chip": "ym2612"
    },
    {
      "channel": 1,
      "note": 80,
      "start": 7.3055,
      "duration": 0.0137,
      "velocity": 97,
      "chip": "ym2612"
    },
    {
      "channel": 3,
      "note": 53,
      "start": 7.306,
      "duration": 0.0193,
      "velocity": 88,
      "chip": "ym2612"
    },
    {
      "channel": 4,
      "note": 59,
      "start": 7.3065,
      "duration": 0.013,
      "velocity": 88,
      "chip": "ym2612"
    },
    {
      "channel": 2,
      "note": 82,
      "start": 7.3168,
      "duration": 0.0166,
      "velocity": 97,
      "chip": "ym2612"
    },
    {
      "channel": 1,
      "note": 79,
      "start": 7.3251,
      "duration": 0.0139,
      "velocity": 97,
      "chip": "ym2612"
    },
    {
      "channel": 4,
      "note": 64,
      "start": 7.3258,
      "duration": 0.0135,
      "velocity": 88,
      "chip": "ym2612"
    },
    {
      "channel": 2,
      "note": 80,
      "start": 7.3367,
      "duration": 0.0171,
      "velocity": 97,
      "chip": "ym2612"
    },
    {
      "channel": 1,
      "note": 76,
      "start": 7.3437,
      "duration": 0.0153,
      "velocity": 97,
      "chip": "ym2612"
    },
    {
      "channel": 3,
      "note": 55,
      "start": 7.3442,
      "duration": 0.0178,
      "velocity": 88,
      "chip": "ym2612"
    },
    {
      "channel": 4,
      "note": 52,
      "start": 7.3447,
      "duration": 0.0145,
      "velocity": 88,
      "chip": "ym2612"
    },
    {
      "channel": 2,
      "note": 79,
      "start": 7.3566,
      "duration": 0.0134,
      "velocity": 97,
      "chip": "ym2612"
    },
    {
      "channel": 1,
      "note": 75,
      "start": 7.3618,
      "duration": 0.0133,
      "velocity": 97,
      "chip": "ym2612"
    },
    {
      "channel": 4,
      "note": 64,
      "start": 7.3626,
      "duration": 0.0129,
      "velocity": 88,
      "chip": "ym2612"
    },
    {
      "channel": 2,
      "note": 76,
      "start": 7.3727,
      "duration": 0.0137,
      "velocity": 97,
      "chip": "ym2612"
    },
    {
      "channel": 1,
      "note": 73,
      "start": 7.3781,
      "duration": 0.0134,
      "velocity": 97,
      "chip": "ym2612"
    },
    {
      "channel": 3,
      "note": 52,
      "start": 7.3788,
      "duration": 0.0156,
      "velocity": 88,
      "chip": "ym2612"
    },
    {
      "channel": 4,
      "note": 52,
      "start": 7.3793,
      "duration": 0.0124,
      "velocity": 88,
      "chip": "ym2612"
    },
    {
      "channel": 2,
      "note": 75,
      "start": 7.3891,
      "duration": 0.0133,
      "velocity": 97,
      "chip": "ym2612"
    },
    {
      "channel": 1,
      "note": 75,
      "start": 7.3941,
      "duration": 0.0133,
      "velocity": 97,
      "chip": "ym2612"
    },
    {
      "channel": 4,
      "note": 59,
      "start": 7.3948,
      "duration": 0.0129,
      "velocity": 88,
      "chip": "ym2612"
    },
    {
      "channel": 2,
      "note": 73,
      "start": 7.4052,
      "duration": 0.0131,
      "velocity": 97,
      "chip": "ym2612"
    },
    {
      "channel": 1,
      "note": 76,
      "start": 7.4102,
      "duration": 0.013,
      "velocity": 97,
      "chip": "ym2612"
    },
    {
      "channel": 3,
      "note": 52,
      "start": 7.4108,
      "duration": 0.0154,
      "velocity": 88,
      "chip": "ym2612"
    },
    {
      "channel": 4,
      "note": 64,
      "start": 7.4113,
      "duration": 0.0122,
      "velocity": 88,
      "chip": "ym2612"
    },
    {
      "channel": 2,
      "note": 75,
      "start": 7.421,
      "duration": 0.0127,
      "velocity": 97,
      "chip": "ym2612"
    },
    {
      "channel": 1,
      "note": 78,
      "start": 7.4259,
      "duration": 0.0127,
      "velocity": 97,
      "chip": "ym2612"
    },
    {
      "channel": 4,
      "note": 52,
      "start": 7.4266,
      "duration": 0.0123,
      "velocity": 88,
      "chip": "ym2612"
    },
    {
      "channel": 2,
      "note": 76,
      "start": 7.4363,
      "duration": 0.0136,
      "velocity": 97,
      "chip": "ym2612"
    },
    {
      "channel": 1,
      "note": 76,
      "start": 7.4414,
      "duration": 0.0144,
      "velocity": 97,
      "chip": "ym2612"
    },
    {
      "channel": 3,
      "note": 52,
      "start": 7.4419,
      "duration": 0.017,
      "velocity": 88,
      "chip": "ym2612"
    },
    {
      "channel": 4,
      "note": 59,
      "start": 7.4424,
      "duration": 0.0136,
      "velocity": 88,
      "chip": "ym2612"
    },
    {
      "channel": 2,
      "note": 78,
      "start": 7.4534,
      "duration": 0.0135,
      "velocity": 97,
      "chip": "ym2612"
    },
    {
      "channel": 1,
      "note": 75,
      "start": 7.4586,
      "duration": 0.0134,
      "velocity": 97,
      "chip": "ym2612"
    },
    {
      "channel": 4,
      "note": 64,
      "start": 7.4593,
      "duration": 0.013,
      "velocity": 88,
      "chip": "ym2612"
    },
    {
      "channel": 2,
      "note": 76,
      "start": 7.4697,
      "duration": 0.0137,
      "velocity": 97,
      "chip": "ym2612"
    },
    {
      "channel": 1,
      "note": 73,
      "start": 7.475,
      "duration": 0.0137,
      "velocity": 97,
      "chip": "ym2612"
    },
    {
      "channel": 3,
      "note": 64,
      "start": 7.4755,
      "duration": 0.0163,
      "velocity": 88,
      "chip": "ym2612"
    },
    {
      "channel": 4,
      "note": 52,
      "start": 7.4761,
      "duration": 0.0129,
      "velocity": 88,
      "chip": "ym2612"
    },
    {
      "channel": 2,
      "note": 75,
      "start": 7.4863,
      "duration": 0.0136,
      "velocity": 97,
      "chip": "ym2612"
    },
    {
      "channel": 1,
      "note": 75,
      "start": 7.4915,
      "duration": 0.0135,
      "velocity": 97,
      "chip": "ym2612"
    },
    {
      "channel": 4,
      "note": 59,
      "start": 7.4922,
      "duration": 0.0131,
      "velocity": 88,
      "chip": "ym2612"
    },
    {
      "channel": 2,
      "note": 73,
      "start": 7.5027,
      "duration": 0.0149,
      "velocity": 97,
      "chip": "ym2612"
    },
    {
      "channel": 1,
      "note": 76,
      "start": 7.508,
      "duration": 0.0151,
      "velocity": 97,
      "chip": "ym2612"
    },
    {
      "channel": 3,
      "note": 52,
      "start": 7.5086,
      "duration": 0.0178,
      "velocity": 88,
      "chip": "ym2612"
    },
    {
      "channel": 4,
      "note": 64,
      "start": 7.5091,
      "duration": 0.0143,
      "velocity": 88,
      "chip": "ym2612"
    },
    {
      "channel": 2,
      "note": 75,
      "start": 7.5205,
      "duration": 0.0141,
      "velocity": 97,
      "chip": "ym2612"
    },
    {
      "channel": 1,
      "note": 78,
      "start": 7.5261,
      "duration": 0.0138,
      "velocity": 97,
      "chip": "ym2612"
    },
    {
      "channel": 4,
      "note": 52,
      "start": 7.5268,
      "duration": 0.0134,
      "velocity": 88,
      "chip": "ym2612"
    },
    {
      "channel": 2,
      "note": 76,
      "start": 7.5376,
      "duration": 0.0142,
      "velocity": 97,
      "chip": "ym2612"
    },
    {
      "channel": 1,
      "note": 79,
      "start": 7.543,
      "duration": 0.0144,
      "velocity": 97,
      "chip": "ym2612"
    },
    {
      "channel": 3,
      "note": 53,
      "start": 7.5435,
      "duration": 0.0171,
      "velocity": 88,
      "chip": "ym2612"
    },
    {
      "channel": 4,
      "note": 59,
      "start": 7.544,
      "duration": 0.0137,
      "velocity": 88,
      "chip": "ym2612"
    },
    {
      "channel": 2,
      "note": 78,
      "start": 7.5549,
      "duration": 0.0142,
      "velocity": 97,
      "chip": "ym2612"
    },
    {
      "channel": 1,
      "note": 80,
      "start": 7.5604,
      "duration": 0.0146,
      "velocity": 97,
      "chip": "ym2612"
    },
    {
      "channel": 4,
      "note": 64,
      "start": 7.5611,
      "duration": 0.0143,
      "velocity": 88,
      "chip": "ym2612"
    },
    {
      "channel": 2,
      "note": 79,
      "start": 7.5726,
      "duration": 0.0171,
      "velocity": 97,
      "chip": "ym2612"
    },
    {
      "channel": 1,
      "note": 82,
      "start": 7.5797,
      "duration": 0.0152,
      "velocity": 97,
      "chip": "ym2612"
    },
    {
      "channel": 3,
      "note": 55,
      "start": 7.5803,
      "duration": 0.0177,
      "velocity": 88,
      "chip": "ym2612"
    },
    {
      "channel": 4,
      "note": 52,
      "start": 7.5808,
      "duration": 0.0144,
      "velocity": 88,
      "chip": "ym2612"
    },
    {
      "channel": 2,
      "note": 80,
      "start": 7.5925,
      "duration": 0.0133,
      "velocity": 97,
      "chip": "ym2612"
    },
    {
      "channel": 1,
      "note": 83,
      "start": 7.5978,
      "duration": 0.0133,
      "velocity": 97,
      "chip": "ym2612"
    },
    {
      "channel": 4,
      "note": 64,
      "start": 7.5985,
      "duration": 0.013,
      "velocity": 88,
      "chip": "ym2612"
    },
    {
      "channel": 2,
      "note": 82,
      "start": 7.6086,
      "duration": 0.0026,
      "velocity": 97,
      "chip": "ym2612"
    },
    {
      "channel": 1,
      "note": 80,
      "start": 7.6195,
      "duration": 0.0748,
      "velocity": 102,
      "chip": "ym2612"
    },
    {
      "channel": 2,
      "note": 75,
      "start": 7.6222,
      "duration": 0.0723,
      "velocity": 102,
      "chip": "ym2612"
    },
    {
      "channel": 3,
      "note": 56,
      "start": 7.6248,
      "duration": 0.0185,
      "velocity": 88,
      "chip": "ym2612"
    },
    {
      "channel": 4,
      "note": 68,
      "start": 7.6275,
      "duration": 0.0133,
      "velocity": 121,
      "chip": "ym2612"
    },
    {
      "channel": 4,
      "note": 69,
      "start": 7.6438,
      "duration": 0.0134,
      "velocity": 121,
      "chip": "ym2612"
    },
    {
      "channel": 3,
      "note": 56,
      "start": 7.6601,
      "duration": 0.0161,
      "velocity": 88,
      "chip": "ym2612"
    },
    {
      "channel": 4,
      "note": 68,
      "start": 7.6606,
      "duration": 0.0131,
      "velocity": 121,
      "chip": "ym2612"
    },
    {
      "channel": 4,
      "note": 71,
      "start": 7.6767,
      "duration": 0.0126,
      "velocity": 121,
      "chip": "ym2612"
    },
    {
      "channel": 3,
      "note": 56,
      "start": 7.6949,
      "duration": 0.0171,
      "velocity": 88,
      "chip": "ym2612"
    },
    {
      "channel": 4,
      "note": 68,
      "start": 7.6954,
      "duration": 0.0141,
      "velocity": 121,
      "chip": "ym2612"
    },
    {
      "channel": 4,
      "note": 73,
      "start": 7.7125,
      "duration": 0.0126,
      "velocity": 121,
      "chip": "ym2612"
    }
  ]
}