{
  "track_name": "09 - Shop (Village)",
  "duration_sec": 28.796,
  "sample_rate": 44100,
  "note_count": 216,
  "unique_pitches": 17,
  "pitch_range": 39,
  "avg_note_duration": 0.5229,
  "reconstruction_stats": {
    "notes_reconstructed": 216,
    "keyon_events": 216,
    "keyoff_events": 216,
    "orphan_keyons": 0,
    "unique_pitches": 17,
    "pitch_range": 39,
    "avg_duration_sec": 0.5229
  },
  "metadata": {
    "source": "S\\Sword of Vermilion\\09 - Shop (Village).vgz"
  },
  "notes": [
    {
      "channel": 0,
      "note": 61,
      "start": 0.0044,
      "duration": 0.8909,
      "velocity": 100,
      "chip": "ym2612"
    },
    {
      "channel": 1,
      "note": 85,
      "start": 0.0061,
      "duration": 0.7394,
      "velocity": 71,
      "chip": "ym2612"
    },
    {
      "channel": 2,
      "note": 73,
      "start": 0.0078,
      "duration": 0.4379,
      "velocity": 90,
      "chip": "ym2612"
    },
    {
      "channel": 3,
      "note": 49,
      "start": 0.0093,
      "duration": 0.8867,
      "velocity": 100,
      "chip": "ym2612"
    },
    {
      "channel": 4,
      "note": 73,
      "start": 0.0122,
      "duration": 0.4338,
      "velocity": 90,
      "chip": "ym2612"
    },
    {
      "channel": 5,
      "note": 85,
      "start": 0.0476,
      "duration": 0.7484,
      "velocity": 71,
      "chip": "ym2612"
    },
    {
      "channel": 2,
      "note": 68,
      "start": 0.5959,
      "duration": 0.4496,
      "velocity": 90,
      "chip": "ym2612"
    },
    {
      "channel": 4,
      "note": 68,
      "start": 0.5964,
      "duration": 0.4494,
      "velocity": 90,
      "chip": "ym2612"
    },
    {
      "channel": 1,
      "note": 83,
      "start": 0.8957,
      "duration": 0.1497,
      "velocity": 71,
      "chip": "ym2612"
    },
    {
      "channel": 5,
      "note": 83,
      "start": 0.9461,
      "duration": 0.1494,
      "velocity": 71,
      "chip": "ym2612"
    },
    {
      "channel": 0,
      "note": 64,
      "start": 1.1956,
      "duration": 0.8998,
      "velocity": 100,
      "chip": "ym2612"
    },
    {
      "channel": 1,
      "note": 80,
      "start": 1.1959,
      "duration": 0.5996,
      "velocity": 71,
      "chip": "ym2612"
    },
    {
      "channel": 2,
      "note": 71,
      "start": 1.1962,
      "duration": 0.4494,
      "velocity": 90,
      "chip": "ym2612"
    },
    {
      "channel": 3,
      "note": 52,
      "start": 1.1966,
      "duration": 0.8994,
      "velocity": 100,
      "chip": "ym2612"
    },
    {
      "channel": 4,
      "note": 71,
      "start": 1.1969,
      "duration": 0.4491,
      "velocity": 90,
      "chip": "ym2612"
    },
    {
      "channel": 5,
      "note": 80,
      "start": 1.2464,
      "duration": 0.5997,
      "velocity": 71,
      "chip": "ym2612"
    },
    {
      "channel": 2,
      "note": 76,
      "start": 1.7959,
      "duration": 0.4498,
      "velocity": 90,
      "chip": "ym2612"
    },
    {
      "channel": 4,
      "note": 76,
      "start": 1.7964,
      "duration": 0.4495,
      "velocity": 90,
      "chip": "ym2612"
    },
    {
      "channel": 1,
      "note": 78,
      "start": 2.0958,
      "duration": 0.1496,
      "velocity": 71,
      "chip": "ym2612"
    },
    {
      "channel": 5,
      "note": 78,
      "start": 2.1461,
      "duration": 0.1495,
      "velocity": 71,
      "chip": "ym2612"
    },
    {
      "channel": 1,
      "note": 76,
      "start": 2.2456,
      "duration": 0.1501,
      "velocity": 71,
      "chip": "ym2612"
    },
    {
      "channel": 5,
      "note": 76,
      "start": 2.2959,
      "duration": 0.1503,
      "velocity": 71,
      "chip": "ym2612"
    },
    {
      "channel": 0,
      "note": 66,
      "start": 2.3956,
      "duration": 0.8998,
      "velocity": 100,
      "chip": "ym2612"
    },
    {
      "channel": 1,
      "note": 78,
      "start": 2.3959,
      "duration": 0.4496,
      "velocity": 71,
      "chip": "ym2612"
    },
    {
      "channel": 2,
      "note": 75,
      "start": 2.3962,
      "duration": 0.4494,
      "velocity": 90,
      "chip": "ym2612"
    },
    {
      "channel": 3,
      "note": 54,
      "start": 2.3966,
      "duration": 0.8993,
      "velocity": 100,
      "chip": "ym2612"
    },
    {
      "channel": 4,
      "note": 75,
      "start": 2.3969,
      "duration": 0.4491,
      "velocity": 90,
      "chip": "ym2612"
    },
    {
      "channel": 5,
      "note": 78,
      "start": 2.4464,
      "duration": 0.4494,
      "velocity": 71,
      "chip": "ym2612"
    },
    {
      "channel": 1,
      "note": 83,
      "start": 2.9957,
      "duration": 0.4497,
      "velocity": 71,
      "chip": "ym2612"
    },
    {
      "channel": 2,
      "note": 71,
      "start": 2.9961,
      "duration": 0.4495,
      "velocity": 90,
      "chip": "ym2612"
    },
    {
      "channel": 4,
      "note": 71,
      "start": 2.9966,
      "duration": 0.4493,
      "velocity": 90,
      "chip": "ym2612"
    },
    {
      "channel": 5,
      "note": 83,
      "start": 3.0464,
      "duration": 0.4492,
      "velocity": 71,
      "chip": "ym2612"
    },
    {
      "channel": 0,
      "note": 61,
      "start": 3.5956,
      "duration": 0.8998,
      "velocity": 100,
      "chip": "ym2612"
    },
    {
      "channel": 1,
      "note": 80,
      "start": 3.5959,
      "duration": 0.7496,
      "velocity": 71,
      "chip": "ym2612"
    },
    {
      "channel": 2,
      "note": 73,
      "start": 3.5962,
      "duration": 0.8996,
      "velocity": 90,
      "chip": "ym2612"
    },
    {
      "channel": 3,
      "note": 49,
      "start": 3.5966,
      "duration": 0.8995,
      "velocity": 100,
      "chip": "ym2612"
    },
    {
      "channel": 4,
      "note": 73,
      "start": 3.5969,
      "duration": 0.8993,
      "velocity": 90,
      "chip": "ym2612"
    },
    {
      "channel": 5,
      "note": 80,
      "start": 3.6464,
      "duration": 0.7497,
      "velocity": 71,
      "chip": "ym2612"
    },
    {
      "channel": 1,
      "note": 78,
      "start": 4.4957,
      "duration": 0.1497,
      "velocity": 71,
      "chip": "ym2612"
    },
    {
      "channel": 5,
      "note": 78,
      "start": 4.5459,
      "duration": 0.1498,
      "velocity": 71,
      "chip": "ym2612"
    },
    {
      "channel": 1,
      "note": 76,
      "start": 4.6456,
      "duration": 0.1501,
      "velocity": 71,
      "chip": "ym2612"
    },
    {
      "channel": 5,
      "note": 76,
      "start": 4.6959,
      "duration": 0.1503,
      "velocity": 71,
      "chip": "ym2612"
    },
    {
      "channel": 0,
      "note": 66,
      "start": 4.7956,
      "duration": 0.8998,
      "velocity": 100,
      "chip": "ym2612"
    },
    {
      "channel": 1,
      "note": 78,
      "start": 4.7959,
      "duration": 0.4496,
      "velocity": 71,
      "chip": "ym2612"
    },
    {
      "channel": 2,
      "note": 71,
      "start": 4.7962,
      "duration": 0.4494,
      "velocity": 90,
      "chip": "ym2612"
    },
    {
      "channel": 3,
      "note": 54,
      "start": 4.7966,
      "duration": 0.8994,
      "velocity": 100,
      "chip": "ym2612"
    },
    {
      "channel": 4,
      "note": 71,
      "start": 4.7969,
      "duration": 0.4492,
      "velocity": 90,
      "chip": "ym2612"
    },
    {
      "channel": 5,
      "note": 78,
      "start": 4.8464,
      "duration": 0.4494,
      "velocity": 71,
      "chip": "ym2612"
    },
    {
      "channel": 1,
      "note": 83,
      "start": 5.3957,
      "duration": 0.4497,
      "velocity": 71,
      "chip": "ym2612"
    },
    {
      "channel": 2,
      "note": 73,
      "start": 5.3961,
      "duration": 0.1496,
      "velocity": 90,
      "chip": "ym2612"
    },
    {
      "channel": 4,
      "note": 73,
      "start": 5.3965,
      "duration": 0.1495,
      "velocity": 90,
      "chip": "ym2612"
    },
    {
      "channel": 5,
      "note": 83,
      "start": 5.4464,
      "duration": 0.4494,
      "velocity": 71,
      "chip": "ym2612"
    },
    {
      "channel": 2,
      "note": 71,
      "start": 5.6959,
      "duration": 0.3001,
      "velocity": 90,
      "chip": "ym2612"
    },
    {
      "channel": 4,
      "note": 71,
      "start": 5.6964,
      "duration": 0.3002,
      "velocity": 90,
      "chip": "ym2612"
    },
    {
      "channel": 0,
      "note": 64,
      "start": 5.9956,
      "duration": 0.8998,
      "velocity": 100,
      "chip": "ym2612"
    },
    {
      "channel": 1,
      "note": 80,
      "start": 5.9959,
      "duration": 0.4496,
      "velocity": 71,
      "chip": "ym2612"
    },
    {
      "channel": 2,
      "note": 68,
      "start": 5.9962,
      "duration": 0.4494,
      "velocity": 90,
      "chip": "ym2612"
    },
    {
      "channel": 3,
      "note": 52,
      "start": 5.9966,
      "duration": 0.8994,
      "velocity": 100,
      "chip": "ym2612"
    },
    {
      "channel": 4,
      "note": 68,
      "start": 5.9969,
      "duration": 0.4492,
      "velocity": 90,
      "chip": "ym2612"
    },
    {
      "channel": 5,
      "note": 80,
      "start": 6.0464,
      "duration": 0.4494,
      "velocity": 71,
      "chip": "ym2612"
    },
    {
      "channel": 1,
      "note": 78,
      "start": 6.5957,
      "duration": 0.1498,
      "velocity": 71,
      "chip": "ym2612"
    },
    {
      "channel": 2,
      "note": 73,
      "start": 6.5961,
      "duration": 0.4495,
      "velocity": 90,
      "chip": "ym2612"
    },
    {
      "channel": 4,
      "note": 73,
      "start": 6.5966,
      "duration": 0.4493,
      "velocity": 90,
      "chip": "ym2612"
    },
    {
      "channel": 5,
      "note": 78,
      "start": 6.6464,
      "duration": 0.1497,
      "velocity": 71,
      "chip": "ym2612"
    },
    {
      "channel": 1,
      "note": 76,
      "start": 6.8957,
      "duration": 0.1497,
      "velocity": 71,
      "chip": "ym2612"
    },
    {
      "channel": 5,
      "note": 76,
      "start": 6.9461,
      "duration": 0.1494,
      "velocity": 71,
      "chip": "ym2612"
    },
    {
      "channel": 0,
      "note": 66,
      "start": 7.1956,
      "duration": 0.8998,
      "velocity": 100,
      "chip": "ym2612"
    },
    {
      "channel": 1,
      "note": 78,
      "start": 7.1959,
      "duration": 0.1496,
      "velocity": 71,
      "chip": "ym2612"
    },
    {
      "channel": 2,
      "note": 75,
      "start": 7.1962,
      "duration": 0.4494,
      "velocity": 90,
      "chip": "ym2612"
    },
    {
      "channel": 3,
      "note": 54,
      "start": 7.1966,
      "duration": 0.8996,
      "velocity": 100,
      "chip": "ym2612"
    },
    {
      "channel": 4,
      "note": 75,
      "start": 7.1969,
      "duration": 0.4491,
      "velocity": 90,
      "chip": "ym2612"
    },
    {
      "channel": 5,
      "note": 78,
      "start": 7.2464,
      "duration": 0.1497,
      "velocity": 71,
      "chip": "ym2612"
    },
    {
      "channel": 1,
      "note": 80,
      "start": 7.4957,
      "duration": 0.1498,
      "velocity": 71,
      "chip": "ym2612"
    },
    {
      "channel": 5,
      "note": 80,
      "start": 7.5464,
      "duration": 0.1494,
      "velocity": 71,
      "chip": "ym2612"
    },
    {
      "channel": 1,
      "note": 78,
      "start": 7.7957,
      "duration": 0.1498,
      "velocity": 71,
      "chip": "ym2612"
    },
    {
      "channel": 5,
      "note": 78,
      "start": 7.8461,
      "duration": 0.1497,
      "velocity": 71,
      "chip": "ym2612"
    },
    {
      "channel": 1,
      "note": 76,
      "start": 8.0957,
      "duration": 0.1497,
      "velocity": 71,
      "chip": "ym2612"
    },
    {
      "channel": 2,
      "note": 71,
      "start": 8.0961,
      "duration": 0.2999,
      "velocity": 90,
      "chip": "ym2612"
    },
    {
      "channel": 4,
      "note": 71,
      "start": 8.0966,
      "duration": 0.3001,
      "velocity": 90,
      "chip": "ym2612"
    },
    {
      "channel": 5,
      "note": 76,
      "start": 8.1461,
      "duration": 0.1497,
      "velocity": 71,
      "chip": "ym2612"
    },
    {
      "channel": 0,
      "note": 61,
      "start": 8.3956,
      "duration": 0.8998,
      "velocity": 100,
      "chip": "ym2612"
    },
    {
      "channel": 1,
      "note": 73,
      "start": 8.3959,
      "duration": 0.7496,
      "velocity": 71,
      "chip": "ym2612"
    },
    {
      "channel": 2,
      "note": 73,
      "start": 8.3962,
      "duration": 0.8994,
      "velocity": 90,
      "chip": "ym2612"
    },
    {
      "channel": 3,
      "note": 49,
      "start": 8.3966,
      "duration": 0.8992,
      "velocity": 100,
      "chip": "ym2612"
    },
    {
      "channel": 4,
      "note": 73,
      "start": 8.3969,
      "duration": 0.899,
      "velocity": 90,
      "chip": "ym2612"
    },
    {
      "channel": 5,
      "note": 73,
      "start": 8.4464,
      "duration": 0.7497,
      "velocity": 71,
      "chip": "ym2612"
    },
    {
      "channel": 0,
      "note": 61,
      "start": 9.5956,
      "duration": 0.8998,
      "velocity": 100,
      "chip": "ym2612"
    },
    {
      "channel": 1,
      "note": 85,
      "start": 9.5959,
      "duration": 0.7496,
      "velocity": 71,
      "chip": "ym2612"
    },
    {
      "channel": 2,
      "note": 73,
      "start": 9.5963,
      "duration": 0.4494,
      "velocity": 90,
      "chip": "ym2612"
    },
    {
      "channel": 3,
      "note": 49,
      "start": 9.5966,
      "duration": 0.8994,
      "velocity": 100,
      "chip": "ym2612"
    },
    {
      "channel": 4,
      "note": 73,
      "start": 9.597,
      "duration": 0.449,
      "velocity": 90,
      "chip": "ym2612"
    },
    {
      "channel": 5,
      "note": 85,
      "start": 9.6464,
      "duration": 0.7497,
      "velocity": 71,
      "chip": "ym2612"
    },
    {
      "channel": 2,
      "note": 68,
      "start": 10.1959,
      "duration": 0.4496,
      "velocity": 90,
      "chip": "ym2612"
    },
    {
      "channel": 4,
      "note": 68,
      "start": 10.1964,
      "duration": 0.4494,
      "velocity": 90,
      "chip": "ym2612"
    },
    {
      "channel": 1,
      "note": 83,
      "start": 10.4957,
      "duration": 0.1497,
      "velocity": 71,
      "chip": "ym2612"
    },
    {
      "channel": 5,
      "note": 83,
      "start": 10.5461,
      "duration": 0.1494,
      "velocity": 71,
      "chip": "ym2612"
    },
    {
      "channel": 0,
      "note": 64,
      "start": 10.7956,
      "duration": 0.8998,
      "velocity": 100,
      "chip": "ym2612"
    },
    {
      "channel": 1,
      "note": 80,
      "start": 10.7959,
      "duration": 0.7496,
      "velocity": 71,
      "chip": "ym2612"
    },
    {
      "channel": 2,
      "note": 71,
      "start": 10.7962,
      "duration": 0.4494,
      "velocity": 90,
      "chip": "ym2612"
    },
    {
      "channel": 3,
      "note": 52,
      "start": 10.7966,
      "duration": 0.8994,
      "velocity": 100,
      "chip": "ym2612"
    },
    {
      "channel": 4,
      "note": 71,
      "start": 10.7969,
      "duration": 0.4491,
      "velocity": 90,
      "chip": "ym2612"
    },
    {
      "channel": 5,
      "note": 80,
      "start": 10.8464,
      "duration": 0.7497,
      "velocity": 71,
      "chip": "ym2612"
    },
    {
      "channel": 2,
      "note": 76,
      "start": 11.3959,
      "duration": 0.4498,
      "velocity": 90,
      "chip": "ym2612"
    },
    {
      "channel": 4,
      "note": 76,
      "start": 11.3964,
      "duration": 0.4495,
      "velocity": 90,
      "chip": "ym2612"
    },
    {
      "channel": 1,
      "note": 78,
      "start": 11.6957,
      "duration": 0.1497,
      "velocity": 71,
      "chip": "ym2612"
    },
    {
      "channel": 5,
      "note": 78,
      "start": 11.7461,
      "duration": 0.1495,
      "velocity": 71,
      "chip": "ym2612"
    },
    {
      "channel": 1,
      "note": 76,
      "start": 11.8456,
      "duration": 0.1501,
      "velocity": 71,
      "chip": "ym2612"
    },
    {
      "channel": 5,
      "note": 76,
      "start": 11.8959,
      "duration": 0.1503,
      "velocity": 71,
      "chip": "ym2612"
    },
    {
      "channel": 0,
      "note": 66,
      "start": 11.9956,
      "duration": 0.8998,
      "velocity": 100,
      "chip": "ym2612"
    },
    {
      "channel": 1,
      "note": 78,
      "start": 11.9959,
      "duration": 0.4496,
      "velocity": 71,
      "chip": "ym2612"
    },
    {
      "channel": 2,
      "note": 75,
      "start": 11.9962,
      "duration": 0.4494,
      "velocity": 90,
      "chip": "ym2612"
    },
    {
      "channel": 3,
      "note": 54,
      "start": 11.9966,
      "duration": 0.8993,
      "velocity": 100,
      "chip": "ym2612"
    },
    {
      "channel": 4,
      "note": 75,
      "start": 11.9969,
      "duration": 0.4492,
      "velocity": 90,
      "chip": "ym2612"
    },
    {
      "channel": 5,
      "note": 78,
      "start": 12.0464,
      "duration": 0.4494,
      "velocity": 71,
      "chip": "ym2612"
    },
    {
      "channel": 1,
      "note": 83,
      "start": 12.5957,
      "duration": 0.2998,
      "velocity": 71,
      "chip": "ym2612"
    },
    {
      "channel": 2,
      "note": 71,
      "start": 12.5961,
      "duration": 0.4494,
      "velocity": 90,
      "chip": "ym2612"
    },
    {
      "channel": 4,
      "note": 71,
      "start": 12.5966,
      "duration": 0.4491,
      "velocity": 90,
      "chip": "ym2612"
    },
    {
      "channel": 5,
      "note": 83,
      "start": 12.6464,
      "duration": 0.2994,
      "velocity": 71,
      "chip": "ym2612"
    },
    {
      "channel": 0,
      "note": 61,
      "start": 13.1956,
      "duration": 0.8998,
      "velocity": 100,
      "chip": "ym2612"
    },
    {
      "channel": 1,
      "note": 80,
      "start": 13.1959,
      "duration": 0.7496,
      "velocity": 71,
      "chip": "ym2612"
    },
    {
      "channel": 2,
      "note": 73,
      "start": 13.1962,
      "duration": 0.8996,
      "velocity": 90,
      "chip": "ym2612"
    },
    {
      "channel": 3,
      "note": 49,
      "start": 13.1966,
      "duration": 0.8995,
      "velocity": 100,
      "chip": "ym2612"
    },
    {
      "channel": 4,
      "note": 73,
      "start": 13.1969,
      "duration": 0.8993,
      "velocity": 90,
      "chip": "ym2612"
    },
    {
      "channel": 5,
      "note": 80,
      "start": 13.2464,
      "duration": 0.7497,
      "velocity": 71,
      "chip": "ym2612"
    },
    {
      "channel": 1,
      "note": 78,
      "start": 14.0957,
      "duration": 0.1497,
      "velocity": 71,
      "chip": "ym2612"
    },
    {
      "channel": 5,
      "note": 78,
      "start": 14.1459,
      "duration": 0.1498,
      "velocity": 71,
      "chip": "ym2612"
    },
    {
      "channel": 1,
      "note": 76,
      "start": 14.2456,
      "duration": 0.1501,
      "velocity": 71,
      "chip": "ym2612"
    },
    {
      "channel": 5,
      "note": 76,
      "start": 14.2959,
      "duration": 0.1503,
      "velocity": 71,
      "chip": "ym2612"
    },
    {
      "channel": 0,
      "note": 66,
      "start": 14.3956,
      "duration": 0.8998,
      "velocity": 100,
      "chip": "ym2612"
    },
    {
      "channel": 1,
      "note": 78,
      "start": 14.3959,
      "duration": 0.4496,
      "velocity": 71,
      "chip": "ym2612"
    },
    {
      "channel": 2,
      "note": 71,
      "start": 14.3962,
      "duration": 0.4494,
      "velocity": 90,
      "chip": "ym2612"
    },
    {
      "channel": 3,
      "note": 54,
      "start": 14.3966,
      "duration": 0.8995,
      "velocity": 100,
      "chip": "ym2612"
    },
    {
      "channel": 4,
      "note": 71,
      "start": 14.3969,
      "duration": 0.4491,
      "velocity": 90,
      "chip": "ym2612"
    },
    {
      "channel": 5,
      "note": 78,
      "start": 14.4464,
      "duration": 0.4494,
      "velocity": 71,
      "chip": "ym2612"
    },
    {
      "channel": 1,
      "note": 83,
      "start": 14.9957,
      "duration": 0.2998,
      "velocity": 71,
      "chip": "ym2612"
    },
    {
      "channel": 2,
      "note": 73,
      "start": 14.9961,
      "duration": 0.1496,
      "velocity": 90,
      "chip": "ym2612"
    },
    {
      "channel": 4,
      "note": 73,
      "start": 14.9965,
      "duration": 0.1495,
      "velocity": 90,
      "chip": "ym2612"
    },
    {
      "channel": 5,
      "note": 83,
      "start": 15.0464,
      "duration": 0.2994,
      "velocity": 71,
      "chip": "ym2612"
    },
    {
      "channel": 2,
      "note": 71,
      "start": 15.2959,
      "duration": 0.3001,
      "velocity": 90,
      "chip": "ym2612"
    },
    {
      "channel": 4,
      "note": 71,
      "start": 15.2964,
      "duration": 0.3002,
      "velocity": 90,
      "chip": "ym2612"
    },
    {
      "channel": 0,
      "note": 64,
      "start": 15.5956,
      "duration": 0.8998,
      "velocity": 100,
      "chip": "ym2612"
    },
    {
      "channel": 1,
      "note": 80,
      "start": 15.5959,
      "duration": 0.7496,
      "velocity": 71,
      "chip": "ym2612"
    },
    {
      "channel": 2,
      "note": 68,
      "start": 15.5962,
      "duration": 0.4494,
      "velocity": 90,
      "chip": "ym2612"
    },
    {
      "channel": 3,
      "note": 52,
      "start": 15.5966,
      "duration": 0.8994,
      "velocity": 100,
      "chip": "ym2612"
    },
    {
      "channel": 4,
      "note": 68,
      "start": 15.5969,
      "duration": 0.4491,
      "velocity": 90,
      "chip": "ym2612"
    },
    {
      "channel": 5,
      "note": 80,
      "start": 15.6464,
      "duration": 0.7497,
      "velocity": 71,
      "chip": "ym2612"
    },
    {
      "channel": 2,
      "note": 73,
      "start": 16.1959,
      "duration": 0.4498,
      "velocity": 90,
      "chip": "ym2612"
    },
    {
      "channel": 4,
      "note": 73,
      "start": 16.1964,
      "duration": 0.4495,
      "velocity": 90,
      "chip": "ym2612"
    },
    {
      "channel": 1,
      "note": 83,
      "start": 16.4957,
      "duration": 0.1497,
      "velocity": 71,
      "chip": "ym2612"
    },
    {
      "channel": 5,
      "note": 83,
      "start": 16.5461,
      "duration": 0.1495,
      "velocity": 71,
      "chip": "ym2612"
    },
    {
      "channel": 1,
      "note": 85,
      "start": 16.6456,
      "duration": 0.1501,
      "velocity": 71,
      "chip": "ym2612"
    },
    {
      "channel": 5,
      "note": 85,
      "start": 16.6959,
      "duration": 0.1503,
      "velocity": 71,
      "chip": "ym2612"
    },
    {
      "channel": 0,
      "note": 66,
      "start": 16.7956,
      "duration": 0.8998,
      "velocity": 100,
      "chip": "ym2612"
    },
    {
      "channel": 1,
      "note": 87,
      "start": 16.7959,
      "duration": 0.2996,
      "velocity": 71,
      "chip": "ym2612"
    },
    {
      "channel": 2,
      "note": 75,
      "start": 16.7962,
      "duration": 0.4494,
      "velocity": 90,
      "chip": "ym2612"
    },
    {
      "channel": 3,
      "note": 54,
      "start": 16.7966,
      "duration": 0.8996,
      "velocity": 100,
      "chip": "ym2612"
    },
    {
      "channel": 4,
      "note": 75,
      "start": 16.7969,
      "duration": 0.4491,
      "velocity": 90,
      "chip": "ym2612"
    },
    {
      "channel": 5,
      "note": 87,
      "start": 16.8464,
      "duration": 0.2998,
      "velocity": 71,
      "chip": "ym2612"
    },
    {
      "channel": 1,
      "note": 88,
      "start": 17.0957,
      "duration": 0.1498,
      "velocity": 71,
      "chip": "ym2612"
    },
    {
      "channel": 5,
      "note": 88,
      "start": 17.1464,
      "duration": 0.1494,
      "velocity": 71,
      "chip": "ym2612"
    },
    {
      "channel": 1,
      "note": 87,
      "start": 17.3957,
      "duration": 0.1498,
      "velocity": 71,
      "chip": "ym2612"
    },
    {
      "channel": 5,
      "note": 87,
      "start": 17.4461,
      "duration": 0.1497,
      "velocity": 71,
      "chip": "ym2612"
    },
    {
      "channel": 1,
      "note": 85,
      "start": 17.6957,
      "duration": 0.8998,
      "velocity": 71,
      "chip": "ym2612"
    },
    {
      "channel": 2,
      "note": 71,
      "start": 17.6961,
      "duration": 0.2997,
      "velocity": 90,
      "chip": "ym2612"
    },
    {
      "channel": 4,
      "note": 71,
      "start": 17.6966,
      "duration": 0.2999,
      "velocity": 90,
      "chip": "ym2612"
    },
    {
      "channel": 5,
      "note": 85,
      "start": 17.7461,
      "duration": 0.8999,
      "velocity": 71,
      "chip": "ym2612"
    },
    {
      "channel": 0,
      "note": 61,
      "start": 17.9956,
      "duration": 0.8998,
      "velocity": 100,
      "chip": "ym2612"
    },
    {
      "channel": 2,
      "note": 73,
      "start": 17.9961,
      "duration": 0.8995,
      "velocity": 90,
      "chip": "ym2612"
    },
    {
      "channel": 3,
      "note": 49,
      "start": 17.9964,
      "duration": 0.8994,
      "velocity": 100,
      "chip": "ym2612"
    },
    {
      "channel": 4,
      "note": 73,
      "start": 17.9967,
      "duration": 0.8992,
      "velocity": 90,
      "chip": "ym2612"
    },
    {
      "channel": 0,
      "note": 61,
      "start": 19.1956,
      "duration": 0.8998,
      "velocity": 100,
      "chip": "ym2612"
    },
    {
      "channel": 2,
      "note": 73,
      "start": 19.1961,
      "duration": 0.4494,
      "velocity": 90,
      "chip": "ym2612"
    },
    {
      "channel": 3,
      "note": 49,
      "start": 19.1965,
      "duration": 0.8993,
      "velocity": 100,
      "chip": "ym2612"
    },
    {
      "channel": 4,
      "note": 73,
      "start": 19.1968,
      "duration": 0.449,
      "velocity": 90,
      "chip": "ym2612"
    },
    {
      "channel": 2,
      "note": 68,
      "start": 19.7958,
      "duration": 0.4497,
      "velocity": 90,
      "chip": "ym2612"
    },
    {
      "channel": 4,
      "note": 68,
      "start": 19.7962,
      "duration": 0.4494,
      "velocity": 90,
      "chip": "ym2612"
    },
    {
      "channel": 0,
      "note": 64,
      "start": 20.3956,
      "duration": 0.8998,
      "velocity": 100,
      "chip": "ym2612"
    },
    {
      "channel": 2,
      "note": 71,
      "start": 20.3959,
      "duration": 0.4496,
      "velocity": 90,
      "chip": "ym2612"
    },
    {
      "channel": 3,
      "note": 52,
      "start": 20.3962,
      "duration": 0.8995,
      "velocity": 100,
      "chip": "ym2612"
    },
    {
      "channel": 4,
      "note": 71,
      "start": 20.3966,
      "duration": 0.4492,
      "velocity": 90,
      "chip": "ym2612"
    },
    {
      "channel": 2,
      "note": 76,
      "start": 20.9958,
      "duration": 0.4497,
      "velocity": 90,
      "chip": "ym2612"
    },
    {
      "channel": 4,
      "note": 76,
      "start": 20.9962,
      "duration": 0.4494,
      "velocity": 90,
      "chip": "ym2612"
    },
    {
      "channel": 0,
      "note": 66,
      "start": 21.5956,
      "duration": 0.8998,
      "velocity": 100,
      "chip": "ym2612"
    },
    {
      "channel": 2,
      "note": 75,
      "start": 21.5959,
      "duration": 0.4496,
      "velocity": 90,
      "chip": "ym2612"
    },
    {
      "channel": 3,
      "note": 54,
      "start": 21.5962,
      "duration": 0.8995,
      "velocity": 100,
      "chip": "ym2612"
    },
    {
      "channel": 4,
      "note": 75,
      "start": 21.5966,
      "duration": 0.4492,
      "velocity": 90,
      "chip": "ym2612"
    },
    {
      "channel": 2,
      "note": 71,
      "start": 22.1958,
      "duration": 0.4497,
      "velocity": 90,
      "chip": "ym2612"
    },
    {
      "channel": 4,
      "note": 71,
      "start": 22.1962,
      "duration": 0.4494,
      "velocity": 90,
      "chip": "ym2612"
    },
    {
      "channel": 0,
      "note": 61,
      "start": 22.7956,
      "duration": 0.8998,
      "velocity": 100,
      "chip": "ym2612"
    },
    {
      "channel": 2,
      "note": 73,
      "start": 22.7959,
      "duration": 0.8997,
      "velocity": 90,
      "chip": "ym2612"
    },
    {
      "channel": 3,
      "note": 49,
      "start": 22.7963,
      "duration": 0.8994,
      "velocity": 100,
      "chip": "ym2612"
    },
    {
      "channel": 4,
      "note": 73,
      "start": 22.7966,
      "duration": 0.8993,
      "velocity": 90,
      "chip": "ym2612"
    },
    {
      "channel": 0,
      "note": 66,
      "start": 23.9956,
      "duration": 0.8998,
      "velocity": 100,
      "chip": "ym2612"
    },
    {
      "channel": 2,
      "note": 71,
      "start": 23.9961,
      "duration": 0.4495,
      "velocity": 90,
      "chip": "ym2612"
    },
    {
      "channel": 3,
      "note": 54,
      "start": 23.9964,
      "duration": 0.8995,
      "velocity": 100,
      "chip": "ym2612"
    },
    {
      "channel": 4,
      "note": 71,
      "start": 23.9967,
      "duration": 0.4492,
      "velocity": 90,
      "chip": "ym2612"
    },
    {
      "channel": 2,
      "note": 73,
      "start": 24.5958,
      "duration": 0.1497,
      "velocity": 90,
      "chip": "ym2612"
    },
    {
      "channel": 4,
      "note": 73,
      "start": 24.5962,
      "duration": 0.1496,
      "velocity": 90,
      "chip": "ym2612"
    },
    {
      "channel": 2,
      "note": 71,
      "start": 24.8958,
      "duration": 0.2999,
      "velocity": 90,
      "chip": "ym2612"
    },
    {
      "channel": 4,
      "note": 71,
      "start": 24.8963,
      "duration": 0.3001,
      "velocity": 90,
      "chip": "ym2612"
    },
    {
      "channel": 0,
      "note": 64,
      "start": 25.1956,
      "duration": 0.8998,
      "velocity": 100,
      "chip": "ym2612"
    },
    {
      "channel": 2,
      "note": 68,
      "start": 25.1959,
      "duration": 0.4496,
      "velocity": 90,
      "chip": "ym2612"
    },
    {
      "channel": 3,
      "note": 52,
      "start": 25.1963,
      "duration": 0.8994,
      "velocity": 100,
      "chip": "ym2612"
    },
    {
      "channel": 4,
      "note": 68,
      "start": 25.1966,
      "duration": 0.4492,
      "velocity": 90,
      "chip": "ym2612"
    },
    {
      "channel": 2,
      "note": 73,
      "start": 25.7958,
      "duration": 0.4497,
      "velocity": 90,
      "chip": "ym2612"
    },
    {
      "channel": 4,
      "note": 73,
      "start": 25.7962,
      "duration": 0.4494,
      "velocity": 90,
      "chip": "ym2612"
    },
    {
      "channel": 0,
      "note": 66,
      "start": 26.3956,
      "duration": 0.8998,
      "velocity": 100,
      "chip": "ym2612"
    },
    {
      "channel": 2,
      "note": 75,
      "start": 26.3959,
      "duration": 0.4496,
      "velocity": 90,
      "chip": "ym2612"
    },
    {
      "channel": 3,
      "note": 54,
      "start": 26.3962,
      "duration": 0.8997,
      "velocity": 100,
      "chip": "ym2612"
    },
    {
      "channel": 4,
      "note": 75,
      "start": 26.3966,
      "duration": 0.4492,
      "velocity": 90,
      "chip": "ym2612"
    },
    {
      "channel": 2,
      "note": 71,
      "start": 27.2958,
      "duration": 0.2999,
      "velocity": 90,
      "chip": "ym2612"
    },
    {
      "channel": 4,
      "note": 71,
      "start": 27.2963,
      "duration": 0.3001,
      "velocity": 90,
      "chip": "ym2612"
    },
    {
      "channel": 0,
      "note": 61,
      "start": 27.5956,
      "duration": 0.8998,
      "velocity": 100,
      "chip": "ym2612"
    },
    {
      "channel": 2,
      "note": 73,
      "start": 27.5959,
      "duration": 0.8997,
      "velocity": 90,
      "chip": "ym2612"
    },
    {
      "channel": 3,
      "note": 49,
      "start": 27.5962,
      "duration": 0.8995,
      "velocity": 100,
      "chip": "ym2612"
    },
    {
      "channel": 4,
      "note": 73,
      "start": 27.5966,
      "duration": 0.8993,
      "velocity": 90,
      "chip": "ym2612"
    }
  ]
}