{
  "track_name": "09 - Death Wisper",
  "duration_sec": 51.214,
  "sample_rate": 44100,
  "note_count": 1269,
  "unique_pitches": 29,
  "pitch_range": 64,
  "avg_note_duration": 0.028,
  "reconstruction_stats": {
    "notes_reconstructed": 1269,
    "keyon_events": 1269,
    "keyoff_events": 1269,
    "orphan_keyons": 0,
    "unique_pitches": 29,
    "pitch_range": 64,
    "avg_duration_sec": 0.028
  },
  "metadata": {
    "source": "V\\Valis\\09 - Death Wisper.vgz"
  },
  "notes": [
    {
      "channel": 0,
      "note": -1,
      "start": 0.004,
      "duration": 0.032,
      "velocity": 104,
      "chip": "ym2612"
    },
    {
      "channel": 1,
      "note": -1,
      "start": 0.0083,
      "duration": 0.1603,
      "velocity": 95,
      "chip": "ym2612"
    },
    {
      "channel": 2,
      "note": -1,
      "start": 0.0125,
      "duration": 0.0219,
      "velocity": 104,
      "chip": "ym2612"
    },
    {
      "channel": 3,
      "note": -1,
      "start": 0.0168,
      "duration": 0.0202,
      "velocity": 104,
      "chip": "ym2612"
    },
    {
      "channel": 4,
      "note": -1,
      "start": 0.0211,
      "duration": 0.1485,
      "velocity": 95,
      "chip": "ym2612"
    },
    {
      "channel": 5,
      "note": -1,
      "start": 0.0253,
      "duration": 0.1447,
      "velocity": 95,
      "chip": "ym2612"
    },
    {
      "channel": 0,
      "note": 82,
      "start": 0.0408,
      "duration": 0.0137,
      "velocity": 104,
      "chip": "ym2612"
    },
    {
      "channel": 2,
      "note": 65,
      "start": 0.0422,
      "duration": 0.0108,
      "velocity": 104,
      "chip": "ym2612"
    },
    {
      "channel": 3,
      "note": 82,
      "start": 0.0433,
      "duration": 0.0124,
      "velocity": 104,
      "chip": "ym2612"
    },
    {
      "channel": 0,
      "note": 77,
      "start": 0.0594,
      "duration": 0.0137,
      "velocity": 104,
      "chip": "ym2612"
    },
    {
      "channel": 2,
      "note": 70,
      "start": 0.0608,
      "duration": 0.0108,
      "velocity": 104,
      "chip": "ym2612"
    },
    {
      "channel": 3,
      "note": 77,
      "start": 0.0618,
      "duration": 0.0124,
      "velocity": 104,
      "chip": "ym2612"
    },
    {
      "channel": 0,
      "note": 84,
      "start": 0.0779,
      "duration": 0.0138,
      "velocity": 104,
      "chip": "ym2612"
    },
    {
      "channel": 2,
      "note": 72,
      "start": 0.0793,
      "duration": 0.0108,
      "velocity": 104,
      "chip": "ym2612"
    },
    {
      "channel": 3,
      "note": 84,
      "start": 0.0803,
      "duration": 0.0124,
      "velocity": 104,
      "chip": "ym2612"
    },
    {
      "channel": 0,
      "note": 77,
      "start": 0.0965,
      "duration": 0.0138,
      "velocity": 104,
      "chip": "ym2612"
    },
    {
      "channel": 2,
      "note": 73,
      "start": 0.0979,
      "duration": 0.0108,
      "velocity": 104,
      "chip": "ym2612"
    },
    {
      "channel": 3,
      "note": 77,
      "start": 0.0989,
      "duration": 0.0124,
      "velocity": 104,
      "chip": "ym2612"
    },
    {
      "channel": 0,
      "note": 85,
      "start": 0.1151,
      "duration": 0.0138,
      "velocity": 104,
      "chip": "ym2612"
    },
    {
      "channel": 2,
      "note": 72,
      "start": 0.1165,
      "duration": 0.0108,
      "velocity": 104,
      "chip": "ym2612"
    },
    {
      "channel": 3,
      "note": 85,
      "start": 0.1176,
      "duration": 0.0124,
      "velocity": 104,
      "chip": "ym2612"
    },
    {
      "channel": 0,
      "note": 77,
      "start": 0.1338,
      "duration": 0.0137,
      "velocity": 104,
      "chip": "ym2612"
    },
    {
      "channel": 2,
      "note": 70,
      "start": 0.1352,
      "duration": 0.0108,
      "velocity": 104,
      "chip": "ym2612"
    },
    {
      "channel": 3,
      "note": 77,
      "start": 0.1362,
      "duration": 0.0123,
      "velocity": 104,
      "chip": "ym2612"
    },
    {
      "channel": 0,
      "note": 84,
      "start": 0.1523,
      "duration": 0.0137,
      "velocity": 104,
      "chip": "ym2612"
    },
    {
      "channel": 2,
      "note": 65,
      "start": 0.1537,
      "duration": 0.0108,
      "velocity": 104,
      "chip": "ym2612"
    },
    {
      "channel": 3,
      "note": 84,
      "start": 0.1547,
      "duration": 0.0124,
      "velocity": 104,
      "chip": "ym2612"
    },
    {
      "channel": 0,
      "note": 77,
      "start": 0.1712,
      "duration": 0.016,
      "velocity": 104,
      "chip": "ym2612"
    },
    {
      "channel": 1,
      "note": 46,
      "start": 0.1722,
      "duration": 0.0732,
      "velocity": 95,
      "chip": "ym2612"
    },
    {
      "channel": 2,
      "note": 70,
      "start": 0.1733,
      "duration": 0.0124,
      "velocity": 104,
      "chip": "ym2612"
    },
    {
      "channel": 3,
      "note": 77,
      "start": 0.1744,
      "duration": 0.0139,
      "velocity": 104,
      "chip": "ym2612"
    },
    {
      "channel": 4,
      "note": 46,
      "start": 0.1754,
      "duration": 0.071,
      "velocity": 95,
      "chip": "ym2612"
    },
    {
      "channel": 5,
      "note": 34,
      "start": 0.1765,
      "duration": 0.0704,
      "velocity": 95,
      "chip": "ym2612"
    },
    {
      "channel": 0,
      "note": 82,
      "start": 0.192,
      "duration": 0.0137,
      "velocity": 104,
      "chip": "ym2612"
    },
    {
      "channel": 2,
      "note": 72,
      "start": 0.1934,
      "duration": 0.0108,
      "velocity": 104,
      "chip": "ym2612"
    },
    {
      "channel": 3,
      "note": 82,
      "start": 0.1944,
      "duration": 0.0124,
      "velocity": 104,
      "chip": "ym2612"
    },
    {
      "channel": 0,
      "note": 77,
      "start": 0.2106,
      "duration": 0.0137,
      "velocity": 104,
      "chip": "ym2612"
    },
    {
      "channel": 2,
      "note": 73,
      "start": 0.212,
      "duration": 0.0108,
      "velocity": 104,
      "chip": "ym2612"
    },
    {
      "channel": 3,
      "note": 77,
      "start": 0.213,
      "duration": 0.0124,
      "velocity": 104,
      "chip": "ym2612"
    },
    {
      "channel": 0,
      "note": 84,
      "start": 0.2291,
      "duration": 0.0137,
      "velocity": 104,
      "chip": "ym2612"
    },
    {
      "channel": 2,
      "note": 72,
      "start": 0.2305,
      "duration": 0.0108,
      "velocity": 104,
      "chip": "ym2612"
    },
    {
      "channel": 3,
      "note": 84,
      "start": 0.2316,
      "duration": 0.0124,
      "velocity": 104,
      "chip": "ym2612"
    },
    {
      "channel": 0,
      "note": 77,
      "start": 0.248,
      "duration": 0.0159,
      "velocity": 104,
      "chip": "ym2612"
    },
    {
      "channel": 1,
      "note": 45,
      "start": 0.249,
      "duration": 0.073,
      "velocity": 95,
      "chip": "ym2612"
    },
    {
      "channel": 2,
      "note": 70,
      "start": 0.2501,
      "duration": 0.0123,
      "velocity": 104,
      "chip": "ym2612"
    },
    {
      "channel": 3,
      "note": 77,
      "start": 0.2512,
      "duration": 0.0138,
      "velocity": 104,
      "chip": "ym2612"
    },
    {
      "channel": 4,
      "note": 45,
      "start": 0.2522,
      "duration": 0.0709,
      "velocity": 95,
      "chip": "ym2612"
    },
    {
      "channel": 5,
      "note": 33,
      "start": 0.2533,
      "duration": 0.0702,
      "velocity": 95,
      "chip": "ym2612"
    },
    {
      "channel": 0,
      "note": 85,
      "start": 0.2687,
      "duration": 0.0137,
      "velocity": 104,
      "chip": "ym2612"
    },
    {
      "channel": 2,
      "note": 65,
      "start": 0.2701,
      "duration": 0.0107,
      "velocity": 104,
      "chip": "ym2612"
    },
    {
      "channel": 3,
      "note": 85,
      "start": 0.2712,
      "duration": 0.0123,
      "velocity": 104,
      "chip": "ym2612"
    },
    {
      "channel": 0,
      "note": 77,
      "start": 0.2873,
      "duration": 0.0137,
      "velocity": 104,
      "chip": "ym2612"
    },
    {
      "channel": 2,
      "note": 70,
      "start": 0.2887,
      "duration": 0.0108,
      "velocity": 104,
      "chip": "ym2612"
    },
    {
      "channel": 3,
      "note": 77,
      "start": 0.2897,
      "duration": 0.0124,
      "velocity": 104,
      "chip": "ym2612"
    },
    {
      "channel": 0,
      "note": 84,
      "start": 0.3058,
      "duration": 0.0137,
      "velocity": 104,
      "chip": "ym2612"
    },
    {
      "channel": 2,
      "note": 72,
      "start": 0.3072,
      "duration": 0.0108,
      "velocity": 104,
      "chip": "ym2612"
    },
    {
      "channel": 3,
      "note": 84,
      "start": 0.3082,
      "duration": 0.0124,
      "velocity": 104,
      "chip": "ym2612"
    },
    {
      "channel": 0,
      "note": 77,
      "start": 0.3246,
      "duration": 0.0163,
      "velocity": 104,
      "chip": "ym2612"
    },
    {
      "channel": 1,
      "note": 54,
      "start": 0.3258,
      "duration": 0.2221,
      "velocity": 95,
      "chip": "ym2612"
    },
    {
      "channel": 2,
      "note": 73,
      "start": 0.3269,
      "duration": 0.0124,
      "velocity": 104,
      "chip": "ym2612"
    },
    {
      "channel": 3,
      "note": 77,
      "start": 0.3281,
      "duration": 0.0139,
      "velocity": 104,
      "chip": "ym2612"
    },
    {
      "channel": 4,
      "note": 54,
      "start": 0.3292,
      "duration": 0.2198,
      "velocity": 95,
      "chip": "ym2612"
    },
    {
      "channel": 5,
      "note": 42,
      "start": 0.3303,
      "duration": 0.219,
      "velocity": 95,
      "chip": "ym2612"
    },
    {
      "channel": 0,
      "note": 82,
      "start": 0.3458,
      "duration": 0.0137,
      "velocity": 104,
      "chip": "ym2612"
    },
    {
      "channel": 2,
      "note": 72,
      "start": 0.3472,
      "duration": 0.0108,
      "velocity": 104,
      "chip": "ym2612"
    },
    {
      "channel": 3,
      "note": 82,
      "start": 0.3482,
      "duration": 0.0124,
      "velocity": 104,
      "chip": "ym2612"
    },
    {
      "channel": 0,
      "note": 77,
      "start": 0.3643,
      "duration": 0.0137,
      "velocity": 104,
      "chip": "ym2612"
    },
    {
      "channel": 2,
      "note": 70,
      "start": 0.3657,
      "duration": 0.0108,
      "velocity": 104,
      "chip": "ym2612"
    },
    {
      "channel": 3,
      "note": 77,
      "start": 0.3668,
      "duration": 0.0123,
      "velocity": 104,
      "chip": "ym2612"
    },
    {
      "channel": 0,
      "note": 84,
      "start": 0.3828,
      "duration": 0.0138,
      "velocity": 104,
      "chip": "ym2612"
    },
    {
      "channel": 2,
      "note": 65,
      "start": 0.3842,
      "duration": 0.0108,
      "velocity": 104,
      "chip": "ym2612"
    },
    {
      "channel": 3,
      "note": 84,
      "start": 0.3853,
      "duration": 0.0124,
      "velocity": 104,
      "chip": "ym2612"
    },
    {
      "channel": 0,
      "note": 77,
      "start": 0.4015,
      "duration": 0.0138,
      "velocity": 104,
      "chip": "ym2612"
    },
    {
      "channel": 2,
      "note": 70,
      "start": 0.4029,
      "duration": 0.0109,
      "velocity": 104,
      "chip": "ym2612"
    },
    {
      "channel": 3,
      "note": 77,
      "start": 0.4039,
      "duration": 0.0124,
      "velocity": 104,
      "chip": "ym2612"
    },
    {
      "channel": 0,
      "note": 85,
      "start": 0.4201,
      "duration": 0.0137,
      "velocity": 104,
      "chip": "ym2612"
    },
    {
      "channel": 2,
      "note": 72,
      "start": 0.4215,
      "duration": 0.0108,
      "velocity": 104,
      "chip": "ym2612"
    },
    {
      "channel": 3,
      "note": 85,
      "start": 0.4225,
      "duration": 0.0124,
      "velocity": 104,
      "chip": "ym2612"
    },
    {
      "channel": 0,
      "note": 77,
      "start": 0.4386,
      "duration": 0.0137,
      "velocity": 104,
      "chip": "ym2612"
    },
    {
      "channel": 2,
      "note": 73,
      "start": 0.44,
      "duration": 0.0108,
      "velocity": 104,
      "chip": "ym2612"
    },
    {
      "channel": 3,
      "note": 77,
      "start": 0.4411,
      "duration": 0.0124,
      "velocity": 104,
      "chip": "ym2612"
    },
    {
      "channel": 0,
      "note": 84,
      "start": 0.4573,
      "duration": 0.0137,
      "velocity": 104,
      "chip": "ym2612"
    },
    {
      "channel": 2,
      "note": 72,
      "start": 0.4587,
      "duration": 0.0108,
      "velocity": 104,
      "chip": "ym2612"
    },
    {
      "channel": 3,
      "note": 84,
      "start": 0.4597,
      "duration": 0.0124,
      "velocity": 104,
      "chip": "ym2612"
    },
    {
      "channel": 0,
      "note": 77,
      "start": 0.4758,
      "duration": 0.0137,
      "velocity": 104,
      "chip": "ym2612"
    },
    {
      "channel": 2,
      "note": 70,
      "start": 0.4772,
      "duration": 0.0108,
      "velocity": 104,
      "chip": "ym2612"
    },
    {
      "channel": 3,
      "note": 77,
      "start": 0.4782,
      "duration": 0.0124,
      "velocity": 104,
      "chip": "ym2612"
    },
    {
      "channel": 0,
      "note": 82,
      "start": 0.4943,
      "duration": 0.0138,
      "velocity": 104,
      "chip": "ym2612"
    },
    {
      "channel": 2,
      "note": 65,
      "start": 0.4957,
      "duration": 0.0108,
      "velocity": 104,
      "chip": "ym2612"
    },
    {
      "channel": 3,
      "note": 82,
      "start": 0.4968,
      "duration": 0.0124,
      "velocity": 104,
      "chip": "ym2612"
    },
    {
      "channel": 0,
      "note": 77,
      "start": 0.5129,
      "duration": 0.0138,
      "velocity": 104,
      "chip": "ym2612"
    },
    {
      "channel": 2,
      "note": 70,
      "start": 0.5143,
      "duration": 0.0108,
      "velocity": 104,
      "chip": "ym2612"
    },
    {
      "channel": 3,
      "note": 77,
      "start": 0.5154,
      "duration": 0.0124,
      "velocity": 104,
      "chip": "ym2612"
    },
    {
      "channel": 0,
      "note": 84,
      "start": 0.5315,
      "duration": 0.0138,
      "velocity": 104,
      "chip": "ym2612"
    },
    {
      "channel": 2,
      "note": 72,
      "start": 0.5329,
      "duration": 0.0108,
      "velocity": 104,
      "chip": "ym2612"
    },
    {
      "channel": 3,
      "note": 84,
      "start": 0.534,
      "duration": 0.0124,
      "velocity": 104,
      "chip": "ym2612"
    },
    {
      "channel": 0,
      "note": 77,
      "start": 0.5505,
      "duration": 0.0159,
      "velocity": 104,
      "chip": "ym2612"
    },
    {
      "channel": 1,
      "note": 53,
      "start": 0.5515,
      "duration": 0.0731,
      "velocity": 95,
      "chip": "ym2612"
    },
    {
      "channel": 2,
      "note": 73,
      "start": 0.5526,
      "duration": 0.0123,
      "velocity": 104,
      "chip": "ym2612"
    },
    {
      "channel": 3,
      "note": 77,
      "start": 0.5537,
      "duration": 0.0138,
      "velocity": 104,
      "chip": "ym2612"
    },
    {
      "channel": 4,
      "note": 53,
      "start": 0.5547,
      "duration": 0.071,
      "velocity": 95,
      "chip": "ym2612"
    },
    {
      "channel": 5,
      "note": 41,
      "start": 0.5558,
      "duration": 0.0703,
      "velocity": 95,
      "chip": "ym2612"
    },
    {
      "channel": 0,
      "note": 85,
      "start": 0.5712,
      "duration": 0.0138,
      "velocity": 104,
      "chip": "ym2612"
    },
    {
      "channel": 2,
      "note": 72,
      "start": 0.5726,
      "duration": 0.0108,
      "velocity": 104,
      "chip": "ym2612"
    },
    {
      "channel": 3,
      "note": 85,
      "start": 0.5736,
      "duration": 0.0124,
      "velocity": 104,
      "chip": "ym2612"
    },
    {
      "channel": 0,
      "note": 77,
      "start": 0.5898,
      "duration": 0.0138,
      "velocity": 104,
      "chip": "ym2612"
    },
    {
      "channel": 2,
      "note": 70,
      "start": 0.5912,
      "duration": 0.0108,
      "velocity": 104,
      "chip": "ym2612"
    },
    {
      "channel": 3,
      "note": 77,
      "start": 0.5922,
      "duration": 0.0124,
      "velocity": 104,
      "chip": "ym2612"
    },
    {
      "channel": 0,
      "note": 84,
      "start": 0.6084,
      "duration": 0.0137,
      "velocity": 104,
      "chip": "ym2612"
    },
    {
      "channel": 2,
      "note": 65,
      "start": 0.6098,
      "duration": 0.0107,
      "velocity": 104,
      "chip": "ym2612"
    },
    {
      "channel": 3,
      "note": 84,
      "start": 0.6108,
      "duration": 0.0123,
      "velocity": 104,
      "chip": "ym2612"
    },
    {
      "channel": 0,
      "note": 77,
      "start": 0.6272,
      "duration": 0.0163,
      "velocity": 104,
      "chip": "ym2612"
    },
    {
      "channel": 1,
      "note": 48,
      "start": 0.6283,
      "duration": 0.5952,
      "velocity": 95,
      "chip": "ym2612"
    },
    {
      "channel": 2,
      "note": 70,
      "start": 0.6295,
      "duration": 0.0125,
      "velocity": 104,
      "chip": "ym2612"
    },
    {
      "channel": 3,
      "note": 77,
      "start": 0.6306,
      "duration": 0.014,
      "velocity": 104,
      "chip": "ym2612"
    },
    {
      "channel": 4,
      "note": 48,
      "start": 0.6317,
      "duration": 0.5929,
      "velocity": 95,
      "chip": "ym2612"
    },
    {
      "channel": 5,
      "note": 36,
      "start": 0.6329,
      "duration": 0.5922,
      "velocity": 95,
      "chip": "ym2612"
    },
    {
      "channel": 0,
      "note": 82,
      "start": 0.6483,
      "duration": 0.0138,
      "velocity": 104,
      "chip": "ym2612"
    },
    {
      "channel": 2,
      "note": 72,
      "start": 0.6498,
      "duration": 0.0108,
      "velocity": 104,
      "chip": "ym2612"
    },
    {
      "channel": 3,
      "note": 82,
      "start": 0.6508,
      "duration": 0.0124,
      "velocity": 104,
      "chip": "ym2612"
    },
    {
      "channel": 0,
      "note": 77,
      "start": 0.6669,
      "duration": 0.0138,
      "velocity": 104,
      "chip": "ym2612"
    },
    {
      "channel": 2,
      "note": 73,
      "start": 0.6683,
      "duration": 0.0108,
      "velocity": 104,
      "chip": "ym2612"
    },
    {
      "channel": 3,
      "note": 77,
      "start": 0.6694,
      "duration": 0.0124,
      "velocity": 104,
      "chip": "ym2612"
    },
    {
      "channel": 0,
      "note": 84,
      "start": 0.6856,
      "duration": 0.0138,
      "velocity": 104,
      "chip": "ym2612"
    },
    {
      "channel": 2,
      "note": 72,
      "start": 0.687,
      "duration": 0.0108,
      "velocity": 104,
      "chip": "ym2612"
    },
    {
      "channel": 3,
      "note": 84,
      "start": 0.688,
      "duration": 0.0124,
      "velocity": 104,
      "chip": "ym2612"
    },
    {
      "channel": 0,
      "note": 77,
      "start": 0.7042,
      "duration": 0.0137,
      "velocity": 104,
      "chip": "ym2612"
    },
    {
      "channel": 2,
      "note": 70,
      "start": 0.7056,
      "duration": 0.0108,
      "velocity": 104,
      "chip": "ym2612"
    },
    {
      "channel": 3,
      "note": 77,
      "start": 0.7066,
      "duration": 0.0123,
      "velocity": 104,
      "chip": "ym2612"
    },
    {
      "channel": 0,
      "note": 85,
      "start": 0.7227,
      "duration": 0.0137,
      "velocity": 104,
      "chip": "ym2612"
    },
    {
      "channel": 2,
      "note": 65,
      "start": 0.7241,
      "duration": 0.0108,
      "velocity": 104,
      "chip": "ym2612"
    },
    {
      "channel": 3,
      "note": 85,
      "start": 0.7251,
      "duration": 0.0124,
      "velocity": 104,
      "chip": "ym2612"
    },
    {
      "channel": 0,
      "note": 77,
      "start": 0.7413,
      "duration": 0.0138,
      "velocity": 104,
      "chip": "ym2612"
    },
    {
      "channel": 2,
      "note": 70,
      "start": 0.7427,
      "duration": 0.0108,
      "velocity": 104,
      "chip": "ym2612"
    },
    {
      "channel": 3,
      "note": 77,
      "start": 0.7437,
      "duration": 0.0124,
      "velocity": 104,
      "chip": "ym2612"
    },
    {
      "channel": 0,
      "note": 84,
      "start": 0.7599,
      "duration": 0.0137,
      "velocity": 104,
      "chip": "ym2612"
    },
    {
      "channel": 2,
      "note": 72,
      "start": 0.7613,
      "duration": 0.0107,
      "velocity": 104,
      "chip": "ym2612"
    },
    {
      "channel": 3,
      "note": 84,
      "start": 0.7623,
      "duration": 0.0123,
      "velocity": 104,
      "chip": "ym2612"
    },
    {
      "channel": 0,
      "note": 77,
      "start": 0.7784,
      "duration": 0.0137,
      "velocity": 104,
      "chip": "ym2612"
    },
    {
      "channel": 2,
      "note": 73,
      "start": 0.7798,
      "duration": 0.0108,
      "velocity": 104,
      "chip": "ym2612"
    },
    {
      "channel": 3,
      "note": 77,
      "start": 0.7809,
      "duration": 0.0124,
      "velocity": 104,
      "chip": "ym2612"
    },
    {
      "channel": 0,
      "note": 82,
      "start": 0.797,
      "duration": 0.0137,
      "velocity": 104,
      "chip": "ym2612"
    },
    {
      "channel": 2,
      "note": 72,
      "start": 0.7984,
      "duration": 0.0108,
      "velocity": 104,
      "chip": "ym2612"
    },
    {
      "channel": 3,
      "note": 82,
      "start": 0.7994,
      "duration": 0.0124,
      "velocity": 104,
      "chip": "ym2612"
    },
    {
      "channel": 0,
      "note": 77,
      "start": 0.8155,
      "duration": 0.0137,
      "velocity": 104,
      "chip": "ym2612"
    },
    {
      "channel": 2,
      "note": 70,
      "start": 0.8169,
      "duration": 0.0108,
      "velocity": 104,
      "chip": "ym2612"
    },
    {
      "channel": 3,
      "note": 77,
      "start": 0.8179,
      "duration": 0.0124,
      "velocity": 104,
      "chip": "ym2612"
    },
    {
      "channel": 0,
      "note": 84,
      "start": 0.834,
      "duration": 0.0138,
      "velocity": 104,
      "chip": "ym2612"
    },
    {
      "channel": 2,
      "note": 65,
      "start": 0.8354,
      "duration": 0.0109,
      "velocity": 104,
      "chip": "ym2612"
    },
    {
      "channel": 3,
      "note": 84,
      "start": 0.8365,
      "duration": 0.0124,
      "velocity": 104,
      "chip": "ym2612"
    },
    {
      "channel": 0,
      "note": 77,
      "start": 0.8526,
      "duration": 0.0137,
      "velocity": 104,
      "chip": "ym2612"
    },
    {
      "channel": 2,
      "note": 70,
      "start": 0.854,
      "duration": 0.0108,
      "velocity": 104,
      "chip": "ym2612"
    },
    {
      "channel": 3,
      "note": 77,
      "start": 0.8551,
      "duration": 0.0123,
      "velocity": 104,
      "chip": "ym2612"
    },
    {
      "channel": 0,
      "note": 85,
      "start": 0.8711,
      "duration": 0.0137,
      "velocity": 104,
      "chip": "ym2612"
    },
    {
      "channel": 2,
      "note": 72,
      "start": 0.8725,
      "duration": 0.0108,
      "velocity": 104,
      "chip": "ym2612"
    },
    {
      "channel": 3,
      "note": 85,
      "start": 0.8736,
      "duration": 0.0124,
      "velocity": 104,
      "chip": "ym2612"
    },
    {
      "channel": 0,
      "note": 77,
      "start": 0.8898,
      "duration": 0.0138,
      "velocity": 104,
      "chip": "ym2612"
    },
    {
      "channel": 2,
      "note": 73,
      "start": 0.8912,
      "duration": 0.0109,
      "velocity": 104,
      "chip": "ym2612"
    },
    {
      "channel": 3,
      "note": 77,
      "start": 0.8922,
      "duration": 0.0124,
      "velocity": 104,
      "chip": "ym2612"
    },
    {
      "channel": 0,
      "note": 84,
      "start": 0.9083,
      "duration": 0.0138,
      "velocity": 104,
      "chip": "ym2612"
    },
    {
      "channel": 2,
      "note": 72,
      "start": 0.9098,
      "duration": 0.0108,
      "velocity": 104,
      "chip": "ym2612"
    },
    {
      "channel": 3,
      "note": 84,
      "start": 0.9108,
      "duration": 0.0124,
      "velocity": 104,
      "chip": "ym2612"
    },
    {
      "channel": 0,
      "note": 77,
      "start": 0.9269,
      "duration": 0.0155,
      "velocity": 104,
      "chip": "ym2612"
    },
    {
      "channel": 2,
      "note": 70,
      "start": 0.9289,
      "duration": 0.012,
      "velocity": 104,
      "chip": "ym2612"
    },
    {
      "channel": 3,
      "note": 77,
      "start": 0.93,
      "duration": 0.0135,
      "velocity": 104,
      "chip": "ym2612"
    },
    {
      "channel": 0,
      "note": 82,
      "start": 0.9472,
      "duration": 0.0137,
      "velocity": 104,
      "chip": "ym2612"
    },
    {
      "channel": 2,
      "note": 65,
      "start": 0.9486,
      "duration": 0.0108,
      "velocity": 104,
      "chip": "ym2612"
    },
    {
      "channel": 3,
      "note": 82,
      "start": 0.9497,
      "duration": 0.0124,
      "velocity": 104,
      "chip": "ym2612"
    },
    {
      "channel": 0,
      "note": 77,
      "start": 0.9658,
      "duration": 0.0138,
      "velocity": 104,
      "chip": "ym2612"
    },
    {
      "channel": 2,
      "note": 70,
      "start": 0.9672,
      "duration": 0.0108,
      "velocity": 104,
      "chip": "ym2612"
    },
    {
      "channel": 3,
      "note": 77,
      "start": 0.9682,
      "duration": 0.0124,
      "velocity": 104,
      "chip": "ym2612"
    },
    {
      "channel": 0,
      "note": 84,
      "start": 0.9844,
      "duration": 0.0137,
      "velocity": 104,
      "chip": "ym2612"
    },
    {
      "channel": 2,
      "note": 72,
      "start": 0.9858,
      "duration": 0.0108,
      "velocity": 104,
      "chip": "ym2612"
    },
    {
      "channel": 3,
      "note": 84,
      "start": 0.9868,
      "duration": 0.0124,
      "velocity": 104,
      "chip": "ym2612"
    },
    {
      "channel": 0,
      "note": 77,
      "start": 1.0029,
      "duration": 0.0138,
      "velocity": 104,
      "chip": "ym2612"
    },
    {
      "channel": 2,
      "note": 73,
      "start": 1.0044,
      "duration": 0.0108,
      "velocity": 104,
      "chip": "ym2612"
    },
    {
      "channel": 3,
      "note": 77,
      "start": 1.0054,
      "duration": 0.0124,
      "velocity": 104,
      "chip": "ym2612"
    },
    {
      "channel": 0,
      "note": 85,
      "start": 1.0215,
      "duration": 0.0138,
      "velocity": 104,
      "chip": "ym2612"
    },
    {
      "channel": 2,
      "note": 72,
      "start": 1.0229,
      "duration": 0.0109,
      "velocity": 104,
      "chip": "ym2612"
    },
    {
      "channel": 3,
      "note": 85,
      "start": 1.024,
      "duration": 0.0124,
      "velocity": 104,
      "chip": "ym2612"
    },
    {
      "channel": 0,
      "note": 77,
      "start": 1.0401,
      "duration": 0.0138,
      "velocity": 104,
      "chip": "ym2612"
    },
    {
      "channel": 2,
      "note": 70,
      "start": 1.0415,
      "duration": 0.0108,
      "velocity": 104,
      "chip": "ym2612"
    },
    {
      "channel": 3,
      "note": 77,
      "start": 1.0426,
      "duration": 0.0124,
      "velocity": 104,
      "chip": "ym2612"
    },
    {
      "channel": 0,
      "note": 84,
      "start": 1.0588,
      "duration": 0.0137,
      "velocity": 104,
      "chip": "ym2612"
    },
    {
      "channel": 2,
      "note": 65,
      "start": 1.0602,
      "duration": 0.0108,
      "velocity": 104,
      "chip": "ym2612"
    },
    {
      "channel": 3,
      "note": 84,
      "start": 1.0612,
      "duration": 0.0124,
      "velocity": 104,
      "chip": "ym2612"
    },
    {
      "channel": 0,
      "note": 77,
      "start": 1.0773,
      "duration": 0.0137,
      "velocity": 104,
      "chip": "ym2612"
    },
    {
      "channel": 2,
      "note": 70,
      "start": 1.0788,
      "duration": 0.0108,
      "velocity": 104,
      "chip": "ym2612"
    },
    {
      "channel": 3,
      "note": 77,
      "start": 1.0798,
      "duration": 0.0124,
      "velocity": 104,
      "chip": "ym2612"
    },
    {
      "channel": 0,
      "note": 82,
      "start": 1.0959,
      "duration": 0.0137,
      "velocity": 104,
      "chip": "ym2612"
    },
    {
      "channel": 2,
      "note": 72,
      "start": 1.0973,
      "duration": 0.0108,
      "velocity": 104,
      "chip": "ym2612"
    },
    {
      "channel": 3,
      "note": 82,
      "start": 1.0983,
      "duration": 0.0124,
      "velocity": 104,
      "chip": "ym2612"
    },
    {
      "channel": 0,
      "note": 77,
      "start": 1.1144,
      "duration": 0.0137,
      "velocity": 104,
      "chip": "ym2612"
    },
    {
      "channel": 2,
      "note": 73,
      "start": 1.1158,
      "duration": 0.0108,
      "velocity": 104,
      "chip": "ym2612"
    },
    {
      "channel": 3,
      "note": 77,
      "start": 1.1168,
      "duration": 0.0124,
      "velocity": 104,
      "chip": "ym2612"
    },
    {
      "channel": 0,
      "note": 84,
      "start": 1.133,
      "duration": 0.0137,
      "velocity": 104,
      "chip": "ym2612"
    },
    {
      "channel": 2,
      "note": 72,
      "start": 1.1344,
      "duration": 0.0108,
      "velocity": 104,
      "chip": "ym2612"
    },
    {
      "channel": 3,
      "note": 84,
      "start": 1.1355,
      "duration": 0.0124,
      "velocity": 104,
      "chip": "ym2612"
    },
    {
      "channel": 0,
      "note": 77,
      "start": 1.1516,
      "duration": 0.0137,
      "velocity": 104,
      "chip": "ym2612"
    },
    {
      "channel": 2,
      "note": 70,
      "start": 1.153,
      "duration": 0.0108,
      "velocity": 104,
      "chip": "ym2612"
    },
    {
      "channel": 3,
      "note": 77,
      "start": 1.154,
      "duration": 0.0123,
      "velocity": 104,
      "chip": "ym2612"
    },
    {
      "channel": 0,
      "note": 85,
      "start": 1.1701,
      "duration": 0.0137,
      "velocity": 104,
      "chip": "ym2612"
    },
    {
      "channel": 2,
      "note": 65,
      "start": 1.1715,
      "duration": 0.0108,
      "velocity": 104,
      "chip": "ym2612"
    },
    {
      "channel": 3,
      "note": 85,
      "start": 1.1726,
      "duration": 0.0124,
      "velocity": 104,
      "chip": "ym2612"
    },
    {
      "channel": 0,
      "note": 77,
      "start": 1.1888,
      "duration": 0.0138,
      "velocity": 104,
      "chip": "ym2612"
    },
    {
      "channel": 2,
      "note": 70,
      "start": 1.1902,
      "duration": 0.0108,
      "velocity": 104,
      "chip": "ym2612"
    },
    {
      "channel": 3,
      "note": 77,
      "start": 1.1912,
      "duration": 0.0124,
      "velocity": 104,
      "chip": "ym2612"
    },
    {
      "channel": 0,
      "note": 84,
      "start": 1.2073,
      "duration": 0.0137,
      "velocity": 104,
      "chip": "ym2612"
    },
    {
      "channel": 2,
      "note": 72,
      "start": 1.2088,
      "duration": 0.0107,
      "velocity": 104,
      "chip": "ym2612"
    },
    {
      "channel": 3,
      "note": 84,
      "start": 1.2098,
      "duration": 0.0123,
      "velocity": 104,
      "chip": "ym2612"
    },
    {
      "channel": 0,
      "note": 77,
      "start": 1.2262,
      "duration": 0.0163,
      "velocity": 104,
      "chip": "ym2612"
    },
    {
      "channel": 1,
      "note": 51,
      "start": 1.2273,
      "duration": 0.1478,
      "velocity": 95,
      "chip": "ym2612"
    },
    {
      "channel": 2,
      "note": 73,
      "start": 1.2285,
      "duration": 0.0124,
      "velocity": 104,
      "chip": "ym2612"
    },
    {
      "channel": 3,
      "note": 77,
      "start": 1.2296,
      "duration": 0.0139,
      "velocity": 104,
      "chip": "ym2612"
    },
    {
      "channel": 4,
      "note": 51,
      "start": 1.2307,
      "duration": 0.1454,
      "velocity": 95,
      "chip": "ym2612"
    },
    {
      "channel": 5,
      "note": 39,
      "start": 1.2318,
      "duration": 0.1447,
      "velocity": 95,
      "chip": "ym2612"
    },
    {
      "channel": 0,
      "note": 82,
      "start": 1.2473,
      "duration": 0.0137,
      "velocity": 104,
      "chip": "ym2612"
    },
    {
      "channel": 2,
      "note": 72,
      "start": 1.2487,
      "duration": 0.0108,
      "velocity": 104,
      "chip": "ym2612"
    },
    {
      "channel": 3,
      "note": 82,
      "start": 1.2498,
      "duration": 0.0123,
      "velocity": 104,
      "chip": "ym2612"
    },
    {
      "channel": 0,
      "note": 77,
      "start": 1.2658,
      "duration": 0.0138,
      "velocity": 104,
      "chip": "ym2612"
    },
    {
      "channel": 2,
      "note": 70,
      "start": 1.2672,
      "duration": 0.0108,
      "velocity": 104,
      "chip": "ym2612"
    },
    {
      "channel": 3,
      "note": 77,
      "start": 1.2683,
      "duration": 0.0124,
      "velocity": 104,
      "chip": "ym2612"
    },
    {
      "channel": 0,
      "note": 84,
      "start": 1.2844,
      "duration": 0.0137,
      "velocity": 104,
      "chip": "ym2612"
    },
    {
      "channel": 2,
      "note": 65,
      "start": 1.2858,
      "duration": 0.0108,
      "velocity": 104,
      "chip": "ym2612"
    },
    {
      "channel": 3,
      "note": 84,
      "start": 1.2868,
      "duration": 0.0124,
      "velocity": 104,
      "chip": "ym2612"
    },
    {
      "channel": 0,
      "note": 77,
      "start": 1.3029,
      "duration": 0.0138,
      "velocity": 104,
      "chip": "ym2612"
    },
    {
      "channel": 2,
      "note": 70,
      "start": 1.3044,
      "duration": 0.0108,
      "velocity": 104,
      "chip": "ym2612"
    },
    {
      "channel": 3,
      "note": 77,
      "start": 1.3054,
      "duration": 0.0124,
      "velocity": 104,
      "chip": "ym2612"
    },
    {
      "channel": 0,
      "note": 85,
      "start": 1.3216,
      "duration": 0.0137,
      "velocity": 104,
      "chip": "ym2612"
    },
    {
      "channel": 2,
      "note": 72,
      "start": 1.323,
      "duration": 0.0108,
      "velocity": 104,
      "chip": "ym2612"
    },
    {
      "channel": 3,
      "note": 85,
      "start": 1.324,
      "duration": 0.0124,
      "velocity": 104,
      "chip": "ym2612"
    },
    {
      "channel": 0,
      "note": 77,
      "start": 1.3401,
      "duration": 0.0138,
      "velocity": 104,
      "chip": "ym2612"
    },
    {
      "channel": 2,
      "note": 73,
      "start": 1.3415,
      "duration": 0.0108,
      "velocity": 104,
      "chip": "ym2612"
    },
    {
      "channel": 3,
      "note": 77,
      "start": 1.3426,
      "duration": 0.0124,
      "velocity": 104,
      "chip": "ym2612"
    },
    {
      "channel": 0,
      "note": 84,
      "start": 1.3587,
      "duration": 0.0138,
      "velocity": 104,
      "chip": "ym2612"
    },
    {
      "channel": 2,
      "note": 72,
      "start": 1.3601,
      "duration": 0.0109,
      "velocity": 104,
      "chip": "ym2612"
    },
    {
      "channel": 3,
      "note": 84,
      "start": 1.3612,
      "duration": 0.0124,
      "velocity": 104,
      "chip": "ym2612"
    },
    {
      "channel": 0,
      "note": 77,
      "start": 1.3776,
      "duration": 0.0159,
      "velocity": 104,
      "chip": "ym2612"
    },
    {
      "channel": 1,
      "note": 46,
      "start": 1.3786,
      "duration": 0.0733,
      "velocity": 95,
      "chip": "ym2612"
    },
    {
      "channel": 2,
      "note": 70,
      "start": 1.3797,
      "duration": 0.0123,
      "velocity": 104,
      "chip": "ym2612"
    },
    {
      "channel": 3,
      "note": 77,
      "start": 1.3808,
      "duration": 0.0139,
      "velocity": 104,
      "chip": "ym2612"
    },
    {
      "channel": 4,
      "note": 46,
      "start": 1.3818,
      "duration": 0.0711,
      "velocity": 95,
      "chip": "ym2612"
    },
    {
      "channel": 5,
      "note": 34,
      "start": 1.3829,
      "duration": 0.0705,
      "velocity": 95,
      "chip": "ym2612"
    },
    {
      "channel": 0,
      "note": 82,
      "start": 1.3984,
      "duration": 0.0137,
      "velocity": 104,
      "chip": "ym2612"
    },
    {
      "channel": 2,
      "note": 65,
      "start": 1.3998,
      "duration": 0.0108,
      "velocity": 104,
      "chip": "ym2612"
    },
    {
      "channel": 3,
      "note": 82,
      "start": 1.4009,
      "duration": 0.0124,
      "velocity": 104,
      "chip": "ym2612"
    },
    {
      "channel": 0,
      "note": 77,
      "start": 1.417,
      "duration": 0.0137,
      "velocity": 104,
      "chip": "ym2612"
    },
    {
      "channel": 2,
      "note": 70,
      "start": 1.4184,
      "duration": 0.0108,
      "velocity": 104,
      "chip": "ym2612"
    },
    {
      "channel": 3,
      "note": 77,
      "start": 1.4194,
      "duration": 0.0124,
      "velocity": 104,
      "chip": "ym2612"
    },
    {
      "channel": 0,
      "note": 84,
      "start": 1.4356,
      "duration": 0.0137,
      "velocity": 104,
      "chip": "ym2612"
    },
    {
      "channel": 2,
      "note": 72,
      "start": 1.437,
      "duration": 0.0108,
      "velocity": 104,
      "chip": "ym2612"
    },
    {
      "channel": 3,
      "note": 84,
      "start": 1.438,
      "duration": 0.0124,
      "velocity": 104,
      "chip": "ym2612"
    },
    {
      "channel": 0,
      "note": 77,
      "start": 1.4545,
      "duration": 0.0159,
      "velocity": 104,
      "chip": "ym2612"
    },
    {
      "channel": 1,
      "note": 45,
      "start": 1.4555,
      "duration": 0.0732,
      "velocity": 95,
      "chip": "ym2612"
    },
    {
      "channel": 2,
      "note": 73,
      "start": 1.4566,
      "duration": 0.0123,
      "velocity": 104,
      "chip": "ym2612"
    },
    {
      "channel": 3,
      "note": 77,
      "start": 1.4576,
      "duration": 0.0139,
      "velocity": 104,
      "chip": "ym2612"
    },
    {
      "channel": 4,
      "note": 45,
      "start": 1.4587,
      "duration": 0.071,
      "velocity": 95,
      "chip": "ym2612"
    },
    {
      "channel": 5,
      "note": 33,
      "start": 1.4598,
      "duration": 0.0704,
      "velocity": 95,
      "chip": "ym2612"
    },
    {
      "channel": 0,
      "note": 85,
      "start": 1.4753,
      "duration": 0.0137,
      "velocity": 104,
      "chip": "ym2612"
    },
    {
      "channel": 2,
      "note": 72,
      "start": 1.4767,
      "duration": 0.0108,
      "velocity": 104,
      "chip": "ym2612"
    },
    {
      "channel": 3,
      "note": 85,
      "start": 1.4777,
      "duration": 0.0124,
      "velocity": 104,
      "chip": "ym2612"
    },
    {
      "channel": 0,
      "note": 77,
      "start": 1.4938,
      "duration": 0.0137,
      "velocity": 104,
      "chip": "ym2612"
    },
    {
      "channel": 2,
      "note": 70,
      "start": 1.4952,
      "duration": 0.0108,
      "velocity": 104,
      "chip": "ym2612"
    },
    {
      "channel": 3,
      "note": 77,
      "start": 1.4962,
      "duration": 0.0124,
      "velocity": 104,
      "chip": "ym2612"
    },
    {
      "channel": 0,
      "note": 84,
      "start": 1.5124,
      "duration": 0.0138,
      "velocity": 104,
      "chip": "ym2612"
    },
    {
      "channel": 2,
      "note": 65,
      "start": 1.5138,
      "duration": 0.0108,
      "velocity": 104,
      "chip": "ym2612"
    },
    {
      "channel": 3,
      "note": 84,
      "start": 1.5148,
      "duration": 0.0124,
      "velocity": 104,
      "chip": "ym2612"
    },
    {
      "channel": 0,
      "note": 77,
      "start": 1.5312,
      "duration": 0.0164,
      "velocity": 104,
      "chip": "ym2612"
    },
    {
      "channel": 1,
      "note": 54,
      "start": 1.5324,
      "duration": 0.222,
      "velocity": 95,
      "chip": "ym2612"
    },
    {
      "channel": 2,
      "note": 70,
      "start": 1.5335,
      "duration": 0.0126,
      "velocity": 104,
      "chip": "ym2612"
    },
    {
      "channel": 3,
      "note": 77,
      "start": 1.5347,
      "duration": 0.014,
      "velocity": 104,
      "chip": "ym2612"
    },
    {
      "channel": 4,
      "note": 54,
      "start": 1.5358,
      "duration": 0.2196,
      "velocity": 95,
      "chip": "ym2612"
    },
    {
      "channel": 5,
      "note": 42,
      "start": 1.5369,
      "duration": 0.2189,
      "velocity": 95,
      "chip": "ym2612"
    },
    {
      "channel": 0,
      "note": 82,
      "start": 1.5525,
      "duration": 0.0137,
      "velocity": 104,
      "chip": "ym2612"
    },
    {
      "channel": 2,
      "note": 72,
      "start": 1.5539,
      "duration": 0.0108,
      "velocity": 104,
      "chip": "ym2612"
    },
    {
      "channel": 3,
      "note": 82,
      "start": 1.5549,
      "duration": 0.0124,
      "velocity": 104,
      "chip": "ym2612"
    },
    {
      "channel": 0,
      "note": 77,
      "start": 1.5711,
      "duration": 0.0137,
      "velocity": 104,
      "chip": "ym2612"
    },
    {
      "channel": 2,
      "note": 73,
      "start": 1.5725,
      "duration": 0.0108,
      "velocity": 104,
      "chip": "ym2612"
    },
    {
      "channel": 3,
      "note": 77,
      "start": 1.5735,
      "duration": 0.0124,
      "velocity": 104,
      "chip": "ym2612"
    },
    {
      "channel": 0,
      "note": 84,
      "start": 1.5896,
      "duration": 0.0137,
      "velocity": 104,
      "chip": "ym2612"
    },
    {
      "channel": 2,
      "note": 72,
      "start": 1.591,
      "duration": 0.0108,
      "velocity": 104,
      "chip": "ym2612"
    },
    {
      "channel": 3,
      "note": 84,
      "start": 1.592,
      "duration": 0.0124,
      "velocity": 104,
      "chip": "ym2612"
    },
    {
      "channel": 0,
      "note": 77,
      "start": 1.6081,
      "duration": 0.0138,
      "velocity": 104,
      "chip": "ym2612"
    },
    {
      "channel": 2,
      "note": 70,
      "start": 1.6095,
      "duration": 0.0109,
      "velocity": 104,
      "chip": "ym2612"
    },
    {
      "channel": 3,
      "note": 77,
      "start": 1.6106,
      "duration": 0.0124,
      "velocity": 104,
      "chip": "ym2612"
    },
    {
      "channel": 0,
      "note": 85,
      "start": 1.6268,
      "duration": 0.0137,
      "velocity": 104,
      "chip": "ym2612"
    },
    {
      "channel": 2,
      "note": 65,
      "start": 1.6282,
      "duration": 0.0108,
      "velocity": 104,
      "chip": "ym2612"
    },
    {
      "channel": 3,
      "note": 85,
      "start": 1.6292,
      "duration": 0.0124,
      "velocity": 104,
      "chip": "ym2612"
    },
    {
      "channel": 0,
      "note": 77,
      "start": 1.6454,
      "duration": 0.0137,
      "velocity": 104,
      "chip": "ym2612"
    },
    {
      "channel": 2,
      "note": 70,
      "start": 1.6468,
      "duration": 0.0107,
      "velocity": 104,
      "chip": "ym2612"
    },
    {
      "channel": 3,
      "note": 77,
      "start": 1.6478,
      "duration": 0.0124,
      "velocity": 104,
      "chip": "ym2612"
    },
    {
      "channel": 0,
      "note": 84,
      "start": 1.6639,
      "duration": 0.0137,
      "velocity": 104,
      "chip": "ym2612"
    },
    {
      "channel": 2,
      "note": 72,
      "start": 1.6653,
      "duration": 0.0108,
      "velocity": 104,
      "chip": "ym2612"
    },
    {
      "channel": 3,
      "note": 84,
      "start": 1.6663,
      "duration": 0.0123,
      "velocity": 104,
      "chip": "ym2612"
    },
    {
      "channel": 0,
      "note": 77,
      "start": 1.6824,
      "duration": 0.0137,
      "velocity": 104,
      "chip": "ym2612"
    },
    {
      "channel": 2,
      "note": 73,
      "start": 1.6838,
      "duration": 0.0107,
      "velocity": 104,
      "chip": "ym2612"
    },
    {
      "channel": 3,
      "note": 77,
      "start": 1.6849,
      "duration": 0.0123,
      "velocity": 104,
      "chip": "ym2612"
    },
    {
      "channel": 0,
      "note": 82,
      "start": 1.701,
      "duration": 0.0137,
      "velocity": 104,
      "chip": "ym2612"
    },
    {
      "channel": 2,
      "note": 72,
      "start": 1.7024,
      "duration": 0.0108,
      "velocity": 104,
      "chip": "ym2612"
    },
    {
      "channel": 3,
      "note": 82,
      "start": 1.7034,
      "duration": 0.0124,
      "velocity": 104,
      "chip": "ym2612"
    },
    {
      "channel": 0,
      "note": 77,
      "start": 1.7195,
      "duration": 0.0137,
      "velocity": 104,
      "chip": "ym2612"
    },
    {
      "channel": 2,
      "note": 70,
      "start": 1.7209,
      "duration": 0.0108,
      "velocity": 104,
      "chip": "ym2612"
    },
    {
      "channel": 3,
      "note": 77,
      "start": 1.722,
      "duration": 0.0123,
      "velocity": 104,
      "chip": "ym2612"
    },
    {
      "channel": 0,
      "note": 84,
      "start": 1.738,
      "duration": 0.0138,
      "velocity": 104,
      "chip": "ym2612"
    },
    {
      "channel": 2,
      "note": 65,
      "start": 1.7394,
      "duration": 0.0108,
      "velocity": 104,
      "chip": "ym2612"
    },
    {
      "channel": 3,
      "note": 84,
      "start": 1.7405,
      "duration": 0.0124,
      "velocity": 104,
      "chip": "ym2612"
    },
    {
      "channel": 0,
      "note": 77,
      "start": 1.757,
      "duration": 0.0159,
      "velocity": 104,
      "chip": "ym2612"
    },
    {
      "channel": 1,
      "note": 53,
      "start": 1.758,
      "duration": 0.0732,
      "velocity": 95,
      "chip": "ym2612"
    },
    {
      "channel": 2,
      "note": 70,
      "start": 1.7591,
      "duration": 0.0123,
      "velocity": 104,
      "chip": "ym2612"
    },
    {
      "channel": 3,
      "note": 77,
      "start": 1.7601,
      "duration": 0.0138,
      "velocity": 104,
      "chip": "ym2612"
    },
    {
      "channel": 4,
      "note": 53,
      "start": 1.7612,
      "duration": 0.0711,
      "velocity": 95,
      "chip": "ym2612"
    },
    {
      "channel": 5,
      "note": 41,
      "start": 1.7622,
      "duration": 0.0704,
      "velocity": 95,
      "chip": "ym2612"
    },
    {
      "channel": 0,
      "note": 85,
      "start": 1.7777,
      "duration": 0.0137,
      "velocity": 104,
      "chip": "ym2612"
    },
    {
      "channel": 2,
      "note": 72,
      "start": 1.7791,
      "duration": 0.0108,
      "velocity": 104,
      "chip": "ym2612"
    },
    {
      "channel": 3,
      "note": 85,
      "start": 1.7802,
      "duration": 0.0124,
      "velocity": 104,
      "chip": "ym2612"
    },
    {
      "channel": 0,
      "note": 77,
      "start": 1.7963,
      "duration": 0.0137,
      "velocity": 104,
      "chip": "ym2612"
    },
    {
      "channel": 2,
      "note": 73,
      "start": 1.7978,
      "duration": 0.0108,
      "velocity": 104,
      "chip": "ym2612"
    },
    {
      "channel": 3,
      "note": 77,
      "start": 1.7988,
      "duration": 0.0124,
      "velocity": 104,
      "chip": "ym2612"
    },
    {
      "channel": 0,
      "note": 84,
      "start": 1.8149,
      "duration": 0.0137,
      "velocity": 104,
      "chip": "ym2612"
    },
    {
      "channel": 2,
      "note": 72,
      "start": 1.8163,
      "duration": 0.0108,
      "velocity": 104,
      "chip": "ym2612"
    },
    {
      "channel": 3,
      "note": 84,
      "start": 1.8173,
      "duration": 0.0124,
      "velocity": 104,
      "chip": "ym2612"
    },
    {
      "channel": 0,
      "note": 77,
      "start": 1.8338,
      "duration": 0.0163,
      "velocity": 104,
      "chip": "ym2612"
    },
    {
      "channel": 1,
      "note": 48,
      "start": 1.8349,
      "duration": 0.5955,
      "velocity": 95,
      "chip": "ym2612"
    },
    {
      "channel": 2,
      "note": 70,
      "start": 1.8361,
      "duration": 0.0125,
      "velocity": 104,
      "chip": "ym2612"
    },
    {
      "channel": 3,
      "note": 77,
      "start": 1.8372,
      "duration": 0.0139,
      "velocity": 104,
      "chip": "ym2612"
    },
    {
      "channel": 4,
      "note": 48,
      "start": 1.8383,
      "duration": 0.5932,
      "velocity": 95,
      "chip": "ym2612"
    },
    {
      "channel": 5,
      "note": 36,
      "start": 1.8394,
      "duration": 0.5924,
      "velocity": 95,
      "chip": "ym2612"
    },
    {
      "channel": 0,
      "note": 82,
      "start": 1.8549,
      "duration": 0.0138,
      "velocity": 104,
      "chip": "ym2612"
    },
    {
      "channel": 2,
      "note": 65,
      "start": 1.8563,
      "duration": 0.0108,
      "velocity": 104,
      "chip": "ym2612"
    },
    {
      "channel": 3,
      "note": 82,
      "start": 1.8573,
      "duration": 0.0124,
      "velocity": 104,
      "chip": "ym2612"
    },
    {
      "channel": 0,
      "note": 77,
      "start": 1.8735,
      "duration": 0.0137,
      "velocity": 104,
      "chip": "ym2612"
    },
    {
      "channel": 2,
      "note": 70,
      "start": 1.8749,
      "duration": 0.0108,
      "velocity": 104,
      "chip": "ym2612"
    },
    {
      "channel": 3,
      "note": 77,
      "start": 1.8759,
      "duration": 0.0124,
      "velocity": 104,
      "chip": "ym2612"
    },
    {
      "channel": 0,
      "note": 84,
      "start": 1.892,
      "duration": 0.0138,
      "velocity": 104,
      "chip": "ym2612"
    },
    {
      "channel": 2,
      "note": 72,
      "start": 1.8934,
      "duration": 0.0108,
      "velocity": 104,
      "chip": "ym2612"
    },
    {
      "channel": 3,
      "note": 84,
      "start": 1.8945,
      "duration": 0.0124,
      "velocity": 104,
      "chip": "ym2612"
    },
    {
      "channel": 0,
      "note": 77,
      "start": 1.9107,
      "duration": 0.0138,
      "velocity": 104,
      "chip": "ym2612"
    },
    {
      "channel": 2,
      "note": 73,
      "start": 1.9121,
      "duration": 0.0109,
      "velocity": 104,
      "chip": "ym2612"
    },
    {
      "channel": 3,
      "note": 77,
      "start": 1.9131,
      "duration": 0.0124,
      "velocity": 104,
      "chip": "ym2612"
    },
    {
      "channel": 0,
      "note": 85,
      "start": 1.9293,
      "duration": 0.0137,
      "velocity": 104,
      "chip": "ym2612"
    },
    {
      "channel": 2,
      "note": 72,
      "start": 1.9307,
      "duration": 0.0108,
      "velocity": 104,
      "chip": "ym2612"
    },
    {
      "channel": 3,
      "note": 85,
      "start": 1.9317,
      "duration": 0.0124,
      "velocity": 104,
      "chip": "ym2612"
    },
    {
      "channel": 0,
      "note": 77,
      "start": 1.9478,
      "duration": 0.0137,
      "velocity": 104,
      "chip": "ym2612"
    },
    {
      "channel": 2,
      "note": 70,
      "start": 1.9493,
      "duration": 0.0108,
      "velocity": 104,
      "chip": "ym2612"
    },
    {
      "channel": 3,
      "note": 77,
      "start": 1.9503,
      "duration": 0.0124,
      "velocity": 104,
      "chip": "ym2612"
    },
    {
      "channel": 0,
      "note": 84,
      "start": 1.9664,
      "duration": 0.0137,
      "velocity": 104,
      "chip": "ym2612"
    },
    {
      "channel": 2,
      "note": 65,
      "start": 1.9678,
      "duration": 0.0108,
      "velocity": 104,
      "chip": "ym2612"
    },
    {
      "channel": 3,
      "note": 84,
      "start": 1.9689,
      "duration": 0.0124,
      "velocity": 104,
      "chip": "ym2612"
    },
    {
      "channel": 0,
      "note": 77,
      "start": 1.985,
      "duration": 0.0137,
      "velocity": 104,
      "chip": "ym2612"
    },
    {
      "channel": 2,
      "note": 70,
      "start": 1.9864,
      "duration": 0.0108,
      "velocity": 104,
      "chip": "ym2612"
    },
    {
      "channel": 3,
      "note": 77,
      "start": 1.9874,
      "duration": 0.0124,
      "velocity": 104,
      "chip": "ym2612"
    },
    {
      "channel": 0,
      "note": 82,
      "start": 2.0035,
      "duration": 0.0138,
      "velocity": 104,
      "chip": "ym2612"
    },
    {
      "channel": 2,
      "note": 72,
      "start": 2.0049,
      "duration": 0.0108,
      "velocity": 104,
      "chip": "ym2612"
    },
    {
      "channel": 3,
      "note": 82,
      "start": 2.0059,
      "duration": 0.0124,
      "velocity": 104,
      "chip": "ym2612"
    },
    {
      "channel": 0,
      "note": 77,
      "start": 2.0221,
      "duration": 0.0138,
      "velocity": 104,
      "chip": "ym2612"
    },
    {
      "channel": 2,
      "note": 73,
      "start": 2.0235,
      "duration": 0.0108,
      "velocity": 104,
      "chip": "ym2612"
    },
    {
      "channel": 3,
      "note": 77,
      "start": 2.0245,
      "duration": 0.0124,
      "velocity": 104,
      "chip": "ym2612"
    },
    {
      "channel": 0,
      "note": 84,
      "start": 2.0407,
      "duration": 0.0138,
      "velocity": 104,
      "chip": "ym2612"
    },
    {
      "channel": 2,
      "note": 72,
      "start": 2.0421,
      "duration": 0.0108,
      "velocity": 104,
      "chip": "ym2612"
    },
    {
      "channel": 3,
      "note": 84,
      "start": 2.0432,
      "duration": 0.0124,
      "velocity": 104,
      "chip": "ym2612"
    },
    {
      "channel": 0,
      "note": 77,
      "start": 2.0594,
      "duration": 0.0137,
      "velocity": 104,
      "chip": "ym2612"
    },
    {
      "channel": 2,
      "note": 70,
      "start": 2.0608,
      "duration": 0.0108,
      "velocity": 104,
      "chip": "ym2612"
    },
    {
      "channel": 3,
      "note": 77,
      "start": 2.0618,
      "duration": 0.0123,
      "velocity": 104,
      "chip": "ym2612"
    },
    {
      "channel": 0,
      "note": 85,
      "start": 2.0779,
      "duration": 0.0137,
      "velocity": 104,
      "chip": "ym2612"
    },
    {
      "channel": 2,
      "note": 65,
      "start": 2.0793,
      "duration": 0.0108,
      "velocity": 104,
      "chip": "ym2612"
    },
    {
      "channel": 3,
      "note": 85,
      "start": 2.0803,
      "duration": 0.0124,
      "velocity": 104,
      "chip": "ym2612"
    },
    {
      "channel": 0,
      "note": 77,
      "start": 2.0965,
      "duration": 0.0138,
      "velocity": 104,
      "chip": "ym2612"
    },
    {
      "channel": 2,
      "note": 70,
      "start": 2.0979,
      "duration": 0.0108,
      "velocity": 104,
      "chip": "ym2612"
    },
    {
      "channel": 3,
      "note": 77,
      "start": 2.0989,
      "duration": 0.0124,
      "velocity": 104,
      "chip": "ym2612"
    },
    {
      "channel": 0,
      "note": 84,
      "start": 2.1151,
      "duration": 0.0137,
      "velocity": 104,
      "chip": "ym2612"
    },
    {
      "channel": 2,
      "note": 72,
      "start": 2.1165,
      "duration": 0.0107,
      "velocity": 104,
      "chip": "ym2612"
    },
    {
      "channel": 3,
      "note": 84,
      "start": 2.1175,
      "duration": 0.0123,
      "velocity": 104,
      "chip": "ym2612"
    },
    {
      "channel": 0,
      "note": 77,
      "start": 2.1336,
      "duration": 0.0155,
      "velocity": 104,
      "chip": "ym2612"
    },
    {
      "channel": 2,
      "note": 73,
      "start": 2.1356,
      "duration": 0.012,
      "velocity": 104,
      "chip": "ym2612"
    },
    {
      "channel": 3,
      "note": 77,
      "start": 2.1367,
      "duration": 0.0135,
      "velocity": 104,
      "chip": "ym2612"
    },
    {
      "channel": 0,
      "note": 82,
      "start": 2.154,
      "duration": 0.0137,
      "velocity": 104,
      "chip": "ym2612"
    },
    {
      "channel": 2,
      "note": 72,
      "start": 2.1554,
      "duration": 0.0108,
      "velocity": 104,
      "chip": "ym2612"
    },
    {
      "channel": 3,
      "note": 82,
      "start": 2.1564,
      "duration": 0.0124,
      "velocity": 104,
      "chip": "ym2612"
    },
    {
      "channel": 0,
      "note": 77,
      "start": 2.1726,
      "duration": 0.0137,
      "velocity": 104,
      "chip": "ym2612"
    },
    {
      "channel": 2,
      "note": 70,
      "start": 2.174,
      "duration": 0.0108,
      "velocity": 104,
      "chip": "ym2612"
    },
    {
      "channel": 3,
      "note": 77,
      "start": 2.175,
      "duration": 0.0124,
      "velocity": 104,
      "chip": "ym2612"
    },
    {
      "channel": 0,
      "note": 84,
      "start": 2.1911,
      "duration": 0.0137,
      "velocity": 104,
      "chip": "ym2612"
    },
    {
      "channel": 2,
      "note": 65,
      "start": 2.1925,
      "duration": 0.0108,
      "velocity": 104,
      "chip": "ym2612"
    },
    {
      "channel": 3,
      "note": 84,
      "start": 2.1935,
      "duration": 0.0124,
      "velocity": 104,
      "chip": "ym2612"
    },
    {
      "channel": 0,
      "note": 77,
      "start": 2.2097,
      "duration": 0.0138,
      "velocity": 104,
      "chip": "ym2612"
    },
    {
      "channel": 2,
      "note": 70,
      "start": 2.2111,
      "duration": 0.0109,
      "velocity": 104,
      "chip": "ym2612"
    },
    {
      "channel": 3,
      "note": 77,
      "start": 2.2121,
      "duration": 0.0124,
      "velocity": 104,
      "chip": "ym2612"
    },
    {
      "channel": 0,
      "note": 85,
      "start": 2.2283,
      "duration": 0.0138,
      "velocity": 104,
      "chip": "ym2612"
    },
    {
      "channel": 2,
      "note": 72,
      "start": 2.2297,
      "duration": 0.0108,
      "velocity": 104,
      "chip": "ym2612"
    },
    {
      "channel": 3,
      "note": 85,
      "start": 2.2307,
      "duration": 0.0124,
      "velocity": 104,
      "chip": "ym2612"
    },
    {
      "channel": 0,
      "note": 77,
      "start": 2.2469,
      "duration": 0.0137,
      "velocity": 104,
      "chip": "ym2612"
    },
    {
      "channel": 2,
      "note": 73,
      "start": 2.2483,
      "duration": 0.0108,
      "velocity": 104,
      "chip": "ym2612"
    },
    {
      "channel": 3,
      "note": 77,
      "start": 2.2493,
      "duration": 0.0124,
      "velocity": 104,
      "chip": "ym2612"
    },
    {
      "channel": 0,
      "note": 84,
      "start": 2.2655,
      "duration": 0.0137,
      "velocity": 104,
      "chip": "ym2612"
    },
    {
      "channel": 2,
      "note": 72,
      "start": 2.2669,
      "duration": 0.0108,
      "velocity": 104,
      "chip": "ym2612"
    },
    {
      "channel": 3,
      "note": 84,
      "start": 2.2679,
      "duration": 0.0123,
      "velocity": 104,
      "chip": "ym2612"
    },
    {
      "channel": 0,
      "note": 77,
      "start": 2.284,
      "duration": 0.0138,
      "velocity": 104,
      "chip": "ym2612"
    },
    {
      "channel": 2,
      "note": 70,
      "start": 2.2854,
      "duration": 0.0108,
      "velocity": 104,
      "chip": "ym2612"
    },
    {
      "channel": 3,
      "note": 77,
      "start": 2.2864,
      "duration": 0.0124,
      "velocity": 104,
      "chip": "ym2612"
    },
    {
      "channel": 0,
      "note": 82,
      "start": 2.3026,
      "duration": 0.0137,
      "velocity": 104,
      "chip": "ym2612"
    },
    {
      "channel": 2,
      "note": 65,
      "start": 2.304,
      "duration": 0.0108,
      "velocity": 104,
      "chip": "ym2612"
    },
    {
      "channel": 3,
      "note": 82,
      "start": 2.305,
      "duration": 0.0124,
      "velocity": 104,
      "chip": "ym2612"
    },
    {
      "channel": 0,
      "note": 77,
      "start": 2.3211,
      "duration": 0.0138,
      "velocity": 104,
      "chip": "ym2612"
    },
    {
      "channel": 2,
      "note": 70,
      "start": 2.3225,
      "duration": 0.0108,
      "velocity": 104,
      "chip": "ym2612"
    },
    {
      "channel": 3,
      "note": 77,
      "start": 2.3236,
      "duration": 0.0124,
      "velocity": 104,
      "chip": "ym2612"
    },
    {
      "channel": 0,
      "note": 84,
      "start": 2.3398,
      "duration": 0.0137,
      "velocity": 104,
      "chip": "ym2612"
    },
    {
      "channel": 2,
      "note": 72,
      "start": 2.3412,
      "duration": 0.0108,
      "velocity": 104,
      "chip": "ym2612"
    },
    {
      "channel": 3,
      "note": 84,
      "start": 2.3422,
      "duration": 0.0124,
      "velocity": 104,
      "chip": "ym2612"
    },
    {
      "channel": 0,
      "note": 77,
      "start": 2.3583,
      "duration": 0.0138,
      "velocity": 104,
      "chip": "ym2612"
    },
    {
      "channel": 2,
      "note": 73,
      "start": 2.3597,
      "duration": 0.0108,
      "velocity": 104,
      "chip": "ym2612"
    },
    {
      "channel": 3,
      "note": 77,
      "start": 2.3607,
      "duration": 0.0124,
      "velocity": 104,
      "chip": "ym2612"
    },
    {
      "channel": 0,
      "note": 85,
      "start": 2.3769,
      "duration": 0.0138,
      "velocity": 104,
      "chip": "ym2612"
    },
    {
      "channel": 2,
      "note": 72,
      "start": 2.3783,
      "duration": 0.0109,
      "velocity": 104,
      "chip": "ym2612"
    },
    {
      "channel": 3,
      "note": 85,
      "start": 2.3793,
      "duration": 0.0124,
      "velocity": 104,
      "chip": "ym2612"
    },
    {
      "channel": 0,
      "note": 77,
      "start": 2.3955,
      "duration": 0.0138,
      "velocity": 104,
      "chip": "ym2612"
    },
    {
      "channel": 2,
      "note": 70,
      "start": 2.3969,
      "duration": 0.0108,
      "velocity": 104,
      "chip": "ym2612"
    },
    {
      "channel": 3,
      "note": 77,
      "start": 2.3979,
      "duration": 0.0124,
      "velocity": 104,
      "chip": "ym2612"
    },
    {
      "channel": 0,
      "note": 84,
      "start": 2.4141,
      "duration": 0.0137,
      "velocity": 104,
      "chip": "ym2612"
    },
    {
      "channel": 2,
      "note": 65,
      "start": 2.4155,
      "duration": 0.0108,
      "velocity": 104,
      "chip": "ym2612"
    },
    {
      "channel": 3,
      "note": 84,
      "start": 2.4166,
      "duration": 0.0124,
      "velocity": 104,
      "chip": "ym2612"
    },
    {
      "channel": 0,
      "note": 77,
      "start": 2.433,
      "duration": 0.0163,
      "velocity": 104,
      "chip": "ym2612"
    },
    {
      "channel": 1,
      "note": 51,
      "start": 2.4341,
      "duration": 0.1478,
      "velocity": 95,
      "chip": "ym2612"
    },
    {
      "channel": 2,
      "note": 70,
      "start": 2.4353,
      "duration": 0.0125,
      "velocity": 104,
      "chip": "ym2612"
    },
    {
      "channel": 3,
      "note": 77,
      "start": 2.4364,
      "duration": 0.014,
      "velocity": 104,
      "chip": "ym2612"
    },
    {
      "channel": 4,
      "note": 51,
      "start": 2.4375,
      "duration": 0.1454,
      "velocity": 95,
      "chip": "ym2612"
    },
    {
      "channel": 5,
      "note": 39,
      "start": 2.4387,
      "duration": 0.1447,
      "velocity": 95,
      "chip": "ym2612"
    },
    {
      "channel": 0,
      "note": 82,
      "start": 2.4541,
      "duration": 0.0137,
      "velocity": 104,
      "chip": "ym2612"
    },
    {
      "channel": 2,
      "note": 72,
      "start": 2.4556,
      "duration": 0.0108,
      "velocity": 104,
      "chip": "ym2612"
    },
    {
      "channel": 3,
      "note": 82,
      "start": 2.4566,
      "duration": 0.0124,
      "velocity": 104,
      "chip": "ym2612"
    },
    {
      "channel": 0,
      "note": 77,
      "start": 2.4728,
      "duration": 0.0138,
      "velocity": 104,
      "chip": "ym2612"
    },
    {
      "channel": 2,
      "note": 73,
      "start": 2.4742,
      "duration": 0.0108,
      "velocity": 104,
      "chip": "ym2612"
    },
    {
      "channel": 3,
      "note": 77,
      "start": 2.4752,
      "duration": 0.0124,
      "velocity": 104,
      "chip": "ym2612"
    },
    {
      "channel": 0,
      "note": 84,
      "start": 2.4914,
      "duration": 0.0137,
      "velocity": 104,
      "chip": "ym2612"
    },
    {
      "channel": 2,
      "note": 72,
      "start": 2.4928,
      "duration": 0.0107,
      "velocity": 104,
      "chip": "ym2612"
    },
    {
      "channel": 3,
      "note": 84,
      "start": 2.4938,
      "duration": 0.0123,
      "velocity": 104,
      "chip": "ym2612"
    },
    {
      "channel": 0,
      "note": 77,
      "start": 2.5099,
      "duration": 0.0137,
      "velocity": 104,
      "chip": "ym2612"
    },
    {
      "channel": 2,
      "note": 70,
      "start": 2.5113,
      "duration": 0.0108,
      "velocity": 104,
      "chip": "ym2612"
    },
    {
      "channel": 3,
      "note": 77,
      "start": 2.5123,
      "duration": 0.0124,
      "velocity": 104,
      "chip": "ym2612"
    },
    {
      "channel": 0,
      "note": 85,
      "start": 2.5285,
      "duration": 0.0137,
      "velocity": 104,
      "chip": "ym2612"
    },
    {
      "channel": 2,
      "note": 65,
      "start": 2.5299,
      "duration": 0.0108,
      "velocity": 104,
      "chip": "ym2612"
    },
    {
      "channel": 3,
      "note": 85,
      "start": 2.5309,
      "duration": 0.0124,
      "velocity": 104,
      "chip": "ym2612"
    },
    {
      "channel": 0,
      "note": 77,
      "start": 2.547,
      "duration": 0.0138,
      "velocity": 104,
      "chip": "ym2612"
    },
    {
      "channel": 2,
      "note": 70,
      "start": 2.5484,
      "duration": 0.0108,
      "velocity": 104,
      "chip": "ym2612"
    },
    {
      "channel": 3,
      "note": 77,
      "start": 2.5495,
      "duration": 0.0124,
      "velocity": 104,
      "chip": "ym2612"
    },
    {
      "channel": 0,
      "note": 84,
      "start": 2.5656,
      "duration": 0.0138,
      "velocity": 104,
      "chip": "ym2612"
    },
    {
      "channel": 2,
      "note": 72,
      "start": 2.567,
      "duration": 0.0109,
      "velocity": 104,
      "chip": "ym2612"
    },
    {
      "channel": 3,
      "note": 84,
      "start": 2.568,
      "duration": 0.0124,
      "velocity": 104,
      "chip": "ym2612"
    },
    {
      "channel": 0,
      "note": 77,
      "start": 2.5845,
      "duration": 0.0159,
      "velocity": 104,
      "chip": "ym2612"
    },
    {
      "channel": 1,
      "note": 46,
      "start": 2.5856,
      "duration": 0.0732,
      "velocity": 95,
      "chip": "ym2612"
    },
    {
      "channel": 2,
      "note": 73,
      "start": 2.5866,
      "duration": 0.0123,
      "velocity": 104,
      "chip": "ym2612"
    },
    {
      "channel": 3,
      "note": 77,
      "start": 2.5877,
      "duration": 0.0138,
      "velocity": 104,
      "chip": "ym2612"
    },
    {
      "channel": 4,
      "note": 46,
      "start": 2.5887,
      "duration": 0.071,
      "velocity": 95,
      "chip": "ym2612"
    },
    {
      "channel": 5,
      "note": 34,
      "start": 2.5898,
      "duration": 0.0703,
      "velocity": 95,
      "chip": "ym2612"
    },
    {
      "channel": 0,
      "note": 82,
      "start": 2.6053,
      "duration": 0.0137,
      "velocity": 104,
      "chip": "ym2612"
    },
    {
      "channel": 2,
      "note": 72,
      "start": 2.6067,
      "duration": 0.0108,
      "velocity": 104,
      "chip": "ym2612"
    },
    {
      "channel": 3,
      "note": 82,
      "start": 2.6078,
      "duration": 0.0124,
      "velocity": 104,
      "chip": "ym2612"
    },
    {
      "channel": 0,
      "note": 77,
      "start": 2.6239,
      "duration": 0.0137,
      "velocity": 104,
      "chip": "ym2612"
    },
    {
      "channel": 2,
      "note": 70,
      "start": 2.6253,
      "duration": 0.0108,
      "velocity": 104,
      "chip": "ym2612"
    },
    {
      "channel": 3,
      "note": 77,
      "start": 2.6263,
      "duration": 0.0124,
      "velocity": 104,
      "chip": "ym2612"
    },
    {
      "channel": 0,
      "note": 84,
      "start": 2.6424,
      "duration": 0.0138,
      "velocity": 104,
      "chip": "ym2612"
    },
    {
      "channel": 2,
      "note": 65,
      "start": 2.6438,
      "duration": 0.0109,
      "velocity": 104,
      "chip": "ym2612"
    },
    {
      "channel": 3,
      "note": 84,
      "start": 2.6448,
      "duration": 0.0124,
      "velocity": 104,
      "chip": "ym2612"
    },
    {
      "channel": 0,
      "note": 77,
      "start": 2.6613,
      "duration": 0.0159,
      "velocity": 104,
      "chip": "ym2612"
    },
    {
      "channel": 1,
      "note": 45,
      "start": 2.6623,
      "duration": 0.0731,
      "velocity": 95,
      "chip": "ym2612"
    },
    {
      "channel": 2,
      "note": 70,
      "start": 2.6634,
      "duration": 0.0122,
      "velocity": 104,
      "chip": "ym2612"
    },
    {
      "channel": 3,
      "note": 77,
      "start": 2.6644,
      "duration": 0.0138,
      "velocity": 104,
      "chip": "ym2612"
    },
    {
      "channel": 4,
      "note": 45,
      "start": 2.6655,
      "duration": 0.0709,
      "velocity": 95,
      "chip": "ym2612"
    },
    {
      "channel": 5,
      "note": 33,
      "start": 2.6666,
      "duration": 0.0703,
      "velocity": 95,
      "chip": "ym2612"
    },
    {
      "channel": 0,
      "note": 85,
      "start": 2.682,
      "duration": 0.0137,
      "velocity": 104,
      "chip": "ym2612"
    },
    {
      "channel": 2,
      "note": 72,
      "start": 2.6834,
      "duration": 0.0108,
      "velocity": 104,
      "chip": "ym2612"
    },
    {
      "channel": 3,
      "note": 85,
      "start": 2.6845,
      "duration": 0.0123,
      "velocity": 104,
      "chip": "ym2612"
    },
    {
      "channel": 0,
      "note": 77,
      "start": 2.7005,
      "duration": 0.0137,
      "velocity": 104,
      "chip": "ym2612"
    },
    {
      "channel": 2,
      "note": 73,
      "start": 2.702,
      "duration": 0.0107,
      "velocity": 104,
      "chip": "ym2612"
    },
    {
      "channel": 3,
      "note": 77,
      "start": 2.703,
      "duration": 0.0123,
      "velocity": 104,
      "chip": "ym2612"
    },
    {
      "channel": 0,
      "note": 84,
      "start": 2.7191,
      "duration": 0.0137,
      "velocity": 104,
      "chip": "ym2612"
    },
    {
      "channel": 2,
      "note": 72,
      "start": 2.7205,
      "duration": 0.0108,
      "velocity": 104,
      "chip": "ym2612"
    },
    {
      "channel": 3,
      "note": 84,
      "start": 2.7215,
      "duration": 0.0124,
      "velocity": 104,
      "chip": "ym2612"
    },
    {
      "channel": 0,
      "note": 77,
      "start": 2.7379,
      "duration": 0.0163,
      "velocity": 104,
      "chip": "ym2612"
    },
    {
      "channel": 1,
      "note": 54,
      "start": 2.7391,
      "duration": 0.2221,
      "velocity": 95,
      "chip": "ym2612"
    },
    {
      "channel": 2,
      "note": 70,
      "start": 2.7402,
      "duration": 0.0125,
      "velocity": 104,
      "chip": "ym2612"
    },
    {
      "channel": 3,
      "note": 77,
      "start": 2.7414,
      "duration": 0.0139,
      "velocity": 104,
      "chip": "ym2612"
    },
    {
      "channel": 4,
      "note": 54,
      "start": 2.7424,
      "duration": 0.2197,
      "velocity": 95,
      "chip": "ym2612"
    },
    {
      "channel": 5,
      "note": 42,
      "start": 2.7436,
      "duration": 0.219,
      "velocity": 95,
      "chip": "ym2612"
    },
    {
      "channel": 0,
      "note": 82,
      "start": 2.7591,
      "duration": 0.0138,
      "velocity": 104,
      "chip": "ym2612"
    },
    {
      "channel": 2,
      "note": 65,
      "start": 2.7605,
      "duration": 0.0108,
      "velocity": 104,
      "chip": "ym2612"
    },
    {
      "channel": 3,
      "note": 82,
      "start": 2.7615,
      "duration": 0.0124,
      "velocity": 104,
      "chip": "ym2612"
    },
    {
      "channel": 0,
      "note": 77,
      "start": 2.7777,
      "duration": 0.0137,
      "velocity": 104,
      "chip": "ym2612"
    },
    {
      "channel": 2,
      "note": 70,
      "start": 2.7791,
      "duration": 0.0108,
      "velocity": 104,
      "chip": "ym2612"
    },
    {
      "channel": 3,
      "note": 77,
      "start": 2.7801,
      "duration": 0.0124,
      "velocity": 104,
      "chip": "ym2612"
    },
    {
      "channel": 0,
      "note": 84,
      "start": 2.7962,
      "duration": 0.0138,
      "velocity": 104,
      "chip": "ym2612"
    },
    {
      "channel": 2,
      "note": 72,
      "start": 2.7976,
      "duration": 0.0108,
      "velocity": 104,
      "chip": "ym2612"
    },
    {
      "channel": 3,
      "note": 84,
      "start": 2.7987,
      "duration": 0.0124,
      "velocity": 104,
      "chip": "ym2612"
    },
    {
      "channel": 0,
      "note": 77,
      "start": 2.8148,
      "duration": 0.0137,
      "velocity": 104,
      "chip": "ym2612"
    },
    {
      "channel": 2,
      "note": 73,
      "start": 2.8162,
      "duration": 0.0108,
      "velocity": 104,
      "chip": "ym2612"
    },
    {
      "channel": 3,
      "note": 77,
      "start": 2.8173,
      "duration": 0.0124,
      "velocity": 104,
      "chip": "ym2612"
    },
    {
      "channel": 0,
      "note": 85,
      "start": 2.8334,
      "duration": 0.0138,
      "velocity": 104,
      "chip": "ym2612"
    },
    {
      "channel": 2,
      "note": 72,
      "start": 2.8348,
      "duration": 0.0108,
      "velocity": 104,
      "chip": "ym2612"
    },
    {
      "channel": 3,
      "note": 85,
      "start": 2.8358,
      "duration": 0.0124,
      "velocity": 104,
      "chip": "ym2612"
    },
    {
      "channel": 0,
      "note": 77,
      "start": 2.852,
      "duration": 0.0137,
      "velocity": 104,
      "chip": "ym2612"
    },
    {
      "channel": 2,
      "note": 70,
      "start": 2.8534,
      "duration": 0.0108,
      "velocity": 104,
      "chip": "ym2612"
    },
    {
      "channel": 3,
      "note": 77,
      "start": 2.8544,
      "duration": 0.0124,
      "velocity": 104,
      "chip": "ym2612"
    },
    {
      "channel": 0,
      "note": 84,
      "start": 2.8705,
      "duration": 0.0137,
      "velocity": 104,
      "chip": "ym2612"
    },
    {
      "channel": 2,
      "note": 65,
      "start": 2.872,
      "duration": 0.0108,
      "velocity": 104,
      "chip": "ym2612"
    },
    {
      "channel": 3,
      "note": 84,
      "start": 2.873,
      "duration": 0.0124,
      "velocity": 104,
      "chip": "ym2612"
    },
    {
      "channel": 0,
      "note": 77,
      "start": 2.8892,
      "duration": 0.0138,
      "velocity": 104,
      "chip": "ym2612"
    },
    {
      "channel": 2,
      "note": 70,
      "start": 2.8906,
      "duration": 0.0108,
      "velocity": 104,
      "chip": "ym2612"
    },
    {
      "channel": 3,
      "note": 77,
      "start": 2.8916,
      "duration": 0.0124,
      "velocity": 104,
      "chip": "ym2612"
    },
    {
      "channel": 0,
      "note": 82,
      "start": 2.9078,
      "duration": 0.0137,
      "velocity": 104,
      "chip": "ym2612"
    },
    {
      "channel": 2,
      "note": 72,
      "start": 2.9092,
      "duration": 0.0107,
      "velocity": 104,
      "chip": "ym2612"
    },
    {
      "channel": 3,
      "note": 82,
      "start": 2.9102,
      "duration": 0.0123,
      "velocity": 104,
      "chip": "ym2612"
    },
    {
      "channel": 0,
      "note": 77,
      "start": 2.9263,
      "duration": 0.0137,
      "velocity": 104,
      "chip": "ym2612"
    },
    {
      "channel": 2,
      "note": 73,
      "start": 2.9277,
      "duration": 0.0108,
      "velocity": 104,
      "chip": "ym2612"
    },
    {
      "channel": 3,
      "note": 77,
      "start": 2.9287,
      "duration": 0.0124,
      "velocity": 104,
      "chip": "ym2612"
    },
    {
      "channel": 0,
      "note": 84,
      "start": 2.9448,
      "duration": 0.0138,
      "velocity": 104,
      "chip": "ym2612"
    },
    {
      "channel": 2,
      "note": 72,
      "start": 2.9462,
      "duration": 0.0108,
      "velocity": 104,
      "chip": "ym2612"
    },
    {
      "channel": 3,
      "note": 84,
      "start": 2.9473,
      "duration": 0.0124,
      "velocity": 104,
      "chip": "ym2612"
    },
    {
      "channel": 0,
      "note": 77,
      "start": 2.9637,
      "duration": 0.016,
      "velocity": 104,
      "chip": "ym2612"
    },
    {
      "channel": 1,
      "note": 53,
      "start": 2.9647,
      "duration": 0.0732,
      "velocity": 95,
      "chip": "ym2612"
    },
    {
      "channel": 2,
      "note": 70,
      "start": 2.9658,
      "duration": 0.0123,
      "velocity": 104,
      "chip": "ym2612"
    },
    {
      "channel": 3,
      "note": 77,
      "start": 2.9669,
      "duration": 0.0139,
      "velocity": 104,
      "chip": "ym2612"
    },
    {
      "channel": 4,
      "note": 53,
      "start": 2.9679,
      "duration": 0.071,
      "velocity": 95,
      "chip": "ym2612"
    },
    {
      "channel": 5,
      "note": 41,
      "start": 2.969,
      "duration": 0.0704,
      "velocity": 95,
      "chip": "ym2612"
    },
    {
      "channel": 0,
      "note": 85,
      "start": 2.9845,
      "duration": 0.0138,
      "velocity": 104,
      "chip": "ym2612"
    },
    {
      "channel": 2,
      "note": 65,
      "start": 2.9859,
      "duration": 0.0108,
      "velocity": 104,
      "chip": "ym2612"
    },
    {
      "channel": 3,
      "note": 85,
      "start": 2.9869,
      "duration": 0.0124,
      "velocity": 104,
      "chip": "ym2612"
    },
    {
      "channel": 0,
      "note": 77,
      "start": 3.0031,
      "duration": 0.0137,
      "velocity": 104,
      "chip": "ym2612"
    },
    {
      "channel": 2,
      "note": 70,
      "start": 3.0045,
      "duration": 0.0107,
      "velocity": 104,
      "chip": "ym2612"
    },
    {
      "channel": 3,
      "note": 77,
      "start": 3.0055,
      "duration": 0.0123,
      "velocity": 104,
      "chip": "ym2612"
    },
    {
      "channel": 0,
      "note": 84,
      "start": 3.0216,
      "duration": 0.0137,
      "velocity": 104,
      "chip": "ym2612"
    },
    {
      "channel": 2,
      "note": 72,
      "start": 3.023,
      "duration": 0.0108,
      "velocity": 104,
      "chip": "ym2612"
    },
    {
      "channel": 3,
      "note": 84,
      "start": 3.024,
      "duration": 0.0124,
      "velocity": 104,
      "chip": "ym2612"
    },
    {
      "channel": 0,
      "note": 77,
      "start": 3.0405,
      "duration": 0.0163,
      "velocity": 104,
      "chip": "ym2612"
    },
    {
      "channel": 1,
      "note": 48,
      "start": 3.0416,
      "duration": 0.5954,
      "velocity": 95,
      "chip": "ym2612"
    },
    {
      "channel": 2,
      "note": 73,
      "start": 3.0428,
      "duration": 0.0125,
      "velocity": 104,
      "chip": "ym2612"
    },
    {
      "channel": 3,
      "note": 77,
      "start": 3.0439,
      "duration": 0.014,
      "velocity": 104,
      "chip": "ym2612"
    },
    {
      "channel": 4,
      "note": 48,
      "start": 3.045,
      "duration": 0.593,
      "velocity": 95,
      "chip": "ym2612"
    },
    {
      "channel": 5,
      "note": 36,
      "start": 3.0461,
      "duration": 0.5923,
      "velocity": 95,
      "chip": "ym2612"
    },
    {
      "channel": 0,
      "note": 82,
      "start": 3.0617,
      "duration": 0.0137,
      "velocity": 104,
      "chip": "ym2612"
    },
    {
      "channel": 2,
      "note": 72,
      "start": 3.0631,
      "duration": 0.0108,
      "velocity": 104,
      "chip": "ym2612"
    },
    {
      "channel": 3,
      "note": 82,
      "start": 3.0641,
      "duration": 0.0124,
      "velocity": 104,
      "chip": "ym2612"
    },
    {
      "channel": 0,
      "note": 77,
      "start": 3.0802,
      "duration": 0.0137,
      "velocity": 104,
      "chip": "ym2612"
    },
    {
      "channel": 2,
      "note": 70,
      "start": 3.0816,
      "duration": 0.0108,
      "velocity": 104,
      "chip": "ym2612"
    },
    {
      "channel": 3,
      "note": 77,
      "start": 3.0826,
      "duration": 0.0124,
      "velocity": 104,
      "chip": "ym2612"
    },
    {
      "channel": 0,
      "note": 84,
      "start": 3.0988,
      "duration": 0.0137,
      "velocity": 104,
      "chip": "ym2612"
    },
    {
      "channel": 2,
      "note": 65,
      "start": 3.1002,
      "duration": 0.0108,
      "velocity": 104,
      "chip": "ym2612"
    },
    {
      "channel": 3,
      "note": 84,
      "start": 3.1012,
      "duration": 0.0124,
      "velocity": 104,
      "chip": "ym2612"
    },
    {
      "channel": 0,
      "note": 77,
      "start": 3.1173,
      "duration": 0.0138,
      "velocity": 104,
      "chip": "ym2612"
    },
    {
      "channel": 2,
      "note": 70,
      "start": 3.1188,
      "duration": 0.0108,
      "velocity": 104,
      "chip": "ym2612"
    },
    {
      "channel": 3,
      "note": 77,
      "start": 3.1198,
      "duration": 0.0124,
      "velocity": 104,
      "chip": "ym2612"
    },
    {
      "channel": 0,
      "note": 85,
      "start": 3.1359,
      "duration": 0.0138,
      "velocity": 104,
      "chip": "ym2612"
    },
    {
      "channel": 2,
      "note": 72,
      "start": 3.1373,
      "duration": 0.0109,
      "velocity": 104,
      "chip": "ym2612"
    },
    {
      "channel": 3,
      "note": 85,
      "start": 3.1384,
      "duration": 0.0124,
      "velocity": 104,
      "chip": "ym2612"
    },
    {
      "channel": 0,
      "note": 77,
      "start": 3.1545,
      "duration": 0.0138,
      "velocity": 104,
      "chip": "ym2612"
    },
    {
      "channel": 2,
      "note": 73,
      "start": 3.1559,
      "duration": 0.0108,
      "velocity": 104,
      "chip": "ym2612"
    },
    {
      "channel": 3,
      "note": 77,
      "start": 3.157,
      "duration": 0.0124,
      "velocity": 104,
      "chip": "ym2612"
    },
    {
      "channel": 0,
      "note": 84,
      "start": 3.1732,
      "duration": 0.0137,
      "velocity": 104,
      "chip": "ym2612"
    },
    {
      "channel": 2,
      "note": 72,
      "start": 3.1746,
      "duration": 0.0108,
      "velocity": 104,
      "chip": "ym2612"
    },
    {
      "channel": 3,
      "note": 84,
      "start": 3.1756,
      "duration": 0.0123,
      "velocity": 104,
      "chip": "ym2612"
    },
    {
      "channel": 0,
      "note": 77,
      "start": 3.1917,
      "duration": 0.0138,
      "velocity": 104,
      "chip": "ym2612"
    },
    {
      "channel": 2,
      "note": 70,
      "start": 3.1931,
      "duration": 0.0108,
      "velocity": 104,
      "chip": "ym2612"
    },
    {
      "channel": 3,
      "note": 77,
      "start": 3.1941,
      "duration": 0.0124,
      "velocity": 104,
      "chip": "ym2612"
    },
    {
      "channel": 0,
      "note": 82,
      "start": 3.2103,
      "duration": 0.0137,
      "velocity": 104,
      "chip": "ym2612"
    },
    {
      "channel": 2,
      "note": 65,
      "start": 3.2117,
      "duration": 0.0108,
      "velocity": 104,
      "chip": "ym2612"
    },
    {
      "channel": 3,
      "note": 82,
      "start": 3.2127,
      "duration": 0.0124,
      "velocity": 104,
      "chip": "ym2612"
    },
    {
      "channel": 0,
      "note": 77,
      "start": 3.2288,
      "duration": 0.0138,
      "velocity": 104,
      "chip": "ym2612"
    },
    {
      "channel": 2,
      "note": 70,
      "start": 3.2302,
      "duration": 0.0108,
      "velocity": 104,
      "chip": "ym2612"
    },
    {
      "channel": 3,
      "note": 77,
      "start": 3.2312,
      "duration": 0.0124,
      "velocity": 104,
      "chip": "ym2612"
    },
    {
      "channel": 0,
      "note": 84,
      "start": 3.2475,
      "duration": 0.0137,
      "velocity": 104,
      "chip": "ym2612"
    },
    {
      "channel": 2,
      "note": 72,
      "start": 3.2489,
      "duration": 0.0108,
      "velocity": 104,
      "chip": "ym2612"
    },
    {
      "channel": 3,
      "note": 84,
      "start": 3.2499,
      "duration": 0.0124,
      "velocity": 104,
      "chip": "ym2612"
    },
    {
      "channel": 0,
      "note": 77,
      "start": 3.266,
      "duration": 0.0138,
      "velocity": 104,
      "chip": "ym2612"
    },
    {
      "channel": 2,
      "note": 73,
      "start": 3.2674,
      "duration": 0.0108,
      "velocity": 104,
      "chip": "ym2612"
    },
    {
      "channel": 3,
      "note": 77,
      "start": 3.2684,
      "duration": 0.0124,
      "velocity": 104,
      "chip": "ym2612"
    },
    {
      "channel": 0,
      "note": 85,
      "start": 3.2846,
      "duration": 0.0138,
      "velocity": 104,
      "chip": "ym2612"
    },
    {
      "channel": 2,
      "note": 72,
      "start": 3.286,
      "duration": 0.0109,
      "velocity": 104,
      "chip": "ym2612"
    },
    {
      "channel": 3,
      "note": 85,
      "start": 3.287,
      "duration": 0.0124,
      "velocity": 104,
      "chip": "ym2612"
    },
    {
      "channel": 0,
      "note": 77,
      "start": 3.3032,
      "duration": 0.0138,
      "velocity": 104,
      "chip": "ym2612"
    },
    {
      "channel": 2,
      "note": 70,
      "start": 3.3046,
      "duration": 0.0108,
      "velocity": 104,
      "chip": "ym2612"
    },
    {
      "channel": 3,
      "note": 77,
      "start": 3.3056,
      "duration": 0.0124,
      "velocity": 104,
      "chip": "ym2612"
    },
    {
      "channel": 0,
      "note": 84,
      "start": 3.3218,
      "duration": 0.0137,
      "velocity": 104,
      "chip": "ym2612"
    },
    {
      "channel": 2,
      "note": 65,
      "start": 3.3232,
      "duration": 0.0108,
      "velocity": 104,
      "chip": "ym2612"
    },
    {
      "channel": 3,
      "note": 84,
      "start": 3.3242,
      "duration": 0.0124,
      "velocity": 104,
      "chip": "ym2612"
    },
    {
      "channel": 0,
      "note": 77,
      "start": 3.3404,
      "duration": 0.0155,
      "velocity": 104,
      "chip": "ym2612"
    },
    {
      "channel": 2,
      "note": 70,
      "start": 3.3424,
      "duration": 0.012,
      "velocity": 104,
      "chip": "ym2612"
    },
    {
      "channel": 3,
      "note": 77,
      "start": 3.3435,
      "duration": 0.0134,
      "velocity": 104,
      "chip": "ym2612"
    },
    {
      "channel": 0,
      "note": 82,
      "start": 3.3607,
      "duration": 0.0137,
      "velocity": 104,
      "chip": "ym2612"
    },
    {
      "channel": 2,
      "note": 72,
      "start": 3.3621,
      "duration": 0.0108,
      "velocity": 104,
      "chip": "ym2612"
    },
    {
      "channel": 3,
      "note": 82,
      "start": 3.3632,
      "duration": 0.0124,
      "velocity": 104,
      "chip": "ym2612"
    },
    {
      "channel": 0,
      "note": 77,
      "start": 3.3793,
      "duration": 0.0137,
      "velocity": 104,
      "chip": "ym2612"
    },
    {
      "channel": 2,
      "note": 73,
      "start": 3.3807,
      "duration": 0.0108,
      "velocity": 104,
      "chip": "ym2612"
    },
    {
      "channel": 3,
      "note": 77,
      "start": 3.3817,
      "duration": 0.0124,
      "velocity": 104,
      "chip": "ym2612"
    },
    {
      "channel": 0,
      "note": 84,
      "start": 3.3979,
      "duration": 0.0137,
      "velocity": 104,
      "chip": "ym2612"
    },
    {
      "channel": 2,
      "note": 72,
      "start": 3.3993,
      "duration": 0.0108,
      "velocity": 104,
      "chip": "ym2612"
    },
    {
      "channel": 3,
      "note": 84,
      "start": 3.4003,
      "duration": 0.0124,
      "velocity": 104,
      "chip": "ym2612"
    },
    {
      "channel": 0,
      "note": 77,
      "start": 3.4165,
      "duration": 0.0137,
      "velocity": 104,
      "chip": "ym2612"
    },
    {
      "channel": 2,
      "note": 70,
      "start": 3.4179,
      "duration": 0.0108,
      "velocity": 104,
      "chip": "ym2612"
    },
    {
      "channel": 3,
      "note": 77,
      "start": 3.4189,
      "duration": 0.0124,
      "velocity": 104,
      "chip": "ym2612"
    },
    {
      "channel": 0,
      "note": 85,
      "start": 3.435,
      "duration": 0.0137,
      "velocity": 104,
      "chip": "ym2612"
    },
    {
      "channel": 2,
      "note": 65,
      "start": 3.4364,
      "duration": 0.0108,
      "velocity": 104,
      "chip": "ym2612"
    },
    {
      "channel": 3,
      "note": 85,
      "start": 3.4374,
      "duration": 0.0124,
      "velocity": 104,
      "chip": "ym2612"
    },
    {
      "channel": 0,
      "note": 77,
      "start": 3.4536,
      "duration": 0.0137,
      "velocity": 104,
      "chip": "ym2612"
    },
    {
      "channel": 2,
      "note": 70,
      "start": 3.455,
      "duration": 0.0107,
      "velocity": 104,
      "chip": "ym2612"
    },
    {
      "channel": 3,
      "note": 77,
      "start": 3.456,
      "duration": 0.0123,
      "velocity": 104,
      "chip": "ym2612"
    },
    {
      "channel": 0,
      "note": 84,
      "start": 3.4721,
      "duration": 0.0137,
      "velocity": 104,
      "chip": "ym2612"
    },
    {
      "channel": 2,
      "note": 72,
      "start": 3.4735,
      "duration": 0.0108,
      "velocity": 104,
      "chip": "ym2612"
    },
    {
      "channel": 3,
      "note": 84,
      "start": 3.4745,
      "duration": 0.0124,
      "velocity": 104,
      "chip": "ym2612"
    },
    {
      "channel": 0,
      "note": 77,
      "start": 3.4907,
      "duration": 0.0138,
      "velocity": 104,
      "chip": "ym2612"
    },
    {
      "channel": 2,
      "note": 73,
      "start": 3.4921,
      "duration": 0.0108,
      "velocity": 104,
      "chip": "ym2612"
    },
    {
      "channel": 3,
      "note": 77,
      "start": 3.4931,
      "duration": 0.0124,
      "velocity": 104,
      "chip": "ym2612"
    },
    {
      "channel": 0,
      "note": 82,
      "start": 3.5093,
      "duration": 0.0137,
      "velocity": 104,
      "chip": "ym2612"
    },
    {
      "channel": 2,
      "note": 72,
      "start": 3.5107,
      "duration": 0.0107,
      "velocity": 104,
      "chip": "ym2612"
    },
    {
      "channel": 3,
      "note": 82,
      "start": 3.5117,
      "duration": 0.0123,
      "velocity": 104,
      "chip": "ym2612"
    },
    {
      "channel": 0,
      "note": 77,
      "start": 3.5278,
      "duration": 0.0137,
      "velocity": 104,
      "chip": "ym2612"
    },
    {
      "channel": 2,
      "note": 70,
      "start": 3.5292,
      "duration": 0.0108,
      "velocity": 104,
      "chip": "ym2612"
    },
    {
      "channel": 3,
      "note": 77,
      "start": 3.5302,
      "duration": 0.0124,
      "velocity": 104,
      "chip": "ym2612"
    },
    {
      "channel": 0,
      "note": 84,
      "start": 3.5464,
      "duration": 0.0137,
      "velocity": 104,
      "chip": "ym2612"
    },
    {
      "channel": 2,
      "note": 65,
      "start": 3.5478,
      "duration": 0.0108,
      "velocity": 104,
      "chip": "ym2612"
    },
    {
      "channel": 3,
      "note": 84,
      "start": 3.5489,
      "duration": 0.0124,
      "velocity": 104,
      "chip": "ym2612"
    },
    {
      "channel": 0,
      "note": 77,
      "start": 3.565,
      "duration": 0.0138,
      "velocity": 104,
      "chip": "ym2612"
    },
    {
      "channel": 2,
      "note": 70,
      "start": 3.5664,
      "duration": 0.0108,
      "velocity": 104,
      "chip": "ym2612"
    },
    {
      "channel": 3,
      "note": 77,
      "start": 3.5674,
      "duration": 0.0124,
      "velocity": 104,
      "chip": "ym2612"
    },
    {
      "channel": 0,
      "note": 85,
      "start": 3.5836,
      "duration": 0.0138,
      "velocity": 104,
      "chip": "ym2612"
    },
    {
      "channel": 2,
      "note": 72,
      "start": 3.585,
      "duration": 0.0109,
      "velocity": 104,
      "chip": "ym2612"
    },
    {
      "channel": 3,
      "note": 85,
      "start": 3.586,
      "duration": 0.0124,
      "velocity": 104,
      "chip": "ym2612"
    },
    {
      "channel": 0,
      "note": 77,
      "start": 3.6022,
      "duration": 0.0138,
      "velocity": 104,
      "chip": "ym2612"
    },
    {
      "channel": 2,
      "note": 73,
      "start": 3.6036,
      "duration": 0.0108,
      "velocity": 104,
      "chip": "ym2612"
    },
    {
      "channel": 3,
      "note": 77,
      "start": 3.6046,
      "duration": 0.0124,
      "velocity": 104,
      "chip": "ym2612"
    },
    {
      "channel": 0,
      "note": 84,
      "start": 3.6208,
      "duration": 0.0137,
      "velocity": 104,
      "chip": "ym2612"
    },
    {
      "channel": 2,
      "note": 72,
      "start": 3.6222,
      "duration": 0.0108,
      "velocity": 104,
      "chip": "ym2612"
    },
    {
      "channel": 3,
      "note": 84,
      "start": 3.6232,
      "duration": 0.0123,
      "velocity": 104,
      "chip": "ym2612"
    },
    {
      "channel": 0,
      "note": 77,
      "start": 3.6396,
      "duration": 0.0164,
      "velocity": 104,
      "chip": "ym2612"
    },
    {
      "channel": 1,
      "note": 51,
      "start": 3.6407,
      "duration": 0.1477,
      "velocity": 95,
      "chip": "ym2612"
    },
    {
      "channel": 2,
      "note": 70,
      "start": 3.6419,
      "duration": 0.0126,
      "velocity": 104,
      "chip": "ym2612"
    },
    {
      "channel": 3,
      "note": 77,
      "start": 3.643,
      "duration": 0.014,
      "velocity": 104,
      "chip": "ym2612"
    },
    {
      "channel": 4,
      "note": 51,
      "start": 3.6442,
      "duration": 0.1453,
      "velocity": 95,
      "chip": "ym2612"
    },
    {
      "channel": 5,
      "note": 39,
      "start": 3.6453,
      "duration": 0.1446,
      "velocity": 95,
      "chip": "ym2612"
    },
    {
      "channel": 0,
      "note": 82,
      "start": 3.6609,
      "duration": 0.0137,
      "velocity": 104,
      "chip": "ym2612"
    },
    {
      "channel": 2,
      "note": 65,
      "start": 3.6623,
      "duration": 0.0108,
      "velocity": 104,
      "chip": "ym2612"
    },
    {
      "channel": 3,
      "note": 82,
      "start": 3.6633,
      "duration": 0.0124,
      "velocity": 104,
      "chip": "ym2612"
    },
    {
      "channel": 0,
      "note": 77,
      "start": 3.6794,
      "duration": 0.0137,
      "velocity": 104,
      "chip": "ym2612"
    },
    {
      "channel": 2,
      "note": 70,
      "start": 3.6808,
      "duration": 0.0107,
      "velocity": 104,
      "chip": "ym2612"
    },
    {
      "channel": 3,
      "note": 77,
      "start": 3.6818,
      "duration": 0.0124,
      "velocity": 104,
      "chip": "ym2612"
    },
    {
      "channel": 0,
      "note": 84,
      "start": 3.698,
      "duration": 0.0137,
      "velocity": 104,
      "chip": "ym2612"
    },
    {
      "channel": 2,
      "note": 72,
      "start": 3.6994,
      "duration": 0.0108,
      "velocity": 104,
      "chip": "ym2612"
    },
    {
      "channel": 3,
      "note": 84,
      "start": 3.7004,
      "duration": 0.0123,
      "velocity": 104,
      "chip": "ym2612"
    },
    {
      "channel": 0,
      "note": 77,
      "start": 3.7165,
      "duration": 0.0137,
      "velocity": 104,
      "chip": "ym2612"
    },
    {
      "channel": 2,
      "note": 73,
      "start": 3.7179,
      "duration": 0.0107,
      "velocity": 104,
      "chip": "ym2612"
    },
    {
      "channel": 3,
      "note": 77,
      "start": 3.7189,
      "duration": 0.0123,
      "velocity": 104,
      "chip": "ym2612"
    },
    {
      "channel": 0,
      "note": 85,
      "start": 3.735,
      "duration": 0.0137,
      "velocity": 104,
      "chip": "ym2612"
    },
    {
      "channel": 2,
      "note": 72,
      "start": 3.7364,
      "duration": 0.0108,
      "velocity": 104,
      "chip": "ym2612"
    },
    {
      "channel": 3,
      "note": 85,
      "start": 3.7374,
      "duration": 0.0124,
      "velocity": 104,
      "chip": "ym2612"
    },
    {
      "channel": 0,
      "note": 77,
      "start": 3.7536,
      "duration": 0.0137,
      "velocity": 104,
      "chip": "ym2612"
    },
    {
      "channel": 2,
      "note": 70,
      "start": 3.755,
      "duration": 0.0108,
      "velocity": 104,
      "chip": "ym2612"
    },
    {
      "channel": 3,
      "note": 77,
      "start": 3.756,
      "duration": 0.0123,
      "velocity": 104,
      "chip": "ym2612"
    },
    {
      "channel": 0,
      "note": 84,
      "start": 3.7721,
      "duration": 0.0138,
      "velocity": 104,
      "chip": "ym2612"
    },
    {
      "channel": 2,
      "note": 65,
      "start": 3.7735,
      "duration": 0.0108,
      "velocity": 104,
      "chip": "ym2612"
    },
    {
      "channel": 3,
      "note": 84,
      "start": 3.7745,
      "duration": 0.0124,
      "velocity": 104,
      "chip": "ym2612"
    },
    {
      "channel": 0,
      "note": 77,
      "start": 3.791,
      "duration": 0.016,
      "velocity": 104,
      "chip": "ym2612"
    },
    {
      "channel": 1,
      "note": 97,
      "start": 3.7921,
      "duration": 0.0733,
      "velocity": 95,
      "chip": "ym2612"
    },
    {
      "channel": 2,
      "note": 70,
      "start": 3.7931,
      "duration": 0.0124,
      "velocity": 104,
      "chip": "ym2612"
    },
    {
      "channel": 3,
      "note": 77,
      "start": 3.7942,
      "duration": 0.0139,
      "velocity": 104,
      "chip": "ym2612"
    },
    {
      "channel": 4,
      "note": 97,
      "start": 3.7953,
      "duration": 0.0711,
      "velocity": 95,
      "chip": "ym2612"
    },
    {
      "channel": 5,
      "note": 85,
      "start": 3.7964,
      "duration": 0.0705,
      "velocity": 95,
      "chip": "ym2612"
    },
    {
      "channel": 0,
      "note": 82,
      "start": 3.8119,
      "duration": 0.0137,
      "velocity": 104,
      "chip": "ym2612"
    },
    {
      "channel": 2,
      "note": 72,
      "start": 3.8133,
      "duration": 0.0108,
      "velocity": 104,
      "chip": "ym2612"
    },
    {
      "channel": 3,
      "note": 82,
      "start": 3.8144,
      "duration": 0.0124,
      "velocity": 104,
      "chip": "ym2612"
    },
    {
      "channel": 0,
      "note": 77,
      "start": 3.8305,
      "duration": 0.0137,
      "velocity": 104,
      "chip": "ym2612"
    },
    {
      "channel": 2,
      "note": 73,
      "start": 3.8319,
      "duration": 0.0108,
      "velocity": 104,
      "chip": "ym2612"
    },
    {
      "channel": 3,
      "note": 77,
      "start": 3.8329,
      "duration": 0.0124,
      "velocity": 104,
      "chip": "ym2612"
    },
    {
      "channel": 0,
      "note": 84,
      "start": 3.8491,
      "duration": 0.0137,
      "velocity": 104,
      "chip": "ym2612"
    },
    {
      "channel": 2,
      "note": 72,
      "start": 3.8505,
      "duration": 0.0108,
      "velocity": 104,
      "chip": "ym2612"
    },
    {
      "channel": 3,
      "note": 84,
      "start": 3.8515,
      "duration": 0.0124,
      "velocity": 104,
      "chip": "ym2612"
    },
    {
      "channel": 0,
      "note": 77,
      "start": 3.868,
      "duration": 0.0159,
      "velocity": 104,
      "chip": "ym2612"
    },
    {
      "channel": 1,
      "note": 96,
      "start": 3.869,
      "duration": 0.0731,
      "velocity": 95,
      "chip": "ym2612"
    },
    {
      "channel": 2,
      "note": 70,
      "start": 3.8701,
      "duration": 0.0123,
      "velocity": 104,
      "chip": "ym2612"
    },
    {
      "channel": 3,
      "note": 77,
      "start": 3.8711,
      "duration": 0.0138,
      "velocity": 104,
      "chip": "ym2612"
    },
    {
      "channel": 4,
      "note": 96,
      "start": 3.8722,
      "duration": 0.0709,
      "velocity": 95,
      "chip": "ym2612"
    },
    {
      "channel": 5,
      "note": 84,
      "start": 3.8732,
      "duration": 0.0703,
      "velocity": 95,
      "chip": "ym2612"
    },
    {
      "channel": 0,
      "note": 85,
      "start": 3.8887,
      "duration": 0.0137,
      "velocity": 104,
      "chip": "ym2612"
    },
    {
      "channel": 2,
      "note": 65,
      "start": 3.8901,
      "duration": 0.0108,
      "velocity": 104,
      "chip": "ym2612"
    },
    {
      "channel": 3,
      "note": 85,
      "start": 3.8911,
      "duration": 0.0124,
      "velocity": 104,
      "chip": "ym2612"
    },
    {
      "channel": 0,
      "note": 77,
      "start": 3.9073,
      "duration": 0.0138,
      "velocity": 104,
      "chip": "ym2612"
    },
    {
      "channel": 2,
      "note": 70,
      "start": 3.9087,
      "duration": 0.0108,
      "velocity": 104,
      "chip": "ym2612"
    },
    {
      "channel": 3,
      "note": 77,
      "start": 3.9097,
      "duration": 0.0124,
      "velocity": 104,
      "chip": "ym2612"
    },
    {
      "channel": 0,
      "note": 84,
      "start": 3.9259,
      "duration": 0.0137,
      "velocity": 104,
      "chip": "ym2612"
    },
    {
      "channel": 2,
      "note": 72,
      "start": 3.9273,
      "duration": 0.0107,
      "velocity": 104,
      "chip": "ym2612"
    },
    {
      "channel": 3,
      "note": 84,
      "start": 3.9283,
      "duration": 0.0123,
      "velocity": 104,
      "chip": "ym2612"
    },
    {
      "channel": 0,
      "note": 77,
      "start": 3.9447,
      "duration": 0.0164,
      "velocity": 104,
      "chip": "ym2612"
    },
    {
      "channel": 1,
      "note": 88,
      "start": 3.9459,
      "duration": 0.1479,
      "velocity": 95,
      "chip": "ym2612"
    },
    {
      "channel": 2,
      "note": 73,
      "start": 3.947,
      "duration": 0.0126,
      "velocity": 104,
      "chip": "ym2612"
    },
    {
      "channel": 3,
      "note": 77,
      "start": 3.9481,
      "duration": 0.014,
      "velocity": 104,
      "chip": "ym2612"
    },
    {
      "channel": 4,
      "note": 88,
      "start": 3.9493,
      "duration": 0.1454,
      "velocity": 95,
      "chip": "ym2612"
    },
    {
      "channel": 5,
      "note": 76,
      "start": 3.9504,
      "duration": 0.1447,
      "velocity": 95,
      "chip": "ym2612"
    },
    {
      "channel": 0,
      "note": 82,
      "start": 3.9659,
      "duration": 0.0137,
      "velocity": 104,
      "chip": "ym2612"
    },
    {
      "channel": 2,
      "note": 72,
      "start": 3.9673,
      "duration": 0.0108,
      "velocity": 104,
      "chip": "ym2612"
    },
    {
      "channel": 3,
      "note": 82,
      "start": 3.9683,
      "duration": 0.0124,
      "velocity": 104,
      "chip": "ym2612"
    },
    {
      "channel": 0,
      "note": 77,
      "start": 3.9845,
      "duration": 0.0137,
      "velocity": 104,
      "chip": "ym2612"
    },
    {
      "channel": 2,
      "note": 70,
      "start": 3.9859,
      "duration": 0.0108,
      "velocity": 104,
      "chip": "ym2612"
    },
    {
      "channel": 3,
      "note": 77,
      "start": 3.9869,
      "duration": 0.0124,
      "velocity": 104,
      "chip": "ym2612"
    },
    {
      "channel": 0,
      "note": 84,
      "start": 4.0031,
      "duration": 0.0137,
      "velocity": 104,
      "chip": "ym2612"
    },
    {
      "channel": 2,
      "note": 65,
      "start": 4.0045,
      "duration": 0.0108,
      "velocity": 104,
      "chip": "ym2612"
    },
    {
      "channel": 3,
      "note": 84,
      "start": 4.0055,
      "duration": 0.0124,
      "velocity": 104,
      "chip": "ym2612"
    },
    {
      "channel": 0,
      "note": 77,
      "start": 4.0216,
      "duration": 0.0137,
      "velocity": 104,
      "chip": "ym2612"
    },
    {
      "channel": 2,
      "note": 70,
      "start": 4.023,
      "duration": 0.0108,
      "velocity": 104,
      "chip": "ym2612"
    },
    {
      "channel": 3,
      "note": 77,
      "start": 4.024,
      "duration": 0.0124,
      "velocity": 104,
      "chip": "ym2612"
    },
    {
      "channel": 0,
      "note": 85,
      "start": 4.0402,
      "duration": 0.0138,
      "velocity": 104,
      "chip": "ym2612"
    },
    {
      "channel": 2,
      "note": 72,
      "start": 4.0416,
      "duration": 0.0108,
      "velocity": 104,
      "chip": "ym2612"
    },
    {
      "channel": 3,
      "note": 85,
      "start": 4.0426,
      "duration": 0.0124,
      "velocity": 104,
      "chip": "ym2612"
    },
    {
      "channel": 0,
      "note": 77,
      "start": 4.0588,
      "duration": 0.0138,
      "velocity": 104,
      "chip": "ym2612"
    },
    {
      "channel": 2,
      "note": 73,
      "start": 4.0602,
      "duration": 0.0108,
      "velocity": 104,
      "chip": "ym2612"
    },
    {
      "channel": 3,
      "note": 77,
      "start": 4.0612,
      "duration": 0.0124,
      "velocity": 104,
      "chip": "ym2612"
    },
    {
      "channel": 0,
      "note": 84,
      "start": 4.0774,
      "duration": 0.0138,
      "velocity": 104,
      "chip": "ym2612"
    },
    {
      "channel": 2,
      "note": 72,
      "start": 4.0788,
      "duration": 0.0108,
      "velocity": 104,
      "chip": "ym2612"
    },
    {
      "channel": 3,
      "note": 84,
      "start": 4.0798,
      "duration": 0.0124,
      "velocity": 104,
      "chip": "ym2612"
    },
    {
      "channel": 0,
      "note": 77,
      "start": 4.0963,
      "duration": 0.016,
      "velocity": 104,
      "chip": "ym2612"
    },
    {
      "channel": 1,
      "note": 94,
      "start": 4.0974,
      "duration": 0.0731,
      "velocity": 95,
      "chip": "ym2612"
    },
    {
      "channel": 2,
      "note": 70,
      "start": 4.0984,
      "duration": 0.0123,
      "velocity": 104,
      "chip": "ym2612"
    },
    {
      "channel": 3,
      "note": 77,
      "start": 4.0995,
      "duration": 0.0139,
      "velocity": 104,
      "chip": "ym2612"
    },
    {
      "channel": 4,
      "note": 94,
      "start": 4.1006,
      "duration": 0.071,
      "velocity": 95,
      "chip": "ym2612"
    },
    {
      "channel": 5,
      "note": 82,
      "start": 4.1017,
      "duration": 0.0703,
      "velocity": 95,
      "chip": "ym2612"
    },
    {
      "channel": 0,
      "note": 82,
      "start": 4.1171,
      "duration": 0.0138,
      "velocity": 104,
      "chip": "ym2612"
    },
    {
      "channel": 2,
      "note": 65,
      "start": 4.1185,
      "duration": 0.0109,
      "velocity": 104,
      "chip": "ym2612"
    },
    {
      "channel": 3,
      "note": 82,
      "start": 4.1195,
      "duration": 0.0124,
      "velocity": 104,
      "chip": "ym2612"
    },
    {
      "channel": 0,
      "note": 77,
      "start": 4.1357,
      "duration": 0.0137,
      "velocity": 104,
      "chip": "ym2612"
    },
    {
      "channel": 2,
      "note": 70,
      "start": 4.1371,
      "duration": 0.0108,
      "velocity": 104,
      "chip": "ym2612"
    },
    {
      "channel": 3,
      "note": 77,
      "start": 4.1381,
      "duration": 0.0123,
      "velocity": 104,
      "chip": "ym2612"
    },
    {
      "channel": 0,
      "note": 84,
      "start": 4.1542,
      "duration": 0.0137,
      "velocity": 104,
      "chip": "ym2612"
    },
    {
      "channel": 2,
      "note": 72,
      "start": 4.1556,
      "duration": 0.0108,
      "velocity": 104,
      "chip": "ym2612"
    },
    {
      "channel": 3,
      "note": 84,
      "start": 4.1566,
      "duration": 0.0124,
      "velocity": 104,
      "chip": "ym2612"
    },
    {
      "channel": 0,
      "note": 77,
      "start": 4.1731,
      "duration": 0.016,
      "velocity": 104,
      "chip": "ym2612"
    },
    {
      "channel": 1,
      "note": 93,
      "start": 4.1742,
      "duration": 0.0731,
      "velocity": 95,
      "chip": "ym2612"
    },
    {
      "channel": 2,
      "note": 73,
      "start": 4.1752,
      "duration": 0.0124,
      "velocity": 104,
      "chip": "ym2612"
    },
    {
      "channel": 3,
      "note": 77,
      "start": 4.1763,
      "duration": 0.0139,
      "velocity": 104,
      "chip": "ym2612"
    },
    {
      "channel": 4,
      "note": 93,
      "start": 4.1774,
      "duration": 0.071,
      "velocity": 95,
      "chip": "ym2612"
    },
    {
      "channel": 5,
      "note": 81,
      "start": 4.1785,
      "duration": 0.0703,
      "velocity": 95,
      "chip": "ym2612"
    },
    {
      "channel": 0,
      "note": 85,
      "start": 4.194,
      "duration": 0.0137,
      "velocity": 104,
      "chip": "ym2612"
    },
    {
      "channel": 2,
      "note": 72,
      "start": 4.1954,
      "duration": 0.0108,
      "velocity": 104,
      "chip": "ym2612"
    },
    {
      "channel": 3,
      "note": 85,
      "start": 4.1964,
      "duration": 0.0123,
      "velocity": 104,
      "chip": "ym2612"
    },
    {
      "channel": 0,
      "note": 77,
      "start": 4.2125,
      "duration": 0.0138,
      "velocity": 104,
      "chip": "ym2612"
    },
    {
      "channel": 2,
      "note": 70,
      "start": 4.2139,
      "duration": 0.0108,
      "velocity": 104,
      "chip": "ym2612"
    },
    {
      "channel": 3,
      "note": 77,
      "start": 4.2149,
      "duration": 0.0124,
      "velocity": 104,
      "chip": "ym2612"
    },
    {
      "channel": 0,
      "note": 84,
      "start": 4.2311,
      "duration": 0.0137,
      "velocity": 104,
      "chip": "ym2612"
    },
    {
      "channel": 2,
      "note": 65,
      "start": 4.2325,
      "duration": 0.0108,
      "velocity": 104,
      "chip": "ym2612"
    },
    {
      "channel": 3,
      "note": 84,
      "start": 4.2335,
      "duration": 0.0124,
      "velocity": 104,
      "chip": "ym2612"
    },
    {
      "channel": 0,
      "note": 77,
      "start": 4.2499,
      "duration": 0.0163,
      "velocity": 104,
      "chip": "ym2612"
    },
    {
      "channel": 1,
      "note": 85,
      "start": 4.2511,
      "duration": 0.5952,
      "velocity": 95,
      "chip": "ym2612"
    },
    {
      "channel": 2,
      "note": 70,
      "start": 4.2522,
      "duration": 0.0125,
      "velocity": 104,
      "chip": "ym2612"
    },
    {
      "channel": 3,
      "note": 77,
      "start": 4.2534,
      "duration": 0.014,
      "velocity": 104,
      "chip": "ym2612"
    },
    {
      "channel": 4,
      "note": 85,
      "start": 4.2545,
      "duration": 0.5927,
      "velocity": 95,
      "chip": "ym2612"
    },
    {
      "channel": 5,
      "note": 73,
      "start": 4.2556,
      "duration": 0.592,
      "velocity": 95,
      "chip": "ym2612"
    },
    {
      "channel": 0,
      "note": 82,
      "start": 4.2711,
      "duration": 0.0137,
      "velocity": 104,
      "chip": "ym2612"
    },
    {
      "channel": 2,
      "note": 72,
      "start": 4.2725,
      "duration": 0.0108,
      "velocity": 104,
      "chip": "ym2612"
    },
    {
      "channel": 3,
      "note": 82,
      "start": 4.2736,
      "duration": 0.0124,
      "velocity": 104,
      "chip": "ym2612"
    },
    {
      "channel": 0,
      "note": 77,
      "start": 4.2897,
      "duration": 0.0137,
      "velocity": 104,
      "chip": "ym2612"
    },
    {
      "channel": 2,
      "note": 73,
      "start": 4.2911,
      "duration": 0.0108,
      "velocity": 104,
      "chip": "ym2612"
    },
    {
      "channel": 3,
      "note": 77,
      "start": 4.2921,
      "duration": 0.0124,
      "velocity": 104,
      "chip": "ym2612"
    },
    {
      "channel": 0,
      "note": 84,
      "start": 4.3083,
      "duration": 0.0137,
      "velocity": 104,
      "chip": "ym2612"
    },
    {
      "channel": 2,
      "note": 72,
      "start": 4.3097,
      "duration": 0.0108,
      "velocity": 104,
      "chip": "ym2612"
    },
    {
      "channel": 3,
      "note": 84,
      "start": 4.3107,
      "duration": 0.0124,
      "velocity": 104,
      "chip": "ym2612"
    },
    {
      "channel": 0,
      "note": 77,
      "start": 4.3268,
      "duration": 0.0137,
      "velocity": 104,
      "chip": "ym2612"
    },
    {
      "channel": 2,
      "note": 70,
      "start": 4.3282,
      "duration": 0.0108,
      "velocity": 104,
      "chip": "ym2612"
    },
    {
      "channel": 3,
      "note": 77,
      "start": 4.3293,
      "duration": 0.0124,
      "velocity": 104,
      "chip": "ym2612"
    },
    {
      "channel": 0,
      "note": 85,
      "start": 4.3454,
      "duration": 0.0137,
      "velocity": 104,
      "chip": "ym2612"
    },
    {
      "channel": 2,
      "note": 65,
      "start": 4.3468,
      "duration": 0.0108,
      "velocity": 104,
      "chip": "ym2612"
    },
    {
      "channel": 3,
      "note": 85,
      "start": 4.3478,
      "duration": 0.0124,
      "velocity": 104,
      "chip": "ym2612"
    },
    {
      "channel": 0,
      "note": 77,
      "start": 4.3639,
      "duration": 0.0138,
      "velocity": 104,
      "chip": "ym2612"
    },
    {
      "channel": 2,
      "note": 70,
      "start": 4.3653,
      "duration": 0.0108,
      "velocity": 104,
      "chip": "ym2612"
    },
    {
      "channel": 3,
      "note": 77,
      "start": 4.3663,
      "duration": 0.0124,
      "velocity": 104,
      "chip": "ym2612"
    },
    {
      "channel": 0,
      "note": 84,
      "start": 4.3825,
      "duration": 0.0137,
      "velocity": 104,
      "chip": "ym2612"
    },
    {
      "channel": 2,
      "note": 72,
      "start": 4.3839,
      "duration": 0.0108,
      "velocity": 104,
      "chip": "ym2612"
    },
    {
      "channel": 3,
      "note": 84,
      "start": 4.385,
      "duration": 0.0124,
      "velocity": 104,
      "chip": "ym2612"
    },
    {
      "channel": 0,
      "note": 77,
      "start": 4.4011,
      "duration": 0.0137,
      "velocity": 104,
      "chip": "ym2612"
    },
    {
      "channel": 2,
      "note": 73,
      "start": 4.4025,
      "duration": 0.0108,
      "velocity": 104,
      "chip": "ym2612"
    },
    {
      "channel": 3,
      "note": 77,
      "start": 4.4035,
      "duration": 0.0124,
      "velocity": 104,
      "chip": "ym2612"
    },
    {
      "channel": 0,
      "note": 82,
      "start": 4.4196,
      "duration": 0.0138,
      "velocity": 104,
      "chip": "ym2612"
    },
    {
      "channel": 2,
      "note": 72,
      "start": 4.421,
      "duration": 0.0108,
      "velocity": 104,
      "chip": "ym2612"
    },
    {
      "channel": 3,
      "note": 82,
      "start": 4.422,
      "duration": 0.0124,
      "velocity": 104,
      "chip": "ym2612"
    },
    {
      "channel": 0,
      "note": 77,
      "start": 4.4382,
      "duration": 0.0137,
      "velocity": 104,
      "chip": "ym2612"
    },
    {
      "channel": 2,
      "note": 70,
      "start": 4.4396,
      "duration": 0.0108,
      "velocity": 104,
      "chip": "ym2612"
    },
    {
      "channel": 3,
      "note": 77,
      "start": 4.4406,
      "duration": 0.0123,
      "velocity": 104,
      "chip": "ym2612"
    },
    {
      "channel": 0,
      "note": 84,
      "start": 4.4567,
      "duration": 0.0138,
      "velocity": 104,
      "chip": "ym2612"
    },
    {
      "channel": 2,
      "note": 65,
      "start": 4.4581,
      "duration": 0.0108,
      "velocity": 104,
      "chip": "ym2612"
    },
    {
      "channel": 3,
      "note": 84,
      "start": 4.4591,
      "duration": 0.0124,
      "velocity": 104,
      "chip": "ym2612"
    },
    {
      "channel": 0,
      "note": 77,
      "start": 4.4753,
      "duration": 0.0137,
      "velocity": 104,
      "chip": "ym2612"
    },
    {
      "channel": 2,
      "note": 70,
      "start": 4.4767,
      "duration": 0.0108,
      "velocity": 104,
      "chip": "ym2612"
    },
    {
      "channel": 3,
      "note": 77,
      "start": 4.4777,
      "duration": 0.0124,
      "velocity": 104,
      "chip": "ym2612"
    },
    {
      "channel": 0,
      "note": 85,
      "start": 4.4939,
      "duration": 0.0137,
      "velocity": 104,
      "chip": "ym2612"
    },
    {
      "channel": 2,
      "note": 72,
      "start": 4.4953,
      "duration": 0.0108,
      "velocity": 104,
      "chip": "ym2612"
    },
    {
      "channel": 3,
      "note": 85,
      "start": 4.4963,
      "duration": 0.0123,
      "velocity": 104,
      "chip": "ym2612"
    },
    {
      "channel": 0,
      "note": 77,
      "start": 4.5124,
      "duration": 0.0137,
      "velocity": 104,
      "chip": "ym2612"
    },
    {
      "channel": 2,
      "note": 73,
      "start": 4.5138,
      "duration": 0.0107,
      "velocity": 104,
      "chip": "ym2612"
    },
    {
      "channel": 3,
      "note": 77,
      "start": 4.5149,
      "duration": 0.0123,
      "velocity": 104,
      "chip": "ym2612"
    },
    {
      "channel": 0,
      "note": 84,
      "start": 4.531,
      "duration": 0.0137,
      "velocity": 104,
      "chip": "ym2612"
    },
    {
      "channel": 2,
      "note": 72,
      "start": 4.5324,
      "duration": 0.0108,
      "velocity": 104,
      "chip": "ym2612"
    },
    {
      "channel": 3,
      "note": 84,
      "start": 4.5334,
      "duration": 0.0124,
      "velocity": 104,
      "chip": "ym2612"
    },
    {
      "channel": 0,
      "note": 77,
      "start": 4.5495,
      "duration": 0.0155,
      "velocity": 104,
      "chip": "ym2612"
    },
    {
      "channel": 2,
      "note": 70,
      "start": 4.5515,
      "duration": 0.012,
      "velocity": 104,
      "chip": "ym2612"
    },
    {
      "channel": 3,
      "note": 77,
      "start": 4.5526,
      "duration": 0.0135,
      "velocity": 104,
      "chip": "ym2612"
    },
    {
      "channel": 0,
      "note": 85,
      "start": 4.5698,
      "duration": 0.0137,
      "velocity": 104,
      "chip": "ym2612"
    },
    {
      "channel": 2,
      "note": 65,
      "start": 4.5712,
      "duration": 0.0108,
      "velocity": 104,
      "chip": "ym2612"
    },
    {
      "channel": 3,
      "note": 85,
      "start": 4.5723,
      "duration": 0.0124,
      "velocity": 104,
      "chip": "ym2612"
    },
    {
      "channel": 0,
      "note": 77,
      "start": 4.5884,
      "duration": 0.0137,
      "velocity": 104,
      "chip": "ym2612"
    },
    {
      "channel": 2,
      "note": 70,
      "start": 4.5898,
      "duration": 0.0108,
      "velocity": 104,
      "chip": "ym2612"
    },
    {
      "channel": 3,
      "note": 77,
      "start": 4.5908,
      "duration": 0.0124,
      "velocity": 104,
      "chip": "ym2612"
    },
    {
      "channel": 0,
      "note": 84,
      "start": 4.607,
      "duration": 0.0137,
      "velocity": 104,
      "chip": "ym2612"
    },
    {
      "channel": 2,
      "note": 72,
      "start": 4.6084,
      "duration": 0.0108,
      "velocity": 104,
      "chip": "ym2612"
    },
    {
      "channel": 3,
      "note": 84,
      "start": 4.6095,
      "duration": 0.0124,
      "velocity": 104,
      "chip": "ym2612"
    },
    {
      "channel": 0,
      "note": 77,
      "start": 4.6256,
      "duration": 0.0138,
      "velocity": 104,
      "chip": "ym2612"
    },
    {
      "channel": 2,
      "note": 73,
      "start": 4.627,
      "duration": 0.0108,
      "velocity": 104,
      "chip": "ym2612"
    },
    {
      "channel": 3,
      "note": 77,
      "start": 4.628,
      "duration": 0.0124,
      "velocity": 104,
      "chip": "ym2612"
    },
    {
      "channel": 0,
      "note": 85,
      "start": 4.6441,
      "duration": 0.0138,
      "velocity": 104,
      "chip": "ym2612"
    },
    {
      "channel": 2,
      "note": 72,
      "start": 4.6456,
      "duration": 0.0109,
      "velocity": 104,
      "chip": "ym2612"
    },
    {
      "channel": 3,
      "note": 85,
      "start": 4.6466,
      "duration": 0.0124,
      "velocity": 104,
      "chip": "ym2612"
    },
    {
      "channel": 0,
      "note": 77,
      "start": 4.6627,
      "duration": 0.0137,
      "velocity": 104,
      "chip": "ym2612"
    },
    {
      "channel": 2,
      "note": 70,
      "start": 4.6641,
      "duration": 0.0108,
      "velocity": 104,
      "chip": "ym2612"
    },
    {
      "channel": 3,
      "note": 77,
      "start": 4.6652,
      "duration": 0.0124,
      "velocity": 104,
      "chip": "ym2612"
    },
    {
      "channel": 0,
      "note": 84,
      "start": 4.6814,
      "duration": 0.0137,
      "velocity": 104,
      "chip": "ym2612"
    },
    {
      "channel": 2,
      "note": 65,
      "start": 4.6828,
      "duration": 0.0108,
      "velocity": 104,
      "chip": "ym2612"
    },
    {
      "channel": 3,
      "note": 84,
      "start": 4.6838,
      "duration": 0.0124,
      "velocity": 104,
      "chip": "ym2612"
    },
    {
      "channel": 0,
      "note": 77,
      "start": 4.6999,
      "duration": 0.0137,
      "velocity": 104,
      "chip": "ym2612"
    },
    {
      "channel": 2,
      "note": 70,
      "start": 4.7013,
      "duration": 0.0108,
      "velocity": 104,
      "chip": "ym2612"
    },
    {
      "channel": 3,
      "note": 77,
      "start": 4.7024,
      "duration": 0.0124,
      "velocity": 104,
      "chip": "ym2612"
    },
    {
      "channel": 0,
      "note": 82,
      "start": 4.7185,
      "duration": 0.0137,
      "velocity": 104,
      "chip": "ym2612"
    },
    {
      "channel": 2,
      "note": 72,
      "start": 4.7199,
      "duration": 0.0108,
      "velocity": 104,
      "chip": "ym2612"
    },
    {
      "channel": 3,
      "note": 82,
      "start": 4.721,
      "duration": 0.0124,
      "velocity": 104,
      "chip": "ym2612"
    },
    {
      "channel": 0,
      "note": 77,
      "start": 4.7371,
      "duration": 0.0137,
      "velocity": 104,
      "chip": "ym2612"
    },
    {
      "channel": 2,
      "note": 73,
      "start": 4.7385,
      "duration": 0.0108,
      "velocity": 104,
      "chip": "ym2612"
    },
    {
      "channel": 3,
      "note": 77,
      "start": 4.7395,
      "duration": 0.0124,
      "velocity": 104,
      "chip": "ym2612"
    },
    {
      "channel": 0,
      "note": 84,
      "start": 4.7556,
      "duration": 0.0138,
      "velocity": 104,
      "chip": "ym2612"
    },
    {
      "channel": 2,
      "note": 72,
      "start": 4.757,
      "duration": 0.0108,
      "velocity": 104,
      "chip": "ym2612"
    },
    {
      "channel": 3,
      "note": 84,
      "start": 4.758,
      "duration": 0.0124,
      "velocity": 104,
      "chip": "ym2612"
    },
    {
      "channel": 0,
      "note": 77,
      "start": 4.7743,
      "duration": 0.0137,
      "velocity": 104,
      "chip": "ym2612"
    },
    {
      "channel": 2,
      "note": 70,
      "start": 4.7757,
      "duration": 0.0108,
      "velocity": 104,
      "chip": "ym2612"
    },
    {
      "channel": 3,
      "note": 77,
      "start": 4.7767,
      "duration": 0.0124,
      "velocity": 104,
      "chip": "ym2612"
    },
    {
      "channel": 0,
      "note": 85,
      "start": 4.7928,
      "duration": 0.0137,
      "velocity": 104,
      "chip": "ym2612"
    },
    {
      "channel": 2,
      "note": 65,
      "start": 4.7942,
      "duration": 0.0108,
      "velocity": 104,
      "chip": "ym2612"
    },
    {
      "channel": 3,
      "note": 85,
      "start": 4.7952,
      "duration": 0.0124,
      "velocity": 104,
      "chip": "ym2612"
    },
    {
      "channel": 0,
      "note": 77,
      "start": 4.8114,
      "duration": 0.0138,
      "velocity": 104,
      "chip": "ym2612"
    },
    {
      "channel": 2,
      "note": 70,
      "start": 4.8128,
      "duration": 0.0108,
      "velocity": 104,
      "chip": "ym2612"
    },
    {
      "channel": 3,
      "note": 77,
      "start": 4.8138,
      "duration": 0.0124,
      "velocity": 104,
      "chip": "ym2612"
    },
    {
      "channel": 0,
      "note": 84,
      "start": 4.83,
      "duration": 0.0137,
      "velocity": 104,
      "chip": "ym2612"
    },
    {
      "channel": 2,
      "note": 72,
      "start": 4.8314,
      "duration": 0.0107,
      "velocity": 104,
      "chip": "ym2612"
    },
    {
      "channel": 3,
      "note": 84,
      "start": 4.8324,
      "duration": 0.0123,
      "velocity": 104,
      "chip": "ym2612"
    },
    {
      "channel": 0,
      "note": 77,
      "start": 4.8488,
      "duration": 0.0164,
      "velocity": 104,
      "chip": "ym2612"
    },
    {
      "channel": 1,
      "note": 91,
      "start": 4.85,
      "duration": 0.1479,
      "velocity": 95,
      "chip": "ym2612"
    },
    {
      "channel": 2,
      "note": 73,
      "start": 4.8511,
      "duration": 0.0126,
      "velocity": 104,
      "chip": "ym2612"
    },
    {
      "channel": 3,
      "note": 77,
      "start": 4.8522,
      "duration": 0.014,
      "velocity": 104,
      "chip": "ym2612"
    },
    {
      "channel": 4,
      "note": 91,
      "start": 4.8534,
      "duration": 0.1454,
      "velocity": 95,
      "chip": "ym2612"
    },
    {
      "channel": 5,
      "note": 79,
      "start": 4.8545,
      "duration": 0.1447,
      "velocity": 95,
      "chip": "ym2612"
    },
    {
      "channel": 0,
      "note": 82,
      "start": 4.87,
      "duration": 0.0137,
      "velocity": 104,
      "chip": "ym2612"
    },
    {
      "channel": 2,
      "note": 72,
      "start": 4.8714,
      "duration": 0.0108,
      "velocity": 104,
      "chip": "ym2612"
    },
    {
      "channel": 3,
      "note": 82,
      "start": 4.8724,
      "duration": 0.0124,
      "velocity": 104,
      "chip": "ym2612"
    },
    {
      "channel": 0,
      "note": 77,
      "start": 4.8886,
      "duration": 0.0137,
      "velocity": 104,
      "chip": "ym2612"
    },
    {
      "channel": 2,
      "note": 70,
      "start": 4.89,
      "duration": 0.0108,
      "velocity": 104,
      "chip": "ym2612"
    },
    {
      "channel": 3,
      "note": 77,
      "start": 4.891,
      "duration": 0.0124,
      "velocity": 104,
      "chip": "ym2612"
    },
    {
      "channel": 0,
      "note": 84,
      "start": 4.9072,
      "duration": 0.0137,
      "velocity": 104,
      "chip": "ym2612"
    },
    {
      "channel": 2,
      "note": 65,
      "start": 4.9086,
      "duration": 0.0108,
      "velocity": 104,
      "chip": "ym2612"
    },
    {
      "channel": 3,
      "note": 84,
      "start": 4.9096,
      "duration": 0.0124,
      "velocity": 104,
      "chip": "ym2612"
    },
    {
      "channel": 0,
      "note": 77,
      "start": 4.9257,
      "duration": 0.0137,
      "velocity": 104,
      "chip": "ym2612"
    },
    {
      "channel": 2,
      "note": 70,
      "start": 4.9271,
      "duration": 0.0108,
      "velocity": 104,
      "chip": "ym2612"
    },
    {
      "channel": 3,
      "note": 77,
      "start": 4.9281,
      "duration": 0.0124,
      "velocity": 104,
      "chip": "ym2612"
    },
    {
      "channel": 0,
      "note": 85,
      "start": 4.9443,
      "duration": 0.0138,
      "velocity": 104,
      "chip": "ym2612"
    },
    {
      "channel": 2,
      "note": 72,
      "start": 4.9457,
      "duration": 0.0108,
      "velocity": 104,
      "chip": "ym2612"
    },
    {
      "channel": 3,
      "note": 85,
      "start": 4.9467,
      "duration": 0.0124,
      "velocity": 104,
      "chip": "ym2612"
    },
    {
      "channel": 0,
      "note": 77,
      "start": 4.9629,
      "duration": 0.0138,
      "velocity": 104,
      "chip": "ym2612"
    },
    {
      "channel": 2,
      "note": 73,
      "start": 4.9643,
      "duration": 0.0108,
      "velocity": 104,
      "chip": "ym2612"
    },
    {
      "channel": 3,
      "note": 77,
      "start": 4.9653,
      "duration": 0.0124,
      "velocity": 104,
      "chip": "ym2612"
    },
    {
      "channel": 0,
      "note": 84,
      "start": 4.9815,
      "duration": 0.0138,
      "velocity": 104,
      "chip": "ym2612"
    },
    {
      "channel": 2,
      "note": 72,
      "start": 4.9829,
      "duration": 0.0108,
      "velocity": 104,
      "chip": "ym2612"
    },
    {
      "channel": 3,
      "note": 84,
      "start": 4.9839,
      "duration": 0.0124,
      "velocity": 104,
      "chip": "ym2612"
    },
    {
      "channel": 0,
      "note": 77,
      "start": 5.0004,
      "duration": 0.016,
      "velocity": 104,
      "chip": "ym2612"
    },
    {
      "channel": 1,
      "note": 97,
      "start": 5.0015,
      "duration": 0.0731,
      "velocity": 95,
      "chip": "ym2612"
    },
    {
      "channel": 2,
      "note": 70,
      "start": 5.0025,
      "duration": 0.0123,
      "velocity": 104,
      "chip": "ym2612"
    },
    {
      "channel": 3,
      "note": 77,
      "start": 5.0036,
      "duration": 0.0139,
      "velocity": 104,
      "chip": "ym2612"
    },
    {
      "channel": 4,
      "note": 97,
      "start": 5.0047,
      "duration": 0.071,
      "velocity": 95,
      "chip": "ym2612"
    },
    {
      "channel": 5,
      "note": 85,
      "start": 5.0058,
      "duration": 0.0703,
      "velocity": 95,
      "chip": "ym2612"
    },
    {
      "channel": 0,
      "note": 82,
      "start": 5.0212,
      "duration": 0.0138,
      "velocity": 104,
      "chip": "ym2612"
    },
    {
      "channel": 2,
      "note": 65,
      "start": 5.0226,
      "duration": 0.0109,
      "velocity": 104,
      "chip": "ym2612"
    },
    {
      "channel": 3,
      "note": 82,
      "start": 5.0236,
      "duration": 0.0124,
      "velocity": 104,
      "chip": "ym2612"
    },
    {
      "channel": 0,
      "note": 77,
      "start": 5.0398,
      "duration": 0.0137,
      "velocity": 104,
      "chip": "ym2612"
    },
    {
      "channel": 2,
      "note": 70,
      "start": 5.0412,
      "duration": 0.0108,
      "velocity": 104,
      "chip": "ym2612"
    },
    {
      "channel": 3,
      "note": 77,
      "start": 5.0422,
      "duration": 0.0123,
      "velocity": 104,
      "chip": "ym2612"
    },
    {
      "channel": 0,
      "note": 84,
      "start": 5.0583,
      "duration": 0.0137,
      "velocity": 104,
      "chip": "ym2612"
    },
    {
      "channel": 2,
      "note": 72,
      "start": 5.0597,
      "duration": 0.0108,
      "velocity": 104,
      "chip": "ym2612"
    },
    {
      "channel": 3,
      "note": 84,
      "start": 5.0607,
      "duration": 0.0124,
      "velocity": 104,
      "chip": "ym2612"
    },
    {
      "channel": 0,
      "note": 77,
      "start": 5.0772,
      "duration": 0.016,
      "velocity": 104,
      "chip": "ym2612"
    },
    {
      "channel": 1,
      "note": 96,
      "start": 5.0783,
      "duration": 0.0731,
      "velocity": 95,
      "chip": "ym2612"
    },
    {
      "channel": 2,
      "note": 73,
      "start": 5.0793,
      "duration": 0.0124,
      "velocity": 104,
      "chip": "ym2612"
    },
    {
      "channel": 3,
      "note": 77,
      "start": 5.0804,
      "duration": 0.0139,
      "velocity": 104,
      "chip": "ym2612"
    },
    {
      "channel": 4,
      "note": 96,
      "start": 5.0815,
      "duration": 0.071,
      "velocity": 95,
      "chip": "ym2612"
    },
    {
      "channel": 5,
      "note": 84,
      "start": 5.0826,
      "duration": 0.0703,
      "velocity": 95,
      "chip": "ym2612"
    },
    {
      "channel": 0,
      "note": 85,
      "start": 5.0981,
      "duration": 0.0137,
      "velocity": 104,
      "chip": "ym2612"
    },
    {
      "channel": 2,
      "note": 72,
      "start": 5.0995,
      "duration": 0.0108,
      "velocity": 104,
      "chip": "ym2612"
    },
    {
      "channel": 3,
      "note": 85,
      "start": 5.1005,
      "duration": 0.0123,
      "velocity": 104,
      "chip": "ym2612"
    },
    {
      "channel": 0,
      "note": 77,
      "start": 5.1166,
      "duration": 0.0138,
      "velocity": 104,
      "chip": "ym2612"
    },
    {
      "channel": 2,
      "note": 70,
      "start": 5.118,
      "duration": 0.0108,
      "velocity": 104,
      "chip": "ym2612"
    },
    {
      "channel": 3,
      "note": 77,
      "start": 5.119,
      "duration": 0.0124,
      "velocity": 104,
      "chip": "ym2612"
    },
    {
      "channel": 0,
      "note": 84,
      "start": 5.1352,
      "duration": 0.0137,
      "velocity": 104,
      "chip": "ym2612"
    },
    {
      "channel": 2,
      "note": 65,
      "start": 5.1366,
      "duration": 0.0108,
      "velocity": 104,
      "chip": "ym2612"
    },
    {
      "channel": 3,
      "note": 84,
      "start": 5.1376,
      "duration": 0.0124,
      "velocity": 104,
      "chip": "ym2612"
    },
    {
      "channel": 0,
      "note": 77,
      "start": 5.154,
      "duration": 0.0164,
      "velocity": 104,
      "chip": "ym2612"
    },
    {
      "channel": 1,
      "note": 88,
      "start": 5.1552,
      "duration": 0.1477,
      "velocity": 95,
      "chip": "ym2612"
    },
    {
      "channel": 2,
      "note": 70,
      "start": 5.1563,
      "duration": 0.0126,
      "velocity": 104,
      "chip": "ym2612"
    },
    {
      "channel": 3,
      "note": 77,
      "start": 5.1575,
      "duration": 0.014,
      "velocity": 104,
      "chip": "ym2612"
    },
    {
      "channel": 4,
      "note": 88,
      "start": 5.1586,
      "duration": 0.1453,
      "velocity": 95,
      "chip": "ym2612"
    },
    {
      "channel": 5,
      "note": 76,
      "start": 5.1598,
      "duration": 0.1446,
      "velocity": 95,
      "chip": "ym2612"
    },
    {
      "channel": 0,
      "note": 82,
      "start": 5.1753,
      "duration": 0.0137,
      "velocity": 104,
      "chip": "ym2612"
    },
    {
      "channel": 2,
      "note": 72,
      "start": 5.1767,
      "duration": 0.0108,
      "velocity": 104,
      "chip": "ym2612"
    },
    {
      "channel": 3,
      "note": 82,
      "start": 5.1777,
      "duration": 0.0123,
      "velocity": 104,
      "chip": "ym2612"
    },
    {
      "channel": 0,
      "note": 77,
      "start": 5.1938,
      "duration": 0.0137,
      "velocity": 104,
      "chip": "ym2612"
    },
    {
      "channel": 2,
      "note": 73,
      "start": 5.1952,
      "duration": 0.0107,
      "velocity": 104,
      "chip": "ym2612"
    },
    {
      "channel": 3,
      "note": 77,
      "start": 5.1962,
      "duration": 0.0123,
      "velocity": 104,
      "chip": "ym2612"
    },
    {
      "channel": 0,
      "note": 84,
      "start": 5.2123,
      "duration": 0.0137,
      "velocity": 104,
      "chip": "ym2612"
    },
    {
      "channel": 2,
      "note": 72,
      "start": 5.2137,
      "duration": 0.0108,
      "velocity": 104,
      "chip": "ym2612"
    },
    {
      "channel": 3,
      "note": 84,
      "start": 5.2147,
      "duration": 0.0124,
      "velocity": 104,
      "chip": "ym2612"
    },
    {
      "channel": 0,
      "note": 77,
      "start": 5.2309,
      "duration": 0.0137,
      "velocity": 104,
      "chip": "ym2612"
    },
    {
      "channel": 2,
      "note": 70,
      "start": 5.2323,
      "duration": 0.0108,
      "velocity": 104,
      "chip": "ym2612"
    },
    {
      "channel": 3,
      "note": 77,
      "start": 5.2333,
      "duration": 0.0123,
      "velocity": 104,
      "chip": "ym2612"
    },
    {
      "channel": 0,
      "note": 85,
      "start": 5.2494,
      "duration": 0.0138,
      "velocity": 104,
      "chip": "ym2612"
    },
    {
      "channel": 2,
      "note": 65,
      "start": 5.2508,
      "duration": 0.0108,
      "velocity": 104,
      "chip": "ym2612"
    },
    {
      "channel": 3,
      "note": 85,
      "start": 5.2518,
      "duration": 0.0124,
      "velocity": 104,
      "chip": "ym2612"
    },
    {
      "channel": 0,
      "note": 77,
      "start": 5.268,
      "duration": 0.0138,
      "velocity": 104,
      "chip": "ym2612"
    },
    {
      "channel": 2,
      "note": 70,
      "start": 5.2694,
      "duration": 0.0109,
      "velocity": 104,
      "chip": "ym2612"
    },
    {
      "channel": 3,
      "note": 77,
      "start": 5.2705,
      "duration": 0.0124,
      "velocity": 104,
      "chip": "ym2612"
    },
    {
      "channel": 0,
      "note": 84,
      "start": 5.2866,
      "duration": 0.0137,
      "velocity": 104,
      "chip": "ym2612"
    },
    {
      "channel": 2,
      "note": 72,
      "start": 5.288,
      "duration": 0.0108,
      "velocity": 104,
      "chip": "ym2612"
    },
    {
      "channel": 3,
      "note": 84,
      "start": 5.289,
      "duration": 0.0124,
      "velocity": 104,
      "chip": "ym2612"
    },
    {
      "channel": 0,
      "note": 77,
      "start": 5.3055,
      "duration": 0.016,
      "velocity": 104,
      "chip": "ym2612"
    },
    {
      "channel": 1,
      "note": 94,
      "start": 5.3066,
      "duration": 0.0732,
      "velocity": 95,
      "chip": "ym2612"
    },
    {
      "channel": 2,
      "note": 73,
      "start": 5.3076,
      "duration": 0.0124,
      "velocity": 104,
      "chip": "ym2612"
    },
    {
      "channel": 3,
      "note": 77,
      "start": 5.3087,
      "duration": 0.0139,
      "velocity": 104,
      "chip": "ym2612"
    },
    {
      "channel": 4,
      "note": 94,
      "start": 5.3098,
      "duration": 0.071,
      "velocity": 95,
      "chip": "ym2612"
    },
    {
      "channel": 5,
      "note": 82,
      "start": 5.3108,
      "duration": 0.0703,
      "velocity": 95,
      "chip": "ym2612"
    },
    {
      "channel": 0,
      "note": 82,
      "start": 5.3263,
      "duration": 0.0137,
      "velocity": 104,
      "chip": "ym2612"
    },
    {
      "channel": 2,
      "note": 72,
      "start": 5.3277,
      "duration": 0.0108,
      "velocity": 104,
      "chip": "ym2612"
    },
    {
      "channel": 3,
      "note": 82,
      "start": 5.3287,
      "duration": 0.0124,
      "velocity": 104,
      "chip": "ym2612"
    },
    {
      "channel": 0,
      "note": 77,
      "start": 5.3449,
      "duration": 0.0137,
      "velocity": 104,
      "chip": "ym2612"
    },
    {
      "channel": 2,
      "note": 70,
      "start": 5.3463,
      "duration": 0.0108,
      "velocity": 104,
      "chip": "ym2612"
    },
    {
      "channel": 3,
      "note": 77,
      "start": 5.3473,
      "duration": 0.0124,
      "velocity": 104,
      "chip": "ym2612"
    },
    {
      "channel": 0,
      "note": 84,
      "start": 5.3634,
      "duration": 0.0137,
      "velocity": 104,
      "chip": "ym2612"
    },
    {
      "channel": 2,
      "note": 65,
      "start": 5.3648,
      "duration": 0.0108,
      "velocity": 104,
      "chip": "ym2612"
    },
    {
      "channel": 3,
      "note": 84,
      "start": 5.3659,
      "duration": 0.0124,
      "velocity": 104,
      "chip": "ym2612"
    },
    {
      "channel": 0,
      "note": 77,
      "start": 5.3823,
      "duration": 0.016,
      "velocity": 104,
      "chip": "ym2612"
    },
    {
      "channel": 1,
      "note": 93,
      "start": 5.3834,
      "duration": 0.0731,
      "velocity": 95,
      "chip": "ym2612"
    },
    {
      "channel": 2,
      "note": 70,
      "start": 5.3844,
      "duration": 0.0124,
      "velocity": 104,
      "chip": "ym2612"
    },
    {
      "channel": 3,
      "note": 77,
      "start": 5.3855,
      "duration": 0.0139,
      "velocity": 104,
      "chip": "ym2612"
    },
    {
      "channel": 4,
      "note": 93,
      "start": 5.3866,
      "duration": 0.071,
      "velocity": 95,
      "chip": "ym2612"
    },
    {
      "channel": 5,
      "note": 81,
      "start": 5.3876,
      "duration": 0.0703,
      "velocity": 95,
      "chip": "ym2612"
    },
    {
      "channel": 0,
      "note": 85,
      "start": 5.4031,
      "duration": 0.0137,
      "velocity": 104,
      "chip": "ym2612"
    },
    {
      "channel": 2,
      "note": 72,
      "start": 5.4045,
      "duration": 0.0107,
      "velocity": 104,
      "chip": "ym2612"
    },
    {
      "channel": 3,
      "note": 85,
      "start": 5.4055,
      "duration": 0.0123,
      "velocity": 104,
      "chip": "ym2612"
    },
    {
      "channel": 0,
      "note": 77,
      "start": 5.4216,
      "duration": 0.0137,
      "velocity": 104,
      "chip": "ym2612"
    },
    {
      "channel": 2,
      "note": 73,
      "start": 5.423,
      "duration": 0.0108,
      "velocity": 104,
      "chip": "ym2612"
    },
    {
      "channel": 3,
      "note": 77,
      "start": 5.4241,
      "duration": 0.0124,
      "velocity": 104,
      "chip": "ym2612"
    },
    {
      "channel": 0,
      "note": 84,
      "start": 5.4402,
      "duration": 0.0138,
      "velocity": 104,
      "chip": "ym2612"
    },
    {
      "channel": 2,
      "note": 72,
      "start": 5.4416,
      "duration": 0.0108,
      "velocity": 104,
      "chip": "ym2612"
    },
    {
      "channel": 3,
      "note": 84,
      "start": 5.4426,
      "duration": 0.0124,
      "velocity": 104,
      "chip": "ym2612"
    },
    {
      "channel": 0,
      "note": 77,
      "start": 5.4591,
      "duration": 0.0163,
      "velocity": 104,
      "chip": "ym2612"
    },
    {
      "channel": 1,
      "note": 85,
      "start": 5.4602,
      "duration": 0.5952,
      "velocity": 95,
      "chip": "ym2612"
    },
    {
      "channel": 2,
      "note": 70,
      "start": 5.4614,
      "duration": 0.0125,
      "velocity": 104,
      "chip": "ym2612"
    },
    {
      "channel": 3,
      "note": 77,
      "start": 5.4625,
      "duration": 0.014,
      "velocity": 104,
      "chip": "ym2612"
    },
    {
      "channel": 4,
      "note": 85,
      "start": 5.4637,
      "duration": 0.5928,
      "velocity": 95,
      "chip": "ym2612"
    },
    {
      "channel": 5,
      "note": 73,
      "start": 5.4648,
      "duration": 0.5921,
      "velocity": 95,
      "chip": "ym2612"
    },
    {
      "channel": 0,
      "note": 82,
      "start": 5.4803,
      "duration": 0.0137,
      "velocity": 104,
      "chip": "ym2612"
    },
    {
      "channel": 2,
      "note": 65,
      "start": 5.4817,
      "duration": 0.0108,
      "velocity": 104,
      "chip": "ym2612"
    },
    {
      "channel": 3,
      "note": 82,
      "start": 5.4827,
      "duration": 0.0124,
      "velocity": 104,
      "chip": "ym2612"
    },
    {
      "channel": 0,
      "note": 77,
      "start": 5.4988,
      "duration": 0.0138,
      "velocity": 104,
      "chip": "ym2612"
    },
    {
      "channel": 2,
      "note": 70,
      "start": 5.5002,
      "duration": 0.0108,
      "velocity": 104,
      "chip": "ym2612"
    },
    {
      "channel": 3,
      "note": 77,
      "start": 5.5012,
      "duration": 0.0124,
      "velocity": 104,
      "chip": "ym2612"
    },
    {
      "channel": 0,
      "note": 84,
      "start": 5.5174,
      "duration": 0.0138,
      "velocity": 104,
      "chip": "ym2612"
    },
    {
      "channel": 2,
      "note": 72,
      "start": 5.5188,
      "duration": 0.0109,
      "velocity": 104,
      "chip": "ym2612"
    },
    {
      "channel": 3,
      "note": 84,
      "start": 5.5198,
      "duration": 0.0124,
      "velocity": 104,
      "chip": "ym2612"
    },
    {
      "channel": 0,
      "note": 77,
      "start": 5.536,
      "duration": 0.0138,
      "velocity": 104,
      "chip": "ym2612"
    },
    {
      "channel": 2,
      "note": 73,
      "start": 5.5374,
      "duration": 0.0108,
      "velocity": 104,
      "chip": "ym2612"
    },
    {
      "channel": 3,
      "note": 77,
      "start": 5.5384,
      "duration": 0.0124,
      "velocity": 104,
      "chip": "ym2612"
    },
    {
      "channel": 0,
      "note": 85,
      "start": 5.5546,
      "duration": 0.0137,
      "velocity": 104,
      "chip": "ym2612"
    },
    {
      "channel": 2,
      "note": 72,
      "start": 5.556,
      "duration": 0.0108,
      "velocity": 104,
      "chip": "ym2612"
    },
    {
      "channel": 3,
      "note": 85,
      "start": 5.5571,
      "duration": 0.0123,
      "velocity": 104,
      "chip": "ym2612"
    },
    {
      "channel": 0,
      "note": 77,
      "start": 5.5731,
      "duration": 0.0138,
      "velocity": 104,
      "chip": "ym2612"
    },
    {
      "channel": 2,
      "note": 70,
      "start": 5.5745,
      "duration": 0.0108,
      "velocity": 104,
      "chip": "ym2612"
    },
    {
      "channel": 3,
      "note": 77,
      "start": 5.5756,
      "duration": 0.0124,
      "velocity": 104,
      "chip": "ym2612"
    },
    {
      "channel": 0,
      "note": 84,
      "start": 5.5917,
      "duration": 0.0137,
      "velocity": 104,
      "chip": "ym2612"
    },
    {
      "channel": 2,
      "note": 65,
      "start": 5.5931,
      "duration": 0.0108,
      "velocity": 104,
      "chip": "ym2612"
    },
    {
      "channel": 3,
      "note": 84,
      "start": 5.5941,
      "duration": 0.0124,
      "velocity": 104,
      "chip": "ym2612"
    },
    {
      "channel": 0,
      "note": 77,
      "start": 5.6102,
      "duration": 0.0138,
      "velocity": 104,
      "chip": "ym2612"
    },
    {
      "channel": 2,
      "note": 70,
      "start": 5.6117,
      "duration": 0.0108,
      "velocity": 104,
      "chip": "ym2612"
    },
    {
      "channel": 3,
      "note": 77,
      "start": 5.6127,
      "duration": 0.0124,
      "velocity": 104,
      "chip": "ym2612"
    },
    {
      "channel": 0,
      "note": 82,
      "start": 5.6289,
      "duration": 0.0137,
      "velocity": 104,
      "chip": "ym2612"
    },
    {
      "channel": 2,
      "note": 72,
      "start": 5.6303,
      "duration": 0.0108,
      "velocity": 104,
      "chip": "ym2612"
    },
    {
      "channel": 3,
      "note": 82,
      "start": 5.6313,
      "duration": 0.0124,
      "velocity": 104,
      "chip": "ym2612"
    },
    {
      "channel": 0,
      "note": 77,
      "start": 5.6474,
      "duration": 0.0138,
      "velocity": 104,
      "chip": "ym2612"
    },
    {
      "channel": 2,
      "note": 73,
      "start": 5.6488,
      "duration": 0.0108,
      "velocity": 104,
      "chip": "ym2612"
    },
    {
      "channel": 3,
      "note": 77,
      "start": 5.6499,
      "duration": 0.0124,
      "velocity": 104,
      "chip": "ym2612"
    },
    {
      "channel": 0,
      "note": 84,
      "start": 5.666,
      "duration": 0.0138,
      "velocity": 104,
      "chip": "ym2612"
    },
    {
      "channel": 2,
      "note": 72,
      "start": 5.6674,
      "duration": 0.0109,
      "velocity": 104,
      "chip": "ym2612"
    },
    {
      "channel": 3,
      "note": 84,
      "start": 5.6685,
      "duration": 0.0124,
      "velocity": 104,
      "chip": "ym2612"
    },
    {
      "channel": 0,
      "note": 77,
      "start": 5.6846,
      "duration": 0.0138,
      "velocity": 104,
      "chip": "ym2612"
    },
    {
      "channel": 2,
      "note": 70,
      "start": 5.686,
      "duration": 0.0108,
      "velocity": 104,
      "chip": "ym2612"
    },
    {
      "channel": 3,
      "note": 77,
      "start": 5.6871,
      "duration": 0.0124,
      "velocity": 104,
      "chip": "ym2612"
    },
    {
      "channel": 0,
      "note": 85,
      "start": 5.7032,
      "duration": 0.0137,
      "velocity": 104,
      "chip": "ym2612"
    },
    {
      "channel": 2,
      "note": 65,
      "start": 5.7046,
      "duration": 0.0108,
      "velocity": 104,
      "chip": "ym2612"
    },
    {
      "channel": 3,
      "note": 85,
      "start": 5.7057,
      "duration": 0.0124,
      "velocity": 104,
      "chip": "ym2612"
    },
    {
      "channel": 0,
      "note": 77,
      "start": 5.7218,
      "duration": 0.0137,
      "velocity": 104,
      "chip": "ym2612"
    },
    {
      "channel": 2,
      "note": 70,
      "start": 5.7232,
      "duration": 0.0108,
      "velocity": 104,
      "chip": "ym2612"
    },
    {
      "channel": 3,
      "note": 77,
      "start": 5.7243,
      "duration": 0.0124,
      "velocity": 104,
      "chip": "ym2612"
    },
    {
      "channel": 0,
      "note": 84,
      "start": 5.7404,
      "duration": 0.0137,
      "velocity": 104,
      "chip": "ym2612"
    },
    {
      "channel": 2,
      "note": 72,
      "start": 5.7418,
      "duration": 0.0108,
      "velocity": 104,
      "chip": "ym2612"
    },
    {
      "channel": 3,
      "note": 84,
      "start": 5.7428,
      "duration": 0.0124,
      "velocity": 104,
      "chip": "ym2612"
    },
    {
      "channel": 0,
      "note": 77,
      "start": 5.7589,
      "duration": 0.0154,
      "velocity": 104,
      "chip": "ym2612"
    },
    {
      "channel": 2,
      "note": 73,
      "start": 5.7609,
      "duration": 0.012,
      "velocity": 104,
      "chip": "ym2612"
    },
    {
      "channel": 3,
      "note": 77,
      "start": 5.762,
      "duration": 0.0134,
      "velocity": 104,
      "chip": "ym2612"
    },
    {
      "channel": 0,
      "note": 82,
      "start": 5.7792,
      "duration": 0.0137,
      "velocity": 104,
      "chip": "ym2612"
    },
    {
      "channel": 2,
      "note": 72,
      "start": 5.7806,
      "duration": 0.0108,
      "velocity": 104,
      "chip": "ym2612"
    },
    {
      "channel": 3,
      "note": 82,
      "start": 5.7816,
      "duration": 0.0124,
      "velocity": 104,
      "chip": "ym2612"
    },
    {
      "channel": 0,
      "note": 77,
      "start": 5.7978,
      "duration": 0.0137,
      "velocity": 104,
      "chip": "ym2612"
    },
    {
      "channel": 2,
      "note": 70,
      "start": 5.7992,
      "duration": 0.0108,
      "velocity": 104,
      "chip": "ym2612"
    },
    {
      "channel": 3,
      "note": 77,
      "start": 5.8002,
      "duration": 0.0124,
      "velocity": 104,
      "chip": "ym2612"
    },
    {
      "channel": 0,
      "note": 84,
      "start": 5.8163,
      "duration": 0.0137,
      "velocity": 104,
      "chip": "ym2612"
    },
    {
      "channel": 2,
      "note": 65,
      "start": 5.8177,
      "duration": 0.0108,
      "velocity": 104,
      "chip": "ym2612"
    },
    {
      "channel": 3,
      "note": 84,
      "start": 5.8188,
      "duration": 0.0124,
      "velocity": 104,
      "chip": "ym2612"
    },
    {
      "channel": 0,
      "note": 77,
      "start": 5.8349,
      "duration": 0.0137,
      "velocity": 104,
      "chip": "ym2612"
    },
    {
      "channel": 2,
      "note": 70,
      "start": 5.8363,
      "duration": 0.0107,
      "velocity": 104,
      "chip": "ym2612"
    },
    {
      "channel": 3,
      "note": 77,
      "start": 5.8373,
      "duration": 0.0123,
      "velocity": 104,
      "chip": "ym2612"
    },
    {
      "channel": 0,
      "note": 85,
      "start": 5.8534,
      "duration": 0.0137,
      "velocity": 104,
      "chip": "ym2612"
    },
    {
      "channel": 2,
      "note": 72,
      "start": 5.8548,
      "duration": 0.0108,
      "velocity": 104,
      "chip": "ym2612"
    },
    {
      "channel": 3,
      "note": 85,
      "start": 5.8558,
      "duration": 0.0124,
      "velocity": 104,
      "chip": "ym2612"
    },
    {
      "channel": 0,
      "note": 77,
      "start": 5.872,
      "duration": 0.0138,
      "velocity": 104,
      "chip": "ym2612"
    },
    {
      "channel": 2,
      "note": 73,
      "start": 5.8734,
      "duration": 0.0108,
      "velocity": 104,
      "chip": "ym2612"
    },
    {
      "channel": 3,
      "note": 77,
      "start": 5.8744,
      "duration": 0.0124,
      "velocity": 104,
      "chip": "ym2612"
    },
    {
      "channel": 0,
      "note": 84,
      "start": 5.8906,
      "duration": 0.0137,
      "velocity": 104,
      "chip": "ym2612"
    },
    {
      "channel": 2,
      "note": 72,
      "start": 5.892,
      "duration": 0.0107,
      "velocity": 104,
      "chip": "ym2612"
    },
    {
      "channel": 3,
      "note": 84,
      "start": 5.893,
      "duration": 0.0123,
      "velocity": 104,
      "chip": "ym2612"
    },
    {
      "channel": 0,
      "note": 77,
      "start": 5.9091,
      "duration": 0.0137,
      "velocity": 104,
      "chip": "ym2612"
    },
    {
      "channel": 2,
      "note": 70,
      "start": 5.9105,
      "duration": 0.0108,
      "velocity": 104,
      "chip": "ym2612"
    },
    {
      "channel": 3,
      "note": 77,
      "start": 5.9116,
      "duration": 0.0124,
      "velocity": 104,
      "chip": "ym2612"
    },
    {
      "channel": 0,
      "note": 82,
      "start": 5.9278,
      "duration": 0.0137,
      "velocity": 104,
      "chip": "ym2612"
    },
    {
      "channel": 2,
      "note": 65,
      "start": 5.9292,
      "duration": 0.0108,
      "velocity": 104,
      "chip": "ym2612"
    },
    {
      "channel": 3,
      "note": 82,
      "start": 5.9302,
      "duration": 0.0124,
      "velocity": 104,
      "chip": "ym2612"
    },
    {
      "channel": 0,
      "note": 77,
      "start": 5.9463,
      "duration": 0.0138,
      "velocity": 104,
      "chip": "ym2612"
    },
    {
      "channel": 2,
      "note": 70,
      "start": 5.9477,
      "duration": 0.0108,
      "velocity": 104,
      "chip": "ym2612"
    },
    {
      "channel": 3,
      "note": 77,
      "start": 5.9487,
      "duration": 0.0124,
      "velocity": 104,
      "chip": "ym2612"
    },
    {
      "channel": 0,
      "note": 84,
      "start": 5.9649,
      "duration": 0.0138,
      "velocity": 104,
      "chip": "ym2612"
    },
    {
      "channel": 2,
      "note": 72,
      "start": 5.9663,
      "duration": 0.0109,
      "velocity": 104,
      "chip": "ym2612"
    },
    {
      "channel": 3,
      "note": 84,
      "start": 5.9673,
      "duration": 0.0124,
      "velocity": 104,
      "chip": "ym2612"
    },
    {
      "channel": 0,
      "note": 77,
      "start": 5.9835,
      "duration": 0.0138,
      "velocity": 104,
      "chip": "ym2612"
    },
    {
      "channel": 2,
      "note": 73,
      "start": 5.9849,
      "duration": 0.0108,
      "velocity": 104,
      "chip": "ym2612"
    },
    {
      "channel": 3,
      "note": 77,
      "start": 5.9859,
      "duration": 0.0124,
      "velocity": 104,
      "chip": "ym2612"
    },
    {
      "channel": 0,
      "note": 85,
      "start": 6.0021,
      "duration": 0.0137,
      "velocity": 104,
      "chip": "ym2612"
    },
    {
      "channel": 2,
      "note": 72,
      "start": 6.0035,
      "duration": 0.0108,
      "velocity": 104,
      "chip": "ym2612"
    },
    {
      "channel": 3,
      "note": 85,
      "start": 6.0045,
      "duration": 0.0123,
      "velocity": 104,
      "chip": "ym2612"
    },
    {
      "channel": 0,
      "note": 77,
      "start": 6.0206,
      "duration": 0.0138,
      "velocity": 104,
      "chip": "ym2612"
    },
    {
      "channel": 2,
      "note": 70,
      "start": 6.022,
      "duration": 0.0108,
      "velocity": 104,
      "chip": "ym2612"
    },
    {
      "channel": 3,
      "note": 77,
      "start": 6.023,
      "duration": 0.0124,
      "velocity": 104,
      "chip": "ym2612"
    },
    {
      "channel": 0,
      "note": 84,
      "start": 6.0392,
      "duration": 0.0137,
      "velocity": 104,
      "chip": "ym2612"
    },
    {
      "channel": 2,
      "note": 65,
      "start": 6.0406,
      "duration": 0.0108,
      "velocity": 104,
      "chip": "ym2612"
    },
    {
      "channel": 3,
      "note": 84,
      "start": 6.0416,
      "duration": 0.0124,
      "velocity": 104,
      "chip": "ym2612"
    },
    {
      "channel": 0,
      "note": 77,
      "start": 6.058,
      "duration": 0.0164,
      "velocity": 104,
      "chip": "ym2612"
    },
    {
      "channel": 1,
      "note": 91,
      "start": 6.0592,
      "duration": 0.1477,
      "velocity": 95,
      "chip": "ym2612"
    },
    {
      "channel": 2,
      "note": 70,
      "start": 6.0603,
      "duration": 0.0126,
      "velocity": 104,
      "chip": "ym2612"
    },
    {
      "channel": 3,
      "note": 77,
      "start": 6.0615,
      "duration": 0.014,
      "velocity": 104,
      "chip": "ym2612"
    },
    {
      "channel": 4,
      "note": 91,
      "start": 6.0626,
      "duration": 0.1453,
      "velocity": 95,
      "chip": "ym2612"
    },
    {
      "channel": 5,
      "note": 79,
      "start": 6.0638,
      "duration": 0.1446,
      "velocity": 95,
      "chip": "ym2612"
    },
    {
      "channel": 0,
      "note": 82,
      "start": 6.0793,
      "duration": 0.0137,
      "velocity": 104,
      "chip": "ym2612"
    },
    {
      "channel": 2,
      "note": 72,
      "start": 6.0807,
      "duration": 0.0108,
      "velocity": 104,
      "chip": "ym2612"
    },
    {
      "channel": 3,
      "note": 82,
      "start": 6.0817,
      "duration": 0.0123,
      "velocity": 104,
      "chip": "ym2612"
    },
    {
      "channel": 0,
      "note": 77,
      "start": 6.0978,
      "duration": 0.0137,
      "velocity": 104,
      "chip": "ym2612"
    },
    {
      "channel": 2,
      "note": 73,
      "start": 6.0992,
      "duration": 0.0107,
      "velocity": 104,
      "chip": "ym2612"
    },
    {
      "channel": 3,
      "note": 77,
      "start": 6.1002,
      "duration": 0.0123,
      "velocity": 104,
      "chip": "ym2612"
    },
    {
      "channel": 0,
      "note": 84,
      "start": 6.1163,
      "duration": 0.0137,
      "velocity": 104,
      "chip": "ym2612"
    },
    {
      "channel": 2,
      "note": 72,
      "start": 6.1177,
      "duration": 0.0108,
      "velocity": 104,
      "chip": "ym2612"
    },
    {
      "channel": 3,
      "note": 84,
      "start": 6.1188,
      "duration": 0.0124,
      "velocity": 104,
      "chip": "ym2612"
    },
    {
      "channel": 0,
      "note": 77,
      "start": 6.1349,
      "duration": 0.0137,
      "velocity": 104,
      "chip": "ym2612"
    },
    {
      "channel": 2,
      "note": 70,
      "start": 6.1363,
      "duration": 0.0108,
      "velocity": 104,
      "chip": "ym2612"
    },
    {
      "channel": 3,
      "note": 77,
      "start": 6.1373,
      "duration": 0.0123,
      "velocity": 104,
      "chip": "ym2612"
    },
    {
      "channel": 0,
      "note": 85,
      "start": 6.1534,
      "duration": 0.0138,
      "velocity": 104,
      "chip": "ym2612"
    },
    {
      "channel": 2,
      "note": 65,
      "start": 6.1548,
      "duration": 0.0108,
      "velocity": 104,
      "chip": "ym2612"
    },
    {
      "channel": 3,
      "note": 85,
      "start": 6.1558,
      "duration": 0.0124,
      "velocity": 104,
      "chip": "ym2612"
    },
    {
      "channel": 0,
      "note": 77,
      "start": 6.172,
      "duration": 0.0138,
      "velocity": 104,
      "chip": "ym2612"
    },
    {
      "channel": 2,
      "note": 70,
      "start": 6.1734,
      "duration": 0.0109,
      "velocity": 104,
      "chip": "ym2612"
    },
    {
      "channel": 3,
      "note": 77,
      "start": 6.1745,
      "duration": 0.0124,
      "velocity": 104,
      "chip": "ym2612"
    },
    {
      "channel": 0,
      "note": 84,
      "start": 6.1906,
      "duration": 0.0137,
      "velocity": 104,
      "chip": "ym2612"
    },
    {
      "channel": 2,
      "note": 72,
      "start": 6.192,
      "duration": 0.0108,
      "velocity": 104,
      "chip": "ym2612"
    },
    {
      "channel": 3,
      "note": 84,
      "start": 6.1931,
      "duration": 0.0124,
      "velocity": 104,
      "chip": "ym2612"
    },
    {
      "channel": 0,
      "note": 77,
      "start": 6.2095,
      "duration": 0.016,
      "velocity": 104,
      "chip": "ym2612"
    },
    {
      "channel": 1,
      "note": 97,
      "start": 6.2106,
      "duration": 0.0732,
      "velocity": 95,
      "chip": "ym2612"
    },
    {
      "channel": 2,
      "note": 73,
      "start": 6.2116,
      "duration": 0.0124,
      "velocity": 104,
      "chip": "ym2612"
    },
    {
      "channel": 3,
      "note": 77,
      "start": 6.2127,
      "duration": 0.0139,
      "velocity": 104,
      "chip": "ym2612"
    },
    {
      "channel": 4,
      "note": 97,
      "start": 6.2138,
      "duration": 0.071,
      "velocity": 95,
      "chip": "ym2612"
    },
    {
      "channel": 5,
      "note": 85,
      "start": 6.2149,
      "duration": 0.0703,
      "velocity": 95,
      "chip": "ym2612"
    },
    {
      "channel": 0,
      "note": 82,
      "start": 6.2303,
      "duration": 0.0137,
      "velocity": 104,
      "chip": "ym2612"
    },
    {
      "channel": 2,
      "note": 72,
      "start": 6.2317,
      "duration": 0.0108,
      "velocity": 104,
      "chip": "ym2612"
    },
    {
      "channel": 3,
      "note": 82,
      "start": 6.2327,
      "duration": 0.0124,
      "velocity": 104,
      "chip": "ym2612"
    },
    {
      "channel": 0,
      "note": 77,
      "start": 6.2489,
      "duration": 0.0137,
      "velocity": 104,
      "chip": "ym2612"
    },
    {
      "channel": 2,
      "note": 70,
      "start": 6.2503,
      "duration": 0.0108,
      "velocity": 104,
      "chip": "ym2612"
    },
    {
      "channel": 3,
      "note": 77,
      "start": 6.2513,
      "duration": 0.0124,
      "velocity": 104,
      "chip": "ym2612"
    },
    {
      "channel": 0,
      "note": 84,
      "start": 6.2674,
      "duration": 0.0137,
      "velocity": 104,
      "chip": "ym2612"
    },
    {
      "channel": 2,
      "note": 65,
      "start": 6.2688,
      "duration": 0.0108,
      "velocity": 104,
      "chip": "ym2612"
    },
    {
      "channel": 3,
      "note": 84,
      "start": 6.2699,
      "duration": 0.0124,
      "velocity": 104,
      "chip": "ym2612"
    },
    {
      "channel": 0,
      "note": 77,
      "start": 6.2863,
      "duration": 0.016,
      "velocity": 104,
      "chip": "ym2612"
    },
    {
      "channel": 1,
      "note": 96,
      "start": 6.2874,
      "duration": 0.0731,
      "velocity": 95,
      "chip": "ym2612"
    },
    {
      "channel": 2,
      "note": 70,
      "start": 6.2884,
      "duration": 0.0124,
      "velocity": 104,
      "chip": "ym2612"
    },
    {
      "channel": 3,
      "note": 77,
      "start": 6.2895,
      "duration": 0.0139,
      "velocity": 104,
      "chip": "ym2612"
    },
    {
      "channel": 4,
      "note": 96,
      "start": 6.2906,
      "duration": 0.071,
      "velocity": 95,
      "chip": "ym2612"
    },
    {
      "channel": 5,
      "note": 84,
      "start": 6.2917,
      "duration": 0.0703,
      "velocity": 95,
      "chip": "ym2612"
    },
    {
      "channel": 0,
      "note": 85,
      "start": 6.3071,
      "duration": 0.0137,
      "velocity": 104,
      "chip": "ym2612"
    },
    {
      "channel": 2,
      "note": 72,
      "start": 6.3085,
      "duration": 0.0107,
      "velocity": 104,
      "chip": "ym2612"
    },
    {
      "channel": 3,
      "note": 85,
      "start": 6.3095,
      "duration": 0.0123,
      "velocity": 104,
      "chip": "ym2612"
    },
    {
      "channel": 0,
      "note": 77,
      "start": 6.3256,
      "duration": 0.0137,
      "velocity": 104,
      "chip": "ym2612"
    },
    {
      "channel": 2,
      "note": 73,
      "start": 6.3271,
      "duration": 0.0108,
      "velocity": 104,
      "chip": "ym2612"
    },
    {
      "channel": 3,
      "note": 77,
      "start": 6.3281,
      "duration": 0.0124,
      "velocity": 104,
      "chip": "ym2612"
    },
    {
      "channel": 0,
      "note": 84,
      "start": 6.3442,
      "duration": 0.0138,
      "velocity": 104,
      "chip": "ym2612"
    },
    {
      "channel": 2,
      "note": 72,
      "start": 6.3456,
      "duration": 0.0108,
      "velocity": 104,
      "chip": "ym2612"
    },
    {
      "channel": 3,
      "note": 84,
      "start": 6.3466,
      "duration": 0.0124,
      "velocity": 104,
      "chip": "ym2612"
    },
    {
      "channel": 0,
      "note": 77,
      "start": 6.3631,
      "duration": 0.0164,
      "velocity": 104,
      "chip": "ym2612"
    },
    {
      "channel": 1,
      "note": 88,
      "start": 6.3642,
      "duration": 0.1479,
      "velocity": 95,
      "chip": "ym2612"
    },
    {
      "channel": 2,
      "note": 70,
      "start": 6.3654,
      "duration": 0.0126,
      "velocity": 104,
      "chip": "ym2612"
    },
    {
      "channel": 3,
      "note": 77,
      "start": 6.3665,
      "duration": 0.0141,
      "velocity": 104,
      "chip": "ym2612"
    },
    {
      "channel": 4,
      "note": 88,
      "start": 6.3677,
      "duration": 0.1455,
      "velocity": 95,
      "chip": "ym2612"
    },
    {
      "channel": 5,
      "note": 76,
      "start": 6.3688,
      "duration": 0.1448,
      "velocity": 95,
      "chip": "ym2612"
    },
    {
      "channel": 0,
      "note": 82,
      "start": 6.3844,
      "duration": 0.0137,
      "velocity": 104,
      "chip": "ym2612"
    },
    {
      "channel": 2,
      "note": 65,
      "start": 6.3858,
      "duration": 0.0108,
      "velocity": 104,
      "chip": "ym2612"
    },
    {
      "channel": 3,
      "note": 82,
      "start": 6.3868,
      "duration": 0.0124,
      "velocity": 104,
      "chip": "ym2612"
    },
    {
      "channel": 0,
      "note": 77,
      "start": 6.4029,
      "duration": 0.0137,
      "velocity": 104,
      "chip": "ym2612"
    },
    {
      "channel": 2,
      "note": 70,
      "start": 6.4043,
      "duration": 0.0108,
      "velocity": 104,
      "chip": "ym2612"
    },
    {
      "channel": 3,
      "note": 77,
      "start": 6.4053,
      "duration": 0.0124,
      "velocity": 104,
      "chip": "ym2612"
    },
    {
      "channel": 0,
      "note": 84,
      "start": 6.4215,
      "duration": 0.0138,
      "velocity": 104,
      "chip": "ym2612"
    },
    {
      "channel": 2,
      "note": 72,
      "start": 6.4229,
      "duration": 0.0108,
      "velocity": 104,
      "chip": "ym2612"
    },
    {
      "channel": 3,
      "note": 84,
      "start": 6.4239,
      "duration": 0.0124,
      "velocity": 104,
      "chip": "ym2612"
    },
    {
      "channel": 0,
      "note": 77,
      "start": 6.44,
      "duration": 0.0138,
      "velocity": 104,
      "chip": "ym2612"
    },
    {
      "channel": 2,
      "note": 73,
      "start": 6.4415,
      "duration": 0.0108,
      "velocity": 104,
      "chip": "ym2612"
    },
    {
      "channel": 3,
      "note": 77,
      "start": 6.4425,
      "duration": 0.0124,
      "velocity": 104,
      "chip": "ym2612"
    },
    {
      "channel": 0,
      "note": 85,
      "start": 6.4587,
      "duration": 0.0138,
      "velocity": 104,
      "chip": "ym2612"
    },
    {
      "channel": 2,
      "note": 72,
      "start": 6.4601,
      "duration": 0.0108,
      "velocity": 104,
      "chip": "ym2612"
    },
    {
      "channel": 3,
      "note": 85,
      "start": 6.4611,
      "duration": 0.0124,
      "velocity": 104,
      "chip": "ym2612"
    },
    {
      "channel": 0,
      "note": 77,
      "start": 6.4773,
      "duration": 0.0137,
      "velocity": 104,
      "chip": "ym2612"
    },
    {
      "channel": 2,
      "note": 70,
      "start": 6.4787,
      "duration": 0.0108,
      "velocity": 104,
      "chip": "ym2612"
    },
    {
      "channel": 3,
      "note": 77,
      "start": 6.4797,
      "duration": 0.0123,
      "velocity": 104,
      "chip": "ym2612"
    },
    {
      "channel": 0,
      "note": 84,
      "start": 6.4958,
      "duration": 0.0137,
      "velocity": 104,
      "chip": "ym2612"
    },
    {
      "channel": 2,
      "note": 65,
      "start": 6.4972,
      "duration": 0.0108,
      "velocity": 104,
      "chip": "ym2612"
    },
    {
      "channel": 3,
      "note": 84,
      "start": 6.4982,
      "duration": 0.0124,
      "velocity": 104,
      "chip": "ym2612"
    },
    {
      "channel": 0,
      "note": 77,
      "start": 6.5147,
      "duration": 0.016,
      "velocity": 104,
      "chip": "ym2612"
    },
    {
      "channel": 1,
      "note": 94,
      "start": 6.5158,
      "duration": 0.0732,
      "velocity": 95,
      "chip": "ym2612"
    },
    {
      "channel": 2,
      "note": 70,
      "start": 6.5168,
      "duration": 0.0124,
      "velocity": 104,
      "chip": "ym2612"
    },
    {
      "channel": 3,
      "note": 77,
      "start": 6.5179,
      "duration": 0.0139,
      "velocity": 104,
      "chip": "ym2612"
    },
    {
      "channel": 4,
      "note": 94,
      "start": 6.519,
      "duration": 0.0711,
      "velocity": 95,
      "chip": "ym2612"
    },
    {
      "channel": 5,
      "note": 82,
      "start": 6.5201,
      "duration": 0.0704,
      "velocity": 95,
      "chip": "ym2612"
    },
    {
      "channel": 0,
      "note": 82,
      "start": 6.5356,
      "duration": 0.0137,
      "velocity": 104,
      "chip": "ym2612"
    },
    {
      "channel": 2,
      "note": 72,
      "start": 6.537,
      "duration": 0.0108,
      "velocity": 104,
      "chip": "ym2612"
    },
    {
      "channel": 3,
      "note": 82,
      "start": 6.538,
      "duration": 0.0124,
      "velocity": 104,
      "chip": "ym2612"
    },
    {
      "channel": 0,
      "note": 77,
      "start": 6.5541,
      "duration": 0.0138,
      "velocity": 104,
      "chip": "ym2612"
    },
    {
      "channel": 2,
      "note": 73,
      "start": 6.5555,
      "duration": 0.0108,
      "velocity": 104,
      "chip": "ym2612"
    },
    {
      "channel": 3,
      "note": 77,
      "start": 6.5566,
      "duration": 0.0124,
      "velocity": 104,
      "chip": "ym2612"
    },
    {
      "channel": 0,
      "note": 84,
      "start": 6.5727,
      "duration": 0.0138,
      "velocity": 104,
      "chip": "ym2612"
    },
    {
      "channel": 2,
      "note": 72,
      "start": 6.5741,
      "duration": 0.0109,
      "velocity": 104,
      "chip": "ym2612"
    },
    {
      "channel": 3,
      "note": 84,
      "start": 6.5751,
      "duration": 0.0124,
      "velocity": 104,
      "chip": "ym2612"
    },
    {
      "channel": 0,
      "note": 77,
      "start": 6.5916,
      "duration": 0.0159,
      "velocity": 104,
      "chip": "ym2612"
    },
    {
      "channel": 1,
      "note": 93,
      "start": 6.5927,
      "duration": 0.0732,
      "velocity": 95,
      "chip": "ym2612"
    },
    {
      "channel": 2,
      "note": 70,
      "start": 6.5937,
      "duration": 0.0123,
      "velocity": 104,
      "chip": "ym2612"
    },
    {
      "channel": 3,
      "note": 77,
      "start": 6.5948,
      "duration": 0.0139,
      "velocity": 104,
      "chip": "ym2612"
    },
    {
      "channel": 4,
      "note": 93,
      "start": 6.5959,
      "duration": 0.071,
      "velocity": 95,
      "chip": "ym2612"
    },
    {
      "channel": 5,
      "note": 81,
      "start": 6.5969,
      "duration": 0.0704,
      "velocity": 95,
      "chip": "ym2612"
    },
    {
      "channel": 0,
      "note": 85,
      "start": 6.6124,
      "duration": 0.0137,
      "velocity": 104,
      "chip": "ym2612"
    },
    {
      "channel": 2,
      "note": 65,
      "start": 6.6138,
      "duration": 0.0108,
      "velocity": 104,
      "chip": "ym2612"
    },
    {
      "channel": 3,
      "note": 85,
      "start": 6.6149,
      "duration": 0.0124,
      "velocity": 104,
      "chip": "ym2612"
    },
    {
      "channel": 0,
      "note": 77,
      "start": 6.631,
      "duration": 0.0137,
      "velocity": 104,
      "chip": "ym2612"
    },
    {
      "channel": 2,
      "note": 70,
      "start": 6.6324,
      "duration": 0.0108,
      "velocity": 104,
      "chip": "ym2612"
    },
    {
      "channel": 3,
      "note": 77,
      "start": 6.6334,
      "duration": 0.0124,
      "velocity": 104,
      "chip": "ym2612"
    },
    {
      "channel": 0,
      "note": 84,
      "start": 6.6495,
      "duration": 0.0138,
      "velocity": 104,
      "chip": "ym2612"
    },
    {
      "channel": 2,
      "note": 72,
      "start": 6.6509,
      "duration": 0.0108,
      "velocity": 104,
      "chip": "ym2612"
    },
    {
      "channel": 3,
      "note": 84,
      "start": 6.652,
      "duration": 0.0124,
      "velocity": 104,
      "chip": "ym2612"
    },
    {
      "channel": 0,
      "note": 77,
      "start": 6.6685,
      "duration": 0.0163,
      "velocity": 104,
      "chip": "ym2612"
    },
    {
      "channel": 1,
      "note": 85,
      "start": 6.6696,
      "duration": 0.5953,
      "velocity": 95,
      "chip": "ym2612"
    },
    {
      "channel": 2,
      "note": 73,
      "start": 6.6707,
      "duration": 0.0125,
      "velocity": 104,
      "chip": "ym2612"
    },
    {
      "channel": 3,
      "note": 77,
      "start": 6.6719,
      "duration": 0.014,
      "velocity": 104,
      "chip": "ym2612"
    },
    {
      "channel": 4,
      "note": 85,
      "start": 6.673,
      "duration": 0.5928,
      "velocity": 95,
      "chip": "ym2612"
    },
    {
      "channel": 5,
      "note": 73,
      "start": 6.6742,
      "duration": 0.5921,
      "velocity": 95,
      "chip": "ym2612"
    },
    {
      "channel": 0,
      "note": 82,
      "start": 6.6896,
      "duration": 0.0138,
      "velocity": 104,
      "chip": "ym2612"
    },
    {
      "channel": 2,
      "note": 72,
      "start": 6.691,
      "duration": 0.0108,
      "velocity": 104,
      "chip": "ym2612"
    },
    {
      "channel": 3,
      "note": 82,
      "start": 6.6921,
      "duration": 0.0124,
      "velocity": 104,
      "chip": "ym2612"
    },
    {
      "channel": 0,
      "note": 77,
      "start": 6.7083,
      "duration": 0.0137,
      "velocity": 104,
      "chip": "ym2612"
    },
    {
      "channel": 2,
      "note": 70,
      "start": 6.7097,
      "duration": 0.0108,
      "velocity": 104,
      "chip": "ym2612"
    },
    {
      "channel": 3,
      "note": 77,
      "start": 6.7107,
      "duration": 0.0124,
      "velocity": 104,
      "chip": "ym2612"
    },
    {
      "channel": 0,
      "note": 84,
      "start": 6.7268,
      "duration": 0.0137,
      "velocity": 104,
      "chip": "ym2612"
    },
    {
      "channel": 2,
      "note": 65,
      "start": 6.7282,
      "duration": 0.0108,
      "velocity": 104,
      "chip": "ym2612"
    },
    {
      "channel": 3,
      "note": 84,
      "start": 6.7292,
      "duration": 0.0124,
      "velocity": 104,
      "chip": "ym2612"
    },
    {
      "channel": 0,
      "note": 77,
      "start": 6.7454,
      "duration": 0.0138,
      "velocity": 104,
      "chip": "ym2612"
    },
    {
      "channel": 2,
      "note": 70,
      "start": 6.7468,
      "duration": 0.0108,
      "velocity": 104,
      "chip": "ym2612"
    },
    {
      "channel": 3,
      "note": 77,
      "start": 6.7478,
      "duration": 0.0124,
      "velocity": 104,
      "chip": "ym2612"
    },
    {
      "channel": 0,
      "note": 85,
      "start": 6.764,
      "duration": 0.0137,
      "velocity": 104,
      "chip": "ym2612"
    },
    {
      "channel": 2,
      "note": 72,
      "start": 6.7654,
      "duration": 0.0107,
      "velocity": 104,
      "chip": "ym2612"
    },
    {
      "channel": 3,
      "note": 85,
      "start": 6.7664,
      "duration": 0.0123,
      "velocity": 104,
      "chip": "ym2612"
    },
    {
      "channel": 0,
      "note": 77,
      "start": 6.7825,
      "duration": 0.0137,
      "velocity": 104,
      "chip": "ym2612"
    },
    {
      "channel": 2,
      "note": 73,
      "start": 6.7839,
      "duration": 0.0108,
      "velocity": 104,
      "chip": "ym2612"
    },
    {
      "channel": 3,
      "note": 77,
      "start": 6.785,
      "duration": 0.0124,
      "velocity": 104,
      "chip": "ym2612"
    },
    {
      "channel": 0,
      "note": 84,
      "start": 6.8011,
      "duration": 0.0138,
      "velocity": 104,
      "chip": "ym2612"
    },
    {
      "channel": 2,
      "note": 72,
      "start": 6.8025,
      "duration": 0.0108,
      "velocity": 104,
      "chip": "ym2612"
    },
    {
      "channel": 3,
      "note": 84,
      "start": 6.8035,
      "duration": 0.0124,
      "velocity": 104,
      "chip": "ym2612"
    },
    {
      "channel": 0,
      "note": 77,
      "start": 6.8197,
      "duration": 0.0137,
      "velocity": 104,
      "chip": "ym2612"
    },
    {
      "channel": 2,
      "note": 70,
      "start": 6.8211,
      "duration": 0.0108,
      "velocity": 104,
      "chip": "ym2612"
    },
    {
      "channel": 3,
      "note": 77,
      "start": 6.8221,
      "duration": 0.0123,
      "velocity": 104,
      "chip": "ym2612"
    },
    {
      "channel": 0,
      "note": 82,
      "start": 6.8382,
      "duration": 0.0138,
      "velocity": 104,
      "chip": "ym2612"
    },
    {
      "channel": 2,
      "note": 65,
      "start": 6.8396,
      "duration": 0.0108,
      "velocity": 104,
      "chip": "ym2612"
    },
    {
      "channel": 3,
      "note": 82,
      "start": 6.8406,
      "duration": 0.0124,
      "velocity": 104,
      "chip": "ym2612"
    },
    {
      "channel": 0,
      "note": 77,
      "start": 6.8568,
      "duration": 0.0137,
      "velocity": 104,
      "chip": "ym2612"
    },
    {
      "channel": 2,
      "note": 70,
      "start": 6.8582,
      "duration": 0.0108,
      "velocity": 104,
      "chip": "ym2612"
    },
    {
      "channel": 3,
      "note": 77,
      "start": 6.8592,
      "duration": 0.0124,
      "velocity": 104,
      "chip": "ym2612"
    },
    {
      "channel": 0,
      "note": 84,
      "start": 6.8754,
      "duration": 0.0137,
      "velocity": 104,
      "chip": "ym2612"
    },
    {
      "channel": 2,
      "note": 72,
      "start": 6.8768,
      "duration": 0.0108,
      "velocity": 104,
      "chip": "ym2612"
    },
    {
      "channel": 3,
      "note": 84,
      "start": 6.8778,
      "duration": 0.0123,
      "velocity": 104,
      "chip": "ym2612"
    },
    {
      "channel": 0,
      "note": 77,
      "start": 6.8939,
      "duration": 0.0137,
      "velocity": 104,
      "chip": "ym2612"
    },
    {
      "channel": 2,
      "note": 73,
      "start": 6.8953,
      "duration": 0.0107,
      "velocity": 104,
      "chip": "ym2612"
    },
    {
      "channel": 3,
      "note": 77,
      "start": 6.8963,
      "duration": 0.0123,
      "velocity": 104,
      "chip": "ym2612"
    },
    {
      "channel": 0,
      "note": 85,
      "start": 6.9124,
      "duration": 0.0137,
      "velocity": 104,
      "chip": "ym2612"
    },
    {
      "channel": 2,
      "note": 72,
      "start": 6.9138,
      "duration": 0.0108,
      "velocity": 104,
      "chip": "ym2612"
    },
    {
      "channel": 3,
      "note": 85,
      "start": 6.9149,
      "duration": 0.0124,
      "velocity": 104,
      "chip": "ym2612"
    },
    {
      "channel": 0,
      "note": 77,
      "start": 6.931,
      "duration": 0.0137,
      "velocity": 104,
      "chip": "ym2612"
    },
    {
      "channel": 2,
      "note": 70,
      "start": 6.9324,
      "duration": 0.0108,
      "velocity": 104,
      "chip": "ym2612"
    },
    {
      "channel": 3,
      "note": 77,
      "start": 6.9334,
      "duration": 0.0123,
      "velocity": 104,
      "chip": "ym2612"
    },
    {
      "channel": 0,
      "note": 84,
      "start": 6.9495,
      "duration": 0.0138,
      "velocity": 104,
      "chip": "ym2612"
    },
    {
      "channel": 2,
      "note": 65,
      "start": 6.9509,
      "duration": 0.0108,
      "velocity": 104,
      "chip": "ym2612"
    },
    {
      "channel": 3,
      "note": 84,
      "start": 6.9519,
      "duration": 0.0124,
      "velocity": 104,
      "chip": "ym2612"
    },
    {
      "channel": 0,
      "note": 77,
      "start": 6.9681,
      "duration": 0.0155,
      "velocity": 104,
      "chip": "ym2612"
    },
    {
      "channel": 2,
      "note": 70,
      "start": 6.9701,
      "duration": 0.012,
      "velocity": 104,
      "chip": "ym2612"
    },
    {
      "channel": 3,
      "note": 77,
      "start": 6.9712,
      "duration": 0.0134,
      "velocity": 104,
      "chip": "ym2612"
    },
    {
      "channel": 0,
      "note": 82,
      "start": 6.9885,
      "duration": 0.0137,
      "velocity": 104,
      "chip": "ym2612"
    },
    {
      "channel": 2,
      "note": 72,
      "start": 6.9899,
      "duration": 0.0108,
      "velocity": 104,
      "chip": "ym2612"
    },
    {
      "channel": 3,
      "note": 82,
      "start": 6.9909,
      "duration": 0.0124,
      "velocity": 104,
      "chip": "ym2612"
    },
    {
      "channel": 0,
      "note": 77,
      "start": 7.007,
      "duration": 0.0138,
      "velocity": 104,
      "chip": "ym2612"
    },
    {
      "channel": 2,
      "note": 73,
      "start": 7.0084,
      "duration": 0.0108,
      "velocity": 104,
      "chip": "ym2612"
    },
    {
      "channel": 3,
      "note": 77,
      "start": 7.0094,
      "duration": 0.0124,
      "velocity": 104,
      "chip": "ym2612"
    },
    {
      "channel": 0,
      "note": 84,
      "start": 7.0256,
      "duration": 0.0138,
      "velocity": 104,
      "chip": "ym2612"
    },
    {
      "channel": 2,
      "note": 72,
      "start": 7.027,
      "duration": 0.0109,
      "velocity": 104,
      "chip": "ym2612"
    },
    {
      "channel": 3,
      "note": 84,
      "start": 7.028,
      "duration": 0.0124,
      "velocity": 104,
      "chip": "ym2612"
    },
    {
      "channel": 0,
      "note": 77,
      "start": 7.0442,
      "duration": 0.0137,
      "velocity": 104,
      "chip": "ym2612"
    },
    {
      "channel": 2,
      "note": 70,
      "start": 7.0456,
      "duration": 0.0108,
      "velocity": 104,
      "chip": "ym2612"
    },
    {
      "channel": 3,
      "note": 77,
      "start": 7.0466,
      "duration": 0.0124,
      "velocity": 104,
      "chip": "ym2612"
    },
    {
      "channel": 0,
      "note": 85,
      "start": 7.0628,
      "duration": 0.0137,
      "velocity": 104,
      "chip": "ym2612"
    },
    {
      "channel": 2,
      "note": 65,
      "start": 7.0642,
      "duration": 0.0108,
      "velocity": 104,
      "chip": "ym2612"
    },
    {
      "channel": 3,
      "note": 85,
      "start": 7.0652,
      "duration": 0.0124,
      "velocity": 104,
      "chip": "ym2612"
    },
    {
      "channel": 0,
      "note": 77,
      "start": 7.0814,
      "duration": 0.0137,
      "velocity": 104,
      "chip": "ym2612"
    },
    {
      "channel": 2,
      "note": 70,
      "start": 7.0828,
      "duration": 0.0108,
      "velocity": 104,
      "chip": "ym2612"
    },
    {
      "channel": 3,
      "note": 77,
      "start": 7.0838,
      "duration": 0.0124,
      "velocity": 104,
      "chip": "ym2612"
    },
    {
      "channel": 0,
      "note": 84,
      "start": 7.1,
      "duration": 0.0137,
      "velocity": 104,
      "chip": "ym2612"
    },
    {
      "channel": 2,
      "note": 72,
      "start": 7.1014,
      "duration": 0.0108,
      "velocity": 104,
      "chip": "ym2612"
    },
    {
      "channel": 3,
      "note": 84,
      "start": 7.1024,
      "duration": 0.0124,
      "velocity": 104,
      "chip": "ym2612"
    },
    {
      "channel": 0,
      "note": 77,
      "start": 7.1185,
      "duration": 0.0137,
      "velocity": 104,
      "chip": "ym2612"
    },
    {
      "channel": 2,
      "note": 73,
      "start": 7.12,
      "duration": 0.0108,
      "velocity": 104,
      "chip": "ym2612"
    },
    {
      "channel": 3,
      "note": 77,
      "start": 7.121,
      "duration": 0.0124,
      "velocity": 104,
      "chip": "ym2612"
    },
    {
      "channel": 0,
      "note": 82,
      "start": 7.1371,
      "duration": 0.0138,
      "velocity": 104,
      "chip": "ym2612"
    },
    {
      "channel": 2,
      "note": 72,
      "start": 7.1385,
      "duration": 0.0108,
      "velocity": 104,
      "chip": "ym2612"
    },
    {
      "channel": 3,
      "note": 82,
      "start": 7.1395,
      "duration": 0.0124,
      "velocity": 104,
      "chip": "ym2612"
    },
    {
      "channel": 0,
      "note": 77,
      "start": 7.1557,
      "duration": 0.0137,
      "velocity": 104,
      "chip": "ym2612"
    },
    {
      "channel": 2,
      "note": 70,
      "start": 7.1571,
      "duration": 0.0108,
      "velocity": 104,
      "chip": "ym2612"
    },
    {
      "channel": 3,
      "note": 77,
      "start": 7.1581,
      "duration": 0.0124,
      "velocity": 104,
      "chip": "ym2612"
    },
    {
      "channel": 0,
      "note": 84,
      "start": 7.1742,
      "duration": 0.0137,
      "velocity": 104,
      "chip": "ym2612"
    },
    {
      "channel": 2,
      "note": 65,
      "start": 7.1756,
      "duration": 0.0108,
      "velocity": 104,
      "chip": "ym2612"
    },
    {
      "channel": 3,
      "note": 84,
      "start": 7.1767,
      "duration": 0.0124,
      "velocity": 104,
      "chip": "ym2612"
    },
    {
      "channel": 0,
      "note": 77,
      "start": 7.1929,
      "duration": 0.0138,
      "velocity": 104,
      "chip": "ym2612"
    },
    {
      "channel": 2,
      "note": 70,
      "start": 7.1943,
      "duration": 0.0108,
      "velocity": 104,
      "chip": "ym2612"
    },
    {
      "channel": 3,
      "note": 77,
      "start": 7.1953,
      "duration": 0.0124,
      "velocity": 104,
      "chip": "ym2612"
    },
    {
      "channel": 0,
      "note": 85,
      "start": 7.2115,
      "duration": 0.0137,
      "velocity": 104,
      "chip": "ym2612"
    },
    {
      "channel": 2,
      "note": 72,
      "start": 7.2129,
      "duration": 0.0107,
      "velocity": 104,
      "chip": "ym2612"
    },
    {
      "channel": 3,
      "note": 85,
      "start": 7.2139,
      "duration": 0.0123,
      "velocity": 104,
      "chip": "ym2612"
    },
    {
      "channel": 0,
      "note": 77,
      "start": 7.23,
      "duration": 0.0137,
      "velocity": 104,
      "chip": "ym2612"
    },
    {
      "channel": 2,
      "note": 73,
      "start": 7.2314,
      "duration": 0.0108,
      "velocity": 104,
      "chip": "ym2612"
    },
    {
      "channel": 3,
      "note": 77,
      "start": 7.2324,
      "duration": 0.0124,
      "velocity": 104,
      "chip": "ym2612"
    },
    {
      "channel": 0,
      "note": 84,
      "start": 7.2485,
      "duration": 0.0138,
      "velocity": 104,
      "chip": "ym2612"
    },
    {
      "channel": 2,
      "note": 72,
      "start": 7.2499,
      "duration": 0.0108,
      "velocity": 104,
      "chip": "ym2612"
    },
    {
      "channel": 3,
      "note": 84,
      "start": 7.251,
      "duration": 0.0124,
      "velocity": 104,
      "chip": "ym2612"
    }
  ]
}