{
  "track_name": "09 - Mega Man- Dr. Wily Stage 1",
  "duration_sec": 32.187,
  "sample_rate": 44100,
  "note_count": 523,
  "unique_pitches": 32,
  "pitch_range": 62,
  "avg_note_duration": 0.2317,
  "reconstruction_stats": {
    "notes_reconstructed": 523,
    "keyon_events": 523,
    "keyoff_events": 522,
    "orphan_keyons": 1,
    "unique_pitches": 32,
    "pitch_range": 62,
    "avg_duration_sec": 0.2317
  },
  "metadata": {
    "source": "M\\Mega Man - The Wily Wars\\09 - Mega Man- Dr. Wily Stage 1.vgm"
  },
  "notes": [
    {
      "channel": 4,
      "note": 63,
      "start": 0.0,
      "duration": 0.1357,
      "velocity": 101,
      "chip": "ym2612"
    },
    {
      "channel": 5,
      "note": 32,
      "start": 0.0008,
      "duration": 0.1186,
      "velocity": 114,
      "chip": "ym2612"
    },
    {
      "channel": 0,
      "note": 66,
      "start": 0.1869,
      "duration": 0.1485,
      "velocity": 99,
      "chip": "ym2612"
    },
    {
      "channel": 1,
      "note": 63,
      "start": 0.1876,
      "duration": 0.1481,
      "velocity": 99,
      "chip": "ym2612"
    },
    {
      "channel": 4,
      "note": 63,
      "start": 0.1885,
      "duration": 0.1477,
      "velocity": 101,
      "chip": "ym2612"
    },
    {
      "channel": 0,
      "note": 66,
      "start": 0.3888,
      "duration": 0.0965,
      "velocity": 99,
      "chip": "ym2612"
    },
    {
      "channel": 1,
      "note": 63,
      "start": 0.3896,
      "duration": 0.0964,
      "velocity": 99,
      "chip": "ym2612"
    },
    {
      "channel": 4,
      "note": 63,
      "start": 0.3905,
      "duration": 0.1459,
      "velocity": 101,
      "chip": "ym2612"
    },
    {
      "channel": 5,
      "note": 74,
      "start": 0.3912,
      "duration": 0.2623,
      "velocity": 123,
      "chip": "ym2612"
    },
    {
      "channel": 3,
      "note": 78,
      "start": 0.4033,
      "duration": 0.3994,
      "velocity": 127,
      "chip": "ym2612"
    },
    {
      "channel": 0,
      "note": 68,
      "start": 0.4859,
      "duration": 0.3024,
      "velocity": 99,
      "chip": "ym2612"
    },
    {
      "channel": 1,
      "note": 65,
      "start": 0.4866,
      "duration": 0.3024,
      "velocity": 99,
      "chip": "ym2612"
    },
    {
      "channel": 4,
      "note": 63,
      "start": 0.588,
      "duration": 0.1485,
      "velocity": 101,
      "chip": "ym2612"
    },
    {
      "channel": 0,
      "note": 70,
      "start": 0.7888,
      "duration": 0.2965,
      "velocity": 99,
      "chip": "ym2612"
    },
    {
      "channel": 1,
      "note": 66,
      "start": 0.7896,
      "duration": 0.2964,
      "velocity": 99,
      "chip": "ym2612"
    },
    {
      "channel": 5,
      "note": 32,
      "start": 0.7911,
      "duration": 0.1285,
      "velocity": 114,
      "chip": "ym2612"
    },
    {
      "channel": 4,
      "note": 63,
      "start": 0.9877,
      "duration": 0.1485,
      "velocity": 101,
      "chip": "ym2612"
    },
    {
      "channel": 0,
      "note": 68,
      "start": 1.0859,
      "duration": 0.3004,
      "velocity": 99,
      "chip": "ym2612"
    },
    {
      "channel": 1,
      "note": 65,
      "start": 1.0866,
      "duration": 0.3004,
      "velocity": 99,
      "chip": "ym2612"
    },
    {
      "channel": 4,
      "note": 63,
      "start": 1.1897,
      "duration": 0.1467,
      "velocity": 101,
      "chip": "ym2612"
    },
    {
      "channel": 5,
      "note": 74,
      "start": 1.1904,
      "duration": 0.263,
      "velocity": 123,
      "chip": "ym2612"
    },
    {
      "channel": 3,
      "note": 78,
      "start": 1.2033,
      "duration": 0.3989,
      "velocity": 127,
      "chip": "ym2612"
    },
    {
      "channel": 0,
      "note": 66,
      "start": 1.3869,
      "duration": 0.2016,
      "velocity": 99,
      "chip": "ym2612"
    },
    {
      "channel": 1,
      "note": 63,
      "start": 1.3876,
      "duration": 0.2015,
      "velocity": 99,
      "chip": "ym2612"
    },
    {
      "channel": 4,
      "note": 63,
      "start": 1.3887,
      "duration": 0.1477,
      "velocity": 101,
      "chip": "ym2612"
    },
    {
      "channel": 4,
      "note": 63,
      "start": 1.5907,
      "duration": 0.1449,
      "velocity": 101,
      "chip": "ym2612"
    },
    {
      "channel": 5,
      "note": 32,
      "start": 1.5916,
      "duration": 0.1278,
      "velocity": 114,
      "chip": "ym2612"
    },
    {
      "channel": 0,
      "note": 66,
      "start": 1.7869,
      "duration": 0.1485,
      "velocity": 99,
      "chip": "ym2612"
    },
    {
      "channel": 1,
      "note": 63,
      "start": 1.7876,
      "duration": 0.1481,
      "velocity": 99,
      "chip": "ym2612"
    },
    {
      "channel": 4,
      "note": 63,
      "start": 1.7885,
      "duration": 0.1477,
      "velocity": 101,
      "chip": "ym2612"
    },
    {
      "channel": 0,
      "note": 66,
      "start": 1.9888,
      "duration": 0.0965,
      "velocity": 99,
      "chip": "ym2612"
    },
    {
      "channel": 1,
      "note": 63,
      "start": 1.9896,
      "duration": 0.0964,
      "velocity": 99,
      "chip": "ym2612"
    },
    {
      "channel": 4,
      "note": 63,
      "start": 1.9905,
      "duration": 0.1459,
      "velocity": 101,
      "chip": "ym2612"
    },
    {
      "channel": 5,
      "note": 74,
      "start": 1.9912,
      "duration": 0.2623,
      "velocity": 123,
      "chip": "ym2612"
    },
    {
      "channel": 3,
      "note": 78,
      "start": 2.0033,
      "duration": 0.3994,
      "velocity": 127,
      "chip": "ym2612"
    },
    {
      "channel": 0,
      "note": 68,
      "start": 2.0859,
      "duration": 0.3024,
      "velocity": 99,
      "chip": "ym2612"
    },
    {
      "channel": 1,
      "note": 65,
      "start": 2.0866,
      "duration": 0.3024,
      "velocity": 99,
      "chip": "ym2612"
    },
    {
      "channel": 4,
      "note": 63,
      "start": 2.188,
      "duration": 0.1485,
      "velocity": 101,
      "chip": "ym2612"
    },
    {
      "channel": 0,
      "note": 70,
      "start": 2.3888,
      "duration": 0.2965,
      "velocity": 99,
      "chip": "ym2612"
    },
    {
      "channel": 1,
      "note": 66,
      "start": 2.3896,
      "duration": 0.2964,
      "velocity": 99,
      "chip": "ym2612"
    },
    {
      "channel": 5,
      "note": 32,
      "start": 2.3911,
      "duration": 0.1285,
      "velocity": 114,
      "chip": "ym2612"
    },
    {
      "channel": 4,
      "note": 63,
      "start": 2.5877,
      "duration": 0.1485,
      "velocity": 101,
      "chip": "ym2612"
    },
    {
      "channel": 0,
      "note": 68,
      "start": 2.6859,
      "duration": 0.3,
      "velocity": 99,
      "chip": "ym2612"
    },
    {
      "channel": 1,
      "note": 65,
      "start": 2.6866,
      "duration": 0.3,
      "velocity": 99,
      "chip": "ym2612"
    },
    {
      "channel": 4,
      "note": 63,
      "start": 2.7877,
      "duration": 0.1487,
      "velocity": 101,
      "chip": "ym2612"
    },
    {
      "channel": 5,
      "note": 74,
      "start": 2.8897,
      "duration": 0.1956,
      "velocity": 123,
      "chip": "ym2612"
    },
    {
      "channel": 3,
      "note": 78,
      "start": 2.9033,
      "duration": 0.0994,
      "velocity": 127,
      "chip": "ym2612"
    },
    {
      "channel": 0,
      "note": 66,
      "start": 2.9865,
      "duration": 0.202,
      "velocity": 99,
      "chip": "ym2612"
    },
    {
      "channel": 1,
      "note": 63,
      "start": 2.9872,
      "duration": 0.2018,
      "velocity": 99,
      "chip": "ym2612"
    },
    {
      "channel": 4,
      "note": 63,
      "start": 2.9883,
      "duration": 0.1481,
      "velocity": 101,
      "chip": "ym2612"
    },
    {
      "channel": 5,
      "note": 74,
      "start": 3.0897,
      "duration": 0.0961,
      "velocity": 123,
      "chip": "ym2612"
    },
    {
      "channel": 3,
      "note": 78,
      "start": 3.1033,
      "duration": 0.099,
      "velocity": 127,
      "chip": "ym2612"
    },
    {
      "channel": 4,
      "note": 61,
      "start": 3.1908,
      "duration": 0.1449,
      "velocity": 101,
      "chip": "ym2612"
    },
    {
      "channel": 5,
      "note": 32,
      "start": 3.1916,
      "duration": 0.1277,
      "velocity": 114,
      "chip": "ym2612"
    },
    {
      "channel": 0,
      "note": 65,
      "start": 3.3869,
      "duration": 0.1485,
      "velocity": 99,
      "chip": "ym2612"
    },
    {
      "channel": 1,
      "note": 61,
      "start": 3.3876,
      "duration": 0.1481,
      "velocity": 99,
      "chip": "ym2612"
    },
    {
      "channel": 4,
      "note": 61,
      "start": 3.3885,
      "duration": 0.1477,
      "velocity": 101,
      "chip": "ym2612"
    },
    {
      "channel": 0,
      "note": 65,
      "start": 3.5888,
      "duration": 0.0965,
      "velocity": 99,
      "chip": "ym2612"
    },
    {
      "channel": 1,
      "note": 61,
      "start": 3.5896,
      "duration": 0.0964,
      "velocity": 99,
      "chip": "ym2612"
    },
    {
      "channel": 4,
      "note": 61,
      "start": 3.5905,
      "duration": 0.1459,
      "velocity": 101,
      "chip": "ym2612"
    },
    {
      "channel": 5,
      "note": 74,
      "start": 3.5912,
      "duration": 0.2623,
      "velocity": 123,
      "chip": "ym2612"
    },
    {
      "channel": 3,
      "note": 78,
      "start": 3.6033,
      "duration": 0.3994,
      "velocity": 127,
      "chip": "ym2612"
    },
    {
      "channel": 0,
      "note": 66,
      "start": 3.6859,
      "duration": 0.3024,
      "velocity": 99,
      "chip": "ym2612"
    },
    {
      "channel": 1,
      "note": 63,
      "start": 3.6866,
      "duration": 0.3023,
      "velocity": 99,
      "chip": "ym2612"
    },
    {
      "channel": 4,
      "note": 61,
      "start": 3.788,
      "duration": 0.1485,
      "velocity": 101,
      "chip": "ym2612"
    },
    {
      "channel": 0,
      "note": 68,
      "start": 3.9888,
      "duration": 0.2965,
      "velocity": 99,
      "chip": "ym2612"
    },
    {
      "channel": 1,
      "note": 65,
      "start": 3.9895,
      "duration": 0.2965,
      "velocity": 99,
      "chip": "ym2612"
    },
    {
      "channel": 5,
      "note": 32,
      "start": 3.9911,
      "duration": 0.1285,
      "velocity": 114,
      "chip": "ym2612"
    },
    {
      "channel": 4,
      "note": 61,
      "start": 4.1877,
      "duration": 0.1485,
      "velocity": 101,
      "chip": "ym2612"
    },
    {
      "channel": 0,
      "note": 66,
      "start": 4.2859,
      "duration": 0.3004,
      "velocity": 99,
      "chip": "ym2612"
    },
    {
      "channel": 1,
      "note": 63,
      "start": 4.2866,
      "duration": 0.3004,
      "velocity": 99,
      "chip": "ym2612"
    },
    {
      "channel": 4,
      "note": 61,
      "start": 4.3897,
      "duration": 0.1467,
      "velocity": 101,
      "chip": "ym2612"
    },
    {
      "channel": 5,
      "note": 74,
      "start": 4.3904,
      "duration": 0.263,
      "velocity": 123,
      "chip": "ym2612"
    },
    {
      "channel": 3,
      "note": 78,
      "start": 4.4033,
      "duration": 0.3989,
      "velocity": 127,
      "chip": "ym2612"
    },
    {
      "channel": 0,
      "note": 65,
      "start": 4.5869,
      "duration": 0.2016,
      "velocity": 99,
      "chip": "ym2612"
    },
    {
      "channel": 1,
      "note": 61,
      "start": 4.5876,
      "duration": 0.2014,
      "velocity": 99,
      "chip": "ym2612"
    },
    {
      "channel": 4,
      "note": 61,
      "start": 4.5887,
      "duration": 0.1477,
      "velocity": 101,
      "chip": "ym2612"
    },
    {
      "channel": 4,
      "note": 61,
      "start": 4.7907,
      "duration": 0.1449,
      "velocity": 101,
      "chip": "ym2612"
    },
    {
      "channel": 5,
      "note": 32,
      "start": 4.7916,
      "duration": 0.1278,
      "velocity": 114,
      "chip": "ym2612"
    },
    {
      "channel": 0,
      "note": 65,
      "start": 4.9869,
      "duration": 0.1485,
      "velocity": 99,
      "chip": "ym2612"
    },
    {
      "channel": 1,
      "note": 61,
      "start": 4.9876,
      "duration": 0.1481,
      "velocity": 99,
      "chip": "ym2612"
    },
    {
      "channel": 4,
      "note": 61,
      "start": 4.9885,
      "duration": 0.1477,
      "velocity": 101,
      "chip": "ym2612"
    },
    {
      "channel": 0,
      "note": 65,
      "start": 5.1888,
      "duration": 0.0965,
      "velocity": 99,
      "chip": "ym2612"
    },
    {
      "channel": 1,
      "note": 61,
      "start": 5.1896,
      "duration": 0.0964,
      "velocity": 99,
      "chip": "ym2612"
    },
    {
      "channel": 4,
      "note": 61,
      "start": 5.1905,
      "duration": 0.1459,
      "velocity": 101,
      "chip": "ym2612"
    },
    {
      "channel": 5,
      "note": 74,
      "start": 5.1912,
      "duration": 0.2623,
      "velocity": 123,
      "chip": "ym2612"
    },
    {
      "channel": 3,
      "note": 78,
      "start": 5.2033,
      "duration": 0.3994,
      "velocity": 127,
      "chip": "ym2612"
    },
    {
      "channel": 0,
      "note": 66,
      "start": 5.2859,
      "duration": 0.3024,
      "velocity": 99,
      "chip": "ym2612"
    },
    {
      "channel": 1,
      "note": 63,
      "start": 5.2866,
      "duration": 0.3023,
      "velocity": 99,
      "chip": "ym2612"
    },
    {
      "channel": 4,
      "note": 61,
      "start": 5.388,
      "duration": 0.1485,
      "velocity": 101,
      "chip": "ym2612"
    },
    {
      "channel": 0,
      "note": 68,
      "start": 5.5888,
      "duration": 0.2965,
      "velocity": 99,
      "chip": "ym2612"
    },
    {
      "channel": 1,
      "note": 65,
      "start": 5.5895,
      "duration": 0.2965,
      "velocity": 99,
      "chip": "ym2612"
    },
    {
      "channel": 5,
      "note": 32,
      "start": 5.5911,
      "duration": 0.1285,
      "velocity": 114,
      "chip": "ym2612"
    },
    {
      "channel": 4,
      "note": 61,
      "start": 5.7877,
      "duration": 0.1485,
      "velocity": 101,
      "chip": "ym2612"
    },
    {
      "channel": 0,
      "note": 66,
      "start": 5.8859,
      "duration": 0.3,
      "velocity": 99,
      "chip": "ym2612"
    },
    {
      "channel": 1,
      "note": 63,
      "start": 5.8866,
      "duration": 0.3,
      "velocity": 99,
      "chip": "ym2612"
    },
    {
      "channel": 4,
      "note": 61,
      "start": 5.9877,
      "duration": 0.1487,
      "velocity": 101,
      "chip": "ym2612"
    },
    {
      "channel": 5,
      "note": 74,
      "start": 6.0897,
      "duration": 0.1956,
      "velocity": 123,
      "chip": "ym2612"
    },
    {
      "channel": 3,
      "note": 78,
      "start": 6.1033,
      "duration": 0.0994,
      "velocity": 127,
      "chip": "ym2612"
    },
    {
      "channel": 0,
      "note": 65,
      "start": 6.1865,
      "duration": 0.202,
      "velocity": 99,
      "chip": "ym2612"
    },
    {
      "channel": 1,
      "note": 61,
      "start": 6.1872,
      "duration": 0.2018,
      "velocity": 99,
      "chip": "ym2612"
    },
    {
      "channel": 4,
      "note": 61,
      "start": 6.1883,
      "duration": 0.1481,
      "velocity": 101,
      "chip": "ym2612"
    },
    {
      "channel": 5,
      "note": 74,
      "start": 6.2897,
      "duration": 0.0961,
      "velocity": 123,
      "chip": "ym2612"
    },
    {
      "channel": 3,
      "note": 78,
      "start": 6.3033,
      "duration": 0.099,
      "velocity": 127,
      "chip": "ym2612"
    },
    {
      "channel": 4,
      "note": 59,
      "start": 6.3908,
      "duration": 0.1449,
      "velocity": 101,
      "chip": "ym2612"
    },
    {
      "channel": 5,
      "note": 32,
      "start": 6.3916,
      "duration": 0.1277,
      "velocity": 114,
      "chip": "ym2612"
    },
    {
      "channel": 0,
      "note": 63,
      "start": 6.5869,
      "duration": 0.1485,
      "velocity": 99,
      "chip": "ym2612"
    },
    {
      "channel": 1,
      "note": 59,
      "start": 6.5876,
      "duration": 0.1481,
      "velocity": 99,
      "chip": "ym2612"
    },
    {
      "channel": 4,
      "note": 59,
      "start": 6.5885,
      "duration": 0.1477,
      "velocity": 101,
      "chip": "ym2612"
    },
    {
      "channel": 0,
      "note": 63,
      "start": 6.7888,
      "duration": 0.0965,
      "velocity": 99,
      "chip": "ym2612"
    },
    {
      "channel": 1,
      "note": 59,
      "start": 6.7896,
      "duration": 0.0964,
      "velocity": 99,
      "chip": "ym2612"
    },
    {
      "channel": 4,
      "note": 59,
      "start": 6.7905,
      "duration": 0.1459,
      "velocity": 101,
      "chip": "ym2612"
    },
    {
      "channel": 5,
      "note": 74,
      "start": 6.7912,
      "duration": 0.2623,
      "velocity": 123,
      "chip": "ym2612"
    },
    {
      "channel": 3,
      "note": 78,
      "start": 6.8033,
      "duration": 0.3994,
      "velocity": 127,
      "chip": "ym2612"
    },
    {
      "channel": 0,
      "note": 65,
      "start": 6.8859,
      "duration": 0.3024,
      "velocity": 99,
      "chip": "ym2612"
    },
    {
      "channel": 1,
      "note": 61,
      "start": 6.8866,
      "duration": 0.3023,
      "velocity": 99,
      "chip": "ym2612"
    },
    {
      "channel": 4,
      "note": 59,
      "start": 6.988,
      "duration": 0.1485,
      "velocity": 101,
      "chip": "ym2612"
    },
    {
      "channel": 0,
      "note": 66,
      "start": 7.1888,
      "duration": 0.2965,
      "velocity": 99,
      "chip": "ym2612"
    },
    {
      "channel": 1,
      "note": 63,
      "start": 7.1895,
      "duration": 0.2965,
      "velocity": 99,
      "chip": "ym2612"
    },
    {
      "channel": 5,
      "note": 32,
      "start": 7.1911,
      "duration": 0.1285,
      "velocity": 114,
      "chip": "ym2612"
    },
    {
      "channel": 4,
      "note": 59,
      "start": 7.3877,
      "duration": 0.1485,
      "velocity": 101,
      "chip": "ym2612"
    },
    {
      "channel": 0,
      "note": 65,
      "start": 7.4859,
      "duration": 0.3004,
      "velocity": 99,
      "chip": "ym2612"
    },
    {
      "channel": 1,
      "note": 61,
      "start": 7.4866,
      "duration": 0.3004,
      "velocity": 99,
      "chip": "ym2612"
    },
    {
      "channel": 4,
      "note": 59,
      "start": 7.5897,
      "duration": 0.1467,
      "velocity": 101,
      "chip": "ym2612"
    },
    {
      "channel": 5,
      "note": 74,
      "start": 7.5904,
      "duration": 0.2631,
      "velocity": 123,
      "chip": "ym2612"
    },
    {
      "channel": 3,
      "note": 78,
      "start": 7.6033,
      "duration": 0.3989,
      "velocity": 127,
      "chip": "ym2612"
    },
    {
      "channel": 0,
      "note": 63,
      "start": 7.7869,
      "duration": 0.2016,
      "velocity": 99,
      "chip": "ym2612"
    },
    {
      "channel": 1,
      "note": 59,
      "start": 7.7876,
      "duration": 0.2014,
      "velocity": 99,
      "chip": "ym2612"
    },
    {
      "channel": 4,
      "note": 59,
      "start": 7.7887,
      "duration": 0.1477,
      "velocity": 101,
      "chip": "ym2612"
    },
    {
      "channel": 4,
      "note": 59,
      "start": 7.9907,
      "duration": 0.1449,
      "velocity": 101,
      "chip": "ym2612"
    },
    {
      "channel": 5,
      "note": 32,
      "start": 7.9916,
      "duration": 0.1278,
      "velocity": 114,
      "chip": "ym2612"
    },
    {
      "channel": 0,
      "note": 63,
      "start": 8.1869,
      "duration": 0.1485,
      "velocity": 99,
      "chip": "ym2612"
    },
    {
      "channel": 1,
      "note": 59,
      "start": 8.1876,
      "duration": 0.1481,
      "velocity": 99,
      "chip": "ym2612"
    },
    {
      "channel": 4,
      "note": 59,
      "start": 8.1885,
      "duration": 0.1477,
      "velocity": 101,
      "chip": "ym2612"
    },
    {
      "channel": 0,
      "note": 63,
      "start": 8.3888,
      "duration": 0.0965,
      "velocity": 99,
      "chip": "ym2612"
    },
    {
      "channel": 1,
      "note": 59,
      "start": 8.3896,
      "duration": 0.0964,
      "velocity": 99,
      "chip": "ym2612"
    },
    {
      "channel": 4,
      "note": 59,
      "start": 8.3905,
      "duration": 0.1459,
      "velocity": 101,
      "chip": "ym2612"
    },
    {
      "channel": 5,
      "note": 74,
      "start": 8.3912,
      "duration": 0.2623,
      "velocity": 123,
      "chip": "ym2612"
    },
    {
      "channel": 3,
      "note": 78,
      "start": 8.4033,
      "duration": 0.3994,
      "velocity": 127,
      "chip": "ym2612"
    },
    {
      "channel": 0,
      "note": 65,
      "start": 8.4859,
      "duration": 0.3024,
      "velocity": 99,
      "chip": "ym2612"
    },
    {
      "channel": 1,
      "note": 61,
      "start": 8.4866,
      "duration": 0.3023,
      "velocity": 99,
      "chip": "ym2612"
    },
    {
      "channel": 4,
      "note": 59,
      "start": 8.588,
      "duration": 0.1485,
      "velocity": 101,
      "chip": "ym2612"
    },
    {
      "channel": 0,
      "note": 66,
      "start": 8.7888,
      "duration": 0.2965,
      "velocity": 99,
      "chip": "ym2612"
    },
    {
      "channel": 1,
      "note": 63,
      "start": 8.7895,
      "duration": 0.2965,
      "velocity": 99,
      "chip": "ym2612"
    },
    {
      "channel": 5,
      "note": 32,
      "start": 8.7911,
      "duration": 0.1285,
      "velocity": 114,
      "chip": "ym2612"
    },
    {
      "channel": 4,
      "note": 59,
      "start": 8.9877,
      "duration": 0.1485,
      "velocity": 101,
      "chip": "ym2612"
    },
    {
      "channel": 0,
      "note": 65,
      "start": 9.0859,
      "duration": 0.3,
      "velocity": 99,
      "chip": "ym2612"
    },
    {
      "channel": 1,
      "note": 61,
      "start": 9.0866,
      "duration": 0.3,
      "velocity": 99,
      "chip": "ym2612"
    },
    {
      "channel": 4,
      "note": 59,
      "start": 9.1877,
      "duration": 0.1487,
      "velocity": 101,
      "chip": "ym2612"
    },
    {
      "channel": 5,
      "note": 74,
      "start": 9.2897,
      "duration": 0.1956,
      "velocity": 123,
      "chip": "ym2612"
    },
    {
      "channel": 3,
      "note": 78,
      "start": 9.3033,
      "duration": 0.0994,
      "velocity": 127,
      "chip": "ym2612"
    },
    {
      "channel": 0,
      "note": 63,
      "start": 9.3865,
      "duration": 0.202,
      "velocity": 99,
      "chip": "ym2612"
    },
    {
      "channel": 1,
      "note": 59,
      "start": 9.3872,
      "duration": 0.2019,
      "velocity": 99,
      "chip": "ym2612"
    },
    {
      "channel": 4,
      "note": 59,
      "start": 9.3883,
      "duration": 0.1481,
      "velocity": 101,
      "chip": "ym2612"
    },
    {
      "channel": 5,
      "note": 74,
      "start": 9.4897,
      "duration": 0.0961,
      "velocity": 123,
      "chip": "ym2612"
    },
    {
      "channel": 3,
      "note": 78,
      "start": 9.5033,
      "duration": 0.099,
      "velocity": 127,
      "chip": "ym2612"
    },
    {
      "channel": 4,
      "note": 58,
      "start": 9.5908,
      "duration": 0.1449,
      "velocity": 101,
      "chip": "ym2612"
    },
    {
      "channel": 5,
      "note": 32,
      "start": 9.5916,
      "duration": 0.1277,
      "velocity": 114,
      "chip": "ym2612"
    },
    {
      "channel": 0,
      "note": 62,
      "start": 9.7869,
      "duration": 0.1485,
      "velocity": 99,
      "chip": "ym2612"
    },
    {
      "channel": 1,
      "note": 58,
      "start": 9.7876,
      "duration": 0.1481,
      "velocity": 99,
      "chip": "ym2612"
    },
    {
      "channel": 4,
      "note": 58,
      "start": 9.7885,
      "duration": 0.1477,
      "velocity": 101,
      "chip": "ym2612"
    },
    {
      "channel": 0,
      "note": 62,
      "start": 9.9888,
      "duration": 0.0965,
      "velocity": 99,
      "chip": "ym2612"
    },
    {
      "channel": 1,
      "note": 58,
      "start": 9.9896,
      "duration": 0.0964,
      "velocity": 99,
      "chip": "ym2612"
    },
    {
      "channel": 4,
      "note": 58,
      "start": 9.9905,
      "duration": 0.1459,
      "velocity": 101,
      "chip": "ym2612"
    },
    {
      "channel": 5,
      "note": 74,
      "start": 9.9912,
      "duration": 0.2623,
      "velocity": 123,
      "chip": "ym2612"
    },
    {
      "channel": 3,
      "note": 78,
      "start": 10.0033,
      "duration": 0.3994,
      "velocity": 127,
      "chip": "ym2612"
    },
    {
      "channel": 0,
      "note": 63,
      "start": 10.0859,
      "duration": 0.3024,
      "velocity": 99,
      "chip": "ym2612"
    },
    {
      "channel": 1,
      "note": 60,
      "start": 10.0866,
      "duration": 0.3023,
      "velocity": 99,
      "chip": "ym2612"
    },
    {
      "channel": 4,
      "note": 58,
      "start": 10.188,
      "duration": 0.1485,
      "velocity": 101,
      "chip": "ym2612"
    },
    {
      "channel": 0,
      "note": 65,
      "start": 10.3888,
      "duration": 0.2965,
      "velocity": 99,
      "chip": "ym2612"
    },
    {
      "channel": 1,
      "note": 62,
      "start": 10.3895,
      "duration": 0.2965,
      "velocity": 99,
      "chip": "ym2612"
    },
    {
      "channel": 5,
      "note": 32,
      "start": 10.3911,
      "duration": 0.1285,
      "velocity": 114,
      "chip": "ym2612"
    },
    {
      "channel": 4,
      "note": 58,
      "start": 10.5877,
      "duration": 0.1485,
      "velocity": 101,
      "chip": "ym2612"
    },
    {
      "channel": 0,
      "note": 63,
      "start": 10.6859,
      "duration": 0.3004,
      "velocity": 99,
      "chip": "ym2612"
    },
    {
      "channel": 1,
      "note": 59,
      "start": 10.6866,
      "duration": 0.3004,
      "velocity": 99,
      "chip": "ym2612"
    },
    {
      "channel": 4,
      "note": 58,
      "start": 10.7897,
      "duration": 0.1467,
      "velocity": 101,
      "chip": "ym2612"
    },
    {
      "channel": 5,
      "note": 74,
      "start": 10.7904,
      "duration": 0.263,
      "velocity": 123,
      "chip": "ym2612"
    },
    {
      "channel": 3,
      "note": 78,
      "start": 10.8033,
      "duration": 0.3989,
      "velocity": 127,
      "chip": "ym2612"
    },
    {
      "channel": 0,
      "note": 62,
      "start": 10.9869,
      "duration": 0.1485,
      "velocity": 99,
      "chip": "ym2612"
    },
    {
      "channel": 1,
      "note": 58,
      "start": 10.9876,
      "duration": 0.2013,
      "velocity": 99,
      "chip": "ym2612"
    },
    {
      "channel": 4,
      "note": 58,
      "start": 10.9887,
      "duration": 0.1478,
      "velocity": 101,
      "chip": "ym2612"
    },
    {
      "channel": 4,
      "note": 58,
      "start": 11.1906,
      "duration": 0.1451,
      "velocity": 101,
      "chip": "ym2612"
    },
    {
      "channel": 5,
      "note": 32,
      "start": 11.1915,
      "duration": 0.1279,
      "velocity": 114,
      "chip": "ym2612"
    },
    {
      "channel": 0,
      "note": 62,
      "start": 11.3869,
      "duration": 0.1485,
      "velocity": 99,
      "chip": "ym2612"
    },
    {
      "channel": 1,
      "note": 58,
      "start": 11.3876,
      "duration": 0.1481,
      "velocity": 99,
      "chip": "ym2612"
    },
    {
      "channel": 4,
      "note": 58,
      "start": 11.3885,
      "duration": 0.1477,
      "velocity": 101,
      "chip": "ym2612"
    },
    {
      "channel": 0,
      "note": 62,
      "start": 11.5888,
      "duration": 0.0965,
      "velocity": 99,
      "chip": "ym2612"
    },
    {
      "channel": 1,
      "note": 58,
      "start": 11.5896,
      "duration": 0.0964,
      "velocity": 99,
      "chip": "ym2612"
    },
    {
      "channel": 4,
      "note": 58,
      "start": 11.5905,
      "duration": 0.1459,
      "velocity": 101,
      "chip": "ym2612"
    },
    {
      "channel": 5,
      "note": 74,
      "start": 11.5912,
      "duration": 0.2623,
      "velocity": 123,
      "chip": "ym2612"
    },
    {
      "channel": 3,
      "note": 78,
      "start": 11.6033,
      "duration": 0.3994,
      "velocity": 127,
      "chip": "ym2612"
    },
    {
      "channel": 0,
      "note": 63,
      "start": 11.6859,
      "duration": 0.3024,
      "velocity": 99,
      "chip": "ym2612"
    },
    {
      "channel": 1,
      "note": 60,
      "start": 11.6866,
      "duration": 0.3023,
      "velocity": 99,
      "chip": "ym2612"
    },
    {
      "channel": 4,
      "note": 58,
      "start": 11.788,
      "duration": 0.1485,
      "velocity": 101,
      "chip": "ym2612"
    },
    {
      "channel": 0,
      "note": 65,
      "start": 11.9888,
      "duration": 0.2965,
      "velocity": 99,
      "chip": "ym2612"
    },
    {
      "channel": 1,
      "note": 62,
      "start": 11.9895,
      "duration": 0.2965,
      "velocity": 99,
      "chip": "ym2612"
    },
    {
      "channel": 5,
      "note": 32,
      "start": 11.9911,
      "duration": 0.1285,
      "velocity": 114,
      "chip": "ym2612"
    },
    {
      "channel": 4,
      "note": 58,
      "start": 12.1877,
      "duration": 0.1485,
      "velocity": 101,
      "chip": "ym2612"
    },
    {
      "channel": 0,
      "note": 63,
      "start": 12.2859,
      "duration": 0.3,
      "velocity": 99,
      "chip": "ym2612"
    },
    {
      "channel": 1,
      "note": 59,
      "start": 12.2866,
      "duration": 0.3,
      "velocity": 99,
      "chip": "ym2612"
    },
    {
      "channel": 4,
      "note": 58,
      "start": 12.3877,
      "duration": 0.1487,
      "velocity": 101,
      "chip": "ym2612"
    },
    {
      "channel": 5,
      "note": 74,
      "start": 12.4897,
      "duration": 0.1956,
      "velocity": 123,
      "chip": "ym2612"
    },
    {
      "channel": 3,
      "note": 78,
      "start": 12.5033,
      "duration": 0.0994,
      "velocity": 127,
      "chip": "ym2612"
    },
    {
      "channel": 0,
      "note": 62,
      "start": 12.5865,
      "duration": 0.1511,
      "velocity": 117,
      "chip": "ym2612"
    },
    {
      "channel": 1,
      "note": 58,
      "start": 12.5872,
      "duration": 0.205,
      "velocity": 117,
      "chip": "ym2612"
    },
    {
      "channel": 4,
      "note": 58,
      "start": 12.5883,
      "duration": 0.1503,
      "velocity": 101,
      "chip": "ym2612"
    },
    {
      "channel": 5,
      "note": 74,
      "start": 12.6897,
      "duration": 0.0961,
      "velocity": 123,
      "chip": "ym2612"
    },
    {
      "channel": 3,
      "note": 78,
      "start": 12.7033,
      "duration": 0.0993,
      "velocity": 127,
      "chip": "ym2612"
    },
    {
      "channel": 0,
      "note": 78,
      "start": 12.7894,
      "duration": 2.3989,
      "velocity": 117,
      "chip": "ym2612"
    },
    {
      "channel": 4,
      "note": 63,
      "start": 12.7941,
      "duration": 0.142,
      "velocity": 101,
      "chip": "ym2612"
    },
    {
      "channel": 5,
      "note": 32,
      "start": 12.7949,
      "duration": 0.1249,
      "velocity": 114,
      "chip": "ym2612"
    },
    {
      "channel": 1,
      "note": 90,
      "start": 12.8863,
      "duration": 2.3991,
      "velocity": 117,
      "chip": "ym2612"
    },
    {
      "channel": 2,
      "note": 66,
      "start": 12.9878,
      "duration": 0.1482,
      "velocity": 99,
      "chip": "ym2612"
    },
    {
      "channel": 4,
      "note": 63,
      "start": 12.9886,
      "duration": 0.1478,
      "velocity": 101,
      "chip": "ym2612"
    },
    {
      "channel": 2,
      "note": 66,
      "start": 13.1899,
      "duration": 0.0962,
      "velocity": 99,
      "chip": "ym2612"
    },
    {
      "channel": 4,
      "note": 63,
      "start": 13.1907,
      "duration": 0.1463,
      "velocity": 101,
      "chip": "ym2612"
    },
    {
      "channel": 5,
      "note": 74,
      "start": 13.1915,
      "duration": 0.2627,
      "velocity": 123,
      "chip": "ym2612"
    },
    {
      "channel": 3,
      "note": 78,
      "start": 13.204,
      "duration": 0.3994,
      "velocity": 127,
      "chip": "ym2612"
    },
    {
      "channel": 2,
      "note": 68,
      "start": 13.287,
      "duration": 0.3021,
      "velocity": 99,
      "chip": "ym2612"
    },
    {
      "channel": 4,
      "note": 63,
      "start": 13.3886,
      "duration": 0.1485,
      "velocity": 101,
      "chip": "ym2612"
    },
    {
      "channel": 2,
      "note": 70,
      "start": 13.5899,
      "duration": 0.2962,
      "velocity": 99,
      "chip": "ym2612"
    },
    {
      "channel": 5,
      "note": 32,
      "start": 13.5914,
      "duration": 0.1289,
      "velocity": 114,
      "chip": "ym2612"
    },
    {
      "channel": 4,
      "note": 63,
      "start": 13.7883,
      "duration": 0.1485,
      "velocity": 101,
      "chip": "ym2612"
    },
    {
      "channel": 2,
      "note": 68,
      "start": 13.887,
      "duration": 0.3001,
      "velocity": 99,
      "chip": "ym2612"
    },
    {
      "channel": 4,
      "note": 63,
      "start": 13.9904,
      "duration": 0.1467,
      "velocity": 101,
      "chip": "ym2612"
    },
    {
      "channel": 5,
      "note": 74,
      "start": 13.9911,
      "duration": 0.2631,
      "velocity": 123,
      "chip": "ym2612"
    },
    {
      "channel": 3,
      "note": 78,
      "start": 14.004,
      "duration": 0.3989,
      "velocity": 127,
      "chip": "ym2612"
    },
    {
      "channel": 2,
      "note": 66,
      "start": 14.188,
      "duration": 0.2015,
      "velocity": 99,
      "chip": "ym2612"
    },
    {
      "channel": 4,
      "note": 63,
      "start": 14.189,
      "duration": 0.1481,
      "velocity": 101,
      "chip": "ym2612"
    },
    {
      "channel": 4,
      "note": 63,
      "start": 14.3909,
      "duration": 0.1454,
      "velocity": 101,
      "chip": "ym2612"
    },
    {
      "channel": 5,
      "note": 32,
      "start": 14.3917,
      "duration": 0.1283,
      "velocity": 114,
      "chip": "ym2612"
    },
    {
      "channel": 2,
      "note": 66,
      "start": 14.5879,
      "duration": 0.1482,
      "velocity": 99,
      "chip": "ym2612"
    },
    {
      "channel": 4,
      "note": 63,
      "start": 14.5887,
      "duration": 0.1478,
      "velocity": 101,
      "chip": "ym2612"
    },
    {
      "channel": 2,
      "note": 66,
      "start": 14.7899,
      "duration": 0.0962,
      "velocity": 99,
      "chip": "ym2612"
    },
    {
      "channel": 4,
      "note": 63,
      "start": 14.7907,
      "duration": 0.1464,
      "velocity": 101,
      "chip": "ym2612"
    },
    {
      "channel": 5,
      "note": 74,
      "start": 14.7915,
      "duration": 0.2627,
      "velocity": 123,
      "chip": "ym2612"
    },
    {
      "channel": 3,
      "note": 78,
      "start": 14.804,
      "duration": 0.399,
      "velocity": 127,
      "chip": "ym2612"
    },
    {
      "channel": 2,
      "note": 68,
      "start": 14.887,
      "duration": 0.302,
      "velocity": 99,
      "chip": "ym2612"
    },
    {
      "channel": 4,
      "note": 63,
      "start": 14.9886,
      "duration": 0.1485,
      "velocity": 101,
      "chip": "ym2612"
    },
    {
      "channel": 2,
      "note": 70,
      "start": 15.1898,
      "duration": 0.2966,
      "velocity": 99,
      "chip": "ym2612"
    },
    {
      "channel": 5,
      "note": 32,
      "start": 15.1912,
      "duration": 0.1284,
      "velocity": 114,
      "chip": "ym2612"
    },
    {
      "channel": 0,
      "note": 78,
      "start": 15.3869,
      "duration": 0.1994,
      "velocity": 117,
      "chip": "ym2612"
    },
    {
      "channel": 4,
      "note": 63,
      "start": 15.3885,
      "duration": 0.1483,
      "velocity": 101,
      "chip": "ym2612"
    },
    {
      "channel": 1,
      "note": 90,
      "start": 15.4862,
      "duration": 0.2018,
      "velocity": 117,
      "chip": "ym2612"
    },
    {
      "channel": 2,
      "note": 68,
      "start": 15.4873,
      "duration": 0.2995,
      "velocity": 99,
      "chip": "ym2612"
    },
    {
      "channel": 4,
      "note": 63,
      "start": 15.5882,
      "duration": 0.1483,
      "velocity": 101,
      "chip": "ym2612"
    },
    {
      "channel": 5,
      "note": 74,
      "start": 15.6899,
      "duration": 0.1954,
      "velocity": 123,
      "chip": "ym2612"
    },
    {
      "channel": 3,
      "note": 78,
      "start": 15.7033,
      "duration": 0.0997,
      "velocity": 127,
      "chip": "ym2612"
    },
    {
      "channel": 0,
      "note": 77,
      "start": 15.7866,
      "duration": 2.6017,
      "velocity": 117,
      "chip": "ym2612"
    },
    {
      "channel": 2,
      "note": 66,
      "start": 15.7876,
      "duration": 0.2016,
      "velocity": 99,
      "chip": "ym2612"
    },
    {
      "channel": 4,
      "note": 63,
      "start": 15.7887,
      "duration": 0.1483,
      "velocity": 101,
      "chip": "ym2612"
    },
    {
      "channel": 1,
      "note": 89,
      "start": 15.8888,
      "duration": 2.5966,
      "velocity": 117,
      "chip": "ym2612"
    },
    {
      "channel": 5,
      "note": 74,
      "start": 15.8906,
      "duration": 0.0951,
      "velocity": 123,
      "chip": "ym2612"
    },
    {
      "channel": 3,
      "note": 78,
      "start": 15.9039,
      "duration": 0.099,
      "velocity": 127,
      "chip": "ym2612"
    },
    {
      "channel": 4,
      "note": 61,
      "start": 15.9906,
      "duration": 0.1456,
      "velocity": 101,
      "chip": "ym2612"
    },
    {
      "channel": 5,
      "note": 32,
      "start": 15.9915,
      "duration": 0.1285,
      "velocity": 114,
      "chip": "ym2612"
    },
    {
      "channel": 2,
      "note": 65,
      "start": 16.1879,
      "duration": 0.1482,
      "velocity": 99,
      "chip": "ym2612"
    },
    {
      "channel": 4,
      "note": 61,
      "start": 16.1887,
      "duration": 0.1478,
      "velocity": 101,
      "chip": "ym2612"
    },
    {
      "channel": 2,
      "note": 65,
      "start": 16.3899,
      "duration": 0.0962,
      "velocity": 99,
      "chip": "ym2612"
    },
    {
      "channel": 4,
      "note": 61,
      "start": 16.3907,
      "duration": 0.1463,
      "velocity": 101,
      "chip": "ym2612"
    },
    {
      "channel": 5,
      "note": 74,
      "start": 16.3915,
      "duration": 0.2627,
      "velocity": 123,
      "chip": "ym2612"
    },
    {
      "channel": 3,
      "note": 78,
      "start": 16.404,
      "duration": 0.3994,
      "velocity": 127,
      "chip": "ym2612"
    },
    {
      "channel": 2,
      "note": 66,
      "start": 16.487,
      "duration": 0.3021,
      "velocity": 99,
      "chip": "ym2612"
    },
    {
      "channel": 4,
      "note": 61,
      "start": 16.5886,
      "duration": 0.1485,
      "velocity": 101,
      "chip": "ym2612"
    },
    {
      "channel": 2,
      "note": 68,
      "start": 16.7899,
      "duration": 0.2962,
      "velocity": 99,
      "chip": "ym2612"
    },
    {
      "channel": 5,
      "note": 32,
      "start": 16.7914,
      "duration": 0.1289,
      "velocity": 114,
      "chip": "ym2612"
    },
    {
      "channel": 4,
      "note": 61,
      "start": 16.9883,
      "duration": 0.1485,
      "velocity": 101,
      "chip": "ym2612"
    },
    {
      "channel": 2,
      "note": 66,
      "start": 17.0869,
      "duration": 0.3003,
      "velocity": 99,
      "chip": "ym2612"
    },
    {
      "channel": 4,
      "note": 61,
      "start": 17.1904,
      "duration": 0.1468,
      "velocity": 101,
      "chip": "ym2612"
    },
    {
      "channel": 5,
      "note": 74,
      "start": 17.1911,
      "duration": 0.2631,
      "velocity": 123,
      "chip": "ym2612"
    },
    {
      "channel": 3,
      "note": 78,
      "start": 17.204,
      "duration": 0.3989,
      "velocity": 127,
      "chip": "ym2612"
    },
    {
      "channel": 2,
      "note": 65,
      "start": 17.3881,
      "duration": 0.2011,
      "velocity": 99,
      "chip": "ym2612"
    },
    {
      "channel": 4,
      "note": 61,
      "start": 17.3892,
      "duration": 0.1478,
      "velocity": 101,
      "chip": "ym2612"
    },
    {
      "channel": 4,
      "note": 61,
      "start": 17.5907,
      "duration": 0.1456,
      "velocity": 101,
      "chip": "ym2612"
    },
    {
      "channel": 5,
      "note": 32,
      "start": 17.5915,
      "duration": 0.1285,
      "velocity": 114,
      "chip": "ym2612"
    },
    {
      "channel": 2,
      "note": 65,
      "start": 17.788,
      "duration": 0.1482,
      "velocity": 99,
      "chip": "ym2612"
    },
    {
      "channel": 4,
      "note": 61,
      "start": 17.7887,
      "duration": 0.1478,
      "velocity": 101,
      "chip": "ym2612"
    },
    {
      "channel": 2,
      "note": 65,
      "start": 17.9899,
      "duration": 0.0962,
      "velocity": 99,
      "chip": "ym2612"
    },
    {
      "channel": 4,
      "note": 61,
      "start": 17.9907,
      "duration": 0.1463,
      "velocity": 101,
      "chip": "ym2612"
    },
    {
      "channel": 5,
      "note": 74,
      "start": 17.9915,
      "duration": 0.2627,
      "velocity": 123,
      "chip": "ym2612"
    },
    {
      "channel": 3,
      "note": 78,
      "start": 18.004,
      "duration": 0.399,
      "velocity": 127,
      "chip": "ym2612"
    },
    {
      "channel": 2,
      "note": 66,
      "start": 18.087,
      "duration": 0.302,
      "velocity": 99,
      "chip": "ym2612"
    },
    {
      "channel": 4,
      "note": 61,
      "start": 18.1886,
      "duration": 0.1485,
      "velocity": 101,
      "chip": "ym2612"
    },
    {
      "channel": 2,
      "note": 68,
      "start": 18.3898,
      "duration": 0.2966,
      "velocity": 99,
      "chip": "ym2612"
    },
    {
      "channel": 5,
      "note": 32,
      "start": 18.3912,
      "duration": 0.1284,
      "velocity": 114,
      "chip": "ym2612"
    },
    {
      "channel": 0,
      "note": 77,
      "start": 18.5869,
      "duration": 0.1994,
      "velocity": 117,
      "chip": "ym2612"
    },
    {
      "channel": 4,
      "note": 61,
      "start": 18.5885,
      "duration": 0.1483,
      "velocity": 101,
      "chip": "ym2612"
    },
    {
      "channel": 1,
      "note": 89,
      "start": 18.6863,
      "duration": 0.2017,
      "velocity": 117,
      "chip": "ym2612"
    },
    {
      "channel": 2,
      "note": 66,
      "start": 18.6873,
      "duration": 0.2995,
      "velocity": 99,
      "chip": "ym2612"
    },
    {
      "channel": 4,
      "note": 61,
      "start": 18.7882,
      "duration": 0.1482,
      "velocity": 101,
      "chip": "ym2612"
    },
    {
      "channel": 5,
      "note": 74,
      "start": 18.8899,
      "duration": 0.1954,
      "velocity": 123,
      "chip": "ym2612"
    },
    {
      "channel": 3,
      "note": 78,
      "start": 18.9033,
      "duration": 0.0997,
      "velocity": 127,
      "chip": "ym2612"
    },
    {
      "channel": 0,
      "note": 75,
      "start": 18.9866,
      "duration": 2.6017,
      "velocity": 117,
      "chip": "ym2612"
    },
    {
      "channel": 2,
      "note": 65,
      "start": 18.9876,
      "duration": 0.2016,
      "velocity": 99,
      "chip": "ym2612"
    },
    {
      "channel": 4,
      "note": 61,
      "start": 18.9887,
      "duration": 0.1483,
      "velocity": 101,
      "chip": "ym2612"
    },
    {
      "channel": 1,
      "note": 87,
      "start": 19.0888,
      "duration": 2.5966,
      "velocity": 117,
      "chip": "ym2612"
    },
    {
      "channel": 5,
      "note": 74,
      "start": 19.0906,
      "duration": 0.0951,
      "velocity": 123,
      "chip": "ym2612"
    },
    {
      "channel": 3,
      "note": 78,
      "start": 19.1039,
      "duration": 0.099,
      "velocity": 127,
      "chip": "ym2612"
    },
    {
      "channel": 4,
      "note": 59,
      "start": 19.1906,
      "duration": 0.1456,
      "velocity": 101,
      "chip": "ym2612"
    },
    {
      "channel": 5,
      "note": 32,
      "start": 19.1915,
      "duration": 0.1284,
      "velocity": 114,
      "chip": "ym2612"
    },
    {
      "channel": 2,
      "note": 63,
      "start": 19.3879,
      "duration": 0.1482,
      "velocity": 99,
      "chip": "ym2612"
    },
    {
      "channel": 4,
      "note": 59,
      "start": 19.3887,
      "duration": 0.1478,
      "velocity": 101,
      "chip": "ym2612"
    },
    {
      "channel": 2,
      "note": 63,
      "start": 19.5899,
      "duration": 0.0962,
      "velocity": 99,
      "chip": "ym2612"
    },
    {
      "channel": 4,
      "note": 59,
      "start": 19.5907,
      "duration": 0.1464,
      "velocity": 101,
      "chip": "ym2612"
    },
    {
      "channel": 5,
      "note": 74,
      "start": 19.5915,
      "duration": 0.2627,
      "velocity": 123,
      "chip": "ym2612"
    },
    {
      "channel": 3,
      "note": 78,
      "start": 19.604,
      "duration": 0.3994,
      "velocity": 127,
      "chip": "ym2612"
    },
    {
      "channel": 2,
      "note": 65,
      "start": 19.687,
      "duration": 0.3021,
      "velocity": 99,
      "chip": "ym2612"
    },
    {
      "channel": 4,
      "note": 59,
      "start": 19.7886,
      "duration": 0.1485,
      "velocity": 101,
      "chip": "ym2612"
    },
    {
      "channel": 2,
      "note": 66,
      "start": 19.9899,
      "duration": 0.2962,
      "velocity": 99,
      "chip": "ym2612"
    },
    {
      "channel": 5,
      "note": 32,
      "start": 19.9914,
      "duration": 0.1289,
      "velocity": 114,
      "chip": "ym2612"
    },
    {
      "channel": 4,
      "note": 59,
      "start": 20.1883,
      "duration": 0.1485,
      "velocity": 101,
      "chip": "ym2612"
    },
    {
      "channel": 2,
      "note": 65,
      "start": 20.2869,
      "duration": 0.3003,
      "velocity": 99,
      "chip": "ym2612"
    },
    {
      "channel": 4,
      "note": 59,
      "start": 20.3904,
      "duration": 0.1467,
      "velocity": 101,
      "chip": "ym2612"
    },
    {
      "channel": 5,
      "note": 74,
      "start": 20.3911,
      "duration": 0.2631,
      "velocity": 123,
      "chip": "ym2612"
    },
    {
      "channel": 3,
      "note": 78,
      "start": 20.404,
      "duration": 0.3989,
      "velocity": 127,
      "chip": "ym2612"
    },
    {
      "channel": 2,
      "note": 63,
      "start": 20.5881,
      "duration": 0.2011,
      "velocity": 99,
      "chip": "ym2612"
    },
    {
      "channel": 4,
      "note": 59,
      "start": 20.5892,
      "duration": 0.1478,
      "velocity": 101,
      "chip": "ym2612"
    },
    {
      "channel": 4,
      "note": 59,
      "start": 20.7907,
      "duration": 0.1456,
      "velocity": 101,
      "chip": "ym2612"
    },
    {
      "channel": 5,
      "note": 32,
      "start": 20.7915,
      "duration": 0.1285,
      "velocity": 114,
      "chip": "ym2612"
    },
    {
      "channel": 2,
      "note": 63,
      "start": 20.9879,
      "duration": 0.1482,
      "velocity": 99,
      "chip": "ym2612"
    },
    {
      "channel": 4,
      "note": 59,
      "start": 20.9887,
      "duration": 0.1478,
      "velocity": 101,
      "chip": "ym2612"
    },
    {
      "channel": 2,
      "note": 63,
      "start": 21.1899,
      "duration": 0.0962,
      "velocity": 99,
      "chip": "ym2612"
    },
    {
      "channel": 4,
      "note": 59,
      "start": 21.1907,
      "duration": 0.1463,
      "velocity": 101,
      "chip": "ym2612"
    },
    {
      "channel": 5,
      "note": 74,
      "start": 21.1915,
      "duration": 0.2627,
      "velocity": 123,
      "chip": "ym2612"
    },
    {
      "channel": 3,
      "note": 78,
      "start": 21.204,
      "duration": 0.399,
      "velocity": 127,
      "chip": "ym2612"
    },
    {
      "channel": 2,
      "note": 65,
      "start": 21.287,
      "duration": 0.302,
      "velocity": 99,
      "chip": "ym2612"
    },
    {
      "channel": 4,
      "note": 59,
      "start": 21.3886,
      "duration": 0.1485,
      "velocity": 101,
      "chip": "ym2612"
    },
    {
      "channel": 2,
      "note": 66,
      "start": 21.5898,
      "duration": 0.2966,
      "velocity": 99,
      "chip": "ym2612"
    },
    {
      "channel": 5,
      "note": 32,
      "start": 21.5912,
      "duration": 0.1284,
      "velocity": 114,
      "chip": "ym2612"
    },
    {
      "channel": 0,
      "note": 75,
      "start": 21.7869,
      "duration": 0.1994,
      "velocity": 117,
      "chip": "ym2612"
    },
    {
      "channel": 4,
      "note": 59,
      "start": 21.7885,
      "duration": 0.1482,
      "velocity": 101,
      "chip": "ym2612"
    },
    {
      "channel": 1,
      "note": 87,
      "start": 21.8862,
      "duration": 0.2017,
      "velocity": 117,
      "chip": "ym2612"
    },
    {
      "channel": 2,
      "note": 65,
      "start": 21.8873,
      "duration": 0.2995,
      "velocity": 99,
      "chip": "ym2612"
    },
    {
      "channel": 4,
      "note": 59,
      "start": 21.9882,
      "duration": 0.1483,
      "velocity": 101,
      "chip": "ym2612"
    },
    {
      "channel": 5,
      "note": 74,
      "start": 22.0899,
      "duration": 0.1954,
      "velocity": 123,
      "chip": "ym2612"
    },
    {
      "channel": 3,
      "note": 78,
      "start": 22.1033,
      "duration": 0.0997,
      "velocity": 127,
      "chip": "ym2612"
    },
    {
      "channel": 0,
      "note": 74,
      "start": 22.1866,
      "duration": 2.6017,
      "velocity": 117,
      "chip": "ym2612"
    },
    {
      "channel": 2,
      "note": 63,
      "start": 22.1876,
      "duration": 0.2016,
      "velocity": 99,
      "chip": "ym2612"
    },
    {
      "channel": 4,
      "note": 59,
      "start": 22.1887,
      "duration": 0.1483,
      "velocity": 101,
      "chip": "ym2612"
    },
    {
      "channel": 1,
      "note": 86,
      "start": 22.2888,
      "duration": 2.5966,
      "velocity": 117,
      "chip": "ym2612"
    },
    {
      "channel": 5,
      "note": 74,
      "start": 22.2906,
      "duration": 0.0951,
      "velocity": 123,
      "chip": "ym2612"
    },
    {
      "channel": 3,
      "note": 78,
      "start": 22.3039,
      "duration": 0.099,
      "velocity": 127,
      "chip": "ym2612"
    },
    {
      "channel": 4,
      "note": 58,
      "start": 22.3906,
      "duration": 0.1456,
      "velocity": 101,
      "chip": "ym2612"
    },
    {
      "channel": 5,
      "note": 32,
      "start": 22.3915,
      "duration": 0.1284,
      "velocity": 114,
      "chip": "ym2612"
    },
    {
      "channel": 2,
      "note": 62,
      "start": 22.588,
      "duration": 0.1482,
      "velocity": 99,
      "chip": "ym2612"
    },
    {
      "channel": 4,
      "note": 58,
      "start": 22.5887,
      "duration": 0.1478,
      "velocity": 101,
      "chip": "ym2612"
    },
    {
      "channel": 2,
      "note": 62,
      "start": 22.7899,
      "duration": 0.0962,
      "velocity": 99,
      "chip": "ym2612"
    },
    {
      "channel": 4,
      "note": 58,
      "start": 22.7907,
      "duration": 0.1463,
      "velocity": 101,
      "chip": "ym2612"
    },
    {
      "channel": 5,
      "note": 74,
      "start": 22.7915,
      "duration": 0.2627,
      "velocity": 123,
      "chip": "ym2612"
    },
    {
      "channel": 3,
      "note": 78,
      "start": 22.804,
      "duration": 0.3994,
      "velocity": 127,
      "chip": "ym2612"
    },
    {
      "channel": 2,
      "note": 63,
      "start": 22.887,
      "duration": 0.3021,
      "velocity": 99,
      "chip": "ym2612"
    },
    {
      "channel": 4,
      "note": 58,
      "start": 22.9886,
      "duration": 0.1485,
      "velocity": 101,
      "chip": "ym2612"
    },
    {
      "channel": 2,
      "note": 65,
      "start": 23.1899,
      "duration": 0.2962,
      "velocity": 99,
      "chip": "ym2612"
    },
    {
      "channel": 5,
      "note": 32,
      "start": 23.1914,
      "duration": 0.1289,
      "velocity": 114,
      "chip": "ym2612"
    },
    {
      "channel": 4,
      "note": 58,
      "start": 23.3883,
      "duration": 0.1485,
      "velocity": 101,
      "chip": "ym2612"
    },
    {
      "channel": 2,
      "note": 63,
      "start": 23.487,
      "duration": 0.3003,
      "velocity": 99,
      "chip": "ym2612"
    },
    {
      "channel": 4,
      "note": 58,
      "start": 23.5904,
      "duration": 0.1467,
      "velocity": 101,
      "chip": "ym2612"
    },
    {
      "channel": 5,
      "note": 74,
      "start": 23.5911,
      "duration": 0.2631,
      "velocity": 123,
      "chip": "ym2612"
    },
    {
      "channel": 3,
      "note": 78,
      "start": 23.604,
      "duration": 0.3989,
      "velocity": 127,
      "chip": "ym2612"
    },
    {
      "channel": 2,
      "note": 62,
      "start": 23.7881,
      "duration": 0.1481,
      "velocity": 99,
      "chip": "ym2612"
    },
    {
      "channel": 4,
      "note": 58,
      "start": 23.7892,
      "duration": 0.1477,
      "velocity": 101,
      "chip": "ym2612"
    },
    {
      "channel": 4,
      "note": 58,
      "start": 23.9906,
      "duration": 0.1457,
      "velocity": 101,
      "chip": "ym2612"
    },
    {
      "channel": 5,
      "note": 32,
      "start": 23.9915,
      "duration": 0.1285,
      "velocity": 114,
      "chip": "ym2612"
    },
    {
      "channel": 2,
      "note": 62,
      "start": 24.1879,
      "duration": 0.1482,
      "velocity": 99,
      "chip": "ym2612"
    },
    {
      "channel": 4,
      "note": 58,
      "start": 24.1887,
      "duration": 0.1478,
      "velocity": 101,
      "chip": "ym2612"
    },
    {
      "channel": 2,
      "note": 62,
      "start": 24.3899,
      "duration": 0.0962,
      "velocity": 99,
      "chip": "ym2612"
    },
    {
      "channel": 4,
      "note": 58,
      "start": 24.3907,
      "duration": 0.1464,
      "velocity": 101,
      "chip": "ym2612"
    },
    {
      "channel": 5,
      "note": 74,
      "start": 24.3915,
      "duration": 0.2627,
      "velocity": 123,
      "chip": "ym2612"
    },
    {
      "channel": 3,
      "note": 78,
      "start": 24.404,
      "duration": 0.399,
      "velocity": 127,
      "chip": "ym2612"
    },
    {
      "channel": 2,
      "note": 63,
      "start": 24.487,
      "duration": 0.302,
      "velocity": 99,
      "chip": "ym2612"
    },
    {
      "channel": 4,
      "note": 58,
      "start": 24.5886,
      "duration": 0.1485,
      "velocity": 101,
      "chip": "ym2612"
    },
    {
      "channel": 2,
      "note": 65,
      "start": 24.7898,
      "duration": 0.2957,
      "velocity": 99,
      "chip": "ym2612"
    },
    {
      "channel": 5,
      "note": 32,
      "start": 24.7912,
      "duration": 0.1284,
      "velocity": 114,
      "chip": "ym2612"
    },
    {
      "channel": 4,
      "note": 58,
      "start": 24.9877,
      "duration": 0.1485,
      "velocity": 101,
      "chip": "ym2612"
    },
    {
      "channel": 2,
      "note": 63,
      "start": 25.0863,
      "duration": 0.2997,
      "velocity": 99,
      "chip": "ym2612"
    },
    {
      "channel": 4,
      "note": 58,
      "start": 25.1877,
      "duration": 0.1488,
      "velocity": 101,
      "chip": "ym2612"
    },
    {
      "channel": 5,
      "note": 74,
      "start": 25.2897,
      "duration": 0.1956,
      "velocity": 123,
      "chip": "ym2612"
    },
    {
      "channel": 3,
      "note": 78,
      "start": 25.3033,
      "duration": 0.0994,
      "velocity": 127,
      "chip": "ym2612"
    },
    {
      "channel": 2,
      "note": 62,
      "start": 25.3869,
      "duration": 0.1507,
      "velocity": 98,
      "chip": "ym2612"
    },
    {
      "channel": 4,
      "note": 58,
      "start": 25.388,
      "duration": 0.1503,
      "velocity": 101,
      "chip": "ym2612"
    },
    {
      "channel": 5,
      "note": 74,
      "start": 25.4897,
      "duration": 0.0961,
      "velocity": 123,
      "chip": "ym2612"
    },
    {
      "channel": 3,
      "note": 78,
      "start": 25.5033,
      "duration": 0.0998,
      "velocity": 127,
      "chip": "ym2612"
    },
    {
      "channel": 0,
      "note": 75,
      "start": 25.589,
      "duration": 1.5993,
      "velocity": 117,
      "chip": "ym2612"
    },
    {
      "channel": 2,
      "note": 57,
      "start": 25.5901,
      "duration": 0.0963,
      "velocity": 98,
      "chip": "ym2612"
    },
    {
      "channel": 4,
      "note": 57,
      "start": 25.5913,
      "duration": 0.1454,
      "velocity": 101,
      "chip": "ym2612"
    },
    {
      "channel": 5,
      "note": 32,
      "start": 25.5922,
      "duration": 0.1283,
      "velocity": 114,
      "chip": "ym2612"
    },
    {
      "channel": 1,
      "note": 87,
      "start": 25.6863,
      "duration": 1.5994,
      "velocity": 117,
      "chip": "ym2612"
    },
    {
      "channel": 2,
      "note": 66,
      "start": 25.6873,
      "duration": 0.0997,
      "velocity": 98,
      "chip": "ym2612"
    },
    {
      "channel": 2,
      "note": 57,
      "start": 25.7878,
      "duration": 0.0982,
      "velocity": 98,
      "chip": "ym2612"
    },
    {
      "channel": 4,
      "note": 57,
      "start": 25.7886,
      "duration": 0.1481,
      "velocity": 101,
      "chip": "ym2612"
    },
    {
      "channel": 2,
      "note": 66,
      "start": 25.8869,
      "duration": 0.1022,
      "velocity": 98,
      "chip": "ym2612"
    },
    {
      "channel": 2,
      "note": 57,
      "start": 25.9899,
      "duration": 0.0962,
      "velocity": 98,
      "chip": "ym2612"
    },
    {
      "channel": 4,
      "note": 57,
      "start": 25.9907,
      "duration": 0.1463,
      "velocity": 101,
      "chip": "ym2612"
    },
    {
      "channel": 5,
      "note": 74,
      "start": 25.9915,
      "duration": 0.2627,
      "velocity": 123,
      "chip": "ym2612"
    },
    {
      "channel": 3,
      "note": 78,
      "start": 26.004,
      "duration": 0.3994,
      "velocity": 127,
      "chip": "ym2612"
    },
    {
      "channel": 2,
      "note": 66,
      "start": 26.0869,
      "duration": 0.1001,
      "velocity": 98,
      "chip": "ym2612"
    },
    {
      "channel": 2,
      "note": 57,
      "start": 26.1879,
      "duration": 0.0982,
      "velocity": 98,
      "chip": "ym2612"
    },
    {
      "channel": 4,
      "note": 57,
      "start": 26.189,
      "duration": 0.1482,
      "velocity": 101,
      "chip": "ym2612"
    },
    {
      "channel": 2,
      "note": 66,
      "start": 26.2869,
      "duration": 0.1022,
      "velocity": 98,
      "chip": "ym2612"
    },
    {
      "channel": 2,
      "note": 57,
      "start": 26.3899,
      "duration": 0.0962,
      "velocity": 98,
      "chip": "ym2612"
    },
    {
      "channel": 5,
      "note": 32,
      "start": 26.3914,
      "duration": 0.1289,
      "velocity": 114,
      "chip": "ym2612"
    },
    {
      "channel": 2,
      "note": 66,
      "start": 26.487,
      "duration": 0.1001,
      "velocity": 98,
      "chip": "ym2612"
    },
    {
      "channel": 2,
      "note": 57,
      "start": 26.5879,
      "duration": 0.0982,
      "velocity": 98,
      "chip": "ym2612"
    },
    {
      "channel": 4,
      "note": 57,
      "start": 26.5887,
      "duration": 0.1481,
      "velocity": 101,
      "chip": "ym2612"
    },
    {
      "channel": 2,
      "note": 66,
      "start": 26.6869,
      "duration": 0.1022,
      "velocity": 98,
      "chip": "ym2612"
    },
    {
      "channel": 2,
      "note": 57,
      "start": 26.7899,
      "duration": 0.0962,
      "velocity": 98,
      "chip": "ym2612"
    },
    {
      "channel": 4,
      "note": 57,
      "start": 26.7907,
      "duration": 0.1464,
      "velocity": 101,
      "chip": "ym2612"
    },
    {
      "channel": 5,
      "note": 74,
      "start": 26.7915,
      "duration": 0.2627,
      "velocity": 123,
      "chip": "ym2612"
    },
    {
      "channel": 3,
      "note": 78,
      "start": 26.804,
      "duration": 0.3993,
      "velocity": 127,
      "chip": "ym2612"
    },
    {
      "channel": 2,
      "note": 66,
      "start": 26.8869,
      "duration": 0.1001,
      "velocity": 98,
      "chip": "ym2612"
    },
    {
      "channel": 2,
      "note": 57,
      "start": 26.9879,
      "duration": 0.0988,
      "velocity": 98,
      "chip": "ym2612"
    },
    {
      "channel": 4,
      "note": 57,
      "start": 26.989,
      "duration": 0.1481,
      "velocity": 101,
      "chip": "ym2612"
    },
    {
      "channel": 2,
      "note": 66,
      "start": 27.0875,
      "duration": 0.1019,
      "velocity": 98,
      "chip": "ym2612"
    },
    {
      "channel": 0,
      "note": 74,
      "start": 27.189,
      "duration": 0.1973,
      "velocity": 117,
      "chip": "ym2612"
    },
    {
      "channel": 2,
      "note": 58,
      "start": 27.1902,
      "duration": 0.0962,
      "velocity": 98,
      "chip": "ym2612"
    },
    {
      "channel": 4,
      "note": 58,
      "start": 27.1915,
      "duration": 0.1452,
      "velocity": 101,
      "chip": "ym2612"
    },
    {
      "channel": 5,
      "note": 32,
      "start": 27.1923,
      "duration": 0.1282,
      "velocity": 114,
      "chip": "ym2612"
    },
    {
      "channel": 1,
      "note": 86,
      "start": 27.2863,
      "duration": 0.1991,
      "velocity": 117,
      "chip": "ym2612"
    },
    {
      "channel": 2,
      "note": 59,
      "start": 27.2873,
      "duration": 0.0997,
      "velocity": 98,
      "chip": "ym2612"
    },
    {
      "channel": 2,
      "note": 60,
      "start": 27.3878,
      "duration": 0.098,
      "velocity": 98,
      "chip": "ym2612"
    },
    {
      "channel": 4,
      "note": 58,
      "start": 27.3886,
      "duration": 0.1476,
      "velocity": 101,
      "chip": "ym2612"
    },
    {
      "channel": 2,
      "note": 61,
      "start": 27.4866,
      "duration": 0.1018,
      "velocity": 98,
      "chip": "ym2612"
    },
    {
      "channel": 2,
      "note": 62,
      "start": 27.5893,
      "duration": 0.0963,
      "velocity": 98,
      "chip": "ym2612"
    },
    {
      "channel": 4,
      "note": 58,
      "start": 27.5901,
      "duration": 0.1464,
      "velocity": 101,
      "chip": "ym2612"
    },
    {
      "channel": 5,
      "note": 74,
      "start": 27.5908,
      "duration": 0.2627,
      "velocity": 123,
      "chip": "ym2612"
    },
    {
      "channel": 3,
      "note": 78,
      "start": 27.6033,
      "duration": 0.3994,
      "velocity": 127,
      "chip": "ym2612"
    },
    {
      "channel": 2,
      "note": 63,
      "start": 27.6863,
      "duration": 0.1001,
      "velocity": 98,
      "chip": "ym2612"
    },
    {
      "channel": 2,
      "note": 64,
      "start": 27.7873,
      "duration": 0.0982,
      "velocity": 98,
      "chip": "ym2612"
    },
    {
      "channel": 4,
      "note": 58,
      "start": 27.7883,
      "duration": 0.1481,
      "velocity": 101,
      "chip": "ym2612"
    },
    {
      "channel": 2,
      "note": 65,
      "start": 27.8863,
      "duration": 0.1021,
      "velocity": 98,
      "chip": "ym2612"
    },
    {
      "channel": 2,
      "note": 66,
      "start": 27.9893,
      "duration": 0.0963,
      "velocity": 98,
      "chip": "ym2612"
    },
    {
      "channel": 5,
      "note": 32,
      "start": 27.9907,
      "duration": 0.1289,
      "velocity": 114,
      "chip": "ym2612"
    },
    {
      "channel": 2,
      "note": 65,
      "start": 28.0863,
      "duration": 0.1001,
      "velocity": 98,
      "chip": "ym2612"
    },
    {
      "channel": 2,
      "note": 64,
      "start": 28.1873,
      "duration": 0.0982,
      "velocity": 98,
      "chip": "ym2612"
    },
    {
      "channel": 4,
      "note": 58,
      "start": 28.1881,
      "duration": 0.1481,
      "velocity": 101,
      "chip": "ym2612"
    },
    {
      "channel": 2,
      "note": 63,
      "start": 28.2863,
      "duration": 0.1001,
      "velocity": 98,
      "chip": "ym2612"
    },
    {
      "channel": 2,
      "note": 62,
      "start": 28.3873,
      "duration": 0.1007,
      "velocity": 98,
      "chip": "ym2612"
    },
    {
      "channel": 4,
      "note": 58,
      "start": 28.3881,
      "duration": 0.1483,
      "velocity": 101,
      "chip": "ym2612"
    },
    {
      "channel": 2,
      "note": 61,
      "start": 28.4889,
      "duration": 0.0971,
      "velocity": 98,
      "chip": "ym2612"
    },
    {
      "channel": 5,
      "note": 74,
      "start": 28.49,
      "duration": 0.1952,
      "velocity": 123,
      "chip": "ym2612"
    },
    {
      "channel": 3,
      "note": 78,
      "start": 28.5033,
      "duration": 0.0994,
      "velocity": 127,
      "chip": "ym2612"
    },
    {
      "channel": 2,
      "note": 60,
      "start": 28.5869,
      "duration": 0.1011,
      "velocity": 98,
      "chip": "ym2612"
    },
    {
      "channel": 4,
      "note": 58,
      "start": 28.588,
      "duration": 0.1485,
      "velocity": 101,
      "chip": "ym2612"
    },
    {
      "channel": 2,
      "note": 58,
      "start": 28.6889,
      "duration": 0.1003,
      "velocity": 98,
      "chip": "ym2612"
    },
    {
      "channel": 5,
      "note": 74,
      "start": 28.69,
      "duration": 0.0957,
      "velocity": 123,
      "chip": "ym2612"
    },
    {
      "channel": 3,
      "note": 78,
      "start": 28.7033,
      "duration": 0.0998,
      "velocity": 127,
      "chip": "ym2612"
    },
    {
      "channel": 0,
      "note": 80,
      "start": 28.789,
      "duration": 0.7993,
      "velocity": 117,
      "chip": "ym2612"
    },
    {
      "channel": 2,
      "note": 59,
      "start": 28.79,
      "duration": 0.0964,
      "velocity": 98,
      "chip": "ym2612"
    },
    {
      "channel": 4,
      "note": 65,
      "start": 28.7912,
      "duration": 0.1455,
      "velocity": 101,
      "chip": "ym2612"
    },
    {
      "channel": 5,
      "note": 32,
      "start": 28.7921,
      "duration": 0.1284,
      "velocity": 114,
      "chip": "ym2612"
    },
    {
      "channel": 1,
      "note": 92,
      "start": 28.8863,
      "duration": 0.7994,
      "velocity": 117,
      "chip": "ym2612"
    },
    {
      "channel": 2,
      "note": 66,
      "start": 28.8873,
      "duration": 0.0997,
      "velocity": 98,
      "chip": "ym2612"
    },
    {
      "channel": 2,
      "note": 59,
      "start": 28.9878,
      "duration": 0.0982,
      "velocity": 98,
      "chip": "ym2612"
    },
    {
      "channel": 4,
      "note": 65,
      "start": 28.9886,
      "duration": 0.1481,
      "velocity": 101,
      "chip": "ym2612"
    },
    {
      "channel": 2,
      "note": 66,
      "start": 29.0869,
      "duration": 0.1022,
      "velocity": 98,
      "chip": "ym2612"
    },
    {
      "channel": 2,
      "note": 59,
      "start": 29.1899,
      "duration": 0.0962,
      "velocity": 98,
      "chip": "ym2612"
    },
    {
      "channel": 4,
      "note": 65,
      "start": 29.1907,
      "duration": 0.1464,
      "velocity": 101,
      "chip": "ym2612"
    },
    {
      "channel": 5,
      "note": 74,
      "start": 29.1915,
      "duration": 0.2627,
      "velocity": 123,
      "chip": "ym2612"
    },
    {
      "channel": 3,
      "note": 78,
      "start": 29.204,
      "duration": 0.3993,
      "velocity": 127,
      "chip": "ym2612"
    },
    {
      "channel": 2,
      "note": 66,
      "start": 29.2869,
      "duration": 0.1001,
      "velocity": 98,
      "chip": "ym2612"
    },
    {
      "channel": 2,
      "note": 59,
      "start": 29.3879,
      "duration": 0.0982,
      "velocity": 98,
      "chip": "ym2612"
    },
    {
      "channel": 4,
      "note": 65,
      "start": 29.389,
      "duration": 0.1481,
      "velocity": 101,
      "chip": "ym2612"
    },
    {
      "channel": 2,
      "note": 66,
      "start": 29.487,
      "duration": 0.1024,
      "velocity": 98,
      "chip": "ym2612"
    },
    {
      "channel": 0,
      "note": 81,
      "start": 29.589,
      "duration": 0.7993,
      "velocity": 117,
      "chip": "ym2612"
    },
    {
      "channel": 2,
      "note": 59,
      "start": 29.5902,
      "duration": 0.0962,
      "velocity": 98,
      "chip": "ym2612"
    },
    {
      "channel": 5,
      "note": 32,
      "start": 29.5918,
      "duration": 0.1284,
      "velocity": 114,
      "chip": "ym2612"
    },
    {
      "channel": 1,
      "note": 93,
      "start": 29.6863,
      "duration": 0.7994,
      "velocity": 117,
      "chip": "ym2612"
    },
    {
      "channel": 2,
      "note": 66,
      "start": 29.6873,
      "duration": 0.0997,
      "velocity": 98,
      "chip": "ym2612"
    },
    {
      "channel": 2,
      "note": 59,
      "start": 29.7878,
      "duration": 0.0982,
      "velocity": 98,
      "chip": "ym2612"
    },
    {
      "channel": 4,
      "note": 65,
      "start": 29.7886,
      "duration": 0.1481,
      "velocity": 101,
      "chip": "ym2612"
    },
    {
      "channel": 2,
      "note": 66,
      "start": 29.8869,
      "duration": 0.1022,
      "velocity": 98,
      "chip": "ym2612"
    },
    {
      "channel": 2,
      "note": 59,
      "start": 29.9899,
      "duration": 0.0962,
      "velocity": 98,
      "chip": "ym2612"
    },
    {
      "channel": 4,
      "note": 65,
      "start": 29.9907,
      "duration": 0.1463,
      "velocity": 101,
      "chip": "ym2612"
    },
    {
      "channel": 5,
      "note": 74,
      "start": 29.9915,
      "duration": 0.2627,
      "velocity": 123,
      "chip": "ym2612"
    },
    {
      "channel": 3,
      "note": 78,
      "start": 30.004,
      "duration": 0.3868,
      "velocity": 127,
      "chip": "ym2612"
    },
    {
      "channel": 2,
      "note": 66,
      "start": 30.087,
      "duration": 0.1001,
      "velocity": 98,
      "chip": "ym2612"
    },
    {
      "channel": 2,
      "note": 59,
      "start": 30.1879,
      "duration": 0.0988,
      "velocity": 98,
      "chip": "ym2612"
    },
    {
      "channel": 4,
      "note": 65,
      "start": 30.189,
      "duration": 0.1481,
      "velocity": 101,
      "chip": "ym2612"
    },
    {
      "channel": 2,
      "note": 66,
      "start": 30.2875,
      "duration": 0.1019,
      "velocity": 98,
      "chip": "ym2612"
    },
    {
      "channel": 0,
      "note": 82,
      "start": 30.389,
      "duration": 1.602,
      "velocity": 99,
      "chip": "ym2612"
    },
    {
      "channel": 2,
      "note": 70,
      "start": 30.3903,
      "duration": 0.0961,
      "velocity": 98,
      "chip": "ym2612"
    },
    {
      "channel": 3,
      "note": 81,
      "start": 30.3914,
      "duration": 0.0961,
      "velocity": 127,
      "chip": "ym2612"
    },
    {
      "channel": 4,
      "note": 58,
      "start": 30.3922,
      "duration": 0.1445,
      "velocity": 101,
      "chip": "ym2612"
    },
    {
      "channel": 5,
      "note": 32,
      "start": 30.393,
      "duration": 0.1274,
      "velocity": 114,
      "chip": "ym2612"
    },
    {
      "channel": 1,
      "note": 94,
      "start": 30.4863,
      "duration": 1.5077,
      "velocity": 99,
      "chip": "ym2612"
    },
    {
      "channel": 2,
      "note": 69,
      "start": 30.4873,
      "duration": 0.0997,
      "velocity": 98,
      "chip": "ym2612"
    },
    {
      "channel": 2,
      "note": 68,
      "start": 30.5878,
      "duration": 0.0982,
      "velocity": 98,
      "chip": "ym2612"
    },
    {
      "channel": 4,
      "note": 58,
      "start": 30.5886,
      "duration": 0.1484,
      "velocity": 101,
      "chip": "ym2612"
    },
    {
      "channel": 2,
      "note": 67,
      "start": 30.6869,
      "duration": 0.1022,
      "velocity": 98,
      "chip": "ym2612"
    },
    {
      "channel": 3,
      "note": 81,
      "start": 30.688,
      "duration": 0.1025,
      "velocity": 127,
      "chip": "ym2612"
    },
    {
      "channel": 2,
      "note": 66,
      "start": 30.7899,
      "duration": 0.0962,
      "velocity": 98,
      "chip": "ym2612"
    },
    {
      "channel": 3,
      "note": 81,
      "start": 30.791,
      "duration": 0.0961,
      "velocity": 127,
      "chip": "ym2612"
    },
    {
      "channel": 4,
      "note": 58,
      "start": 30.7918,
      "duration": 0.145,
      "velocity": 101,
      "chip": "ym2612"
    },
    {
      "channel": 5,
      "note": 74,
      "start": 30.7925,
      "duration": 0.2617,
      "velocity": 123,
      "chip": "ym2612"
    },
    {
      "channel": 2,
      "note": 65,
      "start": 30.8869,
      "duration": 0.1001,
      "velocity": 98,
      "chip": "ym2612"
    },
    {
      "channel": 2,
      "note": 64,
      "start": 30.9879,
      "duration": 0.0982,
      "velocity": 98,
      "chip": "ym2612"
    },
    {
      "channel": 3,
      "note": 81,
      "start": 30.9886,
      "duration": 0.0989,
      "velocity": 127,
      "chip": "ym2612"
    },
    {
      "channel": 4,
      "note": 58,
      "start": 30.9893,
      "duration": 0.1478,
      "velocity": 101,
      "chip": "ym2612"
    },
    {
      "channel": 2,
      "note": 63,
      "start": 31.0869,
      "duration": 0.1022,
      "velocity": 98,
      "chip": "ym2612"
    },
    {
      "channel": 3,
      "note": 81,
      "start": 31.0881,
      "duration": 0.1024,
      "velocity": 127,
      "chip": "ym2612"
    },
    {
      "channel": 2,
      "note": 62,
      "start": 31.1899,
      "duration": 0.0962,
      "velocity": 98,
      "chip": "ym2612"
    },
    {
      "channel": 3,
      "note": 73,
      "start": 31.191,
      "duration": 0.0965,
      "velocity": 127,
      "chip": "ym2612"
    },
    {
      "channel": 5,
      "note": 32,
      "start": 31.1922,
      "duration": 0.1284,
      "velocity": 114,
      "chip": "ym2612"
    },
    {
      "channel": 2,
      "note": 61,
      "start": 31.287,
      "duration": 0.1001,
      "velocity": 98,
      "chip": "ym2612"
    },
    {
      "channel": 3,
      "note": 73,
      "start": 31.2881,
      "duration": 0.0999,
      "velocity": 127,
      "chip": "ym2612"
    },
    {
      "channel": 2,
      "note": 60,
      "start": 31.3879,
      "duration": 0.0982,
      "velocity": 98,
      "chip": "ym2612"
    },
    {
      "channel": 4,
      "note": 58,
      "start": 31.3889,
      "duration": 0.1481,
      "velocity": 101,
      "chip": "ym2612"
    },
    {
      "channel": 2,
      "note": 59,
      "start": 31.4869,
      "duration": 0.1002,
      "velocity": 98,
      "chip": "ym2612"
    },
    {
      "channel": 3,
      "note": 64,
      "start": 31.4881,
      "duration": 0.1004,
      "velocity": 127,
      "chip": "ym2612"
    },
    {
      "channel": 2,
      "note": 58,
      "start": 31.588,
      "duration": 0.1007,
      "velocity": 98,
      "chip": "ym2612"
    },
    {
      "channel": 3,
      "note": 64,
      "start": 31.589,
      "duration": 0.1006,
      "velocity": 127,
      "chip": "ym2612"
    },
    {
      "channel": 4,
      "note": 58,
      "start": 31.5897,
      "duration": 0.1471,
      "velocity": 101,
      "chip": "ym2612"
    },
    {
      "channel": 2,
      "note": 57,
      "start": 31.6895,
      "duration": 0.0972,
      "velocity": 98,
      "chip": "ym2612"
    },
    {
      "channel": 5,
      "note": 74,
      "start": 31.6909,
      "duration": 0.1944,
      "velocity": 123,
      "chip": "ym2612"
    },
    {
      "channel": 2,
      "note": 56,
      "start": 31.7875,
      "duration": 0.1012,
      "velocity": 98,
      "chip": "ym2612"
    },
    {
      "channel": 3,
      "note": 57,
      "start": 31.7886,
      "duration": 0.1015,
      "velocity": 127,
      "chip": "ym2612"
    },
    {
      "channel": 4,
      "note": 58,
      "start": 31.7893,
      "duration": 0.1478,
      "velocity": 101,
      "chip": "ym2612"
    },
    {
      "channel": 2,
      "note": 54,
      "start": 31.8895,
      "duration": 0.1072,
      "velocity": 99,
      "chip": "ym2612"
    },
    {
      "channel": 3,
      "note": 57,
      "start": 31.8906,
      "duration": 0.1065,
      "velocity": 127,
      "chip": "ym2612"
    },
    {
      "channel": 5,
      "note": 74,
      "start": 31.8917,
      "duration": 0.094,
      "velocity": 123,
      "chip": "ym2612"
    },
    {
      "channel": 4,
      "note": 63,
      "start": 31.9983,
      "duration": 0.1374,
      "velocity": 101,
      "chip": "ym2612"
    },
    {
      "channel": 5,
      "note": 32,
      "start": 31.9991,
      "duration": 0.1203,
      "velocity": 114,
      "chip": "ym2612"
    },
    {
      "channel": 0,
      "note": 66,
      "start": 32.1869,
      "duration": 0.0003,
      "velocity": 99,
      "chip": "ym2612"
    }
  ]
}