{
  "track_name": "09 - Classics",
  "duration_sec": 46.393,
  "sample_rate": 44100,
  "note_count": 520,
  "unique_pitches": 26,
  "pitch_range": 53,
  "avg_note_duration": 0.2119,
  "reconstruction_stats": {
    "notes_reconstructed": 520,
    "keyon_events": 520,
    "keyoff_events": 520,
    "orphan_keyons": 0,
    "unique_pitches": 26,
    "pitch_range": 53,
    "avg_duration_sec": 0.2119
  },
  "metadata": {
    "source": "S\\Sega Channel\\09 - Classics.vgm"
  },
  "notes": [
    {
      "channel": 0,
      "note": 97,
      "start": 0.0353,
      "duration": 0.099,
      "velocity": 108,
      "chip": "ym2612"
    },
    {
      "channel": 1,
      "note": 44,
      "start": 0.0427,
      "duration": 0.1083,
      "velocity": 119,
      "chip": "ym2612"
    },
    {
      "channel": 0,
      "note": 97,
      "start": 0.2546,
      "duration": 0.1132,
      "velocity": 108,
      "chip": "ym2612"
    },
    {
      "channel": 0,
      "note": 97,
      "start": 0.4879,
      "duration": 0.1298,
      "velocity": 108,
      "chip": "ym2612"
    },
    {
      "channel": 0,
      "note": 97,
      "start": 0.7376,
      "duration": 0.1135,
      "velocity": 108,
      "chip": "ym2612"
    },
    {
      "channel": 0,
      "note": 97,
      "start": 0.9713,
      "duration": 0.1296,
      "velocity": 108,
      "chip": "ym2612"
    },
    {
      "channel": 0,
      "note": 97,
      "start": 1.221,
      "duration": 0.1133,
      "velocity": 108,
      "chip": "ym2612"
    },
    {
      "channel": 1,
      "note": 44,
      "start": 1.2239,
      "duration": 0.1106,
      "velocity": 119,
      "chip": "ym2612"
    },
    {
      "channel": 0,
      "note": 97,
      "start": 1.4544,
      "duration": 0.13,
      "velocity": 108,
      "chip": "ym2612"
    },
    {
      "channel": 0,
      "note": 97,
      "start": 1.7046,
      "duration": 0.1131,
      "velocity": 108,
      "chip": "ym2612"
    },
    {
      "channel": 0,
      "note": 97,
      "start": 1.9391,
      "duration": 0.1287,
      "velocity": 108,
      "chip": "ym2612"
    },
    {
      "channel": 1,
      "note": 44,
      "start": 1.942,
      "duration": 0.1425,
      "velocity": 119,
      "chip": "ym2612"
    },
    {
      "channel": 0,
      "note": 97,
      "start": 2.189,
      "duration": 0.1122,
      "velocity": 108,
      "chip": "ym2612"
    },
    {
      "channel": 0,
      "note": 97,
      "start": 2.4212,
      "duration": 0.1298,
      "velocity": 108,
      "chip": "ym2612"
    },
    {
      "channel": 0,
      "note": 97,
      "start": 2.671,
      "duration": 0.1136,
      "velocity": 108,
      "chip": "ym2612"
    },
    {
      "channel": 0,
      "note": 97,
      "start": 2.9043,
      "duration": 0.1134,
      "velocity": 108,
      "chip": "ym2612"
    },
    {
      "channel": 1,
      "note": 44,
      "start": 2.9075,
      "duration": 0.0937,
      "velocity": 119,
      "chip": "ym2612"
    },
    {
      "channel": 0,
      "note": 97,
      "start": 3.1572,
      "duration": 0.1105,
      "velocity": 108,
      "chip": "ym2612"
    },
    {
      "channel": 1,
      "note": 44,
      "start": 3.1601,
      "duration": 0.1743,
      "velocity": 119,
      "chip": "ym2612"
    },
    {
      "channel": 0,
      "note": 97,
      "start": 3.3876,
      "duration": 0.1135,
      "velocity": 108,
      "chip": "ym2612"
    },
    {
      "channel": 0,
      "note": 97,
      "start": 3.6379,
      "duration": 0.1131,
      "velocity": 108,
      "chip": "ym2612"
    },
    {
      "channel": 1,
      "note": 44,
      "start": 3.6408,
      "duration": 0.0769,
      "velocity": 119,
      "chip": "ym2612"
    },
    {
      "channel": 0,
      "note": 97,
      "start": 3.8722,
      "duration": 0.1124,
      "velocity": 108,
      "chip": "ym2612"
    },
    {
      "channel": 1,
      "note": 44,
      "start": 3.875,
      "duration": 0.0929,
      "velocity": 119,
      "chip": "ym2612"
    },
    {
      "channel": 0,
      "note": 97,
      "start": 4.1212,
      "duration": 0.1133,
      "velocity": 108,
      "chip": "ym2612"
    },
    {
      "channel": 0,
      "note": 97,
      "start": 4.3545,
      "duration": 0.1132,
      "velocity": 108,
      "chip": "ym2612"
    },
    {
      "channel": 0,
      "note": 97,
      "start": 4.6043,
      "duration": 0.1135,
      "velocity": 108,
      "chip": "ym2612"
    },
    {
      "channel": 1,
      "note": 44,
      "start": 4.6071,
      "duration": 0.1108,
      "velocity": 119,
      "chip": "ym2612"
    },
    {
      "channel": 0,
      "note": 97,
      "start": 4.8379,
      "duration": 0.1133,
      "velocity": 108,
      "chip": "ym2612"
    },
    {
      "channel": 0,
      "note": 97,
      "start": 5.0877,
      "duration": 0.1133,
      "velocity": 108,
      "chip": "ym2612"
    },
    {
      "channel": 0,
      "note": 97,
      "start": 5.3209,
      "duration": 0.1135,
      "velocity": 108,
      "chip": "ym2612"
    },
    {
      "channel": 0,
      "note": 97,
      "start": 5.571,
      "duration": 0.1134,
      "velocity": 108,
      "chip": "ym2612"
    },
    {
      "channel": 1,
      "note": 44,
      "start": 5.5742,
      "duration": 0.0935,
      "velocity": 119,
      "chip": "ym2612"
    },
    {
      "channel": 0,
      "note": 97,
      "start": 5.8066,
      "duration": 0.1112,
      "velocity": 108,
      "chip": "ym2612"
    },
    {
      "channel": 1,
      "note": 44,
      "start": 5.8093,
      "duration": 0.0919,
      "velocity": 119,
      "chip": "ym2612"
    },
    {
      "channel": 0,
      "note": 97,
      "start": 6.0543,
      "duration": 0.1135,
      "velocity": 108,
      "chip": "ym2612"
    },
    {
      "channel": 0,
      "note": 97,
      "start": 6.2908,
      "duration": 0.1103,
      "velocity": 108,
      "chip": "ym2612"
    },
    {
      "channel": 0,
      "note": 97,
      "start": 6.5378,
      "duration": 0.1132,
      "velocity": 108,
      "chip": "ym2612"
    },
    {
      "channel": 0,
      "note": 97,
      "start": 6.7711,
      "duration": 0.1133,
      "velocity": 108,
      "chip": "ym2612"
    },
    {
      "channel": 1,
      "note": 44,
      "start": 6.7739,
      "duration": 0.0773,
      "velocity": 119,
      "chip": "ym2612"
    },
    {
      "channel": 3,
      "note": 68,
      "start": 7.0216,
      "duration": 0.1131,
      "velocity": 127,
      "chip": "ym2612"
    },
    {
      "channel": 0,
      "note": 97,
      "start": 7.0239,
      "duration": 0.1105,
      "velocity": 108,
      "chip": "ym2612"
    },
    {
      "channel": 1,
      "note": 44,
      "start": 7.0268,
      "duration": 0.1078,
      "velocity": 119,
      "chip": "ym2612"
    },
    {
      "channel": 3,
      "note": 66,
      "start": 7.2579,
      "duration": 0.1099,
      "velocity": 127,
      "chip": "ym2612"
    },
    {
      "channel": 0,
      "note": 97,
      "start": 7.2602,
      "duration": 0.1074,
      "velocity": 108,
      "chip": "ym2612"
    },
    {
      "channel": 3,
      "note": 64,
      "start": 7.5044,
      "duration": 0.1136,
      "velocity": 127,
      "chip": "ym2612"
    },
    {
      "channel": 0,
      "note": 97,
      "start": 7.5068,
      "duration": 0.1111,
      "velocity": 108,
      "chip": "ym2612"
    },
    {
      "channel": 5,
      "note": 57,
      "start": 7.7377,
      "duration": 0.1635,
      "velocity": 87,
      "chip": "ym2612"
    },
    {
      "channel": 0,
      "note": 97,
      "start": 7.7423,
      "duration": 0.1086,
      "velocity": 108,
      "chip": "ym2612"
    },
    {
      "channel": 1,
      "note": 44,
      "start": 7.7473,
      "duration": 0.137,
      "velocity": 119,
      "chip": "ym2612"
    },
    {
      "channel": 4,
      "note": 79,
      "start": 7.7548,
      "duration": 2.113,
      "velocity": 127,
      "chip": "ym2612"
    },
    {
      "channel": 2,
      "note": 79,
      "start": 7.8884,
      "duration": 2.0964,
      "velocity": 127,
      "chip": "ym2612"
    },
    {
      "channel": 5,
      "note": 57,
      "start": 7.9878,
      "duration": 0.1469,
      "velocity": 87,
      "chip": "ym2612"
    },
    {
      "channel": 0,
      "note": 97,
      "start": 7.9905,
      "duration": 0.1107,
      "velocity": 108,
      "chip": "ym2612"
    },
    {
      "channel": 0,
      "note": 97,
      "start": 8.2213,
      "duration": 0.1131,
      "velocity": 108,
      "chip": "ym2612"
    },
    {
      "channel": 5,
      "note": 57,
      "start": 8.471,
      "duration": 0.1971,
      "velocity": 87,
      "chip": "ym2612"
    },
    {
      "channel": 0,
      "note": 97,
      "start": 8.4737,
      "duration": 0.1108,
      "velocity": 108,
      "chip": "ym2612"
    },
    {
      "channel": 0,
      "note": 97,
      "start": 8.7046,
      "duration": 0.1133,
      "velocity": 108,
      "chip": "ym2612"
    },
    {
      "channel": 5,
      "note": 57,
      "start": 8.9549,
      "duration": 0.1132,
      "velocity": 87,
      "chip": "ym2612"
    },
    {
      "channel": 0,
      "note": 97,
      "start": 8.9576,
      "duration": 0.1102,
      "velocity": 108,
      "chip": "ym2612"
    },
    {
      "channel": 1,
      "note": 44,
      "start": 8.9604,
      "duration": 0.1074,
      "velocity": 119,
      "chip": "ym2612"
    },
    {
      "channel": 5,
      "note": 60,
      "start": 9.1877,
      "duration": 0.2135,
      "velocity": 87,
      "chip": "ym2612"
    },
    {
      "channel": 0,
      "note": 97,
      "start": 9.1904,
      "duration": 0.1106,
      "velocity": 108,
      "chip": "ym2612"
    },
    {
      "channel": 5,
      "note": 62,
      "start": 9.4211,
      "duration": 0.2134,
      "velocity": 87,
      "chip": "ym2612"
    },
    {
      "channel": 0,
      "note": 97,
      "start": 9.4238,
      "duration": 0.1273,
      "velocity": 108,
      "chip": "ym2612"
    },
    {
      "channel": 0,
      "note": 97,
      "start": 9.6722,
      "duration": 0.1123,
      "velocity": 108,
      "chip": "ym2612"
    },
    {
      "channel": 1,
      "note": 44,
      "start": 9.675,
      "duration": 0.1261,
      "velocity": 119,
      "chip": "ym2612"
    },
    {
      "channel": 5,
      "note": 69,
      "start": 9.9058,
      "duration": 0.1456,
      "velocity": 87,
      "chip": "ym2612"
    },
    {
      "channel": 0,
      "note": 97,
      "start": 9.9085,
      "duration": 0.1261,
      "velocity": 108,
      "chip": "ym2612"
    },
    {
      "channel": 4,
      "note": 76,
      "start": 9.9546,
      "duration": 0.1968,
      "velocity": 127,
      "chip": "ym2612"
    },
    {
      "channel": 2,
      "note": 76,
      "start": 10.0715,
      "duration": 0.1966,
      "velocity": 127,
      "chip": "ym2612"
    },
    {
      "channel": 5,
      "note": 69,
      "start": 10.1547,
      "duration": 0.18,
      "velocity": 87,
      "chip": "ym2612"
    },
    {
      "channel": 0,
      "note": 97,
      "start": 10.1574,
      "duration": 0.1104,
      "velocity": 108,
      "chip": "ym2612"
    },
    {
      "channel": 4,
      "note": 79,
      "start": 10.1882,
      "duration": 0.2296,
      "velocity": 127,
      "chip": "ym2612"
    },
    {
      "channel": 2,
      "note": 79,
      "start": 10.3218,
      "duration": 0.213,
      "velocity": 127,
      "chip": "ym2612"
    },
    {
      "channel": 5,
      "note": 62,
      "start": 10.3876,
      "duration": 0.0803,
      "velocity": 87,
      "chip": "ym2612"
    },
    {
      "channel": 3,
      "note": 81,
      "start": 10.3906,
      "duration": 0.1274,
      "velocity": 127,
      "chip": "ym2612"
    },
    {
      "channel": 0,
      "note": 97,
      "start": 10.3932,
      "duration": 0.1246,
      "velocity": 108,
      "chip": "ym2612"
    },
    {
      "channel": 1,
      "note": 81,
      "start": 10.5217,
      "duration": 0.1127,
      "velocity": 127,
      "chip": "ym2612"
    },
    {
      "channel": 5,
      "note": 67,
      "start": 10.6377,
      "duration": 0.0969,
      "velocity": 87,
      "chip": "ym2612"
    },
    {
      "channel": 3,
      "note": 81,
      "start": 10.6403,
      "duration": 0.2775,
      "velocity": 127,
      "chip": "ym2612"
    },
    {
      "channel": 0,
      "note": 97,
      "start": 10.6429,
      "duration": 0.1081,
      "velocity": 108,
      "chip": "ym2612"
    },
    {
      "channel": 4,
      "note": 44,
      "start": 10.646,
      "duration": 0.0885,
      "velocity": 119,
      "chip": "ym2612"
    },
    {
      "channel": 1,
      "note": 81,
      "start": 10.7545,
      "duration": 0.2798,
      "velocity": 127,
      "chip": "ym2612"
    },
    {
      "channel": 5,
      "note": 67,
      "start": 10.8736,
      "duration": 0.0944,
      "velocity": 87,
      "chip": "ym2612"
    },
    {
      "channel": 2,
      "note": 79,
      "start": 10.8766,
      "duration": 0.0915,
      "velocity": 127,
      "chip": "ym2612"
    },
    {
      "channel": 0,
      "note": 97,
      "start": 10.8792,
      "duration": 0.1218,
      "velocity": 108,
      "chip": "ym2612"
    },
    {
      "channel": 4,
      "note": 44,
      "start": 10.8824,
      "duration": 0.1688,
      "velocity": 119,
      "chip": "ym2612"
    },
    {
      "channel": 3,
      "note": 79,
      "start": 11.0048,
      "duration": 0.0963,
      "velocity": 127,
      "chip": "ym2612"
    },
    {
      "channel": 5,
      "note": 60,
      "start": 11.1209,
      "duration": 0.2139,
      "velocity": 87,
      "chip": "ym2612"
    },
    {
      "channel": 0,
      "note": 97,
      "start": 11.1236,
      "duration": 0.1108,
      "velocity": 108,
      "chip": "ym2612"
    },
    {
      "channel": 2,
      "note": 79,
      "start": 11.1378,
      "duration": 0.2137,
      "velocity": 127,
      "chip": "ym2612"
    },
    {
      "channel": 1,
      "note": 79,
      "start": 11.2545,
      "duration": 0.23,
      "velocity": 127,
      "chip": "ym2612"
    },
    {
      "channel": 5,
      "note": 62,
      "start": 11.3546,
      "duration": 0.1465,
      "velocity": 87,
      "chip": "ym2612"
    },
    {
      "channel": 0,
      "note": 97,
      "start": 11.3573,
      "duration": 0.1271,
      "velocity": 108,
      "chip": "ym2612"
    },
    {
      "channel": 4,
      "note": 44,
      "start": 11.3603,
      "duration": 0.0743,
      "velocity": 119,
      "chip": "ym2612"
    },
    {
      "channel": 2,
      "note": 76,
      "start": 11.4046,
      "duration": 0.1466,
      "velocity": 127,
      "chip": "ym2612"
    },
    {
      "channel": 1,
      "note": 76,
      "start": 11.5212,
      "duration": 0.1634,
      "velocity": 127,
      "chip": "ym2612"
    },
    {
      "channel": 5,
      "note": 57,
      "start": 11.6045,
      "duration": 0.1633,
      "velocity": 87,
      "chip": "ym2612"
    },
    {
      "channel": 0,
      "note": 97,
      "start": 11.6083,
      "duration": 0.1095,
      "velocity": 108,
      "chip": "ym2612"
    },
    {
      "channel": 4,
      "note": 44,
      "start": 11.6112,
      "duration": 0.0902,
      "velocity": 119,
      "chip": "ym2612"
    },
    {
      "channel": 2,
      "note": 79,
      "start": 11.6384,
      "duration": 0.6795,
      "velocity": 127,
      "chip": "ym2612"
    },
    {
      "channel": 1,
      "note": 79,
      "start": 11.7716,
      "duration": 0.6797,
      "velocity": 127,
      "chip": "ym2612"
    },
    {
      "channel": 5,
      "note": 57,
      "start": 11.838,
      "duration": 0.1967,
      "velocity": 87,
      "chip": "ym2612"
    },
    {
      "channel": 0,
      "note": 97,
      "start": 11.8407,
      "duration": 0.1272,
      "velocity": 108,
      "chip": "ym2612"
    },
    {
      "channel": 0,
      "note": 97,
      "start": 12.0878,
      "duration": 0.1133,
      "velocity": 108,
      "chip": "ym2612"
    },
    {
      "channel": 5,
      "note": 55,
      "start": 12.321,
      "duration": 0.2302,
      "velocity": 87,
      "chip": "ym2612"
    },
    {
      "channel": 0,
      "note": 97,
      "start": 12.3237,
      "duration": 0.1274,
      "velocity": 108,
      "chip": "ym2612"
    },
    {
      "channel": 4,
      "note": 44,
      "start": 12.3267,
      "duration": 0.1248,
      "velocity": 119,
      "chip": "ym2612"
    },
    {
      "channel": 2,
      "note": 76,
      "start": 12.3715,
      "duration": 1.7632,
      "velocity": 127,
      "chip": "ym2612"
    },
    {
      "channel": 1,
      "note": 76,
      "start": 12.4883,
      "duration": 1.763,
      "velocity": 127,
      "chip": "ym2612"
    },
    {
      "channel": 0,
      "note": 97,
      "start": 12.5711,
      "duration": 0.1134,
      "velocity": 108,
      "chip": "ym2612"
    },
    {
      "channel": 5,
      "note": 52,
      "start": 12.8047,
      "duration": 0.1465,
      "velocity": 87,
      "chip": "ym2612"
    },
    {
      "channel": 0,
      "note": 97,
      "start": 12.8074,
      "duration": 0.1269,
      "velocity": 108,
      "chip": "ym2612"
    },
    {
      "channel": 5,
      "note": 60,
      "start": 13.0547,
      "duration": 0.0966,
      "velocity": 87,
      "chip": "ym2612"
    },
    {
      "channel": 0,
      "note": 97,
      "start": 13.0574,
      "duration": 0.1104,
      "velocity": 108,
      "chip": "ym2612"
    },
    {
      "channel": 5,
      "note": 60,
      "start": 13.2878,
      "duration": 0.1968,
      "velocity": 87,
      "chip": "ym2612"
    },
    {
      "channel": 0,
      "note": 97,
      "start": 13.2905,
      "duration": 0.1272,
      "velocity": 108,
      "chip": "ym2612"
    },
    {
      "channel": 4,
      "note": 44,
      "start": 13.2934,
      "duration": 0.0911,
      "velocity": 119,
      "chip": "ym2612"
    },
    {
      "channel": 0,
      "note": 97,
      "start": 13.54,
      "duration": 0.1111,
      "velocity": 108,
      "chip": "ym2612"
    },
    {
      "channel": 4,
      "note": 44,
      "start": 13.5428,
      "duration": 0.0918,
      "velocity": 119,
      "chip": "ym2612"
    },
    {
      "channel": 5,
      "note": 60,
      "start": 13.771,
      "duration": 0.1305,
      "velocity": 87,
      "chip": "ym2612"
    },
    {
      "channel": 0,
      "note": 97,
      "start": 13.7737,
      "duration": 0.1275,
      "velocity": 108,
      "chip": "ym2612"
    },
    {
      "channel": 5,
      "note": 59,
      "start": 14.0242,
      "duration": 0.1771,
      "velocity": 87,
      "chip": "ym2612"
    },
    {
      "channel": 0,
      "note": 97,
      "start": 14.0269,
      "duration": 0.1075,
      "velocity": 108,
      "chip": "ym2612"
    },
    {
      "channel": 5,
      "note": 55,
      "start": 14.2546,
      "duration": 0.1467,
      "velocity": 87,
      "chip": "ym2612"
    },
    {
      "channel": 0,
      "note": 97,
      "start": 14.2573,
      "duration": 0.1271,
      "velocity": 108,
      "chip": "ym2612"
    },
    {
      "channel": 5,
      "note": 57,
      "start": 14.5042,
      "duration": 0.1303,
      "velocity": 87,
      "chip": "ym2612"
    },
    {
      "channel": 0,
      "note": 97,
      "start": 14.5069,
      "duration": 0.1107,
      "velocity": 108,
      "chip": "ym2612"
    },
    {
      "channel": 4,
      "note": 44,
      "start": 14.5103,
      "duration": 0.0742,
      "velocity": 119,
      "chip": "ym2612"
    },
    {
      "channel": 5,
      "note": 50,
      "start": 14.7377,
      "duration": 0.247,
      "velocity": 87,
      "chip": "ym2612"
    },
    {
      "channel": 3,
      "note": 68,
      "start": 14.7409,
      "duration": 0.1269,
      "velocity": 127,
      "chip": "ym2612"
    },
    {
      "channel": 0,
      "note": 97,
      "start": 14.7432,
      "duration": 0.1244,
      "velocity": 108,
      "chip": "ym2612"
    },
    {
      "channel": 4,
      "note": 44,
      "start": 14.7462,
      "duration": 0.1217,
      "velocity": 119,
      "chip": "ym2612"
    },
    {
      "channel": 5,
      "note": 52,
      "start": 14.9912,
      "duration": 0.21,
      "velocity": 87,
      "chip": "ym2612"
    },
    {
      "channel": 3,
      "note": 66,
      "start": 14.9939,
      "duration": 0.1072,
      "velocity": 127,
      "chip": "ym2612"
    },
    {
      "channel": 0,
      "note": 97,
      "start": 14.9963,
      "duration": 0.1046,
      "velocity": 108,
      "chip": "ym2612"
    },
    {
      "channel": 5,
      "note": 55,
      "start": 15.2213,
      "duration": 0.18,
      "velocity": 87,
      "chip": "ym2612"
    },
    {
      "channel": 3,
      "note": 64,
      "start": 15.2241,
      "duration": 0.1273,
      "velocity": 127,
      "chip": "ym2612"
    },
    {
      "channel": 0,
      "note": 97,
      "start": 15.2264,
      "duration": 0.1248,
      "velocity": 108,
      "chip": "ym2612"
    },
    {
      "channel": 5,
      "note": 60,
      "start": 15.4709,
      "duration": 0.1469,
      "velocity": 87,
      "chip": "ym2612"
    },
    {
      "channel": 2,
      "note": 82,
      "start": 15.4742,
      "duration": 2.0106,
      "velocity": 127,
      "chip": "ym2612"
    },
    {
      "channel": 0,
      "note": 97,
      "start": 15.4787,
      "duration": 0.1056,
      "velocity": 108,
      "chip": "ym2612"
    },
    {
      "channel": 4,
      "note": 44,
      "start": 15.4838,
      "duration": 0.1173,
      "velocity": 119,
      "chip": "ym2612"
    },
    {
      "channel": 1,
      "note": 82,
      "start": 15.5881,
      "duration": 2.013,
      "velocity": 127,
      "chip": "ym2612"
    },
    {
      "channel": 5,
      "note": 60,
      "start": 15.7045,
      "duration": 0.1633,
      "velocity": 87,
      "chip": "ym2612"
    },
    {
      "channel": 0,
      "note": 97,
      "start": 15.7072,
      "duration": 0.1106,
      "velocity": 108,
      "chip": "ym2612"
    },
    {
      "channel": 0,
      "note": 97,
      "start": 15.9545,
      "duration": 0.1132,
      "velocity": 108,
      "chip": "ym2612"
    },
    {
      "channel": 5,
      "note": 60,
      "start": 16.1876,
      "duration": 0.1971,
      "velocity": 87,
      "chip": "ym2612"
    },
    {
      "channel": 0,
      "note": 97,
      "start": 16.1903,
      "duration": 0.1109,
      "velocity": 108,
      "chip": "ym2612"
    },
    {
      "channel": 0,
      "note": 97,
      "start": 16.4379,
      "duration": 0.1133,
      "velocity": 108,
      "chip": "ym2612"
    },
    {
      "channel": 5,
      "note": 60,
      "start": 16.6713,
      "duration": 0.1134,
      "velocity": 87,
      "chip": "ym2612"
    },
    {
      "channel": 0,
      "note": 97,
      "start": 16.674,
      "duration": 0.1103,
      "velocity": 108,
      "chip": "ym2612"
    },
    {
      "channel": 4,
      "note": 44,
      "start": 16.677,
      "duration": 0.1076,
      "velocity": 119,
      "chip": "ym2612"
    },
    {
      "channel": 5,
      "note": 63,
      "start": 16.921,
      "duration": 0.2135,
      "velocity": 87,
      "chip": "ym2612"
    },
    {
      "channel": 0,
      "note": 97,
      "start": 16.9237,
      "duration": 0.1106,
      "velocity": 108,
      "chip": "ym2612"
    },
    {
      "channel": 5,
      "note": 65,
      "start": 17.1545,
      "duration": 0.1968,
      "velocity": 87,
      "chip": "ym2612"
    },
    {
      "channel": 0,
      "note": 97,
      "start": 17.1572,
      "duration": 0.1106,
      "velocity": 108,
      "chip": "ym2612"
    },
    {
      "channel": 0,
      "note": 97,
      "start": 17.4056,
      "duration": 0.1122,
      "velocity": 108,
      "chip": "ym2612"
    },
    {
      "channel": 4,
      "note": 44,
      "start": 17.4085,
      "duration": 0.1261,
      "velocity": 119,
      "chip": "ym2612"
    },
    {
      "channel": 2,
      "note": 79,
      "start": 17.6047,
      "duration": 0.2135,
      "velocity": 127,
      "chip": "ym2612"
    },
    {
      "channel": 5,
      "note": 72,
      "start": 17.6395,
      "duration": 0.1451,
      "velocity": 87,
      "chip": "ym2612"
    },
    {
      "channel": 0,
      "note": 97,
      "start": 17.6422,
      "duration": 0.109,
      "velocity": 108,
      "chip": "ym2612"
    },
    {
      "channel": 1,
      "note": 79,
      "start": 17.7213,
      "duration": 0.2132,
      "velocity": 127,
      "chip": "ym2612"
    },
    {
      "channel": 5,
      "note": 72,
      "start": 17.8877,
      "duration": 0.1803,
      "velocity": 87,
      "chip": "ym2612"
    },
    {
      "channel": 2,
      "note": 82,
      "start": 17.8911,
      "duration": 0.2268,
      "velocity": 127,
      "chip": "ym2612"
    },
    {
      "channel": 0,
      "note": 97,
      "start": 17.8937,
      "duration": 0.1075,
      "velocity": 108,
      "chip": "ym2612"
    },
    {
      "channel": 1,
      "note": 82,
      "start": 18.0052,
      "duration": 0.2295,
      "velocity": 127,
      "chip": "ym2612"
    },
    {
      "channel": 3,
      "note": 84,
      "start": 18.1047,
      "duration": 0.2133,
      "velocity": 127,
      "chip": "ym2612"
    },
    {
      "channel": 5,
      "note": 65,
      "start": 18.121,
      "duration": 0.0803,
      "velocity": 87,
      "chip": "ym2612"
    },
    {
      "channel": 0,
      "note": 97,
      "start": 18.1237,
      "duration": 0.1108,
      "velocity": 108,
      "chip": "ym2612"
    },
    {
      "channel": 4,
      "note": 84,
      "start": 18.2215,
      "duration": 0.213,
      "velocity": 127,
      "chip": "ym2612"
    },
    {
      "channel": 5,
      "note": 70,
      "start": 18.3709,
      "duration": 0.0971,
      "velocity": 87,
      "chip": "ym2612"
    },
    {
      "channel": 0,
      "note": 97,
      "start": 18.3736,
      "duration": 0.1108,
      "velocity": 108,
      "chip": "ym2612"
    },
    {
      "channel": 2,
      "note": 44,
      "start": 18.3767,
      "duration": 0.0914,
      "velocity": 119,
      "chip": "ym2612"
    },
    {
      "channel": 3,
      "note": 86,
      "start": 18.3899,
      "duration": 0.2114,
      "velocity": 127,
      "chip": "ym2612"
    },
    {
      "channel": 1,
      "note": 86,
      "start": 18.5046,
      "duration": 0.2132,
      "velocity": 127,
      "chip": "ym2612"
    },
    {
      "channel": 5,
      "note": 70,
      "start": 18.6067,
      "duration": 0.0946,
      "velocity": 87,
      "chip": "ym2612"
    },
    {
      "channel": 0,
      "note": 97,
      "start": 18.6093,
      "duration": 0.1083,
      "velocity": 108,
      "chip": "ym2612"
    },
    {
      "channel": 2,
      "note": 44,
      "start": 18.6128,
      "duration": 0.1718,
      "velocity": 119,
      "chip": "ym2612"
    },
    {
      "channel": 3,
      "note": 84,
      "start": 18.7211,
      "duration": 0.2301,
      "velocity": 127,
      "chip": "ym2612"
    },
    {
      "channel": 5,
      "note": 63,
      "start": 18.8543,
      "duration": 0.2138,
      "velocity": 87,
      "chip": "ym2612"
    },
    {
      "channel": 1,
      "note": 84,
      "start": 18.857,
      "duration": 0.2109,
      "velocity": 127,
      "chip": "ym2612"
    },
    {
      "channel": 0,
      "note": 97,
      "start": 18.8595,
      "duration": 0.1083,
      "velocity": 108,
      "chip": "ym2612"
    },
    {
      "channel": 3,
      "note": 82,
      "start": 19.0546,
      "duration": 0.1798,
      "velocity": 127,
      "chip": "ym2612"
    },
    {
      "channel": 5,
      "note": 65,
      "start": 19.0879,
      "duration": 0.1467,
      "velocity": 87,
      "chip": "ym2612"
    },
    {
      "channel": 0,
      "note": 97,
      "start": 19.0906,
      "duration": 0.1104,
      "velocity": 108,
      "chip": "ym2612"
    },
    {
      "channel": 2,
      "note": 44,
      "start": 19.0937,
      "duration": 0.0742,
      "velocity": 119,
      "chip": "ym2612"
    },
    {
      "channel": 1,
      "note": 82,
      "start": 19.1712,
      "duration": 0.1801,
      "velocity": 127,
      "chip": "ym2612"
    },
    {
      "channel": 5,
      "note": 60,
      "start": 19.3378,
      "duration": 0.1466,
      "velocity": 87,
      "chip": "ym2612"
    },
    {
      "channel": 0,
      "note": 97,
      "start": 19.3415,
      "duration": 0.1096,
      "velocity": 108,
      "chip": "ym2612"
    },
    {
      "channel": 2,
      "note": 44,
      "start": 19.3446,
      "duration": 0.0902,
      "velocity": 119,
      "chip": "ym2612"
    },
    {
      "channel": 3,
      "note": 84,
      "start": 19.3548,
      "duration": 0.263,
      "velocity": 127,
      "chip": "ym2612"
    },
    {
      "channel": 1,
      "note": 84,
      "start": 19.4713,
      "duration": 0.2631,
      "velocity": 127,
      "chip": "ym2612"
    },
    {
      "channel": 5,
      "note": 60,
      "start": 19.5717,
      "duration": 0.1962,
      "velocity": 87,
      "chip": "ym2612"
    },
    {
      "channel": 0,
      "note": 97,
      "start": 19.5744,
      "duration": 0.1101,
      "velocity": 108,
      "chip": "ym2612"
    },
    {
      "channel": 3,
      "note": 82,
      "start": 19.7216,
      "duration": 0.213,
      "velocity": 127,
      "chip": "ym2612"
    },
    {
      "channel": 0,
      "note": 97,
      "start": 19.8212,
      "duration": 0.1132,
      "velocity": 108,
      "chip": "ym2612"
    },
    {
      "channel": 1,
      "note": 82,
      "start": 19.8382,
      "duration": 0.2128,
      "velocity": 127,
      "chip": "ym2612"
    },
    {
      "channel": 5,
      "note": 58,
      "start": 20.0543,
      "duration": 0.2138,
      "velocity": 87,
      "chip": "ym2612"
    },
    {
      "channel": 0,
      "note": 97,
      "start": 20.057,
      "duration": 0.1108,
      "velocity": 108,
      "chip": "ym2612"
    },
    {
      "channel": 2,
      "note": 44,
      "start": 20.0601,
      "duration": 0.108,
      "velocity": 119,
      "chip": "ym2612"
    },
    {
      "channel": 3,
      "note": 79,
      "start": 20.0881,
      "duration": 2.9297,
      "velocity": 127,
      "chip": "ym2612"
    },
    {
      "channel": 1,
      "note": 79,
      "start": 20.2216,
      "duration": 2.913,
      "velocity": 127,
      "chip": "ym2612"
    },
    {
      "channel": 0,
      "note": 97,
      "start": 20.3044,
      "duration": 0.1133,
      "velocity": 108,
      "chip": "ym2612"
    },
    {
      "channel": 5,
      "note": 55,
      "start": 20.538,
      "duration": 0.1465,
      "velocity": 87,
      "chip": "ym2612"
    },
    {
      "channel": 0,
      "note": 97,
      "start": 20.5407,
      "duration": 0.1103,
      "velocity": 108,
      "chip": "ym2612"
    },
    {
      "channel": 5,
      "note": 63,
      "start": 20.7876,
      "duration": 0.097,
      "velocity": 87,
      "chip": "ym2612"
    },
    {
      "channel": 0,
      "note": 97,
      "start": 20.7903,
      "duration": 0.1108,
      "velocity": 108,
      "chip": "ym2612"
    },
    {
      "channel": 5,
      "note": 63,
      "start": 21.0211,
      "duration": 0.1968,
      "velocity": 87,
      "chip": "ym2612"
    },
    {
      "channel": 0,
      "note": 97,
      "start": 21.0238,
      "duration": 0.1106,
      "velocity": 108,
      "chip": "ym2612"
    },
    {
      "channel": 2,
      "note": 44,
      "start": 21.0268,
      "duration": 0.0912,
      "velocity": 119,
      "chip": "ym2612"
    },
    {
      "channel": 0,
      "note": 97,
      "start": 21.2737,
      "duration": 0.1107,
      "velocity": 108,
      "chip": "ym2612"
    },
    {
      "channel": 2,
      "note": 44,
      "start": 21.2766,
      "duration": 0.0914,
      "velocity": 119,
      "chip": "ym2612"
    },
    {
      "channel": 5,
      "note": 63,
      "start": 21.5044,
      "duration": 0.1137,
      "velocity": 87,
      "chip": "ym2612"
    },
    {
      "channel": 0,
      "note": 97,
      "start": 21.5071,
      "duration": 0.1107,
      "velocity": 108,
      "chip": "ym2612"
    },
    {
      "channel": 5,
      "note": 62,
      "start": 21.7579,
      "duration": 0.16,
      "velocity": 87,
      "chip": "ym2612"
    },
    {
      "channel": 0,
      "note": 97,
      "start": 21.7606,
      "duration": 0.1072,
      "velocity": 108,
      "chip": "ym2612"
    },
    {
      "channel": 5,
      "note": 58,
      "start": 21.9877,
      "duration": 0.1303,
      "velocity": 87,
      "chip": "ym2612"
    },
    {
      "channel": 0,
      "note": 97,
      "start": 21.9904,
      "duration": 0.1106,
      "velocity": 108,
      "chip": "ym2612"
    },
    {
      "channel": 5,
      "note": 60,
      "start": 22.221,
      "duration": 0.1469,
      "velocity": 87,
      "chip": "ym2612"
    },
    {
      "channel": 0,
      "note": 97,
      "start": 22.2237,
      "duration": 0.1274,
      "velocity": 108,
      "chip": "ym2612"
    },
    {
      "channel": 2,
      "note": 44,
      "start": 22.2271,
      "duration": 0.0743,
      "velocity": 119,
      "chip": "ym2612"
    },
    {
      "channel": 5,
      "note": 53,
      "start": 22.4709,
      "duration": 0.2305,
      "velocity": 87,
      "chip": "ym2612"
    },
    {
      "channel": 4,
      "note": 68,
      "start": 22.4741,
      "duration": 0.1105,
      "velocity": 127,
      "chip": "ym2612"
    },
    {
      "channel": 0,
      "note": 97,
      "start": 22.4765,
      "duration": 0.1078,
      "velocity": 108,
      "chip": "ym2612"
    },
    {
      "channel": 2,
      "note": 44,
      "start": 22.4795,
      "duration": 0.1052,
      "velocity": 119,
      "chip": "ym2612"
    },
    {
      "channel": 5,
      "note": 55,
      "start": 22.7076,
      "duration": 0.227,
      "velocity": 87,
      "chip": "ym2612"
    },
    {
      "channel": 4,
      "note": 66,
      "start": 22.7103,
      "duration": 0.1243,
      "velocity": 127,
      "chip": "ym2612"
    },
    {
      "channel": 0,
      "note": 97,
      "start": 22.7127,
      "duration": 0.1217,
      "velocity": 108,
      "chip": "ym2612"
    },
    {
      "channel": 5,
      "note": 58,
      "start": 22.9543,
      "duration": 0.1805,
      "velocity": 87,
      "chip": "ym2612"
    },
    {
      "channel": 4,
      "note": 64,
      "start": 22.957,
      "duration": 0.1111,
      "velocity": 127,
      "chip": "ym2612"
    },
    {
      "channel": 0,
      "note": 97,
      "start": 22.9594,
      "duration": 0.1085,
      "velocity": 108,
      "chip": "ym2612"
    },
    {
      "channel": 3,
      "note": 81,
      "start": 23.1907,
      "duration": 2.6437,
      "velocity": 127,
      "chip": "ym2612"
    },
    {
      "channel": 0,
      "note": 97,
      "start": 23.1952,
      "duration": 0.1224,
      "velocity": 108,
      "chip": "ym2612"
    },
    {
      "channel": 2,
      "note": 44,
      "start": 23.2005,
      "duration": 0.1341,
      "velocity": 119,
      "chip": "ym2612"
    },
    {
      "channel": 1,
      "note": 81,
      "start": 23.3215,
      "duration": 2.6297,
      "velocity": 127,
      "chip": "ym2612"
    },
    {
      "channel": 0,
      "note": 97,
      "start": 23.4379,
      "duration": 0.1132,
      "velocity": 108,
      "chip": "ym2612"
    },
    {
      "channel": 0,
      "note": 97,
      "start": 23.6712,
      "duration": 0.1299,
      "velocity": 108,
      "chip": "ym2612"
    },
    {
      "channel": 0,
      "note": 97,
      "start": 23.9211,
      "duration": 0.1134,
      "velocity": 108,
      "chip": "ym2612"
    },
    {
      "channel": 0,
      "note": 97,
      "start": 24.1546,
      "duration": 0.1298,
      "velocity": 108,
      "chip": "ym2612"
    },
    {
      "channel": 0,
      "note": 97,
      "start": 24.4044,
      "duration": 0.1132,
      "velocity": 108,
      "chip": "ym2612"
    },
    {
      "channel": 2,
      "note": 44,
      "start": 24.4075,
      "duration": 0.1105,
      "velocity": 119,
      "chip": "ym2612"
    },
    {
      "channel": 0,
      "note": 97,
      "start": 24.6376,
      "duration": 0.1301,
      "velocity": 108,
      "chip": "ym2612"
    },
    {
      "channel": 0,
      "note": 97,
      "start": 24.8877,
      "duration": 0.1134,
      "velocity": 108,
      "chip": "ym2612"
    },
    {
      "channel": 0,
      "note": 97,
      "start": 25.1222,
      "duration": 0.1291,
      "velocity": 108,
      "chip": "ym2612"
    },
    {
      "channel": 2,
      "note": 44,
      "start": 25.1253,
      "duration": 0.1427,
      "velocity": 119,
      "chip": "ym2612"
    },
    {
      "channel": 0,
      "note": 97,
      "start": 25.3723,
      "duration": 0.1122,
      "velocity": 108,
      "chip": "ym2612"
    },
    {
      "channel": 0,
      "note": 97,
      "start": 25.6045,
      "duration": 0.1299,
      "velocity": 108,
      "chip": "ym2612"
    },
    {
      "channel": 0,
      "note": 97,
      "start": 25.8544,
      "duration": 0.1135,
      "velocity": 108,
      "chip": "ym2612"
    },
    {
      "channel": 3,
      "note": 79,
      "start": 26.0547,
      "duration": 0.4965,
      "velocity": 127,
      "chip": "ym2612"
    },
    {
      "channel": 0,
      "note": 97,
      "start": 26.0877,
      "duration": 0.13,
      "velocity": 108,
      "chip": "ym2612"
    },
    {
      "channel": 2,
      "note": 44,
      "start": 26.0908,
      "duration": 0.0938,
      "velocity": 119,
      "chip": "ym2612"
    },
    {
      "channel": 1,
      "note": 79,
      "start": 26.1712,
      "duration": 0.4966,
      "velocity": 127,
      "chip": "ym2612"
    },
    {
      "channel": 0,
      "note": 97,
      "start": 26.3402,
      "duration": 0.1108,
      "velocity": 108,
      "chip": "ym2612"
    },
    {
      "channel": 2,
      "note": 44,
      "start": 26.3436,
      "duration": 0.1743,
      "velocity": 119,
      "chip": "ym2612"
    },
    {
      "channel": 3,
      "note": 76,
      "start": 26.5715,
      "duration": 0.2298,
      "velocity": 127,
      "chip": "ym2612"
    },
    {
      "channel": 0,
      "note": 97,
      "start": 26.574,
      "duration": 0.1271,
      "velocity": 108,
      "chip": "ym2612"
    },
    {
      "channel": 1,
      "note": 76,
      "start": 26.7052,
      "duration": 0.2125,
      "velocity": 127,
      "chip": "ym2612"
    },
    {
      "channel": 3,
      "note": 79,
      "start": 26.8212,
      "duration": 0.1133,
      "velocity": 127,
      "chip": "ym2612"
    },
    {
      "channel": 0,
      "note": 97,
      "start": 26.8238,
      "duration": 0.1105,
      "velocity": 108,
      "chip": "ym2612"
    },
    {
      "channel": 2,
      "note": 44,
      "start": 26.8268,
      "duration": 0.0744,
      "velocity": 119,
      "chip": "ym2612"
    },
    {
      "channel": 1,
      "note": 79,
      "start": 26.9378,
      "duration": 0.1133,
      "velocity": 127,
      "chip": "ym2612"
    },
    {
      "channel": 3,
      "note": 81,
      "start": 27.0548,
      "duration": 0.3298,
      "velocity": 127,
      "chip": "ym2612"
    },
    {
      "channel": 0,
      "note": 97,
      "start": 27.0584,
      "duration": 0.1262,
      "velocity": 108,
      "chip": "ym2612"
    },
    {
      "channel": 2,
      "note": 44,
      "start": 27.0615,
      "duration": 0.0899,
      "velocity": 119,
      "chip": "ym2612"
    },
    {
      "channel": 1,
      "note": 81,
      "start": 27.1881,
      "duration": 0.3132,
      "velocity": 127,
      "chip": "ym2612"
    },
    {
      "channel": 0,
      "note": 97,
      "start": 27.3046,
      "duration": 0.1132,
      "velocity": 108,
      "chip": "ym2612"
    },
    {
      "channel": 4,
      "note": 79,
      "start": 27.3381,
      "duration": 0.2133,
      "velocity": 127,
      "chip": "ym2612"
    },
    {
      "channel": 5,
      "note": 79,
      "start": 27.455,
      "duration": 0.2296,
      "velocity": 127,
      "chip": "ym2612"
    },
    {
      "channel": 0,
      "note": 97,
      "start": 27.5378,
      "duration": 0.1299,
      "velocity": 108,
      "chip": "ym2612"
    },
    {
      "channel": 0,
      "note": 97,
      "start": 27.7876,
      "duration": 0.1136,
      "velocity": 108,
      "chip": "ym2612"
    },
    {
      "channel": 2,
      "note": 44,
      "start": 27.7907,
      "duration": 0.1108,
      "velocity": 119,
      "chip": "ym2612"
    },
    {
      "channel": 3,
      "note": 76,
      "start": 27.8047,
      "duration": 2.2132,
      "velocity": 127,
      "chip": "ym2612"
    },
    {
      "channel": 1,
      "note": 76,
      "start": 27.9216,
      "duration": 2.2128,
      "velocity": 127,
      "chip": "ym2612"
    },
    {
      "channel": 0,
      "note": 97,
      "start": 28.0213,
      "duration": 0.1297,
      "velocity": 108,
      "chip": "ym2612"
    },
    {
      "channel": 0,
      "note": 97,
      "start": 28.2712,
      "duration": 0.1131,
      "velocity": 108,
      "chip": "ym2612"
    },
    {
      "channel": 0,
      "note": 97,
      "start": 28.5043,
      "duration": 0.1135,
      "velocity": 108,
      "chip": "ym2612"
    },
    {
      "channel": 0,
      "note": 97,
      "start": 28.7544,
      "duration": 0.1133,
      "velocity": 108,
      "chip": "ym2612"
    },
    {
      "channel": 2,
      "note": 44,
      "start": 28.7575,
      "duration": 0.0938,
      "velocity": 119,
      "chip": "ym2612"
    },
    {
      "channel": 0,
      "note": 97,
      "start": 28.99,
      "duration": 0.1112,
      "velocity": 108,
      "chip": "ym2612"
    },
    {
      "channel": 2,
      "note": 44,
      "start": 28.9929,
      "duration": 0.0919,
      "velocity": 119,
      "chip": "ym2612"
    },
    {
      "channel": 0,
      "note": 97,
      "start": 29.2376,
      "duration": 0.1136,
      "velocity": 108,
      "chip": "ym2612"
    },
    {
      "channel": 0,
      "note": 97,
      "start": 29.4746,
      "duration": 0.1099,
      "velocity": 108,
      "chip": "ym2612"
    },
    {
      "channel": 0,
      "note": 97,
      "start": 29.7212,
      "duration": 0.1132,
      "velocity": 108,
      "chip": "ym2612"
    },
    {
      "channel": 0,
      "note": 97,
      "start": 29.9545,
      "duration": 0.1132,
      "velocity": 108,
      "chip": "ym2612"
    },
    {
      "channel": 2,
      "note": 44,
      "start": 29.9579,
      "duration": 0.0767,
      "velocity": 119,
      "chip": "ym2612"
    },
    {
      "channel": 4,
      "note": 68,
      "start": 30.2049,
      "duration": 0.113,
      "velocity": 127,
      "chip": "ym2612"
    },
    {
      "channel": 0,
      "note": 97,
      "start": 30.2073,
      "duration": 0.1104,
      "velocity": 108,
      "chip": "ym2612"
    },
    {
      "channel": 2,
      "note": 44,
      "start": 30.2103,
      "duration": 0.1078,
      "velocity": 119,
      "chip": "ym2612"
    },
    {
      "channel": 3,
      "note": 76,
      "start": 30.2215,
      "duration": 0.1798,
      "velocity": 127,
      "chip": "ym2612"
    },
    {
      "channel": 1,
      "note": 76,
      "start": 30.3383,
      "duration": 0.1795,
      "velocity": 127,
      "chip": "ym2612"
    },
    {
      "channel": 3,
      "note": 79,
      "start": 30.4408,
      "duration": 0.1603,
      "velocity": 127,
      "chip": "ym2612"
    },
    {
      "channel": 4,
      "note": 66,
      "start": 30.4435,
      "duration": 0.1078,
      "velocity": 127,
      "chip": "ym2612"
    },
    {
      "channel": 0,
      "note": 97,
      "start": 30.4458,
      "duration": 0.1052,
      "velocity": 108,
      "chip": "ym2612"
    },
    {
      "channel": 1,
      "note": 79,
      "start": 30.5545,
      "duration": 0.1633,
      "velocity": 127,
      "chip": "ym2612"
    },
    {
      "channel": 3,
      "note": 81,
      "start": 30.6545,
      "duration": 0.0967,
      "velocity": 127,
      "chip": "ym2612"
    },
    {
      "channel": 4,
      "note": 64,
      "start": 30.6878,
      "duration": 0.1136,
      "velocity": 127,
      "chip": "ym2612"
    },
    {
      "channel": 0,
      "note": 97,
      "start": 30.6902,
      "duration": 0.111,
      "velocity": 108,
      "chip": "ym2612"
    },
    {
      "channel": 1,
      "note": 81,
      "start": 30.788,
      "duration": 0.0966,
      "velocity": 127,
      "chip": "ym2612"
    },
    {
      "channel": 5,
      "note": 57,
      "start": 30.9212,
      "duration": 0.1633,
      "velocity": 87,
      "chip": "ym2612"
    },
    {
      "channel": 3,
      "note": 81,
      "start": 30.9241,
      "duration": 0.4605,
      "velocity": 127,
      "chip": "ym2612"
    },
    {
      "channel": 0,
      "note": 97,
      "start": 30.9285,
      "duration": 0.1057,
      "velocity": 108,
      "chip": "ym2612"
    },
    {
      "channel": 2,
      "note": 44,
      "start": 30.9338,
      "duration": 0.1341,
      "velocity": 119,
      "chip": "ym2612"
    },
    {
      "channel": 1,
      "note": 81,
      "start": 31.0378,
      "duration": 0.4634,
      "velocity": 127,
      "chip": "ym2612"
    },
    {
      "channel": 5,
      "note": 57,
      "start": 31.1711,
      "duration": 0.147,
      "velocity": 87,
      "chip": "ym2612"
    },
    {
      "channel": 0,
      "note": 97,
      "start": 31.1738,
      "duration": 0.1108,
      "velocity": 108,
      "chip": "ym2612"
    },
    {
      "channel": 0,
      "note": 97,
      "start": 31.4045,
      "duration": 0.1133,
      "velocity": 108,
      "chip": "ym2612"
    },
    {
      "channel": 3,
      "note": 79,
      "start": 31.4213,
      "duration": 0.2298,
      "velocity": 127,
      "chip": "ym2612"
    },
    {
      "channel": 1,
      "note": 79,
      "start": 31.5546,
      "duration": 0.2134,
      "velocity": 127,
      "chip": "ym2612"
    },
    {
      "channel": 5,
      "note": 57,
      "start": 31.6544,
      "duration": 0.1969,
      "velocity": 87,
      "chip": "ym2612"
    },
    {
      "channel": 0,
      "note": 97,
      "start": 31.657,
      "duration": 0.1108,
      "velocity": 108,
      "chip": "ym2612"
    },
    {
      "channel": 3,
      "note": 76,
      "start": 31.6881,
      "duration": 0.1131,
      "velocity": 127,
      "chip": "ym2612"
    },
    {
      "channel": 1,
      "note": 76,
      "start": 31.8051,
      "duration": 0.1295,
      "velocity": 127,
      "chip": "ym2612"
    },
    {
      "channel": 0,
      "note": 97,
      "start": 31.888,
      "duration": 0.1132,
      "velocity": 108,
      "chip": "ym2612"
    },
    {
      "channel": 5,
      "note": 57,
      "start": 32.1378,
      "duration": 0.1135,
      "velocity": 87,
      "chip": "ym2612"
    },
    {
      "channel": 3,
      "note": 79,
      "start": 32.1406,
      "duration": 0.2106,
      "velocity": 127,
      "chip": "ym2612"
    },
    {
      "channel": 0,
      "note": 97,
      "start": 32.1432,
      "duration": 0.1078,
      "velocity": 108,
      "chip": "ym2612"
    },
    {
      "channel": 2,
      "note": 44,
      "start": 32.1463,
      "duration": 0.1051,
      "velocity": 119,
      "chip": "ym2612"
    },
    {
      "channel": 1,
      "note": 79,
      "start": 32.2547,
      "duration": 0.213,
      "velocity": 127,
      "chip": "ym2612"
    },
    {
      "channel": 5,
      "note": 60,
      "start": 32.3709,
      "duration": 0.2136,
      "velocity": 87,
      "chip": "ym2612"
    },
    {
      "channel": 0,
      "note": 97,
      "start": 32.3736,
      "duration": 0.1107,
      "velocity": 108,
      "chip": "ym2612"
    },
    {
      "channel": 5,
      "note": 62,
      "start": 32.6215,
      "duration": 0.1964,
      "velocity": 87,
      "chip": "ym2612"
    },
    {
      "channel": 3,
      "note": 81,
      "start": 32.6243,
      "duration": 0.8769,
      "velocity": 127,
      "chip": "ym2612"
    },
    {
      "channel": 0,
      "note": 97,
      "start": 32.6269,
      "duration": 0.1076,
      "velocity": 108,
      "chip": "ym2612"
    },
    {
      "channel": 1,
      "note": 81,
      "start": 32.7381,
      "duration": 0.8796,
      "velocity": 127,
      "chip": "ym2612"
    },
    {
      "channel": 0,
      "note": 97,
      "start": 32.8554,
      "duration": 0.1124,
      "velocity": 108,
      "chip": "ym2612"
    },
    {
      "channel": 2,
      "note": 44,
      "start": 32.8585,
      "duration": 0.1428,
      "velocity": 119,
      "chip": "ym2612"
    },
    {
      "channel": 5,
      "note": 69,
      "start": 33.1056,
      "duration": 0.1291,
      "velocity": 87,
      "chip": "ym2612"
    },
    {
      "channel": 0,
      "note": 97,
      "start": 33.1083,
      "duration": 0.1096,
      "velocity": 108,
      "chip": "ym2612"
    },
    {
      "channel": 5,
      "note": 69,
      "start": 33.3379,
      "duration": 0.1801,
      "velocity": 87,
      "chip": "ym2612"
    },
    {
      "channel": 0,
      "note": 97,
      "start": 33.3406,
      "duration": 0.1105,
      "velocity": 108,
      "chip": "ym2612"
    },
    {
      "channel": 5,
      "note": 62,
      "start": 33.5876,
      "duration": 0.0637,
      "velocity": 87,
      "chip": "ym2612"
    },
    {
      "channel": 0,
      "note": 97,
      "start": 33.5903,
      "duration": 0.1108,
      "velocity": 108,
      "chip": "ym2612"
    },
    {
      "channel": 3,
      "note": 79,
      "start": 33.6044,
      "duration": 0.1469,
      "velocity": 127,
      "chip": "ym2612"
    },
    {
      "channel": 1,
      "note": 79,
      "start": 33.7213,
      "duration": 0.1632,
      "velocity": 127,
      "chip": "ym2612"
    },
    {
      "channel": 5,
      "note": 67,
      "start": 33.821,
      "duration": 0.097,
      "velocity": 87,
      "chip": "ym2612"
    },
    {
      "channel": 3,
      "note": 81,
      "start": 33.8238,
      "duration": 0.1274,
      "velocity": 127,
      "chip": "ym2612"
    },
    {
      "channel": 0,
      "note": 97,
      "start": 33.8264,
      "duration": 0.1079,
      "velocity": 108,
      "chip": "ym2612"
    },
    {
      "channel": 2,
      "note": 44,
      "start": 33.8294,
      "duration": 0.0886,
      "velocity": 119,
      "chip": "ym2612"
    },
    {
      "channel": 1,
      "note": 81,
      "start": 33.9379,
      "duration": 0.1466,
      "velocity": 127,
      "chip": "ym2612"
    },
    {
      "channel": 5,
      "note": 67,
      "start": 34.0732,
      "duration": 0.0946,
      "velocity": 87,
      "chip": "ym2612"
    },
    {
      "channel": 3,
      "note": 84,
      "start": 34.076,
      "duration": 0.1418,
      "velocity": 127,
      "chip": "ym2612"
    },
    {
      "channel": 0,
      "note": 97,
      "start": 34.0786,
      "duration": 0.1058,
      "velocity": 108,
      "chip": "ym2612"
    },
    {
      "channel": 2,
      "note": 44,
      "start": 34.082,
      "duration": 0.1526,
      "velocity": 119,
      "chip": "ym2612"
    },
    {
      "channel": 1,
      "note": 84,
      "start": 34.1879,
      "duration": 0.1466,
      "velocity": 127,
      "chip": "ym2612"
    },
    {
      "channel": 5,
      "note": 60,
      "start": 34.3042,
      "duration": 0.2138,
      "velocity": 87,
      "chip": "ym2612"
    },
    {
      "channel": 0,
      "note": 97,
      "start": 34.3069,
      "duration": 0.1108,
      "velocity": 108,
      "chip": "ym2612"
    },
    {
      "channel": 3,
      "note": 81,
      "start": 34.3216,
      "duration": 0.1798,
      "velocity": 127,
      "chip": "ym2612"
    },
    {
      "channel": 1,
      "note": 81,
      "start": 34.4384,
      "duration": 0.1793,
      "velocity": 127,
      "chip": "ym2612"
    },
    {
      "channel": 5,
      "note": 62,
      "start": 34.5545,
      "duration": 0.13,
      "velocity": 87,
      "chip": "ym2612"
    },
    {
      "channel": 3,
      "note": 79,
      "start": 34.5573,
      "duration": 0.1106,
      "velocity": 127,
      "chip": "ym2612"
    },
    {
      "channel": 0,
      "note": 97,
      "start": 34.5599,
      "duration": 0.1078,
      "velocity": 108,
      "chip": "ym2612"
    },
    {
      "channel": 2,
      "note": 44,
      "start": 34.5629,
      "duration": 0.0551,
      "velocity": 119,
      "chip": "ym2612"
    },
    {
      "channel": 1,
      "note": 79,
      "start": 34.6713,
      "duration": 0.1131,
      "velocity": 127,
      "chip": "ym2612"
    },
    {
      "channel": 5,
      "note": 57,
      "start": 34.7883,
      "duration": 0.1629,
      "velocity": 87,
      "chip": "ym2612"
    },
    {
      "channel": 0,
      "note": 97,
      "start": 34.792,
      "duration": 0.1091,
      "velocity": 108,
      "chip": "ym2612"
    },
    {
      "channel": 2,
      "note": 44,
      "start": 34.7951,
      "duration": 0.0896,
      "velocity": 119,
      "chip": "ym2612"
    },
    {
      "channel": 3,
      "note": 81,
      "start": 34.8046,
      "duration": 0.38,
      "velocity": 127,
      "chip": "ym2612"
    },
    {
      "channel": 1,
      "note": 81,
      "start": 34.9213,
      "duration": 0.3798,
      "velocity": 127,
      "chip": "ym2612"
    },
    {
      "channel": 5,
      "note": 57,
      "start": 35.0214,
      "duration": 0.2132,
      "velocity": 87,
      "chip": "ym2612"
    },
    {
      "channel": 0,
      "note": 97,
      "start": 35.0241,
      "duration": 0.1272,
      "velocity": 108,
      "chip": "ym2612"
    },
    {
      "channel": 3,
      "note": 79,
      "start": 35.2712,
      "duration": 0.1798,
      "velocity": 127,
      "chip": "ym2612"
    },
    {
      "channel": 0,
      "note": 97,
      "start": 35.2738,
      "duration": 0.1107,
      "velocity": 108,
      "chip": "ym2612"
    },
    {
      "channel": 1,
      "note": 79,
      "start": 35.3881,
      "duration": 0.1797,
      "velocity": 127,
      "chip": "ym2612"
    },
    {
      "channel": 5,
      "note": 55,
      "start": 35.5043,
      "duration": 0.2304,
      "velocity": 87,
      "chip": "ym2612"
    },
    {
      "channel": 3,
      "note": 76,
      "start": 35.5078,
      "duration": 1.3268,
      "velocity": 127,
      "chip": "ym2612"
    },
    {
      "channel": 0,
      "note": 97,
      "start": 35.5103,
      "duration": 0.1242,
      "velocity": 108,
      "chip": "ym2612"
    },
    {
      "channel": 2,
      "note": 44,
      "start": 35.5134,
      "duration": 0.1215,
      "velocity": 119,
      "chip": "ym2612"
    },
    {
      "channel": 1,
      "note": 76,
      "start": 35.6388,
      "duration": 1.3122,
      "velocity": 127,
      "chip": "ym2612"
    },
    {
      "channel": 0,
      "note": 97,
      "start": 35.7546,
      "duration": 0.1133,
      "velocity": 108,
      "chip": "ym2612"
    },
    {
      "channel": 5,
      "note": 52,
      "start": 35.988,
      "duration": 0.1465,
      "velocity": 87,
      "chip": "ym2612"
    },
    {
      "channel": 0,
      "note": 97,
      "start": 35.9907,
      "duration": 0.127,
      "velocity": 108,
      "chip": "ym2612"
    },
    {
      "channel": 5,
      "note": 60,
      "start": 36.2376,
      "duration": 0.097,
      "velocity": 87,
      "chip": "ym2612"
    },
    {
      "channel": 0,
      "note": 97,
      "start": 36.2403,
      "duration": 0.1108,
      "velocity": 108,
      "chip": "ym2612"
    },
    {
      "channel": 5,
      "note": 60,
      "start": 36.4711,
      "duration": 0.2134,
      "velocity": 87,
      "chip": "ym2612"
    },
    {
      "channel": 0,
      "note": 97,
      "start": 36.4738,
      "duration": 0.1272,
      "velocity": 108,
      "chip": "ym2612"
    },
    {
      "channel": 2,
      "note": 44,
      "start": 36.4769,
      "duration": 0.091,
      "velocity": 119,
      "chip": "ym2612"
    },
    {
      "channel": 0,
      "note": 97,
      "start": 36.7234,
      "duration": 0.111,
      "velocity": 108,
      "chip": "ym2612"
    },
    {
      "channel": 2,
      "note": 44,
      "start": 36.7263,
      "duration": 0.0917,
      "velocity": 119,
      "chip": "ym2612"
    },
    {
      "channel": 5,
      "note": 60,
      "start": 36.9548,
      "duration": 0.1299,
      "velocity": 87,
      "chip": "ym2612"
    },
    {
      "channel": 0,
      "note": 97,
      "start": 36.9575,
      "duration": 0.1269,
      "velocity": 108,
      "chip": "ym2612"
    },
    {
      "channel": 3,
      "note": 76,
      "start": 36.9902,
      "duration": 0.1611,
      "velocity": 127,
      "chip": "ym2612"
    },
    {
      "channel": 1,
      "note": 76,
      "start": 37.1059,
      "duration": 0.1786,
      "velocity": 127,
      "chip": "ym2612"
    },
    {
      "channel": 5,
      "note": 59,
      "start": 37.2078,
      "duration": 0.1769,
      "velocity": 87,
      "chip": "ym2612"
    },
    {
      "channel": 3,
      "note": 79,
      "start": 37.2104,
      "duration": 0.1741,
      "velocity": 127,
      "chip": "ym2612"
    },
    {
      "channel": 0,
      "note": 97,
      "start": 37.213,
      "duration": 0.1047,
      "velocity": 108,
      "chip": "ym2612"
    },
    {
      "channel": 1,
      "note": 79,
      "start": 37.3212,
      "duration": 0.1801,
      "velocity": 127,
      "chip": "ym2612"
    },
    {
      "channel": 5,
      "note": 55,
      "start": 37.4378,
      "duration": 0.1469,
      "velocity": 87,
      "chip": "ym2612"
    },
    {
      "channel": 3,
      "note": 81,
      "start": 37.4404,
      "duration": 0.094,
      "velocity": 127,
      "chip": "ym2612"
    },
    {
      "channel": 0,
      "note": 97,
      "start": 37.443,
      "duration": 0.1246,
      "velocity": 108,
      "chip": "ym2612"
    },
    {
      "channel": 1,
      "note": 81,
      "start": 37.5711,
      "duration": 0.0968,
      "velocity": 127,
      "chip": "ym2612"
    },
    {
      "channel": 5,
      "note": 57,
      "start": 37.6876,
      "duration": 0.1303,
      "velocity": 87,
      "chip": "ym2612"
    },
    {
      "channel": 3,
      "note": 81,
      "start": 37.6904,
      "duration": 0.2607,
      "velocity": 127,
      "chip": "ym2612"
    },
    {
      "channel": 0,
      "note": 97,
      "start": 37.693,
      "duration": 0.1081,
      "velocity": 108,
      "chip": "ym2612"
    },
    {
      "channel": 2,
      "note": 44,
      "start": 37.6964,
      "duration": 0.0716,
      "velocity": 119,
      "chip": "ym2612"
    },
    {
      "channel": 1,
      "note": 81,
      "start": 37.8046,
      "duration": 0.2633,
      "velocity": 127,
      "chip": "ym2612"
    },
    {
      "channel": 4,
      "note": 79,
      "start": 37.9045,
      "duration": 0.2635,
      "velocity": 127,
      "chip": "ym2612"
    },
    {
      "channel": 5,
      "note": 50,
      "start": 37.921,
      "duration": 0.2471,
      "velocity": 87,
      "chip": "ym2612"
    },
    {
      "channel": 2,
      "note": 68,
      "start": 37.9242,
      "duration": 0.1272,
      "velocity": 127,
      "chip": "ym2612"
    },
    {
      "channel": 0,
      "note": 97,
      "start": 37.9265,
      "duration": 0.0012,
      "velocity": 108,
      "chip": "ym2612"
    },
    {
      "channel": 0,
      "note": 44,
      "start": 37.9296,
      "duration": 0.1214,
      "velocity": 119,
      "chip": "ym2612"
    },
    {
      "channel": 3,
      "note": 79,
      "start": 38.0213,
      "duration": 0.2633,
      "velocity": 127,
      "chip": "ym2612"
    },
    {
      "channel": 5,
      "note": 52,
      "start": 38.1742,
      "duration": 0.2104,
      "velocity": 87,
      "chip": "ym2612"
    },
    {
      "channel": 2,
      "note": 66,
      "start": 38.1771,
      "duration": 0.1076,
      "velocity": 127,
      "chip": "ym2612"
    },
    {
      "channel": 0,
      "note": 97,
      "start": 38.1798,
      "duration": 0.1046,
      "velocity": 108,
      "chip": "ym2612"
    },
    {
      "channel": 4,
      "note": 76,
      "start": 38.188,
      "duration": 0.1964,
      "velocity": 127,
      "chip": "ym2612"
    },
    {
      "channel": 1,
      "note": 76,
      "start": 38.3045,
      "duration": 0.1968,
      "velocity": 127,
      "chip": "ym2612"
    },
    {
      "channel": 5,
      "note": 55,
      "start": 38.4043,
      "duration": 0.1804,
      "velocity": 87,
      "chip": "ym2612"
    },
    {
      "channel": 4,
      "note": 79,
      "start": 38.4075,
      "duration": 0.0939,
      "velocity": 127,
      "chip": "ym2612"
    },
    {
      "channel": 2,
      "note": 64,
      "start": 38.4103,
      "duration": 0.1246,
      "velocity": 127,
      "chip": "ym2612"
    },
    {
      "channel": 0,
      "note": 97,
      "start": 38.4126,
      "duration": 0.1219,
      "velocity": 108,
      "chip": "ym2612"
    },
    {
      "channel": 1,
      "note": 79,
      "start": 38.5385,
      "duration": 0.0959,
      "velocity": 127,
      "chip": "ym2612"
    },
    {
      "channel": 5,
      "note": 60,
      "start": 38.6542,
      "duration": 0.1636,
      "velocity": 87,
      "chip": "ym2612"
    },
    {
      "channel": 0,
      "note": 97,
      "start": 38.6588,
      "duration": 0.1088,
      "velocity": 108,
      "chip": "ym2612"
    },
    {
      "channel": 3,
      "note": 44,
      "start": 38.6641,
      "duration": 0.1203,
      "velocity": 119,
      "chip": "ym2612"
    },
    {
      "channel": 4,
      "note": 82,
      "start": 38.671,
      "duration": 0.2804,
      "velocity": 127,
      "chip": "ym2612"
    },
    {
      "channel": 1,
      "note": 82,
      "start": 38.7878,
      "duration": 0.2802,
      "velocity": 127,
      "chip": "ym2612"
    },
    {
      "channel": 5,
      "note": 60,
      "start": 38.8882,
      "duration": 0.1631,
      "velocity": 87,
      "chip": "ym2612"
    },
    {
      "channel": 0,
      "note": 97,
      "start": 38.8909,
      "duration": 0.1269,
      "velocity": 108,
      "chip": "ym2612"
    },
    {
      "channel": 2,
      "note": 79,
      "start": 38.9382,
      "duration": 0.1966,
      "velocity": 127,
      "chip": "ym2612"
    },
    {
      "channel": 3,
      "note": 79,
      "start": 39.0551,
      "duration": 0.1962,
      "velocity": 127,
      "chip": "ym2612"
    },
    {
      "channel": 0,
      "note": 97,
      "start": 39.1379,
      "duration": 0.1132,
      "velocity": 108,
      "chip": "ym2612"
    },
    {
      "channel": 4,
      "note": 82,
      "start": 39.1547,
      "duration": 0.1631,
      "velocity": 127,
      "chip": "ym2612"
    },
    {
      "channel": 1,
      "note": 82,
      "start": 39.2712,
      "duration": 0.1631,
      "velocity": 127,
      "chip": "ym2612"
    },
    {
      "channel": 5,
      "note": 60,
      "start": 39.371,
      "duration": 0.1971,
      "velocity": 87,
      "chip": "ym2612"
    },
    {
      "channel": 0,
      "note": 97,
      "start": 39.3737,
      "duration": 0.1275,
      "velocity": 108,
      "chip": "ym2612"
    },
    {
      "channel": 4,
      "note": 84,
      "start": 39.4215,
      "duration": 1.4464,
      "velocity": 127,
      "chip": "ym2612"
    },
    {
      "channel": 1,
      "note": 84,
      "start": 39.5383,
      "duration": 1.4462,
      "velocity": 127,
      "chip": "ym2612"
    },
    {
      "channel": 0,
      "note": 97,
      "start": 39.6212,
      "duration": 0.1133,
      "velocity": 108,
      "chip": "ym2612"
    },
    {
      "channel": 5,
      "note": 60,
      "start": 39.8546,
      "duration": 0.13,
      "velocity": 87,
      "chip": "ym2612"
    },
    {
      "channel": 0,
      "note": 97,
      "start": 39.8573,
      "duration": 0.1271,
      "velocity": 108,
      "chip": "ym2612"
    },
    {
      "channel": 2,
      "note": 44,
      "start": 39.8604,
      "duration": 0.1244,
      "velocity": 119,
      "chip": "ym2612"
    },
    {
      "channel": 5,
      "note": 63,
      "start": 40.1043,
      "duration": 0.2137,
      "velocity": 87,
      "chip": "ym2612"
    },
    {
      "channel": 0,
      "note": 97,
      "start": 40.107,
      "duration": 0.1108,
      "velocity": 108,
      "chip": "ym2612"
    },
    {
      "channel": 5,
      "note": 65,
      "start": 40.3378,
      "duration": 0.1967,
      "velocity": 87,
      "chip": "ym2612"
    },
    {
      "channel": 0,
      "note": 97,
      "start": 40.3405,
      "duration": 0.1272,
      "velocity": 108,
      "chip": "ym2612"
    },
    {
      "channel": 0,
      "note": 97,
      "start": 40.5888,
      "duration": 0.1124,
      "velocity": 108,
      "chip": "ym2612"
    },
    {
      "channel": 2,
      "note": 44,
      "start": 40.5918,
      "duration": 0.1263,
      "velocity": 119,
      "chip": "ym2612"
    },
    {
      "channel": 5,
      "note": 72,
      "start": 40.8227,
      "duration": 0.1452,
      "velocity": 87,
      "chip": "ym2612"
    },
    {
      "channel": 0,
      "note": 97,
      "start": 40.8254,
      "duration": 0.1258,
      "velocity": 108,
      "chip": "ym2612"
    },
    {
      "channel": 3,
      "note": 82,
      "start": 40.8388,
      "duration": 0.1791,
      "velocity": 127,
      "chip": "ym2612"
    },
    {
      "channel": 2,
      "note": 82,
      "start": 40.972,
      "duration": 0.1793,
      "velocity": 127,
      "chip": "ym2612"
    },
    {
      "channel": 5,
      "note": 72,
      "start": 41.0711,
      "duration": 0.1802,
      "velocity": 87,
      "chip": "ym2612"
    },
    {
      "channel": 0,
      "note": 97,
      "start": 41.0738,
      "duration": 0.1106,
      "velocity": 108,
      "chip": "ym2612"
    },
    {
      "channel": 3,
      "note": 79,
      "start": 41.0881,
      "duration": 0.1964,
      "velocity": 127,
      "chip": "ym2612"
    },
    {
      "channel": 1,
      "note": 79,
      "start": 41.2045,
      "duration": 0.1967,
      "velocity": 127,
      "chip": "ym2612"
    },
    {
      "channel": 5,
      "note": 65,
      "start": 41.3046,
      "duration": 0.08,
      "velocity": 87,
      "chip": "ym2612"
    },
    {
      "channel": 3,
      "note": 82,
      "start": 41.3074,
      "duration": 0.1773,
      "velocity": 127,
      "chip": "ym2612"
    },
    {
      "channel": 0,
      "note": 97,
      "start": 41.31,
      "duration": 0.1078,
      "velocity": 108,
      "chip": "ym2612"
    },
    {
      "channel": 1,
      "note": 82,
      "start": 41.4213,
      "duration": 0.1801,
      "velocity": 127,
      "chip": "ym2612"
    },
    {
      "channel": 5,
      "note": 70,
      "start": 41.5543,
      "duration": 0.097,
      "velocity": 87,
      "chip": "ym2612"
    },
    {
      "channel": 3,
      "note": 86,
      "start": 41.5571,
      "duration": 0.294,
      "velocity": 127,
      "chip": "ym2612"
    },
    {
      "channel": 0,
      "note": 97,
      "start": 41.5597,
      "duration": 0.108,
      "velocity": 108,
      "chip": "ym2612"
    },
    {
      "channel": 4,
      "note": 44,
      "start": 41.5628,
      "duration": 0.0884,
      "velocity": 119,
      "chip": "ym2612"
    },
    {
      "channel": 1,
      "note": 86,
      "start": 41.6713,
      "duration": 0.2963,
      "velocity": 127,
      "chip": "ym2612"
    },
    {
      "channel": 5,
      "note": 70,
      "start": 41.7903,
      "duration": 0.0942,
      "velocity": 87,
      "chip": "ym2612"
    },
    {
      "channel": 0,
      "note": 97,
      "start": 41.793,
      "duration": 0.1081,
      "velocity": 108,
      "chip": "ym2612"
    },
    {
      "channel": 4,
      "note": 44,
      "start": 41.7963,
      "duration": 0.1716,
      "velocity": 119,
      "chip": "ym2612"
    },
    {
      "channel": 3,
      "note": 84,
      "start": 41.8711,
      "duration": 0.3801,
      "velocity": 127,
      "chip": "ym2612"
    },
    {
      "channel": 1,
      "note": 84,
      "start": 41.9878,
      "duration": 0.38,
      "velocity": 127,
      "chip": "ym2612"
    },
    {
      "channel": 5,
      "note": 63,
      "start": 42.0377,
      "duration": 0.2137,
      "velocity": 87,
      "chip": "ym2612"
    },
    {
      "channel": 0,
      "note": 97,
      "start": 42.0404,
      "duration": 0.1107,
      "velocity": 108,
      "chip": "ym2612"
    },
    {
      "channel": 5,
      "note": 65,
      "start": 42.2712,
      "duration": 0.1467,
      "velocity": 87,
      "chip": "ym2612"
    },
    {
      "channel": 3,
      "note": 82,
      "start": 42.2744,
      "duration": 0.0935,
      "velocity": 127,
      "chip": "ym2612"
    },
    {
      "channel": 0,
      "note": 97,
      "start": 42.277,
      "duration": 0.1074,
      "velocity": 108,
      "chip": "ym2612"
    },
    {
      "channel": 4,
      "note": 44,
      "start": 42.2799,
      "duration": 0.0713,
      "velocity": 119,
      "chip": "ym2612"
    },
    {
      "channel": 1,
      "note": 82,
      "start": 42.3883,
      "duration": 0.096,
      "velocity": 127,
      "chip": "ym2612"
    },
    {
      "channel": 5,
      "note": 60,
      "start": 42.5212,
      "duration": 0.1466,
      "velocity": 87,
      "chip": "ym2612"
    },
    {
      "channel": 0,
      "note": 97,
      "start": 42.5249,
      "duration": 0.1095,
      "velocity": 108,
      "chip": "ym2612"
    },
    {
      "channel": 4,
      "note": 44,
      "start": 42.5279,
      "duration": 0.0901,
      "velocity": 119,
      "chip": "ym2612"
    },
    {
      "channel": 3,
      "note": 82,
      "start": 42.5379,
      "duration": 0.1964,
      "velocity": 127,
      "chip": "ym2612"
    },
    {
      "channel": 1,
      "note": 82,
      "start": 42.6547,
      "duration": 0.1965,
      "velocity": 127,
      "chip": "ym2612"
    },
    {
      "channel": 5,
      "note": 60,
      "start": 42.7547,
      "duration": 0.1966,
      "velocity": 87,
      "chip": "ym2612"
    },
    {
      "channel": 3,
      "note": 79,
      "start": 42.7575,
      "duration": 0.2105,
      "velocity": 127,
      "chip": "ym2612"
    },
    {
      "channel": 0,
      "note": 97,
      "start": 42.7601,
      "duration": 0.1078,
      "velocity": 108,
      "chip": "ym2612"
    },
    {
      "channel": 1,
      "note": 79,
      "start": 42.8726,
      "duration": 0.2286,
      "velocity": 127,
      "chip": "ym2612"
    },
    {
      "channel": 3,
      "note": 82,
      "start": 43.0045,
      "duration": 0.13,
      "velocity": 127,
      "chip": "ym2612"
    },
    {
      "channel": 0,
      "note": 97,
      "start": 43.0071,
      "duration": 0.1107,
      "velocity": 108,
      "chip": "ym2612"
    },
    {
      "channel": 1,
      "note": 82,
      "start": 43.1214,
      "duration": 0.1298,
      "velocity": 127,
      "chip": "ym2612"
    },
    {
      "channel": 5,
      "note": 58,
      "start": 43.2376,
      "duration": 0.2139,
      "velocity": 87,
      "chip": "ym2612"
    },
    {
      "channel": 0,
      "note": 97,
      "start": 43.2403,
      "duration": 0.1109,
      "velocity": 108,
      "chip": "ym2612"
    },
    {
      "channel": 4,
      "note": 44,
      "start": 43.2432,
      "duration": 0.1082,
      "velocity": 119,
      "chip": "ym2612"
    },
    {
      "channel": 3,
      "note": 84,
      "start": 43.2546,
      "duration": 0.33,
      "velocity": 127,
      "chip": "ym2612"
    },
    {
      "channel": 1,
      "note": 84,
      "start": 43.388,
      "duration": 0.3133,
      "velocity": 127,
      "chip": "ym2612"
    },
    {
      "channel": 0,
      "note": 97,
      "start": 43.4879,
      "duration": 0.1131,
      "velocity": 108,
      "chip": "ym2612"
    },
    {
      "channel": 3,
      "note": 82,
      "start": 43.7072,
      "duration": 0.1772,
      "velocity": 127,
      "chip": "ym2612"
    },
    {
      "channel": 5,
      "note": 55,
      "start": 43.7218,
      "duration": 0.1461,
      "velocity": 87,
      "chip": "ym2612"
    },
    {
      "channel": 0,
      "note": 97,
      "start": 43.7245,
      "duration": 0.1099,
      "velocity": 108,
      "chip": "ym2612"
    },
    {
      "channel": 1,
      "note": 82,
      "start": 43.8215,
      "duration": 0.1796,
      "velocity": 127,
      "chip": "ym2612"
    },
    {
      "channel": 5,
      "note": 63,
      "start": 43.971,
      "duration": 0.097,
      "velocity": 87,
      "chip": "ym2612"
    },
    {
      "channel": 0,
      "note": 97,
      "start": 43.9737,
      "duration": 0.1108,
      "velocity": 108,
      "chip": "ym2612"
    },
    {
      "channel": 3,
      "note": 79,
      "start": 43.9879,
      "duration": 0.0967,
      "velocity": 127,
      "chip": "ym2612"
    },
    {
      "channel": 1,
      "note": 79,
      "start": 44.1046,
      "duration": 0.0964,
      "velocity": 127,
      "chip": "ym2612"
    },
    {
      "channel": 5,
      "note": 63,
      "start": 44.2044,
      "duration": 0.1968,
      "velocity": 87,
      "chip": "ym2612"
    },
    {
      "channel": 0,
      "note": 97,
      "start": 44.2071,
      "duration": 0.1106,
      "velocity": 108,
      "chip": "ym2612"
    },
    {
      "channel": 4,
      "note": 44,
      "start": 44.2101,
      "duration": 0.091,
      "velocity": 119,
      "chip": "ym2612"
    },
    {
      "channel": 3,
      "note": 82,
      "start": 44.2214,
      "duration": 1.413,
      "velocity": 127,
      "chip": "ym2612"
    },
    {
      "channel": 1,
      "note": 82,
      "start": 44.3549,
      "duration": 1.3962,
      "velocity": 127,
      "chip": "ym2612"
    },
    {
      "channel": 0,
      "note": 97,
      "start": 44.4567,
      "duration": 0.1112,
      "velocity": 108,
      "chip": "ym2612"
    },
    {
      "channel": 4,
      "note": 44,
      "start": 44.4595,
      "duration": 0.0918,
      "velocity": 119,
      "chip": "ym2612"
    },
    {
      "channel": 5,
      "note": 63,
      "start": 44.6878,
      "duration": 0.1137,
      "velocity": 87,
      "chip": "ym2612"
    },
    {
      "channel": 0,
      "note": 97,
      "start": 44.6905,
      "duration": 0.1108,
      "velocity": 108,
      "chip": "ym2612"
    },
    {
      "channel": 5,
      "note": 62,
      "start": 44.9412,
      "duration": 0.1601,
      "velocity": 87,
      "chip": "ym2612"
    },
    {
      "channel": 0,
      "note": 97,
      "start": 44.9439,
      "duration": 0.1072,
      "velocity": 108,
      "chip": "ym2612"
    },
    {
      "channel": 5,
      "note": 58,
      "start": 45.1711,
      "duration": 0.1468,
      "velocity": 87,
      "chip": "ym2612"
    },
    {
      "channel": 0,
      "note": 97,
      "start": 45.1738,
      "duration": 0.1105,
      "velocity": 108,
      "chip": "ym2612"
    },
    {
      "channel": 5,
      "note": 60,
      "start": 45.421,
      "duration": 0.1302,
      "velocity": 87,
      "chip": "ym2612"
    },
    {
      "channel": 0,
      "note": 97,
      "start": 45.4237,
      "duration": 0.1107,
      "velocity": 108,
      "chip": "ym2612"
    },
    {
      "channel": 4,
      "note": 44,
      "start": 45.427,
      "duration": 0.0577,
      "velocity": 119,
      "chip": "ym2612"
    },
    {
      "channel": 5,
      "note": 53,
      "start": 45.6547,
      "duration": 0.2467,
      "velocity": 87,
      "chip": "ym2612"
    },
    {
      "channel": 2,
      "note": 68,
      "start": 45.6579,
      "duration": 0.1101,
      "velocity": 127,
      "chip": "ym2612"
    },
    {
      "channel": 0,
      "note": 97,
      "start": 45.6603,
      "duration": 0.1073,
      "velocity": 108,
      "chip": "ym2612"
    },
    {
      "channel": 4,
      "note": 44,
      "start": 45.6632,
      "duration": 0.1046,
      "velocity": 119,
      "chip": "ym2612"
    },
    {
      "channel": 5,
      "note": 55,
      "start": 45.9076,
      "duration": 0.2103,
      "velocity": 87,
      "chip": "ym2612"
    },
    {
      "channel": 2,
      "note": 66,
      "start": 45.9105,
      "duration": 0.1075,
      "velocity": 127,
      "chip": "ym2612"
    },
    {
      "channel": 0,
      "note": 97,
      "start": 45.9129,
      "duration": 0.1048,
      "velocity": 108,
      "chip": "ym2612"
    },
    {
      "channel": 5,
      "note": 58,
      "start": 46.1377,
      "duration": 0.1803,
      "velocity": 87,
      "chip": "ym2612"
    },
    {
      "channel": 2,
      "note": 64,
      "start": 46.1406,
      "duration": 0.1109,
      "velocity": 127,
      "chip": "ym2612"
    },
    {
      "channel": 0,
      "note": 97,
      "start": 46.1429,
      "duration": 0.1082,
      "velocity": 108,
      "chip": "ym2612"
    }
  ]
}