{
  "track_name": "09 - Continue",
  "duration_sec": 13.104,
  "sample_rate": 44100,
  "note_count": 137,
  "unique_pitches": 13,
  "pitch_range": 90,
  "avg_note_duration": 0.2248,
  "reconstruction_stats": {
    "notes_reconstructed": 137,
    "keyon_events": 137,
    "keyoff_events": 135,
    "orphan_keyons": 2,
    "unique_pitches": 13,
    "pitch_range": 90,
    "avg_duration_sec": 0.2248
  },
  "metadata": {
    "source": "D\\Dr. Robotnik's Mean Bean Machine\\09 - Continue.vgz"
  },
  "notes": [
    {
      "channel": 0,
      "note": 81,
      "start": 0.0,
      "duration": 0.0233,
      "velocity": 92,
      "chip": "ym2612"
    },
    {
      "channel": 1,
      "note": 78,
      "start": 0.0031,
      "duration": 0.0205,
      "velocity": 92,
      "chip": "ym2612"
    },
    {
      "channel": 2,
      "note": 59,
      "start": 0.0072,
      "duration": 0.2719,
      "velocity": 115,
      "chip": "ym2612"
    },
    {
      "channel": 4,
      "note": 0,
      "start": 0.1706,
      "duration": 0.076,
      "velocity": 92,
      "chip": "ym2612"
    },
    {
      "channel": 0,
      "note": 81,
      "start": 0.2954,
      "duration": 0.232,
      "velocity": 92,
      "chip": "ym2612"
    },
    {
      "channel": 1,
      "note": 78,
      "start": 0.2959,
      "duration": 0.2318,
      "velocity": 92,
      "chip": "ym2612"
    },
    {
      "channel": 2,
      "note": 61,
      "start": 0.2964,
      "duration": 0.1295,
      "velocity": 115,
      "chip": "ym2612"
    },
    {
      "channel": 4,
      "note": 81,
      "start": 0.3489,
      "duration": 0.4049,
      "velocity": 92,
      "chip": "ym2612"
    },
    {
      "channel": 2,
      "note": 54,
      "start": 0.4426,
      "duration": 0.0854,
      "velocity": 115,
      "chip": "ym2612"
    },
    {
      "channel": 0,
      "note": 81,
      "start": 0.5441,
      "duration": 0.2086,
      "velocity": 92,
      "chip": "ym2612"
    },
    {
      "channel": 1,
      "note": 78,
      "start": 0.5446,
      "duration": 0.2083,
      "velocity": 92,
      "chip": "ym2612"
    },
    {
      "channel": 2,
      "note": 54,
      "start": 0.5451,
      "duration": 0.1814,
      "velocity": 115,
      "chip": "ym2612"
    },
    {
      "channel": 2,
      "note": 54,
      "start": 0.7432,
      "duration": 0.0367,
      "velocity": 115,
      "chip": "ym2612"
    },
    {
      "channel": 4,
      "note": 81,
      "start": 0.7576,
      "duration": 0.0498,
      "velocity": 92,
      "chip": "ym2612"
    },
    {
      "channel": 0,
      "note": 81,
      "start": 0.7827,
      "duration": 0.0235,
      "velocity": 92,
      "chip": "ym2612"
    },
    {
      "channel": 1,
      "note": 76,
      "start": 0.7832,
      "duration": 0.0233,
      "velocity": 92,
      "chip": "ym2612"
    },
    {
      "channel": 2,
      "note": 59,
      "start": 0.7838,
      "duration": 0.1913,
      "velocity": 115,
      "chip": "ym2612"
    },
    {
      "channel": 4,
      "note": 81,
      "start": 0.9034,
      "duration": 0.0723,
      "velocity": 92,
      "chip": "ym2612"
    },
    {
      "channel": 0,
      "note": 81,
      "start": 0.9914,
      "duration": 0.7253,
      "velocity": 92,
      "chip": "ym2612"
    },
    {
      "channel": 1,
      "note": 76,
      "start": 0.9918,
      "duration": 0.7251,
      "velocity": 92,
      "chip": "ym2612"
    },
    {
      "channel": 2,
      "note": 61,
      "start": 0.9923,
      "duration": 0.2345,
      "velocity": 115,
      "chip": "ym2612"
    },
    {
      "channel": 4,
      "note": 81,
      "start": 1.2041,
      "duration": 0.6688,
      "velocity": 92,
      "chip": "ym2612"
    },
    {
      "channel": 2,
      "note": 54,
      "start": 1.2302,
      "duration": 0.0916,
      "velocity": 115,
      "chip": "ym2612"
    },
    {
      "channel": 2,
      "note": 66,
      "start": 1.3388,
      "duration": 0.0849,
      "velocity": 115,
      "chip": "ym2612"
    },
    {
      "channel": 3,
      "note": 0,
      "start": 1.3443,
      "duration": 0.0163,
      "velocity": 102,
      "chip": "ym2612"
    },
    {
      "channel": 3,
      "note": 78,
      "start": 1.3642,
      "duration": 0.0598,
      "velocity": 102,
      "chip": "ym2612"
    },
    {
      "channel": 2,
      "note": 64,
      "start": 1.4405,
      "duration": 0.182,
      "velocity": 115,
      "chip": "ym2612"
    },
    {
      "channel": 3,
      "note": 90,
      "start": 1.441,
      "duration": 0.0823,
      "velocity": 102,
      "chip": "ym2612"
    },
    {
      "channel": 3,
      "note": 78,
      "start": 1.5401,
      "duration": 0.0827,
      "velocity": 102,
      "chip": "ym2612"
    },
    {
      "channel": 2,
      "note": 61,
      "start": 1.6391,
      "duration": 0.0374,
      "velocity": 115,
      "chip": "ym2612"
    },
    {
      "channel": 3,
      "note": 90,
      "start": 1.6398,
      "duration": 0.0168,
      "velocity": 102,
      "chip": "ym2612"
    },
    {
      "channel": 3,
      "note": 78,
      "start": 1.6603,
      "duration": 0.0165,
      "velocity": 102,
      "chip": "ym2612"
    },
    {
      "channel": 2,
      "note": 57,
      "start": 1.6802,
      "duration": 0.0371,
      "velocity": 115,
      "chip": "ym2612"
    },
    {
      "channel": 3,
      "note": 90,
      "start": 1.6807,
      "duration": 0.0168,
      "velocity": 102,
      "chip": "ym2612"
    },
    {
      "channel": 3,
      "note": 78,
      "start": 1.701,
      "duration": 0.0166,
      "velocity": 102,
      "chip": "ym2612"
    },
    {
      "channel": 0,
      "note": 80,
      "start": 1.7205,
      "duration": 0.0179,
      "velocity": 92,
      "chip": "ym2612"
    },
    {
      "channel": 1,
      "note": 76,
      "start": 1.7211,
      "duration": 0.0176,
      "velocity": 92,
      "chip": "ym2612"
    },
    {
      "channel": 2,
      "note": 59,
      "start": 1.7216,
      "duration": 0.2833,
      "velocity": 115,
      "chip": "ym2612"
    },
    {
      "channel": 4,
      "note": 81,
      "start": 1.8897,
      "duration": 0.0826,
      "velocity": 92,
      "chip": "ym2612"
    },
    {
      "channel": 0,
      "note": 80,
      "start": 2.0211,
      "duration": 0.2318,
      "velocity": 92,
      "chip": "ym2612"
    },
    {
      "channel": 1,
      "note": 76,
      "start": 2.0215,
      "duration": 0.1295,
      "velocity": 92,
      "chip": "ym2612"
    },
    {
      "channel": 2,
      "note": 61,
      "start": 2.022,
      "duration": 0.1293,
      "velocity": 115,
      "chip": "ym2612"
    },
    {
      "channel": 4,
      "note": 80,
      "start": 2.0745,
      "duration": 0.4049,
      "velocity": 92,
      "chip": "ym2612"
    },
    {
      "channel": 1,
      "note": 76,
      "start": 2.1678,
      "duration": 0.0071,
      "velocity": 92,
      "chip": "ym2612"
    },
    {
      "channel": 2,
      "note": 54,
      "start": 2.1683,
      "duration": 0.0851,
      "velocity": 115,
      "chip": "ym2612"
    },
    {
      "channel": 0,
      "note": 80,
      "start": 2.2696,
      "duration": 0.2087,
      "velocity": 92,
      "chip": "ym2612"
    },
    {
      "channel": 1,
      "note": 76,
      "start": 2.2701,
      "duration": 0.2118,
      "velocity": 92,
      "chip": "ym2612"
    },
    {
      "channel": 2,
      "note": 54,
      "start": 2.2706,
      "duration": 0.1813,
      "velocity": 115,
      "chip": "ym2612"
    },
    {
      "channel": 2,
      "note": 54,
      "start": 2.4686,
      "duration": 0.0368,
      "velocity": 115,
      "chip": "ym2612"
    },
    {
      "channel": 4,
      "note": 80,
      "start": 2.483,
      "duration": 0.0515,
      "velocity": 92,
      "chip": "ym2612"
    },
    {
      "channel": 0,
      "note": 81,
      "start": 2.5084,
      "duration": 0.0251,
      "velocity": 92,
      "chip": "ym2612"
    },
    {
      "channel": 1,
      "note": 76,
      "start": 2.5089,
      "duration": 0.0908,
      "velocity": 92,
      "chip": "ym2612"
    },
    {
      "channel": 2,
      "note": 59,
      "start": 2.5094,
      "duration": 0.1924,
      "velocity": 115,
      "chip": "ym2612"
    },
    {
      "channel": 4,
      "note": 80,
      "start": 2.6311,
      "duration": 0.0714,
      "velocity": 92,
      "chip": "ym2612"
    },
    {
      "channel": 0,
      "note": 81,
      "start": 2.7181,
      "duration": 0.5662,
      "velocity": 92,
      "chip": "ym2612"
    },
    {
      "channel": 1,
      "note": 76,
      "start": 2.7186,
      "duration": 0.5659,
      "velocity": 92,
      "chip": "ym2612"
    },
    {
      "channel": 2,
      "note": 61,
      "start": 2.7191,
      "duration": 0.2344,
      "velocity": 115,
      "chip": "ym2612"
    },
    {
      "channel": 4,
      "note": 81,
      "start": 2.9308,
      "duration": 0.5099,
      "velocity": 92,
      "chip": "ym2612"
    },
    {
      "channel": 2,
      "note": 54,
      "start": 2.957,
      "duration": 0.0098,
      "velocity": 115,
      "chip": "ym2612"
    },
    {
      "channel": 2,
      "note": 52,
      "start": 3.0638,
      "duration": 0.0854,
      "velocity": 115,
      "chip": "ym2612"
    },
    {
      "channel": 3,
      "note": 90,
      "start": 3.0705,
      "duration": 0.0158,
      "velocity": 102,
      "chip": "ym2612"
    },
    {
      "channel": 3,
      "note": 78,
      "start": 3.09,
      "duration": 0.0595,
      "velocity": 102,
      "chip": "ym2612"
    },
    {
      "channel": 2,
      "note": 52,
      "start": 3.1659,
      "duration": 0.0374,
      "velocity": 115,
      "chip": "ym2612"
    },
    {
      "channel": 3,
      "note": 90,
      "start": 3.1665,
      "duration": 0.0171,
      "velocity": 102,
      "chip": "ym2612"
    },
    {
      "channel": 3,
      "note": 78,
      "start": 3.1871,
      "duration": 0.0165,
      "velocity": 102,
      "chip": "ym2612"
    },
    {
      "channel": 2,
      "note": 57,
      "start": 3.2069,
      "duration": 0.0374,
      "velocity": 115,
      "chip": "ym2612"
    },
    {
      "channel": 3,
      "note": 90,
      "start": 3.2076,
      "duration": 0.0168,
      "velocity": 102,
      "chip": "ym2612"
    },
    {
      "channel": 3,
      "note": 78,
      "start": 3.2279,
      "duration": 0.0167,
      "velocity": 102,
      "chip": "ym2612"
    },
    {
      "channel": 2,
      "note": 57,
      "start": 3.2478,
      "duration": 0.0371,
      "velocity": 115,
      "chip": "ym2612"
    },
    {
      "channel": 3,
      "note": 90,
      "start": 3.2484,
      "duration": 0.0167,
      "velocity": 102,
      "chip": "ym2612"
    },
    {
      "channel": 3,
      "note": 78,
      "start": 3.2687,
      "duration": 0.0165,
      "velocity": 102,
      "chip": "ym2612"
    },
    {
      "channel": 0,
      "note": 81,
      "start": 3.292,
      "duration": 0.0254,
      "velocity": 92,
      "chip": "ym2612"
    },
    {
      "channel": 1,
      "note": 78,
      "start": 3.2964,
      "duration": 0.0213,
      "velocity": 92,
      "chip": "ym2612"
    },
    {
      "channel": 2,
      "note": 59,
      "start": 3.3017,
      "duration": 0.271,
      "velocity": 115,
      "chip": "ym2612"
    },
    {
      "channel": 0,
      "note": 81,
      "start": 3.5888,
      "duration": 0.2329,
      "velocity": 92,
      "chip": "ym2612"
    },
    {
      "channel": 1,
      "note": 78,
      "start": 3.5893,
      "duration": 0.2327,
      "velocity": 92,
      "chip": "ym2612"
    },
    {
      "channel": 2,
      "note": 61,
      "start": 3.5898,
      "duration": 0.1307,
      "velocity": 115,
      "chip": "ym2612"
    },
    {
      "channel": 2,
      "note": 54,
      "start": 3.7373,
      "duration": 0.085,
      "velocity": 115,
      "chip": "ym2612"
    },
    {
      "channel": 0,
      "note": 81,
      "start": 3.8385,
      "duration": 0.2079,
      "velocity": 92,
      "chip": "ym2612"
    },
    {
      "channel": 1,
      "note": 78,
      "start": 3.839,
      "duration": 0.2077,
      "velocity": 92,
      "chip": "ym2612"
    },
    {
      "channel": 2,
      "note": 54,
      "start": 3.8395,
      "duration": 0.1813,
      "velocity": 115,
      "chip": "ym2612"
    },
    {
      "channel": 2,
      "note": 54,
      "start": 4.0376,
      "duration": 0.0338,
      "velocity": 115,
      "chip": "ym2612"
    },
    {
      "channel": 0,
      "note": 81,
      "start": 4.0741,
      "duration": 0.0266,
      "velocity": 92,
      "chip": "ym2612"
    },
    {
      "channel": 1,
      "note": 76,
      "start": 4.0746,
      "duration": 0.0265,
      "velocity": 92,
      "chip": "ym2612"
    },
    {
      "channel": 2,
      "note": 59,
      "start": 4.0751,
      "duration": 0.1946,
      "velocity": 115,
      "chip": "ym2612"
    },
    {
      "channel": 0,
      "note": 81,
      "start": 4.2859,
      "duration": 0.719,
      "velocity": 92,
      "chip": "ym2612"
    },
    {
      "channel": 1,
      "note": 76,
      "start": 4.2864,
      "duration": 0.7188,
      "velocity": 92,
      "chip": "ym2612"
    },
    {
      "channel": 2,
      "note": 61,
      "start": 4.2869,
      "duration": 0.2316,
      "velocity": 115,
      "chip": "ym2612"
    },
    {
      "channel": 2,
      "note": 54,
      "start": 4.5218,
      "duration": 0.0932,
      "velocity": 115,
      "chip": "ym2612"
    },
    {
      "channel": 2,
      "note": 66,
      "start": 4.6317,
      "duration": 0.0852,
      "velocity": 115,
      "chip": "ym2612"
    },
    {
      "channel": 3,
      "note": 90,
      "start": 4.6373,
      "duration": 0.0156,
      "velocity": 102,
      "chip": "ym2612"
    },
    {
      "channel": 3,
      "note": 78,
      "start": 4.6561,
      "duration": 0.0612,
      "velocity": 102,
      "chip": "ym2612"
    },
    {
      "channel": 2,
      "note": 64,
      "start": 4.7337,
      "duration": 0.182,
      "velocity": 115,
      "chip": "ym2612"
    },
    {
      "channel": 3,
      "note": 90,
      "start": 4.7343,
      "duration": 0.0822,
      "velocity": 102,
      "chip": "ym2612"
    },
    {
      "channel": 3,
      "note": 78,
      "start": 4.8333,
      "duration": 0.0826,
      "velocity": 102,
      "chip": "ym2612"
    },
    {
      "channel": 2,
      "note": 61,
      "start": 4.9324,
      "duration": 0.0347,
      "velocity": 115,
      "chip": "ym2612"
    },
    {
      "channel": 3,
      "note": 90,
      "start": 4.933,
      "duration": 0.0157,
      "velocity": 102,
      "chip": "ym2612"
    },
    {
      "channel": 3,
      "note": 78,
      "start": 4.952,
      "duration": 0.0153,
      "velocity": 102,
      "chip": "ym2612"
    },
    {
      "channel": 2,
      "note": 57,
      "start": 4.9707,
      "duration": 0.0347,
      "velocity": 115,
      "chip": "ym2612"
    },
    {
      "channel": 3,
      "note": 90,
      "start": 4.9713,
      "duration": 0.0154,
      "velocity": 102,
      "chip": "ym2612"
    },
    {
      "channel": 3,
      "note": 78,
      "start": 4.99,
      "duration": 0.0158,
      "velocity": 102,
      "chip": "ym2612"
    },
    {
      "channel": 0,
      "note": 80,
      "start": 5.0084,
      "duration": 0.016,
      "velocity": 92,
      "chip": "ym2612"
    },
    {
      "channel": 1,
      "note": 76,
      "start": 5.0089,
      "duration": 0.0157,
      "velocity": 92,
      "chip": "ym2612"
    },
    {
      "channel": 2,
      "note": 59,
      "start": 5.0094,
      "duration": 0.2832,
      "velocity": 115,
      "chip": "ym2612"
    },
    {
      "channel": 0,
      "note": 80,
      "start": 5.3088,
      "duration": 0.2323,
      "velocity": 92,
      "chip": "ym2612"
    },
    {
      "channel": 1,
      "note": 76,
      "start": 5.3093,
      "duration": 0.1298,
      "velocity": 92,
      "chip": "ym2612"
    },
    {
      "channel": 2,
      "note": 61,
      "start": 5.3098,
      "duration": 0.1296,
      "velocity": 115,
      "chip": "ym2612"
    },
    {
      "channel": 1,
      "note": 76,
      "start": 5.4558,
      "duration": 0.0068,
      "velocity": 92,
      "chip": "ym2612"
    },
    {
      "channel": 2,
      "note": 54,
      "start": 5.4563,
      "duration": 0.0852,
      "velocity": 115,
      "chip": "ym2612"
    },
    {
      "channel": 0,
      "note": 80,
      "start": 5.5578,
      "duration": 0.2079,
      "velocity": 92,
      "chip": "ym2612"
    },
    {
      "channel": 1,
      "note": 76,
      "start": 5.5583,
      "duration": 0.2107,
      "velocity": 92,
      "chip": "ym2612"
    },
    {
      "channel": 2,
      "note": 54,
      "start": 5.5588,
      "duration": 0.1813,
      "velocity": 115,
      "chip": "ym2612"
    },
    {
      "channel": 2,
      "note": 54,
      "start": 5.7568,
      "duration": 0.0337,
      "velocity": 115,
      "chip": "ym2612"
    },
    {
      "channel": 0,
      "note": 81,
      "start": 5.7933,
      "duration": 0.0267,
      "velocity": 92,
      "chip": "ym2612"
    },
    {
      "channel": 1,
      "note": 76,
      "start": 5.7938,
      "duration": 0.0927,
      "velocity": 92,
      "chip": "ym2612"
    },
    {
      "channel": 2,
      "note": 59,
      "start": 5.7943,
      "duration": 0.1946,
      "velocity": 115,
      "chip": "ym2612"
    },
    {
      "channel": 0,
      "note": 81,
      "start": 6.0051,
      "duration": 0.3912,
      "velocity": 92,
      "chip": "ym2612"
    },
    {
      "channel": 1,
      "note": 76,
      "start": 6.0056,
      "duration": 0.3909,
      "velocity": 92,
      "chip": "ym2612"
    },
    {
      "channel": 2,
      "note": 61,
      "start": 6.0061,
      "duration": 0.1229,
      "velocity": 115,
      "chip": "ym2612"
    },
    {
      "channel": 2,
      "note": 54,
      "start": 6.1458,
      "duration": 0.0095,
      "velocity": 115,
      "chip": "ym2612"
    },
    {
      "channel": 2,
      "note": 52,
      "start": 6.1837,
      "duration": 0.085,
      "velocity": 115,
      "chip": "ym2612"
    },
    {
      "channel": 3,
      "note": 90,
      "start": 6.1893,
      "duration": 0.0162,
      "velocity": 102,
      "chip": "ym2612"
    },
    {
      "channel": 3,
      "note": 78,
      "start": 6.2089,
      "duration": 0.0601,
      "velocity": 102,
      "chip": "ym2612"
    },
    {
      "channel": 2,
      "note": 52,
      "start": 6.2855,
      "duration": 0.0356,
      "velocity": 115,
      "chip": "ym2612"
    },
    {
      "channel": 3,
      "note": 90,
      "start": 6.2873,
      "duration": 0.0153,
      "velocity": 102,
      "chip": "ym2612"
    },
    {
      "channel": 3,
      "note": 78,
      "start": 6.306,
      "duration": 0.0154,
      "velocity": 102,
      "chip": "ym2612"
    },
    {
      "channel": 2,
      "note": 57,
      "start": 6.3245,
      "duration": 0.0347,
      "velocity": 115,
      "chip": "ym2612"
    },
    {
      "channel": 3,
      "note": 90,
      "start": 6.3252,
      "duration": 0.0157,
      "velocity": 102,
      "chip": "ym2612"
    },
    {
      "channel": 3,
      "note": 78,
      "start": 6.3442,
      "duration": 0.0153,
      "velocity": 102,
      "chip": "ym2612"
    },
    {
      "channel": 2,
      "note": 57,
      "start": 6.3625,
      "duration": 0.0343,
      "velocity": 115,
      "chip": "ym2612"
    },
    {
      "channel": 3,
      "note": 90,
      "start": 6.3631,
      "duration": 0.0155,
      "velocity": 102,
      "chip": "ym2612"
    },
    {
      "channel": 3,
      "note": 78,
      "start": 6.3818,
      "duration": 0.0153,
      "velocity": 102,
      "chip": "ym2612"
    },
    {
      "channel": 0,
      "note": 81,
      "start": 6.4039,
      "duration": 0.0241,
      "velocity": 92,
      "chip": "ym2612"
    },
    {
      "channel": 1,
      "note": 78,
      "start": 6.4093,
      "duration": 0.0189,
      "velocity": 92,
      "chip": "ym2612"
    },
    {
      "channel": 2,
      "note": 59,
      "start": 6.4135,
      "duration": 0.2711,
      "velocity": 115,
      "chip": "ym2612"
    },
    {
      "channel": 0,
      "note": 81,
      "start": 6.7008,
      "duration": 6.4037,
      "velocity": 92,
      "chip": "ym2612"
    },
    {
      "channel": 1,
      "note": 78,
      "start": 6.7013,
      "duration": 6.4032,
      "velocity": 92,
      "chip": "ym2612"
    }
  ]
}