{
  "track_name": "09 - Gigantic Battleship",
  "duration_sec": 42.236,
  "sample_rate": 44100,
  "note_count": 1029,
  "unique_pitches": 26,
  "pitch_range": 43,
  "avg_note_duration": 0.2138,
  "reconstruction_stats": {
    "notes_reconstructed": 1029,
    "keyon_events": 1029,
    "keyoff_events": 1025,
    "orphan_keyons": 4,
    "unique_pitches": 26,
    "pitch_range": 43,
    "avg_duration_sec": 0.2138
  },
  "metadata": {
    "source": "W\\Whip Rush\\09 - Gigantic Battleship.vgz"
  },
  "notes": [
    {
      "channel": 1,
      "note": 54,
      "start": 0.0,
      "duration": 0.2024,
      "velocity": 95,
      "chip": "ym2612"
    },
    {
      "channel": 3,
      "note": 54,
      "start": 0.0033,
      "duration": 0.1999,
      "velocity": 91,
      "chip": "ym2612"
    },
    {
      "channel": 2,
      "note": 37,
      "start": 0.0049,
      "duration": 0.1052,
      "velocity": 120,
      "chip": "ym2612"
    },
    {
      "channel": 5,
      "note": 54,
      "start": 0.0585,
      "duration": 0.2145,
      "velocity": 95,
      "chip": "ym2612"
    },
    {
      "channel": 1,
      "note": 53,
      "start": 0.2031,
      "duration": 0.2174,
      "velocity": 95,
      "chip": "ym2612"
    },
    {
      "channel": 3,
      "note": 53,
      "start": 0.2038,
      "duration": 0.2174,
      "velocity": 91,
      "chip": "ym2612"
    },
    {
      "channel": 2,
      "note": 56,
      "start": 0.2049,
      "duration": 0.1036,
      "velocity": 116,
      "chip": "ym2612"
    },
    {
      "channel": 5,
      "note": 53,
      "start": 0.2736,
      "duration": 0.2173,
      "velocity": 95,
      "chip": "ym2612"
    },
    {
      "channel": 2,
      "note": 56,
      "start": 0.3131,
      "duration": 0.1044,
      "velocity": 116,
      "chip": "ym2612"
    },
    {
      "channel": 1,
      "note": 57,
      "start": 0.4211,
      "duration": 0.2171,
      "velocity": 95,
      "chip": "ym2612"
    },
    {
      "channel": 3,
      "note": 57,
      "start": 0.4218,
      "duration": 0.2171,
      "velocity": 91,
      "chip": "ym2612"
    },
    {
      "channel": 2,
      "note": 37,
      "start": 0.4229,
      "duration": 0.1228,
      "velocity": 120,
      "chip": "ym2612"
    },
    {
      "channel": 5,
      "note": 57,
      "start": 0.4915,
      "duration": 0.2173,
      "velocity": 95,
      "chip": "ym2612"
    },
    {
      "channel": 1,
      "note": 56,
      "start": 0.6388,
      "duration": 0.2198,
      "velocity": 95,
      "chip": "ym2612"
    },
    {
      "channel": 3,
      "note": 56,
      "start": 0.6395,
      "duration": 0.2225,
      "velocity": 91,
      "chip": "ym2612"
    },
    {
      "channel": 2,
      "note": 56,
      "start": 0.6406,
      "duration": 0.1036,
      "velocity": 116,
      "chip": "ym2612"
    },
    {
      "channel": 5,
      "note": 56,
      "start": 0.7093,
      "duration": 0.2198,
      "velocity": 95,
      "chip": "ym2612"
    },
    {
      "channel": 2,
      "note": 56,
      "start": 0.7488,
      "duration": 0.1044,
      "velocity": 116,
      "chip": "ym2612"
    },
    {
      "channel": 1,
      "note": 54,
      "start": 0.8592,
      "duration": 0.2145,
      "velocity": 95,
      "chip": "ym2612"
    },
    {
      "channel": 3,
      "note": 54,
      "start": 0.8626,
      "duration": 0.2118,
      "velocity": 91,
      "chip": "ym2612"
    },
    {
      "channel": 2,
      "note": 37,
      "start": 0.8637,
      "duration": 0.1177,
      "velocity": 120,
      "chip": "ym2612"
    },
    {
      "channel": 5,
      "note": 54,
      "start": 0.9298,
      "duration": 0.2145,
      "velocity": 95,
      "chip": "ym2612"
    },
    {
      "channel": 1,
      "note": 53,
      "start": 1.0743,
      "duration": 0.2174,
      "velocity": 95,
      "chip": "ym2612"
    },
    {
      "channel": 3,
      "note": 53,
      "start": 1.075,
      "duration": 0.2174,
      "velocity": 91,
      "chip": "ym2612"
    },
    {
      "channel": 2,
      "note": 56,
      "start": 1.0761,
      "duration": 0.1036,
      "velocity": 116,
      "chip": "ym2612"
    },
    {
      "channel": 5,
      "note": 53,
      "start": 1.1449,
      "duration": 0.2173,
      "velocity": 95,
      "chip": "ym2612"
    },
    {
      "channel": 2,
      "note": 56,
      "start": 1.1843,
      "duration": 0.1044,
      "velocity": 116,
      "chip": "ym2612"
    },
    {
      "channel": 1,
      "note": 57,
      "start": 1.2923,
      "duration": 0.2171,
      "velocity": 95,
      "chip": "ym2612"
    },
    {
      "channel": 3,
      "note": 57,
      "start": 1.293,
      "duration": 0.2171,
      "velocity": 91,
      "chip": "ym2612"
    },
    {
      "channel": 2,
      "note": 37,
      "start": 1.2941,
      "duration": 0.1229,
      "velocity": 120,
      "chip": "ym2612"
    },
    {
      "channel": 5,
      "note": 57,
      "start": 1.3627,
      "duration": 0.2174,
      "velocity": 95,
      "chip": "ym2612"
    },
    {
      "channel": 1,
      "note": 56,
      "start": 1.5099,
      "duration": 0.2199,
      "velocity": 95,
      "chip": "ym2612"
    },
    {
      "channel": 3,
      "note": 56,
      "start": 1.5107,
      "duration": 0.2226,
      "velocity": 91,
      "chip": "ym2612"
    },
    {
      "channel": 2,
      "note": 56,
      "start": 1.5118,
      "duration": 0.1036,
      "velocity": 116,
      "chip": "ym2612"
    },
    {
      "channel": 5,
      "note": 56,
      "start": 1.5806,
      "duration": 0.2198,
      "velocity": 95,
      "chip": "ym2612"
    },
    {
      "channel": 2,
      "note": 56,
      "start": 1.62,
      "duration": 0.1044,
      "velocity": 116,
      "chip": "ym2612"
    },
    {
      "channel": 1,
      "note": 54,
      "start": 1.7304,
      "duration": 0.2145,
      "velocity": 95,
      "chip": "ym2612"
    },
    {
      "channel": 3,
      "note": 54,
      "start": 1.7338,
      "duration": 0.2118,
      "velocity": 91,
      "chip": "ym2612"
    },
    {
      "channel": 2,
      "note": 37,
      "start": 1.735,
      "duration": 0.1177,
      "velocity": 120,
      "chip": "ym2612"
    },
    {
      "channel": 5,
      "note": 54,
      "start": 1.801,
      "duration": 0.2146,
      "velocity": 95,
      "chip": "ym2612"
    },
    {
      "channel": 1,
      "note": 53,
      "start": 1.9455,
      "duration": 0.2177,
      "velocity": 95,
      "chip": "ym2612"
    },
    {
      "channel": 3,
      "note": 53,
      "start": 1.9462,
      "duration": 0.2178,
      "velocity": 91,
      "chip": "ym2612"
    },
    {
      "channel": 2,
      "note": 56,
      "start": 1.9474,
      "duration": 0.1036,
      "velocity": 116,
      "chip": "ym2612"
    },
    {
      "channel": 5,
      "note": 53,
      "start": 2.0162,
      "duration": 0.2172,
      "velocity": 95,
      "chip": "ym2612"
    },
    {
      "channel": 2,
      "note": 56,
      "start": 2.0557,
      "duration": 0.1046,
      "velocity": 116,
      "chip": "ym2612"
    },
    {
      "channel": 1,
      "note": 57,
      "start": 2.1638,
      "duration": 0.2169,
      "velocity": 95,
      "chip": "ym2612"
    },
    {
      "channel": 3,
      "note": 57,
      "start": 2.1645,
      "duration": 0.2168,
      "velocity": 91,
      "chip": "ym2612"
    },
    {
      "channel": 2,
      "note": 37,
      "start": 2.1657,
      "duration": 0.1226,
      "velocity": 120,
      "chip": "ym2612"
    },
    {
      "channel": 5,
      "note": 57,
      "start": 2.234,
      "duration": 0.2172,
      "velocity": 95,
      "chip": "ym2612"
    },
    {
      "channel": 1,
      "note": 56,
      "start": 2.3812,
      "duration": 0.2198,
      "velocity": 95,
      "chip": "ym2612"
    },
    {
      "channel": 3,
      "note": 56,
      "start": 2.3819,
      "duration": 0.2226,
      "velocity": 91,
      "chip": "ym2612"
    },
    {
      "channel": 2,
      "note": 56,
      "start": 2.3831,
      "duration": 0.1036,
      "velocity": 116,
      "chip": "ym2612"
    },
    {
      "channel": 5,
      "note": 56,
      "start": 2.4518,
      "duration": 0.22,
      "velocity": 95,
      "chip": "ym2612"
    },
    {
      "channel": 2,
      "note": 56,
      "start": 2.4912,
      "duration": 0.1044,
      "velocity": 116,
      "chip": "ym2612"
    },
    {
      "channel": 1,
      "note": 54,
      "start": 2.6017,
      "duration": 0.2145,
      "velocity": 95,
      "chip": "ym2612"
    },
    {
      "channel": 3,
      "note": 54,
      "start": 2.6051,
      "duration": 0.2118,
      "velocity": 91,
      "chip": "ym2612"
    },
    {
      "channel": 2,
      "note": 37,
      "start": 2.6062,
      "duration": 0.1177,
      "velocity": 120,
      "chip": "ym2612"
    },
    {
      "channel": 5,
      "note": 54,
      "start": 2.6724,
      "duration": 0.2146,
      "velocity": 95,
      "chip": "ym2612"
    },
    {
      "channel": 1,
      "note": 53,
      "start": 2.8168,
      "duration": 0.2174,
      "velocity": 95,
      "chip": "ym2612"
    },
    {
      "channel": 3,
      "note": 53,
      "start": 2.8175,
      "duration": 0.2174,
      "velocity": 91,
      "chip": "ym2612"
    },
    {
      "channel": 2,
      "note": 56,
      "start": 2.8187,
      "duration": 0.1036,
      "velocity": 116,
      "chip": "ym2612"
    },
    {
      "channel": 5,
      "note": 53,
      "start": 2.8875,
      "duration": 0.2172,
      "velocity": 95,
      "chip": "ym2612"
    },
    {
      "channel": 2,
      "note": 56,
      "start": 2.9269,
      "duration": 0.1043,
      "velocity": 116,
      "chip": "ym2612"
    },
    {
      "channel": 1,
      "note": 57,
      "start": 3.0347,
      "duration": 0.2172,
      "velocity": 95,
      "chip": "ym2612"
    },
    {
      "channel": 3,
      "note": 57,
      "start": 3.0354,
      "duration": 0.2172,
      "velocity": 91,
      "chip": "ym2612"
    },
    {
      "channel": 2,
      "note": 37,
      "start": 3.0366,
      "duration": 0.1035,
      "velocity": 120,
      "chip": "ym2612"
    },
    {
      "channel": 5,
      "note": 57,
      "start": 3.1053,
      "duration": 0.2172,
      "velocity": 95,
      "chip": "ym2612"
    },
    {
      "channel": 2,
      "note": 56,
      "start": 3.1447,
      "duration": 0.1043,
      "velocity": 116,
      "chip": "ym2612"
    },
    {
      "channel": 1,
      "note": 56,
      "start": 3.2524,
      "duration": 0.2204,
      "velocity": 95,
      "chip": "ym2612"
    },
    {
      "channel": 3,
      "note": 56,
      "start": 3.2532,
      "duration": 0.223,
      "velocity": 91,
      "chip": "ym2612"
    },
    {
      "channel": 2,
      "note": 56,
      "start": 3.2544,
      "duration": 0.1036,
      "velocity": 116,
      "chip": "ym2612"
    },
    {
      "channel": 5,
      "note": 56,
      "start": 3.3231,
      "duration": 0.2199,
      "velocity": 95,
      "chip": "ym2612"
    },
    {
      "channel": 2,
      "note": 56,
      "start": 3.3625,
      "duration": 0.1046,
      "velocity": 116,
      "chip": "ym2612"
    },
    {
      "channel": 1,
      "note": 54,
      "start": 3.4734,
      "duration": 0.2142,
      "velocity": 95,
      "chip": "ym2612"
    },
    {
      "channel": 3,
      "note": 54,
      "start": 3.4768,
      "duration": 0.2116,
      "velocity": 91,
      "chip": "ym2612"
    },
    {
      "channel": 2,
      "note": 37,
      "start": 3.4779,
      "duration": 0.1172,
      "velocity": 120,
      "chip": "ym2612"
    },
    {
      "channel": 5,
      "note": 54,
      "start": 3.5435,
      "duration": 0.2146,
      "velocity": 95,
      "chip": "ym2612"
    },
    {
      "channel": 1,
      "note": 53,
      "start": 3.6881,
      "duration": 0.2173,
      "velocity": 95,
      "chip": "ym2612"
    },
    {
      "channel": 3,
      "note": 53,
      "start": 3.6889,
      "duration": 0.2172,
      "velocity": 91,
      "chip": "ym2612"
    },
    {
      "channel": 2,
      "note": 56,
      "start": 3.69,
      "duration": 0.1034,
      "velocity": 116,
      "chip": "ym2612"
    },
    {
      "channel": 5,
      "note": 53,
      "start": 3.7588,
      "duration": 0.2172,
      "velocity": 95,
      "chip": "ym2612"
    },
    {
      "channel": 2,
      "note": 56,
      "start": 3.7981,
      "duration": 0.1044,
      "velocity": 116,
      "chip": "ym2612"
    },
    {
      "channel": 1,
      "note": 57,
      "start": 3.906,
      "duration": 0.2172,
      "velocity": 95,
      "chip": "ym2612"
    },
    {
      "channel": 3,
      "note": 57,
      "start": 3.9067,
      "duration": 0.2172,
      "velocity": 91,
      "chip": "ym2612"
    },
    {
      "channel": 2,
      "note": 37,
      "start": 3.9079,
      "duration": 0.1229,
      "velocity": 120,
      "chip": "ym2612"
    },
    {
      "channel": 5,
      "note": 57,
      "start": 3.9765,
      "duration": 0.2172,
      "velocity": 95,
      "chip": "ym2612"
    },
    {
      "channel": 1,
      "note": 56,
      "start": 4.1238,
      "duration": 0.2198,
      "velocity": 95,
      "chip": "ym2612"
    },
    {
      "channel": 3,
      "note": 56,
      "start": 4.1245,
      "duration": 0.2225,
      "velocity": 91,
      "chip": "ym2612"
    },
    {
      "channel": 2,
      "note": 56,
      "start": 4.1257,
      "duration": 0.1036,
      "velocity": 116,
      "chip": "ym2612"
    },
    {
      "channel": 5,
      "note": 56,
      "start": 4.1943,
      "duration": 0.22,
      "velocity": 95,
      "chip": "ym2612"
    },
    {
      "channel": 2,
      "note": 56,
      "start": 4.2338,
      "duration": 0.1043,
      "velocity": 116,
      "chip": "ym2612"
    },
    {
      "channel": 1,
      "note": 54,
      "start": 4.3442,
      "duration": 0.2146,
      "velocity": 95,
      "chip": "ym2612"
    },
    {
      "channel": 3,
      "note": 54,
      "start": 4.3476,
      "duration": 0.212,
      "velocity": 91,
      "chip": "ym2612"
    },
    {
      "channel": 2,
      "note": 37,
      "start": 4.3487,
      "duration": 0.1177,
      "velocity": 120,
      "chip": "ym2612"
    },
    {
      "channel": 5,
      "note": 54,
      "start": 4.4149,
      "duration": 0.2145,
      "velocity": 95,
      "chip": "ym2612"
    },
    {
      "channel": 1,
      "note": 53,
      "start": 4.5594,
      "duration": 0.2173,
      "velocity": 95,
      "chip": "ym2612"
    },
    {
      "channel": 3,
      "note": 53,
      "start": 4.5601,
      "duration": 0.2174,
      "velocity": 91,
      "chip": "ym2612"
    },
    {
      "channel": 2,
      "note": 56,
      "start": 4.5612,
      "duration": 0.1036,
      "velocity": 116,
      "chip": "ym2612"
    },
    {
      "channel": 5,
      "note": 53,
      "start": 4.63,
      "duration": 0.2172,
      "velocity": 95,
      "chip": "ym2612"
    },
    {
      "channel": 2,
      "note": 56,
      "start": 4.6694,
      "duration": 0.1045,
      "velocity": 116,
      "chip": "ym2612"
    },
    {
      "channel": 1,
      "note": 57,
      "start": 4.7773,
      "duration": 0.2172,
      "velocity": 95,
      "chip": "ym2612"
    },
    {
      "channel": 3,
      "note": 57,
      "start": 4.778,
      "duration": 0.2171,
      "velocity": 91,
      "chip": "ym2612"
    },
    {
      "channel": 2,
      "note": 37,
      "start": 4.7792,
      "duration": 0.1228,
      "velocity": 120,
      "chip": "ym2612"
    },
    {
      "channel": 5,
      "note": 57,
      "start": 4.8478,
      "duration": 0.2173,
      "velocity": 95,
      "chip": "ym2612"
    },
    {
      "channel": 1,
      "note": 56,
      "start": 4.995,
      "duration": 0.2199,
      "velocity": 95,
      "chip": "ym2612"
    },
    {
      "channel": 3,
      "note": 56,
      "start": 4.9957,
      "duration": 0.2226,
      "velocity": 91,
      "chip": "ym2612"
    },
    {
      "channel": 2,
      "note": 56,
      "start": 4.9969,
      "duration": 0.1036,
      "velocity": 116,
      "chip": "ym2612"
    },
    {
      "channel": 5,
      "note": 56,
      "start": 5.0656,
      "duration": 0.2203,
      "velocity": 95,
      "chip": "ym2612"
    },
    {
      "channel": 2,
      "note": 56,
      "start": 5.1051,
      "duration": 0.1043,
      "velocity": 116,
      "chip": "ym2612"
    },
    {
      "channel": 1,
      "note": 54,
      "start": 5.2155,
      "duration": 0.2146,
      "velocity": 95,
      "chip": "ym2612"
    },
    {
      "channel": 3,
      "note": 54,
      "start": 5.2189,
      "duration": 0.2119,
      "velocity": 91,
      "chip": "ym2612"
    },
    {
      "channel": 2,
      "note": 37,
      "start": 5.2201,
      "duration": 0.1176,
      "velocity": 120,
      "chip": "ym2612"
    },
    {
      "channel": 5,
      "note": 54,
      "start": 5.2866,
      "duration": 0.2141,
      "velocity": 95,
      "chip": "ym2612"
    },
    {
      "channel": 1,
      "note": 53,
      "start": 5.4306,
      "duration": 0.2174,
      "velocity": 95,
      "chip": "ym2612"
    },
    {
      "channel": 3,
      "note": 53,
      "start": 5.4313,
      "duration": 0.2174,
      "velocity": 91,
      "chip": "ym2612"
    },
    {
      "channel": 2,
      "note": 56,
      "start": 5.4325,
      "duration": 0.1036,
      "velocity": 116,
      "chip": "ym2612"
    },
    {
      "channel": 5,
      "note": 53,
      "start": 5.5012,
      "duration": 0.2172,
      "velocity": 95,
      "chip": "ym2612"
    },
    {
      "channel": 2,
      "note": 56,
      "start": 5.5407,
      "duration": 0.1043,
      "velocity": 116,
      "chip": "ym2612"
    },
    {
      "channel": 1,
      "note": 57,
      "start": 5.6486,
      "duration": 0.2171,
      "velocity": 95,
      "chip": "ym2612"
    },
    {
      "channel": 3,
      "note": 57,
      "start": 5.6493,
      "duration": 0.217,
      "velocity": 91,
      "chip": "ym2612"
    },
    {
      "channel": 2,
      "note": 37,
      "start": 5.6505,
      "duration": 0.1228,
      "velocity": 120,
      "chip": "ym2612"
    },
    {
      "channel": 5,
      "note": 57,
      "start": 5.719,
      "duration": 0.2173,
      "velocity": 95,
      "chip": "ym2612"
    },
    {
      "channel": 1,
      "note": 56,
      "start": 5.8662,
      "duration": 0.22,
      "velocity": 95,
      "chip": "ym2612"
    },
    {
      "channel": 3,
      "note": 56,
      "start": 5.8669,
      "duration": 0.2227,
      "velocity": 91,
      "chip": "ym2612"
    },
    {
      "channel": 2,
      "note": 56,
      "start": 5.8681,
      "duration": 0.1036,
      "velocity": 116,
      "chip": "ym2612"
    },
    {
      "channel": 5,
      "note": 56,
      "start": 5.9369,
      "duration": 0.22,
      "velocity": 95,
      "chip": "ym2612"
    },
    {
      "channel": 2,
      "note": 56,
      "start": 5.9762,
      "duration": 0.1045,
      "velocity": 116,
      "chip": "ym2612"
    },
    {
      "channel": 1,
      "note": 54,
      "start": 6.0868,
      "duration": 0.2146,
      "velocity": 95,
      "chip": "ym2612"
    },
    {
      "channel": 3,
      "note": 54,
      "start": 6.0902,
      "duration": 0.2119,
      "velocity": 91,
      "chip": "ym2612"
    },
    {
      "channel": 2,
      "note": 37,
      "start": 6.0913,
      "duration": 0.1177,
      "velocity": 120,
      "chip": "ym2612"
    },
    {
      "channel": 5,
      "note": 54,
      "start": 6.1574,
      "duration": 0.2146,
      "velocity": 95,
      "chip": "ym2612"
    },
    {
      "channel": 1,
      "note": 53,
      "start": 6.302,
      "duration": 0.2172,
      "velocity": 95,
      "chip": "ym2612"
    },
    {
      "channel": 3,
      "note": 53,
      "start": 6.3027,
      "duration": 0.2173,
      "velocity": 91,
      "chip": "ym2612"
    },
    {
      "channel": 2,
      "note": 56,
      "start": 6.3039,
      "duration": 0.1034,
      "velocity": 116,
      "chip": "ym2612"
    },
    {
      "channel": 5,
      "note": 53,
      "start": 6.3726,
      "duration": 0.2174,
      "velocity": 95,
      "chip": "ym2612"
    },
    {
      "channel": 2,
      "note": 56,
      "start": 6.4119,
      "duration": 0.1045,
      "velocity": 116,
      "chip": "ym2612"
    },
    {
      "channel": 1,
      "note": 57,
      "start": 6.5198,
      "duration": 0.2171,
      "velocity": 95,
      "chip": "ym2612"
    },
    {
      "channel": 3,
      "note": 57,
      "start": 6.5206,
      "duration": 0.2171,
      "velocity": 91,
      "chip": "ym2612"
    },
    {
      "channel": 2,
      "note": 37,
      "start": 6.5217,
      "duration": 0.1034,
      "velocity": 120,
      "chip": "ym2612"
    },
    {
      "channel": 5,
      "note": 57,
      "start": 6.5906,
      "duration": 0.217,
      "velocity": 95,
      "chip": "ym2612"
    },
    {
      "channel": 2,
      "note": 56,
      "start": 6.6298,
      "duration": 0.1043,
      "velocity": 116,
      "chip": "ym2612"
    },
    {
      "channel": 1,
      "note": 56,
      "start": 6.7375,
      "duration": 0.2181,
      "velocity": 95,
      "chip": "ym2612"
    },
    {
      "channel": 3,
      "note": 56,
      "start": 6.7383,
      "duration": 0.2207,
      "velocity": 91,
      "chip": "ym2612"
    },
    {
      "channel": 2,
      "note": 56,
      "start": 6.7394,
      "duration": 0.1036,
      "velocity": 116,
      "chip": "ym2612"
    },
    {
      "channel": 5,
      "note": 56,
      "start": 6.8082,
      "duration": 0.2178,
      "velocity": 95,
      "chip": "ym2612"
    },
    {
      "channel": 2,
      "note": 56,
      "start": 6.8476,
      "duration": 0.1044,
      "velocity": 116,
      "chip": "ym2612"
    },
    {
      "channel": 0,
      "note": 66,
      "start": 6.9554,
      "duration": 1.742,
      "velocity": 91,
      "chip": "ym2612"
    },
    {
      "channel": 1,
      "note": 57,
      "start": 6.9562,
      "duration": 0.2167,
      "velocity": 95,
      "chip": "ym2612"
    },
    {
      "channel": 3,
      "note": 54,
      "start": 6.9596,
      "duration": 0.2141,
      "velocity": 91,
      "chip": "ym2612"
    },
    {
      "channel": 2,
      "note": 37,
      "start": 6.9607,
      "duration": 0.12,
      "velocity": 120,
      "chip": "ym2612"
    },
    {
      "channel": 4,
      "note": 66,
      "start": 6.9898,
      "duration": 1.742,
      "velocity": 91,
      "chip": "ym2612"
    },
    {
      "channel": 5,
      "note": 57,
      "start": 7.0266,
      "duration": 0.2171,
      "velocity": 95,
      "chip": "ym2612"
    },
    {
      "channel": 1,
      "note": 56,
      "start": 7.1735,
      "duration": 0.2172,
      "velocity": 95,
      "chip": "ym2612"
    },
    {
      "channel": 3,
      "note": 53,
      "start": 7.1742,
      "duration": 0.2173,
      "velocity": 91,
      "chip": "ym2612"
    },
    {
      "channel": 2,
      "note": 56,
      "start": 7.1757,
      "duration": 0.1029,
      "velocity": 116,
      "chip": "ym2612"
    },
    {
      "channel": 5,
      "note": 56,
      "start": 7.2442,
      "duration": 0.2172,
      "velocity": 95,
      "chip": "ym2612"
    },
    {
      "channel": 2,
      "note": 56,
      "start": 7.2837,
      "duration": 0.1039,
      "velocity": 116,
      "chip": "ym2612"
    },
    {
      "channel": 1,
      "note": 61,
      "start": 7.3913,
      "duration": 0.2171,
      "velocity": 95,
      "chip": "ym2612"
    },
    {
      "channel": 3,
      "note": 57,
      "start": 7.3921,
      "duration": 0.2171,
      "velocity": 91,
      "chip": "ym2612"
    },
    {
      "channel": 2,
      "note": 37,
      "start": 7.3935,
      "duration": 0.1229,
      "velocity": 120,
      "chip": "ym2612"
    },
    {
      "channel": 5,
      "note": 61,
      "start": 7.4621,
      "duration": 0.2173,
      "velocity": 95,
      "chip": "ym2612"
    },
    {
      "channel": 1,
      "note": 59,
      "start": 7.609,
      "duration": 0.2175,
      "velocity": 95,
      "chip": "ym2612"
    },
    {
      "channel": 3,
      "note": 56,
      "start": 7.6097,
      "duration": 0.2202,
      "velocity": 91,
      "chip": "ym2612"
    },
    {
      "channel": 2,
      "note": 56,
      "start": 7.6112,
      "duration": 0.1031,
      "velocity": 116,
      "chip": "ym2612"
    },
    {
      "channel": 5,
      "note": 59,
      "start": 7.6799,
      "duration": 0.2174,
      "velocity": 95,
      "chip": "ym2612"
    },
    {
      "channel": 2,
      "note": 56,
      "start": 7.7194,
      "duration": 0.1038,
      "velocity": 116,
      "chip": "ym2612"
    },
    {
      "channel": 1,
      "note": 57,
      "start": 7.8271,
      "duration": 0.217,
      "velocity": 95,
      "chip": "ym2612"
    },
    {
      "channel": 3,
      "note": 54,
      "start": 7.8304,
      "duration": 0.2143,
      "velocity": 91,
      "chip": "ym2612"
    },
    {
      "channel": 2,
      "note": 37,
      "start": 7.8318,
      "duration": 0.1206,
      "velocity": 120,
      "chip": "ym2612"
    },
    {
      "channel": 5,
      "note": 57,
      "start": 7.8979,
      "duration": 0.217,
      "velocity": 95,
      "chip": "ym2612"
    },
    {
      "channel": 1,
      "note": 56,
      "start": 8.0446,
      "duration": 0.2174,
      "velocity": 95,
      "chip": "ym2612"
    },
    {
      "channel": 3,
      "note": 53,
      "start": 8.0454,
      "duration": 0.2174,
      "velocity": 91,
      "chip": "ym2612"
    },
    {
      "channel": 2,
      "note": 56,
      "start": 8.0468,
      "duration": 0.1031,
      "velocity": 116,
      "chip": "ym2612"
    },
    {
      "channel": 5,
      "note": 56,
      "start": 8.1156,
      "duration": 0.2172,
      "velocity": 95,
      "chip": "ym2612"
    },
    {
      "channel": 2,
      "note": 56,
      "start": 8.1551,
      "duration": 0.1038,
      "velocity": 116,
      "chip": "ym2612"
    },
    {
      "channel": 1,
      "note": 61,
      "start": 8.2626,
      "duration": 0.2171,
      "velocity": 95,
      "chip": "ym2612"
    },
    {
      "channel": 3,
      "note": 57,
      "start": 8.2633,
      "duration": 0.2171,
      "velocity": 91,
      "chip": "ym2612"
    },
    {
      "channel": 2,
      "note": 37,
      "start": 8.2647,
      "duration": 0.1229,
      "velocity": 120,
      "chip": "ym2612"
    },
    {
      "channel": 5,
      "note": 61,
      "start": 8.3334,
      "duration": 0.2172,
      "velocity": 95,
      "chip": "ym2612"
    },
    {
      "channel": 1,
      "note": 59,
      "start": 8.4802,
      "duration": 0.2179,
      "velocity": 95,
      "chip": "ym2612"
    },
    {
      "channel": 3,
      "note": 56,
      "start": 8.481,
      "duration": 0.2205,
      "velocity": 91,
      "chip": "ym2612"
    },
    {
      "channel": 2,
      "note": 56,
      "start": 8.4824,
      "duration": 0.1031,
      "velocity": 116,
      "chip": "ym2612"
    },
    {
      "channel": 5,
      "note": 59,
      "start": 8.5511,
      "duration": 0.2174,
      "velocity": 95,
      "chip": "ym2612"
    },
    {
      "channel": 2,
      "note": 56,
      "start": 8.5906,
      "duration": 0.1039,
      "velocity": 116,
      "chip": "ym2612"
    },
    {
      "channel": 0,
      "note": 65,
      "start": 8.6979,
      "duration": 1.7419,
      "velocity": 91,
      "chip": "ym2612"
    },
    {
      "channel": 1,
      "note": 57,
      "start": 8.6988,
      "duration": 0.2167,
      "velocity": 95,
      "chip": "ym2612"
    },
    {
      "channel": 3,
      "note": 54,
      "start": 8.7021,
      "duration": 0.214,
      "velocity": 91,
      "chip": "ym2612"
    },
    {
      "channel": 2,
      "note": 37,
      "start": 8.7036,
      "duration": 0.1197,
      "velocity": 120,
      "chip": "ym2612"
    },
    {
      "channel": 4,
      "note": 65,
      "start": 8.7324,
      "duration": 1.7419,
      "velocity": 91,
      "chip": "ym2612"
    },
    {
      "channel": 5,
      "note": 57,
      "start": 8.769,
      "duration": 0.2173,
      "velocity": 95,
      "chip": "ym2612"
    },
    {
      "channel": 1,
      "note": 56,
      "start": 8.916,
      "duration": 0.2172,
      "velocity": 95,
      "chip": "ym2612"
    },
    {
      "channel": 3,
      "note": 53,
      "start": 8.9167,
      "duration": 0.2173,
      "velocity": 91,
      "chip": "ym2612"
    },
    {
      "channel": 2,
      "note": 56,
      "start": 8.9182,
      "duration": 0.1029,
      "velocity": 116,
      "chip": "ym2612"
    },
    {
      "channel": 5,
      "note": 56,
      "start": 8.9869,
      "duration": 0.2172,
      "velocity": 95,
      "chip": "ym2612"
    },
    {
      "channel": 2,
      "note": 56,
      "start": 9.0262,
      "duration": 0.1039,
      "velocity": 116,
      "chip": "ym2612"
    },
    {
      "channel": 1,
      "note": 61,
      "start": 9.1339,
      "duration": 0.2172,
      "velocity": 95,
      "chip": "ym2612"
    },
    {
      "channel": 3,
      "note": 57,
      "start": 9.1346,
      "duration": 0.2172,
      "velocity": 91,
      "chip": "ym2612"
    },
    {
      "channel": 2,
      "note": 37,
      "start": 9.136,
      "duration": 0.1231,
      "velocity": 120,
      "chip": "ym2612"
    },
    {
      "channel": 5,
      "note": 61,
      "start": 9.2047,
      "duration": 0.2171,
      "velocity": 95,
      "chip": "ym2612"
    },
    {
      "channel": 1,
      "note": 59,
      "start": 9.3516,
      "duration": 0.2174,
      "velocity": 95,
      "chip": "ym2612"
    },
    {
      "channel": 3,
      "note": 56,
      "start": 9.3523,
      "duration": 0.2202,
      "velocity": 91,
      "chip": "ym2612"
    },
    {
      "channel": 2,
      "note": 56,
      "start": 9.3538,
      "duration": 0.1029,
      "velocity": 116,
      "chip": "ym2612"
    },
    {
      "channel": 5,
      "note": 59,
      "start": 9.4224,
      "duration": 0.2173,
      "velocity": 95,
      "chip": "ym2612"
    },
    {
      "channel": 2,
      "note": 56,
      "start": 9.4618,
      "duration": 0.104,
      "velocity": 116,
      "chip": "ym2612"
    },
    {
      "channel": 1,
      "note": 57,
      "start": 9.5697,
      "duration": 0.217,
      "velocity": 95,
      "chip": "ym2612"
    },
    {
      "channel": 3,
      "note": 54,
      "start": 9.5731,
      "duration": 0.2144,
      "velocity": 91,
      "chip": "ym2612"
    },
    {
      "channel": 2,
      "note": 37,
      "start": 9.5745,
      "duration": 0.1201,
      "velocity": 120,
      "chip": "ym2612"
    },
    {
      "channel": 5,
      "note": 57,
      "start": 9.6404,
      "duration": 0.2171,
      "velocity": 95,
      "chip": "ym2612"
    },
    {
      "channel": 1,
      "note": 56,
      "start": 9.7873,
      "duration": 0.2173,
      "velocity": 95,
      "chip": "ym2612"
    },
    {
      "channel": 3,
      "note": 53,
      "start": 9.788,
      "duration": 0.2173,
      "velocity": 91,
      "chip": "ym2612"
    },
    {
      "channel": 2,
      "note": 56,
      "start": 9.7895,
      "duration": 0.1029,
      "velocity": 116,
      "chip": "ym2612"
    },
    {
      "channel": 5,
      "note": 56,
      "start": 9.858,
      "duration": 0.2172,
      "velocity": 95,
      "chip": "ym2612"
    },
    {
      "channel": 2,
      "note": 56,
      "start": 9.8974,
      "duration": 0.1039,
      "velocity": 116,
      "chip": "ym2612"
    },
    {
      "channel": 1,
      "note": 61,
      "start": 10.0051,
      "duration": 0.2172,
      "velocity": 95,
      "chip": "ym2612"
    },
    {
      "channel": 3,
      "note": 57,
      "start": 10.0058,
      "duration": 0.2172,
      "velocity": 91,
      "chip": "ym2612"
    },
    {
      "channel": 2,
      "note": 37,
      "start": 10.0072,
      "duration": 0.103,
      "velocity": 120,
      "chip": "ym2612"
    },
    {
      "channel": 5,
      "note": 61,
      "start": 10.0759,
      "duration": 0.2173,
      "velocity": 95,
      "chip": "ym2612"
    },
    {
      "channel": 2,
      "note": 56,
      "start": 10.1153,
      "duration": 0.1037,
      "velocity": 116,
      "chip": "ym2612"
    },
    {
      "channel": 1,
      "note": 59,
      "start": 10.2229,
      "duration": 0.2178,
      "velocity": 95,
      "chip": "ym2612"
    },
    {
      "channel": 3,
      "note": 56,
      "start": 10.2236,
      "duration": 0.2205,
      "velocity": 91,
      "chip": "ym2612"
    },
    {
      "channel": 2,
      "note": 56,
      "start": 10.225,
      "duration": 0.1029,
      "velocity": 116,
      "chip": "ym2612"
    },
    {
      "channel": 5,
      "note": 59,
      "start": 10.2937,
      "duration": 0.2174,
      "velocity": 95,
      "chip": "ym2612"
    },
    {
      "channel": 2,
      "note": 56,
      "start": 10.3331,
      "duration": 0.1039,
      "velocity": 116,
      "chip": "ym2612"
    },
    {
      "channel": 0,
      "note": 64,
      "start": 10.4404,
      "duration": 1.742,
      "velocity": 91,
      "chip": "ym2612"
    },
    {
      "channel": 1,
      "note": 57,
      "start": 10.4412,
      "duration": 0.2166,
      "velocity": 95,
      "chip": "ym2612"
    },
    {
      "channel": 3,
      "note": 54,
      "start": 10.4446,
      "duration": 0.214,
      "velocity": 91,
      "chip": "ym2612"
    },
    {
      "channel": 2,
      "note": 37,
      "start": 10.446,
      "duration": 0.1198,
      "velocity": 120,
      "chip": "ym2612"
    },
    {
      "channel": 4,
      "note": 64,
      "start": 10.4749,
      "duration": 1.742,
      "velocity": 91,
      "chip": "ym2612"
    },
    {
      "channel": 5,
      "note": 57,
      "start": 10.5117,
      "duration": 0.2171,
      "velocity": 95,
      "chip": "ym2612"
    },
    {
      "channel": 1,
      "note": 56,
      "start": 10.6584,
      "duration": 0.2174,
      "velocity": 95,
      "chip": "ym2612"
    },
    {
      "channel": 3,
      "note": 53,
      "start": 10.6592,
      "duration": 0.2174,
      "velocity": 91,
      "chip": "ym2612"
    },
    {
      "channel": 2,
      "note": 56,
      "start": 10.6606,
      "duration": 0.1031,
      "velocity": 116,
      "chip": "ym2612"
    },
    {
      "channel": 5,
      "note": 56,
      "start": 10.7294,
      "duration": 0.2172,
      "velocity": 95,
      "chip": "ym2612"
    },
    {
      "channel": 2,
      "note": 56,
      "start": 10.7688,
      "duration": 0.1038,
      "velocity": 116,
      "chip": "ym2612"
    },
    {
      "channel": 1,
      "note": 61,
      "start": 10.8764,
      "duration": 0.2172,
      "velocity": 95,
      "chip": "ym2612"
    },
    {
      "channel": 3,
      "note": 57,
      "start": 10.8771,
      "duration": 0.2172,
      "velocity": 91,
      "chip": "ym2612"
    },
    {
      "channel": 2,
      "note": 37,
      "start": 10.8785,
      "duration": 0.1229,
      "velocity": 120,
      "chip": "ym2612"
    },
    {
      "channel": 5,
      "note": 61,
      "start": 10.9472,
      "duration": 0.2172,
      "velocity": 95,
      "chip": "ym2612"
    },
    {
      "channel": 1,
      "note": 59,
      "start": 11.0941,
      "duration": 0.2173,
      "velocity": 95,
      "chip": "ym2612"
    },
    {
      "channel": 3,
      "note": 56,
      "start": 11.0949,
      "duration": 0.22,
      "velocity": 91,
      "chip": "ym2612"
    },
    {
      "channel": 2,
      "note": 56,
      "start": 11.0963,
      "duration": 0.1029,
      "velocity": 116,
      "chip": "ym2612"
    },
    {
      "channel": 5,
      "note": 59,
      "start": 11.165,
      "duration": 0.2173,
      "velocity": 95,
      "chip": "ym2612"
    },
    {
      "channel": 2,
      "note": 56,
      "start": 11.2044,
      "duration": 0.1039,
      "velocity": 116,
      "chip": "ym2612"
    },
    {
      "channel": 1,
      "note": 57,
      "start": 11.3121,
      "duration": 0.217,
      "velocity": 95,
      "chip": "ym2612"
    },
    {
      "channel": 3,
      "note": 54,
      "start": 11.3155,
      "duration": 0.2144,
      "velocity": 91,
      "chip": "ym2612"
    },
    {
      "channel": 2,
      "note": 37,
      "start": 11.3169,
      "duration": 0.1202,
      "velocity": 120,
      "chip": "ym2612"
    },
    {
      "channel": 5,
      "note": 57,
      "start": 11.3829,
      "duration": 0.2172,
      "velocity": 95,
      "chip": "ym2612"
    },
    {
      "channel": 1,
      "note": 56,
      "start": 11.5298,
      "duration": 0.2173,
      "velocity": 95,
      "chip": "ym2612"
    },
    {
      "channel": 3,
      "note": 53,
      "start": 11.5304,
      "duration": 0.2174,
      "velocity": 91,
      "chip": "ym2612"
    },
    {
      "channel": 2,
      "note": 56,
      "start": 11.5319,
      "duration": 0.103,
      "velocity": 116,
      "chip": "ym2612"
    },
    {
      "channel": 5,
      "note": 56,
      "start": 11.6007,
      "duration": 0.2172,
      "velocity": 95,
      "chip": "ym2612"
    },
    {
      "channel": 2,
      "note": 56,
      "start": 11.64,
      "duration": 0.1039,
      "velocity": 116,
      "chip": "ym2612"
    },
    {
      "channel": 1,
      "note": 61,
      "start": 11.7476,
      "duration": 0.2172,
      "velocity": 95,
      "chip": "ym2612"
    },
    {
      "channel": 3,
      "note": 57,
      "start": 11.7484,
      "duration": 0.2172,
      "velocity": 91,
      "chip": "ym2612"
    },
    {
      "channel": 2,
      "note": 37,
      "start": 11.7498,
      "duration": 0.1229,
      "velocity": 120,
      "chip": "ym2612"
    },
    {
      "channel": 5,
      "note": 61,
      "start": 11.8184,
      "duration": 0.2173,
      "velocity": 95,
      "chip": "ym2612"
    },
    {
      "channel": 1,
      "note": 59,
      "start": 11.9654,
      "duration": 0.2178,
      "velocity": 95,
      "chip": "ym2612"
    },
    {
      "channel": 3,
      "note": 56,
      "start": 11.9661,
      "duration": 0.2205,
      "velocity": 91,
      "chip": "ym2612"
    },
    {
      "channel": 2,
      "note": 56,
      "start": 11.9676,
      "duration": 0.103,
      "velocity": 116,
      "chip": "ym2612"
    },
    {
      "channel": 5,
      "note": 59,
      "start": 12.0363,
      "duration": 0.2173,
      "velocity": 95,
      "chip": "ym2612"
    },
    {
      "channel": 2,
      "note": 56,
      "start": 12.0757,
      "duration": 0.1039,
      "velocity": 116,
      "chip": "ym2612"
    },
    {
      "channel": 0,
      "note": 63,
      "start": 12.183,
      "duration": 1.7419,
      "velocity": 91,
      "chip": "ym2612"
    },
    {
      "channel": 1,
      "note": 57,
      "start": 12.1838,
      "duration": 0.2166,
      "velocity": 95,
      "chip": "ym2612"
    },
    {
      "channel": 3,
      "note": 54,
      "start": 12.1873,
      "duration": 0.2139,
      "velocity": 91,
      "chip": "ym2612"
    },
    {
      "channel": 2,
      "note": 37,
      "start": 12.1886,
      "duration": 0.1197,
      "velocity": 120,
      "chip": "ym2612"
    },
    {
      "channel": 4,
      "note": 63,
      "start": 12.2175,
      "duration": 1.7419,
      "velocity": 91,
      "chip": "ym2612"
    },
    {
      "channel": 5,
      "note": 57,
      "start": 12.2542,
      "duration": 0.2171,
      "velocity": 95,
      "chip": "ym2612"
    },
    {
      "channel": 1,
      "note": 56,
      "start": 12.4009,
      "duration": 0.2174,
      "velocity": 95,
      "chip": "ym2612"
    },
    {
      "channel": 3,
      "note": 53,
      "start": 12.4017,
      "duration": 0.2174,
      "velocity": 91,
      "chip": "ym2612"
    },
    {
      "channel": 2,
      "note": 56,
      "start": 12.4032,
      "duration": 0.1031,
      "velocity": 116,
      "chip": "ym2612"
    },
    {
      "channel": 5,
      "note": 56,
      "start": 12.472,
      "duration": 0.2171,
      "velocity": 95,
      "chip": "ym2612"
    },
    {
      "channel": 2,
      "note": 56,
      "start": 12.5113,
      "duration": 0.1039,
      "velocity": 116,
      "chip": "ym2612"
    },
    {
      "channel": 1,
      "note": 61,
      "start": 12.6189,
      "duration": 0.2176,
      "velocity": 95,
      "chip": "ym2612"
    },
    {
      "channel": 3,
      "note": 57,
      "start": 12.6198,
      "duration": 0.2175,
      "velocity": 91,
      "chip": "ym2612"
    },
    {
      "channel": 2,
      "note": 37,
      "start": 12.6212,
      "duration": 0.1228,
      "velocity": 120,
      "chip": "ym2612"
    },
    {
      "channel": 5,
      "note": 61,
      "start": 12.6897,
      "duration": 0.2172,
      "velocity": 95,
      "chip": "ym2612"
    },
    {
      "channel": 1,
      "note": 59,
      "start": 12.8371,
      "duration": 0.2171,
      "velocity": 95,
      "chip": "ym2612"
    },
    {
      "channel": 3,
      "note": 56,
      "start": 12.8378,
      "duration": 0.2197,
      "velocity": 91,
      "chip": "ym2612"
    },
    {
      "channel": 2,
      "note": 56,
      "start": 12.8393,
      "duration": 0.1026,
      "velocity": 116,
      "chip": "ym2612"
    },
    {
      "channel": 5,
      "note": 59,
      "start": 12.9076,
      "duration": 0.2173,
      "velocity": 95,
      "chip": "ym2612"
    },
    {
      "channel": 2,
      "note": 56,
      "start": 12.947,
      "duration": 0.1039,
      "velocity": 116,
      "chip": "ym2612"
    },
    {
      "channel": 1,
      "note": 57,
      "start": 13.0547,
      "duration": 0.217,
      "velocity": 95,
      "chip": "ym2612"
    },
    {
      "channel": 3,
      "note": 54,
      "start": 13.0581,
      "duration": 0.2144,
      "velocity": 91,
      "chip": "ym2612"
    },
    {
      "channel": 2,
      "note": 37,
      "start": 13.0595,
      "duration": 0.1201,
      "velocity": 120,
      "chip": "ym2612"
    },
    {
      "channel": 5,
      "note": 57,
      "start": 13.1255,
      "duration": 0.2171,
      "velocity": 95,
      "chip": "ym2612"
    },
    {
      "channel": 1,
      "note": 56,
      "start": 13.2724,
      "duration": 0.2173,
      "velocity": 95,
      "chip": "ym2612"
    },
    {
      "channel": 3,
      "note": 53,
      "start": 13.2731,
      "duration": 0.2173,
      "velocity": 91,
      "chip": "ym2612"
    },
    {
      "channel": 2,
      "note": 56,
      "start": 13.2745,
      "duration": 0.1029,
      "velocity": 116,
      "chip": "ym2612"
    },
    {
      "channel": 5,
      "note": 56,
      "start": 13.3432,
      "duration": 0.2172,
      "velocity": 95,
      "chip": "ym2612"
    },
    {
      "channel": 2,
      "note": 56,
      "start": 13.3825,
      "duration": 0.1039,
      "velocity": 116,
      "chip": "ym2612"
    },
    {
      "channel": 1,
      "note": 61,
      "start": 13.4902,
      "duration": 0.2171,
      "velocity": 95,
      "chip": "ym2612"
    },
    {
      "channel": 3,
      "note": 57,
      "start": 13.4909,
      "duration": 0.2171,
      "velocity": 91,
      "chip": "ym2612"
    },
    {
      "channel": 2,
      "note": 37,
      "start": 13.4923,
      "duration": 0.1029,
      "velocity": 120,
      "chip": "ym2612"
    },
    {
      "channel": 5,
      "note": 61,
      "start": 13.561,
      "duration": 0.2172,
      "velocity": 95,
      "chip": "ym2612"
    },
    {
      "channel": 2,
      "note": 56,
      "start": 13.6003,
      "duration": 0.1039,
      "velocity": 116,
      "chip": "ym2612"
    },
    {
      "channel": 1,
      "note": 59,
      "start": 13.7079,
      "duration": 0.2202,
      "velocity": 95,
      "chip": "ym2612"
    },
    {
      "channel": 3,
      "note": 56,
      "start": 13.7086,
      "duration": 0.223,
      "velocity": 91,
      "chip": "ym2612"
    },
    {
      "channel": 2,
      "note": 56,
      "start": 13.7101,
      "duration": 0.103,
      "velocity": 116,
      "chip": "ym2612"
    },
    {
      "channel": 5,
      "note": 59,
      "start": 13.7788,
      "duration": 0.22,
      "velocity": 95,
      "chip": "ym2612"
    },
    {
      "channel": 2,
      "note": 56,
      "start": 13.8182,
      "duration": 0.1039,
      "velocity": 116,
      "chip": "ym2612"
    },
    {
      "channel": 0,
      "note": 66,
      "start": 13.9254,
      "duration": 1.742,
      "velocity": 91,
      "chip": "ym2612"
    },
    {
      "channel": 1,
      "note": 54,
      "start": 13.9288,
      "duration": 0.2144,
      "velocity": 95,
      "chip": "ym2612"
    },
    {
      "channel": 3,
      "note": 54,
      "start": 13.9322,
      "duration": 0.2118,
      "velocity": 91,
      "chip": "ym2612"
    },
    {
      "channel": 2,
      "note": 37,
      "start": 13.9336,
      "duration": 0.1173,
      "velocity": 120,
      "chip": "ym2612"
    },
    {
      "channel": 4,
      "note": 66,
      "start": 13.9599,
      "duration": 1.742,
      "velocity": 91,
      "chip": "ym2612"
    },
    {
      "channel": 5,
      "note": 54,
      "start": 13.9993,
      "duration": 0.2145,
      "velocity": 95,
      "chip": "ym2612"
    },
    {
      "channel": 1,
      "note": 53,
      "start": 14.1438,
      "duration": 0.217,
      "velocity": 95,
      "chip": "ym2612"
    },
    {
      "channel": 3,
      "note": 53,
      "start": 14.1445,
      "duration": 0.2171,
      "velocity": 91,
      "chip": "ym2612"
    },
    {
      "channel": 2,
      "note": 56,
      "start": 14.146,
      "duration": 0.1027,
      "velocity": 116,
      "chip": "ym2612"
    },
    {
      "channel": 5,
      "note": 53,
      "start": 14.2144,
      "duration": 0.2172,
      "velocity": 95,
      "chip": "ym2612"
    },
    {
      "channel": 2,
      "note": 56,
      "start": 14.2539,
      "duration": 0.1038,
      "velocity": 116,
      "chip": "ym2612"
    },
    {
      "channel": 1,
      "note": 57,
      "start": 14.3614,
      "duration": 0.2172,
      "velocity": 95,
      "chip": "ym2612"
    },
    {
      "channel": 3,
      "note": 57,
      "start": 14.3622,
      "duration": 0.2171,
      "velocity": 91,
      "chip": "ym2612"
    },
    {
      "channel": 2,
      "note": 37,
      "start": 14.3636,
      "duration": 0.123,
      "velocity": 120,
      "chip": "ym2612"
    },
    {
      "channel": 5,
      "note": 57,
      "start": 14.4322,
      "duration": 0.2172,
      "velocity": 95,
      "chip": "ym2612"
    },
    {
      "channel": 1,
      "note": 56,
      "start": 14.5792,
      "duration": 0.2199,
      "velocity": 95,
      "chip": "ym2612"
    },
    {
      "channel": 3,
      "note": 56,
      "start": 14.5799,
      "duration": 0.2226,
      "velocity": 91,
      "chip": "ym2612"
    },
    {
      "channel": 2,
      "note": 56,
      "start": 14.5813,
      "duration": 0.103,
      "velocity": 116,
      "chip": "ym2612"
    },
    {
      "channel": 5,
      "note": 56,
      "start": 14.65,
      "duration": 0.2199,
      "velocity": 95,
      "chip": "ym2612"
    },
    {
      "channel": 2,
      "note": 56,
      "start": 14.6895,
      "duration": 0.1038,
      "velocity": 116,
      "chip": "ym2612"
    },
    {
      "channel": 1,
      "note": 54,
      "start": 14.7997,
      "duration": 0.2145,
      "velocity": 95,
      "chip": "ym2612"
    },
    {
      "channel": 3,
      "note": 54,
      "start": 14.8031,
      "duration": 0.2118,
      "velocity": 91,
      "chip": "ym2612"
    },
    {
      "channel": 2,
      "note": 37,
      "start": 14.8045,
      "duration": 0.1176,
      "velocity": 120,
      "chip": "ym2612"
    },
    {
      "channel": 5,
      "note": 54,
      "start": 14.8705,
      "duration": 0.2145,
      "velocity": 95,
      "chip": "ym2612"
    },
    {
      "channel": 1,
      "note": 53,
      "start": 15.0147,
      "duration": 0.2173,
      "velocity": 95,
      "chip": "ym2612"
    },
    {
      "channel": 3,
      "note": 53,
      "start": 15.0155,
      "duration": 0.2174,
      "velocity": 91,
      "chip": "ym2612"
    },
    {
      "channel": 2,
      "note": 56,
      "start": 15.0169,
      "duration": 0.1031,
      "velocity": 116,
      "chip": "ym2612"
    },
    {
      "channel": 5,
      "note": 53,
      "start": 15.0857,
      "duration": 0.2172,
      "velocity": 95,
      "chip": "ym2612"
    },
    {
      "channel": 2,
      "note": 56,
      "start": 15.1251,
      "duration": 0.1039,
      "velocity": 116,
      "chip": "ym2612"
    },
    {
      "channel": 1,
      "note": 57,
      "start": 15.2327,
      "duration": 0.2172,
      "velocity": 95,
      "chip": "ym2612"
    },
    {
      "channel": 3,
      "note": 57,
      "start": 15.2334,
      "duration": 0.2172,
      "velocity": 91,
      "chip": "ym2612"
    },
    {
      "channel": 2,
      "note": 37,
      "start": 15.2348,
      "duration": 0.123,
      "velocity": 120,
      "chip": "ym2612"
    },
    {
      "channel": 5,
      "note": 57,
      "start": 15.3035,
      "duration": 0.2172,
      "velocity": 95,
      "chip": "ym2612"
    },
    {
      "channel": 1,
      "note": 56,
      "start": 15.4505,
      "duration": 0.2203,
      "velocity": 95,
      "chip": "ym2612"
    },
    {
      "channel": 3,
      "note": 56,
      "start": 15.4512,
      "duration": 0.2229,
      "velocity": 91,
      "chip": "ym2612"
    },
    {
      "channel": 2,
      "note": 56,
      "start": 15.4527,
      "duration": 0.103,
      "velocity": 116,
      "chip": "ym2612"
    },
    {
      "channel": 5,
      "note": 56,
      "start": 15.5213,
      "duration": 0.2199,
      "velocity": 95,
      "chip": "ym2612"
    },
    {
      "channel": 2,
      "note": 56,
      "start": 15.5607,
      "duration": 0.1039,
      "velocity": 116,
      "chip": "ym2612"
    },
    {
      "channel": 0,
      "note": 65,
      "start": 15.668,
      "duration": 1.7419,
      "velocity": 91,
      "chip": "ym2612"
    },
    {
      "channel": 1,
      "note": 54,
      "start": 15.6713,
      "duration": 0.2141,
      "velocity": 95,
      "chip": "ym2612"
    },
    {
      "channel": 3,
      "note": 54,
      "start": 15.6747,
      "duration": 0.2116,
      "velocity": 91,
      "chip": "ym2612"
    },
    {
      "channel": 2,
      "note": 37,
      "start": 15.6761,
      "duration": 0.1173,
      "velocity": 120,
      "chip": "ym2612"
    },
    {
      "channel": 4,
      "note": 65,
      "start": 15.7024,
      "duration": 1.7419,
      "velocity": 91,
      "chip": "ym2612"
    },
    {
      "channel": 5,
      "note": 54,
      "start": 15.7418,
      "duration": 0.2146,
      "velocity": 95,
      "chip": "ym2612"
    },
    {
      "channel": 1,
      "note": 53,
      "start": 15.886,
      "duration": 0.2174,
      "velocity": 95,
      "chip": "ym2612"
    },
    {
      "channel": 3,
      "note": 53,
      "start": 15.8869,
      "duration": 0.2173,
      "velocity": 91,
      "chip": "ym2612"
    },
    {
      "channel": 2,
      "note": 56,
      "start": 15.8883,
      "duration": 0.103,
      "velocity": 116,
      "chip": "ym2612"
    },
    {
      "channel": 5,
      "note": 53,
      "start": 15.9569,
      "duration": 0.2173,
      "velocity": 95,
      "chip": "ym2612"
    },
    {
      "channel": 2,
      "note": 56,
      "start": 15.9963,
      "duration": 0.1039,
      "velocity": 116,
      "chip": "ym2612"
    },
    {
      "channel": 1,
      "note": 57,
      "start": 16.104,
      "duration": 0.2171,
      "velocity": 95,
      "chip": "ym2612"
    },
    {
      "channel": 3,
      "note": 57,
      "start": 16.1047,
      "duration": 0.2171,
      "velocity": 91,
      "chip": "ym2612"
    },
    {
      "channel": 2,
      "note": 37,
      "start": 16.1061,
      "duration": 0.1229,
      "velocity": 120,
      "chip": "ym2612"
    },
    {
      "channel": 5,
      "note": 57,
      "start": 16.1747,
      "duration": 0.2172,
      "velocity": 95,
      "chip": "ym2612"
    },
    {
      "channel": 1,
      "note": 56,
      "start": 16.3217,
      "duration": 0.2198,
      "velocity": 95,
      "chip": "ym2612"
    },
    {
      "channel": 3,
      "note": 56,
      "start": 16.3224,
      "duration": 0.2225,
      "velocity": 91,
      "chip": "ym2612"
    },
    {
      "channel": 2,
      "note": 56,
      "start": 16.3239,
      "duration": 0.103,
      "velocity": 116,
      "chip": "ym2612"
    },
    {
      "channel": 5,
      "note": 56,
      "start": 16.3926,
      "duration": 0.2199,
      "velocity": 95,
      "chip": "ym2612"
    },
    {
      "channel": 2,
      "note": 56,
      "start": 16.432,
      "duration": 0.1038,
      "velocity": 116,
      "chip": "ym2612"
    },
    {
      "channel": 1,
      "note": 54,
      "start": 16.5422,
      "duration": 0.2146,
      "velocity": 95,
      "chip": "ym2612"
    },
    {
      "channel": 3,
      "note": 54,
      "start": 16.5455,
      "duration": 0.212,
      "velocity": 91,
      "chip": "ym2612"
    },
    {
      "channel": 2,
      "note": 37,
      "start": 16.5469,
      "duration": 0.1178,
      "velocity": 120,
      "chip": "ym2612"
    },
    {
      "channel": 5,
      "note": 54,
      "start": 16.6131,
      "duration": 0.2145,
      "velocity": 95,
      "chip": "ym2612"
    },
    {
      "channel": 1,
      "note": 53,
      "start": 16.7573,
      "duration": 0.2174,
      "velocity": 95,
      "chip": "ym2612"
    },
    {
      "channel": 3,
      "note": 53,
      "start": 16.758,
      "duration": 0.2173,
      "velocity": 91,
      "chip": "ym2612"
    },
    {
      "channel": 2,
      "note": 56,
      "start": 16.7595,
      "duration": 0.103,
      "velocity": 116,
      "chip": "ym2612"
    },
    {
      "channel": 5,
      "note": 53,
      "start": 16.8281,
      "duration": 0.2173,
      "velocity": 95,
      "chip": "ym2612"
    },
    {
      "channel": 2,
      "note": 56,
      "start": 16.8676,
      "duration": 0.1039,
      "velocity": 116,
      "chip": "ym2612"
    },
    {
      "channel": 1,
      "note": 57,
      "start": 16.9752,
      "duration": 0.2172,
      "velocity": 95,
      "chip": "ym2612"
    },
    {
      "channel": 3,
      "note": 57,
      "start": 16.9759,
      "duration": 0.2172,
      "velocity": 91,
      "chip": "ym2612"
    },
    {
      "channel": 2,
      "note": 37,
      "start": 16.9773,
      "duration": 0.1029,
      "velocity": 120,
      "chip": "ym2612"
    },
    {
      "channel": 5,
      "note": 57,
      "start": 17.046,
      "duration": 0.2175,
      "velocity": 95,
      "chip": "ym2612"
    },
    {
      "channel": 2,
      "note": 56,
      "start": 17.0854,
      "duration": 0.1038,
      "velocity": 116,
      "chip": "ym2612"
    },
    {
      "channel": 1,
      "note": 56,
      "start": 17.193,
      "duration": 0.2202,
      "velocity": 95,
      "chip": "ym2612"
    },
    {
      "channel": 3,
      "note": 56,
      "start": 17.1937,
      "duration": 0.2229,
      "velocity": 91,
      "chip": "ym2612"
    },
    {
      "channel": 2,
      "note": 56,
      "start": 17.1951,
      "duration": 0.103,
      "velocity": 116,
      "chip": "ym2612"
    },
    {
      "channel": 5,
      "note": 56,
      "start": 17.2641,
      "duration": 0.2196,
      "velocity": 95,
      "chip": "ym2612"
    },
    {
      "channel": 2,
      "note": 56,
      "start": 17.3033,
      "duration": 0.1038,
      "velocity": 116,
      "chip": "ym2612"
    },
    {
      "channel": 0,
      "note": 68,
      "start": 17.4105,
      "duration": 1.7419,
      "velocity": 91,
      "chip": "ym2612"
    },
    {
      "channel": 1,
      "note": 54,
      "start": 17.4138,
      "duration": 0.2143,
      "velocity": 95,
      "chip": "ym2612"
    },
    {
      "channel": 3,
      "note": 54,
      "start": 17.4171,
      "duration": 0.2116,
      "velocity": 91,
      "chip": "ym2612"
    },
    {
      "channel": 2,
      "note": 37,
      "start": 17.4185,
      "duration": 0.1174,
      "velocity": 120,
      "chip": "ym2612"
    },
    {
      "channel": 4,
      "note": 68,
      "start": 17.4449,
      "duration": 1.742,
      "velocity": 91,
      "chip": "ym2612"
    },
    {
      "channel": 5,
      "note": 54,
      "start": 17.4843,
      "duration": 0.2146,
      "velocity": 95,
      "chip": "ym2612"
    },
    {
      "channel": 1,
      "note": 53,
      "start": 17.6286,
      "duration": 0.2173,
      "velocity": 95,
      "chip": "ym2612"
    },
    {
      "channel": 3,
      "note": 53,
      "start": 17.6293,
      "duration": 0.2173,
      "velocity": 91,
      "chip": "ym2612"
    },
    {
      "channel": 2,
      "note": 56,
      "start": 17.6307,
      "duration": 0.1031,
      "velocity": 116,
      "chip": "ym2612"
    },
    {
      "channel": 5,
      "note": 53,
      "start": 17.6995,
      "duration": 0.2172,
      "velocity": 95,
      "chip": "ym2612"
    },
    {
      "channel": 2,
      "note": 56,
      "start": 17.739,
      "duration": 0.1038,
      "velocity": 116,
      "chip": "ym2612"
    },
    {
      "channel": 1,
      "note": 57,
      "start": 17.8465,
      "duration": 0.2171,
      "velocity": 95,
      "chip": "ym2612"
    },
    {
      "channel": 3,
      "note": 57,
      "start": 17.8472,
      "duration": 0.2172,
      "velocity": 91,
      "chip": "ym2612"
    },
    {
      "channel": 2,
      "note": 37,
      "start": 17.8486,
      "duration": 0.123,
      "velocity": 120,
      "chip": "ym2612"
    },
    {
      "channel": 5,
      "note": 57,
      "start": 17.9172,
      "duration": 0.2172,
      "velocity": 95,
      "chip": "ym2612"
    },
    {
      "channel": 1,
      "note": 56,
      "start": 18.0641,
      "duration": 0.2199,
      "velocity": 95,
      "chip": "ym2612"
    },
    {
      "channel": 3,
      "note": 56,
      "start": 18.0649,
      "duration": 0.2225,
      "velocity": 91,
      "chip": "ym2612"
    },
    {
      "channel": 2,
      "note": 56,
      "start": 18.0663,
      "duration": 0.1036,
      "velocity": 116,
      "chip": "ym2612"
    },
    {
      "channel": 5,
      "note": 56,
      "start": 18.135,
      "duration": 0.22,
      "velocity": 95,
      "chip": "ym2612"
    },
    {
      "channel": 2,
      "note": 56,
      "start": 18.175,
      "duration": 0.1034,
      "velocity": 116,
      "chip": "ym2612"
    },
    {
      "channel": 1,
      "note": 54,
      "start": 18.2846,
      "duration": 0.2147,
      "velocity": 95,
      "chip": "ym2612"
    },
    {
      "channel": 3,
      "note": 54,
      "start": 18.2881,
      "duration": 0.212,
      "velocity": 91,
      "chip": "ym2612"
    },
    {
      "channel": 2,
      "note": 37,
      "start": 18.2895,
      "duration": 0.1178,
      "velocity": 120,
      "chip": "ym2612"
    },
    {
      "channel": 5,
      "note": 54,
      "start": 18.3556,
      "duration": 0.2147,
      "velocity": 95,
      "chip": "ym2612"
    },
    {
      "channel": 1,
      "note": 53,
      "start": 18.4999,
      "duration": 0.2173,
      "velocity": 95,
      "chip": "ym2612"
    },
    {
      "channel": 3,
      "note": 53,
      "start": 18.5006,
      "duration": 0.2174,
      "velocity": 91,
      "chip": "ym2612"
    },
    {
      "channel": 2,
      "note": 56,
      "start": 18.5021,
      "duration": 0.1029,
      "velocity": 116,
      "chip": "ym2612"
    },
    {
      "channel": 5,
      "note": 53,
      "start": 18.5709,
      "duration": 0.2171,
      "velocity": 95,
      "chip": "ym2612"
    },
    {
      "channel": 2,
      "note": 56,
      "start": 18.6101,
      "duration": 0.104,
      "velocity": 116,
      "chip": "ym2612"
    },
    {
      "channel": 1,
      "note": 57,
      "start": 18.7178,
      "duration": 0.2171,
      "velocity": 95,
      "chip": "ym2612"
    },
    {
      "channel": 3,
      "note": 57,
      "start": 18.7185,
      "duration": 0.2171,
      "velocity": 91,
      "chip": "ym2612"
    },
    {
      "channel": 2,
      "note": 37,
      "start": 18.72,
      "duration": 0.1229,
      "velocity": 120,
      "chip": "ym2612"
    },
    {
      "channel": 5,
      "note": 57,
      "start": 18.7886,
      "duration": 0.2172,
      "velocity": 95,
      "chip": "ym2612"
    },
    {
      "channel": 1,
      "note": 56,
      "start": 18.9355,
      "duration": 0.2202,
      "velocity": 95,
      "chip": "ym2612"
    },
    {
      "channel": 3,
      "note": 56,
      "start": 18.9363,
      "duration": 0.2228,
      "velocity": 91,
      "chip": "ym2612"
    },
    {
      "channel": 2,
      "note": 56,
      "start": 18.9378,
      "duration": 0.1029,
      "velocity": 116,
      "chip": "ym2612"
    },
    {
      "channel": 5,
      "note": 56,
      "start": 19.0063,
      "duration": 0.2199,
      "velocity": 95,
      "chip": "ym2612"
    },
    {
      "channel": 2,
      "note": 56,
      "start": 19.0458,
      "duration": 0.1039,
      "velocity": 116,
      "chip": "ym2612"
    },
    {
      "channel": 0,
      "note": 61,
      "start": 19.1531,
      "duration": 1.7419,
      "velocity": 91,
      "chip": "ym2612"
    },
    {
      "channel": 1,
      "note": 54,
      "start": 19.1563,
      "duration": 0.2142,
      "velocity": 95,
      "chip": "ym2612"
    },
    {
      "channel": 3,
      "note": 54,
      "start": 19.1597,
      "duration": 0.2115,
      "velocity": 91,
      "chip": "ym2612"
    },
    {
      "channel": 2,
      "note": 37,
      "start": 19.1611,
      "duration": 0.1173,
      "velocity": 120,
      "chip": "ym2612"
    },
    {
      "channel": 4,
      "note": 61,
      "start": 19.1876,
      "duration": 1.7419,
      "velocity": 91,
      "chip": "ym2612"
    },
    {
      "channel": 5,
      "note": 54,
      "start": 19.2268,
      "duration": 0.2146,
      "velocity": 95,
      "chip": "ym2612"
    },
    {
      "channel": 1,
      "note": 53,
      "start": 19.3711,
      "duration": 0.2174,
      "velocity": 95,
      "chip": "ym2612"
    },
    {
      "channel": 3,
      "note": 53,
      "start": 19.3719,
      "duration": 0.2173,
      "velocity": 91,
      "chip": "ym2612"
    },
    {
      "channel": 2,
      "note": 56,
      "start": 19.3732,
      "duration": 0.1034,
      "velocity": 116,
      "chip": "ym2612"
    },
    {
      "channel": 5,
      "note": 53,
      "start": 19.442,
      "duration": 0.2172,
      "velocity": 95,
      "chip": "ym2612"
    },
    {
      "channel": 2,
      "note": 56,
      "start": 19.4817,
      "duration": 0.1035,
      "velocity": 116,
      "chip": "ym2612"
    },
    {
      "channel": 1,
      "note": 57,
      "start": 19.589,
      "duration": 0.2172,
      "velocity": 95,
      "chip": "ym2612"
    },
    {
      "channel": 3,
      "note": 57,
      "start": 19.5897,
      "duration": 0.2172,
      "velocity": 91,
      "chip": "ym2612"
    },
    {
      "channel": 2,
      "note": 37,
      "start": 19.5911,
      "duration": 0.1229,
      "velocity": 120,
      "chip": "ym2612"
    },
    {
      "channel": 5,
      "note": 57,
      "start": 19.6598,
      "duration": 0.2172,
      "velocity": 95,
      "chip": "ym2612"
    },
    {
      "channel": 1,
      "note": 56,
      "start": 19.8068,
      "duration": 0.2198,
      "velocity": 95,
      "chip": "ym2612"
    },
    {
      "channel": 3,
      "note": 56,
      "start": 19.8075,
      "duration": 0.2226,
      "velocity": 91,
      "chip": "ym2612"
    },
    {
      "channel": 2,
      "note": 56,
      "start": 19.8089,
      "duration": 0.1029,
      "velocity": 116,
      "chip": "ym2612"
    },
    {
      "channel": 5,
      "note": 56,
      "start": 19.8776,
      "duration": 0.2199,
      "velocity": 95,
      "chip": "ym2612"
    },
    {
      "channel": 2,
      "note": 56,
      "start": 19.917,
      "duration": 0.104,
      "velocity": 116,
      "chip": "ym2612"
    },
    {
      "channel": 1,
      "note": 54,
      "start": 20.0273,
      "duration": 0.2146,
      "velocity": 95,
      "chip": "ym2612"
    },
    {
      "channel": 3,
      "note": 54,
      "start": 20.0306,
      "duration": 0.2119,
      "velocity": 91,
      "chip": "ym2612"
    },
    {
      "channel": 2,
      "note": 37,
      "start": 20.032,
      "duration": 0.1177,
      "velocity": 120,
      "chip": "ym2612"
    },
    {
      "channel": 5,
      "note": 54,
      "start": 20.0981,
      "duration": 0.2146,
      "velocity": 95,
      "chip": "ym2612"
    },
    {
      "channel": 1,
      "note": 53,
      "start": 20.2424,
      "duration": 0.2172,
      "velocity": 95,
      "chip": "ym2612"
    },
    {
      "channel": 3,
      "note": 53,
      "start": 20.2431,
      "duration": 0.2172,
      "velocity": 91,
      "chip": "ym2612"
    },
    {
      "channel": 2,
      "note": 56,
      "start": 20.2446,
      "duration": 0.103,
      "velocity": 116,
      "chip": "ym2612"
    },
    {
      "channel": 5,
      "note": 53,
      "start": 20.3133,
      "duration": 0.2172,
      "velocity": 95,
      "chip": "ym2612"
    },
    {
      "channel": 2,
      "note": 56,
      "start": 20.3527,
      "duration": 0.1038,
      "velocity": 116,
      "chip": "ym2612"
    },
    {
      "channel": 1,
      "note": 57,
      "start": 20.4602,
      "duration": 0.2172,
      "velocity": 95,
      "chip": "ym2612"
    },
    {
      "channel": 3,
      "note": 57,
      "start": 20.461,
      "duration": 0.2171,
      "velocity": 91,
      "chip": "ym2612"
    },
    {
      "channel": 2,
      "note": 37,
      "start": 20.4624,
      "duration": 0.103,
      "velocity": 120,
      "chip": "ym2612"
    },
    {
      "channel": 5,
      "note": 57,
      "start": 20.531,
      "duration": 0.2173,
      "velocity": 95,
      "chip": "ym2612"
    },
    {
      "channel": 2,
      "note": 56,
      "start": 20.5705,
      "duration": 0.1037,
      "velocity": 116,
      "chip": "ym2612"
    },
    {
      "channel": 1,
      "note": 56,
      "start": 20.678,
      "duration": 0.2178,
      "velocity": 95,
      "chip": "ym2612"
    },
    {
      "channel": 3,
      "note": 56,
      "start": 20.6787,
      "duration": 0.2205,
      "velocity": 91,
      "chip": "ym2612"
    },
    {
      "channel": 2,
      "note": 56,
      "start": 20.6801,
      "duration": 0.1033,
      "velocity": 116,
      "chip": "ym2612"
    },
    {
      "channel": 5,
      "note": 56,
      "start": 20.7489,
      "duration": 0.2173,
      "velocity": 95,
      "chip": "ym2612"
    },
    {
      "channel": 2,
      "note": 56,
      "start": 20.7885,
      "duration": 0.1036,
      "velocity": 116,
      "chip": "ym2612"
    },
    {
      "channel": 0,
      "note": 66,
      "start": 20.8955,
      "duration": 1.7421,
      "velocity": 91,
      "chip": "ym2612"
    },
    {
      "channel": 1,
      "note": 57,
      "start": 20.8963,
      "duration": 0.2167,
      "velocity": 95,
      "chip": "ym2612"
    },
    {
      "channel": 3,
      "note": 54,
      "start": 20.8997,
      "duration": 0.214,
      "velocity": 91,
      "chip": "ym2612"
    },
    {
      "channel": 2,
      "note": 37,
      "start": 20.9011,
      "duration": 0.1199,
      "velocity": 120,
      "chip": "ym2612"
    },
    {
      "channel": 4,
      "note": 66,
      "start": 20.9301,
      "duration": 1.742,
      "velocity": 91,
      "chip": "ym2612"
    },
    {
      "channel": 5,
      "note": 57,
      "start": 20.9668,
      "duration": 0.2171,
      "velocity": 95,
      "chip": "ym2612"
    },
    {
      "channel": 1,
      "note": 56,
      "start": 21.1136,
      "duration": 0.2174,
      "velocity": 95,
      "chip": "ym2612"
    },
    {
      "channel": 3,
      "note": 53,
      "start": 21.1143,
      "duration": 0.2174,
      "velocity": 91,
      "chip": "ym2612"
    },
    {
      "channel": 2,
      "note": 56,
      "start": 21.1157,
      "duration": 0.1031,
      "velocity": 116,
      "chip": "ym2612"
    },
    {
      "channel": 5,
      "note": 56,
      "start": 21.1844,
      "duration": 0.2173,
      "velocity": 95,
      "chip": "ym2612"
    },
    {
      "channel": 2,
      "note": 56,
      "start": 21.224,
      "duration": 0.1038,
      "velocity": 116,
      "chip": "ym2612"
    },
    {
      "channel": 1,
      "note": 61,
      "start": 21.3316,
      "duration": 0.2171,
      "velocity": 95,
      "chip": "ym2612"
    },
    {
      "channel": 3,
      "note": 57,
      "start": 21.3323,
      "duration": 0.2172,
      "velocity": 91,
      "chip": "ym2612"
    },
    {
      "channel": 2,
      "note": 37,
      "start": 21.3337,
      "duration": 0.1229,
      "velocity": 120,
      "chip": "ym2612"
    },
    {
      "channel": 5,
      "note": 61,
      "start": 21.4023,
      "duration": 0.2173,
      "velocity": 95,
      "chip": "ym2612"
    },
    {
      "channel": 1,
      "note": 59,
      "start": 21.5493,
      "duration": 0.2174,
      "velocity": 95,
      "chip": "ym2612"
    },
    {
      "channel": 3,
      "note": 56,
      "start": 21.55,
      "duration": 0.22,
      "velocity": 91,
      "chip": "ym2612"
    },
    {
      "channel": 2,
      "note": 56,
      "start": 21.5514,
      "duration": 0.1031,
      "velocity": 116,
      "chip": "ym2612"
    },
    {
      "channel": 5,
      "note": 59,
      "start": 21.6202,
      "duration": 0.2174,
      "velocity": 95,
      "chip": "ym2612"
    },
    {
      "channel": 2,
      "note": 56,
      "start": 21.6596,
      "duration": 0.1038,
      "velocity": 116,
      "chip": "ym2612"
    },
    {
      "channel": 1,
      "note": 57,
      "start": 21.7672,
      "duration": 0.2171,
      "velocity": 95,
      "chip": "ym2612"
    },
    {
      "channel": 3,
      "note": 54,
      "start": 21.7706,
      "duration": 0.2144,
      "velocity": 91,
      "chip": "ym2612"
    },
    {
      "channel": 2,
      "note": 37,
      "start": 21.772,
      "duration": 0.1201,
      "velocity": 120,
      "chip": "ym2612"
    },
    {
      "channel": 5,
      "note": 57,
      "start": 21.8381,
      "duration": 0.2171,
      "velocity": 95,
      "chip": "ym2612"
    },
    {
      "channel": 1,
      "note": 56,
      "start": 21.9848,
      "duration": 0.2174,
      "velocity": 95,
      "chip": "ym2612"
    },
    {
      "channel": 3,
      "note": 53,
      "start": 21.9856,
      "duration": 0.2174,
      "velocity": 91,
      "chip": "ym2612"
    },
    {
      "channel": 2,
      "note": 56,
      "start": 21.9871,
      "duration": 0.103,
      "velocity": 116,
      "chip": "ym2612"
    },
    {
      "channel": 5,
      "note": 56,
      "start": 22.0558,
      "duration": 0.2172,
      "velocity": 95,
      "chip": "ym2612"
    },
    {
      "channel": 2,
      "note": 56,
      "start": 22.0951,
      "duration": 0.1039,
      "velocity": 116,
      "chip": "ym2612"
    },
    {
      "channel": 1,
      "note": 61,
      "start": 22.2028,
      "duration": 0.2172,
      "velocity": 95,
      "chip": "ym2612"
    },
    {
      "channel": 3,
      "note": 57,
      "start": 22.2036,
      "duration": 0.2171,
      "velocity": 91,
      "chip": "ym2612"
    },
    {
      "channel": 2,
      "note": 37,
      "start": 22.205,
      "duration": 0.1228,
      "velocity": 120,
      "chip": "ym2612"
    },
    {
      "channel": 5,
      "note": 61,
      "start": 22.2736,
      "duration": 0.2173,
      "velocity": 95,
      "chip": "ym2612"
    },
    {
      "channel": 1,
      "note": 59,
      "start": 22.4206,
      "duration": 0.2178,
      "velocity": 95,
      "chip": "ym2612"
    },
    {
      "channel": 3,
      "note": 56,
      "start": 22.4213,
      "duration": 0.2204,
      "velocity": 91,
      "chip": "ym2612"
    },
    {
      "channel": 2,
      "note": 56,
      "start": 22.4227,
      "duration": 0.1029,
      "velocity": 116,
      "chip": "ym2612"
    },
    {
      "channel": 5,
      "note": 59,
      "start": 22.4915,
      "duration": 0.2172,
      "velocity": 95,
      "chip": "ym2612"
    },
    {
      "channel": 2,
      "note": 56,
      "start": 22.5307,
      "duration": 0.1039,
      "velocity": 116,
      "chip": "ym2612"
    },
    {
      "channel": 0,
      "note": 65,
      "start": 22.6381,
      "duration": 1.7419,
      "velocity": 91,
      "chip": "ym2612"
    },
    {
      "channel": 1,
      "note": 57,
      "start": 22.639,
      "duration": 0.2167,
      "velocity": 95,
      "chip": "ym2612"
    },
    {
      "channel": 3,
      "note": 54,
      "start": 22.6423,
      "duration": 0.2141,
      "velocity": 91,
      "chip": "ym2612"
    },
    {
      "channel": 2,
      "note": 37,
      "start": 22.6437,
      "duration": 0.1198,
      "velocity": 120,
      "chip": "ym2612"
    },
    {
      "channel": 4,
      "note": 65,
      "start": 22.6726,
      "duration": 1.7419,
      "velocity": 91,
      "chip": "ym2612"
    },
    {
      "channel": 5,
      "note": 57,
      "start": 22.7093,
      "duration": 0.2173,
      "velocity": 95,
      "chip": "ym2612"
    },
    {
      "channel": 1,
      "note": 56,
      "start": 22.8562,
      "duration": 0.2173,
      "velocity": 95,
      "chip": "ym2612"
    },
    {
      "channel": 3,
      "note": 53,
      "start": 22.857,
      "duration": 0.2173,
      "velocity": 91,
      "chip": "ym2612"
    },
    {
      "channel": 2,
      "note": 56,
      "start": 22.8584,
      "duration": 0.1029,
      "velocity": 116,
      "chip": "ym2612"
    },
    {
      "channel": 5,
      "note": 56,
      "start": 22.9271,
      "duration": 0.2172,
      "velocity": 95,
      "chip": "ym2612"
    },
    {
      "channel": 2,
      "note": 56,
      "start": 22.9664,
      "duration": 0.1039,
      "velocity": 116,
      "chip": "ym2612"
    },
    {
      "channel": 1,
      "note": 61,
      "start": 23.0741,
      "duration": 0.2171,
      "velocity": 95,
      "chip": "ym2612"
    },
    {
      "channel": 3,
      "note": 57,
      "start": 23.0749,
      "duration": 0.217,
      "velocity": 91,
      "chip": "ym2612"
    },
    {
      "channel": 2,
      "note": 37,
      "start": 23.0762,
      "duration": 0.1229,
      "velocity": 120,
      "chip": "ym2612"
    },
    {
      "channel": 5,
      "note": 61,
      "start": 23.1449,
      "duration": 0.2172,
      "velocity": 95,
      "chip": "ym2612"
    },
    {
      "channel": 1,
      "note": 59,
      "start": 23.2918,
      "duration": 0.2174,
      "velocity": 95,
      "chip": "ym2612"
    },
    {
      "channel": 3,
      "note": 56,
      "start": 23.2925,
      "duration": 0.2201,
      "velocity": 91,
      "chip": "ym2612"
    },
    {
      "channel": 2,
      "note": 56,
      "start": 23.2939,
      "duration": 0.1031,
      "velocity": 116,
      "chip": "ym2612"
    },
    {
      "channel": 5,
      "note": 59,
      "start": 23.3627,
      "duration": 0.2172,
      "velocity": 95,
      "chip": "ym2612"
    },
    {
      "channel": 2,
      "note": 56,
      "start": 23.4021,
      "duration": 0.1038,
      "velocity": 116,
      "chip": "ym2612"
    },
    {
      "channel": 1,
      "note": 57,
      "start": 23.5098,
      "duration": 0.2171,
      "velocity": 95,
      "chip": "ym2612"
    },
    {
      "channel": 3,
      "note": 54,
      "start": 23.5131,
      "duration": 0.2144,
      "velocity": 91,
      "chip": "ym2612"
    },
    {
      "channel": 2,
      "note": 37,
      "start": 23.5145,
      "duration": 0.1202,
      "velocity": 120,
      "chip": "ym2612"
    },
    {
      "channel": 5,
      "note": 57,
      "start": 23.5805,
      "duration": 0.2173,
      "velocity": 95,
      "chip": "ym2612"
    },
    {
      "channel": 1,
      "note": 56,
      "start": 23.7274,
      "duration": 0.2174,
      "velocity": 95,
      "chip": "ym2612"
    },
    {
      "channel": 3,
      "note": 53,
      "start": 23.7281,
      "duration": 0.2174,
      "velocity": 91,
      "chip": "ym2612"
    },
    {
      "channel": 2,
      "note": 56,
      "start": 23.7295,
      "duration": 0.1031,
      "velocity": 116,
      "chip": "ym2612"
    },
    {
      "channel": 5,
      "note": 56,
      "start": 23.7983,
      "duration": 0.2172,
      "velocity": 95,
      "chip": "ym2612"
    },
    {
      "channel": 2,
      "note": 56,
      "start": 23.8378,
      "duration": 0.1039,
      "velocity": 116,
      "chip": "ym2612"
    },
    {
      "channel": 1,
      "note": 61,
      "start": 23.9454,
      "duration": 0.2171,
      "velocity": 95,
      "chip": "ym2612"
    },
    {
      "channel": 3,
      "note": 57,
      "start": 23.9461,
      "duration": 0.2171,
      "velocity": 91,
      "chip": "ym2612"
    },
    {
      "channel": 2,
      "note": 37,
      "start": 23.9475,
      "duration": 0.1029,
      "velocity": 120,
      "chip": "ym2612"
    },
    {
      "channel": 5,
      "note": 61,
      "start": 24.0161,
      "duration": 0.2172,
      "velocity": 95,
      "chip": "ym2612"
    },
    {
      "channel": 2,
      "note": 56,
      "start": 24.0556,
      "duration": 0.1037,
      "velocity": 116,
      "chip": "ym2612"
    },
    {
      "channel": 1,
      "note": 59,
      "start": 24.163,
      "duration": 0.2179,
      "velocity": 95,
      "chip": "ym2612"
    },
    {
      "channel": 3,
      "note": 56,
      "start": 24.1638,
      "duration": 0.2205,
      "velocity": 91,
      "chip": "ym2612"
    },
    {
      "channel": 2,
      "note": 56,
      "start": 24.1652,
      "duration": 0.1031,
      "velocity": 116,
      "chip": "ym2612"
    },
    {
      "channel": 5,
      "note": 59,
      "start": 24.2339,
      "duration": 0.2173,
      "velocity": 95,
      "chip": "ym2612"
    },
    {
      "channel": 2,
      "note": 56,
      "start": 24.2734,
      "duration": 0.1038,
      "velocity": 116,
      "chip": "ym2612"
    },
    {
      "channel": 0,
      "note": 64,
      "start": 24.3806,
      "duration": 1.7422,
      "velocity": 91,
      "chip": "ym2612"
    },
    {
      "channel": 1,
      "note": 57,
      "start": 24.3815,
      "duration": 0.2167,
      "velocity": 95,
      "chip": "ym2612"
    },
    {
      "channel": 3,
      "note": 54,
      "start": 24.3848,
      "duration": 0.2141,
      "velocity": 91,
      "chip": "ym2612"
    },
    {
      "channel": 2,
      "note": 37,
      "start": 24.3863,
      "duration": 0.1198,
      "velocity": 120,
      "chip": "ym2612"
    },
    {
      "channel": 4,
      "note": 64,
      "start": 24.4151,
      "duration": 1.7419,
      "velocity": 91,
      "chip": "ym2612"
    },
    {
      "channel": 5,
      "note": 57,
      "start": 24.4518,
      "duration": 0.2171,
      "velocity": 95,
      "chip": "ym2612"
    },
    {
      "channel": 1,
      "note": 56,
      "start": 24.5987,
      "duration": 0.2176,
      "velocity": 95,
      "chip": "ym2612"
    },
    {
      "channel": 3,
      "note": 53,
      "start": 24.5995,
      "duration": 0.2176,
      "velocity": 91,
      "chip": "ym2612"
    },
    {
      "channel": 2,
      "note": 56,
      "start": 24.6009,
      "duration": 0.103,
      "velocity": 116,
      "chip": "ym2612"
    },
    {
      "channel": 5,
      "note": 56,
      "start": 24.6695,
      "duration": 0.2173,
      "velocity": 95,
      "chip": "ym2612"
    },
    {
      "channel": 2,
      "note": 56,
      "start": 24.709,
      "duration": 0.1041,
      "velocity": 116,
      "chip": "ym2612"
    },
    {
      "channel": 1,
      "note": 61,
      "start": 24.8169,
      "duration": 0.2168,
      "velocity": 95,
      "chip": "ym2612"
    },
    {
      "channel": 3,
      "note": 57,
      "start": 24.8177,
      "duration": 0.2168,
      "velocity": 91,
      "chip": "ym2612"
    },
    {
      "channel": 2,
      "note": 37,
      "start": 24.819,
      "duration": 0.1226,
      "velocity": 120,
      "chip": "ym2612"
    },
    {
      "channel": 5,
      "note": 61,
      "start": 24.8874,
      "duration": 0.2172,
      "velocity": 95,
      "chip": "ym2612"
    },
    {
      "channel": 1,
      "note": 59,
      "start": 25.0343,
      "duration": 0.2174,
      "velocity": 95,
      "chip": "ym2612"
    },
    {
      "channel": 3,
      "note": 56,
      "start": 25.035,
      "duration": 0.2202,
      "velocity": 91,
      "chip": "ym2612"
    },
    {
      "channel": 2,
      "note": 56,
      "start": 25.0365,
      "duration": 0.1029,
      "velocity": 116,
      "chip": "ym2612"
    },
    {
      "channel": 5,
      "note": 59,
      "start": 25.1053,
      "duration": 0.2172,
      "velocity": 95,
      "chip": "ym2612"
    },
    {
      "channel": 2,
      "note": 56,
      "start": 25.1446,
      "duration": 0.1039,
      "velocity": 116,
      "chip": "ym2612"
    },
    {
      "channel": 1,
      "note": 57,
      "start": 25.2523,
      "duration": 0.217,
      "velocity": 95,
      "chip": "ym2612"
    },
    {
      "channel": 3,
      "note": 54,
      "start": 25.2558,
      "duration": 0.2144,
      "velocity": 91,
      "chip": "ym2612"
    },
    {
      "channel": 2,
      "note": 37,
      "start": 25.2572,
      "duration": 0.1201,
      "velocity": 120,
      "chip": "ym2612"
    },
    {
      "channel": 5,
      "note": 57,
      "start": 25.3231,
      "duration": 0.2171,
      "velocity": 95,
      "chip": "ym2612"
    },
    {
      "channel": 1,
      "note": 56,
      "start": 25.47,
      "duration": 0.2173,
      "velocity": 95,
      "chip": "ym2612"
    },
    {
      "channel": 3,
      "note": 53,
      "start": 25.4707,
      "duration": 0.2174,
      "velocity": 91,
      "chip": "ym2612"
    },
    {
      "channel": 2,
      "note": 56,
      "start": 25.4722,
      "duration": 0.103,
      "velocity": 116,
      "chip": "ym2612"
    },
    {
      "channel": 5,
      "note": 56,
      "start": 25.5408,
      "duration": 0.2172,
      "velocity": 95,
      "chip": "ym2612"
    },
    {
      "channel": 2,
      "note": 56,
      "start": 25.5802,
      "duration": 0.1039,
      "velocity": 116,
      "chip": "ym2612"
    },
    {
      "channel": 1,
      "note": 61,
      "start": 25.6879,
      "duration": 0.2172,
      "velocity": 95,
      "chip": "ym2612"
    },
    {
      "channel": 3,
      "note": 57,
      "start": 25.6886,
      "duration": 0.2171,
      "velocity": 91,
      "chip": "ym2612"
    },
    {
      "channel": 2,
      "note": 37,
      "start": 25.69,
      "duration": 0.1229,
      "velocity": 120,
      "chip": "ym2612"
    },
    {
      "channel": 5,
      "note": 61,
      "start": 25.7587,
      "duration": 0.2172,
      "velocity": 95,
      "chip": "ym2612"
    },
    {
      "channel": 1,
      "note": 59,
      "start": 25.9056,
      "duration": 0.2181,
      "velocity": 95,
      "chip": "ym2612"
    },
    {
      "channel": 3,
      "note": 56,
      "start": 25.9063,
      "duration": 0.2207,
      "velocity": 91,
      "chip": "ym2612"
    },
    {
      "channel": 2,
      "note": 56,
      "start": 25.9078,
      "duration": 0.103,
      "velocity": 116,
      "chip": "ym2612"
    },
    {
      "channel": 5,
      "note": 59,
      "start": 25.9765,
      "duration": 0.2173,
      "velocity": 95,
      "chip": "ym2612"
    },
    {
      "channel": 2,
      "note": 56,
      "start": 26.0159,
      "duration": 0.1041,
      "velocity": 116,
      "chip": "ym2612"
    },
    {
      "channel": 0,
      "note": 63,
      "start": 26.1234,
      "duration": 1.7416,
      "velocity": 91,
      "chip": "ym2612"
    },
    {
      "channel": 1,
      "note": 57,
      "start": 26.1243,
      "duration": 0.2164,
      "velocity": 95,
      "chip": "ym2612"
    },
    {
      "channel": 3,
      "note": 54,
      "start": 26.1276,
      "duration": 0.2137,
      "velocity": 91,
      "chip": "ym2612"
    },
    {
      "channel": 2,
      "note": 37,
      "start": 26.129,
      "duration": 0.1195,
      "velocity": 120,
      "chip": "ym2612"
    },
    {
      "channel": 4,
      "note": 63,
      "start": 26.1576,
      "duration": 1.742,
      "velocity": 91,
      "chip": "ym2612"
    },
    {
      "channel": 5,
      "note": 57,
      "start": 26.1944,
      "duration": 0.2171,
      "velocity": 95,
      "chip": "ym2612"
    },
    {
      "channel": 1,
      "note": 56,
      "start": 26.3412,
      "duration": 0.2173,
      "velocity": 95,
      "chip": "ym2612"
    },
    {
      "channel": 3,
      "note": 53,
      "start": 26.342,
      "duration": 0.2173,
      "velocity": 91,
      "chip": "ym2612"
    },
    {
      "channel": 2,
      "note": 56,
      "start": 26.3434,
      "duration": 0.103,
      "velocity": 116,
      "chip": "ym2612"
    },
    {
      "channel": 5,
      "note": 56,
      "start": 26.4121,
      "duration": 0.2172,
      "velocity": 95,
      "chip": "ym2612"
    },
    {
      "channel": 2,
      "note": 56,
      "start": 26.4516,
      "duration": 0.1038,
      "velocity": 116,
      "chip": "ym2612"
    },
    {
      "channel": 1,
      "note": 61,
      "start": 26.5591,
      "duration": 0.2172,
      "velocity": 95,
      "chip": "ym2612"
    },
    {
      "channel": 3,
      "note": 57,
      "start": 26.5599,
      "duration": 0.2171,
      "velocity": 91,
      "chip": "ym2612"
    },
    {
      "channel": 2,
      "note": 37,
      "start": 26.5613,
      "duration": 0.1228,
      "velocity": 120,
      "chip": "ym2612"
    },
    {
      "channel": 5,
      "note": 61,
      "start": 26.6299,
      "duration": 0.2172,
      "velocity": 95,
      "chip": "ym2612"
    },
    {
      "channel": 1,
      "note": 59,
      "start": 26.7769,
      "duration": 0.2174,
      "velocity": 95,
      "chip": "ym2612"
    },
    {
      "channel": 3,
      "note": 56,
      "start": 26.7776,
      "duration": 0.2202,
      "velocity": 91,
      "chip": "ym2612"
    },
    {
      "channel": 2,
      "note": 56,
      "start": 26.779,
      "duration": 0.1029,
      "velocity": 116,
      "chip": "ym2612"
    },
    {
      "channel": 5,
      "note": 59,
      "start": 26.8478,
      "duration": 0.2173,
      "velocity": 95,
      "chip": "ym2612"
    },
    {
      "channel": 2,
      "note": 56,
      "start": 26.8871,
      "duration": 0.1039,
      "velocity": 116,
      "chip": "ym2612"
    },
    {
      "channel": 1,
      "note": 57,
      "start": 26.9949,
      "duration": 0.2169,
      "velocity": 95,
      "chip": "ym2612"
    },
    {
      "channel": 3,
      "note": 54,
      "start": 26.9983,
      "duration": 0.2143,
      "velocity": 91,
      "chip": "ym2612"
    },
    {
      "channel": 2,
      "note": 37,
      "start": 26.9997,
      "duration": 0.1201,
      "velocity": 120,
      "chip": "ym2612"
    },
    {
      "channel": 5,
      "note": 57,
      "start": 27.0656,
      "duration": 0.2171,
      "velocity": 95,
      "chip": "ym2612"
    },
    {
      "channel": 1,
      "note": 56,
      "start": 27.2124,
      "duration": 0.2173,
      "velocity": 95,
      "chip": "ym2612"
    },
    {
      "channel": 3,
      "note": 53,
      "start": 27.2132,
      "duration": 0.2174,
      "velocity": 91,
      "chip": "ym2612"
    },
    {
      "channel": 2,
      "note": 56,
      "start": 27.2146,
      "duration": 0.1031,
      "velocity": 116,
      "chip": "ym2612"
    },
    {
      "channel": 5,
      "note": 56,
      "start": 27.2834,
      "duration": 0.2172,
      "velocity": 95,
      "chip": "ym2612"
    },
    {
      "channel": 2,
      "note": 56,
      "start": 27.3229,
      "duration": 0.1037,
      "velocity": 116,
      "chip": "ym2612"
    },
    {
      "channel": 1,
      "note": 61,
      "start": 27.4304,
      "duration": 0.2172,
      "velocity": 95,
      "chip": "ym2612"
    },
    {
      "channel": 3,
      "note": 57,
      "start": 27.4311,
      "duration": 0.2172,
      "velocity": 91,
      "chip": "ym2612"
    },
    {
      "channel": 2,
      "note": 37,
      "start": 27.4325,
      "duration": 0.1029,
      "velocity": 120,
      "chip": "ym2612"
    },
    {
      "channel": 5,
      "note": 61,
      "start": 27.5011,
      "duration": 0.2172,
      "velocity": 95,
      "chip": "ym2612"
    },
    {
      "channel": 2,
      "note": 56,
      "start": 27.5406,
      "duration": 0.1039,
      "velocity": 116,
      "chip": "ym2612"
    },
    {
      "channel": 1,
      "note": 59,
      "start": 27.6481,
      "duration": 0.2178,
      "velocity": 95,
      "chip": "ym2612"
    },
    {
      "channel": 3,
      "note": 56,
      "start": 27.6489,
      "duration": 0.2204,
      "velocity": 91,
      "chip": "ym2612"
    },
    {
      "channel": 2,
      "note": 56,
      "start": 27.6503,
      "duration": 0.103,
      "velocity": 116,
      "chip": "ym2612"
    },
    {
      "channel": 5,
      "note": 59,
      "start": 27.7189,
      "duration": 0.2179,
      "velocity": 95,
      "chip": "ym2612"
    },
    {
      "channel": 2,
      "note": 56,
      "start": 27.7585,
      "duration": 0.1037,
      "velocity": 116,
      "chip": "ym2612"
    },
    {
      "channel": 0,
      "note": 66,
      "start": 27.8656,
      "duration": 1.742,
      "velocity": 91,
      "chip": "ym2612"
    },
    {
      "channel": 1,
      "note": 54,
      "start": 27.8665,
      "duration": 0.2167,
      "velocity": 95,
      "chip": "ym2612"
    },
    {
      "channel": 3,
      "note": 54,
      "start": 27.87,
      "duration": 0.2139,
      "velocity": 91,
      "chip": "ym2612"
    },
    {
      "channel": 2,
      "note": 37,
      "start": 27.8713,
      "duration": 0.1197,
      "velocity": 120,
      "chip": "ym2612"
    },
    {
      "channel": 4,
      "note": 66,
      "start": 27.9001,
      "duration": 1.742,
      "velocity": 91,
      "chip": "ym2612"
    },
    {
      "channel": 5,
      "note": 54,
      "start": 27.9374,
      "duration": 0.2167,
      "velocity": 95,
      "chip": "ym2612"
    },
    {
      "channel": 1,
      "note": 53,
      "start": 28.0837,
      "duration": 0.2173,
      "velocity": 95,
      "chip": "ym2612"
    },
    {
      "channel": 3,
      "note": 53,
      "start": 28.0844,
      "duration": 0.2174,
      "velocity": 91,
      "chip": "ym2612"
    },
    {
      "channel": 2,
      "note": 56,
      "start": 28.0859,
      "duration": 0.103,
      "velocity": 116,
      "chip": "ym2612"
    },
    {
      "channel": 5,
      "note": 53,
      "start": 28.1547,
      "duration": 0.2172,
      "velocity": 95,
      "chip": "ym2612"
    },
    {
      "channel": 2,
      "note": 56,
      "start": 28.1941,
      "duration": 0.1038,
      "velocity": 116,
      "chip": "ym2612"
    },
    {
      "channel": 1,
      "note": 57,
      "start": 28.3016,
      "duration": 0.2172,
      "velocity": 95,
      "chip": "ym2612"
    },
    {
      "channel": 3,
      "note": 57,
      "start": 28.3024,
      "duration": 0.2172,
      "velocity": 91,
      "chip": "ym2612"
    },
    {
      "channel": 2,
      "note": 37,
      "start": 28.3039,
      "duration": 0.1228,
      "velocity": 120,
      "chip": "ym2612"
    },
    {
      "channel": 5,
      "note": 57,
      "start": 28.3725,
      "duration": 0.2172,
      "velocity": 95,
      "chip": "ym2612"
    },
    {
      "channel": 1,
      "note": 56,
      "start": 28.5194,
      "duration": 0.2174,
      "velocity": 95,
      "chip": "ym2612"
    },
    {
      "channel": 3,
      "note": 56,
      "start": 28.5201,
      "duration": 0.22,
      "velocity": 91,
      "chip": "ym2612"
    },
    {
      "channel": 2,
      "note": 56,
      "start": 28.5216,
      "duration": 0.103,
      "velocity": 116,
      "chip": "ym2612"
    },
    {
      "channel": 5,
      "note": 56,
      "start": 28.5902,
      "duration": 0.2173,
      "velocity": 95,
      "chip": "ym2612"
    },
    {
      "channel": 2,
      "note": 56,
      "start": 28.6297,
      "duration": 0.1038,
      "velocity": 116,
      "chip": "ym2612"
    },
    {
      "channel": 1,
      "note": 54,
      "start": 28.7374,
      "duration": 0.2171,
      "velocity": 95,
      "chip": "ym2612"
    },
    {
      "channel": 3,
      "note": 54,
      "start": 28.7407,
      "duration": 0.2144,
      "velocity": 91,
      "chip": "ym2612"
    },
    {
      "channel": 2,
      "note": 37,
      "start": 28.7422,
      "duration": 0.1202,
      "velocity": 120,
      "chip": "ym2612"
    },
    {
      "channel": 5,
      "note": 54,
      "start": 28.8082,
      "duration": 0.2171,
      "velocity": 95,
      "chip": "ym2612"
    },
    {
      "channel": 1,
      "note": 53,
      "start": 28.9551,
      "duration": 0.2174,
      "velocity": 95,
      "chip": "ym2612"
    },
    {
      "channel": 3,
      "note": 53,
      "start": 28.9558,
      "duration": 0.2174,
      "velocity": 91,
      "chip": "ym2612"
    },
    {
      "channel": 2,
      "note": 56,
      "start": 28.9572,
      "duration": 0.1029,
      "velocity": 116,
      "chip": "ym2612"
    },
    {
      "channel": 5,
      "note": 53,
      "start": 29.0259,
      "duration": 0.2175,
      "velocity": 95,
      "chip": "ym2612"
    },
    {
      "channel": 2,
      "note": 56,
      "start": 29.0653,
      "duration": 0.1039,
      "velocity": 116,
      "chip": "ym2612"
    },
    {
      "channel": 1,
      "note": 57,
      "start": 29.173,
      "duration": 0.217,
      "velocity": 95,
      "chip": "ym2612"
    },
    {
      "channel": 3,
      "note": 57,
      "start": 29.1737,
      "duration": 0.217,
      "velocity": 91,
      "chip": "ym2612"
    },
    {
      "channel": 2,
      "note": 37,
      "start": 29.1751,
      "duration": 0.1228,
      "velocity": 120,
      "chip": "ym2612"
    },
    {
      "channel": 5,
      "note": 57,
      "start": 29.244,
      "duration": 0.2169,
      "velocity": 95,
      "chip": "ym2612"
    },
    {
      "channel": 1,
      "note": 56,
      "start": 29.3906,
      "duration": 0.2179,
      "velocity": 95,
      "chip": "ym2612"
    },
    {
      "channel": 3,
      "note": 56,
      "start": 29.3913,
      "duration": 0.2205,
      "velocity": 91,
      "chip": "ym2612"
    },
    {
      "channel": 2,
      "note": 56,
      "start": 29.3927,
      "duration": 0.1031,
      "velocity": 116,
      "chip": "ym2612"
    },
    {
      "channel": 5,
      "note": 56,
      "start": 29.4615,
      "duration": 0.2174,
      "velocity": 95,
      "chip": "ym2612"
    },
    {
      "channel": 2,
      "note": 56,
      "start": 29.5009,
      "duration": 0.1039,
      "velocity": 116,
      "chip": "ym2612"
    },
    {
      "channel": 0,
      "note": 65,
      "start": 29.6082,
      "duration": 1.7419,
      "velocity": 91,
      "chip": "ym2612"
    },
    {
      "channel": 1,
      "note": 54,
      "start": 29.609,
      "duration": 0.2167,
      "velocity": 95,
      "chip": "ym2612"
    },
    {
      "channel": 3,
      "note": 54,
      "start": 29.6124,
      "duration": 0.214,
      "velocity": 91,
      "chip": "ym2612"
    },
    {
      "channel": 2,
      "note": 37,
      "start": 29.6138,
      "duration": 0.1199,
      "velocity": 120,
      "chip": "ym2612"
    },
    {
      "channel": 4,
      "note": 65,
      "start": 29.6427,
      "duration": 1.7419,
      "velocity": 91,
      "chip": "ym2612"
    },
    {
      "channel": 5,
      "note": 54,
      "start": 29.6794,
      "duration": 0.2171,
      "velocity": 95,
      "chip": "ym2612"
    },
    {
      "channel": 1,
      "note": 53,
      "start": 29.8262,
      "duration": 0.2173,
      "velocity": 95,
      "chip": "ym2612"
    },
    {
      "channel": 3,
      "note": 53,
      "start": 29.827,
      "duration": 0.2173,
      "velocity": 91,
      "chip": "ym2612"
    },
    {
      "channel": 2,
      "note": 56,
      "start": 29.8284,
      "duration": 0.103,
      "velocity": 116,
      "chip": "ym2612"
    },
    {
      "channel": 5,
      "note": 53,
      "start": 29.8972,
      "duration": 0.2173,
      "velocity": 95,
      "chip": "ym2612"
    },
    {
      "channel": 2,
      "note": 56,
      "start": 29.9366,
      "duration": 0.1038,
      "velocity": 116,
      "chip": "ym2612"
    },
    {
      "channel": 1,
      "note": 57,
      "start": 30.0441,
      "duration": 0.2172,
      "velocity": 95,
      "chip": "ym2612"
    },
    {
      "channel": 3,
      "note": 57,
      "start": 30.0449,
      "duration": 0.2172,
      "velocity": 91,
      "chip": "ym2612"
    },
    {
      "channel": 2,
      "note": 37,
      "start": 30.0463,
      "duration": 0.123,
      "velocity": 120,
      "chip": "ym2612"
    },
    {
      "channel": 5,
      "note": 57,
      "start": 30.115,
      "duration": 0.2171,
      "velocity": 95,
      "chip": "ym2612"
    },
    {
      "channel": 1,
      "note": 56,
      "start": 30.2619,
      "duration": 0.2174,
      "velocity": 95,
      "chip": "ym2612"
    },
    {
      "channel": 3,
      "note": 56,
      "start": 30.2626,
      "duration": 0.22,
      "velocity": 91,
      "chip": "ym2612"
    },
    {
      "channel": 2,
      "note": 56,
      "start": 30.2641,
      "duration": 0.103,
      "velocity": 116,
      "chip": "ym2612"
    },
    {
      "channel": 5,
      "note": 56,
      "start": 30.3327,
      "duration": 0.2174,
      "velocity": 95,
      "chip": "ym2612"
    },
    {
      "channel": 2,
      "note": 56,
      "start": 30.3722,
      "duration": 0.1038,
      "velocity": 116,
      "chip": "ym2612"
    },
    {
      "channel": 1,
      "note": 54,
      "start": 30.4799,
      "duration": 0.2171,
      "velocity": 95,
      "chip": "ym2612"
    },
    {
      "channel": 3,
      "note": 54,
      "start": 30.4832,
      "duration": 0.2144,
      "velocity": 91,
      "chip": "ym2612"
    },
    {
      "channel": 2,
      "note": 37,
      "start": 30.4846,
      "duration": 0.1202,
      "velocity": 120,
      "chip": "ym2612"
    },
    {
      "channel": 5,
      "note": 54,
      "start": 30.5507,
      "duration": 0.2171,
      "velocity": 95,
      "chip": "ym2612"
    },
    {
      "channel": 1,
      "note": 53,
      "start": 30.6976,
      "duration": 0.2173,
      "velocity": 95,
      "chip": "ym2612"
    },
    {
      "channel": 3,
      "note": 53,
      "start": 30.6983,
      "duration": 0.2174,
      "velocity": 91,
      "chip": "ym2612"
    },
    {
      "channel": 2,
      "note": 56,
      "start": 30.6997,
      "duration": 0.1029,
      "velocity": 116,
      "chip": "ym2612"
    },
    {
      "channel": 5,
      "note": 53,
      "start": 30.7684,
      "duration": 0.2173,
      "velocity": 95,
      "chip": "ym2612"
    },
    {
      "channel": 2,
      "note": 56,
      "start": 30.8078,
      "duration": 0.1039,
      "velocity": 116,
      "chip": "ym2612"
    },
    {
      "channel": 1,
      "note": 57,
      "start": 30.9154,
      "duration": 0.2172,
      "velocity": 95,
      "chip": "ym2612"
    },
    {
      "channel": 3,
      "note": 57,
      "start": 30.9162,
      "duration": 0.2171,
      "velocity": 91,
      "chip": "ym2612"
    },
    {
      "channel": 2,
      "note": 37,
      "start": 30.9176,
      "duration": 0.103,
      "velocity": 120,
      "chip": "ym2612"
    },
    {
      "channel": 5,
      "note": 57,
      "start": 30.9863,
      "duration": 0.2172,
      "velocity": 95,
      "chip": "ym2612"
    },
    {
      "channel": 2,
      "note": 56,
      "start": 31.0257,
      "duration": 0.1038,
      "velocity": 116,
      "chip": "ym2612"
    },
    {
      "channel": 1,
      "note": 56,
      "start": 31.1332,
      "duration": 0.2178,
      "velocity": 95,
      "chip": "ym2612"
    },
    {
      "channel": 3,
      "note": 56,
      "start": 31.1339,
      "duration": 0.2204,
      "velocity": 91,
      "chip": "ym2612"
    },
    {
      "channel": 2,
      "note": 56,
      "start": 31.1353,
      "duration": 0.1031,
      "velocity": 116,
      "chip": "ym2612"
    },
    {
      "channel": 5,
      "note": 56,
      "start": 31.204,
      "duration": 0.2173,
      "velocity": 95,
      "chip": "ym2612"
    },
    {
      "channel": 2,
      "note": 56,
      "start": 31.2435,
      "duration": 0.1037,
      "velocity": 116,
      "chip": "ym2612"
    },
    {
      "channel": 0,
      "note": 68,
      "start": 31.3507,
      "duration": 1.742,
      "velocity": 91,
      "chip": "ym2612"
    },
    {
      "channel": 1,
      "note": 54,
      "start": 31.3515,
      "duration": 0.2167,
      "velocity": 95,
      "chip": "ym2612"
    },
    {
      "channel": 3,
      "note": 54,
      "start": 31.3549,
      "duration": 0.2141,
      "velocity": 91,
      "chip": "ym2612"
    },
    {
      "channel": 2,
      "note": 37,
      "start": 31.3563,
      "duration": 0.1197,
      "velocity": 120,
      "chip": "ym2612"
    },
    {
      "channel": 4,
      "note": 68,
      "start": 31.3851,
      "duration": 1.7419,
      "velocity": 91,
      "chip": "ym2612"
    },
    {
      "channel": 5,
      "note": 54,
      "start": 31.4219,
      "duration": 0.2172,
      "velocity": 95,
      "chip": "ym2612"
    },
    {
      "channel": 1,
      "note": 53,
      "start": 31.5688,
      "duration": 0.2174,
      "velocity": 95,
      "chip": "ym2612"
    },
    {
      "channel": 3,
      "note": 53,
      "start": 31.5696,
      "duration": 0.2173,
      "velocity": 91,
      "chip": "ym2612"
    },
    {
      "channel": 2,
      "note": 56,
      "start": 31.571,
      "duration": 0.1029,
      "velocity": 116,
      "chip": "ym2612"
    },
    {
      "channel": 5,
      "note": 53,
      "start": 31.6397,
      "duration": 0.2172,
      "velocity": 95,
      "chip": "ym2612"
    },
    {
      "channel": 2,
      "note": 56,
      "start": 31.679,
      "duration": 0.1039,
      "velocity": 116,
      "chip": "ym2612"
    },
    {
      "channel": 1,
      "note": 57,
      "start": 31.7868,
      "duration": 0.2171,
      "velocity": 95,
      "chip": "ym2612"
    },
    {
      "channel": 3,
      "note": 57,
      "start": 31.7875,
      "duration": 0.2171,
      "velocity": 91,
      "chip": "ym2612"
    },
    {
      "channel": 2,
      "note": 37,
      "start": 31.7889,
      "duration": 0.1231,
      "velocity": 120,
      "chip": "ym2612"
    },
    {
      "channel": 5,
      "note": 57,
      "start": 31.8575,
      "duration": 0.2172,
      "velocity": 95,
      "chip": "ym2612"
    },
    {
      "channel": 1,
      "note": 56,
      "start": 32.0044,
      "duration": 0.2175,
      "velocity": 95,
      "chip": "ym2612"
    },
    {
      "channel": 3,
      "note": 56,
      "start": 32.0052,
      "duration": 0.2201,
      "velocity": 91,
      "chip": "ym2612"
    },
    {
      "channel": 2,
      "note": 56,
      "start": 32.0066,
      "duration": 0.1031,
      "velocity": 116,
      "chip": "ym2612"
    },
    {
      "channel": 5,
      "note": 56,
      "start": 32.0753,
      "duration": 0.2174,
      "velocity": 95,
      "chip": "ym2612"
    },
    {
      "channel": 2,
      "note": 56,
      "start": 32.1147,
      "duration": 0.1039,
      "velocity": 116,
      "chip": "ym2612"
    },
    {
      "channel": 1,
      "note": 54,
      "start": 32.2225,
      "duration": 0.2171,
      "velocity": 95,
      "chip": "ym2612"
    },
    {
      "channel": 3,
      "note": 54,
      "start": 32.2259,
      "duration": 0.2144,
      "velocity": 91,
      "chip": "ym2612"
    },
    {
      "channel": 2,
      "note": 37,
      "start": 32.2273,
      "duration": 0.1201,
      "velocity": 120,
      "chip": "ym2612"
    },
    {
      "channel": 5,
      "note": 54,
      "start": 32.2932,
      "duration": 0.2172,
      "velocity": 95,
      "chip": "ym2612"
    },
    {
      "channel": 1,
      "note": 53,
      "start": 32.4401,
      "duration": 0.2173,
      "velocity": 95,
      "chip": "ym2612"
    },
    {
      "channel": 3,
      "note": 53,
      "start": 32.4408,
      "duration": 0.2174,
      "velocity": 91,
      "chip": "ym2612"
    },
    {
      "channel": 2,
      "note": 56,
      "start": 32.4423,
      "duration": 0.103,
      "velocity": 116,
      "chip": "ym2612"
    },
    {
      "channel": 5,
      "note": 53,
      "start": 32.511,
      "duration": 0.2172,
      "velocity": 95,
      "chip": "ym2612"
    },
    {
      "channel": 2,
      "note": 56,
      "start": 32.5504,
      "duration": 0.1039,
      "velocity": 116,
      "chip": "ym2612"
    },
    {
      "channel": 1,
      "note": 57,
      "start": 32.658,
      "duration": 0.2171,
      "velocity": 95,
      "chip": "ym2612"
    },
    {
      "channel": 3,
      "note": 57,
      "start": 32.6588,
      "duration": 0.2171,
      "velocity": 91,
      "chip": "ym2612"
    },
    {
      "channel": 2,
      "note": 37,
      "start": 32.6602,
      "duration": 0.1228,
      "velocity": 120,
      "chip": "ym2612"
    },
    {
      "channel": 5,
      "note": 57,
      "start": 32.7288,
      "duration": 0.2172,
      "velocity": 95,
      "chip": "ym2612"
    },
    {
      "channel": 1,
      "note": 56,
      "start": 32.8757,
      "duration": 0.2178,
      "velocity": 95,
      "chip": "ym2612"
    },
    {
      "channel": 3,
      "note": 56,
      "start": 32.8764,
      "duration": 0.2205,
      "velocity": 91,
      "chip": "ym2612"
    },
    {
      "channel": 2,
      "note": 56,
      "start": 32.8778,
      "duration": 0.103,
      "velocity": 116,
      "chip": "ym2612"
    },
    {
      "channel": 5,
      "note": 56,
      "start": 32.9465,
      "duration": 0.2174,
      "velocity": 95,
      "chip": "ym2612"
    },
    {
      "channel": 2,
      "note": 56,
      "start": 32.986,
      "duration": 0.1039,
      "velocity": 116,
      "chip": "ym2612"
    },
    {
      "channel": 0,
      "note": 69,
      "start": 33.0932,
      "duration": 1.7445,
      "velocity": 79,
      "chip": "ym2612"
    },
    {
      "channel": 1,
      "note": 54,
      "start": 33.0941,
      "duration": 0.2167,
      "velocity": 95,
      "chip": "ym2612"
    },
    {
      "channel": 3,
      "note": 54,
      "start": 33.0974,
      "duration": 0.2141,
      "velocity": 91,
      "chip": "ym2612"
    },
    {
      "channel": 2,
      "note": 37,
      "start": 33.0988,
      "duration": 0.1199,
      "velocity": 120,
      "chip": "ym2612"
    },
    {
      "channel": 4,
      "note": 69,
      "start": 33.1277,
      "duration": 1.7445,
      "velocity": 79,
      "chip": "ym2612"
    },
    {
      "channel": 5,
      "note": 54,
      "start": 33.1645,
      "duration": 0.2171,
      "velocity": 95,
      "chip": "ym2612"
    },
    {
      "channel": 1,
      "note": 53,
      "start": 33.3114,
      "duration": 0.2173,
      "velocity": 95,
      "chip": "ym2612"
    },
    {
      "channel": 3,
      "note": 53,
      "start": 33.3121,
      "duration": 0.2173,
      "velocity": 91,
      "chip": "ym2612"
    },
    {
      "channel": 2,
      "note": 56,
      "start": 33.3135,
      "duration": 0.103,
      "velocity": 116,
      "chip": "ym2612"
    },
    {
      "channel": 5,
      "note": 53,
      "start": 33.3823,
      "duration": 0.2171,
      "velocity": 95,
      "chip": "ym2612"
    },
    {
      "channel": 2,
      "note": 56,
      "start": 33.4217,
      "duration": 0.1038,
      "velocity": 116,
      "chip": "ym2612"
    },
    {
      "channel": 1,
      "note": 57,
      "start": 33.5292,
      "duration": 0.2171,
      "velocity": 95,
      "chip": "ym2612"
    },
    {
      "channel": 3,
      "note": 57,
      "start": 33.53,
      "duration": 0.2171,
      "velocity": 91,
      "chip": "ym2612"
    },
    {
      "channel": 2,
      "note": 37,
      "start": 33.5314,
      "duration": 0.1229,
      "velocity": 120,
      "chip": "ym2612"
    },
    {
      "channel": 5,
      "note": 57,
      "start": 33.6,
      "duration": 0.2172,
      "velocity": 95,
      "chip": "ym2612"
    },
    {
      "channel": 1,
      "note": 56,
      "start": 33.7469,
      "duration": 0.2175,
      "velocity": 95,
      "chip": "ym2612"
    },
    {
      "channel": 3,
      "note": 56,
      "start": 33.7477,
      "duration": 0.2201,
      "velocity": 91,
      "chip": "ym2612"
    },
    {
      "channel": 2,
      "note": 56,
      "start": 33.7491,
      "duration": 0.103,
      "velocity": 116,
      "chip": "ym2612"
    },
    {
      "channel": 5,
      "note": 56,
      "start": 33.8178,
      "duration": 0.2174,
      "velocity": 95,
      "chip": "ym2612"
    },
    {
      "channel": 2,
      "note": 56,
      "start": 33.8572,
      "duration": 0.1039,
      "velocity": 116,
      "chip": "ym2612"
    },
    {
      "channel": 1,
      "note": 54,
      "start": 33.965,
      "duration": 0.2171,
      "velocity": 95,
      "chip": "ym2612"
    },
    {
      "channel": 3,
      "note": 54,
      "start": 33.9683,
      "duration": 0.2144,
      "velocity": 91,
      "chip": "ym2612"
    },
    {
      "channel": 2,
      "note": 37,
      "start": 33.9698,
      "duration": 0.1201,
      "velocity": 120,
      "chip": "ym2612"
    },
    {
      "channel": 5,
      "note": 54,
      "start": 34.0358,
      "duration": 0.2171,
      "velocity": 95,
      "chip": "ym2612"
    },
    {
      "channel": 1,
      "note": 53,
      "start": 34.1826,
      "duration": 0.2174,
      "velocity": 95,
      "chip": "ym2612"
    },
    {
      "channel": 3,
      "note": 53,
      "start": 34.1833,
      "duration": 0.2174,
      "velocity": 91,
      "chip": "ym2612"
    },
    {
      "channel": 2,
      "note": 56,
      "start": 34.1848,
      "duration": 0.1029,
      "velocity": 116,
      "chip": "ym2612"
    },
    {
      "channel": 5,
      "note": 53,
      "start": 34.2535,
      "duration": 0.2172,
      "velocity": 95,
      "chip": "ym2612"
    },
    {
      "channel": 2,
      "note": 56,
      "start": 34.2929,
      "duration": 0.1039,
      "velocity": 116,
      "chip": "ym2612"
    },
    {
      "channel": 1,
      "note": 57,
      "start": 34.4005,
      "duration": 0.2171,
      "velocity": 95,
      "chip": "ym2612"
    },
    {
      "channel": 3,
      "note": 57,
      "start": 34.4013,
      "duration": 0.2171,
      "velocity": 91,
      "chip": "ym2612"
    },
    {
      "channel": 2,
      "note": 37,
      "start": 34.4027,
      "duration": 0.1029,
      "velocity": 120,
      "chip": "ym2612"
    },
    {
      "channel": 5,
      "note": 57,
      "start": 34.4713,
      "duration": 0.2172,
      "velocity": 95,
      "chip": "ym2612"
    },
    {
      "channel": 2,
      "note": 56,
      "start": 34.5107,
      "duration": 0.1038,
      "velocity": 116,
      "chip": "ym2612"
    },
    {
      "channel": 1,
      "note": 56,
      "start": 34.6182,
      "duration": 0.2203,
      "velocity": 95,
      "chip": "ym2612"
    },
    {
      "channel": 3,
      "note": 56,
      "start": 34.619,
      "duration": 0.2229,
      "velocity": 91,
      "chip": "ym2612"
    },
    {
      "channel": 2,
      "note": 56,
      "start": 34.6205,
      "duration": 0.103,
      "velocity": 116,
      "chip": "ym2612"
    },
    {
      "channel": 5,
      "note": 56,
      "start": 34.6891,
      "duration": 0.2173,
      "velocity": 95,
      "chip": "ym2612"
    },
    {
      "channel": 2,
      "note": 56,
      "start": 34.7285,
      "duration": 0.1039,
      "velocity": 116,
      "chip": "ym2612"
    },
    {
      "channel": 0,
      "note": 66,
      "start": 34.8383,
      "duration": 0.1031,
      "velocity": 79,
      "chip": "ym2612"
    },
    {
      "channel": 1,
      "note": 53,
      "start": 34.8392,
      "duration": 0.103,
      "velocity": 95,
      "chip": "ym2612"
    },
    {
      "channel": 3,
      "note": 54,
      "start": 34.8425,
      "duration": 0.2119,
      "velocity": 91,
      "chip": "ym2612"
    },
    {
      "channel": 2,
      "note": 37,
      "start": 34.8439,
      "duration": 0.1173,
      "velocity": 120,
      "chip": "ym2612"
    },
    {
      "channel": 4,
      "note": 66,
      "start": 34.8729,
      "duration": 0.1056,
      "velocity": 79,
      "chip": "ym2612"
    },
    {
      "channel": 5,
      "note": 53,
      "start": 34.907,
      "duration": 0.1083,
      "velocity": 95,
      "chip": "ym2612"
    },
    {
      "channel": 0,
      "note": 65,
      "start": 34.942,
      "duration": 0.111,
      "velocity": 79,
      "chip": "ym2612"
    },
    {
      "channel": 1,
      "note": 54,
      "start": 34.9427,
      "duration": 0.111,
      "velocity": 95,
      "chip": "ym2612"
    },
    {
      "channel": 4,
      "note": 65,
      "start": 34.9792,
      "duration": 0.1083,
      "velocity": 79,
      "chip": "ym2612"
    },
    {
      "channel": 5,
      "note": 54,
      "start": 35.0159,
      "duration": 0.1082,
      "velocity": 95,
      "chip": "ym2612"
    },
    {
      "channel": 0,
      "note": 66,
      "start": 35.0536,
      "duration": 0.1082,
      "velocity": 79,
      "chip": "ym2612"
    },
    {
      "channel": 1,
      "note": 55,
      "start": 35.0543,
      "duration": 0.1083,
      "velocity": 95,
      "chip": "ym2612"
    },
    {
      "channel": 3,
      "note": 53,
      "start": 35.0551,
      "duration": 0.2169,
      "velocity": 91,
      "chip": "ym2612"
    },
    {
      "channel": 2,
      "note": 56,
      "start": 35.0565,
      "duration": 0.1025,
      "velocity": 116,
      "chip": "ym2612"
    },
    {
      "channel": 4,
      "note": 66,
      "start": 35.0881,
      "duration": 0.1083,
      "velocity": 79,
      "chip": "ym2612"
    },
    {
      "channel": 5,
      "note": 55,
      "start": 35.1246,
      "duration": 0.1084,
      "velocity": 95,
      "chip": "ym2612"
    },
    {
      "channel": 0,
      "note": 65,
      "start": 35.1624,
      "duration": 0.1085,
      "velocity": 79,
      "chip": "ym2612"
    },
    {
      "channel": 1,
      "note": 56,
      "start": 35.1631,
      "duration": 0.1085,
      "velocity": 95,
      "chip": "ym2612"
    },
    {
      "channel": 2,
      "note": 56,
      "start": 35.1649,
      "duration": 0.1031,
      "velocity": 116,
      "chip": "ym2612"
    },
    {
      "channel": 4,
      "note": 65,
      "start": 35.1971,
      "duration": 0.108,
      "velocity": 79,
      "chip": "ym2612"
    },
    {
      "channel": 5,
      "note": 56,
      "start": 35.2336,
      "duration": 0.108,
      "velocity": 95,
      "chip": "ym2612"
    },
    {
      "channel": 0,
      "note": 66,
      "start": 35.2715,
      "duration": 0.1055,
      "velocity": 79,
      "chip": "ym2612"
    },
    {
      "channel": 3,
      "note": 57,
      "start": 35.2726,
      "duration": 0.2179,
      "velocity": 91,
      "chip": "ym2612"
    },
    {
      "channel": 2,
      "note": 37,
      "start": 35.2739,
      "duration": 0.1223,
      "velocity": 120,
      "chip": "ym2612"
    },
    {
      "channel": 4,
      "note": 66,
      "start": 35.3057,
      "duration": 0.1083,
      "velocity": 79,
      "chip": "ym2612"
    },
    {
      "channel": 0,
      "note": 65,
      "start": 35.3775,
      "duration": 0.1115,
      "velocity": 79,
      "chip": "ym2612"
    },
    {
      "channel": 4,
      "note": 65,
      "start": 35.4145,
      "duration": 0.1085,
      "velocity": 79,
      "chip": "ym2612"
    },
    {
      "channel": 0,
      "note": 66,
      "start": 35.4896,
      "duration": 0.1078,
      "velocity": 79,
      "chip": "ym2612"
    },
    {
      "channel": 1,
      "note": 53,
      "start": 35.4904,
      "duration": 0.1078,
      "velocity": 95,
      "chip": "ym2612"
    },
    {
      "channel": 3,
      "note": 56,
      "start": 35.4911,
      "duration": 0.2221,
      "velocity": 91,
      "chip": "ym2612"
    },
    {
      "channel": 2,
      "note": 56,
      "start": 35.4922,
      "duration": 0.1024,
      "velocity": 116,
      "chip": "ym2612"
    },
    {
      "channel": 4,
      "note": 66,
      "start": 35.5236,
      "duration": 0.1084,
      "velocity": 79,
      "chip": "ym2612"
    },
    {
      "channel": 5,
      "note": 53,
      "start": 35.5603,
      "duration": 0.1083,
      "velocity": 95,
      "chip": "ym2612"
    },
    {
      "channel": 0,
      "note": 67,
      "start": 35.5981,
      "duration": 0.111,
      "velocity": 79,
      "chip": "ym2612"
    },
    {
      "channel": 1,
      "note": 54,
      "start": 35.5988,
      "duration": 0.1111,
      "velocity": 95,
      "chip": "ym2612"
    },
    {
      "channel": 2,
      "note": 56,
      "start": 35.6005,
      "duration": 0.1031,
      "velocity": 116,
      "chip": "ym2612"
    },
    {
      "channel": 4,
      "note": 67,
      "start": 35.6326,
      "duration": 0.1111,
      "velocity": 79,
      "chip": "ym2612"
    },
    {
      "channel": 5,
      "note": 54,
      "start": 35.6693,
      "duration": 0.1084,
      "velocity": 95,
      "chip": "ym2612"
    },
    {
      "channel": 0,
      "note": 68,
      "start": 35.7096,
      "duration": 0.1031,
      "velocity": 79,
      "chip": "ym2612"
    },
    {
      "channel": 1,
      "note": 55,
      "start": 35.7104,
      "duration": 0.103,
      "velocity": 95,
      "chip": "ym2612"
    },
    {
      "channel": 3,
      "note": 54,
      "start": 35.7138,
      "duration": 0.2115,
      "velocity": 91,
      "chip": "ym2612"
    },
    {
      "channel": 2,
      "note": 37,
      "start": 35.7152,
      "duration": 0.1172,
      "velocity": 120,
      "chip": "ym2612"
    },
    {
      "channel": 4,
      "note": 68,
      "start": 35.7442,
      "duration": 0.1056,
      "velocity": 79,
      "chip": "ym2612"
    },
    {
      "channel": 5,
      "note": 55,
      "start": 35.7782,
      "duration": 0.1084,
      "velocity": 95,
      "chip": "ym2612"
    },
    {
      "channel": 0,
      "note": 67,
      "start": 35.8133,
      "duration": 0.111,
      "velocity": 79,
      "chip": "ym2612"
    },
    {
      "channel": 1,
      "note": 56,
      "start": 35.814,
      "duration": 0.1109,
      "velocity": 95,
      "chip": "ym2612"
    },
    {
      "channel": 4,
      "note": 67,
      "start": 35.8505,
      "duration": 0.108,
      "velocity": 79,
      "chip": "ym2612"
    },
    {
      "channel": 5,
      "note": 56,
      "start": 35.8873,
      "duration": 0.1079,
      "velocity": 95,
      "chip": "ym2612"
    },
    {
      "channel": 0,
      "note": 68,
      "start": 35.9248,
      "duration": 0.1083,
      "velocity": 79,
      "chip": "ym2612"
    },
    {
      "channel": 3,
      "note": 53,
      "start": 35.9258,
      "duration": 0.2171,
      "velocity": 91,
      "chip": "ym2612"
    },
    {
      "channel": 2,
      "note": 56,
      "start": 35.9273,
      "duration": 0.103,
      "velocity": 116,
      "chip": "ym2612"
    },
    {
      "channel": 4,
      "note": 68,
      "start": 35.959,
      "duration": 0.1083,
      "velocity": 79,
      "chip": "ym2612"
    },
    {
      "channel": 0,
      "note": 67,
      "start": 36.0337,
      "duration": 0.1085,
      "velocity": 79,
      "chip": "ym2612"
    },
    {
      "channel": 2,
      "note": 56,
      "start": 36.0353,
      "duration": 0.104,
      "velocity": 116,
      "chip": "ym2612"
    },
    {
      "channel": 4,
      "note": 67,
      "start": 36.068,
      "duration": 0.1084,
      "velocity": 79,
      "chip": "ym2612"
    },
    {
      "channel": 0,
      "note": 68,
      "start": 36.1427,
      "duration": 0.1056,
      "velocity": 79,
      "chip": "ym2612"
    },
    {
      "channel": 3,
      "note": 57,
      "start": 36.1435,
      "duration": 0.2171,
      "velocity": 91,
      "chip": "ym2612"
    },
    {
      "channel": 2,
      "note": 37,
      "start": 36.1447,
      "duration": 0.1229,
      "velocity": 120,
      "chip": "ym2612"
    },
    {
      "channel": 4,
      "note": 68,
      "start": 36.1769,
      "duration": 0.1083,
      "velocity": 79,
      "chip": "ym2612"
    },
    {
      "channel": 0,
      "note": 67,
      "start": 36.2489,
      "duration": 0.111,
      "velocity": 79,
      "chip": "ym2612"
    },
    {
      "channel": 4,
      "note": 67,
      "start": 36.2858,
      "duration": 0.1088,
      "velocity": 79,
      "chip": "ym2612"
    },
    {
      "channel": 0,
      "note": 68,
      "start": 36.3605,
      "duration": 0.1083,
      "velocity": 79,
      "chip": "ym2612"
    },
    {
      "channel": 3,
      "note": 56,
      "start": 36.3612,
      "duration": 0.2232,
      "velocity": 91,
      "chip": "ym2612"
    },
    {
      "channel": 2,
      "note": 56,
      "start": 36.3624,
      "duration": 0.1036,
      "velocity": 116,
      "chip": "ym2612"
    },
    {
      "channel": 4,
      "note": 68,
      "start": 36.3951,
      "duration": 0.108,
      "velocity": 79,
      "chip": "ym2612"
    },
    {
      "channel": 0,
      "note": 69,
      "start": 36.4694,
      "duration": 0.1109,
      "velocity": 79,
      "chip": "ym2612"
    },
    {
      "channel": 2,
      "note": 56,
      "start": 36.471,
      "duration": 0.1038,
      "velocity": 116,
      "chip": "ym2612"
    },
    {
      "channel": 4,
      "note": 69,
      "start": 36.5037,
      "duration": 0.1113,
      "velocity": 79,
      "chip": "ym2612"
    },
    {
      "channel": 0,
      "note": 70,
      "start": 36.5809,
      "duration": 0.1031,
      "velocity": 79,
      "chip": "ym2612"
    },
    {
      "channel": 1,
      "note": 53,
      "start": 36.5817,
      "duration": 0.103,
      "velocity": 95,
      "chip": "ym2612"
    },
    {
      "channel": 3,
      "note": 54,
      "start": 36.585,
      "duration": 0.2121,
      "velocity": 91,
      "chip": "ym2612"
    },
    {
      "channel": 2,
      "note": 37,
      "start": 36.5862,
      "duration": 0.1176,
      "velocity": 120,
      "chip": "ym2612"
    },
    {
      "channel": 4,
      "note": 70,
      "start": 36.6156,
      "duration": 0.1055,
      "velocity": 79,
      "chip": "ym2612"
    },
    {
      "channel": 5,
      "note": 53,
      "start": 36.6494,
      "duration": 0.1084,
      "velocity": 95,
      "chip": "ym2612"
    },
    {
      "channel": 0,
      "note": 69,
      "start": 36.6845,
      "duration": 0.1111,
      "velocity": 79,
      "chip": "ym2612"
    },
    {
      "channel": 1,
      "note": 54,
      "start": 36.6853,
      "duration": 0.1111,
      "velocity": 95,
      "chip": "ym2612"
    },
    {
      "channel": 4,
      "note": 69,
      "start": 36.7217,
      "duration": 0.1083,
      "velocity": 79,
      "chip": "ym2612"
    },
    {
      "channel": 5,
      "note": 54,
      "start": 36.7584,
      "duration": 0.1082,
      "velocity": 95,
      "chip": "ym2612"
    },
    {
      "channel": 0,
      "note": 70,
      "start": 36.7963,
      "duration": 0.1081,
      "velocity": 79,
      "chip": "ym2612"
    },
    {
      "channel": 1,
      "note": 55,
      "start": 36.797,
      "duration": 0.1081,
      "velocity": 95,
      "chip": "ym2612"
    },
    {
      "channel": 3,
      "note": 53,
      "start": 36.7978,
      "duration": 0.2167,
      "velocity": 91,
      "chip": "ym2612"
    },
    {
      "channel": 2,
      "note": 56,
      "start": 36.7991,
      "duration": 0.1024,
      "velocity": 116,
      "chip": "ym2612"
    },
    {
      "channel": 4,
      "note": 70,
      "start": 36.8306,
      "duration": 0.1083,
      "velocity": 79,
      "chip": "ym2612"
    },
    {
      "channel": 5,
      "note": 55,
      "start": 36.8672,
      "duration": 0.1084,
      "velocity": 95,
      "chip": "ym2612"
    },
    {
      "channel": 0,
      "note": 69,
      "start": 36.9049,
      "duration": 0.1084,
      "velocity": 79,
      "chip": "ym2612"
    },
    {
      "channel": 1,
      "note": 56,
      "start": 36.9057,
      "duration": 0.1084,
      "velocity": 95,
      "chip": "ym2612"
    },
    {
      "channel": 2,
      "note": 56,
      "start": 36.9074,
      "duration": 0.1031,
      "velocity": 116,
      "chip": "ym2612"
    },
    {
      "channel": 4,
      "note": 69,
      "start": 36.9395,
      "duration": 0.1079,
      "velocity": 79,
      "chip": "ym2612"
    },
    {
      "channel": 5,
      "note": 56,
      "start": 36.9762,
      "duration": 0.108,
      "velocity": 95,
      "chip": "ym2612"
    },
    {
      "channel": 0,
      "note": 70,
      "start": 37.014,
      "duration": 0.1055,
      "velocity": 79,
      "chip": "ym2612"
    },
    {
      "channel": 3,
      "note": 57,
      "start": 37.015,
      "duration": 0.2168,
      "velocity": 91,
      "chip": "ym2612"
    },
    {
      "channel": 2,
      "note": 37,
      "start": 37.0164,
      "duration": 0.1224,
      "velocity": 120,
      "chip": "ym2612"
    },
    {
      "channel": 4,
      "note": 70,
      "start": 37.0481,
      "duration": 0.1083,
      "velocity": 79,
      "chip": "ym2612"
    },
    {
      "channel": 0,
      "note": 69,
      "start": 37.1201,
      "duration": 0.1109,
      "velocity": 79,
      "chip": "ym2612"
    },
    {
      "channel": 4,
      "note": 69,
      "start": 37.157,
      "duration": 0.1083,
      "velocity": 79,
      "chip": "ym2612"
    },
    {
      "channel": 0,
      "note": 70,
      "start": 37.2317,
      "duration": 0.1084,
      "velocity": 79,
      "chip": "ym2612"
    },
    {
      "channel": 3,
      "note": 56,
      "start": 37.2325,
      "duration": 0.2227,
      "velocity": 91,
      "chip": "ym2612"
    },
    {
      "channel": 2,
      "note": 56,
      "start": 37.2336,
      "duration": 0.1036,
      "velocity": 116,
      "chip": "ym2612"
    },
    {
      "channel": 4,
      "note": 70,
      "start": 37.266,
      "duration": 0.1083,
      "velocity": 79,
      "chip": "ym2612"
    },
    {
      "channel": 0,
      "note": 71,
      "start": 37.3406,
      "duration": 0.111,
      "velocity": 79,
      "chip": "ym2612"
    },
    {
      "channel": 2,
      "note": 56,
      "start": 37.3422,
      "duration": 0.104,
      "velocity": 116,
      "chip": "ym2612"
    },
    {
      "channel": 4,
      "note": 71,
      "start": 37.375,
      "duration": 0.111,
      "velocity": 79,
      "chip": "ym2612"
    },
    {
      "channel": 0,
      "note": 72,
      "start": 37.4523,
      "duration": 0.1029,
      "velocity": 79,
      "chip": "ym2612"
    },
    {
      "channel": 3,
      "note": 54,
      "start": 37.4558,
      "duration": 0.2118,
      "velocity": 91,
      "chip": "ym2612"
    },
    {
      "channel": 2,
      "note": 37,
      "start": 37.4569,
      "duration": 0.1175,
      "velocity": 120,
      "chip": "ym2612"
    },
    {
      "channel": 4,
      "note": 72,
      "start": 37.4866,
      "duration": 0.1056,
      "velocity": 79,
      "chip": "ym2612"
    },
    {
      "channel": 0,
      "note": 71,
      "start": 37.5558,
      "duration": 0.1109,
      "velocity": 79,
      "chip": "ym2612"
    },
    {
      "channel": 4,
      "note": 71,
      "start": 37.5928,
      "duration": 0.1085,
      "velocity": 79,
      "chip": "ym2612"
    },
    {
      "channel": 0,
      "note": 72,
      "start": 37.6673,
      "duration": 0.1083,
      "velocity": 79,
      "chip": "ym2612"
    },
    {
      "channel": 3,
      "note": 53,
      "start": 37.6681,
      "duration": 0.2173,
      "velocity": 91,
      "chip": "ym2612"
    },
    {
      "channel": 2,
      "note": 56,
      "start": 37.6693,
      "duration": 0.1035,
      "velocity": 116,
      "chip": "ym2612"
    },
    {
      "channel": 4,
      "note": 72,
      "start": 37.702,
      "duration": 0.1079,
      "velocity": 79,
      "chip": "ym2612"
    },
    {
      "channel": 0,
      "note": 71,
      "start": 37.7762,
      "duration": 0.1084,
      "velocity": 79,
      "chip": "ym2612"
    },
    {
      "channel": 2,
      "note": 56,
      "start": 37.7778,
      "duration": 0.104,
      "velocity": 116,
      "chip": "ym2612"
    },
    {
      "channel": 4,
      "note": 71,
      "start": 37.8105,
      "duration": 0.1084,
      "velocity": 79,
      "chip": "ym2612"
    },
    {
      "channel": 0,
      "note": 72,
      "start": 37.8851,
      "duration": 0.1083,
      "velocity": 79,
      "chip": "ym2612"
    },
    {
      "channel": 3,
      "note": 57,
      "start": 37.886,
      "duration": 0.2172,
      "velocity": 91,
      "chip": "ym2612"
    },
    {
      "channel": 2,
      "note": 37,
      "start": 37.8872,
      "duration": 0.1034,
      "velocity": 120,
      "chip": "ym2612"
    },
    {
      "channel": 4,
      "note": 72,
      "start": 37.9194,
      "duration": 0.1083,
      "velocity": 79,
      "chip": "ym2612"
    },
    {
      "channel": 0,
      "note": 71,
      "start": 37.994,
      "duration": 0.1084,
      "velocity": 79,
      "chip": "ym2612"
    },
    {
      "channel": 2,
      "note": 56,
      "start": 37.9956,
      "duration": 0.104,
      "velocity": 116,
      "chip": "ym2612"
    },
    {
      "channel": 4,
      "note": 71,
      "start": 38.0283,
      "duration": 0.1084,
      "velocity": 79,
      "chip": "ym2612"
    },
    {
      "channel": 0,
      "note": 72,
      "start": 38.103,
      "duration": 0.1082,
      "velocity": 79,
      "chip": "ym2612"
    },
    {
      "channel": 3,
      "note": 56,
      "start": 38.1038,
      "duration": 0.2234,
      "velocity": 91,
      "chip": "ym2612"
    },
    {
      "channel": 2,
      "note": 56,
      "start": 38.105,
      "duration": 0.1034,
      "velocity": 116,
      "chip": "ym2612"
    },
    {
      "channel": 4,
      "note": 72,
      "start": 38.1374,
      "duration": 0.1081,
      "velocity": 79,
      "chip": "ym2612"
    },
    {
      "channel": 0,
      "note": 73,
      "start": 38.2118,
      "duration": 0.1111,
      "velocity": 79,
      "chip": "ym2612"
    },
    {
      "channel": 2,
      "note": 56,
      "start": 38.2134,
      "duration": 0.104,
      "velocity": 116,
      "chip": "ym2612"
    },
    {
      "channel": 4,
      "note": 73,
      "start": 38.2461,
      "duration": 0.1113,
      "velocity": 79,
      "chip": "ym2612"
    },
    {
      "channel": 0,
      "note": 74,
      "start": 38.3235,
      "duration": 0.1029,
      "velocity": 79,
      "chip": "ym2612"
    },
    {
      "channel": 1,
      "note": 53,
      "start": 38.3243,
      "duration": 0.1028,
      "velocity": 95,
      "chip": "ym2612"
    },
    {
      "channel": 3,
      "note": 54,
      "start": 38.3277,
      "duration": 0.2118,
      "velocity": 91,
      "chip": "ym2612"
    },
    {
      "channel": 2,
      "note": 37,
      "start": 38.3288,
      "duration": 0.1174,
      "velocity": 120,
      "chip": "ym2612"
    },
    {
      "channel": 4,
      "note": 74,
      "start": 38.358,
      "duration": 0.1056,
      "velocity": 79,
      "chip": "ym2612"
    },
    {
      "channel": 5,
      "note": 53,
      "start": 38.3921,
      "duration": 0.1081,
      "velocity": 95,
      "chip": "ym2612"
    },
    {
      "channel": 0,
      "note": 73,
      "start": 38.427,
      "duration": 0.111,
      "velocity": 79,
      "chip": "ym2612"
    },
    {
      "channel": 1,
      "note": 54,
      "start": 38.4277,
      "duration": 0.111,
      "velocity": 95,
      "chip": "ym2612"
    },
    {
      "channel": 4,
      "note": 73,
      "start": 38.4643,
      "duration": 0.1083,
      "velocity": 79,
      "chip": "ym2612"
    },
    {
      "channel": 5,
      "note": 54,
      "start": 38.5009,
      "duration": 0.1083,
      "velocity": 95,
      "chip": "ym2612"
    },
    {
      "channel": 0,
      "note": 74,
      "start": 38.5386,
      "duration": 0.1083,
      "velocity": 79,
      "chip": "ym2612"
    },
    {
      "channel": 1,
      "note": 55,
      "start": 38.5393,
      "duration": 0.1084,
      "velocity": 95,
      "chip": "ym2612"
    },
    {
      "channel": 3,
      "note": 53,
      "start": 38.54,
      "duration": 0.2169,
      "velocity": 91,
      "chip": "ym2612"
    },
    {
      "channel": 2,
      "note": 56,
      "start": 38.5415,
      "duration": 0.1027,
      "velocity": 116,
      "chip": "ym2612"
    },
    {
      "channel": 4,
      "note": 74,
      "start": 38.5732,
      "duration": 0.1083,
      "velocity": 79,
      "chip": "ym2612"
    },
    {
      "channel": 5,
      "note": 55,
      "start": 38.6098,
      "duration": 0.1083,
      "velocity": 95,
      "chip": "ym2612"
    },
    {
      "channel": 0,
      "note": 73,
      "start": 38.6475,
      "duration": 0.1085,
      "velocity": 79,
      "chip": "ym2612"
    },
    {
      "channel": 1,
      "note": 56,
      "start": 38.6483,
      "duration": 0.1084,
      "velocity": 95,
      "chip": "ym2612"
    },
    {
      "channel": 2,
      "note": 56,
      "start": 38.65,
      "duration": 0.1031,
      "velocity": 116,
      "chip": "ym2612"
    },
    {
      "channel": 4,
      "note": 73,
      "start": 38.6821,
      "duration": 0.108,
      "velocity": 79,
      "chip": "ym2612"
    },
    {
      "channel": 5,
      "note": 56,
      "start": 38.7187,
      "duration": 0.108,
      "velocity": 95,
      "chip": "ym2612"
    },
    {
      "channel": 0,
      "note": 74,
      "start": 38.7565,
      "duration": 0.1055,
      "velocity": 79,
      "chip": "ym2612"
    },
    {
      "channel": 3,
      "note": 57,
      "start": 38.7576,
      "duration": 0.2176,
      "velocity": 91,
      "chip": "ym2612"
    },
    {
      "channel": 2,
      "note": 37,
      "start": 38.759,
      "duration": 0.1223,
      "velocity": 120,
      "chip": "ym2612"
    },
    {
      "channel": 4,
      "note": 74,
      "start": 38.7907,
      "duration": 0.1083,
      "velocity": 79,
      "chip": "ym2612"
    },
    {
      "channel": 0,
      "note": 73,
      "start": 38.8627,
      "duration": 0.1109,
      "velocity": 79,
      "chip": "ym2612"
    },
    {
      "channel": 4,
      "note": 73,
      "start": 38.8997,
      "duration": 0.1086,
      "velocity": 79,
      "chip": "ym2612"
    },
    {
      "channel": 0,
      "note": 74,
      "start": 38.9743,
      "duration": 0.1082,
      "velocity": 79,
      "chip": "ym2612"
    },
    {
      "channel": 1,
      "note": 53,
      "start": 38.975,
      "duration": 0.1083,
      "velocity": 95,
      "chip": "ym2612"
    },
    {
      "channel": 3,
      "note": 56,
      "start": 38.9757,
      "duration": 0.2224,
      "velocity": 91,
      "chip": "ym2612"
    },
    {
      "channel": 2,
      "note": 56,
      "start": 38.9769,
      "duration": 0.1028,
      "velocity": 116,
      "chip": "ym2612"
    },
    {
      "channel": 4,
      "note": 74,
      "start": 39.0089,
      "duration": 0.1081,
      "velocity": 79,
      "chip": "ym2612"
    },
    {
      "channel": 5,
      "note": 53,
      "start": 39.0455,
      "duration": 0.1083,
      "velocity": 95,
      "chip": "ym2612"
    },
    {
      "channel": 0,
      "note": 75,
      "start": 39.0831,
      "duration": 0.111,
      "velocity": 79,
      "chip": "ym2612"
    },
    {
      "channel": 1,
      "note": 54,
      "start": 39.0838,
      "duration": 0.111,
      "velocity": 95,
      "chip": "ym2612"
    },
    {
      "channel": 2,
      "note": 56,
      "start": 39.0856,
      "duration": 0.103,
      "velocity": 116,
      "chip": "ym2612"
    },
    {
      "channel": 4,
      "note": 75,
      "start": 39.1177,
      "duration": 0.1111,
      "velocity": 79,
      "chip": "ym2612"
    },
    {
      "channel": 5,
      "note": 54,
      "start": 39.1544,
      "duration": 0.1083,
      "velocity": 95,
      "chip": "ym2612"
    },
    {
      "channel": 0,
      "note": 76,
      "start": 39.1947,
      "duration": 0.1031,
      "velocity": 79,
      "chip": "ym2612"
    },
    {
      "channel": 1,
      "note": 55,
      "start": 39.1954,
      "duration": 0.103,
      "velocity": 95,
      "chip": "ym2612"
    },
    {
      "channel": 3,
      "note": 54,
      "start": 39.1988,
      "duration": 0.2116,
      "velocity": 91,
      "chip": "ym2612"
    },
    {
      "channel": 2,
      "note": 37,
      "start": 39.2002,
      "duration": 0.1174,
      "velocity": 120,
      "chip": "ym2612"
    },
    {
      "channel": 4,
      "note": 76,
      "start": 39.2294,
      "duration": 0.1055,
      "velocity": 79,
      "chip": "ym2612"
    },
    {
      "channel": 5,
      "note": 55,
      "start": 39.2632,
      "duration": 0.1083,
      "velocity": 95,
      "chip": "ym2612"
    },
    {
      "channel": 0,
      "note": 75,
      "start": 39.2983,
      "duration": 0.1109,
      "velocity": 79,
      "chip": "ym2612"
    },
    {
      "channel": 1,
      "note": 56,
      "start": 39.299,
      "duration": 0.111,
      "velocity": 95,
      "chip": "ym2612"
    },
    {
      "channel": 4,
      "note": 75,
      "start": 39.3355,
      "duration": 0.1081,
      "velocity": 79,
      "chip": "ym2612"
    },
    {
      "channel": 5,
      "note": 56,
      "start": 39.3722,
      "duration": 0.108,
      "velocity": 95,
      "chip": "ym2612"
    },
    {
      "channel": 0,
      "note": 76,
      "start": 39.4099,
      "duration": 0.1083,
      "velocity": 79,
      "chip": "ym2612"
    },
    {
      "channel": 3,
      "note": 53,
      "start": 39.4109,
      "duration": 0.2171,
      "velocity": 91,
      "chip": "ym2612"
    },
    {
      "channel": 2,
      "note": 56,
      "start": 39.4124,
      "duration": 0.103,
      "velocity": 116,
      "chip": "ym2612"
    },
    {
      "channel": 4,
      "note": 76,
      "start": 39.4441,
      "duration": 0.1083,
      "velocity": 79,
      "chip": "ym2612"
    },
    {
      "channel": 0,
      "note": 75,
      "start": 39.5188,
      "duration": 0.1083,
      "velocity": 79,
      "chip": "ym2612"
    },
    {
      "channel": 2,
      "note": 56,
      "start": 39.5204,
      "duration": 0.1039,
      "velocity": 116,
      "chip": "ym2612"
    },
    {
      "channel": 4,
      "note": 75,
      "start": 39.5532,
      "duration": 0.1083,
      "velocity": 79,
      "chip": "ym2612"
    },
    {
      "channel": 0,
      "note": 76,
      "start": 39.6278,
      "duration": 0.1056,
      "velocity": 79,
      "chip": "ym2612"
    },
    {
      "channel": 3,
      "note": 57,
      "start": 39.6285,
      "duration": 0.2171,
      "velocity": 91,
      "chip": "ym2612"
    },
    {
      "channel": 2,
      "note": 37,
      "start": 39.6297,
      "duration": 0.1229,
      "velocity": 120,
      "chip": "ym2612"
    },
    {
      "channel": 4,
      "note": 76,
      "start": 39.662,
      "duration": 0.1083,
      "velocity": 79,
      "chip": "ym2612"
    },
    {
      "channel": 0,
      "note": 75,
      "start": 39.7339,
      "duration": 0.1109,
      "velocity": 79,
      "chip": "ym2612"
    },
    {
      "channel": 4,
      "note": 75,
      "start": 39.7709,
      "duration": 0.1083,
      "velocity": 79,
      "chip": "ym2612"
    },
    {
      "channel": 0,
      "note": 76,
      "start": 39.8455,
      "duration": 0.1084,
      "velocity": 79,
      "chip": "ym2612"
    },
    {
      "channel": 3,
      "note": 56,
      "start": 39.8463,
      "duration": 0.2234,
      "velocity": 91,
      "chip": "ym2612"
    },
    {
      "channel": 2,
      "note": 56,
      "start": 39.8474,
      "duration": 0.1036,
      "velocity": 116,
      "chip": "ym2612"
    },
    {
      "channel": 4,
      "note": 76,
      "start": 39.8798,
      "duration": 0.1083,
      "velocity": 79,
      "chip": "ym2612"
    },
    {
      "channel": 0,
      "note": 77,
      "start": 39.9544,
      "duration": 0.111,
      "velocity": 79,
      "chip": "ym2612"
    },
    {
      "channel": 2,
      "note": 56,
      "start": 39.956,
      "duration": 0.104,
      "velocity": 116,
      "chip": "ym2612"
    },
    {
      "channel": 4,
      "note": 77,
      "start": 39.9887,
      "duration": 0.1112,
      "velocity": 79,
      "chip": "ym2612"
    },
    {
      "channel": 0,
      "note": 78,
      "start": 40.066,
      "duration": 0.1029,
      "velocity": 79,
      "chip": "ym2612"
    },
    {
      "channel": 1,
      "note": 53,
      "start": 40.0668,
      "duration": 0.103,
      "velocity": 95,
      "chip": "ym2612"
    },
    {
      "channel": 3,
      "note": 54,
      "start": 40.0702,
      "duration": 0.2117,
      "velocity": 91,
      "chip": "ym2612"
    },
    {
      "channel": 2,
      "note": 37,
      "start": 40.0713,
      "duration": 0.1175,
      "velocity": 120,
      "chip": "ym2612"
    },
    {
      "channel": 4,
      "note": 78,
      "start": 40.1005,
      "duration": 0.1057,
      "velocity": 79,
      "chip": "ym2612"
    },
    {
      "channel": 5,
      "note": 53,
      "start": 40.1345,
      "duration": 0.1082,
      "velocity": 95,
      "chip": "ym2612"
    },
    {
      "channel": 0,
      "note": 77,
      "start": 40.1696,
      "duration": 0.1109,
      "velocity": 79,
      "chip": "ym2612"
    },
    {
      "channel": 1,
      "note": 54,
      "start": 40.1703,
      "duration": 0.1109,
      "velocity": 95,
      "chip": "ym2612"
    },
    {
      "channel": 4,
      "note": 77,
      "start": 40.2068,
      "duration": 0.1083,
      "velocity": 79,
      "chip": "ym2612"
    },
    {
      "channel": 5,
      "note": 54,
      "start": 40.2434,
      "duration": 0.1084,
      "velocity": 95,
      "chip": "ym2612"
    },
    {
      "channel": 0,
      "note": 78,
      "start": 40.2811,
      "duration": 0.1085,
      "velocity": 79,
      "chip": "ym2612"
    },
    {
      "channel": 1,
      "note": 55,
      "start": 40.2818,
      "duration": 0.1085,
      "velocity": 95,
      "chip": "ym2612"
    },
    {
      "channel": 3,
      "note": 53,
      "start": 40.2825,
      "duration": 0.217,
      "velocity": 91,
      "chip": "ym2612"
    },
    {
      "channel": 2,
      "note": 56,
      "start": 40.2839,
      "duration": 0.1027,
      "velocity": 116,
      "chip": "ym2612"
    },
    {
      "channel": 4,
      "note": 78,
      "start": 40.3157,
      "duration": 0.1083,
      "velocity": 79,
      "chip": "ym2612"
    },
    {
      "channel": 5,
      "note": 55,
      "start": 40.3524,
      "duration": 0.1083,
      "velocity": 95,
      "chip": "ym2612"
    },
    {
      "channel": 0,
      "note": 77,
      "start": 40.3901,
      "duration": 0.1083,
      "velocity": 79,
      "chip": "ym2612"
    },
    {
      "channel": 1,
      "note": 56,
      "start": 40.3908,
      "duration": 0.1084,
      "velocity": 95,
      "chip": "ym2612"
    },
    {
      "channel": 2,
      "note": 56,
      "start": 40.3926,
      "duration": 0.1031,
      "velocity": 116,
      "chip": "ym2612"
    },
    {
      "channel": 4,
      "note": 77,
      "start": 40.4245,
      "duration": 0.108,
      "velocity": 79,
      "chip": "ym2612"
    },
    {
      "channel": 5,
      "note": 56,
      "start": 40.4612,
      "duration": 0.108,
      "velocity": 95,
      "chip": "ym2612"
    },
    {
      "channel": 0,
      "note": 78,
      "start": 40.499,
      "duration": 0.1055,
      "velocity": 79,
      "chip": "ym2612"
    },
    {
      "channel": 3,
      "note": 57,
      "start": 40.5001,
      "duration": 0.2168,
      "velocity": 91,
      "chip": "ym2612"
    },
    {
      "channel": 2,
      "note": 37,
      "start": 40.5015,
      "duration": 0.1224,
      "velocity": 120,
      "chip": "ym2612"
    },
    {
      "channel": 4,
      "note": 78,
      "start": 40.5332,
      "duration": 0.1084,
      "velocity": 79,
      "chip": "ym2612"
    },
    {
      "channel": 0,
      "note": 77,
      "start": 40.6051,
      "duration": 0.1109,
      "velocity": 79,
      "chip": "ym2612"
    },
    {
      "channel": 4,
      "note": 77,
      "start": 40.6422,
      "duration": 0.1082,
      "velocity": 79,
      "chip": "ym2612"
    },
    {
      "channel": 0,
      "note": 78,
      "start": 40.7167,
      "duration": 0.1088,
      "velocity": 79,
      "chip": "ym2612"
    },
    {
      "channel": 3,
      "note": 56,
      "start": 40.7175,
      "duration": 0.2203,
      "velocity": 91,
      "chip": "ym2612"
    },
    {
      "channel": 2,
      "note": 56,
      "start": 40.7187,
      "duration": 0.104,
      "velocity": 116,
      "chip": "ym2612"
    },
    {
      "channel": 4,
      "note": 78,
      "start": 40.751,
      "duration": 0.1084,
      "velocity": 79,
      "chip": "ym2612"
    },
    {
      "channel": 0,
      "note": 79,
      "start": 40.8261,
      "duration": 0.1082,
      "velocity": 79,
      "chip": "ym2612"
    },
    {
      "channel": 2,
      "note": 56,
      "start": 40.8276,
      "duration": 0.1036,
      "velocity": 116,
      "chip": "ym2612"
    },
    {
      "channel": 4,
      "note": 79,
      "start": 40.86,
      "duration": 0.1084,
      "velocity": 79,
      "chip": "ym2612"
    },
    {
      "channel": 0,
      "note": 80,
      "start": 40.9349,
      "duration": 0.1053,
      "velocity": 79,
      "chip": "ym2612"
    },
    {
      "channel": 3,
      "note": 54,
      "start": 40.9384,
      "duration": 0.2142,
      "velocity": 91,
      "chip": "ym2612"
    },
    {
      "channel": 2,
      "note": 37,
      "start": 40.9395,
      "duration": 0.12,
      "velocity": 120,
      "chip": "ym2612"
    },
    {
      "channel": 4,
      "note": 80,
      "start": 40.969,
      "duration": 0.1081,
      "velocity": 79,
      "chip": "ym2612"
    },
    {
      "channel": 0,
      "note": 79,
      "start": 41.0407,
      "duration": 0.111,
      "velocity": 79,
      "chip": "ym2612"
    },
    {
      "channel": 4,
      "note": 79,
      "start": 41.0778,
      "duration": 0.1083,
      "velocity": 79,
      "chip": "ym2612"
    },
    {
      "channel": 0,
      "note": 78,
      "start": 41.1524,
      "duration": 0.1083,
      "velocity": 79,
      "chip": "ym2612"
    },
    {
      "channel": 3,
      "note": 53,
      "start": 41.1532,
      "duration": 0.2173,
      "velocity": 91,
      "chip": "ym2612"
    },
    {
      "channel": 2,
      "note": 56,
      "start": 41.1544,
      "duration": 0.1034,
      "velocity": 116,
      "chip": "ym2612"
    },
    {
      "channel": 4,
      "note": 78,
      "start": 41.1868,
      "duration": 0.1081,
      "velocity": 79,
      "chip": "ym2612"
    },
    {
      "channel": 0,
      "note": 77,
      "start": 41.2613,
      "duration": 0.1084,
      "velocity": 79,
      "chip": "ym2612"
    },
    {
      "channel": 2,
      "note": 56,
      "start": 41.2629,
      "duration": 0.1039,
      "velocity": 116,
      "chip": "ym2612"
    },
    {
      "channel": 4,
      "note": 77,
      "start": 41.2955,
      "duration": 0.1084,
      "velocity": 79,
      "chip": "ym2612"
    },
    {
      "channel": 0,
      "note": 76,
      "start": 41.3703,
      "duration": 0.1083,
      "velocity": 79,
      "chip": "ym2612"
    },
    {
      "channel": 3,
      "note": 57,
      "start": 41.3711,
      "duration": 0.2171,
      "velocity": 91,
      "chip": "ym2612"
    },
    {
      "channel": 2,
      "note": 37,
      "start": 41.3722,
      "duration": 0.1035,
      "velocity": 120,
      "chip": "ym2612"
    },
    {
      "channel": 4,
      "note": 76,
      "start": 41.4046,
      "duration": 0.1082,
      "velocity": 79,
      "chip": "ym2612"
    },
    {
      "channel": 0,
      "note": 75,
      "start": 41.4791,
      "duration": 0.1083,
      "velocity": 79,
      "chip": "ym2612"
    },
    {
      "channel": 2,
      "note": 56,
      "start": 41.4807,
      "duration": 0.1038,
      "velocity": 116,
      "chip": "ym2612"
    },
    {
      "channel": 4,
      "note": 75,
      "start": 41.5133,
      "duration": 0.1084,
      "velocity": 79,
      "chip": "ym2612"
    },
    {
      "channel": 0,
      "note": 74,
      "start": 41.5879,
      "duration": 0.1083,
      "velocity": 79,
      "chip": "ym2612"
    },
    {
      "channel": 3,
      "note": 56,
      "start": 41.5888,
      "duration": 0.2254,
      "velocity": 91,
      "chip": "ym2612"
    },
    {
      "channel": 2,
      "note": 56,
      "start": 41.5899,
      "duration": 0.1035,
      "velocity": 116,
      "chip": "ym2612"
    },
    {
      "channel": 4,
      "note": 74,
      "start": 41.6223,
      "duration": 0.1083,
      "velocity": 79,
      "chip": "ym2612"
    },
    {
      "channel": 0,
      "note": 73,
      "start": 41.6968,
      "duration": 0.111,
      "velocity": 91,
      "chip": "ym2612"
    },
    {
      "channel": 2,
      "note": 56,
      "start": 41.6984,
      "duration": 0.104,
      "velocity": 116,
      "chip": "ym2612"
    },
    {
      "channel": 4,
      "note": 73,
      "start": 41.7313,
      "duration": 0.1108,
      "velocity": 91,
      "chip": "ym2612"
    },
    {
      "channel": 1,
      "note": 54,
      "start": 41.8114,
      "duration": 0.2117,
      "velocity": 95,
      "chip": "ym2612"
    },
    {
      "channel": 3,
      "note": 54,
      "start": 41.8147,
      "duration": 0.209,
      "velocity": 91,
      "chip": "ym2612"
    },
    {
      "channel": 2,
      "note": 37,
      "start": 41.8159,
      "duration": 0.1149,
      "velocity": 120,
      "chip": "ym2612"
    },
    {
      "channel": 5,
      "note": 54,
      "start": 41.8792,
      "duration": 0.2146,
      "velocity": 95,
      "chip": "ym2612"
    },
    {
      "channel": 1,
      "note": 53,
      "start": 42.0236,
      "duration": 0.212,
      "velocity": 95,
      "chip": "ym2612"
    },
    {
      "channel": 3,
      "note": 53,
      "start": 42.0243,
      "duration": 0.2113,
      "velocity": 91,
      "chip": "ym2612"
    },
    {
      "channel": 2,
      "note": 56,
      "start": 42.0255,
      "duration": 0.1039,
      "velocity": 116,
      "chip": "ym2612"
    },
    {
      "channel": 5,
      "note": 53,
      "start": 42.0943,
      "duration": 0.1413,
      "velocity": 95,
      "chip": "ym2612"
    },
    {
      "channel": 2,
      "note": 56,
      "start": 42.134,
      "duration": 0.1016,
      "velocity": 116,
      "chip": "ym2612"
    }
  ]
}