{
  "track_name": "09 - Old Theme",
  "duration_sec": 43.425,
  "sample_rate": 44100,
  "note_count": 1220,
  "unique_pitches": 48,
  "pitch_range": 57,
  "avg_note_duration": 0.155,
  "reconstruction_stats": {
    "notes_reconstructed": 1220,
    "keyon_events": 1220,
    "keyoff_events": 1217,
    "orphan_keyons": 3,
    "unique_pitches": 48,
    "pitch_range": 57,
    "avg_duration_sec": 0.155
  },
  "metadata": {
    "source": "T\\Toughman Contest\\09 - Old Theme.vgz"
  },
  "notes": [
    {
      "channel": 2,
      "note": 54,
      "start": 0.0022,
      "duration": 0.1751,
      "velocity": 83,
      "chip": "ym2612"
    },
    {
      "channel": 1,
      "note": 54,
      "start": 0.004,
      "duration": 0.1751,
      "velocity": 89,
      "chip": "ym2612"
    },
    {
      "channel": 0,
      "note": 66,
      "start": 0.0097,
      "duration": 0.2803,
      "velocity": 127,
      "chip": "ym2612"
    },
    {
      "channel": 2,
      "note": 54,
      "start": 0.1778,
      "duration": 0.1087,
      "velocity": 83,
      "chip": "ym2612"
    },
    {
      "channel": 1,
      "note": 54,
      "start": 0.1796,
      "duration": 0.1086,
      "velocity": 89,
      "chip": "ym2612"
    },
    {
      "channel": 2,
      "note": 54,
      "start": 0.2869,
      "duration": 0.1048,
      "velocity": 83,
      "chip": "ym2612"
    },
    {
      "channel": 1,
      "note": 54,
      "start": 0.2887,
      "duration": 0.1048,
      "velocity": 89,
      "chip": "ym2612"
    },
    {
      "channel": 0,
      "note": 66,
      "start": 0.2905,
      "duration": 0.1046,
      "velocity": 127,
      "chip": "ym2612"
    },
    {
      "channel": 2,
      "note": 52,
      "start": 0.3922,
      "duration": 0.325,
      "velocity": 83,
      "chip": "ym2612"
    },
    {
      "channel": 1,
      "note": 52,
      "start": 0.3939,
      "duration": 0.325,
      "velocity": 89,
      "chip": "ym2612"
    },
    {
      "channel": 0,
      "note": 57,
      "start": 0.4036,
      "duration": 0.3171,
      "velocity": 127,
      "chip": "ym2612"
    },
    {
      "channel": 2,
      "note": 54,
      "start": 0.7177,
      "duration": 0.2138,
      "velocity": 83,
      "chip": "ym2612"
    },
    {
      "channel": 1,
      "note": 54,
      "start": 0.7195,
      "duration": 0.2137,
      "velocity": 89,
      "chip": "ym2612"
    },
    {
      "channel": 0,
      "note": 66,
      "start": 0.7293,
      "duration": 0.2057,
      "velocity": 127,
      "chip": "ym2612"
    },
    {
      "channel": 2,
      "note": 54,
      "start": 0.9319,
      "duration": 0.1101,
      "velocity": 83,
      "chip": "ym2612"
    },
    {
      "channel": 1,
      "note": 54,
      "start": 0.9337,
      "duration": 0.11,
      "velocity": 89,
      "chip": "ym2612"
    },
    {
      "channel": 0,
      "note": 66,
      "start": 0.9356,
      "duration": 0.2138,
      "velocity": 127,
      "chip": "ym2612"
    },
    {
      "channel": 2,
      "note": 66,
      "start": 1.0425,
      "duration": 0.1034,
      "velocity": 83,
      "chip": "ym2612"
    },
    {
      "channel": 1,
      "note": 66,
      "start": 1.0443,
      "duration": 0.1033,
      "velocity": 89,
      "chip": "ym2612"
    },
    {
      "channel": 2,
      "note": 54,
      "start": 1.1463,
      "duration": 0.11,
      "velocity": 83,
      "chip": "ym2612"
    },
    {
      "channel": 1,
      "note": 54,
      "start": 1.1481,
      "duration": 0.11,
      "velocity": 89,
      "chip": "ym2612"
    },
    {
      "channel": 0,
      "note": 66,
      "start": 1.1499,
      "duration": 0.11,
      "velocity": 127,
      "chip": "ym2612"
    },
    {
      "channel": 2,
      "note": 52,
      "start": 1.2568,
      "duration": 0.1088,
      "velocity": 83,
      "chip": "ym2612"
    },
    {
      "channel": 1,
      "note": 52,
      "start": 1.2586,
      "duration": 0.1088,
      "velocity": 89,
      "chip": "ym2612"
    },
    {
      "channel": 0,
      "note": 57,
      "start": 1.2684,
      "duration": 0.0222,
      "velocity": 127,
      "chip": "ym2612"
    },
    {
      "channel": 0,
      "note": 66,
      "start": 1.2911,
      "duration": 0.1805,
      "velocity": 127,
      "chip": "ym2612"
    },
    {
      "channel": 2,
      "note": 49,
      "start": 1.3661,
      "duration": 0.1091,
      "velocity": 83,
      "chip": "ym2612"
    },
    {
      "channel": 1,
      "note": 49,
      "start": 1.3679,
      "duration": 0.102,
      "velocity": 89,
      "chip": "ym2612"
    },
    {
      "channel": 1,
      "note": 52,
      "start": 1.4704,
      "duration": 0.2178,
      "velocity": 89,
      "chip": "ym2612"
    },
    {
      "channel": 2,
      "note": 52,
      "start": 1.4758,
      "duration": 0.2107,
      "velocity": 83,
      "chip": "ym2612"
    },
    {
      "channel": 0,
      "note": 66,
      "start": 1.4817,
      "duration": 0.2083,
      "velocity": 127,
      "chip": "ym2612"
    },
    {
      "channel": 2,
      "note": 54,
      "start": 1.6869,
      "duration": 0.2191,
      "velocity": 83,
      "chip": "ym2612"
    },
    {
      "channel": 1,
      "note": 54,
      "start": 1.6887,
      "duration": 0.2191,
      "velocity": 89,
      "chip": "ym2612"
    },
    {
      "channel": 0,
      "note": 66,
      "start": 1.6986,
      "duration": 0.3148,
      "velocity": 127,
      "chip": "ym2612"
    },
    {
      "channel": 2,
      "note": 54,
      "start": 1.9065,
      "duration": 0.1034,
      "velocity": 83,
      "chip": "ym2612"
    },
    {
      "channel": 1,
      "note": 54,
      "start": 1.9083,
      "duration": 0.1034,
      "velocity": 89,
      "chip": "ym2612"
    },
    {
      "channel": 2,
      "note": 54,
      "start": 2.0104,
      "duration": 0.11,
      "velocity": 83,
      "chip": "ym2612"
    },
    {
      "channel": 1,
      "note": 54,
      "start": 2.0122,
      "duration": 0.1099,
      "velocity": 89,
      "chip": "ym2612"
    },
    {
      "channel": 0,
      "note": 66,
      "start": 2.014,
      "duration": 0.1099,
      "velocity": 127,
      "chip": "ym2612"
    },
    {
      "channel": 2,
      "note": 52,
      "start": 2.1209,
      "duration": 0.3226,
      "velocity": 83,
      "chip": "ym2612"
    },
    {
      "channel": 1,
      "note": 52,
      "start": 2.1227,
      "duration": 0.3225,
      "velocity": 89,
      "chip": "ym2612"
    },
    {
      "channel": 0,
      "note": 57,
      "start": 2.1324,
      "duration": 0.3144,
      "velocity": 127,
      "chip": "ym2612"
    },
    {
      "channel": 2,
      "note": 54,
      "start": 2.4439,
      "duration": 0.2193,
      "velocity": 83,
      "chip": "ym2612"
    },
    {
      "channel": 1,
      "note": 54,
      "start": 2.4457,
      "duration": 0.2124,
      "velocity": 89,
      "chip": "ym2612"
    },
    {
      "channel": 0,
      "note": 66,
      "start": 2.4555,
      "duration": 0.2044,
      "velocity": 127,
      "chip": "ym2612"
    },
    {
      "channel": 1,
      "note": 54,
      "start": 2.6586,
      "duration": 0.1087,
      "velocity": 89,
      "chip": "ym2612"
    },
    {
      "channel": 0,
      "note": 66,
      "start": 2.6604,
      "duration": 0.2179,
      "velocity": 127,
      "chip": "ym2612"
    },
    {
      "channel": 2,
      "note": 54,
      "start": 2.6638,
      "duration": 0.1018,
      "velocity": 83,
      "chip": "ym2612"
    },
    {
      "channel": 2,
      "note": 49,
      "start": 2.7661,
      "duration": 0.1087,
      "velocity": 83,
      "chip": "ym2612"
    },
    {
      "channel": 1,
      "note": 49,
      "start": 2.7679,
      "duration": 0.1086,
      "velocity": 89,
      "chip": "ym2612"
    },
    {
      "channel": 2,
      "note": 49,
      "start": 2.8752,
      "duration": 0.1075,
      "velocity": 83,
      "chip": "ym2612"
    },
    {
      "channel": 1,
      "note": 49,
      "start": 2.877,
      "duration": 0.1074,
      "velocity": 89,
      "chip": "ym2612"
    },
    {
      "channel": 0,
      "note": 66,
      "start": 2.8788,
      "duration": 0.1073,
      "velocity": 127,
      "chip": "ym2612"
    },
    {
      "channel": 2,
      "note": 52,
      "start": 2.9831,
      "duration": 0.1062,
      "velocity": 83,
      "chip": "ym2612"
    },
    {
      "channel": 1,
      "note": 52,
      "start": 2.9849,
      "duration": 0.1062,
      "velocity": 89,
      "chip": "ym2612"
    },
    {
      "channel": 0,
      "note": 57,
      "start": 2.9946,
      "duration": 0.0222,
      "velocity": 127,
      "chip": "ym2612"
    },
    {
      "channel": 0,
      "note": 66,
      "start": 3.0173,
      "duration": 0.1847,
      "velocity": 127,
      "chip": "ym2612"
    },
    {
      "channel": 2,
      "note": 64,
      "start": 3.0899,
      "duration": 0.1086,
      "velocity": 83,
      "chip": "ym2612"
    },
    {
      "channel": 1,
      "note": 64,
      "start": 3.0917,
      "duration": 0.1085,
      "velocity": 89,
      "chip": "ym2612"
    },
    {
      "channel": 2,
      "note": 53,
      "start": 3.1989,
      "duration": 0.1076,
      "velocity": 83,
      "chip": "ym2612"
    },
    {
      "channel": 1,
      "note": 53,
      "start": 3.2007,
      "duration": 0.1021,
      "velocity": 89,
      "chip": "ym2612"
    },
    {
      "channel": 0,
      "note": 66,
      "start": 3.2025,
      "duration": 0.0301,
      "velocity": 127,
      "chip": "ym2612"
    },
    {
      "channel": 0,
      "note": 66,
      "start": 3.2332,
      "duration": 0.179,
      "velocity": 127,
      "chip": "ym2612"
    },
    {
      "channel": 1,
      "note": 65,
      "start": 3.3033,
      "duration": 0.1143,
      "velocity": 89,
      "chip": "ym2612"
    },
    {
      "channel": 2,
      "note": 65,
      "start": 3.3071,
      "duration": 0.1088,
      "velocity": 83,
      "chip": "ym2612"
    },
    {
      "channel": 2,
      "note": 54,
      "start": 3.4163,
      "duration": 0.2123,
      "velocity": 83,
      "chip": "ym2612"
    },
    {
      "channel": 1,
      "note": 54,
      "start": 3.4181,
      "duration": 0.2122,
      "velocity": 89,
      "chip": "ym2612"
    },
    {
      "channel": 0,
      "note": 66,
      "start": 3.4238,
      "duration": 0.3176,
      "velocity": 127,
      "chip": "ym2612"
    },
    {
      "channel": 2,
      "note": 54,
      "start": 3.629,
      "duration": 0.1086,
      "velocity": 83,
      "chip": "ym2612"
    },
    {
      "channel": 1,
      "note": 54,
      "start": 3.6308,
      "duration": 0.1087,
      "velocity": 89,
      "chip": "ym2612"
    },
    {
      "channel": 2,
      "note": 54,
      "start": 3.7382,
      "duration": 0.1049,
      "velocity": 83,
      "chip": "ym2612"
    },
    {
      "channel": 1,
      "note": 54,
      "start": 3.74,
      "duration": 0.1048,
      "velocity": 89,
      "chip": "ym2612"
    },
    {
      "channel": 0,
      "note": 66,
      "start": 3.7418,
      "duration": 0.1046,
      "velocity": 127,
      "chip": "ym2612"
    },
    {
      "channel": 2,
      "note": 52,
      "start": 3.8436,
      "duration": 0.3265,
      "velocity": 83,
      "chip": "ym2612"
    },
    {
      "channel": 1,
      "note": 52,
      "start": 3.8453,
      "duration": 0.3266,
      "velocity": 89,
      "chip": "ym2612"
    },
    {
      "channel": 0,
      "note": 57,
      "start": 3.8549,
      "duration": 0.3115,
      "velocity": 127,
      "chip": "ym2612"
    },
    {
      "channel": 2,
      "note": 54,
      "start": 4.1706,
      "duration": 0.2122,
      "velocity": 83,
      "chip": "ym2612"
    },
    {
      "channel": 1,
      "note": 54,
      "start": 4.1724,
      "duration": 0.2122,
      "velocity": 89,
      "chip": "ym2612"
    },
    {
      "channel": 0,
      "note": 66,
      "start": 4.178,
      "duration": 0.2084,
      "velocity": 127,
      "chip": "ym2612"
    },
    {
      "channel": 2,
      "note": 54,
      "start": 4.3833,
      "duration": 0.1115,
      "velocity": 83,
      "chip": "ym2612"
    },
    {
      "channel": 1,
      "note": 54,
      "start": 4.3851,
      "duration": 0.106,
      "velocity": 89,
      "chip": "ym2612"
    },
    {
      "channel": 0,
      "note": 66,
      "start": 4.3869,
      "duration": 0.2137,
      "velocity": 127,
      "chip": "ym2612"
    },
    {
      "channel": 1,
      "note": 66,
      "start": 4.4916,
      "duration": 0.1141,
      "velocity": 89,
      "chip": "ym2612"
    },
    {
      "channel": 2,
      "note": 66,
      "start": 4.4953,
      "duration": 0.1086,
      "velocity": 83,
      "chip": "ym2612"
    },
    {
      "channel": 0,
      "note": 66,
      "start": 4.6011,
      "duration": 0.1046,
      "velocity": 127,
      "chip": "ym2612"
    },
    {
      "channel": 2,
      "note": 54,
      "start": 4.6044,
      "duration": 0.1051,
      "velocity": 83,
      "chip": "ym2612"
    },
    {
      "channel": 1,
      "note": 54,
      "start": 4.6063,
      "duration": 0.105,
      "velocity": 89,
      "chip": "ym2612"
    },
    {
      "channel": 2,
      "note": 52,
      "start": 4.7099,
      "duration": 0.1071,
      "velocity": 83,
      "chip": "ym2612"
    },
    {
      "channel": 1,
      "note": 52,
      "start": 4.7117,
      "duration": 0.1071,
      "velocity": 89,
      "chip": "ym2612"
    },
    {
      "channel": 0,
      "note": 57,
      "start": 4.7172,
      "duration": 0.0275,
      "velocity": 127,
      "chip": "ym2612"
    },
    {
      "channel": 0,
      "note": 66,
      "start": 4.7451,
      "duration": 0.1792,
      "velocity": 127,
      "chip": "ym2612"
    },
    {
      "channel": 2,
      "note": 49,
      "start": 4.8176,
      "duration": 0.1033,
      "velocity": 83,
      "chip": "ym2612"
    },
    {
      "channel": 1,
      "note": 49,
      "start": 4.8193,
      "duration": 0.1033,
      "velocity": 89,
      "chip": "ym2612"
    },
    {
      "channel": 2,
      "note": 52,
      "start": 4.9214,
      "duration": 0.2191,
      "velocity": 83,
      "chip": "ym2612"
    },
    {
      "channel": 1,
      "note": 52,
      "start": 4.9232,
      "duration": 0.219,
      "velocity": 89,
      "chip": "ym2612"
    },
    {
      "channel": 0,
      "note": 66,
      "start": 4.933,
      "duration": 0.211,
      "velocity": 127,
      "chip": "ym2612"
    },
    {
      "channel": 2,
      "note": 59,
      "start": 5.141,
      "duration": 0.2137,
      "velocity": 83,
      "chip": "ym2612"
    },
    {
      "channel": 1,
      "note": 59,
      "start": 5.1427,
      "duration": 0.2138,
      "velocity": 89,
      "chip": "ym2612"
    },
    {
      "channel": 0,
      "note": 66,
      "start": 5.1525,
      "duration": 0.3123,
      "velocity": 127,
      "chip": "ym2612"
    },
    {
      "channel": 2,
      "note": 64,
      "start": 5.3552,
      "duration": 0.1061,
      "velocity": 83,
      "chip": "ym2612"
    },
    {
      "channel": 1,
      "note": 64,
      "start": 5.3571,
      "duration": 0.106,
      "velocity": 89,
      "chip": "ym2612"
    },
    {
      "channel": 2,
      "note": 61,
      "start": 5.4617,
      "duration": 0.1131,
      "velocity": 83,
      "chip": "ym2612"
    },
    {
      "channel": 1,
      "note": 61,
      "start": 5.4635,
      "duration": 0.106,
      "velocity": 89,
      "chip": "ym2612"
    },
    {
      "channel": 0,
      "note": 66,
      "start": 5.4653,
      "duration": 0.1059,
      "velocity": 127,
      "chip": "ym2612"
    },
    {
      "channel": 1,
      "note": 66,
      "start": 5.57,
      "duration": 0.1114,
      "velocity": 89,
      "chip": "ym2612"
    },
    {
      "channel": 2,
      "note": 66,
      "start": 5.5754,
      "duration": 0.1043,
      "velocity": 83,
      "chip": "ym2612"
    },
    {
      "channel": 0,
      "note": 57,
      "start": 5.5812,
      "duration": 0.3175,
      "velocity": 127,
      "chip": "ym2612"
    },
    {
      "channel": 2,
      "note": 64,
      "start": 5.6801,
      "duration": 0.1059,
      "velocity": 83,
      "chip": "ym2612"
    },
    {
      "channel": 1,
      "note": 64,
      "start": 5.6819,
      "duration": 0.1059,
      "velocity": 89,
      "chip": "ym2612"
    },
    {
      "channel": 2,
      "note": 61,
      "start": 5.7866,
      "duration": 0.1086,
      "velocity": 83,
      "chip": "ym2612"
    },
    {
      "channel": 1,
      "note": 61,
      "start": 5.7883,
      "duration": 0.1086,
      "velocity": 89,
      "chip": "ym2612"
    },
    {
      "channel": 2,
      "note": 60,
      "start": 5.8957,
      "duration": 0.1048,
      "velocity": 83,
      "chip": "ym2612"
    },
    {
      "channel": 1,
      "note": 60,
      "start": 5.8974,
      "duration": 0.1048,
      "velocity": 89,
      "chip": "ym2612"
    },
    {
      "channel": 0,
      "note": 66,
      "start": 5.9073,
      "duration": 0.0966,
      "velocity": 127,
      "chip": "ym2612"
    },
    {
      "channel": 2,
      "note": 59,
      "start": 6.0009,
      "duration": 0.1106,
      "velocity": 83,
      "chip": "ym2612"
    },
    {
      "channel": 1,
      "note": 59,
      "start": 6.0027,
      "duration": 0.1106,
      "velocity": 89,
      "chip": "ym2612"
    },
    {
      "channel": 0,
      "note": 57,
      "start": 6.0124,
      "duration": 0.1027,
      "velocity": 127,
      "chip": "ym2612"
    },
    {
      "channel": 2,
      "note": 59,
      "start": 6.112,
      "duration": 0.1074,
      "velocity": 83,
      "chip": "ym2612"
    },
    {
      "channel": 1,
      "note": 59,
      "start": 6.1139,
      "duration": 0.1073,
      "velocity": 89,
      "chip": "ym2612"
    },
    {
      "channel": 0,
      "note": 66,
      "start": 6.1156,
      "duration": 0.1144,
      "velocity": 127,
      "chip": "ym2612"
    },
    {
      "channel": 2,
      "note": 51,
      "start": 6.2199,
      "duration": 0.4292,
      "velocity": 83,
      "chip": "ym2612"
    },
    {
      "channel": 1,
      "note": 51,
      "start": 6.2217,
      "duration": 0.4291,
      "velocity": 89,
      "chip": "ym2612"
    },
    {
      "channel": 0,
      "note": 66,
      "start": 6.2305,
      "duration": 0.1008,
      "velocity": 127,
      "chip": "ym2612"
    },
    {
      "channel": 0,
      "note": 66,
      "start": 6.3319,
      "duration": 0.1088,
      "velocity": 127,
      "chip": "ym2612"
    },
    {
      "channel": 0,
      "note": 66,
      "start": 6.4412,
      "duration": 0.1062,
      "velocity": 127,
      "chip": "ym2612"
    },
    {
      "channel": 0,
      "note": 66,
      "start": 6.548,
      "duration": 0.1117,
      "velocity": 127,
      "chip": "ym2612"
    },
    {
      "channel": 2,
      "note": 52,
      "start": 6.6495,
      "duration": 0.1092,
      "velocity": 83,
      "chip": "ym2612"
    },
    {
      "channel": 1,
      "note": 52,
      "start": 6.6513,
      "duration": 0.1091,
      "velocity": 89,
      "chip": "ym2612"
    },
    {
      "channel": 0,
      "note": 66,
      "start": 6.6601,
      "duration": 0.1091,
      "velocity": 127,
      "chip": "ym2612"
    },
    {
      "channel": 2,
      "note": 53,
      "start": 6.7592,
      "duration": 0.1094,
      "velocity": 83,
      "chip": "ym2612"
    },
    {
      "channel": 1,
      "note": 53,
      "start": 6.7609,
      "duration": 0.1023,
      "velocity": 89,
      "chip": "ym2612"
    },
    {
      "channel": 0,
      "note": 66,
      "start": 6.7696,
      "duration": 0.109,
      "velocity": 127,
      "chip": "ym2612"
    },
    {
      "channel": 1,
      "note": 54,
      "start": 6.8637,
      "duration": 0.2184,
      "velocity": 89,
      "chip": "ym2612"
    },
    {
      "channel": 2,
      "note": 54,
      "start": 6.8691,
      "duration": 0.2112,
      "velocity": 83,
      "chip": "ym2612"
    },
    {
      "channel": 3,
      "note": 66,
      "start": 6.8735,
      "duration": 0.2051,
      "velocity": 83,
      "chip": "ym2612"
    },
    {
      "channel": 0,
      "note": 66,
      "start": 6.8873,
      "duration": 0.3001,
      "velocity": 127,
      "chip": "ym2612"
    },
    {
      "channel": 3,
      "note": 66,
      "start": 7.079,
      "duration": 0.1114,
      "velocity": 83,
      "chip": "ym2612"
    },
    {
      "channel": 2,
      "note": 54,
      "start": 7.0808,
      "duration": 0.1115,
      "velocity": 83,
      "chip": "ym2612"
    },
    {
      "channel": 1,
      "note": 54,
      "start": 7.0826,
      "duration": 0.1114,
      "velocity": 89,
      "chip": "ym2612"
    },
    {
      "channel": 0,
      "note": 66,
      "start": 7.1879,
      "duration": 0.1157,
      "velocity": 127,
      "chip": "ym2612"
    },
    {
      "channel": 3,
      "note": 66,
      "start": 7.191,
      "duration": 0.1074,
      "velocity": 83,
      "chip": "ym2612"
    },
    {
      "channel": 2,
      "note": 54,
      "start": 7.1927,
      "duration": 0.1074,
      "velocity": 83,
      "chip": "ym2612"
    },
    {
      "channel": 1,
      "note": 54,
      "start": 7.1945,
      "duration": 0.1074,
      "velocity": 89,
      "chip": "ym2612"
    },
    {
      "channel": 3,
      "note": 64,
      "start": 7.2989,
      "duration": 0.3186,
      "velocity": 83,
      "chip": "ym2612"
    },
    {
      "channel": 2,
      "note": 52,
      "start": 7.3006,
      "duration": 0.3187,
      "velocity": 83,
      "chip": "ym2612"
    },
    {
      "channel": 1,
      "note": 52,
      "start": 7.3025,
      "duration": 0.3186,
      "velocity": 89,
      "chip": "ym2612"
    },
    {
      "channel": 0,
      "note": 57,
      "start": 7.3122,
      "duration": 0.3106,
      "velocity": 127,
      "chip": "ym2612"
    },
    {
      "channel": 3,
      "note": 66,
      "start": 7.618,
      "duration": 0.2249,
      "velocity": 83,
      "chip": "ym2612"
    },
    {
      "channel": 2,
      "note": 54,
      "start": 7.6198,
      "duration": 0.2165,
      "velocity": 83,
      "chip": "ym2612"
    },
    {
      "channel": 1,
      "note": 54,
      "start": 7.6216,
      "duration": 0.2165,
      "velocity": 89,
      "chip": "ym2612"
    },
    {
      "channel": 0,
      "note": 66,
      "start": 7.6315,
      "duration": 0.2084,
      "velocity": 127,
      "chip": "ym2612"
    },
    {
      "channel": 2,
      "note": 54,
      "start": 7.8368,
      "duration": 0.1076,
      "velocity": 83,
      "chip": "ym2612"
    },
    {
      "channel": 1,
      "note": 54,
      "start": 7.8386,
      "duration": 0.1076,
      "velocity": 89,
      "chip": "ym2612"
    },
    {
      "channel": 0,
      "note": 66,
      "start": 7.8404,
      "duration": 0.2127,
      "velocity": 127,
      "chip": "ym2612"
    },
    {
      "channel": 3,
      "note": 66,
      "start": 7.8434,
      "duration": 0.0993,
      "velocity": 83,
      "chip": "ym2612"
    },
    {
      "channel": 3,
      "note": 78,
      "start": 7.9432,
      "duration": 0.113,
      "velocity": 83,
      "chip": "ym2612"
    },
    {
      "channel": 2,
      "note": 66,
      "start": 7.945,
      "duration": 0.113,
      "velocity": 83,
      "chip": "ym2612"
    },
    {
      "channel": 1,
      "note": 66,
      "start": 7.9467,
      "duration": 0.1046,
      "velocity": 89,
      "chip": "ym2612"
    },
    {
      "channel": 1,
      "note": 54,
      "start": 8.0518,
      "duration": 0.1091,
      "velocity": 89,
      "chip": "ym2612"
    },
    {
      "channel": 0,
      "note": 66,
      "start": 8.0536,
      "duration": 0.109,
      "velocity": 127,
      "chip": "ym2612"
    },
    {
      "channel": 3,
      "note": 66,
      "start": 8.0567,
      "duration": 0.1007,
      "velocity": 83,
      "chip": "ym2612"
    },
    {
      "channel": 2,
      "note": 54,
      "start": 8.0585,
      "duration": 0.1007,
      "velocity": 83,
      "chip": "ym2612"
    },
    {
      "channel": 3,
      "note": 64,
      "start": 8.1579,
      "duration": 0.1117,
      "velocity": 83,
      "chip": "ym2612"
    },
    {
      "channel": 2,
      "note": 52,
      "start": 8.1597,
      "duration": 0.1116,
      "velocity": 83,
      "chip": "ym2612"
    },
    {
      "channel": 1,
      "note": 52,
      "start": 8.1614,
      "duration": 0.1047,
      "velocity": 89,
      "chip": "ym2612"
    },
    {
      "channel": 0,
      "note": 57,
      "start": 8.1711,
      "duration": 0.0249,
      "velocity": 127,
      "chip": "ym2612"
    },
    {
      "channel": 0,
      "note": 66,
      "start": 8.1965,
      "duration": 0.1848,
      "velocity": 127,
      "chip": "ym2612"
    },
    {
      "channel": 1,
      "note": 49,
      "start": 8.2666,
      "duration": 0.1129,
      "velocity": 89,
      "chip": "ym2612"
    },
    {
      "channel": 3,
      "note": 61,
      "start": 8.27,
      "duration": 0.106,
      "velocity": 83,
      "chip": "ym2612"
    },
    {
      "channel": 2,
      "note": 49,
      "start": 8.2718,
      "duration": 0.106,
      "velocity": 83,
      "chip": "ym2612"
    },
    {
      "channel": 3,
      "note": 64,
      "start": 8.3765,
      "duration": 0.2153,
      "velocity": 83,
      "chip": "ym2612"
    },
    {
      "channel": 2,
      "note": 52,
      "start": 8.3783,
      "duration": 0.2152,
      "velocity": 83,
      "chip": "ym2612"
    },
    {
      "channel": 1,
      "note": 52,
      "start": 8.3801,
      "duration": 0.2153,
      "velocity": 89,
      "chip": "ym2612"
    },
    {
      "channel": 0,
      "note": 66,
      "start": 8.39,
      "duration": 0.207,
      "velocity": 127,
      "chip": "ym2612"
    },
    {
      "channel": 3,
      "note": 66,
      "start": 8.5923,
      "duration": 0.2165,
      "velocity": 83,
      "chip": "ym2612"
    },
    {
      "channel": 2,
      "note": 54,
      "start": 8.594,
      "duration": 0.2166,
      "velocity": 83,
      "chip": "ym2612"
    },
    {
      "channel": 1,
      "note": 54,
      "start": 8.5959,
      "duration": 0.2095,
      "velocity": 89,
      "chip": "ym2612"
    },
    {
      "channel": 0,
      "note": 66,
      "start": 8.6056,
      "duration": 0.3149,
      "velocity": 127,
      "chip": "ym2612"
    },
    {
      "channel": 1,
      "note": 54,
      "start": 8.806,
      "duration": 0.1129,
      "velocity": 89,
      "chip": "ym2612"
    },
    {
      "channel": 3,
      "note": 66,
      "start": 8.8093,
      "duration": 0.1059,
      "velocity": 83,
      "chip": "ym2612"
    },
    {
      "channel": 2,
      "note": 54,
      "start": 8.8111,
      "duration": 0.1059,
      "velocity": 83,
      "chip": "ym2612"
    },
    {
      "channel": 3,
      "note": 66,
      "start": 8.9158,
      "duration": 0.1078,
      "velocity": 83,
      "chip": "ym2612"
    },
    {
      "channel": 2,
      "note": 54,
      "start": 8.9176,
      "duration": 0.1078,
      "velocity": 83,
      "chip": "ym2612"
    },
    {
      "channel": 1,
      "note": 54,
      "start": 8.9193,
      "duration": 0.1078,
      "velocity": 89,
      "chip": "ym2612"
    },
    {
      "channel": 0,
      "note": 66,
      "start": 8.9211,
      "duration": 0.0991,
      "velocity": 127,
      "chip": "ym2612"
    },
    {
      "channel": 3,
      "note": 64,
      "start": 9.024,
      "duration": 0.324,
      "velocity": 83,
      "chip": "ym2612"
    },
    {
      "channel": 2,
      "note": 52,
      "start": 9.0259,
      "duration": 0.3239,
      "velocity": 83,
      "chip": "ym2612"
    },
    {
      "channel": 1,
      "note": 52,
      "start": 9.0277,
      "duration": 0.3239,
      "velocity": 89,
      "chip": "ym2612"
    },
    {
      "channel": 0,
      "note": 57,
      "start": 9.0331,
      "duration": 0.3117,
      "velocity": 127,
      "chip": "ym2612"
    },
    {
      "channel": 3,
      "note": 66,
      "start": 9.3485,
      "duration": 0.211,
      "velocity": 83,
      "chip": "ym2612"
    },
    {
      "channel": 2,
      "note": 54,
      "start": 9.3503,
      "duration": 0.211,
      "velocity": 83,
      "chip": "ym2612"
    },
    {
      "channel": 1,
      "note": 54,
      "start": 9.3521,
      "duration": 0.211,
      "velocity": 89,
      "chip": "ym2612"
    },
    {
      "channel": 0,
      "note": 66,
      "start": 9.3577,
      "duration": 0.2072,
      "velocity": 127,
      "chip": "ym2612"
    },
    {
      "channel": 3,
      "note": 66,
      "start": 9.56,
      "duration": 0.1144,
      "velocity": 83,
      "chip": "ym2612"
    },
    {
      "channel": 2,
      "note": 54,
      "start": 9.5618,
      "duration": 0.1074,
      "velocity": 83,
      "chip": "ym2612"
    },
    {
      "channel": 1,
      "note": 54,
      "start": 9.5636,
      "duration": 0.1074,
      "velocity": 89,
      "chip": "ym2612"
    },
    {
      "channel": 0,
      "note": 66,
      "start": 9.5654,
      "duration": 0.2127,
      "velocity": 127,
      "chip": "ym2612"
    },
    {
      "channel": 2,
      "note": 49,
      "start": 9.6697,
      "duration": 0.1048,
      "velocity": 83,
      "chip": "ym2612"
    },
    {
      "channel": 1,
      "note": 49,
      "start": 9.6715,
      "duration": 0.1048,
      "velocity": 89,
      "chip": "ym2612"
    },
    {
      "channel": 3,
      "note": 61,
      "start": 9.6749,
      "duration": 0.1062,
      "velocity": 83,
      "chip": "ym2612"
    },
    {
      "channel": 2,
      "note": 49,
      "start": 9.775,
      "duration": 0.116,
      "velocity": 83,
      "chip": "ym2612"
    },
    {
      "channel": 1,
      "note": 49,
      "start": 9.7768,
      "duration": 0.1074,
      "velocity": 89,
      "chip": "ym2612"
    },
    {
      "channel": 0,
      "note": 66,
      "start": 9.7785,
      "duration": 0.1073,
      "velocity": 127,
      "chip": "ym2612"
    },
    {
      "channel": 3,
      "note": 61,
      "start": 9.7816,
      "duration": 0.1075,
      "velocity": 83,
      "chip": "ym2612"
    },
    {
      "channel": 1,
      "note": 57,
      "start": 9.8846,
      "duration": 0.1131,
      "velocity": 89,
      "chip": "ym2612"
    },
    {
      "channel": 3,
      "note": 69,
      "start": 9.8897,
      "duration": 0.1044,
      "velocity": 83,
      "chip": "ym2612"
    },
    {
      "channel": 2,
      "note": 57,
      "start": 9.8915,
      "duration": 0.1045,
      "velocity": 83,
      "chip": "ym2612"
    },
    {
      "channel": 0,
      "note": 57,
      "start": 9.8973,
      "duration": 0.0222,
      "velocity": 127,
      "chip": "ym2612"
    },
    {
      "channel": 0,
      "note": 66,
      "start": 9.9199,
      "duration": 0.1848,
      "velocity": 127,
      "chip": "ym2612"
    },
    {
      "channel": 3,
      "note": 81,
      "start": 9.9946,
      "duration": 0.1047,
      "velocity": 83,
      "chip": "ym2612"
    },
    {
      "channel": 2,
      "note": 69,
      "start": 9.9964,
      "duration": 0.1047,
      "velocity": 83,
      "chip": "ym2612"
    },
    {
      "channel": 1,
      "note": 69,
      "start": 9.9982,
      "duration": 0.1047,
      "velocity": 89,
      "chip": "ym2612"
    },
    {
      "channel": 3,
      "note": 68,
      "start": 10.0999,
      "duration": 0.1102,
      "velocity": 83,
      "chip": "ym2612"
    },
    {
      "channel": 2,
      "note": 56,
      "start": 10.1016,
      "duration": 0.1102,
      "velocity": 83,
      "chip": "ym2612"
    },
    {
      "channel": 1,
      "note": 56,
      "start": 10.1034,
      "duration": 0.1102,
      "velocity": 89,
      "chip": "ym2612"
    },
    {
      "channel": 0,
      "note": 66,
      "start": 10.1052,
      "duration": 0.0328,
      "velocity": 127,
      "chip": "ym2612"
    },
    {
      "channel": 0,
      "note": 66,
      "start": 10.1385,
      "duration": 0.1752,
      "velocity": 127,
      "chip": "ym2612"
    },
    {
      "channel": 3,
      "note": 80,
      "start": 10.2106,
      "duration": 0.1063,
      "velocity": 83,
      "chip": "ym2612"
    },
    {
      "channel": 2,
      "note": 68,
      "start": 10.2123,
      "duration": 0.1064,
      "velocity": 83,
      "chip": "ym2612"
    },
    {
      "channel": 1,
      "note": 68,
      "start": 10.2142,
      "duration": 0.1063,
      "velocity": 89,
      "chip": "ym2612"
    },
    {
      "channel": 3,
      "note": 66,
      "start": 10.3174,
      "duration": 0.2162,
      "velocity": 83,
      "chip": "ym2612"
    },
    {
      "channel": 2,
      "note": 54,
      "start": 10.3192,
      "duration": 0.2162,
      "velocity": 83,
      "chip": "ym2612"
    },
    {
      "channel": 1,
      "note": 54,
      "start": 10.321,
      "duration": 0.2163,
      "velocity": 89,
      "chip": "ym2612"
    },
    {
      "channel": 0,
      "note": 66,
      "start": 10.3266,
      "duration": 0.3177,
      "velocity": 127,
      "chip": "ym2612"
    },
    {
      "channel": 3,
      "note": 66,
      "start": 10.5341,
      "duration": 0.1048,
      "velocity": 83,
      "chip": "ym2612"
    },
    {
      "channel": 2,
      "note": 54,
      "start": 10.5359,
      "duration": 0.1048,
      "velocity": 83,
      "chip": "ym2612"
    },
    {
      "channel": 1,
      "note": 54,
      "start": 10.5377,
      "duration": 0.1048,
      "velocity": 89,
      "chip": "ym2612"
    },
    {
      "channel": 3,
      "note": 66,
      "start": 10.6394,
      "duration": 0.1088,
      "velocity": 83,
      "chip": "ym2612"
    },
    {
      "channel": 2,
      "note": 54,
      "start": 10.6412,
      "duration": 0.1088,
      "velocity": 83,
      "chip": "ym2612"
    },
    {
      "channel": 1,
      "note": 54,
      "start": 10.643,
      "duration": 0.1088,
      "velocity": 89,
      "chip": "ym2612"
    },
    {
      "channel": 0,
      "note": 66,
      "start": 10.6448,
      "duration": 0.1087,
      "velocity": 127,
      "chip": "ym2612"
    },
    {
      "channel": 3,
      "note": 64,
      "start": 10.7488,
      "duration": 0.3237,
      "velocity": 83,
      "chip": "ym2612"
    },
    {
      "channel": 2,
      "note": 52,
      "start": 10.7505,
      "duration": 0.3239,
      "velocity": 83,
      "chip": "ym2612"
    },
    {
      "channel": 1,
      "note": 52,
      "start": 10.7523,
      "duration": 0.3239,
      "velocity": 89,
      "chip": "ym2612"
    },
    {
      "channel": 0,
      "note": 57,
      "start": 10.7621,
      "duration": 0.3159,
      "velocity": 127,
      "chip": "ym2612"
    },
    {
      "channel": 3,
      "note": 66,
      "start": 11.0732,
      "duration": 0.2151,
      "velocity": 83,
      "chip": "ym2612"
    },
    {
      "channel": 2,
      "note": 54,
      "start": 11.0749,
      "duration": 0.2151,
      "velocity": 83,
      "chip": "ym2612"
    },
    {
      "channel": 1,
      "note": 54,
      "start": 11.0767,
      "duration": 0.2151,
      "velocity": 89,
      "chip": "ym2612"
    },
    {
      "channel": 0,
      "note": 66,
      "start": 11.0865,
      "duration": 0.2071,
      "velocity": 127,
      "chip": "ym2612"
    },
    {
      "channel": 3,
      "note": 66,
      "start": 11.2887,
      "duration": 0.109,
      "velocity": 83,
      "chip": "ym2612"
    },
    {
      "channel": 2,
      "note": 54,
      "start": 11.2905,
      "duration": 0.1021,
      "velocity": 83,
      "chip": "ym2612"
    },
    {
      "channel": 1,
      "note": 54,
      "start": 11.2924,
      "duration": 0.102,
      "velocity": 89,
      "chip": "ym2612"
    },
    {
      "channel": 0,
      "note": 66,
      "start": 11.2941,
      "duration": 0.2141,
      "velocity": 127,
      "chip": "ym2612"
    },
    {
      "channel": 2,
      "note": 66,
      "start": 11.3931,
      "duration": 0.1115,
      "velocity": 83,
      "chip": "ym2612"
    },
    {
      "channel": 1,
      "note": 66,
      "start": 11.3949,
      "duration": 0.1116,
      "velocity": 89,
      "chip": "ym2612"
    },
    {
      "channel": 3,
      "note": 78,
      "start": 11.3983,
      "duration": 0.1045,
      "velocity": 83,
      "chip": "ym2612"
    },
    {
      "channel": 3,
      "note": 66,
      "start": 11.5033,
      "duration": 0.1089,
      "velocity": 83,
      "chip": "ym2612"
    },
    {
      "channel": 2,
      "note": 54,
      "start": 11.5051,
      "duration": 0.1089,
      "velocity": 83,
      "chip": "ym2612"
    },
    {
      "channel": 1,
      "note": 54,
      "start": 11.507,
      "duration": 0.1088,
      "velocity": 89,
      "chip": "ym2612"
    },
    {
      "channel": 0,
      "note": 66,
      "start": 11.5088,
      "duration": 0.1087,
      "velocity": 127,
      "chip": "ym2612"
    },
    {
      "channel": 3,
      "note": 64,
      "start": 11.6127,
      "duration": 0.1049,
      "velocity": 83,
      "chip": "ym2612"
    },
    {
      "channel": 2,
      "note": 52,
      "start": 11.6145,
      "duration": 0.1048,
      "velocity": 83,
      "chip": "ym2612"
    },
    {
      "channel": 1,
      "note": 52,
      "start": 11.6163,
      "duration": 0.1048,
      "velocity": 89,
      "chip": "ym2612"
    },
    {
      "channel": 0,
      "note": 57,
      "start": 11.626,
      "duration": 0.0195,
      "velocity": 127,
      "chip": "ym2612"
    },
    {
      "channel": 0,
      "note": 66,
      "start": 11.646,
      "duration": 0.1805,
      "velocity": 127,
      "chip": "ym2612"
    },
    {
      "channel": 3,
      "note": 61,
      "start": 11.718,
      "duration": 0.1117,
      "velocity": 83,
      "chip": "ym2612"
    },
    {
      "channel": 2,
      "note": 49,
      "start": 11.7198,
      "duration": 0.1117,
      "velocity": 83,
      "chip": "ym2612"
    },
    {
      "channel": 1,
      "note": 49,
      "start": 11.7216,
      "duration": 0.1117,
      "velocity": 89,
      "chip": "ym2612"
    },
    {
      "channel": 3,
      "note": 64,
      "start": 11.8303,
      "duration": 0.2109,
      "velocity": 83,
      "chip": "ym2612"
    },
    {
      "channel": 2,
      "note": 52,
      "start": 11.832,
      "duration": 0.211,
      "velocity": 83,
      "chip": "ym2612"
    },
    {
      "channel": 1,
      "note": 52,
      "start": 11.8338,
      "duration": 0.2109,
      "velocity": 89,
      "chip": "ym2612"
    },
    {
      "channel": 0,
      "note": 66,
      "start": 11.8394,
      "duration": 0.2071,
      "velocity": 127,
      "chip": "ym2612"
    },
    {
      "channel": 3,
      "note": 78,
      "start": 12.0417,
      "duration": 0.1144,
      "velocity": 83,
      "chip": "ym2612"
    },
    {
      "channel": 2,
      "note": 66,
      "start": 12.0435,
      "duration": 0.1074,
      "velocity": 83,
      "chip": "ym2612"
    },
    {
      "channel": 1,
      "note": 66,
      "start": 12.0453,
      "duration": 0.1074,
      "velocity": 89,
      "chip": "ym2612"
    },
    {
      "channel": 0,
      "note": 66,
      "start": 12.0551,
      "duration": 0.3164,
      "velocity": 127,
      "chip": "ym2612"
    },
    {
      "channel": 2,
      "note": 64,
      "start": 12.1515,
      "duration": 0.1048,
      "velocity": 83,
      "chip": "ym2612"
    },
    {
      "channel": 1,
      "note": 64,
      "start": 12.1532,
      "duration": 0.1049,
      "velocity": 89,
      "chip": "ym2612"
    },
    {
      "channel": 3,
      "note": 76,
      "start": 12.1567,
      "duration": 0.1048,
      "velocity": 83,
      "chip": "ym2612"
    },
    {
      "channel": 2,
      "note": 60,
      "start": 12.2568,
      "duration": 0.2194,
      "velocity": 83,
      "chip": "ym2612"
    },
    {
      "channel": 1,
      "note": 60,
      "start": 12.2586,
      "duration": 0.2194,
      "velocity": 89,
      "chip": "ym2612"
    },
    {
      "channel": 3,
      "note": 72,
      "start": 12.262,
      "duration": 0.2125,
      "velocity": 83,
      "chip": "ym2612"
    },
    {
      "channel": 0,
      "note": 66,
      "start": 12.372,
      "duration": 0.0991,
      "velocity": 127,
      "chip": "ym2612"
    },
    {
      "channel": 3,
      "note": 76,
      "start": 12.4749,
      "duration": 0.1071,
      "velocity": 83,
      "chip": "ym2612"
    },
    {
      "channel": 2,
      "note": 64,
      "start": 12.4767,
      "duration": 0.1071,
      "velocity": 83,
      "chip": "ym2612"
    },
    {
      "channel": 1,
      "note": 64,
      "start": 12.4785,
      "duration": 0.1071,
      "velocity": 89,
      "chip": "ym2612"
    },
    {
      "channel": 0,
      "note": 57,
      "start": 12.4839,
      "duration": 0.3151,
      "velocity": 127,
      "chip": "ym2612"
    },
    {
      "channel": 3,
      "note": 73,
      "start": 12.5826,
      "duration": 0.1129,
      "velocity": 83,
      "chip": "ym2612"
    },
    {
      "channel": 2,
      "note": 61,
      "start": 12.5843,
      "duration": 0.106,
      "velocity": 83,
      "chip": "ym2612"
    },
    {
      "channel": 1,
      "note": 61,
      "start": 12.5861,
      "duration": 0.106,
      "velocity": 89,
      "chip": "ym2612"
    },
    {
      "channel": 2,
      "note": 59,
      "start": 12.6908,
      "duration": 0.1047,
      "velocity": 83,
      "chip": "ym2612"
    },
    {
      "channel": 1,
      "note": 59,
      "start": 12.6926,
      "duration": 0.1047,
      "velocity": 89,
      "chip": "ym2612"
    },
    {
      "channel": 3,
      "note": 71,
      "start": 12.696,
      "duration": 0.1063,
      "velocity": 83,
      "chip": "ym2612"
    },
    {
      "channel": 2,
      "note": 57,
      "start": 12.796,
      "duration": 0.116,
      "velocity": 83,
      "chip": "ym2612"
    },
    {
      "channel": 1,
      "note": 57,
      "start": 12.7978,
      "duration": 0.1074,
      "velocity": 89,
      "chip": "ym2612"
    },
    {
      "channel": 3,
      "note": 69,
      "start": 12.8028,
      "duration": 0.1075,
      "velocity": 83,
      "chip": "ym2612"
    },
    {
      "channel": 0,
      "note": 66,
      "start": 12.8091,
      "duration": 0.0979,
      "velocity": 127,
      "chip": "ym2612"
    },
    {
      "channel": 1,
      "note": 59,
      "start": 12.9058,
      "duration": 0.109,
      "velocity": 89,
      "chip": "ym2612"
    },
    {
      "channel": 3,
      "note": 71,
      "start": 12.9108,
      "duration": 0.1005,
      "velocity": 83,
      "chip": "ym2612"
    },
    {
      "channel": 2,
      "note": 59,
      "start": 12.9125,
      "duration": 0.1005,
      "velocity": 83,
      "chip": "ym2612"
    },
    {
      "channel": 0,
      "note": 57,
      "start": 12.9184,
      "duration": 0.1015,
      "velocity": 127,
      "chip": "ym2612"
    },
    {
      "channel": 3,
      "note": 73,
      "start": 13.0117,
      "duration": 0.1095,
      "velocity": 83,
      "chip": "ym2612"
    },
    {
      "channel": 2,
      "note": 61,
      "start": 13.0135,
      "duration": 0.1095,
      "velocity": 83,
      "chip": "ym2612"
    },
    {
      "channel": 1,
      "note": 61,
      "start": 13.0153,
      "duration": 0.1095,
      "velocity": 89,
      "chip": "ym2612"
    },
    {
      "channel": 0,
      "note": 66,
      "start": 13.0204,
      "duration": 0.1132,
      "velocity": 127,
      "chip": "ym2612"
    },
    {
      "channel": 3,
      "note": 76,
      "start": 13.1217,
      "duration": 0.1079,
      "velocity": 83,
      "chip": "ym2612"
    },
    {
      "channel": 2,
      "note": 64,
      "start": 13.1235,
      "duration": 0.1078,
      "velocity": 83,
      "chip": "ym2612"
    },
    {
      "channel": 1,
      "note": 64,
      "start": 13.1253,
      "duration": 0.1078,
      "velocity": 89,
      "chip": "ym2612"
    },
    {
      "channel": 0,
      "note": 66,
      "start": 13.1341,
      "duration": 0.1078,
      "velocity": 127,
      "chip": "ym2612"
    },
    {
      "channel": 3,
      "note": 73,
      "start": 13.2301,
      "duration": 0.1052,
      "velocity": 83,
      "chip": "ym2612"
    },
    {
      "channel": 2,
      "note": 61,
      "start": 13.2319,
      "duration": 0.1052,
      "velocity": 83,
      "chip": "ym2612"
    },
    {
      "channel": 1,
      "note": 61,
      "start": 13.2336,
      "duration": 0.1053,
      "velocity": 89,
      "chip": "ym2612"
    },
    {
      "channel": 0,
      "note": 66,
      "start": 13.2424,
      "duration": 0.1053,
      "velocity": 127,
      "chip": "ym2612"
    },
    {
      "channel": 3,
      "note": 78,
      "start": 13.3359,
      "duration": 0.4497,
      "velocity": 83,
      "chip": "ym2612"
    },
    {
      "channel": 2,
      "note": 66,
      "start": 13.3376,
      "duration": 0.45,
      "velocity": 83,
      "chip": "ym2612"
    },
    {
      "channel": 1,
      "note": 66,
      "start": 13.3394,
      "duration": 0.4499,
      "velocity": 89,
      "chip": "ym2612"
    },
    {
      "channel": 0,
      "note": 66,
      "start": 13.3482,
      "duration": 0.1075,
      "velocity": 127,
      "chip": "ym2612"
    },
    {
      "channel": 0,
      "note": 66,
      "start": 13.4563,
      "duration": 0.1048,
      "velocity": 127,
      "chip": "ym2612"
    },
    {
      "channel": 0,
      "note": 66,
      "start": 13.5616,
      "duration": 0.1102,
      "velocity": 127,
      "chip": "ym2612"
    },
    {
      "channel": 0,
      "note": 66,
      "start": 13.6724,
      "duration": 0.1322,
      "velocity": 127,
      "chip": "ym2612"
    },
    {
      "channel": 5,
      "note": 73,
      "start": 13.7834,
      "duration": 0.0915,
      "velocity": 104,
      "chip": "ym2612"
    },
    {
      "channel": 2,
      "note": 54,
      "start": 13.7881,
      "duration": 0.1964,
      "velocity": 83,
      "chip": "ym2612"
    },
    {
      "channel": 1,
      "note": 54,
      "start": 13.7899,
      "duration": 0.1964,
      "velocity": 89,
      "chip": "ym2612"
    },
    {
      "channel": 4,
      "note": 78,
      "start": 13.7934,
      "duration": 0.0826,
      "velocity": 104,
      "chip": "ym2612"
    },
    {
      "channel": 3,
      "note": 69,
      "start": 13.8085,
      "duration": 0.0686,
      "velocity": 104,
      "chip": "ym2612"
    },
    {
      "channel": 0,
      "note": 66,
      "start": 13.8147,
      "duration": 0.2743,
      "velocity": 127,
      "chip": "ym2612"
    },
    {
      "channel": 2,
      "note": 54,
      "start": 13.985,
      "duration": 0.1117,
      "velocity": 83,
      "chip": "ym2612"
    },
    {
      "channel": 1,
      "note": 54,
      "start": 13.9868,
      "duration": 0.1117,
      "velocity": 89,
      "chip": "ym2612"
    },
    {
      "channel": 0,
      "note": 66,
      "start": 14.0895,
      "duration": 0.109,
      "velocity": 127,
      "chip": "ym2612"
    },
    {
      "channel": 5,
      "note": 73,
      "start": 14.0918,
      "duration": 0.1091,
      "velocity": 104,
      "chip": "ym2612"
    },
    {
      "channel": 4,
      "note": 78,
      "start": 14.0937,
      "duration": 0.1083,
      "velocity": 104,
      "chip": "ym2612"
    },
    {
      "channel": 3,
      "note": 69,
      "start": 14.0955,
      "duration": 0.1077,
      "velocity": 104,
      "chip": "ym2612"
    },
    {
      "channel": 2,
      "note": 54,
      "start": 14.0972,
      "duration": 0.1073,
      "velocity": 83,
      "chip": "ym2612"
    },
    {
      "channel": 1,
      "note": 54,
      "start": 14.099,
      "duration": 0.1072,
      "velocity": 89,
      "chip": "ym2612"
    },
    {
      "channel": 2,
      "note": 52,
      "start": 14.2049,
      "duration": 0.3218,
      "velocity": 83,
      "chip": "ym2612"
    },
    {
      "channel": 1,
      "note": 52,
      "start": 14.2067,
      "duration": 0.3217,
      "velocity": 89,
      "chip": "ym2612"
    },
    {
      "channel": 0,
      "note": 57,
      "start": 14.2122,
      "duration": 0.3108,
      "velocity": 127,
      "chip": "ym2612"
    },
    {
      "channel": 4,
      "note": 78,
      "start": 14.4142,
      "duration": 0.216,
      "velocity": 104,
      "chip": "ym2612"
    },
    {
      "channel": 3,
      "note": 69,
      "start": 14.416,
      "duration": 0.2153,
      "velocity": 104,
      "chip": "ym2612"
    },
    {
      "channel": 5,
      "note": 73,
      "start": 14.4193,
      "duration": 0.2098,
      "velocity": 104,
      "chip": "ym2612"
    },
    {
      "channel": 2,
      "note": 54,
      "start": 14.5271,
      "duration": 0.2118,
      "velocity": 83,
      "chip": "ym2612"
    },
    {
      "channel": 1,
      "note": 54,
      "start": 14.5289,
      "duration": 0.2117,
      "velocity": 89,
      "chip": "ym2612"
    },
    {
      "channel": 0,
      "note": 66,
      "start": 14.5345,
      "duration": 0.2079,
      "velocity": 127,
      "chip": "ym2612"
    },
    {
      "channel": 2,
      "note": 54,
      "start": 14.7394,
      "duration": 0.1144,
      "velocity": 83,
      "chip": "ym2612"
    },
    {
      "channel": 1,
      "note": 54,
      "start": 14.7411,
      "duration": 0.1144,
      "velocity": 89,
      "chip": "ym2612"
    },
    {
      "channel": 0,
      "note": 66,
      "start": 14.743,
      "duration": 0.2099,
      "velocity": 127,
      "chip": "ym2612"
    },
    {
      "channel": 5,
      "note": 73,
      "start": 14.8489,
      "duration": 0.6529,
      "velocity": 104,
      "chip": "ym2612"
    },
    {
      "channel": 4,
      "note": 76,
      "start": 14.8507,
      "duration": 0.6414,
      "velocity": 104,
      "chip": "ym2612"
    },
    {
      "channel": 3,
      "note": 68,
      "start": 14.8525,
      "duration": 0.6413,
      "velocity": 104,
      "chip": "ym2612"
    },
    {
      "channel": 2,
      "note": 66,
      "start": 14.8543,
      "duration": 0.102,
      "velocity": 83,
      "chip": "ym2612"
    },
    {
      "channel": 1,
      "note": 66,
      "start": 14.8561,
      "duration": 0.102,
      "velocity": 89,
      "chip": "ym2612"
    },
    {
      "channel": 0,
      "note": 66,
      "start": 14.9534,
      "duration": 0.1128,
      "velocity": 127,
      "chip": "ym2612"
    },
    {
      "channel": 2,
      "note": 54,
      "start": 14.9568,
      "duration": 0.106,
      "velocity": 83,
      "chip": "ym2612"
    },
    {
      "channel": 1,
      "note": 54,
      "start": 14.9586,
      "duration": 0.1059,
      "velocity": 89,
      "chip": "ym2612"
    },
    {
      "channel": 2,
      "note": 52,
      "start": 15.0633,
      "duration": 0.1062,
      "velocity": 83,
      "chip": "ym2612"
    },
    {
      "channel": 1,
      "note": 52,
      "start": 15.0651,
      "duration": 0.1062,
      "velocity": 89,
      "chip": "ym2612"
    },
    {
      "channel": 0,
      "note": 57,
      "start": 15.0748,
      "duration": 0.0222,
      "velocity": 127,
      "chip": "ym2612"
    },
    {
      "channel": 0,
      "note": 66,
      "start": 15.0975,
      "duration": 0.1845,
      "velocity": 127,
      "chip": "ym2612"
    },
    {
      "channel": 2,
      "note": 49,
      "start": 15.17,
      "duration": 0.1086,
      "velocity": 83,
      "chip": "ym2612"
    },
    {
      "channel": 1,
      "note": 49,
      "start": 15.1717,
      "duration": 0.1086,
      "velocity": 89,
      "chip": "ym2612"
    },
    {
      "channel": 2,
      "note": 52,
      "start": 15.279,
      "duration": 0.2166,
      "velocity": 83,
      "chip": "ym2612"
    },
    {
      "channel": 1,
      "note": 52,
      "start": 15.2808,
      "duration": 0.2166,
      "velocity": 89,
      "chip": "ym2612"
    },
    {
      "channel": 0,
      "note": 66,
      "start": 15.2907,
      "duration": 0.2085,
      "velocity": 127,
      "chip": "ym2612"
    },
    {
      "channel": 4,
      "note": 78,
      "start": 15.4926,
      "duration": 0.1089,
      "velocity": 104,
      "chip": "ym2612"
    },
    {
      "channel": 3,
      "note": 69,
      "start": 15.4944,
      "duration": 0.1082,
      "velocity": 104,
      "chip": "ym2612"
    },
    {
      "channel": 2,
      "note": 54,
      "start": 15.4962,
      "duration": 0.2122,
      "velocity": 83,
      "chip": "ym2612"
    },
    {
      "channel": 1,
      "note": 54,
      "start": 15.498,
      "duration": 0.2121,
      "velocity": 89,
      "chip": "ym2612"
    },
    {
      "channel": 5,
      "note": 73,
      "start": 15.5023,
      "duration": 0.103,
      "velocity": 104,
      "chip": "ym2612"
    },
    {
      "channel": 0,
      "note": 66,
      "start": 15.5093,
      "duration": 0.3161,
      "velocity": 127,
      "chip": "ym2612"
    },
    {
      "channel": 2,
      "note": 54,
      "start": 15.7088,
      "duration": 0.113,
      "velocity": 83,
      "chip": "ym2612"
    },
    {
      "channel": 1,
      "note": 54,
      "start": 15.7105,
      "duration": 0.113,
      "velocity": 89,
      "chip": "ym2612"
    },
    {
      "channel": 5,
      "note": 73,
      "start": 15.8169,
      "duration": 0.1174,
      "velocity": 104,
      "chip": "ym2612"
    },
    {
      "channel": 4,
      "note": 78,
      "start": 15.8186,
      "duration": 0.1075,
      "velocity": 104,
      "chip": "ym2612"
    },
    {
      "channel": 3,
      "note": 69,
      "start": 15.8204,
      "duration": 0.1067,
      "velocity": 104,
      "chip": "ym2612"
    },
    {
      "channel": 2,
      "note": 54,
      "start": 15.8222,
      "duration": 0.1062,
      "velocity": 83,
      "chip": "ym2612"
    },
    {
      "channel": 1,
      "note": 54,
      "start": 15.824,
      "duration": 0.1062,
      "velocity": 89,
      "chip": "ym2612"
    },
    {
      "channel": 0,
      "note": 66,
      "start": 15.8258,
      "duration": 0.1061,
      "velocity": 127,
      "chip": "ym2612"
    },
    {
      "channel": 2,
      "note": 52,
      "start": 15.9289,
      "duration": 0.3228,
      "velocity": 83,
      "chip": "ym2612"
    },
    {
      "channel": 1,
      "note": 52,
      "start": 15.9307,
      "duration": 0.3156,
      "velocity": 89,
      "chip": "ym2612"
    },
    {
      "channel": 0,
      "note": 57,
      "start": 15.9412,
      "duration": 0.3068,
      "velocity": 127,
      "chip": "ym2612"
    },
    {
      "channel": 5,
      "note": 73,
      "start": 16.1428,
      "duration": 0.2167,
      "velocity": 104,
      "chip": "ym2612"
    },
    {
      "channel": 4,
      "note": 78,
      "start": 16.1446,
      "duration": 0.2111,
      "velocity": 104,
      "chip": "ym2612"
    },
    {
      "channel": 3,
      "note": 69,
      "start": 16.1464,
      "duration": 0.2104,
      "velocity": 104,
      "chip": "ym2612"
    },
    {
      "channel": 1,
      "note": 54,
      "start": 16.2468,
      "duration": 0.2186,
      "velocity": 89,
      "chip": "ym2612"
    },
    {
      "channel": 2,
      "note": 54,
      "start": 16.2521,
      "duration": 0.2185,
      "velocity": 83,
      "chip": "ym2612"
    },
    {
      "channel": 0,
      "note": 66,
      "start": 16.2581,
      "duration": 0.2092,
      "velocity": 127,
      "chip": "ym2612"
    },
    {
      "channel": 1,
      "note": 54,
      "start": 16.466,
      "duration": 0.1046,
      "velocity": 89,
      "chip": "ym2612"
    },
    {
      "channel": 0,
      "note": 66,
      "start": 16.4677,
      "duration": 0.2169,
      "velocity": 127,
      "chip": "ym2612"
    },
    {
      "channel": 2,
      "note": 54,
      "start": 16.4711,
      "duration": 0.1076,
      "velocity": 83,
      "chip": "ym2612"
    },
    {
      "channel": 1,
      "note": 49,
      "start": 16.5711,
      "duration": 0.1117,
      "velocity": 89,
      "chip": "ym2612"
    },
    {
      "channel": 5,
      "note": 78,
      "start": 16.5738,
      "duration": 0.437,
      "velocity": 104,
      "chip": "ym2612"
    },
    {
      "channel": 4,
      "note": 75,
      "start": 16.5756,
      "duration": 0.4369,
      "velocity": 104,
      "chip": "ym2612"
    },
    {
      "channel": 3,
      "note": 71,
      "start": 16.5774,
      "duration": 0.4369,
      "velocity": 104,
      "chip": "ym2612"
    },
    {
      "channel": 2,
      "note": 49,
      "start": 16.5792,
      "duration": 0.1019,
      "velocity": 83,
      "chip": "ym2612"
    },
    {
      "channel": 2,
      "note": 49,
      "start": 16.6815,
      "duration": 0.1048,
      "velocity": 83,
      "chip": "ym2612"
    },
    {
      "channel": 1,
      "note": 49,
      "start": 16.6833,
      "duration": 0.1049,
      "velocity": 89,
      "chip": "ym2612"
    },
    {
      "channel": 0,
      "note": 66,
      "start": 16.6852,
      "duration": 0.1047,
      "velocity": 127,
      "chip": "ym2612"
    },
    {
      "channel": 2,
      "note": 52,
      "start": 16.7869,
      "duration": 0.1088,
      "velocity": 83,
      "chip": "ym2612"
    },
    {
      "channel": 1,
      "note": 52,
      "start": 16.7887,
      "duration": 0.1088,
      "velocity": 89,
      "chip": "ym2612"
    },
    {
      "channel": 0,
      "note": 57,
      "start": 16.7983,
      "duration": 0.0276,
      "velocity": 127,
      "chip": "ym2612"
    },
    {
      "channel": 0,
      "note": 66,
      "start": 16.8264,
      "duration": 0.1821,
      "velocity": 127,
      "chip": "ym2612"
    },
    {
      "channel": 2,
      "note": 64,
      "start": 16.8962,
      "duration": 0.1087,
      "velocity": 83,
      "chip": "ym2612"
    },
    {
      "channel": 1,
      "note": 64,
      "start": 16.898,
      "duration": 0.1087,
      "velocity": 89,
      "chip": "ym2612"
    },
    {
      "channel": 2,
      "note": 53,
      "start": 17.0053,
      "duration": 0.106,
      "velocity": 83,
      "chip": "ym2612"
    },
    {
      "channel": 1,
      "note": 53,
      "start": 17.0072,
      "duration": 0.1059,
      "velocity": 89,
      "chip": "ym2612"
    },
    {
      "channel": 0,
      "note": 66,
      "start": 17.009,
      "duration": 0.0318,
      "velocity": 127,
      "chip": "ym2612"
    },
    {
      "channel": 5,
      "note": 78,
      "start": 17.0113,
      "duration": 0.1043,
      "velocity": 104,
      "chip": "ym2612"
    },
    {
      "channel": 4,
      "note": 75,
      "start": 17.013,
      "duration": 0.1036,
      "velocity": 104,
      "chip": "ym2612"
    },
    {
      "channel": 3,
      "note": 71,
      "start": 17.0149,
      "duration": 0.0952,
      "velocity": 104,
      "chip": "ym2612"
    },
    {
      "channel": 0,
      "note": 66,
      "start": 17.0413,
      "duration": 0.18,
      "velocity": 127,
      "chip": "ym2612"
    },
    {
      "channel": 2,
      "note": 65,
      "start": 17.1117,
      "duration": 0.1176,
      "velocity": 83,
      "chip": "ym2612"
    },
    {
      "channel": 1,
      "note": 65,
      "start": 17.1135,
      "duration": 0.106,
      "velocity": 89,
      "chip": "ym2612"
    },
    {
      "channel": 1,
      "note": 54,
      "start": 17.2201,
      "duration": 0.2164,
      "velocity": 89,
      "chip": "ym2612"
    },
    {
      "channel": 5,
      "note": 73,
      "start": 17.2244,
      "duration": 0.1006,
      "velocity": 104,
      "chip": "ym2612"
    },
    {
      "channel": 4,
      "note": 78,
      "start": 17.2262,
      "duration": 0.0999,
      "velocity": 104,
      "chip": "ym2612"
    },
    {
      "channel": 3,
      "note": 69,
      "start": 17.228,
      "duration": 0.0992,
      "velocity": 104,
      "chip": "ym2612"
    },
    {
      "channel": 2,
      "note": 54,
      "start": 17.2298,
      "duration": 0.205,
      "velocity": 83,
      "chip": "ym2612"
    },
    {
      "channel": 0,
      "note": 66,
      "start": 17.2357,
      "duration": 0.3118,
      "velocity": 127,
      "chip": "ym2612"
    },
    {
      "channel": 2,
      "note": 54,
      "start": 17.4352,
      "duration": 0.1086,
      "velocity": 83,
      "chip": "ym2612"
    },
    {
      "channel": 1,
      "note": 54,
      "start": 17.437,
      "duration": 0.1087,
      "velocity": 89,
      "chip": "ym2612"
    },
    {
      "channel": 2,
      "note": 54,
      "start": 17.5444,
      "duration": 0.1086,
      "velocity": 83,
      "chip": "ym2612"
    },
    {
      "channel": 1,
      "note": 54,
      "start": 17.5462,
      "duration": 0.1086,
      "velocity": 89,
      "chip": "ym2612"
    },
    {
      "channel": 0,
      "note": 66,
      "start": 17.548,
      "duration": 0.1086,
      "velocity": 127,
      "chip": "ym2612"
    },
    {
      "channel": 5,
      "note": 73,
      "start": 17.5503,
      "duration": 0.0993,
      "velocity": 104,
      "chip": "ym2612"
    },
    {
      "channel": 4,
      "note": 78,
      "start": 17.552,
      "duration": 0.0986,
      "velocity": 104,
      "chip": "ym2612"
    },
    {
      "channel": 3,
      "note": 69,
      "start": 17.5539,
      "duration": 0.0978,
      "velocity": 104,
      "chip": "ym2612"
    },
    {
      "channel": 2,
      "note": 52,
      "start": 17.6535,
      "duration": 0.3217,
      "velocity": 83,
      "chip": "ym2612"
    },
    {
      "channel": 1,
      "note": 52,
      "start": 17.6553,
      "duration": 0.3216,
      "velocity": 89,
      "chip": "ym2612"
    },
    {
      "channel": 0,
      "note": 57,
      "start": 17.665,
      "duration": 0.3136,
      "velocity": 127,
      "chip": "ym2612"
    },
    {
      "channel": 3,
      "note": 69,
      "start": 17.8648,
      "duration": 0.2219,
      "velocity": 104,
      "chip": "ym2612"
    },
    {
      "channel": 5,
      "note": 73,
      "start": 17.8681,
      "duration": 0.2164,
      "velocity": 104,
      "chip": "ym2612"
    },
    {
      "channel": 4,
      "note": 78,
      "start": 17.87,
      "duration": 0.2156,
      "velocity": 104,
      "chip": "ym2612"
    },
    {
      "channel": 2,
      "note": 54,
      "start": 17.9756,
      "duration": 0.2134,
      "velocity": 83,
      "chip": "ym2612"
    },
    {
      "channel": 1,
      "note": 54,
      "start": 17.9774,
      "duration": 0.2134,
      "velocity": 89,
      "chip": "ym2612"
    },
    {
      "channel": 0,
      "note": 66,
      "start": 17.9873,
      "duration": 0.2053,
      "velocity": 127,
      "chip": "ym2612"
    },
    {
      "channel": 2,
      "note": 54,
      "start": 18.1895,
      "duration": 0.1144,
      "velocity": 83,
      "chip": "ym2612"
    },
    {
      "channel": 1,
      "note": 54,
      "start": 18.1913,
      "duration": 0.1143,
      "velocity": 89,
      "chip": "ym2612"
    },
    {
      "channel": 0,
      "note": 66,
      "start": 18.1931,
      "duration": 0.2154,
      "velocity": 127,
      "chip": "ym2612"
    },
    {
      "channel": 5,
      "note": 73,
      "start": 18.299,
      "duration": 0.6515,
      "velocity": 104,
      "chip": "ym2612"
    },
    {
      "channel": 4,
      "note": 76,
      "start": 18.3007,
      "duration": 0.6516,
      "velocity": 104,
      "chip": "ym2612"
    },
    {
      "channel": 3,
      "note": 68,
      "start": 18.3025,
      "duration": 0.6402,
      "velocity": 104,
      "chip": "ym2612"
    },
    {
      "channel": 2,
      "note": 66,
      "start": 18.3044,
      "duration": 0.1006,
      "velocity": 83,
      "chip": "ym2612"
    },
    {
      "channel": 1,
      "note": 66,
      "start": 18.3062,
      "duration": 0.1006,
      "velocity": 89,
      "chip": "ym2612"
    },
    {
      "channel": 2,
      "note": 54,
      "start": 18.4054,
      "duration": 0.1132,
      "velocity": 83,
      "chip": "ym2612"
    },
    {
      "channel": 1,
      "note": 54,
      "start": 18.4072,
      "duration": 0.106,
      "velocity": 89,
      "chip": "ym2612"
    },
    {
      "channel": 0,
      "note": 66,
      "start": 18.409,
      "duration": 0.1059,
      "velocity": 127,
      "chip": "ym2612"
    },
    {
      "channel": 1,
      "note": 52,
      "start": 18.5137,
      "duration": 0.1088,
      "velocity": 89,
      "chip": "ym2612"
    },
    {
      "channel": 2,
      "note": 52,
      "start": 18.5191,
      "duration": 0.1073,
      "velocity": 83,
      "chip": "ym2612"
    },
    {
      "channel": 0,
      "note": 57,
      "start": 18.5249,
      "duration": 0.0221,
      "velocity": 127,
      "chip": "ym2612"
    },
    {
      "channel": 0,
      "note": 66,
      "start": 18.5476,
      "duration": 0.1847,
      "velocity": 127,
      "chip": "ym2612"
    },
    {
      "channel": 1,
      "note": 49,
      "start": 18.6232,
      "duration": 0.1073,
      "velocity": 89,
      "chip": "ym2612"
    },
    {
      "channel": 2,
      "note": 49,
      "start": 18.6268,
      "duration": 0.1019,
      "velocity": 83,
      "chip": "ym2612"
    },
    {
      "channel": 2,
      "note": 52,
      "start": 18.7293,
      "duration": 0.2153,
      "velocity": 83,
      "chip": "ym2612"
    },
    {
      "channel": 1,
      "note": 52,
      "start": 18.731,
      "duration": 0.2153,
      "velocity": 89,
      "chip": "ym2612"
    },
    {
      "channel": 0,
      "note": 66,
      "start": 18.7409,
      "duration": 0.2071,
      "velocity": 127,
      "chip": "ym2612"
    },
    {
      "channel": 3,
      "note": 73,
      "start": 18.9432,
      "duration": 0.109,
      "velocity": 104,
      "chip": "ym2612"
    },
    {
      "channel": 2,
      "note": 59,
      "start": 18.945,
      "duration": 0.2188,
      "velocity": 83,
      "chip": "ym2612"
    },
    {
      "channel": 1,
      "note": 59,
      "start": 18.9468,
      "duration": 0.2188,
      "velocity": 89,
      "chip": "ym2612"
    },
    {
      "channel": 5,
      "note": 76,
      "start": 18.9511,
      "duration": 0.1066,
      "velocity": 104,
      "chip": "ym2612"
    },
    {
      "channel": 4,
      "note": 81,
      "start": 18.9529,
      "duration": 0.1059,
      "velocity": 104,
      "chip": "ym2612"
    },
    {
      "channel": 0,
      "note": 66,
      "start": 18.9595,
      "duration": 0.3131,
      "velocity": 127,
      "chip": "ym2612"
    },
    {
      "channel": 2,
      "note": 64,
      "start": 19.1643,
      "duration": 0.1048,
      "velocity": 83,
      "chip": "ym2612"
    },
    {
      "channel": 1,
      "note": 64,
      "start": 19.1661,
      "duration": 0.1048,
      "velocity": 89,
      "chip": "ym2612"
    },
    {
      "channel": 3,
      "note": 73,
      "start": 19.2678,
      "duration": 0.109,
      "velocity": 104,
      "chip": "ym2612"
    },
    {
      "channel": 2,
      "note": 61,
      "start": 19.2696,
      "duration": 0.1085,
      "velocity": 83,
      "chip": "ym2612"
    },
    {
      "channel": 1,
      "note": 61,
      "start": 19.2714,
      "duration": 0.1084,
      "velocity": 89,
      "chip": "ym2612"
    },
    {
      "channel": 0,
      "note": 66,
      "start": 19.2732,
      "duration": 0.1083,
      "velocity": 127,
      "chip": "ym2612"
    },
    {
      "channel": 5,
      "note": 76,
      "start": 19.2755,
      "duration": 0.1084,
      "velocity": 104,
      "chip": "ym2612"
    },
    {
      "channel": 4,
      "note": 81,
      "start": 19.2773,
      "duration": 0.1076,
      "velocity": 104,
      "chip": "ym2612"
    },
    {
      "channel": 2,
      "note": 66,
      "start": 19.3785,
      "duration": 0.1036,
      "velocity": 83,
      "chip": "ym2612"
    },
    {
      "channel": 1,
      "note": 66,
      "start": 19.3803,
      "duration": 0.1036,
      "velocity": 89,
      "chip": "ym2612"
    },
    {
      "channel": 0,
      "note": 57,
      "start": 19.3915,
      "duration": 0.3139,
      "velocity": 127,
      "chip": "ym2612"
    },
    {
      "channel": 2,
      "note": 64,
      "start": 19.4826,
      "duration": 0.1171,
      "velocity": 83,
      "chip": "ym2612"
    },
    {
      "channel": 1,
      "note": 64,
      "start": 19.4843,
      "duration": 0.1073,
      "velocity": 89,
      "chip": "ym2612"
    },
    {
      "channel": 1,
      "note": 61,
      "start": 19.592,
      "duration": 0.1117,
      "velocity": 89,
      "chip": "ym2612"
    },
    {
      "channel": 5,
      "note": 78,
      "start": 19.5947,
      "duration": 0.6478,
      "velocity": 104,
      "chip": "ym2612"
    },
    {
      "channel": 4,
      "note": 75,
      "start": 19.5966,
      "duration": 0.6471,
      "velocity": 104,
      "chip": "ym2612"
    },
    {
      "channel": 3,
      "note": 71,
      "start": 19.5983,
      "duration": 0.6464,
      "velocity": 104,
      "chip": "ym2612"
    },
    {
      "channel": 2,
      "note": 61,
      "start": 19.6,
      "duration": 0.1019,
      "velocity": 83,
      "chip": "ym2612"
    },
    {
      "channel": 2,
      "note": 60,
      "start": 19.7025,
      "duration": 0.1049,
      "velocity": 83,
      "chip": "ym2612"
    },
    {
      "channel": 1,
      "note": 60,
      "start": 19.7042,
      "duration": 0.1049,
      "velocity": 89,
      "chip": "ym2612"
    },
    {
      "channel": 0,
      "note": 66,
      "start": 19.7141,
      "duration": 0.0968,
      "velocity": 127,
      "chip": "ym2612"
    },
    {
      "channel": 2,
      "note": 59,
      "start": 19.8079,
      "duration": 0.11,
      "velocity": 83,
      "chip": "ym2612"
    },
    {
      "channel": 1,
      "note": 59,
      "start": 19.8097,
      "duration": 0.1099,
      "velocity": 89,
      "chip": "ym2612"
    },
    {
      "channel": 0,
      "note": 57,
      "start": 19.8193,
      "duration": 0.1055,
      "velocity": 127,
      "chip": "ym2612"
    },
    {
      "channel": 2,
      "note": 59,
      "start": 19.9183,
      "duration": 0.108,
      "velocity": 83,
      "chip": "ym2612"
    },
    {
      "channel": 1,
      "note": 59,
      "start": 19.9201,
      "duration": 0.1013,
      "velocity": 89,
      "chip": "ym2612"
    },
    {
      "channel": 0,
      "note": 66,
      "start": 19.9253,
      "duration": 0.1063,
      "velocity": 127,
      "chip": "ym2612"
    },
    {
      "channel": 1,
      "note": 51,
      "start": 20.0219,
      "duration": 0.437,
      "velocity": 89,
      "chip": "ym2612"
    },
    {
      "channel": 2,
      "note": 51,
      "start": 20.0268,
      "duration": 0.4305,
      "velocity": 83,
      "chip": "ym2612"
    },
    {
      "channel": 0,
      "note": 66,
      "start": 20.0322,
      "duration": 0.1062,
      "velocity": 127,
      "chip": "ym2612"
    },
    {
      "channel": 0,
      "note": 66,
      "start": 20.1388,
      "duration": 0.1111,
      "velocity": 127,
      "chip": "ym2612"
    },
    {
      "channel": 0,
      "note": 66,
      "start": 20.2505,
      "duration": 0.1036,
      "velocity": 127,
      "chip": "ym2612"
    },
    {
      "channel": 0,
      "note": 66,
      "start": 20.3546,
      "duration": 0.116,
      "velocity": 127,
      "chip": "ym2612"
    },
    {
      "channel": 3,
      "note": 73,
      "start": 20.4559,
      "duration": 0.1068,
      "velocity": 104,
      "chip": "ym2612"
    },
    {
      "channel": 2,
      "note": 52,
      "start": 20.4577,
      "duration": 0.1062,
      "velocity": 83,
      "chip": "ym2612"
    },
    {
      "channel": 1,
      "note": 52,
      "start": 20.4595,
      "duration": 0.1063,
      "velocity": 89,
      "chip": "ym2612"
    },
    {
      "channel": 5,
      "note": 76,
      "start": 20.4632,
      "duration": 0.0973,
      "velocity": 104,
      "chip": "ym2612"
    },
    {
      "channel": 4,
      "note": 81,
      "start": 20.465,
      "duration": 0.0966,
      "velocity": 104,
      "chip": "ym2612"
    },
    {
      "channel": 0,
      "note": 66,
      "start": 20.4711,
      "duration": 0.1034,
      "velocity": 127,
      "chip": "ym2612"
    },
    {
      "channel": 2,
      "note": 53,
      "start": 20.5644,
      "duration": 0.1078,
      "velocity": 83,
      "chip": "ym2612"
    },
    {
      "channel": 1,
      "note": 53,
      "start": 20.5663,
      "duration": 0.1078,
      "velocity": 89,
      "chip": "ym2612"
    },
    {
      "channel": 0,
      "note": 66,
      "start": 20.5751,
      "duration": 0.1138,
      "velocity": 127,
      "chip": "ym2612"
    },
    {
      "channel": 3,
      "note": 69,
      "start": 20.671,
      "duration": 0.1087,
      "velocity": 104,
      "chip": "ym2612"
    },
    {
      "channel": 2,
      "note": 54,
      "start": 20.6728,
      "duration": 0.2132,
      "velocity": 83,
      "chip": "ym2612"
    },
    {
      "channel": 1,
      "note": 54,
      "start": 20.6745,
      "duration": 0.2132,
      "velocity": 89,
      "chip": "ym2612"
    },
    {
      "channel": 5,
      "note": 73,
      "start": 20.6782,
      "duration": 0.1041,
      "velocity": 104,
      "chip": "ym2612"
    },
    {
      "channel": 4,
      "note": 78,
      "start": 20.6801,
      "duration": 0.1033,
      "velocity": 104,
      "chip": "ym2612"
    },
    {
      "channel": 0,
      "note": 66,
      "start": 20.6976,
      "duration": 0.3026,
      "velocity": 127,
      "chip": "ym2612"
    },
    {
      "channel": 2,
      "note": 54,
      "start": 20.8865,
      "duration": 0.11,
      "velocity": 83,
      "chip": "ym2612"
    },
    {
      "channel": 1,
      "note": 54,
      "start": 20.8883,
      "duration": 0.11,
      "velocity": 89,
      "chip": "ym2612"
    },
    {
      "channel": 3,
      "note": 69,
      "start": 20.9954,
      "duration": 0.1092,
      "velocity": 104,
      "chip": "ym2612"
    },
    {
      "channel": 2,
      "note": 54,
      "start": 20.9971,
      "duration": 0.1087,
      "velocity": 83,
      "chip": "ym2612"
    },
    {
      "channel": 1,
      "note": 54,
      "start": 20.9988,
      "duration": 0.1088,
      "velocity": 89,
      "chip": "ym2612"
    },
    {
      "channel": 0,
      "note": 66,
      "start": 21.0006,
      "duration": 0.0993,
      "velocity": 127,
      "chip": "ym2612"
    },
    {
      "channel": 5,
      "note": 73,
      "start": 21.003,
      "duration": 0.0994,
      "velocity": 104,
      "chip": "ym2612"
    },
    {
      "channel": 4,
      "note": 78,
      "start": 21.0048,
      "duration": 0.0987,
      "velocity": 104,
      "chip": "ym2612"
    },
    {
      "channel": 2,
      "note": 52,
      "start": 21.1063,
      "duration": 0.3216,
      "velocity": 83,
      "chip": "ym2612"
    },
    {
      "channel": 1,
      "note": 52,
      "start": 21.1081,
      "duration": 0.3216,
      "velocity": 89,
      "chip": "ym2612"
    },
    {
      "channel": 0,
      "note": 57,
      "start": 21.1136,
      "duration": 0.3107,
      "velocity": 127,
      "chip": "ym2612"
    },
    {
      "channel": 5,
      "note": 73,
      "start": 21.3205,
      "duration": 0.216,
      "velocity": 104,
      "chip": "ym2612"
    },
    {
      "channel": 4,
      "note": 78,
      "start": 21.3222,
      "duration": 0.2153,
      "velocity": 104,
      "chip": "ym2612"
    },
    {
      "channel": 3,
      "note": 69,
      "start": 21.3241,
      "duration": 0.2096,
      "velocity": 104,
      "chip": "ym2612"
    },
    {
      "channel": 2,
      "note": 54,
      "start": 21.4284,
      "duration": 0.2118,
      "velocity": 83,
      "chip": "ym2612"
    },
    {
      "channel": 1,
      "note": 54,
      "start": 21.4302,
      "duration": 0.2117,
      "velocity": 89,
      "chip": "ym2612"
    },
    {
      "channel": 0,
      "note": 66,
      "start": 21.4357,
      "duration": 0.208,
      "velocity": 127,
      "chip": "ym2612"
    },
    {
      "channel": 2,
      "note": 54,
      "start": 21.6406,
      "duration": 0.1144,
      "velocity": 83,
      "chip": "ym2612"
    },
    {
      "channel": 1,
      "note": 54,
      "start": 21.6424,
      "duration": 0.1144,
      "velocity": 89,
      "chip": "ym2612"
    },
    {
      "channel": 0,
      "note": 66,
      "start": 21.6442,
      "duration": 0.2181,
      "velocity": 127,
      "chip": "ym2612"
    },
    {
      "channel": 5,
      "note": 73,
      "start": 21.7501,
      "duration": 0.6483,
      "velocity": 104,
      "chip": "ym2612"
    },
    {
      "channel": 4,
      "note": 76,
      "start": 21.7519,
      "duration": 0.6482,
      "velocity": 104,
      "chip": "ym2612"
    },
    {
      "channel": 3,
      "note": 68,
      "start": 21.7537,
      "duration": 0.6482,
      "velocity": 104,
      "chip": "ym2612"
    },
    {
      "channel": 2,
      "note": 66,
      "start": 21.7555,
      "duration": 0.1034,
      "velocity": 83,
      "chip": "ym2612"
    },
    {
      "channel": 1,
      "note": 66,
      "start": 21.7573,
      "duration": 0.1033,
      "velocity": 89,
      "chip": "ym2612"
    },
    {
      "channel": 2,
      "note": 54,
      "start": 21.8593,
      "duration": 0.1048,
      "velocity": 83,
      "chip": "ym2612"
    },
    {
      "channel": 1,
      "note": 54,
      "start": 21.8611,
      "duration": 0.1048,
      "velocity": 89,
      "chip": "ym2612"
    },
    {
      "channel": 0,
      "note": 66,
      "start": 21.8628,
      "duration": 0.1047,
      "velocity": 127,
      "chip": "ym2612"
    },
    {
      "channel": 2,
      "note": 52,
      "start": 21.9646,
      "duration": 0.1088,
      "velocity": 83,
      "chip": "ym2612"
    },
    {
      "channel": 1,
      "note": 52,
      "start": 21.9664,
      "duration": 0.1088,
      "velocity": 89,
      "chip": "ym2612"
    },
    {
      "channel": 0,
      "note": 57,
      "start": 21.9761,
      "duration": 0.0275,
      "velocity": 127,
      "chip": "ym2612"
    },
    {
      "channel": 0,
      "note": 66,
      "start": 22.0041,
      "duration": 0.1793,
      "velocity": 127,
      "chip": "ym2612"
    },
    {
      "channel": 2,
      "note": 49,
      "start": 22.0739,
      "duration": 0.106,
      "velocity": 83,
      "chip": "ym2612"
    },
    {
      "channel": 1,
      "note": 49,
      "start": 22.0757,
      "duration": 0.1059,
      "velocity": 89,
      "chip": "ym2612"
    },
    {
      "channel": 2,
      "note": 52,
      "start": 22.1803,
      "duration": 0.2234,
      "velocity": 83,
      "chip": "ym2612"
    },
    {
      "channel": 1,
      "note": 52,
      "start": 22.1821,
      "duration": 0.2234,
      "velocity": 89,
      "chip": "ym2612"
    },
    {
      "channel": 0,
      "note": 66,
      "start": 22.192,
      "duration": 0.2152,
      "velocity": 127,
      "chip": "ym2612"
    },
    {
      "channel": 5,
      "note": 73,
      "start": 22.3989,
      "duration": 0.1078,
      "velocity": 104,
      "chip": "ym2612"
    },
    {
      "channel": 4,
      "note": 78,
      "start": 22.4006,
      "duration": 0.1022,
      "velocity": 104,
      "chip": "ym2612"
    },
    {
      "channel": 3,
      "note": 69,
      "start": 22.4025,
      "duration": 0.1015,
      "velocity": 104,
      "chip": "ym2612"
    },
    {
      "channel": 2,
      "note": 54,
      "start": 22.4042,
      "duration": 0.2121,
      "velocity": 83,
      "chip": "ym2612"
    },
    {
      "channel": 1,
      "note": 54,
      "start": 22.406,
      "duration": 0.2066,
      "velocity": 89,
      "chip": "ym2612"
    },
    {
      "channel": 0,
      "note": 66,
      "start": 22.4159,
      "duration": 0.3093,
      "velocity": 127,
      "chip": "ym2612"
    },
    {
      "channel": 1,
      "note": 54,
      "start": 22.6132,
      "duration": 0.1104,
      "velocity": 89,
      "chip": "ym2612"
    },
    {
      "channel": 2,
      "note": 54,
      "start": 22.6168,
      "duration": 0.1048,
      "velocity": 83,
      "chip": "ym2612"
    },
    {
      "channel": 4,
      "note": 78,
      "start": 22.7186,
      "duration": 0.1088,
      "velocity": 104,
      "chip": "ym2612"
    },
    {
      "channel": 3,
      "note": 69,
      "start": 22.7204,
      "duration": 0.1081,
      "velocity": 104,
      "chip": "ym2612"
    },
    {
      "channel": 2,
      "note": 54,
      "start": 22.7221,
      "duration": 0.1077,
      "velocity": 83,
      "chip": "ym2612"
    },
    {
      "channel": 1,
      "note": 54,
      "start": 22.724,
      "duration": 0.1076,
      "velocity": 89,
      "chip": "ym2612"
    },
    {
      "channel": 0,
      "note": 66,
      "start": 22.7258,
      "duration": 0.1076,
      "velocity": 127,
      "chip": "ym2612"
    },
    {
      "channel": 5,
      "note": 73,
      "start": 22.7281,
      "duration": 0.1076,
      "velocity": 104,
      "chip": "ym2612"
    },
    {
      "channel": 2,
      "note": 52,
      "start": 22.8303,
      "duration": 0.3222,
      "velocity": 83,
      "chip": "ym2612"
    },
    {
      "channel": 1,
      "note": 52,
      "start": 22.8322,
      "duration": 0.3221,
      "velocity": 89,
      "chip": "ym2612"
    },
    {
      "channel": 0,
      "note": 57,
      "start": 22.8426,
      "duration": 0.3134,
      "velocity": 127,
      "chip": "ym2612"
    },
    {
      "channel": 5,
      "note": 73,
      "start": 23.0441,
      "duration": 0.2167,
      "velocity": 104,
      "chip": "ym2612"
    },
    {
      "channel": 4,
      "note": 78,
      "start": 23.0459,
      "duration": 0.2112,
      "velocity": 104,
      "chip": "ym2612"
    },
    {
      "channel": 3,
      "note": 69,
      "start": 23.0477,
      "duration": 0.2104,
      "velocity": 104,
      "chip": "ym2612"
    },
    {
      "channel": 2,
      "note": 54,
      "start": 23.153,
      "duration": 0.2174,
      "velocity": 83,
      "chip": "ym2612"
    },
    {
      "channel": 1,
      "note": 54,
      "start": 23.1548,
      "duration": 0.2173,
      "velocity": 89,
      "chip": "ym2612"
    },
    {
      "channel": 0,
      "note": 66,
      "start": 23.1646,
      "duration": 0.2024,
      "velocity": 127,
      "chip": "ym2612"
    },
    {
      "channel": 0,
      "note": 66,
      "start": 23.3676,
      "duration": 0.2184,
      "velocity": 127,
      "chip": "ym2612"
    },
    {
      "channel": 2,
      "note": 54,
      "start": 23.3709,
      "duration": 0.1074,
      "velocity": 83,
      "chip": "ym2612"
    },
    {
      "channel": 1,
      "note": 54,
      "start": 23.3727,
      "duration": 0.1074,
      "velocity": 89,
      "chip": "ym2612"
    },
    {
      "channel": 3,
      "note": 71,
      "start": 23.477,
      "duration": 0.4386,
      "velocity": 104,
      "chip": "ym2612"
    },
    {
      "channel": 2,
      "note": 49,
      "start": 23.4788,
      "duration": 0.1036,
      "velocity": 83,
      "chip": "ym2612"
    },
    {
      "channel": 1,
      "note": 49,
      "start": 23.4806,
      "duration": 0.1035,
      "velocity": 89,
      "chip": "ym2612"
    },
    {
      "channel": 5,
      "note": 78,
      "start": 23.4833,
      "duration": 0.4288,
      "velocity": 104,
      "chip": "ym2612"
    },
    {
      "channel": 4,
      "note": 75,
      "start": 23.485,
      "duration": 0.4288,
      "velocity": 104,
      "chip": "ym2612"
    },
    {
      "channel": 2,
      "note": 49,
      "start": 23.5828,
      "duration": 0.1102,
      "velocity": 83,
      "chip": "ym2612"
    },
    {
      "channel": 1,
      "note": 49,
      "start": 23.5846,
      "duration": 0.1101,
      "velocity": 89,
      "chip": "ym2612"
    },
    {
      "channel": 0,
      "note": 66,
      "start": 23.5864,
      "duration": 0.11,
      "velocity": 127,
      "chip": "ym2612"
    },
    {
      "channel": 2,
      "note": 57,
      "start": 23.6934,
      "duration": 0.1035,
      "velocity": 83,
      "chip": "ym2612"
    },
    {
      "channel": 1,
      "note": 57,
      "start": 23.6952,
      "duration": 0.1035,
      "velocity": 89,
      "chip": "ym2612"
    },
    {
      "channel": 0,
      "note": 57,
      "start": 23.7049,
      "duration": 0.0222,
      "velocity": 127,
      "chip": "ym2612"
    },
    {
      "channel": 0,
      "note": 66,
      "start": 23.7277,
      "duration": 0.182,
      "velocity": 127,
      "chip": "ym2612"
    },
    {
      "channel": 2,
      "note": 69,
      "start": 23.7974,
      "duration": 0.1087,
      "velocity": 83,
      "chip": "ym2612"
    },
    {
      "channel": 1,
      "note": 69,
      "start": 23.7992,
      "duration": 0.1087,
      "velocity": 89,
      "chip": "ym2612"
    },
    {
      "channel": 2,
      "note": 56,
      "start": 23.9067,
      "duration": 0.1127,
      "velocity": 83,
      "chip": "ym2612"
    },
    {
      "channel": 1,
      "note": 56,
      "start": 23.9085,
      "duration": 0.1127,
      "velocity": 89,
      "chip": "ym2612"
    },
    {
      "channel": 0,
      "note": 66,
      "start": 23.9102,
      "duration": 0.0319,
      "velocity": 127,
      "chip": "ym2612"
    },
    {
      "channel": 5,
      "note": 78,
      "start": 23.9125,
      "duration": 0.1034,
      "velocity": 104,
      "chip": "ym2612"
    },
    {
      "channel": 4,
      "note": 75,
      "start": 23.9143,
      "duration": 0.1027,
      "velocity": 104,
      "chip": "ym2612"
    },
    {
      "channel": 3,
      "note": 71,
      "start": 23.9161,
      "duration": 0.1019,
      "velocity": 104,
      "chip": "ym2612"
    },
    {
      "channel": 0,
      "note": 66,
      "start": 23.9425,
      "duration": 0.1802,
      "velocity": 127,
      "chip": "ym2612"
    },
    {
      "channel": 2,
      "note": 68,
      "start": 24.0198,
      "duration": 0.1108,
      "velocity": 83,
      "chip": "ym2612"
    },
    {
      "channel": 1,
      "note": 68,
      "start": 24.0217,
      "duration": 0.0992,
      "velocity": 89,
      "chip": "ym2612"
    },
    {
      "channel": 1,
      "note": 54,
      "start": 24.1214,
      "duration": 0.2165,
      "velocity": 89,
      "chip": "ym2612"
    },
    {
      "channel": 5,
      "note": 73,
      "start": 24.1258,
      "duration": 0.106,
      "velocity": 104,
      "chip": "ym2612"
    },
    {
      "channel": 4,
      "note": 78,
      "start": 24.1275,
      "duration": 0.1054,
      "velocity": 104,
      "chip": "ym2612"
    },
    {
      "channel": 3,
      "note": 69,
      "start": 24.1293,
      "duration": 0.1046,
      "velocity": 104,
      "chip": "ym2612"
    },
    {
      "channel": 2,
      "note": 54,
      "start": 24.1312,
      "duration": 0.205,
      "velocity": 83,
      "chip": "ym2612"
    },
    {
      "channel": 0,
      "note": 66,
      "start": 24.137,
      "duration": 0.3118,
      "velocity": 127,
      "chip": "ym2612"
    },
    {
      "channel": 2,
      "note": 54,
      "start": 24.3367,
      "duration": 0.1087,
      "velocity": 83,
      "chip": "ym2612"
    },
    {
      "channel": 1,
      "note": 54,
      "start": 24.3385,
      "duration": 0.1086,
      "velocity": 89,
      "chip": "ym2612"
    },
    {
      "channel": 2,
      "note": 54,
      "start": 24.4459,
      "duration": 0.1091,
      "velocity": 83,
      "chip": "ym2612"
    },
    {
      "channel": 1,
      "note": 54,
      "start": 24.4476,
      "duration": 0.1091,
      "velocity": 89,
      "chip": "ym2612"
    },
    {
      "channel": 0,
      "note": 66,
      "start": 24.4493,
      "duration": 0.1091,
      "velocity": 127,
      "chip": "ym2612"
    },
    {
      "channel": 5,
      "note": 73,
      "start": 24.4517,
      "duration": 0.1092,
      "velocity": 104,
      "chip": "ym2612"
    },
    {
      "channel": 4,
      "note": 78,
      "start": 24.4535,
      "duration": 0.1085,
      "velocity": 104,
      "chip": "ym2612"
    },
    {
      "channel": 3,
      "note": 69,
      "start": 24.4553,
      "duration": 0.1077,
      "velocity": 104,
      "chip": "ym2612"
    },
    {
      "channel": 2,
      "note": 52,
      "start": 24.5555,
      "duration": 0.321,
      "velocity": 83,
      "chip": "ym2612"
    },
    {
      "channel": 1,
      "note": 52,
      "start": 24.5572,
      "duration": 0.321,
      "velocity": 89,
      "chip": "ym2612"
    },
    {
      "channel": 0,
      "note": 57,
      "start": 24.5692,
      "duration": 0.3107,
      "velocity": 127,
      "chip": "ym2612"
    },
    {
      "channel": 5,
      "note": 73,
      "start": 24.7706,
      "duration": 0.2153,
      "velocity": 104,
      "chip": "ym2612"
    },
    {
      "channel": 4,
      "note": 78,
      "start": 24.7723,
      "duration": 0.2146,
      "velocity": 104,
      "chip": "ym2612"
    },
    {
      "channel": 3,
      "note": 69,
      "start": 24.7741,
      "duration": 0.2139,
      "velocity": 104,
      "chip": "ym2612"
    },
    {
      "channel": 2,
      "note": 54,
      "start": 24.877,
      "duration": 0.2186,
      "velocity": 83,
      "chip": "ym2612"
    },
    {
      "channel": 1,
      "note": 54,
      "start": 24.8787,
      "duration": 0.2186,
      "velocity": 89,
      "chip": "ym2612"
    },
    {
      "channel": 0,
      "note": 66,
      "start": 24.8885,
      "duration": 0.2106,
      "velocity": 127,
      "chip": "ym2612"
    },
    {
      "channel": 2,
      "note": 54,
      "start": 25.0961,
      "duration": 0.109,
      "velocity": 83,
      "chip": "ym2612"
    },
    {
      "channel": 1,
      "note": 54,
      "start": 25.0979,
      "duration": 0.109,
      "velocity": 89,
      "chip": "ym2612"
    },
    {
      "channel": 0,
      "note": 66,
      "start": 25.0997,
      "duration": 0.2114,
      "velocity": 127,
      "chip": "ym2612"
    },
    {
      "channel": 5,
      "note": 73,
      "start": 25.2002,
      "duration": 0.663,
      "velocity": 104,
      "chip": "ym2612"
    },
    {
      "channel": 4,
      "note": 76,
      "start": 25.202,
      "duration": 0.6564,
      "velocity": 104,
      "chip": "ym2612"
    },
    {
      "channel": 3,
      "note": 68,
      "start": 25.2037,
      "duration": 0.6458,
      "velocity": 104,
      "chip": "ym2612"
    },
    {
      "channel": 2,
      "note": 66,
      "start": 25.2055,
      "duration": 0.1089,
      "velocity": 83,
      "chip": "ym2612"
    },
    {
      "channel": 1,
      "note": 66,
      "start": 25.2074,
      "duration": 0.1019,
      "velocity": 89,
      "chip": "ym2612"
    },
    {
      "channel": 1,
      "note": 54,
      "start": 25.3098,
      "duration": 0.1046,
      "velocity": 89,
      "chip": "ym2612"
    },
    {
      "channel": 0,
      "note": 66,
      "start": 25.3116,
      "duration": 0.1046,
      "velocity": 127,
      "chip": "ym2612"
    },
    {
      "channel": 2,
      "note": 54,
      "start": 25.3149,
      "duration": 0.1048,
      "velocity": 83,
      "chip": "ym2612"
    },
    {
      "channel": 1,
      "note": 52,
      "start": 25.4149,
      "duration": 0.1128,
      "velocity": 89,
      "chip": "ym2612"
    },
    {
      "channel": 2,
      "note": 52,
      "start": 25.4203,
      "duration": 0.1057,
      "velocity": 83,
      "chip": "ym2612"
    },
    {
      "channel": 0,
      "note": 57,
      "start": 25.4261,
      "duration": 0.0275,
      "velocity": 127,
      "chip": "ym2612"
    },
    {
      "channel": 0,
      "note": 66,
      "start": 25.4541,
      "duration": 0.1846,
      "velocity": 127,
      "chip": "ym2612"
    },
    {
      "channel": 2,
      "note": 49,
      "start": 25.5265,
      "duration": 0.1087,
      "velocity": 83,
      "chip": "ym2612"
    },
    {
      "channel": 1,
      "note": 49,
      "start": 25.5283,
      "duration": 0.1086,
      "velocity": 89,
      "chip": "ym2612"
    },
    {
      "channel": 2,
      "note": 52,
      "start": 25.6357,
      "duration": 0.2156,
      "velocity": 83,
      "chip": "ym2612"
    },
    {
      "channel": 1,
      "note": 52,
      "start": 25.6375,
      "duration": 0.2157,
      "velocity": 89,
      "chip": "ym2612"
    },
    {
      "channel": 0,
      "note": 66,
      "start": 25.6473,
      "duration": 0.2075,
      "velocity": 127,
      "chip": "ym2612"
    },
    {
      "channel": 3,
      "note": 88,
      "start": 25.85,
      "duration": 0.1057,
      "velocity": 104,
      "chip": "ym2612"
    },
    {
      "channel": 2,
      "note": 66,
      "start": 25.8518,
      "duration": 0.1052,
      "velocity": 83,
      "chip": "ym2612"
    },
    {
      "channel": 1,
      "note": 66,
      "start": 25.8536,
      "duration": 0.1053,
      "velocity": 89,
      "chip": "ym2612"
    },
    {
      "channel": 4,
      "note": 85,
      "start": 25.8589,
      "duration": 0.0958,
      "velocity": 104,
      "chip": "ym2612"
    },
    {
      "channel": 5,
      "note": 81,
      "start": 25.8638,
      "duration": 0.0898,
      "velocity": 104,
      "chip": "ym2612"
    },
    {
      "channel": 0,
      "note": 66,
      "start": 25.867,
      "duration": 0.3078,
      "velocity": 127,
      "chip": "ym2612"
    },
    {
      "channel": 2,
      "note": 64,
      "start": 25.9576,
      "duration": 0.106,
      "velocity": 83,
      "chip": "ym2612"
    },
    {
      "channel": 1,
      "note": 64,
      "start": 25.9594,
      "duration": 0.1059,
      "velocity": 89,
      "chip": "ym2612"
    },
    {
      "channel": 2,
      "note": 60,
      "start": 26.064,
      "duration": 0.2176,
      "velocity": 83,
      "chip": "ym2612"
    },
    {
      "channel": 1,
      "note": 60,
      "start": 26.0658,
      "duration": 0.2176,
      "velocity": 89,
      "chip": "ym2612"
    },
    {
      "channel": 0,
      "note": 66,
      "start": 26.1752,
      "duration": 0.1099,
      "velocity": 127,
      "chip": "ym2612"
    },
    {
      "channel": 5,
      "note": 81,
      "start": 26.1777,
      "duration": 0.1005,
      "velocity": 104,
      "chip": "ym2612"
    },
    {
      "channel": 4,
      "note": 85,
      "start": 26.1794,
      "duration": 0.0999,
      "velocity": 104,
      "chip": "ym2612"
    },
    {
      "channel": 3,
      "note": 88,
      "start": 26.1812,
      "duration": 0.0992,
      "velocity": 104,
      "chip": "ym2612"
    },
    {
      "channel": 2,
      "note": 64,
      "start": 26.2821,
      "duration": 0.1074,
      "velocity": 83,
      "chip": "ym2612"
    },
    {
      "channel": 1,
      "note": 64,
      "start": 26.2839,
      "duration": 0.1073,
      "velocity": 89,
      "chip": "ym2612"
    },
    {
      "channel": 0,
      "note": 57,
      "start": 26.2937,
      "duration": 0.314,
      "velocity": 127,
      "chip": "ym2612"
    },
    {
      "channel": 2,
      "note": 61,
      "start": 26.39,
      "duration": 0.1034,
      "velocity": 83,
      "chip": "ym2612"
    },
    {
      "channel": 1,
      "note": 61,
      "start": 26.3918,
      "duration": 0.1034,
      "velocity": 89,
      "chip": "ym2612"
    },
    {
      "channel": 2,
      "note": 59,
      "start": 26.4939,
      "duration": 0.1102,
      "velocity": 83,
      "chip": "ym2612"
    },
    {
      "channel": 1,
      "note": 59,
      "start": 26.4957,
      "duration": 0.1102,
      "velocity": 89,
      "chip": "ym2612"
    },
    {
      "channel": 5,
      "note": 78,
      "start": 26.4983,
      "duration": 1.0807,
      "velocity": 104,
      "chip": "ym2612"
    },
    {
      "channel": 4,
      "note": 83,
      "start": 26.5001,
      "duration": 1.0809,
      "velocity": 104,
      "chip": "ym2612"
    },
    {
      "channel": 3,
      "note": 88,
      "start": 26.5019,
      "duration": 0.4263,
      "velocity": 104,
      "chip": "ym2612"
    },
    {
      "channel": 2,
      "note": 57,
      "start": 26.6046,
      "duration": 0.1075,
      "velocity": 83,
      "chip": "ym2612"
    },
    {
      "channel": 1,
      "note": 57,
      "start": 26.6065,
      "duration": 0.1074,
      "velocity": 89,
      "chip": "ym2612"
    },
    {
      "channel": 0,
      "note": 66,
      "start": 26.6163,
      "duration": 0.0993,
      "velocity": 127,
      "chip": "ym2612"
    },
    {
      "channel": 2,
      "note": 59,
      "start": 26.7127,
      "duration": 0.1095,
      "velocity": 83,
      "chip": "ym2612"
    },
    {
      "channel": 1,
      "note": 59,
      "start": 26.7144,
      "duration": 0.1032,
      "velocity": 89,
      "chip": "ym2612"
    },
    {
      "channel": 0,
      "note": 57,
      "start": 26.7241,
      "duration": 0.1001,
      "velocity": 127,
      "chip": "ym2612"
    },
    {
      "channel": 1,
      "note": 61,
      "start": 26.8182,
      "duration": 0.1136,
      "velocity": 89,
      "chip": "ym2612"
    },
    {
      "channel": 2,
      "note": 61,
      "start": 26.8226,
      "duration": 0.1073,
      "velocity": 83,
      "chip": "ym2612"
    },
    {
      "channel": 0,
      "note": 66,
      "start": 26.8248,
      "duration": 0.1159,
      "velocity": 127,
      "chip": "ym2612"
    },
    {
      "channel": 3,
      "note": 87,
      "start": 26.9287,
      "duration": 0.2147,
      "velocity": 104,
      "chip": "ym2612"
    },
    {
      "channel": 2,
      "note": 64,
      "start": 26.9305,
      "duration": 0.1038,
      "velocity": 83,
      "chip": "ym2612"
    },
    {
      "channel": 1,
      "note": 64,
      "start": 26.9323,
      "duration": 0.1037,
      "velocity": 89,
      "chip": "ym2612"
    },
    {
      "channel": 0,
      "note": 66,
      "start": 26.9411,
      "duration": 0.1037,
      "velocity": 127,
      "chip": "ym2612"
    },
    {
      "channel": 2,
      "note": 61,
      "start": 27.0347,
      "duration": 0.1104,
      "velocity": 83,
      "chip": "ym2612"
    },
    {
      "channel": 1,
      "note": 61,
      "start": 27.0365,
      "duration": 0.1105,
      "velocity": 89,
      "chip": "ym2612"
    },
    {
      "channel": 0,
      "note": 66,
      "start": 27.0453,
      "duration": 0.1104,
      "velocity": 127,
      "chip": "ym2612"
    },
    {
      "channel": 3,
      "note": 85,
      "start": 27.1439,
      "duration": 0.2155,
      "velocity": 104,
      "chip": "ym2612"
    },
    {
      "channel": 2,
      "note": 66,
      "start": 27.1457,
      "duration": 0.4462,
      "velocity": 83,
      "chip": "ym2612"
    },
    {
      "channel": 1,
      "note": 66,
      "start": 27.1475,
      "duration": 0.4462,
      "velocity": 89,
      "chip": "ym2612"
    },
    {
      "channel": 0,
      "note": 66,
      "start": 27.1563,
      "duration": 0.1062,
      "velocity": 127,
      "chip": "ym2612"
    },
    {
      "channel": 0,
      "note": 66,
      "start": 27.2629,
      "duration": 0.105,
      "velocity": 127,
      "chip": "ym2612"
    },
    {
      "channel": 3,
      "note": 87,
      "start": 27.36,
      "duration": 0.2299,
      "velocity": 104,
      "chip": "ym2612"
    },
    {
      "channel": 0,
      "note": 66,
      "start": 27.3684,
      "duration": 0.1089,
      "velocity": 127,
      "chip": "ym2612"
    },
    {
      "channel": 0,
      "note": 66,
      "start": 27.4778,
      "duration": 0.1319,
      "velocity": 127,
      "chip": "ym2612"
    },
    {
      "channel": 2,
      "note": 68,
      "start": 27.5924,
      "duration": 0.09,
      "velocity": 83,
      "chip": "ym2612"
    },
    {
      "channel": 1,
      "note": 68,
      "start": 27.5942,
      "duration": 0.09,
      "velocity": 89,
      "chip": "ym2612"
    },
    {
      "channel": 0,
      "note": 66,
      "start": 27.6184,
      "duration": 0.3893,
      "velocity": 127,
      "chip": "ym2612"
    },
    {
      "channel": 2,
      "note": 66,
      "start": 27.6829,
      "duration": 0.1086,
      "velocity": 83,
      "chip": "ym2612"
    },
    {
      "channel": 1,
      "note": 66,
      "start": 27.6847,
      "duration": 0.1087,
      "velocity": 89,
      "chip": "ym2612"
    },
    {
      "channel": 2,
      "note": 63,
      "start": 27.7921,
      "duration": 0.1059,
      "velocity": 83,
      "chip": "ym2612"
    },
    {
      "channel": 1,
      "note": 63,
      "start": 27.7939,
      "duration": 0.1059,
      "velocity": 89,
      "chip": "ym2612"
    },
    {
      "channel": 2,
      "note": 59,
      "start": 27.8985,
      "duration": 0.2164,
      "velocity": 83,
      "chip": "ym2612"
    },
    {
      "channel": 1,
      "note": 59,
      "start": 27.9002,
      "duration": 0.2109,
      "velocity": 89,
      "chip": "ym2612"
    },
    {
      "channel": 0,
      "note": 57,
      "start": 28.0161,
      "duration": 0.0249,
      "velocity": 127,
      "chip": "ym2612"
    },
    {
      "channel": 0,
      "note": 66,
      "start": 28.0415,
      "duration": 0.3975,
      "velocity": 127,
      "chip": "ym2612"
    },
    {
      "channel": 1,
      "note": 68,
      "start": 28.1117,
      "duration": 0.1127,
      "velocity": 89,
      "chip": "ym2612"
    },
    {
      "channel": 2,
      "note": 68,
      "start": 28.1154,
      "duration": 0.1072,
      "velocity": 83,
      "chip": "ym2612"
    },
    {
      "channel": 2,
      "note": 66,
      "start": 28.2232,
      "duration": 0.1086,
      "velocity": 83,
      "chip": "ym2612"
    },
    {
      "channel": 1,
      "note": 66,
      "start": 28.2249,
      "duration": 0.1085,
      "velocity": 89,
      "chip": "ym2612"
    },
    {
      "channel": 2,
      "note": 63,
      "start": 28.3322,
      "duration": 0.1034,
      "velocity": 83,
      "chip": "ym2612"
    },
    {
      "channel": 1,
      "note": 63,
      "start": 28.3339,
      "duration": 0.1034,
      "velocity": 89,
      "chip": "ym2612"
    },
    {
      "channel": 2,
      "note": 59,
      "start": 28.4361,
      "duration": 0.1104,
      "velocity": 83,
      "chip": "ym2612"
    },
    {
      "channel": 1,
      "note": 59,
      "start": 28.4378,
      "duration": 0.1103,
      "velocity": 89,
      "chip": "ym2612"
    },
    {
      "channel": 0,
      "note": 66,
      "start": 28.4478,
      "duration": 0.4267,
      "velocity": 127,
      "chip": "ym2612"
    },
    {
      "channel": 2,
      "note": 59,
      "start": 28.5469,
      "duration": 0.1073,
      "velocity": 83,
      "chip": "ym2612"
    },
    {
      "channel": 1,
      "note": 59,
      "start": 28.5486,
      "duration": 0.1019,
      "velocity": 89,
      "chip": "ym2612"
    },
    {
      "channel": 1,
      "note": 61,
      "start": 28.651,
      "duration": 0.1127,
      "velocity": 89,
      "chip": "ym2612"
    },
    {
      "channel": 2,
      "note": 61,
      "start": 28.6547,
      "duration": 0.1072,
      "velocity": 83,
      "chip": "ym2612"
    },
    {
      "channel": 2,
      "note": 61,
      "start": 28.7624,
      "duration": 0.1087,
      "velocity": 83,
      "chip": "ym2612"
    },
    {
      "channel": 1,
      "note": 61,
      "start": 28.7642,
      "duration": 0.1087,
      "velocity": 89,
      "chip": "ym2612"
    },
    {
      "channel": 2,
      "note": 62,
      "start": 28.8715,
      "duration": 0.1036,
      "velocity": 83,
      "chip": "ym2612"
    },
    {
      "channel": 1,
      "note": 62,
      "start": 28.8733,
      "duration": 0.1036,
      "velocity": 89,
      "chip": "ym2612"
    },
    {
      "channel": 0,
      "note": 57,
      "start": 28.8831,
      "duration": 0.0222,
      "velocity": 127,
      "chip": "ym2612"
    },
    {
      "channel": 0,
      "note": 66,
      "start": 28.9057,
      "duration": 0.3976,
      "velocity": 127,
      "chip": "ym2612"
    },
    {
      "channel": 2,
      "note": 63,
      "start": 28.9756,
      "duration": 0.1127,
      "velocity": 83,
      "chip": "ym2612"
    },
    {
      "channel": 1,
      "note": 63,
      "start": 28.9774,
      "duration": 0.1072,
      "velocity": 89,
      "chip": "ym2612"
    },
    {
      "channel": 1,
      "note": 66,
      "start": 29.0851,
      "duration": 0.1074,
      "velocity": 89,
      "chip": "ym2612"
    },
    {
      "channel": 2,
      "note": 66,
      "start": 29.0888,
      "duration": 0.1019,
      "velocity": 83,
      "chip": "ym2612"
    },
    {
      "channel": 2,
      "note": 63,
      "start": 29.1912,
      "duration": 0.1086,
      "velocity": 83,
      "chip": "ym2612"
    },
    {
      "channel": 1,
      "note": 63,
      "start": 29.193,
      "duration": 0.1086,
      "velocity": 89,
      "chip": "ym2612"
    },
    {
      "channel": 2,
      "note": 68,
      "start": 29.3003,
      "duration": 0.1101,
      "velocity": 83,
      "chip": "ym2612"
    },
    {
      "channel": 1,
      "note": 68,
      "start": 29.3021,
      "duration": 0.1101,
      "velocity": 89,
      "chip": "ym2612"
    },
    {
      "channel": 0,
      "note": 66,
      "start": 29.3119,
      "duration": 0.4185,
      "velocity": 127,
      "chip": "ym2612"
    },
    {
      "channel": 2,
      "note": 66,
      "start": 29.4109,
      "duration": 0.1033,
      "velocity": 83,
      "chip": "ym2612"
    },
    {
      "channel": 1,
      "note": 66,
      "start": 29.4127,
      "duration": 0.1033,
      "velocity": 89,
      "chip": "ym2612"
    },
    {
      "channel": 2,
      "note": 63,
      "start": 29.5147,
      "duration": 0.1126,
      "velocity": 83,
      "chip": "ym2612"
    },
    {
      "channel": 1,
      "note": 63,
      "start": 29.5165,
      "duration": 0.1071,
      "velocity": 89,
      "chip": "ym2612"
    },
    {
      "channel": 1,
      "note": 56,
      "start": 29.6241,
      "duration": 0.2164,
      "velocity": 89,
      "chip": "ym2612"
    },
    {
      "channel": 2,
      "note": 56,
      "start": 29.6278,
      "duration": 0.211,
      "velocity": 83,
      "chip": "ym2612"
    },
    {
      "channel": 0,
      "note": 57,
      "start": 29.7388,
      "duration": 0.0301,
      "velocity": 127,
      "chip": "ym2612"
    },
    {
      "channel": 0,
      "note": 66,
      "start": 29.7695,
      "duration": 0.3976,
      "velocity": 127,
      "chip": "ym2612"
    },
    {
      "channel": 2,
      "note": 68,
      "start": 29.8393,
      "duration": 0.1127,
      "velocity": 83,
      "chip": "ym2612"
    },
    {
      "channel": 1,
      "note": 68,
      "start": 29.8411,
      "duration": 0.1072,
      "velocity": 89,
      "chip": "ym2612"
    },
    {
      "channel": 1,
      "note": 66,
      "start": 29.9488,
      "duration": 0.1074,
      "velocity": 89,
      "chip": "ym2612"
    },
    {
      "channel": 2,
      "note": 66,
      "start": 29.9525,
      "duration": 0.1019,
      "velocity": 83,
      "chip": "ym2612"
    },
    {
      "channel": 2,
      "note": 63,
      "start": 30.0549,
      "duration": 0.1087,
      "velocity": 83,
      "chip": "ym2612"
    },
    {
      "channel": 1,
      "note": 63,
      "start": 30.0567,
      "duration": 0.1086,
      "velocity": 89,
      "chip": "ym2612"
    },
    {
      "channel": 2,
      "note": 56,
      "start": 30.164,
      "duration": 0.1049,
      "velocity": 83,
      "chip": "ym2612"
    },
    {
      "channel": 1,
      "note": 56,
      "start": 30.1658,
      "duration": 0.1049,
      "velocity": 89,
      "chip": "ym2612"
    },
    {
      "channel": 0,
      "note": 66,
      "start": 30.1757,
      "duration": 0.4215,
      "velocity": 127,
      "chip": "ym2612"
    },
    {
      "channel": 2,
      "note": 46,
      "start": 30.2695,
      "duration": 0.1086,
      "velocity": 83,
      "chip": "ym2612"
    },
    {
      "channel": 1,
      "note": 46,
      "start": 30.2712,
      "duration": 0.1087,
      "velocity": 89,
      "chip": "ym2612"
    },
    {
      "channel": 2,
      "note": 59,
      "start": 30.3786,
      "duration": 0.1127,
      "velocity": 83,
      "chip": "ym2612"
    },
    {
      "channel": 1,
      "note": 59,
      "start": 30.3804,
      "duration": 0.1071,
      "velocity": 89,
      "chip": "ym2612"
    },
    {
      "channel": 1,
      "note": 61,
      "start": 30.488,
      "duration": 0.1074,
      "velocity": 89,
      "chip": "ym2612"
    },
    {
      "channel": 2,
      "note": 61,
      "start": 30.4918,
      "duration": 0.102,
      "velocity": 83,
      "chip": "ym2612"
    },
    {
      "channel": 2,
      "note": 62,
      "start": 30.5942,
      "duration": 0.111,
      "velocity": 83,
      "chip": "ym2612"
    },
    {
      "channel": 1,
      "note": 62,
      "start": 30.596,
      "duration": 0.1111,
      "velocity": 89,
      "chip": "ym2612"
    },
    {
      "channel": 0,
      "note": 57,
      "start": 30.6056,
      "duration": 0.1032,
      "velocity": 127,
      "chip": "ym2612"
    },
    {
      "channel": 2,
      "note": 63,
      "start": 30.7056,
      "duration": 0.1022,
      "velocity": 83,
      "chip": "ym2612"
    },
    {
      "channel": 1,
      "note": 63,
      "start": 30.7076,
      "duration": 0.1021,
      "velocity": 89,
      "chip": "ym2612"
    },
    {
      "channel": 0,
      "note": 66,
      "start": 30.7093,
      "duration": 0.1057,
      "velocity": 127,
      "chip": "ym2612"
    },
    {
      "channel": 2,
      "note": 66,
      "start": 30.8084,
      "duration": 0.1134,
      "velocity": 83,
      "chip": "ym2612"
    },
    {
      "channel": 1,
      "note": 66,
      "start": 30.8102,
      "duration": 0.1069,
      "velocity": 89,
      "chip": "ym2612"
    },
    {
      "channel": 0,
      "note": 66,
      "start": 30.8156,
      "duration": 0.1084,
      "velocity": 127,
      "chip": "ym2612"
    },
    {
      "channel": 1,
      "note": 67,
      "start": 30.9176,
      "duration": 0.1131,
      "velocity": 89,
      "chip": "ym2612"
    },
    {
      "channel": 2,
      "note": 67,
      "start": 30.9223,
      "duration": 0.1066,
      "velocity": 83,
      "chip": "ym2612"
    },
    {
      "channel": 0,
      "note": 66,
      "start": 30.9245,
      "duration": 0.1127,
      "velocity": 127,
      "chip": "ym2612"
    },
    {
      "channel": 2,
      "note": 68,
      "start": 31.0294,
      "duration": 0.1057,
      "velocity": 83,
      "chip": "ym2612"
    },
    {
      "channel": 1,
      "note": 68,
      "start": 31.0312,
      "duration": 0.1057,
      "velocity": 89,
      "chip": "ym2612"
    },
    {
      "channel": 3,
      "note": 56,
      "start": 31.0352,
      "duration": 0.0981,
      "velocity": 113,
      "chip": "ym2612"
    },
    {
      "channel": 0,
      "note": 66,
      "start": 31.0458,
      "duration": 0.4122,
      "velocity": 127,
      "chip": "ym2612"
    },
    {
      "channel": 3,
      "note": 54,
      "start": 31.1338,
      "duration": 0.1129,
      "velocity": 113,
      "chip": "ym2612"
    },
    {
      "channel": 2,
      "note": 66,
      "start": 31.1356,
      "duration": 0.106,
      "velocity": 83,
      "chip": "ym2612"
    },
    {
      "channel": 1,
      "note": 66,
      "start": 31.1374,
      "duration": 0.106,
      "velocity": 89,
      "chip": "ym2612"
    },
    {
      "channel": 2,
      "note": 63,
      "start": 31.2421,
      "duration": 0.1102,
      "velocity": 83,
      "chip": "ym2612"
    },
    {
      "channel": 1,
      "note": 63,
      "start": 31.2439,
      "duration": 0.1032,
      "velocity": 89,
      "chip": "ym2612"
    },
    {
      "channel": 3,
      "note": 51,
      "start": 31.2473,
      "duration": 0.1032,
      "velocity": 113,
      "chip": "ym2612"
    },
    {
      "channel": 1,
      "note": 59,
      "start": 31.3476,
      "duration": 0.2219,
      "velocity": 89,
      "chip": "ym2612"
    },
    {
      "channel": 3,
      "note": 47,
      "start": 31.351,
      "duration": 0.215,
      "velocity": 113,
      "chip": "ym2612"
    },
    {
      "channel": 2,
      "note": 59,
      "start": 31.3528,
      "duration": 0.215,
      "velocity": 83,
      "chip": "ym2612"
    },
    {
      "channel": 0,
      "note": 57,
      "start": 31.4664,
      "duration": 0.0249,
      "velocity": 127,
      "chip": "ym2612"
    },
    {
      "channel": 0,
      "note": 66,
      "start": 31.4918,
      "duration": 0.4006,
      "velocity": 127,
      "chip": "ym2612"
    },
    {
      "channel": 3,
      "note": 56,
      "start": 31.5665,
      "duration": 0.1048,
      "velocity": 113,
      "chip": "ym2612"
    },
    {
      "channel": 2,
      "note": 68,
      "start": 31.5683,
      "duration": 0.1049,
      "velocity": 83,
      "chip": "ym2612"
    },
    {
      "channel": 1,
      "note": 68,
      "start": 31.5701,
      "duration": 0.1048,
      "velocity": 89,
      "chip": "ym2612"
    },
    {
      "channel": 3,
      "note": 54,
      "start": 31.6718,
      "duration": 0.11,
      "velocity": 113,
      "chip": "ym2612"
    },
    {
      "channel": 2,
      "note": 66,
      "start": 31.6737,
      "duration": 0.11,
      "velocity": 83,
      "chip": "ym2612"
    },
    {
      "channel": 1,
      "note": 66,
      "start": 31.6754,
      "duration": 0.11,
      "velocity": 89,
      "chip": "ym2612"
    },
    {
      "channel": 3,
      "note": 51,
      "start": 31.7824,
      "duration": 0.1047,
      "velocity": 113,
      "chip": "ym2612"
    },
    {
      "channel": 2,
      "note": 63,
      "start": 31.7841,
      "duration": 0.1047,
      "velocity": 83,
      "chip": "ym2612"
    },
    {
      "channel": 1,
      "note": 63,
      "start": 31.7859,
      "duration": 0.1048,
      "velocity": 89,
      "chip": "ym2612"
    },
    {
      "channel": 3,
      "note": 47,
      "start": 31.8876,
      "duration": 0.109,
      "velocity": 113,
      "chip": "ym2612"
    },
    {
      "channel": 2,
      "note": 59,
      "start": 31.8894,
      "duration": 0.109,
      "velocity": 83,
      "chip": "ym2612"
    },
    {
      "channel": 1,
      "note": 59,
      "start": 31.8912,
      "duration": 0.1089,
      "velocity": 89,
      "chip": "ym2612"
    },
    {
      "channel": 0,
      "note": 66,
      "start": 31.901,
      "duration": 0.4246,
      "velocity": 127,
      "chip": "ym2612"
    },
    {
      "channel": 3,
      "note": 47,
      "start": 31.9971,
      "duration": 0.1101,
      "velocity": 113,
      "chip": "ym2612"
    },
    {
      "channel": 2,
      "note": 59,
      "start": 31.9988,
      "duration": 0.1101,
      "velocity": 83,
      "chip": "ym2612"
    },
    {
      "channel": 1,
      "note": 59,
      "start": 32.0006,
      "duration": 0.1102,
      "velocity": 89,
      "chip": "ym2612"
    },
    {
      "channel": 3,
      "note": 49,
      "start": 32.1077,
      "duration": 0.1047,
      "velocity": 113,
      "chip": "ym2612"
    },
    {
      "channel": 2,
      "note": 61,
      "start": 32.1095,
      "duration": 0.1047,
      "velocity": 83,
      "chip": "ym2612"
    },
    {
      "channel": 1,
      "note": 61,
      "start": 32.1112,
      "duration": 0.1047,
      "velocity": 89,
      "chip": "ym2612"
    },
    {
      "channel": 3,
      "note": 49,
      "start": 32.2129,
      "duration": 0.1074,
      "velocity": 113,
      "chip": "ym2612"
    },
    {
      "channel": 2,
      "note": 61,
      "start": 32.2147,
      "duration": 0.1073,
      "velocity": 83,
      "chip": "ym2612"
    },
    {
      "channel": 1,
      "note": 61,
      "start": 32.2165,
      "duration": 0.1074,
      "velocity": 89,
      "chip": "ym2612"
    },
    {
      "channel": 3,
      "note": 50,
      "start": 32.3208,
      "duration": 0.105,
      "velocity": 113,
      "chip": "ym2612"
    },
    {
      "channel": 2,
      "note": 62,
      "start": 32.3225,
      "duration": 0.105,
      "velocity": 83,
      "chip": "ym2612"
    },
    {
      "channel": 1,
      "note": 62,
      "start": 32.3244,
      "duration": 0.105,
      "velocity": 89,
      "chip": "ym2612"
    },
    {
      "channel": 0,
      "note": 57,
      "start": 32.3341,
      "duration": 0.0222,
      "velocity": 127,
      "chip": "ym2612"
    },
    {
      "channel": 0,
      "note": 66,
      "start": 32.3568,
      "duration": 0.3949,
      "velocity": 127,
      "chip": "ym2612"
    },
    {
      "channel": 3,
      "note": 51,
      "start": 32.4263,
      "duration": 0.11,
      "velocity": 113,
      "chip": "ym2612"
    },
    {
      "channel": 2,
      "note": 63,
      "start": 32.428,
      "duration": 0.11,
      "velocity": 83,
      "chip": "ym2612"
    },
    {
      "channel": 1,
      "note": 63,
      "start": 32.4298,
      "duration": 0.11,
      "velocity": 89,
      "chip": "ym2612"
    },
    {
      "channel": 3,
      "note": 54,
      "start": 32.5368,
      "duration": 0.1115,
      "velocity": 113,
      "chip": "ym2612"
    },
    {
      "channel": 2,
      "note": 66,
      "start": 32.5385,
      "duration": 0.1115,
      "velocity": 83,
      "chip": "ym2612"
    },
    {
      "channel": 1,
      "note": 66,
      "start": 32.5404,
      "duration": 0.1044,
      "velocity": 89,
      "chip": "ym2612"
    },
    {
      "channel": 1,
      "note": 63,
      "start": 32.6454,
      "duration": 0.1047,
      "velocity": 89,
      "chip": "ym2612"
    },
    {
      "channel": 3,
      "note": 51,
      "start": 32.6487,
      "duration": 0.1063,
      "velocity": 113,
      "chip": "ym2612"
    },
    {
      "channel": 2,
      "note": 63,
      "start": 32.6505,
      "duration": 0.1063,
      "velocity": 83,
      "chip": "ym2612"
    },
    {
      "channel": 1,
      "note": 68,
      "start": 32.7506,
      "duration": 0.109,
      "velocity": 89,
      "chip": "ym2612"
    },
    {
      "channel": 3,
      "note": 56,
      "start": 32.7555,
      "duration": 0.1075,
      "velocity": 113,
      "chip": "ym2612"
    },
    {
      "channel": 2,
      "note": 68,
      "start": 32.7574,
      "duration": 0.1074,
      "velocity": 83,
      "chip": "ym2612"
    },
    {
      "channel": 0,
      "note": 66,
      "start": 32.7633,
      "duration": 0.4229,
      "velocity": 127,
      "chip": "ym2612"
    },
    {
      "channel": 1,
      "note": 66,
      "start": 32.8601,
      "duration": 0.1047,
      "velocity": 89,
      "chip": "ym2612"
    },
    {
      "channel": 3,
      "note": 54,
      "start": 32.8635,
      "duration": 0.1047,
      "velocity": 113,
      "chip": "ym2612"
    },
    {
      "channel": 2,
      "note": 66,
      "start": 32.8653,
      "duration": 0.1047,
      "velocity": 83,
      "chip": "ym2612"
    },
    {
      "channel": 1,
      "note": 63,
      "start": 32.9653,
      "duration": 0.1129,
      "velocity": 89,
      "chip": "ym2612"
    },
    {
      "channel": 3,
      "note": 51,
      "start": 32.9687,
      "duration": 0.106,
      "velocity": 113,
      "chip": "ym2612"
    },
    {
      "channel": 2,
      "note": 63,
      "start": 32.9705,
      "duration": 0.106,
      "velocity": 83,
      "chip": "ym2612"
    },
    {
      "channel": 3,
      "note": 44,
      "start": 33.0752,
      "duration": 0.2195,
      "velocity": 113,
      "chip": "ym2612"
    },
    {
      "channel": 2,
      "note": 56,
      "start": 33.077,
      "duration": 0.2125,
      "velocity": 83,
      "chip": "ym2612"
    },
    {
      "channel": 1,
      "note": 56,
      "start": 33.0787,
      "duration": 0.2125,
      "velocity": 89,
      "chip": "ym2612"
    },
    {
      "channel": 0,
      "note": 57,
      "start": 33.1948,
      "duration": 0.0249,
      "velocity": 127,
      "chip": "ym2612"
    },
    {
      "channel": 0,
      "note": 66,
      "start": 33.2202,
      "duration": 0.3951,
      "velocity": 127,
      "chip": "ym2612"
    },
    {
      "channel": 2,
      "note": 68,
      "start": 33.29,
      "duration": 0.1115,
      "velocity": 83,
      "chip": "ym2612"
    },
    {
      "channel": 1,
      "note": 68,
      "start": 33.2918,
      "duration": 0.1115,
      "velocity": 89,
      "chip": "ym2612"
    },
    {
      "channel": 3,
      "note": 56,
      "start": 33.2951,
      "duration": 0.1046,
      "velocity": 113,
      "chip": "ym2612"
    },
    {
      "channel": 3,
      "note": 54,
      "start": 33.4002,
      "duration": 0.1047,
      "velocity": 113,
      "chip": "ym2612"
    },
    {
      "channel": 2,
      "note": 66,
      "start": 33.402,
      "duration": 0.1048,
      "velocity": 83,
      "chip": "ym2612"
    },
    {
      "channel": 1,
      "note": 66,
      "start": 33.4038,
      "duration": 0.1048,
      "velocity": 89,
      "chip": "ym2612"
    },
    {
      "channel": 3,
      "note": 51,
      "start": 33.5055,
      "duration": 0.1131,
      "velocity": 113,
      "chip": "ym2612"
    },
    {
      "channel": 2,
      "note": 63,
      "start": 33.5072,
      "duration": 0.1131,
      "velocity": 83,
      "chip": "ym2612"
    },
    {
      "channel": 1,
      "note": 63,
      "start": 33.509,
      "duration": 0.1046,
      "velocity": 89,
      "chip": "ym2612"
    },
    {
      "channel": 1,
      "note": 56,
      "start": 33.6141,
      "duration": 0.1146,
      "velocity": 89,
      "chip": "ym2612"
    },
    {
      "channel": 3,
      "note": 44,
      "start": 33.6191,
      "duration": 0.106,
      "velocity": 113,
      "chip": "ym2612"
    },
    {
      "channel": 2,
      "note": 56,
      "start": 33.6209,
      "duration": 0.106,
      "velocity": 83,
      "chip": "ym2612"
    },
    {
      "channel": 0,
      "note": 66,
      "start": 33.6268,
      "duration": 0.4219,
      "velocity": 127,
      "chip": "ym2612"
    },
    {
      "channel": 3,
      "note": 47,
      "start": 33.7256,
      "duration": 0.1048,
      "velocity": 113,
      "chip": "ym2612"
    },
    {
      "channel": 2,
      "note": 59,
      "start": 33.7273,
      "duration": 0.1047,
      "velocity": 83,
      "chip": "ym2612"
    },
    {
      "channel": 1,
      "note": 59,
      "start": 33.7291,
      "duration": 0.1048,
      "velocity": 89,
      "chip": "ym2612"
    },
    {
      "channel": 3,
      "note": 49,
      "start": 33.8308,
      "duration": 0.1074,
      "velocity": 113,
      "chip": "ym2612"
    },
    {
      "channel": 2,
      "note": 61,
      "start": 33.8326,
      "duration": 0.1074,
      "velocity": 83,
      "chip": "ym2612"
    },
    {
      "channel": 1,
      "note": 61,
      "start": 33.8344,
      "duration": 0.1074,
      "velocity": 89,
      "chip": "ym2612"
    },
    {
      "channel": 3,
      "note": 50,
      "start": 33.9387,
      "duration": 0.1047,
      "velocity": 113,
      "chip": "ym2612"
    },
    {
      "channel": 2,
      "note": 62,
      "start": 33.9405,
      "duration": 0.1047,
      "velocity": 83,
      "chip": "ym2612"
    },
    {
      "channel": 1,
      "note": 62,
      "start": 33.9423,
      "duration": 0.1047,
      "velocity": 89,
      "chip": "ym2612"
    },
    {
      "channel": 3,
      "note": 51,
      "start": 34.0439,
      "duration": 0.1154,
      "velocity": 113,
      "chip": "ym2612"
    },
    {
      "channel": 2,
      "note": 63,
      "start": 34.0457,
      "duration": 0.1074,
      "velocity": 83,
      "chip": "ym2612"
    },
    {
      "channel": 1,
      "note": 63,
      "start": 34.0475,
      "duration": 0.1074,
      "velocity": 89,
      "chip": "ym2612"
    },
    {
      "channel": 0,
      "note": 57,
      "start": 34.0572,
      "duration": 0.1046,
      "velocity": 127,
      "chip": "ym2612"
    },
    {
      "channel": 2,
      "note": 66,
      "start": 34.1536,
      "duration": 0.1113,
      "velocity": 83,
      "chip": "ym2612"
    },
    {
      "channel": 1,
      "note": 66,
      "start": 34.1554,
      "duration": 0.1113,
      "velocity": 89,
      "chip": "ym2612"
    },
    {
      "channel": 3,
      "note": 54,
      "start": 34.1598,
      "duration": 0.1033,
      "velocity": 113,
      "chip": "ym2612"
    },
    {
      "channel": 0,
      "note": 66,
      "start": 34.1623,
      "duration": 0.1098,
      "velocity": 127,
      "chip": "ym2612"
    },
    {
      "channel": 3,
      "note": 56,
      "start": 34.2637,
      "duration": 0.1045,
      "velocity": 113,
      "chip": "ym2612"
    },
    {
      "channel": 2,
      "note": 68,
      "start": 34.2654,
      "duration": 0.1045,
      "velocity": 83,
      "chip": "ym2612"
    },
    {
      "channel": 1,
      "note": 68,
      "start": 34.2672,
      "duration": 0.1044,
      "velocity": 89,
      "chip": "ym2612"
    },
    {
      "channel": 0,
      "note": 66,
      "start": 34.2726,
      "duration": 0.1046,
      "velocity": 127,
      "chip": "ym2612"
    },
    {
      "channel": 3,
      "note": 57,
      "start": 34.3687,
      "duration": 0.1116,
      "velocity": 113,
      "chip": "ym2612"
    },
    {
      "channel": 2,
      "note": 69,
      "start": 34.3704,
      "duration": 0.1116,
      "velocity": 83,
      "chip": "ym2612"
    },
    {
      "channel": 1,
      "note": 69,
      "start": 34.3722,
      "duration": 0.1117,
      "velocity": 89,
      "chip": "ym2612"
    },
    {
      "channel": 0,
      "note": 66,
      "start": 34.3777,
      "duration": 0.1124,
      "velocity": 127,
      "chip": "ym2612"
    },
    {
      "channel": 3,
      "note": 58,
      "start": 34.4808,
      "duration": 0.1059,
      "velocity": 113,
      "chip": "ym2612"
    },
    {
      "channel": 2,
      "note": 70,
      "start": 34.4826,
      "duration": 0.1059,
      "velocity": 83,
      "chip": "ym2612"
    },
    {
      "channel": 1,
      "note": 70,
      "start": 34.4843,
      "duration": 0.1059,
      "velocity": 89,
      "chip": "ym2612"
    },
    {
      "channel": 5,
      "note": 94,
      "start": 34.4932,
      "duration": 0.0899,
      "velocity": 122,
      "chip": "ym2612"
    },
    {
      "channel": 4,
      "note": 94,
      "start": 34.495,
      "duration": 0.0898,
      "velocity": 122,
      "chip": "ym2612"
    },
    {
      "channel": 0,
      "note": 66,
      "start": 34.5016,
      "duration": 0.3078,
      "velocity": 127,
      "chip": "ym2612"
    },
    {
      "channel": 5,
      "note": 82,
      "start": 34.5836,
      "duration": 0.1131,
      "velocity": 122,
      "chip": "ym2612"
    },
    {
      "channel": 4,
      "note": 82,
      "start": 34.5854,
      "duration": 0.1132,
      "velocity": 122,
      "chip": "ym2612"
    },
    {
      "channel": 3,
      "note": 56,
      "start": 34.5871,
      "duration": 0.1132,
      "velocity": 113,
      "chip": "ym2612"
    },
    {
      "channel": 2,
      "note": 68,
      "start": 34.5889,
      "duration": 0.1034,
      "velocity": 83,
      "chip": "ym2612"
    },
    {
      "channel": 1,
      "note": 68,
      "start": 34.5908,
      "duration": 0.1033,
      "velocity": 89,
      "chip": "ym2612"
    },
    {
      "channel": 2,
      "note": 65,
      "start": 34.6928,
      "duration": 0.113,
      "velocity": 83,
      "chip": "ym2612"
    },
    {
      "channel": 1,
      "note": 65,
      "start": 34.6946,
      "duration": 0.113,
      "velocity": 89,
      "chip": "ym2612"
    },
    {
      "channel": 5,
      "note": 89,
      "start": 34.6973,
      "duration": 0.1145,
      "velocity": 122,
      "chip": "ym2612"
    },
    {
      "channel": 4,
      "note": 82,
      "start": 34.699,
      "duration": 0.1144,
      "velocity": 122,
      "chip": "ym2612"
    },
    {
      "channel": 3,
      "note": 53,
      "start": 34.7008,
      "duration": 0.1032,
      "velocity": 113,
      "chip": "ym2612"
    },
    {
      "channel": 3,
      "note": 46,
      "start": 34.8045,
      "duration": 0.2187,
      "velocity": 113,
      "chip": "ym2612"
    },
    {
      "channel": 2,
      "note": 58,
      "start": 34.8063,
      "duration": 0.2187,
      "velocity": 83,
      "chip": "ym2612"
    },
    {
      "channel": 1,
      "note": 58,
      "start": 34.8081,
      "duration": 0.2088,
      "velocity": 89,
      "chip": "ym2612"
    },
    {
      "channel": 0,
      "note": 66,
      "start": 34.8099,
      "duration": 0.1023,
      "velocity": 127,
      "chip": "ym2612"
    },
    {
      "channel": 5,
      "note": 94,
      "start": 34.8123,
      "duration": 0.0954,
      "velocity": 122,
      "chip": "ym2612"
    },
    {
      "channel": 4,
      "note": 94,
      "start": 34.814,
      "duration": 0.0954,
      "velocity": 122,
      "chip": "ym2612"
    },
    {
      "channel": 5,
      "note": 82,
      "start": 34.9081,
      "duration": 0.1115,
      "velocity": 122,
      "chip": "ym2612"
    },
    {
      "channel": 4,
      "note": 82,
      "start": 34.9099,
      "duration": 0.1115,
      "velocity": 122,
      "chip": "ym2612"
    },
    {
      "channel": 0,
      "note": 57,
      "start": 34.9207,
      "duration": 0.3129,
      "velocity": 127,
      "chip": "ym2612"
    },
    {
      "channel": 1,
      "note": 70,
      "start": 35.0174,
      "duration": 0.1049,
      "velocity": 89,
      "chip": "ym2612"
    },
    {
      "channel": 5,
      "note": 89,
      "start": 35.0201,
      "duration": 0.1118,
      "velocity": 122,
      "chip": "ym2612"
    },
    {
      "channel": 4,
      "note": 82,
      "start": 35.0219,
      "duration": 0.1118,
      "velocity": 122,
      "chip": "ym2612"
    },
    {
      "channel": 3,
      "note": 58,
      "start": 35.0237,
      "duration": 0.1034,
      "velocity": 113,
      "chip": "ym2612"
    },
    {
      "channel": 2,
      "note": 70,
      "start": 35.0255,
      "duration": 0.1033,
      "velocity": 83,
      "chip": "ym2612"
    },
    {
      "channel": 1,
      "note": 68,
      "start": 35.1229,
      "duration": 0.109,
      "velocity": 89,
      "chip": "ym2612"
    },
    {
      "channel": 3,
      "note": 56,
      "start": 35.1276,
      "duration": 0.1122,
      "velocity": 113,
      "chip": "ym2612"
    },
    {
      "channel": 2,
      "note": 68,
      "start": 35.1293,
      "duration": 0.1123,
      "velocity": 83,
      "chip": "ym2612"
    },
    {
      "channel": 5,
      "note": 94,
      "start": 35.1324,
      "duration": 0.1038,
      "velocity": 122,
      "chip": "ym2612"
    },
    {
      "channel": 4,
      "note": 94,
      "start": 35.1341,
      "duration": 0.1037,
      "velocity": 122,
      "chip": "ym2612"
    },
    {
      "channel": 1,
      "note": 65,
      "start": 35.2324,
      "duration": 0.1107,
      "velocity": 89,
      "chip": "ym2612"
    },
    {
      "channel": 5,
      "note": 82,
      "start": 35.2366,
      "duration": 0.1091,
      "velocity": 122,
      "chip": "ym2612"
    },
    {
      "channel": 4,
      "note": 82,
      "start": 35.2384,
      "duration": 0.1091,
      "velocity": 122,
      "chip": "ym2612"
    },
    {
      "channel": 3,
      "note": 53,
      "start": 35.2403,
      "duration": 0.109,
      "velocity": 113,
      "chip": "ym2612"
    },
    {
      "channel": 2,
      "note": 65,
      "start": 35.2421,
      "duration": 0.0992,
      "velocity": 83,
      "chip": "ym2612"
    },
    {
      "channel": 0,
      "note": 66,
      "start": 35.248,
      "duration": 0.2023,
      "velocity": 127,
      "chip": "ym2612"
    },
    {
      "channel": 2,
      "note": 58,
      "start": 35.3418,
      "duration": 0.1049,
      "velocity": 83,
      "chip": "ym2612"
    },
    {
      "channel": 1,
      "note": 58,
      "start": 35.3436,
      "duration": 0.105,
      "velocity": 89,
      "chip": "ym2612"
    },
    {
      "channel": 5,
      "note": 89,
      "start": 35.3462,
      "duration": 0.1118,
      "velocity": 122,
      "chip": "ym2612"
    },
    {
      "channel": 4,
      "note": 82,
      "start": 35.348,
      "duration": 0.1119,
      "velocity": 122,
      "chip": "ym2612"
    },
    {
      "channel": 3,
      "note": 46,
      "start": 35.3498,
      "duration": 0.1048,
      "velocity": 113,
      "chip": "ym2612"
    },
    {
      "channel": 2,
      "note": 58,
      "start": 35.4473,
      "duration": 0.1148,
      "velocity": 83,
      "chip": "ym2612"
    },
    {
      "channel": 1,
      "note": 58,
      "start": 35.449,
      "duration": 0.1147,
      "velocity": 89,
      "chip": "ym2612"
    },
    {
      "channel": 0,
      "note": 66,
      "start": 35.4508,
      "duration": 0.2202,
      "velocity": 127,
      "chip": "ym2612"
    },
    {
      "channel": 3,
      "note": 46,
      "start": 35.4551,
      "duration": 0.1051,
      "velocity": 113,
      "chip": "ym2612"
    },
    {
      "channel": 5,
      "note": 94,
      "start": 35.4586,
      "duration": 0.098,
      "velocity": 122,
      "chip": "ym2612"
    },
    {
      "channel": 4,
      "note": 94,
      "start": 35.4604,
      "duration": 0.098,
      "velocity": 122,
      "chip": "ym2612"
    },
    {
      "channel": 5,
      "note": 82,
      "start": 35.5571,
      "duration": 0.105,
      "velocity": 122,
      "chip": "ym2612"
    },
    {
      "channel": 4,
      "note": 82,
      "start": 35.5589,
      "duration": 0.105,
      "velocity": 122,
      "chip": "ym2612"
    },
    {
      "channel": 3,
      "note": 44,
      "start": 35.5607,
      "duration": 0.1049,
      "velocity": 113,
      "chip": "ym2612"
    },
    {
      "channel": 2,
      "note": 56,
      "start": 35.5625,
      "duration": 0.105,
      "velocity": 83,
      "chip": "ym2612"
    },
    {
      "channel": 1,
      "note": 56,
      "start": 35.5642,
      "duration": 0.105,
      "velocity": 89,
      "chip": "ym2612"
    },
    {
      "channel": 5,
      "note": 89,
      "start": 35.6627,
      "duration": 0.119,
      "velocity": 122,
      "chip": "ym2612"
    },
    {
      "channel": 4,
      "note": 82,
      "start": 35.6644,
      "duration": 0.119,
      "velocity": 122,
      "chip": "ym2612"
    },
    {
      "channel": 3,
      "note": 41,
      "start": 35.6662,
      "duration": 0.1075,
      "velocity": 113,
      "chip": "ym2612"
    },
    {
      "channel": 2,
      "note": 53,
      "start": 35.668,
      "duration": 0.1076,
      "velocity": 83,
      "chip": "ym2612"
    },
    {
      "channel": 1,
      "note": 53,
      "start": 35.6698,
      "duration": 0.1075,
      "velocity": 89,
      "chip": "ym2612"
    },
    {
      "channel": 0,
      "note": 66,
      "start": 35.6715,
      "duration": 0.1075,
      "velocity": 127,
      "chip": "ym2612"
    },
    {
      "channel": 3,
      "note": 37,
      "start": 35.7742,
      "duration": 0.1107,
      "velocity": 113,
      "chip": "ym2612"
    },
    {
      "channel": 2,
      "note": 49,
      "start": 35.7761,
      "duration": 0.1107,
      "velocity": 83,
      "chip": "ym2612"
    },
    {
      "channel": 1,
      "note": 49,
      "start": 35.7778,
      "duration": 0.1107,
      "velocity": 89,
      "chip": "ym2612"
    },
    {
      "channel": 5,
      "note": 94,
      "start": 35.7821,
      "duration": 0.0993,
      "velocity": 122,
      "chip": "ym2612"
    },
    {
      "channel": 4,
      "note": 94,
      "start": 35.7838,
      "duration": 0.0993,
      "velocity": 122,
      "chip": "ym2612"
    },
    {
      "channel": 0,
      "note": 57,
      "start": 35.7905,
      "duration": 0.0142,
      "velocity": 127,
      "chip": "ym2612"
    },
    {
      "channel": 0,
      "note": 66,
      "start": 35.8051,
      "duration": 0.1878,
      "velocity": 127,
      "chip": "ym2612"
    },
    {
      "channel": 5,
      "note": 82,
      "start": 35.8819,
      "duration": 0.1137,
      "velocity": 122,
      "chip": "ym2612"
    },
    {
      "channel": 4,
      "note": 82,
      "start": 35.8836,
      "duration": 0.1022,
      "velocity": 122,
      "chip": "ym2612"
    },
    {
      "channel": 3,
      "note": 39,
      "start": 35.8855,
      "duration": 0.1022,
      "velocity": 113,
      "chip": "ym2612"
    },
    {
      "channel": 2,
      "note": 51,
      "start": 35.8873,
      "duration": 0.1022,
      "velocity": 83,
      "chip": "ym2612"
    },
    {
      "channel": 1,
      "note": 51,
      "start": 35.889,
      "duration": 0.1022,
      "velocity": 89,
      "chip": "ym2612"
    },
    {
      "channel": 4,
      "note": 82,
      "start": 35.9864,
      "duration": 0.119,
      "velocity": 122,
      "chip": "ym2612"
    },
    {
      "channel": 3,
      "note": 41,
      "start": 35.9882,
      "duration": 0.1092,
      "velocity": 113,
      "chip": "ym2612"
    },
    {
      "channel": 2,
      "note": 53,
      "start": 35.99,
      "duration": 0.109,
      "velocity": 83,
      "chip": "ym2612"
    },
    {
      "channel": 1,
      "note": 53,
      "start": 35.9918,
      "duration": 0.1091,
      "velocity": 89,
      "chip": "ym2612"
    },
    {
      "channel": 5,
      "note": 89,
      "start": 35.9961,
      "duration": 0.1075,
      "velocity": 122,
      "chip": "ym2612"
    },
    {
      "channel": 0,
      "note": 66,
      "start": 36.003,
      "duration": 0.2086,
      "velocity": 127,
      "chip": "ym2612"
    },
    {
      "channel": 3,
      "note": 44,
      "start": 36.0978,
      "duration": 0.11,
      "velocity": 113,
      "chip": "ym2612"
    },
    {
      "channel": 2,
      "note": 56,
      "start": 36.0995,
      "duration": 0.1101,
      "velocity": 83,
      "chip": "ym2612"
    },
    {
      "channel": 1,
      "note": 56,
      "start": 36.1014,
      "duration": 0.0994,
      "velocity": 89,
      "chip": "ym2612"
    },
    {
      "channel": 5,
      "note": 94,
      "start": 36.1041,
      "duration": 0.1001,
      "velocity": 122,
      "chip": "ym2612"
    },
    {
      "channel": 4,
      "note": 94,
      "start": 36.1059,
      "duration": 0.1001,
      "velocity": 122,
      "chip": "ym2612"
    },
    {
      "channel": 1,
      "note": 70,
      "start": 36.2013,
      "duration": 0.1143,
      "velocity": 89,
      "chip": "ym2612"
    },
    {
      "channel": 5,
      "note": 82,
      "start": 36.2046,
      "duration": 0.1136,
      "velocity": 122,
      "chip": "ym2612"
    },
    {
      "channel": 4,
      "note": 82,
      "start": 36.2065,
      "duration": 0.1037,
      "velocity": 122,
      "chip": "ym2612"
    },
    {
      "channel": 3,
      "note": 58,
      "start": 36.2083,
      "duration": 0.1037,
      "velocity": 113,
      "chip": "ym2612"
    },
    {
      "channel": 2,
      "note": 70,
      "start": 36.2101,
      "duration": 0.1036,
      "velocity": 83,
      "chip": "ym2612"
    },
    {
      "channel": 0,
      "note": 66,
      "start": 36.2203,
      "duration": 0.312,
      "velocity": 127,
      "chip": "ym2612"
    },
    {
      "channel": 4,
      "note": 82,
      "start": 36.3107,
      "duration": 0.12,
      "velocity": 122,
      "chip": "ym2612"
    },
    {
      "channel": 3,
      "note": 56,
      "start": 36.3125,
      "duration": 0.11,
      "velocity": 113,
      "chip": "ym2612"
    },
    {
      "channel": 2,
      "note": 68,
      "start": 36.3142,
      "duration": 0.1102,
      "velocity": 83,
      "chip": "ym2612"
    },
    {
      "channel": 1,
      "note": 68,
      "start": 36.3161,
      "duration": 0.1102,
      "velocity": 89,
      "chip": "ym2612"
    },
    {
      "channel": 5,
      "note": 89,
      "start": 36.3187,
      "duration": 0.1102,
      "velocity": 122,
      "chip": "ym2612"
    },
    {
      "channel": 3,
      "note": 53,
      "start": 36.4232,
      "duration": 0.1038,
      "velocity": 113,
      "chip": "ym2612"
    },
    {
      "channel": 2,
      "note": 65,
      "start": 36.425,
      "duration": 0.1037,
      "velocity": 83,
      "chip": "ym2612"
    },
    {
      "channel": 1,
      "note": 65,
      "start": 36.4268,
      "duration": 0.1038,
      "velocity": 89,
      "chip": "ym2612"
    },
    {
      "channel": 5,
      "note": 94,
      "start": 36.4294,
      "duration": 0.1052,
      "velocity": 122,
      "chip": "ym2612"
    },
    {
      "channel": 4,
      "note": 94,
      "start": 36.4312,
      "duration": 0.0939,
      "velocity": 122,
      "chip": "ym2612"
    },
    {
      "channel": 4,
      "note": 82,
      "start": 36.5257,
      "duration": 0.109,
      "velocity": 122,
      "chip": "ym2612"
    },
    {
      "channel": 3,
      "note": 46,
      "start": 36.5275,
      "duration": 0.2136,
      "velocity": 113,
      "chip": "ym2612"
    },
    {
      "channel": 2,
      "note": 58,
      "start": 36.5293,
      "duration": 0.2135,
      "velocity": 83,
      "chip": "ym2612"
    },
    {
      "channel": 1,
      "note": 58,
      "start": 36.531,
      "duration": 0.2136,
      "velocity": 89,
      "chip": "ym2612"
    },
    {
      "channel": 0,
      "note": 66,
      "start": 36.5328,
      "duration": 0.1046,
      "velocity": 127,
      "chip": "ym2612"
    },
    {
      "channel": 5,
      "note": 82,
      "start": 36.5352,
      "duration": 0.105,
      "velocity": 122,
      "chip": "ym2612"
    },
    {
      "channel": 4,
      "note": 82,
      "start": 36.6352,
      "duration": 0.113,
      "velocity": 122,
      "chip": "ym2612"
    },
    {
      "channel": 5,
      "note": 89,
      "start": 36.6406,
      "duration": 0.1114,
      "velocity": 122,
      "chip": "ym2612"
    },
    {
      "channel": 0,
      "note": 57,
      "start": 36.6474,
      "duration": 0.3115,
      "velocity": 127,
      "chip": "ym2612"
    },
    {
      "channel": 3,
      "note": 58,
      "start": 36.7415,
      "duration": 0.1083,
      "velocity": 113,
      "chip": "ym2612"
    },
    {
      "channel": 2,
      "note": 70,
      "start": 36.7433,
      "duration": 0.1083,
      "velocity": 83,
      "chip": "ym2612"
    },
    {
      "channel": 1,
      "note": 70,
      "start": 36.7451,
      "duration": 0.1083,
      "velocity": 89,
      "chip": "ym2612"
    },
    {
      "channel": 4,
      "note": 94,
      "start": 36.7488,
      "duration": 0.1092,
      "velocity": 122,
      "chip": "ym2612"
    },
    {
      "channel": 5,
      "note": 94,
      "start": 36.7525,
      "duration": 0.1036,
      "velocity": 122,
      "chip": "ym2612"
    },
    {
      "channel": 3,
      "note": 56,
      "start": 36.8503,
      "duration": 0.1148,
      "velocity": 113,
      "chip": "ym2612"
    },
    {
      "channel": 2,
      "note": 68,
      "start": 36.8521,
      "duration": 0.1148,
      "velocity": 83,
      "chip": "ym2612"
    },
    {
      "channel": 1,
      "note": 68,
      "start": 36.8539,
      "duration": 0.1148,
      "velocity": 89,
      "chip": "ym2612"
    },
    {
      "channel": 5,
      "note": 82,
      "start": 36.8567,
      "duration": 0.1049,
      "velocity": 122,
      "chip": "ym2612"
    },
    {
      "channel": 4,
      "note": 82,
      "start": 36.8585,
      "duration": 0.1049,
      "velocity": 122,
      "chip": "ym2612"
    },
    {
      "channel": 5,
      "note": 89,
      "start": 36.9621,
      "duration": 0.1146,
      "velocity": 122,
      "chip": "ym2612"
    },
    {
      "channel": 4,
      "note": 82,
      "start": 36.9639,
      "duration": 0.1092,
      "velocity": 122,
      "chip": "ym2612"
    },
    {
      "channel": 3,
      "note": 53,
      "start": 36.9656,
      "duration": 0.1,
      "velocity": 113,
      "chip": "ym2612"
    },
    {
      "channel": 2,
      "note": 65,
      "start": 36.9674,
      "duration": 0.1001,
      "velocity": 83,
      "chip": "ym2612"
    },
    {
      "channel": 1,
      "note": 65,
      "start": 36.9692,
      "duration": 0.1,
      "velocity": 89,
      "chip": "ym2612"
    },
    {
      "channel": 0,
      "note": 66,
      "start": 36.9749,
      "duration": 0.2065,
      "velocity": 127,
      "chip": "ym2612"
    },
    {
      "channel": 3,
      "note": 46,
      "start": 37.0662,
      "duration": 0.1098,
      "velocity": 113,
      "chip": "ym2612"
    },
    {
      "channel": 2,
      "note": 58,
      "start": 37.068,
      "duration": 0.1098,
      "velocity": 83,
      "chip": "ym2612"
    },
    {
      "channel": 1,
      "note": 58,
      "start": 37.0698,
      "duration": 0.1098,
      "velocity": 89,
      "chip": "ym2612"
    },
    {
      "channel": 4,
      "note": 94,
      "start": 37.0735,
      "duration": 0.1007,
      "velocity": 122,
      "chip": "ym2612"
    },
    {
      "channel": 5,
      "note": 94,
      "start": 37.0772,
      "duration": 0.1065,
      "velocity": 122,
      "chip": "ym2612"
    },
    {
      "channel": 4,
      "note": 82,
      "start": 37.1747,
      "duration": 0.1092,
      "velocity": 122,
      "chip": "ym2612"
    },
    {
      "channel": 3,
      "note": 46,
      "start": 37.1765,
      "duration": 0.1092,
      "velocity": 113,
      "chip": "ym2612"
    },
    {
      "channel": 2,
      "note": 58,
      "start": 37.1782,
      "duration": 0.1092,
      "velocity": 83,
      "chip": "ym2612"
    },
    {
      "channel": 1,
      "note": 58,
      "start": 37.1801,
      "duration": 0.0994,
      "velocity": 89,
      "chip": "ym2612"
    },
    {
      "channel": 0,
      "note": 66,
      "start": 37.1819,
      "duration": 0.2143,
      "velocity": 127,
      "chip": "ym2612"
    },
    {
      "channel": 5,
      "note": 82,
      "start": 37.1842,
      "duration": 0.0979,
      "velocity": 122,
      "chip": "ym2612"
    },
    {
      "channel": 1,
      "note": 60,
      "start": 37.28,
      "duration": 0.1145,
      "velocity": 89,
      "chip": "ym2612"
    },
    {
      "channel": 5,
      "note": 89,
      "start": 37.2826,
      "duration": 0.1159,
      "velocity": 122,
      "chip": "ym2612"
    },
    {
      "channel": 4,
      "note": 82,
      "start": 37.2844,
      "duration": 0.1159,
      "velocity": 122,
      "chip": "ym2612"
    },
    {
      "channel": 3,
      "note": 48,
      "start": 37.2862,
      "duration": 0.1047,
      "velocity": 113,
      "chip": "ym2612"
    },
    {
      "channel": 2,
      "note": 60,
      "start": 37.288,
      "duration": 0.1046,
      "velocity": 83,
      "chip": "ym2612"
    },
    {
      "channel": 3,
      "note": 48,
      "start": 37.3914,
      "duration": 0.1151,
      "velocity": 113,
      "chip": "ym2612"
    },
    {
      "channel": 2,
      "note": 60,
      "start": 37.3931,
      "duration": 0.1151,
      "velocity": 83,
      "chip": "ym2612"
    },
    {
      "channel": 1,
      "note": 60,
      "start": 37.395,
      "duration": 0.1036,
      "velocity": 89,
      "chip": "ym2612"
    },
    {
      "channel": 0,
      "note": 66,
      "start": 37.3967,
      "duration": 0.1035,
      "velocity": 127,
      "chip": "ym2612"
    },
    {
      "channel": 5,
      "note": 94,
      "start": 37.399,
      "duration": 0.1038,
      "velocity": 122,
      "chip": "ym2612"
    },
    {
      "channel": 4,
      "note": 94,
      "start": 37.4008,
      "duration": 0.1037,
      "velocity": 122,
      "chip": "ym2612"
    },
    {
      "channel": 1,
      "note": 61,
      "start": 37.499,
      "duration": 0.1122,
      "velocity": 89,
      "chip": "ym2612"
    },
    {
      "channel": 5,
      "note": 82,
      "start": 37.5033,
      "duration": 0.1008,
      "velocity": 122,
      "chip": "ym2612"
    },
    {
      "channel": 4,
      "note": 82,
      "start": 37.5051,
      "duration": 0.1007,
      "velocity": 122,
      "chip": "ym2612"
    },
    {
      "channel": 3,
      "note": 49,
      "start": 37.507,
      "duration": 0.1006,
      "velocity": 113,
      "chip": "ym2612"
    },
    {
      "channel": 2,
      "note": 61,
      "start": 37.5088,
      "duration": 0.1007,
      "velocity": 83,
      "chip": "ym2612"
    },
    {
      "channel": 0,
      "note": 57,
      "start": 37.5146,
      "duration": 0.1021,
      "velocity": 127,
      "chip": "ym2612"
    },
    {
      "channel": 5,
      "note": 89,
      "start": 37.6046,
      "duration": 0.1209,
      "velocity": 122,
      "chip": "ym2612"
    },
    {
      "channel": 4,
      "note": 82,
      "start": 37.6063,
      "duration": 0.1209,
      "velocity": 122,
      "chip": "ym2612"
    },
    {
      "channel": 3,
      "note": 49,
      "start": 37.6081,
      "duration": 0.111,
      "velocity": 113,
      "chip": "ym2612"
    },
    {
      "channel": 2,
      "note": 61,
      "start": 37.6099,
      "duration": 0.111,
      "velocity": 83,
      "chip": "ym2612"
    },
    {
      "channel": 1,
      "note": 61,
      "start": 37.6117,
      "duration": 0.1017,
      "velocity": 89,
      "chip": "ym2612"
    },
    {
      "channel": 0,
      "note": 66,
      "start": 37.6172,
      "duration": 0.106,
      "velocity": 127,
      "chip": "ym2612"
    },
    {
      "channel": 1,
      "note": 64,
      "start": 37.7139,
      "duration": 0.112,
      "velocity": 89,
      "chip": "ym2612"
    },
    {
      "channel": 3,
      "note": 52,
      "start": 37.7196,
      "duration": 0.1026,
      "velocity": 113,
      "chip": "ym2612"
    },
    {
      "channel": 2,
      "note": 64,
      "start": 37.7214,
      "duration": 0.1027,
      "velocity": 83,
      "chip": "ym2612"
    },
    {
      "channel": 0,
      "note": 66,
      "start": 37.7237,
      "duration": 0.1077,
      "velocity": 127,
      "chip": "ym2612"
    },
    {
      "channel": 5,
      "note": 94,
      "start": 37.7259,
      "duration": 0.0927,
      "velocity": 122,
      "chip": "ym2612"
    },
    {
      "channel": 4,
      "note": 94,
      "start": 37.7278,
      "duration": 0.0927,
      "velocity": 122,
      "chip": "ym2612"
    },
    {
      "channel": 5,
      "note": 82,
      "start": 37.8192,
      "duration": 0.1122,
      "velocity": 122,
      "chip": "ym2612"
    },
    {
      "channel": 4,
      "note": 82,
      "start": 37.821,
      "duration": 0.1122,
      "velocity": 122,
      "chip": "ym2612"
    },
    {
      "channel": 3,
      "note": 53,
      "start": 37.8228,
      "duration": 0.1121,
      "velocity": 113,
      "chip": "ym2612"
    },
    {
      "channel": 2,
      "note": 65,
      "start": 37.8246,
      "duration": 0.1122,
      "velocity": 83,
      "chip": "ym2612"
    },
    {
      "channel": 1,
      "note": 65,
      "start": 37.8264,
      "duration": 0.1017,
      "velocity": 89,
      "chip": "ym2612"
    },
    {
      "channel": 0,
      "note": 66,
      "start": 37.8319,
      "duration": 0.1069,
      "velocity": 127,
      "chip": "ym2612"
    },
    {
      "channel": 1,
      "note": 70,
      "start": 37.9286,
      "duration": 0.1128,
      "velocity": 89,
      "chip": "ym2612"
    },
    {
      "channel": 5,
      "note": 89,
      "start": 37.9319,
      "duration": 0.1161,
      "velocity": 122,
      "chip": "ym2612"
    },
    {
      "channel": 4,
      "note": 82,
      "start": 37.9337,
      "duration": 0.1161,
      "velocity": 122,
      "chip": "ym2612"
    },
    {
      "channel": 3,
      "note": 58,
      "start": 37.9355,
      "duration": 0.1024,
      "velocity": 113,
      "chip": "ym2612"
    },
    {
      "channel": 2,
      "note": 70,
      "start": 37.9373,
      "duration": 0.1023,
      "velocity": 83,
      "chip": "ym2612"
    },
    {
      "channel": 0,
      "note": 66,
      "start": 37.9476,
      "duration": 0.3105,
      "velocity": 127,
      "chip": "ym2612"
    },
    {
      "channel": 3,
      "note": 56,
      "start": 38.0383,
      "duration": 0.1091,
      "velocity": 113,
      "chip": "ym2612"
    },
    {
      "channel": 2,
      "note": 68,
      "start": 38.0401,
      "duration": 0.1091,
      "velocity": 83,
      "chip": "ym2612"
    },
    {
      "channel": 1,
      "note": 68,
      "start": 38.0419,
      "duration": 0.1091,
      "velocity": 89,
      "chip": "ym2612"
    },
    {
      "channel": 5,
      "note": 94,
      "start": 38.0485,
      "duration": 0.0954,
      "velocity": 122,
      "chip": "ym2612"
    },
    {
      "channel": 4,
      "note": 94,
      "start": 38.0503,
      "duration": 0.0953,
      "velocity": 122,
      "chip": "ym2612"
    },
    {
      "channel": 5,
      "note": 82,
      "start": 38.1444,
      "duration": 0.116,
      "velocity": 122,
      "chip": "ym2612"
    },
    {
      "channel": 4,
      "note": 82,
      "start": 38.1461,
      "duration": 0.1161,
      "velocity": 122,
      "chip": "ym2612"
    },
    {
      "channel": 3,
      "note": 53,
      "start": 38.148,
      "duration": 0.1048,
      "velocity": 113,
      "chip": "ym2612"
    },
    {
      "channel": 2,
      "note": 65,
      "start": 38.1497,
      "duration": 0.1047,
      "velocity": 83,
      "chip": "ym2612"
    },
    {
      "channel": 1,
      "note": 65,
      "start": 38.1515,
      "duration": 0.1048,
      "velocity": 89,
      "chip": "ym2612"
    },
    {
      "channel": 3,
      "note": 46,
      "start": 38.2532,
      "duration": 0.2185,
      "velocity": 113,
      "chip": "ym2612"
    },
    {
      "channel": 2,
      "note": 58,
      "start": 38.2549,
      "duration": 0.2185,
      "velocity": 83,
      "chip": "ym2612"
    },
    {
      "channel": 1,
      "note": 58,
      "start": 38.2568,
      "duration": 0.2184,
      "velocity": 89,
      "chip": "ym2612"
    },
    {
      "channel": 0,
      "note": 66,
      "start": 38.2586,
      "duration": 0.0994,
      "velocity": 127,
      "chip": "ym2612"
    },
    {
      "channel": 5,
      "note": 89,
      "start": 38.2609,
      "duration": 0.1046,
      "velocity": 122,
      "chip": "ym2612"
    },
    {
      "channel": 4,
      "note": 82,
      "start": 38.2627,
      "duration": 0.1046,
      "velocity": 122,
      "chip": "ym2612"
    },
    {
      "channel": 5,
      "note": 94,
      "start": 38.366,
      "duration": 0.1021,
      "velocity": 122,
      "chip": "ym2612"
    },
    {
      "channel": 4,
      "note": 94,
      "start": 38.3678,
      "duration": 0.102,
      "velocity": 122,
      "chip": "ym2612"
    },
    {
      "channel": 0,
      "note": 57,
      "start": 38.3706,
      "duration": 0.3171,
      "velocity": 127,
      "chip": "ym2612"
    },
    {
      "channel": 5,
      "note": 82,
      "start": 38.4686,
      "duration": 0.1131,
      "velocity": 122,
      "chip": "ym2612"
    },
    {
      "channel": 4,
      "note": 82,
      "start": 38.4703,
      "duration": 0.1131,
      "velocity": 122,
      "chip": "ym2612"
    },
    {
      "channel": 3,
      "note": 58,
      "start": 38.4722,
      "duration": 0.1131,
      "velocity": 113,
      "chip": "ym2612"
    },
    {
      "channel": 2,
      "note": 70,
      "start": 38.474,
      "duration": 0.1032,
      "velocity": 83,
      "chip": "ym2612"
    },
    {
      "channel": 1,
      "note": 70,
      "start": 38.4758,
      "duration": 0.1032,
      "velocity": 89,
      "chip": "ym2612"
    },
    {
      "channel": 2,
      "note": 68,
      "start": 38.5777,
      "duration": 0.1064,
      "velocity": 83,
      "chip": "ym2612"
    },
    {
      "channel": 1,
      "note": 68,
      "start": 38.5795,
      "duration": 0.1064,
      "velocity": 89,
      "chip": "ym2612"
    },
    {
      "channel": 5,
      "note": 89,
      "start": 38.5822,
      "duration": 0.1132,
      "velocity": 122,
      "chip": "ym2612"
    },
    {
      "channel": 4,
      "note": 82,
      "start": 38.5839,
      "duration": 0.1132,
      "velocity": 122,
      "chip": "ym2612"
    },
    {
      "channel": 3,
      "note": 56,
      "start": 38.5857,
      "duration": 0.0966,
      "velocity": 113,
      "chip": "ym2612"
    },
    {
      "channel": 3,
      "note": 53,
      "start": 38.6829,
      "duration": 0.1134,
      "velocity": 113,
      "chip": "ym2612"
    },
    {
      "channel": 2,
      "note": 65,
      "start": 38.6846,
      "duration": 0.1134,
      "velocity": 83,
      "chip": "ym2612"
    },
    {
      "channel": 1,
      "note": 65,
      "start": 38.6864,
      "duration": 0.1134,
      "velocity": 89,
      "chip": "ym2612"
    },
    {
      "channel": 5,
      "note": 94,
      "start": 38.6959,
      "duration": 0.0968,
      "velocity": 122,
      "chip": "ym2612"
    },
    {
      "channel": 4,
      "note": 94,
      "start": 38.6976,
      "duration": 0.0968,
      "velocity": 122,
      "chip": "ym2612"
    },
    {
      "channel": 0,
      "note": 66,
      "start": 38.7005,
      "duration": 0.1968,
      "velocity": 127,
      "chip": "ym2612"
    },
    {
      "channel": 5,
      "note": 82,
      "start": 38.7932,
      "duration": 0.1064,
      "velocity": 122,
      "chip": "ym2612"
    },
    {
      "channel": 4,
      "note": 82,
      "start": 38.7949,
      "duration": 0.1064,
      "velocity": 122,
      "chip": "ym2612"
    },
    {
      "channel": 3,
      "note": 46,
      "start": 38.7967,
      "duration": 0.1064,
      "velocity": 113,
      "chip": "ym2612"
    },
    {
      "channel": 2,
      "note": 58,
      "start": 38.7985,
      "duration": 0.1063,
      "velocity": 83,
      "chip": "ym2612"
    },
    {
      "channel": 1,
      "note": 58,
      "start": 38.8003,
      "duration": 0.1065,
      "velocity": 89,
      "chip": "ym2612"
    },
    {
      "channel": 0,
      "note": 66,
      "start": 38.8978,
      "duration": 0.2185,
      "velocity": 127,
      "chip": "ym2612"
    },
    {
      "channel": 5,
      "note": 89,
      "start": 38.9,
      "duration": 0.116,
      "velocity": 122,
      "chip": "ym2612"
    },
    {
      "channel": 4,
      "note": 82,
      "start": 38.9018,
      "duration": 0.1159,
      "velocity": 122,
      "chip": "ym2612"
    },
    {
      "channel": 3,
      "note": 46,
      "start": 38.9037,
      "duration": 0.1061,
      "velocity": 113,
      "chip": "ym2612"
    },
    {
      "channel": 2,
      "note": 58,
      "start": 38.9054,
      "duration": 0.1062,
      "velocity": 83,
      "chip": "ym2612"
    },
    {
      "channel": 1,
      "note": 58,
      "start": 38.9073,
      "duration": 0.106,
      "velocity": 89,
      "chip": "ym2612"
    },
    {
      "channel": 3,
      "note": 44,
      "start": 39.0102,
      "duration": 0.112,
      "velocity": 113,
      "chip": "ym2612"
    },
    {
      "channel": 2,
      "note": 56,
      "start": 39.012,
      "duration": 0.112,
      "velocity": 83,
      "chip": "ym2612"
    },
    {
      "channel": 1,
      "note": 56,
      "start": 39.0138,
      "duration": 0.112,
      "velocity": 89,
      "chip": "ym2612"
    },
    {
      "channel": 5,
      "note": 94,
      "start": 39.0165,
      "duration": 0.102,
      "velocity": 122,
      "chip": "ym2612"
    },
    {
      "channel": 4,
      "note": 94,
      "start": 39.0183,
      "duration": 0.1021,
      "velocity": 122,
      "chip": "ym2612"
    },
    {
      "channel": 0,
      "note": 66,
      "start": 39.1168,
      "duration": 0.1121,
      "velocity": 127,
      "chip": "ym2612"
    },
    {
      "channel": 5,
      "note": 82,
      "start": 39.1191,
      "duration": 0.1124,
      "velocity": 122,
      "chip": "ym2612"
    },
    {
      "channel": 4,
      "note": 82,
      "start": 39.1209,
      "duration": 0.101,
      "velocity": 122,
      "chip": "ym2612"
    },
    {
      "channel": 3,
      "note": 41,
      "start": 39.1227,
      "duration": 0.101,
      "velocity": 113,
      "chip": "ym2612"
    },
    {
      "channel": 2,
      "note": 53,
      "start": 39.1245,
      "duration": 0.101,
      "velocity": 83,
      "chip": "ym2612"
    },
    {
      "channel": 1,
      "note": 53,
      "start": 39.1263,
      "duration": 0.1009,
      "velocity": 89,
      "chip": "ym2612"
    },
    {
      "channel": 4,
      "note": 82,
      "start": 39.2223,
      "duration": 0.1185,
      "velocity": 122,
      "chip": "ym2612"
    },
    {
      "channel": 3,
      "note": 37,
      "start": 39.2241,
      "duration": 0.1082,
      "velocity": 113,
      "chip": "ym2612"
    },
    {
      "channel": 2,
      "note": 49,
      "start": 39.2259,
      "duration": 0.1082,
      "velocity": 83,
      "chip": "ym2612"
    },
    {
      "channel": 1,
      "note": 49,
      "start": 39.2277,
      "duration": 0.1083,
      "velocity": 89,
      "chip": "ym2612"
    },
    {
      "channel": 5,
      "note": 89,
      "start": 39.232,
      "duration": 0.1139,
      "velocity": 122,
      "chip": "ym2612"
    },
    {
      "channel": 0,
      "note": 57,
      "start": 39.2388,
      "duration": 0.1048,
      "velocity": 127,
      "chip": "ym2612"
    },
    {
      "channel": 3,
      "note": 39,
      "start": 39.3329,
      "duration": 0.1094,
      "velocity": 113,
      "chip": "ym2612"
    },
    {
      "channel": 2,
      "note": 51,
      "start": 39.3346,
      "duration": 0.1094,
      "velocity": 83,
      "chip": "ym2612"
    },
    {
      "channel": 1,
      "note": 51,
      "start": 39.3364,
      "duration": 0.1094,
      "velocity": 89,
      "chip": "ym2612"
    },
    {
      "channel": 4,
      "note": 94,
      "start": 39.3413,
      "duration": 0.0992,
      "velocity": 122,
      "chip": "ym2612"
    },
    {
      "channel": 0,
      "note": 66,
      "start": 39.3441,
      "duration": 0.1036,
      "velocity": 127,
      "chip": "ym2612"
    },
    {
      "channel": 5,
      "note": 94,
      "start": 39.3464,
      "duration": 0.0922,
      "velocity": 122,
      "chip": "ym2612"
    },
    {
      "channel": 5,
      "note": 82,
      "start": 39.4391,
      "duration": 0.116,
      "velocity": 122,
      "chip": "ym2612"
    },
    {
      "channel": 4,
      "note": 82,
      "start": 39.441,
      "duration": 0.1051,
      "velocity": 122,
      "chip": "ym2612"
    },
    {
      "channel": 3,
      "note": 41,
      "start": 39.4428,
      "duration": 0.105,
      "velocity": 113,
      "chip": "ym2612"
    },
    {
      "channel": 2,
      "note": 53,
      "start": 39.4445,
      "duration": 0.1051,
      "velocity": 83,
      "chip": "ym2612"
    },
    {
      "channel": 1,
      "note": 53,
      "start": 39.4464,
      "duration": 0.105,
      "velocity": 89,
      "chip": "ym2612"
    },
    {
      "channel": 0,
      "note": 66,
      "start": 39.4481,
      "duration": 0.1102,
      "velocity": 127,
      "chip": "ym2612"
    },
    {
      "channel": 4,
      "note": 82,
      "start": 39.5466,
      "duration": 0.1254,
      "velocity": 122,
      "chip": "ym2612"
    },
    {
      "channel": 3,
      "note": 44,
      "start": 39.5483,
      "duration": 0.1099,
      "velocity": 113,
      "chip": "ym2612"
    },
    {
      "channel": 2,
      "note": 56,
      "start": 39.5501,
      "duration": 0.1099,
      "velocity": 83,
      "chip": "ym2612"
    },
    {
      "channel": 1,
      "note": 56,
      "start": 39.5519,
      "duration": 0.1098,
      "velocity": 89,
      "chip": "ym2612"
    },
    {
      "channel": 5,
      "note": 89,
      "start": 39.5556,
      "duration": 0.1145,
      "velocity": 122,
      "chip": "ym2612"
    },
    {
      "channel": 0,
      "note": 66,
      "start": 39.5588,
      "duration": 0.1159,
      "velocity": 127,
      "chip": "ym2612"
    },
    {
      "channel": 3,
      "note": 46,
      "start": 39.6587,
      "duration": 0.3214,
      "velocity": 113,
      "chip": "ym2612"
    },
    {
      "channel": 2,
      "note": 58,
      "start": 39.6605,
      "duration": 0.3212,
      "velocity": 83,
      "chip": "ym2612"
    },
    {
      "channel": 1,
      "note": 58,
      "start": 39.6623,
      "duration": 0.3213,
      "velocity": 89,
      "chip": "ym2612"
    },
    {
      "channel": 5,
      "note": 77,
      "start": 39.6707,
      "duration": 0.3058,
      "velocity": 122,
      "chip": "ym2612"
    },
    {
      "channel": 4,
      "note": 70,
      "start": 39.6724,
      "duration": 0.3058,
      "velocity": 122,
      "chip": "ym2612"
    },
    {
      "channel": 0,
      "note": 57,
      "start": 39.6833,
      "duration": 0.0063,
      "velocity": 127,
      "chip": "ym2612"
    },
    {
      "channel": 0,
      "note": 66,
      "start": 39.6901,
      "duration": 0.0725,
      "velocity": 127,
      "chip": "ym2612"
    },
    {
      "channel": 0,
      "note": 66,
      "start": 39.7712,
      "duration": 0.102,
      "velocity": 127,
      "chip": "ym2612"
    },
    {
      "channel": 0,
      "note": 66,
      "start": 39.8737,
      "duration": 0.1149,
      "velocity": 127,
      "chip": "ym2612"
    },
    {
      "channel": 5,
      "note": 76,
      "start": 39.977,
      "duration": 0.3239,
      "velocity": 122,
      "chip": "ym2612"
    },
    {
      "channel": 4,
      "note": 69,
      "start": 39.9787,
      "duration": 0.3239,
      "velocity": 122,
      "chip": "ym2612"
    },
    {
      "channel": 3,
      "note": 45,
      "start": 39.9806,
      "duration": 0.3239,
      "velocity": 113,
      "chip": "ym2612"
    },
    {
      "channel": 2,
      "note": 57,
      "start": 39.9823,
      "duration": 0.324,
      "velocity": 83,
      "chip": "ym2612"
    },
    {
      "channel": 1,
      "note": 57,
      "start": 39.9841,
      "duration": 0.324,
      "velocity": 89,
      "chip": "ym2612"
    },
    {
      "channel": 0,
      "note": 57,
      "start": 39.9971,
      "duration": 0.017,
      "velocity": 127,
      "chip": "ym2612"
    },
    {
      "channel": 0,
      "note": 66,
      "start": 40.0146,
      "duration": 0.0725,
      "velocity": 127,
      "chip": "ym2612"
    },
    {
      "channel": 0,
      "note": 66,
      "start": 40.0959,
      "duration": 0.0992,
      "velocity": 127,
      "chip": "ym2612"
    },
    {
      "channel": 0,
      "note": 66,
      "start": 40.1955,
      "duration": 0.1176,
      "velocity": 127,
      "chip": "ym2612"
    },
    {
      "channel": 5,
      "note": 75,
      "start": 40.3014,
      "duration": 0.3239,
      "velocity": 122,
      "chip": "ym2612"
    },
    {
      "channel": 4,
      "note": 68,
      "start": 40.3032,
      "duration": 0.3239,
      "velocity": 122,
      "chip": "ym2612"
    },
    {
      "channel": 3,
      "note": 44,
      "start": 40.305,
      "duration": 0.3238,
      "velocity": 113,
      "chip": "ym2612"
    },
    {
      "channel": 2,
      "note": 56,
      "start": 40.3068,
      "duration": 0.3239,
      "velocity": 83,
      "chip": "ym2612"
    },
    {
      "channel": 1,
      "note": 56,
      "start": 40.3086,
      "duration": 0.3238,
      "velocity": 89,
      "chip": "ym2612"
    },
    {
      "channel": 0,
      "note": 57,
      "start": 40.3215,
      "duration": 0.0169,
      "velocity": 127,
      "chip": "ym2612"
    },
    {
      "channel": 0,
      "note": 66,
      "start": 40.339,
      "duration": 0.0726,
      "velocity": 127,
      "chip": "ym2612"
    },
    {
      "channel": 0,
      "note": 66,
      "start": 40.4202,
      "duration": 0.0966,
      "velocity": 127,
      "chip": "ym2612"
    },
    {
      "channel": 0,
      "note": 66,
      "start": 40.5172,
      "duration": 0.1202,
      "velocity": 127,
      "chip": "ym2612"
    },
    {
      "channel": 5,
      "note": 77,
      "start": 40.6258,
      "duration": 0.324,
      "velocity": 122,
      "chip": "ym2612"
    },
    {
      "channel": 4,
      "note": 70,
      "start": 40.6275,
      "duration": 0.324,
      "velocity": 122,
      "chip": "ym2612"
    },
    {
      "channel": 3,
      "note": 46,
      "start": 40.6293,
      "duration": 0.324,
      "velocity": 113,
      "chip": "ym2612"
    },
    {
      "channel": 2,
      "note": 58,
      "start": 40.6311,
      "duration": 0.3241,
      "velocity": 83,
      "chip": "ym2612"
    },
    {
      "channel": 1,
      "note": 58,
      "start": 40.6329,
      "duration": 0.324,
      "velocity": 89,
      "chip": "ym2612"
    },
    {
      "channel": 0,
      "note": 57,
      "start": 40.6459,
      "duration": 0.0143,
      "velocity": 127,
      "chip": "ym2612"
    },
    {
      "channel": 0,
      "note": 66,
      "start": 40.6607,
      "duration": 0.0751,
      "velocity": 127,
      "chip": "ym2612"
    },
    {
      "channel": 0,
      "note": 66,
      "start": 40.7446,
      "duration": 0.0966,
      "velocity": 127,
      "chip": "ym2612"
    },
    {
      "channel": 0,
      "note": 66,
      "start": 40.8417,
      "duration": 0.1235,
      "velocity": 127,
      "chip": "ym2612"
    },
    {
      "channel": 5,
      "note": 76,
      "start": 40.9502,
      "duration": 0.1101,
      "velocity": 122,
      "chip": "ym2612"
    },
    {
      "channel": 4,
      "note": 69,
      "start": 40.952,
      "duration": 0.1094,
      "velocity": 122,
      "chip": "ym2612"
    },
    {
      "channel": 3,
      "note": 45,
      "start": 40.9539,
      "duration": 0.1007,
      "velocity": 113,
      "chip": "ym2612"
    },
    {
      "channel": 2,
      "note": 57,
      "start": 40.9556,
      "duration": 0.1,
      "velocity": 83,
      "chip": "ym2612"
    },
    {
      "channel": 1,
      "note": 57,
      "start": 40.9574,
      "duration": 0.0994,
      "velocity": 89,
      "chip": "ym2612"
    },
    {
      "channel": 0,
      "note": 57,
      "start": 40.9738,
      "duration": 0.0116,
      "velocity": 127,
      "chip": "ym2612"
    },
    {
      "channel": 0,
      "note": 66,
      "start": 40.9858,
      "duration": 0.0721,
      "velocity": 127,
      "chip": "ym2612"
    },
    {
      "channel": 0,
      "note": 66,
      "start": 41.0681,
      "duration": 0.107,
      "velocity": 127,
      "chip": "ym2612"
    },
    {
      "channel": 2,
      "note": 56,
      "start": 41.1645,
      "duration": 0.2212,
      "velocity": 83,
      "chip": "ym2612"
    },
    {
      "channel": 1,
      "note": 56,
      "start": 41.1663,
      "duration": 0.2212,
      "velocity": 89,
      "chip": "ym2612"
    },
    {
      "channel": 5,
      "note": 75,
      "start": 41.1696,
      "duration": 0.2108,
      "velocity": 122,
      "chip": "ym2612"
    },
    {
      "channel": 4,
      "note": 68,
      "start": 41.1714,
      "duration": 0.2107,
      "velocity": 122,
      "chip": "ym2612"
    },
    {
      "channel": 3,
      "note": 44,
      "start": 41.1732,
      "duration": 0.2107,
      "velocity": 113,
      "chip": "ym2612"
    },
    {
      "channel": 0,
      "note": 57,
      "start": 41.1836,
      "duration": 0.0142,
      "velocity": 127,
      "chip": "ym2612"
    },
    {
      "channel": 0,
      "note": 66,
      "start": 41.1983,
      "duration": 0.0753,
      "velocity": 127,
      "chip": "ym2612"
    },
    {
      "channel": 0,
      "note": 66,
      "start": 41.2822,
      "duration": 0.1104,
      "velocity": 127,
      "chip": "ym2612"
    },
    {
      "channel": 5,
      "note": 76,
      "start": 41.3808,
      "duration": 0.3261,
      "velocity": 122,
      "chip": "ym2612"
    },
    {
      "channel": 4,
      "note": 69,
      "start": 41.3826,
      "duration": 0.3261,
      "velocity": 122,
      "chip": "ym2612"
    },
    {
      "channel": 3,
      "note": 45,
      "start": 41.3845,
      "duration": 0.326,
      "velocity": 113,
      "chip": "ym2612"
    },
    {
      "channel": 2,
      "note": 57,
      "start": 41.3862,
      "duration": 0.3261,
      "velocity": 83,
      "chip": "ym2612"
    },
    {
      "channel": 1,
      "note": 57,
      "start": 41.388,
      "duration": 0.3155,
      "velocity": 89,
      "chip": "ym2612"
    },
    {
      "channel": 0,
      "note": 57,
      "start": 41.4011,
      "duration": 0.0169,
      "velocity": 127,
      "chip": "ym2612"
    },
    {
      "channel": 0,
      "note": 66,
      "start": 41.4184,
      "duration": 0.0699,
      "velocity": 127,
      "chip": "ym2612"
    },
    {
      "channel": 0,
      "note": 66,
      "start": 41.497,
      "duration": 0.0992,
      "velocity": 127,
      "chip": "ym2612"
    },
    {
      "channel": 0,
      "note": 66,
      "start": 41.5967,
      "duration": 0.1176,
      "velocity": 127,
      "chip": "ym2612"
    },
    {
      "channel": 1,
      "note": 56,
      "start": 41.7041,
      "duration": 0.324,
      "velocity": 89,
      "chip": "ym2612"
    },
    {
      "channel": 5,
      "note": 75,
      "start": 41.7074,
      "duration": 0.3239,
      "velocity": 122,
      "chip": "ym2612"
    },
    {
      "channel": 4,
      "note": 68,
      "start": 41.7092,
      "duration": 0.3239,
      "velocity": 122,
      "chip": "ym2612"
    },
    {
      "channel": 3,
      "note": 44,
      "start": 41.711,
      "duration": 0.3239,
      "velocity": 113,
      "chip": "ym2612"
    },
    {
      "channel": 2,
      "note": 56,
      "start": 41.7128,
      "duration": 0.3239,
      "velocity": 83,
      "chip": "ym2612"
    },
    {
      "channel": 0,
      "note": 57,
      "start": 41.7229,
      "duration": 0.0142,
      "velocity": 127,
      "chip": "ym2612"
    },
    {
      "channel": 0,
      "note": 66,
      "start": 41.7376,
      "duration": 0.0752,
      "velocity": 127,
      "chip": "ym2612"
    },
    {
      "channel": 0,
      "note": 66,
      "start": 41.8214,
      "duration": 0.0992,
      "velocity": 127,
      "chip": "ym2612"
    },
    {
      "channel": 0,
      "note": 66,
      "start": 41.9211,
      "duration": 0.1176,
      "velocity": 127,
      "chip": "ym2612"
    },
    {
      "channel": 1,
      "note": 55,
      "start": 42.0285,
      "duration": 0.3239,
      "velocity": 89,
      "chip": "ym2612"
    },
    {
      "channel": 5,
      "note": 74,
      "start": 42.0318,
      "duration": 0.3239,
      "velocity": 122,
      "chip": "ym2612"
    },
    {
      "channel": 4,
      "note": 67,
      "start": 42.0336,
      "duration": 0.324,
      "velocity": 122,
      "chip": "ym2612"
    },
    {
      "channel": 3,
      "note": 43,
      "start": 42.0354,
      "duration": 0.324,
      "velocity": 113,
      "chip": "ym2612"
    },
    {
      "channel": 2,
      "note": 55,
      "start": 42.0371,
      "duration": 0.324,
      "velocity": 83,
      "chip": "ym2612"
    },
    {
      "channel": 0,
      "note": 57,
      "start": 42.0473,
      "duration": 0.0143,
      "velocity": 127,
      "chip": "ym2612"
    },
    {
      "channel": 0,
      "note": 66,
      "start": 42.0621,
      "duration": 0.0726,
      "velocity": 127,
      "chip": "ym2612"
    },
    {
      "channel": 0,
      "note": 66,
      "start": 42.1433,
      "duration": 0.1017,
      "velocity": 127,
      "chip": "ym2612"
    },
    {
      "channel": 0,
      "note": 57,
      "start": 42.2535,
      "duration": 0.1135,
      "velocity": 127,
      "chip": "ym2612"
    },
    {
      "channel": 1,
      "note": 57,
      "start": 42.3529,
      "duration": 0.3273,
      "velocity": 89,
      "chip": "ym2612"
    },
    {
      "channel": 5,
      "note": 76,
      "start": 42.3563,
      "duration": 0.3168,
      "velocity": 122,
      "chip": "ym2612"
    },
    {
      "channel": 4,
      "note": 69,
      "start": 42.3581,
      "duration": 0.3167,
      "velocity": 122,
      "chip": "ym2612"
    },
    {
      "channel": 3,
      "note": 45,
      "start": 42.3598,
      "duration": 0.3168,
      "velocity": 113,
      "chip": "ym2612"
    },
    {
      "channel": 2,
      "note": 57,
      "start": 42.3616,
      "duration": 0.3168,
      "velocity": 83,
      "chip": "ym2612"
    },
    {
      "channel": 0,
      "note": 66,
      "start": 42.3674,
      "duration": 0.0982,
      "velocity": 127,
      "chip": "ym2612"
    },
    {
      "channel": 0,
      "note": 66,
      "start": 42.4661,
      "duration": 0.109,
      "velocity": 127,
      "chip": "ym2612"
    },
    {
      "channel": 0,
      "note": 66,
      "start": 42.5756,
      "duration": 0.1134,
      "velocity": 127,
      "chip": "ym2612"
    },
    {
      "channel": 5,
      "note": 75,
      "start": 42.6735,
      "duration": 0.1142,
      "velocity": 122,
      "chip": "ym2612"
    },
    {
      "channel": 4,
      "note": 68,
      "start": 42.6753,
      "duration": 0.1066,
      "velocity": 122,
      "chip": "ym2612"
    },
    {
      "channel": 3,
      "note": 44,
      "start": 42.6771,
      "duration": 0.1058,
      "velocity": 113,
      "chip": "ym2612"
    },
    {
      "channel": 2,
      "note": 56,
      "start": 42.6789,
      "duration": 0.1051,
      "velocity": 83,
      "chip": "ym2612"
    },
    {
      "channel": 1,
      "note": 56,
      "start": 42.6807,
      "duration": 0.1044,
      "velocity": 89,
      "chip": "ym2612"
    },
    {
      "channel": 0,
      "note": 66,
      "start": 42.6895,
      "duration": 0.1046,
      "velocity": 127,
      "chip": "ym2612"
    },
    {
      "channel": 0,
      "note": 66,
      "start": 42.7946,
      "duration": 0.1134,
      "velocity": 127,
      "chip": "ym2612"
    },
    {
      "channel": 5,
      "note": 74,
      "start": 42.8926,
      "duration": 0.2343,
      "velocity": 122,
      "chip": "ym2612"
    },
    {
      "channel": 4,
      "note": 67,
      "start": 42.8944,
      "duration": 0.2432,
      "velocity": 122,
      "chip": "ym2612"
    },
    {
      "channel": 3,
      "note": 43,
      "start": 42.8962,
      "duration": 0.2252,
      "velocity": 113,
      "chip": "ym2612"
    },
    {
      "channel": 2,
      "note": 55,
      "start": 42.898,
      "duration": 0.2331,
      "velocity": 83,
      "chip": "ym2612"
    },
    {
      "channel": 1,
      "note": 55,
      "start": 42.8997,
      "duration": 0.2332,
      "velocity": 89,
      "chip": "ym2612"
    },
    {
      "channel": 0,
      "note": 66,
      "start": 42.9085,
      "duration": 0.0956,
      "velocity": 127,
      "chip": "ym2612"
    },
    {
      "channel": 0,
      "note": 66,
      "start": 43.0046,
      "duration": 0.1368,
      "velocity": 127,
      "chip": "ym2612"
    },
    {
      "channel": 2,
      "note": 54,
      "start": 43.1315,
      "duration": 0.1935,
      "velocity": 83,
      "chip": "ym2612"
    },
    {
      "channel": 1,
      "note": 54,
      "start": 43.1334,
      "duration": 0.1879,
      "velocity": 89,
      "chip": "ym2612"
    },
    {
      "channel": 0,
      "note": 66,
      "start": 43.1534,
      "duration": 0.2712,
      "velocity": 127,
      "chip": "ym2612"
    },
    {
      "channel": 1,
      "note": 54,
      "start": 43.3218,
      "duration": 0.1028,
      "velocity": 89,
      "chip": "ym2612"
    },
    {
      "channel": 2,
      "note": 54,
      "start": 43.3256,
      "duration": 0.099,
      "velocity": 83,
      "chip": "ym2612"
    }
  ]
}