{
  "track_name": "09 - Under the Stars",
  "duration_sec": 117.747,
  "sample_rate": 44100,
  "note_count": 1796,
  "unique_pitches": 53,
  "pitch_range": 69,
  "avg_note_duration": 0.3932,
  "reconstruction_stats": {
    "notes_reconstructed": 1796,
    "keyon_events": 1796,
    "keyoff_events": 1780,
    "orphan_keyons": 6,
    "unique_pitches": 53,
    "pitch_range": 69,
    "avg_duration_sec": 0.3932
  },
  "metadata": {
    "source": "T\\The Lion King\\09 - Under the Stars.vgm"
  },
  "notes": [
    {
      "channel": 0,
      "note": 52,
      "start": 0.0,
      "duration": 0.3373,
      "velocity": 112,
      "chip": "ym2612"
    },
    {
      "channel": 1,
      "note": 43,
      "start": 0.0,
      "duration": 0.0025,
      "velocity": 117,
      "chip": "ym2612"
    },
    {
      "channel": 2,
      "note": 43,
      "start": 0.0,
      "duration": 0.0051,
      "velocity": 109,
      "chip": "ym2612"
    },
    {
      "channel": 3,
      "note": 43,
      "start": 0.0,
      "duration": 0.0078,
      "velocity": 127,
      "chip": "ym2612"
    },
    {
      "channel": 4,
      "note": 43,
      "start": 0.0,
      "duration": 0.0102,
      "velocity": 109,
      "chip": "ym2612"
    },
    {
      "channel": 5,
      "note": 43,
      "start": 0.0,
      "duration": 0.1736,
      "velocity": 103,
      "chip": "ym2612"
    },
    {
      "channel": 1,
      "note": 88,
      "start": 0.0027,
      "duration": 0.3353,
      "velocity": 117,
      "chip": "ym2612"
    },
    {
      "channel": 2,
      "note": 71,
      "start": 0.0053,
      "duration": 1.6477,
      "velocity": 109,
      "chip": "ym2612"
    },
    {
      "channel": 3,
      "note": 33,
      "start": 0.008,
      "duration": 0.1629,
      "velocity": 127,
      "chip": "ym2612"
    },
    {
      "channel": 4,
      "note": 76,
      "start": 0.0104,
      "duration": 1.644,
      "velocity": 109,
      "chip": "ym2612"
    },
    {
      "channel": 3,
      "note": 69,
      "start": 0.171,
      "duration": 0.1678,
      "velocity": 127,
      "chip": "ym2612"
    },
    {
      "channel": 5,
      "note": 83,
      "start": 0.1738,
      "duration": 1.1108,
      "velocity": 103,
      "chip": "ym2612"
    },
    {
      "channel": 0,
      "note": 52,
      "start": 0.3375,
      "duration": 0.3556,
      "velocity": 112,
      "chip": "ym2612"
    },
    {
      "channel": 1,
      "note": 83,
      "start": 0.3382,
      "duration": 0.3556,
      "velocity": 117,
      "chip": "ym2612"
    },
    {
      "channel": 3,
      "note": 74,
      "start": 0.339,
      "duration": 0.0377,
      "velocity": 127,
      "chip": "ym2612"
    },
    {
      "channel": 3,
      "note": 69,
      "start": 0.3768,
      "duration": 0.3178,
      "velocity": 127,
      "chip": "ym2612"
    },
    {
      "channel": 0,
      "note": 59,
      "start": 0.6934,
      "duration": 0.2121,
      "velocity": 112,
      "chip": "ym2612"
    },
    {
      "channel": 1,
      "note": 85,
      "start": 0.6941,
      "duration": 0.2121,
      "velocity": 117,
      "chip": "ym2612"
    },
    {
      "channel": 3,
      "note": 33,
      "start": 0.6948,
      "duration": 0.2122,
      "velocity": 127,
      "chip": "ym2612"
    },
    {
      "channel": 0,
      "note": 52,
      "start": 0.9056,
      "duration": 0.3221,
      "velocity": 112,
      "chip": "ym2612"
    },
    {
      "channel": 1,
      "note": 83,
      "start": 0.9063,
      "duration": 0.3221,
      "velocity": 117,
      "chip": "ym2612"
    },
    {
      "channel": 3,
      "note": 69,
      "start": 0.9071,
      "duration": 0.1485,
      "velocity": 127,
      "chip": "ym2612"
    },
    {
      "channel": 3,
      "note": 76,
      "start": 1.0559,
      "duration": 0.0221,
      "velocity": 127,
      "chip": "ym2612"
    },
    {
      "channel": 3,
      "note": 69,
      "start": 1.0782,
      "duration": 0.2056,
      "velocity": 127,
      "chip": "ym2612"
    },
    {
      "channel": 0,
      "note": 47,
      "start": 1.2279,
      "duration": 0.2513,
      "velocity": 112,
      "chip": "ym2612"
    },
    {
      "channel": 1,
      "note": 81,
      "start": 1.2286,
      "duration": 0.2513,
      "velocity": 117,
      "chip": "ym2612"
    },
    {
      "channel": 3,
      "note": 33,
      "start": 1.284,
      "duration": 0.1967,
      "velocity": 127,
      "chip": "ym2612"
    },
    {
      "channel": 5,
      "note": 73,
      "start": 1.2849,
      "duration": 0.5566,
      "velocity": 103,
      "chip": "ym2612"
    },
    {
      "channel": 0,
      "note": 52,
      "start": 1.4794,
      "duration": 0.1722,
      "velocity": 112,
      "chip": "ym2612"
    },
    {
      "channel": 1,
      "note": 80,
      "start": 1.4801,
      "duration": 0.1722,
      "velocity": 117,
      "chip": "ym2612"
    },
    {
      "channel": 3,
      "note": 79,
      "start": 1.4809,
      "duration": 0.1728,
      "velocity": 127,
      "chip": "ym2612"
    },
    {
      "channel": 0,
      "note": 49,
      "start": 1.6518,
      "duration": 0.3387,
      "velocity": 112,
      "chip": "ym2612"
    },
    {
      "channel": 1,
      "note": 88,
      "start": 1.6525,
      "duration": 0.3388,
      "velocity": 117,
      "chip": "ym2612"
    },
    {
      "channel": 2,
      "note": 73,
      "start": 1.6532,
      "duration": 0.9069,
      "velocity": 109,
      "chip": "ym2612"
    },
    {
      "channel": 3,
      "note": 33,
      "start": 1.6539,
      "duration": 0.1868,
      "velocity": 127,
      "chip": "ym2612"
    },
    {
      "channel": 4,
      "note": 76,
      "start": 1.6546,
      "duration": 0.7107,
      "velocity": 109,
      "chip": "ym2612"
    },
    {
      "channel": 3,
      "note": 69,
      "start": 1.8409,
      "duration": 0.1511,
      "velocity": 127,
      "chip": "ym2612"
    },
    {
      "channel": 5,
      "note": 83,
      "start": 1.8418,
      "duration": 1.1133,
      "velocity": 103,
      "chip": "ym2612"
    },
    {
      "channel": 0,
      "note": 56,
      "start": 1.9907,
      "duration": 0.3723,
      "velocity": 112,
      "chip": "ym2612"
    },
    {
      "channel": 1,
      "note": 80,
      "start": 1.9915,
      "duration": 0.3723,
      "velocity": 117,
      "chip": "ym2612"
    },
    {
      "channel": 3,
      "note": 74,
      "start": 1.9922,
      "duration": 0.0543,
      "velocity": 127,
      "chip": "ym2612"
    },
    {
      "channel": 3,
      "note": 69,
      "start": 2.0467,
      "duration": 0.3179,
      "velocity": 127,
      "chip": "ym2612"
    },
    {
      "channel": 0,
      "note": 57,
      "start": 2.3633,
      "duration": 0.1954,
      "velocity": 112,
      "chip": "ym2612"
    },
    {
      "channel": 1,
      "note": 85,
      "start": 2.364,
      "duration": 0.1954,
      "velocity": 117,
      "chip": "ym2612"
    },
    {
      "channel": 3,
      "note": 33,
      "start": 2.3648,
      "duration": 0.196,
      "velocity": 127,
      "chip": "ym2612"
    },
    {
      "channel": 4,
      "note": 81,
      "start": 2.3655,
      "duration": 0.196,
      "velocity": 109,
      "chip": "ym2612"
    },
    {
      "channel": 0,
      "note": 52,
      "start": 2.5589,
      "duration": 0.3387,
      "velocity": 112,
      "chip": "ym2612"
    },
    {
      "channel": 1,
      "note": 83,
      "start": 2.5596,
      "duration": 0.3386,
      "velocity": 117,
      "chip": "ym2612"
    },
    {
      "channel": 2,
      "note": 71,
      "start": 2.5603,
      "duration": 0.7963,
      "velocity": 109,
      "chip": "ym2612"
    },
    {
      "channel": 3,
      "note": 69,
      "start": 2.561,
      "duration": 0.1645,
      "velocity": 127,
      "chip": "ym2612"
    },
    {
      "channel": 4,
      "note": 80,
      "start": 2.5617,
      "duration": 0.7964,
      "velocity": 109,
      "chip": "ym2612"
    },
    {
      "channel": 3,
      "note": 74,
      "start": 2.7257,
      "duration": 0.0053,
      "velocity": 127,
      "chip": "ym2612"
    },
    {
      "channel": 3,
      "note": 69,
      "start": 2.7313,
      "duration": 0.2229,
      "velocity": 127,
      "chip": "ym2612"
    },
    {
      "channel": 0,
      "note": 47,
      "start": 2.8977,
      "duration": 0.2615,
      "velocity": 112,
      "chip": "ym2612"
    },
    {
      "channel": 1,
      "note": 81,
      "start": 2.8984,
      "duration": 0.0551,
      "velocity": 117,
      "chip": "ym2612"
    },
    {
      "channel": 1,
      "note": 80,
      "start": 2.9537,
      "duration": 0.4021,
      "velocity": 117,
      "chip": "ym2612"
    },
    {
      "channel": 3,
      "note": 33,
      "start": 2.9544,
      "duration": 0.2057,
      "velocity": 127,
      "chip": "ym2612"
    },
    {
      "channel": 5,
      "note": 73,
      "start": 2.9553,
      "duration": 0.5729,
      "velocity": 103,
      "chip": "ym2612"
    },
    {
      "channel": 0,
      "note": 52,
      "start": 3.1594,
      "duration": 0.1956,
      "velocity": 112,
      "chip": "ym2612"
    },
    {
      "channel": 3,
      "note": 69,
      "start": 3.1603,
      "duration": 0.1971,
      "velocity": 127,
      "chip": "ym2612"
    },
    {
      "channel": 0,
      "note": 52,
      "start": 3.3552,
      "duration": 0.3386,
      "velocity": 112,
      "chip": "ym2612"
    },
    {
      "channel": 1,
      "note": 80,
      "start": 3.356,
      "duration": 0.3386,
      "velocity": 117,
      "chip": "ym2612"
    },
    {
      "channel": 2,
      "note": 80,
      "start": 3.3568,
      "duration": 0.9066,
      "velocity": 109,
      "chip": "ym2612"
    },
    {
      "channel": 3,
      "note": 33,
      "start": 3.3575,
      "duration": 0.1699,
      "velocity": 127,
      "chip": "ym2612"
    },
    {
      "channel": 4,
      "note": 76,
      "start": 3.3583,
      "duration": 0.9065,
      "velocity": 109,
      "chip": "ym2612"
    },
    {
      "channel": 3,
      "note": 69,
      "start": 3.5276,
      "duration": 0.1678,
      "velocity": 127,
      "chip": "ym2612"
    },
    {
      "channel": 5,
      "note": 83,
      "start": 3.5285,
      "duration": 1.1139,
      "velocity": 103,
      "chip": "ym2612"
    },
    {
      "channel": 0,
      "note": 52,
      "start": 3.6941,
      "duration": 0.3723,
      "velocity": 112,
      "chip": "ym2612"
    },
    {
      "channel": 1,
      "note": 80,
      "start": 3.6948,
      "duration": 0.3723,
      "velocity": 117,
      "chip": "ym2612"
    },
    {
      "channel": 3,
      "note": 74,
      "start": 3.6955,
      "duration": 0.0377,
      "velocity": 127,
      "chip": "ym2612"
    },
    {
      "channel": 3,
      "note": 69,
      "start": 3.7334,
      "duration": 0.3345,
      "velocity": 127,
      "chip": "ym2612"
    },
    {
      "channel": 0,
      "note": 54,
      "start": 4.0666,
      "duration": 0.1954,
      "velocity": 112,
      "chip": "ym2612"
    },
    {
      "channel": 1,
      "note": 81,
      "start": 4.0673,
      "duration": 0.1954,
      "velocity": 117,
      "chip": "ym2612"
    },
    {
      "channel": 3,
      "note": 33,
      "start": 4.068,
      "duration": 0.1961,
      "velocity": 127,
      "chip": "ym2612"
    },
    {
      "channel": 0,
      "note": 56,
      "start": 4.2622,
      "duration": 0.3387,
      "velocity": 112,
      "chip": "ym2612"
    },
    {
      "channel": 1,
      "note": 83,
      "start": 4.2629,
      "duration": 0.3387,
      "velocity": 117,
      "chip": "ym2612"
    },
    {
      "channel": 2,
      "note": 76,
      "start": 4.2636,
      "duration": 0.7626,
      "velocity": 109,
      "chip": "ym2612"
    },
    {
      "channel": 3,
      "note": 69,
      "start": 4.2643,
      "duration": 0.1478,
      "velocity": 127,
      "chip": "ym2612"
    },
    {
      "channel": 4,
      "note": 71,
      "start": 4.265,
      "duration": 0.7625,
      "velocity": 109,
      "chip": "ym2612"
    },
    {
      "channel": 3,
      "note": 76,
      "start": 4.4124,
      "duration": 0.0221,
      "velocity": 127,
      "chip": "ym2612"
    },
    {
      "channel": 3,
      "note": 69,
      "start": 4.4347,
      "duration": 0.2069,
      "velocity": 127,
      "chip": "ym2612"
    },
    {
      "channel": 0,
      "note": 54,
      "start": 4.6011,
      "duration": 0.039,
      "velocity": 112,
      "chip": "ym2612"
    },
    {
      "channel": 1,
      "note": 81,
      "start": 4.6018,
      "duration": 0.039,
      "velocity": 117,
      "chip": "ym2612"
    },
    {
      "channel": 0,
      "note": 52,
      "start": 4.6403,
      "duration": 0.1954,
      "velocity": 112,
      "chip": "ym2612"
    },
    {
      "channel": 1,
      "note": 80,
      "start": 4.641,
      "duration": 0.1954,
      "velocity": 117,
      "chip": "ym2612"
    },
    {
      "channel": 3,
      "note": 33,
      "start": 4.6418,
      "duration": 0.1954,
      "velocity": 127,
      "chip": "ym2612"
    },
    {
      "channel": 5,
      "note": 73,
      "start": 4.6426,
      "duration": 0.5553,
      "velocity": 103,
      "chip": "ym2612"
    },
    {
      "channel": 0,
      "note": 56,
      "start": 4.8359,
      "duration": 0.1888,
      "velocity": 112,
      "chip": "ym2612"
    },
    {
      "channel": 1,
      "note": 83,
      "start": 4.8366,
      "duration": 0.1888,
      "velocity": 117,
      "chip": "ym2612"
    },
    {
      "channel": 3,
      "note": 79,
      "start": 4.8374,
      "duration": 0.1895,
      "velocity": 127,
      "chip": "ym2612"
    },
    {
      "channel": 0,
      "note": 59,
      "start": 5.025,
      "duration": 0.3219,
      "velocity": 112,
      "chip": "ym2612"
    },
    {
      "channel": 1,
      "note": 78,
      "start": 5.0256,
      "duration": 1.2304,
      "velocity": 1,
      "chip": "ym2612"
    },
    {
      "channel": 2,
      "note": 76,
      "start": 5.0263,
      "duration": 0.8912,
      "velocity": 109,
      "chip": "ym2612"
    },
    {
      "channel": 3,
      "note": 33,
      "start": 5.0271,
      "duration": 0.1701,
      "velocity": 127,
      "chip": "ym2612"
    },
    {
      "channel": 4,
      "note": 71,
      "start": 5.0278,
      "duration": 1.6881,
      "velocity": 109,
      "chip": "ym2612"
    },
    {
      "channel": 3,
      "note": 69,
      "start": 5.1973,
      "duration": 0.1505,
      "velocity": 127,
      "chip": "ym2612"
    },
    {
      "channel": 5,
      "note": 83,
      "start": 5.1982,
      "duration": 1.1121,
      "velocity": 103,
      "chip": "ym2612"
    },
    {
      "channel": 0,
      "note": 59,
      "start": 5.3471,
      "duration": 0.2222,
      "velocity": 112,
      "chip": "ym2612"
    },
    {
      "channel": 3,
      "note": 74,
      "start": 5.348,
      "duration": 0.0549,
      "velocity": 127,
      "chip": "ym2612"
    },
    {
      "channel": 3,
      "note": 69,
      "start": 5.4031,
      "duration": 0.3172,
      "velocity": 127,
      "chip": "ym2612"
    },
    {
      "channel": 0,
      "note": 54,
      "start": 5.5695,
      "duration": 0.1499,
      "velocity": 112,
      "chip": "ym2612"
    },
    {
      "channel": 0,
      "note": 59,
      "start": 5.7196,
      "duration": 0.0458,
      "velocity": 112,
      "chip": "ym2612"
    },
    {
      "channel": 3,
      "note": 33,
      "start": 5.7205,
      "duration": 0.1978,
      "velocity": 127,
      "chip": "ym2612"
    },
    {
      "channel": 0,
      "note": 60,
      "start": 5.7654,
      "duration": 0.0156,
      "velocity": 112,
      "chip": "ym2612"
    },
    {
      "channel": 0,
      "note": 61,
      "start": 5.781,
      "duration": 0.1338,
      "velocity": 112,
      "chip": "ym2612"
    },
    {
      "channel": 0,
      "note": 61,
      "start": 5.915,
      "duration": 0.0041,
      "velocity": 112,
      "chip": "ym2612"
    },
    {
      "channel": 2,
      "note": 75,
      "start": 5.9178,
      "duration": 0.7965,
      "velocity": 109,
      "chip": "ym2612"
    },
    {
      "channel": 3,
      "note": 69,
      "start": 5.9185,
      "duration": 0.1632,
      "velocity": 127,
      "chip": "ym2612"
    },
    {
      "channel": 0,
      "note": 59,
      "start": 5.9191,
      "duration": 0.3343,
      "velocity": 112,
      "chip": "ym2612"
    },
    {
      "channel": 3,
      "note": 74,
      "start": 6.0818,
      "duration": 0.0218,
      "velocity": 127,
      "chip": "ym2612"
    },
    {
      "channel": 3,
      "note": 69,
      "start": 6.1039,
      "duration": 0.2056,
      "velocity": 127,
      "chip": "ym2612"
    },
    {
      "channel": 0,
      "note": 54,
      "start": 6.2536,
      "duration": 0.2616,
      "velocity": 112,
      "chip": "ym2612"
    },
    {
      "channel": 1,
      "note": 79,
      "start": 6.2563,
      "duration": 0.2615,
      "velocity": 117,
      "chip": "ym2612"
    },
    {
      "channel": 3,
      "note": 33,
      "start": 6.3097,
      "duration": 0.2089,
      "velocity": 127,
      "chip": "ym2612"
    },
    {
      "channel": 5,
      "note": 73,
      "start": 6.3105,
      "duration": 0.5735,
      "velocity": 103,
      "chip": "ym2612"
    },
    {
      "channel": 0,
      "note": 47,
      "start": 6.5154,
      "duration": 0.1955,
      "velocity": 112,
      "chip": "ym2612"
    },
    {
      "channel": 1,
      "note": 78,
      "start": 6.518,
      "duration": 0.1955,
      "velocity": 117,
      "chip": "ym2612"
    },
    {
      "channel": 3,
      "note": 69,
      "start": 6.5188,
      "duration": 0.1963,
      "velocity": 127,
      "chip": "ym2612"
    },
    {
      "channel": 0,
      "note": 57,
      "start": 6.711,
      "duration": 0.3387,
      "velocity": 112,
      "chip": "ym2612"
    },
    {
      "channel": 1,
      "note": 78,
      "start": 6.7137,
      "duration": 0.3367,
      "velocity": 117,
      "chip": "ym2612"
    },
    {
      "channel": 2,
      "note": 73,
      "start": 6.7145,
      "duration": 1.6675,
      "velocity": 109,
      "chip": "ym2612"
    },
    {
      "channel": 3,
      "note": 33,
      "start": 6.7153,
      "duration": 0.168,
      "velocity": 127,
      "chip": "ym2612"
    },
    {
      "channel": 4,
      "note": 76,
      "start": 6.716,
      "duration": 1.6673,
      "velocity": 109,
      "chip": "ym2612"
    },
    {
      "channel": 3,
      "note": 69,
      "start": 6.8834,
      "duration": 0.1678,
      "velocity": 127,
      "chip": "ym2612"
    },
    {
      "channel": 5,
      "note": 83,
      "start": 6.8843,
      "duration": 1.1125,
      "velocity": 103,
      "chip": "ym2612"
    },
    {
      "channel": 0,
      "note": 52,
      "start": 7.0499,
      "duration": 0.3723,
      "velocity": 112,
      "chip": "ym2612"
    },
    {
      "channel": 1,
      "note": 80,
      "start": 7.0506,
      "duration": 0.3723,
      "velocity": 117,
      "chip": "ym2612"
    },
    {
      "channel": 3,
      "note": 74,
      "start": 7.0514,
      "duration": 0.0543,
      "velocity": 127,
      "chip": "ym2612"
    },
    {
      "channel": 3,
      "note": 69,
      "start": 7.1059,
      "duration": 0.3178,
      "velocity": 127,
      "chip": "ym2612"
    },
    {
      "channel": 0,
      "note": 57,
      "start": 7.4224,
      "duration": 0.1954,
      "velocity": 112,
      "chip": "ym2612"
    },
    {
      "channel": 1,
      "note": 78,
      "start": 7.4231,
      "duration": 0.1953,
      "velocity": 117,
      "chip": "ym2612"
    },
    {
      "channel": 3,
      "note": 33,
      "start": 7.4239,
      "duration": 0.1954,
      "velocity": 127,
      "chip": "ym2612"
    },
    {
      "channel": 0,
      "note": 49,
      "start": 7.618,
      "duration": 0.3387,
      "velocity": 112,
      "chip": "ym2612"
    },
    {
      "channel": 1,
      "note": 76,
      "start": 7.6187,
      "duration": 0.3387,
      "velocity": 117,
      "chip": "ym2612"
    },
    {
      "channel": 3,
      "note": 69,
      "start": 7.6195,
      "duration": 0.1652,
      "velocity": 127,
      "chip": "ym2612"
    },
    {
      "channel": 3,
      "note": 76,
      "start": 7.7849,
      "duration": 0.0053,
      "velocity": 127,
      "chip": "ym2612"
    },
    {
      "channel": 3,
      "note": 69,
      "start": 7.7905,
      "duration": 0.2056,
      "velocity": 127,
      "chip": "ym2612"
    },
    {
      "channel": 0,
      "note": 56,
      "start": 7.9569,
      "duration": 0.2513,
      "velocity": 112,
      "chip": "ym2612"
    },
    {
      "channel": 1,
      "note": 73,
      "start": 7.9576,
      "duration": 0.2513,
      "velocity": 117,
      "chip": "ym2612"
    },
    {
      "channel": 3,
      "note": 33,
      "start": 7.9963,
      "duration": 0.2134,
      "velocity": 127,
      "chip": "ym2612"
    },
    {
      "channel": 5,
      "note": 73,
      "start": 7.9971,
      "duration": 0.5566,
      "velocity": 103,
      "chip": "ym2612"
    },
    {
      "channel": 0,
      "note": 49,
      "start": 8.2084,
      "duration": 0.1722,
      "velocity": 112,
      "chip": "ym2612"
    },
    {
      "channel": 1,
      "note": 76,
      "start": 8.2091,
      "duration": 0.0047,
      "velocity": 117,
      "chip": "ym2612"
    },
    {
      "channel": 3,
      "note": 79,
      "start": 8.2098,
      "duration": 0.1728,
      "velocity": 127,
      "chip": "ym2612"
    },
    {
      "channel": 1,
      "note": 80,
      "start": 8.214,
      "duration": 0.1672,
      "velocity": 117,
      "chip": "ym2612"
    },
    {
      "channel": 0,
      "note": 57,
      "start": 8.3807,
      "duration": 0.3777,
      "velocity": 112,
      "chip": "ym2612"
    },
    {
      "channel": 1,
      "note": 85,
      "start": 8.3814,
      "duration": 0.338,
      "velocity": 117,
      "chip": "ym2612"
    },
    {
      "channel": 2,
      "note": 76,
      "start": 8.3821,
      "duration": 0.9069,
      "velocity": 109,
      "chip": "ym2612"
    },
    {
      "channel": 3,
      "note": 33,
      "start": 8.3828,
      "duration": 0.1701,
      "velocity": 127,
      "chip": "ym2612"
    },
    {
      "channel": 4,
      "note": 81,
      "start": 8.3835,
      "duration": 0.9069,
      "velocity": 109,
      "chip": "ym2612"
    },
    {
      "channel": 3,
      "note": 69,
      "start": 8.5531,
      "duration": 0.1671,
      "velocity": 127,
      "chip": "ym2612"
    },
    {
      "channel": 5,
      "note": 83,
      "start": 8.554,
      "duration": 1.1141,
      "velocity": 103,
      "chip": "ym2612"
    },
    {
      "channel": 1,
      "note": 83,
      "start": 8.7197,
      "duration": 0.3563,
      "velocity": 117,
      "chip": "ym2612"
    },
    {
      "channel": 3,
      "note": 74,
      "start": 8.7204,
      "duration": 0.0389,
      "velocity": 127,
      "chip": "ym2612"
    },
    {
      "channel": 0,
      "note": 59,
      "start": 8.7587,
      "duration": 0.3165,
      "velocity": 112,
      "chip": "ym2612"
    },
    {
      "channel": 3,
      "note": 69,
      "start": 8.7596,
      "duration": 0.3171,
      "velocity": 127,
      "chip": "ym2612"
    },
    {
      "channel": 0,
      "note": 49,
      "start": 9.0755,
      "duration": 0.2121,
      "velocity": 112,
      "chip": "ym2612"
    },
    {
      "channel": 1,
      "note": 81,
      "start": 9.0762,
      "duration": 0.2121,
      "velocity": 117,
      "chip": "ym2612"
    },
    {
      "channel": 3,
      "note": 33,
      "start": 9.0769,
      "duration": 0.2128,
      "velocity": 127,
      "chip": "ym2612"
    },
    {
      "channel": 0,
      "note": 52,
      "start": 9.2879,
      "duration": 0.322,
      "velocity": 112,
      "chip": "ym2612"
    },
    {
      "channel": 1,
      "note": 83,
      "start": 9.2885,
      "duration": 0.1714,
      "velocity": 117,
      "chip": "ym2612"
    },
    {
      "channel": 2,
      "note": 76,
      "start": 9.2893,
      "duration": 0.7796,
      "velocity": 109,
      "chip": "ym2612"
    },
    {
      "channel": 3,
      "note": 69,
      "start": 9.29,
      "duration": 0.1478,
      "velocity": 127,
      "chip": "ym2612"
    },
    {
      "channel": 4,
      "note": 80,
      "start": 9.2907,
      "duration": 0.7798,
      "velocity": 109,
      "chip": "ym2612"
    },
    {
      "channel": 3,
      "note": 74,
      "start": 9.438,
      "duration": 0.0227,
      "velocity": 127,
      "chip": "ym2612"
    },
    {
      "channel": 1,
      "note": 88,
      "start": 9.4601,
      "duration": 0.1504,
      "velocity": 117,
      "chip": "ym2612"
    },
    {
      "channel": 3,
      "note": 69,
      "start": 9.4609,
      "duration": 0.2063,
      "velocity": 127,
      "chip": "ym2612"
    },
    {
      "channel": 0,
      "note": 52,
      "start": 9.61,
      "duration": 0.0557,
      "velocity": 112,
      "chip": "ym2612"
    },
    {
      "channel": 1,
      "note": 87,
      "start": 9.6107,
      "duration": 0.0557,
      "velocity": 117,
      "chip": "ym2612"
    },
    {
      "channel": 0,
      "note": 56,
      "start": 9.6659,
      "duration": 0.2056,
      "velocity": 112,
      "chip": "ym2612"
    },
    {
      "channel": 1,
      "note": 88,
      "start": 9.6666,
      "duration": 0.4015,
      "velocity": 117,
      "chip": "ym2612"
    },
    {
      "channel": 3,
      "note": 33,
      "start": 9.6674,
      "duration": 0.205,
      "velocity": 127,
      "chip": "ym2612"
    },
    {
      "channel": 5,
      "note": 73,
      "start": 9.6682,
      "duration": 0.589,
      "velocity": 103,
      "chip": "ym2612"
    },
    {
      "channel": 0,
      "note": 59,
      "start": 9.8717,
      "duration": 0.1956,
      "velocity": 112,
      "chip": "ym2612"
    },
    {
      "channel": 3,
      "note": 69,
      "start": 9.8726,
      "duration": 0.1971,
      "velocity": 127,
      "chip": "ym2612"
    },
    {
      "channel": 0,
      "note": 52,
      "start": 10.0676,
      "duration": 0.3386,
      "velocity": 112,
      "chip": "ym2612"
    },
    {
      "channel": 1,
      "note": 80,
      "start": 10.0683,
      "duration": 0.7111,
      "velocity": 117,
      "chip": "ym2612"
    },
    {
      "channel": 2,
      "note": 76,
      "start": 10.0691,
      "duration": 0.9066,
      "velocity": 109,
      "chip": "ym2612"
    },
    {
      "channel": 3,
      "note": 33,
      "start": 10.0698,
      "duration": 0.1866,
      "velocity": 127,
      "chip": "ym2612"
    },
    {
      "channel": 4,
      "note": 71,
      "start": 10.0707,
      "duration": 0.9064,
      "velocity": 109,
      "chip": "ym2612"
    },
    {
      "channel": 3,
      "note": 69,
      "start": 10.2566,
      "duration": 0.1505,
      "velocity": 127,
      "chip": "ym2612"
    },
    {
      "channel": 5,
      "note": 83,
      "start": 10.2575,
      "duration": 1.1125,
      "velocity": 103,
      "chip": "ym2612"
    },
    {
      "channel": 0,
      "note": 52,
      "start": 10.4063,
      "duration": 0.3724,
      "velocity": 112,
      "chip": "ym2612"
    },
    {
      "channel": 3,
      "note": 74,
      "start": 10.4072,
      "duration": 0.0549,
      "velocity": 127,
      "chip": "ym2612"
    },
    {
      "channel": 3,
      "note": 69,
      "start": 10.4624,
      "duration": 0.3178,
      "velocity": 127,
      "chip": "ym2612"
    },
    {
      "channel": 0,
      "note": 54,
      "start": 10.7789,
      "duration": 0.1954,
      "velocity": 112,
      "chip": "ym2612"
    },
    {
      "channel": 1,
      "note": 81,
      "start": 10.7796,
      "duration": 0.1954,
      "velocity": 117,
      "chip": "ym2612"
    },
    {
      "channel": 3,
      "note": 33,
      "start": 10.7803,
      "duration": 0.1961,
      "velocity": 127,
      "chip": "ym2612"
    },
    {
      "channel": 0,
      "note": 56,
      "start": 10.9745,
      "duration": 0.3387,
      "velocity": 112,
      "chip": "ym2612"
    },
    {
      "channel": 1,
      "note": 83,
      "start": 10.9752,
      "duration": 0.5902,
      "velocity": 117,
      "chip": "ym2612"
    },
    {
      "channel": 2,
      "note": 71,
      "start": 10.9759,
      "duration": 0.7625,
      "velocity": 109,
      "chip": "ym2612"
    },
    {
      "channel": 3,
      "note": 69,
      "start": 10.9766,
      "duration": 0.1645,
      "velocity": 127,
      "chip": "ym2612"
    },
    {
      "channel": 4,
      "note": 68,
      "start": 10.9773,
      "duration": 0.7624,
      "velocity": 109,
      "chip": "ym2612"
    },
    {
      "channel": 3,
      "note": 76,
      "start": 11.1413,
      "duration": 0.0053,
      "velocity": 127,
      "chip": "ym2612"
    },
    {
      "channel": 3,
      "note": 69,
      "start": 11.1469,
      "duration": 0.2223,
      "velocity": 127,
      "chip": "ym2612"
    },
    {
      "channel": 0,
      "note": 47,
      "start": 11.3133,
      "duration": 0.2513,
      "velocity": 112,
      "chip": "ym2612"
    },
    {
      "channel": 3,
      "note": 33,
      "start": 11.3694,
      "duration": 0.1967,
      "velocity": 127,
      "chip": "ym2612"
    },
    {
      "channel": 5,
      "note": 73,
      "start": 11.3703,
      "duration": 0.5398,
      "velocity": 103,
      "chip": "ym2612"
    },
    {
      "channel": 0,
      "note": 59,
      "start": 11.5649,
      "duration": 0.1721,
      "velocity": 112,
      "chip": "ym2612"
    },
    {
      "channel": 1,
      "note": 83,
      "start": 11.5656,
      "duration": 0.1721,
      "velocity": 117,
      "chip": "ym2612"
    },
    {
      "channel": 3,
      "note": 79,
      "start": 11.5663,
      "duration": 0.1728,
      "velocity": 127,
      "chip": "ym2612"
    },
    {
      "channel": 0,
      "note": 54,
      "start": 11.7372,
      "duration": 0.3778,
      "velocity": 112,
      "chip": "ym2612"
    },
    {
      "channel": 1,
      "note": 81,
      "start": 11.7378,
      "duration": 0.3779,
      "velocity": 117,
      "chip": "ym2612"
    },
    {
      "channel": 2,
      "note": 78,
      "start": 11.7385,
      "duration": 0.3779,
      "velocity": 109,
      "chip": "ym2612"
    },
    {
      "channel": 3,
      "note": 33,
      "start": 11.7393,
      "duration": 0.1701,
      "velocity": 127,
      "chip": "ym2612"
    },
    {
      "channel": 4,
      "note": 71,
      "start": 11.74,
      "duration": 1.7035,
      "velocity": 109,
      "chip": "ym2612"
    },
    {
      "channel": 3,
      "note": 69,
      "start": 11.9095,
      "duration": 0.1665,
      "velocity": 127,
      "chip": "ym2612"
    },
    {
      "channel": 5,
      "note": 83,
      "start": 11.9104,
      "duration": 1.1133,
      "velocity": 103,
      "chip": "ym2612"
    },
    {
      "channel": 3,
      "note": 74,
      "start": 12.0762,
      "duration": 0.0409,
      "velocity": 127,
      "chip": "ym2612"
    },
    {
      "channel": 0,
      "note": 52,
      "start": 12.1152,
      "duration": 0.5287,
      "velocity": 112,
      "chip": "ym2612"
    },
    {
      "channel": 1,
      "note": 80,
      "start": 12.1159,
      "duration": 0.5287,
      "velocity": 117,
      "chip": "ym2612"
    },
    {
      "channel": 2,
      "note": 76,
      "start": 12.1166,
      "duration": 0.5287,
      "velocity": 109,
      "chip": "ym2612"
    },
    {
      "channel": 3,
      "note": 69,
      "start": 12.1173,
      "duration": 0.3312,
      "velocity": 127,
      "chip": "ym2612"
    },
    {
      "channel": 3,
      "note": 33,
      "start": 12.4487,
      "duration": 0.1973,
      "velocity": 127,
      "chip": "ym2612"
    },
    {
      "channel": 0,
      "note": 47,
      "start": 12.6441,
      "duration": 0.3387,
      "velocity": 112,
      "chip": "ym2612"
    },
    {
      "channel": 1,
      "note": 78,
      "start": 12.6449,
      "duration": 0.5838,
      "velocity": 117,
      "chip": "ym2612"
    },
    {
      "channel": 2,
      "note": 75,
      "start": 12.6456,
      "duration": 0.7964,
      "velocity": 109,
      "chip": "ym2612"
    },
    {
      "channel": 3,
      "note": 69,
      "start": 12.6462,
      "duration": 0.1479,
      "velocity": 127,
      "chip": "ym2612"
    },
    {
      "channel": 3,
      "note": 74,
      "start": 12.7943,
      "duration": 0.0221,
      "velocity": 127,
      "chip": "ym2612"
    },
    {
      "channel": 3,
      "note": 69,
      "start": 12.8166,
      "duration": 0.2063,
      "velocity": 127,
      "chip": "ym2612"
    },
    {
      "channel": 0,
      "note": 47,
      "start": 12.9831,
      "duration": 0.039,
      "velocity": 112,
      "chip": "ym2612"
    },
    {
      "channel": 0,
      "note": 59,
      "start": 13.0222,
      "duration": 0.2057,
      "velocity": 112,
      "chip": "ym2612"
    },
    {
      "channel": 3,
      "note": 33,
      "start": 13.0231,
      "duration": 0.2063,
      "velocity": 127,
      "chip": "ym2612"
    },
    {
      "channel": 5,
      "note": 73,
      "start": 13.024,
      "duration": 0.5896,
      "velocity": 103,
      "chip": "ym2612"
    },
    {
      "channel": 0,
      "note": 47,
      "start": 13.2282,
      "duration": 0.2123,
      "velocity": 112,
      "chip": "ym2612"
    },
    {
      "channel": 1,
      "note": 71,
      "start": 13.2289,
      "duration": 0.2123,
      "velocity": 117,
      "chip": "ym2612"
    },
    {
      "channel": 3,
      "note": 69,
      "start": 13.2297,
      "duration": 0.213,
      "velocity": 127,
      "chip": "ym2612"
    },
    {
      "channel": 0,
      "note": 47,
      "start": 13.4406,
      "duration": 0.3219,
      "velocity": 112,
      "chip": "ym2612"
    },
    {
      "channel": 1,
      "note": 78,
      "start": 13.4414,
      "duration": 0.6944,
      "velocity": 117,
      "chip": "ym2612"
    },
    {
      "channel": 2,
      "note": 75,
      "start": 13.4422,
      "duration": 1.6529,
      "velocity": 109,
      "chip": "ym2612"
    },
    {
      "channel": 3,
      "note": 33,
      "start": 13.4429,
      "duration": 0.1699,
      "velocity": 127,
      "chip": "ym2612"
    },
    {
      "channel": 4,
      "note": 78,
      "start": 13.4437,
      "duration": 1.6529,
      "velocity": 109,
      "chip": "ym2612"
    },
    {
      "channel": 3,
      "note": 69,
      "start": 13.613,
      "duration": 0.1505,
      "velocity": 127,
      "chip": "ym2612"
    },
    {
      "channel": 5,
      "note": 83,
      "start": 13.6139,
      "duration": 1.1132,
      "velocity": 103,
      "chip": "ym2612"
    },
    {
      "channel": 0,
      "note": 47,
      "start": 13.7627,
      "duration": 0.0576,
      "velocity": 1,
      "chip": "ym2612"
    },
    {
      "channel": 3,
      "note": 74,
      "start": 13.7636,
      "duration": 0.0576,
      "velocity": 127,
      "chip": "ym2612"
    },
    {
      "channel": 0,
      "note": 55,
      "start": 13.8205,
      "duration": 0.1664,
      "velocity": 112,
      "chip": "ym2612"
    },
    {
      "channel": 3,
      "note": 69,
      "start": 13.8213,
      "duration": 0.3152,
      "velocity": 127,
      "chip": "ym2612"
    },
    {
      "channel": 0,
      "note": 47,
      "start": 13.9871,
      "duration": 0.148,
      "velocity": 112,
      "chip": "ym2612"
    },
    {
      "channel": 0,
      "note": 54,
      "start": 14.1353,
      "duration": 0.1954,
      "velocity": 112,
      "chip": "ym2612"
    },
    {
      "channel": 1,
      "note": 83,
      "start": 14.136,
      "duration": 0.1953,
      "velocity": 117,
      "chip": "ym2612"
    },
    {
      "channel": 3,
      "note": 33,
      "start": 14.1367,
      "duration": 0.1954,
      "velocity": 127,
      "chip": "ym2612"
    },
    {
      "channel": 0,
      "note": 47,
      "start": 14.3308,
      "duration": 0.3387,
      "velocity": 112,
      "chip": "ym2612"
    },
    {
      "channel": 1,
      "note": 78,
      "start": 14.3315,
      "duration": 0.5903,
      "velocity": 117,
      "chip": "ym2612"
    },
    {
      "channel": 3,
      "note": 69,
      "start": 14.3323,
      "duration": 0.1652,
      "velocity": 127,
      "chip": "ym2612"
    },
    {
      "channel": 3,
      "note": 76,
      "start": 14.4977,
      "duration": 0.022,
      "velocity": 127,
      "chip": "ym2612"
    },
    {
      "channel": 3,
      "note": 69,
      "start": 14.5199,
      "duration": 0.2064,
      "velocity": 127,
      "chip": "ym2612"
    },
    {
      "channel": 0,
      "note": 47,
      "start": 14.6697,
      "duration": 0.0557,
      "velocity": 112,
      "chip": "ym2612"
    },
    {
      "channel": 0,
      "note": 59,
      "start": 14.7256,
      "duration": 0.1955,
      "velocity": 112,
      "chip": "ym2612"
    },
    {
      "channel": 3,
      "note": 33,
      "start": 14.7265,
      "duration": 0.1961,
      "velocity": 127,
      "chip": "ym2612"
    },
    {
      "channel": 5,
      "note": 73,
      "start": 14.7273,
      "duration": 0.5395,
      "velocity": 103,
      "chip": "ym2612"
    },
    {
      "channel": 0,
      "note": 54,
      "start": 14.9213,
      "duration": 0.1722,
      "velocity": 112,
      "chip": "ym2612"
    },
    {
      "channel": 1,
      "note": 90,
      "start": 14.922,
      "duration": 0.1723,
      "velocity": 117,
      "chip": "ym2612"
    },
    {
      "channel": 3,
      "note": 79,
      "start": 14.9228,
      "duration": 0.1731,
      "velocity": 127,
      "chip": "ym2612"
    },
    {
      "channel": 0,
      "note": 59,
      "start": 15.0937,
      "duration": 0.3945,
      "velocity": 112,
      "chip": "ym2612"
    },
    {
      "channel": 1,
      "note": 99,
      "start": 15.0945,
      "duration": 0.7105,
      "velocity": 117,
      "chip": "ym2612"
    },
    {
      "channel": 2,
      "note": 78,
      "start": 15.0953,
      "duration": 0.9067,
      "velocity": 109,
      "chip": "ym2612"
    },
    {
      "channel": 3,
      "note": 33,
      "start": 15.096,
      "duration": 0.17,
      "velocity": 127,
      "chip": "ym2612"
    },
    {
      "channel": 4,
      "note": 75,
      "start": 15.0969,
      "duration": 0.9066,
      "velocity": 109,
      "chip": "ym2612"
    },
    {
      "channel": 3,
      "note": 69,
      "start": 15.2662,
      "duration": 0.1665,
      "velocity": 127,
      "chip": "ym2612"
    },
    {
      "channel": 5,
      "note": 83,
      "start": 15.2671,
      "duration": 1.1126,
      "velocity": 103,
      "chip": "ym2612"
    },
    {
      "channel": 3,
      "note": 74,
      "start": 15.4328,
      "duration": 0.0562,
      "velocity": 127,
      "chip": "ym2612"
    },
    {
      "channel": 0,
      "note": 58,
      "start": 15.4884,
      "duration": 0.5122,
      "velocity": 112,
      "chip": "ym2612"
    },
    {
      "channel": 3,
      "note": 69,
      "start": 15.4893,
      "duration": 0.3165,
      "velocity": 127,
      "chip": "ym2612"
    },
    {
      "channel": 1,
      "note": 100,
      "start": 15.8052,
      "duration": 0.1961,
      "velocity": 117,
      "chip": "ym2612"
    },
    {
      "channel": 3,
      "note": 33,
      "start": 15.806,
      "duration": 0.1967,
      "velocity": 127,
      "chip": "ym2612"
    },
    {
      "channel": 0,
      "note": 56,
      "start": 16.0008,
      "duration": 0.5902,
      "velocity": 112,
      "chip": "ym2612"
    },
    {
      "channel": 1,
      "note": 99,
      "start": 16.0015,
      "duration": 0.338,
      "velocity": 117,
      "chip": "ym2612"
    },
    {
      "channel": 2,
      "note": 78,
      "start": 16.0022,
      "duration": 0.7625,
      "velocity": 109,
      "chip": "ym2612"
    },
    {
      "channel": 3,
      "note": 69,
      "start": 16.003,
      "duration": 0.1645,
      "velocity": 127,
      "chip": "ym2612"
    },
    {
      "channel": 4,
      "note": 83,
      "start": 16.0037,
      "duration": 0.7624,
      "velocity": 109,
      "chip": "ym2612"
    },
    {
      "channel": 3,
      "note": 76,
      "start": 16.1677,
      "duration": 0.0053,
      "velocity": 127,
      "chip": "ym2612"
    },
    {
      "channel": 3,
      "note": 69,
      "start": 16.1732,
      "duration": 0.2057,
      "velocity": 127,
      "chip": "ym2612"
    },
    {
      "channel": 1,
      "note": 97,
      "start": 16.3397,
      "duration": 0.252,
      "velocity": 117,
      "chip": "ym2612"
    },
    {
      "channel": 3,
      "note": 33,
      "start": 16.3791,
      "duration": 0.2134,
      "velocity": 127,
      "chip": "ym2612"
    },
    {
      "channel": 5,
      "note": 73,
      "start": 16.38,
      "duration": 0.5565,
      "velocity": 103,
      "chip": "ym2612"
    },
    {
      "channel": 0,
      "note": 51,
      "start": 16.5912,
      "duration": 0.1721,
      "velocity": 112,
      "chip": "ym2612"
    },
    {
      "channel": 1,
      "note": 95,
      "start": 16.5919,
      "duration": 0.1721,
      "velocity": 117,
      "chip": "ym2612"
    },
    {
      "channel": 3,
      "note": 79,
      "start": 16.5927,
      "duration": 0.1728,
      "velocity": 127,
      "chip": "ym2612"
    },
    {
      "channel": 0,
      "note": 52,
      "start": 16.7635,
      "duration": 0.3778,
      "velocity": 112,
      "chip": "ym2612"
    },
    {
      "channel": 1,
      "note": 100,
      "start": 16.7642,
      "duration": 0.6938,
      "velocity": 117,
      "chip": "ym2612"
    },
    {
      "channel": 2,
      "note": 83,
      "start": 16.7649,
      "duration": 0.9068,
      "velocity": 109,
      "chip": "ym2612"
    },
    {
      "channel": 3,
      "note": 33,
      "start": 16.7656,
      "duration": 0.1701,
      "velocity": 127,
      "chip": "ym2612"
    },
    {
      "channel": 4,
      "note": 76,
      "start": 16.7663,
      "duration": 0.9068,
      "velocity": 109,
      "chip": "ym2612"
    },
    {
      "channel": 3,
      "note": 69,
      "start": 16.9359,
      "duration": 0.1665,
      "velocity": 127,
      "chip": "ym2612"
    },
    {
      "channel": 5,
      "note": 83,
      "start": 16.9367,
      "duration": 1.1141,
      "velocity": 103,
      "chip": "ym2612"
    },
    {
      "channel": 3,
      "note": 74,
      "start": 17.1026,
      "duration": 0.0396,
      "velocity": 127,
      "chip": "ym2612"
    },
    {
      "channel": 0,
      "note": 49,
      "start": 17.1415,
      "duration": 0.5288,
      "velocity": 112,
      "chip": "ym2612"
    },
    {
      "channel": 3,
      "note": 69,
      "start": 17.1424,
      "duration": 0.3165,
      "velocity": 127,
      "chip": "ym2612"
    },
    {
      "channel": 1,
      "note": 102,
      "start": 17.4583,
      "duration": 0.2127,
      "velocity": 117,
      "chip": "ym2612"
    },
    {
      "channel": 3,
      "note": 33,
      "start": 17.459,
      "duration": 0.2134,
      "velocity": 127,
      "chip": "ym2612"
    },
    {
      "channel": 0,
      "note": 54,
      "start": 17.6706,
      "duration": 0.5838,
      "velocity": 112,
      "chip": "ym2612"
    },
    {
      "channel": 1,
      "note": 100,
      "start": 17.6713,
      "duration": 0.3214,
      "velocity": 117,
      "chip": "ym2612"
    },
    {
      "channel": 2,
      "note": 78,
      "start": 17.672,
      "duration": 0.3767,
      "velocity": 109,
      "chip": "ym2612"
    },
    {
      "channel": 3,
      "note": 69,
      "start": 17.6727,
      "duration": 0.1478,
      "velocity": 127,
      "chip": "ym2612"
    },
    {
      "channel": 4,
      "note": 82,
      "start": 17.6734,
      "duration": 0.3767,
      "velocity": 109,
      "chip": "ym2612"
    },
    {
      "channel": 3,
      "note": 74,
      "start": 17.8207,
      "duration": 0.0221,
      "velocity": 127,
      "chip": "ym2612"
    },
    {
      "channel": 3,
      "note": 69,
      "start": 17.843,
      "duration": 0.2064,
      "velocity": 127,
      "chip": "ym2612"
    },
    {
      "channel": 1,
      "note": 99,
      "start": 17.9929,
      "duration": 0.2622,
      "velocity": 117,
      "chip": "ym2612"
    },
    {
      "channel": 2,
      "note": 80,
      "start": 18.0489,
      "duration": 0.4027,
      "velocity": 109,
      "chip": "ym2612"
    },
    {
      "channel": 3,
      "note": 33,
      "start": 18.0496,
      "duration": 0.2062,
      "velocity": 127,
      "chip": "ym2612"
    },
    {
      "channel": 4,
      "note": 76,
      "start": 18.0503,
      "duration": 0.4029,
      "velocity": 109,
      "chip": "ym2612"
    },
    {
      "channel": 5,
      "note": 73,
      "start": 18.051,
      "duration": 0.5889,
      "velocity": 103,
      "chip": "ym2612"
    },
    {
      "channel": 0,
      "note": 52,
      "start": 18.2546,
      "duration": 0.1955,
      "velocity": 112,
      "chip": "ym2612"
    },
    {
      "channel": 1,
      "note": 97,
      "start": 18.2553,
      "duration": 0.1956,
      "velocity": 117,
      "chip": "ym2612"
    },
    {
      "channel": 3,
      "note": 69,
      "start": 18.256,
      "duration": 0.1964,
      "velocity": 127,
      "chip": "ym2612"
    },
    {
      "channel": 0,
      "note": 51,
      "start": 18.4503,
      "duration": 0.3944,
      "velocity": 112,
      "chip": "ym2612"
    },
    {
      "channel": 1,
      "note": 102,
      "start": 18.4511,
      "duration": 1.0783,
      "velocity": 117,
      "chip": "ym2612"
    },
    {
      "channel": 2,
      "note": 78,
      "start": 18.4518,
      "duration": 0.906,
      "velocity": 109,
      "chip": "ym2612"
    },
    {
      "channel": 3,
      "note": 33,
      "start": 18.4526,
      "duration": 0.1866,
      "velocity": 127,
      "chip": "ym2612"
    },
    {
      "channel": 4,
      "note": 73,
      "start": 18.4534,
      "duration": 0.9059,
      "velocity": 109,
      "chip": "ym2612"
    },
    {
      "channel": 3,
      "note": 69,
      "start": 18.6393,
      "duration": 0.1498,
      "velocity": 127,
      "chip": "ym2612"
    },
    {
      "channel": 5,
      "note": 83,
      "start": 18.6402,
      "duration": 1.1133,
      "velocity": 103,
      "chip": "ym2612"
    },
    {
      "channel": 3,
      "note": 74,
      "start": 18.7893,
      "duration": 0.0562,
      "velocity": 127,
      "chip": "ym2612"
    },
    {
      "channel": 0,
      "note": 54,
      "start": 18.8449,
      "duration": 0.3165,
      "velocity": 112,
      "chip": "ym2612"
    },
    {
      "channel": 3,
      "note": 69,
      "start": 18.8458,
      "duration": 0.3165,
      "velocity": 127,
      "chip": "ym2612"
    },
    {
      "channel": 0,
      "note": 51,
      "start": 19.1616,
      "duration": 0.1955,
      "velocity": 112,
      "chip": "ym2612"
    },
    {
      "channel": 3,
      "note": 33,
      "start": 19.1625,
      "duration": 0.1961,
      "velocity": 127,
      "chip": "ym2612"
    },
    {
      "channel": 0,
      "note": 56,
      "start": 19.3573,
      "duration": 0.5902,
      "velocity": 112,
      "chip": "ym2612"
    },
    {
      "channel": 2,
      "note": 71,
      "start": 19.358,
      "duration": 1.6702,
      "velocity": 109,
      "chip": "ym2612"
    },
    {
      "channel": 3,
      "note": 69,
      "start": 19.3588,
      "duration": 0.1652,
      "velocity": 127,
      "chip": "ym2612"
    },
    {
      "channel": 4,
      "note": 75,
      "start": 19.3595,
      "duration": 0.7626,
      "velocity": 109,
      "chip": "ym2612"
    },
    {
      "channel": 3,
      "note": 76,
      "start": 19.5241,
      "duration": 0.006,
      "velocity": 127,
      "chip": "ym2612"
    },
    {
      "channel": 1,
      "note": 100,
      "start": 19.5295,
      "duration": 0.2224,
      "velocity": 117,
      "chip": "ym2612"
    },
    {
      "channel": 3,
      "note": 69,
      "start": 19.5304,
      "duration": 0.2223,
      "velocity": 127,
      "chip": "ym2612"
    },
    {
      "channel": 1,
      "note": 99,
      "start": 19.7521,
      "duration": 0.196,
      "velocity": 117,
      "chip": "ym2612"
    },
    {
      "channel": 3,
      "note": 33,
      "start": 19.7529,
      "duration": 0.1961,
      "velocity": 127,
      "chip": "ym2612"
    },
    {
      "channel": 5,
      "note": 73,
      "start": 19.7537,
      "duration": 0.5393,
      "velocity": 103,
      "chip": "ym2612"
    },
    {
      "channel": 0,
      "note": 51,
      "start": 19.9477,
      "duration": 0.1721,
      "velocity": 112,
      "chip": "ym2612"
    },
    {
      "channel": 1,
      "note": 97,
      "start": 19.9484,
      "duration": 0.1721,
      "velocity": 117,
      "chip": "ym2612"
    },
    {
      "channel": 3,
      "note": 79,
      "start": 19.9491,
      "duration": 0.1722,
      "velocity": 127,
      "chip": "ym2612"
    },
    {
      "channel": 0,
      "note": 52,
      "start": 20.12,
      "duration": 0.3778,
      "velocity": 112,
      "chip": "ym2612"
    },
    {
      "channel": 1,
      "note": 95,
      "start": 20.1207,
      "duration": 0.9068,
      "velocity": 117,
      "chip": "ym2612"
    },
    {
      "channel": 3,
      "note": 33,
      "start": 20.1215,
      "duration": 0.1707,
      "velocity": 127,
      "chip": "ym2612"
    },
    {
      "channel": 4,
      "note": 76,
      "start": 20.1222,
      "duration": 0.9074,
      "velocity": 109,
      "chip": "ym2612"
    },
    {
      "channel": 3,
      "note": 69,
      "start": 20.2924,
      "duration": 0.1665,
      "velocity": 127,
      "chip": "ym2612"
    },
    {
      "channel": 5,
      "note": 83,
      "start": 20.2932,
      "duration": 1.1154,
      "velocity": 103,
      "chip": "ym2612"
    },
    {
      "channel": 3,
      "note": 74,
      "start": 20.4591,
      "duration": 0.0396,
      "velocity": 127,
      "chip": "ym2612"
    },
    {
      "channel": 0,
      "note": 49,
      "start": 20.498,
      "duration": 0.5288,
      "velocity": 112,
      "chip": "ym2612"
    },
    {
      "channel": 3,
      "note": 69,
      "start": 20.4989,
      "duration": 0.3325,
      "velocity": 127,
      "chip": "ym2612"
    },
    {
      "channel": 3,
      "note": 33,
      "start": 20.8316,
      "duration": 0.1973,
      "velocity": 127,
      "chip": "ym2612"
    },
    {
      "channel": 0,
      "note": 54,
      "start": 21.027,
      "duration": 0.378,
      "velocity": 112,
      "chip": "ym2612"
    },
    {
      "channel": 1,
      "note": 94,
      "start": 21.0277,
      "duration": 0.5851,
      "velocity": 1,
      "chip": "ym2612"
    },
    {
      "channel": 2,
      "note": 73,
      "start": 21.0284,
      "duration": 0.7983,
      "velocity": 109,
      "chip": "ym2612"
    },
    {
      "channel": 3,
      "note": 69,
      "start": 21.0292,
      "duration": 0.1478,
      "velocity": 127,
      "chip": "ym2612"
    },
    {
      "channel": 4,
      "note": 78,
      "start": 21.0299,
      "duration": 0.7984,
      "velocity": 109,
      "chip": "ym2612"
    },
    {
      "channel": 3,
      "note": 74,
      "start": 21.1772,
      "duration": 0.0221,
      "velocity": 127,
      "chip": "ym2612"
    },
    {
      "channel": 3,
      "note": 69,
      "start": 21.1995,
      "duration": 0.2083,
      "velocity": 127,
      "chip": "ym2612"
    },
    {
      "channel": 0,
      "note": 46,
      "start": 21.4052,
      "duration": 0.4181,
      "velocity": 112,
      "chip": "ym2612"
    },
    {
      "channel": 3,
      "note": 33,
      "start": 21.4081,
      "duration": 0.2055,
      "velocity": 127,
      "chip": "ym2612"
    },
    {
      "channel": 5,
      "note": 73,
      "start": 21.4089,
      "duration": 0.5875,
      "velocity": 103,
      "chip": "ym2612"
    },
    {
      "channel": 1,
      "note": 67,
      "start": 21.613,
      "duration": 0.213,
      "velocity": 109,
      "chip": "ym2612"
    },
    {
      "channel": 3,
      "note": 69,
      "start": 21.6138,
      "duration": 0.2137,
      "velocity": 127,
      "chip": "ym2612"
    },
    {
      "channel": 0,
      "note": 59,
      "start": 21.8235,
      "duration": 0.3219,
      "velocity": 112,
      "chip": "ym2612"
    },
    {
      "channel": 1,
      "note": 95,
      "start": 21.8261,
      "duration": 3.3563,
      "velocity": 109,
      "chip": "ym2612"
    },
    {
      "channel": 2,
      "note": 71,
      "start": 21.8269,
      "duration": 1.6502,
      "velocity": 109,
      "chip": "ym2612"
    },
    {
      "channel": 3,
      "note": 33,
      "start": 21.8277,
      "duration": 0.1679,
      "velocity": 127,
      "chip": "ym2612"
    },
    {
      "channel": 4,
      "note": 66,
      "start": 21.8284,
      "duration": 1.6501,
      "velocity": 109,
      "chip": "ym2612"
    },
    {
      "channel": 3,
      "note": 69,
      "start": 21.9958,
      "duration": 0.1505,
      "velocity": 127,
      "chip": "ym2612"
    },
    {
      "channel": 5,
      "note": 83,
      "start": 21.9967,
      "duration": 1.1133,
      "velocity": 103,
      "chip": "ym2612"
    },
    {
      "channel": 0,
      "note": 59,
      "start": 22.1455,
      "duration": 0.0576,
      "velocity": 1,
      "chip": "ym2612"
    },
    {
      "channel": 3,
      "note": 74,
      "start": 22.1464,
      "duration": 0.0576,
      "velocity": 127,
      "chip": "ym2612"
    },
    {
      "channel": 0,
      "note": 55,
      "start": 22.2034,
      "duration": 0.1664,
      "velocity": 112,
      "chip": "ym2612"
    },
    {
      "channel": 3,
      "note": 69,
      "start": 22.2042,
      "duration": 0.3165,
      "velocity": 127,
      "chip": "ym2612"
    },
    {
      "channel": 0,
      "note": 59,
      "start": 22.37,
      "duration": 0.1499,
      "velocity": 1,
      "chip": "ym2612"
    },
    {
      "channel": 0,
      "note": 55,
      "start": 22.5201,
      "duration": 0.0454,
      "velocity": 112,
      "chip": "ym2612"
    },
    {
      "channel": 3,
      "note": 33,
      "start": 22.521,
      "duration": 0.1934,
      "velocity": 127,
      "chip": "ym2612"
    },
    {
      "channel": 0,
      "note": 56,
      "start": 22.5656,
      "duration": 0.1479,
      "velocity": 112,
      "chip": "ym2612"
    },
    {
      "channel": 0,
      "note": 59,
      "start": 22.7137,
      "duration": 0.1907,
      "velocity": 112,
      "chip": "ym2612"
    },
    {
      "channel": 3,
      "note": 69,
      "start": 22.7146,
      "duration": 0.1678,
      "velocity": 127,
      "chip": "ym2612"
    },
    {
      "channel": 3,
      "note": 76,
      "start": 22.8826,
      "duration": 0.0226,
      "velocity": 127,
      "chip": "ym2612"
    },
    {
      "channel": 0,
      "note": 54,
      "start": 22.9046,
      "duration": 0.2037,
      "velocity": 112,
      "chip": "ym2612"
    },
    {
      "channel": 3,
      "note": 69,
      "start": 22.9055,
      "duration": 0.2037,
      "velocity": 127,
      "chip": "ym2612"
    },
    {
      "channel": 0,
      "note": 56,
      "start": 23.1085,
      "duration": 0.1955,
      "velocity": 112,
      "chip": "ym2612"
    },
    {
      "channel": 3,
      "note": 33,
      "start": 23.1093,
      "duration": 0.1955,
      "velocity": 127,
      "chip": "ym2612"
    },
    {
      "channel": 5,
      "note": 73,
      "start": 23.1102,
      "duration": 0.542,
      "velocity": 103,
      "chip": "ym2612"
    },
    {
      "channel": 0,
      "note": 59,
      "start": 23.3041,
      "duration": 0.1722,
      "velocity": 112,
      "chip": "ym2612"
    },
    {
      "channel": 3,
      "note": 79,
      "start": 23.305,
      "duration": 0.1728,
      "velocity": 127,
      "chip": "ym2612"
    },
    {
      "channel": 0,
      "note": 64,
      "start": 23.4765,
      "duration": 0.022,
      "velocity": 112,
      "chip": "ym2612"
    },
    {
      "channel": 2,
      "note": 68,
      "start": 23.4773,
      "duration": 0.9063,
      "velocity": 109,
      "chip": "ym2612"
    },
    {
      "channel": 3,
      "note": 33,
      "start": 23.478,
      "duration": 0.1733,
      "velocity": 127,
      "chip": "ym2612"
    },
    {
      "channel": 4,
      "note": 71,
      "start": 23.4787,
      "duration": 0.9063,
      "velocity": 109,
      "chip": "ym2612"
    },
    {
      "channel": 0,
      "note": 64,
      "start": 23.4987,
      "duration": 0.1519,
      "velocity": 1,
      "chip": "ym2612"
    },
    {
      "channel": 0,
      "note": 55,
      "start": 23.6507,
      "duration": 0.1665,
      "velocity": 112,
      "chip": "ym2612"
    },
    {
      "channel": 3,
      "note": 69,
      "start": 23.6516,
      "duration": 0.1664,
      "velocity": 127,
      "chip": "ym2612"
    },
    {
      "channel": 5,
      "note": 83,
      "start": 23.6524,
      "duration": 1.1108,
      "velocity": 103,
      "chip": "ym2612"
    },
    {
      "channel": 0,
      "note": 64,
      "start": 23.8174,
      "duration": 0.0556,
      "velocity": 1,
      "chip": "ym2612"
    },
    {
      "channel": 3,
      "note": 74,
      "start": 23.8183,
      "duration": 0.0556,
      "velocity": 127,
      "chip": "ym2612"
    },
    {
      "channel": 0,
      "note": 55,
      "start": 23.8732,
      "duration": 0.1498,
      "velocity": 112,
      "chip": "ym2612"
    },
    {
      "channel": 3,
      "note": 69,
      "start": 23.874,
      "duration": 0.3146,
      "velocity": 127,
      "chip": "ym2612"
    },
    {
      "channel": 0,
      "note": 64,
      "start": 24.0232,
      "duration": 0.1646,
      "velocity": 112,
      "chip": "ym2612"
    },
    {
      "channel": 0,
      "note": 66,
      "start": 24.1879,
      "duration": 0.3641,
      "velocity": 112,
      "chip": "ym2612"
    },
    {
      "channel": 3,
      "note": 33,
      "start": 24.1888,
      "duration": 0.1955,
      "velocity": 127,
      "chip": "ym2612"
    },
    {
      "channel": 2,
      "note": 71,
      "start": 24.3837,
      "duration": 0.7994,
      "velocity": 109,
      "chip": "ym2612"
    },
    {
      "channel": 3,
      "note": 69,
      "start": 24.3844,
      "duration": 0.1685,
      "velocity": 127,
      "chip": "ym2612"
    },
    {
      "channel": 4,
      "note": 66,
      "start": 24.3851,
      "duration": 0.7996,
      "velocity": 109,
      "chip": "ym2612"
    },
    {
      "channel": 0,
      "note": 59,
      "start": 24.5522,
      "duration": 0.1701,
      "velocity": 112,
      "chip": "ym2612"
    },
    {
      "channel": 3,
      "note": 74,
      "start": 24.5531,
      "duration": 0.0027,
      "velocity": 127,
      "chip": "ym2612"
    },
    {
      "channel": 3,
      "note": 69,
      "start": 24.5561,
      "duration": 0.2063,
      "velocity": 127,
      "chip": "ym2612"
    },
    {
      "channel": 0,
      "note": 54,
      "start": 24.7225,
      "duration": 0.039,
      "velocity": 112,
      "chip": "ym2612"
    },
    {
      "channel": 0,
      "note": 56,
      "start": 24.7617,
      "duration": 0.2223,
      "velocity": 112,
      "chip": "ym2612"
    },
    {
      "channel": 3,
      "note": 33,
      "start": 24.7626,
      "duration": 0.2223,
      "velocity": 127,
      "chip": "ym2612"
    },
    {
      "channel": 5,
      "note": 73,
      "start": 24.7634,
      "duration": 0.5895,
      "velocity": 103,
      "chip": "ym2612"
    },
    {
      "channel": 0,
      "note": 59,
      "start": 24.9843,
      "duration": 0.1955,
      "velocity": 112,
      "chip": "ym2612"
    },
    {
      "channel": 3,
      "note": 69,
      "start": 24.9851,
      "duration": 0.1988,
      "velocity": 127,
      "chip": "ym2612"
    },
    {
      "channel": 0,
      "note": 54,
      "start": 25.18,
      "duration": 0.3385,
      "velocity": 112,
      "chip": "ym2612"
    },
    {
      "channel": 1,
      "note": 94,
      "start": 25.1827,
      "duration": 1.6552,
      "velocity": 119,
      "chip": "ym2612"
    },
    {
      "channel": 2,
      "note": 70,
      "start": 25.1834,
      "duration": 0.9054,
      "velocity": 109,
      "chip": "ym2612"
    },
    {
      "channel": 3,
      "note": 33,
      "start": 25.1842,
      "duration": 0.1679,
      "velocity": 127,
      "chip": "ym2612"
    },
    {
      "channel": 4,
      "note": 73,
      "start": 25.1849,
      "duration": 0.9072,
      "velocity": 109,
      "chip": "ym2612"
    },
    {
      "channel": 3,
      "note": 69,
      "start": 25.3523,
      "duration": 0.1671,
      "velocity": 127,
      "chip": "ym2612"
    },
    {
      "channel": 5,
      "note": 83,
      "start": 25.3532,
      "duration": 1.1133,
      "velocity": 103,
      "chip": "ym2612"
    },
    {
      "channel": 0,
      "note": 54,
      "start": 25.5187,
      "duration": 0.0409,
      "velocity": 1,
      "chip": "ym2612"
    },
    {
      "channel": 3,
      "note": 74,
      "start": 25.5196,
      "duration": 0.0409,
      "velocity": 127,
      "chip": "ym2612"
    },
    {
      "channel": 0,
      "note": 55,
      "start": 25.5598,
      "duration": 0.1664,
      "velocity": 112,
      "chip": "ym2612"
    },
    {
      "channel": 3,
      "note": 69,
      "start": 25.5607,
      "duration": 0.3146,
      "velocity": 127,
      "chip": "ym2612"
    },
    {
      "channel": 0,
      "note": 54,
      "start": 25.7264,
      "duration": 0.1479,
      "velocity": 112,
      "chip": "ym2612"
    },
    {
      "channel": 0,
      "note": 58,
      "start": 25.8745,
      "duration": 0.3641,
      "velocity": 112,
      "chip": "ym2612"
    },
    {
      "channel": 3,
      "note": 33,
      "start": 25.8754,
      "duration": 0.2141,
      "velocity": 127,
      "chip": "ym2612"
    },
    {
      "channel": 2,
      "note": 75,
      "start": 26.089,
      "duration": 0.7516,
      "velocity": 119,
      "chip": "ym2612"
    },
    {
      "channel": 3,
      "note": 69,
      "start": 26.0897,
      "duration": 0.1498,
      "velocity": 127,
      "chip": "ym2612"
    },
    {
      "channel": 4,
      "note": 71,
      "start": 26.0924,
      "duration": 0.7516,
      "velocity": 119,
      "chip": "ym2612"
    },
    {
      "channel": 0,
      "note": 59,
      "start": 26.2388,
      "duration": 0.0202,
      "velocity": 112,
      "chip": "ym2612"
    },
    {
      "channel": 3,
      "note": 76,
      "start": 26.2397,
      "duration": 0.0201,
      "velocity": 127,
      "chip": "ym2612"
    },
    {
      "channel": 0,
      "note": 59,
      "start": 26.2592,
      "duration": 0.1498,
      "velocity": 112,
      "chip": "ym2612"
    },
    {
      "channel": 3,
      "note": 69,
      "start": 26.26,
      "duration": 0.2057,
      "velocity": 127,
      "chip": "ym2612"
    },
    {
      "channel": 0,
      "note": 54,
      "start": 26.4092,
      "duration": 0.0557,
      "velocity": 112,
      "chip": "ym2612"
    },
    {
      "channel": 0,
      "note": 56,
      "start": 26.465,
      "duration": 0.1671,
      "velocity": 112,
      "chip": "ym2612"
    },
    {
      "channel": 3,
      "note": 33,
      "start": 26.4659,
      "duration": 0.1958,
      "velocity": 127,
      "chip": "ym2612"
    },
    {
      "channel": 5,
      "note": 73,
      "start": 26.4667,
      "duration": 0.5571,
      "velocity": 103,
      "chip": "ym2612"
    },
    {
      "channel": 0,
      "note": 55,
      "start": 26.6321,
      "duration": 0.0002,
      "velocity": 112,
      "chip": "ym2612"
    },
    {
      "channel": 0,
      "note": 55,
      "start": 26.6323,
      "duration": 0.0002,
      "velocity": 112,
      "chip": "ym2612"
    },
    {
      "channel": 0,
      "note": 54,
      "start": 26.6326,
      "duration": 0.0002,
      "velocity": 112,
      "chip": "ym2612"
    },
    {
      "channel": 0,
      "note": 54,
      "start": 26.6328,
      "duration": 0.0002,
      "velocity": 112,
      "chip": "ym2612"
    },
    {
      "channel": 0,
      "note": 53,
      "start": 26.633,
      "duration": 0.0002,
      "velocity": 112,
      "chip": "ym2612"
    },
    {
      "channel": 0,
      "note": 52,
      "start": 26.6332,
      "duration": 0.0106,
      "velocity": 112,
      "chip": "ym2612"
    },
    {
      "channel": 0,
      "note": 52,
      "start": 26.6437,
      "duration": 0.0171,
      "velocity": 112,
      "chip": "ym2612"
    },
    {
      "channel": 0,
      "note": 59,
      "start": 26.661,
      "duration": 0.1743,
      "velocity": 112,
      "chip": "ym2612"
    },
    {
      "channel": 3,
      "note": 79,
      "start": 26.6619,
      "duration": 0.1794,
      "velocity": 127,
      "chip": "ym2612"
    },
    {
      "channel": 0,
      "note": 59,
      "start": 26.8355,
      "duration": 0.3368,
      "velocity": 112,
      "chip": "ym2612"
    },
    {
      "channel": 1,
      "note": 66,
      "start": 26.8381,
      "duration": 0.0174,
      "velocity": 119,
      "chip": "ym2612"
    },
    {
      "channel": 2,
      "note": 75,
      "start": 26.8407,
      "duration": 0.0155,
      "velocity": 119,
      "chip": "ym2612"
    },
    {
      "channel": 3,
      "note": 33,
      "start": 26.8415,
      "duration": 0.1809,
      "velocity": 127,
      "chip": "ym2612"
    },
    {
      "channel": 4,
      "note": 59,
      "start": 26.8441,
      "duration": 0.179,
      "velocity": 119,
      "chip": "ym2612"
    },
    {
      "channel": 1,
      "note": 66,
      "start": 26.8557,
      "duration": 0.3172,
      "velocity": 119,
      "chip": "ym2612"
    },
    {
      "channel": 2,
      "note": 75,
      "start": 26.8564,
      "duration": 0.3172,
      "velocity": 119,
      "chip": "ym2612"
    },
    {
      "channel": 3,
      "note": 69,
      "start": 27.0227,
      "duration": 0.1517,
      "velocity": 127,
      "chip": "ym2612"
    },
    {
      "channel": 4,
      "note": 59,
      "start": 27.0234,
      "duration": 0.1517,
      "velocity": 119,
      "chip": "ym2612"
    },
    {
      "channel": 5,
      "note": 83,
      "start": 27.0241,
      "duration": 1.1147,
      "velocity": 103,
      "chip": "ym2612"
    },
    {
      "channel": 0,
      "note": 59,
      "start": 27.1725,
      "duration": 0.2056,
      "velocity": 112,
      "chip": "ym2612"
    },
    {
      "channel": 1,
      "note": 66,
      "start": 27.1732,
      "duration": 0.2056,
      "velocity": 119,
      "chip": "ym2612"
    },
    {
      "channel": 2,
      "note": 75,
      "start": 27.1739,
      "duration": 0.2056,
      "velocity": 119,
      "chip": "ym2612"
    },
    {
      "channel": 3,
      "note": 74,
      "start": 27.1746,
      "duration": 0.0537,
      "velocity": 127,
      "chip": "ym2612"
    },
    {
      "channel": 4,
      "note": 54,
      "start": 27.1753,
      "duration": 0.0537,
      "velocity": 119,
      "chip": "ym2612"
    },
    {
      "channel": 3,
      "note": 69,
      "start": 27.2285,
      "duration": 0.3165,
      "velocity": 127,
      "chip": "ym2612"
    },
    {
      "channel": 4,
      "note": 51,
      "start": 27.2292,
      "duration": 0.1511,
      "velocity": 119,
      "chip": "ym2612"
    },
    {
      "channel": 0,
      "note": 59,
      "start": 27.3783,
      "duration": 0.2121,
      "velocity": 112,
      "chip": "ym2612"
    },
    {
      "channel": 1,
      "note": 66,
      "start": 27.379,
      "duration": 0.2121,
      "velocity": 119,
      "chip": "ym2612"
    },
    {
      "channel": 2,
      "note": 75,
      "start": 27.3797,
      "duration": 0.2121,
      "velocity": 119,
      "chip": "ym2612"
    },
    {
      "channel": 4,
      "note": 54,
      "start": 27.3805,
      "duration": 0.1651,
      "velocity": 119,
      "chip": "ym2612"
    },
    {
      "channel": 3,
      "note": 33,
      "start": 27.5452,
      "duration": 0.1973,
      "velocity": 127,
      "chip": "ym2612"
    },
    {
      "channel": 4,
      "note": 59,
      "start": 27.5459,
      "duration": 0.0467,
      "velocity": 119,
      "chip": "ym2612"
    },
    {
      "channel": 0,
      "note": 56,
      "start": 27.5906,
      "duration": 0.1498,
      "velocity": 112,
      "chip": "ym2612"
    },
    {
      "channel": 1,
      "note": 66,
      "start": 27.5913,
      "duration": 0.1498,
      "velocity": 119,
      "chip": "ym2612"
    },
    {
      "channel": 2,
      "note": 75,
      "start": 27.592,
      "duration": 0.1498,
      "velocity": 119,
      "chip": "ym2612"
    },
    {
      "channel": 4,
      "note": 56,
      "start": 27.5927,
      "duration": 0.3152,
      "velocity": 119,
      "chip": "ym2612"
    },
    {
      "channel": 0,
      "note": 59,
      "start": 27.7406,
      "duration": 0.1721,
      "velocity": 112,
      "chip": "ym2612"
    },
    {
      "channel": 1,
      "note": 68,
      "start": 27.7413,
      "duration": 0.1721,
      "velocity": 119,
      "chip": "ym2612"
    },
    {
      "channel": 2,
      "note": 76,
      "start": 27.742,
      "duration": 0.1721,
      "velocity": 119,
      "chip": "ym2612"
    },
    {
      "channel": 3,
      "note": 69,
      "start": 27.7427,
      "duration": 0.1646,
      "velocity": 127,
      "chip": "ym2612"
    },
    {
      "channel": 3,
      "note": 74,
      "start": 27.9075,
      "duration": 0.0073,
      "velocity": 127,
      "chip": "ym2612"
    },
    {
      "channel": 4,
      "note": 56,
      "start": 27.9082,
      "duration": 0.0073,
      "velocity": 119,
      "chip": "ym2612"
    },
    {
      "channel": 0,
      "note": 51,
      "start": 27.9129,
      "duration": 0.2223,
      "velocity": 112,
      "chip": "ym2612"
    },
    {
      "channel": 1,
      "note": 64,
      "start": 27.9136,
      "duration": 0.2223,
      "velocity": 119,
      "chip": "ym2612"
    },
    {
      "channel": 2,
      "note": 73,
      "start": 27.9143,
      "duration": 0.2223,
      "velocity": 119,
      "chip": "ym2612"
    },
    {
      "channel": 3,
      "note": 69,
      "start": 27.915,
      "duration": 0.2223,
      "velocity": 127,
      "chip": "ym2612"
    },
    {
      "channel": 4,
      "note": 52,
      "start": 27.9157,
      "duration": 0.2223,
      "velocity": 119,
      "chip": "ym2612"
    },
    {
      "channel": 0,
      "note": 52,
      "start": 28.1355,
      "duration": 0.2057,
      "velocity": 112,
      "chip": "ym2612"
    },
    {
      "channel": 1,
      "note": 66,
      "start": 28.1361,
      "duration": 0.0659,
      "velocity": 119,
      "chip": "ym2612"
    },
    {
      "channel": 2,
      "note": 75,
      "start": 28.1368,
      "duration": 0.0659,
      "velocity": 119,
      "chip": "ym2612"
    },
    {
      "channel": 3,
      "note": 33,
      "start": 28.1376,
      "duration": 0.2057,
      "velocity": 127,
      "chip": "ym2612"
    },
    {
      "channel": 4,
      "note": 54,
      "start": 28.1383,
      "duration": 0.4018,
      "velocity": 119,
      "chip": "ym2612"
    },
    {
      "channel": 5,
      "note": 73,
      "start": 28.139,
      "duration": 0.5718,
      "velocity": 103,
      "chip": "ym2612"
    },
    {
      "channel": 1,
      "note": 71,
      "start": 28.2022,
      "duration": 0.083,
      "velocity": 119,
      "chip": "ym2612"
    },
    {
      "channel": 2,
      "note": 78,
      "start": 28.2029,
      "duration": 0.083,
      "velocity": 119,
      "chip": "ym2612"
    },
    {
      "channel": 1,
      "note": 66,
      "start": 28.2855,
      "duration": 0.0015,
      "velocity": 119,
      "chip": "ym2612"
    },
    {
      "channel": 2,
      "note": 75,
      "start": 28.2861,
      "duration": 0.0012,
      "velocity": 119,
      "chip": "ym2612"
    },
    {
      "channel": 1,
      "note": 71,
      "start": 28.2871,
      "duration": 0.0548,
      "velocity": 119,
      "chip": "ym2612"
    },
    {
      "channel": 2,
      "note": 78,
      "start": 28.2875,
      "duration": 0.0551,
      "velocity": 119,
      "chip": "ym2612"
    },
    {
      "channel": 0,
      "note": 54,
      "start": 28.3414,
      "duration": 0.1956,
      "velocity": 112,
      "chip": "ym2612"
    },
    {
      "channel": 1,
      "note": 66,
      "start": 28.3421,
      "duration": 0.0022,
      "velocity": 119,
      "chip": "ym2612"
    },
    {
      "channel": 2,
      "note": 75,
      "start": 28.3428,
      "duration": 0.0018,
      "velocity": 119,
      "chip": "ym2612"
    },
    {
      "channel": 3,
      "note": 69,
      "start": 28.3435,
      "duration": 0.1957,
      "velocity": 127,
      "chip": "ym2612"
    },
    {
      "channel": 1,
      "note": 71,
      "start": 28.3444,
      "duration": 0.0257,
      "velocity": 119,
      "chip": "ym2612"
    },
    {
      "channel": 2,
      "note": 78,
      "start": 28.3448,
      "duration": 0.0261,
      "velocity": 119,
      "chip": "ym2612"
    },
    {
      "channel": 1,
      "note": 66,
      "start": 28.3704,
      "duration": 0.0831,
      "velocity": 119,
      "chip": "ym2612"
    },
    {
      "channel": 2,
      "note": 75,
      "start": 28.3711,
      "duration": 0.0831,
      "velocity": 119,
      "chip": "ym2612"
    },
    {
      "channel": 1,
      "note": 71,
      "start": 28.4538,
      "duration": 0.084,
      "velocity": 119,
      "chip": "ym2612"
    },
    {
      "channel": 2,
      "note": 78,
      "start": 28.4544,
      "duration": 0.084,
      "velocity": 119,
      "chip": "ym2612"
    },
    {
      "channel": 0,
      "note": 52,
      "start": 28.5371,
      "duration": 0.3386,
      "velocity": 112,
      "chip": "ym2612"
    },
    {
      "channel": 1,
      "note": 68,
      "start": 28.5379,
      "duration": 0.0212,
      "velocity": 119,
      "chip": "ym2612"
    },
    {
      "channel": 2,
      "note": 76,
      "start": 28.5387,
      "duration": 0.0211,
      "velocity": 119,
      "chip": "ym2612"
    },
    {
      "channel": 3,
      "note": 33,
      "start": 28.5394,
      "duration": 0.1699,
      "velocity": 127,
      "chip": "ym2612"
    },
    {
      "channel": 4,
      "note": 80,
      "start": 28.5402,
      "duration": 0.1698,
      "velocity": 119,
      "chip": "ym2612"
    },
    {
      "channel": 1,
      "note": 68,
      "start": 28.5593,
      "duration": 0.3172,
      "velocity": 119,
      "chip": "ym2612"
    },
    {
      "channel": 2,
      "note": 76,
      "start": 28.56,
      "duration": 0.3172,
      "velocity": 119,
      "chip": "ym2612"
    },
    {
      "channel": 3,
      "note": 69,
      "start": 28.7096,
      "duration": 0.1683,
      "velocity": 127,
      "chip": "ym2612"
    },
    {
      "channel": 4,
      "note": 71,
      "start": 28.7103,
      "duration": 0.2081,
      "velocity": 119,
      "chip": "ym2612"
    },
    {
      "channel": 5,
      "note": 83,
      "start": 28.711,
      "duration": 1.1146,
      "velocity": 103,
      "chip": "ym2612"
    },
    {
      "channel": 0,
      "note": 64,
      "start": 28.876,
      "duration": 0.0409,
      "velocity": 1,
      "chip": "ym2612"
    },
    {
      "channel": 1,
      "note": 68,
      "start": 28.8767,
      "duration": 0.2076,
      "velocity": 119,
      "chip": "ym2612"
    },
    {
      "channel": 2,
      "note": 76,
      "start": 28.8774,
      "duration": 0.2076,
      "velocity": 119,
      "chip": "ym2612"
    },
    {
      "channel": 3,
      "note": 74,
      "start": 28.8781,
      "duration": 0.0396,
      "velocity": 127,
      "chip": "ym2612"
    },
    {
      "channel": 0,
      "note": 55,
      "start": 28.9171,
      "duration": 0.1665,
      "velocity": 112,
      "chip": "ym2612"
    },
    {
      "channel": 3,
      "note": 69,
      "start": 28.918,
      "duration": 0.3312,
      "velocity": 127,
      "chip": "ym2612"
    },
    {
      "channel": 4,
      "note": 56,
      "start": 28.9187,
      "duration": 0.1671,
      "velocity": 119,
      "chip": "ym2612"
    },
    {
      "channel": 0,
      "note": 64,
      "start": 29.0838,
      "duration": 0.1645,
      "velocity": 112,
      "chip": "ym2612"
    },
    {
      "channel": 1,
      "note": 68,
      "start": 29.0845,
      "duration": 0.1934,
      "velocity": 119,
      "chip": "ym2612"
    },
    {
      "channel": 2,
      "note": 76,
      "start": 29.0852,
      "duration": 0.1934,
      "velocity": 119,
      "chip": "ym2612"
    },
    {
      "channel": 4,
      "note": 58,
      "start": 29.086,
      "duration": 0.1639,
      "velocity": 119,
      "chip": "ym2612"
    },
    {
      "channel": 0,
      "note": 47,
      "start": 29.2485,
      "duration": 0.0287,
      "velocity": 112,
      "chip": "ym2612"
    },
    {
      "channel": 3,
      "note": 33,
      "start": 29.2494,
      "duration": 0.1966,
      "velocity": 127,
      "chip": "ym2612"
    },
    {
      "channel": 4,
      "note": 59,
      "start": 29.2501,
      "duration": 0.0293,
      "velocity": 119,
      "chip": "ym2612"
    },
    {
      "channel": 0,
      "note": 49,
      "start": 29.2774,
      "duration": 0.1665,
      "velocity": 112,
      "chip": "ym2612"
    },
    {
      "channel": 1,
      "note": 68,
      "start": 29.2781,
      "duration": 0.0825,
      "velocity": 119,
      "chip": "ym2612"
    },
    {
      "channel": 2,
      "note": 76,
      "start": 29.2788,
      "duration": 0.1665,
      "velocity": 119,
      "chip": "ym2612"
    },
    {
      "channel": 4,
      "note": 61,
      "start": 29.2796,
      "duration": 0.3152,
      "velocity": 119,
      "chip": "ym2612"
    },
    {
      "channel": 1,
      "note": 69,
      "start": 29.3608,
      "duration": 0.0838,
      "velocity": 119,
      "chip": "ym2612"
    },
    {
      "channel": 0,
      "note": 54,
      "start": 29.4441,
      "duration": 0.1722,
      "velocity": 112,
      "chip": "ym2612"
    },
    {
      "channel": 1,
      "note": 70,
      "start": 29.4448,
      "duration": 0.1722,
      "velocity": 119,
      "chip": "ym2612"
    },
    {
      "channel": 2,
      "note": 78,
      "start": 29.4455,
      "duration": 0.1722,
      "velocity": 119,
      "chip": "ym2612"
    },
    {
      "channel": 3,
      "note": 69,
      "start": 29.4462,
      "duration": 0.1479,
      "velocity": 127,
      "chip": "ym2612"
    },
    {
      "channel": 3,
      "note": 76,
      "start": 29.5943,
      "duration": 0.024,
      "velocity": 127,
      "chip": "ym2612"
    },
    {
      "channel": 4,
      "note": 61,
      "start": 29.595,
      "duration": 0.024,
      "velocity": 119,
      "chip": "ym2612"
    },
    {
      "channel": 0,
      "note": 46,
      "start": 29.6164,
      "duration": 0.2057,
      "velocity": 112,
      "chip": "ym2612"
    },
    {
      "channel": 1,
      "note": 70,
      "start": 29.6171,
      "duration": 0.2057,
      "velocity": 119,
      "chip": "ym2612"
    },
    {
      "channel": 2,
      "note": 78,
      "start": 29.6178,
      "duration": 0.2057,
      "velocity": 119,
      "chip": "ym2612"
    },
    {
      "channel": 3,
      "note": 69,
      "start": 29.6186,
      "duration": 0.2057,
      "velocity": 127,
      "chip": "ym2612"
    },
    {
      "channel": 4,
      "note": 54,
      "start": 29.6193,
      "duration": 0.2057,
      "velocity": 119,
      "chip": "ym2612"
    },
    {
      "channel": 0,
      "note": 47,
      "start": 29.8224,
      "duration": 0.1954,
      "velocity": 112,
      "chip": "ym2612"
    },
    {
      "channel": 1,
      "note": 66,
      "start": 29.823,
      "duration": 0.0825,
      "velocity": 119,
      "chip": "ym2612"
    },
    {
      "channel": 2,
      "note": 75,
      "start": 29.8237,
      "duration": 0.3859,
      "velocity": 109,
      "chip": "ym2612"
    },
    {
      "channel": 3,
      "note": 33,
      "start": 29.8244,
      "duration": 0.1941,
      "velocity": 127,
      "chip": "ym2612"
    },
    {
      "channel": 4,
      "note": 63,
      "start": 29.8251,
      "duration": 0.1941,
      "velocity": 119,
      "chip": "ym2612"
    },
    {
      "channel": 5,
      "note": 73,
      "start": 29.8259,
      "duration": 0.5539,
      "velocity": 103,
      "chip": "ym2612"
    },
    {
      "channel": 1,
      "note": 71,
      "start": 29.9057,
      "duration": 0.3082,
      "velocity": 119,
      "chip": "ym2612"
    },
    {
      "channel": 0,
      "note": 54,
      "start": 30.0179,
      "duration": 0.022,
      "velocity": 112,
      "chip": "ym2612"
    },
    {
      "channel": 3,
      "note": 79,
      "start": 30.0188,
      "duration": 0.1916,
      "velocity": 127,
      "chip": "ym2612"
    },
    {
      "channel": 4,
      "note": 54,
      "start": 30.0195,
      "duration": 0.1935,
      "velocity": 109,
      "chip": "ym2612"
    },
    {
      "channel": 0,
      "note": 56,
      "start": 30.0402,
      "duration": 0.1667,
      "velocity": 112,
      "chip": "ym2612"
    },
    {
      "channel": 0,
      "note": 59,
      "start": 30.2071,
      "duration": 0.3217,
      "velocity": 112,
      "chip": "ym2612"
    },
    {
      "channel": 2,
      "note": 83,
      "start": 30.2098,
      "duration": 0.3756,
      "velocity": 109,
      "chip": "ym2612"
    },
    {
      "channel": 3,
      "note": 33,
      "start": 30.2107,
      "duration": 0.1684,
      "velocity": 127,
      "chip": "ym2612"
    },
    {
      "channel": 4,
      "note": 78,
      "start": 30.2133,
      "duration": 0.3736,
      "velocity": 109,
      "chip": "ym2612"
    },
    {
      "channel": 1,
      "note": 66,
      "start": 30.214,
      "duration": 0.3155,
      "velocity": 119,
      "chip": "ym2612"
    },
    {
      "channel": 3,
      "note": 69,
      "start": 30.3792,
      "duration": 0.1511,
      "velocity": 127,
      "chip": "ym2612"
    },
    {
      "channel": 5,
      "note": 83,
      "start": 30.3801,
      "duration": 1.1146,
      "velocity": 103,
      "chip": "ym2612"
    },
    {
      "channel": 0,
      "note": 51,
      "start": 30.529,
      "duration": 0.0556,
      "velocity": 112,
      "chip": "ym2612"
    },
    {
      "channel": 1,
      "note": 66,
      "start": 30.5297,
      "duration": 0.2216,
      "velocity": 119,
      "chip": "ym2612"
    },
    {
      "channel": 3,
      "note": 74,
      "start": 30.5305,
      "duration": 0.0557,
      "velocity": 127,
      "chip": "ym2612"
    },
    {
      "channel": 0,
      "note": 52,
      "start": 30.5849,
      "duration": 0.3164,
      "velocity": 112,
      "chip": "ym2612"
    },
    {
      "channel": 2,
      "note": 85,
      "start": 30.5856,
      "duration": 0.3628,
      "velocity": 109,
      "chip": "ym2612"
    },
    {
      "channel": 3,
      "note": 69,
      "start": 30.5863,
      "duration": 0.3159,
      "velocity": 127,
      "chip": "ym2612"
    },
    {
      "channel": 4,
      "note": 78,
      "start": 30.587,
      "duration": 0.3621,
      "velocity": 109,
      "chip": "ym2612"
    },
    {
      "channel": 1,
      "note": 66,
      "start": 30.7515,
      "duration": 0.1961,
      "velocity": 119,
      "chip": "ym2612"
    },
    {
      "channel": 0,
      "note": 54,
      "start": 30.9015,
      "duration": 0.0455,
      "velocity": 112,
      "chip": "ym2612"
    },
    {
      "channel": 3,
      "note": 33,
      "start": 30.9024,
      "duration": 0.1954,
      "velocity": 127,
      "chip": "ym2612"
    },
    {
      "channel": 0,
      "note": 47,
      "start": 30.9472,
      "duration": 0.3387,
      "velocity": 112,
      "chip": "ym2612"
    },
    {
      "channel": 1,
      "note": 66,
      "start": 30.9479,
      "duration": 0.1491,
      "velocity": 119,
      "chip": "ym2612"
    },
    {
      "channel": 2,
      "note": 83,
      "start": 30.9486,
      "duration": 0.544,
      "velocity": 109,
      "chip": "ym2612"
    },
    {
      "channel": 4,
      "note": 75,
      "start": 30.9493,
      "duration": 0.5447,
      "velocity": 109,
      "chip": "ym2612"
    },
    {
      "channel": 1,
      "note": 71,
      "start": 31.0972,
      "duration": 0.1665,
      "velocity": 119,
      "chip": "ym2612"
    },
    {
      "channel": 3,
      "note": 69,
      "start": 31.098,
      "duration": 0.1665,
      "velocity": 127,
      "chip": "ym2612"
    },
    {
      "channel": 1,
      "note": 71,
      "start": 31.2639,
      "duration": 0.0227,
      "velocity": 119,
      "chip": "ym2612"
    },
    {
      "channel": 3,
      "note": 76,
      "start": 31.2647,
      "duration": 0.0227,
      "velocity": 127,
      "chip": "ym2612"
    },
    {
      "channel": 0,
      "note": 59,
      "start": 31.2861,
      "duration": 0.3557,
      "velocity": 112,
      "chip": "ym2612"
    },
    {
      "channel": 1,
      "note": 66,
      "start": 31.2868,
      "duration": 0.2051,
      "velocity": 119,
      "chip": "ym2612"
    },
    {
      "channel": 3,
      "note": 69,
      "start": 31.2876,
      "duration": 0.2057,
      "velocity": 127,
      "chip": "ym2612"
    },
    {
      "channel": 1,
      "note": 59,
      "start": 31.4921,
      "duration": 0.0832,
      "velocity": 119,
      "chip": "ym2612"
    },
    {
      "channel": 2,
      "note": 78,
      "start": 31.4928,
      "duration": 0.3684,
      "velocity": 109,
      "chip": "ym2612"
    },
    {
      "channel": 3,
      "note": 33,
      "start": 31.4935,
      "duration": 0.1948,
      "velocity": 127,
      "chip": "ym2612"
    },
    {
      "channel": 4,
      "note": 75,
      "start": 31.4942,
      "duration": 0.3684,
      "velocity": 109,
      "chip": "ym2612"
    },
    {
      "channel": 5,
      "note": 73,
      "start": 31.4949,
      "duration": 0.5381,
      "velocity": 103,
      "chip": "ym2612"
    },
    {
      "channel": 1,
      "note": 63,
      "start": 31.5754,
      "duration": 0.112,
      "velocity": 119,
      "chip": "ym2612"
    },
    {
      "channel": 0,
      "note": 47,
      "start": 31.6419,
      "duration": 0.0677,
      "velocity": 112,
      "chip": "ym2612"
    },
    {
      "channel": 1,
      "note": 59,
      "start": 31.6877,
      "duration": 0.1728,
      "velocity": 119,
      "chip": "ym2612"
    },
    {
      "channel": 3,
      "note": 79,
      "start": 31.6885,
      "duration": 0.1734,
      "velocity": 127,
      "chip": "ym2612"
    },
    {
      "channel": 0,
      "note": 49,
      "start": 31.7098,
      "duration": 0.15,
      "velocity": 112,
      "chip": "ym2612"
    },
    {
      "channel": 0,
      "note": 52,
      "start": 31.86,
      "duration": 0.3387,
      "velocity": 112,
      "chip": "ym2612"
    },
    {
      "channel": 1,
      "note": 64,
      "start": 31.8607,
      "duration": 0.3388,
      "velocity": 119,
      "chip": "ym2612"
    },
    {
      "channel": 2,
      "note": 80,
      "start": 31.8614,
      "duration": 0.394,
      "velocity": 109,
      "chip": "ym2612"
    },
    {
      "channel": 3,
      "note": 33,
      "start": 31.8621,
      "duration": 0.1702,
      "velocity": 127,
      "chip": "ym2612"
    },
    {
      "channel": 4,
      "note": 76,
      "start": 31.8628,
      "duration": 0.394,
      "velocity": 109,
      "chip": "ym2612"
    },
    {
      "channel": 3,
      "note": 69,
      "start": 32.0324,
      "duration": 0.1678,
      "velocity": 127,
      "chip": "ym2612"
    },
    {
      "channel": 5,
      "note": 83,
      "start": 32.0333,
      "duration": 1.1153,
      "velocity": 103,
      "chip": "ym2612"
    },
    {
      "channel": 0,
      "note": 49,
      "start": 32.1989,
      "duration": 0.3723,
      "velocity": 112,
      "chip": "ym2612"
    },
    {
      "channel": 1,
      "note": 64,
      "start": 32.1996,
      "duration": 0.055,
      "velocity": 119,
      "chip": "ym2612"
    },
    {
      "channel": 3,
      "note": 74,
      "start": 32.2004,
      "duration": 0.0557,
      "velocity": 127,
      "chip": "ym2612"
    },
    {
      "channel": 1,
      "note": 61,
      "start": 32.2549,
      "duration": 0.1497,
      "velocity": 119,
      "chip": "ym2612"
    },
    {
      "channel": 2,
      "note": 78,
      "start": 32.2555,
      "duration": 0.5121,
      "velocity": 109,
      "chip": "ym2612"
    },
    {
      "channel": 3,
      "note": 69,
      "start": 32.2562,
      "duration": 0.3165,
      "velocity": 127,
      "chip": "ym2612"
    },
    {
      "channel": 4,
      "note": 75,
      "start": 32.2569,
      "duration": 0.5121,
      "velocity": 109,
      "chip": "ym2612"
    },
    {
      "channel": 1,
      "note": 63,
      "start": 32.4048,
      "duration": 0.1672,
      "velocity": 119,
      "chip": "ym2612"
    },
    {
      "channel": 0,
      "note": 52,
      "start": 32.5715,
      "duration": 0.1954,
      "velocity": 112,
      "chip": "ym2612"
    },
    {
      "channel": 1,
      "note": 64,
      "start": 32.5722,
      "duration": 0.028,
      "velocity": 119,
      "chip": "ym2612"
    },
    {
      "channel": 3,
      "note": 33,
      "start": 32.5729,
      "duration": 0.1954,
      "velocity": 127,
      "chip": "ym2612"
    },
    {
      "channel": 1,
      "note": 66,
      "start": 32.6004,
      "duration": 0.3332,
      "velocity": 119,
      "chip": "ym2612"
    },
    {
      "channel": 0,
      "note": 49,
      "start": 32.7671,
      "duration": 0.3387,
      "velocity": 112,
      "chip": "ym2612"
    },
    {
      "channel": 2,
      "note": 80,
      "start": 32.7678,
      "duration": 0.3787,
      "velocity": 109,
      "chip": "ym2612"
    },
    {
      "channel": 3,
      "note": 69,
      "start": 32.7686,
      "duration": 0.1658,
      "velocity": 127,
      "chip": "ym2612"
    },
    {
      "channel": 4,
      "note": 76,
      "start": 32.7693,
      "duration": 0.3786,
      "velocity": 109,
      "chip": "ym2612"
    },
    {
      "channel": 1,
      "note": 66,
      "start": 32.9338,
      "duration": 0.0054,
      "velocity": 119,
      "chip": "ym2612"
    },
    {
      "channel": 3,
      "note": 74,
      "start": 32.9345,
      "duration": 0.0055,
      "velocity": 127,
      "chip": "ym2612"
    },
    {
      "channel": 1,
      "note": 61,
      "start": 32.9394,
      "duration": 0.2064,
      "velocity": 119,
      "chip": "ym2612"
    },
    {
      "channel": 3,
      "note": 69,
      "start": 32.9402,
      "duration": 0.207,
      "velocity": 127,
      "chip": "ym2612"
    },
    {
      "channel": 0,
      "note": 52,
      "start": 33.106,
      "duration": 0.0391,
      "velocity": 112,
      "chip": "ym2612"
    },
    {
      "channel": 0,
      "note": 64,
      "start": 33.1453,
      "duration": 0.1663,
      "velocity": 112,
      "chip": "ym2612"
    },
    {
      "channel": 1,
      "note": 58,
      "start": 33.146,
      "duration": 0.1663,
      "velocity": 119,
      "chip": "ym2612"
    },
    {
      "channel": 2,
      "note": 83,
      "start": 33.1467,
      "duration": 0.5934,
      "velocity": 119,
      "chip": "ym2612"
    },
    {
      "channel": 3,
      "note": 33,
      "start": 33.1474,
      "duration": 0.2216,
      "velocity": 127,
      "chip": "ym2612"
    },
    {
      "channel": 4,
      "note": 78,
      "start": 33.1481,
      "duration": 0.5954,
      "velocity": 119,
      "chip": "ym2612"
    },
    {
      "channel": 5,
      "note": 73,
      "start": 33.1488,
      "duration": 0.5954,
      "velocity": 103,
      "chip": "ym2612"
    },
    {
      "channel": 0,
      "note": 66,
      "start": 33.3118,
      "duration": 0.0557,
      "velocity": 112,
      "chip": "ym2612"
    },
    {
      "channel": 1,
      "note": 59,
      "start": 33.3125,
      "duration": 0.0557,
      "velocity": 119,
      "chip": "ym2612"
    },
    {
      "channel": 0,
      "note": 54,
      "start": 33.3677,
      "duration": 0.1955,
      "velocity": 112,
      "chip": "ym2612"
    },
    {
      "channel": 1,
      "note": 61,
      "start": 33.3684,
      "duration": 0.369,
      "velocity": 117,
      "chip": "ym2612"
    },
    {
      "channel": 3,
      "note": 69,
      "start": 33.3692,
      "duration": 0.195,
      "velocity": 127,
      "chip": "ym2612"
    },
    {
      "channel": 0,
      "note": 59,
      "start": 33.5634,
      "duration": 0.3387,
      "velocity": 112,
      "chip": "ym2612"
    },
    {
      "channel": 3,
      "note": 33,
      "start": 33.5644,
      "duration": 0.1764,
      "velocity": 127,
      "chip": "ym2612"
    },
    {
      "channel": 1,
      "note": 95,
      "start": 33.7376,
      "duration": 0.1671,
      "velocity": 117,
      "chip": "ym2612"
    },
    {
      "channel": 2,
      "note": 78,
      "start": 33.7403,
      "duration": 0.1651,
      "velocity": 119,
      "chip": "ym2612"
    },
    {
      "channel": 3,
      "note": 69,
      "start": 33.741,
      "duration": 0.1651,
      "velocity": 127,
      "chip": "ym2612"
    },
    {
      "channel": 4,
      "note": 75,
      "start": 33.7437,
      "duration": 0.1632,
      "velocity": 119,
      "chip": "ym2612"
    },
    {
      "channel": 5,
      "note": 83,
      "start": 33.7444,
      "duration": 1.1109,
      "velocity": 103,
      "chip": "ym2612"
    },
    {
      "channel": 0,
      "note": 59,
      "start": 33.9023,
      "duration": 0.0407,
      "velocity": 1,
      "chip": "ym2612"
    },
    {
      "channel": 1,
      "note": 95,
      "start": 33.9049,
      "duration": 0.2075,
      "velocity": 117,
      "chip": "ym2612"
    },
    {
      "channel": 2,
      "note": 78,
      "start": 33.9056,
      "duration": 0.2075,
      "velocity": 119,
      "chip": "ym2612"
    },
    {
      "channel": 3,
      "note": 74,
      "start": 33.9064,
      "duration": 0.0375,
      "velocity": 127,
      "chip": "ym2612"
    },
    {
      "channel": 4,
      "note": 75,
      "start": 33.9071,
      "duration": 0.2068,
      "velocity": 119,
      "chip": "ym2612"
    },
    {
      "channel": 0,
      "note": 67,
      "start": 33.9433,
      "duration": 0.1665,
      "velocity": 112,
      "chip": "ym2612"
    },
    {
      "channel": 3,
      "note": 69,
      "start": 33.9441,
      "duration": 0.3139,
      "velocity": 127,
      "chip": "ym2612"
    },
    {
      "channel": 0,
      "note": 59,
      "start": 34.11,
      "duration": 0.1942,
      "velocity": 112,
      "chip": "ym2612"
    },
    {
      "channel": 1,
      "note": 95,
      "start": 34.1126,
      "duration": 0.1942,
      "velocity": 117,
      "chip": "ym2612"
    },
    {
      "channel": 2,
      "note": 78,
      "start": 34.1133,
      "duration": 0.1942,
      "velocity": 119,
      "chip": "ym2612"
    },
    {
      "channel": 4,
      "note": 71,
      "start": 34.1141,
      "duration": 0.0773,
      "velocity": 119,
      "chip": "ym2612"
    },
    {
      "channel": 4,
      "note": 75,
      "start": 34.1917,
      "duration": 0.1166,
      "velocity": 119,
      "chip": "ym2612"
    },
    {
      "channel": 3,
      "note": 33,
      "start": 34.2583,
      "duration": 0.2147,
      "velocity": 127,
      "chip": "ym2612"
    },
    {
      "channel": 0,
      "note": 56,
      "start": 34.3044,
      "duration": 0.1665,
      "velocity": 112,
      "chip": "ym2612"
    },
    {
      "channel": 1,
      "note": 95,
      "start": 34.3071,
      "duration": 0.1645,
      "velocity": 117,
      "chip": "ym2612"
    },
    {
      "channel": 2,
      "note": 78,
      "start": 34.3078,
      "duration": 0.1645,
      "velocity": 119,
      "chip": "ym2612"
    },
    {
      "channel": 4,
      "note": 75,
      "start": 34.3086,
      "duration": 0.1651,
      "velocity": 119,
      "chip": "ym2612"
    },
    {
      "channel": 0,
      "note": 59,
      "start": 34.4712,
      "duration": 0.322,
      "velocity": 112,
      "chip": "ym2612"
    },
    {
      "channel": 1,
      "note": 97,
      "start": 34.4719,
      "duration": 0.1714,
      "velocity": 117,
      "chip": "ym2612"
    },
    {
      "channel": 2,
      "note": 80,
      "start": 34.4726,
      "duration": 0.1714,
      "velocity": 119,
      "chip": "ym2612"
    },
    {
      "channel": 3,
      "note": 69,
      "start": 34.4733,
      "duration": 0.1478,
      "velocity": 127,
      "chip": "ym2612"
    },
    {
      "channel": 4,
      "note": 76,
      "start": 34.474,
      "duration": 0.1714,
      "velocity": 119,
      "chip": "ym2612"
    },
    {
      "channel": 3,
      "note": 76,
      "start": 34.6213,
      "duration": 0.0234,
      "velocity": 127,
      "chip": "ym2612"
    },
    {
      "channel": 1,
      "note": 95,
      "start": 34.6435,
      "duration": 0.209,
      "velocity": 117,
      "chip": "ym2612"
    },
    {
      "channel": 2,
      "note": 78,
      "start": 34.6442,
      "duration": 0.209,
      "velocity": 119,
      "chip": "ym2612"
    },
    {
      "channel": 3,
      "note": 69,
      "start": 34.6449,
      "duration": 0.209,
      "velocity": 127,
      "chip": "ym2612"
    },
    {
      "channel": 4,
      "note": 75,
      "start": 34.6456,
      "duration": 0.2091,
      "velocity": 119,
      "chip": "ym2612"
    },
    {
      "channel": 0,
      "note": 59,
      "start": 34.7934,
      "duration": 0.0565,
      "velocity": 112,
      "chip": "ym2612"
    },
    {
      "channel": 0,
      "note": 59,
      "start": 34.8501,
      "duration": 0.1953,
      "velocity": 112,
      "chip": "ym2612"
    },
    {
      "channel": 1,
      "note": 95,
      "start": 34.8527,
      "duration": 0.1934,
      "velocity": 117,
      "chip": "ym2612"
    },
    {
      "channel": 2,
      "note": 78,
      "start": 34.8534,
      "duration": 0.1934,
      "velocity": 119,
      "chip": "ym2612"
    },
    {
      "channel": 3,
      "note": 33,
      "start": 34.8541,
      "duration": 0.1934,
      "velocity": 127,
      "chip": "ym2612"
    },
    {
      "channel": 4,
      "note": 71,
      "start": 34.8549,
      "duration": 0.0787,
      "velocity": 119,
      "chip": "ym2612"
    },
    {
      "channel": 5,
      "note": 73,
      "start": 34.8556,
      "duration": 0.5541,
      "velocity": 103,
      "chip": "ym2612"
    },
    {
      "channel": 4,
      "note": 75,
      "start": 34.9338,
      "duration": 0.083,
      "velocity": 119,
      "chip": "ym2612"
    },
    {
      "channel": 4,
      "note": 71,
      "start": 35.0169,
      "duration": 0.0006,
      "velocity": 119,
      "chip": "ym2612"
    },
    {
      "channel": 4,
      "note": 75,
      "start": 35.0177,
      "duration": 0.0305,
      "velocity": 119,
      "chip": "ym2612"
    },
    {
      "channel": 0,
      "note": 54,
      "start": 35.0456,
      "duration": 0.1721,
      "velocity": 112,
      "chip": "ym2612"
    },
    {
      "channel": 1,
      "note": 94,
      "start": 35.0463,
      "duration": 0.3605,
      "velocity": 117,
      "chip": "ym2612"
    },
    {
      "channel": 2,
      "note": 75,
      "start": 35.047,
      "duration": 0.3605,
      "velocity": 119,
      "chip": "ym2612"
    },
    {
      "channel": 3,
      "note": 79,
      "start": 35.0477,
      "duration": 0.1708,
      "velocity": 127,
      "chip": "ym2612"
    },
    {
      "channel": 4,
      "note": 71,
      "start": 35.0484,
      "duration": 0.0195,
      "velocity": 119,
      "chip": "ym2612"
    },
    {
      "channel": 4,
      "note": 66,
      "start": 35.0681,
      "duration": 0.1511,
      "velocity": 119,
      "chip": "ym2612"
    },
    {
      "channel": 0,
      "note": 52,
      "start": 35.2179,
      "duration": 0.3389,
      "velocity": 112,
      "chip": "ym2612"
    },
    {
      "channel": 3,
      "note": 33,
      "start": 35.2188,
      "duration": 0.1895,
      "velocity": 127,
      "chip": "ym2612"
    },
    {
      "channel": 4,
      "note": 59,
      "start": 35.2195,
      "duration": 0.0208,
      "velocity": 119,
      "chip": "ym2612"
    },
    {
      "channel": 4,
      "note": 56,
      "start": 35.2405,
      "duration": 0.1685,
      "velocity": 119,
      "chip": "ym2612"
    },
    {
      "channel": 1,
      "note": 95,
      "start": 35.407,
      "duration": 0.1524,
      "velocity": 117,
      "chip": "ym2612"
    },
    {
      "channel": 2,
      "note": 76,
      "start": 35.4077,
      "duration": 0.1524,
      "velocity": 119,
      "chip": "ym2612"
    },
    {
      "channel": 3,
      "note": 69,
      "start": 35.4084,
      "duration": 0.1524,
      "velocity": 127,
      "chip": "ym2612"
    },
    {
      "channel": 4,
      "note": 80,
      "start": 35.4091,
      "duration": 0.1524,
      "velocity": 119,
      "chip": "ym2612"
    },
    {
      "channel": 5,
      "note": 83,
      "start": 35.4098,
      "duration": 1.1178,
      "velocity": 103,
      "chip": "ym2612"
    },
    {
      "channel": 0,
      "note": 52,
      "start": 35.557,
      "duration": 0.2055,
      "velocity": 112,
      "chip": "ym2612"
    },
    {
      "channel": 1,
      "note": 95,
      "start": 35.5596,
      "duration": 0.2055,
      "velocity": 117,
      "chip": "ym2612"
    },
    {
      "channel": 2,
      "note": 76,
      "start": 35.5603,
      "duration": 0.2055,
      "velocity": 119,
      "chip": "ym2612"
    },
    {
      "channel": 3,
      "note": 74,
      "start": 35.561,
      "duration": 0.0516,
      "velocity": 127,
      "chip": "ym2612"
    },
    {
      "channel": 4,
      "note": 80,
      "start": 35.5617,
      "duration": 0.2049,
      "velocity": 119,
      "chip": "ym2612"
    },
    {
      "channel": 3,
      "note": 69,
      "start": 35.6129,
      "duration": 0.3165,
      "velocity": 127,
      "chip": "ym2612"
    },
    {
      "channel": 0,
      "note": 52,
      "start": 35.7627,
      "duration": 0.2128,
      "velocity": 112,
      "chip": "ym2612"
    },
    {
      "channel": 1,
      "note": 95,
      "start": 35.7653,
      "duration": 0.2128,
      "velocity": 117,
      "chip": "ym2612"
    },
    {
      "channel": 2,
      "note": 76,
      "start": 35.766,
      "duration": 0.2128,
      "velocity": 119,
      "chip": "ym2612"
    },
    {
      "channel": 4,
      "note": 80,
      "start": 35.7668,
      "duration": 0.2129,
      "velocity": 119,
      "chip": "ym2612"
    },
    {
      "channel": 3,
      "note": 33,
      "start": 35.9295,
      "duration": 0.2001,
      "velocity": 127,
      "chip": "ym2612"
    },
    {
      "channel": 0,
      "note": 52,
      "start": 35.9757,
      "duration": 0.1498,
      "velocity": 112,
      "chip": "ym2612"
    },
    {
      "channel": 1,
      "note": 95,
      "start": 35.9783,
      "duration": 0.1499,
      "velocity": 117,
      "chip": "ym2612"
    },
    {
      "channel": 2,
      "note": 76,
      "start": 35.979,
      "duration": 0.1499,
      "velocity": 119,
      "chip": "ym2612"
    },
    {
      "channel": 4,
      "note": 80,
      "start": 35.9798,
      "duration": 0.1505,
      "velocity": 119,
      "chip": "ym2612"
    },
    {
      "channel": 0,
      "note": 54,
      "start": 36.1257,
      "duration": 0.1732,
      "velocity": 112,
      "chip": "ym2612"
    },
    {
      "channel": 1,
      "note": 94,
      "start": 36.1284,
      "duration": 0.1732,
      "velocity": 117,
      "chip": "ym2612"
    },
    {
      "channel": 2,
      "note": 75,
      "start": 36.1291,
      "duration": 0.1733,
      "velocity": 119,
      "chip": "ym2612"
    },
    {
      "channel": 3,
      "note": 69,
      "start": 36.1298,
      "duration": 0.1626,
      "velocity": 127,
      "chip": "ym2612"
    },
    {
      "channel": 4,
      "note": 78,
      "start": 36.1305,
      "duration": 0.1733,
      "velocity": 119,
      "chip": "ym2612"
    },
    {
      "channel": 3,
      "note": 74,
      "start": 36.2926,
      "duration": 0.0105,
      "velocity": 127,
      "chip": "ym2612"
    },
    {
      "channel": 0,
      "note": 54,
      "start": 36.2992,
      "duration": 0.223,
      "velocity": 112,
      "chip": "ym2612"
    },
    {
      "channel": 1,
      "note": 92,
      "start": 36.3018,
      "duration": 0.223,
      "velocity": 117,
      "chip": "ym2612"
    },
    {
      "channel": 2,
      "note": 73,
      "start": 36.3025,
      "duration": 0.223,
      "velocity": 119,
      "chip": "ym2612"
    },
    {
      "channel": 3,
      "note": 69,
      "start": 36.3032,
      "duration": 0.223,
      "velocity": 127,
      "chip": "ym2612"
    },
    {
      "channel": 4,
      "note": 76,
      "start": 36.3039,
      "duration": 0.223,
      "velocity": 119,
      "chip": "ym2612"
    },
    {
      "channel": 0,
      "note": 59,
      "start": 36.5224,
      "duration": 0.2056,
      "velocity": 112,
      "chip": "ym2612"
    },
    {
      "channel": 1,
      "note": 90,
      "start": 36.5251,
      "duration": 0.4228,
      "velocity": 1,
      "chip": "ym2612"
    },
    {
      "channel": 2,
      "note": 71,
      "start": 36.5257,
      "duration": 0.573,
      "velocity": 119,
      "chip": "ym2612"
    },
    {
      "channel": 3,
      "note": 33,
      "start": 36.5265,
      "duration": 0.2024,
      "velocity": 127,
      "chip": "ym2612"
    },
    {
      "channel": 4,
      "note": 75,
      "start": 36.5272,
      "duration": 0.1452,
      "velocity": 119,
      "chip": "ym2612"
    },
    {
      "channel": 5,
      "note": 73,
      "start": 36.5279,
      "duration": 0.573,
      "velocity": 103,
      "chip": "ym2612"
    },
    {
      "channel": 4,
      "note": 71,
      "start": 36.6726,
      "duration": 0.057,
      "velocity": 119,
      "chip": "ym2612"
    },
    {
      "channel": 0,
      "note": 54,
      "start": 36.7283,
      "duration": 0.1955,
      "velocity": 112,
      "chip": "ym2612"
    },
    {
      "channel": 3,
      "note": 69,
      "start": 36.7291,
      "duration": 0.1956,
      "velocity": 127,
      "chip": "ym2612"
    },
    {
      "channel": 4,
      "note": 66,
      "start": 36.7298,
      "duration": 0.0294,
      "velocity": 119,
      "chip": "ym2612"
    },
    {
      "channel": 4,
      "note": 63,
      "start": 36.7595,
      "duration": 0.166,
      "velocity": 119,
      "chip": "ym2612"
    },
    {
      "channel": 0,
      "note": 52,
      "start": 36.9239,
      "duration": 0.3387,
      "velocity": 112,
      "chip": "ym2612"
    },
    {
      "channel": 3,
      "note": 33,
      "start": 36.9249,
      "duration": 0.1745,
      "velocity": 127,
      "chip": "ym2612"
    },
    {
      "channel": 4,
      "note": 64,
      "start": 36.9257,
      "duration": 0.0231,
      "velocity": 119,
      "chip": "ym2612"
    },
    {
      "channel": 1,
      "note": 55,
      "start": 36.9481,
      "duration": 0.1499,
      "velocity": 117,
      "chip": "ym2612"
    },
    {
      "channel": 4,
      "note": 59,
      "start": 36.949,
      "duration": 0.1512,
      "velocity": 119,
      "chip": "ym2612"
    },
    {
      "channel": 1,
      "note": 95,
      "start": 37.0982,
      "duration": 0.1672,
      "velocity": 117,
      "chip": "ym2612"
    },
    {
      "channel": 2,
      "note": 76,
      "start": 37.0989,
      "duration": 0.1671,
      "velocity": 119,
      "chip": "ym2612"
    },
    {
      "channel": 3,
      "note": 69,
      "start": 37.0997,
      "duration": 0.1671,
      "velocity": 127,
      "chip": "ym2612"
    },
    {
      "channel": 4,
      "note": 80,
      "start": 37.1004,
      "duration": 0.1671,
      "velocity": 119,
      "chip": "ym2612"
    },
    {
      "channel": 5,
      "note": 83,
      "start": 37.1011,
      "duration": 1.112,
      "velocity": 103,
      "chip": "ym2612"
    },
    {
      "channel": 0,
      "note": 52,
      "start": 37.2629,
      "duration": 0.0387,
      "velocity": 112,
      "chip": "ym2612"
    },
    {
      "channel": 1,
      "note": 95,
      "start": 37.2655,
      "duration": 0.2055,
      "velocity": 117,
      "chip": "ym2612"
    },
    {
      "channel": 2,
      "note": 76,
      "start": 37.2662,
      "duration": 0.2055,
      "velocity": 119,
      "chip": "ym2612"
    },
    {
      "channel": 3,
      "note": 74,
      "start": 37.2669,
      "duration": 0.0356,
      "velocity": 127,
      "chip": "ym2612"
    },
    {
      "channel": 4,
      "note": 80,
      "start": 37.2676,
      "duration": 0.2049,
      "velocity": 119,
      "chip": "ym2612"
    },
    {
      "channel": 0,
      "note": 64,
      "start": 37.3018,
      "duration": 0.1665,
      "velocity": 112,
      "chip": "ym2612"
    },
    {
      "channel": 3,
      "note": 69,
      "start": 37.3027,
      "duration": 0.3325,
      "velocity": 127,
      "chip": "ym2612"
    },
    {
      "channel": 0,
      "note": 52,
      "start": 37.4686,
      "duration": 0.1962,
      "velocity": 112,
      "chip": "ym2612"
    },
    {
      "channel": 1,
      "note": 95,
      "start": 37.4712,
      "duration": 0.1962,
      "velocity": 117,
      "chip": "ym2612"
    },
    {
      "channel": 2,
      "note": 76,
      "start": 37.4719,
      "duration": 0.1962,
      "velocity": 119,
      "chip": "ym2612"
    },
    {
      "channel": 4,
      "note": 80,
      "start": 37.4727,
      "duration": 0.1962,
      "velocity": 119,
      "chip": "ym2612"
    },
    {
      "channel": 3,
      "note": 33,
      "start": 37.6354,
      "duration": 0.1981,
      "velocity": 127,
      "chip": "ym2612"
    },
    {
      "channel": 0,
      "note": 52,
      "start": 37.6649,
      "duration": 0.1665,
      "velocity": 112,
      "chip": "ym2612"
    },
    {
      "channel": 1,
      "note": 95,
      "start": 37.6676,
      "duration": 0.1646,
      "velocity": 117,
      "chip": "ym2612"
    },
    {
      "channel": 2,
      "note": 76,
      "start": 37.6683,
      "duration": 0.1646,
      "velocity": 119,
      "chip": "ym2612"
    },
    {
      "channel": 4,
      "note": 80,
      "start": 37.6691,
      "duration": 0.1651,
      "velocity": 119,
      "chip": "ym2612"
    },
    {
      "channel": 0,
      "note": 54,
      "start": 37.8316,
      "duration": 0.1721,
      "velocity": 112,
      "chip": "ym2612"
    },
    {
      "channel": 1,
      "note": 94,
      "start": 37.8323,
      "duration": 0.1721,
      "velocity": 117,
      "chip": "ym2612"
    },
    {
      "channel": 2,
      "note": 78,
      "start": 37.833,
      "duration": 0.1721,
      "velocity": 119,
      "chip": "ym2612"
    },
    {
      "channel": 3,
      "note": 69,
      "start": 37.8338,
      "duration": 0.1478,
      "velocity": 127,
      "chip": "ym2612"
    },
    {
      "channel": 4,
      "note": 82,
      "start": 37.8345,
      "duration": 0.1721,
      "velocity": 119,
      "chip": "ym2612"
    },
    {
      "channel": 3,
      "note": 76,
      "start": 37.9818,
      "duration": 0.024,
      "velocity": 127,
      "chip": "ym2612"
    },
    {
      "channel": 0,
      "note": 54,
      "start": 38.0039,
      "duration": 0.2057,
      "velocity": 112,
      "chip": "ym2612"
    },
    {
      "channel": 1,
      "note": 92,
      "start": 38.0046,
      "duration": 0.2057,
      "velocity": 117,
      "chip": "ym2612"
    },
    {
      "channel": 2,
      "note": 76,
      "start": 38.0053,
      "duration": 0.2057,
      "velocity": 119,
      "chip": "ym2612"
    },
    {
      "channel": 3,
      "note": 69,
      "start": 38.0061,
      "duration": 0.2057,
      "velocity": 127,
      "chip": "ym2612"
    },
    {
      "channel": 4,
      "note": 80,
      "start": 38.0068,
      "duration": 0.2057,
      "velocity": 119,
      "chip": "ym2612"
    },
    {
      "channel": 0,
      "note": 47,
      "start": 38.2098,
      "duration": 0.1955,
      "velocity": 112,
      "chip": "ym2612"
    },
    {
      "channel": 1,
      "note": 90,
      "start": 38.2105,
      "duration": 0.3926,
      "velocity": 119,
      "chip": "ym2612"
    },
    {
      "channel": 2,
      "note": 71,
      "start": 38.2112,
      "duration": 0.082,
      "velocity": 119,
      "chip": "ym2612"
    },
    {
      "channel": 3,
      "note": 33,
      "start": 38.2119,
      "duration": 0.1969,
      "velocity": 127,
      "chip": "ym2612"
    },
    {
      "channel": 4,
      "note": 75,
      "start": 38.2126,
      "duration": 0.0813,
      "velocity": 119,
      "chip": "ym2612"
    },
    {
      "channel": 5,
      "note": 73,
      "start": 38.2134,
      "duration": 0.5545,
      "velocity": 103,
      "chip": "ym2612"
    },
    {
      "channel": 2,
      "note": 75,
      "start": 38.2934,
      "duration": 0.083,
      "velocity": 119,
      "chip": "ym2612"
    },
    {
      "channel": 4,
      "note": 78,
      "start": 38.2941,
      "duration": 0.083,
      "velocity": 119,
      "chip": "ym2612"
    },
    {
      "channel": 2,
      "note": 71,
      "start": 38.3766,
      "duration": 0.0015,
      "velocity": 119,
      "chip": "ym2612"
    },
    {
      "channel": 4,
      "note": 75,
      "start": 38.3773,
      "duration": 0.001,
      "velocity": 119,
      "chip": "ym2612"
    },
    {
      "channel": 2,
      "note": 75,
      "start": 38.3782,
      "duration": 0.03,
      "velocity": 119,
      "chip": "ym2612"
    },
    {
      "channel": 4,
      "note": 78,
      "start": 38.3785,
      "duration": 0.031,
      "velocity": 119,
      "chip": "ym2612"
    },
    {
      "channel": 0,
      "note": 54,
      "start": 38.4055,
      "duration": 0.0219,
      "velocity": 112,
      "chip": "ym2612"
    },
    {
      "channel": 2,
      "note": 71,
      "start": 38.4083,
      "duration": 0.1888,
      "velocity": 109,
      "chip": "ym2612"
    },
    {
      "channel": 3,
      "note": 79,
      "start": 38.4091,
      "duration": 0.1888,
      "velocity": 127,
      "chip": "ym2612"
    },
    {
      "channel": 4,
      "note": 75,
      "start": 38.4098,
      "duration": 0.1907,
      "velocity": 109,
      "chip": "ym2612"
    },
    {
      "channel": 0,
      "note": 56,
      "start": 38.4276,
      "duration": 0.1667,
      "velocity": 112,
      "chip": "ym2612"
    },
    {
      "channel": 0,
      "note": 59,
      "start": 38.5945,
      "duration": 0.3224,
      "velocity": 112,
      "chip": "ym2612"
    },
    {
      "channel": 2,
      "note": 83,
      "start": 38.5973,
      "duration": 0.3763,
      "velocity": 109,
      "chip": "ym2612"
    },
    {
      "channel": 3,
      "note": 33,
      "start": 38.5981,
      "duration": 0.169,
      "velocity": 127,
      "chip": "ym2612"
    },
    {
      "channel": 4,
      "note": 78,
      "start": 38.6007,
      "duration": 0.3742,
      "velocity": 109,
      "chip": "ym2612"
    },
    {
      "channel": 1,
      "note": 66,
      "start": 38.6034,
      "duration": 0.3142,
      "velocity": 119,
      "chip": "ym2612"
    },
    {
      "channel": 3,
      "note": 69,
      "start": 38.7673,
      "duration": 0.1511,
      "velocity": 127,
      "chip": "ym2612"
    },
    {
      "channel": 5,
      "note": 83,
      "start": 38.7682,
      "duration": 1.1146,
      "velocity": 103,
      "chip": "ym2612"
    },
    {
      "channel": 0,
      "note": 51,
      "start": 38.9171,
      "duration": 0.0556,
      "velocity": 112,
      "chip": "ym2612"
    },
    {
      "channel": 1,
      "note": 66,
      "start": 38.9178,
      "duration": 0.2216,
      "velocity": 119,
      "chip": "ym2612"
    },
    {
      "channel": 3,
      "note": 74,
      "start": 38.9185,
      "duration": 0.0557,
      "velocity": 127,
      "chip": "ym2612"
    },
    {
      "channel": 0,
      "note": 52,
      "start": 38.9729,
      "duration": 0.3164,
      "velocity": 112,
      "chip": "ym2612"
    },
    {
      "channel": 2,
      "note": 85,
      "start": 38.9737,
      "duration": 0.3628,
      "velocity": 109,
      "chip": "ym2612"
    },
    {
      "channel": 3,
      "note": 69,
      "start": 38.9744,
      "duration": 0.3159,
      "velocity": 127,
      "chip": "ym2612"
    },
    {
      "channel": 4,
      "note": 78,
      "start": 38.9751,
      "duration": 0.3621,
      "velocity": 109,
      "chip": "ym2612"
    },
    {
      "channel": 1,
      "note": 66,
      "start": 39.1396,
      "duration": 0.1961,
      "velocity": 119,
      "chip": "ym2612"
    },
    {
      "channel": 0,
      "note": 54,
      "start": 39.2895,
      "duration": 0.0455,
      "velocity": 112,
      "chip": "ym2612"
    },
    {
      "channel": 3,
      "note": 33,
      "start": 39.2904,
      "duration": 0.1955,
      "velocity": 127,
      "chip": "ym2612"
    },
    {
      "channel": 0,
      "note": 47,
      "start": 39.3353,
      "duration": 0.3387,
      "velocity": 112,
      "chip": "ym2612"
    },
    {
      "channel": 1,
      "note": 66,
      "start": 39.336,
      "duration": 0.1491,
      "velocity": 119,
      "chip": "ym2612"
    },
    {
      "channel": 2,
      "note": 83,
      "start": 39.3367,
      "duration": 0.544,
      "velocity": 109,
      "chip": "ym2612"
    },
    {
      "channel": 4,
      "note": 75,
      "start": 39.3374,
      "duration": 0.5447,
      "velocity": 109,
      "chip": "ym2612"
    },
    {
      "channel": 1,
      "note": 71,
      "start": 39.4853,
      "duration": 0.1665,
      "velocity": 119,
      "chip": "ym2612"
    },
    {
      "channel": 3,
      "note": 69,
      "start": 39.4861,
      "duration": 0.1665,
      "velocity": 127,
      "chip": "ym2612"
    },
    {
      "channel": 1,
      "note": 71,
      "start": 39.652,
      "duration": 0.0227,
      "velocity": 119,
      "chip": "ym2612"
    },
    {
      "channel": 3,
      "note": 76,
      "start": 39.6527,
      "duration": 0.0227,
      "velocity": 127,
      "chip": "ym2612"
    },
    {
      "channel": 0,
      "note": 59,
      "start": 39.6741,
      "duration": 0.3557,
      "velocity": 112,
      "chip": "ym2612"
    },
    {
      "channel": 1,
      "note": 66,
      "start": 39.6749,
      "duration": 0.2051,
      "velocity": 119,
      "chip": "ym2612"
    },
    {
      "channel": 3,
      "note": 69,
      "start": 39.6757,
      "duration": 0.2057,
      "velocity": 127,
      "chip": "ym2612"
    },
    {
      "channel": 1,
      "note": 59,
      "start": 39.8802,
      "duration": 0.0832,
      "velocity": 119,
      "chip": "ym2612"
    },
    {
      "channel": 2,
      "note": 78,
      "start": 39.8809,
      "duration": 0.3684,
      "velocity": 109,
      "chip": "ym2612"
    },
    {
      "channel": 3,
      "note": 33,
      "start": 39.8816,
      "duration": 0.1948,
      "velocity": 127,
      "chip": "ym2612"
    },
    {
      "channel": 4,
      "note": 75,
      "start": 39.8823,
      "duration": 0.3684,
      "velocity": 109,
      "chip": "ym2612"
    },
    {
      "channel": 5,
      "note": 73,
      "start": 39.883,
      "duration": 0.5381,
      "velocity": 103,
      "chip": "ym2612"
    },
    {
      "channel": 1,
      "note": 63,
      "start": 39.9635,
      "duration": 0.112,
      "velocity": 119,
      "chip": "ym2612"
    },
    {
      "channel": 0,
      "note": 47,
      "start": 40.03,
      "duration": 0.0677,
      "velocity": 112,
      "chip": "ym2612"
    },
    {
      "channel": 1,
      "note": 59,
      "start": 40.0758,
      "duration": 0.1728,
      "velocity": 119,
      "chip": "ym2612"
    },
    {
      "channel": 3,
      "note": 79,
      "start": 40.0765,
      "duration": 0.1734,
      "velocity": 127,
      "chip": "ym2612"
    },
    {
      "channel": 0,
      "note": 49,
      "start": 40.0979,
      "duration": 0.15,
      "velocity": 112,
      "chip": "ym2612"
    },
    {
      "channel": 0,
      "note": 52,
      "start": 40.2481,
      "duration": 0.3387,
      "velocity": 112,
      "chip": "ym2612"
    },
    {
      "channel": 1,
      "note": 64,
      "start": 40.2488,
      "duration": 0.3388,
      "velocity": 119,
      "chip": "ym2612"
    },
    {
      "channel": 2,
      "note": 80,
      "start": 40.2495,
      "duration": 0.394,
      "velocity": 109,
      "chip": "ym2612"
    },
    {
      "channel": 3,
      "note": 33,
      "start": 40.2502,
      "duration": 0.1702,
      "velocity": 127,
      "chip": "ym2612"
    },
    {
      "channel": 4,
      "note": 76,
      "start": 40.2509,
      "duration": 0.394,
      "velocity": 109,
      "chip": "ym2612"
    },
    {
      "channel": 3,
      "note": 69,
      "start": 40.4205,
      "duration": 0.1678,
      "velocity": 127,
      "chip": "ym2612"
    },
    {
      "channel": 5,
      "note": 83,
      "start": 40.4214,
      "duration": 1.1152,
      "velocity": 103,
      "chip": "ym2612"
    },
    {
      "channel": 0,
      "note": 49,
      "start": 40.587,
      "duration": 0.3723,
      "velocity": 112,
      "chip": "ym2612"
    },
    {
      "channel": 1,
      "note": 64,
      "start": 40.5877,
      "duration": 0.055,
      "velocity": 119,
      "chip": "ym2612"
    },
    {
      "channel": 3,
      "note": 74,
      "start": 40.5885,
      "duration": 0.0557,
      "velocity": 127,
      "chip": "ym2612"
    },
    {
      "channel": 1,
      "note": 61,
      "start": 40.6429,
      "duration": 0.1497,
      "velocity": 119,
      "chip": "ym2612"
    },
    {
      "channel": 2,
      "note": 78,
      "start": 40.6436,
      "duration": 0.5121,
      "velocity": 109,
      "chip": "ym2612"
    },
    {
      "channel": 3,
      "note": 69,
      "start": 40.6443,
      "duration": 0.3165,
      "velocity": 127,
      "chip": "ym2612"
    },
    {
      "channel": 4,
      "note": 75,
      "start": 40.6451,
      "duration": 0.512,
      "velocity": 109,
      "chip": "ym2612"
    },
    {
      "channel": 1,
      "note": 63,
      "start": 40.7929,
      "duration": 0.1672,
      "velocity": 119,
      "chip": "ym2612"
    },
    {
      "channel": 0,
      "note": 52,
      "start": 40.9595,
      "duration": 0.1954,
      "velocity": 112,
      "chip": "ym2612"
    },
    {
      "channel": 1,
      "note": 64,
      "start": 40.9602,
      "duration": 0.028,
      "velocity": 119,
      "chip": "ym2612"
    },
    {
      "channel": 3,
      "note": 33,
      "start": 40.961,
      "duration": 0.1954,
      "velocity": 127,
      "chip": "ym2612"
    },
    {
      "channel": 1,
      "note": 66,
      "start": 40.9885,
      "duration": 0.3332,
      "velocity": 119,
      "chip": "ym2612"
    },
    {
      "channel": 0,
      "note": 49,
      "start": 41.1551,
      "duration": 0.3387,
      "velocity": 112,
      "chip": "ym2612"
    },
    {
      "channel": 2,
      "note": 80,
      "start": 41.1559,
      "duration": 0.3786,
      "velocity": 109,
      "chip": "ym2612"
    },
    {
      "channel": 3,
      "note": 69,
      "start": 41.1566,
      "duration": 0.1658,
      "velocity": 127,
      "chip": "ym2612"
    },
    {
      "channel": 4,
      "note": 76,
      "start": 41.1573,
      "duration": 0.3786,
      "velocity": 109,
      "chip": "ym2612"
    },
    {
      "channel": 1,
      "note": 66,
      "start": 41.3219,
      "duration": 0.0053,
      "velocity": 119,
      "chip": "ym2612"
    },
    {
      "channel": 3,
      "note": 74,
      "start": 41.3226,
      "duration": 0.0054,
      "velocity": 127,
      "chip": "ym2612"
    },
    {
      "channel": 1,
      "note": 61,
      "start": 41.3274,
      "duration": 0.2064,
      "velocity": 119,
      "chip": "ym2612"
    },
    {
      "channel": 3,
      "note": 69,
      "start": 41.3282,
      "duration": 0.207,
      "velocity": 127,
      "chip": "ym2612"
    },
    {
      "channel": 0,
      "note": 52,
      "start": 41.494,
      "duration": 0.0391,
      "velocity": 112,
      "chip": "ym2612"
    },
    {
      "channel": 0,
      "note": 64,
      "start": 41.5333,
      "duration": 0.1663,
      "velocity": 112,
      "chip": "ym2612"
    },
    {
      "channel": 1,
      "note": 58,
      "start": 41.534,
      "duration": 0.1663,
      "velocity": 119,
      "chip": "ym2612"
    },
    {
      "channel": 2,
      "note": 83,
      "start": 41.5347,
      "duration": 0.5908,
      "velocity": 119,
      "chip": "ym2612"
    },
    {
      "channel": 3,
      "note": 33,
      "start": 41.5354,
      "duration": 0.2216,
      "velocity": 127,
      "chip": "ym2612"
    },
    {
      "channel": 4,
      "note": 78,
      "start": 41.5361,
      "duration": 0.5928,
      "velocity": 119,
      "chip": "ym2612"
    },
    {
      "channel": 5,
      "note": 73,
      "start": 41.5369,
      "duration": 0.5928,
      "velocity": 103,
      "chip": "ym2612"
    },
    {
      "channel": 0,
      "note": 66,
      "start": 41.6998,
      "duration": 0.0557,
      "velocity": 112,
      "chip": "ym2612"
    },
    {
      "channel": 1,
      "note": 59,
      "start": 41.7005,
      "duration": 0.0557,
      "velocity": 119,
      "chip": "ym2612"
    },
    {
      "channel": 0,
      "note": 54,
      "start": 41.7557,
      "duration": 0.1955,
      "velocity": 112,
      "chip": "ym2612"
    },
    {
      "channel": 1,
      "note": 61,
      "start": 41.7564,
      "duration": 3.3016,
      "velocity": 117,
      "chip": "ym2612"
    },
    {
      "channel": 3,
      "note": 69,
      "start": 41.7572,
      "duration": 0.195,
      "velocity": 127,
      "chip": "ym2612"
    },
    {
      "channel": 0,
      "note": 59,
      "start": 41.9515,
      "duration": 0.3386,
      "velocity": 112,
      "chip": "ym2612"
    },
    {
      "channel": 3,
      "note": 33,
      "start": 41.9524,
      "duration": 0.1738,
      "velocity": 127,
      "chip": "ym2612"
    },
    {
      "channel": 2,
      "note": 78,
      "start": 42.1257,
      "duration": 0.1652,
      "velocity": 119,
      "chip": "ym2612"
    },
    {
      "channel": 3,
      "note": 69,
      "start": 42.1265,
      "duration": 0.1651,
      "velocity": 127,
      "chip": "ym2612"
    },
    {
      "channel": 4,
      "note": 75,
      "start": 42.1291,
      "duration": 0.1632,
      "velocity": 119,
      "chip": "ym2612"
    },
    {
      "channel": 5,
      "note": 83,
      "start": 42.1299,
      "duration": 1.1094,
      "velocity": 103,
      "chip": "ym2612"
    },
    {
      "channel": 0,
      "note": 59,
      "start": 42.2903,
      "duration": 0.0408,
      "velocity": 1,
      "chip": "ym2612"
    },
    {
      "channel": 2,
      "note": 78,
      "start": 42.2911,
      "duration": 0.2075,
      "velocity": 119,
      "chip": "ym2612"
    },
    {
      "channel": 3,
      "note": 74,
      "start": 42.2918,
      "duration": 0.0402,
      "velocity": 127,
      "chip": "ym2612"
    },
    {
      "channel": 4,
      "note": 75,
      "start": 42.2925,
      "duration": 0.2069,
      "velocity": 119,
      "chip": "ym2612"
    },
    {
      "channel": 0,
      "note": 67,
      "start": 42.3314,
      "duration": 0.1665,
      "velocity": 112,
      "chip": "ym2612"
    },
    {
      "channel": 3,
      "note": 69,
      "start": 42.3322,
      "duration": 0.3139,
      "velocity": 127,
      "chip": "ym2612"
    },
    {
      "channel": 0,
      "note": 59,
      "start": 42.498,
      "duration": 0.1935,
      "velocity": 112,
      "chip": "ym2612"
    },
    {
      "channel": 2,
      "note": 78,
      "start": 42.4988,
      "duration": 0.1935,
      "velocity": 119,
      "chip": "ym2612"
    },
    {
      "channel": 4,
      "note": 71,
      "start": 42.4996,
      "duration": 0.08,
      "velocity": 119,
      "chip": "ym2612"
    },
    {
      "channel": 4,
      "note": 75,
      "start": 42.5798,
      "duration": 0.1133,
      "velocity": 119,
      "chip": "ym2612"
    },
    {
      "channel": 3,
      "note": 33,
      "start": 42.6464,
      "duration": 0.2133,
      "velocity": 127,
      "chip": "ym2612"
    },
    {
      "channel": 0,
      "note": 56,
      "start": 42.6917,
      "duration": 0.1665,
      "velocity": 112,
      "chip": "ym2612"
    },
    {
      "channel": 2,
      "note": 78,
      "start": 42.6925,
      "duration": 0.1665,
      "velocity": 119,
      "chip": "ym2612"
    },
    {
      "channel": 4,
      "note": 75,
      "start": 42.6933,
      "duration": 0.1671,
      "velocity": 119,
      "chip": "ym2612"
    },
    {
      "channel": 0,
      "note": 59,
      "start": 42.8584,
      "duration": 0.3221,
      "velocity": 112,
      "chip": "ym2612"
    },
    {
      "channel": 2,
      "note": 80,
      "start": 42.8592,
      "duration": 0.1715,
      "velocity": 119,
      "chip": "ym2612"
    },
    {
      "channel": 3,
      "note": 69,
      "start": 42.8599,
      "duration": 0.1485,
      "velocity": 127,
      "chip": "ym2612"
    },
    {
      "channel": 4,
      "note": 76,
      "start": 42.8606,
      "duration": 0.1715,
      "velocity": 119,
      "chip": "ym2612"
    },
    {
      "channel": 3,
      "note": 76,
      "start": 43.0086,
      "duration": 0.0228,
      "velocity": 127,
      "chip": "ym2612"
    },
    {
      "channel": 2,
      "note": 78,
      "start": 43.0309,
      "duration": 0.2064,
      "velocity": 119,
      "chip": "ym2612"
    },
    {
      "channel": 3,
      "note": 69,
      "start": 43.0316,
      "duration": 0.2064,
      "velocity": 127,
      "chip": "ym2612"
    },
    {
      "channel": 4,
      "note": 75,
      "start": 43.0323,
      "duration": 0.2064,
      "velocity": 119,
      "chip": "ym2612"
    },
    {
      "channel": 0,
      "note": 59,
      "start": 43.1807,
      "duration": 0.0557,
      "velocity": 112,
      "chip": "ym2612"
    },
    {
      "channel": 0,
      "note": 59,
      "start": 43.2366,
      "duration": 0.1953,
      "velocity": 112,
      "chip": "ym2612"
    },
    {
      "channel": 2,
      "note": 78,
      "start": 43.2374,
      "duration": 0.1953,
      "velocity": 119,
      "chip": "ym2612"
    },
    {
      "channel": 3,
      "note": 33,
      "start": 43.2381,
      "duration": 0.1953,
      "velocity": 127,
      "chip": "ym2612"
    },
    {
      "channel": 4,
      "note": 71,
      "start": 43.2388,
      "duration": 0.0813,
      "velocity": 119,
      "chip": "ym2612"
    },
    {
      "channel": 5,
      "note": 73,
      "start": 43.2395,
      "duration": 0.5562,
      "velocity": 103,
      "chip": "ym2612"
    },
    {
      "channel": 4,
      "note": 75,
      "start": 43.3203,
      "duration": 0.083,
      "velocity": 119,
      "chip": "ym2612"
    },
    {
      "channel": 4,
      "note": 71,
      "start": 43.4035,
      "duration": 0.0006,
      "velocity": 119,
      "chip": "ym2612"
    },
    {
      "channel": 4,
      "note": 75,
      "start": 43.4043,
      "duration": 0.0298,
      "velocity": 119,
      "chip": "ym2612"
    },
    {
      "channel": 0,
      "note": 54,
      "start": 43.4321,
      "duration": 0.1722,
      "velocity": 112,
      "chip": "ym2612"
    },
    {
      "channel": 2,
      "note": 75,
      "start": 43.4329,
      "duration": 0.3606,
      "velocity": 119,
      "chip": "ym2612"
    },
    {
      "channel": 3,
      "note": 79,
      "start": 43.4336,
      "duration": 0.1717,
      "velocity": 127,
      "chip": "ym2612"
    },
    {
      "channel": 4,
      "note": 71,
      "start": 43.4343,
      "duration": 0.0201,
      "velocity": 119,
      "chip": "ym2612"
    },
    {
      "channel": 4,
      "note": 66,
      "start": 43.4547,
      "duration": 0.3403,
      "velocity": 119,
      "chip": "ym2612"
    },
    {
      "channel": 0,
      "note": 59,
      "start": 43.6045,
      "duration": 0.3387,
      "velocity": 112,
      "chip": "ym2612"
    },
    {
      "channel": 3,
      "note": 33,
      "start": 43.6055,
      "duration": 0.1887,
      "velocity": 127,
      "chip": "ym2612"
    },
    {
      "channel": 2,
      "note": 78,
      "start": 43.7937,
      "duration": 0.1504,
      "velocity": 119,
      "chip": "ym2612"
    },
    {
      "channel": 3,
      "note": 69,
      "start": 43.7944,
      "duration": 0.1504,
      "velocity": 127,
      "chip": "ym2612"
    },
    {
      "channel": 4,
      "note": 75,
      "start": 43.7951,
      "duration": 0.1503,
      "velocity": 119,
      "chip": "ym2612"
    },
    {
      "channel": 5,
      "note": 83,
      "start": 43.7959,
      "duration": 1.1131,
      "velocity": 103,
      "chip": "ym2612"
    },
    {
      "channel": 0,
      "note": 59,
      "start": 43.9434,
      "duration": 0.0575,
      "velocity": 1,
      "chip": "ym2612"
    },
    {
      "channel": 2,
      "note": 78,
      "start": 43.9442,
      "duration": 0.2075,
      "velocity": 119,
      "chip": "ym2612"
    },
    {
      "channel": 3,
      "note": 74,
      "start": 43.9449,
      "duration": 0.0569,
      "velocity": 127,
      "chip": "ym2612"
    },
    {
      "channel": 4,
      "note": 75,
      "start": 43.9456,
      "duration": 0.2069,
      "velocity": 119,
      "chip": "ym2612"
    },
    {
      "channel": 0,
      "note": 67,
      "start": 44.0012,
      "duration": 0.1498,
      "velocity": 112,
      "chip": "ym2612"
    },
    {
      "channel": 3,
      "note": 69,
      "start": 44.002,
      "duration": 0.3139,
      "velocity": 127,
      "chip": "ym2612"
    },
    {
      "channel": 0,
      "note": 59,
      "start": 44.1512,
      "duration": 0.2101,
      "velocity": 112,
      "chip": "ym2612"
    },
    {
      "channel": 2,
      "note": 78,
      "start": 44.152,
      "duration": 0.2101,
      "velocity": 119,
      "chip": "ym2612"
    },
    {
      "channel": 4,
      "note": 71,
      "start": 44.1528,
      "duration": 0.08,
      "velocity": 119,
      "chip": "ym2612"
    },
    {
      "channel": 4,
      "note": 75,
      "start": 44.2329,
      "duration": 0.1299,
      "velocity": 119,
      "chip": "ym2612"
    },
    {
      "channel": 3,
      "note": 33,
      "start": 44.3162,
      "duration": 0.1966,
      "velocity": 127,
      "chip": "ym2612"
    },
    {
      "channel": 0,
      "note": 56,
      "start": 44.3615,
      "duration": 0.1499,
      "velocity": 112,
      "chip": "ym2612"
    },
    {
      "channel": 2,
      "note": 78,
      "start": 44.3623,
      "duration": 0.1498,
      "velocity": 119,
      "chip": "ym2612"
    },
    {
      "channel": 4,
      "note": 75,
      "start": 44.363,
      "duration": 0.1505,
      "velocity": 119,
      "chip": "ym2612"
    },
    {
      "channel": 0,
      "note": 59,
      "start": 44.5115,
      "duration": 0.3387,
      "velocity": 112,
      "chip": "ym2612"
    },
    {
      "channel": 2,
      "note": 80,
      "start": 44.5123,
      "duration": 0.1714,
      "velocity": 119,
      "chip": "ym2612"
    },
    {
      "channel": 3,
      "note": 69,
      "start": 44.513,
      "duration": 0.1651,
      "velocity": 127,
      "chip": "ym2612"
    },
    {
      "channel": 4,
      "note": 76,
      "start": 44.5137,
      "duration": 0.1714,
      "velocity": 119,
      "chip": "ym2612"
    },
    {
      "channel": 3,
      "note": 76,
      "start": 44.6784,
      "duration": 0.006,
      "velocity": 127,
      "chip": "ym2612"
    },
    {
      "channel": 2,
      "note": 78,
      "start": 44.6839,
      "duration": 0.223,
      "velocity": 119,
      "chip": "ym2612"
    },
    {
      "channel": 3,
      "note": 69,
      "start": 44.6846,
      "duration": 0.223,
      "velocity": 127,
      "chip": "ym2612"
    },
    {
      "channel": 4,
      "note": 75,
      "start": 44.6854,
      "duration": 0.223,
      "velocity": 119,
      "chip": "ym2612"
    },
    {
      "channel": 0,
      "note": 59,
      "start": 44.8504,
      "duration": 0.0557,
      "velocity": 112,
      "chip": "ym2612"
    },
    {
      "channel": 0,
      "note": 59,
      "start": 44.9063,
      "duration": 0.1954,
      "velocity": 112,
      "chip": "ym2612"
    },
    {
      "channel": 2,
      "note": 78,
      "start": 44.9071,
      "duration": 0.196,
      "velocity": 119,
      "chip": "ym2612"
    },
    {
      "channel": 3,
      "note": 33,
      "start": 44.9078,
      "duration": 0.196,
      "velocity": 127,
      "chip": "ym2612"
    },
    {
      "channel": 4,
      "note": 71,
      "start": 44.9085,
      "duration": 0.0646,
      "velocity": 119,
      "chip": "ym2612"
    },
    {
      "channel": 5,
      "note": 73,
      "start": 44.9092,
      "duration": 0.538,
      "velocity": 103,
      "chip": "ym2612"
    },
    {
      "channel": 4,
      "note": 75,
      "start": 44.9733,
      "duration": 0.0856,
      "velocity": 119,
      "chip": "ym2612"
    },
    {
      "channel": 1,
      "note": 71,
      "start": 45.0583,
      "duration": 0.0442,
      "velocity": 117,
      "chip": "ym2612"
    },
    {
      "channel": 4,
      "note": 71,
      "start": 45.0591,
      "duration": 0.0007,
      "velocity": 119,
      "chip": "ym2612"
    },
    {
      "channel": 4,
      "note": 75,
      "start": 45.06,
      "duration": 0.0445,
      "velocity": 119,
      "chip": "ym2612"
    },
    {
      "channel": 0,
      "note": 54,
      "start": 45.1019,
      "duration": 0.1721,
      "velocity": 112,
      "chip": "ym2612"
    },
    {
      "channel": 1,
      "note": 75,
      "start": 45.1026,
      "duration": 0.0046,
      "velocity": 117,
      "chip": "ym2612"
    },
    {
      "channel": 2,
      "note": 75,
      "start": 45.1033,
      "duration": 0.193,
      "velocity": 119,
      "chip": "ym2612"
    },
    {
      "channel": 3,
      "note": 79,
      "start": 45.104,
      "duration": 0.1716,
      "velocity": 127,
      "chip": "ym2612"
    },
    {
      "channel": 4,
      "note": 71,
      "start": 45.1047,
      "duration": 0.0034,
      "velocity": 119,
      "chip": "ym2612"
    },
    {
      "channel": 1,
      "note": 78,
      "start": 45.1075,
      "duration": 0.1674,
      "velocity": 117,
      "chip": "ym2612"
    },
    {
      "channel": 4,
      "note": 66,
      "start": 45.1083,
      "duration": 0.1889,
      "velocity": 119,
      "chip": "ym2612"
    },
    {
      "channel": 0,
      "note": 54,
      "start": 45.2742,
      "duration": 0.3386,
      "velocity": 112,
      "chip": "ym2612"
    },
    {
      "channel": 1,
      "note": 81,
      "start": 45.275,
      "duration": 0.7111,
      "velocity": 117,
      "chip": "ym2612"
    },
    {
      "channel": 3,
      "note": 33,
      "start": 45.2759,
      "duration": 0.1705,
      "velocity": 127,
      "chip": "ym2612"
    },
    {
      "channel": 2,
      "note": 66,
      "start": 45.2965,
      "duration": 0.3172,
      "velocity": 119,
      "chip": "ym2612"
    },
    {
      "channel": 4,
      "note": 69,
      "start": 45.2974,
      "duration": 0.3177,
      "velocity": 119,
      "chip": "ym2612"
    },
    {
      "channel": 3,
      "note": 69,
      "start": 45.4466,
      "duration": 0.1678,
      "velocity": 127,
      "chip": "ym2612"
    },
    {
      "channel": 5,
      "note": 83,
      "start": 45.4475,
      "duration": 1.1139,
      "velocity": 103,
      "chip": "ym2612"
    },
    {
      "channel": 0,
      "note": 66,
      "start": 45.6131,
      "duration": 0.0408,
      "velocity": 1,
      "chip": "ym2612"
    },
    {
      "channel": 2,
      "note": 66,
      "start": 45.6139,
      "duration": 0.2075,
      "velocity": 119,
      "chip": "ym2612"
    },
    {
      "channel": 3,
      "note": 74,
      "start": 45.6146,
      "duration": 0.0402,
      "velocity": 127,
      "chip": "ym2612"
    },
    {
      "channel": 4,
      "note": 69,
      "start": 45.6153,
      "duration": 0.2069,
      "velocity": 119,
      "chip": "ym2612"
    },
    {
      "channel": 0,
      "note": 55,
      "start": 45.6541,
      "duration": 0.1665,
      "velocity": 112,
      "chip": "ym2612"
    },
    {
      "channel": 3,
      "note": 69,
      "start": 45.655,
      "duration": 0.3326,
      "velocity": 127,
      "chip": "ym2612"
    },
    {
      "channel": 0,
      "note": 66,
      "start": 45.8208,
      "duration": 0.1646,
      "velocity": 112,
      "chip": "ym2612"
    },
    {
      "channel": 2,
      "note": 66,
      "start": 45.8216,
      "duration": 0.1653,
      "velocity": 119,
      "chip": "ym2612"
    },
    {
      "channel": 4,
      "note": 69,
      "start": 45.8224,
      "duration": 0.1659,
      "velocity": 119,
      "chip": "ym2612"
    },
    {
      "channel": 0,
      "note": 54,
      "start": 45.9856,
      "duration": 0.1953,
      "velocity": 112,
      "chip": "ym2612"
    },
    {
      "channel": 1,
      "note": 83,
      "start": 45.9863,
      "duration": 0.028,
      "velocity": 117,
      "chip": "ym2612"
    },
    {
      "channel": 2,
      "note": 69,
      "start": 45.987,
      "duration": 0.028,
      "velocity": 119,
      "chip": "ym2612"
    },
    {
      "channel": 3,
      "note": 33,
      "start": 45.9877,
      "duration": 0.1947,
      "velocity": 127,
      "chip": "ym2612"
    },
    {
      "channel": 4,
      "note": 66,
      "start": 45.9884,
      "duration": 0.0274,
      "velocity": 119,
      "chip": "ym2612"
    },
    {
      "channel": 1,
      "note": 81,
      "start": 46.0146,
      "duration": 0.167,
      "velocity": 117,
      "chip": "ym2612"
    },
    {
      "channel": 2,
      "note": 66,
      "start": 46.0153,
      "duration": 0.3159,
      "velocity": 119,
      "chip": "ym2612"
    },
    {
      "channel": 4,
      "note": 61,
      "start": 46.016,
      "duration": 0.3166,
      "velocity": 119,
      "chip": "ym2612"
    },
    {
      "channel": 0,
      "note": 52,
      "start": 46.1811,
      "duration": 0.378,
      "velocity": 112,
      "chip": "ym2612"
    },
    {
      "channel": 1,
      "note": 80,
      "start": 46.1818,
      "duration": 0.378,
      "velocity": 117,
      "chip": "ym2612"
    },
    {
      "channel": 3,
      "note": 69,
      "start": 46.1826,
      "duration": 0.1492,
      "velocity": 127,
      "chip": "ym2612"
    },
    {
      "channel": 2,
      "note": 64,
      "start": 46.3314,
      "duration": 0.1887,
      "velocity": 119,
      "chip": "ym2612"
    },
    {
      "channel": 3,
      "note": 76,
      "start": 46.3321,
      "duration": 0.0214,
      "velocity": 127,
      "chip": "ym2612"
    },
    {
      "channel": 4,
      "note": 71,
      "start": 46.3328,
      "duration": 0.1881,
      "velocity": 119,
      "chip": "ym2612"
    },
    {
      "channel": 3,
      "note": 69,
      "start": 46.3537,
      "duration": 0.2069,
      "velocity": 127,
      "chip": "ym2612"
    },
    {
      "channel": 2,
      "note": 64,
      "start": 46.5203,
      "duration": 0.2056,
      "velocity": 119,
      "chip": "ym2612"
    },
    {
      "channel": 4,
      "note": 68,
      "start": 46.5211,
      "duration": 0.2056,
      "velocity": 119,
      "chip": "ym2612"
    },
    {
      "channel": 0,
      "note": 59,
      "start": 46.5593,
      "duration": 0.1955,
      "velocity": 112,
      "chip": "ym2612"
    },
    {
      "channel": 1,
      "note": 76,
      "start": 46.56,
      "duration": 0.1955,
      "velocity": 117,
      "chip": "ym2612"
    },
    {
      "channel": 3,
      "note": 33,
      "start": 46.5608,
      "duration": 0.1962,
      "velocity": 127,
      "chip": "ym2612"
    },
    {
      "channel": 5,
      "note": 73,
      "start": 46.5616,
      "duration": 0.5552,
      "velocity": 103,
      "chip": "ym2612"
    },
    {
      "channel": 2,
      "note": 64,
      "start": 46.7261,
      "duration": 0.0301,
      "velocity": 119,
      "chip": "ym2612"
    },
    {
      "channel": 4,
      "note": 71,
      "start": 46.7269,
      "duration": 0.0308,
      "velocity": 119,
      "chip": "ym2612"
    },
    {
      "channel": 0,
      "note": 61,
      "start": 46.755,
      "duration": 0.1887,
      "velocity": 112,
      "chip": "ym2612"
    },
    {
      "channel": 1,
      "note": 77,
      "start": 46.7557,
      "duration": 0.0027,
      "velocity": 117,
      "chip": "ym2612"
    },
    {
      "channel": 2,
      "note": 59,
      "start": 46.7564,
      "duration": 0.0206,
      "velocity": 119,
      "chip": "ym2612"
    },
    {
      "channel": 3,
      "note": 79,
      "start": 46.7571,
      "duration": 0.1887,
      "velocity": 127,
      "chip": "ym2612"
    },
    {
      "channel": 4,
      "note": 73,
      "start": 46.7578,
      "duration": 0.1887,
      "velocity": 119,
      "chip": "ym2612"
    },
    {
      "channel": 1,
      "note": 78,
      "start": 46.7586,
      "duration": 0.1858,
      "velocity": 117,
      "chip": "ym2612"
    },
    {
      "channel": 2,
      "note": 61,
      "start": 46.7773,
      "duration": 0.1678,
      "velocity": 119,
      "chip": "ym2612"
    },
    {
      "channel": 0,
      "note": 52,
      "start": 46.9439,
      "duration": 0.322,
      "velocity": 112,
      "chip": "ym2612"
    },
    {
      "channel": 1,
      "note": 76,
      "start": 46.9446,
      "duration": 1.6886,
      "velocity": 117,
      "chip": "ym2612"
    },
    {
      "channel": 2,
      "note": 71,
      "start": 46.9453,
      "duration": 0.004,
      "velocity": 119,
      "chip": "ym2612"
    },
    {
      "channel": 3,
      "note": 33,
      "start": 46.946,
      "duration": 0.1701,
      "velocity": 127,
      "chip": "ym2612"
    },
    {
      "channel": 4,
      "note": 68,
      "start": 46.9467,
      "duration": 0.0034,
      "velocity": 119,
      "chip": "ym2612"
    },
    {
      "channel": 2,
      "note": 68,
      "start": 46.9495,
      "duration": 0.3172,
      "velocity": 119,
      "chip": "ym2612"
    },
    {
      "channel": 4,
      "note": 64,
      "start": 46.9503,
      "duration": 0.3178,
      "velocity": 119,
      "chip": "ym2612"
    },
    {
      "channel": 3,
      "note": 69,
      "start": 47.1163,
      "duration": 0.1512,
      "velocity": 127,
      "chip": "ym2612"
    },
    {
      "channel": 5,
      "note": 83,
      "start": 47.1171,
      "duration": 1.1134,
      "velocity": 103,
      "chip": "ym2612"
    },
    {
      "channel": 0,
      "note": 64,
      "start": 47.2661,
      "duration": 0.0575,
      "velocity": 1,
      "chip": "ym2612"
    },
    {
      "channel": 2,
      "note": 68,
      "start": 47.2669,
      "duration": 0.2242,
      "velocity": 119,
      "chip": "ym2612"
    },
    {
      "channel": 3,
      "note": 74,
      "start": 47.2676,
      "duration": 0.0569,
      "velocity": 127,
      "chip": "ym2612"
    },
    {
      "channel": 4,
      "note": 64,
      "start": 47.2683,
      "duration": 0.2236,
      "velocity": 119,
      "chip": "ym2612"
    },
    {
      "channel": 0,
      "note": 55,
      "start": 47.3239,
      "duration": 0.1665,
      "velocity": 112,
      "chip": "ym2612"
    },
    {
      "channel": 3,
      "note": 69,
      "start": 47.3247,
      "duration": 0.3153,
      "velocity": 127,
      "chip": "ym2612"
    },
    {
      "channel": 0,
      "note": 64,
      "start": 47.4905,
      "duration": 0.1479,
      "velocity": 112,
      "chip": "ym2612"
    },
    {
      "channel": 2,
      "note": 68,
      "start": 47.4913,
      "duration": 0.148,
      "velocity": 119,
      "chip": "ym2612"
    },
    {
      "channel": 4,
      "note": 64,
      "start": 47.4921,
      "duration": 0.1485,
      "velocity": 119,
      "chip": "ym2612"
    },
    {
      "channel": 0,
      "note": 52,
      "start": 47.6386,
      "duration": 0.5344,
      "velocity": 112,
      "chip": "ym2612"
    },
    {
      "channel": 2,
      "note": 71,
      "start": 47.6394,
      "duration": 0.0021,
      "velocity": 119,
      "chip": "ym2612"
    },
    {
      "channel": 3,
      "note": 33,
      "start": 47.6401,
      "duration": 0.1947,
      "velocity": 127,
      "chip": "ym2612"
    },
    {
      "channel": 4,
      "note": 78,
      "start": 47.6408,
      "duration": 0.1947,
      "velocity": 119,
      "chip": "ym2612"
    },
    {
      "channel": 2,
      "note": 73,
      "start": 47.6417,
      "duration": 0.1924,
      "velocity": 119,
      "chip": "ym2612"
    },
    {
      "channel": 2,
      "note": 71,
      "start": 47.8343,
      "duration": 0.1665,
      "velocity": 119,
      "chip": "ym2612"
    },
    {
      "channel": 3,
      "note": 69,
      "start": 47.835,
      "duration": 0.1665,
      "velocity": 127,
      "chip": "ym2612"
    },
    {
      "channel": 4,
      "note": 76,
      "start": 47.8357,
      "duration": 0.1666,
      "velocity": 119,
      "chip": "ym2612"
    },
    {
      "channel": 2,
      "note": 68,
      "start": 48.001,
      "duration": 0.1727,
      "velocity": 119,
      "chip": "ym2612"
    },
    {
      "channel": 3,
      "note": 74,
      "start": 48.0017,
      "duration": 0.0214,
      "velocity": 127,
      "chip": "ym2612"
    },
    {
      "channel": 4,
      "note": 64,
      "start": 48.0024,
      "duration": 0.1721,
      "velocity": 119,
      "chip": "ym2612"
    },
    {
      "channel": 3,
      "note": 69,
      "start": 48.0234,
      "duration": 0.2063,
      "velocity": 127,
      "chip": "ym2612"
    },
    {
      "channel": 0,
      "note": 52,
      "start": 48.1732,
      "duration": 0.0556,
      "velocity": 112,
      "chip": "ym2612"
    },
    {
      "channel": 2,
      "note": 68,
      "start": 48.1739,
      "duration": 0.2057,
      "velocity": 119,
      "chip": "ym2612"
    },
    {
      "channel": 4,
      "note": 64,
      "start": 48.1748,
      "duration": 0.2056,
      "velocity": 119,
      "chip": "ym2612"
    },
    {
      "channel": 0,
      "note": 64,
      "start": 48.229,
      "duration": 0.1499,
      "velocity": 112,
      "chip": "ym2612"
    },
    {
      "channel": 3,
      "note": 33,
      "start": 48.2299,
      "duration": 0.2064,
      "velocity": 127,
      "chip": "ym2612"
    },
    {
      "channel": 5,
      "note": 73,
      "start": 48.2307,
      "duration": 0.5736,
      "velocity": 103,
      "chip": "ym2612"
    },
    {
      "channel": 0,
      "note": 52,
      "start": 48.3791,
      "duration": 0.0557,
      "velocity": 112,
      "chip": "ym2612"
    },
    {
      "channel": 2,
      "note": 64,
      "start": 48.3798,
      "duration": 0.0558,
      "velocity": 119,
      "chip": "ym2612"
    },
    {
      "channel": 4,
      "note": 59,
      "start": 48.3807,
      "duration": 0.0563,
      "velocity": 119,
      "chip": "ym2612"
    },
    {
      "channel": 0,
      "note": 59,
      "start": 48.435,
      "duration": 0.0454,
      "velocity": 112,
      "chip": "ym2612"
    },
    {
      "channel": 2,
      "note": 59,
      "start": 48.4358,
      "duration": 0.0454,
      "velocity": 119,
      "chip": "ym2612"
    },
    {
      "channel": 3,
      "note": 69,
      "start": 48.4365,
      "duration": 0.1975,
      "velocity": 127,
      "chip": "ym2612"
    },
    {
      "channel": 4,
      "note": 64,
      "start": 48.4372,
      "duration": 0.0447,
      "velocity": 119,
      "chip": "ym2612"
    },
    {
      "channel": 0,
      "note": 61,
      "start": 48.4805,
      "duration": 0.15,
      "velocity": 112,
      "chip": "ym2612"
    },
    {
      "channel": 2,
      "note": 56,
      "start": 48.4813,
      "duration": 0.1715,
      "velocity": 119,
      "chip": "ym2612"
    },
    {
      "channel": 4,
      "note": 59,
      "start": 48.4821,
      "duration": 0.1716,
      "velocity": 119,
      "chip": "ym2612"
    },
    {
      "channel": 0,
      "note": 50,
      "start": 48.6307,
      "duration": 0.3387,
      "velocity": 112,
      "chip": "ym2612"
    },
    {
      "channel": 1,
      "note": 98,
      "start": 48.6334,
      "duration": 0.1693,
      "velocity": 117,
      "chip": "ym2612"
    },
    {
      "channel": 3,
      "note": 33,
      "start": 48.6342,
      "duration": 0.1693,
      "velocity": 127,
      "chip": "ym2612"
    },
    {
      "channel": 2,
      "note": 66,
      "start": 48.6531,
      "duration": 0.3171,
      "velocity": 119,
      "chip": "ym2612"
    },
    {
      "channel": 4,
      "note": 69,
      "start": 48.6539,
      "duration": 0.3177,
      "velocity": 119,
      "chip": "ym2612"
    },
    {
      "channel": 1,
      "note": 93,
      "start": 48.8029,
      "duration": 0.2222,
      "velocity": 117,
      "chip": "ym2612"
    },
    {
      "channel": 3,
      "note": 69,
      "start": 48.8037,
      "duration": 0.1672,
      "velocity": 127,
      "chip": "ym2612"
    },
    {
      "channel": 5,
      "note": 83,
      "start": 48.8046,
      "duration": 1.3015,
      "velocity": 103,
      "chip": "ym2612"
    },
    {
      "channel": 0,
      "note": 50,
      "start": 48.9695,
      "duration": 0.2056,
      "velocity": 112,
      "chip": "ym2612"
    },
    {
      "channel": 2,
      "note": 66,
      "start": 48.9704,
      "duration": 0.2056,
      "velocity": 119,
      "chip": "ym2612"
    },
    {
      "channel": 3,
      "note": 74,
      "start": 48.9711,
      "duration": 0.0549,
      "velocity": 127,
      "chip": "ym2612"
    },
    {
      "channel": 4,
      "note": 69,
      "start": 48.9718,
      "duration": 0.205,
      "velocity": 119,
      "chip": "ym2612"
    },
    {
      "channel": 1,
      "note": 95,
      "start": 49.0254,
      "duration": 0.3172,
      "velocity": 117,
      "chip": "ym2612"
    },
    {
      "channel": 3,
      "note": 69,
      "start": 49.0262,
      "duration": 0.3178,
      "velocity": 127,
      "chip": "ym2612"
    },
    {
      "channel": 0,
      "note": 50,
      "start": 49.1753,
      "duration": 0.1666,
      "velocity": 112,
      "chip": "ym2612"
    },
    {
      "channel": 2,
      "note": 66,
      "start": 49.1761,
      "duration": 0.1672,
      "velocity": 119,
      "chip": "ym2612"
    },
    {
      "channel": 4,
      "note": 69,
      "start": 49.1769,
      "duration": 0.1678,
      "velocity": 119,
      "chip": "ym2612"
    },
    {
      "channel": 0,
      "note": 45,
      "start": 49.3421,
      "duration": 0.1954,
      "velocity": 112,
      "chip": "ym2612"
    },
    {
      "channel": 1,
      "note": 93,
      "start": 49.3428,
      "duration": 0.1954,
      "velocity": 117,
      "chip": "ym2612"
    },
    {
      "channel": 2,
      "note": 67,
      "start": 49.3435,
      "duration": 0.1954,
      "velocity": 119,
      "chip": "ym2612"
    },
    {
      "channel": 3,
      "note": 33,
      "start": 49.3442,
      "duration": 0.1954,
      "velocity": 127,
      "chip": "ym2612"
    },
    {
      "channel": 4,
      "note": 71,
      "start": 49.3449,
      "duration": 0.1954,
      "velocity": 119,
      "chip": "ym2612"
    },
    {
      "channel": 0,
      "note": 50,
      "start": 49.5377,
      "duration": 0.1721,
      "velocity": 112,
      "chip": "ym2612"
    },
    {
      "channel": 1,
      "note": 91,
      "start": 49.5384,
      "duration": 0.1658,
      "velocity": 117,
      "chip": "ym2612"
    },
    {
      "channel": 2,
      "note": 69,
      "start": 49.5391,
      "duration": 0.1736,
      "velocity": 119,
      "chip": "ym2612"
    },
    {
      "channel": 3,
      "note": 69,
      "start": 49.5398,
      "duration": 0.1651,
      "velocity": 127,
      "chip": "ym2612"
    },
    {
      "channel": 4,
      "note": 74,
      "start": 49.5405,
      "duration": 0.1735,
      "velocity": 119,
      "chip": "ym2612"
    },
    {
      "channel": 1,
      "note": 90,
      "start": 49.7044,
      "duration": 0.174,
      "velocity": 1,
      "chip": "ym2612"
    },
    {
      "channel": 3,
      "note": 76,
      "start": 49.7052,
      "duration": 0.0082,
      "velocity": 127,
      "chip": "ym2612"
    },
    {
      "channel": 0,
      "note": 57,
      "start": 49.71,
      "duration": 0.2055,
      "velocity": 112,
      "chip": "ym2612"
    },
    {
      "channel": 2,
      "note": 57,
      "start": 49.7129,
      "duration": 0.225,
      "velocity": 119,
      "chip": "ym2612"
    },
    {
      "channel": 3,
      "note": 69,
      "start": 49.7136,
      "duration": 0.2054,
      "velocity": 127,
      "chip": "ym2612"
    },
    {
      "channel": 4,
      "note": 62,
      "start": 49.7143,
      "duration": 0.2244,
      "velocity": 119,
      "chip": "ym2612"
    },
    {
      "channel": 1,
      "note": 91,
      "start": 49.8786,
      "duration": 0.0395,
      "velocity": 117,
      "chip": "ym2612"
    },
    {
      "channel": 0,
      "note": 50,
      "start": 49.9157,
      "duration": 0.3387,
      "velocity": 112,
      "chip": "ym2612"
    },
    {
      "channel": 1,
      "note": 98,
      "start": 49.9184,
      "duration": 0.1861,
      "velocity": 117,
      "chip": "ym2612"
    },
    {
      "channel": 3,
      "note": 33,
      "start": 49.9192,
      "duration": 0.186,
      "velocity": 127,
      "chip": "ym2612"
    },
    {
      "channel": 2,
      "note": 66,
      "start": 49.938,
      "duration": 0.3172,
      "velocity": 119,
      "chip": "ym2612"
    },
    {
      "channel": 4,
      "note": 69,
      "start": 49.9389,
      "duration": 0.3177,
      "velocity": 119,
      "chip": "ym2612"
    },
    {
      "channel": 1,
      "note": 93,
      "start": 50.1046,
      "duration": 0.2056,
      "velocity": 117,
      "chip": "ym2612"
    },
    {
      "channel": 3,
      "note": 69,
      "start": 50.1054,
      "duration": 0.1505,
      "velocity": 127,
      "chip": "ym2612"
    },
    {
      "channel": 5,
      "note": 83,
      "start": 50.1063,
      "duration": 1.2847,
      "velocity": 103,
      "chip": "ym2612"
    },
    {
      "channel": 0,
      "note": 50,
      "start": 50.2546,
      "duration": 0.2056,
      "velocity": 112,
      "chip": "ym2612"
    },
    {
      "channel": 2,
      "note": 66,
      "start": 50.2554,
      "duration": 0.2056,
      "velocity": 119,
      "chip": "ym2612"
    },
    {
      "channel": 3,
      "note": 74,
      "start": 50.2561,
      "duration": 0.0549,
      "velocity": 127,
      "chip": "ym2612"
    },
    {
      "channel": 4,
      "note": 69,
      "start": 50.2568,
      "duration": 0.205,
      "velocity": 119,
      "chip": "ym2612"
    },
    {
      "channel": 1,
      "note": 95,
      "start": 50.3104,
      "duration": 0.3172,
      "velocity": 117,
      "chip": "ym2612"
    },
    {
      "channel": 3,
      "note": 69,
      "start": 50.3112,
      "duration": 0.3178,
      "velocity": 127,
      "chip": "ym2612"
    },
    {
      "channel": 0,
      "note": 50,
      "start": 50.4603,
      "duration": 0.1666,
      "velocity": 112,
      "chip": "ym2612"
    },
    {
      "channel": 2,
      "note": 66,
      "start": 50.4612,
      "duration": 0.1672,
      "velocity": 119,
      "chip": "ym2612"
    },
    {
      "channel": 4,
      "note": 69,
      "start": 50.4619,
      "duration": 0.1678,
      "velocity": 119,
      "chip": "ym2612"
    },
    {
      "channel": 0,
      "note": 45,
      "start": 50.6271,
      "duration": 0.1954,
      "velocity": 112,
      "chip": "ym2612"
    },
    {
      "channel": 1,
      "note": 93,
      "start": 50.6278,
      "duration": 0.1954,
      "velocity": 117,
      "chip": "ym2612"
    },
    {
      "channel": 2,
      "note": 67,
      "start": 50.6285,
      "duration": 0.1954,
      "velocity": 119,
      "chip": "ym2612"
    },
    {
      "channel": 3,
      "note": 33,
      "start": 50.6292,
      "duration": 0.1954,
      "velocity": 127,
      "chip": "ym2612"
    },
    {
      "channel": 4,
      "note": 71,
      "start": 50.6299,
      "duration": 0.1954,
      "velocity": 119,
      "chip": "ym2612"
    },
    {
      "channel": 0,
      "note": 50,
      "start": 50.8227,
      "duration": 0.1721,
      "velocity": 112,
      "chip": "ym2612"
    },
    {
      "channel": 1,
      "note": 91,
      "start": 50.8234,
      "duration": 0.1658,
      "velocity": 117,
      "chip": "ym2612"
    },
    {
      "channel": 2,
      "note": 69,
      "start": 50.8241,
      "duration": 0.1736,
      "velocity": 119,
      "chip": "ym2612"
    },
    {
      "channel": 3,
      "note": 69,
      "start": 50.8249,
      "duration": 0.1651,
      "velocity": 127,
      "chip": "ym2612"
    },
    {
      "channel": 4,
      "note": 74,
      "start": 50.8256,
      "duration": 0.1735,
      "velocity": 119,
      "chip": "ym2612"
    },
    {
      "channel": 1,
      "note": 90,
      "start": 50.9894,
      "duration": 0.174,
      "velocity": 1,
      "chip": "ym2612"
    },
    {
      "channel": 3,
      "note": 76,
      "start": 50.9902,
      "duration": 0.0082,
      "velocity": 127,
      "chip": "ym2612"
    },
    {
      "channel": 0,
      "note": 57,
      "start": 50.9951,
      "duration": 0.2221,
      "velocity": 112,
      "chip": "ym2612"
    },
    {
      "channel": 2,
      "note": 57,
      "start": 50.9978,
      "duration": 0.225,
      "velocity": 119,
      "chip": "ym2612"
    },
    {
      "channel": 3,
      "note": 69,
      "start": 50.9985,
      "duration": 0.2221,
      "velocity": 127,
      "chip": "ym2612"
    },
    {
      "channel": 4,
      "note": 62,
      "start": 50.9993,
      "duration": 0.2244,
      "velocity": 119,
      "chip": "ym2612"
    },
    {
      "channel": 1,
      "note": 91,
      "start": 51.1636,
      "duration": 0.0562,
      "velocity": 117,
      "chip": "ym2612"
    },
    {
      "channel": 0,
      "note": 50,
      "start": 51.2173,
      "duration": 0.322,
      "velocity": 112,
      "chip": "ym2612"
    },
    {
      "channel": 1,
      "note": 98,
      "start": 51.22,
      "duration": 0.1693,
      "velocity": 117,
      "chip": "ym2612"
    },
    {
      "channel": 3,
      "note": 33,
      "start": 51.2209,
      "duration": 0.1693,
      "velocity": 127,
      "chip": "ym2612"
    },
    {
      "channel": 2,
      "note": 66,
      "start": 51.223,
      "duration": 0.3172,
      "velocity": 119,
      "chip": "ym2612"
    },
    {
      "channel": 4,
      "note": 69,
      "start": 51.2239,
      "duration": 0.3177,
      "velocity": 119,
      "chip": "ym2612"
    },
    {
      "channel": 1,
      "note": 93,
      "start": 51.3896,
      "duration": 0.2056,
      "velocity": 117,
      "chip": "ym2612"
    },
    {
      "channel": 3,
      "note": 69,
      "start": 51.3904,
      "duration": 0.1505,
      "velocity": 127,
      "chip": "ym2612"
    },
    {
      "channel": 5,
      "note": 83,
      "start": 51.3913,
      "duration": 1.1152,
      "velocity": 103,
      "chip": "ym2612"
    },
    {
      "channel": 0,
      "note": 50,
      "start": 51.5395,
      "duration": 0.2223,
      "velocity": 112,
      "chip": "ym2612"
    },
    {
      "channel": 2,
      "note": 66,
      "start": 51.5404,
      "duration": 0.2223,
      "velocity": 119,
      "chip": "ym2612"
    },
    {
      "channel": 3,
      "note": 74,
      "start": 51.5411,
      "duration": 0.0549,
      "velocity": 127,
      "chip": "ym2612"
    },
    {
      "channel": 4,
      "note": 69,
      "start": 51.5418,
      "duration": 0.2216,
      "velocity": 119,
      "chip": "ym2612"
    },
    {
      "channel": 1,
      "note": 95,
      "start": 51.5954,
      "duration": 0.3172,
      "velocity": 117,
      "chip": "ym2612"
    },
    {
      "channel": 3,
      "note": 69,
      "start": 51.5962,
      "duration": 0.3178,
      "velocity": 127,
      "chip": "ym2612"
    },
    {
      "channel": 0,
      "note": 50,
      "start": 51.762,
      "duration": 0.1499,
      "velocity": 112,
      "chip": "ym2612"
    },
    {
      "channel": 2,
      "note": 66,
      "start": 51.7628,
      "duration": 0.1505,
      "velocity": 119,
      "chip": "ym2612"
    },
    {
      "channel": 4,
      "note": 69,
      "start": 51.7636,
      "duration": 0.1512,
      "velocity": 119,
      "chip": "ym2612"
    },
    {
      "channel": 0,
      "note": 45,
      "start": 51.9121,
      "duration": 0.1954,
      "velocity": 112,
      "chip": "ym2612"
    },
    {
      "channel": 1,
      "note": 93,
      "start": 51.9128,
      "duration": 0.1954,
      "velocity": 117,
      "chip": "ym2612"
    },
    {
      "channel": 2,
      "note": 67,
      "start": 51.9135,
      "duration": 0.1954,
      "velocity": 119,
      "chip": "ym2612"
    },
    {
      "channel": 3,
      "note": 33,
      "start": 51.9142,
      "duration": 0.1954,
      "velocity": 127,
      "chip": "ym2612"
    },
    {
      "channel": 4,
      "note": 71,
      "start": 51.9149,
      "duration": 0.1954,
      "velocity": 119,
      "chip": "ym2612"
    },
    {
      "channel": 0,
      "note": 50,
      "start": 52.1077,
      "duration": 0.1888,
      "velocity": 112,
      "chip": "ym2612"
    },
    {
      "channel": 1,
      "note": 91,
      "start": 52.1084,
      "duration": 0.1658,
      "velocity": 117,
      "chip": "ym2612"
    },
    {
      "channel": 2,
      "note": 69,
      "start": 52.1091,
      "duration": 0.1902,
      "velocity": 119,
      "chip": "ym2612"
    },
    {
      "channel": 3,
      "note": 69,
      "start": 52.1098,
      "duration": 0.1651,
      "velocity": 127,
      "chip": "ym2612"
    },
    {
      "channel": 4,
      "note": 74,
      "start": 52.1105,
      "duration": 0.1902,
      "velocity": 119,
      "chip": "ym2612"
    },
    {
      "channel": 1,
      "note": 90,
      "start": 52.2744,
      "duration": 0.174,
      "velocity": 1,
      "chip": "ym2612"
    },
    {
      "channel": 3,
      "note": 76,
      "start": 52.2752,
      "duration": 0.0248,
      "velocity": 127,
      "chip": "ym2612"
    },
    {
      "channel": 0,
      "note": 57,
      "start": 52.2966,
      "duration": 0.2056,
      "velocity": 112,
      "chip": "ym2612"
    },
    {
      "channel": 2,
      "note": 57,
      "start": 52.2995,
      "duration": 0.355,
      "velocity": 119,
      "chip": "ym2612"
    },
    {
      "channel": 3,
      "note": 69,
      "start": 52.3002,
      "duration": 0.2055,
      "velocity": 127,
      "chip": "ym2612"
    },
    {
      "channel": 4,
      "note": 62,
      "start": 52.3009,
      "duration": 0.3544,
      "velocity": 119,
      "chip": "ym2612"
    },
    {
      "channel": 1,
      "note": 91,
      "start": 52.4486,
      "duration": 0.0563,
      "velocity": 117,
      "chip": "ym2612"
    },
    {
      "channel": 0,
      "note": 52,
      "start": 52.5025,
      "duration": 0.2177,
      "velocity": 112,
      "chip": "ym2612"
    },
    {
      "channel": 1,
      "note": 93,
      "start": 52.5052,
      "duration": 0.1948,
      "velocity": 117,
      "chip": "ym2612"
    },
    {
      "channel": 3,
      "note": 33,
      "start": 52.5059,
      "duration": 0.1949,
      "velocity": 127,
      "chip": "ym2612"
    },
    {
      "channel": 5,
      "note": 73,
      "start": 52.5068,
      "duration": 0.5393,
      "velocity": 103,
      "chip": "ym2612"
    },
    {
      "channel": 2,
      "note": 69,
      "start": 52.6547,
      "duration": 0.0669,
      "velocity": 119,
      "chip": "ym2612"
    },
    {
      "channel": 4,
      "note": 64,
      "start": 52.6555,
      "duration": 0.0669,
      "velocity": 119,
      "chip": "ym2612"
    },
    {
      "channel": 1,
      "note": 93,
      "start": 52.7002,
      "duration": 0.0208,
      "velocity": 117,
      "chip": "ym2612"
    },
    {
      "channel": 3,
      "note": 79,
      "start": 52.701,
      "duration": 0.1715,
      "velocity": 127,
      "chip": "ym2612"
    },
    {
      "channel": 0,
      "note": 54,
      "start": 52.7204,
      "duration": 0.1721,
      "velocity": 112,
      "chip": "ym2612"
    },
    {
      "channel": 1,
      "note": 91,
      "start": 52.7211,
      "duration": 0.174,
      "velocity": 117,
      "chip": "ym2612"
    },
    {
      "channel": 2,
      "note": 69,
      "start": 52.7218,
      "duration": 0.174,
      "velocity": 119,
      "chip": "ym2612"
    },
    {
      "channel": 4,
      "note": 64,
      "start": 52.7226,
      "duration": 0.1741,
      "velocity": 119,
      "chip": "ym2612"
    },
    {
      "channel": 3,
      "note": 33,
      "start": 52.8727,
      "duration": 0.172,
      "velocity": 127,
      "chip": "ym2612"
    },
    {
      "channel": 0,
      "note": 52,
      "start": 52.8927,
      "duration": 0.1499,
      "velocity": 112,
      "chip": "ym2612"
    },
    {
      "channel": 1,
      "note": 90,
      "start": 52.8954,
      "duration": 0.148,
      "velocity": 117,
      "chip": "ym2612"
    },
    {
      "channel": 2,
      "note": 69,
      "start": 52.8961,
      "duration": 0.148,
      "velocity": 119,
      "chip": "ym2612"
    },
    {
      "channel": 4,
      "note": 64,
      "start": 52.8969,
      "duration": 0.1485,
      "velocity": 119,
      "chip": "ym2612"
    },
    {
      "channel": 0,
      "note": 57,
      "start": 53.0428,
      "duration": 0.2222,
      "velocity": 112,
      "chip": "ym2612"
    },
    {
      "channel": 1,
      "note": 88,
      "start": 53.0435,
      "duration": 0.2759,
      "velocity": 117,
      "chip": "ym2612"
    },
    {
      "channel": 2,
      "note": 71,
      "start": 53.0442,
      "duration": 0.1651,
      "velocity": 119,
      "chip": "ym2612"
    },
    {
      "channel": 3,
      "note": 69,
      "start": 53.0449,
      "duration": 0.1651,
      "velocity": 127,
      "chip": "ym2612"
    },
    {
      "channel": 4,
      "note": 66,
      "start": 53.0456,
      "duration": 0.1652,
      "velocity": 119,
      "chip": "ym2612"
    },
    {
      "channel": 5,
      "note": 83,
      "start": 53.0464,
      "duration": 0.4441,
      "velocity": 103,
      "chip": "ym2612"
    },
    {
      "channel": 2,
      "note": 67,
      "start": 53.2096,
      "duration": 0.0563,
      "velocity": 119,
      "chip": "ym2612"
    },
    {
      "channel": 3,
      "note": 74,
      "start": 53.2103,
      "duration": 0.0563,
      "velocity": 127,
      "chip": "ym2612"
    },
    {
      "channel": 4,
      "note": 62,
      "start": 53.211,
      "duration": 0.0563,
      "velocity": 119,
      "chip": "ym2612"
    },
    {
      "channel": 0,
      "note": 45,
      "start": 53.2653,
      "duration": 0.0514,
      "velocity": 112,
      "chip": "ym2612"
    },
    {
      "channel": 2,
      "note": 69,
      "start": 53.2661,
      "duration": 0.0043,
      "velocity": 119,
      "chip": "ym2612"
    },
    {
      "channel": 3,
      "note": 69,
      "start": 53.2668,
      "duration": 0.0039,
      "velocity": 127,
      "chip": "ym2612"
    },
    {
      "channel": 4,
      "note": 64,
      "start": 53.2675,
      "duration": 0.0036,
      "velocity": 119,
      "chip": "ym2612"
    },
    {
      "channel": 2,
      "note": 57,
      "start": 53.2706,
      "duration": 0.0683,
      "velocity": 119,
      "chip": "ym2612"
    },
    {
      "channel": 3,
      "note": 33,
      "start": 53.2709,
      "duration": 0.0493,
      "velocity": 127,
      "chip": "ym2612"
    },
    {
      "channel": 4,
      "note": 61,
      "start": 53.2713,
      "duration": 0.0685,
      "velocity": 119,
      "chip": "ym2612"
    },
    {
      "channel": 0,
      "note": 50,
      "start": 53.3169,
      "duration": 0.3386,
      "velocity": 112,
      "chip": "ym2612"
    },
    {
      "channel": 1,
      "note": 98,
      "start": 53.3195,
      "duration": 0.1693,
      "velocity": 117,
      "chip": "ym2612"
    },
    {
      "channel": 3,
      "note": 33,
      "start": 53.3204,
      "duration": 0.1693,
      "velocity": 127,
      "chip": "ym2612"
    },
    {
      "channel": 2,
      "note": 66,
      "start": 53.3391,
      "duration": 0.3172,
      "velocity": 119,
      "chip": "ym2612"
    },
    {
      "channel": 4,
      "note": 69,
      "start": 53.34,
      "duration": 0.3177,
      "velocity": 119,
      "chip": "ym2612"
    },
    {
      "channel": 1,
      "note": 93,
      "start": 53.4891,
      "duration": 0.2056,
      "velocity": 117,
      "chip": "ym2612"
    },
    {
      "channel": 3,
      "note": 69,
      "start": 53.4898,
      "duration": 0.1672,
      "velocity": 127,
      "chip": "ym2612"
    },
    {
      "channel": 5,
      "note": 83,
      "start": 53.4907,
      "duration": 1.2848,
      "velocity": 103,
      "chip": "ym2612"
    },
    {
      "channel": 0,
      "note": 50,
      "start": 53.6557,
      "duration": 0.2056,
      "velocity": 112,
      "chip": "ym2612"
    },
    {
      "channel": 2,
      "note": 66,
      "start": 53.6565,
      "duration": 0.2056,
      "velocity": 119,
      "chip": "ym2612"
    },
    {
      "channel": 3,
      "note": 74,
      "start": 53.6572,
      "duration": 0.0383,
      "velocity": 127,
      "chip": "ym2612"
    },
    {
      "channel": 4,
      "note": 69,
      "start": 53.6579,
      "duration": 0.205,
      "velocity": 119,
      "chip": "ym2612"
    },
    {
      "channel": 1,
      "note": 95,
      "start": 53.6949,
      "duration": 0.3339,
      "velocity": 117,
      "chip": "ym2612"
    },
    {
      "channel": 3,
      "note": 69,
      "start": 53.6957,
      "duration": 0.3345,
      "velocity": 127,
      "chip": "ym2612"
    },
    {
      "channel": 0,
      "note": 50,
      "start": 53.8615,
      "duration": 0.1666,
      "velocity": 112,
      "chip": "ym2612"
    },
    {
      "channel": 2,
      "note": 66,
      "start": 53.8623,
      "duration": 0.1672,
      "velocity": 119,
      "chip": "ym2612"
    },
    {
      "channel": 4,
      "note": 69,
      "start": 53.863,
      "duration": 0.1678,
      "velocity": 119,
      "chip": "ym2612"
    },
    {
      "channel": 0,
      "note": 45,
      "start": 54.0283,
      "duration": 0.1953,
      "velocity": 112,
      "chip": "ym2612"
    },
    {
      "channel": 1,
      "note": 93,
      "start": 54.0289,
      "duration": 0.1954,
      "velocity": 117,
      "chip": "ym2612"
    },
    {
      "channel": 2,
      "note": 67,
      "start": 54.0296,
      "duration": 0.1954,
      "velocity": 119,
      "chip": "ym2612"
    },
    {
      "channel": 3,
      "note": 33,
      "start": 54.0303,
      "duration": 0.1954,
      "velocity": 127,
      "chip": "ym2612"
    },
    {
      "channel": 4,
      "note": 71,
      "start": 54.031,
      "duration": 0.1954,
      "velocity": 119,
      "chip": "ym2612"
    },
    {
      "channel": 0,
      "note": 50,
      "start": 54.2238,
      "duration": 0.1722,
      "velocity": 112,
      "chip": "ym2612"
    },
    {
      "channel": 1,
      "note": 91,
      "start": 54.2245,
      "duration": 0.1491,
      "velocity": 117,
      "chip": "ym2612"
    },
    {
      "channel": 2,
      "note": 69,
      "start": 54.2252,
      "duration": 0.1736,
      "velocity": 119,
      "chip": "ym2612"
    },
    {
      "channel": 3,
      "note": 69,
      "start": 54.2259,
      "duration": 0.1485,
      "velocity": 127,
      "chip": "ym2612"
    },
    {
      "channel": 4,
      "note": 74,
      "start": 54.2266,
      "duration": 0.1736,
      "velocity": 119,
      "chip": "ym2612"
    },
    {
      "channel": 1,
      "note": 90,
      "start": 54.3739,
      "duration": 0.1907,
      "velocity": 1,
      "chip": "ym2612"
    },
    {
      "channel": 3,
      "note": 76,
      "start": 54.3746,
      "duration": 0.0249,
      "velocity": 127,
      "chip": "ym2612"
    },
    {
      "channel": 0,
      "note": 57,
      "start": 54.3961,
      "duration": 0.2056,
      "velocity": 112,
      "chip": "ym2612"
    },
    {
      "channel": 2,
      "note": 57,
      "start": 54.399,
      "duration": 0.225,
      "velocity": 119,
      "chip": "ym2612"
    },
    {
      "channel": 3,
      "note": 69,
      "start": 54.3997,
      "duration": 0.2055,
      "velocity": 127,
      "chip": "ym2612"
    },
    {
      "channel": 4,
      "note": 62,
      "start": 54.4004,
      "duration": 0.2245,
      "velocity": 119,
      "chip": "ym2612"
    },
    {
      "channel": 1,
      "note": 91,
      "start": 54.5648,
      "duration": 0.0396,
      "velocity": 117,
      "chip": "ym2612"
    },
    {
      "channel": 0,
      "note": 50,
      "start": 54.6019,
      "duration": 0.3387,
      "velocity": 112,
      "chip": "ym2612"
    },
    {
      "channel": 1,
      "note": 98,
      "start": 54.6046,
      "duration": 0.1693,
      "velocity": 117,
      "chip": "ym2612"
    },
    {
      "channel": 3,
      "note": 33,
      "start": 54.6054,
      "duration": 0.1693,
      "velocity": 127,
      "chip": "ym2612"
    },
    {
      "channel": 2,
      "note": 66,
      "start": 54.6243,
      "duration": 0.3171,
      "velocity": 119,
      "chip": "ym2612"
    },
    {
      "channel": 4,
      "note": 69,
      "start": 54.6251,
      "duration": 0.3177,
      "velocity": 119,
      "chip": "ym2612"
    },
    {
      "channel": 1,
      "note": 93,
      "start": 54.7742,
      "duration": 0.2222,
      "velocity": 117,
      "chip": "ym2612"
    },
    {
      "channel": 3,
      "note": 69,
      "start": 54.7749,
      "duration": 0.1672,
      "velocity": 127,
      "chip": "ym2612"
    },
    {
      "channel": 5,
      "note": 83,
      "start": 54.7758,
      "duration": 1.3014,
      "velocity": 103,
      "chip": "ym2612"
    },
    {
      "channel": 0,
      "note": 50,
      "start": 54.9408,
      "duration": 0.2056,
      "velocity": 112,
      "chip": "ym2612"
    },
    {
      "channel": 2,
      "note": 66,
      "start": 54.9416,
      "duration": 0.2056,
      "velocity": 119,
      "chip": "ym2612"
    },
    {
      "channel": 3,
      "note": 74,
      "start": 54.9423,
      "duration": 0.0549,
      "velocity": 127,
      "chip": "ym2612"
    },
    {
      "channel": 4,
      "note": 69,
      "start": 54.943,
      "duration": 0.205,
      "velocity": 119,
      "chip": "ym2612"
    },
    {
      "channel": 1,
      "note": 95,
      "start": 54.9966,
      "duration": 0.3172,
      "velocity": 117,
      "chip": "ym2612"
    },
    {
      "channel": 3,
      "note": 69,
      "start": 54.9974,
      "duration": 0.3178,
      "velocity": 127,
      "chip": "ym2612"
    },
    {
      "channel": 0,
      "note": 50,
      "start": 55.1466,
      "duration": 0.1666,
      "velocity": 112,
      "chip": "ym2612"
    },
    {
      "channel": 2,
      "note": 66,
      "start": 55.1474,
      "duration": 0.1672,
      "velocity": 119,
      "chip": "ym2612"
    },
    {
      "channel": 4,
      "note": 69,
      "start": 55.1481,
      "duration": 0.1678,
      "velocity": 119,
      "chip": "ym2612"
    },
    {
      "channel": 0,
      "note": 45,
      "start": 55.3134,
      "duration": 0.1954,
      "velocity": 112,
      "chip": "ym2612"
    },
    {
      "channel": 1,
      "note": 93,
      "start": 55.314,
      "duration": 0.1954,
      "velocity": 117,
      "chip": "ym2612"
    },
    {
      "channel": 2,
      "note": 67,
      "start": 55.3147,
      "duration": 0.1954,
      "velocity": 119,
      "chip": "ym2612"
    },
    {
      "channel": 3,
      "note": 33,
      "start": 55.3154,
      "duration": 0.1954,
      "velocity": 127,
      "chip": "ym2612"
    },
    {
      "channel": 4,
      "note": 71,
      "start": 55.3161,
      "duration": 0.1954,
      "velocity": 119,
      "chip": "ym2612"
    },
    {
      "channel": 0,
      "note": 50,
      "start": 55.5089,
      "duration": 0.1721,
      "velocity": 112,
      "chip": "ym2612"
    },
    {
      "channel": 1,
      "note": 91,
      "start": 55.5096,
      "duration": 0.1658,
      "velocity": 117,
      "chip": "ym2612"
    },
    {
      "channel": 2,
      "note": 69,
      "start": 55.5103,
      "duration": 0.1735,
      "velocity": 119,
      "chip": "ym2612"
    },
    {
      "channel": 3,
      "note": 69,
      "start": 55.5111,
      "duration": 0.1651,
      "velocity": 127,
      "chip": "ym2612"
    },
    {
      "channel": 4,
      "note": 74,
      "start": 55.5118,
      "duration": 0.1735,
      "velocity": 119,
      "chip": "ym2612"
    },
    {
      "channel": 1,
      "note": 90,
      "start": 55.6756,
      "duration": 0.174,
      "velocity": 1,
      "chip": "ym2612"
    },
    {
      "channel": 3,
      "note": 76,
      "start": 55.6764,
      "duration": 0.0081,
      "velocity": 127,
      "chip": "ym2612"
    },
    {
      "channel": 0,
      "note": 57,
      "start": 55.6812,
      "duration": 0.2055,
      "velocity": 112,
      "chip": "ym2612"
    },
    {
      "channel": 2,
      "note": 57,
      "start": 55.684,
      "duration": 0.225,
      "velocity": 119,
      "chip": "ym2612"
    },
    {
      "channel": 3,
      "note": 69,
      "start": 55.6847,
      "duration": 0.2054,
      "velocity": 127,
      "chip": "ym2612"
    },
    {
      "channel": 4,
      "note": 62,
      "start": 55.6854,
      "duration": 0.2244,
      "velocity": 119,
      "chip": "ym2612"
    },
    {
      "channel": 1,
      "note": 91,
      "start": 55.8498,
      "duration": 0.0395,
      "velocity": 117,
      "chip": "ym2612"
    },
    {
      "channel": 0,
      "note": 50,
      "start": 55.8869,
      "duration": 0.3387,
      "velocity": 112,
      "chip": "ym2612"
    },
    {
      "channel": 1,
      "note": 98,
      "start": 55.8895,
      "duration": 0.1861,
      "velocity": 117,
      "chip": "ym2612"
    },
    {
      "channel": 3,
      "note": 33,
      "start": 55.8904,
      "duration": 0.186,
      "velocity": 127,
      "chip": "ym2612"
    },
    {
      "channel": 2,
      "note": 66,
      "start": 55.9092,
      "duration": 0.3172,
      "velocity": 119,
      "chip": "ym2612"
    },
    {
      "channel": 4,
      "note": 69,
      "start": 55.9101,
      "duration": 0.3177,
      "velocity": 119,
      "chip": "ym2612"
    },
    {
      "channel": 1,
      "note": 93,
      "start": 56.0758,
      "duration": 0.2056,
      "velocity": 117,
      "chip": "ym2612"
    },
    {
      "channel": 3,
      "note": 69,
      "start": 56.0766,
      "duration": 0.1505,
      "velocity": 127,
      "chip": "ym2612"
    },
    {
      "channel": 5,
      "note": 83,
      "start": 56.0775,
      "duration": 1.1152,
      "velocity": 103,
      "chip": "ym2612"
    },
    {
      "channel": 0,
      "note": 50,
      "start": 56.2257,
      "duration": 0.2056,
      "velocity": 112,
      "chip": "ym2612"
    },
    {
      "channel": 2,
      "note": 66,
      "start": 56.2266,
      "duration": 0.2056,
      "velocity": 119,
      "chip": "ym2612"
    },
    {
      "channel": 3,
      "note": 74,
      "start": 56.2273,
      "duration": 0.0549,
      "velocity": 127,
      "chip": "ym2612"
    },
    {
      "channel": 4,
      "note": 69,
      "start": 56.228,
      "duration": 0.205,
      "velocity": 119,
      "chip": "ym2612"
    },
    {
      "channel": 1,
      "note": 95,
      "start": 56.2816,
      "duration": 0.3172,
      "velocity": 117,
      "chip": "ym2612"
    },
    {
      "channel": 3,
      "note": 69,
      "start": 56.2824,
      "duration": 0.3178,
      "velocity": 127,
      "chip": "ym2612"
    },
    {
      "channel": 0,
      "note": 50,
      "start": 56.4315,
      "duration": 0.1666,
      "velocity": 112,
      "chip": "ym2612"
    },
    {
      "channel": 2,
      "note": 66,
      "start": 56.4323,
      "duration": 0.1672,
      "velocity": 119,
      "chip": "ym2612"
    },
    {
      "channel": 4,
      "note": 69,
      "start": 56.4331,
      "duration": 0.1678,
      "velocity": 119,
      "chip": "ym2612"
    },
    {
      "channel": 0,
      "note": 45,
      "start": 56.5983,
      "duration": 0.1954,
      "velocity": 112,
      "chip": "ym2612"
    },
    {
      "channel": 1,
      "note": 93,
      "start": 56.599,
      "duration": 0.1954,
      "velocity": 117,
      "chip": "ym2612"
    },
    {
      "channel": 2,
      "note": 67,
      "start": 56.5997,
      "duration": 0.1954,
      "velocity": 119,
      "chip": "ym2612"
    },
    {
      "channel": 3,
      "note": 33,
      "start": 56.6004,
      "duration": 0.1954,
      "velocity": 127,
      "chip": "ym2612"
    },
    {
      "channel": 4,
      "note": 71,
      "start": 56.6011,
      "duration": 0.1954,
      "velocity": 119,
      "chip": "ym2612"
    },
    {
      "channel": 0,
      "note": 50,
      "start": 56.7939,
      "duration": 0.1721,
      "velocity": 112,
      "chip": "ym2612"
    },
    {
      "channel": 1,
      "note": 91,
      "start": 56.7946,
      "duration": 0.1658,
      "velocity": 117,
      "chip": "ym2612"
    },
    {
      "channel": 2,
      "note": 69,
      "start": 56.7953,
      "duration": 0.1736,
      "velocity": 119,
      "chip": "ym2612"
    },
    {
      "channel": 3,
      "note": 69,
      "start": 56.796,
      "duration": 0.1651,
      "velocity": 127,
      "chip": "ym2612"
    },
    {
      "channel": 4,
      "note": 74,
      "start": 56.7967,
      "duration": 0.1735,
      "velocity": 119,
      "chip": "ym2612"
    },
    {
      "channel": 1,
      "note": 90,
      "start": 56.9606,
      "duration": 0.174,
      "velocity": 1,
      "chip": "ym2612"
    },
    {
      "channel": 3,
      "note": 76,
      "start": 56.9614,
      "duration": 0.0082,
      "velocity": 127,
      "chip": "ym2612"
    },
    {
      "channel": 0,
      "note": 57,
      "start": 56.9662,
      "duration": 0.2223,
      "velocity": 112,
      "chip": "ym2612"
    },
    {
      "channel": 2,
      "note": 57,
      "start": 56.969,
      "duration": 0.3717,
      "velocity": 119,
      "chip": "ym2612"
    },
    {
      "channel": 3,
      "note": 69,
      "start": 56.9697,
      "duration": 0.2222,
      "velocity": 127,
      "chip": "ym2612"
    },
    {
      "channel": 4,
      "note": 62,
      "start": 56.9704,
      "duration": 0.371,
      "velocity": 119,
      "chip": "ym2612"
    },
    {
      "channel": 1,
      "note": 91,
      "start": 57.1348,
      "duration": 0.0563,
      "velocity": 117,
      "chip": "ym2612"
    },
    {
      "channel": 0,
      "note": 52,
      "start": 57.1887,
      "duration": 0.201,
      "velocity": 112,
      "chip": "ym2612"
    },
    {
      "channel": 1,
      "note": 93,
      "start": 57.1913,
      "duration": 0.1948,
      "velocity": 117,
      "chip": "ym2612"
    },
    {
      "channel": 3,
      "note": 33,
      "start": 57.1921,
      "duration": 0.1948,
      "velocity": 127,
      "chip": "ym2612"
    },
    {
      "channel": 5,
      "note": 73,
      "start": 57.1929,
      "duration": 0.5393,
      "velocity": 103,
      "chip": "ym2612"
    },
    {
      "channel": 2,
      "note": 69,
      "start": 57.3409,
      "duration": 0.0502,
      "velocity": 119,
      "chip": "ym2612"
    },
    {
      "channel": 4,
      "note": 64,
      "start": 57.3417,
      "duration": 0.0502,
      "velocity": 119,
      "chip": "ym2612"
    },
    {
      "channel": 1,
      "note": 93,
      "start": 57.3863,
      "duration": 0.0041,
      "velocity": 117,
      "chip": "ym2612"
    },
    {
      "channel": 3,
      "note": 79,
      "start": 57.3871,
      "duration": 0.1715,
      "velocity": 127,
      "chip": "ym2612"
    },
    {
      "channel": 0,
      "note": 54,
      "start": 57.3899,
      "duration": 0.1888,
      "velocity": 112,
      "chip": "ym2612"
    },
    {
      "channel": 1,
      "note": 91,
      "start": 57.3906,
      "duration": 0.1907,
      "velocity": 117,
      "chip": "ym2612"
    },
    {
      "channel": 2,
      "note": 69,
      "start": 57.3913,
      "duration": 0.1907,
      "velocity": 119,
      "chip": "ym2612"
    },
    {
      "channel": 4,
      "note": 64,
      "start": 57.392,
      "duration": 0.1908,
      "velocity": 119,
      "chip": "ym2612"
    },
    {
      "channel": 3,
      "note": 33,
      "start": 57.5588,
      "duration": 0.172,
      "velocity": 127,
      "chip": "ym2612"
    },
    {
      "channel": 0,
      "note": 52,
      "start": 57.5789,
      "duration": 0.1499,
      "velocity": 112,
      "chip": "ym2612"
    },
    {
      "channel": 1,
      "note": 90,
      "start": 57.5815,
      "duration": 0.1479,
      "velocity": 117,
      "chip": "ym2612"
    },
    {
      "channel": 2,
      "note": 69,
      "start": 57.5822,
      "duration": 0.1479,
      "velocity": 119,
      "chip": "ym2612"
    },
    {
      "channel": 4,
      "note": 64,
      "start": 57.583,
      "duration": 0.1485,
      "velocity": 119,
      "chip": "ym2612"
    },
    {
      "channel": 0,
      "note": 57,
      "start": 57.7289,
      "duration": 0.2056,
      "velocity": 112,
      "chip": "ym2612"
    },
    {
      "channel": 1,
      "note": 88,
      "start": 57.7296,
      "duration": 0.4311,
      "velocity": 109,
      "chip": "ym2612"
    },
    {
      "channel": 2,
      "note": 71,
      "start": 57.7303,
      "duration": 0.1651,
      "velocity": 119,
      "chip": "ym2612"
    },
    {
      "channel": 3,
      "note": 69,
      "start": 57.731,
      "duration": 0.1651,
      "velocity": 127,
      "chip": "ym2612"
    },
    {
      "channel": 4,
      "note": 66,
      "start": 57.7317,
      "duration": 0.1652,
      "velocity": 119,
      "chip": "ym2612"
    },
    {
      "channel": 5,
      "note": 83,
      "start": 57.7325,
      "duration": 2.2029,
      "velocity": 103,
      "chip": "ym2612"
    },
    {
      "channel": 2,
      "note": 67,
      "start": 57.8957,
      "duration": 0.0396,
      "velocity": 119,
      "chip": "ym2612"
    },
    {
      "channel": 3,
      "note": 74,
      "start": 57.8964,
      "duration": 0.0396,
      "velocity": 127,
      "chip": "ym2612"
    },
    {
      "channel": 4,
      "note": 62,
      "start": 57.8971,
      "duration": 0.0396,
      "velocity": 119,
      "chip": "ym2612"
    },
    {
      "channel": 0,
      "note": 45,
      "start": 57.9347,
      "duration": 0.0512,
      "velocity": 112,
      "chip": "ym2612"
    },
    {
      "channel": 2,
      "note": 69,
      "start": 57.9355,
      "duration": 0.0041,
      "velocity": 119,
      "chip": "ym2612"
    },
    {
      "channel": 3,
      "note": 69,
      "start": 57.9362,
      "duration": 0.0037,
      "velocity": 127,
      "chip": "ym2612"
    },
    {
      "channel": 4,
      "note": 64,
      "start": 57.9369,
      "duration": 0.0034,
      "velocity": 119,
      "chip": "ym2612"
    },
    {
      "channel": 2,
      "note": 57,
      "start": 57.9398,
      "duration": 0.2236,
      "velocity": 109,
      "chip": "ym2612"
    },
    {
      "channel": 3,
      "note": 33,
      "start": 57.9401,
      "duration": 0.0468,
      "velocity": 127,
      "chip": "ym2612"
    },
    {
      "channel": 4,
      "note": 61,
      "start": 57.9405,
      "duration": 0.2262,
      "velocity": 109,
      "chip": "ym2612"
    },
    {
      "channel": 0,
      "note": 55,
      "start": 57.9861,
      "duration": 0.172,
      "velocity": 112,
      "chip": "ym2612"
    },
    {
      "channel": 3,
      "note": 33,
      "start": 57.9871,
      "duration": 0.177,
      "velocity": 127,
      "chip": "ym2612"
    },
    {
      "channel": 0,
      "note": 67,
      "start": 58.1583,
      "duration": 0.0093,
      "velocity": 112,
      "chip": "ym2612"
    },
    {
      "channel": 1,
      "note": 83,
      "start": 58.161,
      "duration": 0.0068,
      "velocity": 109,
      "chip": "ym2612"
    },
    {
      "channel": 2,
      "note": 79,
      "start": 58.1636,
      "duration": 0.0045,
      "velocity": 109,
      "chip": "ym2612"
    },
    {
      "channel": 3,
      "note": 69,
      "start": 58.1643,
      "duration": 0.004,
      "velocity": 127,
      "chip": "ym2612"
    },
    {
      "channel": 4,
      "note": 74,
      "start": 58.1669,
      "duration": 0.0017,
      "velocity": 109,
      "chip": "ym2612"
    },
    {
      "channel": 0,
      "note": 67,
      "start": 58.1677,
      "duration": 0.0617,
      "velocity": 112,
      "chip": "ym2612"
    },
    {
      "channel": 1,
      "note": 83,
      "start": 58.168,
      "duration": 0.0621,
      "velocity": 109,
      "chip": "ym2612"
    },
    {
      "channel": 2,
      "note": 79,
      "start": 58.1682,
      "duration": 0.0625,
      "velocity": 109,
      "chip": "ym2612"
    },
    {
      "channel": 3,
      "note": 74,
      "start": 58.1685,
      "duration": 0.0024,
      "velocity": 127,
      "chip": "ym2612"
    },
    {
      "channel": 4,
      "note": 74,
      "start": 58.1688,
      "duration": 0.0627,
      "velocity": 109,
      "chip": "ym2612"
    },
    {
      "channel": 3,
      "note": 69,
      "start": 58.1711,
      "duration": 0.0625,
      "velocity": 127,
      "chip": "ym2612"
    },
    {
      "channel": 0,
      "note": 67,
      "start": 58.2296,
      "duration": 0.0028,
      "velocity": 112,
      "chip": "ym2612"
    },
    {
      "channel": 1,
      "note": 83,
      "start": 58.2303,
      "duration": 0.0025,
      "velocity": 109,
      "chip": "ym2612"
    },
    {
      "channel": 2,
      "note": 79,
      "start": 58.231,
      "duration": 0.0023,
      "velocity": 109,
      "chip": "ym2612"
    },
    {
      "channel": 4,
      "note": 74,
      "start": 58.2318,
      "duration": 0.0023,
      "velocity": 109,
      "chip": "ym2612"
    },
    {
      "channel": 0,
      "note": 62,
      "start": 58.2326,
      "duration": 0.0763,
      "velocity": 112,
      "chip": "ym2612"
    },
    {
      "channel": 1,
      "note": 81,
      "start": 58.2329,
      "duration": 0.0766,
      "velocity": 109,
      "chip": "ym2612"
    },
    {
      "channel": 2,
      "note": 78,
      "start": 58.2334,
      "duration": 0.0769,
      "velocity": 109,
      "chip": "ym2612"
    },
    {
      "channel": 3,
      "note": 33,
      "start": 58.2338,
      "duration": 0.0772,
      "velocity": 127,
      "chip": "ym2612"
    },
    {
      "channel": 4,
      "note": 74,
      "start": 58.2342,
      "duration": 0.0775,
      "velocity": 109,
      "chip": "ym2612"
    },
    {
      "channel": 0,
      "note": 67,
      "start": 58.3091,
      "duration": 0.0666,
      "velocity": 112,
      "chip": "ym2612"
    },
    {
      "channel": 1,
      "note": 83,
      "start": 58.3098,
      "duration": 0.0666,
      "velocity": 109,
      "chip": "ym2612"
    },
    {
      "channel": 2,
      "note": 79,
      "start": 58.3105,
      "duration": 0.0666,
      "velocity": 109,
      "chip": "ym2612"
    },
    {
      "channel": 3,
      "note": 69,
      "start": 58.3112,
      "duration": 0.0032,
      "velocity": 127,
      "chip": "ym2612"
    },
    {
      "channel": 4,
      "note": 74,
      "start": 58.3119,
      "duration": 0.0666,
      "velocity": 109,
      "chip": "ym2612"
    },
    {
      "channel": 3,
      "note": 76,
      "start": 58.3145,
      "duration": 0.0632,
      "velocity": 127,
      "chip": "ym2612"
    },
    {
      "channel": 0,
      "note": 67,
      "start": 58.3758,
      "duration": 0.0644,
      "velocity": 112,
      "chip": "ym2612"
    },
    {
      "channel": 1,
      "note": 83,
      "start": 58.3765,
      "duration": 0.2348,
      "velocity": 109,
      "chip": "ym2612"
    },
    {
      "channel": 2,
      "note": 79,
      "start": 58.3772,
      "duration": 0.2348,
      "velocity": 109,
      "chip": "ym2612"
    },
    {
      "channel": 3,
      "note": 69,
      "start": 58.3779,
      "duration": 0.0631,
      "velocity": 127,
      "chip": "ym2612"
    },
    {
      "channel": 4,
      "note": 74,
      "start": 58.3786,
      "duration": 0.2348,
      "velocity": 109,
      "chip": "ym2612"
    },
    {
      "channel": 0,
      "note": 55,
      "start": 58.4404,
      "duration": 0.1702,
      "velocity": 112,
      "chip": "ym2612"
    },
    {
      "channel": 3,
      "note": 33,
      "start": 58.4412,
      "duration": 0.1714,
      "velocity": 127,
      "chip": "ym2612"
    },
    {
      "channel": 0,
      "note": 67,
      "start": 58.6108,
      "duration": 0.0034,
      "velocity": 112,
      "chip": "ym2612"
    },
    {
      "channel": 1,
      "note": 83,
      "start": 58.6115,
      "duration": 0.0031,
      "velocity": 109,
      "chip": "ym2612"
    },
    {
      "channel": 2,
      "note": 79,
      "start": 58.6122,
      "duration": 0.0028,
      "velocity": 109,
      "chip": "ym2612"
    },
    {
      "channel": 3,
      "note": 79,
      "start": 58.6129,
      "duration": 0.0053,
      "velocity": 127,
      "chip": "ym2612"
    },
    {
      "channel": 4,
      "note": 74,
      "start": 58.6136,
      "duration": 0.0017,
      "velocity": 109,
      "chip": "ym2612"
    },
    {
      "channel": 0,
      "note": 67,
      "start": 58.6143,
      "duration": 0.0633,
      "velocity": 112,
      "chip": "ym2612"
    },
    {
      "channel": 1,
      "note": 83,
      "start": 58.6147,
      "duration": 0.0636,
      "velocity": 109,
      "chip": "ym2612"
    },
    {
      "channel": 2,
      "note": 79,
      "start": 58.6151,
      "duration": 0.0639,
      "velocity": 109,
      "chip": "ym2612"
    },
    {
      "channel": 4,
      "note": 74,
      "start": 58.6156,
      "duration": 0.0642,
      "velocity": 109,
      "chip": "ym2612"
    },
    {
      "channel": 3,
      "note": 33,
      "start": 58.6183,
      "duration": 0.063,
      "velocity": 127,
      "chip": "ym2612"
    },
    {
      "channel": 0,
      "note": 67,
      "start": 58.6778,
      "duration": 0.0028,
      "velocity": 112,
      "chip": "ym2612"
    },
    {
      "channel": 1,
      "note": 83,
      "start": 58.6785,
      "duration": 0.0023,
      "velocity": 109,
      "chip": "ym2612"
    },
    {
      "channel": 2,
      "note": 79,
      "start": 58.6792,
      "duration": 0.0019,
      "velocity": 109,
      "chip": "ym2612"
    },
    {
      "channel": 4,
      "note": 74,
      "start": 58.68,
      "duration": 0.0016,
      "velocity": 109,
      "chip": "ym2612"
    },
    {
      "channel": 0,
      "note": 62,
      "start": 58.6807,
      "duration": 0.0588,
      "velocity": 112,
      "chip": "ym2612"
    },
    {
      "channel": 1,
      "note": 86,
      "start": 58.681,
      "duration": 0.0593,
      "velocity": 109,
      "chip": "ym2612"
    },
    {
      "channel": 2,
      "note": 83,
      "start": 58.6812,
      "duration": 0.0598,
      "velocity": 109,
      "chip": "ym2612"
    },
    {
      "channel": 3,
      "note": 69,
      "start": 58.6815,
      "duration": 0.0007,
      "velocity": 127,
      "chip": "ym2612"
    },
    {
      "channel": 4,
      "note": 79,
      "start": 58.6817,
      "duration": 0.0606,
      "velocity": 109,
      "chip": "ym2612"
    },
    {
      "channel": 3,
      "note": 74,
      "start": 58.6823,
      "duration": 0.0594,
      "velocity": 127,
      "chip": "ym2612"
    },
    {
      "channel": 0,
      "note": 67,
      "start": 58.7398,
      "duration": 0.0661,
      "velocity": 112,
      "chip": "ym2612"
    },
    {
      "channel": 1,
      "note": 85,
      "start": 58.7405,
      "duration": 0.0661,
      "velocity": 109,
      "chip": "ym2612"
    },
    {
      "channel": 2,
      "note": 81,
      "start": 58.7412,
      "duration": 0.0661,
      "velocity": 109,
      "chip": "ym2612"
    },
    {
      "channel": 3,
      "note": 69,
      "start": 58.7419,
      "duration": 0.0661,
      "velocity": 127,
      "chip": "ym2612"
    },
    {
      "channel": 4,
      "note": 76,
      "start": 58.7426,
      "duration": 0.0661,
      "velocity": 109,
      "chip": "ym2612"
    },
    {
      "channel": 0,
      "note": 67,
      "start": 58.8061,
      "duration": 0.0048,
      "velocity": 1,
      "chip": "ym2612"
    },
    {
      "channel": 1,
      "note": 83,
      "start": 58.8067,
      "duration": 0.2342,
      "velocity": 109,
      "chip": "ym2612"
    },
    {
      "channel": 2,
      "note": 79,
      "start": 58.8074,
      "duration": 0.2343,
      "velocity": 109,
      "chip": "ym2612"
    },
    {
      "channel": 3,
      "note": 33,
      "start": 58.8081,
      "duration": 0.0627,
      "velocity": 127,
      "chip": "ym2612"
    },
    {
      "channel": 4,
      "note": 74,
      "start": 58.8088,
      "duration": 0.2343,
      "velocity": 109,
      "chip": "ym2612"
    },
    {
      "channel": 0,
      "note": 67,
      "start": 58.811,
      "duration": 0.0589,
      "velocity": 112,
      "chip": "ym2612"
    },
    {
      "channel": 0,
      "note": 55,
      "start": 58.8701,
      "duration": 0.1701,
      "velocity": 112,
      "chip": "ym2612"
    },
    {
      "channel": 3,
      "note": 33,
      "start": 58.871,
      "duration": 0.1714,
      "velocity": 127,
      "chip": "ym2612"
    },
    {
      "channel": 0,
      "note": 67,
      "start": 59.0404,
      "duration": 0.0037,
      "velocity": 112,
      "chip": "ym2612"
    },
    {
      "channel": 1,
      "note": 83,
      "start": 59.0411,
      "duration": 0.0034,
      "velocity": 109,
      "chip": "ym2612"
    },
    {
      "channel": 2,
      "note": 79,
      "start": 59.0419,
      "duration": 0.003,
      "velocity": 109,
      "chip": "ym2612"
    },
    {
      "channel": 3,
      "note": 69,
      "start": 59.0426,
      "duration": 0.0027,
      "velocity": 127,
      "chip": "ym2612"
    },
    {
      "channel": 4,
      "note": 74,
      "start": 59.0434,
      "duration": 0.0028,
      "velocity": 109,
      "chip": "ym2612"
    },
    {
      "channel": 0,
      "note": 67,
      "start": 59.0443,
      "duration": 0.0629,
      "velocity": 112,
      "chip": "ym2612"
    },
    {
      "channel": 1,
      "note": 83,
      "start": 59.0447,
      "duration": 0.0631,
      "velocity": 109,
      "chip": "ym2612"
    },
    {
      "channel": 2,
      "note": 79,
      "start": 59.0451,
      "duration": 0.0634,
      "velocity": 109,
      "chip": "ym2612"
    },
    {
      "channel": 3,
      "note": 74,
      "start": 59.0454,
      "duration": 0.0033,
      "velocity": 127,
      "chip": "ym2612"
    },
    {
      "channel": 4,
      "note": 74,
      "start": 59.0466,
      "duration": 0.0627,
      "velocity": 109,
      "chip": "ym2612"
    },
    {
      "channel": 3,
      "note": 69,
      "start": 59.0488,
      "duration": 0.062,
      "velocity": 127,
      "chip": "ym2612"
    },
    {
      "channel": 0,
      "note": 67,
      "start": 59.1073,
      "duration": 0.0028,
      "velocity": 112,
      "chip": "ym2612"
    },
    {
      "channel": 1,
      "note": 83,
      "start": 59.108,
      "duration": 0.0023,
      "velocity": 109,
      "chip": "ym2612"
    },
    {
      "channel": 2,
      "note": 79,
      "start": 59.1087,
      "duration": 0.0019,
      "velocity": 109,
      "chip": "ym2612"
    },
    {
      "channel": 4,
      "note": 74,
      "start": 59.1095,
      "duration": 0.0016,
      "velocity": 109,
      "chip": "ym2612"
    },
    {
      "channel": 0,
      "note": 62,
      "start": 59.1102,
      "duration": 0.0591,
      "velocity": 112,
      "chip": "ym2612"
    },
    {
      "channel": 1,
      "note": 81,
      "start": 59.1105,
      "duration": 0.0595,
      "velocity": 109,
      "chip": "ym2612"
    },
    {
      "channel": 2,
      "note": 78,
      "start": 59.1108,
      "duration": 0.06,
      "velocity": 109,
      "chip": "ym2612"
    },
    {
      "channel": 3,
      "note": 33,
      "start": 59.111,
      "duration": 0.0604,
      "velocity": 127,
      "chip": "ym2612"
    },
    {
      "channel": 4,
      "note": 74,
      "start": 59.1113,
      "duration": 0.0608,
      "velocity": 109,
      "chip": "ym2612"
    },
    {
      "channel": 0,
      "note": 67,
      "start": 59.1696,
      "duration": 0.0659,
      "velocity": 112,
      "chip": "ym2612"
    },
    {
      "channel": 1,
      "note": 83,
      "start": 59.1702,
      "duration": 0.0659,
      "velocity": 109,
      "chip": "ym2612"
    },
    {
      "channel": 2,
      "note": 79,
      "start": 59.171,
      "duration": 0.0659,
      "velocity": 109,
      "chip": "ym2612"
    },
    {
      "channel": 3,
      "note": 69,
      "start": 59.1717,
      "duration": 0.0028,
      "velocity": 127,
      "chip": "ym2612"
    },
    {
      "channel": 4,
      "note": 74,
      "start": 59.1724,
      "duration": 0.066,
      "velocity": 109,
      "chip": "ym2612"
    },
    {
      "channel": 3,
      "note": 76,
      "start": 59.1745,
      "duration": 0.0631,
      "velocity": 127,
      "chip": "ym2612"
    },
    {
      "channel": 0,
      "note": 67,
      "start": 59.2358,
      "duration": 0.0643,
      "velocity": 112,
      "chip": "ym2612"
    },
    {
      "channel": 1,
      "note": 83,
      "start": 59.2364,
      "duration": 0.2514,
      "velocity": 109,
      "chip": "ym2612"
    },
    {
      "channel": 2,
      "note": 79,
      "start": 59.2371,
      "duration": 0.2514,
      "velocity": 109,
      "chip": "ym2612"
    },
    {
      "channel": 3,
      "note": 69,
      "start": 59.2378,
      "duration": 0.063,
      "velocity": 127,
      "chip": "ym2612"
    },
    {
      "channel": 4,
      "note": 74,
      "start": 59.2385,
      "duration": 0.2514,
      "velocity": 109,
      "chip": "ym2612"
    },
    {
      "channel": 0,
      "note": 55,
      "start": 59.3002,
      "duration": 0.1869,
      "velocity": 112,
      "chip": "ym2612"
    },
    {
      "channel": 3,
      "note": 33,
      "start": 59.3011,
      "duration": 0.1882,
      "velocity": 127,
      "chip": "ym2612"
    },
    {
      "channel": 0,
      "note": 67,
      "start": 59.4874,
      "duration": 0.0034,
      "velocity": 112,
      "chip": "ym2612"
    },
    {
      "channel": 1,
      "note": 83,
      "start": 59.488,
      "duration": 0.0031,
      "velocity": 109,
      "chip": "ym2612"
    },
    {
      "channel": 2,
      "note": 79,
      "start": 59.4888,
      "duration": 0.0028,
      "velocity": 109,
      "chip": "ym2612"
    },
    {
      "channel": 3,
      "note": 79,
      "start": 59.4895,
      "duration": 0.0049,
      "velocity": 127,
      "chip": "ym2612"
    },
    {
      "channel": 4,
      "note": 74,
      "start": 59.4902,
      "duration": 0.0017,
      "velocity": 109,
      "chip": "ym2612"
    },
    {
      "channel": 0,
      "note": 67,
      "start": 59.491,
      "duration": 0.0629,
      "velocity": 112,
      "chip": "ym2612"
    },
    {
      "channel": 1,
      "note": 83,
      "start": 59.4913,
      "duration": 0.0632,
      "velocity": 109,
      "chip": "ym2612"
    },
    {
      "channel": 2,
      "note": 79,
      "start": 59.4917,
      "duration": 0.0635,
      "velocity": 109,
      "chip": "ym2612"
    },
    {
      "channel": 4,
      "note": 74,
      "start": 59.4922,
      "duration": 0.0638,
      "velocity": 109,
      "chip": "ym2612"
    },
    {
      "channel": 3,
      "note": 33,
      "start": 59.4944,
      "duration": 0.0632,
      "velocity": 127,
      "chip": "ym2612"
    },
    {
      "channel": 0,
      "note": 67,
      "start": 59.5541,
      "duration": 0.0028,
      "velocity": 112,
      "chip": "ym2612"
    },
    {
      "channel": 1,
      "note": 83,
      "start": 59.5548,
      "duration": 0.0023,
      "velocity": 109,
      "chip": "ym2612"
    },
    {
      "channel": 2,
      "note": 79,
      "start": 59.5554,
      "duration": 0.0019,
      "velocity": 109,
      "chip": "ym2612"
    },
    {
      "channel": 4,
      "note": 74,
      "start": 59.5563,
      "duration": 0.0016,
      "velocity": 109,
      "chip": "ym2612"
    },
    {
      "channel": 0,
      "note": 62,
      "start": 59.557,
      "duration": 0.059,
      "velocity": 112,
      "chip": "ym2612"
    },
    {
      "channel": 1,
      "note": 86,
      "start": 59.5573,
      "duration": 0.0595,
      "velocity": 109,
      "chip": "ym2612"
    },
    {
      "channel": 2,
      "note": 83,
      "start": 59.5575,
      "duration": 0.0599,
      "velocity": 109,
      "chip": "ym2612"
    },
    {
      "channel": 3,
      "note": 69,
      "start": 59.5578,
      "duration": 0.0008,
      "velocity": 127,
      "chip": "ym2612"
    },
    {
      "channel": 4,
      "note": 79,
      "start": 59.5581,
      "duration": 0.0608,
      "velocity": 109,
      "chip": "ym2612"
    },
    {
      "channel": 3,
      "note": 74,
      "start": 59.5588,
      "duration": 0.0594,
      "velocity": 127,
      "chip": "ym2612"
    },
    {
      "channel": 0,
      "note": 67,
      "start": 59.6162,
      "duration": 0.0662,
      "velocity": 112,
      "chip": "ym2612"
    },
    {
      "channel": 1,
      "note": 85,
      "start": 59.6169,
      "duration": 0.0663,
      "velocity": 109,
      "chip": "ym2612"
    },
    {
      "channel": 2,
      "note": 81,
      "start": 59.6176,
      "duration": 0.0663,
      "velocity": 109,
      "chip": "ym2612"
    },
    {
      "channel": 3,
      "note": 69,
      "start": 59.6183,
      "duration": 0.0663,
      "velocity": 127,
      "chip": "ym2612"
    },
    {
      "channel": 4,
      "note": 76,
      "start": 59.619,
      "duration": 0.0663,
      "velocity": 109,
      "chip": "ym2612"
    },
    {
      "channel": 0,
      "note": 67,
      "start": 59.6827,
      "duration": 0.0052,
      "velocity": 1,
      "chip": "ym2612"
    },
    {
      "channel": 1,
      "note": 83,
      "start": 59.6834,
      "duration": 0.0829,
      "velocity": 117,
      "chip": "ym2612"
    },
    {
      "channel": 2,
      "note": 79,
      "start": 59.6841,
      "duration": 0.0829,
      "velocity": 109,
      "chip": "ym2612"
    },
    {
      "channel": 3,
      "note": 33,
      "start": 59.6848,
      "duration": 0.083,
      "velocity": 127,
      "chip": "ym2612"
    },
    {
      "channel": 4,
      "note": 74,
      "start": 59.6855,
      "duration": 0.0831,
      "velocity": 109,
      "chip": "ym2612"
    },
    {
      "channel": 0,
      "note": 67,
      "start": 59.688,
      "duration": 0.0756,
      "velocity": 112,
      "chip": "ym2612"
    },
    {
      "channel": 0,
      "note": 62,
      "start": 59.7638,
      "duration": 0.32,
      "velocity": 112,
      "chip": "ym2612"
    },
    {
      "channel": 1,
      "note": 74,
      "start": 59.7664,
      "duration": 0.0029,
      "velocity": 117,
      "chip": "ym2612"
    },
    {
      "channel": 2,
      "note": 81,
      "start": 59.7672,
      "duration": 0.7368,
      "velocity": 119,
      "chip": "ym2612"
    },
    {
      "channel": 3,
      "note": 33,
      "start": 59.768,
      "duration": 0.1666,
      "velocity": 127,
      "chip": "ym2612"
    },
    {
      "channel": 4,
      "note": 78,
      "start": 59.7688,
      "duration": 0.7379,
      "velocity": 119,
      "chip": "ym2612"
    },
    {
      "channel": 1,
      "note": 78,
      "start": 59.7695,
      "duration": 0.1642,
      "velocity": 117,
      "chip": "ym2612"
    },
    {
      "channel": 1,
      "note": 81,
      "start": 59.9341,
      "duration": 0.1504,
      "velocity": 117,
      "chip": "ym2612"
    },
    {
      "channel": 3,
      "note": 69,
      "start": 59.9348,
      "duration": 0.1505,
      "velocity": 127,
      "chip": "ym2612"
    },
    {
      "channel": 5,
      "note": 83,
      "start": 59.9357,
      "duration": 1.1165,
      "velocity": 103,
      "chip": "ym2612"
    },
    {
      "channel": 0,
      "note": 62,
      "start": 60.084,
      "duration": 0.0575,
      "velocity": 1,
      "chip": "ym2612"
    },
    {
      "channel": 1,
      "note": 86,
      "start": 60.0847,
      "duration": 0.2242,
      "velocity": 117,
      "chip": "ym2612"
    },
    {
      "channel": 3,
      "note": 74,
      "start": 60.0854,
      "duration": 0.0569,
      "velocity": 127,
      "chip": "ym2612"
    },
    {
      "channel": 0,
      "note": 55,
      "start": 60.1417,
      "duration": 0.1664,
      "velocity": 112,
      "chip": "ym2612"
    },
    {
      "channel": 3,
      "note": 69,
      "start": 60.1426,
      "duration": 0.3152,
      "velocity": 127,
      "chip": "ym2612"
    },
    {
      "channel": 0,
      "note": 54,
      "start": 60.3083,
      "duration": 0.148,
      "velocity": 112,
      "chip": "ym2612"
    },
    {
      "channel": 1,
      "note": 85,
      "start": 60.309,
      "duration": 0.148,
      "velocity": 117,
      "chip": "ym2612"
    },
    {
      "channel": 0,
      "note": 55,
      "start": 60.4565,
      "duration": 0.1954,
      "velocity": 112,
      "chip": "ym2612"
    },
    {
      "channel": 1,
      "note": 83,
      "start": 60.4572,
      "duration": 0.1953,
      "velocity": 117,
      "chip": "ym2612"
    },
    {
      "channel": 3,
      "note": 33,
      "start": 60.458,
      "duration": 0.1954,
      "velocity": 127,
      "chip": "ym2612"
    },
    {
      "channel": 2,
      "note": 71,
      "start": 60.5041,
      "duration": 0.3167,
      "velocity": 119,
      "chip": "ym2612"
    },
    {
      "channel": 4,
      "note": 67,
      "start": 60.5069,
      "duration": 0.3153,
      "velocity": 119,
      "chip": "ym2612"
    },
    {
      "channel": 0,
      "note": 55,
      "start": 60.652,
      "duration": 0.1907,
      "velocity": 112,
      "chip": "ym2612"
    },
    {
      "channel": 1,
      "note": 86,
      "start": 60.6527,
      "duration": 0.1907,
      "velocity": 117,
      "chip": "ym2612"
    },
    {
      "channel": 3,
      "note": 69,
      "start": 60.6536,
      "duration": 0.1679,
      "velocity": 127,
      "chip": "ym2612"
    },
    {
      "channel": 2,
      "note": 71,
      "start": 60.821,
      "duration": 0.172,
      "velocity": 119,
      "chip": "ym2612"
    },
    {
      "channel": 3,
      "note": 76,
      "start": 60.8217,
      "duration": 0.0225,
      "velocity": 127,
      "chip": "ym2612"
    },
    {
      "channel": 4,
      "note": 67,
      "start": 60.8224,
      "duration": 0.1715,
      "velocity": 119,
      "chip": "ym2612"
    },
    {
      "channel": 0,
      "note": 50,
      "start": 60.843,
      "duration": 0.2058,
      "velocity": 112,
      "chip": "ym2612"
    },
    {
      "channel": 1,
      "note": 79,
      "start": 60.8437,
      "duration": 0.2058,
      "velocity": 117,
      "chip": "ym2612"
    },
    {
      "channel": 3,
      "note": 69,
      "start": 60.8445,
      "duration": 0.2064,
      "velocity": 127,
      "chip": "ym2612"
    },
    {
      "channel": 2,
      "note": 67,
      "start": 60.9933,
      "duration": 0.0569,
      "velocity": 119,
      "chip": "ym2612"
    },
    {
      "channel": 4,
      "note": 62,
      "start": 60.9941,
      "duration": 0.0575,
      "velocity": 119,
      "chip": "ym2612"
    },
    {
      "channel": 0,
      "note": 57,
      "start": 61.049,
      "duration": 0.2157,
      "velocity": 112,
      "chip": "ym2612"
    },
    {
      "channel": 1,
      "note": 69,
      "start": 61.0496,
      "duration": 0.1471,
      "velocity": 117,
      "chip": "ym2612"
    },
    {
      "channel": 2,
      "note": 69,
      "start": 61.0503,
      "duration": 0.2158,
      "velocity": 119,
      "chip": "ym2612"
    },
    {
      "channel": 3,
      "note": 33,
      "start": 61.051,
      "duration": 0.1922,
      "velocity": 127,
      "chip": "ym2612"
    },
    {
      "channel": 4,
      "note": 64,
      "start": 61.0517,
      "duration": 0.2151,
      "velocity": 119,
      "chip": "ym2612"
    },
    {
      "channel": 5,
      "note": 73,
      "start": 61.0524,
      "duration": 0.5381,
      "velocity": 103,
      "chip": "ym2612"
    },
    {
      "channel": 1,
      "note": 73,
      "start": 61.1969,
      "duration": 0.0455,
      "velocity": 117,
      "chip": "ym2612"
    },
    {
      "channel": 1,
      "note": 76,
      "start": 61.2427,
      "duration": 0.0227,
      "velocity": 117,
      "chip": "ym2612"
    },
    {
      "channel": 3,
      "note": 79,
      "start": 61.2434,
      "duration": 0.1735,
      "velocity": 127,
      "chip": "ym2612"
    },
    {
      "channel": 0,
      "note": 57,
      "start": 61.2649,
      "duration": 0.174,
      "velocity": 112,
      "chip": "ym2612"
    },
    {
      "channel": 1,
      "note": 81,
      "start": 61.2656,
      "duration": 0.174,
      "velocity": 117,
      "chip": "ym2612"
    },
    {
      "channel": 2,
      "note": 69,
      "start": 61.2663,
      "duration": 0.174,
      "velocity": 119,
      "chip": "ym2612"
    },
    {
      "channel": 4,
      "note": 64,
      "start": 61.2671,
      "duration": 0.3228,
      "velocity": 119,
      "chip": "ym2612"
    },
    {
      "channel": 3,
      "note": 33,
      "start": 61.4172,
      "duration": 0.172,
      "velocity": 127,
      "chip": "ym2612"
    },
    {
      "channel": 0,
      "note": 61,
      "start": 61.4391,
      "duration": 0.148,
      "velocity": 112,
      "chip": "ym2612"
    },
    {
      "channel": 1,
      "note": 79,
      "start": 61.4398,
      "duration": 0.148,
      "velocity": 117,
      "chip": "ym2612"
    },
    {
      "channel": 2,
      "note": 73,
      "start": 61.4405,
      "duration": 0.148,
      "velocity": 119,
      "chip": "ym2612"
    },
    {
      "channel": 0,
      "note": 62,
      "start": 61.5873,
      "duration": 0.2222,
      "velocity": 112,
      "chip": "ym2612"
    },
    {
      "channel": 1,
      "note": 78,
      "start": 61.588,
      "duration": 0.2223,
      "velocity": 117,
      "chip": "ym2612"
    },
    {
      "channel": 2,
      "note": 74,
      "start": 61.5887,
      "duration": 0.1651,
      "velocity": 119,
      "chip": "ym2612"
    },
    {
      "channel": 3,
      "note": 69,
      "start": 61.5894,
      "duration": 0.1651,
      "velocity": 127,
      "chip": "ym2612"
    },
    {
      "channel": 4,
      "note": 69,
      "start": 61.5901,
      "duration": 0.1652,
      "velocity": 119,
      "chip": "ym2612"
    },
    {
      "channel": 5,
      "note": 83,
      "start": 61.5908,
      "duration": 0.9063,
      "velocity": 103,
      "chip": "ym2612"
    },
    {
      "channel": 2,
      "note": 69,
      "start": 61.7541,
      "duration": 0.0569,
      "velocity": 119,
      "chip": "ym2612"
    },
    {
      "channel": 3,
      "note": 74,
      "start": 61.7548,
      "duration": 0.0569,
      "velocity": 127,
      "chip": "ym2612"
    },
    {
      "channel": 4,
      "note": 66,
      "start": 61.7555,
      "duration": 0.0569,
      "velocity": 119,
      "chip": "ym2612"
    },
    {
      "channel": 0,
      "note": 57,
      "start": 61.8098,
      "duration": 0.3184,
      "velocity": 112,
      "chip": "ym2612"
    },
    {
      "channel": 1,
      "note": 81,
      "start": 61.8105,
      "duration": 0.3185,
      "velocity": 117,
      "chip": "ym2612"
    },
    {
      "channel": 2,
      "note": 66,
      "start": 61.8112,
      "duration": 0.3185,
      "velocity": 119,
      "chip": "ym2612"
    },
    {
      "channel": 3,
      "note": 69,
      "start": 61.8119,
      "duration": 0.3185,
      "velocity": 127,
      "chip": "ym2612"
    },
    {
      "channel": 4,
      "note": 62,
      "start": 61.8126,
      "duration": 0.3185,
      "velocity": 119,
      "chip": "ym2612"
    },
    {
      "channel": 0,
      "note": 50,
      "start": 62.1284,
      "duration": 0.0285,
      "velocity": 1,
      "chip": "ym2612"
    },
    {
      "channel": 1,
      "note": 74,
      "start": 62.1291,
      "duration": 0.1955,
      "velocity": 117,
      "chip": "ym2612"
    },
    {
      "channel": 2,
      "note": 62,
      "start": 62.1298,
      "duration": 0.215,
      "velocity": 119,
      "chip": "ym2612"
    },
    {
      "channel": 3,
      "note": 33,
      "start": 62.1305,
      "duration": 0.1949,
      "velocity": 127,
      "chip": "ym2612"
    },
    {
      "channel": 4,
      "note": 57,
      "start": 62.1312,
      "duration": 0.3651,
      "velocity": 119,
      "chip": "ym2612"
    },
    {
      "channel": 0,
      "note": 55,
      "start": 62.1572,
      "duration": 0.1667,
      "velocity": 112,
      "chip": "ym2612"
    },
    {
      "channel": 0,
      "note": 62,
      "start": 62.324,
      "duration": 0.3367,
      "velocity": 112,
      "chip": "ym2612"
    },
    {
      "channel": 1,
      "note": 74,
      "start": 62.3248,
      "duration": 0.0193,
      "velocity": 117,
      "chip": "ym2612"
    },
    {
      "channel": 3,
      "note": 33,
      "start": 62.3256,
      "duration": 0.17,
      "velocity": 127,
      "chip": "ym2612"
    },
    {
      "channel": 1,
      "note": 78,
      "start": 62.3442,
      "duration": 0.1499,
      "velocity": 117,
      "chip": "ym2612"
    },
    {
      "channel": 2,
      "note": 62,
      "start": 62.345,
      "duration": 0.1499,
      "velocity": 119,
      "chip": "ym2612"
    },
    {
      "channel": 1,
      "note": 81,
      "start": 62.4944,
      "duration": 0.1671,
      "velocity": 117,
      "chip": "ym2612"
    },
    {
      "channel": 2,
      "note": 66,
      "start": 62.4951,
      "duration": 0.0825,
      "velocity": 119,
      "chip": "ym2612"
    },
    {
      "channel": 3,
      "note": 69,
      "start": 62.4958,
      "duration": 0.1671,
      "velocity": 127,
      "chip": "ym2612"
    },
    {
      "channel": 4,
      "note": 62,
      "start": 62.4965,
      "duration": 0.0818,
      "velocity": 119,
      "chip": "ym2612"
    },
    {
      "channel": 5,
      "note": 83,
      "start": 62.4973,
      "duration": 1.1154,
      "velocity": 103,
      "chip": "ym2612"
    },
    {
      "channel": 2,
      "note": 69,
      "start": 62.5778,
      "duration": 0.0844,
      "velocity": 119,
      "chip": "ym2612"
    },
    {
      "channel": 4,
      "note": 66,
      "start": 62.5786,
      "duration": 0.085,
      "velocity": 119,
      "chip": "ym2612"
    },
    {
      "channel": 0,
      "note": 62,
      "start": 62.661,
      "duration": 0.0409,
      "velocity": 1,
      "chip": "ym2612"
    },
    {
      "channel": 1,
      "note": 86,
      "start": 62.6617,
      "duration": 0.2076,
      "velocity": 117,
      "chip": "ym2612"
    },
    {
      "channel": 2,
      "note": 66,
      "start": 62.6624,
      "duration": 0.002,
      "velocity": 119,
      "chip": "ym2612"
    },
    {
      "channel": 3,
      "note": 74,
      "start": 62.6631,
      "duration": 0.0404,
      "velocity": 127,
      "chip": "ym2612"
    },
    {
      "channel": 4,
      "note": 62,
      "start": 62.6638,
      "duration": 0.001,
      "velocity": 119,
      "chip": "ym2612"
    },
    {
      "channel": 2,
      "note": 69,
      "start": 62.6646,
      "duration": 0.0381,
      "velocity": 119,
      "chip": "ym2612"
    },
    {
      "channel": 4,
      "note": 66,
      "start": 62.665,
      "duration": 0.0391,
      "velocity": 119,
      "chip": "ym2612"
    },
    {
      "channel": 0,
      "note": 55,
      "start": 62.7022,
      "duration": 0.1664,
      "velocity": 112,
      "chip": "ym2612"
    },
    {
      "channel": 2,
      "note": 66,
      "start": 62.7029,
      "duration": 0.1671,
      "velocity": 119,
      "chip": "ym2612"
    },
    {
      "channel": 3,
      "note": 69,
      "start": 62.7036,
      "duration": 0.3319,
      "velocity": 127,
      "chip": "ym2612"
    },
    {
      "channel": 4,
      "note": 62,
      "start": 62.7043,
      "duration": 0.1665,
      "velocity": 119,
      "chip": "ym2612"
    },
    {
      "channel": 0,
      "note": 54,
      "start": 62.8688,
      "duration": 0.1646,
      "velocity": 112,
      "chip": "ym2612"
    },
    {
      "channel": 1,
      "note": 85,
      "start": 62.8695,
      "duration": 0.1646,
      "velocity": 117,
      "chip": "ym2612"
    },
    {
      "channel": 2,
      "note": 69,
      "start": 62.8702,
      "duration": 0.1646,
      "velocity": 119,
      "chip": "ym2612"
    },
    {
      "channel": 4,
      "note": 62,
      "start": 62.871,
      "duration": 0.1652,
      "velocity": 119,
      "chip": "ym2612"
    },
    {
      "channel": 0,
      "note": 55,
      "start": 63.0336,
      "duration": 0.1953,
      "velocity": 112,
      "chip": "ym2612"
    },
    {
      "channel": 1,
      "note": 83,
      "start": 63.0343,
      "duration": 0.1953,
      "velocity": 117,
      "chip": "ym2612"
    },
    {
      "channel": 2,
      "note": 71,
      "start": 63.035,
      "duration": 0.0273,
      "velocity": 119,
      "chip": "ym2612"
    },
    {
      "channel": 3,
      "note": 33,
      "start": 63.0357,
      "duration": 0.1947,
      "velocity": 127,
      "chip": "ym2612"
    },
    {
      "channel": 4,
      "note": 67,
      "start": 63.0364,
      "duration": 0.0268,
      "velocity": 119,
      "chip": "ym2612"
    },
    {
      "channel": 2,
      "note": 74,
      "start": 63.0625,
      "duration": 0.3186,
      "velocity": 119,
      "chip": "ym2612"
    },
    {
      "channel": 4,
      "note": 71,
      "start": 63.0633,
      "duration": 0.3192,
      "velocity": 119,
      "chip": "ym2612"
    },
    {
      "channel": 0,
      "note": 55,
      "start": 63.229,
      "duration": 0.1741,
      "velocity": 112,
      "chip": "ym2612"
    },
    {
      "channel": 1,
      "note": 86,
      "start": 63.2298,
      "duration": 0.1741,
      "velocity": 117,
      "chip": "ym2612"
    },
    {
      "channel": 3,
      "note": 69,
      "start": 63.2306,
      "duration": 0.1513,
      "velocity": 127,
      "chip": "ym2612"
    },
    {
      "channel": 2,
      "note": 71,
      "start": 63.3813,
      "duration": 0.1888,
      "velocity": 119,
      "chip": "ym2612"
    },
    {
      "channel": 3,
      "note": 76,
      "start": 63.382,
      "duration": 0.0226,
      "velocity": 127,
      "chip": "ym2612"
    },
    {
      "channel": 4,
      "note": 67,
      "start": 63.3827,
      "duration": 0.1882,
      "velocity": 119,
      "chip": "ym2612"
    },
    {
      "channel": 0,
      "note": 50,
      "start": 63.4034,
      "duration": 0.2057,
      "velocity": 112,
      "chip": "ym2612"
    },
    {
      "channel": 1,
      "note": 79,
      "start": 63.4041,
      "duration": 0.2057,
      "velocity": 117,
      "chip": "ym2612"
    },
    {
      "channel": 3,
      "note": 69,
      "start": 63.4048,
      "duration": 0.2063,
      "velocity": 127,
      "chip": "ym2612"
    },
    {
      "channel": 2,
      "note": 67,
      "start": 63.5704,
      "duration": 0.0401,
      "velocity": 119,
      "chip": "ym2612"
    },
    {
      "channel": 4,
      "note": 62,
      "start": 63.5711,
      "duration": 0.0408,
      "velocity": 119,
      "chip": "ym2612"
    },
    {
      "channel": 0,
      "note": 57,
      "start": 63.6093,
      "duration": 0.2156,
      "velocity": 112,
      "chip": "ym2612"
    },
    {
      "channel": 1,
      "note": 81,
      "start": 63.61,
      "duration": 0.1946,
      "velocity": 117,
      "chip": "ym2612"
    },
    {
      "channel": 2,
      "note": 69,
      "start": 63.6107,
      "duration": 0.2157,
      "velocity": 119,
      "chip": "ym2612"
    },
    {
      "channel": 3,
      "note": 33,
      "start": 63.6114,
      "duration": 0.1941,
      "velocity": 127,
      "chip": "ym2612"
    },
    {
      "channel": 4,
      "note": 64,
      "start": 63.6121,
      "duration": 0.215,
      "velocity": 119,
      "chip": "ym2612"
    },
    {
      "channel": 5,
      "note": 73,
      "start": 63.6128,
      "duration": 0.5545,
      "velocity": 103,
      "chip": "ym2612"
    },
    {
      "channel": 1,
      "note": 81,
      "start": 63.8049,
      "duration": 0.0208,
      "velocity": 117,
      "chip": "ym2612"
    },
    {
      "channel": 3,
      "note": 79,
      "start": 63.8057,
      "duration": 0.1903,
      "velocity": 127,
      "chip": "ym2612"
    },
    {
      "channel": 0,
      "note": 59,
      "start": 63.8252,
      "duration": 0.174,
      "velocity": 112,
      "chip": "ym2612"
    },
    {
      "channel": 1,
      "note": 79,
      "start": 63.8259,
      "duration": 0.1759,
      "velocity": 117,
      "chip": "ym2612"
    },
    {
      "channel": 2,
      "note": 69,
      "start": 63.8266,
      "duration": 0.1759,
      "velocity": 119,
      "chip": "ym2612"
    },
    {
      "channel": 4,
      "note": 64,
      "start": 63.8274,
      "duration": 0.3393,
      "velocity": 119,
      "chip": "ym2612"
    },
    {
      "channel": 3,
      "note": 33,
      "start": 63.9962,
      "duration": 0.1698,
      "velocity": 127,
      "chip": "ym2612"
    },
    {
      "channel": 0,
      "note": 57,
      "start": 63.9994,
      "duration": 0.1645,
      "velocity": 112,
      "chip": "ym2612"
    },
    {
      "channel": 1,
      "note": 76,
      "start": 64.002,
      "duration": 0.1625,
      "velocity": 117,
      "chip": "ym2612"
    },
    {
      "channel": 2,
      "note": 73,
      "start": 64.0027,
      "duration": 0.1625,
      "velocity": 119,
      "chip": "ym2612"
    },
    {
      "channel": 0,
      "note": 50,
      "start": 64.1641,
      "duration": 0.2056,
      "velocity": 112,
      "chip": "ym2612"
    },
    {
      "channel": 1,
      "note": 74,
      "start": 64.1648,
      "duration": 0.72,
      "velocity": 117,
      "chip": "ym2612"
    },
    {
      "channel": 2,
      "note": 74,
      "start": 64.1655,
      "duration": 0.1485,
      "velocity": 119,
      "chip": "ym2612"
    },
    {
      "channel": 3,
      "note": 69,
      "start": 64.1662,
      "duration": 0.1485,
      "velocity": 127,
      "chip": "ym2612"
    },
    {
      "channel": 4,
      "note": 69,
      "start": 64.1669,
      "duration": 0.1485,
      "velocity": 119,
      "chip": "ym2612"
    },
    {
      "channel": 5,
      "note": 83,
      "start": 64.1676,
      "duration": 0.905,
      "velocity": 103,
      "chip": "ym2612"
    },
    {
      "channel": 2,
      "note": 69,
      "start": 64.3142,
      "duration": 0.0562,
      "velocity": 119,
      "chip": "ym2612"
    },
    {
      "channel": 3,
      "note": 74,
      "start": 64.3149,
      "duration": 0.0562,
      "velocity": 127,
      "chip": "ym2612"
    },
    {
      "channel": 4,
      "note": 66,
      "start": 64.3156,
      "duration": 0.0562,
      "velocity": 119,
      "chip": "ym2612"
    },
    {
      "channel": 0,
      "note": 57,
      "start": 64.3699,
      "duration": 0.3164,
      "velocity": 112,
      "chip": "ym2612"
    },
    {
      "channel": 2,
      "note": 66,
      "start": 64.3706,
      "duration": 0.5168,
      "velocity": 109,
      "chip": "ym2612"
    },
    {
      "channel": 3,
      "note": 69,
      "start": 64.3713,
      "duration": 0.3159,
      "velocity": 127,
      "chip": "ym2612"
    },
    {
      "channel": 4,
      "note": 62,
      "start": 64.372,
      "duration": 0.5188,
      "velocity": 109,
      "chip": "ym2612"
    },
    {
      "channel": 0,
      "note": 59,
      "start": 64.6865,
      "duration": 0.1956,
      "velocity": 112,
      "chip": "ym2612"
    },
    {
      "channel": 3,
      "note": 33,
      "start": 64.6873,
      "duration": 0.2008,
      "velocity": 127,
      "chip": "ym2612"
    },
    {
      "channel": 0,
      "note": 62,
      "start": 64.8823,
      "duration": 0.3386,
      "velocity": 112,
      "chip": "ym2612"
    },
    {
      "channel": 1,
      "note": 86,
      "start": 64.885,
      "duration": 0.0193,
      "velocity": 117,
      "chip": "ym2612"
    },
    {
      "channel": 2,
      "note": 81,
      "start": 64.8876,
      "duration": 0.7556,
      "velocity": 119,
      "chip": "ym2612"
    },
    {
      "channel": 3,
      "note": 33,
      "start": 64.8884,
      "duration": 0.1834,
      "velocity": 127,
      "chip": "ym2612"
    },
    {
      "channel": 4,
      "note": 78,
      "start": 64.891,
      "duration": 0.7549,
      "velocity": 119,
      "chip": "ym2612"
    },
    {
      "channel": 1,
      "note": 90,
      "start": 64.9045,
      "duration": 0.1665,
      "velocity": 117,
      "chip": "ym2612"
    },
    {
      "channel": 1,
      "note": 93,
      "start": 65.0712,
      "duration": 0.1504,
      "velocity": 117,
      "chip": "ym2612"
    },
    {
      "channel": 3,
      "note": 69,
      "start": 65.072,
      "duration": 0.1505,
      "velocity": 127,
      "chip": "ym2612"
    },
    {
      "channel": 5,
      "note": 83,
      "start": 65.0729,
      "duration": 1.1185,
      "velocity": 103,
      "chip": "ym2612"
    },
    {
      "channel": 0,
      "note": 62,
      "start": 65.2211,
      "duration": 0.0576,
      "velocity": 1,
      "chip": "ym2612"
    },
    {
      "channel": 1,
      "note": 98,
      "start": 65.2218,
      "duration": 0.2095,
      "velocity": 117,
      "chip": "ym2612"
    },
    {
      "channel": 3,
      "note": 74,
      "start": 65.2226,
      "duration": 0.059,
      "velocity": 127,
      "chip": "ym2612"
    },
    {
      "channel": 0,
      "note": 55,
      "start": 65.2789,
      "duration": 0.1498,
      "velocity": 112,
      "chip": "ym2612"
    },
    {
      "channel": 3,
      "note": 69,
      "start": 65.2818,
      "duration": 0.3131,
      "velocity": 127,
      "chip": "ym2612"
    },
    {
      "channel": 0,
      "note": 54,
      "start": 65.4289,
      "duration": 0.1646,
      "velocity": 112,
      "chip": "ym2612"
    },
    {
      "channel": 1,
      "note": 97,
      "start": 65.4315,
      "duration": 0.1627,
      "velocity": 117,
      "chip": "ym2612"
    },
    {
      "channel": 0,
      "note": 55,
      "start": 65.5937,
      "duration": 0.1954,
      "velocity": 112,
      "chip": "ym2612"
    },
    {
      "channel": 1,
      "note": 95,
      "start": 65.5944,
      "duration": 0.1973,
      "velocity": 117,
      "chip": "ym2612"
    },
    {
      "channel": 3,
      "note": 33,
      "start": 65.5951,
      "duration": 0.1973,
      "velocity": 127,
      "chip": "ym2612"
    },
    {
      "channel": 2,
      "note": 71,
      "start": 65.6434,
      "duration": 0.3167,
      "velocity": 119,
      "chip": "ym2612"
    },
    {
      "channel": 4,
      "note": 67,
      "start": 65.6461,
      "duration": 0.3153,
      "velocity": 119,
      "chip": "ym2612"
    },
    {
      "channel": 0,
      "note": 55,
      "start": 65.7892,
      "duration": 0.1749,
      "velocity": 112,
      "chip": "ym2612"
    },
    {
      "channel": 1,
      "note": 98,
      "start": 65.7919,
      "duration": 0.1749,
      "velocity": 117,
      "chip": "ym2612"
    },
    {
      "channel": 3,
      "note": 69,
      "start": 65.7926,
      "duration": 0.1681,
      "velocity": 127,
      "chip": "ym2612"
    },
    {
      "channel": 2,
      "note": 71,
      "start": 65.9602,
      "duration": 0.1722,
      "velocity": 119,
      "chip": "ym2612"
    },
    {
      "channel": 3,
      "note": 76,
      "start": 65.9609,
      "duration": 0.0066,
      "velocity": 127,
      "chip": "ym2612"
    },
    {
      "channel": 4,
      "note": 67,
      "start": 65.9616,
      "duration": 0.1716,
      "velocity": 119,
      "chip": "ym2612"
    },
    {
      "channel": 0,
      "note": 50,
      "start": 65.9643,
      "duration": 0.2216,
      "velocity": 112,
      "chip": "ym2612"
    },
    {
      "channel": 1,
      "note": 91,
      "start": 65.967,
      "duration": 0.2216,
      "velocity": 117,
      "chip": "ym2612"
    },
    {
      "channel": 3,
      "note": 69,
      "start": 65.9678,
      "duration": 0.2222,
      "velocity": 127,
      "chip": "ym2612"
    },
    {
      "channel": 2,
      "note": 67,
      "start": 66.1327,
      "duration": 0.0566,
      "velocity": 119,
      "chip": "ym2612"
    },
    {
      "channel": 4,
      "note": 62,
      "start": 66.1335,
      "duration": 0.0572,
      "velocity": 119,
      "chip": "ym2612"
    },
    {
      "channel": 0,
      "note": 57,
      "start": 66.1862,
      "duration": 0.199,
      "velocity": 112,
      "chip": "ym2612"
    },
    {
      "channel": 1,
      "note": 81,
      "start": 66.1888,
      "duration": 0.1451,
      "velocity": 117,
      "chip": "ym2612"
    },
    {
      "channel": 2,
      "note": 69,
      "start": 66.1895,
      "duration": 0.1971,
      "velocity": 119,
      "chip": "ym2612"
    },
    {
      "channel": 3,
      "note": 33,
      "start": 66.1902,
      "duration": 0.1902,
      "velocity": 127,
      "chip": "ym2612"
    },
    {
      "channel": 4,
      "note": 64,
      "start": 66.1909,
      "duration": 0.1965,
      "velocity": 119,
      "chip": "ym2612"
    },
    {
      "channel": 5,
      "note": 73,
      "start": 66.1917,
      "duration": 0.5361,
      "velocity": 103,
      "chip": "ym2612"
    },
    {
      "channel": 1,
      "note": 85,
      "start": 66.3341,
      "duration": 0.0454,
      "velocity": 117,
      "chip": "ym2612"
    },
    {
      "channel": 1,
      "note": 88,
      "start": 66.3798,
      "duration": 0.0061,
      "velocity": 117,
      "chip": "ym2612"
    },
    {
      "channel": 3,
      "note": 79,
      "start": 66.3806,
      "duration": 0.1756,
      "velocity": 127,
      "chip": "ym2612"
    },
    {
      "channel": 0,
      "note": 57,
      "start": 66.3854,
      "duration": 0.1907,
      "velocity": 112,
      "chip": "ym2612"
    },
    {
      "channel": 1,
      "note": 93,
      "start": 66.3861,
      "duration": 0.1926,
      "velocity": 117,
      "chip": "ym2612"
    },
    {
      "channel": 2,
      "note": 69,
      "start": 66.3868,
      "duration": 0.1926,
      "velocity": 119,
      "chip": "ym2612"
    },
    {
      "channel": 4,
      "note": 64,
      "start": 66.3876,
      "duration": 0.3395,
      "velocity": 119,
      "chip": "ym2612"
    },
    {
      "channel": 3,
      "note": 33,
      "start": 66.5564,
      "duration": 0.1699,
      "velocity": 127,
      "chip": "ym2612"
    },
    {
      "channel": 0,
      "note": 61,
      "start": 66.5763,
      "duration": 0.148,
      "velocity": 112,
      "chip": "ym2612"
    },
    {
      "channel": 1,
      "note": 91,
      "start": 66.5789,
      "duration": 0.1461,
      "velocity": 117,
      "chip": "ym2612"
    },
    {
      "channel": 2,
      "note": 73,
      "start": 66.5796,
      "duration": 0.1461,
      "velocity": 119,
      "chip": "ym2612"
    },
    {
      "channel": 0,
      "note": 62,
      "start": 66.7244,
      "duration": 0.2056,
      "velocity": 112,
      "chip": "ym2612"
    },
    {
      "channel": 1,
      "note": 90,
      "start": 66.7251,
      "duration": 0.2076,
      "velocity": 117,
      "chip": "ym2612"
    },
    {
      "channel": 2,
      "note": 74,
      "start": 66.7258,
      "duration": 0.1673,
      "velocity": 119,
      "chip": "ym2612"
    },
    {
      "channel": 3,
      "note": 69,
      "start": 66.7265,
      "duration": 0.1672,
      "velocity": 127,
      "chip": "ym2612"
    },
    {
      "channel": 4,
      "note": 69,
      "start": 66.7272,
      "duration": 0.1672,
      "velocity": 119,
      "chip": "ym2612"
    },
    {
      "channel": 5,
      "note": 83,
      "start": 66.728,
      "duration": 0.9065,
      "velocity": 103,
      "chip": "ym2612"
    },
    {
      "channel": 2,
      "note": 69,
      "start": 66.8932,
      "duration": 0.0402,
      "velocity": 119,
      "chip": "ym2612"
    },
    {
      "channel": 3,
      "note": 74,
      "start": 66.8939,
      "duration": 0.0402,
      "velocity": 127,
      "chip": "ym2612"
    },
    {
      "channel": 4,
      "note": 66,
      "start": 66.8947,
      "duration": 0.0401,
      "velocity": 119,
      "chip": "ym2612"
    },
    {
      "channel": 0,
      "note": 57,
      "start": 66.9302,
      "duration": 0.3352,
      "velocity": 112,
      "chip": "ym2612"
    },
    {
      "channel": 1,
      "note": 93,
      "start": 66.9329,
      "duration": 0.3351,
      "velocity": 117,
      "chip": "ym2612"
    },
    {
      "channel": 2,
      "note": 66,
      "start": 66.9336,
      "duration": 0.3351,
      "velocity": 119,
      "chip": "ym2612"
    },
    {
      "channel": 3,
      "note": 69,
      "start": 66.9343,
      "duration": 0.3351,
      "velocity": 127,
      "chip": "ym2612"
    },
    {
      "channel": 4,
      "note": 62,
      "start": 66.935,
      "duration": 0.3351,
      "velocity": 119,
      "chip": "ym2612"
    },
    {
      "channel": 0,
      "note": 50,
      "start": 67.2656,
      "duration": 0.0286,
      "velocity": 1,
      "chip": "ym2612"
    },
    {
      "channel": 1,
      "note": 86,
      "start": 67.2682,
      "duration": 0.1954,
      "velocity": 117,
      "chip": "ym2612"
    },
    {
      "channel": 2,
      "note": 62,
      "start": 67.2689,
      "duration": 0.1973,
      "velocity": 119,
      "chip": "ym2612"
    },
    {
      "channel": 3,
      "note": 33,
      "start": 67.2697,
      "duration": 0.1949,
      "velocity": 127,
      "chip": "ym2612"
    },
    {
      "channel": 4,
      "note": 57,
      "start": 67.2704,
      "duration": 0.3633,
      "velocity": 119,
      "chip": "ym2612"
    },
    {
      "channel": 0,
      "note": 55,
      "start": 67.2944,
      "duration": 0.1667,
      "velocity": 112,
      "chip": "ym2612"
    },
    {
      "channel": 0,
      "note": 62,
      "start": 67.4612,
      "duration": 0.3369,
      "velocity": 112,
      "chip": "ym2612"
    },
    {
      "channel": 1,
      "note": 86,
      "start": 67.4639,
      "duration": 0.0016,
      "velocity": 117,
      "chip": "ym2612"
    },
    {
      "channel": 3,
      "note": 33,
      "start": 67.4647,
      "duration": 0.1682,
      "velocity": 127,
      "chip": "ym2612"
    },
    {
      "channel": 1,
      "note": 90,
      "start": 67.4658,
      "duration": 0.1658,
      "velocity": 117,
      "chip": "ym2612"
    },
    {
      "channel": 2,
      "note": 62,
      "start": 67.4664,
      "duration": 0.1659,
      "velocity": 119,
      "chip": "ym2612"
    },
    {
      "channel": 1,
      "note": 93,
      "start": 67.6317,
      "duration": 0.1671,
      "velocity": 117,
      "chip": "ym2612"
    },
    {
      "channel": 2,
      "note": 66,
      "start": 67.6324,
      "duration": 0.0825,
      "velocity": 119,
      "chip": "ym2612"
    },
    {
      "channel": 3,
      "note": 69,
      "start": 67.6331,
      "duration": 0.1671,
      "velocity": 127,
      "chip": "ym2612"
    },
    {
      "channel": 4,
      "note": 62,
      "start": 67.6339,
      "duration": 0.0818,
      "velocity": 119,
      "chip": "ym2612"
    },
    {
      "channel": 5,
      "note": 83,
      "start": 67.6346,
      "duration": 1.1171,
      "velocity": 103,
      "chip": "ym2612"
    },
    {
      "channel": 2,
      "note": 69,
      "start": 67.7151,
      "duration": 0.0844,
      "velocity": 119,
      "chip": "ym2612"
    },
    {
      "channel": 4,
      "note": 66,
      "start": 67.7159,
      "duration": 0.085,
      "velocity": 119,
      "chip": "ym2612"
    },
    {
      "channel": 0,
      "note": 62,
      "start": 67.7983,
      "duration": 0.0408,
      "velocity": 1,
      "chip": "ym2612"
    },
    {
      "channel": 1,
      "note": 98,
      "start": 67.799,
      "duration": 0.2094,
      "velocity": 117,
      "chip": "ym2612"
    },
    {
      "channel": 2,
      "note": 66,
      "start": 67.7997,
      "duration": 0.002,
      "velocity": 119,
      "chip": "ym2612"
    },
    {
      "channel": 3,
      "note": 74,
      "start": 67.8004,
      "duration": 0.0422,
      "velocity": 127,
      "chip": "ym2612"
    },
    {
      "channel": 4,
      "note": 62,
      "start": 67.8011,
      "duration": 0.0009,
      "velocity": 119,
      "chip": "ym2612"
    },
    {
      "channel": 2,
      "note": 69,
      "start": 67.8018,
      "duration": 0.0402,
      "velocity": 119,
      "chip": "ym2612"
    },
    {
      "channel": 4,
      "note": 66,
      "start": 67.8022,
      "duration": 0.0412,
      "velocity": 119,
      "chip": "ym2612"
    },
    {
      "channel": 0,
      "note": 55,
      "start": 67.8393,
      "duration": 0.1664,
      "velocity": 112,
      "chip": "ym2612"
    },
    {
      "channel": 2,
      "note": 66,
      "start": 67.8421,
      "duration": 0.167,
      "velocity": 119,
      "chip": "ym2612"
    },
    {
      "channel": 3,
      "note": 69,
      "start": 67.8429,
      "duration": 0.3131,
      "velocity": 127,
      "chip": "ym2612"
    },
    {
      "channel": 4,
      "note": 62,
      "start": 67.8436,
      "duration": 0.1663,
      "velocity": 119,
      "chip": "ym2612"
    },
    {
      "channel": 0,
      "note": 54,
      "start": 68.006,
      "duration": 0.1479,
      "velocity": 112,
      "chip": "ym2612"
    },
    {
      "channel": 1,
      "note": 97,
      "start": 68.0086,
      "duration": 0.146,
      "velocity": 117,
      "chip": "ym2612"
    },
    {
      "channel": 2,
      "note": 69,
      "start": 68.0093,
      "duration": 0.146,
      "velocity": 119,
      "chip": "ym2612"
    },
    {
      "channel": 4,
      "note": 62,
      "start": 68.0101,
      "duration": 0.1466,
      "velocity": 119,
      "chip": "ym2612"
    },
    {
      "channel": 0,
      "note": 55,
      "start": 68.1541,
      "duration": 0.212,
      "velocity": 112,
      "chip": "ym2612"
    },
    {
      "channel": 1,
      "note": 95,
      "start": 68.1548,
      "duration": 0.214,
      "velocity": 117,
      "chip": "ym2612"
    },
    {
      "channel": 2,
      "note": 71,
      "start": 68.1555,
      "duration": 0.0462,
      "velocity": 119,
      "chip": "ym2612"
    },
    {
      "channel": 3,
      "note": 33,
      "start": 68.1562,
      "duration": 0.2134,
      "velocity": 127,
      "chip": "ym2612"
    },
    {
      "channel": 4,
      "note": 67,
      "start": 68.1569,
      "duration": 0.0456,
      "velocity": 119,
      "chip": "ym2612"
    },
    {
      "channel": 2,
      "note": 74,
      "start": 68.2019,
      "duration": 0.3186,
      "velocity": 119,
      "chip": "ym2612"
    },
    {
      "channel": 4,
      "note": 71,
      "start": 68.2027,
      "duration": 0.3192,
      "velocity": 119,
      "chip": "ym2612"
    },
    {
      "channel": 0,
      "note": 55,
      "start": 68.3663,
      "duration": 0.174,
      "velocity": 112,
      "chip": "ym2612"
    },
    {
      "channel": 1,
      "note": 98,
      "start": 68.369,
      "duration": 0.174,
      "velocity": 117,
      "chip": "ym2612"
    },
    {
      "channel": 3,
      "note": 69,
      "start": 68.3698,
      "duration": 0.1515,
      "velocity": 127,
      "chip": "ym2612"
    },
    {
      "channel": 2,
      "note": 71,
      "start": 68.5207,
      "duration": 0.172,
      "velocity": 119,
      "chip": "ym2612"
    },
    {
      "channel": 3,
      "note": 76,
      "start": 68.5214,
      "duration": 0.0224,
      "velocity": 127,
      "chip": "ym2612"
    },
    {
      "channel": 4,
      "note": 67,
      "start": 68.5221,
      "duration": 0.1714,
      "velocity": 119,
      "chip": "ym2612"
    },
    {
      "channel": 0,
      "note": 50,
      "start": 68.5405,
      "duration": 0.2058,
      "velocity": 112,
      "chip": "ym2612"
    },
    {
      "channel": 1,
      "note": 91,
      "start": 68.5432,
      "duration": 0.2057,
      "velocity": 117,
      "chip": "ym2612"
    },
    {
      "channel": 3,
      "note": 69,
      "start": 68.544,
      "duration": 0.2064,
      "velocity": 127,
      "chip": "ym2612"
    },
    {
      "channel": 2,
      "note": 67,
      "start": 68.6929,
      "duration": 0.0568,
      "velocity": 119,
      "chip": "ym2612"
    },
    {
      "channel": 4,
      "note": 62,
      "start": 68.6937,
      "duration": 0.0573,
      "velocity": 119,
      "chip": "ym2612"
    },
    {
      "channel": 0,
      "note": 57,
      "start": 68.7466,
      "duration": 0.2157,
      "velocity": 112,
      "chip": "ym2612"
    },
    {
      "channel": 1,
      "note": 93,
      "start": 68.7492,
      "duration": 0.1927,
      "velocity": 117,
      "chip": "ym2612"
    },
    {
      "channel": 2,
      "note": 69,
      "start": 68.7498,
      "duration": 0.2138,
      "velocity": 119,
      "chip": "ym2612"
    },
    {
      "channel": 3,
      "note": 33,
      "start": 68.7506,
      "duration": 0.1921,
      "velocity": 127,
      "chip": "ym2612"
    },
    {
      "channel": 4,
      "note": 64,
      "start": 68.7513,
      "duration": 0.2131,
      "velocity": 119,
      "chip": "ym2612"
    },
    {
      "channel": 5,
      "note": 73,
      "start": 68.752,
      "duration": 0.5527,
      "velocity": 103,
      "chip": "ym2612"
    },
    {
      "channel": 1,
      "note": 93,
      "start": 68.9421,
      "duration": 0.0208,
      "velocity": 117,
      "chip": "ym2612"
    },
    {
      "channel": 3,
      "note": 79,
      "start": 68.9429,
      "duration": 0.1737,
      "velocity": 127,
      "chip": "ym2612"
    },
    {
      "channel": 0,
      "note": 59,
      "start": 68.9624,
      "duration": 0.174,
      "velocity": 112,
      "chip": "ym2612"
    },
    {
      "channel": 1,
      "note": 91,
      "start": 68.9632,
      "duration": 0.1759,
      "velocity": 117,
      "chip": "ym2612"
    },
    {
      "channel": 2,
      "note": 69,
      "start": 68.9639,
      "duration": 0.1759,
      "velocity": 119,
      "chip": "ym2612"
    },
    {
      "channel": 4,
      "note": 64,
      "start": 68.9646,
      "duration": 0.3395,
      "velocity": 119,
      "chip": "ym2612"
    },
    {
      "channel": 3,
      "note": 33,
      "start": 69.1168,
      "duration": 0.1866,
      "velocity": 127,
      "chip": "ym2612"
    },
    {
      "channel": 0,
      "note": 57,
      "start": 69.1366,
      "duration": 0.1646,
      "velocity": 112,
      "chip": "ym2612"
    },
    {
      "channel": 1,
      "note": 88,
      "start": 69.1393,
      "duration": 0.1627,
      "velocity": 117,
      "chip": "ym2612"
    },
    {
      "channel": 2,
      "note": 73,
      "start": 69.14,
      "duration": 0.1627,
      "velocity": 119,
      "chip": "ym2612"
    },
    {
      "channel": 0,
      "note": 50,
      "start": 69.3015,
      "duration": 0.2056,
      "velocity": 112,
      "chip": "ym2612"
    },
    {
      "channel": 1,
      "note": 86,
      "start": 69.3022,
      "duration": 0.72,
      "velocity": 117,
      "chip": "ym2612"
    },
    {
      "channel": 2,
      "note": 74,
      "start": 69.3029,
      "duration": 0.1485,
      "velocity": 119,
      "chip": "ym2612"
    },
    {
      "channel": 3,
      "note": 69,
      "start": 69.3036,
      "duration": 0.1485,
      "velocity": 127,
      "chip": "ym2612"
    },
    {
      "channel": 4,
      "note": 69,
      "start": 69.3043,
      "duration": 0.1485,
      "velocity": 119,
      "chip": "ym2612"
    },
    {
      "channel": 5,
      "note": 83,
      "start": 69.305,
      "duration": 0.8877,
      "velocity": 103,
      "chip": "ym2612"
    },
    {
      "channel": 2,
      "note": 69,
      "start": 69.4516,
      "duration": 0.0562,
      "velocity": 119,
      "chip": "ym2612"
    },
    {
      "channel": 3,
      "note": 74,
      "start": 69.4523,
      "duration": 0.0562,
      "velocity": 127,
      "chip": "ym2612"
    },
    {
      "channel": 4,
      "note": 66,
      "start": 69.453,
      "duration": 0.0562,
      "velocity": 119,
      "chip": "ym2612"
    },
    {
      "channel": 0,
      "note": 57,
      "start": 69.5073,
      "duration": 0.3165,
      "velocity": 112,
      "chip": "ym2612"
    },
    {
      "channel": 2,
      "note": 66,
      "start": 69.508,
      "duration": 0.5338,
      "velocity": 119,
      "chip": "ym2612"
    },
    {
      "channel": 3,
      "note": 69,
      "start": 69.5088,
      "duration": 0.3178,
      "velocity": 127,
      "chip": "ym2612"
    },
    {
      "channel": 4,
      "note": 62,
      "start": 69.5095,
      "duration": 0.5332,
      "velocity": 119,
      "chip": "ym2612"
    },
    {
      "channel": 0,
      "note": 59,
      "start": 69.8239,
      "duration": 0.1955,
      "velocity": 112,
      "chip": "ym2612"
    },
    {
      "channel": 3,
      "note": 33,
      "start": 69.8268,
      "duration": 0.1961,
      "velocity": 127,
      "chip": "ym2612"
    },
    {
      "channel": 0,
      "note": 52,
      "start": 70.0196,
      "duration": 0.3387,
      "velocity": 112,
      "chip": "ym2612"
    },
    {
      "channel": 1,
      "note": 68,
      "start": 70.0223,
      "duration": 3.1605,
      "velocity": 117,
      "chip": "ym2612"
    },
    {
      "channel": 3,
      "note": 33,
      "start": 70.0232,
      "duration": 0.1687,
      "velocity": 127,
      "chip": "ym2612"
    },
    {
      "channel": 2,
      "note": 64,
      "start": 70.042,
      "duration": 0.3171,
      "velocity": 119,
      "chip": "ym2612"
    },
    {
      "channel": 4,
      "note": 71,
      "start": 70.0429,
      "duration": 0.3177,
      "velocity": 119,
      "chip": "ym2612"
    },
    {
      "channel": 3,
      "note": 69,
      "start": 70.192,
      "duration": 0.1678,
      "velocity": 127,
      "chip": "ym2612"
    },
    {
      "channel": 5,
      "note": 83,
      "start": 70.1929,
      "duration": 1.1125,
      "velocity": 103,
      "chip": "ym2612"
    },
    {
      "channel": 0,
      "note": 59,
      "start": 70.3585,
      "duration": 0.0556,
      "velocity": 112,
      "chip": "ym2612"
    },
    {
      "channel": 2,
      "note": 64,
      "start": 70.3593,
      "duration": 0.2049,
      "velocity": 119,
      "chip": "ym2612"
    },
    {
      "channel": 3,
      "note": 74,
      "start": 70.36,
      "duration": 0.0549,
      "velocity": 127,
      "chip": "ym2612"
    },
    {
      "channel": 4,
      "note": 71,
      "start": 70.3607,
      "duration": 0.2043,
      "velocity": 119,
      "chip": "ym2612"
    },
    {
      "channel": 0,
      "note": 61,
      "start": 70.4143,
      "duration": 0.3165,
      "velocity": 112,
      "chip": "ym2612"
    },
    {
      "channel": 3,
      "note": 69,
      "start": 70.4152,
      "duration": 0.3172,
      "velocity": 127,
      "chip": "ym2612"
    },
    {
      "channel": 2,
      "note": 59,
      "start": 70.5645,
      "duration": 0.1672,
      "velocity": 119,
      "chip": "ym2612"
    },
    {
      "channel": 4,
      "note": 68,
      "start": 70.5652,
      "duration": 0.1678,
      "velocity": 119,
      "chip": "ym2612"
    },
    {
      "channel": 0,
      "note": 64,
      "start": 70.731,
      "duration": 0.1954,
      "velocity": 112,
      "chip": "ym2612"
    },
    {
      "channel": 2,
      "note": 64,
      "start": 70.7318,
      "duration": 0.0021,
      "velocity": 119,
      "chip": "ym2612"
    },
    {
      "channel": 3,
      "note": 33,
      "start": 70.7325,
      "duration": 0.1953,
      "velocity": 127,
      "chip": "ym2612"
    },
    {
      "channel": 4,
      "note": 73,
      "start": 70.7332,
      "duration": 0.1953,
      "velocity": 119,
      "chip": "ym2612"
    },
    {
      "channel": 2,
      "note": 66,
      "start": 70.7341,
      "duration": 0.1931,
      "velocity": 119,
      "chip": "ym2612"
    },
    {
      "channel": 0,
      "note": 52,
      "start": 70.9266,
      "duration": 0.3387,
      "velocity": 112,
      "chip": "ym2612"
    },
    {
      "channel": 2,
      "note": 64,
      "start": 70.9273,
      "duration": 0.7674,
      "velocity": 119,
      "chip": "ym2612"
    },
    {
      "channel": 3,
      "note": 69,
      "start": 70.928,
      "duration": 0.1652,
      "velocity": 127,
      "chip": "ym2612"
    },
    {
      "channel": 4,
      "note": 71,
      "start": 70.9288,
      "duration": 0.7668,
      "velocity": 119,
      "chip": "ym2612"
    },
    {
      "channel": 3,
      "note": 76,
      "start": 71.0934,
      "duration": 0.0053,
      "velocity": 127,
      "chip": "ym2612"
    },
    {
      "channel": 3,
      "note": 69,
      "start": 71.099,
      "duration": 0.2057,
      "velocity": 127,
      "chip": "ym2612"
    },
    {
      "channel": 0,
      "note": 61,
      "start": 71.2654,
      "duration": 0.2057,
      "velocity": 112,
      "chip": "ym2612"
    },
    {
      "channel": 3,
      "note": 33,
      "start": 71.3049,
      "duration": 0.2127,
      "velocity": 127,
      "chip": "ym2612"
    },
    {
      "channel": 5,
      "note": 73,
      "start": 71.3057,
      "duration": 0.5579,
      "velocity": 103,
      "chip": "ym2612"
    },
    {
      "channel": 0,
      "note": 59,
      "start": 71.4713,
      "duration": 0.0454,
      "velocity": 112,
      "chip": "ym2612"
    },
    {
      "channel": 0,
      "note": 47,
      "start": 71.5169,
      "duration": 0.0054,
      "velocity": 112,
      "chip": "ym2612"
    },
    {
      "channel": 3,
      "note": 79,
      "start": 71.5178,
      "duration": 0.1721,
      "velocity": 127,
      "chip": "ym2612"
    },
    {
      "channel": 0,
      "note": 49,
      "start": 71.5224,
      "duration": 0.1666,
      "velocity": 112,
      "chip": "ym2612"
    },
    {
      "channel": 0,
      "note": 52,
      "start": 71.6892,
      "duration": 0.3388,
      "velocity": 112,
      "chip": "ym2612"
    },
    {
      "channel": 3,
      "note": 33,
      "start": 71.6901,
      "duration": 0.1722,
      "velocity": 127,
      "chip": "ym2612"
    },
    {
      "channel": 2,
      "note": 68,
      "start": 71.6949,
      "duration": 0.1666,
      "velocity": 119,
      "chip": "ym2612"
    },
    {
      "channel": 4,
      "note": 64,
      "start": 71.6958,
      "duration": 0.1672,
      "velocity": 119,
      "chip": "ym2612"
    },
    {
      "channel": 2,
      "note": 68,
      "start": 71.8617,
      "duration": 0.1671,
      "velocity": 119,
      "chip": "ym2612"
    },
    {
      "channel": 3,
      "note": 69,
      "start": 71.8624,
      "duration": 0.1671,
      "velocity": 127,
      "chip": "ym2612"
    },
    {
      "channel": 4,
      "note": 64,
      "start": 71.8631,
      "duration": 0.1671,
      "velocity": 119,
      "chip": "ym2612"
    },
    {
      "channel": 5,
      "note": 83,
      "start": 71.8638,
      "duration": 1.1115,
      "velocity": 103,
      "chip": "ym2612"
    },
    {
      "channel": 0,
      "note": 59,
      "start": 72.0282,
      "duration": 0.039,
      "velocity": 112,
      "chip": "ym2612"
    },
    {
      "channel": 2,
      "note": 68,
      "start": 72.029,
      "duration": 0.0389,
      "velocity": 119,
      "chip": "ym2612"
    },
    {
      "channel": 3,
      "note": 74,
      "start": 72.0297,
      "duration": 0.0389,
      "velocity": 127,
      "chip": "ym2612"
    },
    {
      "channel": 4,
      "note": 64,
      "start": 72.0304,
      "duration": 0.0389,
      "velocity": 119,
      "chip": "ym2612"
    },
    {
      "channel": 0,
      "note": 61,
      "start": 72.0674,
      "duration": 0.3165,
      "velocity": 112,
      "chip": "ym2612"
    },
    {
      "channel": 2,
      "note": 69,
      "start": 72.0681,
      "duration": 0.1658,
      "velocity": 119,
      "chip": "ym2612"
    },
    {
      "channel": 3,
      "note": 69,
      "start": 72.0688,
      "duration": 0.3166,
      "velocity": 127,
      "chip": "ym2612"
    },
    {
      "channel": 4,
      "note": 66,
      "start": 72.0695,
      "duration": 0.1652,
      "velocity": 119,
      "chip": "ym2612"
    },
    {
      "channel": 2,
      "note": 68,
      "start": 72.2342,
      "duration": 0.1505,
      "velocity": 119,
      "chip": "ym2612"
    },
    {
      "channel": 4,
      "note": 64,
      "start": 72.2349,
      "duration": 0.1512,
      "velocity": 119,
      "chip": "ym2612"
    },
    {
      "channel": 0,
      "note": 64,
      "start": 72.3841,
      "duration": 0.2121,
      "velocity": 112,
      "chip": "ym2612"
    },
    {
      "channel": 2,
      "note": 66,
      "start": 72.3849,
      "duration": 0.0447,
      "velocity": 119,
      "chip": "ym2612"
    },
    {
      "channel": 3,
      "note": 33,
      "start": 72.3856,
      "duration": 0.2114,
      "velocity": 127,
      "chip": "ym2612"
    },
    {
      "channel": 4,
      "note": 63,
      "start": 72.3863,
      "duration": 0.0441,
      "velocity": 119,
      "chip": "ym2612"
    },
    {
      "channel": 2,
      "note": 68,
      "start": 72.4298,
      "duration": 0.3165,
      "velocity": 119,
      "chip": "ym2612"
    },
    {
      "channel": 4,
      "note": 64,
      "start": 72.4306,
      "duration": 0.3172,
      "velocity": 119,
      "chip": "ym2612"
    },
    {
      "channel": 0,
      "note": 52,
      "start": 72.5963,
      "duration": 0.3221,
      "velocity": 112,
      "chip": "ym2612"
    },
    {
      "channel": 3,
      "note": 69,
      "start": 72.5972,
      "duration": 0.1498,
      "velocity": 127,
      "chip": "ym2612"
    },
    {
      "channel": 2,
      "note": 64,
      "start": 72.7466,
      "duration": 0.0221,
      "velocity": 119,
      "chip": "ym2612"
    },
    {
      "channel": 3,
      "note": 74,
      "start": 72.7473,
      "duration": 0.0221,
      "velocity": 127,
      "chip": "ym2612"
    },
    {
      "channel": 4,
      "note": 59,
      "start": 72.748,
      "duration": 0.0221,
      "velocity": 119,
      "chip": "ym2612"
    },
    {
      "channel": 2,
      "note": 59,
      "start": 72.7688,
      "duration": 44.9783,
      "velocity": 119,
      "chip": "ym2612"
    },
    {
      "channel": 3,
      "note": 69,
      "start": 72.7695,
      "duration": 0.205,
      "velocity": 127,
      "chip": "ym2612"
    },
    {
      "channel": 4,
      "note": 56,
      "start": 72.7702,
      "duration": 44.9769,
      "velocity": 119,
      "chip": "ym2612"
    },
    {
      "channel": 0,
      "note": 61,
      "start": 72.9186,
      "duration": 0.2616,
      "velocity": 112,
      "chip": "ym2612"
    },
    {
      "channel": 3,
      "note": 33,
      "start": 72.9747,
      "duration": 0.2089,
      "velocity": 127,
      "chip": "ym2612"
    },
    {
      "channel": 5,
      "note": 73,
      "start": 72.9756,
      "duration": 44.7715,
      "velocity": 103,
      "chip": "ym2612"
    },
    {
      "channel": 0,
      "note": 59,
      "start": 73.1804,
      "duration": 44.5667,
      "velocity": 112,
      "chip": "ym2612"
    },
    {
      "channel": 1,
      "note": 83,
      "start": 73.1831,
      "duration": 44.564,
      "velocity": 117,
      "chip": "ym2612"
    },
    {
      "channel": 3,
      "note": 69,
      "start": 73.1838,
      "duration": 44.5633,
      "velocity": 127,
      "chip": "ym2612"
    }
  ]
}