{
  "track_name": "09 - Round 2-D",
  "duration_sec": 54.549,
  "sample_rate": 44100,
  "note_count": 1777,
  "unique_pitches": 21,
  "pitch_range": 45,
  "avg_note_duration": 0.1502,
  "reconstruction_stats": {
    "notes_reconstructed": 1777,
    "keyon_events": 1777,
    "keyoff_events": 1772,
    "orphan_keyons": 5,
    "unique_pitches": 21,
    "pitch_range": 45,
    "avg_duration_sec": 0.1502
  },
  "metadata": {
    "source": "W\\World of Illusion\\09 - Round 2-D.vgz"
  },
  "notes": [
    {
      "channel": 0,
      "note": 50,
      "start": 0.0131,
      "duration": 0.3823,
      "velocity": 108,
      "chip": "ym2612"
    },
    {
      "channel": 1,
      "note": 81,
      "start": 0.0166,
      "duration": 0.0954,
      "velocity": 113,
      "chip": "ym2612"
    },
    {
      "channel": 4,
      "note": 77,
      "start": 0.0238,
      "duration": 0.0425,
      "velocity": 73,
      "chip": "ym2612"
    },
    {
      "channel": 3,
      "note": 81,
      "start": 0.0661,
      "duration": 0.0969,
      "velocity": 113,
      "chip": "ym2612"
    },
    {
      "channel": 4,
      "note": 78,
      "start": 0.0668,
      "duration": 0.147,
      "velocity": 73,
      "chip": "ym2612"
    },
    {
      "channel": 2,
      "note": 69,
      "start": 0.1129,
      "duration": 0.0499,
      "velocity": 113,
      "chip": "ym2612"
    },
    {
      "channel": 1,
      "note": 74,
      "start": 0.1626,
      "duration": 0.0495,
      "velocity": 113,
      "chip": "ym2612"
    },
    {
      "channel": 3,
      "note": 69,
      "start": 0.1636,
      "duration": 0.0495,
      "velocity": 113,
      "chip": "ym2612"
    },
    {
      "channel": 2,
      "note": 78,
      "start": 0.213,
      "duration": 0.1,
      "velocity": 113,
      "chip": "ym2612"
    },
    {
      "channel": 3,
      "note": 74,
      "start": 0.2137,
      "duration": 0.0489,
      "velocity": 113,
      "chip": "ym2612"
    },
    {
      "channel": 4,
      "note": 78,
      "start": 0.2144,
      "duration": 0.0992,
      "velocity": 73,
      "chip": "ym2612"
    },
    {
      "channel": 3,
      "note": 78,
      "start": 0.2631,
      "duration": 0.0829,
      "velocity": 113,
      "chip": "ym2612"
    },
    {
      "channel": 1,
      "note": 81,
      "start": 0.3128,
      "duration": 0.0833,
      "velocity": 113,
      "chip": "ym2612"
    },
    {
      "channel": 4,
      "note": 78,
      "start": 0.3141,
      "duration": 0.0841,
      "velocity": 73,
      "chip": "ym2612"
    },
    {
      "channel": 5,
      "note": 77,
      "start": 0.331,
      "duration": 0.049,
      "velocity": 73,
      "chip": "ym2612"
    },
    {
      "channel": 3,
      "note": 81,
      "start": 0.3466,
      "duration": 0.0996,
      "velocity": 113,
      "chip": "ym2612"
    },
    {
      "channel": 5,
      "note": 78,
      "start": 0.3805,
      "duration": 0.1329,
      "velocity": 73,
      "chip": "ym2612"
    },
    {
      "channel": 0,
      "note": 45,
      "start": 0.3959,
      "duration": 0.3834,
      "velocity": 108,
      "chip": "ym2612"
    },
    {
      "channel": 2,
      "note": 83,
      "start": 0.3969,
      "duration": 0.0996,
      "velocity": 113,
      "chip": "ym2612"
    },
    {
      "channel": 4,
      "note": 77,
      "start": 0.3988,
      "duration": 0.048,
      "velocity": 73,
      "chip": "ym2612"
    },
    {
      "channel": 3,
      "note": 83,
      "start": 0.4467,
      "duration": 0.0996,
      "velocity": 113,
      "chip": "ym2612"
    },
    {
      "channel": 4,
      "note": 78,
      "start": 0.4474,
      "duration": 0.1498,
      "velocity": 73,
      "chip": "ym2612"
    },
    {
      "channel": 1,
      "note": 81,
      "start": 0.4964,
      "duration": 0.0996,
      "velocity": 113,
      "chip": "ym2612"
    },
    {
      "channel": 5,
      "note": 78,
      "start": 0.514,
      "duration": 0.0996,
      "velocity": 73,
      "chip": "ym2612"
    },
    {
      "channel": 3,
      "note": 81,
      "start": 0.5468,
      "duration": 0.0829,
      "velocity": 113,
      "chip": "ym2612"
    },
    {
      "channel": 2,
      "note": 78,
      "start": 0.5968,
      "duration": 0.0833,
      "velocity": 113,
      "chip": "ym2612"
    },
    {
      "channel": 4,
      "note": 78,
      "start": 0.5978,
      "duration": 0.0829,
      "velocity": 73,
      "chip": "ym2612"
    },
    {
      "channel": 5,
      "note": 78,
      "start": 0.6142,
      "duration": 0.1004,
      "velocity": 73,
      "chip": "ym2612"
    },
    {
      "channel": 3,
      "note": 78,
      "start": 0.6302,
      "duration": 0.0996,
      "velocity": 113,
      "chip": "ym2612"
    },
    {
      "channel": 1,
      "note": 76,
      "start": 0.68,
      "duration": 0.1,
      "velocity": 113,
      "chip": "ym2612"
    },
    {
      "channel": 4,
      "note": 78,
      "start": 0.6812,
      "duration": 0.1009,
      "velocity": 73,
      "chip": "ym2612"
    },
    {
      "channel": 5,
      "note": 77,
      "start": 0.7152,
      "duration": 0.0486,
      "velocity": 73,
      "chip": "ym2612"
    },
    {
      "channel": 3,
      "note": 76,
      "start": 0.7304,
      "duration": 0.0996,
      "velocity": 113,
      "chip": "ym2612"
    },
    {
      "channel": 5,
      "note": 78,
      "start": 0.7644,
      "duration": 0.1329,
      "velocity": 73,
      "chip": "ym2612"
    },
    {
      "channel": 0,
      "note": 50,
      "start": 0.7799,
      "duration": 0.3832,
      "velocity": 108,
      "chip": "ym2612"
    },
    {
      "channel": 2,
      "note": 74,
      "start": 0.7809,
      "duration": 0.1829,
      "velocity": 113,
      "chip": "ym2612"
    },
    {
      "channel": 4,
      "note": 77,
      "start": 0.7827,
      "duration": 0.048,
      "velocity": 73,
      "chip": "ym2612"
    },
    {
      "channel": 3,
      "note": 74,
      "start": 0.8305,
      "duration": 0.183,
      "velocity": 113,
      "chip": "ym2612"
    },
    {
      "channel": 4,
      "note": 78,
      "start": 0.8312,
      "duration": 0.1332,
      "velocity": 73,
      "chip": "ym2612"
    },
    {
      "channel": 5,
      "note": 78,
      "start": 0.8979,
      "duration": 0.0996,
      "velocity": 73,
      "chip": "ym2612"
    },
    {
      "channel": 1,
      "note": 69,
      "start": 0.9637,
      "duration": 0.0996,
      "velocity": 113,
      "chip": "ym2612"
    },
    {
      "channel": 4,
      "note": 78,
      "start": 0.9649,
      "duration": 0.0996,
      "velocity": 73,
      "chip": "ym2612"
    },
    {
      "channel": 5,
      "note": 78,
      "start": 0.998,
      "duration": 0.1004,
      "velocity": 73,
      "chip": "ym2612"
    },
    {
      "channel": 3,
      "note": 69,
      "start": 1.0141,
      "duration": 0.0996,
      "velocity": 113,
      "chip": "ym2612"
    },
    {
      "channel": 2,
      "note": 71,
      "start": 1.0641,
      "duration": 0.1004,
      "velocity": 113,
      "chip": "ym2612"
    },
    {
      "channel": 4,
      "note": 78,
      "start": 1.0651,
      "duration": 0.1008,
      "velocity": 73,
      "chip": "ym2612"
    },
    {
      "channel": 5,
      "note": 77,
      "start": 1.099,
      "duration": 0.032,
      "velocity": 73,
      "chip": "ym2612"
    },
    {
      "channel": 3,
      "note": 71,
      "start": 1.1142,
      "duration": 0.0996,
      "velocity": 113,
      "chip": "ym2612"
    },
    {
      "channel": 5,
      "note": 78,
      "start": 1.1315,
      "duration": 0.1496,
      "velocity": 73,
      "chip": "ym2612"
    },
    {
      "channel": 0,
      "note": 45,
      "start": 1.1636,
      "duration": 0.3834,
      "velocity": 108,
      "chip": "ym2612"
    },
    {
      "channel": 1,
      "note": 74,
      "start": 1.1643,
      "duration": 0.0825,
      "velocity": 113,
      "chip": "ym2612"
    },
    {
      "channel": 4,
      "note": 77,
      "start": 1.1664,
      "duration": 0.0817,
      "velocity": 73,
      "chip": "ym2612"
    },
    {
      "channel": 3,
      "note": 74,
      "start": 1.2143,
      "duration": 0.0829,
      "velocity": 113,
      "chip": "ym2612"
    },
    {
      "channel": 2,
      "note": 76,
      "start": 1.2476,
      "duration": 0.1,
      "velocity": 113,
      "chip": "ym2612"
    },
    {
      "channel": 4,
      "note": 78,
      "start": 1.2486,
      "duration": 0.0996,
      "velocity": 73,
      "chip": "ym2612"
    },
    {
      "channel": 5,
      "note": 78,
      "start": 1.2817,
      "duration": 0.0996,
      "velocity": 73,
      "chip": "ym2612"
    },
    {
      "channel": 3,
      "note": 76,
      "start": 1.2978,
      "duration": 0.0996,
      "velocity": 113,
      "chip": "ym2612"
    },
    {
      "channel": 1,
      "note": 77,
      "start": 1.3475,
      "duration": 0.0996,
      "velocity": 113,
      "chip": "ym2612"
    },
    {
      "channel": 4,
      "note": 77,
      "start": 1.3488,
      "duration": 0.0996,
      "velocity": 73,
      "chip": "ym2612"
    },
    {
      "channel": 5,
      "note": 78,
      "start": 1.3818,
      "duration": 0.0837,
      "velocity": 73,
      "chip": "ym2612"
    },
    {
      "channel": 3,
      "note": 77,
      "start": 1.3979,
      "duration": 0.0996,
      "velocity": 113,
      "chip": "ym2612"
    },
    {
      "channel": 2,
      "note": 78,
      "start": 1.4479,
      "duration": 0.1005,
      "velocity": 113,
      "chip": "ym2612"
    },
    {
      "channel": 4,
      "note": 78,
      "start": 1.4489,
      "duration": 0.1001,
      "velocity": 73,
      "chip": "ym2612"
    },
    {
      "channel": 5,
      "note": 77,
      "start": 1.4661,
      "duration": 0.0987,
      "velocity": 73,
      "chip": "ym2612"
    },
    {
      "channel": 3,
      "note": 78,
      "start": 1.498,
      "duration": 0.0829,
      "velocity": 113,
      "chip": "ym2612"
    },
    {
      "channel": 0,
      "note": 50,
      "start": 1.5475,
      "duration": 0.3665,
      "velocity": 108,
      "chip": "ym2612"
    },
    {
      "channel": 1,
      "note": 74,
      "start": 1.5482,
      "duration": 0.1825,
      "velocity": 113,
      "chip": "ym2612"
    },
    {
      "channel": 4,
      "note": 76,
      "start": 1.5495,
      "duration": 0.1825,
      "velocity": 73,
      "chip": "ym2612"
    },
    {
      "channel": 5,
      "note": 78,
      "start": 1.5654,
      "duration": 0.0996,
      "velocity": 73,
      "chip": "ym2612"
    },
    {
      "channel": 3,
      "note": 74,
      "start": 1.5815,
      "duration": 0.1997,
      "velocity": 113,
      "chip": "ym2612"
    },
    {
      "channel": 5,
      "note": 77,
      "start": 1.6655,
      "duration": 0.0829,
      "velocity": 73,
      "chip": "ym2612"
    },
    {
      "channel": 2,
      "note": 74,
      "start": 1.7316,
      "duration": 0.1,
      "velocity": 113,
      "chip": "ym2612"
    },
    {
      "channel": 4,
      "note": 74,
      "start": 1.7326,
      "duration": 0.9514,
      "velocity": 73,
      "chip": "ym2612"
    },
    {
      "channel": 5,
      "note": 78,
      "start": 1.749,
      "duration": 0.0996,
      "velocity": 73,
      "chip": "ym2612"
    },
    {
      "channel": 3,
      "note": 74,
      "start": 1.7817,
      "duration": 0.0829,
      "velocity": 113,
      "chip": "ym2612"
    },
    {
      "channel": 1,
      "note": 77,
      "start": 1.8314,
      "duration": 0.0833,
      "velocity": 113,
      "chip": "ym2612"
    },
    {
      "channel": 5,
      "note": 76,
      "start": 1.8491,
      "duration": 0.183,
      "velocity": 73,
      "chip": "ym2612"
    },
    {
      "channel": 3,
      "note": 77,
      "start": 1.8652,
      "duration": 0.0996,
      "velocity": 113,
      "chip": "ym2612"
    },
    {
      "channel": 0,
      "note": 45,
      "start": 1.9146,
      "duration": 0.3834,
      "velocity": 108,
      "chip": "ym2612"
    },
    {
      "channel": 2,
      "note": 78,
      "start": 1.9155,
      "duration": 0.0996,
      "velocity": 113,
      "chip": "ym2612"
    },
    {
      "channel": 3,
      "note": 78,
      "start": 1.9653,
      "duration": 0.0996,
      "velocity": 113,
      "chip": "ym2612"
    },
    {
      "channel": 1,
      "note": 74,
      "start": 2.015,
      "duration": 0.0996,
      "velocity": 113,
      "chip": "ym2612"
    },
    {
      "channel": 5,
      "note": 74,
      "start": 2.0327,
      "duration": 0.9507,
      "velocity": 73,
      "chip": "ym2612"
    },
    {
      "channel": 3,
      "note": 74,
      "start": 2.0654,
      "duration": 0.0996,
      "velocity": 113,
      "chip": "ym2612"
    },
    {
      "channel": 2,
      "note": 71,
      "start": 2.1154,
      "duration": 0.1839,
      "velocity": 113,
      "chip": "ym2612"
    },
    {
      "channel": 3,
      "note": 71,
      "start": 2.1656,
      "duration": 0.1832,
      "velocity": 113,
      "chip": "ym2612"
    },
    {
      "channel": 0,
      "note": 50,
      "start": 2.2985,
      "duration": 0.3832,
      "velocity": 108,
      "chip": "ym2612"
    },
    {
      "channel": 1,
      "note": 74,
      "start": 2.2992,
      "duration": 0.1825,
      "velocity": 113,
      "chip": "ym2612"
    },
    {
      "channel": 2,
      "note": 74,
      "start": 2.2999,
      "duration": 0.1826,
      "velocity": 113,
      "chip": "ym2612"
    },
    {
      "channel": 3,
      "note": 74,
      "start": 2.3494,
      "duration": 0.183,
      "velocity": 113,
      "chip": "ym2612"
    },
    {
      "channel": 1,
      "note": 74,
      "start": 2.4823,
      "duration": 0.2001,
      "velocity": 113,
      "chip": "ym2612"
    },
    {
      "channel": 2,
      "note": 78,
      "start": 2.4829,
      "duration": 0.2001,
      "velocity": 113,
      "chip": "ym2612"
    },
    {
      "channel": 3,
      "note": 78,
      "start": 2.5329,
      "duration": 0.1997,
      "velocity": 113,
      "chip": "ym2612"
    },
    {
      "channel": 0,
      "note": 45,
      "start": 2.6822,
      "duration": 0.3834,
      "velocity": 108,
      "chip": "ym2612"
    },
    {
      "channel": 1,
      "note": 69,
      "start": 2.6829,
      "duration": 0.1827,
      "velocity": 113,
      "chip": "ym2612"
    },
    {
      "channel": 2,
      "note": 69,
      "start": 2.6836,
      "duration": 0.1827,
      "velocity": 113,
      "chip": "ym2612"
    },
    {
      "channel": 3,
      "note": 69,
      "start": 2.7332,
      "duration": 0.183,
      "velocity": 113,
      "chip": "ym2612"
    },
    {
      "channel": 1,
      "note": 74,
      "start": 2.8661,
      "duration": 0.2002,
      "velocity": 113,
      "chip": "ym2612"
    },
    {
      "channel": 2,
      "note": 78,
      "start": 2.8668,
      "duration": 0.2002,
      "velocity": 113,
      "chip": "ym2612"
    },
    {
      "channel": 3,
      "note": 78,
      "start": 2.9168,
      "duration": 0.1828,
      "velocity": 113,
      "chip": "ym2612"
    },
    {
      "channel": 0,
      "note": 50,
      "start": 3.0661,
      "duration": 0.3665,
      "velocity": 108,
      "chip": "ym2612"
    },
    {
      "channel": 1,
      "note": 81,
      "start": 3.0668,
      "duration": 0.0824,
      "velocity": 113,
      "chip": "ym2612"
    },
    {
      "channel": 4,
      "note": 77,
      "start": 3.0681,
      "duration": 0.0321,
      "velocity": 73,
      "chip": "ym2612"
    },
    {
      "channel": 3,
      "note": 81,
      "start": 3.1001,
      "duration": 0.1002,
      "velocity": 113,
      "chip": "ym2612"
    },
    {
      "channel": 4,
      "note": 78,
      "start": 3.1008,
      "duration": 0.1502,
      "velocity": 73,
      "chip": "ym2612"
    },
    {
      "channel": 2,
      "note": 69,
      "start": 3.1501,
      "duration": 0.0499,
      "velocity": 113,
      "chip": "ym2612"
    },
    {
      "channel": 1,
      "note": 74,
      "start": 3.1999,
      "duration": 0.0495,
      "velocity": 113,
      "chip": "ym2612"
    },
    {
      "channel": 3,
      "note": 69,
      "start": 3.2008,
      "duration": 0.0495,
      "velocity": 113,
      "chip": "ym2612"
    },
    {
      "channel": 2,
      "note": 78,
      "start": 3.2502,
      "duration": 0.1,
      "velocity": 113,
      "chip": "ym2612"
    },
    {
      "channel": 3,
      "note": 74,
      "start": 3.2509,
      "duration": 0.0489,
      "velocity": 113,
      "chip": "ym2612"
    },
    {
      "channel": 4,
      "note": 78,
      "start": 3.2516,
      "duration": 0.0992,
      "velocity": 73,
      "chip": "ym2612"
    },
    {
      "channel": 3,
      "note": 78,
      "start": 3.3004,
      "duration": 0.0829,
      "velocity": 113,
      "chip": "ym2612"
    },
    {
      "channel": 1,
      "note": 81,
      "start": 3.3501,
      "duration": 0.0833,
      "velocity": 113,
      "chip": "ym2612"
    },
    {
      "channel": 4,
      "note": 78,
      "start": 3.3514,
      "duration": 0.0834,
      "velocity": 73,
      "chip": "ym2612"
    },
    {
      "channel": 5,
      "note": 77,
      "start": 3.3677,
      "duration": 0.0495,
      "velocity": 73,
      "chip": "ym2612"
    },
    {
      "channel": 3,
      "note": 81,
      "start": 3.3838,
      "duration": 0.0996,
      "velocity": 113,
      "chip": "ym2612"
    },
    {
      "channel": 5,
      "note": 78,
      "start": 3.4178,
      "duration": 0.1329,
      "velocity": 73,
      "chip": "ym2612"
    },
    {
      "channel": 0,
      "note": 45,
      "start": 3.4332,
      "duration": 0.3833,
      "velocity": 108,
      "chip": "ym2612"
    },
    {
      "channel": 2,
      "note": 83,
      "start": 3.4342,
      "duration": 0.0996,
      "velocity": 113,
      "chip": "ym2612"
    },
    {
      "channel": 4,
      "note": 77,
      "start": 3.4353,
      "duration": 0.0488,
      "velocity": 73,
      "chip": "ym2612"
    },
    {
      "channel": 3,
      "note": 83,
      "start": 3.4839,
      "duration": 0.0996,
      "velocity": 113,
      "chip": "ym2612"
    },
    {
      "channel": 4,
      "note": 78,
      "start": 3.4846,
      "duration": 0.1499,
      "velocity": 73,
      "chip": "ym2612"
    },
    {
      "channel": 1,
      "note": 81,
      "start": 3.5336,
      "duration": 0.0996,
      "velocity": 113,
      "chip": "ym2612"
    },
    {
      "channel": 5,
      "note": 78,
      "start": 3.5513,
      "duration": 0.0996,
      "velocity": 73,
      "chip": "ym2612"
    },
    {
      "channel": 3,
      "note": 81,
      "start": 3.5841,
      "duration": 0.0996,
      "velocity": 113,
      "chip": "ym2612"
    },
    {
      "channel": 2,
      "note": 78,
      "start": 3.634,
      "duration": 0.0833,
      "velocity": 113,
      "chip": "ym2612"
    },
    {
      "channel": 4,
      "note": 78,
      "start": 3.635,
      "duration": 0.0829,
      "velocity": 73,
      "chip": "ym2612"
    },
    {
      "channel": 5,
      "note": 78,
      "start": 3.6514,
      "duration": 0.0997,
      "velocity": 73,
      "chip": "ym2612"
    },
    {
      "channel": 3,
      "note": 78,
      "start": 3.6842,
      "duration": 0.0829,
      "velocity": 113,
      "chip": "ym2612"
    },
    {
      "channel": 1,
      "note": 76,
      "start": 3.7172,
      "duration": 0.1,
      "velocity": 113,
      "chip": "ym2612"
    },
    {
      "channel": 4,
      "note": 78,
      "start": 3.7185,
      "duration": 0.1,
      "velocity": 73,
      "chip": "ym2612"
    },
    {
      "channel": 5,
      "note": 77,
      "start": 3.7516,
      "duration": 0.0494,
      "velocity": 73,
      "chip": "ym2612"
    },
    {
      "channel": 3,
      "note": 76,
      "start": 3.7676,
      "duration": 0.0996,
      "velocity": 113,
      "chip": "ym2612"
    },
    {
      "channel": 5,
      "note": 78,
      "start": 3.8016,
      "duration": 0.1329,
      "velocity": 73,
      "chip": "ym2612"
    },
    {
      "channel": 0,
      "note": 50,
      "start": 3.817,
      "duration": 0.3833,
      "velocity": 108,
      "chip": "ym2612"
    },
    {
      "channel": 2,
      "note": 74,
      "start": 3.818,
      "duration": 0.183,
      "velocity": 113,
      "chip": "ym2612"
    },
    {
      "channel": 4,
      "note": 77,
      "start": 3.8191,
      "duration": 0.0488,
      "velocity": 73,
      "chip": "ym2612"
    },
    {
      "channel": 3,
      "note": 74,
      "start": 3.8678,
      "duration": 0.183,
      "velocity": 113,
      "chip": "ym2612"
    },
    {
      "channel": 4,
      "note": 78,
      "start": 3.8685,
      "duration": 0.1332,
      "velocity": 73,
      "chip": "ym2612"
    },
    {
      "channel": 5,
      "note": 78,
      "start": 3.9351,
      "duration": 0.0996,
      "velocity": 73,
      "chip": "ym2612"
    },
    {
      "channel": 1,
      "note": 74,
      "start": 4.0009,
      "duration": 0.0996,
      "velocity": 113,
      "chip": "ym2612"
    },
    {
      "channel": 4,
      "note": 78,
      "start": 4.0022,
      "duration": 0.0995,
      "velocity": 73,
      "chip": "ym2612"
    },
    {
      "channel": 5,
      "note": 78,
      "start": 4.0352,
      "duration": 0.0997,
      "velocity": 73,
      "chip": "ym2612"
    },
    {
      "channel": 3,
      "note": 74,
      "start": 4.0513,
      "duration": 0.0996,
      "velocity": 113,
      "chip": "ym2612"
    },
    {
      "channel": 2,
      "note": 77,
      "start": 4.1013,
      "duration": 0.1003,
      "velocity": 113,
      "chip": "ym2612"
    },
    {
      "channel": 4,
      "note": 78,
      "start": 4.1023,
      "duration": 0.1,
      "velocity": 73,
      "chip": "ym2612"
    },
    {
      "channel": 5,
      "note": 77,
      "start": 4.1355,
      "duration": 0.0327,
      "velocity": 73,
      "chip": "ym2612"
    },
    {
      "channel": 3,
      "note": 77,
      "start": 4.1515,
      "duration": 0.0996,
      "velocity": 113,
      "chip": "ym2612"
    },
    {
      "channel": 5,
      "note": 78,
      "start": 4.1688,
      "duration": 0.1496,
      "velocity": 73,
      "chip": "ym2612"
    },
    {
      "channel": 0,
      "note": 50,
      "start": 4.2008,
      "duration": 0.3833,
      "velocity": 108,
      "chip": "ym2612"
    },
    {
      "channel": 1,
      "note": 78,
      "start": 4.2015,
      "duration": 0.0992,
      "velocity": 113,
      "chip": "ym2612"
    },
    {
      "channel": 4,
      "note": 77,
      "start": 4.2029,
      "duration": 0.0991,
      "velocity": 73,
      "chip": "ym2612"
    },
    {
      "channel": 3,
      "note": 78,
      "start": 4.2516,
      "duration": 0.0829,
      "velocity": 113,
      "chip": "ym2612"
    },
    {
      "channel": 2,
      "note": 74,
      "start": 4.3016,
      "duration": 0.0833,
      "velocity": 113,
      "chip": "ym2612"
    },
    {
      "channel": 4,
      "note": 78,
      "start": 4.3026,
      "duration": 0.0829,
      "velocity": 73,
      "chip": "ym2612"
    },
    {
      "channel": 5,
      "note": 78,
      "start": 4.3189,
      "duration": 0.0996,
      "velocity": 73,
      "chip": "ym2612"
    },
    {
      "channel": 3,
      "note": 74,
      "start": 4.335,
      "duration": 0.0996,
      "velocity": 113,
      "chip": "ym2612"
    },
    {
      "channel": 1,
      "note": 71,
      "start": 4.3847,
      "duration": 0.2001,
      "velocity": 113,
      "chip": "ym2612"
    },
    {
      "channel": 4,
      "note": 77,
      "start": 4.386,
      "duration": 0.099,
      "velocity": 73,
      "chip": "ym2612"
    },
    {
      "channel": 5,
      "note": 78,
      "start": 4.4191,
      "duration": 0.083,
      "velocity": 73,
      "chip": "ym2612"
    },
    {
      "channel": 3,
      "note": 71,
      "start": 4.4352,
      "duration": 0.183,
      "velocity": 113,
      "chip": "ym2612"
    },
    {
      "channel": 4,
      "note": 78,
      "start": 4.4855,
      "duration": 0.1006,
      "velocity": 73,
      "chip": "ym2612"
    },
    {
      "channel": 5,
      "note": 77,
      "start": 4.5026,
      "duration": 0.0995,
      "velocity": 73,
      "chip": "ym2612"
    },
    {
      "channel": 0,
      "note": 45,
      "start": 4.5847,
      "duration": 0.3666,
      "velocity": 108,
      "chip": "ym2612"
    },
    {
      "channel": 2,
      "note": 69,
      "start": 4.5857,
      "duration": 0.183,
      "velocity": 113,
      "chip": "ym2612"
    },
    {
      "channel": 4,
      "note": 76,
      "start": 4.5867,
      "duration": 1.5181,
      "velocity": 73,
      "chip": "ym2612"
    },
    {
      "channel": 5,
      "note": 78,
      "start": 4.6026,
      "duration": 0.0996,
      "velocity": 73,
      "chip": "ym2612"
    },
    {
      "channel": 3,
      "note": 69,
      "start": 4.6187,
      "duration": 0.1997,
      "velocity": 113,
      "chip": "ym2612"
    },
    {
      "channel": 5,
      "note": 77,
      "start": 4.7028,
      "duration": 0.0829,
      "velocity": 73,
      "chip": "ym2612"
    },
    {
      "channel": 1,
      "note": 80,
      "start": 4.7685,
      "duration": 0.0996,
      "velocity": 113,
      "chip": "ym2612"
    },
    {
      "channel": 5,
      "note": 78,
      "start": 4.7862,
      "duration": 0.0996,
      "velocity": 73,
      "chip": "ym2612"
    },
    {
      "channel": 3,
      "note": 80,
      "start": 4.819,
      "duration": 0.0829,
      "velocity": 113,
      "chip": "ym2612"
    },
    {
      "channel": 2,
      "note": 81,
      "start": 4.869,
      "duration": 0.0837,
      "velocity": 113,
      "chip": "ym2612"
    },
    {
      "channel": 5,
      "note": 76,
      "start": 4.8863,
      "duration": 1.518,
      "velocity": 73,
      "chip": "ym2612"
    },
    {
      "channel": 3,
      "note": 81,
      "start": 4.9024,
      "duration": 0.0996,
      "velocity": 113,
      "chip": "ym2612"
    },
    {
      "channel": 0,
      "note": 52,
      "start": 4.9518,
      "duration": 0.3833,
      "velocity": 108,
      "chip": "ym2612"
    },
    {
      "channel": 1,
      "note": 86,
      "start": 4.9525,
      "duration": 0.0992,
      "velocity": 113,
      "chip": "ym2612"
    },
    {
      "channel": 3,
      "note": 86,
      "start": 5.0026,
      "duration": 0.0996,
      "velocity": 113,
      "chip": "ym2612"
    },
    {
      "channel": 2,
      "note": 80,
      "start": 5.0525,
      "duration": 0.1,
      "velocity": 113,
      "chip": "ym2612"
    },
    {
      "channel": 3,
      "note": 80,
      "start": 5.1027,
      "duration": 0.0996,
      "velocity": 113,
      "chip": "ym2612"
    },
    {
      "channel": 1,
      "note": 81,
      "start": 5.1524,
      "duration": 0.0829,
      "velocity": 113,
      "chip": "ym2612"
    },
    {
      "channel": 3,
      "note": 81,
      "start": 5.2028,
      "duration": 0.0829,
      "velocity": 113,
      "chip": "ym2612"
    },
    {
      "channel": 2,
      "note": 86,
      "start": 5.2361,
      "duration": 0.1003,
      "velocity": 113,
      "chip": "ym2612"
    },
    {
      "channel": 3,
      "note": 86,
      "start": 5.2863,
      "duration": 0.0996,
      "velocity": 113,
      "chip": "ym2612"
    },
    {
      "channel": 0,
      "note": 45,
      "start": 5.3356,
      "duration": 0.1831,
      "velocity": 108,
      "chip": "ym2612"
    },
    {
      "channel": 1,
      "note": 80,
      "start": 5.3363,
      "duration": 0.0992,
      "velocity": 113,
      "chip": "ym2612"
    },
    {
      "channel": 3,
      "note": 80,
      "start": 5.3864,
      "duration": 0.0996,
      "velocity": 113,
      "chip": "ym2612"
    },
    {
      "channel": 2,
      "note": 81,
      "start": 5.4364,
      "duration": 0.0837,
      "velocity": 113,
      "chip": "ym2612"
    },
    {
      "channel": 3,
      "note": 81,
      "start": 5.4865,
      "duration": 0.0829,
      "velocity": 113,
      "chip": "ym2612"
    },
    {
      "channel": 0,
      "note": 45,
      "start": 5.5192,
      "duration": 0.1997,
      "velocity": 108,
      "chip": "ym2612"
    },
    {
      "channel": 1,
      "note": 80,
      "start": 5.5199,
      "duration": 0.0992,
      "velocity": 113,
      "chip": "ym2612"
    },
    {
      "channel": 3,
      "note": 80,
      "start": 5.5699,
      "duration": 0.0996,
      "velocity": 113,
      "chip": "ym2612"
    },
    {
      "channel": 2,
      "note": 81,
      "start": 5.6199,
      "duration": 0.1004,
      "velocity": 113,
      "chip": "ym2612"
    },
    {
      "channel": 3,
      "note": 81,
      "start": 5.6701,
      "duration": 0.0996,
      "velocity": 113,
      "chip": "ym2612"
    },
    {
      "channel": 0,
      "note": 47,
      "start": 5.7195,
      "duration": 0.183,
      "velocity": 108,
      "chip": "ym2612"
    },
    {
      "channel": 1,
      "note": 86,
      "start": 5.7202,
      "duration": 0.0992,
      "velocity": 113,
      "chip": "ym2612"
    },
    {
      "channel": 3,
      "note": 86,
      "start": 5.7702,
      "duration": 0.0829,
      "velocity": 113,
      "chip": "ym2612"
    },
    {
      "channel": 2,
      "note": 81,
      "start": 5.8202,
      "duration": 0.0837,
      "velocity": 113,
      "chip": "ym2612"
    },
    {
      "channel": 3,
      "note": 81,
      "start": 5.8537,
      "duration": 0.0996,
      "velocity": 113,
      "chip": "ym2612"
    },
    {
      "channel": 0,
      "note": 49,
      "start": 5.903,
      "duration": 0.1998,
      "velocity": 108,
      "chip": "ym2612"
    },
    {
      "channel": 1,
      "note": 78,
      "start": 5.9037,
      "duration": 0.0992,
      "velocity": 113,
      "chip": "ym2612"
    },
    {
      "channel": 3,
      "note": 78,
      "start": 5.9538,
      "duration": 0.0996,
      "velocity": 113,
      "chip": "ym2612"
    },
    {
      "channel": 2,
      "note": 76,
      "start": 6.0038,
      "duration": 0.1004,
      "velocity": 113,
      "chip": "ym2612"
    },
    {
      "channel": 3,
      "note": 76,
      "start": 6.0539,
      "duration": 0.0829,
      "velocity": 113,
      "chip": "ym2612"
    },
    {
      "channel": 0,
      "note": 50,
      "start": 6.1033,
      "duration": 0.3666,
      "velocity": 108,
      "chip": "ym2612"
    },
    {
      "channel": 1,
      "note": 74,
      "start": 6.104,
      "duration": 0.0825,
      "velocity": 113,
      "chip": "ym2612"
    },
    {
      "channel": 4,
      "note": 74,
      "start": 6.1053,
      "duration": 0.0825,
      "velocity": 73,
      "chip": "ym2612"
    },
    {
      "channel": 3,
      "note": 74,
      "start": 6.1373,
      "duration": 0.1002,
      "velocity": 113,
      "chip": "ym2612"
    },
    {
      "channel": 2,
      "note": 78,
      "start": 6.1873,
      "duration": 0.0499,
      "velocity": 113,
      "chip": "ym2612"
    },
    {
      "channel": 4,
      "note": 78,
      "start": 6.1883,
      "duration": 0.1,
      "velocity": 73,
      "chip": "ym2612"
    },
    {
      "channel": 1,
      "note": 81,
      "start": 6.2371,
      "duration": 0.0495,
      "velocity": 113,
      "chip": "ym2612"
    },
    {
      "channel": 3,
      "note": 78,
      "start": 6.2381,
      "duration": 0.0495,
      "velocity": 113,
      "chip": "ym2612"
    },
    {
      "channel": 2,
      "note": 69,
      "start": 6.2875,
      "duration": 0.1,
      "velocity": 113,
      "chip": "ym2612"
    },
    {
      "channel": 3,
      "note": 81,
      "start": 6.2882,
      "duration": 0.0489,
      "velocity": 113,
      "chip": "ym2612"
    },
    {
      "channel": 4,
      "note": 81,
      "start": 6.2889,
      "duration": 0.0992,
      "velocity": 73,
      "chip": "ym2612"
    },
    {
      "channel": 3,
      "note": 69,
      "start": 6.3376,
      "duration": 0.0996,
      "velocity": 113,
      "chip": "ym2612"
    },
    {
      "channel": 1,
      "note": 74,
      "start": 6.3873,
      "duration": 0.0833,
      "velocity": 113,
      "chip": "ym2612"
    },
    {
      "channel": 4,
      "note": 86,
      "start": 6.3886,
      "duration": 0.0832,
      "velocity": 73,
      "chip": "ym2612"
    },
    {
      "channel": 5,
      "note": 74,
      "start": 6.405,
      "duration": 0.0996,
      "velocity": 73,
      "chip": "ym2612"
    },
    {
      "channel": 3,
      "note": 74,
      "start": 6.4377,
      "duration": 0.0829,
      "velocity": 113,
      "chip": "ym2612"
    },
    {
      "channel": 0,
      "note": 45,
      "start": 6.4704,
      "duration": 0.3833,
      "velocity": 108,
      "chip": "ym2612"
    },
    {
      "channel": 2,
      "note": 78,
      "start": 6.4714,
      "duration": 0.0996,
      "velocity": 113,
      "chip": "ym2612"
    },
    {
      "channel": 4,
      "note": 89,
      "start": 6.4724,
      "duration": 0.0992,
      "velocity": 73,
      "chip": "ym2612"
    },
    {
      "channel": 5,
      "note": 78,
      "start": 6.5051,
      "duration": 0.0829,
      "velocity": 73,
      "chip": "ym2612"
    },
    {
      "channel": 3,
      "note": 78,
      "start": 6.5212,
      "duration": 0.0996,
      "velocity": 113,
      "chip": "ym2612"
    },
    {
      "channel": 1,
      "note": 81,
      "start": 6.5709,
      "duration": 0.0996,
      "velocity": 113,
      "chip": "ym2612"
    },
    {
      "channel": 4,
      "note": 90,
      "start": 6.5722,
      "duration": 0.0995,
      "velocity": 73,
      "chip": "ym2612"
    },
    {
      "channel": 5,
      "note": 81,
      "start": 6.5885,
      "duration": 0.0996,
      "velocity": 73,
      "chip": "ym2612"
    },
    {
      "channel": 3,
      "note": 81,
      "start": 6.6213,
      "duration": 0.0996,
      "velocity": 113,
      "chip": "ym2612"
    },
    {
      "channel": 2,
      "note": 74,
      "start": 6.6713,
      "duration": 0.0833,
      "velocity": 113,
      "chip": "ym2612"
    },
    {
      "channel": 4,
      "note": 88,
      "start": 6.6723,
      "duration": 0.0829,
      "velocity": 73,
      "chip": "ym2612"
    },
    {
      "channel": 5,
      "note": 86,
      "start": 6.6887,
      "duration": 0.0996,
      "velocity": 73,
      "chip": "ym2612"
    },
    {
      "channel": 3,
      "note": 74,
      "start": 6.7214,
      "duration": 0.0829,
      "velocity": 113,
      "chip": "ym2612"
    },
    {
      "channel": 1,
      "note": 77,
      "start": 6.7544,
      "duration": 0.1,
      "velocity": 113,
      "chip": "ym2612"
    },
    {
      "channel": 4,
      "note": 86,
      "start": 6.7557,
      "duration": 0.1,
      "velocity": 73,
      "chip": "ym2612"
    },
    {
      "channel": 5,
      "note": 89,
      "start": 6.7888,
      "duration": 0.0996,
      "velocity": 73,
      "chip": "ym2612"
    },
    {
      "channel": 3,
      "note": 77,
      "start": 6.8049,
      "duration": 0.0996,
      "velocity": 113,
      "chip": "ym2612"
    },
    {
      "channel": 0,
      "note": 50,
      "start": 6.8543,
      "duration": 0.3833,
      "velocity": 108,
      "chip": "ym2612"
    },
    {
      "channel": 2,
      "note": 78,
      "start": 6.8552,
      "duration": 0.0996,
      "velocity": 113,
      "chip": "ym2612"
    },
    {
      "channel": 4,
      "note": 81,
      "start": 6.8562,
      "duration": 0.0992,
      "velocity": 73,
      "chip": "ym2612"
    },
    {
      "channel": 5,
      "note": 90,
      "start": 6.8889,
      "duration": 0.0829,
      "velocity": 73,
      "chip": "ym2612"
    },
    {
      "channel": 3,
      "note": 78,
      "start": 6.905,
      "duration": 0.0996,
      "velocity": 113,
      "chip": "ym2612"
    },
    {
      "channel": 1,
      "note": 81,
      "start": 6.9547,
      "duration": 0.0829,
      "velocity": 113,
      "chip": "ym2612"
    },
    {
      "channel": 4,
      "note": 83,
      "start": 6.956,
      "duration": 0.0829,
      "velocity": 73,
      "chip": "ym2612"
    },
    {
      "channel": 5,
      "note": 88,
      "start": 6.9724,
      "duration": 0.0996,
      "velocity": 73,
      "chip": "ym2612"
    },
    {
      "channel": 3,
      "note": 81,
      "start": 7.0051,
      "duration": 0.0829,
      "velocity": 113,
      "chip": "ym2612"
    },
    {
      "channel": 2,
      "note": 86,
      "start": 7.0384,
      "duration": 0.1,
      "velocity": 113,
      "chip": "ym2612"
    },
    {
      "channel": 4,
      "note": 86,
      "start": 7.0394,
      "duration": 0.0996,
      "velocity": 73,
      "chip": "ym2612"
    },
    {
      "channel": 5,
      "note": 86,
      "start": 7.0725,
      "duration": 0.0996,
      "velocity": 73,
      "chip": "ym2612"
    },
    {
      "channel": 3,
      "note": 86,
      "start": 7.0886,
      "duration": 0.0996,
      "velocity": 113,
      "chip": "ym2612"
    },
    {
      "channel": 1,
      "note": 78,
      "start": 7.1383,
      "duration": 0.1,
      "velocity": 113,
      "chip": "ym2612"
    },
    {
      "channel": 4,
      "note": 81,
      "start": 7.1395,
      "duration": 0.1,
      "velocity": 73,
      "chip": "ym2612"
    },
    {
      "channel": 5,
      "note": 81,
      "start": 7.1726,
      "duration": 0.0829,
      "velocity": 73,
      "chip": "ym2612"
    },
    {
      "channel": 3,
      "note": 78,
      "start": 7.1887,
      "duration": 0.0996,
      "velocity": 113,
      "chip": "ym2612"
    },
    {
      "channel": 0,
      "note": 50,
      "start": 7.2381,
      "duration": 0.3833,
      "velocity": 108,
      "chip": "ym2612"
    },
    {
      "channel": 2,
      "note": 81,
      "start": 7.2391,
      "duration": 0.0996,
      "velocity": 113,
      "chip": "ym2612"
    },
    {
      "channel": 4,
      "note": 83,
      "start": 7.2401,
      "duration": 0.0992,
      "velocity": 73,
      "chip": "ym2612"
    },
    {
      "channel": 5,
      "note": 83,
      "start": 7.2561,
      "duration": 0.0996,
      "velocity": 73,
      "chip": "ym2612"
    },
    {
      "channel": 3,
      "note": 81,
      "start": 7.2888,
      "duration": 0.0829,
      "velocity": 113,
      "chip": "ym2612"
    },
    {
      "channel": 1,
      "note": 86,
      "start": 7.3385,
      "duration": 0.0829,
      "velocity": 113,
      "chip": "ym2612"
    },
    {
      "channel": 4,
      "note": 86,
      "start": 7.3398,
      "duration": 0.0829,
      "velocity": 73,
      "chip": "ym2612"
    },
    {
      "channel": 5,
      "note": 86,
      "start": 7.3562,
      "duration": 0.0996,
      "velocity": 73,
      "chip": "ym2612"
    },
    {
      "channel": 3,
      "note": 86,
      "start": 7.3723,
      "duration": 0.0996,
      "velocity": 113,
      "chip": "ym2612"
    },
    {
      "channel": 2,
      "note": 78,
      "start": 7.4222,
      "duration": 0.1,
      "velocity": 113,
      "chip": "ym2612"
    },
    {
      "channel": 4,
      "note": 81,
      "start": 7.4232,
      "duration": 0.0996,
      "velocity": 73,
      "chip": "ym2612"
    },
    {
      "channel": 5,
      "note": 81,
      "start": 7.4563,
      "duration": 0.0829,
      "velocity": 73,
      "chip": "ym2612"
    },
    {
      "channel": 3,
      "note": 78,
      "start": 7.4724,
      "duration": 0.0996,
      "velocity": 113,
      "chip": "ym2612"
    },
    {
      "channel": 1,
      "note": 81,
      "start": 7.5221,
      "duration": 0.1,
      "velocity": 113,
      "chip": "ym2612"
    },
    {
      "channel": 4,
      "note": 83,
      "start": 7.5234,
      "duration": 0.1,
      "velocity": 73,
      "chip": "ym2612"
    },
    {
      "channel": 5,
      "note": 83,
      "start": 7.5398,
      "duration": 0.0996,
      "velocity": 73,
      "chip": "ym2612"
    },
    {
      "channel": 3,
      "note": 81,
      "start": 7.5725,
      "duration": 0.0829,
      "velocity": 113,
      "chip": "ym2612"
    },
    {
      "channel": 0,
      "note": 55,
      "start": 7.6219,
      "duration": 0.3666,
      "velocity": 108,
      "chip": "ym2612"
    },
    {
      "channel": 2,
      "note": 79,
      "start": 7.6229,
      "duration": 0.0829,
      "velocity": 113,
      "chip": "ym2612"
    },
    {
      "channel": 4,
      "note": 86,
      "start": 7.6239,
      "duration": 0.1826,
      "velocity": 73,
      "chip": "ym2612"
    },
    {
      "channel": 5,
      "note": 86,
      "start": 7.6399,
      "duration": 0.0996,
      "velocity": 73,
      "chip": "ym2612"
    },
    {
      "channel": 3,
      "note": 79,
      "start": 7.656,
      "duration": 0.0996,
      "velocity": 113,
      "chip": "ym2612"
    },
    {
      "channel": 1,
      "note": 83,
      "start": 7.7057,
      "duration": 0.0996,
      "velocity": 113,
      "chip": "ym2612"
    },
    {
      "channel": 5,
      "note": 81,
      "start": 7.74,
      "duration": 0.0829,
      "velocity": 73,
      "chip": "ym2612"
    },
    {
      "channel": 3,
      "note": 83,
      "start": 7.7561,
      "duration": 0.0996,
      "velocity": 113,
      "chip": "ym2612"
    },
    {
      "channel": 2,
      "note": 86,
      "start": 7.8061,
      "duration": 0.1,
      "velocity": 113,
      "chip": "ym2612"
    },
    {
      "channel": 4,
      "note": 86,
      "start": 7.8069,
      "duration": 0.0997,
      "velocity": 73,
      "chip": "ym2612"
    },
    {
      "channel": 5,
      "note": 83,
      "start": 7.8234,
      "duration": 0.0996,
      "velocity": 73,
      "chip": "ym2612"
    },
    {
      "channel": 3,
      "note": 86,
      "start": 7.8562,
      "duration": 0.0996,
      "velocity": 113,
      "chip": "ym2612"
    },
    {
      "channel": 1,
      "note": 79,
      "start": 7.9059,
      "duration": 0.0833,
      "velocity": 113,
      "chip": "ym2612"
    },
    {
      "channel": 4,
      "note": 86,
      "start": 7.9071,
      "duration": 0.0834,
      "velocity": 73,
      "chip": "ym2612"
    },
    {
      "channel": 5,
      "note": 86,
      "start": 7.9236,
      "duration": 0.183,
      "velocity": 73,
      "chip": "ym2612"
    },
    {
      "channel": 3,
      "note": 79,
      "start": 7.9563,
      "duration": 0.0829,
      "velocity": 113,
      "chip": "ym2612"
    },
    {
      "channel": 0,
      "note": 50,
      "start": 7.989,
      "duration": 0.3833,
      "velocity": 108,
      "chip": "ym2612"
    },
    {
      "channel": 2,
      "note": 83,
      "start": 7.99,
      "duration": 0.0996,
      "velocity": 113,
      "chip": "ym2612"
    },
    {
      "channel": 4,
      "note": 86,
      "start": 7.9909,
      "duration": 0.0993,
      "velocity": 73,
      "chip": "ym2612"
    },
    {
      "channel": 3,
      "note": 83,
      "start": 8.0398,
      "duration": 0.0996,
      "velocity": 113,
      "chip": "ym2612"
    },
    {
      "channel": 1,
      "note": 86,
      "start": 8.0895,
      "duration": 0.0996,
      "velocity": 113,
      "chip": "ym2612"
    },
    {
      "channel": 4,
      "note": 83,
      "start": 8.0908,
      "duration": 0.0996,
      "velocity": 73,
      "chip": "ym2612"
    },
    {
      "channel": 5,
      "note": 86,
      "start": 8.107,
      "duration": 0.0998,
      "velocity": 73,
      "chip": "ym2612"
    },
    {
      "channel": 3,
      "note": 86,
      "start": 8.1399,
      "duration": 0.0996,
      "velocity": 113,
      "chip": "ym2612"
    },
    {
      "channel": 2,
      "note": 74,
      "start": 8.1899,
      "duration": 0.0833,
      "velocity": 113,
      "chip": "ym2612"
    },
    {
      "channel": 4,
      "note": 81,
      "start": 8.1909,
      "duration": 0.1834,
      "velocity": 73,
      "chip": "ym2612"
    },
    {
      "channel": 5,
      "note": 86,
      "start": 8.2071,
      "duration": 0.0998,
      "velocity": 73,
      "chip": "ym2612"
    },
    {
      "channel": 3,
      "note": 74,
      "start": 8.24,
      "duration": 0.0829,
      "velocity": 113,
      "chip": "ym2612"
    },
    {
      "channel": 1,
      "note": 79,
      "start": 8.2731,
      "duration": 0.1,
      "velocity": 113,
      "chip": "ym2612"
    },
    {
      "channel": 5,
      "note": 86,
      "start": 8.3073,
      "duration": 0.0997,
      "velocity": 73,
      "chip": "ym2612"
    },
    {
      "channel": 3,
      "note": 79,
      "start": 8.3235,
      "duration": 0.0996,
      "velocity": 113,
      "chip": "ym2612"
    },
    {
      "channel": 0,
      "note": 55,
      "start": 8.3729,
      "duration": 0.3833,
      "velocity": 108,
      "chip": "ym2612"
    },
    {
      "channel": 2,
      "note": 83,
      "start": 8.3739,
      "duration": 0.0996,
      "velocity": 113,
      "chip": "ym2612"
    },
    {
      "channel": 4,
      "note": 77,
      "start": 8.3749,
      "duration": 0.2827,
      "velocity": 73,
      "chip": "ym2612"
    },
    {
      "channel": 5,
      "note": 83,
      "start": 8.4076,
      "duration": 0.0829,
      "velocity": 73,
      "chip": "ym2612"
    },
    {
      "channel": 3,
      "note": 83,
      "start": 8.4237,
      "duration": 0.0995,
      "velocity": 113,
      "chip": "ym2612"
    },
    {
      "channel": 1,
      "note": 86,
      "start": 8.4733,
      "duration": 0.0996,
      "velocity": 113,
      "chip": "ym2612"
    },
    {
      "channel": 5,
      "note": 81,
      "start": 8.491,
      "duration": 0.1997,
      "velocity": 73,
      "chip": "ym2612"
    },
    {
      "channel": 3,
      "note": 86,
      "start": 8.5238,
      "duration": 0.0829,
      "velocity": 113,
      "chip": "ym2612"
    },
    {
      "channel": 2,
      "note": 79,
      "start": 8.5737,
      "duration": 0.0833,
      "velocity": 113,
      "chip": "ym2612"
    },
    {
      "channel": 3,
      "note": 79,
      "start": 8.6072,
      "duration": 0.0996,
      "velocity": 113,
      "chip": "ym2612"
    },
    {
      "channel": 1,
      "note": 83,
      "start": 8.6569,
      "duration": 0.1,
      "velocity": 113,
      "chip": "ym2612"
    },
    {
      "channel": 4,
      "note": 76,
      "start": 8.6582,
      "duration": 0.2832,
      "velocity": 73,
      "chip": "ym2612"
    },
    {
      "channel": 5,
      "note": 77,
      "start": 8.6912,
      "duration": 0.2831,
      "velocity": 73,
      "chip": "ym2612"
    },
    {
      "channel": 3,
      "note": 83,
      "start": 8.7073,
      "duration": 0.0996,
      "velocity": 113,
      "chip": "ym2612"
    },
    {
      "channel": 0,
      "note": 55,
      "start": 8.7567,
      "duration": 0.3833,
      "velocity": 108,
      "chip": "ym2612"
    },
    {
      "channel": 2,
      "note": 86,
      "start": 8.7577,
      "duration": 0.0996,
      "velocity": 113,
      "chip": "ym2612"
    },
    {
      "channel": 3,
      "note": 86,
      "start": 8.8075,
      "duration": 0.0829,
      "velocity": 113,
      "chip": "ym2612"
    },
    {
      "channel": 1,
      "note": 79,
      "start": 8.8571,
      "duration": 0.0829,
      "velocity": 113,
      "chip": "ym2612"
    },
    {
      "channel": 3,
      "note": 79,
      "start": 8.8909,
      "duration": 0.0996,
      "velocity": 113,
      "chip": "ym2612"
    },
    {
      "channel": 2,
      "note": 83,
      "start": 8.9409,
      "duration": 0.1,
      "velocity": 113,
      "chip": "ym2612"
    },
    {
      "channel": 4,
      "note": 74,
      "start": 8.9419,
      "duration": 0.2001,
      "velocity": 73,
      "chip": "ym2612"
    },
    {
      "channel": 5,
      "note": 76,
      "start": 8.9749,
      "duration": 0.2832,
      "velocity": 73,
      "chip": "ym2612"
    },
    {
      "channel": 3,
      "note": 83,
      "start": 8.991,
      "duration": 0.0996,
      "velocity": 113,
      "chip": "ym2612"
    },
    {
      "channel": 1,
      "note": 86,
      "start": 9.0407,
      "duration": 0.1,
      "velocity": 113,
      "chip": "ym2612"
    },
    {
      "channel": 3,
      "note": 86,
      "start": 9.0912,
      "duration": 0.0829,
      "velocity": 113,
      "chip": "ym2612"
    },
    {
      "channel": 0,
      "note": 45,
      "start": 9.1405,
      "duration": 0.3666,
      "velocity": 108,
      "chip": "ym2612"
    },
    {
      "channel": 2,
      "note": 77,
      "start": 9.1415,
      "duration": 0.0829,
      "velocity": 113,
      "chip": "ym2612"
    },
    {
      "channel": 4,
      "note": 77,
      "start": 9.1425,
      "duration": 0.0825,
      "velocity": 73,
      "chip": "ym2612"
    },
    {
      "channel": 3,
      "note": 77,
      "start": 9.1746,
      "duration": 0.0996,
      "velocity": 113,
      "chip": "ym2612"
    },
    {
      "channel": 1,
      "note": 78,
      "start": 9.2243,
      "duration": 0.0996,
      "velocity": 113,
      "chip": "ym2612"
    },
    {
      "channel": 4,
      "note": 78,
      "start": 9.2256,
      "duration": 0.0996,
      "velocity": 73,
      "chip": "ym2612"
    },
    {
      "channel": 5,
      "note": 74,
      "start": 9.2586,
      "duration": 0.183,
      "velocity": 73,
      "chip": "ym2612"
    },
    {
      "channel": 3,
      "note": 78,
      "start": 9.2747,
      "duration": 0.0996,
      "velocity": 113,
      "chip": "ym2612"
    },
    {
      "channel": 2,
      "note": 81,
      "start": 9.3247,
      "duration": 0.1,
      "velocity": 113,
      "chip": "ym2612"
    },
    {
      "channel": 4,
      "note": 81,
      "start": 9.3257,
      "duration": 0.0996,
      "velocity": 73,
      "chip": "ym2612"
    },
    {
      "channel": 3,
      "note": 81,
      "start": 9.3749,
      "duration": 0.0996,
      "velocity": 113,
      "chip": "ym2612"
    },
    {
      "channel": 1,
      "note": 83,
      "start": 9.4246,
      "duration": 0.0833,
      "velocity": 113,
      "chip": "ym2612"
    },
    {
      "channel": 4,
      "note": 83,
      "start": 9.4259,
      "duration": 0.0832,
      "velocity": 73,
      "chip": "ym2612"
    },
    {
      "channel": 5,
      "note": 77,
      "start": 9.4422,
      "duration": 0.0996,
      "velocity": 73,
      "chip": "ym2612"
    },
    {
      "channel": 3,
      "note": 83,
      "start": 9.475,
      "duration": 0.0829,
      "velocity": 113,
      "chip": "ym2612"
    },
    {
      "channel": 0,
      "note": 52,
      "start": 9.5077,
      "duration": 0.3833,
      "velocity": 108,
      "chip": "ym2612"
    },
    {
      "channel": 2,
      "note": 81,
      "start": 9.5087,
      "duration": 0.0996,
      "velocity": 113,
      "chip": "ym2612"
    },
    {
      "channel": 4,
      "note": 81,
      "start": 9.5097,
      "duration": 0.0992,
      "velocity": 73,
      "chip": "ym2612"
    },
    {
      "channel": 5,
      "note": 78,
      "start": 9.5423,
      "duration": 0.0996,
      "velocity": 73,
      "chip": "ym2612"
    },
    {
      "channel": 3,
      "note": 81,
      "start": 9.5584,
      "duration": 0.0996,
      "velocity": 113,
      "chip": "ym2612"
    },
    {
      "channel": 1,
      "note": 78,
      "start": 9.6081,
      "duration": 0.0996,
      "velocity": 113,
      "chip": "ym2612"
    },
    {
      "channel": 4,
      "note": 78,
      "start": 9.6094,
      "duration": 0.0996,
      "velocity": 73,
      "chip": "ym2612"
    },
    {
      "channel": 5,
      "note": 81,
      "start": 9.6425,
      "duration": 0.0829,
      "velocity": 73,
      "chip": "ym2612"
    },
    {
      "channel": 3,
      "note": 78,
      "start": 9.6585,
      "duration": 0.0996,
      "velocity": 113,
      "chip": "ym2612"
    },
    {
      "channel": 2,
      "note": 76,
      "start": 9.7085,
      "duration": 0.1838,
      "velocity": 113,
      "chip": "ym2612"
    },
    {
      "channel": 4,
      "note": 76,
      "start": 9.7095,
      "duration": 0.0822,
      "velocity": 73,
      "chip": "ym2612"
    },
    {
      "channel": 5,
      "note": 83,
      "start": 9.7259,
      "duration": 0.0996,
      "velocity": 73,
      "chip": "ym2612"
    },
    {
      "channel": 3,
      "note": 76,
      "start": 9.7587,
      "duration": 0.183,
      "velocity": 113,
      "chip": "ym2612"
    },
    {
      "channel": 4,
      "note": 74,
      "start": 9.7923,
      "duration": 0.1006,
      "velocity": 73,
      "chip": "ym2612"
    },
    {
      "channel": 5,
      "note": 81,
      "start": 9.826,
      "duration": 0.0996,
      "velocity": 73,
      "chip": "ym2612"
    },
    {
      "channel": 0,
      "note": 45,
      "start": 9.8915,
      "duration": 0.3833,
      "velocity": 108,
      "chip": "ym2612"
    },
    {
      "channel": 1,
      "note": 74,
      "start": 9.8922,
      "duration": 0.1993,
      "velocity": 113,
      "chip": "ym2612"
    },
    {
      "channel": 4,
      "note": 77,
      "start": 9.8935,
      "duration": 0.0986,
      "velocity": 73,
      "chip": "ym2612"
    },
    {
      "channel": 5,
      "note": 78,
      "start": 9.9261,
      "duration": 0.0829,
      "velocity": 73,
      "chip": "ym2612"
    },
    {
      "channel": 3,
      "note": 74,
      "start": 9.9422,
      "duration": 0.183,
      "velocity": 113,
      "chip": "ym2612"
    },
    {
      "channel": 4,
      "note": 78,
      "start": 9.9926,
      "duration": 0.1002,
      "velocity": 73,
      "chip": "ym2612"
    },
    {
      "channel": 5,
      "note": 76,
      "start": 10.0096,
      "duration": 0.0996,
      "velocity": 73,
      "chip": "ym2612"
    },
    {
      "channel": 2,
      "note": 69,
      "start": 10.0924,
      "duration": 0.0833,
      "velocity": 113,
      "chip": "ym2612"
    },
    {
      "channel": 4,
      "note": 76,
      "start": 10.0934,
      "duration": 0.0829,
      "velocity": 73,
      "chip": "ym2612"
    },
    {
      "channel": 5,
      "note": 74,
      "start": 10.1097,
      "duration": 0.0996,
      "velocity": 73,
      "chip": "ym2612"
    },
    {
      "channel": 3,
      "note": 69,
      "start": 10.1258,
      "duration": 0.0996,
      "velocity": 113,
      "chip": "ym2612"
    },
    {
      "channel": 1,
      "note": 71,
      "start": 10.1755,
      "duration": 0.1,
      "velocity": 113,
      "chip": "ym2612"
    },
    {
      "channel": 4,
      "note": 77,
      "start": 10.1768,
      "duration": 0.1,
      "velocity": 73,
      "chip": "ym2612"
    },
    {
      "channel": 5,
      "note": 77,
      "start": 10.2099,
      "duration": 0.0829,
      "velocity": 73,
      "chip": "ym2612"
    },
    {
      "channel": 3,
      "note": 71,
      "start": 10.2259,
      "duration": 0.0996,
      "velocity": 113,
      "chip": "ym2612"
    },
    {
      "channel": 0,
      "note": 52,
      "start": 10.2753,
      "duration": 0.3833,
      "velocity": 108,
      "chip": "ym2612"
    },
    {
      "channel": 2,
      "note": 74,
      "start": 10.2763,
      "duration": 0.0996,
      "velocity": 113,
      "chip": "ym2612"
    },
    {
      "channel": 4,
      "note": 78,
      "start": 10.2773,
      "duration": 0.0992,
      "velocity": 73,
      "chip": "ym2612"
    },
    {
      "channel": 5,
      "note": 78,
      "start": 10.2933,
      "duration": 0.0996,
      "velocity": 73,
      "chip": "ym2612"
    },
    {
      "channel": 3,
      "note": 74,
      "start": 10.3261,
      "duration": 0.0829,
      "velocity": 113,
      "chip": "ym2612"
    },
    {
      "channel": 1,
      "note": 76,
      "start": 10.3758,
      "duration": 0.0829,
      "velocity": 113,
      "chip": "ym2612"
    },
    {
      "channel": 4,
      "note": 76,
      "start": 10.3771,
      "duration": 0.0829,
      "velocity": 73,
      "chip": "ym2612"
    },
    {
      "channel": 5,
      "note": 76,
      "start": 10.3934,
      "duration": 0.0996,
      "velocity": 73,
      "chip": "ym2612"
    },
    {
      "channel": 3,
      "note": 76,
      "start": 10.4095,
      "duration": 0.0996,
      "velocity": 113,
      "chip": "ym2612"
    },
    {
      "channel": 2,
      "note": 77,
      "start": 10.4595,
      "duration": 0.1,
      "velocity": 113,
      "chip": "ym2612"
    },
    {
      "channel": 4,
      "note": 77,
      "start": 10.4605,
      "duration": 0.2001,
      "velocity": 73,
      "chip": "ym2612"
    },
    {
      "channel": 5,
      "note": 77,
      "start": 10.4936,
      "duration": 0.0829,
      "velocity": 73,
      "chip": "ym2612"
    },
    {
      "channel": 3,
      "note": 77,
      "start": 10.5096,
      "duration": 0.0996,
      "velocity": 113,
      "chip": "ym2612"
    },
    {
      "channel": 1,
      "note": 78,
      "start": 10.5593,
      "duration": 0.1,
      "velocity": 113,
      "chip": "ym2612"
    },
    {
      "channel": 5,
      "note": 78,
      "start": 10.577,
      "duration": 0.0996,
      "velocity": 73,
      "chip": "ym2612"
    },
    {
      "channel": 3,
      "note": 78,
      "start": 10.6098,
      "duration": 0.0996,
      "velocity": 113,
      "chip": "ym2612"
    },
    {
      "channel": 0,
      "note": 50,
      "start": 10.6592,
      "duration": 0.3666,
      "velocity": 108,
      "chip": "ym2612"
    },
    {
      "channel": 2,
      "note": 74,
      "start": 10.6602,
      "duration": 0.183,
      "velocity": 113,
      "chip": "ym2612"
    },
    {
      "channel": 4,
      "note": 74,
      "start": 10.6612,
      "duration": 1.1346,
      "velocity": 73,
      "chip": "ym2612"
    },
    {
      "channel": 5,
      "note": 76,
      "start": 10.6771,
      "duration": 0.0996,
      "velocity": 73,
      "chip": "ym2612"
    },
    {
      "channel": 3,
      "note": 74,
      "start": 10.7099,
      "duration": 0.183,
      "velocity": 113,
      "chip": "ym2612"
    },
    {
      "channel": 5,
      "note": 77,
      "start": 10.7773,
      "duration": 0.183,
      "velocity": 73,
      "chip": "ym2612"
    },
    {
      "channel": 1,
      "note": 74,
      "start": 10.843,
      "duration": 0.0996,
      "velocity": 113,
      "chip": "ym2612"
    },
    {
      "channel": 3,
      "note": 74,
      "start": 10.8935,
      "duration": 0.0996,
      "velocity": 113,
      "chip": "ym2612"
    },
    {
      "channel": 2,
      "note": 77,
      "start": 10.9434,
      "duration": 0.0837,
      "velocity": 113,
      "chip": "ym2612"
    },
    {
      "channel": 5,
      "note": 74,
      "start": 10.9608,
      "duration": 1.1342,
      "velocity": 73,
      "chip": "ym2612"
    },
    {
      "channel": 3,
      "note": 77,
      "start": 10.9936,
      "duration": 0.0829,
      "velocity": 113,
      "chip": "ym2612"
    },
    {
      "channel": 0,
      "note": 45,
      "start": 11.0263,
      "duration": 0.3833,
      "velocity": 108,
      "chip": "ym2612"
    },
    {
      "channel": 1,
      "note": 78,
      "start": 11.027,
      "duration": 0.0992,
      "velocity": 113,
      "chip": "ym2612"
    },
    {
      "channel": 3,
      "note": 78,
      "start": 11.077,
      "duration": 0.0996,
      "velocity": 113,
      "chip": "ym2612"
    },
    {
      "channel": 2,
      "note": 74,
      "start": 11.127,
      "duration": 0.1,
      "velocity": 113,
      "chip": "ym2612"
    },
    {
      "channel": 3,
      "note": 74,
      "start": 11.1772,
      "duration": 0.0996,
      "velocity": 113,
      "chip": "ym2612"
    },
    {
      "channel": 1,
      "note": 71,
      "start": 11.2269,
      "duration": 0.1834,
      "velocity": 113,
      "chip": "ym2612"
    },
    {
      "channel": 3,
      "note": 71,
      "start": 11.2773,
      "duration": 0.1832,
      "velocity": 113,
      "chip": "ym2612"
    },
    {
      "channel": 0,
      "note": 50,
      "start": 11.4101,
      "duration": 0.3833,
      "velocity": 108,
      "chip": "ym2612"
    },
    {
      "channel": 1,
      "note": 74,
      "start": 11.4108,
      "duration": 0.1993,
      "velocity": 113,
      "chip": "ym2612"
    },
    {
      "channel": 2,
      "note": 74,
      "start": 11.4115,
      "duration": 0.1993,
      "velocity": 113,
      "chip": "ym2612"
    },
    {
      "channel": 3,
      "note": 74,
      "start": 11.4611,
      "duration": 0.183,
      "velocity": 113,
      "chip": "ym2612"
    },
    {
      "channel": 1,
      "note": 74,
      "start": 11.6107,
      "duration": 0.1834,
      "velocity": 113,
      "chip": "ym2612"
    },
    {
      "channel": 2,
      "note": 78,
      "start": 11.6114,
      "duration": 0.1834,
      "velocity": 113,
      "chip": "ym2612"
    },
    {
      "channel": 3,
      "note": 78,
      "start": 11.6447,
      "duration": 0.1997,
      "velocity": 113,
      "chip": "ym2612"
    },
    {
      "channel": 0,
      "note": 45,
      "start": 11.7939,
      "duration": 0.3834,
      "velocity": 108,
      "chip": "ym2612"
    },
    {
      "channel": 1,
      "note": 69,
      "start": 11.7946,
      "duration": 0.1827,
      "velocity": 113,
      "chip": "ym2612"
    },
    {
      "channel": 2,
      "note": 69,
      "start": 11.7953,
      "duration": 0.1827,
      "velocity": 113,
      "chip": "ym2612"
    },
    {
      "channel": 3,
      "note": 69,
      "start": 11.8449,
      "duration": 0.183,
      "velocity": 113,
      "chip": "ym2612"
    },
    {
      "channel": 1,
      "note": 74,
      "start": 11.9778,
      "duration": 0.2007,
      "velocity": 113,
      "chip": "ym2612"
    },
    {
      "channel": 2,
      "note": 78,
      "start": 11.9785,
      "duration": 0.2013,
      "velocity": 113,
      "chip": "ym2612"
    },
    {
      "channel": 3,
      "note": 78,
      "start": 12.0285,
      "duration": 0.2008,
      "velocity": 113,
      "chip": "ym2612"
    },
    {
      "channel": 0,
      "note": 50,
      "start": 12.1778,
      "duration": 0.3666,
      "velocity": 108,
      "chip": "ym2612"
    },
    {
      "channel": 1,
      "note": 81,
      "start": 12.1791,
      "duration": 0.0819,
      "velocity": 113,
      "chip": "ym2612"
    },
    {
      "channel": 3,
      "note": 81,
      "start": 12.2299,
      "duration": 0.0821,
      "velocity": 113,
      "chip": "ym2612"
    },
    {
      "channel": 2,
      "note": 69,
      "start": 12.2618,
      "duration": 0.0499,
      "velocity": 113,
      "chip": "ym2612"
    },
    {
      "channel": 1,
      "note": 74,
      "start": 12.3116,
      "duration": 0.0495,
      "velocity": 113,
      "chip": "ym2612"
    },
    {
      "channel": 3,
      "note": 69,
      "start": 12.3126,
      "duration": 0.0495,
      "velocity": 113,
      "chip": "ym2612"
    },
    {
      "channel": 2,
      "note": 78,
      "start": 12.362,
      "duration": 0.1,
      "velocity": 113,
      "chip": "ym2612"
    },
    {
      "channel": 3,
      "note": 74,
      "start": 12.3627,
      "duration": 0.0489,
      "velocity": 113,
      "chip": "ym2612"
    },
    {
      "channel": 3,
      "note": 78,
      "start": 12.4121,
      "duration": 0.0996,
      "velocity": 113,
      "chip": "ym2612"
    },
    {
      "channel": 1,
      "note": 81,
      "start": 12.4618,
      "duration": 0.0833,
      "velocity": 113,
      "chip": "ym2612"
    },
    {
      "channel": 3,
      "note": 81,
      "start": 12.5122,
      "duration": 0.0829,
      "velocity": 113,
      "chip": "ym2612"
    },
    {
      "channel": 0,
      "note": 45,
      "start": 12.5449,
      "duration": 0.3834,
      "velocity": 108,
      "chip": "ym2612"
    },
    {
      "channel": 2,
      "note": 83,
      "start": 12.5459,
      "duration": 0.0996,
      "velocity": 113,
      "chip": "ym2612"
    },
    {
      "channel": 3,
      "note": 83,
      "start": 12.5957,
      "duration": 0.0996,
      "velocity": 113,
      "chip": "ym2612"
    },
    {
      "channel": 1,
      "note": 81,
      "start": 12.6454,
      "duration": 0.0996,
      "velocity": 113,
      "chip": "ym2612"
    },
    {
      "channel": 3,
      "note": 81,
      "start": 12.6958,
      "duration": 0.0996,
      "velocity": 113,
      "chip": "ym2612"
    },
    {
      "channel": 2,
      "note": 78,
      "start": 12.7458,
      "duration": 0.1,
      "velocity": 113,
      "chip": "ym2612"
    },
    {
      "channel": 3,
      "note": 78,
      "start": 12.7959,
      "duration": 0.0829,
      "velocity": 113,
      "chip": "ym2612"
    },
    {
      "channel": 1,
      "note": 76,
      "start": 12.8456,
      "duration": 0.0834,
      "velocity": 113,
      "chip": "ym2612"
    },
    {
      "channel": 3,
      "note": 76,
      "start": 12.8794,
      "duration": 0.0996,
      "velocity": 113,
      "chip": "ym2612"
    },
    {
      "channel": 0,
      "note": 50,
      "start": 12.9288,
      "duration": 0.3832,
      "velocity": 108,
      "chip": "ym2612"
    },
    {
      "channel": 2,
      "note": 74,
      "start": 12.9298,
      "duration": 0.1996,
      "velocity": 113,
      "chip": "ym2612"
    },
    {
      "channel": 4,
      "note": 74,
      "start": 12.9307,
      "duration": 0.1994,
      "velocity": 73,
      "chip": "ym2612"
    },
    {
      "channel": 3,
      "note": 74,
      "start": 12.9795,
      "duration": 0.183,
      "velocity": 113,
      "chip": "ym2612"
    },
    {
      "channel": 1,
      "note": 69,
      "start": 13.1293,
      "duration": 0.0829,
      "velocity": 113,
      "chip": "ym2612"
    },
    {
      "channel": 4,
      "note": 81,
      "start": 13.1306,
      "duration": 0.1834,
      "velocity": 73,
      "chip": "ym2612"
    },
    {
      "channel": 3,
      "note": 69,
      "start": 13.1631,
      "duration": 0.0996,
      "velocity": 113,
      "chip": "ym2612"
    },
    {
      "channel": 2,
      "note": 71,
      "start": 13.213,
      "duration": 0.1004,
      "velocity": 113,
      "chip": "ym2612"
    },
    {
      "channel": 5,
      "note": 74,
      "start": 13.2469,
      "duration": 0.1832,
      "velocity": 73,
      "chip": "ym2612"
    },
    {
      "channel": 3,
      "note": 71,
      "start": 13.2632,
      "duration": 0.0996,
      "velocity": 113,
      "chip": "ym2612"
    },
    {
      "channel": 0,
      "note": 45,
      "start": 13.3126,
      "duration": 0.3834,
      "velocity": 108,
      "chip": "ym2612"
    },
    {
      "channel": 1,
      "note": 74,
      "start": 13.3132,
      "duration": 0.0992,
      "velocity": 113,
      "chip": "ym2612"
    },
    {
      "channel": 4,
      "note": 80,
      "start": 13.3145,
      "duration": 0.1827,
      "velocity": 73,
      "chip": "ym2612"
    },
    {
      "channel": 3,
      "note": 74,
      "start": 13.3633,
      "duration": 0.0829,
      "velocity": 113,
      "chip": "ym2612"
    },
    {
      "channel": 2,
      "note": 76,
      "start": 13.4133,
      "duration": 0.0833,
      "velocity": 113,
      "chip": "ym2612"
    },
    {
      "channel": 5,
      "note": 81,
      "start": 13.4307,
      "duration": 0.183,
      "velocity": 73,
      "chip": "ym2612"
    },
    {
      "channel": 3,
      "note": 76,
      "start": 13.4468,
      "duration": 0.0996,
      "velocity": 113,
      "chip": "ym2612"
    },
    {
      "channel": 1,
      "note": 77,
      "start": 13.4965,
      "duration": 0.0996,
      "velocity": 113,
      "chip": "ym2612"
    },
    {
      "channel": 4,
      "note": 79,
      "start": 13.4977,
      "duration": 0.2002,
      "velocity": 73,
      "chip": "ym2612"
    },
    {
      "channel": 3,
      "note": 77,
      "start": 13.5469,
      "duration": 0.0996,
      "velocity": 113,
      "chip": "ym2612"
    },
    {
      "channel": 2,
      "note": 78,
      "start": 13.5969,
      "duration": 0.1005,
      "velocity": 113,
      "chip": "ym2612"
    },
    {
      "channel": 5,
      "note": 80,
      "start": 13.6142,
      "duration": 0.1997,
      "velocity": 73,
      "chip": "ym2612"
    },
    {
      "channel": 3,
      "note": 78,
      "start": 13.647,
      "duration": 0.0996,
      "velocity": 113,
      "chip": "ym2612"
    },
    {
      "channel": 0,
      "note": 50,
      "start": 13.6965,
      "duration": 0.3665,
      "velocity": 108,
      "chip": "ym2612"
    },
    {
      "channel": 1,
      "note": 74,
      "start": 13.6972,
      "duration": 0.1825,
      "velocity": 113,
      "chip": "ym2612"
    },
    {
      "channel": 4,
      "note": 78,
      "start": 13.6985,
      "duration": 1.1345,
      "velocity": 73,
      "chip": "ym2612"
    },
    {
      "channel": 3,
      "note": 74,
      "start": 13.7471,
      "duration": 0.183,
      "velocity": 113,
      "chip": "ym2612"
    },
    {
      "channel": 5,
      "note": 79,
      "start": 13.8145,
      "duration": 0.183,
      "velocity": 73,
      "chip": "ym2612"
    },
    {
      "channel": 2,
      "note": 74,
      "start": 13.8806,
      "duration": 0.1,
      "velocity": 113,
      "chip": "ym2612"
    },
    {
      "channel": 3,
      "note": 74,
      "start": 13.9307,
      "duration": 0.0996,
      "velocity": 113,
      "chip": "ym2612"
    },
    {
      "channel": 1,
      "note": 77,
      "start": 13.9804,
      "duration": 0.0833,
      "velocity": 113,
      "chip": "ym2612"
    },
    {
      "channel": 5,
      "note": 78,
      "start": 13.9981,
      "duration": 1.1342,
      "velocity": 73,
      "chip": "ym2612"
    },
    {
      "channel": 3,
      "note": 77,
      "start": 14.0308,
      "duration": 0.0829,
      "velocity": 113,
      "chip": "ym2612"
    },
    {
      "channel": 0,
      "note": 45,
      "start": 14.0635,
      "duration": 0.3834,
      "velocity": 108,
      "chip": "ym2612"
    },
    {
      "channel": 2,
      "note": 78,
      "start": 14.0645,
      "duration": 0.0996,
      "velocity": 113,
      "chip": "ym2612"
    },
    {
      "channel": 3,
      "note": 78,
      "start": 14.1143,
      "duration": 0.0996,
      "velocity": 113,
      "chip": "ym2612"
    },
    {
      "channel": 1,
      "note": 74,
      "start": 14.164,
      "duration": 0.0996,
      "velocity": 113,
      "chip": "ym2612"
    },
    {
      "channel": 3,
      "note": 74,
      "start": 14.2144,
      "duration": 0.0996,
      "velocity": 113,
      "chip": "ym2612"
    },
    {
      "channel": 2,
      "note": 71,
      "start": 14.2644,
      "duration": 0.1839,
      "velocity": 113,
      "chip": "ym2612"
    },
    {
      "channel": 3,
      "note": 71,
      "start": 14.3146,
      "duration": 0.1832,
      "velocity": 113,
      "chip": "ym2612"
    },
    {
      "channel": 0,
      "note": 50,
      "start": 14.4475,
      "duration": 0.3832,
      "velocity": 108,
      "chip": "ym2612"
    },
    {
      "channel": 1,
      "note": 74,
      "start": 14.4482,
      "duration": 0.1992,
      "velocity": 113,
      "chip": "ym2612"
    },
    {
      "channel": 2,
      "note": 74,
      "start": 14.4488,
      "duration": 0.1992,
      "velocity": 113,
      "chip": "ym2612"
    },
    {
      "channel": 3,
      "note": 74,
      "start": 14.4983,
      "duration": 0.183,
      "velocity": 113,
      "chip": "ym2612"
    },
    {
      "channel": 1,
      "note": 74,
      "start": 14.6479,
      "duration": 0.1834,
      "velocity": 113,
      "chip": "ym2612"
    },
    {
      "channel": 2,
      "note": 78,
      "start": 14.6486,
      "duration": 0.1834,
      "velocity": 113,
      "chip": "ym2612"
    },
    {
      "channel": 3,
      "note": 78,
      "start": 14.6819,
      "duration": 0.1997,
      "velocity": 113,
      "chip": "ym2612"
    },
    {
      "channel": 0,
      "note": 45,
      "start": 14.8312,
      "duration": 0.3834,
      "velocity": 108,
      "chip": "ym2612"
    },
    {
      "channel": 1,
      "note": 69,
      "start": 14.8319,
      "duration": 0.1827,
      "velocity": 113,
      "chip": "ym2612"
    },
    {
      "channel": 2,
      "note": 69,
      "start": 14.8326,
      "duration": 0.1827,
      "velocity": 113,
      "chip": "ym2612"
    },
    {
      "channel": 3,
      "note": 69,
      "start": 14.8822,
      "duration": 0.183,
      "velocity": 113,
      "chip": "ym2612"
    },
    {
      "channel": 1,
      "note": 74,
      "start": 15.0151,
      "duration": 0.2002,
      "velocity": 113,
      "chip": "ym2612"
    },
    {
      "channel": 2,
      "note": 78,
      "start": 15.0158,
      "duration": 0.2002,
      "velocity": 113,
      "chip": "ym2612"
    },
    {
      "channel": 3,
      "note": 78,
      "start": 15.0657,
      "duration": 0.1995,
      "velocity": 113,
      "chip": "ym2612"
    },
    {
      "channel": 0,
      "note": 50,
      "start": 15.2151,
      "duration": 0.3665,
      "velocity": 108,
      "chip": "ym2612"
    },
    {
      "channel": 1,
      "note": 81,
      "start": 15.2158,
      "duration": 0.0824,
      "velocity": 113,
      "chip": "ym2612"
    },
    {
      "channel": 3,
      "note": 81,
      "start": 15.2658,
      "duration": 0.0835,
      "velocity": 113,
      "chip": "ym2612"
    },
    {
      "channel": 2,
      "note": 69,
      "start": 15.2991,
      "duration": 0.0499,
      "velocity": 113,
      "chip": "ym2612"
    },
    {
      "channel": 1,
      "note": 74,
      "start": 15.3488,
      "duration": 0.0495,
      "velocity": 113,
      "chip": "ym2612"
    },
    {
      "channel": 3,
      "note": 69,
      "start": 15.3498,
      "duration": 0.0495,
      "velocity": 113,
      "chip": "ym2612"
    },
    {
      "channel": 2,
      "note": 78,
      "start": 15.3992,
      "duration": 0.1,
      "velocity": 113,
      "chip": "ym2612"
    },
    {
      "channel": 3,
      "note": 74,
      "start": 15.3999,
      "duration": 0.0489,
      "velocity": 113,
      "chip": "ym2612"
    },
    {
      "channel": 3,
      "note": 78,
      "start": 15.4493,
      "duration": 0.0996,
      "velocity": 113,
      "chip": "ym2612"
    },
    {
      "channel": 1,
      "note": 81,
      "start": 15.499,
      "duration": 0.0832,
      "velocity": 113,
      "chip": "ym2612"
    },
    {
      "channel": 3,
      "note": 81,
      "start": 15.5495,
      "duration": 0.0829,
      "velocity": 113,
      "chip": "ym2612"
    },
    {
      "channel": 0,
      "note": 45,
      "start": 15.5822,
      "duration": 0.3833,
      "velocity": 108,
      "chip": "ym2612"
    },
    {
      "channel": 2,
      "note": 83,
      "start": 15.5831,
      "duration": 0.0996,
      "velocity": 113,
      "chip": "ym2612"
    },
    {
      "channel": 3,
      "note": 83,
      "start": 15.6329,
      "duration": 0.0995,
      "velocity": 113,
      "chip": "ym2612"
    },
    {
      "channel": 1,
      "note": 81,
      "start": 15.6826,
      "duration": 0.0996,
      "velocity": 113,
      "chip": "ym2612"
    },
    {
      "channel": 3,
      "note": 81,
      "start": 15.733,
      "duration": 0.0996,
      "velocity": 113,
      "chip": "ym2612"
    },
    {
      "channel": 2,
      "note": 78,
      "start": 15.783,
      "duration": 0.1,
      "velocity": 113,
      "chip": "ym2612"
    },
    {
      "channel": 3,
      "note": 78,
      "start": 15.8332,
      "duration": 0.0829,
      "velocity": 113,
      "chip": "ym2612"
    },
    {
      "channel": 1,
      "note": 76,
      "start": 15.8829,
      "duration": 0.0833,
      "velocity": 113,
      "chip": "ym2612"
    },
    {
      "channel": 3,
      "note": 76,
      "start": 15.9166,
      "duration": 0.0996,
      "velocity": 113,
      "chip": "ym2612"
    },
    {
      "channel": 0,
      "note": 50,
      "start": 15.966,
      "duration": 0.3833,
      "velocity": 108,
      "chip": "ym2612"
    },
    {
      "channel": 2,
      "note": 74,
      "start": 15.967,
      "duration": 0.1998,
      "velocity": 113,
      "chip": "ym2612"
    },
    {
      "channel": 4,
      "note": 78,
      "start": 15.9678,
      "duration": 0.1995,
      "velocity": 73,
      "chip": "ym2612"
    },
    {
      "channel": 3,
      "note": 74,
      "start": 16.0167,
      "duration": 0.183,
      "velocity": 113,
      "chip": "ym2612"
    },
    {
      "channel": 1,
      "note": 74,
      "start": 16.1666,
      "duration": 0.0829,
      "velocity": 113,
      "chip": "ym2612"
    },
    {
      "channel": 4,
      "note": 78,
      "start": 16.1678,
      "duration": 0.1834,
      "velocity": 73,
      "chip": "ym2612"
    },
    {
      "channel": 3,
      "note": 74,
      "start": 16.2003,
      "duration": 0.0996,
      "velocity": 113,
      "chip": "ym2612"
    },
    {
      "channel": 2,
      "note": 77,
      "start": 16.2503,
      "duration": 0.1003,
      "velocity": 113,
      "chip": "ym2612"
    },
    {
      "channel": 5,
      "note": 78,
      "start": 16.2842,
      "duration": 0.1832,
      "velocity": 73,
      "chip": "ym2612"
    },
    {
      "channel": 3,
      "note": 77,
      "start": 16.3004,
      "duration": 0.0996,
      "velocity": 113,
      "chip": "ym2612"
    },
    {
      "channel": 0,
      "note": 50,
      "start": 16.3498,
      "duration": 0.3833,
      "velocity": 108,
      "chip": "ym2612"
    },
    {
      "channel": 1,
      "note": 78,
      "start": 16.3505,
      "duration": 0.0992,
      "velocity": 113,
      "chip": "ym2612"
    },
    {
      "channel": 4,
      "note": 79,
      "start": 16.3518,
      "duration": 0.1827,
      "velocity": 73,
      "chip": "ym2612"
    },
    {
      "channel": 3,
      "note": 78,
      "start": 16.4006,
      "duration": 0.0996,
      "velocity": 113,
      "chip": "ym2612"
    },
    {
      "channel": 2,
      "note": 74,
      "start": 16.4505,
      "duration": 0.0833,
      "velocity": 113,
      "chip": "ym2612"
    },
    {
      "channel": 5,
      "note": 78,
      "start": 16.4679,
      "duration": 0.183,
      "velocity": 73,
      "chip": "ym2612"
    },
    {
      "channel": 3,
      "note": 74,
      "start": 16.5007,
      "duration": 0.0829,
      "velocity": 113,
      "chip": "ym2612"
    },
    {
      "channel": 1,
      "note": 71,
      "start": 16.5337,
      "duration": 0.2001,
      "velocity": 113,
      "chip": "ym2612"
    },
    {
      "channel": 4,
      "note": 80,
      "start": 16.535,
      "duration": 0.2001,
      "velocity": 73,
      "chip": "ym2612"
    },
    {
      "channel": 3,
      "note": 71,
      "start": 16.5841,
      "duration": 0.1997,
      "velocity": 113,
      "chip": "ym2612"
    },
    {
      "channel": 5,
      "note": 79,
      "start": 16.6515,
      "duration": 0.1997,
      "velocity": 73,
      "chip": "ym2612"
    },
    {
      "channel": 0,
      "note": 45,
      "start": 16.7337,
      "duration": 0.3833,
      "velocity": 108,
      "chip": "ym2612"
    },
    {
      "channel": 2,
      "note": 69,
      "start": 16.7346,
      "duration": 0.183,
      "velocity": 113,
      "chip": "ym2612"
    },
    {
      "channel": 4,
      "note": 81,
      "start": 16.7356,
      "duration": 1.518,
      "velocity": 73,
      "chip": "ym2612"
    },
    {
      "channel": 3,
      "note": 69,
      "start": 16.7844,
      "duration": 0.183,
      "velocity": 113,
      "chip": "ym2612"
    },
    {
      "channel": 5,
      "note": 80,
      "start": 16.8517,
      "duration": 0.183,
      "velocity": 73,
      "chip": "ym2612"
    },
    {
      "channel": 1,
      "note": 80,
      "start": 16.9175,
      "duration": 0.0996,
      "velocity": 113,
      "chip": "ym2612"
    },
    {
      "channel": 3,
      "note": 80,
      "start": 16.968,
      "duration": 0.0996,
      "velocity": 113,
      "chip": "ym2612"
    },
    {
      "channel": 2,
      "note": 81,
      "start": 17.018,
      "duration": 0.1003,
      "velocity": 113,
      "chip": "ym2612"
    },
    {
      "channel": 5,
      "note": 81,
      "start": 17.0353,
      "duration": 1.518,
      "velocity": 73,
      "chip": "ym2612"
    },
    {
      "channel": 3,
      "note": 81,
      "start": 17.0681,
      "duration": 0.0829,
      "velocity": 113,
      "chip": "ym2612"
    },
    {
      "channel": 0,
      "note": 52,
      "start": 17.1175,
      "duration": 0.3666,
      "velocity": 108,
      "chip": "ym2612"
    },
    {
      "channel": 1,
      "note": 86,
      "start": 17.1182,
      "duration": 0.0825,
      "velocity": 113,
      "chip": "ym2612"
    },
    {
      "channel": 3,
      "note": 86,
      "start": 17.1515,
      "duration": 0.0996,
      "velocity": 113,
      "chip": "ym2612"
    },
    {
      "channel": 2,
      "note": 80,
      "start": 17.2015,
      "duration": 0.1,
      "velocity": 113,
      "chip": "ym2612"
    },
    {
      "channel": 3,
      "note": 80,
      "start": 17.2517,
      "duration": 0.0996,
      "velocity": 113,
      "chip": "ym2612"
    },
    {
      "channel": 1,
      "note": 81,
      "start": 17.3014,
      "duration": 0.0996,
      "velocity": 113,
      "chip": "ym2612"
    },
    {
      "channel": 3,
      "note": 81,
      "start": 17.3518,
      "duration": 0.0829,
      "velocity": 113,
      "chip": "ym2612"
    },
    {
      "channel": 2,
      "note": 86,
      "start": 17.4018,
      "duration": 0.0837,
      "velocity": 113,
      "chip": "ym2612"
    },
    {
      "channel": 3,
      "note": 86,
      "start": 17.4352,
      "duration": 0.0996,
      "velocity": 113,
      "chip": "ym2612"
    },
    {
      "channel": 0,
      "note": 45,
      "start": 17.4846,
      "duration": 0.1998,
      "velocity": 108,
      "chip": "ym2612"
    },
    {
      "channel": 1,
      "note": 80,
      "start": 17.4853,
      "duration": 0.0992,
      "velocity": 113,
      "chip": "ym2612"
    },
    {
      "channel": 3,
      "note": 80,
      "start": 17.5354,
      "duration": 0.0996,
      "velocity": 113,
      "chip": "ym2612"
    },
    {
      "channel": 2,
      "note": 81,
      "start": 17.5854,
      "duration": 0.1003,
      "velocity": 113,
      "chip": "ym2612"
    },
    {
      "channel": 3,
      "note": 81,
      "start": 17.6355,
      "duration": 0.0829,
      "velocity": 113,
      "chip": "ym2612"
    },
    {
      "channel": 0,
      "note": 45,
      "start": 17.6849,
      "duration": 0.183,
      "velocity": 108,
      "chip": "ym2612"
    },
    {
      "channel": 1,
      "note": 80,
      "start": 17.6856,
      "duration": 0.0825,
      "velocity": 113,
      "chip": "ym2612"
    },
    {
      "channel": 3,
      "note": 80,
      "start": 17.7189,
      "duration": 0.0996,
      "velocity": 113,
      "chip": "ym2612"
    },
    {
      "channel": 2,
      "note": 81,
      "start": 17.7689,
      "duration": 0.1004,
      "velocity": 113,
      "chip": "ym2612"
    },
    {
      "channel": 3,
      "note": 81,
      "start": 17.8191,
      "duration": 0.0996,
      "velocity": 113,
      "chip": "ym2612"
    },
    {
      "channel": 0,
      "note": 47,
      "start": 17.8684,
      "duration": 0.183,
      "velocity": 108,
      "chip": "ym2612"
    },
    {
      "channel": 1,
      "note": 86,
      "start": 17.8691,
      "duration": 0.0992,
      "velocity": 113,
      "chip": "ym2612"
    },
    {
      "channel": 3,
      "note": 86,
      "start": 17.9192,
      "duration": 0.0996,
      "velocity": 113,
      "chip": "ym2612"
    },
    {
      "channel": 2,
      "note": 81,
      "start": 17.9692,
      "duration": 0.0837,
      "velocity": 113,
      "chip": "ym2612"
    },
    {
      "channel": 3,
      "note": 81,
      "start": 18.0193,
      "duration": 0.0829,
      "velocity": 113,
      "chip": "ym2612"
    },
    {
      "channel": 0,
      "note": 49,
      "start": 18.052,
      "duration": 0.1998,
      "velocity": 108,
      "chip": "ym2612"
    },
    {
      "channel": 1,
      "note": 78,
      "start": 18.0527,
      "duration": 0.0992,
      "velocity": 113,
      "chip": "ym2612"
    },
    {
      "channel": 3,
      "note": 78,
      "start": 18.1027,
      "duration": 0.0996,
      "velocity": 113,
      "chip": "ym2612"
    },
    {
      "channel": 2,
      "note": 76,
      "start": 18.1527,
      "duration": 0.1004,
      "velocity": 113,
      "chip": "ym2612"
    },
    {
      "channel": 3,
      "note": 76,
      "start": 18.2029,
      "duration": 0.0996,
      "velocity": 113,
      "chip": "ym2612"
    },
    {
      "channel": 0,
      "note": 50,
      "start": 18.2523,
      "duration": 0.3833,
      "velocity": 108,
      "chip": "ym2612"
    },
    {
      "channel": 1,
      "note": 74,
      "start": 18.253,
      "duration": 0.0825,
      "velocity": 113,
      "chip": "ym2612"
    },
    {
      "channel": 4,
      "note": 81,
      "start": 18.2543,
      "duration": 0.0825,
      "velocity": 73,
      "chip": "ym2612"
    },
    {
      "channel": 3,
      "note": 74,
      "start": 18.303,
      "duration": 0.0835,
      "velocity": 113,
      "chip": "ym2612"
    },
    {
      "channel": 2,
      "note": 78,
      "start": 18.3363,
      "duration": 0.0499,
      "velocity": 113,
      "chip": "ym2612"
    },
    {
      "channel": 4,
      "note": 78,
      "start": 18.3373,
      "duration": 0.1,
      "velocity": 73,
      "chip": "ym2612"
    },
    {
      "channel": 1,
      "note": 81,
      "start": 18.3861,
      "duration": 0.0495,
      "velocity": 113,
      "chip": "ym2612"
    },
    {
      "channel": 3,
      "note": 78,
      "start": 18.3871,
      "duration": 0.0495,
      "velocity": 113,
      "chip": "ym2612"
    },
    {
      "channel": 2,
      "note": 69,
      "start": 18.4364,
      "duration": 0.1,
      "velocity": 113,
      "chip": "ym2612"
    },
    {
      "channel": 3,
      "note": 81,
      "start": 18.4371,
      "duration": 0.0489,
      "velocity": 113,
      "chip": "ym2612"
    },
    {
      "channel": 4,
      "note": 74,
      "start": 18.4378,
      "duration": 0.0992,
      "velocity": 73,
      "chip": "ym2612"
    },
    {
      "channel": 3,
      "note": 69,
      "start": 18.4866,
      "duration": 0.0996,
      "velocity": 113,
      "chip": "ym2612"
    },
    {
      "channel": 1,
      "note": 74,
      "start": 18.5363,
      "duration": 0.1,
      "velocity": 113,
      "chip": "ym2612"
    },
    {
      "channel": 4,
      "note": 71,
      "start": 18.5376,
      "duration": 0.1,
      "velocity": 73,
      "chip": "ym2612"
    },
    {
      "channel": 5,
      "note": 81,
      "start": 18.5539,
      "duration": 0.0996,
      "velocity": 73,
      "chip": "ym2612"
    },
    {
      "channel": 3,
      "note": 74,
      "start": 18.5867,
      "duration": 0.0829,
      "velocity": 113,
      "chip": "ym2612"
    },
    {
      "channel": 0,
      "note": 45,
      "start": 18.6361,
      "duration": 0.3666,
      "velocity": 108,
      "chip": "ym2612"
    },
    {
      "channel": 2,
      "note": 78,
      "start": 18.6371,
      "duration": 0.0829,
      "velocity": 113,
      "chip": "ym2612"
    },
    {
      "channel": 4,
      "note": 69,
      "start": 18.638,
      "duration": 0.0825,
      "velocity": 73,
      "chip": "ym2612"
    },
    {
      "channel": 5,
      "note": 78,
      "start": 18.6541,
      "duration": 0.0996,
      "velocity": 73,
      "chip": "ym2612"
    },
    {
      "channel": 3,
      "note": 78,
      "start": 18.6702,
      "duration": 0.0996,
      "velocity": 113,
      "chip": "ym2612"
    },
    {
      "channel": 1,
      "note": 81,
      "start": 18.7198,
      "duration": 0.0996,
      "velocity": 113,
      "chip": "ym2612"
    },
    {
      "channel": 4,
      "note": 71,
      "start": 18.7211,
      "duration": 0.0996,
      "velocity": 73,
      "chip": "ym2612"
    },
    {
      "channel": 5,
      "note": 74,
      "start": 18.7542,
      "duration": 0.0829,
      "velocity": 73,
      "chip": "ym2612"
    },
    {
      "channel": 3,
      "note": 81,
      "start": 18.7703,
      "duration": 0.0996,
      "velocity": 113,
      "chip": "ym2612"
    },
    {
      "channel": 2,
      "note": 74,
      "start": 18.8202,
      "duration": 0.1,
      "velocity": 113,
      "chip": "ym2612"
    },
    {
      "channel": 4,
      "note": 74,
      "start": 18.8212,
      "duration": 0.0996,
      "velocity": 73,
      "chip": "ym2612"
    },
    {
      "channel": 5,
      "note": 71,
      "start": 18.8376,
      "duration": 0.0996,
      "velocity": 73,
      "chip": "ym2612"
    },
    {
      "channel": 3,
      "note": 74,
      "start": 18.8704,
      "duration": 0.0829,
      "velocity": 113,
      "chip": "ym2612"
    },
    {
      "channel": 1,
      "note": 77,
      "start": 18.9201,
      "duration": 0.0833,
      "velocity": 113,
      "chip": "ym2612"
    },
    {
      "channel": 4,
      "note": 78,
      "start": 18.9214,
      "duration": 0.0833,
      "velocity": 73,
      "chip": "ym2612"
    },
    {
      "channel": 5,
      "note": 69,
      "start": 18.9378,
      "duration": 0.0996,
      "velocity": 73,
      "chip": "ym2612"
    },
    {
      "channel": 3,
      "note": 77,
      "start": 18.9538,
      "duration": 0.0996,
      "velocity": 113,
      "chip": "ym2612"
    },
    {
      "channel": 0,
      "note": 50,
      "start": 19.0032,
      "duration": 0.3833,
      "velocity": 108,
      "chip": "ym2612"
    },
    {
      "channel": 2,
      "note": 78,
      "start": 19.0042,
      "duration": 0.0996,
      "velocity": 113,
      "chip": "ym2612"
    },
    {
      "channel": 4,
      "note": 81,
      "start": 19.0052,
      "duration": 0.0992,
      "velocity": 73,
      "chip": "ym2612"
    },
    {
      "channel": 5,
      "note": 71,
      "start": 19.0379,
      "duration": 0.0829,
      "velocity": 73,
      "chip": "ym2612"
    },
    {
      "channel": 3,
      "note": 78,
      "start": 19.054,
      "duration": 0.0996,
      "velocity": 113,
      "chip": "ym2612"
    },
    {
      "channel": 1,
      "note": 81,
      "start": 19.1037,
      "duration": 0.0996,
      "velocity": 113,
      "chip": "ym2612"
    },
    {
      "channel": 4,
      "note": 84,
      "start": 19.105,
      "duration": 0.0996,
      "velocity": 73,
      "chip": "ym2612"
    },
    {
      "channel": 5,
      "note": 74,
      "start": 19.1213,
      "duration": 0.0996,
      "velocity": 73,
      "chip": "ym2612"
    },
    {
      "channel": 3,
      "note": 81,
      "start": 19.1541,
      "duration": 0.0996,
      "velocity": 113,
      "chip": "ym2612"
    },
    {
      "channel": 2,
      "note": 86,
      "start": 19.2041,
      "duration": 0.0833,
      "velocity": 113,
      "chip": "ym2612"
    },
    {
      "channel": 4,
      "note": 83,
      "start": 19.2051,
      "duration": 0.0829,
      "velocity": 73,
      "chip": "ym2612"
    },
    {
      "channel": 5,
      "note": 78,
      "start": 19.2215,
      "duration": 0.0996,
      "velocity": 73,
      "chip": "ym2612"
    },
    {
      "channel": 3,
      "note": 86,
      "start": 19.2542,
      "duration": 0.0829,
      "velocity": 113,
      "chip": "ym2612"
    },
    {
      "channel": 1,
      "note": 78,
      "start": 19.2872,
      "duration": 0.1,
      "velocity": 113,
      "chip": "ym2612"
    },
    {
      "channel": 4,
      "note": 81,
      "start": 19.2885,
      "duration": 0.1,
      "velocity": 73,
      "chip": "ym2612"
    },
    {
      "channel": 5,
      "note": 81,
      "start": 19.3216,
      "duration": 0.0829,
      "velocity": 73,
      "chip": "ym2612"
    },
    {
      "channel": 3,
      "note": 78,
      "start": 19.3377,
      "duration": 0.0996,
      "velocity": 113,
      "chip": "ym2612"
    },
    {
      "channel": 0,
      "note": 50,
      "start": 19.3871,
      "duration": 0.3833,
      "velocity": 108,
      "chip": "ym2612"
    },
    {
      "channel": 2,
      "note": 81,
      "start": 19.388,
      "duration": 0.0996,
      "velocity": 113,
      "chip": "ym2612"
    },
    {
      "channel": 4,
      "note": 83,
      "start": 19.389,
      "duration": 0.0992,
      "velocity": 73,
      "chip": "ym2612"
    },
    {
      "channel": 5,
      "note": 84,
      "start": 19.405,
      "duration": 0.0996,
      "velocity": 73,
      "chip": "ym2612"
    },
    {
      "channel": 3,
      "note": 81,
      "start": 19.4378,
      "duration": 0.0996,
      "velocity": 113,
      "chip": "ym2612"
    },
    {
      "channel": 1,
      "note": 86,
      "start": 19.4875,
      "duration": 0.0829,
      "velocity": 113,
      "chip": "ym2612"
    },
    {
      "channel": 4,
      "note": 81,
      "start": 19.4888,
      "duration": 0.0829,
      "velocity": 73,
      "chip": "ym2612"
    },
    {
      "channel": 5,
      "note": 83,
      "start": 19.5052,
      "duration": 0.0996,
      "velocity": 73,
      "chip": "ym2612"
    },
    {
      "channel": 3,
      "note": 86,
      "start": 19.5379,
      "duration": 0.0829,
      "velocity": 113,
      "chip": "ym2612"
    },
    {
      "channel": 2,
      "note": 78,
      "start": 19.5712,
      "duration": 0.1,
      "velocity": 113,
      "chip": "ym2612"
    },
    {
      "channel": 4,
      "note": 77,
      "start": 19.5722,
      "duration": 0.0996,
      "velocity": 73,
      "chip": "ym2612"
    },
    {
      "channel": 5,
      "note": 81,
      "start": 19.6053,
      "duration": 0.0996,
      "velocity": 73,
      "chip": "ym2612"
    },
    {
      "channel": 3,
      "note": 78,
      "start": 19.6214,
      "duration": 0.0996,
      "velocity": 113,
      "chip": "ym2612"
    },
    {
      "channel": 1,
      "note": 81,
      "start": 19.6711,
      "duration": 0.1,
      "velocity": 113,
      "chip": "ym2612"
    },
    {
      "channel": 4,
      "note": 78,
      "start": 19.6724,
      "duration": 0.1,
      "velocity": 73,
      "chip": "ym2612"
    },
    {
      "channel": 5,
      "note": 83,
      "start": 19.7054,
      "duration": 0.0829,
      "velocity": 73,
      "chip": "ym2612"
    },
    {
      "channel": 3,
      "note": 81,
      "start": 19.7215,
      "duration": 0.0996,
      "velocity": 113,
      "chip": "ym2612"
    },
    {
      "channel": 0,
      "note": 55,
      "start": 19.7709,
      "duration": 0.3833,
      "velocity": 108,
      "chip": "ym2612"
    },
    {
      "channel": 2,
      "note": 79,
      "start": 19.7719,
      "duration": 0.0829,
      "velocity": 113,
      "chip": "ym2612"
    },
    {
      "channel": 4,
      "note": 79,
      "start": 19.7729,
      "duration": 0.1826,
      "velocity": 73,
      "chip": "ym2612"
    },
    {
      "channel": 5,
      "note": 81,
      "start": 19.7889,
      "duration": 0.0996,
      "velocity": 73,
      "chip": "ym2612"
    },
    {
      "channel": 3,
      "note": 79,
      "start": 19.8216,
      "duration": 0.0829,
      "velocity": 113,
      "chip": "ym2612"
    },
    {
      "channel": 1,
      "note": 83,
      "start": 19.8546,
      "duration": 0.0996,
      "velocity": 113,
      "chip": "ym2612"
    },
    {
      "channel": 5,
      "note": 77,
      "start": 19.889,
      "duration": 0.0996,
      "velocity": 73,
      "chip": "ym2612"
    },
    {
      "channel": 3,
      "note": 83,
      "start": 19.9051,
      "duration": 0.0996,
      "velocity": 113,
      "chip": "ym2612"
    },
    {
      "channel": 2,
      "note": 86,
      "start": 19.9551,
      "duration": 0.1,
      "velocity": 113,
      "chip": "ym2612"
    },
    {
      "channel": 4,
      "note": 79,
      "start": 19.9559,
      "duration": 0.0997,
      "velocity": 73,
      "chip": "ym2612"
    },
    {
      "channel": 5,
      "note": 78,
      "start": 19.9891,
      "duration": 0.0829,
      "velocity": 73,
      "chip": "ym2612"
    },
    {
      "channel": 3,
      "note": 86,
      "start": 20.0052,
      "duration": 0.0996,
      "velocity": 113,
      "chip": "ym2612"
    },
    {
      "channel": 1,
      "note": 79,
      "start": 20.0549,
      "duration": 0.1,
      "velocity": 113,
      "chip": "ym2612"
    },
    {
      "channel": 4,
      "note": 79,
      "start": 20.056,
      "duration": 0.1001,
      "velocity": 73,
      "chip": "ym2612"
    },
    {
      "channel": 5,
      "note": 79,
      "start": 20.0726,
      "duration": 0.1997,
      "velocity": 73,
      "chip": "ym2612"
    },
    {
      "channel": 3,
      "note": 79,
      "start": 20.1053,
      "duration": 0.0829,
      "velocity": 113,
      "chip": "ym2612"
    },
    {
      "channel": 0,
      "note": 50,
      "start": 20.1547,
      "duration": 0.3666,
      "velocity": 108,
      "chip": "ym2612"
    },
    {
      "channel": 2,
      "note": 83,
      "start": 20.1557,
      "duration": 0.0829,
      "velocity": 113,
      "chip": "ym2612"
    },
    {
      "channel": 4,
      "note": 79,
      "start": 20.1565,
      "duration": 0.0827,
      "velocity": 73,
      "chip": "ym2612"
    },
    {
      "channel": 3,
      "note": 83,
      "start": 20.1888,
      "duration": 0.0996,
      "velocity": 113,
      "chip": "ym2612"
    },
    {
      "channel": 1,
      "note": 86,
      "start": 20.2385,
      "duration": 0.0996,
      "velocity": 113,
      "chip": "ym2612"
    },
    {
      "channel": 4,
      "note": 81,
      "start": 20.2398,
      "duration": 0.0995,
      "velocity": 73,
      "chip": "ym2612"
    },
    {
      "channel": 5,
      "note": 79,
      "start": 20.2727,
      "duration": 0.0831,
      "velocity": 73,
      "chip": "ym2612"
    },
    {
      "channel": 3,
      "note": 86,
      "start": 20.2889,
      "duration": 0.0996,
      "velocity": 113,
      "chip": "ym2612"
    },
    {
      "channel": 2,
      "note": 74,
      "start": 20.3389,
      "duration": 0.1,
      "velocity": 113,
      "chip": "ym2612"
    },
    {
      "channel": 4,
      "note": 83,
      "start": 20.3399,
      "duration": 0.0996,
      "velocity": 73,
      "chip": "ym2612"
    },
    {
      "channel": 5,
      "note": 79,
      "start": 20.3561,
      "duration": 0.0997,
      "velocity": 73,
      "chip": "ym2612"
    },
    {
      "channel": 3,
      "note": 74,
      "start": 20.389,
      "duration": 0.0829,
      "velocity": 113,
      "chip": "ym2612"
    },
    {
      "channel": 1,
      "note": 79,
      "start": 20.4387,
      "duration": 0.0833,
      "velocity": 113,
      "chip": "ym2612"
    },
    {
      "channel": 4,
      "note": 86,
      "start": 20.44,
      "duration": 0.0833,
      "velocity": 73,
      "chip": "ym2612"
    },
    {
      "channel": 5,
      "note": 79,
      "start": 20.4562,
      "duration": 0.0997,
      "velocity": 73,
      "chip": "ym2612"
    },
    {
      "channel": 3,
      "note": 79,
      "start": 20.4725,
      "duration": 0.0996,
      "velocity": 113,
      "chip": "ym2612"
    },
    {
      "channel": 0,
      "note": 55,
      "start": 20.5219,
      "duration": 0.3833,
      "velocity": 108,
      "chip": "ym2612"
    },
    {
      "channel": 2,
      "note": 83,
      "start": 20.5229,
      "duration": 0.0996,
      "velocity": 113,
      "chip": "ym2612"
    },
    {
      "channel": 4,
      "note": 89,
      "start": 20.5239,
      "duration": 0.2827,
      "velocity": 73,
      "chip": "ym2612"
    },
    {
      "channel": 5,
      "note": 81,
      "start": 20.5565,
      "duration": 0.0829,
      "velocity": 73,
      "chip": "ym2612"
    },
    {
      "channel": 3,
      "note": 83,
      "start": 20.5726,
      "duration": 0.0996,
      "velocity": 113,
      "chip": "ym2612"
    },
    {
      "channel": 1,
      "note": 86,
      "start": 20.6223,
      "duration": 0.0996,
      "velocity": 113,
      "chip": "ym2612"
    },
    {
      "channel": 5,
      "note": 83,
      "start": 20.64,
      "duration": 0.0996,
      "velocity": 73,
      "chip": "ym2612"
    },
    {
      "channel": 3,
      "note": 86,
      "start": 20.6727,
      "duration": 0.0996,
      "velocity": 113,
      "chip": "ym2612"
    },
    {
      "channel": 2,
      "note": 79,
      "start": 20.7227,
      "duration": 0.0833,
      "velocity": 113,
      "chip": "ym2612"
    },
    {
      "channel": 5,
      "note": 86,
      "start": 20.7401,
      "duration": 0.0996,
      "velocity": 73,
      "chip": "ym2612"
    },
    {
      "channel": 3,
      "note": 79,
      "start": 20.7729,
      "duration": 0.0829,
      "velocity": 113,
      "chip": "ym2612"
    },
    {
      "channel": 1,
      "note": 83,
      "start": 20.8059,
      "duration": 0.1,
      "velocity": 113,
      "chip": "ym2612"
    },
    {
      "channel": 4,
      "note": 88,
      "start": 20.8072,
      "duration": 0.2831,
      "velocity": 73,
      "chip": "ym2612"
    },
    {
      "channel": 5,
      "note": 89,
      "start": 20.8402,
      "duration": 0.2831,
      "velocity": 73,
      "chip": "ym2612"
    },
    {
      "channel": 3,
      "note": 83,
      "start": 20.8563,
      "duration": 0.0996,
      "velocity": 113,
      "chip": "ym2612"
    },
    {
      "channel": 0,
      "note": 55,
      "start": 20.9057,
      "duration": 0.3833,
      "velocity": 108,
      "chip": "ym2612"
    },
    {
      "channel": 2,
      "note": 86,
      "start": 20.9067,
      "duration": 0.0996,
      "velocity": 113,
      "chip": "ym2612"
    },
    {
      "channel": 3,
      "note": 86,
      "start": 20.9564,
      "duration": 0.0996,
      "velocity": 113,
      "chip": "ym2612"
    },
    {
      "channel": 1,
      "note": 79,
      "start": 21.0061,
      "duration": 0.0829,
      "velocity": 113,
      "chip": "ym2612"
    },
    {
      "channel": 3,
      "note": 79,
      "start": 21.0566,
      "duration": 0.0829,
      "velocity": 113,
      "chip": "ym2612"
    },
    {
      "channel": 2,
      "note": 83,
      "start": 21.0899,
      "duration": 0.1,
      "velocity": 113,
      "chip": "ym2612"
    },
    {
      "channel": 4,
      "note": 86,
      "start": 21.0909,
      "duration": 0.2001,
      "velocity": 73,
      "chip": "ym2612"
    },
    {
      "channel": 5,
      "note": 88,
      "start": 21.1239,
      "duration": 0.2831,
      "velocity": 73,
      "chip": "ym2612"
    },
    {
      "channel": 3,
      "note": 83,
      "start": 21.14,
      "duration": 0.0996,
      "velocity": 113,
      "chip": "ym2612"
    },
    {
      "channel": 1,
      "note": 86,
      "start": 21.1897,
      "duration": 0.1,
      "velocity": 113,
      "chip": "ym2612"
    },
    {
      "channel": 3,
      "note": 86,
      "start": 21.2401,
      "duration": 0.0996,
      "velocity": 113,
      "chip": "ym2612"
    },
    {
      "channel": 0,
      "note": 45,
      "start": 21.2895,
      "duration": 0.3833,
      "velocity": 108,
      "chip": "ym2612"
    },
    {
      "channel": 2,
      "note": 77,
      "start": 21.2905,
      "duration": 0.0996,
      "velocity": 113,
      "chip": "ym2612"
    },
    {
      "channel": 4,
      "note": 77,
      "start": 21.2915,
      "duration": 0.0992,
      "velocity": 73,
      "chip": "ym2612"
    },
    {
      "channel": 3,
      "note": 77,
      "start": 21.3403,
      "duration": 0.0829,
      "velocity": 113,
      "chip": "ym2612"
    },
    {
      "channel": 1,
      "note": 78,
      "start": 21.39,
      "duration": 0.0829,
      "velocity": 113,
      "chip": "ym2612"
    },
    {
      "channel": 4,
      "note": 78,
      "start": 21.3912,
      "duration": 0.0829,
      "velocity": 73,
      "chip": "ym2612"
    },
    {
      "channel": 5,
      "note": 86,
      "start": 21.4076,
      "duration": 0.183,
      "velocity": 73,
      "chip": "ym2612"
    },
    {
      "channel": 3,
      "note": 78,
      "start": 21.4237,
      "duration": 0.0996,
      "velocity": 113,
      "chip": "ym2612"
    },
    {
      "channel": 2,
      "note": 81,
      "start": 21.4737,
      "duration": 0.1,
      "velocity": 113,
      "chip": "ym2612"
    },
    {
      "channel": 4,
      "note": 74,
      "start": 21.4747,
      "duration": 0.0996,
      "velocity": 73,
      "chip": "ym2612"
    },
    {
      "channel": 3,
      "note": 81,
      "start": 21.5238,
      "duration": 0.0996,
      "velocity": 113,
      "chip": "ym2612"
    },
    {
      "channel": 1,
      "note": 83,
      "start": 21.5735,
      "duration": 0.1,
      "velocity": 113,
      "chip": "ym2612"
    },
    {
      "channel": 4,
      "note": 71,
      "start": 21.5748,
      "duration": 0.1,
      "velocity": 73,
      "chip": "ym2612"
    },
    {
      "channel": 5,
      "note": 77,
      "start": 21.5912,
      "duration": 0.0996,
      "velocity": 73,
      "chip": "ym2612"
    },
    {
      "channel": 3,
      "note": 83,
      "start": 21.624,
      "duration": 0.0829,
      "velocity": 113,
      "chip": "ym2612"
    },
    {
      "channel": 0,
      "note": 52,
      "start": 21.6733,
      "duration": 0.3666,
      "velocity": 108,
      "chip": "ym2612"
    },
    {
      "channel": 2,
      "note": 81,
      "start": 21.6743,
      "duration": 0.0829,
      "velocity": 113,
      "chip": "ym2612"
    },
    {
      "channel": 4,
      "note": 69,
      "start": 21.6753,
      "duration": 0.0825,
      "velocity": 73,
      "chip": "ym2612"
    },
    {
      "channel": 5,
      "note": 78,
      "start": 21.6913,
      "duration": 0.0996,
      "velocity": 73,
      "chip": "ym2612"
    },
    {
      "channel": 3,
      "note": 81,
      "start": 21.7074,
      "duration": 0.0996,
      "velocity": 113,
      "chip": "ym2612"
    },
    {
      "channel": 1,
      "note": 78,
      "start": 21.7571,
      "duration": 0.0996,
      "velocity": 113,
      "chip": "ym2612"
    },
    {
      "channel": 4,
      "note": 71,
      "start": 21.7584,
      "duration": 0.0996,
      "velocity": 73,
      "chip": "ym2612"
    },
    {
      "channel": 5,
      "note": 74,
      "start": 21.7914,
      "duration": 0.0829,
      "velocity": 73,
      "chip": "ym2612"
    },
    {
      "channel": 3,
      "note": 78,
      "start": 21.8075,
      "duration": 0.0996,
      "velocity": 113,
      "chip": "ym2612"
    },
    {
      "channel": 2,
      "note": 76,
      "start": 21.8575,
      "duration": 0.1838,
      "velocity": 113,
      "chip": "ym2612"
    },
    {
      "channel": 4,
      "note": 74,
      "start": 21.8585,
      "duration": 0.099,
      "velocity": 73,
      "chip": "ym2612"
    },
    {
      "channel": 5,
      "note": 71,
      "start": 21.8749,
      "duration": 0.0996,
      "velocity": 73,
      "chip": "ym2612"
    },
    {
      "channel": 3,
      "note": 76,
      "start": 21.9076,
      "duration": 0.183,
      "velocity": 113,
      "chip": "ym2612"
    },
    {
      "channel": 4,
      "note": 78,
      "start": 21.958,
      "duration": 0.0839,
      "velocity": 73,
      "chip": "ym2612"
    },
    {
      "channel": 5,
      "note": 69,
      "start": 21.975,
      "duration": 0.0996,
      "velocity": 73,
      "chip": "ym2612"
    },
    {
      "channel": 0,
      "note": 45,
      "start": 22.0405,
      "duration": 0.3833,
      "velocity": 108,
      "chip": "ym2612"
    },
    {
      "channel": 1,
      "note": 74,
      "start": 22.0412,
      "duration": 0.1993,
      "velocity": 113,
      "chip": "ym2612"
    },
    {
      "channel": 4,
      "note": 81,
      "start": 22.0425,
      "duration": 0.1993,
      "velocity": 73,
      "chip": "ym2612"
    },
    {
      "channel": 5,
      "note": 71,
      "start": 22.0751,
      "duration": 0.0829,
      "velocity": 73,
      "chip": "ym2612"
    },
    {
      "channel": 3,
      "note": 74,
      "start": 22.0912,
      "duration": 0.1997,
      "velocity": 113,
      "chip": "ym2612"
    },
    {
      "channel": 5,
      "note": 74,
      "start": 22.1586,
      "duration": 0.0996,
      "velocity": 73,
      "chip": "ym2612"
    },
    {
      "channel": 2,
      "note": 69,
      "start": 22.2413,
      "duration": 0.0833,
      "velocity": 113,
      "chip": "ym2612"
    },
    {
      "channel": 4,
      "note": 69,
      "start": 22.2423,
      "duration": 0.0829,
      "velocity": 73,
      "chip": "ym2612"
    },
    {
      "channel": 5,
      "note": 78,
      "start": 22.2587,
      "duration": 0.0996,
      "velocity": 73,
      "chip": "ym2612"
    },
    {
      "channel": 3,
      "note": 69,
      "start": 22.2915,
      "duration": 0.0829,
      "velocity": 113,
      "chip": "ym2612"
    },
    {
      "channel": 1,
      "note": 71,
      "start": 22.3245,
      "duration": 0.1,
      "velocity": 113,
      "chip": "ym2612"
    },
    {
      "channel": 4,
      "note": 69,
      "start": 22.3256,
      "duration": 0.1001,
      "velocity": 73,
      "chip": "ym2612"
    },
    {
      "channel": 5,
      "note": 81,
      "start": 22.3588,
      "duration": 0.183,
      "velocity": 73,
      "chip": "ym2612"
    },
    {
      "channel": 3,
      "note": 71,
      "start": 22.3749,
      "duration": 0.0996,
      "velocity": 113,
      "chip": "ym2612"
    },
    {
      "channel": 0,
      "note": 52,
      "start": 22.4243,
      "duration": 0.3833,
      "velocity": 108,
      "chip": "ym2612"
    },
    {
      "channel": 2,
      "note": 74,
      "start": 22.4253,
      "duration": 0.0996,
      "velocity": 113,
      "chip": "ym2612"
    },
    {
      "channel": 4,
      "note": 77,
      "start": 22.4263,
      "duration": 0.1826,
      "velocity": 73,
      "chip": "ym2612"
    },
    {
      "channel": 3,
      "note": 74,
      "start": 22.475,
      "duration": 0.0996,
      "velocity": 113,
      "chip": "ym2612"
    },
    {
      "channel": 1,
      "note": 76,
      "start": 22.5247,
      "duration": 0.0829,
      "velocity": 113,
      "chip": "ym2612"
    },
    {
      "channel": 5,
      "note": 69,
      "start": 22.5424,
      "duration": 0.0996,
      "velocity": 73,
      "chip": "ym2612"
    },
    {
      "channel": 3,
      "note": 76,
      "start": 22.5752,
      "duration": 0.0829,
      "velocity": 113,
      "chip": "ym2612"
    },
    {
      "channel": 2,
      "note": 77,
      "start": 22.6085,
      "duration": 0.1,
      "velocity": 113,
      "chip": "ym2612"
    },
    {
      "channel": 4,
      "note": 76,
      "start": 22.6095,
      "duration": 0.2001,
      "velocity": 73,
      "chip": "ym2612"
    },
    {
      "channel": 5,
      "note": 69,
      "start": 22.6424,
      "duration": 0.0997,
      "velocity": 73,
      "chip": "ym2612"
    },
    {
      "channel": 3,
      "note": 77,
      "start": 22.6586,
      "duration": 0.0996,
      "velocity": 113,
      "chip": "ym2612"
    },
    {
      "channel": 1,
      "note": 78,
      "start": 22.7083,
      "duration": 0.1,
      "velocity": 113,
      "chip": "ym2612"
    },
    {
      "channel": 5,
      "note": 77,
      "start": 22.7427,
      "duration": 0.183,
      "velocity": 73,
      "chip": "ym2612"
    },
    {
      "channel": 3,
      "note": 78,
      "start": 22.7588,
      "duration": 0.0996,
      "velocity": 113,
      "chip": "ym2612"
    },
    {
      "channel": 0,
      "note": 50,
      "start": 22.8081,
      "duration": 0.3833,
      "velocity": 108,
      "chip": "ym2612"
    },
    {
      "channel": 2,
      "note": 74,
      "start": 22.8091,
      "duration": 0.183,
      "velocity": 113,
      "chip": "ym2612"
    },
    {
      "channel": 4,
      "note": 74,
      "start": 22.8101,
      "duration": 1.5244,
      "velocity": 73,
      "chip": "ym2612"
    },
    {
      "channel": 3,
      "note": 74,
      "start": 22.8589,
      "duration": 0.183,
      "velocity": 113,
      "chip": "ym2612"
    },
    {
      "channel": 5,
      "note": 76,
      "start": 22.9262,
      "duration": 0.183,
      "velocity": 73,
      "chip": "ym2612"
    },
    {
      "channel": 1,
      "note": 74,
      "start": 22.992,
      "duration": 0.0996,
      "velocity": 113,
      "chip": "ym2612"
    },
    {
      "channel": 3,
      "note": 74,
      "start": 23.0424,
      "duration": 0.0996,
      "velocity": 113,
      "chip": "ym2612"
    },
    {
      "channel": 2,
      "note": 77,
      "start": 23.0924,
      "duration": 0.1004,
      "velocity": 113,
      "chip": "ym2612"
    },
    {
      "channel": 5,
      "note": 74,
      "start": 23.1098,
      "duration": 1.5185,
      "velocity": 73,
      "chip": "ym2612"
    },
    {
      "channel": 3,
      "note": 77,
      "start": 23.1426,
      "duration": 0.0829,
      "velocity": 113,
      "chip": "ym2612"
    },
    {
      "channel": 0,
      "note": 45,
      "start": 23.192,
      "duration": 0.3666,
      "velocity": 108,
      "chip": "ym2612"
    },
    {
      "channel": 1,
      "note": 78,
      "start": 23.1926,
      "duration": 0.0825,
      "velocity": 113,
      "chip": "ym2612"
    },
    {
      "channel": 3,
      "note": 78,
      "start": 23.226,
      "duration": 0.0996,
      "velocity": 113,
      "chip": "ym2612"
    },
    {
      "channel": 2,
      "note": 74,
      "start": 23.276,
      "duration": 0.1,
      "velocity": 113,
      "chip": "ym2612"
    },
    {
      "channel": 3,
      "note": 74,
      "start": 23.3261,
      "duration": 0.0996,
      "velocity": 113,
      "chip": "ym2612"
    },
    {
      "channel": 1,
      "note": 71,
      "start": 23.3759,
      "duration": 0.1834,
      "velocity": 113,
      "chip": "ym2612"
    },
    {
      "channel": 3,
      "note": 71,
      "start": 23.4263,
      "duration": 0.1832,
      "velocity": 113,
      "chip": "ym2612"
    },
    {
      "channel": 0,
      "note": 50,
      "start": 23.5591,
      "duration": 0.3833,
      "velocity": 108,
      "chip": "ym2612"
    },
    {
      "channel": 1,
      "note": 74,
      "start": 23.5598,
      "duration": 0.1993,
      "velocity": 113,
      "chip": "ym2612"
    },
    {
      "channel": 2,
      "note": 74,
      "start": 23.5605,
      "duration": 0.1993,
      "velocity": 113,
      "chip": "ym2612"
    },
    {
      "channel": 3,
      "note": 74,
      "start": 23.6101,
      "duration": 0.1997,
      "velocity": 113,
      "chip": "ym2612"
    },
    {
      "channel": 1,
      "note": 74,
      "start": 23.7597,
      "duration": 0.1834,
      "velocity": 113,
      "chip": "ym2612"
    },
    {
      "channel": 2,
      "note": 78,
      "start": 23.7603,
      "duration": 0.1834,
      "velocity": 113,
      "chip": "ym2612"
    },
    {
      "channel": 3,
      "note": 78,
      "start": 23.8103,
      "duration": 0.183,
      "velocity": 113,
      "chip": "ym2612"
    },
    {
      "channel": 0,
      "note": 45,
      "start": 23.9429,
      "duration": 0.3834,
      "velocity": 108,
      "chip": "ym2612"
    },
    {
      "channel": 1,
      "note": 69,
      "start": 23.9436,
      "duration": 0.1827,
      "velocity": 113,
      "chip": "ym2612"
    },
    {
      "channel": 2,
      "note": 69,
      "start": 23.9443,
      "duration": 0.1827,
      "velocity": 113,
      "chip": "ym2612"
    },
    {
      "channel": 3,
      "note": 69,
      "start": 23.9939,
      "duration": 0.183,
      "velocity": 113,
      "chip": "ym2612"
    },
    {
      "channel": 1,
      "note": 74,
      "start": 24.1268,
      "duration": 0.2031,
      "velocity": 113,
      "chip": "ym2612"
    },
    {
      "channel": 2,
      "note": 78,
      "start": 24.1275,
      "duration": 0.2061,
      "velocity": 113,
      "chip": "ym2612"
    },
    {
      "channel": 3,
      "note": 78,
      "start": 24.1775,
      "duration": 0.2033,
      "velocity": 113,
      "chip": "ym2612"
    },
    {
      "channel": 0,
      "note": 50,
      "start": 24.3268,
      "duration": 0.3832,
      "velocity": 108,
      "chip": "ym2612"
    },
    {
      "channel": 1,
      "note": 81,
      "start": 24.3305,
      "duration": 0.0962,
      "velocity": 113,
      "chip": "ym2612"
    },
    {
      "channel": 4,
      "note": 77,
      "start": 24.3351,
      "duration": 0.0463,
      "velocity": 73,
      "chip": "ym2612"
    },
    {
      "channel": 3,
      "note": 81,
      "start": 24.3813,
      "duration": 0.0797,
      "velocity": 113,
      "chip": "ym2612"
    },
    {
      "channel": 4,
      "note": 78,
      "start": 24.382,
      "duration": 0.1298,
      "velocity": 73,
      "chip": "ym2612"
    },
    {
      "channel": 2,
      "note": 69,
      "start": 24.4275,
      "duration": 0.0332,
      "velocity": 113,
      "chip": "ym2612"
    },
    {
      "channel": 1,
      "note": 74,
      "start": 24.4606,
      "duration": 0.0495,
      "velocity": 113,
      "chip": "ym2612"
    },
    {
      "channel": 3,
      "note": 69,
      "start": 24.4616,
      "duration": 0.0495,
      "velocity": 113,
      "chip": "ym2612"
    },
    {
      "channel": 2,
      "note": 78,
      "start": 24.5109,
      "duration": 0.1,
      "velocity": 113,
      "chip": "ym2612"
    },
    {
      "channel": 3,
      "note": 74,
      "start": 24.5116,
      "duration": 0.0489,
      "velocity": 113,
      "chip": "ym2612"
    },
    {
      "channel": 4,
      "note": 78,
      "start": 24.5123,
      "duration": 0.0992,
      "velocity": 73,
      "chip": "ym2612"
    },
    {
      "channel": 3,
      "note": 78,
      "start": 24.5611,
      "duration": 0.0996,
      "velocity": 113,
      "chip": "ym2612"
    },
    {
      "channel": 1,
      "note": 81,
      "start": 24.6108,
      "duration": 0.1,
      "velocity": 113,
      "chip": "ym2612"
    },
    {
      "channel": 4,
      "note": 78,
      "start": 24.6121,
      "duration": 0.1008,
      "velocity": 73,
      "chip": "ym2612"
    },
    {
      "channel": 5,
      "note": 77,
      "start": 24.6289,
      "duration": 0.0491,
      "velocity": 73,
      "chip": "ym2612"
    },
    {
      "channel": 3,
      "note": 81,
      "start": 24.6612,
      "duration": 0.0829,
      "velocity": 113,
      "chip": "ym2612"
    },
    {
      "channel": 5,
      "note": 78,
      "start": 24.6785,
      "duration": 0.1497,
      "velocity": 73,
      "chip": "ym2612"
    },
    {
      "channel": 0,
      "note": 45,
      "start": 24.7106,
      "duration": 0.3667,
      "velocity": 108,
      "chip": "ym2612"
    },
    {
      "channel": 2,
      "note": 83,
      "start": 24.7116,
      "duration": 0.0829,
      "velocity": 113,
      "chip": "ym2612"
    },
    {
      "channel": 4,
      "note": 77,
      "start": 24.7134,
      "duration": 0.0314,
      "velocity": 73,
      "chip": "ym2612"
    },
    {
      "channel": 3,
      "note": 83,
      "start": 24.7446,
      "duration": 0.0996,
      "velocity": 113,
      "chip": "ym2612"
    },
    {
      "channel": 4,
      "note": 78,
      "start": 24.7454,
      "duration": 0.1498,
      "velocity": 73,
      "chip": "ym2612"
    },
    {
      "channel": 1,
      "note": 81,
      "start": 24.7943,
      "duration": 0.0996,
      "velocity": 113,
      "chip": "ym2612"
    },
    {
      "channel": 5,
      "note": 78,
      "start": 24.8287,
      "duration": 0.0829,
      "velocity": 73,
      "chip": "ym2612"
    },
    {
      "channel": 3,
      "note": 81,
      "start": 24.8448,
      "duration": 0.0995,
      "velocity": 113,
      "chip": "ym2612"
    },
    {
      "channel": 2,
      "note": 78,
      "start": 24.8947,
      "duration": 0.1,
      "velocity": 113,
      "chip": "ym2612"
    },
    {
      "channel": 4,
      "note": 78,
      "start": 24.8957,
      "duration": 0.0996,
      "velocity": 73,
      "chip": "ym2612"
    },
    {
      "channel": 5,
      "note": 78,
      "start": 24.9121,
      "duration": 0.1004,
      "velocity": 73,
      "chip": "ym2612"
    },
    {
      "channel": 3,
      "note": 78,
      "start": 24.9449,
      "duration": 0.0996,
      "velocity": 113,
      "chip": "ym2612"
    },
    {
      "channel": 1,
      "note": 76,
      "start": 24.9946,
      "duration": 0.0834,
      "velocity": 113,
      "chip": "ym2612"
    },
    {
      "channel": 4,
      "note": 78,
      "start": 24.9959,
      "duration": 0.0842,
      "velocity": 73,
      "chip": "ym2612"
    },
    {
      "channel": 5,
      "note": 77,
      "start": 25.0131,
      "duration": 0.0487,
      "velocity": 73,
      "chip": "ym2612"
    },
    {
      "channel": 3,
      "note": 76,
      "start": 25.045,
      "duration": 0.0829,
      "velocity": 113,
      "chip": "ym2612"
    },
    {
      "channel": 5,
      "note": 78,
      "start": 25.0623,
      "duration": 0.1329,
      "velocity": 73,
      "chip": "ym2612"
    },
    {
      "channel": 0,
      "note": 50,
      "start": 25.0778,
      "duration": 0.3832,
      "velocity": 108,
      "chip": "ym2612"
    },
    {
      "channel": 2,
      "note": 74,
      "start": 25.0788,
      "duration": 0.1996,
      "velocity": 113,
      "chip": "ym2612"
    },
    {
      "channel": 4,
      "note": 77,
      "start": 25.0807,
      "duration": 0.048,
      "velocity": 73,
      "chip": "ym2612"
    },
    {
      "channel": 3,
      "note": 74,
      "start": 25.1285,
      "duration": 0.1997,
      "velocity": 113,
      "chip": "ym2612"
    },
    {
      "channel": 4,
      "note": 78,
      "start": 25.1292,
      "duration": 0.1499,
      "velocity": 73,
      "chip": "ym2612"
    },
    {
      "channel": 5,
      "note": 78,
      "start": 25.1958,
      "duration": 0.0996,
      "velocity": 73,
      "chip": "ym2612"
    },
    {
      "channel": 1,
      "note": 69,
      "start": 25.2783,
      "duration": 0.0829,
      "velocity": 113,
      "chip": "ym2612"
    },
    {
      "channel": 4,
      "note": 78,
      "start": 25.2796,
      "duration": 0.0829,
      "velocity": 73,
      "chip": "ym2612"
    },
    {
      "channel": 5,
      "note": 78,
      "start": 25.2959,
      "duration": 0.1004,
      "velocity": 73,
      "chip": "ym2612"
    },
    {
      "channel": 3,
      "note": 69,
      "start": 25.3287,
      "duration": 0.0829,
      "velocity": 113,
      "chip": "ym2612"
    },
    {
      "channel": 2,
      "note": 71,
      "start": 25.362,
      "duration": 0.1004,
      "velocity": 113,
      "chip": "ym2612"
    },
    {
      "channel": 4,
      "note": 78,
      "start": 25.363,
      "duration": 0.1008,
      "velocity": 73,
      "chip": "ym2612"
    },
    {
      "channel": 5,
      "note": 77,
      "start": 25.3969,
      "duration": 0.0487,
      "velocity": 73,
      "chip": "ym2612"
    },
    {
      "channel": 3,
      "note": 71,
      "start": 25.4122,
      "duration": 0.0996,
      "velocity": 113,
      "chip": "ym2612"
    },
    {
      "channel": 5,
      "note": 78,
      "start": 25.4461,
      "duration": 0.1329,
      "velocity": 73,
      "chip": "ym2612"
    },
    {
      "channel": 0,
      "note": 45,
      "start": 25.4615,
      "duration": 0.3834,
      "velocity": 108,
      "chip": "ym2612"
    },
    {
      "channel": 1,
      "note": 74,
      "start": 25.4622,
      "duration": 0.0992,
      "velocity": 113,
      "chip": "ym2612"
    },
    {
      "channel": 4,
      "note": 77,
      "start": 25.4644,
      "duration": 0.0984,
      "velocity": 73,
      "chip": "ym2612"
    },
    {
      "channel": 3,
      "note": 74,
      "start": 25.5123,
      "duration": 0.0996,
      "velocity": 113,
      "chip": "ym2612"
    },
    {
      "channel": 2,
      "note": 76,
      "start": 25.5623,
      "duration": 0.1,
      "velocity": 113,
      "chip": "ym2612"
    },
    {
      "channel": 4,
      "note": 78,
      "start": 25.5633,
      "duration": 0.0996,
      "velocity": 73,
      "chip": "ym2612"
    },
    {
      "channel": 5,
      "note": 78,
      "start": 25.5797,
      "duration": 0.0996,
      "velocity": 73,
      "chip": "ym2612"
    },
    {
      "channel": 3,
      "note": 76,
      "start": 25.6124,
      "duration": 0.0829,
      "velocity": 113,
      "chip": "ym2612"
    },
    {
      "channel": 1,
      "note": 77,
      "start": 25.6621,
      "duration": 0.0829,
      "velocity": 113,
      "chip": "ym2612"
    },
    {
      "channel": 4,
      "note": 77,
      "start": 25.6634,
      "duration": 0.0829,
      "velocity": 73,
      "chip": "ym2612"
    },
    {
      "channel": 5,
      "note": 78,
      "start": 25.6798,
      "duration": 0.1004,
      "velocity": 73,
      "chip": "ym2612"
    },
    {
      "channel": 3,
      "note": 77,
      "start": 25.6959,
      "duration": 0.0996,
      "velocity": 113,
      "chip": "ym2612"
    },
    {
      "channel": 2,
      "note": 78,
      "start": 25.7459,
      "duration": 0.1005,
      "velocity": 113,
      "chip": "ym2612"
    },
    {
      "channel": 4,
      "note": 78,
      "start": 25.7468,
      "duration": 0.1001,
      "velocity": 73,
      "chip": "ym2612"
    },
    {
      "channel": 5,
      "note": 77,
      "start": 25.7807,
      "duration": 0.082,
      "velocity": 73,
      "chip": "ym2612"
    },
    {
      "channel": 3,
      "note": 78,
      "start": 25.796,
      "duration": 0.0996,
      "velocity": 113,
      "chip": "ym2612"
    },
    {
      "channel": 0,
      "note": 50,
      "start": 25.8455,
      "duration": 0.3832,
      "velocity": 108,
      "chip": "ym2612"
    },
    {
      "channel": 1,
      "note": 74,
      "start": 25.8462,
      "duration": 0.1825,
      "velocity": 113,
      "chip": "ym2612"
    },
    {
      "channel": 4,
      "note": 76,
      "start": 25.8475,
      "duration": 0.1825,
      "velocity": 73,
      "chip": "ym2612"
    },
    {
      "channel": 5,
      "note": 78,
      "start": 25.8633,
      "duration": 0.0996,
      "velocity": 73,
      "chip": "ym2612"
    },
    {
      "channel": 3,
      "note": 74,
      "start": 25.8961,
      "duration": 0.183,
      "velocity": 113,
      "chip": "ym2612"
    },
    {
      "channel": 5,
      "note": 77,
      "start": 25.9635,
      "duration": 0.0996,
      "velocity": 73,
      "chip": "ym2612"
    },
    {
      "channel": 2,
      "note": 74,
      "start": 26.0296,
      "duration": 0.1,
      "velocity": 113,
      "chip": "ym2612"
    },
    {
      "channel": 4,
      "note": 74,
      "start": 26.0306,
      "duration": 0.9514,
      "velocity": 73,
      "chip": "ym2612"
    },
    {
      "channel": 5,
      "note": 78,
      "start": 26.0636,
      "duration": 0.0829,
      "velocity": 73,
      "chip": "ym2612"
    },
    {
      "channel": 3,
      "note": 74,
      "start": 26.0797,
      "duration": 0.0996,
      "velocity": 113,
      "chip": "ym2612"
    },
    {
      "channel": 1,
      "note": 77,
      "start": 26.1294,
      "duration": 0.1,
      "velocity": 113,
      "chip": "ym2612"
    },
    {
      "channel": 5,
      "note": 76,
      "start": 26.1471,
      "duration": 0.1997,
      "velocity": 73,
      "chip": "ym2612"
    },
    {
      "channel": 3,
      "note": 77,
      "start": 26.1798,
      "duration": 0.0829,
      "velocity": 113,
      "chip": "ym2612"
    },
    {
      "channel": 0,
      "note": 45,
      "start": 26.2292,
      "duration": 0.3667,
      "velocity": 108,
      "chip": "ym2612"
    },
    {
      "channel": 2,
      "note": 78,
      "start": 26.2302,
      "duration": 0.0829,
      "velocity": 113,
      "chip": "ym2612"
    },
    {
      "channel": 3,
      "note": 78,
      "start": 26.2633,
      "duration": 0.0996,
      "velocity": 113,
      "chip": "ym2612"
    },
    {
      "channel": 1,
      "note": 74,
      "start": 26.3129,
      "duration": 0.0996,
      "velocity": 113,
      "chip": "ym2612"
    },
    {
      "channel": 5,
      "note": 74,
      "start": 26.3473,
      "duration": 0.9507,
      "velocity": 73,
      "chip": "ym2612"
    },
    {
      "channel": 3,
      "note": 74,
      "start": 26.3634,
      "duration": 0.0996,
      "velocity": 113,
      "chip": "ym2612"
    },
    {
      "channel": 2,
      "note": 71,
      "start": 26.4134,
      "duration": 0.1839,
      "velocity": 113,
      "chip": "ym2612"
    },
    {
      "channel": 3,
      "note": 71,
      "start": 26.4635,
      "duration": 0.1832,
      "velocity": 113,
      "chip": "ym2612"
    },
    {
      "channel": 0,
      "note": 50,
      "start": 26.5964,
      "duration": 0.3832,
      "velocity": 108,
      "chip": "ym2612"
    },
    {
      "channel": 1,
      "note": 74,
      "start": 26.5971,
      "duration": 0.1992,
      "velocity": 113,
      "chip": "ym2612"
    },
    {
      "channel": 2,
      "note": 74,
      "start": 26.5978,
      "duration": 0.1992,
      "velocity": 113,
      "chip": "ym2612"
    },
    {
      "channel": 3,
      "note": 74,
      "start": 26.6473,
      "duration": 0.1997,
      "velocity": 113,
      "chip": "ym2612"
    },
    {
      "channel": 1,
      "note": 74,
      "start": 26.7969,
      "duration": 0.1834,
      "velocity": 113,
      "chip": "ym2612"
    },
    {
      "channel": 2,
      "note": 78,
      "start": 26.7976,
      "duration": 0.1834,
      "velocity": 113,
      "chip": "ym2612"
    },
    {
      "channel": 3,
      "note": 78,
      "start": 26.8476,
      "duration": 0.183,
      "velocity": 113,
      "chip": "ym2612"
    },
    {
      "channel": 0,
      "note": 45,
      "start": 26.9802,
      "duration": 0.3834,
      "velocity": 108,
      "chip": "ym2612"
    },
    {
      "channel": 1,
      "note": 69,
      "start": 26.9809,
      "duration": 0.1993,
      "velocity": 113,
      "chip": "ym2612"
    },
    {
      "channel": 2,
      "note": 69,
      "start": 26.9815,
      "duration": 0.1993,
      "velocity": 113,
      "chip": "ym2612"
    },
    {
      "channel": 3,
      "note": 69,
      "start": 27.0311,
      "duration": 0.183,
      "velocity": 113,
      "chip": "ym2612"
    },
    {
      "channel": 1,
      "note": 74,
      "start": 27.1807,
      "duration": 0.1835,
      "velocity": 113,
      "chip": "ym2612"
    },
    {
      "channel": 2,
      "note": 78,
      "start": 27.1814,
      "duration": 0.1835,
      "velocity": 113,
      "chip": "ym2612"
    },
    {
      "channel": 3,
      "note": 78,
      "start": 27.2147,
      "duration": 0.1995,
      "velocity": 113,
      "chip": "ym2612"
    },
    {
      "channel": 0,
      "note": 50,
      "start": 27.3641,
      "duration": 0.3832,
      "velocity": 108,
      "chip": "ym2612"
    },
    {
      "channel": 1,
      "note": 81,
      "start": 27.3648,
      "duration": 0.0991,
      "velocity": 113,
      "chip": "ym2612"
    },
    {
      "channel": 4,
      "note": 77,
      "start": 27.3661,
      "duration": 0.0488,
      "velocity": 73,
      "chip": "ym2612"
    },
    {
      "channel": 3,
      "note": 81,
      "start": 27.4148,
      "duration": 0.0835,
      "velocity": 113,
      "chip": "ym2612"
    },
    {
      "channel": 4,
      "note": 78,
      "start": 27.4155,
      "duration": 0.1336,
      "velocity": 73,
      "chip": "ym2612"
    },
    {
      "channel": 2,
      "note": 69,
      "start": 27.4647,
      "duration": 0.0332,
      "velocity": 113,
      "chip": "ym2612"
    },
    {
      "channel": 1,
      "note": 74,
      "start": 27.4978,
      "duration": 0.0495,
      "velocity": 113,
      "chip": "ym2612"
    },
    {
      "channel": 3,
      "note": 69,
      "start": 27.4988,
      "duration": 0.0495,
      "velocity": 113,
      "chip": "ym2612"
    },
    {
      "channel": 2,
      "note": 78,
      "start": 27.5482,
      "duration": 0.1,
      "velocity": 113,
      "chip": "ym2612"
    },
    {
      "channel": 3,
      "note": 74,
      "start": 27.5489,
      "duration": 0.0489,
      "velocity": 113,
      "chip": "ym2612"
    },
    {
      "channel": 4,
      "note": 78,
      "start": 27.5496,
      "duration": 0.0992,
      "velocity": 73,
      "chip": "ym2612"
    },
    {
      "channel": 3,
      "note": 78,
      "start": 27.5983,
      "duration": 0.0996,
      "velocity": 113,
      "chip": "ym2612"
    },
    {
      "channel": 1,
      "note": 81,
      "start": 27.648,
      "duration": 0.0999,
      "velocity": 113,
      "chip": "ym2612"
    },
    {
      "channel": 4,
      "note": 78,
      "start": 27.6493,
      "duration": 0.1,
      "velocity": 73,
      "chip": "ym2612"
    },
    {
      "channel": 5,
      "note": 77,
      "start": 27.6657,
      "duration": 0.0495,
      "velocity": 73,
      "chip": "ym2612"
    },
    {
      "channel": 3,
      "note": 81,
      "start": 27.6985,
      "duration": 0.0996,
      "velocity": 113,
      "chip": "ym2612"
    },
    {
      "channel": 5,
      "note": 78,
      "start": 27.7157,
      "duration": 0.1496,
      "velocity": 73,
      "chip": "ym2612"
    },
    {
      "channel": 0,
      "note": 45,
      "start": 27.7478,
      "duration": 0.3666,
      "velocity": 108,
      "chip": "ym2612"
    },
    {
      "channel": 2,
      "note": 83,
      "start": 27.7488,
      "duration": 0.0829,
      "velocity": 113,
      "chip": "ym2612"
    },
    {
      "channel": 4,
      "note": 77,
      "start": 27.7499,
      "duration": 0.0488,
      "velocity": 73,
      "chip": "ym2612"
    },
    {
      "channel": 3,
      "note": 83,
      "start": 27.7986,
      "duration": 0.0829,
      "velocity": 113,
      "chip": "ym2612"
    },
    {
      "channel": 4,
      "note": 78,
      "start": 27.7993,
      "duration": 0.1332,
      "velocity": 73,
      "chip": "ym2612"
    },
    {
      "channel": 1,
      "note": 81,
      "start": 27.8316,
      "duration": 0.0996,
      "velocity": 113,
      "chip": "ym2612"
    },
    {
      "channel": 5,
      "note": 78,
      "start": 27.8659,
      "duration": 0.0829,
      "velocity": 73,
      "chip": "ym2612"
    },
    {
      "channel": 3,
      "note": 81,
      "start": 27.882,
      "duration": 0.0996,
      "velocity": 113,
      "chip": "ym2612"
    },
    {
      "channel": 2,
      "note": 78,
      "start": 27.932,
      "duration": 0.1,
      "velocity": 113,
      "chip": "ym2612"
    },
    {
      "channel": 4,
      "note": 78,
      "start": 27.933,
      "duration": 0.0996,
      "velocity": 73,
      "chip": "ym2612"
    },
    {
      "channel": 5,
      "note": 78,
      "start": 27.9494,
      "duration": 0.0997,
      "velocity": 73,
      "chip": "ym2612"
    },
    {
      "channel": 3,
      "note": 78,
      "start": 27.9821,
      "duration": 0.0996,
      "velocity": 113,
      "chip": "ym2612"
    },
    {
      "channel": 1,
      "note": 76,
      "start": 28.0318,
      "duration": 0.0833,
      "velocity": 113,
      "chip": "ym2612"
    },
    {
      "channel": 4,
      "note": 78,
      "start": 28.0331,
      "duration": 0.0834,
      "velocity": 73,
      "chip": "ym2612"
    },
    {
      "channel": 5,
      "note": 77,
      "start": 28.0496,
      "duration": 0.0494,
      "velocity": 73,
      "chip": "ym2612"
    },
    {
      "channel": 3,
      "note": 76,
      "start": 28.0823,
      "duration": 0.0829,
      "velocity": 113,
      "chip": "ym2612"
    },
    {
      "channel": 5,
      "note": 78,
      "start": 28.0996,
      "duration": 0.1496,
      "velocity": 73,
      "chip": "ym2612"
    },
    {
      "channel": 0,
      "note": 50,
      "start": 28.115,
      "duration": 0.3833,
      "velocity": 108,
      "chip": "ym2612"
    },
    {
      "channel": 2,
      "note": 74,
      "start": 28.116,
      "duration": 0.1997,
      "velocity": 113,
      "chip": "ym2612"
    },
    {
      "channel": 4,
      "note": 77,
      "start": 28.1171,
      "duration": 0.0488,
      "velocity": 73,
      "chip": "ym2612"
    },
    {
      "channel": 3,
      "note": 74,
      "start": 28.1657,
      "duration": 0.1997,
      "velocity": 113,
      "chip": "ym2612"
    },
    {
      "channel": 4,
      "note": 78,
      "start": 28.1664,
      "duration": 0.1499,
      "velocity": 73,
      "chip": "ym2612"
    },
    {
      "channel": 5,
      "note": 78,
      "start": 28.2498,
      "duration": 0.0829,
      "velocity": 73,
      "chip": "ym2612"
    },
    {
      "channel": 1,
      "note": 74,
      "start": 28.3155,
      "duration": 0.0829,
      "velocity": 113,
      "chip": "ym2612"
    },
    {
      "channel": 4,
      "note": 78,
      "start": 28.3168,
      "duration": 0.0829,
      "velocity": 73,
      "chip": "ym2612"
    },
    {
      "channel": 5,
      "note": 78,
      "start": 28.3332,
      "duration": 0.0997,
      "velocity": 73,
      "chip": "ym2612"
    },
    {
      "channel": 3,
      "note": 74,
      "start": 28.366,
      "duration": 0.0829,
      "velocity": 113,
      "chip": "ym2612"
    },
    {
      "channel": 2,
      "note": 77,
      "start": 28.3993,
      "duration": 0.1004,
      "velocity": 113,
      "chip": "ym2612"
    },
    {
      "channel": 4,
      "note": 78,
      "start": 28.4002,
      "duration": 0.1,
      "velocity": 73,
      "chip": "ym2612"
    },
    {
      "channel": 5,
      "note": 77,
      "start": 28.4334,
      "duration": 0.0494,
      "velocity": 73,
      "chip": "ym2612"
    },
    {
      "channel": 3,
      "note": 77,
      "start": 28.4494,
      "duration": 0.0996,
      "velocity": 113,
      "chip": "ym2612"
    },
    {
      "channel": 5,
      "note": 78,
      "start": 28.4834,
      "duration": 0.1329,
      "velocity": 73,
      "chip": "ym2612"
    },
    {
      "channel": 0,
      "note": 50,
      "start": 28.4988,
      "duration": 0.3833,
      "velocity": 108,
      "chip": "ym2612"
    },
    {
      "channel": 1,
      "note": 78,
      "start": 28.4995,
      "duration": 0.0992,
      "velocity": 113,
      "chip": "ym2612"
    },
    {
      "channel": 4,
      "note": 77,
      "start": 28.5009,
      "duration": 0.0991,
      "velocity": 73,
      "chip": "ym2612"
    },
    {
      "channel": 3,
      "note": 78,
      "start": 28.5495,
      "duration": 0.0996,
      "velocity": 113,
      "chip": "ym2612"
    },
    {
      "channel": 2,
      "note": 74,
      "start": 28.5995,
      "duration": 0.1,
      "velocity": 113,
      "chip": "ym2612"
    },
    {
      "channel": 4,
      "note": 78,
      "start": 28.6005,
      "duration": 0.0996,
      "velocity": 73,
      "chip": "ym2612"
    },
    {
      "channel": 5,
      "note": 78,
      "start": 28.6169,
      "duration": 0.0996,
      "velocity": 73,
      "chip": "ym2612"
    },
    {
      "channel": 3,
      "note": 74,
      "start": 28.6497,
      "duration": 0.0829,
      "velocity": 113,
      "chip": "ym2612"
    },
    {
      "channel": 1,
      "note": 71,
      "start": 28.6994,
      "duration": 0.1834,
      "velocity": 113,
      "chip": "ym2612"
    },
    {
      "channel": 4,
      "note": 77,
      "start": 28.7007,
      "duration": 0.0823,
      "velocity": 73,
      "chip": "ym2612"
    },
    {
      "channel": 5,
      "note": 78,
      "start": 28.717,
      "duration": 0.0997,
      "velocity": 73,
      "chip": "ym2612"
    },
    {
      "channel": 3,
      "note": 71,
      "start": 28.7331,
      "duration": 0.1997,
      "velocity": 113,
      "chip": "ym2612"
    },
    {
      "channel": 4,
      "note": 78,
      "start": 28.7835,
      "duration": 0.1006,
      "velocity": 73,
      "chip": "ym2612"
    },
    {
      "channel": 5,
      "note": 77,
      "start": 28.8172,
      "duration": 0.0828,
      "velocity": 73,
      "chip": "ym2612"
    },
    {
      "channel": 0,
      "note": 45,
      "start": 28.8826,
      "duration": 0.3833,
      "velocity": 108,
      "chip": "ym2612"
    },
    {
      "channel": 2,
      "note": 69,
      "start": 28.8836,
      "duration": 0.183,
      "velocity": 113,
      "chip": "ym2612"
    },
    {
      "channel": 4,
      "note": 76,
      "start": 28.8846,
      "duration": 1.5181,
      "velocity": 73,
      "chip": "ym2612"
    },
    {
      "channel": 5,
      "note": 78,
      "start": 28.9006,
      "duration": 0.0996,
      "velocity": 73,
      "chip": "ym2612"
    },
    {
      "channel": 3,
      "note": 69,
      "start": 28.9334,
      "duration": 0.183,
      "velocity": 113,
      "chip": "ym2612"
    },
    {
      "channel": 5,
      "note": 77,
      "start": 29.0007,
      "duration": 0.0996,
      "velocity": 73,
      "chip": "ym2612"
    },
    {
      "channel": 1,
      "note": 80,
      "start": 29.0665,
      "duration": 0.0996,
      "velocity": 113,
      "chip": "ym2612"
    },
    {
      "channel": 5,
      "note": 78,
      "start": 29.1008,
      "duration": 0.0829,
      "velocity": 73,
      "chip": "ym2612"
    },
    {
      "channel": 3,
      "note": 80,
      "start": 29.1169,
      "duration": 0.0996,
      "velocity": 113,
      "chip": "ym2612"
    },
    {
      "channel": 2,
      "note": 81,
      "start": 29.1669,
      "duration": 0.1004,
      "velocity": 113,
      "chip": "ym2612"
    },
    {
      "channel": 5,
      "note": 76,
      "start": 29.1843,
      "duration": 1.5181,
      "velocity": 73,
      "chip": "ym2612"
    },
    {
      "channel": 3,
      "note": 81,
      "start": 29.2171,
      "duration": 0.0996,
      "velocity": 113,
      "chip": "ym2612"
    },
    {
      "channel": 0,
      "note": 52,
      "start": 29.2664,
      "duration": 0.3666,
      "velocity": 108,
      "chip": "ym2612"
    },
    {
      "channel": 1,
      "note": 86,
      "start": 29.2671,
      "duration": 0.0825,
      "velocity": 113,
      "chip": "ym2612"
    },
    {
      "channel": 3,
      "note": 86,
      "start": 29.3172,
      "duration": 0.0829,
      "velocity": 113,
      "chip": "ym2612"
    },
    {
      "channel": 2,
      "note": 80,
      "start": 29.3505,
      "duration": 0.1,
      "velocity": 113,
      "chip": "ym2612"
    },
    {
      "channel": 3,
      "note": 80,
      "start": 29.4006,
      "duration": 0.0996,
      "velocity": 113,
      "chip": "ym2612"
    },
    {
      "channel": 1,
      "note": 81,
      "start": 29.4503,
      "duration": 0.0996,
      "velocity": 113,
      "chip": "ym2612"
    },
    {
      "channel": 3,
      "note": 81,
      "start": 29.5008,
      "duration": 0.0996,
      "velocity": 113,
      "chip": "ym2612"
    },
    {
      "channel": 2,
      "note": 86,
      "start": 29.5507,
      "duration": 0.0837,
      "velocity": 113,
      "chip": "ym2612"
    },
    {
      "channel": 3,
      "note": 86,
      "start": 29.6009,
      "duration": 0.0829,
      "velocity": 113,
      "chip": "ym2612"
    },
    {
      "channel": 0,
      "note": 45,
      "start": 29.6336,
      "duration": 0.1997,
      "velocity": 108,
      "chip": "ym2612"
    },
    {
      "channel": 1,
      "note": 80,
      "start": 29.6343,
      "duration": 0.0992,
      "velocity": 113,
      "chip": "ym2612"
    },
    {
      "channel": 3,
      "note": 80,
      "start": 29.6843,
      "duration": 0.0996,
      "velocity": 113,
      "chip": "ym2612"
    },
    {
      "channel": 2,
      "note": 81,
      "start": 29.7343,
      "duration": 0.1003,
      "velocity": 113,
      "chip": "ym2612"
    },
    {
      "channel": 3,
      "note": 81,
      "start": 29.7845,
      "duration": 0.0996,
      "velocity": 113,
      "chip": "ym2612"
    },
    {
      "channel": 0,
      "note": 45,
      "start": 29.8338,
      "duration": 0.1831,
      "velocity": 108,
      "chip": "ym2612"
    },
    {
      "channel": 1,
      "note": 80,
      "start": 29.8345,
      "duration": 0.0992,
      "velocity": 113,
      "chip": "ym2612"
    },
    {
      "channel": 3,
      "note": 80,
      "start": 29.8846,
      "duration": 0.0829,
      "velocity": 113,
      "chip": "ym2612"
    },
    {
      "channel": 2,
      "note": 81,
      "start": 29.9346,
      "duration": 0.0837,
      "velocity": 113,
      "chip": "ym2612"
    },
    {
      "channel": 3,
      "note": 81,
      "start": 29.968,
      "duration": 0.0996,
      "velocity": 113,
      "chip": "ym2612"
    },
    {
      "channel": 0,
      "note": 47,
      "start": 30.0174,
      "duration": 0.1997,
      "velocity": 108,
      "chip": "ym2612"
    },
    {
      "channel": 1,
      "note": 86,
      "start": 30.0181,
      "duration": 0.0992,
      "velocity": 113,
      "chip": "ym2612"
    },
    {
      "channel": 3,
      "note": 86,
      "start": 30.0682,
      "duration": 0.0996,
      "velocity": 113,
      "chip": "ym2612"
    },
    {
      "channel": 2,
      "note": 81,
      "start": 30.1182,
      "duration": 0.1003,
      "velocity": 113,
      "chip": "ym2612"
    },
    {
      "channel": 3,
      "note": 81,
      "start": 30.1683,
      "duration": 0.0829,
      "velocity": 113,
      "chip": "ym2612"
    },
    {
      "channel": 0,
      "note": 49,
      "start": 30.2177,
      "duration": 0.1831,
      "velocity": 108,
      "chip": "ym2612"
    },
    {
      "channel": 1,
      "note": 78,
      "start": 30.2183,
      "duration": 0.0825,
      "velocity": 113,
      "chip": "ym2612"
    },
    {
      "channel": 3,
      "note": 78,
      "start": 30.2517,
      "duration": 0.0996,
      "velocity": 113,
      "chip": "ym2612"
    },
    {
      "channel": 2,
      "note": 76,
      "start": 30.3017,
      "duration": 0.1004,
      "velocity": 113,
      "chip": "ym2612"
    },
    {
      "channel": 3,
      "note": 76,
      "start": 30.3519,
      "duration": 0.0996,
      "velocity": 113,
      "chip": "ym2612"
    },
    {
      "channel": 0,
      "note": 50,
      "start": 30.4012,
      "duration": 0.3833,
      "velocity": 108,
      "chip": "ym2612"
    },
    {
      "channel": 1,
      "note": 74,
      "start": 30.402,
      "duration": 0.0992,
      "velocity": 113,
      "chip": "ym2612"
    },
    {
      "channel": 4,
      "note": 74,
      "start": 30.4032,
      "duration": 0.0992,
      "velocity": 73,
      "chip": "ym2612"
    },
    {
      "channel": 3,
      "note": 74,
      "start": 30.452,
      "duration": 0.0835,
      "velocity": 113,
      "chip": "ym2612"
    },
    {
      "channel": 2,
      "note": 78,
      "start": 30.502,
      "duration": 0.0332,
      "velocity": 113,
      "chip": "ym2612"
    },
    {
      "channel": 4,
      "note": 78,
      "start": 30.503,
      "duration": 0.0833,
      "velocity": 73,
      "chip": "ym2612"
    },
    {
      "channel": 1,
      "note": 81,
      "start": 30.5351,
      "duration": 0.0495,
      "velocity": 113,
      "chip": "ym2612"
    },
    {
      "channel": 3,
      "note": 78,
      "start": 30.5361,
      "duration": 0.0495,
      "velocity": 113,
      "chip": "ym2612"
    },
    {
      "channel": 2,
      "note": 69,
      "start": 30.5854,
      "duration": 0.1,
      "velocity": 113,
      "chip": "ym2612"
    },
    {
      "channel": 3,
      "note": 81,
      "start": 30.5861,
      "duration": 0.0489,
      "velocity": 113,
      "chip": "ym2612"
    },
    {
      "channel": 4,
      "note": 81,
      "start": 30.5868,
      "duration": 0.0992,
      "velocity": 73,
      "chip": "ym2612"
    },
    {
      "channel": 3,
      "note": 69,
      "start": 30.6356,
      "duration": 0.0996,
      "velocity": 113,
      "chip": "ym2612"
    },
    {
      "channel": 1,
      "note": 74,
      "start": 30.6853,
      "duration": 0.1,
      "velocity": 113,
      "chip": "ym2612"
    },
    {
      "channel": 4,
      "note": 86,
      "start": 30.6866,
      "duration": 0.0999,
      "velocity": 73,
      "chip": "ym2612"
    },
    {
      "channel": 5,
      "note": 74,
      "start": 30.7029,
      "duration": 0.0996,
      "velocity": 73,
      "chip": "ym2612"
    },
    {
      "channel": 3,
      "note": 74,
      "start": 30.7357,
      "duration": 0.0996,
      "velocity": 113,
      "chip": "ym2612"
    },
    {
      "channel": 0,
      "note": 45,
      "start": 30.7851,
      "duration": 0.3666,
      "velocity": 108,
      "chip": "ym2612"
    },
    {
      "channel": 2,
      "note": 78,
      "start": 30.786,
      "duration": 0.0829,
      "velocity": 113,
      "chip": "ym2612"
    },
    {
      "channel": 4,
      "note": 89,
      "start": 30.7871,
      "duration": 0.0825,
      "velocity": 73,
      "chip": "ym2612"
    },
    {
      "channel": 5,
      "note": 78,
      "start": 30.803,
      "duration": 0.0996,
      "velocity": 73,
      "chip": "ym2612"
    },
    {
      "channel": 3,
      "note": 78,
      "start": 30.8358,
      "duration": 0.0829,
      "velocity": 113,
      "chip": "ym2612"
    },
    {
      "channel": 1,
      "note": 81,
      "start": 30.8688,
      "duration": 0.0996,
      "velocity": 113,
      "chip": "ym2612"
    },
    {
      "channel": 4,
      "note": 90,
      "start": 30.8701,
      "duration": 0.0996,
      "velocity": 73,
      "chip": "ym2612"
    },
    {
      "channel": 5,
      "note": 81,
      "start": 30.9032,
      "duration": 0.0996,
      "velocity": 73,
      "chip": "ym2612"
    },
    {
      "channel": 3,
      "note": 81,
      "start": 30.9193,
      "duration": 0.0996,
      "velocity": 113,
      "chip": "ym2612"
    },
    {
      "channel": 2,
      "note": 74,
      "start": 30.9692,
      "duration": 0.1,
      "velocity": 113,
      "chip": "ym2612"
    },
    {
      "channel": 4,
      "note": 88,
      "start": 30.9702,
      "duration": 0.0996,
      "velocity": 73,
      "chip": "ym2612"
    },
    {
      "channel": 5,
      "note": 86,
      "start": 31.0033,
      "duration": 0.0829,
      "velocity": 73,
      "chip": "ym2612"
    },
    {
      "channel": 3,
      "note": 74,
      "start": 31.0194,
      "duration": 0.0996,
      "velocity": 113,
      "chip": "ym2612"
    },
    {
      "channel": 1,
      "note": 77,
      "start": 31.0691,
      "duration": 0.0833,
      "velocity": 113,
      "chip": "ym2612"
    },
    {
      "channel": 4,
      "note": 86,
      "start": 31.0704,
      "duration": 0.0833,
      "velocity": 73,
      "chip": "ym2612"
    },
    {
      "channel": 5,
      "note": 89,
      "start": 31.0868,
      "duration": 0.0996,
      "velocity": 73,
      "chip": "ym2612"
    },
    {
      "channel": 3,
      "note": 77,
      "start": 31.1195,
      "duration": 0.0829,
      "velocity": 113,
      "chip": "ym2612"
    },
    {
      "channel": 0,
      "note": 50,
      "start": 31.1522,
      "duration": 0.3833,
      "velocity": 108,
      "chip": "ym2612"
    },
    {
      "channel": 2,
      "note": 78,
      "start": 31.1532,
      "duration": 0.0996,
      "velocity": 113,
      "chip": "ym2612"
    },
    {
      "channel": 4,
      "note": 81,
      "start": 31.1542,
      "duration": 0.0992,
      "velocity": 73,
      "chip": "ym2612"
    },
    {
      "channel": 5,
      "note": 90,
      "start": 31.1869,
      "duration": 0.0996,
      "velocity": 73,
      "chip": "ym2612"
    },
    {
      "channel": 3,
      "note": 78,
      "start": 31.2029,
      "duration": 0.0996,
      "velocity": 113,
      "chip": "ym2612"
    },
    {
      "channel": 1,
      "note": 81,
      "start": 31.2527,
      "duration": 0.0996,
      "velocity": 113,
      "chip": "ym2612"
    },
    {
      "channel": 4,
      "note": 83,
      "start": 31.2539,
      "duration": 0.0996,
      "velocity": 73,
      "chip": "ym2612"
    },
    {
      "channel": 5,
      "note": 88,
      "start": 31.287,
      "duration": 0.0829,
      "velocity": 73,
      "chip": "ym2612"
    },
    {
      "channel": 3,
      "note": 81,
      "start": 31.3031,
      "duration": 0.0996,
      "velocity": 113,
      "chip": "ym2612"
    },
    {
      "channel": 2,
      "note": 86,
      "start": 31.3531,
      "duration": 0.1,
      "velocity": 113,
      "chip": "ym2612"
    },
    {
      "channel": 4,
      "note": 86,
      "start": 31.3541,
      "duration": 0.0995,
      "velocity": 73,
      "chip": "ym2612"
    },
    {
      "channel": 5,
      "note": 86,
      "start": 31.3705,
      "duration": 0.0996,
      "velocity": 73,
      "chip": "ym2612"
    },
    {
      "channel": 3,
      "note": 86,
      "start": 31.4032,
      "duration": 0.0829,
      "velocity": 113,
      "chip": "ym2612"
    },
    {
      "channel": 1,
      "note": 78,
      "start": 31.4529,
      "duration": 0.0833,
      "velocity": 113,
      "chip": "ym2612"
    },
    {
      "channel": 4,
      "note": 81,
      "start": 31.4542,
      "duration": 0.0833,
      "velocity": 73,
      "chip": "ym2612"
    },
    {
      "channel": 5,
      "note": 81,
      "start": 31.4706,
      "duration": 0.0996,
      "velocity": 73,
      "chip": "ym2612"
    },
    {
      "channel": 3,
      "note": 78,
      "start": 31.4866,
      "duration": 0.0996,
      "velocity": 113,
      "chip": "ym2612"
    },
    {
      "channel": 0,
      "note": 50,
      "start": 31.536,
      "duration": 0.3833,
      "velocity": 108,
      "chip": "ym2612"
    },
    {
      "channel": 2,
      "note": 81,
      "start": 31.537,
      "duration": 0.0996,
      "velocity": 113,
      "chip": "ym2612"
    },
    {
      "channel": 4,
      "note": 83,
      "start": 31.538,
      "duration": 0.0992,
      "velocity": 73,
      "chip": "ym2612"
    },
    {
      "channel": 5,
      "note": 83,
      "start": 31.5707,
      "duration": 0.0829,
      "velocity": 73,
      "chip": "ym2612"
    },
    {
      "channel": 3,
      "note": 81,
      "start": 31.5868,
      "duration": 0.0996,
      "velocity": 113,
      "chip": "ym2612"
    },
    {
      "channel": 1,
      "note": 86,
      "start": 31.6365,
      "duration": 0.0996,
      "velocity": 113,
      "chip": "ym2612"
    },
    {
      "channel": 4,
      "note": 86,
      "start": 31.6378,
      "duration": 0.0996,
      "velocity": 73,
      "chip": "ym2612"
    },
    {
      "channel": 5,
      "note": 86,
      "start": 31.6541,
      "duration": 0.0996,
      "velocity": 73,
      "chip": "ym2612"
    },
    {
      "channel": 3,
      "note": 86,
      "start": 31.6869,
      "duration": 0.0829,
      "velocity": 113,
      "chip": "ym2612"
    },
    {
      "channel": 2,
      "note": 78,
      "start": 31.7369,
      "duration": 0.0833,
      "velocity": 113,
      "chip": "ym2612"
    },
    {
      "channel": 4,
      "note": 81,
      "start": 31.7379,
      "duration": 0.0829,
      "velocity": 73,
      "chip": "ym2612"
    },
    {
      "channel": 5,
      "note": 81,
      "start": 31.7543,
      "duration": 0.0996,
      "velocity": 73,
      "chip": "ym2612"
    },
    {
      "channel": 3,
      "note": 78,
      "start": 31.7703,
      "duration": 0.0996,
      "velocity": 113,
      "chip": "ym2612"
    },
    {
      "channel": 1,
      "note": 81,
      "start": 31.8201,
      "duration": 0.0999,
      "velocity": 113,
      "chip": "ym2612"
    },
    {
      "channel": 4,
      "note": 83,
      "start": 31.8214,
      "duration": 0.0999,
      "velocity": 73,
      "chip": "ym2612"
    },
    {
      "channel": 5,
      "note": 83,
      "start": 31.8544,
      "duration": 0.0829,
      "velocity": 73,
      "chip": "ym2612"
    },
    {
      "channel": 3,
      "note": 81,
      "start": 31.8705,
      "duration": 0.0995,
      "velocity": 113,
      "chip": "ym2612"
    },
    {
      "channel": 0,
      "note": 55,
      "start": 31.9199,
      "duration": 0.3833,
      "velocity": 108,
      "chip": "ym2612"
    },
    {
      "channel": 2,
      "note": 79,
      "start": 31.9209,
      "duration": 0.0996,
      "velocity": 113,
      "chip": "ym2612"
    },
    {
      "channel": 4,
      "note": 86,
      "start": 31.9219,
      "duration": 0.1826,
      "velocity": 73,
      "chip": "ym2612"
    },
    {
      "channel": 5,
      "note": 86,
      "start": 31.9378,
      "duration": 0.0996,
      "velocity": 73,
      "chip": "ym2612"
    },
    {
      "channel": 3,
      "note": 79,
      "start": 31.9706,
      "duration": 0.0996,
      "velocity": 113,
      "chip": "ym2612"
    },
    {
      "channel": 1,
      "note": 83,
      "start": 32.0203,
      "duration": 0.0829,
      "velocity": 113,
      "chip": "ym2612"
    },
    {
      "channel": 5,
      "note": 81,
      "start": 32.038,
      "duration": 0.0996,
      "velocity": 73,
      "chip": "ym2612"
    },
    {
      "channel": 3,
      "note": 83,
      "start": 32.0707,
      "duration": 0.0829,
      "velocity": 113,
      "chip": "ym2612"
    },
    {
      "channel": 2,
      "note": 86,
      "start": 32.104,
      "duration": 0.1,
      "velocity": 113,
      "chip": "ym2612"
    },
    {
      "channel": 4,
      "note": 86,
      "start": 32.1049,
      "duration": 0.0997,
      "velocity": 73,
      "chip": "ym2612"
    },
    {
      "channel": 5,
      "note": 83,
      "start": 32.1381,
      "duration": 0.0829,
      "velocity": 73,
      "chip": "ym2612"
    },
    {
      "channel": 3,
      "note": 86,
      "start": 32.1542,
      "duration": 0.0996,
      "velocity": 113,
      "chip": "ym2612"
    },
    {
      "channel": 1,
      "note": 79,
      "start": 32.2039,
      "duration": 0.1,
      "velocity": 113,
      "chip": "ym2612"
    },
    {
      "channel": 4,
      "note": 86,
      "start": 32.205,
      "duration": 0.1001,
      "velocity": 73,
      "chip": "ym2612"
    },
    {
      "channel": 5,
      "note": 86,
      "start": 32.2215,
      "duration": 0.1997,
      "velocity": 73,
      "chip": "ym2612"
    },
    {
      "channel": 3,
      "note": 79,
      "start": 32.2543,
      "duration": 0.0996,
      "velocity": 113,
      "chip": "ym2612"
    },
    {
      "channel": 0,
      "note": 50,
      "start": 32.3037,
      "duration": 0.3666,
      "velocity": 108,
      "chip": "ym2612"
    },
    {
      "channel": 2,
      "note": 83,
      "start": 32.3047,
      "duration": 0.0829,
      "velocity": 113,
      "chip": "ym2612"
    },
    {
      "channel": 4,
      "note": 86,
      "start": 32.3055,
      "duration": 0.0827,
      "velocity": 73,
      "chip": "ym2612"
    },
    {
      "channel": 3,
      "note": 83,
      "start": 32.3544,
      "duration": 0.0829,
      "velocity": 113,
      "chip": "ym2612"
    },
    {
      "channel": 1,
      "note": 86,
      "start": 32.3874,
      "duration": 0.0996,
      "velocity": 113,
      "chip": "ym2612"
    },
    {
      "channel": 4,
      "note": 83,
      "start": 32.3888,
      "duration": 0.0995,
      "velocity": 73,
      "chip": "ym2612"
    },
    {
      "channel": 5,
      "note": 86,
      "start": 32.4216,
      "duration": 0.0998,
      "velocity": 73,
      "chip": "ym2612"
    },
    {
      "channel": 3,
      "note": 86,
      "start": 32.4379,
      "duration": 0.0996,
      "velocity": 113,
      "chip": "ym2612"
    },
    {
      "channel": 2,
      "note": 74,
      "start": 32.4879,
      "duration": 0.1,
      "velocity": 113,
      "chip": "ym2612"
    },
    {
      "channel": 4,
      "note": 81,
      "start": 32.4889,
      "duration": 0.1834,
      "velocity": 73,
      "chip": "ym2612"
    },
    {
      "channel": 5,
      "note": 86,
      "start": 32.5218,
      "duration": 0.083,
      "velocity": 73,
      "chip": "ym2612"
    },
    {
      "channel": 3,
      "note": 74,
      "start": 32.538,
      "duration": 0.0996,
      "velocity": 113,
      "chip": "ym2612"
    },
    {
      "channel": 1,
      "note": 79,
      "start": 32.5877,
      "duration": 0.0833,
      "velocity": 113,
      "chip": "ym2612"
    },
    {
      "channel": 5,
      "note": 86,
      "start": 32.6052,
      "duration": 0.0997,
      "velocity": 73,
      "chip": "ym2612"
    },
    {
      "channel": 3,
      "note": 79,
      "start": 32.6381,
      "duration": 0.0829,
      "velocity": 113,
      "chip": "ym2612"
    },
    {
      "channel": 0,
      "note": 55,
      "start": 32.6708,
      "duration": 0.3833,
      "velocity": 108,
      "chip": "ym2612"
    },
    {
      "channel": 2,
      "note": 83,
      "start": 32.6718,
      "duration": 0.0996,
      "velocity": 113,
      "chip": "ym2612"
    },
    {
      "channel": 4,
      "note": 77,
      "start": 32.6728,
      "duration": 0.2994,
      "velocity": 73,
      "chip": "ym2612"
    },
    {
      "channel": 5,
      "note": 83,
      "start": 32.7055,
      "duration": 0.0996,
      "velocity": 73,
      "chip": "ym2612"
    },
    {
      "channel": 3,
      "note": 83,
      "start": 32.7216,
      "duration": 0.0996,
      "velocity": 113,
      "chip": "ym2612"
    },
    {
      "channel": 1,
      "note": 86,
      "start": 32.7713,
      "duration": 0.0996,
      "velocity": 113,
      "chip": "ym2612"
    },
    {
      "channel": 5,
      "note": 81,
      "start": 32.8056,
      "duration": 0.183,
      "velocity": 73,
      "chip": "ym2612"
    },
    {
      "channel": 3,
      "note": 86,
      "start": 32.8217,
      "duration": 0.0995,
      "velocity": 113,
      "chip": "ym2612"
    },
    {
      "channel": 2,
      "note": 79,
      "start": 32.8717,
      "duration": 0.1,
      "velocity": 113,
      "chip": "ym2612"
    },
    {
      "channel": 3,
      "note": 79,
      "start": 32.9218,
      "duration": 0.0829,
      "velocity": 113,
      "chip": "ym2612"
    },
    {
      "channel": 1,
      "note": 83,
      "start": 32.9715,
      "duration": 0.0832,
      "velocity": 113,
      "chip": "ym2612"
    },
    {
      "channel": 4,
      "note": 76,
      "start": 32.9728,
      "duration": 0.2831,
      "velocity": 73,
      "chip": "ym2612"
    },
    {
      "channel": 5,
      "note": 77,
      "start": 32.9892,
      "duration": 0.2832,
      "velocity": 73,
      "chip": "ym2612"
    },
    {
      "channel": 3,
      "note": 83,
      "start": 33.0053,
      "duration": 0.0996,
      "velocity": 113,
      "chip": "ym2612"
    },
    {
      "channel": 0,
      "note": 55,
      "start": 33.0546,
      "duration": 0.3833,
      "velocity": 108,
      "chip": "ym2612"
    },
    {
      "channel": 2,
      "note": 86,
      "start": 33.0556,
      "duration": 0.0996,
      "velocity": 113,
      "chip": "ym2612"
    },
    {
      "channel": 3,
      "note": 86,
      "start": 33.1054,
      "duration": 0.0996,
      "velocity": 113,
      "chip": "ym2612"
    },
    {
      "channel": 1,
      "note": 79,
      "start": 33.1551,
      "duration": 0.0996,
      "velocity": 113,
      "chip": "ym2612"
    },
    {
      "channel": 3,
      "note": 79,
      "start": 33.2055,
      "duration": 0.0829,
      "velocity": 113,
      "chip": "ym2612"
    },
    {
      "channel": 2,
      "note": 83,
      "start": 33.2555,
      "duration": 0.0833,
      "velocity": 113,
      "chip": "ym2612"
    },
    {
      "channel": 4,
      "note": 74,
      "start": 33.2565,
      "duration": 0.1834,
      "velocity": 73,
      "chip": "ym2612"
    },
    {
      "channel": 5,
      "note": 76,
      "start": 33.2729,
      "duration": 0.2831,
      "velocity": 73,
      "chip": "ym2612"
    },
    {
      "channel": 3,
      "note": 83,
      "start": 33.289,
      "duration": 0.0996,
      "velocity": 113,
      "chip": "ym2612"
    },
    {
      "channel": 1,
      "note": 86,
      "start": 33.3387,
      "duration": 0.1,
      "velocity": 113,
      "chip": "ym2612"
    },
    {
      "channel": 3,
      "note": 86,
      "start": 33.3891,
      "duration": 0.0996,
      "velocity": 113,
      "chip": "ym2612"
    },
    {
      "channel": 0,
      "note": 45,
      "start": 33.4385,
      "duration": 0.3833,
      "velocity": 108,
      "chip": "ym2612"
    },
    {
      "channel": 2,
      "note": 77,
      "start": 33.4395,
      "duration": 0.0996,
      "velocity": 113,
      "chip": "ym2612"
    },
    {
      "channel": 4,
      "note": 77,
      "start": 33.4405,
      "duration": 0.0992,
      "velocity": 73,
      "chip": "ym2612"
    },
    {
      "channel": 3,
      "note": 77,
      "start": 33.4892,
      "duration": 0.0996,
      "velocity": 113,
      "chip": "ym2612"
    },
    {
      "channel": 1,
      "note": 78,
      "start": 33.5389,
      "duration": 0.0829,
      "velocity": 113,
      "chip": "ym2612"
    },
    {
      "channel": 4,
      "note": 78,
      "start": 33.5402,
      "duration": 0.0829,
      "velocity": 73,
      "chip": "ym2612"
    },
    {
      "channel": 5,
      "note": 74,
      "start": 33.5566,
      "duration": 0.183,
      "velocity": 73,
      "chip": "ym2612"
    },
    {
      "channel": 3,
      "note": 78,
      "start": 33.5894,
      "duration": 0.0829,
      "velocity": 113,
      "chip": "ym2612"
    },
    {
      "channel": 2,
      "note": 81,
      "start": 33.6227,
      "duration": 0.1,
      "velocity": 113,
      "chip": "ym2612"
    },
    {
      "channel": 4,
      "note": 81,
      "start": 33.6237,
      "duration": 0.0996,
      "velocity": 73,
      "chip": "ym2612"
    },
    {
      "channel": 3,
      "note": 81,
      "start": 33.6728,
      "duration": 0.0996,
      "velocity": 113,
      "chip": "ym2612"
    },
    {
      "channel": 1,
      "note": 83,
      "start": 33.7225,
      "duration": 0.0999,
      "velocity": 113,
      "chip": "ym2612"
    },
    {
      "channel": 4,
      "note": 83,
      "start": 33.7238,
      "duration": 0.0999,
      "velocity": 73,
      "chip": "ym2612"
    },
    {
      "channel": 5,
      "note": 77,
      "start": 33.7402,
      "duration": 0.0996,
      "velocity": 73,
      "chip": "ym2612"
    },
    {
      "channel": 3,
      "note": 83,
      "start": 33.7729,
      "duration": 0.0996,
      "velocity": 113,
      "chip": "ym2612"
    },
    {
      "channel": 0,
      "note": 52,
      "start": 33.8223,
      "duration": 0.3833,
      "velocity": 108,
      "chip": "ym2612"
    },
    {
      "channel": 2,
      "note": 81,
      "start": 33.8233,
      "duration": 0.0829,
      "velocity": 113,
      "chip": "ym2612"
    },
    {
      "channel": 4,
      "note": 81,
      "start": 33.8243,
      "duration": 0.0825,
      "velocity": 73,
      "chip": "ym2612"
    },
    {
      "channel": 5,
      "note": 78,
      "start": 33.8403,
      "duration": 0.0996,
      "velocity": 73,
      "chip": "ym2612"
    },
    {
      "channel": 3,
      "note": 81,
      "start": 33.8731,
      "duration": 0.0829,
      "velocity": 113,
      "chip": "ym2612"
    },
    {
      "channel": 1,
      "note": 78,
      "start": 33.9061,
      "duration": 0.0996,
      "velocity": 113,
      "chip": "ym2612"
    },
    {
      "channel": 4,
      "note": 78,
      "start": 33.9073,
      "duration": 0.0996,
      "velocity": 73,
      "chip": "ym2612"
    },
    {
      "channel": 5,
      "note": 81,
      "start": 33.9404,
      "duration": 0.0996,
      "velocity": 73,
      "chip": "ym2612"
    },
    {
      "channel": 3,
      "note": 78,
      "start": 33.9565,
      "duration": 0.0996,
      "velocity": 113,
      "chip": "ym2612"
    },
    {
      "channel": 2,
      "note": 76,
      "start": 34.0065,
      "duration": 0.2005,
      "velocity": 113,
      "chip": "ym2612"
    },
    {
      "channel": 4,
      "note": 76,
      "start": 34.0075,
      "duration": 0.099,
      "velocity": 73,
      "chip": "ym2612"
    },
    {
      "channel": 5,
      "note": 83,
      "start": 34.0405,
      "duration": 0.0829,
      "velocity": 73,
      "chip": "ym2612"
    },
    {
      "channel": 3,
      "note": 76,
      "start": 34.0566,
      "duration": 0.183,
      "velocity": 113,
      "chip": "ym2612"
    },
    {
      "channel": 4,
      "note": 74,
      "start": 34.107,
      "duration": 0.1006,
      "velocity": 73,
      "chip": "ym2612"
    },
    {
      "channel": 5,
      "note": 81,
      "start": 34.124,
      "duration": 0.0996,
      "velocity": 73,
      "chip": "ym2612"
    },
    {
      "channel": 0,
      "note": 45,
      "start": 34.2061,
      "duration": 0.3666,
      "velocity": 108,
      "chip": "ym2612"
    },
    {
      "channel": 1,
      "note": 74,
      "start": 34.2068,
      "duration": 0.1827,
      "velocity": 113,
      "chip": "ym2612"
    },
    {
      "channel": 4,
      "note": 77,
      "start": 34.2081,
      "duration": 0.0819,
      "velocity": 73,
      "chip": "ym2612"
    },
    {
      "channel": 5,
      "note": 78,
      "start": 34.2241,
      "duration": 0.0996,
      "velocity": 73,
      "chip": "ym2612"
    },
    {
      "channel": 3,
      "note": 74,
      "start": 34.2402,
      "duration": 0.1997,
      "velocity": 113,
      "chip": "ym2612"
    },
    {
      "channel": 4,
      "note": 78,
      "start": 34.2906,
      "duration": 0.1002,
      "velocity": 73,
      "chip": "ym2612"
    },
    {
      "channel": 5,
      "note": 76,
      "start": 34.3242,
      "duration": 0.0829,
      "velocity": 73,
      "chip": "ym2612"
    },
    {
      "channel": 2,
      "note": 69,
      "start": 34.3903,
      "duration": 0.1,
      "velocity": 113,
      "chip": "ym2612"
    },
    {
      "channel": 4,
      "note": 76,
      "start": 34.3913,
      "duration": 0.0996,
      "velocity": 73,
      "chip": "ym2612"
    },
    {
      "channel": 5,
      "note": 74,
      "start": 34.4077,
      "duration": 0.0996,
      "velocity": 73,
      "chip": "ym2612"
    },
    {
      "channel": 3,
      "note": 69,
      "start": 34.4405,
      "duration": 0.0829,
      "velocity": 113,
      "chip": "ym2612"
    },
    {
      "channel": 1,
      "note": 71,
      "start": 34.4902,
      "duration": 0.0833,
      "velocity": 113,
      "chip": "ym2612"
    },
    {
      "channel": 4,
      "note": 77,
      "start": 34.4914,
      "duration": 0.0833,
      "velocity": 73,
      "chip": "ym2612"
    },
    {
      "channel": 5,
      "note": 77,
      "start": 34.5078,
      "duration": 0.0996,
      "velocity": 73,
      "chip": "ym2612"
    },
    {
      "channel": 3,
      "note": 71,
      "start": 34.5239,
      "duration": 0.0996,
      "velocity": 113,
      "chip": "ym2612"
    },
    {
      "channel": 0,
      "note": 52,
      "start": 34.5733,
      "duration": 0.3833,
      "velocity": 108,
      "chip": "ym2612"
    },
    {
      "channel": 2,
      "note": 74,
      "start": 34.5743,
      "duration": 0.0996,
      "velocity": 113,
      "chip": "ym2612"
    },
    {
      "channel": 4,
      "note": 78,
      "start": 34.5752,
      "duration": 0.0992,
      "velocity": 73,
      "chip": "ym2612"
    },
    {
      "channel": 5,
      "note": 78,
      "start": 34.6079,
      "duration": 0.0829,
      "velocity": 73,
      "chip": "ym2612"
    },
    {
      "channel": 3,
      "note": 74,
      "start": 34.624,
      "duration": 0.0996,
      "velocity": 113,
      "chip": "ym2612"
    },
    {
      "channel": 1,
      "note": 76,
      "start": 34.6737,
      "duration": 0.0996,
      "velocity": 113,
      "chip": "ym2612"
    },
    {
      "channel": 4,
      "note": 76,
      "start": 34.675,
      "duration": 0.0996,
      "velocity": 73,
      "chip": "ym2612"
    },
    {
      "channel": 5,
      "note": 76,
      "start": 34.6914,
      "duration": 0.0996,
      "velocity": 73,
      "chip": "ym2612"
    },
    {
      "channel": 3,
      "note": 76,
      "start": 34.7241,
      "duration": 0.0829,
      "velocity": 113,
      "chip": "ym2612"
    },
    {
      "channel": 2,
      "note": 77,
      "start": 34.7741,
      "duration": 0.0833,
      "velocity": 113,
      "chip": "ym2612"
    },
    {
      "channel": 4,
      "note": 77,
      "start": 34.7751,
      "duration": 0.1834,
      "velocity": 73,
      "chip": "ym2612"
    },
    {
      "channel": 5,
      "note": 77,
      "start": 34.7915,
      "duration": 0.0996,
      "velocity": 73,
      "chip": "ym2612"
    },
    {
      "channel": 3,
      "note": 77,
      "start": 34.8076,
      "duration": 0.0996,
      "velocity": 113,
      "chip": "ym2612"
    },
    {
      "channel": 1,
      "note": 78,
      "start": 34.8573,
      "duration": 0.1,
      "velocity": 113,
      "chip": "ym2612"
    },
    {
      "channel": 5,
      "note": 78,
      "start": 34.8916,
      "duration": 0.0829,
      "velocity": 73,
      "chip": "ym2612"
    },
    {
      "channel": 3,
      "note": 78,
      "start": 34.9077,
      "duration": 0.0996,
      "velocity": 113,
      "chip": "ym2612"
    },
    {
      "channel": 0,
      "note": 50,
      "start": 34.9571,
      "duration": 0.3833,
      "velocity": 108,
      "chip": "ym2612"
    },
    {
      "channel": 2,
      "note": 74,
      "start": 34.9581,
      "duration": 0.183,
      "velocity": 113,
      "chip": "ym2612"
    },
    {
      "channel": 4,
      "note": 74,
      "start": 34.9591,
      "duration": 1.1346,
      "velocity": 73,
      "chip": "ym2612"
    },
    {
      "channel": 5,
      "note": 76,
      "start": 34.9751,
      "duration": 0.0996,
      "velocity": 73,
      "chip": "ym2612"
    },
    {
      "channel": 3,
      "note": 74,
      "start": 35.0079,
      "duration": 0.183,
      "velocity": 113,
      "chip": "ym2612"
    },
    {
      "channel": 5,
      "note": 77,
      "start": 35.0752,
      "duration": 0.1997,
      "velocity": 73,
      "chip": "ym2612"
    },
    {
      "channel": 1,
      "note": 74,
      "start": 35.141,
      "duration": 0.0996,
      "velocity": 113,
      "chip": "ym2612"
    },
    {
      "channel": 3,
      "note": 74,
      "start": 35.1914,
      "duration": 0.0996,
      "velocity": 113,
      "chip": "ym2612"
    },
    {
      "channel": 2,
      "note": 77,
      "start": 35.2414,
      "duration": 0.1004,
      "velocity": 113,
      "chip": "ym2612"
    },
    {
      "channel": 5,
      "note": 74,
      "start": 35.2755,
      "duration": 1.1342,
      "velocity": 73,
      "chip": "ym2612"
    },
    {
      "channel": 3,
      "note": 77,
      "start": 35.2915,
      "duration": 0.0996,
      "velocity": 113,
      "chip": "ym2612"
    },
    {
      "channel": 0,
      "note": 45,
      "start": 35.3409,
      "duration": 0.3833,
      "velocity": 108,
      "chip": "ym2612"
    },
    {
      "channel": 1,
      "note": 78,
      "start": 35.3416,
      "duration": 0.0825,
      "velocity": 113,
      "chip": "ym2612"
    },
    {
      "channel": 3,
      "note": 78,
      "start": 35.3917,
      "duration": 0.0829,
      "velocity": 113,
      "chip": "ym2612"
    },
    {
      "channel": 2,
      "note": 74,
      "start": 35.425,
      "duration": 0.1,
      "velocity": 113,
      "chip": "ym2612"
    },
    {
      "channel": 3,
      "note": 74,
      "start": 35.4751,
      "duration": 0.0996,
      "velocity": 113,
      "chip": "ym2612"
    },
    {
      "channel": 1,
      "note": 71,
      "start": 35.5248,
      "duration": 0.2001,
      "velocity": 113,
      "chip": "ym2612"
    },
    {
      "channel": 3,
      "note": 71,
      "start": 35.5753,
      "duration": 0.1832,
      "velocity": 113,
      "chip": "ym2612"
    },
    {
      "channel": 0,
      "note": 50,
      "start": 35.7248,
      "duration": 0.3666,
      "velocity": 108,
      "chip": "ym2612"
    },
    {
      "channel": 1,
      "note": 74,
      "start": 35.7255,
      "duration": 0.1826,
      "velocity": 113,
      "chip": "ym2612"
    },
    {
      "channel": 2,
      "note": 74,
      "start": 35.7261,
      "duration": 0.1826,
      "velocity": 113,
      "chip": "ym2612"
    },
    {
      "channel": 3,
      "note": 74,
      "start": 35.759,
      "duration": 0.1997,
      "velocity": 113,
      "chip": "ym2612"
    },
    {
      "channel": 1,
      "note": 74,
      "start": 35.9086,
      "duration": 0.1834,
      "velocity": 113,
      "chip": "ym2612"
    },
    {
      "channel": 2,
      "note": 78,
      "start": 35.9093,
      "duration": 0.1834,
      "velocity": 113,
      "chip": "ym2612"
    },
    {
      "channel": 3,
      "note": 78,
      "start": 35.9593,
      "duration": 0.183,
      "velocity": 113,
      "chip": "ym2612"
    },
    {
      "channel": 0,
      "note": 45,
      "start": 36.0919,
      "duration": 0.3834,
      "velocity": 108,
      "chip": "ym2612"
    },
    {
      "channel": 1,
      "note": 69,
      "start": 36.0926,
      "duration": 0.1993,
      "velocity": 113,
      "chip": "ym2612"
    },
    {
      "channel": 2,
      "note": 69,
      "start": 36.0933,
      "duration": 0.1993,
      "velocity": 113,
      "chip": "ym2612"
    },
    {
      "channel": 3,
      "note": 69,
      "start": 36.1429,
      "duration": 0.1997,
      "velocity": 113,
      "chip": "ym2612"
    },
    {
      "channel": 1,
      "note": 74,
      "start": 36.2925,
      "duration": 0.1841,
      "velocity": 113,
      "chip": "ym2612"
    },
    {
      "channel": 2,
      "note": 78,
      "start": 36.2932,
      "duration": 0.1846,
      "velocity": 113,
      "chip": "ym2612"
    },
    {
      "channel": 3,
      "note": 78,
      "start": 36.3431,
      "duration": 0.1841,
      "velocity": 113,
      "chip": "ym2612"
    },
    {
      "channel": 0,
      "note": 50,
      "start": 36.4758,
      "duration": 0.3832,
      "velocity": 108,
      "chip": "ym2612"
    },
    {
      "channel": 1,
      "note": 81,
      "start": 36.4771,
      "duration": 0.0985,
      "velocity": 113,
      "chip": "ym2612"
    },
    {
      "channel": 3,
      "note": 81,
      "start": 36.5278,
      "duration": 0.0988,
      "velocity": 113,
      "chip": "ym2612"
    },
    {
      "channel": 2,
      "note": 69,
      "start": 36.5765,
      "duration": 0.0499,
      "velocity": 113,
      "chip": "ym2612"
    },
    {
      "channel": 1,
      "note": 74,
      "start": 36.6262,
      "duration": 0.0328,
      "velocity": 113,
      "chip": "ym2612"
    },
    {
      "channel": 3,
      "note": 69,
      "start": 36.6272,
      "duration": 0.0328,
      "velocity": 113,
      "chip": "ym2612"
    },
    {
      "channel": 2,
      "note": 78,
      "start": 36.6599,
      "duration": 0.1,
      "velocity": 113,
      "chip": "ym2612"
    },
    {
      "channel": 3,
      "note": 74,
      "start": 36.6606,
      "duration": 0.0489,
      "velocity": 113,
      "chip": "ym2612"
    },
    {
      "channel": 3,
      "note": 78,
      "start": 36.71,
      "duration": 0.0996,
      "velocity": 113,
      "chip": "ym2612"
    },
    {
      "channel": 1,
      "note": 81,
      "start": 36.7598,
      "duration": 0.1,
      "velocity": 113,
      "chip": "ym2612"
    },
    {
      "channel": 3,
      "note": 81,
      "start": 36.8102,
      "duration": 0.0996,
      "velocity": 113,
      "chip": "ym2612"
    },
    {
      "channel": 0,
      "note": 45,
      "start": 36.8595,
      "duration": 0.3834,
      "velocity": 108,
      "chip": "ym2612"
    },
    {
      "channel": 2,
      "note": 83,
      "start": 36.8605,
      "duration": 0.0829,
      "velocity": 113,
      "chip": "ym2612"
    },
    {
      "channel": 3,
      "note": 83,
      "start": 36.9103,
      "duration": 0.0829,
      "velocity": 113,
      "chip": "ym2612"
    },
    {
      "channel": 1,
      "note": 81,
      "start": 36.9433,
      "duration": 0.0996,
      "velocity": 113,
      "chip": "ym2612"
    },
    {
      "channel": 3,
      "note": 81,
      "start": 36.9937,
      "duration": 0.0996,
      "velocity": 113,
      "chip": "ym2612"
    },
    {
      "channel": 2,
      "note": 78,
      "start": 37.0437,
      "duration": 0.1,
      "velocity": 113,
      "chip": "ym2612"
    },
    {
      "channel": 3,
      "note": 78,
      "start": 37.0939,
      "duration": 0.0996,
      "velocity": 113,
      "chip": "ym2612"
    },
    {
      "channel": 1,
      "note": 76,
      "start": 37.1436,
      "duration": 0.1001,
      "velocity": 113,
      "chip": "ym2612"
    },
    {
      "channel": 3,
      "note": 76,
      "start": 37.194,
      "duration": 0.0829,
      "velocity": 113,
      "chip": "ym2612"
    },
    {
      "channel": 0,
      "note": 50,
      "start": 37.2435,
      "duration": 0.3665,
      "velocity": 108,
      "chip": "ym2612"
    },
    {
      "channel": 2,
      "note": 74,
      "start": 37.2445,
      "duration": 0.1829,
      "velocity": 113,
      "chip": "ym2612"
    },
    {
      "channel": 4,
      "note": 74,
      "start": 37.2453,
      "duration": 0.1827,
      "velocity": 73,
      "chip": "ym2612"
    },
    {
      "channel": 3,
      "note": 74,
      "start": 37.2774,
      "duration": 0.1997,
      "velocity": 113,
      "chip": "ym2612"
    },
    {
      "channel": 1,
      "note": 69,
      "start": 37.4273,
      "duration": 0.0996,
      "velocity": 113,
      "chip": "ym2612"
    },
    {
      "channel": 4,
      "note": 81,
      "start": 37.4286,
      "duration": 0.1834,
      "velocity": 73,
      "chip": "ym2612"
    },
    {
      "channel": 3,
      "note": 69,
      "start": 37.4777,
      "duration": 0.0829,
      "velocity": 113,
      "chip": "ym2612"
    },
    {
      "channel": 2,
      "note": 71,
      "start": 37.5277,
      "duration": 0.0837,
      "velocity": 113,
      "chip": "ym2612"
    },
    {
      "channel": 5,
      "note": 74,
      "start": 37.5449,
      "duration": 0.1832,
      "velocity": 73,
      "chip": "ym2612"
    },
    {
      "channel": 3,
      "note": 71,
      "start": 37.5611,
      "duration": 0.0996,
      "velocity": 113,
      "chip": "ym2612"
    },
    {
      "channel": 0,
      "note": 45,
      "start": 37.6105,
      "duration": 0.3834,
      "velocity": 108,
      "chip": "ym2612"
    },
    {
      "channel": 1,
      "note": 74,
      "start": 37.6112,
      "duration": 0.0992,
      "velocity": 113,
      "chip": "ym2612"
    },
    {
      "channel": 4,
      "note": 80,
      "start": 37.6125,
      "duration": 0.1993,
      "velocity": 73,
      "chip": "ym2612"
    },
    {
      "channel": 3,
      "note": 74,
      "start": 37.6613,
      "duration": 0.0996,
      "velocity": 113,
      "chip": "ym2612"
    },
    {
      "channel": 2,
      "note": 76,
      "start": 37.7112,
      "duration": 0.1,
      "velocity": 113,
      "chip": "ym2612"
    },
    {
      "channel": 5,
      "note": 81,
      "start": 37.7286,
      "duration": 0.1997,
      "velocity": 73,
      "chip": "ym2612"
    },
    {
      "channel": 3,
      "note": 76,
      "start": 37.7614,
      "duration": 0.0996,
      "velocity": 113,
      "chip": "ym2612"
    },
    {
      "channel": 1,
      "note": 77,
      "start": 37.8111,
      "duration": 0.0829,
      "velocity": 113,
      "chip": "ym2612"
    },
    {
      "channel": 4,
      "note": 79,
      "start": 37.8124,
      "duration": 0.1835,
      "velocity": 73,
      "chip": "ym2612"
    },
    {
      "channel": 3,
      "note": 77,
      "start": 37.8615,
      "duration": 0.0829,
      "velocity": 113,
      "chip": "ym2612"
    },
    {
      "channel": 2,
      "note": 78,
      "start": 37.8948,
      "duration": 0.1005,
      "velocity": 113,
      "chip": "ym2612"
    },
    {
      "channel": 5,
      "note": 80,
      "start": 37.9289,
      "duration": 0.183,
      "velocity": 73,
      "chip": "ym2612"
    },
    {
      "channel": 3,
      "note": 78,
      "start": 37.945,
      "duration": 0.0996,
      "velocity": 113,
      "chip": "ym2612"
    },
    {
      "channel": 0,
      "note": 50,
      "start": 37.9944,
      "duration": 0.3832,
      "velocity": 108,
      "chip": "ym2612"
    },
    {
      "channel": 1,
      "note": 74,
      "start": 37.9951,
      "duration": 0.1825,
      "velocity": 113,
      "chip": "ym2612"
    },
    {
      "channel": 4,
      "note": 78,
      "start": 37.9964,
      "duration": 1.1345,
      "velocity": 73,
      "chip": "ym2612"
    },
    {
      "channel": 3,
      "note": 74,
      "start": 38.0451,
      "duration": 0.183,
      "velocity": 113,
      "chip": "ym2612"
    },
    {
      "channel": 5,
      "note": 79,
      "start": 38.1124,
      "duration": 0.1997,
      "velocity": 73,
      "chip": "ym2612"
    },
    {
      "channel": 2,
      "note": 74,
      "start": 38.1785,
      "duration": 0.1,
      "velocity": 113,
      "chip": "ym2612"
    },
    {
      "channel": 3,
      "note": 74,
      "start": 38.2287,
      "duration": 0.0996,
      "velocity": 113,
      "chip": "ym2612"
    },
    {
      "channel": 1,
      "note": 77,
      "start": 38.2784,
      "duration": 0.1,
      "velocity": 113,
      "chip": "ym2612"
    },
    {
      "channel": 5,
      "note": 78,
      "start": 38.3127,
      "duration": 1.1342,
      "velocity": 73,
      "chip": "ym2612"
    },
    {
      "channel": 3,
      "note": 77,
      "start": 38.3288,
      "duration": 0.0996,
      "velocity": 113,
      "chip": "ym2612"
    },
    {
      "channel": 0,
      "note": 45,
      "start": 38.3782,
      "duration": 0.3834,
      "velocity": 108,
      "chip": "ym2612"
    },
    {
      "channel": 2,
      "note": 78,
      "start": 38.3792,
      "duration": 0.0996,
      "velocity": 113,
      "chip": "ym2612"
    },
    {
      "channel": 3,
      "note": 78,
      "start": 38.4289,
      "duration": 0.0829,
      "velocity": 113,
      "chip": "ym2612"
    },
    {
      "channel": 1,
      "note": 74,
      "start": 38.4786,
      "duration": 0.0829,
      "velocity": 113,
      "chip": "ym2612"
    },
    {
      "channel": 3,
      "note": 74,
      "start": 38.5124,
      "duration": 0.0996,
      "velocity": 113,
      "chip": "ym2612"
    },
    {
      "channel": 2,
      "note": 71,
      "start": 38.5624,
      "duration": 0.2006,
      "velocity": 113,
      "chip": "ym2612"
    },
    {
      "channel": 3,
      "note": 71,
      "start": 38.6125,
      "duration": 0.1832,
      "velocity": 113,
      "chip": "ym2612"
    },
    {
      "channel": 0,
      "note": 50,
      "start": 38.7621,
      "duration": 0.3665,
      "velocity": 108,
      "chip": "ym2612"
    },
    {
      "channel": 1,
      "note": 74,
      "start": 38.7628,
      "duration": 0.1826,
      "velocity": 113,
      "chip": "ym2612"
    },
    {
      "channel": 2,
      "note": 74,
      "start": 38.7635,
      "duration": 0.1825,
      "velocity": 113,
      "chip": "ym2612"
    },
    {
      "channel": 3,
      "note": 74,
      "start": 38.7963,
      "duration": 0.1997,
      "velocity": 113,
      "chip": "ym2612"
    },
    {
      "channel": 1,
      "note": 74,
      "start": 38.9459,
      "duration": 0.1834,
      "velocity": 113,
      "chip": "ym2612"
    },
    {
      "channel": 2,
      "note": 78,
      "start": 38.9466,
      "duration": 0.1834,
      "velocity": 113,
      "chip": "ym2612"
    },
    {
      "channel": 3,
      "note": 78,
      "start": 38.9966,
      "duration": 0.183,
      "velocity": 113,
      "chip": "ym2612"
    },
    {
      "channel": 0,
      "note": 45,
      "start": 39.1291,
      "duration": 0.3834,
      "velocity": 108,
      "chip": "ym2612"
    },
    {
      "channel": 1,
      "note": 69,
      "start": 39.1298,
      "duration": 0.1993,
      "velocity": 113,
      "chip": "ym2612"
    },
    {
      "channel": 2,
      "note": 69,
      "start": 39.1305,
      "duration": 0.1993,
      "velocity": 113,
      "chip": "ym2612"
    },
    {
      "channel": 3,
      "note": 69,
      "start": 39.1801,
      "duration": 0.1997,
      "velocity": 113,
      "chip": "ym2612"
    },
    {
      "channel": 1,
      "note": 74,
      "start": 39.3297,
      "duration": 0.1835,
      "velocity": 113,
      "chip": "ym2612"
    },
    {
      "channel": 2,
      "note": 78,
      "start": 39.3304,
      "duration": 0.1835,
      "velocity": 113,
      "chip": "ym2612"
    },
    {
      "channel": 3,
      "note": 78,
      "start": 39.3804,
      "duration": 0.1828,
      "velocity": 113,
      "chip": "ym2612"
    },
    {
      "channel": 0,
      "note": 50,
      "start": 39.5131,
      "duration": 0.3832,
      "velocity": 108,
      "chip": "ym2612"
    },
    {
      "channel": 1,
      "note": 81,
      "start": 39.5138,
      "duration": 0.0991,
      "velocity": 113,
      "chip": "ym2612"
    },
    {
      "channel": 3,
      "note": 81,
      "start": 39.5637,
      "duration": 0.1002,
      "velocity": 113,
      "chip": "ym2612"
    },
    {
      "channel": 2,
      "note": 69,
      "start": 39.6137,
      "duration": 0.0499,
      "velocity": 113,
      "chip": "ym2612"
    },
    {
      "channel": 1,
      "note": 74,
      "start": 39.6635,
      "duration": 0.0328,
      "velocity": 113,
      "chip": "ym2612"
    },
    {
      "channel": 3,
      "note": 69,
      "start": 39.6645,
      "duration": 0.0328,
      "velocity": 113,
      "chip": "ym2612"
    },
    {
      "channel": 2,
      "note": 78,
      "start": 39.6972,
      "duration": 0.1,
      "velocity": 113,
      "chip": "ym2612"
    },
    {
      "channel": 3,
      "note": 74,
      "start": 39.6978,
      "duration": 0.0489,
      "velocity": 113,
      "chip": "ym2612"
    },
    {
      "channel": 3,
      "note": 78,
      "start": 39.7473,
      "duration": 0.0996,
      "velocity": 113,
      "chip": "ym2612"
    },
    {
      "channel": 1,
      "note": 81,
      "start": 39.797,
      "duration": 0.1,
      "velocity": 113,
      "chip": "ym2612"
    },
    {
      "channel": 3,
      "note": 81,
      "start": 39.8474,
      "duration": 0.0996,
      "velocity": 113,
      "chip": "ym2612"
    },
    {
      "channel": 0,
      "note": 45,
      "start": 39.8968,
      "duration": 0.3833,
      "velocity": 108,
      "chip": "ym2612"
    },
    {
      "channel": 2,
      "note": 83,
      "start": 39.8978,
      "duration": 0.0996,
      "velocity": 113,
      "chip": "ym2612"
    },
    {
      "channel": 3,
      "note": 83,
      "start": 39.9476,
      "duration": 0.0829,
      "velocity": 113,
      "chip": "ym2612"
    },
    {
      "channel": 1,
      "note": 81,
      "start": 39.9973,
      "duration": 0.0829,
      "velocity": 113,
      "chip": "ym2612"
    },
    {
      "channel": 3,
      "note": 81,
      "start": 40.031,
      "duration": 0.0996,
      "velocity": 113,
      "chip": "ym2612"
    },
    {
      "channel": 2,
      "note": 78,
      "start": 40.081,
      "duration": 0.1,
      "velocity": 113,
      "chip": "ym2612"
    },
    {
      "channel": 3,
      "note": 78,
      "start": 40.1311,
      "duration": 0.0996,
      "velocity": 113,
      "chip": "ym2612"
    },
    {
      "channel": 1,
      "note": 76,
      "start": 40.1808,
      "duration": 0.1,
      "velocity": 113,
      "chip": "ym2612"
    },
    {
      "channel": 3,
      "note": 76,
      "start": 40.2312,
      "duration": 0.0829,
      "velocity": 113,
      "chip": "ym2612"
    },
    {
      "channel": 0,
      "note": 50,
      "start": 40.2806,
      "duration": 0.3666,
      "velocity": 108,
      "chip": "ym2612"
    },
    {
      "channel": 2,
      "note": 74,
      "start": 40.2816,
      "duration": 0.183,
      "velocity": 113,
      "chip": "ym2612"
    },
    {
      "channel": 4,
      "note": 78,
      "start": 40.2824,
      "duration": 0.1828,
      "velocity": 73,
      "chip": "ym2612"
    },
    {
      "channel": 3,
      "note": 74,
      "start": 40.3147,
      "duration": 0.1997,
      "velocity": 113,
      "chip": "ym2612"
    },
    {
      "channel": 1,
      "note": 74,
      "start": 40.4645,
      "duration": 0.0996,
      "velocity": 113,
      "chip": "ym2612"
    },
    {
      "channel": 4,
      "note": 78,
      "start": 40.4658,
      "duration": 0.1834,
      "velocity": 73,
      "chip": "ym2612"
    },
    {
      "channel": 3,
      "note": 74,
      "start": 40.515,
      "duration": 0.0995,
      "velocity": 113,
      "chip": "ym2612"
    },
    {
      "channel": 2,
      "note": 77,
      "start": 40.5649,
      "duration": 0.0837,
      "velocity": 113,
      "chip": "ym2612"
    },
    {
      "channel": 5,
      "note": 78,
      "start": 40.5822,
      "duration": 0.1832,
      "velocity": 73,
      "chip": "ym2612"
    },
    {
      "channel": 3,
      "note": 77,
      "start": 40.6151,
      "duration": 0.0829,
      "velocity": 113,
      "chip": "ym2612"
    },
    {
      "channel": 0,
      "note": 50,
      "start": 40.6478,
      "duration": 0.3833,
      "velocity": 108,
      "chip": "ym2612"
    },
    {
      "channel": 1,
      "note": 78,
      "start": 40.6485,
      "duration": 0.0992,
      "velocity": 113,
      "chip": "ym2612"
    },
    {
      "channel": 4,
      "note": 79,
      "start": 40.6497,
      "duration": 0.1994,
      "velocity": 73,
      "chip": "ym2612"
    },
    {
      "channel": 3,
      "note": 78,
      "start": 40.6985,
      "duration": 0.0996,
      "velocity": 113,
      "chip": "ym2612"
    },
    {
      "channel": 2,
      "note": 74,
      "start": 40.7485,
      "duration": 0.1,
      "velocity": 113,
      "chip": "ym2612"
    },
    {
      "channel": 5,
      "note": 78,
      "start": 40.7659,
      "duration": 0.1997,
      "velocity": 73,
      "chip": "ym2612"
    },
    {
      "channel": 3,
      "note": 74,
      "start": 40.7986,
      "duration": 0.0996,
      "velocity": 113,
      "chip": "ym2612"
    },
    {
      "channel": 1,
      "note": 71,
      "start": 40.8483,
      "duration": 0.1834,
      "velocity": 113,
      "chip": "ym2612"
    },
    {
      "channel": 4,
      "note": 80,
      "start": 40.8496,
      "duration": 0.1834,
      "velocity": 73,
      "chip": "ym2612"
    },
    {
      "channel": 3,
      "note": 71,
      "start": 40.8988,
      "duration": 0.183,
      "velocity": 113,
      "chip": "ym2612"
    },
    {
      "channel": 5,
      "note": 79,
      "start": 40.9661,
      "duration": 0.183,
      "velocity": 73,
      "chip": "ym2612"
    },
    {
      "channel": 0,
      "note": 45,
      "start": 41.0316,
      "duration": 0.3833,
      "velocity": 108,
      "chip": "ym2612"
    },
    {
      "channel": 2,
      "note": 69,
      "start": 41.0326,
      "duration": 0.183,
      "velocity": 113,
      "chip": "ym2612"
    },
    {
      "channel": 4,
      "note": 81,
      "start": 41.0336,
      "duration": 1.518,
      "velocity": 73,
      "chip": "ym2612"
    },
    {
      "channel": 3,
      "note": 69,
      "start": 41.0823,
      "duration": 0.183,
      "velocity": 113,
      "chip": "ym2612"
    },
    {
      "channel": 5,
      "note": 80,
      "start": 41.1497,
      "duration": 0.1997,
      "velocity": 73,
      "chip": "ym2612"
    },
    {
      "channel": 1,
      "note": 80,
      "start": 41.2155,
      "duration": 0.0996,
      "velocity": 113,
      "chip": "ym2612"
    },
    {
      "channel": 3,
      "note": 80,
      "start": 41.2659,
      "duration": 0.0996,
      "velocity": 113,
      "chip": "ym2612"
    },
    {
      "channel": 2,
      "note": 81,
      "start": 41.3159,
      "duration": 0.1004,
      "velocity": 113,
      "chip": "ym2612"
    },
    {
      "channel": 5,
      "note": 81,
      "start": 41.35,
      "duration": 1.518,
      "velocity": 73,
      "chip": "ym2612"
    },
    {
      "channel": 3,
      "note": 81,
      "start": 41.3661,
      "duration": 0.0996,
      "velocity": 113,
      "chip": "ym2612"
    },
    {
      "channel": 0,
      "note": 52,
      "start": 41.4154,
      "duration": 0.3833,
      "velocity": 108,
      "chip": "ym2612"
    },
    {
      "channel": 1,
      "note": 86,
      "start": 41.4161,
      "duration": 0.0992,
      "velocity": 113,
      "chip": "ym2612"
    },
    {
      "channel": 3,
      "note": 86,
      "start": 41.4662,
      "duration": 0.0829,
      "velocity": 113,
      "chip": "ym2612"
    },
    {
      "channel": 2,
      "note": 80,
      "start": 41.5161,
      "duration": 0.0833,
      "velocity": 113,
      "chip": "ym2612"
    },
    {
      "channel": 3,
      "note": 80,
      "start": 41.5496,
      "duration": 0.0996,
      "velocity": 113,
      "chip": "ym2612"
    },
    {
      "channel": 1,
      "note": 81,
      "start": 41.5993,
      "duration": 0.0996,
      "velocity": 113,
      "chip": "ym2612"
    },
    {
      "channel": 3,
      "note": 81,
      "start": 41.6498,
      "duration": 0.0996,
      "velocity": 113,
      "chip": "ym2612"
    },
    {
      "channel": 2,
      "note": 86,
      "start": 41.6997,
      "duration": 0.1004,
      "velocity": 113,
      "chip": "ym2612"
    },
    {
      "channel": 3,
      "note": 86,
      "start": 41.7499,
      "duration": 0.0829,
      "velocity": 113,
      "chip": "ym2612"
    },
    {
      "channel": 0,
      "note": 45,
      "start": 41.7993,
      "duration": 0.183,
      "velocity": 108,
      "chip": "ym2612"
    },
    {
      "channel": 1,
      "note": 80,
      "start": 41.8,
      "duration": 0.0825,
      "velocity": 113,
      "chip": "ym2612"
    },
    {
      "channel": 3,
      "note": 80,
      "start": 41.8333,
      "duration": 0.0996,
      "velocity": 113,
      "chip": "ym2612"
    },
    {
      "channel": 2,
      "note": 81,
      "start": 41.8833,
      "duration": 0.1003,
      "velocity": 113,
      "chip": "ym2612"
    },
    {
      "channel": 3,
      "note": 81,
      "start": 41.9334,
      "duration": 0.0996,
      "velocity": 113,
      "chip": "ym2612"
    },
    {
      "channel": 0,
      "note": 45,
      "start": 41.9828,
      "duration": 0.1831,
      "velocity": 108,
      "chip": "ym2612"
    },
    {
      "channel": 1,
      "note": 80,
      "start": 41.9835,
      "duration": 0.0992,
      "velocity": 113,
      "chip": "ym2612"
    },
    {
      "channel": 3,
      "note": 80,
      "start": 42.0336,
      "duration": 0.0996,
      "velocity": 113,
      "chip": "ym2612"
    },
    {
      "channel": 2,
      "note": 81,
      "start": 42.0836,
      "duration": 0.0837,
      "velocity": 113,
      "chip": "ym2612"
    },
    {
      "channel": 3,
      "note": 81,
      "start": 42.1337,
      "duration": 0.0829,
      "velocity": 113,
      "chip": "ym2612"
    },
    {
      "channel": 0,
      "note": 47,
      "start": 42.1664,
      "duration": 0.1997,
      "velocity": 108,
      "chip": "ym2612"
    },
    {
      "channel": 1,
      "note": 86,
      "start": 42.1671,
      "duration": 0.0992,
      "velocity": 113,
      "chip": "ym2612"
    },
    {
      "channel": 3,
      "note": 86,
      "start": 42.2171,
      "duration": 0.0996,
      "velocity": 113,
      "chip": "ym2612"
    },
    {
      "channel": 2,
      "note": 81,
      "start": 42.2671,
      "duration": 0.1004,
      "velocity": 113,
      "chip": "ym2612"
    },
    {
      "channel": 3,
      "note": 81,
      "start": 42.3173,
      "duration": 0.0996,
      "velocity": 113,
      "chip": "ym2612"
    },
    {
      "channel": 0,
      "note": 49,
      "start": 42.3666,
      "duration": 0.183,
      "velocity": 108,
      "chip": "ym2612"
    },
    {
      "channel": 1,
      "note": 78,
      "start": 42.3673,
      "duration": 0.0825,
      "velocity": 113,
      "chip": "ym2612"
    },
    {
      "channel": 3,
      "note": 78,
      "start": 42.4174,
      "duration": 0.0829,
      "velocity": 113,
      "chip": "ym2612"
    },
    {
      "channel": 2,
      "note": 76,
      "start": 42.4507,
      "duration": 0.1004,
      "velocity": 113,
      "chip": "ym2612"
    },
    {
      "channel": 3,
      "note": 76,
      "start": 42.5008,
      "duration": 0.0996,
      "velocity": 113,
      "chip": "ym2612"
    },
    {
      "channel": 0,
      "note": 50,
      "start": 42.5502,
      "duration": 0.3833,
      "velocity": 108,
      "chip": "ym2612"
    },
    {
      "channel": 1,
      "note": 74,
      "start": 42.5509,
      "duration": 0.0992,
      "velocity": 113,
      "chip": "ym2612"
    },
    {
      "channel": 4,
      "note": 81,
      "start": 42.5522,
      "duration": 0.0992,
      "velocity": 73,
      "chip": "ym2612"
    },
    {
      "channel": 3,
      "note": 74,
      "start": 42.601,
      "duration": 0.1002,
      "velocity": 113,
      "chip": "ym2612"
    },
    {
      "channel": 2,
      "note": 78,
      "start": 42.651,
      "duration": 0.0499,
      "velocity": 113,
      "chip": "ym2612"
    },
    {
      "channel": 4,
      "note": 78,
      "start": 42.652,
      "duration": 0.1,
      "velocity": 73,
      "chip": "ym2612"
    },
    {
      "channel": 1,
      "note": 81,
      "start": 42.7007,
      "duration": 0.0495,
      "velocity": 113,
      "chip": "ym2612"
    },
    {
      "channel": 3,
      "note": 78,
      "start": 42.7017,
      "duration": 0.0495,
      "velocity": 113,
      "chip": "ym2612"
    },
    {
      "channel": 2,
      "note": 69,
      "start": 42.7511,
      "duration": 0.0833,
      "velocity": 113,
      "chip": "ym2612"
    },
    {
      "channel": 3,
      "note": 81,
      "start": 42.7518,
      "duration": 0.0322,
      "velocity": 113,
      "chip": "ym2612"
    },
    {
      "channel": 4,
      "note": 74,
      "start": 42.7525,
      "duration": 0.0825,
      "velocity": 73,
      "chip": "ym2612"
    },
    {
      "channel": 3,
      "note": 69,
      "start": 42.7845,
      "duration": 0.0996,
      "velocity": 113,
      "chip": "ym2612"
    },
    {
      "channel": 1,
      "note": 74,
      "start": 42.8342,
      "duration": 0.1,
      "velocity": 113,
      "chip": "ym2612"
    },
    {
      "channel": 4,
      "note": 71,
      "start": 42.8355,
      "duration": 0.1,
      "velocity": 73,
      "chip": "ym2612"
    },
    {
      "channel": 5,
      "note": 81,
      "start": 42.8686,
      "duration": 0.0829,
      "velocity": 73,
      "chip": "ym2612"
    },
    {
      "channel": 3,
      "note": 74,
      "start": 42.8847,
      "duration": 0.0996,
      "velocity": 113,
      "chip": "ym2612"
    },
    {
      "channel": 0,
      "note": 45,
      "start": 42.934,
      "duration": 0.3833,
      "velocity": 108,
      "chip": "ym2612"
    },
    {
      "channel": 2,
      "note": 78,
      "start": 42.935,
      "duration": 0.0996,
      "velocity": 113,
      "chip": "ym2612"
    },
    {
      "channel": 4,
      "note": 69,
      "start": 42.936,
      "duration": 0.0992,
      "velocity": 73,
      "chip": "ym2612"
    },
    {
      "channel": 5,
      "note": 78,
      "start": 42.952,
      "duration": 0.0996,
      "velocity": 73,
      "chip": "ym2612"
    },
    {
      "channel": 3,
      "note": 78,
      "start": 42.9848,
      "duration": 0.0829,
      "velocity": 113,
      "chip": "ym2612"
    },
    {
      "channel": 1,
      "note": 81,
      "start": 43.0345,
      "duration": 0.0829,
      "velocity": 113,
      "chip": "ym2612"
    },
    {
      "channel": 4,
      "note": 71,
      "start": 43.0358,
      "duration": 0.0829,
      "velocity": 73,
      "chip": "ym2612"
    },
    {
      "channel": 5,
      "note": 74,
      "start": 43.0522,
      "duration": 0.0996,
      "velocity": 73,
      "chip": "ym2612"
    },
    {
      "channel": 3,
      "note": 81,
      "start": 43.0682,
      "duration": 0.0996,
      "velocity": 113,
      "chip": "ym2612"
    },
    {
      "channel": 2,
      "note": 74,
      "start": 43.1182,
      "duration": 0.1,
      "velocity": 113,
      "chip": "ym2612"
    },
    {
      "channel": 4,
      "note": 74,
      "start": 43.1192,
      "duration": 0.0996,
      "velocity": 73,
      "chip": "ym2612"
    },
    {
      "channel": 5,
      "note": 71,
      "start": 43.1523,
      "duration": 0.0829,
      "velocity": 73,
      "chip": "ym2612"
    },
    {
      "channel": 3,
      "note": 74,
      "start": 43.1683,
      "duration": 0.0996,
      "velocity": 113,
      "chip": "ym2612"
    },
    {
      "channel": 1,
      "note": 77,
      "start": 43.218,
      "duration": 0.1,
      "velocity": 113,
      "chip": "ym2612"
    },
    {
      "channel": 4,
      "note": 78,
      "start": 43.2193,
      "duration": 0.1,
      "velocity": 73,
      "chip": "ym2612"
    },
    {
      "channel": 5,
      "note": 69,
      "start": 43.2357,
      "duration": 0.0996,
      "velocity": 73,
      "chip": "ym2612"
    },
    {
      "channel": 3,
      "note": 77,
      "start": 43.2685,
      "duration": 0.0829,
      "velocity": 113,
      "chip": "ym2612"
    },
    {
      "channel": 0,
      "note": 50,
      "start": 43.3179,
      "duration": 0.3666,
      "velocity": 108,
      "chip": "ym2612"
    },
    {
      "channel": 2,
      "note": 78,
      "start": 43.3189,
      "duration": 0.0829,
      "velocity": 113,
      "chip": "ym2612"
    },
    {
      "channel": 4,
      "note": 81,
      "start": 43.3199,
      "duration": 0.0825,
      "velocity": 73,
      "chip": "ym2612"
    },
    {
      "channel": 5,
      "note": 71,
      "start": 43.3359,
      "duration": 0.0996,
      "velocity": 73,
      "chip": "ym2612"
    },
    {
      "channel": 3,
      "note": 78,
      "start": 43.3519,
      "duration": 0.0996,
      "velocity": 113,
      "chip": "ym2612"
    },
    {
      "channel": 1,
      "note": 81,
      "start": 43.4016,
      "duration": 0.0996,
      "velocity": 113,
      "chip": "ym2612"
    },
    {
      "channel": 4,
      "note": 84,
      "start": 43.4029,
      "duration": 0.0996,
      "velocity": 73,
      "chip": "ym2612"
    },
    {
      "channel": 5,
      "note": 74,
      "start": 43.436,
      "duration": 0.0829,
      "velocity": 73,
      "chip": "ym2612"
    },
    {
      "channel": 3,
      "note": 81,
      "start": 43.4521,
      "duration": 0.0996,
      "velocity": 113,
      "chip": "ym2612"
    },
    {
      "channel": 2,
      "note": 86,
      "start": 43.5021,
      "duration": 0.1,
      "velocity": 113,
      "chip": "ym2612"
    },
    {
      "channel": 4,
      "note": 83,
      "start": 43.5031,
      "duration": 0.0995,
      "velocity": 73,
      "chip": "ym2612"
    },
    {
      "channel": 5,
      "note": 78,
      "start": 43.5194,
      "duration": 0.0996,
      "velocity": 73,
      "chip": "ym2612"
    },
    {
      "channel": 3,
      "note": 86,
      "start": 43.5522,
      "duration": 0.0996,
      "velocity": 113,
      "chip": "ym2612"
    },
    {
      "channel": 1,
      "note": 78,
      "start": 43.6019,
      "duration": 0.0833,
      "velocity": 113,
      "chip": "ym2612"
    },
    {
      "channel": 4,
      "note": 81,
      "start": 43.6032,
      "duration": 0.0833,
      "velocity": 73,
      "chip": "ym2612"
    },
    {
      "channel": 5,
      "note": 81,
      "start": 43.6195,
      "duration": 0.0996,
      "velocity": 73,
      "chip": "ym2612"
    },
    {
      "channel": 3,
      "note": 78,
      "start": 43.6523,
      "duration": 0.0829,
      "velocity": 113,
      "chip": "ym2612"
    },
    {
      "channel": 0,
      "note": 50,
      "start": 43.685,
      "duration": 0.3833,
      "velocity": 108,
      "chip": "ym2612"
    },
    {
      "channel": 2,
      "note": 81,
      "start": 43.686,
      "duration": 0.0996,
      "velocity": 113,
      "chip": "ym2612"
    },
    {
      "channel": 4,
      "note": 83,
      "start": 43.687,
      "duration": 0.0992,
      "velocity": 73,
      "chip": "ym2612"
    },
    {
      "channel": 5,
      "note": 84,
      "start": 43.7197,
      "duration": 0.0996,
      "velocity": 73,
      "chip": "ym2612"
    },
    {
      "channel": 3,
      "note": 81,
      "start": 43.7358,
      "duration": 0.0996,
      "velocity": 113,
      "chip": "ym2612"
    },
    {
      "channel": 1,
      "note": 86,
      "start": 43.7855,
      "duration": 0.0996,
      "velocity": 113,
      "chip": "ym2612"
    },
    {
      "channel": 4,
      "note": 81,
      "start": 43.7868,
      "duration": 0.0996,
      "velocity": 73,
      "chip": "ym2612"
    },
    {
      "channel": 5,
      "note": 83,
      "start": 43.8198,
      "duration": 0.0829,
      "velocity": 73,
      "chip": "ym2612"
    },
    {
      "channel": 3,
      "note": 86,
      "start": 43.8359,
      "duration": 0.0996,
      "velocity": 113,
      "chip": "ym2612"
    },
    {
      "channel": 2,
      "note": 78,
      "start": 43.8859,
      "duration": 0.0833,
      "velocity": 113,
      "chip": "ym2612"
    },
    {
      "channel": 4,
      "note": 77,
      "start": 43.8869,
      "duration": 0.0829,
      "velocity": 73,
      "chip": "ym2612"
    },
    {
      "channel": 5,
      "note": 81,
      "start": 43.9032,
      "duration": 0.0996,
      "velocity": 73,
      "chip": "ym2612"
    },
    {
      "channel": 3,
      "note": 78,
      "start": 43.936,
      "duration": 0.0829,
      "velocity": 113,
      "chip": "ym2612"
    },
    {
      "channel": 1,
      "note": 81,
      "start": 43.969,
      "duration": 0.1,
      "velocity": 113,
      "chip": "ym2612"
    },
    {
      "channel": 4,
      "note": 78,
      "start": 43.9703,
      "duration": 0.1,
      "velocity": 73,
      "chip": "ym2612"
    },
    {
      "channel": 5,
      "note": 83,
      "start": 44.0034,
      "duration": 0.0996,
      "velocity": 73,
      "chip": "ym2612"
    },
    {
      "channel": 3,
      "note": 81,
      "start": 44.0195,
      "duration": 0.0995,
      "velocity": 113,
      "chip": "ym2612"
    },
    {
      "channel": 0,
      "note": 55,
      "start": 44.0688,
      "duration": 0.3833,
      "velocity": 108,
      "chip": "ym2612"
    },
    {
      "channel": 2,
      "note": 79,
      "start": 44.0698,
      "duration": 0.0996,
      "velocity": 113,
      "chip": "ym2612"
    },
    {
      "channel": 4,
      "note": 79,
      "start": 44.0708,
      "duration": 0.1993,
      "velocity": 73,
      "chip": "ym2612"
    },
    {
      "channel": 5,
      "note": 81,
      "start": 44.1035,
      "duration": 0.0829,
      "velocity": 73,
      "chip": "ym2612"
    },
    {
      "channel": 3,
      "note": 79,
      "start": 44.1196,
      "duration": 0.0996,
      "velocity": 113,
      "chip": "ym2612"
    },
    {
      "channel": 1,
      "note": 83,
      "start": 44.1693,
      "duration": 0.0996,
      "velocity": 113,
      "chip": "ym2612"
    },
    {
      "channel": 5,
      "note": 77,
      "start": 44.1869,
      "duration": 0.0996,
      "velocity": 73,
      "chip": "ym2612"
    },
    {
      "channel": 3,
      "note": 83,
      "start": 44.2197,
      "duration": 0.0829,
      "velocity": 113,
      "chip": "ym2612"
    },
    {
      "channel": 2,
      "note": 86,
      "start": 44.2697,
      "duration": 0.0833,
      "velocity": 113,
      "chip": "ym2612"
    },
    {
      "channel": 4,
      "note": 79,
      "start": 44.2705,
      "duration": 0.083,
      "velocity": 73,
      "chip": "ym2612"
    },
    {
      "channel": 5,
      "note": 78,
      "start": 44.2871,
      "duration": 0.0996,
      "velocity": 73,
      "chip": "ym2612"
    },
    {
      "channel": 3,
      "note": 86,
      "start": 44.3032,
      "duration": 0.0996,
      "velocity": 113,
      "chip": "ym2612"
    },
    {
      "channel": 1,
      "note": 79,
      "start": 44.3529,
      "duration": 0.1,
      "velocity": 113,
      "chip": "ym2612"
    },
    {
      "channel": 4,
      "note": 79,
      "start": 44.354,
      "duration": 0.1001,
      "velocity": 73,
      "chip": "ym2612"
    },
    {
      "channel": 5,
      "note": 79,
      "start": 44.3872,
      "duration": 0.183,
      "velocity": 73,
      "chip": "ym2612"
    },
    {
      "channel": 3,
      "note": 79,
      "start": 44.4033,
      "duration": 0.0996,
      "velocity": 113,
      "chip": "ym2612"
    },
    {
      "channel": 0,
      "note": 50,
      "start": 44.4527,
      "duration": 0.3833,
      "velocity": 108,
      "chip": "ym2612"
    },
    {
      "channel": 2,
      "note": 83,
      "start": 44.4537,
      "duration": 0.0996,
      "velocity": 113,
      "chip": "ym2612"
    },
    {
      "channel": 4,
      "note": 79,
      "start": 44.4545,
      "duration": 0.0994,
      "velocity": 73,
      "chip": "ym2612"
    },
    {
      "channel": 3,
      "note": 83,
      "start": 44.5034,
      "duration": 0.0829,
      "velocity": 113,
      "chip": "ym2612"
    },
    {
      "channel": 1,
      "note": 86,
      "start": 44.5531,
      "duration": 0.0829,
      "velocity": 113,
      "chip": "ym2612"
    },
    {
      "channel": 4,
      "note": 81,
      "start": 44.5544,
      "duration": 0.0829,
      "velocity": 73,
      "chip": "ym2612"
    },
    {
      "channel": 5,
      "note": 79,
      "start": 44.5706,
      "duration": 0.0997,
      "velocity": 73,
      "chip": "ym2612"
    },
    {
      "channel": 3,
      "note": 86,
      "start": 44.5869,
      "duration": 0.0996,
      "velocity": 113,
      "chip": "ym2612"
    },
    {
      "channel": 2,
      "note": 74,
      "start": 44.6368,
      "duration": 0.1,
      "velocity": 113,
      "chip": "ym2612"
    },
    {
      "channel": 4,
      "note": 83,
      "start": 44.6378,
      "duration": 0.0996,
      "velocity": 73,
      "chip": "ym2612"
    },
    {
      "channel": 5,
      "note": 79,
      "start": 44.6707,
      "duration": 0.083,
      "velocity": 73,
      "chip": "ym2612"
    },
    {
      "channel": 3,
      "note": 74,
      "start": 44.687,
      "duration": 0.0996,
      "velocity": 113,
      "chip": "ym2612"
    },
    {
      "channel": 1,
      "note": 79,
      "start": 44.7367,
      "duration": 0.1,
      "velocity": 113,
      "chip": "ym2612"
    },
    {
      "channel": 4,
      "note": 86,
      "start": 44.738,
      "duration": 0.1,
      "velocity": 73,
      "chip": "ym2612"
    },
    {
      "channel": 5,
      "note": 79,
      "start": 44.7542,
      "duration": 0.0997,
      "velocity": 73,
      "chip": "ym2612"
    },
    {
      "channel": 3,
      "note": 79,
      "start": 44.7871,
      "duration": 0.0996,
      "velocity": 113,
      "chip": "ym2612"
    },
    {
      "channel": 0,
      "note": 55,
      "start": 44.8365,
      "duration": 0.3666,
      "velocity": 108,
      "chip": "ym2612"
    },
    {
      "channel": 2,
      "note": 83,
      "start": 44.8375,
      "duration": 0.0829,
      "velocity": 113,
      "chip": "ym2612"
    },
    {
      "channel": 4,
      "note": 89,
      "start": 44.8385,
      "duration": 0.2827,
      "velocity": 73,
      "chip": "ym2612"
    },
    {
      "channel": 5,
      "note": 81,
      "start": 44.8545,
      "duration": 0.0996,
      "velocity": 73,
      "chip": "ym2612"
    },
    {
      "channel": 3,
      "note": 83,
      "start": 44.8873,
      "duration": 0.0829,
      "velocity": 113,
      "chip": "ym2612"
    },
    {
      "channel": 1,
      "note": 86,
      "start": 44.9202,
      "duration": 0.0996,
      "velocity": 113,
      "chip": "ym2612"
    },
    {
      "channel": 5,
      "note": 83,
      "start": 44.9546,
      "duration": 0.0829,
      "velocity": 73,
      "chip": "ym2612"
    },
    {
      "channel": 3,
      "note": 86,
      "start": 44.9707,
      "duration": 0.0996,
      "velocity": 113,
      "chip": "ym2612"
    },
    {
      "channel": 2,
      "note": 79,
      "start": 45.0207,
      "duration": 0.1,
      "velocity": 113,
      "chip": "ym2612"
    },
    {
      "channel": 5,
      "note": 86,
      "start": 45.038,
      "duration": 0.0996,
      "velocity": 73,
      "chip": "ym2612"
    },
    {
      "channel": 3,
      "note": 79,
      "start": 45.0708,
      "duration": 0.0996,
      "velocity": 113,
      "chip": "ym2612"
    },
    {
      "channel": 1,
      "note": 83,
      "start": 45.1205,
      "duration": 0.0833,
      "velocity": 113,
      "chip": "ym2612"
    },
    {
      "channel": 4,
      "note": 88,
      "start": 45.1218,
      "duration": 0.2831,
      "velocity": 73,
      "chip": "ym2612"
    },
    {
      "channel": 5,
      "note": 89,
      "start": 45.1382,
      "duration": 0.2831,
      "velocity": 73,
      "chip": "ym2612"
    },
    {
      "channel": 3,
      "note": 83,
      "start": 45.171,
      "duration": 0.0829,
      "velocity": 113,
      "chip": "ym2612"
    },
    {
      "channel": 0,
      "note": 55,
      "start": 45.2036,
      "duration": 0.3833,
      "velocity": 108,
      "chip": "ym2612"
    },
    {
      "channel": 2,
      "note": 86,
      "start": 45.2046,
      "duration": 0.0996,
      "velocity": 113,
      "chip": "ym2612"
    },
    {
      "channel": 3,
      "note": 86,
      "start": 45.2544,
      "duration": 0.0996,
      "velocity": 113,
      "chip": "ym2612"
    },
    {
      "channel": 1,
      "note": 79,
      "start": 45.3041,
      "duration": 0.0996,
      "velocity": 113,
      "chip": "ym2612"
    },
    {
      "channel": 3,
      "note": 79,
      "start": 45.3545,
      "duration": 0.0996,
      "velocity": 113,
      "chip": "ym2612"
    },
    {
      "channel": 2,
      "note": 83,
      "start": 45.4045,
      "duration": 0.0833,
      "velocity": 113,
      "chip": "ym2612"
    },
    {
      "channel": 4,
      "note": 86,
      "start": 45.4055,
      "duration": 0.1834,
      "velocity": 73,
      "chip": "ym2612"
    },
    {
      "channel": 5,
      "note": 88,
      "start": 45.4219,
      "duration": 0.2831,
      "velocity": 73,
      "chip": "ym2612"
    },
    {
      "channel": 3,
      "note": 83,
      "start": 45.4546,
      "duration": 0.0829,
      "velocity": 113,
      "chip": "ym2612"
    },
    {
      "channel": 1,
      "note": 86,
      "start": 45.4876,
      "duration": 0.1,
      "velocity": 113,
      "chip": "ym2612"
    },
    {
      "channel": 3,
      "note": 86,
      "start": 45.5381,
      "duration": 0.0996,
      "velocity": 113,
      "chip": "ym2612"
    },
    {
      "channel": 0,
      "note": 45,
      "start": 45.5875,
      "duration": 0.3833,
      "velocity": 108,
      "chip": "ym2612"
    },
    {
      "channel": 2,
      "note": 77,
      "start": 45.5885,
      "duration": 0.0996,
      "velocity": 113,
      "chip": "ym2612"
    },
    {
      "channel": 4,
      "note": 77,
      "start": 45.5895,
      "duration": 0.0992,
      "velocity": 73,
      "chip": "ym2612"
    },
    {
      "channel": 3,
      "note": 77,
      "start": 45.6382,
      "duration": 0.0996,
      "velocity": 113,
      "chip": "ym2612"
    },
    {
      "channel": 1,
      "note": 78,
      "start": 45.6879,
      "duration": 0.0996,
      "velocity": 113,
      "chip": "ym2612"
    },
    {
      "channel": 4,
      "note": 78,
      "start": 45.6892,
      "duration": 0.0996,
      "velocity": 73,
      "chip": "ym2612"
    },
    {
      "channel": 5,
      "note": 86,
      "start": 45.7056,
      "duration": 0.1997,
      "velocity": 73,
      "chip": "ym2612"
    },
    {
      "channel": 3,
      "note": 78,
      "start": 45.7383,
      "duration": 0.0829,
      "velocity": 113,
      "chip": "ym2612"
    },
    {
      "channel": 2,
      "note": 81,
      "start": 45.7883,
      "duration": 0.0833,
      "velocity": 113,
      "chip": "ym2612"
    },
    {
      "channel": 4,
      "note": 74,
      "start": 45.7893,
      "duration": 0.0829,
      "velocity": 73,
      "chip": "ym2612"
    },
    {
      "channel": 3,
      "note": 81,
      "start": 45.8218,
      "duration": 0.0996,
      "velocity": 113,
      "chip": "ym2612"
    },
    {
      "channel": 1,
      "note": 83,
      "start": 45.8715,
      "duration": 0.1,
      "velocity": 113,
      "chip": "ym2612"
    },
    {
      "channel": 4,
      "note": 71,
      "start": 45.8728,
      "duration": 0.1,
      "velocity": 73,
      "chip": "ym2612"
    },
    {
      "channel": 5,
      "note": 77,
      "start": 45.9058,
      "duration": 0.0829,
      "velocity": 73,
      "chip": "ym2612"
    },
    {
      "channel": 3,
      "note": 83,
      "start": 45.9219,
      "duration": 0.0996,
      "velocity": 113,
      "chip": "ym2612"
    },
    {
      "channel": 0,
      "note": 52,
      "start": 45.9713,
      "duration": 0.3833,
      "velocity": 108,
      "chip": "ym2612"
    },
    {
      "channel": 2,
      "note": 81,
      "start": 45.9723,
      "duration": 0.0996,
      "velocity": 113,
      "chip": "ym2612"
    },
    {
      "channel": 4,
      "note": 69,
      "start": 45.9733,
      "duration": 0.0992,
      "velocity": 73,
      "chip": "ym2612"
    },
    {
      "channel": 5,
      "note": 78,
      "start": 45.9893,
      "duration": 0.0996,
      "velocity": 73,
      "chip": "ym2612"
    },
    {
      "channel": 3,
      "note": 81,
      "start": 46.022,
      "duration": 0.0829,
      "velocity": 113,
      "chip": "ym2612"
    },
    {
      "channel": 1,
      "note": 78,
      "start": 46.0717,
      "duration": 0.0829,
      "velocity": 113,
      "chip": "ym2612"
    },
    {
      "channel": 4,
      "note": 71,
      "start": 46.073,
      "duration": 0.0829,
      "velocity": 73,
      "chip": "ym2612"
    },
    {
      "channel": 5,
      "note": 74,
      "start": 46.0894,
      "duration": 0.0996,
      "velocity": 73,
      "chip": "ym2612"
    },
    {
      "channel": 3,
      "note": 78,
      "start": 46.1055,
      "duration": 0.0996,
      "velocity": 113,
      "chip": "ym2612"
    },
    {
      "channel": 2,
      "note": 76,
      "start": 46.1555,
      "duration": 0.2005,
      "velocity": 113,
      "chip": "ym2612"
    },
    {
      "channel": 4,
      "note": 74,
      "start": 46.1565,
      "duration": 0.0989,
      "velocity": 73,
      "chip": "ym2612"
    },
    {
      "channel": 5,
      "note": 71,
      "start": 46.1895,
      "duration": 0.0829,
      "velocity": 73,
      "chip": "ym2612"
    },
    {
      "channel": 3,
      "note": 76,
      "start": 46.2056,
      "duration": 0.1997,
      "velocity": 113,
      "chip": "ym2612"
    },
    {
      "channel": 4,
      "note": 78,
      "start": 46.256,
      "duration": 0.1006,
      "velocity": 73,
      "chip": "ym2612"
    },
    {
      "channel": 5,
      "note": 69,
      "start": 46.273,
      "duration": 0.0996,
      "velocity": 73,
      "chip": "ym2612"
    },
    {
      "channel": 0,
      "note": 45,
      "start": 46.3551,
      "duration": 0.3666,
      "velocity": 108,
      "chip": "ym2612"
    },
    {
      "channel": 1,
      "note": 74,
      "start": 46.3558,
      "duration": 0.1827,
      "velocity": 113,
      "chip": "ym2612"
    },
    {
      "channel": 4,
      "note": 81,
      "start": 46.3571,
      "duration": 0.1826,
      "velocity": 73,
      "chip": "ym2612"
    },
    {
      "channel": 5,
      "note": 71,
      "start": 46.3731,
      "duration": 0.0996,
      "velocity": 73,
      "chip": "ym2612"
    },
    {
      "channel": 3,
      "note": 74,
      "start": 46.4059,
      "duration": 0.183,
      "velocity": 113,
      "chip": "ym2612"
    },
    {
      "channel": 5,
      "note": 74,
      "start": 46.4732,
      "duration": 0.0829,
      "velocity": 73,
      "chip": "ym2612"
    },
    {
      "channel": 2,
      "note": 69,
      "start": 46.5393,
      "duration": 0.1,
      "velocity": 113,
      "chip": "ym2612"
    },
    {
      "channel": 4,
      "note": 69,
      "start": 46.5403,
      "duration": 0.0996,
      "velocity": 73,
      "chip": "ym2612"
    },
    {
      "channel": 5,
      "note": 78,
      "start": 46.5567,
      "duration": 0.0996,
      "velocity": 73,
      "chip": "ym2612"
    },
    {
      "channel": 3,
      "note": 69,
      "start": 46.5894,
      "duration": 0.0996,
      "velocity": 113,
      "chip": "ym2612"
    },
    {
      "channel": 1,
      "note": 71,
      "start": 46.6391,
      "duration": 0.0833,
      "velocity": 113,
      "chip": "ym2612"
    },
    {
      "channel": 4,
      "note": 69,
      "start": 46.6402,
      "duration": 0.0834,
      "velocity": 73,
      "chip": "ym2612"
    },
    {
      "channel": 5,
      "note": 81,
      "start": 46.6568,
      "duration": 0.1997,
      "velocity": 73,
      "chip": "ym2612"
    },
    {
      "channel": 3,
      "note": 71,
      "start": 46.6896,
      "duration": 0.0829,
      "velocity": 113,
      "chip": "ym2612"
    },
    {
      "channel": 0,
      "note": 52,
      "start": 46.7222,
      "duration": 0.3833,
      "velocity": 108,
      "chip": "ym2612"
    },
    {
      "channel": 2,
      "note": 74,
      "start": 46.7232,
      "duration": 0.0996,
      "velocity": 113,
      "chip": "ym2612"
    },
    {
      "channel": 4,
      "note": 77,
      "start": 46.7242,
      "duration": 0.1993,
      "velocity": 73,
      "chip": "ym2612"
    },
    {
      "channel": 3,
      "note": 74,
      "start": 46.773,
      "duration": 0.0996,
      "velocity": 113,
      "chip": "ym2612"
    },
    {
      "channel": 1,
      "note": 76,
      "start": 46.8227,
      "duration": 0.0996,
      "velocity": 113,
      "chip": "ym2612"
    },
    {
      "channel": 5,
      "note": 69,
      "start": 46.8571,
      "duration": 0.0829,
      "velocity": 73,
      "chip": "ym2612"
    },
    {
      "channel": 3,
      "note": 76,
      "start": 46.8731,
      "duration": 0.0996,
      "velocity": 113,
      "chip": "ym2612"
    },
    {
      "channel": 2,
      "note": 77,
      "start": 46.9231,
      "duration": 0.1,
      "velocity": 113,
      "chip": "ym2612"
    },
    {
      "channel": 4,
      "note": 76,
      "start": 46.9241,
      "duration": 0.1834,
      "velocity": 73,
      "chip": "ym2612"
    },
    {
      "channel": 5,
      "note": 69,
      "start": 46.9403,
      "duration": 0.0998,
      "velocity": 73,
      "chip": "ym2612"
    },
    {
      "channel": 3,
      "note": 77,
      "start": 46.9733,
      "duration": 0.0829,
      "velocity": 113,
      "chip": "ym2612"
    },
    {
      "channel": 1,
      "note": 78,
      "start": 47.0229,
      "duration": 0.0833,
      "velocity": 113,
      "chip": "ym2612"
    },
    {
      "channel": 5,
      "note": 77,
      "start": 47.0406,
      "duration": 0.183,
      "velocity": 73,
      "chip": "ym2612"
    },
    {
      "channel": 3,
      "note": 78,
      "start": 47.0567,
      "duration": 0.0996,
      "velocity": 113,
      "chip": "ym2612"
    },
    {
      "channel": 0,
      "note": 50,
      "start": 47.1061,
      "duration": 0.3833,
      "velocity": 108,
      "chip": "ym2612"
    },
    {
      "channel": 2,
      "note": 74,
      "start": 47.1071,
      "duration": 0.1997,
      "velocity": 113,
      "chip": "ym2612"
    },
    {
      "channel": 4,
      "note": 74,
      "start": 47.1081,
      "duration": 1.5244,
      "velocity": 73,
      "chip": "ym2612"
    },
    {
      "channel": 3,
      "note": 74,
      "start": 47.1568,
      "duration": 0.183,
      "velocity": 113,
      "chip": "ym2612"
    },
    {
      "channel": 5,
      "note": 76,
      "start": 47.2242,
      "duration": 0.1997,
      "velocity": 73,
      "chip": "ym2612"
    },
    {
      "channel": 1,
      "note": 74,
      "start": 47.3067,
      "duration": 0.0829,
      "velocity": 113,
      "chip": "ym2612"
    },
    {
      "channel": 3,
      "note": 74,
      "start": 47.3404,
      "duration": 0.0996,
      "velocity": 113,
      "chip": "ym2612"
    },
    {
      "channel": 2,
      "note": 77,
      "start": 47.3904,
      "duration": 0.1003,
      "velocity": 113,
      "chip": "ym2612"
    },
    {
      "channel": 5,
      "note": 74,
      "start": 47.4244,
      "duration": 1.5185,
      "velocity": 73,
      "chip": "ym2612"
    },
    {
      "channel": 3,
      "note": 77,
      "start": 47.4405,
      "duration": 0.0996,
      "velocity": 113,
      "chip": "ym2612"
    },
    {
      "channel": 0,
      "note": 45,
      "start": 47.4899,
      "duration": 0.3833,
      "velocity": 108,
      "chip": "ym2612"
    },
    {
      "channel": 1,
      "note": 78,
      "start": 47.4906,
      "duration": 0.0992,
      "velocity": 113,
      "chip": "ym2612"
    },
    {
      "channel": 3,
      "note": 78,
      "start": 47.5407,
      "duration": 0.0829,
      "velocity": 113,
      "chip": "ym2612"
    },
    {
      "channel": 2,
      "note": 74,
      "start": 47.5906,
      "duration": 0.0833,
      "velocity": 113,
      "chip": "ym2612"
    },
    {
      "channel": 3,
      "note": 74,
      "start": 47.6241,
      "duration": 0.0996,
      "velocity": 113,
      "chip": "ym2612"
    },
    {
      "channel": 1,
      "note": 71,
      "start": 47.6738,
      "duration": 0.2001,
      "velocity": 113,
      "chip": "ym2612"
    },
    {
      "channel": 3,
      "note": 71,
      "start": 47.7242,
      "duration": 0.1999,
      "velocity": 113,
      "chip": "ym2612"
    },
    {
      "channel": 0,
      "note": 50,
      "start": 47.8737,
      "duration": 0.3666,
      "velocity": 108,
      "chip": "ym2612"
    },
    {
      "channel": 1,
      "note": 74,
      "start": 47.8744,
      "duration": 0.1827,
      "velocity": 113,
      "chip": "ym2612"
    },
    {
      "channel": 2,
      "note": 74,
      "start": 47.8751,
      "duration": 0.1826,
      "velocity": 113,
      "chip": "ym2612"
    },
    {
      "channel": 3,
      "note": 74,
      "start": 47.9247,
      "duration": 0.183,
      "velocity": 113,
      "chip": "ym2612"
    },
    {
      "channel": 1,
      "note": 74,
      "start": 48.0576,
      "duration": 0.1834,
      "velocity": 113,
      "chip": "ym2612"
    },
    {
      "channel": 2,
      "note": 78,
      "start": 48.0583,
      "duration": 0.1834,
      "velocity": 113,
      "chip": "ym2612"
    },
    {
      "channel": 3,
      "note": 78,
      "start": 48.1083,
      "duration": 0.183,
      "velocity": 113,
      "chip": "ym2612"
    },
    {
      "channel": 0,
      "note": 45,
      "start": 48.2409,
      "duration": 0.3834,
      "velocity": 108,
      "chip": "ym2612"
    },
    {
      "channel": 1,
      "note": 69,
      "start": 48.2416,
      "duration": 0.1993,
      "velocity": 113,
      "chip": "ym2612"
    },
    {
      "channel": 2,
      "note": 69,
      "start": 48.2422,
      "duration": 0.1994,
      "velocity": 113,
      "chip": "ym2612"
    },
    {
      "channel": 3,
      "note": 69,
      "start": 48.2919,
      "duration": 0.1997,
      "velocity": 113,
      "chip": "ym2612"
    },
    {
      "channel": 1,
      "note": 74,
      "start": 48.4415,
      "duration": 0.1864,
      "velocity": 113,
      "chip": "ym2612"
    },
    {
      "channel": 2,
      "note": 78,
      "start": 48.4421,
      "duration": 0.1893,
      "velocity": 113,
      "chip": "ym2612"
    },
    {
      "channel": 3,
      "note": 78,
      "start": 48.4921,
      "duration": 0.1866,
      "velocity": 113,
      "chip": "ym2612"
    },
    {
      "channel": 0,
      "note": 50,
      "start": 48.6248,
      "duration": 0.3832,
      "velocity": 108,
      "chip": "ym2612"
    },
    {
      "channel": 1,
      "note": 81,
      "start": 48.6284,
      "duration": 0.0962,
      "velocity": 113,
      "chip": "ym2612"
    },
    {
      "channel": 4,
      "note": 77,
      "start": 48.6331,
      "duration": 0.0463,
      "velocity": 73,
      "chip": "ym2612"
    },
    {
      "channel": 3,
      "note": 81,
      "start": 48.6793,
      "duration": 0.0964,
      "velocity": 113,
      "chip": "ym2612"
    },
    {
      "channel": 4,
      "note": 78,
      "start": 48.68,
      "duration": 0.1464,
      "velocity": 73,
      "chip": "ym2612"
    },
    {
      "channel": 2,
      "note": 69,
      "start": 48.7255,
      "duration": 0.0499,
      "velocity": 113,
      "chip": "ym2612"
    },
    {
      "channel": 1,
      "note": 74,
      "start": 48.7752,
      "duration": 0.0495,
      "velocity": 113,
      "chip": "ym2612"
    },
    {
      "channel": 3,
      "note": 69,
      "start": 48.7762,
      "duration": 0.0495,
      "velocity": 113,
      "chip": "ym2612"
    },
    {
      "channel": 2,
      "note": 78,
      "start": 48.8256,
      "duration": 0.0833,
      "velocity": 113,
      "chip": "ym2612"
    },
    {
      "channel": 3,
      "note": 74,
      "start": 48.8263,
      "duration": 0.0322,
      "velocity": 113,
      "chip": "ym2612"
    },
    {
      "channel": 4,
      "note": 78,
      "start": 48.827,
      "duration": 0.0825,
      "velocity": 73,
      "chip": "ym2612"
    },
    {
      "channel": 3,
      "note": 78,
      "start": 48.859,
      "duration": 0.0996,
      "velocity": 113,
      "chip": "ym2612"
    },
    {
      "channel": 1,
      "note": 81,
      "start": 48.9087,
      "duration": 0.1,
      "velocity": 113,
      "chip": "ym2612"
    },
    {
      "channel": 4,
      "note": 78,
      "start": 48.91,
      "duration": 0.1008,
      "velocity": 73,
      "chip": "ym2612"
    },
    {
      "channel": 5,
      "note": 77,
      "start": 48.9435,
      "duration": 0.0491,
      "velocity": 73,
      "chip": "ym2612"
    },
    {
      "channel": 3,
      "note": 81,
      "start": 48.9592,
      "duration": 0.0996,
      "velocity": 113,
      "chip": "ym2612"
    },
    {
      "channel": 5,
      "note": 78,
      "start": 48.9931,
      "duration": 0.1329,
      "velocity": 73,
      "chip": "ym2612"
    },
    {
      "channel": 0,
      "note": 45,
      "start": 49.0085,
      "duration": 0.3834,
      "velocity": 108,
      "chip": "ym2612"
    },
    {
      "channel": 2,
      "note": 83,
      "start": 49.0095,
      "duration": 0.0996,
      "velocity": 113,
      "chip": "ym2612"
    },
    {
      "channel": 4,
      "note": 77,
      "start": 49.0114,
      "duration": 0.048,
      "velocity": 73,
      "chip": "ym2612"
    },
    {
      "channel": 3,
      "note": 83,
      "start": 49.0593,
      "duration": 0.0996,
      "velocity": 113,
      "chip": "ym2612"
    },
    {
      "channel": 4,
      "note": 78,
      "start": 49.06,
      "duration": 0.1332,
      "velocity": 73,
      "chip": "ym2612"
    },
    {
      "channel": 1,
      "note": 81,
      "start": 49.109,
      "duration": 0.0829,
      "velocity": 113,
      "chip": "ym2612"
    },
    {
      "channel": 5,
      "note": 78,
      "start": 49.1266,
      "duration": 0.0996,
      "velocity": 73,
      "chip": "ym2612"
    },
    {
      "channel": 3,
      "note": 81,
      "start": 49.1594,
      "duration": 0.0829,
      "velocity": 113,
      "chip": "ym2612"
    },
    {
      "channel": 2,
      "note": 78,
      "start": 49.1927,
      "duration": 0.1,
      "velocity": 113,
      "chip": "ym2612"
    },
    {
      "channel": 4,
      "note": 78,
      "start": 49.1937,
      "duration": 0.0996,
      "velocity": 73,
      "chip": "ym2612"
    },
    {
      "channel": 5,
      "note": 78,
      "start": 49.2268,
      "duration": 0.0838,
      "velocity": 73,
      "chip": "ym2612"
    },
    {
      "channel": 3,
      "note": 78,
      "start": 49.2429,
      "duration": 0.0996,
      "velocity": 113,
      "chip": "ym2612"
    },
    {
      "channel": 1,
      "note": 76,
      "start": 49.2925,
      "duration": 0.1001,
      "velocity": 113,
      "chip": "ym2612"
    },
    {
      "channel": 4,
      "note": 78,
      "start": 49.2938,
      "duration": 0.1009,
      "velocity": 73,
      "chip": "ym2612"
    },
    {
      "channel": 5,
      "note": 77,
      "start": 49.3111,
      "duration": 0.0487,
      "velocity": 73,
      "chip": "ym2612"
    },
    {
      "channel": 3,
      "note": 76,
      "start": 49.343,
      "duration": 0.0996,
      "velocity": 113,
      "chip": "ym2612"
    },
    {
      "channel": 5,
      "note": 78,
      "start": 49.3603,
      "duration": 0.1496,
      "velocity": 73,
      "chip": "ym2612"
    },
    {
      "channel": 0,
      "note": 50,
      "start": 49.3925,
      "duration": 0.3665,
      "velocity": 108,
      "chip": "ym2612"
    },
    {
      "channel": 2,
      "note": 74,
      "start": 49.3934,
      "duration": 0.1829,
      "velocity": 113,
      "chip": "ym2612"
    },
    {
      "channel": 4,
      "note": 77,
      "start": 49.3953,
      "duration": 0.048,
      "velocity": 73,
      "chip": "ym2612"
    },
    {
      "channel": 3,
      "note": 74,
      "start": 49.4431,
      "duration": 0.183,
      "velocity": 113,
      "chip": "ym2612"
    },
    {
      "channel": 4,
      "note": 78,
      "start": 49.4438,
      "duration": 0.1332,
      "velocity": 73,
      "chip": "ym2612"
    },
    {
      "channel": 5,
      "note": 78,
      "start": 49.5105,
      "duration": 0.0996,
      "velocity": 73,
      "chip": "ym2612"
    },
    {
      "channel": 1,
      "note": 69,
      "start": 49.5763,
      "duration": 0.0996,
      "velocity": 113,
      "chip": "ym2612"
    },
    {
      "channel": 4,
      "note": 78,
      "start": 49.5775,
      "duration": 0.0996,
      "velocity": 73,
      "chip": "ym2612"
    },
    {
      "channel": 5,
      "note": 78,
      "start": 49.6106,
      "duration": 0.0837,
      "velocity": 73,
      "chip": "ym2612"
    },
    {
      "channel": 3,
      "note": 69,
      "start": 49.6267,
      "duration": 0.0996,
      "velocity": 113,
      "chip": "ym2612"
    },
    {
      "channel": 2,
      "note": 71,
      "start": 49.6767,
      "duration": 0.0837,
      "velocity": 113,
      "chip": "ym2612"
    },
    {
      "channel": 4,
      "note": 78,
      "start": 49.6777,
      "duration": 0.0841,
      "velocity": 73,
      "chip": "ym2612"
    },
    {
      "channel": 5,
      "note": 77,
      "start": 49.6949,
      "duration": 0.0486,
      "velocity": 73,
      "chip": "ym2612"
    },
    {
      "channel": 3,
      "note": 71,
      "start": 49.7268,
      "duration": 0.0829,
      "velocity": 113,
      "chip": "ym2612"
    },
    {
      "channel": 5,
      "note": 78,
      "start": 49.7441,
      "duration": 0.1496,
      "velocity": 73,
      "chip": "ym2612"
    },
    {
      "channel": 0,
      "note": 45,
      "start": 49.7595,
      "duration": 0.3834,
      "velocity": 108,
      "chip": "ym2612"
    },
    {
      "channel": 1,
      "note": 74,
      "start": 49.7602,
      "duration": 0.0992,
      "velocity": 113,
      "chip": "ym2612"
    },
    {
      "channel": 4,
      "note": 77,
      "start": 49.7623,
      "duration": 0.0984,
      "velocity": 73,
      "chip": "ym2612"
    },
    {
      "channel": 3,
      "note": 74,
      "start": 49.8102,
      "duration": 0.0996,
      "velocity": 113,
      "chip": "ym2612"
    },
    {
      "channel": 2,
      "note": 76,
      "start": 49.8602,
      "duration": 0.1,
      "velocity": 113,
      "chip": "ym2612"
    },
    {
      "channel": 4,
      "note": 78,
      "start": 49.8612,
      "duration": 0.0996,
      "velocity": 73,
      "chip": "ym2612"
    },
    {
      "channel": 5,
      "note": 78,
      "start": 49.8943,
      "duration": 0.0829,
      "velocity": 73,
      "chip": "ym2612"
    },
    {
      "channel": 3,
      "note": 76,
      "start": 49.9104,
      "duration": 0.0996,
      "velocity": 113,
      "chip": "ym2612"
    },
    {
      "channel": 1,
      "note": 77,
      "start": 49.9601,
      "duration": 0.0996,
      "velocity": 113,
      "chip": "ym2612"
    },
    {
      "channel": 4,
      "note": 77,
      "start": 49.9614,
      "duration": 0.0996,
      "velocity": 73,
      "chip": "ym2612"
    },
    {
      "channel": 5,
      "note": 78,
      "start": 49.9777,
      "duration": 0.1004,
      "velocity": 73,
      "chip": "ym2612"
    },
    {
      "channel": 3,
      "note": 77,
      "start": 50.0105,
      "duration": 0.0829,
      "velocity": 113,
      "chip": "ym2612"
    },
    {
      "channel": 2,
      "note": 78,
      "start": 50.0605,
      "duration": 0.0838,
      "velocity": 113,
      "chip": "ym2612"
    },
    {
      "channel": 4,
      "note": 78,
      "start": 50.0615,
      "duration": 0.0834,
      "velocity": 73,
      "chip": "ym2612"
    },
    {
      "channel": 5,
      "note": 77,
      "start": 50.0787,
      "duration": 0.0987,
      "velocity": 73,
      "chip": "ym2612"
    },
    {
      "channel": 3,
      "note": 78,
      "start": 50.0939,
      "duration": 0.0996,
      "velocity": 113,
      "chip": "ym2612"
    },
    {
      "channel": 0,
      "note": 50,
      "start": 50.1434,
      "duration": 0.3832,
      "velocity": 108,
      "chip": "ym2612"
    },
    {
      "channel": 1,
      "note": 74,
      "start": 50.1441,
      "duration": 0.1992,
      "velocity": 113,
      "chip": "ym2612"
    },
    {
      "channel": 4,
      "note": 76,
      "start": 50.1454,
      "duration": 0.1992,
      "velocity": 73,
      "chip": "ym2612"
    },
    {
      "channel": 5,
      "note": 78,
      "start": 50.178,
      "duration": 0.0829,
      "velocity": 73,
      "chip": "ym2612"
    },
    {
      "channel": 3,
      "note": 74,
      "start": 50.1941,
      "duration": 0.183,
      "velocity": 113,
      "chip": "ym2612"
    },
    {
      "channel": 5,
      "note": 77,
      "start": 50.2614,
      "duration": 0.0996,
      "velocity": 73,
      "chip": "ym2612"
    },
    {
      "channel": 2,
      "note": 74,
      "start": 50.3442,
      "duration": 0.0833,
      "velocity": 113,
      "chip": "ym2612"
    },
    {
      "channel": 4,
      "note": 74,
      "start": 50.3452,
      "duration": 0.9514,
      "velocity": 73,
      "chip": "ym2612"
    },
    {
      "channel": 5,
      "note": 78,
      "start": 50.3616,
      "duration": 0.0996,
      "velocity": 73,
      "chip": "ym2612"
    },
    {
      "channel": 3,
      "note": 74,
      "start": 50.3776,
      "duration": 0.0996,
      "velocity": 113,
      "chip": "ym2612"
    },
    {
      "channel": 1,
      "note": 77,
      "start": 50.4273,
      "duration": 0.1,
      "velocity": 113,
      "chip": "ym2612"
    },
    {
      "channel": 5,
      "note": 76,
      "start": 50.4617,
      "duration": 0.183,
      "velocity": 73,
      "chip": "ym2612"
    },
    {
      "channel": 3,
      "note": 77,
      "start": 50.4778,
      "duration": 0.0996,
      "velocity": 113,
      "chip": "ym2612"
    },
    {
      "channel": 0,
      "note": 45,
      "start": 50.5271,
      "duration": 0.3834,
      "velocity": 108,
      "chip": "ym2612"
    },
    {
      "channel": 2,
      "note": 78,
      "start": 50.5281,
      "duration": 0.0996,
      "velocity": 113,
      "chip": "ym2612"
    },
    {
      "channel": 3,
      "note": 78,
      "start": 50.5779,
      "duration": 0.0996,
      "velocity": 113,
      "chip": "ym2612"
    },
    {
      "channel": 1,
      "note": 74,
      "start": 50.6276,
      "duration": 0.0829,
      "velocity": 113,
      "chip": "ym2612"
    },
    {
      "channel": 5,
      "note": 74,
      "start": 50.6453,
      "duration": 0.9507,
      "velocity": 73,
      "chip": "ym2612"
    },
    {
      "channel": 3,
      "note": 74,
      "start": 50.678,
      "duration": 0.0829,
      "velocity": 113,
      "chip": "ym2612"
    },
    {
      "channel": 2,
      "note": 71,
      "start": 50.7113,
      "duration": 0.2006,
      "velocity": 113,
      "chip": "ym2612"
    },
    {
      "channel": 3,
      "note": 71,
      "start": 50.7615,
      "duration": 0.1999,
      "velocity": 113,
      "chip": "ym2612"
    },
    {
      "channel": 0,
      "note": 50,
      "start": 50.9111,
      "duration": 0.3832,
      "velocity": 108,
      "chip": "ym2612"
    },
    {
      "channel": 1,
      "note": 74,
      "start": 50.9118,
      "duration": 0.1826,
      "velocity": 113,
      "chip": "ym2612"
    },
    {
      "channel": 2,
      "note": 74,
      "start": 50.9125,
      "duration": 0.1825,
      "velocity": 113,
      "chip": "ym2612"
    },
    {
      "channel": 3,
      "note": 74,
      "start": 50.962,
      "duration": 0.183,
      "velocity": 113,
      "chip": "ym2612"
    },
    {
      "channel": 1,
      "note": 74,
      "start": 51.0949,
      "duration": 0.2001,
      "velocity": 113,
      "chip": "ym2612"
    },
    {
      "channel": 2,
      "note": 78,
      "start": 51.0956,
      "duration": 0.2001,
      "velocity": 113,
      "chip": "ym2612"
    },
    {
      "channel": 3,
      "note": 78,
      "start": 51.1455,
      "duration": 0.183,
      "velocity": 113,
      "chip": "ym2612"
    },
    {
      "channel": 0,
      "note": 45,
      "start": 51.2948,
      "duration": 0.3667,
      "velocity": 108,
      "chip": "ym2612"
    },
    {
      "channel": 1,
      "note": 69,
      "start": 51.2955,
      "duration": 0.1827,
      "velocity": 113,
      "chip": "ym2612"
    },
    {
      "channel": 2,
      "note": 69,
      "start": 51.2962,
      "duration": 0.1827,
      "velocity": 113,
      "chip": "ym2612"
    },
    {
      "channel": 3,
      "note": 69,
      "start": 51.3291,
      "duration": 0.1997,
      "velocity": 113,
      "chip": "ym2612"
    },
    {
      "channel": 1,
      "note": 74,
      "start": 51.4787,
      "duration": 0.1835,
      "velocity": 113,
      "chip": "ym2612"
    },
    {
      "channel": 2,
      "note": 78,
      "start": 51.4794,
      "duration": 0.1835,
      "velocity": 113,
      "chip": "ym2612"
    },
    {
      "channel": 3,
      "note": 78,
      "start": 51.5294,
      "duration": 0.1828,
      "velocity": 113,
      "chip": "ym2612"
    },
    {
      "channel": 0,
      "note": 50,
      "start": 51.662,
      "duration": 0.3832,
      "velocity": 108,
      "chip": "ym2612"
    },
    {
      "channel": 1,
      "note": 81,
      "start": 51.6627,
      "duration": 0.0991,
      "velocity": 113,
      "chip": "ym2612"
    },
    {
      "channel": 4,
      "note": 77,
      "start": 51.664,
      "duration": 0.0488,
      "velocity": 73,
      "chip": "ym2612"
    },
    {
      "channel": 3,
      "note": 81,
      "start": 51.7127,
      "duration": 0.1002,
      "velocity": 113,
      "chip": "ym2612"
    },
    {
      "channel": 4,
      "note": 78,
      "start": 51.7134,
      "duration": 0.1503,
      "velocity": 73,
      "chip": "ym2612"
    },
    {
      "channel": 2,
      "note": 69,
      "start": 51.7627,
      "duration": 0.0499,
      "velocity": 113,
      "chip": "ym2612"
    },
    {
      "channel": 1,
      "note": 74,
      "start": 51.8125,
      "duration": 0.0495,
      "velocity": 113,
      "chip": "ym2612"
    },
    {
      "channel": 3,
      "note": 69,
      "start": 51.8134,
      "duration": 0.0495,
      "velocity": 113,
      "chip": "ym2612"
    },
    {
      "channel": 2,
      "note": 78,
      "start": 51.8628,
      "duration": 0.0833,
      "velocity": 113,
      "chip": "ym2612"
    },
    {
      "channel": 3,
      "note": 74,
      "start": 51.8635,
      "duration": 0.0322,
      "velocity": 113,
      "chip": "ym2612"
    },
    {
      "channel": 4,
      "note": 78,
      "start": 51.8642,
      "duration": 0.0825,
      "velocity": 73,
      "chip": "ym2612"
    },
    {
      "channel": 3,
      "note": 78,
      "start": 51.8963,
      "duration": 0.0996,
      "velocity": 113,
      "chip": "ym2612"
    },
    {
      "channel": 1,
      "note": 81,
      "start": 51.946,
      "duration": 0.1,
      "velocity": 113,
      "chip": "ym2612"
    },
    {
      "channel": 4,
      "note": 78,
      "start": 51.9473,
      "duration": 0.1,
      "velocity": 73,
      "chip": "ym2612"
    },
    {
      "channel": 5,
      "note": 77,
      "start": 51.9803,
      "duration": 0.0495,
      "velocity": 73,
      "chip": "ym2612"
    },
    {
      "channel": 3,
      "note": 81,
      "start": 51.9964,
      "duration": 0.0996,
      "velocity": 113,
      "chip": "ym2612"
    },
    {
      "channel": 5,
      "note": 78,
      "start": 52.0304,
      "duration": 0.1329,
      "velocity": 73,
      "chip": "ym2612"
    },
    {
      "channel": 0,
      "note": 45,
      "start": 52.0458,
      "duration": 0.3833,
      "velocity": 108,
      "chip": "ym2612"
    },
    {
      "channel": 2,
      "note": 83,
      "start": 52.0468,
      "duration": 0.0996,
      "velocity": 113,
      "chip": "ym2612"
    },
    {
      "channel": 4,
      "note": 77,
      "start": 52.0478,
      "duration": 0.0488,
      "velocity": 73,
      "chip": "ym2612"
    },
    {
      "channel": 3,
      "note": 83,
      "start": 52.0965,
      "duration": 0.0996,
      "velocity": 113,
      "chip": "ym2612"
    },
    {
      "channel": 4,
      "note": 78,
      "start": 52.0972,
      "duration": 0.1332,
      "velocity": 73,
      "chip": "ym2612"
    },
    {
      "channel": 1,
      "note": 81,
      "start": 52.1462,
      "duration": 0.0829,
      "velocity": 113,
      "chip": "ym2612"
    },
    {
      "channel": 5,
      "note": 78,
      "start": 52.1639,
      "duration": 0.0996,
      "velocity": 73,
      "chip": "ym2612"
    },
    {
      "channel": 3,
      "note": 81,
      "start": 52.1967,
      "duration": 0.0829,
      "velocity": 113,
      "chip": "ym2612"
    },
    {
      "channel": 2,
      "note": 78,
      "start": 52.23,
      "duration": 0.1,
      "velocity": 113,
      "chip": "ym2612"
    },
    {
      "channel": 4,
      "note": 78,
      "start": 52.231,
      "duration": 0.0996,
      "velocity": 73,
      "chip": "ym2612"
    },
    {
      "channel": 5,
      "note": 78,
      "start": 52.264,
      "duration": 0.0997,
      "velocity": 73,
      "chip": "ym2612"
    },
    {
      "channel": 3,
      "note": 78,
      "start": 52.2801,
      "duration": 0.0996,
      "velocity": 113,
      "chip": "ym2612"
    },
    {
      "channel": 1,
      "note": 76,
      "start": 52.3298,
      "duration": 0.1,
      "velocity": 113,
      "chip": "ym2612"
    },
    {
      "channel": 4,
      "note": 78,
      "start": 52.3311,
      "duration": 0.1001,
      "velocity": 73,
      "chip": "ym2612"
    },
    {
      "channel": 5,
      "note": 77,
      "start": 52.3642,
      "duration": 0.0327,
      "velocity": 73,
      "chip": "ym2612"
    },
    {
      "channel": 3,
      "note": 76,
      "start": 52.3802,
      "duration": 0.0996,
      "velocity": 113,
      "chip": "ym2612"
    },
    {
      "channel": 5,
      "note": 78,
      "start": 52.3975,
      "duration": 0.1496,
      "velocity": 73,
      "chip": "ym2612"
    },
    {
      "channel": 0,
      "note": 50,
      "start": 52.4296,
      "duration": 0.3833,
      "velocity": 108,
      "chip": "ym2612"
    },
    {
      "channel": 2,
      "note": 74,
      "start": 52.4306,
      "duration": 0.183,
      "velocity": 113,
      "chip": "ym2612"
    },
    {
      "channel": 4,
      "note": 77,
      "start": 52.4317,
      "duration": 0.0488,
      "velocity": 73,
      "chip": "ym2612"
    },
    {
      "channel": 3,
      "note": 74,
      "start": 52.4804,
      "duration": 0.183,
      "velocity": 113,
      "chip": "ym2612"
    },
    {
      "channel": 4,
      "note": 78,
      "start": 52.4811,
      "duration": 0.1332,
      "velocity": 73,
      "chip": "ym2612"
    },
    {
      "channel": 5,
      "note": 78,
      "start": 52.5477,
      "duration": 0.0996,
      "velocity": 73,
      "chip": "ym2612"
    },
    {
      "channel": 1,
      "note": 74,
      "start": 52.6135,
      "duration": 0.0996,
      "velocity": 113,
      "chip": "ym2612"
    },
    {
      "channel": 4,
      "note": 78,
      "start": 52.6148,
      "duration": 0.0996,
      "velocity": 73,
      "chip": "ym2612"
    },
    {
      "channel": 5,
      "note": 78,
      "start": 52.6478,
      "duration": 0.083,
      "velocity": 73,
      "chip": "ym2612"
    },
    {
      "channel": 3,
      "note": 74,
      "start": 52.6639,
      "duration": 0.0996,
      "velocity": 113,
      "chip": "ym2612"
    },
    {
      "channel": 2,
      "note": 77,
      "start": 52.7139,
      "duration": 0.1004,
      "velocity": 113,
      "chip": "ym2612"
    },
    {
      "channel": 4,
      "note": 78,
      "start": 52.7149,
      "duration": 0.1,
      "velocity": 73,
      "chip": "ym2612"
    },
    {
      "channel": 5,
      "note": 77,
      "start": 52.7314,
      "duration": 0.0494,
      "velocity": 73,
      "chip": "ym2612"
    },
    {
      "channel": 3,
      "note": 77,
      "start": 52.764,
      "duration": 0.0829,
      "velocity": 113,
      "chip": "ym2612"
    },
    {
      "channel": 5,
      "note": 78,
      "start": 52.7814,
      "duration": 0.1496,
      "velocity": 73,
      "chip": "ym2612"
    },
    {
      "channel": 0,
      "note": 50,
      "start": 52.8134,
      "duration": 0.3666,
      "velocity": 108,
      "chip": "ym2612"
    },
    {
      "channel": 1,
      "note": 78,
      "start": 52.8141,
      "duration": 0.0825,
      "velocity": 113,
      "chip": "ym2612"
    },
    {
      "channel": 4,
      "note": 77,
      "start": 52.8155,
      "duration": 0.0824,
      "velocity": 73,
      "chip": "ym2612"
    },
    {
      "channel": 3,
      "note": 78,
      "start": 52.8475,
      "duration": 0.0996,
      "velocity": 113,
      "chip": "ym2612"
    },
    {
      "channel": 2,
      "note": 74,
      "start": 52.8975,
      "duration": 0.1,
      "velocity": 113,
      "chip": "ym2612"
    },
    {
      "channel": 4,
      "note": 78,
      "start": 52.8985,
      "duration": 0.0996,
      "velocity": 73,
      "chip": "ym2612"
    },
    {
      "channel": 5,
      "note": 78,
      "start": 52.9315,
      "duration": 0.0829,
      "velocity": 73,
      "chip": "ym2612"
    },
    {
      "channel": 3,
      "note": 74,
      "start": 52.9476,
      "duration": 0.0996,
      "velocity": 113,
      "chip": "ym2612"
    },
    {
      "channel": 1,
      "note": 71,
      "start": 52.9973,
      "duration": 0.1834,
      "velocity": 113,
      "chip": "ym2612"
    },
    {
      "channel": 4,
      "note": 77,
      "start": 52.9986,
      "duration": 0.099,
      "velocity": 73,
      "chip": "ym2612"
    },
    {
      "channel": 5,
      "note": 78,
      "start": 53.015,
      "duration": 0.0997,
      "velocity": 73,
      "chip": "ym2612"
    },
    {
      "channel": 3,
      "note": 71,
      "start": 53.0478,
      "duration": 0.183,
      "velocity": 113,
      "chip": "ym2612"
    },
    {
      "channel": 4,
      "note": 78,
      "start": 53.0981,
      "duration": 0.0839,
      "velocity": 73,
      "chip": "ym2612"
    },
    {
      "channel": 5,
      "note": 77,
      "start": 53.1152,
      "duration": 0.0995,
      "velocity": 73,
      "chip": "ym2612"
    },
    {
      "channel": 0,
      "note": 45,
      "start": 53.1806,
      "duration": 0.3833,
      "velocity": 108,
      "chip": "ym2612"
    },
    {
      "channel": 2,
      "note": 69,
      "start": 53.1816,
      "duration": 0.1997,
      "velocity": 113,
      "chip": "ym2612"
    },
    {
      "channel": 4,
      "note": 76,
      "start": 53.1826,
      "duration": 1.3661,
      "velocity": 73,
      "chip": "ym2612"
    },
    {
      "channel": 5,
      "note": 78,
      "start": 53.2152,
      "duration": 0.0829,
      "velocity": 73,
      "chip": "ym2612"
    },
    {
      "channel": 3,
      "note": 69,
      "start": 53.2313,
      "duration": 0.1997,
      "velocity": 113,
      "chip": "ym2612"
    },
    {
      "channel": 5,
      "note": 77,
      "start": 53.2987,
      "duration": 0.0996,
      "velocity": 73,
      "chip": "ym2612"
    },
    {
      "channel": 1,
      "note": 80,
      "start": 53.3812,
      "duration": 0.0829,
      "velocity": 113,
      "chip": "ym2612"
    },
    {
      "channel": 5,
      "note": 78,
      "start": 53.3988,
      "duration": 0.0996,
      "velocity": 73,
      "chip": "ym2612"
    },
    {
      "channel": 3,
      "note": 80,
      "start": 53.4316,
      "duration": 0.0829,
      "velocity": 113,
      "chip": "ym2612"
    },
    {
      "channel": 2,
      "note": 81,
      "start": 53.4649,
      "duration": 0.1004,
      "velocity": 113,
      "chip": "ym2612"
    },
    {
      "channel": 5,
      "note": 76,
      "start": 53.4989,
      "duration": 1.0498,
      "velocity": 73,
      "chip": "ym2612"
    },
    {
      "channel": 3,
      "note": 81,
      "start": 53.515,
      "duration": 0.0996,
      "velocity": 113,
      "chip": "ym2612"
    },
    {
      "channel": 0,
      "note": 52,
      "start": 53.5644,
      "duration": 0.3833,
      "velocity": 108,
      "chip": "ym2612"
    },
    {
      "channel": 1,
      "note": 86,
      "start": 53.5651,
      "duration": 0.0992,
      "velocity": 113,
      "chip": "ym2612"
    },
    {
      "channel": 3,
      "note": 86,
      "start": 53.6151,
      "duration": 0.0996,
      "velocity": 113,
      "chip": "ym2612"
    },
    {
      "channel": 2,
      "note": 80,
      "start": 53.6651,
      "duration": 0.0833,
      "velocity": 113,
      "chip": "ym2612"
    },
    {
      "channel": 3,
      "note": 80,
      "start": 53.7153,
      "duration": 0.0829,
      "velocity": 113,
      "chip": "ym2612"
    },
    {
      "channel": 1,
      "note": 81,
      "start": 53.7483,
      "duration": 0.0996,
      "velocity": 113,
      "chip": "ym2612"
    },
    {
      "channel": 3,
      "note": 81,
      "start": 53.7987,
      "duration": 0.0996,
      "velocity": 113,
      "chip": "ym2612"
    },
    {
      "channel": 2,
      "note": 86,
      "start": 53.8487,
      "duration": 0.1004,
      "velocity": 113,
      "chip": "ym2612"
    },
    {
      "channel": 3,
      "note": 86,
      "start": 53.8988,
      "duration": 0.0996,
      "velocity": 113,
      "chip": "ym2612"
    },
    {
      "channel": 0,
      "note": 45,
      "start": 53.9482,
      "duration": 0.183,
      "velocity": 108,
      "chip": "ym2612"
    },
    {
      "channel": 1,
      "note": 80,
      "start": 53.9489,
      "duration": 0.0825,
      "velocity": 113,
      "chip": "ym2612"
    },
    {
      "channel": 3,
      "note": 80,
      "start": 53.999,
      "duration": 0.0829,
      "velocity": 113,
      "chip": "ym2612"
    },
    {
      "channel": 2,
      "note": 81,
      "start": 54.0323,
      "duration": 0.1004,
      "velocity": 113,
      "chip": "ym2612"
    },
    {
      "channel": 3,
      "note": 81,
      "start": 54.0824,
      "duration": 0.0996,
      "velocity": 113,
      "chip": "ym2612"
    },
    {
      "channel": 0,
      "note": 45,
      "start": 54.1318,
      "duration": 0.1997,
      "velocity": 108,
      "chip": "ym2612"
    },
    {
      "channel": 1,
      "note": 80,
      "start": 54.1325,
      "duration": 0.0992,
      "velocity": 113,
      "chip": "ym2612"
    },
    {
      "channel": 3,
      "note": 80,
      "start": 54.1825,
      "duration": 0.0996,
      "velocity": 113,
      "chip": "ym2612"
    },
    {
      "channel": 2,
      "note": 81,
      "start": 54.2325,
      "duration": 0.1004,
      "velocity": 113,
      "chip": "ym2612"
    },
    {
      "channel": 3,
      "note": 81,
      "start": 54.2827,
      "duration": 0.0829,
      "velocity": 113,
      "chip": "ym2612"
    },
    {
      "channel": 0,
      "note": 47,
      "start": 54.3321,
      "duration": 0.183,
      "velocity": 108,
      "chip": "ym2612"
    },
    {
      "channel": 1,
      "note": 86,
      "start": 54.3327,
      "duration": 0.0825,
      "velocity": 113,
      "chip": "ym2612"
    },
    {
      "channel": 3,
      "note": 86,
      "start": 54.3661,
      "duration": 0.0996,
      "velocity": 113,
      "chip": "ym2612"
    },
    {
      "channel": 2,
      "note": 81,
      "start": 54.4161,
      "duration": 0.1004,
      "velocity": 113,
      "chip": "ym2612"
    },
    {
      "channel": 3,
      "note": 81,
      "start": 54.4663,
      "duration": 0.0824,
      "velocity": 113,
      "chip": "ym2612"
    },
    {
      "channel": 0,
      "note": 49,
      "start": 54.5156,
      "duration": 0.0331,
      "velocity": 108,
      "chip": "ym2612"
    },
    {
      "channel": 1,
      "note": 78,
      "start": 54.5163,
      "duration": 0.0324,
      "velocity": 113,
      "chip": "ym2612"
    }
  ]
}