{
  "track_name": "09 - Trenching",
  "duration_sec": 122.217,
  "sample_rate": 44100,
  "note_count": 1266,
  "unique_pitches": 32,
  "pitch_range": 60,
  "avg_note_duration": 0.3178,
  "reconstruction_stats": {
    "notes_reconstructed": 1266,
    "keyon_events": 1266,
    "keyoff_events": 1265,
    "orphan_keyons": 1,
    "unique_pitches": 32,
    "pitch_range": 60,
    "avg_duration_sec": 0.3178
  },
  "metadata": {
    "source": "D\\Dune - The Battle for Arrakis\\09 - Trenching.vgz"
  },
  "notes": [
    {
      "channel": 0,
      "note": 76,
      "start": 0.0258,
      "duration": 0.5914,
      "velocity": 97,
      "chip": "ym2612"
    },
    {
      "channel": 1,
      "note": 81,
      "start": 0.0335,
      "duration": 0.5838,
      "velocity": 111,
      "chip": "ym2612"
    },
    {
      "channel": 3,
      "note": 45,
      "start": 0.0392,
      "duration": 0.3781,
      "velocity": 113,
      "chip": "ym2612"
    },
    {
      "channel": 4,
      "note": 69,
      "start": 0.0474,
      "duration": 0.0532,
      "velocity": 127,
      "chip": "ym2612"
    },
    {
      "channel": 4,
      "note": 69,
      "start": 0.2213,
      "duration": 0.096,
      "velocity": 127,
      "chip": "ym2612"
    },
    {
      "channel": 3,
      "note": 45,
      "start": 0.4212,
      "duration": 0.1963,
      "velocity": 113,
      "chip": "ym2612"
    },
    {
      "channel": 4,
      "note": 69,
      "start": 0.4245,
      "duration": 0.0928,
      "velocity": 127,
      "chip": "ym2612"
    },
    {
      "channel": 0,
      "note": 69,
      "start": 0.6214,
      "duration": 0.4125,
      "velocity": 97,
      "chip": "ym2612"
    },
    {
      "channel": 1,
      "note": 88,
      "start": 0.6254,
      "duration": 1.8585,
      "velocity": 111,
      "chip": "ym2612"
    },
    {
      "channel": 3,
      "note": 48,
      "start": 0.6283,
      "duration": 0.4058,
      "velocity": 113,
      "chip": "ym2612"
    },
    {
      "channel": 4,
      "note": 69,
      "start": 0.6316,
      "duration": 0.1024,
      "velocity": 127,
      "chip": "ym2612"
    },
    {
      "channel": 4,
      "note": 69,
      "start": 0.8379,
      "duration": 0.0961,
      "velocity": 127,
      "chip": "ym2612"
    },
    {
      "channel": 0,
      "note": 71,
      "start": 1.0376,
      "duration": 0.4129,
      "velocity": 97,
      "chip": "ym2612"
    },
    {
      "channel": 3,
      "note": 48,
      "start": 1.0406,
      "duration": 0.21,
      "velocity": 113,
      "chip": "ym2612"
    },
    {
      "channel": 4,
      "note": 69,
      "start": 1.0439,
      "duration": 0.0901,
      "velocity": 127,
      "chip": "ym2612"
    },
    {
      "channel": 4,
      "note": 69,
      "start": 1.2548,
      "duration": 0.0959,
      "velocity": 127,
      "chip": "ym2612"
    },
    {
      "channel": 0,
      "note": 72,
      "start": 1.4544,
      "duration": 0.8128,
      "velocity": 97,
      "chip": "ym2612"
    },
    {
      "channel": 4,
      "note": 69,
      "start": 1.458,
      "duration": 0.0926,
      "velocity": 127,
      "chip": "ym2612"
    },
    {
      "channel": 4,
      "note": 69,
      "start": 1.6545,
      "duration": 0.0962,
      "velocity": 127,
      "chip": "ym2612"
    },
    {
      "channel": 3,
      "note": 48,
      "start": 1.8707,
      "duration": 0.3968,
      "velocity": 113,
      "chip": "ym2612"
    },
    {
      "channel": 4,
      "note": 69,
      "start": 1.8741,
      "duration": 0.0931,
      "velocity": 127,
      "chip": "ym2612"
    },
    {
      "channel": 4,
      "note": 69,
      "start": 1.9712,
      "duration": 0.0961,
      "velocity": 127,
      "chip": "ym2612"
    },
    {
      "channel": 4,
      "note": 69,
      "start": 2.0714,
      "duration": 0.0959,
      "velocity": 127,
      "chip": "ym2612"
    },
    {
      "channel": 0,
      "note": 72,
      "start": 2.2714,
      "duration": 0.2125,
      "velocity": 97,
      "chip": "ym2612"
    },
    {
      "channel": 3,
      "note": 48,
      "start": 2.2743,
      "duration": 0.2098,
      "velocity": 113,
      "chip": "ym2612"
    },
    {
      "channel": 4,
      "note": 69,
      "start": 2.2776,
      "duration": 0.1063,
      "velocity": 127,
      "chip": "ym2612"
    },
    {
      "channel": 0,
      "note": 74,
      "start": 2.4884,
      "duration": 0.4121,
      "velocity": 97,
      "chip": "ym2612"
    },
    {
      "channel": 1,
      "note": 86,
      "start": 2.4921,
      "duration": 0.8087,
      "velocity": 111,
      "chip": "ym2612"
    },
    {
      "channel": 3,
      "note": 51,
      "start": 2.4947,
      "duration": 0.1892,
      "velocity": 113,
      "chip": "ym2612"
    },
    {
      "channel": 4,
      "note": 69,
      "start": 2.4985,
      "duration": 0.0856,
      "velocity": 127,
      "chip": "ym2612"
    },
    {
      "channel": 4,
      "note": 69,
      "start": 2.588,
      "duration": 0.0961,
      "velocity": 127,
      "chip": "ym2612"
    },
    {
      "channel": 3,
      "note": 52,
      "start": 2.6871,
      "duration": 0.2136,
      "velocity": 113,
      "chip": "ym2612"
    },
    {
      "channel": 4,
      "note": 69,
      "start": 2.6906,
      "duration": 0.0934,
      "velocity": 127,
      "chip": "ym2612"
    },
    {
      "channel": 0,
      "note": 77,
      "start": 2.9043,
      "duration": 0.3963,
      "velocity": 97,
      "chip": "ym2612"
    },
    {
      "channel": 3,
      "note": 51,
      "start": 2.907,
      "duration": 0.1936,
      "velocity": 113,
      "chip": "ym2612"
    },
    {
      "channel": 4,
      "note": 47,
      "start": 2.9117,
      "duration": 0.189,
      "velocity": 127,
      "chip": "ym2612"
    },
    {
      "channel": 3,
      "note": 48,
      "start": 3.1042,
      "duration": 0.1968,
      "velocity": 113,
      "chip": "ym2612"
    },
    {
      "channel": 4,
      "note": 69,
      "start": 3.1093,
      "duration": 0.0913,
      "velocity": 127,
      "chip": "ym2612"
    },
    {
      "channel": 0,
      "note": 76,
      "start": 3.3048,
      "duration": 0.2124,
      "velocity": 97,
      "chip": "ym2612"
    },
    {
      "channel": 1,
      "note": 84,
      "start": 3.3085,
      "duration": 0.6256,
      "velocity": 111,
      "chip": "ym2612"
    },
    {
      "channel": 3,
      "note": 45,
      "start": 3.3114,
      "duration": 0.406,
      "velocity": 113,
      "chip": "ym2612"
    },
    {
      "channel": 4,
      "note": 69,
      "start": 3.3147,
      "duration": 0.1026,
      "velocity": 127,
      "chip": "ym2612"
    },
    {
      "channel": 0,
      "note": 76,
      "start": 3.5213,
      "duration": 0.4127,
      "velocity": 97,
      "chip": "ym2612"
    },
    {
      "channel": 4,
      "note": 69,
      "start": 3.5248,
      "duration": 0.0925,
      "velocity": 127,
      "chip": "ym2612"
    },
    {
      "channel": 3,
      "note": 45,
      "start": 3.7208,
      "duration": 0.2134,
      "velocity": 113,
      "chip": "ym2612"
    },
    {
      "channel": 4,
      "note": 69,
      "start": 3.7241,
      "duration": 0.0931,
      "velocity": 127,
      "chip": "ym2612"
    },
    {
      "channel": 0,
      "note": 72,
      "start": 3.9378,
      "duration": 0.3961,
      "velocity": 97,
      "chip": "ym2612"
    },
    {
      "channel": 1,
      "note": 83,
      "start": 3.9417,
      "duration": 1.8423,
      "velocity": 111,
      "chip": "ym2612"
    },
    {
      "channel": 3,
      "note": 48,
      "start": 3.9445,
      "duration": 0.3896,
      "velocity": 113,
      "chip": "ym2612"
    },
    {
      "channel": 4,
      "note": 69,
      "start": 3.9478,
      "duration": 0.0862,
      "velocity": 127,
      "chip": "ym2612"
    },
    {
      "channel": 4,
      "note": 69,
      "start": 4.1379,
      "duration": 0.0961,
      "velocity": 127,
      "chip": "ym2612"
    },
    {
      "channel": 0,
      "note": 69,
      "start": 4.3377,
      "duration": 0.4129,
      "velocity": 97,
      "chip": "ym2612"
    },
    {
      "channel": 3,
      "note": 48,
      "start": 4.3407,
      "duration": 0.21,
      "velocity": 113,
      "chip": "ym2612"
    },
    {
      "channel": 4,
      "note": 69,
      "start": 4.344,
      "duration": 0.1066,
      "velocity": 127,
      "chip": "ym2612"
    },
    {
      "channel": 4,
      "note": 69,
      "start": 4.5548,
      "duration": 0.0959,
      "velocity": 127,
      "chip": "ym2612"
    },
    {
      "channel": 0,
      "note": 77,
      "start": 4.7546,
      "duration": 1.0293,
      "velocity": 97,
      "chip": "ym2612"
    },
    {
      "channel": 4,
      "note": 69,
      "start": 4.7581,
      "duration": 0.0925,
      "velocity": 127,
      "chip": "ym2612"
    },
    {
      "channel": 4,
      "note": 69,
      "start": 4.9545,
      "duration": 0.1129,
      "velocity": 127,
      "chip": "ym2612"
    },
    {
      "channel": 3,
      "note": 48,
      "start": 5.1707,
      "duration": 0.4133,
      "velocity": 113,
      "chip": "ym2612"
    },
    {
      "channel": 4,
      "note": 69,
      "start": 5.1741,
      "duration": 0.0933,
      "velocity": 127,
      "chip": "ym2612"
    },
    {
      "channel": 4,
      "note": 69,
      "start": 5.2712,
      "duration": 0.0961,
      "velocity": 127,
      "chip": "ym2612"
    },
    {
      "channel": 4,
      "note": 69,
      "start": 5.3714,
      "duration": 0.096,
      "velocity": 127,
      "chip": "ym2612"
    },
    {
      "channel": 3,
      "note": 48,
      "start": 5.5878,
      "duration": 0.1964,
      "velocity": 113,
      "chip": "ym2612"
    },
    {
      "channel": 4,
      "note": 69,
      "start": 5.5911,
      "duration": 0.093,
      "velocity": 127,
      "chip": "ym2612"
    },
    {
      "channel": 0,
      "note": 79,
      "start": 5.7885,
      "duration": 0.8288,
      "velocity": 97,
      "chip": "ym2612"
    },
    {
      "channel": 3,
      "note": 51,
      "start": 5.7911,
      "duration": 0.1928,
      "velocity": 113,
      "chip": "ym2612"
    },
    {
      "channel": 4,
      "note": 69,
      "start": 5.795,
      "duration": 0.089,
      "velocity": 127,
      "chip": "ym2612"
    },
    {
      "channel": 4,
      "note": 69,
      "start": 5.8879,
      "duration": 0.0963,
      "velocity": 127,
      "chip": "ym2612"
    },
    {
      "channel": 3,
      "note": 48,
      "start": 5.9873,
      "duration": 0.2134,
      "velocity": 113,
      "chip": "ym2612"
    },
    {
      "channel": 4,
      "note": 69,
      "start": 5.9907,
      "duration": 0.1099,
      "velocity": 127,
      "chip": "ym2612"
    },
    {
      "channel": 3,
      "note": 47,
      "start": 6.2039,
      "duration": 0.1968,
      "velocity": 113,
      "chip": "ym2612"
    },
    {
      "channel": 4,
      "note": 47,
      "start": 6.2086,
      "duration": 0.1921,
      "velocity": 127,
      "chip": "ym2612"
    },
    {
      "channel": 3,
      "note": 48,
      "start": 6.4039,
      "duration": 0.2135,
      "velocity": 113,
      "chip": "ym2612"
    },
    {
      "channel": 4,
      "note": 69,
      "start": 6.409,
      "duration": 0.0916,
      "velocity": 127,
      "chip": "ym2612"
    },
    {
      "channel": 0,
      "note": 76,
      "start": 6.6214,
      "duration": 0.6125,
      "velocity": 97,
      "chip": "ym2612"
    },
    {
      "channel": 1,
      "note": 81,
      "start": 6.625,
      "duration": 0.609,
      "velocity": 111,
      "chip": "ym2612"
    },
    {
      "channel": 3,
      "note": 45,
      "start": 6.6278,
      "duration": 0.3895,
      "velocity": 113,
      "chip": "ym2612"
    },
    {
      "channel": 4,
      "note": 69,
      "start": 6.6312,
      "duration": 0.0862,
      "velocity": 127,
      "chip": "ym2612"
    },
    {
      "channel": 4,
      "note": 69,
      "start": 6.8214,
      "duration": 0.0961,
      "velocity": 127,
      "chip": "ym2612"
    },
    {
      "channel": 3,
      "note": 45,
      "start": 7.0209,
      "duration": 0.2133,
      "velocity": 113,
      "chip": "ym2612"
    },
    {
      "channel": 4,
      "note": 69,
      "start": 7.0242,
      "duration": 0.1099,
      "velocity": 127,
      "chip": "ym2612"
    },
    {
      "channel": 0,
      "note": 69,
      "start": 7.2382,
      "duration": 0.4123,
      "velocity": 97,
      "chip": "ym2612"
    },
    {
      "channel": 1,
      "note": 88,
      "start": 7.2423,
      "duration": 1.8418,
      "velocity": 111,
      "chip": "ym2612"
    },
    {
      "channel": 3,
      "note": 48,
      "start": 7.2451,
      "duration": 0.4057,
      "velocity": 113,
      "chip": "ym2612"
    },
    {
      "channel": 4,
      "note": 69,
      "start": 7.2484,
      "duration": 0.0857,
      "velocity": 127,
      "chip": "ym2612"
    },
    {
      "channel": 4,
      "note": 69,
      "start": 7.4379,
      "duration": 0.0962,
      "velocity": 127,
      "chip": "ym2612"
    },
    {
      "channel": 0,
      "note": 71,
      "start": 7.6543,
      "duration": 0.3962,
      "velocity": 97,
      "chip": "ym2612"
    },
    {
      "channel": 3,
      "note": 48,
      "start": 7.6577,
      "duration": 0.1929,
      "velocity": 113,
      "chip": "ym2612"
    },
    {
      "channel": 4,
      "note": 69,
      "start": 7.661,
      "duration": 0.0897,
      "velocity": 127,
      "chip": "ym2612"
    },
    {
      "channel": 4,
      "note": 69,
      "start": 7.8548,
      "duration": 0.096,
      "velocity": 127,
      "chip": "ym2612"
    },
    {
      "channel": 0,
      "note": 72,
      "start": 8.0545,
      "duration": 0.8294,
      "velocity": 97,
      "chip": "ym2612"
    },
    {
      "channel": 4,
      "note": 69,
      "start": 8.058,
      "duration": 0.0926,
      "velocity": 127,
      "chip": "ym2612"
    },
    {
      "channel": 4,
      "note": 69,
      "start": 8.2713,
      "duration": 0.096,
      "velocity": 127,
      "chip": "ym2612"
    },
    {
      "channel": 3,
      "note": 48,
      "start": 8.4708,
      "duration": 0.4132,
      "velocity": 113,
      "chip": "ym2612"
    },
    {
      "channel": 4,
      "note": 69,
      "start": 8.4743,
      "duration": 0.0931,
      "velocity": 127,
      "chip": "ym2612"
    },
    {
      "channel": 4,
      "note": 69,
      "start": 8.5713,
      "duration": 0.0961,
      "velocity": 127,
      "chip": "ym2612"
    },
    {
      "channel": 4,
      "note": 69,
      "start": 8.6714,
      "duration": 0.1127,
      "velocity": 127,
      "chip": "ym2612"
    },
    {
      "channel": 0,
      "note": 72,
      "start": 8.888,
      "duration": 0.1959,
      "velocity": 97,
      "chip": "ym2612"
    },
    {
      "channel": 3,
      "note": 48,
      "start": 8.8909,
      "duration": 0.1933,
      "velocity": 113,
      "chip": "ym2612"
    },
    {
      "channel": 4,
      "note": 69,
      "start": 8.8942,
      "duration": 0.0899,
      "velocity": 127,
      "chip": "ym2612"
    },
    {
      "channel": 0,
      "note": 74,
      "start": 9.0885,
      "duration": 0.8288,
      "velocity": 97,
      "chip": "ym2612"
    },
    {
      "channel": 1,
      "note": 88,
      "start": 9.0923,
      "duration": 0.4083,
      "velocity": 111,
      "chip": "ym2612"
    },
    {
      "channel": 3,
      "note": 51,
      "start": 9.0948,
      "duration": 0.2058,
      "velocity": 113,
      "chip": "ym2612"
    },
    {
      "channel": 4,
      "note": 69,
      "start": 9.0986,
      "duration": 0.0854,
      "velocity": 127,
      "chip": "ym2612"
    },
    {
      "channel": 4,
      "note": 69,
      "start": 9.188,
      "duration": 0.1128,
      "velocity": 127,
      "chip": "ym2612"
    },
    {
      "channel": 3,
      "note": 52,
      "start": 9.3039,
      "duration": 0.1969,
      "velocity": 113,
      "chip": "ym2612"
    },
    {
      "channel": 4,
      "note": 69,
      "start": 9.3073,
      "duration": 0.0934,
      "velocity": 127,
      "chip": "ym2612"
    },
    {
      "channel": 1,
      "note": 89,
      "start": 9.5048,
      "duration": 0.4127,
      "velocity": 111,
      "chip": "ym2612"
    },
    {
      "channel": 3,
      "note": 51,
      "start": 9.5073,
      "duration": 0.1933,
      "velocity": 113,
      "chip": "ym2612"
    },
    {
      "channel": 4,
      "note": 47,
      "start": 9.5121,
      "duration": 0.1887,
      "velocity": 127,
      "chip": "ym2612"
    },
    {
      "channel": 3,
      "note": 48,
      "start": 9.7039,
      "duration": 0.2137,
      "velocity": 113,
      "chip": "ym2612"
    },
    {
      "channel": 4,
      "note": 69,
      "start": 9.709,
      "duration": 0.1084,
      "velocity": 127,
      "chip": "ym2612"
    },
    {
      "channel": 0,
      "note": 76,
      "start": 9.9215,
      "duration": 0.1957,
      "velocity": 97,
      "chip": "ym2612"
    },
    {
      "channel": 1,
      "note": 84,
      "start": 9.9253,
      "duration": 0.6088,
      "velocity": 111,
      "chip": "ym2612"
    },
    {
      "channel": 3,
      "note": 45,
      "start": 9.9281,
      "duration": 0.4059,
      "velocity": 113,
      "chip": "ym2612"
    },
    {
      "channel": 4,
      "note": 69,
      "start": 9.9314,
      "duration": 0.0859,
      "velocity": 127,
      "chip": "ym2612"
    },
    {
      "channel": 0,
      "note": 76,
      "start": 10.1214,
      "duration": 0.4125,
      "velocity": 97,
      "chip": "ym2612"
    },
    {
      "channel": 4,
      "note": 69,
      "start": 10.1249,
      "duration": 0.0925,
      "velocity": 127,
      "chip": "ym2612"
    },
    {
      "channel": 3,
      "note": 45,
      "start": 10.3379,
      "duration": 0.1963,
      "velocity": 113,
      "chip": "ym2612"
    },
    {
      "channel": 4,
      "note": 69,
      "start": 10.3412,
      "duration": 0.0928,
      "velocity": 127,
      "chip": "ym2612"
    },
    {
      "channel": 0,
      "note": 72,
      "start": 10.538,
      "duration": 0.4126,
      "velocity": 97,
      "chip": "ym2612"
    },
    {
      "channel": 1,
      "note": 83,
      "start": 10.5418,
      "duration": 1.8423,
      "velocity": 111,
      "chip": "ym2612"
    },
    {
      "channel": 3,
      "note": 48,
      "start": 10.5446,
      "duration": 0.4061,
      "velocity": 113,
      "chip": "ym2612"
    },
    {
      "channel": 4,
      "note": 69,
      "start": 10.5479,
      "duration": 0.0861,
      "velocity": 127,
      "chip": "ym2612"
    },
    {
      "channel": 4,
      "note": 69,
      "start": 10.7379,
      "duration": 0.1129,
      "velocity": 127,
      "chip": "ym2612"
    },
    {
      "channel": 0,
      "note": 69,
      "start": 10.9545,
      "duration": 0.3961,
      "velocity": 97,
      "chip": "ym2612"
    },
    {
      "channel": 3,
      "note": 48,
      "start": 10.9574,
      "duration": 0.1933,
      "velocity": 113,
      "chip": "ym2612"
    },
    {
      "channel": 4,
      "note": 69,
      "start": 10.9607,
      "duration": 0.09,
      "velocity": 127,
      "chip": "ym2612"
    },
    {
      "channel": 4,
      "note": 69,
      "start": 11.1548,
      "duration": 0.0959,
      "velocity": 127,
      "chip": "ym2612"
    },
    {
      "channel": 0,
      "note": 77,
      "start": 11.3546,
      "duration": 1.0293,
      "velocity": 97,
      "chip": "ym2612"
    },
    {
      "channel": 4,
      "note": 69,
      "start": 11.3581,
      "duration": 0.1092,
      "velocity": 127,
      "chip": "ym2612"
    },
    {
      "channel": 4,
      "note": 69,
      "start": 11.5713,
      "duration": 0.0961,
      "velocity": 127,
      "chip": "ym2612"
    },
    {
      "channel": 3,
      "note": 48,
      "start": 11.7707,
      "duration": 0.4133,
      "velocity": 113,
      "chip": "ym2612"
    },
    {
      "channel": 4,
      "note": 58,
      "start": 11.7752,
      "duration": 0.0921,
      "velocity": 86,
      "chip": "ym2612"
    },
    {
      "channel": 4,
      "note": 58,
      "start": 11.8712,
      "duration": 0.1129,
      "velocity": 86,
      "chip": "ym2612"
    },
    {
      "channel": 4,
      "note": 58,
      "start": 11.9887,
      "duration": 0.1954,
      "velocity": 86,
      "chip": "ym2612"
    },
    {
      "channel": 3,
      "note": 48,
      "start": 12.1876,
      "duration": 0.1966,
      "velocity": 113,
      "chip": "ym2612"
    },
    {
      "channel": 4,
      "note": 57,
      "start": 12.1909,
      "duration": 0.1934,
      "velocity": 86,
      "chip": "ym2612"
    },
    {
      "channel": 0,
      "note": 79,
      "start": 12.3883,
      "duration": 0.8291,
      "velocity": 97,
      "chip": "ym2612"
    },
    {
      "channel": 3,
      "note": 51,
      "start": 12.391,
      "duration": 0.2099,
      "velocity": 113,
      "chip": "ym2612"
    },
    {
      "channel": 4,
      "note": 56,
      "start": 12.3946,
      "duration": 0.106,
      "velocity": 86,
      "chip": "ym2612"
    },
    {
      "channel": 4,
      "note": 56,
      "start": 12.505,
      "duration": 0.1957,
      "velocity": 86,
      "chip": "ym2612"
    },
    {
      "channel": 3,
      "note": 48,
      "start": 12.6043,
      "duration": 0.1964,
      "velocity": 113,
      "chip": "ym2612"
    },
    {
      "channel": 4,
      "note": 55,
      "start": 12.7051,
      "duration": 0.0958,
      "velocity": 86,
      "chip": "ym2612"
    },
    {
      "channel": 3,
      "note": 47,
      "start": 12.8039,
      "duration": 0.2134,
      "velocity": 113,
      "chip": "ym2612"
    },
    {
      "channel": 4,
      "note": 53,
      "start": 12.8076,
      "duration": 0.2099,
      "velocity": 86,
      "chip": "ym2612"
    },
    {
      "channel": 3,
      "note": 48,
      "start": 13.0205,
      "duration": 0.1971,
      "velocity": 113,
      "chip": "ym2612"
    },
    {
      "channel": 4,
      "note": 51,
      "start": 13.0241,
      "duration": 0.1935,
      "velocity": 86,
      "chip": "ym2612"
    },
    {
      "channel": 0,
      "note": 81,
      "start": 13.2219,
      "duration": 0.1953,
      "velocity": 97,
      "chip": "ym2612"
    },
    {
      "channel": 1,
      "note": 72,
      "start": 13.2269,
      "duration": 0.4071,
      "velocity": 77,
      "chip": "ym2612"
    },
    {
      "channel": 3,
      "note": 45,
      "start": 13.2298,
      "duration": 0.4044,
      "velocity": 113,
      "chip": "ym2612"
    },
    {
      "channel": 4,
      "note": 69,
      "start": 13.2346,
      "duration": 0.0828,
      "velocity": 127,
      "chip": "ym2612"
    },
    {
      "channel": 0,
      "note": 79,
      "start": 13.4208,
      "duration": 0.213,
      "velocity": 97,
      "chip": "ym2612"
    },
    {
      "channel": 4,
      "note": 69,
      "start": 13.4244,
      "duration": 0.1097,
      "velocity": 127,
      "chip": "ym2612"
    },
    {
      "channel": 0,
      "note": 81,
      "start": 13.638,
      "duration": 1.0291,
      "velocity": 97,
      "chip": "ym2612"
    },
    {
      "channel": 1,
      "note": 72,
      "start": 13.6416,
      "duration": 0.1924,
      "velocity": 77,
      "chip": "ym2612"
    },
    {
      "channel": 3,
      "note": 45,
      "start": 13.6444,
      "duration": 0.1896,
      "velocity": 113,
      "chip": "ym2612"
    },
    {
      "channel": 4,
      "note": 47,
      "start": 13.6492,
      "duration": 0.185,
      "velocity": 127,
      "chip": "ym2612"
    },
    {
      "channel": 1,
      "note": 69,
      "start": 13.8381,
      "duration": 0.4124,
      "velocity": 77,
      "chip": "ym2612"
    },
    {
      "channel": 3,
      "note": 48,
      "start": 13.841,
      "duration": 0.4097,
      "velocity": 113,
      "chip": "ym2612"
    },
    {
      "channel": 4,
      "note": 69,
      "start": 13.8461,
      "duration": 0.0878,
      "velocity": 127,
      "chip": "ym2612"
    },
    {
      "channel": 4,
      "note": 69,
      "start": 14.0546,
      "duration": 0.096,
      "velocity": 127,
      "chip": "ym2612"
    },
    {
      "channel": 1,
      "note": 72,
      "start": 14.2544,
      "duration": 0.4129,
      "velocity": 77,
      "chip": "ym2612"
    },
    {
      "channel": 3,
      "note": 48,
      "start": 14.2572,
      "duration": 0.1934,
      "velocity": 113,
      "chip": "ym2612"
    },
    {
      "channel": 4,
      "note": 69,
      "start": 14.2605,
      "duration": 0.0902,
      "velocity": 127,
      "chip": "ym2612"
    },
    {
      "channel": 4,
      "note": 47,
      "start": 14.4561,
      "duration": 0.2114,
      "velocity": 127,
      "chip": "ym2612"
    },
    {
      "channel": 0,
      "note": 79,
      "start": 14.6712,
      "duration": 0.8127,
      "velocity": 97,
      "chip": "ym2612"
    },
    {
      "channel": 1,
      "note": 71,
      "start": 14.6749,
      "duration": 1.0258,
      "velocity": 77,
      "chip": "ym2612"
    },
    {
      "channel": 4,
      "note": 69,
      "start": 14.6801,
      "duration": 0.0873,
      "velocity": 127,
      "chip": "ym2612"
    },
    {
      "channel": 4,
      "note": 69,
      "start": 14.8715,
      "duration": 0.4125,
      "velocity": 127,
      "chip": "ym2612"
    },
    {
      "channel": 3,
      "note": 48,
      "start": 15.071,
      "duration": 0.4131,
      "velocity": 113,
      "chip": "ym2612"
    },
    {
      "channel": 4,
      "note": 47,
      "start": 15.2894,
      "duration": 0.1948,
      "velocity": 127,
      "chip": "ym2612"
    },
    {
      "channel": 0,
      "note": 77,
      "start": 15.488,
      "duration": 0.6125,
      "velocity": 97,
      "chip": "ym2612"
    },
    {
      "channel": 3,
      "note": 48,
      "start": 15.491,
      "duration": 0.2098,
      "velocity": 113,
      "chip": "ym2612"
    },
    {
      "channel": 4,
      "note": 69,
      "start": 15.496,
      "duration": 0.088,
      "velocity": 127,
      "chip": "ym2612"
    },
    {
      "channel": 1,
      "note": 72,
      "start": 15.7051,
      "duration": 0.0955,
      "velocity": 77,
      "chip": "ym2612"
    },
    {
      "channel": 3,
      "note": 51,
      "start": 15.7077,
      "duration": 0.1931,
      "velocity": 113,
      "chip": "ym2612"
    },
    {
      "channel": 4,
      "note": 69,
      "start": 15.7109,
      "duration": 0.0899,
      "velocity": 127,
      "chip": "ym2612"
    },
    {
      "channel": 1,
      "note": 71,
      "start": 15.8044,
      "duration": 0.0962,
      "velocity": 77,
      "chip": "ym2612"
    },
    {
      "channel": 1,
      "note": 69,
      "start": 15.9045,
      "duration": 0.0961,
      "velocity": 77,
      "chip": "ym2612"
    },
    {
      "channel": 3,
      "note": 52,
      "start": 15.9071,
      "duration": 0.1938,
      "velocity": 113,
      "chip": "ym2612"
    },
    {
      "channel": 4,
      "note": 69,
      "start": 15.9103,
      "duration": 0.0904,
      "velocity": 127,
      "chip": "ym2612"
    },
    {
      "channel": 1,
      "note": 67,
      "start": 16.0044,
      "duration": 0.0963,
      "velocity": 77,
      "chip": "ym2612"
    },
    {
      "channel": 0,
      "note": 74,
      "start": 16.1047,
      "duration": 0.4126,
      "velocity": 97,
      "chip": "ym2612"
    },
    {
      "channel": 1,
      "note": 71,
      "start": 16.1079,
      "duration": 0.1093,
      "velocity": 77,
      "chip": "ym2612"
    },
    {
      "channel": 3,
      "note": 51,
      "start": 16.1105,
      "duration": 0.2069,
      "velocity": 113,
      "chip": "ym2612"
    },
    {
      "channel": 4,
      "note": 47,
      "start": 16.1152,
      "duration": 0.2024,
      "velocity": 127,
      "chip": "ym2612"
    },
    {
      "channel": 1,
      "note": 69,
      "start": 16.221,
      "duration": 0.0964,
      "velocity": 77,
      "chip": "ym2612"
    },
    {
      "channel": 1,
      "note": 67,
      "start": 16.3212,
      "duration": 0.096,
      "velocity": 77,
      "chip": "ym2612"
    },
    {
      "channel": 3,
      "note": 48,
      "start": 16.3238,
      "duration": 0.1937,
      "velocity": 113,
      "chip": "ym2612"
    },
    {
      "channel": 4,
      "note": 69,
      "start": 16.3285,
      "duration": 0.0889,
      "velocity": 127,
      "chip": "ym2612"
    },
    {
      "channel": 1,
      "note": 65,
      "start": 16.4211,
      "duration": 0.0963,
      "velocity": 77,
      "chip": "ym2612"
    },
    {
      "channel": 0,
      "note": 76,
      "start": 16.5217,
      "duration": 0.2121,
      "velocity": 97,
      "chip": "ym2612"
    },
    {
      "channel": 1,
      "note": 64,
      "start": 16.5253,
      "duration": 1.4421,
      "velocity": 77,
      "chip": "ym2612"
    },
    {
      "channel": 3,
      "note": 45,
      "start": 16.5282,
      "duration": 0.4059,
      "velocity": 113,
      "chip": "ym2612"
    },
    {
      "channel": 4,
      "note": 69,
      "start": 16.5315,
      "duration": 0.0859,
      "velocity": 127,
      "chip": "ym2612"
    },
    {
      "channel": 0,
      "note": 77,
      "start": 16.7376,
      "duration": 0.1963,
      "velocity": 97,
      "chip": "ym2612"
    },
    {
      "channel": 4,
      "note": 69,
      "start": 16.7415,
      "duration": 0.0926,
      "velocity": 127,
      "chip": "ym2612"
    },
    {
      "channel": 0,
      "note": 76,
      "start": 16.9379,
      "duration": 0.6127,
      "velocity": 97,
      "chip": "ym2612"
    },
    {
      "channel": 3,
      "note": 45,
      "start": 16.9408,
      "duration": 0.1932,
      "velocity": 113,
      "chip": "ym2612"
    },
    {
      "channel": 4,
      "note": 47,
      "start": 16.9456,
      "duration": 0.1885,
      "velocity": 127,
      "chip": "ym2612"
    },
    {
      "channel": 3,
      "note": 48,
      "start": 17.1379,
      "duration": 0.4129,
      "velocity": 113,
      "chip": "ym2612"
    },
    {
      "channel": 4,
      "note": 69,
      "start": 17.1426,
      "duration": 0.1081,
      "velocity": 127,
      "chip": "ym2612"
    },
    {
      "channel": 4,
      "note": 69,
      "start": 17.3546,
      "duration": 0.0961,
      "velocity": 127,
      "chip": "ym2612"
    },
    {
      "channel": 0,
      "note": 76,
      "start": 17.5546,
      "duration": 0.0959,
      "velocity": 97,
      "chip": "ym2612"
    },
    {
      "channel": 3,
      "note": 48,
      "start": 17.5576,
      "duration": 0.1931,
      "velocity": 113,
      "chip": "ym2612"
    },
    {
      "channel": 4,
      "note": 69,
      "start": 17.5609,
      "duration": 0.0898,
      "velocity": 127,
      "chip": "ym2612"
    },
    {
      "channel": 0,
      "note": 74,
      "start": 17.6542,
      "duration": 0.0963,
      "velocity": 97,
      "chip": "ym2612"
    },
    {
      "channel": 0,
      "note": 72,
      "start": 17.7542,
      "duration": 0.1129,
      "velocity": 97,
      "chip": "ym2612"
    },
    {
      "channel": 4,
      "note": 47,
      "start": 17.7596,
      "duration": 0.2079,
      "velocity": 127,
      "chip": "ym2612"
    },
    {
      "channel": 0,
      "note": 69,
      "start": 17.8708,
      "duration": 0.0964,
      "velocity": 97,
      "chip": "ym2612"
    },
    {
      "channel": 0,
      "note": 71,
      "start": 17.9714,
      "duration": 1.8459,
      "velocity": 97,
      "chip": "ym2612"
    },
    {
      "channel": 1,
      "note": 65,
      "start": 17.9749,
      "duration": 1.8424,
      "velocity": 77,
      "chip": "ym2612"
    },
    {
      "channel": 4,
      "note": 69,
      "start": 17.9798,
      "duration": 0.0875,
      "velocity": 127,
      "chip": "ym2612"
    },
    {
      "channel": 4,
      "note": 69,
      "start": 18.1715,
      "duration": 0.4124,
      "velocity": 127,
      "chip": "ym2612"
    },
    {
      "channel": 3,
      "note": 48,
      "start": 18.3873,
      "duration": 0.3968,
      "velocity": 113,
      "chip": "ym2612"
    },
    {
      "channel": 4,
      "note": 47,
      "start": 18.5897,
      "duration": 0.1945,
      "velocity": 127,
      "chip": "ym2612"
    },
    {
      "channel": 3,
      "note": 48,
      "start": 18.7877,
      "duration": 0.2129,
      "velocity": 113,
      "chip": "ym2612"
    },
    {
      "channel": 4,
      "note": 69,
      "start": 18.7924,
      "duration": 0.1083,
      "velocity": 127,
      "chip": "ym2612"
    },
    {
      "channel": 3,
      "note": 51,
      "start": 19.0038,
      "duration": 0.197,
      "velocity": 113,
      "chip": "ym2612"
    },
    {
      "channel": 4,
      "note": 69,
      "start": 19.0071,
      "duration": 0.0936,
      "velocity": 127,
      "chip": "ym2612"
    },
    {
      "channel": 3,
      "note": 48,
      "start": 19.2039,
      "duration": 0.2134,
      "velocity": 113,
      "chip": "ym2612"
    },
    {
      "channel": 4,
      "note": 69,
      "start": 19.2072,
      "duration": 0.0935,
      "velocity": 127,
      "chip": "ym2612"
    },
    {
      "channel": 3,
      "note": 47,
      "start": 19.4205,
      "duration": 0.1969,
      "velocity": 113,
      "chip": "ym2612"
    },
    {
      "channel": 4,
      "note": 47,
      "start": 19.4256,
      "duration": 0.1919,
      "velocity": 127,
      "chip": "ym2612"
    },
    {
      "channel": 3,
      "note": 48,
      "start": 19.6207,
      "duration": 0.1968,
      "velocity": 113,
      "chip": "ym2612"
    },
    {
      "channel": 4,
      "note": 69,
      "start": 19.6254,
      "duration": 0.092,
      "velocity": 127,
      "chip": "ym2612"
    },
    {
      "channel": 0,
      "note": 81,
      "start": 19.8229,
      "duration": 0.411,
      "velocity": 77,
      "chip": "ym2612"
    },
    {
      "channel": 1,
      "note": 72,
      "start": 19.8268,
      "duration": 0.6239,
      "velocity": 77,
      "chip": "ym2612"
    },
    {
      "channel": 3,
      "note": 45,
      "start": 19.83,
      "duration": 0.4041,
      "velocity": 113,
      "chip": "ym2612"
    },
    {
      "channel": 4,
      "note": 69,
      "start": 19.8334,
      "duration": 0.1006,
      "velocity": 127,
      "chip": "ym2612"
    },
    {
      "channel": 4,
      "note": 69,
      "start": 20.0379,
      "duration": 0.0962,
      "velocity": 127,
      "chip": "ym2612"
    },
    {
      "channel": 0,
      "note": 79,
      "start": 20.238,
      "duration": 0.2127,
      "velocity": 77,
      "chip": "ym2612"
    },
    {
      "channel": 3,
      "note": 45,
      "start": 20.2409,
      "duration": 0.21,
      "velocity": 113,
      "chip": "ym2612"
    },
    {
      "channel": 4,
      "note": 47,
      "start": 20.2456,
      "duration": 0.2054,
      "velocity": 127,
      "chip": "ym2612"
    },
    {
      "channel": 0,
      "note": 74,
      "start": 20.4549,
      "duration": 0.3956,
      "velocity": 77,
      "chip": "ym2612"
    },
    {
      "channel": 1,
      "note": 69,
      "start": 20.4585,
      "duration": 1.8422,
      "velocity": 77,
      "chip": "ym2612"
    },
    {
      "channel": 3,
      "note": 48,
      "start": 20.4614,
      "duration": 0.3893,
      "velocity": 113,
      "chip": "ym2612"
    },
    {
      "channel": 4,
      "note": 69,
      "start": 20.4665,
      "duration": 0.0841,
      "velocity": 127,
      "chip": "ym2612"
    },
    {
      "channel": 4,
      "note": 69,
      "start": 20.6546,
      "duration": 0.0962,
      "velocity": 127,
      "chip": "ym2612"
    },
    {
      "channel": 0,
      "note": 79,
      "start": 20.8542,
      "duration": 0.413,
      "velocity": 77,
      "chip": "ym2612"
    },
    {
      "channel": 3,
      "note": 48,
      "start": 20.8572,
      "duration": 0.2102,
      "velocity": 113,
      "chip": "ym2612"
    },
    {
      "channel": 4,
      "note": 69,
      "start": 20.8605,
      "duration": 0.0901,
      "velocity": 127,
      "chip": "ym2612"
    },
    {
      "channel": 4,
      "note": 47,
      "start": 21.0729,
      "duration": 0.1945,
      "velocity": 127,
      "chip": "ym2612"
    },
    {
      "channel": 0,
      "note": 76,
      "start": 21.271,
      "duration": 0.413,
      "velocity": 77,
      "chip": "ym2612"
    },
    {
      "channel": 4,
      "note": 69,
      "start": 21.2763,
      "duration": 0.091,
      "velocity": 127,
      "chip": "ym2612"
    },
    {
      "channel": 4,
      "note": 69,
      "start": 21.4715,
      "duration": 0.4126,
      "velocity": 127,
      "chip": "ym2612"
    },
    {
      "channel": 0,
      "note": 77,
      "start": 21.688,
      "duration": 0.1959,
      "velocity": 77,
      "chip": "ym2612"
    },
    {
      "channel": 3,
      "note": 48,
      "start": 21.691,
      "duration": 0.4099,
      "velocity": 113,
      "chip": "ym2612"
    },
    {
      "channel": 0,
      "note": 76,
      "start": 21.888,
      "duration": 0.2127,
      "velocity": 77,
      "chip": "ym2612"
    },
    {
      "channel": 4,
      "note": 47,
      "start": 21.8929,
      "duration": 0.208,
      "velocity": 127,
      "chip": "ym2612"
    },
    {
      "channel": 0,
      "note": 74,
      "start": 22.1044,
      "duration": 0.1962,
      "velocity": 77,
      "chip": "ym2612"
    },
    {
      "channel": 3,
      "note": 48,
      "start": 22.1078,
      "duration": 0.1931,
      "velocity": 113,
      "chip": "ym2612"
    },
    {
      "channel": 4,
      "note": 69,
      "start": 22.1129,
      "duration": 0.0878,
      "velocity": 127,
      "chip": "ym2612"
    },
    {
      "channel": 0,
      "note": 71,
      "start": 22.3046,
      "duration": 0.196,
      "velocity": 77,
      "chip": "ym2612"
    },
    {
      "channel": 1,
      "note": 71,
      "start": 22.3081,
      "duration": 0.4093,
      "velocity": 77,
      "chip": "ym2612"
    },
    {
      "channel": 3,
      "note": 51,
      "start": 22.3107,
      "duration": 0.1901,
      "velocity": 113,
      "chip": "ym2612"
    },
    {
      "channel": 4,
      "note": 69,
      "start": 22.314,
      "duration": 0.0867,
      "velocity": 127,
      "chip": "ym2612"
    },
    {
      "channel": 0,
      "note": 79,
      "start": 22.5043,
      "duration": 0.2129,
      "velocity": 77,
      "chip": "ym2612"
    },
    {
      "channel": 3,
      "note": 52,
      "start": 22.507,
      "duration": 0.2105,
      "velocity": 113,
      "chip": "ym2612"
    },
    {
      "channel": 4,
      "note": 69,
      "start": 22.5103,
      "duration": 0.1071,
      "velocity": 127,
      "chip": "ym2612"
    },
    {
      "channel": 0,
      "note": 83,
      "start": 22.7212,
      "duration": 0.1961,
      "velocity": 77,
      "chip": "ym2612"
    },
    {
      "channel": 1,
      "note": 67,
      "start": 22.7245,
      "duration": 0.4095,
      "velocity": 77,
      "chip": "ym2612"
    },
    {
      "channel": 3,
      "note": 51,
      "start": 22.727,
      "duration": 0.1904,
      "velocity": 113,
      "chip": "ym2612"
    },
    {
      "channel": 4,
      "note": 47,
      "start": 22.7317,
      "duration": 0.1858,
      "velocity": 127,
      "chip": "ym2612"
    },
    {
      "channel": 0,
      "note": 84,
      "start": 22.9211,
      "duration": 0.2128,
      "velocity": 77,
      "chip": "ym2612"
    },
    {
      "channel": 3,
      "note": 48,
      "start": 22.9238,
      "duration": 0.2104,
      "velocity": 113,
      "chip": "ym2612"
    },
    {
      "channel": 4,
      "note": 69,
      "start": 22.9289,
      "duration": 0.0885,
      "velocity": 127,
      "chip": "ym2612"
    },
    {
      "channel": 0,
      "note": 81,
      "start": 23.1381,
      "duration": 1.4292,
      "velocity": 77,
      "chip": "ym2612"
    },
    {
      "channel": 1,
      "note": 64,
      "start": 23.1417,
      "duration": 1.4258,
      "velocity": 77,
      "chip": "ym2612"
    },
    {
      "channel": 3,
      "note": 45,
      "start": 23.1444,
      "duration": 0.3896,
      "velocity": 113,
      "chip": "ym2612"
    },
    {
      "channel": 4,
      "note": 69,
      "start": 23.1478,
      "duration": 0.0863,
      "velocity": 127,
      "chip": "ym2612"
    },
    {
      "channel": 4,
      "note": 69,
      "start": 23.3378,
      "duration": 0.0962,
      "velocity": 127,
      "chip": "ym2612"
    },
    {
      "channel": 3,
      "note": 45,
      "start": 23.5375,
      "duration": 0.2131,
      "velocity": 113,
      "chip": "ym2612"
    },
    {
      "channel": 4,
      "note": 47,
      "start": 23.5422,
      "duration": 0.2085,
      "velocity": 127,
      "chip": "ym2612"
    },
    {
      "channel": 3,
      "note": 48,
      "start": 23.7542,
      "duration": 0.3964,
      "velocity": 113,
      "chip": "ym2612"
    },
    {
      "channel": 4,
      "note": 69,
      "start": 23.759,
      "duration": 0.0918,
      "velocity": 127,
      "chip": "ym2612"
    },
    {
      "channel": 4,
      "note": 69,
      "start": 23.9545,
      "duration": 0.0962,
      "velocity": 127,
      "chip": "ym2612"
    },
    {
      "channel": 3,
      "note": 48,
      "start": 24.1544,
      "duration": 0.213,
      "velocity": 113,
      "chip": "ym2612"
    },
    {
      "channel": 4,
      "note": 69,
      "start": 24.1581,
      "duration": 0.1092,
      "velocity": 127,
      "chip": "ym2612"
    },
    {
      "channel": 4,
      "note": 47,
      "start": 24.3728,
      "duration": 0.1948,
      "velocity": 127,
      "chip": "ym2612"
    },
    {
      "channel": 0,
      "note": 72,
      "start": 24.5714,
      "duration": 0.8291,
      "velocity": 77,
      "chip": "ym2612"
    },
    {
      "channel": 1,
      "note": 65,
      "start": 24.575,
      "duration": 0.8257,
      "velocity": 77,
      "chip": "ym2612"
    },
    {
      "channel": 4,
      "note": 69,
      "start": 24.5799,
      "duration": 0.0874,
      "velocity": 127,
      "chip": "ym2612"
    },
    {
      "channel": 4,
      "note": 69,
      "start": 24.7883,
      "duration": 0.3958,
      "velocity": 127,
      "chip": "ym2612"
    },
    {
      "channel": 3,
      "note": 48,
      "start": 24.9874,
      "duration": 0.4134,
      "velocity": 113,
      "chip": "ym2612"
    },
    {
      "channel": 4,
      "note": 47,
      "start": 25.1898,
      "duration": 0.2111,
      "velocity": 127,
      "chip": "ym2612"
    },
    {
      "channel": 0,
      "note": 74,
      "start": 25.4048,
      "duration": 1.0291,
      "velocity": 77,
      "chip": "ym2612"
    },
    {
      "channel": 1,
      "note": 67,
      "start": 25.4088,
      "duration": 1.0253,
      "velocity": 77,
      "chip": "ym2612"
    },
    {
      "channel": 3,
      "note": 48,
      "start": 25.4116,
      "duration": 0.189,
      "velocity": 113,
      "chip": "ym2612"
    },
    {
      "channel": 4,
      "note": 69,
      "start": 25.4164,
      "duration": 0.0843,
      "velocity": 127,
      "chip": "ym2612"
    },
    {
      "channel": 3,
      "note": 51,
      "start": 25.6038,
      "duration": 0.2136,
      "velocity": 113,
      "chip": "ym2612"
    },
    {
      "channel": 4,
      "note": 69,
      "start": 25.6071,
      "duration": 0.0937,
      "velocity": 127,
      "chip": "ym2612"
    },
    {
      "channel": 3,
      "note": 48,
      "start": 25.8206,
      "duration": 0.1968,
      "velocity": 113,
      "chip": "ym2612"
    },
    {
      "channel": 4,
      "note": 69,
      "start": 25.8239,
      "duration": 0.0934,
      "velocity": 127,
      "chip": "ym2612"
    },
    {
      "channel": 3,
      "note": 47,
      "start": 26.0205,
      "duration": 0.1968,
      "velocity": 113,
      "chip": "ym2612"
    },
    {
      "channel": 4,
      "note": 47,
      "start": 26.0256,
      "duration": 0.1919,
      "velocity": 127,
      "chip": "ym2612"
    },
    {
      "channel": 3,
      "note": 48,
      "start": 26.2206,
      "duration": 0.2136,
      "velocity": 113,
      "chip": "ym2612"
    },
    {
      "channel": 4,
      "note": 69,
      "start": 26.2254,
      "duration": 0.1087,
      "velocity": 127,
      "chip": "ym2612"
    },
    {
      "channel": 0,
      "note": 81,
      "start": 26.4385,
      "duration": 0.412,
      "velocity": 77,
      "chip": "ym2612"
    },
    {
      "channel": 1,
      "note": 72,
      "start": 26.4421,
      "duration": 0.6087,
      "velocity": 77,
      "chip": "ym2612"
    },
    {
      "channel": 3,
      "note": 45,
      "start": 26.445,
      "duration": 0.4058,
      "velocity": 113,
      "chip": "ym2612"
    },
    {
      "channel": 4,
      "note": 69,
      "start": 26.4483,
      "duration": 0.0858,
      "velocity": 127,
      "chip": "ym2612"
    },
    {
      "channel": 4,
      "note": 69,
      "start": 26.6379,
      "duration": 0.0962,
      "velocity": 127,
      "chip": "ym2612"
    },
    {
      "channel": 0,
      "note": 79,
      "start": 26.8546,
      "duration": 0.196,
      "velocity": 77,
      "chip": "ym2612"
    },
    {
      "channel": 3,
      "note": 45,
      "start": 26.8579,
      "duration": 0.1929,
      "velocity": 113,
      "chip": "ym2612"
    },
    {
      "channel": 4,
      "note": 47,
      "start": 26.8631,
      "duration": 0.188,
      "velocity": 127,
      "chip": "ym2612"
    },
    {
      "channel": 0,
      "note": 74,
      "start": 27.055,
      "duration": 0.4123,
      "velocity": 77,
      "chip": "ym2612"
    },
    {
      "channel": 1,
      "note": 69,
      "start": 27.0586,
      "duration": 1.8422,
      "velocity": 77,
      "chip": "ym2612"
    },
    {
      "channel": 3,
      "note": 48,
      "start": 27.0614,
      "duration": 0.4061,
      "velocity": 113,
      "chip": "ym2612"
    },
    {
      "channel": 4,
      "note": 69,
      "start": 27.0661,
      "duration": 0.0846,
      "velocity": 127,
      "chip": "ym2612"
    },
    {
      "channel": 4,
      "note": 69,
      "start": 27.2545,
      "duration": 0.0962,
      "velocity": 127,
      "chip": "ym2612"
    },
    {
      "channel": 0,
      "note": 79,
      "start": 27.471,
      "duration": 0.3962,
      "velocity": 77,
      "chip": "ym2612"
    },
    {
      "channel": 3,
      "note": 48,
      "start": 27.474,
      "duration": 0.1934,
      "velocity": 113,
      "chip": "ym2612"
    },
    {
      "channel": 4,
      "note": 69,
      "start": 27.4773,
      "duration": 0.09,
      "velocity": 127,
      "chip": "ym2612"
    },
    {
      "channel": 4,
      "note": 47,
      "start": 27.6729,
      "duration": 0.1945,
      "velocity": 127,
      "chip": "ym2612"
    },
    {
      "channel": 0,
      "note": 76,
      "start": 27.871,
      "duration": 0.413,
      "velocity": 77,
      "chip": "ym2612"
    },
    {
      "channel": 4,
      "note": 69,
      "start": 27.8763,
      "duration": 0.1078,
      "velocity": 127,
      "chip": "ym2612"
    },
    {
      "channel": 4,
      "note": 69,
      "start": 28.0882,
      "duration": 0.4125,
      "velocity": 127,
      "chip": "ym2612"
    },
    {
      "channel": 0,
      "note": 77,
      "start": 28.2881,
      "duration": 0.2124,
      "velocity": 77,
      "chip": "ym2612"
    },
    {
      "channel": 3,
      "note": 48,
      "start": 28.291,
      "duration": 0.4098,
      "velocity": 113,
      "chip": "ym2612"
    },
    {
      "channel": 0,
      "note": 76,
      "start": 28.5042,
      "duration": 0.1964,
      "velocity": 77,
      "chip": "ym2612"
    },
    {
      "channel": 4,
      "note": 47,
      "start": 28.5092,
      "duration": 0.1917,
      "velocity": 127,
      "chip": "ym2612"
    },
    {
      "channel": 0,
      "note": 74,
      "start": 28.7045,
      "duration": 0.1961,
      "velocity": 77,
      "chip": "ym2612"
    },
    {
      "channel": 3,
      "note": 48,
      "start": 28.7074,
      "duration": 0.1934,
      "velocity": 113,
      "chip": "ym2612"
    },
    {
      "channel": 4,
      "note": 69,
      "start": 28.7125,
      "duration": 0.0882,
      "velocity": 127,
      "chip": "ym2612"
    },
    {
      "channel": 0,
      "note": 71,
      "start": 28.9046,
      "duration": 0.2127,
      "velocity": 77,
      "chip": "ym2612"
    },
    {
      "channel": 1,
      "note": 71,
      "start": 28.9081,
      "duration": 0.4093,
      "velocity": 77,
      "chip": "ym2612"
    },
    {
      "channel": 3,
      "note": 51,
      "start": 28.9107,
      "duration": 0.2067,
      "velocity": 113,
      "chip": "ym2612"
    },
    {
      "channel": 4,
      "note": 69,
      "start": 28.914,
      "duration": 0.1034,
      "velocity": 127,
      "chip": "ym2612"
    },
    {
      "channel": 0,
      "note": 79,
      "start": 29.1213,
      "duration": 0.196,
      "velocity": 77,
      "chip": "ym2612"
    },
    {
      "channel": 3,
      "note": 52,
      "start": 29.124,
      "duration": 0.1936,
      "velocity": 113,
      "chip": "ym2612"
    },
    {
      "channel": 4,
      "note": 69,
      "start": 29.1273,
      "duration": 0.0901,
      "velocity": 127,
      "chip": "ym2612"
    },
    {
      "channel": 0,
      "note": 83,
      "start": 29.3213,
      "duration": 0.2126,
      "velocity": 77,
      "chip": "ym2612"
    },
    {
      "channel": 1,
      "note": 67,
      "start": 29.3246,
      "duration": 0.4095,
      "velocity": 77,
      "chip": "ym2612"
    },
    {
      "channel": 3,
      "note": 51,
      "start": 29.3271,
      "duration": 0.2069,
      "velocity": 113,
      "chip": "ym2612"
    },
    {
      "channel": 4,
      "note": 47,
      "start": 29.3319,
      "duration": 0.2023,
      "velocity": 127,
      "chip": "ym2612"
    },
    {
      "channel": 0,
      "note": 84,
      "start": 29.5378,
      "duration": 0.1961,
      "velocity": 77,
      "chip": "ym2612"
    },
    {
      "channel": 3,
      "note": 48,
      "start": 29.5408,
      "duration": 0.1934,
      "velocity": 113,
      "chip": "ym2612"
    },
    {
      "channel": 4,
      "note": 69,
      "start": 29.5459,
      "duration": 0.0882,
      "velocity": 127,
      "chip": "ym2612"
    },
    {
      "channel": 0,
      "note": 81,
      "start": 29.7382,
      "duration": 1.4458,
      "velocity": 77,
      "chip": "ym2612"
    },
    {
      "channel": 1,
      "note": 64,
      "start": 29.7418,
      "duration": 1.4424,
      "velocity": 77,
      "chip": "ym2612"
    },
    {
      "channel": 3,
      "note": 45,
      "start": 29.7446,
      "duration": 0.4061,
      "velocity": 113,
      "chip": "ym2612"
    },
    {
      "channel": 4,
      "note": 69,
      "start": 29.7479,
      "duration": 0.0861,
      "velocity": 127,
      "chip": "ym2612"
    },
    {
      "channel": 4,
      "note": 69,
      "start": 29.9379,
      "duration": 0.1129,
      "velocity": 127,
      "chip": "ym2612"
    },
    {
      "channel": 3,
      "note": 45,
      "start": 30.1541,
      "duration": 0.1966,
      "velocity": 113,
      "chip": "ym2612"
    },
    {
      "channel": 4,
      "note": 47,
      "start": 30.1588,
      "duration": 0.192,
      "velocity": 127,
      "chip": "ym2612"
    },
    {
      "channel": 3,
      "note": 48,
      "start": 30.3543,
      "duration": 0.4131,
      "velocity": 113,
      "chip": "ym2612"
    },
    {
      "channel": 4,
      "note": 69,
      "start": 30.3594,
      "duration": 0.0914,
      "velocity": 127,
      "chip": "ym2612"
    },
    {
      "channel": 4,
      "note": 69,
      "start": 30.5546,
      "duration": 0.1129,
      "velocity": 127,
      "chip": "ym2612"
    },
    {
      "channel": 3,
      "note": 48,
      "start": 30.7708,
      "duration": 0.1966,
      "velocity": 113,
      "chip": "ym2612"
    },
    {
      "channel": 4,
      "note": 69,
      "start": 30.7741,
      "duration": 0.0933,
      "velocity": 127,
      "chip": "ym2612"
    },
    {
      "channel": 4,
      "note": 47,
      "start": 30.9728,
      "duration": 0.2115,
      "velocity": 127,
      "chip": "ym2612"
    },
    {
      "channel": 0,
      "note": 72,
      "start": 31.1881,
      "duration": 0.8125,
      "velocity": 77,
      "chip": "ym2612"
    },
    {
      "channel": 1,
      "note": 65,
      "start": 31.1922,
      "duration": 0.8087,
      "velocity": 77,
      "chip": "ym2612"
    },
    {
      "channel": 4,
      "note": 69,
      "start": 31.197,
      "duration": 0.0871,
      "velocity": 127,
      "chip": "ym2612"
    },
    {
      "channel": 4,
      "note": 69,
      "start": 31.3886,
      "duration": 0.0955,
      "velocity": 127,
      "chip": "ym2612"
    },
    {
      "channel": 4,
      "note": 105,
      "start": 31.488,
      "duration": 0.0962,
      "velocity": 127,
      "chip": "ym2612"
    },
    {
      "channel": 3,
      "note": 48,
      "start": 31.5875,
      "duration": 0.4134,
      "velocity": 113,
      "chip": "ym2612"
    },
    {
      "channel": 4,
      "note": 58,
      "start": 31.5921,
      "duration": 0.1087,
      "velocity": 86,
      "chip": "ym2612"
    },
    {
      "channel": 4,
      "note": 58,
      "start": 31.7048,
      "duration": 0.0961,
      "velocity": 86,
      "chip": "ym2612"
    },
    {
      "channel": 4,
      "note": 58,
      "start": 31.8051,
      "duration": 0.196,
      "velocity": 86,
      "chip": "ym2612"
    },
    {
      "channel": 0,
      "note": 74,
      "start": 32.0049,
      "duration": 1.0291,
      "velocity": 77,
      "chip": "ym2612"
    },
    {
      "channel": 1,
      "note": 67,
      "start": 32.0085,
      "duration": 1.0256,
      "velocity": 77,
      "chip": "ym2612"
    },
    {
      "channel": 3,
      "note": 48,
      "start": 32.0117,
      "duration": 0.2057,
      "velocity": 113,
      "chip": "ym2612"
    },
    {
      "channel": 4,
      "note": 57,
      "start": 32.0151,
      "duration": 0.2025,
      "velocity": 86,
      "chip": "ym2612"
    },
    {
      "channel": 3,
      "note": 51,
      "start": 32.2207,
      "duration": 0.1968,
      "velocity": 113,
      "chip": "ym2612"
    },
    {
      "channel": 4,
      "note": 56,
      "start": 32.2242,
      "duration": 0.0933,
      "velocity": 86,
      "chip": "ym2612"
    },
    {
      "channel": 4,
      "note": 56,
      "start": 32.3221,
      "duration": 0.1954,
      "velocity": 86,
      "chip": "ym2612"
    },
    {
      "channel": 3,
      "note": 48,
      "start": 32.4205,
      "duration": 0.1968,
      "velocity": 113,
      "chip": "ym2612"
    },
    {
      "channel": 4,
      "note": 55,
      "start": 32.5217,
      "duration": 0.0957,
      "velocity": 86,
      "chip": "ym2612"
    },
    {
      "channel": 3,
      "note": 47,
      "start": 32.6206,
      "duration": 0.2135,
      "velocity": 113,
      "chip": "ym2612"
    },
    {
      "channel": 4,
      "note": 53,
      "start": 32.6241,
      "duration": 0.21,
      "velocity": 86,
      "chip": "ym2612"
    },
    {
      "channel": 3,
      "note": 48,
      "start": 32.8373,
      "duration": 0.1969,
      "velocity": 113,
      "chip": "ym2612"
    },
    {
      "channel": 4,
      "note": 51,
      "start": 32.8406,
      "duration": 0.1938,
      "velocity": 86,
      "chip": "ym2612"
    },
    {
      "channel": 0,
      "note": 81,
      "start": 33.0383,
      "duration": 0.4122,
      "velocity": 77,
      "chip": "ym2612"
    },
    {
      "channel": 1,
      "note": 72,
      "start": 33.042,
      "duration": 0.6088,
      "velocity": 77,
      "chip": "ym2612"
    },
    {
      "channel": 3,
      "note": 45,
      "start": 33.0448,
      "duration": 0.4059,
      "velocity": 113,
      "chip": "ym2612"
    },
    {
      "channel": 4,
      "note": 69,
      "start": 33.0496,
      "duration": 0.0845,
      "velocity": 127,
      "chip": "ym2612"
    },
    {
      "channel": 4,
      "note": 69,
      "start": 33.2546,
      "duration": 0.0961,
      "velocity": 127,
      "chip": "ym2612"
    },
    {
      "channel": 0,
      "note": 79,
      "start": 33.4551,
      "duration": 0.1956,
      "velocity": 77,
      "chip": "ym2612"
    },
    {
      "channel": 3,
      "note": 45,
      "start": 33.458,
      "duration": 0.1929,
      "velocity": 113,
      "chip": "ym2612"
    },
    {
      "channel": 4,
      "note": 47,
      "start": 33.4632,
      "duration": 0.1879,
      "velocity": 127,
      "chip": "ym2612"
    },
    {
      "channel": 0,
      "note": 74,
      "start": 33.655,
      "duration": 0.4123,
      "velocity": 77,
      "chip": "ym2612"
    },
    {
      "channel": 1,
      "note": 69,
      "start": 33.6586,
      "duration": 1.8588,
      "velocity": 77,
      "chip": "ym2612"
    },
    {
      "channel": 3,
      "note": 48,
      "start": 33.6614,
      "duration": 0.4061,
      "velocity": 113,
      "chip": "ym2612"
    },
    {
      "channel": 4,
      "note": 69,
      "start": 33.6661,
      "duration": 0.0845,
      "velocity": 127,
      "chip": "ym2612"
    },
    {
      "channel": 4,
      "note": 69,
      "start": 33.8713,
      "duration": 0.0961,
      "velocity": 127,
      "chip": "ym2612"
    },
    {
      "channel": 0,
      "note": 79,
      "start": 34.071,
      "duration": 0.4129,
      "velocity": 77,
      "chip": "ym2612"
    },
    {
      "channel": 3,
      "note": 48,
      "start": 34.0744,
      "duration": 0.193,
      "velocity": 113,
      "chip": "ym2612"
    },
    {
      "channel": 4,
      "note": 69,
      "start": 34.0777,
      "duration": 0.0896,
      "velocity": 127,
      "chip": "ym2612"
    },
    {
      "channel": 4,
      "note": 47,
      "start": 34.2733,
      "duration": 0.2109,
      "velocity": 127,
      "chip": "ym2612"
    },
    {
      "channel": 0,
      "note": 76,
      "start": 34.4878,
      "duration": 0.4128,
      "velocity": 77,
      "chip": "ym2612"
    },
    {
      "channel": 4,
      "note": 69,
      "start": 34.4927,
      "duration": 0.0912,
      "velocity": 127,
      "chip": "ym2612"
    },
    {
      "channel": 4,
      "note": 69,
      "start": 34.6883,
      "duration": 0.4124,
      "velocity": 127,
      "chip": "ym2612"
    },
    {
      "channel": 0,
      "note": 77,
      "start": 34.9048,
      "duration": 0.1957,
      "velocity": 77,
      "chip": "ym2612"
    },
    {
      "channel": 3,
      "note": 48,
      "start": 34.9077,
      "duration": 0.3931,
      "velocity": 113,
      "chip": "ym2612"
    },
    {
      "channel": 0,
      "note": 76,
      "start": 35.1042,
      "duration": 0.1964,
      "velocity": 77,
      "chip": "ym2612"
    },
    {
      "channel": 4,
      "note": 47,
      "start": 35.1096,
      "duration": 0.1913,
      "velocity": 127,
      "chip": "ym2612"
    },
    {
      "channel": 0,
      "note": 74,
      "start": 35.3044,
      "duration": 0.2128,
      "velocity": 77,
      "chip": "ym2612"
    },
    {
      "channel": 3,
      "note": 48,
      "start": 35.3074,
      "duration": 0.2101,
      "velocity": 113,
      "chip": "ym2612"
    },
    {
      "channel": 4,
      "note": 69,
      "start": 35.3121,
      "duration": 0.1052,
      "velocity": 127,
      "chip": "ym2612"
    },
    {
      "channel": 0,
      "note": 71,
      "start": 35.5213,
      "duration": 0.1959,
      "velocity": 77,
      "chip": "ym2612"
    },
    {
      "channel": 1,
      "note": 71,
      "start": 35.5249,
      "duration": 0.4092,
      "velocity": 77,
      "chip": "ym2612"
    },
    {
      "channel": 3,
      "note": 51,
      "start": 35.5274,
      "duration": 0.19,
      "velocity": 113,
      "chip": "ym2612"
    },
    {
      "channel": 4,
      "note": 69,
      "start": 35.5307,
      "duration": 0.0866,
      "velocity": 127,
      "chip": "ym2612"
    },
    {
      "channel": 0,
      "note": 79,
      "start": 35.721,
      "duration": 0.2129,
      "velocity": 77,
      "chip": "ym2612"
    },
    {
      "channel": 3,
      "note": 52,
      "start": 35.7237,
      "duration": 0.2105,
      "velocity": 113,
      "chip": "ym2612"
    },
    {
      "channel": 4,
      "note": 69,
      "start": 35.727,
      "duration": 0.0904,
      "velocity": 127,
      "chip": "ym2612"
    },
    {
      "channel": 0,
      "note": 83,
      "start": 35.938,
      "duration": 0.1959,
      "velocity": 77,
      "chip": "ym2612"
    },
    {
      "channel": 1,
      "note": 67,
      "start": 35.9413,
      "duration": 0.3927,
      "velocity": 77,
      "chip": "ym2612"
    },
    {
      "channel": 3,
      "note": 51,
      "start": 35.9438,
      "duration": 0.1903,
      "velocity": 113,
      "chip": "ym2612"
    },
    {
      "channel": 4,
      "note": 47,
      "start": 35.9489,
      "duration": 0.1853,
      "velocity": 127,
      "chip": "ym2612"
    },
    {
      "channel": 0,
      "note": 84,
      "start": 36.1378,
      "duration": 0.1961,
      "velocity": 77,
      "chip": "ym2612"
    },
    {
      "channel": 3,
      "note": 48,
      "start": 36.1404,
      "duration": 0.1937,
      "velocity": 113,
      "chip": "ym2612"
    },
    {
      "channel": 4,
      "note": 69,
      "start": 36.1451,
      "duration": 0.0889,
      "velocity": 127,
      "chip": "ym2612"
    },
    {
      "channel": 0,
      "note": 81,
      "start": 36.3385,
      "duration": 1.4455,
      "velocity": 77,
      "chip": "ym2612"
    },
    {
      "channel": 1,
      "note": 64,
      "start": 36.3424,
      "duration": 1.4417,
      "velocity": 77,
      "chip": "ym2612"
    },
    {
      "channel": 3,
      "note": 45,
      "start": 36.3453,
      "duration": 0.4054,
      "velocity": 113,
      "chip": "ym2612"
    },
    {
      "channel": 4,
      "note": 69,
      "start": 36.3486,
      "duration": 0.1021,
      "velocity": 127,
      "chip": "ym2612"
    },
    {
      "channel": 4,
      "note": 69,
      "start": 36.5546,
      "duration": 0.0961,
      "velocity": 127,
      "chip": "ym2612"
    },
    {
      "channel": 3,
      "note": 45,
      "start": 36.7546,
      "duration": 0.1962,
      "velocity": 113,
      "chip": "ym2612"
    },
    {
      "channel": 4,
      "note": 47,
      "start": 36.7593,
      "duration": 0.1916,
      "velocity": 127,
      "chip": "ym2612"
    },
    {
      "channel": 3,
      "note": 48,
      "start": 36.9544,
      "duration": 0.413,
      "velocity": 113,
      "chip": "ym2612"
    },
    {
      "channel": 4,
      "note": 69,
      "start": 36.9595,
      "duration": 0.1079,
      "velocity": 127,
      "chip": "ym2612"
    },
    {
      "channel": 4,
      "note": 69,
      "start": 37.1712,
      "duration": 0.0962,
      "velocity": 127,
      "chip": "ym2612"
    },
    {
      "channel": 3,
      "note": 48,
      "start": 37.3709,
      "duration": 0.2132,
      "velocity": 113,
      "chip": "ym2612"
    },
    {
      "channel": 4,
      "note": 69,
      "start": 37.3741,
      "duration": 0.0932,
      "velocity": 127,
      "chip": "ym2612"
    },
    {
      "channel": 4,
      "note": 47,
      "start": 37.5895,
      "duration": 0.1948,
      "velocity": 127,
      "chip": "ym2612"
    },
    {
      "channel": 0,
      "note": 72,
      "start": 37.7881,
      "duration": 0.8292,
      "velocity": 77,
      "chip": "ym2612"
    },
    {
      "channel": 1,
      "note": 65,
      "start": 37.7918,
      "duration": 0.8257,
      "velocity": 77,
      "chip": "ym2612"
    },
    {
      "channel": 4,
      "note": 69,
      "start": 37.797,
      "duration": 0.0871,
      "velocity": 127,
      "chip": "ym2612"
    },
    {
      "channel": 4,
      "note": 69,
      "start": 37.9882,
      "duration": 0.4125,
      "velocity": 127,
      "chip": "ym2612"
    },
    {
      "channel": 3,
      "note": 48,
      "start": 38.2041,
      "duration": 0.4135,
      "velocity": 113,
      "chip": "ym2612"
    },
    {
      "channel": 4,
      "note": 47,
      "start": 38.4061,
      "duration": 0.2117,
      "velocity": 127,
      "chip": "ym2612"
    },
    {
      "channel": 0,
      "note": 74,
      "start": 38.6217,
      "duration": 1.0289,
      "velocity": 77,
      "chip": "ym2612"
    },
    {
      "channel": 1,
      "note": 67,
      "start": 38.6252,
      "duration": 1.0255,
      "velocity": 77,
      "chip": "ym2612"
    },
    {
      "channel": 3,
      "note": 48,
      "start": 38.6281,
      "duration": 0.1893,
      "velocity": 113,
      "chip": "ym2612"
    },
    {
      "channel": 4,
      "note": 69,
      "start": 38.6332,
      "duration": 0.084,
      "velocity": 127,
      "chip": "ym2612"
    },
    {
      "channel": 3,
      "note": 51,
      "start": 38.8206,
      "duration": 0.1968,
      "velocity": 113,
      "chip": "ym2612"
    },
    {
      "channel": 4,
      "note": 69,
      "start": 38.8239,
      "duration": 0.0935,
      "velocity": 127,
      "chip": "ym2612"
    },
    {
      "channel": 3,
      "note": 48,
      "start": 39.0209,
      "duration": 0.2131,
      "velocity": 113,
      "chip": "ym2612"
    },
    {
      "channel": 4,
      "note": 69,
      "start": 39.0242,
      "duration": 0.1099,
      "velocity": 127,
      "chip": "ym2612"
    },
    {
      "channel": 3,
      "note": 47,
      "start": 39.2373,
      "duration": 0.1968,
      "velocity": 113,
      "chip": "ym2612"
    },
    {
      "channel": 4,
      "note": 47,
      "start": 39.242,
      "duration": 0.1922,
      "velocity": 127,
      "chip": "ym2612"
    },
    {
      "channel": 3,
      "note": 48,
      "start": 39.4374,
      "duration": 0.2135,
      "velocity": 113,
      "chip": "ym2612"
    },
    {
      "channel": 4,
      "note": 69,
      "start": 39.4421,
      "duration": 0.092,
      "velocity": 127,
      "chip": "ym2612"
    },
    {
      "channel": 0,
      "note": 81,
      "start": 39.6549,
      "duration": 0.3957,
      "velocity": 77,
      "chip": "ym2612"
    },
    {
      "channel": 1,
      "note": 72,
      "start": 39.6584,
      "duration": 0.609,
      "velocity": 77,
      "chip": "ym2612"
    },
    {
      "channel": 3,
      "note": 45,
      "start": 39.6612,
      "duration": 0.3896,
      "velocity": 113,
      "chip": "ym2612"
    },
    {
      "channel": 4,
      "note": 69,
      "start": 39.6649,
      "duration": 0.0858,
      "velocity": 127,
      "chip": "ym2612"
    },
    {
      "channel": 4,
      "note": 69,
      "start": 39.8546,
      "duration": 0.0961,
      "velocity": 127,
      "chip": "ym2612"
    },
    {
      "channel": 0,
      "note": 79,
      "start": 40.0547,
      "duration": 0.2126,
      "velocity": 77,
      "chip": "ym2612"
    },
    {
      "channel": 3,
      "note": 45,
      "start": 40.0576,
      "duration": 0.2099,
      "velocity": 113,
      "chip": "ym2612"
    },
    {
      "channel": 4,
      "note": 47,
      "start": 40.0624,
      "duration": 0.2054,
      "velocity": 127,
      "chip": "ym2612"
    },
    {
      "channel": 0,
      "note": 74,
      "start": 40.2721,
      "duration": 0.3952,
      "velocity": 77,
      "chip": "ym2612"
    },
    {
      "channel": 1,
      "note": 69,
      "start": 40.2756,
      "duration": 1.8418,
      "velocity": 77,
      "chip": "ym2612"
    },
    {
      "channel": 3,
      "note": 48,
      "start": 40.2784,
      "duration": 0.3891,
      "velocity": 113,
      "chip": "ym2612"
    },
    {
      "channel": 4,
      "note": 69,
      "start": 40.2832,
      "duration": 0.0841,
      "velocity": 127,
      "chip": "ym2612"
    },
    {
      "channel": 4,
      "note": 69,
      "start": 40.4713,
      "duration": 0.0961,
      "velocity": 127,
      "chip": "ym2612"
    },
    {
      "channel": 0,
      "note": 79,
      "start": 40.671,
      "duration": 0.4128,
      "velocity": 77,
      "chip": "ym2612"
    },
    {
      "channel": 3,
      "note": 48,
      "start": 40.674,
      "duration": 0.21,
      "velocity": 113,
      "chip": "ym2612"
    },
    {
      "channel": 4,
      "note": 69,
      "start": 40.6773,
      "duration": 0.1068,
      "velocity": 127,
      "chip": "ym2612"
    },
    {
      "channel": 4,
      "note": 47,
      "start": 40.8899,
      "duration": 0.1942,
      "velocity": 127,
      "chip": "ym2612"
    },
    {
      "channel": 0,
      "note": 76,
      "start": 41.0876,
      "duration": 0.4129,
      "velocity": 77,
      "chip": "ym2612"
    },
    {
      "channel": 4,
      "note": 69,
      "start": 41.0926,
      "duration": 0.0915,
      "velocity": 127,
      "chip": "ym2612"
    },
    {
      "channel": 4,
      "note": 69,
      "start": 41.3049,
      "duration": 0.3959,
      "velocity": 127,
      "chip": "ym2612"
    },
    {
      "channel": 0,
      "note": 77,
      "start": 41.5047,
      "duration": 0.1958,
      "velocity": 77,
      "chip": "ym2612"
    },
    {
      "channel": 3,
      "note": 48,
      "start": 41.508,
      "duration": 0.4094,
      "velocity": 113,
      "chip": "ym2612"
    },
    {
      "channel": 0,
      "note": 76,
      "start": 41.7042,
      "duration": 0.213,
      "velocity": 77,
      "chip": "ym2612"
    },
    {
      "channel": 4,
      "note": 47,
      "start": 41.7095,
      "duration": 0.208,
      "velocity": 127,
      "chip": "ym2612"
    },
    {
      "channel": 0,
      "note": 74,
      "start": 41.9211,
      "duration": 0.1962,
      "velocity": 77,
      "chip": "ym2612"
    },
    {
      "channel": 3,
      "note": 48,
      "start": 41.924,
      "duration": 0.1935,
      "velocity": 113,
      "chip": "ym2612"
    },
    {
      "channel": 4,
      "note": 69,
      "start": 41.9288,
      "duration": 0.0886,
      "velocity": 127,
      "chip": "ym2612"
    },
    {
      "channel": 0,
      "note": 71,
      "start": 42.1213,
      "duration": 0.2127,
      "velocity": 77,
      "chip": "ym2612"
    },
    {
      "channel": 1,
      "note": 71,
      "start": 42.1249,
      "duration": 0.4092,
      "velocity": 77,
      "chip": "ym2612"
    },
    {
      "channel": 3,
      "note": 51,
      "start": 42.1274,
      "duration": 0.2068,
      "velocity": 113,
      "chip": "ym2612"
    },
    {
      "channel": 4,
      "note": 69,
      "start": 42.1307,
      "duration": 0.0866,
      "velocity": 127,
      "chip": "ym2612"
    },
    {
      "channel": 0,
      "note": 79,
      "start": 42.3377,
      "duration": 0.1962,
      "velocity": 77,
      "chip": "ym2612"
    },
    {
      "channel": 3,
      "note": 52,
      "start": 42.3404,
      "duration": 0.1938,
      "velocity": 113,
      "chip": "ym2612"
    },
    {
      "channel": 4,
      "note": 69,
      "start": 42.3437,
      "duration": 0.0903,
      "velocity": 127,
      "chip": "ym2612"
    },
    {
      "channel": 0,
      "note": 83,
      "start": 42.538,
      "duration": 0.1961,
      "velocity": 77,
      "chip": "ym2612"
    },
    {
      "channel": 1,
      "note": 67,
      "start": 42.5416,
      "duration": 0.4092,
      "velocity": 77,
      "chip": "ym2612"
    },
    {
      "channel": 3,
      "note": 51,
      "start": 42.5442,
      "duration": 0.19,
      "velocity": 113,
      "chip": "ym2612"
    },
    {
      "channel": 4,
      "note": 47,
      "start": 42.5493,
      "duration": 0.1851,
      "velocity": 127,
      "chip": "ym2612"
    },
    {
      "channel": 0,
      "note": 84,
      "start": 42.7378,
      "duration": 0.2128,
      "velocity": 77,
      "chip": "ym2612"
    },
    {
      "channel": 3,
      "note": 48,
      "start": 42.7405,
      "duration": 0.2104,
      "velocity": 113,
      "chip": "ym2612"
    },
    {
      "channel": 4,
      "note": 69,
      "start": 42.7452,
      "duration": 0.1055,
      "velocity": 127,
      "chip": "ym2612"
    },
    {
      "channel": 0,
      "note": 81,
      "start": 42.9549,
      "duration": 1.429,
      "velocity": 77,
      "chip": "ym2612"
    },
    {
      "channel": 1,
      "note": 64,
      "start": 42.9585,
      "duration": 1.4256,
      "velocity": 77,
      "chip": "ym2612"
    },
    {
      "channel": 3,
      "note": 45,
      "start": 42.9614,
      "duration": 0.3894,
      "velocity": 113,
      "chip": "ym2612"
    },
    {
      "channel": 4,
      "note": 69,
      "start": 42.9647,
      "duration": 0.086,
      "velocity": 127,
      "chip": "ym2612"
    },
    {
      "channel": 4,
      "note": 69,
      "start": 43.1546,
      "duration": 0.0961,
      "velocity": 127,
      "chip": "ym2612"
    },
    {
      "channel": 3,
      "note": 45,
      "start": 43.3542,
      "duration": 0.2132,
      "velocity": 113,
      "chip": "ym2612"
    },
    {
      "channel": 4,
      "note": 47,
      "start": 43.3593,
      "duration": 0.2082,
      "velocity": 127,
      "chip": "ym2612"
    },
    {
      "channel": 3,
      "note": 48,
      "start": 43.5713,
      "duration": 0.4129,
      "velocity": 113,
      "chip": "ym2612"
    },
    {
      "channel": 4,
      "note": 69,
      "start": 43.576,
      "duration": 0.0915,
      "velocity": 127,
      "chip": "ym2612"
    },
    {
      "channel": 4,
      "note": 69,
      "start": 43.7714,
      "duration": 0.0961,
      "velocity": 127,
      "chip": "ym2612"
    },
    {
      "channel": 3,
      "note": 48,
      "start": 43.9876,
      "duration": 0.1965,
      "velocity": 113,
      "chip": "ym2612"
    },
    {
      "channel": 4,
      "note": 69,
      "start": 43.9909,
      "duration": 0.0932,
      "velocity": 127,
      "chip": "ym2612"
    },
    {
      "channel": 4,
      "note": 47,
      "start": 44.1895,
      "duration": 0.1948,
      "velocity": 127,
      "chip": "ym2612"
    },
    {
      "channel": 0,
      "note": 72,
      "start": 44.3885,
      "duration": 0.8289,
      "velocity": 77,
      "chip": "ym2612"
    },
    {
      "channel": 1,
      "note": 65,
      "start": 44.3921,
      "duration": 0.8254,
      "velocity": 77,
      "chip": "ym2612"
    },
    {
      "channel": 4,
      "note": 69,
      "start": 44.3973,
      "duration": 0.1035,
      "velocity": 127,
      "chip": "ym2612"
    },
    {
      "channel": 4,
      "note": 69,
      "start": 44.6049,
      "duration": 0.0959,
      "velocity": 127,
      "chip": "ym2612"
    },
    {
      "channel": 4,
      "note": 105,
      "start": 44.7047,
      "duration": 0.0961,
      "velocity": 127,
      "chip": "ym2612"
    },
    {
      "channel": 3,
      "note": 48,
      "start": 44.8042,
      "duration": 0.4134,
      "velocity": 113,
      "chip": "ym2612"
    },
    {
      "channel": 4,
      "note": 58,
      "start": 44.8088,
      "duration": 0.0921,
      "velocity": 86,
      "chip": "ym2612"
    },
    {
      "channel": 4,
      "note": 58,
      "start": 44.9048,
      "duration": 0.1127,
      "velocity": 86,
      "chip": "ym2612"
    },
    {
      "channel": 4,
      "note": 58,
      "start": 45.022,
      "duration": 0.1957,
      "velocity": 86,
      "chip": "ym2612"
    },
    {
      "channel": 0,
      "note": 74,
      "start": 45.2215,
      "duration": 1.0291,
      "velocity": 77,
      "chip": "ym2612"
    },
    {
      "channel": 1,
      "note": 67,
      "start": 45.2252,
      "duration": 1.0256,
      "velocity": 77,
      "chip": "ym2612"
    },
    {
      "channel": 3,
      "note": 47,
      "start": 45.228,
      "duration": 0.1895,
      "velocity": 113,
      "chip": "ym2612"
    },
    {
      "channel": 4,
      "note": 57,
      "start": 45.2313,
      "duration": 0.1863,
      "velocity": 86,
      "chip": "ym2612"
    },
    {
      "channel": 3,
      "note": 48,
      "start": 45.421,
      "duration": 0.413,
      "velocity": 113,
      "chip": "ym2612"
    },
    {
      "channel": 4,
      "note": 56,
      "start": 45.4246,
      "duration": 0.1095,
      "velocity": 86,
      "chip": "ym2612"
    },
    {
      "channel": 4,
      "note": 56,
      "start": 45.5383,
      "duration": 0.1958,
      "velocity": 86,
      "chip": "ym2612"
    },
    {
      "channel": 4,
      "note": 55,
      "start": 45.7383,
      "duration": 0.0959,
      "velocity": 86,
      "chip": "ym2612"
    },
    {
      "channel": 3,
      "note": 55,
      "start": 45.8373,
      "duration": 0.4136,
      "velocity": 113,
      "chip": "ym2612"
    },
    {
      "channel": 4,
      "note": 53,
      "start": 45.8409,
      "duration": 0.21,
      "velocity": 86,
      "chip": "ym2612"
    },
    {
      "channel": 4,
      "note": 51,
      "start": 46.0548,
      "duration": 0.1963,
      "velocity": 86,
      "chip": "ym2612"
    },
    {
      "channel": 0,
      "note": 84,
      "start": 46.2564,
      "duration": 0.1943,
      "velocity": 95,
      "chip": "ym2612"
    },
    {
      "channel": 1,
      "note": 72,
      "start": 46.2623,
      "duration": 1.6385,
      "velocity": 91,
      "chip": "ym2612"
    },
    {
      "channel": 3,
      "note": 53,
      "start": 46.2666,
      "duration": 1.6344,
      "velocity": 88,
      "chip": "ym2612"
    },
    {
      "channel": 0,
      "note": 77,
      "start": 46.4546,
      "duration": 0.2128,
      "velocity": 95,
      "chip": "ym2612"
    },
    {
      "channel": 0,
      "note": 80,
      "start": 46.6714,
      "duration": 0.1961,
      "velocity": 95,
      "chip": "ym2612"
    },
    {
      "channel": 4,
      "note": 69,
      "start": 46.6752,
      "duration": 0.0924,
      "velocity": 127,
      "chip": "ym2612"
    },
    {
      "channel": 0,
      "note": 77,
      "start": 46.8714,
      "duration": 0.1961,
      "velocity": 95,
      "chip": "ym2612"
    },
    {
      "channel": 0,
      "note": 87,
      "start": 47.0714,
      "duration": 0.2127,
      "velocity": 95,
      "chip": "ym2612"
    },
    {
      "channel": 0,
      "note": 77,
      "start": 47.2883,
      "duration": 0.1957,
      "velocity": 95,
      "chip": "ym2612"
    },
    {
      "channel": 0,
      "note": 84,
      "start": 47.4879,
      "duration": 0.2127,
      "velocity": 95,
      "chip": "ym2612"
    },
    {
      "channel": 4,
      "note": 69,
      "start": 47.4914,
      "duration": 0.0927,
      "velocity": 127,
      "chip": "ym2612"
    },
    {
      "channel": 0,
      "note": 77,
      "start": 47.7046,
      "duration": 0.1961,
      "velocity": 95,
      "chip": "ym2612"
    },
    {
      "channel": 0,
      "note": 86,
      "start": 47.9049,
      "duration": 0.1957,
      "velocity": 95,
      "chip": "ym2612"
    },
    {
      "channel": 1,
      "note": 74,
      "start": 47.9084,
      "duration": 1.6423,
      "velocity": 91,
      "chip": "ym2612"
    },
    {
      "channel": 3,
      "note": 50,
      "start": 47.9109,
      "duration": 1.64,
      "velocity": 88,
      "chip": "ym2612"
    },
    {
      "channel": 0,
      "note": 74,
      "start": 48.1046,
      "duration": 0.2128,
      "velocity": 95,
      "chip": "ym2612"
    },
    {
      "channel": 0,
      "note": 77,
      "start": 48.3214,
      "duration": 0.1961,
      "velocity": 95,
      "chip": "ym2612"
    },
    {
      "channel": 4,
      "note": 69,
      "start": 48.3249,
      "duration": 0.0927,
      "velocity": 127,
      "chip": "ym2612"
    },
    {
      "channel": 0,
      "note": 74,
      "start": 48.5214,
      "duration": 0.2127,
      "velocity": 95,
      "chip": "ym2612"
    },
    {
      "channel": 0,
      "note": 81,
      "start": 48.738,
      "duration": 0.1961,
      "velocity": 95,
      "chip": "ym2612"
    },
    {
      "channel": 0,
      "note": 74,
      "start": 48.938,
      "duration": 0.1959,
      "velocity": 95,
      "chip": "ym2612"
    },
    {
      "channel": 0,
      "note": 80,
      "start": 49.1379,
      "duration": 0.2127,
      "velocity": 95,
      "chip": "ym2612"
    },
    {
      "channel": 4,
      "note": 69,
      "start": 49.1414,
      "duration": 0.1094,
      "velocity": 127,
      "chip": "ym2612"
    },
    {
      "channel": 0,
      "note": 74,
      "start": 49.3546,
      "duration": 0.196,
      "velocity": 95,
      "chip": "ym2612"
    },
    {
      "channel": 0,
      "note": 84,
      "start": 49.5548,
      "duration": 0.1959,
      "velocity": 95,
      "chip": "ym2612"
    },
    {
      "channel": 1,
      "note": 77,
      "start": 49.5583,
      "duration": 1.6425,
      "velocity": 91,
      "chip": "ym2612"
    },
    {
      "channel": 3,
      "note": 53,
      "start": 49.5607,
      "duration": 1.6401,
      "velocity": 88,
      "chip": "ym2612"
    },
    {
      "channel": 0,
      "note": 77,
      "start": 49.7546,
      "duration": 0.2128,
      "velocity": 95,
      "chip": "ym2612"
    },
    {
      "channel": 0,
      "note": 80,
      "start": 49.9713,
      "duration": 0.1962,
      "velocity": 95,
      "chip": "ym2612"
    },
    {
      "channel": 4,
      "note": 69,
      "start": 49.9748,
      "duration": 0.0927,
      "velocity": 127,
      "chip": "ym2612"
    },
    {
      "channel": 0,
      "note": 77,
      "start": 50.1714,
      "duration": 0.2127,
      "velocity": 95,
      "chip": "ym2612"
    },
    {
      "channel": 0,
      "note": 87,
      "start": 50.388,
      "duration": 0.1961,
      "velocity": 95,
      "chip": "ym2612"
    },
    {
      "channel": 0,
      "note": 77,
      "start": 50.5884,
      "duration": 0.1955,
      "velocity": 95,
      "chip": "ym2612"
    },
    {
      "channel": 0,
      "note": 84,
      "start": 50.7878,
      "duration": 0.2129,
      "velocity": 95,
      "chip": "ym2612"
    },
    {
      "channel": 4,
      "note": 69,
      "start": 50.7913,
      "duration": 0.1094,
      "velocity": 127,
      "chip": "ym2612"
    },
    {
      "channel": 0,
      "note": 77,
      "start": 51.0046,
      "duration": 0.1959,
      "velocity": 95,
      "chip": "ym2612"
    },
    {
      "channel": 0,
      "note": 86,
      "start": 51.2048,
      "duration": 0.2126,
      "velocity": 95,
      "chip": "ym2612"
    },
    {
      "channel": 1,
      "note": 74,
      "start": 51.2083,
      "duration": 1.6424,
      "velocity": 91,
      "chip": "ym2612"
    },
    {
      "channel": 3,
      "note": 50,
      "start": 51.2107,
      "duration": 1.6401,
      "velocity": 88,
      "chip": "ym2612"
    },
    {
      "channel": 0,
      "note": 74,
      "start": 51.4214,
      "duration": 0.1961,
      "velocity": 95,
      "chip": "ym2612"
    },
    {
      "channel": 0,
      "note": 77,
      "start": 51.6213,
      "duration": 0.1962,
      "velocity": 95,
      "chip": "ym2612"
    },
    {
      "channel": 4,
      "note": 69,
      "start": 51.6248,
      "duration": 0.0927,
      "velocity": 127,
      "chip": "ym2612"
    },
    {
      "channel": 0,
      "note": 74,
      "start": 51.8214,
      "duration": 0.2127,
      "velocity": 95,
      "chip": "ym2612"
    },
    {
      "channel": 0,
      "note": 81,
      "start": 52.038,
      "duration": 0.1961,
      "velocity": 95,
      "chip": "ym2612"
    },
    {
      "channel": 0,
      "note": 74,
      "start": 52.238,
      "duration": 0.2126,
      "velocity": 95,
      "chip": "ym2612"
    },
    {
      "channel": 0,
      "note": 80,
      "start": 52.4546,
      "duration": 0.1961,
      "velocity": 95,
      "chip": "ym2612"
    },
    {
      "channel": 4,
      "note": 69,
      "start": 52.458,
      "duration": 0.0927,
      "velocity": 127,
      "chip": "ym2612"
    },
    {
      "channel": 0,
      "note": 74,
      "start": 52.6546,
      "duration": 0.196,
      "velocity": 95,
      "chip": "ym2612"
    },
    {
      "channel": 0,
      "note": 84,
      "start": 52.8548,
      "duration": 0.2126,
      "velocity": 95,
      "chip": "ym2612"
    },
    {
      "channel": 1,
      "note": 72,
      "start": 52.8583,
      "duration": 1.6426,
      "velocity": 91,
      "chip": "ym2612"
    },
    {
      "channel": 3,
      "note": 53,
      "start": 52.8607,
      "duration": 1.6403,
      "velocity": 88,
      "chip": "ym2612"
    },
    {
      "channel": 0,
      "note": 77,
      "start": 53.0714,
      "duration": 0.196,
      "velocity": 95,
      "chip": "ym2612"
    },
    {
      "channel": 0,
      "note": 80,
      "start": 53.2713,
      "duration": 0.1962,
      "velocity": 95,
      "chip": "ym2612"
    },
    {
      "channel": 4,
      "note": 69,
      "start": 53.2748,
      "duration": 0.0929,
      "velocity": 127,
      "chip": "ym2612"
    },
    {
      "channel": 0,
      "note": 77,
      "start": 53.4714,
      "duration": 0.2127,
      "velocity": 95,
      "chip": "ym2612"
    },
    {
      "channel": 0,
      "note": 87,
      "start": 53.688,
      "duration": 0.1961,
      "velocity": 95,
      "chip": "ym2612"
    },
    {
      "channel": 0,
      "note": 77,
      "start": 53.8884,
      "duration": 0.2121,
      "velocity": 95,
      "chip": "ym2612"
    },
    {
      "channel": 0,
      "note": 84,
      "start": 54.1045,
      "duration": 0.1962,
      "velocity": 95,
      "chip": "ym2612"
    },
    {
      "channel": 4,
      "note": 69,
      "start": 54.108,
      "duration": 0.0928,
      "velocity": 127,
      "chip": "ym2612"
    },
    {
      "channel": 0,
      "note": 77,
      "start": 54.3046,
      "duration": 0.1961,
      "velocity": 95,
      "chip": "ym2612"
    },
    {
      "channel": 0,
      "note": 86,
      "start": 54.5049,
      "duration": 0.2125,
      "velocity": 95,
      "chip": "ym2612"
    },
    {
      "channel": 1,
      "note": 74,
      "start": 54.5084,
      "duration": 1.6424,
      "velocity": 91,
      "chip": "ym2612"
    },
    {
      "channel": 3,
      "note": 50,
      "start": 54.5109,
      "duration": 1.6401,
      "velocity": 88,
      "chip": "ym2612"
    },
    {
      "channel": 0,
      "note": 74,
      "start": 54.7213,
      "duration": 0.1961,
      "velocity": 95,
      "chip": "ym2612"
    },
    {
      "channel": 0,
      "note": 77,
      "start": 54.9213,
      "duration": 0.2129,
      "velocity": 95,
      "chip": "ym2612"
    },
    {
      "channel": 4,
      "note": 69,
      "start": 54.9248,
      "duration": 0.0927,
      "velocity": 127,
      "chip": "ym2612"
    },
    {
      "channel": 0,
      "note": 74,
      "start": 55.1381,
      "duration": 0.196,
      "velocity": 95,
      "chip": "ym2612"
    },
    {
      "channel": 0,
      "note": 81,
      "start": 55.338,
      "duration": 0.196,
      "velocity": 95,
      "chip": "ym2612"
    },
    {
      "channel": 0,
      "note": 74,
      "start": 55.538,
      "duration": 0.2127,
      "velocity": 95,
      "chip": "ym2612"
    },
    {
      "channel": 0,
      "note": 80,
      "start": 55.7546,
      "duration": 0.1961,
      "velocity": 95,
      "chip": "ym2612"
    },
    {
      "channel": 4,
      "note": 69,
      "start": 55.7581,
      "duration": 0.0927,
      "velocity": 127,
      "chip": "ym2612"
    },
    {
      "channel": 0,
      "note": 74,
      "start": 55.9546,
      "duration": 0.1961,
      "velocity": 95,
      "chip": "ym2612"
    },
    {
      "channel": 0,
      "note": 82,
      "start": 56.1551,
      "duration": 0.1122,
      "velocity": 95,
      "chip": "ym2612"
    },
    {
      "channel": 1,
      "note": 75,
      "start": 56.1586,
      "duration": 1.6588,
      "velocity": 91,
      "chip": "ym2612"
    },
    {
      "channel": 3,
      "note": 51,
      "start": 56.1611,
      "duration": 1.6565,
      "velocity": 88,
      "chip": "ym2612"
    },
    {
      "channel": 0,
      "note": 82,
      "start": 56.2713,
      "duration": 0.0961,
      "velocity": 95,
      "chip": "ym2612"
    },
    {
      "channel": 0,
      "note": 72,
      "start": 56.3714,
      "duration": 0.096,
      "velocity": 95,
      "chip": "ym2612"
    },
    {
      "channel": 0,
      "note": 72,
      "start": 56.4717,
      "duration": 0.0957,
      "velocity": 95,
      "chip": "ym2612"
    },
    {
      "channel": 0,
      "note": 75,
      "start": 56.5713,
      "duration": 0.0961,
      "velocity": 95,
      "chip": "ym2612"
    },
    {
      "channel": 4,
      "note": 69,
      "start": 56.5752,
      "duration": 0.0924,
      "velocity": 127,
      "chip": "ym2612"
    },
    {
      "channel": 0,
      "note": 75,
      "start": 56.6714,
      "duration": 0.1128,
      "velocity": 95,
      "chip": "ym2612"
    },
    {
      "channel": 0,
      "note": 72,
      "start": 56.7881,
      "duration": 0.096,
      "velocity": 95,
      "chip": "ym2612"
    },
    {
      "channel": 0,
      "note": 72,
      "start": 56.888,
      "duration": 0.0961,
      "velocity": 95,
      "chip": "ym2612"
    },
    {
      "channel": 0,
      "note": 81,
      "start": 56.988,
      "duration": 0.0961,
      "velocity": 95,
      "chip": "ym2612"
    },
    {
      "channel": 0,
      "note": 81,
      "start": 57.0879,
      "duration": 0.0961,
      "velocity": 95,
      "chip": "ym2612"
    },
    {
      "channel": 0,
      "note": 72,
      "start": 57.188,
      "duration": 0.1128,
      "velocity": 95,
      "chip": "ym2612"
    },
    {
      "channel": 0,
      "note": 72,
      "start": 57.3047,
      "duration": 0.0959,
      "velocity": 95,
      "chip": "ym2612"
    },
    {
      "channel": 0,
      "note": 82,
      "start": 57.4046,
      "duration": 0.0961,
      "velocity": 95,
      "chip": "ym2612"
    },
    {
      "channel": 4,
      "note": 69,
      "start": 57.4082,
      "duration": 0.0927,
      "velocity": 127,
      "chip": "ym2612"
    },
    {
      "channel": 0,
      "note": 82,
      "start": 57.5047,
      "duration": 0.096,
      "velocity": 95,
      "chip": "ym2612"
    },
    {
      "channel": 0,
      "note": 72,
      "start": 57.6046,
      "duration": 0.0961,
      "velocity": 95,
      "chip": "ym2612"
    },
    {
      "channel": 0,
      "note": 72,
      "start": 57.7046,
      "duration": 0.1127,
      "velocity": 95,
      "chip": "ym2612"
    },
    {
      "channel": 0,
      "note": 75,
      "start": 57.8229,
      "duration": 0.0945,
      "velocity": 97,
      "chip": "ym2612"
    },
    {
      "channel": 1,
      "note": 79,
      "start": 57.8267,
      "duration": 0.6075,
      "velocity": 91,
      "chip": "ym2612"
    },
    {
      "channel": 3,
      "note": 48,
      "start": 57.8295,
      "duration": 0.3881,
      "velocity": 88,
      "chip": "ym2612"
    },
    {
      "channel": 0,
      "note": 74,
      "start": 57.921,
      "duration": 0.0964,
      "velocity": 97,
      "chip": "ym2612"
    },
    {
      "channel": 0,
      "note": 72,
      "start": 58.0214,
      "duration": 0.196,
      "velocity": 97,
      "chip": "ym2612"
    },
    {
      "channel": 4,
      "note": 58,
      "start": 58.0262,
      "duration": 0.0913,
      "velocity": 86,
      "chip": "ym2612"
    },
    {
      "channel": 4,
      "note": 58,
      "start": 58.1214,
      "duration": 0.0963,
      "velocity": 86,
      "chip": "ym2612"
    },
    {
      "channel": 0,
      "note": 75,
      "start": 58.2213,
      "duration": 0.2128,
      "velocity": 97,
      "chip": "ym2612"
    },
    {
      "channel": 3,
      "note": 48,
      "start": 58.2245,
      "duration": 0.2098,
      "velocity": 88,
      "chip": "ym2612"
    },
    {
      "channel": 4,
      "note": 58,
      "start": 58.2282,
      "duration": 0.2063,
      "velocity": 86,
      "chip": "ym2612"
    },
    {
      "channel": 0,
      "note": 79,
      "start": 58.4384,
      "duration": 0.6123,
      "velocity": 97,
      "chip": "ym2612"
    },
    {
      "channel": 1,
      "note": 82,
      "start": 58.4419,
      "duration": 0.609,
      "velocity": 91,
      "chip": "ym2612"
    },
    {
      "channel": 3,
      "note": 51,
      "start": 58.4447,
      "duration": 0.6063,
      "velocity": 88,
      "chip": "ym2612"
    },
    {
      "channel": 4,
      "note": 57,
      "start": 58.448,
      "duration": 0.1863,
      "velocity": 86,
      "chip": "ym2612"
    },
    {
      "channel": 4,
      "note": 56,
      "start": 58.6385,
      "duration": 0.0957,
      "velocity": 86,
      "chip": "ym2612"
    },
    {
      "channel": 4,
      "note": 56,
      "start": 58.7388,
      "duration": 0.2122,
      "velocity": 86,
      "chip": "ym2612"
    },
    {
      "channel": 4,
      "note": 55,
      "start": 58.9552,
      "duration": 0.0959,
      "velocity": 86,
      "chip": "ym2612"
    },
    {
      "channel": 0,
      "note": 79,
      "start": 59.0551,
      "duration": 0.4124,
      "velocity": 97,
      "chip": "ym2612"
    },
    {
      "channel": 1,
      "note": 81,
      "start": 59.0592,
      "duration": 0.4084,
      "velocity": 91,
      "chip": "ym2612"
    },
    {
      "channel": 3,
      "note": 50,
      "start": 59.062,
      "duration": 0.4058,
      "velocity": 88,
      "chip": "ym2612"
    },
    {
      "channel": 4,
      "note": 53,
      "start": 59.0656,
      "duration": 0.1853,
      "velocity": 86,
      "chip": "ym2612"
    },
    {
      "channel": 4,
      "note": 51,
      "start": 59.2548,
      "duration": 0.2131,
      "velocity": 86,
      "chip": "ym2612"
    },
    {
      "channel": 0,
      "note": 81,
      "start": 59.4719,
      "duration": 1.4288,
      "velocity": 97,
      "chip": "ym2612"
    },
    {
      "channel": 1,
      "note": 81,
      "start": 59.4769,
      "duration": 0.6071,
      "velocity": 111,
      "chip": "ym2612"
    },
    {
      "channel": 3,
      "note": 45,
      "start": 59.4806,
      "duration": 0.3868,
      "velocity": 99,
      "chip": "ym2612"
    },
    {
      "channel": 4,
      "note": 69,
      "start": 59.4857,
      "duration": 0.0817,
      "velocity": 127,
      "chip": "ym2612"
    },
    {
      "channel": 4,
      "note": 69,
      "start": 59.6718,
      "duration": 0.0957,
      "velocity": 127,
      "chip": "ym2612"
    },
    {
      "channel": 3,
      "note": 45,
      "start": 59.8708,
      "duration": 0.2134,
      "velocity": 99,
      "chip": "ym2612"
    },
    {
      "channel": 4,
      "note": 69,
      "start": 59.8741,
      "duration": 0.1099,
      "velocity": 127,
      "chip": "ym2612"
    },
    {
      "channel": 1,
      "note": 88,
      "start": 60.0883,
      "duration": 0.4123,
      "velocity": 111,
      "chip": "ym2612"
    },
    {
      "channel": 3,
      "note": 48,
      "start": 60.0915,
      "duration": 0.4093,
      "velocity": 99,
      "chip": "ym2612"
    },
    {
      "channel": 4,
      "note": 69,
      "start": 60.0948,
      "duration": 0.0892,
      "velocity": 127,
      "chip": "ym2612"
    },
    {
      "channel": 4,
      "note": 69,
      "start": 60.288,
      "duration": 0.096,
      "velocity": 127,
      "chip": "ym2612"
    },
    {
      "channel": 1,
      "note": 86,
      "start": 60.5049,
      "duration": 0.1958,
      "velocity": 111,
      "chip": "ym2612"
    },
    {
      "channel": 3,
      "note": 48,
      "start": 60.5077,
      "duration": 0.1931,
      "velocity": 99,
      "chip": "ym2612"
    },
    {
      "channel": 4,
      "note": 69,
      "start": 60.511,
      "duration": 0.0896,
      "velocity": 127,
      "chip": "ym2612"
    },
    {
      "channel": 1,
      "note": 88,
      "start": 60.7054,
      "duration": 1.2286,
      "velocity": 111,
      "chip": "ym2612"
    },
    {
      "channel": 4,
      "note": 69,
      "start": 60.7088,
      "duration": 0.0918,
      "velocity": 127,
      "chip": "ym2612"
    },
    {
      "channel": 0,
      "note": 72,
      "start": 60.9061,
      "duration": 0.8279,
      "velocity": 77,
      "chip": "ym2612"
    },
    {
      "channel": 4,
      "note": 69,
      "start": 60.9096,
      "duration": 0.1078,
      "velocity": 127,
      "chip": "ym2612"
    },
    {
      "channel": 4,
      "note": 69,
      "start": 61.1212,
      "duration": 0.0962,
      "velocity": 127,
      "chip": "ym2612"
    },
    {
      "channel": 3,
      "note": 48,
      "start": 61.3206,
      "duration": 0.4136,
      "velocity": 99,
      "chip": "ym2612"
    },
    {
      "channel": 4,
      "note": 69,
      "start": 61.324,
      "duration": 0.0933,
      "velocity": 127,
      "chip": "ym2612"
    },
    {
      "channel": 4,
      "note": 69,
      "start": 61.4213,
      "duration": 0.1128,
      "velocity": 127,
      "chip": "ym2612"
    },
    {
      "channel": 4,
      "note": 69,
      "start": 61.5381,
      "duration": 0.0959,
      "velocity": 127,
      "chip": "ym2612"
    },
    {
      "channel": 0,
      "note": 72,
      "start": 61.738,
      "duration": 0.1959,
      "velocity": 77,
      "chip": "ym2612"
    },
    {
      "channel": 3,
      "note": 48,
      "start": 61.7408,
      "duration": 0.1933,
      "velocity": 99,
      "chip": "ym2612"
    },
    {
      "channel": 4,
      "note": 69,
      "start": 61.7441,
      "duration": 0.0899,
      "velocity": 127,
      "chip": "ym2612"
    },
    {
      "channel": 0,
      "note": 74,
      "start": 61.9381,
      "duration": 0.4124,
      "velocity": 77,
      "chip": "ym2612"
    },
    {
      "channel": 1,
      "note": 86,
      "start": 61.9418,
      "duration": 0.8256,
      "velocity": 111,
      "chip": "ym2612"
    },
    {
      "channel": 3,
      "note": 51,
      "start": 61.9443,
      "duration": 0.2063,
      "velocity": 99,
      "chip": "ym2612"
    },
    {
      "channel": 4,
      "note": 69,
      "start": 61.9477,
      "duration": 0.103,
      "velocity": 127,
      "chip": "ym2612"
    },
    {
      "channel": 4,
      "note": 69,
      "start": 62.0549,
      "duration": 0.0958,
      "velocity": 127,
      "chip": "ym2612"
    },
    {
      "channel": 3,
      "note": 52,
      "start": 62.1538,
      "duration": 0.197,
      "velocity": 99,
      "chip": "ym2612"
    },
    {
      "channel": 4,
      "note": 69,
      "start": 62.1572,
      "duration": 0.0934,
      "velocity": 127,
      "chip": "ym2612"
    },
    {
      "channel": 0,
      "note": 77,
      "start": 62.3544,
      "duration": 0.4128,
      "velocity": 77,
      "chip": "ym2612"
    },
    {
      "channel": 3,
      "note": 51,
      "start": 62.357,
      "duration": 0.1936,
      "velocity": 99,
      "chip": "ym2612"
    },
    {
      "channel": 4,
      "note": 47,
      "start": 62.3617,
      "duration": 0.1891,
      "velocity": 127,
      "chip": "ym2612"
    },
    {
      "channel": 3,
      "note": 48,
      "start": 62.5537,
      "duration": 0.2137,
      "velocity": 99,
      "chip": "ym2612"
    },
    {
      "channel": 4,
      "note": 69,
      "start": 62.5584,
      "duration": 0.1089,
      "velocity": 127,
      "chip": "ym2612"
    },
    {
      "channel": 0,
      "note": 76,
      "start": 62.7714,
      "duration": 0.1959,
      "velocity": 77,
      "chip": "ym2612"
    },
    {
      "channel": 1,
      "note": 84,
      "start": 62.7751,
      "duration": 0.6088,
      "velocity": 111,
      "chip": "ym2612"
    },
    {
      "channel": 3,
      "note": 45,
      "start": 62.7783,
      "duration": 0.4056,
      "velocity": 99,
      "chip": "ym2612"
    },
    {
      "channel": 4,
      "note": 69,
      "start": 62.7815,
      "duration": 0.0858,
      "velocity": 127,
      "chip": "ym2612"
    },
    {
      "channel": 0,
      "note": 76,
      "start": 62.9717,
      "duration": 0.4122,
      "velocity": 77,
      "chip": "ym2612"
    },
    {
      "channel": 4,
      "note": 69,
      "start": 62.9756,
      "duration": 0.0917,
      "velocity": 127,
      "chip": "ym2612"
    },
    {
      "channel": 3,
      "note": 45,
      "start": 63.1873,
      "duration": 0.1968,
      "velocity": 99,
      "chip": "ym2612"
    },
    {
      "channel": 4,
      "note": 69,
      "start": 63.1906,
      "duration": 0.0934,
      "velocity": 127,
      "chip": "ym2612"
    },
    {
      "channel": 0,
      "note": 72,
      "start": 63.3877,
      "duration": 0.4128,
      "velocity": 77,
      "chip": "ym2612"
    },
    {
      "channel": 1,
      "note": 83,
      "start": 63.3916,
      "duration": 1.8592,
      "velocity": 111,
      "chip": "ym2612"
    },
    {
      "channel": 3,
      "note": 48,
      "start": 63.3943,
      "duration": 0.4064,
      "velocity": 99,
      "chip": "ym2612"
    },
    {
      "channel": 4,
      "note": 69,
      "start": 63.3976,
      "duration": 0.0865,
      "velocity": 127,
      "chip": "ym2612"
    },
    {
      "channel": 4,
      "note": 69,
      "start": 63.5879,
      "duration": 0.1128,
      "velocity": 127,
      "chip": "ym2612"
    },
    {
      "channel": 0,
      "note": 69,
      "start": 63.8044,
      "duration": 0.4129,
      "velocity": 77,
      "chip": "ym2612"
    },
    {
      "channel": 3,
      "note": 48,
      "start": 63.8073,
      "duration": 0.1933,
      "velocity": 99,
      "chip": "ym2612"
    },
    {
      "channel": 4,
      "note": 69,
      "start": 63.8105,
      "duration": 0.0901,
      "velocity": 127,
      "chip": "ym2612"
    },
    {
      "channel": 4,
      "note": 69,
      "start": 64.0047,
      "duration": 0.0959,
      "velocity": 127,
      "chip": "ym2612"
    },
    {
      "channel": 0,
      "note": 77,
      "start": 64.2214,
      "duration": 1.0292,
      "velocity": 77,
      "chip": "ym2612"
    },
    {
      "channel": 4,
      "note": 69,
      "start": 64.2249,
      "duration": 0.0925,
      "velocity": 127,
      "chip": "ym2612"
    },
    {
      "channel": 4,
      "note": 69,
      "start": 64.4212,
      "duration": 0.0962,
      "velocity": 127,
      "chip": "ym2612"
    },
    {
      "channel": 3,
      "note": 48,
      "start": 64.6205,
      "duration": 0.4135,
      "velocity": 99,
      "chip": "ym2612"
    },
    {
      "channel": 4,
      "note": 69,
      "start": 64.624,
      "duration": 0.11,
      "velocity": 127,
      "chip": "ym2612"
    },
    {
      "channel": 4,
      "note": 69,
      "start": 64.738,
      "duration": 0.096,
      "velocity": 127,
      "chip": "ym2612"
    },
    {
      "channel": 4,
      "note": 69,
      "start": 64.838,
      "duration": 0.096,
      "velocity": 127,
      "chip": "ym2612"
    },
    {
      "channel": 3,
      "note": 48,
      "start": 65.0378,
      "duration": 0.2131,
      "velocity": 99,
      "chip": "ym2612"
    },
    {
      "channel": 4,
      "note": 69,
      "start": 65.041,
      "duration": 0.093,
      "velocity": 127,
      "chip": "ym2612"
    },
    {
      "channel": 0,
      "note": 79,
      "start": 65.2548,
      "duration": 0.8124,
      "velocity": 77,
      "chip": "ym2612"
    },
    {
      "channel": 3,
      "note": 51,
      "start": 65.2574,
      "duration": 0.1932,
      "velocity": 99,
      "chip": "ym2612"
    },
    {
      "channel": 4,
      "note": 69,
      "start": 65.2608,
      "duration": 0.0898,
      "velocity": 127,
      "chip": "ym2612"
    },
    {
      "channel": 4,
      "note": 69,
      "start": 65.3549,
      "duration": 0.0958,
      "velocity": 127,
      "chip": "ym2612"
    },
    {
      "channel": 3,
      "note": 48,
      "start": 65.4539,
      "duration": 0.1968,
      "velocity": 99,
      "chip": "ym2612"
    },
    {
      "channel": 4,
      "note": 69,
      "start": 65.4573,
      "duration": 0.0933,
      "velocity": 127,
      "chip": "ym2612"
    },
    {
      "channel": 3,
      "note": 47,
      "start": 65.6538,
      "duration": 0.2136,
      "velocity": 99,
      "chip": "ym2612"
    },
    {
      "channel": 4,
      "note": 47,
      "start": 65.6585,
      "duration": 0.209,
      "velocity": 127,
      "chip": "ym2612"
    },
    {
      "channel": 3,
      "note": 48,
      "start": 65.8706,
      "duration": 0.1968,
      "velocity": 99,
      "chip": "ym2612"
    },
    {
      "channel": 4,
      "note": 69,
      "start": 65.8754,
      "duration": 0.092,
      "velocity": 127,
      "chip": "ym2612"
    },
    {
      "channel": 0,
      "note": 76,
      "start": 66.0714,
      "duration": 0.6126,
      "velocity": 77,
      "chip": "ym2612"
    },
    {
      "channel": 1,
      "note": 81,
      "start": 66.075,
      "duration": 0.609,
      "velocity": 111,
      "chip": "ym2612"
    },
    {
      "channel": 3,
      "note": 45,
      "start": 66.0778,
      "duration": 0.4063,
      "velocity": 99,
      "chip": "ym2612"
    },
    {
      "channel": 4,
      "note": 69,
      "start": 66.0811,
      "duration": 0.0863,
      "velocity": 127,
      "chip": "ym2612"
    },
    {
      "channel": 4,
      "note": 69,
      "start": 66.2717,
      "duration": 0.1123,
      "velocity": 127,
      "chip": "ym2612"
    },
    {
      "channel": 3,
      "note": 45,
      "start": 66.4875,
      "duration": 0.1968,
      "velocity": 99,
      "chip": "ym2612"
    },
    {
      "channel": 4,
      "note": 69,
      "start": 66.4908,
      "duration": 0.0931,
      "velocity": 127,
      "chip": "ym2612"
    },
    {
      "channel": 0,
      "note": 69,
      "start": 66.6886,
      "duration": 0.412,
      "velocity": 77,
      "chip": "ym2612"
    },
    {
      "channel": 1,
      "note": 88,
      "start": 66.6927,
      "duration": 1.858,
      "velocity": 111,
      "chip": "ym2612"
    },
    {
      "channel": 3,
      "note": 48,
      "start": 66.6955,
      "duration": 0.4053,
      "velocity": 99,
      "chip": "ym2612"
    },
    {
      "channel": 4,
      "note": 69,
      "start": 66.6988,
      "duration": 0.0853,
      "velocity": 127,
      "chip": "ym2612"
    },
    {
      "channel": 4,
      "note": 69,
      "start": 66.9046,
      "duration": 0.0961,
      "velocity": 127,
      "chip": "ym2612"
    },
    {
      "channel": 0,
      "note": 71,
      "start": 67.1043,
      "duration": 0.413,
      "velocity": 77,
      "chip": "ym2612"
    },
    {
      "channel": 3,
      "note": 48,
      "start": 67.1076,
      "duration": 0.1931,
      "velocity": 99,
      "chip": "ym2612"
    },
    {
      "channel": 4,
      "note": 69,
      "start": 67.1109,
      "duration": 0.0899,
      "velocity": 127,
      "chip": "ym2612"
    },
    {
      "channel": 4,
      "note": 69,
      "start": 67.3048,
      "duration": 0.1125,
      "velocity": 127,
      "chip": "ym2612"
    },
    {
      "channel": 0,
      "note": 72,
      "start": 67.5212,
      "duration": 0.8127,
      "velocity": 77,
      "chip": "ym2612"
    },
    {
      "channel": 4,
      "note": 69,
      "start": 67.5248,
      "duration": 0.0926,
      "velocity": 127,
      "chip": "ym2612"
    },
    {
      "channel": 4,
      "note": 69,
      "start": 67.7212,
      "duration": 0.0961,
      "velocity": 127,
      "chip": "ym2612"
    },
    {
      "channel": 3,
      "note": 48,
      "start": 67.9374,
      "duration": 0.3967,
      "velocity": 99,
      "chip": "ym2612"
    },
    {
      "channel": 4,
      "note": 69,
      "start": 67.9409,
      "duration": 0.0931,
      "velocity": 127,
      "chip": "ym2612"
    },
    {
      "channel": 4,
      "note": 69,
      "start": 68.0379,
      "duration": 0.0961,
      "velocity": 127,
      "chip": "ym2612"
    },
    {
      "channel": 4,
      "note": 69,
      "start": 68.1381,
      "duration": 0.096,
      "velocity": 127,
      "chip": "ym2612"
    },
    {
      "channel": 0,
      "note": 72,
      "start": 68.338,
      "duration": 0.2125,
      "velocity": 77,
      "chip": "ym2612"
    },
    {
      "channel": 3,
      "note": 48,
      "start": 68.3409,
      "duration": 0.2099,
      "velocity": 99,
      "chip": "ym2612"
    },
    {
      "channel": 4,
      "note": 69,
      "start": 68.3442,
      "duration": 0.1066,
      "velocity": 127,
      "chip": "ym2612"
    },
    {
      "channel": 0,
      "note": 74,
      "start": 68.5548,
      "duration": 0.8124,
      "velocity": 77,
      "chip": "ym2612"
    },
    {
      "channel": 1,
      "note": 88,
      "start": 68.5585,
      "duration": 0.3922,
      "velocity": 111,
      "chip": "ym2612"
    },
    {
      "channel": 3,
      "note": 51,
      "start": 68.561,
      "duration": 0.1897,
      "velocity": 99,
      "chip": "ym2612"
    },
    {
      "channel": 4,
      "note": 69,
      "start": 68.5644,
      "duration": 0.0863,
      "velocity": 127,
      "chip": "ym2612"
    },
    {
      "channel": 4,
      "note": 69,
      "start": 68.655,
      "duration": 0.0958,
      "velocity": 127,
      "chip": "ym2612"
    },
    {
      "channel": 3,
      "note": 52,
      "start": 68.7539,
      "duration": 0.197,
      "velocity": 99,
      "chip": "ym2612"
    },
    {
      "channel": 4,
      "note": 69,
      "start": 68.7573,
      "duration": 0.0934,
      "velocity": 127,
      "chip": "ym2612"
    },
    {
      "channel": 1,
      "note": 89,
      "start": 68.9548,
      "duration": 0.4126,
      "velocity": 111,
      "chip": "ym2612"
    },
    {
      "channel": 3,
      "note": 51,
      "start": 68.9573,
      "duration": 0.21,
      "velocity": 99,
      "chip": "ym2612"
    },
    {
      "channel": 4,
      "note": 47,
      "start": 68.962,
      "duration": 0.2054,
      "velocity": 127,
      "chip": "ym2612"
    },
    {
      "channel": 3,
      "note": 48,
      "start": 69.1704,
      "duration": 0.1971,
      "velocity": 99,
      "chip": "ym2612"
    },
    {
      "channel": 4,
      "note": 69,
      "start": 69.1751,
      "duration": 0.0923,
      "velocity": 127,
      "chip": "ym2612"
    },
    {
      "channel": 0,
      "note": 76,
      "start": 69.3715,
      "duration": 0.2124,
      "velocity": 77,
      "chip": "ym2612"
    },
    {
      "channel": 1,
      "note": 84,
      "start": 69.3752,
      "duration": 0.6088,
      "velocity": 111,
      "chip": "ym2612"
    },
    {
      "channel": 3,
      "note": 45,
      "start": 69.378,
      "duration": 0.4061,
      "velocity": 99,
      "chip": "ym2612"
    },
    {
      "channel": 4,
      "note": 69,
      "start": 69.3813,
      "duration": 0.0861,
      "velocity": 127,
      "chip": "ym2612"
    },
    {
      "channel": 0,
      "note": 76,
      "start": 69.5885,
      "duration": 0.3954,
      "velocity": 77,
      "chip": "ym2612"
    },
    {
      "channel": 4,
      "note": 69,
      "start": 69.5923,
      "duration": 0.0917,
      "velocity": 127,
      "chip": "ym2612"
    },
    {
      "channel": 3,
      "note": 45,
      "start": 69.7879,
      "duration": 0.1963,
      "velocity": 99,
      "chip": "ym2612"
    },
    {
      "channel": 4,
      "note": 69,
      "start": 69.7911,
      "duration": 0.0929,
      "velocity": 127,
      "chip": "ym2612"
    },
    {
      "channel": 0,
      "note": 72,
      "start": 69.9879,
      "duration": 0.4128,
      "velocity": 77,
      "chip": "ym2612"
    },
    {
      "channel": 1,
      "note": 83,
      "start": 69.9917,
      "duration": 1.859,
      "velocity": 111,
      "chip": "ym2612"
    },
    {
      "channel": 3,
      "note": 48,
      "start": 69.9945,
      "duration": 0.4063,
      "velocity": 99,
      "chip": "ym2612"
    },
    {
      "channel": 4,
      "note": 69,
      "start": 69.9978,
      "duration": 0.1029,
      "velocity": 127,
      "chip": "ym2612"
    },
    {
      "channel": 4,
      "note": 69,
      "start": 70.2046,
      "duration": 0.0961,
      "velocity": 127,
      "chip": "ym2612"
    },
    {
      "channel": 0,
      "note": 69,
      "start": 70.4046,
      "duration": 0.4127,
      "velocity": 77,
      "chip": "ym2612"
    },
    {
      "channel": 3,
      "note": 48,
      "start": 70.4074,
      "duration": 0.2099,
      "velocity": 99,
      "chip": "ym2612"
    },
    {
      "channel": 4,
      "note": 69,
      "start": 70.4107,
      "duration": 0.09,
      "velocity": 127,
      "chip": "ym2612"
    },
    {
      "channel": 4,
      "note": 69,
      "start": 70.6214,
      "duration": 0.0959,
      "velocity": 127,
      "chip": "ym2612"
    },
    {
      "channel": 0,
      "note": 77,
      "start": 70.8214,
      "duration": 1.0291,
      "velocity": 77,
      "chip": "ym2612"
    },
    {
      "channel": 4,
      "note": 69,
      "start": 70.8249,
      "duration": 0.0924,
      "velocity": 127,
      "chip": "ym2612"
    },
    {
      "channel": 4,
      "note": 69,
      "start": 71.0212,
      "duration": 0.1128,
      "velocity": 127,
      "chip": "ym2612"
    },
    {
      "channel": 3,
      "note": 48,
      "start": 71.2372,
      "duration": 0.4135,
      "velocity": 99,
      "chip": "ym2612"
    },
    {
      "channel": 4,
      "note": 58,
      "start": 71.2418,
      "duration": 0.0923,
      "velocity": 86,
      "chip": "ym2612"
    },
    {
      "channel": 4,
      "note": 58,
      "start": 71.338,
      "duration": 0.0961,
      "velocity": 86,
      "chip": "ym2612"
    },
    {
      "channel": 4,
      "note": 58,
      "start": 71.4386,
      "duration": 0.2122,
      "velocity": 86,
      "chip": "ym2612"
    },
    {
      "channel": 3,
      "note": 48,
      "start": 71.6542,
      "duration": 0.1966,
      "velocity": 99,
      "chip": "ym2612"
    },
    {
      "channel": 4,
      "note": 57,
      "start": 71.6575,
      "duration": 0.1934,
      "velocity": 86,
      "chip": "ym2612"
    },
    {
      "channel": 0,
      "note": 79,
      "start": 71.8549,
      "duration": 0.8125,
      "velocity": 77,
      "chip": "ym2612"
    },
    {
      "channel": 3,
      "note": 51,
      "start": 71.8575,
      "duration": 0.1933,
      "velocity": 99,
      "chip": "ym2612"
    },
    {
      "channel": 4,
      "note": 56,
      "start": 71.861,
      "duration": 0.0896,
      "velocity": 86,
      "chip": "ym2612"
    },
    {
      "channel": 4,
      "note": 56,
      "start": 71.9551,
      "duration": 0.1957,
      "velocity": 86,
      "chip": "ym2612"
    },
    {
      "channel": 3,
      "note": 48,
      "start": 72.0539,
      "duration": 0.2134,
      "velocity": 99,
      "chip": "ym2612"
    },
    {
      "channel": 4,
      "note": 55,
      "start": 72.1552,
      "duration": 0.1122,
      "velocity": 86,
      "chip": "ym2612"
    },
    {
      "channel": 3,
      "note": 47,
      "start": 72.2703,
      "duration": 0.1971,
      "velocity": 99,
      "chip": "ym2612"
    },
    {
      "channel": 4,
      "note": 53,
      "start": 72.274,
      "duration": 0.1937,
      "velocity": 86,
      "chip": "ym2612"
    },
    {
      "channel": 3,
      "note": 48,
      "start": 72.471,
      "duration": 0.1966,
      "velocity": 99,
      "chip": "ym2612"
    },
    {
      "channel": 4,
      "note": 51,
      "start": 72.4744,
      "duration": 0.1934,
      "velocity": 86,
      "chip": "ym2612"
    },
    {
      "channel": 0,
      "note": 81,
      "start": 72.6715,
      "duration": 0.2124,
      "velocity": 77,
      "chip": "ym2612"
    },
    {
      "channel": 1,
      "note": 72,
      "start": 72.6766,
      "duration": 0.4075,
      "velocity": 77,
      "chip": "ym2612"
    },
    {
      "channel": 3,
      "note": 45,
      "start": 72.6794,
      "duration": 0.4048,
      "velocity": 99,
      "chip": "ym2612"
    },
    {
      "channel": 4,
      "note": 69,
      "start": 72.6845,
      "duration": 0.0996,
      "velocity": 127,
      "chip": "ym2612"
    },
    {
      "channel": 0,
      "note": 79,
      "start": 72.8876,
      "duration": 0.1964,
      "velocity": 77,
      "chip": "ym2612"
    },
    {
      "channel": 4,
      "note": 69,
      "start": 72.8911,
      "duration": 0.093,
      "velocity": 127,
      "chip": "ym2612"
    },
    {
      "channel": 0,
      "note": 81,
      "start": 73.088,
      "duration": 1.0293,
      "velocity": 77,
      "chip": "ym2612"
    },
    {
      "channel": 1,
      "note": 72,
      "start": 73.0916,
      "duration": 0.209,
      "velocity": 77,
      "chip": "ym2612"
    },
    {
      "channel": 3,
      "note": 45,
      "start": 73.0944,
      "duration": 0.2064,
      "velocity": 99,
      "chip": "ym2612"
    },
    {
      "channel": 4,
      "note": 47,
      "start": 73.0991,
      "duration": 0.2018,
      "velocity": 127,
      "chip": "ym2612"
    },
    {
      "channel": 1,
      "note": 69,
      "start": 73.3048,
      "duration": 0.3958,
      "velocity": 77,
      "chip": "ym2612"
    },
    {
      "channel": 3,
      "note": 48,
      "start": 73.3076,
      "duration": 0.3931,
      "velocity": 99,
      "chip": "ym2612"
    },
    {
      "channel": 4,
      "note": 69,
      "start": 73.3127,
      "duration": 0.088,
      "velocity": 127,
      "chip": "ym2612"
    },
    {
      "channel": 4,
      "note": 69,
      "start": 73.5045,
      "duration": 0.0962,
      "velocity": 127,
      "chip": "ym2612"
    },
    {
      "channel": 1,
      "note": 72,
      "start": 73.7044,
      "duration": 0.413,
      "velocity": 77,
      "chip": "ym2612"
    },
    {
      "channel": 3,
      "note": 48,
      "start": 73.7072,
      "duration": 0.2101,
      "velocity": 99,
      "chip": "ym2612"
    },
    {
      "channel": 4,
      "note": 69,
      "start": 73.7105,
      "duration": 0.1068,
      "velocity": 127,
      "chip": "ym2612"
    },
    {
      "channel": 4,
      "note": 47,
      "start": 73.9227,
      "duration": 0.1949,
      "velocity": 127,
      "chip": "ym2612"
    },
    {
      "channel": 0,
      "note": 79,
      "start": 74.1217,
      "duration": 0.8288,
      "velocity": 77,
      "chip": "ym2612"
    },
    {
      "channel": 1,
      "note": 71,
      "start": 74.1253,
      "duration": 1.0254,
      "velocity": 77,
      "chip": "ym2612"
    },
    {
      "channel": 4,
      "note": 69,
      "start": 74.1301,
      "duration": 0.0872,
      "velocity": 127,
      "chip": "ym2612"
    },
    {
      "channel": 4,
      "note": 69,
      "start": 74.3385,
      "duration": 0.3954,
      "velocity": 127,
      "chip": "ym2612"
    },
    {
      "channel": 3,
      "note": 48,
      "start": 74.5373,
      "duration": 0.4134,
      "velocity": 99,
      "chip": "ym2612"
    },
    {
      "channel": 4,
      "note": 47,
      "start": 74.7393,
      "duration": 0.2115,
      "velocity": 127,
      "chip": "ym2612"
    },
    {
      "channel": 0,
      "note": 77,
      "start": 74.9546,
      "duration": 0.6127,
      "velocity": 77,
      "chip": "ym2612"
    },
    {
      "channel": 3,
      "note": 48,
      "start": 74.9579,
      "duration": 0.1929,
      "velocity": 99,
      "chip": "ym2612"
    },
    {
      "channel": 4,
      "note": 69,
      "start": 74.9626,
      "duration": 0.0881,
      "velocity": 127,
      "chip": "ym2612"
    },
    {
      "channel": 1,
      "note": 72,
      "start": 75.1548,
      "duration": 0.0957,
      "velocity": 77,
      "chip": "ym2612"
    },
    {
      "channel": 3,
      "note": 51,
      "start": 75.1572,
      "duration": 0.1936,
      "velocity": 99,
      "chip": "ym2612"
    },
    {
      "channel": 4,
      "note": 69,
      "start": 75.1605,
      "duration": 0.0901,
      "velocity": 127,
      "chip": "ym2612"
    },
    {
      "channel": 1,
      "note": 71,
      "start": 75.2547,
      "duration": 0.096,
      "velocity": 77,
      "chip": "ym2612"
    },
    {
      "channel": 1,
      "note": 69,
      "start": 75.3545,
      "duration": 0.1127,
      "velocity": 77,
      "chip": "ym2612"
    },
    {
      "channel": 3,
      "note": 52,
      "start": 75.357,
      "duration": 0.2105,
      "velocity": 99,
      "chip": "ym2612"
    },
    {
      "channel": 4,
      "note": 69,
      "start": 75.3606,
      "duration": 0.1068,
      "velocity": 127,
      "chip": "ym2612"
    },
    {
      "channel": 1,
      "note": 67,
      "start": 75.4711,
      "duration": 0.0963,
      "velocity": 77,
      "chip": "ym2612"
    },
    {
      "channel": 0,
      "note": 74,
      "start": 75.5714,
      "duration": 0.4126,
      "velocity": 77,
      "chip": "ym2612"
    },
    {
      "channel": 1,
      "note": 71,
      "start": 75.5746,
      "duration": 0.0927,
      "velocity": 77,
      "chip": "ym2612"
    },
    {
      "channel": 3,
      "note": 51,
      "start": 75.5771,
      "duration": 0.1903,
      "velocity": 99,
      "chip": "ym2612"
    },
    {
      "channel": 4,
      "note": 47,
      "start": 75.5819,
      "duration": 0.1857,
      "velocity": 127,
      "chip": "ym2612"
    },
    {
      "channel": 1,
      "note": 69,
      "start": 75.671,
      "duration": 0.0962,
      "velocity": 77,
      "chip": "ym2612"
    },
    {
      "channel": 1,
      "note": 67,
      "start": 75.7712,
      "duration": 0.096,
      "velocity": 77,
      "chip": "ym2612"
    },
    {
      "channel": 3,
      "note": 48,
      "start": 75.7737,
      "duration": 0.2105,
      "velocity": 99,
      "chip": "ym2612"
    },
    {
      "channel": 4,
      "note": 69,
      "start": 75.7784,
      "duration": 0.089,
      "velocity": 127,
      "chip": "ym2612"
    },
    {
      "channel": 1,
      "note": 65,
      "start": 75.8711,
      "duration": 0.113,
      "velocity": 77,
      "chip": "ym2612"
    },
    {
      "channel": 0,
      "note": 76,
      "start": 75.988,
      "duration": 0.1959,
      "velocity": 77,
      "chip": "ym2612"
    },
    {
      "channel": 1,
      "note": 64,
      "start": 75.9917,
      "duration": 1.4256,
      "velocity": 77,
      "chip": "ym2612"
    },
    {
      "channel": 3,
      "note": 45,
      "start": 75.9944,
      "duration": 0.3897,
      "velocity": 99,
      "chip": "ym2612"
    },
    {
      "channel": 4,
      "note": 69,
      "start": 75.9977,
      "duration": 0.0863,
      "velocity": 127,
      "chip": "ym2612"
    },
    {
      "channel": 0,
      "note": 77,
      "start": 76.1875,
      "duration": 0.1964,
      "velocity": 77,
      "chip": "ym2612"
    },
    {
      "channel": 4,
      "note": 69,
      "start": 76.191,
      "duration": 0.093,
      "velocity": 127,
      "chip": "ym2612"
    },
    {
      "channel": 0,
      "note": 76,
      "start": 76.3879,
      "duration": 0.6293,
      "velocity": 77,
      "chip": "ym2612"
    },
    {
      "channel": 3,
      "note": 45,
      "start": 76.3907,
      "duration": 0.2099,
      "velocity": 99,
      "chip": "ym2612"
    },
    {
      "channel": 4,
      "note": 47,
      "start": 76.3959,
      "duration": 0.2049,
      "velocity": 127,
      "chip": "ym2612"
    },
    {
      "channel": 3,
      "note": 48,
      "start": 76.604,
      "duration": 0.4134,
      "velocity": 99,
      "chip": "ym2612"
    },
    {
      "channel": 4,
      "note": 69,
      "start": 76.6087,
      "duration": 0.0919,
      "velocity": 127,
      "chip": "ym2612"
    },
    {
      "channel": 4,
      "note": 69,
      "start": 76.8045,
      "duration": 0.0962,
      "velocity": 127,
      "chip": "ym2612"
    },
    {
      "channel": 0,
      "note": 76,
      "start": 77.0215,
      "duration": 0.0957,
      "velocity": 77,
      "chip": "ym2612"
    },
    {
      "channel": 3,
      "note": 48,
      "start": 77.0248,
      "duration": 0.1927,
      "velocity": 99,
      "chip": "ym2612"
    },
    {
      "channel": 4,
      "note": 69,
      "start": 77.028,
      "duration": 0.0895,
      "velocity": 127,
      "chip": "ym2612"
    },
    {
      "channel": 0,
      "note": 74,
      "start": 77.121,
      "duration": 0.0963,
      "velocity": 77,
      "chip": "ym2612"
    },
    {
      "channel": 0,
      "note": 72,
      "start": 77.221,
      "duration": 0.0961,
      "velocity": 77,
      "chip": "ym2612"
    },
    {
      "channel": 4,
      "note": 47,
      "start": 77.2263,
      "duration": 0.1912,
      "velocity": 127,
      "chip": "ym2612"
    },
    {
      "channel": 0,
      "note": 69,
      "start": 77.3208,
      "duration": 0.0964,
      "velocity": 77,
      "chip": "ym2612"
    },
    {
      "channel": 0,
      "note": 71,
      "start": 77.4213,
      "duration": 1.8626,
      "velocity": 77,
      "chip": "ym2612"
    },
    {
      "channel": 1,
      "note": 65,
      "start": 77.4249,
      "duration": 1.8592,
      "velocity": 77,
      "chip": "ym2612"
    },
    {
      "channel": 4,
      "note": 69,
      "start": 77.4298,
      "duration": 0.1042,
      "velocity": 127,
      "chip": "ym2612"
    },
    {
      "channel": 4,
      "note": 69,
      "start": 77.6381,
      "duration": 0.4125,
      "velocity": 127,
      "chip": "ym2612"
    },
    {
      "channel": 3,
      "note": 48,
      "start": 77.8372,
      "duration": 0.4136,
      "velocity": 99,
      "chip": "ym2612"
    },
    {
      "channel": 4,
      "note": 47,
      "start": 78.0565,
      "duration": 0.1944,
      "velocity": 127,
      "chip": "ym2612"
    },
    {
      "channel": 3,
      "note": 48,
      "start": 78.2542,
      "duration": 0.1965,
      "velocity": 99,
      "chip": "ym2612"
    },
    {
      "channel": 4,
      "note": 69,
      "start": 78.259,
      "duration": 0.0918,
      "velocity": 127,
      "chip": "ym2612"
    },
    {
      "channel": 3,
      "note": 51,
      "start": 78.4539,
      "duration": 0.2136,
      "velocity": 99,
      "chip": "ym2612"
    },
    {
      "channel": 4,
      "note": 69,
      "start": 78.4571,
      "duration": 0.0937,
      "velocity": 127,
      "chip": "ym2612"
    },
    {
      "channel": 3,
      "note": 48,
      "start": 78.6705,
      "duration": 0.1968,
      "velocity": 99,
      "chip": "ym2612"
    },
    {
      "channel": 4,
      "note": 69,
      "start": 78.6738,
      "duration": 0.0935,
      "velocity": 127,
      "chip": "ym2612"
    },
    {
      "channel": 3,
      "note": 47,
      "start": 78.8704,
      "duration": 0.197,
      "velocity": 99,
      "chip": "ym2612"
    },
    {
      "channel": 4,
      "note": 47,
      "start": 78.8751,
      "duration": 0.1924,
      "velocity": 127,
      "chip": "ym2612"
    },
    {
      "channel": 3,
      "note": 48,
      "start": 79.0706,
      "duration": 0.2136,
      "velocity": 99,
      "chip": "ym2612"
    },
    {
      "channel": 4,
      "note": 69,
      "start": 79.0756,
      "duration": 0.1084,
      "velocity": 127,
      "chip": "ym2612"
    },
    {
      "channel": 0,
      "note": 81,
      "start": 79.2892,
      "duration": 0.4114,
      "velocity": 77,
      "chip": "ym2612"
    },
    {
      "channel": 1,
      "note": 72,
      "start": 79.2927,
      "duration": 0.6081,
      "velocity": 77,
      "chip": "ym2612"
    },
    {
      "channel": 3,
      "note": 45,
      "start": 79.2955,
      "duration": 0.4052,
      "velocity": 99,
      "chip": "ym2612"
    },
    {
      "channel": 4,
      "note": 69,
      "start": 79.2988,
      "duration": 0.0853,
      "velocity": 127,
      "chip": "ym2612"
    },
    {
      "channel": 4,
      "note": 69,
      "start": 79.4878,
      "duration": 0.0962,
      "velocity": 127,
      "chip": "ym2612"
    },
    {
      "channel": 0,
      "note": 79,
      "start": 79.7049,
      "duration": 0.1957,
      "velocity": 77,
      "chip": "ym2612"
    },
    {
      "channel": 3,
      "note": 45,
      "start": 79.7082,
      "duration": 0.1927,
      "velocity": 99,
      "chip": "ym2612"
    },
    {
      "channel": 4,
      "note": 47,
      "start": 79.7129,
      "duration": 0.1881,
      "velocity": 127,
      "chip": "ym2612"
    },
    {
      "channel": 0,
      "note": 74,
      "start": 79.9049,
      "duration": 0.4123,
      "velocity": 77,
      "chip": "ym2612"
    },
    {
      "channel": 1,
      "note": 69,
      "start": 79.9089,
      "duration": 1.8419,
      "velocity": 77,
      "chip": "ym2612"
    },
    {
      "channel": 3,
      "note": 48,
      "start": 79.9117,
      "duration": 0.4058,
      "velocity": 99,
      "chip": "ym2612"
    },
    {
      "channel": 4,
      "note": 69,
      "start": 79.9168,
      "duration": 0.0838,
      "velocity": 127,
      "chip": "ym2612"
    },
    {
      "channel": 4,
      "note": 69,
      "start": 80.1046,
      "duration": 0.1129,
      "velocity": 127,
      "chip": "ym2612"
    },
    {
      "channel": 0,
      "note": 79,
      "start": 80.321,
      "duration": 0.4129,
      "velocity": 77,
      "chip": "ym2612"
    },
    {
      "channel": 3,
      "note": 48,
      "start": 80.324,
      "duration": 0.1934,
      "velocity": 99,
      "chip": "ym2612"
    },
    {
      "channel": 4,
      "note": 69,
      "start": 80.3272,
      "duration": 0.0901,
      "velocity": 127,
      "chip": "ym2612"
    },
    {
      "channel": 4,
      "note": 47,
      "start": 80.5228,
      "duration": 0.2114,
      "velocity": 127,
      "chip": "ym2612"
    },
    {
      "channel": 0,
      "note": 76,
      "start": 80.7377,
      "duration": 0.3962,
      "velocity": 77,
      "chip": "ym2612"
    },
    {
      "channel": 4,
      "note": 69,
      "start": 80.743,
      "duration": 0.091,
      "velocity": 127,
      "chip": "ym2612"
    },
    {
      "channel": 4,
      "note": 69,
      "start": 80.9381,
      "duration": 0.4126,
      "velocity": 127,
      "chip": "ym2612"
    },
    {
      "channel": 0,
      "note": 77,
      "start": 81.138,
      "duration": 0.2125,
      "velocity": 77,
      "chip": "ym2612"
    },
    {
      "channel": 3,
      "note": 48,
      "start": 81.1409,
      "duration": 0.41,
      "velocity": 99,
      "chip": "ym2612"
    },
    {
      "channel": 0,
      "note": 76,
      "start": 81.3542,
      "duration": 0.1964,
      "velocity": 77,
      "chip": "ym2612"
    },
    {
      "channel": 4,
      "note": 47,
      "start": 81.3592,
      "duration": 0.1918,
      "velocity": 127,
      "chip": "ym2612"
    },
    {
      "channel": 0,
      "note": 74,
      "start": 81.5545,
      "duration": 0.1961,
      "velocity": 77,
      "chip": "ym2612"
    },
    {
      "channel": 3,
      "note": 48,
      "start": 81.5574,
      "duration": 0.1935,
      "velocity": 99,
      "chip": "ym2612"
    },
    {
      "channel": 4,
      "note": 69,
      "start": 81.5624,
      "duration": 0.0882,
      "velocity": 127,
      "chip": "ym2612"
    },
    {
      "channel": 0,
      "note": 71,
      "start": 81.7546,
      "duration": 0.2127,
      "velocity": 77,
      "chip": "ym2612"
    },
    {
      "channel": 1,
      "note": 71,
      "start": 81.7581,
      "duration": 0.4093,
      "velocity": 77,
      "chip": "ym2612"
    },
    {
      "channel": 3,
      "note": 51,
      "start": 81.7606,
      "duration": 0.2068,
      "velocity": 99,
      "chip": "ym2612"
    },
    {
      "channel": 4,
      "note": 69,
      "start": 81.7639,
      "duration": 0.1034,
      "velocity": 127,
      "chip": "ym2612"
    },
    {
      "channel": 0,
      "note": 79,
      "start": 81.971,
      "duration": 0.1962,
      "velocity": 77,
      "chip": "ym2612"
    },
    {
      "channel": 3,
      "note": 52,
      "start": 81.9739,
      "duration": 0.1936,
      "velocity": 99,
      "chip": "ym2612"
    },
    {
      "channel": 4,
      "note": 69,
      "start": 81.9772,
      "duration": 0.0902,
      "velocity": 127,
      "chip": "ym2612"
    },
    {
      "channel": 0,
      "note": 83,
      "start": 82.1712,
      "duration": 0.2128,
      "velocity": 77,
      "chip": "ym2612"
    },
    {
      "channel": 1,
      "note": 67,
      "start": 82.1745,
      "duration": 0.4095,
      "velocity": 77,
      "chip": "ym2612"
    },
    {
      "channel": 3,
      "note": 51,
      "start": 82.177,
      "duration": 0.2072,
      "velocity": 99,
      "chip": "ym2612"
    },
    {
      "channel": 4,
      "note": 47,
      "start": 82.1817,
      "duration": 0.2026,
      "velocity": 127,
      "chip": "ym2612"
    },
    {
      "channel": 0,
      "note": 84,
      "start": 82.3878,
      "duration": 0.1961,
      "velocity": 77,
      "chip": "ym2612"
    },
    {
      "channel": 3,
      "note": 48,
      "start": 82.3904,
      "duration": 0.1938,
      "velocity": 99,
      "chip": "ym2612"
    },
    {
      "channel": 4,
      "note": 69,
      "start": 82.3951,
      "duration": 0.0889,
      "velocity": 127,
      "chip": "ym2612"
    },
    {
      "channel": 0,
      "note": 81,
      "start": 82.5885,
      "duration": 1.4455,
      "velocity": 77,
      "chip": "ym2612"
    },
    {
      "channel": 1,
      "note": 64,
      "start": 82.592,
      "duration": 1.4421,
      "velocity": 77,
      "chip": "ym2612"
    },
    {
      "channel": 3,
      "note": 45,
      "start": 82.5948,
      "duration": 0.4058,
      "velocity": 99,
      "chip": "ym2612"
    },
    {
      "channel": 4,
      "note": 69,
      "start": 82.5981,
      "duration": 0.0859,
      "velocity": 127,
      "chip": "ym2612"
    },
    {
      "channel": 4,
      "note": 69,
      "start": 82.7883,
      "duration": 0.1124,
      "velocity": 127,
      "chip": "ym2612"
    },
    {
      "channel": 3,
      "note": 45,
      "start": 83.004,
      "duration": 0.1968,
      "velocity": 99,
      "chip": "ym2612"
    },
    {
      "channel": 4,
      "note": 47,
      "start": 83.0087,
      "duration": 0.1922,
      "velocity": 127,
      "chip": "ym2612"
    },
    {
      "channel": 3,
      "note": 48,
      "start": 83.2042,
      "duration": 0.4132,
      "velocity": 99,
      "chip": "ym2612"
    },
    {
      "channel": 4,
      "note": 69,
      "start": 83.2089,
      "duration": 0.0919,
      "velocity": 127,
      "chip": "ym2612"
    },
    {
      "channel": 4,
      "note": 69,
      "start": 83.4212,
      "duration": 0.0962,
      "velocity": 127,
      "chip": "ym2612"
    },
    {
      "channel": 3,
      "note": 48,
      "start": 83.6207,
      "duration": 0.1967,
      "velocity": 99,
      "chip": "ym2612"
    },
    {
      "channel": 4,
      "note": 69,
      "start": 83.624,
      "duration": 0.0933,
      "velocity": 127,
      "chip": "ym2612"
    },
    {
      "channel": 4,
      "note": 47,
      "start": 83.8232,
      "duration": 0.2111,
      "velocity": 127,
      "chip": "ym2612"
    },
    {
      "channel": 0,
      "note": 72,
      "start": 84.0381,
      "duration": 0.8124,
      "velocity": 77,
      "chip": "ym2612"
    },
    {
      "channel": 1,
      "note": 65,
      "start": 84.0417,
      "duration": 0.8091,
      "velocity": 77,
      "chip": "ym2612"
    },
    {
      "channel": 4,
      "note": 69,
      "start": 84.0466,
      "duration": 0.0874,
      "velocity": 127,
      "chip": "ym2612"
    },
    {
      "channel": 4,
      "note": 69,
      "start": 84.2383,
      "duration": 0.4125,
      "velocity": 127,
      "chip": "ym2612"
    },
    {
      "channel": 3,
      "note": 48,
      "start": 84.4544,
      "duration": 0.3965,
      "velocity": 99,
      "chip": "ym2612"
    },
    {
      "channel": 4,
      "note": 47,
      "start": 84.6564,
      "duration": 0.1946,
      "velocity": 127,
      "chip": "ym2612"
    },
    {
      "channel": 0,
      "note": 74,
      "start": 84.8549,
      "duration": 1.0291,
      "velocity": 77,
      "chip": "ym2612"
    },
    {
      "channel": 1,
      "note": 67,
      "start": 84.8584,
      "duration": 1.0256,
      "velocity": 77,
      "chip": "ym2612"
    },
    {
      "channel": 3,
      "note": 48,
      "start": 84.8612,
      "duration": 0.2062,
      "velocity": 99,
      "chip": "ym2612"
    },
    {
      "channel": 4,
      "note": 69,
      "start": 84.8659,
      "duration": 0.0848,
      "velocity": 127,
      "chip": "ym2612"
    },
    {
      "channel": 3,
      "note": 51,
      "start": 85.0705,
      "duration": 0.1969,
      "velocity": 99,
      "chip": "ym2612"
    },
    {
      "channel": 4,
      "note": 69,
      "start": 85.0738,
      "duration": 0.0937,
      "velocity": 127,
      "chip": "ym2612"
    },
    {
      "channel": 3,
      "note": 48,
      "start": 85.2705,
      "duration": 0.1969,
      "velocity": 99,
      "chip": "ym2612"
    },
    {
      "channel": 4,
      "note": 69,
      "start": 85.2737,
      "duration": 0.0936,
      "velocity": 127,
      "chip": "ym2612"
    },
    {
      "channel": 3,
      "note": 47,
      "start": 85.4705,
      "duration": 0.2136,
      "velocity": 99,
      "chip": "ym2612"
    },
    {
      "channel": 4,
      "note": 47,
      "start": 85.4756,
      "duration": 0.2086,
      "velocity": 127,
      "chip": "ym2612"
    },
    {
      "channel": 3,
      "note": 48,
      "start": 85.6873,
      "duration": 0.1969,
      "velocity": 99,
      "chip": "ym2612"
    },
    {
      "channel": 4,
      "note": 69,
      "start": 85.692,
      "duration": 0.0921,
      "velocity": 127,
      "chip": "ym2612"
    },
    {
      "channel": 0,
      "note": 81,
      "start": 85.8883,
      "duration": 0.4123,
      "velocity": 77,
      "chip": "ym2612"
    },
    {
      "channel": 1,
      "note": 72,
      "start": 85.8922,
      "duration": 0.6086,
      "velocity": 77,
      "chip": "ym2612"
    },
    {
      "channel": 3,
      "note": 45,
      "start": 85.895,
      "duration": 0.4058,
      "velocity": 99,
      "chip": "ym2612"
    },
    {
      "channel": 4,
      "note": 69,
      "start": 85.8983,
      "duration": 0.0858,
      "velocity": 127,
      "chip": "ym2612"
    },
    {
      "channel": 4,
      "note": 69,
      "start": 86.1046,
      "duration": 0.0962,
      "velocity": 127,
      "chip": "ym2612"
    },
    {
      "channel": 0,
      "note": 79,
      "start": 86.3046,
      "duration": 0.196,
      "velocity": 77,
      "chip": "ym2612"
    },
    {
      "channel": 3,
      "note": 45,
      "start": 86.3075,
      "duration": 0.1934,
      "velocity": 99,
      "chip": "ym2612"
    },
    {
      "channel": 4,
      "note": 47,
      "start": 86.3122,
      "duration": 0.1888,
      "velocity": 127,
      "chip": "ym2612"
    },
    {
      "channel": 0,
      "note": 74,
      "start": 86.5053,
      "duration": 0.412,
      "velocity": 77,
      "chip": "ym2612"
    },
    {
      "channel": 1,
      "note": 69,
      "start": 86.5089,
      "duration": 1.8585,
      "velocity": 77,
      "chip": "ym2612"
    },
    {
      "channel": 3,
      "note": 48,
      "start": 86.5121,
      "duration": 0.4054,
      "velocity": 99,
      "chip": "ym2612"
    },
    {
      "channel": 4,
      "note": 69,
      "start": 86.5172,
      "duration": 0.1002,
      "velocity": 127,
      "chip": "ym2612"
    },
    {
      "channel": 4,
      "note": 69,
      "start": 86.7212,
      "duration": 0.0962,
      "velocity": 127,
      "chip": "ym2612"
    },
    {
      "channel": 0,
      "note": 79,
      "start": 86.921,
      "duration": 0.4128,
      "velocity": 77,
      "chip": "ym2612"
    },
    {
      "channel": 3,
      "note": 48,
      "start": 86.924,
      "duration": 0.21,
      "velocity": 99,
      "chip": "ym2612"
    },
    {
      "channel": 4,
      "note": 69,
      "start": 86.9272,
      "duration": 0.0902,
      "velocity": 127,
      "chip": "ym2612"
    },
    {
      "channel": 4,
      "note": 47,
      "start": 87.1395,
      "duration": 0.1945,
      "velocity": 127,
      "chip": "ym2612"
    },
    {
      "channel": 0,
      "note": 76,
      "start": 87.3376,
      "duration": 0.4129,
      "velocity": 77,
      "chip": "ym2612"
    },
    {
      "channel": 4,
      "note": 69,
      "start": 87.343,
      "duration": 0.091,
      "velocity": 127,
      "chip": "ym2612"
    },
    {
      "channel": 4,
      "note": 69,
      "start": 87.5381,
      "duration": 0.4127,
      "velocity": 127,
      "chip": "ym2612"
    },
    {
      "channel": 0,
      "note": 77,
      "start": 87.7547,
      "duration": 0.1959,
      "velocity": 77,
      "chip": "ym2612"
    },
    {
      "channel": 3,
      "note": 48,
      "start": 87.7576,
      "duration": 0.3932,
      "velocity": 99,
      "chip": "ym2612"
    },
    {
      "channel": 0,
      "note": 76,
      "start": 87.9543,
      "duration": 0.1962,
      "velocity": 77,
      "chip": "ym2612"
    },
    {
      "channel": 4,
      "note": 47,
      "start": 87.9593,
      "duration": 0.1916,
      "velocity": 127,
      "chip": "ym2612"
    },
    {
      "channel": 0,
      "note": 74,
      "start": 88.1544,
      "duration": 0.2128,
      "velocity": 77,
      "chip": "ym2612"
    },
    {
      "channel": 3,
      "note": 48,
      "start": 88.1572,
      "duration": 0.2102,
      "velocity": 99,
      "chip": "ym2612"
    },
    {
      "channel": 4,
      "note": 69,
      "start": 88.1623,
      "duration": 0.105,
      "velocity": 127,
      "chip": "ym2612"
    },
    {
      "channel": 0,
      "note": 71,
      "start": 88.3712,
      "duration": 0.1961,
      "velocity": 77,
      "chip": "ym2612"
    },
    {
      "channel": 1,
      "note": 71,
      "start": 88.3747,
      "duration": 0.4094,
      "velocity": 77,
      "chip": "ym2612"
    },
    {
      "channel": 3,
      "note": 51,
      "start": 88.3772,
      "duration": 0.1902,
      "velocity": 99,
      "chip": "ym2612"
    },
    {
      "channel": 4,
      "note": 69,
      "start": 88.3805,
      "duration": 0.0868,
      "velocity": 127,
      "chip": "ym2612"
    },
    {
      "channel": 0,
      "note": 79,
      "start": 88.571,
      "duration": 0.2129,
      "velocity": 77,
      "chip": "ym2612"
    },
    {
      "channel": 3,
      "note": 52,
      "start": 88.5736,
      "duration": 0.2106,
      "velocity": 99,
      "chip": "ym2612"
    },
    {
      "channel": 4,
      "note": 69,
      "start": 88.5769,
      "duration": 0.0905,
      "velocity": 127,
      "chip": "ym2612"
    },
    {
      "channel": 0,
      "note": 83,
      "start": 88.7879,
      "duration": 0.196,
      "velocity": 77,
      "chip": "ym2612"
    },
    {
      "channel": 1,
      "note": 67,
      "start": 88.7912,
      "duration": 0.3928,
      "velocity": 77,
      "chip": "ym2612"
    },
    {
      "channel": 3,
      "note": 51,
      "start": 88.7937,
      "duration": 0.1904,
      "velocity": 99,
      "chip": "ym2612"
    },
    {
      "channel": 4,
      "note": 47,
      "start": 88.7984,
      "duration": 0.1858,
      "velocity": 127,
      "chip": "ym2612"
    },
    {
      "channel": 0,
      "note": 84,
      "start": 88.9878,
      "duration": 0.1961,
      "velocity": 77,
      "chip": "ym2612"
    },
    {
      "channel": 3,
      "note": 48,
      "start": 88.9904,
      "duration": 0.1938,
      "velocity": 99,
      "chip": "ym2612"
    },
    {
      "channel": 4,
      "note": 69,
      "start": 88.9954,
      "duration": 0.0886,
      "velocity": 127,
      "chip": "ym2612"
    },
    {
      "channel": 0,
      "note": 81,
      "start": 89.1881,
      "duration": 1.4457,
      "velocity": 77,
      "chip": "ym2612"
    },
    {
      "channel": 1,
      "note": 64,
      "start": 89.1917,
      "duration": 1.4423,
      "velocity": 77,
      "chip": "ym2612"
    },
    {
      "channel": 3,
      "note": 45,
      "start": 89.1949,
      "duration": 0.4059,
      "velocity": 99,
      "chip": "ym2612"
    },
    {
      "channel": 4,
      "note": 69,
      "start": 89.1981,
      "duration": 0.1025,
      "velocity": 127,
      "chip": "ym2612"
    },
    {
      "channel": 4,
      "note": 69,
      "start": 89.4046,
      "duration": 0.0961,
      "velocity": 127,
      "chip": "ym2612"
    },
    {
      "channel": 3,
      "note": 45,
      "start": 89.6041,
      "duration": 0.2134,
      "velocity": 99,
      "chip": "ym2612"
    },
    {
      "channel": 4,
      "note": 47,
      "start": 89.6088,
      "duration": 0.2087,
      "velocity": 127,
      "chip": "ym2612"
    },
    {
      "channel": 3,
      "note": 48,
      "start": 89.8208,
      "duration": 0.3965,
      "velocity": 99,
      "chip": "ym2612"
    },
    {
      "channel": 4,
      "note": 69,
      "start": 89.8256,
      "duration": 0.0917,
      "velocity": 127,
      "chip": "ym2612"
    },
    {
      "channel": 4,
      "note": 69,
      "start": 90.0213,
      "duration": 0.0961,
      "velocity": 127,
      "chip": "ym2612"
    },
    {
      "channel": 3,
      "note": 48,
      "start": 90.2207,
      "duration": 0.2134,
      "velocity": 99,
      "chip": "ym2612"
    },
    {
      "channel": 4,
      "note": 69,
      "start": 90.2244,
      "duration": 0.1097,
      "velocity": 127,
      "chip": "ym2612"
    },
    {
      "channel": 4,
      "note": 47,
      "start": 90.4394,
      "duration": 0.1948,
      "velocity": 127,
      "chip": "ym2612"
    },
    {
      "channel": 0,
      "note": 72,
      "start": 90.6384,
      "duration": 0.8289,
      "velocity": 77,
      "chip": "ym2612"
    },
    {
      "channel": 1,
      "note": 65,
      "start": 90.642,
      "duration": 0.8255,
      "velocity": 77,
      "chip": "ym2612"
    },
    {
      "channel": 4,
      "note": 69,
      "start": 90.6469,
      "duration": 0.0871,
      "velocity": 127,
      "chip": "ym2612"
    },
    {
      "channel": 4,
      "note": 69,
      "start": 90.8547,
      "duration": 0.0961,
      "velocity": 127,
      "chip": "ym2612"
    },
    {
      "channel": 4,
      "note": 105,
      "start": 90.9547,
      "duration": 0.0959,
      "velocity": 127,
      "chip": "ym2612"
    },
    {
      "channel": 3,
      "note": 48,
      "start": 91.0539,
      "duration": 0.4137,
      "velocity": 99,
      "chip": "ym2612"
    },
    {
      "channel": 4,
      "note": 58,
      "start": 91.0589,
      "duration": 0.0919,
      "velocity": 86,
      "chip": "ym2612"
    },
    {
      "channel": 4,
      "note": 58,
      "start": 91.1546,
      "duration": 0.096,
      "velocity": 86,
      "chip": "ym2612"
    },
    {
      "channel": 4,
      "note": 58,
      "start": 91.2549,
      "duration": 0.2129,
      "velocity": 86,
      "chip": "ym2612"
    },
    {
      "channel": 0,
      "note": 74,
      "start": 91.4715,
      "duration": 1.0291,
      "velocity": 77,
      "chip": "ym2612"
    },
    {
      "channel": 1,
      "note": 67,
      "start": 91.4755,
      "duration": 1.0253,
      "velocity": 77,
      "chip": "ym2612"
    },
    {
      "channel": 3,
      "note": 48,
      "start": 91.4786,
      "duration": 0.1887,
      "velocity": 99,
      "chip": "ym2612"
    },
    {
      "channel": 4,
      "note": 57,
      "start": 91.4819,
      "duration": 0.1856,
      "velocity": 86,
      "chip": "ym2612"
    },
    {
      "channel": 3,
      "note": 51,
      "start": 91.6705,
      "duration": 0.1968,
      "velocity": 99,
      "chip": "ym2612"
    },
    {
      "channel": 4,
      "note": 56,
      "start": 91.6741,
      "duration": 0.0933,
      "velocity": 86,
      "chip": "ym2612"
    },
    {
      "channel": 4,
      "note": 56,
      "start": 91.7716,
      "duration": 0.2125,
      "velocity": 86,
      "chip": "ym2612"
    },
    {
      "channel": 3,
      "note": 48,
      "start": 91.8703,
      "duration": 0.2137,
      "velocity": 99,
      "chip": "ym2612"
    },
    {
      "channel": 4,
      "note": 55,
      "start": 91.9887,
      "duration": 0.0955,
      "velocity": 86,
      "chip": "ym2612"
    },
    {
      "channel": 3,
      "note": 47,
      "start": 92.0871,
      "duration": 0.1969,
      "velocity": 99,
      "chip": "ym2612"
    },
    {
      "channel": 4,
      "note": 53,
      "start": 92.0907,
      "duration": 0.1934,
      "velocity": 86,
      "chip": "ym2612"
    },
    {
      "channel": 3,
      "note": 48,
      "start": 92.2871,
      "duration": 0.2138,
      "velocity": 99,
      "chip": "ym2612"
    },
    {
      "channel": 4,
      "note": 51,
      "start": 92.2904,
      "duration": 0.2106,
      "velocity": 86,
      "chip": "ym2612"
    },
    {
      "channel": 0,
      "note": 81,
      "start": 92.505,
      "duration": 0.3955,
      "velocity": 77,
      "chip": "ym2612"
    },
    {
      "channel": 1,
      "note": 72,
      "start": 92.5086,
      "duration": 0.6089,
      "velocity": 77,
      "chip": "ym2612"
    },
    {
      "channel": 3,
      "note": 45,
      "start": 92.5114,
      "duration": 0.3894,
      "velocity": 99,
      "chip": "ym2612"
    },
    {
      "channel": 4,
      "note": 69,
      "start": 92.5161,
      "duration": 0.0846,
      "velocity": 127,
      "chip": "ym2612"
    },
    {
      "channel": 4,
      "note": 69,
      "start": 92.7046,
      "duration": 0.0961,
      "velocity": 127,
      "chip": "ym2612"
    },
    {
      "channel": 0,
      "note": 79,
      "start": 92.9046,
      "duration": 0.2127,
      "velocity": 77,
      "chip": "ym2612"
    },
    {
      "channel": 3,
      "note": 45,
      "start": 92.9076,
      "duration": 0.21,
      "velocity": 99,
      "chip": "ym2612"
    },
    {
      "channel": 4,
      "note": 47,
      "start": 92.9126,
      "duration": 0.2051,
      "velocity": 127,
      "chip": "ym2612"
    },
    {
      "channel": 0,
      "note": 74,
      "start": 93.1217,
      "duration": 0.4122,
      "velocity": 77,
      "chip": "ym2612"
    },
    {
      "channel": 1,
      "note": 69,
      "start": 93.1252,
      "duration": 1.8421,
      "velocity": 77,
      "chip": "ym2612"
    },
    {
      "channel": 3,
      "note": 48,
      "start": 93.128,
      "duration": 0.4061,
      "velocity": 99,
      "chip": "ym2612"
    },
    {
      "channel": 4,
      "note": 69,
      "start": 93.1327,
      "duration": 0.0846,
      "velocity": 127,
      "chip": "ym2612"
    },
    {
      "channel": 4,
      "note": 69,
      "start": 93.3212,
      "duration": 0.0962,
      "velocity": 127,
      "chip": "ym2612"
    },
    {
      "channel": 0,
      "note": 79,
      "start": 93.5376,
      "duration": 0.3962,
      "velocity": 77,
      "chip": "ym2612"
    },
    {
      "channel": 3,
      "note": 48,
      "start": 93.5409,
      "duration": 0.1931,
      "velocity": 99,
      "chip": "ym2612"
    },
    {
      "channel": 4,
      "note": 69,
      "start": 93.5442,
      "duration": 0.0898,
      "velocity": 127,
      "chip": "ym2612"
    },
    {
      "channel": 4,
      "note": 47,
      "start": 93.7399,
      "duration": 0.1941,
      "velocity": 127,
      "chip": "ym2612"
    },
    {
      "channel": 0,
      "note": 76,
      "start": 93.938,
      "duration": 0.4126,
      "velocity": 77,
      "chip": "ym2612"
    },
    {
      "channel": 4,
      "note": 69,
      "start": 93.943,
      "duration": 0.1076,
      "velocity": 127,
      "chip": "ym2612"
    },
    {
      "channel": 4,
      "note": 69,
      "start": 94.155,
      "duration": 0.3958,
      "velocity": 127,
      "chip": "ym2612"
    },
    {
      "channel": 0,
      "note": 77,
      "start": 94.3548,
      "duration": 0.1958,
      "velocity": 77,
      "chip": "ym2612"
    },
    {
      "channel": 3,
      "note": 48,
      "start": 94.3576,
      "duration": 0.4098,
      "velocity": 99,
      "chip": "ym2612"
    },
    {
      "channel": 0,
      "note": 76,
      "start": 94.5543,
      "duration": 0.2129,
      "velocity": 77,
      "chip": "ym2612"
    },
    {
      "channel": 4,
      "note": 47,
      "start": 94.5597,
      "duration": 0.2079,
      "velocity": 127,
      "chip": "ym2612"
    },
    {
      "channel": 0,
      "note": 74,
      "start": 94.771,
      "duration": 0.1962,
      "velocity": 77,
      "chip": "ym2612"
    },
    {
      "channel": 3,
      "note": 48,
      "start": 94.7739,
      "duration": 0.1936,
      "velocity": 99,
      "chip": "ym2612"
    },
    {
      "channel": 4,
      "note": 69,
      "start": 94.7786,
      "duration": 0.0887,
      "velocity": 127,
      "chip": "ym2612"
    },
    {
      "channel": 0,
      "note": 71,
      "start": 94.9712,
      "duration": 0.2128,
      "velocity": 77,
      "chip": "ym2612"
    },
    {
      "channel": 1,
      "note": 71,
      "start": 94.9748,
      "duration": 0.4093,
      "velocity": 77,
      "chip": "ym2612"
    },
    {
      "channel": 3,
      "note": 51,
      "start": 94.9773,
      "duration": 0.2069,
      "velocity": 99,
      "chip": "ym2612"
    },
    {
      "channel": 4,
      "note": 69,
      "start": 94.9805,
      "duration": 0.0868,
      "velocity": 127,
      "chip": "ym2612"
    },
    {
      "channel": 0,
      "note": 79,
      "start": 95.1878,
      "duration": 0.1962,
      "velocity": 77,
      "chip": "ym2612"
    },
    {
      "channel": 3,
      "note": 52,
      "start": 95.1904,
      "duration": 0.1938,
      "velocity": 99,
      "chip": "ym2612"
    },
    {
      "channel": 4,
      "note": 69,
      "start": 95.1937,
      "duration": 0.0903,
      "velocity": 127,
      "chip": "ym2612"
    },
    {
      "channel": 0,
      "note": 83,
      "start": 95.388,
      "duration": 0.196,
      "velocity": 77,
      "chip": "ym2612"
    },
    {
      "channel": 1,
      "note": 67,
      "start": 95.3913,
      "duration": 0.4094,
      "velocity": 77,
      "chip": "ym2612"
    },
    {
      "channel": 3,
      "note": 51,
      "start": 95.3937,
      "duration": 0.1904,
      "velocity": 99,
      "chip": "ym2612"
    },
    {
      "channel": 4,
      "note": 47,
      "start": 95.3985,
      "duration": 0.1858,
      "velocity": 127,
      "chip": "ym2612"
    },
    {
      "channel": 0,
      "note": 84,
      "start": 95.5879,
      "duration": 0.2127,
      "velocity": 77,
      "chip": "ym2612"
    },
    {
      "channel": 3,
      "note": 48,
      "start": 95.5905,
      "duration": 0.2103,
      "velocity": 99,
      "chip": "ym2612"
    },
    {
      "channel": 4,
      "note": 69,
      "start": 95.5955,
      "duration": 0.1052,
      "velocity": 127,
      "chip": "ym2612"
    },
    {
      "channel": 0,
      "note": 81,
      "start": 95.8049,
      "duration": 1.4457,
      "velocity": 77,
      "chip": "ym2612"
    },
    {
      "channel": 1,
      "note": 64,
      "start": 95.8084,
      "duration": 1.4423,
      "velocity": 77,
      "chip": "ym2612"
    },
    {
      "channel": 3,
      "note": 45,
      "start": 95.8112,
      "duration": 0.4062,
      "velocity": 99,
      "chip": "ym2612"
    },
    {
      "channel": 4,
      "note": 69,
      "start": 95.8145,
      "duration": 0.0862,
      "velocity": 127,
      "chip": "ym2612"
    },
    {
      "channel": 4,
      "note": 69,
      "start": 96.0046,
      "duration": 0.0961,
      "velocity": 127,
      "chip": "ym2612"
    },
    {
      "channel": 3,
      "note": 45,
      "start": 96.2212,
      "duration": 0.1963,
      "velocity": 99,
      "chip": "ym2612"
    },
    {
      "channel": 4,
      "note": 47,
      "start": 96.2259,
      "duration": 0.1917,
      "velocity": 127,
      "chip": "ym2612"
    },
    {
      "channel": 3,
      "note": 48,
      "start": 96.421,
      "duration": 0.413,
      "velocity": 99,
      "chip": "ym2612"
    },
    {
      "channel": 4,
      "note": 69,
      "start": 96.4261,
      "duration": 0.0914,
      "velocity": 127,
      "chip": "ym2612"
    },
    {
      "channel": 4,
      "note": 69,
      "start": 96.6212,
      "duration": 0.1128,
      "velocity": 127,
      "chip": "ym2612"
    },
    {
      "channel": 3,
      "note": 48,
      "start": 96.8374,
      "duration": 0.1966,
      "velocity": 99,
      "chip": "ym2612"
    },
    {
      "channel": 4,
      "note": 69,
      "start": 96.8407,
      "duration": 0.0934,
      "velocity": 127,
      "chip": "ym2612"
    },
    {
      "channel": 4,
      "note": 47,
      "start": 97.0394,
      "duration": 0.2115,
      "velocity": 127,
      "chip": "ym2612"
    },
    {
      "channel": 0,
      "note": 72,
      "start": 97.2548,
      "duration": 0.8124,
      "velocity": 77,
      "chip": "ym2612"
    },
    {
      "channel": 1,
      "note": 65,
      "start": 97.2588,
      "duration": 0.8086,
      "velocity": 77,
      "chip": "ym2612"
    },
    {
      "channel": 4,
      "note": 69,
      "start": 97.2639,
      "duration": 0.0868,
      "velocity": 127,
      "chip": "ym2612"
    },
    {
      "channel": 4,
      "note": 69,
      "start": 97.4549,
      "duration": 0.4125,
      "velocity": 127,
      "chip": "ym2612"
    },
    {
      "channel": 3,
      "note": 48,
      "start": 97.6541,
      "duration": 0.4135,
      "velocity": 99,
      "chip": "ym2612"
    },
    {
      "channel": 4,
      "note": 47,
      "start": 97.8728,
      "duration": 0.1949,
      "velocity": 127,
      "chip": "ym2612"
    },
    {
      "channel": 0,
      "note": 74,
      "start": 98.072,
      "duration": 1.0285,
      "velocity": 77,
      "chip": "ym2612"
    },
    {
      "channel": 1,
      "note": 67,
      "start": 98.0756,
      "duration": 1.0252,
      "velocity": 77,
      "chip": "ym2612"
    },
    {
      "channel": 3,
      "note": 48,
      "start": 98.0783,
      "duration": 0.189,
      "velocity": 99,
      "chip": "ym2612"
    },
    {
      "channel": 4,
      "note": 69,
      "start": 98.0831,
      "duration": 0.0843,
      "velocity": 127,
      "chip": "ym2612"
    },
    {
      "channel": 3,
      "note": 51,
      "start": 98.2704,
      "duration": 0.2136,
      "velocity": 99,
      "chip": "ym2612"
    },
    {
      "channel": 4,
      "note": 69,
      "start": 98.2741,
      "duration": 0.11,
      "velocity": 127,
      "chip": "ym2612"
    },
    {
      "channel": 3,
      "note": 48,
      "start": 98.4871,
      "duration": 0.1969,
      "velocity": 99,
      "chip": "ym2612"
    },
    {
      "channel": 4,
      "note": 69,
      "start": 98.4904,
      "duration": 0.0937,
      "velocity": 127,
      "chip": "ym2612"
    },
    {
      "channel": 3,
      "note": 47,
      "start": 98.6872,
      "duration": 0.2136,
      "velocity": 99,
      "chip": "ym2612"
    },
    {
      "channel": 4,
      "note": 47,
      "start": 98.6919,
      "duration": 0.209,
      "velocity": 127,
      "chip": "ym2612"
    },
    {
      "channel": 3,
      "note": 48,
      "start": 98.9043,
      "duration": 0.1966,
      "velocity": 99,
      "chip": "ym2612"
    },
    {
      "channel": 4,
      "note": 69,
      "start": 98.909,
      "duration": 0.0917,
      "velocity": 127,
      "chip": "ym2612"
    },
    {
      "channel": 0,
      "note": 81,
      "start": 99.1049,
      "duration": 0.4124,
      "velocity": 77,
      "chip": "ym2612"
    },
    {
      "channel": 1,
      "note": 72,
      "start": 99.1084,
      "duration": 0.609,
      "velocity": 77,
      "chip": "ym2612"
    },
    {
      "channel": 3,
      "note": 45,
      "start": 99.1112,
      "duration": 0.4063,
      "velocity": 99,
      "chip": "ym2612"
    },
    {
      "channel": 4,
      "note": 69,
      "start": 99.1145,
      "duration": 0.0862,
      "velocity": 127,
      "chip": "ym2612"
    },
    {
      "channel": 4,
      "note": 69,
      "start": 99.3046,
      "duration": 0.1127,
      "velocity": 127,
      "chip": "ym2612"
    },
    {
      "channel": 0,
      "note": 79,
      "start": 99.5214,
      "duration": 0.1959,
      "velocity": 77,
      "chip": "ym2612"
    },
    {
      "channel": 3,
      "note": 45,
      "start": 99.5242,
      "duration": 0.1933,
      "velocity": 99,
      "chip": "ym2612"
    },
    {
      "channel": 4,
      "note": 47,
      "start": 99.5293,
      "duration": 0.1884,
      "velocity": 127,
      "chip": "ym2612"
    },
    {
      "channel": 0,
      "note": 74,
      "start": 99.7217,
      "duration": 0.4122,
      "velocity": 77,
      "chip": "ym2612"
    },
    {
      "channel": 1,
      "note": 69,
      "start": 99.7252,
      "duration": 1.8588,
      "velocity": 77,
      "chip": "ym2612"
    },
    {
      "channel": 3,
      "note": 48,
      "start": 99.728,
      "duration": 0.4061,
      "velocity": 99,
      "chip": "ym2612"
    },
    {
      "channel": 4,
      "note": 69,
      "start": 99.7327,
      "duration": 0.0847,
      "velocity": 127,
      "chip": "ym2612"
    },
    {
      "channel": 4,
      "note": 69,
      "start": 99.9379,
      "duration": 0.0962,
      "velocity": 127,
      "chip": "ym2612"
    },
    {
      "channel": 0,
      "note": 79,
      "start": 100.1376,
      "duration": 0.4129,
      "velocity": 77,
      "chip": "ym2612"
    },
    {
      "channel": 3,
      "note": 48,
      "start": 100.1406,
      "duration": 0.1935,
      "velocity": 99,
      "chip": "ym2612"
    },
    {
      "channel": 4,
      "note": 69,
      "start": 100.1438,
      "duration": 0.0902,
      "velocity": 127,
      "chip": "ym2612"
    },
    {
      "channel": 4,
      "note": 47,
      "start": 100.34,
      "duration": 0.2108,
      "velocity": 127,
      "chip": "ym2612"
    },
    {
      "channel": 0,
      "note": 76,
      "start": 100.5543,
      "duration": 0.3963,
      "velocity": 77,
      "chip": "ym2612"
    },
    {
      "channel": 4,
      "note": 69,
      "start": 100.5593,
      "duration": 0.0913,
      "velocity": 127,
      "chip": "ym2612"
    },
    {
      "channel": 4,
      "note": 69,
      "start": 100.7549,
      "duration": 0.4125,
      "velocity": 127,
      "chip": "ym2612"
    },
    {
      "channel": 0,
      "note": 77,
      "start": 100.9551,
      "duration": 0.212,
      "velocity": 77,
      "chip": "ym2612"
    },
    {
      "channel": 3,
      "note": 48,
      "start": 100.958,
      "duration": 0.4095,
      "velocity": 99,
      "chip": "ym2612"
    },
    {
      "channel": 0,
      "note": 76,
      "start": 101.1709,
      "duration": 0.1964,
      "velocity": 77,
      "chip": "ym2612"
    },
    {
      "channel": 4,
      "note": 47,
      "start": 101.1762,
      "duration": 0.1914,
      "velocity": 127,
      "chip": "ym2612"
    },
    {
      "channel": 0,
      "note": 74,
      "start": 101.3711,
      "duration": 0.2128,
      "velocity": 77,
      "chip": "ym2612"
    },
    {
      "channel": 3,
      "note": 48,
      "start": 101.3744,
      "duration": 0.2098,
      "velocity": 99,
      "chip": "ym2612"
    },
    {
      "channel": 4,
      "note": 69,
      "start": 101.3791,
      "duration": 0.0883,
      "velocity": 127,
      "chip": "ym2612"
    },
    {
      "channel": 0,
      "note": 71,
      "start": 101.5879,
      "duration": 0.1961,
      "velocity": 77,
      "chip": "ym2612"
    },
    {
      "channel": 1,
      "note": 71,
      "start": 101.5915,
      "duration": 0.3926,
      "velocity": 77,
      "chip": "ym2612"
    },
    {
      "channel": 3,
      "note": 51,
      "start": 101.5939,
      "duration": 0.1902,
      "velocity": 99,
      "chip": "ym2612"
    },
    {
      "channel": 4,
      "note": 69,
      "start": 101.5973,
      "duration": 0.0868,
      "velocity": 127,
      "chip": "ym2612"
    },
    {
      "channel": 0,
      "note": 79,
      "start": 101.7877,
      "duration": 0.1962,
      "velocity": 77,
      "chip": "ym2612"
    },
    {
      "channel": 3,
      "note": 52,
      "start": 101.7903,
      "duration": 0.1938,
      "velocity": 99,
      "chip": "ym2612"
    },
    {
      "channel": 4,
      "note": 69,
      "start": 101.7936,
      "duration": 0.0904,
      "velocity": 127,
      "chip": "ym2612"
    },
    {
      "channel": 0,
      "note": 83,
      "start": 101.9878,
      "duration": 0.2129,
      "velocity": 77,
      "chip": "ym2612"
    },
    {
      "channel": 1,
      "note": 67,
      "start": 101.9911,
      "duration": 0.4095,
      "velocity": 77,
      "chip": "ym2612"
    },
    {
      "channel": 3,
      "note": 51,
      "start": 101.9936,
      "duration": 0.2072,
      "velocity": 99,
      "chip": "ym2612"
    },
    {
      "channel": 4,
      "note": 47,
      "start": 101.9987,
      "duration": 0.2023,
      "velocity": 127,
      "chip": "ym2612"
    },
    {
      "channel": 0,
      "note": 84,
      "start": 102.2045,
      "duration": 0.1961,
      "velocity": 77,
      "chip": "ym2612"
    },
    {
      "channel": 3,
      "note": 48,
      "start": 102.2071,
      "duration": 0.1937,
      "velocity": 99,
      "chip": "ym2612"
    },
    {
      "channel": 4,
      "note": 69,
      "start": 102.2118,
      "duration": 0.0889,
      "velocity": 127,
      "chip": "ym2612"
    },
    {
      "channel": 0,
      "note": 81,
      "start": 102.4048,
      "duration": 1.446,
      "velocity": 77,
      "chip": "ym2612"
    },
    {
      "channel": 1,
      "note": 64,
      "start": 102.4088,
      "duration": 1.4422,
      "velocity": 77,
      "chip": "ym2612"
    },
    {
      "channel": 3,
      "note": 45,
      "start": 102.4115,
      "duration": 0.406,
      "velocity": 99,
      "chip": "ym2612"
    },
    {
      "channel": 4,
      "note": 69,
      "start": 102.4148,
      "duration": 0.086,
      "velocity": 127,
      "chip": "ym2612"
    },
    {
      "channel": 4,
      "note": 69,
      "start": 102.6214,
      "duration": 0.0962,
      "velocity": 127,
      "chip": "ym2612"
    },
    {
      "channel": 3,
      "note": 45,
      "start": 102.8208,
      "duration": 0.1967,
      "velocity": 99,
      "chip": "ym2612"
    },
    {
      "channel": 4,
      "note": 47,
      "start": 102.8256,
      "duration": 0.192,
      "velocity": 127,
      "chip": "ym2612"
    },
    {
      "channel": 3,
      "note": 48,
      "start": 103.021,
      "duration": 0.4132,
      "velocity": 99,
      "chip": "ym2612"
    },
    {
      "channel": 4,
      "note": 69,
      "start": 103.0261,
      "duration": 0.1082,
      "velocity": 127,
      "chip": "ym2612"
    },
    {
      "channel": 4,
      "note": 69,
      "start": 103.238,
      "duration": 0.0962,
      "velocity": 127,
      "chip": "ym2612"
    },
    {
      "channel": 3,
      "note": 48,
      "start": 103.4379,
      "duration": 0.213,
      "velocity": 99,
      "chip": "ym2612"
    },
    {
      "channel": 4,
      "note": 69,
      "start": 103.4412,
      "duration": 0.0929,
      "velocity": 127,
      "chip": "ym2612"
    },
    {
      "channel": 4,
      "note": 47,
      "start": 103.6563,
      "duration": 0.1949,
      "velocity": 127,
      "chip": "ym2612"
    },
    {
      "channel": 0,
      "note": 72,
      "start": 103.855,
      "duration": 0.8125,
      "velocity": 77,
      "chip": "ym2612"
    },
    {
      "channel": 1,
      "note": 65,
      "start": 103.8579,
      "duration": 0.8097,
      "velocity": 77,
      "chip": "ym2612"
    },
    {
      "channel": 4,
      "note": 69,
      "start": 103.8632,
      "duration": 0.0877,
      "velocity": 127,
      "chip": "ym2612"
    },
    {
      "channel": 4,
      "note": 69,
      "start": 104.0549,
      "duration": 0.0959,
      "velocity": 127,
      "chip": "ym2612"
    },
    {
      "channel": 4,
      "note": 105,
      "start": 104.1548,
      "duration": 0.1128,
      "velocity": 127,
      "chip": "ym2612"
    },
    {
      "channel": 3,
      "note": 48,
      "start": 104.2709,
      "duration": 0.3968,
      "velocity": 99,
      "chip": "ym2612"
    },
    {
      "channel": 4,
      "note": 58,
      "start": 104.2755,
      "duration": 0.092,
      "velocity": 86,
      "chip": "ym2612"
    },
    {
      "channel": 4,
      "note": 58,
      "start": 104.3714,
      "duration": 0.0961,
      "velocity": 86,
      "chip": "ym2612"
    },
    {
      "channel": 4,
      "note": 58,
      "start": 104.4717,
      "duration": 0.1961,
      "velocity": 86,
      "chip": "ym2612"
    },
    {
      "channel": 0,
      "note": 74,
      "start": 104.6717,
      "duration": 1.0291,
      "velocity": 77,
      "chip": "ym2612"
    },
    {
      "channel": 1,
      "note": 67,
      "start": 104.6746,
      "duration": 1.0263,
      "velocity": 77,
      "chip": "ym2612"
    },
    {
      "channel": 3,
      "note": 47,
      "start": 104.6774,
      "duration": 0.2069,
      "velocity": 99,
      "chip": "ym2612"
    },
    {
      "channel": 4,
      "note": 57,
      "start": 104.6807,
      "duration": 0.2037,
      "velocity": 86,
      "chip": "ym2612"
    },
    {
      "channel": 3,
      "note": 48,
      "start": 104.8877,
      "duration": 0.4131,
      "velocity": 99,
      "chip": "ym2612"
    },
    {
      "channel": 4,
      "note": 56,
      "start": 104.8917,
      "duration": 0.0926,
      "velocity": 86,
      "chip": "ym2612"
    },
    {
      "channel": 4,
      "note": 56,
      "start": 104.9885,
      "duration": 0.1959,
      "velocity": 86,
      "chip": "ym2612"
    },
    {
      "channel": 4,
      "note": 55,
      "start": 105.1885,
      "duration": 0.1124,
      "velocity": 86,
      "chip": "ym2612"
    },
    {
      "channel": 3,
      "note": 55,
      "start": 105.3039,
      "duration": 0.3971,
      "velocity": 99,
      "chip": "ym2612"
    },
    {
      "channel": 4,
      "note": 53,
      "start": 105.3076,
      "duration": 0.1934,
      "velocity": 86,
      "chip": "ym2612"
    },
    {
      "channel": 4,
      "note": 51,
      "start": 105.5048,
      "duration": 0.1964,
      "velocity": 86,
      "chip": "ym2612"
    },
    {
      "channel": 0,
      "note": 84,
      "start": 105.7069,
      "duration": 0.2104,
      "velocity": 95,
      "chip": "ym2612"
    },
    {
      "channel": 1,
      "note": 72,
      "start": 105.7121,
      "duration": 1.6385,
      "velocity": 91,
      "chip": "ym2612"
    },
    {
      "channel": 3,
      "note": 53,
      "start": 105.7164,
      "duration": 1.6344,
      "velocity": 88,
      "chip": "ym2612"
    },
    {
      "channel": 0,
      "note": 77,
      "start": 105.9213,
      "duration": 0.1961,
      "velocity": 95,
      "chip": "ym2612"
    },
    {
      "channel": 0,
      "note": 80,
      "start": 106.1212,
      "duration": 0.2127,
      "velocity": 95,
      "chip": "ym2612"
    },
    {
      "channel": 4,
      "note": 69,
      "start": 106.125,
      "duration": 0.0924,
      "velocity": 127,
      "chip": "ym2612"
    },
    {
      "channel": 0,
      "note": 77,
      "start": 106.3378,
      "duration": 0.1961,
      "velocity": 95,
      "chip": "ym2612"
    },
    {
      "channel": 0,
      "note": 87,
      "start": 106.5379,
      "duration": 0.1961,
      "velocity": 95,
      "chip": "ym2612"
    },
    {
      "channel": 0,
      "note": 77,
      "start": 106.7378,
      "duration": 0.2125,
      "velocity": 95,
      "chip": "ym2612"
    },
    {
      "channel": 0,
      "note": 84,
      "start": 106.9543,
      "duration": 0.1962,
      "velocity": 95,
      "chip": "ym2612"
    },
    {
      "channel": 4,
      "note": 69,
      "start": 106.9579,
      "duration": 0.0928,
      "velocity": 127,
      "chip": "ym2612"
    },
    {
      "channel": 0,
      "note": 77,
      "start": 107.1544,
      "duration": 0.1961,
      "velocity": 95,
      "chip": "ym2612"
    },
    {
      "channel": 0,
      "note": 86,
      "start": 107.3548,
      "duration": 0.2124,
      "velocity": 95,
      "chip": "ym2612"
    },
    {
      "channel": 1,
      "note": 74,
      "start": 107.3583,
      "duration": 1.6592,
      "velocity": 91,
      "chip": "ym2612"
    },
    {
      "channel": 3,
      "note": 50,
      "start": 107.3607,
      "duration": 1.6568,
      "velocity": 88,
      "chip": "ym2612"
    },
    {
      "channel": 0,
      "note": 74,
      "start": 107.5712,
      "duration": 0.1961,
      "velocity": 95,
      "chip": "ym2612"
    },
    {
      "channel": 0,
      "note": 77,
      "start": 107.7712,
      "duration": 0.2128,
      "velocity": 95,
      "chip": "ym2612"
    },
    {
      "channel": 4,
      "note": 69,
      "start": 107.7749,
      "duration": 0.0927,
      "velocity": 127,
      "chip": "ym2612"
    },
    {
      "channel": 0,
      "note": 74,
      "start": 107.9883,
      "duration": 0.1957,
      "velocity": 95,
      "chip": "ym2612"
    },
    {
      "channel": 0,
      "note": 81,
      "start": 108.188,
      "duration": 0.1961,
      "velocity": 95,
      "chip": "ym2612"
    },
    {
      "channel": 0,
      "note": 74,
      "start": 108.388,
      "duration": 0.2126,
      "velocity": 95,
      "chip": "ym2612"
    },
    {
      "channel": 0,
      "note": 80,
      "start": 108.6044,
      "duration": 0.1961,
      "velocity": 95,
      "chip": "ym2612"
    },
    {
      "channel": 4,
      "note": 69,
      "start": 108.608,
      "duration": 0.0926,
      "velocity": 127,
      "chip": "ym2612"
    },
    {
      "channel": 0,
      "note": 74,
      "start": 108.8044,
      "duration": 0.2128,
      "velocity": 95,
      "chip": "ym2612"
    },
    {
      "channel": 0,
      "note": 84,
      "start": 109.0215,
      "duration": 0.1958,
      "velocity": 95,
      "chip": "ym2612"
    },
    {
      "channel": 1,
      "note": 77,
      "start": 109.0249,
      "duration": 1.6424,
      "velocity": 91,
      "chip": "ym2612"
    },
    {
      "channel": 3,
      "note": 53,
      "start": 109.0274,
      "duration": 1.6401,
      "velocity": 88,
      "chip": "ym2612"
    },
    {
      "channel": 0,
      "note": 77,
      "start": 109.2212,
      "duration": 0.1961,
      "velocity": 95,
      "chip": "ym2612"
    },
    {
      "channel": 0,
      "note": 80,
      "start": 109.4213,
      "duration": 0.2127,
      "velocity": 95,
      "chip": "ym2612"
    },
    {
      "channel": 4,
      "note": 69,
      "start": 109.4249,
      "duration": 0.1093,
      "velocity": 127,
      "chip": "ym2612"
    },
    {
      "channel": 0,
      "note": 77,
      "start": 109.638,
      "duration": 0.1961,
      "velocity": 95,
      "chip": "ym2612"
    },
    {
      "channel": 0,
      "note": 87,
      "start": 109.838,
      "duration": 0.2127,
      "velocity": 95,
      "chip": "ym2612"
    },
    {
      "channel": 0,
      "note": 77,
      "start": 110.0545,
      "duration": 0.1961,
      "velocity": 95,
      "chip": "ym2612"
    },
    {
      "channel": 0,
      "note": 84,
      "start": 110.2544,
      "duration": 0.1961,
      "velocity": 95,
      "chip": "ym2612"
    },
    {
      "channel": 4,
      "note": 69,
      "start": 110.258,
      "duration": 0.0927,
      "velocity": 127,
      "chip": "ym2612"
    },
    {
      "channel": 0,
      "note": 77,
      "start": 110.4544,
      "duration": 0.2128,
      "velocity": 95,
      "chip": "ym2612"
    },
    {
      "channel": 0,
      "note": 86,
      "start": 110.6714,
      "duration": 0.1959,
      "velocity": 95,
      "chip": "ym2612"
    },
    {
      "channel": 1,
      "note": 74,
      "start": 110.6749,
      "duration": 1.6425,
      "velocity": 91,
      "chip": "ym2612"
    },
    {
      "channel": 3,
      "note": 50,
      "start": 110.6773,
      "duration": 1.6402,
      "velocity": 88,
      "chip": "ym2612"
    },
    {
      "channel": 0,
      "note": 74,
      "start": 110.8713,
      "duration": 0.196,
      "velocity": 95,
      "chip": "ym2612"
    },
    {
      "channel": 0,
      "note": 77,
      "start": 111.0712,
      "duration": 0.2127,
      "velocity": 95,
      "chip": "ym2612"
    },
    {
      "channel": 4,
      "note": 69,
      "start": 111.0749,
      "duration": 0.1092,
      "velocity": 127,
      "chip": "ym2612"
    },
    {
      "channel": 0,
      "note": 74,
      "start": 111.2882,
      "duration": 0.1957,
      "velocity": 95,
      "chip": "ym2612"
    },
    {
      "channel": 0,
      "note": 81,
      "start": 111.4879,
      "duration": 0.2127,
      "velocity": 95,
      "chip": "ym2612"
    },
    {
      "channel": 0,
      "note": 74,
      "start": 111.7046,
      "duration": 0.1959,
      "velocity": 95,
      "chip": "ym2612"
    },
    {
      "channel": 0,
      "note": 80,
      "start": 111.9044,
      "duration": 0.1961,
      "velocity": 95,
      "chip": "ym2612"
    },
    {
      "channel": 4,
      "note": 69,
      "start": 111.908,
      "duration": 0.0927,
      "velocity": 127,
      "chip": "ym2612"
    },
    {
      "channel": 0,
      "note": 74,
      "start": 112.1044,
      "duration": 0.2128,
      "velocity": 95,
      "chip": "ym2612"
    },
    {
      "channel": 0,
      "note": 84,
      "start": 112.3215,
      "duration": 0.1959,
      "velocity": 95,
      "chip": "ym2612"
    },
    {
      "channel": 1,
      "note": 72,
      "start": 112.3249,
      "duration": 1.6424,
      "velocity": 91,
      "chip": "ym2612"
    },
    {
      "channel": 3,
      "note": 53,
      "start": 112.3274,
      "duration": 1.6401,
      "velocity": 88,
      "chip": "ym2612"
    },
    {
      "channel": 0,
      "note": 77,
      "start": 112.5213,
      "duration": 0.2127,
      "velocity": 95,
      "chip": "ym2612"
    },
    {
      "channel": 0,
      "note": 80,
      "start": 112.7379,
      "duration": 0.1961,
      "velocity": 95,
      "chip": "ym2612"
    },
    {
      "channel": 4,
      "note": 69,
      "start": 112.7415,
      "duration": 0.0927,
      "velocity": 127,
      "chip": "ym2612"
    },
    {
      "channel": 0,
      "note": 77,
      "start": 112.9379,
      "duration": 0.1961,
      "velocity": 95,
      "chip": "ym2612"
    },
    {
      "channel": 0,
      "note": 87,
      "start": 113.138,
      "duration": 0.2127,
      "velocity": 95,
      "chip": "ym2612"
    },
    {
      "channel": 0,
      "note": 77,
      "start": 113.3546,
      "duration": 0.1959,
      "velocity": 95,
      "chip": "ym2612"
    },
    {
      "channel": 0,
      "note": 84,
      "start": 113.5544,
      "duration": 0.1961,
      "velocity": 95,
      "chip": "ym2612"
    },
    {
      "channel": 4,
      "note": 69,
      "start": 113.5584,
      "duration": 0.0922,
      "velocity": 127,
      "chip": "ym2612"
    },
    {
      "channel": 0,
      "note": 77,
      "start": 113.7545,
      "duration": 0.2127,
      "velocity": 95,
      "chip": "ym2612"
    },
    {
      "channel": 0,
      "note": 86,
      "start": 113.9715,
      "duration": 0.1958,
      "velocity": 95,
      "chip": "ym2612"
    },
    {
      "channel": 1,
      "note": 74,
      "start": 113.9749,
      "duration": 1.6424,
      "velocity": 91,
      "chip": "ym2612"
    },
    {
      "channel": 3,
      "note": 50,
      "start": 113.9774,
      "duration": 1.64,
      "velocity": 88,
      "chip": "ym2612"
    },
    {
      "channel": 0,
      "note": 74,
      "start": 114.1712,
      "duration": 0.2127,
      "velocity": 95,
      "chip": "ym2612"
    },
    {
      "channel": 0,
      "note": 77,
      "start": 114.3879,
      "duration": 0.1961,
      "velocity": 95,
      "chip": "ym2612"
    },
    {
      "channel": 4,
      "note": 69,
      "start": 114.3915,
      "duration": 0.0927,
      "velocity": 127,
      "chip": "ym2612"
    },
    {
      "channel": 0,
      "note": 74,
      "start": 114.5883,
      "duration": 0.1957,
      "velocity": 95,
      "chip": "ym2612"
    },
    {
      "channel": 0,
      "note": 81,
      "start": 114.788,
      "duration": 0.2127,
      "velocity": 95,
      "chip": "ym2612"
    },
    {
      "channel": 0,
      "note": 74,
      "start": 115.0046,
      "duration": 0.1959,
      "velocity": 95,
      "chip": "ym2612"
    },
    {
      "channel": 0,
      "note": 80,
      "start": 115.2045,
      "duration": 0.2127,
      "velocity": 95,
      "chip": "ym2612"
    },
    {
      "channel": 4,
      "note": 69,
      "start": 115.208,
      "duration": 0.0926,
      "velocity": 127,
      "chip": "ym2612"
    },
    {
      "channel": 0,
      "note": 74,
      "start": 115.4212,
      "duration": 0.196,
      "velocity": 95,
      "chip": "ym2612"
    },
    {
      "channel": 0,
      "note": 82,
      "start": 115.6216,
      "duration": 0.0957,
      "velocity": 95,
      "chip": "ym2612"
    },
    {
      "channel": 1,
      "note": 75,
      "start": 115.6251,
      "duration": 1.6422,
      "velocity": 91,
      "chip": "ym2612"
    },
    {
      "channel": 3,
      "note": 51,
      "start": 115.6276,
      "duration": 1.6398,
      "velocity": 88,
      "chip": "ym2612"
    },
    {
      "channel": 0,
      "note": 82,
      "start": 115.7212,
      "duration": 0.0961,
      "velocity": 95,
      "chip": "ym2612"
    },
    {
      "channel": 0,
      "note": 72,
      "start": 115.8212,
      "duration": 0.1128,
      "velocity": 95,
      "chip": "ym2612"
    },
    {
      "channel": 0,
      "note": 72,
      "start": 115.938,
      "duration": 0.0961,
      "velocity": 95,
      "chip": "ym2612"
    },
    {
      "channel": 0,
      "note": 75,
      "start": 116.038,
      "duration": 0.096,
      "velocity": 95,
      "chip": "ym2612"
    },
    {
      "channel": 4,
      "note": 69,
      "start": 116.0416,
      "duration": 0.0926,
      "velocity": 127,
      "chip": "ym2612"
    },
    {
      "channel": 0,
      "note": 75,
      "start": 116.138,
      "duration": 0.0959,
      "velocity": 95,
      "chip": "ym2612"
    },
    {
      "channel": 0,
      "note": 72,
      "start": 116.2379,
      "duration": 0.0962,
      "velocity": 95,
      "chip": "ym2612"
    },
    {
      "channel": 0,
      "note": 72,
      "start": 116.338,
      "duration": 0.1127,
      "velocity": 95,
      "chip": "ym2612"
    },
    {
      "channel": 0,
      "note": 81,
      "start": 116.4546,
      "duration": 0.0961,
      "velocity": 95,
      "chip": "ym2612"
    },
    {
      "channel": 0,
      "note": 81,
      "start": 116.5549,
      "duration": 0.0957,
      "velocity": 95,
      "chip": "ym2612"
    },
    {
      "channel": 0,
      "note": 72,
      "start": 116.6546,
      "duration": 0.0961,
      "velocity": 95,
      "chip": "ym2612"
    },
    {
      "channel": 0,
      "note": 72,
      "start": 116.7546,
      "duration": 0.0959,
      "velocity": 95,
      "chip": "ym2612"
    },
    {
      "channel": 0,
      "note": 82,
      "start": 116.8545,
      "duration": 0.096,
      "velocity": 95,
      "chip": "ym2612"
    },
    {
      "channel": 4,
      "note": 69,
      "start": 116.858,
      "duration": 0.0927,
      "velocity": 127,
      "chip": "ym2612"
    },
    {
      "channel": 0,
      "note": 82,
      "start": 116.9545,
      "duration": 0.1127,
      "velocity": 95,
      "chip": "ym2612"
    },
    {
      "channel": 0,
      "note": 72,
      "start": 117.071,
      "duration": 0.0962,
      "velocity": 95,
      "chip": "ym2612"
    },
    {
      "channel": 0,
      "note": 72,
      "start": 117.1712,
      "duration": 0.0959,
      "velocity": 95,
      "chip": "ym2612"
    },
    {
      "channel": 0,
      "note": 75,
      "start": 117.2724,
      "duration": 0.095,
      "velocity": 97,
      "chip": "ym2612"
    },
    {
      "channel": 1,
      "note": 79,
      "start": 117.2761,
      "duration": 0.608,
      "velocity": 91,
      "chip": "ym2612"
    },
    {
      "channel": 3,
      "note": 48,
      "start": 117.2789,
      "duration": 0.4052,
      "velocity": 88,
      "chip": "ym2612"
    },
    {
      "channel": 0,
      "note": 74,
      "start": 117.371,
      "duration": 0.0962,
      "velocity": 97,
      "chip": "ym2612"
    },
    {
      "channel": 0,
      "note": 72,
      "start": 117.4712,
      "duration": 0.2127,
      "velocity": 97,
      "chip": "ym2612"
    },
    {
      "channel": 0,
      "note": 75,
      "start": 117.688,
      "duration": 0.1959,
      "velocity": 97,
      "chip": "ym2612"
    },
    {
      "channel": 3,
      "note": 48,
      "start": 117.691,
      "duration": 0.1932,
      "velocity": 88,
      "chip": "ym2612"
    },
    {
      "channel": 4,
      "note": 69,
      "start": 117.6943,
      "duration": 0.0898,
      "velocity": 127,
      "chip": "ym2612"
    },
    {
      "channel": 0,
      "note": 79,
      "start": 117.8882,
      "duration": 0.6123,
      "velocity": 97,
      "chip": "ym2612"
    },
    {
      "channel": 1,
      "note": 82,
      "start": 117.8917,
      "duration": 0.6091,
      "velocity": 91,
      "chip": "ym2612"
    },
    {
      "channel": 3,
      "note": 51,
      "start": 117.8948,
      "duration": 0.606,
      "velocity": 88,
      "chip": "ym2612"
    },
    {
      "channel": 0,
      "note": 79,
      "start": 118.5049,
      "duration": 0.4125,
      "velocity": 97,
      "chip": "ym2612"
    },
    {
      "channel": 1,
      "note": 81,
      "start": 118.5086,
      "duration": 0.409,
      "velocity": 91,
      "chip": "ym2612"
    },
    {
      "channel": 3,
      "note": 50,
      "start": 118.5114,
      "duration": 0.4063,
      "velocity": 88,
      "chip": "ym2612"
    },
    {
      "channel": 4,
      "note": 69,
      "start": 118.5149,
      "duration": 0.1025,
      "velocity": 127,
      "chip": "ym2612"
    },
    {
      "channel": 0,
      "note": 81,
      "start": 118.9217,
      "duration": 1.6455,
      "velocity": 97,
      "chip": "ym2612"
    },
    {
      "channel": 1,
      "note": 81,
      "start": 118.9257,
      "duration": 1.6415,
      "velocity": 91,
      "chip": "ym2612"
    },
    {
      "channel": 3,
      "note": 45,
      "start": 118.9288,
      "duration": 3.2884,
      "velocity": 88,
      "chip": "ym2612"
    }
  ]
}