{
  "track_name": "09 - War in Kounan",
  "duration_sec": 16.981,
  "sample_rate": 44100,
  "note_count": 232,
  "unique_pitches": 19,
  "pitch_range": 47,
  "avg_note_duration": 0.1868,
  "reconstruction_stats": {
    "notes_reconstructed": 232,
    "keyon_events": 232,
    "keyoff_events": 229,
    "orphan_keyons": 3,
    "unique_pitches": 19,
    "pitch_range": 47,
    "avg_duration_sec": 0.1868
  },
  "metadata": {
    "source": "R\\Romance of the Three Kingdoms II\\09 - War in Kounan.vgz"
  },
  "notes": [
    {
      "channel": 0,
      "note": 71,
      "start": 0.0,
      "duration": 0.1634,
      "velocity": 92,
      "chip": "ym2612"
    },
    {
      "channel": 1,
      "note": 38,
      "start": 0.0035,
      "duration": 0.1601,
      "velocity": 97,
      "chip": "ym2612"
    },
    {
      "channel": 2,
      "note": 69,
      "start": 0.0069,
      "duration": 0.3233,
      "velocity": 119,
      "chip": "ym2612"
    },
    {
      "channel": 0,
      "note": 73,
      "start": 0.1795,
      "duration": 0.151,
      "velocity": 92,
      "chip": "ym2612"
    },
    {
      "channel": 1,
      "note": 45,
      "start": 0.1801,
      "duration": 0.1505,
      "velocity": 97,
      "chip": "ym2612"
    },
    {
      "channel": 0,
      "note": 71,
      "start": 0.3471,
      "duration": 0.0014,
      "velocity": 92,
      "chip": "ym2612"
    },
    {
      "channel": 1,
      "note": 54,
      "start": 0.3477,
      "duration": 0.1649,
      "velocity": 97,
      "chip": "ym2612"
    },
    {
      "channel": 2,
      "note": 81,
      "start": 0.3483,
      "duration": 0.331,
      "velocity": 119,
      "chip": "ym2612"
    },
    {
      "channel": 0,
      "note": 69,
      "start": 0.5295,
      "duration": 0.1507,
      "velocity": 92,
      "chip": "ym2612"
    },
    {
      "channel": 1,
      "note": 45,
      "start": 0.5301,
      "duration": 0.1502,
      "velocity": 97,
      "chip": "ym2612"
    },
    {
      "channel": 0,
      "note": 71,
      "start": 0.6971,
      "duration": 0.1654,
      "velocity": 92,
      "chip": "ym2612"
    },
    {
      "channel": 1,
      "note": 38,
      "start": 0.6977,
      "duration": 0.165,
      "velocity": 97,
      "chip": "ym2612"
    },
    {
      "channel": 2,
      "note": 69,
      "start": 0.6983,
      "duration": 0.1645,
      "velocity": 119,
      "chip": "ym2612"
    },
    {
      "channel": 0,
      "note": 73,
      "start": 0.8644,
      "duration": 0.1657,
      "velocity": 92,
      "chip": "ym2612"
    },
    {
      "channel": 1,
      "note": 45,
      "start": 0.8649,
      "duration": 0.1653,
      "velocity": 97,
      "chip": "ym2612"
    },
    {
      "channel": 2,
      "note": 69,
      "start": 0.8656,
      "duration": 0.1648,
      "velocity": 119,
      "chip": "ym2612"
    },
    {
      "channel": 0,
      "note": 71,
      "start": 1.0462,
      "duration": 0.1509,
      "velocity": 92,
      "chip": "ym2612"
    },
    {
      "channel": 1,
      "note": 54,
      "start": 1.0468,
      "duration": 0.1504,
      "velocity": 97,
      "chip": "ym2612"
    },
    {
      "channel": 2,
      "note": 81,
      "start": 1.0474,
      "duration": 0.3162,
      "velocity": 119,
      "chip": "ym2612"
    },
    {
      "channel": 0,
      "note": 69,
      "start": 1.2138,
      "duration": 0.1654,
      "velocity": 92,
      "chip": "ym2612"
    },
    {
      "channel": 1,
      "note": 45,
      "start": 1.2144,
      "duration": 0.1649,
      "velocity": 97,
      "chip": "ym2612"
    },
    {
      "channel": 0,
      "note": 71,
      "start": 1.3962,
      "duration": 0.1505,
      "velocity": 92,
      "chip": "ym2612"
    },
    {
      "channel": 1,
      "note": 40,
      "start": 1.3968,
      "duration": 0.1501,
      "velocity": 97,
      "chip": "ym2612"
    },
    {
      "channel": 2,
      "note": 71,
      "start": 1.3974,
      "duration": 0.3162,
      "velocity": 119,
      "chip": "ym2612"
    },
    {
      "channel": 0,
      "note": 73,
      "start": 1.5638,
      "duration": 0.1654,
      "velocity": 92,
      "chip": "ym2612"
    },
    {
      "channel": 1,
      "note": 47,
      "start": 1.5644,
      "duration": 0.1649,
      "velocity": 97,
      "chip": "ym2612"
    },
    {
      "channel": 0,
      "note": 71,
      "start": 1.7309,
      "duration": 0.165,
      "velocity": 92,
      "chip": "ym2612"
    },
    {
      "channel": 1,
      "note": 56,
      "start": 1.7315,
      "duration": 0.1644,
      "velocity": 97,
      "chip": "ym2612"
    },
    {
      "channel": 2,
      "note": 83,
      "start": 1.7321,
      "duration": 0.3305,
      "velocity": 119,
      "chip": "ym2612"
    },
    {
      "channel": 0,
      "note": 69,
      "start": 1.9128,
      "duration": 0.1507,
      "velocity": 92,
      "chip": "ym2612"
    },
    {
      "channel": 1,
      "note": 47,
      "start": 1.9135,
      "duration": 0.1502,
      "velocity": 97,
      "chip": "ym2612"
    },
    {
      "channel": 0,
      "note": 71,
      "start": 2.0804,
      "duration": 0.3321,
      "velocity": 92,
      "chip": "ym2612"
    },
    {
      "channel": 1,
      "note": 40,
      "start": 2.081,
      "duration": 0.1649,
      "velocity": 97,
      "chip": "ym2612"
    },
    {
      "channel": 2,
      "note": 71,
      "start": 2.0816,
      "duration": 0.1644,
      "velocity": 119,
      "chip": "ym2612"
    },
    {
      "channel": 1,
      "note": 47,
      "start": 2.2629,
      "duration": 0.1532,
      "velocity": 97,
      "chip": "ym2612"
    },
    {
      "channel": 2,
      "note": 71,
      "start": 2.2635,
      "duration": 0.1527,
      "velocity": 119,
      "chip": "ym2612"
    },
    {
      "channel": 1,
      "note": 56,
      "start": 2.4332,
      "duration": 0.1489,
      "velocity": 97,
      "chip": "ym2612"
    },
    {
      "channel": 2,
      "note": 83,
      "start": 2.4338,
      "duration": 0.3159,
      "velocity": 119,
      "chip": "ym2612"
    },
    {
      "channel": 1,
      "note": 47,
      "start": 2.5986,
      "duration": 0.1639,
      "velocity": 97,
      "chip": "ym2612"
    },
    {
      "channel": 0,
      "note": 73,
      "start": 2.7795,
      "duration": 0.1506,
      "velocity": 92,
      "chip": "ym2612"
    },
    {
      "channel": 1,
      "note": 42,
      "start": 2.7801,
      "duration": 0.1501,
      "velocity": 97,
      "chip": "ym2612"
    },
    {
      "channel": 2,
      "note": 73,
      "start": 2.7807,
      "duration": 0.3162,
      "velocity": 119,
      "chip": "ym2612"
    },
    {
      "channel": 0,
      "note": 76,
      "start": 2.9471,
      "duration": 0.1655,
      "velocity": 92,
      "chip": "ym2612"
    },
    {
      "channel": 1,
      "note": 49,
      "start": 2.9477,
      "duration": 0.1649,
      "velocity": 97,
      "chip": "ym2612"
    },
    {
      "channel": 0,
      "note": 73,
      "start": 3.1295,
      "duration": 0.1505,
      "velocity": 92,
      "chip": "ym2612"
    },
    {
      "channel": 1,
      "note": 57,
      "start": 3.1301,
      "duration": 0.1501,
      "velocity": 97,
      "chip": "ym2612"
    },
    {
      "channel": 2,
      "note": 85,
      "start": 3.1308,
      "duration": 0.3161,
      "velocity": 119,
      "chip": "ym2612"
    },
    {
      "channel": 0,
      "note": 71,
      "start": 3.2962,
      "duration": 0.151,
      "velocity": 92,
      "chip": "ym2612"
    },
    {
      "channel": 1,
      "note": 49,
      "start": 3.2968,
      "duration": 0.1505,
      "velocity": 97,
      "chip": "ym2612"
    },
    {
      "channel": 0,
      "note": 73,
      "start": 3.4637,
      "duration": 0.1655,
      "velocity": 92,
      "chip": "ym2612"
    },
    {
      "channel": 1,
      "note": 42,
      "start": 3.4643,
      "duration": 0.165,
      "velocity": 97,
      "chip": "ym2612"
    },
    {
      "channel": 2,
      "note": 73,
      "start": 3.4649,
      "duration": 0.1646,
      "velocity": 119,
      "chip": "ym2612"
    },
    {
      "channel": 0,
      "note": 76,
      "start": 3.6462,
      "duration": 0.1506,
      "velocity": 92,
      "chip": "ym2612"
    },
    {
      "channel": 1,
      "note": 49,
      "start": 3.6468,
      "duration": 0.1501,
      "velocity": 97,
      "chip": "ym2612"
    },
    {
      "channel": 2,
      "note": 73,
      "start": 3.6474,
      "duration": 0.1497,
      "velocity": 119,
      "chip": "ym2612"
    },
    {
      "channel": 0,
      "note": 73,
      "start": 3.8137,
      "duration": 0.1655,
      "velocity": 92,
      "chip": "ym2612"
    },
    {
      "channel": 1,
      "note": 57,
      "start": 3.8144,
      "duration": 0.165,
      "velocity": 97,
      "chip": "ym2612"
    },
    {
      "channel": 2,
      "note": 85,
      "start": 3.8149,
      "duration": 0.331,
      "velocity": 119,
      "chip": "ym2612"
    },
    {
      "channel": 0,
      "note": 71,
      "start": 3.981,
      "duration": 0.1659,
      "velocity": 92,
      "chip": "ym2612"
    },
    {
      "channel": 1,
      "note": 49,
      "start": 3.9815,
      "duration": 0.1655,
      "velocity": 97,
      "chip": "ym2612"
    },
    {
      "channel": 0,
      "note": 73,
      "start": 4.1629,
      "duration": 0.1508,
      "velocity": 92,
      "chip": "ym2612"
    },
    {
      "channel": 1,
      "note": 42,
      "start": 4.1635,
      "duration": 0.1504,
      "velocity": 97,
      "chip": "ym2612"
    },
    {
      "channel": 2,
      "note": 73,
      "start": 4.1641,
      "duration": 0.3161,
      "velocity": 119,
      "chip": "ym2612"
    },
    {
      "channel": 0,
      "note": 76,
      "start": 4.3305,
      "duration": 0.1654,
      "velocity": 92,
      "chip": "ym2612"
    },
    {
      "channel": 1,
      "note": 49,
      "start": 4.331,
      "duration": 0.1649,
      "velocity": 97,
      "chip": "ym2612"
    },
    {
      "channel": 0,
      "note": 78,
      "start": 4.5128,
      "duration": 0.1506,
      "velocity": 92,
      "chip": "ym2612"
    },
    {
      "channel": 1,
      "note": 57,
      "start": 4.5135,
      "duration": 0.1501,
      "velocity": 97,
      "chip": "ym2612"
    },
    {
      "channel": 2,
      "note": 85,
      "start": 4.514,
      "duration": 0.3162,
      "velocity": 119,
      "chip": "ym2612"
    },
    {
      "channel": 0,
      "note": 76,
      "start": 4.6805,
      "duration": 0.1654,
      "velocity": 92,
      "chip": "ym2612"
    },
    {
      "channel": 1,
      "note": 49,
      "start": 4.681,
      "duration": 0.1649,
      "velocity": 97,
      "chip": "ym2612"
    },
    {
      "channel": 0,
      "note": 73,
      "start": 4.8476,
      "duration": 0.3316,
      "velocity": 92,
      "chip": "ym2612"
    },
    {
      "channel": 1,
      "note": 42,
      "start": 4.8482,
      "duration": 0.1653,
      "velocity": 97,
      "chip": "ym2612"
    },
    {
      "channel": 2,
      "note": 73,
      "start": 4.8488,
      "duration": 0.1649,
      "velocity": 119,
      "chip": "ym2612"
    },
    {
      "channel": 1,
      "note": 49,
      "start": 5.0295,
      "duration": 0.1532,
      "velocity": 97,
      "chip": "ym2612"
    },
    {
      "channel": 2,
      "note": 73,
      "start": 5.0302,
      "duration": 0.1527,
      "velocity": 119,
      "chip": "ym2612"
    },
    {
      "channel": 1,
      "note": 57,
      "start": 5.1998,
      "duration": 0.1627,
      "velocity": 97,
      "chip": "ym2612"
    },
    {
      "channel": 2,
      "note": 85,
      "start": 5.2005,
      "duration": 0.3288,
      "velocity": 119,
      "chip": "ym2612"
    },
    {
      "channel": 1,
      "note": 49,
      "start": 5.3795,
      "duration": 0.1532,
      "velocity": 97,
      "chip": "ym2612"
    },
    {
      "channel": 0,
      "note": 71,
      "start": 5.5497,
      "duration": 0.1628,
      "velocity": 92,
      "chip": "ym2612"
    },
    {
      "channel": 1,
      "note": 38,
      "start": 5.5504,
      "duration": 0.1623,
      "velocity": 97,
      "chip": "ym2612"
    },
    {
      "channel": 2,
      "note": 69,
      "start": 5.5512,
      "duration": 0.3127,
      "velocity": 119,
      "chip": "ym2612"
    },
    {
      "channel": 0,
      "note": 73,
      "start": 5.7143,
      "duration": 0.1649,
      "velocity": 92,
      "chip": "ym2612"
    },
    {
      "channel": 1,
      "note": 45,
      "start": 5.7149,
      "duration": 0.1644,
      "velocity": 97,
      "chip": "ym2612"
    },
    {
      "channel": 0,
      "note": 71,
      "start": 5.8962,
      "duration": 0.1506,
      "velocity": 92,
      "chip": "ym2612"
    },
    {
      "channel": 1,
      "note": 54,
      "start": 5.8968,
      "duration": 0.1501,
      "velocity": 97,
      "chip": "ym2612"
    },
    {
      "channel": 2,
      "note": 81,
      "start": 5.8974,
      "duration": 0.3162,
      "velocity": 119,
      "chip": "ym2612"
    },
    {
      "channel": 0,
      "note": 69,
      "start": 6.0637,
      "duration": 0.1655,
      "velocity": 92,
      "chip": "ym2612"
    },
    {
      "channel": 1,
      "note": 45,
      "start": 6.0644,
      "duration": 0.1649,
      "velocity": 97,
      "chip": "ym2612"
    },
    {
      "channel": 0,
      "note": 71,
      "start": 6.2462,
      "duration": 0.1505,
      "velocity": 92,
      "chip": "ym2612"
    },
    {
      "channel": 1,
      "note": 38,
      "start": 6.2468,
      "duration": 0.1501,
      "velocity": 97,
      "chip": "ym2612"
    },
    {
      "channel": 2,
      "note": 69,
      "start": 6.2474,
      "duration": 0.1497,
      "velocity": 119,
      "chip": "ym2612"
    },
    {
      "channel": 0,
      "note": 73,
      "start": 6.4138,
      "duration": 0.1499,
      "velocity": 92,
      "chip": "ym2612"
    },
    {
      "channel": 1,
      "note": 45,
      "start": 6.4144,
      "duration": 0.1495,
      "velocity": 97,
      "chip": "ym2612"
    },
    {
      "channel": 2,
      "note": 69,
      "start": 6.415,
      "duration": 0.149,
      "velocity": 119,
      "chip": "ym2612"
    },
    {
      "channel": 0,
      "note": 71,
      "start": 6.5804,
      "duration": 0.1655,
      "velocity": 92,
      "chip": "ym2612"
    },
    {
      "channel": 1,
      "note": 54,
      "start": 6.581,
      "duration": 0.165,
      "velocity": 97,
      "chip": "ym2612"
    },
    {
      "channel": 2,
      "note": 81,
      "start": 6.5816,
      "duration": 0.331,
      "velocity": 119,
      "chip": "ym2612"
    },
    {
      "channel": 0,
      "note": 69,
      "start": 6.7628,
      "duration": 0.1507,
      "velocity": 92,
      "chip": "ym2612"
    },
    {
      "channel": 1,
      "note": 45,
      "start": 6.7635,
      "duration": 0.1502,
      "velocity": 97,
      "chip": "ym2612"
    },
    {
      "channel": 0,
      "note": 71,
      "start": 6.9304,
      "duration": 0.1655,
      "velocity": 92,
      "chip": "ym2612"
    },
    {
      "channel": 1,
      "note": 40,
      "start": 6.931,
      "duration": 0.165,
      "velocity": 97,
      "chip": "ym2612"
    },
    {
      "channel": 2,
      "note": 71,
      "start": 6.9316,
      "duration": 0.331,
      "velocity": 119,
      "chip": "ym2612"
    },
    {
      "channel": 0,
      "note": 73,
      "start": 7.1129,
      "duration": 0.1506,
      "velocity": 92,
      "chip": "ym2612"
    },
    {
      "channel": 1,
      "note": 47,
      "start": 7.1135,
      "duration": 0.1502,
      "velocity": 97,
      "chip": "ym2612"
    },
    {
      "channel": 0,
      "note": 71,
      "start": 7.2795,
      "duration": 0.1509,
      "velocity": 92,
      "chip": "ym2612"
    },
    {
      "channel": 1,
      "note": 56,
      "start": 7.2801,
      "duration": 0.1504,
      "velocity": 97,
      "chip": "ym2612"
    },
    {
      "channel": 2,
      "note": 83,
      "start": 7.2807,
      "duration": 0.3165,
      "velocity": 119,
      "chip": "ym2612"
    },
    {
      "channel": 0,
      "note": 69,
      "start": 7.4471,
      "duration": 0.1655,
      "velocity": 92,
      "chip": "ym2612"
    },
    {
      "channel": 1,
      "note": 47,
      "start": 7.4477,
      "duration": 0.1649,
      "velocity": 97,
      "chip": "ym2612"
    },
    {
      "channel": 0,
      "note": 71,
      "start": 7.6295,
      "duration": 0.3197,
      "velocity": 92,
      "chip": "ym2612"
    },
    {
      "channel": 1,
      "note": 40,
      "start": 7.6301,
      "duration": 0.15,
      "velocity": 97,
      "chip": "ym2612"
    },
    {
      "channel": 2,
      "note": 71,
      "start": 7.6307,
      "duration": 0.1496,
      "velocity": 119,
      "chip": "ym2612"
    },
    {
      "channel": 1,
      "note": 47,
      "start": 7.7971,
      "duration": 0.1654,
      "velocity": 97,
      "chip": "ym2612"
    },
    {
      "channel": 2,
      "note": 71,
      "start": 7.7978,
      "duration": 0.165,
      "velocity": 119,
      "chip": "ym2612"
    },
    {
      "channel": 1,
      "note": 56,
      "start": 7.967,
      "duration": 0.1647,
      "velocity": 97,
      "chip": "ym2612"
    },
    {
      "channel": 2,
      "note": 83,
      "start": 7.9677,
      "duration": 0.3317,
      "velocity": 119,
      "chip": "ym2612"
    },
    {
      "channel": 1,
      "note": 47,
      "start": 8.1462,
      "duration": 0.1535,
      "velocity": 97,
      "chip": "ym2612"
    },
    {
      "channel": 0,
      "note": 73,
      "start": 8.3163,
      "duration": 0.1629,
      "velocity": 92,
      "chip": "ym2612"
    },
    {
      "channel": 1,
      "note": 42,
      "start": 8.3169,
      "duration": 0.1624,
      "velocity": 97,
      "chip": "ym2612"
    },
    {
      "channel": 2,
      "note": 73,
      "start": 8.3175,
      "duration": 0.3285,
      "velocity": 119,
      "chip": "ym2612"
    },
    {
      "channel": 0,
      "note": 76,
      "start": 8.4962,
      "duration": 0.1507,
      "velocity": 92,
      "chip": "ym2612"
    },
    {
      "channel": 1,
      "note": 49,
      "start": 8.4968,
      "duration": 0.1502,
      "velocity": 97,
      "chip": "ym2612"
    },
    {
      "channel": 0,
      "note": 73,
      "start": 8.6638,
      "duration": 0.1654,
      "velocity": 92,
      "chip": "ym2612"
    },
    {
      "channel": 1,
      "note": 57,
      "start": 8.6644,
      "duration": 0.165,
      "velocity": 97,
      "chip": "ym2612"
    },
    {
      "channel": 2,
      "note": 85,
      "start": 8.665,
      "duration": 0.331,
      "velocity": 119,
      "chip": "ym2612"
    },
    {
      "channel": 0,
      "note": 71,
      "start": 8.831,
      "duration": 0.1659,
      "velocity": 92,
      "chip": "ym2612"
    },
    {
      "channel": 1,
      "note": 49,
      "start": 8.8315,
      "duration": 0.1655,
      "velocity": 97,
      "chip": "ym2612"
    },
    {
      "channel": 0,
      "note": 73,
      "start": 9.0128,
      "duration": 0.1506,
      "velocity": 92,
      "chip": "ym2612"
    },
    {
      "channel": 1,
      "note": 42,
      "start": 9.0134,
      "duration": 0.1502,
      "velocity": 97,
      "chip": "ym2612"
    },
    {
      "channel": 2,
      "note": 73,
      "start": 9.014,
      "duration": 0.1497,
      "velocity": 119,
      "chip": "ym2612"
    },
    {
      "channel": 0,
      "note": 76,
      "start": 9.1804,
      "duration": 0.1655,
      "velocity": 92,
      "chip": "ym2612"
    },
    {
      "channel": 1,
      "note": 49,
      "start": 9.181,
      "duration": 0.165,
      "velocity": 97,
      "chip": "ym2612"
    },
    {
      "channel": 2,
      "note": 73,
      "start": 9.1816,
      "duration": 0.1646,
      "velocity": 119,
      "chip": "ym2612"
    },
    {
      "channel": 0,
      "note": 73,
      "start": 9.3629,
      "duration": 0.1505,
      "velocity": 92,
      "chip": "ym2612"
    },
    {
      "channel": 1,
      "note": 57,
      "start": 9.3635,
      "duration": 0.1501,
      "velocity": 97,
      "chip": "ym2612"
    },
    {
      "channel": 2,
      "note": 85,
      "start": 9.3641,
      "duration": 0.3161,
      "velocity": 119,
      "chip": "ym2612"
    },
    {
      "channel": 0,
      "note": 71,
      "start": 9.5305,
      "duration": 0.1654,
      "velocity": 92,
      "chip": "ym2612"
    },
    {
      "channel": 1,
      "note": 49,
      "start": 9.531,
      "duration": 0.165,
      "velocity": 97,
      "chip": "ym2612"
    },
    {
      "channel": 0,
      "note": 73,
      "start": 9.6977,
      "duration": 0.1648,
      "velocity": 92,
      "chip": "ym2612"
    },
    {
      "channel": 1,
      "note": 42,
      "start": 9.6983,
      "duration": 0.1644,
      "velocity": 97,
      "chip": "ym2612"
    },
    {
      "channel": 2,
      "note": 73,
      "start": 9.6989,
      "duration": 0.3304,
      "velocity": 119,
      "chip": "ym2612"
    },
    {
      "channel": 0,
      "note": 76,
      "start": 9.8795,
      "duration": 0.1507,
      "velocity": 92,
      "chip": "ym2612"
    },
    {
      "channel": 1,
      "note": 49,
      "start": 9.8801,
      "duration": 0.1502,
      "velocity": 97,
      "chip": "ym2612"
    },
    {
      "channel": 0,
      "note": 78,
      "start": 10.0471,
      "duration": 0.1655,
      "velocity": 92,
      "chip": "ym2612"
    },
    {
      "channel": 1,
      "note": 57,
      "start": 10.0477,
      "duration": 0.1649,
      "velocity": 97,
      "chip": "ym2612"
    },
    {
      "channel": 2,
      "note": 85,
      "start": 10.0483,
      "duration": 0.331,
      "velocity": 119,
      "chip": "ym2612"
    },
    {
      "channel": 0,
      "note": 76,
      "start": 10.2295,
      "duration": 0.1506,
      "velocity": 92,
      "chip": "ym2612"
    },
    {
      "channel": 1,
      "note": 49,
      "start": 10.2301,
      "duration": 0.1502,
      "velocity": 97,
      "chip": "ym2612"
    },
    {
      "channel": 0,
      "note": 78,
      "start": 10.3971,
      "duration": 0.3191,
      "velocity": 92,
      "chip": "ym2612"
    },
    {
      "channel": 1,
      "note": 42,
      "start": 10.3977,
      "duration": 0.1495,
      "velocity": 97,
      "chip": "ym2612"
    },
    {
      "channel": 2,
      "note": 73,
      "start": 10.3983,
      "duration": 0.149,
      "velocity": 119,
      "chip": "ym2612"
    },
    {
      "channel": 1,
      "note": 49,
      "start": 10.5638,
      "duration": 0.1654,
      "velocity": 97,
      "chip": "ym2612"
    },
    {
      "channel": 2,
      "note": 73,
      "start": 10.5644,
      "duration": 0.1649,
      "velocity": 119,
      "chip": "ym2612"
    },
    {
      "channel": 1,
      "note": 57,
      "start": 10.7464,
      "duration": 0.1519,
      "velocity": 97,
      "chip": "ym2612"
    },
    {
      "channel": 2,
      "note": 85,
      "start": 10.7471,
      "duration": 0.319,
      "velocity": 119,
      "chip": "ym2612"
    },
    {
      "channel": 1,
      "note": 49,
      "start": 10.9153,
      "duration": 0.1639,
      "velocity": 97,
      "chip": "ym2612"
    },
    {
      "channel": 0,
      "note": 71,
      "start": 11.0862,
      "duration": 0.1606,
      "velocity": 107,
      "chip": "ym2612"
    },
    {
      "channel": 1,
      "note": 38,
      "start": 11.0896,
      "duration": 0.1573,
      "velocity": 105,
      "chip": "ym2612"
    },
    {
      "channel": 2,
      "note": 61,
      "start": 11.0904,
      "duration": 0.3232,
      "velocity": 119,
      "chip": "ym2612"
    },
    {
      "channel": 0,
      "note": 71,
      "start": 11.2628,
      "duration": 0.151,
      "velocity": 107,
      "chip": "ym2612"
    },
    {
      "channel": 1,
      "note": 38,
      "start": 11.2634,
      "duration": 0.1506,
      "velocity": 105,
      "chip": "ym2612"
    },
    {
      "channel": 0,
      "note": 69,
      "start": 11.4304,
      "duration": 0.1655,
      "velocity": 107,
      "chip": "ym2612"
    },
    {
      "channel": 1,
      "note": 38,
      "start": 11.431,
      "duration": 0.165,
      "velocity": 105,
      "chip": "ym2612"
    },
    {
      "channel": 2,
      "note": 73,
      "start": 11.4316,
      "duration": 0.1646,
      "velocity": 119,
      "chip": "ym2612"
    },
    {
      "channel": 0,
      "note": 71,
      "start": 11.6128,
      "duration": 0.1506,
      "velocity": 107,
      "chip": "ym2612"
    },
    {
      "channel": 1,
      "note": 38,
      "start": 11.6134,
      "duration": 0.1502,
      "velocity": 105,
      "chip": "ym2612"
    },
    {
      "channel": 2,
      "note": 61,
      "start": 11.614,
      "duration": 0.1497,
      "velocity": 119,
      "chip": "ym2612"
    },
    {
      "channel": 0,
      "note": 71,
      "start": 11.9474,
      "duration": 0.166,
      "velocity": 107,
      "chip": "ym2612"
    },
    {
      "channel": 1,
      "note": 38,
      "start": 11.948,
      "duration": 0.1656,
      "velocity": 105,
      "chip": "ym2612"
    },
    {
      "channel": 2,
      "note": 61,
      "start": 11.9486,
      "duration": 0.1651,
      "velocity": 119,
      "chip": "ym2612"
    },
    {
      "channel": 0,
      "note": 69,
      "start": 12.1295,
      "duration": 0.3172,
      "velocity": 107,
      "chip": "ym2612"
    },
    {
      "channel": 1,
      "note": 38,
      "start": 12.1301,
      "duration": 0.3168,
      "velocity": 105,
      "chip": "ym2612"
    },
    {
      "channel": 2,
      "note": 73,
      "start": 12.1307,
      "duration": 0.3163,
      "velocity": 119,
      "chip": "ym2612"
    },
    {
      "channel": 0,
      "note": 71,
      "start": 12.4824,
      "duration": 0.1477,
      "velocity": 107,
      "chip": "ym2612"
    },
    {
      "channel": 1,
      "note": 40,
      "start": 12.4829,
      "duration": 0.1473,
      "velocity": 105,
      "chip": "ym2612"
    },
    {
      "channel": 2,
      "note": 59,
      "start": 12.4835,
      "duration": 0.3134,
      "velocity": 119,
      "chip": "ym2612"
    },
    {
      "channel": 0,
      "note": 71,
      "start": 12.6471,
      "duration": 0.1654,
      "velocity": 107,
      "chip": "ym2612"
    },
    {
      "channel": 1,
      "note": 40,
      "start": 12.6477,
      "duration": 0.165,
      "velocity": 105,
      "chip": "ym2612"
    },
    {
      "channel": 0,
      "note": 69,
      "start": 12.8142,
      "duration": 0.165,
      "velocity": 107,
      "chip": "ym2612"
    },
    {
      "channel": 1,
      "note": 40,
      "start": 12.8148,
      "duration": 0.1645,
      "velocity": 105,
      "chip": "ym2612"
    },
    {
      "channel": 2,
      "note": 71,
      "start": 12.8154,
      "duration": 0.1641,
      "velocity": 119,
      "chip": "ym2612"
    },
    {
      "channel": 0,
      "note": 71,
      "start": 12.9962,
      "duration": 0.1506,
      "velocity": 107,
      "chip": "ym2612"
    },
    {
      "channel": 1,
      "note": 40,
      "start": 12.9967,
      "duration": 0.1502,
      "velocity": 105,
      "chip": "ym2612"
    },
    {
      "channel": 2,
      "note": 59,
      "start": 12.9974,
      "duration": 0.1497,
      "velocity": 119,
      "chip": "ym2612"
    },
    {
      "channel": 0,
      "note": 71,
      "start": 13.3462,
      "duration": 0.1505,
      "velocity": 107,
      "chip": "ym2612"
    },
    {
      "channel": 1,
      "note": 40,
      "start": 13.3468,
      "duration": 0.1501,
      "velocity": 105,
      "chip": "ym2612"
    },
    {
      "channel": 2,
      "note": 59,
      "start": 13.3474,
      "duration": 0.1497,
      "velocity": 119,
      "chip": "ym2612"
    },
    {
      "channel": 0,
      "note": 69,
      "start": 13.5138,
      "duration": 0.3166,
      "velocity": 107,
      "chip": "ym2612"
    },
    {
      "channel": 1,
      "note": 40,
      "start": 13.5144,
      "duration": 0.3162,
      "velocity": 105,
      "chip": "ym2612"
    },
    {
      "channel": 2,
      "note": 71,
      "start": 13.515,
      "duration": 0.3157,
      "velocity": 119,
      "chip": "ym2612"
    },
    {
      "channel": 0,
      "note": 71,
      "start": 13.8656,
      "duration": 0.1478,
      "velocity": 107,
      "chip": "ym2612"
    },
    {
      "channel": 1,
      "note": 38,
      "start": 13.8663,
      "duration": 0.1473,
      "velocity": 105,
      "chip": "ym2612"
    },
    {
      "channel": 2,
      "note": 61,
      "start": 13.8671,
      "duration": 0.3132,
      "velocity": 119,
      "chip": "ym2612"
    },
    {
      "channel": 0,
      "note": 71,
      "start": 14.0304,
      "duration": 0.1655,
      "velocity": 107,
      "chip": "ym2612"
    },
    {
      "channel": 1,
      "note": 38,
      "start": 14.031,
      "duration": 0.1649,
      "velocity": 105,
      "chip": "ym2612"
    },
    {
      "channel": 0,
      "note": 69,
      "start": 14.2129,
      "duration": 0.1505,
      "velocity": 107,
      "chip": "ym2612"
    },
    {
      "channel": 1,
      "note": 38,
      "start": 14.2135,
      "duration": 0.1501,
      "velocity": 105,
      "chip": "ym2612"
    },
    {
      "channel": 2,
      "note": 73,
      "start": 14.214,
      "duration": 0.1497,
      "velocity": 119,
      "chip": "ym2612"
    },
    {
      "channel": 0,
      "note": 71,
      "start": 14.3795,
      "duration": 0.1509,
      "velocity": 107,
      "chip": "ym2612"
    },
    {
      "channel": 1,
      "note": 38,
      "start": 14.3801,
      "duration": 0.1505,
      "velocity": 105,
      "chip": "ym2612"
    },
    {
      "channel": 2,
      "note": 61,
      "start": 14.3807,
      "duration": 0.15,
      "velocity": 119,
      "chip": "ym2612"
    },
    {
      "channel": 0,
      "note": 71,
      "start": 14.7295,
      "duration": 0.1506,
      "velocity": 107,
      "chip": "ym2612"
    },
    {
      "channel": 1,
      "note": 38,
      "start": 14.7301,
      "duration": 0.1501,
      "velocity": 105,
      "chip": "ym2612"
    },
    {
      "channel": 2,
      "note": 61,
      "start": 14.7307,
      "duration": 0.1497,
      "velocity": 119,
      "chip": "ym2612"
    },
    {
      "channel": 0,
      "note": 69,
      "start": 14.8971,
      "duration": 0.3321,
      "velocity": 107,
      "chip": "ym2612"
    },
    {
      "channel": 1,
      "note": 38,
      "start": 14.8977,
      "duration": 0.3316,
      "velocity": 105,
      "chip": "ym2612"
    },
    {
      "channel": 2,
      "note": 73,
      "start": 14.8983,
      "duration": 0.3312,
      "velocity": 119,
      "chip": "ym2612"
    },
    {
      "channel": 0,
      "note": 71,
      "start": 15.249,
      "duration": 0.1481,
      "velocity": 107,
      "chip": "ym2612"
    },
    {
      "channel": 1,
      "note": 40,
      "start": 15.2496,
      "duration": 0.1476,
      "velocity": 105,
      "chip": "ym2612"
    },
    {
      "channel": 2,
      "note": 59,
      "start": 15.2502,
      "duration": 0.3134,
      "velocity": 119,
      "chip": "ym2612"
    },
    {
      "channel": 0,
      "note": 71,
      "start": 15.4137,
      "duration": 0.1655,
      "velocity": 107,
      "chip": "ym2612"
    },
    {
      "channel": 1,
      "note": 40,
      "start": 15.4144,
      "duration": 0.1649,
      "velocity": 105,
      "chip": "ym2612"
    },
    {
      "channel": 0,
      "note": 69,
      "start": 15.5962,
      "duration": 0.1506,
      "velocity": 107,
      "chip": "ym2612"
    },
    {
      "channel": 1,
      "note": 40,
      "start": 15.5968,
      "duration": 0.1501,
      "velocity": 105,
      "chip": "ym2612"
    },
    {
      "channel": 2,
      "note": 71,
      "start": 15.5974,
      "duration": 0.1497,
      "velocity": 119,
      "chip": "ym2612"
    },
    {
      "channel": 0,
      "note": 71,
      "start": 15.7638,
      "duration": 0.1654,
      "velocity": 107,
      "chip": "ym2612"
    },
    {
      "channel": 1,
      "note": 40,
      "start": 15.7644,
      "duration": 0.1649,
      "velocity": 105,
      "chip": "ym2612"
    },
    {
      "channel": 2,
      "note": 59,
      "start": 15.7649,
      "duration": 0.1646,
      "velocity": 119,
      "chip": "ym2612"
    },
    {
      "channel": 0,
      "note": 71,
      "start": 16.1128,
      "duration": 0.1506,
      "velocity": 107,
      "chip": "ym2612"
    },
    {
      "channel": 1,
      "note": 40,
      "start": 16.1135,
      "duration": 0.1501,
      "velocity": 105,
      "chip": "ym2612"
    },
    {
      "channel": 2,
      "note": 59,
      "start": 16.114,
      "duration": 0.1497,
      "velocity": 119,
      "chip": "ym2612"
    },
    {
      "channel": 0,
      "note": 69,
      "start": 16.2805,
      "duration": 0.3321,
      "velocity": 107,
      "chip": "ym2612"
    },
    {
      "channel": 1,
      "note": 40,
      "start": 16.281,
      "duration": 0.3316,
      "velocity": 105,
      "chip": "ym2612"
    },
    {
      "channel": 2,
      "note": 71,
      "start": 16.2817,
      "duration": 0.3312,
      "velocity": 119,
      "chip": "ym2612"
    },
    {
      "channel": 0,
      "note": 71,
      "start": 16.6346,
      "duration": 0.1613,
      "velocity": 92,
      "chip": "ym2612"
    },
    {
      "channel": 1,
      "note": 38,
      "start": 16.6383,
      "duration": 0.1577,
      "velocity": 97,
      "chip": "ym2612"
    },
    {
      "channel": 2,
      "note": 69,
      "start": 16.6421,
      "duration": 0.3205,
      "velocity": 119,
      "chip": "ym2612"
    },
    {
      "channel": 0,
      "note": 73,
      "start": 16.7976,
      "duration": 0.1659,
      "velocity": 92,
      "chip": "ym2612"
    },
    {
      "channel": 1,
      "note": 45,
      "start": 16.7982,
      "duration": 0.1655,
      "velocity": 97,
      "chip": "ym2612"
    },
    {
      "channel": 0,
      "note": 71,
      "start": 16.9795,
      "duration": 0.0014,
      "velocity": 92,
      "chip": "ym2612"
    },
    {
      "channel": 1,
      "note": 54,
      "start": 16.9801,
      "duration": 0.0008,
      "velocity": 97,
      "chip": "ym2612"
    },
    {
      "channel": 2,
      "note": 81,
      "start": 16.9807,
      "duration": 0.0002,
      "velocity": 119,
      "chip": "ym2612"
    }
  ]
}