{
  "track_name": "09 - Ending (Good End)",
  "duration_sec": 81.389,
  "sample_rate": 44100,
  "note_count": 1075,
  "unique_pitches": 56,
  "pitch_range": 62,
  "avg_note_duration": 0.1741,
  "reconstruction_stats": {
    "notes_reconstructed": 1075,
    "keyon_events": 1075,
    "keyoff_events": 1075,
    "orphan_keyons": 0,
    "unique_pitches": 56,
    "pitch_range": 62,
    "avg_duration_sec": 0.1741
  },
  "metadata": {
    "source": "M\\Master of Weapon\\09 - Ending (Good End).vgz"
  },
  "notes": [
    {
      "channel": 0,
      "note": 76,
      "start": 0.0563,
      "duration": 0.0678,
      "velocity": 99,
      "chip": "ym2612"
    },
    {
      "channel": 1,
      "note": 71,
      "start": 0.0713,
      "duration": 0.0532,
      "velocity": 99,
      "chip": "ym2612"
    },
    {
      "channel": 4,
      "note": 61,
      "start": 0.0867,
      "duration": 0.0385,
      "velocity": 99,
      "chip": "ym2612"
    },
    {
      "channel": 0,
      "note": 76,
      "start": 0.1777,
      "duration": 0.0492,
      "velocity": 99,
      "chip": "ym2612"
    },
    {
      "channel": 1,
      "note": 71,
      "start": 0.1814,
      "duration": 0.0461,
      "velocity": 99,
      "chip": "ym2612"
    },
    {
      "channel": 4,
      "note": 61,
      "start": 0.1852,
      "duration": 0.0429,
      "velocity": 99,
      "chip": "ym2612"
    },
    {
      "channel": 0,
      "note": 76,
      "start": 0.2805,
      "duration": 0.0493,
      "velocity": 99,
      "chip": "ym2612"
    },
    {
      "channel": 1,
      "note": 71,
      "start": 0.2842,
      "duration": 0.0461,
      "velocity": 99,
      "chip": "ym2612"
    },
    {
      "channel": 4,
      "note": 61,
      "start": 0.288,
      "duration": 0.0429,
      "velocity": 99,
      "chip": "ym2612"
    },
    {
      "channel": 2,
      "note": 43,
      "start": 0.4978,
      "duration": 0.0378,
      "velocity": 110,
      "chip": "ym2612"
    },
    {
      "channel": 2,
      "note": 43,
      "start": 0.5545,
      "duration": 0.0497,
      "velocity": 110,
      "chip": "ym2612"
    },
    {
      "channel": 2,
      "note": 43,
      "start": 0.6231,
      "duration": 0.0498,
      "velocity": 110,
      "chip": "ym2612"
    },
    {
      "channel": 2,
      "note": 40,
      "start": 0.6917,
      "duration": 0.0497,
      "velocity": 110,
      "chip": "ym2612"
    },
    {
      "channel": 2,
      "note": 40,
      "start": 0.7603,
      "duration": 0.0497,
      "velocity": 110,
      "chip": "ym2612"
    },
    {
      "channel": 2,
      "note": 40,
      "start": 0.829,
      "duration": 0.0497,
      "velocity": 110,
      "chip": "ym2612"
    },
    {
      "channel": 2,
      "note": 36,
      "start": 0.8976,
      "duration": 0.0496,
      "velocity": 110,
      "chip": "ym2612"
    },
    {
      "channel": 2,
      "note": 36,
      "start": 0.9661,
      "duration": 0.0497,
      "velocity": 110,
      "chip": "ym2612"
    },
    {
      "channel": 2,
      "note": 36,
      "start": 1.0348,
      "duration": 0.0497,
      "velocity": 110,
      "chip": "ym2612"
    },
    {
      "channel": 2,
      "note": 33,
      "start": 1.1033,
      "duration": 0.084,
      "velocity": 110,
      "chip": "ym2612"
    },
    {
      "channel": 2,
      "note": 33,
      "start": 1.2062,
      "duration": 0.084,
      "velocity": 110,
      "chip": "ym2612"
    },
    {
      "channel": 2,
      "note": 38,
      "start": 1.3206,
      "duration": 0.0724,
      "velocity": 127,
      "chip": "ym2612"
    },
    {
      "channel": 2,
      "note": 38,
      "start": 1.4125,
      "duration": 0.0836,
      "velocity": 127,
      "chip": "ym2612"
    },
    {
      "channel": 2,
      "note": 38,
      "start": 1.5154,
      "duration": 0.0835,
      "velocity": 127,
      "chip": "ym2612"
    },
    {
      "channel": 2,
      "note": 38,
      "start": 1.6183,
      "duration": 0.0835,
      "velocity": 127,
      "chip": "ym2612"
    },
    {
      "channel": 0,
      "note": 54,
      "start": 1.7325,
      "duration": 0.3954,
      "velocity": 107,
      "chip": "ym2612"
    },
    {
      "channel": 1,
      "note": 66,
      "start": 1.749,
      "duration": 0.1903,
      "velocity": 109,
      "chip": "ym2612"
    },
    {
      "channel": 2,
      "note": 23,
      "start": 1.7641,
      "duration": 0.3296,
      "velocity": 126,
      "chip": "ym2612"
    },
    {
      "channel": 1,
      "note": 69,
      "start": 1.9581,
      "duration": 0.1869,
      "velocity": 109,
      "chip": "ym2612"
    },
    {
      "channel": 1,
      "note": 68,
      "start": 2.1643,
      "duration": 0.1894,
      "velocity": 109,
      "chip": "ym2612"
    },
    {
      "channel": 2,
      "note": 55,
      "start": 2.1791,
      "duration": 0.3291,
      "velocity": 127,
      "chip": "ym2612"
    },
    {
      "channel": 1,
      "note": 71,
      "start": 2.3727,
      "duration": 0.1868,
      "velocity": 109,
      "chip": "ym2612"
    },
    {
      "channel": 1,
      "note": 69,
      "start": 2.5785,
      "duration": 0.1868,
      "velocity": 109,
      "chip": "ym2612"
    },
    {
      "channel": 2,
      "note": 55,
      "start": 2.5821,
      "duration": 0.3376,
      "velocity": 127,
      "chip": "ym2612"
    },
    {
      "channel": 1,
      "note": 73,
      "start": 2.7842,
      "duration": 0.1868,
      "velocity": 109,
      "chip": "ym2612"
    },
    {
      "channel": 1,
      "note": 71,
      "start": 2.9899,
      "duration": 0.1868,
      "velocity": 109,
      "chip": "ym2612"
    },
    {
      "channel": 2,
      "note": 55,
      "start": 2.9936,
      "duration": 0.3376,
      "velocity": 127,
      "chip": "ym2612"
    },
    {
      "channel": 1,
      "note": 68,
      "start": 3.1957,
      "duration": 0.1868,
      "velocity": 109,
      "chip": "ym2612"
    },
    {
      "channel": 1,
      "note": 69,
      "start": 3.4019,
      "duration": 0.1864,
      "velocity": 109,
      "chip": "ym2612"
    },
    {
      "channel": 2,
      "note": 55,
      "start": 3.4056,
      "duration": 0.3371,
      "velocity": 127,
      "chip": "ym2612"
    },
    {
      "channel": 1,
      "note": 66,
      "start": 3.6071,
      "duration": 0.1868,
      "velocity": 109,
      "chip": "ym2612"
    },
    {
      "channel": 1,
      "note": 68,
      "start": 3.8129,
      "duration": 0.1868,
      "velocity": 109,
      "chip": "ym2612"
    },
    {
      "channel": 2,
      "note": 55,
      "start": 3.8166,
      "duration": 0.3376,
      "velocity": 127,
      "chip": "ym2612"
    },
    {
      "channel": 1,
      "note": 61,
      "start": 4.0187,
      "duration": 0.1868,
      "velocity": 109,
      "chip": "ym2612"
    },
    {
      "channel": 1,
      "note": 64,
      "start": 4.2244,
      "duration": 0.187,
      "velocity": 109,
      "chip": "ym2612"
    },
    {
      "channel": 2,
      "note": 55,
      "start": 4.2281,
      "duration": 0.3376,
      "velocity": 127,
      "chip": "ym2612"
    },
    {
      "channel": 1,
      "note": 69,
      "start": 4.4302,
      "duration": 0.1868,
      "velocity": 109,
      "chip": "ym2612"
    },
    {
      "channel": 1,
      "note": 68,
      "start": 4.636,
      "duration": 0.1868,
      "velocity": 109,
      "chip": "ym2612"
    },
    {
      "channel": 2,
      "note": 55,
      "start": 4.6397,
      "duration": 0.1661,
      "velocity": 127,
      "chip": "ym2612"
    },
    {
      "channel": 0,
      "note": 52,
      "start": 4.842,
      "duration": 0.1927,
      "velocity": 107,
      "chip": "ym2612"
    },
    {
      "channel": 1,
      "note": 71,
      "start": 4.8453,
      "duration": 0.1899,
      "velocity": 109,
      "chip": "ym2612"
    },
    {
      "channel": 2,
      "note": 23,
      "start": 4.8599,
      "duration": 0.1578,
      "velocity": 126,
      "chip": "ym2612"
    },
    {
      "channel": 0,
      "note": 54,
      "start": 5.054,
      "duration": 0.3751,
      "velocity": 107,
      "chip": "ym2612"
    },
    {
      "channel": 1,
      "note": 66,
      "start": 5.0572,
      "duration": 0.1833,
      "velocity": 109,
      "chip": "ym2612"
    },
    {
      "channel": 2,
      "note": 23,
      "start": 5.0609,
      "duration": 0.1625,
      "velocity": 126,
      "chip": "ym2612"
    },
    {
      "channel": 1,
      "note": 69,
      "start": 5.2594,
      "duration": 0.1869,
      "velocity": 109,
      "chip": "ym2612"
    },
    {
      "channel": 1,
      "note": 68,
      "start": 5.4656,
      "duration": 0.1894,
      "velocity": 109,
      "chip": "ym2612"
    },
    {
      "channel": 2,
      "note": 55,
      "start": 5.4803,
      "duration": 0.3291,
      "velocity": 127,
      "chip": "ym2612"
    },
    {
      "channel": 1,
      "note": 71,
      "start": 5.6739,
      "duration": 0.1868,
      "velocity": 109,
      "chip": "ym2612"
    },
    {
      "channel": 1,
      "note": 69,
      "start": 5.8796,
      "duration": 0.187,
      "velocity": 109,
      "chip": "ym2612"
    },
    {
      "channel": 2,
      "note": 55,
      "start": 5.8833,
      "duration": 0.3377,
      "velocity": 127,
      "chip": "ym2612"
    },
    {
      "channel": 1,
      "note": 73,
      "start": 6.0854,
      "duration": 0.1868,
      "velocity": 109,
      "chip": "ym2612"
    },
    {
      "channel": 1,
      "note": 71,
      "start": 6.2912,
      "duration": 0.1869,
      "velocity": 109,
      "chip": "ym2612"
    },
    {
      "channel": 2,
      "note": 55,
      "start": 6.2949,
      "duration": 0.3376,
      "velocity": 127,
      "chip": "ym2612"
    },
    {
      "channel": 1,
      "note": 68,
      "start": 6.497,
      "duration": 0.1868,
      "velocity": 109,
      "chip": "ym2612"
    },
    {
      "channel": 1,
      "note": 69,
      "start": 6.7027,
      "duration": 0.1894,
      "velocity": 109,
      "chip": "ym2612"
    },
    {
      "channel": 2,
      "note": 55,
      "start": 6.7174,
      "duration": 0.3292,
      "velocity": 127,
      "chip": "ym2612"
    },
    {
      "channel": 1,
      "note": 66,
      "start": 6.911,
      "duration": 0.1869,
      "velocity": 109,
      "chip": "ym2612"
    },
    {
      "channel": 1,
      "note": 68,
      "start": 7.1169,
      "duration": 0.1868,
      "velocity": 109,
      "chip": "ym2612"
    },
    {
      "channel": 2,
      "note": 55,
      "start": 7.1205,
      "duration": 0.3376,
      "velocity": 127,
      "chip": "ym2612"
    },
    {
      "channel": 1,
      "note": 61,
      "start": 7.3226,
      "duration": 0.1868,
      "velocity": 109,
      "chip": "ym2612"
    },
    {
      "channel": 1,
      "note": 64,
      "start": 7.5284,
      "duration": 0.1868,
      "velocity": 109,
      "chip": "ym2612"
    },
    {
      "channel": 2,
      "note": 55,
      "start": 7.532,
      "duration": 0.3375,
      "velocity": 127,
      "chip": "ym2612"
    },
    {
      "channel": 1,
      "note": 69,
      "start": 7.7341,
      "duration": 0.1868,
      "velocity": 109,
      "chip": "ym2612"
    },
    {
      "channel": 1,
      "note": 68,
      "start": 7.9398,
      "duration": 0.1868,
      "velocity": 109,
      "chip": "ym2612"
    },
    {
      "channel": 2,
      "note": 55,
      "start": 7.9435,
      "duration": 0.1661,
      "velocity": 127,
      "chip": "ym2612"
    },
    {
      "channel": 0,
      "note": 54,
      "start": 8.1458,
      "duration": 0.1926,
      "velocity": 107,
      "chip": "ym2612"
    },
    {
      "channel": 1,
      "note": 71,
      "start": 8.1491,
      "duration": 0.1899,
      "velocity": 109,
      "chip": "ym2612"
    },
    {
      "channel": 2,
      "note": 23,
      "start": 8.1638,
      "duration": 0.1576,
      "velocity": 126,
      "chip": "ym2612"
    },
    {
      "channel": 0,
      "note": 35,
      "start": 8.3683,
      "duration": 3.0676,
      "velocity": 108,
      "chip": "ym2612"
    },
    {
      "channel": 1,
      "note": 66,
      "start": 8.3715,
      "duration": 0.1784,
      "velocity": 109,
      "chip": "ym2612"
    },
    {
      "channel": 2,
      "note": 23,
      "start": 8.3752,
      "duration": 0.1577,
      "velocity": 126,
      "chip": "ym2612"
    },
    {
      "channel": 1,
      "note": 69,
      "start": 8.5688,
      "duration": 0.1868,
      "velocity": 109,
      "chip": "ym2612"
    },
    {
      "channel": 1,
      "note": 68,
      "start": 8.7746,
      "duration": 0.1896,
      "velocity": 109,
      "chip": "ym2612"
    },
    {
      "channel": 2,
      "note": 55,
      "start": 8.7893,
      "duration": 0.3292,
      "velocity": 127,
      "chip": "ym2612"
    },
    {
      "channel": 1,
      "note": 71,
      "start": 8.983,
      "duration": 0.1869,
      "velocity": 109,
      "chip": "ym2612"
    },
    {
      "channel": 1,
      "note": 69,
      "start": 9.1887,
      "duration": 0.1869,
      "velocity": 109,
      "chip": "ym2612"
    },
    {
      "channel": 2,
      "note": 55,
      "start": 9.1924,
      "duration": 0.3377,
      "velocity": 127,
      "chip": "ym2612"
    },
    {
      "channel": 1,
      "note": 73,
      "start": 9.3945,
      "duration": 0.1869,
      "velocity": 109,
      "chip": "ym2612"
    },
    {
      "channel": 1,
      "note": 71,
      "start": 9.6003,
      "duration": 0.1869,
      "velocity": 109,
      "chip": "ym2612"
    },
    {
      "channel": 2,
      "note": 55,
      "start": 9.604,
      "duration": 0.3375,
      "velocity": 127,
      "chip": "ym2612"
    },
    {
      "channel": 1,
      "note": 68,
      "start": 9.806,
      "duration": 0.1868,
      "velocity": 109,
      "chip": "ym2612"
    },
    {
      "channel": 1,
      "note": 69,
      "start": 10.0118,
      "duration": 0.1896,
      "velocity": 109,
      "chip": "ym2612"
    },
    {
      "channel": 2,
      "note": 55,
      "start": 10.0264,
      "duration": 0.3294,
      "velocity": 127,
      "chip": "ym2612"
    },
    {
      "channel": 1,
      "note": 66,
      "start": 10.2203,
      "duration": 0.1868,
      "velocity": 109,
      "chip": "ym2612"
    },
    {
      "channel": 1,
      "note": 68,
      "start": 10.426,
      "duration": 0.1869,
      "velocity": 109,
      "chip": "ym2612"
    },
    {
      "channel": 2,
      "note": 55,
      "start": 10.4297,
      "duration": 0.3376,
      "velocity": 127,
      "chip": "ym2612"
    },
    {
      "channel": 1,
      "note": 61,
      "start": 10.6318,
      "duration": 0.1868,
      "velocity": 109,
      "chip": "ym2612"
    },
    {
      "channel": 1,
      "note": 64,
      "start": 10.8375,
      "duration": 0.1869,
      "velocity": 109,
      "chip": "ym2612"
    },
    {
      "channel": 2,
      "note": 55,
      "start": 10.8412,
      "duration": 0.3377,
      "velocity": 127,
      "chip": "ym2612"
    },
    {
      "channel": 1,
      "note": 69,
      "start": 11.0433,
      "duration": 0.1869,
      "velocity": 109,
      "chip": "ym2612"
    },
    {
      "channel": 1,
      "note": 68,
      "start": 11.2491,
      "duration": 0.1873,
      "velocity": 109,
      "chip": "ym2612"
    },
    {
      "channel": 2,
      "note": 55,
      "start": 11.2527,
      "duration": 0.1661,
      "velocity": 127,
      "chip": "ym2612"
    },
    {
      "channel": 1,
      "note": 71,
      "start": 11.4548,
      "duration": 0.1894,
      "velocity": 109,
      "chip": "ym2612"
    },
    {
      "channel": 2,
      "note": 23,
      "start": 11.4695,
      "duration": 0.1576,
      "velocity": 126,
      "chip": "ym2612"
    },
    {
      "channel": 0,
      "note": 37,
      "start": 11.6625,
      "duration": 3.0753,
      "velocity": 108,
      "chip": "ym2612"
    },
    {
      "channel": 1,
      "note": 73,
      "start": 11.6658,
      "duration": 0.1841,
      "velocity": 109,
      "chip": "ym2612"
    },
    {
      "channel": 2,
      "note": 23,
      "start": 11.6695,
      "duration": 0.1634,
      "velocity": 126,
      "chip": "ym2612"
    },
    {
      "channel": 1,
      "note": 76,
      "start": 11.8688,
      "duration": 0.1868,
      "velocity": 109,
      "chip": "ym2612"
    },
    {
      "channel": 1,
      "note": 75,
      "start": 12.0746,
      "duration": 0.1896,
      "velocity": 109,
      "chip": "ym2612"
    },
    {
      "channel": 2,
      "note": 55,
      "start": 12.0893,
      "duration": 0.3292,
      "velocity": 127,
      "chip": "ym2612"
    },
    {
      "channel": 1,
      "note": 78,
      "start": 12.283,
      "duration": 0.1869,
      "velocity": 109,
      "chip": "ym2612"
    },
    {
      "channel": 1,
      "note": 76,
      "start": 12.4887,
      "duration": 0.1869,
      "velocity": 109,
      "chip": "ym2612"
    },
    {
      "channel": 2,
      "note": 55,
      "start": 12.4924,
      "duration": 0.3377,
      "velocity": 127,
      "chip": "ym2612"
    },
    {
      "channel": 1,
      "note": 80,
      "start": 12.6945,
      "duration": 0.1869,
      "velocity": 109,
      "chip": "ym2612"
    },
    {
      "channel": 1,
      "note": 78,
      "start": 12.9003,
      "duration": 0.1869,
      "velocity": 109,
      "chip": "ym2612"
    },
    {
      "channel": 2,
      "note": 55,
      "start": 12.904,
      "duration": 0.3375,
      "velocity": 127,
      "chip": "ym2612"
    },
    {
      "channel": 1,
      "note": 75,
      "start": 13.106,
      "duration": 0.1868,
      "velocity": 109,
      "chip": "ym2612"
    },
    {
      "channel": 1,
      "note": 76,
      "start": 13.3118,
      "duration": 0.1894,
      "velocity": 109,
      "chip": "ym2612"
    },
    {
      "channel": 2,
      "note": 23,
      "start": 13.3264,
      "duration": 0.3292,
      "velocity": 126,
      "chip": "ym2612"
    },
    {
      "channel": 1,
      "note": 73,
      "start": 13.5201,
      "duration": 0.1868,
      "velocity": 109,
      "chip": "ym2612"
    },
    {
      "channel": 1,
      "note": 75,
      "start": 13.7259,
      "duration": 0.189,
      "velocity": 109,
      "chip": "ym2612"
    },
    {
      "channel": 2,
      "note": 40,
      "start": 13.7401,
      "duration": 0.3292,
      "velocity": 110,
      "chip": "ym2612"
    },
    {
      "channel": 1,
      "note": 68,
      "start": 13.9338,
      "duration": 0.1868,
      "velocity": 109,
      "chip": "ym2612"
    },
    {
      "channel": 1,
      "note": 71,
      "start": 14.1395,
      "duration": 0.1869,
      "velocity": 109,
      "chip": "ym2612"
    },
    {
      "channel": 2,
      "note": 38,
      "start": 14.1427,
      "duration": 0.0809,
      "velocity": 110,
      "chip": "ym2612"
    },
    {
      "channel": 2,
      "note": 38,
      "start": 14.2424,
      "duration": 0.0844,
      "velocity": 110,
      "chip": "ym2612"
    },
    {
      "channel": 1,
      "note": 76,
      "start": 14.3453,
      "duration": 0.1869,
      "velocity": 109,
      "chip": "ym2612"
    },
    {
      "channel": 1,
      "note": 75,
      "start": 14.5511,
      "duration": 0.1873,
      "velocity": 109,
      "chip": "ym2612"
    },
    {
      "channel": 2,
      "note": 38,
      "start": 14.5543,
      "duration": 0.0808,
      "velocity": 110,
      "chip": "ym2612"
    },
    {
      "channel": 2,
      "note": 38,
      "start": 14.654,
      "duration": 0.0849,
      "velocity": 110,
      "chip": "ym2612"
    },
    {
      "channel": 1,
      "note": 78,
      "start": 14.7568,
      "duration": 0.1894,
      "velocity": 109,
      "chip": "ym2612"
    },
    {
      "channel": 2,
      "note": 38,
      "start": 14.7715,
      "duration": 0.1577,
      "velocity": 127,
      "chip": "ym2612"
    },
    {
      "channel": 0,
      "note": 49,
      "start": 14.9793,
      "duration": 0.2968,
      "velocity": 107,
      "chip": "ym2612"
    },
    {
      "channel": 1,
      "note": 73,
      "start": 14.9843,
      "duration": 0.189,
      "velocity": 109,
      "chip": "ym2612"
    },
    {
      "channel": 2,
      "note": 38,
      "start": 14.9985,
      "duration": 0.3291,
      "velocity": 110,
      "chip": "ym2612"
    },
    {
      "channel": 1,
      "note": 76,
      "start": 15.1921,
      "duration": 0.1869,
      "velocity": 109,
      "chip": "ym2612"
    },
    {
      "channel": 0,
      "note": 51,
      "start": 15.3983,
      "duration": 0.2893,
      "velocity": 107,
      "chip": "ym2612"
    },
    {
      "channel": 1,
      "note": 75,
      "start": 15.4015,
      "duration": 0.1833,
      "velocity": 109,
      "chip": "ym2612"
    },
    {
      "channel": 2,
      "note": 38,
      "start": 15.4048,
      "duration": 0.3344,
      "velocity": 110,
      "chip": "ym2612"
    },
    {
      "channel": 1,
      "note": 78,
      "start": 15.6037,
      "duration": 0.1868,
      "velocity": 109,
      "chip": "ym2612"
    },
    {
      "channel": 0,
      "note": 52,
      "start": 15.8098,
      "duration": 0.2894,
      "velocity": 107,
      "chip": "ym2612"
    },
    {
      "channel": 1,
      "note": 76,
      "start": 15.8131,
      "duration": 0.1833,
      "velocity": 109,
      "chip": "ym2612"
    },
    {
      "channel": 2,
      "note": 38,
      "start": 15.8163,
      "duration": 0.3344,
      "velocity": 110,
      "chip": "ym2612"
    },
    {
      "channel": 1,
      "note": 80,
      "start": 16.0152,
      "duration": 0.1868,
      "velocity": 109,
      "chip": "ym2612"
    },
    {
      "channel": 1,
      "note": 78,
      "start": 16.2214,
      "duration": 0.1894,
      "velocity": 109,
      "chip": "ym2612"
    },
    {
      "channel": 2,
      "note": 31,
      "start": 16.2361,
      "duration": 0.072,
      "velocity": 127,
      "chip": "ym2612"
    },
    {
      "channel": 2,
      "note": 31,
      "start": 16.3274,
      "duration": 0.084,
      "velocity": 127,
      "chip": "ym2612"
    },
    {
      "channel": 0,
      "note": 51,
      "start": 16.43,
      "duration": 0.1407,
      "velocity": 107,
      "chip": "ym2612"
    },
    {
      "channel": 1,
      "note": 75,
      "start": 16.4333,
      "duration": 0.1889,
      "velocity": 109,
      "chip": "ym2612"
    },
    {
      "channel": 2,
      "note": 31,
      "start": 16.4475,
      "duration": 0.1577,
      "velocity": 110,
      "chip": "ym2612"
    },
    {
      "channel": 1,
      "note": 76,
      "start": 16.6416,
      "duration": 0.1864,
      "velocity": 109,
      "chip": "ym2612"
    },
    {
      "channel": 0,
      "note": 49,
      "start": 16.8472,
      "duration": 0.2893,
      "velocity": 107,
      "chip": "ym2612"
    },
    {
      "channel": 1,
      "note": 73,
      "start": 16.8505,
      "duration": 0.1833,
      "velocity": 109,
      "chip": "ym2612"
    },
    {
      "channel": 2,
      "note": 38,
      "start": 16.8537,
      "duration": 0.3345,
      "velocity": 110,
      "chip": "ym2612"
    },
    {
      "channel": 1,
      "note": 75,
      "start": 17.0526,
      "duration": 0.1868,
      "velocity": 109,
      "chip": "ym2612"
    },
    {
      "channel": 0,
      "note": 44,
      "start": 17.2587,
      "duration": 0.135,
      "velocity": 107,
      "chip": "ym2612"
    },
    {
      "channel": 1,
      "note": 68,
      "start": 17.262,
      "duration": 0.1832,
      "velocity": 109,
      "chip": "ym2612"
    },
    {
      "channel": 2,
      "note": 38,
      "start": 17.2651,
      "duration": 0.1631,
      "velocity": 110,
      "chip": "ym2612"
    },
    {
      "channel": 0,
      "note": 47,
      "start": 17.4645,
      "duration": 0.2893,
      "velocity": 107,
      "chip": "ym2612"
    },
    {
      "channel": 1,
      "note": 71,
      "start": 17.4677,
      "duration": 0.1833,
      "velocity": 109,
      "chip": "ym2612"
    },
    {
      "channel": 2,
      "note": 38,
      "start": 17.471,
      "duration": 0.3344,
      "velocity": 110,
      "chip": "ym2612"
    },
    {
      "channel": 1,
      "note": 76,
      "start": 17.6699,
      "duration": 0.1868,
      "velocity": 109,
      "chip": "ym2612"
    },
    {
      "channel": 0,
      "note": 51,
      "start": 17.8759,
      "duration": 0.2894,
      "velocity": 107,
      "chip": "ym2612"
    },
    {
      "channel": 1,
      "note": 75,
      "start": 17.8792,
      "duration": 0.1833,
      "velocity": 109,
      "chip": "ym2612"
    },
    {
      "channel": 2,
      "note": 38,
      "start": 17.8824,
      "duration": 0.3345,
      "velocity": 110,
      "chip": "ym2612"
    },
    {
      "channel": 1,
      "note": 78,
      "start": 18.0814,
      "duration": 0.1868,
      "velocity": 109,
      "chip": "ym2612"
    },
    {
      "channel": 0,
      "note": 49,
      "start": 18.2874,
      "duration": 0.9092,
      "velocity": 107,
      "chip": "ym2612"
    },
    {
      "channel": 1,
      "note": 73,
      "start": 18.2925,
      "duration": 0.1814,
      "velocity": 109,
      "chip": "ym2612"
    },
    {
      "channel": 2,
      "note": 38,
      "start": 18.2958,
      "duration": 0.3326,
      "velocity": 110,
      "chip": "ym2612"
    },
    {
      "channel": 1,
      "note": 76,
      "start": 18.4928,
      "duration": 0.187,
      "velocity": 109,
      "chip": "ym2612"
    },
    {
      "channel": 1,
      "note": 75,
      "start": 18.6986,
      "duration": 0.1894,
      "velocity": 109,
      "chip": "ym2612"
    },
    {
      "channel": 2,
      "note": 43,
      "start": 18.7133,
      "duration": 0.3291,
      "velocity": 127,
      "chip": "ym2612"
    },
    {
      "channel": 1,
      "note": 78,
      "start": 18.9069,
      "duration": 0.1869,
      "velocity": 109,
      "chip": "ym2612"
    },
    {
      "channel": 1,
      "note": 76,
      "start": 19.1127,
      "duration": 0.1868,
      "velocity": 109,
      "chip": "ym2612"
    },
    {
      "channel": 2,
      "note": 43,
      "start": 19.1164,
      "duration": 0.3375,
      "velocity": 127,
      "chip": "ym2612"
    },
    {
      "channel": 1,
      "note": 80,
      "start": 19.3184,
      "duration": 0.1869,
      "velocity": 109,
      "chip": "ym2612"
    },
    {
      "channel": 0,
      "note": 48,
      "start": 19.5245,
      "duration": 0.295,
      "velocity": 107,
      "chip": "ym2612"
    },
    {
      "channel": 1,
      "note": 81,
      "start": 19.5278,
      "duration": 0.189,
      "velocity": 109,
      "chip": "ym2612"
    },
    {
      "channel": 2,
      "note": 38,
      "start": 19.542,
      "duration": 0.3291,
      "velocity": 110,
      "chip": "ym2612"
    },
    {
      "channel": 1,
      "note": 78,
      "start": 19.7356,
      "duration": 0.1868,
      "velocity": 109,
      "chip": "ym2612"
    },
    {
      "channel": 0,
      "note": 47,
      "start": 19.9417,
      "duration": 0.4437,
      "velocity": 107,
      "chip": "ym2612"
    },
    {
      "channel": 1,
      "note": 74,
      "start": 19.945,
      "duration": 0.1833,
      "velocity": 109,
      "chip": "ym2612"
    },
    {
      "channel": 2,
      "note": 38,
      "start": 19.9482,
      "duration": 0.3345,
      "velocity": 110,
      "chip": "ym2612"
    },
    {
      "channel": 1,
      "note": 79,
      "start": 20.1472,
      "duration": 0.1868,
      "velocity": 109,
      "chip": "ym2612"
    },
    {
      "channel": 1,
      "note": 80,
      "start": 20.3529,
      "duration": 0.1868,
      "velocity": 109,
      "chip": "ym2612"
    },
    {
      "channel": 2,
      "note": 42,
      "start": 20.3561,
      "duration": 0.0465,
      "velocity": 110,
      "chip": "ym2612"
    },
    {
      "channel": 2,
      "note": 42,
      "start": 20.4215,
      "duration": 0.0498,
      "velocity": 110,
      "chip": "ym2612"
    },
    {
      "channel": 2,
      "note": 42,
      "start": 20.4902,
      "duration": 0.0501,
      "velocity": 110,
      "chip": "ym2612"
    },
    {
      "channel": 0,
      "note": 45,
      "start": 20.559,
      "duration": 0.1382,
      "velocity": 107,
      "chip": "ym2612"
    },
    {
      "channel": 1,
      "note": 73,
      "start": 20.5623,
      "duration": 0.1833,
      "velocity": 109,
      "chip": "ym2612"
    },
    {
      "channel": 2,
      "note": 38,
      "start": 20.5655,
      "duration": 0.0429,
      "velocity": 110,
      "chip": "ym2612"
    },
    {
      "channel": 2,
      "note": 38,
      "start": 20.6273,
      "duration": 0.0498,
      "velocity": 110,
      "chip": "ym2612"
    },
    {
      "channel": 2,
      "note": 38,
      "start": 20.6959,
      "duration": 0.0501,
      "velocity": 110,
      "chip": "ym2612"
    },
    {
      "channel": 0,
      "note": 74,
      "start": 20.7785,
      "duration": 0.1721,
      "velocity": 99,
      "chip": "ym2612"
    },
    {
      "channel": 1,
      "note": 49,
      "start": 20.7955,
      "duration": 0.1894,
      "velocity": 107,
      "chip": "ym2612"
    },
    {
      "channel": 2,
      "note": 38,
      "start": 20.8102,
      "duration": 0.2091,
      "velocity": 127,
      "chip": "ym2612"
    },
    {
      "channel": 0,
      "note": 80,
      "start": 21.0728,
      "duration": 0.1522,
      "velocity": 99,
      "chip": "ym2612"
    },
    {
      "channel": 1,
      "note": 47,
      "start": 21.0765,
      "duration": 0.1828,
      "velocity": 107,
      "chip": "ym2612"
    },
    {
      "channel": 2,
      "note": 38,
      "start": 21.0802,
      "duration": 0.2134,
      "velocity": 127,
      "chip": "ym2612"
    },
    {
      "channel": 0,
      "note": 83,
      "start": 21.3472,
      "duration": 0.1522,
      "velocity": 99,
      "chip": "ym2612"
    },
    {
      "channel": 1,
      "note": 45,
      "start": 21.3508,
      "duration": 0.1828,
      "velocity": 107,
      "chip": "ym2612"
    },
    {
      "channel": 2,
      "note": 38,
      "start": 21.3545,
      "duration": 0.2135,
      "velocity": 127,
      "chip": "ym2612"
    },
    {
      "channel": 0,
      "note": 73,
      "start": 21.6241,
      "duration": 0.9159,
      "velocity": 99,
      "chip": "ym2612"
    },
    {
      "channel": 1,
      "note": 42,
      "start": 21.6279,
      "duration": 0.2924,
      "velocity": 107,
      "chip": "ym2612"
    },
    {
      "channel": 2,
      "note": 23,
      "start": 21.6426,
      "duration": 0.072,
      "velocity": 126,
      "chip": "ym2612"
    },
    {
      "channel": 2,
      "note": 50,
      "start": 21.745,
      "duration": 0.0724,
      "velocity": 127,
      "chip": "ym2612"
    },
    {
      "channel": 2,
      "note": 50,
      "start": 21.8368,
      "duration": 0.084,
      "velocity": 127,
      "chip": "ym2612"
    },
    {
      "channel": 2,
      "note": 50,
      "start": 21.9397,
      "duration": 0.0835,
      "velocity": 127,
      "chip": "ym2612"
    },
    {
      "channel": 1,
      "note": 40,
      "start": 22.0424,
      "duration": 0.1377,
      "velocity": 107,
      "chip": "ym2612"
    },
    {
      "channel": 2,
      "note": 43,
      "start": 22.0567,
      "duration": 0.072,
      "velocity": 110,
      "chip": "ym2612"
    },
    {
      "channel": 2,
      "note": 50,
      "start": 22.159,
      "duration": 0.0725,
      "velocity": 127,
      "chip": "ym2612"
    },
    {
      "channel": 1,
      "note": 42,
      "start": 22.2508,
      "duration": 0.2897,
      "velocity": 107,
      "chip": "ym2612"
    },
    {
      "channel": 2,
      "note": 50,
      "start": 22.2545,
      "duration": 0.08,
      "velocity": 127,
      "chip": "ym2612"
    },
    {
      "channel": 2,
      "note": 50,
      "start": 22.3538,
      "duration": 0.0835,
      "velocity": 127,
      "chip": "ym2612"
    },
    {
      "channel": 2,
      "note": 23,
      "start": 22.4677,
      "duration": 0.0733,
      "velocity": 126,
      "chip": "ym2612"
    },
    {
      "channel": 2,
      "note": 50,
      "start": 22.5705,
      "duration": 0.0724,
      "velocity": 127,
      "chip": "ym2612"
    },
    {
      "channel": 1,
      "note": 42,
      "start": 22.6623,
      "duration": 0.135,
      "velocity": 107,
      "chip": "ym2612"
    },
    {
      "channel": 2,
      "note": 50,
      "start": 22.666,
      "duration": 0.08,
      "velocity": 127,
      "chip": "ym2612"
    },
    {
      "channel": 2,
      "note": 50,
      "start": 22.7653,
      "duration": 0.0835,
      "velocity": 127,
      "chip": "ym2612"
    },
    {
      "channel": 0,
      "note": 73,
      "start": 22.868,
      "duration": 0.0726,
      "velocity": 99,
      "chip": "ym2612"
    },
    {
      "channel": 1,
      "note": 44,
      "start": 22.8717,
      "duration": 0.1407,
      "velocity": 107,
      "chip": "ym2612"
    },
    {
      "channel": 2,
      "note": 43,
      "start": 22.8859,
      "duration": 0.072,
      "velocity": 110,
      "chip": "ym2612"
    },
    {
      "channel": 0,
      "note": 71,
      "start": 22.977,
      "duration": 0.1381,
      "velocity": 99,
      "chip": "ym2612"
    },
    {
      "channel": 2,
      "note": 50,
      "start": 22.9918,
      "duration": 0.072,
      "velocity": 127,
      "chip": "ym2612"
    },
    {
      "channel": 1,
      "note": 45,
      "start": 23.0831,
      "duration": 0.135,
      "velocity": 107,
      "chip": "ym2612"
    },
    {
      "channel": 2,
      "note": 50,
      "start": 23.0867,
      "duration": 0.08,
      "velocity": 127,
      "chip": "ym2612"
    },
    {
      "channel": 0,
      "note": 69,
      "start": 23.1858,
      "duration": 0.0664,
      "velocity": 99,
      "chip": "ym2612"
    },
    {
      "channel": 2,
      "note": 50,
      "start": 23.1897,
      "duration": 0.0798,
      "velocity": 127,
      "chip": "ym2612"
    },
    {
      "channel": 0,
      "note": 68,
      "start": 23.2887,
      "duration": 0.4529,
      "velocity": 99,
      "chip": "ym2612"
    },
    {
      "channel": 1,
      "note": 42,
      "start": 23.2924,
      "duration": 0.2924,
      "velocity": 107,
      "chip": "ym2612"
    },
    {
      "channel": 2,
      "note": 23,
      "start": 23.3071,
      "duration": 0.072,
      "velocity": 126,
      "chip": "ym2612"
    },
    {
      "channel": 2,
      "note": 50,
      "start": 23.4095,
      "duration": 0.0725,
      "velocity": 127,
      "chip": "ym2612"
    },
    {
      "channel": 2,
      "note": 50,
      "start": 23.5014,
      "duration": 0.084,
      "velocity": 127,
      "chip": "ym2612"
    },
    {
      "channel": 2,
      "note": 50,
      "start": 23.6042,
      "duration": 0.0835,
      "velocity": 127,
      "chip": "ym2612"
    },
    {
      "channel": 1,
      "note": 40,
      "start": 23.707,
      "duration": 0.1376,
      "velocity": 107,
      "chip": "ym2612"
    },
    {
      "channel": 2,
      "note": 43,
      "start": 23.7213,
      "duration": 0.072,
      "velocity": 110,
      "chip": "ym2612"
    },
    {
      "channel": 2,
      "note": 50,
      "start": 23.8236,
      "duration": 0.0724,
      "velocity": 127,
      "chip": "ym2612"
    },
    {
      "channel": 0,
      "note": 66,
      "start": 23.9153,
      "duration": 0.2893,
      "velocity": 99,
      "chip": "ym2612"
    },
    {
      "channel": 1,
      "note": 42,
      "start": 23.919,
      "duration": 0.2861,
      "velocity": 107,
      "chip": "ym2612"
    },
    {
      "channel": 2,
      "note": 50,
      "start": 23.9227,
      "duration": 0.0763,
      "velocity": 127,
      "chip": "ym2612"
    },
    {
      "channel": 2,
      "note": 50,
      "start": 24.0183,
      "duration": 0.0835,
      "velocity": 127,
      "chip": "ym2612"
    },
    {
      "channel": 2,
      "note": 23,
      "start": 24.1323,
      "duration": 0.0734,
      "velocity": 126,
      "chip": "ym2612"
    },
    {
      "channel": 2,
      "note": 38,
      "start": 24.2351,
      "duration": 0.0724,
      "velocity": 127,
      "chip": "ym2612"
    },
    {
      "channel": 0,
      "note": 69,
      "start": 24.3267,
      "duration": 0.292,
      "velocity": 99,
      "chip": "ym2612"
    },
    {
      "channel": 1,
      "note": 45,
      "start": 24.3305,
      "duration": 0.1314,
      "velocity": 107,
      "chip": "ym2612"
    },
    {
      "channel": 2,
      "note": 38,
      "start": 24.3342,
      "duration": 0.0763,
      "velocity": 127,
      "chip": "ym2612"
    },
    {
      "channel": 2,
      "note": 38,
      "start": 24.4298,
      "duration": 0.0835,
      "velocity": 127,
      "chip": "ym2612"
    },
    {
      "channel": 1,
      "note": 42,
      "start": 24.5327,
      "duration": 0.1375,
      "velocity": 107,
      "chip": "ym2612"
    },
    {
      "channel": 2,
      "note": 38,
      "start": 24.5469,
      "duration": 0.0724,
      "velocity": 110,
      "chip": "ym2612"
    },
    {
      "channel": 2,
      "note": 38,
      "start": 24.6377,
      "duration": 0.084,
      "velocity": 110,
      "chip": "ym2612"
    },
    {
      "channel": 0,
      "note": 71,
      "start": 24.7409,
      "duration": 0.0665,
      "velocity": 99,
      "chip": "ym2612"
    },
    {
      "channel": 1,
      "note": 45,
      "start": 24.7446,
      "duration": 0.1314,
      "velocity": 107,
      "chip": "ym2612"
    },
    {
      "channel": 2,
      "note": 38,
      "start": 24.7478,
      "duration": 0.0767,
      "velocity": 110,
      "chip": "ym2612"
    },
    {
      "channel": 0,
      "note": 73,
      "start": 24.8438,
      "duration": 0.0663,
      "velocity": 99,
      "chip": "ym2612"
    },
    {
      "channel": 2,
      "note": 38,
      "start": 24.8472,
      "duration": 0.0803,
      "velocity": 110,
      "chip": "ym2612"
    },
    {
      "channel": 0,
      "note": 78,
      "start": 24.9466,
      "duration": 0.7615,
      "velocity": 99,
      "chip": "ym2612"
    },
    {
      "channel": 1,
      "note": 47,
      "start": 24.9503,
      "duration": 0.2923,
      "velocity": 107,
      "chip": "ym2612"
    },
    {
      "channel": 2,
      "note": 23,
      "start": 24.9651,
      "duration": 0.0719,
      "velocity": 126,
      "chip": "ym2612"
    },
    {
      "channel": 2,
      "note": 50,
      "start": 25.0674,
      "duration": 0.0724,
      "velocity": 127,
      "chip": "ym2612"
    },
    {
      "channel": 2,
      "note": 50,
      "start": 25.1592,
      "duration": 0.084,
      "velocity": 127,
      "chip": "ym2612"
    },
    {
      "channel": 2,
      "note": 50,
      "start": 25.2621,
      "duration": 0.0835,
      "velocity": 127,
      "chip": "ym2612"
    },
    {
      "channel": 1,
      "note": 45,
      "start": 25.3649,
      "duration": 0.1376,
      "velocity": 107,
      "chip": "ym2612"
    },
    {
      "channel": 2,
      "note": 43,
      "start": 25.3792,
      "duration": 0.072,
      "velocity": 110,
      "chip": "ym2612"
    },
    {
      "channel": 2,
      "note": 50,
      "start": 25.4816,
      "duration": 0.0725,
      "velocity": 127,
      "chip": "ym2612"
    },
    {
      "channel": 1,
      "note": 47,
      "start": 25.5732,
      "duration": 0.2893,
      "velocity": 107,
      "chip": "ym2612"
    },
    {
      "channel": 2,
      "note": 50,
      "start": 25.5769,
      "duration": 0.08,
      "velocity": 127,
      "chip": "ym2612"
    },
    {
      "channel": 2,
      "note": 50,
      "start": 25.6762,
      "duration": 0.0835,
      "velocity": 127,
      "chip": "ym2612"
    },
    {
      "channel": 2,
      "note": 23,
      "start": 25.7901,
      "duration": 0.073,
      "velocity": 126,
      "chip": "ym2612"
    },
    {
      "channel": 2,
      "note": 50,
      "start": 25.8929,
      "duration": 0.0725,
      "velocity": 127,
      "chip": "ym2612"
    },
    {
      "channel": 0,
      "note": 78,
      "start": 25.9847,
      "duration": 0.135,
      "velocity": 99,
      "chip": "ym2612"
    },
    {
      "channel": 1,
      "note": 47,
      "start": 25.9884,
      "duration": 0.1318,
      "velocity": 107,
      "chip": "ym2612"
    },
    {
      "channel": 2,
      "note": 50,
      "start": 25.9921,
      "duration": 0.0763,
      "velocity": 127,
      "chip": "ym2612"
    },
    {
      "channel": 2,
      "note": 50,
      "start": 26.0877,
      "duration": 0.0835,
      "velocity": 127,
      "chip": "ym2612"
    },
    {
      "channel": 0,
      "note": 80,
      "start": 26.1904,
      "duration": 0.227,
      "velocity": 99,
      "chip": "ym2612"
    },
    {
      "channel": 1,
      "note": 49,
      "start": 26.1941,
      "duration": 0.1377,
      "velocity": 107,
      "chip": "ym2612"
    },
    {
      "channel": 2,
      "note": 43,
      "start": 26.2084,
      "duration": 0.072,
      "velocity": 110,
      "chip": "ym2612"
    },
    {
      "channel": 2,
      "note": 50,
      "start": 26.3108,
      "duration": 0.0725,
      "velocity": 127,
      "chip": "ym2612"
    },
    {
      "channel": 1,
      "note": 50,
      "start": 26.4026,
      "duration": 0.135,
      "velocity": 107,
      "chip": "ym2612"
    },
    {
      "channel": 2,
      "note": 50,
      "start": 26.4063,
      "duration": 0.0799,
      "velocity": 127,
      "chip": "ym2612"
    },
    {
      "channel": 0,
      "note": 81,
      "start": 26.5053,
      "duration": 0.0664,
      "velocity": 99,
      "chip": "ym2612"
    },
    {
      "channel": 2,
      "note": 50,
      "start": 26.5091,
      "duration": 0.0798,
      "velocity": 127,
      "chip": "ym2612"
    },
    {
      "channel": 0,
      "note": 80,
      "start": 26.6082,
      "duration": 0.4532,
      "velocity": 99,
      "chip": "ym2612"
    },
    {
      "channel": 1,
      "note": 50,
      "start": 26.6119,
      "duration": 0.2926,
      "velocity": 107,
      "chip": "ym2612"
    },
    {
      "channel": 2,
      "note": 23,
      "start": 26.6266,
      "duration": 0.0722,
      "velocity": 126,
      "chip": "ym2612"
    },
    {
      "channel": 2,
      "note": 50,
      "start": 26.7292,
      "duration": 0.0725,
      "velocity": 127,
      "chip": "ym2612"
    },
    {
      "channel": 2,
      "note": 50,
      "start": 26.821,
      "duration": 0.084,
      "velocity": 127,
      "chip": "ym2612"
    },
    {
      "channel": 2,
      "note": 50,
      "start": 26.9238,
      "duration": 0.0836,
      "velocity": 127,
      "chip": "ym2612"
    },
    {
      "channel": 1,
      "note": 49,
      "start": 27.0266,
      "duration": 0.1377,
      "velocity": 107,
      "chip": "ym2612"
    },
    {
      "channel": 2,
      "note": 43,
      "start": 27.0409,
      "duration": 0.072,
      "velocity": 110,
      "chip": "ym2612"
    },
    {
      "channel": 2,
      "note": 50,
      "start": 27.1432,
      "duration": 0.0725,
      "velocity": 127,
      "chip": "ym2612"
    },
    {
      "channel": 0,
      "note": 78,
      "start": 27.2349,
      "duration": 0.7584,
      "velocity": 99,
      "chip": "ym2612"
    },
    {
      "channel": 1,
      "note": 50,
      "start": 27.2386,
      "duration": 0.6006,
      "velocity": 107,
      "chip": "ym2612"
    },
    {
      "channel": 2,
      "note": 42,
      "start": 27.2529,
      "duration": 0.072,
      "velocity": 110,
      "chip": "ym2612"
    },
    {
      "channel": 2,
      "note": 42,
      "start": 27.3437,
      "duration": 0.0841,
      "velocity": 110,
      "chip": "ym2612"
    },
    {
      "channel": 2,
      "note": 42,
      "start": 27.4467,
      "duration": 0.084,
      "velocity": 110,
      "chip": "ym2612"
    },
    {
      "channel": 2,
      "note": 38,
      "start": 27.5496,
      "duration": 0.084,
      "velocity": 110,
      "chip": "ym2612"
    },
    {
      "channel": 2,
      "note": 38,
      "start": 27.6524,
      "duration": 0.084,
      "velocity": 110,
      "chip": "ym2612"
    },
    {
      "channel": 2,
      "note": 35,
      "start": 27.7553,
      "duration": 0.0844,
      "velocity": 110,
      "chip": "ym2612"
    },
    {
      "channel": 2,
      "note": 23,
      "start": 27.8696,
      "duration": 0.1582,
      "velocity": 126,
      "chip": "ym2612"
    },
    {
      "channel": 2,
      "note": 38,
      "start": 28.0757,
      "duration": 0.1578,
      "velocity": 127,
      "chip": "ym2612"
    },
    {
      "channel": 0,
      "note": 83,
      "start": 28.2813,
      "duration": 0.1759,
      "velocity": 107,
      "chip": "ym2612"
    },
    {
      "channel": 1,
      "note": 52,
      "start": 28.2849,
      "duration": 0.1381,
      "velocity": 107,
      "chip": "ym2612"
    },
    {
      "channel": 2,
      "note": 23,
      "start": 28.2997,
      "duration": 0.1581,
      "velocity": 126,
      "chip": "ym2612"
    },
    {
      "channel": 0,
      "note": 81,
      "start": 28.4937,
      "duration": 0.1694,
      "velocity": 107,
      "chip": "ym2612"
    },
    {
      "channel": 1,
      "note": 40,
      "start": 28.4974,
      "duration": 0.1314,
      "velocity": 107,
      "chip": "ym2612"
    },
    {
      "channel": 2,
      "note": 23,
      "start": 28.5011,
      "duration": 0.1626,
      "velocity": 126,
      "chip": "ym2612"
    },
    {
      "channel": 0,
      "note": 81,
      "start": 28.6996,
      "duration": 0.1777,
      "velocity": 107,
      "chip": "ym2612"
    },
    {
      "channel": 1,
      "note": 31,
      "start": 28.7055,
      "duration": 0.292,
      "velocity": 107,
      "chip": "ym2612"
    },
    {
      "channel": 2,
      "note": 46,
      "start": 28.7197,
      "duration": 0.1582,
      "velocity": 110,
      "chip": "ym2612"
    },
    {
      "channel": 0,
      "note": 80,
      "start": 28.9138,
      "duration": 0.1693,
      "velocity": 107,
      "chip": "ym2612"
    },
    {
      "channel": 2,
      "note": 43,
      "start": 28.9171,
      "duration": 0.1666,
      "velocity": 110,
      "chip": "ym2612"
    },
    {
      "channel": 0,
      "note": 80,
      "start": 29.1195,
      "duration": 0.1693,
      "velocity": 107,
      "chip": "ym2612"
    },
    {
      "channel": 1,
      "note": 31,
      "start": 29.1232,
      "duration": 0.2857,
      "velocity": 107,
      "chip": "ym2612"
    },
    {
      "channel": 2,
      "note": 38,
      "start": 29.1265,
      "duration": 0.163,
      "velocity": 110,
      "chip": "ym2612"
    },
    {
      "channel": 0,
      "note": 78,
      "start": 29.3253,
      "duration": 0.1693,
      "velocity": 107,
      "chip": "ym2612"
    },
    {
      "channel": 2,
      "note": 35,
      "start": 29.3287,
      "duration": 0.1665,
      "velocity": 110,
      "chip": "ym2612"
    },
    {
      "channel": 0,
      "note": 78,
      "start": 29.5311,
      "duration": 0.1693,
      "velocity": 107,
      "chip": "ym2612"
    },
    {
      "channel": 1,
      "note": 31,
      "start": 29.5348,
      "duration": 0.2857,
      "velocity": 107,
      "chip": "ym2612"
    },
    {
      "channel": 2,
      "note": 42,
      "start": 29.538,
      "duration": 0.0768,
      "velocity": 110,
      "chip": "ym2612"
    },
    {
      "channel": 2,
      "note": 40,
      "start": 29.6337,
      "duration": 0.084,
      "velocity": 110,
      "chip": "ym2612"
    },
    {
      "channel": 0,
      "note": 76,
      "start": 29.7368,
      "duration": 0.1693,
      "velocity": 107,
      "chip": "ym2612"
    },
    {
      "channel": 2,
      "note": 40,
      "start": 29.7402,
      "duration": 0.0809,
      "velocity": 110,
      "chip": "ym2612"
    },
    {
      "channel": 2,
      "note": 38,
      "start": 29.8395,
      "duration": 0.084,
      "velocity": 110,
      "chip": "ym2612"
    },
    {
      "channel": 0,
      "note": 80,
      "start": 29.9426,
      "duration": 0.1783,
      "velocity": 107,
      "chip": "ym2612"
    },
    {
      "channel": 1,
      "note": 50,
      "start": 29.9486,
      "duration": 0.1381,
      "velocity": 107,
      "chip": "ym2612"
    },
    {
      "channel": 2,
      "note": 23,
      "start": 29.9634,
      "duration": 0.1581,
      "velocity": 126,
      "chip": "ym2612"
    },
    {
      "channel": 0,
      "note": 78,
      "start": 30.1573,
      "duration": 0.1693,
      "velocity": 107,
      "chip": "ym2612"
    },
    {
      "channel": 1,
      "note": 38,
      "start": 30.1611,
      "duration": 0.1314,
      "velocity": 107,
      "chip": "ym2612"
    },
    {
      "channel": 2,
      "note": 23,
      "start": 30.1648,
      "duration": 0.1624,
      "velocity": 126,
      "chip": "ym2612"
    },
    {
      "channel": 0,
      "note": 78,
      "start": 30.3631,
      "duration": 0.1777,
      "velocity": 107,
      "chip": "ym2612"
    },
    {
      "channel": 1,
      "note": 31,
      "start": 30.3691,
      "duration": 0.2919,
      "velocity": 107,
      "chip": "ym2612"
    },
    {
      "channel": 2,
      "note": 46,
      "start": 30.3834,
      "duration": 0.1581,
      "velocity": 110,
      "chip": "ym2612"
    },
    {
      "channel": 0,
      "note": 76,
      "start": 30.5773,
      "duration": 0.1693,
      "velocity": 107,
      "chip": "ym2612"
    },
    {
      "channel": 2,
      "note": 43,
      "start": 30.5807,
      "duration": 0.1665,
      "velocity": 110,
      "chip": "ym2612"
    },
    {
      "channel": 0,
      "note": 76,
      "start": 30.7831,
      "duration": 0.1693,
      "velocity": 107,
      "chip": "ym2612"
    },
    {
      "channel": 1,
      "note": 31,
      "start": 30.7868,
      "duration": 0.2857,
      "velocity": 107,
      "chip": "ym2612"
    },
    {
      "channel": 2,
      "note": 38,
      "start": 30.79,
      "duration": 0.163,
      "velocity": 110,
      "chip": "ym2612"
    },
    {
      "channel": 0,
      "note": 74,
      "start": 30.9888,
      "duration": 0.1693,
      "velocity": 107,
      "chip": "ym2612"
    },
    {
      "channel": 2,
      "note": 35,
      "start": 30.9921,
      "duration": 0.1666,
      "velocity": 110,
      "chip": "ym2612"
    },
    {
      "channel": 0,
      "note": 73,
      "start": 31.1946,
      "duration": 0.1693,
      "velocity": 107,
      "chip": "ym2612"
    },
    {
      "channel": 1,
      "note": 31,
      "start": 31.1983,
      "duration": 0.2858,
      "velocity": 107,
      "chip": "ym2612"
    },
    {
      "channel": 2,
      "note": 42,
      "start": 31.2015,
      "duration": 0.0768,
      "velocity": 110,
      "chip": "ym2612"
    },
    {
      "channel": 2,
      "note": 40,
      "start": 31.2972,
      "duration": 0.084,
      "velocity": 110,
      "chip": "ym2612"
    },
    {
      "channel": 0,
      "note": 71,
      "start": 31.4004,
      "duration": 0.1693,
      "velocity": 107,
      "chip": "ym2612"
    },
    {
      "channel": 2,
      "note": 40,
      "start": 31.4037,
      "duration": 0.0809,
      "velocity": 110,
      "chip": "ym2612"
    },
    {
      "channel": 2,
      "note": 38,
      "start": 31.5029,
      "duration": 0.084,
      "velocity": 110,
      "chip": "ym2612"
    },
    {
      "channel": 0,
      "note": 81,
      "start": 31.6061,
      "duration": 0.3497,
      "velocity": 107,
      "chip": "ym2612"
    },
    {
      "channel": 1,
      "note": 49,
      "start": 31.6121,
      "duration": 0.1381,
      "velocity": 107,
      "chip": "ym2612"
    },
    {
      "channel": 2,
      "note": 23,
      "start": 31.6268,
      "duration": 0.33,
      "velocity": 126,
      "chip": "ym2612"
    },
    {
      "channel": 1,
      "note": 49,
      "start": 31.821,
      "duration": 0.1354,
      "velocity": 107,
      "chip": "ym2612"
    },
    {
      "channel": 0,
      "note": 80,
      "start": 32.0266,
      "duration": 0.1777,
      "velocity": 107,
      "chip": "ym2612"
    },
    {
      "channel": 1,
      "note": 31,
      "start": 32.0325,
      "duration": 0.2919,
      "velocity": 107,
      "chip": "ym2612"
    },
    {
      "channel": 2,
      "note": 46,
      "start": 32.0468,
      "duration": 0.1581,
      "velocity": 110,
      "chip": "ym2612"
    },
    {
      "channel": 0,
      "note": 78,
      "start": 32.2407,
      "duration": 0.1693,
      "velocity": 107,
      "chip": "ym2612"
    },
    {
      "channel": 2,
      "note": 43,
      "start": 32.244,
      "duration": 0.1665,
      "velocity": 110,
      "chip": "ym2612"
    },
    {
      "channel": 0,
      "note": 78,
      "start": 32.4465,
      "duration": 0.1693,
      "velocity": 107,
      "chip": "ym2612"
    },
    {
      "channel": 1,
      "note": 31,
      "start": 32.4502,
      "duration": 0.2857,
      "velocity": 107,
      "chip": "ym2612"
    },
    {
      "channel": 2,
      "note": 43,
      "start": 32.4534,
      "duration": 0.163,
      "velocity": 110,
      "chip": "ym2612"
    },
    {
      "channel": 0,
      "note": 77,
      "start": 32.6522,
      "duration": 0.1693,
      "velocity": 107,
      "chip": "ym2612"
    },
    {
      "channel": 2,
      "note": 38,
      "start": 32.6556,
      "duration": 0.1665,
      "velocity": 110,
      "chip": "ym2612"
    },
    {
      "channel": 0,
      "note": 78,
      "start": 32.858,
      "duration": 0.1693,
      "velocity": 107,
      "chip": "ym2612"
    },
    {
      "channel": 1,
      "note": 31,
      "start": 32.8617,
      "duration": 0.2858,
      "velocity": 107,
      "chip": "ym2612"
    },
    {
      "channel": 2,
      "note": 38,
      "start": 32.865,
      "duration": 0.0767,
      "velocity": 110,
      "chip": "ym2612"
    },
    {
      "channel": 2,
      "note": 35,
      "start": 32.9606,
      "duration": 0.084,
      "velocity": 110,
      "chip": "ym2612"
    },
    {
      "channel": 0,
      "note": 73,
      "start": 33.0638,
      "duration": 0.1693,
      "velocity": 107,
      "chip": "ym2612"
    },
    {
      "channel": 2,
      "note": 35,
      "start": 33.0671,
      "duration": 0.0809,
      "velocity": 110,
      "chip": "ym2612"
    },
    {
      "channel": 2,
      "note": 31,
      "start": 33.1664,
      "duration": 0.084,
      "velocity": 110,
      "chip": "ym2612"
    },
    {
      "channel": 1,
      "note": 44,
      "start": 33.2723,
      "duration": 0.138,
      "velocity": 107,
      "chip": "ym2612"
    },
    {
      "channel": 2,
      "note": 23,
      "start": 33.2871,
      "duration": 0.1576,
      "velocity": 126,
      "chip": "ym2612"
    },
    {
      "channel": 0,
      "note": 72,
      "start": 33.481,
      "duration": 0.5328,
      "velocity": 107,
      "chip": "ym2612"
    },
    {
      "channel": 2,
      "note": 45,
      "start": 33.4963,
      "duration": 0.1576,
      "velocity": 127,
      "chip": "ym2612"
    },
    {
      "channel": 2,
      "note": 45,
      "start": 33.6904,
      "duration": 0.1692,
      "velocity": 127,
      "chip": "ym2612"
    },
    {
      "channel": 2,
      "note": 45,
      "start": 33.8961,
      "duration": 0.1692,
      "velocity": 127,
      "chip": "ym2612"
    },
    {
      "channel": 1,
      "note": 56,
      "start": 34.1022,
      "duration": 0.1346,
      "velocity": 107,
      "chip": "ym2612"
    },
    {
      "channel": 1,
      "note": 55,
      "start": 34.3075,
      "duration": 0.135,
      "velocity": 107,
      "chip": "ym2612"
    },
    {
      "channel": 1,
      "note": 54,
      "start": 34.5133,
      "duration": 0.135,
      "velocity": 107,
      "chip": "ym2612"
    },
    {
      "channel": 2,
      "note": 45,
      "start": 34.5169,
      "duration": 0.08,
      "velocity": 127,
      "chip": "ym2612"
    },
    {
      "channel": 2,
      "note": 45,
      "start": 34.6163,
      "duration": 0.0835,
      "velocity": 127,
      "chip": "ym2612"
    },
    {
      "channel": 1,
      "note": 53,
      "start": 34.7191,
      "duration": 0.135,
      "velocity": 107,
      "chip": "ym2612"
    },
    {
      "channel": 2,
      "note": 45,
      "start": 34.7228,
      "duration": 0.08,
      "velocity": 127,
      "chip": "ym2612"
    },
    {
      "channel": 2,
      "note": 45,
      "start": 34.822,
      "duration": 0.0835,
      "velocity": 127,
      "chip": "ym2612"
    },
    {
      "channel": 0,
      "note": 66,
      "start": 34.9362,
      "duration": 0.9164,
      "velocity": 99,
      "chip": "ym2612"
    },
    {
      "channel": 1,
      "note": 42,
      "start": 34.9399,
      "duration": 0.2929,
      "velocity": 107,
      "chip": "ym2612"
    },
    {
      "channel": 2,
      "note": 23,
      "start": 34.9547,
      "duration": 0.0723,
      "velocity": 126,
      "chip": "ym2612"
    },
    {
      "channel": 2,
      "note": 50,
      "start": 35.0574,
      "duration": 0.0726,
      "velocity": 127,
      "chip": "ym2612"
    },
    {
      "channel": 2,
      "note": 50,
      "start": 35.1493,
      "duration": 0.084,
      "velocity": 127,
      "chip": "ym2612"
    },
    {
      "channel": 2,
      "note": 50,
      "start": 35.2521,
      "duration": 0.0836,
      "velocity": 127,
      "chip": "ym2612"
    },
    {
      "channel": 1,
      "note": 40,
      "start": 35.355,
      "duration": 0.1376,
      "velocity": 107,
      "chip": "ym2612"
    },
    {
      "channel": 2,
      "note": 43,
      "start": 35.3692,
      "duration": 0.072,
      "velocity": 110,
      "chip": "ym2612"
    },
    {
      "channel": 2,
      "note": 50,
      "start": 35.4716,
      "duration": 0.0724,
      "velocity": 127,
      "chip": "ym2612"
    },
    {
      "channel": 1,
      "note": 42,
      "start": 35.5634,
      "duration": 0.2898,
      "velocity": 107,
      "chip": "ym2612"
    },
    {
      "channel": 2,
      "note": 50,
      "start": 35.5671,
      "duration": 0.08,
      "velocity": 127,
      "chip": "ym2612"
    },
    {
      "channel": 2,
      "note": 50,
      "start": 35.6664,
      "duration": 0.0835,
      "velocity": 127,
      "chip": "ym2612"
    },
    {
      "channel": 2,
      "note": 23,
      "start": 35.7803,
      "duration": 0.0734,
      "velocity": 126,
      "chip": "ym2612"
    },
    {
      "channel": 2,
      "note": 50,
      "start": 35.8831,
      "duration": 0.0724,
      "velocity": 127,
      "chip": "ym2612"
    },
    {
      "channel": 1,
      "note": 44,
      "start": 35.9748,
      "duration": 0.135,
      "velocity": 107,
      "chip": "ym2612"
    },
    {
      "channel": 2,
      "note": 50,
      "start": 35.9786,
      "duration": 0.0799,
      "velocity": 127,
      "chip": "ym2612"
    },
    {
      "channel": 2,
      "note": 50,
      "start": 36.0779,
      "duration": 0.0834,
      "velocity": 127,
      "chip": "ym2612"
    },
    {
      "channel": 0,
      "note": 69,
      "start": 36.1805,
      "duration": 0.0726,
      "velocity": 99,
      "chip": "ym2612"
    },
    {
      "channel": 1,
      "note": 45,
      "start": 36.1842,
      "duration": 0.1407,
      "velocity": 107,
      "chip": "ym2612"
    },
    {
      "channel": 2,
      "note": 43,
      "start": 36.1985,
      "duration": 0.072,
      "velocity": 110,
      "chip": "ym2612"
    },
    {
      "channel": 0,
      "note": 71,
      "start": 36.2896,
      "duration": 0.1381,
      "velocity": 99,
      "chip": "ym2612"
    },
    {
      "channel": 2,
      "note": 50,
      "start": 36.3044,
      "duration": 0.072,
      "velocity": 127,
      "chip": "ym2612"
    },
    {
      "channel": 1,
      "note": 44,
      "start": 36.3956,
      "duration": 0.1351,
      "velocity": 107,
      "chip": "ym2612"
    },
    {
      "channel": 2,
      "note": 50,
      "start": 36.3993,
      "duration": 0.08,
      "velocity": 127,
      "chip": "ym2612"
    },
    {
      "channel": 0,
      "note": 73,
      "start": 36.4984,
      "duration": 0.0664,
      "velocity": 99,
      "chip": "ym2612"
    },
    {
      "channel": 2,
      "note": 50,
      "start": 36.5022,
      "duration": 0.0798,
      "velocity": 127,
      "chip": "ym2612"
    },
    {
      "channel": 0,
      "note": 71,
      "start": 36.6013,
      "duration": 0.4529,
      "velocity": 99,
      "chip": "ym2612"
    },
    {
      "channel": 1,
      "note": 42,
      "start": 36.605,
      "duration": 0.2924,
      "velocity": 107,
      "chip": "ym2612"
    },
    {
      "channel": 2,
      "note": 23,
      "start": 36.6197,
      "duration": 0.0719,
      "velocity": 126,
      "chip": "ym2612"
    },
    {
      "channel": 2,
      "note": 50,
      "start": 36.722,
      "duration": 0.0725,
      "velocity": 127,
      "chip": "ym2612"
    },
    {
      "channel": 2,
      "note": 50,
      "start": 36.8139,
      "duration": 0.084,
      "velocity": 127,
      "chip": "ym2612"
    },
    {
      "channel": 2,
      "note": 50,
      "start": 36.9168,
      "duration": 0.0835,
      "velocity": 127,
      "chip": "ym2612"
    },
    {
      "channel": 1,
      "note": 40,
      "start": 37.0195,
      "duration": 0.1375,
      "velocity": 107,
      "chip": "ym2612"
    },
    {
      "channel": 2,
      "note": 43,
      "start": 37.0338,
      "duration": 0.072,
      "velocity": 110,
      "chip": "ym2612"
    },
    {
      "channel": 2,
      "note": 50,
      "start": 37.1361,
      "duration": 0.0724,
      "velocity": 127,
      "chip": "ym2612"
    },
    {
      "channel": 0,
      "note": 69,
      "start": 37.2278,
      "duration": 0.2893,
      "velocity": 99,
      "chip": "ym2612"
    },
    {
      "channel": 1,
      "note": 42,
      "start": 37.2315,
      "duration": 0.2861,
      "velocity": 107,
      "chip": "ym2612"
    },
    {
      "channel": 2,
      "note": 50,
      "start": 37.2352,
      "duration": 0.0763,
      "velocity": 127,
      "chip": "ym2612"
    },
    {
      "channel": 2,
      "note": 50,
      "start": 37.3309,
      "duration": 0.0835,
      "velocity": 127,
      "chip": "ym2612"
    },
    {
      "channel": 2,
      "note": 23,
      "start": 37.4447,
      "duration": 0.0734,
      "velocity": 126,
      "chip": "ym2612"
    },
    {
      "channel": 2,
      "note": 38,
      "start": 37.5476,
      "duration": 0.0724,
      "velocity": 127,
      "chip": "ym2612"
    },
    {
      "channel": 0,
      "note": 74,
      "start": 37.6393,
      "duration": 0.292,
      "velocity": 99,
      "chip": "ym2612"
    },
    {
      "channel": 1,
      "note": 42,
      "start": 37.6429,
      "duration": 0.1314,
      "velocity": 107,
      "chip": "ym2612"
    },
    {
      "channel": 2,
      "note": 38,
      "start": 37.6466,
      "duration": 0.0763,
      "velocity": 127,
      "chip": "ym2612"
    },
    {
      "channel": 2,
      "note": 38,
      "start": 37.7423,
      "duration": 0.0835,
      "velocity": 127,
      "chip": "ym2612"
    },
    {
      "channel": 1,
      "note": 44,
      "start": 37.8451,
      "duration": 0.1376,
      "velocity": 107,
      "chip": "ym2612"
    },
    {
      "channel": 2,
      "note": 38,
      "start": 37.8594,
      "duration": 0.0724,
      "velocity": 110,
      "chip": "ym2612"
    },
    {
      "channel": 2,
      "note": 38,
      "start": 37.9503,
      "duration": 0.0839,
      "velocity": 110,
      "chip": "ym2612"
    },
    {
      "channel": 0,
      "note": 76,
      "start": 38.0534,
      "duration": 0.1351,
      "velocity": 99,
      "chip": "ym2612"
    },
    {
      "channel": 1,
      "note": 45,
      "start": 38.0571,
      "duration": 0.1319,
      "velocity": 107,
      "chip": "ym2612"
    },
    {
      "channel": 2,
      "note": 38,
      "start": 38.0603,
      "duration": 0.0768,
      "velocity": 110,
      "chip": "ym2612"
    },
    {
      "channel": 2,
      "note": 38,
      "start": 38.1561,
      "duration": 0.0839,
      "velocity": 110,
      "chip": "ym2612"
    },
    {
      "channel": 0,
      "note": 78,
      "start": 38.2592,
      "duration": 0.7616,
      "velocity": 99,
      "chip": "ym2612"
    },
    {
      "channel": 1,
      "note": 50,
      "start": 38.2629,
      "duration": 0.2924,
      "velocity": 107,
      "chip": "ym2612"
    },
    {
      "channel": 2,
      "note": 23,
      "start": 38.2776,
      "duration": 0.072,
      "velocity": 126,
      "chip": "ym2612"
    },
    {
      "channel": 2,
      "note": 50,
      "start": 38.38,
      "duration": 0.0724,
      "velocity": 127,
      "chip": "ym2612"
    },
    {
      "channel": 2,
      "note": 50,
      "start": 38.4718,
      "duration": 0.084,
      "velocity": 127,
      "chip": "ym2612"
    },
    {
      "channel": 2,
      "note": 50,
      "start": 38.5746,
      "duration": 0.0835,
      "velocity": 127,
      "chip": "ym2612"
    },
    {
      "channel": 1,
      "note": 49,
      "start": 38.6774,
      "duration": 0.1377,
      "velocity": 107,
      "chip": "ym2612"
    },
    {
      "channel": 2,
      "note": 43,
      "start": 38.6917,
      "duration": 0.0721,
      "velocity": 110,
      "chip": "ym2612"
    },
    {
      "channel": 2,
      "note": 50,
      "start": 38.7941,
      "duration": 0.0725,
      "velocity": 127,
      "chip": "ym2612"
    },
    {
      "channel": 1,
      "note": 50,
      "start": 38.8859,
      "duration": 0.2893,
      "velocity": 107,
      "chip": "ym2612"
    },
    {
      "channel": 2,
      "note": 50,
      "start": 38.8895,
      "duration": 0.08,
      "velocity": 127,
      "chip": "ym2612"
    },
    {
      "channel": 2,
      "note": 50,
      "start": 38.9888,
      "duration": 0.0835,
      "velocity": 127,
      "chip": "ym2612"
    },
    {
      "channel": 2,
      "note": 23,
      "start": 39.1027,
      "duration": 0.0729,
      "velocity": 126,
      "chip": "ym2612"
    },
    {
      "channel": 2,
      "note": 50,
      "start": 39.2056,
      "duration": 0.0725,
      "velocity": 127,
      "chip": "ym2612"
    },
    {
      "channel": 0,
      "note": 78,
      "start": 39.2973,
      "duration": 0.1351,
      "velocity": 99,
      "chip": "ym2612"
    },
    {
      "channel": 1,
      "note": 50,
      "start": 39.301,
      "duration": 0.1319,
      "velocity": 107,
      "chip": "ym2612"
    },
    {
      "channel": 2,
      "note": 50,
      "start": 39.3047,
      "duration": 0.0764,
      "velocity": 127,
      "chip": "ym2612"
    },
    {
      "channel": 2,
      "note": 50,
      "start": 39.4004,
      "duration": 0.0834,
      "velocity": 127,
      "chip": "ym2612"
    },
    {
      "channel": 0,
      "note": 80,
      "start": 39.5031,
      "duration": 0.1412,
      "velocity": 99,
      "chip": "ym2612"
    },
    {
      "channel": 1,
      "note": 51,
      "start": 39.5067,
      "duration": 0.1381,
      "velocity": 107,
      "chip": "ym2612"
    },
    {
      "channel": 2,
      "note": 43,
      "start": 39.521,
      "duration": 0.072,
      "velocity": 110,
      "chip": "ym2612"
    },
    {
      "channel": 2,
      "note": 50,
      "start": 39.6234,
      "duration": 0.0725,
      "velocity": 127,
      "chip": "ym2612"
    },
    {
      "channel": 0,
      "note": 81,
      "start": 39.715,
      "duration": 0.1351,
      "velocity": 99,
      "chip": "ym2612"
    },
    {
      "channel": 1,
      "note": 42,
      "start": 39.7187,
      "duration": 0.1319,
      "velocity": 107,
      "chip": "ym2612"
    },
    {
      "channel": 2,
      "note": 50,
      "start": 39.7223,
      "duration": 0.0764,
      "velocity": 127,
      "chip": "ym2612"
    },
    {
      "channel": 2,
      "note": 50,
      "start": 39.8181,
      "duration": 0.0834,
      "velocity": 127,
      "chip": "ym2612"
    },
    {
      "channel": 0,
      "note": 83,
      "start": 39.9207,
      "duration": 0.2959,
      "velocity": 99,
      "chip": "ym2612"
    },
    {
      "channel": 1,
      "note": 41,
      "start": 39.9244,
      "duration": 0.9095,
      "velocity": 107,
      "chip": "ym2612"
    },
    {
      "channel": 2,
      "note": 23,
      "start": 39.9391,
      "duration": 0.072,
      "velocity": 126,
      "chip": "ym2612"
    },
    {
      "channel": 2,
      "note": 47,
      "start": 40.0414,
      "duration": 0.0725,
      "velocity": 127,
      "chip": "ym2612"
    },
    {
      "channel": 2,
      "note": 47,
      "start": 40.1333,
      "duration": 0.084,
      "velocity": 127,
      "chip": "ym2612"
    },
    {
      "channel": 2,
      "note": 47,
      "start": 40.2361,
      "duration": 0.0836,
      "velocity": 127,
      "chip": "ym2612"
    },
    {
      "channel": 0,
      "note": 81,
      "start": 40.3388,
      "duration": 0.2894,
      "velocity": 99,
      "chip": "ym2612"
    },
    {
      "channel": 2,
      "note": 47,
      "start": 40.3426,
      "duration": 0.0799,
      "velocity": 127,
      "chip": "ym2612"
    },
    {
      "channel": 2,
      "note": 47,
      "start": 40.4419,
      "duration": 0.0835,
      "velocity": 127,
      "chip": "ym2612"
    },
    {
      "channel": 2,
      "note": 31,
      "start": 40.5554,
      "duration": 0.1587,
      "velocity": 110,
      "chip": "ym2612"
    },
    {
      "channel": 2,
      "note": 31,
      "start": 40.7505,
      "duration": 0.1693,
      "velocity": 110,
      "chip": "ym2612"
    },
    {
      "channel": 2,
      "note": 23,
      "start": 40.9673,
      "duration": 0.1582,
      "velocity": 126,
      "chip": "ym2612"
    },
    {
      "channel": 0,
      "note": 84,
      "start": 41.1619,
      "duration": 0.2954,
      "velocity": 99,
      "chip": "ym2612"
    },
    {
      "channel": 1,
      "note": 44,
      "start": 41.1655,
      "duration": 0.2923,
      "velocity": 107,
      "chip": "ym2612"
    },
    {
      "channel": 2,
      "note": 35,
      "start": 41.1798,
      "duration": 0.1576,
      "velocity": 110,
      "chip": "ym2612"
    },
    {
      "channel": 2,
      "note": 23,
      "start": 41.3849,
      "duration": 0.1582,
      "velocity": 126,
      "chip": "ym2612"
    },
    {
      "channel": 0,
      "note": 85,
      "start": 41.5795,
      "duration": 0.5979,
      "velocity": 99,
      "chip": "ym2612"
    },
    {
      "channel": 1,
      "note": 43,
      "start": 41.5832,
      "duration": 0.5948,
      "velocity": 107,
      "chip": "ym2612"
    },
    {
      "channel": 2,
      "note": 26,
      "start": 41.5869,
      "duration": 0.3335,
      "velocity": 126,
      "chip": "ym2612"
    },
    {
      "channel": 2,
      "note": 40,
      "start": 41.9912,
      "duration": 0.3406,
      "velocity": 126,
      "chip": "ym2612"
    },
    {
      "channel": 2,
      "note": 40,
      "start": 42.4141,
      "duration": 0.1578,
      "velocity": 110,
      "chip": "ym2612"
    },
    {
      "channel": 0,
      "note": 77,
      "start": 42.6082,
      "duration": 0.0665,
      "velocity": 99,
      "chip": "ym2612"
    },
    {
      "channel": 1,
      "note": 49,
      "start": 42.6119,
      "duration": 0.0633,
      "velocity": 107,
      "chip": "ym2612"
    },
    {
      "channel": 2,
      "note": 26,
      "start": 42.6151,
      "duration": 0.1625,
      "velocity": 110,
      "chip": "ym2612"
    },
    {
      "channel": 0,
      "note": 78,
      "start": 42.814,
      "duration": 0.0665,
      "velocity": 99,
      "chip": "ym2612"
    },
    {
      "channel": 1,
      "note": 50,
      "start": 42.8177,
      "duration": 0.0633,
      "velocity": 107,
      "chip": "ym2612"
    },
    {
      "channel": 2,
      "note": 28,
      "start": 42.8209,
      "duration": 0.1626,
      "velocity": 110,
      "chip": "ym2612"
    },
    {
      "channel": 0,
      "note": 80,
      "start": 43.0309,
      "duration": 1.2104,
      "velocity": 99,
      "chip": "ym2612"
    },
    {
      "channel": 1,
      "note": 52,
      "start": 43.0345,
      "duration": 0.058,
      "velocity": 107,
      "chip": "ym2612"
    },
    {
      "channel": 2,
      "note": 28,
      "start": 43.0377,
      "duration": 0.1577,
      "velocity": 110,
      "chip": "ym2612"
    },
    {
      "channel": 2,
      "note": 23,
      "start": 43.2433,
      "duration": 0.3293,
      "velocity": 126,
      "chip": "ym2612"
    },
    {
      "channel": 2,
      "note": 23,
      "start": 43.6435,
      "duration": 0.3408,
      "velocity": 126,
      "chip": "ym2612"
    },
    {
      "channel": 2,
      "note": 43,
      "start": 44.0656,
      "duration": 0.3302,
      "velocity": 110,
      "chip": "ym2612"
    },
    {
      "channel": 2,
      "note": 40,
      "start": 44.4661,
      "duration": 0.3412,
      "velocity": 110,
      "chip": "ym2612"
    },
    {
      "channel": 2,
      "note": 43,
      "start": 44.8791,
      "duration": 0.1011,
      "velocity": 110,
      "chip": "ym2612"
    },
    {
      "channel": 2,
      "note": 43,
      "start": 45.0148,
      "duration": 0.1011,
      "velocity": 110,
      "chip": "ym2612"
    },
    {
      "channel": 2,
      "note": 43,
      "start": 45.1519,
      "duration": 0.1011,
      "velocity": 110,
      "chip": "ym2612"
    },
    {
      "channel": 2,
      "note": 38,
      "start": 45.2905,
      "duration": 0.1011,
      "velocity": 110,
      "chip": "ym2612"
    },
    {
      "channel": 2,
      "note": 38,
      "start": 45.4263,
      "duration": 0.1012,
      "velocity": 110,
      "chip": "ym2612"
    },
    {
      "channel": 2,
      "note": 38,
      "start": 45.5635,
      "duration": 0.1011,
      "velocity": 110,
      "chip": "ym2612"
    },
    {
      "channel": 2,
      "note": 35,
      "start": 45.7022,
      "duration": 0.1011,
      "velocity": 110,
      "chip": "ym2612"
    },
    {
      "channel": 2,
      "note": 35,
      "start": 45.8379,
      "duration": 0.1011,
      "velocity": 110,
      "chip": "ym2612"
    },
    {
      "channel": 2,
      "note": 35,
      "start": 45.9751,
      "duration": 0.1011,
      "velocity": 110,
      "chip": "ym2612"
    },
    {
      "channel": 2,
      "note": 23,
      "start": 46.1251,
      "duration": 0.1576,
      "velocity": 126,
      "chip": "ym2612"
    },
    {
      "channel": 2,
      "note": 38,
      "start": 46.3308,
      "duration": 0.1578,
      "velocity": 127,
      "chip": "ym2612"
    },
    {
      "channel": 0,
      "note": 50,
      "start": 46.5358,
      "duration": 0.0536,
      "velocity": 87,
      "chip": "ym2612"
    },
    {
      "channel": 2,
      "note": 31,
      "start": 46.5519,
      "duration": 1.5122,
      "velocity": 108,
      "chip": "ym2612"
    },
    {
      "channel": 0,
      "note": 79,
      "start": 46.6077,
      "duration": 0.0502,
      "velocity": 87,
      "chip": "ym2612"
    },
    {
      "channel": 0,
      "note": 55,
      "start": 46.6763,
      "duration": 0.0501,
      "velocity": 87,
      "chip": "ym2612"
    },
    {
      "channel": 0,
      "note": 79,
      "start": 46.7449,
      "duration": 0.0502,
      "velocity": 87,
      "chip": "ym2612"
    },
    {
      "channel": 0,
      "note": 62,
      "start": 46.8135,
      "duration": 0.0502,
      "velocity": 87,
      "chip": "ym2612"
    },
    {
      "channel": 0,
      "note": 79,
      "start": 46.8821,
      "duration": 0.0502,
      "velocity": 87,
      "chip": "ym2612"
    },
    {
      "channel": 0,
      "note": 62,
      "start": 46.9507,
      "duration": 0.0502,
      "velocity": 87,
      "chip": "ym2612"
    },
    {
      "channel": 0,
      "note": 79,
      "start": 47.0192,
      "duration": 0.0502,
      "velocity": 87,
      "chip": "ym2612"
    },
    {
      "channel": 0,
      "note": 67,
      "start": 47.0878,
      "duration": 0.0502,
      "velocity": 87,
      "chip": "ym2612"
    },
    {
      "channel": 0,
      "note": 79,
      "start": 47.1564,
      "duration": 0.0502,
      "velocity": 87,
      "chip": "ym2612"
    },
    {
      "channel": 0,
      "note": 74,
      "start": 47.2249,
      "duration": 0.0502,
      "velocity": 87,
      "chip": "ym2612"
    },
    {
      "channel": 0,
      "note": 79,
      "start": 47.2935,
      "duration": 0.0502,
      "velocity": 87,
      "chip": "ym2612"
    },
    {
      "channel": 0,
      "note": 67,
      "start": 47.3622,
      "duration": 0.0501,
      "velocity": 87,
      "chip": "ym2612"
    },
    {
      "channel": 0,
      "note": 79,
      "start": 47.4307,
      "duration": 0.0502,
      "velocity": 87,
      "chip": "ym2612"
    },
    {
      "channel": 0,
      "note": 64,
      "start": 47.4994,
      "duration": 0.0501,
      "velocity": 87,
      "chip": "ym2612"
    },
    {
      "channel": 0,
      "note": 79,
      "start": 47.568,
      "duration": 0.0501,
      "velocity": 87,
      "chip": "ym2612"
    },
    {
      "channel": 0,
      "note": 62,
      "start": 47.6365,
      "duration": 0.0501,
      "velocity": 87,
      "chip": "ym2612"
    },
    {
      "channel": 0,
      "note": 79,
      "start": 47.7051,
      "duration": 0.0501,
      "velocity": 87,
      "chip": "ym2612"
    },
    {
      "channel": 0,
      "note": 57,
      "start": 47.7737,
      "duration": 0.0501,
      "velocity": 87,
      "chip": "ym2612"
    },
    {
      "channel": 0,
      "note": 79,
      "start": 47.8423,
      "duration": 0.0501,
      "velocity": 87,
      "chip": "ym2612"
    },
    {
      "channel": 0,
      "note": 60,
      "start": 47.9108,
      "duration": 0.0502,
      "velocity": 87,
      "chip": "ym2612"
    },
    {
      "channel": 0,
      "note": 79,
      "start": 47.9795,
      "duration": 0.0501,
      "velocity": 87,
      "chip": "ym2612"
    },
    {
      "channel": 0,
      "note": 55,
      "start": 48.048,
      "duration": 0.0501,
      "velocity": 87,
      "chip": "ym2612"
    },
    {
      "channel": 0,
      "note": 79,
      "start": 48.1166,
      "duration": 0.0502,
      "velocity": 87,
      "chip": "ym2612"
    },
    {
      "channel": 0,
      "note": 50,
      "start": 48.1988,
      "duration": 0.0559,
      "velocity": 87,
      "chip": "ym2612"
    },
    {
      "channel": 1,
      "note": 62,
      "start": 48.2139,
      "duration": 0.9839,
      "velocity": 99,
      "chip": "ym2612"
    },
    {
      "channel": 2,
      "note": 24,
      "start": 48.2167,
      "duration": 1.5128,
      "velocity": 108,
      "chip": "ym2612"
    },
    {
      "channel": 4,
      "note": 62,
      "start": 48.2515,
      "duration": 0.9834,
      "velocity": 99,
      "chip": "ym2612"
    },
    {
      "channel": 0,
      "note": 79,
      "start": 48.273,
      "duration": 0.0503,
      "velocity": 87,
      "chip": "ym2612"
    },
    {
      "channel": 0,
      "note": 55,
      "start": 48.3416,
      "duration": 0.0503,
      "velocity": 87,
      "chip": "ym2612"
    },
    {
      "channel": 0,
      "note": 79,
      "start": 48.4102,
      "duration": 0.0502,
      "velocity": 87,
      "chip": "ym2612"
    },
    {
      "channel": 0,
      "note": 62,
      "start": 48.4789,
      "duration": 0.0502,
      "velocity": 87,
      "chip": "ym2612"
    },
    {
      "channel": 0,
      "note": 79,
      "start": 48.5474,
      "duration": 0.0502,
      "velocity": 87,
      "chip": "ym2612"
    },
    {
      "channel": 0,
      "note": 62,
      "start": 48.616,
      "duration": 0.0502,
      "velocity": 87,
      "chip": "ym2612"
    },
    {
      "channel": 0,
      "note": 79,
      "start": 48.6846,
      "duration": 0.0502,
      "velocity": 87,
      "chip": "ym2612"
    },
    {
      "channel": 0,
      "note": 67,
      "start": 48.7531,
      "duration": 0.0502,
      "velocity": 87,
      "chip": "ym2612"
    },
    {
      "channel": 0,
      "note": 79,
      "start": 48.8217,
      "duration": 0.0503,
      "velocity": 87,
      "chip": "ym2612"
    },
    {
      "channel": 0,
      "note": 74,
      "start": 48.8903,
      "duration": 0.0502,
      "velocity": 87,
      "chip": "ym2612"
    },
    {
      "channel": 0,
      "note": 79,
      "start": 48.9589,
      "duration": 0.0502,
      "velocity": 87,
      "chip": "ym2612"
    },
    {
      "channel": 0,
      "note": 67,
      "start": 49.0274,
      "duration": 0.0503,
      "velocity": 87,
      "chip": "ym2612"
    },
    {
      "channel": 0,
      "note": 79,
      "start": 49.0961,
      "duration": 0.0502,
      "velocity": 87,
      "chip": "ym2612"
    },
    {
      "channel": 0,
      "note": 64,
      "start": 49.1646,
      "duration": 0.0502,
      "velocity": 87,
      "chip": "ym2612"
    },
    {
      "channel": 0,
      "note": 79,
      "start": 49.2333,
      "duration": 0.0501,
      "velocity": 87,
      "chip": "ym2612"
    },
    {
      "channel": 0,
      "note": 62,
      "start": 49.3019,
      "duration": 0.0502,
      "velocity": 87,
      "chip": "ym2612"
    },
    {
      "channel": 0,
      "note": 79,
      "start": 49.3704,
      "duration": 0.0502,
      "velocity": 87,
      "chip": "ym2612"
    },
    {
      "channel": 0,
      "note": 57,
      "start": 49.439,
      "duration": 0.0503,
      "velocity": 87,
      "chip": "ym2612"
    },
    {
      "channel": 1,
      "note": 67,
      "start": 49.4427,
      "duration": 0.3215,
      "velocity": 99,
      "chip": "ym2612"
    },
    {
      "channel": 4,
      "note": 67,
      "start": 49.4747,
      "duration": 0.3234,
      "velocity": 99,
      "chip": "ym2612"
    },
    {
      "channel": 0,
      "note": 79,
      "start": 49.5076,
      "duration": 0.0502,
      "velocity": 87,
      "chip": "ym2612"
    },
    {
      "channel": 0,
      "note": 60,
      "start": 49.5762,
      "duration": 0.0502,
      "velocity": 87,
      "chip": "ym2612"
    },
    {
      "channel": 0,
      "note": 79,
      "start": 49.6448,
      "duration": 0.0502,
      "velocity": 87,
      "chip": "ym2612"
    },
    {
      "channel": 0,
      "note": 55,
      "start": 49.7134,
      "duration": 0.0502,
      "velocity": 87,
      "chip": "ym2612"
    },
    {
      "channel": 0,
      "note": 79,
      "start": 49.782,
      "duration": 0.0501,
      "velocity": 87,
      "chip": "ym2612"
    },
    {
      "channel": 0,
      "note": 50,
      "start": 49.8628,
      "duration": 0.044,
      "velocity": 87,
      "chip": "ym2612"
    },
    {
      "channel": 1,
      "note": 69,
      "start": 49.8665,
      "duration": 0.9836,
      "velocity": 99,
      "chip": "ym2612"
    },
    {
      "channel": 2,
      "note": 26,
      "start": 49.8693,
      "duration": 1.5124,
      "velocity": 108,
      "chip": "ym2612"
    },
    {
      "channel": 4,
      "note": 69,
      "start": 49.8922,
      "duration": 0.995,
      "velocity": 99,
      "chip": "ym2612"
    },
    {
      "channel": 0,
      "note": 79,
      "start": 49.9251,
      "duration": 0.0502,
      "velocity": 87,
      "chip": "ym2612"
    },
    {
      "channel": 0,
      "note": 55,
      "start": 49.9937,
      "duration": 0.0502,
      "velocity": 87,
      "chip": "ym2612"
    },
    {
      "channel": 0,
      "note": 79,
      "start": 50.0624,
      "duration": 0.0502,
      "velocity": 87,
      "chip": "ym2612"
    },
    {
      "channel": 0,
      "note": 62,
      "start": 50.1311,
      "duration": 0.0502,
      "velocity": 87,
      "chip": "ym2612"
    },
    {
      "channel": 0,
      "note": 79,
      "start": 50.1996,
      "duration": 0.0502,
      "velocity": 87,
      "chip": "ym2612"
    },
    {
      "channel": 0,
      "note": 62,
      "start": 50.2682,
      "duration": 0.0502,
      "velocity": 87,
      "chip": "ym2612"
    },
    {
      "channel": 0,
      "note": 79,
      "start": 50.3368,
      "duration": 0.0502,
      "velocity": 87,
      "chip": "ym2612"
    },
    {
      "channel": 0,
      "note": 67,
      "start": 50.4054,
      "duration": 0.0503,
      "velocity": 87,
      "chip": "ym2612"
    },
    {
      "channel": 0,
      "note": 79,
      "start": 50.4739,
      "duration": 0.0502,
      "velocity": 87,
      "chip": "ym2612"
    },
    {
      "channel": 0,
      "note": 74,
      "start": 50.5425,
      "duration": 0.0502,
      "velocity": 87,
      "chip": "ym2612"
    },
    {
      "channel": 0,
      "note": 79,
      "start": 50.6112,
      "duration": 0.0502,
      "velocity": 87,
      "chip": "ym2612"
    },
    {
      "channel": 0,
      "note": 67,
      "start": 50.6798,
      "duration": 0.0502,
      "velocity": 87,
      "chip": "ym2612"
    },
    {
      "channel": 0,
      "note": 79,
      "start": 50.7484,
      "duration": 0.0502,
      "velocity": 87,
      "chip": "ym2612"
    },
    {
      "channel": 0,
      "note": 64,
      "start": 50.8169,
      "duration": 0.0502,
      "velocity": 87,
      "chip": "ym2612"
    },
    {
      "channel": 0,
      "note": 79,
      "start": 50.8855,
      "duration": 0.0502,
      "velocity": 87,
      "chip": "ym2612"
    },
    {
      "channel": 0,
      "note": 62,
      "start": 50.9541,
      "duration": 0.0502,
      "velocity": 87,
      "chip": "ym2612"
    },
    {
      "channel": 0,
      "note": 79,
      "start": 51.0227,
      "duration": 0.0502,
      "velocity": 87,
      "chip": "ym2612"
    },
    {
      "channel": 0,
      "note": 57,
      "start": 51.0912,
      "duration": 0.0502,
      "velocity": 87,
      "chip": "ym2612"
    },
    {
      "channel": 1,
      "note": 74,
      "start": 51.095,
      "duration": 0.3213,
      "velocity": 99,
      "chip": "ym2612"
    },
    {
      "channel": 4,
      "note": 74,
      "start": 51.1269,
      "duration": 0.3235,
      "velocity": 99,
      "chip": "ym2612"
    },
    {
      "channel": 0,
      "note": 79,
      "start": 51.1598,
      "duration": 0.0502,
      "velocity": 87,
      "chip": "ym2612"
    },
    {
      "channel": 0,
      "note": 60,
      "start": 51.2285,
      "duration": 0.0502,
      "velocity": 87,
      "chip": "ym2612"
    },
    {
      "channel": 0,
      "note": 79,
      "start": 51.297,
      "duration": 0.0502,
      "velocity": 87,
      "chip": "ym2612"
    },
    {
      "channel": 0,
      "note": 55,
      "start": 51.3656,
      "duration": 0.0502,
      "velocity": 87,
      "chip": "ym2612"
    },
    {
      "channel": 0,
      "note": 79,
      "start": 51.4342,
      "duration": 0.0502,
      "velocity": 87,
      "chip": "ym2612"
    },
    {
      "channel": 0,
      "note": 50,
      "start": 51.515,
      "duration": 0.044,
      "velocity": 87,
      "chip": "ym2612"
    },
    {
      "channel": 1,
      "note": 67,
      "start": 51.5187,
      "duration": 0.9834,
      "velocity": 99,
      "chip": "ym2612"
    },
    {
      "channel": 2,
      "note": 31,
      "start": 51.5215,
      "duration": 1.1354,
      "velocity": 108,
      "chip": "ym2612"
    },
    {
      "channel": 4,
      "note": 67,
      "start": 51.5445,
      "duration": 0.9948,
      "velocity": 99,
      "chip": "ym2612"
    },
    {
      "channel": 0,
      "note": 79,
      "start": 51.5773,
      "duration": 0.0503,
      "velocity": 87,
      "chip": "ym2612"
    },
    {
      "channel": 0,
      "note": 55,
      "start": 51.646,
      "duration": 0.0502,
      "velocity": 87,
      "chip": "ym2612"
    },
    {
      "channel": 0,
      "note": 79,
      "start": 51.7145,
      "duration": 0.0503,
      "velocity": 87,
      "chip": "ym2612"
    },
    {
      "channel": 0,
      "note": 62,
      "start": 51.7831,
      "duration": 0.0502,
      "velocity": 87,
      "chip": "ym2612"
    },
    {
      "channel": 0,
      "note": 79,
      "start": 51.8517,
      "duration": 0.0502,
      "velocity": 87,
      "chip": "ym2612"
    },
    {
      "channel": 0,
      "note": 62,
      "start": 51.9202,
      "duration": 0.0502,
      "velocity": 87,
      "chip": "ym2612"
    },
    {
      "channel": 0,
      "note": 79,
      "start": 51.9888,
      "duration": 0.0502,
      "velocity": 87,
      "chip": "ym2612"
    },
    {
      "channel": 0,
      "note": 67,
      "start": 52.0574,
      "duration": 0.0502,
      "velocity": 87,
      "chip": "ym2612"
    },
    {
      "channel": 0,
      "note": 79,
      "start": 52.126,
      "duration": 0.0503,
      "velocity": 87,
      "chip": "ym2612"
    },
    {
      "channel": 0,
      "note": 74,
      "start": 52.1946,
      "duration": 0.0503,
      "velocity": 87,
      "chip": "ym2612"
    },
    {
      "channel": 0,
      "note": 79,
      "start": 52.2632,
      "duration": 0.0502,
      "velocity": 87,
      "chip": "ym2612"
    },
    {
      "channel": 0,
      "note": 67,
      "start": 52.3318,
      "duration": 0.0502,
      "velocity": 87,
      "chip": "ym2612"
    },
    {
      "channel": 0,
      "note": 79,
      "start": 52.4004,
      "duration": 0.0502,
      "velocity": 87,
      "chip": "ym2612"
    },
    {
      "channel": 0,
      "note": 64,
      "start": 52.469,
      "duration": 0.0502,
      "velocity": 87,
      "chip": "ym2612"
    },
    {
      "channel": 0,
      "note": 79,
      "start": 52.5376,
      "duration": 0.0502,
      "velocity": 87,
      "chip": "ym2612"
    },
    {
      "channel": 0,
      "note": 62,
      "start": 52.6061,
      "duration": 0.0502,
      "velocity": 87,
      "chip": "ym2612"
    },
    {
      "channel": 0,
      "note": 79,
      "start": 52.6747,
      "duration": 0.0502,
      "velocity": 87,
      "chip": "ym2612"
    },
    {
      "channel": 0,
      "note": 57,
      "start": 52.7433,
      "duration": 0.0502,
      "velocity": 87,
      "chip": "ym2612"
    },
    {
      "channel": 1,
      "note": 67,
      "start": 52.7474,
      "duration": 0.1347,
      "velocity": 99,
      "chip": "ym2612"
    },
    {
      "channel": 2,
      "note": 26,
      "start": 52.7502,
      "duration": 0.3693,
      "velocity": 108,
      "chip": "ym2612"
    },
    {
      "channel": 4,
      "note": 67,
      "start": 52.7794,
      "duration": 0.1345,
      "velocity": 99,
      "chip": "ym2612"
    },
    {
      "channel": 0,
      "note": 79,
      "start": 52.812,
      "duration": 0.0502,
      "velocity": 87,
      "chip": "ym2612"
    },
    {
      "channel": 0,
      "note": 60,
      "start": 52.8806,
      "duration": 0.0501,
      "velocity": 87,
      "chip": "ym2612"
    },
    {
      "channel": 0,
      "note": 79,
      "start": 52.9491,
      "duration": 0.0502,
      "velocity": 87,
      "chip": "ym2612"
    },
    {
      "channel": 1,
      "note": 69,
      "start": 52.9528,
      "duration": 0.135,
      "velocity": 99,
      "chip": "ym2612"
    },
    {
      "channel": 4,
      "note": 69,
      "start": 52.9848,
      "duration": 0.1352,
      "velocity": 99,
      "chip": "ym2612"
    },
    {
      "channel": 0,
      "note": 55,
      "start": 53.0177,
      "duration": 0.0502,
      "velocity": 87,
      "chip": "ym2612"
    },
    {
      "channel": 0,
      "note": 79,
      "start": 53.0863,
      "duration": 0.0502,
      "velocity": 87,
      "chip": "ym2612"
    },
    {
      "channel": 0,
      "note": 50,
      "start": 53.1671,
      "duration": 0.044,
      "velocity": 87,
      "chip": "ym2612"
    },
    {
      "channel": 1,
      "note": 70,
      "start": 53.1707,
      "duration": 0.1288,
      "velocity": 99,
      "chip": "ym2612"
    },
    {
      "channel": 2,
      "note": 29,
      "start": 53.1735,
      "duration": 1.5123,
      "velocity": 108,
      "chip": "ym2612"
    },
    {
      "channel": 4,
      "note": 70,
      "start": 53.1965,
      "duration": 0.1348,
      "velocity": 99,
      "chip": "ym2612"
    },
    {
      "channel": 0,
      "note": 79,
      "start": 53.2295,
      "duration": 0.0502,
      "velocity": 87,
      "chip": "ym2612"
    },
    {
      "channel": 0,
      "note": 55,
      "start": 53.298,
      "duration": 0.0502,
      "velocity": 87,
      "chip": "ym2612"
    },
    {
      "channel": 0,
      "note": 79,
      "start": 53.3666,
      "duration": 0.0502,
      "velocity": 87,
      "chip": "ym2612"
    },
    {
      "channel": 1,
      "note": 67,
      "start": 53.3702,
      "duration": 0.135,
      "velocity": 99,
      "chip": "ym2612"
    },
    {
      "channel": 4,
      "note": 67,
      "start": 53.4022,
      "duration": 0.1348,
      "velocity": 99,
      "chip": "ym2612"
    },
    {
      "channel": 0,
      "note": 62,
      "start": 53.4351,
      "duration": 0.0503,
      "velocity": 87,
      "chip": "ym2612"
    },
    {
      "channel": 0,
      "note": 79,
      "start": 53.5037,
      "duration": 0.0502,
      "velocity": 87,
      "chip": "ym2612"
    },
    {
      "channel": 0,
      "note": 62,
      "start": 53.5723,
      "duration": 0.0502,
      "velocity": 87,
      "chip": "ym2612"
    },
    {
      "channel": 1,
      "note": 63,
      "start": 53.576,
      "duration": 0.1351,
      "velocity": 99,
      "chip": "ym2612"
    },
    {
      "channel": 4,
      "note": 63,
      "start": 53.608,
      "duration": 0.1348,
      "velocity": 99,
      "chip": "ym2612"
    },
    {
      "channel": 0,
      "note": 79,
      "start": 53.6409,
      "duration": 0.0502,
      "velocity": 87,
      "chip": "ym2612"
    },
    {
      "channel": 0,
      "note": 67,
      "start": 53.7094,
      "duration": 0.0502,
      "velocity": 87,
      "chip": "ym2612"
    },
    {
      "channel": 0,
      "note": 79,
      "start": 53.7781,
      "duration": 0.0502,
      "velocity": 87,
      "chip": "ym2612"
    },
    {
      "channel": 1,
      "note": 72,
      "start": 53.7818,
      "duration": 0.135,
      "velocity": 99,
      "chip": "ym2612"
    },
    {
      "channel": 4,
      "note": 72,
      "start": 53.8138,
      "duration": 0.1349,
      "velocity": 99,
      "chip": "ym2612"
    },
    {
      "channel": 0,
      "note": 74,
      "start": 53.8467,
      "duration": 0.0502,
      "velocity": 87,
      "chip": "ym2612"
    },
    {
      "channel": 0,
      "note": 79,
      "start": 53.9153,
      "duration": 0.0502,
      "velocity": 87,
      "chip": "ym2612"
    },
    {
      "channel": 0,
      "note": 67,
      "start": 53.9839,
      "duration": 0.0502,
      "velocity": 87,
      "chip": "ym2612"
    },
    {
      "channel": 0,
      "note": 79,
      "start": 54.0524,
      "duration": 0.0502,
      "velocity": 87,
      "chip": "ym2612"
    },
    {
      "channel": 0,
      "note": 64,
      "start": 54.1211,
      "duration": 0.0501,
      "velocity": 87,
      "chip": "ym2612"
    },
    {
      "channel": 0,
      "note": 79,
      "start": 54.1897,
      "duration": 0.0502,
      "velocity": 87,
      "chip": "ym2612"
    },
    {
      "channel": 1,
      "note": 70,
      "start": 54.1933,
      "duration": 0.1351,
      "velocity": 99,
      "chip": "ym2612"
    },
    {
      "channel": 4,
      "note": 70,
      "start": 54.2252,
      "duration": 0.1349,
      "velocity": 99,
      "chip": "ym2612"
    },
    {
      "channel": 0,
      "note": 62,
      "start": 54.2582,
      "duration": 0.0502,
      "velocity": 87,
      "chip": "ym2612"
    },
    {
      "channel": 0,
      "note": 79,
      "start": 54.3267,
      "duration": 0.0502,
      "velocity": 87,
      "chip": "ym2612"
    },
    {
      "channel": 0,
      "note": 57,
      "start": 54.3954,
      "duration": 0.0502,
      "velocity": 87,
      "chip": "ym2612"
    },
    {
      "channel": 1,
      "note": 69,
      "start": 54.3991,
      "duration": 0.135,
      "velocity": 99,
      "chip": "ym2612"
    },
    {
      "channel": 4,
      "note": 69,
      "start": 54.4311,
      "duration": 0.1348,
      "velocity": 99,
      "chip": "ym2612"
    },
    {
      "channel": 0,
      "note": 79,
      "start": 54.4639,
      "duration": 0.0502,
      "velocity": 87,
      "chip": "ym2612"
    },
    {
      "channel": 0,
      "note": 60,
      "start": 54.5325,
      "duration": 0.0502,
      "velocity": 87,
      "chip": "ym2612"
    },
    {
      "channel": 0,
      "note": 79,
      "start": 54.6011,
      "duration": 0.0503,
      "velocity": 87,
      "chip": "ym2612"
    },
    {
      "channel": 1,
      "note": 67,
      "start": 54.6052,
      "duration": 1.1464,
      "velocity": 99,
      "chip": "ym2612"
    },
    {
      "channel": 4,
      "note": 67,
      "start": 54.6371,
      "duration": 1.1485,
      "velocity": 99,
      "chip": "ym2612"
    },
    {
      "channel": 0,
      "note": 55,
      "start": 54.6697,
      "duration": 0.0502,
      "velocity": 87,
      "chip": "ym2612"
    },
    {
      "channel": 0,
      "note": 79,
      "start": 54.7383,
      "duration": 0.0502,
      "velocity": 87,
      "chip": "ym2612"
    },
    {
      "channel": 0,
      "note": 50,
      "start": 54.819,
      "duration": 0.0405,
      "velocity": 87,
      "chip": "ym2612"
    },
    {
      "channel": 2,
      "note": 34,
      "start": 54.8219,
      "duration": 1.5124,
      "velocity": 108,
      "chip": "ym2612"
    },
    {
      "channel": 0,
      "note": 79,
      "start": 54.8779,
      "duration": 0.0502,
      "velocity": 87,
      "chip": "ym2612"
    },
    {
      "channel": 0,
      "note": 55,
      "start": 54.9465,
      "duration": 0.0502,
      "velocity": 87,
      "chip": "ym2612"
    },
    {
      "channel": 0,
      "note": 79,
      "start": 55.015,
      "duration": 0.0502,
      "velocity": 87,
      "chip": "ym2612"
    },
    {
      "channel": 0,
      "note": 62,
      "start": 55.0836,
      "duration": 0.0502,
      "velocity": 87,
      "chip": "ym2612"
    },
    {
      "channel": 0,
      "note": 79,
      "start": 55.1522,
      "duration": 0.0502,
      "velocity": 87,
      "chip": "ym2612"
    },
    {
      "channel": 0,
      "note": 62,
      "start": 55.2207,
      "duration": 0.0503,
      "velocity": 87,
      "chip": "ym2612"
    },
    {
      "channel": 0,
      "note": 79,
      "start": 55.2893,
      "duration": 0.0503,
      "velocity": 87,
      "chip": "ym2612"
    },
    {
      "channel": 0,
      "note": 67,
      "start": 55.3579,
      "duration": 0.0502,
      "velocity": 87,
      "chip": "ym2612"
    },
    {
      "channel": 0,
      "note": 79,
      "start": 55.4265,
      "duration": 0.0502,
      "velocity": 87,
      "chip": "ym2612"
    },
    {
      "channel": 0,
      "note": 74,
      "start": 55.4951,
      "duration": 0.0502,
      "velocity": 87,
      "chip": "ym2612"
    },
    {
      "channel": 0,
      "note": 79,
      "start": 55.5637,
      "duration": 0.0502,
      "velocity": 87,
      "chip": "ym2612"
    },
    {
      "channel": 0,
      "note": 67,
      "start": 55.6323,
      "duration": 0.0502,
      "velocity": 87,
      "chip": "ym2612"
    },
    {
      "channel": 0,
      "note": 79,
      "start": 55.7008,
      "duration": 0.0502,
      "velocity": 87,
      "chip": "ym2612"
    },
    {
      "channel": 0,
      "note": 64,
      "start": 55.7694,
      "duration": 0.0502,
      "velocity": 87,
      "chip": "ym2612"
    },
    {
      "channel": 0,
      "note": 79,
      "start": 55.838,
      "duration": 0.0502,
      "velocity": 87,
      "chip": "ym2612"
    },
    {
      "channel": 0,
      "note": 62,
      "start": 55.9066,
      "duration": 0.0502,
      "velocity": 87,
      "chip": "ym2612"
    },
    {
      "channel": 0,
      "note": 79,
      "start": 55.9752,
      "duration": 0.0501,
      "velocity": 87,
      "chip": "ym2612"
    },
    {
      "channel": 0,
      "note": 57,
      "start": 56.0438,
      "duration": 0.0502,
      "velocity": 87,
      "chip": "ym2612"
    },
    {
      "channel": 1,
      "note": 72,
      "start": 56.0478,
      "duration": 0.1347,
      "velocity": 99,
      "chip": "ym2612"
    },
    {
      "channel": 4,
      "note": 72,
      "start": 56.0798,
      "duration": 0.1346,
      "velocity": 99,
      "chip": "ym2612"
    },
    {
      "channel": 0,
      "note": 79,
      "start": 56.1124,
      "duration": 0.0502,
      "velocity": 87,
      "chip": "ym2612"
    },
    {
      "channel": 0,
      "note": 60,
      "start": 56.1811,
      "duration": 0.0502,
      "velocity": 87,
      "chip": "ym2612"
    },
    {
      "channel": 0,
      "note": 79,
      "start": 56.2497,
      "duration": 0.0502,
      "velocity": 87,
      "chip": "ym2612"
    },
    {
      "channel": 1,
      "note": 74,
      "start": 56.2533,
      "duration": 0.135,
      "velocity": 99,
      "chip": "ym2612"
    },
    {
      "channel": 4,
      "note": 74,
      "start": 56.2853,
      "duration": 0.1348,
      "velocity": 99,
      "chip": "ym2612"
    },
    {
      "channel": 0,
      "note": 55,
      "start": 56.3182,
      "duration": 0.0502,
      "velocity": 87,
      "chip": "ym2612"
    },
    {
      "channel": 0,
      "note": 79,
      "start": 56.3868,
      "duration": 0.0501,
      "velocity": 87,
      "chip": "ym2612"
    },
    {
      "channel": 0,
      "note": 50,
      "start": 56.4676,
      "duration": 0.044,
      "velocity": 87,
      "chip": "ym2612"
    },
    {
      "channel": 1,
      "note": 75,
      "start": 56.4713,
      "duration": 0.1288,
      "velocity": 99,
      "chip": "ym2612"
    },
    {
      "channel": 2,
      "note": 24,
      "start": 56.474,
      "duration": 0.7438,
      "velocity": 108,
      "chip": "ym2612"
    },
    {
      "channel": 4,
      "note": 75,
      "start": 56.497,
      "duration": 0.1349,
      "velocity": 99,
      "chip": "ym2612"
    },
    {
      "channel": 0,
      "note": 79,
      "start": 56.53,
      "duration": 0.0502,
      "velocity": 87,
      "chip": "ym2612"
    },
    {
      "channel": 0,
      "note": 55,
      "start": 56.5985,
      "duration": 0.0502,
      "velocity": 87,
      "chip": "ym2612"
    },
    {
      "channel": 0,
      "note": 79,
      "start": 56.6672,
      "duration": 0.0502,
      "velocity": 87,
      "chip": "ym2612"
    },
    {
      "channel": 1,
      "note": 74,
      "start": 56.6708,
      "duration": 0.135,
      "velocity": 99,
      "chip": "ym2612"
    },
    {
      "channel": 4,
      "note": 74,
      "start": 56.7028,
      "duration": 0.1348,
      "velocity": 99,
      "chip": "ym2612"
    },
    {
      "channel": 0,
      "note": 62,
      "start": 56.7357,
      "duration": 0.0502,
      "velocity": 87,
      "chip": "ym2612"
    },
    {
      "channel": 0,
      "note": 79,
      "start": 56.8043,
      "duration": 0.0502,
      "velocity": 87,
      "chip": "ym2612"
    },
    {
      "channel": 0,
      "note": 62,
      "start": 56.8729,
      "duration": 0.0502,
      "velocity": 87,
      "chip": "ym2612"
    },
    {
      "channel": 1,
      "note": 72,
      "start": 56.8766,
      "duration": 0.135,
      "velocity": 99,
      "chip": "ym2612"
    },
    {
      "channel": 4,
      "note": 72,
      "start": 56.9085,
      "duration": 0.1348,
      "velocity": 99,
      "chip": "ym2612"
    },
    {
      "channel": 0,
      "note": 79,
      "start": 56.9414,
      "duration": 0.0502,
      "velocity": 87,
      "chip": "ym2612"
    },
    {
      "channel": 0,
      "note": 67,
      "start": 57.01,
      "duration": 0.0502,
      "velocity": 87,
      "chip": "ym2612"
    },
    {
      "channel": 0,
      "note": 79,
      "start": 57.0786,
      "duration": 0.0502,
      "velocity": 87,
      "chip": "ym2612"
    },
    {
      "channel": 1,
      "note": 77,
      "start": 57.0823,
      "duration": 0.135,
      "velocity": 99,
      "chip": "ym2612"
    },
    {
      "channel": 4,
      "note": 77,
      "start": 57.1143,
      "duration": 0.1347,
      "velocity": 99,
      "chip": "ym2612"
    },
    {
      "channel": 0,
      "note": 74,
      "start": 57.1472,
      "duration": 0.0503,
      "velocity": 87,
      "chip": "ym2612"
    },
    {
      "channel": 0,
      "note": 79,
      "start": 57.2158,
      "duration": 0.0502,
      "velocity": 87,
      "chip": "ym2612"
    },
    {
      "channel": 0,
      "note": 67,
      "start": 57.2844,
      "duration": 0.0502,
      "velocity": 87,
      "chip": "ym2612"
    },
    {
      "channel": 2,
      "note": 26,
      "start": 57.2877,
      "duration": 0.7527,
      "velocity": 108,
      "chip": "ym2612"
    },
    {
      "channel": 0,
      "note": 79,
      "start": 57.353,
      "duration": 0.0501,
      "velocity": 87,
      "chip": "ym2612"
    },
    {
      "channel": 0,
      "note": 64,
      "start": 57.4216,
      "duration": 0.0501,
      "velocity": 87,
      "chip": "ym2612"
    },
    {
      "channel": 0,
      "note": 79,
      "start": 57.4902,
      "duration": 0.0502,
      "velocity": 87,
      "chip": "ym2612"
    },
    {
      "channel": 1,
      "note": 75,
      "start": 57.4938,
      "duration": 0.1351,
      "velocity": 99,
      "chip": "ym2612"
    },
    {
      "channel": 4,
      "note": 75,
      "start": 57.5258,
      "duration": 0.1348,
      "velocity": 99,
      "chip": "ym2612"
    },
    {
      "channel": 0,
      "note": 62,
      "start": 57.5587,
      "duration": 0.0502,
      "velocity": 87,
      "chip": "ym2612"
    },
    {
      "channel": 0,
      "note": 79,
      "start": 57.6273,
      "duration": 0.0501,
      "velocity": 87,
      "chip": "ym2612"
    },
    {
      "channel": 0,
      "note": 57,
      "start": 57.6959,
      "duration": 0.0502,
      "velocity": 87,
      "chip": "ym2612"
    },
    {
      "channel": 1,
      "note": 77,
      "start": 57.6996,
      "duration": 0.1351,
      "velocity": 99,
      "chip": "ym2612"
    },
    {
      "channel": 4,
      "note": 77,
      "start": 57.7316,
      "duration": 0.1349,
      "velocity": 99,
      "chip": "ym2612"
    },
    {
      "channel": 0,
      "note": 79,
      "start": 57.7645,
      "duration": 0.0502,
      "velocity": 87,
      "chip": "ym2612"
    },
    {
      "channel": 0,
      "note": 60,
      "start": 57.8331,
      "duration": 0.0502,
      "velocity": 87,
      "chip": "ym2612"
    },
    {
      "channel": 0,
      "note": 79,
      "start": 57.9017,
      "duration": 0.0502,
      "velocity": 87,
      "chip": "ym2612"
    },
    {
      "channel": 1,
      "note": 79,
      "start": 57.9057,
      "duration": 1.5234,
      "velocity": 99,
      "chip": "ym2612"
    },
    {
      "channel": 4,
      "note": 79,
      "start": 57.9377,
      "duration": 1.5263,
      "velocity": 99,
      "chip": "ym2612"
    },
    {
      "channel": 0,
      "note": 55,
      "start": 57.9702,
      "duration": 0.0502,
      "velocity": 87,
      "chip": "ym2612"
    },
    {
      "channel": 0,
      "note": 79,
      "start": 58.0388,
      "duration": 0.0502,
      "velocity": 87,
      "chip": "ym2612"
    },
    {
      "channel": 0,
      "note": 50,
      "start": 58.1196,
      "duration": 0.0405,
      "velocity": 87,
      "chip": "ym2612"
    },
    {
      "channel": 2,
      "note": 31,
      "start": 58.1225,
      "duration": 1.5124,
      "velocity": 108,
      "chip": "ym2612"
    },
    {
      "channel": 0,
      "note": 79,
      "start": 58.1785,
      "duration": 0.0502,
      "velocity": 87,
      "chip": "ym2612"
    },
    {
      "channel": 0,
      "note": 55,
      "start": 58.247,
      "duration": 0.0502,
      "velocity": 87,
      "chip": "ym2612"
    },
    {
      "channel": 0,
      "note": 79,
      "start": 58.3156,
      "duration": 0.0502,
      "velocity": 87,
      "chip": "ym2612"
    },
    {
      "channel": 0,
      "note": 62,
      "start": 58.3842,
      "duration": 0.0502,
      "velocity": 87,
      "chip": "ym2612"
    },
    {
      "channel": 0,
      "note": 79,
      "start": 58.4527,
      "duration": 0.0503,
      "velocity": 87,
      "chip": "ym2612"
    },
    {
      "channel": 0,
      "note": 62,
      "start": 58.5213,
      "duration": 0.0502,
      "velocity": 87,
      "chip": "ym2612"
    },
    {
      "channel": 0,
      "note": 79,
      "start": 58.5899,
      "duration": 0.0502,
      "velocity": 87,
      "chip": "ym2612"
    },
    {
      "channel": 0,
      "note": 67,
      "start": 58.6585,
      "duration": 0.0502,
      "velocity": 87,
      "chip": "ym2612"
    },
    {
      "channel": 0,
      "note": 79,
      "start": 58.7271,
      "duration": 0.0502,
      "velocity": 87,
      "chip": "ym2612"
    },
    {
      "channel": 0,
      "note": 74,
      "start": 58.7958,
      "duration": 0.0502,
      "velocity": 87,
      "chip": "ym2612"
    },
    {
      "channel": 0,
      "note": 79,
      "start": 58.8644,
      "duration": 0.0502,
      "velocity": 87,
      "chip": "ym2612"
    },
    {
      "channel": 0,
      "note": 67,
      "start": 58.933,
      "duration": 0.0502,
      "velocity": 87,
      "chip": "ym2612"
    },
    {
      "channel": 0,
      "note": 79,
      "start": 59.0015,
      "duration": 0.0502,
      "velocity": 87,
      "chip": "ym2612"
    },
    {
      "channel": 0,
      "note": 64,
      "start": 59.0701,
      "duration": 0.0502,
      "velocity": 87,
      "chip": "ym2612"
    },
    {
      "channel": 0,
      "note": 79,
      "start": 59.1387,
      "duration": 0.0503,
      "velocity": 87,
      "chip": "ym2612"
    },
    {
      "channel": 0,
      "note": 62,
      "start": 59.2073,
      "duration": 0.0502,
      "velocity": 87,
      "chip": "ym2612"
    },
    {
      "channel": 0,
      "note": 79,
      "start": 59.2759,
      "duration": 0.0502,
      "velocity": 87,
      "chip": "ym2612"
    },
    {
      "channel": 0,
      "note": 57,
      "start": 59.3445,
      "duration": 0.0502,
      "velocity": 87,
      "chip": "ym2612"
    },
    {
      "channel": 0,
      "note": 79,
      "start": 59.4131,
      "duration": 0.0502,
      "velocity": 87,
      "chip": "ym2612"
    },
    {
      "channel": 0,
      "note": 60,
      "start": 59.4817,
      "duration": 0.0501,
      "velocity": 87,
      "chip": "ym2612"
    },
    {
      "channel": 0,
      "note": 79,
      "start": 59.5503,
      "duration": 0.0501,
      "velocity": 87,
      "chip": "ym2612"
    },
    {
      "channel": 0,
      "note": 55,
      "start": 59.6188,
      "duration": 0.0501,
      "velocity": 87,
      "chip": "ym2612"
    },
    {
      "channel": 0,
      "note": 79,
      "start": 59.6874,
      "duration": 0.0566,
      "velocity": 87,
      "chip": "ym2612"
    },
    {
      "channel": 4,
      "note": 55,
      "start": 59.7429,
      "duration": 0.9959,
      "velocity": 99,
      "chip": "ym2612"
    },
    {
      "channel": 0,
      "note": 50,
      "start": 59.7682,
      "duration": 0.0445,
      "velocity": 87,
      "chip": "ym2612"
    },
    {
      "channel": 1,
      "note": 62,
      "start": 59.7723,
      "duration": 0.9834,
      "velocity": 99,
      "chip": "ym2612"
    },
    {
      "channel": 2,
      "note": 24,
      "start": 59.775,
      "duration": 1.5124,
      "velocity": 108,
      "chip": "ym2612"
    },
    {
      "channel": 0,
      "note": 79,
      "start": 59.8311,
      "duration": 0.0502,
      "velocity": 87,
      "chip": "ym2612"
    },
    {
      "channel": 0,
      "note": 55,
      "start": 59.8996,
      "duration": 0.0502,
      "velocity": 87,
      "chip": "ym2612"
    },
    {
      "channel": 0,
      "note": 79,
      "start": 59.9682,
      "duration": 0.0502,
      "velocity": 87,
      "chip": "ym2612"
    },
    {
      "channel": 0,
      "note": 62,
      "start": 60.0368,
      "duration": 0.0502,
      "velocity": 87,
      "chip": "ym2612"
    },
    {
      "channel": 0,
      "note": 79,
      "start": 60.1054,
      "duration": 0.0503,
      "velocity": 87,
      "chip": "ym2612"
    },
    {
      "channel": 0,
      "note": 62,
      "start": 60.1739,
      "duration": 0.0502,
      "velocity": 87,
      "chip": "ym2612"
    },
    {
      "channel": 0,
      "note": 79,
      "start": 60.2425,
      "duration": 0.0502,
      "velocity": 87,
      "chip": "ym2612"
    },
    {
      "channel": 0,
      "note": 67,
      "start": 60.3112,
      "duration": 0.0502,
      "velocity": 87,
      "chip": "ym2612"
    },
    {
      "channel": 0,
      "note": 79,
      "start": 60.3798,
      "duration": 0.0502,
      "velocity": 87,
      "chip": "ym2612"
    },
    {
      "channel": 0,
      "note": 74,
      "start": 60.4483,
      "duration": 0.0502,
      "velocity": 87,
      "chip": "ym2612"
    },
    {
      "channel": 0,
      "note": 79,
      "start": 60.5169,
      "duration": 0.0502,
      "velocity": 87,
      "chip": "ym2612"
    },
    {
      "channel": 0,
      "note": 67,
      "start": 60.5854,
      "duration": 0.0503,
      "velocity": 87,
      "chip": "ym2612"
    },
    {
      "channel": 0,
      "note": 79,
      "start": 60.654,
      "duration": 0.0502,
      "velocity": 87,
      "chip": "ym2612"
    },
    {
      "channel": 0,
      "note": 64,
      "start": 60.7226,
      "duration": 0.0502,
      "velocity": 87,
      "chip": "ym2612"
    },
    {
      "channel": 0,
      "note": 79,
      "start": 60.7912,
      "duration": 0.0501,
      "velocity": 87,
      "chip": "ym2612"
    },
    {
      "channel": 0,
      "note": 62,
      "start": 60.8598,
      "duration": 0.0501,
      "velocity": 87,
      "chip": "ym2612"
    },
    {
      "channel": 0,
      "note": 79,
      "start": 60.9284,
      "duration": 0.0539,
      "velocity": 87,
      "chip": "ym2612"
    },
    {
      "channel": 4,
      "note": 62,
      "start": 60.9812,
      "duration": 0.3234,
      "velocity": 99,
      "chip": "ym2612"
    },
    {
      "channel": 0,
      "note": 57,
      "start": 60.997,
      "duration": 0.0502,
      "velocity": 87,
      "chip": "ym2612"
    },
    {
      "channel": 1,
      "note": 67,
      "start": 61.0007,
      "duration": 0.3213,
      "velocity": 99,
      "chip": "ym2612"
    },
    {
      "channel": 0,
      "note": 79,
      "start": 61.0655,
      "duration": 0.0503,
      "velocity": 87,
      "chip": "ym2612"
    },
    {
      "channel": 0,
      "note": 60,
      "start": 61.1341,
      "duration": 0.0503,
      "velocity": 87,
      "chip": "ym2612"
    },
    {
      "channel": 0,
      "note": 79,
      "start": 61.2027,
      "duration": 0.0502,
      "velocity": 87,
      "chip": "ym2612"
    },
    {
      "channel": 0,
      "note": 55,
      "start": 61.2713,
      "duration": 0.0502,
      "velocity": 87,
      "chip": "ym2612"
    },
    {
      "channel": 0,
      "note": 79,
      "start": 61.3398,
      "duration": 0.0539,
      "velocity": 87,
      "chip": "ym2612"
    },
    {
      "channel": 4,
      "note": 62,
      "start": 61.3926,
      "duration": 1.0005,
      "velocity": 99,
      "chip": "ym2612"
    },
    {
      "channel": 0,
      "note": 50,
      "start": 61.4206,
      "duration": 0.0463,
      "velocity": 87,
      "chip": "ym2612"
    },
    {
      "channel": 1,
      "note": 69,
      "start": 61.4266,
      "duration": 0.9834,
      "velocity": 99,
      "chip": "ym2612"
    },
    {
      "channel": 2,
      "note": 26,
      "start": 61.4294,
      "duration": 1.5122,
      "velocity": 108,
      "chip": "ym2612"
    },
    {
      "channel": 0,
      "note": 79,
      "start": 61.4853,
      "duration": 0.0502,
      "velocity": 87,
      "chip": "ym2612"
    },
    {
      "channel": 0,
      "note": 55,
      "start": 61.5539,
      "duration": 0.0502,
      "velocity": 87,
      "chip": "ym2612"
    },
    {
      "channel": 0,
      "note": 79,
      "start": 61.6225,
      "duration": 0.0502,
      "velocity": 87,
      "chip": "ym2612"
    },
    {
      "channel": 0,
      "note": 62,
      "start": 61.691,
      "duration": 0.0502,
      "velocity": 87,
      "chip": "ym2612"
    },
    {
      "channel": 0,
      "note": 79,
      "start": 61.7596,
      "duration": 0.0503,
      "velocity": 87,
      "chip": "ym2612"
    },
    {
      "channel": 0,
      "note": 62,
      "start": 61.8283,
      "duration": 0.0503,
      "velocity": 87,
      "chip": "ym2612"
    },
    {
      "channel": 0,
      "note": 79,
      "start": 61.8968,
      "duration": 0.0502,
      "velocity": 87,
      "chip": "ym2612"
    },
    {
      "channel": 0,
      "note": 67,
      "start": 61.9654,
      "duration": 0.0502,
      "velocity": 87,
      "chip": "ym2612"
    },
    {
      "channel": 0,
      "note": 79,
      "start": 62.034,
      "duration": 0.0502,
      "velocity": 87,
      "chip": "ym2612"
    },
    {
      "channel": 0,
      "note": 74,
      "start": 62.1026,
      "duration": 0.0502,
      "velocity": 87,
      "chip": "ym2612"
    },
    {
      "channel": 0,
      "note": 79,
      "start": 62.1711,
      "duration": 0.0502,
      "velocity": 87,
      "chip": "ym2612"
    },
    {
      "channel": 0,
      "note": 67,
      "start": 62.2397,
      "duration": 0.0503,
      "velocity": 87,
      "chip": "ym2612"
    },
    {
      "channel": 0,
      "note": 79,
      "start": 62.3083,
      "duration": 0.0503,
      "velocity": 87,
      "chip": "ym2612"
    },
    {
      "channel": 0,
      "note": 64,
      "start": 62.3769,
      "duration": 0.0502,
      "velocity": 87,
      "chip": "ym2612"
    },
    {
      "channel": 0,
      "note": 79,
      "start": 62.4455,
      "duration": 0.0502,
      "velocity": 87,
      "chip": "ym2612"
    },
    {
      "channel": 0,
      "note": 62,
      "start": 62.5141,
      "duration": 0.0502,
      "velocity": 87,
      "chip": "ym2612"
    },
    {
      "channel": 0,
      "note": 79,
      "start": 62.5827,
      "duration": 0.0539,
      "velocity": 87,
      "chip": "ym2612"
    },
    {
      "channel": 4,
      "note": 67,
      "start": 62.6354,
      "duration": 0.3234,
      "velocity": 99,
      "chip": "ym2612"
    },
    {
      "channel": 0,
      "note": 57,
      "start": 62.6512,
      "duration": 0.0502,
      "velocity": 87,
      "chip": "ym2612"
    },
    {
      "channel": 1,
      "note": 74,
      "start": 62.6549,
      "duration": 0.3213,
      "velocity": 99,
      "chip": "ym2612"
    },
    {
      "channel": 0,
      "note": 79,
      "start": 62.7198,
      "duration": 0.0502,
      "velocity": 87,
      "chip": "ym2612"
    },
    {
      "channel": 0,
      "note": 60,
      "start": 62.7884,
      "duration": 0.0503,
      "velocity": 87,
      "chip": "ym2612"
    },
    {
      "channel": 0,
      "note": 79,
      "start": 62.857,
      "duration": 0.0502,
      "velocity": 87,
      "chip": "ym2612"
    },
    {
      "channel": 0,
      "note": 55,
      "start": 62.9255,
      "duration": 0.0502,
      "velocity": 87,
      "chip": "ym2612"
    },
    {
      "channel": 0,
      "note": 79,
      "start": 62.9941,
      "duration": 0.0539,
      "velocity": 87,
      "chip": "ym2612"
    },
    {
      "channel": 4,
      "note": 62,
      "start": 63.047,
      "duration": 0.9982,
      "velocity": 99,
      "chip": "ym2612"
    },
    {
      "channel": 0,
      "note": 50,
      "start": 63.0749,
      "duration": 0.0441,
      "velocity": 87,
      "chip": "ym2612"
    },
    {
      "channel": 1,
      "note": 67,
      "start": 63.0786,
      "duration": 0.9834,
      "velocity": 99,
      "chip": "ym2612"
    },
    {
      "channel": 2,
      "note": 31,
      "start": 63.0815,
      "duration": 1.1354,
      "velocity": 108,
      "chip": "ym2612"
    },
    {
      "channel": 0,
      "note": 79,
      "start": 63.1373,
      "duration": 0.0502,
      "velocity": 87,
      "chip": "ym2612"
    },
    {
      "channel": 0,
      "note": 55,
      "start": 63.2059,
      "duration": 0.0502,
      "velocity": 87,
      "chip": "ym2612"
    },
    {
      "channel": 0,
      "note": 79,
      "start": 63.2744,
      "duration": 0.0502,
      "velocity": 87,
      "chip": "ym2612"
    },
    {
      "channel": 0,
      "note": 62,
      "start": 63.343,
      "duration": 0.0502,
      "velocity": 87,
      "chip": "ym2612"
    },
    {
      "channel": 0,
      "note": 79,
      "start": 63.4117,
      "duration": 0.0502,
      "velocity": 87,
      "chip": "ym2612"
    },
    {
      "channel": 0,
      "note": 62,
      "start": 63.4802,
      "duration": 0.0503,
      "velocity": 87,
      "chip": "ym2612"
    },
    {
      "channel": 0,
      "note": 79,
      "start": 63.5488,
      "duration": 0.0503,
      "velocity": 87,
      "chip": "ym2612"
    },
    {
      "channel": 0,
      "note": 67,
      "start": 63.6174,
      "duration": 0.0502,
      "velocity": 87,
      "chip": "ym2612"
    },
    {
      "channel": 0,
      "note": 79,
      "start": 63.686,
      "duration": 0.0502,
      "velocity": 87,
      "chip": "ym2612"
    },
    {
      "channel": 0,
      "note": 74,
      "start": 63.7545,
      "duration": 0.0502,
      "velocity": 87,
      "chip": "ym2612"
    },
    {
      "channel": 0,
      "note": 79,
      "start": 63.8231,
      "duration": 0.0502,
      "velocity": 87,
      "chip": "ym2612"
    },
    {
      "channel": 0,
      "note": 67,
      "start": 63.8917,
      "duration": 0.0503,
      "velocity": 87,
      "chip": "ym2612"
    },
    {
      "channel": 0,
      "note": 79,
      "start": 63.9602,
      "duration": 0.0503,
      "velocity": 87,
      "chip": "ym2612"
    },
    {
      "channel": 0,
      "note": 64,
      "start": 64.0289,
      "duration": 0.0502,
      "velocity": 87,
      "chip": "ym2612"
    },
    {
      "channel": 0,
      "note": 79,
      "start": 64.0975,
      "duration": 0.0501,
      "velocity": 87,
      "chip": "ym2612"
    },
    {
      "channel": 0,
      "note": 62,
      "start": 64.1661,
      "duration": 0.0501,
      "velocity": 87,
      "chip": "ym2612"
    },
    {
      "channel": 0,
      "note": 79,
      "start": 64.2347,
      "duration": 0.0543,
      "velocity": 87,
      "chip": "ym2612"
    },
    {
      "channel": 4,
      "note": 62,
      "start": 64.2878,
      "duration": 0.135,
      "velocity": 99,
      "chip": "ym2612"
    },
    {
      "channel": 0,
      "note": 57,
      "start": 64.3033,
      "duration": 0.0502,
      "velocity": 87,
      "chip": "ym2612"
    },
    {
      "channel": 1,
      "note": 67,
      "start": 64.3073,
      "duration": 0.1346,
      "velocity": 99,
      "chip": "ym2612"
    },
    {
      "channel": 2,
      "note": 26,
      "start": 64.3101,
      "duration": 0.3694,
      "velocity": 108,
      "chip": "ym2612"
    },
    {
      "channel": 0,
      "note": 79,
      "start": 64.3718,
      "duration": 0.0502,
      "velocity": 87,
      "chip": "ym2612"
    },
    {
      "channel": 0,
      "note": 60,
      "start": 64.4404,
      "duration": 0.0539,
      "velocity": 87,
      "chip": "ym2612"
    },
    {
      "channel": 4,
      "note": 62,
      "start": 64.4932,
      "duration": 0.1354,
      "velocity": 99,
      "chip": "ym2612"
    },
    {
      "channel": 0,
      "note": 79,
      "start": 64.509,
      "duration": 0.0503,
      "velocity": 87,
      "chip": "ym2612"
    },
    {
      "channel": 1,
      "note": 69,
      "start": 64.5127,
      "duration": 0.135,
      "velocity": 99,
      "chip": "ym2612"
    },
    {
      "channel": 0,
      "note": 55,
      "start": 64.5776,
      "duration": 0.0503,
      "velocity": 87,
      "chip": "ym2612"
    },
    {
      "channel": 0,
      "note": 79,
      "start": 64.6463,
      "duration": 0.0539,
      "velocity": 87,
      "chip": "ym2612"
    },
    {
      "channel": 4,
      "note": 67,
      "start": 64.6991,
      "duration": 0.1413,
      "velocity": 99,
      "chip": "ym2612"
    },
    {
      "channel": 0,
      "note": 50,
      "start": 64.727,
      "duration": 0.0441,
      "velocity": 87,
      "chip": "ym2612"
    },
    {
      "channel": 1,
      "note": 70,
      "start": 64.7307,
      "duration": 0.1288,
      "velocity": 99,
      "chip": "ym2612"
    },
    {
      "channel": 2,
      "note": 29,
      "start": 64.7335,
      "duration": 1.5126,
      "velocity": 108,
      "chip": "ym2612"
    },
    {
      "channel": 0,
      "note": 79,
      "start": 64.7895,
      "duration": 0.0502,
      "velocity": 87,
      "chip": "ym2612"
    },
    {
      "channel": 0,
      "note": 55,
      "start": 64.858,
      "duration": 0.0539,
      "velocity": 87,
      "chip": "ym2612"
    },
    {
      "channel": 4,
      "note": 63,
      "start": 64.9108,
      "duration": 0.1354,
      "velocity": 99,
      "chip": "ym2612"
    },
    {
      "channel": 0,
      "note": 79,
      "start": 64.9266,
      "duration": 0.0503,
      "velocity": 87,
      "chip": "ym2612"
    },
    {
      "channel": 1,
      "note": 67,
      "start": 64.9304,
      "duration": 0.1351,
      "velocity": 99,
      "chip": "ym2612"
    },
    {
      "channel": 0,
      "note": 62,
      "start": 64.9952,
      "duration": 0.0503,
      "velocity": 87,
      "chip": "ym2612"
    },
    {
      "channel": 0,
      "note": 79,
      "start": 65.0639,
      "duration": 0.0539,
      "velocity": 87,
      "chip": "ym2612"
    },
    {
      "channel": 4,
      "note": 58,
      "start": 65.1167,
      "duration": 0.1353,
      "velocity": 99,
      "chip": "ym2612"
    },
    {
      "channel": 0,
      "note": 62,
      "start": 65.1325,
      "duration": 0.0502,
      "velocity": 87,
      "chip": "ym2612"
    },
    {
      "channel": 1,
      "note": 63,
      "start": 65.1361,
      "duration": 0.1351,
      "velocity": 99,
      "chip": "ym2612"
    },
    {
      "channel": 0,
      "note": 79,
      "start": 65.2011,
      "duration": 0.0502,
      "velocity": 87,
      "chip": "ym2612"
    },
    {
      "channel": 0,
      "note": 67,
      "start": 65.2697,
      "duration": 0.0539,
      "velocity": 87,
      "chip": "ym2612"
    },
    {
      "channel": 4,
      "note": 65,
      "start": 65.3225,
      "duration": 0.1353,
      "velocity": 99,
      "chip": "ym2612"
    },
    {
      "channel": 0,
      "note": 79,
      "start": 65.3383,
      "duration": 0.0502,
      "velocity": 87,
      "chip": "ym2612"
    },
    {
      "channel": 1,
      "note": 72,
      "start": 65.342,
      "duration": 0.135,
      "velocity": 99,
      "chip": "ym2612"
    },
    {
      "channel": 0,
      "note": 74,
      "start": 65.4069,
      "duration": 0.0502,
      "velocity": 87,
      "chip": "ym2612"
    },
    {
      "channel": 0,
      "note": 79,
      "start": 65.4755,
      "duration": 0.0506,
      "velocity": 87,
      "chip": "ym2612"
    },
    {
      "channel": 0,
      "note": 67,
      "start": 65.544,
      "duration": 0.0502,
      "velocity": 87,
      "chip": "ym2612"
    },
    {
      "channel": 0,
      "note": 79,
      "start": 65.6127,
      "duration": 0.0502,
      "velocity": 87,
      "chip": "ym2612"
    },
    {
      "channel": 0,
      "note": 64,
      "start": 65.6812,
      "duration": 0.0539,
      "velocity": 87,
      "chip": "ym2612"
    },
    {
      "channel": 4,
      "note": 67,
      "start": 65.734,
      "duration": 0.1354,
      "velocity": 99,
      "chip": "ym2612"
    },
    {
      "channel": 0,
      "note": 79,
      "start": 65.7498,
      "duration": 0.0503,
      "velocity": 87,
      "chip": "ym2612"
    },
    {
      "channel": 1,
      "note": 70,
      "start": 65.7535,
      "duration": 0.135,
      "velocity": 99,
      "chip": "ym2612"
    },
    {
      "channel": 0,
      "note": 62,
      "start": 65.8184,
      "duration": 0.0502,
      "velocity": 87,
      "chip": "ym2612"
    },
    {
      "channel": 0,
      "note": 79,
      "start": 65.887,
      "duration": 0.0539,
      "velocity": 87,
      "chip": "ym2612"
    },
    {
      "channel": 4,
      "note": 65,
      "start": 65.9398,
      "duration": 0.1353,
      "velocity": 99,
      "chip": "ym2612"
    },
    {
      "channel": 0,
      "note": 57,
      "start": 65.9556,
      "duration": 0.0502,
      "velocity": 87,
      "chip": "ym2612"
    },
    {
      "channel": 1,
      "note": 69,
      "start": 65.9593,
      "duration": 0.1351,
      "velocity": 99,
      "chip": "ym2612"
    },
    {
      "channel": 0,
      "note": 79,
      "start": 66.0242,
      "duration": 0.0502,
      "velocity": 87,
      "chip": "ym2612"
    },
    {
      "channel": 0,
      "note": 60,
      "start": 66.0928,
      "duration": 0.0543,
      "velocity": 87,
      "chip": "ym2612"
    },
    {
      "channel": 4,
      "note": 62,
      "start": 66.1459,
      "duration": 1.1501,
      "velocity": 99,
      "chip": "ym2612"
    },
    {
      "channel": 0,
      "note": 79,
      "start": 66.1614,
      "duration": 0.0502,
      "velocity": 87,
      "chip": "ym2612"
    },
    {
      "channel": 1,
      "note": 67,
      "start": 66.1655,
      "duration": 1.148,
      "velocity": 99,
      "chip": "ym2612"
    },
    {
      "channel": 0,
      "note": 55,
      "start": 66.23,
      "duration": 0.0502,
      "velocity": 87,
      "chip": "ym2612"
    },
    {
      "channel": 0,
      "note": 79,
      "start": 66.2986,
      "duration": 0.0502,
      "velocity": 87,
      "chip": "ym2612"
    },
    {
      "channel": 0,
      "note": 50,
      "start": 66.3808,
      "duration": 0.0405,
      "velocity": 87,
      "chip": "ym2612"
    },
    {
      "channel": 2,
      "note": 34,
      "start": 66.3837,
      "duration": 1.5123,
      "velocity": 108,
      "chip": "ym2612"
    },
    {
      "channel": 0,
      "note": 79,
      "start": 66.4396,
      "duration": 0.0502,
      "velocity": 87,
      "chip": "ym2612"
    },
    {
      "channel": 0,
      "note": 55,
      "start": 66.5082,
      "duration": 0.0502,
      "velocity": 87,
      "chip": "ym2612"
    },
    {
      "channel": 0,
      "note": 79,
      "start": 66.5767,
      "duration": 0.0502,
      "velocity": 87,
      "chip": "ym2612"
    },
    {
      "channel": 0,
      "note": 62,
      "start": 66.6454,
      "duration": 0.0502,
      "velocity": 87,
      "chip": "ym2612"
    },
    {
      "channel": 0,
      "note": 79,
      "start": 66.714,
      "duration": 0.0502,
      "velocity": 87,
      "chip": "ym2612"
    },
    {
      "channel": 0,
      "note": 62,
      "start": 66.7826,
      "duration": 0.0502,
      "velocity": 87,
      "chip": "ym2612"
    },
    {
      "channel": 0,
      "note": 79,
      "start": 66.8512,
      "duration": 0.0503,
      "velocity": 87,
      "chip": "ym2612"
    },
    {
      "channel": 0,
      "note": 67,
      "start": 66.9197,
      "duration": 0.0503,
      "velocity": 87,
      "chip": "ym2612"
    },
    {
      "channel": 0,
      "note": 79,
      "start": 66.9883,
      "duration": 0.0502,
      "velocity": 87,
      "chip": "ym2612"
    },
    {
      "channel": 0,
      "note": 74,
      "start": 67.0569,
      "duration": 0.0502,
      "velocity": 87,
      "chip": "ym2612"
    },
    {
      "channel": 0,
      "note": 79,
      "start": 67.1255,
      "duration": 0.0502,
      "velocity": 87,
      "chip": "ym2612"
    },
    {
      "channel": 0,
      "note": 67,
      "start": 67.194,
      "duration": 0.0502,
      "velocity": 87,
      "chip": "ym2612"
    },
    {
      "channel": 0,
      "note": 79,
      "start": 67.2627,
      "duration": 0.0502,
      "velocity": 87,
      "chip": "ym2612"
    },
    {
      "channel": 0,
      "note": 64,
      "start": 67.3313,
      "duration": 0.0506,
      "velocity": 87,
      "chip": "ym2612"
    },
    {
      "channel": 0,
      "note": 79,
      "start": 67.3999,
      "duration": 0.0501,
      "velocity": 87,
      "chip": "ym2612"
    },
    {
      "channel": 0,
      "note": 62,
      "start": 67.4685,
      "duration": 0.0501,
      "velocity": 87,
      "chip": "ym2612"
    },
    {
      "channel": 0,
      "note": 79,
      "start": 67.537,
      "duration": 0.0566,
      "velocity": 87,
      "chip": "ym2612"
    },
    {
      "channel": 4,
      "note": 69,
      "start": 67.5925,
      "duration": 0.1326,
      "velocity": 99,
      "chip": "ym2612"
    },
    {
      "channel": 0,
      "note": 57,
      "start": 67.6056,
      "duration": 0.0502,
      "velocity": 87,
      "chip": "ym2612"
    },
    {
      "channel": 1,
      "note": 72,
      "start": 67.6096,
      "duration": 0.1347,
      "velocity": 99,
      "chip": "ym2612"
    },
    {
      "channel": 0,
      "note": 79,
      "start": 67.6742,
      "duration": 0.0502,
      "velocity": 87,
      "chip": "ym2612"
    },
    {
      "channel": 0,
      "note": 60,
      "start": 67.7428,
      "duration": 0.054,
      "velocity": 87,
      "chip": "ym2612"
    },
    {
      "channel": 4,
      "note": 70,
      "start": 67.7956,
      "duration": 0.1352,
      "velocity": 99,
      "chip": "ym2612"
    },
    {
      "channel": 0,
      "note": 79,
      "start": 67.8114,
      "duration": 0.0502,
      "velocity": 87,
      "chip": "ym2612"
    },
    {
      "channel": 1,
      "note": 74,
      "start": 67.8151,
      "duration": 0.1349,
      "velocity": 99,
      "chip": "ym2612"
    },
    {
      "channel": 0,
      "note": 55,
      "start": 67.88,
      "duration": 0.0502,
      "velocity": 87,
      "chip": "ym2612"
    },
    {
      "channel": 0,
      "note": 79,
      "start": 67.9485,
      "duration": 0.0538,
      "velocity": 87,
      "chip": "ym2612"
    },
    {
      "channel": 4,
      "note": 72,
      "start": 68.0013,
      "duration": 0.1427,
      "velocity": 99,
      "chip": "ym2612"
    },
    {
      "channel": 0,
      "note": 50,
      "start": 68.0307,
      "duration": 0.0441,
      "velocity": 87,
      "chip": "ym2612"
    },
    {
      "channel": 1,
      "note": 75,
      "start": 68.0344,
      "duration": 0.1289,
      "velocity": 99,
      "chip": "ym2612"
    },
    {
      "channel": 2,
      "note": 24,
      "start": 68.0372,
      "duration": 0.7439,
      "velocity": 108,
      "chip": "ym2612"
    },
    {
      "channel": 0,
      "note": 79,
      "start": 68.0931,
      "duration": 0.0502,
      "velocity": 87,
      "chip": "ym2612"
    },
    {
      "channel": 0,
      "note": 55,
      "start": 68.1617,
      "duration": 0.0539,
      "velocity": 87,
      "chip": "ym2612"
    },
    {
      "channel": 4,
      "note": 70,
      "start": 68.2145,
      "duration": 0.1353,
      "velocity": 99,
      "chip": "ym2612"
    },
    {
      "channel": 0,
      "note": 79,
      "start": 68.2303,
      "duration": 0.0502,
      "velocity": 87,
      "chip": "ym2612"
    },
    {
      "channel": 1,
      "note": 74,
      "start": 68.234,
      "duration": 0.135,
      "velocity": 99,
      "chip": "ym2612"
    },
    {
      "channel": 0,
      "note": 62,
      "start": 68.2989,
      "duration": 0.0503,
      "velocity": 87,
      "chip": "ym2612"
    },
    {
      "channel": 0,
      "note": 79,
      "start": 68.3674,
      "duration": 0.0539,
      "velocity": 87,
      "chip": "ym2612"
    },
    {
      "channel": 4,
      "note": 69,
      "start": 68.4202,
      "duration": 0.1354,
      "velocity": 99,
      "chip": "ym2612"
    },
    {
      "channel": 0,
      "note": 62,
      "start": 68.4361,
      "duration": 0.0502,
      "velocity": 87,
      "chip": "ym2612"
    },
    {
      "channel": 1,
      "note": 72,
      "start": 68.4398,
      "duration": 0.135,
      "velocity": 99,
      "chip": "ym2612"
    },
    {
      "channel": 0,
      "note": 79,
      "start": 68.5047,
      "duration": 0.0502,
      "velocity": 87,
      "chip": "ym2612"
    },
    {
      "channel": 0,
      "note": 67,
      "start": 68.5732,
      "duration": 0.0539,
      "velocity": 87,
      "chip": "ym2612"
    },
    {
      "channel": 4,
      "note": 72,
      "start": 68.626,
      "duration": 0.1354,
      "velocity": 99,
      "chip": "ym2612"
    },
    {
      "channel": 0,
      "note": 79,
      "start": 68.6418,
      "duration": 0.0502,
      "velocity": 87,
      "chip": "ym2612"
    },
    {
      "channel": 1,
      "note": 77,
      "start": 68.6456,
      "duration": 0.135,
      "velocity": 99,
      "chip": "ym2612"
    },
    {
      "channel": 0,
      "note": 74,
      "start": 68.7104,
      "duration": 0.0502,
      "velocity": 87,
      "chip": "ym2612"
    },
    {
      "channel": 0,
      "note": 79,
      "start": 68.779,
      "duration": 0.0506,
      "velocity": 87,
      "chip": "ym2612"
    },
    {
      "channel": 0,
      "note": 67,
      "start": 68.8477,
      "duration": 0.0501,
      "velocity": 87,
      "chip": "ym2612"
    },
    {
      "channel": 2,
      "note": 26,
      "start": 68.851,
      "duration": 0.7527,
      "velocity": 108,
      "chip": "ym2612"
    },
    {
      "channel": 0,
      "note": 79,
      "start": 68.9162,
      "duration": 0.0502,
      "velocity": 87,
      "chip": "ym2612"
    },
    {
      "channel": 0,
      "note": 64,
      "start": 68.9848,
      "duration": 0.0539,
      "velocity": 87,
      "chip": "ym2612"
    },
    {
      "channel": 4,
      "note": 72,
      "start": 69.0376,
      "duration": 0.1354,
      "velocity": 99,
      "chip": "ym2612"
    },
    {
      "channel": 0,
      "note": 79,
      "start": 69.0534,
      "duration": 0.0503,
      "velocity": 87,
      "chip": "ym2612"
    },
    {
      "channel": 1,
      "note": 75,
      "start": 69.0571,
      "duration": 0.135,
      "velocity": 99,
      "chip": "ym2612"
    },
    {
      "channel": 0,
      "note": 62,
      "start": 69.122,
      "duration": 0.0502,
      "velocity": 87,
      "chip": "ym2612"
    },
    {
      "channel": 0,
      "note": 79,
      "start": 69.1905,
      "duration": 0.0539,
      "velocity": 87,
      "chip": "ym2612"
    },
    {
      "channel": 4,
      "note": 72,
      "start": 69.2433,
      "duration": 0.1354,
      "velocity": 99,
      "chip": "ym2612"
    },
    {
      "channel": 0,
      "note": 57,
      "start": 69.2591,
      "duration": 0.0502,
      "velocity": 87,
      "chip": "ym2612"
    },
    {
      "channel": 1,
      "note": 77,
      "start": 69.2629,
      "duration": 0.1351,
      "velocity": 99,
      "chip": "ym2612"
    },
    {
      "channel": 0,
      "note": 79,
      "start": 69.3278,
      "duration": 0.0502,
      "velocity": 87,
      "chip": "ym2612"
    },
    {
      "channel": 0,
      "note": 60,
      "start": 69.3964,
      "duration": 0.0543,
      "velocity": 87,
      "chip": "ym2612"
    },
    {
      "channel": 4,
      "note": 74,
      "start": 69.4495,
      "duration": 1.7467,
      "velocity": 99,
      "chip": "ym2612"
    },
    {
      "channel": 0,
      "note": 79,
      "start": 69.465,
      "duration": 0.0502,
      "velocity": 87,
      "chip": "ym2612"
    },
    {
      "channel": 1,
      "note": 79,
      "start": 69.469,
      "duration": 1.7415,
      "velocity": 99,
      "chip": "ym2612"
    },
    {
      "channel": 0,
      "note": 55,
      "start": 69.5335,
      "duration": 0.0502,
      "velocity": 87,
      "chip": "ym2612"
    },
    {
      "channel": 0,
      "note": 79,
      "start": 69.6021,
      "duration": 0.0502,
      "velocity": 87,
      "chip": "ym2612"
    },
    {
      "channel": 0,
      "note": 50,
      "start": 69.6843,
      "duration": 0.0515,
      "velocity": 87,
      "chip": "ym2612"
    },
    {
      "channel": 2,
      "note": 31,
      "start": 69.6982,
      "duration": 3.8393,
      "velocity": 102,
      "chip": "ym2612"
    },
    {
      "channel": 0,
      "note": 79,
      "start": 69.7541,
      "duration": 0.0503,
      "velocity": 87,
      "chip": "ym2612"
    },
    {
      "channel": 0,
      "note": 55,
      "start": 69.8227,
      "duration": 0.0503,
      "velocity": 87,
      "chip": "ym2612"
    },
    {
      "channel": 0,
      "note": 79,
      "start": 69.8912,
      "duration": 0.0502,
      "velocity": 87,
      "chip": "ym2612"
    },
    {
      "channel": 0,
      "note": 62,
      "start": 69.9598,
      "duration": 0.0502,
      "velocity": 87,
      "chip": "ym2612"
    },
    {
      "channel": 0,
      "note": 79,
      "start": 70.0285,
      "duration": 0.0502,
      "velocity": 87,
      "chip": "ym2612"
    },
    {
      "channel": 0,
      "note": 62,
      "start": 70.097,
      "duration": 0.0502,
      "velocity": 87,
      "chip": "ym2612"
    },
    {
      "channel": 0,
      "note": 79,
      "start": 70.1656,
      "duration": 0.0502,
      "velocity": 87,
      "chip": "ym2612"
    },
    {
      "channel": 0,
      "note": 67,
      "start": 70.2342,
      "duration": 0.0502,
      "velocity": 87,
      "chip": "ym2612"
    },
    {
      "channel": 0,
      "note": 79,
      "start": 70.3027,
      "duration": 0.0503,
      "velocity": 87,
      "chip": "ym2612"
    },
    {
      "channel": 0,
      "note": 74,
      "start": 70.3713,
      "duration": 0.0502,
      "velocity": 87,
      "chip": "ym2612"
    },
    {
      "channel": 0,
      "note": 79,
      "start": 70.4399,
      "duration": 0.0502,
      "velocity": 87,
      "chip": "ym2612"
    },
    {
      "channel": 0,
      "note": 67,
      "start": 70.5085,
      "duration": 0.0502,
      "velocity": 87,
      "chip": "ym2612"
    },
    {
      "channel": 0,
      "note": 79,
      "start": 70.5771,
      "duration": 0.0502,
      "velocity": 87,
      "chip": "ym2612"
    },
    {
      "channel": 0,
      "note": 64,
      "start": 70.6458,
      "duration": 0.0502,
      "velocity": 87,
      "chip": "ym2612"
    },
    {
      "channel": 0,
      "note": 79,
      "start": 70.7144,
      "duration": 0.0502,
      "velocity": 87,
      "chip": "ym2612"
    },
    {
      "channel": 0,
      "note": 62,
      "start": 70.783,
      "duration": 0.0502,
      "velocity": 87,
      "chip": "ym2612"
    },
    {
      "channel": 0,
      "note": 79,
      "start": 70.8515,
      "duration": 0.0502,
      "velocity": 87,
      "chip": "ym2612"
    },
    {
      "channel": 0,
      "note": 57,
      "start": 70.9201,
      "duration": 0.0502,
      "velocity": 87,
      "chip": "ym2612"
    },
    {
      "channel": 0,
      "note": 79,
      "start": 70.9887,
      "duration": 0.0503,
      "velocity": 87,
      "chip": "ym2612"
    },
    {
      "channel": 0,
      "note": 60,
      "start": 71.0573,
      "duration": 0.0502,
      "velocity": 87,
      "chip": "ym2612"
    },
    {
      "channel": 0,
      "note": 79,
      "start": 71.1259,
      "duration": 0.0502,
      "velocity": 87,
      "chip": "ym2612"
    },
    {
      "channel": 0,
      "note": 55,
      "start": 71.1945,
      "duration": 0.0502,
      "velocity": 87,
      "chip": "ym2612"
    },
    {
      "channel": 0,
      "note": 79,
      "start": 71.2631,
      "duration": 0.0539,
      "velocity": 87,
      "chip": "ym2612"
    },
    {
      "channel": 4,
      "note": 67,
      "start": 71.3159,
      "duration": 1.5311,
      "velocity": 99,
      "chip": "ym2612"
    },
    {
      "channel": 0,
      "note": 50,
      "start": 71.3452,
      "duration": 0.0414,
      "velocity": 87,
      "chip": "ym2612"
    },
    {
      "channel": 1,
      "note": 72,
      "start": 71.3489,
      "duration": 1.5123,
      "velocity": 99,
      "chip": "ym2612"
    },
    {
      "channel": 0,
      "note": 79,
      "start": 71.4049,
      "duration": 0.0502,
      "velocity": 87,
      "chip": "ym2612"
    },
    {
      "channel": 0,
      "note": 55,
      "start": 71.4735,
      "duration": 0.0502,
      "velocity": 87,
      "chip": "ym2612"
    },
    {
      "channel": 0,
      "note": 79,
      "start": 71.5421,
      "duration": 0.0502,
      "velocity": 87,
      "chip": "ym2612"
    },
    {
      "channel": 0,
      "note": 62,
      "start": 71.6106,
      "duration": 0.0503,
      "velocity": 87,
      "chip": "ym2612"
    },
    {
      "channel": 0,
      "note": 79,
      "start": 71.6793,
      "duration": 0.0502,
      "velocity": 87,
      "chip": "ym2612"
    },
    {
      "channel": 0,
      "note": 62,
      "start": 71.7478,
      "duration": 0.0503,
      "velocity": 87,
      "chip": "ym2612"
    },
    {
      "channel": 0,
      "note": 79,
      "start": 71.8164,
      "duration": 0.0502,
      "velocity": 87,
      "chip": "ym2612"
    },
    {
      "channel": 0,
      "note": 67,
      "start": 71.885,
      "duration": 0.0502,
      "velocity": 87,
      "chip": "ym2612"
    },
    {
      "channel": 0,
      "note": 79,
      "start": 71.9536,
      "duration": 0.0502,
      "velocity": 87,
      "chip": "ym2612"
    },
    {
      "channel": 0,
      "note": 74,
      "start": 72.0222,
      "duration": 0.0502,
      "velocity": 87,
      "chip": "ym2612"
    },
    {
      "channel": 0,
      "note": 79,
      "start": 72.0907,
      "duration": 0.0502,
      "velocity": 87,
      "chip": "ym2612"
    },
    {
      "channel": 0,
      "note": 67,
      "start": 72.1593,
      "duration": 0.0503,
      "velocity": 87,
      "chip": "ym2612"
    },
    {
      "channel": 0,
      "note": 79,
      "start": 72.2279,
      "duration": 0.0503,
      "velocity": 87,
      "chip": "ym2612"
    },
    {
      "channel": 0,
      "note": 64,
      "start": 72.2966,
      "duration": 0.0502,
      "velocity": 87,
      "chip": "ym2612"
    },
    {
      "channel": 0,
      "note": 79,
      "start": 72.3651,
      "duration": 0.0502,
      "velocity": 87,
      "chip": "ym2612"
    },
    {
      "channel": 0,
      "note": 62,
      "start": 72.4337,
      "duration": 0.0502,
      "velocity": 87,
      "chip": "ym2612"
    },
    {
      "channel": 0,
      "note": 79,
      "start": 72.5023,
      "duration": 0.0502,
      "velocity": 87,
      "chip": "ym2612"
    },
    {
      "channel": 0,
      "note": 57,
      "start": 72.5709,
      "duration": 0.0502,
      "velocity": 87,
      "chip": "ym2612"
    },
    {
      "channel": 0,
      "note": 79,
      "start": 72.6395,
      "duration": 0.0502,
      "velocity": 87,
      "chip": "ym2612"
    },
    {
      "channel": 0,
      "note": 60,
      "start": 72.708,
      "duration": 0.0502,
      "velocity": 87,
      "chip": "ym2612"
    },
    {
      "channel": 0,
      "note": 79,
      "start": 72.7766,
      "duration": 0.0503,
      "velocity": 87,
      "chip": "ym2612"
    },
    {
      "channel": 0,
      "note": 55,
      "start": 72.8452,
      "duration": 0.0502,
      "velocity": 87,
      "chip": "ym2612"
    },
    {
      "channel": 0,
      "note": 79,
      "start": 72.9139,
      "duration": 0.0539,
      "velocity": 87,
      "chip": "ym2612"
    },
    {
      "channel": 4,
      "note": 67,
      "start": 72.9667,
      "duration": 3.8459,
      "velocity": 99,
      "chip": "ym2612"
    },
    {
      "channel": 0,
      "note": 50,
      "start": 72.9961,
      "duration": 0.0413,
      "velocity": 87,
      "chip": "ym2612"
    },
    {
      "channel": 1,
      "note": 71,
      "start": 72.9998,
      "duration": 3.8321,
      "velocity": 99,
      "chip": "ym2612"
    },
    {
      "channel": 0,
      "note": 79,
      "start": 73.0557,
      "duration": 0.0502,
      "velocity": 87,
      "chip": "ym2612"
    },
    {
      "channel": 0,
      "note": 55,
      "start": 73.1243,
      "duration": 0.0503,
      "velocity": 87,
      "chip": "ym2612"
    },
    {
      "channel": 0,
      "note": 79,
      "start": 73.1929,
      "duration": 0.0502,
      "velocity": 87,
      "chip": "ym2612"
    },
    {
      "channel": 0,
      "note": 62,
      "start": 73.2615,
      "duration": 0.0502,
      "velocity": 87,
      "chip": "ym2612"
    },
    {
      "channel": 0,
      "note": 79,
      "start": 73.3301,
      "duration": 0.0502,
      "velocity": 87,
      "chip": "ym2612"
    },
    {
      "channel": 0,
      "note": 62,
      "start": 73.3987,
      "duration": 0.0502,
      "velocity": 87,
      "chip": "ym2612"
    },
    {
      "channel": 0,
      "note": 79,
      "start": 73.4673,
      "duration": 0.0502,
      "velocity": 87,
      "chip": "ym2612"
    },
    {
      "channel": 0,
      "note": 67,
      "start": 73.5358,
      "duration": 0.0502,
      "velocity": 87,
      "chip": "ym2612"
    },
    {
      "channel": 0,
      "note": 79,
      "start": 73.6044,
      "duration": 0.0503,
      "velocity": 87,
      "chip": "ym2612"
    },
    {
      "channel": 0,
      "note": 74,
      "start": 73.673,
      "duration": 0.0501,
      "velocity": 87,
      "chip": "ym2612"
    },
    {
      "channel": 0,
      "note": 79,
      "start": 73.7416,
      "duration": 0.0502,
      "velocity": 87,
      "chip": "ym2612"
    },
    {
      "channel": 0,
      "note": 67,
      "start": 73.8102,
      "duration": 0.0502,
      "velocity": 87,
      "chip": "ym2612"
    },
    {
      "channel": 0,
      "note": 79,
      "start": 73.8788,
      "duration": 0.0502,
      "velocity": 87,
      "chip": "ym2612"
    },
    {
      "channel": 0,
      "note": 64,
      "start": 73.9474,
      "duration": 0.0502,
      "velocity": 87,
      "chip": "ym2612"
    },
    {
      "channel": 0,
      "note": 79,
      "start": 74.016,
      "duration": 0.0502,
      "velocity": 87,
      "chip": "ym2612"
    },
    {
      "channel": 0,
      "note": 62,
      "start": 74.0846,
      "duration": 0.0502,
      "velocity": 87,
      "chip": "ym2612"
    },
    {
      "channel": 0,
      "note": 79,
      "start": 74.1531,
      "duration": 0.0502,
      "velocity": 87,
      "chip": "ym2612"
    },
    {
      "channel": 0,
      "note": 57,
      "start": 74.2218,
      "duration": 0.0501,
      "velocity": 87,
      "chip": "ym2612"
    },
    {
      "channel": 0,
      "note": 79,
      "start": 74.2903,
      "duration": 0.0502,
      "velocity": 87,
      "chip": "ym2612"
    },
    {
      "channel": 0,
      "note": 60,
      "start": 74.3589,
      "duration": 0.0502,
      "velocity": 87,
      "chip": "ym2612"
    },
    {
      "channel": 0,
      "note": 79,
      "start": 74.4275,
      "duration": 0.0502,
      "velocity": 87,
      "chip": "ym2612"
    },
    {
      "channel": 0,
      "note": 55,
      "start": 74.4961,
      "duration": 0.0502,
      "velocity": 87,
      "chip": "ym2612"
    },
    {
      "channel": 0,
      "note": 79,
      "start": 74.5647,
      "duration": 0.0502,
      "velocity": 87,
      "chip": "ym2612"
    },
    {
      "channel": 0,
      "note": 50,
      "start": 74.6469,
      "duration": 0.0377,
      "velocity": 87,
      "chip": "ym2612"
    },
    {
      "channel": 0,
      "note": 79,
      "start": 74.703,
      "duration": 0.0502,
      "velocity": 87,
      "chip": "ym2612"
    },
    {
      "channel": 0,
      "note": 55,
      "start": 74.7716,
      "duration": 0.0501,
      "velocity": 87,
      "chip": "ym2612"
    },
    {
      "channel": 0,
      "note": 79,
      "start": 74.8402,
      "duration": 0.0502,
      "velocity": 87,
      "chip": "ym2612"
    },
    {
      "channel": 0,
      "note": 62,
      "start": 74.9087,
      "duration": 0.0502,
      "velocity": 87,
      "chip": "ym2612"
    },
    {
      "channel": 0,
      "note": 79,
      "start": 74.9773,
      "duration": 0.0502,
      "velocity": 87,
      "chip": "ym2612"
    },
    {
      "channel": 0,
      "note": 62,
      "start": 75.0459,
      "duration": 0.0502,
      "velocity": 87,
      "chip": "ym2612"
    },
    {
      "channel": 0,
      "note": 79,
      "start": 75.1145,
      "duration": 0.0503,
      "velocity": 87,
      "chip": "ym2612"
    },
    {
      "channel": 0,
      "note": 67,
      "start": 75.1832,
      "duration": 0.0501,
      "velocity": 87,
      "chip": "ym2612"
    },
    {
      "channel": 0,
      "note": 79,
      "start": 75.2517,
      "duration": 0.0502,
      "velocity": 87,
      "chip": "ym2612"
    },
    {
      "channel": 0,
      "note": 74,
      "start": 75.3203,
      "duration": 0.0501,
      "velocity": 87,
      "chip": "ym2612"
    },
    {
      "channel": 0,
      "note": 79,
      "start": 75.3889,
      "duration": 0.0502,
      "velocity": 87,
      "chip": "ym2612"
    },
    {
      "channel": 0,
      "note": 67,
      "start": 75.4575,
      "duration": 0.0501,
      "velocity": 87,
      "chip": "ym2612"
    },
    {
      "channel": 0,
      "note": 79,
      "start": 75.526,
      "duration": 0.0502,
      "velocity": 87,
      "chip": "ym2612"
    },
    {
      "channel": 0,
      "note": 64,
      "start": 75.5946,
      "duration": 0.0502,
      "velocity": 87,
      "chip": "ym2612"
    },
    {
      "channel": 0,
      "note": 79,
      "start": 75.6632,
      "duration": 0.0502,
      "velocity": 87,
      "chip": "ym2612"
    },
    {
      "channel": 0,
      "note": 62,
      "start": 75.7318,
      "duration": 0.0502,
      "velocity": 87,
      "chip": "ym2612"
    },
    {
      "channel": 0,
      "note": 79,
      "start": 75.8004,
      "duration": 0.0501,
      "velocity": 87,
      "chip": "ym2612"
    },
    {
      "channel": 0,
      "note": 57,
      "start": 75.869,
      "duration": 0.0502,
      "velocity": 87,
      "chip": "ym2612"
    },
    {
      "channel": 0,
      "note": 79,
      "start": 75.9376,
      "duration": 0.0502,
      "velocity": 87,
      "chip": "ym2612"
    },
    {
      "channel": 0,
      "note": 60,
      "start": 76.0061,
      "duration": 0.0501,
      "velocity": 87,
      "chip": "ym2612"
    },
    {
      "channel": 0,
      "note": 79,
      "start": 76.0747,
      "duration": 0.0502,
      "velocity": 87,
      "chip": "ym2612"
    },
    {
      "channel": 0,
      "note": 55,
      "start": 76.1433,
      "duration": 0.0502,
      "velocity": 87,
      "chip": "ym2612"
    },
    {
      "channel": 0,
      "note": 79,
      "start": 76.2119,
      "duration": 0.0502,
      "velocity": 87,
      "chip": "ym2612"
    },
    {
      "channel": 0,
      "note": 50,
      "start": 76.2937,
      "duration": 0.0382,
      "velocity": 87,
      "chip": "ym2612"
    },
    {
      "channel": 0,
      "note": 79,
      "start": 76.3503,
      "duration": 0.0502,
      "velocity": 87,
      "chip": "ym2612"
    },
    {
      "channel": 0,
      "note": 55,
      "start": 76.4189,
      "duration": 0.0502,
      "velocity": 87,
      "chip": "ym2612"
    },
    {
      "channel": 0,
      "note": 79,
      "start": 76.4875,
      "duration": 0.0502,
      "velocity": 87,
      "chip": "ym2612"
    },
    {
      "channel": 0,
      "note": 62,
      "start": 76.5561,
      "duration": 0.0502,
      "velocity": 87,
      "chip": "ym2612"
    },
    {
      "channel": 0,
      "note": 79,
      "start": 76.6246,
      "duration": 0.0502,
      "velocity": 87,
      "chip": "ym2612"
    },
    {
      "channel": 0,
      "note": 62,
      "start": 76.6932,
      "duration": 0.0501,
      "velocity": 87,
      "chip": "ym2612"
    },
    {
      "channel": 0,
      "note": 79,
      "start": 76.7619,
      "duration": 0.0501,
      "velocity": 87,
      "chip": "ym2612"
    },
    {
      "channel": 0,
      "note": 67,
      "start": 76.8304,
      "duration": 0.0501,
      "velocity": 87,
      "chip": "ym2612"
    },
    {
      "channel": 0,
      "note": 79,
      "start": 76.899,
      "duration": 0.0501,
      "velocity": 87,
      "chip": "ym2612"
    },
    {
      "channel": 0,
      "note": 74,
      "start": 76.9676,
      "duration": 0.0501,
      "velocity": 87,
      "chip": "ym2612"
    },
    {
      "channel": 0,
      "note": 79,
      "start": 77.0361,
      "duration": 0.0505,
      "velocity": 87,
      "chip": "ym2612"
    },
    {
      "channel": 0,
      "note": 67,
      "start": 77.1047,
      "duration": 0.0501,
      "velocity": 87,
      "chip": "ym2612"
    },
    {
      "channel": 0,
      "note": 79,
      "start": 77.1733,
      "duration": 0.05,
      "velocity": 87,
      "chip": "ym2612"
    },
    {
      "channel": 0,
      "note": 64,
      "start": 77.2419,
      "duration": 0.0501,
      "velocity": 87,
      "chip": "ym2612"
    },
    {
      "channel": 0,
      "note": 79,
      "start": 77.3105,
      "duration": 0.0501,
      "velocity": 87,
      "chip": "ym2612"
    },
    {
      "channel": 0,
      "note": 62,
      "start": 77.3791,
      "duration": 0.0501,
      "velocity": 87,
      "chip": "ym2612"
    },
    {
      "channel": 0,
      "note": 79,
      "start": 77.4477,
      "duration": 0.0508,
      "velocity": 87,
      "chip": "ym2612"
    },
    {
      "channel": 0,
      "note": 57,
      "start": 77.5163,
      "duration": 0.05,
      "velocity": 87,
      "chip": "ym2612"
    },
    {
      "channel": 0,
      "note": 79,
      "start": 77.5849,
      "duration": 0.05,
      "velocity": 87,
      "chip": "ym2612"
    },
    {
      "channel": 0,
      "note": 60,
      "start": 77.6534,
      "duration": 0.05,
      "velocity": 87,
      "chip": "ym2612"
    },
    {
      "channel": 0,
      "note": 79,
      "start": 77.722,
      "duration": 0.05,
      "velocity": 87,
      "chip": "ym2612"
    },
    {
      "channel": 0,
      "note": 55,
      "start": 77.7906,
      "duration": 0.05,
      "velocity": 87,
      "chip": "ym2612"
    },
    {
      "channel": 0,
      "note": 79,
      "start": 77.8592,
      "duration": 0.3415,
      "velocity": 87,
      "chip": "ym2612"
    }
  ]
}