{
  "track_name": "09 - Look Up the Sky",
  "duration_sec": 70.038,
  "sample_rate": 44100,
  "note_count": 1598,
  "unique_pitches": 30,
  "pitch_range": 49,
  "avg_note_duration": 0.2175,
  "reconstruction_stats": {
    "notes_reconstructed": 1598,
    "keyon_events": 1598,
    "keyoff_events": 1592,
    "orphan_keyons": 6,
    "unique_pitches": 30,
    "pitch_range": 49,
    "avg_duration_sec": 0.2175
  },
  "metadata": {
    "source": "D\\Dyna Brothers 2\\09 - Look Up the Sky.vgm"
  },
  "notes": [
    {
      "channel": 0,
      "note": 82,
      "start": 0.0,
      "duration": 0.1768,
      "velocity": 105,
      "chip": "ym2612"
    },
    {
      "channel": 5,
      "note": 51,
      "start": 0.0102,
      "duration": 0.4501,
      "velocity": 117,
      "chip": "ym2612"
    },
    {
      "channel": 3,
      "note": 82,
      "start": 0.1478,
      "duration": 0.1797,
      "velocity": 105,
      "chip": "ym2612"
    },
    {
      "channel": 0,
      "note": 83,
      "start": 0.2275,
      "duration": 0.1826,
      "velocity": 105,
      "chip": "ym2612"
    },
    {
      "channel": 3,
      "note": 83,
      "start": 0.3949,
      "duration": 0.183,
      "velocity": 105,
      "chip": "ym2612"
    },
    {
      "channel": 0,
      "note": 85,
      "start": 0.4637,
      "duration": 0.3632,
      "velocity": 105,
      "chip": "ym2612"
    },
    {
      "channel": 1,
      "note": 54,
      "start": 0.4646,
      "duration": 0.1791,
      "velocity": 97,
      "chip": "ym2612"
    },
    {
      "channel": 2,
      "note": 78,
      "start": 0.4658,
      "duration": 0.1781,
      "velocity": 97,
      "chip": "ym2612"
    },
    {
      "channel": 4,
      "note": 52,
      "start": 0.4695,
      "duration": 0.2459,
      "velocity": 127,
      "chip": "ym2612"
    },
    {
      "channel": 5,
      "note": 51,
      "start": 0.4728,
      "duration": 0.2372,
      "velocity": 117,
      "chip": "ym2612"
    },
    {
      "channel": 3,
      "note": 85,
      "start": 0.629,
      "duration": 0.3656,
      "velocity": 105,
      "chip": "ym2612"
    },
    {
      "channel": 1,
      "note": 54,
      "start": 0.7136,
      "duration": 0.4828,
      "velocity": 97,
      "chip": "ym2612"
    },
    {
      "channel": 2,
      "note": 73,
      "start": 0.7144,
      "duration": 0.1798,
      "velocity": 97,
      "chip": "ym2612"
    },
    {
      "channel": 4,
      "note": 52,
      "start": 0.7161,
      "duration": 0.1122,
      "velocity": 127,
      "chip": "ym2612"
    },
    {
      "channel": 5,
      "note": 52,
      "start": 0.7194,
      "duration": 0.224,
      "velocity": 115,
      "chip": "ym2612"
    },
    {
      "channel": 4,
      "note": 52,
      "start": 0.8289,
      "duration": 0.1203,
      "velocity": 127,
      "chip": "ym2612"
    },
    {
      "channel": 0,
      "note": 78,
      "start": 0.9466,
      "duration": 0.3658,
      "velocity": 105,
      "chip": "ym2612"
    },
    {
      "channel": 2,
      "note": 70,
      "start": 0.9482,
      "duration": 0.1792,
      "velocity": 97,
      "chip": "ym2612"
    },
    {
      "channel": 4,
      "note": 52,
      "start": 0.9499,
      "duration": 0.2488,
      "velocity": 127,
      "chip": "ym2612"
    },
    {
      "channel": 5,
      "note": 51,
      "start": 0.9532,
      "duration": 0.2402,
      "velocity": 117,
      "chip": "ym2612"
    },
    {
      "channel": 3,
      "note": 78,
      "start": 1.112,
      "duration": 0.366,
      "velocity": 105,
      "chip": "ym2612"
    },
    {
      "channel": 1,
      "note": 54,
      "start": 1.197,
      "duration": 0.1801,
      "velocity": 97,
      "chip": "ym2612"
    },
    {
      "channel": 2,
      "note": 78,
      "start": 1.1978,
      "duration": 0.1794,
      "velocity": 97,
      "chip": "ym2612"
    },
    {
      "channel": 4,
      "note": 52,
      "start": 1.1995,
      "duration": 0.1144,
      "velocity": 127,
      "chip": "ym2612"
    },
    {
      "channel": 5,
      "note": 52,
      "start": 1.2028,
      "duration": 0.1072,
      "velocity": 115,
      "chip": "ym2612"
    },
    {
      "channel": 4,
      "note": 52,
      "start": 1.3146,
      "duration": 0.1172,
      "velocity": 127,
      "chip": "ym2612"
    },
    {
      "channel": 5,
      "note": 52,
      "start": 1.3179,
      "duration": 0.1088,
      "velocity": 115,
      "chip": "ym2612"
    },
    {
      "channel": 0,
      "note": 82,
      "start": 1.43,
      "duration": 0.3635,
      "velocity": 105,
      "chip": "ym2612"
    },
    {
      "channel": 2,
      "note": 82,
      "start": 1.4312,
      "duration": 0.1798,
      "velocity": 97,
      "chip": "ym2612"
    },
    {
      "channel": 4,
      "note": 52,
      "start": 1.4324,
      "duration": 0.0632,
      "velocity": 127,
      "chip": "ym2612"
    },
    {
      "channel": 5,
      "note": 51,
      "start": 1.4358,
      "duration": 0.241,
      "velocity": 117,
      "chip": "ym2612"
    },
    {
      "channel": 4,
      "note": 52,
      "start": 1.4962,
      "duration": 0.066,
      "velocity": 127,
      "chip": "ym2612"
    },
    {
      "channel": 4,
      "note": 52,
      "start": 1.563,
      "duration": 0.1188,
      "velocity": 127,
      "chip": "ym2612"
    },
    {
      "channel": 3,
      "note": 82,
      "start": 1.5955,
      "duration": 0.3658,
      "velocity": 105,
      "chip": "ym2612"
    },
    {
      "channel": 1,
      "note": 54,
      "start": 1.6803,
      "duration": 0.1803,
      "velocity": 97,
      "chip": "ym2612"
    },
    {
      "channel": 2,
      "note": 78,
      "start": 1.6812,
      "duration": 0.1796,
      "velocity": 97,
      "chip": "ym2612"
    },
    {
      "channel": 4,
      "note": 52,
      "start": 1.6824,
      "duration": 0.1125,
      "velocity": 127,
      "chip": "ym2612"
    },
    {
      "channel": 5,
      "note": 52,
      "start": 1.6857,
      "duration": 0.2242,
      "velocity": 115,
      "chip": "ym2612"
    },
    {
      "channel": 4,
      "note": 52,
      "start": 1.7956,
      "duration": 0.1197,
      "velocity": 127,
      "chip": "ym2612"
    },
    {
      "channel": 0,
      "note": 90,
      "start": 1.9132,
      "duration": 0.3637,
      "velocity": 105,
      "chip": "ym2612"
    },
    {
      "channel": 2,
      "note": 73,
      "start": 1.9143,
      "duration": 0.18,
      "velocity": 97,
      "chip": "ym2612"
    },
    {
      "channel": 4,
      "note": 52,
      "start": 1.916,
      "duration": 0.2494,
      "velocity": 127,
      "chip": "ym2612"
    },
    {
      "channel": 5,
      "note": 51,
      "start": 1.9193,
      "duration": 0.2408,
      "velocity": 117,
      "chip": "ym2612"
    },
    {
      "channel": 3,
      "note": 90,
      "start": 2.0789,
      "duration": 0.3656,
      "velocity": 105,
      "chip": "ym2612"
    },
    {
      "channel": 1,
      "note": 49,
      "start": 2.1637,
      "duration": 0.1803,
      "velocity": 97,
      "chip": "ym2612"
    },
    {
      "channel": 2,
      "note": 78,
      "start": 2.1645,
      "duration": 0.1796,
      "velocity": 97,
      "chip": "ym2612"
    },
    {
      "channel": 4,
      "note": 52,
      "start": 2.1661,
      "duration": 0.1121,
      "velocity": 127,
      "chip": "ym2612"
    },
    {
      "channel": 5,
      "note": 52,
      "start": 2.1695,
      "duration": 0.2243,
      "velocity": 115,
      "chip": "ym2612"
    },
    {
      "channel": 4,
      "note": 52,
      "start": 2.2789,
      "duration": 0.1206,
      "velocity": 127,
      "chip": "ym2612"
    },
    {
      "channel": 0,
      "note": 89,
      "start": 2.397,
      "duration": 0.3632,
      "velocity": 105,
      "chip": "ym2612"
    },
    {
      "channel": 1,
      "note": 51,
      "start": 2.3977,
      "duration": 0.1794,
      "velocity": 97,
      "chip": "ym2612"
    },
    {
      "channel": 2,
      "note": 75,
      "start": 2.3985,
      "duration": 0.1788,
      "velocity": 97,
      "chip": "ym2612"
    },
    {
      "channel": 4,
      "note": 52,
      "start": 2.4002,
      "duration": 0.2484,
      "velocity": 127,
      "chip": "ym2612"
    },
    {
      "channel": 5,
      "note": 51,
      "start": 2.4035,
      "duration": 0.2398,
      "velocity": 117,
      "chip": "ym2612"
    },
    {
      "channel": 3,
      "note": 89,
      "start": 2.5622,
      "duration": 0.3658,
      "velocity": 105,
      "chip": "ym2612"
    },
    {
      "channel": 1,
      "note": 51,
      "start": 2.6468,
      "duration": 0.1805,
      "velocity": 97,
      "chip": "ym2612"
    },
    {
      "channel": 2,
      "note": 78,
      "start": 2.6476,
      "duration": 0.1798,
      "velocity": 97,
      "chip": "ym2612"
    },
    {
      "channel": 4,
      "note": 52,
      "start": 2.6493,
      "duration": 0.1122,
      "velocity": 127,
      "chip": "ym2612"
    },
    {
      "channel": 5,
      "note": 52,
      "start": 2.6527,
      "duration": 0.2241,
      "velocity": 115,
      "chip": "ym2612"
    },
    {
      "channel": 4,
      "note": 52,
      "start": 2.7623,
      "duration": 0.1202,
      "velocity": 127,
      "chip": "ym2612"
    },
    {
      "channel": 0,
      "note": 87,
      "start": 2.88,
      "duration": 0.3658,
      "velocity": 105,
      "chip": "ym2612"
    },
    {
      "channel": 1,
      "note": 53,
      "start": 2.8807,
      "duration": 0.1799,
      "velocity": 97,
      "chip": "ym2612"
    },
    {
      "channel": 2,
      "note": 82,
      "start": 2.8815,
      "duration": 0.1792,
      "velocity": 97,
      "chip": "ym2612"
    },
    {
      "channel": 4,
      "note": 52,
      "start": 2.8832,
      "duration": 0.2489,
      "velocity": 127,
      "chip": "ym2612"
    },
    {
      "channel": 5,
      "note": 51,
      "start": 2.8865,
      "duration": 0.2402,
      "velocity": 117,
      "chip": "ym2612"
    },
    {
      "channel": 3,
      "note": 87,
      "start": 3.0454,
      "duration": 0.366,
      "velocity": 105,
      "chip": "ym2612"
    },
    {
      "channel": 1,
      "note": 54,
      "start": 3.1303,
      "duration": 0.1801,
      "velocity": 97,
      "chip": "ym2612"
    },
    {
      "channel": 2,
      "note": 78,
      "start": 3.1312,
      "duration": 0.1794,
      "velocity": 97,
      "chip": "ym2612"
    },
    {
      "channel": 4,
      "note": 52,
      "start": 3.1328,
      "duration": 0.1144,
      "velocity": 127,
      "chip": "ym2612"
    },
    {
      "channel": 5,
      "note": 52,
      "start": 3.1361,
      "duration": 0.1072,
      "velocity": 115,
      "chip": "ym2612"
    },
    {
      "channel": 4,
      "note": 52,
      "start": 3.2479,
      "duration": 0.1172,
      "velocity": 127,
      "chip": "ym2612"
    },
    {
      "channel": 5,
      "note": 52,
      "start": 3.2512,
      "duration": 0.1088,
      "velocity": 115,
      "chip": "ym2612"
    },
    {
      "channel": 0,
      "note": 75,
      "start": 3.3633,
      "duration": 0.3635,
      "velocity": 105,
      "chip": "ym2612"
    },
    {
      "channel": 2,
      "note": 78,
      "start": 3.3645,
      "duration": 0.1798,
      "velocity": 97,
      "chip": "ym2612"
    },
    {
      "channel": 4,
      "note": 52,
      "start": 3.3658,
      "duration": 0.0632,
      "velocity": 127,
      "chip": "ym2612"
    },
    {
      "channel": 5,
      "note": 51,
      "start": 3.3691,
      "duration": 0.241,
      "velocity": 117,
      "chip": "ym2612"
    },
    {
      "channel": 4,
      "note": 52,
      "start": 3.4296,
      "duration": 0.066,
      "velocity": 127,
      "chip": "ym2612"
    },
    {
      "channel": 4,
      "note": 52,
      "start": 3.4963,
      "duration": 0.1188,
      "velocity": 127,
      "chip": "ym2612"
    },
    {
      "channel": 3,
      "note": 75,
      "start": 3.5289,
      "duration": 0.3658,
      "velocity": 105,
      "chip": "ym2612"
    },
    {
      "channel": 1,
      "note": 56,
      "start": 3.6137,
      "duration": 0.1803,
      "velocity": 97,
      "chip": "ym2612"
    },
    {
      "channel": 2,
      "note": 80,
      "start": 3.6145,
      "duration": 0.1796,
      "velocity": 97,
      "chip": "ym2612"
    },
    {
      "channel": 4,
      "note": 52,
      "start": 3.6158,
      "duration": 0.1125,
      "velocity": 127,
      "chip": "ym2612"
    },
    {
      "channel": 5,
      "note": 52,
      "start": 3.6191,
      "duration": 0.2242,
      "velocity": 115,
      "chip": "ym2612"
    },
    {
      "channel": 4,
      "note": 52,
      "start": 3.7289,
      "duration": 0.1198,
      "velocity": 127,
      "chip": "ym2612"
    },
    {
      "channel": 0,
      "note": 80,
      "start": 3.8466,
      "duration": 0.1802,
      "velocity": 105,
      "chip": "ym2612"
    },
    {
      "channel": 2,
      "note": 82,
      "start": 3.8478,
      "duration": 0.1795,
      "velocity": 97,
      "chip": "ym2612"
    },
    {
      "channel": 4,
      "note": 52,
      "start": 3.8494,
      "duration": 0.2498,
      "velocity": 127,
      "chip": "ym2612"
    },
    {
      "channel": 5,
      "note": 51,
      "start": 3.8527,
      "duration": 0.2407,
      "velocity": 117,
      "chip": "ym2612"
    },
    {
      "channel": 3,
      "note": 80,
      "start": 4.0123,
      "duration": 0.1824,
      "velocity": 105,
      "chip": "ym2612"
    },
    {
      "channel": 0,
      "note": 78,
      "start": 4.0966,
      "duration": 0.1802,
      "velocity": 105,
      "chip": "ym2612"
    },
    {
      "channel": 1,
      "note": 51,
      "start": 4.0974,
      "duration": 0.1796,
      "velocity": 97,
      "chip": "ym2612"
    },
    {
      "channel": 2,
      "note": 83,
      "start": 4.0982,
      "duration": 0.1789,
      "velocity": 97,
      "chip": "ym2612"
    },
    {
      "channel": 4,
      "note": 52,
      "start": 4.0999,
      "duration": 0.112,
      "velocity": 127,
      "chip": "ym2612"
    },
    {
      "channel": 5,
      "note": 52,
      "start": 4.1032,
      "duration": 0.2239,
      "velocity": 115,
      "chip": "ym2612"
    },
    {
      "channel": 4,
      "note": 52,
      "start": 4.2125,
      "duration": 0.1206,
      "velocity": 127,
      "chip": "ym2612"
    },
    {
      "channel": 3,
      "note": 78,
      "start": 4.2622,
      "duration": 0.1824,
      "velocity": 105,
      "chip": "ym2612"
    },
    {
      "channel": 0,
      "note": 77,
      "start": 4.3304,
      "duration": 0.7631,
      "velocity": 105,
      "chip": "ym2612"
    },
    {
      "channel": 1,
      "note": 58,
      "start": 4.3313,
      "duration": 0.1791,
      "velocity": 97,
      "chip": "ym2612"
    },
    {
      "channel": 2,
      "note": 85,
      "start": 4.3321,
      "duration": 0.1785,
      "velocity": 97,
      "chip": "ym2612"
    },
    {
      "channel": 4,
      "note": 52,
      "start": 4.3338,
      "duration": 0.2481,
      "velocity": 127,
      "chip": "ym2612"
    },
    {
      "channel": 5,
      "note": 51,
      "start": 4.3371,
      "duration": 0.2395,
      "velocity": 117,
      "chip": "ym2612"
    },
    {
      "channel": 3,
      "note": 77,
      "start": 4.4956,
      "duration": 0.7658,
      "velocity": 105,
      "chip": "ym2612"
    },
    {
      "channel": 1,
      "note": 58,
      "start": 4.5802,
      "duration": 0.1805,
      "velocity": 97,
      "chip": "ym2612"
    },
    {
      "channel": 2,
      "note": 77,
      "start": 4.581,
      "duration": 0.1798,
      "velocity": 97,
      "chip": "ym2612"
    },
    {
      "channel": 4,
      "note": 52,
      "start": 4.5827,
      "duration": 0.1125,
      "velocity": 127,
      "chip": "ym2612"
    },
    {
      "channel": 5,
      "note": 52,
      "start": 4.586,
      "duration": 0.2241,
      "velocity": 115,
      "chip": "ym2612"
    },
    {
      "channel": 4,
      "note": 52,
      "start": 4.6959,
      "duration": 0.1195,
      "velocity": 127,
      "chip": "ym2612"
    },
    {
      "channel": 1,
      "note": 58,
      "start": 4.8137,
      "duration": 0.1803,
      "velocity": 97,
      "chip": "ym2612"
    },
    {
      "channel": 2,
      "note": 85,
      "start": 4.8145,
      "duration": 0.1796,
      "velocity": 97,
      "chip": "ym2612"
    },
    {
      "channel": 4,
      "note": 52,
      "start": 4.8161,
      "duration": 0.2494,
      "velocity": 127,
      "chip": "ym2612"
    },
    {
      "channel": 5,
      "note": 51,
      "start": 4.8195,
      "duration": 0.2406,
      "velocity": 117,
      "chip": "ym2612"
    },
    {
      "channel": 1,
      "note": 58,
      "start": 5.0637,
      "duration": 0.1802,
      "velocity": 97,
      "chip": "ym2612"
    },
    {
      "channel": 2,
      "note": 82,
      "start": 5.0645,
      "duration": 0.1795,
      "velocity": 97,
      "chip": "ym2612"
    },
    {
      "channel": 4,
      "note": 52,
      "start": 5.0662,
      "duration": 0.1146,
      "velocity": 127,
      "chip": "ym2612"
    },
    {
      "channel": 5,
      "note": 52,
      "start": 5.0696,
      "duration": 0.1071,
      "velocity": 115,
      "chip": "ym2612"
    },
    {
      "channel": 4,
      "note": 52,
      "start": 5.1815,
      "duration": 0.1174,
      "velocity": 127,
      "chip": "ym2612"
    },
    {
      "channel": 5,
      "note": 52,
      "start": 5.1849,
      "duration": 0.1086,
      "velocity": 115,
      "chip": "ym2612"
    },
    {
      "channel": 0,
      "note": 71,
      "start": 5.2967,
      "duration": 0.3634,
      "velocity": 105,
      "chip": "ym2612"
    },
    {
      "channel": 1,
      "note": 59,
      "start": 5.2974,
      "duration": 0.1798,
      "velocity": 97,
      "chip": "ym2612"
    },
    {
      "channel": 2,
      "note": 83,
      "start": 5.2983,
      "duration": 0.1791,
      "velocity": 97,
      "chip": "ym2612"
    },
    {
      "channel": 4,
      "note": 52,
      "start": 5.2996,
      "duration": 0.0626,
      "velocity": 127,
      "chip": "ym2612"
    },
    {
      "channel": 5,
      "note": 51,
      "start": 5.3029,
      "duration": 0.2405,
      "velocity": 117,
      "chip": "ym2612"
    },
    {
      "channel": 4,
      "note": 52,
      "start": 5.3629,
      "duration": 0.066,
      "velocity": 127,
      "chip": "ym2612"
    },
    {
      "channel": 4,
      "note": 52,
      "start": 5.4296,
      "duration": 0.1188,
      "velocity": 127,
      "chip": "ym2612"
    },
    {
      "channel": 3,
      "note": 71,
      "start": 5.4623,
      "duration": 0.3658,
      "velocity": 105,
      "chip": "ym2612"
    },
    {
      "channel": 1,
      "note": 59,
      "start": 5.547,
      "duration": 0.1803,
      "velocity": 97,
      "chip": "ym2612"
    },
    {
      "channel": 2,
      "note": 78,
      "start": 5.5478,
      "duration": 0.1796,
      "velocity": 97,
      "chip": "ym2612"
    },
    {
      "channel": 4,
      "note": 52,
      "start": 5.5491,
      "duration": 0.1125,
      "velocity": 127,
      "chip": "ym2612"
    },
    {
      "channel": 5,
      "note": 52,
      "start": 5.5524,
      "duration": 0.2242,
      "velocity": 115,
      "chip": "ym2612"
    },
    {
      "channel": 4,
      "note": 52,
      "start": 5.6623,
      "duration": 0.1201,
      "velocity": 127,
      "chip": "ym2612"
    },
    {
      "channel": 0,
      "note": 83,
      "start": 5.7798,
      "duration": 0.3637,
      "velocity": 105,
      "chip": "ym2612"
    },
    {
      "channel": 1,
      "note": 59,
      "start": 5.7806,
      "duration": 0.18,
      "velocity": 97,
      "chip": "ym2612"
    },
    {
      "channel": 2,
      "note": 75,
      "start": 5.7814,
      "duration": 0.1793,
      "velocity": 97,
      "chip": "ym2612"
    },
    {
      "channel": 4,
      "note": 52,
      "start": 5.7831,
      "duration": 0.249,
      "velocity": 127,
      "chip": "ym2612"
    },
    {
      "channel": 5,
      "note": 51,
      "start": 5.7864,
      "duration": 0.2404,
      "velocity": 117,
      "chip": "ym2612"
    },
    {
      "channel": 3,
      "note": 83,
      "start": 5.9455,
      "duration": 0.3656,
      "velocity": 105,
      "chip": "ym2612"
    },
    {
      "channel": 1,
      "note": 59,
      "start": 6.0303,
      "duration": 0.1803,
      "velocity": 97,
      "chip": "ym2612"
    },
    {
      "channel": 2,
      "note": 71,
      "start": 6.0312,
      "duration": 0.1796,
      "velocity": 97,
      "chip": "ym2612"
    },
    {
      "channel": 4,
      "note": 52,
      "start": 6.0328,
      "duration": 0.1121,
      "velocity": 127,
      "chip": "ym2612"
    },
    {
      "channel": 5,
      "note": 52,
      "start": 6.0361,
      "duration": 0.2243,
      "velocity": 115,
      "chip": "ym2612"
    },
    {
      "channel": 4,
      "note": 52,
      "start": 6.1456,
      "duration": 0.1207,
      "velocity": 127,
      "chip": "ym2612"
    },
    {
      "channel": 0,
      "note": 82,
      "start": 6.2637,
      "duration": 0.7631,
      "velocity": 105,
      "chip": "ym2612"
    },
    {
      "channel": 1,
      "note": 60,
      "start": 6.2644,
      "duration": 0.1793,
      "velocity": 97,
      "chip": "ym2612"
    },
    {
      "channel": 2,
      "note": 70,
      "start": 6.2653,
      "duration": 0.1787,
      "velocity": 97,
      "chip": "ym2612"
    },
    {
      "channel": 4,
      "note": 52,
      "start": 6.267,
      "duration": 0.2483,
      "velocity": 127,
      "chip": "ym2612"
    },
    {
      "channel": 5,
      "note": 51,
      "start": 6.2703,
      "duration": 0.2396,
      "velocity": 117,
      "chip": "ym2612"
    },
    {
      "channel": 3,
      "note": 82,
      "start": 6.4289,
      "duration": 0.7658,
      "velocity": 105,
      "chip": "ym2612"
    },
    {
      "channel": 1,
      "note": 60,
      "start": 6.5135,
      "duration": 0.1805,
      "velocity": 97,
      "chip": "ym2612"
    },
    {
      "channel": 2,
      "note": 70,
      "start": 6.5144,
      "duration": 0.1798,
      "velocity": 97,
      "chip": "ym2612"
    },
    {
      "channel": 4,
      "note": 52,
      "start": 6.516,
      "duration": 0.1125,
      "velocity": 127,
      "chip": "ym2612"
    },
    {
      "channel": 5,
      "note": 52,
      "start": 6.5193,
      "duration": 0.2241,
      "velocity": 115,
      "chip": "ym2612"
    },
    {
      "channel": 4,
      "note": 52,
      "start": 6.6293,
      "duration": 0.1195,
      "velocity": 127,
      "chip": "ym2612"
    },
    {
      "channel": 1,
      "note": 60,
      "start": 6.747,
      "duration": 0.1803,
      "velocity": 97,
      "chip": "ym2612"
    },
    {
      "channel": 2,
      "note": 72,
      "start": 6.7478,
      "duration": 0.1796,
      "velocity": 97,
      "chip": "ym2612"
    },
    {
      "channel": 4,
      "note": 52,
      "start": 6.7495,
      "duration": 0.2494,
      "velocity": 127,
      "chip": "ym2612"
    },
    {
      "channel": 5,
      "note": 51,
      "start": 6.7528,
      "duration": 0.2406,
      "velocity": 117,
      "chip": "ym2612"
    },
    {
      "channel": 1,
      "note": 60,
      "start": 6.997,
      "duration": 0.1802,
      "velocity": 97,
      "chip": "ym2612"
    },
    {
      "channel": 2,
      "note": 76,
      "start": 6.9978,
      "duration": 0.1795,
      "velocity": 97,
      "chip": "ym2612"
    },
    {
      "channel": 4,
      "note": 52,
      "start": 6.9995,
      "duration": 0.1146,
      "velocity": 127,
      "chip": "ym2612"
    },
    {
      "channel": 5,
      "note": 52,
      "start": 7.0029,
      "duration": 0.1071,
      "velocity": 115,
      "chip": "ym2612"
    },
    {
      "channel": 4,
      "note": 52,
      "start": 7.1149,
      "duration": 0.1172,
      "velocity": 127,
      "chip": "ym2612"
    },
    {
      "channel": 5,
      "note": 52,
      "start": 7.1182,
      "duration": 0.1086,
      "velocity": 115,
      "chip": "ym2612"
    },
    {
      "channel": 0,
      "note": 80,
      "start": 7.23,
      "duration": 0.7635,
      "velocity": 105,
      "chip": "ym2612"
    },
    {
      "channel": 1,
      "note": 61,
      "start": 7.2307,
      "duration": 0.1799,
      "velocity": 97,
      "chip": "ym2612"
    },
    {
      "channel": 2,
      "note": 77,
      "start": 7.2315,
      "duration": 0.1792,
      "velocity": 97,
      "chip": "ym2612"
    },
    {
      "channel": 4,
      "note": 52,
      "start": 7.2328,
      "duration": 0.0627,
      "velocity": 127,
      "chip": "ym2612"
    },
    {
      "channel": 5,
      "note": 51,
      "start": 7.2362,
      "duration": 0.2406,
      "velocity": 117,
      "chip": "ym2612"
    },
    {
      "channel": 4,
      "note": 52,
      "start": 7.2962,
      "duration": 0.0494,
      "velocity": 127,
      "chip": "ym2612"
    },
    {
      "channel": 4,
      "note": 52,
      "start": 7.3463,
      "duration": 0.1354,
      "velocity": 127,
      "chip": "ym2612"
    },
    {
      "channel": 3,
      "note": 80,
      "start": 7.3955,
      "duration": 0.7658,
      "velocity": 105,
      "chip": "ym2612"
    },
    {
      "channel": 1,
      "note": 61,
      "start": 7.4803,
      "duration": 0.1804,
      "velocity": 97,
      "chip": "ym2612"
    },
    {
      "channel": 2,
      "note": 78,
      "start": 7.4812,
      "duration": 0.1796,
      "velocity": 97,
      "chip": "ym2612"
    },
    {
      "channel": 4,
      "note": 52,
      "start": 7.4824,
      "duration": 0.1128,
      "velocity": 127,
      "chip": "ym2612"
    },
    {
      "channel": 5,
      "note": 52,
      "start": 7.4857,
      "duration": 0.2242,
      "velocity": 115,
      "chip": "ym2612"
    },
    {
      "channel": 4,
      "note": 52,
      "start": 7.5959,
      "duration": 0.1194,
      "velocity": 127,
      "chip": "ym2612"
    },
    {
      "channel": 1,
      "note": 61,
      "start": 7.7135,
      "duration": 0.1805,
      "velocity": 97,
      "chip": "ym2612"
    },
    {
      "channel": 2,
      "note": 80,
      "start": 7.7143,
      "duration": 0.1798,
      "velocity": 97,
      "chip": "ym2612"
    },
    {
      "channel": 4,
      "note": 52,
      "start": 7.7159,
      "duration": 0.2496,
      "velocity": 127,
      "chip": "ym2612"
    },
    {
      "channel": 5,
      "note": 51,
      "start": 7.7193,
      "duration": 0.2408,
      "velocity": 117,
      "chip": "ym2612"
    },
    {
      "channel": 1,
      "note": 61,
      "start": 7.9637,
      "duration": 0.1804,
      "velocity": 97,
      "chip": "ym2612"
    },
    {
      "channel": 2,
      "note": 85,
      "start": 7.9645,
      "duration": 0.1796,
      "velocity": 97,
      "chip": "ym2612"
    },
    {
      "channel": 4,
      "note": 52,
      "start": 7.9662,
      "duration": 0.1123,
      "velocity": 127,
      "chip": "ym2612"
    },
    {
      "channel": 5,
      "note": 52,
      "start": 7.9696,
      "duration": 0.2242,
      "velocity": 115,
      "chip": "ym2612"
    },
    {
      "channel": 4,
      "note": 52,
      "start": 8.0793,
      "duration": 0.1211,
      "velocity": 127,
      "chip": "ym2612"
    },
    {
      "channel": 0,
      "note": 78,
      "start": 8.1971,
      "duration": 0.3631,
      "velocity": 105,
      "chip": "ym2612"
    },
    {
      "channel": 1,
      "note": 54,
      "start": 8.1981,
      "duration": 0.1789,
      "velocity": 97,
      "chip": "ym2612"
    },
    {
      "channel": 2,
      "note": 78,
      "start": 8.1993,
      "duration": 0.1779,
      "velocity": 97,
      "chip": "ym2612"
    },
    {
      "channel": 4,
      "note": 52,
      "start": 8.2011,
      "duration": 0.2476,
      "velocity": 127,
      "chip": "ym2612"
    },
    {
      "channel": 5,
      "note": 51,
      "start": 8.2044,
      "duration": 0.2389,
      "velocity": 117,
      "chip": "ym2612"
    },
    {
      "channel": 3,
      "note": 78,
      "start": 8.3623,
      "duration": 0.3658,
      "velocity": 105,
      "chip": "ym2612"
    },
    {
      "channel": 1,
      "note": 54,
      "start": 8.4469,
      "duration": 0.4828,
      "velocity": 97,
      "chip": "ym2612"
    },
    {
      "channel": 2,
      "note": 73,
      "start": 8.4478,
      "duration": 0.1798,
      "velocity": 97,
      "chip": "ym2612"
    },
    {
      "channel": 4,
      "note": 52,
      "start": 8.4494,
      "duration": 0.1122,
      "velocity": 127,
      "chip": "ym2612"
    },
    {
      "channel": 5,
      "note": 52,
      "start": 8.4527,
      "duration": 0.224,
      "velocity": 115,
      "chip": "ym2612"
    },
    {
      "channel": 4,
      "note": 52,
      "start": 8.5623,
      "duration": 0.1203,
      "velocity": 127,
      "chip": "ym2612"
    },
    {
      "channel": 0,
      "note": 82,
      "start": 8.68,
      "duration": 0.3658,
      "velocity": 105,
      "chip": "ym2612"
    },
    {
      "channel": 2,
      "note": 70,
      "start": 8.6816,
      "duration": 0.1791,
      "velocity": 97,
      "chip": "ym2612"
    },
    {
      "channel": 4,
      "note": 52,
      "start": 8.6833,
      "duration": 0.2488,
      "velocity": 127,
      "chip": "ym2612"
    },
    {
      "channel": 5,
      "note": 51,
      "start": 8.6866,
      "duration": 0.2402,
      "velocity": 117,
      "chip": "ym2612"
    },
    {
      "channel": 3,
      "note": 82,
      "start": 8.8454,
      "duration": 0.366,
      "velocity": 105,
      "chip": "ym2612"
    },
    {
      "channel": 1,
      "note": 54,
      "start": 8.9303,
      "duration": 0.1801,
      "velocity": 97,
      "chip": "ym2612"
    },
    {
      "channel": 2,
      "note": 78,
      "start": 8.9312,
      "duration": 0.1794,
      "velocity": 97,
      "chip": "ym2612"
    },
    {
      "channel": 4,
      "note": 52,
      "start": 8.9328,
      "duration": 0.1144,
      "velocity": 127,
      "chip": "ym2612"
    },
    {
      "channel": 5,
      "note": 52,
      "start": 8.9361,
      "duration": 0.1072,
      "velocity": 115,
      "chip": "ym2612"
    },
    {
      "channel": 4,
      "note": 52,
      "start": 9.0479,
      "duration": 0.1172,
      "velocity": 127,
      "chip": "ym2612"
    },
    {
      "channel": 5,
      "note": 52,
      "start": 9.0512,
      "duration": 0.1088,
      "velocity": 115,
      "chip": "ym2612"
    },
    {
      "channel": 0,
      "note": 90,
      "start": 9.1633,
      "duration": 0.3635,
      "velocity": 105,
      "chip": "ym2612"
    },
    {
      "channel": 2,
      "note": 82,
      "start": 9.1645,
      "duration": 0.1798,
      "velocity": 97,
      "chip": "ym2612"
    },
    {
      "channel": 4,
      "note": 52,
      "start": 9.1658,
      "duration": 0.0632,
      "velocity": 127,
      "chip": "ym2612"
    },
    {
      "channel": 5,
      "note": 51,
      "start": 9.1691,
      "duration": 0.241,
      "velocity": 117,
      "chip": "ym2612"
    },
    {
      "channel": 4,
      "note": 52,
      "start": 9.2296,
      "duration": 0.0493,
      "velocity": 127,
      "chip": "ym2612"
    },
    {
      "channel": 4,
      "note": 52,
      "start": 9.2796,
      "duration": 0.1355,
      "velocity": 127,
      "chip": "ym2612"
    },
    {
      "channel": 3,
      "note": 90,
      "start": 9.3289,
      "duration": 0.3658,
      "velocity": 105,
      "chip": "ym2612"
    },
    {
      "channel": 1,
      "note": 54,
      "start": 9.4137,
      "duration": 0.1803,
      "velocity": 97,
      "chip": "ym2612"
    },
    {
      "channel": 2,
      "note": 78,
      "start": 9.4145,
      "duration": 0.1796,
      "velocity": 97,
      "chip": "ym2612"
    },
    {
      "channel": 4,
      "note": 52,
      "start": 9.4158,
      "duration": 0.1125,
      "velocity": 127,
      "chip": "ym2612"
    },
    {
      "channel": 5,
      "note": 52,
      "start": 9.4191,
      "duration": 0.2242,
      "velocity": 115,
      "chip": "ym2612"
    },
    {
      "channel": 4,
      "note": 52,
      "start": 9.5289,
      "duration": 0.1197,
      "velocity": 127,
      "chip": "ym2612"
    },
    {
      "channel": 0,
      "note": 85,
      "start": 9.6465,
      "duration": 0.3637,
      "velocity": 105,
      "chip": "ym2612"
    },
    {
      "channel": 2,
      "note": 73,
      "start": 9.6476,
      "duration": 0.18,
      "velocity": 97,
      "chip": "ym2612"
    },
    {
      "channel": 4,
      "note": 52,
      "start": 9.6493,
      "duration": 0.2494,
      "velocity": 127,
      "chip": "ym2612"
    },
    {
      "channel": 5,
      "note": 51,
      "start": 9.6527,
      "duration": 0.2408,
      "velocity": 117,
      "chip": "ym2612"
    },
    {
      "channel": 3,
      "note": 85,
      "start": 9.8122,
      "duration": 0.3656,
      "velocity": 105,
      "chip": "ym2612"
    },
    {
      "channel": 1,
      "note": 49,
      "start": 9.897,
      "duration": 0.1804,
      "velocity": 97,
      "chip": "ym2612"
    },
    {
      "channel": 2,
      "note": 78,
      "start": 9.8978,
      "duration": 0.1797,
      "velocity": 97,
      "chip": "ym2612"
    },
    {
      "channel": 4,
      "note": 52,
      "start": 9.8995,
      "duration": 0.1121,
      "velocity": 127,
      "chip": "ym2612"
    },
    {
      "channel": 5,
      "note": 52,
      "start": 9.9028,
      "duration": 0.2243,
      "velocity": 115,
      "chip": "ym2612"
    },
    {
      "channel": 4,
      "note": 52,
      "start": 10.0123,
      "duration": 0.1206,
      "velocity": 127,
      "chip": "ym2612"
    },
    {
      "channel": 0,
      "note": 87,
      "start": 10.1303,
      "duration": 0.3632,
      "velocity": 105,
      "chip": "ym2612"
    },
    {
      "channel": 1,
      "note": 51,
      "start": 10.131,
      "duration": 0.1794,
      "velocity": 97,
      "chip": "ym2612"
    },
    {
      "channel": 2,
      "note": 75,
      "start": 10.1319,
      "duration": 0.1788,
      "velocity": 97,
      "chip": "ym2612"
    },
    {
      "channel": 4,
      "note": 52,
      "start": 10.1336,
      "duration": 0.2484,
      "velocity": 127,
      "chip": "ym2612"
    },
    {
      "channel": 5,
      "note": 51,
      "start": 10.1369,
      "duration": 0.2398,
      "velocity": 117,
      "chip": "ym2612"
    },
    {
      "channel": 3,
      "note": 87,
      "start": 10.2955,
      "duration": 0.3658,
      "velocity": 105,
      "chip": "ym2612"
    },
    {
      "channel": 1,
      "note": 51,
      "start": 10.3801,
      "duration": 0.1806,
      "velocity": 97,
      "chip": "ym2612"
    },
    {
      "channel": 2,
      "note": 78,
      "start": 10.381,
      "duration": 0.1799,
      "velocity": 97,
      "chip": "ym2612"
    },
    {
      "channel": 4,
      "note": 52,
      "start": 10.3827,
      "duration": 0.1122,
      "velocity": 127,
      "chip": "ym2612"
    },
    {
      "channel": 5,
      "note": 52,
      "start": 10.386,
      "duration": 0.2241,
      "velocity": 115,
      "chip": "ym2612"
    },
    {
      "channel": 4,
      "note": 52,
      "start": 10.4956,
      "duration": 0.1202,
      "velocity": 127,
      "chip": "ym2612"
    },
    {
      "channel": 0,
      "note": 87,
      "start": 10.6133,
      "duration": 0.3658,
      "velocity": 105,
      "chip": "ym2612"
    },
    {
      "channel": 1,
      "note": 53,
      "start": 10.614,
      "duration": 0.1799,
      "velocity": 97,
      "chip": "ym2612"
    },
    {
      "channel": 2,
      "note": 82,
      "start": 10.6149,
      "duration": 0.1792,
      "velocity": 97,
      "chip": "ym2612"
    },
    {
      "channel": 4,
      "note": 52,
      "start": 10.6165,
      "duration": 0.2489,
      "velocity": 127,
      "chip": "ym2612"
    },
    {
      "channel": 5,
      "note": 51,
      "start": 10.6198,
      "duration": 0.2402,
      "velocity": 117,
      "chip": "ym2612"
    },
    {
      "channel": 3,
      "note": 87,
      "start": 10.7787,
      "duration": 0.3661,
      "velocity": 105,
      "chip": "ym2612"
    },
    {
      "channel": 1,
      "note": 54,
      "start": 10.8637,
      "duration": 0.1802,
      "velocity": 97,
      "chip": "ym2612"
    },
    {
      "channel": 2,
      "note": 78,
      "start": 10.8645,
      "duration": 0.1795,
      "velocity": 97,
      "chip": "ym2612"
    },
    {
      "channel": 4,
      "note": 52,
      "start": 10.8661,
      "duration": 0.1144,
      "velocity": 127,
      "chip": "ym2612"
    },
    {
      "channel": 5,
      "note": 52,
      "start": 10.8695,
      "duration": 0.1072,
      "velocity": 115,
      "chip": "ym2612"
    },
    {
      "channel": 4,
      "note": 52,
      "start": 10.9812,
      "duration": 0.1172,
      "velocity": 127,
      "chip": "ym2612"
    },
    {
      "channel": 5,
      "note": 52,
      "start": 10.9846,
      "duration": 0.1088,
      "velocity": 115,
      "chip": "ym2612"
    },
    {
      "channel": 0,
      "note": 89,
      "start": 11.0967,
      "duration": 0.3635,
      "velocity": 105,
      "chip": "ym2612"
    },
    {
      "channel": 2,
      "note": 78,
      "start": 11.0978,
      "duration": 0.1798,
      "velocity": 97,
      "chip": "ym2612"
    },
    {
      "channel": 4,
      "note": 52,
      "start": 11.0991,
      "duration": 0.0632,
      "velocity": 127,
      "chip": "ym2612"
    },
    {
      "channel": 5,
      "note": 51,
      "start": 11.1025,
      "duration": 0.241,
      "velocity": 117,
      "chip": "ym2612"
    },
    {
      "channel": 4,
      "note": 52,
      "start": 11.1629,
      "duration": 0.0493,
      "velocity": 127,
      "chip": "ym2612"
    },
    {
      "channel": 4,
      "note": 52,
      "start": 11.2129,
      "duration": 0.1355,
      "velocity": 127,
      "chip": "ym2612"
    },
    {
      "channel": 3,
      "note": 89,
      "start": 11.2622,
      "duration": 0.366,
      "velocity": 105,
      "chip": "ym2612"
    },
    {
      "channel": 1,
      "note": 56,
      "start": 11.347,
      "duration": 0.1804,
      "velocity": 97,
      "chip": "ym2612"
    },
    {
      "channel": 2,
      "note": 80,
      "start": 11.3478,
      "duration": 0.1797,
      "velocity": 97,
      "chip": "ym2612"
    },
    {
      "channel": 4,
      "note": 52,
      "start": 11.3491,
      "duration": 0.1125,
      "velocity": 127,
      "chip": "ym2612"
    },
    {
      "channel": 5,
      "note": 52,
      "start": 11.3524,
      "duration": 0.2242,
      "velocity": 115,
      "chip": "ym2612"
    },
    {
      "channel": 4,
      "note": 52,
      "start": 11.4623,
      "duration": 0.1197,
      "velocity": 127,
      "chip": "ym2612"
    },
    {
      "channel": 0,
      "note": 90,
      "start": 11.5798,
      "duration": 0.3637,
      "velocity": 105,
      "chip": "ym2612"
    },
    {
      "channel": 2,
      "note": 82,
      "start": 11.581,
      "duration": 0.1799,
      "velocity": 97,
      "chip": "ym2612"
    },
    {
      "channel": 4,
      "note": 52,
      "start": 11.5827,
      "duration": 0.2494,
      "velocity": 127,
      "chip": "ym2612"
    },
    {
      "channel": 5,
      "note": 51,
      "start": 11.586,
      "duration": 0.2408,
      "velocity": 117,
      "chip": "ym2612"
    },
    {
      "channel": 3,
      "note": 90,
      "start": 11.7455,
      "duration": 0.3658,
      "velocity": 105,
      "chip": "ym2612"
    },
    {
      "channel": 1,
      "note": 51,
      "start": 11.8303,
      "duration": 0.1804,
      "velocity": 97,
      "chip": "ym2612"
    },
    {
      "channel": 2,
      "note": 83,
      "start": 11.8312,
      "duration": 0.1797,
      "velocity": 97,
      "chip": "ym2612"
    },
    {
      "channel": 4,
      "note": 52,
      "start": 11.8328,
      "duration": 0.1121,
      "velocity": 127,
      "chip": "ym2612"
    },
    {
      "channel": 5,
      "note": 52,
      "start": 11.8362,
      "duration": 0.2242,
      "velocity": 115,
      "chip": "ym2612"
    },
    {
      "channel": 4,
      "note": 52,
      "start": 11.9456,
      "duration": 0.121,
      "velocity": 127,
      "chip": "ym2612"
    },
    {
      "channel": 0,
      "note": 90,
      "start": 12.0638,
      "duration": 1.1795,
      "velocity": 105,
      "chip": "ym2612"
    },
    {
      "channel": 1,
      "note": 58,
      "start": 12.0647,
      "duration": 0.179,
      "velocity": 97,
      "chip": "ym2612"
    },
    {
      "channel": 2,
      "note": 85,
      "start": 12.0656,
      "duration": 0.1784,
      "velocity": 97,
      "chip": "ym2612"
    },
    {
      "channel": 4,
      "note": 52,
      "start": 12.0673,
      "duration": 0.248,
      "velocity": 127,
      "chip": "ym2612"
    },
    {
      "channel": 5,
      "note": 51,
      "start": 12.0706,
      "duration": 0.2394,
      "velocity": 117,
      "chip": "ym2612"
    },
    {
      "channel": 3,
      "note": 90,
      "start": 12.229,
      "duration": 1.1823,
      "velocity": 105,
      "chip": "ym2612"
    },
    {
      "channel": 1,
      "note": 58,
      "start": 12.3135,
      "duration": 0.1806,
      "velocity": 97,
      "chip": "ym2612"
    },
    {
      "channel": 2,
      "note": 77,
      "start": 12.3144,
      "duration": 0.1799,
      "velocity": 97,
      "chip": "ym2612"
    },
    {
      "channel": 4,
      "note": 52,
      "start": 12.316,
      "duration": 0.1125,
      "velocity": 127,
      "chip": "ym2612"
    },
    {
      "channel": 5,
      "note": 52,
      "start": 12.3193,
      "duration": 0.2241,
      "velocity": 115,
      "chip": "ym2612"
    },
    {
      "channel": 4,
      "note": 52,
      "start": 12.4293,
      "duration": 0.1195,
      "velocity": 127,
      "chip": "ym2612"
    },
    {
      "channel": 1,
      "note": 58,
      "start": 12.547,
      "duration": 0.1803,
      "velocity": 97,
      "chip": "ym2612"
    },
    {
      "channel": 2,
      "note": 85,
      "start": 12.5478,
      "duration": 0.1796,
      "velocity": 97,
      "chip": "ym2612"
    },
    {
      "channel": 4,
      "note": 52,
      "start": 12.5495,
      "duration": 0.2494,
      "velocity": 127,
      "chip": "ym2612"
    },
    {
      "channel": 5,
      "note": 51,
      "start": 12.5528,
      "duration": 0.2406,
      "velocity": 117,
      "chip": "ym2612"
    },
    {
      "channel": 1,
      "note": 58,
      "start": 12.797,
      "duration": 0.1802,
      "velocity": 97,
      "chip": "ym2612"
    },
    {
      "channel": 2,
      "note": 82,
      "start": 12.7978,
      "duration": 0.1795,
      "velocity": 97,
      "chip": "ym2612"
    },
    {
      "channel": 4,
      "note": 52,
      "start": 12.7995,
      "duration": 0.1146,
      "velocity": 127,
      "chip": "ym2612"
    },
    {
      "channel": 5,
      "note": 52,
      "start": 12.8029,
      "duration": 0.1071,
      "velocity": 115,
      "chip": "ym2612"
    },
    {
      "channel": 4,
      "note": 52,
      "start": 12.9148,
      "duration": 0.117,
      "velocity": 127,
      "chip": "ym2612"
    },
    {
      "channel": 5,
      "note": 52,
      "start": 12.9182,
      "duration": 0.1086,
      "velocity": 115,
      "chip": "ym2612"
    },
    {
      "channel": 1,
      "note": 59,
      "start": 13.0304,
      "duration": 0.1802,
      "velocity": 97,
      "chip": "ym2612"
    },
    {
      "channel": 2,
      "note": 83,
      "start": 13.0312,
      "duration": 0.1795,
      "velocity": 97,
      "chip": "ym2612"
    },
    {
      "channel": 4,
      "note": 52,
      "start": 13.0325,
      "duration": 0.0631,
      "velocity": 127,
      "chip": "ym2612"
    },
    {
      "channel": 5,
      "note": 51,
      "start": 13.0359,
      "duration": 0.2242,
      "velocity": 117,
      "chip": "ym2612"
    },
    {
      "channel": 4,
      "note": 52,
      "start": 13.0963,
      "duration": 0.0492,
      "velocity": 127,
      "chip": "ym2612"
    },
    {
      "channel": 4,
      "note": 52,
      "start": 13.1462,
      "duration": 0.1189,
      "velocity": 127,
      "chip": "ym2612"
    },
    {
      "channel": 1,
      "note": 59,
      "start": 13.2637,
      "duration": 0.1802,
      "velocity": 97,
      "chip": "ym2612"
    },
    {
      "channel": 2,
      "note": 78,
      "start": 13.2645,
      "duration": 0.1795,
      "velocity": 97,
      "chip": "ym2612"
    },
    {
      "channel": 4,
      "note": 52,
      "start": 13.2658,
      "duration": 0.1295,
      "velocity": 127,
      "chip": "ym2612"
    },
    {
      "channel": 5,
      "note": 52,
      "start": 13.2691,
      "duration": 0.2408,
      "velocity": 115,
      "chip": "ym2612"
    },
    {
      "channel": 4,
      "note": 52,
      "start": 13.3959,
      "duration": 0.1198,
      "velocity": 127,
      "chip": "ym2612"
    },
    {
      "channel": 0,
      "note": 90,
      "start": 13.5133,
      "duration": 0.1802,
      "velocity": 105,
      "chip": "ym2612"
    },
    {
      "channel": 1,
      "note": 59,
      "start": 13.514,
      "duration": 0.1797,
      "velocity": 97,
      "chip": "ym2612"
    },
    {
      "channel": 2,
      "note": 75,
      "start": 13.5148,
      "duration": 0.179,
      "velocity": 97,
      "chip": "ym2612"
    },
    {
      "channel": 4,
      "note": 52,
      "start": 13.5165,
      "duration": 0.2327,
      "velocity": 127,
      "chip": "ym2612"
    },
    {
      "channel": 5,
      "note": 51,
      "start": 13.5198,
      "duration": 0.2236,
      "velocity": 117,
      "chip": "ym2612"
    },
    {
      "channel": 3,
      "note": 90,
      "start": 13.6789,
      "duration": 0.1824,
      "velocity": 105,
      "chip": "ym2612"
    },
    {
      "channel": 0,
      "note": 92,
      "start": 13.7467,
      "duration": 0.1802,
      "velocity": 105,
      "chip": "ym2612"
    },
    {
      "channel": 1,
      "note": 59,
      "start": 13.7474,
      "duration": 0.1796,
      "velocity": 97,
      "chip": "ym2612"
    },
    {
      "channel": 2,
      "note": 71,
      "start": 13.7482,
      "duration": 0.1789,
      "velocity": 97,
      "chip": "ym2612"
    },
    {
      "channel": 4,
      "note": 52,
      "start": 13.7499,
      "duration": 0.1286,
      "velocity": 127,
      "chip": "ym2612"
    },
    {
      "channel": 5,
      "note": 52,
      "start": 13.7532,
      "duration": 0.2406,
      "velocity": 115,
      "chip": "ym2612"
    },
    {
      "channel": 4,
      "note": 52,
      "start": 13.8792,
      "duration": 0.1205,
      "velocity": 127,
      "chip": "ym2612"
    },
    {
      "channel": 3,
      "note": 92,
      "start": 13.912,
      "duration": 0.1827,
      "velocity": 105,
      "chip": "ym2612"
    },
    {
      "channel": 0,
      "note": 94,
      "start": 13.9971,
      "duration": 0.7631,
      "velocity": 105,
      "chip": "ym2612"
    },
    {
      "channel": 1,
      "note": 60,
      "start": 13.9978,
      "duration": 0.1793,
      "velocity": 97,
      "chip": "ym2612"
    },
    {
      "channel": 2,
      "note": 70,
      "start": 13.9986,
      "duration": 0.1787,
      "velocity": 97,
      "chip": "ym2612"
    },
    {
      "channel": 4,
      "note": 52,
      "start": 14.0003,
      "duration": 0.2319,
      "velocity": 127,
      "chip": "ym2612"
    },
    {
      "channel": 5,
      "note": 51,
      "start": 14.0037,
      "duration": 0.2231,
      "velocity": 117,
      "chip": "ym2612"
    },
    {
      "channel": 3,
      "note": 94,
      "start": 14.1623,
      "duration": 0.7657,
      "velocity": 105,
      "chip": "ym2612"
    },
    {
      "channel": 1,
      "note": 60,
      "start": 14.2303,
      "duration": 0.1803,
      "velocity": 97,
      "chip": "ym2612"
    },
    {
      "channel": 2,
      "note": 70,
      "start": 14.2312,
      "duration": 0.1796,
      "velocity": 97,
      "chip": "ym2612"
    },
    {
      "channel": 4,
      "note": 52,
      "start": 14.2329,
      "duration": 0.129,
      "velocity": 127,
      "chip": "ym2612"
    },
    {
      "channel": 5,
      "note": 52,
      "start": 14.2362,
      "duration": 0.2406,
      "velocity": 115,
      "chip": "ym2612"
    },
    {
      "channel": 4,
      "note": 52,
      "start": 14.3626,
      "duration": 0.1195,
      "velocity": 127,
      "chip": "ym2612"
    },
    {
      "channel": 1,
      "note": 60,
      "start": 14.4803,
      "duration": 0.1803,
      "velocity": 97,
      "chip": "ym2612"
    },
    {
      "channel": 2,
      "note": 72,
      "start": 14.4812,
      "duration": 0.1796,
      "velocity": 97,
      "chip": "ym2612"
    },
    {
      "channel": 4,
      "note": 52,
      "start": 14.4828,
      "duration": 0.2325,
      "velocity": 127,
      "chip": "ym2612"
    },
    {
      "channel": 5,
      "note": 51,
      "start": 14.4861,
      "duration": 0.2239,
      "velocity": 117,
      "chip": "ym2612"
    },
    {
      "channel": 1,
      "note": 60,
      "start": 14.7135,
      "duration": 0.1804,
      "velocity": 97,
      "chip": "ym2612"
    },
    {
      "channel": 2,
      "note": 76,
      "start": 14.7144,
      "duration": 0.1797,
      "velocity": 97,
      "chip": "ym2612"
    },
    {
      "channel": 4,
      "note": 52,
      "start": 14.716,
      "duration": 0.1315,
      "velocity": 127,
      "chip": "ym2612"
    },
    {
      "channel": 5,
      "note": 52,
      "start": 14.7193,
      "duration": 0.124,
      "velocity": 115,
      "chip": "ym2612"
    },
    {
      "channel": 4,
      "note": 52,
      "start": 14.8482,
      "duration": 0.1172,
      "velocity": 127,
      "chip": "ym2612"
    },
    {
      "channel": 5,
      "note": 52,
      "start": 14.8515,
      "duration": 0.1086,
      "velocity": 115,
      "chip": "ym2612"
    },
    {
      "channel": 0,
      "note": 92,
      "start": 14.9633,
      "duration": 0.7635,
      "velocity": 105,
      "chip": "ym2612"
    },
    {
      "channel": 1,
      "note": 61,
      "start": 14.964,
      "duration": 0.1799,
      "velocity": 97,
      "chip": "ym2612"
    },
    {
      "channel": 2,
      "note": 77,
      "start": 14.9649,
      "duration": 0.1792,
      "velocity": 97,
      "chip": "ym2612"
    },
    {
      "channel": 4,
      "note": 52,
      "start": 14.9661,
      "duration": 0.0627,
      "velocity": 127,
      "chip": "ym2612"
    },
    {
      "channel": 5,
      "note": 51,
      "start": 14.9695,
      "duration": 0.2239,
      "velocity": 117,
      "chip": "ym2612"
    },
    {
      "channel": 4,
      "note": 52,
      "start": 15.0296,
      "duration": 0.0494,
      "velocity": 127,
      "chip": "ym2612"
    },
    {
      "channel": 4,
      "note": 52,
      "start": 15.0796,
      "duration": 0.1188,
      "velocity": 127,
      "chip": "ym2612"
    },
    {
      "channel": 3,
      "note": 92,
      "start": 15.1289,
      "duration": 0.766,
      "velocity": 105,
      "chip": "ym2612"
    },
    {
      "channel": 1,
      "note": 61,
      "start": 15.197,
      "duration": 0.1801,
      "velocity": 97,
      "chip": "ym2612"
    },
    {
      "channel": 2,
      "note": 78,
      "start": 15.1978,
      "duration": 0.1794,
      "velocity": 97,
      "chip": "ym2612"
    },
    {
      "channel": 4,
      "note": 52,
      "start": 15.1991,
      "duration": 0.1295,
      "velocity": 127,
      "chip": "ym2612"
    },
    {
      "channel": 5,
      "note": 52,
      "start": 15.2025,
      "duration": 0.2408,
      "velocity": 115,
      "chip": "ym2612"
    },
    {
      "channel": 4,
      "note": 52,
      "start": 15.3293,
      "duration": 0.1194,
      "velocity": 127,
      "chip": "ym2612"
    },
    {
      "channel": 1,
      "note": 61,
      "start": 15.4468,
      "duration": 0.1805,
      "velocity": 97,
      "chip": "ym2612"
    },
    {
      "channel": 2,
      "note": 80,
      "start": 15.4476,
      "duration": 0.1798,
      "velocity": 97,
      "chip": "ym2612"
    },
    {
      "channel": 4,
      "note": 52,
      "start": 15.4493,
      "duration": 0.2328,
      "velocity": 127,
      "chip": "ym2612"
    },
    {
      "channel": 5,
      "note": 51,
      "start": 15.4527,
      "duration": 0.2241,
      "velocity": 117,
      "chip": "ym2612"
    },
    {
      "channel": 1,
      "note": 61,
      "start": 15.6803,
      "duration": 0.1803,
      "velocity": 97,
      "chip": "ym2612"
    },
    {
      "channel": 2,
      "note": 85,
      "start": 15.6812,
      "duration": 0.1796,
      "velocity": 97,
      "chip": "ym2612"
    },
    {
      "channel": 4,
      "note": 52,
      "start": 15.6828,
      "duration": 0.1291,
      "velocity": 127,
      "chip": "ym2612"
    },
    {
      "channel": 5,
      "note": 52,
      "start": 15.6862,
      "duration": 0.2409,
      "velocity": 115,
      "chip": "ym2612"
    },
    {
      "channel": 4,
      "note": 52,
      "start": 15.8126,
      "duration": 0.1209,
      "velocity": 127,
      "chip": "ym2612"
    },
    {
      "channel": 0,
      "note": 90,
      "start": 15.9304,
      "duration": 3.3822,
      "velocity": 105,
      "chip": "ym2612"
    },
    {
      "channel": 1,
      "note": 54,
      "start": 15.9313,
      "duration": 0.1791,
      "velocity": 97,
      "chip": "ym2612"
    },
    {
      "channel": 2,
      "note": 78,
      "start": 15.9324,
      "duration": 0.362,
      "velocity": 97,
      "chip": "ym2612"
    },
    {
      "channel": 4,
      "note": 52,
      "start": 15.9341,
      "duration": 0.2312,
      "velocity": 127,
      "chip": "ym2612"
    },
    {
      "channel": 5,
      "note": 51,
      "start": 15.9375,
      "duration": 0.2226,
      "velocity": 117,
      "chip": "ym2612"
    },
    {
      "channel": 3,
      "note": 90,
      "start": 16.0956,
      "duration": 3.3658,
      "velocity": 105,
      "chip": "ym2612"
    },
    {
      "channel": 1,
      "note": 54,
      "start": 16.1639,
      "duration": 0.1801,
      "velocity": 97,
      "chip": "ym2612"
    },
    {
      "channel": 4,
      "note": 52,
      "start": 16.166,
      "duration": 0.1289,
      "velocity": 127,
      "chip": "ym2612"
    },
    {
      "channel": 5,
      "note": 52,
      "start": 16.1693,
      "duration": 0.2408,
      "velocity": 115,
      "chip": "ym2612"
    },
    {
      "channel": 4,
      "note": 52,
      "start": 16.2956,
      "duration": 0.12,
      "velocity": 127,
      "chip": "ym2612"
    },
    {
      "channel": 1,
      "note": 54,
      "start": 16.4138,
      "duration": 0.1802,
      "velocity": 97,
      "chip": "ym2612"
    },
    {
      "channel": 2,
      "note": 66,
      "start": 16.4146,
      "duration": 0.3653,
      "velocity": 97,
      "chip": "ym2612"
    },
    {
      "channel": 4,
      "note": 52,
      "start": 16.4163,
      "duration": 0.2322,
      "velocity": 127,
      "chip": "ym2612"
    },
    {
      "channel": 5,
      "note": 45,
      "start": 16.4196,
      "duration": 0.2237,
      "velocity": 122,
      "chip": "ym2612"
    },
    {
      "channel": 1,
      "note": 54,
      "start": 16.647,
      "duration": 0.1804,
      "velocity": 97,
      "chip": "ym2612"
    },
    {
      "channel": 4,
      "note": 52,
      "start": 16.6492,
      "duration": 0.1314,
      "velocity": 127,
      "chip": "ym2612"
    },
    {
      "channel": 5,
      "note": 52,
      "start": 16.6525,
      "duration": 0.1241,
      "velocity": 115,
      "chip": "ym2612"
    },
    {
      "channel": 4,
      "note": 52,
      "start": 16.7812,
      "duration": 0.1174,
      "velocity": 127,
      "chip": "ym2612"
    },
    {
      "channel": 5,
      "note": 52,
      "start": 16.7845,
      "duration": 0.1089,
      "velocity": 115,
      "chip": "ym2612"
    },
    {
      "channel": 1,
      "note": 54,
      "start": 16.8972,
      "duration": 0.1801,
      "velocity": 97,
      "chip": "ym2612"
    },
    {
      "channel": 2,
      "note": 66,
      "start": 16.898,
      "duration": 0.3629,
      "velocity": 97,
      "chip": "ym2612"
    },
    {
      "channel": 4,
      "note": 52,
      "start": 16.8993,
      "duration": 0.0463,
      "velocity": 127,
      "chip": "ym2612"
    },
    {
      "channel": 5,
      "note": 51,
      "start": 16.9027,
      "duration": 0.2241,
      "velocity": 117,
      "chip": "ym2612"
    },
    {
      "channel": 4,
      "note": 52,
      "start": 16.9462,
      "duration": 0.066,
      "velocity": 127,
      "chip": "ym2612"
    },
    {
      "channel": 4,
      "note": 52,
      "start": 17.0129,
      "duration": 0.1187,
      "velocity": 127,
      "chip": "ym2612"
    },
    {
      "channel": 1,
      "note": 54,
      "start": 17.1305,
      "duration": 0.18,
      "velocity": 97,
      "chip": "ym2612"
    },
    {
      "channel": 4,
      "note": 52,
      "start": 17.1323,
      "duration": 0.1293,
      "velocity": 127,
      "chip": "ym2612"
    },
    {
      "channel": 5,
      "note": 52,
      "start": 17.1357,
      "duration": 0.241,
      "velocity": 115,
      "chip": "ym2612"
    },
    {
      "channel": 4,
      "note": 52,
      "start": 17.2623,
      "duration": 0.1198,
      "velocity": 127,
      "chip": "ym2612"
    },
    {
      "channel": 1,
      "note": 54,
      "start": 17.3803,
      "duration": 0.1804,
      "velocity": 97,
      "chip": "ym2612"
    },
    {
      "channel": 2,
      "note": 66,
      "start": 17.3812,
      "duration": 0.3631,
      "velocity": 97,
      "chip": "ym2612"
    },
    {
      "channel": 4,
      "note": 52,
      "start": 17.3828,
      "duration": 0.2324,
      "velocity": 127,
      "chip": "ym2612"
    },
    {
      "channel": 5,
      "note": 45,
      "start": 17.3861,
      "duration": 0.224,
      "velocity": 122,
      "chip": "ym2612"
    },
    {
      "channel": 1,
      "note": 54,
      "start": 17.6138,
      "duration": 0.1802,
      "velocity": 97,
      "chip": "ym2612"
    },
    {
      "channel": 4,
      "note": 52,
      "start": 17.6159,
      "duration": 0.129,
      "velocity": 127,
      "chip": "ym2612"
    },
    {
      "channel": 5,
      "note": 52,
      "start": 17.6193,
      "duration": 0.241,
      "velocity": 115,
      "chip": "ym2612"
    },
    {
      "channel": 4,
      "note": 52,
      "start": 17.7455,
      "duration": 0.121,
      "velocity": 127,
      "chip": "ym2612"
    },
    {
      "channel": 1,
      "note": 54,
      "start": 17.8645,
      "duration": 0.3629,
      "velocity": 97,
      "chip": "ym2612"
    },
    {
      "channel": 2,
      "note": 66,
      "start": 17.8654,
      "duration": 0.1786,
      "velocity": 97,
      "chip": "ym2612"
    },
    {
      "channel": 4,
      "note": 52,
      "start": 17.8672,
      "duration": 0.2312,
      "velocity": 127,
      "chip": "ym2612"
    },
    {
      "channel": 5,
      "note": 51,
      "start": 17.8705,
      "duration": 0.2229,
      "velocity": 117,
      "chip": "ym2612"
    },
    {
      "channel": 2,
      "note": 66,
      "start": 18.0974,
      "duration": 0.1802,
      "velocity": 97,
      "chip": "ym2612"
    },
    {
      "channel": 4,
      "note": 52,
      "start": 18.0992,
      "duration": 0.1292,
      "velocity": 127,
      "chip": "ym2612"
    },
    {
      "channel": 5,
      "note": 52,
      "start": 18.1025,
      "duration": 0.241,
      "velocity": 115,
      "chip": "ym2612"
    },
    {
      "channel": 4,
      "note": 52,
      "start": 18.229,
      "duration": 0.1198,
      "velocity": 127,
      "chip": "ym2612"
    },
    {
      "channel": 1,
      "note": 54,
      "start": 18.3469,
      "duration": 0.366,
      "velocity": 97,
      "chip": "ym2612"
    },
    {
      "channel": 2,
      "note": 66,
      "start": 18.3479,
      "duration": 0.3652,
      "velocity": 97,
      "chip": "ym2612"
    },
    {
      "channel": 4,
      "note": 52,
      "start": 18.3495,
      "duration": 0.2317,
      "velocity": 127,
      "chip": "ym2612"
    },
    {
      "channel": 5,
      "note": 45,
      "start": 18.3529,
      "duration": 0.2237,
      "velocity": 122,
      "chip": "ym2612"
    },
    {
      "channel": 4,
      "note": 52,
      "start": 18.5819,
      "duration": 0.1317,
      "velocity": 127,
      "chip": "ym2612"
    },
    {
      "channel": 5,
      "note": 52,
      "start": 18.5853,
      "duration": 0.1247,
      "velocity": 115,
      "chip": "ym2612"
    },
    {
      "channel": 4,
      "note": 52,
      "start": 18.7144,
      "duration": 0.1176,
      "velocity": 127,
      "chip": "ym2612"
    },
    {
      "channel": 5,
      "note": 52,
      "start": 18.7177,
      "duration": 0.1091,
      "velocity": 115,
      "chip": "ym2612"
    },
    {
      "channel": 1,
      "note": 54,
      "start": 18.8305,
      "duration": 0.1802,
      "velocity": 97,
      "chip": "ym2612"
    },
    {
      "channel": 2,
      "note": 66,
      "start": 18.8313,
      "duration": 0.1794,
      "velocity": 97,
      "chip": "ym2612"
    },
    {
      "channel": 4,
      "note": 52,
      "start": 18.8326,
      "duration": 0.0463,
      "velocity": 127,
      "chip": "ym2612"
    },
    {
      "channel": 5,
      "note": 51,
      "start": 18.836,
      "duration": 0.2241,
      "velocity": 117,
      "chip": "ym2612"
    },
    {
      "channel": 4,
      "note": 52,
      "start": 18.8796,
      "duration": 0.066,
      "velocity": 127,
      "chip": "ym2612"
    },
    {
      "channel": 4,
      "note": 52,
      "start": 18.9462,
      "duration": 0.1189,
      "velocity": 127,
      "chip": "ym2612"
    },
    {
      "channel": 1,
      "note": 54,
      "start": 19.0636,
      "duration": 0.1802,
      "velocity": 97,
      "chip": "ym2612"
    },
    {
      "channel": 2,
      "note": 66,
      "start": 19.0644,
      "duration": 0.1795,
      "velocity": 97,
      "chip": "ym2612"
    },
    {
      "channel": 4,
      "note": 52,
      "start": 19.0658,
      "duration": 0.1291,
      "velocity": 127,
      "chip": "ym2612"
    },
    {
      "channel": 5,
      "note": 52,
      "start": 19.0691,
      "duration": 0.2408,
      "velocity": 115,
      "chip": "ym2612"
    },
    {
      "channel": 4,
      "note": 52,
      "start": 19.1955,
      "duration": 0.1203,
      "velocity": 127,
      "chip": "ym2612"
    },
    {
      "channel": 0,
      "note": 82,
      "start": 19.3133,
      "duration": 0.1802,
      "velocity": 105,
      "chip": "ym2612"
    },
    {
      "channel": 1,
      "note": 54,
      "start": 19.314,
      "duration": 0.1797,
      "velocity": 97,
      "chip": "ym2612"
    },
    {
      "channel": 2,
      "note": 66,
      "start": 19.3149,
      "duration": 0.3628,
      "velocity": 97,
      "chip": "ym2612"
    },
    {
      "channel": 4,
      "note": 52,
      "start": 19.3165,
      "duration": 0.2323,
      "velocity": 127,
      "chip": "ym2612"
    },
    {
      "channel": 5,
      "note": 45,
      "start": 19.3199,
      "duration": 0.2235,
      "velocity": 122,
      "chip": "ym2612"
    },
    {
      "channel": 3,
      "note": 82,
      "start": 19.4622,
      "duration": 0.1824,
      "velocity": 105,
      "chip": "ym2612"
    },
    {
      "channel": 0,
      "note": 83,
      "start": 19.5467,
      "duration": 0.1802,
      "velocity": 105,
      "chip": "ym2612"
    },
    {
      "channel": 1,
      "note": 54,
      "start": 19.5474,
      "duration": 0.1796,
      "velocity": 97,
      "chip": "ym2612"
    },
    {
      "channel": 4,
      "note": 52,
      "start": 19.5495,
      "duration": 0.1123,
      "velocity": 127,
      "chip": "ym2612"
    },
    {
      "channel": 5,
      "note": 52,
      "start": 19.5529,
      "duration": 0.2408,
      "velocity": 115,
      "chip": "ym2612"
    },
    {
      "channel": 4,
      "note": 52,
      "start": 19.6625,
      "duration": 0.1377,
      "velocity": 127,
      "chip": "ym2612"
    },
    {
      "channel": 3,
      "note": 83,
      "start": 19.712,
      "duration": 0.1827,
      "velocity": 105,
      "chip": "ym2612"
    },
    {
      "channel": 0,
      "note": 85,
      "start": 19.7971,
      "duration": 0.3632,
      "velocity": 105,
      "chip": "ym2612"
    },
    {
      "channel": 1,
      "note": 54,
      "start": 19.7981,
      "duration": 0.179,
      "velocity": 97,
      "chip": "ym2612"
    },
    {
      "channel": 2,
      "note": 78,
      "start": 19.7992,
      "duration": 0.1781,
      "velocity": 97,
      "chip": "ym2612"
    },
    {
      "channel": 4,
      "note": 52,
      "start": 19.8009,
      "duration": 0.2314,
      "velocity": 127,
      "chip": "ym2612"
    },
    {
      "channel": 5,
      "note": 51,
      "start": 19.8042,
      "duration": 0.2226,
      "velocity": 117,
      "chip": "ym2612"
    },
    {
      "channel": 3,
      "note": 85,
      "start": 19.9456,
      "duration": 0.3656,
      "velocity": 105,
      "chip": "ym2612"
    },
    {
      "channel": 1,
      "note": 54,
      "start": 20.0304,
      "duration": 0.4826,
      "velocity": 97,
      "chip": "ym2612"
    },
    {
      "channel": 2,
      "note": 73,
      "start": 20.0312,
      "duration": 0.1797,
      "velocity": 97,
      "chip": "ym2612"
    },
    {
      "channel": 4,
      "note": 52,
      "start": 20.0329,
      "duration": 0.1122,
      "velocity": 127,
      "chip": "ym2612"
    },
    {
      "channel": 5,
      "note": 52,
      "start": 20.0362,
      "duration": 0.2405,
      "velocity": 115,
      "chip": "ym2612"
    },
    {
      "channel": 4,
      "note": 52,
      "start": 20.1459,
      "duration": 0.1367,
      "velocity": 127,
      "chip": "ym2612"
    },
    {
      "channel": 0,
      "note": 78,
      "start": 20.28,
      "duration": 0.3635,
      "velocity": 105,
      "chip": "ym2612"
    },
    {
      "channel": 2,
      "note": 70,
      "start": 20.2815,
      "duration": 0.1792,
      "velocity": 97,
      "chip": "ym2612"
    },
    {
      "channel": 4,
      "note": 52,
      "start": 20.2833,
      "duration": 0.232,
      "velocity": 127,
      "chip": "ym2612"
    },
    {
      "channel": 5,
      "note": 51,
      "start": 20.2866,
      "duration": 0.2234,
      "velocity": 117,
      "chip": "ym2612"
    },
    {
      "channel": 3,
      "note": 78,
      "start": 20.4287,
      "duration": 0.366,
      "velocity": 105,
      "chip": "ym2612"
    },
    {
      "channel": 1,
      "note": 54,
      "start": 20.5135,
      "duration": 0.1804,
      "velocity": 97,
      "chip": "ym2612"
    },
    {
      "channel": 2,
      "note": 78,
      "start": 20.5144,
      "duration": 0.1797,
      "velocity": 97,
      "chip": "ym2612"
    },
    {
      "channel": 4,
      "note": 52,
      "start": 20.516,
      "duration": 0.115,
      "velocity": 127,
      "chip": "ym2612"
    },
    {
      "channel": 5,
      "note": 52,
      "start": 20.5194,
      "duration": 0.1074,
      "velocity": 115,
      "chip": "ym2612"
    },
    {
      "channel": 4,
      "note": 52,
      "start": 20.6317,
      "duration": 0.1334,
      "velocity": 127,
      "chip": "ym2612"
    },
    {
      "channel": 5,
      "note": 52,
      "start": 20.635,
      "duration": 0.1251,
      "velocity": 115,
      "chip": "ym2612"
    },
    {
      "channel": 0,
      "note": 82,
      "start": 20.7633,
      "duration": 0.3636,
      "velocity": 105,
      "chip": "ym2612"
    },
    {
      "channel": 2,
      "note": 82,
      "start": 20.7645,
      "duration": 0.1798,
      "velocity": 97,
      "chip": "ym2612"
    },
    {
      "channel": 4,
      "note": 52,
      "start": 20.7658,
      "duration": 0.0465,
      "velocity": 127,
      "chip": "ym2612"
    },
    {
      "channel": 5,
      "note": 51,
      "start": 20.7691,
      "duration": 0.2243,
      "velocity": 117,
      "chip": "ym2612"
    },
    {
      "channel": 4,
      "note": 52,
      "start": 20.8129,
      "duration": 0.066,
      "velocity": 127,
      "chip": "ym2612"
    },
    {
      "channel": 4,
      "note": 52,
      "start": 20.8796,
      "duration": 0.1188,
      "velocity": 127,
      "chip": "ym2612"
    },
    {
      "channel": 3,
      "note": 82,
      "start": 20.9119,
      "duration": 0.3661,
      "velocity": 105,
      "chip": "ym2612"
    },
    {
      "channel": 1,
      "note": 54,
      "start": 20.997,
      "duration": 0.1801,
      "velocity": 97,
      "chip": "ym2612"
    },
    {
      "channel": 2,
      "note": 78,
      "start": 20.9978,
      "duration": 0.1794,
      "velocity": 97,
      "chip": "ym2612"
    },
    {
      "channel": 4,
      "note": 52,
      "start": 20.9991,
      "duration": 0.1125,
      "velocity": 127,
      "chip": "ym2612"
    },
    {
      "channel": 5,
      "note": 52,
      "start": 21.0025,
      "duration": 0.2408,
      "velocity": 115,
      "chip": "ym2612"
    },
    {
      "channel": 4,
      "note": 52,
      "start": 21.1123,
      "duration": 0.1363,
      "velocity": 127,
      "chip": "ym2612"
    },
    {
      "channel": 0,
      "note": 90,
      "start": 21.2465,
      "duration": 0.3638,
      "velocity": 105,
      "chip": "ym2612"
    },
    {
      "channel": 2,
      "note": 73,
      "start": 21.2476,
      "duration": 0.18,
      "velocity": 97,
      "chip": "ym2612"
    },
    {
      "channel": 4,
      "note": 52,
      "start": 21.2493,
      "duration": 0.2328,
      "velocity": 127,
      "chip": "ym2612"
    },
    {
      "channel": 5,
      "note": 51,
      "start": 21.2527,
      "duration": 0.2241,
      "velocity": 117,
      "chip": "ym2612"
    },
    {
      "channel": 3,
      "note": 90,
      "start": 21.3954,
      "duration": 0.366,
      "velocity": 105,
      "chip": "ym2612"
    },
    {
      "channel": 1,
      "note": 49,
      "start": 21.4803,
      "duration": 0.1803,
      "velocity": 97,
      "chip": "ym2612"
    },
    {
      "channel": 2,
      "note": 78,
      "start": 21.4812,
      "duration": 0.1796,
      "velocity": 97,
      "chip": "ym2612"
    },
    {
      "channel": 4,
      "note": 52,
      "start": 21.4828,
      "duration": 0.1123,
      "velocity": 127,
      "chip": "ym2612"
    },
    {
      "channel": 5,
      "note": 52,
      "start": 21.4862,
      "duration": 0.2409,
      "velocity": 115,
      "chip": "ym2612"
    },
    {
      "channel": 4,
      "note": 52,
      "start": 21.5959,
      "duration": 0.137,
      "velocity": 127,
      "chip": "ym2612"
    },
    {
      "channel": 0,
      "note": 89,
      "start": 21.7303,
      "duration": 0.3633,
      "velocity": 105,
      "chip": "ym2612"
    },
    {
      "channel": 1,
      "note": 51,
      "start": 21.731,
      "duration": 0.1794,
      "velocity": 97,
      "chip": "ym2612"
    },
    {
      "channel": 2,
      "note": 75,
      "start": 21.7319,
      "duration": 0.1788,
      "velocity": 97,
      "chip": "ym2612"
    },
    {
      "channel": 4,
      "note": 52,
      "start": 21.7336,
      "duration": 0.2319,
      "velocity": 127,
      "chip": "ym2612"
    },
    {
      "channel": 5,
      "note": 51,
      "start": 21.7369,
      "duration": 0.2232,
      "velocity": 117,
      "chip": "ym2612"
    },
    {
      "channel": 3,
      "note": 89,
      "start": 21.8787,
      "duration": 0.3658,
      "velocity": 105,
      "chip": "ym2612"
    },
    {
      "channel": 1,
      "note": 51,
      "start": 21.9637,
      "duration": 0.1803,
      "velocity": 97,
      "chip": "ym2612"
    },
    {
      "channel": 2,
      "note": 78,
      "start": 21.9645,
      "duration": 0.1796,
      "velocity": 97,
      "chip": "ym2612"
    },
    {
      "channel": 4,
      "note": 52,
      "start": 21.9661,
      "duration": 0.1123,
      "velocity": 127,
      "chip": "ym2612"
    },
    {
      "channel": 5,
      "note": 52,
      "start": 21.9695,
      "duration": 0.2406,
      "velocity": 115,
      "chip": "ym2612"
    },
    {
      "channel": 4,
      "note": 52,
      "start": 22.0792,
      "duration": 0.1366,
      "velocity": 127,
      "chip": "ym2612"
    },
    {
      "channel": 0,
      "note": 87,
      "start": 22.2133,
      "duration": 0.3634,
      "velocity": 105,
      "chip": "ym2612"
    },
    {
      "channel": 1,
      "note": 53,
      "start": 22.214,
      "duration": 0.1799,
      "velocity": 97,
      "chip": "ym2612"
    },
    {
      "channel": 2,
      "note": 82,
      "start": 22.2149,
      "duration": 0.1792,
      "velocity": 97,
      "chip": "ym2612"
    },
    {
      "channel": 4,
      "note": 52,
      "start": 22.2165,
      "duration": 0.2321,
      "velocity": 127,
      "chip": "ym2612"
    },
    {
      "channel": 5,
      "note": 51,
      "start": 22.2198,
      "duration": 0.2235,
      "velocity": 117,
      "chip": "ym2612"
    },
    {
      "channel": 3,
      "note": 87,
      "start": 22.3621,
      "duration": 0.366,
      "velocity": 105,
      "chip": "ym2612"
    },
    {
      "channel": 1,
      "note": 54,
      "start": 22.4469,
      "duration": 0.1804,
      "velocity": 97,
      "chip": "ym2612"
    },
    {
      "channel": 2,
      "note": 78,
      "start": 22.4477,
      "duration": 0.1797,
      "velocity": 97,
      "chip": "ym2612"
    },
    {
      "channel": 4,
      "note": 52,
      "start": 22.4493,
      "duration": 0.115,
      "velocity": 127,
      "chip": "ym2612"
    },
    {
      "channel": 5,
      "note": 52,
      "start": 22.4527,
      "duration": 0.1074,
      "velocity": 115,
      "chip": "ym2612"
    },
    {
      "channel": 4,
      "note": 52,
      "start": 22.565,
      "duration": 0.1334,
      "velocity": 127,
      "chip": "ym2612"
    },
    {
      "channel": 5,
      "note": 52,
      "start": 22.5683,
      "duration": 0.1251,
      "velocity": 115,
      "chip": "ym2612"
    },
    {
      "channel": 0,
      "note": 75,
      "start": 22.6967,
      "duration": 0.3636,
      "velocity": 105,
      "chip": "ym2612"
    },
    {
      "channel": 2,
      "note": 78,
      "start": 22.6978,
      "duration": 0.1799,
      "velocity": 97,
      "chip": "ym2612"
    },
    {
      "channel": 4,
      "note": 52,
      "start": 22.6991,
      "duration": 0.0465,
      "velocity": 127,
      "chip": "ym2612"
    },
    {
      "channel": 5,
      "note": 51,
      "start": 22.7025,
      "duration": 0.2243,
      "velocity": 117,
      "chip": "ym2612"
    },
    {
      "channel": 4,
      "note": 52,
      "start": 22.7462,
      "duration": 0.066,
      "velocity": 127,
      "chip": "ym2612"
    },
    {
      "channel": 4,
      "note": 52,
      "start": 22.813,
      "duration": 0.1188,
      "velocity": 127,
      "chip": "ym2612"
    },
    {
      "channel": 3,
      "note": 75,
      "start": 22.8452,
      "duration": 0.3661,
      "velocity": 105,
      "chip": "ym2612"
    },
    {
      "channel": 1,
      "note": 56,
      "start": 22.9303,
      "duration": 0.1801,
      "velocity": 97,
      "chip": "ym2612"
    },
    {
      "channel": 2,
      "note": 80,
      "start": 22.9312,
      "duration": 0.1794,
      "velocity": 97,
      "chip": "ym2612"
    },
    {
      "channel": 4,
      "note": 52,
      "start": 22.9324,
      "duration": 0.1125,
      "velocity": 127,
      "chip": "ym2612"
    },
    {
      "channel": 5,
      "note": 52,
      "start": 22.9358,
      "duration": 0.2408,
      "velocity": 115,
      "chip": "ym2612"
    },
    {
      "channel": 4,
      "note": 52,
      "start": 23.0457,
      "duration": 0.1364,
      "velocity": 127,
      "chip": "ym2612"
    },
    {
      "channel": 0,
      "note": 80,
      "start": 23.18,
      "duration": 0.1803,
      "velocity": 105,
      "chip": "ym2612"
    },
    {
      "channel": 2,
      "note": 82,
      "start": 23.1811,
      "duration": 0.1796,
      "velocity": 97,
      "chip": "ym2612"
    },
    {
      "channel": 4,
      "note": 52,
      "start": 23.1827,
      "duration": 0.2331,
      "velocity": 127,
      "chip": "ym2612"
    },
    {
      "channel": 5,
      "note": 51,
      "start": 23.1861,
      "duration": 0.224,
      "velocity": 117,
      "chip": "ym2612"
    },
    {
      "channel": 3,
      "note": 80,
      "start": 23.3288,
      "duration": 0.1824,
      "velocity": 105,
      "chip": "ym2612"
    },
    {
      "channel": 0,
      "note": 78,
      "start": 23.4133,
      "duration": 0.1802,
      "velocity": 105,
      "chip": "ym2612"
    },
    {
      "channel": 1,
      "note": 51,
      "start": 23.414,
      "duration": 0.1796,
      "velocity": 97,
      "chip": "ym2612"
    },
    {
      "channel": 2,
      "note": 83,
      "start": 23.4149,
      "duration": 0.1789,
      "velocity": 97,
      "chip": "ym2612"
    },
    {
      "channel": 4,
      "note": 52,
      "start": 23.4165,
      "duration": 0.112,
      "velocity": 127,
      "chip": "ym2612"
    },
    {
      "channel": 5,
      "note": 52,
      "start": 23.4199,
      "duration": 0.2405,
      "velocity": 115,
      "chip": "ym2612"
    },
    {
      "channel": 4,
      "note": 52,
      "start": 23.5292,
      "duration": 0.1373,
      "velocity": 127,
      "chip": "ym2612"
    },
    {
      "channel": 3,
      "note": 78,
      "start": 23.5787,
      "duration": 0.1827,
      "velocity": 105,
      "chip": "ym2612"
    },
    {
      "channel": 0,
      "note": 77,
      "start": 23.6637,
      "duration": 0.7632,
      "velocity": 105,
      "chip": "ym2612"
    },
    {
      "channel": 1,
      "note": 58,
      "start": 23.6646,
      "duration": 0.1793,
      "velocity": 97,
      "chip": "ym2612"
    },
    {
      "channel": 2,
      "note": 85,
      "start": 23.6654,
      "duration": 0.1786,
      "velocity": 97,
      "chip": "ym2612"
    },
    {
      "channel": 4,
      "note": 52,
      "start": 23.6672,
      "duration": 0.2317,
      "velocity": 127,
      "chip": "ym2612"
    },
    {
      "channel": 5,
      "note": 51,
      "start": 23.6705,
      "duration": 0.2229,
      "velocity": 117,
      "chip": "ym2612"
    },
    {
      "channel": 3,
      "note": 77,
      "start": 23.8121,
      "duration": 0.7658,
      "velocity": 105,
      "chip": "ym2612"
    },
    {
      "channel": 1,
      "note": 58,
      "start": 23.897,
      "duration": 0.1803,
      "velocity": 97,
      "chip": "ym2612"
    },
    {
      "channel": 2,
      "note": 77,
      "start": 23.8978,
      "duration": 0.1796,
      "velocity": 97,
      "chip": "ym2612"
    },
    {
      "channel": 4,
      "note": 52,
      "start": 23.8995,
      "duration": 0.1123,
      "velocity": 127,
      "chip": "ym2612"
    },
    {
      "channel": 5,
      "note": 52,
      "start": 23.9029,
      "duration": 0.2406,
      "velocity": 115,
      "chip": "ym2612"
    },
    {
      "channel": 4,
      "note": 52,
      "start": 24.0125,
      "duration": 0.1363,
      "velocity": 127,
      "chip": "ym2612"
    },
    {
      "channel": 1,
      "note": 58,
      "start": 24.147,
      "duration": 0.1804,
      "velocity": 97,
      "chip": "ym2612"
    },
    {
      "channel": 2,
      "note": 85,
      "start": 24.1478,
      "duration": 0.1797,
      "velocity": 97,
      "chip": "ym2612"
    },
    {
      "channel": 4,
      "note": 52,
      "start": 24.1495,
      "duration": 0.2326,
      "velocity": 127,
      "chip": "ym2612"
    },
    {
      "channel": 5,
      "note": 51,
      "start": 24.1528,
      "duration": 0.2239,
      "velocity": 117,
      "chip": "ym2612"
    },
    {
      "channel": 1,
      "note": 58,
      "start": 24.3802,
      "duration": 0.1804,
      "velocity": 97,
      "chip": "ym2612"
    },
    {
      "channel": 2,
      "note": 82,
      "start": 24.381,
      "duration": 0.1797,
      "velocity": 97,
      "chip": "ym2612"
    },
    {
      "channel": 4,
      "note": 52,
      "start": 24.3827,
      "duration": 0.1149,
      "velocity": 127,
      "chip": "ym2612"
    },
    {
      "channel": 5,
      "note": 52,
      "start": 24.3861,
      "duration": 0.1074,
      "velocity": 115,
      "chip": "ym2612"
    },
    {
      "channel": 4,
      "note": 52,
      "start": 24.4983,
      "duration": 0.134,
      "velocity": 127,
      "chip": "ym2612"
    },
    {
      "channel": 5,
      "note": 52,
      "start": 24.5016,
      "duration": 0.1251,
      "velocity": 115,
      "chip": "ym2612"
    },
    {
      "channel": 0,
      "note": 71,
      "start": 24.6301,
      "duration": 0.3634,
      "velocity": 105,
      "chip": "ym2612"
    },
    {
      "channel": 1,
      "note": 59,
      "start": 24.6308,
      "duration": 0.18,
      "velocity": 97,
      "chip": "ym2612"
    },
    {
      "channel": 2,
      "note": 83,
      "start": 24.6316,
      "duration": 0.1793,
      "velocity": 97,
      "chip": "ym2612"
    },
    {
      "channel": 4,
      "note": 52,
      "start": 24.6329,
      "duration": 0.0459,
      "velocity": 127,
      "chip": "ym2612"
    },
    {
      "channel": 5,
      "note": 51,
      "start": 24.6362,
      "duration": 0.2239,
      "velocity": 117,
      "chip": "ym2612"
    },
    {
      "channel": 4,
      "note": 52,
      "start": 24.6796,
      "duration": 0.066,
      "velocity": 127,
      "chip": "ym2612"
    },
    {
      "channel": 4,
      "note": 52,
      "start": 24.7462,
      "duration": 0.1189,
      "velocity": 127,
      "chip": "ym2612"
    },
    {
      "channel": 3,
      "note": 71,
      "start": 24.7787,
      "duration": 0.366,
      "velocity": 105,
      "chip": "ym2612"
    },
    {
      "channel": 1,
      "note": 59,
      "start": 24.8637,
      "duration": 0.1801,
      "velocity": 97,
      "chip": "ym2612"
    },
    {
      "channel": 2,
      "note": 78,
      "start": 24.8645,
      "duration": 0.1794,
      "velocity": 97,
      "chip": "ym2612"
    },
    {
      "channel": 4,
      "note": 52,
      "start": 24.8658,
      "duration": 0.1125,
      "velocity": 127,
      "chip": "ym2612"
    },
    {
      "channel": 5,
      "note": 52,
      "start": 24.8691,
      "duration": 0.2408,
      "velocity": 115,
      "chip": "ym2612"
    },
    {
      "channel": 4,
      "note": 52,
      "start": 24.979,
      "duration": 0.1367,
      "velocity": 127,
      "chip": "ym2612"
    },
    {
      "channel": 0,
      "note": 83,
      "start": 25.1132,
      "duration": 0.3637,
      "velocity": 105,
      "chip": "ym2612"
    },
    {
      "channel": 1,
      "note": 59,
      "start": 25.1139,
      "duration": 0.1801,
      "velocity": 97,
      "chip": "ym2612"
    },
    {
      "channel": 2,
      "note": 75,
      "start": 25.1147,
      "duration": 0.1795,
      "velocity": 97,
      "chip": "ym2612"
    },
    {
      "channel": 4,
      "note": 52,
      "start": 25.1164,
      "duration": 0.2324,
      "velocity": 127,
      "chip": "ym2612"
    },
    {
      "channel": 5,
      "note": 51,
      "start": 25.1197,
      "duration": 0.2237,
      "velocity": 117,
      "chip": "ym2612"
    },
    {
      "channel": 3,
      "note": 83,
      "start": 25.2621,
      "duration": 0.366,
      "velocity": 105,
      "chip": "ym2612"
    },
    {
      "channel": 1,
      "note": 59,
      "start": 25.347,
      "duration": 0.1803,
      "velocity": 97,
      "chip": "ym2612"
    },
    {
      "channel": 2,
      "note": 71,
      "start": 25.3478,
      "duration": 0.1796,
      "velocity": 97,
      "chip": "ym2612"
    },
    {
      "channel": 4,
      "note": 52,
      "start": 25.3495,
      "duration": 0.1123,
      "velocity": 127,
      "chip": "ym2612"
    },
    {
      "channel": 5,
      "note": 52,
      "start": 25.3529,
      "duration": 0.2409,
      "velocity": 115,
      "chip": "ym2612"
    },
    {
      "channel": 4,
      "note": 52,
      "start": 25.4625,
      "duration": 0.1371,
      "velocity": 127,
      "chip": "ym2612"
    },
    {
      "channel": 0,
      "note": 82,
      "start": 25.5971,
      "duration": 0.7632,
      "velocity": 105,
      "chip": "ym2612"
    },
    {
      "channel": 1,
      "note": 60,
      "start": 25.5978,
      "duration": 0.1795,
      "velocity": 97,
      "chip": "ym2612"
    },
    {
      "channel": 2,
      "note": 70,
      "start": 25.5986,
      "duration": 0.1788,
      "velocity": 97,
      "chip": "ym2612"
    },
    {
      "channel": 4,
      "note": 52,
      "start": 25.6003,
      "duration": 0.2319,
      "velocity": 127,
      "chip": "ym2612"
    },
    {
      "channel": 5,
      "note": 51,
      "start": 25.6037,
      "duration": 0.2231,
      "velocity": 117,
      "chip": "ym2612"
    },
    {
      "channel": 3,
      "note": 82,
      "start": 25.7455,
      "duration": 0.7657,
      "velocity": 105,
      "chip": "ym2612"
    },
    {
      "channel": 1,
      "note": 60,
      "start": 25.8303,
      "duration": 0.1803,
      "velocity": 97,
      "chip": "ym2612"
    },
    {
      "channel": 2,
      "note": 70,
      "start": 25.8312,
      "duration": 0.1796,
      "velocity": 97,
      "chip": "ym2612"
    },
    {
      "channel": 4,
      "note": 52,
      "start": 25.8329,
      "duration": 0.1123,
      "velocity": 127,
      "chip": "ym2612"
    },
    {
      "channel": 5,
      "note": 52,
      "start": 25.8362,
      "duration": 0.2239,
      "velocity": 115,
      "chip": "ym2612"
    },
    {
      "channel": 4,
      "note": 52,
      "start": 25.9459,
      "duration": 0.1196,
      "velocity": 127,
      "chip": "ym2612"
    },
    {
      "channel": 1,
      "note": 60,
      "start": 26.0637,
      "duration": 0.1801,
      "velocity": 97,
      "chip": "ym2612"
    },
    {
      "channel": 2,
      "note": 72,
      "start": 26.0645,
      "duration": 0.1795,
      "velocity": 97,
      "chip": "ym2612"
    },
    {
      "channel": 4,
      "note": 52,
      "start": 26.0661,
      "duration": 0.2492,
      "velocity": 127,
      "chip": "ym2612"
    },
    {
      "channel": 5,
      "note": 51,
      "start": 26.0695,
      "duration": 0.2405,
      "velocity": 117,
      "chip": "ym2612"
    },
    {
      "channel": 1,
      "note": 60,
      "start": 26.3135,
      "duration": 0.1804,
      "velocity": 97,
      "chip": "ym2612"
    },
    {
      "channel": 2,
      "note": 76,
      "start": 26.3144,
      "duration": 0.1797,
      "velocity": 97,
      "chip": "ym2612"
    },
    {
      "channel": 4,
      "note": 52,
      "start": 26.3161,
      "duration": 0.1149,
      "velocity": 127,
      "chip": "ym2612"
    },
    {
      "channel": 5,
      "note": 52,
      "start": 26.3194,
      "duration": 0.1074,
      "velocity": 115,
      "chip": "ym2612"
    },
    {
      "channel": 4,
      "note": 52,
      "start": 26.4316,
      "duration": 0.1172,
      "velocity": 127,
      "chip": "ym2612"
    },
    {
      "channel": 5,
      "note": 52,
      "start": 26.435,
      "duration": 0.1085,
      "velocity": 115,
      "chip": "ym2612"
    },
    {
      "channel": 0,
      "note": 80,
      "start": 26.5467,
      "duration": 0.7633,
      "velocity": 105,
      "chip": "ym2612"
    },
    {
      "channel": 1,
      "note": 61,
      "start": 26.5474,
      "duration": 0.1799,
      "velocity": 97,
      "chip": "ym2612"
    },
    {
      "channel": 2,
      "note": 77,
      "start": 26.5482,
      "duration": 0.1792,
      "velocity": 97,
      "chip": "ym2612"
    },
    {
      "channel": 4,
      "note": 52,
      "start": 26.5495,
      "duration": 0.0627,
      "velocity": 127,
      "chip": "ym2612"
    },
    {
      "channel": 5,
      "note": 51,
      "start": 26.5529,
      "duration": 0.2406,
      "velocity": 117,
      "chip": "ym2612"
    },
    {
      "channel": 4,
      "note": 52,
      "start": 26.6129,
      "duration": 0.066,
      "velocity": 127,
      "chip": "ym2612"
    },
    {
      "channel": 4,
      "note": 52,
      "start": 26.6796,
      "duration": 0.1188,
      "velocity": 127,
      "chip": "ym2612"
    },
    {
      "channel": 3,
      "note": 80,
      "start": 26.712,
      "duration": 0.766,
      "velocity": 105,
      "chip": "ym2612"
    },
    {
      "channel": 1,
      "note": 61,
      "start": 26.797,
      "duration": 0.1802,
      "velocity": 97,
      "chip": "ym2612"
    },
    {
      "channel": 2,
      "note": 78,
      "start": 26.7978,
      "duration": 0.1795,
      "velocity": 97,
      "chip": "ym2612"
    },
    {
      "channel": 4,
      "note": 52,
      "start": 26.7991,
      "duration": 0.1126,
      "velocity": 127,
      "chip": "ym2612"
    },
    {
      "channel": 5,
      "note": 52,
      "start": 26.8024,
      "duration": 0.2244,
      "velocity": 115,
      "chip": "ym2612"
    },
    {
      "channel": 4,
      "note": 52,
      "start": 26.9124,
      "duration": 0.1197,
      "velocity": 127,
      "chip": "ym2612"
    },
    {
      "channel": 1,
      "note": 61,
      "start": 27.0303,
      "duration": 0.1803,
      "velocity": 97,
      "chip": "ym2612"
    },
    {
      "channel": 2,
      "note": 80,
      "start": 27.0312,
      "duration": 0.1796,
      "velocity": 97,
      "chip": "ym2612"
    },
    {
      "channel": 4,
      "note": 52,
      "start": 27.0328,
      "duration": 0.2494,
      "velocity": 127,
      "chip": "ym2612"
    },
    {
      "channel": 5,
      "note": 51,
      "start": 27.0361,
      "duration": 0.2406,
      "velocity": 117,
      "chip": "ym2612"
    },
    {
      "channel": 1,
      "note": 61,
      "start": 27.2803,
      "duration": 0.1804,
      "velocity": 97,
      "chip": "ym2612"
    },
    {
      "channel": 2,
      "note": 85,
      "start": 27.2812,
      "duration": 0.1796,
      "velocity": 97,
      "chip": "ym2612"
    },
    {
      "channel": 4,
      "note": 52,
      "start": 27.2829,
      "duration": 0.1123,
      "velocity": 127,
      "chip": "ym2612"
    },
    {
      "channel": 5,
      "note": 52,
      "start": 27.2862,
      "duration": 0.224,
      "velocity": 115,
      "chip": "ym2612"
    },
    {
      "channel": 4,
      "note": 52,
      "start": 27.3959,
      "duration": 0.1206,
      "velocity": 127,
      "chip": "ym2612"
    },
    {
      "channel": 0,
      "note": 78,
      "start": 27.5135,
      "duration": 0.3633,
      "velocity": 105,
      "chip": "ym2612"
    },
    {
      "channel": 1,
      "note": 54,
      "start": 27.5145,
      "duration": 0.1795,
      "velocity": 97,
      "chip": "ym2612"
    },
    {
      "channel": 2,
      "note": 78,
      "start": 27.5155,
      "duration": 0.1785,
      "velocity": 97,
      "chip": "ym2612"
    },
    {
      "channel": 4,
      "note": 52,
      "start": 27.5172,
      "duration": 0.2483,
      "velocity": 127,
      "chip": "ym2612"
    },
    {
      "channel": 5,
      "note": 51,
      "start": 27.5205,
      "duration": 0.2396,
      "velocity": 117,
      "chip": "ym2612"
    },
    {
      "channel": 3,
      "note": 78,
      "start": 27.6789,
      "duration": 0.3656,
      "velocity": 105,
      "chip": "ym2612"
    },
    {
      "channel": 1,
      "note": 54,
      "start": 27.7637,
      "duration": 0.4826,
      "velocity": 97,
      "chip": "ym2612"
    },
    {
      "channel": 2,
      "note": 73,
      "start": 27.7646,
      "duration": 0.1797,
      "velocity": 97,
      "chip": "ym2612"
    },
    {
      "channel": 4,
      "note": 52,
      "start": 27.7662,
      "duration": 0.112,
      "velocity": 127,
      "chip": "ym2612"
    },
    {
      "channel": 5,
      "note": 52,
      "start": 27.7695,
      "duration": 0.2239,
      "velocity": 115,
      "chip": "ym2612"
    },
    {
      "channel": 4,
      "note": 52,
      "start": 27.8789,
      "duration": 0.1203,
      "velocity": 127,
      "chip": "ym2612"
    },
    {
      "channel": 0,
      "note": 82,
      "start": 27.9967,
      "duration": 0.366,
      "velocity": 105,
      "chip": "ym2612"
    },
    {
      "channel": 2,
      "note": 70,
      "start": 27.9983,
      "duration": 0.1789,
      "velocity": 97,
      "chip": "ym2612"
    },
    {
      "channel": 4,
      "note": 52,
      "start": 27.9999,
      "duration": 0.2487,
      "velocity": 127,
      "chip": "ym2612"
    },
    {
      "channel": 5,
      "note": 51,
      "start": 28.0032,
      "duration": 0.2401,
      "velocity": 117,
      "chip": "ym2612"
    },
    {
      "channel": 3,
      "note": 82,
      "start": 28.1622,
      "duration": 0.3658,
      "velocity": 105,
      "chip": "ym2612"
    },
    {
      "channel": 1,
      "note": 54,
      "start": 28.2469,
      "duration": 0.1804,
      "velocity": 97,
      "chip": "ym2612"
    },
    {
      "channel": 2,
      "note": 78,
      "start": 28.2477,
      "duration": 0.1797,
      "velocity": 97,
      "chip": "ym2612"
    },
    {
      "channel": 4,
      "note": 52,
      "start": 28.2493,
      "duration": 0.1146,
      "velocity": 127,
      "chip": "ym2612"
    },
    {
      "channel": 5,
      "note": 52,
      "start": 28.2527,
      "duration": 0.1074,
      "velocity": 115,
      "chip": "ym2612"
    },
    {
      "channel": 4,
      "note": 52,
      "start": 28.3647,
      "duration": 0.1171,
      "velocity": 127,
      "chip": "ym2612"
    },
    {
      "channel": 5,
      "note": 52,
      "start": 28.368,
      "duration": 0.1087,
      "velocity": 115,
      "chip": "ym2612"
    },
    {
      "channel": 0,
      "note": 90,
      "start": 28.48,
      "duration": 0.3633,
      "velocity": 105,
      "chip": "ym2612"
    },
    {
      "channel": 2,
      "note": 82,
      "start": 28.4812,
      "duration": 0.1798,
      "velocity": 97,
      "chip": "ym2612"
    },
    {
      "channel": 4,
      "note": 52,
      "start": 28.4824,
      "duration": 0.0632,
      "velocity": 127,
      "chip": "ym2612"
    },
    {
      "channel": 5,
      "note": 51,
      "start": 28.4858,
      "duration": 0.241,
      "velocity": 117,
      "chip": "ym2612"
    },
    {
      "channel": 4,
      "note": 52,
      "start": 28.5462,
      "duration": 0.066,
      "velocity": 127,
      "chip": "ym2612"
    },
    {
      "channel": 4,
      "note": 52,
      "start": 28.613,
      "duration": 0.1188,
      "velocity": 127,
      "chip": "ym2612"
    },
    {
      "channel": 3,
      "note": 90,
      "start": 28.6454,
      "duration": 0.366,
      "velocity": 105,
      "chip": "ym2612"
    },
    {
      "channel": 1,
      "note": 54,
      "start": 28.7303,
      "duration": 0.1801,
      "velocity": 97,
      "chip": "ym2612"
    },
    {
      "channel": 2,
      "note": 78,
      "start": 28.7312,
      "duration": 0.1794,
      "velocity": 97,
      "chip": "ym2612"
    },
    {
      "channel": 4,
      "note": 52,
      "start": 28.7324,
      "duration": 0.1123,
      "velocity": 127,
      "chip": "ym2612"
    },
    {
      "channel": 5,
      "note": 52,
      "start": 28.7357,
      "duration": 0.2244,
      "velocity": 115,
      "chip": "ym2612"
    },
    {
      "channel": 4,
      "note": 52,
      "start": 28.8454,
      "duration": 0.12,
      "velocity": 127,
      "chip": "ym2612"
    },
    {
      "channel": 0,
      "note": 85,
      "start": 28.9633,
      "duration": 0.3635,
      "velocity": 105,
      "chip": "ym2612"
    },
    {
      "channel": 2,
      "note": 73,
      "start": 28.9645,
      "duration": 0.1798,
      "velocity": 97,
      "chip": "ym2612"
    },
    {
      "channel": 4,
      "note": 52,
      "start": 28.9661,
      "duration": 0.2493,
      "velocity": 127,
      "chip": "ym2612"
    },
    {
      "channel": 5,
      "note": 51,
      "start": 28.9695,
      "duration": 0.2406,
      "velocity": 117,
      "chip": "ym2612"
    },
    {
      "channel": 3,
      "note": 85,
      "start": 29.1289,
      "duration": 0.3658,
      "velocity": 105,
      "chip": "ym2612"
    },
    {
      "channel": 1,
      "note": 49,
      "start": 29.2137,
      "duration": 0.1803,
      "velocity": 97,
      "chip": "ym2612"
    },
    {
      "channel": 2,
      "note": 78,
      "start": 29.2145,
      "duration": 0.1796,
      "velocity": 97,
      "chip": "ym2612"
    },
    {
      "channel": 4,
      "note": 52,
      "start": 29.2161,
      "duration": 0.1121,
      "velocity": 127,
      "chip": "ym2612"
    },
    {
      "channel": 5,
      "note": 52,
      "start": 29.2195,
      "duration": 0.2241,
      "velocity": 115,
      "chip": "ym2612"
    },
    {
      "channel": 4,
      "note": 52,
      "start": 29.3289,
      "duration": 0.1204,
      "velocity": 127,
      "chip": "ym2612"
    },
    {
      "channel": 0,
      "note": 87,
      "start": 29.4468,
      "duration": 0.3634,
      "velocity": 105,
      "chip": "ym2612"
    },
    {
      "channel": 1,
      "note": 51,
      "start": 29.4475,
      "duration": 0.1798,
      "velocity": 97,
      "chip": "ym2612"
    },
    {
      "channel": 2,
      "note": 75,
      "start": 29.4483,
      "duration": 0.1791,
      "velocity": 97,
      "chip": "ym2612"
    },
    {
      "channel": 4,
      "note": 52,
      "start": 29.45,
      "duration": 0.2487,
      "velocity": 127,
      "chip": "ym2612"
    },
    {
      "channel": 5,
      "note": 51,
      "start": 29.4534,
      "duration": 0.2401,
      "velocity": 117,
      "chip": "ym2612"
    },
    {
      "channel": 3,
      "note": 87,
      "start": 29.6122,
      "duration": 0.3656,
      "velocity": 105,
      "chip": "ym2612"
    },
    {
      "channel": 1,
      "note": 51,
      "start": 29.697,
      "duration": 0.1803,
      "velocity": 97,
      "chip": "ym2612"
    },
    {
      "channel": 2,
      "note": 78,
      "start": 29.6978,
      "duration": 0.1796,
      "velocity": 97,
      "chip": "ym2612"
    },
    {
      "channel": 4,
      "note": 52,
      "start": 29.6995,
      "duration": 0.1121,
      "velocity": 127,
      "chip": "ym2612"
    },
    {
      "channel": 5,
      "note": 52,
      "start": 29.7028,
      "duration": 0.224,
      "velocity": 115,
      "chip": "ym2612"
    },
    {
      "channel": 4,
      "note": 52,
      "start": 29.8123,
      "duration": 0.1202,
      "velocity": 127,
      "chip": "ym2612"
    },
    {
      "channel": 0,
      "note": 87,
      "start": 29.93,
      "duration": 0.366,
      "velocity": 105,
      "chip": "ym2612"
    },
    {
      "channel": 1,
      "note": 53,
      "start": 29.9307,
      "duration": 0.1797,
      "velocity": 97,
      "chip": "ym2612"
    },
    {
      "channel": 2,
      "note": 82,
      "start": 29.9315,
      "duration": 0.1791,
      "velocity": 97,
      "chip": "ym2612"
    },
    {
      "channel": 4,
      "note": 52,
      "start": 29.9332,
      "duration": 0.2488,
      "velocity": 127,
      "chip": "ym2612"
    },
    {
      "channel": 5,
      "note": 51,
      "start": 29.9365,
      "duration": 0.2401,
      "velocity": 117,
      "chip": "ym2612"
    },
    {
      "channel": 3,
      "note": 87,
      "start": 30.0955,
      "duration": 0.3658,
      "velocity": 105,
      "chip": "ym2612"
    },
    {
      "channel": 1,
      "note": 54,
      "start": 30.1802,
      "duration": 0.1804,
      "velocity": 97,
      "chip": "ym2612"
    },
    {
      "channel": 2,
      "note": 78,
      "start": 30.181,
      "duration": 0.1797,
      "velocity": 97,
      "chip": "ym2612"
    },
    {
      "channel": 4,
      "note": 52,
      "start": 30.1827,
      "duration": 0.1146,
      "velocity": 127,
      "chip": "ym2612"
    },
    {
      "channel": 5,
      "note": 52,
      "start": 30.186,
      "duration": 0.1074,
      "velocity": 115,
      "chip": "ym2612"
    },
    {
      "channel": 4,
      "note": 52,
      "start": 30.298,
      "duration": 0.1171,
      "velocity": 127,
      "chip": "ym2612"
    },
    {
      "channel": 5,
      "note": 52,
      "start": 30.3014,
      "duration": 0.1087,
      "velocity": 115,
      "chip": "ym2612"
    },
    {
      "channel": 0,
      "note": 89,
      "start": 30.4133,
      "duration": 0.3633,
      "velocity": 105,
      "chip": "ym2612"
    },
    {
      "channel": 2,
      "note": 78,
      "start": 30.4145,
      "duration": 0.1798,
      "velocity": 97,
      "chip": "ym2612"
    },
    {
      "channel": 4,
      "note": 52,
      "start": 30.4158,
      "duration": 0.0632,
      "velocity": 127,
      "chip": "ym2612"
    },
    {
      "channel": 5,
      "note": 51,
      "start": 30.4191,
      "duration": 0.241,
      "velocity": 117,
      "chip": "ym2612"
    },
    {
      "channel": 4,
      "note": 52,
      "start": 30.4796,
      "duration": 0.066,
      "velocity": 127,
      "chip": "ym2612"
    },
    {
      "channel": 4,
      "note": 52,
      "start": 30.5463,
      "duration": 0.1188,
      "velocity": 127,
      "chip": "ym2612"
    },
    {
      "channel": 3,
      "note": 89,
      "start": 30.5787,
      "duration": 0.366,
      "velocity": 105,
      "chip": "ym2612"
    },
    {
      "channel": 1,
      "note": 56,
      "start": 30.6637,
      "duration": 0.1801,
      "velocity": 97,
      "chip": "ym2612"
    },
    {
      "channel": 2,
      "note": 80,
      "start": 30.6645,
      "duration": 0.1794,
      "velocity": 97,
      "chip": "ym2612"
    },
    {
      "channel": 4,
      "note": 52,
      "start": 30.6658,
      "duration": 0.1123,
      "velocity": 127,
      "chip": "ym2612"
    },
    {
      "channel": 5,
      "note": 52,
      "start": 30.6691,
      "duration": 0.2244,
      "velocity": 115,
      "chip": "ym2612"
    },
    {
      "channel": 4,
      "note": 52,
      "start": 30.7787,
      "duration": 0.12,
      "velocity": 127,
      "chip": "ym2612"
    },
    {
      "channel": 0,
      "note": 90,
      "start": 30.8967,
      "duration": 0.3635,
      "velocity": 105,
      "chip": "ym2612"
    },
    {
      "channel": 2,
      "note": 83,
      "start": 30.8978,
      "duration": 0.1798,
      "velocity": 97,
      "chip": "ym2612"
    },
    {
      "channel": 4,
      "note": 52,
      "start": 30.8995,
      "duration": 0.2493,
      "velocity": 127,
      "chip": "ym2612"
    },
    {
      "channel": 5,
      "note": 51,
      "start": 30.9028,
      "duration": 0.2406,
      "velocity": 117,
      "chip": "ym2612"
    },
    {
      "channel": 3,
      "note": 90,
      "start": 31.0622,
      "duration": 0.3658,
      "velocity": 105,
      "chip": "ym2612"
    },
    {
      "channel": 1,
      "note": 51,
      "start": 31.147,
      "duration": 0.1803,
      "velocity": 97,
      "chip": "ym2612"
    },
    {
      "channel": 2,
      "note": 87,
      "start": 31.1478,
      "duration": 0.1796,
      "velocity": 97,
      "chip": "ym2612"
    },
    {
      "channel": 4,
      "note": 52,
      "start": 31.1495,
      "duration": 0.1121,
      "velocity": 127,
      "chip": "ym2612"
    },
    {
      "channel": 5,
      "note": 52,
      "start": 31.1529,
      "duration": 0.224,
      "velocity": 115,
      "chip": "ym2612"
    },
    {
      "channel": 4,
      "note": 52,
      "start": 31.2623,
      "duration": 0.1209,
      "velocity": 127,
      "chip": "ym2612"
    },
    {
      "channel": 0,
      "note": 90,
      "start": 31.3803,
      "duration": 0.7632,
      "velocity": 105,
      "chip": "ym2612"
    },
    {
      "channel": 1,
      "note": 54,
      "start": 31.3813,
      "duration": 0.1793,
      "velocity": 97,
      "chip": "ym2612"
    },
    {
      "channel": 2,
      "note": 90,
      "start": 31.3821,
      "duration": 0.1786,
      "velocity": 97,
      "chip": "ym2612"
    },
    {
      "channel": 4,
      "note": 52,
      "start": 31.3839,
      "duration": 0.2482,
      "velocity": 127,
      "chip": "ym2612"
    },
    {
      "channel": 5,
      "note": 51,
      "start": 31.3872,
      "duration": 0.2396,
      "velocity": 117,
      "chip": "ym2612"
    },
    {
      "channel": 3,
      "note": 90,
      "start": 31.5457,
      "duration": 0.7655,
      "velocity": 105,
      "chip": "ym2612"
    },
    {
      "channel": 1,
      "note": 54,
      "start": 31.6303,
      "duration": 0.1804,
      "velocity": 97,
      "chip": "ym2612"
    },
    {
      "channel": 2,
      "note": 85,
      "start": 31.6312,
      "duration": 0.1796,
      "velocity": 97,
      "chip": "ym2612"
    },
    {
      "channel": 4,
      "note": 52,
      "start": 31.6328,
      "duration": 0.1124,
      "velocity": 127,
      "chip": "ym2612"
    },
    {
      "channel": 5,
      "note": 52,
      "start": 31.6361,
      "duration": 0.224,
      "velocity": 115,
      "chip": "ym2612"
    },
    {
      "channel": 4,
      "note": 52,
      "start": 31.7459,
      "duration": 0.1195,
      "velocity": 127,
      "chip": "ym2612"
    },
    {
      "channel": 1,
      "note": 54,
      "start": 31.8636,
      "duration": 0.1801,
      "velocity": 97,
      "chip": "ym2612"
    },
    {
      "channel": 2,
      "note": 82,
      "start": 31.8645,
      "duration": 0.1795,
      "velocity": 97,
      "chip": "ym2612"
    },
    {
      "channel": 4,
      "note": 52,
      "start": 31.8661,
      "duration": 0.2492,
      "velocity": 127,
      "chip": "ym2612"
    },
    {
      "channel": 5,
      "note": 51,
      "start": 31.8695,
      "duration": 0.2405,
      "velocity": 117,
      "chip": "ym2612"
    },
    {
      "channel": 1,
      "note": 54,
      "start": 32.1135,
      "duration": 0.1805,
      "velocity": 97,
      "chip": "ym2612"
    },
    {
      "channel": 2,
      "note": 85,
      "start": 32.1144,
      "duration": 0.1798,
      "velocity": 97,
      "chip": "ym2612"
    },
    {
      "channel": 4,
      "note": 52,
      "start": 32.1161,
      "duration": 0.1149,
      "velocity": 127,
      "chip": "ym2612"
    },
    {
      "channel": 5,
      "note": 52,
      "start": 32.1194,
      "duration": 0.1074,
      "velocity": 115,
      "chip": "ym2612"
    },
    {
      "channel": 4,
      "note": 52,
      "start": 32.2317,
      "duration": 0.1171,
      "velocity": 127,
      "chip": "ym2612"
    },
    {
      "channel": 5,
      "note": 52,
      "start": 32.235,
      "duration": 0.1084,
      "velocity": 115,
      "chip": "ym2612"
    },
    {
      "channel": 0,
      "note": 89,
      "start": 32.3467,
      "duration": 0.7633,
      "velocity": 105,
      "chip": "ym2612"
    },
    {
      "channel": 1,
      "note": 53,
      "start": 32.3474,
      "duration": 0.1799,
      "velocity": 97,
      "chip": "ym2612"
    },
    {
      "channel": 2,
      "note": 85,
      "start": 32.3482,
      "duration": 0.1792,
      "velocity": 97,
      "chip": "ym2612"
    },
    {
      "channel": 4,
      "note": 52,
      "start": 32.3495,
      "duration": 0.0627,
      "velocity": 127,
      "chip": "ym2612"
    },
    {
      "channel": 5,
      "note": 51,
      "start": 32.3529,
      "duration": 0.2406,
      "velocity": 117,
      "chip": "ym2612"
    },
    {
      "channel": 4,
      "note": 52,
      "start": 32.4129,
      "duration": 0.0494,
      "velocity": 127,
      "chip": "ym2612"
    },
    {
      "channel": 4,
      "note": 52,
      "start": 32.463,
      "duration": 0.1354,
      "velocity": 127,
      "chip": "ym2612"
    },
    {
      "channel": 3,
      "note": 89,
      "start": 32.512,
      "duration": 0.766,
      "velocity": 105,
      "chip": "ym2612"
    },
    {
      "channel": 1,
      "note": 53,
      "start": 32.597,
      "duration": 0.1802,
      "velocity": 97,
      "chip": "ym2612"
    },
    {
      "channel": 2,
      "note": 80,
      "start": 32.5978,
      "duration": 0.1795,
      "velocity": 97,
      "chip": "ym2612"
    },
    {
      "channel": 4,
      "note": 52,
      "start": 32.5991,
      "duration": 0.1126,
      "velocity": 127,
      "chip": "ym2612"
    },
    {
      "channel": 5,
      "note": 52,
      "start": 32.6024,
      "duration": 0.2244,
      "velocity": 115,
      "chip": "ym2612"
    },
    {
      "channel": 4,
      "note": 52,
      "start": 32.7124,
      "duration": 0.1197,
      "velocity": 127,
      "chip": "ym2612"
    },
    {
      "channel": 1,
      "note": 53,
      "start": 32.8303,
      "duration": 0.1803,
      "velocity": 97,
      "chip": "ym2612"
    },
    {
      "channel": 2,
      "note": 77,
      "start": 32.8311,
      "duration": 0.1796,
      "velocity": 97,
      "chip": "ym2612"
    },
    {
      "channel": 4,
      "note": 52,
      "start": 32.8328,
      "duration": 0.2494,
      "velocity": 127,
      "chip": "ym2612"
    },
    {
      "channel": 5,
      "note": 51,
      "start": 32.8361,
      "duration": 0.2406,
      "velocity": 117,
      "chip": "ym2612"
    },
    {
      "channel": 1,
      "note": 53,
      "start": 33.0803,
      "duration": 0.1804,
      "velocity": 97,
      "chip": "ym2612"
    },
    {
      "channel": 2,
      "note": 85,
      "start": 33.0812,
      "duration": 0.1796,
      "velocity": 97,
      "chip": "ym2612"
    },
    {
      "channel": 4,
      "note": 52,
      "start": 33.0829,
      "duration": 0.1123,
      "velocity": 127,
      "chip": "ym2612"
    },
    {
      "channel": 5,
      "note": 52,
      "start": 33.0862,
      "duration": 0.224,
      "velocity": 115,
      "chip": "ym2612"
    },
    {
      "channel": 4,
      "note": 52,
      "start": 33.1959,
      "duration": 0.1201,
      "velocity": 127,
      "chip": "ym2612"
    },
    {
      "channel": 0,
      "note": 90,
      "start": 33.3135,
      "duration": 0.7634,
      "velocity": 105,
      "chip": "ym2612"
    },
    {
      "channel": 1,
      "note": 51,
      "start": 33.3142,
      "duration": 0.1798,
      "velocity": 97,
      "chip": "ym2612"
    },
    {
      "channel": 2,
      "note": 87,
      "start": 33.315,
      "duration": 0.1791,
      "velocity": 97,
      "chip": "ym2612"
    },
    {
      "channel": 4,
      "note": 52,
      "start": 33.3167,
      "duration": 0.2488,
      "velocity": 127,
      "chip": "ym2612"
    },
    {
      "channel": 5,
      "note": 51,
      "start": 33.32,
      "duration": 0.2401,
      "velocity": 117,
      "chip": "ym2612"
    },
    {
      "channel": 3,
      "note": 90,
      "start": 33.4789,
      "duration": 0.7656,
      "velocity": 105,
      "chip": "ym2612"
    },
    {
      "channel": 1,
      "note": 51,
      "start": 33.5637,
      "duration": 0.1803,
      "velocity": 97,
      "chip": "ym2612"
    },
    {
      "channel": 2,
      "note": 89,
      "start": 33.5646,
      "duration": 0.1796,
      "velocity": 97,
      "chip": "ym2612"
    },
    {
      "channel": 4,
      "note": 52,
      "start": 33.5662,
      "duration": 0.1123,
      "velocity": 127,
      "chip": "ym2612"
    },
    {
      "channel": 5,
      "note": 52,
      "start": 33.5696,
      "duration": 0.2239,
      "velocity": 115,
      "chip": "ym2612"
    },
    {
      "channel": 4,
      "note": 52,
      "start": 33.6793,
      "duration": 0.1196,
      "velocity": 127,
      "chip": "ym2612"
    },
    {
      "channel": 1,
      "note": 51,
      "start": 33.7971,
      "duration": 0.18,
      "velocity": 97,
      "chip": "ym2612"
    },
    {
      "channel": 2,
      "note": 90,
      "start": 33.7979,
      "duration": 0.1794,
      "velocity": 97,
      "chip": "ym2612"
    },
    {
      "channel": 4,
      "note": 52,
      "start": 33.7995,
      "duration": 0.2492,
      "velocity": 127,
      "chip": "ym2612"
    },
    {
      "channel": 5,
      "note": 51,
      "start": 33.8029,
      "duration": 0.2404,
      "velocity": 117,
      "chip": "ym2612"
    },
    {
      "channel": 1,
      "note": 51,
      "start": 34.0469,
      "duration": 0.1804,
      "velocity": 97,
      "chip": "ym2612"
    },
    {
      "channel": 2,
      "note": 92,
      "start": 34.0478,
      "duration": 0.1797,
      "velocity": 97,
      "chip": "ym2612"
    },
    {
      "channel": 4,
      "note": 52,
      "start": 34.0495,
      "duration": 0.1148,
      "velocity": 127,
      "chip": "ym2612"
    },
    {
      "channel": 5,
      "note": 52,
      "start": 34.0529,
      "duration": 0.1072,
      "velocity": 115,
      "chip": "ym2612"
    },
    {
      "channel": 4,
      "note": 52,
      "start": 34.165,
      "duration": 0.1169,
      "velocity": 127,
      "chip": "ym2612"
    },
    {
      "channel": 5,
      "note": 52,
      "start": 34.1684,
      "duration": 0.1084,
      "velocity": 115,
      "chip": "ym2612"
    },
    {
      "channel": 1,
      "note": 51,
      "start": 34.2804,
      "duration": 0.1802,
      "velocity": 97,
      "chip": "ym2612"
    },
    {
      "channel": 2,
      "note": 94,
      "start": 34.2812,
      "duration": 0.1795,
      "velocity": 97,
      "chip": "ym2612"
    },
    {
      "channel": 4,
      "note": 52,
      "start": 34.2826,
      "duration": 0.063,
      "velocity": 127,
      "chip": "ym2612"
    },
    {
      "channel": 5,
      "note": 51,
      "start": 34.2859,
      "duration": 0.2409,
      "velocity": 117,
      "chip": "ym2612"
    },
    {
      "channel": 4,
      "note": 52,
      "start": 34.3462,
      "duration": 0.0494,
      "velocity": 127,
      "chip": "ym2612"
    },
    {
      "channel": 4,
      "note": 52,
      "start": 34.3963,
      "duration": 0.1385,
      "velocity": 127,
      "chip": "ym2612"
    },
    {
      "channel": 0,
      "note": 75,
      "start": 34.5326,
      "duration": 0.1774,
      "velocity": 93,
      "chip": "ym2612"
    },
    {
      "channel": 1,
      "note": 51,
      "start": 34.5334,
      "duration": 0.1768,
      "velocity": 97,
      "chip": "ym2612"
    },
    {
      "channel": 2,
      "note": 78,
      "start": 34.5342,
      "duration": 0.1761,
      "velocity": 97,
      "chip": "ym2612"
    },
    {
      "channel": 4,
      "note": 52,
      "start": 34.5355,
      "duration": 0.1094,
      "velocity": 127,
      "chip": "ym2612"
    },
    {
      "channel": 5,
      "note": 52,
      "start": 34.5389,
      "duration": 0.2212,
      "velocity": 115,
      "chip": "ym2612"
    },
    {
      "channel": 4,
      "note": 52,
      "start": 34.6457,
      "duration": 0.1202,
      "velocity": 127,
      "chip": "ym2612"
    },
    {
      "channel": 3,
      "note": 75,
      "start": 34.6814,
      "duration": 0.18,
      "velocity": 93,
      "chip": "ym2612"
    },
    {
      "channel": 0,
      "note": 82,
      "start": 34.7633,
      "duration": 0.1802,
      "velocity": 93,
      "chip": "ym2612"
    },
    {
      "channel": 1,
      "note": 51,
      "start": 34.7641,
      "duration": 0.1795,
      "velocity": 97,
      "chip": "ym2612"
    },
    {
      "channel": 2,
      "note": 87,
      "start": 34.7649,
      "duration": 0.1789,
      "velocity": 97,
      "chip": "ym2612"
    },
    {
      "channel": 4,
      "note": 52,
      "start": 34.7666,
      "duration": 0.2493,
      "velocity": 127,
      "chip": "ym2612"
    },
    {
      "channel": 5,
      "note": 51,
      "start": 34.7699,
      "duration": 0.2402,
      "velocity": 117,
      "chip": "ym2612"
    },
    {
      "channel": 3,
      "note": 82,
      "start": 34.9289,
      "duration": 0.1824,
      "velocity": 93,
      "chip": "ym2612"
    },
    {
      "channel": 0,
      "note": 90,
      "start": 35.0133,
      "duration": 0.1802,
      "velocity": 93,
      "chip": "ym2612"
    },
    {
      "channel": 1,
      "note": 51,
      "start": 35.0141,
      "duration": 0.1795,
      "velocity": 97,
      "chip": "ym2612"
    },
    {
      "channel": 2,
      "note": 78,
      "start": 35.0149,
      "duration": 0.1789,
      "velocity": 97,
      "chip": "ym2612"
    },
    {
      "channel": 4,
      "note": 52,
      "start": 35.0166,
      "duration": 0.1119,
      "velocity": 127,
      "chip": "ym2612"
    },
    {
      "channel": 5,
      "note": 52,
      "start": 35.02,
      "duration": 0.2236,
      "velocity": 115,
      "chip": "ym2612"
    },
    {
      "channel": 4,
      "note": 52,
      "start": 35.1292,
      "duration": 0.1205,
      "velocity": 127,
      "chip": "ym2612"
    },
    {
      "channel": 3,
      "note": 90,
      "start": 35.1621,
      "duration": 0.1826,
      "velocity": 93,
      "chip": "ym2612"
    },
    {
      "channel": 0,
      "note": 92,
      "start": 35.2469,
      "duration": 0.3633,
      "velocity": 93,
      "chip": "ym2612"
    },
    {
      "channel": 1,
      "note": 56,
      "start": 35.2478,
      "duration": 0.1795,
      "velocity": 97,
      "chip": "ym2612"
    },
    {
      "channel": 2,
      "note": 80,
      "start": 35.2486,
      "duration": 0.1788,
      "velocity": 97,
      "chip": "ym2612"
    },
    {
      "channel": 4,
      "note": 52,
      "start": 35.2504,
      "duration": 0.2484,
      "velocity": 127,
      "chip": "ym2612"
    },
    {
      "channel": 5,
      "note": 51,
      "start": 35.2537,
      "duration": 0.2398,
      "velocity": 117,
      "chip": "ym2612"
    },
    {
      "channel": 3,
      "note": 92,
      "start": 35.4123,
      "duration": 0.3656,
      "velocity": 93,
      "chip": "ym2612"
    },
    {
      "channel": 1,
      "note": 56,
      "start": 35.497,
      "duration": 0.1804,
      "velocity": 97,
      "chip": "ym2612"
    },
    {
      "channel": 2,
      "note": 83,
      "start": 35.4978,
      "duration": 0.1797,
      "velocity": 97,
      "chip": "ym2612"
    },
    {
      "channel": 4,
      "note": 52,
      "start": 35.4995,
      "duration": 0.1121,
      "velocity": 127,
      "chip": "ym2612"
    },
    {
      "channel": 5,
      "note": 52,
      "start": 35.5028,
      "duration": 0.224,
      "velocity": 115,
      "chip": "ym2612"
    },
    {
      "channel": 4,
      "note": 52,
      "start": 35.6123,
      "duration": 0.1202,
      "velocity": 127,
      "chip": "ym2612"
    },
    {
      "channel": 0,
      "note": 80,
      "start": 35.73,
      "duration": 0.366,
      "velocity": 93,
      "chip": "ym2612"
    },
    {
      "channel": 1,
      "note": 56,
      "start": 35.7307,
      "duration": 0.1797,
      "velocity": 97,
      "chip": "ym2612"
    },
    {
      "channel": 2,
      "note": 87,
      "start": 35.7315,
      "duration": 0.1791,
      "velocity": 97,
      "chip": "ym2612"
    },
    {
      "channel": 4,
      "note": 52,
      "start": 35.7332,
      "duration": 0.2488,
      "velocity": 127,
      "chip": "ym2612"
    },
    {
      "channel": 5,
      "note": 45,
      "start": 35.7366,
      "duration": 0.2401,
      "velocity": 122,
      "chip": "ym2612"
    },
    {
      "channel": 3,
      "note": 80,
      "start": 35.8955,
      "duration": 0.3658,
      "velocity": 93,
      "chip": "ym2612"
    },
    {
      "channel": 1,
      "note": 56,
      "start": 35.9801,
      "duration": 0.1806,
      "velocity": 97,
      "chip": "ym2612"
    },
    {
      "channel": 2,
      "note": 83,
      "start": 35.981,
      "duration": 0.1798,
      "velocity": 97,
      "chip": "ym2612"
    },
    {
      "channel": 4,
      "note": 52,
      "start": 35.9827,
      "duration": 0.1146,
      "velocity": 127,
      "chip": "ym2612"
    },
    {
      "channel": 5,
      "note": 52,
      "start": 35.986,
      "duration": 0.1074,
      "velocity": 115,
      "chip": "ym2612"
    },
    {
      "channel": 4,
      "note": 52,
      "start": 36.098,
      "duration": 0.1174,
      "velocity": 127,
      "chip": "ym2612"
    },
    {
      "channel": 5,
      "note": 52,
      "start": 36.1014,
      "duration": 0.1087,
      "velocity": 115,
      "chip": "ym2612"
    },
    {
      "channel": 0,
      "note": 82,
      "start": 36.2133,
      "duration": 0.3633,
      "velocity": 93,
      "chip": "ym2612"
    },
    {
      "channel": 1,
      "note": 54,
      "start": 36.214,
      "duration": 0.1799,
      "velocity": 97,
      "chip": "ym2612"
    },
    {
      "channel": 2,
      "note": 82,
      "start": 36.2149,
      "duration": 0.1792,
      "velocity": 97,
      "chip": "ym2612"
    },
    {
      "channel": 4,
      "note": 52,
      "start": 36.2161,
      "duration": 0.0628,
      "velocity": 127,
      "chip": "ym2612"
    },
    {
      "channel": 5,
      "note": 51,
      "start": 36.2195,
      "duration": 0.2406,
      "velocity": 117,
      "chip": "ym2612"
    },
    {
      "channel": 4,
      "note": 52,
      "start": 36.2796,
      "duration": 0.0493,
      "velocity": 127,
      "chip": "ym2612"
    },
    {
      "channel": 4,
      "note": 52,
      "start": 36.3296,
      "duration": 0.1355,
      "velocity": 127,
      "chip": "ym2612"
    },
    {
      "channel": 3,
      "note": 82,
      "start": 36.3787,
      "duration": 0.3661,
      "velocity": 93,
      "chip": "ym2612"
    },
    {
      "channel": 1,
      "note": 54,
      "start": 36.4637,
      "duration": 0.1802,
      "velocity": 97,
      "chip": "ym2612"
    },
    {
      "channel": 2,
      "note": 78,
      "start": 36.4645,
      "duration": 0.1795,
      "velocity": 97,
      "chip": "ym2612"
    },
    {
      "channel": 4,
      "note": 52,
      "start": 36.4658,
      "duration": 0.1123,
      "velocity": 127,
      "chip": "ym2612"
    },
    {
      "channel": 5,
      "note": 52,
      "start": 36.4691,
      "duration": 0.2244,
      "velocity": 115,
      "chip": "ym2612"
    },
    {
      "channel": 4,
      "note": 52,
      "start": 36.5787,
      "duration": 0.1205,
      "velocity": 127,
      "chip": "ym2612"
    },
    {
      "channel": 0,
      "note": 78,
      "start": 36.6967,
      "duration": 1.4493,
      "velocity": 93,
      "chip": "ym2612"
    },
    {
      "channel": 1,
      "note": 54,
      "start": 36.6974,
      "duration": 0.1798,
      "velocity": 97,
      "chip": "ym2612"
    },
    {
      "channel": 2,
      "note": 82,
      "start": 36.6983,
      "duration": 0.1791,
      "velocity": 97,
      "chip": "ym2612"
    },
    {
      "channel": 4,
      "note": 52,
      "start": 36.6999,
      "duration": 0.2488,
      "velocity": 127,
      "chip": "ym2612"
    },
    {
      "channel": 5,
      "note": 45,
      "start": 36.7033,
      "duration": 0.2401,
      "velocity": 122,
      "chip": "ym2612"
    },
    {
      "channel": 3,
      "note": 78,
      "start": 36.8623,
      "duration": 1.4491,
      "velocity": 93,
      "chip": "ym2612"
    },
    {
      "channel": 1,
      "note": 54,
      "start": 36.947,
      "duration": 0.1805,
      "velocity": 97,
      "chip": "ym2612"
    },
    {
      "channel": 2,
      "note": 85,
      "start": 36.9478,
      "duration": 0.1798,
      "velocity": 97,
      "chip": "ym2612"
    },
    {
      "channel": 4,
      "note": 52,
      "start": 36.9495,
      "duration": 0.1124,
      "velocity": 127,
      "chip": "ym2612"
    },
    {
      "channel": 5,
      "note": 52,
      "start": 36.9528,
      "duration": 0.2241,
      "velocity": 115,
      "chip": "ym2612"
    },
    {
      "channel": 4,
      "note": 52,
      "start": 37.0626,
      "duration": 0.1201,
      "velocity": 127,
      "chip": "ym2612"
    },
    {
      "channel": 1,
      "note": 51,
      "start": 37.1808,
      "duration": 0.1798,
      "velocity": 97,
      "chip": "ym2612"
    },
    {
      "channel": 2,
      "note": 82,
      "start": 37.1817,
      "duration": 0.1791,
      "velocity": 97,
      "chip": "ym2612"
    },
    {
      "channel": 4,
      "note": 52,
      "start": 37.1834,
      "duration": 0.2488,
      "velocity": 127,
      "chip": "ym2612"
    },
    {
      "channel": 5,
      "note": 51,
      "start": 37.1868,
      "duration": 0.24,
      "velocity": 117,
      "chip": "ym2612"
    },
    {
      "channel": 1,
      "note": 51,
      "start": 37.4303,
      "duration": 0.1804,
      "velocity": 97,
      "chip": "ym2612"
    },
    {
      "channel": 2,
      "note": 75,
      "start": 37.4312,
      "duration": 0.1797,
      "velocity": 97,
      "chip": "ym2612"
    },
    {
      "channel": 4,
      "note": 52,
      "start": 37.4329,
      "duration": 0.1123,
      "velocity": 127,
      "chip": "ym2612"
    },
    {
      "channel": 5,
      "note": 52,
      "start": 37.4362,
      "duration": 0.2239,
      "velocity": 115,
      "chip": "ym2612"
    },
    {
      "channel": 4,
      "note": 52,
      "start": 37.5459,
      "duration": 0.1196,
      "velocity": 127,
      "chip": "ym2612"
    },
    {
      "channel": 1,
      "note": 51,
      "start": 37.6637,
      "duration": 0.1801,
      "velocity": 97,
      "chip": "ym2612"
    },
    {
      "channel": 2,
      "note": 78,
      "start": 37.6645,
      "duration": 0.1794,
      "velocity": 97,
      "chip": "ym2612"
    },
    {
      "channel": 4,
      "note": 52,
      "start": 37.6661,
      "duration": 0.2492,
      "velocity": 127,
      "chip": "ym2612"
    },
    {
      "channel": 5,
      "note": 45,
      "start": 37.6695,
      "duration": 0.2405,
      "velocity": 122,
      "chip": "ym2612"
    },
    {
      "channel": 1,
      "note": 51,
      "start": 37.9135,
      "duration": 0.1806,
      "velocity": 97,
      "chip": "ym2612"
    },
    {
      "channel": 2,
      "note": 82,
      "start": 37.9143,
      "duration": 0.1799,
      "velocity": 97,
      "chip": "ym2612"
    },
    {
      "channel": 4,
      "note": 52,
      "start": 37.9159,
      "duration": 0.1151,
      "velocity": 127,
      "chip": "ym2612"
    },
    {
      "channel": 5,
      "note": 52,
      "start": 37.9193,
      "duration": 0.1074,
      "velocity": 115,
      "chip": "ym2612"
    },
    {
      "channel": 4,
      "note": 52,
      "start": 38.0317,
      "duration": 0.1172,
      "velocity": 127,
      "chip": "ym2612"
    },
    {
      "channel": 5,
      "note": 52,
      "start": 38.035,
      "duration": 0.1084,
      "velocity": 115,
      "chip": "ym2612"
    },
    {
      "channel": 0,
      "note": 77,
      "start": 38.1467,
      "duration": 0.3632,
      "velocity": 93,
      "chip": "ym2612"
    },
    {
      "channel": 1,
      "note": 49,
      "start": 38.1474,
      "duration": 0.1798,
      "velocity": 97,
      "chip": "ym2612"
    },
    {
      "channel": 2,
      "note": 80,
      "start": 38.1483,
      "duration": 0.1791,
      "velocity": 97,
      "chip": "ym2612"
    },
    {
      "channel": 4,
      "note": 52,
      "start": 38.1495,
      "duration": 0.0627,
      "velocity": 127,
      "chip": "ym2612"
    },
    {
      "channel": 5,
      "note": 51,
      "start": 38.1529,
      "duration": 0.2405,
      "velocity": 117,
      "chip": "ym2612"
    },
    {
      "channel": 4,
      "note": 52,
      "start": 38.2129,
      "duration": 0.0493,
      "velocity": 127,
      "chip": "ym2612"
    },
    {
      "channel": 4,
      "note": 52,
      "start": 38.2629,
      "duration": 0.1355,
      "velocity": 127,
      "chip": "ym2612"
    },
    {
      "channel": 3,
      "note": 77,
      "start": 38.3121,
      "duration": 0.3661,
      "velocity": 93,
      "chip": "ym2612"
    },
    {
      "channel": 1,
      "note": 49,
      "start": 38.397,
      "duration": 0.1802,
      "velocity": 97,
      "chip": "ym2612"
    },
    {
      "channel": 2,
      "note": 77,
      "start": 38.3978,
      "duration": 0.1795,
      "velocity": 97,
      "chip": "ym2612"
    },
    {
      "channel": 4,
      "note": 52,
      "start": 38.3991,
      "duration": 0.1123,
      "velocity": 127,
      "chip": "ym2612"
    },
    {
      "channel": 5,
      "note": 52,
      "start": 38.4024,
      "duration": 0.2244,
      "velocity": 115,
      "chip": "ym2612"
    },
    {
      "channel": 4,
      "note": 52,
      "start": 38.5121,
      "duration": 0.1204,
      "velocity": 127,
      "chip": "ym2612"
    },
    {
      "channel": 0,
      "note": 80,
      "start": 38.63,
      "duration": 0.3635,
      "velocity": 93,
      "chip": "ym2612"
    },
    {
      "channel": 1,
      "note": 49,
      "start": 38.6307,
      "duration": 0.1799,
      "velocity": 97,
      "chip": "ym2612"
    },
    {
      "channel": 2,
      "note": 73,
      "start": 38.6315,
      "duration": 0.1792,
      "velocity": 97,
      "chip": "ym2612"
    },
    {
      "channel": 4,
      "note": 52,
      "start": 38.6332,
      "duration": 0.2322,
      "velocity": 127,
      "chip": "ym2612"
    },
    {
      "channel": 5,
      "note": 45,
      "start": 38.6366,
      "duration": 0.2235,
      "velocity": 122,
      "chip": "ym2612"
    },
    {
      "channel": 3,
      "note": 80,
      "start": 38.7955,
      "duration": 0.366,
      "velocity": 93,
      "chip": "ym2612"
    },
    {
      "channel": 1,
      "note": 49,
      "start": 38.8637,
      "duration": 0.1801,
      "velocity": 97,
      "chip": "ym2612"
    },
    {
      "channel": 2,
      "note": 77,
      "start": 38.8645,
      "duration": 0.1794,
      "velocity": 97,
      "chip": "ym2612"
    },
    {
      "channel": 4,
      "note": 52,
      "start": 38.8661,
      "duration": 0.1288,
      "velocity": 127,
      "chip": "ym2612"
    },
    {
      "channel": 5,
      "note": 52,
      "start": 38.8695,
      "duration": 0.2407,
      "velocity": 115,
      "chip": "ym2612"
    },
    {
      "channel": 4,
      "note": 52,
      "start": 38.9956,
      "duration": 0.1207,
      "velocity": 127,
      "chip": "ym2612"
    },
    {
      "channel": 0,
      "note": 78,
      "start": 39.1135,
      "duration": 0.7633,
      "velocity": 93,
      "chip": "ym2612"
    },
    {
      "channel": 1,
      "note": 54,
      "start": 39.1144,
      "duration": 0.1795,
      "velocity": 97,
      "chip": "ym2612"
    },
    {
      "channel": 2,
      "note": 73,
      "start": 39.1153,
      "duration": 0.1788,
      "velocity": 97,
      "chip": "ym2612"
    },
    {
      "channel": 4,
      "note": 52,
      "start": 39.117,
      "duration": 0.2318,
      "velocity": 127,
      "chip": "ym2612"
    },
    {
      "channel": 5,
      "note": 51,
      "start": 39.1203,
      "duration": 0.2231,
      "velocity": 117,
      "chip": "ym2612"
    },
    {
      "channel": 3,
      "note": 78,
      "start": 39.2789,
      "duration": 0.7656,
      "velocity": 93,
      "chip": "ym2612"
    },
    {
      "channel": 1,
      "note": 54,
      "start": 39.347,
      "duration": 0.1803,
      "velocity": 97,
      "chip": "ym2612"
    },
    {
      "channel": 2,
      "note": 78,
      "start": 39.3478,
      "duration": 0.1796,
      "velocity": 97,
      "chip": "ym2612"
    },
    {
      "channel": 4,
      "note": 52,
      "start": 39.3495,
      "duration": 0.1291,
      "velocity": 127,
      "chip": "ym2612"
    },
    {
      "channel": 5,
      "note": 52,
      "start": 39.3529,
      "duration": 0.2406,
      "velocity": 115,
      "chip": "ym2612"
    },
    {
      "channel": 4,
      "note": 52,
      "start": 39.4793,
      "duration": 0.1195,
      "velocity": 127,
      "chip": "ym2612"
    },
    {
      "channel": 1,
      "note": 54,
      "start": 39.5969,
      "duration": 0.1801,
      "velocity": 97,
      "chip": "ym2612"
    },
    {
      "channel": 2,
      "note": 82,
      "start": 39.5978,
      "duration": 0.1795,
      "velocity": 97,
      "chip": "ym2612"
    },
    {
      "channel": 4,
      "note": 52,
      "start": 39.5995,
      "duration": 0.2326,
      "velocity": 127,
      "chip": "ym2612"
    },
    {
      "channel": 5,
      "note": 45,
      "start": 39.6028,
      "duration": 0.224,
      "velocity": 122,
      "chip": "ym2612"
    },
    {
      "channel": 1,
      "note": 54,
      "start": 39.8303,
      "duration": 0.1803,
      "velocity": 97,
      "chip": "ym2612"
    },
    {
      "channel": 2,
      "note": 85,
      "start": 39.8312,
      "duration": 0.1796,
      "velocity": 97,
      "chip": "ym2612"
    },
    {
      "channel": 4,
      "note": 52,
      "start": 39.8328,
      "duration": 0.1315,
      "velocity": 127,
      "chip": "ym2612"
    },
    {
      "channel": 5,
      "note": 52,
      "start": 39.8361,
      "duration": 0.124,
      "velocity": 115,
      "chip": "ym2612"
    },
    {
      "channel": 4,
      "note": 52,
      "start": 39.965,
      "duration": 0.1171,
      "velocity": 127,
      "chip": "ym2612"
    },
    {
      "channel": 5,
      "note": 52,
      "start": 39.9684,
      "duration": 0.1084,
      "velocity": 115,
      "chip": "ym2612"
    },
    {
      "channel": 0,
      "note": 80,
      "start": 40.08,
      "duration": 0.7633,
      "velocity": 93,
      "chip": "ym2612"
    },
    {
      "channel": 1,
      "note": 53,
      "start": 40.0807,
      "duration": 0.1799,
      "velocity": 97,
      "chip": "ym2612"
    },
    {
      "channel": 2,
      "note": 73,
      "start": 40.0815,
      "duration": 0.1792,
      "velocity": 97,
      "chip": "ym2612"
    },
    {
      "channel": 4,
      "note": 52,
      "start": 40.0828,
      "duration": 0.0627,
      "velocity": 127,
      "chip": "ym2612"
    },
    {
      "channel": 5,
      "note": 51,
      "start": 40.0861,
      "duration": 0.2239,
      "velocity": 117,
      "chip": "ym2612"
    },
    {
      "channel": 4,
      "note": 52,
      "start": 40.1462,
      "duration": 0.0494,
      "velocity": 127,
      "chip": "ym2612"
    },
    {
      "channel": 4,
      "note": 52,
      "start": 40.1963,
      "duration": 0.1186,
      "velocity": 127,
      "chip": "ym2612"
    },
    {
      "channel": 3,
      "note": 80,
      "start": 40.2454,
      "duration": 0.7661,
      "velocity": 93,
      "chip": "ym2612"
    },
    {
      "channel": 1,
      "note": 53,
      "start": 40.3135,
      "duration": 0.1804,
      "velocity": 97,
      "chip": "ym2612"
    },
    {
      "channel": 2,
      "note": 77,
      "start": 40.3144,
      "duration": 0.1797,
      "velocity": 97,
      "chip": "ym2612"
    },
    {
      "channel": 4,
      "note": 52,
      "start": 40.3156,
      "duration": 0.1294,
      "velocity": 127,
      "chip": "ym2612"
    },
    {
      "channel": 5,
      "note": 52,
      "start": 40.3189,
      "duration": 0.2412,
      "velocity": 115,
      "chip": "ym2612"
    },
    {
      "channel": 4,
      "note": 52,
      "start": 40.4457,
      "duration": 0.1197,
      "velocity": 127,
      "chip": "ym2612"
    },
    {
      "channel": 1,
      "note": 53,
      "start": 40.5636,
      "duration": 0.1803,
      "velocity": 97,
      "chip": "ym2612"
    },
    {
      "channel": 2,
      "note": 80,
      "start": 40.5644,
      "duration": 0.1796,
      "velocity": 97,
      "chip": "ym2612"
    },
    {
      "channel": 4,
      "note": 52,
      "start": 40.5661,
      "duration": 0.2326,
      "velocity": 127,
      "chip": "ym2612"
    },
    {
      "channel": 5,
      "note": 45,
      "start": 40.5695,
      "duration": 0.224,
      "velocity": 122,
      "chip": "ym2612"
    },
    {
      "channel": 1,
      "note": 53,
      "start": 40.797,
      "duration": 0.1801,
      "velocity": 97,
      "chip": "ym2612"
    },
    {
      "channel": 2,
      "note": 85,
      "start": 40.7978,
      "duration": 0.1794,
      "velocity": 97,
      "chip": "ym2612"
    },
    {
      "channel": 4,
      "note": 52,
      "start": 40.7995,
      "duration": 0.1291,
      "velocity": 127,
      "chip": "ym2612"
    },
    {
      "channel": 5,
      "note": 52,
      "start": 40.8028,
      "duration": 0.2408,
      "velocity": 115,
      "chip": "ym2612"
    },
    {
      "channel": 4,
      "note": 52,
      "start": 40.9293,
      "duration": 0.1202,
      "velocity": 127,
      "chip": "ym2612"
    },
    {
      "channel": 0,
      "note": 82,
      "start": 41.0469,
      "duration": 0.5633,
      "velocity": 93,
      "chip": "ym2612"
    },
    {
      "channel": 1,
      "note": 51,
      "start": 41.0476,
      "duration": 0.1797,
      "velocity": 97,
      "chip": "ym2612"
    },
    {
      "channel": 2,
      "note": 87,
      "start": 41.0484,
      "duration": 0.179,
      "velocity": 97,
      "chip": "ym2612"
    },
    {
      "channel": 4,
      "note": 52,
      "start": 41.0501,
      "duration": 0.2321,
      "velocity": 127,
      "chip": "ym2612"
    },
    {
      "channel": 5,
      "note": 51,
      "start": 41.0535,
      "duration": 0.2233,
      "velocity": 117,
      "chip": "ym2612"
    },
    {
      "channel": 3,
      "note": 82,
      "start": 41.2123,
      "duration": 0.5657,
      "velocity": 93,
      "chip": "ym2612"
    },
    {
      "channel": 1,
      "note": 51,
      "start": 41.2805,
      "duration": 0.1802,
      "velocity": 97,
      "chip": "ym2612"
    },
    {
      "channel": 2,
      "note": 82,
      "start": 41.2813,
      "duration": 0.1794,
      "velocity": 97,
      "chip": "ym2612"
    },
    {
      "channel": 4,
      "note": 52,
      "start": 41.2829,
      "duration": 0.129,
      "velocity": 127,
      "chip": "ym2612"
    },
    {
      "channel": 5,
      "note": 52,
      "start": 41.2862,
      "duration": 0.2405,
      "velocity": 115,
      "chip": "ym2612"
    },
    {
      "channel": 4,
      "note": 52,
      "start": 41.4126,
      "duration": 0.1196,
      "velocity": 127,
      "chip": "ym2612"
    },
    {
      "channel": 1,
      "note": 51,
      "start": 41.5304,
      "duration": 0.18,
      "velocity": 97,
      "chip": "ym2612"
    },
    {
      "channel": 2,
      "note": 78,
      "start": 41.5312,
      "duration": 0.1793,
      "velocity": 97,
      "chip": "ym2612"
    },
    {
      "channel": 4,
      "note": 52,
      "start": 41.5329,
      "duration": 0.2331,
      "velocity": 127,
      "chip": "ym2612"
    },
    {
      "channel": 5,
      "note": 45,
      "start": 41.5362,
      "duration": 0.2239,
      "velocity": 122,
      "chip": "ym2612"
    },
    {
      "channel": 0,
      "note": 87,
      "start": 41.7633,
      "duration": 0.5635,
      "velocity": 93,
      "chip": "ym2612"
    },
    {
      "channel": 1,
      "note": 51,
      "start": 41.7641,
      "duration": 0.1798,
      "velocity": 97,
      "chip": "ym2612"
    },
    {
      "channel": 2,
      "note": 90,
      "start": 41.765,
      "duration": 0.1791,
      "velocity": 97,
      "chip": "ym2612"
    },
    {
      "channel": 4,
      "note": 52,
      "start": 41.7666,
      "duration": 0.131,
      "velocity": 127,
      "chip": "ym2612"
    },
    {
      "channel": 5,
      "note": 52,
      "start": 41.77,
      "duration": 0.1235,
      "velocity": 115,
      "chip": "ym2612"
    },
    {
      "channel": 4,
      "note": 52,
      "start": 41.8983,
      "duration": 0.1168,
      "velocity": 127,
      "chip": "ym2612"
    },
    {
      "channel": 5,
      "note": 52,
      "start": 41.9016,
      "duration": 0.1085,
      "velocity": 115,
      "chip": "ym2612"
    },
    {
      "channel": 3,
      "note": 87,
      "start": 41.9289,
      "duration": 0.5697,
      "velocity": 93,
      "chip": "ym2612"
    },
    {
      "channel": 1,
      "note": 51,
      "start": 42.0137,
      "duration": 0.1803,
      "velocity": 97,
      "chip": "ym2612"
    },
    {
      "channel": 2,
      "note": 87,
      "start": 42.0146,
      "duration": 0.1796,
      "velocity": 97,
      "chip": "ym2612"
    },
    {
      "channel": 4,
      "note": 52,
      "start": 42.0158,
      "duration": 0.0464,
      "velocity": 127,
      "chip": "ym2612"
    },
    {
      "channel": 5,
      "note": 51,
      "start": 42.0192,
      "duration": 0.2241,
      "velocity": 117,
      "chip": "ym2612"
    },
    {
      "channel": 4,
      "note": 52,
      "start": 42.063,
      "duration": 0.066,
      "velocity": 127,
      "chip": "ym2612"
    },
    {
      "channel": 4,
      "note": 52,
      "start": 42.1296,
      "duration": 0.1187,
      "velocity": 127,
      "chip": "ym2612"
    },
    {
      "channel": 1,
      "note": 51,
      "start": 42.2469,
      "duration": 0.1803,
      "velocity": 97,
      "chip": "ym2612"
    },
    {
      "channel": 2,
      "note": 82,
      "start": 42.2478,
      "duration": 0.1796,
      "velocity": 97,
      "chip": "ym2612"
    },
    {
      "channel": 4,
      "note": 52,
      "start": 42.249,
      "duration": 0.1293,
      "velocity": 127,
      "chip": "ym2612"
    },
    {
      "channel": 5,
      "note": 52,
      "start": 42.2524,
      "duration": 0.241,
      "velocity": 115,
      "chip": "ym2612"
    },
    {
      "channel": 4,
      "note": 52,
      "start": 42.379,
      "duration": 0.12,
      "velocity": 127,
      "chip": "ym2612"
    },
    {
      "channel": 0,
      "note": 90,
      "start": 42.4967,
      "duration": 0.1801,
      "velocity": 93,
      "chip": "ym2612"
    },
    {
      "channel": 1,
      "note": 51,
      "start": 42.4976,
      "duration": 0.1794,
      "velocity": 97,
      "chip": "ym2612"
    },
    {
      "channel": 2,
      "note": 78,
      "start": 42.4984,
      "duration": 0.1788,
      "velocity": 97,
      "chip": "ym2612"
    },
    {
      "channel": 4,
      "note": 52,
      "start": 42.4997,
      "duration": 0.2328,
      "velocity": 127,
      "chip": "ym2612"
    },
    {
      "channel": 5,
      "note": 45,
      "start": 42.5031,
      "duration": 0.2237,
      "velocity": 122,
      "chip": "ym2612"
    },
    {
      "channel": 3,
      "note": 90,
      "start": 42.6623,
      "duration": 0.1824,
      "velocity": 93,
      "chip": "ym2612"
    },
    {
      "channel": 0,
      "note": 78,
      "start": 42.73,
      "duration": 0.18,
      "velocity": 93,
      "chip": "ym2612"
    },
    {
      "channel": 1,
      "note": 51,
      "start": 42.7308,
      "duration": 0.1794,
      "velocity": 97,
      "chip": "ym2612"
    },
    {
      "channel": 2,
      "note": 75,
      "start": 42.7316,
      "duration": 0.1787,
      "velocity": 97,
      "chip": "ym2612"
    },
    {
      "channel": 4,
      "note": 52,
      "start": 42.7333,
      "duration": 0.1285,
      "velocity": 127,
      "chip": "ym2612"
    },
    {
      "channel": 5,
      "note": 52,
      "start": 42.7366,
      "duration": 0.2403,
      "velocity": 115,
      "chip": "ym2612"
    },
    {
      "channel": 4,
      "note": 52,
      "start": 42.8625,
      "duration": 0.1205,
      "velocity": 127,
      "chip": "ym2612"
    },
    {
      "channel": 3,
      "note": 78,
      "start": 42.8955,
      "duration": 0.1825,
      "velocity": 93,
      "chip": "ym2612"
    },
    {
      "channel": 0,
      "note": 80,
      "start": 42.9802,
      "duration": 0.5633,
      "velocity": 93,
      "chip": "ym2612"
    },
    {
      "channel": 1,
      "note": 49,
      "start": 42.9812,
      "duration": 0.1795,
      "velocity": 97,
      "chip": "ym2612"
    },
    {
      "channel": 2,
      "note": 73,
      "start": 42.982,
      "duration": 0.1788,
      "velocity": 97,
      "chip": "ym2612"
    },
    {
      "channel": 4,
      "note": 52,
      "start": 42.9837,
      "duration": 0.2319,
      "velocity": 127,
      "chip": "ym2612"
    },
    {
      "channel": 5,
      "note": 51,
      "start": 42.987,
      "duration": 0.2231,
      "velocity": 117,
      "chip": "ym2612"
    },
    {
      "channel": 3,
      "note": 80,
      "start": 43.1288,
      "duration": 0.5697,
      "velocity": 93,
      "chip": "ym2612"
    },
    {
      "channel": 1,
      "note": 49,
      "start": 43.2139,
      "duration": 0.1801,
      "velocity": 97,
      "chip": "ym2612"
    },
    {
      "channel": 2,
      "note": 75,
      "start": 43.2147,
      "duration": 0.1794,
      "velocity": 97,
      "chip": "ym2612"
    },
    {
      "channel": 4,
      "note": 52,
      "start": 43.2163,
      "duration": 0.1289,
      "velocity": 127,
      "chip": "ym2612"
    },
    {
      "channel": 5,
      "note": 52,
      "start": 43.2197,
      "duration": 0.2404,
      "velocity": 115,
      "chip": "ym2612"
    },
    {
      "channel": 4,
      "note": 52,
      "start": 43.3459,
      "duration": 0.1197,
      "velocity": 127,
      "chip": "ym2612"
    },
    {
      "channel": 1,
      "note": 49,
      "start": 43.4638,
      "duration": 0.18,
      "velocity": 97,
      "chip": "ym2612"
    },
    {
      "channel": 2,
      "note": 77,
      "start": 43.4646,
      "duration": 0.1793,
      "velocity": 97,
      "chip": "ym2612"
    },
    {
      "channel": 4,
      "note": 52,
      "start": 43.4663,
      "duration": 0.2328,
      "velocity": 127,
      "chip": "ym2612"
    },
    {
      "channel": 5,
      "note": 45,
      "start": 43.4696,
      "duration": 0.2238,
      "velocity": 122,
      "chip": "ym2612"
    },
    {
      "channel": 0,
      "note": 85,
      "start": 43.6967,
      "duration": 0.5635,
      "velocity": 93,
      "chip": "ym2612"
    },
    {
      "channel": 1,
      "note": 49,
      "start": 43.6976,
      "duration": 0.1797,
      "velocity": 97,
      "chip": "ym2612"
    },
    {
      "channel": 2,
      "note": 73,
      "start": 43.6984,
      "duration": 0.179,
      "velocity": 97,
      "chip": "ym2612"
    },
    {
      "channel": 4,
      "note": 52,
      "start": 43.6997,
      "duration": 0.1312,
      "velocity": 127,
      "chip": "ym2612"
    },
    {
      "channel": 5,
      "note": 52,
      "start": 43.7031,
      "duration": 0.1237,
      "velocity": 115,
      "chip": "ym2612"
    },
    {
      "channel": 4,
      "note": 52,
      "start": 43.8316,
      "duration": 0.117,
      "velocity": 127,
      "chip": "ym2612"
    },
    {
      "channel": 5,
      "note": 52,
      "start": 43.835,
      "duration": 0.1085,
      "velocity": 115,
      "chip": "ym2612"
    },
    {
      "channel": 3,
      "note": 85,
      "start": 43.8622,
      "duration": 0.5697,
      "velocity": 93,
      "chip": "ym2612"
    },
    {
      "channel": 1,
      "note": 49,
      "start": 43.9471,
      "duration": 0.1802,
      "velocity": 97,
      "chip": "ym2612"
    },
    {
      "channel": 2,
      "note": 75,
      "start": 43.948,
      "duration": 0.1795,
      "velocity": 97,
      "chip": "ym2612"
    },
    {
      "channel": 4,
      "note": 52,
      "start": 43.9493,
      "duration": 0.0463,
      "velocity": 127,
      "chip": "ym2612"
    },
    {
      "channel": 5,
      "note": 51,
      "start": 43.9526,
      "duration": 0.2241,
      "velocity": 117,
      "chip": "ym2612"
    },
    {
      "channel": 4,
      "note": 52,
      "start": 43.9963,
      "duration": 0.066,
      "velocity": 127,
      "chip": "ym2612"
    },
    {
      "channel": 4,
      "note": 52,
      "start": 44.063,
      "duration": 0.1188,
      "velocity": 127,
      "chip": "ym2612"
    },
    {
      "channel": 1,
      "note": 49,
      "start": 44.1803,
      "duration": 0.1803,
      "velocity": 97,
      "chip": "ym2612"
    },
    {
      "channel": 2,
      "note": 77,
      "start": 44.1812,
      "duration": 0.1796,
      "velocity": 97,
      "chip": "ym2612"
    },
    {
      "channel": 4,
      "note": 52,
      "start": 44.1824,
      "duration": 0.1292,
      "velocity": 127,
      "chip": "ym2612"
    },
    {
      "channel": 5,
      "note": 52,
      "start": 44.1858,
      "duration": 0.241,
      "velocity": 115,
      "chip": "ym2612"
    },
    {
      "channel": 4,
      "note": 52,
      "start": 44.3123,
      "duration": 0.1201,
      "velocity": 127,
      "chip": "ym2612"
    },
    {
      "channel": 0,
      "note": 73,
      "start": 44.4301,
      "duration": 0.3634,
      "velocity": 93,
      "chip": "ym2612"
    },
    {
      "channel": 1,
      "note": 49,
      "start": 44.431,
      "duration": 0.1796,
      "velocity": 97,
      "chip": "ym2612"
    },
    {
      "channel": 2,
      "note": 78,
      "start": 44.4318,
      "duration": 0.1789,
      "velocity": 97,
      "chip": "ym2612"
    },
    {
      "channel": 4,
      "note": 52,
      "start": 44.4331,
      "duration": 0.2325,
      "velocity": 127,
      "chip": "ym2612"
    },
    {
      "channel": 5,
      "note": 45,
      "start": 44.4365,
      "duration": 0.2236,
      "velocity": 122,
      "chip": "ym2612"
    },
    {
      "channel": 3,
      "note": 73,
      "start": 44.5787,
      "duration": 0.366,
      "velocity": 93,
      "chip": "ym2612"
    },
    {
      "channel": 1,
      "note": 49,
      "start": 44.6639,
      "duration": 0.1799,
      "velocity": 97,
      "chip": "ym2612"
    },
    {
      "channel": 2,
      "note": 80,
      "start": 44.6647,
      "duration": 0.1792,
      "velocity": 97,
      "chip": "ym2612"
    },
    {
      "channel": 4,
      "note": 52,
      "start": 44.6663,
      "duration": 0.1286,
      "velocity": 127,
      "chip": "ym2612"
    },
    {
      "channel": 5,
      "note": 52,
      "start": 44.6697,
      "duration": 0.2405,
      "velocity": 115,
      "chip": "ym2612"
    },
    {
      "channel": 4,
      "note": 52,
      "start": 44.7955,
      "duration": 0.1207,
      "velocity": 127,
      "chip": "ym2612"
    },
    {
      "channel": 0,
      "note": 75,
      "start": 44.9135,
      "duration": 0.7633,
      "velocity": 93,
      "chip": "ym2612"
    },
    {
      "channel": 1,
      "note": 51,
      "start": 44.9143,
      "duration": 0.1796,
      "velocity": 97,
      "chip": "ym2612"
    },
    {
      "channel": 2,
      "note": 82,
      "start": 44.9151,
      "duration": 0.1789,
      "velocity": 97,
      "chip": "ym2612"
    },
    {
      "channel": 4,
      "note": 52,
      "start": 44.9169,
      "duration": 0.232,
      "velocity": 127,
      "chip": "ym2612"
    },
    {
      "channel": 5,
      "note": 51,
      "start": 44.9202,
      "duration": 0.2232,
      "velocity": 117,
      "chip": "ym2612"
    },
    {
      "channel": 3,
      "note": 75,
      "start": 45.0621,
      "duration": 0.766,
      "velocity": 93,
      "chip": "ym2612"
    },
    {
      "channel": 1,
      "note": 51,
      "start": 45.1471,
      "duration": 0.1802,
      "velocity": 97,
      "chip": "ym2612"
    },
    {
      "channel": 2,
      "note": 85,
      "start": 45.148,
      "duration": 0.1794,
      "velocity": 97,
      "chip": "ym2612"
    },
    {
      "channel": 4,
      "note": 52,
      "start": 45.1496,
      "duration": 0.1122,
      "velocity": 127,
      "chip": "ym2612"
    },
    {
      "channel": 5,
      "note": 52,
      "start": 45.1529,
      "duration": 0.2405,
      "velocity": 115,
      "chip": "ym2612"
    },
    {
      "channel": 4,
      "note": 52,
      "start": 45.2625,
      "duration": 0.1363,
      "velocity": 127,
      "chip": "ym2612"
    },
    {
      "channel": 1,
      "note": 51,
      "start": 45.3971,
      "duration": 0.18,
      "velocity": 97,
      "chip": "ym2612"
    },
    {
      "channel": 2,
      "note": 87,
      "start": 45.3979,
      "duration": 0.1794,
      "velocity": 97,
      "chip": "ym2612"
    },
    {
      "channel": 4,
      "note": 52,
      "start": 45.3995,
      "duration": 0.2327,
      "velocity": 127,
      "chip": "ym2612"
    },
    {
      "channel": 5,
      "note": 45,
      "start": 45.4029,
      "duration": 0.2239,
      "velocity": 122,
      "chip": "ym2612"
    },
    {
      "channel": 1,
      "note": 51,
      "start": 45.6304,
      "duration": 0.1802,
      "velocity": 97,
      "chip": "ym2612"
    },
    {
      "channel": 2,
      "note": 82,
      "start": 45.6312,
      "duration": 0.1795,
      "velocity": 97,
      "chip": "ym2612"
    },
    {
      "channel": 4,
      "note": 52,
      "start": 45.6329,
      "duration": 0.1147,
      "velocity": 127,
      "chip": "ym2612"
    },
    {
      "channel": 5,
      "note": 52,
      "start": 45.6363,
      "duration": 0.1071,
      "velocity": 115,
      "chip": "ym2612"
    },
    {
      "channel": 4,
      "note": 52,
      "start": 45.7483,
      "duration": 0.134,
      "velocity": 127,
      "chip": "ym2612"
    },
    {
      "channel": 5,
      "note": 52,
      "start": 45.7516,
      "duration": 0.1251,
      "velocity": 115,
      "chip": "ym2612"
    },
    {
      "channel": 0,
      "note": 82,
      "start": 45.88,
      "duration": 0.7633,
      "velocity": 93,
      "chip": "ym2612"
    },
    {
      "channel": 1,
      "note": 51,
      "start": 45.8808,
      "duration": 0.1798,
      "velocity": 97,
      "chip": "ym2612"
    },
    {
      "channel": 2,
      "note": 85,
      "start": 45.8817,
      "duration": 0.1791,
      "velocity": 97,
      "chip": "ym2612"
    },
    {
      "channel": 4,
      "note": 52,
      "start": 45.8829,
      "duration": 0.0459,
      "velocity": 127,
      "chip": "ym2612"
    },
    {
      "channel": 5,
      "note": 51,
      "start": 45.8862,
      "duration": 0.2237,
      "velocity": 117,
      "chip": "ym2612"
    },
    {
      "channel": 4,
      "note": 52,
      "start": 45.9296,
      "duration": 0.066,
      "velocity": 127,
      "chip": "ym2612"
    },
    {
      "channel": 4,
      "note": 52,
      "start": 45.9962,
      "duration": 0.1188,
      "velocity": 127,
      "chip": "ym2612"
    },
    {
      "channel": 3,
      "note": 82,
      "start": 46.0287,
      "duration": 0.766,
      "velocity": 93,
      "chip": "ym2612"
    },
    {
      "channel": 1,
      "note": 51,
      "start": 46.1136,
      "duration": 0.1803,
      "velocity": 97,
      "chip": "ym2612"
    },
    {
      "channel": 2,
      "note": 87,
      "start": 46.1145,
      "duration": 0.1796,
      "velocity": 97,
      "chip": "ym2612"
    },
    {
      "channel": 4,
      "note": 52,
      "start": 46.1157,
      "duration": 0.1128,
      "velocity": 127,
      "chip": "ym2612"
    },
    {
      "channel": 5,
      "note": 52,
      "start": 46.1191,
      "duration": 0.241,
      "velocity": 115,
      "chip": "ym2612"
    },
    {
      "channel": 4,
      "note": 52,
      "start": 46.2292,
      "duration": 0.1363,
      "velocity": 127,
      "chip": "ym2612"
    },
    {
      "channel": 1,
      "note": 51,
      "start": 46.3637,
      "duration": 0.1802,
      "velocity": 97,
      "chip": "ym2612"
    },
    {
      "channel": 2,
      "note": 89,
      "start": 46.3646,
      "duration": 0.1795,
      "velocity": 97,
      "chip": "ym2612"
    },
    {
      "channel": 4,
      "note": 52,
      "start": 46.3662,
      "duration": 0.2327,
      "velocity": 127,
      "chip": "ym2612"
    },
    {
      "channel": 5,
      "note": 45,
      "start": 46.3696,
      "duration": 0.2239,
      "velocity": 122,
      "chip": "ym2612"
    },
    {
      "channel": 1,
      "note": 51,
      "start": 46.5971,
      "duration": 0.18,
      "velocity": 97,
      "chip": "ym2612"
    },
    {
      "channel": 2,
      "note": 90,
      "start": 46.5979,
      "duration": 0.1793,
      "velocity": 97,
      "chip": "ym2612"
    },
    {
      "channel": 4,
      "note": 52,
      "start": 46.5996,
      "duration": 0.112,
      "velocity": 127,
      "chip": "ym2612"
    },
    {
      "channel": 5,
      "note": 52,
      "start": 46.603,
      "duration": 0.2406,
      "velocity": 115,
      "chip": "ym2612"
    },
    {
      "channel": 4,
      "note": 52,
      "start": 46.7123,
      "duration": 0.1371,
      "velocity": 127,
      "chip": "ym2612"
    },
    {
      "channel": 0,
      "note": 83,
      "start": 46.8468,
      "duration": 0.7634,
      "velocity": 93,
      "chip": "ym2612"
    },
    {
      "channel": 1,
      "note": 52,
      "start": 46.8476,
      "duration": 0.1797,
      "velocity": 97,
      "chip": "ym2612"
    },
    {
      "channel": 2,
      "note": 92,
      "start": 46.8484,
      "duration": 0.179,
      "velocity": 97,
      "chip": "ym2612"
    },
    {
      "channel": 4,
      "note": 52,
      "start": 46.8501,
      "duration": 0.232,
      "velocity": 127,
      "chip": "ym2612"
    },
    {
      "channel": 5,
      "note": 51,
      "start": 46.8535,
      "duration": 0.2233,
      "velocity": 117,
      "chip": "ym2612"
    },
    {
      "channel": 3,
      "note": 83,
      "start": 46.9954,
      "duration": 0.766,
      "velocity": 93,
      "chip": "ym2612"
    },
    {
      "channel": 1,
      "note": 52,
      "start": 47.0803,
      "duration": 0.1803,
      "velocity": 97,
      "chip": "ym2612"
    },
    {
      "channel": 2,
      "note": 80,
      "start": 47.0812,
      "duration": 0.1796,
      "velocity": 97,
      "chip": "ym2612"
    },
    {
      "channel": 4,
      "note": 52,
      "start": 47.0828,
      "duration": 0.1123,
      "velocity": 127,
      "chip": "ym2612"
    },
    {
      "channel": 5,
      "note": 52,
      "start": 47.0862,
      "duration": 0.2406,
      "velocity": 115,
      "chip": "ym2612"
    },
    {
      "channel": 4,
      "note": 52,
      "start": 47.1959,
      "duration": 0.1363,
      "velocity": 127,
      "chip": "ym2612"
    },
    {
      "channel": 1,
      "note": 52,
      "start": 47.3303,
      "duration": 0.1801,
      "velocity": 97,
      "chip": "ym2612"
    },
    {
      "channel": 2,
      "note": 71,
      "start": 47.3311,
      "duration": 0.1795,
      "velocity": 97,
      "chip": "ym2612"
    },
    {
      "channel": 4,
      "note": 52,
      "start": 47.3328,
      "duration": 0.2327,
      "velocity": 127,
      "chip": "ym2612"
    },
    {
      "channel": 5,
      "note": 45,
      "start": 47.3361,
      "duration": 0.224,
      "velocity": 122,
      "chip": "ym2612"
    },
    {
      "channel": 1,
      "note": 52,
      "start": 47.5637,
      "duration": 0.1803,
      "velocity": 97,
      "chip": "ym2612"
    },
    {
      "channel": 2,
      "note": 80,
      "start": 47.5645,
      "duration": 0.1796,
      "velocity": 97,
      "chip": "ym2612"
    },
    {
      "channel": 4,
      "note": 52,
      "start": 47.5662,
      "duration": 0.1148,
      "velocity": 127,
      "chip": "ym2612"
    },
    {
      "channel": 5,
      "note": 52,
      "start": 47.5695,
      "duration": 0.1072,
      "velocity": 115,
      "chip": "ym2612"
    },
    {
      "channel": 4,
      "note": 52,
      "start": 47.6816,
      "duration": 0.1338,
      "velocity": 127,
      "chip": "ym2612"
    },
    {
      "channel": 5,
      "note": 52,
      "start": 47.685,
      "duration": 0.1251,
      "velocity": 115,
      "chip": "ym2612"
    },
    {
      "channel": 0,
      "note": 84,
      "start": 47.8133,
      "duration": 0.7633,
      "velocity": 93,
      "chip": "ym2612"
    },
    {
      "channel": 1,
      "note": 53,
      "start": 47.814,
      "duration": 0.1799,
      "velocity": 97,
      "chip": "ym2612"
    },
    {
      "channel": 2,
      "note": 77,
      "start": 47.8149,
      "duration": 0.1792,
      "velocity": 97,
      "chip": "ym2612"
    },
    {
      "channel": 4,
      "note": 52,
      "start": 47.8161,
      "duration": 0.0461,
      "velocity": 127,
      "chip": "ym2612"
    },
    {
      "channel": 5,
      "note": 51,
      "start": 47.8195,
      "duration": 0.2238,
      "velocity": 117,
      "chip": "ym2612"
    },
    {
      "channel": 4,
      "note": 52,
      "start": 47.8629,
      "duration": 0.066,
      "velocity": 127,
      "chip": "ym2612"
    },
    {
      "channel": 4,
      "note": 52,
      "start": 47.9296,
      "duration": 0.1187,
      "velocity": 127,
      "chip": "ym2612"
    },
    {
      "channel": 3,
      "note": 84,
      "start": 47.9621,
      "duration": 0.766,
      "velocity": 93,
      "chip": "ym2612"
    },
    {
      "channel": 1,
      "note": 53,
      "start": 48.0469,
      "duration": 0.1804,
      "velocity": 97,
      "chip": "ym2612"
    },
    {
      "channel": 2,
      "note": 72,
      "start": 48.0477,
      "duration": 0.1797,
      "velocity": 97,
      "chip": "ym2612"
    },
    {
      "channel": 4,
      "note": 52,
      "start": 48.049,
      "duration": 0.1129,
      "velocity": 127,
      "chip": "ym2612"
    },
    {
      "channel": 5,
      "note": 52,
      "start": 48.0523,
      "duration": 0.2412,
      "velocity": 115,
      "chip": "ym2612"
    },
    {
      "channel": 4,
      "note": 52,
      "start": 48.1625,
      "duration": 0.1363,
      "velocity": 127,
      "chip": "ym2612"
    },
    {
      "channel": 1,
      "note": 53,
      "start": 48.2969,
      "duration": 0.1805,
      "velocity": 97,
      "chip": "ym2612"
    },
    {
      "channel": 2,
      "note": 77,
      "start": 48.2978,
      "duration": 0.1798,
      "velocity": 97,
      "chip": "ym2612"
    },
    {
      "channel": 4,
      "note": 52,
      "start": 48.2995,
      "duration": 0.2327,
      "velocity": 127,
      "chip": "ym2612"
    },
    {
      "channel": 5,
      "note": 45,
      "start": 48.3028,
      "duration": 0.224,
      "velocity": 122,
      "chip": "ym2612"
    },
    {
      "channel": 1,
      "note": 53,
      "start": 48.5303,
      "duration": 0.1801,
      "velocity": 97,
      "chip": "ym2612"
    },
    {
      "channel": 2,
      "note": 80,
      "start": 48.5312,
      "duration": 0.1794,
      "velocity": 97,
      "chip": "ym2612"
    },
    {
      "channel": 4,
      "note": 52,
      "start": 48.5329,
      "duration": 0.1121,
      "velocity": 127,
      "chip": "ym2612"
    },
    {
      "channel": 5,
      "note": 52,
      "start": 48.5362,
      "duration": 0.2407,
      "velocity": 115,
      "chip": "ym2612"
    },
    {
      "channel": 4,
      "note": 52,
      "start": 48.6457,
      "duration": 0.1371,
      "velocity": 127,
      "chip": "ym2612"
    },
    {
      "channel": 0,
      "note": 85,
      "start": 48.7802,
      "duration": 0.1801,
      "velocity": 93,
      "chip": "ym2612"
    },
    {
      "channel": 1,
      "note": 54,
      "start": 48.7809,
      "duration": 0.1795,
      "velocity": 97,
      "chip": "ym2612"
    },
    {
      "channel": 2,
      "note": 78,
      "start": 48.7817,
      "duration": 0.1789,
      "velocity": 97,
      "chip": "ym2612"
    },
    {
      "channel": 4,
      "note": 52,
      "start": 48.7834,
      "duration": 0.2324,
      "velocity": 127,
      "chip": "ym2612"
    },
    {
      "channel": 5,
      "note": 51,
      "start": 48.7868,
      "duration": 0.2233,
      "velocity": 117,
      "chip": "ym2612"
    },
    {
      "channel": 3,
      "note": 85,
      "start": 48.9289,
      "duration": 0.1824,
      "velocity": 93,
      "chip": "ym2612"
    },
    {
      "channel": 0,
      "note": 78,
      "start": 49.0133,
      "duration": 0.1802,
      "velocity": 93,
      "chip": "ym2612"
    },
    {
      "channel": 1,
      "note": 54,
      "start": 49.0141,
      "duration": 0.1795,
      "velocity": 97,
      "chip": "ym2612"
    },
    {
      "channel": 2,
      "note": 77,
      "start": 49.0149,
      "duration": 0.1789,
      "velocity": 97,
      "chip": "ym2612"
    },
    {
      "channel": 4,
      "note": 52,
      "start": 49.0166,
      "duration": 0.1119,
      "velocity": 127,
      "chip": "ym2612"
    },
    {
      "channel": 5,
      "note": 52,
      "start": 49.02,
      "duration": 0.2401,
      "velocity": 115,
      "chip": "ym2612"
    },
    {
      "channel": 4,
      "note": 52,
      "start": 49.1292,
      "duration": 0.1367,
      "velocity": 127,
      "chip": "ym2612"
    },
    {
      "channel": 3,
      "note": 78,
      "start": 49.1787,
      "duration": 0.1827,
      "velocity": 93,
      "chip": "ym2612"
    },
    {
      "channel": 0,
      "note": 82,
      "start": 49.2633,
      "duration": 0.1801,
      "velocity": 93,
      "chip": "ym2612"
    },
    {
      "channel": 1,
      "note": 54,
      "start": 49.2641,
      "duration": 0.1795,
      "velocity": 97,
      "chip": "ym2612"
    },
    {
      "channel": 2,
      "note": 78,
      "start": 49.2649,
      "duration": 0.1788,
      "velocity": 97,
      "chip": "ym2612"
    },
    {
      "channel": 4,
      "note": 52,
      "start": 49.2666,
      "duration": 0.2327,
      "velocity": 127,
      "chip": "ym2612"
    },
    {
      "channel": 5,
      "note": 51,
      "start": 49.2699,
      "duration": 0.2235,
      "velocity": 117,
      "chip": "ym2612"
    },
    {
      "channel": 3,
      "note": 82,
      "start": 49.4121,
      "duration": 0.1826,
      "velocity": 93,
      "chip": "ym2612"
    },
    {
      "channel": 0,
      "note": 85,
      "start": 49.4967,
      "duration": 0.1802,
      "velocity": 93,
      "chip": "ym2612"
    },
    {
      "channel": 1,
      "note": 54,
      "start": 49.4974,
      "duration": 0.1795,
      "velocity": 97,
      "chip": "ym2612"
    },
    {
      "channel": 2,
      "note": 80,
      "start": 49.4983,
      "duration": 0.1789,
      "velocity": 97,
      "chip": "ym2612"
    },
    {
      "channel": 4,
      "note": 52,
      "start": 49.5,
      "duration": 0.1143,
      "velocity": 127,
      "chip": "ym2612"
    },
    {
      "channel": 5,
      "note": 52,
      "start": 49.5033,
      "duration": 0.1068,
      "velocity": 115,
      "chip": "ym2612"
    },
    {
      "channel": 4,
      "note": 52,
      "start": 49.615,
      "duration": 0.1339,
      "velocity": 127,
      "chip": "ym2612"
    },
    {
      "channel": 5,
      "note": 52,
      "start": 49.6183,
      "duration": 0.1251,
      "velocity": 115,
      "chip": "ym2612"
    },
    {
      "channel": 3,
      "note": 85,
      "start": 49.6622,
      "duration": 0.1824,
      "velocity": 93,
      "chip": "ym2612"
    },
    {
      "channel": 0,
      "note": 90,
      "start": 49.7467,
      "duration": 0.1803,
      "velocity": 93,
      "chip": "ym2612"
    },
    {
      "channel": 1,
      "note": 54,
      "start": 49.7474,
      "duration": 0.1796,
      "velocity": 97,
      "chip": "ym2612"
    },
    {
      "channel": 2,
      "note": 82,
      "start": 49.7483,
      "duration": 0.179,
      "velocity": 97,
      "chip": "ym2612"
    },
    {
      "channel": 4,
      "note": 52,
      "start": 49.7496,
      "duration": 0.0459,
      "velocity": 127,
      "chip": "ym2612"
    },
    {
      "channel": 5,
      "note": 51,
      "start": 49.7529,
      "duration": 0.2237,
      "velocity": 117,
      "chip": "ym2612"
    },
    {
      "channel": 4,
      "note": 52,
      "start": 49.7962,
      "duration": 0.066,
      "velocity": 127,
      "chip": "ym2612"
    },
    {
      "channel": 4,
      "note": 52,
      "start": 49.8629,
      "duration": 0.1191,
      "velocity": 127,
      "chip": "ym2612"
    },
    {
      "channel": 3,
      "note": 90,
      "start": 49.8954,
      "duration": 0.1826,
      "velocity": 93,
      "chip": "ym2612"
    },
    {
      "channel": 0,
      "note": 94,
      "start": 49.9799,
      "duration": 0.1803,
      "velocity": 93,
      "chip": "ym2612"
    },
    {
      "channel": 1,
      "note": 54,
      "start": 49.9806,
      "duration": 0.1797,
      "velocity": 97,
      "chip": "ym2612"
    },
    {
      "channel": 2,
      "note": 83,
      "start": 49.9815,
      "duration": 0.179,
      "velocity": 97,
      "chip": "ym2612"
    },
    {
      "channel": 4,
      "note": 52,
      "start": 49.9827,
      "duration": 0.1124,
      "velocity": 127,
      "chip": "ym2612"
    },
    {
      "channel": 5,
      "note": 52,
      "start": 49.9861,
      "duration": 0.2406,
      "velocity": 115,
      "chip": "ym2612"
    },
    {
      "channel": 4,
      "note": 52,
      "start": 50.0959,
      "duration": 0.1394,
      "velocity": 127,
      "chip": "ym2612"
    },
    {
      "channel": 3,
      "note": 94,
      "start": 50.1455,
      "duration": 0.1825,
      "velocity": 93,
      "chip": "ym2612"
    },
    {
      "channel": 0,
      "note": 82,
      "start": 50.2327,
      "duration": 0.1776,
      "velocity": 105,
      "chip": "ym2612"
    },
    {
      "channel": 1,
      "note": 54,
      "start": 50.2335,
      "duration": 0.1769,
      "velocity": 97,
      "chip": "ym2612"
    },
    {
      "channel": 2,
      "note": 85,
      "start": 50.2343,
      "duration": 0.1763,
      "velocity": 97,
      "chip": "ym2612"
    },
    {
      "channel": 4,
      "note": 52,
      "start": 50.236,
      "duration": 0.2299,
      "velocity": 127,
      "chip": "ym2612"
    },
    {
      "channel": 5,
      "note": 51,
      "start": 50.2393,
      "duration": 0.2208,
      "velocity": 117,
      "chip": "ym2612"
    },
    {
      "channel": 3,
      "note": 82,
      "start": 50.3813,
      "duration": 0.18,
      "velocity": 105,
      "chip": "ym2612"
    },
    {
      "channel": 0,
      "note": 83,
      "start": 50.4633,
      "duration": 0.18,
      "velocity": 105,
      "chip": "ym2612"
    },
    {
      "channel": 1,
      "note": 54,
      "start": 50.4641,
      "duration": 0.1794,
      "velocity": 97,
      "chip": "ym2612"
    },
    {
      "channel": 2,
      "note": 90,
      "start": 50.4649,
      "duration": 0.1787,
      "velocity": 97,
      "chip": "ym2612"
    },
    {
      "channel": 4,
      "note": 52,
      "start": 50.4666,
      "duration": 0.1117,
      "velocity": 127,
      "chip": "ym2612"
    },
    {
      "channel": 5,
      "note": 52,
      "start": 50.47,
      "duration": 0.2402,
      "velocity": 115,
      "chip": "ym2612"
    },
    {
      "channel": 4,
      "note": 52,
      "start": 50.579,
      "duration": 0.138,
      "velocity": 127,
      "chip": "ym2612"
    },
    {
      "channel": 3,
      "note": 83,
      "start": 50.6289,
      "duration": 0.1825,
      "velocity": 105,
      "chip": "ym2612"
    },
    {
      "channel": 0,
      "note": 85,
      "start": 50.7137,
      "duration": 0.3632,
      "velocity": 105,
      "chip": "ym2612"
    },
    {
      "channel": 1,
      "note": 54,
      "start": 50.7148,
      "duration": 0.1793,
      "velocity": 97,
      "chip": "ym2612"
    },
    {
      "channel": 2,
      "note": 78,
      "start": 50.716,
      "duration": 0.1782,
      "velocity": 97,
      "chip": "ym2612"
    },
    {
      "channel": 4,
      "note": 52,
      "start": 50.7177,
      "duration": 0.2312,
      "velocity": 127,
      "chip": "ym2612"
    },
    {
      "channel": 5,
      "note": 51,
      "start": 50.721,
      "duration": 0.2224,
      "velocity": 117,
      "chip": "ym2612"
    },
    {
      "channel": 3,
      "note": 85,
      "start": 50.8623,
      "duration": 0.3657,
      "velocity": 105,
      "chip": "ym2612"
    },
    {
      "channel": 1,
      "note": 54,
      "start": 50.9471,
      "duration": 0.4827,
      "velocity": 97,
      "chip": "ym2612"
    },
    {
      "channel": 2,
      "note": 73,
      "start": 50.9479,
      "duration": 0.1797,
      "velocity": 97,
      "chip": "ym2612"
    },
    {
      "channel": 4,
      "note": 52,
      "start": 50.9496,
      "duration": 0.1122,
      "velocity": 127,
      "chip": "ym2612"
    },
    {
      "channel": 5,
      "note": 52,
      "start": 50.9529,
      "duration": 0.2405,
      "velocity": 115,
      "chip": "ym2612"
    },
    {
      "channel": 4,
      "note": 52,
      "start": 51.0625,
      "duration": 0.1367,
      "velocity": 127,
      "chip": "ym2612"
    },
    {
      "channel": 0,
      "note": 78,
      "start": 51.1966,
      "duration": 0.3635,
      "velocity": 105,
      "chip": "ym2612"
    },
    {
      "channel": 2,
      "note": 70,
      "start": 51.1982,
      "duration": 0.1791,
      "velocity": 97,
      "chip": "ym2612"
    },
    {
      "channel": 4,
      "note": 52,
      "start": 51.1999,
      "duration": 0.2322,
      "velocity": 127,
      "chip": "ym2612"
    },
    {
      "channel": 5,
      "note": 45,
      "start": 51.2032,
      "duration": 0.2235,
      "velocity": 122,
      "chip": "ym2612"
    },
    {
      "channel": 3,
      "note": 78,
      "start": 51.3454,
      "duration": 0.3658,
      "velocity": 105,
      "chip": "ym2612"
    },
    {
      "channel": 1,
      "note": 54,
      "start": 51.4303,
      "duration": 0.1803,
      "velocity": 97,
      "chip": "ym2612"
    },
    {
      "channel": 2,
      "note": 78,
      "start": 51.4312,
      "duration": 0.1796,
      "velocity": 97,
      "chip": "ym2612"
    },
    {
      "channel": 4,
      "note": 52,
      "start": 51.4329,
      "duration": 0.1148,
      "velocity": 127,
      "chip": "ym2612"
    },
    {
      "channel": 5,
      "note": 52,
      "start": 51.4362,
      "duration": 0.1072,
      "velocity": 115,
      "chip": "ym2612"
    },
    {
      "channel": 4,
      "note": 52,
      "start": 51.5483,
      "duration": 0.1167,
      "velocity": 127,
      "chip": "ym2612"
    },
    {
      "channel": 5,
      "note": 52,
      "start": 51.5516,
      "duration": 0.1085,
      "velocity": 115,
      "chip": "ym2612"
    },
    {
      "channel": 0,
      "note": 82,
      "start": 51.6633,
      "duration": 0.3635,
      "velocity": 105,
      "chip": "ym2612"
    },
    {
      "channel": 2,
      "note": 82,
      "start": 51.6645,
      "duration": 0.1796,
      "velocity": 97,
      "chip": "ym2612"
    },
    {
      "channel": 4,
      "note": 52,
      "start": 51.6658,
      "duration": 0.0632,
      "velocity": 127,
      "chip": "ym2612"
    },
    {
      "channel": 5,
      "note": 51,
      "start": 51.6691,
      "duration": 0.2408,
      "velocity": 117,
      "chip": "ym2612"
    },
    {
      "channel": 4,
      "note": 52,
      "start": 51.7296,
      "duration": 0.066,
      "velocity": 127,
      "chip": "ym2612"
    },
    {
      "channel": 4,
      "note": 52,
      "start": 51.7963,
      "duration": 0.1186,
      "velocity": 127,
      "chip": "ym2612"
    },
    {
      "channel": 3,
      "note": 82,
      "start": 51.8289,
      "duration": 0.3658,
      "velocity": 105,
      "chip": "ym2612"
    },
    {
      "channel": 1,
      "note": 54,
      "start": 51.9135,
      "duration": 0.1805,
      "velocity": 97,
      "chip": "ym2612"
    },
    {
      "channel": 2,
      "note": 78,
      "start": 51.9143,
      "duration": 0.1798,
      "velocity": 97,
      "chip": "ym2612"
    },
    {
      "channel": 4,
      "note": 52,
      "start": 51.9156,
      "duration": 0.1127,
      "velocity": 127,
      "chip": "ym2612"
    },
    {
      "channel": 5,
      "note": 52,
      "start": 51.9189,
      "duration": 0.2245,
      "velocity": 115,
      "chip": "ym2612"
    },
    {
      "channel": 4,
      "note": 52,
      "start": 52.0289,
      "duration": 0.1198,
      "velocity": 127,
      "chip": "ym2612"
    },
    {
      "channel": 0,
      "note": 90,
      "start": 52.1467,
      "duration": 0.3633,
      "velocity": 105,
      "chip": "ym2612"
    },
    {
      "channel": 2,
      "note": 73,
      "start": 52.1478,
      "duration": 0.1798,
      "velocity": 97,
      "chip": "ym2612"
    },
    {
      "channel": 4,
      "note": 52,
      "start": 52.1495,
      "duration": 0.2493,
      "velocity": 127,
      "chip": "ym2612"
    },
    {
      "channel": 5,
      "note": 45,
      "start": 52.1529,
      "duration": 0.2406,
      "velocity": 122,
      "chip": "ym2612"
    },
    {
      "channel": 3,
      "note": 90,
      "start": 52.312,
      "duration": 0.366,
      "velocity": 105,
      "chip": "ym2612"
    },
    {
      "channel": 1,
      "note": 49,
      "start": 52.397,
      "duration": 0.1801,
      "velocity": 97,
      "chip": "ym2612"
    },
    {
      "channel": 2,
      "note": 78,
      "start": 52.3978,
      "duration": 0.1794,
      "velocity": 97,
      "chip": "ym2612"
    },
    {
      "channel": 4,
      "note": 52,
      "start": 52.3995,
      "duration": 0.1119,
      "velocity": 127,
      "chip": "ym2612"
    },
    {
      "channel": 5,
      "note": 52,
      "start": 52.4028,
      "duration": 0.2243,
      "velocity": 115,
      "chip": "ym2612"
    },
    {
      "channel": 4,
      "note": 52,
      "start": 52.5121,
      "duration": 0.1208,
      "velocity": 127,
      "chip": "ym2612"
    },
    {
      "channel": 0,
      "note": 89,
      "start": 52.6303,
      "duration": 0.3632,
      "velocity": 105,
      "chip": "ym2612"
    },
    {
      "channel": 1,
      "note": 51,
      "start": 52.631,
      "duration": 0.1796,
      "velocity": 97,
      "chip": "ym2612"
    },
    {
      "channel": 2,
      "note": 75,
      "start": 52.6319,
      "duration": 0.1789,
      "velocity": 97,
      "chip": "ym2612"
    },
    {
      "channel": 4,
      "note": 52,
      "start": 52.6336,
      "duration": 0.2485,
      "velocity": 127,
      "chip": "ym2612"
    },
    {
      "channel": 5,
      "note": 51,
      "start": 52.6369,
      "duration": 0.2399,
      "velocity": 117,
      "chip": "ym2612"
    },
    {
      "channel": 3,
      "note": 89,
      "start": 52.7955,
      "duration": 0.3658,
      "velocity": 105,
      "chip": "ym2612"
    },
    {
      "channel": 1,
      "note": 51,
      "start": 52.8803,
      "duration": 0.1803,
      "velocity": 97,
      "chip": "ym2612"
    },
    {
      "channel": 2,
      "note": 78,
      "start": 52.8812,
      "duration": 0.1796,
      "velocity": 97,
      "chip": "ym2612"
    },
    {
      "channel": 4,
      "note": 52,
      "start": 52.8828,
      "duration": 0.1121,
      "velocity": 127,
      "chip": "ym2612"
    },
    {
      "channel": 5,
      "note": 52,
      "start": 52.8861,
      "duration": 0.2239,
      "velocity": 115,
      "chip": "ym2612"
    },
    {
      "channel": 4,
      "note": 52,
      "start": 52.9956,
      "duration": 0.1201,
      "velocity": 127,
      "chip": "ym2612"
    },
    {
      "channel": 0,
      "note": 87,
      "start": 53.1132,
      "duration": 0.3662,
      "velocity": 105,
      "chip": "ym2612"
    },
    {
      "channel": 1,
      "note": 53,
      "start": 53.1139,
      "duration": 0.1801,
      "velocity": 97,
      "chip": "ym2612"
    },
    {
      "channel": 2,
      "note": 82,
      "start": 53.1147,
      "duration": 0.1793,
      "velocity": 97,
      "chip": "ym2612"
    },
    {
      "channel": 4,
      "note": 52,
      "start": 53.1164,
      "duration": 0.249,
      "velocity": 127,
      "chip": "ym2612"
    },
    {
      "channel": 5,
      "note": 45,
      "start": 53.1197,
      "duration": 0.2404,
      "velocity": 122,
      "chip": "ym2612"
    },
    {
      "channel": 3,
      "note": 87,
      "start": 53.2789,
      "duration": 0.3656,
      "velocity": 105,
      "chip": "ym2612"
    },
    {
      "channel": 1,
      "note": 54,
      "start": 53.3637,
      "duration": 0.1803,
      "velocity": 97,
      "chip": "ym2612"
    },
    {
      "channel": 2,
      "note": 78,
      "start": 53.3645,
      "duration": 0.1796,
      "velocity": 97,
      "chip": "ym2612"
    },
    {
      "channel": 4,
      "note": 52,
      "start": 53.3661,
      "duration": 0.1145,
      "velocity": 127,
      "chip": "ym2612"
    },
    {
      "channel": 5,
      "note": 52,
      "start": 53.3695,
      "duration": 0.1073,
      "velocity": 115,
      "chip": "ym2612"
    },
    {
      "channel": 4,
      "note": 52,
      "start": 53.4813,
      "duration": 0.1171,
      "velocity": 127,
      "chip": "ym2612"
    },
    {
      "channel": 5,
      "note": 52,
      "start": 53.4847,
      "duration": 0.1087,
      "velocity": 115,
      "chip": "ym2612"
    },
    {
      "channel": 0,
      "note": 75,
      "start": 53.5967,
      "duration": 0.3635,
      "velocity": 105,
      "chip": "ym2612"
    },
    {
      "channel": 2,
      "note": 78,
      "start": 53.5978,
      "duration": 0.1796,
      "velocity": 97,
      "chip": "ym2612"
    },
    {
      "channel": 4,
      "note": 52,
      "start": 53.5991,
      "duration": 0.0632,
      "velocity": 127,
      "chip": "ym2612"
    },
    {
      "channel": 5,
      "note": 51,
      "start": 53.6025,
      "duration": 0.2408,
      "velocity": 117,
      "chip": "ym2612"
    },
    {
      "channel": 4,
      "note": 52,
      "start": 53.6629,
      "duration": 0.066,
      "velocity": 127,
      "chip": "ym2612"
    },
    {
      "channel": 4,
      "note": 52,
      "start": 53.7296,
      "duration": 0.1186,
      "velocity": 127,
      "chip": "ym2612"
    },
    {
      "channel": 3,
      "note": 75,
      "start": 53.7622,
      "duration": 0.3658,
      "velocity": 105,
      "chip": "ym2612"
    },
    {
      "channel": 1,
      "note": 56,
      "start": 53.8468,
      "duration": 0.1805,
      "velocity": 97,
      "chip": "ym2612"
    },
    {
      "channel": 2,
      "note": 80,
      "start": 53.8476,
      "duration": 0.1798,
      "velocity": 97,
      "chip": "ym2612"
    },
    {
      "channel": 4,
      "note": 52,
      "start": 53.8489,
      "duration": 0.1127,
      "velocity": 127,
      "chip": "ym2612"
    },
    {
      "channel": 5,
      "note": 52,
      "start": 53.8523,
      "duration": 0.2245,
      "velocity": 115,
      "chip": "ym2612"
    },
    {
      "channel": 4,
      "note": 52,
      "start": 53.9623,
      "duration": 0.1199,
      "velocity": 127,
      "chip": "ym2612"
    },
    {
      "channel": 0,
      "note": 80,
      "start": 54.0801,
      "duration": 0.1801,
      "velocity": 105,
      "chip": "ym2612"
    },
    {
      "channel": 2,
      "note": 82,
      "start": 54.0812,
      "duration": 0.1794,
      "velocity": 97,
      "chip": "ym2612"
    },
    {
      "channel": 4,
      "note": 52,
      "start": 54.0829,
      "duration": 0.2496,
      "velocity": 127,
      "chip": "ym2612"
    },
    {
      "channel": 5,
      "note": 45,
      "start": 54.0862,
      "duration": 0.2405,
      "velocity": 122,
      "chip": "ym2612"
    },
    {
      "channel": 3,
      "note": 80,
      "start": 54.2454,
      "duration": 0.1826,
      "velocity": 105,
      "chip": "ym2612"
    },
    {
      "channel": 0,
      "note": 78,
      "start": 54.33,
      "duration": 0.18,
      "velocity": 105,
      "chip": "ym2612"
    },
    {
      "channel": 1,
      "note": 51,
      "start": 54.3307,
      "duration": 0.1795,
      "velocity": 97,
      "chip": "ym2612"
    },
    {
      "channel": 2,
      "note": 83,
      "start": 54.3315,
      "duration": 0.1788,
      "velocity": 97,
      "chip": "ym2612"
    },
    {
      "channel": 4,
      "note": 52,
      "start": 54.3332,
      "duration": 0.1118,
      "velocity": 127,
      "chip": "ym2612"
    },
    {
      "channel": 5,
      "note": 52,
      "start": 54.3366,
      "duration": 0.2239,
      "velocity": 115,
      "chip": "ym2612"
    },
    {
      "channel": 4,
      "note": 52,
      "start": 54.4457,
      "duration": 0.1208,
      "velocity": 127,
      "chip": "ym2612"
    },
    {
      "channel": 3,
      "note": 78,
      "start": 54.4955,
      "duration": 0.1826,
      "velocity": 105,
      "chip": "ym2612"
    },
    {
      "channel": 0,
      "note": 77,
      "start": 54.5637,
      "duration": 0.7631,
      "velocity": 105,
      "chip": "ym2612"
    },
    {
      "channel": 1,
      "note": 58,
      "start": 54.5646,
      "duration": 0.1793,
      "velocity": 97,
      "chip": "ym2612"
    },
    {
      "channel": 2,
      "note": 85,
      "start": 54.5654,
      "duration": 0.1786,
      "velocity": 97,
      "chip": "ym2612"
    },
    {
      "channel": 4,
      "note": 52,
      "start": 54.5672,
      "duration": 0.2483,
      "velocity": 127,
      "chip": "ym2612"
    },
    {
      "channel": 5,
      "note": 51,
      "start": 54.5705,
      "duration": 0.2396,
      "velocity": 117,
      "chip": "ym2612"
    },
    {
      "channel": 3,
      "note": 77,
      "start": 54.7289,
      "duration": 0.7658,
      "velocity": 105,
      "chip": "ym2612"
    },
    {
      "channel": 1,
      "note": 58,
      "start": 54.8137,
      "duration": 0.1804,
      "velocity": 97,
      "chip": "ym2612"
    },
    {
      "channel": 2,
      "note": 77,
      "start": 54.8145,
      "duration": 0.1796,
      "velocity": 97,
      "chip": "ym2612"
    },
    {
      "channel": 4,
      "note": 52,
      "start": 54.8161,
      "duration": 0.1124,
      "velocity": 127,
      "chip": "ym2612"
    },
    {
      "channel": 5,
      "note": 52,
      "start": 54.8195,
      "duration": 0.2239,
      "velocity": 115,
      "chip": "ym2612"
    },
    {
      "channel": 4,
      "note": 52,
      "start": 54.9293,
      "duration": 0.1194,
      "velocity": 127,
      "chip": "ym2612"
    },
    {
      "channel": 1,
      "note": 58,
      "start": 55.0468,
      "duration": 0.1805,
      "velocity": 97,
      "chip": "ym2612"
    },
    {
      "channel": 2,
      "note": 85,
      "start": 55.0476,
      "duration": 0.1798,
      "velocity": 97,
      "chip": "ym2612"
    },
    {
      "channel": 4,
      "note": 52,
      "start": 55.0493,
      "duration": 0.2495,
      "velocity": 127,
      "chip": "ym2612"
    },
    {
      "channel": 5,
      "note": 45,
      "start": 55.0527,
      "duration": 0.2408,
      "velocity": 122,
      "chip": "ym2612"
    },
    {
      "channel": 1,
      "note": 58,
      "start": 55.297,
      "duration": 0.1804,
      "velocity": 97,
      "chip": "ym2612"
    },
    {
      "channel": 2,
      "note": 82,
      "start": 55.2978,
      "duration": 0.1796,
      "velocity": 97,
      "chip": "ym2612"
    },
    {
      "channel": 4,
      "note": 52,
      "start": 55.2995,
      "duration": 0.1148,
      "velocity": 127,
      "chip": "ym2612"
    },
    {
      "channel": 5,
      "note": 52,
      "start": 55.3029,
      "duration": 0.1072,
      "velocity": 115,
      "chip": "ym2612"
    },
    {
      "channel": 4,
      "note": 52,
      "start": 55.415,
      "duration": 0.1173,
      "velocity": 127,
      "chip": "ym2612"
    },
    {
      "channel": 5,
      "note": 52,
      "start": 55.4184,
      "duration": 0.1084,
      "velocity": 115,
      "chip": "ym2612"
    },
    {
      "channel": 0,
      "note": 71,
      "start": 55.5301,
      "duration": 0.3634,
      "velocity": 105,
      "chip": "ym2612"
    },
    {
      "channel": 1,
      "note": 59,
      "start": 55.5308,
      "duration": 0.1796,
      "velocity": 97,
      "chip": "ym2612"
    },
    {
      "channel": 2,
      "note": 83,
      "start": 55.5316,
      "duration": 0.179,
      "velocity": 97,
      "chip": "ym2612"
    },
    {
      "channel": 4,
      "note": 52,
      "start": 55.5329,
      "duration": 0.0626,
      "velocity": 127,
      "chip": "ym2612"
    },
    {
      "channel": 5,
      "note": 51,
      "start": 55.5362,
      "duration": 0.2404,
      "velocity": 117,
      "chip": "ym2612"
    },
    {
      "channel": 4,
      "note": 52,
      "start": 55.5962,
      "duration": 0.066,
      "velocity": 127,
      "chip": "ym2612"
    },
    {
      "channel": 4,
      "note": 52,
      "start": 55.6629,
      "duration": 0.1187,
      "velocity": 127,
      "chip": "ym2612"
    },
    {
      "channel": 3,
      "note": 71,
      "start": 55.6956,
      "duration": 0.3658,
      "velocity": 105,
      "chip": "ym2612"
    },
    {
      "channel": 1,
      "note": 59,
      "start": 55.7802,
      "duration": 0.1804,
      "velocity": 97,
      "chip": "ym2612"
    },
    {
      "channel": 2,
      "note": 78,
      "start": 55.781,
      "duration": 0.1797,
      "velocity": 97,
      "chip": "ym2612"
    },
    {
      "channel": 4,
      "note": 52,
      "start": 55.7823,
      "duration": 0.1126,
      "velocity": 127,
      "chip": "ym2612"
    },
    {
      "channel": 5,
      "note": 52,
      "start": 55.7856,
      "duration": 0.2245,
      "velocity": 115,
      "chip": "ym2612"
    },
    {
      "channel": 4,
      "note": 52,
      "start": 55.8956,
      "duration": 0.1202,
      "velocity": 127,
      "chip": "ym2612"
    },
    {
      "channel": 0,
      "note": 83,
      "start": 56.0133,
      "duration": 0.3633,
      "velocity": 105,
      "chip": "ym2612"
    },
    {
      "channel": 1,
      "note": 59,
      "start": 56.014,
      "duration": 0.1799,
      "velocity": 97,
      "chip": "ym2612"
    },
    {
      "channel": 2,
      "note": 75,
      "start": 56.0149,
      "duration": 0.1792,
      "velocity": 97,
      "chip": "ym2612"
    },
    {
      "channel": 4,
      "note": 52,
      "start": 56.0165,
      "duration": 0.2489,
      "velocity": 127,
      "chip": "ym2612"
    },
    {
      "channel": 5,
      "note": 45,
      "start": 56.0199,
      "duration": 0.2402,
      "velocity": 122,
      "chip": "ym2612"
    },
    {
      "channel": 3,
      "note": 83,
      "start": 56.1787,
      "duration": 0.366,
      "velocity": 105,
      "chip": "ym2612"
    },
    {
      "channel": 1,
      "note": 59,
      "start": 56.2637,
      "duration": 0.1801,
      "velocity": 97,
      "chip": "ym2612"
    },
    {
      "channel": 2,
      "note": 71,
      "start": 56.2645,
      "duration": 0.1794,
      "velocity": 97,
      "chip": "ym2612"
    },
    {
      "channel": 4,
      "note": 52,
      "start": 56.2661,
      "duration": 0.1119,
      "velocity": 127,
      "chip": "ym2612"
    },
    {
      "channel": 5,
      "note": 52,
      "start": 56.2695,
      "duration": 0.2243,
      "velocity": 115,
      "chip": "ym2612"
    },
    {
      "channel": 4,
      "note": 52,
      "start": 56.3787,
      "duration": 0.1209,
      "velocity": 127,
      "chip": "ym2612"
    },
    {
      "channel": 0,
      "note": 82,
      "start": 56.4971,
      "duration": 0.7631,
      "velocity": 105,
      "chip": "ym2612"
    },
    {
      "channel": 1,
      "note": 60,
      "start": 56.4978,
      "duration": 0.1795,
      "velocity": 97,
      "chip": "ym2612"
    },
    {
      "channel": 2,
      "note": 70,
      "start": 56.4986,
      "duration": 0.1788,
      "velocity": 97,
      "chip": "ym2612"
    },
    {
      "channel": 4,
      "note": 52,
      "start": 56.5003,
      "duration": 0.2485,
      "velocity": 127,
      "chip": "ym2612"
    },
    {
      "channel": 5,
      "note": 51,
      "start": 56.5037,
      "duration": 0.2398,
      "velocity": 117,
      "chip": "ym2612"
    },
    {
      "channel": 3,
      "note": 82,
      "start": 56.6623,
      "duration": 0.7658,
      "velocity": 105,
      "chip": "ym2612"
    },
    {
      "channel": 1,
      "note": 60,
      "start": 56.747,
      "duration": 0.1804,
      "velocity": 97,
      "chip": "ym2612"
    },
    {
      "channel": 2,
      "note": 70,
      "start": 56.7478,
      "duration": 0.1796,
      "velocity": 97,
      "chip": "ym2612"
    },
    {
      "channel": 4,
      "note": 52,
      "start": 56.7495,
      "duration": 0.1124,
      "velocity": 127,
      "chip": "ym2612"
    },
    {
      "channel": 5,
      "note": 52,
      "start": 56.7528,
      "duration": 0.2239,
      "velocity": 115,
      "chip": "ym2612"
    },
    {
      "channel": 4,
      "note": 52,
      "start": 56.8626,
      "duration": 0.1194,
      "velocity": 127,
      "chip": "ym2612"
    },
    {
      "channel": 1,
      "note": 60,
      "start": 56.9801,
      "duration": 0.1805,
      "velocity": 97,
      "chip": "ym2612"
    },
    {
      "channel": 2,
      "note": 72,
      "start": 56.981,
      "duration": 0.1798,
      "velocity": 97,
      "chip": "ym2612"
    },
    {
      "channel": 4,
      "note": 52,
      "start": 56.9826,
      "duration": 0.2496,
      "velocity": 127,
      "chip": "ym2612"
    },
    {
      "channel": 5,
      "note": 45,
      "start": 56.986,
      "duration": 0.2408,
      "velocity": 122,
      "chip": "ym2612"
    },
    {
      "channel": 1,
      "note": 60,
      "start": 57.2303,
      "duration": 0.1804,
      "velocity": 97,
      "chip": "ym2612"
    },
    {
      "channel": 2,
      "note": 76,
      "start": 57.2312,
      "duration": 0.1796,
      "velocity": 97,
      "chip": "ym2612"
    },
    {
      "channel": 4,
      "note": 52,
      "start": 57.2329,
      "duration": 0.1148,
      "velocity": 127,
      "chip": "ym2612"
    },
    {
      "channel": 5,
      "note": 52,
      "start": 57.2362,
      "duration": 0.1072,
      "velocity": 115,
      "chip": "ym2612"
    },
    {
      "channel": 4,
      "note": 52,
      "start": 57.3483,
      "duration": 0.1171,
      "velocity": 127,
      "chip": "ym2612"
    },
    {
      "channel": 5,
      "note": 52,
      "start": 57.3517,
      "duration": 0.1084,
      "velocity": 115,
      "chip": "ym2612"
    },
    {
      "channel": 0,
      "note": 80,
      "start": 57.4633,
      "duration": 0.7635,
      "velocity": 105,
      "chip": "ym2612"
    },
    {
      "channel": 1,
      "note": 61,
      "start": 57.464,
      "duration": 0.1797,
      "velocity": 97,
      "chip": "ym2612"
    },
    {
      "channel": 2,
      "note": 77,
      "start": 57.4649,
      "duration": 0.1791,
      "velocity": 97,
      "chip": "ym2612"
    },
    {
      "channel": 4,
      "note": 52,
      "start": 57.4661,
      "duration": 0.0627,
      "velocity": 127,
      "chip": "ym2612"
    },
    {
      "channel": 5,
      "note": 51,
      "start": 57.4695,
      "duration": 0.2405,
      "velocity": 117,
      "chip": "ym2612"
    },
    {
      "channel": 4,
      "note": 52,
      "start": 57.5296,
      "duration": 0.066,
      "velocity": 127,
      "chip": "ym2612"
    },
    {
      "channel": 4,
      "note": 52,
      "start": 57.5962,
      "duration": 0.1187,
      "velocity": 127,
      "chip": "ym2612"
    },
    {
      "channel": 3,
      "note": 80,
      "start": 57.6289,
      "duration": 0.7658,
      "velocity": 105,
      "chip": "ym2612"
    },
    {
      "channel": 1,
      "note": 61,
      "start": 57.7135,
      "duration": 0.1805,
      "velocity": 97,
      "chip": "ym2612"
    },
    {
      "channel": 2,
      "note": 78,
      "start": 57.7144,
      "duration": 0.1798,
      "velocity": 97,
      "chip": "ym2612"
    },
    {
      "channel": 4,
      "note": 52,
      "start": 57.7156,
      "duration": 0.1129,
      "velocity": 127,
      "chip": "ym2612"
    },
    {
      "channel": 5,
      "note": 52,
      "start": 57.7189,
      "duration": 0.2245,
      "velocity": 115,
      "chip": "ym2612"
    },
    {
      "channel": 4,
      "note": 52,
      "start": 57.8293,
      "duration": 0.1195,
      "velocity": 127,
      "chip": "ym2612"
    },
    {
      "channel": 1,
      "note": 61,
      "start": 57.947,
      "duration": 0.1803,
      "velocity": 97,
      "chip": "ym2612"
    },
    {
      "channel": 2,
      "note": 80,
      "start": 57.9478,
      "duration": 0.1796,
      "velocity": 97,
      "chip": "ym2612"
    },
    {
      "channel": 4,
      "note": 52,
      "start": 57.9495,
      "duration": 0.2494,
      "velocity": 127,
      "chip": "ym2612"
    },
    {
      "channel": 5,
      "note": 45,
      "start": 57.9529,
      "duration": 0.2406,
      "velocity": 122,
      "chip": "ym2612"
    },
    {
      "channel": 1,
      "note": 61,
      "start": 58.197,
      "duration": 0.1802,
      "velocity": 97,
      "chip": "ym2612"
    },
    {
      "channel": 2,
      "note": 85,
      "start": 58.1978,
      "duration": 0.1795,
      "velocity": 97,
      "chip": "ym2612"
    },
    {
      "channel": 4,
      "note": 52,
      "start": 58.1995,
      "duration": 0.1121,
      "velocity": 127,
      "chip": "ym2612"
    },
    {
      "channel": 5,
      "note": 52,
      "start": 58.2029,
      "duration": 0.2242,
      "velocity": 115,
      "chip": "ym2612"
    },
    {
      "channel": 4,
      "note": 52,
      "start": 58.3124,
      "duration": 0.1213,
      "velocity": 127,
      "chip": "ym2612"
    },
    {
      "channel": 0,
      "note": 78,
      "start": 58.4304,
      "duration": 0.3631,
      "velocity": 105,
      "chip": "ym2612"
    },
    {
      "channel": 1,
      "note": 54,
      "start": 58.4315,
      "duration": 0.1791,
      "velocity": 97,
      "chip": "ym2612"
    },
    {
      "channel": 2,
      "note": 78,
      "start": 58.4327,
      "duration": 0.178,
      "velocity": 97,
      "chip": "ym2612"
    },
    {
      "channel": 4,
      "note": 52,
      "start": 58.4344,
      "duration": 0.2478,
      "velocity": 127,
      "chip": "ym2612"
    },
    {
      "channel": 5,
      "note": 51,
      "start": 58.4377,
      "duration": 0.239,
      "velocity": 117,
      "chip": "ym2612"
    },
    {
      "channel": 3,
      "note": 78,
      "start": 58.5956,
      "duration": 0.3658,
      "velocity": 105,
      "chip": "ym2612"
    },
    {
      "channel": 1,
      "note": 54,
      "start": 58.6804,
      "duration": 0.4827,
      "velocity": 97,
      "chip": "ym2612"
    },
    {
      "channel": 2,
      "note": 73,
      "start": 58.6812,
      "duration": 0.1797,
      "velocity": 97,
      "chip": "ym2612"
    },
    {
      "channel": 4,
      "note": 52,
      "start": 58.6829,
      "duration": 0.112,
      "velocity": 127,
      "chip": "ym2612"
    },
    {
      "channel": 5,
      "note": 52,
      "start": 58.6862,
      "duration": 0.2238,
      "velocity": 115,
      "chip": "ym2612"
    },
    {
      "channel": 4,
      "note": 52,
      "start": 58.7956,
      "duration": 0.1202,
      "velocity": 127,
      "chip": "ym2612"
    },
    {
      "channel": 0,
      "note": 82,
      "start": 58.9132,
      "duration": 0.3662,
      "velocity": 105,
      "chip": "ym2612"
    },
    {
      "channel": 2,
      "note": 70,
      "start": 58.9147,
      "duration": 0.1793,
      "velocity": 97,
      "chip": "ym2612"
    },
    {
      "channel": 4,
      "note": 52,
      "start": 58.9165,
      "duration": 0.249,
      "velocity": 127,
      "chip": "ym2612"
    },
    {
      "channel": 5,
      "note": 45,
      "start": 58.9198,
      "duration": 0.2403,
      "velocity": 122,
      "chip": "ym2612"
    },
    {
      "channel": 3,
      "note": 82,
      "start": 59.0789,
      "duration": 0.3656,
      "velocity": 105,
      "chip": "ym2612"
    },
    {
      "channel": 1,
      "note": 54,
      "start": 59.1637,
      "duration": 0.1803,
      "velocity": 97,
      "chip": "ym2612"
    },
    {
      "channel": 2,
      "note": 78,
      "start": 59.1645,
      "duration": 0.1796,
      "velocity": 97,
      "chip": "ym2612"
    },
    {
      "channel": 4,
      "note": 52,
      "start": 59.1661,
      "duration": 0.1145,
      "velocity": 127,
      "chip": "ym2612"
    },
    {
      "channel": 5,
      "note": 52,
      "start": 59.1695,
      "duration": 0.1073,
      "velocity": 115,
      "chip": "ym2612"
    },
    {
      "channel": 4,
      "note": 52,
      "start": 59.2813,
      "duration": 0.1171,
      "velocity": 127,
      "chip": "ym2612"
    },
    {
      "channel": 5,
      "note": 52,
      "start": 59.2847,
      "duration": 0.1087,
      "velocity": 115,
      "chip": "ym2612"
    },
    {
      "channel": 0,
      "note": 90,
      "start": 59.3967,
      "duration": 0.3635,
      "velocity": 105,
      "chip": "ym2612"
    },
    {
      "channel": 2,
      "note": 82,
      "start": 59.3978,
      "duration": 0.1796,
      "velocity": 97,
      "chip": "ym2612"
    },
    {
      "channel": 4,
      "note": 52,
      "start": 59.3991,
      "duration": 0.0632,
      "velocity": 127,
      "chip": "ym2612"
    },
    {
      "channel": 5,
      "note": 51,
      "start": 59.4025,
      "duration": 0.2408,
      "velocity": 117,
      "chip": "ym2612"
    },
    {
      "channel": 4,
      "note": 52,
      "start": 59.4629,
      "duration": 0.0491,
      "velocity": 127,
      "chip": "ym2612"
    },
    {
      "channel": 4,
      "note": 52,
      "start": 59.5127,
      "duration": 0.1356,
      "velocity": 127,
      "chip": "ym2612"
    },
    {
      "channel": 3,
      "note": 90,
      "start": 59.5622,
      "duration": 0.3658,
      "velocity": 105,
      "chip": "ym2612"
    },
    {
      "channel": 1,
      "note": 54,
      "start": 59.6468,
      "duration": 0.1805,
      "velocity": 97,
      "chip": "ym2612"
    },
    {
      "channel": 2,
      "note": 78,
      "start": 59.6476,
      "duration": 0.1798,
      "velocity": 97,
      "chip": "ym2612"
    },
    {
      "channel": 4,
      "note": 52,
      "start": 59.6489,
      "duration": 0.1127,
      "velocity": 127,
      "chip": "ym2612"
    },
    {
      "channel": 5,
      "note": 52,
      "start": 59.6523,
      "duration": 0.2245,
      "velocity": 115,
      "chip": "ym2612"
    },
    {
      "channel": 4,
      "note": 52,
      "start": 59.7623,
      "duration": 0.1198,
      "velocity": 127,
      "chip": "ym2612"
    },
    {
      "channel": 0,
      "note": 85,
      "start": 59.88,
      "duration": 0.3633,
      "velocity": 105,
      "chip": "ym2612"
    },
    {
      "channel": 2,
      "note": 73,
      "start": 59.8812,
      "duration": 0.1798,
      "velocity": 97,
      "chip": "ym2612"
    },
    {
      "channel": 4,
      "note": 52,
      "start": 59.8828,
      "duration": 0.2493,
      "velocity": 127,
      "chip": "ym2612"
    },
    {
      "channel": 5,
      "note": 45,
      "start": 59.8862,
      "duration": 0.2406,
      "velocity": 122,
      "chip": "ym2612"
    },
    {
      "channel": 3,
      "note": 85,
      "start": 60.0454,
      "duration": 0.366,
      "velocity": 105,
      "chip": "ym2612"
    },
    {
      "channel": 1,
      "note": 49,
      "start": 60.1303,
      "duration": 0.1801,
      "velocity": 97,
      "chip": "ym2612"
    },
    {
      "channel": 2,
      "note": 78,
      "start": 60.1312,
      "duration": 0.1794,
      "velocity": 97,
      "chip": "ym2612"
    },
    {
      "channel": 4,
      "note": 52,
      "start": 60.1328,
      "duration": 0.1119,
      "velocity": 127,
      "chip": "ym2612"
    },
    {
      "channel": 5,
      "note": 52,
      "start": 60.1361,
      "duration": 0.2243,
      "velocity": 115,
      "chip": "ym2612"
    },
    {
      "channel": 4,
      "note": 52,
      "start": 60.2454,
      "duration": 0.1208,
      "velocity": 127,
      "chip": "ym2612"
    },
    {
      "channel": 0,
      "note": 87,
      "start": 60.3637,
      "duration": 0.3632,
      "velocity": 105,
      "chip": "ym2612"
    },
    {
      "channel": 1,
      "note": 51,
      "start": 60.3644,
      "duration": 0.1796,
      "velocity": 97,
      "chip": "ym2612"
    },
    {
      "channel": 2,
      "note": 75,
      "start": 60.3652,
      "duration": 0.1789,
      "velocity": 97,
      "chip": "ym2612"
    },
    {
      "channel": 4,
      "note": 52,
      "start": 60.3669,
      "duration": 0.2485,
      "velocity": 127,
      "chip": "ym2612"
    },
    {
      "channel": 5,
      "note": 51,
      "start": 60.3702,
      "duration": 0.2399,
      "velocity": 117,
      "chip": "ym2612"
    },
    {
      "channel": 3,
      "note": 87,
      "start": 60.5289,
      "duration": 0.3658,
      "velocity": 105,
      "chip": "ym2612"
    },
    {
      "channel": 1,
      "note": 51,
      "start": 60.6137,
      "duration": 0.1803,
      "velocity": 97,
      "chip": "ym2612"
    },
    {
      "channel": 2,
      "note": 78,
      "start": 60.6145,
      "duration": 0.1796,
      "velocity": 97,
      "chip": "ym2612"
    },
    {
      "channel": 4,
      "note": 52,
      "start": 60.6161,
      "duration": 0.1121,
      "velocity": 127,
      "chip": "ym2612"
    },
    {
      "channel": 5,
      "note": 52,
      "start": 60.6195,
      "duration": 0.2239,
      "velocity": 115,
      "chip": "ym2612"
    },
    {
      "channel": 4,
      "note": 52,
      "start": 60.7289,
      "duration": 0.1201,
      "velocity": 127,
      "chip": "ym2612"
    },
    {
      "channel": 0,
      "note": 87,
      "start": 60.8465,
      "duration": 0.3662,
      "velocity": 105,
      "chip": "ym2612"
    },
    {
      "channel": 1,
      "note": 53,
      "start": 60.8472,
      "duration": 0.1801,
      "velocity": 97,
      "chip": "ym2612"
    },
    {
      "channel": 2,
      "note": 82,
      "start": 60.8481,
      "duration": 0.1793,
      "velocity": 97,
      "chip": "ym2612"
    },
    {
      "channel": 4,
      "note": 52,
      "start": 60.8497,
      "duration": 0.249,
      "velocity": 127,
      "chip": "ym2612"
    },
    {
      "channel": 5,
      "note": 45,
      "start": 60.853,
      "duration": 0.2404,
      "velocity": 122,
      "chip": "ym2612"
    },
    {
      "channel": 3,
      "note": 87,
      "start": 61.0122,
      "duration": 0.3656,
      "velocity": 105,
      "chip": "ym2612"
    },
    {
      "channel": 1,
      "note": 54,
      "start": 61.097,
      "duration": 0.1804,
      "velocity": 97,
      "chip": "ym2612"
    },
    {
      "channel": 2,
      "note": 78,
      "start": 61.0978,
      "duration": 0.1797,
      "velocity": 97,
      "chip": "ym2612"
    },
    {
      "channel": 4,
      "note": 52,
      "start": 61.0995,
      "duration": 0.1145,
      "velocity": 127,
      "chip": "ym2612"
    },
    {
      "channel": 5,
      "note": 52,
      "start": 61.1028,
      "duration": 0.1073,
      "velocity": 115,
      "chip": "ym2612"
    },
    {
      "channel": 4,
      "note": 52,
      "start": 61.2147,
      "duration": 0.1171,
      "velocity": 127,
      "chip": "ym2612"
    },
    {
      "channel": 5,
      "note": 52,
      "start": 61.218,
      "duration": 0.1087,
      "velocity": 115,
      "chip": "ym2612"
    },
    {
      "channel": 0,
      "note": 89,
      "start": 61.33,
      "duration": 0.3635,
      "velocity": 105,
      "chip": "ym2612"
    },
    {
      "channel": 2,
      "note": 78,
      "start": 61.3312,
      "duration": 0.1796,
      "velocity": 97,
      "chip": "ym2612"
    },
    {
      "channel": 4,
      "note": 52,
      "start": 61.3324,
      "duration": 0.0632,
      "velocity": 127,
      "chip": "ym2612"
    },
    {
      "channel": 5,
      "note": 51,
      "start": 61.3358,
      "duration": 0.2408,
      "velocity": 117,
      "chip": "ym2612"
    },
    {
      "channel": 4,
      "note": 52,
      "start": 61.3962,
      "duration": 0.0491,
      "velocity": 127,
      "chip": "ym2612"
    },
    {
      "channel": 4,
      "note": 52,
      "start": 61.446,
      "duration": 0.1356,
      "velocity": 127,
      "chip": "ym2612"
    },
    {
      "channel": 3,
      "note": 89,
      "start": 61.4955,
      "duration": 0.3658,
      "velocity": 105,
      "chip": "ym2612"
    },
    {
      "channel": 1,
      "note": 56,
      "start": 61.5801,
      "duration": 0.1806,
      "velocity": 97,
      "chip": "ym2612"
    },
    {
      "channel": 2,
      "note": 80,
      "start": 61.581,
      "duration": 0.1799,
      "velocity": 97,
      "chip": "ym2612"
    },
    {
      "channel": 4,
      "note": 52,
      "start": 61.5822,
      "duration": 0.1127,
      "velocity": 127,
      "chip": "ym2612"
    },
    {
      "channel": 5,
      "note": 52,
      "start": 61.5856,
      "duration": 0.2245,
      "velocity": 115,
      "chip": "ym2612"
    },
    {
      "channel": 4,
      "note": 52,
      "start": 61.6956,
      "duration": 0.1198,
      "velocity": 127,
      "chip": "ym2612"
    },
    {
      "channel": 0,
      "note": 90,
      "start": 61.8133,
      "duration": 0.3633,
      "velocity": 105,
      "chip": "ym2612"
    },
    {
      "channel": 2,
      "note": 82,
      "start": 61.8145,
      "duration": 0.1798,
      "velocity": 97,
      "chip": "ym2612"
    },
    {
      "channel": 4,
      "note": 52,
      "start": 61.8161,
      "duration": 0.2493,
      "velocity": 127,
      "chip": "ym2612"
    },
    {
      "channel": 5,
      "note": 45,
      "start": 61.8195,
      "duration": 0.2406,
      "velocity": 122,
      "chip": "ym2612"
    },
    {
      "channel": 3,
      "note": 90,
      "start": 61.9787,
      "duration": 0.3661,
      "velocity": 105,
      "chip": "ym2612"
    },
    {
      "channel": 1,
      "note": 51,
      "start": 62.0637,
      "duration": 0.1802,
      "velocity": 97,
      "chip": "ym2612"
    },
    {
      "channel": 2,
      "note": 83,
      "start": 62.0645,
      "duration": 0.1795,
      "velocity": 97,
      "chip": "ym2612"
    },
    {
      "channel": 4,
      "note": 52,
      "start": 62.0661,
      "duration": 0.1119,
      "velocity": 127,
      "chip": "ym2612"
    },
    {
      "channel": 5,
      "note": 52,
      "start": 62.0695,
      "duration": 0.2242,
      "velocity": 115,
      "chip": "ym2612"
    },
    {
      "channel": 4,
      "note": 52,
      "start": 62.1787,
      "duration": 0.1212,
      "velocity": 127,
      "chip": "ym2612"
    },
    {
      "channel": 0,
      "note": 90,
      "start": 62.2971,
      "duration": 1.1797,
      "velocity": 105,
      "chip": "ym2612"
    },
    {
      "channel": 1,
      "note": 58,
      "start": 62.2981,
      "duration": 0.1792,
      "velocity": 97,
      "chip": "ym2612"
    },
    {
      "channel": 2,
      "note": 85,
      "start": 62.2989,
      "duration": 0.1785,
      "velocity": 97,
      "chip": "ym2612"
    },
    {
      "channel": 4,
      "note": 52,
      "start": 62.3006,
      "duration": 0.2482,
      "velocity": 127,
      "chip": "ym2612"
    },
    {
      "channel": 5,
      "note": 51,
      "start": 62.3039,
      "duration": 0.2395,
      "velocity": 117,
      "chip": "ym2612"
    },
    {
      "channel": 3,
      "note": 90,
      "start": 62.4624,
      "duration": 1.1821,
      "velocity": 105,
      "chip": "ym2612"
    },
    {
      "channel": 1,
      "note": 58,
      "start": 62.547,
      "duration": 0.1805,
      "velocity": 97,
      "chip": "ym2612"
    },
    {
      "channel": 2,
      "note": 77,
      "start": 62.5478,
      "duration": 0.1798,
      "velocity": 97,
      "chip": "ym2612"
    },
    {
      "channel": 4,
      "note": 52,
      "start": 62.5495,
      "duration": 0.1124,
      "velocity": 127,
      "chip": "ym2612"
    },
    {
      "channel": 5,
      "note": 52,
      "start": 62.5528,
      "duration": 0.2239,
      "velocity": 115,
      "chip": "ym2612"
    },
    {
      "channel": 4,
      "note": 52,
      "start": 62.6626,
      "duration": 0.1194,
      "velocity": 127,
      "chip": "ym2612"
    },
    {
      "channel": 1,
      "note": 58,
      "start": 62.7801,
      "duration": 0.1805,
      "velocity": 97,
      "chip": "ym2612"
    },
    {
      "channel": 2,
      "note": 85,
      "start": 62.781,
      "duration": 0.1798,
      "velocity": 97,
      "chip": "ym2612"
    },
    {
      "channel": 4,
      "note": 52,
      "start": 62.7827,
      "duration": 0.2495,
      "velocity": 127,
      "chip": "ym2612"
    },
    {
      "channel": 5,
      "note": 45,
      "start": 62.786,
      "duration": 0.2408,
      "velocity": 122,
      "chip": "ym2612"
    },
    {
      "channel": 1,
      "note": 58,
      "start": 63.0303,
      "duration": 0.1804,
      "velocity": 97,
      "chip": "ym2612"
    },
    {
      "channel": 2,
      "note": 82,
      "start": 63.0312,
      "duration": 0.1797,
      "velocity": 97,
      "chip": "ym2612"
    },
    {
      "channel": 4,
      "note": 52,
      "start": 63.0329,
      "duration": 0.1148,
      "velocity": 127,
      "chip": "ym2612"
    },
    {
      "channel": 5,
      "note": 52,
      "start": 63.0362,
      "duration": 0.1072,
      "velocity": 115,
      "chip": "ym2612"
    },
    {
      "channel": 4,
      "note": 52,
      "start": 63.1483,
      "duration": 0.1168,
      "velocity": 127,
      "chip": "ym2612"
    },
    {
      "channel": 5,
      "note": 52,
      "start": 63.1516,
      "duration": 0.1085,
      "velocity": 115,
      "chip": "ym2612"
    },
    {
      "channel": 1,
      "note": 59,
      "start": 63.2637,
      "duration": 0.18,
      "velocity": 97,
      "chip": "ym2612"
    },
    {
      "channel": 2,
      "note": 83,
      "start": 63.2646,
      "duration": 0.1793,
      "velocity": 97,
      "chip": "ym2612"
    },
    {
      "channel": 4,
      "note": 52,
      "start": 63.2658,
      "duration": 0.0631,
      "velocity": 127,
      "chip": "ym2612"
    },
    {
      "channel": 5,
      "note": 51,
      "start": 63.2692,
      "duration": 0.2408,
      "velocity": 117,
      "chip": "ym2612"
    },
    {
      "channel": 4,
      "note": 52,
      "start": 63.3296,
      "duration": 0.049,
      "velocity": 127,
      "chip": "ym2612"
    },
    {
      "channel": 4,
      "note": 52,
      "start": 63.3794,
      "duration": 0.1356,
      "velocity": 127,
      "chip": "ym2612"
    },
    {
      "channel": 1,
      "note": 59,
      "start": 63.5135,
      "duration": 0.1806,
      "velocity": 97,
      "chip": "ym2612"
    },
    {
      "channel": 2,
      "note": 78,
      "start": 63.5143,
      "duration": 0.1799,
      "velocity": 97,
      "chip": "ym2612"
    },
    {
      "channel": 4,
      "note": 52,
      "start": 63.5156,
      "duration": 0.1129,
      "velocity": 127,
      "chip": "ym2612"
    },
    {
      "channel": 5,
      "note": 52,
      "start": 63.5189,
      "duration": 0.2245,
      "velocity": 115,
      "chip": "ym2612"
    },
    {
      "channel": 4,
      "note": 52,
      "start": 63.6293,
      "duration": 0.12,
      "velocity": 127,
      "chip": "ym2612"
    },
    {
      "channel": 0,
      "note": 90,
      "start": 63.7467,
      "duration": 0.1801,
      "velocity": 105,
      "chip": "ym2612"
    },
    {
      "channel": 1,
      "note": 59,
      "start": 63.7474,
      "duration": 0.1795,
      "velocity": 97,
      "chip": "ym2612"
    },
    {
      "channel": 2,
      "note": 75,
      "start": 63.7483,
      "duration": 0.1789,
      "velocity": 97,
      "chip": "ym2612"
    },
    {
      "channel": 4,
      "note": 52,
      "start": 63.7499,
      "duration": 0.2492,
      "velocity": 127,
      "chip": "ym2612"
    },
    {
      "channel": 5,
      "note": 45,
      "start": 63.7533,
      "duration": 0.2401,
      "velocity": 122,
      "chip": "ym2612"
    },
    {
      "channel": 3,
      "note": 90,
      "start": 63.9121,
      "duration": 0.1826,
      "velocity": 105,
      "chip": "ym2612"
    },
    {
      "channel": 0,
      "note": 92,
      "start": 63.9967,
      "duration": 0.1801,
      "velocity": 105,
      "chip": "ym2612"
    },
    {
      "channel": 1,
      "note": 59,
      "start": 63.9974,
      "duration": 0.1795,
      "velocity": 97,
      "chip": "ym2612"
    },
    {
      "channel": 2,
      "note": 71,
      "start": 63.9982,
      "duration": 0.1789,
      "velocity": 97,
      "chip": "ym2612"
    },
    {
      "channel": 4,
      "note": 52,
      "start": 63.9999,
      "duration": 0.1118,
      "velocity": 127,
      "chip": "ym2612"
    },
    {
      "channel": 5,
      "note": 52,
      "start": 64.0032,
      "duration": 0.2239,
      "velocity": 115,
      "chip": "ym2612"
    },
    {
      "channel": 4,
      "note": 52,
      "start": 64.1123,
      "duration": 0.1207,
      "velocity": 127,
      "chip": "ym2612"
    },
    {
      "channel": 3,
      "note": 92,
      "start": 64.1454,
      "duration": 0.1826,
      "velocity": 105,
      "chip": "ym2612"
    },
    {
      "channel": 0,
      "note": 94,
      "start": 64.2304,
      "duration": 0.7631,
      "velocity": 105,
      "chip": "ym2612"
    },
    {
      "channel": 1,
      "note": 60,
      "start": 64.2311,
      "duration": 0.1795,
      "velocity": 97,
      "chip": "ym2612"
    },
    {
      "channel": 2,
      "note": 70,
      "start": 64.2319,
      "duration": 0.1788,
      "velocity": 97,
      "chip": "ym2612"
    },
    {
      "channel": 4,
      "note": 52,
      "start": 64.2336,
      "duration": 0.2319,
      "velocity": 127,
      "chip": "ym2612"
    },
    {
      "channel": 5,
      "note": 51,
      "start": 64.237,
      "duration": 0.2231,
      "velocity": 117,
      "chip": "ym2612"
    },
    {
      "channel": 3,
      "note": 94,
      "start": 64.3957,
      "duration": 0.7657,
      "velocity": 105,
      "chip": "ym2612"
    },
    {
      "channel": 1,
      "note": 60,
      "start": 64.4637,
      "duration": 0.1801,
      "velocity": 97,
      "chip": "ym2612"
    },
    {
      "channel": 2,
      "note": 70,
      "start": 64.4645,
      "duration": 0.1794,
      "velocity": 97,
      "chip": "ym2612"
    },
    {
      "channel": 4,
      "note": 52,
      "start": 64.4662,
      "duration": 0.129,
      "velocity": 127,
      "chip": "ym2612"
    },
    {
      "channel": 5,
      "note": 52,
      "start": 64.4695,
      "duration": 0.2405,
      "velocity": 115,
      "chip": "ym2612"
    },
    {
      "channel": 4,
      "note": 52,
      "start": 64.5959,
      "duration": 0.1194,
      "velocity": 127,
      "chip": "ym2612"
    },
    {
      "channel": 1,
      "note": 60,
      "start": 64.7135,
      "duration": 0.1805,
      "velocity": 97,
      "chip": "ym2612"
    },
    {
      "channel": 2,
      "note": 72,
      "start": 64.7143,
      "duration": 0.1798,
      "velocity": 97,
      "chip": "ym2612"
    },
    {
      "channel": 4,
      "note": 52,
      "start": 64.7159,
      "duration": 0.2328,
      "velocity": 127,
      "chip": "ym2612"
    },
    {
      "channel": 5,
      "note": 45,
      "start": 64.7193,
      "duration": 0.2241,
      "velocity": 122,
      "chip": "ym2612"
    },
    {
      "channel": 1,
      "note": 60,
      "start": 64.947,
      "duration": 0.1803,
      "velocity": 97,
      "chip": "ym2612"
    },
    {
      "channel": 2,
      "note": 76,
      "start": 64.9478,
      "duration": 0.1796,
      "velocity": 97,
      "chip": "ym2612"
    },
    {
      "channel": 4,
      "note": 52,
      "start": 64.9495,
      "duration": 0.1315,
      "velocity": 127,
      "chip": "ym2612"
    },
    {
      "channel": 5,
      "note": 52,
      "start": 64.9528,
      "duration": 0.124,
      "velocity": 115,
      "chip": "ym2612"
    },
    {
      "channel": 4,
      "note": 52,
      "start": 65.0817,
      "duration": 0.1171,
      "velocity": 127,
      "chip": "ym2612"
    },
    {
      "channel": 5,
      "note": 52,
      "start": 65.085,
      "duration": 0.1084,
      "velocity": 115,
      "chip": "ym2612"
    },
    {
      "channel": 0,
      "note": 92,
      "start": 65.1967,
      "duration": 0.7635,
      "velocity": 105,
      "chip": "ym2612"
    },
    {
      "channel": 1,
      "note": 61,
      "start": 65.1974,
      "duration": 0.1797,
      "velocity": 97,
      "chip": "ym2612"
    },
    {
      "channel": 2,
      "note": 77,
      "start": 65.1982,
      "duration": 0.1791,
      "velocity": 97,
      "chip": "ym2612"
    },
    {
      "channel": 4,
      "note": 52,
      "start": 65.1995,
      "duration": 0.0627,
      "velocity": 127,
      "chip": "ym2612"
    },
    {
      "channel": 5,
      "note": 51,
      "start": 65.2029,
      "duration": 0.2239,
      "velocity": 117,
      "chip": "ym2612"
    },
    {
      "channel": 4,
      "note": 52,
      "start": 65.2629,
      "duration": 0.0492,
      "velocity": 127,
      "chip": "ym2612"
    },
    {
      "channel": 4,
      "note": 52,
      "start": 65.3128,
      "duration": 0.119,
      "velocity": 127,
      "chip": "ym2612"
    },
    {
      "channel": 3,
      "note": 92,
      "start": 65.3622,
      "duration": 0.7658,
      "velocity": 105,
      "chip": "ym2612"
    },
    {
      "channel": 1,
      "note": 61,
      "start": 65.4303,
      "duration": 0.1803,
      "velocity": 97,
      "chip": "ym2612"
    },
    {
      "channel": 2,
      "note": 78,
      "start": 65.4312,
      "duration": 0.1796,
      "velocity": 97,
      "chip": "ym2612"
    },
    {
      "channel": 4,
      "note": 52,
      "start": 65.4324,
      "duration": 0.1295,
      "velocity": 127,
      "chip": "ym2612"
    },
    {
      "channel": 5,
      "note": 52,
      "start": 65.4358,
      "duration": 0.241,
      "velocity": 115,
      "chip": "ym2612"
    },
    {
      "channel": 4,
      "note": 52,
      "start": 65.5626,
      "duration": 0.1195,
      "velocity": 127,
      "chip": "ym2612"
    },
    {
      "channel": 1,
      "note": 61,
      "start": 65.6803,
      "duration": 0.1803,
      "velocity": 97,
      "chip": "ym2612"
    },
    {
      "channel": 2,
      "note": 80,
      "start": 65.6812,
      "duration": 0.1796,
      "velocity": 97,
      "chip": "ym2612"
    },
    {
      "channel": 4,
      "note": 52,
      "start": 65.6828,
      "duration": 0.2325,
      "velocity": 127,
      "chip": "ym2612"
    },
    {
      "channel": 5,
      "note": 45,
      "start": 65.6862,
      "duration": 0.2238,
      "velocity": 122,
      "chip": "ym2612"
    },
    {
      "channel": 1,
      "note": 61,
      "start": 65.9135,
      "duration": 0.1804,
      "velocity": 97,
      "chip": "ym2612"
    },
    {
      "channel": 2,
      "note": 85,
      "start": 65.9144,
      "duration": 0.1797,
      "velocity": 97,
      "chip": "ym2612"
    },
    {
      "channel": 4,
      "note": 52,
      "start": 65.916,
      "duration": 0.129,
      "velocity": 127,
      "chip": "ym2612"
    },
    {
      "channel": 5,
      "note": 52,
      "start": 65.9193,
      "duration": 0.2412,
      "velocity": 115,
      "chip": "ym2612"
    },
    {
      "channel": 4,
      "note": 52,
      "start": 66.0457,
      "duration": 0.1211,
      "velocity": 127,
      "chip": "ym2612"
    },
    {
      "channel": 0,
      "note": 90,
      "start": 66.1638,
      "duration": 3.3822,
      "velocity": 105,
      "chip": "ym2612"
    },
    {
      "channel": 1,
      "note": 54,
      "start": 66.1647,
      "duration": 0.1793,
      "velocity": 97,
      "chip": "ym2612"
    },
    {
      "channel": 2,
      "note": 78,
      "start": 66.1658,
      "duration": 0.3619,
      "velocity": 97,
      "chip": "ym2612"
    },
    {
      "channel": 4,
      "note": 52,
      "start": 66.1675,
      "duration": 0.2312,
      "velocity": 127,
      "chip": "ym2612"
    },
    {
      "channel": 5,
      "note": 51,
      "start": 66.1708,
      "duration": 0.2226,
      "velocity": 117,
      "chip": "ym2612"
    },
    {
      "channel": 3,
      "note": 90,
      "start": 66.3289,
      "duration": 3.3658,
      "velocity": 105,
      "chip": "ym2612"
    },
    {
      "channel": 1,
      "note": 54,
      "start": 66.3972,
      "duration": 0.1799,
      "velocity": 97,
      "chip": "ym2612"
    },
    {
      "channel": 4,
      "note": 52,
      "start": 66.3993,
      "duration": 0.1289,
      "velocity": 127,
      "chip": "ym2612"
    },
    {
      "channel": 5,
      "note": 52,
      "start": 66.4027,
      "duration": 0.2407,
      "velocity": 115,
      "chip": "ym2612"
    },
    {
      "channel": 4,
      "note": 52,
      "start": 66.5289,
      "duration": 0.1198,
      "velocity": 127,
      "chip": "ym2612"
    },
    {
      "channel": 1,
      "note": 54,
      "start": 66.647,
      "duration": 0.1803,
      "velocity": 97,
      "chip": "ym2612"
    },
    {
      "channel": 2,
      "note": 66,
      "start": 66.6478,
      "duration": 0.3656,
      "velocity": 97,
      "chip": "ym2612"
    },
    {
      "channel": 4,
      "note": 52,
      "start": 66.6495,
      "duration": 0.2324,
      "velocity": 127,
      "chip": "ym2612"
    },
    {
      "channel": 5,
      "note": 45,
      "start": 66.6529,
      "duration": 0.2239,
      "velocity": 122,
      "chip": "ym2612"
    },
    {
      "channel": 1,
      "note": 54,
      "start": 66.8805,
      "duration": 0.1802,
      "velocity": 97,
      "chip": "ym2612"
    },
    {
      "channel": 4,
      "note": 52,
      "start": 66.8826,
      "duration": 0.1314,
      "velocity": 127,
      "chip": "ym2612"
    },
    {
      "channel": 5,
      "note": 52,
      "start": 66.886,
      "duration": 0.1241,
      "velocity": 115,
      "chip": "ym2612"
    },
    {
      "channel": 4,
      "note": 52,
      "start": 67.0147,
      "duration": 0.1173,
      "velocity": 127,
      "chip": "ym2612"
    },
    {
      "channel": 5,
      "note": 52,
      "start": 67.018,
      "duration": 0.1088,
      "velocity": 115,
      "chip": "ym2612"
    },
    {
      "channel": 1,
      "note": 54,
      "start": 67.1305,
      "duration": 0.1799,
      "velocity": 97,
      "chip": "ym2612"
    },
    {
      "channel": 2,
      "note": 66,
      "start": 67.1313,
      "duration": 0.3629,
      "velocity": 97,
      "chip": "ym2612"
    },
    {
      "channel": 4,
      "note": 52,
      "start": 67.1326,
      "duration": 0.063,
      "velocity": 127,
      "chip": "ym2612"
    },
    {
      "channel": 5,
      "note": 51,
      "start": 67.136,
      "duration": 0.2241,
      "velocity": 117,
      "chip": "ym2612"
    },
    {
      "channel": 4,
      "note": 52,
      "start": 67.1963,
      "duration": 0.049,
      "velocity": 127,
      "chip": "ym2612"
    },
    {
      "channel": 4,
      "note": 52,
      "start": 67.246,
      "duration": 0.1189,
      "velocity": 127,
      "chip": "ym2612"
    },
    {
      "channel": 1,
      "note": 54,
      "start": 67.3638,
      "duration": 0.1802,
      "velocity": 97,
      "chip": "ym2612"
    },
    {
      "channel": 4,
      "note": 52,
      "start": 67.3656,
      "duration": 0.1293,
      "velocity": 127,
      "chip": "ym2612"
    },
    {
      "channel": 5,
      "note": 52,
      "start": 67.369,
      "duration": 0.2411,
      "velocity": 115,
      "chip": "ym2612"
    },
    {
      "channel": 4,
      "note": 52,
      "start": 67.4956,
      "duration": 0.12,
      "velocity": 127,
      "chip": "ym2612"
    },
    {
      "channel": 1,
      "note": 54,
      "start": 67.6138,
      "duration": 0.1802,
      "velocity": 97,
      "chip": "ym2612"
    },
    {
      "channel": 2,
      "note": 66,
      "start": 67.6146,
      "duration": 0.3628,
      "velocity": 97,
      "chip": "ym2612"
    },
    {
      "channel": 4,
      "note": 52,
      "start": 67.6163,
      "duration": 0.2321,
      "velocity": 127,
      "chip": "ym2612"
    },
    {
      "channel": 5,
      "note": 45,
      "start": 67.6196,
      "duration": 0.2237,
      "velocity": 122,
      "chip": "ym2612"
    },
    {
      "channel": 1,
      "note": 54,
      "start": 67.847,
      "duration": 0.1803,
      "velocity": 97,
      "chip": "ym2612"
    },
    {
      "channel": 4,
      "note": 52,
      "start": 67.8492,
      "duration": 0.1289,
      "velocity": 127,
      "chip": "ym2612"
    },
    {
      "channel": 5,
      "note": 52,
      "start": 67.8525,
      "duration": 0.2412,
      "velocity": 115,
      "chip": "ym2612"
    },
    {
      "channel": 4,
      "note": 52,
      "start": 67.9787,
      "duration": 0.1211,
      "velocity": 127,
      "chip": "ym2612"
    },
    {
      "channel": 1,
      "note": 54,
      "start": 68.0978,
      "duration": 0.3629,
      "velocity": 97,
      "chip": "ym2612"
    },
    {
      "channel": 2,
      "note": 66,
      "start": 68.0988,
      "duration": 0.1788,
      "velocity": 97,
      "chip": "ym2612"
    },
    {
      "channel": 4,
      "note": 52,
      "start": 68.1006,
      "duration": 0.2312,
      "velocity": 127,
      "chip": "ym2612"
    },
    {
      "channel": 5,
      "note": 51,
      "start": 68.1039,
      "duration": 0.2229,
      "velocity": 117,
      "chip": "ym2612"
    },
    {
      "channel": 2,
      "note": 66,
      "start": 68.3308,
      "duration": 0.18,
      "velocity": 97,
      "chip": "ym2612"
    },
    {
      "channel": 4,
      "note": 52,
      "start": 68.3325,
      "duration": 0.1292,
      "velocity": 127,
      "chip": "ym2612"
    },
    {
      "channel": 5,
      "note": 52,
      "start": 68.3358,
      "duration": 0.2408,
      "velocity": 115,
      "chip": "ym2612"
    },
    {
      "channel": 4,
      "note": 52,
      "start": 68.4624,
      "duration": 0.1197,
      "velocity": 127,
      "chip": "ym2612"
    },
    {
      "channel": 1,
      "note": 54,
      "start": 68.5801,
      "duration": 0.3663,
      "velocity": 97,
      "chip": "ym2612"
    },
    {
      "channel": 2,
      "note": 66,
      "start": 68.581,
      "duration": 0.3655,
      "velocity": 97,
      "chip": "ym2612"
    },
    {
      "channel": 4,
      "note": 52,
      "start": 68.5827,
      "duration": 0.2321,
      "velocity": 127,
      "chip": "ym2612"
    },
    {
      "channel": 5,
      "note": 45,
      "start": 68.5861,
      "duration": 0.224,
      "velocity": 122,
      "chip": "ym2612"
    },
    {
      "channel": 4,
      "note": 52,
      "start": 68.8154,
      "duration": 0.1317,
      "velocity": 127,
      "chip": "ym2612"
    },
    {
      "channel": 5,
      "note": 52,
      "start": 68.8188,
      "duration": 0.1247,
      "velocity": 115,
      "chip": "ym2612"
    },
    {
      "channel": 4,
      "note": 52,
      "start": 68.9478,
      "duration": 0.1175,
      "velocity": 127,
      "chip": "ym2612"
    },
    {
      "channel": 5,
      "note": 52,
      "start": 68.9512,
      "duration": 0.1089,
      "velocity": 115,
      "chip": "ym2612"
    },
    {
      "channel": 1,
      "note": 54,
      "start": 69.0638,
      "duration": 0.18,
      "velocity": 97,
      "chip": "ym2612"
    },
    {
      "channel": 2,
      "note": 66,
      "start": 69.0647,
      "duration": 0.1792,
      "velocity": 97,
      "chip": "ym2612"
    },
    {
      "channel": 4,
      "note": 52,
      "start": 69.0659,
      "duration": 0.0461,
      "velocity": 127,
      "chip": "ym2612"
    },
    {
      "channel": 5,
      "note": 51,
      "start": 69.0693,
      "duration": 0.2241,
      "velocity": 117,
      "chip": "ym2612"
    },
    {
      "channel": 4,
      "note": 52,
      "start": 69.1127,
      "duration": 0.066,
      "velocity": 127,
      "chip": "ym2612"
    },
    {
      "channel": 4,
      "note": 52,
      "start": 69.1794,
      "duration": 0.1191,
      "velocity": 127,
      "chip": "ym2612"
    },
    {
      "channel": 1,
      "note": 54,
      "start": 69.2969,
      "duration": 0.1804,
      "velocity": 97,
      "chip": "ym2612"
    },
    {
      "channel": 2,
      "note": 66,
      "start": 69.2978,
      "duration": 0.1797,
      "velocity": 97,
      "chip": "ym2612"
    },
    {
      "channel": 4,
      "note": 52,
      "start": 69.2991,
      "duration": 0.1295,
      "velocity": 127,
      "chip": "ym2612"
    },
    {
      "channel": 5,
      "note": 52,
      "start": 69.3025,
      "duration": 0.241,
      "velocity": 115,
      "chip": "ym2612"
    },
    {
      "channel": 4,
      "note": 52,
      "start": 69.4293,
      "duration": 0.12,
      "velocity": 127,
      "chip": "ym2612"
    },
    {
      "channel": 0,
      "note": 82,
      "start": 69.5467,
      "duration": 0.1801,
      "velocity": 105,
      "chip": "ym2612"
    },
    {
      "channel": 1,
      "note": 54,
      "start": 69.5474,
      "duration": 0.1795,
      "velocity": 97,
      "chip": "ym2612"
    },
    {
      "channel": 2,
      "note": 66,
      "start": 69.5483,
      "duration": 0.3624,
      "velocity": 97,
      "chip": "ym2612"
    },
    {
      "channel": 4,
      "note": 52,
      "start": 69.55,
      "duration": 0.232,
      "velocity": 127,
      "chip": "ym2612"
    },
    {
      "channel": 5,
      "note": 45,
      "start": 69.5534,
      "duration": 0.2233,
      "velocity": 122,
      "chip": "ym2612"
    },
    {
      "channel": 3,
      "note": 82,
      "start": 69.6955,
      "duration": 0.1825,
      "velocity": 105,
      "chip": "ym2612"
    },
    {
      "channel": 0,
      "note": 83,
      "start": 69.7798,
      "duration": 0.1803,
      "velocity": 105,
      "chip": "ym2612"
    },
    {
      "channel": 1,
      "note": 54,
      "start": 69.7805,
      "duration": 0.1798,
      "velocity": 97,
      "chip": "ym2612"
    },
    {
      "channel": 4,
      "note": 52,
      "start": 69.7827,
      "duration": 0.1287,
      "velocity": 127,
      "chip": "ym2612"
    },
    {
      "channel": 5,
      "note": 52,
      "start": 69.7861,
      "duration": 0.241,
      "velocity": 115,
      "chip": "ym2612"
    },
    {
      "channel": 4,
      "note": 52,
      "start": 69.9121,
      "duration": 0.1215,
      "velocity": 127,
      "chip": "ym2612"
    },
    {
      "channel": 3,
      "note": 83,
      "start": 69.9455,
      "duration": 0.0921,
      "velocity": 105,
      "chip": "ym2612"
    },
    {
      "channel": 0,
      "note": 85,
      "start": 70.0305,
      "duration": 0.0071,
      "velocity": 105,
      "chip": "ym2612"
    },
    {
      "channel": 1,
      "note": 54,
      "start": 70.0314,
      "duration": 0.0062,
      "velocity": 97,
      "chip": "ym2612"
    },
    {
      "channel": 2,
      "note": 78,
      "start": 70.0325,
      "duration": 0.0051,
      "velocity": 97,
      "chip": "ym2612"
    },
    {
      "channel": 4,
      "note": 52,
      "start": 70.0342,
      "duration": 0.0034,
      "velocity": 127,
      "chip": "ym2612"
    },
    {
      "channel": 5,
      "note": 51,
      "start": 70.0375,
      "duration": 0.0001,
      "velocity": 117,
      "chip": "ym2612"
    }
  ]
}