{
  "track_name": "09 - Boomin' Bump",
  "duration_sec": 53.949,
  "sample_rate": 44100,
  "note_count": 612,
  "unique_pitches": 44,
  "pitch_range": 49,
  "avg_note_duration": 0.1761,
  "reconstruction_stats": {
    "notes_reconstructed": 612,
    "keyon_events": 612,
    "keyoff_events": 611,
    "orphan_keyons": 1,
    "unique_pitches": 44,
    "pitch_range": 49,
    "avg_duration_sec": 0.1761
  },
  "metadata": {
    "source": "T\\ToeJam & Earl in Panic on Funkotron\\09 - Boomin' Bump.vgz"
  },
  "notes": [
    {
      "channel": 0,
      "note": 45,
      "start": 0.0,
      "duration": 0.402,
      "velocity": 118,
      "chip": "ym2612"
    },
    {
      "channel": 2,
      "note": 82,
      "start": 0.0529,
      "duration": 0.0206,
      "velocity": 85,
      "chip": "ym2612"
    },
    {
      "channel": 2,
      "note": 82,
      "start": 0.1054,
      "duration": 0.0802,
      "velocity": 85,
      "chip": "ym2612"
    },
    {
      "channel": 3,
      "note": 49,
      "start": 0.3555,
      "duration": 0.2466,
      "velocity": 125,
      "chip": "ym2612"
    },
    {
      "channel": 2,
      "note": 82,
      "start": 0.3583,
      "duration": 0.1772,
      "velocity": 85,
      "chip": "ym2612"
    },
    {
      "channel": 0,
      "note": 45,
      "start": 0.6222,
      "duration": 0.1909,
      "velocity": 118,
      "chip": "ym2612"
    },
    {
      "channel": 0,
      "note": 45,
      "start": 0.8828,
      "duration": 0.2742,
      "velocity": 118,
      "chip": "ym2612"
    },
    {
      "channel": 2,
      "note": 62,
      "start": 0.9206,
      "duration": 0.0398,
      "velocity": 96,
      "chip": "ym2612"
    },
    {
      "channel": 3,
      "note": 49,
      "start": 1.094,
      "duration": 0.1632,
      "velocity": 125,
      "chip": "ym2612"
    },
    {
      "channel": 0,
      "note": 45,
      "start": 1.6101,
      "duration": 0.0766,
      "velocity": 118,
      "chip": "ym2612"
    },
    {
      "channel": 2,
      "note": 82,
      "start": 1.6622,
      "duration": 0.0195,
      "velocity": 85,
      "chip": "ym2612"
    },
    {
      "channel": 0,
      "note": 45,
      "start": 1.7034,
      "duration": 0.106,
      "velocity": 118,
      "chip": "ym2612"
    },
    {
      "channel": 2,
      "note": 82,
      "start": 1.7095,
      "duration": 0.0337,
      "velocity": 85,
      "chip": "ym2612"
    },
    {
      "channel": 3,
      "note": 49,
      "start": 1.8128,
      "duration": 0.23,
      "velocity": 125,
      "chip": "ym2612"
    },
    {
      "channel": 2,
      "note": 82,
      "start": 1.8158,
      "duration": 0.1439,
      "velocity": 85,
      "chip": "ym2612"
    },
    {
      "channel": 0,
      "note": 45,
      "start": 2.0791,
      "duration": 0.291,
      "velocity": 118,
      "chip": "ym2612"
    },
    {
      "channel": 2,
      "note": 82,
      "start": 2.1733,
      "duration": 0.1471,
      "velocity": 85,
      "chip": "ym2612"
    },
    {
      "channel": 0,
      "note": 45,
      "start": 2.4399,
      "duration": 0.1267,
      "velocity": 118,
      "chip": "ym2612"
    },
    {
      "channel": 2,
      "note": 81,
      "start": 2.4466,
      "duration": 0.1317,
      "velocity": 104,
      "chip": "ym2612"
    },
    {
      "channel": 3,
      "note": 49,
      "start": 2.5365,
      "duration": 0.0786,
      "velocity": 125,
      "chip": "ym2612"
    },
    {
      "channel": 2,
      "note": 82,
      "start": 2.6225,
      "duration": 0.0006,
      "velocity": 85,
      "chip": "ym2612"
    },
    {
      "channel": 2,
      "note": 62,
      "start": 2.6254,
      "duration": 0.1345,
      "velocity": 96,
      "chip": "ym2612"
    },
    {
      "channel": 0,
      "note": 45,
      "start": 2.8131,
      "duration": 0.3905,
      "velocity": 118,
      "chip": "ym2612"
    },
    {
      "channel": 2,
      "note": 82,
      "start": 2.8659,
      "duration": 0.0193,
      "velocity": 85,
      "chip": "ym2612"
    },
    {
      "channel": 2,
      "note": 82,
      "start": 2.907,
      "duration": 0.0802,
      "velocity": 85,
      "chip": "ym2612"
    },
    {
      "channel": 3,
      "note": 49,
      "start": 3.1733,
      "duration": 0.2303,
      "velocity": 125,
      "chip": "ym2612"
    },
    {
      "channel": 2,
      "note": 82,
      "start": 3.1765,
      "duration": 0.1607,
      "velocity": 85,
      "chip": "ym2612"
    },
    {
      "channel": 0,
      "note": 45,
      "start": 3.4233,
      "duration": 0.1883,
      "velocity": 118,
      "chip": "ym2612"
    },
    {
      "channel": 0,
      "note": 45,
      "start": 3.6814,
      "duration": 0.2243,
      "velocity": 118,
      "chip": "ym2612"
    },
    {
      "channel": 2,
      "note": 62,
      "start": 3.7247,
      "duration": 0.0341,
      "velocity": 96,
      "chip": "ym2612"
    },
    {
      "channel": 3,
      "note": 49,
      "start": 3.8922,
      "duration": 0.1801,
      "velocity": 125,
      "chip": "ym2612"
    },
    {
      "channel": 0,
      "note": 45,
      "start": 4.4086,
      "duration": 0.4077,
      "velocity": 118,
      "chip": "ym2612"
    },
    {
      "channel": 2,
      "note": 82,
      "start": 4.4615,
      "duration": 0.0195,
      "velocity": 85,
      "chip": "ym2612"
    },
    {
      "channel": 2,
      "note": 82,
      "start": 4.5196,
      "duration": 0.097,
      "velocity": 85,
      "chip": "ym2612"
    },
    {
      "channel": 3,
      "note": 49,
      "start": 4.7863,
      "duration": 0.1788,
      "velocity": 125,
      "chip": "ym2612"
    },
    {
      "channel": 2,
      "note": 82,
      "start": 4.7889,
      "duration": 0.1442,
      "velocity": 85,
      "chip": "ym2612"
    },
    {
      "channel": 0,
      "note": 45,
      "start": 4.9361,
      "duration": 0.0605,
      "velocity": 118,
      "chip": "ym2612"
    },
    {
      "channel": 0,
      "note": 45,
      "start": 5.0301,
      "duration": 0.0715,
      "velocity": 118,
      "chip": "ym2612"
    },
    {
      "channel": 2,
      "note": 82,
      "start": 5.0725,
      "duration": 0.0645,
      "velocity": 85,
      "chip": "ym2612"
    },
    {
      "channel": 0,
      "note": 45,
      "start": 5.1404,
      "duration": 0.0281,
      "velocity": 118,
      "chip": "ym2612"
    },
    {
      "channel": 0,
      "note": 45,
      "start": 5.1763,
      "duration": 0.157,
      "velocity": 118,
      "chip": "ym2612"
    },
    {
      "channel": 2,
      "note": 81,
      "start": 5.1834,
      "duration": 0.1406,
      "velocity": 104,
      "chip": "ym2612"
    },
    {
      "channel": 3,
      "note": 49,
      "start": 5.2827,
      "duration": 0.0508,
      "velocity": 125,
      "chip": "ym2612"
    },
    {
      "channel": 2,
      "note": 62,
      "start": 5.3688,
      "duration": 0.119,
      "velocity": 96,
      "chip": "ym2612"
    },
    {
      "channel": 0,
      "note": 45,
      "start": 5.5406,
      "duration": 0.2201,
      "velocity": 118,
      "chip": "ym2612"
    },
    {
      "channel": 1,
      "note": 60,
      "start": 5.552,
      "duration": 0.0344,
      "velocity": 87,
      "chip": "ym2612"
    },
    {
      "channel": 2,
      "note": 82,
      "start": 5.5953,
      "duration": 0.02,
      "velocity": 85,
      "chip": "ym2612"
    },
    {
      "channel": 1,
      "note": 61,
      "start": 5.598,
      "duration": 0.0507,
      "velocity": 87,
      "chip": "ym2612"
    },
    {
      "channel": 2,
      "note": 82,
      "start": 5.6558,
      "duration": 0.0251,
      "velocity": 85,
      "chip": "ym2612"
    },
    {
      "channel": 1,
      "note": 67,
      "start": 5.6584,
      "duration": 0.0174,
      "velocity": 87,
      "chip": "ym2612"
    },
    {
      "channel": 3,
      "note": 49,
      "start": 5.7366,
      "duration": 0.2242,
      "velocity": 125,
      "chip": "ym2612"
    },
    {
      "channel": 2,
      "note": 82,
      "start": 5.7391,
      "duration": 0.1553,
      "velocity": 85,
      "chip": "ym2612"
    },
    {
      "channel": 1,
      "note": 67,
      "start": 5.7416,
      "duration": 0.1692,
      "velocity": 87,
      "chip": "ym2612"
    },
    {
      "channel": 0,
      "note": 45,
      "start": 5.9805,
      "duration": 0.1894,
      "velocity": 118,
      "chip": "ym2612"
    },
    {
      "channel": 1,
      "note": 60,
      "start": 5.9869,
      "duration": 0.039,
      "velocity": 87,
      "chip": "ym2612"
    },
    {
      "channel": 1,
      "note": 61,
      "start": 6.0353,
      "duration": 0.0347,
      "velocity": 87,
      "chip": "ym2612"
    },
    {
      "channel": 1,
      "note": 67,
      "start": 6.0739,
      "duration": 0.0961,
      "velocity": 87,
      "chip": "ym2612"
    },
    {
      "channel": 0,
      "note": 45,
      "start": 6.2397,
      "duration": 0.3579,
      "velocity": 118,
      "chip": "ym2612"
    },
    {
      "channel": 2,
      "note": 62,
      "start": 6.2798,
      "duration": 0.2202,
      "velocity": 96,
      "chip": "ym2612"
    },
    {
      "channel": 1,
      "note": 67,
      "start": 6.2824,
      "duration": 0.0481,
      "velocity": 87,
      "chip": "ym2612"
    },
    {
      "channel": 3,
      "note": 49,
      "start": 6.366,
      "duration": 0.1439,
      "velocity": 125,
      "chip": "ym2612"
    },
    {
      "channel": 1,
      "note": 69,
      "start": 6.3687,
      "duration": 0.1782,
      "velocity": 87,
      "chip": "ym2612"
    },
    {
      "channel": 0,
      "note": 45,
      "start": 6.6278,
      "duration": 0.0764,
      "velocity": 118,
      "chip": "ym2612"
    },
    {
      "channel": 1,
      "note": 60,
      "start": 6.6348,
      "duration": 0.0245,
      "velocity": 87,
      "chip": "ym2612"
    },
    {
      "channel": 2,
      "note": 82,
      "start": 6.678,
      "duration": 0.021,
      "velocity": 85,
      "chip": "ym2612"
    },
    {
      "channel": 1,
      "note": 61,
      "start": 6.6805,
      "duration": 0.0294,
      "velocity": 87,
      "chip": "ym2612"
    },
    {
      "channel": 0,
      "note": 45,
      "start": 6.7134,
      "duration": 0.1051,
      "velocity": 118,
      "chip": "ym2612"
    },
    {
      "channel": 2,
      "note": 82,
      "start": 6.7201,
      "duration": 0.0342,
      "velocity": 85,
      "chip": "ym2612"
    },
    {
      "channel": 1,
      "note": 67,
      "start": 6.7229,
      "duration": 0.0154,
      "velocity": 87,
      "chip": "ym2612"
    },
    {
      "channel": 3,
      "note": 49,
      "start": 6.8222,
      "duration": 0.2298,
      "velocity": 125,
      "chip": "ym2612"
    },
    {
      "channel": 2,
      "note": 82,
      "start": 6.8249,
      "duration": 0.1439,
      "velocity": 85,
      "chip": "ym2612"
    },
    {
      "channel": 1,
      "note": 67,
      "start": 6.828,
      "duration": 0.224,
      "velocity": 87,
      "chip": "ym2612"
    },
    {
      "channel": 0,
      "note": 45,
      "start": 7.0883,
      "duration": 0.2894,
      "velocity": 118,
      "chip": "ym2612"
    },
    {
      "channel": 1,
      "note": 60,
      "start": 7.0945,
      "duration": 0.0336,
      "velocity": 87,
      "chip": "ym2612"
    },
    {
      "channel": 1,
      "note": 61,
      "start": 7.1424,
      "duration": 0.0354,
      "velocity": 87,
      "chip": "ym2612"
    },
    {
      "channel": 2,
      "note": 82,
      "start": 7.181,
      "duration": 0.147,
      "velocity": 85,
      "chip": "ym2612"
    },
    {
      "channel": 1,
      "note": 67,
      "start": 7.184,
      "duration": 0.1104,
      "velocity": 87,
      "chip": "ym2612"
    },
    {
      "channel": 1,
      "note": 55,
      "start": 7.3317,
      "duration": 0.1877,
      "velocity": 87,
      "chip": "ym2612"
    },
    {
      "channel": 0,
      "note": 45,
      "start": 7.4475,
      "duration": 0.1671,
      "velocity": 118,
      "chip": "ym2612"
    },
    {
      "channel": 2,
      "note": 81,
      "start": 7.4539,
      "duration": 0.1052,
      "velocity": 104,
      "chip": "ym2612"
    },
    {
      "channel": 3,
      "note": 49,
      "start": 7.5435,
      "duration": 0.0811,
      "velocity": 125,
      "chip": "ym2612"
    },
    {
      "channel": 1,
      "note": 57,
      "start": 7.5466,
      "duration": 0.057,
      "velocity": 87,
      "chip": "ym2612"
    },
    {
      "channel": 2,
      "note": 82,
      "start": 7.6325,
      "duration": 0.0016,
      "velocity": 85,
      "chip": "ym2612"
    },
    {
      "channel": 2,
      "note": 62,
      "start": 7.6359,
      "duration": 0.0677,
      "velocity": 96,
      "chip": "ym2612"
    },
    {
      "channel": 0,
      "note": 45,
      "start": 7.7213,
      "duration": 0.3834,
      "velocity": 118,
      "chip": "ym2612"
    },
    {
      "channel": 1,
      "note": 60,
      "start": 7.7294,
      "duration": 0.0251,
      "velocity": 87,
      "chip": "ym2612"
    },
    {
      "channel": 2,
      "note": 82,
      "start": 7.7728,
      "duration": 0.0209,
      "velocity": 85,
      "chip": "ym2612"
    },
    {
      "channel": 1,
      "note": 61,
      "start": 7.7755,
      "duration": 0.0293,
      "velocity": 87,
      "chip": "ym2612"
    },
    {
      "channel": 2,
      "note": 82,
      "start": 7.8085,
      "duration": 0.0799,
      "velocity": 85,
      "chip": "ym2612"
    },
    {
      "channel": 1,
      "note": 67,
      "start": 7.8117,
      "duration": 0.0765,
      "velocity": 87,
      "chip": "ym2612"
    },
    {
      "channel": 3,
      "note": 49,
      "start": 8.0746,
      "duration": 0.2302,
      "velocity": 125,
      "chip": "ym2612"
    },
    {
      "channel": 2,
      "note": 82,
      "start": 8.0774,
      "duration": 0.161,
      "velocity": 85,
      "chip": "ym2612"
    },
    {
      "channel": 1,
      "note": 67,
      "start": 8.0805,
      "duration": 0.2409,
      "velocity": 87,
      "chip": "ym2612"
    },
    {
      "channel": 0,
      "note": 45,
      "start": 8.3246,
      "duration": 0.1895,
      "velocity": 118,
      "chip": "ym2612"
    },
    {
      "channel": 1,
      "note": 60,
      "start": 8.331,
      "duration": 0.0334,
      "velocity": 87,
      "chip": "ym2612"
    },
    {
      "channel": 1,
      "note": 61,
      "start": 8.3792,
      "duration": 0.0515,
      "velocity": 87,
      "chip": "ym2612"
    },
    {
      "channel": 1,
      "note": 67,
      "start": 8.4346,
      "duration": 0.0961,
      "velocity": 87,
      "chip": "ym2612"
    },
    {
      "channel": 0,
      "note": 45,
      "start": 8.5839,
      "duration": 0.3449,
      "velocity": 118,
      "chip": "ym2612"
    },
    {
      "channel": 2,
      "note": 62,
      "start": 8.6311,
      "duration": 0.0334,
      "velocity": 96,
      "chip": "ym2612"
    },
    {
      "channel": 1,
      "note": 67,
      "start": 8.6336,
      "duration": 0.0524,
      "velocity": 87,
      "chip": "ym2612"
    },
    {
      "channel": 3,
      "note": 49,
      "start": 8.7096,
      "duration": 0.1354,
      "velocity": 125,
      "chip": "ym2612"
    },
    {
      "channel": 1,
      "note": 69,
      "start": 8.7131,
      "duration": 0.1422,
      "velocity": 87,
      "chip": "ym2612"
    },
    {
      "channel": 0,
      "note": 45,
      "start": 9.0157,
      "duration": 0.4055,
      "velocity": 118,
      "chip": "ym2612"
    },
    {
      "channel": 1,
      "note": 60,
      "start": 9.022,
      "duration": 0.0329,
      "velocity": 87,
      "chip": "ym2612"
    },
    {
      "channel": 2,
      "note": 82,
      "start": 9.0691,
      "duration": 0.0199,
      "velocity": 85,
      "chip": "ym2612"
    },
    {
      "channel": 1,
      "note": 61,
      "start": 9.0717,
      "duration": 0.0495,
      "velocity": 87,
      "chip": "ym2612"
    },
    {
      "channel": 2,
      "note": 82,
      "start": 9.1246,
      "duration": 0.0969,
      "velocity": 85,
      "chip": "ym2612"
    },
    {
      "channel": 1,
      "note": 67,
      "start": 9.1276,
      "duration": 0.0937,
      "velocity": 87,
      "chip": "ym2612"
    },
    {
      "channel": 3,
      "note": 49,
      "start": 9.3914,
      "duration": 0.1779,
      "velocity": 125,
      "chip": "ym2612"
    },
    {
      "channel": 2,
      "note": 82,
      "start": 9.3941,
      "duration": 0.144,
      "velocity": 85,
      "chip": "ym2612"
    },
    {
      "channel": 1,
      "note": 67,
      "start": 9.3974,
      "duration": 0.1668,
      "velocity": 87,
      "chip": "ym2612"
    },
    {
      "channel": 0,
      "note": 45,
      "start": 9.5411,
      "duration": 0.3738,
      "velocity": 118,
      "chip": "ym2612"
    },
    {
      "channel": 1,
      "note": 60,
      "start": 9.5789,
      "duration": 0.0391,
      "velocity": 87,
      "chip": "ym2612"
    },
    {
      "channel": 1,
      "note": 61,
      "start": 9.6355,
      "duration": 0.1126,
      "velocity": 87,
      "chip": "ym2612"
    },
    {
      "channel": 2,
      "note": 82,
      "start": 9.7517,
      "duration": 0.1467,
      "velocity": 85,
      "chip": "ym2612"
    },
    {
      "channel": 1,
      "note": 67,
      "start": 9.7549,
      "duration": 0.0766,
      "velocity": 87,
      "chip": "ym2612"
    },
    {
      "channel": 1,
      "note": 55,
      "start": 9.9022,
      "duration": 0.1498,
      "velocity": 87,
      "chip": "ym2612"
    },
    {
      "channel": 0,
      "note": 45,
      "start": 10.0013,
      "duration": 0.1828,
      "velocity": 118,
      "chip": "ym2612"
    },
    {
      "channel": 2,
      "note": 62,
      "start": 10.0073,
      "duration": 0.0571,
      "velocity": 96,
      "chip": "ym2612"
    },
    {
      "channel": 3,
      "note": 49,
      "start": 10.0556,
      "duration": 0.0188,
      "velocity": 125,
      "chip": "ym2612"
    },
    {
      "channel": 3,
      "note": 49,
      "start": 10.1139,
      "duration": 0.075,
      "velocity": 125,
      "chip": "ym2612"
    },
    {
      "channel": 1,
      "note": 57,
      "start": 10.1168,
      "duration": 0.051,
      "velocity": 87,
      "chip": "ym2612"
    },
    {
      "channel": 2,
      "note": 82,
      "start": 10.2021,
      "duration": 0.0015,
      "velocity": 85,
      "chip": "ym2612"
    },
    {
      "channel": 2,
      "note": 62,
      "start": 10.2055,
      "duration": 0.067,
      "velocity": 96,
      "chip": "ym2612"
    },
    {
      "channel": 0,
      "note": 45,
      "start": 10.2848,
      "duration": 0.2159,
      "velocity": 118,
      "chip": "ym2612"
    },
    {
      "channel": 4,
      "note": 57,
      "start": 10.2919,
      "duration": 0.1231,
      "velocity": 127,
      "chip": "ym2612"
    },
    {
      "channel": 1,
      "note": 60,
      "start": 10.2944,
      "duration": 0.0359,
      "velocity": 87,
      "chip": "ym2612"
    },
    {
      "channel": 2,
      "note": 82,
      "start": 10.3385,
      "duration": 0.0205,
      "velocity": 85,
      "chip": "ym2612"
    },
    {
      "channel": 1,
      "note": 61,
      "start": 10.3419,
      "duration": 0.0458,
      "velocity": 87,
      "chip": "ym2612"
    },
    {
      "channel": 2,
      "note": 82,
      "start": 10.3949,
      "duration": 0.0252,
      "velocity": 85,
      "chip": "ym2612"
    },
    {
      "channel": 1,
      "note": 67,
      "start": 10.3976,
      "duration": 0.0173,
      "velocity": 87,
      "chip": "ym2612"
    },
    {
      "channel": 3,
      "note": 49,
      "start": 10.4766,
      "duration": 0.2241,
      "velocity": 125,
      "chip": "ym2612"
    },
    {
      "channel": 2,
      "note": 82,
      "start": 10.4792,
      "duration": 0.155,
      "velocity": 85,
      "chip": "ym2612"
    },
    {
      "channel": 1,
      "note": 67,
      "start": 10.4819,
      "duration": 0.1688,
      "velocity": 87,
      "chip": "ym2612"
    },
    {
      "channel": 0,
      "note": 45,
      "start": 10.7204,
      "duration": 0.1897,
      "velocity": 118,
      "chip": "ym2612"
    },
    {
      "channel": 4,
      "note": 57,
      "start": 10.7266,
      "duration": 0.1337,
      "velocity": 127,
      "chip": "ym2612"
    },
    {
      "channel": 1,
      "note": 60,
      "start": 10.7292,
      "duration": 0.0375,
      "velocity": 87,
      "chip": "ym2612"
    },
    {
      "channel": 1,
      "note": 61,
      "start": 10.7764,
      "duration": 0.0337,
      "velocity": 87,
      "chip": "ym2612"
    },
    {
      "channel": 1,
      "note": 67,
      "start": 10.8141,
      "duration": 0.0961,
      "velocity": 87,
      "chip": "ym2612"
    },
    {
      "channel": 0,
      "note": 45,
      "start": 10.9803,
      "duration": 0.3566,
      "velocity": 118,
      "chip": "ym2612"
    },
    {
      "channel": 2,
      "note": 62,
      "start": 11.0208,
      "duration": 0.1856,
      "velocity": 96,
      "chip": "ym2612"
    },
    {
      "channel": 1,
      "note": 67,
      "start": 11.0234,
      "duration": 0.0484,
      "velocity": 87,
      "chip": "ym2612"
    },
    {
      "channel": 3,
      "note": 49,
      "start": 11.1071,
      "duration": 0.1416,
      "velocity": 125,
      "chip": "ym2612"
    },
    {
      "channel": 1,
      "note": 69,
      "start": 11.1099,
      "duration": 0.1754,
      "velocity": 87,
      "chip": "ym2612"
    },
    {
      "channel": 0,
      "note": 45,
      "start": 11.366,
      "duration": 0.0777,
      "velocity": 118,
      "chip": "ym2612"
    },
    {
      "channel": 4,
      "note": 57,
      "start": 11.3722,
      "duration": 0.1164,
      "velocity": 127,
      "chip": "ym2612"
    },
    {
      "channel": 1,
      "note": 60,
      "start": 11.3746,
      "duration": 0.0246,
      "velocity": 87,
      "chip": "ym2612"
    },
    {
      "channel": 2,
      "note": 82,
      "start": 11.4176,
      "duration": 0.0209,
      "velocity": 85,
      "chip": "ym2612"
    },
    {
      "channel": 1,
      "note": 61,
      "start": 11.42,
      "duration": 0.0296,
      "velocity": 87,
      "chip": "ym2612"
    },
    {
      "channel": 0,
      "note": 45,
      "start": 11.4529,
      "duration": 0.1041,
      "velocity": 118,
      "chip": "ym2612"
    },
    {
      "channel": 2,
      "note": 82,
      "start": 11.4594,
      "duration": 0.0345,
      "velocity": 85,
      "chip": "ym2612"
    },
    {
      "channel": 1,
      "note": 67,
      "start": 11.4623,
      "duration": 0.0155,
      "velocity": 87,
      "chip": "ym2612"
    },
    {
      "channel": 3,
      "note": 49,
      "start": 11.5603,
      "duration": 0.2302,
      "velocity": 125,
      "chip": "ym2612"
    },
    {
      "channel": 2,
      "note": 82,
      "start": 11.563,
      "duration": 0.1442,
      "velocity": 85,
      "chip": "ym2612"
    },
    {
      "channel": 1,
      "note": 67,
      "start": 11.5661,
      "duration": 0.2243,
      "velocity": 87,
      "chip": "ym2612"
    },
    {
      "channel": 0,
      "note": 45,
      "start": 11.8266,
      "duration": 0.2905,
      "velocity": 118,
      "chip": "ym2612"
    },
    {
      "channel": 4,
      "note": 57,
      "start": 11.8326,
      "duration": 0.0738,
      "velocity": 127,
      "chip": "ym2612"
    },
    {
      "channel": 1,
      "note": 60,
      "start": 11.8353,
      "duration": 0.0327,
      "velocity": 87,
      "chip": "ym2612"
    },
    {
      "channel": 1,
      "note": 61,
      "start": 11.8827,
      "duration": 0.0345,
      "velocity": 87,
      "chip": "ym2612"
    },
    {
      "channel": 2,
      "note": 82,
      "start": 11.9203,
      "duration": 0.1471,
      "velocity": 85,
      "chip": "ym2612"
    },
    {
      "channel": 1,
      "note": 67,
      "start": 11.9234,
      "duration": 0.1104,
      "velocity": 87,
      "chip": "ym2612"
    },
    {
      "channel": 1,
      "note": 55,
      "start": 12.0712,
      "duration": 0.221,
      "velocity": 87,
      "chip": "ym2612"
    },
    {
      "channel": 0,
      "note": 45,
      "start": 12.1869,
      "duration": 0.1671,
      "velocity": 118,
      "chip": "ym2612"
    },
    {
      "channel": 2,
      "note": 81,
      "start": 12.1934,
      "duration": 0.1046,
      "velocity": 104,
      "chip": "ym2612"
    },
    {
      "channel": 3,
      "note": 49,
      "start": 12.2827,
      "duration": 0.0815,
      "velocity": 125,
      "chip": "ym2612"
    },
    {
      "channel": 4,
      "note": 57,
      "start": 12.2856,
      "duration": 0.057,
      "velocity": 87,
      "chip": "ym2612"
    },
    {
      "channel": 2,
      "note": 82,
      "start": 12.3734,
      "duration": 0.0007,
      "velocity": 85,
      "chip": "ym2612"
    },
    {
      "channel": 2,
      "note": 62,
      "start": 12.3759,
      "duration": 0.0677,
      "velocity": 96,
      "chip": "ym2612"
    },
    {
      "channel": 0,
      "note": 45,
      "start": 12.4611,
      "duration": 0.217,
      "velocity": 118,
      "chip": "ym2612"
    },
    {
      "channel": 1,
      "note": 57,
      "start": 12.4682,
      "duration": 0.0722,
      "velocity": 127,
      "chip": "ym2612"
    },
    {
      "channel": 4,
      "note": 60,
      "start": 12.4709,
      "duration": 0.0245,
      "velocity": 87,
      "chip": "ym2612"
    },
    {
      "channel": 2,
      "note": 82,
      "start": 12.5142,
      "duration": 0.0208,
      "velocity": 85,
      "chip": "ym2612"
    },
    {
      "channel": 4,
      "note": 61,
      "start": 12.5168,
      "duration": 0.0294,
      "velocity": 87,
      "chip": "ym2612"
    },
    {
      "channel": 4,
      "note": 67,
      "start": 12.5503,
      "duration": 0.0778,
      "velocity": 87,
      "chip": "ym2612"
    },
    {
      "channel": 3,
      "note": 49,
      "start": 12.8146,
      "duration": 0.2303,
      "velocity": 125,
      "chip": "ym2612"
    },
    {
      "channel": 2,
      "note": 82,
      "start": 12.8174,
      "duration": 0.1609,
      "velocity": 85,
      "chip": "ym2612"
    },
    {
      "channel": 4,
      "note": 67,
      "start": 12.8206,
      "duration": 0.241,
      "velocity": 87,
      "chip": "ym2612"
    },
    {
      "channel": 1,
      "note": 57,
      "start": 13.0683,
      "duration": 0.0677,
      "velocity": 127,
      "chip": "ym2612"
    },
    {
      "channel": 4,
      "note": 60,
      "start": 13.0708,
      "duration": 0.0328,
      "velocity": 87,
      "chip": "ym2612"
    },
    {
      "channel": 4,
      "note": 61,
      "start": 13.1183,
      "duration": 0.0523,
      "velocity": 87,
      "chip": "ym2612"
    },
    {
      "channel": 4,
      "note": 67,
      "start": 13.1746,
      "duration": 0.0961,
      "velocity": 87,
      "chip": "ym2612"
    },
    {
      "channel": 0,
      "note": 45,
      "start": 13.324,
      "duration": 0.3457,
      "velocity": 118,
      "chip": "ym2612"
    },
    {
      "channel": 2,
      "note": 62,
      "start": 13.3709,
      "duration": 0.1841,
      "velocity": 96,
      "chip": "ym2612"
    },
    {
      "channel": 4,
      "note": 67,
      "start": 13.3736,
      "duration": 0.0524,
      "velocity": 87,
      "chip": "ym2612"
    },
    {
      "channel": 3,
      "note": 49,
      "start": 13.45,
      "duration": 0.1363,
      "velocity": 125,
      "chip": "ym2612"
    },
    {
      "channel": 4,
      "note": 69,
      "start": 13.4537,
      "duration": 0.1432,
      "velocity": 87,
      "chip": "ym2612"
    },
    {
      "channel": 0,
      "note": 45,
      "start": 13.7561,
      "duration": 0.4066,
      "velocity": 118,
      "chip": "ym2612"
    },
    {
      "channel": 1,
      "note": 57,
      "start": 13.7622,
      "duration": 0.1504,
      "velocity": 127,
      "chip": "ym2612"
    },
    {
      "channel": 2,
      "note": 63,
      "start": 13.7658,
      "duration": 0.0325,
      "velocity": 92,
      "chip": "ym2612"
    },
    {
      "channel": 4,
      "note": 60,
      "start": 13.7683,
      "duration": 0.0299,
      "velocity": 87,
      "chip": "ym2612"
    },
    {
      "channel": 2,
      "note": 82,
      "start": 13.8122,
      "duration": 0.022,
      "velocity": 85,
      "chip": "ym2612"
    },
    {
      "channel": 3,
      "note": 64,
      "start": 13.8149,
      "duration": 0.0191,
      "velocity": 92,
      "chip": "ym2612"
    },
    {
      "channel": 4,
      "note": 61,
      "start": 13.8175,
      "duration": 0.0453,
      "velocity": 87,
      "chip": "ym2612"
    },
    {
      "channel": 2,
      "note": 82,
      "start": 13.866,
      "duration": 0.097,
      "velocity": 85,
      "chip": "ym2612"
    },
    {
      "channel": 3,
      "note": 71,
      "start": 13.8691,
      "duration": 0.0936,
      "velocity": 92,
      "chip": "ym2612"
    },
    {
      "channel": 4,
      "note": 67,
      "start": 13.8719,
      "duration": 0.091,
      "velocity": 87,
      "chip": "ym2612"
    },
    {
      "channel": 5,
      "note": 49,
      "start": 14.133,
      "duration": 0.2298,
      "velocity": 125,
      "chip": "ym2612"
    },
    {
      "channel": 2,
      "note": 82,
      "start": 14.1361,
      "duration": 0.1434,
      "velocity": 85,
      "chip": "ym2612"
    },
    {
      "channel": 3,
      "note": 71,
      "start": 14.1389,
      "duration": 0.2071,
      "velocity": 92,
      "chip": "ym2612"
    },
    {
      "channel": 4,
      "note": 67,
      "start": 14.1422,
      "duration": 0.2039,
      "velocity": 87,
      "chip": "ym2612"
    },
    {
      "channel": 0,
      "note": 45,
      "start": 14.2825,
      "duration": 0.5302,
      "velocity": 118,
      "chip": "ym2612"
    },
    {
      "channel": 1,
      "note": 57,
      "start": 14.383,
      "duration": 0.213,
      "velocity": 127,
      "chip": "ym2612"
    },
    {
      "channel": 3,
      "note": 63,
      "start": 14.3862,
      "duration": 0.1098,
      "velocity": 92,
      "chip": "ym2612"
    },
    {
      "channel": 4,
      "note": 60,
      "start": 14.3891,
      "duration": 0.1237,
      "velocity": 87,
      "chip": "ym2612"
    },
    {
      "channel": 3,
      "note": 64,
      "start": 14.5332,
      "duration": 0.0795,
      "velocity": 92,
      "chip": "ym2612"
    },
    {
      "channel": 4,
      "note": 61,
      "start": 14.5361,
      "duration": 0.1099,
      "velocity": 87,
      "chip": "ym2612"
    },
    {
      "channel": 2,
      "note": 82,
      "start": 14.6492,
      "duration": 0.147,
      "velocity": 85,
      "chip": "ym2612"
    },
    {
      "channel": 3,
      "note": 71,
      "start": 14.6522,
      "duration": 0.1271,
      "velocity": 92,
      "chip": "ym2612"
    },
    {
      "channel": 5,
      "note": 55,
      "start": 14.6566,
      "duration": 0.0896,
      "velocity": 111,
      "chip": "ym2612"
    },
    {
      "channel": 4,
      "note": 67,
      "start": 14.6595,
      "duration": 0.0699,
      "velocity": 87,
      "chip": "ym2612"
    },
    {
      "channel": 5,
      "note": 57,
      "start": 14.8003,
      "duration": 0.0995,
      "velocity": 111,
      "chip": "ym2612"
    },
    {
      "channel": 3,
      "note": 73,
      "start": 14.8163,
      "duration": 0.1013,
      "velocity": 92,
      "chip": "ym2612"
    },
    {
      "channel": 4,
      "note": 69,
      "start": 14.8198,
      "duration": 0.0929,
      "velocity": 87,
      "chip": "ym2612"
    },
    {
      "channel": 0,
      "note": 45,
      "start": 14.8992,
      "duration": 0.1864,
      "velocity": 118,
      "chip": "ym2612"
    },
    {
      "channel": 3,
      "note": 71,
      "start": 14.937,
      "duration": 0.0328,
      "velocity": 92,
      "chip": "ym2612"
    },
    {
      "channel": 1,
      "note": 55,
      "start": 14.9398,
      "duration": 0.0298,
      "velocity": 111,
      "chip": "ym2612"
    },
    {
      "channel": 4,
      "note": 67,
      "start": 14.9423,
      "duration": 0.0326,
      "velocity": 87,
      "chip": "ym2612"
    },
    {
      "channel": 2,
      "note": 82,
      "start": 14.956,
      "duration": 0.0515,
      "velocity": 85,
      "chip": "ym2612"
    },
    {
      "channel": 3,
      "note": 67,
      "start": 15.0139,
      "duration": 0.026,
      "velocity": 92,
      "chip": "ym2612"
    },
    {
      "channel": 1,
      "note": 52,
      "start": 15.0162,
      "duration": 0.0396,
      "velocity": 111,
      "chip": "ym2612"
    },
    {
      "channel": 4,
      "note": 64,
      "start": 15.0186,
      "duration": 0.0214,
      "velocity": 87,
      "chip": "ym2612"
    },
    {
      "channel": 3,
      "note": 66,
      "start": 15.0703,
      "duration": 0.0378,
      "velocity": 92,
      "chip": "ym2612"
    },
    {
      "channel": 1,
      "note": 51,
      "start": 15.0726,
      "duration": 0.0354,
      "velocity": 111,
      "chip": "ym2612"
    },
    {
      "channel": 4,
      "note": 62,
      "start": 15.0751,
      "duration": 0.0264,
      "velocity": 87,
      "chip": "ym2612"
    },
    {
      "channel": 2,
      "note": 57,
      "start": 15.1059,
      "duration": 0.007,
      "velocity": 125,
      "chip": "ym2612"
    },
    {
      "channel": 2,
      "note": 57,
      "start": 15.1322,
      "duration": 0.0361,
      "velocity": 125,
      "chip": "ym2612"
    },
    {
      "channel": 3,
      "note": 64,
      "start": 15.1346,
      "duration": 0.0671,
      "velocity": 92,
      "chip": "ym2612"
    },
    {
      "channel": 1,
      "note": 50,
      "start": 15.1376,
      "duration": 0.0639,
      "velocity": 111,
      "chip": "ym2612"
    },
    {
      "channel": 4,
      "note": 60,
      "start": 15.1399,
      "duration": 0.0449,
      "velocity": 87,
      "chip": "ym2612"
    },
    {
      "channel": 2,
      "note": 57,
      "start": 15.189,
      "duration": 0.0627,
      "velocity": 125,
      "chip": "ym2612"
    },
    {
      "channel": 0,
      "note": 45,
      "start": 15.2711,
      "duration": 0.2118,
      "velocity": 118,
      "chip": "ym2612"
    },
    {
      "channel": 1,
      "note": 48,
      "start": 15.2821,
      "duration": 0.0608,
      "velocity": 111,
      "chip": "ym2612"
    },
    {
      "channel": 4,
      "note": 94,
      "start": 15.3857,
      "duration": 0.0667,
      "velocity": 50,
      "chip": "ym2612"
    },
    {
      "channel": 4,
      "note": 88,
      "start": 15.4703,
      "duration": 0.0545,
      "velocity": 50,
      "chip": "ym2612"
    },
    {
      "channel": 3,
      "note": 94,
      "start": 15.4731,
      "duration": 0.062,
      "velocity": 50,
      "chip": "ym2612"
    },
    {
      "channel": 0,
      "note": 45,
      "start": 15.5542,
      "duration": 0.1822,
      "velocity": 118,
      "chip": "ym2612"
    },
    {
      "channel": 4,
      "note": 84,
      "start": 15.5604,
      "duration": 0.0294,
      "velocity": 50,
      "chip": "ym2612"
    },
    {
      "channel": 1,
      "note": 48,
      "start": 15.5629,
      "duration": 0.0161,
      "velocity": 111,
      "chip": "ym2612"
    },
    {
      "channel": 3,
      "note": 88,
      "start": 15.5653,
      "duration": 0.0486,
      "velocity": 50,
      "chip": "ym2612"
    },
    {
      "channel": 2,
      "note": 94,
      "start": 15.568,
      "duration": 0.0609,
      "velocity": 50,
      "chip": "ym2612"
    },
    {
      "channel": 4,
      "note": 86,
      "start": 15.6045,
      "duration": 0.0988,
      "velocity": 50,
      "chip": "ym2612"
    },
    {
      "channel": 1,
      "note": 48,
      "start": 15.6107,
      "duration": 0.0591,
      "velocity": 111,
      "chip": "ym2612"
    },
    {
      "channel": 3,
      "note": 84,
      "start": 15.6444,
      "duration": 0.1088,
      "velocity": 50,
      "chip": "ym2612"
    },
    {
      "channel": 2,
      "note": 88,
      "start": 15.6472,
      "duration": 0.1666,
      "velocity": 50,
      "chip": "ym2612"
    },
    {
      "channel": 3,
      "note": 86,
      "start": 15.7739,
      "duration": 0.0936,
      "velocity": 50,
      "chip": "ym2612"
    },
    {
      "channel": 0,
      "note": 45,
      "start": 15.8066,
      "duration": 0.1509,
      "velocity": 118,
      "chip": "ym2612"
    },
    {
      "channel": 4,
      "note": 91,
      "start": 15.8476,
      "duration": 0.047,
      "velocity": 50,
      "chip": "ym2612"
    },
    {
      "channel": 2,
      "note": 84,
      "start": 15.8504,
      "duration": 0.0327,
      "velocity": 50,
      "chip": "ym2612"
    },
    {
      "channel": 2,
      "note": 86,
      "start": 15.8925,
      "duration": 0.0651,
      "velocity": 50,
      "chip": "ym2612"
    },
    {
      "channel": 4,
      "note": 89,
      "start": 15.9397,
      "duration": 0.0582,
      "velocity": 50,
      "chip": "ym2612"
    },
    {
      "channel": 3,
      "note": 91,
      "start": 15.9423,
      "duration": 0.0416,
      "velocity": 50,
      "chip": "ym2612"
    },
    {
      "channel": 4,
      "note": 84,
      "start": 16.022,
      "duration": 0.062,
      "velocity": 50,
      "chip": "ym2612"
    },
    {
      "channel": 1,
      "note": 53,
      "start": 16.0249,
      "duration": 0.0689,
      "velocity": 111,
      "chip": "ym2612"
    },
    {
      "channel": 3,
      "note": 89,
      "start": 16.0274,
      "duration": 0.0612,
      "velocity": 50,
      "chip": "ym2612"
    },
    {
      "channel": 2,
      "note": 91,
      "start": 16.0299,
      "duration": 0.0403,
      "velocity": 50,
      "chip": "ym2612"
    },
    {
      "channel": 0,
      "note": 45,
      "start": 16.1136,
      "duration": 0.0789,
      "velocity": 118,
      "chip": "ym2612"
    },
    {
      "channel": 2,
      "note": 72,
      "start": 16.1203,
      "duration": 0.723,
      "velocity": 112,
      "chip": "ym2612"
    },
    {
      "channel": 1,
      "note": 48,
      "start": 16.123,
      "duration": 0.0438,
      "velocity": 111,
      "chip": "ym2612"
    },
    {
      "channel": 3,
      "note": 84,
      "start": 16.1254,
      "duration": 0.0363,
      "velocity": 50,
      "chip": "ym2612"
    },
    {
      "channel": 4,
      "note": 89,
      "start": 16.1291,
      "duration": 0.0528,
      "velocity": 50,
      "chip": "ym2612"
    },
    {
      "channel": 3,
      "note": 82,
      "start": 16.1637,
      "duration": 0.0782,
      "velocity": 50,
      "chip": "ym2612"
    },
    {
      "channel": 0,
      "note": 45,
      "start": 16.2029,
      "duration": 0.1024,
      "velocity": 118,
      "chip": "ym2612"
    },
    {
      "channel": 4,
      "note": 84,
      "start": 16.2096,
      "duration": 0.0554,
      "velocity": 50,
      "chip": "ym2612"
    },
    {
      "channel": 3,
      "note": 88,
      "start": 16.2499,
      "duration": 0.0858,
      "velocity": 50,
      "chip": "ym2612"
    },
    {
      "channel": 1,
      "note": 82,
      "start": 16.2539,
      "duration": 0.0932,
      "velocity": 50,
      "chip": "ym2612"
    },
    {
      "channel": 1,
      "note": 88,
      "start": 16.3551,
      "duration": 0.072,
      "velocity": 50,
      "chip": "ym2612"
    },
    {
      "channel": 4,
      "note": 82,
      "start": 16.3575,
      "duration": 0.0743,
      "velocity": 50,
      "chip": "ym2612"
    },
    {
      "channel": 0,
      "note": 45,
      "start": 16.3985,
      "duration": 0.2858,
      "velocity": 118,
      "chip": "ym2612"
    },
    {
      "channel": 3,
      "note": 86,
      "start": 16.4046,
      "duration": 0.0651,
      "velocity": 50,
      "chip": "ym2612"
    },
    {
      "channel": 4,
      "note": 88,
      "start": 16.4405,
      "duration": 0.1273,
      "velocity": 50,
      "chip": "ym2612"
    },
    {
      "channel": 3,
      "note": 82,
      "start": 16.4878,
      "duration": 0.2132,
      "velocity": 50,
      "chip": "ym2612"
    },
    {
      "channel": 1,
      "note": 86,
      "start": 16.4907,
      "duration": 0.2102,
      "velocity": 50,
      "chip": "ym2612"
    },
    {
      "channel": 0,
      "note": 45,
      "start": 16.7541,
      "duration": 0.1264,
      "velocity": 118,
      "chip": "ym2612"
    },
    {
      "channel": 1,
      "note": 82,
      "start": 16.7605,
      "duration": 0.067,
      "velocity": 50,
      "chip": "ym2612"
    },
    {
      "channel": 4,
      "note": 86,
      "start": 16.763,
      "duration": 0.0646,
      "velocity": 50,
      "chip": "ym2612"
    },
    {
      "channel": 3,
      "note": 78,
      "start": 16.8043,
      "duration": 0.0549,
      "velocity": 50,
      "chip": "ym2612"
    },
    {
      "channel": 1,
      "note": 46,
      "start": 16.8503,
      "duration": 0.0721,
      "velocity": 111,
      "chip": "ym2612"
    },
    {
      "channel": 4,
      "note": 82,
      "start": 16.8527,
      "duration": 0.0697,
      "velocity": 50,
      "chip": "ym2612"
    },
    {
      "channel": 3,
      "note": 79,
      "start": 16.8953,
      "duration": 0.0493,
      "velocity": 50,
      "chip": "ym2612"
    },
    {
      "channel": 2,
      "note": 78,
      "start": 16.898,
      "duration": 0.0468,
      "velocity": 50,
      "chip": "ym2612"
    },
    {
      "channel": 1,
      "note": 47,
      "start": 16.9412,
      "duration": 0.0766,
      "velocity": 111,
      "chip": "ym2612"
    },
    {
      "channel": 2,
      "note": 79,
      "start": 16.9847,
      "duration": 0.0555,
      "velocity": 50,
      "chip": "ym2612"
    },
    {
      "channel": 4,
      "note": 78,
      "start": 16.9883,
      "duration": 0.0518,
      "velocity": 50,
      "chip": "ym2612"
    },
    {
      "channel": 0,
      "note": 45,
      "start": 17.0308,
      "duration": 0.3664,
      "velocity": 118,
      "chip": "ym2612"
    },
    {
      "channel": 1,
      "note": 48,
      "start": 17.0388,
      "duration": 0.1926,
      "velocity": 111,
      "chip": "ym2612"
    },
    {
      "channel": 4,
      "note": 79,
      "start": 17.0737,
      "duration": 0.0746,
      "velocity": 50,
      "chip": "ym2612"
    },
    {
      "channel": 3,
      "note": 94,
      "start": 17.1189,
      "duration": 0.2293,
      "velocity": 50,
      "chip": "ym2612"
    },
    {
      "channel": 3,
      "note": 89,
      "start": 17.3882,
      "duration": 0.1003,
      "velocity": 50,
      "chip": "ym2612"
    },
    {
      "channel": 2,
      "note": 94,
      "start": 17.3909,
      "duration": 0.0703,
      "velocity": 50,
      "chip": "ym2612"
    },
    {
      "channel": 0,
      "note": 45,
      "start": 17.4701,
      "duration": 0.1804,
      "velocity": 118,
      "chip": "ym2612"
    },
    {
      "channel": 1,
      "note": 48,
      "start": 17.4769,
      "duration": 0.0161,
      "velocity": 111,
      "chip": "ym2612"
    },
    {
      "channel": 2,
      "note": 89,
      "start": 17.4798,
      "duration": 0.1376,
      "velocity": 50,
      "chip": "ym2612"
    },
    {
      "channel": 4,
      "note": 94,
      "start": 17.4825,
      "duration": 0.0713,
      "velocity": 50,
      "chip": "ym2612"
    },
    {
      "channel": 3,
      "note": 86,
      "start": 17.5183,
      "duration": 0.1989,
      "velocity": 50,
      "chip": "ym2612"
    },
    {
      "channel": 1,
      "note": 48,
      "start": 17.5249,
      "duration": 0.0423,
      "velocity": 111,
      "chip": "ym2612"
    },
    {
      "channel": 4,
      "note": 89,
      "start": 17.5716,
      "duration": 0.2022,
      "velocity": 50,
      "chip": "ym2612"
    },
    {
      "channel": 2,
      "note": 86,
      "start": 17.7046,
      "duration": 0.1076,
      "velocity": 50,
      "chip": "ym2612"
    },
    {
      "channel": 0,
      "note": 45,
      "start": 17.7204,
      "duration": 0.1336,
      "velocity": 118,
      "chip": "ym2612"
    },
    {
      "channel": 3,
      "note": 91,
      "start": 17.7677,
      "duration": 0.055,
      "velocity": 50,
      "chip": "ym2612"
    },
    {
      "channel": 4,
      "note": 86,
      "start": 17.8036,
      "duration": 0.0919,
      "velocity": 50,
      "chip": "ym2612"
    },
    {
      "channel": 3,
      "note": 89,
      "start": 17.8502,
      "duration": 0.0742,
      "velocity": 50,
      "chip": "ym2612"
    },
    {
      "channel": 2,
      "note": 91,
      "start": 17.8529,
      "duration": 0.0609,
      "velocity": 50,
      "chip": "ym2612"
    },
    {
      "channel": 3,
      "note": 86,
      "start": 17.9379,
      "duration": 0.0545,
      "velocity": 50,
      "chip": "ym2612"
    },
    {
      "channel": 1,
      "note": 55,
      "start": 17.9412,
      "duration": 0.0457,
      "velocity": 111,
      "chip": "ym2612"
    },
    {
      "channel": 2,
      "note": 89,
      "start": 17.9439,
      "duration": 0.1106,
      "velocity": 50,
      "chip": "ym2612"
    },
    {
      "channel": 4,
      "note": 91,
      "start": 17.9463,
      "duration": 0.058,
      "velocity": 50,
      "chip": "ym2612"
    },
    {
      "channel": 0,
      "note": 45,
      "start": 18.074,
      "duration": 0.3897,
      "velocity": 118,
      "chip": "ym2612"
    },
    {
      "channel": 3,
      "note": 87,
      "start": 18.0806,
      "duration": 0.0377,
      "velocity": 50,
      "chip": "ym2612"
    },
    {
      "channel": 1,
      "note": 60,
      "start": 18.0835,
      "duration": 1.064,
      "velocity": 112,
      "chip": "ym2612"
    },
    {
      "channel": 4,
      "note": 48,
      "start": 18.0863,
      "duration": 0.0943,
      "velocity": 111,
      "chip": "ym2612"
    },
    {
      "channel": 2,
      "note": 86,
      "start": 18.0897,
      "duration": 0.001,
      "velocity": 50,
      "chip": "ym2612"
    },
    {
      "channel": 2,
      "note": 89,
      "start": 18.0927,
      "duration": 0.0715,
      "velocity": 50,
      "chip": "ym2612"
    },
    {
      "channel": 3,
      "note": 88,
      "start": 18.1262,
      "duration": 0.0377,
      "velocity": 50,
      "chip": "ym2612"
    },
    {
      "channel": 3,
      "note": 84,
      "start": 18.1843,
      "duration": 0.213,
      "velocity": 50,
      "chip": "ym2612"
    },
    {
      "channel": 5,
      "note": 87,
      "start": 18.1876,
      "duration": 0.0931,
      "velocity": 50,
      "chip": "ym2612"
    },
    {
      "channel": 2,
      "note": 86,
      "start": 18.1904,
      "duration": 0.1569,
      "velocity": 50,
      "chip": "ym2612"
    },
    {
      "channel": 5,
      "note": 88,
      "start": 18.3177,
      "duration": 0.0964,
      "velocity": 50,
      "chip": "ym2612"
    },
    {
      "channel": 3,
      "note": 82,
      "start": 18.4539,
      "duration": 0.0578,
      "velocity": 50,
      "chip": "ym2612"
    },
    {
      "channel": 4,
      "note": 84,
      "start": 18.4567,
      "duration": 0.0707,
      "velocity": 50,
      "chip": "ym2612"
    },
    {
      "channel": 2,
      "note": 87,
      "start": 18.4593,
      "duration": 0.0252,
      "velocity": 50,
      "chip": "ym2612"
    },
    {
      "channel": 2,
      "note": 88,
      "start": 18.4938,
      "duration": 0.039,
      "velocity": 50,
      "chip": "ym2612"
    },
    {
      "channel": 0,
      "note": 45,
      "start": 18.5054,
      "duration": 0.0607,
      "velocity": 118,
      "chip": "ym2612"
    },
    {
      "channel": 4,
      "note": 82,
      "start": 18.5419,
      "duration": 0.0805,
      "velocity": 50,
      "chip": "ym2612"
    },
    {
      "channel": 2,
      "note": 84,
      "start": 18.5445,
      "duration": 0.1112,
      "velocity": 50,
      "chip": "ym2612"
    },
    {
      "channel": 3,
      "note": 86,
      "start": 18.5856,
      "duration": 0.2032,
      "velocity": 50,
      "chip": "ym2612"
    },
    {
      "channel": 0,
      "note": 45,
      "start": 18.5918,
      "duration": 0.2137,
      "velocity": 118,
      "chip": "ym2612"
    },
    {
      "channel": 2,
      "note": 82,
      "start": 18.7099,
      "duration": 0.1625,
      "velocity": 50,
      "chip": "ym2612"
    },
    {
      "channel": 4,
      "note": 86,
      "start": 18.8428,
      "duration": 0.1505,
      "velocity": 50,
      "chip": "ym2612"
    },
    {
      "channel": 0,
      "note": 45,
      "start": 18.859,
      "duration": 0.0797,
      "velocity": 118,
      "chip": "ym2612"
    },
    {
      "channel": 0,
      "note": 45,
      "start": 18.9586,
      "duration": 0.1505,
      "velocity": 118,
      "chip": "ym2612"
    },
    {
      "channel": 3,
      "note": 78,
      "start": 18.9651,
      "duration": 0.0576,
      "velocity": 50,
      "chip": "ym2612"
    },
    {
      "channel": 2,
      "note": 86,
      "start": 19.008,
      "duration": 0.0708,
      "velocity": 50,
      "chip": "ym2612"
    },
    {
      "channel": 4,
      "note": 78,
      "start": 19.0558,
      "duration": 0.0534,
      "velocity": 50,
      "chip": "ym2612"
    },
    {
      "channel": 3,
      "note": 79,
      "start": 19.0986,
      "duration": 0.0598,
      "velocity": 50,
      "chip": "ym2612"
    },
    {
      "channel": 2,
      "note": 78,
      "start": 19.1456,
      "duration": 0.0534,
      "velocity": 50,
      "chip": "ym2612"
    },
    {
      "channel": 4,
      "note": 79,
      "start": 19.1825,
      "duration": 0.069,
      "velocity": 50,
      "chip": "ym2612"
    },
    {
      "channel": 0,
      "note": 45,
      "start": 19.2276,
      "duration": 0.4029,
      "velocity": 118,
      "chip": "ym2612"
    },
    {
      "channel": 3,
      "note": 92,
      "start": 19.2342,
      "duration": 0.0332,
      "velocity": 50,
      "chip": "ym2612"
    },
    {
      "channel": 1,
      "note": 54,
      "start": 19.2379,
      "duration": 0.0583,
      "velocity": 111,
      "chip": "ym2612"
    },
    {
      "channel": 3,
      "note": 93,
      "start": 19.2755,
      "duration": 0.0316,
      "velocity": 50,
      "chip": "ym2612"
    },
    {
      "channel": 2,
      "note": 82,
      "start": 19.2819,
      "duration": 0.0207,
      "velocity": 85,
      "chip": "ym2612"
    },
    {
      "channel": 2,
      "note": 82,
      "start": 19.3343,
      "duration": 0.0798,
      "velocity": 85,
      "chip": "ym2612"
    },
    {
      "channel": 3,
      "note": 92,
      "start": 19.3369,
      "duration": 0.0937,
      "velocity": 50,
      "chip": "ym2612"
    },
    {
      "channel": 1,
      "note": 52,
      "start": 19.3398,
      "duration": 0.2242,
      "velocity": 111,
      "chip": "ym2612"
    },
    {
      "channel": 4,
      "note": 92,
      "start": 19.3427,
      "duration": 0.0881,
      "velocity": 50,
      "chip": "ym2612"
    },
    {
      "channel": 3,
      "note": 88,
      "start": 19.4677,
      "duration": 0.0464,
      "velocity": 50,
      "chip": "ym2612"
    },
    {
      "channel": 4,
      "note": 93,
      "start": 19.4705,
      "duration": 0.0936,
      "velocity": 50,
      "chip": "ym2612"
    },
    {
      "channel": 5,
      "note": 49,
      "start": 19.5846,
      "duration": 0.2462,
      "velocity": 125,
      "chip": "ym2612"
    },
    {
      "channel": 2,
      "note": 82,
      "start": 19.5874,
      "duration": 0.1768,
      "velocity": 85,
      "chip": "ym2612"
    },
    {
      "channel": 1,
      "note": 57,
      "start": 19.5906,
      "duration": 0.1733,
      "velocity": 111,
      "chip": "ym2612"
    },
    {
      "channel": 4,
      "note": 92,
      "start": 19.5936,
      "duration": 0.1039,
      "velocity": 50,
      "chip": "ym2612"
    },
    {
      "channel": 3,
      "note": 92,
      "start": 19.5967,
      "duration": 0.1006,
      "velocity": 50,
      "chip": "ym2612"
    },
    {
      "channel": 4,
      "note": 88,
      "start": 19.718,
      "duration": 0.0627,
      "velocity": 50,
      "chip": "ym2612"
    },
    {
      "channel": 3,
      "note": 93,
      "start": 19.7206,
      "duration": 0.11,
      "velocity": 50,
      "chip": "ym2612"
    },
    {
      "channel": 0,
      "note": 45,
      "start": 19.8504,
      "duration": 0.1897,
      "velocity": 118,
      "chip": "ym2612"
    },
    {
      "channel": 3,
      "note": 92,
      "start": 19.8565,
      "duration": 0.0288,
      "velocity": 50,
      "chip": "ym2612"
    },
    {
      "channel": 1,
      "note": 56,
      "start": 19.8998,
      "duration": 0.0735,
      "velocity": 111,
      "chip": "ym2612"
    },
    {
      "channel": 3,
      "note": 88,
      "start": 19.9024,
      "duration": 0.017,
      "velocity": 50,
      "chip": "ym2612"
    },
    {
      "channel": 2,
      "note": 90,
      "start": 19.9441,
      "duration": 0.1129,
      "velocity": 50,
      "chip": "ym2612"
    },
    {
      "channel": 2,
      "note": 88,
      "start": 20.077,
      "duration": 0.0614,
      "velocity": 50,
      "chip": "ym2612"
    },
    {
      "channel": 0,
      "note": 45,
      "start": 20.1098,
      "duration": 0.274,
      "velocity": 118,
      "chip": "ym2612"
    },
    {
      "channel": 2,
      "note": 62,
      "start": 20.1473,
      "duration": 0.042,
      "velocity": 96,
      "chip": "ym2612"
    },
    {
      "channel": 4,
      "note": 85,
      "start": 20.1497,
      "duration": 0.034,
      "velocity": 50,
      "chip": "ym2612"
    },
    {
      "channel": 3,
      "note": 90,
      "start": 20.1525,
      "duration": 0.0312,
      "velocity": 50,
      "chip": "ym2612"
    },
    {
      "channel": 4,
      "note": 83,
      "start": 20.1921,
      "duration": 0.1586,
      "velocity": 50,
      "chip": "ym2612"
    },
    {
      "channel": 3,
      "note": 88,
      "start": 20.1961,
      "duration": 0.0879,
      "velocity": 50,
      "chip": "ym2612"
    },
    {
      "channel": 1,
      "note": 66,
      "start": 20.288,
      "duration": 0.9125,
      "velocity": 112,
      "chip": "ym2612"
    },
    {
      "channel": 5,
      "note": 49,
      "start": 20.3207,
      "duration": 0.1634,
      "velocity": 125,
      "chip": "ym2612"
    },
    {
      "channel": 2,
      "note": 47,
      "start": 20.3242,
      "duration": 0.2267,
      "velocity": 111,
      "chip": "ym2612"
    },
    {
      "channel": 3,
      "note": 85,
      "start": 20.3268,
      "duration": 0.0011,
      "velocity": 50,
      "chip": "ym2612"
    },
    {
      "channel": 3,
      "note": 90,
      "start": 20.3298,
      "duration": 0.0875,
      "velocity": 50,
      "chip": "ym2612"
    },
    {
      "channel": 4,
      "note": 83,
      "start": 20.4382,
      "duration": 0.1792,
      "velocity": 50,
      "chip": "ym2612"
    },
    {
      "channel": 3,
      "note": 88,
      "start": 20.4407,
      "duration": 0.1099,
      "velocity": 50,
      "chip": "ym2612"
    },
    {
      "channel": 2,
      "note": 46,
      "start": 20.5716,
      "duration": 0.2125,
      "velocity": 111,
      "chip": "ym2612"
    },
    {
      "channel": 3,
      "note": 85,
      "start": 20.5743,
      "duration": 0.1097,
      "velocity": 50,
      "chip": "ym2612"
    },
    {
      "channel": 3,
      "note": 83,
      "start": 20.7051,
      "duration": 0.1623,
      "velocity": 50,
      "chip": "ym2612"
    },
    {
      "channel": 0,
      "note": 54,
      "start": 20.8215,
      "duration": 1.7624,
      "velocity": 112,
      "chip": "ym2612"
    },
    {
      "channel": 5,
      "note": 45,
      "start": 20.8374,
      "duration": 0.23,
      "velocity": 118,
      "chip": "ym2612"
    },
    {
      "channel": 2,
      "note": 82,
      "start": 20.9873,
      "duration": 0.0635,
      "velocity": 85,
      "chip": "ym2612"
    },
    {
      "channel": 5,
      "note": 45,
      "start": 21.0877,
      "duration": 0.263,
      "velocity": 118,
      "chip": "ym2612"
    },
    {
      "channel": 2,
      "note": 82,
      "start": 21.091,
      "duration": 0.1099,
      "velocity": 85,
      "chip": "ym2612"
    },
    {
      "channel": 4,
      "note": 83,
      "start": 21.0946,
      "duration": 0.1062,
      "velocity": 50,
      "chip": "ym2612"
    },
    {
      "channel": 4,
      "note": 85,
      "start": 21.2209,
      "duration": 0.0797,
      "velocity": 50,
      "chip": "ym2612"
    },
    {
      "channel": 3,
      "note": 49,
      "start": 21.3541,
      "duration": 0.2299,
      "velocity": 125,
      "chip": "ym2612"
    },
    {
      "channel": 2,
      "note": 82,
      "start": 21.3568,
      "duration": 0.1441,
      "velocity": 85,
      "chip": "ym2612"
    },
    {
      "channel": 4,
      "note": 88,
      "start": 21.3596,
      "duration": 0.1078,
      "velocity": 50,
      "chip": "ym2612"
    },
    {
      "channel": 1,
      "note": 83,
      "start": 21.3629,
      "duration": 0.1044,
      "velocity": 50,
      "chip": "ym2612"
    },
    {
      "channel": 4,
      "note": 85,
      "start": 21.4873,
      "duration": 0.0968,
      "velocity": 50,
      "chip": "ym2612"
    },
    {
      "channel": 1,
      "note": 85,
      "start": 21.4906,
      "duration": 0.0767,
      "velocity": 50,
      "chip": "ym2612"
    },
    {
      "channel": 5,
      "note": 45,
      "start": 21.6204,
      "duration": 0.4469,
      "velocity": 118,
      "chip": "ym2612"
    },
    {
      "channel": 4,
      "note": 83,
      "start": 21.6239,
      "duration": 0.0936,
      "velocity": 50,
      "chip": "ym2612"
    },
    {
      "channel": 1,
      "note": 88,
      "start": 21.6267,
      "duration": 0.0905,
      "velocity": 50,
      "chip": "ym2612"
    },
    {
      "channel": 2,
      "note": 83,
      "start": 21.6298,
      "duration": 0.0878,
      "velocity": 50,
      "chip": "ym2612"
    },
    {
      "channel": 4,
      "note": 82,
      "start": 21.7375,
      "duration": 0.1133,
      "velocity": 50,
      "chip": "ym2612"
    },
    {
      "channel": 1,
      "note": 85,
      "start": 21.7403,
      "duration": 0.1104,
      "velocity": 50,
      "chip": "ym2612"
    },
    {
      "channel": 2,
      "note": 85,
      "start": 21.7432,
      "duration": 0.0909,
      "velocity": 50,
      "chip": "ym2612"
    },
    {
      "channel": 2,
      "note": 82,
      "start": 21.8704,
      "duration": 0.1471,
      "velocity": 85,
      "chip": "ym2612"
    },
    {
      "channel": 1,
      "note": 83,
      "start": 21.8734,
      "duration": 0.1106,
      "velocity": 50,
      "chip": "ym2612"
    },
    {
      "channel": 3,
      "note": 88,
      "start": 21.8762,
      "duration": 0.1079,
      "velocity": 50,
      "chip": "ym2612"
    },
    {
      "channel": 4,
      "note": 85,
      "start": 22.0042,
      "duration": 0.1134,
      "velocity": 50,
      "chip": "ym2612"
    },
    {
      "channel": 1,
      "note": 82,
      "start": 22.0071,
      "duration": 0.1102,
      "velocity": 50,
      "chip": "ym2612"
    },
    {
      "channel": 3,
      "note": 85,
      "start": 22.0096,
      "duration": 0.1078,
      "velocity": 50,
      "chip": "ym2612"
    },
    {
      "channel": 5,
      "note": 45,
      "start": 22.1372,
      "duration": 0.347,
      "velocity": 118,
      "chip": "ym2612"
    },
    {
      "channel": 4,
      "note": 80,
      "start": 22.1409,
      "duration": 0.0933,
      "velocity": 50,
      "chip": "ym2612"
    },
    {
      "channel": 3,
      "note": 83,
      "start": 22.1438,
      "duration": 0.0903,
      "velocity": 50,
      "chip": "ym2612"
    },
    {
      "channel": 1,
      "note": 85,
      "start": 22.2711,
      "duration": 0.0962,
      "velocity": 50,
      "chip": "ym2612"
    },
    {
      "channel": 3,
      "note": 82,
      "start": 22.2738,
      "duration": 0.0936,
      "velocity": 50,
      "chip": "ym2612"
    },
    {
      "channel": 2,
      "note": 82,
      "start": 22.2877,
      "duration": 0.0965,
      "velocity": 85,
      "chip": "ym2612"
    },
    {
      "channel": 4,
      "note": 49,
      "start": 22.3878,
      "duration": 0.2464,
      "velocity": 125,
      "chip": "ym2612"
    },
    {
      "channel": 1,
      "note": 80,
      "start": 22.391,
      "duration": 0.1096,
      "velocity": 50,
      "chip": "ym2612"
    },
    {
      "channel": 3,
      "note": 85,
      "start": 22.5212,
      "duration": 0.1128,
      "velocity": 50,
      "chip": "ym2612"
    },
    {
      "channel": 2,
      "note": 52,
      "start": 22.5552,
      "duration": 0.0978,
      "velocity": 111,
      "chip": "ym2612"
    },
    {
      "channel": 2,
      "note": 62,
      "start": 22.6549,
      "duration": 0.2125,
      "velocity": 96,
      "chip": "ym2612"
    },
    {
      "channel": 3,
      "note": 80,
      "start": 22.6584,
      "duration": 0.1089,
      "velocity": 50,
      "chip": "ym2612"
    },
    {
      "channel": 0,
      "note": 58,
      "start": 22.855,
      "duration": 2.0122,
      "velocity": 112,
      "chip": "ym2612"
    },
    {
      "channel": 5,
      "note": 45,
      "start": 22.9204,
      "duration": 0.5471,
      "velocity": 118,
      "chip": "ym2612"
    },
    {
      "channel": 1,
      "note": 51,
      "start": 22.9248,
      "duration": 0.2758,
      "velocity": 111,
      "chip": "ym2612"
    },
    {
      "channel": 2,
      "note": 82,
      "start": 23.0706,
      "duration": 0.0635,
      "velocity": 85,
      "chip": "ym2612"
    },
    {
      "channel": 2,
      "note": 82,
      "start": 23.1707,
      "duration": 0.0802,
      "velocity": 85,
      "chip": "ym2612"
    },
    {
      "channel": 4,
      "note": 92,
      "start": 23.1742,
      "duration": 0.1765,
      "velocity": 50,
      "chip": "ym2612"
    },
    {
      "channel": 3,
      "note": 49,
      "start": 23.4372,
      "duration": 0.2301,
      "velocity": 125,
      "chip": "ym2612"
    },
    {
      "channel": 2,
      "note": 82,
      "start": 23.44,
      "duration": 0.161,
      "velocity": 85,
      "chip": "ym2612"
    },
    {
      "channel": 4,
      "note": 87,
      "start": 23.4429,
      "duration": 0.2411,
      "velocity": 50,
      "chip": "ym2612"
    },
    {
      "channel": 1,
      "note": 92,
      "start": 23.4463,
      "duration": 0.1543,
      "velocity": 50,
      "chip": "ym2612"
    },
    {
      "channel": 5,
      "note": 45,
      "start": 23.6874,
      "duration": 0.3466,
      "velocity": 118,
      "chip": "ym2612"
    },
    {
      "channel": 1,
      "note": 87,
      "start": 23.6919,
      "duration": 0.2588,
      "velocity": 50,
      "chip": "ym2612"
    },
    {
      "channel": 2,
      "note": 92,
      "start": 23.695,
      "duration": 0.1725,
      "velocity": 50,
      "chip": "ym2612"
    },
    {
      "channel": 4,
      "note": 85,
      "start": 23.8209,
      "duration": 0.3464,
      "velocity": 50,
      "chip": "ym2612"
    },
    {
      "channel": 2,
      "note": 87,
      "start": 23.9551,
      "duration": 0.2624,
      "velocity": 50,
      "chip": "ym2612"
    },
    {
      "channel": 1,
      "note": 85,
      "start": 24.0878,
      "duration": 0.3462,
      "velocity": 50,
      "chip": "ym2612"
    },
    {
      "channel": 5,
      "note": 45,
      "start": 24.1039,
      "duration": 0.3802,
      "velocity": 118,
      "chip": "ym2612"
    },
    {
      "channel": 2,
      "note": 62,
      "start": 24.2209,
      "duration": 0.1132,
      "velocity": 96,
      "chip": "ym2612"
    },
    {
      "channel": 4,
      "note": 90,
      "start": 24.2238,
      "duration": 0.1602,
      "velocity": 50,
      "chip": "ym2612"
    },
    {
      "channel": 3,
      "note": 85,
      "start": 24.3382,
      "duration": 0.3458,
      "velocity": 50,
      "chip": "ym2612"
    },
    {
      "channel": 2,
      "note": 49,
      "start": 24.4707,
      "duration": 0.1802,
      "velocity": 125,
      "chip": "ym2612"
    },
    {
      "channel": 4,
      "note": 88,
      "start": 24.4735,
      "duration": 0.1772,
      "velocity": 50,
      "chip": "ym2612"
    },
    {
      "channel": 1,
      "note": 90,
      "start": 24.4766,
      "duration": 0.174,
      "velocity": 50,
      "chip": "ym2612"
    },
    {
      "channel": 4,
      "note": 83,
      "start": 24.7375,
      "duration": 0.1634,
      "velocity": 50,
      "chip": "ym2612"
    },
    {
      "channel": 5,
      "note": 47,
      "start": 24.7407,
      "duration": 0.2267,
      "velocity": 111,
      "chip": "ym2612"
    },
    {
      "channel": 1,
      "note": 88,
      "start": 24.7432,
      "duration": 0.1574,
      "velocity": 50,
      "chip": "ym2612"
    },
    {
      "channel": 3,
      "note": 90,
      "start": 24.7461,
      "duration": 0.1546,
      "velocity": 50,
      "chip": "ym2612"
    },
    {
      "channel": 0,
      "note": 66,
      "start": 24.9213,
      "duration": 3.0619,
      "velocity": 112,
      "chip": "ym2612"
    },
    {
      "channel": 2,
      "note": 45,
      "start": 24.9877,
      "duration": 0.4068,
      "velocity": 118,
      "chip": "ym2612"
    },
    {
      "channel": 1,
      "note": 46,
      "start": 24.9944,
      "duration": 0.0999,
      "velocity": 111,
      "chip": "ym2612"
    },
    {
      "channel": 3,
      "note": 83,
      "start": 24.9968,
      "duration": 0.0394,
      "velocity": 50,
      "chip": "ym2612"
    },
    {
      "channel": 4,
      "note": 88,
      "start": 24.9991,
      "duration": 0.0528,
      "velocity": 50,
      "chip": "ym2612"
    },
    {
      "channel": 3,
      "note": 82,
      "start": 25.0381,
      "duration": 0.0246,
      "velocity": 50,
      "chip": "ym2612"
    },
    {
      "channel": 3,
      "note": 87,
      "start": 25.0991,
      "duration": 0.1951,
      "velocity": 50,
      "chip": "ym2612"
    },
    {
      "channel": 4,
      "note": 83,
      "start": 25.1022,
      "duration": 0.1588,
      "velocity": 50,
      "chip": "ym2612"
    },
    {
      "channel": 5,
      "note": 82,
      "start": 25.2318,
      "duration": 0.0793,
      "velocity": 50,
      "chip": "ym2612"
    },
    {
      "channel": 1,
      "note": 49,
      "start": 25.3646,
      "duration": 0.1782,
      "velocity": 125,
      "chip": "ym2612"
    },
    {
      "channel": 5,
      "note": 87,
      "start": 25.3688,
      "duration": 0.1464,
      "velocity": 50,
      "chip": "ym2612"
    },
    {
      "channel": 3,
      "note": 85,
      "start": 25.4813,
      "duration": 0.0562,
      "velocity": 50,
      "chip": "ym2612"
    },
    {
      "channel": 4,
      "note": 82,
      "start": 25.4849,
      "duration": 0.0526,
      "velocity": 50,
      "chip": "ym2612"
    },
    {
      "channel": 2,
      "note": 45,
      "start": 25.5143,
      "duration": 0.0627,
      "velocity": 118,
      "chip": "ym2612"
    },
    {
      "channel": 3,
      "note": 80,
      "start": 25.5512,
      "duration": 0.0362,
      "velocity": 50,
      "chip": "ym2612"
    },
    {
      "channel": 4,
      "note": 87,
      "start": 25.5548,
      "duration": 0.0716,
      "velocity": 50,
      "chip": "ym2612"
    },
    {
      "channel": 3,
      "note": 78,
      "start": 25.5968,
      "duration": 0.0399,
      "velocity": 50,
      "chip": "ym2612"
    },
    {
      "channel": 1,
      "note": 85,
      "start": 25.6004,
      "duration": 0.0307,
      "velocity": 50,
      "chip": "ym2612"
    },
    {
      "channel": 2,
      "note": 45,
      "start": 25.6083,
      "duration": 0.0722,
      "velocity": 118,
      "chip": "ym2612"
    },
    {
      "channel": 1,
      "note": 80,
      "start": 25.6513,
      "duration": 0.0289,
      "velocity": 50,
      "chip": "ym2612"
    },
    {
      "channel": 3,
      "note": 83,
      "start": 25.703,
      "duration": 0.0453,
      "velocity": 50,
      "chip": "ym2612"
    },
    {
      "channel": 1,
      "note": 78,
      "start": 25.7059,
      "duration": 0.0423,
      "velocity": 50,
      "chip": "ym2612"
    },
    {
      "channel": 4,
      "note": 85,
      "start": 25.7087,
      "duration": 0.034,
      "velocity": 50,
      "chip": "ym2612"
    },
    {
      "channel": 2,
      "note": 45,
      "start": 25.7194,
      "duration": 0.029,
      "velocity": 118,
      "chip": "ym2612"
    },
    {
      "channel": 2,
      "note": 45,
      "start": 25.7561,
      "duration": 0.1599,
      "velocity": 118,
      "chip": "ym2612"
    },
    {
      "channel": 3,
      "note": 82,
      "start": 25.7637,
      "duration": 0.0659,
      "velocity": 50,
      "chip": "ym2612"
    },
    {
      "channel": 4,
      "note": 80,
      "start": 25.7662,
      "duration": 0.0302,
      "velocity": 50,
      "chip": "ym2612"
    },
    {
      "channel": 1,
      "note": 83,
      "start": 25.8047,
      "duration": 0.0351,
      "velocity": 50,
      "chip": "ym2612"
    },
    {
      "channel": 4,
      "note": 78,
      "start": 25.8071,
      "duration": 0.0328,
      "velocity": 50,
      "chip": "ym2612"
    },
    {
      "channel": 3,
      "note": 49,
      "start": 25.8608,
      "duration": 0.0416,
      "velocity": 111,
      "chip": "ym2612"
    },
    {
      "channel": 1,
      "note": 82,
      "start": 25.8633,
      "duration": 0.0494,
      "velocity": 50,
      "chip": "ym2612"
    },
    {
      "channel": 4,
      "note": 76,
      "start": 25.9064,
      "duration": 0.0257,
      "velocity": 50,
      "chip": "ym2612"
    },
    {
      "channel": 3,
      "note": 83,
      "start": 25.9092,
      "duration": 0.0283,
      "velocity": 50,
      "chip": "ym2612"
    },
    {
      "channel": 1,
      "note": 51,
      "start": 25.9146,
      "duration": 0.0335,
      "velocity": 111,
      "chip": "ym2612"
    },
    {
      "channel": 2,
      "note": 62,
      "start": 25.952,
      "duration": 0.1315,
      "velocity": 96,
      "chip": "ym2612"
    },
    {
      "channel": 4,
      "note": 75,
      "start": 25.9544,
      "duration": 0.0297,
      "velocity": 50,
      "chip": "ym2612"
    },
    {
      "channel": 1,
      "note": 46,
      "start": 25.9571,
      "duration": 0.0321,
      "velocity": 111,
      "chip": "ym2612"
    },
    {
      "channel": 3,
      "note": 82,
      "start": 25.9607,
      "duration": 0.1225,
      "velocity": 50,
      "chip": "ym2612"
    },
    {
      "channel": 4,
      "note": 80,
      "start": 25.9921,
      "duration": 0.041,
      "velocity": 50,
      "chip": "ym2612"
    },
    {
      "channel": 1,
      "note": 76,
      "start": 25.9961,
      "duration": 0.087,
      "velocity": 50,
      "chip": "ym2612"
    },
    {
      "channel": 5,
      "note": 45,
      "start": 26.1219,
      "duration": 0.5613,
      "velocity": 118,
      "chip": "ym2612"
    },
    {
      "channel": 1,
      "note": 75,
      "start": 26.1384,
      "duration": 0.0947,
      "velocity": 50,
      "chip": "ym2612"
    },
    {
      "channel": 1,
      "note": 80,
      "start": 26.2541,
      "duration": 0.0456,
      "velocity": 50,
      "chip": "ym2612"
    },
    {
      "channel": 3,
      "note": 76,
      "start": 26.257,
      "duration": 0.0762,
      "velocity": 50,
      "chip": "ym2612"
    },
    {
      "channel": 2,
      "note": 82,
      "start": 26.2698,
      "duration": 0.0636,
      "velocity": 85,
      "chip": "ym2612"
    },
    {
      "channel": 2,
      "note": 82,
      "start": 26.3868,
      "duration": 0.0797,
      "velocity": 85,
      "chip": "ym2612"
    },
    {
      "channel": 4,
      "note": 78,
      "start": 26.3898,
      "duration": 0.0934,
      "velocity": 50,
      "chip": "ym2612"
    },
    {
      "channel": 3,
      "note": 75,
      "start": 26.3929,
      "duration": 0.0902,
      "velocity": 50,
      "chip": "ym2612"
    },
    {
      "channel": 4,
      "note": 82,
      "start": 26.52,
      "duration": 0.03,
      "velocity": 50,
      "chip": "ym2612"
    },
    {
      "channel": 3,
      "note": 80,
      "start": 26.5233,
      "duration": 0.0265,
      "velocity": 50,
      "chip": "ym2612"
    },
    {
      "channel": 1,
      "note": 49,
      "start": 26.6367,
      "duration": 0.2463,
      "velocity": 125,
      "chip": "ym2612"
    },
    {
      "channel": 2,
      "note": 82,
      "start": 26.6395,
      "duration": 0.1772,
      "velocity": 85,
      "chip": "ym2612"
    },
    {
      "channel": 4,
      "note": 87,
      "start": 26.6429,
      "duration": 0.1071,
      "velocity": 50,
      "chip": "ym2612"
    },
    {
      "channel": 3,
      "note": 78,
      "start": 26.6461,
      "duration": 0.1037,
      "velocity": 50,
      "chip": "ym2612"
    },
    {
      "channel": 4,
      "note": 78,
      "start": 26.77,
      "duration": 0.0465,
      "velocity": 50,
      "chip": "ym2612"
    },
    {
      "channel": 3,
      "note": 82,
      "start": 26.773,
      "duration": 0.0434,
      "velocity": 50,
      "chip": "ym2612"
    },
    {
      "channel": 5,
      "note": 45,
      "start": 26.903,
      "duration": 0.3469,
      "velocity": 118,
      "chip": "ym2612"
    },
    {
      "channel": 4,
      "note": 90,
      "start": 26.9071,
      "duration": 0.0927,
      "velocity": 50,
      "chip": "ym2612"
    },
    {
      "channel": 3,
      "note": 87,
      "start": 26.91,
      "duration": 0.0897,
      "velocity": 50,
      "chip": "ym2612"
    },
    {
      "channel": 2,
      "note": 78,
      "start": 26.9132,
      "duration": 0.0869,
      "velocity": 50,
      "chip": "ym2612"
    },
    {
      "channel": 4,
      "note": 82,
      "start": 27.0366,
      "duration": 0.0299,
      "velocity": 50,
      "chip": "ym2612"
    },
    {
      "channel": 3,
      "note": 78,
      "start": 27.0396,
      "duration": 0.0268,
      "velocity": 50,
      "chip": "ym2612"
    },
    {
      "channel": 2,
      "note": 82,
      "start": 27.0425,
      "duration": 0.0242,
      "velocity": 50,
      "chip": "ym2612"
    },
    {
      "channel": 4,
      "note": 88,
      "start": 27.1542,
      "duration": 0.1125,
      "velocity": 50,
      "chip": "ym2612"
    },
    {
      "channel": 3,
      "note": 90,
      "start": 27.1583,
      "duration": 0.1082,
      "velocity": 50,
      "chip": "ym2612"
    },
    {
      "channel": 2,
      "note": 87,
      "start": 27.1624,
      "duration": 0.1044,
      "velocity": 50,
      "chip": "ym2612"
    },
    {
      "channel": 4,
      "note": 85,
      "start": 27.2867,
      "duration": 0.0465,
      "velocity": 50,
      "chip": "ym2612"
    },
    {
      "channel": 3,
      "note": 82,
      "start": 27.2896,
      "duration": 0.0434,
      "velocity": 50,
      "chip": "ym2612"
    },
    {
      "channel": 2,
      "note": 78,
      "start": 27.2925,
      "duration": 0.0408,
      "velocity": 50,
      "chip": "ym2612"
    },
    {
      "channel": 5,
      "note": 45,
      "start": 27.3197,
      "duration": 0.4304,
      "velocity": 118,
      "chip": "ym2612"
    },
    {
      "channel": 2,
      "note": 62,
      "start": 27.4208,
      "duration": 0.1293,
      "velocity": 96,
      "chip": "ym2612"
    },
    {
      "channel": 4,
      "note": 90,
      "start": 27.4248,
      "duration": 0.1087,
      "velocity": 50,
      "chip": "ym2612"
    },
    {
      "channel": 3,
      "note": 88,
      "start": 27.4285,
      "duration": 0.1049,
      "velocity": 50,
      "chip": "ym2612"
    },
    {
      "channel": 1,
      "note": 90,
      "start": 27.4323,
      "duration": 0.101,
      "velocity": 50,
      "chip": "ym2612"
    },
    {
      "channel": 4,
      "note": 85,
      "start": 27.5537,
      "duration": 0.0298,
      "velocity": 50,
      "chip": "ym2612"
    },
    {
      "channel": 3,
      "note": 85,
      "start": 27.5566,
      "duration": 0.0267,
      "velocity": 50,
      "chip": "ym2612"
    },
    {
      "channel": 1,
      "note": 82,
      "start": 27.5593,
      "duration": 0.0239,
      "velocity": 50,
      "chip": "ym2612"
    },
    {
      "channel": 2,
      "note": 49,
      "start": 27.6867,
      "duration": 0.1635,
      "velocity": 125,
      "chip": "ym2612"
    },
    {
      "channel": 4,
      "note": 82,
      "start": 27.6906,
      "duration": 0.0929,
      "velocity": 50,
      "chip": "ym2612"
    },
    {
      "channel": 3,
      "note": 90,
      "start": 27.6935,
      "duration": 0.0899,
      "velocity": 50,
      "chip": "ym2612"
    },
    {
      "channel": 1,
      "note": 88,
      "start": 27.6965,
      "duration": 0.0867,
      "velocity": 50,
      "chip": "ym2612"
    },
    {
      "channel": 4,
      "note": 73,
      "start": 27.8038,
      "duration": 0.0463,
      "velocity": 50,
      "chip": "ym2612"
    },
    {
      "channel": 3,
      "note": 85,
      "start": 27.8079,
      "duration": 0.042,
      "velocity": 50,
      "chip": "ym2612"
    },
    {
      "channel": 1,
      "note": 85,
      "start": 27.8114,
      "duration": 0.0384,
      "velocity": 50,
      "chip": "ym2612"
    },
    {
      "channel": 3,
      "note": 82,
      "start": 27.9371,
      "duration": 0.1128,
      "velocity": 50,
      "chip": "ym2612"
    },
    {
      "channel": 1,
      "note": 90,
      "start": 27.9399,
      "duration": 0.1099,
      "velocity": 50,
      "chip": "ym2612"
    },
    {
      "channel": 3,
      "note": 73,
      "start": 28.0707,
      "duration": 0.0459,
      "velocity": 50,
      "chip": "ym2612"
    },
    {
      "channel": 1,
      "note": 85,
      "start": 28.0745,
      "duration": 0.0419,
      "velocity": 50,
      "chip": "ym2612"
    },
    {
      "channel": 5,
      "note": 45,
      "start": 28.2031,
      "duration": 0.2301,
      "velocity": 118,
      "chip": "ym2612"
    },
    {
      "channel": 1,
      "note": 82,
      "start": 28.208,
      "duration": 0.0918,
      "velocity": 50,
      "chip": "ym2612"
    },
    {
      "channel": 1,
      "note": 73,
      "start": 28.3372,
      "duration": 0.0292,
      "velocity": 50,
      "chip": "ym2612"
    },
    {
      "channel": 2,
      "note": 82,
      "start": 28.353,
      "duration": 0.0636,
      "velocity": 85,
      "chip": "ym2612"
    },
    {
      "channel": 5,
      "note": 45,
      "start": 28.4534,
      "duration": 0.2631,
      "velocity": 118,
      "chip": "ym2612"
    },
    {
      "channel": 2,
      "note": 82,
      "start": 28.4568,
      "duration": 0.1098,
      "velocity": 85,
      "chip": "ym2612"
    },
    {
      "channel": 4,
      "note": 49,
      "start": 28.7203,
      "duration": 0.2295,
      "velocity": 125,
      "chip": "ym2612"
    },
    {
      "channel": 2,
      "note": 82,
      "start": 28.723,
      "duration": 0.1437,
      "velocity": 85,
      "chip": "ym2612"
    },
    {
      "channel": 1,
      "note": 82,
      "start": 28.7268,
      "duration": 0.1063,
      "velocity": 50,
      "chip": "ym2612"
    },
    {
      "channel": 1,
      "note": 73,
      "start": 28.8539,
      "duration": 0.0791,
      "velocity": 50,
      "chip": "ym2612"
    },
    {
      "channel": 5,
      "note": 45,
      "start": 28.9862,
      "duration": 0.4471,
      "velocity": 118,
      "chip": "ym2612"
    },
    {
      "channel": 2,
      "note": 82,
      "start": 29.2365,
      "duration": 0.1468,
      "velocity": 85,
      "chip": "ym2612"
    },
    {
      "channel": 1,
      "note": 82,
      "start": 29.2404,
      "duration": 0.0761,
      "velocity": 50,
      "chip": "ym2612"
    },
    {
      "channel": 1,
      "note": 73,
      "start": 29.3704,
      "duration": 0.0794,
      "velocity": 50,
      "chip": "ym2612"
    },
    {
      "channel": 5,
      "note": 45,
      "start": 29.503,
      "duration": 0.3468,
      "velocity": 118,
      "chip": "ym2612"
    },
    {
      "channel": 2,
      "note": 81,
      "start": 29.507,
      "duration": 0.3763,
      "velocity": 104,
      "chip": "ym2612"
    },
    {
      "channel": 4,
      "note": 49,
      "start": 29.7538,
      "duration": 0.2461,
      "velocity": 125,
      "chip": "ym2612"
    },
    {
      "channel": 2,
      "note": 82,
      "start": 30.0197,
      "duration": 0.001,
      "velocity": 85,
      "chip": "ym2612"
    },
    {
      "channel": 2,
      "note": 62,
      "start": 30.0234,
      "duration": 0.21,
      "velocity": 96,
      "chip": "ym2612"
    },
    {
      "channel": 5,
      "note": 45,
      "start": 30.2863,
      "duration": 0.5469,
      "velocity": 118,
      "chip": "ym2612"
    },
    {
      "channel": 0,
      "note": 57,
      "start": 30.2921,
      "duration": 2.0409,
      "velocity": 112,
      "chip": "ym2612"
    },
    {
      "channel": 2,
      "note": 82,
      "start": 30.4364,
      "duration": 0.0636,
      "velocity": 85,
      "chip": "ym2612"
    },
    {
      "channel": 2,
      "note": 82,
      "start": 30.5364,
      "duration": 0.0803,
      "velocity": 85,
      "chip": "ym2612"
    },
    {
      "channel": 4,
      "note": 49,
      "start": 30.8029,
      "duration": 0.2302,
      "velocity": 125,
      "chip": "ym2612"
    },
    {
      "channel": 2,
      "note": 82,
      "start": 30.8061,
      "duration": 0.1606,
      "velocity": 85,
      "chip": "ym2612"
    },
    {
      "channel": 5,
      "note": 45,
      "start": 31.053,
      "duration": 0.3468,
      "velocity": 118,
      "chip": "ym2612"
    },
    {
      "channel": 5,
      "note": 45,
      "start": 31.4698,
      "duration": 0.3803,
      "velocity": 118,
      "chip": "ym2612"
    },
    {
      "channel": 2,
      "note": 62,
      "start": 31.5878,
      "duration": 0.1122,
      "velocity": 96,
      "chip": "ym2612"
    },
    {
      "channel": 4,
      "note": 49,
      "start": 31.8365,
      "duration": 0.1802,
      "velocity": 125,
      "chip": "ym2612"
    },
    {
      "channel": 0,
      "note": 45,
      "start": 32.3371,
      "duration": 4.1126,
      "velocity": 112,
      "chip": "ym2612"
    },
    {
      "channel": 5,
      "note": 45,
      "start": 32.3534,
      "duration": 0.5632,
      "velocity": 118,
      "chip": "ym2612"
    },
    {
      "channel": 2,
      "note": 82,
      "start": 32.503,
      "duration": 0.0636,
      "velocity": 85,
      "chip": "ym2612"
    },
    {
      "channel": 2,
      "note": 82,
      "start": 32.6198,
      "duration": 0.0968,
      "velocity": 85,
      "chip": "ym2612"
    },
    {
      "channel": 4,
      "note": 49,
      "start": 32.8864,
      "duration": 0.2301,
      "velocity": 125,
      "chip": "ym2612"
    },
    {
      "channel": 2,
      "note": 82,
      "start": 32.8891,
      "duration": 0.1443,
      "velocity": 85,
      "chip": "ym2612"
    },
    {
      "channel": 5,
      "note": 45,
      "start": 33.0366,
      "duration": 0.18,
      "velocity": 118,
      "chip": "ym2612"
    },
    {
      "channel": 5,
      "note": 45,
      "start": 33.2863,
      "duration": 0.2136,
      "velocity": 118,
      "chip": "ym2612"
    },
    {
      "channel": 2,
      "note": 82,
      "start": 33.4028,
      "duration": 0.1471,
      "velocity": 85,
      "chip": "ym2612"
    },
    {
      "channel": 5,
      "note": 45,
      "start": 33.5532,
      "duration": 0.08,
      "velocity": 118,
      "chip": "ym2612"
    },
    {
      "channel": 5,
      "note": 45,
      "start": 33.6531,
      "duration": 0.4303,
      "velocity": 118,
      "chip": "ym2612"
    },
    {
      "channel": 2,
      "note": 81,
      "start": 33.6576,
      "duration": 0.3924,
      "velocity": 104,
      "chip": "ym2612"
    },
    {
      "channel": 4,
      "note": 49,
      "start": 33.9203,
      "duration": 0.163,
      "velocity": 125,
      "chip": "ym2612"
    },
    {
      "channel": 2,
      "note": 62,
      "start": 34.1874,
      "duration": 0.2126,
      "velocity": 96,
      "chip": "ym2612"
    },
    {
      "channel": 5,
      "note": 45,
      "start": 34.4363,
      "duration": 0.5635,
      "velocity": 118,
      "chip": "ym2612"
    },
    {
      "channel": 3,
      "note": 60,
      "start": 34.4448,
      "duration": 0.1217,
      "velocity": 87,
      "chip": "ym2612"
    },
    {
      "channel": 2,
      "note": 82,
      "start": 34.5869,
      "duration": 0.0632,
      "velocity": 85,
      "chip": "ym2612"
    },
    {
      "channel": 3,
      "note": 61,
      "start": 34.5901,
      "duration": 0.1098,
      "velocity": 87,
      "chip": "ym2612"
    },
    {
      "channel": 2,
      "note": 82,
      "start": 34.7037,
      "duration": 0.0797,
      "velocity": 85,
      "chip": "ym2612"
    },
    {
      "channel": 3,
      "note": 67,
      "start": 34.7073,
      "duration": 0.0592,
      "velocity": 87,
      "chip": "ym2612"
    },
    {
      "channel": 4,
      "note": 49,
      "start": 34.953,
      "duration": 0.2468,
      "velocity": 125,
      "chip": "ym2612"
    },
    {
      "channel": 2,
      "note": 82,
      "start": 34.9559,
      "duration": 0.1773,
      "velocity": 85,
      "chip": "ym2612"
    },
    {
      "channel": 3,
      "note": 67,
      "start": 34.959,
      "duration": 0.1908,
      "velocity": 87,
      "chip": "ym2612"
    },
    {
      "channel": 5,
      "note": 45,
      "start": 35.2201,
      "duration": 0.3465,
      "velocity": 118,
      "chip": "ym2612"
    },
    {
      "channel": 3,
      "note": 60,
      "start": 35.2242,
      "duration": 0.1256,
      "velocity": 87,
      "chip": "ym2612"
    },
    {
      "channel": 3,
      "note": 61,
      "start": 35.3705,
      "duration": 0.0959,
      "velocity": 87,
      "chip": "ym2612"
    },
    {
      "channel": 3,
      "note": 67,
      "start": 35.4705,
      "duration": 0.096,
      "velocity": 87,
      "chip": "ym2612"
    },
    {
      "channel": 5,
      "note": 45,
      "start": 35.6363,
      "duration": 0.7969,
      "velocity": 118,
      "chip": "ym2612"
    },
    {
      "channel": 2,
      "note": 62,
      "start": 35.737,
      "duration": 0.413,
      "velocity": 96,
      "chip": "ym2612"
    },
    {
      "channel": 3,
      "note": 67,
      "start": 35.74,
      "duration": 0.1598,
      "velocity": 87,
      "chip": "ym2612"
    },
    {
      "channel": 4,
      "note": 49,
      "start": 36.0031,
      "duration": 0.1634,
      "velocity": 125,
      "chip": "ym2612"
    },
    {
      "channel": 3,
      "note": 69,
      "start": 36.0068,
      "duration": 0.2763,
      "velocity": 87,
      "chip": "ym2612"
    },
    {
      "channel": 5,
      "note": 45,
      "start": 36.5196,
      "duration": 0.2303,
      "velocity": 118,
      "chip": "ym2612"
    },
    {
      "channel": 3,
      "note": 60,
      "start": 36.5254,
      "duration": 0.0911,
      "velocity": 87,
      "chip": "ym2612"
    },
    {
      "channel": 2,
      "note": 82,
      "start": 36.6698,
      "duration": 0.0636,
      "velocity": 85,
      "chip": "ym2612"
    },
    {
      "channel": 3,
      "note": 61,
      "start": 36.6729,
      "duration": 0.0936,
      "velocity": 87,
      "chip": "ym2612"
    },
    {
      "channel": 5,
      "note": 45,
      "start": 36.7698,
      "duration": 0.2634,
      "velocity": 118,
      "chip": "ym2612"
    },
    {
      "channel": 2,
      "note": 82,
      "start": 36.7732,
      "duration": 0.1101,
      "velocity": 85,
      "chip": "ym2612"
    },
    {
      "channel": 3,
      "note": 67,
      "start": 36.7765,
      "duration": 0.0566,
      "velocity": 87,
      "chip": "ym2612"
    },
    {
      "channel": 4,
      "note": 49,
      "start": 37.0365,
      "duration": 0.2301,
      "velocity": 125,
      "chip": "ym2612"
    },
    {
      "channel": 2,
      "note": 82,
      "start": 37.0395,
      "duration": 0.1438,
      "velocity": 85,
      "chip": "ym2612"
    },
    {
      "channel": 3,
      "note": 67,
      "start": 37.0427,
      "duration": 0.2238,
      "velocity": 87,
      "chip": "ym2612"
    },
    {
      "channel": 5,
      "note": 45,
      "start": 37.303,
      "duration": 0.4468,
      "velocity": 118,
      "chip": "ym2612"
    },
    {
      "channel": 3,
      "note": 60,
      "start": 37.3069,
      "duration": 0.1095,
      "velocity": 87,
      "chip": "ym2612"
    },
    {
      "channel": 3,
      "note": 61,
      "start": 37.4542,
      "duration": 0.0957,
      "velocity": 87,
      "chip": "ym2612"
    },
    {
      "channel": 2,
      "note": 82,
      "start": 37.553,
      "duration": 0.1469,
      "velocity": 85,
      "chip": "ym2612"
    },
    {
      "channel": 3,
      "note": 67,
      "start": 37.5561,
      "duration": 0.1103,
      "velocity": 87,
      "chip": "ym2612"
    },
    {
      "channel": 3,
      "note": 55,
      "start": 37.7038,
      "duration": 0.3293,
      "velocity": 87,
      "chip": "ym2612"
    },
    {
      "channel": 5,
      "note": 45,
      "start": 37.8201,
      "duration": 0.4631,
      "velocity": 118,
      "chip": "ym2612"
    },
    {
      "channel": 2,
      "note": 81,
      "start": 37.824,
      "duration": 0.2926,
      "velocity": 104,
      "chip": "ym2612"
    },
    {
      "channel": 4,
      "note": 49,
      "start": 38.0701,
      "duration": 0.2464,
      "velocity": 125,
      "chip": "ym2612"
    },
    {
      "channel": 3,
      "note": 57,
      "start": 38.0734,
      "duration": 0.1763,
      "velocity": 87,
      "chip": "ym2612"
    },
    {
      "channel": 2,
      "note": 82,
      "start": 38.3363,
      "duration": 0.0013,
      "velocity": 85,
      "chip": "ym2612"
    },
    {
      "channel": 2,
      "note": 62,
      "start": 38.3395,
      "duration": 15.6095,
      "velocity": 96,
      "chip": "ym2612"
    }
  ]
}