{
  "track_name": "09 - T-Rex Attack",
  "duration_sec": 105.355,
  "sample_rate": 44100,
  "note_count": 1362,
  "unique_pitches": 35,
  "pitch_range": 65,
  "avg_note_duration": 0.2148,
  "reconstruction_stats": {
    "notes_reconstructed": 1362,
    "keyon_events": 1362,
    "keyoff_events": 1361,
    "orphan_keyons": 1,
    "unique_pitches": 35,
    "pitch_range": 65,
    "avg_duration_sec": 0.2148
  },
  "metadata": {
    "source": "J\\Jurassic Park - Rampage Edition\\09 - T-Rex Attack.vgz"
  },
  "notes": [
    {
      "channel": 5,
      "note": 74,
      "start": 0.5895,
      "duration": 0.0766,
      "velocity": 124,
      "chip": "ym2612"
    },
    {
      "channel": 0,
      "note": 81,
      "start": 0.6043,
      "duration": 6.0191,
      "velocity": 121,
      "chip": "ym2612"
    },
    {
      "channel": 5,
      "note": 76,
      "start": 0.7193,
      "duration": 0.0801,
      "velocity": 124,
      "chip": "ym2612"
    },
    {
      "channel": 5,
      "note": 69,
      "start": 0.8366,
      "duration": 0.0797,
      "velocity": 124,
      "chip": "ym2612"
    },
    {
      "channel": 5,
      "note": 76,
      "start": 0.9696,
      "duration": 0.0803,
      "velocity": 124,
      "chip": "ym2612"
    },
    {
      "channel": 5,
      "note": 74,
      "start": 1.0865,
      "duration": 0.0801,
      "velocity": 124,
      "chip": "ym2612"
    },
    {
      "channel": 5,
      "note": 76,
      "start": 1.22,
      "duration": 0.0802,
      "velocity": 124,
      "chip": "ym2612"
    },
    {
      "channel": 1,
      "note": 88,
      "start": 1.2557,
      "duration": 0.0777,
      "velocity": 109,
      "chip": "ym2612"
    },
    {
      "channel": 5,
      "note": 69,
      "start": 1.3369,
      "duration": 0.08,
      "velocity": 124,
      "chip": "ym2612"
    },
    {
      "channel": 1,
      "note": 90,
      "start": 1.404,
      "duration": 0.0463,
      "velocity": 109,
      "chip": "ym2612"
    },
    {
      "channel": 5,
      "note": 76,
      "start": 1.4704,
      "duration": 0.0802,
      "velocity": 124,
      "chip": "ym2612"
    },
    {
      "channel": 1,
      "note": 92,
      "start": 1.4879,
      "duration": 0.1459,
      "velocity": 109,
      "chip": "ym2612"
    },
    {
      "channel": 5,
      "note": 74,
      "start": 1.5872,
      "duration": 0.0801,
      "velocity": 124,
      "chip": "ym2612"
    },
    {
      "channel": 5,
      "note": 76,
      "start": 1.7206,
      "duration": 0.0801,
      "velocity": 124,
      "chip": "ym2612"
    },
    {
      "channel": 5,
      "note": 69,
      "start": 1.8374,
      "duration": 0.0802,
      "velocity": 124,
      "chip": "ym2612"
    },
    {
      "channel": 1,
      "note": 95,
      "start": 1.888,
      "duration": 0.163,
      "velocity": 109,
      "chip": "ym2612"
    },
    {
      "channel": 5,
      "note": 76,
      "start": 1.971,
      "duration": 0.0802,
      "velocity": 124,
      "chip": "ym2612"
    },
    {
      "channel": 5,
      "note": 74,
      "start": 2.1046,
      "duration": 0.08,
      "velocity": 124,
      "chip": "ym2612"
    },
    {
      "channel": 1,
      "note": 92,
      "start": 2.1215,
      "duration": 0.1632,
      "velocity": 109,
      "chip": "ym2612"
    },
    {
      "channel": 5,
      "note": 76,
      "start": 2.2212,
      "duration": 0.0802,
      "velocity": 124,
      "chip": "ym2612"
    },
    {
      "channel": 5,
      "note": 69,
      "start": 2.3548,
      "duration": 0.0801,
      "velocity": 124,
      "chip": "ym2612"
    },
    {
      "channel": 5,
      "note": 64,
      "start": 2.4716,
      "duration": 0.0801,
      "velocity": 124,
      "chip": "ym2612"
    },
    {
      "channel": 5,
      "note": 74,
      "start": 2.6081,
      "duration": 0.0772,
      "velocity": 124,
      "chip": "ym2612"
    },
    {
      "channel": 5,
      "note": 76,
      "start": 2.7219,
      "duration": 0.0802,
      "velocity": 124,
      "chip": "ym2612"
    },
    {
      "channel": 1,
      "note": 88,
      "start": 2.739,
      "duration": 0.113,
      "velocity": 109,
      "chip": "ym2612"
    },
    {
      "channel": 5,
      "note": 69,
      "start": 2.8555,
      "duration": 0.0801,
      "velocity": 124,
      "chip": "ym2612"
    },
    {
      "channel": 5,
      "note": 76,
      "start": 2.9723,
      "duration": 0.0801,
      "velocity": 124,
      "chip": "ym2612"
    },
    {
      "channel": 5,
      "note": 74,
      "start": 3.1058,
      "duration": 0.0802,
      "velocity": 124,
      "chip": "ym2612"
    },
    {
      "channel": 1,
      "note": 85,
      "start": 3.1228,
      "duration": 0.1798,
      "velocity": 109,
      "chip": "ym2612"
    },
    {
      "channel": 5,
      "note": 76,
      "start": 3.2226,
      "duration": 0.0802,
      "velocity": 124,
      "chip": "ym2612"
    },
    {
      "channel": 5,
      "note": 69,
      "start": 3.3561,
      "duration": 0.0801,
      "velocity": 124,
      "chip": "ym2612"
    },
    {
      "channel": 5,
      "note": 76,
      "start": 3.4734,
      "duration": 0.0797,
      "velocity": 124,
      "chip": "ym2612"
    },
    {
      "channel": 5,
      "note": 74,
      "start": 3.6064,
      "duration": 0.0801,
      "velocity": 124,
      "chip": "ym2612"
    },
    {
      "channel": 5,
      "note": 76,
      "start": 3.7232,
      "duration": 0.0801,
      "velocity": 124,
      "chip": "ym2612"
    },
    {
      "channel": 5,
      "note": 69,
      "start": 3.8568,
      "duration": 0.0801,
      "velocity": 124,
      "chip": "ym2612"
    },
    {
      "channel": 5,
      "note": 76,
      "start": 3.9736,
      "duration": 0.0801,
      "velocity": 124,
      "chip": "ym2612"
    },
    {
      "channel": 5,
      "note": 74,
      "start": 4.1071,
      "duration": 0.0802,
      "velocity": 124,
      "chip": "ym2612"
    },
    {
      "channel": 1,
      "note": 74,
      "start": 4.1245,
      "duration": 0.0459,
      "velocity": 109,
      "chip": "ym2612"
    },
    {
      "channel": 5,
      "note": 76,
      "start": 4.2406,
      "duration": 0.0801,
      "velocity": 124,
      "chip": "ym2612"
    },
    {
      "channel": 1,
      "note": 74,
      "start": 4.3245,
      "duration": 0.163,
      "velocity": 109,
      "chip": "ym2612"
    },
    {
      "channel": 5,
      "note": 69,
      "start": 4.3574,
      "duration": 0.0802,
      "velocity": 124,
      "chip": "ym2612"
    },
    {
      "channel": 5,
      "note": 64,
      "start": 4.491,
      "duration": 0.08,
      "velocity": 124,
      "chip": "ym2612"
    },
    {
      "channel": 5,
      "note": 74,
      "start": 4.6105,
      "duration": 0.0773,
      "velocity": 124,
      "chip": "ym2612"
    },
    {
      "channel": 3,
      "note": 43,
      "start": 4.6162,
      "duration": 0.2385,
      "velocity": 97,
      "chip": "ym2612"
    },
    {
      "channel": 1,
      "note": 69,
      "start": 4.6747,
      "duration": 0.1632,
      "velocity": 109,
      "chip": "ym2612"
    },
    {
      "channel": 5,
      "note": 76,
      "start": 4.7412,
      "duration": 0.0802,
      "velocity": 124,
      "chip": "ym2612"
    },
    {
      "channel": 5,
      "note": 69,
      "start": 4.8581,
      "duration": 0.08,
      "velocity": 124,
      "chip": "ym2612"
    },
    {
      "channel": 5,
      "note": 76,
      "start": 4.9916,
      "duration": 0.08,
      "velocity": 124,
      "chip": "ym2612"
    },
    {
      "channel": 5,
      "note": 74,
      "start": 5.1084,
      "duration": 0.0801,
      "velocity": 124,
      "chip": "ym2612"
    },
    {
      "channel": 1,
      "note": 80,
      "start": 5.1923,
      "duration": 0.0629,
      "velocity": 109,
      "chip": "ym2612"
    },
    {
      "channel": 5,
      "note": 76,
      "start": 5.2419,
      "duration": 0.0801,
      "velocity": 124,
      "chip": "ym2612"
    },
    {
      "channel": 5,
      "note": 69,
      "start": 5.3587,
      "duration": 0.0801,
      "velocity": 124,
      "chip": "ym2612"
    },
    {
      "channel": 5,
      "note": 76,
      "start": 5.4926,
      "duration": 0.0797,
      "velocity": 124,
      "chip": "ym2612"
    },
    {
      "channel": 5,
      "note": 74,
      "start": 5.6091,
      "duration": 0.08,
      "velocity": 124,
      "chip": "ym2612"
    },
    {
      "channel": 1,
      "note": 90,
      "start": 5.6761,
      "duration": 0.1631,
      "velocity": 109,
      "chip": "ym2612"
    },
    {
      "channel": 5,
      "note": 76,
      "start": 5.7425,
      "duration": 0.0802,
      "velocity": 124,
      "chip": "ym2612"
    },
    {
      "channel": 5,
      "note": 69,
      "start": 5.8594,
      "duration": 0.08,
      "velocity": 124,
      "chip": "ym2612"
    },
    {
      "channel": 5,
      "note": 76,
      "start": 5.9929,
      "duration": 0.0801,
      "velocity": 124,
      "chip": "ym2612"
    },
    {
      "channel": 5,
      "note": 74,
      "start": 6.1097,
      "duration": 0.0801,
      "velocity": 124,
      "chip": "ym2612"
    },
    {
      "channel": 1,
      "note": 81,
      "start": 6.1936,
      "duration": 0.1462,
      "velocity": 109,
      "chip": "ym2612"
    },
    {
      "channel": 5,
      "note": 76,
      "start": 6.2432,
      "duration": 0.08,
      "velocity": 124,
      "chip": "ym2612"
    },
    {
      "channel": 5,
      "note": 69,
      "start": 6.3767,
      "duration": 0.0801,
      "velocity": 124,
      "chip": "ym2612"
    },
    {
      "channel": 5,
      "note": 64,
      "start": 6.4935,
      "duration": 0.0801,
      "velocity": 124,
      "chip": "ym2612"
    },
    {
      "channel": 1,
      "note": 85,
      "start": 6.4973,
      "duration": 0.0594,
      "velocity": 109,
      "chip": "ym2612"
    },
    {
      "channel": 5,
      "note": 74,
      "start": 6.6299,
      "duration": 0.0771,
      "velocity": 124,
      "chip": "ym2612"
    },
    {
      "channel": 0,
      "note": 81,
      "start": 6.6363,
      "duration": 6.0115,
      "velocity": 121,
      "chip": "ym2612"
    },
    {
      "channel": 5,
      "note": 76,
      "start": 6.7439,
      "duration": 0.08,
      "velocity": 124,
      "chip": "ym2612"
    },
    {
      "channel": 5,
      "note": 69,
      "start": 6.8774,
      "duration": 0.08,
      "velocity": 124,
      "chip": "ym2612"
    },
    {
      "channel": 1,
      "note": 90,
      "start": 6.9277,
      "duration": 0.1464,
      "velocity": 109,
      "chip": "ym2612"
    },
    {
      "channel": 5,
      "note": 76,
      "start": 6.9941,
      "duration": 0.0802,
      "velocity": 124,
      "chip": "ym2612"
    },
    {
      "channel": 5,
      "note": 74,
      "start": 7.1277,
      "duration": 0.08,
      "velocity": 124,
      "chip": "ym2612"
    },
    {
      "channel": 1,
      "note": 92,
      "start": 7.1614,
      "duration": 0.0962,
      "velocity": 109,
      "chip": "ym2612"
    },
    {
      "channel": 5,
      "note": 76,
      "start": 7.2444,
      "duration": 0.0802,
      "velocity": 124,
      "chip": "ym2612"
    },
    {
      "channel": 1,
      "note": 93,
      "start": 7.2614,
      "duration": 0.1131,
      "velocity": 109,
      "chip": "ym2612"
    },
    {
      "channel": 5,
      "note": 69,
      "start": 7.378,
      "duration": 0.0802,
      "velocity": 124,
      "chip": "ym2612"
    },
    {
      "channel": 5,
      "note": 76,
      "start": 7.4952,
      "duration": 0.0798,
      "velocity": 124,
      "chip": "ym2612"
    },
    {
      "channel": 1,
      "note": 83,
      "start": 7.5618,
      "duration": 0.1297,
      "velocity": 109,
      "chip": "ym2612"
    },
    {
      "channel": 5,
      "note": 74,
      "start": 7.6283,
      "duration": 0.0801,
      "velocity": 124,
      "chip": "ym2612"
    },
    {
      "channel": 5,
      "note": 76,
      "start": 7.7451,
      "duration": 0.0801,
      "velocity": 124,
      "chip": "ym2612"
    },
    {
      "channel": 5,
      "note": 69,
      "start": 7.8786,
      "duration": 0.0801,
      "velocity": 124,
      "chip": "ym2612"
    },
    {
      "channel": 5,
      "note": 76,
      "start": 7.9954,
      "duration": 0.0801,
      "velocity": 124,
      "chip": "ym2612"
    },
    {
      "channel": 1,
      "note": 97,
      "start": 8.0793,
      "duration": 0.1464,
      "velocity": 109,
      "chip": "ym2612"
    },
    {
      "channel": 5,
      "note": 74,
      "start": 8.1289,
      "duration": 0.0802,
      "velocity": 124,
      "chip": "ym2612"
    },
    {
      "channel": 5,
      "note": 76,
      "start": 8.2457,
      "duration": 0.0801,
      "velocity": 124,
      "chip": "ym2612"
    },
    {
      "channel": 5,
      "note": 69,
      "start": 8.3792,
      "duration": 0.0801,
      "velocity": 124,
      "chip": "ym2612"
    },
    {
      "channel": 5,
      "note": 64,
      "start": 8.5127,
      "duration": 0.0802,
      "velocity": 124,
      "chip": "ym2612"
    },
    {
      "channel": 1,
      "note": 83,
      "start": 8.5302,
      "duration": 0.1795,
      "velocity": 109,
      "chip": "ym2612"
    },
    {
      "channel": 5,
      "note": 74,
      "start": 8.6324,
      "duration": 0.0774,
      "velocity": 124,
      "chip": "ym2612"
    },
    {
      "channel": 5,
      "note": 76,
      "start": 8.7631,
      "duration": 0.0801,
      "velocity": 124,
      "chip": "ym2612"
    },
    {
      "channel": 3,
      "note": 43,
      "start": 8.7671,
      "duration": 0.1094,
      "velocity": 97,
      "chip": "ym2612"
    },
    {
      "channel": 1,
      "note": 85,
      "start": 8.8636,
      "duration": 0.113,
      "velocity": 109,
      "chip": "ym2612"
    },
    {
      "channel": 5,
      "note": 69,
      "start": 8.8799,
      "duration": 0.0802,
      "velocity": 124,
      "chip": "ym2612"
    },
    {
      "channel": 3,
      "note": 45,
      "start": 8.8837,
      "duration": 0.2432,
      "velocity": 97,
      "chip": "ym2612"
    },
    {
      "channel": 5,
      "note": 76,
      "start": 9.0134,
      "duration": 0.0802,
      "velocity": 124,
      "chip": "ym2612"
    },
    {
      "channel": 1,
      "note": 86,
      "start": 9.0305,
      "duration": 0.0963,
      "velocity": 109,
      "chip": "ym2612"
    },
    {
      "channel": 5,
      "note": 74,
      "start": 9.1303,
      "duration": 0.08,
      "velocity": 124,
      "chip": "ym2612"
    },
    {
      "channel": 5,
      "note": 76,
      "start": 9.2637,
      "duration": 0.0801,
      "velocity": 124,
      "chip": "ym2612"
    },
    {
      "channel": 5,
      "note": 69,
      "start": 9.3805,
      "duration": 0.0802,
      "velocity": 124,
      "chip": "ym2612"
    },
    {
      "channel": 1,
      "note": 93,
      "start": 9.431,
      "duration": 0.1797,
      "velocity": 109,
      "chip": "ym2612"
    },
    {
      "channel": 5,
      "note": 76,
      "start": 9.5144,
      "duration": 0.0798,
      "velocity": 124,
      "chip": "ym2612"
    },
    {
      "channel": 5,
      "note": 74,
      "start": 9.6309,
      "duration": 0.0801,
      "velocity": 124,
      "chip": "ym2612"
    },
    {
      "channel": 1,
      "note": 95,
      "start": 9.748,
      "duration": 0.1631,
      "velocity": 109,
      "chip": "ym2612"
    },
    {
      "channel": 5,
      "note": 76,
      "start": 9.7644,
      "duration": 0.08,
      "velocity": 124,
      "chip": "ym2612"
    },
    {
      "channel": 5,
      "note": 69,
      "start": 9.8811,
      "duration": 0.0802,
      "velocity": 124,
      "chip": "ym2612"
    },
    {
      "channel": 1,
      "note": 97,
      "start": 9.9655,
      "duration": 0.0791,
      "velocity": 109,
      "chip": "ym2612"
    },
    {
      "channel": 5,
      "note": 76,
      "start": 10.0147,
      "duration": 0.0801,
      "velocity": 124,
      "chip": "ym2612"
    },
    {
      "channel": 5,
      "note": 74,
      "start": 10.1315,
      "duration": 0.0801,
      "velocity": 124,
      "chip": "ym2612"
    },
    {
      "channel": 5,
      "note": 76,
      "start": 10.265,
      "duration": 0.0801,
      "velocity": 124,
      "chip": "ym2612"
    },
    {
      "channel": 5,
      "note": 69,
      "start": 10.3819,
      "duration": 0.08,
      "velocity": 124,
      "chip": "ym2612"
    },
    {
      "channel": 1,
      "note": 98,
      "start": 10.4155,
      "duration": 0.1798,
      "velocity": 109,
      "chip": "ym2612"
    },
    {
      "channel": 5,
      "note": 64,
      "start": 10.5153,
      "duration": 0.0802,
      "velocity": 124,
      "chip": "ym2612"
    },
    {
      "channel": 1,
      "note": 92,
      "start": 10.5993,
      "duration": 0.1629,
      "velocity": 109,
      "chip": "ym2612"
    },
    {
      "channel": 5,
      "note": 74,
      "start": 10.6517,
      "duration": 0.0773,
      "velocity": 124,
      "chip": "ym2612"
    },
    {
      "channel": 5,
      "note": 76,
      "start": 10.7658,
      "duration": 0.08,
      "velocity": 124,
      "chip": "ym2612"
    },
    {
      "channel": 1,
      "note": 95,
      "start": 10.8495,
      "duration": 0.0963,
      "velocity": 109,
      "chip": "ym2612"
    },
    {
      "channel": 5,
      "note": 69,
      "start": 10.8992,
      "duration": 0.0801,
      "velocity": 124,
      "chip": "ym2612"
    },
    {
      "channel": 5,
      "note": 76,
      "start": 11.0159,
      "duration": 0.0802,
      "velocity": 124,
      "chip": "ym2612"
    },
    {
      "channel": 5,
      "note": 74,
      "start": 11.1494,
      "duration": 0.0801,
      "velocity": 124,
      "chip": "ym2612"
    },
    {
      "channel": 1,
      "note": 100,
      "start": 11.1528,
      "duration": 0.0433,
      "velocity": 109,
      "chip": "ym2612"
    },
    {
      "channel": 5,
      "note": 76,
      "start": 11.2663,
      "duration": 0.0802,
      "velocity": 124,
      "chip": "ym2612"
    },
    {
      "channel": 5,
      "note": 69,
      "start": 11.3999,
      "duration": 0.0801,
      "velocity": 124,
      "chip": "ym2612"
    },
    {
      "channel": 5,
      "note": 76,
      "start": 11.5171,
      "duration": 0.0797,
      "velocity": 124,
      "chip": "ym2612"
    },
    {
      "channel": 5,
      "note": 74,
      "start": 11.6501,
      "duration": 0.0802,
      "velocity": 124,
      "chip": "ym2612"
    },
    {
      "channel": 1,
      "note": 78,
      "start": 11.6676,
      "duration": 0.0793,
      "velocity": 109,
      "chip": "ym2612"
    },
    {
      "channel": 5,
      "note": 76,
      "start": 11.7669,
      "duration": 0.0801,
      "velocity": 124,
      "chip": "ym2612"
    },
    {
      "channel": 1,
      "note": 80,
      "start": 11.7701,
      "duration": 0.0602,
      "velocity": 109,
      "chip": "ym2612"
    },
    {
      "channel": 1,
      "note": 81,
      "start": 11.8841,
      "duration": 0.0797,
      "velocity": 109,
      "chip": "ym2612"
    },
    {
      "channel": 5,
      "note": 69,
      "start": 11.9004,
      "duration": 0.0803,
      "velocity": 124,
      "chip": "ym2612"
    },
    {
      "channel": 1,
      "note": 83,
      "start": 11.9674,
      "duration": 0.0799,
      "velocity": 109,
      "chip": "ym2612"
    },
    {
      "channel": 5,
      "note": 76,
      "start": 12.0173,
      "duration": 0.0802,
      "velocity": 124,
      "chip": "ym2612"
    },
    {
      "channel": 1,
      "note": 85,
      "start": 12.0512,
      "duration": 0.0461,
      "velocity": 109,
      "chip": "ym2612"
    },
    {
      "channel": 5,
      "note": 74,
      "start": 12.1507,
      "duration": 0.0802,
      "velocity": 124,
      "chip": "ym2612"
    },
    {
      "channel": 5,
      "note": 76,
      "start": 12.2676,
      "duration": 0.0802,
      "velocity": 124,
      "chip": "ym2612"
    },
    {
      "channel": 1,
      "note": 74,
      "start": 12.271,
      "duration": 0.1267,
      "velocity": 109,
      "chip": "ym2612"
    },
    {
      "channel": 5,
      "note": 69,
      "start": 12.4012,
      "duration": 0.08,
      "velocity": 124,
      "chip": "ym2612"
    },
    {
      "channel": 1,
      "note": 78,
      "start": 12.4688,
      "duration": 0.1291,
      "velocity": 109,
      "chip": "ym2612"
    },
    {
      "channel": 5,
      "note": 64,
      "start": 12.5179,
      "duration": 0.0802,
      "velocity": 124,
      "chip": "ym2612"
    },
    {
      "channel": 5,
      "note": 74,
      "start": 12.6543,
      "duration": 0.0772,
      "velocity": 124,
      "chip": "ym2612"
    },
    {
      "channel": 0,
      "note": 81,
      "start": 12.6607,
      "duration": 6.0116,
      "velocity": 121,
      "chip": "ym2612"
    },
    {
      "channel": 5,
      "note": 76,
      "start": 12.7849,
      "duration": 0.0802,
      "velocity": 124,
      "chip": "ym2612"
    },
    {
      "channel": 4,
      "note": 45,
      "start": 12.8879,
      "duration": 3.4817,
      "velocity": 90,
      "chip": "ym2612"
    },
    {
      "channel": 2,
      "note": 45,
      "start": 12.8933,
      "duration": 3.4766,
      "velocity": 115,
      "chip": "ym2612"
    },
    {
      "channel": 5,
      "note": 69,
      "start": 12.9017,
      "duration": 0.0802,
      "velocity": 124,
      "chip": "ym2612"
    },
    {
      "channel": 5,
      "note": 76,
      "start": 13.0353,
      "duration": 0.0801,
      "velocity": 124,
      "chip": "ym2612"
    },
    {
      "channel": 5,
      "note": 74,
      "start": 13.1521,
      "duration": 0.0801,
      "velocity": 124,
      "chip": "ym2612"
    },
    {
      "channel": 5,
      "note": 76,
      "start": 13.2856,
      "duration": 0.0801,
      "velocity": 124,
      "chip": "ym2612"
    },
    {
      "channel": 5,
      "note": 69,
      "start": 13.4024,
      "duration": 0.0802,
      "velocity": 124,
      "chip": "ym2612"
    },
    {
      "channel": 5,
      "note": 76,
      "start": 13.5363,
      "duration": 0.0797,
      "velocity": 124,
      "chip": "ym2612"
    },
    {
      "channel": 5,
      "note": 74,
      "start": 13.6527,
      "duration": 0.0801,
      "velocity": 124,
      "chip": "ym2612"
    },
    {
      "channel": 5,
      "note": 76,
      "start": 13.7862,
      "duration": 0.0802,
      "velocity": 124,
      "chip": "ym2612"
    },
    {
      "channel": 5,
      "note": 69,
      "start": 13.9031,
      "duration": 0.0801,
      "velocity": 124,
      "chip": "ym2612"
    },
    {
      "channel": 5,
      "note": 76,
      "start": 14.0366,
      "duration": 0.0801,
      "velocity": 124,
      "chip": "ym2612"
    },
    {
      "channel": 5,
      "note": 74,
      "start": 14.1534,
      "duration": 0.0801,
      "velocity": 124,
      "chip": "ym2612"
    },
    {
      "channel": 5,
      "note": 76,
      "start": 14.2868,
      "duration": 0.0802,
      "velocity": 124,
      "chip": "ym2612"
    },
    {
      "channel": 5,
      "note": 69,
      "start": 14.4037,
      "duration": 0.0801,
      "velocity": 124,
      "chip": "ym2612"
    },
    {
      "channel": 5,
      "note": 64,
      "start": 14.5372,
      "duration": 0.0801,
      "velocity": 124,
      "chip": "ym2612"
    },
    {
      "channel": 5,
      "note": 74,
      "start": 14.6569,
      "duration": 0.0772,
      "velocity": 124,
      "chip": "ym2612"
    },
    {
      "channel": 5,
      "note": 76,
      "start": 14.7875,
      "duration": 0.0802,
      "velocity": 124,
      "chip": "ym2612"
    },
    {
      "channel": 5,
      "note": 69,
      "start": 14.921,
      "duration": 0.0802,
      "velocity": 124,
      "chip": "ym2612"
    },
    {
      "channel": 5,
      "note": 76,
      "start": 15.0379,
      "duration": 0.0801,
      "velocity": 124,
      "chip": "ym2612"
    },
    {
      "channel": 5,
      "note": 74,
      "start": 15.1713,
      "duration": 0.0802,
      "velocity": 124,
      "chip": "ym2612"
    },
    {
      "channel": 5,
      "note": 76,
      "start": 15.2882,
      "duration": 0.0801,
      "velocity": 124,
      "chip": "ym2612"
    },
    {
      "channel": 5,
      "note": 69,
      "start": 15.4217,
      "duration": 0.0801,
      "velocity": 124,
      "chip": "ym2612"
    },
    {
      "channel": 5,
      "note": 76,
      "start": 15.5388,
      "duration": 0.0798,
      "velocity": 124,
      "chip": "ym2612"
    },
    {
      "channel": 5,
      "note": 74,
      "start": 15.672,
      "duration": 0.0801,
      "velocity": 124,
      "chip": "ym2612"
    },
    {
      "channel": 5,
      "note": 76,
      "start": 15.7888,
      "duration": 0.0802,
      "velocity": 124,
      "chip": "ym2612"
    },
    {
      "channel": 5,
      "note": 69,
      "start": 15.9222,
      "duration": 0.0802,
      "velocity": 124,
      "chip": "ym2612"
    },
    {
      "channel": 5,
      "note": 76,
      "start": 16.0391,
      "duration": 0.0801,
      "velocity": 124,
      "chip": "ym2612"
    },
    {
      "channel": 5,
      "note": 74,
      "start": 16.1726,
      "duration": 0.0802,
      "velocity": 124,
      "chip": "ym2612"
    },
    {
      "channel": 5,
      "note": 76,
      "start": 16.2895,
      "duration": 0.0802,
      "velocity": 124,
      "chip": "ym2612"
    },
    {
      "channel": 3,
      "note": 52,
      "start": 16.3575,
      "duration": 0.2623,
      "velocity": 90,
      "chip": "ym2612"
    },
    {
      "channel": 1,
      "note": 52,
      "start": 16.3613,
      "duration": 0.2584,
      "velocity": 115,
      "chip": "ym2612"
    },
    {
      "channel": 5,
      "note": 69,
      "start": 16.4229,
      "duration": 0.0802,
      "velocity": 124,
      "chip": "ym2612"
    },
    {
      "channel": 5,
      "note": 64,
      "start": 16.5398,
      "duration": 0.0802,
      "velocity": 124,
      "chip": "ym2612"
    },
    {
      "channel": 4,
      "note": 48,
      "start": 16.6072,
      "duration": 0.2963,
      "velocity": 90,
      "chip": "ym2612"
    },
    {
      "channel": 2,
      "note": 48,
      "start": 16.6106,
      "duration": 0.2931,
      "velocity": 115,
      "chip": "ym2612"
    },
    {
      "channel": 5,
      "note": 74,
      "start": 16.6761,
      "duration": 0.0772,
      "velocity": 124,
      "chip": "ym2612"
    },
    {
      "channel": 5,
      "note": 76,
      "start": 16.7901,
      "duration": 0.0802,
      "velocity": 124,
      "chip": "ym2612"
    },
    {
      "channel": 3,
      "note": 50,
      "start": 16.908,
      "duration": 3.4667,
      "velocity": 90,
      "chip": "ym2612"
    },
    {
      "channel": 1,
      "note": 50,
      "start": 16.9115,
      "duration": 3.4631,
      "velocity": 115,
      "chip": "ym2612"
    },
    {
      "channel": 5,
      "note": 69,
      "start": 16.9236,
      "duration": 0.0801,
      "velocity": 124,
      "chip": "ym2612"
    },
    {
      "channel": 5,
      "note": 76,
      "start": 17.0571,
      "duration": 0.0802,
      "velocity": 124,
      "chip": "ym2612"
    },
    {
      "channel": 5,
      "note": 74,
      "start": 17.1739,
      "duration": 0.0801,
      "velocity": 124,
      "chip": "ym2612"
    },
    {
      "channel": 5,
      "note": 76,
      "start": 17.3074,
      "duration": 0.0802,
      "velocity": 124,
      "chip": "ym2612"
    },
    {
      "channel": 5,
      "note": 69,
      "start": 17.4242,
      "duration": 0.0802,
      "velocity": 124,
      "chip": "ym2612"
    },
    {
      "channel": 5,
      "note": 76,
      "start": 17.5582,
      "duration": 0.0798,
      "velocity": 124,
      "chip": "ym2612"
    },
    {
      "channel": 5,
      "note": 74,
      "start": 17.6745,
      "duration": 0.0802,
      "velocity": 124,
      "chip": "ym2612"
    },
    {
      "channel": 5,
      "note": 76,
      "start": 17.8081,
      "duration": 0.0801,
      "velocity": 124,
      "chip": "ym2612"
    },
    {
      "channel": 5,
      "note": 69,
      "start": 17.9248,
      "duration": 0.0802,
      "velocity": 124,
      "chip": "ym2612"
    },
    {
      "channel": 5,
      "note": 76,
      "start": 18.0583,
      "duration": 0.0802,
      "velocity": 124,
      "chip": "ym2612"
    },
    {
      "channel": 5,
      "note": 74,
      "start": 18.1752,
      "duration": 0.0801,
      "velocity": 124,
      "chip": "ym2612"
    },
    {
      "channel": 5,
      "note": 76,
      "start": 18.3087,
      "duration": 0.0802,
      "velocity": 124,
      "chip": "ym2612"
    },
    {
      "channel": 5,
      "note": 69,
      "start": 18.4256,
      "duration": 0.0801,
      "velocity": 124,
      "chip": "ym2612"
    },
    {
      "channel": 5,
      "note": 64,
      "start": 18.559,
      "duration": 0.0801,
      "velocity": 124,
      "chip": "ym2612"
    },
    {
      "channel": 5,
      "note": 74,
      "start": 18.6788,
      "duration": 0.0772,
      "velocity": 124,
      "chip": "ym2612"
    },
    {
      "channel": 0,
      "note": 81,
      "start": 18.6852,
      "duration": 6.0283,
      "velocity": 121,
      "chip": "ym2612"
    },
    {
      "channel": 5,
      "note": 76,
      "start": 18.8094,
      "duration": 0.0801,
      "velocity": 124,
      "chip": "ym2612"
    },
    {
      "channel": 5,
      "note": 69,
      "start": 18.9261,
      "duration": 0.0802,
      "velocity": 124,
      "chip": "ym2612"
    },
    {
      "channel": 5,
      "note": 76,
      "start": 19.0596,
      "duration": 0.0802,
      "velocity": 124,
      "chip": "ym2612"
    },
    {
      "channel": 5,
      "note": 74,
      "start": 19.1932,
      "duration": 0.0801,
      "velocity": 124,
      "chip": "ym2612"
    },
    {
      "channel": 5,
      "note": 76,
      "start": 19.31,
      "duration": 0.0802,
      "velocity": 124,
      "chip": "ym2612"
    },
    {
      "channel": 5,
      "note": 69,
      "start": 19.4434,
      "duration": 0.0802,
      "velocity": 124,
      "chip": "ym2612"
    },
    {
      "channel": 5,
      "note": 76,
      "start": 19.5607,
      "duration": 0.0798,
      "velocity": 124,
      "chip": "ym2612"
    },
    {
      "channel": 5,
      "note": 74,
      "start": 19.6938,
      "duration": 0.0802,
      "velocity": 124,
      "chip": "ym2612"
    },
    {
      "channel": 5,
      "note": 76,
      "start": 19.8107,
      "duration": 0.0801,
      "velocity": 124,
      "chip": "ym2612"
    },
    {
      "channel": 5,
      "note": 69,
      "start": 19.9441,
      "duration": 0.0802,
      "velocity": 124,
      "chip": "ym2612"
    },
    {
      "channel": 5,
      "note": 76,
      "start": 20.0609,
      "duration": 0.0802,
      "velocity": 124,
      "chip": "ym2612"
    },
    {
      "channel": 5,
      "note": 74,
      "start": 20.1945,
      "duration": 0.0801,
      "velocity": 124,
      "chip": "ym2612"
    },
    {
      "channel": 5,
      "note": 76,
      "start": 20.3112,
      "duration": 0.0801,
      "velocity": 124,
      "chip": "ym2612"
    },
    {
      "channel": 3,
      "note": 57,
      "start": 20.379,
      "duration": 0.3128,
      "velocity": 90,
      "chip": "ym2612"
    },
    {
      "channel": 1,
      "note": 57,
      "start": 20.3822,
      "duration": 0.3095,
      "velocity": 115,
      "chip": "ym2612"
    },
    {
      "channel": 5,
      "note": 69,
      "start": 20.4448,
      "duration": 0.0802,
      "velocity": 124,
      "chip": "ym2612"
    },
    {
      "channel": 5,
      "note": 64,
      "start": 20.5617,
      "duration": 0.0801,
      "velocity": 124,
      "chip": "ym2612"
    },
    {
      "channel": 4,
      "note": 52,
      "start": 20.6462,
      "duration": 0.2958,
      "velocity": 90,
      "chip": "ym2612"
    },
    {
      "channel": 2,
      "note": 52,
      "start": 20.65,
      "duration": 0.2922,
      "velocity": 115,
      "chip": "ym2612"
    },
    {
      "channel": 5,
      "note": 74,
      "start": 20.6981,
      "duration": 0.0771,
      "velocity": 124,
      "chip": "ym2612"
    },
    {
      "channel": 5,
      "note": 76,
      "start": 20.8119,
      "duration": 0.0801,
      "velocity": 124,
      "chip": "ym2612"
    },
    {
      "channel": 5,
      "note": 69,
      "start": 20.9456,
      "duration": 0.08,
      "velocity": 124,
      "chip": "ym2612"
    },
    {
      "channel": 3,
      "note": 53,
      "start": 20.9496,
      "duration": 3.6305,
      "velocity": 90,
      "chip": "ym2612"
    },
    {
      "channel": 1,
      "note": 53,
      "start": 20.9531,
      "duration": 3.6269,
      "velocity": 115,
      "chip": "ym2612"
    },
    {
      "channel": 5,
      "note": 76,
      "start": 21.0622,
      "duration": 0.0802,
      "velocity": 124,
      "chip": "ym2612"
    },
    {
      "channel": 5,
      "note": 74,
      "start": 21.1957,
      "duration": 0.0802,
      "velocity": 124,
      "chip": "ym2612"
    },
    {
      "channel": 5,
      "note": 76,
      "start": 21.3293,
      "duration": 0.0801,
      "velocity": 124,
      "chip": "ym2612"
    },
    {
      "channel": 5,
      "note": 69,
      "start": 21.4461,
      "duration": 0.0802,
      "velocity": 124,
      "chip": "ym2612"
    },
    {
      "channel": 5,
      "note": 76,
      "start": 21.5799,
      "duration": 0.0798,
      "velocity": 124,
      "chip": "ym2612"
    },
    {
      "channel": 5,
      "note": 74,
      "start": 21.6964,
      "duration": 0.0802,
      "velocity": 124,
      "chip": "ym2612"
    },
    {
      "channel": 5,
      "note": 76,
      "start": 21.8298,
      "duration": 0.0802,
      "velocity": 124,
      "chip": "ym2612"
    },
    {
      "channel": 5,
      "note": 69,
      "start": 21.9468,
      "duration": 0.0801,
      "velocity": 124,
      "chip": "ym2612"
    },
    {
      "channel": 5,
      "note": 76,
      "start": 22.0802,
      "duration": 0.0802,
      "velocity": 124,
      "chip": "ym2612"
    },
    {
      "channel": 5,
      "note": 74,
      "start": 22.197,
      "duration": 0.0802,
      "velocity": 124,
      "chip": "ym2612"
    },
    {
      "channel": 5,
      "note": 76,
      "start": 22.3305,
      "duration": 0.0801,
      "velocity": 124,
      "chip": "ym2612"
    },
    {
      "channel": 5,
      "note": 69,
      "start": 22.4473,
      "duration": 0.0802,
      "velocity": 124,
      "chip": "ym2612"
    },
    {
      "channel": 5,
      "note": 64,
      "start": 22.5809,
      "duration": 0.0801,
      "velocity": 124,
      "chip": "ym2612"
    },
    {
      "channel": 5,
      "note": 74,
      "start": 22.7006,
      "duration": 0.0773,
      "velocity": 124,
      "chip": "ym2612"
    },
    {
      "channel": 5,
      "note": 76,
      "start": 22.8312,
      "duration": 0.0801,
      "velocity": 124,
      "chip": "ym2612"
    },
    {
      "channel": 5,
      "note": 69,
      "start": 22.948,
      "duration": 0.0802,
      "velocity": 124,
      "chip": "ym2612"
    },
    {
      "channel": 5,
      "note": 76,
      "start": 23.0815,
      "duration": 0.0801,
      "velocity": 124,
      "chip": "ym2612"
    },
    {
      "channel": 5,
      "note": 74,
      "start": 23.1983,
      "duration": 0.0802,
      "velocity": 124,
      "chip": "ym2612"
    },
    {
      "channel": 5,
      "note": 76,
      "start": 23.3318,
      "duration": 0.0802,
      "velocity": 124,
      "chip": "ym2612"
    },
    {
      "channel": 5,
      "note": 69,
      "start": 23.4654,
      "duration": 0.0801,
      "velocity": 124,
      "chip": "ym2612"
    },
    {
      "channel": 5,
      "note": 76,
      "start": 23.5825,
      "duration": 0.0798,
      "velocity": 124,
      "chip": "ym2612"
    },
    {
      "channel": 5,
      "note": 74,
      "start": 23.7157,
      "duration": 0.0801,
      "velocity": 124,
      "chip": "ym2612"
    },
    {
      "channel": 5,
      "note": 76,
      "start": 23.8325,
      "duration": 0.0802,
      "velocity": 124,
      "chip": "ym2612"
    },
    {
      "channel": 5,
      "note": 69,
      "start": 23.9659,
      "duration": 0.0802,
      "velocity": 124,
      "chip": "ym2612"
    },
    {
      "channel": 5,
      "note": 76,
      "start": 24.0828,
      "duration": 0.0801,
      "velocity": 124,
      "chip": "ym2612"
    },
    {
      "channel": 5,
      "note": 74,
      "start": 24.2163,
      "duration": 0.0802,
      "velocity": 124,
      "chip": "ym2612"
    },
    {
      "channel": 5,
      "note": 76,
      "start": 24.3332,
      "duration": 0.0801,
      "velocity": 124,
      "chip": "ym2612"
    },
    {
      "channel": 5,
      "note": 69,
      "start": 24.4666,
      "duration": 0.0801,
      "velocity": 124,
      "chip": "ym2612"
    },
    {
      "channel": 5,
      "note": 64,
      "start": 24.5836,
      "duration": 0.08,
      "velocity": 124,
      "chip": "ym2612"
    },
    {
      "channel": 5,
      "note": 74,
      "start": 24.7199,
      "duration": 0.0772,
      "velocity": 124,
      "chip": "ym2612"
    },
    {
      "channel": 1,
      "note": 45,
      "start": 24.7241,
      "duration": 3.9446,
      "velocity": 115,
      "chip": "ym2612"
    },
    {
      "channel": 0,
      "note": 81,
      "start": 24.7297,
      "duration": 6.0082,
      "velocity": 121,
      "chip": "ym2612"
    },
    {
      "channel": 5,
      "note": 76,
      "start": 24.8338,
      "duration": 0.0802,
      "velocity": 124,
      "chip": "ym2612"
    },
    {
      "channel": 5,
      "note": 69,
      "start": 24.9673,
      "duration": 0.08,
      "velocity": 124,
      "chip": "ym2612"
    },
    {
      "channel": 3,
      "note": 81,
      "start": 24.9712,
      "duration": 3.6976,
      "velocity": 90,
      "chip": "ym2612"
    },
    {
      "channel": 5,
      "note": 76,
      "start": 25.0841,
      "duration": 0.0802,
      "velocity": 124,
      "chip": "ym2612"
    },
    {
      "channel": 5,
      "note": 74,
      "start": 25.2176,
      "duration": 0.0801,
      "velocity": 124,
      "chip": "ym2612"
    },
    {
      "channel": 5,
      "note": 76,
      "start": 25.3345,
      "duration": 0.0801,
      "velocity": 124,
      "chip": "ym2612"
    },
    {
      "channel": 5,
      "note": 69,
      "start": 25.4679,
      "duration": 0.0802,
      "velocity": 124,
      "chip": "ym2612"
    },
    {
      "channel": 5,
      "note": 76,
      "start": 25.6019,
      "duration": 0.0798,
      "velocity": 124,
      "chip": "ym2612"
    },
    {
      "channel": 5,
      "note": 74,
      "start": 25.7183,
      "duration": 0.0801,
      "velocity": 124,
      "chip": "ym2612"
    },
    {
      "channel": 5,
      "note": 76,
      "start": 25.8517,
      "duration": 0.0802,
      "velocity": 124,
      "chip": "ym2612"
    },
    {
      "channel": 5,
      "note": 69,
      "start": 25.9686,
      "duration": 0.0801,
      "velocity": 124,
      "chip": "ym2612"
    },
    {
      "channel": 5,
      "note": 76,
      "start": 26.1021,
      "duration": 0.0802,
      "velocity": 124,
      "chip": "ym2612"
    },
    {
      "channel": 5,
      "note": 74,
      "start": 26.2188,
      "duration": 0.0802,
      "velocity": 124,
      "chip": "ym2612"
    },
    {
      "channel": 5,
      "note": 76,
      "start": 26.3524,
      "duration": 0.0802,
      "velocity": 124,
      "chip": "ym2612"
    },
    {
      "channel": 5,
      "note": 69,
      "start": 26.4692,
      "duration": 0.0802,
      "velocity": 124,
      "chip": "ym2612"
    },
    {
      "channel": 5,
      "note": 64,
      "start": 26.6027,
      "duration": 0.0802,
      "velocity": 124,
      "chip": "ym2612"
    },
    {
      "channel": 5,
      "note": 74,
      "start": 26.7224,
      "duration": 0.0772,
      "velocity": 124,
      "chip": "ym2612"
    },
    {
      "channel": 5,
      "note": 76,
      "start": 26.8531,
      "duration": 0.0801,
      "velocity": 124,
      "chip": "ym2612"
    },
    {
      "channel": 5,
      "note": 69,
      "start": 26.9699,
      "duration": 0.0801,
      "velocity": 124,
      "chip": "ym2612"
    },
    {
      "channel": 5,
      "note": 76,
      "start": 27.1033,
      "duration": 0.0801,
      "velocity": 124,
      "chip": "ym2612"
    },
    {
      "channel": 5,
      "note": 74,
      "start": 27.2202,
      "duration": 0.0802,
      "velocity": 124,
      "chip": "ym2612"
    },
    {
      "channel": 5,
      "note": 76,
      "start": 27.3537,
      "duration": 0.0802,
      "velocity": 124,
      "chip": "ym2612"
    },
    {
      "channel": 5,
      "note": 69,
      "start": 27.4705,
      "duration": 0.0801,
      "velocity": 124,
      "chip": "ym2612"
    },
    {
      "channel": 5,
      "note": 76,
      "start": 27.6044,
      "duration": 0.0798,
      "velocity": 124,
      "chip": "ym2612"
    },
    {
      "channel": 5,
      "note": 74,
      "start": 27.7375,
      "duration": 0.0801,
      "velocity": 124,
      "chip": "ym2612"
    },
    {
      "channel": 5,
      "note": 76,
      "start": 27.8543,
      "duration": 0.0802,
      "velocity": 124,
      "chip": "ym2612"
    },
    {
      "channel": 5,
      "note": 69,
      "start": 27.9878,
      "duration": 0.0802,
      "velocity": 124,
      "chip": "ym2612"
    },
    {
      "channel": 5,
      "note": 76,
      "start": 28.1047,
      "duration": 0.0801,
      "velocity": 124,
      "chip": "ym2612"
    },
    {
      "channel": 5,
      "note": 74,
      "start": 28.2382,
      "duration": 0.0801,
      "velocity": 124,
      "chip": "ym2612"
    },
    {
      "channel": 5,
      "note": 76,
      "start": 28.355,
      "duration": 0.0801,
      "velocity": 124,
      "chip": "ym2612"
    },
    {
      "channel": 5,
      "note": 69,
      "start": 28.4884,
      "duration": 0.0802,
      "velocity": 124,
      "chip": "ym2612"
    },
    {
      "channel": 5,
      "note": 64,
      "start": 28.6053,
      "duration": 0.0802,
      "velocity": 124,
      "chip": "ym2612"
    },
    {
      "channel": 5,
      "note": 74,
      "start": 28.7417,
      "duration": 0.0773,
      "velocity": 124,
      "chip": "ym2612"
    },
    {
      "channel": 4,
      "note": 45,
      "start": 28.7469,
      "duration": 0.1054,
      "velocity": 97,
      "chip": "ym2612"
    },
    {
      "channel": 2,
      "note": 83,
      "start": 28.7728,
      "duration": 0.1296,
      "velocity": 109,
      "chip": "ym2612"
    },
    {
      "channel": 5,
      "note": 76,
      "start": 28.8558,
      "duration": 0.08,
      "velocity": 124,
      "chip": "ym2612"
    },
    {
      "channel": 5,
      "note": 69,
      "start": 28.9891,
      "duration": 0.0802,
      "velocity": 124,
      "chip": "ym2612"
    },
    {
      "channel": 4,
      "note": 40,
      "start": 28.9923,
      "duration": 0.1103,
      "velocity": 97,
      "chip": "ym2612"
    },
    {
      "channel": 5,
      "note": 76,
      "start": 29.106,
      "duration": 0.08,
      "velocity": 124,
      "chip": "ym2612"
    },
    {
      "channel": 2,
      "note": 86,
      "start": 29.1097,
      "duration": 0.1432,
      "velocity": 109,
      "chip": "ym2612"
    },
    {
      "channel": 5,
      "note": 74,
      "start": 29.2394,
      "duration": 0.0801,
      "velocity": 124,
      "chip": "ym2612"
    },
    {
      "channel": 4,
      "note": 45,
      "start": 29.2426,
      "duration": 0.1102,
      "velocity": 97,
      "chip": "ym2612"
    },
    {
      "channel": 2,
      "note": 88,
      "start": 29.2733,
      "duration": 0.1464,
      "velocity": 109,
      "chip": "ym2612"
    },
    {
      "channel": 5,
      "note": 76,
      "start": 29.3563,
      "duration": 0.0801,
      "velocity": 124,
      "chip": "ym2612"
    },
    {
      "channel": 5,
      "note": 69,
      "start": 29.4898,
      "duration": 0.0801,
      "velocity": 124,
      "chip": "ym2612"
    },
    {
      "channel": 4,
      "note": 40,
      "start": 29.4934,
      "duration": 0.1099,
      "velocity": 97,
      "chip": "ym2612"
    },
    {
      "channel": 2,
      "note": 92,
      "start": 29.5069,
      "duration": 0.1466,
      "velocity": 109,
      "chip": "ym2612"
    },
    {
      "channel": 5,
      "note": 76,
      "start": 29.6071,
      "duration": 0.0797,
      "velocity": 124,
      "chip": "ym2612"
    },
    {
      "channel": 2,
      "note": 90,
      "start": 29.6739,
      "duration": 0.1297,
      "velocity": 109,
      "chip": "ym2612"
    },
    {
      "channel": 5,
      "note": 74,
      "start": 29.7402,
      "duration": 0.08,
      "velocity": 124,
      "chip": "ym2612"
    },
    {
      "channel": 4,
      "note": 45,
      "start": 29.7434,
      "duration": 0.1268,
      "velocity": 97,
      "chip": "ym2612"
    },
    {
      "channel": 5,
      "note": 76,
      "start": 29.8736,
      "duration": 0.0801,
      "velocity": 124,
      "chip": "ym2612"
    },
    {
      "channel": 2,
      "note": 92,
      "start": 29.8913,
      "duration": 0.0792,
      "velocity": 109,
      "chip": "ym2612"
    },
    {
      "channel": 2,
      "note": 93,
      "start": 29.9745,
      "duration": 0.1629,
      "velocity": 109,
      "chip": "ym2612"
    },
    {
      "channel": 5,
      "note": 69,
      "start": 29.9904,
      "duration": 0.0802,
      "velocity": 124,
      "chip": "ym2612"
    },
    {
      "channel": 4,
      "note": 40,
      "start": 29.9936,
      "duration": 0.1271,
      "velocity": 97,
      "chip": "ym2612"
    },
    {
      "channel": 5,
      "note": 76,
      "start": 30.1241,
      "duration": 0.08,
      "velocity": 124,
      "chip": "ym2612"
    },
    {
      "channel": 5,
      "note": 74,
      "start": 30.2407,
      "duration": 0.0802,
      "velocity": 124,
      "chip": "ym2612"
    },
    {
      "channel": 4,
      "note": 45,
      "start": 30.2439,
      "duration": 0.127,
      "velocity": 97,
      "chip": "ym2612"
    },
    {
      "channel": 5,
      "note": 76,
      "start": 30.3743,
      "duration": 0.0801,
      "velocity": 124,
      "chip": "ym2612"
    },
    {
      "channel": 2,
      "note": 93,
      "start": 30.378,
      "duration": 0.0431,
      "velocity": 109,
      "chip": "ym2612"
    },
    {
      "channel": 5,
      "note": 69,
      "start": 30.4911,
      "duration": 0.0802,
      "velocity": 124,
      "chip": "ym2612"
    },
    {
      "channel": 4,
      "note": 40,
      "start": 30.4944,
      "duration": 0.1267,
      "velocity": 97,
      "chip": "ym2612"
    },
    {
      "channel": 2,
      "note": 95,
      "start": 30.5084,
      "duration": 0.163,
      "velocity": 109,
      "chip": "ym2612"
    },
    {
      "channel": 5,
      "note": 64,
      "start": 30.6246,
      "duration": 0.0802,
      "velocity": 124,
      "chip": "ym2612"
    },
    {
      "channel": 4,
      "note": 35,
      "start": 30.6278,
      "duration": 0.1103,
      "velocity": 97,
      "chip": "ym2612"
    },
    {
      "channel": 5,
      "note": 74,
      "start": 30.7445,
      "duration": 0.0771,
      "velocity": 124,
      "chip": "ym2612"
    },
    {
      "channel": 4,
      "note": 45,
      "start": 30.7478,
      "duration": 0.1237,
      "velocity": 97,
      "chip": "ym2612"
    },
    {
      "channel": 0,
      "note": 81,
      "start": 30.754,
      "duration": 6.0249,
      "velocity": 121,
      "chip": "ym2612"
    },
    {
      "channel": 2,
      "note": 93,
      "start": 30.7595,
      "duration": 0.2123,
      "velocity": 109,
      "chip": "ym2612"
    },
    {
      "channel": 5,
      "note": 76,
      "start": 30.875,
      "duration": 0.08,
      "velocity": 124,
      "chip": "ym2612"
    },
    {
      "channel": 5,
      "note": 69,
      "start": 30.9917,
      "duration": 0.0802,
      "velocity": 124,
      "chip": "ym2612"
    },
    {
      "channel": 2,
      "note": 95,
      "start": 30.9953,
      "duration": 0.16,
      "velocity": 109,
      "chip": "ym2612"
    },
    {
      "channel": 4,
      "note": 40,
      "start": 30.9984,
      "duration": 0.1235,
      "velocity": 97,
      "chip": "ym2612"
    },
    {
      "channel": 5,
      "note": 76,
      "start": 31.1254,
      "duration": 0.08,
      "velocity": 124,
      "chip": "ym2612"
    },
    {
      "channel": 2,
      "note": 88,
      "start": 31.2095,
      "duration": 0.1628,
      "velocity": 109,
      "chip": "ym2612"
    },
    {
      "channel": 5,
      "note": 74,
      "start": 31.2421,
      "duration": 0.0801,
      "velocity": 124,
      "chip": "ym2612"
    },
    {
      "channel": 4,
      "note": 45,
      "start": 31.2453,
      "duration": 0.1269,
      "velocity": 97,
      "chip": "ym2612"
    },
    {
      "channel": 5,
      "note": 76,
      "start": 31.3757,
      "duration": 0.0799,
      "velocity": 124,
      "chip": "ym2612"
    },
    {
      "channel": 2,
      "note": 93,
      "start": 31.4763,
      "duration": 0.1297,
      "velocity": 109,
      "chip": "ym2612"
    },
    {
      "channel": 5,
      "note": 69,
      "start": 31.4924,
      "duration": 0.0801,
      "velocity": 124,
      "chip": "ym2612"
    },
    {
      "channel": 4,
      "note": 40,
      "start": 31.4956,
      "duration": 0.1268,
      "velocity": 97,
      "chip": "ym2612"
    },
    {
      "channel": 5,
      "note": 76,
      "start": 31.6263,
      "duration": 0.0798,
      "velocity": 124,
      "chip": "ym2612"
    },
    {
      "channel": 5,
      "note": 74,
      "start": 31.7427,
      "duration": 0.0801,
      "velocity": 124,
      "chip": "ym2612"
    },
    {
      "channel": 4,
      "note": 45,
      "start": 31.7459,
      "duration": 0.1268,
      "velocity": 97,
      "chip": "ym2612"
    },
    {
      "channel": 5,
      "note": 76,
      "start": 31.8762,
      "duration": 0.0802,
      "velocity": 124,
      "chip": "ym2612"
    },
    {
      "channel": 5,
      "note": 69,
      "start": 32.0097,
      "duration": 0.08,
      "velocity": 124,
      "chip": "ym2612"
    },
    {
      "channel": 4,
      "note": 40,
      "start": 32.0129,
      "duration": 0.1102,
      "velocity": 97,
      "chip": "ym2612"
    },
    {
      "channel": 5,
      "note": 76,
      "start": 32.1265,
      "duration": 0.0802,
      "velocity": 124,
      "chip": "ym2612"
    },
    {
      "channel": 5,
      "note": 74,
      "start": 32.26,
      "duration": 0.08,
      "velocity": 124,
      "chip": "ym2612"
    },
    {
      "channel": 4,
      "note": 45,
      "start": 32.2632,
      "duration": 0.1102,
      "velocity": 97,
      "chip": "ym2612"
    },
    {
      "channel": 5,
      "note": 76,
      "start": 32.3768,
      "duration": 0.0802,
      "velocity": 124,
      "chip": "ym2612"
    },
    {
      "channel": 5,
      "note": 69,
      "start": 32.5104,
      "duration": 0.0802,
      "velocity": 124,
      "chip": "ym2612"
    },
    {
      "channel": 4,
      "note": 40,
      "start": 32.5141,
      "duration": 0.1096,
      "velocity": 97,
      "chip": "ym2612"
    },
    {
      "channel": 5,
      "note": 64,
      "start": 32.6271,
      "duration": 0.0802,
      "velocity": 124,
      "chip": "ym2612"
    },
    {
      "channel": 4,
      "note": 35,
      "start": 32.6304,
      "duration": 0.1269,
      "velocity": 97,
      "chip": "ym2612"
    },
    {
      "channel": 5,
      "note": 74,
      "start": 32.7635,
      "duration": 0.0772,
      "velocity": 124,
      "chip": "ym2612"
    },
    {
      "channel": 4,
      "note": 45,
      "start": 32.7669,
      "duration": 0.1072,
      "velocity": 97,
      "chip": "ym2612"
    },
    {
      "channel": 2,
      "note": 83,
      "start": 32.7945,
      "duration": 0.1298,
      "velocity": 109,
      "chip": "ym2612"
    },
    {
      "channel": 5,
      "note": 76,
      "start": 32.8775,
      "duration": 0.0801,
      "velocity": 124,
      "chip": "ym2612"
    },
    {
      "channel": 5,
      "note": 69,
      "start": 33.011,
      "duration": 0.0802,
      "velocity": 124,
      "chip": "ym2612"
    },
    {
      "channel": 4,
      "note": 40,
      "start": 33.0142,
      "duration": 0.1103,
      "velocity": 97,
      "chip": "ym2612"
    },
    {
      "channel": 5,
      "note": 76,
      "start": 33.1279,
      "duration": 0.08,
      "velocity": 124,
      "chip": "ym2612"
    },
    {
      "channel": 2,
      "note": 86,
      "start": 33.1316,
      "duration": 0.1432,
      "velocity": 109,
      "chip": "ym2612"
    },
    {
      "channel": 5,
      "note": 74,
      "start": 33.2613,
      "duration": 0.0801,
      "velocity": 124,
      "chip": "ym2612"
    },
    {
      "channel": 4,
      "note": 45,
      "start": 33.2645,
      "duration": 0.1102,
      "velocity": 97,
      "chip": "ym2612"
    },
    {
      "channel": 2,
      "note": 88,
      "start": 33.2951,
      "duration": 0.1466,
      "velocity": 109,
      "chip": "ym2612"
    },
    {
      "channel": 5,
      "note": 76,
      "start": 33.3782,
      "duration": 0.08,
      "velocity": 124,
      "chip": "ym2612"
    },
    {
      "channel": 5,
      "note": 69,
      "start": 33.5116,
      "duration": 0.0802,
      "velocity": 124,
      "chip": "ym2612"
    },
    {
      "channel": 4,
      "note": 40,
      "start": 33.5148,
      "duration": 0.1103,
      "velocity": 97,
      "chip": "ym2612"
    },
    {
      "channel": 2,
      "note": 92,
      "start": 33.5287,
      "duration": 0.1466,
      "velocity": 109,
      "chip": "ym2612"
    },
    {
      "channel": 5,
      "note": 76,
      "start": 33.6289,
      "duration": 0.0796,
      "velocity": 124,
      "chip": "ym2612"
    },
    {
      "channel": 2,
      "note": 90,
      "start": 33.6962,
      "duration": 0.1293,
      "velocity": 109,
      "chip": "ym2612"
    },
    {
      "channel": 5,
      "note": 74,
      "start": 33.7619,
      "duration": 0.0802,
      "velocity": 124,
      "chip": "ym2612"
    },
    {
      "channel": 4,
      "note": 45,
      "start": 33.7651,
      "duration": 0.1103,
      "velocity": 97,
      "chip": "ym2612"
    },
    {
      "channel": 5,
      "note": 76,
      "start": 33.8788,
      "duration": 0.08,
      "velocity": 124,
      "chip": "ym2612"
    },
    {
      "channel": 2,
      "note": 92,
      "start": 33.9127,
      "duration": 0.0797,
      "velocity": 109,
      "chip": "ym2612"
    },
    {
      "channel": 2,
      "note": 93,
      "start": 33.9963,
      "duration": 0.1628,
      "velocity": 109,
      "chip": "ym2612"
    },
    {
      "channel": 5,
      "note": 69,
      "start": 34.0123,
      "duration": 0.08,
      "velocity": 124,
      "chip": "ym2612"
    },
    {
      "channel": 4,
      "note": 40,
      "start": 34.0155,
      "duration": 0.1269,
      "velocity": 97,
      "chip": "ym2612"
    },
    {
      "channel": 5,
      "note": 76,
      "start": 34.1459,
      "duration": 0.0801,
      "velocity": 124,
      "chip": "ym2612"
    },
    {
      "channel": 5,
      "note": 74,
      "start": 34.2626,
      "duration": 0.0802,
      "velocity": 124,
      "chip": "ym2612"
    },
    {
      "channel": 4,
      "note": 45,
      "start": 34.2658,
      "duration": 0.127,
      "velocity": 97,
      "chip": "ym2612"
    },
    {
      "channel": 5,
      "note": 76,
      "start": 34.3962,
      "duration": 0.0801,
      "velocity": 124,
      "chip": "ym2612"
    },
    {
      "channel": 2,
      "note": 93,
      "start": 34.3998,
      "duration": 0.0431,
      "velocity": 109,
      "chip": "ym2612"
    },
    {
      "channel": 5,
      "note": 69,
      "start": 34.5129,
      "duration": 0.0802,
      "velocity": 124,
      "chip": "ym2612"
    },
    {
      "channel": 4,
      "note": 40,
      "start": 34.5163,
      "duration": 0.1268,
      "velocity": 97,
      "chip": "ym2612"
    },
    {
      "channel": 2,
      "note": 95,
      "start": 34.5302,
      "duration": 0.1629,
      "velocity": 109,
      "chip": "ym2612"
    },
    {
      "channel": 5,
      "note": 64,
      "start": 34.6466,
      "duration": 0.08,
      "velocity": 124,
      "chip": "ym2612"
    },
    {
      "channel": 4,
      "note": 35,
      "start": 34.6498,
      "duration": 0.1101,
      "velocity": 97,
      "chip": "ym2612"
    },
    {
      "channel": 5,
      "note": 74,
      "start": 34.7662,
      "duration": 0.0772,
      "velocity": 124,
      "chip": "ym2612"
    },
    {
      "channel": 4,
      "note": 45,
      "start": 34.7695,
      "duration": 0.1239,
      "velocity": 97,
      "chip": "ym2612"
    },
    {
      "channel": 2,
      "note": 93,
      "start": 34.7805,
      "duration": 0.2131,
      "velocity": 109,
      "chip": "ym2612"
    },
    {
      "channel": 5,
      "note": 76,
      "start": 34.8968,
      "duration": 0.08,
      "velocity": 124,
      "chip": "ym2612"
    },
    {
      "channel": 5,
      "note": 69,
      "start": 35.0136,
      "duration": 0.0801,
      "velocity": 124,
      "chip": "ym2612"
    },
    {
      "channel": 2,
      "note": 95,
      "start": 35.0176,
      "duration": 0.1595,
      "velocity": 109,
      "chip": "ym2612"
    },
    {
      "channel": 4,
      "note": 40,
      "start": 35.0207,
      "duration": 0.1229,
      "velocity": 97,
      "chip": "ym2612"
    },
    {
      "channel": 5,
      "note": 76,
      "start": 35.1471,
      "duration": 0.0801,
      "velocity": 124,
      "chip": "ym2612"
    },
    {
      "channel": 2,
      "note": 88,
      "start": 35.231,
      "duration": 0.1632,
      "velocity": 109,
      "chip": "ym2612"
    },
    {
      "channel": 5,
      "note": 74,
      "start": 35.2638,
      "duration": 0.0802,
      "velocity": 124,
      "chip": "ym2612"
    },
    {
      "channel": 4,
      "note": 45,
      "start": 35.2674,
      "duration": 0.1266,
      "velocity": 97,
      "chip": "ym2612"
    },
    {
      "channel": 5,
      "note": 76,
      "start": 35.3975,
      "duration": 0.08,
      "velocity": 124,
      "chip": "ym2612"
    },
    {
      "channel": 2,
      "note": 93,
      "start": 35.4983,
      "duration": 0.1294,
      "velocity": 109,
      "chip": "ym2612"
    },
    {
      "channel": 5,
      "note": 69,
      "start": 35.5142,
      "duration": 0.0802,
      "velocity": 124,
      "chip": "ym2612"
    },
    {
      "channel": 4,
      "note": 40,
      "start": 35.5174,
      "duration": 0.127,
      "velocity": 97,
      "chip": "ym2612"
    },
    {
      "channel": 5,
      "note": 76,
      "start": 35.6481,
      "duration": 0.0797,
      "velocity": 124,
      "chip": "ym2612"
    },
    {
      "channel": 5,
      "note": 74,
      "start": 35.7645,
      "duration": 0.0802,
      "velocity": 124,
      "chip": "ym2612"
    },
    {
      "channel": 4,
      "note": 45,
      "start": 35.7677,
      "duration": 0.127,
      "velocity": 97,
      "chip": "ym2612"
    },
    {
      "channel": 5,
      "note": 76,
      "start": 35.8981,
      "duration": 0.08,
      "velocity": 124,
      "chip": "ym2612"
    },
    {
      "channel": 5,
      "note": 69,
      "start": 36.0148,
      "duration": 0.0802,
      "velocity": 124,
      "chip": "ym2612"
    },
    {
      "channel": 4,
      "note": 40,
      "start": 36.018,
      "duration": 0.127,
      "velocity": 97,
      "chip": "ym2612"
    },
    {
      "channel": 5,
      "note": 76,
      "start": 36.1484,
      "duration": 0.0801,
      "velocity": 124,
      "chip": "ym2612"
    },
    {
      "channel": 5,
      "note": 74,
      "start": 36.2819,
      "duration": 0.0802,
      "velocity": 124,
      "chip": "ym2612"
    },
    {
      "channel": 4,
      "note": 45,
      "start": 36.2851,
      "duration": 0.1103,
      "velocity": 97,
      "chip": "ym2612"
    },
    {
      "channel": 5,
      "note": 76,
      "start": 36.3988,
      "duration": 0.08,
      "velocity": 124,
      "chip": "ym2612"
    },
    {
      "channel": 5,
      "note": 69,
      "start": 36.5321,
      "duration": 0.0802,
      "velocity": 124,
      "chip": "ym2612"
    },
    {
      "channel": 4,
      "note": 40,
      "start": 36.5355,
      "duration": 0.1102,
      "velocity": 97,
      "chip": "ym2612"
    },
    {
      "channel": 5,
      "note": 64,
      "start": 36.649,
      "duration": 0.08,
      "velocity": 124,
      "chip": "ym2612"
    },
    {
      "channel": 4,
      "note": 35,
      "start": 36.6522,
      "duration": 0.1269,
      "velocity": 97,
      "chip": "ym2612"
    },
    {
      "channel": 5,
      "note": 74,
      "start": 36.7855,
      "duration": 0.0772,
      "velocity": 124,
      "chip": "ym2612"
    },
    {
      "channel": 4,
      "note": 45,
      "start": 36.7889,
      "duration": 0.1072,
      "velocity": 97,
      "chip": "ym2612"
    },
    {
      "channel": 1,
      "note": 57,
      "start": 36.7939,
      "duration": 0.2355,
      "velocity": 109,
      "chip": "ym2612"
    },
    {
      "channel": 0,
      "note": 81,
      "start": 36.8,
      "duration": 6.0034,
      "velocity": 121,
      "chip": "ym2612"
    },
    {
      "channel": 5,
      "note": 76,
      "start": 36.8995,
      "duration": 0.08,
      "velocity": 124,
      "chip": "ym2612"
    },
    {
      "channel": 5,
      "note": 69,
      "start": 37.033,
      "duration": 0.08,
      "velocity": 124,
      "chip": "ym2612"
    },
    {
      "channel": 4,
      "note": 40,
      "start": 37.0362,
      "duration": 0.1101,
      "velocity": 97,
      "chip": "ym2612"
    },
    {
      "channel": 1,
      "note": 51,
      "start": 37.0397,
      "duration": 0.2399,
      "velocity": 109,
      "chip": "ym2612"
    },
    {
      "channel": 5,
      "note": 76,
      "start": 37.1497,
      "duration": 0.08,
      "velocity": 124,
      "chip": "ym2612"
    },
    {
      "channel": 5,
      "note": 74,
      "start": 37.2832,
      "duration": 0.08,
      "velocity": 124,
      "chip": "ym2612"
    },
    {
      "channel": 4,
      "note": 45,
      "start": 37.2864,
      "duration": 0.1102,
      "velocity": 97,
      "chip": "ym2612"
    },
    {
      "channel": 5,
      "note": 76,
      "start": 37.4,
      "duration": 0.0802,
      "velocity": 124,
      "chip": "ym2612"
    },
    {
      "channel": 5,
      "note": 69,
      "start": 37.5335,
      "duration": 0.08,
      "velocity": 124,
      "chip": "ym2612"
    },
    {
      "channel": 4,
      "note": 40,
      "start": 37.5367,
      "duration": 0.1102,
      "velocity": 97,
      "chip": "ym2612"
    },
    {
      "channel": 5,
      "note": 76,
      "start": 37.6507,
      "duration": 0.0797,
      "velocity": 124,
      "chip": "ym2612"
    },
    {
      "channel": 5,
      "note": 74,
      "start": 37.7838,
      "duration": 0.0802,
      "velocity": 124,
      "chip": "ym2612"
    },
    {
      "channel": 4,
      "note": 45,
      "start": 37.787,
      "duration": 0.1103,
      "velocity": 97,
      "chip": "ym2612"
    },
    {
      "channel": 5,
      "note": 76,
      "start": 37.9007,
      "duration": 0.08,
      "velocity": 124,
      "chip": "ym2612"
    },
    {
      "channel": 5,
      "note": 69,
      "start": 38.0341,
      "duration": 0.0802,
      "velocity": 124,
      "chip": "ym2612"
    },
    {
      "channel": 4,
      "note": 40,
      "start": 38.0373,
      "duration": 0.1103,
      "velocity": 97,
      "chip": "ym2612"
    },
    {
      "channel": 5,
      "note": 76,
      "start": 38.1511,
      "duration": 0.08,
      "velocity": 124,
      "chip": "ym2612"
    },
    {
      "channel": 5,
      "note": 74,
      "start": 38.2844,
      "duration": 0.0802,
      "velocity": 124,
      "chip": "ym2612"
    },
    {
      "channel": 4,
      "note": 45,
      "start": 38.2876,
      "duration": 0.127,
      "velocity": 97,
      "chip": "ym2612"
    },
    {
      "channel": 5,
      "note": 76,
      "start": 38.4181,
      "duration": 0.08,
      "velocity": 124,
      "chip": "ym2612"
    },
    {
      "channel": 5,
      "note": 69,
      "start": 38.5347,
      "duration": 0.0802,
      "velocity": 124,
      "chip": "ym2612"
    },
    {
      "channel": 4,
      "note": 40,
      "start": 38.5385,
      "duration": 0.1264,
      "velocity": 97,
      "chip": "ym2612"
    },
    {
      "channel": 5,
      "note": 64,
      "start": 38.6684,
      "duration": 0.08,
      "velocity": 124,
      "chip": "ym2612"
    },
    {
      "channel": 4,
      "note": 35,
      "start": 38.6716,
      "duration": 0.1102,
      "velocity": 97,
      "chip": "ym2612"
    },
    {
      "channel": 5,
      "note": 74,
      "start": 38.788,
      "duration": 0.0772,
      "velocity": 124,
      "chip": "ym2612"
    },
    {
      "channel": 4,
      "note": 45,
      "start": 38.7914,
      "duration": 0.1238,
      "velocity": 97,
      "chip": "ym2612"
    },
    {
      "channel": 1,
      "note": 57,
      "start": 38.7944,
      "duration": 0.2376,
      "velocity": 109,
      "chip": "ym2612"
    },
    {
      "channel": 5,
      "note": 76,
      "start": 38.9187,
      "duration": 0.08,
      "velocity": 124,
      "chip": "ym2612"
    },
    {
      "channel": 5,
      "note": 69,
      "start": 39.0355,
      "duration": 0.0801,
      "velocity": 124,
      "chip": "ym2612"
    },
    {
      "channel": 4,
      "note": 40,
      "start": 39.0387,
      "duration": 0.1268,
      "velocity": 97,
      "chip": "ym2612"
    },
    {
      "channel": 1,
      "note": 50,
      "start": 39.0418,
      "duration": 0.2405,
      "velocity": 109,
      "chip": "ym2612"
    },
    {
      "channel": 5,
      "note": 76,
      "start": 39.1689,
      "duration": 0.0802,
      "velocity": 124,
      "chip": "ym2612"
    },
    {
      "channel": 5,
      "note": 74,
      "start": 39.2859,
      "duration": 0.08,
      "velocity": 124,
      "chip": "ym2612"
    },
    {
      "channel": 4,
      "note": 45,
      "start": 39.2891,
      "duration": 0.1268,
      "velocity": 97,
      "chip": "ym2612"
    },
    {
      "channel": 5,
      "note": 76,
      "start": 39.4194,
      "duration": 0.08,
      "velocity": 124,
      "chip": "ym2612"
    },
    {
      "channel": 5,
      "note": 69,
      "start": 39.536,
      "duration": 0.0802,
      "velocity": 124,
      "chip": "ym2612"
    },
    {
      "channel": 4,
      "note": 40,
      "start": 39.5393,
      "duration": 0.127,
      "velocity": 97,
      "chip": "ym2612"
    },
    {
      "channel": 5,
      "note": 76,
      "start": 39.6701,
      "duration": 0.0796,
      "velocity": 124,
      "chip": "ym2612"
    },
    {
      "channel": 5,
      "note": 74,
      "start": 39.7863,
      "duration": 0.0802,
      "velocity": 124,
      "chip": "ym2612"
    },
    {
      "channel": 4,
      "note": 45,
      "start": 39.7895,
      "duration": 0.127,
      "velocity": 97,
      "chip": "ym2612"
    },
    {
      "channel": 5,
      "note": 76,
      "start": 39.92,
      "duration": 0.08,
      "velocity": 124,
      "chip": "ym2612"
    },
    {
      "channel": 5,
      "note": 69,
      "start": 40.0366,
      "duration": 0.0802,
      "velocity": 124,
      "chip": "ym2612"
    },
    {
      "channel": 4,
      "note": 40,
      "start": 40.0398,
      "duration": 0.127,
      "velocity": 97,
      "chip": "ym2612"
    },
    {
      "channel": 5,
      "note": 76,
      "start": 40.1703,
      "duration": 0.08,
      "velocity": 124,
      "chip": "ym2612"
    },
    {
      "channel": 5,
      "note": 74,
      "start": 40.2869,
      "duration": 0.0802,
      "velocity": 124,
      "chip": "ym2612"
    },
    {
      "channel": 4,
      "note": 45,
      "start": 40.2902,
      "duration": 0.127,
      "velocity": 97,
      "chip": "ym2612"
    },
    {
      "channel": 5,
      "note": 76,
      "start": 40.4206,
      "duration": 0.08,
      "velocity": 124,
      "chip": "ym2612"
    },
    {
      "channel": 5,
      "note": 69,
      "start": 40.5539,
      "duration": 0.0802,
      "velocity": 124,
      "chip": "ym2612"
    },
    {
      "channel": 4,
      "note": 40,
      "start": 40.5573,
      "duration": 0.1102,
      "velocity": 97,
      "chip": "ym2612"
    },
    {
      "channel": 5,
      "note": 64,
      "start": 40.6709,
      "duration": 0.0801,
      "velocity": 124,
      "chip": "ym2612"
    },
    {
      "channel": 4,
      "note": 35,
      "start": 40.6741,
      "duration": 0.1268,
      "velocity": 97,
      "chip": "ym2612"
    },
    {
      "channel": 5,
      "note": 74,
      "start": 40.8073,
      "duration": 0.0772,
      "velocity": 124,
      "chip": "ym2612"
    },
    {
      "channel": 4,
      "note": 45,
      "start": 40.8107,
      "duration": 0.1071,
      "velocity": 97,
      "chip": "ym2612"
    },
    {
      "channel": 1,
      "note": 49,
      "start": 40.8137,
      "duration": 0.2375,
      "velocity": 109,
      "chip": "ym2612"
    },
    {
      "channel": 5,
      "note": 76,
      "start": 40.9212,
      "duration": 0.08,
      "velocity": 124,
      "chip": "ym2612"
    },
    {
      "channel": 5,
      "note": 69,
      "start": 41.0547,
      "duration": 0.0801,
      "velocity": 124,
      "chip": "ym2612"
    },
    {
      "channel": 4,
      "note": 40,
      "start": 41.0583,
      "duration": 0.1098,
      "velocity": 97,
      "chip": "ym2612"
    },
    {
      "channel": 1,
      "note": 50,
      "start": 41.0611,
      "duration": 0.2403,
      "velocity": 109,
      "chip": "ym2612"
    },
    {
      "channel": 5,
      "note": 76,
      "start": 41.1715,
      "duration": 0.08,
      "velocity": 124,
      "chip": "ym2612"
    },
    {
      "channel": 5,
      "note": 74,
      "start": 41.305,
      "duration": 0.0801,
      "velocity": 124,
      "chip": "ym2612"
    },
    {
      "channel": 4,
      "note": 45,
      "start": 41.3082,
      "duration": 0.1102,
      "velocity": 97,
      "chip": "ym2612"
    },
    {
      "channel": 1,
      "note": 49,
      "start": 41.311,
      "duration": 0.2408,
      "velocity": 109,
      "chip": "ym2612"
    },
    {
      "channel": 5,
      "note": 76,
      "start": 41.4219,
      "duration": 0.08,
      "velocity": 124,
      "chip": "ym2612"
    },
    {
      "channel": 5,
      "note": 69,
      "start": 41.5553,
      "duration": 0.0801,
      "velocity": 124,
      "chip": "ym2612"
    },
    {
      "channel": 4,
      "note": 40,
      "start": 41.5585,
      "duration": 0.1102,
      "velocity": 97,
      "chip": "ym2612"
    },
    {
      "channel": 1,
      "note": 53,
      "start": 41.5615,
      "duration": 0.2407,
      "velocity": 109,
      "chip": "ym2612"
    },
    {
      "channel": 5,
      "note": 76,
      "start": 41.6726,
      "duration": 0.0796,
      "velocity": 124,
      "chip": "ym2612"
    },
    {
      "channel": 5,
      "note": 74,
      "start": 41.8058,
      "duration": 0.08,
      "velocity": 124,
      "chip": "ym2612"
    },
    {
      "channel": 4,
      "note": 45,
      "start": 41.809,
      "duration": 0.1102,
      "velocity": 97,
      "chip": "ym2612"
    },
    {
      "channel": 5,
      "note": 76,
      "start": 41.9226,
      "duration": 0.08,
      "velocity": 124,
      "chip": "ym2612"
    },
    {
      "channel": 5,
      "note": 69,
      "start": 42.0559,
      "duration": 0.0802,
      "velocity": 124,
      "chip": "ym2612"
    },
    {
      "channel": 4,
      "note": 40,
      "start": 42.0591,
      "duration": 0.1103,
      "velocity": 97,
      "chip": "ym2612"
    },
    {
      "channel": 5,
      "note": 76,
      "start": 42.1729,
      "duration": 0.08,
      "velocity": 124,
      "chip": "ym2612"
    },
    {
      "channel": 5,
      "note": 74,
      "start": 42.3062,
      "duration": 0.0802,
      "velocity": 124,
      "chip": "ym2612"
    },
    {
      "channel": 4,
      "note": 45,
      "start": 42.3094,
      "duration": 0.1103,
      "velocity": 97,
      "chip": "ym2612"
    },
    {
      "channel": 1,
      "note": 50,
      "start": 42.3126,
      "duration": 0.107,
      "velocity": 109,
      "chip": "ym2612"
    },
    {
      "channel": 5,
      "note": 76,
      "start": 42.4232,
      "duration": 0.08,
      "velocity": 124,
      "chip": "ym2612"
    },
    {
      "channel": 1,
      "note": 50,
      "start": 42.4268,
      "duration": 0.1263,
      "velocity": 109,
      "chip": "ym2612"
    },
    {
      "channel": 5,
      "note": 69,
      "start": 42.5567,
      "duration": 0.08,
      "velocity": 124,
      "chip": "ym2612"
    },
    {
      "channel": 4,
      "note": 40,
      "start": 42.56,
      "duration": 0.1267,
      "velocity": 97,
      "chip": "ym2612"
    },
    {
      "channel": 5,
      "note": 64,
      "start": 42.6902,
      "duration": 0.08,
      "velocity": 124,
      "chip": "ym2612"
    },
    {
      "channel": 4,
      "note": 35,
      "start": 42.6934,
      "duration": 0.1102,
      "velocity": 97,
      "chip": "ym2612"
    },
    {
      "channel": 5,
      "note": 74,
      "start": 42.81,
      "duration": 0.077,
      "velocity": 124,
      "chip": "ym2612"
    },
    {
      "channel": 4,
      "note": 45,
      "start": 42.8133,
      "duration": 0.1238,
      "velocity": 97,
      "chip": "ym2612"
    },
    {
      "channel": 0,
      "note": 81,
      "start": 42.8195,
      "duration": 6.0083,
      "velocity": 121,
      "chip": "ym2612"
    },
    {
      "channel": 5,
      "note": 76,
      "start": 42.9406,
      "duration": 0.08,
      "velocity": 124,
      "chip": "ym2612"
    },
    {
      "channel": 5,
      "note": 69,
      "start": 43.0572,
      "duration": 0.0801,
      "velocity": 124,
      "chip": "ym2612"
    },
    {
      "channel": 4,
      "note": 40,
      "start": 43.0604,
      "duration": 0.127,
      "velocity": 97,
      "chip": "ym2612"
    },
    {
      "channel": 1,
      "note": 53,
      "start": 43.0636,
      "duration": 0.2405,
      "velocity": 109,
      "chip": "ym2612"
    },
    {
      "channel": 5,
      "note": 76,
      "start": 43.1908,
      "duration": 0.08,
      "velocity": 124,
      "chip": "ym2612"
    },
    {
      "channel": 5,
      "note": 74,
      "start": 43.3076,
      "duration": 0.0801,
      "velocity": 124,
      "chip": "ym2612"
    },
    {
      "channel": 4,
      "note": 45,
      "start": 43.3108,
      "duration": 0.1269,
      "velocity": 97,
      "chip": "ym2612"
    },
    {
      "channel": 1,
      "note": 50,
      "start": 43.3136,
      "duration": 0.2408,
      "velocity": 109,
      "chip": "ym2612"
    },
    {
      "channel": 5,
      "note": 76,
      "start": 43.4411,
      "duration": 0.08,
      "velocity": 124,
      "chip": "ym2612"
    },
    {
      "channel": 5,
      "note": 69,
      "start": 43.5579,
      "duration": 0.0801,
      "velocity": 124,
      "chip": "ym2612"
    },
    {
      "channel": 4,
      "note": 40,
      "start": 43.5612,
      "duration": 0.1269,
      "velocity": 97,
      "chip": "ym2612"
    },
    {
      "channel": 1,
      "note": 55,
      "start": 43.5641,
      "duration": 0.2406,
      "velocity": 109,
      "chip": "ym2612"
    },
    {
      "channel": 5,
      "note": 76,
      "start": 43.6919,
      "duration": 0.0796,
      "velocity": 124,
      "chip": "ym2612"
    },
    {
      "channel": 5,
      "note": 74,
      "start": 43.8083,
      "duration": 0.08,
      "velocity": 124,
      "chip": "ym2612"
    },
    {
      "channel": 4,
      "note": 45,
      "start": 43.8115,
      "duration": 0.1268,
      "velocity": 97,
      "chip": "ym2612"
    },
    {
      "channel": 5,
      "note": 76,
      "start": 43.9417,
      "duration": 0.0801,
      "velocity": 124,
      "chip": "ym2612"
    },
    {
      "channel": 5,
      "note": 69,
      "start": 44.0585,
      "duration": 0.0801,
      "velocity": 124,
      "chip": "ym2612"
    },
    {
      "channel": 4,
      "note": 40,
      "start": 44.0617,
      "duration": 0.127,
      "velocity": 97,
      "chip": "ym2612"
    },
    {
      "channel": 1,
      "note": 50,
      "start": 44.0649,
      "duration": 0.1237,
      "velocity": 109,
      "chip": "ym2612"
    },
    {
      "channel": 5,
      "note": 76,
      "start": 44.1922,
      "duration": 0.08,
      "velocity": 124,
      "chip": "ym2612"
    },
    {
      "channel": 1,
      "note": 50,
      "start": 44.1956,
      "duration": 0.1098,
      "velocity": 109,
      "chip": "ym2612"
    },
    {
      "channel": 5,
      "note": 74,
      "start": 44.3089,
      "duration": 0.0802,
      "velocity": 124,
      "chip": "ym2612"
    },
    {
      "channel": 4,
      "note": 45,
      "start": 44.3125,
      "duration": 0.1266,
      "velocity": 97,
      "chip": "ym2612"
    },
    {
      "channel": 5,
      "note": 76,
      "start": 44.4425,
      "duration": 0.08,
      "velocity": 124,
      "chip": "ym2612"
    },
    {
      "channel": 5,
      "note": 69,
      "start": 44.5591,
      "duration": 0.0802,
      "velocity": 124,
      "chip": "ym2612"
    },
    {
      "channel": 4,
      "note": 40,
      "start": 44.5625,
      "duration": 0.1268,
      "velocity": 97,
      "chip": "ym2612"
    },
    {
      "channel": 5,
      "note": 64,
      "start": 44.6928,
      "duration": 0.08,
      "velocity": 124,
      "chip": "ym2612"
    },
    {
      "channel": 4,
      "note": 35,
      "start": 44.696,
      "duration": 0.1268,
      "velocity": 97,
      "chip": "ym2612"
    },
    {
      "channel": 5,
      "note": 74,
      "start": 44.8291,
      "duration": 0.0772,
      "velocity": 124,
      "chip": "ym2612"
    },
    {
      "channel": 4,
      "note": 45,
      "start": 44.8325,
      "duration": 0.1072,
      "velocity": 97,
      "chip": "ym2612"
    },
    {
      "channel": 3,
      "note": 57,
      "start": 44.8377,
      "duration": 0.2355,
      "velocity": 78,
      "chip": "ym2612"
    },
    {
      "channel": 5,
      "note": 76,
      "start": 44.9431,
      "duration": 0.08,
      "velocity": 124,
      "chip": "ym2612"
    },
    {
      "channel": 5,
      "note": 69,
      "start": 45.0766,
      "duration": 0.08,
      "velocity": 124,
      "chip": "ym2612"
    },
    {
      "channel": 4,
      "note": 40,
      "start": 45.0798,
      "duration": 0.1102,
      "velocity": 97,
      "chip": "ym2612"
    },
    {
      "channel": 3,
      "note": 51,
      "start": 45.0835,
      "duration": 0.2399,
      "velocity": 78,
      "chip": "ym2612"
    },
    {
      "channel": 5,
      "note": 76,
      "start": 45.1934,
      "duration": 0.08,
      "velocity": 124,
      "chip": "ym2612"
    },
    {
      "channel": 5,
      "note": 74,
      "start": 45.3269,
      "duration": 0.0801,
      "velocity": 124,
      "chip": "ym2612"
    },
    {
      "channel": 4,
      "note": 45,
      "start": 45.3301,
      "duration": 0.1102,
      "velocity": 97,
      "chip": "ym2612"
    },
    {
      "channel": 5,
      "note": 76,
      "start": 45.4437,
      "duration": 0.0802,
      "velocity": 124,
      "chip": "ym2612"
    },
    {
      "channel": 5,
      "note": 69,
      "start": 45.5772,
      "duration": 0.08,
      "velocity": 124,
      "chip": "ym2612"
    },
    {
      "channel": 4,
      "note": 40,
      "start": 45.5804,
      "duration": 0.1103,
      "velocity": 97,
      "chip": "ym2612"
    },
    {
      "channel": 5,
      "note": 76,
      "start": 45.6945,
      "duration": 0.0796,
      "velocity": 124,
      "chip": "ym2612"
    },
    {
      "channel": 5,
      "note": 74,
      "start": 45.8274,
      "duration": 0.0802,
      "velocity": 124,
      "chip": "ym2612"
    },
    {
      "channel": 4,
      "note": 45,
      "start": 45.8306,
      "duration": 0.1103,
      "velocity": 97,
      "chip": "ym2612"
    },
    {
      "channel": 5,
      "note": 76,
      "start": 45.9444,
      "duration": 0.08,
      "velocity": 124,
      "chip": "ym2612"
    },
    {
      "channel": 5,
      "note": 69,
      "start": 46.0777,
      "duration": 0.0802,
      "velocity": 124,
      "chip": "ym2612"
    },
    {
      "channel": 4,
      "note": 40,
      "start": 46.0809,
      "duration": 0.1103,
      "velocity": 97,
      "chip": "ym2612"
    },
    {
      "channel": 5,
      "note": 76,
      "start": 46.1946,
      "duration": 0.0802,
      "velocity": 124,
      "chip": "ym2612"
    },
    {
      "channel": 5,
      "note": 74,
      "start": 46.3282,
      "duration": 0.08,
      "velocity": 124,
      "chip": "ym2612"
    },
    {
      "channel": 4,
      "note": 45,
      "start": 46.3314,
      "duration": 0.1102,
      "velocity": 97,
      "chip": "ym2612"
    },
    {
      "channel": 5,
      "note": 76,
      "start": 46.4449,
      "duration": 0.0802,
      "velocity": 124,
      "chip": "ym2612"
    },
    {
      "channel": 5,
      "note": 69,
      "start": 46.5784,
      "duration": 0.0802,
      "velocity": 124,
      "chip": "ym2612"
    },
    {
      "channel": 4,
      "note": 40,
      "start": 46.5818,
      "duration": 0.1102,
      "velocity": 97,
      "chip": "ym2612"
    },
    {
      "channel": 5,
      "note": 64,
      "start": 46.6954,
      "duration": 0.08,
      "velocity": 124,
      "chip": "ym2612"
    },
    {
      "channel": 4,
      "note": 35,
      "start": 46.6986,
      "duration": 0.1268,
      "velocity": 97,
      "chip": "ym2612"
    },
    {
      "channel": 5,
      "note": 74,
      "start": 46.8317,
      "duration": 0.0772,
      "velocity": 124,
      "chip": "ym2612"
    },
    {
      "channel": 4,
      "note": 45,
      "start": 46.8355,
      "duration": 0.1235,
      "velocity": 97,
      "chip": "ym2612"
    },
    {
      "channel": 3,
      "note": 57,
      "start": 46.8387,
      "duration": 0.237,
      "velocity": 78,
      "chip": "ym2612"
    },
    {
      "channel": 5,
      "note": 76,
      "start": 46.9624,
      "duration": 0.08,
      "velocity": 124,
      "chip": "ym2612"
    },
    {
      "channel": 5,
      "note": 69,
      "start": 47.0792,
      "duration": 0.0801,
      "velocity": 124,
      "chip": "ym2612"
    },
    {
      "channel": 4,
      "note": 40,
      "start": 47.0824,
      "duration": 0.1269,
      "velocity": 97,
      "chip": "ym2612"
    },
    {
      "channel": 3,
      "note": 50,
      "start": 47.0857,
      "duration": 0.2403,
      "velocity": 78,
      "chip": "ym2612"
    },
    {
      "channel": 5,
      "note": 76,
      "start": 47.2127,
      "duration": 0.08,
      "velocity": 124,
      "chip": "ym2612"
    },
    {
      "channel": 5,
      "note": 74,
      "start": 47.3295,
      "duration": 0.08,
      "velocity": 124,
      "chip": "ym2612"
    },
    {
      "channel": 4,
      "note": 45,
      "start": 47.3327,
      "duration": 0.1269,
      "velocity": 97,
      "chip": "ym2612"
    },
    {
      "channel": 5,
      "note": 76,
      "start": 47.463,
      "duration": 0.08,
      "velocity": 124,
      "chip": "ym2612"
    },
    {
      "channel": 5,
      "note": 69,
      "start": 47.5797,
      "duration": 0.0802,
      "velocity": 124,
      "chip": "ym2612"
    },
    {
      "channel": 4,
      "note": 40,
      "start": 47.5829,
      "duration": 0.127,
      "velocity": 97,
      "chip": "ym2612"
    },
    {
      "channel": 5,
      "note": 76,
      "start": 47.7137,
      "duration": 0.0797,
      "velocity": 124,
      "chip": "ym2612"
    },
    {
      "channel": 5,
      "note": 74,
      "start": 47.8301,
      "duration": 0.0802,
      "velocity": 124,
      "chip": "ym2612"
    },
    {
      "channel": 4,
      "note": 45,
      "start": 47.8333,
      "duration": 0.1268,
      "velocity": 97,
      "chip": "ym2612"
    },
    {
      "channel": 5,
      "note": 76,
      "start": 47.9636,
      "duration": 0.0802,
      "velocity": 124,
      "chip": "ym2612"
    },
    {
      "channel": 5,
      "note": 69,
      "start": 48.0804,
      "duration": 0.0802,
      "velocity": 124,
      "chip": "ym2612"
    },
    {
      "channel": 4,
      "note": 40,
      "start": 48.0836,
      "duration": 0.127,
      "velocity": 97,
      "chip": "ym2612"
    },
    {
      "channel": 5,
      "note": 76,
      "start": 48.214,
      "duration": 0.08,
      "velocity": 124,
      "chip": "ym2612"
    },
    {
      "channel": 5,
      "note": 74,
      "start": 48.3307,
      "duration": 0.0802,
      "velocity": 124,
      "chip": "ym2612"
    },
    {
      "channel": 4,
      "note": 45,
      "start": 48.3339,
      "duration": 0.127,
      "velocity": 97,
      "chip": "ym2612"
    },
    {
      "channel": 5,
      "note": 76,
      "start": 48.4643,
      "duration": 0.08,
      "velocity": 124,
      "chip": "ym2612"
    },
    {
      "channel": 5,
      "note": 69,
      "start": 48.581,
      "duration": 0.0802,
      "velocity": 124,
      "chip": "ym2612"
    },
    {
      "channel": 4,
      "note": 40,
      "start": 48.5843,
      "duration": 0.1269,
      "velocity": 97,
      "chip": "ym2612"
    },
    {
      "channel": 5,
      "note": 64,
      "start": 48.7146,
      "duration": 0.08,
      "velocity": 124,
      "chip": "ym2612"
    },
    {
      "channel": 4,
      "note": 35,
      "start": 48.7178,
      "duration": 0.1102,
      "velocity": 97,
      "chip": "ym2612"
    },
    {
      "channel": 5,
      "note": 74,
      "start": 48.8344,
      "duration": 0.0771,
      "velocity": 124,
      "chip": "ym2612"
    },
    {
      "channel": 4,
      "note": 45,
      "start": 48.8377,
      "duration": 0.1238,
      "velocity": 97,
      "chip": "ym2612"
    },
    {
      "channel": 3,
      "note": 49,
      "start": 48.8409,
      "duration": 0.254,
      "velocity": 78,
      "chip": "ym2612"
    },
    {
      "channel": 0,
      "note": 81,
      "start": 48.8469,
      "duration": 6.022,
      "velocity": 121,
      "chip": "ym2612"
    },
    {
      "channel": 5,
      "note": 76,
      "start": 48.9649,
      "duration": 0.08,
      "velocity": 124,
      "chip": "ym2612"
    },
    {
      "channel": 5,
      "note": 69,
      "start": 49.0984,
      "duration": 0.0801,
      "velocity": 124,
      "chip": "ym2612"
    },
    {
      "channel": 4,
      "note": 40,
      "start": 49.1016,
      "duration": 0.1102,
      "velocity": 97,
      "chip": "ym2612"
    },
    {
      "channel": 3,
      "note": 50,
      "start": 49.1046,
      "duration": 0.2406,
      "velocity": 78,
      "chip": "ym2612"
    },
    {
      "channel": 5,
      "note": 76,
      "start": 49.2152,
      "duration": 0.08,
      "velocity": 124,
      "chip": "ym2612"
    },
    {
      "channel": 5,
      "note": 74,
      "start": 49.3487,
      "duration": 0.0802,
      "velocity": 124,
      "chip": "ym2612"
    },
    {
      "channel": 4,
      "note": 45,
      "start": 49.3519,
      "duration": 0.1102,
      "velocity": 97,
      "chip": "ym2612"
    },
    {
      "channel": 3,
      "note": 49,
      "start": 49.3549,
      "duration": 0.2406,
      "velocity": 78,
      "chip": "ym2612"
    },
    {
      "channel": 5,
      "note": 76,
      "start": 49.4655,
      "duration": 0.0801,
      "velocity": 124,
      "chip": "ym2612"
    },
    {
      "channel": 5,
      "note": 69,
      "start": 49.599,
      "duration": 0.0801,
      "velocity": 124,
      "chip": "ym2612"
    },
    {
      "channel": 4,
      "note": 40,
      "start": 49.6022,
      "duration": 0.1102,
      "velocity": 97,
      "chip": "ym2612"
    },
    {
      "channel": 3,
      "note": 53,
      "start": 49.6054,
      "duration": 0.2405,
      "velocity": 78,
      "chip": "ym2612"
    },
    {
      "channel": 5,
      "note": 76,
      "start": 49.7162,
      "duration": 0.0798,
      "velocity": 124,
      "chip": "ym2612"
    },
    {
      "channel": 5,
      "note": 74,
      "start": 49.8494,
      "duration": 0.08,
      "velocity": 124,
      "chip": "ym2612"
    },
    {
      "channel": 4,
      "note": 45,
      "start": 49.8526,
      "duration": 0.1101,
      "velocity": 97,
      "chip": "ym2612"
    },
    {
      "channel": 5,
      "note": 76,
      "start": 49.9662,
      "duration": 0.0802,
      "velocity": 124,
      "chip": "ym2612"
    },
    {
      "channel": 5,
      "note": 69,
      "start": 50.0997,
      "duration": 0.0801,
      "velocity": 124,
      "chip": "ym2612"
    },
    {
      "channel": 4,
      "note": 40,
      "start": 50.1032,
      "duration": 0.1099,
      "velocity": 97,
      "chip": "ym2612"
    },
    {
      "channel": 5,
      "note": 76,
      "start": 50.2166,
      "duration": 0.08,
      "velocity": 124,
      "chip": "ym2612"
    },
    {
      "channel": 5,
      "note": 74,
      "start": 50.3499,
      "duration": 0.0802,
      "velocity": 124,
      "chip": "ym2612"
    },
    {
      "channel": 4,
      "note": 45,
      "start": 50.3531,
      "duration": 0.1104,
      "velocity": 97,
      "chip": "ym2612"
    },
    {
      "channel": 3,
      "note": 50,
      "start": 50.3564,
      "duration": 0.1069,
      "velocity": 78,
      "chip": "ym2612"
    },
    {
      "channel": 5,
      "note": 76,
      "start": 50.4669,
      "duration": 0.08,
      "velocity": 124,
      "chip": "ym2612"
    },
    {
      "channel": 3,
      "note": 50,
      "start": 50.4707,
      "duration": 0.1261,
      "velocity": 78,
      "chip": "ym2612"
    },
    {
      "channel": 5,
      "note": 69,
      "start": 50.6004,
      "duration": 0.08,
      "velocity": 124,
      "chip": "ym2612"
    },
    {
      "channel": 4,
      "note": 40,
      "start": 50.6037,
      "duration": 0.11,
      "velocity": 97,
      "chip": "ym2612"
    },
    {
      "channel": 5,
      "note": 64,
      "start": 50.7171,
      "duration": 0.08,
      "velocity": 124,
      "chip": "ym2612"
    },
    {
      "channel": 4,
      "note": 35,
      "start": 50.7204,
      "duration": 0.1268,
      "velocity": 97,
      "chip": "ym2612"
    },
    {
      "channel": 5,
      "note": 74,
      "start": 50.8535,
      "duration": 0.0772,
      "velocity": 124,
      "chip": "ym2612"
    },
    {
      "channel": 4,
      "note": 45,
      "start": 50.8569,
      "duration": 0.1072,
      "velocity": 97,
      "chip": "ym2612"
    },
    {
      "channel": 5,
      "note": 76,
      "start": 50.9675,
      "duration": 0.0801,
      "velocity": 124,
      "chip": "ym2612"
    },
    {
      "channel": 5,
      "note": 69,
      "start": 51.1009,
      "duration": 0.0802,
      "velocity": 124,
      "chip": "ym2612"
    },
    {
      "channel": 4,
      "note": 40,
      "start": 51.1041,
      "duration": 0.1269,
      "velocity": 97,
      "chip": "ym2612"
    },
    {
      "channel": 3,
      "note": 53,
      "start": 51.1075,
      "duration": 0.2404,
      "velocity": 78,
      "chip": "ym2612"
    },
    {
      "channel": 5,
      "note": 76,
      "start": 51.2344,
      "duration": 0.0802,
      "velocity": 124,
      "chip": "ym2612"
    },
    {
      "channel": 5,
      "note": 74,
      "start": 51.3514,
      "duration": 0.0801,
      "velocity": 124,
      "chip": "ym2612"
    },
    {
      "channel": 4,
      "note": 45,
      "start": 51.3546,
      "duration": 0.1269,
      "velocity": 97,
      "chip": "ym2612"
    },
    {
      "channel": 3,
      "note": 50,
      "start": 51.3576,
      "duration": 0.2405,
      "velocity": 78,
      "chip": "ym2612"
    },
    {
      "channel": 5,
      "note": 76,
      "start": 51.4849,
      "duration": 0.08,
      "velocity": 124,
      "chip": "ym2612"
    },
    {
      "channel": 5,
      "note": 69,
      "start": 51.6016,
      "duration": 0.08,
      "velocity": 124,
      "chip": "ym2612"
    },
    {
      "channel": 4,
      "note": 40,
      "start": 51.6048,
      "duration": 0.1269,
      "velocity": 97,
      "chip": "ym2612"
    },
    {
      "channel": 3,
      "note": 55,
      "start": 51.608,
      "duration": 0.2405,
      "velocity": 78,
      "chip": "ym2612"
    },
    {
      "channel": 5,
      "note": 76,
      "start": 51.7355,
      "duration": 0.0798,
      "velocity": 124,
      "chip": "ym2612"
    },
    {
      "channel": 5,
      "note": 74,
      "start": 51.852,
      "duration": 0.08,
      "velocity": 124,
      "chip": "ym2612"
    },
    {
      "channel": 4,
      "note": 45,
      "start": 51.8552,
      "duration": 0.1268,
      "velocity": 97,
      "chip": "ym2612"
    },
    {
      "channel": 5,
      "note": 76,
      "start": 51.9855,
      "duration": 0.0801,
      "velocity": 124,
      "chip": "ym2612"
    },
    {
      "channel": 5,
      "note": 69,
      "start": 52.1022,
      "duration": 0.0801,
      "velocity": 124,
      "chip": "ym2612"
    },
    {
      "channel": 4,
      "note": 40,
      "start": 52.1054,
      "duration": 0.127,
      "velocity": 97,
      "chip": "ym2612"
    },
    {
      "channel": 3,
      "note": 50,
      "start": 52.1088,
      "duration": 0.1235,
      "velocity": 78,
      "chip": "ym2612"
    },
    {
      "channel": 5,
      "note": 76,
      "start": 52.2359,
      "duration": 0.08,
      "velocity": 124,
      "chip": "ym2612"
    },
    {
      "channel": 3,
      "note": 50,
      "start": 52.2394,
      "duration": 0.1097,
      "velocity": 78,
      "chip": "ym2612"
    },
    {
      "channel": 5,
      "note": 74,
      "start": 52.3526,
      "duration": 0.08,
      "velocity": 124,
      "chip": "ym2612"
    },
    {
      "channel": 4,
      "note": 45,
      "start": 52.3558,
      "duration": 0.1268,
      "velocity": 97,
      "chip": "ym2612"
    },
    {
      "channel": 5,
      "note": 76,
      "start": 52.4861,
      "duration": 0.0801,
      "velocity": 124,
      "chip": "ym2612"
    },
    {
      "channel": 5,
      "note": 69,
      "start": 52.6029,
      "duration": 0.0802,
      "velocity": 124,
      "chip": "ym2612"
    },
    {
      "channel": 4,
      "note": 40,
      "start": 52.6062,
      "duration": 0.1268,
      "velocity": 97,
      "chip": "ym2612"
    },
    {
      "channel": 5,
      "note": 64,
      "start": 52.7365,
      "duration": 0.08,
      "velocity": 124,
      "chip": "ym2612"
    },
    {
      "channel": 4,
      "note": 35,
      "start": 52.7397,
      "duration": 0.1101,
      "velocity": 97,
      "chip": "ym2612"
    },
    {
      "channel": 5,
      "note": 74,
      "start": 52.8562,
      "duration": 0.0772,
      "velocity": 124,
      "chip": "ym2612"
    },
    {
      "channel": 4,
      "note": 45,
      "start": 52.8599,
      "duration": 0.1234,
      "velocity": 97,
      "chip": "ym2612"
    },
    {
      "channel": 5,
      "note": 76,
      "start": 52.9868,
      "duration": 0.08,
      "velocity": 124,
      "chip": "ym2612"
    },
    {
      "channel": 1,
      "note": 46,
      "start": 53.0881,
      "duration": 3.4999,
      "velocity": 90,
      "chip": "ym2612"
    },
    {
      "channel": 2,
      "note": 46,
      "start": 53.0918,
      "duration": 3.4965,
      "velocity": 115,
      "chip": "ym2612"
    },
    {
      "channel": 5,
      "note": 69,
      "start": 53.1035,
      "duration": 0.0801,
      "velocity": 124,
      "chip": "ym2612"
    },
    {
      "channel": 4,
      "note": 40,
      "start": 53.1067,
      "duration": 0.127,
      "velocity": 97,
      "chip": "ym2612"
    },
    {
      "channel": 5,
      "note": 76,
      "start": 53.2371,
      "duration": 0.0801,
      "velocity": 124,
      "chip": "ym2612"
    },
    {
      "channel": 5,
      "note": 74,
      "start": 53.3705,
      "duration": 0.0801,
      "velocity": 124,
      "chip": "ym2612"
    },
    {
      "channel": 4,
      "note": 45,
      "start": 53.3737,
      "duration": 0.1103,
      "velocity": 97,
      "chip": "ym2612"
    },
    {
      "channel": 5,
      "note": 76,
      "start": 53.4874,
      "duration": 0.0801,
      "velocity": 124,
      "chip": "ym2612"
    },
    {
      "channel": 5,
      "note": 69,
      "start": 53.6209,
      "duration": 0.0801,
      "velocity": 124,
      "chip": "ym2612"
    },
    {
      "channel": 4,
      "note": 40,
      "start": 53.6241,
      "duration": 0.1103,
      "velocity": 97,
      "chip": "ym2612"
    },
    {
      "channel": 5,
      "note": 76,
      "start": 53.7382,
      "duration": 0.0797,
      "velocity": 124,
      "chip": "ym2612"
    },
    {
      "channel": 5,
      "note": 74,
      "start": 53.8712,
      "duration": 0.0801,
      "velocity": 124,
      "chip": "ym2612"
    },
    {
      "channel": 4,
      "note": 45,
      "start": 53.8744,
      "duration": 0.1103,
      "velocity": 97,
      "chip": "ym2612"
    },
    {
      "channel": 5,
      "note": 76,
      "start": 53.9881,
      "duration": 0.0801,
      "velocity": 124,
      "chip": "ym2612"
    },
    {
      "channel": 5,
      "note": 69,
      "start": 54.1214,
      "duration": 0.0802,
      "velocity": 124,
      "chip": "ym2612"
    },
    {
      "channel": 4,
      "note": 40,
      "start": 54.1246,
      "duration": 0.1104,
      "velocity": 97,
      "chip": "ym2612"
    },
    {
      "channel": 5,
      "note": 76,
      "start": 54.2385,
      "duration": 0.08,
      "velocity": 124,
      "chip": "ym2612"
    },
    {
      "channel": 5,
      "note": 74,
      "start": 54.3718,
      "duration": 0.0801,
      "velocity": 124,
      "chip": "ym2612"
    },
    {
      "channel": 4,
      "note": 45,
      "start": 54.375,
      "duration": 0.1103,
      "velocity": 97,
      "chip": "ym2612"
    },
    {
      "channel": 5,
      "note": 76,
      "start": 54.4887,
      "duration": 0.0801,
      "velocity": 124,
      "chip": "ym2612"
    },
    {
      "channel": 5,
      "note": 69,
      "start": 54.6222,
      "duration": 0.0801,
      "velocity": 124,
      "chip": "ym2612"
    },
    {
      "channel": 4,
      "note": 40,
      "start": 54.6255,
      "duration": 0.1101,
      "velocity": 97,
      "chip": "ym2612"
    },
    {
      "channel": 5,
      "note": 64,
      "start": 54.739,
      "duration": 0.0801,
      "velocity": 124,
      "chip": "ym2612"
    },
    {
      "channel": 4,
      "note": 35,
      "start": 54.7422,
      "duration": 0.1269,
      "velocity": 97,
      "chip": "ym2612"
    },
    {
      "channel": 5,
      "note": 74,
      "start": 54.8755,
      "duration": 0.0771,
      "velocity": 124,
      "chip": "ym2612"
    },
    {
      "channel": 4,
      "note": 45,
      "start": 54.8788,
      "duration": 0.1071,
      "velocity": 97,
      "chip": "ym2612"
    },
    {
      "channel": 0,
      "note": 81,
      "start": 54.885,
      "duration": 1.942,
      "velocity": 121,
      "chip": "ym2612"
    },
    {
      "channel": 5,
      "note": 76,
      "start": 54.9894,
      "duration": 0.0801,
      "velocity": 124,
      "chip": "ym2612"
    },
    {
      "channel": 5,
      "note": 69,
      "start": 55.1228,
      "duration": 0.0801,
      "velocity": 124,
      "chip": "ym2612"
    },
    {
      "channel": 4,
      "note": 40,
      "start": 55.126,
      "duration": 0.1103,
      "velocity": 97,
      "chip": "ym2612"
    },
    {
      "channel": 5,
      "note": 76,
      "start": 55.2397,
      "duration": 0.0801,
      "velocity": 124,
      "chip": "ym2612"
    },
    {
      "channel": 5,
      "note": 74,
      "start": 55.3731,
      "duration": 0.0802,
      "velocity": 124,
      "chip": "ym2612"
    },
    {
      "channel": 4,
      "note": 45,
      "start": 55.3762,
      "duration": 0.127,
      "velocity": 97,
      "chip": "ym2612"
    },
    {
      "channel": 5,
      "note": 76,
      "start": 55.5066,
      "duration": 0.0801,
      "velocity": 124,
      "chip": "ym2612"
    },
    {
      "channel": 5,
      "note": 69,
      "start": 55.6234,
      "duration": 0.0801,
      "velocity": 124,
      "chip": "ym2612"
    },
    {
      "channel": 4,
      "note": 40,
      "start": 55.6266,
      "duration": 0.127,
      "velocity": 97,
      "chip": "ym2612"
    },
    {
      "channel": 5,
      "note": 76,
      "start": 55.7574,
      "duration": 0.0796,
      "velocity": 124,
      "chip": "ym2612"
    },
    {
      "channel": 5,
      "note": 74,
      "start": 55.8738,
      "duration": 0.0802,
      "velocity": 124,
      "chip": "ym2612"
    },
    {
      "channel": 4,
      "note": 45,
      "start": 55.8773,
      "duration": 0.1266,
      "velocity": 97,
      "chip": "ym2612"
    },
    {
      "channel": 5,
      "note": 76,
      "start": 56.0073,
      "duration": 0.0801,
      "velocity": 124,
      "chip": "ym2612"
    },
    {
      "channel": 5,
      "note": 69,
      "start": 56.1241,
      "duration": 0.0801,
      "velocity": 124,
      "chip": "ym2612"
    },
    {
      "channel": 4,
      "note": 40,
      "start": 56.1273,
      "duration": 0.127,
      "velocity": 97,
      "chip": "ym2612"
    },
    {
      "channel": 5,
      "note": 76,
      "start": 56.2577,
      "duration": 0.0801,
      "velocity": 124,
      "chip": "ym2612"
    },
    {
      "channel": 5,
      "note": 74,
      "start": 56.3744,
      "duration": 0.0801,
      "velocity": 124,
      "chip": "ym2612"
    },
    {
      "channel": 4,
      "note": 45,
      "start": 56.3776,
      "duration": 0.127,
      "velocity": 97,
      "chip": "ym2612"
    },
    {
      "channel": 5,
      "note": 76,
      "start": 56.508,
      "duration": 0.0802,
      "velocity": 124,
      "chip": "ym2612"
    },
    {
      "channel": 3,
      "note": 53,
      "start": 56.576,
      "duration": 0.2623,
      "velocity": 90,
      "chip": "ym2612"
    },
    {
      "channel": 4,
      "note": 53,
      "start": 56.5797,
      "duration": 0.2586,
      "velocity": 115,
      "chip": "ym2612"
    },
    {
      "channel": 5,
      "note": 69,
      "start": 56.6247,
      "duration": 0.0802,
      "velocity": 124,
      "chip": "ym2612"
    },
    {
      "channel": 1,
      "note": 40,
      "start": 56.6281,
      "duration": 0.1267,
      "velocity": 97,
      "chip": "ym2612"
    },
    {
      "channel": 5,
      "note": 64,
      "start": 56.7583,
      "duration": 0.0802,
      "velocity": 124,
      "chip": "ym2612"
    },
    {
      "channel": 1,
      "note": 35,
      "start": 56.7615,
      "duration": 0.1102,
      "velocity": 97,
      "chip": "ym2612"
    },
    {
      "channel": 2,
      "note": 49,
      "start": 56.826,
      "duration": 0.2795,
      "velocity": 90,
      "chip": "ym2612"
    },
    {
      "channel": 0,
      "note": 49,
      "start": 56.8294,
      "duration": 0.2758,
      "velocity": 115,
      "chip": "ym2612"
    },
    {
      "channel": 5,
      "note": 74,
      "start": 56.878,
      "duration": 0.0771,
      "velocity": 124,
      "chip": "ym2612"
    },
    {
      "channel": 1,
      "note": 45,
      "start": 56.8813,
      "duration": 0.1238,
      "velocity": 97,
      "chip": "ym2612"
    },
    {
      "channel": 5,
      "note": 76,
      "start": 57.0086,
      "duration": 0.08,
      "velocity": 124,
      "chip": "ym2612"
    },
    {
      "channel": 3,
      "note": 51,
      "start": 57.11,
      "duration": 3.4665,
      "velocity": 90,
      "chip": "ym2612"
    },
    {
      "channel": 0,
      "note": 51,
      "start": 57.1134,
      "duration": 3.4629,
      "velocity": 115,
      "chip": "ym2612"
    },
    {
      "channel": 5,
      "note": 69,
      "start": 57.1254,
      "duration": 0.0801,
      "velocity": 124,
      "chip": "ym2612"
    },
    {
      "channel": 1,
      "note": 40,
      "start": 57.1285,
      "duration": 0.127,
      "velocity": 97,
      "chip": "ym2612"
    },
    {
      "channel": 5,
      "note": 76,
      "start": 57.259,
      "duration": 0.08,
      "velocity": 124,
      "chip": "ym2612"
    },
    {
      "channel": 5,
      "note": 74,
      "start": 57.3757,
      "duration": 0.0801,
      "velocity": 124,
      "chip": "ym2612"
    },
    {
      "channel": 1,
      "note": 45,
      "start": 57.3788,
      "duration": 0.127,
      "velocity": 97,
      "chip": "ym2612"
    },
    {
      "channel": 5,
      "note": 76,
      "start": 57.5093,
      "duration": 0.08,
      "velocity": 124,
      "chip": "ym2612"
    },
    {
      "channel": 5,
      "note": 69,
      "start": 57.6427,
      "duration": 0.0801,
      "velocity": 124,
      "chip": "ym2612"
    },
    {
      "channel": 1,
      "note": 40,
      "start": 57.6458,
      "duration": 0.1102,
      "velocity": 97,
      "chip": "ym2612"
    },
    {
      "channel": 5,
      "note": 76,
      "start": 57.76,
      "duration": 0.0796,
      "velocity": 124,
      "chip": "ym2612"
    },
    {
      "channel": 5,
      "note": 74,
      "start": 57.893,
      "duration": 0.0802,
      "velocity": 124,
      "chip": "ym2612"
    },
    {
      "channel": 1,
      "note": 45,
      "start": 57.8961,
      "duration": 0.1103,
      "velocity": 97,
      "chip": "ym2612"
    },
    {
      "channel": 5,
      "note": 76,
      "start": 58.0098,
      "duration": 0.0801,
      "velocity": 124,
      "chip": "ym2612"
    },
    {
      "channel": 5,
      "note": 69,
      "start": 58.1433,
      "duration": 0.0803,
      "velocity": 124,
      "chip": "ym2612"
    },
    {
      "channel": 1,
      "note": 40,
      "start": 58.1463,
      "duration": 0.1103,
      "velocity": 97,
      "chip": "ym2612"
    },
    {
      "channel": 5,
      "note": 76,
      "start": 58.2602,
      "duration": 0.0801,
      "velocity": 124,
      "chip": "ym2612"
    },
    {
      "channel": 5,
      "note": 74,
      "start": 58.3936,
      "duration": 0.0803,
      "velocity": 124,
      "chip": "ym2612"
    },
    {
      "channel": 1,
      "note": 45,
      "start": 58.3967,
      "duration": 0.1103,
      "velocity": 97,
      "chip": "ym2612"
    },
    {
      "channel": 5,
      "note": 76,
      "start": 58.5105,
      "duration": 0.08,
      "velocity": 124,
      "chip": "ym2612"
    },
    {
      "channel": 5,
      "note": 69,
      "start": 58.6439,
      "duration": 0.0803,
      "velocity": 124,
      "chip": "ym2612"
    },
    {
      "channel": 1,
      "note": 40,
      "start": 58.6472,
      "duration": 0.1101,
      "velocity": 97,
      "chip": "ym2612"
    },
    {
      "channel": 5,
      "note": 64,
      "start": 58.7608,
      "duration": 0.0801,
      "velocity": 124,
      "chip": "ym2612"
    },
    {
      "channel": 1,
      "note": 35,
      "start": 58.7643,
      "duration": 0.1265,
      "velocity": 97,
      "chip": "ym2612"
    },
    {
      "channel": 5,
      "note": 74,
      "start": 58.8973,
      "duration": 0.0771,
      "velocity": 124,
      "chip": "ym2612"
    },
    {
      "channel": 1,
      "note": 45,
      "start": 58.9005,
      "duration": 0.1071,
      "velocity": 97,
      "chip": "ym2612"
    },
    {
      "channel": 5,
      "note": 76,
      "start": 59.0112,
      "duration": 0.08,
      "velocity": 124,
      "chip": "ym2612"
    },
    {
      "channel": 5,
      "note": 69,
      "start": 59.1446,
      "duration": 0.0801,
      "velocity": 124,
      "chip": "ym2612"
    },
    {
      "channel": 1,
      "note": 40,
      "start": 59.1477,
      "duration": 0.1103,
      "velocity": 97,
      "chip": "ym2612"
    },
    {
      "channel": 5,
      "note": 76,
      "start": 59.2615,
      "duration": 0.08,
      "velocity": 124,
      "chip": "ym2612"
    },
    {
      "channel": 5,
      "note": 74,
      "start": 59.3949,
      "duration": 0.0801,
      "velocity": 124,
      "chip": "ym2612"
    },
    {
      "channel": 1,
      "note": 45,
      "start": 59.398,
      "duration": 0.1103,
      "velocity": 97,
      "chip": "ym2612"
    },
    {
      "channel": 5,
      "note": 76,
      "start": 59.5118,
      "duration": 0.08,
      "velocity": 124,
      "chip": "ym2612"
    },
    {
      "channel": 5,
      "note": 69,
      "start": 59.6452,
      "duration": 0.0801,
      "velocity": 124,
      "chip": "ym2612"
    },
    {
      "channel": 1,
      "note": 40,
      "start": 59.6483,
      "duration": 0.127,
      "velocity": 97,
      "chip": "ym2612"
    },
    {
      "channel": 5,
      "note": 76,
      "start": 59.7792,
      "duration": 0.0798,
      "velocity": 124,
      "chip": "ym2612"
    },
    {
      "channel": 5,
      "note": 74,
      "start": 59.8957,
      "duration": 0.0801,
      "velocity": 124,
      "chip": "ym2612"
    },
    {
      "channel": 1,
      "note": 45,
      "start": 59.8988,
      "duration": 0.127,
      "velocity": 97,
      "chip": "ym2612"
    },
    {
      "channel": 5,
      "note": 76,
      "start": 60.0292,
      "duration": 0.0801,
      "velocity": 124,
      "chip": "ym2612"
    },
    {
      "channel": 5,
      "note": 69,
      "start": 60.146,
      "duration": 0.0801,
      "velocity": 124,
      "chip": "ym2612"
    },
    {
      "channel": 1,
      "note": 40,
      "start": 60.149,
      "duration": 0.127,
      "velocity": 97,
      "chip": "ym2612"
    },
    {
      "channel": 5,
      "note": 76,
      "start": 60.2795,
      "duration": 0.08,
      "velocity": 124,
      "chip": "ym2612"
    },
    {
      "channel": 5,
      "note": 74,
      "start": 60.3963,
      "duration": 0.0801,
      "velocity": 124,
      "chip": "ym2612"
    },
    {
      "channel": 1,
      "note": 45,
      "start": 60.3994,
      "duration": 0.1269,
      "velocity": 97,
      "chip": "ym2612"
    },
    {
      "channel": 5,
      "note": 76,
      "start": 60.5298,
      "duration": 0.08,
      "velocity": 124,
      "chip": "ym2612"
    },
    {
      "channel": 3,
      "note": 58,
      "start": 60.5808,
      "duration": 0.3129,
      "velocity": 90,
      "chip": "ym2612"
    },
    {
      "channel": 0,
      "note": 58,
      "start": 60.584,
      "duration": 0.3095,
      "velocity": 115,
      "chip": "ym2612"
    },
    {
      "channel": 5,
      "note": 69,
      "start": 60.6466,
      "duration": 0.0801,
      "velocity": 124,
      "chip": "ym2612"
    },
    {
      "channel": 1,
      "note": 40,
      "start": 60.6498,
      "duration": 0.1268,
      "velocity": 97,
      "chip": "ym2612"
    },
    {
      "channel": 5,
      "note": 64,
      "start": 60.7802,
      "duration": 0.0801,
      "velocity": 124,
      "chip": "ym2612"
    },
    {
      "channel": 1,
      "note": 35,
      "start": 60.7832,
      "duration": 0.1103,
      "velocity": 97,
      "chip": "ym2612"
    },
    {
      "channel": 2,
      "note": 53,
      "start": 60.8646,
      "duration": 0.2793,
      "velocity": 90,
      "chip": "ym2612"
    },
    {
      "channel": 4,
      "note": 53,
      "start": 60.8683,
      "duration": 0.2755,
      "velocity": 115,
      "chip": "ym2612"
    },
    {
      "channel": 5,
      "note": 74,
      "start": 60.9001,
      "duration": 0.077,
      "velocity": 124,
      "chip": "ym2612"
    },
    {
      "channel": 1,
      "note": 45,
      "start": 60.9033,
      "duration": 0.1236,
      "velocity": 97,
      "chip": "ym2612"
    },
    {
      "channel": 0,
      "note": 81,
      "start": 60.9098,
      "duration": 6.0247,
      "velocity": 121,
      "chip": "ym2612"
    },
    {
      "channel": 5,
      "note": 76,
      "start": 61.0304,
      "duration": 0.0801,
      "velocity": 124,
      "chip": "ym2612"
    },
    {
      "channel": 5,
      "note": 69,
      "start": 61.1473,
      "duration": 0.0801,
      "velocity": 124,
      "chip": "ym2612"
    },
    {
      "channel": 1,
      "note": 40,
      "start": 61.1504,
      "duration": 0.1268,
      "velocity": 97,
      "chip": "ym2612"
    },
    {
      "channel": 3,
      "note": 54,
      "start": 61.1547,
      "duration": 3.6439,
      "velocity": 90,
      "chip": "ym2612"
    },
    {
      "channel": 4,
      "note": 54,
      "start": 61.1583,
      "duration": 3.6405,
      "velocity": 115,
      "chip": "ym2612"
    },
    {
      "channel": 5,
      "note": 76,
      "start": 61.2807,
      "duration": 0.0801,
      "velocity": 124,
      "chip": "ym2612"
    },
    {
      "channel": 5,
      "note": 74,
      "start": 61.3975,
      "duration": 0.0801,
      "velocity": 124,
      "chip": "ym2612"
    },
    {
      "channel": 1,
      "note": 45,
      "start": 61.4006,
      "duration": 0.127,
      "velocity": 97,
      "chip": "ym2612"
    },
    {
      "channel": 5,
      "note": 76,
      "start": 61.5311,
      "duration": 0.0801,
      "velocity": 124,
      "chip": "ym2612"
    },
    {
      "channel": 5,
      "note": 69,
      "start": 61.6479,
      "duration": 0.0801,
      "velocity": 124,
      "chip": "ym2612"
    },
    {
      "channel": 1,
      "note": 40,
      "start": 61.6514,
      "duration": 0.1266,
      "velocity": 97,
      "chip": "ym2612"
    },
    {
      "channel": 5,
      "note": 76,
      "start": 61.7819,
      "duration": 0.0797,
      "velocity": 124,
      "chip": "ym2612"
    },
    {
      "channel": 5,
      "note": 74,
      "start": 61.9149,
      "duration": 0.0802,
      "velocity": 124,
      "chip": "ym2612"
    },
    {
      "channel": 1,
      "note": 45,
      "start": 61.918,
      "duration": 0.1102,
      "velocity": 97,
      "chip": "ym2612"
    },
    {
      "channel": 5,
      "note": 76,
      "start": 62.0317,
      "duration": 0.0801,
      "velocity": 124,
      "chip": "ym2612"
    },
    {
      "channel": 5,
      "note": 69,
      "start": 62.1651,
      "duration": 0.0802,
      "velocity": 124,
      "chip": "ym2612"
    },
    {
      "channel": 1,
      "note": 40,
      "start": 62.1682,
      "duration": 0.1103,
      "velocity": 97,
      "chip": "ym2612"
    },
    {
      "channel": 5,
      "note": 76,
      "start": 62.2821,
      "duration": 0.0801,
      "velocity": 124,
      "chip": "ym2612"
    },
    {
      "channel": 5,
      "note": 74,
      "start": 62.4155,
      "duration": 0.0801,
      "velocity": 124,
      "chip": "ym2612"
    },
    {
      "channel": 1,
      "note": 45,
      "start": 62.4186,
      "duration": 0.1103,
      "velocity": 97,
      "chip": "ym2612"
    },
    {
      "channel": 5,
      "note": 76,
      "start": 62.5324,
      "duration": 0.0801,
      "velocity": 124,
      "chip": "ym2612"
    },
    {
      "channel": 5,
      "note": 69,
      "start": 62.6657,
      "duration": 0.0803,
      "velocity": 124,
      "chip": "ym2612"
    },
    {
      "channel": 1,
      "note": 40,
      "start": 62.669,
      "duration": 0.1102,
      "velocity": 97,
      "chip": "ym2612"
    },
    {
      "channel": 5,
      "note": 64,
      "start": 62.7827,
      "duration": 0.0802,
      "velocity": 124,
      "chip": "ym2612"
    },
    {
      "channel": 1,
      "note": 35,
      "start": 62.7858,
      "duration": 0.1269,
      "velocity": 97,
      "chip": "ym2612"
    },
    {
      "channel": 5,
      "note": 74,
      "start": 62.919,
      "duration": 0.0773,
      "velocity": 124,
      "chip": "ym2612"
    },
    {
      "channel": 1,
      "note": 45,
      "start": 62.9223,
      "duration": 0.1072,
      "velocity": 97,
      "chip": "ym2612"
    },
    {
      "channel": 5,
      "note": 76,
      "start": 63.033,
      "duration": 0.0801,
      "velocity": 124,
      "chip": "ym2612"
    },
    {
      "channel": 5,
      "note": 69,
      "start": 63.1664,
      "duration": 0.0802,
      "velocity": 124,
      "chip": "ym2612"
    },
    {
      "channel": 1,
      "note": 40,
      "start": 63.1695,
      "duration": 0.1103,
      "velocity": 97,
      "chip": "ym2612"
    },
    {
      "channel": 5,
      "note": 76,
      "start": 63.2834,
      "duration": 0.0801,
      "velocity": 124,
      "chip": "ym2612"
    },
    {
      "channel": 5,
      "note": 74,
      "start": 63.4168,
      "duration": 0.0801,
      "velocity": 124,
      "chip": "ym2612"
    },
    {
      "channel": 1,
      "note": 45,
      "start": 63.4199,
      "duration": 0.1103,
      "velocity": 97,
      "chip": "ym2612"
    },
    {
      "channel": 5,
      "note": 76,
      "start": 63.5337,
      "duration": 0.08,
      "velocity": 124,
      "chip": "ym2612"
    },
    {
      "channel": 5,
      "note": 69,
      "start": 63.6671,
      "duration": 0.0802,
      "velocity": 124,
      "chip": "ym2612"
    },
    {
      "channel": 1,
      "note": 40,
      "start": 63.6702,
      "duration": 0.1103,
      "velocity": 97,
      "chip": "ym2612"
    },
    {
      "channel": 5,
      "note": 76,
      "start": 63.7844,
      "duration": 0.0797,
      "velocity": 124,
      "chip": "ym2612"
    },
    {
      "channel": 5,
      "note": 74,
      "start": 63.9174,
      "duration": 0.0802,
      "velocity": 124,
      "chip": "ym2612"
    },
    {
      "channel": 1,
      "note": 45,
      "start": 63.9205,
      "duration": 0.127,
      "velocity": 97,
      "chip": "ym2612"
    },
    {
      "channel": 5,
      "note": 76,
      "start": 64.051,
      "duration": 0.0801,
      "velocity": 124,
      "chip": "ym2612"
    },
    {
      "channel": 5,
      "note": 69,
      "start": 64.1678,
      "duration": 0.0801,
      "velocity": 124,
      "chip": "ym2612"
    },
    {
      "channel": 1,
      "note": 40,
      "start": 64.1709,
      "duration": 0.127,
      "velocity": 97,
      "chip": "ym2612"
    },
    {
      "channel": 5,
      "note": 76,
      "start": 64.3014,
      "duration": 0.0799,
      "velocity": 124,
      "chip": "ym2612"
    },
    {
      "channel": 5,
      "note": 74,
      "start": 64.418,
      "duration": 0.0802,
      "velocity": 124,
      "chip": "ym2612"
    },
    {
      "channel": 1,
      "note": 45,
      "start": 64.4211,
      "duration": 0.127,
      "velocity": 97,
      "chip": "ym2612"
    },
    {
      "channel": 5,
      "note": 76,
      "start": 64.5516,
      "duration": 0.0801,
      "velocity": 124,
      "chip": "ym2612"
    },
    {
      "channel": 5,
      "note": 69,
      "start": 64.6684,
      "duration": 0.0801,
      "velocity": 124,
      "chip": "ym2612"
    },
    {
      "channel": 1,
      "note": 40,
      "start": 64.672,
      "duration": 0.1264,
      "velocity": 97,
      "chip": "ym2612"
    },
    {
      "channel": 5,
      "note": 64,
      "start": 64.8022,
      "duration": 0.08,
      "velocity": 124,
      "chip": "ym2612"
    },
    {
      "channel": 1,
      "note": 35,
      "start": 64.8052,
      "duration": 0.1101,
      "velocity": 97,
      "chip": "ym2612"
    },
    {
      "channel": 5,
      "note": 74,
      "start": 64.9217,
      "duration": 0.0771,
      "velocity": 124,
      "chip": "ym2612"
    },
    {
      "channel": 1,
      "note": 45,
      "start": 64.925,
      "duration": 0.1238,
      "velocity": 97,
      "chip": "ym2612"
    },
    {
      "channel": 4,
      "note": 46,
      "start": 64.929,
      "duration": 3.9415,
      "velocity": 115,
      "chip": "ym2612"
    },
    {
      "channel": 5,
      "note": 76,
      "start": 65.0523,
      "duration": 0.08,
      "velocity": 124,
      "chip": "ym2612"
    },
    {
      "channel": 5,
      "note": 69,
      "start": 65.169,
      "duration": 0.0802,
      "velocity": 124,
      "chip": "ym2612"
    },
    {
      "channel": 1,
      "note": 40,
      "start": 65.1721,
      "duration": 0.1271,
      "velocity": 97,
      "chip": "ym2612"
    },
    {
      "channel": 3,
      "note": 82,
      "start": 65.1759,
      "duration": 3.6946,
      "velocity": 90,
      "chip": "ym2612"
    },
    {
      "channel": 5,
      "note": 76,
      "start": 65.3027,
      "duration": 0.0801,
      "velocity": 124,
      "chip": "ym2612"
    },
    {
      "channel": 5,
      "note": 74,
      "start": 65.4193,
      "duration": 0.0803,
      "velocity": 124,
      "chip": "ym2612"
    },
    {
      "channel": 1,
      "note": 45,
      "start": 65.4224,
      "duration": 0.1271,
      "velocity": 97,
      "chip": "ym2612"
    },
    {
      "channel": 5,
      "note": 76,
      "start": 65.5529,
      "duration": 0.0801,
      "velocity": 124,
      "chip": "ym2612"
    },
    {
      "channel": 5,
      "note": 69,
      "start": 65.6697,
      "duration": 0.0802,
      "velocity": 124,
      "chip": "ym2612"
    },
    {
      "channel": 1,
      "note": 40,
      "start": 65.6728,
      "duration": 0.127,
      "velocity": 97,
      "chip": "ym2612"
    },
    {
      "channel": 5,
      "note": 76,
      "start": 65.8037,
      "duration": 0.0798,
      "velocity": 124,
      "chip": "ym2612"
    },
    {
      "channel": 5,
      "note": 74,
      "start": 65.9199,
      "duration": 0.0802,
      "velocity": 124,
      "chip": "ym2612"
    },
    {
      "channel": 1,
      "note": 45,
      "start": 65.923,
      "duration": 0.127,
      "velocity": 97,
      "chip": "ym2612"
    },
    {
      "channel": 5,
      "note": 76,
      "start": 66.0536,
      "duration": 0.0802,
      "velocity": 124,
      "chip": "ym2612"
    },
    {
      "channel": 5,
      "note": 69,
      "start": 66.187,
      "duration": 0.0803,
      "velocity": 124,
      "chip": "ym2612"
    },
    {
      "channel": 1,
      "note": 40,
      "start": 66.19,
      "duration": 0.1103,
      "velocity": 97,
      "chip": "ym2612"
    },
    {
      "channel": 5,
      "note": 76,
      "start": 66.3039,
      "duration": 0.0801,
      "velocity": 124,
      "chip": "ym2612"
    },
    {
      "channel": 5,
      "note": 74,
      "start": 66.4373,
      "duration": 0.0802,
      "velocity": 124,
      "chip": "ym2612"
    },
    {
      "channel": 1,
      "note": 45,
      "start": 66.4404,
      "duration": 0.1102,
      "velocity": 97,
      "chip": "ym2612"
    },
    {
      "channel": 5,
      "note": 76,
      "start": 66.5542,
      "duration": 0.0802,
      "velocity": 124,
      "chip": "ym2612"
    },
    {
      "channel": 5,
      "note": 69,
      "start": 66.6877,
      "duration": 0.0802,
      "velocity": 124,
      "chip": "ym2612"
    },
    {
      "channel": 1,
      "note": 40,
      "start": 66.6909,
      "duration": 0.1101,
      "velocity": 97,
      "chip": "ym2612"
    },
    {
      "channel": 5,
      "note": 64,
      "start": 66.8045,
      "duration": 0.0802,
      "velocity": 124,
      "chip": "ym2612"
    },
    {
      "channel": 1,
      "note": 35,
      "start": 66.8076,
      "duration": 0.127,
      "velocity": 97,
      "chip": "ym2612"
    },
    {
      "channel": 5,
      "note": 74,
      "start": 66.941,
      "duration": 0.0771,
      "velocity": 124,
      "chip": "ym2612"
    },
    {
      "channel": 1,
      "note": 45,
      "start": 66.9443,
      "duration": 0.107,
      "velocity": 97,
      "chip": "ym2612"
    },
    {
      "channel": 0,
      "note": 81,
      "start": 66.952,
      "duration": 6.0068,
      "velocity": 121,
      "chip": "ym2612"
    },
    {
      "channel": 5,
      "note": 76,
      "start": 67.0548,
      "duration": 0.0802,
      "velocity": 124,
      "chip": "ym2612"
    },
    {
      "channel": 5,
      "note": 69,
      "start": 67.1883,
      "duration": 0.0802,
      "velocity": 124,
      "chip": "ym2612"
    },
    {
      "channel": 1,
      "note": 40,
      "start": 67.1914,
      "duration": 0.1103,
      "velocity": 97,
      "chip": "ym2612"
    },
    {
      "channel": 5,
      "note": 76,
      "start": 67.3052,
      "duration": 0.08,
      "velocity": 124,
      "chip": "ym2612"
    },
    {
      "channel": 5,
      "note": 74,
      "start": 67.4386,
      "duration": 0.0802,
      "velocity": 124,
      "chip": "ym2612"
    },
    {
      "channel": 1,
      "note": 45,
      "start": 67.4421,
      "duration": 0.1098,
      "velocity": 97,
      "chip": "ym2612"
    },
    {
      "channel": 5,
      "note": 76,
      "start": 67.5555,
      "duration": 0.0802,
      "velocity": 124,
      "chip": "ym2612"
    },
    {
      "channel": 5,
      "note": 69,
      "start": 67.689,
      "duration": 0.0802,
      "velocity": 124,
      "chip": "ym2612"
    },
    {
      "channel": 1,
      "note": 40,
      "start": 67.6921,
      "duration": 0.1102,
      "velocity": 97,
      "chip": "ym2612"
    },
    {
      "channel": 5,
      "note": 76,
      "start": 67.8062,
      "duration": 0.0798,
      "velocity": 124,
      "chip": "ym2612"
    },
    {
      "channel": 5,
      "note": 74,
      "start": 67.9392,
      "duration": 0.0803,
      "velocity": 124,
      "chip": "ym2612"
    },
    {
      "channel": 1,
      "note": 45,
      "start": 67.9423,
      "duration": 0.1103,
      "velocity": 97,
      "chip": "ym2612"
    },
    {
      "channel": 5,
      "note": 76,
      "start": 68.0561,
      "duration": 0.0802,
      "velocity": 124,
      "chip": "ym2612"
    },
    {
      "channel": 5,
      "note": 69,
      "start": 68.1895,
      "duration": 0.0802,
      "velocity": 124,
      "chip": "ym2612"
    },
    {
      "channel": 1,
      "note": 40,
      "start": 68.1926,
      "duration": 0.1271,
      "velocity": 97,
      "chip": "ym2612"
    },
    {
      "channel": 5,
      "note": 76,
      "start": 68.3232,
      "duration": 0.0801,
      "velocity": 124,
      "chip": "ym2612"
    },
    {
      "channel": 5,
      "note": 74,
      "start": 68.4399,
      "duration": 0.0802,
      "velocity": 124,
      "chip": "ym2612"
    },
    {
      "channel": 1,
      "note": 45,
      "start": 68.443,
      "duration": 0.127,
      "velocity": 97,
      "chip": "ym2612"
    },
    {
      "channel": 5,
      "note": 76,
      "start": 68.5735,
      "duration": 0.0801,
      "velocity": 124,
      "chip": "ym2612"
    },
    {
      "channel": 5,
      "note": 69,
      "start": 68.6902,
      "duration": 0.0802,
      "velocity": 124,
      "chip": "ym2612"
    },
    {
      "channel": 1,
      "note": 40,
      "start": 68.6934,
      "duration": 0.1269,
      "velocity": 97,
      "chip": "ym2612"
    },
    {
      "channel": 5,
      "note": 64,
      "start": 68.8238,
      "duration": 0.0801,
      "velocity": 124,
      "chip": "ym2612"
    },
    {
      "channel": 1,
      "note": 35,
      "start": 68.8269,
      "duration": 0.1103,
      "velocity": 97,
      "chip": "ym2612"
    },
    {
      "channel": 5,
      "note": 74,
      "start": 68.9436,
      "duration": 0.0771,
      "velocity": 124,
      "chip": "ym2612"
    },
    {
      "channel": 1,
      "note": 45,
      "start": 68.9468,
      "duration": 0.1238,
      "velocity": 97,
      "chip": "ym2612"
    },
    {
      "channel": 2,
      "note": 83,
      "start": 68.9911,
      "duration": 0.1131,
      "velocity": 109,
      "chip": "ym2612"
    },
    {
      "channel": 5,
      "note": 76,
      "start": 69.0742,
      "duration": 0.08,
      "velocity": 124,
      "chip": "ym2612"
    },
    {
      "channel": 5,
      "note": 69,
      "start": 69.1909,
      "duration": 0.0802,
      "velocity": 124,
      "chip": "ym2612"
    },
    {
      "channel": 1,
      "note": 40,
      "start": 69.1939,
      "duration": 0.1271,
      "velocity": 97,
      "chip": "ym2612"
    },
    {
      "channel": 5,
      "note": 76,
      "start": 69.3245,
      "duration": 0.08,
      "velocity": 124,
      "chip": "ym2612"
    },
    {
      "channel": 2,
      "note": 86,
      "start": 69.3282,
      "duration": 0.1431,
      "velocity": 109,
      "chip": "ym2612"
    },
    {
      "channel": 5,
      "note": 74,
      "start": 69.4413,
      "duration": 0.0801,
      "velocity": 124,
      "chip": "ym2612"
    },
    {
      "channel": 1,
      "note": 45,
      "start": 69.4444,
      "duration": 0.127,
      "velocity": 97,
      "chip": "ym2612"
    },
    {
      "channel": 2,
      "note": 88,
      "start": 69.4917,
      "duration": 0.1465,
      "velocity": 109,
      "chip": "ym2612"
    },
    {
      "channel": 5,
      "note": 76,
      "start": 69.5749,
      "duration": 0.08,
      "velocity": 124,
      "chip": "ym2612"
    },
    {
      "channel": 5,
      "note": 69,
      "start": 69.6915,
      "duration": 0.0802,
      "velocity": 124,
      "chip": "ym2612"
    },
    {
      "channel": 1,
      "note": 40,
      "start": 69.6946,
      "duration": 0.127,
      "velocity": 97,
      "chip": "ym2612"
    },
    {
      "channel": 2,
      "note": 92,
      "start": 69.7258,
      "duration": 0.1293,
      "velocity": 109,
      "chip": "ym2612"
    },
    {
      "channel": 5,
      "note": 76,
      "start": 69.8256,
      "duration": 0.0795,
      "velocity": 124,
      "chip": "ym2612"
    },
    {
      "channel": 2,
      "note": 90,
      "start": 69.8924,
      "duration": 0.1129,
      "velocity": 109,
      "chip": "ym2612"
    },
    {
      "channel": 5,
      "note": 74,
      "start": 69.9418,
      "duration": 0.0802,
      "velocity": 124,
      "chip": "ym2612"
    },
    {
      "channel": 1,
      "note": 45,
      "start": 69.9449,
      "duration": 0.127,
      "velocity": 97,
      "chip": "ym2612"
    },
    {
      "channel": 5,
      "note": 76,
      "start": 70.0754,
      "duration": 0.08,
      "velocity": 124,
      "chip": "ym2612"
    },
    {
      "channel": 2,
      "note": 92,
      "start": 70.0926,
      "duration": 0.0796,
      "velocity": 109,
      "chip": "ym2612"
    },
    {
      "channel": 2,
      "note": 93,
      "start": 70.1762,
      "duration": 0.1629,
      "velocity": 109,
      "chip": "ym2612"
    },
    {
      "channel": 5,
      "note": 69,
      "start": 70.1923,
      "duration": 0.0801,
      "velocity": 124,
      "chip": "ym2612"
    },
    {
      "channel": 1,
      "note": 40,
      "start": 70.1954,
      "duration": 0.127,
      "velocity": 97,
      "chip": "ym2612"
    },
    {
      "channel": 5,
      "note": 76,
      "start": 70.3259,
      "duration": 0.08,
      "velocity": 124,
      "chip": "ym2612"
    },
    {
      "channel": 5,
      "note": 74,
      "start": 70.4592,
      "duration": 0.0802,
      "velocity": 124,
      "chip": "ym2612"
    },
    {
      "channel": 1,
      "note": 45,
      "start": 70.4623,
      "duration": 0.1104,
      "velocity": 97,
      "chip": "ym2612"
    },
    {
      "channel": 5,
      "note": 76,
      "start": 70.5762,
      "duration": 0.08,
      "velocity": 124,
      "chip": "ym2612"
    },
    {
      "channel": 2,
      "note": 93,
      "start": 70.5798,
      "duration": 0.0596,
      "velocity": 109,
      "chip": "ym2612"
    },
    {
      "channel": 5,
      "note": 69,
      "start": 70.7095,
      "duration": 0.0802,
      "velocity": 124,
      "chip": "ym2612"
    },
    {
      "channel": 1,
      "note": 40,
      "start": 70.7131,
      "duration": 0.1098,
      "velocity": 97,
      "chip": "ym2612"
    },
    {
      "channel": 2,
      "note": 95,
      "start": 70.7272,
      "duration": 0.1626,
      "velocity": 109,
      "chip": "ym2612"
    },
    {
      "channel": 5,
      "note": 64,
      "start": 70.8264,
      "duration": 0.08,
      "velocity": 124,
      "chip": "ym2612"
    },
    {
      "channel": 1,
      "note": 35,
      "start": 70.8295,
      "duration": 0.1269,
      "velocity": 97,
      "chip": "ym2612"
    },
    {
      "channel": 5,
      "note": 74,
      "start": 70.9628,
      "duration": 0.0771,
      "velocity": 124,
      "chip": "ym2612"
    },
    {
      "channel": 1,
      "note": 45,
      "start": 70.9661,
      "duration": 0.1071,
      "velocity": 97,
      "chip": "ym2612"
    },
    {
      "channel": 2,
      "note": 93,
      "start": 70.9772,
      "duration": 0.1964,
      "velocity": 109,
      "chip": "ym2612"
    },
    {
      "channel": 5,
      "note": 76,
      "start": 71.0767,
      "duration": 0.08,
      "velocity": 124,
      "chip": "ym2612"
    },
    {
      "channel": 5,
      "note": 69,
      "start": 71.2102,
      "duration": 0.0801,
      "velocity": 124,
      "chip": "ym2612"
    },
    {
      "channel": 2,
      "note": 95,
      "start": 71.2139,
      "duration": 0.1599,
      "velocity": 109,
      "chip": "ym2612"
    },
    {
      "channel": 1,
      "note": 40,
      "start": 71.2168,
      "duration": 0.1067,
      "velocity": 97,
      "chip": "ym2612"
    },
    {
      "channel": 5,
      "note": 76,
      "start": 71.3271,
      "duration": 0.08,
      "velocity": 124,
      "chip": "ym2612"
    },
    {
      "channel": 2,
      "note": 88,
      "start": 71.411,
      "duration": 0.1631,
      "velocity": 109,
      "chip": "ym2612"
    },
    {
      "channel": 5,
      "note": 74,
      "start": 71.4605,
      "duration": 0.0801,
      "velocity": 124,
      "chip": "ym2612"
    },
    {
      "channel": 1,
      "note": 45,
      "start": 71.4636,
      "duration": 0.1102,
      "velocity": 97,
      "chip": "ym2612"
    },
    {
      "channel": 5,
      "note": 76,
      "start": 71.5774,
      "duration": 0.08,
      "velocity": 124,
      "chip": "ym2612"
    },
    {
      "channel": 2,
      "note": 93,
      "start": 71.6947,
      "duration": 0.1129,
      "velocity": 109,
      "chip": "ym2612"
    },
    {
      "channel": 5,
      "note": 69,
      "start": 71.7109,
      "duration": 0.0801,
      "velocity": 124,
      "chip": "ym2612"
    },
    {
      "channel": 1,
      "note": 40,
      "start": 71.7139,
      "duration": 0.1102,
      "velocity": 97,
      "chip": "ym2612"
    },
    {
      "channel": 5,
      "note": 76,
      "start": 71.8281,
      "duration": 0.0797,
      "velocity": 124,
      "chip": "ym2612"
    },
    {
      "channel": 5,
      "note": 74,
      "start": 71.9612,
      "duration": 0.0801,
      "velocity": 124,
      "chip": "ym2612"
    },
    {
      "channel": 1,
      "note": 45,
      "start": 71.9643,
      "duration": 0.1102,
      "velocity": 97,
      "chip": "ym2612"
    },
    {
      "channel": 5,
      "note": 76,
      "start": 72.078,
      "duration": 0.08,
      "velocity": 124,
      "chip": "ym2612"
    },
    {
      "channel": 5,
      "note": 69,
      "start": 72.2114,
      "duration": 0.0802,
      "velocity": 124,
      "chip": "ym2612"
    },
    {
      "channel": 1,
      "note": 40,
      "start": 72.2145,
      "duration": 0.1104,
      "velocity": 97,
      "chip": "ym2612"
    },
    {
      "channel": 5,
      "note": 76,
      "start": 72.3284,
      "duration": 0.08,
      "velocity": 124,
      "chip": "ym2612"
    },
    {
      "channel": 5,
      "note": 74,
      "start": 72.4618,
      "duration": 0.0801,
      "velocity": 124,
      "chip": "ym2612"
    },
    {
      "channel": 1,
      "note": 45,
      "start": 72.4649,
      "duration": 0.1269,
      "velocity": 97,
      "chip": "ym2612"
    },
    {
      "channel": 5,
      "note": 76,
      "start": 72.5953,
      "duration": 0.08,
      "velocity": 124,
      "chip": "ym2612"
    },
    {
      "channel": 5,
      "note": 69,
      "start": 72.712,
      "duration": 0.0802,
      "velocity": 124,
      "chip": "ym2612"
    },
    {
      "channel": 1,
      "note": 40,
      "start": 72.7153,
      "duration": 0.1269,
      "velocity": 97,
      "chip": "ym2612"
    },
    {
      "channel": 5,
      "note": 64,
      "start": 72.8457,
      "duration": 0.08,
      "velocity": 124,
      "chip": "ym2612"
    },
    {
      "channel": 1,
      "note": 35,
      "start": 72.8488,
      "duration": 0.1102,
      "velocity": 97,
      "chip": "ym2612"
    },
    {
      "channel": 5,
      "note": 74,
      "start": 72.9654,
      "duration": 0.0772,
      "velocity": 124,
      "chip": "ym2612"
    },
    {
      "channel": 1,
      "note": 45,
      "start": 72.9686,
      "duration": 0.1238,
      "velocity": 97,
      "chip": "ym2612"
    },
    {
      "channel": 0,
      "note": 81,
      "start": 72.9748,
      "duration": 6.0252,
      "velocity": 121,
      "chip": "ym2612"
    },
    {
      "channel": 2,
      "note": 83,
      "start": 73.0129,
      "duration": 0.1131,
      "velocity": 109,
      "chip": "ym2612"
    },
    {
      "channel": 5,
      "note": 76,
      "start": 73.096,
      "duration": 0.0801,
      "velocity": 124,
      "chip": "ym2612"
    },
    {
      "channel": 5,
      "note": 69,
      "start": 73.2127,
      "duration": 0.0802,
      "velocity": 124,
      "chip": "ym2612"
    },
    {
      "channel": 1,
      "note": 40,
      "start": 73.2162,
      "duration": 0.1266,
      "velocity": 97,
      "chip": "ym2612"
    },
    {
      "channel": 5,
      "note": 76,
      "start": 73.3464,
      "duration": 0.08,
      "velocity": 124,
      "chip": "ym2612"
    },
    {
      "channel": 2,
      "note": 86,
      "start": 73.3504,
      "duration": 0.1261,
      "velocity": 109,
      "chip": "ym2612"
    },
    {
      "channel": 5,
      "note": 74,
      "start": 73.4631,
      "duration": 0.0801,
      "velocity": 124,
      "chip": "ym2612"
    },
    {
      "channel": 1,
      "note": 45,
      "start": 73.4662,
      "duration": 0.127,
      "velocity": 97,
      "chip": "ym2612"
    },
    {
      "channel": 2,
      "note": 88,
      "start": 73.5136,
      "duration": 0.1465,
      "velocity": 109,
      "chip": "ym2612"
    },
    {
      "channel": 5,
      "note": 76,
      "start": 73.5967,
      "duration": 0.08,
      "velocity": 124,
      "chip": "ym2612"
    },
    {
      "channel": 5,
      "note": 69,
      "start": 73.7134,
      "duration": 0.0802,
      "velocity": 124,
      "chip": "ym2612"
    },
    {
      "channel": 1,
      "note": 40,
      "start": 73.7165,
      "duration": 0.127,
      "velocity": 97,
      "chip": "ym2612"
    },
    {
      "channel": 2,
      "note": 92,
      "start": 73.7472,
      "duration": 0.1297,
      "velocity": 109,
      "chip": "ym2612"
    },
    {
      "channel": 5,
      "note": 76,
      "start": 73.8474,
      "duration": 0.0795,
      "velocity": 124,
      "chip": "ym2612"
    },
    {
      "channel": 2,
      "note": 90,
      "start": 73.9143,
      "duration": 0.1129,
      "velocity": 109,
      "chip": "ym2612"
    },
    {
      "channel": 5,
      "note": 74,
      "start": 73.9637,
      "duration": 0.0802,
      "velocity": 124,
      "chip": "ym2612"
    },
    {
      "channel": 1,
      "note": 45,
      "start": 73.9668,
      "duration": 0.127,
      "velocity": 97,
      "chip": "ym2612"
    },
    {
      "channel": 5,
      "note": 76,
      "start": 74.0973,
      "duration": 0.08,
      "velocity": 124,
      "chip": "ym2612"
    },
    {
      "channel": 2,
      "note": 92,
      "start": 74.1145,
      "duration": 0.0797,
      "velocity": 109,
      "chip": "ym2612"
    },
    {
      "channel": 2,
      "note": 93,
      "start": 74.1981,
      "duration": 0.1629,
      "velocity": 109,
      "chip": "ym2612"
    },
    {
      "channel": 5,
      "note": 69,
      "start": 74.214,
      "duration": 0.0802,
      "velocity": 124,
      "chip": "ym2612"
    },
    {
      "channel": 1,
      "note": 40,
      "start": 74.2171,
      "duration": 0.1269,
      "velocity": 97,
      "chip": "ym2612"
    },
    {
      "channel": 5,
      "note": 76,
      "start": 74.3476,
      "duration": 0.0801,
      "velocity": 124,
      "chip": "ym2612"
    },
    {
      "channel": 5,
      "note": 74,
      "start": 74.4643,
      "duration": 0.0802,
      "velocity": 124,
      "chip": "ym2612"
    },
    {
      "channel": 1,
      "note": 45,
      "start": 74.4674,
      "duration": 0.127,
      "velocity": 97,
      "chip": "ym2612"
    },
    {
      "channel": 5,
      "note": 76,
      "start": 74.598,
      "duration": 0.08,
      "velocity": 124,
      "chip": "ym2612"
    },
    {
      "channel": 2,
      "note": 93,
      "start": 74.602,
      "duration": 0.0593,
      "velocity": 109,
      "chip": "ym2612"
    },
    {
      "channel": 5,
      "note": 69,
      "start": 74.7314,
      "duration": 0.0802,
      "velocity": 124,
      "chip": "ym2612"
    },
    {
      "channel": 1,
      "note": 40,
      "start": 74.7346,
      "duration": 0.1101,
      "velocity": 97,
      "chip": "ym2612"
    },
    {
      "channel": 2,
      "note": 95,
      "start": 74.7487,
      "duration": 0.163,
      "velocity": 109,
      "chip": "ym2612"
    },
    {
      "channel": 5,
      "note": 64,
      "start": 74.8482,
      "duration": 0.0802,
      "velocity": 124,
      "chip": "ym2612"
    },
    {
      "channel": 1,
      "note": 35,
      "start": 74.8513,
      "duration": 0.127,
      "velocity": 97,
      "chip": "ym2612"
    },
    {
      "channel": 5,
      "note": 74,
      "start": 74.9847,
      "duration": 0.0771,
      "velocity": 124,
      "chip": "ym2612"
    },
    {
      "channel": 1,
      "note": 45,
      "start": 74.9879,
      "duration": 0.1071,
      "velocity": 97,
      "chip": "ym2612"
    },
    {
      "channel": 2,
      "note": 93,
      "start": 74.9989,
      "duration": 0.1964,
      "velocity": 109,
      "chip": "ym2612"
    },
    {
      "channel": 5,
      "note": 76,
      "start": 75.0985,
      "duration": 0.08,
      "velocity": 124,
      "chip": "ym2612"
    },
    {
      "channel": 5,
      "note": 69,
      "start": 75.232,
      "duration": 0.0801,
      "velocity": 124,
      "chip": "ym2612"
    },
    {
      "channel": 2,
      "note": 95,
      "start": 75.2357,
      "duration": 0.16,
      "velocity": 109,
      "chip": "ym2612"
    },
    {
      "channel": 1,
      "note": 40,
      "start": 75.2386,
      "duration": 0.1067,
      "velocity": 97,
      "chip": "ym2612"
    },
    {
      "channel": 5,
      "note": 76,
      "start": 75.3489,
      "duration": 0.0801,
      "velocity": 124,
      "chip": "ym2612"
    },
    {
      "channel": 2,
      "note": 88,
      "start": 75.4328,
      "duration": 0.1631,
      "velocity": 109,
      "chip": "ym2612"
    },
    {
      "channel": 5,
      "note": 74,
      "start": 75.4823,
      "duration": 0.0801,
      "velocity": 124,
      "chip": "ym2612"
    },
    {
      "channel": 1,
      "note": 45,
      "start": 75.4854,
      "duration": 0.1102,
      "velocity": 97,
      "chip": "ym2612"
    },
    {
      "channel": 5,
      "note": 76,
      "start": 75.5993,
      "duration": 0.08,
      "velocity": 124,
      "chip": "ym2612"
    },
    {
      "channel": 2,
      "note": 93,
      "start": 75.7001,
      "duration": 0.1294,
      "velocity": 109,
      "chip": "ym2612"
    },
    {
      "channel": 5,
      "note": 69,
      "start": 75.7326,
      "duration": 0.0802,
      "velocity": 124,
      "chip": "ym2612"
    },
    {
      "channel": 1,
      "note": 40,
      "start": 75.7357,
      "duration": 0.1103,
      "velocity": 97,
      "chip": "ym2612"
    },
    {
      "channel": 5,
      "note": 76,
      "start": 75.85,
      "duration": 0.0797,
      "velocity": 124,
      "chip": "ym2612"
    },
    {
      "channel": 5,
      "note": 74,
      "start": 75.983,
      "duration": 0.08,
      "velocity": 124,
      "chip": "ym2612"
    },
    {
      "channel": 1,
      "note": 45,
      "start": 75.9861,
      "duration": 0.1102,
      "velocity": 97,
      "chip": "ym2612"
    },
    {
      "channel": 5,
      "note": 76,
      "start": 76.0998,
      "duration": 0.0801,
      "velocity": 124,
      "chip": "ym2612"
    },
    {
      "channel": 5,
      "note": 69,
      "start": 76.2333,
      "duration": 0.0801,
      "velocity": 124,
      "chip": "ym2612"
    },
    {
      "channel": 1,
      "note": 40,
      "start": 76.2364,
      "duration": 0.1102,
      "velocity": 97,
      "chip": "ym2612"
    },
    {
      "channel": 5,
      "note": 76,
      "start": 76.3501,
      "duration": 0.0801,
      "velocity": 124,
      "chip": "ym2612"
    },
    {
      "channel": 5,
      "note": 74,
      "start": 76.4836,
      "duration": 0.0802,
      "velocity": 124,
      "chip": "ym2612"
    },
    {
      "channel": 1,
      "note": 45,
      "start": 76.4871,
      "duration": 0.1099,
      "velocity": 97,
      "chip": "ym2612"
    },
    {
      "channel": 5,
      "note": 76,
      "start": 76.6005,
      "duration": 0.08,
      "velocity": 124,
      "chip": "ym2612"
    },
    {
      "channel": 5,
      "note": 69,
      "start": 76.7339,
      "duration": 0.0802,
      "velocity": 124,
      "chip": "ym2612"
    },
    {
      "channel": 1,
      "note": 40,
      "start": 76.7371,
      "duration": 0.1269,
      "velocity": 97,
      "chip": "ym2612"
    },
    {
      "channel": 5,
      "note": 64,
      "start": 76.8676,
      "duration": 0.08,
      "velocity": 124,
      "chip": "ym2612"
    },
    {
      "channel": 1,
      "note": 35,
      "start": 76.8706,
      "duration": 0.1102,
      "velocity": 97,
      "chip": "ym2612"
    },
    {
      "channel": 5,
      "note": 74,
      "start": 76.9873,
      "duration": 0.0771,
      "velocity": 124,
      "chip": "ym2612"
    },
    {
      "channel": 1,
      "note": 45,
      "start": 76.9905,
      "duration": 0.1238,
      "velocity": 97,
      "chip": "ym2612"
    },
    {
      "channel": 3,
      "note": 58,
      "start": 76.9939,
      "duration": 0.2373,
      "velocity": 109,
      "chip": "ym2612"
    },
    {
      "channel": 5,
      "note": 76,
      "start": 77.1179,
      "duration": 0.08,
      "velocity": 124,
      "chip": "ym2612"
    },
    {
      "channel": 5,
      "note": 69,
      "start": 77.2346,
      "duration": 0.08,
      "velocity": 124,
      "chip": "ym2612"
    },
    {
      "channel": 1,
      "note": 40,
      "start": 77.2378,
      "duration": 0.1268,
      "velocity": 97,
      "chip": "ym2612"
    },
    {
      "channel": 3,
      "note": 52,
      "start": 77.2413,
      "duration": 0.2401,
      "velocity": 109,
      "chip": "ym2612"
    },
    {
      "channel": 5,
      "note": 76,
      "start": 77.3681,
      "duration": 0.08,
      "velocity": 124,
      "chip": "ym2612"
    },
    {
      "channel": 5,
      "note": 74,
      "start": 77.4849,
      "duration": 0.0801,
      "velocity": 124,
      "chip": "ym2612"
    },
    {
      "channel": 1,
      "note": 45,
      "start": 77.488,
      "duration": 0.1269,
      "velocity": 97,
      "chip": "ym2612"
    },
    {
      "channel": 5,
      "note": 76,
      "start": 77.6185,
      "duration": 0.08,
      "velocity": 124,
      "chip": "ym2612"
    },
    {
      "channel": 5,
      "note": 69,
      "start": 77.7353,
      "duration": 0.0801,
      "velocity": 124,
      "chip": "ym2612"
    },
    {
      "channel": 1,
      "note": 40,
      "start": 77.7384,
      "duration": 0.1269,
      "velocity": 97,
      "chip": "ym2612"
    },
    {
      "channel": 5,
      "note": 76,
      "start": 77.8692,
      "duration": 0.0797,
      "velocity": 124,
      "chip": "ym2612"
    },
    {
      "channel": 5,
      "note": 74,
      "start": 77.9856,
      "duration": 0.0801,
      "velocity": 124,
      "chip": "ym2612"
    },
    {
      "channel": 1,
      "note": 45,
      "start": 77.9887,
      "duration": 0.1269,
      "velocity": 97,
      "chip": "ym2612"
    },
    {
      "channel": 5,
      "note": 76,
      "start": 78.1191,
      "duration": 0.08,
      "velocity": 124,
      "chip": "ym2612"
    },
    {
      "channel": 5,
      "note": 69,
      "start": 78.2358,
      "duration": 0.0802,
      "velocity": 124,
      "chip": "ym2612"
    },
    {
      "channel": 1,
      "note": 40,
      "start": 78.2389,
      "duration": 0.1271,
      "velocity": 97,
      "chip": "ym2612"
    },
    {
      "channel": 5,
      "note": 76,
      "start": 78.3695,
      "duration": 0.08,
      "velocity": 124,
      "chip": "ym2612"
    },
    {
      "channel": 5,
      "note": 74,
      "start": 78.4862,
      "duration": 0.0802,
      "velocity": 124,
      "chip": "ym2612"
    },
    {
      "channel": 1,
      "note": 45,
      "start": 78.4893,
      "duration": 0.1271,
      "velocity": 97,
      "chip": "ym2612"
    },
    {
      "channel": 5,
      "note": 76,
      "start": 78.6198,
      "duration": 0.08,
      "velocity": 124,
      "chip": "ym2612"
    },
    {
      "channel": 5,
      "note": 69,
      "start": 78.7365,
      "duration": 0.0801,
      "velocity": 124,
      "chip": "ym2612"
    },
    {
      "channel": 1,
      "note": 40,
      "start": 78.7398,
      "duration": 0.1268,
      "velocity": 97,
      "chip": "ym2612"
    },
    {
      "channel": 5,
      "note": 64,
      "start": 78.8701,
      "duration": 0.0801,
      "velocity": 124,
      "chip": "ym2612"
    },
    {
      "channel": 1,
      "note": 35,
      "start": 78.8732,
      "duration": 0.127,
      "velocity": 97,
      "chip": "ym2612"
    },
    {
      "channel": 5,
      "note": 74,
      "start": 79.0066,
      "duration": 0.0771,
      "velocity": 124,
      "chip": "ym2612"
    },
    {
      "channel": 1,
      "note": 45,
      "start": 79.0102,
      "duration": 0.1066,
      "velocity": 97,
      "chip": "ym2612"
    },
    {
      "channel": 3,
      "note": 58,
      "start": 79.0133,
      "duration": 0.2371,
      "velocity": 109,
      "chip": "ym2612"
    },
    {
      "channel": 0,
      "note": 81,
      "start": 79.0194,
      "duration": 6.0051,
      "velocity": 121,
      "chip": "ym2612"
    },
    {
      "channel": 5,
      "note": 76,
      "start": 79.1204,
      "duration": 0.08,
      "velocity": 124,
      "chip": "ym2612"
    },
    {
      "channel": 5,
      "note": 69,
      "start": 79.2539,
      "duration": 0.0801,
      "velocity": 124,
      "chip": "ym2612"
    },
    {
      "channel": 1,
      "note": 40,
      "start": 79.257,
      "duration": 0.1102,
      "velocity": 97,
      "chip": "ym2612"
    },
    {
      "channel": 3,
      "note": 51,
      "start": 79.2602,
      "duration": 0.2405,
      "velocity": 109,
      "chip": "ym2612"
    },
    {
      "channel": 5,
      "note": 76,
      "start": 79.3707,
      "duration": 0.08,
      "velocity": 124,
      "chip": "ym2612"
    },
    {
      "channel": 5,
      "note": 74,
      "start": 79.5042,
      "duration": 0.0801,
      "velocity": 124,
      "chip": "ym2612"
    },
    {
      "channel": 1,
      "note": 45,
      "start": 79.5073,
      "duration": 0.1102,
      "velocity": 97,
      "chip": "ym2612"
    },
    {
      "channel": 5,
      "note": 76,
      "start": 79.621,
      "duration": 0.08,
      "velocity": 124,
      "chip": "ym2612"
    },
    {
      "channel": 5,
      "note": 69,
      "start": 79.7544,
      "duration": 0.0802,
      "velocity": 124,
      "chip": "ym2612"
    },
    {
      "channel": 1,
      "note": 40,
      "start": 79.7575,
      "duration": 0.1103,
      "velocity": 97,
      "chip": "ym2612"
    },
    {
      "channel": 5,
      "note": 76,
      "start": 79.8718,
      "duration": 0.0796,
      "velocity": 124,
      "chip": "ym2612"
    },
    {
      "channel": 5,
      "note": 74,
      "start": 80.0049,
      "duration": 0.0801,
      "velocity": 124,
      "chip": "ym2612"
    },
    {
      "channel": 1,
      "note": 45,
      "start": 80.008,
      "duration": 0.1102,
      "velocity": 97,
      "chip": "ym2612"
    },
    {
      "channel": 5,
      "note": 76,
      "start": 80.1217,
      "duration": 0.08,
      "velocity": 124,
      "chip": "ym2612"
    },
    {
      "channel": 5,
      "note": 69,
      "start": 80.2551,
      "duration": 0.0802,
      "velocity": 124,
      "chip": "ym2612"
    },
    {
      "channel": 1,
      "note": 40,
      "start": 80.2582,
      "duration": 0.1103,
      "velocity": 97,
      "chip": "ym2612"
    },
    {
      "channel": 5,
      "note": 76,
      "start": 80.3721,
      "duration": 0.08,
      "velocity": 124,
      "chip": "ym2612"
    },
    {
      "channel": 5,
      "note": 74,
      "start": 80.5054,
      "duration": 0.0802,
      "velocity": 124,
      "chip": "ym2612"
    },
    {
      "channel": 1,
      "note": 45,
      "start": 80.5085,
      "duration": 0.1103,
      "velocity": 97,
      "chip": "ym2612"
    },
    {
      "channel": 5,
      "note": 76,
      "start": 80.6224,
      "duration": 0.08,
      "velocity": 124,
      "chip": "ym2612"
    },
    {
      "channel": 5,
      "note": 69,
      "start": 80.7558,
      "duration": 0.0801,
      "velocity": 124,
      "chip": "ym2612"
    },
    {
      "channel": 1,
      "note": 40,
      "start": 80.759,
      "duration": 0.1101,
      "velocity": 97,
      "chip": "ym2612"
    },
    {
      "channel": 5,
      "note": 64,
      "start": 80.8726,
      "duration": 0.0801,
      "velocity": 124,
      "chip": "ym2612"
    },
    {
      "channel": 1,
      "note": 35,
      "start": 80.8757,
      "duration": 0.1269,
      "velocity": 97,
      "chip": "ym2612"
    },
    {
      "channel": 5,
      "note": 74,
      "start": 81.009,
      "duration": 0.0772,
      "velocity": 124,
      "chip": "ym2612"
    },
    {
      "channel": 1,
      "note": 45,
      "start": 81.0123,
      "duration": 0.1239,
      "velocity": 97,
      "chip": "ym2612"
    },
    {
      "channel": 3,
      "note": 50,
      "start": 81.0153,
      "duration": 0.2377,
      "velocity": 109,
      "chip": "ym2612"
    },
    {
      "channel": 5,
      "note": 76,
      "start": 81.1397,
      "duration": 0.08,
      "velocity": 124,
      "chip": "ym2612"
    },
    {
      "channel": 5,
      "note": 69,
      "start": 81.2565,
      "duration": 0.08,
      "velocity": 124,
      "chip": "ym2612"
    },
    {
      "channel": 1,
      "note": 40,
      "start": 81.2596,
      "duration": 0.1269,
      "velocity": 97,
      "chip": "ym2612"
    },
    {
      "channel": 3,
      "note": 51,
      "start": 81.2625,
      "duration": 0.2408,
      "velocity": 109,
      "chip": "ym2612"
    },
    {
      "channel": 5,
      "note": 76,
      "start": 81.39,
      "duration": 0.08,
      "velocity": 124,
      "chip": "ym2612"
    },
    {
      "channel": 5,
      "note": 74,
      "start": 81.5068,
      "duration": 0.0802,
      "velocity": 124,
      "chip": "ym2612"
    },
    {
      "channel": 1,
      "note": 45,
      "start": 81.5099,
      "duration": 0.1269,
      "velocity": 97,
      "chip": "ym2612"
    },
    {
      "channel": 3,
      "note": 50,
      "start": 81.5128,
      "duration": 0.241,
      "velocity": 109,
      "chip": "ym2612"
    },
    {
      "channel": 5,
      "note": 76,
      "start": 81.6403,
      "duration": 0.0802,
      "velocity": 124,
      "chip": "ym2612"
    },
    {
      "channel": 5,
      "note": 69,
      "start": 81.7572,
      "duration": 0.08,
      "velocity": 124,
      "chip": "ym2612"
    },
    {
      "channel": 1,
      "note": 40,
      "start": 81.7603,
      "duration": 0.1269,
      "velocity": 97,
      "chip": "ym2612"
    },
    {
      "channel": 3,
      "note": 54,
      "start": 81.7633,
      "duration": 0.2406,
      "velocity": 109,
      "chip": "ym2612"
    },
    {
      "channel": 5,
      "note": 76,
      "start": 81.8911,
      "duration": 0.0796,
      "velocity": 124,
      "chip": "ym2612"
    },
    {
      "channel": 5,
      "note": 74,
      "start": 82.0074,
      "duration": 0.0801,
      "velocity": 124,
      "chip": "ym2612"
    },
    {
      "channel": 1,
      "note": 45,
      "start": 82.0105,
      "duration": 0.1269,
      "velocity": 97,
      "chip": "ym2612"
    },
    {
      "channel": 5,
      "note": 76,
      "start": 82.141,
      "duration": 0.0801,
      "velocity": 124,
      "chip": "ym2612"
    },
    {
      "channel": 5,
      "note": 69,
      "start": 82.2578,
      "duration": 0.08,
      "velocity": 124,
      "chip": "ym2612"
    },
    {
      "channel": 1,
      "note": 40,
      "start": 82.2612,
      "duration": 0.1265,
      "velocity": 97,
      "chip": "ym2612"
    },
    {
      "channel": 5,
      "note": 76,
      "start": 82.3913,
      "duration": 0.0801,
      "velocity": 124,
      "chip": "ym2612"
    },
    {
      "channel": 5,
      "note": 74,
      "start": 82.5081,
      "duration": 0.0802,
      "velocity": 124,
      "chip": "ym2612"
    },
    {
      "channel": 1,
      "note": 45,
      "start": 82.5112,
      "duration": 0.127,
      "velocity": 97,
      "chip": "ym2612"
    },
    {
      "channel": 3,
      "note": 51,
      "start": 82.5147,
      "duration": 0.1236,
      "velocity": 109,
      "chip": "ym2612"
    },
    {
      "channel": 5,
      "note": 76,
      "start": 82.6418,
      "duration": 0.0798,
      "velocity": 124,
      "chip": "ym2612"
    },
    {
      "channel": 3,
      "note": 51,
      "start": 82.645,
      "duration": 0.11,
      "velocity": 109,
      "chip": "ym2612"
    },
    {
      "channel": 5,
      "note": 69,
      "start": 82.7585,
      "duration": 0.0799,
      "velocity": 124,
      "chip": "ym2612"
    },
    {
      "channel": 1,
      "note": 40,
      "start": 82.7617,
      "duration": 0.1266,
      "velocity": 97,
      "chip": "ym2612"
    },
    {
      "channel": 5,
      "note": 64,
      "start": 82.8919,
      "duration": 0.0801,
      "velocity": 124,
      "chip": "ym2612"
    },
    {
      "channel": 1,
      "note": 35,
      "start": 82.895,
      "duration": 0.1102,
      "velocity": 97,
      "chip": "ym2612"
    },
    {
      "channel": 5,
      "note": 74,
      "start": 83.0116,
      "duration": 0.0772,
      "velocity": 124,
      "chip": "ym2612"
    },
    {
      "channel": 1,
      "note": 45,
      "start": 83.0149,
      "duration": 0.1239,
      "velocity": 97,
      "chip": "ym2612"
    },
    {
      "channel": 5,
      "note": 76,
      "start": 83.1423,
      "duration": 0.08,
      "velocity": 124,
      "chip": "ym2612"
    },
    {
      "channel": 5,
      "note": 69,
      "start": 83.2756,
      "duration": 0.0802,
      "velocity": 124,
      "chip": "ym2612"
    },
    {
      "channel": 1,
      "note": 40,
      "start": 83.2788,
      "duration": 0.1103,
      "velocity": 97,
      "chip": "ym2612"
    },
    {
      "channel": 3,
      "note": 54,
      "start": 83.2819,
      "duration": 0.2407,
      "velocity": 109,
      "chip": "ym2612"
    },
    {
      "channel": 5,
      "note": 76,
      "start": 83.3926,
      "duration": 0.08,
      "velocity": 124,
      "chip": "ym2612"
    },
    {
      "channel": 5,
      "note": 74,
      "start": 83.5261,
      "duration": 0.08,
      "velocity": 124,
      "chip": "ym2612"
    },
    {
      "channel": 1,
      "note": 45,
      "start": 83.5292,
      "duration": 0.1102,
      "velocity": 97,
      "chip": "ym2612"
    },
    {
      "channel": 3,
      "note": 51,
      "start": 83.5321,
      "duration": 0.241,
      "velocity": 109,
      "chip": "ym2612"
    },
    {
      "channel": 5,
      "note": 76,
      "start": 83.6429,
      "duration": 0.08,
      "velocity": 124,
      "chip": "ym2612"
    },
    {
      "channel": 5,
      "note": 69,
      "start": 83.7765,
      "duration": 0.08,
      "velocity": 124,
      "chip": "ym2612"
    },
    {
      "channel": 1,
      "note": 40,
      "start": 83.7796,
      "duration": 0.1102,
      "velocity": 97,
      "chip": "ym2612"
    },
    {
      "channel": 3,
      "note": 56,
      "start": 83.7826,
      "duration": 0.2406,
      "velocity": 109,
      "chip": "ym2612"
    },
    {
      "channel": 5,
      "note": 76,
      "start": 83.8937,
      "duration": 0.0796,
      "velocity": 124,
      "chip": "ym2612"
    },
    {
      "channel": 5,
      "note": 74,
      "start": 84.0267,
      "duration": 0.0801,
      "velocity": 124,
      "chip": "ym2612"
    },
    {
      "channel": 1,
      "note": 45,
      "start": 84.0298,
      "duration": 0.1102,
      "velocity": 97,
      "chip": "ym2612"
    },
    {
      "channel": 5,
      "note": 76,
      "start": 84.1436,
      "duration": 0.08,
      "velocity": 124,
      "chip": "ym2612"
    },
    {
      "channel": 5,
      "note": 69,
      "start": 84.2771,
      "duration": 0.08,
      "velocity": 124,
      "chip": "ym2612"
    },
    {
      "channel": 1,
      "note": 40,
      "start": 84.2801,
      "duration": 0.1102,
      "velocity": 97,
      "chip": "ym2612"
    },
    {
      "channel": 3,
      "note": 51,
      "start": 84.2833,
      "duration": 0.1071,
      "velocity": 109,
      "chip": "ym2612"
    },
    {
      "channel": 5,
      "note": 76,
      "start": 84.3939,
      "duration": 0.08,
      "velocity": 124,
      "chip": "ym2612"
    },
    {
      "channel": 3,
      "note": 51,
      "start": 84.3974,
      "duration": 0.1266,
      "velocity": 109,
      "chip": "ym2612"
    },
    {
      "channel": 5,
      "note": 74,
      "start": 84.5274,
      "duration": 0.0801,
      "velocity": 124,
      "chip": "ym2612"
    },
    {
      "channel": 1,
      "note": 45,
      "start": 84.5305,
      "duration": 0.1102,
      "velocity": 97,
      "chip": "ym2612"
    },
    {
      "channel": 5,
      "note": 76,
      "start": 84.6442,
      "duration": 0.08,
      "velocity": 124,
      "chip": "ym2612"
    },
    {
      "channel": 5,
      "note": 69,
      "start": 84.7776,
      "duration": 0.0802,
      "velocity": 124,
      "chip": "ym2612"
    },
    {
      "channel": 1,
      "note": 40,
      "start": 84.7808,
      "duration": 0.1102,
      "velocity": 97,
      "chip": "ym2612"
    },
    {
      "channel": 5,
      "note": 64,
      "start": 84.8946,
      "duration": 0.0801,
      "velocity": 124,
      "chip": "ym2612"
    },
    {
      "channel": 1,
      "note": 35,
      "start": 84.8976,
      "duration": 0.127,
      "velocity": 97,
      "chip": "ym2612"
    },
    {
      "channel": 5,
      "note": 74,
      "start": 85.031,
      "duration": 0.0771,
      "velocity": 124,
      "chip": "ym2612"
    },
    {
      "channel": 1,
      "note": 45,
      "start": 85.0347,
      "duration": 0.1067,
      "velocity": 97,
      "chip": "ym2612"
    },
    {
      "channel": 4,
      "note": 58,
      "start": 85.0382,
      "duration": 0.2367,
      "velocity": 78,
      "chip": "ym2612"
    },
    {
      "channel": 0,
      "note": 81,
      "start": 85.0449,
      "duration": 6.0039,
      "velocity": 121,
      "chip": "ym2612"
    },
    {
      "channel": 5,
      "note": 76,
      "start": 85.1449,
      "duration": 0.08,
      "velocity": 124,
      "chip": "ym2612"
    },
    {
      "channel": 5,
      "note": 69,
      "start": 85.2784,
      "duration": 0.08,
      "velocity": 124,
      "chip": "ym2612"
    },
    {
      "channel": 1,
      "note": 40,
      "start": 85.2815,
      "duration": 0.1268,
      "velocity": 97,
      "chip": "ym2612"
    },
    {
      "channel": 4,
      "note": 52,
      "start": 85.2852,
      "duration": 0.2401,
      "velocity": 78,
      "chip": "ym2612"
    },
    {
      "channel": 5,
      "note": 76,
      "start": 85.4118,
      "duration": 0.08,
      "velocity": 124,
      "chip": "ym2612"
    },
    {
      "channel": 5,
      "note": 74,
      "start": 85.5288,
      "duration": 0.0799,
      "velocity": 124,
      "chip": "ym2612"
    },
    {
      "channel": 1,
      "note": 45,
      "start": 85.5318,
      "duration": 0.1268,
      "velocity": 97,
      "chip": "ym2612"
    },
    {
      "channel": 5,
      "note": 76,
      "start": 85.6621,
      "duration": 0.0802,
      "velocity": 124,
      "chip": "ym2612"
    },
    {
      "channel": 5,
      "note": 69,
      "start": 85.779,
      "duration": 0.0801,
      "velocity": 124,
      "chip": "ym2612"
    },
    {
      "channel": 1,
      "note": 40,
      "start": 85.782,
      "duration": 0.1269,
      "velocity": 97,
      "chip": "ym2612"
    },
    {
      "channel": 5,
      "note": 76,
      "start": 85.9129,
      "duration": 0.0797,
      "velocity": 124,
      "chip": "ym2612"
    },
    {
      "channel": 5,
      "note": 74,
      "start": 86.0293,
      "duration": 0.0801,
      "velocity": 124,
      "chip": "ym2612"
    },
    {
      "channel": 1,
      "note": 45,
      "start": 86.0323,
      "duration": 0.1269,
      "velocity": 97,
      "chip": "ym2612"
    },
    {
      "channel": 5,
      "note": 76,
      "start": 86.1628,
      "duration": 0.0802,
      "velocity": 124,
      "chip": "ym2612"
    },
    {
      "channel": 5,
      "note": 69,
      "start": 86.2796,
      "duration": 0.0801,
      "velocity": 124,
      "chip": "ym2612"
    },
    {
      "channel": 1,
      "note": 40,
      "start": 86.2827,
      "duration": 0.1269,
      "velocity": 97,
      "chip": "ym2612"
    },
    {
      "channel": 5,
      "note": 76,
      "start": 86.4131,
      "duration": 0.0802,
      "velocity": 124,
      "chip": "ym2612"
    },
    {
      "channel": 5,
      "note": 74,
      "start": 86.5299,
      "duration": 0.0801,
      "velocity": 124,
      "chip": "ym2612"
    },
    {
      "channel": 1,
      "note": 45,
      "start": 86.533,
      "duration": 0.1269,
      "velocity": 97,
      "chip": "ym2612"
    },
    {
      "channel": 5,
      "note": 76,
      "start": 86.6634,
      "duration": 0.08,
      "velocity": 124,
      "chip": "ym2612"
    },
    {
      "channel": 5,
      "note": 69,
      "start": 86.7803,
      "duration": 0.0801,
      "velocity": 124,
      "chip": "ym2612"
    },
    {
      "channel": 1,
      "note": 40,
      "start": 86.7835,
      "duration": 0.1268,
      "velocity": 97,
      "chip": "ym2612"
    },
    {
      "channel": 5,
      "note": 64,
      "start": 86.9138,
      "duration": 0.0801,
      "velocity": 124,
      "chip": "ym2612"
    },
    {
      "channel": 1,
      "note": 35,
      "start": 86.9169,
      "duration": 0.1102,
      "velocity": 97,
      "chip": "ym2612"
    },
    {
      "channel": 5,
      "note": 74,
      "start": 87.0335,
      "duration": 0.0772,
      "velocity": 124,
      "chip": "ym2612"
    },
    {
      "channel": 1,
      "note": 45,
      "start": 87.0368,
      "duration": 0.1239,
      "velocity": 97,
      "chip": "ym2612"
    },
    {
      "channel": 4,
      "note": 58,
      "start": 87.04,
      "duration": 0.2375,
      "velocity": 78,
      "chip": "ym2612"
    },
    {
      "channel": 5,
      "note": 76,
      "start": 87.1641,
      "duration": 0.08,
      "velocity": 124,
      "chip": "ym2612"
    },
    {
      "channel": 5,
      "note": 69,
      "start": 87.281,
      "duration": 0.08,
      "velocity": 124,
      "chip": "ym2612"
    },
    {
      "channel": 1,
      "note": 40,
      "start": 87.284,
      "duration": 0.1268,
      "velocity": 97,
      "chip": "ym2612"
    },
    {
      "channel": 4,
      "note": 51,
      "start": 87.2874,
      "duration": 0.257,
      "velocity": 78,
      "chip": "ym2612"
    },
    {
      "channel": 5,
      "note": 76,
      "start": 87.4144,
      "duration": 0.08,
      "velocity": 124,
      "chip": "ym2612"
    },
    {
      "channel": 5,
      "note": 74,
      "start": 87.5479,
      "duration": 0.0801,
      "velocity": 124,
      "chip": "ym2612"
    },
    {
      "channel": 1,
      "note": 45,
      "start": 87.551,
      "duration": 0.1102,
      "velocity": 97,
      "chip": "ym2612"
    },
    {
      "channel": 5,
      "note": 76,
      "start": 87.6647,
      "duration": 0.08,
      "velocity": 124,
      "chip": "ym2612"
    },
    {
      "channel": 5,
      "note": 69,
      "start": 87.7981,
      "duration": 0.0802,
      "velocity": 124,
      "chip": "ym2612"
    },
    {
      "channel": 1,
      "note": 40,
      "start": 87.8012,
      "duration": 0.1104,
      "velocity": 97,
      "chip": "ym2612"
    },
    {
      "channel": 5,
      "note": 76,
      "start": 87.9155,
      "duration": 0.0796,
      "velocity": 124,
      "chip": "ym2612"
    },
    {
      "channel": 5,
      "note": 74,
      "start": 88.0486,
      "duration": 0.08,
      "velocity": 124,
      "chip": "ym2612"
    },
    {
      "channel": 1,
      "note": 45,
      "start": 88.052,
      "duration": 0.1098,
      "velocity": 97,
      "chip": "ym2612"
    },
    {
      "channel": 5,
      "note": 76,
      "start": 88.1654,
      "duration": 0.0801,
      "velocity": 124,
      "chip": "ym2612"
    },
    {
      "channel": 5,
      "note": 69,
      "start": 88.2989,
      "duration": 0.0801,
      "velocity": 124,
      "chip": "ym2612"
    },
    {
      "channel": 1,
      "note": 40,
      "start": 88.302,
      "duration": 0.1102,
      "velocity": 97,
      "chip": "ym2612"
    },
    {
      "channel": 5,
      "note": 76,
      "start": 88.4157,
      "duration": 0.0802,
      "velocity": 124,
      "chip": "ym2612"
    },
    {
      "channel": 5,
      "note": 74,
      "start": 88.5492,
      "duration": 0.0801,
      "velocity": 124,
      "chip": "ym2612"
    },
    {
      "channel": 1,
      "note": 45,
      "start": 88.5523,
      "duration": 0.1102,
      "velocity": 97,
      "chip": "ym2612"
    },
    {
      "channel": 5,
      "note": 76,
      "start": 88.666,
      "duration": 0.08,
      "velocity": 124,
      "chip": "ym2612"
    },
    {
      "channel": 5,
      "note": 69,
      "start": 88.7995,
      "duration": 0.0801,
      "velocity": 124,
      "chip": "ym2612"
    },
    {
      "channel": 1,
      "note": 40,
      "start": 88.8028,
      "duration": 0.1101,
      "velocity": 97,
      "chip": "ym2612"
    },
    {
      "channel": 5,
      "note": 64,
      "start": 88.9164,
      "duration": 0.0801,
      "velocity": 124,
      "chip": "ym2612"
    },
    {
      "channel": 1,
      "note": 35,
      "start": 88.9195,
      "duration": 0.1269,
      "velocity": 97,
      "chip": "ym2612"
    },
    {
      "channel": 5,
      "note": 74,
      "start": 89.0528,
      "duration": 0.0772,
      "velocity": 124,
      "chip": "ym2612"
    },
    {
      "channel": 1,
      "note": 45,
      "start": 89.056,
      "duration": 0.1072,
      "velocity": 97,
      "chip": "ym2612"
    },
    {
      "channel": 4,
      "note": 50,
      "start": 89.0593,
      "duration": 0.2375,
      "velocity": 78,
      "chip": "ym2612"
    },
    {
      "channel": 5,
      "note": 76,
      "start": 89.1667,
      "duration": 0.08,
      "velocity": 124,
      "chip": "ym2612"
    },
    {
      "channel": 5,
      "note": 69,
      "start": 89.3002,
      "duration": 0.0801,
      "velocity": 124,
      "chip": "ym2612"
    },
    {
      "channel": 1,
      "note": 40,
      "start": 89.3033,
      "duration": 0.1101,
      "velocity": 97,
      "chip": "ym2612"
    },
    {
      "channel": 4,
      "note": 51,
      "start": 89.3064,
      "duration": 0.2408,
      "velocity": 78,
      "chip": "ym2612"
    },
    {
      "channel": 5,
      "note": 76,
      "start": 89.417,
      "duration": 0.0802,
      "velocity": 124,
      "chip": "ym2612"
    },
    {
      "channel": 5,
      "note": 74,
      "start": 89.5506,
      "duration": 0.08,
      "velocity": 124,
      "chip": "ym2612"
    },
    {
      "channel": 1,
      "note": 45,
      "start": 89.5537,
      "duration": 0.1268,
      "velocity": 97,
      "chip": "ym2612"
    },
    {
      "channel": 4,
      "note": 50,
      "start": 89.5568,
      "duration": 0.2406,
      "velocity": 78,
      "chip": "ym2612"
    },
    {
      "channel": 5,
      "note": 76,
      "start": 89.684,
      "duration": 0.08,
      "velocity": 124,
      "chip": "ym2612"
    },
    {
      "channel": 5,
      "note": 69,
      "start": 89.8008,
      "duration": 0.0802,
      "velocity": 124,
      "chip": "ym2612"
    },
    {
      "channel": 1,
      "note": 40,
      "start": 89.8039,
      "duration": 0.1268,
      "velocity": 97,
      "chip": "ym2612"
    },
    {
      "channel": 4,
      "note": 54,
      "start": 89.8071,
      "duration": 0.2406,
      "velocity": 78,
      "chip": "ym2612"
    },
    {
      "channel": 5,
      "note": 76,
      "start": 89.9347,
      "duration": 0.0798,
      "velocity": 124,
      "chip": "ym2612"
    },
    {
      "channel": 5,
      "note": 74,
      "start": 90.0512,
      "duration": 0.0801,
      "velocity": 124,
      "chip": "ym2612"
    },
    {
      "channel": 1,
      "note": 45,
      "start": 90.0543,
      "duration": 0.1269,
      "velocity": 97,
      "chip": "ym2612"
    },
    {
      "channel": 5,
      "note": 76,
      "start": 90.1847,
      "duration": 0.08,
      "velocity": 124,
      "chip": "ym2612"
    },
    {
      "channel": 5,
      "note": 69,
      "start": 90.3015,
      "duration": 0.0801,
      "velocity": 124,
      "chip": "ym2612"
    },
    {
      "channel": 1,
      "note": 40,
      "start": 90.3046,
      "duration": 0.1269,
      "velocity": 97,
      "chip": "ym2612"
    },
    {
      "channel": 5,
      "note": 76,
      "start": 90.435,
      "duration": 0.08,
      "velocity": 124,
      "chip": "ym2612"
    },
    {
      "channel": 5,
      "note": 74,
      "start": 90.5518,
      "duration": 0.0801,
      "velocity": 124,
      "chip": "ym2612"
    },
    {
      "channel": 1,
      "note": 45,
      "start": 90.5549,
      "duration": 0.1269,
      "velocity": 97,
      "chip": "ym2612"
    },
    {
      "channel": 4,
      "note": 51,
      "start": 90.5586,
      "duration": 0.1233,
      "velocity": 78,
      "chip": "ym2612"
    },
    {
      "channel": 5,
      "note": 76,
      "start": 90.6854,
      "duration": 0.0799,
      "velocity": 124,
      "chip": "ym2612"
    },
    {
      "channel": 4,
      "note": 51,
      "start": 90.6889,
      "duration": 0.1098,
      "velocity": 78,
      "chip": "ym2612"
    },
    {
      "channel": 5,
      "note": 69,
      "start": 90.8021,
      "duration": 0.0801,
      "velocity": 124,
      "chip": "ym2612"
    },
    {
      "channel": 1,
      "note": 40,
      "start": 90.8054,
      "duration": 0.1268,
      "velocity": 97,
      "chip": "ym2612"
    },
    {
      "channel": 5,
      "note": 64,
      "start": 90.9356,
      "duration": 0.08,
      "velocity": 124,
      "chip": "ym2612"
    },
    {
      "channel": 1,
      "note": 35,
      "start": 90.9391,
      "duration": 0.1098,
      "velocity": 97,
      "chip": "ym2612"
    },
    {
      "channel": 5,
      "note": 74,
      "start": 91.0554,
      "duration": 0.0771,
      "velocity": 124,
      "chip": "ym2612"
    },
    {
      "channel": 1,
      "note": 45,
      "start": 91.0586,
      "duration": 0.1238,
      "velocity": 97,
      "chip": "ym2612"
    },
    {
      "channel": 0,
      "note": 81,
      "start": 91.0648,
      "duration": 6.0252,
      "velocity": 121,
      "chip": "ym2612"
    },
    {
      "channel": 5,
      "note": 76,
      "start": 91.1859,
      "duration": 0.0801,
      "velocity": 124,
      "chip": "ym2612"
    },
    {
      "channel": 5,
      "note": 69,
      "start": 91.3027,
      "duration": 0.0801,
      "velocity": 124,
      "chip": "ym2612"
    },
    {
      "channel": 1,
      "note": 40,
      "start": 91.3058,
      "duration": 0.127,
      "velocity": 97,
      "chip": "ym2612"
    },
    {
      "channel": 4,
      "note": 54,
      "start": 91.3092,
      "duration": 0.2405,
      "velocity": 78,
      "chip": "ym2612"
    },
    {
      "channel": 5,
      "note": 76,
      "start": 91.4363,
      "duration": 0.08,
      "velocity": 124,
      "chip": "ym2612"
    },
    {
      "channel": 5,
      "note": 74,
      "start": 91.5531,
      "duration": 0.0801,
      "velocity": 124,
      "chip": "ym2612"
    },
    {
      "channel": 1,
      "note": 45,
      "start": 91.5561,
      "duration": 0.127,
      "velocity": 97,
      "chip": "ym2612"
    },
    {
      "channel": 4,
      "note": 51,
      "start": 91.5592,
      "duration": 0.2575,
      "velocity": 78,
      "chip": "ym2612"
    },
    {
      "channel": 5,
      "note": 76,
      "start": 91.6866,
      "duration": 0.08,
      "velocity": 124,
      "chip": "ym2612"
    },
    {
      "channel": 5,
      "note": 69,
      "start": 91.8201,
      "duration": 0.08,
      "velocity": 124,
      "chip": "ym2612"
    },
    {
      "channel": 1,
      "note": 40,
      "start": 91.8232,
      "duration": 0.1101,
      "velocity": 97,
      "chip": "ym2612"
    },
    {
      "channel": 4,
      "note": 56,
      "start": 91.8264,
      "duration": 0.2406,
      "velocity": 78,
      "chip": "ym2612"
    },
    {
      "channel": 5,
      "note": 76,
      "start": 91.9373,
      "duration": 0.0798,
      "velocity": 124,
      "chip": "ym2612"
    },
    {
      "channel": 5,
      "note": 74,
      "start": 92.0705,
      "duration": 0.0801,
      "velocity": 124,
      "chip": "ym2612"
    },
    {
      "channel": 1,
      "note": 45,
      "start": 92.0735,
      "duration": 0.1102,
      "velocity": 97,
      "chip": "ym2612"
    },
    {
      "channel": 5,
      "note": 76,
      "start": 92.1873,
      "duration": 0.08,
      "velocity": 124,
      "chip": "ym2612"
    },
    {
      "channel": 5,
      "note": 69,
      "start": 92.3206,
      "duration": 0.0801,
      "velocity": 124,
      "chip": "ym2612"
    },
    {
      "channel": 1,
      "note": 40,
      "start": 92.3237,
      "duration": 0.1103,
      "velocity": 97,
      "chip": "ym2612"
    },
    {
      "channel": 4,
      "note": 51,
      "start": 92.3271,
      "duration": 0.1071,
      "velocity": 78,
      "chip": "ym2612"
    },
    {
      "channel": 5,
      "note": 76,
      "start": 92.4376,
      "duration": 0.0801,
      "velocity": 124,
      "chip": "ym2612"
    },
    {
      "channel": 4,
      "note": 51,
      "start": 92.4411,
      "duration": 0.1266,
      "velocity": 78,
      "chip": "ym2612"
    },
    {
      "channel": 5,
      "note": 74,
      "start": 92.5711,
      "duration": 0.0801,
      "velocity": 124,
      "chip": "ym2612"
    },
    {
      "channel": 1,
      "note": 45,
      "start": 92.5742,
      "duration": 0.1102,
      "velocity": 97,
      "chip": "ym2612"
    },
    {
      "channel": 5,
      "note": 76,
      "start": 92.6879,
      "duration": 0.08,
      "velocity": 124,
      "chip": "ym2612"
    },
    {
      "channel": 5,
      "note": 69,
      "start": 92.8213,
      "duration": 0.0802,
      "velocity": 124,
      "chip": "ym2612"
    },
    {
      "channel": 1,
      "note": 40,
      "start": 92.8245,
      "duration": 0.1102,
      "velocity": 97,
      "chip": "ym2612"
    },
    {
      "channel": 5,
      "note": 64,
      "start": 92.9383,
      "duration": 0.0801,
      "velocity": 124,
      "chip": "ym2612"
    },
    {
      "channel": 1,
      "note": 35,
      "start": 92.9415,
      "duration": 0.11,
      "velocity": 97,
      "chip": "ym2612"
    },
    {
      "channel": 5,
      "note": 74,
      "start": 93.0745,
      "duration": 0.0774,
      "velocity": 124,
      "chip": "ym2612"
    },
    {
      "channel": 5,
      "note": 76,
      "start": 93.1885,
      "duration": 0.0801,
      "velocity": 124,
      "chip": "ym2612"
    },
    {
      "channel": 5,
      "note": 69,
      "start": 93.322,
      "duration": 0.0801,
      "velocity": 124,
      "chip": "ym2612"
    },
    {
      "channel": 5,
      "note": 76,
      "start": 93.4388,
      "duration": 0.0801,
      "velocity": 124,
      "chip": "ym2612"
    },
    {
      "channel": 5,
      "note": 74,
      "start": 93.5723,
      "duration": 0.0802,
      "velocity": 124,
      "chip": "ym2612"
    },
    {
      "channel": 5,
      "note": 76,
      "start": 93.6891,
      "duration": 0.0802,
      "velocity": 124,
      "chip": "ym2612"
    },
    {
      "channel": 2,
      "note": 88,
      "start": 93.7415,
      "duration": 0.0779,
      "velocity": 109,
      "chip": "ym2612"
    },
    {
      "channel": 5,
      "note": 69,
      "start": 93.8227,
      "duration": 0.08,
      "velocity": 124,
      "chip": "ym2612"
    },
    {
      "channel": 2,
      "note": 90,
      "start": 93.89,
      "duration": 0.0295,
      "velocity": 109,
      "chip": "ym2612"
    },
    {
      "channel": 5,
      "note": 76,
      "start": 93.9565,
      "duration": 0.0798,
      "velocity": 124,
      "chip": "ym2612"
    },
    {
      "channel": 2,
      "note": 92,
      "start": 93.9739,
      "duration": 0.1459,
      "velocity": 109,
      "chip": "ym2612"
    },
    {
      "channel": 5,
      "note": 74,
      "start": 94.073,
      "duration": 0.0801,
      "velocity": 124,
      "chip": "ym2612"
    },
    {
      "channel": 5,
      "note": 76,
      "start": 94.2064,
      "duration": 0.0802,
      "velocity": 124,
      "chip": "ym2612"
    },
    {
      "channel": 5,
      "note": 69,
      "start": 94.3233,
      "duration": 0.0801,
      "velocity": 124,
      "chip": "ym2612"
    },
    {
      "channel": 2,
      "note": 95,
      "start": 94.3739,
      "duration": 0.1631,
      "velocity": 109,
      "chip": "ym2612"
    },
    {
      "channel": 5,
      "note": 76,
      "start": 94.4568,
      "duration": 0.08,
      "velocity": 124,
      "chip": "ym2612"
    },
    {
      "channel": 5,
      "note": 74,
      "start": 94.5736,
      "duration": 0.0802,
      "velocity": 124,
      "chip": "ym2612"
    },
    {
      "channel": 2,
      "note": 92,
      "start": 94.5907,
      "duration": 0.1631,
      "velocity": 109,
      "chip": "ym2612"
    },
    {
      "channel": 5,
      "note": 76,
      "start": 94.7071,
      "duration": 0.0801,
      "velocity": 124,
      "chip": "ym2612"
    },
    {
      "channel": 5,
      "note": 69,
      "start": 94.8239,
      "duration": 0.0801,
      "velocity": 124,
      "chip": "ym2612"
    },
    {
      "channel": 5,
      "note": 64,
      "start": 94.9574,
      "duration": 0.0801,
      "velocity": 124,
      "chip": "ym2612"
    },
    {
      "channel": 5,
      "note": 74,
      "start": 95.0771,
      "duration": 0.0773,
      "velocity": 124,
      "chip": "ym2612"
    },
    {
      "channel": 5,
      "note": 76,
      "start": 95.2078,
      "duration": 0.08,
      "velocity": 124,
      "chip": "ym2612"
    },
    {
      "channel": 2,
      "note": 88,
      "start": 95.2251,
      "duration": 0.0961,
      "velocity": 109,
      "chip": "ym2612"
    },
    {
      "channel": 5,
      "note": 69,
      "start": 95.3246,
      "duration": 0.0802,
      "velocity": 124,
      "chip": "ym2612"
    },
    {
      "channel": 5,
      "note": 76,
      "start": 95.4581,
      "duration": 0.0802,
      "velocity": 124,
      "chip": "ym2612"
    },
    {
      "channel": 5,
      "note": 74,
      "start": 95.5749,
      "duration": 0.0802,
      "velocity": 124,
      "chip": "ym2612"
    },
    {
      "channel": 2,
      "note": 85,
      "start": 95.6089,
      "duration": 0.1797,
      "velocity": 109,
      "chip": "ym2612"
    },
    {
      "channel": 5,
      "note": 76,
      "start": 95.7084,
      "duration": 0.08,
      "velocity": 124,
      "chip": "ym2612"
    },
    {
      "channel": 5,
      "note": 69,
      "start": 95.8252,
      "duration": 0.0802,
      "velocity": 124,
      "chip": "ym2612"
    },
    {
      "channel": 5,
      "note": 76,
      "start": 95.9591,
      "duration": 0.0797,
      "velocity": 124,
      "chip": "ym2612"
    },
    {
      "channel": 5,
      "note": 74,
      "start": 96.0922,
      "duration": 0.0801,
      "velocity": 124,
      "chip": "ym2612"
    },
    {
      "channel": 5,
      "note": 76,
      "start": 96.209,
      "duration": 0.0802,
      "velocity": 124,
      "chip": "ym2612"
    },
    {
      "channel": 5,
      "note": 69,
      "start": 96.3425,
      "duration": 0.0802,
      "velocity": 124,
      "chip": "ym2612"
    },
    {
      "channel": 5,
      "note": 76,
      "start": 96.4593,
      "duration": 0.0801,
      "velocity": 124,
      "chip": "ym2612"
    },
    {
      "channel": 5,
      "note": 74,
      "start": 96.5928,
      "duration": 0.0801,
      "velocity": 124,
      "chip": "ym2612"
    },
    {
      "channel": 2,
      "note": 74,
      "start": 96.6101,
      "duration": 0.0296,
      "velocity": 109,
      "chip": "ym2612"
    },
    {
      "channel": 5,
      "note": 76,
      "start": 96.7096,
      "duration": 0.0801,
      "velocity": 124,
      "chip": "ym2612"
    },
    {
      "channel": 2,
      "note": 74,
      "start": 96.7941,
      "duration": 0.1625,
      "velocity": 109,
      "chip": "ym2612"
    },
    {
      "channel": 5,
      "note": 69,
      "start": 96.8432,
      "duration": 0.08,
      "velocity": 124,
      "chip": "ym2612"
    },
    {
      "channel": 5,
      "note": 64,
      "start": 96.96,
      "duration": 0.0802,
      "velocity": 124,
      "chip": "ym2612"
    },
    {
      "channel": 5,
      "note": 74,
      "start": 97.0965,
      "duration": 0.0771,
      "velocity": 124,
      "chip": "ym2612"
    },
    {
      "channel": 3,
      "note": 43,
      "start": 97.1021,
      "duration": 0.2382,
      "velocity": 97,
      "chip": "ym2612"
    },
    {
      "channel": 0,
      "note": 81,
      "start": 97.108,
      "duration": 6.0064,
      "velocity": 121,
      "chip": "ym2612"
    },
    {
      "channel": 2,
      "note": 69,
      "start": 97.1606,
      "duration": 0.1633,
      "velocity": 109,
      "chip": "ym2612"
    },
    {
      "channel": 5,
      "note": 76,
      "start": 97.2103,
      "duration": 0.0801,
      "velocity": 124,
      "chip": "ym2612"
    },
    {
      "channel": 5,
      "note": 69,
      "start": 97.3438,
      "duration": 0.0802,
      "velocity": 124,
      "chip": "ym2612"
    },
    {
      "channel": 5,
      "note": 76,
      "start": 97.4607,
      "duration": 0.0802,
      "velocity": 124,
      "chip": "ym2612"
    },
    {
      "channel": 5,
      "note": 74,
      "start": 97.5942,
      "duration": 0.08,
      "velocity": 124,
      "chip": "ym2612"
    },
    {
      "channel": 2,
      "note": 80,
      "start": 97.6782,
      "duration": 0.0628,
      "velocity": 109,
      "chip": "ym2612"
    },
    {
      "channel": 5,
      "note": 76,
      "start": 97.7109,
      "duration": 0.0801,
      "velocity": 124,
      "chip": "ym2612"
    },
    {
      "channel": 5,
      "note": 69,
      "start": 97.8445,
      "duration": 0.08,
      "velocity": 124,
      "chip": "ym2612"
    },
    {
      "channel": 5,
      "note": 76,
      "start": 97.9616,
      "duration": 0.0798,
      "velocity": 124,
      "chip": "ym2612"
    },
    {
      "channel": 5,
      "note": 74,
      "start": 98.0948,
      "duration": 0.0801,
      "velocity": 124,
      "chip": "ym2612"
    },
    {
      "channel": 2,
      "note": 90,
      "start": 98.1621,
      "duration": 0.163,
      "velocity": 109,
      "chip": "ym2612"
    },
    {
      "channel": 5,
      "note": 76,
      "start": 98.2283,
      "duration": 0.08,
      "velocity": 124,
      "chip": "ym2612"
    },
    {
      "channel": 5,
      "note": 69,
      "start": 98.3451,
      "duration": 0.0801,
      "velocity": 124,
      "chip": "ym2612"
    },
    {
      "channel": 5,
      "note": 76,
      "start": 98.4786,
      "duration": 0.0802,
      "velocity": 124,
      "chip": "ym2612"
    },
    {
      "channel": 5,
      "note": 74,
      "start": 98.5954,
      "duration": 0.0801,
      "velocity": 124,
      "chip": "ym2612"
    },
    {
      "channel": 2,
      "note": 81,
      "start": 98.6796,
      "duration": 0.1461,
      "velocity": 109,
      "chip": "ym2612"
    },
    {
      "channel": 5,
      "note": 76,
      "start": 98.7289,
      "duration": 0.0802,
      "velocity": 124,
      "chip": "ym2612"
    },
    {
      "channel": 5,
      "note": 69,
      "start": 98.8457,
      "duration": 0.0801,
      "velocity": 124,
      "chip": "ym2612"
    },
    {
      "channel": 5,
      "note": 64,
      "start": 98.9792,
      "duration": 0.0802,
      "velocity": 124,
      "chip": "ym2612"
    },
    {
      "channel": 2,
      "note": 85,
      "start": 98.9828,
      "duration": 0.0432,
      "velocity": 109,
      "chip": "ym2612"
    },
    {
      "channel": 5,
      "note": 74,
      "start": 99.0989,
      "duration": 0.0773,
      "velocity": 124,
      "chip": "ym2612"
    },
    {
      "channel": 5,
      "note": 76,
      "start": 99.2296,
      "duration": 0.0801,
      "velocity": 124,
      "chip": "ym2612"
    },
    {
      "channel": 5,
      "note": 69,
      "start": 99.3464,
      "duration": 0.0801,
      "velocity": 124,
      "chip": "ym2612"
    },
    {
      "channel": 2,
      "note": 90,
      "start": 99.4142,
      "duration": 0.1459,
      "velocity": 109,
      "chip": "ym2612"
    },
    {
      "channel": 5,
      "note": 76,
      "start": 99.4798,
      "duration": 0.0802,
      "velocity": 124,
      "chip": "ym2612"
    },
    {
      "channel": 5,
      "note": 74,
      "start": 99.5967,
      "duration": 0.0801,
      "velocity": 124,
      "chip": "ym2612"
    },
    {
      "channel": 2,
      "note": 92,
      "start": 99.6474,
      "duration": 0.0963,
      "velocity": 109,
      "chip": "ym2612"
    },
    {
      "channel": 5,
      "note": 76,
      "start": 99.7302,
      "duration": 0.0801,
      "velocity": 124,
      "chip": "ym2612"
    },
    {
      "channel": 2,
      "note": 93,
      "start": 99.7475,
      "duration": 0.0963,
      "velocity": 109,
      "chip": "ym2612"
    },
    {
      "channel": 5,
      "note": 69,
      "start": 99.8471,
      "duration": 0.0801,
      "velocity": 124,
      "chip": "ym2612"
    },
    {
      "channel": 5,
      "note": 76,
      "start": 99.9809,
      "duration": 0.0797,
      "velocity": 124,
      "chip": "ym2612"
    },
    {
      "channel": 2,
      "note": 83,
      "start": 100.0479,
      "duration": 0.1129,
      "velocity": 109,
      "chip": "ym2612"
    },
    {
      "channel": 5,
      "note": 74,
      "start": 100.0973,
      "duration": 0.0801,
      "velocity": 124,
      "chip": "ym2612"
    },
    {
      "channel": 5,
      "note": 76,
      "start": 100.2309,
      "duration": 0.0801,
      "velocity": 124,
      "chip": "ym2612"
    },
    {
      "channel": 5,
      "note": 69,
      "start": 100.3644,
      "duration": 0.0801,
      "velocity": 124,
      "chip": "ym2612"
    },
    {
      "channel": 5,
      "note": 76,
      "start": 100.4812,
      "duration": 0.0801,
      "velocity": 124,
      "chip": "ym2612"
    },
    {
      "channel": 2,
      "note": 97,
      "start": 100.5653,
      "duration": 0.1463,
      "velocity": 109,
      "chip": "ym2612"
    },
    {
      "channel": 5,
      "note": 74,
      "start": 100.6147,
      "duration": 0.0802,
      "velocity": 124,
      "chip": "ym2612"
    },
    {
      "channel": 5,
      "note": 76,
      "start": 100.7314,
      "duration": 0.0801,
      "velocity": 124,
      "chip": "ym2612"
    },
    {
      "channel": 5,
      "note": 69,
      "start": 100.8651,
      "duration": 0.0801,
      "velocity": 124,
      "chip": "ym2612"
    },
    {
      "channel": 5,
      "note": 64,
      "start": 100.9819,
      "duration": 0.0801,
      "velocity": 124,
      "chip": "ym2612"
    },
    {
      "channel": 2,
      "note": 83,
      "start": 100.9995,
      "duration": 0.196,
      "velocity": 109,
      "chip": "ym2612"
    },
    {
      "channel": 5,
      "note": 74,
      "start": 101.1182,
      "duration": 0.0772,
      "velocity": 124,
      "chip": "ym2612"
    },
    {
      "channel": 5,
      "note": 76,
      "start": 101.2321,
      "duration": 0.0801,
      "velocity": 124,
      "chip": "ym2612"
    },
    {
      "channel": 3,
      "note": 43,
      "start": 101.2358,
      "duration": 0.1264,
      "velocity": 97,
      "chip": "ym2612"
    },
    {
      "channel": 2,
      "note": 85,
      "start": 101.3329,
      "duration": 0.1297,
      "velocity": 109,
      "chip": "ym2612"
    },
    {
      "channel": 5,
      "note": 69,
      "start": 101.3657,
      "duration": 0.0801,
      "velocity": 124,
      "chip": "ym2612"
    },
    {
      "channel": 3,
      "note": 45,
      "start": 101.3699,
      "duration": 0.2427,
      "velocity": 97,
      "chip": "ym2612"
    },
    {
      "channel": 5,
      "note": 76,
      "start": 101.4824,
      "duration": 0.0802,
      "velocity": 124,
      "chip": "ym2612"
    },
    {
      "channel": 2,
      "note": 86,
      "start": 101.5164,
      "duration": 0.0964,
      "velocity": 109,
      "chip": "ym2612"
    },
    {
      "channel": 5,
      "note": 74,
      "start": 101.6161,
      "duration": 0.08,
      "velocity": 124,
      "chip": "ym2612"
    },
    {
      "channel": 5,
      "note": 76,
      "start": 101.7328,
      "duration": 0.0801,
      "velocity": 124,
      "chip": "ym2612"
    },
    {
      "channel": 5,
      "note": 69,
      "start": 101.8663,
      "duration": 0.0801,
      "velocity": 124,
      "chip": "ym2612"
    },
    {
      "channel": 2,
      "note": 93,
      "start": 101.9003,
      "duration": 0.1963,
      "velocity": 109,
      "chip": "ym2612"
    },
    {
      "channel": 5,
      "note": 76,
      "start": 101.9834,
      "duration": 0.0798,
      "velocity": 124,
      "chip": "ym2612"
    },
    {
      "channel": 5,
      "note": 74,
      "start": 102.1166,
      "duration": 0.0801,
      "velocity": 124,
      "chip": "ym2612"
    },
    {
      "channel": 2,
      "note": 95,
      "start": 102.2174,
      "duration": 0.163,
      "velocity": 109,
      "chip": "ym2612"
    },
    {
      "channel": 5,
      "note": 76,
      "start": 102.2334,
      "duration": 0.0802,
      "velocity": 124,
      "chip": "ym2612"
    },
    {
      "channel": 5,
      "note": 69,
      "start": 102.367,
      "duration": 0.0801,
      "velocity": 124,
      "chip": "ym2612"
    },
    {
      "channel": 2,
      "note": 97,
      "start": 102.451,
      "duration": 0.0796,
      "velocity": 109,
      "chip": "ym2612"
    },
    {
      "channel": 5,
      "note": 76,
      "start": 102.5004,
      "duration": 0.0802,
      "velocity": 124,
      "chip": "ym2612"
    },
    {
      "channel": 5,
      "note": 74,
      "start": 102.6173,
      "duration": 0.0801,
      "velocity": 124,
      "chip": "ym2612"
    },
    {
      "channel": 5,
      "note": 76,
      "start": 102.7508,
      "duration": 0.0801,
      "velocity": 124,
      "chip": "ym2612"
    },
    {
      "channel": 5,
      "note": 69,
      "start": 102.8676,
      "duration": 0.0801,
      "velocity": 124,
      "chip": "ym2612"
    },
    {
      "channel": 2,
      "note": 98,
      "start": 102.8853,
      "duration": 0.1961,
      "velocity": 109,
      "chip": "ym2612"
    },
    {
      "channel": 5,
      "note": 64,
      "start": 103.001,
      "duration": 0.0802,
      "velocity": 124,
      "chip": "ym2612"
    },
    {
      "channel": 2,
      "note": 92,
      "start": 103.0853,
      "duration": 0.1629,
      "velocity": 109,
      "chip": "ym2612"
    },
    {
      "channel": 5,
      "note": 74,
      "start": 103.1209,
      "duration": 0.0771,
      "velocity": 124,
      "chip": "ym2612"
    },
    {
      "channel": 0,
      "note": 81,
      "start": 103.1273,
      "duration": 2.2277,
      "velocity": 121,
      "chip": "ym2612"
    },
    {
      "channel": 5,
      "note": 76,
      "start": 103.2515,
      "duration": 0.08,
      "velocity": 124,
      "chip": "ym2612"
    },
    {
      "channel": 2,
      "note": 95,
      "start": 103.3355,
      "duration": 0.0962,
      "velocity": 109,
      "chip": "ym2612"
    },
    {
      "channel": 5,
      "note": 69,
      "start": 103.3682,
      "duration": 0.0802,
      "velocity": 124,
      "chip": "ym2612"
    },
    {
      "channel": 5,
      "note": 76,
      "start": 103.5018,
      "duration": 0.0801,
      "velocity": 124,
      "chip": "ym2612"
    },
    {
      "channel": 5,
      "note": 74,
      "start": 103.6185,
      "duration": 0.0801,
      "velocity": 124,
      "chip": "ym2612"
    },
    {
      "channel": 2,
      "note": 100,
      "start": 103.6222,
      "duration": 0.0599,
      "velocity": 109,
      "chip": "ym2612"
    },
    {
      "channel": 5,
      "note": 76,
      "start": 103.752,
      "duration": 0.0801,
      "velocity": 124,
      "chip": "ym2612"
    },
    {
      "channel": 5,
      "note": 69,
      "start": 103.8689,
      "duration": 0.0801,
      "velocity": 124,
      "chip": "ym2612"
    },
    {
      "channel": 5,
      "note": 76,
      "start": 104.0028,
      "duration": 0.0797,
      "velocity": 124,
      "chip": "ym2612"
    },
    {
      "channel": 5,
      "note": 74,
      "start": 104.1192,
      "duration": 0.0802,
      "velocity": 124,
      "chip": "ym2612"
    },
    {
      "channel": 2,
      "note": 78,
      "start": 104.1532,
      "duration": 0.0796,
      "velocity": 109,
      "chip": "ym2612"
    },
    {
      "channel": 5,
      "note": 76,
      "start": 104.2527,
      "duration": 0.08,
      "velocity": 124,
      "chip": "ym2612"
    },
    {
      "channel": 2,
      "note": 80,
      "start": 104.2566,
      "duration": 0.0596,
      "velocity": 109,
      "chip": "ym2612"
    },
    {
      "channel": 2,
      "note": 81,
      "start": 104.3534,
      "duration": 0.0796,
      "velocity": 109,
      "chip": "ym2612"
    },
    {
      "channel": 5,
      "note": 69,
      "start": 104.3696,
      "duration": 0.0801,
      "velocity": 124,
      "chip": "ym2612"
    },
    {
      "channel": 2,
      "note": 83,
      "start": 104.4367,
      "duration": 0.0798,
      "velocity": 109,
      "chip": "ym2612"
    },
    {
      "channel": 5,
      "note": 76,
      "start": 104.503,
      "duration": 0.0801,
      "velocity": 124,
      "chip": "ym2612"
    },
    {
      "channel": 2,
      "note": 85,
      "start": 104.5204,
      "duration": 0.0628,
      "velocity": 109,
      "chip": "ym2612"
    },
    {
      "channel": 5,
      "note": 74,
      "start": 104.6365,
      "duration": 0.0801,
      "velocity": 124,
      "chip": "ym2612"
    },
    {
      "channel": 5,
      "note": 76,
      "start": 104.7533,
      "duration": 0.0802,
      "velocity": 124,
      "chip": "ym2612"
    },
    {
      "channel": 2,
      "note": 74,
      "start": 104.757,
      "duration": 0.1266,
      "velocity": 109,
      "chip": "ym2612"
    },
    {
      "channel": 5,
      "note": 69,
      "start": 104.8869,
      "duration": 0.08,
      "velocity": 124,
      "chip": "ym2612"
    },
    {
      "channel": 2,
      "note": 78,
      "start": 104.9377,
      "duration": 0.1462,
      "velocity": 109,
      "chip": "ym2612"
    },
    {
      "channel": 5,
      "note": 64,
      "start": 105.0037,
      "duration": 0.08,
      "velocity": 124,
      "chip": "ym2612"
    },
    {
      "channel": 5,
      "note": 74,
      "start": 105.1401,
      "duration": 0.0772,
      "velocity": 124,
      "chip": "ym2612"
    },
    {
      "channel": 5,
      "note": 76,
      "start": 105.2541,
      "duration": 0.0801,
      "velocity": 124,
      "chip": "ym2612"
    }
  ]
}