{
  "track_name": "09 - Go Green Ranger Go",
  "duration_sec": 45.498,
  "sample_rate": 44100,
  "note_count": 721,
  "unique_pitches": 25,
  "pitch_range": 37,
  "avg_note_duration": 0.3007,
  "reconstruction_stats": {
    "notes_reconstructed": 721,
    "keyon_events": 721,
    "keyoff_events": 666,
    "orphan_keyons": 5,
    "unique_pitches": 25,
    "pitch_range": 37,
    "avg_duration_sec": 0.3007
  },
  "metadata": {
    "source": "M\\Mighty Morphin Power Rangers - The Movie\\09 - Go Green Ranger Go.vgz"
  },
  "notes": [
    {
      "channel": 0,
      "note": 57,
      "start": 0.0001,
      "duration": 0.8181,
      "velocity": 90,
      "chip": "ym2612"
    },
    {
      "channel": 2,
      "note": 69,
      "start": 0.0012,
      "duration": 0.0085,
      "velocity": 106,
      "chip": "ym2612"
    },
    {
      "channel": 3,
      "note": 64,
      "start": 0.0022,
      "duration": 0.1329,
      "velocity": 106,
      "chip": "ym2612"
    },
    {
      "channel": 2,
      "note": 57,
      "start": 0.0098,
      "duration": 0.0059,
      "velocity": 106,
      "chip": "ym2612"
    },
    {
      "channel": 2,
      "note": 57,
      "start": 0.0158,
      "duration": 0.1191,
      "velocity": 106,
      "chip": "ym2612"
    },
    {
      "channel": 2,
      "note": 67,
      "start": 0.1351,
      "duration": 0.1331,
      "velocity": 106,
      "chip": "ym2612"
    },
    {
      "channel": 3,
      "note": 62,
      "start": 0.1353,
      "duration": 0.3998,
      "velocity": 106,
      "chip": "ym2612"
    },
    {
      "channel": 2,
      "note": 57,
      "start": 0.2684,
      "duration": 0.1331,
      "velocity": 106,
      "chip": "ym2612"
    },
    {
      "channel": 2,
      "note": 57,
      "start": 0.4017,
      "duration": 0.1331,
      "velocity": 106,
      "chip": "ym2612"
    },
    {
      "channel": 2,
      "note": 69,
      "start": 0.5351,
      "duration": 0.1331,
      "velocity": 106,
      "chip": "ym2612"
    },
    {
      "channel": 3,
      "note": 64,
      "start": 0.5354,
      "duration": 0.2834,
      "velocity": 106,
      "chip": "ym2612"
    },
    {
      "channel": 2,
      "note": 57,
      "start": 0.6684,
      "duration": 0.15,
      "velocity": 106,
      "chip": "ym2612"
    },
    {
      "channel": 0,
      "note": 57,
      "start": 0.8182,
      "duration": 0.6665,
      "velocity": 90,
      "chip": "ym2612"
    },
    {
      "channel": 2,
      "note": 57,
      "start": 0.8186,
      "duration": 0.1329,
      "velocity": 106,
      "chip": "ym2612"
    },
    {
      "channel": 3,
      "note": 64,
      "start": 0.8188,
      "duration": 0.1329,
      "velocity": 106,
      "chip": "ym2612"
    },
    {
      "channel": 2,
      "note": 67,
      "start": 0.9517,
      "duration": 0.1331,
      "velocity": 106,
      "chip": "ym2612"
    },
    {
      "channel": 3,
      "note": 62,
      "start": 0.9521,
      "duration": 0.3997,
      "velocity": 106,
      "chip": "ym2612"
    },
    {
      "channel": 2,
      "note": 57,
      "start": 1.0851,
      "duration": 0.1331,
      "velocity": 106,
      "chip": "ym2612"
    },
    {
      "channel": 2,
      "note": 57,
      "start": 1.2184,
      "duration": 0.1331,
      "velocity": 106,
      "chip": "ym2612"
    },
    {
      "channel": 2,
      "note": 69,
      "start": 1.3517,
      "duration": 0.1333,
      "velocity": 106,
      "chip": "ym2612"
    },
    {
      "channel": 3,
      "note": 64,
      "start": 1.3521,
      "duration": 0.1332,
      "velocity": 106,
      "chip": "ym2612"
    },
    {
      "channel": 0,
      "note": 58,
      "start": 1.485,
      "duration": 0.149,
      "velocity": 90,
      "chip": "ym2612"
    },
    {
      "channel": 2,
      "note": 65,
      "start": 1.4852,
      "duration": 0.1491,
      "velocity": 106,
      "chip": "ym2612"
    },
    {
      "channel": 3,
      "note": 58,
      "start": 1.4855,
      "duration": 0.149,
      "velocity": 106,
      "chip": "ym2612"
    },
    {
      "channel": 0,
      "note": 57,
      "start": 1.6342,
      "duration": 0.8185,
      "velocity": 90,
      "chip": "ym2612"
    },
    {
      "channel": 2,
      "note": 69,
      "start": 1.6345,
      "duration": 0.0076,
      "velocity": 106,
      "chip": "ym2612"
    },
    {
      "channel": 3,
      "note": 64,
      "start": 1.6347,
      "duration": 0.1349,
      "velocity": 106,
      "chip": "ym2612"
    },
    {
      "channel": 2,
      "note": 57,
      "start": 1.6422,
      "duration": 0.0059,
      "velocity": 106,
      "chip": "ym2612"
    },
    {
      "channel": 2,
      "note": 57,
      "start": 1.6482,
      "duration": 0.1212,
      "velocity": 106,
      "chip": "ym2612"
    },
    {
      "channel": 2,
      "note": 67,
      "start": 1.7695,
      "duration": 0.1331,
      "velocity": 106,
      "chip": "ym2612"
    },
    {
      "channel": 3,
      "note": 62,
      "start": 1.7698,
      "duration": 0.3998,
      "velocity": 106,
      "chip": "ym2612"
    },
    {
      "channel": 2,
      "note": 57,
      "start": 1.9029,
      "duration": 0.1331,
      "velocity": 106,
      "chip": "ym2612"
    },
    {
      "channel": 2,
      "note": 57,
      "start": 2.0362,
      "duration": 0.1331,
      "velocity": 106,
      "chip": "ym2612"
    },
    {
      "channel": 2,
      "note": 69,
      "start": 2.1695,
      "duration": 0.1331,
      "velocity": 106,
      "chip": "ym2612"
    },
    {
      "channel": 3,
      "note": 64,
      "start": 2.1699,
      "duration": 0.2833,
      "velocity": 106,
      "chip": "ym2612"
    },
    {
      "channel": 2,
      "note": 57,
      "start": 2.3029,
      "duration": 0.15,
      "velocity": 106,
      "chip": "ym2612"
    },
    {
      "channel": 0,
      "note": 57,
      "start": 2.4527,
      "duration": 0.0458,
      "velocity": 90,
      "chip": "ym2612"
    },
    {
      "channel": 2,
      "note": 57,
      "start": 2.453,
      "duration": 0.0092,
      "velocity": 106,
      "chip": "ym2612"
    },
    {
      "channel": 3,
      "note": 64,
      "start": 2.4532,
      "duration": 0.0092,
      "velocity": 106,
      "chip": "ym2612"
    },
    {
      "channel": 2,
      "note": 67,
      "start": 2.4623,
      "duration": 0.0089,
      "velocity": 106,
      "chip": "ym2612"
    },
    {
      "channel": 3,
      "note": 62,
      "start": 2.4627,
      "duration": 0.0263,
      "velocity": 106,
      "chip": "ym2612"
    },
    {
      "channel": 2,
      "note": 57,
      "start": 2.4714,
      "duration": 0.0086,
      "velocity": 106,
      "chip": "ym2612"
    },
    {
      "channel": 2,
      "note": 57,
      "start": 2.4801,
      "duration": 0.0086,
      "velocity": 106,
      "chip": "ym2612"
    },
    {
      "channel": 2,
      "note": 69,
      "start": 2.4889,
      "duration": 0.0099,
      "velocity": 106,
      "chip": "ym2612"
    },
    {
      "channel": 3,
      "note": 64,
      "start": 2.4892,
      "duration": 0.0098,
      "velocity": 106,
      "chip": "ym2612"
    },
    {
      "channel": 0,
      "note": 58,
      "start": 2.4987,
      "duration": 0.1493,
      "velocity": 90,
      "chip": "ym2612"
    },
    {
      "channel": 2,
      "note": 65,
      "start": 2.499,
      "duration": 0.1511,
      "velocity": 106,
      "chip": "ym2612"
    },
    {
      "channel": 3,
      "note": 58,
      "start": 2.4992,
      "duration": 0.152,
      "velocity": 106,
      "chip": "ym2612"
    },
    {
      "channel": 0,
      "note": 57,
      "start": 2.6483,
      "duration": 0.0301,
      "velocity": 90,
      "chip": "ym2612"
    },
    {
      "channel": 1,
      "note": 81,
      "start": 2.6493,
      "duration": 0.0799,
      "velocity": 109,
      "chip": "ym2612"
    },
    {
      "channel": 2,
      "note": 64,
      "start": 2.6502,
      "duration": 0.0792,
      "velocity": 106,
      "chip": "ym2612"
    },
    {
      "channel": 3,
      "note": 57,
      "start": 2.6513,
      "duration": 0.0783,
      "velocity": 106,
      "chip": "ym2612"
    },
    {
      "channel": 4,
      "note": 81,
      "start": 2.6616,
      "duration": 0.0768,
      "velocity": 109,
      "chip": "ym2612"
    },
    {
      "channel": 0,
      "note": 60,
      "start": 2.6786,
      "duration": 0.0303,
      "velocity": 90,
      "chip": "ym2612"
    },
    {
      "channel": 0,
      "note": 57,
      "start": 2.7092,
      "duration": 0.0196,
      "velocity": 90,
      "chip": "ym2612"
    },
    {
      "channel": 0,
      "note": 64,
      "start": 2.7291,
      "duration": 0.0264,
      "velocity": 90,
      "chip": "ym2612"
    },
    {
      "channel": 1,
      "note": 79,
      "start": 2.7293,
      "duration": 0.0766,
      "velocity": 109,
      "chip": "ym2612"
    },
    {
      "channel": 2,
      "note": 64,
      "start": 2.7294,
      "duration": 0.0767,
      "velocity": 106,
      "chip": "ym2612"
    },
    {
      "channel": 3,
      "note": 57,
      "start": 2.7296,
      "duration": 0.0767,
      "velocity": 106,
      "chip": "ym2612"
    },
    {
      "channel": 4,
      "note": 79,
      "start": 2.7385,
      "duration": 0.0781,
      "velocity": 109,
      "chip": "ym2612"
    },
    {
      "channel": 0,
      "note": 60,
      "start": 2.7557,
      "duration": 0.0307,
      "velocity": 90,
      "chip": "ym2612"
    },
    {
      "channel": 0,
      "note": 57,
      "start": 2.7866,
      "duration": 0.0189,
      "velocity": 90,
      "chip": "ym2612"
    },
    {
      "channel": 0,
      "note": 58,
      "start": 2.8058,
      "duration": 0.029,
      "velocity": 90,
      "chip": "ym2612"
    },
    {
      "channel": 1,
      "note": 82,
      "start": 2.806,
      "duration": 0.0783,
      "velocity": 109,
      "chip": "ym2612"
    },
    {
      "channel": 2,
      "note": 65,
      "start": 2.8063,
      "duration": 0.0783,
      "velocity": 106,
      "chip": "ym2612"
    },
    {
      "channel": 3,
      "note": 58,
      "start": 2.8065,
      "duration": 0.0783,
      "velocity": 106,
      "chip": "ym2612"
    },
    {
      "channel": 4,
      "note": 82,
      "start": 2.8167,
      "duration": 0.0776,
      "velocity": 109,
      "chip": "ym2612"
    },
    {
      "channel": 0,
      "note": 62,
      "start": 2.835,
      "duration": 0.0303,
      "velocity": 90,
      "chip": "ym2612"
    },
    {
      "channel": 0,
      "note": 58,
      "start": 2.8656,
      "duration": 0.0184,
      "velocity": 90,
      "chip": "ym2612"
    },
    {
      "channel": 0,
      "note": 55,
      "start": 2.8843,
      "duration": 0.0272,
      "velocity": 90,
      "chip": "ym2612"
    },
    {
      "channel": 1,
      "note": 79,
      "start": 2.8846,
      "duration": 0.0766,
      "velocity": 109,
      "chip": "ym2612"
    },
    {
      "channel": 2,
      "note": 62,
      "start": 2.8848,
      "duration": 0.0766,
      "velocity": 106,
      "chip": "ym2612"
    },
    {
      "channel": 3,
      "note": 55,
      "start": 2.8851,
      "duration": 0.0765,
      "velocity": 106,
      "chip": "ym2612"
    },
    {
      "channel": 4,
      "note": 79,
      "start": 2.8945,
      "duration": 0.0769,
      "velocity": 109,
      "chip": "ym2612"
    },
    {
      "channel": 0,
      "note": 58,
      "start": 2.9117,
      "duration": 0.0307,
      "velocity": 90,
      "chip": "ym2612"
    },
    {
      "channel": 0,
      "note": 55,
      "start": 2.9426,
      "duration": 0.0182,
      "velocity": 90,
      "chip": "ym2612"
    },
    {
      "channel": 0,
      "note": 57,
      "start": 2.9611,
      "duration": 0.0096,
      "velocity": 90,
      "chip": "ym2612"
    },
    {
      "channel": 1,
      "note": 81,
      "start": 2.9613,
      "duration": 0.0333,
      "velocity": 109,
      "chip": "ym2612"
    },
    {
      "channel": 2,
      "note": 69,
      "start": 2.9615,
      "duration": 0.0096,
      "velocity": 106,
      "chip": "ym2612"
    },
    {
      "channel": 3,
      "note": 64,
      "start": 2.9617,
      "duration": 0.028,
      "velocity": 106,
      "chip": "ym2612"
    },
    {
      "channel": 0,
      "note": 57,
      "start": 2.9709,
      "duration": 0.0092,
      "velocity": 90,
      "chip": "ym2612"
    },
    {
      "channel": 2,
      "note": 57,
      "start": 2.9712,
      "duration": 0.0093,
      "velocity": 106,
      "chip": "ym2612"
    },
    {
      "channel": 4,
      "note": 81,
      "start": 2.9716,
      "duration": 0.0333,
      "velocity": 109,
      "chip": "ym2612"
    },
    {
      "channel": 0,
      "note": 60,
      "start": 2.9803,
      "duration": 0.0088,
      "velocity": 90,
      "chip": "ym2612"
    },
    {
      "channel": 2,
      "note": 57,
      "start": 2.9805,
      "duration": 0.009,
      "velocity": 106,
      "chip": "ym2612"
    },
    {
      "channel": 0,
      "note": 57,
      "start": 2.9893,
      "duration": 0.0095,
      "velocity": 90,
      "chip": "ym2612"
    },
    {
      "channel": 2,
      "note": 67,
      "start": 2.9896,
      "duration": 0.0096,
      "velocity": 106,
      "chip": "ym2612"
    },
    {
      "channel": 3,
      "note": 62,
      "start": 2.9898,
      "duration": 0.029,
      "velocity": 106,
      "chip": "ym2612"
    },
    {
      "channel": 1,
      "note": 81,
      "start": 2.9946,
      "duration": 0.0278,
      "velocity": 109,
      "chip": "ym2612"
    },
    {
      "channel": 0,
      "note": 62,
      "start": 2.999,
      "duration": 0.0097,
      "velocity": 90,
      "chip": "ym2612"
    },
    {
      "channel": 2,
      "note": 57,
      "start": 2.9993,
      "duration": 0.0098,
      "velocity": 106,
      "chip": "ym2612"
    },
    {
      "channel": 4,
      "note": 81,
      "start": 3.0049,
      "duration": 0.0267,
      "velocity": 109,
      "chip": "ym2612"
    },
    {
      "channel": 0,
      "note": 57,
      "start": 3.009,
      "duration": 0.0092,
      "velocity": 90,
      "chip": "ym2612"
    },
    {
      "channel": 2,
      "note": 57,
      "start": 3.0093,
      "duration": 0.0093,
      "velocity": 106,
      "chip": "ym2612"
    },
    {
      "channel": 0,
      "note": 60,
      "start": 3.0184,
      "duration": 0.0083,
      "velocity": 90,
      "chip": "ym2612"
    },
    {
      "channel": 2,
      "note": 69,
      "start": 3.0187,
      "duration": 0.0082,
      "velocity": 106,
      "chip": "ym2612"
    },
    {
      "channel": 3,
      "note": 64,
      "start": 3.019,
      "duration": 0.0176,
      "velocity": 106,
      "chip": "ym2612"
    },
    {
      "channel": 0,
      "note": 57,
      "start": 3.0268,
      "duration": 0.009,
      "velocity": 90,
      "chip": "ym2612"
    },
    {
      "channel": 2,
      "note": 57,
      "start": 3.0271,
      "duration": 0.009,
      "velocity": 106,
      "chip": "ym2612"
    },
    {
      "channel": 0,
      "note": 63,
      "start": 3.036,
      "duration": 0.0083,
      "velocity": 90,
      "chip": "ym2612"
    },
    {
      "channel": 2,
      "note": 57,
      "start": 3.0364,
      "duration": 0.0082,
      "velocity": 106,
      "chip": "ym2612"
    },
    {
      "channel": 3,
      "note": 64,
      "start": 3.0366,
      "duration": 0.0083,
      "velocity": 106,
      "chip": "ym2612"
    },
    {
      "channel": 0,
      "note": 57,
      "start": 3.0445,
      "duration": 0.0091,
      "velocity": 90,
      "chip": "ym2612"
    },
    {
      "channel": 2,
      "note": 67,
      "start": 3.0447,
      "duration": 0.0093,
      "velocity": 106,
      "chip": "ym2612"
    },
    {
      "channel": 3,
      "note": 62,
      "start": 3.045,
      "duration": 0.0268,
      "velocity": 106,
      "chip": "ym2612"
    },
    {
      "channel": 0,
      "note": 62,
      "start": 3.0539,
      "duration": 0.0082,
      "velocity": 90,
      "chip": "ym2612"
    },
    {
      "channel": 2,
      "note": 57,
      "start": 3.0542,
      "duration": 0.0082,
      "velocity": 106,
      "chip": "ym2612"
    },
    {
      "channel": 0,
      "note": 57,
      "start": 3.0623,
      "duration": 0.009,
      "velocity": 90,
      "chip": "ym2612"
    },
    {
      "channel": 2,
      "note": 57,
      "start": 3.0626,
      "duration": 0.009,
      "velocity": 106,
      "chip": "ym2612"
    },
    {
      "channel": 0,
      "note": 57,
      "start": 3.0715,
      "duration": 0.0082,
      "velocity": 90,
      "chip": "ym2612"
    },
    {
      "channel": 2,
      "note": 69,
      "start": 3.0717,
      "duration": 0.0082,
      "velocity": 106,
      "chip": "ym2612"
    },
    {
      "channel": 3,
      "note": 64,
      "start": 3.072,
      "duration": 0.0081,
      "velocity": 106,
      "chip": "ym2612"
    },
    {
      "channel": 0,
      "note": 58,
      "start": 3.0799,
      "duration": 0.1509,
      "velocity": 90,
      "chip": "ym2612"
    },
    {
      "channel": 2,
      "note": 65,
      "start": 3.0801,
      "duration": 0.1511,
      "velocity": 106,
      "chip": "ym2612"
    },
    {
      "channel": 3,
      "note": 58,
      "start": 3.0803,
      "duration": 0.151,
      "velocity": 106,
      "chip": "ym2612"
    },
    {
      "channel": 0,
      "note": 57,
      "start": 3.2311,
      "duration": 0.0105,
      "velocity": 90,
      "chip": "ym2612"
    },
    {
      "channel": 2,
      "note": 69,
      "start": 3.2313,
      "duration": 0.0105,
      "velocity": 106,
      "chip": "ym2612"
    },
    {
      "channel": 3,
      "note": 64,
      "start": 3.2315,
      "duration": 0.028,
      "velocity": 106,
      "chip": "ym2612"
    },
    {
      "channel": 0,
      "note": 57,
      "start": 3.2418,
      "duration": 0.0095,
      "velocity": 90,
      "chip": "ym2612"
    },
    {
      "channel": 2,
      "note": 57,
      "start": 3.242,
      "duration": 0.0096,
      "velocity": 106,
      "chip": "ym2612"
    },
    {
      "channel": 0,
      "note": 60,
      "start": 3.2516,
      "duration": 0.0074,
      "velocity": 90,
      "chip": "ym2612"
    },
    {
      "channel": 2,
      "note": 57,
      "start": 3.2517,
      "duration": 0.0075,
      "velocity": 106,
      "chip": "ym2612"
    },
    {
      "channel": 0,
      "note": 57,
      "start": 3.2591,
      "duration": 0.0085,
      "velocity": 90,
      "chip": "ym2612"
    },
    {
      "channel": 2,
      "note": 67,
      "start": 3.2594,
      "duration": 0.0086,
      "velocity": 106,
      "chip": "ym2612"
    },
    {
      "channel": 3,
      "note": 62,
      "start": 3.2596,
      "duration": 0.0277,
      "velocity": 106,
      "chip": "ym2612"
    },
    {
      "channel": 0,
      "note": 62,
      "start": 3.2679,
      "duration": 0.0093,
      "velocity": 90,
      "chip": "ym2612"
    },
    {
      "channel": 2,
      "note": 57,
      "start": 3.2681,
      "duration": 0.0095,
      "velocity": 106,
      "chip": "ym2612"
    },
    {
      "channel": 0,
      "note": 57,
      "start": 3.2775,
      "duration": 0.0092,
      "velocity": 90,
      "chip": "ym2612"
    },
    {
      "channel": 2,
      "note": 57,
      "start": 3.2777,
      "duration": 0.0094,
      "velocity": 106,
      "chip": "ym2612"
    },
    {
      "channel": 0,
      "note": 60,
      "start": 3.287,
      "duration": 0.0094,
      "velocity": 90,
      "chip": "ym2612"
    },
    {
      "channel": 2,
      "note": 69,
      "start": 3.2873,
      "duration": 0.0094,
      "velocity": 106,
      "chip": "ym2612"
    },
    {
      "channel": 3,
      "note": 64,
      "start": 3.2875,
      "duration": 0.0187,
      "velocity": 106,
      "chip": "ym2612"
    },
    {
      "channel": 0,
      "note": 57,
      "start": 3.2966,
      "duration": 0.0089,
      "velocity": 90,
      "chip": "ym2612"
    },
    {
      "channel": 2,
      "note": 57,
      "start": 3.2969,
      "duration": 0.0089,
      "velocity": 106,
      "chip": "ym2612"
    },
    {
      "channel": 0,
      "note": 63,
      "start": 3.3056,
      "duration": 0.008,
      "velocity": 90,
      "chip": "ym2612"
    },
    {
      "channel": 2,
      "note": 57,
      "start": 3.306,
      "duration": 0.008,
      "velocity": 106,
      "chip": "ym2612"
    },
    {
      "channel": 3,
      "note": 64,
      "start": 3.3062,
      "duration": 0.008,
      "velocity": 106,
      "chip": "ym2612"
    },
    {
      "channel": 0,
      "note": 57,
      "start": 3.3139,
      "duration": 0.0089,
      "velocity": 90,
      "chip": "ym2612"
    },
    {
      "channel": 2,
      "note": 67,
      "start": 3.3141,
      "duration": 0.009,
      "velocity": 106,
      "chip": "ym2612"
    },
    {
      "channel": 3,
      "note": 62,
      "start": 3.3144,
      "duration": 0.0248,
      "velocity": 106,
      "chip": "ym2612"
    },
    {
      "channel": 0,
      "note": 62,
      "start": 3.323,
      "duration": 0.0071,
      "velocity": 90,
      "chip": "ym2612"
    },
    {
      "channel": 2,
      "note": 57,
      "start": 3.3232,
      "duration": 0.0071,
      "velocity": 106,
      "chip": "ym2612"
    },
    {
      "channel": 0,
      "note": 57,
      "start": 3.3302,
      "duration": 0.0084,
      "velocity": 90,
      "chip": "ym2612"
    },
    {
      "channel": 2,
      "note": 57,
      "start": 3.3305,
      "duration": 0.0085,
      "velocity": 106,
      "chip": "ym2612"
    },
    {
      "channel": 0,
      "note": 57,
      "start": 3.3389,
      "duration": 0.0082,
      "velocity": 90,
      "chip": "ym2612"
    },
    {
      "channel": 2,
      "note": 69,
      "start": 3.3391,
      "duration": 0.0082,
      "velocity": 106,
      "chip": "ym2612"
    },
    {
      "channel": 3,
      "note": 64,
      "start": 3.3394,
      "duration": 0.0081,
      "velocity": 106,
      "chip": "ym2612"
    },
    {
      "channel": 0,
      "note": 58,
      "start": 3.3473,
      "duration": 0.1504,
      "velocity": 90,
      "chip": "ym2612"
    },
    {
      "channel": 2,
      "note": 65,
      "start": 3.3475,
      "duration": 0.1508,
      "velocity": 106,
      "chip": "ym2612"
    },
    {
      "channel": 3,
      "note": 58,
      "start": 3.3477,
      "duration": 0.1508,
      "velocity": 106,
      "chip": "ym2612"
    },
    {
      "channel": 0,
      "note": 57,
      "start": 3.498,
      "duration": 0.028,
      "velocity": 90,
      "chip": "ym2612"
    },
    {
      "channel": 1,
      "note": 81,
      "start": 3.4982,
      "duration": 0.074,
      "velocity": 109,
      "chip": "ym2612"
    },
    {
      "channel": 2,
      "note": 64,
      "start": 3.4984,
      "duration": 0.0742,
      "velocity": 106,
      "chip": "ym2612"
    },
    {
      "channel": 3,
      "note": 57,
      "start": 3.4987,
      "duration": 0.0741,
      "velocity": 106,
      "chip": "ym2612"
    },
    {
      "channel": 4,
      "note": 81,
      "start": 3.5085,
      "duration": 0.0737,
      "velocity": 109,
      "chip": "ym2612"
    },
    {
      "channel": 0,
      "note": 60,
      "start": 3.5262,
      "duration": 0.0273,
      "velocity": 90,
      "chip": "ym2612"
    },
    {
      "channel": 0,
      "note": 57,
      "start": 3.5537,
      "duration": 0.0182,
      "velocity": 90,
      "chip": "ym2612"
    },
    {
      "channel": 0,
      "note": 64,
      "start": 3.5721,
      "duration": 0.0279,
      "velocity": 90,
      "chip": "ym2612"
    },
    {
      "channel": 1,
      "note": 79,
      "start": 3.5724,
      "duration": 0.0747,
      "velocity": 109,
      "chip": "ym2612"
    },
    {
      "channel": 2,
      "note": 64,
      "start": 3.5726,
      "duration": 0.0748,
      "velocity": 106,
      "chip": "ym2612"
    },
    {
      "channel": 3,
      "note": 57,
      "start": 3.5727,
      "duration": 0.0748,
      "velocity": 106,
      "chip": "ym2612"
    },
    {
      "channel": 4,
      "note": 79,
      "start": 3.5824,
      "duration": 0.075,
      "velocity": 109,
      "chip": "ym2612"
    },
    {
      "channel": 0,
      "note": 60,
      "start": 3.6002,
      "duration": 0.0273,
      "velocity": 90,
      "chip": "ym2612"
    },
    {
      "channel": 0,
      "note": 57,
      "start": 3.6276,
      "duration": 0.0191,
      "velocity": 90,
      "chip": "ym2612"
    },
    {
      "channel": 0,
      "note": 58,
      "start": 3.647,
      "duration": 0.0275,
      "velocity": 90,
      "chip": "ym2612"
    },
    {
      "channel": 1,
      "note": 82,
      "start": 3.6473,
      "duration": 0.0738,
      "velocity": 109,
      "chip": "ym2612"
    },
    {
      "channel": 2,
      "note": 65,
      "start": 3.6475,
      "duration": 0.0739,
      "velocity": 106,
      "chip": "ym2612"
    },
    {
      "channel": 3,
      "note": 58,
      "start": 3.6478,
      "duration": 0.0738,
      "velocity": 106,
      "chip": "ym2612"
    },
    {
      "channel": 4,
      "note": 82,
      "start": 3.6575,
      "duration": 0.0735,
      "velocity": 109,
      "chip": "ym2612"
    },
    {
      "channel": 0,
      "note": 62,
      "start": 3.6747,
      "duration": 0.0282,
      "velocity": 90,
      "chip": "ym2612"
    },
    {
      "channel": 0,
      "note": 58,
      "start": 3.7031,
      "duration": 0.0177,
      "velocity": 90,
      "chip": "ym2612"
    },
    {
      "channel": 0,
      "note": 55,
      "start": 3.721,
      "duration": 0.0271,
      "velocity": 90,
      "chip": "ym2612"
    },
    {
      "channel": 1,
      "note": 79,
      "start": 3.7213,
      "duration": 0.0728,
      "velocity": 109,
      "chip": "ym2612"
    },
    {
      "channel": 2,
      "note": 62,
      "start": 3.7215,
      "duration": 0.0729,
      "velocity": 106,
      "chip": "ym2612"
    },
    {
      "channel": 3,
      "note": 55,
      "start": 3.7218,
      "duration": 0.0729,
      "velocity": 106,
      "chip": "ym2612"
    },
    {
      "channel": 4,
      "note": 79,
      "start": 3.7312,
      "duration": 0.0736,
      "velocity": 109,
      "chip": "ym2612"
    },
    {
      "channel": 0,
      "note": 58,
      "start": 3.7483,
      "duration": 0.0282,
      "velocity": 90,
      "chip": "ym2612"
    },
    {
      "channel": 0,
      "note": 55,
      "start": 3.7768,
      "duration": 0.0171,
      "velocity": 90,
      "chip": "ym2612"
    },
    {
      "channel": 0,
      "note": 57,
      "start": 3.7941,
      "duration": 0.0097,
      "velocity": 90,
      "chip": "ym2612"
    },
    {
      "channel": 1,
      "note": 81,
      "start": 3.7944,
      "duration": 0.0331,
      "velocity": 109,
      "chip": "ym2612"
    },
    {
      "channel": 2,
      "note": 69,
      "start": 3.7946,
      "duration": 0.0097,
      "velocity": 106,
      "chip": "ym2612"
    },
    {
      "channel": 3,
      "note": 64,
      "start": 3.7949,
      "duration": 0.0277,
      "velocity": 106,
      "chip": "ym2612"
    },
    {
      "channel": 0,
      "note": 57,
      "start": 3.8041,
      "duration": 0.01,
      "velocity": 90,
      "chip": "ym2612"
    },
    {
      "channel": 2,
      "note": 57,
      "start": 3.8046,
      "duration": 0.0099,
      "velocity": 106,
      "chip": "ym2612"
    },
    {
      "channel": 4,
      "note": 81,
      "start": 3.805,
      "duration": 0.0318,
      "velocity": 109,
      "chip": "ym2612"
    },
    {
      "channel": 0,
      "note": 60,
      "start": 3.8142,
      "duration": 0.0078,
      "velocity": 90,
      "chip": "ym2612"
    },
    {
      "channel": 2,
      "note": 57,
      "start": 3.8146,
      "duration": 0.0078,
      "velocity": 106,
      "chip": "ym2612"
    },
    {
      "channel": 0,
      "note": 57,
      "start": 3.8222,
      "duration": 0.0095,
      "velocity": 90,
      "chip": "ym2612"
    },
    {
      "channel": 2,
      "note": 67,
      "start": 3.8225,
      "duration": 0.0095,
      "velocity": 106,
      "chip": "ym2612"
    },
    {
      "channel": 3,
      "note": 62,
      "start": 3.8227,
      "duration": 0.0307,
      "velocity": 106,
      "chip": "ym2612"
    },
    {
      "channel": 1,
      "note": 81,
      "start": 3.8274,
      "duration": 0.0306,
      "velocity": 109,
      "chip": "ym2612"
    },
    {
      "channel": 0,
      "note": 62,
      "start": 3.8319,
      "duration": 0.0091,
      "velocity": 90,
      "chip": "ym2612"
    },
    {
      "channel": 2,
      "note": 57,
      "start": 3.8322,
      "duration": 0.0092,
      "velocity": 106,
      "chip": "ym2612"
    },
    {
      "channel": 4,
      "note": 81,
      "start": 3.8368,
      "duration": 0.0295,
      "velocity": 109,
      "chip": "ym2612"
    },
    {
      "channel": 0,
      "note": 57,
      "start": 3.8412,
      "duration": 0.0115,
      "velocity": 90,
      "chip": "ym2612"
    },
    {
      "channel": 2,
      "note": 57,
      "start": 3.8415,
      "duration": 0.0117,
      "velocity": 106,
      "chip": "ym2612"
    },
    {
      "channel": 0,
      "note": 60,
      "start": 3.8531,
      "duration": 0.0088,
      "velocity": 90,
      "chip": "ym2612"
    },
    {
      "channel": 2,
      "note": 69,
      "start": 3.8534,
      "duration": 0.0088,
      "velocity": 106,
      "chip": "ym2612"
    },
    {
      "channel": 3,
      "note": 64,
      "start": 3.8536,
      "duration": 0.0186,
      "velocity": 106,
      "chip": "ym2612"
    },
    {
      "channel": 0,
      "note": 57,
      "start": 3.8621,
      "duration": 0.0094,
      "velocity": 90,
      "chip": "ym2612"
    },
    {
      "channel": 2,
      "note": 57,
      "start": 3.8622,
      "duration": 0.0096,
      "velocity": 106,
      "chip": "ym2612"
    },
    {
      "channel": 0,
      "note": 63,
      "start": 3.8717,
      "duration": 0.0085,
      "velocity": 90,
      "chip": "ym2612"
    },
    {
      "channel": 2,
      "note": 57,
      "start": 3.872,
      "duration": 0.0084,
      "velocity": 106,
      "chip": "ym2612"
    },
    {
      "channel": 3,
      "note": 64,
      "start": 3.8722,
      "duration": 0.0085,
      "velocity": 106,
      "chip": "ym2612"
    },
    {
      "channel": 0,
      "note": 57,
      "start": 3.8804,
      "duration": 0.0091,
      "velocity": 90,
      "chip": "ym2612"
    },
    {
      "channel": 2,
      "note": 67,
      "start": 3.8806,
      "duration": 0.0093,
      "velocity": 106,
      "chip": "ym2612"
    },
    {
      "channel": 3,
      "note": 62,
      "start": 3.8808,
      "duration": 0.0277,
      "velocity": 106,
      "chip": "ym2612"
    },
    {
      "channel": 0,
      "note": 62,
      "start": 3.8897,
      "duration": 0.009,
      "velocity": 90,
      "chip": "ym2612"
    },
    {
      "channel": 2,
      "note": 57,
      "start": 3.89,
      "duration": 0.009,
      "velocity": 106,
      "chip": "ym2612"
    },
    {
      "channel": 0,
      "note": 57,
      "start": 3.8989,
      "duration": 0.009,
      "velocity": 90,
      "chip": "ym2612"
    },
    {
      "channel": 2,
      "note": 57,
      "start": 3.8992,
      "duration": 0.009,
      "velocity": 106,
      "chip": "ym2612"
    },
    {
      "channel": 0,
      "note": 57,
      "start": 3.9081,
      "duration": 0.0082,
      "velocity": 90,
      "chip": "ym2612"
    },
    {
      "channel": 2,
      "note": 69,
      "start": 3.9084,
      "duration": 0.0082,
      "velocity": 106,
      "chip": "ym2612"
    },
    {
      "channel": 3,
      "note": 64,
      "start": 3.9086,
      "duration": 0.0081,
      "velocity": 106,
      "chip": "ym2612"
    },
    {
      "channel": 0,
      "note": 58,
      "start": 3.9165,
      "duration": 0.1502,
      "velocity": 90,
      "chip": "ym2612"
    },
    {
      "channel": 2,
      "note": 65,
      "start": 3.9167,
      "duration": 0.1505,
      "velocity": 106,
      "chip": "ym2612"
    },
    {
      "channel": 3,
      "note": 58,
      "start": 3.9169,
      "duration": 0.1504,
      "velocity": 106,
      "chip": "ym2612"
    },
    {
      "channel": 0,
      "note": 57,
      "start": 4.0671,
      "duration": 0.0105,
      "velocity": 90,
      "chip": "ym2612"
    },
    {
      "channel": 2,
      "note": 69,
      "start": 4.0673,
      "duration": 0.0105,
      "velocity": 106,
      "chip": "ym2612"
    },
    {
      "channel": 3,
      "note": 64,
      "start": 4.0675,
      "duration": 0.028,
      "velocity": 106,
      "chip": "ym2612"
    },
    {
      "channel": 0,
      "note": 57,
      "start": 4.0778,
      "duration": 0.0095,
      "velocity": 90,
      "chip": "ym2612"
    },
    {
      "channel": 2,
      "note": 57,
      "start": 4.0779,
      "duration": 0.0096,
      "velocity": 106,
      "chip": "ym2612"
    },
    {
      "channel": 0,
      "note": 60,
      "start": 4.0875,
      "duration": 0.0074,
      "velocity": 90,
      "chip": "ym2612"
    },
    {
      "channel": 2,
      "note": 57,
      "start": 4.0877,
      "duration": 0.0075,
      "velocity": 106,
      "chip": "ym2612"
    },
    {
      "channel": 0,
      "note": 57,
      "start": 4.0951,
      "duration": 0.0085,
      "velocity": 90,
      "chip": "ym2612"
    },
    {
      "channel": 2,
      "note": 67,
      "start": 4.0954,
      "duration": 0.0086,
      "velocity": 106,
      "chip": "ym2612"
    },
    {
      "channel": 3,
      "note": 62,
      "start": 4.0956,
      "duration": 0.028,
      "velocity": 106,
      "chip": "ym2612"
    },
    {
      "channel": 0,
      "note": 62,
      "start": 4.1039,
      "duration": 0.0093,
      "velocity": 90,
      "chip": "ym2612"
    },
    {
      "channel": 2,
      "note": 57,
      "start": 4.1041,
      "duration": 0.0095,
      "velocity": 106,
      "chip": "ym2612"
    },
    {
      "channel": 0,
      "note": 57,
      "start": 4.1135,
      "duration": 0.0095,
      "velocity": 90,
      "chip": "ym2612"
    },
    {
      "channel": 2,
      "note": 57,
      "start": 4.1137,
      "duration": 0.0097,
      "velocity": 106,
      "chip": "ym2612"
    },
    {
      "channel": 0,
      "note": 60,
      "start": 4.1233,
      "duration": 0.0092,
      "velocity": 90,
      "chip": "ym2612"
    },
    {
      "channel": 2,
      "note": 69,
      "start": 4.1236,
      "duration": 0.0092,
      "velocity": 106,
      "chip": "ym2612"
    },
    {
      "channel": 3,
      "note": 64,
      "start": 4.1238,
      "duration": 0.0185,
      "velocity": 106,
      "chip": "ym2612"
    },
    {
      "channel": 0,
      "note": 57,
      "start": 4.1327,
      "duration": 0.009,
      "velocity": 90,
      "chip": "ym2612"
    },
    {
      "channel": 2,
      "note": 57,
      "start": 4.133,
      "duration": 0.0091,
      "velocity": 106,
      "chip": "ym2612"
    },
    {
      "channel": 0,
      "note": 57,
      "start": 4.1419,
      "duration": 0.0171,
      "velocity": 90,
      "chip": "ym2612"
    },
    {
      "channel": 2,
      "note": 57,
      "start": 4.1422,
      "duration": 0.0078,
      "velocity": 106,
      "chip": "ym2612"
    },
    {
      "channel": 3,
      "note": 52,
      "start": 4.1424,
      "duration": 0.0078,
      "velocity": 106,
      "chip": "ym2612"
    },
    {
      "channel": 2,
      "note": 60,
      "start": 4.1501,
      "duration": 0.0092,
      "velocity": 106,
      "chip": "ym2612"
    },
    {
      "channel": 3,
      "note": 55,
      "start": 4.1503,
      "duration": 0.0091,
      "velocity": 106,
      "chip": "ym2612"
    },
    {
      "channel": 0,
      "note": 59,
      "start": 4.1592,
      "duration": 0.0169,
      "velocity": 90,
      "chip": "ym2612"
    },
    {
      "channel": 2,
      "note": 62,
      "start": 4.1594,
      "duration": 0.0086,
      "velocity": 106,
      "chip": "ym2612"
    },
    {
      "channel": 3,
      "note": 57,
      "start": 4.1596,
      "duration": 0.0085,
      "velocity": 106,
      "chip": "ym2612"
    },
    {
      "channel": 2,
      "note": 64,
      "start": 4.1681,
      "duration": 0.0083,
      "velocity": 106,
      "chip": "ym2612"
    },
    {
      "channel": 3,
      "note": 59,
      "start": 4.1683,
      "duration": 0.0083,
      "velocity": 106,
      "chip": "ym2612"
    },
    {
      "channel": 0,
      "note": 60,
      "start": 4.1763,
      "duration": 0.0178,
      "velocity": 90,
      "chip": "ym2612"
    },
    {
      "channel": 2,
      "note": 67,
      "start": 4.1765,
      "duration": 0.0086,
      "velocity": 106,
      "chip": "ym2612"
    },
    {
      "channel": 3,
      "note": 62,
      "start": 4.1767,
      "duration": 0.0085,
      "velocity": 106,
      "chip": "ym2612"
    },
    {
      "channel": 2,
      "note": 69,
      "start": 4.1852,
      "duration": 0.0093,
      "velocity": 106,
      "chip": "ym2612"
    },
    {
      "channel": 3,
      "note": 64,
      "start": 4.1854,
      "duration": 0.0094,
      "velocity": 106,
      "chip": "ym2612"
    },
    {
      "channel": 0,
      "note": 64,
      "start": 4.1944,
      "duration": 0.0137,
      "velocity": 90,
      "chip": "ym2612"
    },
    {
      "channel": 2,
      "note": 72,
      "start": 4.1947,
      "duration": 0.0074,
      "velocity": 106,
      "chip": "ym2612"
    },
    {
      "channel": 3,
      "note": 67,
      "start": 4.195,
      "duration": 0.0074,
      "velocity": 106,
      "chip": "ym2612"
    },
    {
      "channel": 2,
      "note": 74,
      "start": 4.2023,
      "duration": 0.0062,
      "velocity": 106,
      "chip": "ym2612"
    },
    {
      "channel": 3,
      "note": 69,
      "start": 4.2025,
      "duration": 0.0061,
      "velocity": 106,
      "chip": "ym2612"
    },
    {
      "channel": 0,
      "note": 62,
      "start": 4.2083,
      "duration": 0.1254,
      "velocity": 90,
      "chip": "ym2612"
    },
    {
      "channel": 2,
      "note": 62,
      "start": 4.2086,
      "duration": 0.4002,
      "velocity": 106,
      "chip": "ym2612"
    },
    {
      "channel": 3,
      "note": 57,
      "start": 4.2088,
      "duration": 0.4002,
      "velocity": 106,
      "chip": "ym2612"
    },
    {
      "channel": 0,
      "note": 62,
      "start": 4.3339,
      "duration": 0.1268,
      "velocity": 90,
      "chip": "ym2612"
    },
    {
      "channel": 1,
      "note": 86,
      "start": 4.3342,
      "duration": 0.1269,
      "velocity": 109,
      "chip": "ym2612"
    },
    {
      "channel": 4,
      "note": 86,
      "start": 4.3419,
      "duration": 0.1289,
      "velocity": 109,
      "chip": "ym2612"
    },
    {
      "channel": 0,
      "note": 62,
      "start": 4.461,
      "duration": 0.0282,
      "velocity": 90,
      "chip": "ym2612"
    },
    {
      "channel": 1,
      "note": 86,
      "start": 4.4612,
      "duration": 0.1473,
      "velocity": 109,
      "chip": "ym2612"
    },
    {
      "channel": 4,
      "note": 86,
      "start": 4.471,
      "duration": 0.1462,
      "velocity": 109,
      "chip": "ym2612"
    },
    {
      "channel": 0,
      "note": 57,
      "start": 4.4895,
      "duration": 0.1187,
      "velocity": 90,
      "chip": "ym2612"
    },
    {
      "channel": 0,
      "note": 62,
      "start": 4.6084,
      "duration": 0.0083,
      "velocity": 90,
      "chip": "ym2612"
    },
    {
      "channel": 1,
      "note": 86,
      "start": 4.6087,
      "duration": 0.2741,
      "velocity": 109,
      "chip": "ym2612"
    },
    {
      "channel": 2,
      "note": 62,
      "start": 4.6088,
      "duration": 0.2742,
      "velocity": 106,
      "chip": "ym2612"
    },
    {
      "channel": 3,
      "note": 57,
      "start": 4.609,
      "duration": 0.2743,
      "velocity": 106,
      "chip": "ym2612"
    },
    {
      "channel": 0,
      "note": 57,
      "start": 4.6169,
      "duration": 0.1189,
      "velocity": 90,
      "chip": "ym2612"
    },
    {
      "channel": 4,
      "note": 86,
      "start": 4.6174,
      "duration": 0.2756,
      "velocity": 109,
      "chip": "ym2612"
    },
    {
      "channel": 0,
      "note": 62,
      "start": 4.736,
      "duration": 0.1277,
      "velocity": 90,
      "chip": "ym2612"
    },
    {
      "channel": 0,
      "note": 62,
      "start": 4.864,
      "duration": 0.0184,
      "velocity": 90,
      "chip": "ym2612"
    },
    {
      "channel": 0,
      "note": 61,
      "start": 4.8827,
      "duration": 0.1283,
      "velocity": 90,
      "chip": "ym2612"
    },
    {
      "channel": 1,
      "note": 85,
      "start": 4.8829,
      "duration": 0.1283,
      "velocity": 109,
      "chip": "ym2612"
    },
    {
      "channel": 2,
      "note": 61,
      "start": 4.8832,
      "duration": 0.1282,
      "velocity": 106,
      "chip": "ym2612"
    },
    {
      "channel": 3,
      "note": 56,
      "start": 4.8834,
      "duration": 0.1281,
      "velocity": 106,
      "chip": "ym2612"
    },
    {
      "channel": 4,
      "note": 85,
      "start": 4.8932,
      "duration": 0.2513,
      "velocity": 109,
      "chip": "ym2612"
    },
    {
      "channel": 0,
      "note": 58,
      "start": 5.2779,
      "duration": 0.1282,
      "velocity": 90,
      "chip": "ym2612"
    },
    {
      "channel": 1,
      "note": 82,
      "start": 5.2781,
      "duration": 0.2734,
      "velocity": 109,
      "chip": "ym2612"
    },
    {
      "channel": 2,
      "note": 58,
      "start": 5.2784,
      "duration": 0.2734,
      "velocity": 106,
      "chip": "ym2612"
    },
    {
      "channel": 3,
      "note": 53,
      "start": 5.2787,
      "duration": 0.2734,
      "velocity": 106,
      "chip": "ym2612"
    },
    {
      "channel": 4,
      "note": 82,
      "start": 5.2874,
      "duration": 0.2723,
      "velocity": 109,
      "chip": "ym2612"
    },
    {
      "channel": 0,
      "note": 58,
      "start": 5.4063,
      "duration": 0.0184,
      "velocity": 90,
      "chip": "ym2612"
    },
    {
      "channel": 0,
      "note": 58,
      "start": 5.425,
      "duration": 0.1262,
      "velocity": 90,
      "chip": "ym2612"
    },
    {
      "channel": 0,
      "note": 58,
      "start": 5.5514,
      "duration": 0.1268,
      "velocity": 90,
      "chip": "ym2612"
    },
    {
      "channel": 1,
      "note": 82,
      "start": 5.5516,
      "duration": 0.2806,
      "velocity": 109,
      "chip": "ym2612"
    },
    {
      "channel": 2,
      "note": 58,
      "start": 5.5518,
      "duration": 0.2887,
      "velocity": 106,
      "chip": "ym2612"
    },
    {
      "channel": 3,
      "note": 53,
      "start": 5.552,
      "duration": 0.2888,
      "velocity": 106,
      "chip": "ym2612"
    },
    {
      "channel": 4,
      "note": 82,
      "start": 5.5597,
      "duration": 0.2813,
      "velocity": 109,
      "chip": "ym2612"
    },
    {
      "channel": 0,
      "note": 58,
      "start": 5.6785,
      "duration": 0.1268,
      "velocity": 90,
      "chip": "ym2612"
    },
    {
      "channel": 0,
      "note": 60,
      "start": 5.8055,
      "duration": 0.0185,
      "velocity": 90,
      "chip": "ym2612"
    },
    {
      "channel": 0,
      "note": 58,
      "start": 5.8243,
      "duration": 0.0151,
      "velocity": 90,
      "chip": "ym2612"
    },
    {
      "channel": 1,
      "note": 81,
      "start": 5.8323,
      "duration": 0.0082,
      "velocity": 118,
      "chip": "ym2612"
    },
    {
      "channel": 0,
      "note": 57,
      "start": 5.8396,
      "duration": 0.0095,
      "velocity": 90,
      "chip": "ym2612"
    },
    {
      "channel": 2,
      "note": 69,
      "start": 5.8407,
      "duration": 0.0086,
      "velocity": 106,
      "chip": "ym2612"
    },
    {
      "channel": 3,
      "note": 64,
      "start": 5.8409,
      "duration": 0.0265,
      "velocity": 106,
      "chip": "ym2612"
    },
    {
      "channel": 4,
      "note": 81,
      "start": 5.8412,
      "duration": 0.0093,
      "velocity": 118,
      "chip": "ym2612"
    },
    {
      "channel": 0,
      "note": 57,
      "start": 5.8493,
      "duration": 0.009,
      "velocity": 90,
      "chip": "ym2612"
    },
    {
      "channel": 2,
      "note": 57,
      "start": 5.8495,
      "duration": 0.0093,
      "velocity": 106,
      "chip": "ym2612"
    },
    {
      "channel": 0,
      "note": 60,
      "start": 5.8585,
      "duration": 0.0082,
      "velocity": 90,
      "chip": "ym2612"
    },
    {
      "channel": 1,
      "note": 69,
      "start": 5.8587,
      "duration": 0.0163,
      "velocity": 118,
      "chip": "ym2612"
    },
    {
      "channel": 2,
      "note": 57,
      "start": 5.859,
      "duration": 0.0082,
      "velocity": 106,
      "chip": "ym2612"
    },
    {
      "channel": 0,
      "note": 57,
      "start": 5.867,
      "duration": 0.0078,
      "velocity": 90,
      "chip": "ym2612"
    },
    {
      "channel": 2,
      "note": 67,
      "start": 5.8673,
      "duration": 0.008,
      "velocity": 106,
      "chip": "ym2612"
    },
    {
      "channel": 3,
      "note": 62,
      "start": 5.8676,
      "duration": 0.0289,
      "velocity": 106,
      "chip": "ym2612"
    },
    {
      "channel": 4,
      "note": 69,
      "start": 5.8678,
      "duration": 0.0179,
      "velocity": 118,
      "chip": "ym2612"
    },
    {
      "channel": 0,
      "note": 62,
      "start": 5.875,
      "duration": 0.0098,
      "velocity": 90,
      "chip": "ym2612"
    },
    {
      "channel": 1,
      "note": 69,
      "start": 5.8753,
      "duration": 0.0308,
      "velocity": 118,
      "chip": "ym2612"
    },
    {
      "channel": 2,
      "note": 57,
      "start": 5.8755,
      "duration": 0.0098,
      "velocity": 106,
      "chip": "ym2612"
    },
    {
      "channel": 0,
      "note": 57,
      "start": 5.8851,
      "duration": 0.0107,
      "velocity": 90,
      "chip": "ym2612"
    },
    {
      "channel": 2,
      "note": 57,
      "start": 5.8855,
      "duration": 0.0107,
      "velocity": 106,
      "chip": "ym2612"
    },
    {
      "channel": 4,
      "note": 69,
      "start": 5.8859,
      "duration": 0.031,
      "velocity": 118,
      "chip": "ym2612"
    },
    {
      "channel": 0,
      "note": 60,
      "start": 5.8961,
      "duration": 0.0097,
      "velocity": 90,
      "chip": "ym2612"
    },
    {
      "channel": 2,
      "note": 69,
      "start": 5.8963,
      "duration": 0.0099,
      "velocity": 106,
      "chip": "ym2612"
    },
    {
      "channel": 3,
      "note": 64,
      "start": 5.8966,
      "duration": 0.0202,
      "velocity": 106,
      "chip": "ym2612"
    },
    {
      "channel": 0,
      "note": 57,
      "start": 5.906,
      "duration": 0.0098,
      "velocity": 90,
      "chip": "ym2612"
    },
    {
      "channel": 1,
      "note": 69,
      "start": 5.9062,
      "duration": 0.0099,
      "velocity": 118,
      "chip": "ym2612"
    },
    {
      "channel": 2,
      "note": 57,
      "start": 5.9065,
      "duration": 0.0099,
      "velocity": 106,
      "chip": "ym2612"
    },
    {
      "channel": 0,
      "note": 63,
      "start": 5.916,
      "duration": 0.01,
      "velocity": 90,
      "chip": "ym2612"
    },
    {
      "channel": 1,
      "note": 69,
      "start": 5.9163,
      "duration": 0.0278,
      "velocity": 118,
      "chip": "ym2612"
    },
    {
      "channel": 2,
      "note": 57,
      "start": 5.9166,
      "duration": 0.0098,
      "velocity": 106,
      "chip": "ym2612"
    },
    {
      "channel": 3,
      "note": 64,
      "start": 5.9168,
      "duration": 0.0098,
      "velocity": 106,
      "chip": "ym2612"
    },
    {
      "channel": 4,
      "note": 69,
      "start": 5.917,
      "duration": 0.0098,
      "velocity": 118,
      "chip": "ym2612"
    },
    {
      "channel": 0,
      "note": 57,
      "start": 5.9262,
      "duration": 0.0084,
      "velocity": 90,
      "chip": "ym2612"
    },
    {
      "channel": 2,
      "note": 67,
      "start": 5.9265,
      "duration": 0.0085,
      "velocity": 106,
      "chip": "ym2612"
    },
    {
      "channel": 3,
      "note": 62,
      "start": 5.9267,
      "duration": 0.0274,
      "velocity": 106,
      "chip": "ym2612"
    },
    {
      "channel": 4,
      "note": 69,
      "start": 5.9269,
      "duration": 0.0275,
      "velocity": 118,
      "chip": "ym2612"
    },
    {
      "channel": 0,
      "note": 62,
      "start": 5.9348,
      "duration": 0.009,
      "velocity": 90,
      "chip": "ym2612"
    },
    {
      "channel": 2,
      "note": 57,
      "start": 5.9352,
      "duration": 0.0091,
      "velocity": 106,
      "chip": "ym2612"
    },
    {
      "channel": 0,
      "note": 57,
      "start": 5.944,
      "duration": 0.0095,
      "velocity": 90,
      "chip": "ym2612"
    },
    {
      "channel": 1,
      "note": 69,
      "start": 5.9442,
      "duration": 0.0198,
      "velocity": 118,
      "chip": "ym2612"
    },
    {
      "channel": 2,
      "note": 57,
      "start": 5.9445,
      "duration": 0.0093,
      "velocity": 106,
      "chip": "ym2612"
    },
    {
      "channel": 0,
      "note": 57,
      "start": 5.9537,
      "duration": 0.0099,
      "velocity": 90,
      "chip": "ym2612"
    },
    {
      "channel": 2,
      "note": 69,
      "start": 5.9541,
      "duration": 0.0102,
      "velocity": 106,
      "chip": "ym2612"
    },
    {
      "channel": 3,
      "note": 64,
      "start": 5.9544,
      "duration": 0.0102,
      "velocity": 106,
      "chip": "ym2612"
    },
    {
      "channel": 4,
      "note": 69,
      "start": 5.9546,
      "duration": 0.0178,
      "velocity": 118,
      "chip": "ym2612"
    },
    {
      "channel": 0,
      "note": 58,
      "start": 5.9639,
      "duration": 0.0256,
      "velocity": 90,
      "chip": "ym2612"
    },
    {
      "channel": 1,
      "note": 69,
      "start": 5.9641,
      "duration": 0.0257,
      "velocity": 118,
      "chip": "ym2612"
    },
    {
      "channel": 2,
      "note": 65,
      "start": 5.9644,
      "duration": 0.0257,
      "velocity": 106,
      "chip": "ym2612"
    },
    {
      "channel": 3,
      "note": 58,
      "start": 5.9647,
      "duration": 0.0257,
      "velocity": 106,
      "chip": "ym2612"
    },
    {
      "channel": 4,
      "note": 69,
      "start": 5.9726,
      "duration": 0.0271,
      "velocity": 118,
      "chip": "ym2612"
    },
    {
      "channel": 0,
      "note": 57,
      "start": 5.9898,
      "duration": 0.0093,
      "velocity": 90,
      "chip": "ym2612"
    },
    {
      "channel": 1,
      "note": 69,
      "start": 5.99,
      "duration": 0.0271,
      "velocity": 118,
      "chip": "ym2612"
    },
    {
      "channel": 2,
      "note": 69,
      "start": 5.9903,
      "duration": 0.0091,
      "velocity": 106,
      "chip": "ym2612"
    },
    {
      "channel": 3,
      "note": 64,
      "start": 5.9906,
      "duration": 0.0271,
      "velocity": 106,
      "chip": "ym2612"
    },
    {
      "channel": 0,
      "note": 57,
      "start": 5.9993,
      "duration": 0.0088,
      "velocity": 90,
      "chip": "ym2612"
    },
    {
      "channel": 2,
      "note": 57,
      "start": 5.9995,
      "duration": 0.0089,
      "velocity": 106,
      "chip": "ym2612"
    },
    {
      "channel": 4,
      "note": 69,
      "start": 5.9999,
      "duration": 0.0271,
      "velocity": 118,
      "chip": "ym2612"
    },
    {
      "channel": 0,
      "note": 60,
      "start": 6.0083,
      "duration": 0.0086,
      "velocity": 90,
      "chip": "ym2612"
    },
    {
      "channel": 2,
      "note": 57,
      "start": 6.0086,
      "duration": 0.0088,
      "velocity": 106,
      "chip": "ym2612"
    },
    {
      "channel": 0,
      "note": 57,
      "start": 6.017,
      "duration": 0.0093,
      "velocity": 90,
      "chip": "ym2612"
    },
    {
      "channel": 1,
      "note": 69,
      "start": 6.0173,
      "duration": 0.0292,
      "velocity": 118,
      "chip": "ym2612"
    },
    {
      "channel": 2,
      "note": 67,
      "start": 6.0177,
      "duration": 0.0091,
      "velocity": 106,
      "chip": "ym2612"
    },
    {
      "channel": 3,
      "note": 62,
      "start": 6.0179,
      "duration": 0.0291,
      "velocity": 106,
      "chip": "ym2612"
    },
    {
      "channel": 0,
      "note": 62,
      "start": 6.0266,
      "duration": 0.011,
      "velocity": 90,
      "chip": "ym2612"
    },
    {
      "channel": 2,
      "note": 57,
      "start": 6.0269,
      "duration": 0.0112,
      "velocity": 106,
      "chip": "ym2612"
    },
    {
      "channel": 4,
      "note": 69,
      "start": 6.0271,
      "duration": 0.0298,
      "velocity": 118,
      "chip": "ym2612"
    },
    {
      "channel": 0,
      "note": 57,
      "start": 6.0378,
      "duration": 0.0084,
      "velocity": 90,
      "chip": "ym2612"
    },
    {
      "channel": 2,
      "note": 57,
      "start": 6.0383,
      "duration": 0.0085,
      "velocity": 106,
      "chip": "ym2612"
    },
    {
      "channel": 0,
      "note": 60,
      "start": 6.0465,
      "duration": 0.0098,
      "velocity": 90,
      "chip": "ym2612"
    },
    {
      "channel": 1,
      "note": 69,
      "start": 6.0466,
      "duration": 0.021,
      "velocity": 118,
      "chip": "ym2612"
    },
    {
      "channel": 2,
      "note": 69,
      "start": 6.0469,
      "duration": 0.0097,
      "velocity": 106,
      "chip": "ym2612"
    },
    {
      "channel": 3,
      "note": 64,
      "start": 6.0471,
      "duration": 0.0209,
      "velocity": 106,
      "chip": "ym2612"
    },
    {
      "channel": 0,
      "note": 57,
      "start": 6.0565,
      "duration": 0.0108,
      "velocity": 90,
      "chip": "ym2612"
    },
    {
      "channel": 2,
      "note": 57,
      "start": 6.0568,
      "duration": 0.0109,
      "velocity": 106,
      "chip": "ym2612"
    },
    {
      "channel": 4,
      "note": 69,
      "start": 6.0571,
      "duration": 0.0214,
      "velocity": 118,
      "chip": "ym2612"
    },
    {
      "channel": 0,
      "note": 63,
      "start": 6.0676,
      "duration": 0.01,
      "velocity": 90,
      "chip": "ym2612"
    },
    {
      "channel": 2,
      "note": 57,
      "start": 6.0679,
      "duration": 0.01,
      "velocity": 106,
      "chip": "ym2612"
    },
    {
      "channel": 3,
      "note": 64,
      "start": 6.068,
      "duration": 0.0101,
      "velocity": 106,
      "chip": "ym2612"
    },
    {
      "channel": 0,
      "note": 57,
      "start": 6.0777,
      "duration": 0.0079,
      "velocity": 90,
      "chip": "ym2612"
    },
    {
      "channel": 2,
      "note": 67,
      "start": 6.0781,
      "duration": 0.0078,
      "velocity": 106,
      "chip": "ym2612"
    },
    {
      "channel": 3,
      "note": 62,
      "start": 6.0783,
      "duration": 0.026,
      "velocity": 106,
      "chip": "ym2612"
    },
    {
      "channel": 0,
      "note": 62,
      "start": 6.0858,
      "duration": 0.0088,
      "velocity": 90,
      "chip": "ym2612"
    },
    {
      "channel": 2,
      "note": 57,
      "start": 6.0861,
      "duration": 0.0088,
      "velocity": 106,
      "chip": "ym2612"
    },
    {
      "channel": 0,
      "note": 57,
      "start": 6.0948,
      "duration": 0.009,
      "velocity": 90,
      "chip": "ym2612"
    },
    {
      "channel": 2,
      "note": 57,
      "start": 6.0951,
      "duration": 0.0091,
      "velocity": 106,
      "chip": "ym2612"
    },
    {
      "channel": 0,
      "note": 57,
      "start": 6.1041,
      "duration": 0.009,
      "velocity": 90,
      "chip": "ym2612"
    },
    {
      "channel": 2,
      "note": 69,
      "start": 6.1043,
      "duration": 0.0092,
      "velocity": 106,
      "chip": "ym2612"
    },
    {
      "channel": 3,
      "note": 64,
      "start": 6.1046,
      "duration": 0.0092,
      "velocity": 106,
      "chip": "ym2612"
    },
    {
      "channel": 0,
      "note": 58,
      "start": 6.1134,
      "duration": 0.1334,
      "velocity": 90,
      "chip": "ym2612"
    },
    {
      "channel": 2,
      "note": 65,
      "start": 6.1137,
      "duration": 0.1343,
      "velocity": 106,
      "chip": "ym2612"
    },
    {
      "channel": 3,
      "note": 58,
      "start": 6.1139,
      "duration": 0.1343,
      "velocity": 106,
      "chip": "ym2612"
    },
    {
      "channel": 0,
      "note": 62,
      "start": 6.2471,
      "duration": 0.1277,
      "velocity": 90,
      "chip": "ym2612"
    },
    {
      "channel": 2,
      "note": 62,
      "start": 6.2481,
      "duration": 0.4034,
      "velocity": 106,
      "chip": "ym2612"
    },
    {
      "channel": 3,
      "note": 57,
      "start": 6.2483,
      "duration": 0.4034,
      "velocity": 106,
      "chip": "ym2612"
    },
    {
      "channel": 0,
      "note": 62,
      "start": 6.375,
      "duration": 0.1267,
      "velocity": 90,
      "chip": "ym2612"
    },
    {
      "channel": 1,
      "note": 86,
      "start": 6.3752,
      "duration": 0.1268,
      "velocity": 109,
      "chip": "ym2612"
    },
    {
      "channel": 4,
      "note": 86,
      "start": 6.3828,
      "duration": 0.1292,
      "velocity": 109,
      "chip": "ym2612"
    },
    {
      "channel": 0,
      "note": 62,
      "start": 6.5019,
      "duration": 0.03,
      "velocity": 90,
      "chip": "ym2612"
    },
    {
      "channel": 1,
      "note": 86,
      "start": 6.5022,
      "duration": 0.1491,
      "velocity": 109,
      "chip": "ym2612"
    },
    {
      "channel": 4,
      "note": 86,
      "start": 6.5121,
      "duration": 0.1474,
      "velocity": 109,
      "chip": "ym2612"
    },
    {
      "channel": 0,
      "note": 57,
      "start": 6.5322,
      "duration": 0.1188,
      "velocity": 90,
      "chip": "ym2612"
    },
    {
      "channel": 0,
      "note": 62,
      "start": 6.6512,
      "duration": 0.0079,
      "velocity": 90,
      "chip": "ym2612"
    },
    {
      "channel": 1,
      "note": 86,
      "start": 6.6514,
      "duration": 0.1268,
      "velocity": 109,
      "chip": "ym2612"
    },
    {
      "channel": 2,
      "note": 62,
      "start": 6.6515,
      "duration": 0.2752,
      "velocity": 106,
      "chip": "ym2612"
    },
    {
      "channel": 3,
      "note": 57,
      "start": 6.6517,
      "duration": 0.2753,
      "velocity": 106,
      "chip": "ym2612"
    },
    {
      "channel": 0,
      "note": 57,
      "start": 6.6593,
      "duration": 0.1186,
      "velocity": 90,
      "chip": "ym2612"
    },
    {
      "channel": 4,
      "note": 86,
      "start": 6.6597,
      "duration": 0.1282,
      "velocity": 109,
      "chip": "ym2612"
    },
    {
      "channel": 0,
      "note": 62,
      "start": 6.7782,
      "duration": 0.1283,
      "velocity": 90,
      "chip": "ym2612"
    },
    {
      "channel": 1,
      "note": 86,
      "start": 6.7783,
      "duration": 0.1481,
      "velocity": 109,
      "chip": "ym2612"
    },
    {
      "channel": 4,
      "note": 86,
      "start": 6.788,
      "duration": 0.1487,
      "velocity": 109,
      "chip": "ym2612"
    },
    {
      "channel": 0,
      "note": 62,
      "start": 6.9068,
      "duration": 0.0194,
      "velocity": 90,
      "chip": "ym2612"
    },
    {
      "channel": 0,
      "note": 61,
      "start": 6.9264,
      "duration": 0.1283,
      "velocity": 90,
      "chip": "ym2612"
    },
    {
      "channel": 1,
      "note": 85,
      "start": 6.9266,
      "duration": 0.1283,
      "velocity": 109,
      "chip": "ym2612"
    },
    {
      "channel": 2,
      "note": 61,
      "start": 6.9269,
      "duration": 0.1282,
      "velocity": 106,
      "chip": "ym2612"
    },
    {
      "channel": 3,
      "note": 56,
      "start": 6.9272,
      "duration": 0.1281,
      "velocity": 106,
      "chip": "ym2612"
    },
    {
      "channel": 4,
      "note": 85,
      "start": 6.9369,
      "duration": 0.2513,
      "velocity": 109,
      "chip": "ym2612"
    },
    {
      "channel": 0,
      "note": 58,
      "start": 7.3216,
      "duration": 0.1433,
      "velocity": 90,
      "chip": "ym2612"
    },
    {
      "channel": 2,
      "note": 58,
      "start": 7.3218,
      "duration": 0.2866,
      "velocity": 106,
      "chip": "ym2612"
    },
    {
      "channel": 3,
      "note": 53,
      "start": 7.3221,
      "duration": 0.2865,
      "velocity": 106,
      "chip": "ym2612"
    },
    {
      "channel": 0,
      "note": 58,
      "start": 7.4652,
      "duration": 0.0145,
      "velocity": 90,
      "chip": "ym2612"
    },
    {
      "channel": 1,
      "note": 82,
      "start": 7.4654,
      "duration": 0.0146,
      "velocity": 109,
      "chip": "ym2612"
    },
    {
      "channel": 4,
      "note": 82,
      "start": 7.4722,
      "duration": 0.0171,
      "velocity": 109,
      "chip": "ym2612"
    },
    {
      "channel": 0,
      "note": 58,
      "start": 7.48,
      "duration": 0.1278,
      "velocity": 90,
      "chip": "ym2612"
    },
    {
      "channel": 1,
      "note": 82,
      "start": 7.4801,
      "duration": 0.128,
      "velocity": 109,
      "chip": "ym2612"
    },
    {
      "channel": 4,
      "note": 82,
      "start": 7.4894,
      "duration": 0.1284,
      "velocity": 109,
      "chip": "ym2612"
    },
    {
      "channel": 0,
      "note": 58,
      "start": 7.608,
      "duration": 0.1281,
      "velocity": 90,
      "chip": "ym2612"
    },
    {
      "channel": 1,
      "note": 82,
      "start": 7.6082,
      "duration": 0.29,
      "velocity": 109,
      "chip": "ym2612"
    },
    {
      "channel": 2,
      "note": 58,
      "start": 7.6084,
      "duration": 0.3073,
      "velocity": 106,
      "chip": "ym2612"
    },
    {
      "channel": 3,
      "note": 53,
      "start": 7.6086,
      "duration": 0.3073,
      "velocity": 106,
      "chip": "ym2612"
    },
    {
      "channel": 4,
      "note": 82,
      "start": 7.6179,
      "duration": 0.2896,
      "velocity": 109,
      "chip": "ym2612"
    },
    {
      "channel": 0,
      "note": 58,
      "start": 7.7364,
      "duration": 0.1448,
      "velocity": 90,
      "chip": "ym2612"
    },
    {
      "channel": 0,
      "note": 60,
      "start": 7.8815,
      "duration": 0.0165,
      "velocity": 90,
      "chip": "ym2612"
    },
    {
      "channel": 0,
      "note": 58,
      "start": 7.8981,
      "duration": 0.017,
      "velocity": 90,
      "chip": "ym2612"
    },
    {
      "channel": 1,
      "note": 82,
      "start": 7.8983,
      "duration": 0.0089,
      "velocity": 109,
      "chip": "ym2612"
    },
    {
      "channel": 1,
      "note": 88,
      "start": 7.9074,
      "duration": 0.0083,
      "velocity": 109,
      "chip": "ym2612"
    },
    {
      "channel": 4,
      "note": 82,
      "start": 7.9077,
      "duration": 0.0085,
      "velocity": 109,
      "chip": "ym2612"
    },
    {
      "channel": 0,
      "note": 64,
      "start": 7.9154,
      "duration": 0.0096,
      "velocity": 90,
      "chip": "ym2612"
    },
    {
      "channel": 1,
      "note": 88,
      "start": 7.9156,
      "duration": 0.0755,
      "velocity": 109,
      "chip": "ym2612"
    },
    {
      "channel": 2,
      "note": 58,
      "start": 7.9158,
      "duration": 0.0051,
      "velocity": 106,
      "chip": "ym2612"
    },
    {
      "channel": 3,
      "note": 59,
      "start": 7.9161,
      "duration": 0.0755,
      "velocity": 106,
      "chip": "ym2612"
    },
    {
      "channel": 4,
      "note": 88,
      "start": 7.9163,
      "duration": 0.0094,
      "velocity": 109,
      "chip": "ym2612"
    },
    {
      "channel": 2,
      "note": 64,
      "start": 7.921,
      "duration": 0.0704,
      "velocity": 106,
      "chip": "ym2612"
    },
    {
      "channel": 0,
      "note": 64,
      "start": 7.9252,
      "duration": 0.009,
      "velocity": 90,
      "chip": "ym2612"
    },
    {
      "channel": 4,
      "note": 88,
      "start": 7.9257,
      "duration": 0.0748,
      "velocity": 109,
      "chip": "ym2612"
    },
    {
      "channel": 0,
      "note": 64,
      "start": 7.9345,
      "duration": 0.0073,
      "velocity": 90,
      "chip": "ym2612"
    },
    {
      "channel": 0,
      "note": 59,
      "start": 7.9419,
      "duration": 0.0115,
      "velocity": 90,
      "chip": "ym2612"
    },
    {
      "channel": 0,
      "note": 64,
      "start": 7.9536,
      "duration": 0.0084,
      "velocity": 90,
      "chip": "ym2612"
    },
    {
      "channel": 0,
      "note": 64,
      "start": 7.9623,
      "duration": 0.0088,
      "velocity": 90,
      "chip": "ym2612"
    },
    {
      "channel": 0,
      "note": 64,
      "start": 7.9713,
      "duration": 0.0088,
      "velocity": 90,
      "chip": "ym2612"
    },
    {
      "channel": 0,
      "note": 59,
      "start": 7.9803,
      "duration": 0.0105,
      "velocity": 90,
      "chip": "ym2612"
    },
    {
      "channel": 0,
      "note": 64,
      "start": 7.991,
      "duration": 0.0088,
      "velocity": 90,
      "chip": "ym2612"
    },
    {
      "channel": 1,
      "note": 88,
      "start": 7.9912,
      "duration": 0.0763,
      "velocity": 109,
      "chip": "ym2612"
    },
    {
      "channel": 2,
      "note": 64,
      "start": 7.9914,
      "duration": 0.0764,
      "velocity": 106,
      "chip": "ym2612"
    },
    {
      "channel": 3,
      "note": 59,
      "start": 7.9916,
      "duration": 0.0764,
      "velocity": 106,
      "chip": "ym2612"
    },
    {
      "channel": 0,
      "note": 64,
      "start": 8.0001,
      "duration": 0.009,
      "velocity": 90,
      "chip": "ym2612"
    },
    {
      "channel": 4,
      "note": 88,
      "start": 8.0005,
      "duration": 0.0772,
      "velocity": 109,
      "chip": "ym2612"
    },
    {
      "channel": 0,
      "note": 64,
      "start": 8.0093,
      "duration": 0.0073,
      "velocity": 90,
      "chip": "ym2612"
    },
    {
      "channel": 0,
      "note": 59,
      "start": 8.0168,
      "duration": 0.0114,
      "velocity": 90,
      "chip": "ym2612"
    },
    {
      "channel": 0,
      "note": 64,
      "start": 8.0283,
      "duration": 0.0089,
      "velocity": 90,
      "chip": "ym2612"
    },
    {
      "channel": 0,
      "note": 64,
      "start": 8.0375,
      "duration": 0.01,
      "velocity": 90,
      "chip": "ym2612"
    },
    {
      "channel": 0,
      "note": 64,
      "start": 8.0477,
      "duration": 0.0088,
      "velocity": 90,
      "chip": "ym2612"
    },
    {
      "channel": 0,
      "note": 59,
      "start": 8.0567,
      "duration": 0.0105,
      "velocity": 90,
      "chip": "ym2612"
    },
    {
      "channel": 0,
      "note": 64,
      "start": 8.0674,
      "duration": 0.0096,
      "velocity": 90,
      "chip": "ym2612"
    },
    {
      "channel": 1,
      "note": 79,
      "start": 8.0676,
      "duration": 0.0048,
      "velocity": 109,
      "chip": "ym2612"
    },
    {
      "channel": 2,
      "note": 64,
      "start": 8.0678,
      "duration": 0.0727,
      "velocity": 106,
      "chip": "ym2612"
    },
    {
      "channel": 3,
      "note": 59,
      "start": 8.068,
      "duration": 0.0727,
      "velocity": 106,
      "chip": "ym2612"
    },
    {
      "channel": 1,
      "note": 83,
      "start": 8.0726,
      "duration": 0.0047,
      "velocity": 109,
      "chip": "ym2612"
    },
    {
      "channel": 0,
      "note": 59,
      "start": 8.0773,
      "duration": 0.0077,
      "velocity": 90,
      "chip": "ym2612"
    },
    {
      "channel": 1,
      "note": 88,
      "start": 8.0775,
      "duration": 0.0038,
      "velocity": 109,
      "chip": "ym2612"
    },
    {
      "channel": 4,
      "note": 79,
      "start": 8.0779,
      "duration": 0.0037,
      "velocity": 109,
      "chip": "ym2612"
    },
    {
      "channel": 1,
      "note": 83,
      "start": 8.0815,
      "duration": 0.0038,
      "velocity": 109,
      "chip": "ym2612"
    },
    {
      "channel": 4,
      "note": 83,
      "start": 8.0819,
      "duration": 0.0037,
      "velocity": 109,
      "chip": "ym2612"
    },
    {
      "channel": 0,
      "note": 64,
      "start": 8.0852,
      "duration": 0.0082,
      "velocity": 90,
      "chip": "ym2612"
    },
    {
      "channel": 1,
      "note": 79,
      "start": 8.0854,
      "duration": 0.0037,
      "velocity": 109,
      "chip": "ym2612"
    },
    {
      "channel": 4,
      "note": 88,
      "start": 8.0858,
      "duration": 0.0036,
      "velocity": 109,
      "chip": "ym2612"
    },
    {
      "channel": 1,
      "note": 83,
      "start": 8.0892,
      "duration": 0.0044,
      "velocity": 109,
      "chip": "ym2612"
    },
    {
      "channel": 4,
      "note": 83,
      "start": 8.0896,
      "duration": 0.0044,
      "velocity": 109,
      "chip": "ym2612"
    },
    {
      "channel": 0,
      "note": 59,
      "start": 8.0935,
      "duration": 0.0108,
      "velocity": 90,
      "chip": "ym2612"
    },
    {
      "channel": 1,
      "note": 88,
      "start": 8.0938,
      "duration": 0.0051,
      "velocity": 109,
      "chip": "ym2612"
    },
    {
      "channel": 4,
      "note": 79,
      "start": 8.0941,
      "duration": 0.0051,
      "velocity": 109,
      "chip": "ym2612"
    },
    {
      "channel": 1,
      "note": 83,
      "start": 8.0991,
      "duration": 0.0056,
      "velocity": 109,
      "chip": "ym2612"
    },
    {
      "channel": 4,
      "note": 83,
      "start": 8.0994,
      "duration": 0.0056,
      "velocity": 109,
      "chip": "ym2612"
    },
    {
      "channel": 0,
      "note": 64,
      "start": 8.1046,
      "duration": 0.0081,
      "velocity": 90,
      "chip": "ym2612"
    },
    {
      "channel": 1,
      "note": 79,
      "start": 8.1048,
      "duration": 0.0038,
      "velocity": 109,
      "chip": "ym2612"
    },
    {
      "channel": 4,
      "note": 88,
      "start": 8.1052,
      "duration": 0.0037,
      "velocity": 109,
      "chip": "ym2612"
    },
    {
      "channel": 1,
      "note": 83,
      "start": 8.1087,
      "duration": 0.0042,
      "velocity": 109,
      "chip": "ym2612"
    },
    {
      "channel": 4,
      "note": 83,
      "start": 8.1091,
      "duration": 0.0042,
      "velocity": 109,
      "chip": "ym2612"
    },
    {
      "channel": 0,
      "note": 59,
      "start": 8.1129,
      "duration": 0.0098,
      "velocity": 90,
      "chip": "ym2612"
    },
    {
      "channel": 1,
      "note": 88,
      "start": 8.1132,
      "duration": 0.0048,
      "velocity": 109,
      "chip": "ym2612"
    },
    {
      "channel": 4,
      "note": 79,
      "start": 8.1135,
      "duration": 0.0049,
      "velocity": 109,
      "chip": "ym2612"
    },
    {
      "channel": 1,
      "note": 83,
      "start": 8.1181,
      "duration": 0.0049,
      "velocity": 109,
      "chip": "ym2612"
    },
    {
      "channel": 4,
      "note": 83,
      "start": 8.1185,
      "duration": 0.0049,
      "velocity": 109,
      "chip": "ym2612"
    },
    {
      "channel": 0,
      "note": 64,
      "start": 8.1229,
      "duration": 0.0081,
      "velocity": 90,
      "chip": "ym2612"
    },
    {
      "channel": 1,
      "note": 79,
      "start": 8.1232,
      "duration": 0.0037,
      "velocity": 109,
      "chip": "ym2612"
    },
    {
      "channel": 4,
      "note": 88,
      "start": 8.1235,
      "duration": 0.0036,
      "velocity": 109,
      "chip": "ym2612"
    },
    {
      "channel": 1,
      "note": 83,
      "start": 8.127,
      "duration": 0.0044,
      "velocity": 109,
      "chip": "ym2612"
    },
    {
      "channel": 4,
      "note": 83,
      "start": 8.1273,
      "duration": 0.0043,
      "velocity": 109,
      "chip": "ym2612"
    },
    {
      "channel": 0,
      "note": 59,
      "start": 8.1312,
      "duration": 0.0086,
      "velocity": 90,
      "chip": "ym2612"
    },
    {
      "channel": 1,
      "note": 88,
      "start": 8.1315,
      "duration": 0.0043,
      "velocity": 109,
      "chip": "ym2612"
    },
    {
      "channel": 4,
      "note": 79,
      "start": 8.1318,
      "duration": 0.0044,
      "velocity": 109,
      "chip": "ym2612"
    },
    {
      "channel": 1,
      "note": 83,
      "start": 8.1359,
      "duration": 0.0043,
      "velocity": 109,
      "chip": "ym2612"
    },
    {
      "channel": 4,
      "note": 83,
      "start": 8.1363,
      "duration": 0.0045,
      "velocity": 109,
      "chip": "ym2612"
    },
    {
      "channel": 0,
      "note": 64,
      "start": 8.1401,
      "duration": 0.0077,
      "velocity": 90,
      "chip": "ym2612"
    },
    {
      "channel": 1,
      "note": 89,
      "start": 8.1404,
      "duration": 0.0038,
      "velocity": 109,
      "chip": "ym2612"
    },
    {
      "channel": 2,
      "note": 64,
      "start": 8.1406,
      "duration": 0.0737,
      "velocity": 106,
      "chip": "ym2612"
    },
    {
      "channel": 3,
      "note": 59,
      "start": 8.1407,
      "duration": 0.0738,
      "velocity": 106,
      "chip": "ym2612"
    },
    {
      "channel": 4,
      "note": 88,
      "start": 8.1409,
      "duration": 0.0035,
      "velocity": 109,
      "chip": "ym2612"
    },
    {
      "channel": 1,
      "note": 79,
      "start": 8.1443,
      "duration": 0.0038,
      "velocity": 109,
      "chip": "ym2612"
    },
    {
      "channel": 4,
      "note": 83,
      "start": 8.1447,
      "duration": 0.0038,
      "velocity": 109,
      "chip": "ym2612"
    },
    {
      "channel": 0,
      "note": 59,
      "start": 8.148,
      "duration": 0.0105,
      "velocity": 90,
      "chip": "ym2612"
    },
    {
      "channel": 1,
      "note": 83,
      "start": 8.1483,
      "duration": 0.0047,
      "velocity": 109,
      "chip": "ym2612"
    },
    {
      "channel": 4,
      "note": 89,
      "start": 8.1487,
      "duration": 0.0047,
      "velocity": 109,
      "chip": "ym2612"
    },
    {
      "channel": 1,
      "note": 79,
      "start": 8.1532,
      "duration": 0.0057,
      "velocity": 109,
      "chip": "ym2612"
    },
    {
      "channel": 4,
      "note": 79,
      "start": 8.1535,
      "duration": 0.0056,
      "velocity": 109,
      "chip": "ym2612"
    },
    {
      "channel": 0,
      "note": 64,
      "start": 8.1588,
      "duration": 0.0085,
      "velocity": 90,
      "chip": "ym2612"
    },
    {
      "channel": 1,
      "note": 88,
      "start": 8.159,
      "duration": 0.0042,
      "velocity": 109,
      "chip": "ym2612"
    },
    {
      "channel": 4,
      "note": 83,
      "start": 8.1592,
      "duration": 0.0043,
      "velocity": 109,
      "chip": "ym2612"
    },
    {
      "channel": 1,
      "note": 79,
      "start": 8.1633,
      "duration": 0.0042,
      "velocity": 109,
      "chip": "ym2612"
    },
    {
      "channel": 4,
      "note": 79,
      "start": 8.1637,
      "duration": 0.0041,
      "velocity": 109,
      "chip": "ym2612"
    },
    {
      "channel": 0,
      "note": 59,
      "start": 8.1675,
      "duration": 0.0114,
      "velocity": 90,
      "chip": "ym2612"
    },
    {
      "channel": 1,
      "note": 83,
      "start": 8.1677,
      "duration": 0.0059,
      "velocity": 109,
      "chip": "ym2612"
    },
    {
      "channel": 4,
      "note": 88,
      "start": 8.168,
      "duration": 0.0059,
      "velocity": 109,
      "chip": "ym2612"
    },
    {
      "channel": 1,
      "note": 79,
      "start": 8.1738,
      "duration": 0.0054,
      "velocity": 109,
      "chip": "ym2612"
    },
    {
      "channel": 4,
      "note": 79,
      "start": 8.1741,
      "duration": 0.0054,
      "velocity": 109,
      "chip": "ym2612"
    },
    {
      "channel": 0,
      "note": 64,
      "start": 8.1791,
      "duration": 0.0081,
      "velocity": 90,
      "chip": "ym2612"
    },
    {
      "channel": 1,
      "note": 89,
      "start": 8.1794,
      "duration": 0.0037,
      "velocity": 109,
      "chip": "ym2612"
    },
    {
      "channel": 4,
      "note": 83,
      "start": 8.1797,
      "duration": 0.0036,
      "velocity": 109,
      "chip": "ym2612"
    },
    {
      "channel": 1,
      "note": 79,
      "start": 8.1832,
      "duration": 0.0043,
      "velocity": 109,
      "chip": "ym2612"
    },
    {
      "channel": 4,
      "note": 79,
      "start": 8.1836,
      "duration": 0.0043,
      "velocity": 109,
      "chip": "ym2612"
    },
    {
      "channel": 0,
      "note": 59,
      "start": 8.1875,
      "duration": 0.01,
      "velocity": 90,
      "chip": "ym2612"
    },
    {
      "channel": 1,
      "note": 83,
      "start": 8.1877,
      "duration": 0.0048,
      "velocity": 109,
      "chip": "ym2612"
    },
    {
      "channel": 4,
      "note": 89,
      "start": 8.1881,
      "duration": 0.0048,
      "velocity": 109,
      "chip": "ym2612"
    },
    {
      "channel": 1,
      "note": 79,
      "start": 8.1927,
      "duration": 0.0051,
      "velocity": 109,
      "chip": "ym2612"
    },
    {
      "channel": 4,
      "note": 79,
      "start": 8.193,
      "duration": 0.0051,
      "velocity": 109,
      "chip": "ym2612"
    },
    {
      "channel": 0,
      "note": 64,
      "start": 8.1977,
      "duration": 0.008,
      "velocity": 90,
      "chip": "ym2612"
    },
    {
      "channel": 1,
      "note": 88,
      "start": 8.1978,
      "duration": 0.0036,
      "velocity": 109,
      "chip": "ym2612"
    },
    {
      "channel": 4,
      "note": 83,
      "start": 8.1982,
      "duration": 0.0035,
      "velocity": 109,
      "chip": "ym2612"
    },
    {
      "channel": 1,
      "note": 79,
      "start": 8.2016,
      "duration": 0.0043,
      "velocity": 109,
      "chip": "ym2612"
    },
    {
      "channel": 4,
      "note": 79,
      "start": 8.2019,
      "duration": 0.0043,
      "velocity": 109,
      "chip": "ym2612"
    },
    {
      "channel": 0,
      "note": 59,
      "start": 8.2058,
      "duration": 0.0079,
      "velocity": 90,
      "chip": "ym2612"
    },
    {
      "channel": 1,
      "note": 83,
      "start": 8.2061,
      "duration": 0.004,
      "velocity": 109,
      "chip": "ym2612"
    },
    {
      "channel": 4,
      "note": 88,
      "start": 8.2064,
      "duration": 0.0039,
      "velocity": 109,
      "chip": "ym2612"
    },
    {
      "channel": 1,
      "note": 79,
      "start": 8.2102,
      "duration": 0.0038,
      "velocity": 109,
      "chip": "ym2612"
    },
    {
      "channel": 4,
      "note": 79,
      "start": 8.2106,
      "duration": 0.0039,
      "velocity": 109,
      "chip": "ym2612"
    },
    {
      "channel": 0,
      "note": 64,
      "start": 8.2139,
      "duration": 0.0081,
      "velocity": 90,
      "chip": "ym2612"
    },
    {
      "channel": 1,
      "note": 79,
      "start": 8.2142,
      "duration": 0.0041,
      "velocity": 109,
      "chip": "ym2612"
    },
    {
      "channel": 2,
      "note": 64,
      "start": 8.2143,
      "duration": 0.0703,
      "velocity": 106,
      "chip": "ym2612"
    },
    {
      "channel": 3,
      "note": 59,
      "start": 8.2145,
      "duration": 0.0703,
      "velocity": 106,
      "chip": "ym2612"
    },
    {
      "channel": 4,
      "note": 83,
      "start": 8.2148,
      "duration": 0.0038,
      "velocity": 109,
      "chip": "ym2612"
    },
    {
      "channel": 1,
      "note": 83,
      "start": 8.2185,
      "duration": 0.0039,
      "velocity": 109,
      "chip": "ym2612"
    },
    {
      "channel": 4,
      "note": 79,
      "start": 8.2189,
      "duration": 0.0038,
      "velocity": 109,
      "chip": "ym2612"
    },
    {
      "channel": 0,
      "note": 64,
      "start": 8.2223,
      "duration": 0.0096,
      "velocity": 90,
      "chip": "ym2612"
    },
    {
      "channel": 1,
      "note": 88,
      "start": 8.2225,
      "duration": 0.0047,
      "velocity": 109,
      "chip": "ym2612"
    },
    {
      "channel": 4,
      "note": 79,
      "start": 8.2229,
      "duration": 0.0048,
      "velocity": 109,
      "chip": "ym2612"
    },
    {
      "channel": 1,
      "note": 83,
      "start": 8.2274,
      "duration": 0.0047,
      "velocity": 109,
      "chip": "ym2612"
    },
    {
      "channel": 4,
      "note": 83,
      "start": 8.2278,
      "duration": 0.0047,
      "velocity": 109,
      "chip": "ym2612"
    },
    {
      "channel": 0,
      "note": 64,
      "start": 8.2321,
      "duration": 0.0081,
      "velocity": 90,
      "chip": "ym2612"
    },
    {
      "channel": 1,
      "note": 79,
      "start": 8.2323,
      "duration": 0.0037,
      "velocity": 109,
      "chip": "ym2612"
    },
    {
      "channel": 4,
      "note": 88,
      "start": 8.2326,
      "duration": 0.0036,
      "velocity": 109,
      "chip": "ym2612"
    },
    {
      "channel": 1,
      "note": 83,
      "start": 8.2361,
      "duration": 0.0044,
      "velocity": 109,
      "chip": "ym2612"
    },
    {
      "channel": 4,
      "note": 83,
      "start": 8.2364,
      "duration": 0.0044,
      "velocity": 109,
      "chip": "ym2612"
    },
    {
      "channel": 0,
      "note": 59,
      "start": 8.2404,
      "duration": 0.009,
      "velocity": 90,
      "chip": "ym2612"
    },
    {
      "channel": 1,
      "note": 88,
      "start": 8.2407,
      "duration": 0.0047,
      "velocity": 109,
      "chip": "ym2612"
    },
    {
      "channel": 4,
      "note": 79,
      "start": 8.241,
      "duration": 0.0046,
      "velocity": 109,
      "chip": "ym2612"
    },
    {
      "channel": 1,
      "note": 83,
      "start": 8.2455,
      "duration": 0.0042,
      "velocity": 109,
      "chip": "ym2612"
    },
    {
      "channel": 4,
      "note": 83,
      "start": 8.2459,
      "duration": 0.0042,
      "velocity": 109,
      "chip": "ym2612"
    },
    {
      "channel": 0,
      "note": 64,
      "start": 8.2496,
      "duration": 0.0081,
      "velocity": 90,
      "chip": "ym2612"
    },
    {
      "channel": 1,
      "note": 79,
      "start": 8.2499,
      "duration": 0.0038,
      "velocity": 109,
      "chip": "ym2612"
    },
    {
      "channel": 4,
      "note": 88,
      "start": 8.2502,
      "duration": 0.0037,
      "velocity": 109,
      "chip": "ym2612"
    },
    {
      "channel": 1,
      "note": 83,
      "start": 8.2537,
      "duration": 0.0042,
      "velocity": 109,
      "chip": "ym2612"
    },
    {
      "channel": 4,
      "note": 83,
      "start": 8.2541,
      "duration": 0.0042,
      "velocity": 109,
      "chip": "ym2612"
    },
    {
      "channel": 0,
      "note": 64,
      "start": 8.2579,
      "duration": 0.0098,
      "velocity": 90,
      "chip": "ym2612"
    },
    {
      "channel": 1,
      "note": 88,
      "start": 8.2582,
      "duration": 0.0048,
      "velocity": 109,
      "chip": "ym2612"
    },
    {
      "channel": 4,
      "note": 79,
      "start": 8.2585,
      "duration": 0.0049,
      "velocity": 109,
      "chip": "ym2612"
    },
    {
      "channel": 1,
      "note": 83,
      "start": 8.2632,
      "duration": 0.0049,
      "velocity": 109,
      "chip": "ym2612"
    },
    {
      "channel": 4,
      "note": 83,
      "start": 8.2635,
      "duration": 0.0049,
      "velocity": 109,
      "chip": "ym2612"
    },
    {
      "channel": 0,
      "note": 64,
      "start": 8.268,
      "duration": 0.008,
      "velocity": 90,
      "chip": "ym2612"
    },
    {
      "channel": 1,
      "note": 79,
      "start": 8.2682,
      "duration": 0.0037,
      "velocity": 109,
      "chip": "ym2612"
    },
    {
      "channel": 4,
      "note": 88,
      "start": 8.2686,
      "duration": 0.0036,
      "velocity": 109,
      "chip": "ym2612"
    },
    {
      "channel": 1,
      "note": 83,
      "start": 8.272,
      "duration": 0.0042,
      "velocity": 109,
      "chip": "ym2612"
    },
    {
      "channel": 4,
      "note": 83,
      "start": 8.2723,
      "duration": 0.0042,
      "velocity": 109,
      "chip": "ym2612"
    },
    {
      "channel": 0,
      "note": 59,
      "start": 8.2761,
      "duration": 0.0079,
      "velocity": 90,
      "chip": "ym2612"
    },
    {
      "channel": 1,
      "note": 88,
      "start": 8.2764,
      "duration": 0.004,
      "velocity": 109,
      "chip": "ym2612"
    },
    {
      "channel": 4,
      "note": 79,
      "start": 8.2767,
      "duration": 0.0039,
      "velocity": 109,
      "chip": "ym2612"
    },
    {
      "channel": 1,
      "note": 83,
      "start": 8.2805,
      "duration": 0.0038,
      "velocity": 109,
      "chip": "ym2612"
    },
    {
      "channel": 4,
      "note": 83,
      "start": 8.281,
      "duration": 0.0039,
      "velocity": 109,
      "chip": "ym2612"
    },
    {
      "channel": 0,
      "note": 64,
      "start": 8.2843,
      "duration": 0.0082,
      "velocity": 90,
      "chip": "ym2612"
    },
    {
      "channel": 1,
      "note": 89,
      "start": 8.2845,
      "duration": 0.0043,
      "velocity": 109,
      "chip": "ym2612"
    },
    {
      "channel": 2,
      "note": 64,
      "start": 8.2846,
      "duration": 0.072,
      "velocity": 106,
      "chip": "ym2612"
    },
    {
      "channel": 3,
      "note": 59,
      "start": 8.2848,
      "duration": 0.072,
      "velocity": 106,
      "chip": "ym2612"
    },
    {
      "channel": 4,
      "note": 88,
      "start": 8.2851,
      "duration": 0.0039,
      "velocity": 109,
      "chip": "ym2612"
    },
    {
      "channel": 1,
      "note": 79,
      "start": 8.2889,
      "duration": 0.0039,
      "velocity": 109,
      "chip": "ym2612"
    },
    {
      "channel": 4,
      "note": 83,
      "start": 8.2893,
      "duration": 0.0038,
      "velocity": 109,
      "chip": "ym2612"
    },
    {
      "channel": 0,
      "note": 64,
      "start": 8.2927,
      "duration": 0.0096,
      "velocity": 90,
      "chip": "ym2612"
    },
    {
      "channel": 1,
      "note": 83,
      "start": 8.293,
      "duration": 0.0047,
      "velocity": 109,
      "chip": "ym2612"
    },
    {
      "channel": 4,
      "note": 89,
      "start": 8.2933,
      "duration": 0.0048,
      "velocity": 109,
      "chip": "ym2612"
    },
    {
      "channel": 1,
      "note": 79,
      "start": 8.2979,
      "duration": 0.0047,
      "velocity": 109,
      "chip": "ym2612"
    },
    {
      "channel": 4,
      "note": 79,
      "start": 8.2982,
      "duration": 0.0047,
      "velocity": 109,
      "chip": "ym2612"
    },
    {
      "channel": 0,
      "note": 64,
      "start": 8.3026,
      "duration": 0.0081,
      "velocity": 90,
      "chip": "ym2612"
    },
    {
      "channel": 1,
      "note": 88,
      "start": 8.3027,
      "duration": 0.0037,
      "velocity": 109,
      "chip": "ym2612"
    },
    {
      "channel": 4,
      "note": 83,
      "start": 8.3031,
      "duration": 0.0036,
      "velocity": 109,
      "chip": "ym2612"
    },
    {
      "channel": 1,
      "note": 79,
      "start": 8.3065,
      "duration": 0.0044,
      "velocity": 109,
      "chip": "ym2612"
    },
    {
      "channel": 4,
      "note": 79,
      "start": 8.3068,
      "duration": 0.0044,
      "velocity": 109,
      "chip": "ym2612"
    },
    {
      "channel": 0,
      "note": 59,
      "start": 8.3108,
      "duration": 0.0103,
      "velocity": 90,
      "chip": "ym2612"
    },
    {
      "channel": 1,
      "note": 83,
      "start": 8.3111,
      "duration": 0.0054,
      "velocity": 109,
      "chip": "ym2612"
    },
    {
      "channel": 4,
      "note": 88,
      "start": 8.3114,
      "duration": 0.0055,
      "velocity": 109,
      "chip": "ym2612"
    },
    {
      "channel": 1,
      "note": 79,
      "start": 8.3166,
      "duration": 0.0048,
      "velocity": 109,
      "chip": "ym2612"
    },
    {
      "channel": 4,
      "note": 79,
      "start": 8.317,
      "duration": 0.0049,
      "velocity": 109,
      "chip": "ym2612"
    },
    {
      "channel": 0,
      "note": 64,
      "start": 8.3214,
      "duration": 0.0082,
      "velocity": 90,
      "chip": "ym2612"
    },
    {
      "channel": 1,
      "note": 89,
      "start": 8.3216,
      "duration": 0.0038,
      "velocity": 109,
      "chip": "ym2612"
    },
    {
      "channel": 4,
      "note": 83,
      "start": 8.3221,
      "duration": 0.0036,
      "velocity": 109,
      "chip": "ym2612"
    },
    {
      "channel": 1,
      "note": 79,
      "start": 8.3256,
      "duration": 0.0043,
      "velocity": 109,
      "chip": "ym2612"
    },
    {
      "channel": 4,
      "note": 79,
      "start": 8.326,
      "duration": 0.0043,
      "velocity": 109,
      "chip": "ym2612"
    },
    {
      "channel": 0,
      "note": 64,
      "start": 8.3298,
      "duration": 0.01,
      "velocity": 90,
      "chip": "ym2612"
    },
    {
      "channel": 1,
      "note": 83,
      "start": 8.3301,
      "duration": 0.0048,
      "velocity": 109,
      "chip": "ym2612"
    },
    {
      "channel": 4,
      "note": 89,
      "start": 8.3304,
      "duration": 0.0048,
      "velocity": 109,
      "chip": "ym2612"
    },
    {
      "channel": 1,
      "note": 79,
      "start": 8.335,
      "duration": 0.0051,
      "velocity": 109,
      "chip": "ym2612"
    },
    {
      "channel": 4,
      "note": 79,
      "start": 8.3353,
      "duration": 0.0051,
      "velocity": 109,
      "chip": "ym2612"
    },
    {
      "channel": 0,
      "note": 64,
      "start": 8.34,
      "duration": 0.008,
      "velocity": 90,
      "chip": "ym2612"
    },
    {
      "channel": 1,
      "note": 88,
      "start": 8.3402,
      "duration": 0.0036,
      "velocity": 109,
      "chip": "ym2612"
    },
    {
      "channel": 4,
      "note": 83,
      "start": 8.3405,
      "duration": 0.0035,
      "velocity": 109,
      "chip": "ym2612"
    },
    {
      "channel": 1,
      "note": 79,
      "start": 8.3439,
      "duration": 0.0043,
      "velocity": 109,
      "chip": "ym2612"
    },
    {
      "channel": 4,
      "note": 79,
      "start": 8.3442,
      "duration": 0.0043,
      "velocity": 109,
      "chip": "ym2612"
    },
    {
      "channel": 0,
      "note": 59,
      "start": 8.3482,
      "duration": 0.0079,
      "velocity": 90,
      "chip": "ym2612"
    },
    {
      "channel": 1,
      "note": 83,
      "start": 8.3484,
      "duration": 0.004,
      "velocity": 109,
      "chip": "ym2612"
    },
    {
      "channel": 4,
      "note": 88,
      "start": 8.3488,
      "duration": 0.0039,
      "velocity": 109,
      "chip": "ym2612"
    },
    {
      "channel": 1,
      "note": 79,
      "start": 8.3526,
      "duration": 0.0038,
      "velocity": 109,
      "chip": "ym2612"
    },
    {
      "channel": 4,
      "note": 79,
      "start": 8.353,
      "duration": 0.0039,
      "velocity": 109,
      "chip": "ym2612"
    },
    {
      "channel": 0,
      "note": 64,
      "start": 8.3563,
      "duration": 0.0081,
      "velocity": 90,
      "chip": "ym2612"
    },
    {
      "channel": 1,
      "note": 79,
      "start": 8.3566,
      "duration": 0.0042,
      "velocity": 109,
      "chip": "ym2612"
    },
    {
      "channel": 2,
      "note": 64,
      "start": 8.3567,
      "duration": 0.0737,
      "velocity": 106,
      "chip": "ym2612"
    },
    {
      "channel": 3,
      "note": 59,
      "start": 8.3568,
      "duration": 0.0737,
      "velocity": 106,
      "chip": "ym2612"
    },
    {
      "channel": 4,
      "note": 83,
      "start": 8.3571,
      "duration": 0.0038,
      "velocity": 109,
      "chip": "ym2612"
    },
    {
      "channel": 1,
      "note": 83,
      "start": 8.3608,
      "duration": 0.0039,
      "velocity": 109,
      "chip": "ym2612"
    },
    {
      "channel": 4,
      "note": 79,
      "start": 8.3612,
      "duration": 0.0038,
      "velocity": 109,
      "chip": "ym2612"
    },
    {
      "channel": 0,
      "note": 59,
      "start": 8.3646,
      "duration": 0.0096,
      "velocity": 90,
      "chip": "ym2612"
    },
    {
      "channel": 1,
      "note": 88,
      "start": 8.3649,
      "duration": 0.0047,
      "velocity": 109,
      "chip": "ym2612"
    },
    {
      "channel": 4,
      "note": 79,
      "start": 8.3653,
      "duration": 0.0048,
      "velocity": 109,
      "chip": "ym2612"
    },
    {
      "channel": 1,
      "note": 83,
      "start": 8.3698,
      "duration": 0.0047,
      "velocity": 109,
      "chip": "ym2612"
    },
    {
      "channel": 4,
      "note": 83,
      "start": 8.3701,
      "duration": 0.0047,
      "velocity": 109,
      "chip": "ym2612"
    },
    {
      "channel": 0,
      "note": 64,
      "start": 8.3745,
      "duration": 0.0087,
      "velocity": 90,
      "chip": "ym2612"
    },
    {
      "channel": 1,
      "note": 79,
      "start": 8.3746,
      "duration": 0.0037,
      "velocity": 109,
      "chip": "ym2612"
    },
    {
      "channel": 4,
      "note": 88,
      "start": 8.375,
      "duration": 0.0036,
      "velocity": 109,
      "chip": "ym2612"
    },
    {
      "channel": 1,
      "note": 83,
      "start": 8.3784,
      "duration": 0.005,
      "velocity": 109,
      "chip": "ym2612"
    },
    {
      "channel": 4,
      "note": 83,
      "start": 8.3788,
      "duration": 0.0049,
      "velocity": 109,
      "chip": "ym2612"
    },
    {
      "channel": 0,
      "note": 59,
      "start": 8.3833,
      "duration": 0.0099,
      "velocity": 90,
      "chip": "ym2612"
    },
    {
      "channel": 1,
      "note": 88,
      "start": 8.3836,
      "duration": 0.0047,
      "velocity": 109,
      "chip": "ym2612"
    },
    {
      "channel": 4,
      "note": 79,
      "start": 8.3839,
      "duration": 0.0048,
      "velocity": 109,
      "chip": "ym2612"
    },
    {
      "channel": 1,
      "note": 83,
      "start": 8.3885,
      "duration": 0.0051,
      "velocity": 109,
      "chip": "ym2612"
    },
    {
      "channel": 4,
      "note": 83,
      "start": 8.3888,
      "duration": 0.0052,
      "velocity": 109,
      "chip": "ym2612"
    },
    {
      "channel": 0,
      "note": 64,
      "start": 8.3935,
      "duration": 0.01,
      "velocity": 90,
      "chip": "ym2612"
    },
    {
      "channel": 1,
      "note": 79,
      "start": 8.3938,
      "duration": 0.0048,
      "velocity": 109,
      "chip": "ym2612"
    },
    {
      "channel": 4,
      "note": 88,
      "start": 8.3941,
      "duration": 0.0049,
      "velocity": 109,
      "chip": "ym2612"
    },
    {
      "channel": 1,
      "note": 83,
      "start": 8.3987,
      "duration": 0.0051,
      "velocity": 109,
      "chip": "ym2612"
    },
    {
      "channel": 4,
      "note": 83,
      "start": 8.399,
      "duration": 0.0052,
      "velocity": 109,
      "chip": "ym2612"
    },
    {
      "channel": 0,
      "note": 59,
      "start": 8.4038,
      "duration": 0.0098,
      "velocity": 90,
      "chip": "ym2612"
    },
    {
      "channel": 1,
      "note": 88,
      "start": 8.4041,
      "duration": 0.0047,
      "velocity": 109,
      "chip": "ym2612"
    },
    {
      "channel": 4,
      "note": 79,
      "start": 8.4044,
      "duration": 0.0048,
      "velocity": 109,
      "chip": "ym2612"
    },
    {
      "channel": 1,
      "note": 83,
      "start": 8.4089,
      "duration": 0.0049,
      "velocity": 109,
      "chip": "ym2612"
    },
    {
      "channel": 4,
      "note": 83,
      "start": 8.4093,
      "duration": 0.0049,
      "velocity": 109,
      "chip": "ym2612"
    },
    {
      "channel": 0,
      "note": 64,
      "start": 8.4137,
      "duration": 0.008,
      "velocity": 90,
      "chip": "ym2612"
    },
    {
      "channel": 1,
      "note": 79,
      "start": 8.414,
      "duration": 0.0037,
      "velocity": 109,
      "chip": "ym2612"
    },
    {
      "channel": 4,
      "note": 88,
      "start": 8.4144,
      "duration": 0.0036,
      "velocity": 109,
      "chip": "ym2612"
    },
    {
      "channel": 1,
      "note": 83,
      "start": 8.4178,
      "duration": 0.0042,
      "velocity": 109,
      "chip": "ym2612"
    },
    {
      "channel": 4,
      "note": 83,
      "start": 8.4181,
      "duration": 0.0042,
      "velocity": 109,
      "chip": "ym2612"
    },
    {
      "channel": 0,
      "note": 59,
      "start": 8.4219,
      "duration": 0.0079,
      "velocity": 90,
      "chip": "ym2612"
    },
    {
      "channel": 1,
      "note": 88,
      "start": 8.4222,
      "duration": 0.004,
      "velocity": 109,
      "chip": "ym2612"
    },
    {
      "channel": 4,
      "note": 79,
      "start": 8.4225,
      "duration": 0.0039,
      "velocity": 109,
      "chip": "ym2612"
    },
    {
      "channel": 1,
      "note": 83,
      "start": 8.4263,
      "duration": 0.0038,
      "velocity": 109,
      "chip": "ym2612"
    },
    {
      "channel": 4,
      "note": 83,
      "start": 8.4267,
      "duration": 0.0039,
      "velocity": 109,
      "chip": "ym2612"
    },
    {
      "channel": 0,
      "note": 64,
      "start": 8.43,
      "duration": 0.0081,
      "velocity": 90,
      "chip": "ym2612"
    },
    {
      "channel": 1,
      "note": 79,
      "start": 8.4303,
      "duration": 0.0042,
      "velocity": 109,
      "chip": "ym2612"
    },
    {
      "channel": 2,
      "note": 64,
      "start": 8.4304,
      "duration": 0.0754,
      "velocity": 106,
      "chip": "ym2612"
    },
    {
      "channel": 3,
      "note": 59,
      "start": 8.4305,
      "duration": 0.0762,
      "velocity": 106,
      "chip": "ym2612"
    },
    {
      "channel": 4,
      "note": 88,
      "start": 8.4309,
      "duration": 0.0038,
      "velocity": 109,
      "chip": "ym2612"
    },
    {
      "channel": 1,
      "note": 83,
      "start": 8.4346,
      "duration": 0.0039,
      "velocity": 109,
      "chip": "ym2612"
    },
    {
      "channel": 4,
      "note": 83,
      "start": 8.435,
      "duration": 0.0038,
      "velocity": 109,
      "chip": "ym2612"
    },
    {
      "channel": 0,
      "note": 59,
      "start": 8.4383,
      "duration": 0.0096,
      "velocity": 90,
      "chip": "ym2612"
    },
    {
      "channel": 1,
      "note": 88,
      "start": 8.4386,
      "duration": 0.0047,
      "velocity": 109,
      "chip": "ym2612"
    },
    {
      "channel": 4,
      "note": 79,
      "start": 8.439,
      "duration": 0.0047,
      "velocity": 109,
      "chip": "ym2612"
    },
    {
      "channel": 1,
      "note": 83,
      "start": 8.4434,
      "duration": 0.0047,
      "velocity": 109,
      "chip": "ym2612"
    },
    {
      "channel": 4,
      "note": 83,
      "start": 8.4438,
      "duration": 0.0047,
      "velocity": 109,
      "chip": "ym2612"
    },
    {
      "channel": 0,
      "note": 64,
      "start": 8.4481,
      "duration": 0.0089,
      "velocity": 90,
      "chip": "ym2612"
    },
    {
      "channel": 1,
      "note": 79,
      "start": 8.4483,
      "duration": 0.0037,
      "velocity": 109,
      "chip": "ym2612"
    },
    {
      "channel": 4,
      "note": 88,
      "start": 8.4486,
      "duration": 0.0036,
      "velocity": 109,
      "chip": "ym2612"
    },
    {
      "channel": 1,
      "note": 83,
      "start": 8.4521,
      "duration": 0.0052,
      "velocity": 109,
      "chip": "ym2612"
    },
    {
      "channel": 4,
      "note": 83,
      "start": 8.4524,
      "duration": 0.0051,
      "velocity": 109,
      "chip": "ym2612"
    },
    {
      "channel": 0,
      "note": 59,
      "start": 8.4572,
      "duration": 0.0099,
      "velocity": 90,
      "chip": "ym2612"
    },
    {
      "channel": 1,
      "note": 88,
      "start": 8.4574,
      "duration": 0.0047,
      "velocity": 109,
      "chip": "ym2612"
    },
    {
      "channel": 4,
      "note": 79,
      "start": 8.4578,
      "duration": 0.0048,
      "velocity": 109,
      "chip": "ym2612"
    },
    {
      "channel": 1,
      "note": 83,
      "start": 8.4623,
      "duration": 0.0051,
      "velocity": 109,
      "chip": "ym2612"
    },
    {
      "channel": 4,
      "note": 83,
      "start": 8.4627,
      "duration": 0.0052,
      "velocity": 109,
      "chip": "ym2612"
    },
    {
      "channel": 0,
      "note": 64,
      "start": 8.4673,
      "duration": 0.01,
      "velocity": 90,
      "chip": "ym2612"
    },
    {
      "channel": 1,
      "note": 79,
      "start": 8.4676,
      "duration": 0.0048,
      "velocity": 109,
      "chip": "ym2612"
    },
    {
      "channel": 4,
      "note": 88,
      "start": 8.4679,
      "duration": 0.0049,
      "velocity": 109,
      "chip": "ym2612"
    },
    {
      "channel": 1,
      "note": 83,
      "start": 8.4726,
      "duration": 0.0051,
      "velocity": 109,
      "chip": "ym2612"
    },
    {
      "channel": 4,
      "note": 83,
      "start": 8.4729,
      "duration": 0.0052,
      "velocity": 109,
      "chip": "ym2612"
    },
    {
      "channel": 0,
      "note": 59,
      "start": 8.4776,
      "duration": 0.0098,
      "velocity": 90,
      "chip": "ym2612"
    },
    {
      "channel": 1,
      "note": 88,
      "start": 8.4779,
      "duration": 0.0046,
      "velocity": 109,
      "chip": "ym2612"
    },
    {
      "channel": 4,
      "note": 79,
      "start": 8.4782,
      "duration": 0.0047,
      "velocity": 109,
      "chip": "ym2612"
    },
    {
      "channel": 1,
      "note": 83,
      "start": 8.4827,
      "duration": 0.0051,
      "velocity": 109,
      "chip": "ym2612"
    },
    {
      "channel": 4,
      "note": 83,
      "start": 8.483,
      "duration": 0.0051,
      "velocity": 109,
      "chip": "ym2612"
    },
    {
      "channel": 0,
      "note": 64,
      "start": 8.4877,
      "duration": 0.008,
      "velocity": 90,
      "chip": "ym2612"
    },
    {
      "channel": 1,
      "note": 79,
      "start": 8.4878,
      "duration": 0.0036,
      "velocity": 109,
      "chip": "ym2612"
    },
    {
      "channel": 4,
      "note": 88,
      "start": 8.4882,
      "duration": 0.0035,
      "velocity": 109,
      "chip": "ym2612"
    },
    {
      "channel": 1,
      "note": 83,
      "start": 8.4916,
      "duration": 0.0043,
      "velocity": 109,
      "chip": "ym2612"
    },
    {
      "channel": 4,
      "note": 83,
      "start": 8.4919,
      "duration": 0.0043,
      "velocity": 109,
      "chip": "ym2612"
    },
    {
      "channel": 0,
      "note": 59,
      "start": 8.4958,
      "duration": 0.0079,
      "velocity": 90,
      "chip": "ym2612"
    },
    {
      "channel": 1,
      "note": 88,
      "start": 8.4961,
      "duration": 0.004,
      "velocity": 109,
      "chip": "ym2612"
    },
    {
      "channel": 4,
      "note": 79,
      "start": 8.4964,
      "duration": 0.0039,
      "velocity": 109,
      "chip": "ym2612"
    },
    {
      "channel": 1,
      "note": 83,
      "start": 8.5002,
      "duration": 0.0045,
      "velocity": 109,
      "chip": "ym2612"
    },
    {
      "channel": 4,
      "note": 83,
      "start": 8.5006,
      "duration": 0.0064,
      "velocity": 109,
      "chip": "ym2612"
    },
    {
      "channel": 0,
      "note": 57,
      "start": 8.504,
      "duration": 0.0318,
      "velocity": 90,
      "chip": "ym2612"
    },
    {
      "channel": 1,
      "note": 81,
      "start": 8.5049,
      "duration": 0.0781,
      "velocity": 109,
      "chip": "ym2612"
    },
    {
      "channel": 2,
      "note": 64,
      "start": 8.5059,
      "duration": 0.0776,
      "velocity": 106,
      "chip": "ym2612"
    },
    {
      "channel": 3,
      "note": 57,
      "start": 8.5069,
      "duration": 0.0766,
      "velocity": 106,
      "chip": "ym2612"
    },
    {
      "channel": 4,
      "note": 88,
      "start": 8.5072,
      "duration": 0.0053,
      "velocity": 109,
      "chip": "ym2612"
    },
    {
      "channel": 4,
      "note": 83,
      "start": 8.5126,
      "duration": 0.0054,
      "velocity": 109,
      "chip": "ym2612"
    },
    {
      "channel": 4,
      "note": 81,
      "start": 8.5182,
      "duration": 0.0749,
      "velocity": 109,
      "chip": "ym2612"
    },
    {
      "channel": 0,
      "note": 60,
      "start": 8.5361,
      "duration": 0.0288,
      "velocity": 90,
      "chip": "ym2612"
    },
    {
      "channel": 0,
      "note": 57,
      "start": 8.5651,
      "duration": 0.0176,
      "velocity": 90,
      "chip": "ym2612"
    },
    {
      "channel": 0,
      "note": 64,
      "start": 8.5829,
      "duration": 0.0279,
      "velocity": 90,
      "chip": "ym2612"
    },
    {
      "channel": 1,
      "note": 79,
      "start": 8.5832,
      "duration": 36.9145,
      "velocity": 109,
      "chip": "ym2612"
    },
    {
      "channel": 2,
      "note": 64,
      "start": 8.5834,
      "duration": 36.9143,
      "velocity": 106,
      "chip": "ym2612"
    },
    {
      "channel": 3,
      "note": 57,
      "start": 8.5836,
      "duration": 36.9141,
      "velocity": 106,
      "chip": "ym2612"
    },
    {
      "channel": 4,
      "note": 79,
      "start": 8.5932,
      "duration": 36.9045,
      "velocity": 109,
      "chip": "ym2612"
    },
    {
      "channel": 0,
      "note": 60,
      "start": 8.6111,
      "duration": 0.0268,
      "velocity": 90,
      "chip": "ym2612"
    },
    {
      "channel": 0,
      "note": 57,
      "start": 8.6381,
      "duration": 36.8596,
      "velocity": 90,
      "chip": "ym2612"
    }
  ]
}