{
  "track_name": "09 - Section 3 (Special)",
  "duration_sec": 35.991,
  "sample_rate": 44100,
  "note_count": 1560,
  "unique_pitches": 45,
  "pitch_range": 67,
  "avg_note_duration": 0.1135,
  "reconstruction_stats": {
    "notes_reconstructed": 1560,
    "keyon_events": 1560,
    "keyoff_events": 1549,
    "orphan_keyons": 5,
    "unique_pitches": 45,
    "pitch_range": 67,
    "avg_duration_sec": 0.1135
  },
  "metadata": {
    "source": "S\\Slap Fight MD\\09 - Section 3 (Special).vgz"
  },
  "notes": [
    {
      "channel": 0,
      "note": 52,
      "start": 0.0,
      "duration": 0.0985,
      "velocity": 101,
      "chip": "ym2612"
    },
    {
      "channel": 1,
      "note": 52,
      "start": 0.0012,
      "duration": 0.0976,
      "velocity": 94,
      "chip": "ym2612"
    },
    {
      "channel": 2,
      "note": 44,
      "start": 0.0025,
      "duration": 1.197,
      "velocity": 114,
      "chip": "ym2612"
    },
    {
      "channel": 3,
      "note": 56,
      "start": 0.0039,
      "duration": 1.1962,
      "velocity": 114,
      "chip": "ym2612"
    },
    {
      "channel": 4,
      "note": 69,
      "start": 0.0053,
      "duration": 0.094,
      "velocity": 101,
      "chip": "ym2612"
    },
    {
      "channel": 0,
      "note": 59,
      "start": 0.0988,
      "duration": 0.0998,
      "velocity": 101,
      "chip": "ym2612"
    },
    {
      "channel": 1,
      "note": 52,
      "start": 0.099,
      "duration": 0.0999,
      "velocity": 94,
      "chip": "ym2612"
    },
    {
      "channel": 4,
      "note": 76,
      "start": 0.0994,
      "duration": 0.0998,
      "velocity": 101,
      "chip": "ym2612"
    },
    {
      "channel": 0,
      "note": 64,
      "start": 0.1988,
      "duration": 0.0998,
      "velocity": 101,
      "chip": "ym2612"
    },
    {
      "channel": 1,
      "note": 52,
      "start": 0.199,
      "duration": 0.0999,
      "velocity": 94,
      "chip": "ym2612"
    },
    {
      "channel": 4,
      "note": 81,
      "start": 0.1994,
      "duration": 0.0998,
      "velocity": 101,
      "chip": "ym2612"
    },
    {
      "channel": 0,
      "note": 59,
      "start": 0.2988,
      "duration": 0.0998,
      "velocity": 101,
      "chip": "ym2612"
    },
    {
      "channel": 1,
      "note": 52,
      "start": 0.299,
      "duration": 0.1001,
      "velocity": 94,
      "chip": "ym2612"
    },
    {
      "channel": 4,
      "note": 76,
      "start": 0.2994,
      "duration": 0.1001,
      "velocity": 101,
      "chip": "ym2612"
    },
    {
      "channel": 0,
      "note": 52,
      "start": 0.399,
      "duration": 0.0996,
      "velocity": 101,
      "chip": "ym2612"
    },
    {
      "channel": 1,
      "note": 52,
      "start": 0.3992,
      "duration": 0.0996,
      "velocity": 94,
      "chip": "ym2612"
    },
    {
      "channel": 4,
      "note": 69,
      "start": 0.3999,
      "duration": 0.0993,
      "velocity": 101,
      "chip": "ym2612"
    },
    {
      "channel": 0,
      "note": 59,
      "start": 0.4988,
      "duration": 0.0998,
      "velocity": 101,
      "chip": "ym2612"
    },
    {
      "channel": 1,
      "note": 52,
      "start": 0.499,
      "duration": 0.0999,
      "velocity": 94,
      "chip": "ym2612"
    },
    {
      "channel": 4,
      "note": 76,
      "start": 0.4994,
      "duration": 0.0998,
      "velocity": 101,
      "chip": "ym2612"
    },
    {
      "channel": 0,
      "note": 64,
      "start": 0.5988,
      "duration": 0.0998,
      "velocity": 101,
      "chip": "ym2612"
    },
    {
      "channel": 1,
      "note": 52,
      "start": 0.599,
      "duration": 0.0999,
      "velocity": 94,
      "chip": "ym2612"
    },
    {
      "channel": 4,
      "note": 81,
      "start": 0.5994,
      "duration": 0.0998,
      "velocity": 101,
      "chip": "ym2612"
    },
    {
      "channel": 0,
      "note": 59,
      "start": 0.6988,
      "duration": 0.0998,
      "velocity": 101,
      "chip": "ym2612"
    },
    {
      "channel": 1,
      "note": 52,
      "start": 0.699,
      "duration": 0.1001,
      "velocity": 94,
      "chip": "ym2612"
    },
    {
      "channel": 4,
      "note": 76,
      "start": 0.6994,
      "duration": 0.1001,
      "velocity": 101,
      "chip": "ym2612"
    },
    {
      "channel": 0,
      "note": 52,
      "start": 0.799,
      "duration": 0.0996,
      "velocity": 101,
      "chip": "ym2612"
    },
    {
      "channel": 1,
      "note": 64,
      "start": 0.7993,
      "duration": 0.0996,
      "velocity": 94,
      "chip": "ym2612"
    },
    {
      "channel": 4,
      "note": 69,
      "start": 0.8,
      "duration": 0.0993,
      "velocity": 101,
      "chip": "ym2612"
    },
    {
      "channel": 0,
      "note": 59,
      "start": 0.8988,
      "duration": 0.0998,
      "velocity": 101,
      "chip": "ym2612"
    },
    {
      "channel": 1,
      "note": 52,
      "start": 0.899,
      "duration": 0.0998,
      "velocity": 94,
      "chip": "ym2612"
    },
    {
      "channel": 4,
      "note": 76,
      "start": 0.8995,
      "duration": 0.0997,
      "velocity": 101,
      "chip": "ym2612"
    },
    {
      "channel": 0,
      "note": 64,
      "start": 0.9988,
      "duration": 0.0998,
      "velocity": 101,
      "chip": "ym2612"
    },
    {
      "channel": 1,
      "note": 62,
      "start": 0.999,
      "duration": 0.0998,
      "velocity": 94,
      "chip": "ym2612"
    },
    {
      "channel": 4,
      "note": 81,
      "start": 0.9995,
      "duration": 0.0997,
      "velocity": 101,
      "chip": "ym2612"
    },
    {
      "channel": 0,
      "note": 59,
      "start": 1.0988,
      "duration": 0.0951,
      "velocity": 101,
      "chip": "ym2612"
    },
    {
      "channel": 1,
      "note": 64,
      "start": 1.099,
      "duration": 0.1001,
      "velocity": 94,
      "chip": "ym2612"
    },
    {
      "channel": 4,
      "note": 76,
      "start": 1.0995,
      "duration": 0.1011,
      "velocity": 101,
      "chip": "ym2612"
    },
    {
      "channel": 0,
      "note": 50,
      "start": 1.199,
      "duration": 0.0995,
      "velocity": 101,
      "chip": "ym2612"
    },
    {
      "channel": 1,
      "note": 50,
      "start": 1.1995,
      "duration": 0.0994,
      "velocity": 94,
      "chip": "ym2612"
    },
    {
      "channel": 2,
      "note": 42,
      "start": 1.2,
      "duration": 1.1996,
      "velocity": 114,
      "chip": "ym2612"
    },
    {
      "channel": 3,
      "note": 54,
      "start": 1.2005,
      "duration": 1.1995,
      "velocity": 114,
      "chip": "ym2612"
    },
    {
      "channel": 4,
      "note": 67,
      "start": 1.201,
      "duration": 0.0982,
      "velocity": 101,
      "chip": "ym2612"
    },
    {
      "channel": 0,
      "note": 57,
      "start": 1.2988,
      "duration": 0.0998,
      "velocity": 101,
      "chip": "ym2612"
    },
    {
      "channel": 1,
      "note": 50,
      "start": 1.299,
      "duration": 0.0999,
      "velocity": 94,
      "chip": "ym2612"
    },
    {
      "channel": 4,
      "note": 74,
      "start": 1.2994,
      "duration": 0.0998,
      "velocity": 101,
      "chip": "ym2612"
    },
    {
      "channel": 0,
      "note": 62,
      "start": 1.3988,
      "duration": 0.0998,
      "velocity": 101,
      "chip": "ym2612"
    },
    {
      "channel": 1,
      "note": 50,
      "start": 1.399,
      "duration": 0.0999,
      "velocity": 94,
      "chip": "ym2612"
    },
    {
      "channel": 4,
      "note": 79,
      "start": 1.3994,
      "duration": 0.0998,
      "velocity": 101,
      "chip": "ym2612"
    },
    {
      "channel": 0,
      "note": 57,
      "start": 1.4988,
      "duration": 0.0998,
      "velocity": 101,
      "chip": "ym2612"
    },
    {
      "channel": 1,
      "note": 50,
      "start": 1.499,
      "duration": 0.1001,
      "velocity": 94,
      "chip": "ym2612"
    },
    {
      "channel": 4,
      "note": 74,
      "start": 1.4995,
      "duration": 0.1,
      "velocity": 101,
      "chip": "ym2612"
    },
    {
      "channel": 0,
      "note": 50,
      "start": 1.599,
      "duration": 0.0996,
      "velocity": 101,
      "chip": "ym2612"
    },
    {
      "channel": 1,
      "note": 50,
      "start": 1.5992,
      "duration": 0.0996,
      "velocity": 94,
      "chip": "ym2612"
    },
    {
      "channel": 4,
      "note": 67,
      "start": 1.5999,
      "duration": 0.0993,
      "velocity": 101,
      "chip": "ym2612"
    },
    {
      "channel": 0,
      "note": 57,
      "start": 1.6988,
      "duration": 0.0998,
      "velocity": 101,
      "chip": "ym2612"
    },
    {
      "channel": 1,
      "note": 50,
      "start": 1.699,
      "duration": 0.0999,
      "velocity": 94,
      "chip": "ym2612"
    },
    {
      "channel": 4,
      "note": 74,
      "start": 1.6995,
      "duration": 0.0998,
      "velocity": 101,
      "chip": "ym2612"
    },
    {
      "channel": 0,
      "note": 62,
      "start": 1.7988,
      "duration": 0.0998,
      "velocity": 101,
      "chip": "ym2612"
    },
    {
      "channel": 1,
      "note": 50,
      "start": 1.799,
      "duration": 0.0999,
      "velocity": 94,
      "chip": "ym2612"
    },
    {
      "channel": 4,
      "note": 79,
      "start": 1.7994,
      "duration": 0.0998,
      "velocity": 101,
      "chip": "ym2612"
    },
    {
      "channel": 0,
      "note": 57,
      "start": 1.8988,
      "duration": 0.0998,
      "velocity": 101,
      "chip": "ym2612"
    },
    {
      "channel": 1,
      "note": 50,
      "start": 1.899,
      "duration": 0.1001,
      "velocity": 94,
      "chip": "ym2612"
    },
    {
      "channel": 4,
      "note": 74,
      "start": 1.8994,
      "duration": 0.1001,
      "velocity": 101,
      "chip": "ym2612"
    },
    {
      "channel": 0,
      "note": 50,
      "start": 1.999,
      "duration": 0.0996,
      "velocity": 101,
      "chip": "ym2612"
    },
    {
      "channel": 1,
      "note": 62,
      "start": 1.9993,
      "duration": 0.0996,
      "velocity": 94,
      "chip": "ym2612"
    },
    {
      "channel": 4,
      "note": 67,
      "start": 2.0,
      "duration": 0.0993,
      "velocity": 101,
      "chip": "ym2612"
    },
    {
      "channel": 0,
      "note": 57,
      "start": 2.0988,
      "duration": 0.0998,
      "velocity": 101,
      "chip": "ym2612"
    },
    {
      "channel": 1,
      "note": 50,
      "start": 2.099,
      "duration": 0.0998,
      "velocity": 94,
      "chip": "ym2612"
    },
    {
      "channel": 4,
      "note": 74,
      "start": 2.0995,
      "duration": 0.0997,
      "velocity": 101,
      "chip": "ym2612"
    },
    {
      "channel": 0,
      "note": 62,
      "start": 2.1988,
      "duration": 0.0998,
      "velocity": 101,
      "chip": "ym2612"
    },
    {
      "channel": 1,
      "note": 60,
      "start": 2.199,
      "duration": 0.0998,
      "velocity": 94,
      "chip": "ym2612"
    },
    {
      "channel": 4,
      "note": 79,
      "start": 2.1995,
      "duration": 0.0998,
      "velocity": 101,
      "chip": "ym2612"
    },
    {
      "channel": 0,
      "note": 57,
      "start": 2.2988,
      "duration": 0.0998,
      "velocity": 101,
      "chip": "ym2612"
    },
    {
      "channel": 1,
      "note": 62,
      "start": 2.299,
      "duration": 0.1001,
      "velocity": 94,
      "chip": "ym2612"
    },
    {
      "channel": 4,
      "note": 74,
      "start": 2.2995,
      "duration": 0.1018,
      "velocity": 101,
      "chip": "ym2612"
    },
    {
      "channel": 0,
      "note": 55,
      "start": 2.399,
      "duration": 0.0995,
      "velocity": 101,
      "chip": "ym2612"
    },
    {
      "channel": 1,
      "note": 55,
      "start": 2.3995,
      "duration": 0.0994,
      "velocity": 94,
      "chip": "ym2612"
    },
    {
      "channel": 2,
      "note": 47,
      "start": 2.4,
      "duration": 1.1996,
      "velocity": 114,
      "chip": "ym2612"
    },
    {
      "channel": 3,
      "note": 62,
      "start": 2.4012,
      "duration": 0.0309,
      "velocity": 127,
      "chip": "ym2612"
    },
    {
      "channel": 4,
      "note": 72,
      "start": 2.4018,
      "duration": 0.0975,
      "velocity": 101,
      "chip": "ym2612"
    },
    {
      "channel": 3,
      "note": 62,
      "start": 2.4325,
      "duration": 0.033,
      "velocity": 127,
      "chip": "ym2612"
    },
    {
      "channel": 3,
      "note": 62,
      "start": 2.4658,
      "duration": 0.0333,
      "velocity": 127,
      "chip": "ym2612"
    },
    {
      "channel": 0,
      "note": 62,
      "start": 2.4988,
      "duration": 0.0998,
      "velocity": 101,
      "chip": "ym2612"
    },
    {
      "channel": 1,
      "note": 55,
      "start": 2.499,
      "duration": 0.0999,
      "velocity": 94,
      "chip": "ym2612"
    },
    {
      "channel": 3,
      "note": 62,
      "start": 2.4993,
      "duration": 0.0329,
      "velocity": 127,
      "chip": "ym2612"
    },
    {
      "channel": 4,
      "note": 79,
      "start": 2.4995,
      "duration": 0.1,
      "velocity": 101,
      "chip": "ym2612"
    },
    {
      "channel": 3,
      "note": 62,
      "start": 2.5323,
      "duration": 0.0332,
      "velocity": 127,
      "chip": "ym2612"
    },
    {
      "channel": 3,
      "note": 62,
      "start": 2.5656,
      "duration": 0.0335,
      "velocity": 127,
      "chip": "ym2612"
    },
    {
      "channel": 0,
      "note": 67,
      "start": 2.5988,
      "duration": 0.0998,
      "velocity": 101,
      "chip": "ym2612"
    },
    {
      "channel": 1,
      "note": 55,
      "start": 2.599,
      "duration": 0.0999,
      "velocity": 94,
      "chip": "ym2612"
    },
    {
      "channel": 3,
      "note": 62,
      "start": 2.5995,
      "duration": 0.0326,
      "velocity": 127,
      "chip": "ym2612"
    },
    {
      "channel": 4,
      "note": 84,
      "start": 2.5998,
      "duration": 0.0995,
      "velocity": 101,
      "chip": "ym2612"
    },
    {
      "channel": 3,
      "note": 62,
      "start": 2.6323,
      "duration": 0.0332,
      "velocity": 127,
      "chip": "ym2612"
    },
    {
      "channel": 3,
      "note": 62,
      "start": 2.6656,
      "duration": 0.0335,
      "velocity": 127,
      "chip": "ym2612"
    },
    {
      "channel": 0,
      "note": 62,
      "start": 2.6988,
      "duration": 0.0998,
      "velocity": 101,
      "chip": "ym2612"
    },
    {
      "channel": 1,
      "note": 55,
      "start": 2.699,
      "duration": 0.1001,
      "velocity": 94,
      "chip": "ym2612"
    },
    {
      "channel": 3,
      "note": 62,
      "start": 2.6993,
      "duration": 0.0329,
      "velocity": 127,
      "chip": "ym2612"
    },
    {
      "channel": 4,
      "note": 79,
      "start": 2.6995,
      "duration": 0.1003,
      "velocity": 101,
      "chip": "ym2612"
    },
    {
      "channel": 3,
      "note": 62,
      "start": 2.7323,
      "duration": 0.0332,
      "velocity": 127,
      "chip": "ym2612"
    },
    {
      "channel": 3,
      "note": 62,
      "start": 2.7656,
      "duration": 0.0337,
      "velocity": 127,
      "chip": "ym2612"
    },
    {
      "channel": 0,
      "note": 55,
      "start": 2.799,
      "duration": 0.0996,
      "velocity": 101,
      "chip": "ym2612"
    },
    {
      "channel": 1,
      "note": 55,
      "start": 2.7992,
      "duration": 0.0996,
      "velocity": 94,
      "chip": "ym2612"
    },
    {
      "channel": 3,
      "note": 62,
      "start": 2.7998,
      "duration": 0.0324,
      "velocity": 127,
      "chip": "ym2612"
    },
    {
      "channel": 4,
      "note": 72,
      "start": 2.8003,
      "duration": 0.099,
      "velocity": 101,
      "chip": "ym2612"
    },
    {
      "channel": 3,
      "note": 62,
      "start": 2.8323,
      "duration": 0.0332,
      "velocity": 127,
      "chip": "ym2612"
    },
    {
      "channel": 3,
      "note": 62,
      "start": 2.8656,
      "duration": 0.0335,
      "velocity": 127,
      "chip": "ym2612"
    },
    {
      "channel": 0,
      "note": 62,
      "start": 2.8988,
      "duration": 0.0998,
      "velocity": 101,
      "chip": "ym2612"
    },
    {
      "channel": 1,
      "note": 55,
      "start": 2.899,
      "duration": 0.0999,
      "velocity": 94,
      "chip": "ym2612"
    },
    {
      "channel": 3,
      "note": 62,
      "start": 2.8993,
      "duration": 0.0329,
      "velocity": 127,
      "chip": "ym2612"
    },
    {
      "channel": 4,
      "note": 79,
      "start": 2.8995,
      "duration": 0.1,
      "velocity": 101,
      "chip": "ym2612"
    },
    {
      "channel": 3,
      "note": 62,
      "start": 2.9323,
      "duration": 0.0332,
      "velocity": 127,
      "chip": "ym2612"
    },
    {
      "channel": 3,
      "note": 62,
      "start": 2.9656,
      "duration": 0.0335,
      "velocity": 127,
      "chip": "ym2612"
    },
    {
      "channel": 0,
      "note": 67,
      "start": 2.9988,
      "duration": 0.0998,
      "velocity": 101,
      "chip": "ym2612"
    },
    {
      "channel": 1,
      "note": 55,
      "start": 2.999,
      "duration": 0.0999,
      "velocity": 94,
      "chip": "ym2612"
    },
    {
      "channel": 3,
      "note": 62,
      "start": 2.9995,
      "duration": 0.0326,
      "velocity": 127,
      "chip": "ym2612"
    },
    {
      "channel": 4,
      "note": 84,
      "start": 2.9998,
      "duration": 0.0995,
      "velocity": 101,
      "chip": "ym2612"
    },
    {
      "channel": 3,
      "note": 62,
      "start": 3.0323,
      "duration": 0.0332,
      "velocity": 127,
      "chip": "ym2612"
    },
    {
      "channel": 3,
      "note": 62,
      "start": 3.0656,
      "duration": 0.0335,
      "velocity": 127,
      "chip": "ym2612"
    },
    {
      "channel": 0,
      "note": 62,
      "start": 3.0988,
      "duration": 0.0998,
      "velocity": 101,
      "chip": "ym2612"
    },
    {
      "channel": 1,
      "note": 55,
      "start": 3.099,
      "duration": 0.1001,
      "velocity": 94,
      "chip": "ym2612"
    },
    {
      "channel": 3,
      "note": 62,
      "start": 3.0993,
      "duration": 0.0329,
      "velocity": 127,
      "chip": "ym2612"
    },
    {
      "channel": 4,
      "note": 79,
      "start": 3.0995,
      "duration": 0.1004,
      "velocity": 101,
      "chip": "ym2612"
    },
    {
      "channel": 3,
      "note": 62,
      "start": 3.1323,
      "duration": 0.0332,
      "velocity": 127,
      "chip": "ym2612"
    },
    {
      "channel": 3,
      "note": 62,
      "start": 3.1656,
      "duration": 0.0338,
      "velocity": 127,
      "chip": "ym2612"
    },
    {
      "channel": 0,
      "note": 55,
      "start": 3.199,
      "duration": 0.0996,
      "velocity": 101,
      "chip": "ym2612"
    },
    {
      "channel": 1,
      "note": 67,
      "start": 3.1993,
      "duration": 0.0996,
      "velocity": 94,
      "chip": "ym2612"
    },
    {
      "channel": 3,
      "note": 62,
      "start": 3.1998,
      "duration": 0.0324,
      "velocity": 127,
      "chip": "ym2612"
    },
    {
      "channel": 4,
      "note": 72,
      "start": 3.2004,
      "duration": 0.099,
      "velocity": 101,
      "chip": "ym2612"
    },
    {
      "channel": 3,
      "note": 62,
      "start": 3.2323,
      "duration": 0.0332,
      "velocity": 127,
      "chip": "ym2612"
    },
    {
      "channel": 3,
      "note": 62,
      "start": 3.2656,
      "duration": 0.0336,
      "velocity": 127,
      "chip": "ym2612"
    },
    {
      "channel": 0,
      "note": 62,
      "start": 3.2988,
      "duration": 0.0998,
      "velocity": 101,
      "chip": "ym2612"
    },
    {
      "channel": 1,
      "note": 55,
      "start": 3.299,
      "duration": 0.0998,
      "velocity": 94,
      "chip": "ym2612"
    },
    {
      "channel": 3,
      "note": 62,
      "start": 3.2993,
      "duration": 0.0328,
      "velocity": 127,
      "chip": "ym2612"
    },
    {
      "channel": 4,
      "note": 79,
      "start": 3.2996,
      "duration": 0.1001,
      "velocity": 101,
      "chip": "ym2612"
    },
    {
      "channel": 3,
      "note": 62,
      "start": 3.3323,
      "duration": 0.0332,
      "velocity": 127,
      "chip": "ym2612"
    },
    {
      "channel": 3,
      "note": 62,
      "start": 3.3656,
      "duration": 0.0336,
      "velocity": 127,
      "chip": "ym2612"
    },
    {
      "channel": 0,
      "note": 67,
      "start": 3.3988,
      "duration": 0.0998,
      "velocity": 101,
      "chip": "ym2612"
    },
    {
      "channel": 1,
      "note": 66,
      "start": 3.399,
      "duration": 0.0998,
      "velocity": 94,
      "chip": "ym2612"
    },
    {
      "channel": 3,
      "note": 62,
      "start": 3.3996,
      "duration": 0.0326,
      "velocity": 127,
      "chip": "ym2612"
    },
    {
      "channel": 4,
      "note": 84,
      "start": 3.3999,
      "duration": 0.0995,
      "velocity": 101,
      "chip": "ym2612"
    },
    {
      "channel": 3,
      "note": 62,
      "start": 3.4323,
      "duration": 0.0332,
      "velocity": 127,
      "chip": "ym2612"
    },
    {
      "channel": 3,
      "note": 62,
      "start": 3.4656,
      "duration": 0.0336,
      "velocity": 127,
      "chip": "ym2612"
    },
    {
      "channel": 0,
      "note": 62,
      "start": 3.4988,
      "duration": 0.0998,
      "velocity": 101,
      "chip": "ym2612"
    },
    {
      "channel": 1,
      "note": 67,
      "start": 3.499,
      "duration": 0.1001,
      "velocity": 94,
      "chip": "ym2612"
    },
    {
      "channel": 3,
      "note": 62,
      "start": 3.4993,
      "duration": 0.0328,
      "velocity": 127,
      "chip": "ym2612"
    },
    {
      "channel": 4,
      "note": 79,
      "start": 3.4996,
      "duration": 0.101,
      "velocity": 101,
      "chip": "ym2612"
    },
    {
      "channel": 3,
      "note": 62,
      "start": 3.5323,
      "duration": 0.0332,
      "velocity": 127,
      "chip": "ym2612"
    },
    {
      "channel": 3,
      "note": 62,
      "start": 3.5656,
      "duration": 0.0344,
      "velocity": 127,
      "chip": "ym2612"
    },
    {
      "channel": 0,
      "note": 48,
      "start": 3.599,
      "duration": 0.0041,
      "velocity": 101,
      "chip": "ym2612"
    },
    {
      "channel": 1,
      "note": 60,
      "start": 3.5995,
      "duration": 0.0039,
      "velocity": 94,
      "chip": "ym2612"
    },
    {
      "channel": 2,
      "note": 45,
      "start": 3.6,
      "duration": 0.0383,
      "velocity": 114,
      "chip": "ym2612"
    },
    {
      "channel": 3,
      "note": 62,
      "start": 3.6005,
      "duration": 0.0021,
      "velocity": 127,
      "chip": "ym2612"
    },
    {
      "channel": 4,
      "note": 65,
      "start": 3.601,
      "duration": 0.0027,
      "velocity": 101,
      "chip": "ym2612"
    },
    {
      "channel": 3,
      "note": 62,
      "start": 3.6027,
      "duration": 0.0019,
      "velocity": 127,
      "chip": "ym2612"
    },
    {
      "channel": 0,
      "note": 55,
      "start": 3.6033,
      "duration": 0.0025,
      "velocity": 101,
      "chip": "ym2612"
    },
    {
      "channel": 1,
      "note": 60,
      "start": 3.6036,
      "duration": 0.0025,
      "velocity": 94,
      "chip": "ym2612"
    },
    {
      "channel": 4,
      "note": 72,
      "start": 3.6039,
      "duration": 0.0026,
      "velocity": 101,
      "chip": "ym2612"
    },
    {
      "channel": 3,
      "note": 62,
      "start": 3.6046,
      "duration": 0.0017,
      "velocity": 127,
      "chip": "ym2612"
    },
    {
      "channel": 0,
      "note": 60,
      "start": 3.606,
      "duration": 0.0035,
      "velocity": 101,
      "chip": "ym2612"
    },
    {
      "channel": 1,
      "note": 60,
      "start": 3.6061,
      "duration": 0.0035,
      "velocity": 94,
      "chip": "ym2612"
    },
    {
      "channel": 3,
      "note": 62,
      "start": 3.6064,
      "duration": 0.002,
      "velocity": 127,
      "chip": "ym2612"
    },
    {
      "channel": 4,
      "note": 77,
      "start": 3.6067,
      "duration": 0.0034,
      "velocity": 101,
      "chip": "ym2612"
    },
    {
      "channel": 3,
      "note": 62,
      "start": 3.6085,
      "duration": 0.0023,
      "velocity": 127,
      "chip": "ym2612"
    },
    {
      "channel": 0,
      "note": 55,
      "start": 3.6096,
      "duration": 0.0024,
      "velocity": 101,
      "chip": "ym2612"
    },
    {
      "channel": 1,
      "note": 60,
      "start": 3.6098,
      "duration": 0.0025,
      "velocity": 94,
      "chip": "ym2612"
    },
    {
      "channel": 4,
      "note": 72,
      "start": 3.6102,
      "duration": 0.0028,
      "velocity": 101,
      "chip": "ym2612"
    },
    {
      "channel": 3,
      "note": 62,
      "start": 3.611,
      "duration": 0.0016,
      "velocity": 127,
      "chip": "ym2612"
    },
    {
      "channel": 0,
      "note": 48,
      "start": 3.6122,
      "duration": 0.0034,
      "velocity": 101,
      "chip": "ym2612"
    },
    {
      "channel": 1,
      "note": 60,
      "start": 3.6125,
      "duration": 0.0034,
      "velocity": 94,
      "chip": "ym2612"
    },
    {
      "channel": 3,
      "note": 62,
      "start": 3.613,
      "duration": 0.002,
      "velocity": 127,
      "chip": "ym2612"
    },
    {
      "channel": 4,
      "note": 65,
      "start": 3.6133,
      "duration": 0.0028,
      "velocity": 101,
      "chip": "ym2612"
    },
    {
      "channel": 3,
      "note": 62,
      "start": 3.6151,
      "duration": 0.0016,
      "velocity": 127,
      "chip": "ym2612"
    },
    {
      "channel": 0,
      "note": 55,
      "start": 3.6158,
      "duration": 0.0026,
      "velocity": 101,
      "chip": "ym2612"
    },
    {
      "channel": 1,
      "note": 60,
      "start": 3.6159,
      "duration": 0.0027,
      "velocity": 94,
      "chip": "ym2612"
    },
    {
      "channel": 4,
      "note": 72,
      "start": 3.6163,
      "duration": 0.0028,
      "velocity": 101,
      "chip": "ym2612"
    },
    {
      "channel": 3,
      "note": 62,
      "start": 3.6169,
      "duration": 0.0019,
      "velocity": 127,
      "chip": "ym2612"
    },
    {
      "channel": 0,
      "note": 60,
      "start": 3.6186,
      "duration": 0.0035,
      "velocity": 101,
      "chip": "ym2612"
    },
    {
      "channel": 1,
      "note": 60,
      "start": 3.6187,
      "duration": 0.0037,
      "velocity": 94,
      "chip": "ym2612"
    },
    {
      "channel": 3,
      "note": 62,
      "start": 3.619,
      "duration": 0.002,
      "velocity": 127,
      "chip": "ym2612"
    },
    {
      "channel": 4,
      "note": 77,
      "start": 3.6192,
      "duration": 0.0035,
      "velocity": 101,
      "chip": "ym2612"
    },
    {
      "channel": 3,
      "note": 62,
      "start": 3.6211,
      "duration": 0.0022,
      "velocity": 127,
      "chip": "ym2612"
    },
    {
      "channel": 0,
      "note": 55,
      "start": 3.6223,
      "duration": 0.002,
      "velocity": 101,
      "chip": "ym2612"
    },
    {
      "channel": 1,
      "note": 60,
      "start": 3.6225,
      "duration": 0.002,
      "velocity": 94,
      "chip": "ym2612"
    },
    {
      "channel": 4,
      "note": 72,
      "start": 3.6228,
      "duration": 0.0025,
      "velocity": 101,
      "chip": "ym2612"
    },
    {
      "channel": 3,
      "note": 62,
      "start": 3.6234,
      "duration": 0.0014,
      "velocity": 127,
      "chip": "ym2612"
    },
    {
      "channel": 0,
      "note": 48,
      "start": 3.6245,
      "duration": 0.0028,
      "velocity": 101,
      "chip": "ym2612"
    },
    {
      "channel": 1,
      "note": 60,
      "start": 3.6247,
      "duration": 0.0029,
      "velocity": 94,
      "chip": "ym2612"
    },
    {
      "channel": 3,
      "note": 62,
      "start": 3.6251,
      "duration": 0.0017,
      "velocity": 127,
      "chip": "ym2612"
    },
    {
      "channel": 4,
      "note": 65,
      "start": 3.6255,
      "duration": 0.0025,
      "velocity": 101,
      "chip": "ym2612"
    },
    {
      "channel": 3,
      "note": 62,
      "start": 3.6269,
      "duration": 0.0018,
      "velocity": 127,
      "chip": "ym2612"
    },
    {
      "channel": 0,
      "note": 55,
      "start": 3.6275,
      "duration": 0.0028,
      "velocity": 101,
      "chip": "ym2612"
    },
    {
      "channel": 1,
      "note": 60,
      "start": 3.6278,
      "duration": 0.003,
      "velocity": 94,
      "chip": "ym2612"
    },
    {
      "channel": 4,
      "note": 72,
      "start": 3.6281,
      "duration": 0.0032,
      "velocity": 101,
      "chip": "ym2612"
    },
    {
      "channel": 3,
      "note": 62,
      "start": 3.6288,
      "duration": 0.0023,
      "velocity": 127,
      "chip": "ym2612"
    },
    {
      "channel": 0,
      "note": 60,
      "start": 3.6306,
      "duration": 0.0035,
      "velocity": 101,
      "chip": "ym2612"
    },
    {
      "channel": 1,
      "note": 60,
      "start": 3.631,
      "duration": 0.0035,
      "velocity": 94,
      "chip": "ym2612"
    },
    {
      "channel": 3,
      "note": 62,
      "start": 3.6313,
      "duration": 0.002,
      "velocity": 127,
      "chip": "ym2612"
    },
    {
      "channel": 4,
      "note": 77,
      "start": 3.6317,
      "duration": 0.0032,
      "velocity": 101,
      "chip": "ym2612"
    },
    {
      "channel": 3,
      "note": 62,
      "start": 3.6334,
      "duration": 0.0028,
      "velocity": 127,
      "chip": "ym2612"
    },
    {
      "channel": 0,
      "note": 55,
      "start": 3.6344,
      "duration": 0.003,
      "velocity": 101,
      "chip": "ym2612"
    },
    {
      "channel": 1,
      "note": 60,
      "start": 3.6346,
      "duration": 0.0032,
      "velocity": 94,
      "chip": "ym2612"
    },
    {
      "channel": 4,
      "note": 72,
      "start": 3.6352,
      "duration": 0.0059,
      "velocity": 101,
      "chip": "ym2612"
    },
    {
      "channel": 3,
      "note": 62,
      "start": 3.6363,
      "duration": 0.0034,
      "velocity": 127,
      "chip": "ym2612"
    },
    {
      "channel": 0,
      "note": 52,
      "start": 3.6378,
      "duration": 0.006,
      "velocity": 101,
      "chip": "ym2612"
    },
    {
      "channel": 1,
      "note": 52,
      "start": 3.6382,
      "duration": 0.0059,
      "velocity": 94,
      "chip": "ym2612"
    },
    {
      "channel": 2,
      "note": 45,
      "start": 3.6396,
      "duration": 0.0046,
      "velocity": 127,
      "chip": "ym2612"
    },
    {
      "channel": 4,
      "note": 69,
      "start": 3.6414,
      "duration": 0.0032,
      "velocity": 101,
      "chip": "ym2612"
    },
    {
      "channel": 0,
      "note": 59,
      "start": 3.644,
      "duration": 0.0084,
      "velocity": 101,
      "chip": "ym2612"
    },
    {
      "channel": 1,
      "note": 59,
      "start": 3.6442,
      "duration": 0.0085,
      "velocity": 94,
      "chip": "ym2612"
    },
    {
      "channel": 2,
      "note": 45,
      "start": 3.6444,
      "duration": 0.0085,
      "velocity": 127,
      "chip": "ym2612"
    },
    {
      "channel": 4,
      "note": 76,
      "start": 3.6447,
      "duration": 0.0095,
      "velocity": 101,
      "chip": "ym2612"
    },
    {
      "channel": 0,
      "note": 64,
      "start": 3.6526,
      "duration": 0.0037,
      "velocity": 101,
      "chip": "ym2612"
    },
    {
      "channel": 1,
      "note": 64,
      "start": 3.6529,
      "duration": 0.0037,
      "velocity": 94,
      "chip": "ym2612"
    },
    {
      "channel": 2,
      "note": 45,
      "start": 3.6541,
      "duration": 0.0029,
      "velocity": 127,
      "chip": "ym2612"
    },
    {
      "channel": 4,
      "note": 81,
      "start": 3.6545,
      "duration": 0.003,
      "velocity": 101,
      "chip": "ym2612"
    },
    {
      "channel": 0,
      "note": 59,
      "start": 3.6565,
      "duration": 0.0034,
      "velocity": 101,
      "chip": "ym2612"
    },
    {
      "channel": 1,
      "note": 59,
      "start": 3.6569,
      "duration": 0.0033,
      "velocity": 94,
      "chip": "ym2612"
    },
    {
      "channel": 2,
      "note": 45,
      "start": 3.6572,
      "duration": 0.0032,
      "velocity": 127,
      "chip": "ym2612"
    },
    {
      "channel": 4,
      "note": 76,
      "start": 3.6577,
      "duration": 0.0044,
      "velocity": 101,
      "chip": "ym2612"
    },
    {
      "channel": 0,
      "note": 52,
      "start": 3.6601,
      "duration": 0.0043,
      "velocity": 101,
      "chip": "ym2612"
    },
    {
      "channel": 1,
      "note": 52,
      "start": 3.6604,
      "duration": 0.0043,
      "velocity": 94,
      "chip": "ym2612"
    },
    {
      "channel": 2,
      "note": 45,
      "start": 3.6619,
      "duration": 0.003,
      "velocity": 127,
      "chip": "ym2612"
    },
    {
      "channel": 4,
      "note": 69,
      "start": 3.6624,
      "duration": 0.0027,
      "velocity": 101,
      "chip": "ym2612"
    },
    {
      "channel": 0,
      "note": 59,
      "start": 3.6646,
      "duration": 0.0027,
      "velocity": 101,
      "chip": "ym2612"
    },
    {
      "channel": 1,
      "note": 59,
      "start": 3.6649,
      "duration": 0.0027,
      "velocity": 94,
      "chip": "ym2612"
    },
    {
      "channel": 2,
      "note": 45,
      "start": 3.665,
      "duration": 0.0028,
      "velocity": 127,
      "chip": "ym2612"
    },
    {
      "channel": 4,
      "note": 76,
      "start": 3.6654,
      "duration": 0.0036,
      "velocity": 101,
      "chip": "ym2612"
    },
    {
      "channel": 0,
      "note": 64,
      "start": 3.6675,
      "duration": 0.0139,
      "velocity": 101,
      "chip": "ym2612"
    },
    {
      "channel": 1,
      "note": 64,
      "start": 3.6678,
      "duration": 0.0139,
      "velocity": 94,
      "chip": "ym2612"
    },
    {
      "channel": 2,
      "note": 45,
      "start": 3.669,
      "duration": 0.013,
      "velocity": 127,
      "chip": "ym2612"
    },
    {
      "channel": 4,
      "note": 81,
      "start": 3.6693,
      "duration": 0.0129,
      "velocity": 101,
      "chip": "ym2612"
    },
    {
      "channel": 0,
      "note": 59,
      "start": 3.6816,
      "duration": 0.0032,
      "velocity": 101,
      "chip": "ym2612"
    },
    {
      "channel": 1,
      "note": 59,
      "start": 3.6819,
      "duration": 0.0032,
      "velocity": 94,
      "chip": "ym2612"
    },
    {
      "channel": 2,
      "note": 45,
      "start": 3.6821,
      "duration": 0.0031,
      "velocity": 127,
      "chip": "ym2612"
    },
    {
      "channel": 4,
      "note": 76,
      "start": 3.6824,
      "duration": 0.0044,
      "velocity": 101,
      "chip": "ym2612"
    },
    {
      "channel": 0,
      "note": 52,
      "start": 3.685,
      "duration": 0.0041,
      "velocity": 101,
      "chip": "ym2612"
    },
    {
      "channel": 1,
      "note": 52,
      "start": 3.6852,
      "duration": 0.0041,
      "velocity": 94,
      "chip": "ym2612"
    },
    {
      "channel": 2,
      "note": 45,
      "start": 3.6866,
      "duration": 0.003,
      "velocity": 127,
      "chip": "ym2612"
    },
    {
      "channel": 4,
      "note": 69,
      "start": 3.6871,
      "duration": 0.0028,
      "velocity": 101,
      "chip": "ym2612"
    },
    {
      "channel": 0,
      "note": 59,
      "start": 3.6893,
      "duration": 0.0024,
      "velocity": 101,
      "chip": "ym2612"
    },
    {
      "channel": 1,
      "note": 59,
      "start": 3.6896,
      "duration": 0.0024,
      "velocity": 94,
      "chip": "ym2612"
    },
    {
      "channel": 2,
      "note": 45,
      "start": 3.6897,
      "duration": 0.0025,
      "velocity": 127,
      "chip": "ym2612"
    },
    {
      "channel": 4,
      "note": 76,
      "start": 3.69,
      "duration": 0.0038,
      "velocity": 101,
      "chip": "ym2612"
    },
    {
      "channel": 0,
      "note": 64,
      "start": 3.6919,
      "duration": 0.0042,
      "velocity": 101,
      "chip": "ym2612"
    },
    {
      "channel": 1,
      "note": 64,
      "start": 3.6921,
      "duration": 0.0042,
      "velocity": 94,
      "chip": "ym2612"
    },
    {
      "channel": 2,
      "note": 45,
      "start": 3.6937,
      "duration": 0.0029,
      "velocity": 127,
      "chip": "ym2612"
    },
    {
      "channel": 4,
      "note": 81,
      "start": 3.6941,
      "duration": 0.0028,
      "velocity": 101,
      "chip": "ym2612"
    },
    {
      "channel": 0,
      "note": 59,
      "start": 3.6962,
      "duration": 0.012,
      "velocity": 101,
      "chip": "ym2612"
    },
    {
      "channel": 1,
      "note": 59,
      "start": 3.6966,
      "duration": 0.012,
      "velocity": 94,
      "chip": "ym2612"
    },
    {
      "channel": 2,
      "note": 45,
      "start": 3.6967,
      "duration": 0.0122,
      "velocity": 127,
      "chip": "ym2612"
    },
    {
      "channel": 4,
      "note": 76,
      "start": 3.697,
      "duration": 0.0134,
      "velocity": 101,
      "chip": "ym2612"
    },
    {
      "channel": 0,
      "note": 55,
      "start": 3.7085,
      "duration": 0.0047,
      "velocity": 101,
      "chip": "ym2612"
    },
    {
      "channel": 1,
      "note": 55,
      "start": 3.7089,
      "duration": 0.0047,
      "velocity": 94,
      "chip": "ym2612"
    },
    {
      "channel": 2,
      "note": 45,
      "start": 3.7102,
      "duration": 0.0036,
      "velocity": 127,
      "chip": "ym2612"
    },
    {
      "channel": 4,
      "note": 72,
      "start": 3.7108,
      "duration": 0.0033,
      "velocity": 101,
      "chip": "ym2612"
    },
    {
      "channel": 0,
      "note": 62,
      "start": 3.7134,
      "duration": 0.012,
      "velocity": 101,
      "chip": "ym2612"
    },
    {
      "channel": 1,
      "note": 62,
      "start": 3.7137,
      "duration": 0.0121,
      "velocity": 94,
      "chip": "ym2612"
    },
    {
      "channel": 2,
      "note": 45,
      "start": 3.7139,
      "duration": 0.0122,
      "velocity": 127,
      "chip": "ym2612"
    },
    {
      "channel": 4,
      "note": 79,
      "start": 3.7143,
      "duration": 0.0131,
      "velocity": 101,
      "chip": "ym2612"
    },
    {
      "channel": 0,
      "note": 67,
      "start": 3.7257,
      "duration": 0.0042,
      "velocity": 101,
      "chip": "ym2612"
    },
    {
      "channel": 1,
      "note": 67,
      "start": 3.726,
      "duration": 0.0042,
      "velocity": 94,
      "chip": "ym2612"
    },
    {
      "channel": 2,
      "note": 45,
      "start": 3.7272,
      "duration": 0.0033,
      "velocity": 127,
      "chip": "ym2612"
    },
    {
      "channel": 4,
      "note": 84,
      "start": 3.7276,
      "duration": 0.0033,
      "velocity": 101,
      "chip": "ym2612"
    },
    {
      "channel": 0,
      "note": 62,
      "start": 3.7301,
      "duration": 0.003,
      "velocity": 101,
      "chip": "ym2612"
    },
    {
      "channel": 1,
      "note": 62,
      "start": 3.7304,
      "duration": 0.003,
      "velocity": 94,
      "chip": "ym2612"
    },
    {
      "channel": 2,
      "note": 45,
      "start": 3.7307,
      "duration": 0.003,
      "velocity": 127,
      "chip": "ym2612"
    },
    {
      "channel": 4,
      "note": 79,
      "start": 3.7311,
      "duration": 0.0042,
      "velocity": 101,
      "chip": "ym2612"
    },
    {
      "channel": 0,
      "note": 55,
      "start": 3.7333,
      "duration": 0.0043,
      "velocity": 101,
      "chip": "ym2612"
    },
    {
      "channel": 1,
      "note": 55,
      "start": 3.7336,
      "duration": 0.0042,
      "velocity": 94,
      "chip": "ym2612"
    },
    {
      "channel": 2,
      "note": 45,
      "start": 3.7351,
      "duration": 0.003,
      "velocity": 127,
      "chip": "ym2612"
    },
    {
      "channel": 4,
      "note": 72,
      "start": 3.7356,
      "duration": 0.0028,
      "velocity": 101,
      "chip": "ym2612"
    },
    {
      "channel": 0,
      "note": 62,
      "start": 3.7378,
      "duration": 0.0024,
      "velocity": 101,
      "chip": "ym2612"
    },
    {
      "channel": 1,
      "note": 62,
      "start": 3.7381,
      "duration": 0.0024,
      "velocity": 94,
      "chip": "ym2612"
    },
    {
      "channel": 2,
      "note": 45,
      "start": 3.7382,
      "duration": 0.0025,
      "velocity": 127,
      "chip": "ym2612"
    },
    {
      "channel": 4,
      "note": 79,
      "start": 3.7386,
      "duration": 0.0034,
      "velocity": 101,
      "chip": "ym2612"
    },
    {
      "channel": 0,
      "note": 67,
      "start": 3.7404,
      "duration": 0.0139,
      "velocity": 101,
      "chip": "ym2612"
    },
    {
      "channel": 1,
      "note": 67,
      "start": 3.7407,
      "duration": 0.0139,
      "velocity": 94,
      "chip": "ym2612"
    },
    {
      "channel": 2,
      "note": 45,
      "start": 3.7419,
      "duration": 0.013,
      "velocity": 127,
      "chip": "ym2612"
    },
    {
      "channel": 4,
      "note": 84,
      "start": 3.7422,
      "duration": 0.0129,
      "velocity": 101,
      "chip": "ym2612"
    },
    {
      "channel": 0,
      "note": 62,
      "start": 3.7545,
      "duration": 0.0032,
      "velocity": 101,
      "chip": "ym2612"
    },
    {
      "channel": 1,
      "note": 62,
      "start": 3.7548,
      "duration": 0.0032,
      "velocity": 94,
      "chip": "ym2612"
    },
    {
      "channel": 2,
      "note": 45,
      "start": 3.755,
      "duration": 0.0031,
      "velocity": 127,
      "chip": "ym2612"
    },
    {
      "channel": 4,
      "note": 79,
      "start": 3.7554,
      "duration": 0.0044,
      "velocity": 101,
      "chip": "ym2612"
    },
    {
      "channel": 0,
      "note": 55,
      "start": 3.7579,
      "duration": 0.0041,
      "velocity": 101,
      "chip": "ym2612"
    },
    {
      "channel": 1,
      "note": 55,
      "start": 3.7581,
      "duration": 0.0041,
      "velocity": 94,
      "chip": "ym2612"
    },
    {
      "channel": 2,
      "note": 45,
      "start": 3.7595,
      "duration": 0.003,
      "velocity": 127,
      "chip": "ym2612"
    },
    {
      "channel": 4,
      "note": 72,
      "start": 3.76,
      "duration": 0.0028,
      "velocity": 101,
      "chip": "ym2612"
    },
    {
      "channel": 0,
      "note": 62,
      "start": 3.7622,
      "duration": 0.0024,
      "velocity": 101,
      "chip": "ym2612"
    },
    {
      "channel": 1,
      "note": 62,
      "start": 3.7625,
      "duration": 0.0024,
      "velocity": 94,
      "chip": "ym2612"
    },
    {
      "channel": 2,
      "note": 45,
      "start": 3.7626,
      "duration": 0.0025,
      "velocity": 127,
      "chip": "ym2612"
    },
    {
      "channel": 4,
      "note": 79,
      "start": 3.7629,
      "duration": 0.0038,
      "velocity": 101,
      "chip": "ym2612"
    },
    {
      "channel": 0,
      "note": 67,
      "start": 3.7648,
      "duration": 0.0042,
      "velocity": 101,
      "chip": "ym2612"
    },
    {
      "channel": 1,
      "note": 67,
      "start": 3.765,
      "duration": 0.0042,
      "velocity": 94,
      "chip": "ym2612"
    },
    {
      "channel": 2,
      "note": 45,
      "start": 3.7666,
      "duration": 0.0029,
      "velocity": 127,
      "chip": "ym2612"
    },
    {
      "channel": 4,
      "note": 84,
      "start": 3.767,
      "duration": 0.0028,
      "velocity": 101,
      "chip": "ym2612"
    },
    {
      "channel": 0,
      "note": 62,
      "start": 3.7691,
      "duration": 0.012,
      "velocity": 101,
      "chip": "ym2612"
    },
    {
      "channel": 1,
      "note": 62,
      "start": 3.7695,
      "duration": 0.012,
      "velocity": 94,
      "chip": "ym2612"
    },
    {
      "channel": 2,
      "note": 45,
      "start": 3.7696,
      "duration": 0.0122,
      "velocity": 127,
      "chip": "ym2612"
    },
    {
      "channel": 4,
      "note": 79,
      "start": 3.7699,
      "duration": 0.0135,
      "velocity": 101,
      "chip": "ym2612"
    },
    {
      "channel": 0,
      "note": 54,
      "start": 3.7815,
      "duration": 0.0044,
      "velocity": 101,
      "chip": "ym2612"
    },
    {
      "channel": 1,
      "note": 54,
      "start": 3.7818,
      "duration": 0.0041,
      "velocity": 94,
      "chip": "ym2612"
    },
    {
      "channel": 2,
      "note": 45,
      "start": 3.7832,
      "duration": 0.0031,
      "velocity": 127,
      "chip": "ym2612"
    },
    {
      "channel": 4,
      "note": 71,
      "start": 3.7837,
      "duration": 0.0027,
      "velocity": 101,
      "chip": "ym2612"
    },
    {
      "channel": 0,
      "note": 61,
      "start": 3.7859,
      "duration": 0.0122,
      "velocity": 101,
      "chip": "ym2612"
    },
    {
      "channel": 1,
      "note": 61,
      "start": 3.7863,
      "duration": 0.0122,
      "velocity": 94,
      "chip": "ym2612"
    },
    {
      "channel": 2,
      "note": 45,
      "start": 3.7864,
      "duration": 0.0123,
      "velocity": 127,
      "chip": "ym2612"
    },
    {
      "channel": 4,
      "note": 78,
      "start": 3.7866,
      "duration": 0.0135,
      "velocity": 101,
      "chip": "ym2612"
    },
    {
      "channel": 0,
      "note": 66,
      "start": 3.7984,
      "duration": 0.0037,
      "velocity": 101,
      "chip": "ym2612"
    },
    {
      "channel": 1,
      "note": 66,
      "start": 3.7986,
      "duration": 0.0037,
      "velocity": 94,
      "chip": "ym2612"
    },
    {
      "channel": 2,
      "note": 45,
      "start": 3.7998,
      "duration": 0.0029,
      "velocity": 127,
      "chip": "ym2612"
    },
    {
      "channel": 4,
      "note": 83,
      "start": 3.8002,
      "duration": 0.003,
      "velocity": 101,
      "chip": "ym2612"
    },
    {
      "channel": 0,
      "note": 61,
      "start": 3.8023,
      "duration": 0.0034,
      "velocity": 101,
      "chip": "ym2612"
    },
    {
      "channel": 1,
      "note": 61,
      "start": 3.8027,
      "duration": 0.0033,
      "velocity": 94,
      "chip": "ym2612"
    },
    {
      "channel": 2,
      "note": 45,
      "start": 3.803,
      "duration": 0.0032,
      "velocity": 127,
      "chip": "ym2612"
    },
    {
      "channel": 4,
      "note": 78,
      "start": 3.8035,
      "duration": 0.0044,
      "velocity": 101,
      "chip": "ym2612"
    },
    {
      "channel": 0,
      "note": 54,
      "start": 3.8059,
      "duration": 0.0043,
      "velocity": 101,
      "chip": "ym2612"
    },
    {
      "channel": 1,
      "note": 54,
      "start": 3.8061,
      "duration": 0.0043,
      "velocity": 94,
      "chip": "ym2612"
    },
    {
      "channel": 2,
      "note": 45,
      "start": 3.8076,
      "duration": 0.003,
      "velocity": 127,
      "chip": "ym2612"
    },
    {
      "channel": 4,
      "note": 71,
      "start": 3.8082,
      "duration": 0.0027,
      "velocity": 101,
      "chip": "ym2612"
    },
    {
      "channel": 0,
      "note": 61,
      "start": 3.8104,
      "duration": 0.0027,
      "velocity": 101,
      "chip": "ym2612"
    },
    {
      "channel": 1,
      "note": 61,
      "start": 3.8106,
      "duration": 0.0027,
      "velocity": 94,
      "chip": "ym2612"
    },
    {
      "channel": 2,
      "note": 45,
      "start": 3.8108,
      "duration": 0.0028,
      "velocity": 127,
      "chip": "ym2612"
    },
    {
      "channel": 4,
      "note": 78,
      "start": 3.8112,
      "duration": 0.0036,
      "velocity": 101,
      "chip": "ym2612"
    },
    {
      "channel": 0,
      "note": 66,
      "start": 3.8133,
      "duration": 0.0139,
      "velocity": 101,
      "chip": "ym2612"
    },
    {
      "channel": 1,
      "note": 66,
      "start": 3.8135,
      "duration": 0.0139,
      "velocity": 94,
      "chip": "ym2612"
    },
    {
      "channel": 2,
      "note": 45,
      "start": 3.8147,
      "duration": 0.013,
      "velocity": 127,
      "chip": "ym2612"
    },
    {
      "channel": 4,
      "note": 83,
      "start": 3.8151,
      "duration": 0.0129,
      "velocity": 101,
      "chip": "ym2612"
    },
    {
      "channel": 0,
      "note": 61,
      "start": 3.8274,
      "duration": 0.0032,
      "velocity": 101,
      "chip": "ym2612"
    },
    {
      "channel": 1,
      "note": 61,
      "start": 3.8276,
      "duration": 0.0032,
      "velocity": 94,
      "chip": "ym2612"
    },
    {
      "channel": 2,
      "note": 45,
      "start": 3.8279,
      "duration": 0.0031,
      "velocity": 127,
      "chip": "ym2612"
    },
    {
      "channel": 4,
      "note": 78,
      "start": 3.8282,
      "duration": 0.0044,
      "velocity": 101,
      "chip": "ym2612"
    },
    {
      "channel": 0,
      "note": 54,
      "start": 3.8308,
      "duration": 0.0041,
      "velocity": 101,
      "chip": "ym2612"
    },
    {
      "channel": 1,
      "note": 54,
      "start": 3.831,
      "duration": 0.0041,
      "velocity": 94,
      "chip": "ym2612"
    },
    {
      "channel": 2,
      "note": 45,
      "start": 3.8323,
      "duration": 0.003,
      "velocity": 127,
      "chip": "ym2612"
    },
    {
      "channel": 4,
      "note": 71,
      "start": 3.8329,
      "duration": 0.0028,
      "velocity": 101,
      "chip": "ym2612"
    },
    {
      "channel": 0,
      "note": 61,
      "start": 3.8351,
      "duration": 0.0024,
      "velocity": 101,
      "chip": "ym2612"
    },
    {
      "channel": 1,
      "note": 61,
      "start": 3.8353,
      "duration": 0.0024,
      "velocity": 94,
      "chip": "ym2612"
    },
    {
      "channel": 2,
      "note": 45,
      "start": 3.8355,
      "duration": 0.0025,
      "velocity": 127,
      "chip": "ym2612"
    },
    {
      "channel": 4,
      "note": 78,
      "start": 3.8358,
      "duration": 0.0038,
      "velocity": 101,
      "chip": "ym2612"
    },
    {
      "channel": 0,
      "note": 66,
      "start": 3.8377,
      "duration": 0.0042,
      "velocity": 101,
      "chip": "ym2612"
    },
    {
      "channel": 1,
      "note": 66,
      "start": 3.8379,
      "duration": 0.0042,
      "velocity": 94,
      "chip": "ym2612"
    },
    {
      "channel": 2,
      "note": 45,
      "start": 3.8395,
      "duration": 0.0029,
      "velocity": 127,
      "chip": "ym2612"
    },
    {
      "channel": 4,
      "note": 83,
      "start": 3.8398,
      "duration": 0.0028,
      "velocity": 101,
      "chip": "ym2612"
    },
    {
      "channel": 0,
      "note": 61,
      "start": 3.842,
      "duration": 0.012,
      "velocity": 101,
      "chip": "ym2612"
    },
    {
      "channel": 1,
      "note": 61,
      "start": 3.8423,
      "duration": 0.012,
      "velocity": 94,
      "chip": "ym2612"
    },
    {
      "channel": 2,
      "note": 45,
      "start": 3.8425,
      "duration": 0.0122,
      "velocity": 127,
      "chip": "ym2612"
    },
    {
      "channel": 4,
      "note": 78,
      "start": 3.8428,
      "duration": 0.0134,
      "velocity": 101,
      "chip": "ym2612"
    },
    {
      "channel": 0,
      "note": 53,
      "start": 3.8543,
      "duration": 0.0046,
      "velocity": 101,
      "chip": "ym2612"
    },
    {
      "channel": 1,
      "note": 53,
      "start": 3.8546,
      "duration": 0.0046,
      "velocity": 94,
      "chip": "ym2612"
    },
    {
      "channel": 2,
      "note": 45,
      "start": 3.856,
      "duration": 0.0035,
      "velocity": 127,
      "chip": "ym2612"
    },
    {
      "channel": 4,
      "note": 70,
      "start": 3.8565,
      "duration": 0.0032,
      "velocity": 101,
      "chip": "ym2612"
    },
    {
      "channel": 0,
      "note": 60,
      "start": 3.8591,
      "duration": 0.0125,
      "velocity": 101,
      "chip": "ym2612"
    },
    {
      "channel": 1,
      "note": 60,
      "start": 3.8595,
      "duration": 0.0124,
      "velocity": 94,
      "chip": "ym2612"
    },
    {
      "channel": 2,
      "note": 45,
      "start": 3.8596,
      "duration": 0.0125,
      "velocity": 127,
      "chip": "ym2612"
    },
    {
      "channel": 4,
      "note": 77,
      "start": 3.8599,
      "duration": 0.0136,
      "velocity": 101,
      "chip": "ym2612"
    },
    {
      "channel": 0,
      "note": 65,
      "start": 3.8718,
      "duration": 0.0037,
      "velocity": 101,
      "chip": "ym2612"
    },
    {
      "channel": 1,
      "note": 65,
      "start": 3.8721,
      "duration": 0.0037,
      "velocity": 94,
      "chip": "ym2612"
    },
    {
      "channel": 2,
      "note": 45,
      "start": 3.8734,
      "duration": 0.0028,
      "velocity": 127,
      "chip": "ym2612"
    },
    {
      "channel": 4,
      "note": 82,
      "start": 3.8737,
      "duration": 0.0029,
      "velocity": 101,
      "chip": "ym2612"
    },
    {
      "channel": 0,
      "note": 60,
      "start": 3.8757,
      "duration": 0.0035,
      "velocity": 101,
      "chip": "ym2612"
    },
    {
      "channel": 1,
      "note": 60,
      "start": 3.8761,
      "duration": 0.0034,
      "velocity": 94,
      "chip": "ym2612"
    },
    {
      "channel": 2,
      "note": 45,
      "start": 3.8764,
      "duration": 0.0033,
      "velocity": 127,
      "chip": "ym2612"
    },
    {
      "channel": 4,
      "note": 77,
      "start": 3.8769,
      "duration": 0.0045,
      "velocity": 101,
      "chip": "ym2612"
    },
    {
      "channel": 0,
      "note": 53,
      "start": 3.8795,
      "duration": 0.0042,
      "velocity": 101,
      "chip": "ym2612"
    },
    {
      "channel": 1,
      "note": 53,
      "start": 3.8797,
      "duration": 0.0041,
      "velocity": 94,
      "chip": "ym2612"
    },
    {
      "channel": 2,
      "note": 45,
      "start": 3.8812,
      "duration": 0.0029,
      "velocity": 127,
      "chip": "ym2612"
    },
    {
      "channel": 4,
      "note": 70,
      "start": 3.8817,
      "duration": 0.0027,
      "velocity": 101,
      "chip": "ym2612"
    },
    {
      "channel": 0,
      "note": 60,
      "start": 3.8838,
      "duration": 0.003,
      "velocity": 101,
      "chip": "ym2612"
    },
    {
      "channel": 1,
      "note": 60,
      "start": 3.8841,
      "duration": 0.0029,
      "velocity": 94,
      "chip": "ym2612"
    },
    {
      "channel": 2,
      "note": 45,
      "start": 3.8842,
      "duration": 0.003,
      "velocity": 127,
      "chip": "ym2612"
    },
    {
      "channel": 4,
      "note": 77,
      "start": 3.8847,
      "duration": 0.0039,
      "velocity": 101,
      "chip": "ym2612"
    },
    {
      "channel": 0,
      "note": 65,
      "start": 3.8869,
      "duration": 0.0136,
      "velocity": 101,
      "chip": "ym2612"
    },
    {
      "channel": 1,
      "note": 65,
      "start": 3.8872,
      "duration": 0.0136,
      "velocity": 94,
      "chip": "ym2612"
    },
    {
      "channel": 2,
      "note": 45,
      "start": 3.8884,
      "duration": 0.0127,
      "velocity": 127,
      "chip": "ym2612"
    },
    {
      "channel": 4,
      "note": 82,
      "start": 3.8888,
      "duration": 0.0126,
      "velocity": 101,
      "chip": "ym2612"
    },
    {
      "channel": 0,
      "note": 60,
      "start": 3.9007,
      "duration": 0.0032,
      "velocity": 101,
      "chip": "ym2612"
    },
    {
      "channel": 1,
      "note": 60,
      "start": 3.901,
      "duration": 0.0031,
      "velocity": 94,
      "chip": "ym2612"
    },
    {
      "channel": 2,
      "note": 45,
      "start": 3.9012,
      "duration": 0.0031,
      "velocity": 127,
      "chip": "ym2612"
    },
    {
      "channel": 4,
      "note": 77,
      "start": 3.9016,
      "duration": 0.0041,
      "velocity": 101,
      "chip": "ym2612"
    },
    {
      "channel": 0,
      "note": 53,
      "start": 3.904,
      "duration": 0.0044,
      "velocity": 101,
      "chip": "ym2612"
    },
    {
      "channel": 1,
      "note": 53,
      "start": 3.9043,
      "duration": 0.0044,
      "velocity": 94,
      "chip": "ym2612"
    },
    {
      "channel": 2,
      "note": 45,
      "start": 3.9056,
      "duration": 0.0032,
      "velocity": 127,
      "chip": "ym2612"
    },
    {
      "channel": 4,
      "note": 70,
      "start": 3.906,
      "duration": 0.0032,
      "velocity": 101,
      "chip": "ym2612"
    },
    {
      "channel": 0,
      "note": 60,
      "start": 3.9086,
      "duration": 0.0025,
      "velocity": 101,
      "chip": "ym2612"
    },
    {
      "channel": 1,
      "note": 60,
      "start": 3.9088,
      "duration": 0.0025,
      "velocity": 94,
      "chip": "ym2612"
    },
    {
      "channel": 2,
      "note": 45,
      "start": 3.909,
      "duration": 0.0026,
      "velocity": 127,
      "chip": "ym2612"
    },
    {
      "channel": 4,
      "note": 77,
      "start": 3.9093,
      "duration": 0.004,
      "velocity": 101,
      "chip": "ym2612"
    },
    {
      "channel": 0,
      "note": 65,
      "start": 3.9114,
      "duration": 0.0044,
      "velocity": 101,
      "chip": "ym2612"
    },
    {
      "channel": 1,
      "note": 65,
      "start": 3.9116,
      "duration": 0.0044,
      "velocity": 94,
      "chip": "ym2612"
    },
    {
      "channel": 2,
      "note": 45,
      "start": 3.9131,
      "duration": 0.0032,
      "velocity": 127,
      "chip": "ym2612"
    },
    {
      "channel": 4,
      "note": 82,
      "start": 3.9135,
      "duration": 0.0031,
      "velocity": 101,
      "chip": "ym2612"
    },
    {
      "channel": 0,
      "note": 60,
      "start": 3.9159,
      "duration": 0.0032,
      "velocity": 101,
      "chip": "ym2612"
    },
    {
      "channel": 1,
      "note": 60,
      "start": 3.9162,
      "duration": 0.0034,
      "velocity": 94,
      "chip": "ym2612"
    },
    {
      "channel": 2,
      "note": 45,
      "start": 3.9164,
      "duration": 0.0035,
      "velocity": 127,
      "chip": "ym2612"
    },
    {
      "channel": 4,
      "note": 77,
      "start": 3.9169,
      "duration": 0.0049,
      "velocity": 101,
      "chip": "ym2612"
    },
    {
      "channel": 0,
      "note": 52,
      "start": 3.9195,
      "duration": 0.005,
      "velocity": 101,
      "chip": "ym2612"
    },
    {
      "channel": 1,
      "note": 52,
      "start": 3.9199,
      "duration": 0.0049,
      "velocity": 94,
      "chip": "ym2612"
    },
    {
      "channel": 2,
      "note": 45,
      "start": 3.9213,
      "duration": 0.0037,
      "velocity": 127,
      "chip": "ym2612"
    },
    {
      "channel": 3,
      "note": 76,
      "start": 3.9217,
      "duration": 0.0035,
      "velocity": 101,
      "chip": "ym2612"
    },
    {
      "channel": 4,
      "note": 69,
      "start": 3.9222,
      "duration": 0.0033,
      "velocity": 101,
      "chip": "ym2612"
    },
    {
      "channel": 0,
      "note": 59,
      "start": 3.9248,
      "duration": 0.0107,
      "velocity": 101,
      "chip": "ym2612"
    },
    {
      "channel": 1,
      "note": 59,
      "start": 3.9249,
      "duration": 0.0109,
      "velocity": 94,
      "chip": "ym2612"
    },
    {
      "channel": 2,
      "note": 45,
      "start": 3.9251,
      "duration": 0.0109,
      "velocity": 127,
      "chip": "ym2612"
    },
    {
      "channel": 3,
      "note": 83,
      "start": 3.9255,
      "duration": 0.0118,
      "velocity": 101,
      "chip": "ym2612"
    },
    {
      "channel": 4,
      "note": 76,
      "start": 3.9257,
      "duration": 0.0119,
      "velocity": 101,
      "chip": "ym2612"
    },
    {
      "channel": 0,
      "note": 64,
      "start": 3.9357,
      "duration": 0.0039,
      "velocity": 101,
      "chip": "ym2612"
    },
    {
      "channel": 1,
      "note": 64,
      "start": 3.936,
      "duration": 0.0038,
      "velocity": 94,
      "chip": "ym2612"
    },
    {
      "channel": 2,
      "note": 45,
      "start": 3.9372,
      "duration": 0.0029,
      "velocity": 127,
      "chip": "ym2612"
    },
    {
      "channel": 3,
      "note": 88,
      "start": 3.9375,
      "duration": 0.0027,
      "velocity": 101,
      "chip": "ym2612"
    },
    {
      "channel": 4,
      "note": 81,
      "start": 3.9378,
      "duration": 0.0028,
      "velocity": 101,
      "chip": "ym2612"
    },
    {
      "channel": 0,
      "note": 59,
      "start": 3.9397,
      "duration": 0.0034,
      "velocity": 101,
      "chip": "ym2612"
    },
    {
      "channel": 1,
      "note": 59,
      "start": 3.94,
      "duration": 0.0034,
      "velocity": 94,
      "chip": "ym2612"
    },
    {
      "channel": 2,
      "note": 45,
      "start": 3.9402,
      "duration": 0.0035,
      "velocity": 127,
      "chip": "ym2612"
    },
    {
      "channel": 3,
      "note": 83,
      "start": 3.9405,
      "duration": 0.0046,
      "velocity": 101,
      "chip": "ym2612"
    },
    {
      "channel": 4,
      "note": 76,
      "start": 3.9409,
      "duration": 0.0046,
      "velocity": 101,
      "chip": "ym2612"
    },
    {
      "channel": 0,
      "note": 52,
      "start": 3.9433,
      "duration": 0.0045,
      "velocity": 101,
      "chip": "ym2612"
    },
    {
      "channel": 1,
      "note": 52,
      "start": 3.9436,
      "duration": 0.0045,
      "velocity": 94,
      "chip": "ym2612"
    },
    {
      "channel": 2,
      "note": 45,
      "start": 3.9451,
      "duration": 0.0032,
      "velocity": 127,
      "chip": "ym2612"
    },
    {
      "channel": 3,
      "note": 76,
      "start": 3.9454,
      "duration": 0.003,
      "velocity": 101,
      "chip": "ym2612"
    },
    {
      "channel": 4,
      "note": 69,
      "start": 3.9458,
      "duration": 0.0029,
      "velocity": 101,
      "chip": "ym2612"
    },
    {
      "channel": 0,
      "note": 59,
      "start": 3.948,
      "duration": 0.0036,
      "velocity": 101,
      "chip": "ym2612"
    },
    {
      "channel": 1,
      "note": 59,
      "start": 3.9482,
      "duration": 0.0036,
      "velocity": 94,
      "chip": "ym2612"
    },
    {
      "channel": 2,
      "note": 45,
      "start": 3.9483,
      "duration": 0.0037,
      "velocity": 127,
      "chip": "ym2612"
    },
    {
      "channel": 3,
      "note": 83,
      "start": 3.9486,
      "duration": 0.0048,
      "velocity": 101,
      "chip": "ym2612"
    },
    {
      "channel": 4,
      "note": 76,
      "start": 3.9489,
      "duration": 0.0047,
      "velocity": 101,
      "chip": "ym2612"
    },
    {
      "channel": 0,
      "note": 64,
      "start": 3.9517,
      "duration": 0.0134,
      "velocity": 101,
      "chip": "ym2612"
    },
    {
      "channel": 1,
      "note": 64,
      "start": 3.9519,
      "duration": 0.0135,
      "velocity": 94,
      "chip": "ym2612"
    },
    {
      "channel": 2,
      "note": 45,
      "start": 3.9533,
      "duration": 0.0124,
      "velocity": 127,
      "chip": "ym2612"
    },
    {
      "channel": 3,
      "note": 88,
      "start": 3.9536,
      "duration": 0.0123,
      "velocity": 101,
      "chip": "ym2612"
    },
    {
      "channel": 4,
      "note": 81,
      "start": 3.9538,
      "duration": 0.0124,
      "velocity": 101,
      "chip": "ym2612"
    },
    {
      "channel": 0,
      "note": 59,
      "start": 3.9654,
      "duration": 0.0033,
      "velocity": 101,
      "chip": "ym2612"
    },
    {
      "channel": 1,
      "note": 59,
      "start": 3.9656,
      "duration": 0.0032,
      "velocity": 94,
      "chip": "ym2612"
    },
    {
      "channel": 2,
      "note": 45,
      "start": 3.9659,
      "duration": 0.0032,
      "velocity": 127,
      "chip": "ym2612"
    },
    {
      "channel": 3,
      "note": 83,
      "start": 3.9661,
      "duration": 0.0043,
      "velocity": 101,
      "chip": "ym2612"
    },
    {
      "channel": 4,
      "note": 76,
      "start": 3.9664,
      "duration": 0.0042,
      "velocity": 101,
      "chip": "ym2612"
    },
    {
      "channel": 0,
      "note": 52,
      "start": 3.9688,
      "duration": 0.0044,
      "velocity": 101,
      "chip": "ym2612"
    },
    {
      "channel": 1,
      "note": 52,
      "start": 3.969,
      "duration": 0.0043,
      "velocity": 94,
      "chip": "ym2612"
    },
    {
      "channel": 2,
      "note": 45,
      "start": 3.9703,
      "duration": 0.0032,
      "velocity": 127,
      "chip": "ym2612"
    },
    {
      "channel": 3,
      "note": 76,
      "start": 3.9705,
      "duration": 0.0032,
      "velocity": 101,
      "chip": "ym2612"
    },
    {
      "channel": 4,
      "note": 69,
      "start": 3.9709,
      "duration": 0.0031,
      "velocity": 101,
      "chip": "ym2612"
    },
    {
      "channel": 0,
      "note": 59,
      "start": 3.9733,
      "duration": 0.0028,
      "velocity": 101,
      "chip": "ym2612"
    },
    {
      "channel": 1,
      "note": 59,
      "start": 3.9734,
      "duration": 0.0028,
      "velocity": 94,
      "chip": "ym2612"
    },
    {
      "channel": 2,
      "note": 45,
      "start": 3.9737,
      "duration": 0.0029,
      "velocity": 127,
      "chip": "ym2612"
    },
    {
      "channel": 3,
      "note": 83,
      "start": 3.9739,
      "duration": 0.0041,
      "velocity": 101,
      "chip": "ym2612"
    },
    {
      "channel": 4,
      "note": 76,
      "start": 3.9741,
      "duration": 0.0042,
      "velocity": 101,
      "chip": "ym2612"
    },
    {
      "channel": 0,
      "note": 64,
      "start": 3.9762,
      "duration": 0.0046,
      "velocity": 101,
      "chip": "ym2612"
    },
    {
      "channel": 1,
      "note": 64,
      "start": 3.9765,
      "duration": 0.0045,
      "velocity": 94,
      "chip": "ym2612"
    },
    {
      "channel": 2,
      "note": 45,
      "start": 3.9779,
      "duration": 0.0034,
      "velocity": 127,
      "chip": "ym2612"
    },
    {
      "channel": 3,
      "note": 88,
      "start": 3.9783,
      "duration": 0.0032,
      "velocity": 101,
      "chip": "ym2612"
    },
    {
      "channel": 4,
      "note": 81,
      "start": 3.9786,
      "duration": 0.003,
      "velocity": 101,
      "chip": "ym2612"
    },
    {
      "channel": 0,
      "note": 59,
      "start": 3.9809,
      "duration": 0.0119,
      "velocity": 101,
      "chip": "ym2612"
    },
    {
      "channel": 1,
      "note": 59,
      "start": 3.9812,
      "duration": 0.012,
      "velocity": 94,
      "chip": "ym2612"
    },
    {
      "channel": 2,
      "note": 45,
      "start": 3.9814,
      "duration": 0.0122,
      "velocity": 127,
      "chip": "ym2612"
    },
    {
      "channel": 3,
      "note": 83,
      "start": 3.9815,
      "duration": 0.0133,
      "velocity": 101,
      "chip": "ym2612"
    },
    {
      "channel": 4,
      "note": 76,
      "start": 3.9819,
      "duration": 0.0133,
      "velocity": 101,
      "chip": "ym2612"
    },
    {
      "channel": 0,
      "note": 55,
      "start": 3.9932,
      "duration": 0.0045,
      "velocity": 101,
      "chip": "ym2612"
    },
    {
      "channel": 1,
      "note": 55,
      "start": 3.9935,
      "duration": 0.0044,
      "velocity": 94,
      "chip": "ym2612"
    },
    {
      "channel": 2,
      "note": 45,
      "start": 3.9948,
      "duration": 0.0033,
      "velocity": 127,
      "chip": "ym2612"
    },
    {
      "channel": 3,
      "note": 79,
      "start": 3.9951,
      "duration": 0.0032,
      "velocity": 101,
      "chip": "ym2612"
    },
    {
      "channel": 4,
      "note": 72,
      "start": 3.9955,
      "duration": 0.0031,
      "velocity": 101,
      "chip": "ym2612"
    },
    {
      "channel": 0,
      "note": 62,
      "start": 3.9978,
      "duration": 0.0123,
      "velocity": 101,
      "chip": "ym2612"
    },
    {
      "channel": 1,
      "note": 62,
      "start": 3.9981,
      "duration": 0.0124,
      "velocity": 94,
      "chip": "ym2612"
    },
    {
      "channel": 2,
      "note": 45,
      "start": 3.9983,
      "duration": 0.0124,
      "velocity": 127,
      "chip": "ym2612"
    },
    {
      "channel": 3,
      "note": 86,
      "start": 3.9985,
      "duration": 0.0134,
      "velocity": 101,
      "chip": "ym2612"
    },
    {
      "channel": 4,
      "note": 79,
      "start": 3.9988,
      "duration": 0.0134,
      "velocity": 101,
      "chip": "ym2612"
    },
    {
      "channel": 0,
      "note": 67,
      "start": 4.0104,
      "duration": 0.0041,
      "velocity": 101,
      "chip": "ym2612"
    },
    {
      "channel": 1,
      "note": 67,
      "start": 4.0106,
      "duration": 0.0041,
      "velocity": 94,
      "chip": "ym2612"
    },
    {
      "channel": 2,
      "note": 45,
      "start": 4.0118,
      "duration": 0.0032,
      "velocity": 127,
      "chip": "ym2612"
    },
    {
      "channel": 3,
      "note": 91,
      "start": 4.0122,
      "duration": 0.003,
      "velocity": 101,
      "chip": "ym2612"
    },
    {
      "channel": 4,
      "note": 84,
      "start": 4.0124,
      "duration": 0.0032,
      "velocity": 101,
      "chip": "ym2612"
    },
    {
      "channel": 0,
      "note": 62,
      "start": 4.0147,
      "duration": 0.0036,
      "velocity": 101,
      "chip": "ym2612"
    },
    {
      "channel": 1,
      "note": 62,
      "start": 4.0149,
      "duration": 0.0035,
      "velocity": 94,
      "chip": "ym2612"
    },
    {
      "channel": 2,
      "note": 45,
      "start": 4.0151,
      "duration": 0.0036,
      "velocity": 127,
      "chip": "ym2612"
    },
    {
      "channel": 3,
      "note": 86,
      "start": 4.0154,
      "duration": 0.0047,
      "velocity": 101,
      "chip": "ym2612"
    },
    {
      "channel": 4,
      "note": 79,
      "start": 4.0158,
      "duration": 0.0047,
      "velocity": 101,
      "chip": "ym2612"
    },
    {
      "channel": 0,
      "note": 55,
      "start": 4.0184,
      "duration": 0.0046,
      "velocity": 101,
      "chip": "ym2612"
    },
    {
      "channel": 1,
      "note": 55,
      "start": 4.0187,
      "duration": 0.0046,
      "velocity": 94,
      "chip": "ym2612"
    },
    {
      "channel": 2,
      "note": 45,
      "start": 4.0201,
      "duration": 0.0034,
      "velocity": 127,
      "chip": "ym2612"
    },
    {
      "channel": 3,
      "note": 79,
      "start": 4.0205,
      "duration": 0.0032,
      "velocity": 101,
      "chip": "ym2612"
    },
    {
      "channel": 4,
      "note": 72,
      "start": 4.0208,
      "duration": 0.0031,
      "velocity": 101,
      "chip": "ym2612"
    },
    {
      "channel": 0,
      "note": 62,
      "start": 4.0232,
      "duration": 0.0035,
      "velocity": 101,
      "chip": "ym2612"
    },
    {
      "channel": 1,
      "note": 62,
      "start": 4.0234,
      "duration": 0.0035,
      "velocity": 94,
      "chip": "ym2612"
    },
    {
      "channel": 2,
      "note": 45,
      "start": 4.0236,
      "duration": 0.0036,
      "velocity": 127,
      "chip": "ym2612"
    },
    {
      "channel": 3,
      "note": 86,
      "start": 4.0239,
      "duration": 0.0047,
      "velocity": 101,
      "chip": "ym2612"
    },
    {
      "channel": 4,
      "note": 79,
      "start": 4.0241,
      "duration": 0.0047,
      "velocity": 101,
      "chip": "ym2612"
    },
    {
      "channel": 0,
      "note": 67,
      "start": 4.0268,
      "duration": 0.0141,
      "velocity": 101,
      "chip": "ym2612"
    },
    {
      "channel": 1,
      "note": 67,
      "start": 4.0271,
      "duration": 0.0141,
      "velocity": 94,
      "chip": "ym2612"
    },
    {
      "channel": 2,
      "note": 45,
      "start": 4.0285,
      "duration": 0.013,
      "velocity": 127,
      "chip": "ym2612"
    },
    {
      "channel": 3,
      "note": 91,
      "start": 4.0287,
      "duration": 0.013,
      "velocity": 101,
      "chip": "ym2612"
    },
    {
      "channel": 4,
      "note": 84,
      "start": 4.0289,
      "duration": 0.013,
      "velocity": 101,
      "chip": "ym2612"
    },
    {
      "channel": 0,
      "note": 62,
      "start": 4.0411,
      "duration": 0.0031,
      "velocity": 101,
      "chip": "ym2612"
    },
    {
      "channel": 1,
      "note": 62,
      "start": 4.0414,
      "duration": 0.0031,
      "velocity": 94,
      "chip": "ym2612"
    },
    {
      "channel": 2,
      "note": 45,
      "start": 4.0416,
      "duration": 0.0031,
      "velocity": 127,
      "chip": "ym2612"
    },
    {
      "channel": 3,
      "note": 86,
      "start": 4.0419,
      "duration": 0.0041,
      "velocity": 101,
      "chip": "ym2612"
    },
    {
      "channel": 4,
      "note": 79,
      "start": 4.0422,
      "duration": 0.004,
      "velocity": 101,
      "chip": "ym2612"
    },
    {
      "channel": 0,
      "note": 55,
      "start": 4.0444,
      "duration": 0.0044,
      "velocity": 101,
      "chip": "ym2612"
    },
    {
      "channel": 1,
      "note": 55,
      "start": 4.0446,
      "duration": 0.0044,
      "velocity": 94,
      "chip": "ym2612"
    },
    {
      "channel": 2,
      "note": 45,
      "start": 4.0459,
      "duration": 0.0034,
      "velocity": 127,
      "chip": "ym2612"
    },
    {
      "channel": 3,
      "note": 79,
      "start": 4.0461,
      "duration": 0.0034,
      "velocity": 101,
      "chip": "ym2612"
    },
    {
      "channel": 4,
      "note": 72,
      "start": 4.0464,
      "duration": 0.0034,
      "velocity": 101,
      "chip": "ym2612"
    },
    {
      "channel": 0,
      "note": 62,
      "start": 4.049,
      "duration": 0.0026,
      "velocity": 101,
      "chip": "ym2612"
    },
    {
      "channel": 1,
      "note": 62,
      "start": 4.0492,
      "duration": 0.0026,
      "velocity": 94,
      "chip": "ym2612"
    },
    {
      "channel": 2,
      "note": 45,
      "start": 4.0494,
      "duration": 0.0025,
      "velocity": 127,
      "chip": "ym2612"
    },
    {
      "channel": 3,
      "note": 86,
      "start": 4.0497,
      "duration": 0.0038,
      "velocity": 101,
      "chip": "ym2612"
    },
    {
      "channel": 4,
      "note": 79,
      "start": 4.0499,
      "duration": 0.0039,
      "velocity": 101,
      "chip": "ym2612"
    },
    {
      "channel": 0,
      "note": 67,
      "start": 4.0517,
      "duration": 0.0049,
      "velocity": 101,
      "chip": "ym2612"
    },
    {
      "channel": 1,
      "note": 67,
      "start": 4.0519,
      "duration": 0.005,
      "velocity": 94,
      "chip": "ym2612"
    },
    {
      "channel": 2,
      "note": 45,
      "start": 4.0534,
      "duration": 0.0037,
      "velocity": 127,
      "chip": "ym2612"
    },
    {
      "channel": 3,
      "note": 91,
      "start": 4.0538,
      "duration": 0.0035,
      "velocity": 101,
      "chip": "ym2612"
    },
    {
      "channel": 4,
      "note": 84,
      "start": 4.0541,
      "duration": 0.0034,
      "velocity": 101,
      "chip": "ym2612"
    },
    {
      "channel": 0,
      "note": 62,
      "start": 4.0568,
      "duration": 0.0117,
      "velocity": 101,
      "chip": "ym2612"
    },
    {
      "channel": 1,
      "note": 62,
      "start": 4.0571,
      "duration": 0.0118,
      "velocity": 94,
      "chip": "ym2612"
    },
    {
      "channel": 2,
      "note": 45,
      "start": 4.0573,
      "duration": 0.0122,
      "velocity": 127,
      "chip": "ym2612"
    },
    {
      "channel": 3,
      "note": 86,
      "start": 4.0575,
      "duration": 0.0132,
      "velocity": 101,
      "chip": "ym2612"
    },
    {
      "channel": 4,
      "note": 79,
      "start": 4.0577,
      "duration": 0.0134,
      "velocity": 101,
      "chip": "ym2612"
    },
    {
      "channel": 0,
      "note": 54,
      "start": 4.0689,
      "duration": 0.0045,
      "velocity": 101,
      "chip": "ym2612"
    },
    {
      "channel": 1,
      "note": 54,
      "start": 4.0693,
      "duration": 0.0044,
      "velocity": 94,
      "chip": "ym2612"
    },
    {
      "channel": 2,
      "note": 45,
      "start": 4.0706,
      "duration": 0.0033,
      "velocity": 127,
      "chip": "ym2612"
    },
    {
      "channel": 3,
      "note": 78,
      "start": 4.071,
      "duration": 0.0031,
      "velocity": 101,
      "chip": "ym2612"
    },
    {
      "channel": 4,
      "note": 71,
      "start": 4.0714,
      "duration": 0.0029,
      "velocity": 101,
      "chip": "ym2612"
    },
    {
      "channel": 0,
      "note": 61,
      "start": 4.0737,
      "duration": 0.012,
      "velocity": 101,
      "chip": "ym2612"
    },
    {
      "channel": 1,
      "note": 61,
      "start": 4.0739,
      "duration": 0.0121,
      "velocity": 94,
      "chip": "ym2612"
    },
    {
      "channel": 2,
      "note": 45,
      "start": 4.0741,
      "duration": 0.0121,
      "velocity": 127,
      "chip": "ym2612"
    },
    {
      "channel": 3,
      "note": 85,
      "start": 4.0743,
      "duration": 0.0132,
      "velocity": 101,
      "chip": "ym2612"
    },
    {
      "channel": 4,
      "note": 78,
      "start": 4.0745,
      "duration": 0.0132,
      "velocity": 101,
      "chip": "ym2612"
    },
    {
      "channel": 0,
      "note": 66,
      "start": 4.0859,
      "duration": 0.0041,
      "velocity": 101,
      "chip": "ym2612"
    },
    {
      "channel": 1,
      "note": 66,
      "start": 4.0861,
      "duration": 0.0041,
      "velocity": 94,
      "chip": "ym2612"
    },
    {
      "channel": 2,
      "note": 45,
      "start": 4.0873,
      "duration": 0.0032,
      "velocity": 127,
      "chip": "ym2612"
    },
    {
      "channel": 3,
      "note": 90,
      "start": 4.0877,
      "duration": 0.0031,
      "velocity": 101,
      "chip": "ym2612"
    },
    {
      "channel": 4,
      "note": 83,
      "start": 4.0879,
      "duration": 0.0031,
      "velocity": 101,
      "chip": "ym2612"
    },
    {
      "channel": 0,
      "note": 61,
      "start": 4.0902,
      "duration": 0.0034,
      "velocity": 101,
      "chip": "ym2612"
    },
    {
      "channel": 1,
      "note": 61,
      "start": 4.0905,
      "duration": 0.0034,
      "velocity": 94,
      "chip": "ym2612"
    },
    {
      "channel": 2,
      "note": 45,
      "start": 4.0907,
      "duration": 0.0034,
      "velocity": 127,
      "chip": "ym2612"
    },
    {
      "channel": 3,
      "note": 85,
      "start": 4.091,
      "duration": 0.0046,
      "velocity": 101,
      "chip": "ym2612"
    },
    {
      "channel": 4,
      "note": 78,
      "start": 4.0914,
      "duration": 0.0046,
      "velocity": 101,
      "chip": "ym2612"
    },
    {
      "channel": 0,
      "note": 54,
      "start": 4.0938,
      "duration": 0.0048,
      "velocity": 101,
      "chip": "ym2612"
    },
    {
      "channel": 1,
      "note": 54,
      "start": 4.094,
      "duration": 0.0048,
      "velocity": 94,
      "chip": "ym2612"
    },
    {
      "channel": 2,
      "note": 45,
      "start": 4.0955,
      "duration": 0.0035,
      "velocity": 127,
      "chip": "ym2612"
    },
    {
      "channel": 3,
      "note": 78,
      "start": 4.0959,
      "duration": 0.0033,
      "velocity": 101,
      "chip": "ym2612"
    },
    {
      "channel": 4,
      "note": 71,
      "start": 4.0963,
      "duration": 0.0032,
      "velocity": 101,
      "chip": "ym2612"
    },
    {
      "channel": 0,
      "note": 61,
      "start": 4.0988,
      "duration": 0.003,
      "velocity": 101,
      "chip": "ym2612"
    },
    {
      "channel": 1,
      "note": 61,
      "start": 4.099,
      "duration": 0.003,
      "velocity": 94,
      "chip": "ym2612"
    },
    {
      "channel": 2,
      "note": 45,
      "start": 4.0991,
      "duration": 0.0031,
      "velocity": 127,
      "chip": "ym2612"
    },
    {
      "channel": 3,
      "note": 85,
      "start": 4.0994,
      "duration": 0.0041,
      "velocity": 101,
      "chip": "ym2612"
    },
    {
      "channel": 4,
      "note": 78,
      "start": 4.0996,
      "duration": 0.0041,
      "velocity": 101,
      "chip": "ym2612"
    },
    {
      "channel": 0,
      "note": 66,
      "start": 4.102,
      "duration": 0.0138,
      "velocity": 101,
      "chip": "ym2612"
    },
    {
      "channel": 1,
      "note": 66,
      "start": 4.1022,
      "duration": 0.0139,
      "velocity": 94,
      "chip": "ym2612"
    },
    {
      "channel": 2,
      "note": 45,
      "start": 4.1034,
      "duration": 0.0129,
      "velocity": 127,
      "chip": "ym2612"
    },
    {
      "channel": 3,
      "note": 90,
      "start": 4.1037,
      "duration": 0.0129,
      "velocity": 101,
      "chip": "ym2612"
    },
    {
      "channel": 4,
      "note": 83,
      "start": 4.1039,
      "duration": 0.0129,
      "velocity": 101,
      "chip": "ym2612"
    },
    {
      "channel": 0,
      "note": 61,
      "start": 4.116,
      "duration": 0.0029,
      "velocity": 101,
      "chip": "ym2612"
    },
    {
      "channel": 1,
      "note": 61,
      "start": 4.1163,
      "duration": 0.0029,
      "velocity": 94,
      "chip": "ym2612"
    },
    {
      "channel": 2,
      "note": 45,
      "start": 4.1165,
      "duration": 0.0029,
      "velocity": 127,
      "chip": "ym2612"
    },
    {
      "channel": 3,
      "note": 85,
      "start": 4.1168,
      "duration": 0.004,
      "velocity": 101,
      "chip": "ym2612"
    },
    {
      "channel": 4,
      "note": 78,
      "start": 4.1171,
      "duration": 0.004,
      "velocity": 101,
      "chip": "ym2612"
    },
    {
      "channel": 0,
      "note": 54,
      "start": 4.1191,
      "duration": 0.0043,
      "velocity": 101,
      "chip": "ym2612"
    },
    {
      "channel": 1,
      "note": 54,
      "start": 4.1194,
      "duration": 0.0043,
      "velocity": 94,
      "chip": "ym2612"
    },
    {
      "channel": 2,
      "note": 45,
      "start": 4.1207,
      "duration": 0.0032,
      "velocity": 127,
      "chip": "ym2612"
    },
    {
      "channel": 3,
      "note": 78,
      "start": 4.121,
      "duration": 0.0031,
      "velocity": 101,
      "chip": "ym2612"
    },
    {
      "channel": 4,
      "note": 71,
      "start": 4.1213,
      "duration": 0.003,
      "velocity": 101,
      "chip": "ym2612"
    },
    {
      "channel": 0,
      "note": 61,
      "start": 4.1236,
      "duration": 0.0027,
      "velocity": 101,
      "chip": "ym2612"
    },
    {
      "channel": 1,
      "note": 61,
      "start": 4.1239,
      "duration": 0.0028,
      "velocity": 94,
      "chip": "ym2612"
    },
    {
      "channel": 2,
      "note": 45,
      "start": 4.124,
      "duration": 0.0029,
      "velocity": 127,
      "chip": "ym2612"
    },
    {
      "channel": 3,
      "note": 85,
      "start": 4.1243,
      "duration": 0.0041,
      "velocity": 101,
      "chip": "ym2612"
    },
    {
      "channel": 4,
      "note": 78,
      "start": 4.1245,
      "duration": 0.0041,
      "velocity": 101,
      "chip": "ym2612"
    },
    {
      "channel": 0,
      "note": 66,
      "start": 4.1266,
      "duration": 0.0048,
      "velocity": 101,
      "chip": "ym2612"
    },
    {
      "channel": 1,
      "note": 66,
      "start": 4.1268,
      "duration": 0.0048,
      "velocity": 94,
      "chip": "ym2612"
    },
    {
      "channel": 2,
      "note": 45,
      "start": 4.1283,
      "duration": 0.0037,
      "velocity": 127,
      "chip": "ym2612"
    },
    {
      "channel": 3,
      "note": 90,
      "start": 4.1286,
      "duration": 0.0036,
      "velocity": 101,
      "chip": "ym2612"
    },
    {
      "channel": 4,
      "note": 83,
      "start": 4.1289,
      "duration": 0.0035,
      "velocity": 101,
      "chip": "ym2612"
    },
    {
      "channel": 0,
      "note": 61,
      "start": 4.1315,
      "duration": 0.0122,
      "velocity": 101,
      "chip": "ym2612"
    },
    {
      "channel": 1,
      "note": 61,
      "start": 4.1319,
      "duration": 0.0123,
      "velocity": 94,
      "chip": "ym2612"
    },
    {
      "channel": 2,
      "note": 45,
      "start": 4.1321,
      "duration": 0.0124,
      "velocity": 127,
      "chip": "ym2612"
    },
    {
      "channel": 3,
      "note": 85,
      "start": 4.1324,
      "duration": 0.0135,
      "velocity": 101,
      "chip": "ym2612"
    },
    {
      "channel": 4,
      "note": 78,
      "start": 4.1326,
      "duration": 0.0136,
      "velocity": 101,
      "chip": "ym2612"
    },
    {
      "channel": 0,
      "note": 57,
      "start": 4.1441,
      "duration": 0.0049,
      "velocity": 101,
      "chip": "ym2612"
    },
    {
      "channel": 1,
      "note": 57,
      "start": 4.1444,
      "duration": 0.0048,
      "velocity": 94,
      "chip": "ym2612"
    },
    {
      "channel": 2,
      "note": 45,
      "start": 4.1458,
      "duration": 0.0037,
      "velocity": 127,
      "chip": "ym2612"
    },
    {
      "channel": 3,
      "note": 81,
      "start": 4.1461,
      "duration": 0.0036,
      "velocity": 101,
      "chip": "ym2612"
    },
    {
      "channel": 4,
      "note": 74,
      "start": 4.1465,
      "duration": 0.0035,
      "velocity": 101,
      "chip": "ym2612"
    },
    {
      "channel": 0,
      "note": 64,
      "start": 4.1492,
      "duration": 0.0123,
      "velocity": 101,
      "chip": "ym2612"
    },
    {
      "channel": 1,
      "note": 64,
      "start": 4.1494,
      "duration": 0.0124,
      "velocity": 94,
      "chip": "ym2612"
    },
    {
      "channel": 2,
      "note": 45,
      "start": 4.1496,
      "duration": 0.0124,
      "velocity": 127,
      "chip": "ym2612"
    },
    {
      "channel": 3,
      "note": 88,
      "start": 4.1498,
      "duration": 0.0134,
      "velocity": 101,
      "chip": "ym2612"
    },
    {
      "channel": 4,
      "note": 81,
      "start": 4.1501,
      "duration": 0.0134,
      "velocity": 101,
      "chip": "ym2612"
    },
    {
      "channel": 0,
      "note": 69,
      "start": 4.1617,
      "duration": 0.0041,
      "velocity": 101,
      "chip": "ym2612"
    },
    {
      "channel": 1,
      "note": 69,
      "start": 4.162,
      "duration": 0.004,
      "velocity": 94,
      "chip": "ym2612"
    },
    {
      "channel": 2,
      "note": 45,
      "start": 4.1632,
      "duration": 0.0031,
      "velocity": 127,
      "chip": "ym2612"
    },
    {
      "channel": 3,
      "note": 93,
      "start": 4.1635,
      "duration": 0.0029,
      "velocity": 101,
      "chip": "ym2612"
    },
    {
      "channel": 4,
      "note": 86,
      "start": 4.1637,
      "duration": 0.003,
      "velocity": 101,
      "chip": "ym2612"
    },
    {
      "channel": 0,
      "note": 64,
      "start": 4.1659,
      "duration": 0.0036,
      "velocity": 101,
      "chip": "ym2612"
    },
    {
      "channel": 1,
      "note": 64,
      "start": 4.1662,
      "duration": 0.0035,
      "velocity": 94,
      "chip": "ym2612"
    },
    {
      "channel": 2,
      "note": 45,
      "start": 4.1664,
      "duration": 0.0036,
      "velocity": 127,
      "chip": "ym2612"
    },
    {
      "channel": 3,
      "note": 88,
      "start": 4.1667,
      "duration": 0.0047,
      "velocity": 101,
      "chip": "ym2612"
    },
    {
      "channel": 4,
      "note": 81,
      "start": 4.1671,
      "duration": 0.0047,
      "velocity": 101,
      "chip": "ym2612"
    },
    {
      "channel": 0,
      "note": 57,
      "start": 4.1697,
      "duration": 0.0047,
      "velocity": 101,
      "chip": "ym2612"
    },
    {
      "channel": 1,
      "note": 57,
      "start": 4.1699,
      "duration": 0.0046,
      "velocity": 94,
      "chip": "ym2612"
    },
    {
      "channel": 2,
      "note": 45,
      "start": 4.1713,
      "duration": 0.0034,
      "velocity": 127,
      "chip": "ym2612"
    },
    {
      "channel": 3,
      "note": 81,
      "start": 4.1717,
      "duration": 0.0032,
      "velocity": 101,
      "chip": "ym2612"
    },
    {
      "channel": 4,
      "note": 74,
      "start": 4.1721,
      "duration": 0.0031,
      "velocity": 101,
      "chip": "ym2612"
    },
    {
      "channel": 0,
      "note": 64,
      "start": 4.1745,
      "duration": 0.0031,
      "velocity": 101,
      "chip": "ym2612"
    },
    {
      "channel": 1,
      "note": 64,
      "start": 4.1747,
      "duration": 0.003,
      "velocity": 94,
      "chip": "ym2612"
    },
    {
      "channel": 2,
      "note": 45,
      "start": 4.1749,
      "duration": 0.0032,
      "velocity": 127,
      "chip": "ym2612"
    },
    {
      "channel": 3,
      "note": 88,
      "start": 4.1751,
      "duration": 0.0044,
      "velocity": 101,
      "chip": "ym2612"
    },
    {
      "channel": 4,
      "note": 81,
      "start": 4.1753,
      "duration": 0.0044,
      "velocity": 101,
      "chip": "ym2612"
    },
    {
      "channel": 0,
      "note": 69,
      "start": 4.1777,
      "duration": 0.014,
      "velocity": 101,
      "chip": "ym2612"
    },
    {
      "channel": 1,
      "note": 69,
      "start": 4.178,
      "duration": 0.0139,
      "velocity": 94,
      "chip": "ym2612"
    },
    {
      "channel": 2,
      "note": 45,
      "start": 4.1794,
      "duration": 0.0128,
      "velocity": 127,
      "chip": "ym2612"
    },
    {
      "channel": 3,
      "note": 93,
      "start": 4.1797,
      "duration": 0.0128,
      "velocity": 101,
      "chip": "ym2612"
    },
    {
      "channel": 4,
      "note": 86,
      "start": 4.18,
      "duration": 0.0128,
      "velocity": 101,
      "chip": "ym2612"
    },
    {
      "channel": 0,
      "note": 64,
      "start": 4.1919,
      "duration": 0.0031,
      "velocity": 101,
      "chip": "ym2612"
    },
    {
      "channel": 1,
      "note": 64,
      "start": 4.1922,
      "duration": 0.0031,
      "velocity": 94,
      "chip": "ym2612"
    },
    {
      "channel": 2,
      "note": 45,
      "start": 4.1924,
      "duration": 0.0031,
      "velocity": 127,
      "chip": "ym2612"
    },
    {
      "channel": 3,
      "note": 88,
      "start": 4.1927,
      "duration": 0.0041,
      "velocity": 101,
      "chip": "ym2612"
    },
    {
      "channel": 4,
      "note": 81,
      "start": 4.1929,
      "duration": 0.004,
      "velocity": 101,
      "chip": "ym2612"
    },
    {
      "channel": 0,
      "note": 57,
      "start": 4.1952,
      "duration": 0.0055,
      "velocity": 101,
      "chip": "ym2612"
    },
    {
      "channel": 1,
      "note": 57,
      "start": 4.1955,
      "duration": 0.0055,
      "velocity": 94,
      "chip": "ym2612"
    },
    {
      "channel": 2,
      "note": 45,
      "start": 4.1967,
      "duration": 0.0045,
      "velocity": 127,
      "chip": "ym2612"
    },
    {
      "channel": 3,
      "note": 81,
      "start": 4.1969,
      "duration": 0.0045,
      "velocity": 101,
      "chip": "ym2612"
    },
    {
      "channel": 4,
      "note": 74,
      "start": 4.1972,
      "duration": 0.0043,
      "velocity": 101,
      "chip": "ym2612"
    },
    {
      "channel": 0,
      "note": 64,
      "start": 4.2009,
      "duration": 0.0029,
      "velocity": 101,
      "chip": "ym2612"
    },
    {
      "channel": 1,
      "note": 64,
      "start": 4.2012,
      "duration": 0.0029,
      "velocity": 94,
      "chip": "ym2612"
    },
    {
      "channel": 2,
      "note": 45,
      "start": 4.2013,
      "duration": 0.003,
      "velocity": 127,
      "chip": "ym2612"
    },
    {
      "channel": 3,
      "note": 88,
      "start": 4.2015,
      "duration": 0.0042,
      "velocity": 101,
      "chip": "ym2612"
    },
    {
      "channel": 4,
      "note": 81,
      "start": 4.2018,
      "duration": 0.0042,
      "velocity": 101,
      "chip": "ym2612"
    },
    {
      "channel": 0,
      "note": 69,
      "start": 4.2041,
      "duration": 0.0058,
      "velocity": 101,
      "chip": "ym2612"
    },
    {
      "channel": 1,
      "note": 69,
      "start": 4.2043,
      "duration": 0.0058,
      "velocity": 94,
      "chip": "ym2612"
    },
    {
      "channel": 2,
      "note": 45,
      "start": 4.2056,
      "duration": 0.0048,
      "velocity": 127,
      "chip": "ym2612"
    },
    {
      "channel": 3,
      "note": 93,
      "start": 4.206,
      "duration": 0.0046,
      "velocity": 101,
      "chip": "ym2612"
    },
    {
      "channel": 4,
      "note": 86,
      "start": 4.2062,
      "duration": 0.0045,
      "velocity": 101,
      "chip": "ym2612"
    },
    {
      "channel": 0,
      "note": 64,
      "start": 4.21,
      "duration": 0.0032,
      "velocity": 101,
      "chip": "ym2612"
    },
    {
      "channel": 1,
      "note": 64,
      "start": 4.2104,
      "duration": 0.0032,
      "velocity": 94,
      "chip": "ym2612"
    },
    {
      "channel": 2,
      "note": 45,
      "start": 4.2105,
      "duration": 0.0034,
      "velocity": 127,
      "chip": "ym2612"
    },
    {
      "channel": 3,
      "note": 88,
      "start": 4.2107,
      "duration": 0.0046,
      "velocity": 101,
      "chip": "ym2612"
    },
    {
      "channel": 4,
      "note": 81,
      "start": 4.2109,
      "duration": 0.0047,
      "velocity": 101,
      "chip": "ym2612"
    },
    {
      "channel": 0,
      "note": 52,
      "start": 4.2135,
      "duration": 0.0047,
      "velocity": 101,
      "chip": "ym2612"
    },
    {
      "channel": 1,
      "note": 52,
      "start": 4.2138,
      "duration": 0.0046,
      "velocity": 94,
      "chip": "ym2612"
    },
    {
      "channel": 2,
      "note": 45,
      "start": 4.2153,
      "duration": 0.0034,
      "velocity": 127,
      "chip": "ym2612"
    },
    {
      "channel": 4,
      "note": 69,
      "start": 4.2163,
      "duration": 0.0027,
      "velocity": 101,
      "chip": "ym2612"
    },
    {
      "channel": 0,
      "note": 59,
      "start": 4.2183,
      "duration": 0.0104,
      "velocity": 101,
      "chip": "ym2612"
    },
    {
      "channel": 1,
      "note": 59,
      "start": 4.2186,
      "duration": 0.0104,
      "velocity": 94,
      "chip": "ym2612"
    },
    {
      "channel": 2,
      "note": 45,
      "start": 4.2188,
      "duration": 0.0105,
      "velocity": 127,
      "chip": "ym2612"
    },
    {
      "channel": 4,
      "note": 76,
      "start": 4.2192,
      "duration": 0.0114,
      "velocity": 101,
      "chip": "ym2612"
    },
    {
      "channel": 0,
      "note": 64,
      "start": 4.229,
      "duration": 0.0038,
      "velocity": 101,
      "chip": "ym2612"
    },
    {
      "channel": 1,
      "note": 64,
      "start": 4.2292,
      "duration": 0.0038,
      "velocity": 94,
      "chip": "ym2612"
    },
    {
      "channel": 2,
      "note": 45,
      "start": 4.2304,
      "duration": 0.0029,
      "velocity": 127,
      "chip": "ym2612"
    },
    {
      "channel": 4,
      "note": 81,
      "start": 4.2308,
      "duration": 0.0029,
      "velocity": 101,
      "chip": "ym2612"
    },
    {
      "channel": 0,
      "note": 59,
      "start": 4.2329,
      "duration": 0.0033,
      "velocity": 101,
      "chip": "ym2612"
    },
    {
      "channel": 1,
      "note": 59,
      "start": 4.2332,
      "duration": 0.0033,
      "velocity": 94,
      "chip": "ym2612"
    },
    {
      "channel": 2,
      "note": 45,
      "start": 4.2335,
      "duration": 0.0032,
      "velocity": 127,
      "chip": "ym2612"
    },
    {
      "channel": 4,
      "note": 76,
      "start": 4.234,
      "duration": 0.0044,
      "velocity": 101,
      "chip": "ym2612"
    },
    {
      "channel": 0,
      "note": 52,
      "start": 4.2364,
      "duration": 0.0044,
      "velocity": 101,
      "chip": "ym2612"
    },
    {
      "channel": 1,
      "note": 52,
      "start": 4.2367,
      "duration": 0.0043,
      "velocity": 94,
      "chip": "ym2612"
    },
    {
      "channel": 2,
      "note": 45,
      "start": 4.2382,
      "duration": 0.003,
      "velocity": 127,
      "chip": "ym2612"
    },
    {
      "channel": 4,
      "note": 69,
      "start": 4.2387,
      "duration": 0.0027,
      "velocity": 101,
      "chip": "ym2612"
    },
    {
      "channel": 0,
      "note": 59,
      "start": 4.241,
      "duration": 0.0032,
      "velocity": 101,
      "chip": "ym2612"
    },
    {
      "channel": 1,
      "note": 59,
      "start": 4.2411,
      "duration": 0.0032,
      "velocity": 94,
      "chip": "ym2612"
    },
    {
      "channel": 2,
      "note": 45,
      "start": 4.2413,
      "duration": 0.0032,
      "velocity": 127,
      "chip": "ym2612"
    },
    {
      "channel": 4,
      "note": 76,
      "start": 4.2417,
      "duration": 0.0044,
      "velocity": 101,
      "chip": "ym2612"
    },
    {
      "channel": 0,
      "note": 64,
      "start": 4.2442,
      "duration": 0.0139,
      "velocity": 101,
      "chip": "ym2612"
    },
    {
      "channel": 1,
      "note": 64,
      "start": 4.2445,
      "duration": 0.014,
      "velocity": 94,
      "chip": "ym2612"
    },
    {
      "channel": 2,
      "note": 45,
      "start": 4.2459,
      "duration": 0.0129,
      "velocity": 127,
      "chip": "ym2612"
    },
    {
      "channel": 4,
      "note": 81,
      "start": 4.2463,
      "duration": 0.0128,
      "velocity": 101,
      "chip": "ym2612"
    },
    {
      "channel": 0,
      "note": 59,
      "start": 4.2584,
      "duration": 0.0032,
      "velocity": 101,
      "chip": "ym2612"
    },
    {
      "channel": 1,
      "note": 59,
      "start": 4.2587,
      "duration": 0.0031,
      "velocity": 94,
      "chip": "ym2612"
    },
    {
      "channel": 2,
      "note": 45,
      "start": 4.2589,
      "duration": 0.0031,
      "velocity": 127,
      "chip": "ym2612"
    },
    {
      "channel": 4,
      "note": 76,
      "start": 4.2593,
      "duration": 0.0041,
      "velocity": 101,
      "chip": "ym2612"
    },
    {
      "channel": 0,
      "note": 52,
      "start": 4.2617,
      "duration": 0.0041,
      "velocity": 101,
      "chip": "ym2612"
    },
    {
      "channel": 1,
      "note": 52,
      "start": 4.262,
      "duration": 0.0041,
      "velocity": 94,
      "chip": "ym2612"
    },
    {
      "channel": 2,
      "note": 45,
      "start": 4.2633,
      "duration": 0.0029,
      "velocity": 127,
      "chip": "ym2612"
    },
    {
      "channel": 4,
      "note": 69,
      "start": 4.2637,
      "duration": 0.0027,
      "velocity": 101,
      "chip": "ym2612"
    },
    {
      "channel": 0,
      "note": 59,
      "start": 4.2659,
      "duration": 0.0024,
      "velocity": 101,
      "chip": "ym2612"
    },
    {
      "channel": 1,
      "note": 59,
      "start": 4.2661,
      "duration": 0.0024,
      "velocity": 94,
      "chip": "ym2612"
    },
    {
      "channel": 2,
      "note": 45,
      "start": 4.2662,
      "duration": 0.0025,
      "velocity": 127,
      "chip": "ym2612"
    },
    {
      "channel": 4,
      "note": 76,
      "start": 4.2666,
      "duration": 0.0039,
      "velocity": 101,
      "chip": "ym2612"
    },
    {
      "channel": 0,
      "note": 64,
      "start": 4.2685,
      "duration": 0.0045,
      "velocity": 101,
      "chip": "ym2612"
    },
    {
      "channel": 1,
      "note": 64,
      "start": 4.2687,
      "duration": 0.0046,
      "velocity": 94,
      "chip": "ym2612"
    },
    {
      "channel": 2,
      "note": 45,
      "start": 4.2702,
      "duration": 0.0032,
      "velocity": 127,
      "chip": "ym2612"
    },
    {
      "channel": 4,
      "note": 81,
      "start": 4.2707,
      "duration": 0.0031,
      "velocity": 101,
      "chip": "ym2612"
    },
    {
      "channel": 0,
      "note": 59,
      "start": 4.2732,
      "duration": 0.0119,
      "velocity": 101,
      "chip": "ym2612"
    },
    {
      "channel": 1,
      "note": 59,
      "start": 4.2734,
      "duration": 0.012,
      "velocity": 94,
      "chip": "ym2612"
    },
    {
      "channel": 2,
      "note": 45,
      "start": 4.2736,
      "duration": 0.0121,
      "velocity": 127,
      "chip": "ym2612"
    },
    {
      "channel": 4,
      "note": 76,
      "start": 4.2739,
      "duration": 0.0133,
      "velocity": 101,
      "chip": "ym2612"
    },
    {
      "channel": 0,
      "note": 55,
      "start": 4.2854,
      "duration": 0.0046,
      "velocity": 101,
      "chip": "ym2612"
    },
    {
      "channel": 1,
      "note": 55,
      "start": 4.2857,
      "duration": 0.0045,
      "velocity": 94,
      "chip": "ym2612"
    },
    {
      "channel": 2,
      "note": 45,
      "start": 4.287,
      "duration": 0.0034,
      "velocity": 127,
      "chip": "ym2612"
    },
    {
      "channel": 4,
      "note": 72,
      "start": 4.2876,
      "duration": 0.0031,
      "velocity": 101,
      "chip": "ym2612"
    },
    {
      "channel": 0,
      "note": 62,
      "start": 4.2901,
      "duration": 0.0126,
      "velocity": 101,
      "chip": "ym2612"
    },
    {
      "channel": 1,
      "note": 62,
      "start": 4.2904,
      "duration": 0.0126,
      "velocity": 94,
      "chip": "ym2612"
    },
    {
      "channel": 2,
      "note": 45,
      "start": 4.2905,
      "duration": 0.0127,
      "velocity": 127,
      "chip": "ym2612"
    },
    {
      "channel": 4,
      "note": 79,
      "start": 4.2908,
      "duration": 0.0138,
      "velocity": 101,
      "chip": "ym2612"
    },
    {
      "channel": 0,
      "note": 67,
      "start": 4.3029,
      "duration": 0.0038,
      "velocity": 101,
      "chip": "ym2612"
    },
    {
      "channel": 1,
      "note": 67,
      "start": 4.3032,
      "duration": 0.0038,
      "velocity": 94,
      "chip": "ym2612"
    },
    {
      "channel": 2,
      "note": 45,
      "start": 4.3044,
      "duration": 0.0029,
      "velocity": 127,
      "chip": "ym2612"
    },
    {
      "channel": 4,
      "note": 84,
      "start": 4.3048,
      "duration": 0.003,
      "velocity": 101,
      "chip": "ym2612"
    },
    {
      "channel": 0,
      "note": 62,
      "start": 4.3069,
      "duration": 0.0034,
      "velocity": 101,
      "chip": "ym2612"
    },
    {
      "channel": 1,
      "note": 62,
      "start": 4.3073,
      "duration": 0.0033,
      "velocity": 94,
      "chip": "ym2612"
    },
    {
      "channel": 2,
      "note": 45,
      "start": 4.3076,
      "duration": 0.0032,
      "velocity": 127,
      "chip": "ym2612"
    },
    {
      "channel": 4,
      "note": 79,
      "start": 4.3081,
      "duration": 0.0044,
      "velocity": 101,
      "chip": "ym2612"
    },
    {
      "channel": 0,
      "note": 55,
      "start": 4.3105,
      "duration": 0.0043,
      "velocity": 101,
      "chip": "ym2612"
    },
    {
      "channel": 1,
      "note": 55,
      "start": 4.3107,
      "duration": 0.0043,
      "velocity": 94,
      "chip": "ym2612"
    },
    {
      "channel": 2,
      "note": 45,
      "start": 4.3122,
      "duration": 0.003,
      "velocity": 127,
      "chip": "ym2612"
    },
    {
      "channel": 4,
      "note": 72,
      "start": 4.3128,
      "duration": 0.0027,
      "velocity": 101,
      "chip": "ym2612"
    },
    {
      "channel": 0,
      "note": 62,
      "start": 4.315,
      "duration": 0.0027,
      "velocity": 101,
      "chip": "ym2612"
    },
    {
      "channel": 1,
      "note": 62,
      "start": 4.3152,
      "duration": 0.0027,
      "velocity": 94,
      "chip": "ym2612"
    },
    {
      "channel": 2,
      "note": 45,
      "start": 4.3154,
      "duration": 0.0028,
      "velocity": 127,
      "chip": "ym2612"
    },
    {
      "channel": 4,
      "note": 79,
      "start": 4.3158,
      "duration": 0.0036,
      "velocity": 101,
      "chip": "ym2612"
    },
    {
      "channel": 0,
      "note": 67,
      "start": 4.3178,
      "duration": 0.0139,
      "velocity": 101,
      "chip": "ym2612"
    },
    {
      "channel": 1,
      "note": 67,
      "start": 4.3181,
      "duration": 0.0139,
      "velocity": 94,
      "chip": "ym2612"
    },
    {
      "channel": 2,
      "note": 45,
      "start": 4.3193,
      "duration": 0.013,
      "velocity": 127,
      "chip": "ym2612"
    },
    {
      "channel": 4,
      "note": 84,
      "start": 4.3197,
      "duration": 0.0129,
      "velocity": 101,
      "chip": "ym2612"
    },
    {
      "channel": 0,
      "note": 62,
      "start": 4.332,
      "duration": 0.0032,
      "velocity": 101,
      "chip": "ym2612"
    },
    {
      "channel": 1,
      "note": 62,
      "start": 4.3322,
      "duration": 0.0032,
      "velocity": 94,
      "chip": "ym2612"
    },
    {
      "channel": 2,
      "note": 45,
      "start": 4.3325,
      "duration": 0.0031,
      "velocity": 127,
      "chip": "ym2612"
    },
    {
      "channel": 4,
      "note": 79,
      "start": 4.3328,
      "duration": 0.0044,
      "velocity": 101,
      "chip": "ym2612"
    },
    {
      "channel": 0,
      "note": 55,
      "start": 4.3354,
      "duration": 0.0041,
      "velocity": 101,
      "chip": "ym2612"
    },
    {
      "channel": 1,
      "note": 55,
      "start": 4.3356,
      "duration": 0.0041,
      "velocity": 94,
      "chip": "ym2612"
    },
    {
      "channel": 2,
      "note": 45,
      "start": 4.3369,
      "duration": 0.003,
      "velocity": 127,
      "chip": "ym2612"
    },
    {
      "channel": 4,
      "note": 72,
      "start": 4.3374,
      "duration": 0.0028,
      "velocity": 101,
      "chip": "ym2612"
    },
    {
      "channel": 0,
      "note": 62,
      "start": 4.3396,
      "duration": 0.0024,
      "velocity": 101,
      "chip": "ym2612"
    },
    {
      "channel": 1,
      "note": 62,
      "start": 4.3399,
      "duration": 0.0024,
      "velocity": 94,
      "chip": "ym2612"
    },
    {
      "channel": 2,
      "note": 45,
      "start": 4.3401,
      "duration": 0.0025,
      "velocity": 127,
      "chip": "ym2612"
    },
    {
      "channel": 4,
      "note": 79,
      "start": 4.3404,
      "duration": 0.0038,
      "velocity": 101,
      "chip": "ym2612"
    },
    {
      "channel": 0,
      "note": 67,
      "start": 4.3422,
      "duration": 0.0042,
      "velocity": 101,
      "chip": "ym2612"
    },
    {
      "channel": 1,
      "note": 67,
      "start": 4.3425,
      "duration": 0.0042,
      "velocity": 94,
      "chip": "ym2612"
    },
    {
      "channel": 2,
      "note": 45,
      "start": 4.3441,
      "duration": 0.0029,
      "velocity": 127,
      "chip": "ym2612"
    },
    {
      "channel": 4,
      "note": 84,
      "start": 4.3444,
      "duration": 0.0028,
      "velocity": 101,
      "chip": "ym2612"
    },
    {
      "channel": 0,
      "note": 62,
      "start": 4.3466,
      "duration": 0.012,
      "velocity": 101,
      "chip": "ym2612"
    },
    {
      "channel": 1,
      "note": 62,
      "start": 4.3469,
      "duration": 0.012,
      "velocity": 94,
      "chip": "ym2612"
    },
    {
      "channel": 2,
      "note": 45,
      "start": 4.3471,
      "duration": 0.0122,
      "velocity": 127,
      "chip": "ym2612"
    },
    {
      "channel": 4,
      "note": 79,
      "start": 4.3474,
      "duration": 0.0135,
      "velocity": 101,
      "chip": "ym2612"
    },
    {
      "channel": 0,
      "note": 54,
      "start": 4.3589,
      "duration": 0.0044,
      "velocity": 101,
      "chip": "ym2612"
    },
    {
      "channel": 1,
      "note": 54,
      "start": 4.3593,
      "duration": 0.0041,
      "velocity": 94,
      "chip": "ym2612"
    },
    {
      "channel": 2,
      "note": 45,
      "start": 4.3606,
      "duration": 0.0031,
      "velocity": 127,
      "chip": "ym2612"
    },
    {
      "channel": 4,
      "note": 71,
      "start": 4.3612,
      "duration": 0.0027,
      "velocity": 101,
      "chip": "ym2612"
    },
    {
      "channel": 0,
      "note": 61,
      "start": 4.3634,
      "duration": 0.0122,
      "velocity": 101,
      "chip": "ym2612"
    },
    {
      "channel": 1,
      "note": 61,
      "start": 4.3637,
      "duration": 0.0122,
      "velocity": 94,
      "chip": "ym2612"
    },
    {
      "channel": 2,
      "note": 45,
      "start": 4.3638,
      "duration": 0.0123,
      "velocity": 127,
      "chip": "ym2612"
    },
    {
      "channel": 4,
      "note": 78,
      "start": 4.364,
      "duration": 0.0135,
      "velocity": 101,
      "chip": "ym2612"
    },
    {
      "channel": 0,
      "note": 66,
      "start": 4.3758,
      "duration": 0.0037,
      "velocity": 101,
      "chip": "ym2612"
    },
    {
      "channel": 1,
      "note": 66,
      "start": 4.3761,
      "duration": 0.0037,
      "velocity": 94,
      "chip": "ym2612"
    },
    {
      "channel": 2,
      "note": 45,
      "start": 4.3773,
      "duration": 0.0029,
      "velocity": 127,
      "chip": "ym2612"
    },
    {
      "channel": 4,
      "note": 83,
      "start": 4.3777,
      "duration": 0.003,
      "velocity": 101,
      "chip": "ym2612"
    },
    {
      "channel": 0,
      "note": 61,
      "start": 4.3797,
      "duration": 0.0034,
      "velocity": 101,
      "chip": "ym2612"
    },
    {
      "channel": 1,
      "note": 61,
      "start": 4.3801,
      "duration": 0.0033,
      "velocity": 94,
      "chip": "ym2612"
    },
    {
      "channel": 2,
      "note": 45,
      "start": 4.3804,
      "duration": 0.0032,
      "velocity": 127,
      "chip": "ym2612"
    },
    {
      "channel": 4,
      "note": 78,
      "start": 4.3809,
      "duration": 0.0044,
      "velocity": 101,
      "chip": "ym2612"
    },
    {
      "channel": 0,
      "note": 54,
      "start": 4.3833,
      "duration": 0.0043,
      "velocity": 101,
      "chip": "ym2612"
    },
    {
      "channel": 1,
      "note": 54,
      "start": 4.3836,
      "duration": 0.0043,
      "velocity": 94,
      "chip": "ym2612"
    },
    {
      "channel": 2,
      "note": 45,
      "start": 4.3851,
      "duration": 0.003,
      "velocity": 127,
      "chip": "ym2612"
    },
    {
      "channel": 4,
      "note": 71,
      "start": 4.3856,
      "duration": 0.0027,
      "velocity": 101,
      "chip": "ym2612"
    },
    {
      "channel": 0,
      "note": 61,
      "start": 4.3878,
      "duration": 0.0027,
      "velocity": 101,
      "chip": "ym2612"
    },
    {
      "channel": 1,
      "note": 61,
      "start": 4.388,
      "duration": 0.0027,
      "velocity": 94,
      "chip": "ym2612"
    },
    {
      "channel": 2,
      "note": 45,
      "start": 4.3882,
      "duration": 0.0028,
      "velocity": 127,
      "chip": "ym2612"
    },
    {
      "channel": 4,
      "note": 78,
      "start": 4.3886,
      "duration": 0.0036,
      "velocity": 101,
      "chip": "ym2612"
    },
    {
      "channel": 0,
      "note": 66,
      "start": 4.3907,
      "duration": 0.0139,
      "velocity": 101,
      "chip": "ym2612"
    },
    {
      "channel": 1,
      "note": 66,
      "start": 4.391,
      "duration": 0.0139,
      "velocity": 94,
      "chip": "ym2612"
    },
    {
      "channel": 2,
      "note": 45,
      "start": 4.3922,
      "duration": 0.013,
      "velocity": 127,
      "chip": "ym2612"
    },
    {
      "channel": 4,
      "note": 83,
      "start": 4.3925,
      "duration": 0.0129,
      "velocity": 101,
      "chip": "ym2612"
    },
    {
      "channel": 0,
      "note": 61,
      "start": 4.4048,
      "duration": 0.0032,
      "velocity": 101,
      "chip": "ym2612"
    },
    {
      "channel": 1,
      "note": 61,
      "start": 4.4051,
      "duration": 0.0032,
      "velocity": 94,
      "chip": "ym2612"
    },
    {
      "channel": 2,
      "note": 45,
      "start": 4.4053,
      "duration": 0.0031,
      "velocity": 127,
      "chip": "ym2612"
    },
    {
      "channel": 4,
      "note": 78,
      "start": 4.4056,
      "duration": 0.0044,
      "velocity": 101,
      "chip": "ym2612"
    },
    {
      "channel": 0,
      "note": 54,
      "start": 4.4082,
      "duration": 0.0041,
      "velocity": 101,
      "chip": "ym2612"
    },
    {
      "channel": 1,
      "note": 54,
      "start": 4.4084,
      "duration": 0.0041,
      "velocity": 94,
      "chip": "ym2612"
    },
    {
      "channel": 2,
      "note": 45,
      "start": 4.4098,
      "duration": 0.003,
      "velocity": 127,
      "chip": "ym2612"
    },
    {
      "channel": 4,
      "note": 71,
      "start": 4.4103,
      "duration": 0.0028,
      "velocity": 101,
      "chip": "ym2612"
    },
    {
      "channel": 0,
      "note": 61,
      "start": 4.4125,
      "duration": 0.0024,
      "velocity": 101,
      "chip": "ym2612"
    },
    {
      "channel": 1,
      "note": 61,
      "start": 4.4128,
      "duration": 0.0024,
      "velocity": 94,
      "chip": "ym2612"
    },
    {
      "channel": 2,
      "note": 45,
      "start": 4.4129,
      "duration": 0.0025,
      "velocity": 127,
      "chip": "ym2612"
    },
    {
      "channel": 4,
      "note": 78,
      "start": 4.4132,
      "duration": 0.0038,
      "velocity": 101,
      "chip": "ym2612"
    },
    {
      "channel": 0,
      "note": 66,
      "start": 4.4151,
      "duration": 0.0042,
      "velocity": 101,
      "chip": "ym2612"
    },
    {
      "channel": 1,
      "note": 66,
      "start": 4.4153,
      "duration": 0.0042,
      "velocity": 94,
      "chip": "ym2612"
    },
    {
      "channel": 2,
      "note": 45,
      "start": 4.4169,
      "duration": 0.0029,
      "velocity": 127,
      "chip": "ym2612"
    },
    {
      "channel": 4,
      "note": 83,
      "start": 4.4173,
      "duration": 0.0028,
      "velocity": 101,
      "chip": "ym2612"
    },
    {
      "channel": 0,
      "note": 61,
      "start": 4.4194,
      "duration": 0.012,
      "velocity": 101,
      "chip": "ym2612"
    },
    {
      "channel": 1,
      "note": 61,
      "start": 4.4198,
      "duration": 0.012,
      "velocity": 94,
      "chip": "ym2612"
    },
    {
      "channel": 2,
      "note": 45,
      "start": 4.4199,
      "duration": 0.0122,
      "velocity": 127,
      "chip": "ym2612"
    },
    {
      "channel": 4,
      "note": 78,
      "start": 4.4202,
      "duration": 0.0134,
      "velocity": 101,
      "chip": "ym2612"
    },
    {
      "channel": 0,
      "note": 53,
      "start": 4.4317,
      "duration": 0.0046,
      "velocity": 101,
      "chip": "ym2612"
    },
    {
      "channel": 1,
      "note": 53,
      "start": 4.4321,
      "duration": 0.0046,
      "velocity": 94,
      "chip": "ym2612"
    },
    {
      "channel": 2,
      "note": 45,
      "start": 4.4334,
      "duration": 0.0035,
      "velocity": 127,
      "chip": "ym2612"
    },
    {
      "channel": 4,
      "note": 70,
      "start": 4.434,
      "duration": 0.0032,
      "velocity": 101,
      "chip": "ym2612"
    },
    {
      "channel": 0,
      "note": 60,
      "start": 4.4366,
      "duration": 0.0125,
      "velocity": 101,
      "chip": "ym2612"
    },
    {
      "channel": 1,
      "note": 60,
      "start": 4.4369,
      "duration": 0.0124,
      "velocity": 94,
      "chip": "ym2612"
    },
    {
      "channel": 2,
      "note": 45,
      "start": 4.4371,
      "duration": 0.0125,
      "velocity": 127,
      "chip": "ym2612"
    },
    {
      "channel": 4,
      "note": 77,
      "start": 4.4374,
      "duration": 0.0136,
      "velocity": 101,
      "chip": "ym2612"
    },
    {
      "channel": 0,
      "note": 65,
      "start": 4.4493,
      "duration": 0.0037,
      "velocity": 101,
      "chip": "ym2612"
    },
    {
      "channel": 1,
      "note": 65,
      "start": 4.4495,
      "duration": 0.0037,
      "velocity": 94,
      "chip": "ym2612"
    },
    {
      "channel": 2,
      "note": 45,
      "start": 4.4508,
      "duration": 0.0028,
      "velocity": 127,
      "chip": "ym2612"
    },
    {
      "channel": 4,
      "note": 82,
      "start": 4.4511,
      "duration": 0.0029,
      "velocity": 101,
      "chip": "ym2612"
    },
    {
      "channel": 0,
      "note": 60,
      "start": 4.4532,
      "duration": 0.0035,
      "velocity": 101,
      "chip": "ym2612"
    },
    {
      "channel": 1,
      "note": 60,
      "start": 4.4535,
      "duration": 0.0034,
      "velocity": 94,
      "chip": "ym2612"
    },
    {
      "channel": 2,
      "note": 45,
      "start": 4.4539,
      "duration": 0.0033,
      "velocity": 127,
      "chip": "ym2612"
    },
    {
      "channel": 4,
      "note": 77,
      "start": 4.4544,
      "duration": 0.0045,
      "velocity": 101,
      "chip": "ym2612"
    },
    {
      "channel": 0,
      "note": 53,
      "start": 4.4569,
      "duration": 0.0042,
      "velocity": 101,
      "chip": "ym2612"
    },
    {
      "channel": 1,
      "note": 53,
      "start": 4.4572,
      "duration": 0.0041,
      "velocity": 94,
      "chip": "ym2612"
    },
    {
      "channel": 2,
      "note": 45,
      "start": 4.4586,
      "duration": 0.0029,
      "velocity": 127,
      "chip": "ym2612"
    },
    {
      "channel": 4,
      "note": 70,
      "start": 4.4592,
      "duration": 0.0027,
      "velocity": 101,
      "chip": "ym2612"
    },
    {
      "channel": 0,
      "note": 60,
      "start": 4.4612,
      "duration": 0.003,
      "velocity": 101,
      "chip": "ym2612"
    },
    {
      "channel": 1,
      "note": 60,
      "start": 4.4615,
      "duration": 0.0029,
      "velocity": 94,
      "chip": "ym2612"
    },
    {
      "channel": 2,
      "note": 45,
      "start": 4.4617,
      "duration": 0.003,
      "velocity": 127,
      "chip": "ym2612"
    },
    {
      "channel": 4,
      "note": 77,
      "start": 4.4621,
      "duration": 0.0039,
      "velocity": 101,
      "chip": "ym2612"
    },
    {
      "channel": 0,
      "note": 65,
      "start": 4.4644,
      "duration": 0.0136,
      "velocity": 101,
      "chip": "ym2612"
    },
    {
      "channel": 1,
      "note": 65,
      "start": 4.4646,
      "duration": 0.0136,
      "velocity": 94,
      "chip": "ym2612"
    },
    {
      "channel": 2,
      "note": 45,
      "start": 4.4659,
      "duration": 0.0127,
      "velocity": 127,
      "chip": "ym2612"
    },
    {
      "channel": 4,
      "note": 82,
      "start": 4.4662,
      "duration": 0.0126,
      "velocity": 101,
      "chip": "ym2612"
    },
    {
      "channel": 0,
      "note": 60,
      "start": 4.4782,
      "duration": 0.0032,
      "velocity": 101,
      "chip": "ym2612"
    },
    {
      "channel": 1,
      "note": 60,
      "start": 4.4784,
      "duration": 0.0031,
      "velocity": 94,
      "chip": "ym2612"
    },
    {
      "channel": 2,
      "note": 45,
      "start": 4.4787,
      "duration": 0.0031,
      "velocity": 127,
      "chip": "ym2612"
    },
    {
      "channel": 4,
      "note": 77,
      "start": 4.479,
      "duration": 0.0041,
      "velocity": 101,
      "chip": "ym2612"
    },
    {
      "channel": 0,
      "note": 53,
      "start": 4.4815,
      "duration": 0.0044,
      "velocity": 101,
      "chip": "ym2612"
    },
    {
      "channel": 1,
      "note": 53,
      "start": 4.4817,
      "duration": 0.0044,
      "velocity": 94,
      "chip": "ym2612"
    },
    {
      "channel": 2,
      "note": 45,
      "start": 4.4831,
      "duration": 0.0032,
      "velocity": 127,
      "chip": "ym2612"
    },
    {
      "channel": 4,
      "note": 70,
      "start": 4.4834,
      "duration": 0.0032,
      "velocity": 101,
      "chip": "ym2612"
    },
    {
      "channel": 0,
      "note": 60,
      "start": 4.4861,
      "duration": 0.0025,
      "velocity": 101,
      "chip": "ym2612"
    },
    {
      "channel": 1,
      "note": 60,
      "start": 4.4863,
      "duration": 0.0025,
      "velocity": 94,
      "chip": "ym2612"
    },
    {
      "channel": 2,
      "note": 45,
      "start": 4.4864,
      "duration": 0.0026,
      "velocity": 127,
      "chip": "ym2612"
    },
    {
      "channel": 4,
      "note": 77,
      "start": 4.4867,
      "duration": 0.004,
      "velocity": 101,
      "chip": "ym2612"
    },
    {
      "channel": 0,
      "note": 65,
      "start": 4.4888,
      "duration": 0.0044,
      "velocity": 101,
      "chip": "ym2612"
    },
    {
      "channel": 1,
      "note": 65,
      "start": 4.489,
      "duration": 0.0044,
      "velocity": 94,
      "chip": "ym2612"
    },
    {
      "channel": 2,
      "note": 45,
      "start": 4.4905,
      "duration": 0.0032,
      "velocity": 127,
      "chip": "ym2612"
    },
    {
      "channel": 4,
      "note": 82,
      "start": 4.491,
      "duration": 0.0031,
      "velocity": 101,
      "chip": "ym2612"
    },
    {
      "channel": 0,
      "note": 60,
      "start": 4.4934,
      "duration": 0.0032,
      "velocity": 101,
      "chip": "ym2612"
    },
    {
      "channel": 1,
      "note": 60,
      "start": 4.4936,
      "duration": 0.0034,
      "velocity": 94,
      "chip": "ym2612"
    },
    {
      "channel": 2,
      "note": 45,
      "start": 4.4939,
      "duration": 0.0035,
      "velocity": 127,
      "chip": "ym2612"
    },
    {
      "channel": 4,
      "note": 77,
      "start": 4.4943,
      "duration": 0.0049,
      "velocity": 101,
      "chip": "ym2612"
    },
    {
      "channel": 0,
      "note": 52,
      "start": 4.497,
      "duration": 0.005,
      "velocity": 101,
      "chip": "ym2612"
    },
    {
      "channel": 1,
      "note": 52,
      "start": 4.4973,
      "duration": 0.0049,
      "velocity": 94,
      "chip": "ym2612"
    },
    {
      "channel": 2,
      "note": 45,
      "start": 4.4988,
      "duration": 0.0037,
      "velocity": 127,
      "chip": "ym2612"
    },
    {
      "channel": 3,
      "note": 76,
      "start": 4.4991,
      "duration": 0.0035,
      "velocity": 101,
      "chip": "ym2612"
    },
    {
      "channel": 4,
      "note": 69,
      "start": 4.4996,
      "duration": 0.0033,
      "velocity": 101,
      "chip": "ym2612"
    },
    {
      "channel": 0,
      "note": 59,
      "start": 4.5022,
      "duration": 0.0107,
      "velocity": 101,
      "chip": "ym2612"
    },
    {
      "channel": 1,
      "note": 59,
      "start": 4.5023,
      "duration": 0.0109,
      "velocity": 94,
      "chip": "ym2612"
    },
    {
      "channel": 2,
      "note": 45,
      "start": 4.5026,
      "duration": 0.0109,
      "velocity": 127,
      "chip": "ym2612"
    },
    {
      "channel": 3,
      "note": 83,
      "start": 4.5029,
      "duration": 0.0118,
      "velocity": 101,
      "chip": "ym2612"
    },
    {
      "channel": 4,
      "note": 76,
      "start": 4.5031,
      "duration": 0.0119,
      "velocity": 101,
      "chip": "ym2612"
    },
    {
      "channel": 0,
      "note": 64,
      "start": 4.5132,
      "duration": 0.0039,
      "velocity": 101,
      "chip": "ym2612"
    },
    {
      "channel": 1,
      "note": 64,
      "start": 4.5134,
      "duration": 0.0038,
      "velocity": 94,
      "chip": "ym2612"
    },
    {
      "channel": 2,
      "note": 45,
      "start": 4.5146,
      "duration": 0.0029,
      "velocity": 127,
      "chip": "ym2612"
    },
    {
      "channel": 3,
      "note": 88,
      "start": 4.5149,
      "duration": 0.0027,
      "velocity": 101,
      "chip": "ym2612"
    },
    {
      "channel": 4,
      "note": 81,
      "start": 4.5152,
      "duration": 0.0028,
      "velocity": 101,
      "chip": "ym2612"
    },
    {
      "channel": 0,
      "note": 59,
      "start": 4.5171,
      "duration": 0.0034,
      "velocity": 101,
      "chip": "ym2612"
    },
    {
      "channel": 1,
      "note": 59,
      "start": 4.5175,
      "duration": 0.0034,
      "velocity": 94,
      "chip": "ym2612"
    },
    {
      "channel": 2,
      "note": 45,
      "start": 4.5176,
      "duration": 0.0035,
      "velocity": 127,
      "chip": "ym2612"
    },
    {
      "channel": 3,
      "note": 83,
      "start": 4.518,
      "duration": 0.0046,
      "velocity": 101,
      "chip": "ym2612"
    },
    {
      "channel": 4,
      "note": 76,
      "start": 4.5183,
      "duration": 0.0046,
      "velocity": 101,
      "chip": "ym2612"
    },
    {
      "channel": 0,
      "note": 52,
      "start": 4.5208,
      "duration": 0.0045,
      "velocity": 101,
      "chip": "ym2612"
    },
    {
      "channel": 1,
      "note": 52,
      "start": 4.521,
      "duration": 0.0045,
      "velocity": 94,
      "chip": "ym2612"
    },
    {
      "channel": 2,
      "note": 45,
      "start": 4.5225,
      "duration": 0.0032,
      "velocity": 127,
      "chip": "ym2612"
    },
    {
      "channel": 3,
      "note": 76,
      "start": 4.5229,
      "duration": 0.003,
      "velocity": 101,
      "chip": "ym2612"
    },
    {
      "channel": 4,
      "note": 69,
      "start": 4.5232,
      "duration": 0.0029,
      "velocity": 101,
      "chip": "ym2612"
    },
    {
      "channel": 0,
      "note": 59,
      "start": 4.5254,
      "duration": 0.0036,
      "velocity": 101,
      "chip": "ym2612"
    },
    {
      "channel": 1,
      "note": 59,
      "start": 4.5256,
      "duration": 0.0036,
      "velocity": 94,
      "chip": "ym2612"
    },
    {
      "channel": 2,
      "note": 45,
      "start": 4.5258,
      "duration": 0.0037,
      "velocity": 127,
      "chip": "ym2612"
    },
    {
      "channel": 3,
      "note": 83,
      "start": 4.526,
      "duration": 0.0048,
      "velocity": 101,
      "chip": "ym2612"
    },
    {
      "channel": 4,
      "note": 76,
      "start": 4.5263,
      "duration": 0.0047,
      "velocity": 101,
      "chip": "ym2612"
    },
    {
      "channel": 0,
      "note": 64,
      "start": 4.5291,
      "duration": 0.0134,
      "velocity": 101,
      "chip": "ym2612"
    },
    {
      "channel": 1,
      "note": 64,
      "start": 4.5293,
      "duration": 0.0135,
      "velocity": 94,
      "chip": "ym2612"
    },
    {
      "channel": 2,
      "note": 45,
      "start": 4.5307,
      "duration": 0.0124,
      "velocity": 127,
      "chip": "ym2612"
    },
    {
      "channel": 3,
      "note": 88,
      "start": 4.531,
      "duration": 0.0123,
      "velocity": 101,
      "chip": "ym2612"
    },
    {
      "channel": 4,
      "note": 81,
      "start": 4.5312,
      "duration": 0.0124,
      "velocity": 101,
      "chip": "ym2612"
    },
    {
      "channel": 0,
      "note": 59,
      "start": 4.5428,
      "duration": 0.0033,
      "velocity": 101,
      "chip": "ym2612"
    },
    {
      "channel": 1,
      "note": 59,
      "start": 4.543,
      "duration": 0.0032,
      "velocity": 94,
      "chip": "ym2612"
    },
    {
      "channel": 2,
      "note": 45,
      "start": 4.5433,
      "duration": 0.0032,
      "velocity": 127,
      "chip": "ym2612"
    },
    {
      "channel": 3,
      "note": 83,
      "start": 4.5436,
      "duration": 0.0043,
      "velocity": 101,
      "chip": "ym2612"
    },
    {
      "channel": 4,
      "note": 76,
      "start": 4.5438,
      "duration": 0.0042,
      "velocity": 101,
      "chip": "ym2612"
    },
    {
      "channel": 0,
      "note": 52,
      "start": 4.5462,
      "duration": 0.0044,
      "velocity": 101,
      "chip": "ym2612"
    },
    {
      "channel": 1,
      "note": 52,
      "start": 4.5464,
      "duration": 0.0043,
      "velocity": 94,
      "chip": "ym2612"
    },
    {
      "channel": 2,
      "note": 45,
      "start": 4.5478,
      "duration": 0.0032,
      "velocity": 127,
      "chip": "ym2612"
    },
    {
      "channel": 3,
      "note": 76,
      "start": 4.548,
      "duration": 0.0032,
      "velocity": 101,
      "chip": "ym2612"
    },
    {
      "channel": 4,
      "note": 69,
      "start": 4.5483,
      "duration": 0.0031,
      "velocity": 101,
      "chip": "ym2612"
    },
    {
      "channel": 0,
      "note": 59,
      "start": 4.5507,
      "duration": 0.0028,
      "velocity": 101,
      "chip": "ym2612"
    },
    {
      "channel": 1,
      "note": 59,
      "start": 4.5509,
      "duration": 0.0028,
      "velocity": 94,
      "chip": "ym2612"
    },
    {
      "channel": 2,
      "note": 45,
      "start": 4.5511,
      "duration": 0.0029,
      "velocity": 127,
      "chip": "ym2612"
    },
    {
      "channel": 3,
      "note": 83,
      "start": 4.5514,
      "duration": 0.0041,
      "velocity": 101,
      "chip": "ym2612"
    },
    {
      "channel": 4,
      "note": 76,
      "start": 4.5516,
      "duration": 0.0042,
      "velocity": 101,
      "chip": "ym2612"
    },
    {
      "channel": 0,
      "note": 64,
      "start": 4.5537,
      "duration": 0.0046,
      "velocity": 101,
      "chip": "ym2612"
    },
    {
      "channel": 1,
      "note": 64,
      "start": 4.5539,
      "duration": 0.0045,
      "velocity": 94,
      "chip": "ym2612"
    },
    {
      "channel": 2,
      "note": 45,
      "start": 4.5553,
      "duration": 0.0034,
      "velocity": 127,
      "chip": "ym2612"
    },
    {
      "channel": 3,
      "note": 88,
      "start": 4.5557,
      "duration": 0.0032,
      "velocity": 101,
      "chip": "ym2612"
    },
    {
      "channel": 4,
      "note": 81,
      "start": 4.556,
      "duration": 0.003,
      "velocity": 101,
      "chip": "ym2612"
    },
    {
      "channel": 0,
      "note": 59,
      "start": 4.5583,
      "duration": 0.0119,
      "velocity": 101,
      "chip": "ym2612"
    },
    {
      "channel": 1,
      "note": 59,
      "start": 4.5587,
      "duration": 0.012,
      "velocity": 94,
      "chip": "ym2612"
    },
    {
      "channel": 2,
      "note": 45,
      "start": 4.5588,
      "duration": 0.0122,
      "velocity": 127,
      "chip": "ym2612"
    },
    {
      "channel": 3,
      "note": 83,
      "start": 4.559,
      "duration": 0.0133,
      "velocity": 101,
      "chip": "ym2612"
    },
    {
      "channel": 4,
      "note": 76,
      "start": 4.5593,
      "duration": 0.0133,
      "velocity": 101,
      "chip": "ym2612"
    },
    {
      "channel": 0,
      "note": 55,
      "start": 4.5706,
      "duration": 0.0045,
      "velocity": 101,
      "chip": "ym2612"
    },
    {
      "channel": 1,
      "note": 55,
      "start": 4.5709,
      "duration": 0.0044,
      "velocity": 94,
      "chip": "ym2612"
    },
    {
      "channel": 2,
      "note": 45,
      "start": 4.5722,
      "duration": 0.0033,
      "velocity": 127,
      "chip": "ym2612"
    },
    {
      "channel": 3,
      "note": 79,
      "start": 4.5726,
      "duration": 0.0032,
      "velocity": 101,
      "chip": "ym2612"
    },
    {
      "channel": 4,
      "note": 72,
      "start": 4.5729,
      "duration": 0.0031,
      "velocity": 101,
      "chip": "ym2612"
    },
    {
      "channel": 0,
      "note": 62,
      "start": 4.5753,
      "duration": 0.0123,
      "velocity": 101,
      "chip": "ym2612"
    },
    {
      "channel": 1,
      "note": 62,
      "start": 4.5755,
      "duration": 0.0124,
      "velocity": 94,
      "chip": "ym2612"
    },
    {
      "channel": 2,
      "note": 45,
      "start": 4.5757,
      "duration": 0.0124,
      "velocity": 127,
      "chip": "ym2612"
    },
    {
      "channel": 3,
      "note": 86,
      "start": 4.5759,
      "duration": 0.0134,
      "velocity": 101,
      "chip": "ym2612"
    },
    {
      "channel": 4,
      "note": 79,
      "start": 4.5762,
      "duration": 0.0134,
      "velocity": 101,
      "chip": "ym2612"
    },
    {
      "channel": 0,
      "note": 67,
      "start": 4.5878,
      "duration": 0.0041,
      "velocity": 101,
      "chip": "ym2612"
    },
    {
      "channel": 1,
      "note": 67,
      "start": 4.588,
      "duration": 0.0041,
      "velocity": 94,
      "chip": "ym2612"
    },
    {
      "channel": 2,
      "note": 45,
      "start": 4.5893,
      "duration": 0.0032,
      "velocity": 127,
      "chip": "ym2612"
    },
    {
      "channel": 3,
      "note": 91,
      "start": 4.5896,
      "duration": 0.003,
      "velocity": 101,
      "chip": "ym2612"
    },
    {
      "channel": 4,
      "note": 84,
      "start": 4.5898,
      "duration": 0.0032,
      "velocity": 101,
      "chip": "ym2612"
    },
    {
      "channel": 0,
      "note": 62,
      "start": 4.5921,
      "duration": 0.0036,
      "velocity": 101,
      "chip": "ym2612"
    },
    {
      "channel": 1,
      "note": 62,
      "start": 4.5924,
      "duration": 0.0035,
      "velocity": 94,
      "chip": "ym2612"
    },
    {
      "channel": 2,
      "note": 45,
      "start": 4.5926,
      "duration": 0.0036,
      "velocity": 127,
      "chip": "ym2612"
    },
    {
      "channel": 3,
      "note": 86,
      "start": 4.5929,
      "duration": 0.0047,
      "velocity": 101,
      "chip": "ym2612"
    },
    {
      "channel": 4,
      "note": 79,
      "start": 4.5932,
      "duration": 0.0047,
      "velocity": 101,
      "chip": "ym2612"
    },
    {
      "channel": 0,
      "note": 55,
      "start": 4.5959,
      "duration": 0.0046,
      "velocity": 101,
      "chip": "ym2612"
    },
    {
      "channel": 1,
      "note": 55,
      "start": 4.5961,
      "duration": 0.0046,
      "velocity": 94,
      "chip": "ym2612"
    },
    {
      "channel": 2,
      "note": 45,
      "start": 4.5975,
      "duration": 0.0034,
      "velocity": 127,
      "chip": "ym2612"
    },
    {
      "channel": 3,
      "note": 79,
      "start": 4.5979,
      "duration": 0.0032,
      "velocity": 101,
      "chip": "ym2612"
    },
    {
      "channel": 4,
      "note": 72,
      "start": 4.5983,
      "duration": 0.0031,
      "velocity": 101,
      "chip": "ym2612"
    },
    {
      "channel": 0,
      "note": 62,
      "start": 4.6006,
      "duration": 0.0035,
      "velocity": 101,
      "chip": "ym2612"
    },
    {
      "channel": 1,
      "note": 62,
      "start": 4.6009,
      "duration": 0.0035,
      "velocity": 94,
      "chip": "ym2612"
    },
    {
      "channel": 2,
      "note": 45,
      "start": 4.601,
      "duration": 0.0036,
      "velocity": 127,
      "chip": "ym2612"
    },
    {
      "channel": 3,
      "note": 86,
      "start": 4.6013,
      "duration": 0.0047,
      "velocity": 101,
      "chip": "ym2612"
    },
    {
      "channel": 4,
      "note": 79,
      "start": 4.6015,
      "duration": 0.0047,
      "velocity": 101,
      "chip": "ym2612"
    },
    {
      "channel": 0,
      "note": 67,
      "start": 4.6043,
      "duration": 0.0141,
      "velocity": 101,
      "chip": "ym2612"
    },
    {
      "channel": 1,
      "note": 67,
      "start": 4.6046,
      "duration": 0.0141,
      "velocity": 94,
      "chip": "ym2612"
    },
    {
      "channel": 2,
      "note": 45,
      "start": 4.6059,
      "duration": 0.013,
      "velocity": 127,
      "chip": "ym2612"
    },
    {
      "channel": 3,
      "note": 91,
      "start": 4.6061,
      "duration": 0.013,
      "velocity": 101,
      "chip": "ym2612"
    },
    {
      "channel": 4,
      "note": 84,
      "start": 4.6064,
      "duration": 0.013,
      "velocity": 101,
      "chip": "ym2612"
    },
    {
      "channel": 0,
      "note": 62,
      "start": 4.6186,
      "duration": 0.0031,
      "velocity": 101,
      "chip": "ym2612"
    },
    {
      "channel": 1,
      "note": 62,
      "start": 4.6188,
      "duration": 0.0031,
      "velocity": 94,
      "chip": "ym2612"
    },
    {
      "channel": 2,
      "note": 45,
      "start": 4.6191,
      "duration": 0.0031,
      "velocity": 127,
      "chip": "ym2612"
    },
    {
      "channel": 3,
      "note": 86,
      "start": 4.6193,
      "duration": 0.0041,
      "velocity": 101,
      "chip": "ym2612"
    },
    {
      "channel": 4,
      "note": 79,
      "start": 4.6196,
      "duration": 0.004,
      "velocity": 101,
      "chip": "ym2612"
    },
    {
      "channel": 0,
      "note": 55,
      "start": 4.6218,
      "duration": 0.0044,
      "velocity": 101,
      "chip": "ym2612"
    },
    {
      "channel": 1,
      "note": 55,
      "start": 4.622,
      "duration": 0.0044,
      "velocity": 94,
      "chip": "ym2612"
    },
    {
      "channel": 2,
      "note": 45,
      "start": 4.6233,
      "duration": 0.0034,
      "velocity": 127,
      "chip": "ym2612"
    },
    {
      "channel": 3,
      "note": 79,
      "start": 4.6236,
      "duration": 0.0034,
      "velocity": 101,
      "chip": "ym2612"
    },
    {
      "channel": 4,
      "note": 72,
      "start": 4.6239,
      "duration": 0.0034,
      "velocity": 101,
      "chip": "ym2612"
    },
    {
      "channel": 0,
      "note": 62,
      "start": 4.6264,
      "duration": 0.0026,
      "velocity": 101,
      "chip": "ym2612"
    },
    {
      "channel": 1,
      "note": 62,
      "start": 4.6267,
      "duration": 0.0026,
      "velocity": 94,
      "chip": "ym2612"
    },
    {
      "channel": 2,
      "note": 45,
      "start": 4.6269,
      "duration": 0.0025,
      "velocity": 127,
      "chip": "ym2612"
    },
    {
      "channel": 3,
      "note": 86,
      "start": 4.6272,
      "duration": 0.0038,
      "velocity": 101,
      "chip": "ym2612"
    },
    {
      "channel": 4,
      "note": 79,
      "start": 4.6273,
      "duration": 0.0039,
      "velocity": 101,
      "chip": "ym2612"
    },
    {
      "channel": 0,
      "note": 67,
      "start": 4.6292,
      "duration": 0.0049,
      "velocity": 101,
      "chip": "ym2612"
    },
    {
      "channel": 1,
      "note": 67,
      "start": 4.6293,
      "duration": 0.005,
      "velocity": 94,
      "chip": "ym2612"
    },
    {
      "channel": 2,
      "note": 45,
      "start": 4.6309,
      "duration": 0.0037,
      "velocity": 127,
      "chip": "ym2612"
    },
    {
      "channel": 3,
      "note": 91,
      "start": 4.6312,
      "duration": 0.0035,
      "velocity": 101,
      "chip": "ym2612"
    },
    {
      "channel": 4,
      "note": 84,
      "start": 4.6315,
      "duration": 0.0034,
      "velocity": 101,
      "chip": "ym2612"
    },
    {
      "channel": 0,
      "note": 62,
      "start": 4.6342,
      "duration": 0.0117,
      "velocity": 101,
      "chip": "ym2612"
    },
    {
      "channel": 1,
      "note": 62,
      "start": 4.6346,
      "duration": 0.0118,
      "velocity": 94,
      "chip": "ym2612"
    },
    {
      "channel": 2,
      "note": 45,
      "start": 4.6347,
      "duration": 0.0122,
      "velocity": 127,
      "chip": "ym2612"
    },
    {
      "channel": 3,
      "note": 86,
      "start": 4.6349,
      "duration": 0.0132,
      "velocity": 101,
      "chip": "ym2612"
    },
    {
      "channel": 4,
      "note": 79,
      "start": 4.6351,
      "duration": 0.0134,
      "velocity": 101,
      "chip": "ym2612"
    },
    {
      "channel": 0,
      "note": 57,
      "start": 4.6463,
      "duration": 0.0052,
      "velocity": 101,
      "chip": "ym2612"
    },
    {
      "channel": 1,
      "note": 57,
      "start": 4.6468,
      "duration": 0.005,
      "velocity": 94,
      "chip": "ym2612"
    },
    {
      "channel": 2,
      "note": 45,
      "start": 4.648,
      "duration": 0.004,
      "velocity": 127,
      "chip": "ym2612"
    },
    {
      "channel": 3,
      "note": 81,
      "start": 4.6484,
      "duration": 0.0038,
      "velocity": 101,
      "chip": "ym2612"
    },
    {
      "channel": 4,
      "note": 74,
      "start": 4.6489,
      "duration": 0.0035,
      "velocity": 101,
      "chip": "ym2612"
    },
    {
      "channel": 0,
      "note": 64,
      "start": 4.6517,
      "duration": 0.0119,
      "velocity": 101,
      "chip": "ym2612"
    },
    {
      "channel": 1,
      "note": 64,
      "start": 4.652,
      "duration": 0.012,
      "velocity": 94,
      "chip": "ym2612"
    },
    {
      "channel": 2,
      "note": 45,
      "start": 4.6522,
      "duration": 0.012,
      "velocity": 127,
      "chip": "ym2612"
    },
    {
      "channel": 3,
      "note": 88,
      "start": 4.6524,
      "duration": 0.0131,
      "velocity": 101,
      "chip": "ym2612"
    },
    {
      "channel": 4,
      "note": 81,
      "start": 4.6525,
      "duration": 0.0132,
      "velocity": 101,
      "chip": "ym2612"
    },
    {
      "channel": 0,
      "note": 69,
      "start": 4.6639,
      "duration": 0.0043,
      "velocity": 101,
      "chip": "ym2612"
    },
    {
      "channel": 1,
      "note": 69,
      "start": 4.6642,
      "duration": 0.0043,
      "velocity": 94,
      "chip": "ym2612"
    },
    {
      "channel": 2,
      "note": 45,
      "start": 4.6654,
      "duration": 0.0033,
      "velocity": 127,
      "chip": "ym2612"
    },
    {
      "channel": 3,
      "note": 93,
      "start": 4.6657,
      "duration": 0.0032,
      "velocity": 101,
      "chip": "ym2612"
    },
    {
      "channel": 4,
      "note": 86,
      "start": 4.666,
      "duration": 0.0034,
      "velocity": 101,
      "chip": "ym2612"
    },
    {
      "channel": 0,
      "note": 64,
      "start": 4.6684,
      "duration": 0.0036,
      "velocity": 101,
      "chip": "ym2612"
    },
    {
      "channel": 1,
      "note": 64,
      "start": 4.6687,
      "duration": 0.0036,
      "velocity": 94,
      "chip": "ym2612"
    },
    {
      "channel": 2,
      "note": 45,
      "start": 4.6688,
      "duration": 0.0037,
      "velocity": 127,
      "chip": "ym2612"
    },
    {
      "channel": 3,
      "note": 88,
      "start": 4.6693,
      "duration": 0.0047,
      "velocity": 101,
      "chip": "ym2612"
    },
    {
      "channel": 4,
      "note": 81,
      "start": 4.6696,
      "duration": 0.0047,
      "velocity": 101,
      "chip": "ym2612"
    },
    {
      "channel": 0,
      "note": 57,
      "start": 4.6722,
      "duration": 0.0047,
      "velocity": 101,
      "chip": "ym2612"
    },
    {
      "channel": 1,
      "note": 57,
      "start": 4.6725,
      "duration": 0.0046,
      "velocity": 94,
      "chip": "ym2612"
    },
    {
      "channel": 2,
      "note": 45,
      "start": 4.6739,
      "duration": 0.0034,
      "velocity": 127,
      "chip": "ym2612"
    },
    {
      "channel": 3,
      "note": 81,
      "start": 4.6743,
      "duration": 0.0032,
      "velocity": 101,
      "chip": "ym2612"
    },
    {
      "channel": 4,
      "note": 74,
      "start": 4.6746,
      "duration": 0.0031,
      "velocity": 101,
      "chip": "ym2612"
    },
    {
      "channel": 0,
      "note": 64,
      "start": 4.6771,
      "duration": 0.0031,
      "velocity": 101,
      "chip": "ym2612"
    },
    {
      "channel": 1,
      "note": 64,
      "start": 4.6773,
      "duration": 0.003,
      "velocity": 94,
      "chip": "ym2612"
    },
    {
      "channel": 2,
      "note": 45,
      "start": 4.6774,
      "duration": 0.0032,
      "velocity": 127,
      "chip": "ym2612"
    },
    {
      "channel": 3,
      "note": 88,
      "start": 4.6777,
      "duration": 0.0044,
      "velocity": 101,
      "chip": "ym2612"
    },
    {
      "channel": 4,
      "note": 81,
      "start": 4.6779,
      "duration": 0.0044,
      "velocity": 101,
      "chip": "ym2612"
    },
    {
      "channel": 0,
      "note": 69,
      "start": 4.6803,
      "duration": 0.014,
      "velocity": 101,
      "chip": "ym2612"
    },
    {
      "channel": 1,
      "note": 69,
      "start": 4.6806,
      "duration": 0.0139,
      "velocity": 94,
      "chip": "ym2612"
    },
    {
      "channel": 2,
      "note": 45,
      "start": 4.682,
      "duration": 0.0128,
      "velocity": 127,
      "chip": "ym2612"
    },
    {
      "channel": 3,
      "note": 93,
      "start": 4.6822,
      "duration": 0.0128,
      "velocity": 101,
      "chip": "ym2612"
    },
    {
      "channel": 4,
      "note": 86,
      "start": 4.6825,
      "duration": 0.0128,
      "velocity": 101,
      "chip": "ym2612"
    },
    {
      "channel": 0,
      "note": 64,
      "start": 4.6945,
      "duration": 0.0031,
      "velocity": 101,
      "chip": "ym2612"
    },
    {
      "channel": 1,
      "note": 64,
      "start": 4.6947,
      "duration": 0.0031,
      "velocity": 94,
      "chip": "ym2612"
    },
    {
      "channel": 2,
      "note": 45,
      "start": 4.695,
      "duration": 0.0031,
      "velocity": 127,
      "chip": "ym2612"
    },
    {
      "channel": 3,
      "note": 88,
      "start": 4.6953,
      "duration": 0.0041,
      "velocity": 101,
      "chip": "ym2612"
    },
    {
      "channel": 4,
      "note": 81,
      "start": 4.6955,
      "duration": 0.004,
      "velocity": 101,
      "chip": "ym2612"
    },
    {
      "channel": 0,
      "note": 57,
      "start": 4.6978,
      "duration": 0.0045,
      "velocity": 101,
      "chip": "ym2612"
    },
    {
      "channel": 1,
      "note": 57,
      "start": 4.698,
      "duration": 0.0045,
      "velocity": 94,
      "chip": "ym2612"
    },
    {
      "channel": 2,
      "note": 45,
      "start": 4.6993,
      "duration": 0.0034,
      "velocity": 127,
      "chip": "ym2612"
    },
    {
      "channel": 3,
      "note": 81,
      "start": 4.6995,
      "duration": 0.0035,
      "velocity": 101,
      "chip": "ym2612"
    },
    {
      "channel": 4,
      "note": 74,
      "start": 4.6998,
      "duration": 0.0034,
      "velocity": 101,
      "chip": "ym2612"
    },
    {
      "channel": 0,
      "note": 64,
      "start": 4.7024,
      "duration": 0.0028,
      "velocity": 101,
      "chip": "ym2612"
    },
    {
      "channel": 1,
      "note": 64,
      "start": 4.7027,
      "duration": 0.0027,
      "velocity": 94,
      "chip": "ym2612"
    },
    {
      "channel": 2,
      "note": 45,
      "start": 4.7029,
      "duration": 0.0028,
      "velocity": 127,
      "chip": "ym2612"
    },
    {
      "channel": 3,
      "note": 88,
      "start": 4.7031,
      "duration": 0.0041,
      "velocity": 101,
      "chip": "ym2612"
    },
    {
      "channel": 4,
      "note": 81,
      "start": 4.7034,
      "duration": 0.0042,
      "velocity": 101,
      "chip": "ym2612"
    },
    {
      "channel": 0,
      "note": 69,
      "start": 4.7054,
      "duration": 0.0046,
      "velocity": 101,
      "chip": "ym2612"
    },
    {
      "channel": 1,
      "note": 69,
      "start": 4.7056,
      "duration": 0.0047,
      "velocity": 94,
      "chip": "ym2612"
    },
    {
      "channel": 2,
      "note": 45,
      "start": 4.7072,
      "duration": 0.0033,
      "velocity": 127,
      "chip": "ym2612"
    },
    {
      "channel": 3,
      "note": 93,
      "start": 4.7075,
      "duration": 0.0032,
      "velocity": 101,
      "chip": "ym2612"
    },
    {
      "channel": 4,
      "note": 86,
      "start": 4.7079,
      "duration": 0.0031,
      "velocity": 101,
      "chip": "ym2612"
    },
    {
      "channel": 0,
      "note": 64,
      "start": 4.7102,
      "duration": 0.012,
      "velocity": 101,
      "chip": "ym2612"
    },
    {
      "channel": 1,
      "note": 64,
      "start": 4.7105,
      "duration": 0.0121,
      "velocity": 94,
      "chip": "ym2612"
    },
    {
      "channel": 2,
      "note": 45,
      "start": 4.7106,
      "duration": 0.0123,
      "velocity": 127,
      "chip": "ym2612"
    },
    {
      "channel": 3,
      "note": 88,
      "start": 4.711,
      "duration": 0.0133,
      "velocity": 101,
      "chip": "ym2612"
    },
    {
      "channel": 4,
      "note": 81,
      "start": 4.7112,
      "duration": 0.0134,
      "velocity": 101,
      "chip": "ym2612"
    },
    {
      "channel": 0,
      "note": 59,
      "start": 4.7225,
      "duration": 0.005,
      "velocity": 101,
      "chip": "ym2612"
    },
    {
      "channel": 1,
      "note": 59,
      "start": 4.7228,
      "duration": 0.0049,
      "velocity": 94,
      "chip": "ym2612"
    },
    {
      "channel": 2,
      "note": 45,
      "start": 4.7241,
      "duration": 0.0039,
      "velocity": 127,
      "chip": "ym2612"
    },
    {
      "channel": 3,
      "note": 83,
      "start": 4.7245,
      "duration": 0.0037,
      "velocity": 101,
      "chip": "ym2612"
    },
    {
      "channel": 4,
      "note": 76,
      "start": 4.7249,
      "duration": 0.0035,
      "velocity": 101,
      "chip": "ym2612"
    },
    {
      "channel": 0,
      "note": 66,
      "start": 4.7277,
      "duration": 0.0121,
      "velocity": 101,
      "chip": "ym2612"
    },
    {
      "channel": 1,
      "note": 66,
      "start": 4.728,
      "duration": 0.0121,
      "velocity": 94,
      "chip": "ym2612"
    },
    {
      "channel": 2,
      "note": 45,
      "start": 4.7281,
      "duration": 0.0122,
      "velocity": 127,
      "chip": "ym2612"
    },
    {
      "channel": 3,
      "note": 90,
      "start": 4.7283,
      "duration": 0.0132,
      "velocity": 101,
      "chip": "ym2612"
    },
    {
      "channel": 4,
      "note": 83,
      "start": 4.7285,
      "duration": 0.0133,
      "velocity": 101,
      "chip": "ym2612"
    },
    {
      "channel": 0,
      "note": 71,
      "start": 4.74,
      "duration": 0.0041,
      "velocity": 101,
      "chip": "ym2612"
    },
    {
      "channel": 1,
      "note": 71,
      "start": 4.7402,
      "duration": 0.004,
      "velocity": 94,
      "chip": "ym2612"
    },
    {
      "channel": 2,
      "note": 45,
      "start": 4.7414,
      "duration": 0.0031,
      "velocity": 127,
      "chip": "ym2612"
    },
    {
      "channel": 3,
      "note": 95,
      "start": 4.7418,
      "duration": 0.0029,
      "velocity": 101,
      "chip": "ym2612"
    },
    {
      "channel": 4,
      "note": 88,
      "start": 4.742,
      "duration": 0.003,
      "velocity": 101,
      "chip": "ym2612"
    },
    {
      "channel": 0,
      "note": 66,
      "start": 4.7441,
      "duration": 0.0036,
      "velocity": 101,
      "chip": "ym2612"
    },
    {
      "channel": 1,
      "note": 66,
      "start": 4.7445,
      "duration": 0.0035,
      "velocity": 94,
      "chip": "ym2612"
    },
    {
      "channel": 2,
      "note": 45,
      "start": 4.7446,
      "duration": 0.0036,
      "velocity": 127,
      "chip": "ym2612"
    },
    {
      "channel": 3,
      "note": 90,
      "start": 4.745,
      "duration": 0.0047,
      "velocity": 101,
      "chip": "ym2612"
    },
    {
      "channel": 4,
      "note": 83,
      "start": 4.7454,
      "duration": 0.0047,
      "velocity": 101,
      "chip": "ym2612"
    },
    {
      "channel": 0,
      "note": 59,
      "start": 4.7479,
      "duration": 0.0047,
      "velocity": 101,
      "chip": "ym2612"
    },
    {
      "channel": 1,
      "note": 59,
      "start": 4.7482,
      "duration": 0.0046,
      "velocity": 94,
      "chip": "ym2612"
    },
    {
      "channel": 2,
      "note": 45,
      "start": 4.7496,
      "duration": 0.0034,
      "velocity": 127,
      "chip": "ym2612"
    },
    {
      "channel": 3,
      "note": 83,
      "start": 4.75,
      "duration": 0.0032,
      "velocity": 101,
      "chip": "ym2612"
    },
    {
      "channel": 4,
      "note": 76,
      "start": 4.7504,
      "duration": 0.0031,
      "velocity": 101,
      "chip": "ym2612"
    },
    {
      "channel": 0,
      "note": 66,
      "start": 4.7528,
      "duration": 0.0031,
      "velocity": 101,
      "chip": "ym2612"
    },
    {
      "channel": 1,
      "note": 66,
      "start": 4.753,
      "duration": 0.003,
      "velocity": 94,
      "chip": "ym2612"
    },
    {
      "channel": 2,
      "note": 45,
      "start": 4.7532,
      "duration": 0.0032,
      "velocity": 127,
      "chip": "ym2612"
    },
    {
      "channel": 3,
      "note": 90,
      "start": 4.7534,
      "duration": 0.0044,
      "velocity": 101,
      "chip": "ym2612"
    },
    {
      "channel": 4,
      "note": 83,
      "start": 4.7536,
      "duration": 0.0044,
      "velocity": 101,
      "chip": "ym2612"
    },
    {
      "channel": 0,
      "note": 71,
      "start": 4.756,
      "duration": 0.014,
      "velocity": 101,
      "chip": "ym2612"
    },
    {
      "channel": 1,
      "note": 71,
      "start": 4.7563,
      "duration": 0.0139,
      "velocity": 94,
      "chip": "ym2612"
    },
    {
      "channel": 2,
      "note": 45,
      "start": 4.7577,
      "duration": 0.0128,
      "velocity": 127,
      "chip": "ym2612"
    },
    {
      "channel": 3,
      "note": 95,
      "start": 4.758,
      "duration": 0.0128,
      "velocity": 101,
      "chip": "ym2612"
    },
    {
      "channel": 4,
      "note": 88,
      "start": 4.7582,
      "duration": 0.0128,
      "velocity": 101,
      "chip": "ym2612"
    },
    {
      "channel": 0,
      "note": 66,
      "start": 4.7702,
      "duration": 0.0031,
      "velocity": 101,
      "chip": "ym2612"
    },
    {
      "channel": 1,
      "note": 66,
      "start": 4.7705,
      "duration": 0.0031,
      "velocity": 94,
      "chip": "ym2612"
    },
    {
      "channel": 2,
      "note": 45,
      "start": 4.7707,
      "duration": 0.0031,
      "velocity": 127,
      "chip": "ym2612"
    },
    {
      "channel": 3,
      "note": 90,
      "start": 4.771,
      "duration": 0.0041,
      "velocity": 101,
      "chip": "ym2612"
    },
    {
      "channel": 4,
      "note": 83,
      "start": 4.7712,
      "duration": 0.004,
      "velocity": 101,
      "chip": "ym2612"
    },
    {
      "channel": 0,
      "note": 59,
      "start": 4.7735,
      "duration": 0.0056,
      "velocity": 101,
      "chip": "ym2612"
    },
    {
      "channel": 1,
      "note": 59,
      "start": 4.7737,
      "duration": 0.0056,
      "velocity": 94,
      "chip": "ym2612"
    },
    {
      "channel": 2,
      "note": 45,
      "start": 4.775,
      "duration": 0.0046,
      "velocity": 127,
      "chip": "ym2612"
    },
    {
      "channel": 3,
      "note": 83,
      "start": 4.7752,
      "duration": 0.0046,
      "velocity": 101,
      "chip": "ym2612"
    },
    {
      "channel": 4,
      "note": 76,
      "start": 4.7755,
      "duration": 0.0045,
      "velocity": 101,
      "chip": "ym2612"
    },
    {
      "channel": 0,
      "note": 66,
      "start": 4.7793,
      "duration": 0.0032,
      "velocity": 101,
      "chip": "ym2612"
    },
    {
      "channel": 1,
      "note": 66,
      "start": 4.7796,
      "duration": 0.0032,
      "velocity": 94,
      "chip": "ym2612"
    },
    {
      "channel": 2,
      "note": 45,
      "start": 4.7797,
      "duration": 0.0033,
      "velocity": 127,
      "chip": "ym2612"
    },
    {
      "channel": 3,
      "note": 90,
      "start": 4.78,
      "duration": 0.0045,
      "velocity": 101,
      "chip": "ym2612"
    },
    {
      "channel": 4,
      "note": 83,
      "start": 4.7802,
      "duration": 0.0044,
      "velocity": 101,
      "chip": "ym2612"
    },
    {
      "channel": 0,
      "note": 71,
      "start": 4.7827,
      "duration": 0.0045,
      "velocity": 101,
      "chip": "ym2612"
    },
    {
      "channel": 1,
      "note": 71,
      "start": 4.783,
      "duration": 0.0044,
      "velocity": 94,
      "chip": "ym2612"
    },
    {
      "channel": 2,
      "note": 45,
      "start": 4.7843,
      "duration": 0.0033,
      "velocity": 127,
      "chip": "ym2612"
    },
    {
      "channel": 3,
      "note": 95,
      "start": 4.7846,
      "duration": 0.0032,
      "velocity": 101,
      "chip": "ym2612"
    },
    {
      "channel": 4,
      "note": 88,
      "start": 4.7849,
      "duration": 0.0032,
      "velocity": 101,
      "chip": "ym2612"
    },
    {
      "channel": 0,
      "note": 66,
      "start": 4.7874,
      "duration": 0.0029,
      "velocity": 101,
      "chip": "ym2612"
    },
    {
      "channel": 1,
      "note": 66,
      "start": 4.7876,
      "duration": 0.0041,
      "velocity": 94,
      "chip": "ym2612"
    },
    {
      "channel": 2,
      "note": 45,
      "start": 4.7877,
      "duration": 0.0042,
      "velocity": 127,
      "chip": "ym2612"
    },
    {
      "channel": 3,
      "note": 90,
      "start": 4.788,
      "duration": 0.0054,
      "velocity": 101,
      "chip": "ym2612"
    },
    {
      "channel": 4,
      "note": 83,
      "start": 4.7882,
      "duration": 0.0065,
      "velocity": 101,
      "chip": "ym2612"
    },
    {
      "channel": 0,
      "note": 52,
      "start": 4.7917,
      "duration": 0.0057,
      "velocity": 117,
      "chip": "ym2612"
    },
    {
      "channel": 1,
      "note": 64,
      "start": 4.7919,
      "duration": 0.0068,
      "velocity": 94,
      "chip": "ym2612"
    },
    {
      "channel": 2,
      "note": 45,
      "start": 4.7932,
      "duration": 0.0057,
      "velocity": 127,
      "chip": "ym2612"
    },
    {
      "channel": 3,
      "note": 28,
      "start": 4.7946,
      "duration": 0.0272,
      "velocity": 105,
      "chip": "ym2612"
    },
    {
      "channel": 4,
      "note": 64,
      "start": 4.7959,
      "duration": 0.0019,
      "velocity": 117,
      "chip": "ym2612"
    },
    {
      "channel": 0,
      "note": 40,
      "start": 4.7985,
      "duration": 0.0024,
      "velocity": 117,
      "chip": "ym2612"
    },
    {
      "channel": 1,
      "note": 52,
      "start": 4.7988,
      "duration": 0.0043,
      "velocity": 94,
      "chip": "ym2612"
    },
    {
      "channel": 2,
      "note": 45,
      "start": 4.8003,
      "duration": 0.0031,
      "velocity": 127,
      "chip": "ym2612"
    },
    {
      "channel": 4,
      "note": 52,
      "start": 4.8005,
      "duration": 0.0008,
      "velocity": 117,
      "chip": "ym2612"
    },
    {
      "channel": 0,
      "note": 40,
      "start": 4.8031,
      "duration": 0.0023,
      "velocity": 117,
      "chip": "ym2612"
    },
    {
      "channel": 1,
      "note": 52,
      "start": 4.8033,
      "duration": 0.004,
      "velocity": 94,
      "chip": "ym2612"
    },
    {
      "channel": 2,
      "note": 45,
      "start": 4.8048,
      "duration": 0.0028,
      "velocity": 127,
      "chip": "ym2612"
    },
    {
      "channel": 4,
      "note": 52,
      "start": 4.805,
      "duration": 0.0008,
      "velocity": 117,
      "chip": "ym2612"
    },
    {
      "channel": 0,
      "note": 40,
      "start": 4.8073,
      "duration": 0.002,
      "velocity": 117,
      "chip": "ym2612"
    },
    {
      "channel": 1,
      "note": 52,
      "start": 4.8075,
      "duration": 0.0036,
      "velocity": 94,
      "chip": "ym2612"
    },
    {
      "channel": 2,
      "note": 45,
      "start": 4.8089,
      "duration": 0.0023,
      "velocity": 127,
      "chip": "ym2612"
    },
    {
      "channel": 4,
      "note": 52,
      "start": 4.8091,
      "duration": 0.0005,
      "velocity": 117,
      "chip": "ym2612"
    },
    {
      "channel": 0,
      "note": 40,
      "start": 4.811,
      "duration": 0.0023,
      "velocity": 117,
      "chip": "ym2612"
    },
    {
      "channel": 1,
      "note": 52,
      "start": 4.8112,
      "duration": 0.004,
      "velocity": 94,
      "chip": "ym2612"
    },
    {
      "channel": 2,
      "note": 45,
      "start": 4.8127,
      "duration": 0.0028,
      "velocity": 127,
      "chip": "ym2612"
    },
    {
      "channel": 4,
      "note": 52,
      "start": 4.8129,
      "duration": 0.0008,
      "velocity": 117,
      "chip": "ym2612"
    },
    {
      "channel": 0,
      "note": 40,
      "start": 4.8152,
      "duration": 0.0027,
      "velocity": 117,
      "chip": "ym2612"
    },
    {
      "channel": 1,
      "note": 52,
      "start": 4.8154,
      "duration": 0.0047,
      "velocity": 94,
      "chip": "ym2612"
    },
    {
      "channel": 2,
      "note": 45,
      "start": 4.817,
      "duration": 0.0034,
      "velocity": 127,
      "chip": "ym2612"
    },
    {
      "channel": 4,
      "note": 52,
      "start": 4.8173,
      "duration": 0.0009,
      "velocity": 117,
      "chip": "ym2612"
    },
    {
      "channel": 0,
      "note": 55,
      "start": 4.8201,
      "duration": 0.0034,
      "velocity": 117,
      "chip": "ym2612"
    },
    {
      "channel": 1,
      "note": 67,
      "start": 4.8203,
      "duration": 0.0043,
      "velocity": 94,
      "chip": "ym2612"
    },
    {
      "channel": 2,
      "note": 52,
      "start": 4.8218,
      "duration": 0.0031,
      "velocity": 114,
      "chip": "ym2612"
    },
    {
      "channel": 3,
      "note": 31,
      "start": 4.822,
      "duration": 0.0265,
      "velocity": 105,
      "chip": "ym2612"
    },
    {
      "channel": 4,
      "note": 67,
      "start": 4.8222,
      "duration": 0.0017,
      "velocity": 117,
      "chip": "ym2612"
    },
    {
      "channel": 0,
      "note": 40,
      "start": 4.8246,
      "duration": 0.0024,
      "velocity": 117,
      "chip": "ym2612"
    },
    {
      "channel": 1,
      "note": 52,
      "start": 4.8248,
      "duration": 0.0044,
      "velocity": 94,
      "chip": "ym2612"
    },
    {
      "channel": 2,
      "note": 45,
      "start": 4.8262,
      "duration": 0.0032,
      "velocity": 127,
      "chip": "ym2612"
    },
    {
      "channel": 4,
      "note": 52,
      "start": 4.8265,
      "duration": 0.0009,
      "velocity": 117,
      "chip": "ym2612"
    },
    {
      "channel": 0,
      "note": 40,
      "start": 4.8291,
      "duration": 0.0022,
      "velocity": 117,
      "chip": "ym2612"
    },
    {
      "channel": 1,
      "note": 52,
      "start": 4.8293,
      "duration": 0.0038,
      "velocity": 94,
      "chip": "ym2612"
    },
    {
      "channel": 2,
      "note": 45,
      "start": 4.8306,
      "duration": 0.0027,
      "velocity": 127,
      "chip": "ym2612"
    },
    {
      "channel": 4,
      "note": 52,
      "start": 4.8307,
      "duration": 0.0009,
      "velocity": 117,
      "chip": "ym2612"
    },
    {
      "channel": 0,
      "note": 40,
      "start": 4.8331,
      "duration": 0.0022,
      "velocity": 117,
      "chip": "ym2612"
    },
    {
      "channel": 1,
      "note": 52,
      "start": 4.8333,
      "duration": 0.004,
      "velocity": 94,
      "chip": "ym2612"
    },
    {
      "channel": 2,
      "note": 45,
      "start": 4.8347,
      "duration": 0.0027,
      "velocity": 127,
      "chip": "ym2612"
    },
    {
      "channel": 4,
      "note": 52,
      "start": 4.8349,
      "duration": 0.0007,
      "velocity": 117,
      "chip": "ym2612"
    },
    {
      "channel": 0,
      "note": 40,
      "start": 4.8373,
      "duration": 0.0023,
      "velocity": 117,
      "chip": "ym2612"
    },
    {
      "channel": 1,
      "note": 52,
      "start": 4.8374,
      "duration": 0.0043,
      "velocity": 94,
      "chip": "ym2612"
    },
    {
      "channel": 2,
      "note": 45,
      "start": 4.8388,
      "duration": 0.0031,
      "velocity": 127,
      "chip": "ym2612"
    },
    {
      "channel": 4,
      "note": 52,
      "start": 4.839,
      "duration": 0.0009,
      "velocity": 117,
      "chip": "ym2612"
    },
    {
      "channel": 0,
      "note": 40,
      "start": 4.8416,
      "duration": 0.0027,
      "velocity": 117,
      "chip": "ym2612"
    },
    {
      "channel": 1,
      "note": 52,
      "start": 4.8418,
      "duration": 0.0047,
      "velocity": 94,
      "chip": "ym2612"
    },
    {
      "channel": 2,
      "note": 45,
      "start": 4.8435,
      "duration": 0.0033,
      "velocity": 127,
      "chip": "ym2612"
    },
    {
      "channel": 4,
      "note": 52,
      "start": 4.8437,
      "duration": 0.001,
      "velocity": 117,
      "chip": "ym2612"
    },
    {
      "channel": 0,
      "note": 54,
      "start": 4.8464,
      "duration": 0.004,
      "velocity": 117,
      "chip": "ym2612"
    },
    {
      "channel": 1,
      "note": 66,
      "start": 4.8468,
      "duration": 0.0047,
      "velocity": 94,
      "chip": "ym2612"
    },
    {
      "channel": 2,
      "note": 59,
      "start": 4.8484,
      "duration": 0.0033,
      "velocity": 114,
      "chip": "ym2612"
    },
    {
      "channel": 3,
      "note": 30,
      "start": 4.8488,
      "duration": 0.0251,
      "velocity": 105,
      "chip": "ym2612"
    },
    {
      "channel": 4,
      "note": 66,
      "start": 4.8491,
      "duration": 0.0018,
      "velocity": 117,
      "chip": "ym2612"
    },
    {
      "channel": 0,
      "note": 40,
      "start": 4.8515,
      "duration": 0.0024,
      "velocity": 117,
      "chip": "ym2612"
    },
    {
      "channel": 1,
      "note": 52,
      "start": 4.8516,
      "duration": 0.0039,
      "velocity": 94,
      "chip": "ym2612"
    },
    {
      "channel": 2,
      "note": 45,
      "start": 4.8531,
      "duration": 0.0027,
      "velocity": 127,
      "chip": "ym2612"
    },
    {
      "channel": 4,
      "note": 52,
      "start": 4.8534,
      "duration": 0.0009,
      "velocity": 117,
      "chip": "ym2612"
    },
    {
      "channel": 0,
      "note": 40,
      "start": 4.8555,
      "duration": 0.0024,
      "velocity": 117,
      "chip": "ym2612"
    },
    {
      "channel": 1,
      "note": 52,
      "start": 4.8557,
      "duration": 0.004,
      "velocity": 94,
      "chip": "ym2612"
    },
    {
      "channel": 2,
      "note": 45,
      "start": 4.8571,
      "duration": 0.0028,
      "velocity": 127,
      "chip": "ym2612"
    },
    {
      "channel": 4,
      "note": 52,
      "start": 4.8574,
      "duration": 0.0009,
      "velocity": 117,
      "chip": "ym2612"
    },
    {
      "channel": 0,
      "note": 40,
      "start": 4.8597,
      "duration": 0.0018,
      "velocity": 117,
      "chip": "ym2612"
    },
    {
      "channel": 1,
      "note": 52,
      "start": 4.8598,
      "duration": 0.0035,
      "velocity": 94,
      "chip": "ym2612"
    },
    {
      "channel": 2,
      "note": 45,
      "start": 4.8612,
      "duration": 0.0024,
      "velocity": 127,
      "chip": "ym2612"
    },
    {
      "channel": 4,
      "note": 52,
      "start": 4.8613,
      "duration": 0.0006,
      "velocity": 117,
      "chip": "ym2612"
    },
    {
      "channel": 0,
      "note": 40,
      "start": 4.8633,
      "duration": 0.0024,
      "velocity": 117,
      "chip": "ym2612"
    },
    {
      "channel": 1,
      "note": 52,
      "start": 4.8635,
      "duration": 0.0042,
      "velocity": 94,
      "chip": "ym2612"
    },
    {
      "channel": 2,
      "note": 45,
      "start": 4.8649,
      "duration": 0.0031,
      "velocity": 127,
      "chip": "ym2612"
    },
    {
      "channel": 4,
      "note": 52,
      "start": 4.8651,
      "duration": 0.001,
      "velocity": 117,
      "chip": "ym2612"
    },
    {
      "channel": 0,
      "note": 40,
      "start": 4.8677,
      "duration": 0.0027,
      "velocity": 117,
      "chip": "ym2612"
    },
    {
      "channel": 1,
      "note": 52,
      "start": 4.8679,
      "duration": 0.0044,
      "velocity": 94,
      "chip": "ym2612"
    },
    {
      "channel": 2,
      "note": 45,
      "start": 4.8695,
      "duration": 0.0029,
      "velocity": 127,
      "chip": "ym2612"
    },
    {
      "channel": 4,
      "note": 52,
      "start": 4.8698,
      "duration": 0.0009,
      "velocity": 117,
      "chip": "ym2612"
    },
    {
      "channel": 0,
      "note": 57,
      "start": 4.8722,
      "duration": 0.0034,
      "velocity": 117,
      "chip": "ym2612"
    },
    {
      "channel": 1,
      "note": 69,
      "start": 4.8724,
      "duration": 0.0042,
      "velocity": 94,
      "chip": "ym2612"
    },
    {
      "channel": 2,
      "note": 45,
      "start": 4.8738,
      "duration": 0.003,
      "velocity": 127,
      "chip": "ym2612"
    },
    {
      "channel": 3,
      "note": 29,
      "start": 4.8741,
      "duration": 0.0263,
      "velocity": 105,
      "chip": "ym2612"
    },
    {
      "channel": 4,
      "note": 69,
      "start": 4.8743,
      "duration": 0.0016,
      "velocity": 117,
      "chip": "ym2612"
    },
    {
      "channel": 0,
      "note": 40,
      "start": 4.8765,
      "duration": 0.0023,
      "velocity": 117,
      "chip": "ym2612"
    },
    {
      "channel": 1,
      "note": 52,
      "start": 4.8767,
      "duration": 0.0043,
      "velocity": 94,
      "chip": "ym2612"
    },
    {
      "channel": 2,
      "note": 45,
      "start": 4.878,
      "duration": 0.0032,
      "velocity": 127,
      "chip": "ym2612"
    },
    {
      "channel": 4,
      "note": 52,
      "start": 4.8782,
      "duration": 0.0009,
      "velocity": 117,
      "chip": "ym2612"
    },
    {
      "channel": 0,
      "note": 40,
      "start": 4.8809,
      "duration": 0.0026,
      "velocity": 117,
      "chip": "ym2612"
    },
    {
      "channel": 1,
      "note": 52,
      "start": 4.8811,
      "duration": 0.0042,
      "velocity": 94,
      "chip": "ym2612"
    },
    {
      "channel": 2,
      "note": 45,
      "start": 4.8826,
      "duration": 0.003,
      "velocity": 127,
      "chip": "ym2612"
    },
    {
      "channel": 4,
      "note": 52,
      "start": 4.8829,
      "duration": 0.0009,
      "velocity": 117,
      "chip": "ym2612"
    },
    {
      "channel": 0,
      "note": 40,
      "start": 4.8853,
      "duration": 0.0025,
      "velocity": 117,
      "chip": "ym2612"
    },
    {
      "channel": 1,
      "note": 52,
      "start": 4.8855,
      "duration": 0.0042,
      "velocity": 94,
      "chip": "ym2612"
    },
    {
      "channel": 2,
      "note": 45,
      "start": 4.8869,
      "duration": 0.003,
      "velocity": 127,
      "chip": "ym2612"
    },
    {
      "channel": 4,
      "note": 52,
      "start": 4.8872,
      "duration": 0.0009,
      "velocity": 117,
      "chip": "ym2612"
    },
    {
      "channel": 0,
      "note": 40,
      "start": 4.8896,
      "duration": 0.0028,
      "velocity": 117,
      "chip": "ym2612"
    },
    {
      "channel": 1,
      "note": 52,
      "start": 4.8898,
      "duration": 0.0044,
      "velocity": 94,
      "chip": "ym2612"
    },
    {
      "channel": 2,
      "note": 45,
      "start": 4.8915,
      "duration": 0.003,
      "velocity": 127,
      "chip": "ym2612"
    },
    {
      "channel": 4,
      "note": 52,
      "start": 4.8918,
      "duration": 0.0009,
      "velocity": 117,
      "chip": "ym2612"
    },
    {
      "channel": 0,
      "note": 40,
      "start": 4.8941,
      "duration": 0.0027,
      "velocity": 117,
      "chip": "ym2612"
    },
    {
      "channel": 1,
      "note": 52,
      "start": 4.8944,
      "duration": 0.0043,
      "velocity": 94,
      "chip": "ym2612"
    },
    {
      "channel": 2,
      "note": 45,
      "start": 4.896,
      "duration": 0.003,
      "velocity": 127,
      "chip": "ym2612"
    },
    {
      "channel": 4,
      "note": 52,
      "start": 4.8963,
      "duration": 0.001,
      "velocity": 117,
      "chip": "ym2612"
    },
    {
      "channel": 0,
      "note": 52,
      "start": 4.8986,
      "duration": 0.0038,
      "velocity": 117,
      "chip": "ym2612"
    },
    {
      "channel": 1,
      "note": 64,
      "start": 4.8989,
      "duration": 0.0045,
      "velocity": 94,
      "chip": "ym2612"
    },
    {
      "channel": 2,
      "note": 45,
      "start": 4.9003,
      "duration": 0.0034,
      "velocity": 127,
      "chip": "ym2612"
    },
    {
      "channel": 3,
      "note": 28,
      "start": 4.9006,
      "duration": 0.0269,
      "velocity": 105,
      "chip": "ym2612"
    },
    {
      "channel": 4,
      "note": 64,
      "start": 4.9008,
      "duration": 0.002,
      "velocity": 117,
      "chip": "ym2612"
    },
    {
      "channel": 0,
      "note": 40,
      "start": 4.9034,
      "duration": 0.0027,
      "velocity": 117,
      "chip": "ym2612"
    },
    {
      "channel": 1,
      "note": 52,
      "start": 4.9036,
      "duration": 0.0046,
      "velocity": 94,
      "chip": "ym2612"
    },
    {
      "channel": 2,
      "note": 45,
      "start": 4.9052,
      "duration": 0.0032,
      "velocity": 127,
      "chip": "ym2612"
    },
    {
      "channel": 4,
      "note": 52,
      "start": 4.9055,
      "duration": 0.001,
      "velocity": 117,
      "chip": "ym2612"
    },
    {
      "channel": 0,
      "note": 40,
      "start": 4.9082,
      "duration": 0.0025,
      "velocity": 117,
      "chip": "ym2612"
    },
    {
      "channel": 1,
      "note": 52,
      "start": 4.9084,
      "duration": 0.0041,
      "velocity": 94,
      "chip": "ym2612"
    },
    {
      "channel": 2,
      "note": 45,
      "start": 4.9098,
      "duration": 0.003,
      "velocity": 127,
      "chip": "ym2612"
    },
    {
      "channel": 4,
      "note": 52,
      "start": 4.9101,
      "duration": 0.001,
      "velocity": 117,
      "chip": "ym2612"
    },
    {
      "channel": 0,
      "note": 40,
      "start": 4.9124,
      "duration": 0.0021,
      "velocity": 117,
      "chip": "ym2612"
    },
    {
      "channel": 1,
      "note": 52,
      "start": 4.9127,
      "duration": 0.0039,
      "velocity": 94,
      "chip": "ym2612"
    },
    {
      "channel": 2,
      "note": 45,
      "start": 4.9139,
      "duration": 0.0029,
      "velocity": 127,
      "chip": "ym2612"
    },
    {
      "channel": 4,
      "note": 52,
      "start": 4.9141,
      "duration": 0.0008,
      "velocity": 117,
      "chip": "ym2612"
    },
    {
      "channel": 0,
      "note": 40,
      "start": 4.9165,
      "duration": 0.0025,
      "velocity": 117,
      "chip": "ym2612"
    },
    {
      "channel": 1,
      "note": 52,
      "start": 4.9167,
      "duration": 0.0042,
      "velocity": 94,
      "chip": "ym2612"
    },
    {
      "channel": 2,
      "note": 45,
      "start": 4.9182,
      "duration": 0.003,
      "velocity": 127,
      "chip": "ym2612"
    },
    {
      "channel": 4,
      "note": 52,
      "start": 4.9184,
      "duration": 0.001,
      "velocity": 117,
      "chip": "ym2612"
    },
    {
      "channel": 0,
      "note": 40,
      "start": 4.9209,
      "duration": 0.0026,
      "velocity": 117,
      "chip": "ym2612"
    },
    {
      "channel": 1,
      "note": 52,
      "start": 4.9211,
      "duration": 0.0048,
      "velocity": 94,
      "chip": "ym2612"
    },
    {
      "channel": 2,
      "note": 45,
      "start": 4.9227,
      "duration": 0.0034,
      "velocity": 127,
      "chip": "ym2612"
    },
    {
      "channel": 4,
      "note": 52,
      "start": 4.9229,
      "duration": 0.001,
      "velocity": 117,
      "chip": "ym2612"
    },
    {
      "channel": 0,
      "note": 55,
      "start": 4.9258,
      "duration": 0.0033,
      "velocity": 117,
      "chip": "ym2612"
    },
    {
      "channel": 1,
      "note": 67,
      "start": 4.926,
      "duration": 0.004,
      "velocity": 94,
      "chip": "ym2612"
    },
    {
      "channel": 2,
      "note": 52,
      "start": 4.9275,
      "duration": 0.0028,
      "velocity": 114,
      "chip": "ym2612"
    },
    {
      "channel": 3,
      "note": 31,
      "start": 4.9277,
      "duration": 0.0255,
      "velocity": 105,
      "chip": "ym2612"
    },
    {
      "channel": 4,
      "note": 67,
      "start": 4.9279,
      "duration": 0.0015,
      "velocity": 117,
      "chip": "ym2612"
    },
    {
      "channel": 0,
      "note": 40,
      "start": 4.93,
      "duration": 0.0027,
      "velocity": 117,
      "chip": "ym2612"
    },
    {
      "channel": 1,
      "note": 52,
      "start": 4.9302,
      "duration": 0.0047,
      "velocity": 94,
      "chip": "ym2612"
    },
    {
      "channel": 2,
      "note": 45,
      "start": 4.9318,
      "duration": 0.0033,
      "velocity": 127,
      "chip": "ym2612"
    },
    {
      "channel": 4,
      "note": 52,
      "start": 4.9321,
      "duration": 0.0009,
      "velocity": 117,
      "chip": "ym2612"
    },
    {
      "channel": 0,
      "note": 40,
      "start": 4.9349,
      "duration": 0.0022,
      "velocity": 117,
      "chip": "ym2612"
    },
    {
      "channel": 1,
      "note": 52,
      "start": 4.9351,
      "duration": 0.0039,
      "velocity": 94,
      "chip": "ym2612"
    },
    {
      "channel": 2,
      "note": 45,
      "start": 4.9364,
      "duration": 0.0027,
      "velocity": 127,
      "chip": "ym2612"
    },
    {
      "channel": 4,
      "note": 52,
      "start": 4.9366,
      "duration": 0.0009,
      "velocity": 117,
      "chip": "ym2612"
    },
    {
      "channel": 0,
      "note": 40,
      "start": 4.9389,
      "duration": 0.0018,
      "velocity": 117,
      "chip": "ym2612"
    },
    {
      "channel": 1,
      "note": 52,
      "start": 4.939,
      "duration": 0.0035,
      "velocity": 94,
      "chip": "ym2612"
    },
    {
      "channel": 2,
      "note": 45,
      "start": 4.9404,
      "duration": 0.0024,
      "velocity": 127,
      "chip": "ym2612"
    },
    {
      "channel": 4,
      "note": 52,
      "start": 4.9405,
      "duration": 0.0006,
      "velocity": 117,
      "chip": "ym2612"
    },
    {
      "channel": 0,
      "note": 40,
      "start": 4.9425,
      "duration": 0.0024,
      "velocity": 117,
      "chip": "ym2612"
    },
    {
      "channel": 1,
      "note": 52,
      "start": 4.9427,
      "duration": 0.0042,
      "velocity": 94,
      "chip": "ym2612"
    },
    {
      "channel": 2,
      "note": 45,
      "start": 4.9441,
      "duration": 0.0031,
      "velocity": 127,
      "chip": "ym2612"
    },
    {
      "channel": 4,
      "note": 52,
      "start": 4.9443,
      "duration": 0.001,
      "velocity": 117,
      "chip": "ym2612"
    },
    {
      "channel": 0,
      "note": 40,
      "start": 4.9468,
      "duration": 0.0027,
      "velocity": 117,
      "chip": "ym2612"
    },
    {
      "channel": 1,
      "note": 52,
      "start": 4.9471,
      "duration": 0.0044,
      "velocity": 94,
      "chip": "ym2612"
    },
    {
      "channel": 2,
      "note": 45,
      "start": 4.9487,
      "duration": 0.0029,
      "velocity": 127,
      "chip": "ym2612"
    },
    {
      "channel": 4,
      "note": 52,
      "start": 4.949,
      "duration": 0.0009,
      "velocity": 117,
      "chip": "ym2612"
    },
    {
      "channel": 0,
      "note": 54,
      "start": 4.9513,
      "duration": 0.0041,
      "velocity": 117,
      "chip": "ym2612"
    },
    {
      "channel": 1,
      "note": 66,
      "start": 4.9516,
      "duration": 0.0049,
      "velocity": 94,
      "chip": "ym2612"
    },
    {
      "channel": 2,
      "note": 59,
      "start": 4.9532,
      "duration": 0.0034,
      "velocity": 114,
      "chip": "ym2612"
    },
    {
      "channel": 3,
      "note": 30,
      "start": 4.9536,
      "duration": 0.0257,
      "velocity": 105,
      "chip": "ym2612"
    },
    {
      "channel": 4,
      "note": 66,
      "start": 4.9538,
      "duration": 0.002,
      "velocity": 117,
      "chip": "ym2612"
    },
    {
      "channel": 0,
      "note": 40,
      "start": 4.9564,
      "duration": 0.0022,
      "velocity": 117,
      "chip": "ym2612"
    },
    {
      "channel": 1,
      "note": 52,
      "start": 4.9566,
      "duration": 0.0039,
      "velocity": 94,
      "chip": "ym2612"
    },
    {
      "channel": 2,
      "note": 45,
      "start": 4.958,
      "duration": 0.0027,
      "velocity": 127,
      "chip": "ym2612"
    },
    {
      "channel": 4,
      "note": 52,
      "start": 4.9583,
      "duration": 0.0008,
      "velocity": 117,
      "chip": "ym2612"
    },
    {
      "channel": 0,
      "note": 40,
      "start": 4.9605,
      "duration": 0.0023,
      "velocity": 117,
      "chip": "ym2612"
    },
    {
      "channel": 1,
      "note": 52,
      "start": 4.9607,
      "duration": 0.0041,
      "velocity": 94,
      "chip": "ym2612"
    },
    {
      "channel": 2,
      "note": 45,
      "start": 4.9621,
      "duration": 0.0029,
      "velocity": 127,
      "chip": "ym2612"
    },
    {
      "channel": 4,
      "note": 52,
      "start": 4.9622,
      "duration": 0.0009,
      "velocity": 117,
      "chip": "ym2612"
    },
    {
      "channel": 0,
      "note": 40,
      "start": 4.9647,
      "duration": 0.0022,
      "velocity": 117,
      "chip": "ym2612"
    },
    {
      "channel": 1,
      "note": 52,
      "start": 4.9649,
      "duration": 0.0039,
      "velocity": 94,
      "chip": "ym2612"
    },
    {
      "channel": 2,
      "note": 45,
      "start": 4.9663,
      "duration": 0.0027,
      "velocity": 127,
      "chip": "ym2612"
    },
    {
      "channel": 4,
      "note": 52,
      "start": 4.9665,
      "duration": 0.0007,
      "velocity": 117,
      "chip": "ym2612"
    },
    {
      "channel": 0,
      "note": 40,
      "start": 4.9687,
      "duration": 0.0024,
      "velocity": 117,
      "chip": "ym2612"
    },
    {
      "channel": 1,
      "note": 52,
      "start": 4.9689,
      "duration": 0.0042,
      "velocity": 94,
      "chip": "ym2612"
    },
    {
      "channel": 2,
      "note": 45,
      "start": 4.9703,
      "duration": 0.0031,
      "velocity": 127,
      "chip": "ym2612"
    },
    {
      "channel": 4,
      "note": 52,
      "start": 4.9705,
      "duration": 0.001,
      "velocity": 117,
      "chip": "ym2612"
    },
    {
      "channel": 0,
      "note": 40,
      "start": 4.9731,
      "duration": 0.0027,
      "velocity": 117,
      "chip": "ym2612"
    },
    {
      "channel": 1,
      "note": 52,
      "start": 4.9733,
      "duration": 0.0044,
      "velocity": 94,
      "chip": "ym2612"
    },
    {
      "channel": 2,
      "note": 45,
      "start": 4.9749,
      "duration": 0.0029,
      "velocity": 127,
      "chip": "ym2612"
    },
    {
      "channel": 4,
      "note": 52,
      "start": 4.9752,
      "duration": 0.0009,
      "velocity": 117,
      "chip": "ym2612"
    },
    {
      "channel": 0,
      "note": 57,
      "start": 4.9776,
      "duration": 0.0034,
      "velocity": 117,
      "chip": "ym2612"
    },
    {
      "channel": 1,
      "note": 69,
      "start": 4.9778,
      "duration": 0.0042,
      "velocity": 94,
      "chip": "ym2612"
    },
    {
      "channel": 2,
      "note": 45,
      "start": 4.9792,
      "duration": 0.003,
      "velocity": 127,
      "chip": "ym2612"
    },
    {
      "channel": 3,
      "note": 29,
      "start": 4.9795,
      "duration": 0.028,
      "velocity": 105,
      "chip": "ym2612"
    },
    {
      "channel": 4,
      "note": 69,
      "start": 4.9797,
      "duration": 0.0016,
      "velocity": 117,
      "chip": "ym2612"
    },
    {
      "channel": 0,
      "note": 40,
      "start": 4.9819,
      "duration": 0.0023,
      "velocity": 117,
      "chip": "ym2612"
    },
    {
      "channel": 1,
      "note": 52,
      "start": 4.9821,
      "duration": 0.0043,
      "velocity": 94,
      "chip": "ym2612"
    },
    {
      "channel": 2,
      "note": 45,
      "start": 4.9834,
      "duration": 0.0032,
      "velocity": 127,
      "chip": "ym2612"
    },
    {
      "channel": 4,
      "note": 52,
      "start": 4.9836,
      "duration": 0.0009,
      "velocity": 117,
      "chip": "ym2612"
    },
    {
      "channel": 0,
      "note": 40,
      "start": 4.9863,
      "duration": 0.0036,
      "velocity": 117,
      "chip": "ym2612"
    },
    {
      "channel": 1,
      "note": 52,
      "start": 4.9865,
      "duration": 0.006,
      "velocity": 94,
      "chip": "ym2612"
    },
    {
      "channel": 2,
      "note": 45,
      "start": 4.988,
      "duration": 0.0048,
      "velocity": 127,
      "chip": "ym2612"
    },
    {
      "channel": 4,
      "note": 52,
      "start": 4.9883,
      "duration": 0.002,
      "velocity": 117,
      "chip": "ym2612"
    },
    {
      "channel": 0,
      "note": 40,
      "start": 4.9925,
      "duration": 0.0025,
      "velocity": 117,
      "chip": "ym2612"
    },
    {
      "channel": 1,
      "note": 52,
      "start": 4.9927,
      "duration": 0.0041,
      "velocity": 94,
      "chip": "ym2612"
    },
    {
      "channel": 2,
      "note": 45,
      "start": 4.9941,
      "duration": 0.0029,
      "velocity": 127,
      "chip": "ym2612"
    },
    {
      "channel": 4,
      "note": 52,
      "start": 4.9944,
      "duration": 0.001,
      "velocity": 117,
      "chip": "ym2612"
    },
    {
      "channel": 0,
      "note": 40,
      "start": 4.9968,
      "duration": 0.0026,
      "velocity": 117,
      "chip": "ym2612"
    },
    {
      "channel": 1,
      "note": 52,
      "start": 4.9969,
      "duration": 0.0044,
      "velocity": 94,
      "chip": "ym2612"
    },
    {
      "channel": 2,
      "note": 45,
      "start": 4.9986,
      "duration": 0.0031,
      "velocity": 127,
      "chip": "ym2612"
    },
    {
      "channel": 4,
      "note": 52,
      "start": 4.9988,
      "duration": 0.0009,
      "velocity": 117,
      "chip": "ym2612"
    },
    {
      "channel": 0,
      "note": 40,
      "start": 5.0013,
      "duration": 0.0028,
      "velocity": 117,
      "chip": "ym2612"
    },
    {
      "channel": 1,
      "note": 52,
      "start": 5.0015,
      "duration": 0.0044,
      "velocity": 94,
      "chip": "ym2612"
    },
    {
      "channel": 2,
      "note": 45,
      "start": 5.0032,
      "duration": 0.0029,
      "velocity": 127,
      "chip": "ym2612"
    },
    {
      "channel": 4,
      "note": 52,
      "start": 5.0035,
      "duration": 0.001,
      "velocity": 117,
      "chip": "ym2612"
    },
    {
      "channel": 0,
      "note": 52,
      "start": 5.0059,
      "duration": 0.0046,
      "velocity": 117,
      "chip": "ym2612"
    },
    {
      "channel": 1,
      "note": 67,
      "start": 5.006,
      "duration": 0.0055,
      "velocity": 94,
      "chip": "ym2612"
    },
    {
      "channel": 2,
      "note": 45,
      "start": 5.0075,
      "duration": 0.0044,
      "velocity": 127,
      "chip": "ym2612"
    },
    {
      "channel": 3,
      "note": 28,
      "start": 5.0077,
      "duration": 0.0277,
      "velocity": 105,
      "chip": "ym2612"
    },
    {
      "channel": 4,
      "note": 64,
      "start": 5.0079,
      "duration": 0.0029,
      "velocity": 117,
      "chip": "ym2612"
    },
    {
      "channel": 0,
      "note": 40,
      "start": 5.0114,
      "duration": 0.0025,
      "velocity": 117,
      "chip": "ym2612"
    },
    {
      "channel": 1,
      "note": 52,
      "start": 5.0118,
      "duration": 0.0044,
      "velocity": 94,
      "chip": "ym2612"
    },
    {
      "channel": 2,
      "note": 45,
      "start": 5.013,
      "duration": 0.0033,
      "velocity": 127,
      "chip": "ym2612"
    },
    {
      "channel": 4,
      "note": 52,
      "start": 5.0134,
      "duration": 0.001,
      "velocity": 117,
      "chip": "ym2612"
    },
    {
      "channel": 0,
      "note": 40,
      "start": 5.0161,
      "duration": 0.0024,
      "velocity": 117,
      "chip": "ym2612"
    },
    {
      "channel": 1,
      "note": 52,
      "start": 5.0163,
      "duration": 0.004,
      "velocity": 94,
      "chip": "ym2612"
    },
    {
      "channel": 2,
      "note": 45,
      "start": 5.0177,
      "duration": 0.0029,
      "velocity": 127,
      "chip": "ym2612"
    },
    {
      "channel": 4,
      "note": 52,
      "start": 5.018,
      "duration": 0.001,
      "velocity": 117,
      "chip": "ym2612"
    },
    {
      "channel": 0,
      "note": 40,
      "start": 5.0203,
      "duration": 0.0021,
      "velocity": 117,
      "chip": "ym2612"
    },
    {
      "channel": 1,
      "note": 52,
      "start": 5.0205,
      "duration": 0.0039,
      "velocity": 94,
      "chip": "ym2612"
    },
    {
      "channel": 2,
      "note": 45,
      "start": 5.0218,
      "duration": 0.0029,
      "velocity": 127,
      "chip": "ym2612"
    },
    {
      "channel": 4,
      "note": 52,
      "start": 5.022,
      "duration": 0.0008,
      "velocity": 117,
      "chip": "ym2612"
    },
    {
      "channel": 0,
      "note": 40,
      "start": 5.0244,
      "duration": 0.0025,
      "velocity": 117,
      "chip": "ym2612"
    },
    {
      "channel": 1,
      "note": 52,
      "start": 5.0246,
      "duration": 0.0042,
      "velocity": 94,
      "chip": "ym2612"
    },
    {
      "channel": 2,
      "note": 45,
      "start": 5.0261,
      "duration": 0.003,
      "velocity": 127,
      "chip": "ym2612"
    },
    {
      "channel": 4,
      "note": 52,
      "start": 5.0263,
      "duration": 0.001,
      "velocity": 117,
      "chip": "ym2612"
    },
    {
      "channel": 0,
      "note": 40,
      "start": 5.0287,
      "duration": 0.0026,
      "velocity": 117,
      "chip": "ym2612"
    },
    {
      "channel": 1,
      "note": 52,
      "start": 5.0289,
      "duration": 0.0048,
      "velocity": 94,
      "chip": "ym2612"
    },
    {
      "channel": 2,
      "note": 45,
      "start": 5.0305,
      "duration": 0.0034,
      "velocity": 127,
      "chip": "ym2612"
    },
    {
      "channel": 4,
      "note": 52,
      "start": 5.0308,
      "duration": 0.001,
      "velocity": 117,
      "chip": "ym2612"
    },
    {
      "channel": 0,
      "note": 55,
      "start": 5.0336,
      "duration": 0.0033,
      "velocity": 117,
      "chip": "ym2612"
    },
    {
      "channel": 1,
      "note": 71,
      "start": 5.0339,
      "duration": 0.004,
      "velocity": 94,
      "chip": "ym2612"
    },
    {
      "channel": 2,
      "note": 52,
      "start": 5.0354,
      "duration": 0.0028,
      "velocity": 114,
      "chip": "ym2612"
    },
    {
      "channel": 3,
      "note": 31,
      "start": 5.0356,
      "duration": 0.0255,
      "velocity": 105,
      "chip": "ym2612"
    },
    {
      "channel": 4,
      "note": 67,
      "start": 5.0357,
      "duration": 0.0015,
      "velocity": 117,
      "chip": "ym2612"
    },
    {
      "channel": 0,
      "note": 40,
      "start": 5.0378,
      "duration": 0.0027,
      "velocity": 117,
      "chip": "ym2612"
    },
    {
      "channel": 1,
      "note": 52,
      "start": 5.0381,
      "duration": 0.0047,
      "velocity": 94,
      "chip": "ym2612"
    },
    {
      "channel": 2,
      "note": 45,
      "start": 5.0396,
      "duration": 0.0033,
      "velocity": 127,
      "chip": "ym2612"
    },
    {
      "channel": 4,
      "note": 52,
      "start": 5.04,
      "duration": 0.0009,
      "velocity": 117,
      "chip": "ym2612"
    },
    {
      "channel": 0,
      "note": 40,
      "start": 5.0427,
      "duration": 0.0022,
      "velocity": 117,
      "chip": "ym2612"
    },
    {
      "channel": 1,
      "note": 52,
      "start": 5.0429,
      "duration": 0.0039,
      "velocity": 94,
      "chip": "ym2612"
    },
    {
      "channel": 2,
      "note": 45,
      "start": 5.0442,
      "duration": 0.0027,
      "velocity": 127,
      "chip": "ym2612"
    },
    {
      "channel": 4,
      "note": 52,
      "start": 5.0444,
      "duration": 0.0009,
      "velocity": 117,
      "chip": "ym2612"
    },
    {
      "channel": 0,
      "note": 40,
      "start": 5.0467,
      "duration": 0.0018,
      "velocity": 117,
      "chip": "ym2612"
    },
    {
      "channel": 1,
      "note": 52,
      "start": 5.0469,
      "duration": 0.0035,
      "velocity": 94,
      "chip": "ym2612"
    },
    {
      "channel": 2,
      "note": 45,
      "start": 5.0482,
      "duration": 0.0024,
      "velocity": 127,
      "chip": "ym2612"
    },
    {
      "channel": 4,
      "note": 52,
      "start": 5.0483,
      "duration": 0.0006,
      "velocity": 117,
      "chip": "ym2612"
    },
    {
      "channel": 0,
      "note": 40,
      "start": 5.0504,
      "duration": 0.0024,
      "velocity": 117,
      "chip": "ym2612"
    },
    {
      "channel": 1,
      "note": 52,
      "start": 5.0506,
      "duration": 0.0042,
      "velocity": 94,
      "chip": "ym2612"
    },
    {
      "channel": 2,
      "note": 45,
      "start": 5.052,
      "duration": 0.0031,
      "velocity": 127,
      "chip": "ym2612"
    },
    {
      "channel": 4,
      "note": 52,
      "start": 5.0522,
      "duration": 0.001,
      "velocity": 117,
      "chip": "ym2612"
    },
    {
      "channel": 0,
      "note": 40,
      "start": 5.0547,
      "duration": 0.0027,
      "velocity": 117,
      "chip": "ym2612"
    },
    {
      "channel": 1,
      "note": 52,
      "start": 5.0549,
      "duration": 0.0044,
      "velocity": 94,
      "chip": "ym2612"
    },
    {
      "channel": 2,
      "note": 45,
      "start": 5.0566,
      "duration": 0.0029,
      "velocity": 127,
      "chip": "ym2612"
    },
    {
      "channel": 4,
      "note": 52,
      "start": 5.0569,
      "duration": 0.0009,
      "velocity": 117,
      "chip": "ym2612"
    },
    {
      "channel": 0,
      "note": 54,
      "start": 5.0592,
      "duration": 0.0041,
      "velocity": 117,
      "chip": "ym2612"
    },
    {
      "channel": 1,
      "note": 69,
      "start": 5.0594,
      "duration": 0.0049,
      "velocity": 94,
      "chip": "ym2612"
    },
    {
      "channel": 2,
      "note": 59,
      "start": 5.061,
      "duration": 0.0034,
      "velocity": 114,
      "chip": "ym2612"
    },
    {
      "channel": 3,
      "note": 30,
      "start": 5.0614,
      "duration": 0.0257,
      "velocity": 105,
      "chip": "ym2612"
    },
    {
      "channel": 4,
      "note": 66,
      "start": 5.0617,
      "duration": 0.002,
      "velocity": 117,
      "chip": "ym2612"
    },
    {
      "channel": 0,
      "note": 40,
      "start": 5.0643,
      "duration": 0.0022,
      "velocity": 117,
      "chip": "ym2612"
    },
    {
      "channel": 1,
      "note": 52,
      "start": 5.0644,
      "duration": 0.0039,
      "velocity": 94,
      "chip": "ym2612"
    },
    {
      "channel": 2,
      "note": 45,
      "start": 5.0658,
      "duration": 0.0027,
      "velocity": 127,
      "chip": "ym2612"
    },
    {
      "channel": 4,
      "note": 52,
      "start": 5.0661,
      "duration": 0.0008,
      "velocity": 117,
      "chip": "ym2612"
    },
    {
      "channel": 0,
      "note": 40,
      "start": 5.0683,
      "duration": 0.0023,
      "velocity": 117,
      "chip": "ym2612"
    },
    {
      "channel": 1,
      "note": 52,
      "start": 5.0685,
      "duration": 0.0041,
      "velocity": 94,
      "chip": "ym2612"
    },
    {
      "channel": 2,
      "note": 45,
      "start": 5.0699,
      "duration": 0.0029,
      "velocity": 127,
      "chip": "ym2612"
    },
    {
      "channel": 4,
      "note": 52,
      "start": 5.0701,
      "duration": 0.0009,
      "velocity": 117,
      "chip": "ym2612"
    },
    {
      "channel": 0,
      "note": 40,
      "start": 5.0726,
      "duration": 0.0022,
      "velocity": 117,
      "chip": "ym2612"
    },
    {
      "channel": 1,
      "note": 52,
      "start": 5.0728,
      "duration": 0.0039,
      "velocity": 94,
      "chip": "ym2612"
    },
    {
      "channel": 2,
      "note": 45,
      "start": 5.0742,
      "duration": 0.0027,
      "velocity": 127,
      "chip": "ym2612"
    },
    {
      "channel": 4,
      "note": 52,
      "start": 5.0744,
      "duration": 0.0007,
      "velocity": 117,
      "chip": "ym2612"
    },
    {
      "channel": 0,
      "note": 40,
      "start": 5.0766,
      "duration": 0.0024,
      "velocity": 117,
      "chip": "ym2612"
    },
    {
      "channel": 1,
      "note": 52,
      "start": 5.0768,
      "duration": 0.0042,
      "velocity": 94,
      "chip": "ym2612"
    },
    {
      "channel": 2,
      "note": 45,
      "start": 5.0782,
      "duration": 0.0031,
      "velocity": 127,
      "chip": "ym2612"
    },
    {
      "channel": 4,
      "note": 52,
      "start": 5.0784,
      "duration": 0.001,
      "velocity": 117,
      "chip": "ym2612"
    },
    {
      "channel": 0,
      "note": 40,
      "start": 5.0809,
      "duration": 0.0027,
      "velocity": 117,
      "chip": "ym2612"
    },
    {
      "channel": 1,
      "note": 52,
      "start": 5.0811,
      "duration": 0.0044,
      "velocity": 94,
      "chip": "ym2612"
    },
    {
      "channel": 2,
      "note": 45,
      "start": 5.0828,
      "duration": 0.0029,
      "velocity": 127,
      "chip": "ym2612"
    },
    {
      "channel": 4,
      "note": 52,
      "start": 5.0831,
      "duration": 0.0009,
      "velocity": 117,
      "chip": "ym2612"
    },
    {
      "channel": 0,
      "note": 57,
      "start": 5.0854,
      "duration": 0.0034,
      "velocity": 117,
      "chip": "ym2612"
    },
    {
      "channel": 1,
      "note": 72,
      "start": 5.0856,
      "duration": 0.0042,
      "velocity": 94,
      "chip": "ym2612"
    },
    {
      "channel": 2,
      "note": 45,
      "start": 5.087,
      "duration": 0.003,
      "velocity": 127,
      "chip": "ym2612"
    },
    {
      "channel": 3,
      "note": 29,
      "start": 5.0873,
      "duration": 0.0264,
      "velocity": 105,
      "chip": "ym2612"
    },
    {
      "channel": 4,
      "note": 69,
      "start": 5.0875,
      "duration": 0.0016,
      "velocity": 117,
      "chip": "ym2612"
    },
    {
      "channel": 0,
      "note": 40,
      "start": 5.0897,
      "duration": 0.0023,
      "velocity": 117,
      "chip": "ym2612"
    },
    {
      "channel": 1,
      "note": 52,
      "start": 5.09,
      "duration": 0.0043,
      "velocity": 94,
      "chip": "ym2612"
    },
    {
      "channel": 2,
      "note": 45,
      "start": 5.0912,
      "duration": 0.0032,
      "velocity": 127,
      "chip": "ym2612"
    },
    {
      "channel": 4,
      "note": 52,
      "start": 5.0915,
      "duration": 0.0009,
      "velocity": 117,
      "chip": "ym2612"
    },
    {
      "channel": 0,
      "note": 40,
      "start": 5.0942,
      "duration": 0.0026,
      "velocity": 117,
      "chip": "ym2612"
    },
    {
      "channel": 1,
      "note": 52,
      "start": 5.0944,
      "duration": 0.0042,
      "velocity": 94,
      "chip": "ym2612"
    },
    {
      "channel": 2,
      "note": 45,
      "start": 5.0958,
      "duration": 0.003,
      "velocity": 127,
      "chip": "ym2612"
    },
    {
      "channel": 4,
      "note": 52,
      "start": 5.0962,
      "duration": 0.0009,
      "velocity": 117,
      "chip": "ym2612"
    },
    {
      "channel": 0,
      "note": 40,
      "start": 5.0986,
      "duration": 0.0025,
      "velocity": 117,
      "chip": "ym2612"
    },
    {
      "channel": 1,
      "note": 52,
      "start": 5.0987,
      "duration": 0.0042,
      "velocity": 94,
      "chip": "ym2612"
    },
    {
      "channel": 2,
      "note": 45,
      "start": 5.1002,
      "duration": 0.003,
      "velocity": 127,
      "chip": "ym2612"
    },
    {
      "channel": 4,
      "note": 52,
      "start": 5.1005,
      "duration": 0.0009,
      "velocity": 117,
      "chip": "ym2612"
    },
    {
      "channel": 0,
      "note": 40,
      "start": 5.1028,
      "duration": 0.0028,
      "velocity": 117,
      "chip": "ym2612"
    },
    {
      "channel": 1,
      "note": 52,
      "start": 5.1031,
      "duration": 0.0044,
      "velocity": 94,
      "chip": "ym2612"
    },
    {
      "channel": 2,
      "note": 45,
      "start": 5.1048,
      "duration": 0.003,
      "velocity": 127,
      "chip": "ym2612"
    },
    {
      "channel": 4,
      "note": 52,
      "start": 5.1051,
      "duration": 0.0009,
      "velocity": 117,
      "chip": "ym2612"
    },
    {
      "channel": 0,
      "note": 40,
      "start": 5.1074,
      "duration": 0.0027,
      "velocity": 117,
      "chip": "ym2612"
    },
    {
      "channel": 1,
      "note": 52,
      "start": 5.1076,
      "duration": 0.0043,
      "velocity": 94,
      "chip": "ym2612"
    },
    {
      "channel": 2,
      "note": 45,
      "start": 5.1092,
      "duration": 0.003,
      "velocity": 127,
      "chip": "ym2612"
    },
    {
      "channel": 4,
      "note": 52,
      "start": 5.1095,
      "duration": 0.001,
      "velocity": 117,
      "chip": "ym2612"
    },
    {
      "channel": 0,
      "note": 52,
      "start": 5.1119,
      "duration": 0.0035,
      "velocity": 117,
      "chip": "ym2612"
    },
    {
      "channel": 1,
      "note": 67,
      "start": 5.1122,
      "duration": 0.0044,
      "velocity": 94,
      "chip": "ym2612"
    },
    {
      "channel": 2,
      "note": 45,
      "start": 5.1136,
      "duration": 0.0032,
      "velocity": 127,
      "chip": "ym2612"
    },
    {
      "channel": 3,
      "note": 28,
      "start": 5.1139,
      "duration": 0.0265,
      "velocity": 105,
      "chip": "ym2612"
    },
    {
      "channel": 4,
      "note": 64,
      "start": 5.1141,
      "duration": 0.0018,
      "velocity": 117,
      "chip": "ym2612"
    },
    {
      "channel": 0,
      "note": 40,
      "start": 5.1164,
      "duration": 0.0025,
      "velocity": 117,
      "chip": "ym2612"
    },
    {
      "channel": 1,
      "note": 52,
      "start": 5.1168,
      "duration": 0.0044,
      "velocity": 94,
      "chip": "ym2612"
    },
    {
      "channel": 2,
      "note": 45,
      "start": 5.118,
      "duration": 0.0033,
      "velocity": 127,
      "chip": "ym2612"
    },
    {
      "channel": 4,
      "note": 52,
      "start": 5.1184,
      "duration": 0.001,
      "velocity": 117,
      "chip": "ym2612"
    },
    {
      "channel": 0,
      "note": 40,
      "start": 5.1212,
      "duration": 0.0024,
      "velocity": 117,
      "chip": "ym2612"
    },
    {
      "channel": 1,
      "note": 52,
      "start": 5.1213,
      "duration": 0.004,
      "velocity": 94,
      "chip": "ym2612"
    },
    {
      "channel": 2,
      "note": 45,
      "start": 5.1227,
      "duration": 0.0029,
      "velocity": 127,
      "chip": "ym2612"
    },
    {
      "channel": 4,
      "note": 52,
      "start": 5.123,
      "duration": 0.001,
      "velocity": 117,
      "chip": "ym2612"
    },
    {
      "channel": 0,
      "note": 40,
      "start": 5.1253,
      "duration": 0.0021,
      "velocity": 117,
      "chip": "ym2612"
    },
    {
      "channel": 1,
      "note": 52,
      "start": 5.1255,
      "duration": 0.0039,
      "velocity": 94,
      "chip": "ym2612"
    },
    {
      "channel": 2,
      "note": 45,
      "start": 5.1268,
      "duration": 0.0029,
      "velocity": 127,
      "chip": "ym2612"
    },
    {
      "channel": 4,
      "note": 52,
      "start": 5.127,
      "duration": 0.0008,
      "velocity": 117,
      "chip": "ym2612"
    },
    {
      "channel": 0,
      "note": 40,
      "start": 5.1294,
      "duration": 0.0025,
      "velocity": 117,
      "chip": "ym2612"
    },
    {
      "channel": 1,
      "note": 52,
      "start": 5.1296,
      "duration": 0.0042,
      "velocity": 94,
      "chip": "ym2612"
    },
    {
      "channel": 2,
      "note": 45,
      "start": 5.1311,
      "duration": 0.003,
      "velocity": 127,
      "chip": "ym2612"
    },
    {
      "channel": 4,
      "note": 52,
      "start": 5.1313,
      "duration": 0.001,
      "velocity": 117,
      "chip": "ym2612"
    },
    {
      "channel": 0,
      "note": 40,
      "start": 5.1337,
      "duration": 0.0026,
      "velocity": 117,
      "chip": "ym2612"
    },
    {
      "channel": 1,
      "note": 52,
      "start": 5.1339,
      "duration": 0.0048,
      "velocity": 94,
      "chip": "ym2612"
    },
    {
      "channel": 2,
      "note": 45,
      "start": 5.1355,
      "duration": 0.0034,
      "velocity": 127,
      "chip": "ym2612"
    },
    {
      "channel": 4,
      "note": 52,
      "start": 5.1358,
      "duration": 0.001,
      "velocity": 117,
      "chip": "ym2612"
    },
    {
      "channel": 0,
      "note": 55,
      "start": 5.1386,
      "duration": 0.0033,
      "velocity": 117,
      "chip": "ym2612"
    },
    {
      "channel": 1,
      "note": 71,
      "start": 5.1389,
      "duration": 0.004,
      "velocity": 94,
      "chip": "ym2612"
    },
    {
      "channel": 2,
      "note": 52,
      "start": 5.1404,
      "duration": 0.0028,
      "velocity": 114,
      "chip": "ym2612"
    },
    {
      "channel": 3,
      "note": 31,
      "start": 5.1406,
      "duration": 0.0255,
      "velocity": 105,
      "chip": "ym2612"
    },
    {
      "channel": 4,
      "note": 67,
      "start": 5.1407,
      "duration": 0.0015,
      "velocity": 117,
      "chip": "ym2612"
    },
    {
      "channel": 0,
      "note": 40,
      "start": 5.1428,
      "duration": 0.0027,
      "velocity": 117,
      "chip": "ym2612"
    },
    {
      "channel": 1,
      "note": 52,
      "start": 5.1431,
      "duration": 0.0047,
      "velocity": 94,
      "chip": "ym2612"
    },
    {
      "channel": 2,
      "note": 45,
      "start": 5.1446,
      "duration": 0.0033,
      "velocity": 127,
      "chip": "ym2612"
    },
    {
      "channel": 4,
      "note": 52,
      "start": 5.145,
      "duration": 0.0009,
      "velocity": 117,
      "chip": "ym2612"
    },
    {
      "channel": 0,
      "note": 40,
      "start": 5.1477,
      "duration": 0.0022,
      "velocity": 117,
      "chip": "ym2612"
    },
    {
      "channel": 1,
      "note": 52,
      "start": 5.1479,
      "duration": 0.0039,
      "velocity": 94,
      "chip": "ym2612"
    },
    {
      "channel": 2,
      "note": 45,
      "start": 5.1493,
      "duration": 0.0027,
      "velocity": 127,
      "chip": "ym2612"
    },
    {
      "channel": 4,
      "note": 52,
      "start": 5.1495,
      "duration": 0.0009,
      "velocity": 117,
      "chip": "ym2612"
    },
    {
      "channel": 0,
      "note": 40,
      "start": 5.1517,
      "duration": 0.0018,
      "velocity": 117,
      "chip": "ym2612"
    },
    {
      "channel": 1,
      "note": 52,
      "start": 5.1519,
      "duration": 0.0035,
      "velocity": 94,
      "chip": "ym2612"
    },
    {
      "channel": 2,
      "note": 45,
      "start": 5.1532,
      "duration": 0.0024,
      "velocity": 127,
      "chip": "ym2612"
    },
    {
      "channel": 4,
      "note": 52,
      "start": 5.1534,
      "duration": 0.0006,
      "velocity": 117,
      "chip": "ym2612"
    },
    {
      "channel": 0,
      "note": 40,
      "start": 5.1554,
      "duration": 0.0024,
      "velocity": 117,
      "chip": "ym2612"
    },
    {
      "channel": 1,
      "note": 52,
      "start": 5.1556,
      "duration": 0.0042,
      "velocity": 94,
      "chip": "ym2612"
    },
    {
      "channel": 2,
      "note": 45,
      "start": 5.157,
      "duration": 0.0031,
      "velocity": 127,
      "chip": "ym2612"
    },
    {
      "channel": 4,
      "note": 52,
      "start": 5.1572,
      "duration": 0.001,
      "velocity": 117,
      "chip": "ym2612"
    },
    {
      "channel": 0,
      "note": 40,
      "start": 5.1597,
      "duration": 0.0027,
      "velocity": 117,
      "chip": "ym2612"
    },
    {
      "channel": 1,
      "note": 52,
      "start": 5.1599,
      "duration": 0.0044,
      "velocity": 94,
      "chip": "ym2612"
    },
    {
      "channel": 2,
      "note": 45,
      "start": 5.1616,
      "duration": 0.0029,
      "velocity": 127,
      "chip": "ym2612"
    },
    {
      "channel": 4,
      "note": 52,
      "start": 5.1619,
      "duration": 0.0009,
      "velocity": 117,
      "chip": "ym2612"
    },
    {
      "channel": 0,
      "note": 54,
      "start": 5.1642,
      "duration": 0.0041,
      "velocity": 117,
      "chip": "ym2612"
    },
    {
      "channel": 1,
      "note": 69,
      "start": 5.1644,
      "duration": 0.0049,
      "velocity": 94,
      "chip": "ym2612"
    },
    {
      "channel": 2,
      "note": 59,
      "start": 5.1661,
      "duration": 0.0034,
      "velocity": 114,
      "chip": "ym2612"
    },
    {
      "channel": 3,
      "note": 30,
      "start": 5.1664,
      "duration": 0.0257,
      "velocity": 105,
      "chip": "ym2612"
    },
    {
      "channel": 4,
      "note": 66,
      "start": 5.1667,
      "duration": 0.002,
      "velocity": 117,
      "chip": "ym2612"
    },
    {
      "channel": 0,
      "note": 40,
      "start": 5.1693,
      "duration": 0.0022,
      "velocity": 117,
      "chip": "ym2612"
    },
    {
      "channel": 1,
      "note": 52,
      "start": 5.1695,
      "duration": 0.0039,
      "velocity": 94,
      "chip": "ym2612"
    },
    {
      "channel": 2,
      "note": 45,
      "start": 5.1708,
      "duration": 0.0027,
      "velocity": 127,
      "chip": "ym2612"
    },
    {
      "channel": 4,
      "note": 52,
      "start": 5.1711,
      "duration": 0.0008,
      "velocity": 117,
      "chip": "ym2612"
    },
    {
      "channel": 0,
      "note": 40,
      "start": 5.1733,
      "duration": 0.0023,
      "velocity": 117,
      "chip": "ym2612"
    },
    {
      "channel": 1,
      "note": 52,
      "start": 5.1735,
      "duration": 0.0041,
      "velocity": 94,
      "chip": "ym2612"
    },
    {
      "channel": 2,
      "note": 45,
      "start": 5.1749,
      "duration": 0.0029,
      "velocity": 127,
      "chip": "ym2612"
    },
    {
      "channel": 4,
      "note": 52,
      "start": 5.1751,
      "duration": 0.0009,
      "velocity": 117,
      "chip": "ym2612"
    },
    {
      "channel": 0,
      "note": 40,
      "start": 5.1776,
      "duration": 0.0022,
      "velocity": 117,
      "chip": "ym2612"
    },
    {
      "channel": 1,
      "note": 52,
      "start": 5.1778,
      "duration": 0.0039,
      "velocity": 94,
      "chip": "ym2612"
    },
    {
      "channel": 2,
      "note": 45,
      "start": 5.1792,
      "duration": 0.0027,
      "velocity": 127,
      "chip": "ym2612"
    },
    {
      "channel": 4,
      "note": 52,
      "start": 5.1794,
      "duration": 0.0007,
      "velocity": 117,
      "chip": "ym2612"
    },
    {
      "channel": 0,
      "note": 40,
      "start": 5.1816,
      "duration": 0.0024,
      "velocity": 117,
      "chip": "ym2612"
    },
    {
      "channel": 1,
      "note": 52,
      "start": 5.1818,
      "duration": 0.0042,
      "velocity": 94,
      "chip": "ym2612"
    },
    {
      "channel": 2,
      "note": 45,
      "start": 5.1832,
      "duration": 0.0031,
      "velocity": 127,
      "chip": "ym2612"
    },
    {
      "channel": 4,
      "note": 52,
      "start": 5.1834,
      "duration": 0.001,
      "velocity": 117,
      "chip": "ym2612"
    },
    {
      "channel": 0,
      "note": 40,
      "start": 5.1859,
      "duration": 0.0027,
      "velocity": 117,
      "chip": "ym2612"
    },
    {
      "channel": 1,
      "note": 52,
      "start": 5.1861,
      "duration": 0.0044,
      "velocity": 94,
      "chip": "ym2612"
    },
    {
      "channel": 2,
      "note": 45,
      "start": 5.1878,
      "duration": 0.0029,
      "velocity": 127,
      "chip": "ym2612"
    },
    {
      "channel": 4,
      "note": 52,
      "start": 5.1881,
      "duration": 0.0009,
      "velocity": 117,
      "chip": "ym2612"
    },
    {
      "channel": 0,
      "note": 57,
      "start": 5.1904,
      "duration": 0.0034,
      "velocity": 117,
      "chip": "ym2612"
    },
    {
      "channel": 1,
      "note": 72,
      "start": 5.1906,
      "duration": 0.0042,
      "velocity": 94,
      "chip": "ym2612"
    },
    {
      "channel": 2,
      "note": 45,
      "start": 5.192,
      "duration": 0.003,
      "velocity": 127,
      "chip": "ym2612"
    },
    {
      "channel": 3,
      "note": 29,
      "start": 5.1924,
      "duration": 0.0279,
      "velocity": 105,
      "chip": "ym2612"
    },
    {
      "channel": 4,
      "note": 69,
      "start": 5.1925,
      "duration": 0.0016,
      "velocity": 117,
      "chip": "ym2612"
    },
    {
      "channel": 0,
      "note": 40,
      "start": 5.1947,
      "duration": 0.0023,
      "velocity": 117,
      "chip": "ym2612"
    },
    {
      "channel": 1,
      "note": 52,
      "start": 5.195,
      "duration": 0.0043,
      "velocity": 94,
      "chip": "ym2612"
    },
    {
      "channel": 2,
      "note": 45,
      "start": 5.1963,
      "duration": 0.0032,
      "velocity": 127,
      "chip": "ym2612"
    },
    {
      "channel": 4,
      "note": 52,
      "start": 5.1965,
      "duration": 0.0009,
      "velocity": 117,
      "chip": "ym2612"
    },
    {
      "channel": 0,
      "note": 40,
      "start": 5.1992,
      "duration": 0.0036,
      "velocity": 117,
      "chip": "ym2612"
    },
    {
      "channel": 1,
      "note": 52,
      "start": 5.1994,
      "duration": 0.006,
      "velocity": 94,
      "chip": "ym2612"
    },
    {
      "channel": 2,
      "note": 45,
      "start": 5.2008,
      "duration": 0.0048,
      "velocity": 127,
      "chip": "ym2612"
    },
    {
      "channel": 4,
      "note": 52,
      "start": 5.2012,
      "duration": 0.002,
      "velocity": 117,
      "chip": "ym2612"
    },
    {
      "channel": 0,
      "note": 40,
      "start": 5.2054,
      "duration": 0.0025,
      "velocity": 117,
      "chip": "ym2612"
    },
    {
      "channel": 1,
      "note": 52,
      "start": 5.2056,
      "duration": 0.0041,
      "velocity": 94,
      "chip": "ym2612"
    },
    {
      "channel": 2,
      "note": 45,
      "start": 5.207,
      "duration": 0.0029,
      "velocity": 127,
      "chip": "ym2612"
    },
    {
      "channel": 4,
      "note": 52,
      "start": 5.2072,
      "duration": 0.001,
      "velocity": 117,
      "chip": "ym2612"
    },
    {
      "channel": 0,
      "note": 40,
      "start": 5.2096,
      "duration": 0.0026,
      "velocity": 117,
      "chip": "ym2612"
    },
    {
      "channel": 1,
      "note": 52,
      "start": 5.2098,
      "duration": 0.0044,
      "velocity": 94,
      "chip": "ym2612"
    },
    {
      "channel": 2,
      "note": 45,
      "start": 5.2115,
      "duration": 0.0031,
      "velocity": 127,
      "chip": "ym2612"
    },
    {
      "channel": 4,
      "note": 52,
      "start": 5.2117,
      "duration": 0.0009,
      "velocity": 117,
      "chip": "ym2612"
    },
    {
      "channel": 0,
      "note": 40,
      "start": 5.2141,
      "duration": 0.0028,
      "velocity": 117,
      "chip": "ym2612"
    },
    {
      "channel": 1,
      "note": 52,
      "start": 5.2144,
      "duration": 0.0044,
      "velocity": 94,
      "chip": "ym2612"
    },
    {
      "channel": 2,
      "note": 45,
      "start": 5.216,
      "duration": 0.0029,
      "velocity": 127,
      "chip": "ym2612"
    },
    {
      "channel": 4,
      "note": 52,
      "start": 5.2163,
      "duration": 0.001,
      "velocity": 117,
      "chip": "ym2612"
    },
    {
      "channel": 0,
      "note": 52,
      "start": 5.2187,
      "duration": 0.0022,
      "velocity": 117,
      "chip": "ym2612"
    },
    {
      "channel": 1,
      "note": 52,
      "start": 5.2188,
      "duration": 0.0041,
      "velocity": 94,
      "chip": "ym2612"
    },
    {
      "channel": 2,
      "note": 45,
      "start": 5.2202,
      "duration": 0.0029,
      "velocity": 127,
      "chip": "ym2612"
    },
    {
      "channel": 3,
      "note": 28,
      "start": 5.2205,
      "duration": 0.0083,
      "velocity": 105,
      "chip": "ym2612"
    },
    {
      "channel": 4,
      "note": 64,
      "start": 5.2206,
      "duration": 0.0007,
      "velocity": 117,
      "chip": "ym2612"
    },
    {
      "channel": 0,
      "note": 52,
      "start": 5.2229,
      "duration": 0.0018,
      "velocity": 117,
      "chip": "ym2612"
    },
    {
      "channel": 1,
      "note": 52,
      "start": 5.223,
      "duration": 0.0037,
      "velocity": 94,
      "chip": "ym2612"
    },
    {
      "channel": 2,
      "note": 45,
      "start": 5.2244,
      "duration": 0.0027,
      "velocity": 127,
      "chip": "ym2612"
    },
    {
      "channel": 4,
      "note": 64,
      "start": 5.2245,
      "duration": 0.0006,
      "velocity": 117,
      "chip": "ym2612"
    },
    {
      "channel": 0,
      "note": 52,
      "start": 5.2266,
      "duration": 0.0026,
      "velocity": 117,
      "chip": "ym2612"
    },
    {
      "channel": 1,
      "note": 52,
      "start": 5.227,
      "duration": 0.0044,
      "velocity": 94,
      "chip": "ym2612"
    },
    {
      "channel": 2,
      "note": 45,
      "start": 5.2284,
      "duration": 0.0031,
      "velocity": 127,
      "chip": "ym2612"
    },
    {
      "channel": 3,
      "note": 28,
      "start": 5.2288,
      "duration": 0.0082,
      "velocity": 105,
      "chip": "ym2612"
    },
    {
      "channel": 4,
      "note": 64,
      "start": 5.2291,
      "duration": 0.0005,
      "velocity": 117,
      "chip": "ym2612"
    },
    {
      "channel": 0,
      "note": 52,
      "start": 5.2312,
      "duration": 0.002,
      "velocity": 117,
      "chip": "ym2612"
    },
    {
      "channel": 1,
      "note": 52,
      "start": 5.2315,
      "duration": 0.0035,
      "velocity": 94,
      "chip": "ym2612"
    },
    {
      "channel": 2,
      "note": 45,
      "start": 5.2329,
      "duration": 0.0024,
      "velocity": 127,
      "chip": "ym2612"
    },
    {
      "channel": 4,
      "note": 64,
      "start": 5.233,
      "duration": 0.0005,
      "velocity": 117,
      "chip": "ym2612"
    },
    {
      "channel": 0,
      "note": 52,
      "start": 5.2349,
      "duration": 0.0068,
      "velocity": 117,
      "chip": "ym2612"
    },
    {
      "channel": 1,
      "note": 52,
      "start": 5.2353,
      "duration": 0.09,
      "velocity": 94,
      "chip": "ym2612"
    },
    {
      "channel": 2,
      "note": 45,
      "start": 5.2366,
      "duration": 0.0888,
      "velocity": 127,
      "chip": "ym2612"
    },
    {
      "channel": 3,
      "note": 28,
      "start": 5.237,
      "duration": 0.1906,
      "velocity": 105,
      "chip": "ym2612"
    },
    {
      "channel": 4,
      "note": 64,
      "start": 5.2373,
      "duration": 0.0049,
      "velocity": 117,
      "chip": "ym2612"
    },
    {
      "channel": 0,
      "note": 52,
      "start": 5.3252,
      "duration": 0.0166,
      "velocity": 117,
      "chip": "ym2612"
    },
    {
      "channel": 1,
      "note": 52,
      "start": 5.3254,
      "duration": 0.1001,
      "velocity": 94,
      "chip": "ym2612"
    },
    {
      "channel": 2,
      "note": 45,
      "start": 5.3266,
      "duration": 0.0994,
      "velocity": 127,
      "chip": "ym2612"
    },
    {
      "channel": 4,
      "note": 64,
      "start": 5.3268,
      "duration": 0.0153,
      "velocity": 117,
      "chip": "ym2612"
    },
    {
      "channel": 0,
      "note": 52,
      "start": 5.4254,
      "duration": 0.0163,
      "velocity": 117,
      "chip": "ym2612"
    },
    {
      "channel": 1,
      "note": 52,
      "start": 5.4259,
      "duration": 0.0994,
      "velocity": 94,
      "chip": "ym2612"
    },
    {
      "channel": 2,
      "note": 45,
      "start": 5.4271,
      "duration": 0.0983,
      "velocity": 127,
      "chip": "ym2612"
    },
    {
      "channel": 3,
      "note": 28,
      "start": 5.4275,
      "duration": 0.2,
      "velocity": 105,
      "chip": "ym2612"
    },
    {
      "channel": 4,
      "note": 64,
      "start": 5.428,
      "duration": 0.0142,
      "velocity": 117,
      "chip": "ym2612"
    },
    {
      "channel": 0,
      "note": 52,
      "start": 5.5252,
      "duration": 0.0166,
      "velocity": 117,
      "chip": "ym2612"
    },
    {
      "channel": 1,
      "note": 52,
      "start": 5.5254,
      "duration": 0.1001,
      "velocity": 94,
      "chip": "ym2612"
    },
    {
      "channel": 2,
      "note": 45,
      "start": 5.5266,
      "duration": 0.0994,
      "velocity": 127,
      "chip": "ym2612"
    },
    {
      "channel": 4,
      "note": 64,
      "start": 5.5268,
      "duration": 0.0153,
      "velocity": 117,
      "chip": "ym2612"
    },
    {
      "channel": 0,
      "note": 52,
      "start": 5.6254,
      "duration": 0.0163,
      "velocity": 117,
      "chip": "ym2612"
    },
    {
      "channel": 1,
      "note": 52,
      "start": 5.6259,
      "duration": 0.0994,
      "velocity": 94,
      "chip": "ym2612"
    },
    {
      "channel": 2,
      "note": 45,
      "start": 5.6271,
      "duration": 0.0983,
      "velocity": 127,
      "chip": "ym2612"
    },
    {
      "channel": 3,
      "note": 28,
      "start": 5.6275,
      "duration": 0.2,
      "velocity": 105,
      "chip": "ym2612"
    },
    {
      "channel": 4,
      "note": 64,
      "start": 5.628,
      "duration": 0.0142,
      "velocity": 117,
      "chip": "ym2612"
    },
    {
      "channel": 0,
      "note": 52,
      "start": 5.7252,
      "duration": 0.0166,
      "velocity": 117,
      "chip": "ym2612"
    },
    {
      "channel": 1,
      "note": 52,
      "start": 5.7254,
      "duration": 0.1001,
      "velocity": 94,
      "chip": "ym2612"
    },
    {
      "channel": 2,
      "note": 45,
      "start": 5.7266,
      "duration": 0.0994,
      "velocity": 127,
      "chip": "ym2612"
    },
    {
      "channel": 4,
      "note": 64,
      "start": 5.7268,
      "duration": 0.0153,
      "velocity": 117,
      "chip": "ym2612"
    },
    {
      "channel": 0,
      "note": 52,
      "start": 5.8254,
      "duration": 0.0163,
      "velocity": 117,
      "chip": "ym2612"
    },
    {
      "channel": 1,
      "note": 52,
      "start": 5.8259,
      "duration": 0.0994,
      "velocity": 94,
      "chip": "ym2612"
    },
    {
      "channel": 2,
      "note": 45,
      "start": 5.8271,
      "duration": 0.0983,
      "velocity": 127,
      "chip": "ym2612"
    },
    {
      "channel": 3,
      "note": 28,
      "start": 5.8275,
      "duration": 0.203,
      "velocity": 114,
      "chip": "ym2612"
    },
    {
      "channel": 4,
      "note": 64,
      "start": 5.828,
      "duration": 0.0142,
      "velocity": 117,
      "chip": "ym2612"
    },
    {
      "channel": 0,
      "note": 52,
      "start": 5.9252,
      "duration": 0.0166,
      "velocity": 117,
      "chip": "ym2612"
    },
    {
      "channel": 1,
      "note": 52,
      "start": 5.9254,
      "duration": 0.101,
      "velocity": 94,
      "chip": "ym2612"
    },
    {
      "channel": 2,
      "note": 45,
      "start": 5.9266,
      "duration": 0.1012,
      "velocity": 127,
      "chip": "ym2612"
    },
    {
      "channel": 4,
      "note": 64,
      "start": 5.9268,
      "duration": 0.0153,
      "velocity": 117,
      "chip": "ym2612"
    },
    {
      "channel": 0,
      "note": 52,
      "start": 6.0263,
      "duration": 0.0987,
      "velocity": 101,
      "chip": "ym2612"
    },
    {
      "channel": 1,
      "note": 52,
      "start": 6.0277,
      "duration": 0.0977,
      "velocity": 94,
      "chip": "ym2612"
    },
    {
      "channel": 2,
      "note": 44,
      "start": 6.0291,
      "duration": 29.9618,
      "velocity": 114,
      "chip": "ym2612"
    },
    {
      "channel": 3,
      "note": 56,
      "start": 6.0305,
      "duration": 29.9604,
      "velocity": 114,
      "chip": "ym2612"
    },
    {
      "channel": 4,
      "note": 69,
      "start": 6.0319,
      "duration": 0.0938,
      "velocity": 101,
      "chip": "ym2612"
    },
    {
      "channel": 0,
      "note": 59,
      "start": 6.1253,
      "duration": 0.0998,
      "velocity": 101,
      "chip": "ym2612"
    },
    {
      "channel": 1,
      "note": 52,
      "start": 6.1255,
      "duration": 0.0999,
      "velocity": 94,
      "chip": "ym2612"
    },
    {
      "channel": 4,
      "note": 76,
      "start": 6.1259,
      "duration": 0.0998,
      "velocity": 101,
      "chip": "ym2612"
    },
    {
      "channel": 0,
      "note": 64,
      "start": 6.2253,
      "duration": 0.0998,
      "velocity": 101,
      "chip": "ym2612"
    },
    {
      "channel": 1,
      "note": 52,
      "start": 6.2255,
      "duration": 0.0999,
      "velocity": 94,
      "chip": "ym2612"
    },
    {
      "channel": 4,
      "note": 81,
      "start": 6.2259,
      "duration": 0.0998,
      "velocity": 101,
      "chip": "ym2612"
    },
    {
      "channel": 0,
      "note": 59,
      "start": 6.3253,
      "duration": 0.0998,
      "velocity": 101,
      "chip": "ym2612"
    },
    {
      "channel": 1,
      "note": 52,
      "start": 6.3255,
      "duration": 0.1001,
      "velocity": 94,
      "chip": "ym2612"
    },
    {
      "channel": 4,
      "note": 76,
      "start": 6.326,
      "duration": 0.1,
      "velocity": 101,
      "chip": "ym2612"
    },
    {
      "channel": 0,
      "note": 52,
      "start": 6.4255,
      "duration": 0.0996,
      "velocity": 101,
      "chip": "ym2612"
    },
    {
      "channel": 1,
      "note": 52,
      "start": 6.4258,
      "duration": 0.0996,
      "velocity": 94,
      "chip": "ym2612"
    },
    {
      "channel": 4,
      "note": 69,
      "start": 6.4264,
      "duration": 0.0993,
      "velocity": 101,
      "chip": "ym2612"
    },
    {
      "channel": 0,
      "note": 59,
      "start": 6.5253,
      "duration": 0.0998,
      "velocity": 101,
      "chip": "ym2612"
    },
    {
      "channel": 1,
      "note": 52,
      "start": 6.5255,
      "duration": 0.0999,
      "velocity": 94,
      "chip": "ym2612"
    },
    {
      "channel": 4,
      "note": 76,
      "start": 6.526,
      "duration": 0.0998,
      "velocity": 101,
      "chip": "ym2612"
    },
    {
      "channel": 0,
      "note": 64,
      "start": 6.6253,
      "duration": 0.0998,
      "velocity": 101,
      "chip": "ym2612"
    },
    {
      "channel": 1,
      "note": 52,
      "start": 6.6255,
      "duration": 0.0999,
      "velocity": 94,
      "chip": "ym2612"
    },
    {
      "channel": 4,
      "note": 81,
      "start": 6.6259,
      "duration": 0.0998,
      "velocity": 101,
      "chip": "ym2612"
    },
    {
      "channel": 0,
      "note": 59,
      "start": 6.7253,
      "duration": 0.0998,
      "velocity": 101,
      "chip": "ym2612"
    },
    {
      "channel": 1,
      "note": 52,
      "start": 6.7255,
      "duration": 0.1001,
      "velocity": 94,
      "chip": "ym2612"
    },
    {
      "channel": 4,
      "note": 76,
      "start": 6.7259,
      "duration": 0.1001,
      "velocity": 101,
      "chip": "ym2612"
    },
    {
      "channel": 0,
      "note": 52,
      "start": 6.8255,
      "duration": 0.0996,
      "velocity": 101,
      "chip": "ym2612"
    },
    {
      "channel": 1,
      "note": 64,
      "start": 6.8258,
      "duration": 0.0996,
      "velocity": 94,
      "chip": "ym2612"
    },
    {
      "channel": 4,
      "note": 69,
      "start": 6.8265,
      "duration": 0.0993,
      "velocity": 101,
      "chip": "ym2612"
    },
    {
      "channel": 0,
      "note": 59,
      "start": 6.9253,
      "duration": 0.0998,
      "velocity": 101,
      "chip": "ym2612"
    },
    {
      "channel": 1,
      "note": 52,
      "start": 6.9256,
      "duration": 0.0998,
      "velocity": 94,
      "chip": "ym2612"
    },
    {
      "channel": 4,
      "note": 76,
      "start": 6.9261,
      "duration": 0.0997,
      "velocity": 101,
      "chip": "ym2612"
    },
    {
      "channel": 0,
      "note": 64,
      "start": 7.0253,
      "duration": 0.0998,
      "velocity": 101,
      "chip": "ym2612"
    },
    {
      "channel": 1,
      "note": 62,
      "start": 7.0256,
      "duration": 0.0998,
      "velocity": 94,
      "chip": "ym2612"
    },
    {
      "channel": 4,
      "note": 81,
      "start": 7.026,
      "duration": 0.0998,
      "velocity": 101,
      "chip": "ym2612"
    },
    {
      "channel": 0,
      "note": 59,
      "start": 7.1253,
      "duration": 28.8656,
      "velocity": 101,
      "chip": "ym2612"
    },
    {
      "channel": 1,
      "note": 64,
      "start": 7.1256,
      "duration": 28.8654,
      "velocity": 94,
      "chip": "ym2612"
    },
    {
      "channel": 4,
      "note": 76,
      "start": 7.126,
      "duration": 28.8649,
      "velocity": 101,
      "chip": "ym2612"
    }
  ]
}