{
  "track_name": "09 - Room1",
  "duration_sec": 47.764,
  "sample_rate": 44100,
  "note_count": 557,
  "unique_pitches": 23,
  "pitch_range": 57,
  "avg_note_duration": 0.3692,
  "reconstruction_stats": {
    "notes_reconstructed": 557,
    "keyon_events": 557,
    "keyoff_events": 553,
    "orphan_keyons": 4,
    "unique_pitches": 23,
    "pitch_range": 57,
    "avg_duration_sec": 0.3692
  },
  "metadata": {
    "source": "Q\\QuackShot\\09 - Room1.vgz"
  },
  "notes": [
    {
      "channel": 0,
      "note": 50,
      "start": 0.1497,
      "duration": 0.0759,
      "velocity": 102,
      "chip": "ym2612"
    },
    {
      "channel": 0,
      "note": 50,
      "start": 0.2262,
      "duration": 0.0759,
      "velocity": 102,
      "chip": "ym2612"
    },
    {
      "channel": 0,
      "note": 50,
      "start": 0.3027,
      "duration": 0.0608,
      "velocity": 102,
      "chip": "ym2612"
    },
    {
      "channel": 0,
      "note": 57,
      "start": 0.3641,
      "duration": 0.7337,
      "velocity": 102,
      "chip": "ym2612"
    },
    {
      "channel": 1,
      "note": 42,
      "start": 0.3684,
      "duration": 0.1023,
      "velocity": 127,
      "chip": "ym2612"
    },
    {
      "channel": 4,
      "note": 69,
      "start": 0.3701,
      "duration": 1.8317,
      "velocity": 85,
      "chip": "ym2612"
    },
    {
      "channel": 1,
      "note": 42,
      "start": 0.4713,
      "duration": 0.0912,
      "velocity": 127,
      "chip": "ym2612"
    },
    {
      "channel": 1,
      "note": 42,
      "start": 0.5631,
      "duration": 0.0913,
      "velocity": 127,
      "chip": "ym2612"
    },
    {
      "channel": 1,
      "note": 42,
      "start": 0.6552,
      "duration": 0.0757,
      "velocity": 127,
      "chip": "ym2612"
    },
    {
      "channel": 1,
      "note": 38,
      "start": 0.7315,
      "duration": 0.5503,
      "velocity": 127,
      "chip": "ym2612"
    },
    {
      "channel": 5,
      "note": 69,
      "start": 0.7629,
      "duration": 1.8346,
      "velocity": 85,
      "chip": "ym2612"
    },
    {
      "channel": 0,
      "note": 50,
      "start": 1.0983,
      "duration": 0.5807,
      "velocity": 102,
      "chip": "ym2612"
    },
    {
      "channel": 1,
      "note": 42,
      "start": 1.2824,
      "duration": 0.1063,
      "velocity": 127,
      "chip": "ym2612"
    },
    {
      "channel": 1,
      "note": 42,
      "start": 1.3894,
      "duration": 0.0912,
      "velocity": 127,
      "chip": "ym2612"
    },
    {
      "channel": 1,
      "note": 42,
      "start": 1.4811,
      "duration": 0.0913,
      "velocity": 127,
      "chip": "ym2612"
    },
    {
      "channel": 1,
      "note": 42,
      "start": 1.5732,
      "duration": 0.0756,
      "velocity": 127,
      "chip": "ym2612"
    },
    {
      "channel": 1,
      "note": 42,
      "start": 1.6493,
      "duration": 0.5504,
      "velocity": 127,
      "chip": "ym2612"
    },
    {
      "channel": 0,
      "note": 50,
      "start": 1.6795,
      "duration": 0.5504,
      "velocity": 102,
      "chip": "ym2612"
    },
    {
      "channel": 1,
      "note": 42,
      "start": 2.2003,
      "duration": 0.1065,
      "velocity": 127,
      "chip": "ym2612"
    },
    {
      "channel": 3,
      "note": 59,
      "start": 2.2017,
      "duration": 0.3659,
      "velocity": 127,
      "chip": "ym2612"
    },
    {
      "channel": 0,
      "note": 50,
      "start": 2.2303,
      "duration": 0.7035,
      "velocity": 102,
      "chip": "ym2612"
    },
    {
      "channel": 1,
      "note": 42,
      "start": 2.3074,
      "duration": 0.0911,
      "velocity": 127,
      "chip": "ym2612"
    },
    {
      "channel": 1,
      "note": 42,
      "start": 2.3992,
      "duration": 0.0914,
      "velocity": 127,
      "chip": "ym2612"
    },
    {
      "channel": 1,
      "note": 42,
      "start": 2.4912,
      "duration": 0.0757,
      "velocity": 127,
      "chip": "ym2612"
    },
    {
      "channel": 1,
      "note": 38,
      "start": 2.5675,
      "duration": 0.3677,
      "velocity": 127,
      "chip": "ym2612"
    },
    {
      "channel": 3,
      "note": 53,
      "start": 2.5682,
      "duration": 1.101,
      "velocity": 127,
      "chip": "ym2612"
    },
    {
      "channel": 4,
      "note": 71,
      "start": 2.7671,
      "duration": 3.3955,
      "velocity": 85,
      "chip": "ym2612"
    },
    {
      "channel": 0,
      "note": 50,
      "start": 2.9342,
      "duration": 0.367,
      "velocity": 102,
      "chip": "ym2612"
    },
    {
      "channel": 1,
      "note": 42,
      "start": 2.9357,
      "duration": 0.1056,
      "velocity": 127,
      "chip": "ym2612"
    },
    {
      "channel": 1,
      "note": 42,
      "start": 3.0418,
      "duration": 0.0912,
      "velocity": 127,
      "chip": "ym2612"
    },
    {
      "channel": 1,
      "note": 42,
      "start": 3.1335,
      "duration": 0.0915,
      "velocity": 127,
      "chip": "ym2612"
    },
    {
      "channel": 5,
      "note": 71,
      "start": 3.1653,
      "duration": 3.395,
      "velocity": 85,
      "chip": "ym2612"
    },
    {
      "channel": 1,
      "note": 42,
      "start": 3.2256,
      "duration": 0.0772,
      "velocity": 127,
      "chip": "ym2612"
    },
    {
      "channel": 0,
      "note": 57,
      "start": 3.3018,
      "duration": 0.7336,
      "velocity": 102,
      "chip": "ym2612"
    },
    {
      "channel": 1,
      "note": 42,
      "start": 3.3034,
      "duration": 0.1532,
      "velocity": 99,
      "chip": "ym2612"
    },
    {
      "channel": 1,
      "note": 89,
      "start": 3.4855,
      "duration": 0.1823,
      "velocity": 99,
      "chip": "ym2612"
    },
    {
      "channel": 1,
      "note": 91,
      "start": 3.6684,
      "duration": 0.183,
      "velocity": 99,
      "chip": "ym2612"
    },
    {
      "channel": 3,
      "note": 64,
      "start": 3.6698,
      "duration": 0.183,
      "velocity": 127,
      "chip": "ym2612"
    },
    {
      "channel": 1,
      "note": 93,
      "start": 3.852,
      "duration": 0.1848,
      "velocity": 99,
      "chip": "ym2612"
    },
    {
      "channel": 3,
      "note": 65,
      "start": 3.8534,
      "duration": 0.1841,
      "velocity": 127,
      "chip": "ym2612"
    },
    {
      "channel": 0,
      "note": 50,
      "start": 4.036,
      "duration": 0.5801,
      "velocity": 102,
      "chip": "ym2612"
    },
    {
      "channel": 1,
      "note": 88,
      "start": 4.0374,
      "duration": 0.1819,
      "velocity": 99,
      "chip": "ym2612"
    },
    {
      "channel": 3,
      "note": 67,
      "start": 4.0382,
      "duration": 0.1819,
      "velocity": 127,
      "chip": "ym2612"
    },
    {
      "channel": 1,
      "note": 89,
      "start": 4.2199,
      "duration": 0.183,
      "velocity": 99,
      "chip": "ym2612"
    },
    {
      "channel": 3,
      "note": 69,
      "start": 4.2207,
      "duration": 0.1666,
      "velocity": 127,
      "chip": "ym2612"
    },
    {
      "channel": 3,
      "note": 64,
      "start": 4.3878,
      "duration": 0.1837,
      "velocity": 127,
      "chip": "ym2612"
    },
    {
      "channel": 1,
      "note": 91,
      "start": 4.4035,
      "duration": 0.1823,
      "velocity": 99,
      "chip": "ym2612"
    },
    {
      "channel": 3,
      "note": 65,
      "start": 4.5722,
      "duration": 0.183,
      "velocity": 127,
      "chip": "ym2612"
    },
    {
      "channel": 1,
      "note": 93,
      "start": 4.5864,
      "duration": 0.1838,
      "velocity": 99,
      "chip": "ym2612"
    },
    {
      "channel": 0,
      "note": 50,
      "start": 4.6165,
      "duration": 0.5511,
      "velocity": 102,
      "chip": "ym2612"
    },
    {
      "channel": 3,
      "note": 67,
      "start": 4.7557,
      "duration": 0.1981,
      "velocity": 127,
      "chip": "ym2612"
    },
    {
      "channel": 1,
      "note": 88,
      "start": 4.7709,
      "duration": 0.1822,
      "velocity": 99,
      "chip": "ym2612"
    },
    {
      "channel": 1,
      "note": 89,
      "start": 4.9537,
      "duration": 0.1836,
      "velocity": 99,
      "chip": "ym2612"
    },
    {
      "channel": 3,
      "note": 62,
      "start": 4.9545,
      "duration": 0.1843,
      "velocity": 127,
      "chip": "ym2612"
    },
    {
      "channel": 1,
      "note": 91,
      "start": 5.1379,
      "duration": 0.1823,
      "velocity": 99,
      "chip": "ym2612"
    },
    {
      "channel": 3,
      "note": 50,
      "start": 5.1393,
      "duration": 0.1972,
      "velocity": 127,
      "chip": "ym2612"
    },
    {
      "channel": 0,
      "note": 50,
      "start": 5.168,
      "duration": 0.3515,
      "velocity": 102,
      "chip": "ym2612"
    },
    {
      "channel": 1,
      "note": 93,
      "start": 5.3208,
      "duration": 0.1837,
      "velocity": 99,
      "chip": "ym2612"
    },
    {
      "channel": 3,
      "note": 57,
      "start": 5.3371,
      "duration": 0.1833,
      "velocity": 127,
      "chip": "ym2612"
    },
    {
      "channel": 1,
      "note": 95,
      "start": 5.5051,
      "duration": 0.1532,
      "velocity": 99,
      "chip": "ym2612"
    },
    {
      "channel": 0,
      "note": 50,
      "start": 5.5199,
      "duration": 0.1373,
      "velocity": 102,
      "chip": "ym2612"
    },
    {
      "channel": 3,
      "note": 64,
      "start": 5.521,
      "duration": 0.7233,
      "velocity": 127,
      "chip": "ym2612"
    },
    {
      "channel": 0,
      "note": 50,
      "start": 5.6576,
      "duration": 0.1061,
      "velocity": 102,
      "chip": "ym2612"
    },
    {
      "channel": 1,
      "note": 89,
      "start": 5.659,
      "duration": 0.1202,
      "velocity": 99,
      "chip": "ym2612"
    },
    {
      "channel": 0,
      "note": 50,
      "start": 5.7641,
      "duration": 0.2603,
      "velocity": 102,
      "chip": "ym2612"
    },
    {
      "channel": 1,
      "note": 88,
      "start": 5.7798,
      "duration": 0.4636,
      "velocity": 127,
      "chip": "ym2612"
    },
    {
      "channel": 0,
      "note": 50,
      "start": 6.0249,
      "duration": 0.0761,
      "velocity": 102,
      "chip": "ym2612"
    },
    {
      "channel": 0,
      "note": 50,
      "start": 6.1015,
      "duration": 0.0759,
      "velocity": 102,
      "chip": "ym2612"
    },
    {
      "channel": 4,
      "note": 77,
      "start": 6.1633,
      "duration": 2.539,
      "velocity": 85,
      "chip": "ym2612"
    },
    {
      "channel": 0,
      "note": 50,
      "start": 6.178,
      "duration": 0.061,
      "velocity": 102,
      "chip": "ym2612"
    },
    {
      "channel": 0,
      "note": 57,
      "start": 6.2396,
      "duration": 0.7334,
      "velocity": 102,
      "chip": "ym2612"
    },
    {
      "channel": 1,
      "note": 42,
      "start": 6.244,
      "duration": 0.1024,
      "velocity": 127,
      "chip": "ym2612"
    },
    {
      "channel": 1,
      "note": 42,
      "start": 6.3468,
      "duration": 0.0911,
      "velocity": 127,
      "chip": "ym2612"
    },
    {
      "channel": 1,
      "note": 42,
      "start": 6.4384,
      "duration": 0.0915,
      "velocity": 127,
      "chip": "ym2612"
    },
    {
      "channel": 1,
      "note": 42,
      "start": 6.5305,
      "duration": 0.0756,
      "velocity": 127,
      "chip": "ym2612"
    },
    {
      "channel": 5,
      "note": 77,
      "start": 6.5608,
      "duration": 2.5409,
      "velocity": 85,
      "chip": "ym2612"
    },
    {
      "channel": 1,
      "note": 38,
      "start": 6.6067,
      "duration": 0.5503,
      "velocity": 127,
      "chip": "ym2612"
    },
    {
      "channel": 0,
      "note": 50,
      "start": 6.9736,
      "duration": 0.5808,
      "velocity": 102,
      "chip": "ym2612"
    },
    {
      "channel": 1,
      "note": 42,
      "start": 7.1576,
      "duration": 0.1067,
      "velocity": 127,
      "chip": "ym2612"
    },
    {
      "channel": 1,
      "note": 42,
      "start": 7.2647,
      "duration": 0.0911,
      "velocity": 127,
      "chip": "ym2612"
    },
    {
      "channel": 1,
      "note": 42,
      "start": 7.3564,
      "duration": 0.0915,
      "velocity": 127,
      "chip": "ym2612"
    },
    {
      "channel": 1,
      "note": 42,
      "start": 7.4485,
      "duration": 0.0757,
      "velocity": 127,
      "chip": "ym2612"
    },
    {
      "channel": 1,
      "note": 42,
      "start": 7.5246,
      "duration": 0.5503,
      "velocity": 127,
      "chip": "ym2612"
    },
    {
      "channel": 0,
      "note": 50,
      "start": 7.5549,
      "duration": 0.5504,
      "velocity": 102,
      "chip": "ym2612"
    },
    {
      "channel": 1,
      "note": 42,
      "start": 8.0756,
      "duration": 0.1068,
      "velocity": 127,
      "chip": "ym2612"
    },
    {
      "channel": 3,
      "note": 59,
      "start": 8.077,
      "duration": 0.366,
      "velocity": 127,
      "chip": "ym2612"
    },
    {
      "channel": 0,
      "note": 50,
      "start": 8.1057,
      "duration": 0.7034,
      "velocity": 102,
      "chip": "ym2612"
    },
    {
      "channel": 1,
      "note": 42,
      "start": 8.1827,
      "duration": 0.0912,
      "velocity": 127,
      "chip": "ym2612"
    },
    {
      "channel": 1,
      "note": 42,
      "start": 8.2745,
      "duration": 0.0914,
      "velocity": 127,
      "chip": "ym2612"
    },
    {
      "channel": 1,
      "note": 42,
      "start": 8.3665,
      "duration": 0.0757,
      "velocity": 127,
      "chip": "ym2612"
    },
    {
      "channel": 1,
      "note": 38,
      "start": 8.4428,
      "duration": 0.3676,
      "velocity": 127,
      "chip": "ym2612"
    },
    {
      "channel": 3,
      "note": 53,
      "start": 8.4435,
      "duration": 1.1003,
      "velocity": 127,
      "chip": "ym2612"
    },
    {
      "channel": 0,
      "note": 50,
      "start": 8.8095,
      "duration": 0.3671,
      "velocity": 102,
      "chip": "ym2612"
    },
    {
      "channel": 1,
      "note": 42,
      "start": 8.811,
      "duration": 0.1057,
      "velocity": 127,
      "chip": "ym2612"
    },
    {
      "channel": 1,
      "note": 42,
      "start": 8.9171,
      "duration": 0.0915,
      "velocity": 127,
      "chip": "ym2612"
    },
    {
      "channel": 4,
      "note": 71,
      "start": 8.9333,
      "duration": 2.6008,
      "velocity": 85,
      "chip": "ym2612"
    },
    {
      "channel": 1,
      "note": 42,
      "start": 9.0092,
      "duration": 0.0912,
      "velocity": 127,
      "chip": "ym2612"
    },
    {
      "channel": 1,
      "note": 42,
      "start": 9.101,
      "duration": 0.0772,
      "velocity": 127,
      "chip": "ym2612"
    },
    {
      "channel": 0,
      "note": 57,
      "start": 9.1772,
      "duration": 0.7335,
      "velocity": 102,
      "chip": "ym2612"
    },
    {
      "channel": 1,
      "note": 42,
      "start": 9.1788,
      "duration": 0.0583,
      "velocity": 127,
      "chip": "ym2612"
    },
    {
      "channel": 5,
      "note": 71,
      "start": 9.3309,
      "duration": 2.6004,
      "velocity": 85,
      "chip": "ym2612"
    },
    {
      "channel": 3,
      "note": 64,
      "start": 9.5444,
      "duration": 0.183,
      "velocity": 127,
      "chip": "ym2612"
    },
    {
      "channel": 3,
      "note": 65,
      "start": 9.728,
      "duration": 0.1834,
      "velocity": 127,
      "chip": "ym2612"
    },
    {
      "channel": 0,
      "note": 50,
      "start": 9.9112,
      "duration": 0.5802,
      "velocity": 102,
      "chip": "ym2612"
    },
    {
      "channel": 3,
      "note": 67,
      "start": 9.9121,
      "duration": 0.182,
      "velocity": 127,
      "chip": "ym2612"
    },
    {
      "channel": 3,
      "note": 69,
      "start": 10.0946,
      "duration": 0.1677,
      "velocity": 127,
      "chip": "ym2612"
    },
    {
      "channel": 3,
      "note": 64,
      "start": 10.2629,
      "duration": 0.1837,
      "velocity": 127,
      "chip": "ym2612"
    },
    {
      "channel": 3,
      "note": 65,
      "start": 10.4472,
      "duration": 0.1829,
      "velocity": 127,
      "chip": "ym2612"
    },
    {
      "channel": 0,
      "note": 50,
      "start": 10.4919,
      "duration": 0.5511,
      "velocity": 102,
      "chip": "ym2612"
    },
    {
      "channel": 3,
      "note": 67,
      "start": 10.6307,
      "duration": 0.1976,
      "velocity": 127,
      "chip": "ym2612"
    },
    {
      "channel": 3,
      "note": 62,
      "start": 10.829,
      "duration": 0.1838,
      "velocity": 127,
      "chip": "ym2612"
    },
    {
      "channel": 3,
      "note": 50,
      "start": 11.0133,
      "duration": 0.1982,
      "velocity": 127,
      "chip": "ym2612"
    },
    {
      "channel": 0,
      "note": 50,
      "start": 11.0434,
      "duration": 0.3514,
      "velocity": 102,
      "chip": "ym2612"
    },
    {
      "channel": 3,
      "note": 57,
      "start": 11.2122,
      "duration": 0.1832,
      "velocity": 127,
      "chip": "ym2612"
    },
    {
      "channel": 0,
      "note": 50,
      "start": 11.3952,
      "duration": 0.1373,
      "velocity": 102,
      "chip": "ym2612"
    },
    {
      "channel": 3,
      "note": 64,
      "start": 11.396,
      "duration": 0.7237,
      "velocity": 127,
      "chip": "ym2612"
    },
    {
      "channel": 0,
      "note": 50,
      "start": 11.5329,
      "duration": 0.106,
      "velocity": 102,
      "chip": "ym2612"
    },
    {
      "channel": 4,
      "note": 69,
      "start": 11.5347,
      "duration": 0.534,
      "velocity": 85,
      "chip": "ym2612"
    },
    {
      "channel": 0,
      "note": 50,
      "start": 11.6394,
      "duration": 0.2604,
      "velocity": 102,
      "chip": "ym2612"
    },
    {
      "channel": 0,
      "note": 50,
      "start": 11.9001,
      "duration": 0.076,
      "velocity": 102,
      "chip": "ym2612"
    },
    {
      "channel": 5,
      "note": 69,
      "start": 11.9319,
      "duration": 0.5349,
      "velocity": 85,
      "chip": "ym2612"
    },
    {
      "channel": 0,
      "note": 50,
      "start": 11.9768,
      "duration": 0.0762,
      "velocity": 102,
      "chip": "ym2612"
    },
    {
      "channel": 0,
      "note": 50,
      "start": 12.0536,
      "duration": 0.0607,
      "velocity": 102,
      "chip": "ym2612"
    },
    {
      "channel": 4,
      "note": 67,
      "start": 12.0693,
      "duration": 0.642,
      "velocity": 85,
      "chip": "ym2612"
    },
    {
      "channel": 0,
      "note": 57,
      "start": 12.1149,
      "duration": 0.7334,
      "velocity": 102,
      "chip": "ym2612"
    },
    {
      "channel": 1,
      "note": 42,
      "start": 12.1193,
      "duration": 0.1021,
      "velocity": 127,
      "chip": "ym2612"
    },
    {
      "channel": 1,
      "note": 42,
      "start": 12.2218,
      "duration": 0.0913,
      "velocity": 127,
      "chip": "ym2612"
    },
    {
      "channel": 1,
      "note": 42,
      "start": 12.3137,
      "duration": 0.0913,
      "velocity": 127,
      "chip": "ym2612"
    },
    {
      "channel": 1,
      "note": 42,
      "start": 12.4056,
      "duration": 0.0759,
      "velocity": 127,
      "chip": "ym2612"
    },
    {
      "channel": 5,
      "note": 67,
      "start": 12.4674,
      "duration": 0.642,
      "velocity": 85,
      "chip": "ym2612"
    },
    {
      "channel": 1,
      "note": 38,
      "start": 12.482,
      "duration": 0.5504,
      "velocity": 127,
      "chip": "ym2612"
    },
    {
      "channel": 4,
      "note": 64,
      "start": 12.712,
      "duration": 1.6514,
      "velocity": 85,
      "chip": "ym2612"
    },
    {
      "channel": 0,
      "note": 50,
      "start": 12.8489,
      "duration": 0.5808,
      "velocity": 102,
      "chip": "ym2612"
    },
    {
      "channel": 1,
      "note": 42,
      "start": 13.033,
      "duration": 0.1064,
      "velocity": 127,
      "chip": "ym2612"
    },
    {
      "channel": 5,
      "note": 64,
      "start": 13.11,
      "duration": 1.6525,
      "velocity": 85,
      "chip": "ym2612"
    },
    {
      "channel": 1,
      "note": 42,
      "start": 13.1398,
      "duration": 0.0914,
      "velocity": 127,
      "chip": "ym2612"
    },
    {
      "channel": 1,
      "note": 42,
      "start": 13.2317,
      "duration": 0.0912,
      "velocity": 127,
      "chip": "ym2612"
    },
    {
      "channel": 1,
      "note": 42,
      "start": 13.3236,
      "duration": 0.0759,
      "velocity": 127,
      "chip": "ym2612"
    },
    {
      "channel": 1,
      "note": 42,
      "start": 13.3999,
      "duration": 0.5504,
      "velocity": 127,
      "chip": "ym2612"
    },
    {
      "channel": 0,
      "note": 50,
      "start": 13.4301,
      "duration": 0.5504,
      "velocity": 102,
      "chip": "ym2612"
    },
    {
      "channel": 1,
      "note": 42,
      "start": 13.9509,
      "duration": 0.1064,
      "velocity": 127,
      "chip": "ym2612"
    },
    {
      "channel": 3,
      "note": 59,
      "start": 13.9523,
      "duration": 0.3659,
      "velocity": 127,
      "chip": "ym2612"
    },
    {
      "channel": 0,
      "note": 50,
      "start": 13.9809,
      "duration": 0.7034,
      "velocity": 102,
      "chip": "ym2612"
    },
    {
      "channel": 1,
      "note": 42,
      "start": 14.0578,
      "duration": 0.0914,
      "velocity": 127,
      "chip": "ym2612"
    },
    {
      "channel": 1,
      "note": 42,
      "start": 14.1497,
      "duration": 0.0914,
      "velocity": 127,
      "chip": "ym2612"
    },
    {
      "channel": 1,
      "note": 42,
      "start": 14.2417,
      "duration": 0.0757,
      "velocity": 127,
      "chip": "ym2612"
    },
    {
      "channel": 1,
      "note": 38,
      "start": 14.318,
      "duration": 0.3677,
      "velocity": 127,
      "chip": "ym2612"
    },
    {
      "channel": 3,
      "note": 53,
      "start": 14.3188,
      "duration": 1.1011,
      "velocity": 127,
      "chip": "ym2612"
    },
    {
      "channel": 4,
      "note": 62,
      "start": 14.5176,
      "duration": 0.3973,
      "velocity": 85,
      "chip": "ym2612"
    },
    {
      "channel": 0,
      "note": 50,
      "start": 14.6848,
      "duration": 0.3671,
      "velocity": 102,
      "chip": "ym2612"
    },
    {
      "channel": 1,
      "note": 42,
      "start": 14.6863,
      "duration": 0.1055,
      "velocity": 127,
      "chip": "ym2612"
    },
    {
      "channel": 1,
      "note": 42,
      "start": 14.7922,
      "duration": 0.0913,
      "velocity": 127,
      "chip": "ym2612"
    },
    {
      "channel": 1,
      "note": 42,
      "start": 14.8841,
      "duration": 0.0912,
      "velocity": 127,
      "chip": "ym2612"
    },
    {
      "channel": 4,
      "note": 69,
      "start": 14.9155,
      "duration": 0.9934,
      "velocity": 85,
      "chip": "ym2612"
    },
    {
      "channel": 5,
      "note": 62,
      "start": 14.9169,
      "duration": 0.396,
      "velocity": 85,
      "chip": "ym2612"
    },
    {
      "channel": 1,
      "note": 42,
      "start": 14.9759,
      "duration": 0.0775,
      "velocity": 127,
      "chip": "ym2612"
    },
    {
      "channel": 0,
      "note": 57,
      "start": 15.0524,
      "duration": 0.7335,
      "velocity": 102,
      "chip": "ym2612"
    },
    {
      "channel": 1,
      "note": 42,
      "start": 15.054,
      "duration": 0.1534,
      "velocity": 99,
      "chip": "ym2612"
    },
    {
      "channel": 1,
      "note": 89,
      "start": 15.2361,
      "duration": 0.1823,
      "velocity": 99,
      "chip": "ym2612"
    },
    {
      "channel": 5,
      "note": 69,
      "start": 15.3136,
      "duration": 0.9932,
      "velocity": 85,
      "chip": "ym2612"
    },
    {
      "channel": 1,
      "note": 91,
      "start": 15.419,
      "duration": 0.183,
      "velocity": 99,
      "chip": "ym2612"
    },
    {
      "channel": 3,
      "note": 64,
      "start": 15.4205,
      "duration": 0.183,
      "velocity": 127,
      "chip": "ym2612"
    },
    {
      "channel": 1,
      "note": 93,
      "start": 15.6027,
      "duration": 0.1847,
      "velocity": 99,
      "chip": "ym2612"
    },
    {
      "channel": 3,
      "note": 65,
      "start": 15.6041,
      "duration": 0.1841,
      "velocity": 127,
      "chip": "ym2612"
    },
    {
      "channel": 0,
      "note": 50,
      "start": 15.7866,
      "duration": 0.5801,
      "velocity": 102,
      "chip": "ym2612"
    },
    {
      "channel": 1,
      "note": 88,
      "start": 15.788,
      "duration": 0.182,
      "velocity": 99,
      "chip": "ym2612"
    },
    {
      "channel": 3,
      "note": 67,
      "start": 15.7887,
      "duration": 0.182,
      "velocity": 127,
      "chip": "ym2612"
    },
    {
      "channel": 4,
      "note": 62,
      "start": 15.9095,
      "duration": 0.4894,
      "velocity": 85,
      "chip": "ym2612"
    },
    {
      "channel": 1,
      "note": 89,
      "start": 15.9705,
      "duration": 0.183,
      "velocity": 99,
      "chip": "ym2612"
    },
    {
      "channel": 3,
      "note": 69,
      "start": 15.9713,
      "duration": 0.1666,
      "velocity": 127,
      "chip": "ym2612"
    },
    {
      "channel": 3,
      "note": 64,
      "start": 16.1385,
      "duration": 0.1837,
      "velocity": 127,
      "chip": "ym2612"
    },
    {
      "channel": 1,
      "note": 91,
      "start": 16.1541,
      "duration": 0.1823,
      "velocity": 99,
      "chip": "ym2612"
    },
    {
      "channel": 5,
      "note": 62,
      "start": 16.3074,
      "duration": 0.4897,
      "velocity": 85,
      "chip": "ym2612"
    },
    {
      "channel": 3,
      "note": 65,
      "start": 16.3227,
      "duration": 0.1829,
      "velocity": 127,
      "chip": "ym2612"
    },
    {
      "channel": 1,
      "note": 93,
      "start": 16.337,
      "duration": 0.1837,
      "velocity": 99,
      "chip": "ym2612"
    },
    {
      "channel": 0,
      "note": 50,
      "start": 16.3671,
      "duration": 0.551,
      "velocity": 102,
      "chip": "ym2612"
    },
    {
      "channel": 4,
      "note": 71,
      "start": 16.3995,
      "duration": 2.1413,
      "velocity": 85,
      "chip": "ym2612"
    },
    {
      "channel": 3,
      "note": 67,
      "start": 16.5063,
      "duration": 0.1981,
      "velocity": 127,
      "chip": "ym2612"
    },
    {
      "channel": 1,
      "note": 88,
      "start": 16.5214,
      "duration": 0.1823,
      "velocity": 99,
      "chip": "ym2612"
    },
    {
      "channel": 1,
      "note": 89,
      "start": 16.7043,
      "duration": 0.1837,
      "velocity": 99,
      "chip": "ym2612"
    },
    {
      "channel": 3,
      "note": 62,
      "start": 16.705,
      "duration": 0.1843,
      "velocity": 127,
      "chip": "ym2612"
    },
    {
      "channel": 5,
      "note": 71,
      "start": 16.7977,
      "duration": 2.1412,
      "velocity": 85,
      "chip": "ym2612"
    },
    {
      "channel": 1,
      "note": 91,
      "start": 16.8885,
      "duration": 0.1823,
      "velocity": 99,
      "chip": "ym2612"
    },
    {
      "channel": 3,
      "note": 50,
      "start": 16.89,
      "duration": 0.1972,
      "velocity": 127,
      "chip": "ym2612"
    },
    {
      "channel": 0,
      "note": 50,
      "start": 16.9186,
      "duration": 0.3515,
      "velocity": 102,
      "chip": "ym2612"
    },
    {
      "channel": 1,
      "note": 93,
      "start": 17.0715,
      "duration": 0.1836,
      "velocity": 99,
      "chip": "ym2612"
    },
    {
      "channel": 3,
      "note": 57,
      "start": 17.0877,
      "duration": 0.1832,
      "velocity": 127,
      "chip": "ym2612"
    },
    {
      "channel": 1,
      "note": 95,
      "start": 17.2557,
      "duration": 0.1533,
      "velocity": 99,
      "chip": "ym2612"
    },
    {
      "channel": 0,
      "note": 50,
      "start": 17.2705,
      "duration": 0.1373,
      "velocity": 102,
      "chip": "ym2612"
    },
    {
      "channel": 3,
      "note": 64,
      "start": 17.2715,
      "duration": 0.7237,
      "velocity": 127,
      "chip": "ym2612"
    },
    {
      "channel": 0,
      "note": 50,
      "start": 17.4082,
      "duration": 0.106,
      "velocity": 102,
      "chip": "ym2612"
    },
    {
      "channel": 1,
      "note": 89,
      "start": 17.4099,
      "duration": 0.12,
      "velocity": 99,
      "chip": "ym2612"
    },
    {
      "channel": 0,
      "note": 50,
      "start": 17.5146,
      "duration": 0.2603,
      "velocity": 102,
      "chip": "ym2612"
    },
    {
      "channel": 1,
      "note": 88,
      "start": 17.5305,
      "duration": 0.4639,
      "velocity": 127,
      "chip": "ym2612"
    },
    {
      "channel": 0,
      "note": 50,
      "start": 17.7754,
      "duration": 0.0761,
      "velocity": 102,
      "chip": "ym2612"
    },
    {
      "channel": 0,
      "note": 50,
      "start": 17.852,
      "duration": 0.0763,
      "velocity": 102,
      "chip": "ym2612"
    },
    {
      "channel": 0,
      "note": 50,
      "start": 17.9289,
      "duration": 0.0609,
      "velocity": 102,
      "chip": "ym2612"
    },
    {
      "channel": 0,
      "note": 57,
      "start": 17.9904,
      "duration": 0.7332,
      "velocity": 102,
      "chip": "ym2612"
    },
    {
      "channel": 1,
      "note": 42,
      "start": 17.995,
      "duration": 0.1016,
      "velocity": 127,
      "chip": "ym2612"
    },
    {
      "channel": 1,
      "note": 42,
      "start": 18.0971,
      "duration": 0.0914,
      "velocity": 127,
      "chip": "ym2612"
    },
    {
      "channel": 1,
      "note": 42,
      "start": 18.189,
      "duration": 0.0912,
      "velocity": 127,
      "chip": "ym2612"
    },
    {
      "channel": 1,
      "note": 42,
      "start": 18.2808,
      "duration": 0.076,
      "velocity": 127,
      "chip": "ym2612"
    },
    {
      "channel": 1,
      "note": 38,
      "start": 18.3574,
      "duration": 0.5502,
      "velocity": 127,
      "chip": "ym2612"
    },
    {
      "channel": 4,
      "note": 69,
      "start": 18.5414,
      "duration": 1.8349,
      "velocity": 85,
      "chip": "ym2612"
    },
    {
      "channel": 0,
      "note": 50,
      "start": 18.7242,
      "duration": 0.5808,
      "velocity": 102,
      "chip": "ym2612"
    },
    {
      "channel": 1,
      "note": 42,
      "start": 18.9082,
      "duration": 0.1065,
      "velocity": 127,
      "chip": "ym2612"
    },
    {
      "channel": 5,
      "note": 69,
      "start": 18.9395,
      "duration": 1.8347,
      "velocity": 85,
      "chip": "ym2612"
    },
    {
      "channel": 1,
      "note": 42,
      "start": 19.0151,
      "duration": 0.0914,
      "velocity": 127,
      "chip": "ym2612"
    },
    {
      "channel": 1,
      "note": 42,
      "start": 19.1071,
      "duration": 0.0912,
      "velocity": 127,
      "chip": "ym2612"
    },
    {
      "channel": 1,
      "note": 42,
      "start": 19.1989,
      "duration": 0.0759,
      "velocity": 127,
      "chip": "ym2612"
    },
    {
      "channel": 1,
      "note": 42,
      "start": 19.2752,
      "duration": 0.5504,
      "velocity": 127,
      "chip": "ym2612"
    },
    {
      "channel": 0,
      "note": 50,
      "start": 19.3054,
      "duration": 0.5506,
      "velocity": 102,
      "chip": "ym2612"
    },
    {
      "channel": 1,
      "note": 42,
      "start": 19.8261,
      "duration": 0.1065,
      "velocity": 127,
      "chip": "ym2612"
    },
    {
      "channel": 3,
      "note": 59,
      "start": 19.8276,
      "duration": 0.3659,
      "velocity": 127,
      "chip": "ym2612"
    },
    {
      "channel": 0,
      "note": 50,
      "start": 19.8564,
      "duration": 0.7033,
      "velocity": 102,
      "chip": "ym2612"
    },
    {
      "channel": 1,
      "note": 42,
      "start": 19.9331,
      "duration": 0.0914,
      "velocity": 127,
      "chip": "ym2612"
    },
    {
      "channel": 1,
      "note": 42,
      "start": 20.025,
      "duration": 0.0912,
      "velocity": 127,
      "chip": "ym2612"
    },
    {
      "channel": 1,
      "note": 42,
      "start": 20.1168,
      "duration": 0.0759,
      "velocity": 127,
      "chip": "ym2612"
    },
    {
      "channel": 1,
      "note": 38,
      "start": 20.1933,
      "duration": 0.3678,
      "velocity": 127,
      "chip": "ym2612"
    },
    {
      "channel": 3,
      "note": 53,
      "start": 20.194,
      "duration": 1.1005,
      "velocity": 127,
      "chip": "ym2612"
    },
    {
      "channel": 0,
      "note": 50,
      "start": 20.5601,
      "duration": 0.367,
      "velocity": 102,
      "chip": "ym2612"
    },
    {
      "channel": 1,
      "note": 42,
      "start": 20.5616,
      "duration": 0.1054,
      "velocity": 127,
      "chip": "ym2612"
    },
    {
      "channel": 1,
      "note": 42,
      "start": 20.6675,
      "duration": 0.0913,
      "velocity": 127,
      "chip": "ym2612"
    },
    {
      "channel": 1,
      "note": 42,
      "start": 20.7594,
      "duration": 0.0912,
      "velocity": 127,
      "chip": "ym2612"
    },
    {
      "channel": 1,
      "note": 42,
      "start": 20.8512,
      "duration": 0.0775,
      "velocity": 127,
      "chip": "ym2612"
    },
    {
      "channel": 0,
      "note": 57,
      "start": 20.9278,
      "duration": 0.7335,
      "velocity": 102,
      "chip": "ym2612"
    },
    {
      "channel": 1,
      "note": 42,
      "start": 20.9293,
      "duration": 0.0587,
      "velocity": 127,
      "chip": "ym2612"
    },
    {
      "channel": 4,
      "note": 72,
      "start": 20.9316,
      "duration": 0.5775,
      "velocity": 85,
      "chip": "ym2612"
    },
    {
      "channel": 3,
      "note": 64,
      "start": 21.2951,
      "duration": 0.183,
      "velocity": 127,
      "chip": "ym2612"
    },
    {
      "channel": 5,
      "note": 72,
      "start": 21.3263,
      "duration": 0.5807,
      "velocity": 85,
      "chip": "ym2612"
    },
    {
      "channel": 3,
      "note": 65,
      "start": 21.4787,
      "duration": 0.1834,
      "velocity": 127,
      "chip": "ym2612"
    },
    {
      "channel": 4,
      "note": 67,
      "start": 21.5096,
      "duration": 0.1677,
      "velocity": 85,
      "chip": "ym2612"
    },
    {
      "channel": 0,
      "note": 50,
      "start": 21.6619,
      "duration": 0.5801,
      "velocity": 102,
      "chip": "ym2612"
    },
    {
      "channel": 3,
      "note": 67,
      "start": 21.6627,
      "duration": 0.1819,
      "velocity": 127,
      "chip": "ym2612"
    },
    {
      "channel": 4,
      "note": 69,
      "start": 21.6779,
      "duration": 0.8867,
      "velocity": 85,
      "chip": "ym2612"
    },
    {
      "channel": 3,
      "note": 69,
      "start": 21.8452,
      "duration": 0.1677,
      "velocity": 127,
      "chip": "ym2612"
    },
    {
      "channel": 5,
      "note": 67,
      "start": 21.9077,
      "duration": 0.1678,
      "velocity": 85,
      "chip": "ym2612"
    },
    {
      "channel": 3,
      "note": 64,
      "start": 22.0135,
      "duration": 0.1837,
      "velocity": 127,
      "chip": "ym2612"
    },
    {
      "channel": 5,
      "note": 69,
      "start": 22.0761,
      "duration": 0.889,
      "velocity": 85,
      "chip": "ym2612"
    },
    {
      "channel": 3,
      "note": 65,
      "start": 22.1977,
      "duration": 0.1831,
      "velocity": 127,
      "chip": "ym2612"
    },
    {
      "channel": 0,
      "note": 50,
      "start": 22.2424,
      "duration": 0.5511,
      "velocity": 102,
      "chip": "ym2612"
    },
    {
      "channel": 3,
      "note": 67,
      "start": 22.3814,
      "duration": 0.1976,
      "velocity": 127,
      "chip": "ym2612"
    },
    {
      "channel": 4,
      "note": 67,
      "start": 22.5653,
      "duration": 0.3983,
      "velocity": 85,
      "chip": "ym2612"
    },
    {
      "channel": 3,
      "note": 62,
      "start": 22.5796,
      "duration": 0.1837,
      "velocity": 127,
      "chip": "ym2612"
    },
    {
      "channel": 3,
      "note": 50,
      "start": 22.7639,
      "duration": 0.1982,
      "velocity": 127,
      "chip": "ym2612"
    },
    {
      "channel": 0,
      "note": 50,
      "start": 22.7939,
      "duration": 0.3515,
      "velocity": 102,
      "chip": "ym2612"
    },
    {
      "channel": 3,
      "note": 57,
      "start": 22.9628,
      "duration": 0.1833,
      "velocity": 127,
      "chip": "ym2612"
    },
    {
      "channel": 4,
      "note": 73,
      "start": 22.9642,
      "duration": 0.3655,
      "velocity": 85,
      "chip": "ym2612"
    },
    {
      "channel": 5,
      "note": 67,
      "start": 22.9656,
      "duration": 0.395,
      "velocity": 85,
      "chip": "ym2612"
    },
    {
      "channel": 0,
      "note": 50,
      "start": 23.1459,
      "duration": 0.1373,
      "velocity": 102,
      "chip": "ym2612"
    },
    {
      "channel": 3,
      "note": 64,
      "start": 23.1467,
      "duration": 0.7237,
      "velocity": 127,
      "chip": "ym2612"
    },
    {
      "channel": 0,
      "note": 50,
      "start": 23.2836,
      "duration": 0.106,
      "velocity": 102,
      "chip": "ym2612"
    },
    {
      "channel": 4,
      "note": 67,
      "start": 23.3304,
      "duration": 0.5654,
      "velocity": 85,
      "chip": "ym2612"
    },
    {
      "channel": 5,
      "note": 73,
      "start": 23.3612,
      "duration": 0.3677,
      "velocity": 85,
      "chip": "ym2612"
    },
    {
      "channel": 0,
      "note": 50,
      "start": 23.39,
      "duration": 0.2603,
      "velocity": 102,
      "chip": "ym2612"
    },
    {
      "channel": 0,
      "note": 50,
      "start": 23.6507,
      "duration": 0.0761,
      "velocity": 102,
      "chip": "ym2612"
    },
    {
      "channel": 0,
      "note": 50,
      "start": 23.7274,
      "duration": 0.0759,
      "velocity": 102,
      "chip": "ym2612"
    },
    {
      "channel": 5,
      "note": 67,
      "start": 23.7295,
      "duration": 0.5645,
      "velocity": 85,
      "chip": "ym2612"
    },
    {
      "channel": 0,
      "note": 50,
      "start": 23.8039,
      "duration": 0.061,
      "velocity": 102,
      "chip": "ym2612"
    },
    {
      "channel": 0,
      "note": 57,
      "start": 23.8655,
      "duration": 0.7334,
      "velocity": 102,
      "chip": "ym2612"
    },
    {
      "channel": 1,
      "note": 42,
      "start": 23.8701,
      "duration": 0.1019,
      "velocity": 127,
      "chip": "ym2612"
    },
    {
      "channel": 4,
      "note": 76,
      "start": 23.8964,
      "duration": 1.3298,
      "velocity": 85,
      "chip": "ym2612"
    },
    {
      "channel": 1,
      "note": 42,
      "start": 23.9724,
      "duration": 0.0913,
      "velocity": 127,
      "chip": "ym2612"
    },
    {
      "channel": 1,
      "note": 42,
      "start": 24.0643,
      "duration": 0.0912,
      "velocity": 127,
      "chip": "ym2612"
    },
    {
      "channel": 1,
      "note": 42,
      "start": 24.1561,
      "duration": 0.0759,
      "velocity": 127,
      "chip": "ym2612"
    },
    {
      "channel": 1,
      "note": 38,
      "start": 24.2326,
      "duration": 0.5504,
      "velocity": 127,
      "chip": "ym2612"
    },
    {
      "channel": 5,
      "note": 76,
      "start": 24.2946,
      "duration": 1.3298,
      "velocity": 85,
      "chip": "ym2612"
    },
    {
      "channel": 0,
      "note": 50,
      "start": 24.5995,
      "duration": 0.5808,
      "velocity": 102,
      "chip": "ym2612"
    },
    {
      "channel": 1,
      "note": 42,
      "start": 24.7835,
      "duration": 0.1064,
      "velocity": 127,
      "chip": "ym2612"
    },
    {
      "channel": 1,
      "note": 42,
      "start": 24.8903,
      "duration": 0.0914,
      "velocity": 127,
      "chip": "ym2612"
    },
    {
      "channel": 1,
      "note": 42,
      "start": 24.9823,
      "duration": 0.0912,
      "velocity": 127,
      "chip": "ym2612"
    },
    {
      "channel": 1,
      "note": 42,
      "start": 25.0741,
      "duration": 0.0761,
      "velocity": 127,
      "chip": "ym2612"
    },
    {
      "channel": 1,
      "note": 42,
      "start": 25.1506,
      "duration": 0.5502,
      "velocity": 127,
      "chip": "ym2612"
    },
    {
      "channel": 0,
      "note": 50,
      "start": 25.1807,
      "duration": 0.5504,
      "velocity": 102,
      "chip": "ym2612"
    },
    {
      "channel": 4,
      "note": 77,
      "start": 25.2268,
      "duration": 0.4591,
      "velocity": 85,
      "chip": "ym2612"
    },
    {
      "channel": 5,
      "note": 77,
      "start": 25.6251,
      "duration": 0.4592,
      "velocity": 85,
      "chip": "ym2612"
    },
    {
      "channel": 4,
      "note": 71,
      "start": 25.6865,
      "duration": 0.4586,
      "velocity": 85,
      "chip": "ym2612"
    },
    {
      "channel": 1,
      "note": 42,
      "start": 25.7015,
      "duration": 0.1066,
      "velocity": 127,
      "chip": "ym2612"
    },
    {
      "channel": 3,
      "note": 59,
      "start": 25.7029,
      "duration": 0.3659,
      "velocity": 127,
      "chip": "ym2612"
    },
    {
      "channel": 0,
      "note": 50,
      "start": 25.7315,
      "duration": 0.7035,
      "velocity": 102,
      "chip": "ym2612"
    },
    {
      "channel": 1,
      "note": 42,
      "start": 25.8084,
      "duration": 0.0913,
      "velocity": 127,
      "chip": "ym2612"
    },
    {
      "channel": 1,
      "note": 42,
      "start": 25.9003,
      "duration": 0.0912,
      "velocity": 127,
      "chip": "ym2612"
    },
    {
      "channel": 1,
      "note": 42,
      "start": 25.9922,
      "duration": 0.0759,
      "velocity": 127,
      "chip": "ym2612"
    },
    {
      "channel": 1,
      "note": 38,
      "start": 26.0687,
      "duration": 0.3677,
      "velocity": 127,
      "chip": "ym2612"
    },
    {
      "channel": 3,
      "note": 53,
      "start": 26.0694,
      "duration": 1.1011,
      "velocity": 127,
      "chip": "ym2612"
    },
    {
      "channel": 5,
      "note": 71,
      "start": 26.0849,
      "duration": 0.4594,
      "velocity": 85,
      "chip": "ym2612"
    },
    {
      "channel": 4,
      "note": 79,
      "start": 26.1458,
      "duration": 0.6598,
      "velocity": 85,
      "chip": "ym2612"
    },
    {
      "channel": 0,
      "note": 50,
      "start": 26.4354,
      "duration": 0.367,
      "velocity": 102,
      "chip": "ym2612"
    },
    {
      "channel": 1,
      "note": 42,
      "start": 26.4369,
      "duration": 0.1055,
      "velocity": 127,
      "chip": "ym2612"
    },
    {
      "channel": 1,
      "note": 42,
      "start": 26.5428,
      "duration": 0.0914,
      "velocity": 127,
      "chip": "ym2612"
    },
    {
      "channel": 5,
      "note": 79,
      "start": 26.5449,
      "duration": 0.6556,
      "velocity": 85,
      "chip": "ym2612"
    },
    {
      "channel": 1,
      "note": 42,
      "start": 26.6348,
      "duration": 0.0912,
      "velocity": 127,
      "chip": "ym2612"
    },
    {
      "channel": 1,
      "note": 42,
      "start": 26.7266,
      "duration": 0.0775,
      "velocity": 127,
      "chip": "ym2612"
    },
    {
      "channel": 0,
      "note": 57,
      "start": 26.803,
      "duration": 0.7336,
      "velocity": 102,
      "chip": "ym2612"
    },
    {
      "channel": 1,
      "note": 42,
      "start": 26.8046,
      "duration": 0.1534,
      "velocity": 99,
      "chip": "ym2612"
    },
    {
      "channel": 4,
      "note": 79,
      "start": 26.8337,
      "duration": 2.02,
      "velocity": 85,
      "chip": "ym2612"
    },
    {
      "channel": 1,
      "note": 89,
      "start": 26.9867,
      "duration": 0.1824,
      "velocity": 99,
      "chip": "ym2612"
    },
    {
      "channel": 1,
      "note": 91,
      "start": 27.1697,
      "duration": 0.1832,
      "velocity": 99,
      "chip": "ym2612"
    },
    {
      "channel": 3,
      "note": 64,
      "start": 27.1711,
      "duration": 0.1833,
      "velocity": 127,
      "chip": "ym2612"
    },
    {
      "channel": 5,
      "note": 79,
      "start": 27.2318,
      "duration": 2.0197,
      "velocity": 85,
      "chip": "ym2612"
    },
    {
      "channel": 1,
      "note": 93,
      "start": 27.3535,
      "duration": 0.1844,
      "velocity": 99,
      "chip": "ym2612"
    },
    {
      "channel": 3,
      "note": 65,
      "start": 27.3549,
      "duration": 0.1838,
      "velocity": 127,
      "chip": "ym2612"
    },
    {
      "channel": 0,
      "note": 50,
      "start": 27.5372,
      "duration": 0.5802,
      "velocity": 102,
      "chip": "ym2612"
    },
    {
      "channel": 1,
      "note": 88,
      "start": 27.5386,
      "duration": 0.1821,
      "velocity": 99,
      "chip": "ym2612"
    },
    {
      "channel": 3,
      "note": 67,
      "start": 27.5396,
      "duration": 0.1819,
      "velocity": 127,
      "chip": "ym2612"
    },
    {
      "channel": 1,
      "note": 89,
      "start": 27.7213,
      "duration": 0.1828,
      "velocity": 99,
      "chip": "ym2612"
    },
    {
      "channel": 3,
      "note": 69,
      "start": 27.7221,
      "duration": 0.1663,
      "velocity": 127,
      "chip": "ym2612"
    },
    {
      "channel": 3,
      "note": 64,
      "start": 27.889,
      "duration": 0.1837,
      "velocity": 127,
      "chip": "ym2612"
    },
    {
      "channel": 1,
      "note": 91,
      "start": 27.9047,
      "duration": 0.1823,
      "velocity": 99,
      "chip": "ym2612"
    },
    {
      "channel": 3,
      "note": 65,
      "start": 28.0736,
      "duration": 0.1828,
      "velocity": 127,
      "chip": "ym2612"
    },
    {
      "channel": 1,
      "note": 93,
      "start": 28.0876,
      "duration": 0.1838,
      "velocity": 99,
      "chip": "ym2612"
    },
    {
      "channel": 0,
      "note": 50,
      "start": 28.1178,
      "duration": 0.551,
      "velocity": 102,
      "chip": "ym2612"
    },
    {
      "channel": 3,
      "note": 67,
      "start": 28.2572,
      "duration": 0.1978,
      "velocity": 127,
      "chip": "ym2612"
    },
    {
      "channel": 1,
      "note": 88,
      "start": 28.272,
      "duration": 0.1823,
      "velocity": 99,
      "chip": "ym2612"
    },
    {
      "channel": 1,
      "note": 89,
      "start": 28.4549,
      "duration": 0.1837,
      "velocity": 99,
      "chip": "ym2612"
    },
    {
      "channel": 3,
      "note": 62,
      "start": 28.4556,
      "duration": 0.1844,
      "velocity": 127,
      "chip": "ym2612"
    },
    {
      "channel": 1,
      "note": 91,
      "start": 28.6392,
      "duration": 0.1823,
      "velocity": 99,
      "chip": "ym2612"
    },
    {
      "channel": 3,
      "note": 50,
      "start": 28.6406,
      "duration": 0.1972,
      "velocity": 127,
      "chip": "ym2612"
    },
    {
      "channel": 0,
      "note": 50,
      "start": 28.6692,
      "duration": 0.3516,
      "velocity": 102,
      "chip": "ym2612"
    },
    {
      "channel": 1,
      "note": 93,
      "start": 28.822,
      "duration": 0.1837,
      "velocity": 99,
      "chip": "ym2612"
    },
    {
      "channel": 3,
      "note": 57,
      "start": 28.8384,
      "duration": 0.1832,
      "velocity": 127,
      "chip": "ym2612"
    },
    {
      "channel": 4,
      "note": 76,
      "start": 28.8543,
      "duration": 0.1826,
      "velocity": 85,
      "chip": "ym2612"
    },
    {
      "channel": 1,
      "note": 95,
      "start": 29.0063,
      "duration": 0.1535,
      "velocity": 99,
      "chip": "ym2612"
    },
    {
      "channel": 0,
      "note": 50,
      "start": 29.0212,
      "duration": 0.1375,
      "velocity": 102,
      "chip": "ym2612"
    },
    {
      "channel": 3,
      "note": 64,
      "start": 29.0222,
      "duration": 0.7235,
      "velocity": 127,
      "chip": "ym2612"
    },
    {
      "channel": 4,
      "note": 76,
      "start": 29.0375,
      "duration": 0.5503,
      "velocity": 85,
      "chip": "ym2612"
    },
    {
      "channel": 0,
      "note": 50,
      "start": 29.1591,
      "duration": 0.1058,
      "velocity": 102,
      "chip": "ym2612"
    },
    {
      "channel": 1,
      "note": 89,
      "start": 29.1605,
      "duration": 0.12,
      "velocity": 99,
      "chip": "ym2612"
    },
    {
      "channel": 5,
      "note": 76,
      "start": 29.2521,
      "duration": 0.183,
      "velocity": 85,
      "chip": "ym2612"
    },
    {
      "channel": 0,
      "note": 50,
      "start": 29.2653,
      "duration": 0.2605,
      "velocity": 102,
      "chip": "ym2612"
    },
    {
      "channel": 1,
      "note": 88,
      "start": 29.2811,
      "duration": 0.4638,
      "velocity": 127,
      "chip": "ym2612"
    },
    {
      "channel": 5,
      "note": 76,
      "start": 29.4357,
      "duration": 0.55,
      "velocity": 85,
      "chip": "ym2612"
    },
    {
      "channel": 0,
      "note": 50,
      "start": 29.5263,
      "duration": 0.0762,
      "velocity": 102,
      "chip": "ym2612"
    },
    {
      "channel": 4,
      "note": 74,
      "start": 29.5884,
      "duration": 0.1576,
      "velocity": 85,
      "chip": "ym2612"
    },
    {
      "channel": 0,
      "note": 50,
      "start": 29.6031,
      "duration": 0.0755,
      "velocity": 102,
      "chip": "ym2612"
    },
    {
      "channel": 0,
      "note": 50,
      "start": 29.6792,
      "duration": 0.0611,
      "velocity": 102,
      "chip": "ym2612"
    },
    {
      "channel": 0,
      "note": 57,
      "start": 29.7408,
      "duration": 0.7334,
      "velocity": 102,
      "chip": "ym2612"
    },
    {
      "channel": 1,
      "note": 42,
      "start": 29.7455,
      "duration": 0.1017,
      "velocity": 127,
      "chip": "ym2612"
    },
    {
      "channel": 4,
      "note": 76,
      "start": 29.7466,
      "duration": 0.1775,
      "velocity": 85,
      "chip": "ym2612"
    },
    {
      "channel": 1,
      "note": 42,
      "start": 29.8477,
      "duration": 0.0914,
      "velocity": 127,
      "chip": "ym2612"
    },
    {
      "channel": 4,
      "note": 73,
      "start": 29.9247,
      "duration": 0.1076,
      "velocity": 85,
      "chip": "ym2612"
    },
    {
      "channel": 1,
      "note": 42,
      "start": 29.9396,
      "duration": 0.0912,
      "velocity": 127,
      "chip": "ym2612"
    },
    {
      "channel": 5,
      "note": 74,
      "start": 29.9863,
      "duration": 0.1517,
      "velocity": 85,
      "chip": "ym2612"
    },
    {
      "channel": 1,
      "note": 42,
      "start": 30.0315,
      "duration": 0.0759,
      "velocity": 127,
      "chip": "ym2612"
    },
    {
      "channel": 4,
      "note": 74,
      "start": 30.0329,
      "duration": 0.0758,
      "velocity": 85,
      "chip": "ym2612"
    },
    {
      "channel": 1,
      "note": 38,
      "start": 30.1079,
      "duration": 0.5503,
      "velocity": 127,
      "chip": "ym2612"
    },
    {
      "channel": 4,
      "note": 73,
      "start": 30.1096,
      "duration": 0.1964,
      "velocity": 85,
      "chip": "ym2612"
    },
    {
      "channel": 5,
      "note": 76,
      "start": 30.1386,
      "duration": 0.1836,
      "velocity": 85,
      "chip": "ym2612"
    },
    {
      "channel": 4,
      "note": 71,
      "start": 30.3066,
      "duration": 0.183,
      "velocity": 85,
      "chip": "ym2612"
    },
    {
      "channel": 5,
      "note": 73,
      "start": 30.3229,
      "duration": 0.1065,
      "velocity": 85,
      "chip": "ym2612"
    },
    {
      "channel": 5,
      "note": 74,
      "start": 30.43,
      "duration": 0.0759,
      "velocity": 85,
      "chip": "ym2612"
    },
    {
      "channel": 0,
      "note": 50,
      "start": 30.4749,
      "duration": 0.5808,
      "velocity": 102,
      "chip": "ym2612"
    },
    {
      "channel": 4,
      "note": 69,
      "start": 30.4902,
      "duration": 0.0912,
      "velocity": 85,
      "chip": "ym2612"
    },
    {
      "channel": 5,
      "note": 73,
      "start": 30.5065,
      "duration": 0.1974,
      "velocity": 85,
      "chip": "ym2612"
    },
    {
      "channel": 1,
      "note": 42,
      "start": 30.6588,
      "duration": 0.1065,
      "velocity": 127,
      "chip": "ym2612"
    },
    {
      "channel": 5,
      "note": 71,
      "start": 30.7045,
      "duration": 0.1829,
      "velocity": 85,
      "chip": "ym2612"
    },
    {
      "channel": 4,
      "note": 71,
      "start": 30.7205,
      "duration": 0.0598,
      "velocity": 85,
      "chip": "ym2612"
    },
    {
      "channel": 1,
      "note": 42,
      "start": 30.7657,
      "duration": 0.0913,
      "velocity": 127,
      "chip": "ym2612"
    },
    {
      "channel": 1,
      "note": 42,
      "start": 30.8576,
      "duration": 0.0913,
      "velocity": 127,
      "chip": "ym2612"
    },
    {
      "channel": 5,
      "note": 69,
      "start": 30.888,
      "duration": 0.0915,
      "velocity": 85,
      "chip": "ym2612"
    },
    {
      "channel": 4,
      "note": 73,
      "start": 30.9345,
      "duration": 0.0602,
      "velocity": 85,
      "chip": "ym2612"
    },
    {
      "channel": 1,
      "note": 42,
      "start": 30.9495,
      "duration": 0.076,
      "velocity": 127,
      "chip": "ym2612"
    },
    {
      "channel": 1,
      "note": 42,
      "start": 31.0259,
      "duration": 0.5503,
      "velocity": 127,
      "chip": "ym2612"
    },
    {
      "channel": 0,
      "note": 50,
      "start": 31.0561,
      "duration": 0.5504,
      "velocity": 102,
      "chip": "ym2612"
    },
    {
      "channel": 5,
      "note": 71,
      "start": 31.1182,
      "duration": 0.0604,
      "velocity": 85,
      "chip": "ym2612"
    },
    {
      "channel": 4,
      "note": 65,
      "start": 31.1335,
      "duration": 1.3613,
      "velocity": 85,
      "chip": "ym2612"
    },
    {
      "channel": 5,
      "note": 73,
      "start": 31.3327,
      "duration": 0.06,
      "velocity": 85,
      "chip": "ym2612"
    },
    {
      "channel": 5,
      "note": 65,
      "start": 31.5316,
      "duration": 1.3611,
      "velocity": 85,
      "chip": "ym2612"
    },
    {
      "channel": 1,
      "note": 42,
      "start": 31.5768,
      "duration": 0.1065,
      "velocity": 127,
      "chip": "ym2612"
    },
    {
      "channel": 3,
      "note": 59,
      "start": 31.5785,
      "duration": 0.3656,
      "velocity": 127,
      "chip": "ym2612"
    },
    {
      "channel": 0,
      "note": 50,
      "start": 31.6069,
      "duration": 0.7034,
      "velocity": 102,
      "chip": "ym2612"
    },
    {
      "channel": 1,
      "note": 42,
      "start": 31.6837,
      "duration": 0.0914,
      "velocity": 127,
      "chip": "ym2612"
    },
    {
      "channel": 1,
      "note": 42,
      "start": 31.7756,
      "duration": 0.0913,
      "velocity": 127,
      "chip": "ym2612"
    },
    {
      "channel": 1,
      "note": 42,
      "start": 31.8675,
      "duration": 0.0759,
      "velocity": 127,
      "chip": "ym2612"
    },
    {
      "channel": 1,
      "note": 38,
      "start": 31.9439,
      "duration": 0.3677,
      "velocity": 127,
      "chip": "ym2612"
    },
    {
      "channel": 3,
      "note": 53,
      "start": 31.9446,
      "duration": 1.1004,
      "velocity": 127,
      "chip": "ym2612"
    },
    {
      "channel": 0,
      "note": 50,
      "start": 32.3107,
      "duration": 0.367,
      "velocity": 102,
      "chip": "ym2612"
    },
    {
      "channel": 1,
      "note": 42,
      "start": 32.3124,
      "duration": 0.1052,
      "velocity": 127,
      "chip": "ym2612"
    },
    {
      "channel": 1,
      "note": 42,
      "start": 32.4181,
      "duration": 0.0914,
      "velocity": 127,
      "chip": "ym2612"
    },
    {
      "channel": 4,
      "note": 64,
      "start": 32.4954,
      "duration": 0.1861,
      "velocity": 85,
      "chip": "ym2612"
    },
    {
      "channel": 1,
      "note": 42,
      "start": 32.51,
      "duration": 0.0913,
      "velocity": 127,
      "chip": "ym2612"
    },
    {
      "channel": 1,
      "note": 42,
      "start": 32.6019,
      "duration": 0.0777,
      "velocity": 127,
      "chip": "ym2612"
    },
    {
      "channel": 0,
      "note": 57,
      "start": 32.6783,
      "duration": 0.7336,
      "velocity": 102,
      "chip": "ym2612"
    },
    {
      "channel": 1,
      "note": 42,
      "start": 32.6802,
      "duration": 0.0582,
      "velocity": 127,
      "chip": "ym2612"
    },
    {
      "channel": 4,
      "note": 67,
      "start": 32.6821,
      "duration": 1.649,
      "velocity": 85,
      "chip": "ym2612"
    },
    {
      "channel": 5,
      "note": 64,
      "start": 32.8933,
      "duration": 0.1831,
      "velocity": 85,
      "chip": "ym2612"
    },
    {
      "channel": 3,
      "note": 64,
      "start": 33.0457,
      "duration": 0.183,
      "velocity": 127,
      "chip": "ym2612"
    },
    {
      "channel": 5,
      "note": 67,
      "start": 33.0769,
      "duration": 1.6518,
      "velocity": 85,
      "chip": "ym2612"
    },
    {
      "channel": 3,
      "note": 65,
      "start": 33.2293,
      "duration": 0.1834,
      "velocity": 127,
      "chip": "ym2612"
    },
    {
      "channel": 0,
      "note": 50,
      "start": 33.4125,
      "duration": 0.5802,
      "velocity": 102,
      "chip": "ym2612"
    },
    {
      "channel": 3,
      "note": 67,
      "start": 33.4133,
      "duration": 0.1819,
      "velocity": 127,
      "chip": "ym2612"
    },
    {
      "channel": 3,
      "note": 69,
      "start": 33.5958,
      "duration": 0.1678,
      "velocity": 127,
      "chip": "ym2612"
    },
    {
      "channel": 3,
      "note": 64,
      "start": 33.7644,
      "duration": 0.1836,
      "velocity": 127,
      "chip": "ym2612"
    },
    {
      "channel": 3,
      "note": 65,
      "start": 33.9486,
      "duration": 0.1831,
      "velocity": 127,
      "chip": "ym2612"
    },
    {
      "channel": 0,
      "note": 50,
      "start": 33.993,
      "duration": 0.5511,
      "velocity": 102,
      "chip": "ym2612"
    },
    {
      "channel": 3,
      "note": 67,
      "start": 34.1323,
      "duration": 0.1974,
      "velocity": 127,
      "chip": "ym2612"
    },
    {
      "channel": 3,
      "note": 62,
      "start": 34.3303,
      "duration": 0.1837,
      "velocity": 127,
      "chip": "ym2612"
    },
    {
      "channel": 4,
      "note": 64,
      "start": 34.332,
      "duration": 0.3822,
      "velocity": 85,
      "chip": "ym2612"
    },
    {
      "channel": 3,
      "note": 50,
      "start": 34.5145,
      "duration": 0.1983,
      "velocity": 127,
      "chip": "ym2612"
    },
    {
      "channel": 0,
      "note": 50,
      "start": 34.5445,
      "duration": 0.3515,
      "velocity": 102,
      "chip": "ym2612"
    },
    {
      "channel": 3,
      "note": 57,
      "start": 34.7134,
      "duration": 0.1833,
      "velocity": 127,
      "chip": "ym2612"
    },
    {
      "channel": 4,
      "note": 64,
      "start": 34.7148,
      "duration": 0.7327,
      "velocity": 85,
      "chip": "ym2612"
    },
    {
      "channel": 5,
      "note": 64,
      "start": 34.7294,
      "duration": 0.3819,
      "velocity": 85,
      "chip": "ym2612"
    },
    {
      "channel": 0,
      "note": 50,
      "start": 34.8965,
      "duration": 0.1373,
      "velocity": 102,
      "chip": "ym2612"
    },
    {
      "channel": 3,
      "note": 64,
      "start": 34.8973,
      "duration": 0.7237,
      "velocity": 127,
      "chip": "ym2612"
    },
    {
      "channel": 0,
      "note": 50,
      "start": 35.0341,
      "duration": 0.1061,
      "velocity": 102,
      "chip": "ym2612"
    },
    {
      "channel": 5,
      "note": 64,
      "start": 35.1119,
      "duration": 0.7338,
      "velocity": 85,
      "chip": "ym2612"
    },
    {
      "channel": 0,
      "note": 50,
      "start": 35.1406,
      "duration": 0.2603,
      "velocity": 102,
      "chip": "ym2612"
    },
    {
      "channel": 0,
      "note": 50,
      "start": 35.4013,
      "duration": 0.0761,
      "velocity": 102,
      "chip": "ym2612"
    },
    {
      "channel": 4,
      "note": 62,
      "start": 35.4481,
      "duration": 0.1739,
      "velocity": 85,
      "chip": "ym2612"
    },
    {
      "channel": 0,
      "note": 50,
      "start": 35.478,
      "duration": 0.076,
      "velocity": 102,
      "chip": "ym2612"
    },
    {
      "channel": 0,
      "note": 50,
      "start": 35.5545,
      "duration": 0.061,
      "velocity": 102,
      "chip": "ym2612"
    },
    {
      "channel": 0,
      "note": 57,
      "start": 35.6161,
      "duration": 0.7334,
      "velocity": 102,
      "chip": "ym2612"
    },
    {
      "channel": 1,
      "note": 42,
      "start": 35.6207,
      "duration": 0.1018,
      "velocity": 127,
      "chip": "ym2612"
    },
    {
      "channel": 4,
      "note": 64,
      "start": 35.6226,
      "duration": 0.8807,
      "velocity": 85,
      "chip": "ym2612"
    },
    {
      "channel": 1,
      "note": 42,
      "start": 35.723,
      "duration": 0.0914,
      "velocity": 127,
      "chip": "ym2612"
    },
    {
      "channel": 1,
      "note": 42,
      "start": 35.815,
      "duration": 0.0912,
      "velocity": 127,
      "chip": "ym2612"
    },
    {
      "channel": 5,
      "note": 62,
      "start": 35.8463,
      "duration": 0.1677,
      "velocity": 85,
      "chip": "ym2612"
    },
    {
      "channel": 1,
      "note": 42,
      "start": 35.9067,
      "duration": 0.0759,
      "velocity": 127,
      "chip": "ym2612"
    },
    {
      "channel": 1,
      "note": 38,
      "start": 35.9833,
      "duration": 0.5503,
      "velocity": 127,
      "chip": "ym2612"
    },
    {
      "channel": 5,
      "note": 64,
      "start": 36.0146,
      "duration": 0.8881,
      "velocity": 85,
      "chip": "ym2612"
    },
    {
      "channel": 0,
      "note": 50,
      "start": 36.3501,
      "duration": 0.5808,
      "velocity": 102,
      "chip": "ym2612"
    },
    {
      "channel": 4,
      "note": 64,
      "start": 36.5037,
      "duration": 0.1679,
      "velocity": 85,
      "chip": "ym2612"
    },
    {
      "channel": 1,
      "note": 42,
      "start": 36.5341,
      "duration": 0.1064,
      "velocity": 127,
      "chip": "ym2612"
    },
    {
      "channel": 1,
      "note": 42,
      "start": 36.641,
      "duration": 0.0914,
      "velocity": 127,
      "chip": "ym2612"
    },
    {
      "channel": 4,
      "note": 62,
      "start": 36.6722,
      "duration": 0.3666,
      "velocity": 85,
      "chip": "ym2612"
    },
    {
      "channel": 1,
      "note": 42,
      "start": 36.7329,
      "duration": 0.0912,
      "velocity": 127,
      "chip": "ym2612"
    },
    {
      "channel": 1,
      "note": 42,
      "start": 36.8247,
      "duration": 0.076,
      "velocity": 127,
      "chip": "ym2612"
    },
    {
      "channel": 1,
      "note": 42,
      "start": 36.9012,
      "duration": 0.5504,
      "velocity": 127,
      "chip": "ym2612"
    },
    {
      "channel": 5,
      "note": 64,
      "start": 36.9031,
      "duration": 0.1669,
      "velocity": 85,
      "chip": "ym2612"
    },
    {
      "channel": 0,
      "note": 50,
      "start": 36.9313,
      "duration": 0.5504,
      "velocity": 102,
      "chip": "ym2612"
    },
    {
      "channel": 4,
      "note": 69,
      "start": 37.0394,
      "duration": 0.7493,
      "velocity": 85,
      "chip": "ym2612"
    },
    {
      "channel": 5,
      "note": 62,
      "start": 37.0706,
      "duration": 0.3665,
      "velocity": 85,
      "chip": "ym2612"
    },
    {
      "channel": 5,
      "note": 69,
      "start": 37.4377,
      "duration": 0.7526,
      "velocity": 85,
      "chip": "ym2612"
    },
    {
      "channel": 1,
      "note": 42,
      "start": 37.4524,
      "duration": 0.1062,
      "velocity": 127,
      "chip": "ym2612"
    },
    {
      "channel": 3,
      "note": 59,
      "start": 37.4538,
      "duration": 0.3659,
      "velocity": 127,
      "chip": "ym2612"
    },
    {
      "channel": 0,
      "note": 50,
      "start": 37.4821,
      "duration": 0.7035,
      "velocity": 102,
      "chip": "ym2612"
    },
    {
      "channel": 1,
      "note": 42,
      "start": 37.559,
      "duration": 0.0915,
      "velocity": 127,
      "chip": "ym2612"
    },
    {
      "channel": 1,
      "note": 42,
      "start": 37.651,
      "duration": 0.0912,
      "velocity": 127,
      "chip": "ym2612"
    },
    {
      "channel": 1,
      "note": 42,
      "start": 37.7428,
      "duration": 0.0759,
      "velocity": 127,
      "chip": "ym2612"
    },
    {
      "channel": 4,
      "note": 71,
      "start": 37.7893,
      "duration": 0.7668,
      "velocity": 85,
      "chip": "ym2612"
    },
    {
      "channel": 1,
      "note": 38,
      "start": 37.8195,
      "duration": 0.3677,
      "velocity": 127,
      "chip": "ym2612"
    },
    {
      "channel": 3,
      "note": 53,
      "start": 37.8203,
      "duration": 1.1011,
      "velocity": 127,
      "chip": "ym2612"
    },
    {
      "channel": 0,
      "note": 50,
      "start": 38.186,
      "duration": 0.367,
      "velocity": 102,
      "chip": "ym2612"
    },
    {
      "channel": 1,
      "note": 42,
      "start": 38.1878,
      "duration": 0.1053,
      "velocity": 127,
      "chip": "ym2612"
    },
    {
      "channel": 5,
      "note": 71,
      "start": 38.1909,
      "duration": 0.7603,
      "velocity": 85,
      "chip": "ym2612"
    },
    {
      "channel": 1,
      "note": 42,
      "start": 38.2934,
      "duration": 0.0913,
      "velocity": 127,
      "chip": "ym2612"
    },
    {
      "channel": 1,
      "note": 42,
      "start": 38.3853,
      "duration": 0.0912,
      "velocity": 127,
      "chip": "ym2612"
    },
    {
      "channel": 1,
      "note": 42,
      "start": 38.4772,
      "duration": 0.0777,
      "velocity": 127,
      "chip": "ym2612"
    },
    {
      "channel": 0,
      "note": 57,
      "start": 38.5539,
      "duration": 0.7333,
      "velocity": 102,
      "chip": "ym2612"
    },
    {
      "channel": 1,
      "note": 42,
      "start": 38.5554,
      "duration": 0.1529,
      "velocity": 99,
      "chip": "ym2612"
    },
    {
      "channel": 4,
      "note": 69,
      "start": 38.5567,
      "duration": 0.7769,
      "velocity": 85,
      "chip": "ym2612"
    },
    {
      "channel": 1,
      "note": 89,
      "start": 38.7376,
      "duration": 0.1821,
      "velocity": 99,
      "chip": "ym2612"
    },
    {
      "channel": 1,
      "note": 91,
      "start": 38.9202,
      "duration": 0.183,
      "velocity": 99,
      "chip": "ym2612"
    },
    {
      "channel": 3,
      "note": 64,
      "start": 38.922,
      "duration": 0.183,
      "velocity": 127,
      "chip": "ym2612"
    },
    {
      "channel": 5,
      "note": 69,
      "start": 38.9519,
      "duration": 0.7797,
      "velocity": 85,
      "chip": "ym2612"
    },
    {
      "channel": 1,
      "note": 93,
      "start": 39.1039,
      "duration": 0.1849,
      "velocity": 99,
      "chip": "ym2612"
    },
    {
      "channel": 3,
      "note": 65,
      "start": 39.1056,
      "duration": 0.184,
      "velocity": 127,
      "chip": "ym2612"
    },
    {
      "channel": 0,
      "note": 50,
      "start": 39.2877,
      "duration": 0.5802,
      "velocity": 102,
      "chip": "ym2612"
    },
    {
      "channel": 1,
      "note": 88,
      "start": 39.2894,
      "duration": 0.1817,
      "velocity": 99,
      "chip": "ym2612"
    },
    {
      "channel": 3,
      "note": 67,
      "start": 39.2902,
      "duration": 0.182,
      "velocity": 127,
      "chip": "ym2612"
    },
    {
      "channel": 4,
      "note": 71,
      "start": 39.3342,
      "duration": 0.5356,
      "velocity": 85,
      "chip": "ym2612"
    },
    {
      "channel": 1,
      "note": 89,
      "start": 39.472,
      "duration": 0.1827,
      "velocity": 99,
      "chip": "ym2612"
    },
    {
      "channel": 3,
      "note": 69,
      "start": 39.4728,
      "duration": 0.1666,
      "velocity": 127,
      "chip": "ym2612"
    },
    {
      "channel": 3,
      "note": 64,
      "start": 39.64,
      "duration": 0.1837,
      "velocity": 127,
      "chip": "ym2612"
    },
    {
      "channel": 1,
      "note": 91,
      "start": 39.6556,
      "duration": 0.1821,
      "velocity": 99,
      "chip": "ym2612"
    },
    {
      "channel": 5,
      "note": 71,
      "start": 39.7322,
      "duration": 0.5356,
      "velocity": 85,
      "chip": "ym2612"
    },
    {
      "channel": 3,
      "note": 65,
      "start": 39.8242,
      "duration": 0.1829,
      "velocity": 127,
      "chip": "ym2612"
    },
    {
      "channel": 1,
      "note": 93,
      "start": 39.8383,
      "duration": 0.184,
      "velocity": 99,
      "chip": "ym2612"
    },
    {
      "channel": 0,
      "note": 50,
      "start": 39.8684,
      "duration": 0.5511,
      "velocity": 102,
      "chip": "ym2612"
    },
    {
      "channel": 4,
      "note": 69,
      "start": 39.8704,
      "duration": 0.1828,
      "velocity": 85,
      "chip": "ym2612"
    },
    {
      "channel": 3,
      "note": 67,
      "start": 40.0078,
      "duration": 0.198,
      "velocity": 127,
      "chip": "ym2612"
    },
    {
      "channel": 1,
      "note": 88,
      "start": 40.0229,
      "duration": 0.1819,
      "velocity": 99,
      "chip": "ym2612"
    },
    {
      "channel": 4,
      "note": 65,
      "start": 40.0538,
      "duration": 0.5197,
      "velocity": 85,
      "chip": "ym2612"
    },
    {
      "channel": 1,
      "note": 89,
      "start": 40.2055,
      "duration": 0.1837,
      "velocity": 99,
      "chip": "ym2612"
    },
    {
      "channel": 3,
      "note": 62,
      "start": 40.2065,
      "duration": 0.1844,
      "velocity": 127,
      "chip": "ym2612"
    },
    {
      "channel": 5,
      "note": 69,
      "start": 40.2683,
      "duration": 0.1831,
      "velocity": 85,
      "chip": "ym2612"
    },
    {
      "channel": 1,
      "note": 91,
      "start": 40.39,
      "duration": 0.1821,
      "velocity": 99,
      "chip": "ym2612"
    },
    {
      "channel": 3,
      "note": 50,
      "start": 40.3914,
      "duration": 0.1969,
      "velocity": 127,
      "chip": "ym2612"
    },
    {
      "channel": 0,
      "note": 50,
      "start": 40.4199,
      "duration": 0.3514,
      "velocity": 102,
      "chip": "ym2612"
    },
    {
      "channel": 5,
      "note": 65,
      "start": 40.452,
      "duration": 0.5188,
      "velocity": 85,
      "chip": "ym2612"
    },
    {
      "channel": 1,
      "note": 93,
      "start": 40.5727,
      "duration": 0.1836,
      "velocity": 99,
      "chip": "ym2612"
    },
    {
      "channel": 4,
      "note": 71,
      "start": 40.5741,
      "duration": 0.5344,
      "velocity": 85,
      "chip": "ym2612"
    },
    {
      "channel": 3,
      "note": 57,
      "start": 40.589,
      "duration": 0.1833,
      "velocity": 127,
      "chip": "ym2612"
    },
    {
      "channel": 1,
      "note": 95,
      "start": 40.7572,
      "duration": 0.1531,
      "velocity": 99,
      "chip": "ym2612"
    },
    {
      "channel": 0,
      "note": 50,
      "start": 40.7717,
      "duration": 0.1373,
      "velocity": 102,
      "chip": "ym2612"
    },
    {
      "channel": 3,
      "note": 64,
      "start": 40.7728,
      "duration": 0.7234,
      "velocity": 127,
      "chip": "ym2612"
    },
    {
      "channel": 0,
      "note": 50,
      "start": 40.9095,
      "duration": 0.1061,
      "velocity": 102,
      "chip": "ym2612"
    },
    {
      "channel": 1,
      "note": 89,
      "start": 40.9109,
      "duration": 0.1202,
      "velocity": 99,
      "chip": "ym2612"
    },
    {
      "channel": 5,
      "note": 71,
      "start": 40.9715,
      "duration": 0.5346,
      "velocity": 85,
      "chip": "ym2612"
    },
    {
      "channel": 0,
      "note": 50,
      "start": 41.0159,
      "duration": 0.2603,
      "velocity": 102,
      "chip": "ym2612"
    },
    {
      "channel": 1,
      "note": 88,
      "start": 41.0317,
      "duration": 0.4638,
      "velocity": 127,
      "chip": "ym2612"
    },
    {
      "channel": 4,
      "note": 69,
      "start": 41.1091,
      "duration": 0.4432,
      "velocity": 85,
      "chip": "ym2612"
    },
    {
      "channel": 0,
      "note": 50,
      "start": 41.2767,
      "duration": 0.076,
      "velocity": 102,
      "chip": "ym2612"
    },
    {
      "channel": 0,
      "note": 50,
      "start": 41.3532,
      "duration": 0.076,
      "velocity": 102,
      "chip": "ym2612"
    },
    {
      "channel": 0,
      "note": 50,
      "start": 41.4299,
      "duration": 0.0612,
      "velocity": 102,
      "chip": "ym2612"
    },
    {
      "channel": 0,
      "note": 57,
      "start": 41.4916,
      "duration": 0.7332,
      "velocity": 102,
      "chip": "ym2612"
    },
    {
      "channel": 1,
      "note": 42,
      "start": 41.496,
      "duration": 0.1019,
      "velocity": 127,
      "chip": "ym2612"
    },
    {
      "channel": 5,
      "note": 69,
      "start": 41.5067,
      "duration": 0.444,
      "velocity": 85,
      "chip": "ym2612"
    },
    {
      "channel": 4,
      "note": 69,
      "start": 41.5529,
      "duration": 2.7843,
      "velocity": 85,
      "chip": "ym2612"
    },
    {
      "channel": 1,
      "note": 42,
      "start": 41.5983,
      "duration": 0.0914,
      "velocity": 127,
      "chip": "ym2612"
    },
    {
      "channel": 1,
      "note": 42,
      "start": 41.6902,
      "duration": 0.0912,
      "velocity": 127,
      "chip": "ym2612"
    },
    {
      "channel": 1,
      "note": 42,
      "start": 41.782,
      "duration": 0.0762,
      "velocity": 127,
      "chip": "ym2612"
    },
    {
      "channel": 1,
      "note": 38,
      "start": 41.8588,
      "duration": 0.5504,
      "velocity": 127,
      "chip": "ym2612"
    },
    {
      "channel": 5,
      "note": 69,
      "start": 41.9513,
      "duration": 2.7838,
      "velocity": 85,
      "chip": "ym2612"
    },
    {
      "channel": 0,
      "note": 50,
      "start": 42.2256,
      "duration": 0.5806,
      "velocity": 102,
      "chip": "ym2612"
    },
    {
      "channel": 1,
      "note": 42,
      "start": 42.4098,
      "duration": 0.1061,
      "velocity": 127,
      "chip": "ym2612"
    },
    {
      "channel": 1,
      "note": 42,
      "start": 42.5163,
      "duration": 0.0913,
      "velocity": 127,
      "chip": "ym2612"
    },
    {
      "channel": 1,
      "note": 42,
      "start": 42.6082,
      "duration": 0.0914,
      "velocity": 127,
      "chip": "ym2612"
    },
    {
      "channel": 1,
      "note": 42,
      "start": 42.7002,
      "duration": 0.0762,
      "velocity": 127,
      "chip": "ym2612"
    },
    {
      "channel": 1,
      "note": 42,
      "start": 42.7768,
      "duration": 0.5503,
      "velocity": 127,
      "chip": "ym2612"
    },
    {
      "channel": 0,
      "note": 50,
      "start": 42.8067,
      "duration": 0.5504,
      "velocity": 102,
      "chip": "ym2612"
    },
    {
      "channel": 1,
      "note": 42,
      "start": 43.3277,
      "duration": 0.1063,
      "velocity": 127,
      "chip": "ym2612"
    },
    {
      "channel": 3,
      "note": 59,
      "start": 43.3291,
      "duration": 0.3659,
      "velocity": 127,
      "chip": "ym2612"
    },
    {
      "channel": 0,
      "note": 50,
      "start": 43.3575,
      "duration": 0.7037,
      "velocity": 102,
      "chip": "ym2612"
    },
    {
      "channel": 1,
      "note": 42,
      "start": 43.4343,
      "duration": 0.0913,
      "velocity": 127,
      "chip": "ym2612"
    },
    {
      "channel": 1,
      "note": 42,
      "start": 43.5262,
      "duration": 0.0913,
      "velocity": 127,
      "chip": "ym2612"
    },
    {
      "channel": 1,
      "note": 42,
      "start": 43.6181,
      "duration": 0.0761,
      "velocity": 127,
      "chip": "ym2612"
    },
    {
      "channel": 1,
      "note": 38,
      "start": 43.6948,
      "duration": 0.3677,
      "velocity": 127,
      "chip": "ym2612"
    },
    {
      "channel": 3,
      "note": 53,
      "start": 43.6956,
      "duration": 1.1004,
      "velocity": 127,
      "chip": "ym2612"
    },
    {
      "channel": 0,
      "note": 50,
      "start": 44.0616,
      "duration": 0.3671,
      "velocity": 102,
      "chip": "ym2612"
    },
    {
      "channel": 1,
      "note": 42,
      "start": 44.0631,
      "duration": 0.1052,
      "velocity": 127,
      "chip": "ym2612"
    },
    {
      "channel": 1,
      "note": 42,
      "start": 44.1687,
      "duration": 0.0914,
      "velocity": 127,
      "chip": "ym2612"
    },
    {
      "channel": 1,
      "note": 42,
      "start": 44.2607,
      "duration": 0.0912,
      "velocity": 127,
      "chip": "ym2612"
    },
    {
      "channel": 4,
      "note": 69,
      "start": 44.3378,
      "duration": 0.0937,
      "velocity": 85,
      "chip": "ym2612"
    },
    {
      "channel": 1,
      "note": 42,
      "start": 44.3524,
      "duration": 0.0778,
      "velocity": 127,
      "chip": "ym2612"
    },
    {
      "channel": 0,
      "note": 57,
      "start": 44.4293,
      "duration": 0.7335,
      "velocity": 102,
      "chip": "ym2612"
    },
    {
      "channel": 1,
      "note": 42,
      "start": 44.4308,
      "duration": 0.0581,
      "velocity": 127,
      "chip": "ym2612"
    },
    {
      "channel": 4,
      "note": 69,
      "start": 44.5511,
      "duration": 3.2134,
      "velocity": 85,
      "chip": "ym2612"
    },
    {
      "channel": 5,
      "note": 69,
      "start": 44.7357,
      "duration": 0.0905,
      "velocity": 85,
      "chip": "ym2612"
    },
    {
      "channel": 3,
      "note": 64,
      "start": 44.7966,
      "duration": 0.183,
      "velocity": 127,
      "chip": "ym2612"
    },
    {
      "channel": 5,
      "note": 69,
      "start": 44.9496,
      "duration": 2.8149,
      "velocity": 85,
      "chip": "ym2612"
    },
    {
      "channel": 3,
      "note": 65,
      "start": 44.9802,
      "duration": 0.1834,
      "velocity": 127,
      "chip": "ym2612"
    },
    {
      "channel": 0,
      "note": 50,
      "start": 45.1633,
      "duration": 0.5799,
      "velocity": 102,
      "chip": "ym2612"
    },
    {
      "channel": 3,
      "note": 67,
      "start": 45.1641,
      "duration": 0.1819,
      "velocity": 127,
      "chip": "ym2612"
    },
    {
      "channel": 3,
      "note": 69,
      "start": 45.3466,
      "duration": 0.1675,
      "velocity": 127,
      "chip": "ym2612"
    },
    {
      "channel": 3,
      "note": 64,
      "start": 45.5147,
      "duration": 0.1839,
      "velocity": 127,
      "chip": "ym2612"
    },
    {
      "channel": 3,
      "note": 65,
      "start": 45.6992,
      "duration": 0.1828,
      "velocity": 127,
      "chip": "ym2612"
    },
    {
      "channel": 0,
      "note": 50,
      "start": 45.7437,
      "duration": 0.551,
      "velocity": 102,
      "chip": "ym2612"
    },
    {
      "channel": 3,
      "note": 67,
      "start": 45.8827,
      "duration": 0.1978,
      "velocity": 127,
      "chip": "ym2612"
    },
    {
      "channel": 3,
      "note": 62,
      "start": 46.0811,
      "duration": 0.1837,
      "velocity": 127,
      "chip": "ym2612"
    },
    {
      "channel": 3,
      "note": 50,
      "start": 46.2654,
      "duration": 0.198,
      "velocity": 127,
      "chip": "ym2612"
    },
    {
      "channel": 0,
      "note": 50,
      "start": 46.2952,
      "duration": 0.3514,
      "velocity": 102,
      "chip": "ym2612"
    },
    {
      "channel": 3,
      "note": 57,
      "start": 46.4642,
      "duration": 0.1832,
      "velocity": 127,
      "chip": "ym2612"
    },
    {
      "channel": 0,
      "note": 50,
      "start": 46.647,
      "duration": 0.1373,
      "velocity": 102,
      "chip": "ym2612"
    },
    {
      "channel": 3,
      "note": 64,
      "start": 46.6481,
      "duration": 0.7238,
      "velocity": 127,
      "chip": "ym2612"
    },
    {
      "channel": 0,
      "note": 50,
      "start": 46.7847,
      "duration": 0.1061,
      "velocity": 102,
      "chip": "ym2612"
    },
    {
      "channel": 0,
      "note": 50,
      "start": 46.8912,
      "duration": 0.2603,
      "velocity": 102,
      "chip": "ym2612"
    },
    {
      "channel": 0,
      "note": 50,
      "start": 47.152,
      "duration": 0.0761,
      "velocity": 102,
      "chip": "ym2612"
    },
    {
      "channel": 0,
      "note": 50,
      "start": 47.2286,
      "duration": 0.0759,
      "velocity": 102,
      "chip": "ym2612"
    },
    {
      "channel": 0,
      "note": 50,
      "start": 47.3051,
      "duration": 0.0614,
      "velocity": 102,
      "chip": "ym2612"
    },
    {
      "channel": 0,
      "note": 57,
      "start": 47.3671,
      "duration": 0.3974,
      "velocity": 102,
      "chip": "ym2612"
    },
    {
      "channel": 1,
      "note": 42,
      "start": 47.3715,
      "duration": 0.1016,
      "velocity": 127,
      "chip": "ym2612"
    },
    {
      "channel": 1,
      "note": 42,
      "start": 47.4735,
      "duration": 0.0918,
      "velocity": 127,
      "chip": "ym2612"
    },
    {
      "channel": 1,
      "note": 42,
      "start": 47.5659,
      "duration": 0.0908,
      "velocity": 127,
      "chip": "ym2612"
    },
    {
      "channel": 1,
      "note": 42,
      "start": 47.6573,
      "duration": 0.0762,
      "velocity": 127,
      "chip": "ym2612"
    },
    {
      "channel": 1,
      "note": 38,
      "start": 47.7341,
      "duration": 0.0304,
      "velocity": 127,
      "chip": "ym2612"
    }
  ]
}