{
  "track_name": "09 - Daiou Jai's Theme",
  "duration_sec": 33.641,
  "sample_rate": 44100,
  "note_count": 549,
  "unique_pitches": 42,
  "pitch_range": 70,
  "avg_note_duration": 0.2454,
  "reconstruction_stats": {
    "notes_reconstructed": 549,
    "keyon_events": 549,
    "keyoff_events": 545,
    "orphan_keyons": 4,
    "unique_pitches": 42,
    "pitch_range": 70,
    "avg_duration_sec": 0.2454
  },
  "metadata": {
    "source": "S\\Shougi no Hoshi\\09 - Daiou Jai's Theme.vgz"
  },
  "notes": [
    {
      "channel": 0,
      "note": 33,
      "start": 0.0015,
      "duration": 0.2144,
      "velocity": 95,
      "chip": "ym2612"
    },
    {
      "channel": 1,
      "note": 68,
      "start": 0.0052,
      "duration": 0.2115,
      "velocity": 120,
      "chip": "ym2612"
    },
    {
      "channel": 2,
      "note": 30,
      "start": 0.0165,
      "duration": 0.1305,
      "velocity": 119,
      "chip": "ym2612"
    },
    {
      "channel": 0,
      "note": 33,
      "start": 0.2165,
      "duration": 0.1997,
      "velocity": 95,
      "chip": "ym2612"
    },
    {
      "channel": 1,
      "note": 67,
      "start": 0.2172,
      "duration": 4.6057,
      "velocity": 120,
      "chip": "ym2612"
    },
    {
      "channel": 5,
      "note": 68,
      "start": 0.2183,
      "duration": 0.1991,
      "velocity": 120,
      "chip": "ym2612"
    },
    {
      "channel": 2,
      "note": 78,
      "start": 0.2192,
      "duration": 0.1938,
      "velocity": 127,
      "chip": "ym2612"
    },
    {
      "channel": 0,
      "note": 33,
      "start": 0.4167,
      "duration": 0.1997,
      "velocity": 95,
      "chip": "ym2612"
    },
    {
      "channel": 5,
      "note": 67,
      "start": 0.418,
      "duration": 4.6023,
      "velocity": 120,
      "chip": "ym2612"
    },
    {
      "channel": 2,
      "note": 30,
      "start": 0.4188,
      "duration": 0.1289,
      "velocity": 119,
      "chip": "ym2612"
    },
    {
      "channel": 0,
      "note": 33,
      "start": 0.617,
      "duration": 0.1997,
      "velocity": 95,
      "chip": "ym2612"
    },
    {
      "channel": 2,
      "note": 78,
      "start": 0.6187,
      "duration": 0.1948,
      "velocity": 127,
      "chip": "ym2612"
    },
    {
      "channel": 0,
      "note": 33,
      "start": 0.8173,
      "duration": 0.1997,
      "velocity": 95,
      "chip": "ym2612"
    },
    {
      "channel": 2,
      "note": 30,
      "start": 0.819,
      "duration": 0.1293,
      "velocity": 119,
      "chip": "ym2612"
    },
    {
      "channel": 0,
      "note": 33,
      "start": 1.0175,
      "duration": 0.1997,
      "velocity": 95,
      "chip": "ym2612"
    },
    {
      "channel": 2,
      "note": 78,
      "start": 1.0193,
      "duration": 0.1948,
      "velocity": 127,
      "chip": "ym2612"
    },
    {
      "channel": 0,
      "note": 33,
      "start": 1.2178,
      "duration": 0.1997,
      "velocity": 95,
      "chip": "ym2612"
    },
    {
      "channel": 2,
      "note": 30,
      "start": 1.2195,
      "duration": 0.1293,
      "velocity": 119,
      "chip": "ym2612"
    },
    {
      "channel": 0,
      "note": 33,
      "start": 1.418,
      "duration": 0.2003,
      "velocity": 95,
      "chip": "ym2612"
    },
    {
      "channel": 2,
      "note": 78,
      "start": 1.4198,
      "duration": 0.1951,
      "velocity": 127,
      "chip": "ym2612"
    },
    {
      "channel": 0,
      "note": 33,
      "start": 1.6189,
      "duration": 0.1991,
      "velocity": 95,
      "chip": "ym2612"
    },
    {
      "channel": 3,
      "note": 71,
      "start": 1.6204,
      "duration": 0.1987,
      "velocity": 120,
      "chip": "ym2612"
    },
    {
      "channel": 2,
      "note": 30,
      "start": 1.6219,
      "duration": 0.1277,
      "velocity": 119,
      "chip": "ym2612"
    },
    {
      "channel": 0,
      "note": 33,
      "start": 1.8185,
      "duration": 0.1997,
      "velocity": 95,
      "chip": "ym2612"
    },
    {
      "channel": 3,
      "note": 70,
      "start": 1.8197,
      "duration": 3.004,
      "velocity": 120,
      "chip": "ym2612"
    },
    {
      "channel": 2,
      "note": 78,
      "start": 1.8213,
      "duration": 0.1937,
      "velocity": 127,
      "chip": "ym2612"
    },
    {
      "channel": 0,
      "note": 33,
      "start": 2.0188,
      "duration": 0.1997,
      "velocity": 95,
      "chip": "ym2612"
    },
    {
      "channel": 2,
      "note": 30,
      "start": 2.0208,
      "duration": 0.1293,
      "velocity": 119,
      "chip": "ym2612"
    },
    {
      "channel": 0,
      "note": 33,
      "start": 2.2191,
      "duration": 0.1997,
      "velocity": 95,
      "chip": "ym2612"
    },
    {
      "channel": 2,
      "note": 78,
      "start": 2.2211,
      "duration": 0.1945,
      "velocity": 127,
      "chip": "ym2612"
    },
    {
      "channel": 0,
      "note": 33,
      "start": 2.4193,
      "duration": 0.1997,
      "velocity": 95,
      "chip": "ym2612"
    },
    {
      "channel": 2,
      "note": 30,
      "start": 2.4213,
      "duration": 0.1293,
      "velocity": 119,
      "chip": "ym2612"
    },
    {
      "channel": 0,
      "note": 33,
      "start": 2.6196,
      "duration": 0.1997,
      "velocity": 95,
      "chip": "ym2612"
    },
    {
      "channel": 2,
      "note": 78,
      "start": 2.6216,
      "duration": 0.1945,
      "velocity": 127,
      "chip": "ym2612"
    },
    {
      "channel": 0,
      "note": 33,
      "start": 2.8198,
      "duration": 0.1997,
      "velocity": 95,
      "chip": "ym2612"
    },
    {
      "channel": 2,
      "note": 30,
      "start": 2.8218,
      "duration": 0.1293,
      "velocity": 119,
      "chip": "ym2612"
    },
    {
      "channel": 0,
      "note": 33,
      "start": 3.0201,
      "duration": 0.2003,
      "velocity": 95,
      "chip": "ym2612"
    },
    {
      "channel": 2,
      "note": 78,
      "start": 3.0221,
      "duration": 0.1948,
      "velocity": 127,
      "chip": "ym2612"
    },
    {
      "channel": 0,
      "note": 33,
      "start": 3.221,
      "duration": 0.1991,
      "velocity": 95,
      "chip": "ym2612"
    },
    {
      "channel": 4,
      "note": 85,
      "start": 3.2231,
      "duration": 0.1983,
      "velocity": 85,
      "chip": "ym2612"
    },
    {
      "channel": 2,
      "note": 30,
      "start": 3.2243,
      "duration": 0.1276,
      "velocity": 119,
      "chip": "ym2612"
    },
    {
      "channel": 0,
      "note": 33,
      "start": 3.4206,
      "duration": 0.1997,
      "velocity": 95,
      "chip": "ym2612"
    },
    {
      "channel": 4,
      "note": 84,
      "start": 3.4221,
      "duration": 1.4024,
      "velocity": 85,
      "chip": "ym2612"
    },
    {
      "channel": 2,
      "note": 78,
      "start": 3.4237,
      "duration": 0.1934,
      "velocity": 127,
      "chip": "ym2612"
    },
    {
      "channel": 0,
      "note": 33,
      "start": 3.6209,
      "duration": 0.1997,
      "velocity": 95,
      "chip": "ym2612"
    },
    {
      "channel": 2,
      "note": 30,
      "start": 3.6231,
      "duration": 0.1293,
      "velocity": 119,
      "chip": "ym2612"
    },
    {
      "channel": 0,
      "note": 33,
      "start": 3.8211,
      "duration": 0.1997,
      "velocity": 95,
      "chip": "ym2612"
    },
    {
      "channel": 2,
      "note": 78,
      "start": 3.8234,
      "duration": 0.1942,
      "velocity": 127,
      "chip": "ym2612"
    },
    {
      "channel": 0,
      "note": 33,
      "start": 4.0214,
      "duration": 0.1997,
      "velocity": 95,
      "chip": "ym2612"
    },
    {
      "channel": 2,
      "note": 30,
      "start": 4.0236,
      "duration": 0.1293,
      "velocity": 119,
      "chip": "ym2612"
    },
    {
      "channel": 0,
      "note": 33,
      "start": 4.2216,
      "duration": 0.1997,
      "velocity": 95,
      "chip": "ym2612"
    },
    {
      "channel": 2,
      "note": 78,
      "start": 4.2239,
      "duration": 0.1942,
      "velocity": 127,
      "chip": "ym2612"
    },
    {
      "channel": 0,
      "note": 33,
      "start": 4.4219,
      "duration": 0.1997,
      "velocity": 95,
      "chip": "ym2612"
    },
    {
      "channel": 2,
      "note": 30,
      "start": 4.4241,
      "duration": 0.1293,
      "velocity": 119,
      "chip": "ym2612"
    },
    {
      "channel": 0,
      "note": 33,
      "start": 4.6222,
      "duration": 0.2001,
      "velocity": 95,
      "chip": "ym2612"
    },
    {
      "channel": 2,
      "note": 78,
      "start": 4.6244,
      "duration": 0.1944,
      "velocity": 127,
      "chip": "ym2612"
    },
    {
      "channel": 0,
      "note": 33,
      "start": 4.8228,
      "duration": 0.3996,
      "velocity": 95,
      "chip": "ym2612"
    },
    {
      "channel": 1,
      "note": 67,
      "start": 4.8236,
      "duration": 0.3995,
      "velocity": 120,
      "chip": "ym2612"
    },
    {
      "channel": 3,
      "note": 70,
      "start": 4.8243,
      "duration": 0.3995,
      "velocity": 120,
      "chip": "ym2612"
    },
    {
      "channel": 4,
      "note": 84,
      "start": 4.8251,
      "duration": 0.3995,
      "velocity": 85,
      "chip": "ym2612"
    },
    {
      "channel": 2,
      "note": 78,
      "start": 4.8263,
      "duration": 0.2612,
      "velocity": 127,
      "chip": "ym2612"
    },
    {
      "channel": 5,
      "note": 67,
      "start": 5.0209,
      "duration": 0.3999,
      "velocity": 120,
      "chip": "ym2612"
    },
    {
      "channel": 0,
      "note": 33,
      "start": 5.2229,
      "duration": 0.4,
      "velocity": 95,
      "chip": "ym2612"
    },
    {
      "channel": 1,
      "note": 67,
      "start": 5.2237,
      "duration": 0.3999,
      "velocity": 120,
      "chip": "ym2612"
    },
    {
      "channel": 3,
      "note": 70,
      "start": 5.2244,
      "duration": 0.3999,
      "velocity": 120,
      "chip": "ym2612"
    },
    {
      "channel": 4,
      "note": 84,
      "start": 5.2252,
      "duration": 0.3999,
      "velocity": 85,
      "chip": "ym2612"
    },
    {
      "channel": 2,
      "note": 78,
      "start": 5.2264,
      "duration": 0.2616,
      "velocity": 127,
      "chip": "ym2612"
    },
    {
      "channel": 5,
      "note": 67,
      "start": 5.4214,
      "duration": 0.3999,
      "velocity": 120,
      "chip": "ym2612"
    },
    {
      "channel": 0,
      "note": 33,
      "start": 5.6234,
      "duration": 0.4,
      "velocity": 95,
      "chip": "ym2612"
    },
    {
      "channel": 1,
      "note": 67,
      "start": 5.6242,
      "duration": 0.3999,
      "velocity": 120,
      "chip": "ym2612"
    },
    {
      "channel": 3,
      "note": 70,
      "start": 5.6249,
      "duration": 0.3999,
      "velocity": 120,
      "chip": "ym2612"
    },
    {
      "channel": 4,
      "note": 84,
      "start": 5.6257,
      "duration": 0.3999,
      "velocity": 85,
      "chip": "ym2612"
    },
    {
      "channel": 2,
      "note": 78,
      "start": 5.6269,
      "duration": 0.2616,
      "velocity": 127,
      "chip": "ym2612"
    },
    {
      "channel": 5,
      "note": 67,
      "start": 5.822,
      "duration": 0.3999,
      "velocity": 120,
      "chip": "ym2612"
    },
    {
      "channel": 0,
      "note": 33,
      "start": 6.024,
      "duration": 0.4002,
      "velocity": 95,
      "chip": "ym2612"
    },
    {
      "channel": 1,
      "note": 67,
      "start": 6.0247,
      "duration": 0.4002,
      "velocity": 120,
      "chip": "ym2612"
    },
    {
      "channel": 3,
      "note": 70,
      "start": 6.0254,
      "duration": 0.3998,
      "velocity": 120,
      "chip": "ym2612"
    },
    {
      "channel": 4,
      "note": 84,
      "start": 6.0262,
      "duration": 0.3993,
      "velocity": 85,
      "chip": "ym2612"
    },
    {
      "channel": 2,
      "note": 78,
      "start": 6.0274,
      "duration": 0.2616,
      "velocity": 127,
      "chip": "ym2612"
    },
    {
      "channel": 5,
      "note": 67,
      "start": 6.2225,
      "duration": 0.4027,
      "velocity": 120,
      "chip": "ym2612"
    },
    {
      "channel": 0,
      "note": 33,
      "start": 6.4247,
      "duration": 0.1995,
      "velocity": 95,
      "chip": "ym2612"
    },
    {
      "channel": 2,
      "note": 30,
      "start": 6.4269,
      "duration": 0.0939,
      "velocity": 119,
      "chip": "ym2612"
    },
    {
      "channel": 2,
      "note": 30,
      "start": 6.5257,
      "duration": 0.0953,
      "velocity": 119,
      "chip": "ym2612"
    },
    {
      "channel": 0,
      "note": 33,
      "start": 6.6247,
      "duration": 0.1997,
      "velocity": 95,
      "chip": "ym2612"
    },
    {
      "channel": 2,
      "note": 78,
      "start": 6.6262,
      "duration": 0.0949,
      "velocity": 127,
      "chip": "ym2612"
    },
    {
      "channel": 2,
      "note": 30,
      "start": 6.7256,
      "duration": 0.0956,
      "velocity": 119,
      "chip": "ym2612"
    },
    {
      "channel": 0,
      "note": 33,
      "start": 6.825,
      "duration": 0.1997,
      "velocity": 95,
      "chip": "ym2612"
    },
    {
      "channel": 1,
      "note": 76,
      "start": 6.8257,
      "duration": 0.1997,
      "velocity": 120,
      "chip": "ym2612"
    },
    {
      "channel": 2,
      "note": 30,
      "start": 6.8268,
      "duration": 0.1289,
      "velocity": 119,
      "chip": "ym2612"
    },
    {
      "channel": 0,
      "note": 33,
      "start": 7.0253,
      "duration": 0.1997,
      "velocity": 95,
      "chip": "ym2612"
    },
    {
      "channel": 1,
      "note": 75,
      "start": 7.026,
      "duration": 0.1997,
      "velocity": 120,
      "chip": "ym2612"
    },
    {
      "channel": 5,
      "note": 76,
      "start": 7.0269,
      "duration": 0.1992,
      "velocity": 120,
      "chip": "ym2612"
    },
    {
      "channel": 2,
      "note": 78,
      "start": 7.0278,
      "duration": 0.1939,
      "velocity": 127,
      "chip": "ym2612"
    },
    {
      "channel": 0,
      "note": 33,
      "start": 7.2255,
      "duration": 0.1997,
      "velocity": 95,
      "chip": "ym2612"
    },
    {
      "channel": 5,
      "note": 75,
      "start": 7.2267,
      "duration": 0.2001,
      "velocity": 120,
      "chip": "ym2612"
    },
    {
      "channel": 2,
      "note": 30,
      "start": 7.2276,
      "duration": 0.0943,
      "velocity": 119,
      "chip": "ym2612"
    },
    {
      "channel": 2,
      "note": 30,
      "start": 7.3267,
      "duration": 0.0953,
      "velocity": 119,
      "chip": "ym2612"
    },
    {
      "channel": 0,
      "note": 33,
      "start": 7.4258,
      "duration": 0.1997,
      "velocity": 95,
      "chip": "ym2612"
    },
    {
      "channel": 1,
      "note": 71,
      "start": 7.4265,
      "duration": 0.1997,
      "velocity": 120,
      "chip": "ym2612"
    },
    {
      "channel": 2,
      "note": 78,
      "start": 7.4279,
      "duration": 0.0943,
      "velocity": 127,
      "chip": "ym2612"
    },
    {
      "channel": 2,
      "note": 30,
      "start": 7.5269,
      "duration": 0.0953,
      "velocity": 119,
      "chip": "ym2612"
    },
    {
      "channel": 0,
      "note": 33,
      "start": 7.626,
      "duration": 0.1997,
      "velocity": 95,
      "chip": "ym2612"
    },
    {
      "channel": 5,
      "note": 71,
      "start": 7.6273,
      "duration": 0.2001,
      "velocity": 120,
      "chip": "ym2612"
    },
    {
      "channel": 2,
      "note": 30,
      "start": 7.6281,
      "duration": 0.1287,
      "velocity": 119,
      "chip": "ym2612"
    },
    {
      "channel": 0,
      "note": 33,
      "start": 7.8263,
      "duration": 0.2002,
      "velocity": 95,
      "chip": "ym2612"
    },
    {
      "channel": 1,
      "note": 74,
      "start": 7.827,
      "duration": 0.2002,
      "velocity": 120,
      "chip": "ym2612"
    },
    {
      "channel": 2,
      "note": 78,
      "start": 7.8284,
      "duration": 0.1946,
      "velocity": 127,
      "chip": "ym2612"
    },
    {
      "channel": 0,
      "note": 33,
      "start": 8.0271,
      "duration": 0.1992,
      "velocity": 95,
      "chip": "ym2612"
    },
    {
      "channel": 5,
      "note": 74,
      "start": 8.0288,
      "duration": 0.1984,
      "velocity": 120,
      "chip": "ym2612"
    },
    {
      "channel": 2,
      "note": 30,
      "start": 8.0296,
      "duration": 0.1277,
      "velocity": 119,
      "chip": "ym2612"
    },
    {
      "channel": 0,
      "note": 33,
      "start": 8.2268,
      "duration": 0.1997,
      "velocity": 95,
      "chip": "ym2612"
    },
    {
      "channel": 2,
      "note": 78,
      "start": 8.2283,
      "duration": 0.195,
      "velocity": 127,
      "chip": "ym2612"
    },
    {
      "channel": 0,
      "note": 33,
      "start": 8.4271,
      "duration": 0.1997,
      "velocity": 95,
      "chip": "ym2612"
    },
    {
      "channel": 1,
      "note": 68,
      "start": 8.4278,
      "duration": 0.1997,
      "velocity": 120,
      "chip": "ym2612"
    },
    {
      "channel": 2,
      "note": 30,
      "start": 8.4289,
      "duration": 0.1289,
      "velocity": 119,
      "chip": "ym2612"
    },
    {
      "channel": 0,
      "note": 33,
      "start": 8.6273,
      "duration": 0.1997,
      "velocity": 95,
      "chip": "ym2612"
    },
    {
      "channel": 1,
      "note": 69,
      "start": 8.628,
      "duration": 0.1997,
      "velocity": 120,
      "chip": "ym2612"
    },
    {
      "channel": 5,
      "note": 68,
      "start": 8.629,
      "duration": 0.1992,
      "velocity": 120,
      "chip": "ym2612"
    },
    {
      "channel": 2,
      "note": 78,
      "start": 8.6298,
      "duration": 0.194,
      "velocity": 127,
      "chip": "ym2612"
    },
    {
      "channel": 0,
      "note": 33,
      "start": 8.8276,
      "duration": 0.1997,
      "velocity": 95,
      "chip": "ym2612"
    },
    {
      "channel": 5,
      "note": 69,
      "start": 8.8288,
      "duration": 0.1994,
      "velocity": 120,
      "chip": "ym2612"
    },
    {
      "channel": 2,
      "note": 30,
      "start": 8.8296,
      "duration": 0.1287,
      "velocity": 119,
      "chip": "ym2612"
    },
    {
      "channel": 0,
      "note": 33,
      "start": 9.0278,
      "duration": 0.1997,
      "velocity": 95,
      "chip": "ym2612"
    },
    {
      "channel": 2,
      "note": 78,
      "start": 9.0293,
      "duration": 0.1951,
      "velocity": 127,
      "chip": "ym2612"
    },
    {
      "channel": 0,
      "note": 33,
      "start": 9.2281,
      "duration": 0.1997,
      "velocity": 95,
      "chip": "ym2612"
    },
    {
      "channel": 4,
      "note": 68,
      "start": 9.229,
      "duration": 0.0966,
      "velocity": 85,
      "chip": "ym2612"
    },
    {
      "channel": 2,
      "note": 30,
      "start": 9.2299,
      "duration": 0.129,
      "velocity": 119,
      "chip": "ym2612"
    },
    {
      "channel": 4,
      "note": 69,
      "start": 9.3262,
      "duration": 0.1025,
      "velocity": 85,
      "chip": "ym2612"
    },
    {
      "channel": 0,
      "note": 33,
      "start": 9.4283,
      "duration": 0.2003,
      "velocity": 95,
      "chip": "ym2612"
    },
    {
      "channel": 4,
      "note": 68,
      "start": 9.4293,
      "duration": 0.0966,
      "velocity": 85,
      "chip": "ym2612"
    },
    {
      "channel": 2,
      "note": 78,
      "start": 9.4302,
      "duration": 0.1949,
      "velocity": 127,
      "chip": "ym2612"
    },
    {
      "channel": 4,
      "note": 69,
      "start": 9.5264,
      "duration": 1.7056,
      "velocity": 85,
      "chip": "ym2612"
    },
    {
      "channel": 0,
      "note": 33,
      "start": 9.6292,
      "duration": 0.1991,
      "velocity": 95,
      "chip": "ym2612"
    },
    {
      "channel": 2,
      "note": 30,
      "start": 9.6315,
      "duration": 0.0935,
      "velocity": 119,
      "chip": "ym2612"
    },
    {
      "channel": 2,
      "note": 30,
      "start": 9.7298,
      "duration": 0.0953,
      "velocity": 119,
      "chip": "ym2612"
    },
    {
      "channel": 0,
      "note": 33,
      "start": 9.8289,
      "duration": 0.1997,
      "velocity": 95,
      "chip": "ym2612"
    },
    {
      "channel": 2,
      "note": 78,
      "start": 9.8306,
      "duration": 0.0946,
      "velocity": 127,
      "chip": "ym2612"
    },
    {
      "channel": 2,
      "note": 30,
      "start": 9.93,
      "duration": 0.0953,
      "velocity": 119,
      "chip": "ym2612"
    },
    {
      "channel": 0,
      "note": 33,
      "start": 10.0291,
      "duration": 0.1997,
      "velocity": 95,
      "chip": "ym2612"
    },
    {
      "channel": 1,
      "note": 76,
      "start": 10.0299,
      "duration": 0.1997,
      "velocity": 120,
      "chip": "ym2612"
    },
    {
      "channel": 2,
      "note": 30,
      "start": 10.0312,
      "duration": 0.1289,
      "velocity": 119,
      "chip": "ym2612"
    },
    {
      "channel": 0,
      "note": 33,
      "start": 10.2294,
      "duration": 0.1997,
      "velocity": 95,
      "chip": "ym2612"
    },
    {
      "channel": 1,
      "note": 75,
      "start": 10.2301,
      "duration": 0.1997,
      "velocity": 120,
      "chip": "ym2612"
    },
    {
      "channel": 5,
      "note": 76,
      "start": 10.2313,
      "duration": 0.1992,
      "velocity": 120,
      "chip": "ym2612"
    },
    {
      "channel": 2,
      "note": 78,
      "start": 10.2322,
      "duration": 0.1937,
      "velocity": 127,
      "chip": "ym2612"
    },
    {
      "channel": 0,
      "note": 33,
      "start": 10.4296,
      "duration": 0.1997,
      "velocity": 95,
      "chip": "ym2612"
    },
    {
      "channel": 5,
      "note": 75,
      "start": 10.4311,
      "duration": 0.2001,
      "velocity": 120,
      "chip": "ym2612"
    },
    {
      "channel": 2,
      "note": 30,
      "start": 10.432,
      "duration": 0.094,
      "velocity": 119,
      "chip": "ym2612"
    },
    {
      "channel": 2,
      "note": 30,
      "start": 10.5311,
      "duration": 0.095,
      "velocity": 119,
      "chip": "ym2612"
    },
    {
      "channel": 0,
      "note": 33,
      "start": 10.6299,
      "duration": 0.1997,
      "velocity": 95,
      "chip": "ym2612"
    },
    {
      "channel": 1,
      "note": 71,
      "start": 10.6306,
      "duration": 0.1997,
      "velocity": 120,
      "chip": "ym2612"
    },
    {
      "channel": 2,
      "note": 78,
      "start": 10.6323,
      "duration": 0.094,
      "velocity": 127,
      "chip": "ym2612"
    },
    {
      "channel": 2,
      "note": 30,
      "start": 10.7313,
      "duration": 0.0951,
      "velocity": 119,
      "chip": "ym2612"
    },
    {
      "channel": 0,
      "note": 33,
      "start": 10.8301,
      "duration": 0.1997,
      "velocity": 95,
      "chip": "ym2612"
    },
    {
      "channel": 5,
      "note": 71,
      "start": 10.8316,
      "duration": 0.2001,
      "velocity": 120,
      "chip": "ym2612"
    },
    {
      "channel": 2,
      "note": 30,
      "start": 10.8325,
      "duration": 0.1287,
      "velocity": 119,
      "chip": "ym2612"
    },
    {
      "channel": 0,
      "note": 33,
      "start": 11.0304,
      "duration": 0.2002,
      "velocity": 95,
      "chip": "ym2612"
    },
    {
      "channel": 1,
      "note": 74,
      "start": 11.0312,
      "duration": 0.2002,
      "velocity": 120,
      "chip": "ym2612"
    },
    {
      "channel": 2,
      "note": 78,
      "start": 11.0328,
      "duration": 0.1944,
      "velocity": 127,
      "chip": "ym2612"
    },
    {
      "channel": 0,
      "note": 33,
      "start": 11.2312,
      "duration": 0.1992,
      "velocity": 95,
      "chip": "ym2612"
    },
    {
      "channel": 5,
      "note": 74,
      "start": 11.2329,
      "duration": 0.1984,
      "velocity": 120,
      "chip": "ym2612"
    },
    {
      "channel": 2,
      "note": 30,
      "start": 11.2337,
      "duration": 0.1277,
      "velocity": 119,
      "chip": "ym2612"
    },
    {
      "channel": 0,
      "note": 33,
      "start": 11.4309,
      "duration": 0.1997,
      "velocity": 95,
      "chip": "ym2612"
    },
    {
      "channel": 2,
      "note": 78,
      "start": 11.4324,
      "duration": 0.195,
      "velocity": 127,
      "chip": "ym2612"
    },
    {
      "channel": 0,
      "note": 33,
      "start": 11.6312,
      "duration": 0.1997,
      "velocity": 95,
      "chip": "ym2612"
    },
    {
      "channel": 1,
      "note": 68,
      "start": 11.6319,
      "duration": 0.1997,
      "velocity": 120,
      "chip": "ym2612"
    },
    {
      "channel": 2,
      "note": 30,
      "start": 11.633,
      "duration": 0.1289,
      "velocity": 119,
      "chip": "ym2612"
    },
    {
      "channel": 0,
      "note": 33,
      "start": 11.8315,
      "duration": 0.1997,
      "velocity": 95,
      "chip": "ym2612"
    },
    {
      "channel": 1,
      "note": 69,
      "start": 11.8322,
      "duration": 0.1997,
      "velocity": 120,
      "chip": "ym2612"
    },
    {
      "channel": 5,
      "note": 68,
      "start": 11.8331,
      "duration": 0.1992,
      "velocity": 120,
      "chip": "ym2612"
    },
    {
      "channel": 2,
      "note": 78,
      "start": 11.834,
      "duration": 0.194,
      "velocity": 127,
      "chip": "ym2612"
    },
    {
      "channel": 0,
      "note": 33,
      "start": 12.0317,
      "duration": 0.1997,
      "velocity": 95,
      "chip": "ym2612"
    },
    {
      "channel": 5,
      "note": 69,
      "start": 12.0329,
      "duration": 0.1994,
      "velocity": 120,
      "chip": "ym2612"
    },
    {
      "channel": 2,
      "note": 30,
      "start": 12.0338,
      "duration": 0.1287,
      "velocity": 119,
      "chip": "ym2612"
    },
    {
      "channel": 0,
      "note": 33,
      "start": 12.232,
      "duration": 0.1997,
      "velocity": 95,
      "chip": "ym2612"
    },
    {
      "channel": 2,
      "note": 78,
      "start": 12.2334,
      "duration": 0.1951,
      "velocity": 127,
      "chip": "ym2612"
    },
    {
      "channel": 0,
      "note": 33,
      "start": 12.4322,
      "duration": 0.1997,
      "velocity": 95,
      "chip": "ym2612"
    },
    {
      "channel": 4,
      "note": 71,
      "start": 12.4331,
      "duration": 0.0966,
      "velocity": 85,
      "chip": "ym2612"
    },
    {
      "channel": 2,
      "note": 30,
      "start": 12.4341,
      "duration": 0.1289,
      "velocity": 119,
      "chip": "ym2612"
    },
    {
      "channel": 4,
      "note": 72,
      "start": 12.5303,
      "duration": 0.1025,
      "velocity": 85,
      "chip": "ym2612"
    },
    {
      "channel": 0,
      "note": 33,
      "start": 12.6325,
      "duration": 0.2003,
      "velocity": 95,
      "chip": "ym2612"
    },
    {
      "channel": 4,
      "note": 71,
      "start": 12.6334,
      "duration": 0.0966,
      "velocity": 85,
      "chip": "ym2612"
    },
    {
      "channel": 2,
      "note": 78,
      "start": 12.6344,
      "duration": 0.1949,
      "velocity": 127,
      "chip": "ym2612"
    },
    {
      "channel": 4,
      "note": 72,
      "start": 12.7305,
      "duration": 1.7064,
      "velocity": 85,
      "chip": "ym2612"
    },
    {
      "channel": 0,
      "note": 33,
      "start": 12.8334,
      "duration": 0.1991,
      "velocity": 95,
      "chip": "ym2612"
    },
    {
      "channel": 2,
      "note": 30,
      "start": 12.8356,
      "duration": 0.0935,
      "velocity": 119,
      "chip": "ym2612"
    },
    {
      "channel": 2,
      "note": 30,
      "start": 12.9339,
      "duration": 0.0953,
      "velocity": 119,
      "chip": "ym2612"
    },
    {
      "channel": 0,
      "note": 33,
      "start": 13.033,
      "duration": 0.1997,
      "velocity": 95,
      "chip": "ym2612"
    },
    {
      "channel": 2,
      "note": 78,
      "start": 13.0347,
      "duration": 0.0946,
      "velocity": 127,
      "chip": "ym2612"
    },
    {
      "channel": 2,
      "note": 30,
      "start": 13.1342,
      "duration": 0.0953,
      "velocity": 119,
      "chip": "ym2612"
    },
    {
      "channel": 0,
      "note": 33,
      "start": 13.2332,
      "duration": 0.1997,
      "velocity": 95,
      "chip": "ym2612"
    },
    {
      "channel": 1,
      "note": 76,
      "start": 13.234,
      "duration": 0.1997,
      "velocity": 120,
      "chip": "ym2612"
    },
    {
      "channel": 3,
      "note": 59,
      "start": 13.2347,
      "duration": 0.1992,
      "velocity": 120,
      "chip": "ym2612"
    },
    {
      "channel": 2,
      "note": 30,
      "start": 13.236,
      "duration": 0.1285,
      "velocity": 119,
      "chip": "ym2612"
    },
    {
      "channel": 0,
      "note": 33,
      "start": 13.4335,
      "duration": 0.1997,
      "velocity": 95,
      "chip": "ym2612"
    },
    {
      "channel": 5,
      "note": 76,
      "start": 13.4352,
      "duration": 0.2005,
      "velocity": 120,
      "chip": "ym2612"
    },
    {
      "channel": 2,
      "note": 78,
      "start": 13.4361,
      "duration": 0.1939,
      "velocity": 127,
      "chip": "ym2612"
    },
    {
      "channel": 0,
      "note": 33,
      "start": 13.6338,
      "duration": 0.1997,
      "velocity": 95,
      "chip": "ym2612"
    },
    {
      "channel": 1,
      "note": 77,
      "start": 13.6345,
      "duration": 0.801,
      "velocity": 120,
      "chip": "ym2612"
    },
    {
      "channel": 3,
      "note": 60,
      "start": 13.6353,
      "duration": 0.801,
      "velocity": 120,
      "chip": "ym2612"
    },
    {
      "channel": 2,
      "note": 30,
      "start": 13.6368,
      "duration": 0.0934,
      "velocity": 119,
      "chip": "ym2612"
    },
    {
      "channel": 2,
      "note": 30,
      "start": 13.7355,
      "duration": 0.0948,
      "velocity": 119,
      "chip": "ym2612"
    },
    {
      "channel": 0,
      "note": 33,
      "start": 13.834,
      "duration": 0.1997,
      "velocity": 95,
      "chip": "ym2612"
    },
    {
      "channel": 5,
      "note": 77,
      "start": 13.8358,
      "duration": 0.8002,
      "velocity": 120,
      "chip": "ym2612"
    },
    {
      "channel": 2,
      "note": 78,
      "start": 13.8367,
      "duration": 0.0937,
      "velocity": 127,
      "chip": "ym2612"
    },
    {
      "channel": 2,
      "note": 30,
      "start": 13.936,
      "duration": 0.0945,
      "velocity": 119,
      "chip": "ym2612"
    },
    {
      "channel": 0,
      "note": 33,
      "start": 14.0343,
      "duration": 0.1997,
      "velocity": 95,
      "chip": "ym2612"
    },
    {
      "channel": 2,
      "note": 30,
      "start": 14.0365,
      "duration": 0.1293,
      "velocity": 119,
      "chip": "ym2612"
    },
    {
      "channel": 0,
      "note": 33,
      "start": 14.2345,
      "duration": 0.2002,
      "velocity": 95,
      "chip": "ym2612"
    },
    {
      "channel": 2,
      "note": 78,
      "start": 14.2368,
      "duration": 0.1944,
      "velocity": 127,
      "chip": "ym2612"
    },
    {
      "channel": 0,
      "note": 33,
      "start": 14.4353,
      "duration": 0.1992,
      "velocity": 95,
      "chip": "ym2612"
    },
    {
      "channel": 1,
      "note": 74,
      "start": 14.4361,
      "duration": 0.5997,
      "velocity": 120,
      "chip": "ym2612"
    },
    {
      "channel": 3,
      "note": 57,
      "start": 14.4368,
      "duration": 0.5996,
      "velocity": 120,
      "chip": "ym2612"
    },
    {
      "channel": 2,
      "note": 30,
      "start": 14.4383,
      "duration": 0.1278,
      "velocity": 119,
      "chip": "ym2612"
    },
    {
      "channel": 0,
      "note": 33,
      "start": 14.6351,
      "duration": 0.1997,
      "velocity": 95,
      "chip": "ym2612"
    },
    {
      "channel": 5,
      "note": 74,
      "start": 14.6366,
      "duration": 0.6002,
      "velocity": 120,
      "chip": "ym2612"
    },
    {
      "channel": 2,
      "note": 78,
      "start": 14.6375,
      "duration": 0.1941,
      "velocity": 127,
      "chip": "ym2612"
    },
    {
      "channel": 0,
      "note": 33,
      "start": 14.8353,
      "duration": 0.1997,
      "velocity": 95,
      "chip": "ym2612"
    },
    {
      "channel": 2,
      "note": 30,
      "start": 14.8373,
      "duration": 0.1293,
      "velocity": 119,
      "chip": "ym2612"
    },
    {
      "channel": 0,
      "note": 33,
      "start": 15.0356,
      "duration": 0.1997,
      "velocity": 95,
      "chip": "ym2612"
    },
    {
      "channel": 1,
      "note": 76,
      "start": 15.0363,
      "duration": 1.0013,
      "velocity": 120,
      "chip": "ym2612"
    },
    {
      "channel": 3,
      "note": 58,
      "start": 15.0371,
      "duration": 1.0009,
      "velocity": 120,
      "chip": "ym2612"
    },
    {
      "channel": 2,
      "note": 78,
      "start": 15.0384,
      "duration": 0.1937,
      "velocity": 127,
      "chip": "ym2612"
    },
    {
      "channel": 0,
      "note": 33,
      "start": 15.2358,
      "duration": 0.1997,
      "velocity": 95,
      "chip": "ym2612"
    },
    {
      "channel": 5,
      "note": 76,
      "start": 15.2373,
      "duration": 1.0004,
      "velocity": 120,
      "chip": "ym2612"
    },
    {
      "channel": 2,
      "note": 30,
      "start": 15.2382,
      "duration": 0.1289,
      "velocity": 119,
      "chip": "ym2612"
    },
    {
      "channel": 0,
      "note": 33,
      "start": 15.4361,
      "duration": 0.1997,
      "velocity": 95,
      "chip": "ym2612"
    },
    {
      "channel": 2,
      "note": 78,
      "start": 15.4381,
      "duration": 0.1945,
      "velocity": 127,
      "chip": "ym2612"
    },
    {
      "channel": 0,
      "note": 33,
      "start": 15.6363,
      "duration": 0.1997,
      "velocity": 95,
      "chip": "ym2612"
    },
    {
      "channel": 4,
      "note": 68,
      "start": 15.6378,
      "duration": 0.0966,
      "velocity": 85,
      "chip": "ym2612"
    },
    {
      "channel": 2,
      "note": 30,
      "start": 15.639,
      "duration": 0.129,
      "velocity": 119,
      "chip": "ym2612"
    },
    {
      "channel": 4,
      "note": 69,
      "start": 15.7349,
      "duration": 0.1025,
      "velocity": 85,
      "chip": "ym2612"
    },
    {
      "channel": 0,
      "note": 33,
      "start": 15.8366,
      "duration": 0.2003,
      "velocity": 95,
      "chip": "ym2612"
    },
    {
      "channel": 4,
      "note": 68,
      "start": 15.838,
      "duration": 0.0966,
      "velocity": 85,
      "chip": "ym2612"
    },
    {
      "channel": 2,
      "note": 78,
      "start": 15.8393,
      "duration": 0.1941,
      "velocity": 127,
      "chip": "ym2612"
    },
    {
      "channel": 4,
      "note": 69,
      "start": 15.9352,
      "duration": 1.7059,
      "velocity": 85,
      "chip": "ym2612"
    },
    {
      "channel": 0,
      "note": 33,
      "start": 16.0375,
      "duration": 0.1991,
      "velocity": 95,
      "chip": "ym2612"
    },
    {
      "channel": 2,
      "note": 30,
      "start": 16.04,
      "duration": 0.0932,
      "velocity": 119,
      "chip": "ym2612"
    },
    {
      "channel": 2,
      "note": 30,
      "start": 16.1383,
      "duration": 0.0951,
      "velocity": 119,
      "chip": "ym2612"
    },
    {
      "channel": 0,
      "note": 33,
      "start": 16.2371,
      "duration": 0.1997,
      "velocity": 95,
      "chip": "ym2612"
    },
    {
      "channel": 2,
      "note": 78,
      "start": 16.2388,
      "duration": 0.0947,
      "velocity": 127,
      "chip": "ym2612"
    },
    {
      "channel": 2,
      "note": 30,
      "start": 16.3383,
      "duration": 0.0953,
      "velocity": 119,
      "chip": "ym2612"
    },
    {
      "channel": 0,
      "note": 33,
      "start": 16.4374,
      "duration": 0.1997,
      "velocity": 95,
      "chip": "ym2612"
    },
    {
      "channel": 1,
      "note": 76,
      "start": 16.4381,
      "duration": 0.1997,
      "velocity": 120,
      "chip": "ym2612"
    },
    {
      "channel": 3,
      "note": 59,
      "start": 16.4389,
      "duration": 0.1992,
      "velocity": 120,
      "chip": "ym2612"
    },
    {
      "channel": 2,
      "note": 30,
      "start": 16.4401,
      "duration": 0.1285,
      "velocity": 119,
      "chip": "ym2612"
    },
    {
      "channel": 0,
      "note": 33,
      "start": 16.6376,
      "duration": 0.1997,
      "velocity": 95,
      "chip": "ym2612"
    },
    {
      "channel": 5,
      "note": 76,
      "start": 16.6394,
      "duration": 0.2005,
      "velocity": 120,
      "chip": "ym2612"
    },
    {
      "channel": 2,
      "note": 78,
      "start": 16.6402,
      "duration": 0.1939,
      "velocity": 127,
      "chip": "ym2612"
    },
    {
      "channel": 0,
      "note": 33,
      "start": 16.8379,
      "duration": 0.1997,
      "velocity": 95,
      "chip": "ym2612"
    },
    {
      "channel": 1,
      "note": 77,
      "start": 16.8386,
      "duration": 0.801,
      "velocity": 120,
      "chip": "ym2612"
    },
    {
      "channel": 3,
      "note": 60,
      "start": 16.8394,
      "duration": 0.8009,
      "velocity": 120,
      "chip": "ym2612"
    },
    {
      "channel": 2,
      "note": 30,
      "start": 16.8409,
      "duration": 0.0934,
      "velocity": 119,
      "chip": "ym2612"
    },
    {
      "channel": 2,
      "note": 30,
      "start": 16.9396,
      "duration": 0.0948,
      "velocity": 119,
      "chip": "ym2612"
    },
    {
      "channel": 0,
      "note": 33,
      "start": 17.0381,
      "duration": 0.1997,
      "velocity": 95,
      "chip": "ym2612"
    },
    {
      "channel": 5,
      "note": 77,
      "start": 17.04,
      "duration": 0.8004,
      "velocity": 120,
      "chip": "ym2612"
    },
    {
      "channel": 2,
      "note": 78,
      "start": 17.0408,
      "duration": 0.0937,
      "velocity": 127,
      "chip": "ym2612"
    },
    {
      "channel": 2,
      "note": 30,
      "start": 17.1401,
      "duration": 0.0945,
      "velocity": 119,
      "chip": "ym2612"
    },
    {
      "channel": 0,
      "note": 33,
      "start": 17.2384,
      "duration": 0.1997,
      "velocity": 95,
      "chip": "ym2612"
    },
    {
      "channel": 2,
      "note": 30,
      "start": 17.2406,
      "duration": 0.1293,
      "velocity": 119,
      "chip": "ym2612"
    },
    {
      "channel": 0,
      "note": 33,
      "start": 17.4387,
      "duration": 0.2002,
      "velocity": 95,
      "chip": "ym2612"
    },
    {
      "channel": 2,
      "note": 78,
      "start": 17.4409,
      "duration": 0.1944,
      "velocity": 127,
      "chip": "ym2612"
    },
    {
      "channel": 0,
      "note": 33,
      "start": 17.6394,
      "duration": 0.1992,
      "velocity": 95,
      "chip": "ym2612"
    },
    {
      "channel": 1,
      "note": 68,
      "start": 17.6402,
      "duration": 0.5997,
      "velocity": 120,
      "chip": "ym2612"
    },
    {
      "channel": 3,
      "note": 63,
      "start": 17.6409,
      "duration": 0.5997,
      "velocity": 120,
      "chip": "ym2612"
    },
    {
      "channel": 4,
      "note": 72,
      "start": 17.6417,
      "duration": 0.5997,
      "velocity": 85,
      "chip": "ym2612"
    },
    {
      "channel": 2,
      "note": 30,
      "start": 17.6429,
      "duration": 0.1276,
      "velocity": 119,
      "chip": "ym2612"
    },
    {
      "channel": 0,
      "note": 33,
      "start": 17.8392,
      "duration": 0.1997,
      "velocity": 95,
      "chip": "ym2612"
    },
    {
      "channel": 5,
      "note": 68,
      "start": 17.841,
      "duration": 0.6006,
      "velocity": 120,
      "chip": "ym2612"
    },
    {
      "channel": 2,
      "note": 78,
      "start": 17.8418,
      "duration": 0.1938,
      "velocity": 127,
      "chip": "ym2612"
    },
    {
      "channel": 0,
      "note": 33,
      "start": 18.0394,
      "duration": 0.1997,
      "velocity": 95,
      "chip": "ym2612"
    },
    {
      "channel": 2,
      "note": 30,
      "start": 18.0417,
      "duration": 0.1293,
      "velocity": 119,
      "chip": "ym2612"
    },
    {
      "channel": 0,
      "note": 33,
      "start": 18.2397,
      "duration": 0.1997,
      "velocity": 95,
      "chip": "ym2612"
    },
    {
      "channel": 1,
      "note": 69,
      "start": 18.2405,
      "duration": 1.0008,
      "velocity": 120,
      "chip": "ym2612"
    },
    {
      "channel": 3,
      "note": 64,
      "start": 18.2412,
      "duration": 1.0003,
      "velocity": 120,
      "chip": "ym2612"
    },
    {
      "channel": 4,
      "note": 77,
      "start": 18.242,
      "duration": 0.1988,
      "velocity": 85,
      "chip": "ym2612"
    },
    {
      "channel": 2,
      "note": 78,
      "start": 18.2432,
      "duration": 0.193,
      "velocity": 127,
      "chip": "ym2612"
    },
    {
      "channel": 0,
      "note": 33,
      "start": 18.4399,
      "duration": 0.1997,
      "velocity": 95,
      "chip": "ym2612"
    },
    {
      "channel": 4,
      "note": 77,
      "start": 18.4414,
      "duration": 0.8005,
      "velocity": 85,
      "chip": "ym2612"
    },
    {
      "channel": 5,
      "note": 69,
      "start": 18.4422,
      "duration": 0.9989,
      "velocity": 120,
      "chip": "ym2612"
    },
    {
      "channel": 2,
      "note": 30,
      "start": 18.443,
      "duration": 0.1285,
      "velocity": 119,
      "chip": "ym2612"
    },
    {
      "channel": 0,
      "note": 33,
      "start": 18.6402,
      "duration": 0.1997,
      "velocity": 95,
      "chip": "ym2612"
    },
    {
      "channel": 2,
      "note": 78,
      "start": 18.6425,
      "duration": 0.1942,
      "velocity": 127,
      "chip": "ym2612"
    },
    {
      "channel": 0,
      "note": 33,
      "start": 18.8405,
      "duration": 0.1997,
      "velocity": 95,
      "chip": "ym2612"
    },
    {
      "channel": 2,
      "note": 30,
      "start": 18.8427,
      "duration": 0.1293,
      "velocity": 119,
      "chip": "ym2612"
    },
    {
      "channel": 0,
      "note": 33,
      "start": 19.0407,
      "duration": 0.2002,
      "velocity": 95,
      "chip": "ym2612"
    },
    {
      "channel": 2,
      "note": 78,
      "start": 19.043,
      "duration": 0.1944,
      "velocity": 127,
      "chip": "ym2612"
    },
    {
      "channel": 2,
      "note": 30,
      "start": 19.2432,
      "duration": 0.1283,
      "velocity": 119,
      "chip": "ym2612"
    },
    {
      "channel": 0,
      "note": 33,
      "start": 19.4386,
      "duration": 0.2023,
      "velocity": 95,
      "chip": "ym2612"
    },
    {
      "channel": 1,
      "note": 69,
      "start": 19.4394,
      "duration": 0.2022,
      "velocity": 120,
      "chip": "ym2612"
    },
    {
      "channel": 3,
      "note": 57,
      "start": 19.4401,
      "duration": 0.2023,
      "velocity": 120,
      "chip": "ym2612"
    },
    {
      "channel": 4,
      "note": 69,
      "start": 19.4409,
      "duration": 0.2023,
      "velocity": 85,
      "chip": "ym2612"
    },
    {
      "channel": 0,
      "note": 34,
      "start": 19.6415,
      "duration": 0.1971,
      "velocity": 95,
      "chip": "ym2612"
    },
    {
      "channel": 1,
      "note": 70,
      "start": 19.6422,
      "duration": 0.1971,
      "velocity": 120,
      "chip": "ym2612"
    },
    {
      "channel": 3,
      "note": 58,
      "start": 19.643,
      "duration": 0.1971,
      "velocity": 120,
      "chip": "ym2612"
    },
    {
      "channel": 4,
      "note": 70,
      "start": 19.6437,
      "duration": 0.1971,
      "velocity": 85,
      "chip": "ym2612"
    },
    {
      "channel": 5,
      "note": 69,
      "start": 19.6445,
      "duration": 0.1971,
      "velocity": 120,
      "chip": "ym2612"
    },
    {
      "channel": 2,
      "note": 30,
      "start": 19.6453,
      "duration": 0.1278,
      "velocity": 119,
      "chip": "ym2612"
    },
    {
      "channel": 0,
      "note": 35,
      "start": 19.8392,
      "duration": 0.2023,
      "velocity": 95,
      "chip": "ym2612"
    },
    {
      "channel": 1,
      "note": 71,
      "start": 19.8399,
      "duration": 0.2023,
      "velocity": 120,
      "chip": "ym2612"
    },
    {
      "channel": 3,
      "note": 59,
      "start": 19.8406,
      "duration": 0.2023,
      "velocity": 120,
      "chip": "ym2612"
    },
    {
      "channel": 4,
      "note": 71,
      "start": 19.8414,
      "duration": 0.2022,
      "velocity": 85,
      "chip": "ym2612"
    },
    {
      "channel": 5,
      "note": 70,
      "start": 19.8421,
      "duration": 0.2022,
      "velocity": 120,
      "chip": "ym2612"
    },
    {
      "channel": 0,
      "note": 36,
      "start": 20.042,
      "duration": 0.1971,
      "velocity": 95,
      "chip": "ym2612"
    },
    {
      "channel": 1,
      "note": 72,
      "start": 20.0427,
      "duration": 0.1971,
      "velocity": 120,
      "chip": "ym2612"
    },
    {
      "channel": 3,
      "note": 60,
      "start": 20.0435,
      "duration": 0.1971,
      "velocity": 120,
      "chip": "ym2612"
    },
    {
      "channel": 4,
      "note": 72,
      "start": 20.0442,
      "duration": 0.1971,
      "velocity": 85,
      "chip": "ym2612"
    },
    {
      "channel": 5,
      "note": 71,
      "start": 20.045,
      "duration": 0.1971,
      "velocity": 120,
      "chip": "ym2612"
    },
    {
      "channel": 2,
      "note": 30,
      "start": 20.0458,
      "duration": 0.1278,
      "velocity": 119,
      "chip": "ym2612"
    },
    {
      "channel": 0,
      "note": 37,
      "start": 20.2397,
      "duration": 0.2023,
      "velocity": 95,
      "chip": "ym2612"
    },
    {
      "channel": 1,
      "note": 73,
      "start": 20.2404,
      "duration": 0.2019,
      "velocity": 120,
      "chip": "ym2612"
    },
    {
      "channel": 3,
      "note": 61,
      "start": 20.2412,
      "duration": 0.2014,
      "velocity": 120,
      "chip": "ym2612"
    },
    {
      "channel": 4,
      "note": 73,
      "start": 20.2419,
      "duration": 0.201,
      "velocity": 85,
      "chip": "ym2612"
    },
    {
      "channel": 5,
      "note": 72,
      "start": 20.2427,
      "duration": 0.2006,
      "velocity": 120,
      "chip": "ym2612"
    },
    {
      "channel": 5,
      "note": 73,
      "start": 20.4438,
      "duration": 0.2013,
      "velocity": 120,
      "chip": "ym2612"
    },
    {
      "channel": 2,
      "note": 30,
      "start": 20.4446,
      "duration": 0.1284,
      "velocity": 119,
      "chip": "ym2612"
    },
    {
      "channel": 0,
      "note": 33,
      "start": 20.6428,
      "duration": 0.1997,
      "velocity": 95,
      "chip": "ym2612"
    },
    {
      "channel": 1,
      "note": 69,
      "start": 20.6435,
      "duration": 0.1997,
      "velocity": 120,
      "chip": "ym2612"
    },
    {
      "channel": 3,
      "note": 54,
      "start": 20.6443,
      "duration": 0.1997,
      "velocity": 120,
      "chip": "ym2612"
    },
    {
      "channel": 4,
      "note": 69,
      "start": 20.645,
      "duration": 0.1996,
      "velocity": 85,
      "chip": "ym2612"
    },
    {
      "channel": 2,
      "note": 78,
      "start": 20.6462,
      "duration": 0.1931,
      "velocity": 127,
      "chip": "ym2612"
    },
    {
      "channel": 0,
      "note": 34,
      "start": 20.843,
      "duration": 0.1971,
      "velocity": 95,
      "chip": "ym2612"
    },
    {
      "channel": 1,
      "note": 70,
      "start": 20.8438,
      "duration": 0.1971,
      "velocity": 120,
      "chip": "ym2612"
    },
    {
      "channel": 3,
      "note": 55,
      "start": 20.8445,
      "duration": 0.1971,
      "velocity": 120,
      "chip": "ym2612"
    },
    {
      "channel": 4,
      "note": 70,
      "start": 20.8453,
      "duration": 0.1971,
      "velocity": 85,
      "chip": "ym2612"
    },
    {
      "channel": 5,
      "note": 69,
      "start": 20.846,
      "duration": 0.1971,
      "velocity": 120,
      "chip": "ym2612"
    },
    {
      "channel": 2,
      "note": 30,
      "start": 20.8468,
      "duration": 0.1278,
      "velocity": 119,
      "chip": "ym2612"
    },
    {
      "channel": 0,
      "note": 35,
      "start": 21.0407,
      "duration": 0.2023,
      "velocity": 95,
      "chip": "ym2612"
    },
    {
      "channel": 1,
      "note": 71,
      "start": 21.0415,
      "duration": 0.2022,
      "velocity": 120,
      "chip": "ym2612"
    },
    {
      "channel": 3,
      "note": 56,
      "start": 21.0422,
      "duration": 0.2023,
      "velocity": 120,
      "chip": "ym2612"
    },
    {
      "channel": 4,
      "note": 71,
      "start": 21.0429,
      "duration": 0.2023,
      "velocity": 85,
      "chip": "ym2612"
    },
    {
      "channel": 5,
      "note": 70,
      "start": 21.0437,
      "duration": 0.2023,
      "velocity": 120,
      "chip": "ym2612"
    },
    {
      "channel": 0,
      "note": 36,
      "start": 21.2436,
      "duration": 0.1971,
      "velocity": 95,
      "chip": "ym2612"
    },
    {
      "channel": 1,
      "note": 72,
      "start": 21.2443,
      "duration": 0.1971,
      "velocity": 120,
      "chip": "ym2612"
    },
    {
      "channel": 3,
      "note": 57,
      "start": 21.245,
      "duration": 0.1971,
      "velocity": 120,
      "chip": "ym2612"
    },
    {
      "channel": 4,
      "note": 72,
      "start": 21.2458,
      "duration": 0.1971,
      "velocity": 85,
      "chip": "ym2612"
    },
    {
      "channel": 5,
      "note": 71,
      "start": 21.2465,
      "duration": 0.1971,
      "velocity": 120,
      "chip": "ym2612"
    },
    {
      "channel": 2,
      "note": 30,
      "start": 21.2474,
      "duration": 0.1278,
      "velocity": 119,
      "chip": "ym2612"
    },
    {
      "channel": 0,
      "note": 37,
      "start": 21.4412,
      "duration": 0.2023,
      "velocity": 95,
      "chip": "ym2612"
    },
    {
      "channel": 1,
      "note": 73,
      "start": 21.442,
      "duration": 0.2019,
      "velocity": 120,
      "chip": "ym2612"
    },
    {
      "channel": 3,
      "note": 58,
      "start": 21.4427,
      "duration": 0.2015,
      "velocity": 120,
      "chip": "ym2612"
    },
    {
      "channel": 4,
      "note": 73,
      "start": 21.4434,
      "duration": 0.201,
      "velocity": 85,
      "chip": "ym2612"
    },
    {
      "channel": 5,
      "note": 72,
      "start": 21.4442,
      "duration": 0.2011,
      "velocity": 120,
      "chip": "ym2612"
    },
    {
      "channel": 4,
      "note": 100,
      "start": 21.6451,
      "duration": 0.8004,
      "velocity": 85,
      "chip": "ym2612"
    },
    {
      "channel": 5,
      "note": 73,
      "start": 21.6459,
      "duration": 0.1985,
      "velocity": 120,
      "chip": "ym2612"
    },
    {
      "channel": 2,
      "note": 30,
      "start": 21.6467,
      "duration": 0.1281,
      "velocity": 119,
      "chip": "ym2612"
    },
    {
      "channel": 2,
      "note": 78,
      "start": 21.8454,
      "duration": 0.2629,
      "velocity": 127,
      "chip": "ym2612"
    },
    {
      "channel": 2,
      "note": 78,
      "start": 22.2457,
      "duration": 0.1956,
      "velocity": 127,
      "chip": "ym2612"
    },
    {
      "channel": 2,
      "note": 30,
      "start": 22.4466,
      "duration": 0.1287,
      "velocity": 119,
      "chip": "ym2612"
    },
    {
      "channel": 0,
      "note": 33,
      "start": 22.6428,
      "duration": 0.2023,
      "velocity": 95,
      "chip": "ym2612"
    },
    {
      "channel": 1,
      "note": 69,
      "start": 22.6435,
      "duration": 0.2022,
      "velocity": 120,
      "chip": "ym2612"
    },
    {
      "channel": 3,
      "note": 66,
      "start": 22.6442,
      "duration": 0.2023,
      "velocity": 120,
      "chip": "ym2612"
    },
    {
      "channel": 4,
      "note": 74,
      "start": 22.645,
      "duration": 0.2023,
      "velocity": 85,
      "chip": "ym2612"
    },
    {
      "channel": 0,
      "note": 34,
      "start": 22.8456,
      "duration": 0.1971,
      "velocity": 95,
      "chip": "ym2612"
    },
    {
      "channel": 1,
      "note": 70,
      "start": 22.8463,
      "duration": 0.1971,
      "velocity": 120,
      "chip": "ym2612"
    },
    {
      "channel": 3,
      "note": 67,
      "start": 22.8471,
      "duration": 0.1971,
      "velocity": 120,
      "chip": "ym2612"
    },
    {
      "channel": 4,
      "note": 75,
      "start": 22.8478,
      "duration": 0.1971,
      "velocity": 85,
      "chip": "ym2612"
    },
    {
      "channel": 5,
      "note": 69,
      "start": 22.8486,
      "duration": 0.1971,
      "velocity": 120,
      "chip": "ym2612"
    },
    {
      "channel": 2,
      "note": 30,
      "start": 22.8494,
      "duration": 0.1278,
      "velocity": 119,
      "chip": "ym2612"
    },
    {
      "channel": 0,
      "note": 35,
      "start": 23.0433,
      "duration": 0.2023,
      "velocity": 95,
      "chip": "ym2612"
    },
    {
      "channel": 1,
      "note": 71,
      "start": 23.044,
      "duration": 0.2023,
      "velocity": 120,
      "chip": "ym2612"
    },
    {
      "channel": 3,
      "note": 68,
      "start": 23.0448,
      "duration": 0.2023,
      "velocity": 120,
      "chip": "ym2612"
    },
    {
      "channel": 4,
      "note": 76,
      "start": 23.0455,
      "duration": 0.2023,
      "velocity": 85,
      "chip": "ym2612"
    },
    {
      "channel": 5,
      "note": 70,
      "start": 23.0463,
      "duration": 0.2023,
      "velocity": 120,
      "chip": "ym2612"
    },
    {
      "channel": 0,
      "note": 36,
      "start": 23.2461,
      "duration": 0.1971,
      "velocity": 95,
      "chip": "ym2612"
    },
    {
      "channel": 1,
      "note": 72,
      "start": 23.2469,
      "duration": 0.1971,
      "velocity": 120,
      "chip": "ym2612"
    },
    {
      "channel": 3,
      "note": 69,
      "start": 23.2476,
      "duration": 0.1971,
      "velocity": 120,
      "chip": "ym2612"
    },
    {
      "channel": 4,
      "note": 77,
      "start": 23.2484,
      "duration": 0.1971,
      "velocity": 85,
      "chip": "ym2612"
    },
    {
      "channel": 5,
      "note": 71,
      "start": 23.2491,
      "duration": 0.1971,
      "velocity": 120,
      "chip": "ym2612"
    },
    {
      "channel": 2,
      "note": 30,
      "start": 23.25,
      "duration": 0.1277,
      "velocity": 119,
      "chip": "ym2612"
    },
    {
      "channel": 0,
      "note": 37,
      "start": 23.4438,
      "duration": 0.2023,
      "velocity": 95,
      "chip": "ym2612"
    },
    {
      "channel": 1,
      "note": 73,
      "start": 23.4445,
      "duration": 0.2019,
      "velocity": 120,
      "chip": "ym2612"
    },
    {
      "channel": 3,
      "note": 70,
      "start": 23.4453,
      "duration": 0.2015,
      "velocity": 120,
      "chip": "ym2612"
    },
    {
      "channel": 4,
      "note": 78,
      "start": 23.446,
      "duration": 0.201,
      "velocity": 85,
      "chip": "ym2612"
    },
    {
      "channel": 5,
      "note": 72,
      "start": 23.4468,
      "duration": 0.2006,
      "velocity": 120,
      "chip": "ym2612"
    },
    {
      "channel": 5,
      "note": 73,
      "start": 23.6479,
      "duration": 0.2003,
      "velocity": 120,
      "chip": "ym2612"
    },
    {
      "channel": 2,
      "note": 30,
      "start": 23.6488,
      "duration": 0.1284,
      "velocity": 119,
      "chip": "ym2612"
    },
    {
      "channel": 1,
      "note": 74,
      "start": 23.847,
      "duration": 0.1999,
      "velocity": 120,
      "chip": "ym2612"
    },
    {
      "channel": 3,
      "note": 71,
      "start": 23.8478,
      "duration": 0.1995,
      "velocity": 120,
      "chip": "ym2612"
    },
    {
      "channel": 2,
      "note": 78,
      "start": 23.8493,
      "duration": 0.1941,
      "velocity": 127,
      "chip": "ym2612"
    },
    {
      "channel": 5,
      "note": 74,
      "start": 24.0485,
      "duration": 0.1977,
      "velocity": 120,
      "chip": "ym2612"
    },
    {
      "channel": 2,
      "note": 30,
      "start": 24.0493,
      "duration": 0.1284,
      "velocity": 119,
      "chip": "ym2612"
    },
    {
      "channel": 1,
      "note": 68,
      "start": 24.2449,
      "duration": 0.2023,
      "velocity": 120,
      "chip": "ym2612"
    },
    {
      "channel": 3,
      "note": 63,
      "start": 24.2457,
      "duration": 0.2023,
      "velocity": 120,
      "chip": "ym2612"
    },
    {
      "channel": 1,
      "note": 69,
      "start": 24.4478,
      "duration": 0.1971,
      "velocity": 120,
      "chip": "ym2612"
    },
    {
      "channel": 3,
      "note": 64,
      "start": 24.4485,
      "duration": 0.1966,
      "velocity": 120,
      "chip": "ym2612"
    },
    {
      "channel": 4,
      "note": 92,
      "start": 24.4493,
      "duration": 0.0956,
      "velocity": 85,
      "chip": "ym2612"
    },
    {
      "channel": 5,
      "note": 68,
      "start": 24.45,
      "duration": 0.1962,
      "velocity": 120,
      "chip": "ym2612"
    },
    {
      "channel": 2,
      "note": 30,
      "start": 24.4509,
      "duration": 0.1281,
      "velocity": 119,
      "chip": "ym2612"
    },
    {
      "channel": 4,
      "note": 91,
      "start": 24.5455,
      "duration": 0.1,
      "velocity": 85,
      "chip": "ym2612"
    },
    {
      "channel": 4,
      "note": 90,
      "start": 24.6461,
      "duration": 0.0985,
      "velocity": 85,
      "chip": "ym2612"
    },
    {
      "channel": 5,
      "note": 69,
      "start": 24.6468,
      "duration": 0.2025,
      "velocity": 120,
      "chip": "ym2612"
    },
    {
      "channel": 4,
      "note": 89,
      "start": 24.7452,
      "duration": 0.1034,
      "velocity": 85,
      "chip": "ym2612"
    },
    {
      "channel": 4,
      "note": 88,
      "start": 24.8492,
      "duration": 0.0956,
      "velocity": 85,
      "chip": "ym2612"
    },
    {
      "channel": 2,
      "note": 30,
      "start": 24.8504,
      "duration": 0.1283,
      "velocity": 119,
      "chip": "ym2612"
    },
    {
      "channel": 4,
      "note": 87,
      "start": 24.9455,
      "duration": 0.1033,
      "velocity": 85,
      "chip": "ym2612"
    },
    {
      "channel": 0,
      "note": 33,
      "start": 25.0485,
      "duration": 0.1997,
      "velocity": 95,
      "chip": "ym2612"
    },
    {
      "channel": 4,
      "note": 86,
      "start": 25.0494,
      "duration": 0.096,
      "velocity": 85,
      "chip": "ym2612"
    },
    {
      "channel": 2,
      "note": 78,
      "start": 25.0506,
      "duration": 0.1944,
      "velocity": 127,
      "chip": "ym2612"
    },
    {
      "channel": 4,
      "note": 85,
      "start": 25.146,
      "duration": 0.1031,
      "velocity": 85,
      "chip": "ym2612"
    },
    {
      "channel": 0,
      "note": 33,
      "start": 25.2487,
      "duration": 0.1997,
      "velocity": 95,
      "chip": "ym2612"
    },
    {
      "channel": 4,
      "note": 84,
      "start": 25.2496,
      "duration": 0.096,
      "velocity": 85,
      "chip": "ym2612"
    },
    {
      "channel": 2,
      "note": 78,
      "start": 25.2506,
      "duration": 0.1946,
      "velocity": 127,
      "chip": "ym2612"
    },
    {
      "channel": 4,
      "note": 83,
      "start": 25.3462,
      "duration": 0.103,
      "velocity": 85,
      "chip": "ym2612"
    },
    {
      "channel": 0,
      "note": 33,
      "start": 25.449,
      "duration": 0.2,
      "velocity": 95,
      "chip": "ym2612"
    },
    {
      "channel": 4,
      "note": 82,
      "start": 25.4499,
      "duration": 0.096,
      "velocity": 85,
      "chip": "ym2612"
    },
    {
      "channel": 2,
      "note": 78,
      "start": 25.4508,
      "duration": 0.1947,
      "velocity": 127,
      "chip": "ym2612"
    },
    {
      "channel": 4,
      "note": 81,
      "start": 25.5465,
      "duration": 0.1035,
      "velocity": 85,
      "chip": "ym2612"
    },
    {
      "channel": 2,
      "note": 30,
      "start": 25.651,
      "duration": 0.1284,
      "velocity": 119,
      "chip": "ym2612"
    },
    {
      "channel": 0,
      "note": 33,
      "start": 25.8469,
      "duration": 0.2023,
      "velocity": 95,
      "chip": "ym2612"
    },
    {
      "channel": 1,
      "note": 72,
      "start": 25.8476,
      "duration": 0.2022,
      "velocity": 120,
      "chip": "ym2612"
    },
    {
      "channel": 3,
      "note": 57,
      "start": 25.8484,
      "duration": 0.2022,
      "velocity": 120,
      "chip": "ym2612"
    },
    {
      "channel": 4,
      "note": 69,
      "start": 25.8491,
      "duration": 0.2022,
      "velocity": 85,
      "chip": "ym2612"
    },
    {
      "channel": 0,
      "note": 34,
      "start": 26.0497,
      "duration": 0.1971,
      "velocity": 95,
      "chip": "ym2612"
    },
    {
      "channel": 1,
      "note": 73,
      "start": 26.0505,
      "duration": 0.1971,
      "velocity": 120,
      "chip": "ym2612"
    },
    {
      "channel": 3,
      "note": 58,
      "start": 26.0512,
      "duration": 0.1971,
      "velocity": 120,
      "chip": "ym2612"
    },
    {
      "channel": 4,
      "note": 70,
      "start": 26.052,
      "duration": 0.1971,
      "velocity": 85,
      "chip": "ym2612"
    },
    {
      "channel": 5,
      "note": 72,
      "start": 26.0527,
      "duration": 0.1971,
      "velocity": 120,
      "chip": "ym2612"
    },
    {
      "channel": 2,
      "note": 30,
      "start": 26.0536,
      "duration": 0.1278,
      "velocity": 119,
      "chip": "ym2612"
    },
    {
      "channel": 0,
      "note": 35,
      "start": 26.2474,
      "duration": 0.2023,
      "velocity": 95,
      "chip": "ym2612"
    },
    {
      "channel": 1,
      "note": 74,
      "start": 26.2481,
      "duration": 0.2023,
      "velocity": 120,
      "chip": "ym2612"
    },
    {
      "channel": 3,
      "note": 59,
      "start": 26.2489,
      "duration": 0.2023,
      "velocity": 120,
      "chip": "ym2612"
    },
    {
      "channel": 4,
      "note": 71,
      "start": 26.2496,
      "duration": 0.2022,
      "velocity": 85,
      "chip": "ym2612"
    },
    {
      "channel": 5,
      "note": 73,
      "start": 26.2504,
      "duration": 0.2022,
      "velocity": 120,
      "chip": "ym2612"
    },
    {
      "channel": 0,
      "note": 36,
      "start": 26.4502,
      "duration": 0.1971,
      "velocity": 95,
      "chip": "ym2612"
    },
    {
      "channel": 1,
      "note": 75,
      "start": 26.451,
      "duration": 0.1971,
      "velocity": 120,
      "chip": "ym2612"
    },
    {
      "channel": 3,
      "note": 60,
      "start": 26.4517,
      "duration": 0.1971,
      "velocity": 120,
      "chip": "ym2612"
    },
    {
      "channel": 4,
      "note": 72,
      "start": 26.4525,
      "duration": 0.1971,
      "velocity": 85,
      "chip": "ym2612"
    },
    {
      "channel": 5,
      "note": 74,
      "start": 26.4532,
      "duration": 0.1971,
      "velocity": 120,
      "chip": "ym2612"
    },
    {
      "channel": 2,
      "note": 30,
      "start": 26.4541,
      "duration": 0.1277,
      "velocity": 119,
      "chip": "ym2612"
    },
    {
      "channel": 0,
      "note": 37,
      "start": 26.6479,
      "duration": 0.2023,
      "velocity": 95,
      "chip": "ym2612"
    },
    {
      "channel": 1,
      "note": 76,
      "start": 26.6487,
      "duration": 0.2019,
      "velocity": 120,
      "chip": "ym2612"
    },
    {
      "channel": 3,
      "note": 61,
      "start": 26.6494,
      "duration": 0.2014,
      "velocity": 120,
      "chip": "ym2612"
    },
    {
      "channel": 4,
      "note": 73,
      "start": 26.6502,
      "duration": 0.201,
      "velocity": 85,
      "chip": "ym2612"
    },
    {
      "channel": 5,
      "note": 75,
      "start": 26.6509,
      "duration": 0.2006,
      "velocity": 120,
      "chip": "ym2612"
    },
    {
      "channel": 5,
      "note": 76,
      "start": 26.8521,
      "duration": 0.2013,
      "velocity": 120,
      "chip": "ym2612"
    },
    {
      "channel": 2,
      "note": 30,
      "start": 26.8529,
      "duration": 0.1284,
      "velocity": 119,
      "chip": "ym2612"
    },
    {
      "channel": 0,
      "note": 33,
      "start": 27.051,
      "duration": 0.1997,
      "velocity": 95,
      "chip": "ym2612"
    },
    {
      "channel": 1,
      "note": 72,
      "start": 27.0518,
      "duration": 0.1997,
      "velocity": 120,
      "chip": "ym2612"
    },
    {
      "channel": 3,
      "note": 54,
      "start": 27.0525,
      "duration": 0.1997,
      "velocity": 120,
      "chip": "ym2612"
    },
    {
      "channel": 4,
      "note": 69,
      "start": 27.0532,
      "duration": 0.1997,
      "velocity": 85,
      "chip": "ym2612"
    },
    {
      "channel": 2,
      "note": 78,
      "start": 27.0544,
      "duration": 0.1931,
      "velocity": 127,
      "chip": "ym2612"
    },
    {
      "channel": 0,
      "note": 34,
      "start": 27.2513,
      "duration": 0.1971,
      "velocity": 95,
      "chip": "ym2612"
    },
    {
      "channel": 1,
      "note": 73,
      "start": 27.252,
      "duration": 0.1971,
      "velocity": 120,
      "chip": "ym2612"
    },
    {
      "channel": 3,
      "note": 55,
      "start": 27.2528,
      "duration": 0.1971,
      "velocity": 120,
      "chip": "ym2612"
    },
    {
      "channel": 4,
      "note": 70,
      "start": 27.2535,
      "duration": 0.1971,
      "velocity": 85,
      "chip": "ym2612"
    },
    {
      "channel": 5,
      "note": 72,
      "start": 27.2543,
      "duration": 0.1971,
      "velocity": 120,
      "chip": "ym2612"
    },
    {
      "channel": 2,
      "note": 30,
      "start": 27.2551,
      "duration": 0.1278,
      "velocity": 119,
      "chip": "ym2612"
    },
    {
      "channel": 0,
      "note": 35,
      "start": 27.449,
      "duration": 0.2023,
      "velocity": 95,
      "chip": "ym2612"
    },
    {
      "channel": 1,
      "note": 74,
      "start": 27.4497,
      "duration": 0.2023,
      "velocity": 120,
      "chip": "ym2612"
    },
    {
      "channel": 3,
      "note": 56,
      "start": 27.4504,
      "duration": 0.2023,
      "velocity": 120,
      "chip": "ym2612"
    },
    {
      "channel": 4,
      "note": 71,
      "start": 27.4512,
      "duration": 0.2022,
      "velocity": 85,
      "chip": "ym2612"
    },
    {
      "channel": 5,
      "note": 73,
      "start": 27.4519,
      "duration": 0.2022,
      "velocity": 120,
      "chip": "ym2612"
    },
    {
      "channel": 0,
      "note": 36,
      "start": 27.6518,
      "duration": 0.1971,
      "velocity": 95,
      "chip": "ym2612"
    },
    {
      "channel": 1,
      "note": 75,
      "start": 27.6525,
      "duration": 0.1971,
      "velocity": 120,
      "chip": "ym2612"
    },
    {
      "channel": 3,
      "note": 57,
      "start": 27.6533,
      "duration": 0.1971,
      "velocity": 120,
      "chip": "ym2612"
    },
    {
      "channel": 4,
      "note": 72,
      "start": 27.654,
      "duration": 0.1971,
      "velocity": 85,
      "chip": "ym2612"
    },
    {
      "channel": 5,
      "note": 74,
      "start": 27.6548,
      "duration": 0.1971,
      "velocity": 120,
      "chip": "ym2612"
    },
    {
      "channel": 2,
      "note": 30,
      "start": 27.6556,
      "duration": 0.1278,
      "velocity": 119,
      "chip": "ym2612"
    },
    {
      "channel": 0,
      "note": 37,
      "start": 27.8495,
      "duration": 0.2023,
      "velocity": 95,
      "chip": "ym2612"
    },
    {
      "channel": 1,
      "note": 76,
      "start": 27.8502,
      "duration": 0.2019,
      "velocity": 120,
      "chip": "ym2612"
    },
    {
      "channel": 3,
      "note": 58,
      "start": 27.851,
      "duration": 0.2015,
      "velocity": 120,
      "chip": "ym2612"
    },
    {
      "channel": 4,
      "note": 73,
      "start": 27.8517,
      "duration": 0.201,
      "velocity": 85,
      "chip": "ym2612"
    },
    {
      "channel": 5,
      "note": 75,
      "start": 27.8524,
      "duration": 0.2011,
      "velocity": 120,
      "chip": "ym2612"
    },
    {
      "channel": 4,
      "note": 100,
      "start": 28.0534,
      "duration": 0.8004,
      "velocity": 85,
      "chip": "ym2612"
    },
    {
      "channel": 5,
      "note": 76,
      "start": 28.0541,
      "duration": 0.1985,
      "velocity": 120,
      "chip": "ym2612"
    },
    {
      "channel": 2,
      "note": 30,
      "start": 28.0549,
      "duration": 0.1282,
      "velocity": 119,
      "chip": "ym2612"
    },
    {
      "channel": 2,
      "note": 78,
      "start": 28.2537,
      "duration": 0.2629,
      "velocity": 127,
      "chip": "ym2612"
    },
    {
      "channel": 2,
      "note": 78,
      "start": 28.6539,
      "duration": 0.1956,
      "velocity": 127,
      "chip": "ym2612"
    },
    {
      "channel": 2,
      "note": 30,
      "start": 28.8549,
      "duration": 0.1287,
      "velocity": 119,
      "chip": "ym2612"
    },
    {
      "channel": 0,
      "note": 33,
      "start": 29.051,
      "duration": 0.2023,
      "velocity": 95,
      "chip": "ym2612"
    },
    {
      "channel": 1,
      "note": 72,
      "start": 29.0517,
      "duration": 0.2023,
      "velocity": 120,
      "chip": "ym2612"
    },
    {
      "channel": 3,
      "note": 66,
      "start": 29.0525,
      "duration": 0.2023,
      "velocity": 120,
      "chip": "ym2612"
    },
    {
      "channel": 4,
      "note": 74,
      "start": 29.0532,
      "duration": 0.2022,
      "velocity": 85,
      "chip": "ym2612"
    },
    {
      "channel": 0,
      "note": 34,
      "start": 29.2539,
      "duration": 0.1971,
      "velocity": 95,
      "chip": "ym2612"
    },
    {
      "channel": 1,
      "note": 73,
      "start": 29.2546,
      "duration": 0.1971,
      "velocity": 120,
      "chip": "ym2612"
    },
    {
      "channel": 3,
      "note": 67,
      "start": 29.2554,
      "duration": 0.1971,
      "velocity": 120,
      "chip": "ym2612"
    },
    {
      "channel": 4,
      "note": 75,
      "start": 29.2561,
      "duration": 0.1971,
      "velocity": 85,
      "chip": "ym2612"
    },
    {
      "channel": 5,
      "note": 72,
      "start": 29.2568,
      "duration": 0.1971,
      "velocity": 120,
      "chip": "ym2612"
    },
    {
      "channel": 2,
      "note": 30,
      "start": 29.2577,
      "duration": 0.1278,
      "velocity": 119,
      "chip": "ym2612"
    },
    {
      "channel": 0,
      "note": 35,
      "start": 29.4515,
      "duration": 0.2023,
      "velocity": 95,
      "chip": "ym2612"
    },
    {
      "channel": 1,
      "note": 74,
      "start": 29.4523,
      "duration": 0.2023,
      "velocity": 120,
      "chip": "ym2612"
    },
    {
      "channel": 3,
      "note": 68,
      "start": 29.453,
      "duration": 0.2023,
      "velocity": 120,
      "chip": "ym2612"
    },
    {
      "channel": 4,
      "note": 76,
      "start": 29.4538,
      "duration": 0.2023,
      "velocity": 85,
      "chip": "ym2612"
    },
    {
      "channel": 5,
      "note": 73,
      "start": 29.4545,
      "duration": 0.2023,
      "velocity": 120,
      "chip": "ym2612"
    },
    {
      "channel": 0,
      "note": 36,
      "start": 29.6544,
      "duration": 0.1971,
      "velocity": 95,
      "chip": "ym2612"
    },
    {
      "channel": 1,
      "note": 75,
      "start": 29.6551,
      "duration": 0.1971,
      "velocity": 120,
      "chip": "ym2612"
    },
    {
      "channel": 3,
      "note": 69,
      "start": 29.6559,
      "duration": 0.1971,
      "velocity": 120,
      "chip": "ym2612"
    },
    {
      "channel": 4,
      "note": 77,
      "start": 29.6566,
      "duration": 0.1971,
      "velocity": 85,
      "chip": "ym2612"
    },
    {
      "channel": 5,
      "note": 74,
      "start": 29.6574,
      "duration": 0.1971,
      "velocity": 120,
      "chip": "ym2612"
    },
    {
      "channel": 2,
      "note": 30,
      "start": 29.6582,
      "duration": 0.1277,
      "velocity": 119,
      "chip": "ym2612"
    },
    {
      "channel": 0,
      "note": 37,
      "start": 29.852,
      "duration": 0.2023,
      "velocity": 95,
      "chip": "ym2612"
    },
    {
      "channel": 1,
      "note": 76,
      "start": 29.8528,
      "duration": 0.2019,
      "velocity": 120,
      "chip": "ym2612"
    },
    {
      "channel": 3,
      "note": 70,
      "start": 29.8535,
      "duration": 0.2015,
      "velocity": 120,
      "chip": "ym2612"
    },
    {
      "channel": 4,
      "note": 78,
      "start": 29.8543,
      "duration": 0.201,
      "velocity": 85,
      "chip": "ym2612"
    },
    {
      "channel": 5,
      "note": 75,
      "start": 29.855,
      "duration": 0.2006,
      "velocity": 120,
      "chip": "ym2612"
    },
    {
      "channel": 5,
      "note": 76,
      "start": 30.0562,
      "duration": 0.2003,
      "velocity": 120,
      "chip": "ym2612"
    },
    {
      "channel": 2,
      "note": 30,
      "start": 30.0571,
      "duration": 0.1284,
      "velocity": 119,
      "chip": "ym2612"
    },
    {
      "channel": 1,
      "note": 75,
      "start": 30.2553,
      "duration": 0.1999,
      "velocity": 120,
      "chip": "ym2612"
    },
    {
      "channel": 3,
      "note": 71,
      "start": 30.256,
      "duration": 0.1995,
      "velocity": 120,
      "chip": "ym2612"
    },
    {
      "channel": 2,
      "note": 78,
      "start": 30.2575,
      "duration": 0.1941,
      "velocity": 127,
      "chip": "ym2612"
    },
    {
      "channel": 5,
      "note": 75,
      "start": 30.4567,
      "duration": 0.1977,
      "velocity": 120,
      "chip": "ym2612"
    },
    {
      "channel": 2,
      "note": 30,
      "start": 30.4576,
      "duration": 0.1284,
      "velocity": 119,
      "chip": "ym2612"
    },
    {
      "channel": 1,
      "note": 68,
      "start": 30.6532,
      "duration": 0.2023,
      "velocity": 120,
      "chip": "ym2612"
    },
    {
      "channel": 3,
      "note": 63,
      "start": 30.6539,
      "duration": 0.2023,
      "velocity": 120,
      "chip": "ym2612"
    },
    {
      "channel": 1,
      "note": 69,
      "start": 30.856,
      "duration": 0.1971,
      "velocity": 120,
      "chip": "ym2612"
    },
    {
      "channel": 3,
      "note": 64,
      "start": 30.8568,
      "duration": 0.1966,
      "velocity": 120,
      "chip": "ym2612"
    },
    {
      "channel": 4,
      "note": 92,
      "start": 30.8576,
      "duration": 0.0956,
      "velocity": 85,
      "chip": "ym2612"
    },
    {
      "channel": 5,
      "note": 68,
      "start": 30.8583,
      "duration": 0.1962,
      "velocity": 120,
      "chip": "ym2612"
    },
    {
      "channel": 2,
      "note": 30,
      "start": 30.8591,
      "duration": 0.1281,
      "velocity": 119,
      "chip": "ym2612"
    },
    {
      "channel": 4,
      "note": 91,
      "start": 30.9537,
      "duration": 0.1,
      "velocity": 85,
      "chip": "ym2612"
    },
    {
      "channel": 4,
      "note": 90,
      "start": 31.0544,
      "duration": 0.0985,
      "velocity": 85,
      "chip": "ym2612"
    },
    {
      "channel": 5,
      "note": 69,
      "start": 31.0551,
      "duration": 0.2025,
      "velocity": 120,
      "chip": "ym2612"
    },
    {
      "channel": 4,
      "note": 89,
      "start": 31.1534,
      "duration": 0.1034,
      "velocity": 85,
      "chip": "ym2612"
    },
    {
      "channel": 4,
      "note": 88,
      "start": 31.2575,
      "duration": 0.0956,
      "velocity": 85,
      "chip": "ym2612"
    },
    {
      "channel": 2,
      "note": 30,
      "start": 31.2586,
      "duration": 0.1283,
      "velocity": 119,
      "chip": "ym2612"
    },
    {
      "channel": 4,
      "note": 87,
      "start": 31.3537,
      "duration": 0.1033,
      "velocity": 85,
      "chip": "ym2612"
    },
    {
      "channel": 0,
      "note": 33,
      "start": 31.4567,
      "duration": 0.1997,
      "velocity": 95,
      "chip": "ym2612"
    },
    {
      "channel": 4,
      "note": 86,
      "start": 31.4576,
      "duration": 0.096,
      "velocity": 85,
      "chip": "ym2612"
    },
    {
      "channel": 2,
      "note": 78,
      "start": 31.4588,
      "duration": 0.1944,
      "velocity": 127,
      "chip": "ym2612"
    },
    {
      "channel": 4,
      "note": 85,
      "start": 31.5542,
      "duration": 0.1031,
      "velocity": 85,
      "chip": "ym2612"
    },
    {
      "channel": 0,
      "note": 33,
      "start": 31.657,
      "duration": 0.1997,
      "velocity": 95,
      "chip": "ym2612"
    },
    {
      "channel": 4,
      "note": 84,
      "start": 31.6579,
      "duration": 0.096,
      "velocity": 85,
      "chip": "ym2612"
    },
    {
      "channel": 2,
      "note": 78,
      "start": 31.6588,
      "duration": 0.1946,
      "velocity": 127,
      "chip": "ym2612"
    },
    {
      "channel": 4,
      "note": 83,
      "start": 31.7545,
      "duration": 0.103,
      "velocity": 85,
      "chip": "ym2612"
    },
    {
      "channel": 0,
      "note": 33,
      "start": 31.8572,
      "duration": 0.2002,
      "velocity": 95,
      "chip": "ym2612"
    },
    {
      "channel": 4,
      "note": 82,
      "start": 31.8581,
      "duration": 0.096,
      "velocity": 85,
      "chip": "ym2612"
    },
    {
      "channel": 2,
      "note": 78,
      "start": 31.8591,
      "duration": 0.1949,
      "velocity": 127,
      "chip": "ym2612"
    },
    {
      "channel": 4,
      "note": 81,
      "start": 31.9547,
      "duration": 0.1049,
      "velocity": 85,
      "chip": "ym2612"
    },
    {
      "channel": 0,
      "note": 33,
      "start": 32.058,
      "duration": 0.1992,
      "velocity": 95,
      "chip": "ym2612"
    },
    {
      "channel": 1,
      "note": 68,
      "start": 32.059,
      "duration": 0.1988,
      "velocity": 120,
      "chip": "ym2612"
    },
    {
      "channel": 2,
      "note": 30,
      "start": 32.0607,
      "duration": 0.1275,
      "velocity": 119,
      "chip": "ym2612"
    },
    {
      "channel": 0,
      "note": 33,
      "start": 32.2577,
      "duration": 0.1997,
      "velocity": 95,
      "chip": "ym2612"
    },
    {
      "channel": 1,
      "note": 67,
      "start": 32.2585,
      "duration": 1.3826,
      "velocity": 120,
      "chip": "ym2612"
    },
    {
      "channel": 5,
      "note": 68,
      "start": 32.2597,
      "duration": 0.199,
      "velocity": 120,
      "chip": "ym2612"
    },
    {
      "channel": 2,
      "note": 78,
      "start": 32.2605,
      "duration": 0.1937,
      "velocity": 127,
      "chip": "ym2612"
    },
    {
      "channel": 0,
      "note": 33,
      "start": 32.458,
      "duration": 0.1997,
      "velocity": 95,
      "chip": "ym2612"
    },
    {
      "channel": 5,
      "note": 67,
      "start": 32.4593,
      "duration": 1.1818,
      "velocity": 120,
      "chip": "ym2612"
    },
    {
      "channel": 2,
      "note": 30,
      "start": 32.4601,
      "duration": 0.1289,
      "velocity": 119,
      "chip": "ym2612"
    },
    {
      "channel": 0,
      "note": 33,
      "start": 32.6583,
      "duration": 0.1997,
      "velocity": 95,
      "chip": "ym2612"
    },
    {
      "channel": 2,
      "note": 78,
      "start": 32.66,
      "duration": 0.1948,
      "velocity": 127,
      "chip": "ym2612"
    },
    {
      "channel": 0,
      "note": 33,
      "start": 32.8585,
      "duration": 0.1997,
      "velocity": 95,
      "chip": "ym2612"
    },
    {
      "channel": 2,
      "note": 30,
      "start": 32.8602,
      "duration": 0.1293,
      "velocity": 119,
      "chip": "ym2612"
    },
    {
      "channel": 0,
      "note": 33,
      "start": 33.0588,
      "duration": 0.1997,
      "velocity": 95,
      "chip": "ym2612"
    },
    {
      "channel": 2,
      "note": 78,
      "start": 33.0605,
      "duration": 0.1948,
      "velocity": 127,
      "chip": "ym2612"
    },
    {
      "channel": 0,
      "note": 33,
      "start": 33.259,
      "duration": 0.1997,
      "velocity": 95,
      "chip": "ym2612"
    },
    {
      "channel": 2,
      "note": 30,
      "start": 33.2607,
      "duration": 0.1293,
      "velocity": 119,
      "chip": "ym2612"
    },
    {
      "channel": 0,
      "note": 33,
      "start": 33.4593,
      "duration": 0.1818,
      "velocity": 95,
      "chip": "ym2612"
    },
    {
      "channel": 2,
      "note": 78,
      "start": 33.461,
      "duration": 0.18,
      "velocity": 127,
      "chip": "ym2612"
    }
  ]
}