{
  "track_name": "09 - Shop",
  "duration_sec": 51.089,
  "sample_rate": 44100,
  "note_count": 1270,
  "unique_pitches": 33,
  "pitch_range": 78,
  "avg_note_duration": 0.1625,
  "reconstruction_stats": {
    "notes_reconstructed": 1270,
    "keyon_events": 1270,
    "keyoff_events": 1269,
    "orphan_keyons": 1,
    "unique_pitches": 33,
    "pitch_range": 78,
    "avg_duration_sec": 0.1625
  },
  "metadata": {
    "source": "G\\Ghostbusters\\09 - Shop.vgz"
  },
  "notes": [
    {
      "channel": 0,
      "note": 93,
      "start": 0.0,
      "duration": 0.0913,
      "velocity": 102,
      "chip": "ym2612"
    },
    {
      "channel": 1,
      "note": 57,
      "start": 0.0019,
      "duration": 0.2555,
      "velocity": 77,
      "chip": "ym2612"
    },
    {
      "channel": 3,
      "note": 88,
      "start": 0.0055,
      "duration": 0.0865,
      "velocity": 102,
      "chip": "ym2612"
    },
    {
      "channel": 2,
      "note": 26,
      "start": 0.0108,
      "duration": 0.0492,
      "velocity": 120,
      "chip": "ym2612"
    },
    {
      "channel": 4,
      "note": 88,
      "start": 0.0933,
      "duration": 0.0961,
      "velocity": 102,
      "chip": "ym2612"
    },
    {
      "channel": 5,
      "note": 93,
      "start": 0.1932,
      "duration": 0.0941,
      "velocity": 102,
      "chip": "ym2612"
    },
    {
      "channel": 0,
      "note": 97,
      "start": 0.2572,
      "duration": 0.0941,
      "velocity": 102,
      "chip": "ym2612"
    },
    {
      "channel": 1,
      "note": 57,
      "start": 0.2579,
      "duration": 0.0939,
      "velocity": 77,
      "chip": "ym2612"
    },
    {
      "channel": 3,
      "note": 92,
      "start": 0.2587,
      "duration": 0.0935,
      "velocity": 102,
      "chip": "ym2612"
    },
    {
      "channel": 2,
      "note": 103,
      "start": 0.2609,
      "duration": 0.1229,
      "velocity": 103,
      "chip": "ym2612"
    },
    {
      "channel": 4,
      "note": 92,
      "start": 0.3534,
      "duration": 0.096,
      "velocity": 102,
      "chip": "ym2612"
    },
    {
      "channel": 1,
      "note": 57,
      "start": 0.3874,
      "duration": 0.0941,
      "velocity": 77,
      "chip": "ym2612"
    },
    {
      "channel": 2,
      "note": 56,
      "start": 0.3897,
      "duration": 0.093,
      "velocity": 112,
      "chip": "ym2612"
    },
    {
      "channel": 5,
      "note": 97,
      "start": 0.4506,
      "duration": 0.0966,
      "velocity": 102,
      "chip": "ym2612"
    },
    {
      "channel": 0,
      "note": 100,
      "start": 0.5145,
      "duration": 0.0968,
      "velocity": 102,
      "chip": "ym2612"
    },
    {
      "channel": 3,
      "note": 95,
      "start": 0.5156,
      "duration": 0.0964,
      "velocity": 102,
      "chip": "ym2612"
    },
    {
      "channel": 4,
      "note": 95,
      "start": 0.6131,
      "duration": 0.0963,
      "velocity": 102,
      "chip": "ym2612"
    },
    {
      "channel": 1,
      "note": 57,
      "start": 0.6474,
      "duration": 0.0941,
      "velocity": 77,
      "chip": "ym2612"
    },
    {
      "channel": 2,
      "note": 103,
      "start": 0.6498,
      "duration": 0.124,
      "velocity": 103,
      "chip": "ym2612"
    },
    {
      "channel": 5,
      "note": 100,
      "start": 0.7106,
      "duration": 0.0968,
      "velocity": 102,
      "chip": "ym2612"
    },
    {
      "channel": 0,
      "note": 102,
      "start": 0.7773,
      "duration": 0.0941,
      "velocity": 102,
      "chip": "ym2612"
    },
    {
      "channel": 1,
      "note": 57,
      "start": 0.778,
      "duration": 0.0938,
      "velocity": 77,
      "chip": "ym2612"
    },
    {
      "channel": 3,
      "note": 97,
      "start": 0.7789,
      "duration": 0.0934,
      "velocity": 102,
      "chip": "ym2612"
    },
    {
      "channel": 2,
      "note": 103,
      "start": 0.781,
      "duration": 0.1239,
      "velocity": 103,
      "chip": "ym2612"
    },
    {
      "channel": 4,
      "note": 97,
      "start": 0.8734,
      "duration": 0.0959,
      "velocity": 102,
      "chip": "ym2612"
    },
    {
      "channel": 5,
      "note": 102,
      "start": 0.9705,
      "duration": 0.097,
      "velocity": 102,
      "chip": "ym2612"
    },
    {
      "channel": 0,
      "note": 97,
      "start": 1.0373,
      "duration": 0.0941,
      "velocity": 102,
      "chip": "ym2612"
    },
    {
      "channel": 1,
      "note": 57,
      "start": 1.0381,
      "duration": 0.0938,
      "velocity": 77,
      "chip": "ym2612"
    },
    {
      "channel": 3,
      "note": 93,
      "start": 1.039,
      "duration": 0.0934,
      "velocity": 102,
      "chip": "ym2612"
    },
    {
      "channel": 2,
      "note": 103,
      "start": 1.0411,
      "duration": 0.1227,
      "velocity": 103,
      "chip": "ym2612"
    },
    {
      "channel": 4,
      "note": 93,
      "start": 1.1336,
      "duration": 0.0959,
      "velocity": 102,
      "chip": "ym2612"
    },
    {
      "channel": 1,
      "note": 57,
      "start": 1.1675,
      "duration": 0.094,
      "velocity": 77,
      "chip": "ym2612"
    },
    {
      "channel": 2,
      "note": 56,
      "start": 1.1699,
      "duration": 0.0929,
      "velocity": 112,
      "chip": "ym2612"
    },
    {
      "channel": 5,
      "note": 97,
      "start": 1.2307,
      "duration": 0.0966,
      "velocity": 102,
      "chip": "ym2612"
    },
    {
      "channel": 0,
      "note": 92,
      "start": 1.2973,
      "duration": 0.0941,
      "velocity": 102,
      "chip": "ym2612"
    },
    {
      "channel": 3,
      "note": 88,
      "start": 1.2983,
      "duration": 0.0937,
      "velocity": 102,
      "chip": "ym2612"
    },
    {
      "channel": 2,
      "note": 26,
      "start": 1.3005,
      "duration": 0.0595,
      "velocity": 120,
      "chip": "ym2612"
    },
    {
      "channel": 4,
      "note": 88,
      "start": 1.3932,
      "duration": 0.0963,
      "velocity": 102,
      "chip": "ym2612"
    },
    {
      "channel": 1,
      "note": 57,
      "start": 1.4275,
      "duration": 0.0941,
      "velocity": 77,
      "chip": "ym2612"
    },
    {
      "channel": 2,
      "note": 26,
      "start": 1.4297,
      "duration": 0.0611,
      "velocity": 120,
      "chip": "ym2612"
    },
    {
      "channel": 5,
      "note": 92,
      "start": 1.4906,
      "duration": 0.0969,
      "velocity": 102,
      "chip": "ym2612"
    },
    {
      "channel": 0,
      "note": 93,
      "start": 1.5574,
      "duration": 0.094,
      "velocity": 102,
      "chip": "ym2612"
    },
    {
      "channel": 1,
      "note": 54,
      "start": 1.5582,
      "duration": 0.2594,
      "velocity": 77,
      "chip": "ym2612"
    },
    {
      "channel": 3,
      "note": 90,
      "start": 1.559,
      "duration": 0.0931,
      "velocity": 102,
      "chip": "ym2612"
    },
    {
      "channel": 2,
      "note": 26,
      "start": 1.5612,
      "duration": 0.059,
      "velocity": 120,
      "chip": "ym2612"
    },
    {
      "channel": 4,
      "note": 90,
      "start": 1.6534,
      "duration": 0.0962,
      "velocity": 102,
      "chip": "ym2612"
    },
    {
      "channel": 5,
      "note": 93,
      "start": 1.7507,
      "duration": 0.0967,
      "velocity": 102,
      "chip": "ym2612"
    },
    {
      "channel": 0,
      "note": 95,
      "start": 1.8174,
      "duration": 0.094,
      "velocity": 102,
      "chip": "ym2612"
    },
    {
      "channel": 1,
      "note": 54,
      "start": 1.818,
      "duration": 0.0938,
      "velocity": 77,
      "chip": "ym2612"
    },
    {
      "channel": 3,
      "note": 92,
      "start": 1.8189,
      "duration": 0.0935,
      "velocity": 102,
      "chip": "ym2612"
    },
    {
      "channel": 2,
      "note": 103,
      "start": 1.8211,
      "duration": 0.1228,
      "velocity": 103,
      "chip": "ym2612"
    },
    {
      "channel": 4,
      "note": 92,
      "start": 1.9135,
      "duration": 0.096,
      "velocity": 102,
      "chip": "ym2612"
    },
    {
      "channel": 1,
      "note": 54,
      "start": 1.9475,
      "duration": 0.0941,
      "velocity": 77,
      "chip": "ym2612"
    },
    {
      "channel": 2,
      "note": 56,
      "start": 1.9499,
      "duration": 0.0929,
      "velocity": 112,
      "chip": "ym2612"
    },
    {
      "channel": 5,
      "note": 95,
      "start": 2.0107,
      "duration": 0.0967,
      "velocity": 102,
      "chip": "ym2612"
    },
    {
      "channel": 0,
      "note": 97,
      "start": 2.0746,
      "duration": 0.0968,
      "velocity": 102,
      "chip": "ym2612"
    },
    {
      "channel": 3,
      "note": 93,
      "start": 2.0757,
      "duration": 0.0964,
      "velocity": 102,
      "chip": "ym2612"
    },
    {
      "channel": 4,
      "note": 93,
      "start": 2.1733,
      "duration": 0.0963,
      "velocity": 102,
      "chip": "ym2612"
    },
    {
      "channel": 1,
      "note": 54,
      "start": 2.2076,
      "duration": 0.0941,
      "velocity": 77,
      "chip": "ym2612"
    },
    {
      "channel": 2,
      "note": 103,
      "start": 2.2099,
      "duration": 0.124,
      "velocity": 103,
      "chip": "ym2612"
    },
    {
      "channel": 5,
      "note": 97,
      "start": 2.2708,
      "duration": 0.0968,
      "velocity": 102,
      "chip": "ym2612"
    },
    {
      "channel": 0,
      "note": 104,
      "start": 2.3374,
      "duration": 0.0941,
      "velocity": 102,
      "chip": "ym2612"
    },
    {
      "channel": 1,
      "note": 54,
      "start": 2.3382,
      "duration": 0.0938,
      "velocity": 77,
      "chip": "ym2612"
    },
    {
      "channel": 3,
      "note": 100,
      "start": 2.339,
      "duration": 0.0934,
      "velocity": 102,
      "chip": "ym2612"
    },
    {
      "channel": 2,
      "note": 103,
      "start": 2.3412,
      "duration": 0.1239,
      "velocity": 103,
      "chip": "ym2612"
    },
    {
      "channel": 4,
      "note": 100,
      "start": 2.4336,
      "duration": 0.0958,
      "velocity": 102,
      "chip": "ym2612"
    },
    {
      "channel": 5,
      "note": 104,
      "start": 2.5306,
      "duration": 0.097,
      "velocity": 102,
      "chip": "ym2612"
    },
    {
      "channel": 0,
      "note": 102,
      "start": 2.5974,
      "duration": 0.0941,
      "velocity": 102,
      "chip": "ym2612"
    },
    {
      "channel": 1,
      "note": 54,
      "start": 2.5983,
      "duration": 0.0938,
      "velocity": 77,
      "chip": "ym2612"
    },
    {
      "channel": 3,
      "note": 98,
      "start": 2.5991,
      "duration": 0.0934,
      "velocity": 102,
      "chip": "ym2612"
    },
    {
      "channel": 2,
      "note": 103,
      "start": 2.6013,
      "duration": 0.1227,
      "velocity": 103,
      "chip": "ym2612"
    },
    {
      "channel": 4,
      "note": 98,
      "start": 2.6937,
      "duration": 0.0959,
      "velocity": 102,
      "chip": "ym2612"
    },
    {
      "channel": 1,
      "note": 54,
      "start": 2.7276,
      "duration": 0.0941,
      "velocity": 77,
      "chip": "ym2612"
    },
    {
      "channel": 2,
      "note": 56,
      "start": 2.7299,
      "duration": 0.0929,
      "velocity": 112,
      "chip": "ym2612"
    },
    {
      "channel": 5,
      "note": 102,
      "start": 2.7908,
      "duration": 0.0966,
      "velocity": 102,
      "chip": "ym2612"
    },
    {
      "channel": 0,
      "note": 100,
      "start": 2.8575,
      "duration": 0.094,
      "velocity": 102,
      "chip": "ym2612"
    },
    {
      "channel": 3,
      "note": 97,
      "start": 2.8584,
      "duration": 0.0937,
      "velocity": 102,
      "chip": "ym2612"
    },
    {
      "channel": 2,
      "note": 26,
      "start": 2.8606,
      "duration": 0.0595,
      "velocity": 120,
      "chip": "ym2612"
    },
    {
      "channel": 4,
      "note": 97,
      "start": 2.9534,
      "duration": 0.0963,
      "velocity": 102,
      "chip": "ym2612"
    },
    {
      "channel": 1,
      "note": 54,
      "start": 2.9876,
      "duration": 0.0941,
      "velocity": 77,
      "chip": "ym2612"
    },
    {
      "channel": 2,
      "note": 26,
      "start": 2.9899,
      "duration": 0.0612,
      "velocity": 120,
      "chip": "ym2612"
    },
    {
      "channel": 5,
      "note": 100,
      "start": 3.0509,
      "duration": 0.0968,
      "velocity": 102,
      "chip": "ym2612"
    },
    {
      "channel": 0,
      "note": 100,
      "start": 3.1176,
      "duration": 0.094,
      "velocity": 102,
      "chip": "ym2612"
    },
    {
      "channel": 1,
      "note": 50,
      "start": 3.1184,
      "duration": 0.2592,
      "velocity": 77,
      "chip": "ym2612"
    },
    {
      "channel": 3,
      "note": 95,
      "start": 3.1193,
      "duration": 0.0931,
      "velocity": 102,
      "chip": "ym2612"
    },
    {
      "channel": 2,
      "note": 26,
      "start": 3.1213,
      "duration": 0.059,
      "velocity": 120,
      "chip": "ym2612"
    },
    {
      "channel": 4,
      "note": 95,
      "start": 3.2135,
      "duration": 0.0962,
      "velocity": 102,
      "chip": "ym2612"
    },
    {
      "channel": 5,
      "note": 100,
      "start": 3.3109,
      "duration": 0.0968,
      "velocity": 102,
      "chip": "ym2612"
    },
    {
      "channel": 0,
      "note": 98,
      "start": 3.3775,
      "duration": 0.0941,
      "velocity": 102,
      "chip": "ym2612"
    },
    {
      "channel": 1,
      "note": 50,
      "start": 3.3782,
      "duration": 0.0939,
      "velocity": 77,
      "chip": "ym2612"
    },
    {
      "channel": 3,
      "note": 93,
      "start": 3.379,
      "duration": 0.0935,
      "velocity": 102,
      "chip": "ym2612"
    },
    {
      "channel": 2,
      "note": 103,
      "start": 3.3812,
      "duration": 0.1229,
      "velocity": 103,
      "chip": "ym2612"
    },
    {
      "channel": 4,
      "note": 93,
      "start": 3.4737,
      "duration": 0.096,
      "velocity": 102,
      "chip": "ym2612"
    },
    {
      "channel": 1,
      "note": 50,
      "start": 3.5076,
      "duration": 0.0941,
      "velocity": 77,
      "chip": "ym2612"
    },
    {
      "channel": 2,
      "note": 56,
      "start": 3.51,
      "duration": 0.093,
      "velocity": 112,
      "chip": "ym2612"
    },
    {
      "channel": 5,
      "note": 98,
      "start": 3.5709,
      "duration": 0.0966,
      "velocity": 102,
      "chip": "ym2612"
    },
    {
      "channel": 0,
      "note": 100,
      "start": 3.6348,
      "duration": 0.0969,
      "velocity": 102,
      "chip": "ym2612"
    },
    {
      "channel": 3,
      "note": 95,
      "start": 3.6358,
      "duration": 0.0965,
      "velocity": 102,
      "chip": "ym2612"
    },
    {
      "channel": 4,
      "note": 95,
      "start": 3.7334,
      "duration": 0.0963,
      "velocity": 102,
      "chip": "ym2612"
    },
    {
      "channel": 1,
      "note": 50,
      "start": 3.7677,
      "duration": 0.0941,
      "velocity": 77,
      "chip": "ym2612"
    },
    {
      "channel": 2,
      "note": 103,
      "start": 3.7701,
      "duration": 0.1241,
      "velocity": 103,
      "chip": "ym2612"
    },
    {
      "channel": 5,
      "note": 100,
      "start": 3.8309,
      "duration": 0.0968,
      "velocity": 102,
      "chip": "ym2612"
    },
    {
      "channel": 0,
      "note": 98,
      "start": 3.8976,
      "duration": 0.0941,
      "velocity": 102,
      "chip": "ym2612"
    },
    {
      "channel": 1,
      "note": 50,
      "start": 3.8985,
      "duration": 0.0937,
      "velocity": 77,
      "chip": "ym2612"
    },
    {
      "channel": 3,
      "note": 93,
      "start": 3.8993,
      "duration": 0.0933,
      "velocity": 102,
      "chip": "ym2612"
    },
    {
      "channel": 2,
      "note": 103,
      "start": 3.9014,
      "duration": 0.1251,
      "velocity": 103,
      "chip": "ym2612"
    },
    {
      "channel": 4,
      "note": 93,
      "start": 3.9938,
      "duration": 0.0961,
      "velocity": 102,
      "chip": "ym2612"
    },
    {
      "channel": 0,
      "note": 98,
      "start": 4.0249,
      "duration": 0.0968,
      "velocity": 102,
      "chip": "ym2612"
    },
    {
      "channel": 3,
      "note": 93,
      "start": 4.0259,
      "duration": 0.0964,
      "velocity": 102,
      "chip": "ym2612"
    },
    {
      "channel": 5,
      "note": 98,
      "start": 4.0911,
      "duration": 0.0965,
      "velocity": 102,
      "chip": "ym2612"
    },
    {
      "channel": 4,
      "note": 93,
      "start": 4.1235,
      "duration": 0.0962,
      "velocity": 102,
      "chip": "ym2612"
    },
    {
      "channel": 1,
      "note": 50,
      "start": 4.1577,
      "duration": 0.0941,
      "velocity": 77,
      "chip": "ym2612"
    },
    {
      "channel": 2,
      "note": 103,
      "start": 4.1602,
      "duration": 0.1239,
      "velocity": 103,
      "chip": "ym2612"
    },
    {
      "channel": 5,
      "note": 98,
      "start": 4.221,
      "duration": 0.0965,
      "velocity": 102,
      "chip": "ym2612"
    },
    {
      "channel": 1,
      "note": 50,
      "start": 4.2877,
      "duration": 0.0942,
      "velocity": 77,
      "chip": "ym2612"
    },
    {
      "channel": 2,
      "note": 56,
      "start": 4.29,
      "duration": 0.0929,
      "velocity": 112,
      "chip": "ym2612"
    },
    {
      "channel": 0,
      "note": 95,
      "start": 4.4177,
      "duration": 0.094,
      "velocity": 102,
      "chip": "ym2612"
    },
    {
      "channel": 3,
      "note": 90,
      "start": 4.4186,
      "duration": 0.0937,
      "velocity": 102,
      "chip": "ym2612"
    },
    {
      "channel": 2,
      "note": 26,
      "start": 4.4206,
      "duration": 0.0597,
      "velocity": 120,
      "chip": "ym2612"
    },
    {
      "channel": 4,
      "note": 90,
      "start": 4.5135,
      "duration": 0.0964,
      "velocity": 102,
      "chip": "ym2612"
    },
    {
      "channel": 1,
      "note": 50,
      "start": 4.5477,
      "duration": 0.0941,
      "velocity": 77,
      "chip": "ym2612"
    },
    {
      "channel": 2,
      "note": 26,
      "start": 4.5501,
      "duration": 0.0611,
      "velocity": 120,
      "chip": "ym2612"
    },
    {
      "channel": 5,
      "note": 95,
      "start": 4.611,
      "duration": 0.0968,
      "velocity": 102,
      "chip": "ym2612"
    },
    {
      "channel": 0,
      "note": 92,
      "start": 4.6777,
      "duration": 0.094,
      "velocity": 102,
      "chip": "ym2612"
    },
    {
      "channel": 1,
      "note": 52,
      "start": 4.6785,
      "duration": 0.2593,
      "velocity": 77,
      "chip": "ym2612"
    },
    {
      "channel": 3,
      "note": 88,
      "start": 4.6793,
      "duration": 0.0932,
      "velocity": 102,
      "chip": "ym2612"
    },
    {
      "channel": 2,
      "note": 26,
      "start": 4.6815,
      "duration": 0.059,
      "velocity": 120,
      "chip": "ym2612"
    },
    {
      "channel": 4,
      "note": 88,
      "start": 4.7737,
      "duration": 0.0961,
      "velocity": 102,
      "chip": "ym2612"
    },
    {
      "channel": 5,
      "note": 92,
      "start": 4.871,
      "duration": 0.0969,
      "velocity": 102,
      "chip": "ym2612"
    },
    {
      "channel": 0,
      "note": 92,
      "start": 4.9377,
      "duration": 0.0941,
      "velocity": 102,
      "chip": "ym2612"
    },
    {
      "channel": 1,
      "note": 52,
      "start": 4.9383,
      "duration": 0.0939,
      "velocity": 77,
      "chip": "ym2612"
    },
    {
      "channel": 3,
      "note": 88,
      "start": 4.9392,
      "duration": 0.0936,
      "velocity": 102,
      "chip": "ym2612"
    },
    {
      "channel": 2,
      "note": 103,
      "start": 4.9413,
      "duration": 0.1229,
      "velocity": 103,
      "chip": "ym2612"
    },
    {
      "channel": 4,
      "note": 88,
      "start": 5.0339,
      "duration": 0.0962,
      "velocity": 102,
      "chip": "ym2612"
    },
    {
      "channel": 0,
      "note": 95,
      "start": 5.0678,
      "duration": 0.094,
      "velocity": 102,
      "chip": "ym2612"
    },
    {
      "channel": 1,
      "note": 52,
      "start": 5.0685,
      "duration": 0.0937,
      "velocity": 77,
      "chip": "ym2612"
    },
    {
      "channel": 3,
      "note": 90,
      "start": 5.0694,
      "duration": 0.0933,
      "velocity": 102,
      "chip": "ym2612"
    },
    {
      "channel": 2,
      "note": 56,
      "start": 5.0716,
      "duration": 0.0928,
      "velocity": 112,
      "chip": "ym2612"
    },
    {
      "channel": 5,
      "note": 92,
      "start": 5.1314,
      "duration": 0.0964,
      "velocity": 102,
      "chip": "ym2612"
    },
    {
      "channel": 4,
      "note": 90,
      "start": 5.1638,
      "duration": 0.0962,
      "velocity": 102,
      "chip": "ym2612"
    },
    {
      "channel": 0,
      "note": 97,
      "start": 5.1949,
      "duration": 0.0968,
      "velocity": 102,
      "chip": "ym2612"
    },
    {
      "channel": 3,
      "note": 92,
      "start": 5.1959,
      "duration": 0.0965,
      "velocity": 102,
      "chip": "ym2612"
    },
    {
      "channel": 5,
      "note": 95,
      "start": 5.2612,
      "duration": 0.0968,
      "velocity": 102,
      "chip": "ym2612"
    },
    {
      "channel": 4,
      "note": 92,
      "start": 5.2936,
      "duration": 0.0966,
      "velocity": 102,
      "chip": "ym2612"
    },
    {
      "channel": 0,
      "note": 98,
      "start": 5.3277,
      "duration": 0.0941,
      "velocity": 102,
      "chip": "ym2612"
    },
    {
      "channel": 1,
      "note": 52,
      "start": 5.3285,
      "duration": 0.0938,
      "velocity": 77,
      "chip": "ym2612"
    },
    {
      "channel": 3,
      "note": 93,
      "start": 5.3293,
      "duration": 0.0934,
      "velocity": 102,
      "chip": "ym2612"
    },
    {
      "channel": 2,
      "note": 103,
      "start": 5.3317,
      "duration": 0.1225,
      "velocity": 103,
      "chip": "ym2612"
    },
    {
      "channel": 5,
      "note": 97,
      "start": 5.3913,
      "duration": 0.0967,
      "velocity": 102,
      "chip": "ym2612"
    },
    {
      "channel": 4,
      "note": 93,
      "start": 5.4239,
      "duration": 0.0963,
      "velocity": 102,
      "chip": "ym2612"
    },
    {
      "channel": 0,
      "note": 100,
      "start": 5.4577,
      "duration": 0.0941,
      "velocity": 102,
      "chip": "ym2612"
    },
    {
      "channel": 1,
      "note": 52,
      "start": 5.4585,
      "duration": 0.0938,
      "velocity": 77,
      "chip": "ym2612"
    },
    {
      "channel": 3,
      "note": 95,
      "start": 5.4593,
      "duration": 0.0934,
      "velocity": 102,
      "chip": "ym2612"
    },
    {
      "channel": 2,
      "note": 103,
      "start": 5.4617,
      "duration": 0.1238,
      "velocity": 103,
      "chip": "ym2612"
    },
    {
      "channel": 5,
      "note": 98,
      "start": 5.5214,
      "duration": 0.0962,
      "velocity": 102,
      "chip": "ym2612"
    },
    {
      "channel": 4,
      "note": 95,
      "start": 5.5539,
      "duration": 0.0958,
      "velocity": 102,
      "chip": "ym2612"
    },
    {
      "channel": 5,
      "note": 100,
      "start": 5.6509,
      "duration": 0.097,
      "velocity": 102,
      "chip": "ym2612"
    },
    {
      "channel": 0,
      "note": 100,
      "start": 5.7178,
      "duration": 0.094,
      "velocity": 102,
      "chip": "ym2612"
    },
    {
      "channel": 1,
      "note": 52,
      "start": 5.7186,
      "duration": 0.0936,
      "velocity": 77,
      "chip": "ym2612"
    },
    {
      "channel": 3,
      "note": 95,
      "start": 5.7194,
      "duration": 0.0933,
      "velocity": 102,
      "chip": "ym2612"
    },
    {
      "channel": 2,
      "note": 103,
      "start": 5.7216,
      "duration": 0.1227,
      "velocity": 103,
      "chip": "ym2612"
    },
    {
      "channel": 4,
      "note": 95,
      "start": 5.8139,
      "duration": 0.0963,
      "velocity": 102,
      "chip": "ym2612"
    },
    {
      "channel": 0,
      "note": 100,
      "start": 5.8478,
      "duration": 0.0941,
      "velocity": 102,
      "chip": "ym2612"
    },
    {
      "channel": 1,
      "note": 52,
      "start": 5.8486,
      "duration": 0.0937,
      "velocity": 77,
      "chip": "ym2612"
    },
    {
      "channel": 3,
      "note": 95,
      "start": 5.8494,
      "duration": 0.0934,
      "velocity": 102,
      "chip": "ym2612"
    },
    {
      "channel": 2,
      "note": 56,
      "start": 5.8516,
      "duration": 0.0929,
      "velocity": 112,
      "chip": "ym2612"
    },
    {
      "channel": 5,
      "note": 100,
      "start": 5.9114,
      "duration": 0.0963,
      "velocity": 102,
      "chip": "ym2612"
    },
    {
      "channel": 4,
      "note": 95,
      "start": 5.9439,
      "duration": 0.0959,
      "velocity": 102,
      "chip": "ym2612"
    },
    {
      "channel": 2,
      "note": 26,
      "start": 5.9797,
      "duration": 0.0615,
      "velocity": 120,
      "chip": "ym2612"
    },
    {
      "channel": 5,
      "note": 100,
      "start": 6.041,
      "duration": 0.0969,
      "velocity": 102,
      "chip": "ym2612"
    },
    {
      "channel": 0,
      "note": 100,
      "start": 6.1078,
      "duration": 0.0941,
      "velocity": 102,
      "chip": "ym2612"
    },
    {
      "channel": 1,
      "note": 52,
      "start": 6.1086,
      "duration": 0.0938,
      "velocity": 77,
      "chip": "ym2612"
    },
    {
      "channel": 3,
      "note": 95,
      "start": 6.1095,
      "duration": 0.0933,
      "velocity": 102,
      "chip": "ym2612"
    },
    {
      "channel": 2,
      "note": 26,
      "start": 6.1116,
      "duration": 0.059,
      "velocity": 120,
      "chip": "ym2612"
    },
    {
      "channel": 4,
      "note": 95,
      "start": 6.2041,
      "duration": 0.0962,
      "velocity": 102,
      "chip": "ym2612"
    },
    {
      "channel": 0,
      "note": 93,
      "start": 6.2404,
      "duration": 0.0915,
      "velocity": 102,
      "chip": "ym2612"
    },
    {
      "channel": 1,
      "note": 57,
      "start": 6.2413,
      "duration": 0.2567,
      "velocity": 77,
      "chip": "ym2612"
    },
    {
      "channel": 3,
      "note": 88,
      "start": 6.2423,
      "duration": 0.0903,
      "velocity": 102,
      "chip": "ym2612"
    },
    {
      "channel": 2,
      "note": 26,
      "start": 6.2445,
      "duration": 0.0571,
      "velocity": 120,
      "chip": "ym2612"
    },
    {
      "channel": 5,
      "note": 100,
      "start": 6.3014,
      "duration": 0.0963,
      "velocity": 102,
      "chip": "ym2612"
    },
    {
      "channel": 4,
      "note": 88,
      "start": 6.3339,
      "duration": 0.0961,
      "velocity": 102,
      "chip": "ym2612"
    },
    {
      "channel": 5,
      "note": 93,
      "start": 6.4313,
      "duration": 0.0966,
      "velocity": 102,
      "chip": "ym2612"
    },
    {
      "channel": 0,
      "note": 97,
      "start": 6.4978,
      "duration": 0.0941,
      "velocity": 102,
      "chip": "ym2612"
    },
    {
      "channel": 1,
      "note": 57,
      "start": 6.4985,
      "duration": 0.0938,
      "velocity": 77,
      "chip": "ym2612"
    },
    {
      "channel": 3,
      "note": 92,
      "start": 6.4993,
      "duration": 0.0935,
      "velocity": 102,
      "chip": "ym2612"
    },
    {
      "channel": 2,
      "note": 103,
      "start": 6.5015,
      "duration": 0.1228,
      "velocity": 103,
      "chip": "ym2612"
    },
    {
      "channel": 4,
      "note": 92,
      "start": 6.594,
      "duration": 0.096,
      "velocity": 102,
      "chip": "ym2612"
    },
    {
      "channel": 1,
      "note": 57,
      "start": 6.628,
      "duration": 0.0941,
      "velocity": 77,
      "chip": "ym2612"
    },
    {
      "channel": 2,
      "note": 56,
      "start": 6.6303,
      "duration": 0.0929,
      "velocity": 112,
      "chip": "ym2612"
    },
    {
      "channel": 5,
      "note": 97,
      "start": 6.6912,
      "duration": 0.0966,
      "velocity": 102,
      "chip": "ym2612"
    },
    {
      "channel": 0,
      "note": 100,
      "start": 6.7551,
      "duration": 0.0968,
      "velocity": 102,
      "chip": "ym2612"
    },
    {
      "channel": 3,
      "note": 95,
      "start": 6.7561,
      "duration": 0.0964,
      "velocity": 102,
      "chip": "ym2612"
    },
    {
      "channel": 4,
      "note": 95,
      "start": 6.8537,
      "duration": 0.0963,
      "velocity": 102,
      "chip": "ym2612"
    },
    {
      "channel": 1,
      "note": 57,
      "start": 6.888,
      "duration": 0.0941,
      "velocity": 77,
      "chip": "ym2612"
    },
    {
      "channel": 2,
      "note": 103,
      "start": 6.8903,
      "duration": 0.1241,
      "velocity": 103,
      "chip": "ym2612"
    },
    {
      "channel": 5,
      "note": 100,
      "start": 6.9512,
      "duration": 0.0968,
      "velocity": 102,
      "chip": "ym2612"
    },
    {
      "channel": 0,
      "note": 102,
      "start": 7.0179,
      "duration": 0.094,
      "velocity": 102,
      "chip": "ym2612"
    },
    {
      "channel": 1,
      "note": 57,
      "start": 7.0187,
      "duration": 0.0937,
      "velocity": 77,
      "chip": "ym2612"
    },
    {
      "channel": 3,
      "note": 97,
      "start": 7.0196,
      "duration": 0.0933,
      "velocity": 102,
      "chip": "ym2612"
    },
    {
      "channel": 2,
      "note": 103,
      "start": 7.0217,
      "duration": 0.1237,
      "velocity": 103,
      "chip": "ym2612"
    },
    {
      "channel": 4,
      "note": 97,
      "start": 7.114,
      "duration": 0.0959,
      "velocity": 102,
      "chip": "ym2612"
    },
    {
      "channel": 5,
      "note": 102,
      "start": 7.211,
      "duration": 0.097,
      "velocity": 102,
      "chip": "ym2612"
    },
    {
      "channel": 0,
      "note": 97,
      "start": 7.2779,
      "duration": 0.0941,
      "velocity": 102,
      "chip": "ym2612"
    },
    {
      "channel": 1,
      "note": 57,
      "start": 7.2787,
      "duration": 0.0937,
      "velocity": 77,
      "chip": "ym2612"
    },
    {
      "channel": 3,
      "note": 93,
      "start": 7.2795,
      "duration": 0.0933,
      "velocity": 102,
      "chip": "ym2612"
    },
    {
      "channel": 2,
      "note": 103,
      "start": 7.2818,
      "duration": 0.1226,
      "velocity": 103,
      "chip": "ym2612"
    },
    {
      "channel": 4,
      "note": 93,
      "start": 7.3741,
      "duration": 0.096,
      "velocity": 102,
      "chip": "ym2612"
    },
    {
      "channel": 1,
      "note": 57,
      "start": 7.408,
      "duration": 0.0941,
      "velocity": 77,
      "chip": "ym2612"
    },
    {
      "channel": 2,
      "note": 56,
      "start": 7.4104,
      "duration": 0.0929,
      "velocity": 112,
      "chip": "ym2612"
    },
    {
      "channel": 5,
      "note": 97,
      "start": 7.4713,
      "duration": 0.0966,
      "velocity": 102,
      "chip": "ym2612"
    },
    {
      "channel": 0,
      "note": 92,
      "start": 7.5379,
      "duration": 0.0941,
      "velocity": 102,
      "chip": "ym2612"
    },
    {
      "channel": 3,
      "note": 88,
      "start": 7.5388,
      "duration": 0.0938,
      "velocity": 102,
      "chip": "ym2612"
    },
    {
      "channel": 2,
      "note": 26,
      "start": 7.541,
      "duration": 0.0597,
      "velocity": 120,
      "chip": "ym2612"
    },
    {
      "channel": 4,
      "note": 88,
      "start": 7.6338,
      "duration": 0.0964,
      "velocity": 102,
      "chip": "ym2612"
    },
    {
      "channel": 1,
      "note": 57,
      "start": 7.6681,
      "duration": 0.0941,
      "velocity": 77,
      "chip": "ym2612"
    },
    {
      "channel": 2,
      "note": 26,
      "start": 7.6704,
      "duration": 0.0611,
      "velocity": 120,
      "chip": "ym2612"
    },
    {
      "channel": 5,
      "note": 92,
      "start": 7.7313,
      "duration": 0.0968,
      "velocity": 102,
      "chip": "ym2612"
    },
    {
      "channel": 0,
      "note": 93,
      "start": 7.7981,
      "duration": 0.0939,
      "velocity": 102,
      "chip": "ym2612"
    },
    {
      "channel": 1,
      "note": 54,
      "start": 7.7988,
      "duration": 0.2593,
      "velocity": 77,
      "chip": "ym2612"
    },
    {
      "channel": 3,
      "note": 90,
      "start": 7.7997,
      "duration": 0.0931,
      "velocity": 102,
      "chip": "ym2612"
    },
    {
      "channel": 2,
      "note": 26,
      "start": 7.8018,
      "duration": 0.0589,
      "velocity": 120,
      "chip": "ym2612"
    },
    {
      "channel": 4,
      "note": 90,
      "start": 7.894,
      "duration": 0.0962,
      "velocity": 102,
      "chip": "ym2612"
    },
    {
      "channel": 5,
      "note": 93,
      "start": 7.9913,
      "duration": 0.0968,
      "velocity": 102,
      "chip": "ym2612"
    },
    {
      "channel": 0,
      "note": 95,
      "start": 8.058,
      "duration": 0.0941,
      "velocity": 102,
      "chip": "ym2612"
    },
    {
      "channel": 1,
      "note": 54,
      "start": 8.0586,
      "duration": 0.0939,
      "velocity": 77,
      "chip": "ym2612"
    },
    {
      "channel": 3,
      "note": 92,
      "start": 8.0595,
      "duration": 0.0936,
      "velocity": 102,
      "chip": "ym2612"
    },
    {
      "channel": 2,
      "note": 103,
      "start": 8.0616,
      "duration": 0.1229,
      "velocity": 103,
      "chip": "ym2612"
    },
    {
      "channel": 4,
      "note": 92,
      "start": 8.1542,
      "duration": 0.096,
      "velocity": 102,
      "chip": "ym2612"
    },
    {
      "channel": 1,
      "note": 54,
      "start": 8.1881,
      "duration": 0.0941,
      "velocity": 77,
      "chip": "ym2612"
    },
    {
      "channel": 2,
      "note": 56,
      "start": 8.1904,
      "duration": 0.0929,
      "velocity": 112,
      "chip": "ym2612"
    },
    {
      "channel": 5,
      "note": 95,
      "start": 8.2514,
      "duration": 0.0966,
      "velocity": 102,
      "chip": "ym2612"
    },
    {
      "channel": 0,
      "note": 97,
      "start": 8.3153,
      "duration": 0.0968,
      "velocity": 102,
      "chip": "ym2612"
    },
    {
      "channel": 3,
      "note": 93,
      "start": 8.3163,
      "duration": 0.0964,
      "velocity": 102,
      "chip": "ym2612"
    },
    {
      "channel": 4,
      "note": 93,
      "start": 8.4139,
      "duration": 0.0963,
      "velocity": 102,
      "chip": "ym2612"
    },
    {
      "channel": 1,
      "note": 54,
      "start": 8.4482,
      "duration": 0.094,
      "velocity": 77,
      "chip": "ym2612"
    },
    {
      "channel": 2,
      "note": 103,
      "start": 8.4505,
      "duration": 0.1241,
      "velocity": 103,
      "chip": "ym2612"
    },
    {
      "channel": 5,
      "note": 97,
      "start": 8.5114,
      "duration": 0.0968,
      "velocity": 102,
      "chip": "ym2612"
    },
    {
      "channel": 0,
      "note": 104,
      "start": 8.578,
      "duration": 0.0941,
      "velocity": 102,
      "chip": "ym2612"
    },
    {
      "channel": 1,
      "note": 54,
      "start": 8.5788,
      "duration": 0.0938,
      "velocity": 77,
      "chip": "ym2612"
    },
    {
      "channel": 3,
      "note": 100,
      "start": 8.5796,
      "duration": 0.0934,
      "velocity": 102,
      "chip": "ym2612"
    },
    {
      "channel": 2,
      "note": 103,
      "start": 8.5818,
      "duration": 0.1237,
      "velocity": 103,
      "chip": "ym2612"
    },
    {
      "channel": 4,
      "note": 100,
      "start": 8.6742,
      "duration": 0.0958,
      "velocity": 102,
      "chip": "ym2612"
    },
    {
      "channel": 5,
      "note": 104,
      "start": 8.7712,
      "duration": 0.0969,
      "velocity": 102,
      "chip": "ym2612"
    },
    {
      "channel": 0,
      "note": 102,
      "start": 8.838,
      "duration": 0.0941,
      "velocity": 102,
      "chip": "ym2612"
    },
    {
      "channel": 1,
      "note": 54,
      "start": 8.8388,
      "duration": 0.0938,
      "velocity": 77,
      "chip": "ym2612"
    },
    {
      "channel": 3,
      "note": 98,
      "start": 8.8396,
      "duration": 0.0934,
      "velocity": 102,
      "chip": "ym2612"
    },
    {
      "channel": 2,
      "note": 103,
      "start": 8.8418,
      "duration": 0.1228,
      "velocity": 103,
      "chip": "ym2612"
    },
    {
      "channel": 4,
      "note": 98,
      "start": 8.9343,
      "duration": 0.096,
      "velocity": 102,
      "chip": "ym2612"
    },
    {
      "channel": 1,
      "note": 54,
      "start": 8.9682,
      "duration": 0.094,
      "velocity": 77,
      "chip": "ym2612"
    },
    {
      "channel": 2,
      "note": 56,
      "start": 8.9706,
      "duration": 0.0929,
      "velocity": 112,
      "chip": "ym2612"
    },
    {
      "channel": 5,
      "note": 102,
      "start": 9.0315,
      "duration": 0.0966,
      "velocity": 102,
      "chip": "ym2612"
    },
    {
      "channel": 0,
      "note": 100,
      "start": 9.0981,
      "duration": 0.0939,
      "velocity": 102,
      "chip": "ym2612"
    },
    {
      "channel": 3,
      "note": 97,
      "start": 9.0991,
      "duration": 0.0936,
      "velocity": 102,
      "chip": "ym2612"
    },
    {
      "channel": 2,
      "note": 26,
      "start": 9.1012,
      "duration": 0.0595,
      "velocity": 120,
      "chip": "ym2612"
    },
    {
      "channel": 4,
      "note": 97,
      "start": 9.1939,
      "duration": 0.0963,
      "velocity": 102,
      "chip": "ym2612"
    },
    {
      "channel": 1,
      "note": 54,
      "start": 9.2282,
      "duration": 0.0941,
      "velocity": 77,
      "chip": "ym2612"
    },
    {
      "channel": 2,
      "note": 26,
      "start": 9.2305,
      "duration": 0.0612,
      "velocity": 120,
      "chip": "ym2612"
    },
    {
      "channel": 5,
      "note": 100,
      "start": 9.2915,
      "duration": 0.0968,
      "velocity": 102,
      "chip": "ym2612"
    },
    {
      "channel": 0,
      "note": 100,
      "start": 9.3582,
      "duration": 0.0939,
      "velocity": 102,
      "chip": "ym2612"
    },
    {
      "channel": 1,
      "note": 50,
      "start": 9.3589,
      "duration": 0.2594,
      "velocity": 77,
      "chip": "ym2612"
    },
    {
      "channel": 3,
      "note": 95,
      "start": 9.3598,
      "duration": 0.0931,
      "velocity": 102,
      "chip": "ym2612"
    },
    {
      "channel": 2,
      "note": 26,
      "start": 9.3619,
      "duration": 0.059,
      "velocity": 120,
      "chip": "ym2612"
    },
    {
      "channel": 4,
      "note": 95,
      "start": 9.4541,
      "duration": 0.0962,
      "velocity": 102,
      "chip": "ym2612"
    },
    {
      "channel": 5,
      "note": 100,
      "start": 9.5515,
      "duration": 0.0968,
      "velocity": 102,
      "chip": "ym2612"
    },
    {
      "channel": 0,
      "note": 98,
      "start": 9.6182,
      "duration": 0.094,
      "velocity": 102,
      "chip": "ym2612"
    },
    {
      "channel": 1,
      "note": 50,
      "start": 9.6188,
      "duration": 0.0938,
      "velocity": 77,
      "chip": "ym2612"
    },
    {
      "channel": 3,
      "note": 93,
      "start": 9.6196,
      "duration": 0.0935,
      "velocity": 102,
      "chip": "ym2612"
    },
    {
      "channel": 2,
      "note": 103,
      "start": 9.6218,
      "duration": 0.1229,
      "velocity": 103,
      "chip": "ym2612"
    },
    {
      "channel": 4,
      "note": 93,
      "start": 9.7143,
      "duration": 0.096,
      "velocity": 102,
      "chip": "ym2612"
    },
    {
      "channel": 1,
      "note": 50,
      "start": 9.7483,
      "duration": 0.094,
      "velocity": 77,
      "chip": "ym2612"
    },
    {
      "channel": 2,
      "note": 56,
      "start": 9.7507,
      "duration": 0.0929,
      "velocity": 112,
      "chip": "ym2612"
    },
    {
      "channel": 5,
      "note": 98,
      "start": 9.8115,
      "duration": 0.0966,
      "velocity": 102,
      "chip": "ym2612"
    },
    {
      "channel": 0,
      "note": 100,
      "start": 9.8754,
      "duration": 0.0968,
      "velocity": 102,
      "chip": "ym2612"
    },
    {
      "channel": 3,
      "note": 95,
      "start": 9.8764,
      "duration": 0.0964,
      "velocity": 102,
      "chip": "ym2612"
    },
    {
      "channel": 4,
      "note": 95,
      "start": 9.974,
      "duration": 0.0963,
      "velocity": 102,
      "chip": "ym2612"
    },
    {
      "channel": 1,
      "note": 50,
      "start": 10.0083,
      "duration": 0.0941,
      "velocity": 77,
      "chip": "ym2612"
    },
    {
      "channel": 2,
      "note": 103,
      "start": 10.0106,
      "duration": 0.1241,
      "velocity": 103,
      "chip": "ym2612"
    },
    {
      "channel": 5,
      "note": 100,
      "start": 10.0715,
      "duration": 0.0968,
      "velocity": 102,
      "chip": "ym2612"
    },
    {
      "channel": 0,
      "note": 98,
      "start": 10.1382,
      "duration": 0.0941,
      "velocity": 102,
      "chip": "ym2612"
    },
    {
      "channel": 1,
      "note": 50,
      "start": 10.139,
      "duration": 0.0938,
      "velocity": 77,
      "chip": "ym2612"
    },
    {
      "channel": 3,
      "note": 93,
      "start": 10.1398,
      "duration": 0.0934,
      "velocity": 102,
      "chip": "ym2612"
    },
    {
      "channel": 2,
      "note": 103,
      "start": 10.142,
      "duration": 0.1251,
      "velocity": 103,
      "chip": "ym2612"
    },
    {
      "channel": 4,
      "note": 93,
      "start": 10.2344,
      "duration": 0.0961,
      "velocity": 102,
      "chip": "ym2612"
    },
    {
      "channel": 0,
      "note": 98,
      "start": 10.2655,
      "duration": 0.0968,
      "velocity": 102,
      "chip": "ym2612"
    },
    {
      "channel": 3,
      "note": 93,
      "start": 10.2664,
      "duration": 0.0964,
      "velocity": 102,
      "chip": "ym2612"
    },
    {
      "channel": 5,
      "note": 98,
      "start": 10.3317,
      "duration": 0.0965,
      "velocity": 102,
      "chip": "ym2612"
    },
    {
      "channel": 4,
      "note": 93,
      "start": 10.364,
      "duration": 0.0963,
      "velocity": 102,
      "chip": "ym2612"
    },
    {
      "channel": 1,
      "note": 50,
      "start": 10.3983,
      "duration": 0.0941,
      "velocity": 77,
      "chip": "ym2612"
    },
    {
      "channel": 2,
      "note": 103,
      "start": 10.4008,
      "duration": 0.1239,
      "velocity": 103,
      "chip": "ym2612"
    },
    {
      "channel": 5,
      "note": 98,
      "start": 10.4615,
      "duration": 0.0964,
      "velocity": 102,
      "chip": "ym2612"
    },
    {
      "channel": 1,
      "note": 50,
      "start": 10.5283,
      "duration": 0.0942,
      "velocity": 77,
      "chip": "ym2612"
    },
    {
      "channel": 2,
      "note": 56,
      "start": 10.5306,
      "duration": 0.0929,
      "velocity": 112,
      "chip": "ym2612"
    },
    {
      "channel": 0,
      "note": 95,
      "start": 10.6583,
      "duration": 0.094,
      "velocity": 102,
      "chip": "ym2612"
    },
    {
      "channel": 3,
      "note": 90,
      "start": 10.6592,
      "duration": 0.0937,
      "velocity": 102,
      "chip": "ym2612"
    },
    {
      "channel": 2,
      "note": 26,
      "start": 10.6612,
      "duration": 0.0597,
      "velocity": 120,
      "chip": "ym2612"
    },
    {
      "channel": 4,
      "note": 90,
      "start": 10.754,
      "duration": 0.0964,
      "velocity": 102,
      "chip": "ym2612"
    },
    {
      "channel": 1,
      "note": 50,
      "start": 10.7883,
      "duration": 0.0941,
      "velocity": 77,
      "chip": "ym2612"
    },
    {
      "channel": 2,
      "note": 26,
      "start": 10.7907,
      "duration": 0.0611,
      "velocity": 120,
      "chip": "ym2612"
    },
    {
      "channel": 5,
      "note": 95,
      "start": 10.8516,
      "duration": 0.0968,
      "velocity": 102,
      "chip": "ym2612"
    },
    {
      "channel": 0,
      "note": 92,
      "start": 10.9183,
      "duration": 0.094,
      "velocity": 102,
      "chip": "ym2612"
    },
    {
      "channel": 1,
      "note": 52,
      "start": 10.9191,
      "duration": 0.2593,
      "velocity": 77,
      "chip": "ym2612"
    },
    {
      "channel": 3,
      "note": 88,
      "start": 10.92,
      "duration": 0.0931,
      "velocity": 102,
      "chip": "ym2612"
    },
    {
      "channel": 2,
      "note": 26,
      "start": 10.922,
      "duration": 0.059,
      "velocity": 120,
      "chip": "ym2612"
    },
    {
      "channel": 4,
      "note": 88,
      "start": 11.0143,
      "duration": 0.0962,
      "velocity": 102,
      "chip": "ym2612"
    },
    {
      "channel": 5,
      "note": 92,
      "start": 11.1116,
      "duration": 0.0968,
      "velocity": 102,
      "chip": "ym2612"
    },
    {
      "channel": 0,
      "note": 92,
      "start": 11.1783,
      "duration": 0.0941,
      "velocity": 102,
      "chip": "ym2612"
    },
    {
      "channel": 1,
      "note": 52,
      "start": 11.1789,
      "duration": 0.0939,
      "velocity": 77,
      "chip": "ym2612"
    },
    {
      "channel": 3,
      "note": 88,
      "start": 11.1798,
      "duration": 0.0936,
      "velocity": 102,
      "chip": "ym2612"
    },
    {
      "channel": 2,
      "note": 103,
      "start": 11.182,
      "duration": 0.1228,
      "velocity": 103,
      "chip": "ym2612"
    },
    {
      "channel": 4,
      "note": 88,
      "start": 11.2745,
      "duration": 0.0963,
      "velocity": 102,
      "chip": "ym2612"
    },
    {
      "channel": 0,
      "note": 95,
      "start": 11.3083,
      "duration": 0.094,
      "velocity": 102,
      "chip": "ym2612"
    },
    {
      "channel": 1,
      "note": 52,
      "start": 11.3091,
      "duration": 0.0938,
      "velocity": 77,
      "chip": "ym2612"
    },
    {
      "channel": 3,
      "note": 90,
      "start": 11.3099,
      "duration": 0.0934,
      "velocity": 102,
      "chip": "ym2612"
    },
    {
      "channel": 2,
      "note": 56,
      "start": 11.3121,
      "duration": 0.0929,
      "velocity": 112,
      "chip": "ym2612"
    },
    {
      "channel": 5,
      "note": 92,
      "start": 11.3719,
      "duration": 0.0965,
      "velocity": 102,
      "chip": "ym2612"
    },
    {
      "channel": 4,
      "note": 90,
      "start": 11.4044,
      "duration": 0.0962,
      "velocity": 102,
      "chip": "ym2612"
    },
    {
      "channel": 0,
      "note": 97,
      "start": 11.4355,
      "duration": 0.0968,
      "velocity": 102,
      "chip": "ym2612"
    },
    {
      "channel": 3,
      "note": 92,
      "start": 11.4366,
      "duration": 0.0964,
      "velocity": 102,
      "chip": "ym2612"
    },
    {
      "channel": 5,
      "note": 95,
      "start": 11.5017,
      "duration": 0.0969,
      "velocity": 102,
      "chip": "ym2612"
    },
    {
      "channel": 4,
      "note": 92,
      "start": 11.5341,
      "duration": 0.0966,
      "velocity": 102,
      "chip": "ym2612"
    },
    {
      "channel": 0,
      "note": 98,
      "start": 11.5684,
      "duration": 0.094,
      "velocity": 102,
      "chip": "ym2612"
    },
    {
      "channel": 1,
      "note": 52,
      "start": 11.5691,
      "duration": 0.0938,
      "velocity": 77,
      "chip": "ym2612"
    },
    {
      "channel": 3,
      "note": 93,
      "start": 11.57,
      "duration": 0.0934,
      "velocity": 102,
      "chip": "ym2612"
    },
    {
      "channel": 2,
      "note": 103,
      "start": 11.5723,
      "duration": 0.1225,
      "velocity": 103,
      "chip": "ym2612"
    },
    {
      "channel": 5,
      "note": 97,
      "start": 11.632,
      "duration": 0.0966,
      "velocity": 102,
      "chip": "ym2612"
    },
    {
      "channel": 4,
      "note": 93,
      "start": 11.6645,
      "duration": 0.0963,
      "velocity": 102,
      "chip": "ym2612"
    },
    {
      "channel": 0,
      "note": 100,
      "start": 11.6983,
      "duration": 0.0941,
      "velocity": 102,
      "chip": "ym2612"
    },
    {
      "channel": 1,
      "note": 52,
      "start": 11.6991,
      "duration": 0.0937,
      "velocity": 77,
      "chip": "ym2612"
    },
    {
      "channel": 3,
      "note": 95,
      "start": 11.7,
      "duration": 0.0934,
      "velocity": 102,
      "chip": "ym2612"
    },
    {
      "channel": 2,
      "note": 103,
      "start": 11.7023,
      "duration": 0.1237,
      "velocity": 103,
      "chip": "ym2612"
    },
    {
      "channel": 5,
      "note": 98,
      "start": 11.762,
      "duration": 0.0962,
      "velocity": 102,
      "chip": "ym2612"
    },
    {
      "channel": 4,
      "note": 95,
      "start": 11.7945,
      "duration": 0.0958,
      "velocity": 102,
      "chip": "ym2612"
    },
    {
      "channel": 5,
      "note": 100,
      "start": 11.8915,
      "duration": 0.0969,
      "velocity": 102,
      "chip": "ym2612"
    },
    {
      "channel": 0,
      "note": 100,
      "start": 11.9583,
      "duration": 0.0941,
      "velocity": 102,
      "chip": "ym2612"
    },
    {
      "channel": 1,
      "note": 52,
      "start": 11.9591,
      "duration": 0.0938,
      "velocity": 77,
      "chip": "ym2612"
    },
    {
      "channel": 3,
      "note": 95,
      "start": 11.9599,
      "duration": 0.0934,
      "velocity": 102,
      "chip": "ym2612"
    },
    {
      "channel": 2,
      "note": 103,
      "start": 11.9621,
      "duration": 0.1228,
      "velocity": 103,
      "chip": "ym2612"
    },
    {
      "channel": 4,
      "note": 95,
      "start": 12.0546,
      "duration": 0.0962,
      "velocity": 102,
      "chip": "ym2612"
    },
    {
      "channel": 0,
      "note": 100,
      "start": 12.0883,
      "duration": 0.0941,
      "velocity": 102,
      "chip": "ym2612"
    },
    {
      "channel": 1,
      "note": 52,
      "start": 12.0892,
      "duration": 0.0937,
      "velocity": 77,
      "chip": "ym2612"
    },
    {
      "channel": 3,
      "note": 95,
      "start": 12.09,
      "duration": 0.0934,
      "velocity": 102,
      "chip": "ym2612"
    },
    {
      "channel": 2,
      "note": 56,
      "start": 12.0922,
      "duration": 0.0929,
      "velocity": 112,
      "chip": "ym2612"
    },
    {
      "channel": 5,
      "note": 100,
      "start": 12.152,
      "duration": 0.0963,
      "velocity": 102,
      "chip": "ym2612"
    },
    {
      "channel": 4,
      "note": 95,
      "start": 12.1845,
      "duration": 0.0959,
      "velocity": 102,
      "chip": "ym2612"
    },
    {
      "channel": 2,
      "note": 26,
      "start": 12.2203,
      "duration": 0.0615,
      "velocity": 120,
      "chip": "ym2612"
    },
    {
      "channel": 5,
      "note": 100,
      "start": 12.2816,
      "duration": 0.0969,
      "velocity": 102,
      "chip": "ym2612"
    },
    {
      "channel": 0,
      "note": 100,
      "start": 12.3484,
      "duration": 0.0941,
      "velocity": 102,
      "chip": "ym2612"
    },
    {
      "channel": 1,
      "note": 52,
      "start": 12.3492,
      "duration": 0.0938,
      "velocity": 77,
      "chip": "ym2612"
    },
    {
      "channel": 3,
      "note": 95,
      "start": 12.3501,
      "duration": 0.0933,
      "velocity": 102,
      "chip": "ym2612"
    },
    {
      "channel": 2,
      "note": 26,
      "start": 12.3523,
      "duration": 0.0589,
      "velocity": 120,
      "chip": "ym2612"
    },
    {
      "channel": 4,
      "note": 95,
      "start": 12.4447,
      "duration": 0.0436,
      "velocity": 95,
      "chip": "ym2612"
    },
    {
      "channel": 0,
      "note": 84,
      "start": 12.481,
      "duration": 0.1891,
      "velocity": 87,
      "chip": "ym2612"
    },
    {
      "channel": 1,
      "note": 57,
      "start": 12.4819,
      "duration": 0.2566,
      "velocity": 77,
      "chip": "ym2612"
    },
    {
      "channel": 3,
      "note": 64,
      "start": 12.4855,
      "duration": 0.2537,
      "velocity": 95,
      "chip": "ym2612"
    },
    {
      "channel": 4,
      "note": 73,
      "start": 12.4889,
      "duration": 0.2509,
      "velocity": 95,
      "chip": "ym2612"
    },
    {
      "channel": 2,
      "note": 26,
      "start": 12.4907,
      "duration": 0.0513,
      "velocity": 120,
      "chip": "ym2612"
    },
    {
      "channel": 5,
      "note": 100,
      "start": 12.5418,
      "duration": 0.0969,
      "velocity": 102,
      "chip": "ym2612"
    },
    {
      "channel": 5,
      "note": 84,
      "start": 12.6747,
      "duration": 0.1963,
      "velocity": 87,
      "chip": "ym2612"
    },
    {
      "channel": 0,
      "note": 85,
      "start": 12.7384,
      "duration": 0.1294,
      "velocity": 87,
      "chip": "ym2612"
    },
    {
      "channel": 1,
      "note": 57,
      "start": 12.739,
      "duration": 0.0938,
      "velocity": 77,
      "chip": "ym2612"
    },
    {
      "channel": 3,
      "note": 64,
      "start": 12.7397,
      "duration": 0.0936,
      "velocity": 95,
      "chip": "ym2612"
    },
    {
      "channel": 4,
      "note": 73,
      "start": 12.7403,
      "duration": 0.0935,
      "velocity": 95,
      "chip": "ym2612"
    },
    {
      "channel": 2,
      "note": 103,
      "start": 12.7423,
      "duration": 0.1227,
      "velocity": 103,
      "chip": "ym2612"
    },
    {
      "channel": 0,
      "note": 84,
      "start": 12.8685,
      "duration": 0.2592,
      "velocity": 87,
      "chip": "ym2612"
    },
    {
      "channel": 1,
      "note": 57,
      "start": 12.8693,
      "duration": 0.0936,
      "velocity": 77,
      "chip": "ym2612"
    },
    {
      "channel": 3,
      "note": 64,
      "start": 12.8701,
      "duration": 0.0932,
      "velocity": 95,
      "chip": "ym2612"
    },
    {
      "channel": 4,
      "note": 73,
      "start": 12.8708,
      "duration": 0.0929,
      "velocity": 95,
      "chip": "ym2612"
    },
    {
      "channel": 2,
      "note": 56,
      "start": 12.8731,
      "duration": 0.0917,
      "velocity": 112,
      "chip": "ym2612"
    },
    {
      "channel": 5,
      "note": 85,
      "start": 12.932,
      "duration": 0.1288,
      "velocity": 87,
      "chip": "ym2612"
    },
    {
      "channel": 5,
      "note": 84,
      "start": 13.0615,
      "duration": 0.2598,
      "velocity": 87,
      "chip": "ym2612"
    },
    {
      "channel": 0,
      "note": 85,
      "start": 13.1284,
      "duration": 0.3895,
      "velocity": 87,
      "chip": "ym2612"
    },
    {
      "channel": 1,
      "note": 57,
      "start": 13.1292,
      "duration": 0.0936,
      "velocity": 77,
      "chip": "ym2612"
    },
    {
      "channel": 3,
      "note": 64,
      "start": 13.13,
      "duration": 0.0933,
      "velocity": 95,
      "chip": "ym2612"
    },
    {
      "channel": 4,
      "note": 73,
      "start": 13.1308,
      "duration": 0.0929,
      "velocity": 95,
      "chip": "ym2612"
    },
    {
      "channel": 2,
      "note": 103,
      "start": 13.1329,
      "duration": 0.122,
      "velocity": 103,
      "chip": "ym2612"
    },
    {
      "channel": 1,
      "note": 57,
      "start": 13.2587,
      "duration": 0.0942,
      "velocity": 77,
      "chip": "ym2612"
    },
    {
      "channel": 3,
      "note": 64,
      "start": 13.2595,
      "duration": 0.0938,
      "velocity": 95,
      "chip": "ym2612"
    },
    {
      "channel": 4,
      "note": 73,
      "start": 13.2603,
      "duration": 0.0935,
      "velocity": 95,
      "chip": "ym2612"
    },
    {
      "channel": 2,
      "note": 103,
      "start": 13.2624,
      "duration": 0.1238,
      "velocity": 103,
      "chip": "ym2612"
    },
    {
      "channel": 5,
      "note": 85,
      "start": 13.322,
      "duration": 0.3892,
      "velocity": 87,
      "chip": "ym2612"
    },
    {
      "channel": 0,
      "note": 81,
      "start": 13.5185,
      "duration": 0.3893,
      "velocity": 87,
      "chip": "ym2612"
    },
    {
      "channel": 1,
      "note": 57,
      "start": 13.5194,
      "duration": 0.0934,
      "velocity": 77,
      "chip": "ym2612"
    },
    {
      "channel": 3,
      "note": 64,
      "start": 13.5202,
      "duration": 0.0931,
      "velocity": 95,
      "chip": "ym2612"
    },
    {
      "channel": 4,
      "note": 73,
      "start": 13.521,
      "duration": 0.0928,
      "velocity": 95,
      "chip": "ym2612"
    },
    {
      "channel": 2,
      "note": 103,
      "start": 13.5231,
      "duration": 0.122,
      "velocity": 103,
      "chip": "ym2612"
    },
    {
      "channel": 1,
      "note": 57,
      "start": 13.6488,
      "duration": 0.094,
      "velocity": 77,
      "chip": "ym2612"
    },
    {
      "channel": 3,
      "note": 64,
      "start": 13.6496,
      "duration": 0.0938,
      "velocity": 95,
      "chip": "ym2612"
    },
    {
      "channel": 4,
      "note": 73,
      "start": 13.6504,
      "duration": 0.0934,
      "velocity": 95,
      "chip": "ym2612"
    },
    {
      "channel": 2,
      "note": 56,
      "start": 13.6525,
      "duration": 0.0922,
      "velocity": 112,
      "chip": "ym2612"
    },
    {
      "channel": 5,
      "note": 81,
      "start": 13.7119,
      "duration": 0.3894,
      "velocity": 87,
      "chip": "ym2612"
    },
    {
      "channel": 3,
      "note": 64,
      "start": 13.7789,
      "duration": 0.0941,
      "velocity": 95,
      "chip": "ym2612"
    },
    {
      "channel": 4,
      "note": 73,
      "start": 13.7798,
      "duration": 0.0938,
      "velocity": 95,
      "chip": "ym2612"
    },
    {
      "channel": 2,
      "note": 26,
      "start": 13.7818,
      "duration": 0.0598,
      "velocity": 120,
      "chip": "ym2612"
    },
    {
      "channel": 0,
      "note": 81,
      "start": 13.9085,
      "duration": 0.1295,
      "velocity": 87,
      "chip": "ym2612"
    },
    {
      "channel": 1,
      "note": 57,
      "start": 13.9093,
      "duration": 0.0937,
      "velocity": 77,
      "chip": "ym2612"
    },
    {
      "channel": 3,
      "note": 64,
      "start": 13.9101,
      "duration": 0.0933,
      "velocity": 95,
      "chip": "ym2612"
    },
    {
      "channel": 4,
      "note": 71,
      "start": 13.9109,
      "duration": 0.093,
      "velocity": 95,
      "chip": "ym2612"
    },
    {
      "channel": 2,
      "note": 26,
      "start": 13.9129,
      "duration": 0.0588,
      "velocity": 120,
      "chip": "ym2612"
    },
    {
      "channel": 0,
      "note": 83,
      "start": 14.0387,
      "duration": 0.5815,
      "velocity": 87,
      "chip": "ym2612"
    },
    {
      "channel": 1,
      "note": 54,
      "start": 14.0394,
      "duration": 0.2588,
      "velocity": 77,
      "chip": "ym2612"
    },
    {
      "channel": 3,
      "note": 64,
      "start": 14.0403,
      "duration": 0.0929,
      "velocity": 95,
      "chip": "ym2612"
    },
    {
      "channel": 4,
      "note": 69,
      "start": 14.0411,
      "duration": 0.2586,
      "velocity": 95,
      "chip": "ym2612"
    },
    {
      "channel": 2,
      "note": 26,
      "start": 14.0432,
      "duration": 0.059,
      "velocity": 120,
      "chip": "ym2612"
    },
    {
      "channel": 5,
      "note": 81,
      "start": 14.102,
      "duration": 0.1291,
      "velocity": 87,
      "chip": "ym2612"
    },
    {
      "channel": 5,
      "note": 83,
      "start": 14.2319,
      "duration": 0.5888,
      "velocity": 87,
      "chip": "ym2612"
    },
    {
      "channel": 1,
      "note": 54,
      "start": 14.2988,
      "duration": 0.0942,
      "velocity": 77,
      "chip": "ym2612"
    },
    {
      "channel": 3,
      "note": 64,
      "start": 14.2995,
      "duration": 0.0939,
      "velocity": 95,
      "chip": "ym2612"
    },
    {
      "channel": 4,
      "note": 69,
      "start": 14.3002,
      "duration": 0.0937,
      "velocity": 95,
      "chip": "ym2612"
    },
    {
      "channel": 2,
      "note": 103,
      "start": 14.3022,
      "duration": 0.1229,
      "velocity": 103,
      "chip": "ym2612"
    },
    {
      "channel": 1,
      "note": 54,
      "start": 14.4289,
      "duration": 0.0941,
      "velocity": 77,
      "chip": "ym2612"
    },
    {
      "channel": 3,
      "note": 64,
      "start": 14.4297,
      "duration": 0.0938,
      "velocity": 95,
      "chip": "ym2612"
    },
    {
      "channel": 4,
      "note": 69,
      "start": 14.4305,
      "duration": 0.0934,
      "velocity": 95,
      "chip": "ym2612"
    },
    {
      "channel": 2,
      "note": 56,
      "start": 14.4326,
      "duration": 0.0922,
      "velocity": 112,
      "chip": "ym2612"
    },
    {
      "channel": 0,
      "note": 81,
      "start": 14.6885,
      "duration": 0.3216,
      "velocity": 87,
      "chip": "ym2612"
    },
    {
      "channel": 1,
      "note": 54,
      "start": 14.6893,
      "duration": 0.0937,
      "velocity": 77,
      "chip": "ym2612"
    },
    {
      "channel": 3,
      "note": 64,
      "start": 14.6901,
      "duration": 0.0933,
      "velocity": 95,
      "chip": "ym2612"
    },
    {
      "channel": 4,
      "note": 69,
      "start": 14.691,
      "duration": 0.093,
      "velocity": 95,
      "chip": "ym2612"
    },
    {
      "channel": 2,
      "note": 103,
      "start": 14.693,
      "duration": 0.1221,
      "velocity": 103,
      "chip": "ym2612"
    },
    {
      "channel": 1,
      "note": 54,
      "start": 14.8189,
      "duration": 0.0941,
      "velocity": 77,
      "chip": "ym2612"
    },
    {
      "channel": 3,
      "note": 64,
      "start": 14.8197,
      "duration": 0.0937,
      "velocity": 95,
      "chip": "ym2612"
    },
    {
      "channel": 4,
      "note": 69,
      "start": 14.8205,
      "duration": 0.0934,
      "velocity": 95,
      "chip": "ym2612"
    },
    {
      "channel": 2,
      "note": 103,
      "start": 14.8227,
      "duration": 0.1237,
      "velocity": 103,
      "chip": "ym2612"
    },
    {
      "channel": 5,
      "note": 81,
      "start": 14.8821,
      "duration": 0.3285,
      "velocity": 87,
      "chip": "ym2612"
    },
    {
      "channel": 0,
      "note": 88,
      "start": 15.0786,
      "duration": 0.3894,
      "velocity": 87,
      "chip": "ym2612"
    },
    {
      "channel": 1,
      "note": 54,
      "start": 15.0794,
      "duration": 0.0936,
      "velocity": 77,
      "chip": "ym2612"
    },
    {
      "channel": 3,
      "note": 64,
      "start": 15.0802,
      "duration": 0.0933,
      "velocity": 95,
      "chip": "ym2612"
    },
    {
      "channel": 4,
      "note": 69,
      "start": 15.081,
      "duration": 0.0929,
      "velocity": 95,
      "chip": "ym2612"
    },
    {
      "channel": 2,
      "note": 103,
      "start": 15.0831,
      "duration": 0.1221,
      "velocity": 103,
      "chip": "ym2612"
    },
    {
      "channel": 1,
      "note": 54,
      "start": 15.2089,
      "duration": 0.0941,
      "velocity": 77,
      "chip": "ym2612"
    },
    {
      "channel": 3,
      "note": 64,
      "start": 15.2097,
      "duration": 0.0938,
      "velocity": 95,
      "chip": "ym2612"
    },
    {
      "channel": 4,
      "note": 69,
      "start": 15.2105,
      "duration": 0.0934,
      "velocity": 95,
      "chip": "ym2612"
    },
    {
      "channel": 2,
      "note": 56,
      "start": 15.2128,
      "duration": 0.0922,
      "velocity": 112,
      "chip": "ym2612"
    },
    {
      "channel": 5,
      "note": 88,
      "start": 15.2721,
      "duration": 0.3894,
      "velocity": 87,
      "chip": "ym2612"
    },
    {
      "channel": 3,
      "note": 64,
      "start": 15.3391,
      "duration": 0.0941,
      "velocity": 95,
      "chip": "ym2612"
    },
    {
      "channel": 4,
      "note": 69,
      "start": 15.3399,
      "duration": 0.0938,
      "velocity": 95,
      "chip": "ym2612"
    },
    {
      "channel": 2,
      "note": 26,
      "start": 15.3419,
      "duration": 0.0598,
      "velocity": 120,
      "chip": "ym2612"
    },
    {
      "channel": 0,
      "note": 88,
      "start": 15.4685,
      "duration": 0.1297,
      "velocity": 87,
      "chip": "ym2612"
    },
    {
      "channel": 1,
      "note": 54,
      "start": 15.4693,
      "duration": 0.0938,
      "velocity": 77,
      "chip": "ym2612"
    },
    {
      "channel": 3,
      "note": 64,
      "start": 15.4701,
      "duration": 0.0934,
      "velocity": 95,
      "chip": "ym2612"
    },
    {
      "channel": 4,
      "note": 68,
      "start": 15.4708,
      "duration": 0.0932,
      "velocity": 95,
      "chip": "ym2612"
    },
    {
      "channel": 2,
      "note": 26,
      "start": 15.4729,
      "duration": 0.059,
      "velocity": 120,
      "chip": "ym2612"
    },
    {
      "channel": 0,
      "note": 88,
      "start": 15.5986,
      "duration": 0.3217,
      "velocity": 87,
      "chip": "ym2612"
    },
    {
      "channel": 1,
      "note": 50,
      "start": 15.5994,
      "duration": 0.259,
      "velocity": 77,
      "chip": "ym2612"
    },
    {
      "channel": 3,
      "note": 66,
      "start": 15.6003,
      "duration": 0.0931,
      "velocity": 95,
      "chip": "ym2612"
    },
    {
      "channel": 4,
      "note": 69,
      "start": 15.6011,
      "duration": 0.2587,
      "velocity": 95,
      "chip": "ym2612"
    },
    {
      "channel": 2,
      "note": 26,
      "start": 15.6032,
      "duration": 0.059,
      "velocity": 120,
      "chip": "ym2612"
    },
    {
      "channel": 5,
      "note": 88,
      "start": 15.662,
      "duration": 0.1294,
      "velocity": 87,
      "chip": "ym2612"
    },
    {
      "channel": 5,
      "note": 88,
      "start": 15.7919,
      "duration": 0.3242,
      "velocity": 87,
      "chip": "ym2612"
    },
    {
      "channel": 1,
      "note": 50,
      "start": 15.8589,
      "duration": 0.094,
      "velocity": 77,
      "chip": "ym2612"
    },
    {
      "channel": 3,
      "note": 66,
      "start": 15.8597,
      "duration": 0.0937,
      "velocity": 95,
      "chip": "ym2612"
    },
    {
      "channel": 4,
      "note": 69,
      "start": 15.8603,
      "duration": 0.0935,
      "velocity": 95,
      "chip": "ym2612"
    },
    {
      "channel": 2,
      "note": 103,
      "start": 15.8624,
      "duration": 0.1228,
      "velocity": 103,
      "chip": "ym2612"
    },
    {
      "channel": 0,
      "note": 86,
      "start": 15.9887,
      "duration": 0.3893,
      "velocity": 87,
      "chip": "ym2612"
    },
    {
      "channel": 1,
      "note": 50,
      "start": 15.9895,
      "duration": 0.0936,
      "velocity": 77,
      "chip": "ym2612"
    },
    {
      "channel": 3,
      "note": 66,
      "start": 15.9903,
      "duration": 0.0933,
      "velocity": 95,
      "chip": "ym2612"
    },
    {
      "channel": 4,
      "note": 69,
      "start": 15.9911,
      "duration": 0.093,
      "velocity": 95,
      "chip": "ym2612"
    },
    {
      "channel": 2,
      "note": 56,
      "start": 15.9932,
      "duration": 0.0919,
      "velocity": 112,
      "chip": "ym2612"
    },
    {
      "channel": 5,
      "note": 86,
      "start": 16.1818,
      "duration": 0.3893,
      "velocity": 87,
      "chip": "ym2612"
    },
    {
      "channel": 1,
      "note": 50,
      "start": 16.2491,
      "duration": 0.0941,
      "velocity": 77,
      "chip": "ym2612"
    },
    {
      "channel": 3,
      "note": 66,
      "start": 16.2498,
      "duration": 0.0938,
      "velocity": 95,
      "chip": "ym2612"
    },
    {
      "channel": 4,
      "note": 69,
      "start": 16.2507,
      "duration": 0.0934,
      "velocity": 95,
      "chip": "ym2612"
    },
    {
      "channel": 2,
      "note": 103,
      "start": 16.2527,
      "duration": 0.1225,
      "velocity": 103,
      "chip": "ym2612"
    },
    {
      "channel": 0,
      "note": 85,
      "start": 16.3787,
      "duration": 0.2593,
      "velocity": 87,
      "chip": "ym2612"
    },
    {
      "channel": 1,
      "note": 50,
      "start": 16.3795,
      "duration": 0.0936,
      "velocity": 77,
      "chip": "ym2612"
    },
    {
      "channel": 3,
      "note": 66,
      "start": 16.3803,
      "duration": 0.0933,
      "velocity": 95,
      "chip": "ym2612"
    },
    {
      "channel": 4,
      "note": 69,
      "start": 16.3811,
      "duration": 0.093,
      "velocity": 95,
      "chip": "ym2612"
    },
    {
      "channel": 2,
      "note": 103,
      "start": 16.3832,
      "duration": 0.1232,
      "velocity": 103,
      "chip": "ym2612"
    },
    {
      "channel": 5,
      "note": 85,
      "start": 16.5718,
      "duration": 0.2597,
      "velocity": 87,
      "chip": "ym2612"
    },
    {
      "channel": 0,
      "note": 86,
      "start": 16.6388,
      "duration": 0.3894,
      "velocity": 87,
      "chip": "ym2612"
    },
    {
      "channel": 1,
      "note": 50,
      "start": 16.6395,
      "duration": 0.0936,
      "velocity": 77,
      "chip": "ym2612"
    },
    {
      "channel": 3,
      "note": 66,
      "start": 16.6404,
      "duration": 0.0933,
      "velocity": 95,
      "chip": "ym2612"
    },
    {
      "channel": 4,
      "note": 69,
      "start": 16.6412,
      "duration": 0.0929,
      "velocity": 95,
      "chip": "ym2612"
    },
    {
      "channel": 2,
      "note": 103,
      "start": 16.6432,
      "duration": 0.1221,
      "velocity": 103,
      "chip": "ym2612"
    },
    {
      "channel": 1,
      "note": 50,
      "start": 16.769,
      "duration": 0.0941,
      "velocity": 77,
      "chip": "ym2612"
    },
    {
      "channel": 4,
      "note": 69,
      "start": 16.7701,
      "duration": 0.0938,
      "velocity": 95,
      "chip": "ym2612"
    },
    {
      "channel": 2,
      "note": 56,
      "start": 16.7722,
      "duration": 0.0926,
      "velocity": 112,
      "chip": "ym2612"
    },
    {
      "channel": 5,
      "note": 86,
      "start": 16.8322,
      "duration": 0.3895,
      "velocity": 87,
      "chip": "ym2612"
    },
    {
      "channel": 3,
      "note": 66,
      "start": 16.8993,
      "duration": 0.0941,
      "velocity": 95,
      "chip": "ym2612"
    },
    {
      "channel": 4,
      "note": 69,
      "start": 16.9001,
      "duration": 0.0938,
      "velocity": 95,
      "chip": "ym2612"
    },
    {
      "channel": 2,
      "note": 26,
      "start": 16.9021,
      "duration": 0.0598,
      "velocity": 120,
      "chip": "ym2612"
    },
    {
      "channel": 0,
      "note": 85,
      "start": 17.0289,
      "duration": 0.1294,
      "velocity": 87,
      "chip": "ym2612"
    },
    {
      "channel": 1,
      "note": 50,
      "start": 17.0296,
      "duration": 0.0936,
      "velocity": 77,
      "chip": "ym2612"
    },
    {
      "channel": 3,
      "note": 66,
      "start": 17.0305,
      "duration": 0.0932,
      "velocity": 95,
      "chip": "ym2612"
    },
    {
      "channel": 4,
      "note": 70,
      "start": 17.0313,
      "duration": 0.0929,
      "velocity": 95,
      "chip": "ym2612"
    },
    {
      "channel": 2,
      "note": 26,
      "start": 17.0333,
      "duration": 0.0587,
      "velocity": 120,
      "chip": "ym2612"
    },
    {
      "channel": 0,
      "note": 83,
      "start": 17.1589,
      "duration": 0.7793,
      "velocity": 87,
      "chip": "ym2612"
    },
    {
      "channel": 1,
      "note": 52,
      "start": 17.1597,
      "duration": 0.2588,
      "velocity": 77,
      "chip": "ym2612"
    },
    {
      "channel": 3,
      "note": 64,
      "start": 17.1606,
      "duration": 0.0929,
      "velocity": 95,
      "chip": "ym2612"
    },
    {
      "channel": 4,
      "note": 71,
      "start": 17.1614,
      "duration": 0.0926,
      "velocity": 95,
      "chip": "ym2612"
    },
    {
      "channel": 2,
      "note": 26,
      "start": 17.1635,
      "duration": 0.059,
      "velocity": 120,
      "chip": "ym2612"
    },
    {
      "channel": 5,
      "note": 85,
      "start": 17.2223,
      "duration": 0.1291,
      "velocity": 87,
      "chip": "ym2612"
    },
    {
      "channel": 5,
      "note": 83,
      "start": 17.352,
      "duration": 0.7795,
      "velocity": 87,
      "chip": "ym2612"
    },
    {
      "channel": 1,
      "note": 52,
      "start": 17.419,
      "duration": 0.0943,
      "velocity": 77,
      "chip": "ym2612"
    },
    {
      "channel": 3,
      "note": 64,
      "start": 17.4198,
      "duration": 0.094,
      "velocity": 95,
      "chip": "ym2612"
    },
    {
      "channel": 4,
      "note": 71,
      "start": 17.4206,
      "duration": 0.0936,
      "velocity": 95,
      "chip": "ym2612"
    },
    {
      "channel": 2,
      "note": 103,
      "start": 17.4226,
      "duration": 0.1228,
      "velocity": 103,
      "chip": "ym2612"
    },
    {
      "channel": 1,
      "note": 52,
      "start": 17.5492,
      "duration": 0.0941,
      "velocity": 77,
      "chip": "ym2612"
    },
    {
      "channel": 3,
      "note": 64,
      "start": 17.55,
      "duration": 0.0937,
      "velocity": 95,
      "chip": "ym2612"
    },
    {
      "channel": 4,
      "note": 71,
      "start": 17.5508,
      "duration": 0.0934,
      "velocity": 95,
      "chip": "ym2612"
    },
    {
      "channel": 2,
      "note": 56,
      "start": 17.5529,
      "duration": 0.0922,
      "velocity": 112,
      "chip": "ym2612"
    },
    {
      "channel": 4,
      "note": 71,
      "start": 17.6768,
      "duration": 0.0968,
      "velocity": 95,
      "chip": "ym2612"
    },
    {
      "channel": 1,
      "note": 52,
      "start": 17.8091,
      "duration": 0.0942,
      "velocity": 77,
      "chip": "ym2612"
    },
    {
      "channel": 3,
      "note": 64,
      "start": 17.81,
      "duration": 0.0938,
      "velocity": 95,
      "chip": "ym2612"
    },
    {
      "channel": 4,
      "note": 71,
      "start": 17.8108,
      "duration": 0.0935,
      "velocity": 95,
      "chip": "ym2612"
    },
    {
      "channel": 2,
      "note": 103,
      "start": 17.8128,
      "duration": 0.1226,
      "velocity": 103,
      "chip": "ym2612"
    },
    {
      "channel": 0,
      "note": 81,
      "start": 17.9389,
      "duration": 0.2594,
      "velocity": 87,
      "chip": "ym2612"
    },
    {
      "channel": 1,
      "note": 52,
      "start": 17.9397,
      "duration": 0.0936,
      "velocity": 77,
      "chip": "ym2612"
    },
    {
      "channel": 3,
      "note": 64,
      "start": 17.9405,
      "duration": 0.0933,
      "velocity": 95,
      "chip": "ym2612"
    },
    {
      "channel": 2,
      "note": 103,
      "start": 17.9427,
      "duration": 0.1246,
      "velocity": 103,
      "chip": "ym2612"
    },
    {
      "channel": 4,
      "note": 71,
      "start": 18.0668,
      "duration": 0.0969,
      "velocity": 95,
      "chip": "ym2612"
    },
    {
      "channel": 5,
      "note": 81,
      "start": 18.1322,
      "duration": 0.2596,
      "velocity": 87,
      "chip": "ym2612"
    },
    {
      "channel": 0,
      "note": 83,
      "start": 18.199,
      "duration": 0.5194,
      "velocity": 87,
      "chip": "ym2612"
    },
    {
      "channel": 1,
      "note": 52,
      "start": 18.1998,
      "duration": 0.0936,
      "velocity": 77,
      "chip": "ym2612"
    },
    {
      "channel": 3,
      "note": 64,
      "start": 18.2005,
      "duration": 0.0933,
      "velocity": 95,
      "chip": "ym2612"
    },
    {
      "channel": 2,
      "note": 103,
      "start": 18.2028,
      "duration": 0.1227,
      "velocity": 103,
      "chip": "ym2612"
    },
    {
      "channel": 1,
      "note": 52,
      "start": 18.3292,
      "duration": 0.0941,
      "velocity": 77,
      "chip": "ym2612"
    },
    {
      "channel": 3,
      "note": 64,
      "start": 18.33,
      "duration": 0.0938,
      "velocity": 95,
      "chip": "ym2612"
    },
    {
      "channel": 4,
      "note": 69,
      "start": 18.3308,
      "duration": 0.0935,
      "velocity": 95,
      "chip": "ym2612"
    },
    {
      "channel": 2,
      "note": 56,
      "start": 18.333,
      "duration": 0.0922,
      "velocity": 112,
      "chip": "ym2612"
    },
    {
      "channel": 5,
      "note": 83,
      "start": 18.3925,
      "duration": 0.5195,
      "velocity": 87,
      "chip": "ym2612"
    },
    {
      "channel": 3,
      "note": 64,
      "start": 18.4595,
      "duration": 0.094,
      "velocity": 95,
      "chip": "ym2612"
    },
    {
      "channel": 4,
      "note": 68,
      "start": 18.4603,
      "duration": 0.0937,
      "velocity": 95,
      "chip": "ym2612"
    },
    {
      "channel": 2,
      "note": 26,
      "start": 18.4622,
      "duration": 0.0598,
      "velocity": 120,
      "chip": "ym2612"
    },
    {
      "channel": 1,
      "note": 52,
      "start": 18.5892,
      "duration": 0.0941,
      "velocity": 77,
      "chip": "ym2612"
    },
    {
      "channel": 3,
      "note": 64,
      "start": 18.59,
      "duration": 0.0938,
      "velocity": 95,
      "chip": "ym2612"
    },
    {
      "channel": 4,
      "note": 69,
      "start": 18.5909,
      "duration": 0.0934,
      "velocity": 95,
      "chip": "ym2612"
    },
    {
      "channel": 2,
      "note": 26,
      "start": 18.5929,
      "duration": 0.0593,
      "velocity": 120,
      "chip": "ym2612"
    },
    {
      "channel": 0,
      "note": 84,
      "start": 18.719,
      "duration": 0.1915,
      "velocity": 87,
      "chip": "ym2612"
    },
    {
      "channel": 1,
      "note": 57,
      "start": 18.72,
      "duration": 0.2592,
      "velocity": 77,
      "chip": "ym2612"
    },
    {
      "channel": 3,
      "note": 64,
      "start": 18.7235,
      "duration": 0.2562,
      "velocity": 95,
      "chip": "ym2612"
    },
    {
      "channel": 4,
      "note": 73,
      "start": 18.727,
      "duration": 0.2534,
      "velocity": 95,
      "chip": "ym2612"
    },
    {
      "channel": 2,
      "note": 26,
      "start": 18.729,
      "duration": 0.0532,
      "velocity": 120,
      "chip": "ym2612"
    },
    {
      "channel": 5,
      "note": 84,
      "start": 18.9126,
      "duration": 0.1989,
      "velocity": 87,
      "chip": "ym2612"
    },
    {
      "channel": 0,
      "note": 85,
      "start": 18.979,
      "duration": 0.1293,
      "velocity": 87,
      "chip": "ym2612"
    },
    {
      "channel": 1,
      "note": 57,
      "start": 18.9796,
      "duration": 0.0938,
      "velocity": 77,
      "chip": "ym2612"
    },
    {
      "channel": 3,
      "note": 64,
      "start": 18.9802,
      "duration": 0.0936,
      "velocity": 95,
      "chip": "ym2612"
    },
    {
      "channel": 4,
      "note": 73,
      "start": 18.9809,
      "duration": 0.0934,
      "velocity": 95,
      "chip": "ym2612"
    },
    {
      "channel": 2,
      "note": 103,
      "start": 18.983,
      "duration": 0.1226,
      "velocity": 103,
      "chip": "ym2612"
    },
    {
      "channel": 0,
      "note": 84,
      "start": 19.109,
      "duration": 0.2594,
      "velocity": 87,
      "chip": "ym2612"
    },
    {
      "channel": 1,
      "note": 57,
      "start": 19.1098,
      "duration": 0.0935,
      "velocity": 77,
      "chip": "ym2612"
    },
    {
      "channel": 3,
      "note": 64,
      "start": 19.1106,
      "duration": 0.0933,
      "velocity": 95,
      "chip": "ym2612"
    },
    {
      "channel": 4,
      "note": 73,
      "start": 19.1114,
      "duration": 0.0929,
      "velocity": 95,
      "chip": "ym2612"
    },
    {
      "channel": 2,
      "note": 56,
      "start": 19.1137,
      "duration": 0.0915,
      "velocity": 112,
      "chip": "ym2612"
    },
    {
      "channel": 5,
      "note": 85,
      "start": 19.1725,
      "duration": 0.1289,
      "velocity": 87,
      "chip": "ym2612"
    },
    {
      "channel": 5,
      "note": 84,
      "start": 19.3021,
      "duration": 0.2598,
      "velocity": 87,
      "chip": "ym2612"
    },
    {
      "channel": 0,
      "note": 85,
      "start": 19.369,
      "duration": 0.3893,
      "velocity": 87,
      "chip": "ym2612"
    },
    {
      "channel": 1,
      "note": 57,
      "start": 19.3699,
      "duration": 0.0935,
      "velocity": 77,
      "chip": "ym2612"
    },
    {
      "channel": 3,
      "note": 64,
      "start": 19.3707,
      "duration": 0.0932,
      "velocity": 95,
      "chip": "ym2612"
    },
    {
      "channel": 4,
      "note": 73,
      "start": 19.3715,
      "duration": 0.0929,
      "velocity": 95,
      "chip": "ym2612"
    },
    {
      "channel": 2,
      "note": 103,
      "start": 19.3735,
      "duration": 0.1221,
      "velocity": 103,
      "chip": "ym2612"
    },
    {
      "channel": 1,
      "note": 57,
      "start": 19.4994,
      "duration": 0.0941,
      "velocity": 77,
      "chip": "ym2612"
    },
    {
      "channel": 3,
      "note": 64,
      "start": 19.5002,
      "duration": 0.0937,
      "velocity": 95,
      "chip": "ym2612"
    },
    {
      "channel": 4,
      "note": 73,
      "start": 19.501,
      "duration": 0.0934,
      "velocity": 95,
      "chip": "ym2612"
    },
    {
      "channel": 2,
      "note": 103,
      "start": 19.5031,
      "duration": 0.1237,
      "velocity": 103,
      "chip": "ym2612"
    },
    {
      "channel": 5,
      "note": 85,
      "start": 19.5626,
      "duration": 0.3893,
      "velocity": 87,
      "chip": "ym2612"
    },
    {
      "channel": 0,
      "note": 81,
      "start": 19.7591,
      "duration": 0.3894,
      "velocity": 87,
      "chip": "ym2612"
    },
    {
      "channel": 1,
      "note": 57,
      "start": 19.7598,
      "duration": 0.0936,
      "velocity": 77,
      "chip": "ym2612"
    },
    {
      "channel": 3,
      "note": 64,
      "start": 19.7607,
      "duration": 0.0933,
      "velocity": 95,
      "chip": "ym2612"
    },
    {
      "channel": 4,
      "note": 73,
      "start": 19.7615,
      "duration": 0.0929,
      "velocity": 95,
      "chip": "ym2612"
    },
    {
      "channel": 2,
      "note": 103,
      "start": 19.7635,
      "duration": 0.1221,
      "velocity": 103,
      "chip": "ym2612"
    },
    {
      "channel": 1,
      "note": 57,
      "start": 19.8893,
      "duration": 0.0941,
      "velocity": 77,
      "chip": "ym2612"
    },
    {
      "channel": 3,
      "note": 64,
      "start": 19.8902,
      "duration": 0.0938,
      "velocity": 95,
      "chip": "ym2612"
    },
    {
      "channel": 4,
      "note": 73,
      "start": 19.891,
      "duration": 0.0934,
      "velocity": 95,
      "chip": "ym2612"
    },
    {
      "channel": 2,
      "note": 56,
      "start": 19.893,
      "duration": 0.0923,
      "velocity": 112,
      "chip": "ym2612"
    },
    {
      "channel": 5,
      "note": 81,
      "start": 19.9525,
      "duration": 0.3894,
      "velocity": 87,
      "chip": "ym2612"
    },
    {
      "channel": 3,
      "note": 64,
      "start": 20.0196,
      "duration": 0.0941,
      "velocity": 95,
      "chip": "ym2612"
    },
    {
      "channel": 4,
      "note": 73,
      "start": 20.0204,
      "duration": 0.0938,
      "velocity": 95,
      "chip": "ym2612"
    },
    {
      "channel": 2,
      "note": 26,
      "start": 20.0224,
      "duration": 0.0598,
      "velocity": 120,
      "chip": "ym2612"
    },
    {
      "channel": 0,
      "note": 81,
      "start": 20.1492,
      "duration": 0.1293,
      "velocity": 87,
      "chip": "ym2612"
    },
    {
      "channel": 1,
      "note": 57,
      "start": 20.15,
      "duration": 0.0935,
      "velocity": 77,
      "chip": "ym2612"
    },
    {
      "channel": 3,
      "note": 64,
      "start": 20.1508,
      "duration": 0.0931,
      "velocity": 95,
      "chip": "ym2612"
    },
    {
      "channel": 4,
      "note": 71,
      "start": 20.1516,
      "duration": 0.0929,
      "velocity": 95,
      "chip": "ym2612"
    },
    {
      "channel": 2,
      "note": 26,
      "start": 20.1536,
      "duration": 0.0586,
      "velocity": 120,
      "chip": "ym2612"
    },
    {
      "channel": 0,
      "note": 83,
      "start": 20.2792,
      "duration": 0.6493,
      "velocity": 87,
      "chip": "ym2612"
    },
    {
      "channel": 1,
      "note": 54,
      "start": 20.28,
      "duration": 0.2588,
      "velocity": 77,
      "chip": "ym2612"
    },
    {
      "channel": 3,
      "note": 64,
      "start": 20.2809,
      "duration": 0.0929,
      "velocity": 95,
      "chip": "ym2612"
    },
    {
      "channel": 4,
      "note": 69,
      "start": 20.2818,
      "duration": 0.2585,
      "velocity": 95,
      "chip": "ym2612"
    },
    {
      "channel": 2,
      "note": 26,
      "start": 20.2838,
      "duration": 0.059,
      "velocity": 120,
      "chip": "ym2612"
    },
    {
      "channel": 5,
      "note": 81,
      "start": 20.3426,
      "duration": 0.1292,
      "velocity": 87,
      "chip": "ym2612"
    },
    {
      "channel": 5,
      "note": 83,
      "start": 20.4725,
      "duration": 0.6495,
      "velocity": 87,
      "chip": "ym2612"
    },
    {
      "channel": 1,
      "note": 54,
      "start": 20.5393,
      "duration": 0.0943,
      "velocity": 77,
      "chip": "ym2612"
    },
    {
      "channel": 3,
      "note": 64,
      "start": 20.54,
      "duration": 0.094,
      "velocity": 95,
      "chip": "ym2612"
    },
    {
      "channel": 4,
      "note": 69,
      "start": 20.5407,
      "duration": 0.0938,
      "velocity": 95,
      "chip": "ym2612"
    },
    {
      "channel": 2,
      "note": 103,
      "start": 20.5427,
      "duration": 0.123,
      "velocity": 103,
      "chip": "ym2612"
    },
    {
      "channel": 1,
      "note": 54,
      "start": 20.6695,
      "duration": 0.0941,
      "velocity": 77,
      "chip": "ym2612"
    },
    {
      "channel": 3,
      "note": 64,
      "start": 20.6703,
      "duration": 0.0938,
      "velocity": 95,
      "chip": "ym2612"
    },
    {
      "channel": 4,
      "note": 69,
      "start": 20.6711,
      "duration": 0.0935,
      "velocity": 95,
      "chip": "ym2612"
    },
    {
      "channel": 2,
      "note": 56,
      "start": 20.6732,
      "duration": 0.0924,
      "velocity": 112,
      "chip": "ym2612"
    },
    {
      "channel": 0,
      "note": 81,
      "start": 20.9292,
      "duration": 0.3894,
      "velocity": 87,
      "chip": "ym2612"
    },
    {
      "channel": 1,
      "note": 54,
      "start": 20.9299,
      "duration": 0.0936,
      "velocity": 77,
      "chip": "ym2612"
    },
    {
      "channel": 3,
      "note": 64,
      "start": 20.9308,
      "duration": 0.0932,
      "velocity": 95,
      "chip": "ym2612"
    },
    {
      "channel": 4,
      "note": 69,
      "start": 20.9317,
      "duration": 0.0928,
      "velocity": 95,
      "chip": "ym2612"
    },
    {
      "channel": 2,
      "note": 103,
      "start": 20.9337,
      "duration": 0.122,
      "velocity": 103,
      "chip": "ym2612"
    },
    {
      "channel": 1,
      "note": 54,
      "start": 21.0595,
      "duration": 0.0941,
      "velocity": 77,
      "chip": "ym2612"
    },
    {
      "channel": 3,
      "note": 64,
      "start": 21.0603,
      "duration": 0.0938,
      "velocity": 95,
      "chip": "ym2612"
    },
    {
      "channel": 4,
      "note": 69,
      "start": 21.061,
      "duration": 0.0934,
      "velocity": 95,
      "chip": "ym2612"
    },
    {
      "channel": 2,
      "note": 103,
      "start": 21.0632,
      "duration": 0.1238,
      "velocity": 103,
      "chip": "ym2612"
    },
    {
      "channel": 5,
      "note": 81,
      "start": 21.1227,
      "duration": 0.3894,
      "velocity": 87,
      "chip": "ym2612"
    },
    {
      "channel": 0,
      "note": 88,
      "start": 21.3192,
      "duration": 0.3216,
      "velocity": 87,
      "chip": "ym2612"
    },
    {
      "channel": 1,
      "note": 54,
      "start": 21.32,
      "duration": 0.0936,
      "velocity": 77,
      "chip": "ym2612"
    },
    {
      "channel": 3,
      "note": 64,
      "start": 21.3208,
      "duration": 0.0933,
      "velocity": 95,
      "chip": "ym2612"
    },
    {
      "channel": 4,
      "note": 69,
      "start": 21.3216,
      "duration": 0.0929,
      "velocity": 95,
      "chip": "ym2612"
    },
    {
      "channel": 2,
      "note": 103,
      "start": 21.3237,
      "duration": 0.1221,
      "velocity": 103,
      "chip": "ym2612"
    },
    {
      "channel": 1,
      "note": 54,
      "start": 21.4496,
      "duration": 0.094,
      "velocity": 77,
      "chip": "ym2612"
    },
    {
      "channel": 3,
      "note": 64,
      "start": 21.4504,
      "duration": 0.0938,
      "velocity": 95,
      "chip": "ym2612"
    },
    {
      "channel": 4,
      "note": 69,
      "start": 21.4512,
      "duration": 0.0934,
      "velocity": 95,
      "chip": "ym2612"
    },
    {
      "channel": 2,
      "note": 56,
      "start": 21.4533,
      "duration": 0.0922,
      "velocity": 112,
      "chip": "ym2612"
    },
    {
      "channel": 5,
      "note": 88,
      "start": 21.5128,
      "duration": 0.3292,
      "velocity": 87,
      "chip": "ym2612"
    },
    {
      "channel": 3,
      "note": 64,
      "start": 21.5797,
      "duration": 0.0939,
      "velocity": 95,
      "chip": "ym2612"
    },
    {
      "channel": 4,
      "note": 69,
      "start": 21.5805,
      "duration": 0.0936,
      "velocity": 95,
      "chip": "ym2612"
    },
    {
      "channel": 2,
      "note": 26,
      "start": 21.5825,
      "duration": 0.0599,
      "velocity": 120,
      "chip": "ym2612"
    },
    {
      "channel": 0,
      "note": 88,
      "start": 21.7093,
      "duration": 0.1294,
      "velocity": 87,
      "chip": "ym2612"
    },
    {
      "channel": 1,
      "note": 54,
      "start": 21.71,
      "duration": 0.0937,
      "velocity": 77,
      "chip": "ym2612"
    },
    {
      "channel": 3,
      "note": 64,
      "start": 21.7109,
      "duration": 0.0932,
      "velocity": 95,
      "chip": "ym2612"
    },
    {
      "channel": 4,
      "note": 68,
      "start": 21.7117,
      "duration": 0.0929,
      "velocity": 95,
      "chip": "ym2612"
    },
    {
      "channel": 2,
      "note": 26,
      "start": 21.7137,
      "duration": 0.0588,
      "velocity": 120,
      "chip": "ym2612"
    },
    {
      "channel": 0,
      "note": 88,
      "start": 21.8393,
      "duration": 0.3893,
      "velocity": 87,
      "chip": "ym2612"
    },
    {
      "channel": 1,
      "note": 50,
      "start": 21.8401,
      "duration": 0.2588,
      "velocity": 77,
      "chip": "ym2612"
    },
    {
      "channel": 3,
      "note": 66,
      "start": 21.841,
      "duration": 0.093,
      "velocity": 95,
      "chip": "ym2612"
    },
    {
      "channel": 4,
      "note": 69,
      "start": 21.8418,
      "duration": 0.2586,
      "velocity": 95,
      "chip": "ym2612"
    },
    {
      "channel": 2,
      "note": 26,
      "start": 21.844,
      "duration": 0.0589,
      "velocity": 120,
      "chip": "ym2612"
    },
    {
      "channel": 5,
      "note": 88,
      "start": 21.9027,
      "duration": 0.1293,
      "velocity": 87,
      "chip": "ym2612"
    },
    {
      "channel": 5,
      "note": 88,
      "start": 22.0327,
      "duration": 0.389,
      "velocity": 87,
      "chip": "ym2612"
    },
    {
      "channel": 1,
      "note": 50,
      "start": 22.0995,
      "duration": 0.0943,
      "velocity": 77,
      "chip": "ym2612"
    },
    {
      "channel": 3,
      "note": 66,
      "start": 22.1003,
      "duration": 0.0939,
      "velocity": 95,
      "chip": "ym2612"
    },
    {
      "channel": 4,
      "note": 69,
      "start": 22.1009,
      "duration": 0.0938,
      "velocity": 95,
      "chip": "ym2612"
    },
    {
      "channel": 2,
      "note": 103,
      "start": 22.103,
      "duration": 0.1228,
      "velocity": 103,
      "chip": "ym2612"
    },
    {
      "channel": 0,
      "note": 90,
      "start": 22.2293,
      "duration": 0.3894,
      "velocity": 87,
      "chip": "ym2612"
    },
    {
      "channel": 1,
      "note": 50,
      "start": 22.2301,
      "duration": 0.0936,
      "velocity": 77,
      "chip": "ym2612"
    },
    {
      "channel": 3,
      "note": 66,
      "start": 22.2309,
      "duration": 0.0933,
      "velocity": 95,
      "chip": "ym2612"
    },
    {
      "channel": 4,
      "note": 69,
      "start": 22.2317,
      "duration": 0.0929,
      "velocity": 95,
      "chip": "ym2612"
    },
    {
      "channel": 2,
      "note": 56,
      "start": 22.2338,
      "duration": 0.0918,
      "velocity": 112,
      "chip": "ym2612"
    },
    {
      "channel": 5,
      "note": 90,
      "start": 22.4224,
      "duration": 0.3893,
      "velocity": 87,
      "chip": "ym2612"
    },
    {
      "channel": 1,
      "note": 50,
      "start": 22.4897,
      "duration": 0.0941,
      "velocity": 77,
      "chip": "ym2612"
    },
    {
      "channel": 3,
      "note": 66,
      "start": 22.4904,
      "duration": 0.0938,
      "velocity": 95,
      "chip": "ym2612"
    },
    {
      "channel": 4,
      "note": 69,
      "start": 22.4913,
      "duration": 0.0934,
      "velocity": 95,
      "chip": "ym2612"
    },
    {
      "channel": 2,
      "note": 103,
      "start": 22.4933,
      "duration": 0.1226,
      "velocity": 103,
      "chip": "ym2612"
    },
    {
      "channel": 0,
      "note": 88,
      "start": 22.6194,
      "duration": 0.3893,
      "velocity": 87,
      "chip": "ym2612"
    },
    {
      "channel": 1,
      "note": 50,
      "start": 22.6201,
      "duration": 0.0936,
      "velocity": 77,
      "chip": "ym2612"
    },
    {
      "channel": 3,
      "note": 66,
      "start": 22.621,
      "duration": 0.0932,
      "velocity": 95,
      "chip": "ym2612"
    },
    {
      "channel": 4,
      "note": 69,
      "start": 22.6217,
      "duration": 0.0929,
      "velocity": 95,
      "chip": "ym2612"
    },
    {
      "channel": 2,
      "note": 103,
      "start": 22.6238,
      "duration": 0.1233,
      "velocity": 103,
      "chip": "ym2612"
    },
    {
      "channel": 5,
      "note": 88,
      "start": 22.8124,
      "duration": 0.3897,
      "velocity": 87,
      "chip": "ym2612"
    },
    {
      "channel": 1,
      "note": 50,
      "start": 22.8797,
      "duration": 0.0941,
      "velocity": 77,
      "chip": "ym2612"
    },
    {
      "channel": 3,
      "note": 66,
      "start": 22.8805,
      "duration": 0.0938,
      "velocity": 95,
      "chip": "ym2612"
    },
    {
      "channel": 4,
      "note": 69,
      "start": 22.8813,
      "duration": 0.0934,
      "velocity": 95,
      "chip": "ym2612"
    },
    {
      "channel": 2,
      "note": 103,
      "start": 22.8834,
      "duration": 0.1225,
      "velocity": 103,
      "chip": "ym2612"
    },
    {
      "channel": 0,
      "note": 90,
      "start": 23.0094,
      "duration": 0.3895,
      "velocity": 87,
      "chip": "ym2612"
    },
    {
      "channel": 1,
      "note": 50,
      "start": 23.0102,
      "duration": 0.0936,
      "velocity": 77,
      "chip": "ym2612"
    },
    {
      "channel": 4,
      "note": 69,
      "start": 23.0111,
      "duration": 0.0932,
      "velocity": 95,
      "chip": "ym2612"
    },
    {
      "channel": 2,
      "note": 56,
      "start": 23.0132,
      "duration": 0.0921,
      "velocity": 112,
      "chip": "ym2612"
    },
    {
      "channel": 3,
      "note": 66,
      "start": 23.1399,
      "duration": 0.0941,
      "velocity": 95,
      "chip": "ym2612"
    },
    {
      "channel": 4,
      "note": 69,
      "start": 23.1406,
      "duration": 0.0938,
      "velocity": 95,
      "chip": "ym2612"
    },
    {
      "channel": 2,
      "note": 26,
      "start": 23.1427,
      "duration": 0.0602,
      "velocity": 120,
      "chip": "ym2612"
    },
    {
      "channel": 5,
      "note": 90,
      "start": 23.2027,
      "duration": 0.3892,
      "velocity": 87,
      "chip": "ym2612"
    },
    {
      "channel": 1,
      "note": 50,
      "start": 23.2697,
      "duration": 0.0941,
      "velocity": 77,
      "chip": "ym2612"
    },
    {
      "channel": 3,
      "note": 66,
      "start": 23.2705,
      "duration": 0.0938,
      "velocity": 95,
      "chip": "ym2612"
    },
    {
      "channel": 4,
      "note": 70,
      "start": 23.2713,
      "duration": 0.0935,
      "velocity": 95,
      "chip": "ym2612"
    },
    {
      "channel": 2,
      "note": 26,
      "start": 23.2733,
      "duration": 0.0593,
      "velocity": 120,
      "chip": "ym2612"
    },
    {
      "channel": 0,
      "note": 95,
      "start": 23.3996,
      "duration": 0.3892,
      "velocity": 87,
      "chip": "ym2612"
    },
    {
      "channel": 1,
      "note": 52,
      "start": 23.4004,
      "duration": 0.2587,
      "velocity": 77,
      "chip": "ym2612"
    },
    {
      "channel": 3,
      "note": 64,
      "start": 23.4012,
      "duration": 0.0929,
      "velocity": 95,
      "chip": "ym2612"
    },
    {
      "channel": 4,
      "note": 71,
      "start": 23.4021,
      "duration": 0.0926,
      "velocity": 95,
      "chip": "ym2612"
    },
    {
      "channel": 2,
      "note": 26,
      "start": 23.4041,
      "duration": 0.0585,
      "velocity": 120,
      "chip": "ym2612"
    },
    {
      "channel": 5,
      "note": 95,
      "start": 23.5927,
      "duration": 0.3894,
      "velocity": 87,
      "chip": "ym2612"
    },
    {
      "channel": 1,
      "note": 52,
      "start": 23.6596,
      "duration": 0.0943,
      "velocity": 77,
      "chip": "ym2612"
    },
    {
      "channel": 3,
      "note": 64,
      "start": 23.6604,
      "duration": 0.0939,
      "velocity": 95,
      "chip": "ym2612"
    },
    {
      "channel": 4,
      "note": 71,
      "start": 23.6612,
      "duration": 0.0936,
      "velocity": 95,
      "chip": "ym2612"
    },
    {
      "channel": 2,
      "note": 103,
      "start": 23.6632,
      "duration": 0.1228,
      "velocity": 103,
      "chip": "ym2612"
    },
    {
      "channel": 0,
      "note": 93,
      "start": 23.7895,
      "duration": 0.3893,
      "velocity": 87,
      "chip": "ym2612"
    },
    {
      "channel": 1,
      "note": 52,
      "start": 23.7902,
      "duration": 0.0936,
      "velocity": 77,
      "chip": "ym2612"
    },
    {
      "channel": 3,
      "note": 64,
      "start": 23.7911,
      "duration": 0.0933,
      "velocity": 95,
      "chip": "ym2612"
    },
    {
      "channel": 4,
      "note": 71,
      "start": 23.7918,
      "duration": 0.0929,
      "velocity": 95,
      "chip": "ym2612"
    },
    {
      "channel": 2,
      "note": 56,
      "start": 23.7939,
      "duration": 0.0918,
      "velocity": 112,
      "chip": "ym2612"
    },
    {
      "channel": 4,
      "note": 71,
      "start": 23.9173,
      "duration": 0.0968,
      "velocity": 95,
      "chip": "ym2612"
    },
    {
      "channel": 5,
      "note": 93,
      "start": 23.9827,
      "duration": 0.3893,
      "velocity": 87,
      "chip": "ym2612"
    },
    {
      "channel": 1,
      "note": 52,
      "start": 24.0498,
      "duration": 0.0941,
      "velocity": 77,
      "chip": "ym2612"
    },
    {
      "channel": 3,
      "note": 64,
      "start": 24.0506,
      "duration": 0.0938,
      "velocity": 95,
      "chip": "ym2612"
    },
    {
      "channel": 4,
      "note": 71,
      "start": 24.0514,
      "duration": 0.0935,
      "velocity": 95,
      "chip": "ym2612"
    },
    {
      "channel": 2,
      "note": 103,
      "start": 24.0534,
      "duration": 0.1226,
      "velocity": 103,
      "chip": "ym2612"
    },
    {
      "channel": 0,
      "note": 92,
      "start": 24.1795,
      "duration": 0.3893,
      "velocity": 87,
      "chip": "ym2612"
    },
    {
      "channel": 1,
      "note": 52,
      "start": 24.1802,
      "duration": 0.0937,
      "velocity": 77,
      "chip": "ym2612"
    },
    {
      "channel": 3,
      "note": 64,
      "start": 24.1811,
      "duration": 0.0932,
      "velocity": 95,
      "chip": "ym2612"
    },
    {
      "channel": 2,
      "note": 103,
      "start": 24.1833,
      "duration": 0.1246,
      "velocity": 103,
      "chip": "ym2612"
    },
    {
      "channel": 4,
      "note": 71,
      "start": 24.3073,
      "duration": 0.0968,
      "velocity": 95,
      "chip": "ym2612"
    },
    {
      "channel": 5,
      "note": 92,
      "start": 24.3727,
      "duration": 0.3895,
      "velocity": 87,
      "chip": "ym2612"
    },
    {
      "channel": 1,
      "note": 52,
      "start": 24.4399,
      "duration": 0.0941,
      "velocity": 77,
      "chip": "ym2612"
    },
    {
      "channel": 3,
      "note": 64,
      "start": 24.4406,
      "duration": 0.0938,
      "velocity": 95,
      "chip": "ym2612"
    },
    {
      "channel": 2,
      "note": 103,
      "start": 24.4429,
      "duration": 0.1232,
      "velocity": 103,
      "chip": "ym2612"
    },
    {
      "channel": 0,
      "note": 93,
      "start": 24.5695,
      "duration": 0.392,
      "velocity": 87,
      "chip": "ym2612"
    },
    {
      "channel": 1,
      "note": 52,
      "start": 24.5703,
      "duration": 0.0936,
      "velocity": 77,
      "chip": "ym2612"
    },
    {
      "channel": 3,
      "note": 64,
      "start": 24.5711,
      "duration": 0.0933,
      "velocity": 95,
      "chip": "ym2612"
    },
    {
      "channel": 4,
      "note": 69,
      "start": 24.5719,
      "duration": 0.093,
      "velocity": 95,
      "chip": "ym2612"
    },
    {
      "channel": 2,
      "note": 56,
      "start": 24.574,
      "duration": 0.0918,
      "velocity": 112,
      "chip": "ym2612"
    },
    {
      "channel": 3,
      "note": 64,
      "start": 24.7,
      "duration": 0.0941,
      "velocity": 95,
      "chip": "ym2612"
    },
    {
      "channel": 4,
      "note": 68,
      "start": 24.7008,
      "duration": 0.0938,
      "velocity": 95,
      "chip": "ym2612"
    },
    {
      "channel": 2,
      "note": 26,
      "start": 24.7028,
      "duration": 0.0602,
      "velocity": 120,
      "chip": "ym2612"
    },
    {
      "channel": 5,
      "note": 93,
      "start": 24.7629,
      "duration": 0.3924,
      "velocity": 87,
      "chip": "ym2612"
    },
    {
      "channel": 1,
      "note": 52,
      "start": 24.8299,
      "duration": 0.0941,
      "velocity": 77,
      "chip": "ym2612"
    },
    {
      "channel": 3,
      "note": 64,
      "start": 24.8306,
      "duration": 0.0938,
      "velocity": 95,
      "chip": "ym2612"
    },
    {
      "channel": 4,
      "note": 69,
      "start": 24.8315,
      "duration": 0.0934,
      "velocity": 95,
      "chip": "ym2612"
    },
    {
      "channel": 2,
      "note": 26,
      "start": 24.8335,
      "duration": 0.0592,
      "velocity": 120,
      "chip": "ym2612"
    },
    {
      "channel": 0,
      "note": 84,
      "start": 24.9622,
      "duration": 0.189,
      "velocity": 87,
      "chip": "ym2612"
    },
    {
      "channel": 1,
      "note": 57,
      "start": 24.9631,
      "duration": 0.2566,
      "velocity": 77,
      "chip": "ym2612"
    },
    {
      "channel": 3,
      "note": 64,
      "start": 24.9667,
      "duration": 0.2536,
      "velocity": 95,
      "chip": "ym2612"
    },
    {
      "channel": 4,
      "note": 73,
      "start": 24.9702,
      "duration": 0.2508,
      "velocity": 95,
      "chip": "ym2612"
    },
    {
      "channel": 2,
      "note": 26,
      "start": 24.9722,
      "duration": 0.0506,
      "velocity": 120,
      "chip": "ym2612"
    },
    {
      "channel": 5,
      "note": 84,
      "start": 25.156,
      "duration": 0.1963,
      "velocity": 87,
      "chip": "ym2612"
    },
    {
      "channel": 0,
      "note": 85,
      "start": 25.2196,
      "duration": 0.1295,
      "velocity": 87,
      "chip": "ym2612"
    },
    {
      "channel": 1,
      "note": 57,
      "start": 25.2202,
      "duration": 0.0938,
      "velocity": 77,
      "chip": "ym2612"
    },
    {
      "channel": 3,
      "note": 64,
      "start": 25.2208,
      "duration": 0.0937,
      "velocity": 95,
      "chip": "ym2612"
    },
    {
      "channel": 4,
      "note": 73,
      "start": 25.2215,
      "duration": 0.0935,
      "velocity": 95,
      "chip": "ym2612"
    },
    {
      "channel": 2,
      "note": 103,
      "start": 25.2235,
      "duration": 0.1227,
      "velocity": 103,
      "chip": "ym2612"
    },
    {
      "channel": 0,
      "note": 84,
      "start": 25.3497,
      "duration": 0.2592,
      "velocity": 87,
      "chip": "ym2612"
    },
    {
      "channel": 1,
      "note": 57,
      "start": 25.3505,
      "duration": 0.0934,
      "velocity": 77,
      "chip": "ym2612"
    },
    {
      "channel": 3,
      "note": 64,
      "start": 25.3513,
      "duration": 0.0931,
      "velocity": 95,
      "chip": "ym2612"
    },
    {
      "channel": 4,
      "note": 73,
      "start": 25.3521,
      "duration": 0.0928,
      "velocity": 95,
      "chip": "ym2612"
    },
    {
      "channel": 2,
      "note": 56,
      "start": 25.3543,
      "duration": 0.0915,
      "velocity": 112,
      "chip": "ym2612"
    },
    {
      "channel": 5,
      "note": 85,
      "start": 25.4131,
      "duration": 0.1289,
      "velocity": 87,
      "chip": "ym2612"
    },
    {
      "channel": 5,
      "note": 84,
      "start": 25.5426,
      "duration": 0.2599,
      "velocity": 87,
      "chip": "ym2612"
    },
    {
      "channel": 0,
      "note": 85,
      "start": 25.6096,
      "duration": 0.3894,
      "velocity": 87,
      "chip": "ym2612"
    },
    {
      "channel": 1,
      "note": 57,
      "start": 25.6105,
      "duration": 0.0936,
      "velocity": 77,
      "chip": "ym2612"
    },
    {
      "channel": 3,
      "note": 64,
      "start": 25.6112,
      "duration": 0.0933,
      "velocity": 95,
      "chip": "ym2612"
    },
    {
      "channel": 4,
      "note": 73,
      "start": 25.6121,
      "duration": 0.0929,
      "velocity": 95,
      "chip": "ym2612"
    },
    {
      "channel": 2,
      "note": 103,
      "start": 25.6141,
      "duration": 0.1221,
      "velocity": 103,
      "chip": "ym2612"
    },
    {
      "channel": 1,
      "note": 57,
      "start": 25.7399,
      "duration": 0.0941,
      "velocity": 77,
      "chip": "ym2612"
    },
    {
      "channel": 3,
      "note": 64,
      "start": 25.7407,
      "duration": 0.0938,
      "velocity": 95,
      "chip": "ym2612"
    },
    {
      "channel": 4,
      "note": 73,
      "start": 25.7416,
      "duration": 0.0934,
      "velocity": 95,
      "chip": "ym2612"
    },
    {
      "channel": 2,
      "note": 103,
      "start": 25.7436,
      "duration": 0.1237,
      "velocity": 103,
      "chip": "ym2612"
    },
    {
      "channel": 5,
      "note": 85,
      "start": 25.8032,
      "duration": 0.3893,
      "velocity": 87,
      "chip": "ym2612"
    },
    {
      "channel": 0,
      "note": 81,
      "start": 25.9997,
      "duration": 0.3893,
      "velocity": 87,
      "chip": "ym2612"
    },
    {
      "channel": 1,
      "note": 57,
      "start": 26.0005,
      "duration": 0.0936,
      "velocity": 77,
      "chip": "ym2612"
    },
    {
      "channel": 3,
      "note": 64,
      "start": 26.0013,
      "duration": 0.0932,
      "velocity": 95,
      "chip": "ym2612"
    },
    {
      "channel": 4,
      "note": 73,
      "start": 26.0021,
      "duration": 0.0929,
      "velocity": 95,
      "chip": "ym2612"
    },
    {
      "channel": 2,
      "note": 103,
      "start": 26.0042,
      "duration": 0.1221,
      "velocity": 103,
      "chip": "ym2612"
    },
    {
      "channel": 1,
      "note": 57,
      "start": 26.13,
      "duration": 0.094,
      "velocity": 77,
      "chip": "ym2612"
    },
    {
      "channel": 3,
      "note": 64,
      "start": 26.1308,
      "duration": 0.0937,
      "velocity": 95,
      "chip": "ym2612"
    },
    {
      "channel": 4,
      "note": 73,
      "start": 26.1317,
      "duration": 0.0933,
      "velocity": 95,
      "chip": "ym2612"
    },
    {
      "channel": 2,
      "note": 56,
      "start": 26.1338,
      "duration": 0.0921,
      "velocity": 112,
      "chip": "ym2612"
    },
    {
      "channel": 5,
      "note": 81,
      "start": 26.1932,
      "duration": 0.3894,
      "velocity": 87,
      "chip": "ym2612"
    },
    {
      "channel": 3,
      "note": 64,
      "start": 26.2602,
      "duration": 0.0941,
      "velocity": 95,
      "chip": "ym2612"
    },
    {
      "channel": 4,
      "note": 73,
      "start": 26.261,
      "duration": 0.0938,
      "velocity": 95,
      "chip": "ym2612"
    },
    {
      "channel": 2,
      "note": 26,
      "start": 26.2629,
      "duration": 0.0598,
      "velocity": 120,
      "chip": "ym2612"
    },
    {
      "channel": 0,
      "note": 81,
      "start": 26.3897,
      "duration": 0.1293,
      "velocity": 87,
      "chip": "ym2612"
    },
    {
      "channel": 1,
      "note": 57,
      "start": 26.3905,
      "duration": 0.0936,
      "velocity": 77,
      "chip": "ym2612"
    },
    {
      "channel": 3,
      "note": 64,
      "start": 26.3913,
      "duration": 0.0933,
      "velocity": 95,
      "chip": "ym2612"
    },
    {
      "channel": 4,
      "note": 71,
      "start": 26.3921,
      "duration": 0.0929,
      "velocity": 95,
      "chip": "ym2612"
    },
    {
      "channel": 2,
      "note": 26,
      "start": 26.3941,
      "duration": 0.0588,
      "velocity": 120,
      "chip": "ym2612"
    },
    {
      "channel": 0,
      "note": 83,
      "start": 26.5198,
      "duration": 0.5816,
      "velocity": 87,
      "chip": "ym2612"
    },
    {
      "channel": 1,
      "note": 54,
      "start": 26.5205,
      "duration": 0.2588,
      "velocity": 77,
      "chip": "ym2612"
    },
    {
      "channel": 3,
      "note": 64,
      "start": 26.5214,
      "duration": 0.093,
      "velocity": 95,
      "chip": "ym2612"
    },
    {
      "channel": 4,
      "note": 69,
      "start": 26.5222,
      "duration": 0.2586,
      "velocity": 95,
      "chip": "ym2612"
    },
    {
      "channel": 2,
      "note": 26,
      "start": 26.5243,
      "duration": 0.0591,
      "velocity": 120,
      "chip": "ym2612"
    },
    {
      "channel": 5,
      "note": 81,
      "start": 26.5832,
      "duration": 0.1291,
      "velocity": 87,
      "chip": "ym2612"
    },
    {
      "channel": 5,
      "note": 83,
      "start": 26.7131,
      "duration": 0.5888,
      "velocity": 87,
      "chip": "ym2612"
    },
    {
      "channel": 1,
      "note": 54,
      "start": 26.7799,
      "duration": 0.0943,
      "velocity": 77,
      "chip": "ym2612"
    },
    {
      "channel": 3,
      "note": 64,
      "start": 26.7807,
      "duration": 0.0939,
      "velocity": 95,
      "chip": "ym2612"
    },
    {
      "channel": 4,
      "note": 69,
      "start": 26.7814,
      "duration": 0.0937,
      "velocity": 95,
      "chip": "ym2612"
    },
    {
      "channel": 2,
      "note": 103,
      "start": 26.7834,
      "duration": 0.1229,
      "velocity": 103,
      "chip": "ym2612"
    },
    {
      "channel": 1,
      "note": 54,
      "start": 26.9101,
      "duration": 0.0941,
      "velocity": 77,
      "chip": "ym2612"
    },
    {
      "channel": 3,
      "note": 64,
      "start": 26.9109,
      "duration": 0.0938,
      "velocity": 95,
      "chip": "ym2612"
    },
    {
      "channel": 4,
      "note": 69,
      "start": 26.9117,
      "duration": 0.0934,
      "velocity": 95,
      "chip": "ym2612"
    },
    {
      "channel": 2,
      "note": 56,
      "start": 26.9138,
      "duration": 0.0922,
      "velocity": 112,
      "chip": "ym2612"
    },
    {
      "channel": 0,
      "note": 81,
      "start": 27.1698,
      "duration": 0.3216,
      "velocity": 87,
      "chip": "ym2612"
    },
    {
      "channel": 1,
      "note": 54,
      "start": 27.1705,
      "duration": 0.0936,
      "velocity": 77,
      "chip": "ym2612"
    },
    {
      "channel": 3,
      "note": 64,
      "start": 27.1713,
      "duration": 0.0933,
      "velocity": 95,
      "chip": "ym2612"
    },
    {
      "channel": 4,
      "note": 69,
      "start": 27.1722,
      "duration": 0.0929,
      "velocity": 95,
      "chip": "ym2612"
    },
    {
      "channel": 2,
      "note": 103,
      "start": 27.1742,
      "duration": 0.1221,
      "velocity": 103,
      "chip": "ym2612"
    },
    {
      "channel": 1,
      "note": 54,
      "start": 27.3001,
      "duration": 0.094,
      "velocity": 77,
      "chip": "ym2612"
    },
    {
      "channel": 3,
      "note": 64,
      "start": 27.3009,
      "duration": 0.0937,
      "velocity": 95,
      "chip": "ym2612"
    },
    {
      "channel": 4,
      "note": 69,
      "start": 27.3017,
      "duration": 0.0933,
      "velocity": 95,
      "chip": "ym2612"
    },
    {
      "channel": 2,
      "note": 103,
      "start": 27.304,
      "duration": 0.1235,
      "velocity": 103,
      "chip": "ym2612"
    },
    {
      "channel": 5,
      "note": 81,
      "start": 27.3633,
      "duration": 0.3285,
      "velocity": 87,
      "chip": "ym2612"
    },
    {
      "channel": 0,
      "note": 88,
      "start": 27.5598,
      "duration": 0.3894,
      "velocity": 87,
      "chip": "ym2612"
    },
    {
      "channel": 1,
      "note": 54,
      "start": 27.5606,
      "duration": 0.0936,
      "velocity": 77,
      "chip": "ym2612"
    },
    {
      "channel": 3,
      "note": 64,
      "start": 27.5614,
      "duration": 0.0932,
      "velocity": 95,
      "chip": "ym2612"
    },
    {
      "channel": 4,
      "note": 69,
      "start": 27.5622,
      "duration": 0.0929,
      "velocity": 95,
      "chip": "ym2612"
    },
    {
      "channel": 2,
      "note": 103,
      "start": 27.5643,
      "duration": 0.1221,
      "velocity": 103,
      "chip": "ym2612"
    },
    {
      "channel": 1,
      "note": 54,
      "start": 27.69,
      "duration": 0.0941,
      "velocity": 77,
      "chip": "ym2612"
    },
    {
      "channel": 3,
      "note": 64,
      "start": 27.6909,
      "duration": 0.0938,
      "velocity": 95,
      "chip": "ym2612"
    },
    {
      "channel": 4,
      "note": 69,
      "start": 27.6917,
      "duration": 0.0934,
      "velocity": 95,
      "chip": "ym2612"
    },
    {
      "channel": 2,
      "note": 56,
      "start": 27.6939,
      "duration": 0.0922,
      "velocity": 112,
      "chip": "ym2612"
    },
    {
      "channel": 5,
      "note": 88,
      "start": 27.7534,
      "duration": 0.3893,
      "velocity": 87,
      "chip": "ym2612"
    },
    {
      "channel": 3,
      "note": 64,
      "start": 27.8203,
      "duration": 0.0941,
      "velocity": 95,
      "chip": "ym2612"
    },
    {
      "channel": 4,
      "note": 69,
      "start": 27.8211,
      "duration": 0.0938,
      "velocity": 95,
      "chip": "ym2612"
    },
    {
      "channel": 2,
      "note": 26,
      "start": 27.8231,
      "duration": 0.0599,
      "velocity": 120,
      "chip": "ym2612"
    },
    {
      "channel": 0,
      "note": 88,
      "start": 27.9498,
      "duration": 0.1295,
      "velocity": 87,
      "chip": "ym2612"
    },
    {
      "channel": 1,
      "note": 54,
      "start": 27.9505,
      "duration": 0.0937,
      "velocity": 77,
      "chip": "ym2612"
    },
    {
      "channel": 3,
      "note": 64,
      "start": 27.9514,
      "duration": 0.0934,
      "velocity": 95,
      "chip": "ym2612"
    },
    {
      "channel": 4,
      "note": 68,
      "start": 27.9521,
      "duration": 0.0931,
      "velocity": 95,
      "chip": "ym2612"
    },
    {
      "channel": 2,
      "note": 26,
      "start": 27.9542,
      "duration": 0.0588,
      "velocity": 120,
      "chip": "ym2612"
    },
    {
      "channel": 0,
      "note": 88,
      "start": 28.0798,
      "duration": 0.3217,
      "velocity": 87,
      "chip": "ym2612"
    },
    {
      "channel": 1,
      "note": 50,
      "start": 28.0805,
      "duration": 0.259,
      "velocity": 77,
      "chip": "ym2612"
    },
    {
      "channel": 3,
      "note": 66,
      "start": 28.0815,
      "duration": 0.0931,
      "velocity": 95,
      "chip": "ym2612"
    },
    {
      "channel": 4,
      "note": 69,
      "start": 28.0823,
      "duration": 0.2587,
      "velocity": 95,
      "chip": "ym2612"
    },
    {
      "channel": 2,
      "note": 26,
      "start": 28.0843,
      "duration": 0.0591,
      "velocity": 120,
      "chip": "ym2612"
    },
    {
      "channel": 5,
      "note": 88,
      "start": 28.1432,
      "duration": 0.1294,
      "velocity": 87,
      "chip": "ym2612"
    },
    {
      "channel": 5,
      "note": 88,
      "start": 28.2731,
      "duration": 0.3242,
      "velocity": 87,
      "chip": "ym2612"
    },
    {
      "channel": 1,
      "note": 50,
      "start": 28.34,
      "duration": 0.094,
      "velocity": 77,
      "chip": "ym2612"
    },
    {
      "channel": 3,
      "note": 66,
      "start": 28.3408,
      "duration": 0.0938,
      "velocity": 95,
      "chip": "ym2612"
    },
    {
      "channel": 4,
      "note": 69,
      "start": 28.3415,
      "duration": 0.0935,
      "velocity": 95,
      "chip": "ym2612"
    },
    {
      "channel": 2,
      "note": 103,
      "start": 28.3435,
      "duration": 0.1229,
      "velocity": 103,
      "chip": "ym2612"
    },
    {
      "channel": 0,
      "note": 86,
      "start": 28.47,
      "duration": 0.3893,
      "velocity": 87,
      "chip": "ym2612"
    },
    {
      "channel": 1,
      "note": 50,
      "start": 28.4707,
      "duration": 0.0936,
      "velocity": 77,
      "chip": "ym2612"
    },
    {
      "channel": 3,
      "note": 66,
      "start": 28.4715,
      "duration": 0.0933,
      "velocity": 95,
      "chip": "ym2612"
    },
    {
      "channel": 4,
      "note": 69,
      "start": 28.4723,
      "duration": 0.0929,
      "velocity": 95,
      "chip": "ym2612"
    },
    {
      "channel": 2,
      "note": 56,
      "start": 28.4744,
      "duration": 0.0918,
      "velocity": 112,
      "chip": "ym2612"
    },
    {
      "channel": 5,
      "note": 86,
      "start": 28.6629,
      "duration": 0.3893,
      "velocity": 87,
      "chip": "ym2612"
    },
    {
      "channel": 1,
      "note": 50,
      "start": 28.7302,
      "duration": 0.0941,
      "velocity": 77,
      "chip": "ym2612"
    },
    {
      "channel": 3,
      "note": 66,
      "start": 28.731,
      "duration": 0.0938,
      "velocity": 95,
      "chip": "ym2612"
    },
    {
      "channel": 4,
      "note": 69,
      "start": 28.7319,
      "duration": 0.0934,
      "velocity": 95,
      "chip": "ym2612"
    },
    {
      "channel": 2,
      "note": 103,
      "start": 28.7339,
      "duration": 0.1225,
      "velocity": 103,
      "chip": "ym2612"
    },
    {
      "channel": 0,
      "note": 85,
      "start": 28.8599,
      "duration": 0.2593,
      "velocity": 87,
      "chip": "ym2612"
    },
    {
      "channel": 1,
      "note": 50,
      "start": 28.8607,
      "duration": 0.0936,
      "velocity": 77,
      "chip": "ym2612"
    },
    {
      "channel": 3,
      "note": 66,
      "start": 28.8615,
      "duration": 0.0933,
      "velocity": 95,
      "chip": "ym2612"
    },
    {
      "channel": 4,
      "note": 69,
      "start": 28.8623,
      "duration": 0.0929,
      "velocity": 95,
      "chip": "ym2612"
    },
    {
      "channel": 2,
      "note": 103,
      "start": 28.8644,
      "duration": 0.1232,
      "velocity": 103,
      "chip": "ym2612"
    },
    {
      "channel": 5,
      "note": 85,
      "start": 29.053,
      "duration": 0.2597,
      "velocity": 87,
      "chip": "ym2612"
    },
    {
      "channel": 0,
      "note": 86,
      "start": 29.12,
      "duration": 0.3894,
      "velocity": 87,
      "chip": "ym2612"
    },
    {
      "channel": 1,
      "note": 50,
      "start": 29.1207,
      "duration": 0.0937,
      "velocity": 77,
      "chip": "ym2612"
    },
    {
      "channel": 3,
      "note": 66,
      "start": 29.1215,
      "duration": 0.0933,
      "velocity": 95,
      "chip": "ym2612"
    },
    {
      "channel": 4,
      "note": 69,
      "start": 29.1223,
      "duration": 0.0931,
      "velocity": 95,
      "chip": "ym2612"
    },
    {
      "channel": 2,
      "note": 103,
      "start": 29.1243,
      "duration": 0.1222,
      "velocity": 103,
      "chip": "ym2612"
    },
    {
      "channel": 1,
      "note": 50,
      "start": 29.2503,
      "duration": 0.0941,
      "velocity": 77,
      "chip": "ym2612"
    },
    {
      "channel": 4,
      "note": 69,
      "start": 29.2512,
      "duration": 0.0938,
      "velocity": 95,
      "chip": "ym2612"
    },
    {
      "channel": 2,
      "note": 56,
      "start": 29.2534,
      "duration": 0.0925,
      "velocity": 112,
      "chip": "ym2612"
    },
    {
      "channel": 5,
      "note": 86,
      "start": 29.3133,
      "duration": 0.3895,
      "velocity": 87,
      "chip": "ym2612"
    },
    {
      "channel": 3,
      "note": 66,
      "start": 29.3805,
      "duration": 0.0941,
      "velocity": 95,
      "chip": "ym2612"
    },
    {
      "channel": 4,
      "note": 69,
      "start": 29.3813,
      "duration": 0.0937,
      "velocity": 95,
      "chip": "ym2612"
    },
    {
      "channel": 2,
      "note": 26,
      "start": 29.3833,
      "duration": 0.0597,
      "velocity": 120,
      "chip": "ym2612"
    },
    {
      "channel": 0,
      "note": 85,
      "start": 29.51,
      "duration": 0.1294,
      "velocity": 87,
      "chip": "ym2612"
    },
    {
      "channel": 1,
      "note": 50,
      "start": 29.5108,
      "duration": 0.0936,
      "velocity": 77,
      "chip": "ym2612"
    },
    {
      "channel": 3,
      "note": 66,
      "start": 29.5116,
      "duration": 0.0933,
      "velocity": 95,
      "chip": "ym2612"
    },
    {
      "channel": 4,
      "note": 70,
      "start": 29.5124,
      "duration": 0.0929,
      "velocity": 95,
      "chip": "ym2612"
    },
    {
      "channel": 2,
      "note": 26,
      "start": 29.5144,
      "duration": 0.0588,
      "velocity": 120,
      "chip": "ym2612"
    },
    {
      "channel": 0,
      "note": 83,
      "start": 29.6401,
      "duration": 0.7793,
      "velocity": 87,
      "chip": "ym2612"
    },
    {
      "channel": 1,
      "note": 52,
      "start": 29.6409,
      "duration": 0.2588,
      "velocity": 77,
      "chip": "ym2612"
    },
    {
      "channel": 3,
      "note": 64,
      "start": 29.6418,
      "duration": 0.0929,
      "velocity": 95,
      "chip": "ym2612"
    },
    {
      "channel": 4,
      "note": 71,
      "start": 29.6426,
      "duration": 0.0926,
      "velocity": 95,
      "chip": "ym2612"
    },
    {
      "channel": 2,
      "note": 26,
      "start": 29.6446,
      "duration": 0.0591,
      "velocity": 120,
      "chip": "ym2612"
    },
    {
      "channel": 5,
      "note": 85,
      "start": 29.7035,
      "duration": 0.1291,
      "velocity": 87,
      "chip": "ym2612"
    },
    {
      "channel": 5,
      "note": 83,
      "start": 29.8333,
      "duration": 0.7793,
      "velocity": 87,
      "chip": "ym2612"
    },
    {
      "channel": 1,
      "note": 52,
      "start": 29.9002,
      "duration": 0.0942,
      "velocity": 77,
      "chip": "ym2612"
    },
    {
      "channel": 3,
      "note": 64,
      "start": 29.9011,
      "duration": 0.0939,
      "velocity": 95,
      "chip": "ym2612"
    },
    {
      "channel": 4,
      "note": 71,
      "start": 29.9018,
      "duration": 0.0936,
      "velocity": 95,
      "chip": "ym2612"
    },
    {
      "channel": 2,
      "note": 103,
      "start": 29.9039,
      "duration": 0.1227,
      "velocity": 103,
      "chip": "ym2612"
    },
    {
      "channel": 1,
      "note": 52,
      "start": 30.0303,
      "duration": 0.0941,
      "velocity": 77,
      "chip": "ym2612"
    },
    {
      "channel": 3,
      "note": 64,
      "start": 30.0312,
      "duration": 0.0938,
      "velocity": 95,
      "chip": "ym2612"
    },
    {
      "channel": 4,
      "note": 71,
      "start": 30.032,
      "duration": 0.0934,
      "velocity": 95,
      "chip": "ym2612"
    },
    {
      "channel": 2,
      "note": 56,
      "start": 30.0341,
      "duration": 0.0922,
      "velocity": 112,
      "chip": "ym2612"
    },
    {
      "channel": 4,
      "note": 71,
      "start": 30.1579,
      "duration": 0.0969,
      "velocity": 95,
      "chip": "ym2612"
    },
    {
      "channel": 1,
      "note": 52,
      "start": 30.2904,
      "duration": 0.0941,
      "velocity": 77,
      "chip": "ym2612"
    },
    {
      "channel": 3,
      "note": 64,
      "start": 30.2912,
      "duration": 0.0938,
      "velocity": 95,
      "chip": "ym2612"
    },
    {
      "channel": 4,
      "note": 71,
      "start": 30.292,
      "duration": 0.0934,
      "velocity": 95,
      "chip": "ym2612"
    },
    {
      "channel": 2,
      "note": 103,
      "start": 30.2941,
      "duration": 0.1225,
      "velocity": 103,
      "chip": "ym2612"
    },
    {
      "channel": 0,
      "note": 81,
      "start": 30.4201,
      "duration": 0.2594,
      "velocity": 87,
      "chip": "ym2612"
    },
    {
      "channel": 1,
      "note": 52,
      "start": 30.4208,
      "duration": 0.0937,
      "velocity": 77,
      "chip": "ym2612"
    },
    {
      "channel": 3,
      "note": 64,
      "start": 30.4217,
      "duration": 0.0934,
      "velocity": 95,
      "chip": "ym2612"
    },
    {
      "channel": 2,
      "note": 103,
      "start": 30.4238,
      "duration": 0.1247,
      "velocity": 103,
      "chip": "ym2612"
    },
    {
      "channel": 4,
      "note": 71,
      "start": 30.548,
      "duration": 0.0968,
      "velocity": 95,
      "chip": "ym2612"
    },
    {
      "channel": 5,
      "note": 81,
      "start": 30.6133,
      "duration": 0.2597,
      "velocity": 87,
      "chip": "ym2612"
    },
    {
      "channel": 0,
      "note": 83,
      "start": 30.6801,
      "duration": 0.5195,
      "velocity": 87,
      "chip": "ym2612"
    },
    {
      "channel": 1,
      "note": 52,
      "start": 30.6809,
      "duration": 0.0937,
      "velocity": 77,
      "chip": "ym2612"
    },
    {
      "channel": 3,
      "note": 64,
      "start": 30.6817,
      "duration": 0.0932,
      "velocity": 95,
      "chip": "ym2612"
    },
    {
      "channel": 2,
      "note": 103,
      "start": 30.6839,
      "duration": 0.1228,
      "velocity": 103,
      "chip": "ym2612"
    },
    {
      "channel": 1,
      "note": 52,
      "start": 30.8104,
      "duration": 0.0941,
      "velocity": 77,
      "chip": "ym2612"
    },
    {
      "channel": 3,
      "note": 64,
      "start": 30.8112,
      "duration": 0.0938,
      "velocity": 95,
      "chip": "ym2612"
    },
    {
      "channel": 4,
      "note": 69,
      "start": 30.812,
      "duration": 0.0934,
      "velocity": 95,
      "chip": "ym2612"
    },
    {
      "channel": 2,
      "note": 56,
      "start": 30.8141,
      "duration": 0.0923,
      "velocity": 112,
      "chip": "ym2612"
    },
    {
      "channel": 5,
      "note": 83,
      "start": 30.8736,
      "duration": 0.5196,
      "velocity": 87,
      "chip": "ym2612"
    },
    {
      "channel": 3,
      "note": 64,
      "start": 30.9406,
      "duration": 0.0941,
      "velocity": 95,
      "chip": "ym2612"
    },
    {
      "channel": 4,
      "note": 68,
      "start": 30.9414,
      "duration": 0.0938,
      "velocity": 95,
      "chip": "ym2612"
    },
    {
      "channel": 2,
      "note": 26,
      "start": 30.9434,
      "duration": 0.0598,
      "velocity": 120,
      "chip": "ym2612"
    },
    {
      "channel": 1,
      "note": 52,
      "start": 31.0704,
      "duration": 0.0941,
      "velocity": 77,
      "chip": "ym2612"
    },
    {
      "channel": 3,
      "note": 64,
      "start": 31.0712,
      "duration": 0.0938,
      "velocity": 95,
      "chip": "ym2612"
    },
    {
      "channel": 4,
      "note": 69,
      "start": 31.072,
      "duration": 0.0935,
      "velocity": 95,
      "chip": "ym2612"
    },
    {
      "channel": 2,
      "note": 26,
      "start": 31.074,
      "duration": 0.0594,
      "velocity": 120,
      "chip": "ym2612"
    },
    {
      "channel": 0,
      "note": 84,
      "start": 31.2002,
      "duration": 0.1915,
      "velocity": 87,
      "chip": "ym2612"
    },
    {
      "channel": 1,
      "note": 57,
      "start": 31.2011,
      "duration": 0.2592,
      "velocity": 77,
      "chip": "ym2612"
    },
    {
      "channel": 3,
      "note": 64,
      "start": 31.2047,
      "duration": 0.2562,
      "velocity": 95,
      "chip": "ym2612"
    },
    {
      "channel": 4,
      "note": 73,
      "start": 31.2083,
      "duration": 0.2534,
      "velocity": 95,
      "chip": "ym2612"
    },
    {
      "channel": 2,
      "note": 26,
      "start": 31.2102,
      "duration": 0.0531,
      "velocity": 120,
      "chip": "ym2612"
    },
    {
      "channel": 5,
      "note": 84,
      "start": 31.3939,
      "duration": 0.1989,
      "velocity": 87,
      "chip": "ym2612"
    },
    {
      "channel": 0,
      "note": 85,
      "start": 31.4602,
      "duration": 0.1294,
      "velocity": 87,
      "chip": "ym2612"
    },
    {
      "channel": 1,
      "note": 57,
      "start": 31.4608,
      "duration": 0.0938,
      "velocity": 77,
      "chip": "ym2612"
    },
    {
      "channel": 3,
      "note": 64,
      "start": 31.4615,
      "duration": 0.0936,
      "velocity": 95,
      "chip": "ym2612"
    },
    {
      "channel": 4,
      "note": 73,
      "start": 31.4621,
      "duration": 0.0934,
      "velocity": 95,
      "chip": "ym2612"
    },
    {
      "channel": 2,
      "note": 103,
      "start": 31.4641,
      "duration": 0.1226,
      "velocity": 103,
      "chip": "ym2612"
    },
    {
      "channel": 0,
      "note": 84,
      "start": 31.5902,
      "duration": 0.2593,
      "velocity": 87,
      "chip": "ym2612"
    },
    {
      "channel": 1,
      "note": 57,
      "start": 31.591,
      "duration": 0.0936,
      "velocity": 77,
      "chip": "ym2612"
    },
    {
      "channel": 3,
      "note": 64,
      "start": 31.5918,
      "duration": 0.0932,
      "velocity": 95,
      "chip": "ym2612"
    },
    {
      "channel": 4,
      "note": 73,
      "start": 31.5926,
      "duration": 0.0929,
      "velocity": 95,
      "chip": "ym2612"
    },
    {
      "channel": 2,
      "note": 56,
      "start": 31.5948,
      "duration": 0.0916,
      "velocity": 112,
      "chip": "ym2612"
    },
    {
      "channel": 5,
      "note": 85,
      "start": 31.6537,
      "duration": 0.1289,
      "velocity": 87,
      "chip": "ym2612"
    },
    {
      "channel": 5,
      "note": 84,
      "start": 31.7833,
      "duration": 0.2597,
      "velocity": 87,
      "chip": "ym2612"
    },
    {
      "channel": 0,
      "note": 85,
      "start": 31.8503,
      "duration": 0.3893,
      "velocity": 87,
      "chip": "ym2612"
    },
    {
      "channel": 1,
      "note": 57,
      "start": 31.8511,
      "duration": 0.0936,
      "velocity": 77,
      "chip": "ym2612"
    },
    {
      "channel": 3,
      "note": 64,
      "start": 31.8519,
      "duration": 0.0932,
      "velocity": 95,
      "chip": "ym2612"
    },
    {
      "channel": 4,
      "note": 73,
      "start": 31.8527,
      "duration": 0.0929,
      "velocity": 95,
      "chip": "ym2612"
    },
    {
      "channel": 2,
      "note": 103,
      "start": 31.8547,
      "duration": 0.122,
      "velocity": 103,
      "chip": "ym2612"
    },
    {
      "channel": 1,
      "note": 57,
      "start": 31.9805,
      "duration": 0.0941,
      "velocity": 77,
      "chip": "ym2612"
    },
    {
      "channel": 3,
      "note": 64,
      "start": 31.9813,
      "duration": 0.0938,
      "velocity": 95,
      "chip": "ym2612"
    },
    {
      "channel": 4,
      "note": 73,
      "start": 31.9822,
      "duration": 0.0934,
      "velocity": 95,
      "chip": "ym2612"
    },
    {
      "channel": 2,
      "note": 103,
      "start": 31.9842,
      "duration": 0.1237,
      "velocity": 103,
      "chip": "ym2612"
    },
    {
      "channel": 5,
      "note": 85,
      "start": 32.0437,
      "duration": 0.3894,
      "velocity": 87,
      "chip": "ym2612"
    },
    {
      "channel": 0,
      "note": 81,
      "start": 32.2402,
      "duration": 0.3894,
      "velocity": 87,
      "chip": "ym2612"
    },
    {
      "channel": 1,
      "note": 57,
      "start": 32.2411,
      "duration": 0.0936,
      "velocity": 77,
      "chip": "ym2612"
    },
    {
      "channel": 3,
      "note": 64,
      "start": 32.2419,
      "duration": 0.0932,
      "velocity": 95,
      "chip": "ym2612"
    },
    {
      "channel": 4,
      "note": 73,
      "start": 32.2427,
      "duration": 0.0929,
      "velocity": 95,
      "chip": "ym2612"
    },
    {
      "channel": 2,
      "note": 103,
      "start": 32.2448,
      "duration": 0.1221,
      "velocity": 103,
      "chip": "ym2612"
    },
    {
      "channel": 1,
      "note": 57,
      "start": 32.3706,
      "duration": 0.0941,
      "velocity": 77,
      "chip": "ym2612"
    },
    {
      "channel": 3,
      "note": 64,
      "start": 32.3714,
      "duration": 0.0938,
      "velocity": 95,
      "chip": "ym2612"
    },
    {
      "channel": 4,
      "note": 73,
      "start": 32.3722,
      "duration": 0.0935,
      "velocity": 95,
      "chip": "ym2612"
    },
    {
      "channel": 2,
      "note": 56,
      "start": 32.3743,
      "duration": 0.0923,
      "velocity": 112,
      "chip": "ym2612"
    },
    {
      "channel": 5,
      "note": 81,
      "start": 32.4338,
      "duration": 0.3894,
      "velocity": 87,
      "chip": "ym2612"
    },
    {
      "channel": 3,
      "note": 64,
      "start": 32.5008,
      "duration": 0.0941,
      "velocity": 95,
      "chip": "ym2612"
    },
    {
      "channel": 4,
      "note": 73,
      "start": 32.5016,
      "duration": 0.0937,
      "velocity": 95,
      "chip": "ym2612"
    },
    {
      "channel": 2,
      "note": 26,
      "start": 32.5036,
      "duration": 0.0597,
      "velocity": 120,
      "chip": "ym2612"
    },
    {
      "channel": 0,
      "note": 81,
      "start": 32.6303,
      "duration": 0.1294,
      "velocity": 87,
      "chip": "ym2612"
    },
    {
      "channel": 1,
      "note": 57,
      "start": 32.6311,
      "duration": 0.0936,
      "velocity": 77,
      "chip": "ym2612"
    },
    {
      "channel": 3,
      "note": 64,
      "start": 32.632,
      "duration": 0.0932,
      "velocity": 95,
      "chip": "ym2612"
    },
    {
      "channel": 4,
      "note": 71,
      "start": 32.6327,
      "duration": 0.0929,
      "velocity": 95,
      "chip": "ym2612"
    },
    {
      "channel": 2,
      "note": 26,
      "start": 32.6348,
      "duration": 0.0587,
      "velocity": 120,
      "chip": "ym2612"
    },
    {
      "channel": 0,
      "note": 83,
      "start": 32.7604,
      "duration": 0.6492,
      "velocity": 87,
      "chip": "ym2612"
    },
    {
      "channel": 1,
      "note": 54,
      "start": 32.7612,
      "duration": 0.2588,
      "velocity": 77,
      "chip": "ym2612"
    },
    {
      "channel": 3,
      "note": 64,
      "start": 32.7621,
      "duration": 0.0929,
      "velocity": 95,
      "chip": "ym2612"
    },
    {
      "channel": 4,
      "note": 69,
      "start": 32.7629,
      "duration": 0.2585,
      "velocity": 95,
      "chip": "ym2612"
    },
    {
      "channel": 2,
      "note": 26,
      "start": 32.765,
      "duration": 0.059,
      "velocity": 120,
      "chip": "ym2612"
    },
    {
      "channel": 5,
      "note": 81,
      "start": 32.8238,
      "duration": 0.1292,
      "velocity": 87,
      "chip": "ym2612"
    },
    {
      "channel": 5,
      "note": 83,
      "start": 32.9537,
      "duration": 0.6495,
      "velocity": 87,
      "chip": "ym2612"
    },
    {
      "channel": 1,
      "note": 54,
      "start": 33.0205,
      "duration": 0.0944,
      "velocity": 77,
      "chip": "ym2612"
    },
    {
      "channel": 3,
      "note": 64,
      "start": 33.0212,
      "duration": 0.0941,
      "velocity": 95,
      "chip": "ym2612"
    },
    {
      "channel": 4,
      "note": 69,
      "start": 33.0219,
      "duration": 0.0939,
      "velocity": 95,
      "chip": "ym2612"
    },
    {
      "channel": 2,
      "note": 103,
      "start": 33.0239,
      "duration": 0.1229,
      "velocity": 103,
      "chip": "ym2612"
    },
    {
      "channel": 1,
      "note": 54,
      "start": 33.1507,
      "duration": 0.0941,
      "velocity": 77,
      "chip": "ym2612"
    },
    {
      "channel": 3,
      "note": 64,
      "start": 33.1515,
      "duration": 0.0937,
      "velocity": 95,
      "chip": "ym2612"
    },
    {
      "channel": 4,
      "note": 69,
      "start": 33.1523,
      "duration": 0.0934,
      "velocity": 95,
      "chip": "ym2612"
    },
    {
      "channel": 2,
      "note": 56,
      "start": 33.1544,
      "duration": 0.0922,
      "velocity": 112,
      "chip": "ym2612"
    },
    {
      "channel": 0,
      "note": 81,
      "start": 33.4103,
      "duration": 0.3894,
      "velocity": 87,
      "chip": "ym2612"
    },
    {
      "channel": 1,
      "note": 54,
      "start": 33.4111,
      "duration": 0.0936,
      "velocity": 77,
      "chip": "ym2612"
    },
    {
      "channel": 3,
      "note": 64,
      "start": 33.4119,
      "duration": 0.0933,
      "velocity": 95,
      "chip": "ym2612"
    },
    {
      "channel": 4,
      "note": 69,
      "start": 33.4128,
      "duration": 0.0929,
      "velocity": 95,
      "chip": "ym2612"
    },
    {
      "channel": 2,
      "note": 103,
      "start": 33.4149,
      "duration": 0.1221,
      "velocity": 103,
      "chip": "ym2612"
    },
    {
      "channel": 1,
      "note": 54,
      "start": 33.5407,
      "duration": 0.0941,
      "velocity": 77,
      "chip": "ym2612"
    },
    {
      "channel": 3,
      "note": 64,
      "start": 33.5415,
      "duration": 0.0938,
      "velocity": 95,
      "chip": "ym2612"
    },
    {
      "channel": 4,
      "note": 69,
      "start": 33.5423,
      "duration": 0.0934,
      "velocity": 95,
      "chip": "ym2612"
    },
    {
      "channel": 2,
      "note": 103,
      "start": 33.5444,
      "duration": 0.1237,
      "velocity": 103,
      "chip": "ym2612"
    },
    {
      "channel": 5,
      "note": 81,
      "start": 33.6039,
      "duration": 0.3893,
      "velocity": 87,
      "chip": "ym2612"
    },
    {
      "channel": 0,
      "note": 88,
      "start": 33.8005,
      "duration": 0.3216,
      "velocity": 87,
      "chip": "ym2612"
    },
    {
      "channel": 1,
      "note": 54,
      "start": 33.8012,
      "duration": 0.0936,
      "velocity": 77,
      "chip": "ym2612"
    },
    {
      "channel": 3,
      "note": 64,
      "start": 33.8021,
      "duration": 0.0932,
      "velocity": 95,
      "chip": "ym2612"
    },
    {
      "channel": 4,
      "note": 69,
      "start": 33.8028,
      "duration": 0.0929,
      "velocity": 95,
      "chip": "ym2612"
    },
    {
      "channel": 2,
      "note": 103,
      "start": 33.8049,
      "duration": 0.122,
      "velocity": 103,
      "chip": "ym2612"
    },
    {
      "channel": 1,
      "note": 54,
      "start": 33.9307,
      "duration": 0.0941,
      "velocity": 77,
      "chip": "ym2612"
    },
    {
      "channel": 3,
      "note": 64,
      "start": 33.9315,
      "duration": 0.0938,
      "velocity": 95,
      "chip": "ym2612"
    },
    {
      "channel": 4,
      "note": 69,
      "start": 33.9324,
      "duration": 0.0934,
      "velocity": 95,
      "chip": "ym2612"
    },
    {
      "channel": 2,
      "note": 56,
      "start": 33.9344,
      "duration": 0.0922,
      "velocity": 112,
      "chip": "ym2612"
    },
    {
      "channel": 5,
      "note": 88,
      "start": 33.9939,
      "duration": 0.3293,
      "velocity": 87,
      "chip": "ym2612"
    },
    {
      "channel": 3,
      "note": 64,
      "start": 34.0609,
      "duration": 0.0939,
      "velocity": 95,
      "chip": "ym2612"
    },
    {
      "channel": 4,
      "note": 69,
      "start": 34.0617,
      "duration": 0.0937,
      "velocity": 95,
      "chip": "ym2612"
    },
    {
      "channel": 2,
      "note": 26,
      "start": 34.0637,
      "duration": 0.06,
      "velocity": 120,
      "chip": "ym2612"
    },
    {
      "channel": 0,
      "note": 88,
      "start": 34.1905,
      "duration": 0.1294,
      "velocity": 87,
      "chip": "ym2612"
    },
    {
      "channel": 1,
      "note": 54,
      "start": 34.1913,
      "duration": 0.0936,
      "velocity": 77,
      "chip": "ym2612"
    },
    {
      "channel": 3,
      "note": 64,
      "start": 34.1921,
      "duration": 0.0932,
      "velocity": 95,
      "chip": "ym2612"
    },
    {
      "channel": 4,
      "note": 68,
      "start": 34.1929,
      "duration": 0.0929,
      "velocity": 95,
      "chip": "ym2612"
    },
    {
      "channel": 2,
      "note": 26,
      "start": 34.1949,
      "duration": 0.0587,
      "velocity": 120,
      "chip": "ym2612"
    },
    {
      "channel": 0,
      "note": 88,
      "start": 34.3206,
      "duration": 0.3893,
      "velocity": 87,
      "chip": "ym2612"
    },
    {
      "channel": 1,
      "note": 50,
      "start": 34.3213,
      "duration": 0.2588,
      "velocity": 77,
      "chip": "ym2612"
    },
    {
      "channel": 3,
      "note": 66,
      "start": 34.3222,
      "duration": 0.0929,
      "velocity": 95,
      "chip": "ym2612"
    },
    {
      "channel": 4,
      "note": 69,
      "start": 34.3231,
      "duration": 0.2585,
      "velocity": 95,
      "chip": "ym2612"
    },
    {
      "channel": 2,
      "note": 26,
      "start": 34.3252,
      "duration": 0.0589,
      "velocity": 120,
      "chip": "ym2612"
    },
    {
      "channel": 5,
      "note": 88,
      "start": 34.3839,
      "duration": 0.1292,
      "velocity": 87,
      "chip": "ym2612"
    },
    {
      "channel": 5,
      "note": 88,
      "start": 34.5138,
      "duration": 0.389,
      "velocity": 87,
      "chip": "ym2612"
    },
    {
      "channel": 1,
      "note": 50,
      "start": 34.5806,
      "duration": 0.0943,
      "velocity": 77,
      "chip": "ym2612"
    },
    {
      "channel": 3,
      "note": 66,
      "start": 34.5815,
      "duration": 0.0939,
      "velocity": 95,
      "chip": "ym2612"
    },
    {
      "channel": 4,
      "note": 69,
      "start": 34.5821,
      "duration": 0.0938,
      "velocity": 95,
      "chip": "ym2612"
    },
    {
      "channel": 2,
      "note": 103,
      "start": 34.5841,
      "duration": 0.1229,
      "velocity": 103,
      "chip": "ym2612"
    },
    {
      "channel": 0,
      "note": 90,
      "start": 34.7105,
      "duration": 0.3894,
      "velocity": 87,
      "chip": "ym2612"
    },
    {
      "channel": 1,
      "note": 50,
      "start": 34.7113,
      "duration": 0.0936,
      "velocity": 77,
      "chip": "ym2612"
    },
    {
      "channel": 3,
      "note": 66,
      "start": 34.7121,
      "duration": 0.0933,
      "velocity": 95,
      "chip": "ym2612"
    },
    {
      "channel": 4,
      "note": 69,
      "start": 34.7129,
      "duration": 0.0929,
      "velocity": 95,
      "chip": "ym2612"
    },
    {
      "channel": 2,
      "note": 56,
      "start": 34.7151,
      "duration": 0.0917,
      "velocity": 112,
      "chip": "ym2612"
    },
    {
      "channel": 5,
      "note": 90,
      "start": 34.9035,
      "duration": 0.3893,
      "velocity": 87,
      "chip": "ym2612"
    },
    {
      "channel": 1,
      "note": 50,
      "start": 34.9708,
      "duration": 0.0942,
      "velocity": 77,
      "chip": "ym2612"
    },
    {
      "channel": 3,
      "note": 66,
      "start": 34.9716,
      "duration": 0.0939,
      "velocity": 95,
      "chip": "ym2612"
    },
    {
      "channel": 4,
      "note": 69,
      "start": 34.9724,
      "duration": 0.0935,
      "velocity": 95,
      "chip": "ym2612"
    },
    {
      "channel": 2,
      "note": 103,
      "start": 34.9745,
      "duration": 0.1226,
      "velocity": 103,
      "chip": "ym2612"
    },
    {
      "channel": 0,
      "note": 88,
      "start": 35.1005,
      "duration": 0.3893,
      "velocity": 87,
      "chip": "ym2612"
    },
    {
      "channel": 1,
      "note": 50,
      "start": 35.1014,
      "duration": 0.0935,
      "velocity": 77,
      "chip": "ym2612"
    },
    {
      "channel": 3,
      "note": 66,
      "start": 35.1021,
      "duration": 0.0933,
      "velocity": 95,
      "chip": "ym2612"
    },
    {
      "channel": 4,
      "note": 69,
      "start": 35.103,
      "duration": 0.0929,
      "velocity": 95,
      "chip": "ym2612"
    },
    {
      "channel": 2,
      "note": 103,
      "start": 35.1051,
      "duration": 0.1232,
      "velocity": 103,
      "chip": "ym2612"
    },
    {
      "channel": 5,
      "note": 88,
      "start": 35.2936,
      "duration": 0.3897,
      "velocity": 87,
      "chip": "ym2612"
    },
    {
      "channel": 1,
      "note": 50,
      "start": 35.3609,
      "duration": 0.0941,
      "velocity": 77,
      "chip": "ym2612"
    },
    {
      "channel": 3,
      "note": 66,
      "start": 35.3616,
      "duration": 0.0938,
      "velocity": 95,
      "chip": "ym2612"
    },
    {
      "channel": 4,
      "note": 69,
      "start": 35.3624,
      "duration": 0.0935,
      "velocity": 95,
      "chip": "ym2612"
    },
    {
      "channel": 2,
      "note": 103,
      "start": 35.3645,
      "duration": 0.1226,
      "velocity": 103,
      "chip": "ym2612"
    },
    {
      "channel": 0,
      "note": 90,
      "start": 35.4906,
      "duration": 0.3894,
      "velocity": 87,
      "chip": "ym2612"
    },
    {
      "channel": 1,
      "note": 50,
      "start": 35.4913,
      "duration": 0.0937,
      "velocity": 77,
      "chip": "ym2612"
    },
    {
      "channel": 4,
      "note": 69,
      "start": 35.4923,
      "duration": 0.0933,
      "velocity": 95,
      "chip": "ym2612"
    },
    {
      "channel": 2,
      "note": 56,
      "start": 35.4944,
      "duration": 0.0922,
      "velocity": 112,
      "chip": "ym2612"
    },
    {
      "channel": 3,
      "note": 66,
      "start": 35.621,
      "duration": 0.0941,
      "velocity": 95,
      "chip": "ym2612"
    },
    {
      "channel": 4,
      "note": 69,
      "start": 35.6218,
      "duration": 0.0939,
      "velocity": 95,
      "chip": "ym2612"
    },
    {
      "channel": 2,
      "note": 26,
      "start": 35.6238,
      "duration": 0.0603,
      "velocity": 120,
      "chip": "ym2612"
    },
    {
      "channel": 5,
      "note": 90,
      "start": 35.6839,
      "duration": 0.3892,
      "velocity": 87,
      "chip": "ym2612"
    },
    {
      "channel": 1,
      "note": 50,
      "start": 35.7509,
      "duration": 0.0941,
      "velocity": 77,
      "chip": "ym2612"
    },
    {
      "channel": 3,
      "note": 66,
      "start": 35.7517,
      "duration": 0.0937,
      "velocity": 95,
      "chip": "ym2612"
    },
    {
      "channel": 4,
      "note": 70,
      "start": 35.7525,
      "duration": 0.0934,
      "velocity": 95,
      "chip": "ym2612"
    },
    {
      "channel": 2,
      "note": 26,
      "start": 35.7545,
      "duration": 0.0592,
      "velocity": 120,
      "chip": "ym2612"
    },
    {
      "channel": 0,
      "note": 95,
      "start": 35.8806,
      "duration": 0.3893,
      "velocity": 87,
      "chip": "ym2612"
    },
    {
      "channel": 1,
      "note": 52,
      "start": 35.8815,
      "duration": 0.2588,
      "velocity": 77,
      "chip": "ym2612"
    },
    {
      "channel": 3,
      "note": 64,
      "start": 35.8824,
      "duration": 0.0929,
      "velocity": 95,
      "chip": "ym2612"
    },
    {
      "channel": 4,
      "note": 71,
      "start": 35.8832,
      "duration": 0.0926,
      "velocity": 95,
      "chip": "ym2612"
    },
    {
      "channel": 2,
      "note": 26,
      "start": 35.8852,
      "duration": 0.0586,
      "velocity": 120,
      "chip": "ym2612"
    },
    {
      "channel": 5,
      "note": 95,
      "start": 36.0738,
      "duration": 0.3893,
      "velocity": 87,
      "chip": "ym2612"
    },
    {
      "channel": 1,
      "note": 52,
      "start": 36.1407,
      "duration": 0.0943,
      "velocity": 77,
      "chip": "ym2612"
    },
    {
      "channel": 3,
      "note": 64,
      "start": 36.1415,
      "duration": 0.094,
      "velocity": 95,
      "chip": "ym2612"
    },
    {
      "channel": 4,
      "note": 71,
      "start": 36.1423,
      "duration": 0.0937,
      "velocity": 95,
      "chip": "ym2612"
    },
    {
      "channel": 2,
      "note": 103,
      "start": 36.1444,
      "duration": 0.1228,
      "velocity": 103,
      "chip": "ym2612"
    },
    {
      "channel": 0,
      "note": 93,
      "start": 36.2707,
      "duration": 0.3893,
      "velocity": 87,
      "chip": "ym2612"
    },
    {
      "channel": 1,
      "note": 52,
      "start": 36.2714,
      "duration": 0.0937,
      "velocity": 77,
      "chip": "ym2612"
    },
    {
      "channel": 3,
      "note": 64,
      "start": 36.2722,
      "duration": 0.0933,
      "velocity": 95,
      "chip": "ym2612"
    },
    {
      "channel": 4,
      "note": 71,
      "start": 36.273,
      "duration": 0.0931,
      "velocity": 95,
      "chip": "ym2612"
    },
    {
      "channel": 2,
      "note": 56,
      "start": 36.2751,
      "duration": 0.0919,
      "velocity": 112,
      "chip": "ym2612"
    },
    {
      "channel": 4,
      "note": 71,
      "start": 36.3986,
      "duration": 0.0968,
      "velocity": 95,
      "chip": "ym2612"
    },
    {
      "channel": 5,
      "note": 93,
      "start": 36.4638,
      "duration": 0.3894,
      "velocity": 87,
      "chip": "ym2612"
    },
    {
      "channel": 1,
      "note": 52,
      "start": 36.531,
      "duration": 0.0941,
      "velocity": 77,
      "chip": "ym2612"
    },
    {
      "channel": 3,
      "note": 64,
      "start": 36.5318,
      "duration": 0.0938,
      "velocity": 95,
      "chip": "ym2612"
    },
    {
      "channel": 4,
      "note": 71,
      "start": 36.5326,
      "duration": 0.0934,
      "velocity": 95,
      "chip": "ym2612"
    },
    {
      "channel": 2,
      "note": 103,
      "start": 36.5346,
      "duration": 0.1225,
      "velocity": 103,
      "chip": "ym2612"
    },
    {
      "channel": 0,
      "note": 92,
      "start": 36.6607,
      "duration": 0.3894,
      "velocity": 87,
      "chip": "ym2612"
    },
    {
      "channel": 1,
      "note": 52,
      "start": 36.6614,
      "duration": 0.0937,
      "velocity": 77,
      "chip": "ym2612"
    },
    {
      "channel": 3,
      "note": 64,
      "start": 36.6622,
      "duration": 0.0933,
      "velocity": 95,
      "chip": "ym2612"
    },
    {
      "channel": 2,
      "note": 103,
      "start": 36.6644,
      "duration": 0.1247,
      "velocity": 103,
      "chip": "ym2612"
    },
    {
      "channel": 4,
      "note": 71,
      "start": 36.7885,
      "duration": 0.0969,
      "velocity": 95,
      "chip": "ym2612"
    },
    {
      "channel": 5,
      "note": 92,
      "start": 36.8539,
      "duration": 0.3896,
      "velocity": 87,
      "chip": "ym2612"
    },
    {
      "channel": 1,
      "note": 52,
      "start": 36.921,
      "duration": 0.0943,
      "velocity": 77,
      "chip": "ym2612"
    },
    {
      "channel": 3,
      "note": 64,
      "start": 36.9218,
      "duration": 0.0939,
      "velocity": 95,
      "chip": "ym2612"
    },
    {
      "channel": 2,
      "note": 103,
      "start": 36.9239,
      "duration": 0.1233,
      "velocity": 103,
      "chip": "ym2612"
    },
    {
      "channel": 0,
      "note": 93,
      "start": 37.0507,
      "duration": 0.392,
      "velocity": 100,
      "chip": "ym2612"
    },
    {
      "channel": 1,
      "note": 52,
      "start": 37.0516,
      "duration": 0.0935,
      "velocity": 77,
      "chip": "ym2612"
    },
    {
      "channel": 3,
      "note": 64,
      "start": 37.0523,
      "duration": 0.0932,
      "velocity": 95,
      "chip": "ym2612"
    },
    {
      "channel": 4,
      "note": 69,
      "start": 37.0532,
      "duration": 0.0929,
      "velocity": 95,
      "chip": "ym2612"
    },
    {
      "channel": 2,
      "note": 56,
      "start": 37.0553,
      "duration": 0.0917,
      "velocity": 112,
      "chip": "ym2612"
    },
    {
      "channel": 3,
      "note": 64,
      "start": 37.1812,
      "duration": 0.094,
      "velocity": 95,
      "chip": "ym2612"
    },
    {
      "channel": 4,
      "note": 68,
      "start": 37.182,
      "duration": 0.0937,
      "velocity": 95,
      "chip": "ym2612"
    },
    {
      "channel": 2,
      "note": 26,
      "start": 37.1841,
      "duration": 0.0602,
      "velocity": 120,
      "chip": "ym2612"
    },
    {
      "channel": 5,
      "note": 93,
      "start": 37.2441,
      "duration": 0.3924,
      "velocity": 100,
      "chip": "ym2612"
    },
    {
      "channel": 1,
      "note": 52,
      "start": 37.311,
      "duration": 0.0941,
      "velocity": 77,
      "chip": "ym2612"
    },
    {
      "channel": 3,
      "note": 64,
      "start": 37.3119,
      "duration": 0.0938,
      "velocity": 95,
      "chip": "ym2612"
    },
    {
      "channel": 4,
      "note": 69,
      "start": 37.3127,
      "duration": 0.0934,
      "velocity": 95,
      "chip": "ym2612"
    },
    {
      "channel": 2,
      "note": 26,
      "start": 37.3147,
      "duration": 0.0592,
      "velocity": 120,
      "chip": "ym2612"
    },
    {
      "channel": 0,
      "note": 100,
      "start": 37.4434,
      "duration": 0.1889,
      "velocity": 100,
      "chip": "ym2612"
    },
    {
      "channel": 1,
      "note": 49,
      "start": 37.4442,
      "duration": 0.6462,
      "velocity": 77,
      "chip": "ym2612"
    },
    {
      "channel": 3,
      "note": 64,
      "start": 37.4478,
      "duration": 1.5538,
      "velocity": 80,
      "chip": "ym2612"
    },
    {
      "channel": 4,
      "note": 73,
      "start": 37.4513,
      "duration": 1.5511,
      "velocity": 80,
      "chip": "ym2612"
    },
    {
      "channel": 2,
      "note": 26,
      "start": 37.4534,
      "duration": 0.0506,
      "velocity": 120,
      "chip": "ym2612"
    },
    {
      "channel": 5,
      "note": 100,
      "start": 37.6371,
      "duration": 0.1945,
      "velocity": 100,
      "chip": "ym2612"
    },
    {
      "channel": 0,
      "note": 97,
      "start": 37.7008,
      "duration": 0.9094,
      "velocity": 100,
      "chip": "ym2612"
    },
    {
      "channel": 2,
      "note": 103,
      "start": 37.7039,
      "duration": 0.1235,
      "velocity": 103,
      "chip": "ym2612"
    },
    {
      "channel": 2,
      "note": 56,
      "start": 37.8337,
      "duration": 0.0931,
      "velocity": 112,
      "chip": "ym2612"
    },
    {
      "channel": 5,
      "note": 97,
      "start": 37.8943,
      "duration": 0.9093,
      "velocity": 100,
      "chip": "ym2612"
    },
    {
      "channel": 1,
      "note": 49,
      "start": 38.091,
      "duration": 0.1295,
      "velocity": 77,
      "chip": "ym2612"
    },
    {
      "channel": 2,
      "note": 103,
      "start": 38.0936,
      "duration": 0.1237,
      "velocity": 103,
      "chip": "ym2612"
    },
    {
      "channel": 1,
      "note": 49,
      "start": 38.221,
      "duration": 0.1918,
      "velocity": 77,
      "chip": "ym2612"
    },
    {
      "channel": 2,
      "note": 103,
      "start": 38.2239,
      "duration": 0.1251,
      "velocity": 103,
      "chip": "ym2612"
    },
    {
      "channel": 1,
      "note": 49,
      "start": 38.4812,
      "duration": 0.1916,
      "velocity": 77,
      "chip": "ym2612"
    },
    {
      "channel": 2,
      "note": 103,
      "start": 38.4839,
      "duration": 0.1235,
      "velocity": 103,
      "chip": "ym2612"
    },
    {
      "channel": 0,
      "note": 95,
      "start": 38.6109,
      "duration": 0.2241,
      "velocity": 100,
      "chip": "ym2612"
    },
    {
      "channel": 2,
      "note": 56,
      "start": 38.6139,
      "duration": 0.0926,
      "velocity": 112,
      "chip": "ym2612"
    },
    {
      "channel": 2,
      "note": 26,
      "start": 38.7432,
      "duration": 0.0612,
      "velocity": 120,
      "chip": "ym2612"
    },
    {
      "channel": 5,
      "note": 95,
      "start": 38.8043,
      "duration": 0.2267,
      "velocity": 100,
      "chip": "ym2612"
    },
    {
      "channel": 0,
      "note": 97,
      "start": 38.8357,
      "duration": 0.1647,
      "velocity": 100,
      "chip": "ym2612"
    },
    {
      "channel": 1,
      "note": 49,
      "start": 38.8712,
      "duration": 0.1296,
      "velocity": 77,
      "chip": "ym2612"
    },
    {
      "channel": 2,
      "note": 26,
      "start": 38.8738,
      "duration": 0.0603,
      "velocity": 120,
      "chip": "ym2612"
    },
    {
      "channel": 1,
      "note": 47,
      "start": 39.0014,
      "duration": 0.6497,
      "velocity": 77,
      "chip": "ym2612"
    },
    {
      "channel": 3,
      "note": 62,
      "start": 39.0023,
      "duration": 1.5595,
      "velocity": 80,
      "chip": "ym2612"
    },
    {
      "channel": 4,
      "note": 73,
      "start": 39.0031,
      "duration": 1.5595,
      "velocity": 80,
      "chip": "ym2612"
    },
    {
      "channel": 2,
      "note": 26,
      "start": 39.0051,
      "duration": 0.0588,
      "velocity": 120,
      "chip": "ym2612"
    },
    {
      "channel": 5,
      "note": 97,
      "start": 39.0318,
      "duration": 0.1618,
      "velocity": 100,
      "chip": "ym2612"
    },
    {
      "channel": 0,
      "note": 97,
      "start": 39.2257,
      "duration": 0.4246,
      "velocity": 100,
      "chip": "ym2612"
    },
    {
      "channel": 2,
      "note": 103,
      "start": 39.2633,
      "duration": 0.1242,
      "velocity": 103,
      "chip": "ym2612"
    },
    {
      "channel": 2,
      "note": 56,
      "start": 39.3935,
      "duration": 0.0935,
      "velocity": 112,
      "chip": "ym2612"
    },
    {
      "channel": 5,
      "note": 97,
      "start": 39.4221,
      "duration": 0.4217,
      "velocity": 100,
      "chip": "ym2612"
    },
    {
      "channel": 0,
      "note": 95,
      "start": 39.651,
      "duration": 0.1293,
      "velocity": 100,
      "chip": "ym2612"
    },
    {
      "channel": 1,
      "note": 47,
      "start": 39.6516,
      "duration": 0.1295,
      "velocity": 77,
      "chip": "ym2612"
    },
    {
      "channel": 2,
      "note": 103,
      "start": 39.6543,
      "duration": 0.1232,
      "velocity": 103,
      "chip": "ym2612"
    },
    {
      "channel": 0,
      "note": 97,
      "start": 39.781,
      "duration": 0.3893,
      "velocity": 100,
      "chip": "ym2612"
    },
    {
      "channel": 1,
      "note": 47,
      "start": 39.7817,
      "duration": 0.1912,
      "velocity": 77,
      "chip": "ym2612"
    },
    {
      "channel": 2,
      "note": 103,
      "start": 39.7847,
      "duration": 0.1245,
      "velocity": 103,
      "chip": "ym2612"
    },
    {
      "channel": 5,
      "note": 95,
      "start": 39.8445,
      "duration": 0.1294,
      "velocity": 100,
      "chip": "ym2612"
    },
    {
      "channel": 5,
      "note": 97,
      "start": 39.9746,
      "duration": 0.3891,
      "velocity": 100,
      "chip": "ym2612"
    },
    {
      "channel": 1,
      "note": 47,
      "start": 40.0413,
      "duration": 0.1298,
      "velocity": 77,
      "chip": "ym2612"
    },
    {
      "channel": 2,
      "note": 103,
      "start": 40.044,
      "duration": 0.1236,
      "velocity": 103,
      "chip": "ym2612"
    },
    {
      "channel": 0,
      "note": 95,
      "start": 40.171,
      "duration": 0.3894,
      "velocity": 100,
      "chip": "ym2612"
    },
    {
      "channel": 2,
      "note": 56,
      "start": 40.1743,
      "duration": 0.0924,
      "velocity": 112,
      "chip": "ym2612"
    },
    {
      "channel": 2,
      "note": 26,
      "start": 40.3034,
      "duration": 0.0613,
      "velocity": 120,
      "chip": "ym2612"
    },
    {
      "channel": 5,
      "note": 95,
      "start": 40.3644,
      "duration": 0.3894,
      "velocity": 100,
      "chip": "ym2612"
    },
    {
      "channel": 1,
      "note": 47,
      "start": 40.4314,
      "duration": 0.1296,
      "velocity": 77,
      "chip": "ym2612"
    },
    {
      "channel": 2,
      "note": 26,
      "start": 40.434,
      "duration": 0.0602,
      "velocity": 120,
      "chip": "ym2612"
    },
    {
      "channel": 1,
      "note": 49,
      "start": 40.5616,
      "duration": 0.6491,
      "velocity": 77,
      "chip": "ym2612"
    },
    {
      "channel": 3,
      "note": 64,
      "start": 40.5624,
      "duration": 1.5594,
      "velocity": 80,
      "chip": "ym2612"
    },
    {
      "channel": 4,
      "note": 73,
      "start": 40.5633,
      "duration": 1.5594,
      "velocity": 80,
      "chip": "ym2612"
    },
    {
      "channel": 2,
      "note": 26,
      "start": 40.5653,
      "duration": 0.059,
      "velocity": 120,
      "chip": "ym2612"
    },
    {
      "channel": 0,
      "note": 100,
      "start": 40.5908,
      "duration": 0.2296,
      "velocity": 100,
      "chip": "ym2612"
    },
    {
      "channel": 5,
      "note": 100,
      "start": 40.7871,
      "duration": 0.2268,
      "velocity": 100,
      "chip": "ym2612"
    },
    {
      "channel": 0,
      "note": 97,
      "start": 40.8211,
      "duration": 0.5193,
      "velocity": 100,
      "chip": "ym2612"
    },
    {
      "channel": 2,
      "note": 103,
      "start": 40.8241,
      "duration": 0.1235,
      "velocity": 103,
      "chip": "ym2612"
    },
    {
      "channel": 2,
      "note": 56,
      "start": 40.9539,
      "duration": 0.0933,
      "velocity": 112,
      "chip": "ym2612"
    },
    {
      "channel": 5,
      "note": 97,
      "start": 41.0147,
      "duration": 0.5199,
      "velocity": 100,
      "chip": "ym2612"
    },
    {
      "channel": 1,
      "note": 49,
      "start": 41.2112,
      "duration": 0.1298,
      "velocity": 77,
      "chip": "ym2612"
    },
    {
      "channel": 2,
      "note": 103,
      "start": 41.2139,
      "duration": 0.1237,
      "velocity": 103,
      "chip": "ym2612"
    },
    {
      "channel": 0,
      "note": 97,
      "start": 41.341,
      "duration": 0.1917,
      "velocity": 100,
      "chip": "ym2612"
    },
    {
      "channel": 1,
      "note": 49,
      "start": 41.3416,
      "duration": 0.1919,
      "velocity": 77,
      "chip": "ym2612"
    },
    {
      "channel": 2,
      "note": 103,
      "start": 41.3446,
      "duration": 0.1248,
      "velocity": 103,
      "chip": "ym2612"
    },
    {
      "channel": 0,
      "note": 100,
      "start": 41.5334,
      "duration": 0.422,
      "velocity": 100,
      "chip": "ym2612"
    },
    {
      "channel": 5,
      "note": 97,
      "start": 41.5351,
      "duration": 0.1966,
      "velocity": 100,
      "chip": "ym2612"
    },
    {
      "channel": 1,
      "note": 49,
      "start": 41.6014,
      "duration": 0.1917,
      "velocity": 77,
      "chip": "ym2612"
    },
    {
      "channel": 2,
      "note": 103,
      "start": 41.6041,
      "duration": 0.1236,
      "velocity": 103,
      "chip": "ym2612"
    },
    {
      "channel": 5,
      "note": 100,
      "start": 41.7325,
      "duration": 0.4189,
      "velocity": 100,
      "chip": "ym2612"
    },
    {
      "channel": 2,
      "note": 56,
      "start": 41.7343,
      "duration": 0.0925,
      "velocity": 112,
      "chip": "ym2612"
    },
    {
      "channel": 2,
      "note": 26,
      "start": 41.8635,
      "duration": 0.0608,
      "velocity": 120,
      "chip": "ym2612"
    },
    {
      "channel": 0,
      "note": 102,
      "start": 41.956,
      "duration": 0.1646,
      "velocity": 100,
      "chip": "ym2612"
    },
    {
      "channel": 1,
      "note": 49,
      "start": 41.9915,
      "duration": 0.1296,
      "velocity": 77,
      "chip": "ym2612"
    },
    {
      "channel": 2,
      "note": 26,
      "start": 41.9941,
      "duration": 0.0603,
      "velocity": 120,
      "chip": "ym2612"
    },
    {
      "channel": 1,
      "note": 47,
      "start": 42.1217,
      "duration": 0.6493,
      "velocity": 77,
      "chip": "ym2612"
    },
    {
      "channel": 3,
      "note": 62,
      "start": 42.1226,
      "duration": 1.5595,
      "velocity": 80,
      "chip": "ym2612"
    },
    {
      "channel": 4,
      "note": 73,
      "start": 42.1233,
      "duration": 1.5596,
      "velocity": 80,
      "chip": "ym2612"
    },
    {
      "channel": 2,
      "note": 26,
      "start": 42.1254,
      "duration": 0.0588,
      "velocity": 120,
      "chip": "ym2612"
    },
    {
      "channel": 5,
      "note": 102,
      "start": 42.1521,
      "duration": 0.1618,
      "velocity": 100,
      "chip": "ym2612"
    },
    {
      "channel": 2,
      "note": 103,
      "start": 42.3835,
      "duration": 0.1243,
      "velocity": 103,
      "chip": "ym2612"
    },
    {
      "channel": 0,
      "note": 100,
      "start": 42.5112,
      "duration": 0.4192,
      "velocity": 100,
      "chip": "ym2612"
    },
    {
      "channel": 2,
      "note": 56,
      "start": 42.5144,
      "duration": 0.0927,
      "velocity": 112,
      "chip": "ym2612"
    },
    {
      "channel": 5,
      "note": 100,
      "start": 42.7048,
      "duration": 0.4216,
      "velocity": 100,
      "chip": "ym2612"
    },
    {
      "channel": 1,
      "note": 47,
      "start": 42.7714,
      "duration": 0.1296,
      "velocity": 77,
      "chip": "ym2612"
    },
    {
      "channel": 2,
      "note": 103,
      "start": 42.7741,
      "duration": 0.1237,
      "velocity": 103,
      "chip": "ym2612"
    },
    {
      "channel": 1,
      "note": 47,
      "start": 42.9014,
      "duration": 0.1917,
      "velocity": 77,
      "chip": "ym2612"
    },
    {
      "channel": 2,
      "note": 103,
      "start": 42.9045,
      "duration": 0.125,
      "velocity": 103,
      "chip": "ym2612"
    },
    {
      "channel": 0,
      "note": 97,
      "start": 42.9311,
      "duration": 0.2295,
      "velocity": 100,
      "chip": "ym2612"
    },
    {
      "channel": 5,
      "note": 97,
      "start": 43.1271,
      "duration": 0.2268,
      "velocity": 100,
      "chip": "ym2612"
    },
    {
      "channel": 0,
      "note": 100,
      "start": 43.1613,
      "duration": 0.2594,
      "velocity": 100,
      "chip": "ym2612"
    },
    {
      "channel": 1,
      "note": 47,
      "start": 43.1621,
      "duration": 0.1288,
      "velocity": 77,
      "chip": "ym2612"
    },
    {
      "channel": 2,
      "note": 103,
      "start": 43.1649,
      "duration": 0.123,
      "velocity": 103,
      "chip": "ym2612"
    },
    {
      "channel": 2,
      "note": 56,
      "start": 43.294,
      "duration": 0.0929,
      "velocity": 112,
      "chip": "ym2612"
    },
    {
      "channel": 5,
      "note": 100,
      "start": 43.3547,
      "duration": 0.2595,
      "velocity": 100,
      "chip": "ym2612"
    },
    {
      "channel": 2,
      "note": 26,
      "start": 43.4238,
      "duration": 0.0605,
      "velocity": 120,
      "chip": "ym2612"
    },
    {
      "channel": 0,
      "note": 95,
      "start": 43.5514,
      "duration": 0.1293,
      "velocity": 100,
      "chip": "ym2612"
    },
    {
      "channel": 1,
      "note": 47,
      "start": 43.5522,
      "duration": 0.1291,
      "velocity": 77,
      "chip": "ym2612"
    },
    {
      "channel": 2,
      "note": 26,
      "start": 43.5549,
      "duration": 0.0599,
      "velocity": 120,
      "chip": "ym2612"
    },
    {
      "channel": 1,
      "note": 50,
      "start": 43.682,
      "duration": 0.2589,
      "velocity": 77,
      "chip": "ym2612"
    },
    {
      "channel": 3,
      "note": 62,
      "start": 43.6828,
      "duration": 1.5598,
      "velocity": 80,
      "chip": "ym2612"
    },
    {
      "channel": 4,
      "note": 69,
      "start": 43.6836,
      "duration": 1.5597,
      "velocity": 80,
      "chip": "ym2612"
    },
    {
      "channel": 2,
      "note": 26,
      "start": 43.6854,
      "duration": 0.0595,
      "velocity": 120,
      "chip": "ym2612"
    },
    {
      "channel": 5,
      "note": 95,
      "start": 43.7447,
      "duration": 0.1293,
      "velocity": 100,
      "chip": "ym2612"
    },
    {
      "channel": 1,
      "note": 50,
      "start": 43.9413,
      "duration": 0.0944,
      "velocity": 77,
      "chip": "ym2612"
    },
    {
      "channel": 2,
      "note": 103,
      "start": 43.9439,
      "duration": 0.124,
      "velocity": 103,
      "chip": "ym2612"
    },
    {
      "channel": 2,
      "note": 56,
      "start": 44.0737,
      "duration": 0.0933,
      "velocity": 112,
      "chip": "ym2612"
    },
    {
      "channel": 0,
      "note": 97,
      "start": 44.2962,
      "duration": 0.5547,
      "velocity": 100,
      "chip": "ym2612"
    },
    {
      "channel": 1,
      "note": 50,
      "start": 44.3317,
      "duration": 0.0941,
      "velocity": 77,
      "chip": "ym2612"
    },
    {
      "channel": 2,
      "note": 103,
      "start": 44.3343,
      "duration": 0.1236,
      "velocity": 103,
      "chip": "ym2612"
    },
    {
      "channel": 1,
      "note": 50,
      "start": 44.4617,
      "duration": 0.39,
      "velocity": 77,
      "chip": "ym2612"
    },
    {
      "channel": 2,
      "note": 103,
      "start": 44.4645,
      "duration": 0.1251,
      "velocity": 103,
      "chip": "ym2612"
    },
    {
      "channel": 5,
      "note": 97,
      "start": 44.4925,
      "duration": 0.5518,
      "velocity": 100,
      "chip": "ym2612"
    },
    {
      "channel": 2,
      "note": 103,
      "start": 44.7239,
      "duration": 0.1241,
      "velocity": 103,
      "chip": "ym2612"
    },
    {
      "channel": 0,
      "note": 95,
      "start": 44.8516,
      "duration": 0.354,
      "velocity": 100,
      "chip": "ym2612"
    },
    {
      "channel": 1,
      "note": 50,
      "start": 44.8523,
      "duration": 0.3894,
      "velocity": 77,
      "chip": "ym2612"
    },
    {
      "channel": 2,
      "note": 56,
      "start": 44.8551,
      "duration": 0.0922,
      "velocity": 112,
      "chip": "ym2612"
    },
    {
      "channel": 2,
      "note": 26,
      "start": 44.984,
      "duration": 0.0612,
      "velocity": 120,
      "chip": "ym2612"
    },
    {
      "channel": 5,
      "note": 95,
      "start": 45.045,
      "duration": 0.3568,
      "velocity": 100,
      "chip": "ym2612"
    },
    {
      "channel": 2,
      "note": 26,
      "start": 45.114,
      "duration": 0.0609,
      "velocity": 120,
      "chip": "ym2612"
    },
    {
      "channel": 0,
      "note": 97,
      "start": 45.2416,
      "duration": 0.5815,
      "velocity": 100,
      "chip": "ym2612"
    },
    {
      "channel": 1,
      "note": 52,
      "start": 45.2423,
      "duration": 0.2589,
      "velocity": 77,
      "chip": "ym2612"
    },
    {
      "channel": 3,
      "note": 64,
      "start": 45.2432,
      "duration": 1.5592,
      "velocity": 80,
      "chip": "ym2612"
    },
    {
      "channel": 4,
      "note": 68,
      "start": 45.244,
      "duration": 1.5592,
      "velocity": 80,
      "chip": "ym2612"
    },
    {
      "channel": 2,
      "note": 26,
      "start": 45.246,
      "duration": 0.0587,
      "velocity": 120,
      "chip": "ym2612"
    },
    {
      "channel": 5,
      "note": 97,
      "start": 45.4351,
      "duration": 0.5879,
      "velocity": 100,
      "chip": "ym2612"
    },
    {
      "channel": 1,
      "note": 52,
      "start": 45.5017,
      "duration": 0.0943,
      "velocity": 77,
      "chip": "ym2612"
    },
    {
      "channel": 2,
      "note": 103,
      "start": 45.5044,
      "duration": 0.1236,
      "velocity": 103,
      "chip": "ym2612"
    },
    {
      "channel": 2,
      "note": 56,
      "start": 45.6342,
      "duration": 0.0933,
      "velocity": 112,
      "chip": "ym2612"
    },
    {
      "channel": 0,
      "note": 100,
      "start": 45.8563,
      "duration": 0.5546,
      "velocity": 100,
      "chip": "ym2612"
    },
    {
      "channel": 1,
      "note": 52,
      "start": 45.8918,
      "duration": 0.0941,
      "velocity": 77,
      "chip": "ym2612"
    },
    {
      "channel": 2,
      "note": 103,
      "start": 45.8945,
      "duration": 0.1237,
      "velocity": 103,
      "chip": "ym2612"
    },
    {
      "channel": 1,
      "note": 52,
      "start": 46.0219,
      "duration": 0.3899,
      "velocity": 77,
      "chip": "ym2612"
    },
    {
      "channel": 2,
      "note": 103,
      "start": 46.025,
      "duration": 0.1248,
      "velocity": 103,
      "chip": "ym2612"
    },
    {
      "channel": 5,
      "note": 100,
      "start": 46.0526,
      "duration": 0.5519,
      "velocity": 100,
      "chip": "ym2612"
    },
    {
      "channel": 2,
      "note": 103,
      "start": 46.2841,
      "duration": 0.1241,
      "velocity": 103,
      "chip": "ym2612"
    },
    {
      "channel": 0,
      "note": 98,
      "start": 46.4116,
      "duration": 0.3895,
      "velocity": 100,
      "chip": "ym2612"
    },
    {
      "channel": 1,
      "note": 52,
      "start": 46.4124,
      "duration": 0.3892,
      "velocity": 77,
      "chip": "ym2612"
    },
    {
      "channel": 2,
      "note": 56,
      "start": 46.4152,
      "duration": 0.0922,
      "velocity": 112,
      "chip": "ym2612"
    },
    {
      "channel": 2,
      "note": 26,
      "start": 46.5441,
      "duration": 0.0613,
      "velocity": 120,
      "chip": "ym2612"
    },
    {
      "channel": 5,
      "note": 98,
      "start": 46.6052,
      "duration": 0.3893,
      "velocity": 100,
      "chip": "ym2612"
    },
    {
      "channel": 2,
      "note": 26,
      "start": 46.6741,
      "duration": 0.0609,
      "velocity": 120,
      "chip": "ym2612"
    },
    {
      "channel": 1,
      "note": 54,
      "start": 46.8022,
      "duration": 0.2591,
      "velocity": 77,
      "chip": "ym2612"
    },
    {
      "channel": 3,
      "note": 66,
      "start": 46.803,
      "duration": 1.5594,
      "velocity": 80,
      "chip": "ym2612"
    },
    {
      "channel": 4,
      "note": 70,
      "start": 46.8038,
      "duration": 1.5594,
      "velocity": 80,
      "chip": "ym2612"
    },
    {
      "channel": 2,
      "note": 26,
      "start": 46.8058,
      "duration": 0.0591,
      "velocity": 120,
      "chip": "ym2612"
    },
    {
      "channel": 0,
      "note": 97,
      "start": 46.8315,
      "duration": 1.5297,
      "velocity": 100,
      "chip": "ym2612"
    },
    {
      "channel": 5,
      "note": 97,
      "start": 47.0278,
      "duration": 1.5267,
      "velocity": 100,
      "chip": "ym2612"
    },
    {
      "channel": 1,
      "note": 54,
      "start": 47.0618,
      "duration": 0.0943,
      "velocity": 77,
      "chip": "ym2612"
    },
    {
      "channel": 2,
      "note": 103,
      "start": 47.0645,
      "duration": 0.1238,
      "velocity": 103,
      "chip": "ym2612"
    },
    {
      "channel": 2,
      "note": 56,
      "start": 47.1943,
      "duration": 0.0933,
      "velocity": 112,
      "chip": "ym2612"
    },
    {
      "channel": 1,
      "note": 54,
      "start": 47.4521,
      "duration": 0.0941,
      "velocity": 77,
      "chip": "ym2612"
    },
    {
      "channel": 2,
      "note": 103,
      "start": 47.4547,
      "duration": 0.1235,
      "velocity": 103,
      "chip": "ym2612"
    },
    {
      "channel": 1,
      "note": 54,
      "start": 47.5821,
      "duration": 0.3893,
      "velocity": 77,
      "chip": "ym2612"
    },
    {
      "channel": 2,
      "note": 103,
      "start": 47.5851,
      "duration": 0.1249,
      "velocity": 103,
      "chip": "ym2612"
    },
    {
      "channel": 2,
      "note": 103,
      "start": 47.8442,
      "duration": 0.1241,
      "velocity": 103,
      "chip": "ym2612"
    },
    {
      "channel": 1,
      "note": 54,
      "start": 47.972,
      "duration": 0.3896,
      "velocity": 77,
      "chip": "ym2612"
    },
    {
      "channel": 2,
      "note": 56,
      "start": 47.9748,
      "duration": 0.0927,
      "velocity": 112,
      "chip": "ym2612"
    },
    {
      "channel": 2,
      "note": 26,
      "start": 48.1042,
      "duration": 0.0608,
      "velocity": 120,
      "chip": "ym2612"
    },
    {
      "channel": 2,
      "note": 26,
      "start": 48.2343,
      "duration": 0.0608,
      "velocity": 120,
      "chip": "ym2612"
    },
    {
      "channel": 1,
      "note": 56,
      "start": 48.3622,
      "duration": 0.0938,
      "velocity": 77,
      "chip": "ym2612"
    },
    {
      "channel": 3,
      "note": 68,
      "start": 48.3631,
      "duration": 1.5653,
      "velocity": 102,
      "chip": "ym2612"
    },
    {
      "channel": 4,
      "note": 71,
      "start": 48.3639,
      "duration": 1.568,
      "velocity": 102,
      "chip": "ym2612"
    },
    {
      "channel": 2,
      "note": 26,
      "start": 48.3659,
      "duration": 0.0588,
      "velocity": 120,
      "chip": "ym2612"
    },
    {
      "channel": 1,
      "note": 56,
      "start": 48.4565,
      "duration": 0.1655,
      "velocity": 77,
      "chip": "ym2612"
    },
    {
      "channel": 0,
      "note": 95,
      "start": 48.6219,
      "duration": 0.3893,
      "velocity": 100,
      "chip": "ym2612"
    },
    {
      "channel": 1,
      "note": 56,
      "start": 48.6225,
      "duration": 0.0937,
      "velocity": 77,
      "chip": "ym2612"
    },
    {
      "channel": 2,
      "note": 103,
      "start": 48.625,
      "duration": 0.1234,
      "velocity": 103,
      "chip": "ym2612"
    },
    {
      "channel": 1,
      "note": 56,
      "start": 48.7522,
      "duration": 0.094,
      "velocity": 77,
      "chip": "ym2612"
    },
    {
      "channel": 2,
      "note": 56,
      "start": 48.7549,
      "duration": 0.0931,
      "velocity": 112,
      "chip": "ym2612"
    },
    {
      "channel": 5,
      "note": 95,
      "start": 48.8154,
      "duration": 0.3893,
      "velocity": 100,
      "chip": "ym2612"
    },
    {
      "channel": 0,
      "note": 99,
      "start": 49.0119,
      "duration": 0.3895,
      "velocity": 100,
      "chip": "ym2612"
    },
    {
      "channel": 1,
      "note": 56,
      "start": 49.0126,
      "duration": 0.0937,
      "velocity": 77,
      "chip": "ym2612"
    },
    {
      "channel": 2,
      "note": 103,
      "start": 49.0154,
      "duration": 0.1229,
      "velocity": 103,
      "chip": "ym2612"
    },
    {
      "channel": 1,
      "note": 52,
      "start": 49.1422,
      "duration": 0.0941,
      "velocity": 77,
      "chip": "ym2612"
    },
    {
      "channel": 2,
      "note": 103,
      "start": 49.1451,
      "duration": 0.1248,
      "velocity": 103,
      "chip": "ym2612"
    },
    {
      "channel": 5,
      "note": 99,
      "start": 49.2054,
      "duration": 0.3893,
      "velocity": 100,
      "chip": "ym2612"
    },
    {
      "channel": 0,
      "note": 102,
      "start": 49.402,
      "duration": 0.3893,
      "velocity": 100,
      "chip": "ym2612"
    },
    {
      "channel": 1,
      "note": 52,
      "start": 49.4028,
      "duration": 0.0935,
      "velocity": 77,
      "chip": "ym2612"
    },
    {
      "channel": 2,
      "note": 103,
      "start": 49.4054,
      "duration": 0.123,
      "velocity": 103,
      "chip": "ym2612"
    },
    {
      "channel": 1,
      "note": 52,
      "start": 49.5322,
      "duration": 0.0941,
      "velocity": 77,
      "chip": "ym2612"
    },
    {
      "channel": 2,
      "note": 56,
      "start": 49.535,
      "duration": 0.0929,
      "velocity": 112,
      "chip": "ym2612"
    },
    {
      "channel": 5,
      "note": 102,
      "start": 49.5955,
      "duration": 0.3891,
      "velocity": 100,
      "chip": "ym2612"
    },
    {
      "channel": 1,
      "note": 52,
      "start": 49.6622,
      "duration": 0.0942,
      "velocity": 77,
      "chip": "ym2612"
    },
    {
      "channel": 2,
      "note": 26,
      "start": 49.6649,
      "duration": 0.0603,
      "velocity": 120,
      "chip": "ym2612"
    },
    {
      "channel": 0,
      "note": 104,
      "start": 49.792,
      "duration": 0.1319,
      "velocity": 102,
      "chip": "ym2612"
    },
    {
      "channel": 1,
      "note": 52,
      "start": 49.7928,
      "duration": 0.0936,
      "velocity": 77,
      "chip": "ym2612"
    },
    {
      "channel": 2,
      "note": 26,
      "start": 49.7954,
      "duration": 0.0598,
      "velocity": 120,
      "chip": "ym2612"
    },
    {
      "channel": 0,
      "note": 93,
      "start": 49.9245,
      "duration": 0.0915,
      "velocity": 102,
      "chip": "ym2612"
    },
    {
      "channel": 1,
      "note": 57,
      "start": 49.9254,
      "duration": 0.2567,
      "velocity": 77,
      "chip": "ym2612"
    },
    {
      "channel": 3,
      "note": 88,
      "start": 49.929,
      "duration": 0.0878,
      "velocity": 102,
      "chip": "ym2612"
    },
    {
      "channel": 2,
      "note": 26,
      "start": 49.9343,
      "duration": 0.0512,
      "velocity": 120,
      "chip": "ym2612"
    },
    {
      "channel": 5,
      "note": 104,
      "start": 49.9853,
      "duration": 0.1321,
      "velocity": 102,
      "chip": "ym2612"
    },
    {
      "channel": 4,
      "note": 88,
      "start": 50.0181,
      "duration": 0.0961,
      "velocity": 102,
      "chip": "ym2612"
    },
    {
      "channel": 5,
      "note": 93,
      "start": 50.118,
      "duration": 0.094,
      "velocity": 102,
      "chip": "ym2612"
    },
    {
      "channel": 0,
      "note": 97,
      "start": 50.182,
      "duration": 0.0941,
      "velocity": 102,
      "chip": "ym2612"
    },
    {
      "channel": 1,
      "note": 57,
      "start": 50.1827,
      "duration": 0.0939,
      "velocity": 77,
      "chip": "ym2612"
    },
    {
      "channel": 3,
      "note": 92,
      "start": 50.1835,
      "duration": 0.0935,
      "velocity": 102,
      "chip": "ym2612"
    },
    {
      "channel": 2,
      "note": 103,
      "start": 50.1857,
      "duration": 0.1228,
      "velocity": 103,
      "chip": "ym2612"
    },
    {
      "channel": 4,
      "note": 92,
      "start": 50.2782,
      "duration": 0.0959,
      "velocity": 102,
      "chip": "ym2612"
    },
    {
      "channel": 1,
      "note": 57,
      "start": 50.3121,
      "duration": 0.0941,
      "velocity": 77,
      "chip": "ym2612"
    },
    {
      "channel": 2,
      "note": 56,
      "start": 50.3145,
      "duration": 0.0929,
      "velocity": 112,
      "chip": "ym2612"
    },
    {
      "channel": 5,
      "note": 97,
      "start": 50.3754,
      "duration": 0.0966,
      "velocity": 102,
      "chip": "ym2612"
    },
    {
      "channel": 0,
      "note": 100,
      "start": 50.4393,
      "duration": 0.0968,
      "velocity": 102,
      "chip": "ym2612"
    },
    {
      "channel": 3,
      "note": 95,
      "start": 50.4403,
      "duration": 0.0964,
      "velocity": 102,
      "chip": "ym2612"
    },
    {
      "channel": 4,
      "note": 95,
      "start": 50.5379,
      "duration": 0.0963,
      "velocity": 102,
      "chip": "ym2612"
    },
    {
      "channel": 1,
      "note": 57,
      "start": 50.5722,
      "duration": 0.0941,
      "velocity": 77,
      "chip": "ym2612"
    },
    {
      "channel": 2,
      "note": 103,
      "start": 50.5745,
      "duration": 0.1241,
      "velocity": 103,
      "chip": "ym2612"
    },
    {
      "channel": 5,
      "note": 100,
      "start": 50.6354,
      "duration": 0.0968,
      "velocity": 102,
      "chip": "ym2612"
    },
    {
      "channel": 0,
      "note": 102,
      "start": 50.7021,
      "duration": 0.094,
      "velocity": 102,
      "chip": "ym2612"
    },
    {
      "channel": 1,
      "note": 57,
      "start": 50.7028,
      "duration": 0.0937,
      "velocity": 77,
      "chip": "ym2612"
    },
    {
      "channel": 3,
      "note": 97,
      "start": 50.7037,
      "duration": 0.0934,
      "velocity": 102,
      "chip": "ym2612"
    },
    {
      "channel": 2,
      "note": 103,
      "start": 50.7058,
      "duration": 0.1237,
      "velocity": 103,
      "chip": "ym2612"
    },
    {
      "channel": 4,
      "note": 97,
      "start": 50.7983,
      "duration": 0.0958,
      "velocity": 102,
      "chip": "ym2612"
    },
    {
      "channel": 5,
      "note": 102,
      "start": 50.8952,
      "duration": 0.097,
      "velocity": 102,
      "chip": "ym2612"
    },
    {
      "channel": 0,
      "note": 97,
      "start": 50.9621,
      "duration": 0.0941,
      "velocity": 102,
      "chip": "ym2612"
    },
    {
      "channel": 1,
      "note": 57,
      "start": 50.9628,
      "duration": 0.0938,
      "velocity": 77,
      "chip": "ym2612"
    },
    {
      "channel": 3,
      "note": 93,
      "start": 50.9637,
      "duration": 0.0934,
      "velocity": 102,
      "chip": "ym2612"
    },
    {
      "channel": 2,
      "note": 103,
      "start": 50.9659,
      "duration": 0.1227,
      "velocity": 103,
      "chip": "ym2612"
    },
    {
      "channel": 4,
      "note": 93,
      "start": 51.0583,
      "duration": 0.0307,
      "velocity": 102,
      "chip": "ym2612"
    }
  ]
}