{
  "track_name": "09 - Main Theme (U)",
  "duration_sec": 46.668,
  "sample_rate": 44100,
  "note_count": 525,
  "unique_pitches": 34,
  "pitch_range": 46,
  "avg_note_duration": 0.2067,
  "reconstruction_stats": {
    "notes_reconstructed": 525,
    "keyon_events": 525,
    "keyoff_events": 522,
    "orphan_keyons": 3,
    "unique_pitches": 34,
    "pitch_range": 46,
    "avg_duration_sec": 0.2067
  },
  "metadata": {
    "source": "R\\Rainbow Islands Extra\\09 - Main Theme (U).vgz"
  },
  "notes": [
    {
      "channel": 0,
      "note": 73,
      "start": 0.0014,
      "duration": 0.1649,
      "velocity": 93,
      "chip": "ym2612"
    },
    {
      "channel": 1,
      "note": 77,
      "start": 0.0027,
      "duration": 0.5792,
      "velocity": 77,
      "chip": "ym2612"
    },
    {
      "channel": 2,
      "note": 61,
      "start": 0.0039,
      "duration": 0.2873,
      "velocity": 91,
      "chip": "ym2612"
    },
    {
      "channel": 3,
      "note": 73,
      "start": 0.1531,
      "duration": 0.1659,
      "velocity": 93,
      "chip": "ym2612"
    },
    {
      "channel": 0,
      "note": 77,
      "start": 0.3325,
      "duration": 0.1661,
      "velocity": 93,
      "chip": "ym2612"
    },
    {
      "channel": 2,
      "note": 73,
      "start": 0.3329,
      "duration": 0.0968,
      "velocity": 91,
      "chip": "ym2612"
    },
    {
      "channel": 3,
      "note": 77,
      "start": 0.4851,
      "duration": 0.1662,
      "velocity": 93,
      "chip": "ym2612"
    },
    {
      "channel": 0,
      "note": 80,
      "start": 0.554,
      "duration": 0.0554,
      "velocity": 93,
      "chip": "ym2612"
    },
    {
      "channel": 2,
      "note": 61,
      "start": 0.5544,
      "duration": 0.0968,
      "velocity": 91,
      "chip": "ym2612"
    },
    {
      "channel": 1,
      "note": 85,
      "start": 0.6647,
      "duration": 0.5816,
      "velocity": 77,
      "chip": "ym2612"
    },
    {
      "channel": 2,
      "note": 58,
      "start": 0.6649,
      "duration": 0.0968,
      "velocity": 91,
      "chip": "ym2612"
    },
    {
      "channel": 3,
      "note": 80,
      "start": 0.7065,
      "duration": 0.0555,
      "velocity": 93,
      "chip": "ym2612"
    },
    {
      "channel": 2,
      "note": 70,
      "start": 0.8864,
      "duration": 0.097,
      "velocity": 91,
      "chip": "ym2612"
    },
    {
      "channel": 0,
      "note": 80,
      "start": 0.9139,
      "duration": 0.0415,
      "velocity": 93,
      "chip": "ym2612"
    },
    {
      "channel": 0,
      "note": 78,
      "start": 0.997,
      "duration": 0.1661,
      "velocity": 93,
      "chip": "ym2612"
    },
    {
      "channel": 3,
      "note": 80,
      "start": 1.0666,
      "duration": 0.0415,
      "velocity": 93,
      "chip": "ym2612"
    },
    {
      "channel": 3,
      "note": 78,
      "start": 1.1496,
      "duration": 0.1662,
      "velocity": 93,
      "chip": "ym2612"
    },
    {
      "channel": 0,
      "note": 77,
      "start": 1.2185,
      "duration": 0.0554,
      "velocity": 93,
      "chip": "ym2612"
    },
    {
      "channel": 2,
      "note": 58,
      "start": 1.2189,
      "duration": 0.0968,
      "velocity": 91,
      "chip": "ym2612"
    },
    {
      "channel": 1,
      "note": 84,
      "start": 1.3293,
      "duration": 0.5816,
      "velocity": 77,
      "chip": "ym2612"
    },
    {
      "channel": 2,
      "note": 53,
      "start": 1.3294,
      "duration": 0.2906,
      "velocity": 91,
      "chip": "ym2612"
    },
    {
      "channel": 3,
      "note": 77,
      "start": 1.371,
      "duration": 0.0554,
      "velocity": 93,
      "chip": "ym2612"
    },
    {
      "channel": 0,
      "note": 75,
      "start": 1.6615,
      "duration": 0.1661,
      "velocity": 93,
      "chip": "ym2612"
    },
    {
      "channel": 2,
      "note": 65,
      "start": 1.6619,
      "duration": 0.0968,
      "velocity": 91,
      "chip": "ym2612"
    },
    {
      "channel": 3,
      "note": 75,
      "start": 1.8141,
      "duration": 0.1662,
      "velocity": 93,
      "chip": "ym2612"
    },
    {
      "channel": 2,
      "note": 53,
      "start": 1.8834,
      "duration": 0.0968,
      "velocity": 91,
      "chip": "ym2612"
    },
    {
      "channel": 0,
      "note": 80,
      "start": 1.9938,
      "duration": 0.1661,
      "velocity": 93,
      "chip": "ym2612"
    },
    {
      "channel": 1,
      "note": 80,
      "start": 1.9939,
      "duration": 0.5814,
      "velocity": 77,
      "chip": "ym2612"
    },
    {
      "channel": 2,
      "note": 53,
      "start": 1.9941,
      "duration": 0.0968,
      "velocity": 91,
      "chip": "ym2612"
    },
    {
      "channel": 3,
      "note": 80,
      "start": 2.1464,
      "duration": 0.1662,
      "velocity": 93,
      "chip": "ym2612"
    },
    {
      "channel": 0,
      "note": 80,
      "start": 2.2153,
      "duration": 0.0553,
      "velocity": 93,
      "chip": "ym2612"
    },
    {
      "channel": 2,
      "note": 65,
      "start": 2.2156,
      "duration": 0.0968,
      "velocity": 91,
      "chip": "ym2612"
    },
    {
      "channel": 0,
      "note": 77,
      "start": 2.326,
      "duration": 0.1661,
      "velocity": 93,
      "chip": "ym2612"
    },
    {
      "channel": 3,
      "note": 80,
      "start": 2.3679,
      "duration": 0.0553,
      "velocity": 93,
      "chip": "ym2612"
    },
    {
      "channel": 3,
      "note": 77,
      "start": 2.4787,
      "duration": 0.1662,
      "velocity": 93,
      "chip": "ym2612"
    },
    {
      "channel": 0,
      "note": 75,
      "start": 2.5475,
      "duration": 0.0554,
      "velocity": 93,
      "chip": "ym2612"
    },
    {
      "channel": 2,
      "note": 53,
      "start": 2.5479,
      "duration": 0.0968,
      "velocity": 91,
      "chip": "ym2612"
    },
    {
      "channel": 0,
      "note": 73,
      "start": 2.6583,
      "duration": 0.1661,
      "velocity": 93,
      "chip": "ym2612"
    },
    {
      "channel": 1,
      "note": 78,
      "start": 2.6585,
      "duration": 0.5814,
      "velocity": 77,
      "chip": "ym2612"
    },
    {
      "channel": 2,
      "note": 51,
      "start": 2.6587,
      "duration": 0.2905,
      "velocity": 91,
      "chip": "ym2612"
    },
    {
      "channel": 3,
      "note": 75,
      "start": 2.7002,
      "duration": 0.0554,
      "velocity": 93,
      "chip": "ym2612"
    },
    {
      "channel": 3,
      "note": 73,
      "start": 2.8109,
      "duration": 0.1661,
      "velocity": 93,
      "chip": "ym2612"
    },
    {
      "channel": 0,
      "note": 72,
      "start": 2.9905,
      "duration": 0.1661,
      "velocity": 93,
      "chip": "ym2612"
    },
    {
      "channel": 2,
      "note": 63,
      "start": 2.9909,
      "duration": 0.0968,
      "velocity": 91,
      "chip": "ym2612"
    },
    {
      "channel": 3,
      "note": 72,
      "start": 3.1432,
      "duration": 0.1662,
      "velocity": 93,
      "chip": "ym2612"
    },
    {
      "channel": 2,
      "note": 53,
      "start": 3.2123,
      "duration": 0.0968,
      "velocity": 91,
      "chip": "ym2612"
    },
    {
      "channel": 0,
      "note": 70,
      "start": 3.3228,
      "duration": 0.1661,
      "velocity": 93,
      "chip": "ym2612"
    },
    {
      "channel": 1,
      "note": 82,
      "start": 3.3229,
      "duration": 0.5814,
      "velocity": 77,
      "chip": "ym2612"
    },
    {
      "channel": 2,
      "note": 53,
      "start": 3.3231,
      "duration": 0.0968,
      "velocity": 91,
      "chip": "ym2612"
    },
    {
      "channel": 3,
      "note": 70,
      "start": 3.4754,
      "duration": 0.1662,
      "velocity": 93,
      "chip": "ym2612"
    },
    {
      "channel": 2,
      "note": 68,
      "start": 3.5446,
      "duration": 0.0968,
      "velocity": 91,
      "chip": "ym2612"
    },
    {
      "channel": 0,
      "note": 73,
      "start": 3.655,
      "duration": 0.1661,
      "velocity": 93,
      "chip": "ym2612"
    },
    {
      "channel": 3,
      "note": 73,
      "start": 3.8077,
      "duration": 0.1662,
      "velocity": 93,
      "chip": "ym2612"
    },
    {
      "channel": 0,
      "note": 80,
      "start": 3.8765,
      "duration": 0.2768,
      "velocity": 93,
      "chip": "ym2612"
    },
    {
      "channel": 2,
      "note": 54,
      "start": 3.8769,
      "duration": 0.0968,
      "velocity": 91,
      "chip": "ym2612"
    },
    {
      "channel": 1,
      "note": 80,
      "start": 3.9875,
      "duration": 0.5814,
      "velocity": 77,
      "chip": "ym2612"
    },
    {
      "channel": 2,
      "note": 53,
      "start": 3.9876,
      "duration": 0.2906,
      "velocity": 91,
      "chip": "ym2612"
    },
    {
      "channel": 3,
      "note": 80,
      "start": 4.0292,
      "duration": 0.2768,
      "velocity": 93,
      "chip": "ym2612"
    },
    {
      "channel": 0,
      "note": 92,
      "start": 4.2088,
      "duration": 0.0553,
      "velocity": 93,
      "chip": "ym2612"
    },
    {
      "channel": 0,
      "note": 94,
      "start": 4.3195,
      "duration": 0.1661,
      "velocity": 93,
      "chip": "ym2612"
    },
    {
      "channel": 2,
      "note": 65,
      "start": 4.3199,
      "duration": 0.0968,
      "velocity": 91,
      "chip": "ym2612"
    },
    {
      "channel": 3,
      "note": 92,
      "start": 4.3614,
      "duration": 0.0555,
      "velocity": 93,
      "chip": "ym2612"
    },
    {
      "channel": 3,
      "note": 94,
      "start": 4.4722,
      "duration": 0.1662,
      "velocity": 93,
      "chip": "ym2612"
    },
    {
      "channel": 0,
      "note": 96,
      "start": 4.541,
      "duration": 0.0554,
      "velocity": 93,
      "chip": "ym2612"
    },
    {
      "channel": 2,
      "note": 53,
      "start": 4.5414,
      "duration": 0.0968,
      "velocity": 91,
      "chip": "ym2612"
    },
    {
      "channel": 0,
      "note": 97,
      "start": 4.6518,
      "duration": 0.1661,
      "velocity": 93,
      "chip": "ym2612"
    },
    {
      "channel": 1,
      "note": 77,
      "start": 4.652,
      "duration": 0.5815,
      "velocity": 77,
      "chip": "ym2612"
    },
    {
      "channel": 2,
      "note": 58,
      "start": 4.6522,
      "duration": 0.0967,
      "velocity": 91,
      "chip": "ym2612"
    },
    {
      "channel": 3,
      "note": 96,
      "start": 4.6937,
      "duration": 0.0555,
      "velocity": 93,
      "chip": "ym2612"
    },
    {
      "channel": 3,
      "note": 97,
      "start": 4.8044,
      "duration": 0.1662,
      "velocity": 93,
      "chip": "ym2612"
    },
    {
      "channel": 2,
      "note": 70,
      "start": 4.8737,
      "duration": 0.0968,
      "velocity": 91,
      "chip": "ym2612"
    },
    {
      "channel": 2,
      "note": 58,
      "start": 5.2057,
      "duration": 0.0969,
      "velocity": 91,
      "chip": "ym2612"
    },
    {
      "channel": 0,
      "note": 75,
      "start": 5.2332,
      "duration": 0.4153,
      "velocity": 93,
      "chip": "ym2612"
    },
    {
      "channel": 1,
      "note": 75,
      "start": 5.3165,
      "duration": 0.5814,
      "velocity": 77,
      "chip": "ym2612"
    },
    {
      "channel": 2,
      "note": 51,
      "start": 5.3167,
      "duration": 0.2905,
      "velocity": 91,
      "chip": "ym2612"
    },
    {
      "channel": 3,
      "note": 75,
      "start": 5.3859,
      "duration": 0.4153,
      "velocity": 93,
      "chip": "ym2612"
    },
    {
      "channel": 2,
      "note": 63,
      "start": 5.6489,
      "duration": 0.0968,
      "velocity": 91,
      "chip": "ym2612"
    },
    {
      "channel": 2,
      "note": 51,
      "start": 5.8704,
      "duration": 0.0968,
      "velocity": 91,
      "chip": "ym2612"
    },
    {
      "channel": 1,
      "note": 78,
      "start": 5.9808,
      "duration": 0.5816,
      "velocity": 77,
      "chip": "ym2612"
    },
    {
      "channel": 2,
      "note": 56,
      "start": 5.981,
      "duration": 0.0967,
      "velocity": 91,
      "chip": "ym2612"
    },
    {
      "channel": 2,
      "note": 68,
      "start": 6.2025,
      "duration": 0.097,
      "velocity": 91,
      "chip": "ym2612"
    },
    {
      "channel": 0,
      "note": 75,
      "start": 6.23,
      "duration": 0.0415,
      "velocity": 93,
      "chip": "ym2612"
    },
    {
      "channel": 0,
      "note": 73,
      "start": 6.313,
      "duration": 0.1661,
      "velocity": 93,
      "chip": "ym2612"
    },
    {
      "channel": 3,
      "note": 75,
      "start": 6.3826,
      "duration": 0.0415,
      "velocity": 93,
      "chip": "ym2612"
    },
    {
      "channel": 3,
      "note": 73,
      "start": 6.4657,
      "duration": 0.1662,
      "velocity": 93,
      "chip": "ym2612"
    },
    {
      "channel": 0,
      "note": 75,
      "start": 6.5345,
      "duration": 0.0554,
      "velocity": 93,
      "chip": "ym2612"
    },
    {
      "channel": 2,
      "note": 58,
      "start": 6.5349,
      "duration": 0.0968,
      "velocity": 91,
      "chip": "ym2612"
    },
    {
      "channel": 0,
      "note": 77,
      "start": 6.6453,
      "duration": 0.1661,
      "velocity": 93,
      "chip": "ym2612"
    },
    {
      "channel": 1,
      "note": 77,
      "start": 6.6455,
      "duration": 0.5814,
      "velocity": 77,
      "chip": "ym2612"
    },
    {
      "channel": 2,
      "note": 53,
      "start": 6.6457,
      "duration": 0.2905,
      "velocity": 91,
      "chip": "ym2612"
    },
    {
      "channel": 3,
      "note": 75,
      "start": 6.6872,
      "duration": 0.0553,
      "velocity": 93,
      "chip": "ym2612"
    },
    {
      "channel": 3,
      "note": 77,
      "start": 6.798,
      "duration": 0.1661,
      "velocity": 93,
      "chip": "ym2612"
    },
    {
      "channel": 0,
      "note": 78,
      "start": 6.9775,
      "duration": 0.1662,
      "velocity": 93,
      "chip": "ym2612"
    },
    {
      "channel": 2,
      "note": 65,
      "start": 6.9779,
      "duration": 0.0968,
      "velocity": 91,
      "chip": "ym2612"
    },
    {
      "channel": 3,
      "note": 78,
      "start": 7.1302,
      "duration": 0.1662,
      "velocity": 93,
      "chip": "ym2612"
    },
    {
      "channel": 0,
      "note": 80,
      "start": 7.199,
      "duration": 0.0554,
      "velocity": 93,
      "chip": "ym2612"
    },
    {
      "channel": 2,
      "note": 53,
      "start": 7.1994,
      "duration": 0.0968,
      "velocity": 91,
      "chip": "ym2612"
    },
    {
      "channel": 1,
      "note": 73,
      "start": 7.3098,
      "duration": 0.5816,
      "velocity": 77,
      "chip": "ym2612"
    },
    {
      "channel": 2,
      "note": 58,
      "start": 7.31,
      "duration": 0.0968,
      "velocity": 91,
      "chip": "ym2612"
    },
    {
      "channel": 3,
      "note": 80,
      "start": 7.3515,
      "duration": 0.0555,
      "velocity": 93,
      "chip": "ym2612"
    },
    {
      "channel": 2,
      "note": 70,
      "start": 7.5315,
      "duration": 0.097,
      "velocity": 91,
      "chip": "ym2612"
    },
    {
      "channel": 0,
      "note": 68,
      "start": 7.559,
      "duration": 0.0415,
      "velocity": 93,
      "chip": "ym2612"
    },
    {
      "channel": 3,
      "note": 68,
      "start": 7.7115,
      "duration": 0.0415,
      "velocity": 93,
      "chip": "ym2612"
    },
    {
      "channel": 2,
      "note": 58,
      "start": 7.8637,
      "duration": 0.097,
      "velocity": 91,
      "chip": "ym2612"
    },
    {
      "channel": 0,
      "note": 66,
      "start": 7.8913,
      "duration": 0.0415,
      "velocity": 93,
      "chip": "ym2612"
    },
    {
      "channel": 0,
      "note": 77,
      "start": 7.9743,
      "duration": 0.1662,
      "velocity": 93,
      "chip": "ym2612"
    },
    {
      "channel": 1,
      "note": 75,
      "start": 7.9745,
      "duration": 1.1629,
      "velocity": 77,
      "chip": "ym2612"
    },
    {
      "channel": 2,
      "note": 63,
      "start": 7.9747,
      "duration": 0.2905,
      "velocity": 91,
      "chip": "ym2612"
    },
    {
      "channel": 3,
      "note": 66,
      "start": 8.0439,
      "duration": 0.0415,
      "velocity": 93,
      "chip": "ym2612"
    },
    {
      "channel": 3,
      "note": 77,
      "start": 8.127,
      "duration": 0.1661,
      "velocity": 93,
      "chip": "ym2612"
    },
    {
      "channel": 0,
      "note": 80,
      "start": 8.3065,
      "duration": 0.1662,
      "velocity": 93,
      "chip": "ym2612"
    },
    {
      "channel": 2,
      "note": 53,
      "start": 8.3069,
      "duration": 0.2907,
      "velocity": 91,
      "chip": "ym2612"
    },
    {
      "channel": 3,
      "note": 80,
      "start": 8.4592,
      "duration": 0.1662,
      "velocity": 93,
      "chip": "ym2612"
    },
    {
      "channel": 0,
      "note": 78,
      "start": 8.6388,
      "duration": 0.1661,
      "velocity": 93,
      "chip": "ym2612"
    },
    {
      "channel": 2,
      "note": 54,
      "start": 8.6392,
      "duration": 0.2906,
      "velocity": 91,
      "chip": "ym2612"
    },
    {
      "channel": 3,
      "note": 78,
      "start": 8.7915,
      "duration": 0.1661,
      "velocity": 93,
      "chip": "ym2612"
    },
    {
      "channel": 0,
      "note": 77,
      "start": 8.971,
      "duration": 0.1662,
      "velocity": 93,
      "chip": "ym2612"
    },
    {
      "channel": 2,
      "note": 55,
      "start": 8.9715,
      "duration": 0.0968,
      "velocity": 91,
      "chip": "ym2612"
    },
    {
      "channel": 3,
      "note": 77,
      "start": 9.1237,
      "duration": 0.1662,
      "velocity": 93,
      "chip": "ym2612"
    },
    {
      "channel": 2,
      "note": 56,
      "start": 9.1929,
      "duration": 0.0968,
      "velocity": 91,
      "chip": "ym2612"
    },
    {
      "channel": 0,
      "note": 75,
      "start": 9.3033,
      "duration": 0.1662,
      "velocity": 93,
      "chip": "ym2612"
    },
    {
      "channel": 1,
      "note": 80,
      "start": 9.3036,
      "duration": 0.8719,
      "velocity": 77,
      "chip": "ym2612"
    },
    {
      "channel": 3,
      "note": 75,
      "start": 9.456,
      "duration": 0.1662,
      "velocity": 93,
      "chip": "ym2612"
    },
    {
      "channel": 2,
      "note": 56,
      "start": 9.5251,
      "duration": 0.4015,
      "velocity": 91,
      "chip": "ym2612"
    },
    {
      "channel": 0,
      "note": 80,
      "start": 9.8848,
      "duration": 0.0415,
      "velocity": 93,
      "chip": "ym2612"
    },
    {
      "channel": 2,
      "note": 56,
      "start": 9.9679,
      "duration": 0.0969,
      "velocity": 91,
      "chip": "ym2612"
    },
    {
      "channel": 3,
      "note": 80,
      "start": 10.0373,
      "duration": 0.0415,
      "velocity": 93,
      "chip": "ym2612"
    },
    {
      "channel": 2,
      "note": 56,
      "start": 10.1894,
      "duration": 0.0969,
      "velocity": 91,
      "chip": "ym2612"
    },
    {
      "channel": 0,
      "note": 73,
      "start": 10.6324,
      "duration": 0.1661,
      "velocity": 93,
      "chip": "ym2612"
    },
    {
      "channel": 1,
      "note": 77,
      "start": 10.6326,
      "duration": 0.5814,
      "velocity": 77,
      "chip": "ym2612"
    },
    {
      "channel": 2,
      "note": 61,
      "start": 10.6327,
      "duration": 0.2906,
      "velocity": 91,
      "chip": "ym2612"
    },
    {
      "channel": 3,
      "note": 73,
      "start": 10.785,
      "duration": 0.1662,
      "velocity": 93,
      "chip": "ym2612"
    },
    {
      "channel": 0,
      "note": 77,
      "start": 10.9646,
      "duration": 0.1661,
      "velocity": 93,
      "chip": "ym2612"
    },
    {
      "channel": 2,
      "note": 73,
      "start": 10.965,
      "duration": 0.0967,
      "velocity": 91,
      "chip": "ym2612"
    },
    {
      "channel": 3,
      "note": 77,
      "start": 11.1173,
      "duration": 0.1662,
      "velocity": 93,
      "chip": "ym2612"
    },
    {
      "channel": 0,
      "note": 80,
      "start": 11.1861,
      "duration": 0.0554,
      "velocity": 93,
      "chip": "ym2612"
    },
    {
      "channel": 2,
      "note": 61,
      "start": 11.1865,
      "duration": 0.0968,
      "velocity": 91,
      "chip": "ym2612"
    },
    {
      "channel": 1,
      "note": 85,
      "start": 11.2969,
      "duration": 0.5816,
      "velocity": 77,
      "chip": "ym2612"
    },
    {
      "channel": 2,
      "note": 58,
      "start": 11.2971,
      "duration": 0.0968,
      "velocity": 91,
      "chip": "ym2612"
    },
    {
      "channel": 3,
      "note": 80,
      "start": 11.3386,
      "duration": 0.0555,
      "velocity": 93,
      "chip": "ym2612"
    },
    {
      "channel": 2,
      "note": 70,
      "start": 11.5186,
      "duration": 0.0969,
      "velocity": 91,
      "chip": "ym2612"
    },
    {
      "channel": 0,
      "note": 80,
      "start": 11.5461,
      "duration": 0.0415,
      "velocity": 93,
      "chip": "ym2612"
    },
    {
      "channel": 0,
      "note": 78,
      "start": 11.6291,
      "duration": 0.1661,
      "velocity": 93,
      "chip": "ym2612"
    },
    {
      "channel": 3,
      "note": 80,
      "start": 11.6987,
      "duration": 0.0415,
      "velocity": 93,
      "chip": "ym2612"
    },
    {
      "channel": 3,
      "note": 78,
      "start": 11.7817,
      "duration": 0.1662,
      "velocity": 93,
      "chip": "ym2612"
    },
    {
      "channel": 0,
      "note": 77,
      "start": 11.8506,
      "duration": 0.0553,
      "velocity": 93,
      "chip": "ym2612"
    },
    {
      "channel": 2,
      "note": 58,
      "start": 11.851,
      "duration": 0.0968,
      "velocity": 91,
      "chip": "ym2612"
    },
    {
      "channel": 1,
      "note": 84,
      "start": 11.9614,
      "duration": 0.5816,
      "velocity": 77,
      "chip": "ym2612"
    },
    {
      "channel": 2,
      "note": 53,
      "start": 11.9616,
      "duration": 0.2906,
      "velocity": 91,
      "chip": "ym2612"
    },
    {
      "channel": 3,
      "note": 77,
      "start": 12.0031,
      "duration": 0.0554,
      "velocity": 93,
      "chip": "ym2612"
    },
    {
      "channel": 0,
      "note": 75,
      "start": 12.2936,
      "duration": 0.1661,
      "velocity": 93,
      "chip": "ym2612"
    },
    {
      "channel": 2,
      "note": 65,
      "start": 12.294,
      "duration": 0.0968,
      "velocity": 91,
      "chip": "ym2612"
    },
    {
      "channel": 3,
      "note": 75,
      "start": 12.4462,
      "duration": 0.1662,
      "velocity": 93,
      "chip": "ym2612"
    },
    {
      "channel": 2,
      "note": 53,
      "start": 12.5154,
      "duration": 0.0968,
      "velocity": 91,
      "chip": "ym2612"
    },
    {
      "channel": 0,
      "note": 80,
      "start": 12.6259,
      "duration": 0.1661,
      "velocity": 93,
      "chip": "ym2612"
    },
    {
      "channel": 1,
      "note": 80,
      "start": 12.6261,
      "duration": 0.5814,
      "velocity": 77,
      "chip": "ym2612"
    },
    {
      "channel": 2,
      "note": 53,
      "start": 12.6262,
      "duration": 0.0968,
      "velocity": 91,
      "chip": "ym2612"
    },
    {
      "channel": 3,
      "note": 80,
      "start": 12.7785,
      "duration": 0.1662,
      "velocity": 93,
      "chip": "ym2612"
    },
    {
      "channel": 0,
      "note": 80,
      "start": 12.8474,
      "duration": 0.0554,
      "velocity": 93,
      "chip": "ym2612"
    },
    {
      "channel": 2,
      "note": 65,
      "start": 12.8478,
      "duration": 0.0968,
      "velocity": 91,
      "chip": "ym2612"
    },
    {
      "channel": 0,
      "note": 77,
      "start": 12.9581,
      "duration": 0.1661,
      "velocity": 93,
      "chip": "ym2612"
    },
    {
      "channel": 3,
      "note": 80,
      "start": 13.0,
      "duration": 0.0554,
      "velocity": 93,
      "chip": "ym2612"
    },
    {
      "channel": 3,
      "note": 77,
      "start": 13.1108,
      "duration": 0.1662,
      "velocity": 93,
      "chip": "ym2612"
    },
    {
      "channel": 0,
      "note": 75,
      "start": 13.1796,
      "duration": 0.0553,
      "velocity": 93,
      "chip": "ym2612"
    },
    {
      "channel": 2,
      "note": 53,
      "start": 13.18,
      "duration": 0.0968,
      "velocity": 91,
      "chip": "ym2612"
    },
    {
      "channel": 0,
      "note": 73,
      "start": 13.2904,
      "duration": 0.1661,
      "velocity": 93,
      "chip": "ym2612"
    },
    {
      "channel": 1,
      "note": 78,
      "start": 13.2906,
      "duration": 0.5814,
      "velocity": 77,
      "chip": "ym2612"
    },
    {
      "channel": 2,
      "note": 51,
      "start": 13.2908,
      "duration": 0.2905,
      "velocity": 91,
      "chip": "ym2612"
    },
    {
      "channel": 3,
      "note": 75,
      "start": 13.3323,
      "duration": 0.0553,
      "velocity": 93,
      "chip": "ym2612"
    },
    {
      "channel": 3,
      "note": 73,
      "start": 13.4431,
      "duration": 0.1661,
      "velocity": 93,
      "chip": "ym2612"
    },
    {
      "channel": 0,
      "note": 72,
      "start": 13.6226,
      "duration": 0.1661,
      "velocity": 93,
      "chip": "ym2612"
    },
    {
      "channel": 2,
      "note": 63,
      "start": 13.623,
      "duration": 0.0968,
      "velocity": 91,
      "chip": "ym2612"
    },
    {
      "channel": 3,
      "note": 72,
      "start": 13.7753,
      "duration": 0.1662,
      "velocity": 93,
      "chip": "ym2612"
    },
    {
      "channel": 2,
      "note": 53,
      "start": 13.8444,
      "duration": 0.0968,
      "velocity": 91,
      "chip": "ym2612"
    },
    {
      "channel": 0,
      "note": 70,
      "start": 13.9549,
      "duration": 0.1661,
      "velocity": 93,
      "chip": "ym2612"
    },
    {
      "channel": 1,
      "note": 82,
      "start": 13.9551,
      "duration": 0.5814,
      "velocity": 77,
      "chip": "ym2612"
    },
    {
      "channel": 2,
      "note": 53,
      "start": 13.9552,
      "duration": 0.0968,
      "velocity": 91,
      "chip": "ym2612"
    },
    {
      "channel": 3,
      "note": 70,
      "start": 14.1076,
      "duration": 0.1662,
      "velocity": 93,
      "chip": "ym2612"
    },
    {
      "channel": 2,
      "note": 68,
      "start": 14.1767,
      "duration": 0.0968,
      "velocity": 91,
      "chip": "ym2612"
    },
    {
      "channel": 0,
      "note": 73,
      "start": 14.2871,
      "duration": 0.1661,
      "velocity": 93,
      "chip": "ym2612"
    },
    {
      "channel": 3,
      "note": 73,
      "start": 14.4398,
      "duration": 0.1662,
      "velocity": 93,
      "chip": "ym2612"
    },
    {
      "channel": 0,
      "note": 80,
      "start": 14.5086,
      "duration": 0.2768,
      "velocity": 93,
      "chip": "ym2612"
    },
    {
      "channel": 2,
      "note": 54,
      "start": 14.509,
      "duration": 0.0968,
      "velocity": 91,
      "chip": "ym2612"
    },
    {
      "channel": 1,
      "note": 80,
      "start": 14.6196,
      "duration": 0.5814,
      "velocity": 77,
      "chip": "ym2612"
    },
    {
      "channel": 2,
      "note": 53,
      "start": 14.6198,
      "duration": 0.2906,
      "velocity": 91,
      "chip": "ym2612"
    },
    {
      "channel": 3,
      "note": 80,
      "start": 14.6613,
      "duration": 0.2768,
      "velocity": 93,
      "chip": "ym2612"
    },
    {
      "channel": 0,
      "note": 92,
      "start": 14.8409,
      "duration": 0.0554,
      "velocity": 93,
      "chip": "ym2612"
    },
    {
      "channel": 0,
      "note": 94,
      "start": 14.9516,
      "duration": 0.1661,
      "velocity": 93,
      "chip": "ym2612"
    },
    {
      "channel": 2,
      "note": 65,
      "start": 14.952,
      "duration": 0.0968,
      "velocity": 91,
      "chip": "ym2612"
    },
    {
      "channel": 3,
      "note": 92,
      "start": 14.9936,
      "duration": 0.0555,
      "velocity": 93,
      "chip": "ym2612"
    },
    {
      "channel": 3,
      "note": 94,
      "start": 15.1043,
      "duration": 0.1662,
      "velocity": 93,
      "chip": "ym2612"
    },
    {
      "channel": 0,
      "note": 96,
      "start": 15.1732,
      "duration": 0.0553,
      "velocity": 93,
      "chip": "ym2612"
    },
    {
      "channel": 2,
      "note": 53,
      "start": 15.1735,
      "duration": 0.0968,
      "velocity": 91,
      "chip": "ym2612"
    },
    {
      "channel": 0,
      "note": 97,
      "start": 15.2839,
      "duration": 0.1661,
      "velocity": 93,
      "chip": "ym2612"
    },
    {
      "channel": 1,
      "note": 77,
      "start": 15.2841,
      "duration": 0.5815,
      "velocity": 77,
      "chip": "ym2612"
    },
    {
      "channel": 2,
      "note": 58,
      "start": 15.2843,
      "duration": 0.0967,
      "velocity": 91,
      "chip": "ym2612"
    },
    {
      "channel": 3,
      "note": 96,
      "start": 15.3258,
      "duration": 0.0555,
      "velocity": 93,
      "chip": "ym2612"
    },
    {
      "channel": 3,
      "note": 97,
      "start": 15.4366,
      "duration": 0.1662,
      "velocity": 93,
      "chip": "ym2612"
    },
    {
      "channel": 2,
      "note": 70,
      "start": 15.5058,
      "duration": 0.0968,
      "velocity": 91,
      "chip": "ym2612"
    },
    {
      "channel": 2,
      "note": 58,
      "start": 15.8378,
      "duration": 0.0969,
      "velocity": 91,
      "chip": "ym2612"
    },
    {
      "channel": 0,
      "note": 75,
      "start": 15.8653,
      "duration": 0.4153,
      "velocity": 93,
      "chip": "ym2612"
    },
    {
      "channel": 1,
      "note": 75,
      "start": 15.9486,
      "duration": 0.5814,
      "velocity": 77,
      "chip": "ym2612"
    },
    {
      "channel": 2,
      "note": 51,
      "start": 15.9488,
      "duration": 0.2906,
      "velocity": 91,
      "chip": "ym2612"
    },
    {
      "channel": 3,
      "note": 75,
      "start": 16.018,
      "duration": 0.4154,
      "velocity": 93,
      "chip": "ym2612"
    },
    {
      "channel": 2,
      "note": 63,
      "start": 16.281,
      "duration": 0.0968,
      "velocity": 91,
      "chip": "ym2612"
    },
    {
      "channel": 2,
      "note": 51,
      "start": 16.5025,
      "duration": 0.0968,
      "velocity": 91,
      "chip": "ym2612"
    },
    {
      "channel": 1,
      "note": 78,
      "start": 16.6129,
      "duration": 0.5816,
      "velocity": 77,
      "chip": "ym2612"
    },
    {
      "channel": 2,
      "note": 56,
      "start": 16.6132,
      "duration": 0.0968,
      "velocity": 91,
      "chip": "ym2612"
    },
    {
      "channel": 2,
      "note": 68,
      "start": 16.8346,
      "duration": 0.097,
      "velocity": 91,
      "chip": "ym2612"
    },
    {
      "channel": 0,
      "note": 75,
      "start": 16.8621,
      "duration": 0.0415,
      "velocity": 93,
      "chip": "ym2612"
    },
    {
      "channel": 0,
      "note": 73,
      "start": 16.9451,
      "duration": 0.1662,
      "velocity": 93,
      "chip": "ym2612"
    },
    {
      "channel": 3,
      "note": 75,
      "start": 17.0147,
      "duration": 0.0415,
      "velocity": 93,
      "chip": "ym2612"
    },
    {
      "channel": 3,
      "note": 73,
      "start": 17.0978,
      "duration": 0.1662,
      "velocity": 93,
      "chip": "ym2612"
    },
    {
      "channel": 0,
      "note": 75,
      "start": 17.1667,
      "duration": 0.0554,
      "velocity": 93,
      "chip": "ym2612"
    },
    {
      "channel": 2,
      "note": 58,
      "start": 17.1671,
      "duration": 0.0968,
      "velocity": 91,
      "chip": "ym2612"
    },
    {
      "channel": 0,
      "note": 77,
      "start": 17.2774,
      "duration": 0.1661,
      "velocity": 93,
      "chip": "ym2612"
    },
    {
      "channel": 1,
      "note": 77,
      "start": 17.2777,
      "duration": 0.5814,
      "velocity": 77,
      "chip": "ym2612"
    },
    {
      "channel": 2,
      "note": 53,
      "start": 17.2778,
      "duration": 0.2905,
      "velocity": 91,
      "chip": "ym2612"
    },
    {
      "channel": 3,
      "note": 75,
      "start": 17.3193,
      "duration": 0.0554,
      "velocity": 93,
      "chip": "ym2612"
    },
    {
      "channel": 3,
      "note": 77,
      "start": 17.4301,
      "duration": 0.1661,
      "velocity": 93,
      "chip": "ym2612"
    },
    {
      "channel": 0,
      "note": 78,
      "start": 17.6097,
      "duration": 0.1661,
      "velocity": 93,
      "chip": "ym2612"
    },
    {
      "channel": 2,
      "note": 65,
      "start": 17.61,
      "duration": 0.0968,
      "velocity": 91,
      "chip": "ym2612"
    },
    {
      "channel": 3,
      "note": 78,
      "start": 17.7623,
      "duration": 0.1662,
      "velocity": 93,
      "chip": "ym2612"
    },
    {
      "channel": 0,
      "note": 80,
      "start": 17.8312,
      "duration": 0.0554,
      "velocity": 93,
      "chip": "ym2612"
    },
    {
      "channel": 2,
      "note": 53,
      "start": 17.8315,
      "duration": 0.0968,
      "velocity": 91,
      "chip": "ym2612"
    },
    {
      "channel": 1,
      "note": 73,
      "start": 17.942,
      "duration": 0.5816,
      "velocity": 77,
      "chip": "ym2612"
    },
    {
      "channel": 2,
      "note": 58,
      "start": 17.9422,
      "duration": 0.0968,
      "velocity": 91,
      "chip": "ym2612"
    },
    {
      "channel": 3,
      "note": 80,
      "start": 17.9837,
      "duration": 0.0555,
      "velocity": 93,
      "chip": "ym2612"
    },
    {
      "channel": 2,
      "note": 70,
      "start": 18.1636,
      "duration": 0.097,
      "velocity": 91,
      "chip": "ym2612"
    },
    {
      "channel": 0,
      "note": 68,
      "start": 18.1911,
      "duration": 0.0415,
      "velocity": 93,
      "chip": "ym2612"
    },
    {
      "channel": 3,
      "note": 68,
      "start": 18.3436,
      "duration": 0.0415,
      "velocity": 93,
      "chip": "ym2612"
    },
    {
      "channel": 2,
      "note": 58,
      "start": 18.4959,
      "duration": 0.097,
      "velocity": 91,
      "chip": "ym2612"
    },
    {
      "channel": 0,
      "note": 66,
      "start": 18.5234,
      "duration": 0.0415,
      "velocity": 93,
      "chip": "ym2612"
    },
    {
      "channel": 0,
      "note": 75,
      "start": 18.6064,
      "duration": 0.1661,
      "velocity": 93,
      "chip": "ym2612"
    },
    {
      "channel": 1,
      "note": 75,
      "start": 18.6067,
      "duration": 0.5814,
      "velocity": 77,
      "chip": "ym2612"
    },
    {
      "channel": 2,
      "note": 51,
      "start": 18.6068,
      "duration": 0.2905,
      "velocity": 91,
      "chip": "ym2612"
    },
    {
      "channel": 3,
      "note": 66,
      "start": 18.676,
      "duration": 0.0415,
      "velocity": 93,
      "chip": "ym2612"
    },
    {
      "channel": 3,
      "note": 75,
      "start": 18.7591,
      "duration": 0.1661,
      "velocity": 93,
      "chip": "ym2612"
    },
    {
      "channel": 0,
      "note": 70,
      "start": 18.9387,
      "duration": 0.1662,
      "velocity": 93,
      "chip": "ym2612"
    },
    {
      "channel": 2,
      "note": 63,
      "start": 18.939,
      "duration": 0.0968,
      "velocity": 91,
      "chip": "ym2612"
    },
    {
      "channel": 3,
      "note": 70,
      "start": 19.0913,
      "duration": 0.1662,
      "velocity": 93,
      "chip": "ym2612"
    },
    {
      "channel": 2,
      "note": 51,
      "start": 19.1605,
      "duration": 0.0968,
      "velocity": 91,
      "chip": "ym2612"
    },
    {
      "channel": 0,
      "note": 72,
      "start": 19.2709,
      "duration": 0.1662,
      "velocity": 93,
      "chip": "ym2612"
    },
    {
      "channel": 1,
      "note": 80,
      "start": 19.2712,
      "duration": 0.4291,
      "velocity": 77,
      "chip": "ym2612"
    },
    {
      "channel": 2,
      "note": 56,
      "start": 19.2714,
      "duration": 0.0968,
      "velocity": 91,
      "chip": "ym2612"
    },
    {
      "channel": 3,
      "note": 72,
      "start": 19.4236,
      "duration": 0.1662,
      "velocity": 93,
      "chip": "ym2612"
    },
    {
      "channel": 2,
      "note": 68,
      "start": 19.4928,
      "duration": 0.0968,
      "velocity": 91,
      "chip": "ym2612"
    },
    {
      "channel": 0,
      "note": 75,
      "start": 19.6032,
      "duration": 0.1661,
      "velocity": 93,
      "chip": "ym2612"
    },
    {
      "channel": 3,
      "note": 75,
      "start": 19.7557,
      "duration": 0.1664,
      "velocity": 93,
      "chip": "ym2612"
    },
    {
      "channel": 0,
      "note": 73,
      "start": 19.8247,
      "duration": 0.0554,
      "velocity": 93,
      "chip": "ym2612"
    },
    {
      "channel": 1,
      "note": 77,
      "start": 19.8249,
      "duration": 0.0968,
      "velocity": 77,
      "chip": "ym2612"
    },
    {
      "channel": 2,
      "note": 61,
      "start": 19.8251,
      "duration": 0.0968,
      "velocity": 91,
      "chip": "ym2612"
    },
    {
      "channel": 3,
      "note": 73,
      "start": 19.977,
      "duration": 0.0554,
      "velocity": 93,
      "chip": "ym2612"
    },
    {
      "channel": 2,
      "note": 61,
      "start": 20.1569,
      "duration": 0.4015,
      "velocity": 91,
      "chip": "ym2612"
    },
    {
      "channel": 0,
      "note": 73,
      "start": 20.1846,
      "duration": 0.0415,
      "velocity": 93,
      "chip": "ym2612"
    },
    {
      "channel": 3,
      "note": 73,
      "start": 20.337,
      "duration": 0.0415,
      "velocity": 93,
      "chip": "ym2612"
    },
    {
      "channel": 0,
      "note": 72,
      "start": 20.5999,
      "duration": 0.1661,
      "velocity": 93,
      "chip": "ym2612"
    },
    {
      "channel": 2,
      "note": 60,
      "start": 20.6002,
      "duration": 0.2905,
      "velocity": 91,
      "chip": "ym2612"
    },
    {
      "channel": 3,
      "note": 72,
      "start": 20.7525,
      "duration": 0.1661,
      "velocity": 93,
      "chip": "ym2612"
    },
    {
      "channel": 0,
      "note": 71,
      "start": 20.9322,
      "duration": 0.1661,
      "velocity": 93,
      "chip": "ym2612"
    },
    {
      "channel": 2,
      "note": 59,
      "start": 20.9324,
      "duration": 0.2906,
      "velocity": 91,
      "chip": "ym2612"
    },
    {
      "channel": 3,
      "note": 71,
      "start": 21.0847,
      "duration": 0.1661,
      "velocity": 93,
      "chip": "ym2612"
    },
    {
      "channel": 0,
      "note": 70,
      "start": 21.2645,
      "duration": 0.1661,
      "velocity": 93,
      "chip": "ym2612"
    },
    {
      "channel": 1,
      "note": 78,
      "start": 21.2647,
      "duration": 1.1628,
      "velocity": 77,
      "chip": "ym2612"
    },
    {
      "channel": 2,
      "note": 54,
      "start": 21.2649,
      "duration": 0.2906,
      "velocity": 91,
      "chip": "ym2612"
    },
    {
      "channel": 3,
      "note": 70,
      "start": 21.4172,
      "duration": 0.1661,
      "velocity": 93,
      "chip": "ym2612"
    },
    {
      "channel": 0,
      "note": 73,
      "start": 21.5967,
      "duration": 0.1661,
      "velocity": 93,
      "chip": "ym2612"
    },
    {
      "channel": 2,
      "note": 56,
      "start": 21.5971,
      "duration": 0.2906,
      "velocity": 91,
      "chip": "ym2612"
    },
    {
      "channel": 3,
      "note": 73,
      "start": 21.7493,
      "duration": 0.1662,
      "velocity": 93,
      "chip": "ym2612"
    },
    {
      "channel": 0,
      "note": 78,
      "start": 21.929,
      "duration": 0.1661,
      "velocity": 93,
      "chip": "ym2612"
    },
    {
      "channel": 2,
      "note": 58,
      "start": 21.9294,
      "duration": 0.2906,
      "velocity": 91,
      "chip": "ym2612"
    },
    {
      "channel": 3,
      "note": 78,
      "start": 22.0816,
      "duration": 0.1661,
      "velocity": 93,
      "chip": "ym2612"
    },
    {
      "channel": 0,
      "note": 82,
      "start": 22.2612,
      "duration": 0.1661,
      "velocity": 93,
      "chip": "ym2612"
    },
    {
      "channel": 2,
      "note": 54,
      "start": 22.2616,
      "duration": 0.2906,
      "velocity": 91,
      "chip": "ym2612"
    },
    {
      "channel": 3,
      "note": 82,
      "start": 22.4139,
      "duration": 0.1662,
      "velocity": 93,
      "chip": "ym2612"
    },
    {
      "channel": 0,
      "note": 80,
      "start": 22.5935,
      "duration": 0.1661,
      "velocity": 93,
      "chip": "ym2612"
    },
    {
      "channel": 1,
      "note": 77,
      "start": 22.5937,
      "duration": 0.2906,
      "velocity": 77,
      "chip": "ym2612"
    },
    {
      "channel": 2,
      "note": 61,
      "start": 22.5939,
      "duration": 0.2905,
      "velocity": 91,
      "chip": "ym2612"
    },
    {
      "channel": 3,
      "note": 80,
      "start": 22.7461,
      "duration": 0.1662,
      "velocity": 93,
      "chip": "ym2612"
    },
    {
      "channel": 0,
      "note": 77,
      "start": 22.9258,
      "duration": 0.1661,
      "velocity": 93,
      "chip": "ym2612"
    },
    {
      "channel": 1,
      "note": 75,
      "start": 22.9259,
      "duration": 0.0969,
      "velocity": 77,
      "chip": "ym2612"
    },
    {
      "channel": 2,
      "note": 63,
      "start": 22.9262,
      "duration": 0.2905,
      "velocity": 91,
      "chip": "ym2612"
    },
    {
      "channel": 3,
      "note": 77,
      "start": 23.0782,
      "duration": 0.1663,
      "velocity": 93,
      "chip": "ym2612"
    },
    {
      "channel": 1,
      "note": 73,
      "start": 23.1474,
      "duration": 0.6922,
      "velocity": 77,
      "chip": "ym2612"
    },
    {
      "channel": 2,
      "note": 65,
      "start": 23.2582,
      "duration": 0.2908,
      "velocity": 91,
      "chip": "ym2612"
    },
    {
      "channel": 0,
      "note": 68,
      "start": 23.5072,
      "duration": 0.0415,
      "velocity": 93,
      "chip": "ym2612"
    },
    {
      "channel": 2,
      "note": 61,
      "start": 23.5905,
      "duration": 0.2908,
      "velocity": 91,
      "chip": "ym2612"
    },
    {
      "channel": 3,
      "note": 68,
      "start": 23.6597,
      "duration": 0.0415,
      "velocity": 93,
      "chip": "ym2612"
    },
    {
      "channel": 0,
      "note": 66,
      "start": 23.8394,
      "duration": 0.4153,
      "velocity": 93,
      "chip": "ym2612"
    },
    {
      "channel": 1,
      "note": 70,
      "start": 23.9227,
      "duration": 0.2907,
      "velocity": 77,
      "chip": "ym2612"
    },
    {
      "channel": 2,
      "note": 51,
      "start": 23.9229,
      "duration": 0.2907,
      "velocity": 91,
      "chip": "ym2612"
    },
    {
      "channel": 3,
      "note": 66,
      "start": 23.9921,
      "duration": 0.4153,
      "velocity": 93,
      "chip": "ym2612"
    },
    {
      "channel": 0,
      "note": 70,
      "start": 24.2548,
      "duration": 0.1661,
      "velocity": 93,
      "chip": "ym2612"
    },
    {
      "channel": 1,
      "note": 75,
      "start": 24.255,
      "duration": 0.2907,
      "velocity": 77,
      "chip": "ym2612"
    },
    {
      "channel": 2,
      "note": 53,
      "start": 24.2552,
      "duration": 0.2906,
      "velocity": 91,
      "chip": "ym2612"
    },
    {
      "channel": 3,
      "note": 70,
      "start": 24.4074,
      "duration": 0.1661,
      "velocity": 93,
      "chip": "ym2612"
    },
    {
      "channel": 0,
      "note": 73,
      "start": 24.587,
      "duration": 0.1661,
      "velocity": 93,
      "chip": "ym2612"
    },
    {
      "channel": 1,
      "note": 79,
      "start": 24.5872,
      "duration": 0.2907,
      "velocity": 77,
      "chip": "ym2612"
    },
    {
      "channel": 2,
      "note": 55,
      "start": 24.5875,
      "duration": 0.2906,
      "velocity": 91,
      "chip": "ym2612"
    },
    {
      "channel": 3,
      "note": 73,
      "start": 24.7397,
      "duration": 0.1661,
      "velocity": 93,
      "chip": "ym2612"
    },
    {
      "channel": 0,
      "note": 77,
      "start": 24.9193,
      "duration": 0.0553,
      "velocity": 93,
      "chip": "ym2612"
    },
    {
      "channel": 1,
      "note": 82,
      "start": 24.9195,
      "duration": 0.2907,
      "velocity": 77,
      "chip": "ym2612"
    },
    {
      "channel": 2,
      "note": 51,
      "start": 24.9197,
      "duration": 0.2906,
      "velocity": 91,
      "chip": "ym2612"
    },
    {
      "channel": 3,
      "note": 77,
      "start": 25.0717,
      "duration": 0.0554,
      "velocity": 93,
      "chip": "ym2612"
    },
    {
      "channel": 0,
      "note": 75,
      "start": 25.1408,
      "duration": 0.7752,
      "velocity": 93,
      "chip": "ym2612"
    },
    {
      "channel": 1,
      "note": 80,
      "start": 25.2517,
      "duration": 1.1629,
      "velocity": 77,
      "chip": "ym2612"
    },
    {
      "channel": 2,
      "note": 56,
      "start": 25.2519,
      "duration": 0.2906,
      "velocity": 91,
      "chip": "ym2612"
    },
    {
      "channel": 3,
      "note": 75,
      "start": 25.2934,
      "duration": 0.7752,
      "velocity": 93,
      "chip": "ym2612"
    },
    {
      "channel": 2,
      "note": 58,
      "start": 25.5841,
      "duration": 0.2906,
      "velocity": 91,
      "chip": "ym2612"
    },
    {
      "channel": 2,
      "note": 60,
      "start": 25.9164,
      "duration": 0.2906,
      "velocity": 91,
      "chip": "ym2612"
    },
    {
      "channel": 2,
      "note": 56,
      "start": 26.2487,
      "duration": 0.2906,
      "velocity": 91,
      "chip": "ym2612"
    },
    {
      "channel": 0,
      "note": 80,
      "start": 26.5805,
      "duration": 0.3322,
      "velocity": 93,
      "chip": "ym2612"
    },
    {
      "channel": 1,
      "note": 84,
      "start": 26.5807,
      "duration": 0.5814,
      "velocity": 77,
      "chip": "ym2612"
    },
    {
      "channel": 3,
      "note": 80,
      "start": 26.7332,
      "duration": 0.3322,
      "velocity": 93,
      "chip": "ym2612"
    },
    {
      "channel": 2,
      "note": 56,
      "start": 26.8023,
      "duration": 0.4015,
      "velocity": 91,
      "chip": "ym2612"
    },
    {
      "channel": 0,
      "note": 79,
      "start": 27.245,
      "duration": 0.3322,
      "velocity": 93,
      "chip": "ym2612"
    },
    {
      "channel": 1,
      "note": 83,
      "start": 27.2452,
      "duration": 0.5814,
      "velocity": 77,
      "chip": "ym2612"
    },
    {
      "channel": 3,
      "note": 79,
      "start": 27.3977,
      "duration": 0.3322,
      "velocity": 93,
      "chip": "ym2612"
    },
    {
      "channel": 2,
      "note": 55,
      "start": 27.4669,
      "duration": 0.4013,
      "velocity": 91,
      "chip": "ym2612"
    },
    {
      "channel": 0,
      "note": 78,
      "start": 27.9095,
      "duration": 0.3323,
      "velocity": 93,
      "chip": "ym2612"
    },
    {
      "channel": 1,
      "note": 82,
      "start": 27.9098,
      "duration": 0.5814,
      "velocity": 77,
      "chip": "ym2612"
    },
    {
      "channel": 3,
      "note": 78,
      "start": 28.0622,
      "duration": 0.3322,
      "velocity": 93,
      "chip": "ym2612"
    },
    {
      "channel": 2,
      "note": 54,
      "start": 28.1314,
      "duration": 0.4013,
      "velocity": 91,
      "chip": "ym2612"
    },
    {
      "channel": 0,
      "note": 79,
      "start": 28.574,
      "duration": 0.3877,
      "velocity": 93,
      "chip": "ym2612"
    },
    {
      "channel": 1,
      "note": 83,
      "start": 28.5743,
      "duration": 0.4291,
      "velocity": 77,
      "chip": "ym2612"
    },
    {
      "channel": 3,
      "note": 79,
      "start": 28.7267,
      "duration": 0.3873,
      "velocity": 93,
      "chip": "ym2612"
    },
    {
      "channel": 2,
      "note": 55,
      "start": 28.7959,
      "duration": 0.3042,
      "velocity": 91,
      "chip": "ym2612"
    },
    {
      "channel": 0,
      "note": 80,
      "start": 29.1278,
      "duration": 0.0554,
      "velocity": 93,
      "chip": "ym2612"
    },
    {
      "channel": 1,
      "note": 84,
      "start": 29.128,
      "duration": 0.0968,
      "velocity": 77,
      "chip": "ym2612"
    },
    {
      "channel": 2,
      "note": 56,
      "start": 29.1282,
      "duration": 0.0968,
      "velocity": 91,
      "chip": "ym2612"
    },
    {
      "channel": 3,
      "note": 80,
      "start": 29.2801,
      "duration": 0.0554,
      "velocity": 93,
      "chip": "ym2612"
    },
    {
      "channel": 0,
      "note": 80,
      "start": 29.903,
      "duration": 0.0277,
      "velocity": 93,
      "chip": "ym2612"
    },
    {
      "channel": 0,
      "note": 84,
      "start": 29.9446,
      "duration": 0.0277,
      "velocity": 93,
      "chip": "ym2612"
    },
    {
      "channel": 0,
      "note": 87,
      "start": 29.9861,
      "duration": 0.0277,
      "velocity": 93,
      "chip": "ym2612"
    },
    {
      "channel": 0,
      "note": 92,
      "start": 30.0277,
      "duration": 0.2768,
      "velocity": 93,
      "chip": "ym2612"
    },
    {
      "channel": 3,
      "note": 80,
      "start": 30.0556,
      "duration": 0.0277,
      "velocity": 93,
      "chip": "ym2612"
    },
    {
      "channel": 3,
      "note": 84,
      "start": 30.0971,
      "duration": 0.0278,
      "velocity": 93,
      "chip": "ym2612"
    },
    {
      "channel": 3,
      "note": 87,
      "start": 30.1386,
      "duration": 0.0277,
      "velocity": 93,
      "chip": "ym2612"
    },
    {
      "channel": 3,
      "note": 92,
      "start": 30.1801,
      "duration": 0.2769,
      "velocity": 93,
      "chip": "ym2612"
    },
    {
      "channel": 0,
      "note": 84,
      "start": 30.789,
      "duration": 0.0554,
      "velocity": 93,
      "chip": "ym2612"
    },
    {
      "channel": 1,
      "note": 75,
      "start": 30.7893,
      "duration": 0.0968,
      "velocity": 77,
      "chip": "ym2612"
    },
    {
      "channel": 2,
      "note": 56,
      "start": 30.7894,
      "duration": 0.0968,
      "velocity": 91,
      "chip": "ym2612"
    },
    {
      "channel": 3,
      "note": 84,
      "start": 30.7896,
      "duration": 0.0552,
      "velocity": 93,
      "chip": "ym2612"
    },
    {
      "channel": 0,
      "note": 84,
      "start": 31.2321,
      "duration": 0.3322,
      "velocity": 93,
      "chip": "ym2612"
    },
    {
      "channel": 1,
      "note": 75,
      "start": 31.2323,
      "duration": 0.5814,
      "velocity": 77,
      "chip": "ym2612"
    },
    {
      "channel": 2,
      "note": 56,
      "start": 31.2324,
      "duration": 0.5814,
      "velocity": 91,
      "chip": "ym2612"
    },
    {
      "channel": 3,
      "note": 84,
      "start": 31.2326,
      "duration": 0.3321,
      "velocity": 93,
      "chip": "ym2612"
    },
    {
      "channel": 0,
      "note": 73,
      "start": 31.8966,
      "duration": 0.1661,
      "velocity": 93,
      "chip": "ym2612"
    },
    {
      "channel": 1,
      "note": 77,
      "start": 31.8968,
      "duration": 0.5814,
      "velocity": 77,
      "chip": "ym2612"
    },
    {
      "channel": 2,
      "note": 61,
      "start": 31.897,
      "duration": 0.2906,
      "velocity": 91,
      "chip": "ym2612"
    },
    {
      "channel": 3,
      "note": 73,
      "start": 32.0492,
      "duration": 0.1661,
      "velocity": 93,
      "chip": "ym2612"
    },
    {
      "channel": 0,
      "note": 77,
      "start": 32.2289,
      "duration": 0.1661,
      "velocity": 93,
      "chip": "ym2612"
    },
    {
      "channel": 2,
      "note": 73,
      "start": 32.2293,
      "duration": 0.0968,
      "velocity": 91,
      "chip": "ym2612"
    },
    {
      "channel": 3,
      "note": 77,
      "start": 32.3815,
      "duration": 0.1662,
      "velocity": 93,
      "chip": "ym2612"
    },
    {
      "channel": 0,
      "note": 80,
      "start": 32.4504,
      "duration": 0.0554,
      "velocity": 93,
      "chip": "ym2612"
    },
    {
      "channel": 2,
      "note": 61,
      "start": 32.4507,
      "duration": 0.0968,
      "velocity": 91,
      "chip": "ym2612"
    },
    {
      "channel": 1,
      "note": 85,
      "start": 32.5611,
      "duration": 0.5816,
      "velocity": 77,
      "chip": "ym2612"
    },
    {
      "channel": 2,
      "note": 58,
      "start": 32.5613,
      "duration": 0.0968,
      "velocity": 91,
      "chip": "ym2612"
    },
    {
      "channel": 3,
      "note": 80,
      "start": 32.6029,
      "duration": 0.0555,
      "velocity": 93,
      "chip": "ym2612"
    },
    {
      "channel": 2,
      "note": 70,
      "start": 32.7828,
      "duration": 0.0969,
      "velocity": 91,
      "chip": "ym2612"
    },
    {
      "channel": 0,
      "note": 80,
      "start": 32.8103,
      "duration": 0.0415,
      "velocity": 93,
      "chip": "ym2612"
    },
    {
      "channel": 0,
      "note": 78,
      "start": 32.8934,
      "duration": 0.1661,
      "velocity": 93,
      "chip": "ym2612"
    },
    {
      "channel": 3,
      "note": 80,
      "start": 32.963,
      "duration": 0.0415,
      "velocity": 93,
      "chip": "ym2612"
    },
    {
      "channel": 3,
      "note": 78,
      "start": 33.046,
      "duration": 0.1662,
      "velocity": 93,
      "chip": "ym2612"
    },
    {
      "channel": 0,
      "note": 77,
      "start": 33.1149,
      "duration": 0.0554,
      "velocity": 93,
      "chip": "ym2612"
    },
    {
      "channel": 2,
      "note": 58,
      "start": 33.1153,
      "duration": 0.0968,
      "velocity": 91,
      "chip": "ym2612"
    },
    {
      "channel": 1,
      "note": 84,
      "start": 33.2256,
      "duration": 0.5816,
      "velocity": 77,
      "chip": "ym2612"
    },
    {
      "channel": 2,
      "note": 53,
      "start": 33.2258,
      "duration": 0.2906,
      "velocity": 91,
      "chip": "ym2612"
    },
    {
      "channel": 3,
      "note": 77,
      "start": 33.2673,
      "duration": 0.0554,
      "velocity": 93,
      "chip": "ym2612"
    },
    {
      "channel": 0,
      "note": 75,
      "start": 33.5579,
      "duration": 0.1661,
      "velocity": 93,
      "chip": "ym2612"
    },
    {
      "channel": 2,
      "note": 65,
      "start": 33.5583,
      "duration": 0.0968,
      "velocity": 91,
      "chip": "ym2612"
    },
    {
      "channel": 3,
      "note": 75,
      "start": 33.7105,
      "duration": 0.1662,
      "velocity": 93,
      "chip": "ym2612"
    },
    {
      "channel": 2,
      "note": 53,
      "start": 33.7797,
      "duration": 0.0968,
      "velocity": 91,
      "chip": "ym2612"
    },
    {
      "channel": 0,
      "note": 80,
      "start": 33.8901,
      "duration": 0.1661,
      "velocity": 93,
      "chip": "ym2612"
    },
    {
      "channel": 1,
      "note": 80,
      "start": 33.8903,
      "duration": 0.5814,
      "velocity": 77,
      "chip": "ym2612"
    },
    {
      "channel": 2,
      "note": 53,
      "start": 33.8905,
      "duration": 0.0968,
      "velocity": 91,
      "chip": "ym2612"
    },
    {
      "channel": 3,
      "note": 80,
      "start": 34.0427,
      "duration": 0.1662,
      "velocity": 93,
      "chip": "ym2612"
    },
    {
      "channel": 0,
      "note": 80,
      "start": 34.1116,
      "duration": 0.0554,
      "velocity": 93,
      "chip": "ym2612"
    },
    {
      "channel": 2,
      "note": 65,
      "start": 34.112,
      "duration": 0.0968,
      "velocity": 91,
      "chip": "ym2612"
    },
    {
      "channel": 0,
      "note": 77,
      "start": 34.2224,
      "duration": 0.1661,
      "velocity": 93,
      "chip": "ym2612"
    },
    {
      "channel": 3,
      "note": 80,
      "start": 34.2643,
      "duration": 0.0553,
      "velocity": 93,
      "chip": "ym2612"
    },
    {
      "channel": 3,
      "note": 77,
      "start": 34.3751,
      "duration": 0.1661,
      "velocity": 93,
      "chip": "ym2612"
    },
    {
      "channel": 0,
      "note": 75,
      "start": 34.4439,
      "duration": 0.0554,
      "velocity": 93,
      "chip": "ym2612"
    },
    {
      "channel": 2,
      "note": 53,
      "start": 34.4443,
      "duration": 0.0968,
      "velocity": 91,
      "chip": "ym2612"
    },
    {
      "channel": 0,
      "note": 73,
      "start": 34.5546,
      "duration": 0.1661,
      "velocity": 93,
      "chip": "ym2612"
    },
    {
      "channel": 1,
      "note": 78,
      "start": 34.5548,
      "duration": 0.5814,
      "velocity": 77,
      "chip": "ym2612"
    },
    {
      "channel": 2,
      "note": 51,
      "start": 34.5551,
      "duration": 0.2905,
      "velocity": 91,
      "chip": "ym2612"
    },
    {
      "channel": 3,
      "note": 75,
      "start": 34.5966,
      "duration": 0.0554,
      "velocity": 93,
      "chip": "ym2612"
    },
    {
      "channel": 3,
      "note": 73,
      "start": 34.7073,
      "duration": 0.1661,
      "velocity": 93,
      "chip": "ym2612"
    },
    {
      "channel": 0,
      "note": 72,
      "start": 34.8869,
      "duration": 0.1661,
      "velocity": 93,
      "chip": "ym2612"
    },
    {
      "channel": 2,
      "note": 63,
      "start": 34.8873,
      "duration": 0.0968,
      "velocity": 91,
      "chip": "ym2612"
    },
    {
      "channel": 3,
      "note": 72,
      "start": 35.0395,
      "duration": 0.1662,
      "velocity": 93,
      "chip": "ym2612"
    },
    {
      "channel": 2,
      "note": 53,
      "start": 35.1087,
      "duration": 0.0968,
      "velocity": 91,
      "chip": "ym2612"
    },
    {
      "channel": 0,
      "note": 70,
      "start": 35.2191,
      "duration": 0.1661,
      "velocity": 93,
      "chip": "ym2612"
    },
    {
      "channel": 1,
      "note": 82,
      "start": 35.2193,
      "duration": 0.5814,
      "velocity": 77,
      "chip": "ym2612"
    },
    {
      "channel": 2,
      "note": 53,
      "start": 35.2195,
      "duration": 0.0968,
      "velocity": 91,
      "chip": "ym2612"
    },
    {
      "channel": 3,
      "note": 70,
      "start": 35.3718,
      "duration": 0.1662,
      "velocity": 93,
      "chip": "ym2612"
    },
    {
      "channel": 2,
      "note": 68,
      "start": 35.441,
      "duration": 0.0968,
      "velocity": 91,
      "chip": "ym2612"
    },
    {
      "channel": 0,
      "note": 73,
      "start": 35.5514,
      "duration": 0.1661,
      "velocity": 93,
      "chip": "ym2612"
    },
    {
      "channel": 3,
      "note": 73,
      "start": 35.7041,
      "duration": 0.1662,
      "velocity": 93,
      "chip": "ym2612"
    },
    {
      "channel": 0,
      "note": 80,
      "start": 35.7729,
      "duration": 0.2768,
      "velocity": 93,
      "chip": "ym2612"
    },
    {
      "channel": 2,
      "note": 54,
      "start": 35.7733,
      "duration": 0.0968,
      "velocity": 91,
      "chip": "ym2612"
    },
    {
      "channel": 1,
      "note": 80,
      "start": 35.8838,
      "duration": 0.5814,
      "velocity": 77,
      "chip": "ym2612"
    },
    {
      "channel": 2,
      "note": 53,
      "start": 35.884,
      "duration": 0.2906,
      "velocity": 91,
      "chip": "ym2612"
    },
    {
      "channel": 3,
      "note": 80,
      "start": 35.9256,
      "duration": 0.2768,
      "velocity": 93,
      "chip": "ym2612"
    },
    {
      "channel": 0,
      "note": 92,
      "start": 36.1051,
      "duration": 0.0553,
      "velocity": 93,
      "chip": "ym2612"
    },
    {
      "channel": 0,
      "note": 94,
      "start": 36.2159,
      "duration": 0.1661,
      "velocity": 93,
      "chip": "ym2612"
    },
    {
      "channel": 2,
      "note": 65,
      "start": 36.2163,
      "duration": 0.0968,
      "velocity": 91,
      "chip": "ym2612"
    },
    {
      "channel": 3,
      "note": 92,
      "start": 36.2578,
      "duration": 0.0555,
      "velocity": 93,
      "chip": "ym2612"
    },
    {
      "channel": 3,
      "note": 94,
      "start": 36.3686,
      "duration": 0.1662,
      "velocity": 93,
      "chip": "ym2612"
    },
    {
      "channel": 0,
      "note": 96,
      "start": 36.4374,
      "duration": 0.0554,
      "velocity": 93,
      "chip": "ym2612"
    },
    {
      "channel": 2,
      "note": 53,
      "start": 36.4378,
      "duration": 0.0968,
      "velocity": 91,
      "chip": "ym2612"
    },
    {
      "channel": 0,
      "note": 97,
      "start": 36.5481,
      "duration": 0.1661,
      "velocity": 93,
      "chip": "ym2612"
    },
    {
      "channel": 1,
      "note": 77,
      "start": 36.5483,
      "duration": 0.5815,
      "velocity": 77,
      "chip": "ym2612"
    },
    {
      "channel": 2,
      "note": 58,
      "start": 36.5486,
      "duration": 0.0967,
      "velocity": 91,
      "chip": "ym2612"
    },
    {
      "channel": 3,
      "note": 96,
      "start": 36.5901,
      "duration": 0.0555,
      "velocity": 93,
      "chip": "ym2612"
    },
    {
      "channel": 3,
      "note": 97,
      "start": 36.7008,
      "duration": 0.1662,
      "velocity": 93,
      "chip": "ym2612"
    },
    {
      "channel": 2,
      "note": 70,
      "start": 36.77,
      "duration": 0.0969,
      "velocity": 91,
      "chip": "ym2612"
    },
    {
      "channel": 2,
      "note": 58,
      "start": 37.1021,
      "duration": 0.0969,
      "velocity": 91,
      "chip": "ym2612"
    },
    {
      "channel": 0,
      "note": 75,
      "start": 37.1296,
      "duration": 0.4153,
      "velocity": 93,
      "chip": "ym2612"
    },
    {
      "channel": 1,
      "note": 75,
      "start": 37.2128,
      "duration": 0.5814,
      "velocity": 77,
      "chip": "ym2612"
    },
    {
      "channel": 2,
      "note": 51,
      "start": 37.213,
      "duration": 0.2906,
      "velocity": 91,
      "chip": "ym2612"
    },
    {
      "channel": 3,
      "note": 75,
      "start": 37.2822,
      "duration": 0.4153,
      "velocity": 93,
      "chip": "ym2612"
    },
    {
      "channel": 2,
      "note": 63,
      "start": 37.5453,
      "duration": 0.0968,
      "velocity": 91,
      "chip": "ym2612"
    },
    {
      "channel": 2,
      "note": 51,
      "start": 37.7668,
      "duration": 0.0968,
      "velocity": 91,
      "chip": "ym2612"
    },
    {
      "channel": 1,
      "note": 78,
      "start": 37.8771,
      "duration": 0.5816,
      "velocity": 77,
      "chip": "ym2612"
    },
    {
      "channel": 2,
      "note": 56,
      "start": 37.8774,
      "duration": 0.0968,
      "velocity": 91,
      "chip": "ym2612"
    },
    {
      "channel": 2,
      "note": 68,
      "start": 38.0988,
      "duration": 0.097,
      "velocity": 91,
      "chip": "ym2612"
    },
    {
      "channel": 0,
      "note": 75,
      "start": 38.1263,
      "duration": 0.0415,
      "velocity": 93,
      "chip": "ym2612"
    },
    {
      "channel": 0,
      "note": 73,
      "start": 38.2094,
      "duration": 0.1661,
      "velocity": 93,
      "chip": "ym2612"
    },
    {
      "channel": 3,
      "note": 75,
      "start": 38.279,
      "duration": 0.0415,
      "velocity": 93,
      "chip": "ym2612"
    },
    {
      "channel": 3,
      "note": 73,
      "start": 38.3621,
      "duration": 0.1662,
      "velocity": 93,
      "chip": "ym2612"
    },
    {
      "channel": 0,
      "note": 75,
      "start": 38.4309,
      "duration": 0.0554,
      "velocity": 93,
      "chip": "ym2612"
    },
    {
      "channel": 2,
      "note": 58,
      "start": 38.4313,
      "duration": 0.0968,
      "velocity": 91,
      "chip": "ym2612"
    },
    {
      "channel": 0,
      "note": 77,
      "start": 38.5417,
      "duration": 0.1662,
      "velocity": 93,
      "chip": "ym2612"
    },
    {
      "channel": 1,
      "note": 77,
      "start": 38.5419,
      "duration": 0.5814,
      "velocity": 77,
      "chip": "ym2612"
    },
    {
      "channel": 2,
      "note": 53,
      "start": 38.5421,
      "duration": 0.2905,
      "velocity": 91,
      "chip": "ym2612"
    },
    {
      "channel": 3,
      "note": 75,
      "start": 38.5836,
      "duration": 0.0553,
      "velocity": 93,
      "chip": "ym2612"
    },
    {
      "channel": 3,
      "note": 77,
      "start": 38.6943,
      "duration": 0.1661,
      "velocity": 93,
      "chip": "ym2612"
    },
    {
      "channel": 0,
      "note": 78,
      "start": 38.8739,
      "duration": 0.1662,
      "velocity": 93,
      "chip": "ym2612"
    },
    {
      "channel": 2,
      "note": 65,
      "start": 38.8743,
      "duration": 0.0968,
      "velocity": 91,
      "chip": "ym2612"
    },
    {
      "channel": 3,
      "note": 78,
      "start": 39.0266,
      "duration": 0.1662,
      "velocity": 93,
      "chip": "ym2612"
    },
    {
      "channel": 0,
      "note": 80,
      "start": 39.0954,
      "duration": 0.0554,
      "velocity": 93,
      "chip": "ym2612"
    },
    {
      "channel": 2,
      "note": 53,
      "start": 39.0958,
      "duration": 0.0968,
      "velocity": 91,
      "chip": "ym2612"
    },
    {
      "channel": 1,
      "note": 73,
      "start": 39.2062,
      "duration": 0.5816,
      "velocity": 77,
      "chip": "ym2612"
    },
    {
      "channel": 2,
      "note": 58,
      "start": 39.2064,
      "duration": 0.0968,
      "velocity": 91,
      "chip": "ym2612"
    },
    {
      "channel": 3,
      "note": 80,
      "start": 39.2479,
      "duration": 0.0555,
      "velocity": 93,
      "chip": "ym2612"
    },
    {
      "channel": 2,
      "note": 70,
      "start": 39.4278,
      "duration": 0.097,
      "velocity": 91,
      "chip": "ym2612"
    },
    {
      "channel": 0,
      "note": 68,
      "start": 39.4554,
      "duration": 0.0415,
      "velocity": 93,
      "chip": "ym2612"
    },
    {
      "channel": 3,
      "note": 68,
      "start": 39.6079,
      "duration": 0.0415,
      "velocity": 93,
      "chip": "ym2612"
    },
    {
      "channel": 2,
      "note": 58,
      "start": 39.7601,
      "duration": 0.097,
      "velocity": 91,
      "chip": "ym2612"
    },
    {
      "channel": 0,
      "note": 66,
      "start": 39.7876,
      "duration": 0.0415,
      "velocity": 93,
      "chip": "ym2612"
    },
    {
      "channel": 0,
      "note": 75,
      "start": 39.8707,
      "duration": 0.1662,
      "velocity": 93,
      "chip": "ym2612"
    },
    {
      "channel": 1,
      "note": 75,
      "start": 39.8709,
      "duration": 0.5814,
      "velocity": 77,
      "chip": "ym2612"
    },
    {
      "channel": 2,
      "note": 51,
      "start": 39.8711,
      "duration": 0.2905,
      "velocity": 91,
      "chip": "ym2612"
    },
    {
      "channel": 3,
      "note": 66,
      "start": 39.9402,
      "duration": 0.0415,
      "velocity": 93,
      "chip": "ym2612"
    },
    {
      "channel": 3,
      "note": 75,
      "start": 40.0233,
      "duration": 0.1661,
      "velocity": 93,
      "chip": "ym2612"
    },
    {
      "channel": 0,
      "note": 70,
      "start": 40.2029,
      "duration": 0.1661,
      "velocity": 93,
      "chip": "ym2612"
    },
    {
      "channel": 2,
      "note": 63,
      "start": 40.2034,
      "duration": 0.0968,
      "velocity": 91,
      "chip": "ym2612"
    },
    {
      "channel": 3,
      "note": 70,
      "start": 40.3556,
      "duration": 0.1662,
      "velocity": 93,
      "chip": "ym2612"
    },
    {
      "channel": 2,
      "note": 51,
      "start": 40.4248,
      "duration": 0.0968,
      "velocity": 91,
      "chip": "ym2612"
    },
    {
      "channel": 0,
      "note": 72,
      "start": 40.5352,
      "duration": 0.1661,
      "velocity": 93,
      "chip": "ym2612"
    },
    {
      "channel": 1,
      "note": 77,
      "start": 40.5354,
      "duration": 0.5258,
      "velocity": 77,
      "chip": "ym2612"
    },
    {
      "channel": 2,
      "note": 56,
      "start": 40.5356,
      "duration": 0.0968,
      "velocity": 91,
      "chip": "ym2612"
    },
    {
      "channel": 3,
      "note": 72,
      "start": 40.6878,
      "duration": 0.1662,
      "velocity": 93,
      "chip": "ym2612"
    },
    {
      "channel": 2,
      "note": 68,
      "start": 40.7571,
      "duration": 0.0968,
      "velocity": 91,
      "chip": "ym2612"
    },
    {
      "channel": 0,
      "note": 75,
      "start": 40.8674,
      "duration": 0.0554,
      "velocity": 93,
      "chip": "ym2612"
    },
    {
      "channel": 3,
      "note": 75,
      "start": 41.02,
      "duration": 0.0554,
      "velocity": 93,
      "chip": "ym2612"
    },
    {
      "channel": 0,
      "note": 73,
      "start": 41.0889,
      "duration": 0.443,
      "velocity": 93,
      "chip": "ym2612"
    },
    {
      "channel": 1,
      "note": 76,
      "start": 41.0892,
      "duration": 1.2044,
      "velocity": 77,
      "chip": "ym2612"
    },
    {
      "channel": 2,
      "note": 57,
      "start": 41.0894,
      "duration": 0.2075,
      "velocity": 91,
      "chip": "ym2612"
    },
    {
      "channel": 3,
      "note": 73,
      "start": 41.2416,
      "duration": 0.443,
      "velocity": 93,
      "chip": "ym2612"
    },
    {
      "channel": 2,
      "note": 57,
      "start": 41.4215,
      "duration": 0.0969,
      "velocity": 91,
      "chip": "ym2612"
    },
    {
      "channel": 2,
      "note": 57,
      "start": 41.5322,
      "duration": 0.2907,
      "velocity": 91,
      "chip": "ym2612"
    },
    {
      "channel": 0,
      "note": 69,
      "start": 41.8642,
      "duration": 0.0554,
      "velocity": 93,
      "chip": "ym2612"
    },
    {
      "channel": 2,
      "note": 57,
      "start": 41.8645,
      "duration": 0.2907,
      "velocity": 91,
      "chip": "ym2612"
    },
    {
      "channel": 3,
      "note": 69,
      "start": 42.0167,
      "duration": 0.0554,
      "velocity": 93,
      "chip": "ym2612"
    },
    {
      "channel": 0,
      "note": 73,
      "start": 42.0857,
      "duration": 0.0554,
      "velocity": 93,
      "chip": "ym2612"
    },
    {
      "channel": 0,
      "note": 76,
      "start": 42.1965,
      "duration": 0.0554,
      "velocity": 93,
      "chip": "ym2612"
    },
    {
      "channel": 2,
      "note": 57,
      "start": 42.1967,
      "duration": 0.0969,
      "velocity": 91,
      "chip": "ym2612"
    },
    {
      "channel": 3,
      "note": 73,
      "start": 42.2383,
      "duration": 0.0555,
      "velocity": 93,
      "chip": "ym2612"
    },
    {
      "channel": 3,
      "note": 76,
      "start": 42.3488,
      "duration": 0.0554,
      "velocity": 93,
      "chip": "ym2612"
    },
    {
      "channel": 0,
      "note": 75,
      "start": 42.418,
      "duration": 0.7753,
      "velocity": 93,
      "chip": "ym2612"
    },
    {
      "channel": 1,
      "note": 80,
      "start": 42.4182,
      "duration": 0.1107,
      "velocity": 77,
      "chip": "ym2612"
    },
    {
      "channel": 2,
      "note": 59,
      "start": 42.4184,
      "duration": 0.3321,
      "velocity": 91,
      "chip": "ym2612"
    },
    {
      "channel": 1,
      "note": 78,
      "start": 42.5289,
      "duration": 1.0936,
      "velocity": 77,
      "chip": "ym2612"
    },
    {
      "channel": 3,
      "note": 75,
      "start": 42.5706,
      "duration": 0.7751,
      "velocity": 93,
      "chip": "ym2612"
    },
    {
      "channel": 2,
      "note": 59,
      "start": 42.7506,
      "duration": 0.0968,
      "velocity": 91,
      "chip": "ym2612"
    },
    {
      "channel": 2,
      "note": 59,
      "start": 42.8612,
      "duration": 0.2907,
      "velocity": 91,
      "chip": "ym2612"
    },
    {
      "channel": 0,
      "note": 71,
      "start": 43.1932,
      "duration": 0.0554,
      "velocity": 93,
      "chip": "ym2612"
    },
    {
      "channel": 2,
      "note": 59,
      "start": 43.1936,
      "duration": 0.2907,
      "velocity": 91,
      "chip": "ym2612"
    },
    {
      "channel": 3,
      "note": 71,
      "start": 43.3457,
      "duration": 0.0553,
      "velocity": 93,
      "chip": "ym2612"
    },
    {
      "channel": 0,
      "note": 75,
      "start": 43.4147,
      "duration": 0.0554,
      "velocity": 93,
      "chip": "ym2612"
    },
    {
      "channel": 0,
      "note": 78,
      "start": 43.5255,
      "duration": 0.0554,
      "velocity": 93,
      "chip": "ym2612"
    },
    {
      "channel": 2,
      "note": 59,
      "start": 43.5258,
      "duration": 0.0969,
      "velocity": 91,
      "chip": "ym2612"
    },
    {
      "channel": 3,
      "note": 75,
      "start": 43.5673,
      "duration": 0.0555,
      "velocity": 93,
      "chip": "ym2612"
    },
    {
      "channel": 3,
      "note": 78,
      "start": 43.6778,
      "duration": 0.0554,
      "velocity": 93,
      "chip": "ym2612"
    },
    {
      "channel": 0,
      "note": 77,
      "start": 43.747,
      "duration": 0.443,
      "velocity": 93,
      "chip": "ym2612"
    },
    {
      "channel": 1,
      "note": 80,
      "start": 43.7472,
      "duration": 1.2736,
      "velocity": 77,
      "chip": "ym2612"
    },
    {
      "channel": 2,
      "note": 61,
      "start": 43.7474,
      "duration": 0.2075,
      "velocity": 91,
      "chip": "ym2612"
    },
    {
      "channel": 3,
      "note": 77,
      "start": 43.8996,
      "duration": 0.443,
      "velocity": 93,
      "chip": "ym2612"
    },
    {
      "channel": 2,
      "note": 61,
      "start": 44.0795,
      "duration": 0.0969,
      "velocity": 91,
      "chip": "ym2612"
    },
    {
      "channel": 2,
      "note": 61,
      "start": 44.1902,
      "duration": 0.2907,
      "velocity": 91,
      "chip": "ym2612"
    },
    {
      "channel": 0,
      "note": 77,
      "start": 44.5222,
      "duration": 0.0554,
      "velocity": 93,
      "chip": "ym2612"
    },
    {
      "channel": 2,
      "note": 61,
      "start": 44.5225,
      "duration": 0.2907,
      "velocity": 91,
      "chip": "ym2612"
    },
    {
      "channel": 3,
      "note": 77,
      "start": 44.6747,
      "duration": 0.0553,
      "velocity": 93,
      "chip": "ym2612"
    },
    {
      "channel": 0,
      "note": 78,
      "start": 44.7438,
      "duration": 0.0553,
      "velocity": 93,
      "chip": "ym2612"
    },
    {
      "channel": 0,
      "note": 80,
      "start": 44.8545,
      "duration": 0.1661,
      "velocity": 93,
      "chip": "ym2612"
    },
    {
      "channel": 2,
      "note": 61,
      "start": 44.8548,
      "duration": 0.2906,
      "velocity": 91,
      "chip": "ym2612"
    },
    {
      "channel": 3,
      "note": 78,
      "start": 44.8964,
      "duration": 0.0554,
      "velocity": 93,
      "chip": "ym2612"
    },
    {
      "channel": 3,
      "note": 80,
      "start": 45.0072,
      "duration": 0.1661,
      "velocity": 93,
      "chip": "ym2612"
    },
    {
      "channel": 0,
      "note": 85,
      "start": 45.1868,
      "duration": 0.1661,
      "velocity": 93,
      "chip": "ym2612"
    },
    {
      "channel": 1,
      "note": 80,
      "start": 45.1869,
      "duration": 0.2907,
      "velocity": 77,
      "chip": "ym2612"
    },
    {
      "channel": 2,
      "note": 61,
      "start": 45.1871,
      "duration": 0.2907,
      "velocity": 91,
      "chip": "ym2612"
    },
    {
      "channel": 3,
      "note": 85,
      "start": 45.3394,
      "duration": 0.1661,
      "velocity": 93,
      "chip": "ym2612"
    },
    {
      "channel": 1,
      "note": 80,
      "start": 45.7405,
      "duration": 0.0971,
      "velocity": 77,
      "chip": "ym2612"
    },
    {
      "channel": 2,
      "note": 61,
      "start": 45.7406,
      "duration": 0.0971,
      "velocity": 91,
      "chip": "ym2612"
    },
    {
      "channel": 0,
      "note": 85,
      "start": 45.7682,
      "duration": 0.0415,
      "velocity": 93,
      "chip": "ym2612"
    },
    {
      "channel": 3,
      "note": 85,
      "start": 45.9205,
      "duration": 0.0415,
      "velocity": 93,
      "chip": "ym2612"
    },
    {
      "channel": 2,
      "note": 56,
      "start": 46.0728,
      "duration": 0.0968,
      "velocity": 91,
      "chip": "ym2612"
    },
    {
      "channel": 2,
      "note": 58,
      "start": 46.1836,
      "duration": 0.0968,
      "velocity": 91,
      "chip": "ym2612"
    },
    {
      "channel": 2,
      "note": 60,
      "start": 46.405,
      "duration": 0.0968,
      "velocity": 91,
      "chip": "ym2612"
    },
    {
      "channel": 0,
      "note": 73,
      "start": 46.5158,
      "duration": 0.1527,
      "velocity": 93,
      "chip": "ym2612"
    },
    {
      "channel": 1,
      "note": 77,
      "start": 46.516,
      "duration": 0.1525,
      "velocity": 77,
      "chip": "ym2612"
    },
    {
      "channel": 2,
      "note": 61,
      "start": 46.5162,
      "duration": 0.1522,
      "velocity": 91,
      "chip": "ym2612"
    }
  ]
}