{
  "track_name": "09 - Hideout (Stages 5-1 & 5-4)",
  "duration_sec": 70.19,
  "sample_rate": 44100,
  "note_count": 1321,
  "unique_pitches": 44,
  "pitch_range": 73,
  "avg_note_duration": 0.2647,
  "reconstruction_stats": {
    "notes_reconstructed": 1321,
    "keyon_events": 1321,
    "keyoff_events": 1316,
    "orphan_keyons": 5,
    "unique_pitches": 44,
    "pitch_range": 73,
    "avg_duration_sec": 0.2647
  },
  "metadata": {
    "source": "L\\Lethal Enforcers II - Gun Fighters\\09 - Hideout (Stages 5-1 & 5-4).vgz"
  },
  "notes": [
    {
      "channel": 3,
      "note": 40,
      "start": 0.0,
      "duration": 0.0035,
      "velocity": 95,
      "chip": "ym2612"
    },
    {
      "channel": 0,
      "note": 52,
      "start": 0.0011,
      "duration": 0.0025,
      "velocity": 127,
      "chip": "ym2612"
    },
    {
      "channel": 2,
      "note": 59,
      "start": 0.0019,
      "duration": 0.0015,
      "velocity": 121,
      "chip": "ym2612"
    },
    {
      "channel": 4,
      "note": 52,
      "start": 0.0025,
      "duration": 0.0012,
      "velocity": 127,
      "chip": "ym2612"
    },
    {
      "channel": 1,
      "note": 52,
      "start": 0.003,
      "duration": 0.0015,
      "velocity": 127,
      "chip": "ym2612"
    },
    {
      "channel": 0,
      "note": 64,
      "start": 0.0044,
      "duration": 0.0041,
      "velocity": 111,
      "chip": "ym2612"
    },
    {
      "channel": 2,
      "note": 64,
      "start": 0.0051,
      "duration": 0.0017,
      "velocity": 121,
      "chip": "ym2612"
    },
    {
      "channel": 3,
      "note": 40,
      "start": 0.0054,
      "duration": 0.0014,
      "velocity": 95,
      "chip": "ym2612"
    },
    {
      "channel": 4,
      "note": 64,
      "start": 0.0061,
      "duration": 0.0025,
      "velocity": 111,
      "chip": "ym2612"
    },
    {
      "channel": 1,
      "note": 76,
      "start": 0.0066,
      "duration": 0.0027,
      "velocity": 111,
      "chip": "ym2612"
    },
    {
      "channel": 2,
      "note": 68,
      "start": 0.0071,
      "duration": 0.0004,
      "velocity": 121,
      "chip": "ym2612"
    },
    {
      "channel": 3,
      "note": 40,
      "start": 0.0075,
      "duration": 0.0002,
      "velocity": 95,
      "chip": "ym2612"
    },
    {
      "channel": 2,
      "note": 64,
      "start": 0.0079,
      "duration": 0.0005,
      "velocity": 121,
      "chip": "ym2612"
    },
    {
      "channel": 3,
      "note": 40,
      "start": 0.0083,
      "duration": 0.0002,
      "velocity": 95,
      "chip": "ym2612"
    },
    {
      "channel": 0,
      "note": 40,
      "start": 0.0093,
      "duration": 0.0104,
      "velocity": 127,
      "chip": "ym2612"
    },
    {
      "channel": 2,
      "note": 71,
      "start": 0.01,
      "duration": 0.0015,
      "velocity": 121,
      "chip": "ym2612"
    },
    {
      "channel": 3,
      "note": 40,
      "start": 0.0103,
      "duration": 0.0045,
      "velocity": 95,
      "chip": "ym2612"
    },
    {
      "channel": 4,
      "note": 40,
      "start": 0.0111,
      "duration": 0.0087,
      "velocity": 127,
      "chip": "ym2612"
    },
    {
      "channel": 1,
      "note": 40,
      "start": 0.0114,
      "duration": 0.0093,
      "velocity": 127,
      "chip": "ym2612"
    },
    {
      "channel": 2,
      "note": 68,
      "start": 0.0118,
      "duration": 0.003,
      "velocity": 121,
      "chip": "ym2612"
    },
    {
      "channel": 0,
      "note": 62,
      "start": 0.0206,
      "duration": 0.0032,
      "velocity": 111,
      "chip": "ym2612"
    },
    {
      "channel": 2,
      "note": 69,
      "start": 0.0213,
      "duration": 0.0018,
      "velocity": 121,
      "chip": "ym2612"
    },
    {
      "channel": 3,
      "note": 38,
      "start": 0.0217,
      "duration": 0.0019,
      "velocity": 95,
      "chip": "ym2612"
    },
    {
      "channel": 4,
      "note": 62,
      "start": 0.0225,
      "duration": 0.0014,
      "velocity": 111,
      "chip": "ym2612"
    },
    {
      "channel": 1,
      "note": 74,
      "start": 0.0231,
      "duration": 0.0012,
      "velocity": 111,
      "chip": "ym2612"
    },
    {
      "channel": 2,
      "note": 74,
      "start": 0.0234,
      "duration": 0.0002,
      "velocity": 121,
      "chip": "ym2612"
    },
    {
      "channel": 0,
      "note": 60,
      "start": 0.0242,
      "duration": 0.002,
      "velocity": 111,
      "chip": "ym2612"
    },
    {
      "channel": 2,
      "note": 76,
      "start": 0.0245,
      "duration": 0.0011,
      "velocity": 121,
      "chip": "ym2612"
    },
    {
      "channel": 3,
      "note": 36,
      "start": 0.0248,
      "duration": 0.0012,
      "velocity": 95,
      "chip": "ym2612"
    },
    {
      "channel": 4,
      "note": 60,
      "start": 0.0251,
      "duration": 0.0016,
      "velocity": 111,
      "chip": "ym2612"
    },
    {
      "channel": 1,
      "note": 72,
      "start": 0.0254,
      "duration": 0.001,
      "velocity": 111,
      "chip": "ym2612"
    },
    {
      "channel": 2,
      "note": 72,
      "start": 0.0259,
      "duration": 0.0002,
      "velocity": 121,
      "chip": "ym2612"
    },
    {
      "channel": 0,
      "note": 49,
      "start": 0.0273,
      "duration": 0.0024,
      "velocity": 120,
      "chip": "ym2612"
    },
    {
      "channel": 1,
      "note": 61,
      "start": 0.0277,
      "duration": 0.0021,
      "velocity": 95,
      "chip": "ym2612"
    },
    {
      "channel": 2,
      "note": 73,
      "start": 0.0284,
      "duration": 0.0152,
      "velocity": 111,
      "chip": "ym2612"
    },
    {
      "channel": 3,
      "note": 37,
      "start": 0.0288,
      "duration": 0.0012,
      "velocity": 95,
      "chip": "ym2612"
    },
    {
      "channel": 4,
      "note": 49,
      "start": 0.0295,
      "duration": 0.0014,
      "velocity": 120,
      "chip": "ym2612"
    },
    {
      "channel": 0,
      "note": 47,
      "start": 0.0302,
      "duration": 0.0008,
      "velocity": 120,
      "chip": "ym2612"
    },
    {
      "channel": 1,
      "note": 59,
      "start": 0.0304,
      "duration": 0.0007,
      "velocity": 95,
      "chip": "ym2612"
    },
    {
      "channel": 3,
      "note": 37,
      "start": 0.0308,
      "duration": 0.0004,
      "velocity": 95,
      "chip": "ym2612"
    },
    {
      "channel": 0,
      "note": 49,
      "start": 0.0316,
      "duration": 0.001,
      "velocity": 120,
      "chip": "ym2612"
    },
    {
      "channel": 1,
      "note": 61,
      "start": 0.0319,
      "duration": 0.0008,
      "velocity": 95,
      "chip": "ym2612"
    },
    {
      "channel": 3,
      "note": 37,
      "start": 0.0323,
      "duration": 0.0006,
      "velocity": 95,
      "chip": "ym2612"
    },
    {
      "channel": 4,
      "note": 47,
      "start": 0.0325,
      "duration": 0.0005,
      "velocity": 120,
      "chip": "ym2612"
    },
    {
      "channel": 0,
      "note": 61,
      "start": 0.0332,
      "duration": 0.0023,
      "velocity": 120,
      "chip": "ym2612"
    },
    {
      "channel": 1,
      "note": 62,
      "start": 0.0336,
      "duration": 0.0008,
      "velocity": 95,
      "chip": "ym2612"
    },
    {
      "channel": 3,
      "note": 37,
      "start": 0.0339,
      "duration": 0.0006,
      "velocity": 95,
      "chip": "ym2612"
    },
    {
      "channel": 4,
      "note": 49,
      "start": 0.0343,
      "duration": 0.0003,
      "velocity": 120,
      "chip": "ym2612"
    },
    {
      "channel": 1,
      "note": 64,
      "start": 0.0349,
      "duration": 0.0007,
      "velocity": 95,
      "chip": "ym2612"
    },
    {
      "channel": 3,
      "note": 37,
      "start": 0.0352,
      "duration": 0.0004,
      "velocity": 95,
      "chip": "ym2612"
    },
    {
      "channel": 4,
      "note": 61,
      "start": 0.0354,
      "duration": 0.0024,
      "velocity": 120,
      "chip": "ym2612"
    },
    {
      "channel": 0,
      "note": 49,
      "start": 0.0359,
      "duration": 0.0015,
      "velocity": 120,
      "chip": "ym2612"
    },
    {
      "channel": 1,
      "note": 66,
      "start": 0.036,
      "duration": 0.0013,
      "velocity": 95,
      "chip": "ym2612"
    },
    {
      "channel": 3,
      "note": 37,
      "start": 0.0364,
      "duration": 0.0003,
      "velocity": 95,
      "chip": "ym2612"
    },
    {
      "channel": 3,
      "note": 37,
      "start": 0.0371,
      "duration": 0.0003,
      "velocity": 95,
      "chip": "ym2612"
    },
    {
      "channel": 3,
      "note": 37,
      "start": 0.0378,
      "duration": 0.0004,
      "velocity": 95,
      "chip": "ym2612"
    },
    {
      "channel": 0,
      "note": 47,
      "start": 0.0384,
      "duration": 0.0012,
      "velocity": 120,
      "chip": "ym2612"
    },
    {
      "channel": 1,
      "note": 68,
      "start": 0.0386,
      "duration": 0.0011,
      "velocity": 95,
      "chip": "ym2612"
    },
    {
      "channel": 3,
      "note": 40,
      "start": 0.039,
      "duration": 0.0015,
      "velocity": 95,
      "chip": "ym2612"
    },
    {
      "channel": 4,
      "note": 49,
      "start": 0.0393,
      "duration": 0.0005,
      "velocity": 120,
      "chip": "ym2612"
    },
    {
      "channel": 0,
      "note": 49,
      "start": 0.0401,
      "duration": 0.0007,
      "velocity": 120,
      "chip": "ym2612"
    },
    {
      "channel": 1,
      "note": 64,
      "start": 0.0403,
      "duration": 0.0006,
      "velocity": 95,
      "chip": "ym2612"
    },
    {
      "channel": 4,
      "note": 47,
      "start": 0.0407,
      "duration": 0.0004,
      "velocity": 120,
      "chip": "ym2612"
    },
    {
      "channel": 0,
      "note": 59,
      "start": 0.0414,
      "duration": 0.0021,
      "velocity": 120,
      "chip": "ym2612"
    },
    {
      "channel": 1,
      "note": 66,
      "start": 0.0417,
      "duration": 0.0009,
      "velocity": 95,
      "chip": "ym2612"
    },
    {
      "channel": 3,
      "note": 38,
      "start": 0.042,
      "duration": 0.0011,
      "velocity": 95,
      "chip": "ym2612"
    },
    {
      "channel": 4,
      "note": 49,
      "start": 0.0425,
      "duration": 0.0003,
      "velocity": 120,
      "chip": "ym2612"
    },
    {
      "channel": 1,
      "note": 62,
      "start": 0.043,
      "duration": 0.0006,
      "velocity": 95,
      "chip": "ym2612"
    },
    {
      "channel": 4,
      "note": 59,
      "start": 0.0434,
      "duration": 0.0034,
      "velocity": 120,
      "chip": "ym2612"
    },
    {
      "channel": 0,
      "note": 49,
      "start": 0.0439,
      "duration": 0.0027,
      "velocity": 120,
      "chip": "ym2612"
    },
    {
      "channel": 1,
      "note": 61,
      "start": 0.0441,
      "duration": 0.0025,
      "velocity": 95,
      "chip": "ym2612"
    },
    {
      "channel": 2,
      "note": 74,
      "start": 0.0444,
      "duration": 0.0157,
      "velocity": 111,
      "chip": "ym2612"
    },
    {
      "channel": 3,
      "note": 37,
      "start": 0.0448,
      "duration": 0.0025,
      "velocity": 95,
      "chip": "ym2612"
    },
    {
      "channel": 0,
      "note": 47,
      "start": 0.047,
      "duration": 0.0007,
      "velocity": 120,
      "chip": "ym2612"
    },
    {
      "channel": 1,
      "note": 59,
      "start": 0.0472,
      "duration": 0.0005,
      "velocity": 95,
      "chip": "ym2612"
    },
    {
      "channel": 4,
      "note": 49,
      "start": 0.0476,
      "duration": 0.0001,
      "velocity": 120,
      "chip": "ym2612"
    },
    {
      "channel": 0,
      "note": 49,
      "start": 0.0482,
      "duration": 0.0008,
      "velocity": 120,
      "chip": "ym2612"
    },
    {
      "channel": 1,
      "note": 61,
      "start": 0.0483,
      "duration": 0.0008,
      "velocity": 95,
      "chip": "ym2612"
    },
    {
      "channel": 3,
      "note": 37,
      "start": 0.0488,
      "duration": 0.001,
      "velocity": 95,
      "chip": "ym2612"
    },
    {
      "channel": 4,
      "note": 47,
      "start": 0.0489,
      "duration": 0.0003,
      "velocity": 120,
      "chip": "ym2612"
    },
    {
      "channel": 0,
      "note": 61,
      "start": 0.0494,
      "duration": 0.0018,
      "velocity": 120,
      "chip": "ym2612"
    },
    {
      "channel": 1,
      "note": 62,
      "start": 0.0497,
      "duration": 0.0005,
      "velocity": 95,
      "chip": "ym2612"
    },
    {
      "channel": 4,
      "note": 49,
      "start": 0.05,
      "duration": 0.0002,
      "velocity": 120,
      "chip": "ym2612"
    },
    {
      "channel": 1,
      "note": 57,
      "start": 0.0505,
      "duration": 0.0007,
      "velocity": 95,
      "chip": "ym2612"
    },
    {
      "channel": 3,
      "note": 37,
      "start": 0.0509,
      "duration": 0.0004,
      "velocity": 95,
      "chip": "ym2612"
    },
    {
      "channel": 4,
      "note": 61,
      "start": 0.051,
      "duration": 0.0027,
      "velocity": 120,
      "chip": "ym2612"
    },
    {
      "channel": 0,
      "note": 49,
      "start": 0.0515,
      "duration": 0.0016,
      "velocity": 120,
      "chip": "ym2612"
    },
    {
      "channel": 1,
      "note": 59,
      "start": 0.0517,
      "duration": 0.0015,
      "velocity": 95,
      "chip": "ym2612"
    },
    {
      "channel": 3,
      "note": 37,
      "start": 0.052,
      "duration": 0.0003,
      "velocity": 95,
      "chip": "ym2612"
    },
    {
      "channel": 3,
      "note": 37,
      "start": 0.0526,
      "duration": 0.0007,
      "velocity": 95,
      "chip": "ym2612"
    },
    {
      "channel": 3,
      "note": 37,
      "start": 0.0537,
      "duration": 0.0001,
      "velocity": 95,
      "chip": "ym2612"
    },
    {
      "channel": 0,
      "note": 47,
      "start": 0.0542,
      "duration": 0.0011,
      "velocity": 120,
      "chip": "ym2612"
    },
    {
      "channel": 1,
      "note": 56,
      "start": 0.0544,
      "duration": 0.001,
      "velocity": 95,
      "chip": "ym2612"
    },
    {
      "channel": 3,
      "note": 47,
      "start": 0.0548,
      "duration": 0.0006,
      "velocity": 95,
      "chip": "ym2612"
    },
    {
      "channel": 4,
      "note": 49,
      "start": 0.0552,
      "duration": 0.0003,
      "velocity": 120,
      "chip": "ym2612"
    },
    {
      "channel": 0,
      "note": 49,
      "start": 0.0559,
      "duration": 0.001,
      "velocity": 120,
      "chip": "ym2612"
    },
    {
      "channel": 1,
      "note": 57,
      "start": 0.0561,
      "duration": 0.0009,
      "velocity": 95,
      "chip": "ym2612"
    },
    {
      "channel": 3,
      "note": 45,
      "start": 0.0565,
      "duration": 0.0004,
      "velocity": 95,
      "chip": "ym2612"
    },
    {
      "channel": 4,
      "note": 47,
      "start": 0.0568,
      "duration": 0.0006,
      "velocity": 120,
      "chip": "ym2612"
    },
    {
      "channel": 3,
      "note": 47,
      "start": 0.0572,
      "duration": 0.0002,
      "velocity": 95,
      "chip": "ym2612"
    },
    {
      "channel": 0,
      "note": 59,
      "start": 0.0578,
      "duration": 0.0021,
      "velocity": 120,
      "chip": "ym2612"
    },
    {
      "channel": 1,
      "note": 54,
      "start": 0.0579,
      "duration": 0.001,
      "velocity": 95,
      "chip": "ym2612"
    },
    {
      "channel": 3,
      "note": 38,
      "start": 0.0583,
      "duration": 0.0012,
      "velocity": 95,
      "chip": "ym2612"
    },
    {
      "channel": 4,
      "note": 49,
      "start": 0.0588,
      "duration": 0.0001,
      "velocity": 120,
      "chip": "ym2612"
    },
    {
      "channel": 1,
      "note": 56,
      "start": 0.0594,
      "duration": 0.0005,
      "velocity": 95,
      "chip": "ym2612"
    },
    {
      "channel": 4,
      "note": 59,
      "start": 0.0597,
      "duration": 0.0022,
      "velocity": 120,
      "chip": "ym2612"
    },
    {
      "channel": 0,
      "note": 49,
      "start": 0.0604,
      "duration": 0.001,
      "velocity": 120,
      "chip": "ym2612"
    },
    {
      "channel": 1,
      "note": 52,
      "start": 0.0605,
      "duration": 0.001,
      "velocity": 95,
      "chip": "ym2612"
    },
    {
      "channel": 2,
      "note": 76,
      "start": 0.0608,
      "duration": 0.0148,
      "velocity": 111,
      "chip": "ym2612"
    },
    {
      "channel": 3,
      "note": 37,
      "start": 0.0612,
      "duration": 0.0005,
      "velocity": 95,
      "chip": "ym2612"
    },
    {
      "channel": 0,
      "note": 47,
      "start": 0.0622,
      "duration": 0.0009,
      "velocity": 120,
      "chip": "ym2612"
    },
    {
      "channel": 1,
      "note": 50,
      "start": 0.0624,
      "duration": 0.0008,
      "velocity": 95,
      "chip": "ym2612"
    },
    {
      "channel": 3,
      "note": 37,
      "start": 0.0628,
      "duration": 0.0005,
      "velocity": 95,
      "chip": "ym2612"
    },
    {
      "channel": 4,
      "note": 49,
      "start": 0.0631,
      "duration": 0.0003,
      "velocity": 120,
      "chip": "ym2612"
    },
    {
      "channel": 0,
      "note": 49,
      "start": 0.0637,
      "duration": 0.0009,
      "velocity": 120,
      "chip": "ym2612"
    },
    {
      "channel": 1,
      "note": 52,
      "start": 0.0639,
      "duration": 0.0008,
      "velocity": 95,
      "chip": "ym2612"
    },
    {
      "channel": 3,
      "note": 37,
      "start": 0.0643,
      "duration": 0.0005,
      "velocity": 95,
      "chip": "ym2612"
    },
    {
      "channel": 4,
      "note": 47,
      "start": 0.0645,
      "duration": 0.0003,
      "velocity": 120,
      "chip": "ym2612"
    },
    {
      "channel": 0,
      "note": 61,
      "start": 0.0651,
      "duration": 0.002,
      "velocity": 120,
      "chip": "ym2612"
    },
    {
      "channel": 1,
      "note": 54,
      "start": 0.0653,
      "duration": 0.0008,
      "velocity": 95,
      "chip": "ym2612"
    },
    {
      "channel": 3,
      "note": 37,
      "start": 0.0657,
      "duration": 0.0004,
      "velocity": 95,
      "chip": "ym2612"
    },
    {
      "channel": 4,
      "note": 49,
      "start": 0.066,
      "duration": 0.0002,
      "velocity": 120,
      "chip": "ym2612"
    },
    {
      "channel": 1,
      "note": 56,
      "start": 0.0665,
      "duration": 0.0008,
      "velocity": 95,
      "chip": "ym2612"
    },
    {
      "channel": 3,
      "note": 37,
      "start": 0.0668,
      "duration": 0.0005,
      "velocity": 95,
      "chip": "ym2612"
    },
    {
      "channel": 4,
      "note": 61,
      "start": 0.0671,
      "duration": 0.0026,
      "velocity": 120,
      "chip": "ym2612"
    },
    {
      "channel": 0,
      "note": 49,
      "start": 0.0677,
      "duration": 0.0012,
      "velocity": 120,
      "chip": "ym2612"
    },
    {
      "channel": 1,
      "note": 57,
      "start": 0.0679,
      "duration": 0.0011,
      "velocity": 95,
      "chip": "ym2612"
    },
    {
      "channel": 3,
      "note": 37,
      "start": 0.0683,
      "duration": 0.0002,
      "velocity": 95,
      "chip": "ym2612"
    },
    {
      "channel": 3,
      "note": 37,
      "start": 0.0689,
      "duration": 0.0002,
      "velocity": 95,
      "chip": "ym2612"
    },
    {
      "channel": 3,
      "note": 37,
      "start": 0.0696,
      "duration": 0.0005,
      "velocity": 95,
      "chip": "ym2612"
    },
    {
      "channel": 0,
      "note": 47,
      "start": 0.0703,
      "duration": 0.0011,
      "velocity": 120,
      "chip": "ym2612"
    },
    {
      "channel": 1,
      "note": 59,
      "start": 0.0706,
      "duration": 0.001,
      "velocity": 95,
      "chip": "ym2612"
    },
    {
      "channel": 3,
      "note": 40,
      "start": 0.0709,
      "duration": 0.0013,
      "velocity": 95,
      "chip": "ym2612"
    },
    {
      "channel": 4,
      "note": 49,
      "start": 0.0713,
      "duration": 0.0003,
      "velocity": 120,
      "chip": "ym2612"
    },
    {
      "channel": 0,
      "note": 49,
      "start": 0.0719,
      "duration": 0.0006,
      "velocity": 120,
      "chip": "ym2612"
    },
    {
      "channel": 1,
      "note": 57,
      "start": 0.0721,
      "duration": 0.0005,
      "velocity": 95,
      "chip": "ym2612"
    },
    {
      "channel": 4,
      "note": 47,
      "start": 0.0724,
      "duration": 0.0003,
      "velocity": 120,
      "chip": "ym2612"
    },
    {
      "channel": 0,
      "note": 59,
      "start": 0.0731,
      "duration": 0.0011,
      "velocity": 120,
      "chip": "ym2612"
    },
    {
      "channel": 1,
      "note": 59,
      "start": 0.0734,
      "duration": 0.0008,
      "velocity": 95,
      "chip": "ym2612"
    },
    {
      "channel": 3,
      "note": 38,
      "start": 0.0737,
      "duration": 0.0013,
      "velocity": 95,
      "chip": "ym2612"
    },
    {
      "channel": 4,
      "note": 49,
      "start": 0.0741,
      "duration": 0.0002,
      "velocity": 120,
      "chip": "ym2612"
    },
    {
      "channel": 0,
      "note": 57,
      "start": 0.0746,
      "duration": 0.0008,
      "velocity": 120,
      "chip": "ym2612"
    },
    {
      "channel": 1,
      "note": 61,
      "start": 0.0749,
      "duration": 0.0005,
      "velocity": 95,
      "chip": "ym2612"
    },
    {
      "channel": 4,
      "note": 59,
      "start": 0.0753,
      "duration": 0.0004,
      "velocity": 120,
      "chip": "ym2612"
    },
    {
      "channel": 0,
      "note": 56,
      "start": 0.0765,
      "duration": 0.0136,
      "velocity": 120,
      "chip": "ym2612"
    },
    {
      "channel": 1,
      "note": 62,
      "start": 0.0768,
      "duration": 0.0025,
      "velocity": 95,
      "chip": "ym2612"
    },
    {
      "channel": 2,
      "note": 74,
      "start": 0.077,
      "duration": 0.0129,
      "velocity": 111,
      "chip": "ym2612"
    },
    {
      "channel": 3,
      "note": 37,
      "start": 0.0774,
      "duration": 0.0024,
      "velocity": 95,
      "chip": "ym2612"
    },
    {
      "channel": 4,
      "note": 57,
      "start": 0.0792,
      "duration": 0.0002,
      "velocity": 120,
      "chip": "ym2612"
    },
    {
      "channel": 1,
      "note": 61,
      "start": 0.0795,
      "duration": 0.001,
      "velocity": 95,
      "chip": "ym2612"
    },
    {
      "channel": 4,
      "note": 56,
      "start": 0.0805,
      "duration": 0.0144,
      "velocity": 120,
      "chip": "ym2612"
    },
    {
      "channel": 1,
      "note": 64,
      "start": 0.0808,
      "duration": 0.0004,
      "velocity": 95,
      "chip": "ym2612"
    },
    {
      "channel": 3,
      "note": 37,
      "start": 0.0811,
      "duration": 0.0005,
      "velocity": 95,
      "chip": "ym2612"
    },
    {
      "channel": 1,
      "note": 62,
      "start": 0.0815,
      "duration": 0.0002,
      "velocity": 95,
      "chip": "ym2612"
    },
    {
      "channel": 1,
      "note": 68,
      "start": 0.0819,
      "duration": 0.0004,
      "velocity": 95,
      "chip": "ym2612"
    },
    {
      "channel": 3,
      "note": 37,
      "start": 0.0822,
      "duration": 0.0007,
      "velocity": 95,
      "chip": "ym2612"
    },
    {
      "channel": 1,
      "note": 64,
      "start": 0.0829,
      "duration": 0.0005,
      "velocity": 95,
      "chip": "ym2612"
    },
    {
      "channel": 1,
      "note": 69,
      "start": 0.0841,
      "duration": 0.0006,
      "velocity": 95,
      "chip": "ym2612"
    },
    {
      "channel": 3,
      "note": 40,
      "start": 0.0844,
      "duration": 0.0004,
      "velocity": 95,
      "chip": "ym2612"
    },
    {
      "channel": 1,
      "note": 66,
      "start": 0.0858,
      "duration": 0.0009,
      "velocity": 95,
      "chip": "ym2612"
    },
    {
      "channel": 3,
      "note": 42,
      "start": 0.0861,
      "duration": 0.0006,
      "velocity": 95,
      "chip": "ym2612"
    },
    {
      "channel": 3,
      "note": 40,
      "start": 0.087,
      "duration": 0.0002,
      "velocity": 95,
      "chip": "ym2612"
    },
    {
      "channel": 1,
      "note": 71,
      "start": 0.0878,
      "duration": 0.0005,
      "velocity": 95,
      "chip": "ym2612"
    },
    {
      "channel": 3,
      "note": 38,
      "start": 0.088,
      "duration": 0.0013,
      "velocity": 95,
      "chip": "ym2612"
    },
    {
      "channel": 1,
      "note": 68,
      "start": 0.0892,
      "duration": 0.0007,
      "velocity": 95,
      "chip": "ym2612"
    },
    {
      "channel": 0,
      "note": 49,
      "start": 0.0909,
      "duration": 0.0026,
      "velocity": 120,
      "chip": "ym2612"
    },
    {
      "channel": 1,
      "note": 61,
      "start": 0.0912,
      "duration": 0.0024,
      "velocity": 95,
      "chip": "ym2612"
    },
    {
      "channel": 2,
      "note": 73,
      "start": 0.0915,
      "duration": 0.0196,
      "velocity": 111,
      "chip": "ym2612"
    },
    {
      "channel": 3,
      "note": 37,
      "start": 0.0918,
      "duration": 0.0018,
      "velocity": 95,
      "chip": "ym2612"
    },
    {
      "channel": 0,
      "note": 47,
      "start": 0.0942,
      "duration": 0.0016,
      "velocity": 120,
      "chip": "ym2612"
    },
    {
      "channel": 1,
      "note": 59,
      "start": 0.0944,
      "duration": 0.0014,
      "velocity": 95,
      "chip": "ym2612"
    },
    {
      "channel": 3,
      "note": 37,
      "start": 0.0948,
      "duration": 0.0011,
      "velocity": 95,
      "chip": "ym2612"
    },
    {
      "channel": 4,
      "note": 49,
      "start": 0.0957,
      "duration": 0.0003,
      "velocity": 120,
      "chip": "ym2612"
    },
    {
      "channel": 0,
      "note": 49,
      "start": 0.0963,
      "duration": 0.0008,
      "velocity": 120,
      "chip": "ym2612"
    },
    {
      "channel": 1,
      "note": 61,
      "start": 0.0965,
      "duration": 0.0007,
      "velocity": 95,
      "chip": "ym2612"
    },
    {
      "channel": 3,
      "note": 37,
      "start": 0.0969,
      "duration": 0.0004,
      "velocity": 95,
      "chip": "ym2612"
    },
    {
      "channel": 4,
      "note": 47,
      "start": 0.0971,
      "duration": 0.0003,
      "velocity": 120,
      "chip": "ym2612"
    },
    {
      "channel": 0,
      "note": 61,
      "start": 0.0978,
      "duration": 0.002,
      "velocity": 120,
      "chip": "ym2612"
    },
    {
      "channel": 1,
      "note": 62,
      "start": 0.098,
      "duration": 0.0007,
      "velocity": 95,
      "chip": "ym2612"
    },
    {
      "channel": 3,
      "note": 37,
      "start": 0.0983,
      "duration": 0.0004,
      "velocity": 95,
      "chip": "ym2612"
    },
    {
      "channel": 4,
      "note": 49,
      "start": 0.0985,
      "duration": 0.0004,
      "velocity": 120,
      "chip": "ym2612"
    },
    {
      "channel": 1,
      "note": 64,
      "start": 0.0992,
      "duration": 0.0007,
      "velocity": 95,
      "chip": "ym2612"
    },
    {
      "channel": 3,
      "note": 37,
      "start": 0.0995,
      "duration": 0.0006,
      "velocity": 95,
      "chip": "ym2612"
    },
    {
      "channel": 4,
      "note": 61,
      "start": 0.0997,
      "duration": 0.0055,
      "velocity": 120,
      "chip": "ym2612"
    },
    {
      "channel": 0,
      "note": 49,
      "start": 0.1005,
      "duration": 0.0039,
      "velocity": 120,
      "chip": "ym2612"
    },
    {
      "channel": 1,
      "note": 66,
      "start": 0.1007,
      "duration": 0.0039,
      "velocity": 95,
      "chip": "ym2612"
    },
    {
      "channel": 3,
      "note": 37,
      "start": 0.1011,
      "duration": 0.0028,
      "velocity": 95,
      "chip": "ym2612"
    },
    {
      "channel": 3,
      "note": 37,
      "start": 0.1042,
      "duration": 0.0005,
      "velocity": 95,
      "chip": "ym2612"
    },
    {
      "channel": 3,
      "note": 37,
      "start": 0.1051,
      "duration": 0.0004,
      "velocity": 95,
      "chip": "ym2612"
    },
    {
      "channel": 0,
      "note": 47,
      "start": 0.1058,
      "duration": 0.0013,
      "velocity": 120,
      "chip": "ym2612"
    },
    {
      "channel": 1,
      "note": 68,
      "start": 0.1059,
      "duration": 0.0013,
      "velocity": 95,
      "chip": "ym2612"
    },
    {
      "channel": 3,
      "note": 40,
      "start": 0.1063,
      "duration": 0.0016,
      "velocity": 95,
      "chip": "ym2612"
    },
    {
      "channel": 4,
      "note": 49,
      "start": 0.1069,
      "duration": 0.0004,
      "velocity": 120,
      "chip": "ym2612"
    },
    {
      "channel": 0,
      "note": 49,
      "start": 0.1076,
      "duration": 0.0007,
      "velocity": 120,
      "chip": "ym2612"
    },
    {
      "channel": 1,
      "note": 64,
      "start": 0.1078,
      "duration": 0.0006,
      "velocity": 95,
      "chip": "ym2612"
    },
    {
      "channel": 4,
      "note": 47,
      "start": 0.1082,
      "duration": 0.0004,
      "velocity": 120,
      "chip": "ym2612"
    },
    {
      "channel": 0,
      "note": 59,
      "start": 0.1089,
      "duration": 0.002,
      "velocity": 120,
      "chip": "ym2612"
    },
    {
      "channel": 1,
      "note": 66,
      "start": 0.1091,
      "duration": 0.0009,
      "velocity": 95,
      "chip": "ym2612"
    },
    {
      "channel": 3,
      "note": 38,
      "start": 0.1095,
      "duration": 0.001,
      "velocity": 95,
      "chip": "ym2612"
    },
    {
      "channel": 4,
      "note": 49,
      "start": 0.11,
      "duration": 0.0002,
      "velocity": 120,
      "chip": "ym2612"
    },
    {
      "channel": 1,
      "note": 62,
      "start": 0.1104,
      "duration": 0.0006,
      "velocity": 95,
      "chip": "ym2612"
    },
    {
      "channel": 4,
      "note": 59,
      "start": 0.1107,
      "duration": 0.0021,
      "velocity": 120,
      "chip": "ym2612"
    },
    {
      "channel": 0,
      "note": 49,
      "start": 0.1115,
      "duration": 0.0011,
      "velocity": 120,
      "chip": "ym2612"
    },
    {
      "channel": 1,
      "note": 61,
      "start": 0.1118,
      "duration": 0.001,
      "velocity": 95,
      "chip": "ym2612"
    },
    {
      "channel": 2,
      "note": 74,
      "start": 0.1121,
      "duration": 0.0143,
      "velocity": 111,
      "chip": "ym2612"
    },
    {
      "channel": 3,
      "note": 37,
      "start": 0.1124,
      "duration": 0.001,
      "velocity": 95,
      "chip": "ym2612"
    },
    {
      "channel": 0,
      "note": 47,
      "start": 0.1131,
      "duration": 0.0007,
      "velocity": 120,
      "chip": "ym2612"
    },
    {
      "channel": 1,
      "note": 59,
      "start": 0.1133,
      "duration": 0.0005,
      "velocity": 95,
      "chip": "ym2612"
    },
    {
      "channel": 4,
      "note": 49,
      "start": 0.1136,
      "duration": 0.0004,
      "velocity": 120,
      "chip": "ym2612"
    },
    {
      "channel": 0,
      "note": 49,
      "start": 0.1144,
      "duration": 0.0009,
      "velocity": 120,
      "chip": "ym2612"
    },
    {
      "channel": 1,
      "note": 61,
      "start": 0.1146,
      "duration": 0.0007,
      "velocity": 95,
      "chip": "ym2612"
    },
    {
      "channel": 3,
      "note": 37,
      "start": 0.115,
      "duration": 0.001,
      "velocity": 95,
      "chip": "ym2612"
    },
    {
      "channel": 4,
      "note": 47,
      "start": 0.1152,
      "duration": 0.0001,
      "velocity": 120,
      "chip": "ym2612"
    },
    {
      "channel": 0,
      "note": 61,
      "start": 0.1156,
      "duration": 0.0018,
      "velocity": 120,
      "chip": "ym2612"
    },
    {
      "channel": 1,
      "note": 62,
      "start": 0.1159,
      "duration": 0.0005,
      "velocity": 95,
      "chip": "ym2612"
    },
    {
      "channel": 4,
      "note": 49,
      "start": 0.1162,
      "duration": 0.0003,
      "velocity": 120,
      "chip": "ym2612"
    },
    {
      "channel": 1,
      "note": 57,
      "start": 0.1168,
      "duration": 0.0007,
      "velocity": 95,
      "chip": "ym2612"
    },
    {
      "channel": 3,
      "note": 37,
      "start": 0.1171,
      "duration": 0.0005,
      "velocity": 95,
      "chip": "ym2612"
    },
    {
      "channel": 4,
      "note": 61,
      "start": 0.1173,
      "duration": 0.0028,
      "velocity": 120,
      "chip": "ym2612"
    },
    {
      "channel": 0,
      "note": 49,
      "start": 0.1179,
      "duration": 0.0016,
      "velocity": 120,
      "chip": "ym2612"
    },
    {
      "channel": 1,
      "note": 59,
      "start": 0.1181,
      "duration": 0.0015,
      "velocity": 95,
      "chip": "ym2612"
    },
    {
      "channel": 3,
      "note": 37,
      "start": 0.1185,
      "duration": 0.0004,
      "velocity": 95,
      "chip": "ym2612"
    },
    {
      "channel": 3,
      "note": 37,
      "start": 0.1192,
      "duration": 0.0005,
      "velocity": 95,
      "chip": "ym2612"
    },
    {
      "channel": 3,
      "note": 37,
      "start": 0.1201,
      "duration": 0.0004,
      "velocity": 95,
      "chip": "ym2612"
    },
    {
      "channel": 0,
      "note": 47,
      "start": 0.1207,
      "duration": 0.001,
      "velocity": 120,
      "chip": "ym2612"
    },
    {
      "channel": 1,
      "note": 56,
      "start": 0.1209,
      "duration": 0.0009,
      "velocity": 95,
      "chip": "ym2612"
    },
    {
      "channel": 3,
      "note": 47,
      "start": 0.1212,
      "duration": 0.0006,
      "velocity": 95,
      "chip": "ym2612"
    },
    {
      "channel": 4,
      "note": 49,
      "start": 0.1217,
      "duration": 0.0003,
      "velocity": 120,
      "chip": "ym2612"
    },
    {
      "channel": 0,
      "note": 49,
      "start": 0.1223,
      "duration": 0.001,
      "velocity": 120,
      "chip": "ym2612"
    },
    {
      "channel": 1,
      "note": 57,
      "start": 0.1225,
      "duration": 0.0009,
      "velocity": 95,
      "chip": "ym2612"
    },
    {
      "channel": 3,
      "note": 45,
      "start": 0.1229,
      "duration": 0.0004,
      "velocity": 95,
      "chip": "ym2612"
    },
    {
      "channel": 4,
      "note": 47,
      "start": 0.1232,
      "duration": 0.0006,
      "velocity": 120,
      "chip": "ym2612"
    },
    {
      "channel": 3,
      "note": 47,
      "start": 0.1237,
      "duration": 0.0002,
      "velocity": 95,
      "chip": "ym2612"
    },
    {
      "channel": 0,
      "note": 59,
      "start": 0.1242,
      "duration": 0.002,
      "velocity": 120,
      "chip": "ym2612"
    },
    {
      "channel": 1,
      "note": 54,
      "start": 0.1244,
      "duration": 0.001,
      "velocity": 95,
      "chip": "ym2612"
    },
    {
      "channel": 3,
      "note": 38,
      "start": 0.1248,
      "duration": 0.0011,
      "velocity": 95,
      "chip": "ym2612"
    },
    {
      "channel": 4,
      "note": 49,
      "start": 0.1253,
      "duration": 0.0002,
      "velocity": 120,
      "chip": "ym2612"
    },
    {
      "channel": 1,
      "note": 56,
      "start": 0.1258,
      "duration": 0.0005,
      "velocity": 95,
      "chip": "ym2612"
    },
    {
      "channel": 4,
      "note": 59,
      "start": 0.1261,
      "duration": 0.0037,
      "velocity": 120,
      "chip": "ym2612"
    },
    {
      "channel": 0,
      "note": 49,
      "start": 0.1267,
      "duration": 0.0027,
      "velocity": 120,
      "chip": "ym2612"
    },
    {
      "channel": 1,
      "note": 52,
      "start": 0.1269,
      "duration": 0.0026,
      "velocity": 95,
      "chip": "ym2612"
    },
    {
      "channel": 2,
      "note": 76,
      "start": 0.1272,
      "duration": 0.0173,
      "velocity": 111,
      "chip": "ym2612"
    },
    {
      "channel": 3,
      "note": 37,
      "start": 0.1276,
      "duration": 0.002,
      "velocity": 95,
      "chip": "ym2612"
    },
    {
      "channel": 0,
      "note": 47,
      "start": 0.13,
      "duration": 0.001,
      "velocity": 120,
      "chip": "ym2612"
    },
    {
      "channel": 1,
      "note": 50,
      "start": 0.1302,
      "duration": 0.0009,
      "velocity": 95,
      "chip": "ym2612"
    },
    {
      "channel": 3,
      "note": 37,
      "start": 0.1306,
      "duration": 0.0006,
      "velocity": 95,
      "chip": "ym2612"
    },
    {
      "channel": 4,
      "note": 49,
      "start": 0.1309,
      "duration": 0.0005,
      "velocity": 120,
      "chip": "ym2612"
    },
    {
      "channel": 0,
      "note": 49,
      "start": 0.1319,
      "duration": 0.0008,
      "velocity": 120,
      "chip": "ym2612"
    },
    {
      "channel": 1,
      "note": 52,
      "start": 0.1321,
      "duration": 0.0007,
      "velocity": 95,
      "chip": "ym2612"
    },
    {
      "channel": 3,
      "note": 37,
      "start": 0.1325,
      "duration": 0.0005,
      "velocity": 95,
      "chip": "ym2612"
    },
    {
      "channel": 4,
      "note": 47,
      "start": 0.1327,
      "duration": 0.0004,
      "velocity": 120,
      "chip": "ym2612"
    },
    {
      "channel": 0,
      "note": 61,
      "start": 0.1334,
      "duration": 0.0021,
      "velocity": 120,
      "chip": "ym2612"
    },
    {
      "channel": 1,
      "note": 54,
      "start": 0.1336,
      "duration": 0.0008,
      "velocity": 95,
      "chip": "ym2612"
    },
    {
      "channel": 3,
      "note": 37,
      "start": 0.1339,
      "duration": 0.0005,
      "velocity": 95,
      "chip": "ym2612"
    },
    {
      "channel": 4,
      "note": 49,
      "start": 0.1343,
      "duration": 0.0004,
      "velocity": 120,
      "chip": "ym2612"
    },
    {
      "channel": 1,
      "note": 56,
      "start": 0.1349,
      "duration": 0.0006,
      "velocity": 95,
      "chip": "ym2612"
    },
    {
      "channel": 3,
      "note": 37,
      "start": 0.1352,
      "duration": 0.0005,
      "velocity": 95,
      "chip": "ym2612"
    },
    {
      "channel": 4,
      "note": 61,
      "start": 0.1354,
      "duration": 0.003,
      "velocity": 120,
      "chip": "ym2612"
    },
    {
      "channel": 0,
      "note": 49,
      "start": 0.1361,
      "duration": 0.0018,
      "velocity": 120,
      "chip": "ym2612"
    },
    {
      "channel": 1,
      "note": 57,
      "start": 0.1363,
      "duration": 0.0016,
      "velocity": 95,
      "chip": "ym2612"
    },
    {
      "channel": 3,
      "note": 37,
      "start": 0.1367,
      "duration": 0.0002,
      "velocity": 95,
      "chip": "ym2612"
    },
    {
      "channel": 3,
      "note": 37,
      "start": 0.1373,
      "duration": 0.0007,
      "velocity": 95,
      "chip": "ym2612"
    },
    {
      "channel": 3,
      "note": 37,
      "start": 0.1383,
      "duration": 0.0003,
      "velocity": 95,
      "chip": "ym2612"
    },
    {
      "channel": 0,
      "note": 47,
      "start": 0.1389,
      "duration": 0.0011,
      "velocity": 120,
      "chip": "ym2612"
    },
    {
      "channel": 1,
      "note": 59,
      "start": 0.1391,
      "duration": 0.0011,
      "velocity": 95,
      "chip": "ym2612"
    },
    {
      "channel": 3,
      "note": 40,
      "start": 0.1395,
      "duration": 0.0014,
      "velocity": 95,
      "chip": "ym2612"
    },
    {
      "channel": 4,
      "note": 49,
      "start": 0.1399,
      "duration": 0.0003,
      "velocity": 120,
      "chip": "ym2612"
    },
    {
      "channel": 0,
      "note": 49,
      "start": 0.1404,
      "duration": 0.0007,
      "velocity": 120,
      "chip": "ym2612"
    },
    {
      "channel": 1,
      "note": 57,
      "start": 0.1407,
      "duration": 0.0006,
      "velocity": 95,
      "chip": "ym2612"
    },
    {
      "channel": 4,
      "note": 47,
      "start": 0.141,
      "duration": 0.0003,
      "velocity": 120,
      "chip": "ym2612"
    },
    {
      "channel": 0,
      "note": 62,
      "start": 0.1417,
      "duration": 0.0014,
      "velocity": 120,
      "chip": "ym2612"
    },
    {
      "channel": 1,
      "note": 59,
      "start": 0.1419,
      "duration": 0.001,
      "velocity": 95,
      "chip": "ym2612"
    },
    {
      "channel": 3,
      "note": 42,
      "start": 0.1423,
      "duration": 0.0017,
      "velocity": 95,
      "chip": "ym2612"
    },
    {
      "channel": 4,
      "note": 49,
      "start": 0.1427,
      "duration": 0.0004,
      "velocity": 120,
      "chip": "ym2612"
    },
    {
      "channel": 0,
      "note": 64,
      "start": 0.1437,
      "duration": 0.0007,
      "velocity": 120,
      "chip": "ym2612"
    },
    {
      "channel": 1,
      "note": 61,
      "start": 0.1438,
      "duration": 0.0005,
      "velocity": 95,
      "chip": "ym2612"
    },
    {
      "channel": 4,
      "note": 62,
      "start": 0.1442,
      "duration": 0.0004,
      "velocity": 120,
      "chip": "ym2612"
    },
    {
      "channel": 0,
      "note": 80,
      "start": 0.1453,
      "duration": 0.004,
      "velocity": 112,
      "chip": "ym2612"
    },
    {
      "channel": 1,
      "note": 62,
      "start": 0.1454,
      "duration": 0.0014,
      "velocity": 95,
      "chip": "ym2612"
    },
    {
      "channel": 2,
      "note": 74,
      "start": 0.1458,
      "duration": 0.0207,
      "velocity": 111,
      "chip": "ym2612"
    },
    {
      "channel": 3,
      "note": 44,
      "start": 0.1462,
      "duration": 0.0011,
      "velocity": 95,
      "chip": "ym2612"
    },
    {
      "channel": 4,
      "note": 64,
      "start": 0.1467,
      "duration": 0.0002,
      "velocity": 120,
      "chip": "ym2612"
    },
    {
      "channel": 1,
      "note": 61,
      "start": 0.1471,
      "duration": 0.001,
      "velocity": 95,
      "chip": "ym2612"
    },
    {
      "channel": 4,
      "note": 80,
      "start": 0.148,
      "duration": 0.0038,
      "velocity": 112,
      "chip": "ym2612"
    },
    {
      "channel": 1,
      "note": 64,
      "start": 0.1484,
      "duration": 0.0004,
      "velocity": 95,
      "chip": "ym2612"
    },
    {
      "channel": 3,
      "note": 44,
      "start": 0.1487,
      "duration": 0.0007,
      "velocity": 95,
      "chip": "ym2612"
    },
    {
      "channel": 1,
      "note": 62,
      "start": 0.1492,
      "duration": 0.001,
      "velocity": 95,
      "chip": "ym2612"
    },
    {
      "channel": 0,
      "note": 80,
      "start": 0.1502,
      "duration": 0.0164,
      "velocity": 101,
      "chip": "ym2612"
    },
    {
      "channel": 1,
      "note": 68,
      "start": 0.1511,
      "duration": 0.0009,
      "velocity": 95,
      "chip": "ym2612"
    },
    {
      "channel": 3,
      "note": 44,
      "start": 0.1515,
      "duration": 0.0006,
      "velocity": 95,
      "chip": "ym2612"
    },
    {
      "channel": 4,
      "note": 80,
      "start": 0.153,
      "duration": 0.0162,
      "velocity": 120,
      "chip": "ym2612"
    },
    {
      "channel": 1,
      "note": 64,
      "start": 0.154,
      "duration": 0.0016,
      "velocity": 95,
      "chip": "ym2612"
    },
    {
      "channel": 3,
      "note": 44,
      "start": 0.1542,
      "duration": 0.0003,
      "velocity": 95,
      "chip": "ym2612"
    },
    {
      "channel": 3,
      "note": 44,
      "start": 0.1553,
      "duration": 0.0004,
      "velocity": 95,
      "chip": "ym2612"
    },
    {
      "channel": 3,
      "note": 44,
      "start": 0.1566,
      "duration": 0.0002,
      "velocity": 95,
      "chip": "ym2612"
    },
    {
      "channel": 1,
      "note": 69,
      "start": 0.1575,
      "duration": 0.001,
      "velocity": 95,
      "chip": "ym2612"
    },
    {
      "channel": 3,
      "note": 40,
      "start": 0.1579,
      "duration": 0.0008,
      "velocity": 95,
      "chip": "ym2612"
    },
    {
      "channel": 1,
      "note": 66,
      "start": 0.16,
      "duration": 0.0011,
      "velocity": 95,
      "chip": "ym2612"
    },
    {
      "channel": 3,
      "note": 42,
      "start": 0.1604,
      "duration": 0.0005,
      "velocity": 95,
      "chip": "ym2612"
    },
    {
      "channel": 3,
      "note": 40,
      "start": 0.1614,
      "duration": 0.0006,
      "velocity": 95,
      "chip": "ym2612"
    },
    {
      "channel": 1,
      "note": 71,
      "start": 0.1628,
      "duration": 0.0011,
      "velocity": 95,
      "chip": "ym2612"
    },
    {
      "channel": 3,
      "note": 38,
      "start": 0.1632,
      "duration": 0.0021,
      "velocity": 95,
      "chip": "ym2612"
    },
    {
      "channel": 1,
      "note": 68,
      "start": 0.1653,
      "duration": 0.0006,
      "velocity": 95,
      "chip": "ym2612"
    },
    {
      "channel": 0,
      "note": 49,
      "start": 0.1676,
      "duration": 0.0035,
      "velocity": 120,
      "chip": "ym2612"
    },
    {
      "channel": 1,
      "note": 61,
      "start": 0.1678,
      "duration": 0.0034,
      "velocity": 95,
      "chip": "ym2612"
    },
    {
      "channel": 2,
      "note": 73,
      "start": 0.1681,
      "duration": 0.0196,
      "velocity": 111,
      "chip": "ym2612"
    },
    {
      "channel": 3,
      "note": 37,
      "start": 0.1685,
      "duration": 0.003,
      "velocity": 95,
      "chip": "ym2612"
    },
    {
      "channel": 4,
      "note": 49,
      "start": 0.1695,
      "duration": 0.0029,
      "velocity": 120,
      "chip": "ym2612"
    },
    {
      "channel": 0,
      "note": 47,
      "start": 0.1717,
      "duration": 0.0008,
      "velocity": 120,
      "chip": "ym2612"
    },
    {
      "channel": 1,
      "note": 59,
      "start": 0.1719,
      "duration": 0.0006,
      "velocity": 95,
      "chip": "ym2612"
    },
    {
      "channel": 3,
      "note": 37,
      "start": 0.1723,
      "duration": 0.0004,
      "velocity": 95,
      "chip": "ym2612"
    },
    {
      "channel": 0,
      "note": 49,
      "start": 0.1731,
      "duration": 0.0008,
      "velocity": 120,
      "chip": "ym2612"
    },
    {
      "channel": 1,
      "note": 61,
      "start": 0.1733,
      "duration": 0.0007,
      "velocity": 95,
      "chip": "ym2612"
    },
    {
      "channel": 3,
      "note": 37,
      "start": 0.1736,
      "duration": 0.0004,
      "velocity": 95,
      "chip": "ym2612"
    },
    {
      "channel": 4,
      "note": 47,
      "start": 0.1738,
      "duration": 0.0003,
      "velocity": 120,
      "chip": "ym2612"
    },
    {
      "channel": 0,
      "note": 61,
      "start": 0.1744,
      "duration": 0.0021,
      "velocity": 120,
      "chip": "ym2612"
    },
    {
      "channel": 1,
      "note": 62,
      "start": 0.1746,
      "duration": 0.0008,
      "velocity": 95,
      "chip": "ym2612"
    },
    {
      "channel": 3,
      "note": 37,
      "start": 0.1749,
      "duration": 0.0006,
      "velocity": 95,
      "chip": "ym2612"
    },
    {
      "channel": 4,
      "note": 49,
      "start": 0.1753,
      "duration": 0.0005,
      "velocity": 120,
      "chip": "ym2612"
    },
    {
      "channel": 1,
      "note": 64,
      "start": 0.1759,
      "duration": 0.0007,
      "velocity": 95,
      "chip": "ym2612"
    },
    {
      "channel": 3,
      "note": 37,
      "start": 0.1763,
      "duration": 0.0004,
      "velocity": 95,
      "chip": "ym2612"
    },
    {
      "channel": 4,
      "note": 61,
      "start": 0.1765,
      "duration": 0.0053,
      "velocity": 120,
      "chip": "ym2612"
    },
    {
      "channel": 0,
      "note": 49,
      "start": 0.1769,
      "duration": 0.0041,
      "velocity": 120,
      "chip": "ym2612"
    },
    {
      "channel": 1,
      "note": 66,
      "start": 0.1771,
      "duration": 0.004,
      "velocity": 95,
      "chip": "ym2612"
    },
    {
      "channel": 3,
      "note": 37,
      "start": 0.1775,
      "duration": 0.0029,
      "velocity": 95,
      "chip": "ym2612"
    },
    {
      "channel": 3,
      "note": 37,
      "start": 0.1807,
      "duration": 0.0005,
      "velocity": 95,
      "chip": "ym2612"
    },
    {
      "channel": 3,
      "note": 37,
      "start": 0.1817,
      "duration": 0.0005,
      "velocity": 95,
      "chip": "ym2612"
    },
    {
      "channel": 0,
      "note": 47,
      "start": 0.1824,
      "duration": 0.0012,
      "velocity": 120,
      "chip": "ym2612"
    },
    {
      "channel": 1,
      "note": 68,
      "start": 0.1826,
      "duration": 0.001,
      "velocity": 95,
      "chip": "ym2612"
    },
    {
      "channel": 3,
      "note": 40,
      "start": 0.183,
      "duration": 0.0015,
      "velocity": 95,
      "chip": "ym2612"
    },
    {
      "channel": 4,
      "note": 49,
      "start": 0.1835,
      "duration": 0.0004,
      "velocity": 120,
      "chip": "ym2612"
    },
    {
      "channel": 0,
      "note": 49,
      "start": 0.1841,
      "duration": 0.0007,
      "velocity": 120,
      "chip": "ym2612"
    },
    {
      "channel": 1,
      "note": 64,
      "start": 0.1844,
      "duration": 0.0005,
      "velocity": 95,
      "chip": "ym2612"
    },
    {
      "channel": 4,
      "note": 47,
      "start": 0.1847,
      "duration": 0.0003,
      "velocity": 120,
      "chip": "ym2612"
    },
    {
      "channel": 0,
      "note": 59,
      "start": 0.1854,
      "duration": 0.0022,
      "velocity": 120,
      "chip": "ym2612"
    },
    {
      "channel": 1,
      "note": 66,
      "start": 0.1856,
      "duration": 0.001,
      "velocity": 95,
      "chip": "ym2612"
    },
    {
      "channel": 3,
      "note": 38,
      "start": 0.186,
      "duration": 0.0012,
      "velocity": 95,
      "chip": "ym2612"
    },
    {
      "channel": 4,
      "note": 49,
      "start": 0.1863,
      "duration": 0.0005,
      "velocity": 120,
      "chip": "ym2612"
    },
    {
      "channel": 1,
      "note": 62,
      "start": 0.187,
      "duration": 0.0006,
      "velocity": 95,
      "chip": "ym2612"
    },
    {
      "channel": 4,
      "note": 59,
      "start": 0.1874,
      "duration": 0.0035,
      "velocity": 120,
      "chip": "ym2612"
    },
    {
      "channel": 0,
      "note": 49,
      "start": 0.188,
      "duration": 0.0027,
      "velocity": 120,
      "chip": "ym2612"
    },
    {
      "channel": 1,
      "note": 61,
      "start": 0.1883,
      "duration": 0.0025,
      "velocity": 95,
      "chip": "ym2612"
    },
    {
      "channel": 2,
      "note": 74,
      "start": 0.1886,
      "duration": 0.0159,
      "velocity": 111,
      "chip": "ym2612"
    },
    {
      "channel": 3,
      "note": 37,
      "start": 0.1889,
      "duration": 0.0026,
      "velocity": 95,
      "chip": "ym2612"
    },
    {
      "channel": 0,
      "note": 47,
      "start": 0.1912,
      "duration": 0.0007,
      "velocity": 120,
      "chip": "ym2612"
    },
    {
      "channel": 1,
      "note": 59,
      "start": 0.1915,
      "duration": 0.0006,
      "velocity": 95,
      "chip": "ym2612"
    },
    {
      "channel": 4,
      "note": 49,
      "start": 0.1919,
      "duration": 0.0003,
      "velocity": 120,
      "chip": "ym2612"
    },
    {
      "channel": 0,
      "note": 49,
      "start": 0.1925,
      "duration": 0.0009,
      "velocity": 120,
      "chip": "ym2612"
    },
    {
      "channel": 1,
      "note": 61,
      "start": 0.1927,
      "duration": 0.0008,
      "velocity": 95,
      "chip": "ym2612"
    },
    {
      "channel": 3,
      "note": 37,
      "start": 0.193,
      "duration": 0.0013,
      "velocity": 95,
      "chip": "ym2612"
    },
    {
      "channel": 4,
      "note": 47,
      "start": 0.1933,
      "duration": 0.0004,
      "velocity": 120,
      "chip": "ym2612"
    },
    {
      "channel": 0,
      "note": 61,
      "start": 0.194,
      "duration": 0.0017,
      "velocity": 120,
      "chip": "ym2612"
    },
    {
      "channel": 1,
      "note": 62,
      "start": 0.1942,
      "duration": 0.0003,
      "velocity": 95,
      "chip": "ym2612"
    },
    {
      "channel": 4,
      "note": 49,
      "start": 0.1946,
      "duration": 0.0002,
      "velocity": 120,
      "chip": "ym2612"
    },
    {
      "channel": 1,
      "note": 57,
      "start": 0.195,
      "duration": 0.0008,
      "velocity": 95,
      "chip": "ym2612"
    },
    {
      "channel": 3,
      "note": 37,
      "start": 0.1954,
      "duration": 0.0005,
      "velocity": 95,
      "chip": "ym2612"
    },
    {
      "channel": 4,
      "note": 61,
      "start": 0.1956,
      "duration": 0.0027,
      "velocity": 120,
      "chip": "ym2612"
    },
    {
      "channel": 0,
      "note": 49,
      "start": 0.1963,
      "duration": 0.0015,
      "velocity": 120,
      "chip": "ym2612"
    },
    {
      "channel": 1,
      "note": 59,
      "start": 0.1966,
      "duration": 0.0013,
      "velocity": 95,
      "chip": "ym2612"
    },
    {
      "channel": 3,
      "note": 37,
      "start": 0.1968,
      "duration": 0.0002,
      "velocity": 95,
      "chip": "ym2612"
    },
    {
      "channel": 3,
      "note": 37,
      "start": 0.1975,
      "duration": 0.0004,
      "velocity": 95,
      "chip": "ym2612"
    },
    {
      "channel": 3,
      "note": 37,
      "start": 0.1982,
      "duration": 0.0003,
      "velocity": 95,
      "chip": "ym2612"
    },
    {
      "channel": 0,
      "note": 47,
      "start": 0.1988,
      "duration": 0.0012,
      "velocity": 120,
      "chip": "ym2612"
    },
    {
      "channel": 1,
      "note": 56,
      "start": 0.199,
      "duration": 0.0009,
      "velocity": 95,
      "chip": "ym2612"
    },
    {
      "channel": 3,
      "note": 47,
      "start": 0.1994,
      "duration": 0.0006,
      "velocity": 95,
      "chip": "ym2612"
    },
    {
      "channel": 4,
      "note": 49,
      "start": 0.1997,
      "duration": 0.0004,
      "velocity": 120,
      "chip": "ym2612"
    },
    {
      "channel": 0,
      "note": 49,
      "start": 0.2004,
      "duration": 0.0011,
      "velocity": 120,
      "chip": "ym2612"
    },
    {
      "channel": 1,
      "note": 57,
      "start": 0.2007,
      "duration": 0.0009,
      "velocity": 95,
      "chip": "ym2612"
    },
    {
      "channel": 3,
      "note": 45,
      "start": 0.2011,
      "duration": 0.0004,
      "velocity": 95,
      "chip": "ym2612"
    },
    {
      "channel": 4,
      "note": 47,
      "start": 0.2014,
      "duration": 0.0005,
      "velocity": 120,
      "chip": "ym2612"
    },
    {
      "channel": 3,
      "note": 47,
      "start": 0.2018,
      "duration": 0.0001,
      "velocity": 95,
      "chip": "ym2612"
    },
    {
      "channel": 0,
      "note": 59,
      "start": 0.2022,
      "duration": 0.0021,
      "velocity": 120,
      "chip": "ym2612"
    },
    {
      "channel": 1,
      "note": 54,
      "start": 0.2024,
      "duration": 0.0009,
      "velocity": 95,
      "chip": "ym2612"
    },
    {
      "channel": 3,
      "note": 38,
      "start": 0.2028,
      "duration": 0.0012,
      "velocity": 95,
      "chip": "ym2612"
    },
    {
      "channel": 4,
      "note": 49,
      "start": 0.2032,
      "duration": 0.0003,
      "velocity": 120,
      "chip": "ym2612"
    },
    {
      "channel": 1,
      "note": 56,
      "start": 0.2039,
      "duration": 0.0005,
      "velocity": 95,
      "chip": "ym2612"
    },
    {
      "channel": 4,
      "note": 59,
      "start": 0.2042,
      "duration": 0.0035,
      "velocity": 120,
      "chip": "ym2612"
    },
    {
      "channel": 0,
      "note": 49,
      "start": 0.2048,
      "duration": 0.0025,
      "velocity": 120,
      "chip": "ym2612"
    },
    {
      "channel": 1,
      "note": 52,
      "start": 0.2051,
      "duration": 0.0023,
      "velocity": 95,
      "chip": "ym2612"
    },
    {
      "channel": 2,
      "note": 76,
      "start": 0.2053,
      "duration": 0.017,
      "velocity": 111,
      "chip": "ym2612"
    },
    {
      "channel": 3,
      "note": 37,
      "start": 0.2056,
      "duration": 0.0018,
      "velocity": 95,
      "chip": "ym2612"
    },
    {
      "channel": 0,
      "note": 47,
      "start": 0.2081,
      "duration": 0.001,
      "velocity": 120,
      "chip": "ym2612"
    },
    {
      "channel": 1,
      "note": 50,
      "start": 0.2083,
      "duration": 0.0009,
      "velocity": 95,
      "chip": "ym2612"
    },
    {
      "channel": 3,
      "note": 37,
      "start": 0.2087,
      "duration": 0.0005,
      "velocity": 95,
      "chip": "ym2612"
    },
    {
      "channel": 4,
      "note": 49,
      "start": 0.209,
      "duration": 0.0003,
      "velocity": 120,
      "chip": "ym2612"
    },
    {
      "channel": 0,
      "note": 49,
      "start": 0.2096,
      "duration": 0.0009,
      "velocity": 120,
      "chip": "ym2612"
    },
    {
      "channel": 1,
      "note": 52,
      "start": 0.2098,
      "duration": 0.0009,
      "velocity": 95,
      "chip": "ym2612"
    },
    {
      "channel": 3,
      "note": 37,
      "start": 0.2102,
      "duration": 0.0006,
      "velocity": 95,
      "chip": "ym2612"
    },
    {
      "channel": 4,
      "note": 47,
      "start": 0.2105,
      "duration": 0.0005,
      "velocity": 120,
      "chip": "ym2612"
    },
    {
      "channel": 0,
      "note": 61,
      "start": 0.2113,
      "duration": 0.0024,
      "velocity": 120,
      "chip": "ym2612"
    },
    {
      "channel": 1,
      "note": 54,
      "start": 0.2115,
      "duration": 0.0008,
      "velocity": 95,
      "chip": "ym2612"
    },
    {
      "channel": 3,
      "note": 37,
      "start": 0.2119,
      "duration": 0.0005,
      "velocity": 95,
      "chip": "ym2612"
    },
    {
      "channel": 4,
      "note": 49,
      "start": 0.2122,
      "duration": 0.0003,
      "velocity": 120,
      "chip": "ym2612"
    },
    {
      "channel": 1,
      "note": 56,
      "start": 0.2129,
      "duration": 0.0008,
      "velocity": 95,
      "chip": "ym2612"
    },
    {
      "channel": 3,
      "note": 37,
      "start": 0.2131,
      "duration": 0.0007,
      "velocity": 95,
      "chip": "ym2612"
    },
    {
      "channel": 4,
      "note": 61,
      "start": 0.2135,
      "duration": 0.0028,
      "velocity": 120,
      "chip": "ym2612"
    },
    {
      "channel": 0,
      "note": 49,
      "start": 0.2142,
      "duration": 0.0014,
      "velocity": 120,
      "chip": "ym2612"
    },
    {
      "channel": 1,
      "note": 57,
      "start": 0.2144,
      "duration": 0.0013,
      "velocity": 95,
      "chip": "ym2612"
    },
    {
      "channel": 3,
      "note": 37,
      "start": 0.2147,
      "duration": 0.0003,
      "velocity": 95,
      "chip": "ym2612"
    },
    {
      "channel": 3,
      "note": 37,
      "start": 0.2153,
      "duration": 0.0005,
      "velocity": 95,
      "chip": "ym2612"
    },
    {
      "channel": 3,
      "note": 37,
      "start": 0.2161,
      "duration": 0.0003,
      "velocity": 95,
      "chip": "ym2612"
    },
    {
      "channel": 0,
      "note": 47,
      "start": 0.2169,
      "duration": 0.0012,
      "velocity": 120,
      "chip": "ym2612"
    },
    {
      "channel": 1,
      "note": 59,
      "start": 0.2171,
      "duration": 0.0011,
      "velocity": 95,
      "chip": "ym2612"
    },
    {
      "channel": 3,
      "note": 40,
      "start": 0.2175,
      "duration": 0.0014,
      "velocity": 95,
      "chip": "ym2612"
    },
    {
      "channel": 4,
      "note": 49,
      "start": 0.218,
      "duration": 0.0003,
      "velocity": 120,
      "chip": "ym2612"
    },
    {
      "channel": 0,
      "note": 49,
      "start": 0.2185,
      "duration": 0.0006,
      "velocity": 120,
      "chip": "ym2612"
    },
    {
      "channel": 1,
      "note": 57,
      "start": 0.2187,
      "duration": 0.0005,
      "velocity": 95,
      "chip": "ym2612"
    },
    {
      "channel": 4,
      "note": 47,
      "start": 0.2191,
      "duration": 0.0003,
      "velocity": 120,
      "chip": "ym2612"
    },
    {
      "channel": 0,
      "note": 59,
      "start": 0.2198,
      "duration": 0.0013,
      "velocity": 120,
      "chip": "ym2612"
    },
    {
      "channel": 1,
      "note": 59,
      "start": 0.2199,
      "duration": 0.001,
      "velocity": 95,
      "chip": "ym2612"
    },
    {
      "channel": 3,
      "note": 38,
      "start": 0.2203,
      "duration": 0.0015,
      "velocity": 95,
      "chip": "ym2612"
    },
    {
      "channel": 4,
      "note": 49,
      "start": 0.2208,
      "duration": 0.0004,
      "velocity": 120,
      "chip": "ym2612"
    },
    {
      "channel": 0,
      "note": 57,
      "start": 0.2214,
      "duration": 0.0009,
      "velocity": 120,
      "chip": "ym2612"
    },
    {
      "channel": 1,
      "note": 61,
      "start": 0.2216,
      "duration": 0.0006,
      "velocity": 95,
      "chip": "ym2612"
    },
    {
      "channel": 4,
      "note": 59,
      "start": 0.222,
      "duration": 0.0004,
      "velocity": 120,
      "chip": "ym2612"
    },
    {
      "channel": 0,
      "note": 56,
      "start": 0.2231,
      "duration": 0.0124,
      "velocity": 120,
      "chip": "ym2612"
    },
    {
      "channel": 1,
      "note": 62,
      "start": 0.2233,
      "duration": 0.0012,
      "velocity": 95,
      "chip": "ym2612"
    },
    {
      "channel": 2,
      "note": 74,
      "start": 0.2236,
      "duration": 0.0117,
      "velocity": 111,
      "chip": "ym2612"
    },
    {
      "channel": 3,
      "note": 37,
      "start": 0.2239,
      "duration": 0.0012,
      "velocity": 95,
      "chip": "ym2612"
    },
    {
      "channel": 4,
      "note": 57,
      "start": 0.2244,
      "duration": 0.0002,
      "velocity": 120,
      "chip": "ym2612"
    },
    {
      "channel": 1,
      "note": 61,
      "start": 0.2249,
      "duration": 0.0011,
      "velocity": 95,
      "chip": "ym2612"
    },
    {
      "channel": 4,
      "note": 56,
      "start": 0.2259,
      "duration": 0.013,
      "velocity": 120,
      "chip": "ym2612"
    },
    {
      "channel": 1,
      "note": 64,
      "start": 0.2263,
      "duration": 0.0004,
      "velocity": 95,
      "chip": "ym2612"
    },
    {
      "channel": 3,
      "note": 37,
      "start": 0.2267,
      "duration": 0.0005,
      "velocity": 95,
      "chip": "ym2612"
    },
    {
      "channel": 1,
      "note": 62,
      "start": 0.2271,
      "duration": 0.0002,
      "velocity": 95,
      "chip": "ym2612"
    },
    {
      "channel": 1,
      "note": 68,
      "start": 0.2275,
      "duration": 0.0004,
      "velocity": 95,
      "chip": "ym2612"
    },
    {
      "channel": 3,
      "note": 37,
      "start": 0.2279,
      "duration": 0.0007,
      "velocity": 95,
      "chip": "ym2612"
    },
    {
      "channel": 1,
      "note": 64,
      "start": 0.2285,
      "duration": 0.0004,
      "velocity": 95,
      "chip": "ym2612"
    },
    {
      "channel": 1,
      "note": 69,
      "start": 0.2296,
      "duration": 0.0007,
      "velocity": 95,
      "chip": "ym2612"
    },
    {
      "channel": 3,
      "note": 40,
      "start": 0.2299,
      "duration": 0.0004,
      "velocity": 95,
      "chip": "ym2612"
    },
    {
      "channel": 1,
      "note": 66,
      "start": 0.231,
      "duration": 0.0009,
      "velocity": 95,
      "chip": "ym2612"
    },
    {
      "channel": 3,
      "note": 42,
      "start": 0.2313,
      "duration": 0.0006,
      "velocity": 95,
      "chip": "ym2612"
    },
    {
      "channel": 3,
      "note": 40,
      "start": 0.2323,
      "duration": 0.0002,
      "velocity": 95,
      "chip": "ym2612"
    },
    {
      "channel": 1,
      "note": 71,
      "start": 0.2331,
      "duration": 0.0006,
      "velocity": 95,
      "chip": "ym2612"
    },
    {
      "channel": 3,
      "note": 38,
      "start": 0.2334,
      "duration": 0.0012,
      "velocity": 95,
      "chip": "ym2612"
    },
    {
      "channel": 1,
      "note": 68,
      "start": 0.2344,
      "duration": 0.0007,
      "velocity": 95,
      "chip": "ym2612"
    },
    {
      "channel": 0,
      "note": 49,
      "start": 0.2365,
      "duration": 0.0013,
      "velocity": 120,
      "chip": "ym2612"
    },
    {
      "channel": 1,
      "note": 61,
      "start": 0.2368,
      "duration": 0.001,
      "velocity": 95,
      "chip": "ym2612"
    },
    {
      "channel": 2,
      "note": 73,
      "start": 0.2371,
      "duration": 0.0173,
      "velocity": 111,
      "chip": "ym2612"
    },
    {
      "channel": 3,
      "note": 37,
      "start": 0.2375,
      "duration": 0.0003,
      "velocity": 95,
      "chip": "ym2612"
    },
    {
      "channel": 0,
      "note": 47,
      "start": 0.2383,
      "duration": 0.0015,
      "velocity": 120,
      "chip": "ym2612"
    },
    {
      "channel": 1,
      "note": 59,
      "start": 0.2385,
      "duration": 0.0014,
      "velocity": 95,
      "chip": "ym2612"
    },
    {
      "channel": 3,
      "note": 37,
      "start": 0.2388,
      "duration": 0.0011,
      "velocity": 95,
      "chip": "ym2612"
    },
    {
      "channel": 4,
      "note": 49,
      "start": 0.2397,
      "duration": 0.0003,
      "velocity": 120,
      "chip": "ym2612"
    },
    {
      "channel": 0,
      "note": 49,
      "start": 0.2403,
      "duration": 0.001,
      "velocity": 120,
      "chip": "ym2612"
    },
    {
      "channel": 1,
      "note": 61,
      "start": 0.2405,
      "duration": 0.0009,
      "velocity": 95,
      "chip": "ym2612"
    },
    {
      "channel": 3,
      "note": 37,
      "start": 0.2409,
      "duration": 0.0006,
      "velocity": 95,
      "chip": "ym2612"
    },
    {
      "channel": 4,
      "note": 47,
      "start": 0.2412,
      "duration": 0.0004,
      "velocity": 120,
      "chip": "ym2612"
    },
    {
      "channel": 0,
      "note": 61,
      "start": 0.2421,
      "duration": 0.0022,
      "velocity": 120,
      "chip": "ym2612"
    },
    {
      "channel": 1,
      "note": 62,
      "start": 0.2423,
      "duration": 0.0008,
      "velocity": 95,
      "chip": "ym2612"
    },
    {
      "channel": 3,
      "note": 37,
      "start": 0.2427,
      "duration": 0.0006,
      "velocity": 95,
      "chip": "ym2612"
    },
    {
      "channel": 4,
      "note": 49,
      "start": 0.243,
      "duration": 0.0004,
      "velocity": 120,
      "chip": "ym2612"
    },
    {
      "channel": 1,
      "note": 64,
      "start": 0.2437,
      "duration": 0.0007,
      "velocity": 95,
      "chip": "ym2612"
    },
    {
      "channel": 3,
      "note": 37,
      "start": 0.244,
      "duration": 0.0005,
      "velocity": 95,
      "chip": "ym2612"
    },
    {
      "channel": 4,
      "note": 61,
      "start": 0.2442,
      "duration": 0.0046,
      "velocity": 120,
      "chip": "ym2612"
    },
    {
      "channel": 0,
      "note": 49,
      "start": 0.2449,
      "duration": 0.0033,
      "velocity": 120,
      "chip": "ym2612"
    },
    {
      "channel": 1,
      "note": 66,
      "start": 0.2451,
      "duration": 0.0032,
      "velocity": 95,
      "chip": "ym2612"
    },
    {
      "channel": 3,
      "note": 37,
      "start": 0.2454,
      "duration": 0.0022,
      "velocity": 95,
      "chip": "ym2612"
    },
    {
      "channel": 3,
      "note": 37,
      "start": 0.2479,
      "duration": 0.0004,
      "velocity": 95,
      "chip": "ym2612"
    },
    {
      "channel": 3,
      "note": 37,
      "start": 0.2487,
      "duration": 0.0003,
      "velocity": 95,
      "chip": "ym2612"
    },
    {
      "channel": 0,
      "note": 47,
      "start": 0.2493,
      "duration": 0.0012,
      "velocity": 120,
      "chip": "ym2612"
    },
    {
      "channel": 1,
      "note": 68,
      "start": 0.2495,
      "duration": 0.001,
      "velocity": 95,
      "chip": "ym2612"
    },
    {
      "channel": 3,
      "note": 40,
      "start": 0.2499,
      "duration": 0.0014,
      "velocity": 95,
      "chip": "ym2612"
    },
    {
      "channel": 4,
      "note": 49,
      "start": 0.2503,
      "duration": 0.0003,
      "velocity": 120,
      "chip": "ym2612"
    },
    {
      "channel": 0,
      "note": 49,
      "start": 0.2509,
      "duration": 0.0007,
      "velocity": 120,
      "chip": "ym2612"
    },
    {
      "channel": 1,
      "note": 64,
      "start": 0.2512,
      "duration": 0.0006,
      "velocity": 95,
      "chip": "ym2612"
    },
    {
      "channel": 4,
      "note": 47,
      "start": 0.2515,
      "duration": 0.0003,
      "velocity": 120,
      "chip": "ym2612"
    },
    {
      "channel": 0,
      "note": 59,
      "start": 0.2522,
      "duration": 0.002,
      "velocity": 120,
      "chip": "ym2612"
    },
    {
      "channel": 1,
      "note": 66,
      "start": 0.2525,
      "duration": 0.0009,
      "velocity": 95,
      "chip": "ym2612"
    },
    {
      "channel": 3,
      "note": 38,
      "start": 0.2529,
      "duration": 0.001,
      "velocity": 95,
      "chip": "ym2612"
    },
    {
      "channel": 4,
      "note": 49,
      "start": 0.2533,
      "duration": 0.0002,
      "velocity": 120,
      "chip": "ym2612"
    },
    {
      "channel": 1,
      "note": 62,
      "start": 0.2538,
      "duration": 0.0005,
      "velocity": 95,
      "chip": "ym2612"
    },
    {
      "channel": 4,
      "note": 59,
      "start": 0.2541,
      "duration": 0.0037,
      "velocity": 120,
      "chip": "ym2612"
    },
    {
      "channel": 0,
      "note": 49,
      "start": 0.2548,
      "duration": 0.0027,
      "velocity": 120,
      "chip": "ym2612"
    },
    {
      "channel": 1,
      "note": 61,
      "start": 0.255,
      "duration": 0.0026,
      "velocity": 95,
      "chip": "ym2612"
    },
    {
      "channel": 2,
      "note": 74,
      "start": 0.2554,
      "duration": 0.0188,
      "velocity": 111,
      "chip": "ym2612"
    },
    {
      "channel": 3,
      "note": 37,
      "start": 0.2557,
      "duration": 0.0027,
      "velocity": 95,
      "chip": "ym2612"
    },
    {
      "channel": 0,
      "note": 47,
      "start": 0.258,
      "duration": 0.0007,
      "velocity": 120,
      "chip": "ym2612"
    },
    {
      "channel": 1,
      "note": 59,
      "start": 0.2583,
      "duration": 0.0005,
      "velocity": 95,
      "chip": "ym2612"
    },
    {
      "channel": 4,
      "note": 49,
      "start": 0.2586,
      "duration": 0.0003,
      "velocity": 120,
      "chip": "ym2612"
    },
    {
      "channel": 0,
      "note": 49,
      "start": 0.2593,
      "duration": 0.0009,
      "velocity": 120,
      "chip": "ym2612"
    },
    {
      "channel": 1,
      "note": 61,
      "start": 0.2595,
      "duration": 0.0008,
      "velocity": 95,
      "chip": "ym2612"
    },
    {
      "channel": 3,
      "note": 37,
      "start": 0.2599,
      "duration": 0.0011,
      "velocity": 95,
      "chip": "ym2612"
    },
    {
      "channel": 4,
      "note": 47,
      "start": 0.2601,
      "duration": 0.0002,
      "velocity": 120,
      "chip": "ym2612"
    },
    {
      "channel": 0,
      "note": 61,
      "start": 0.2606,
      "duration": 0.002,
      "velocity": 120,
      "chip": "ym2612"
    },
    {
      "channel": 1,
      "note": 62,
      "start": 0.2609,
      "duration": 0.0006,
      "velocity": 95,
      "chip": "ym2612"
    },
    {
      "channel": 4,
      "note": 49,
      "start": 0.2612,
      "duration": 0.0003,
      "velocity": 120,
      "chip": "ym2612"
    },
    {
      "channel": 1,
      "note": 57,
      "start": 0.2619,
      "duration": 0.0007,
      "velocity": 95,
      "chip": "ym2612"
    },
    {
      "channel": 3,
      "note": 37,
      "start": 0.2622,
      "duration": 0.0005,
      "velocity": 95,
      "chip": "ym2612"
    },
    {
      "channel": 4,
      "note": 61,
      "start": 0.2624,
      "duration": 0.0051,
      "velocity": 120,
      "chip": "ym2612"
    },
    {
      "channel": 0,
      "note": 49,
      "start": 0.2629,
      "duration": 0.0041,
      "velocity": 120,
      "chip": "ym2612"
    },
    {
      "channel": 1,
      "note": 59,
      "start": 0.2631,
      "duration": 0.0039,
      "velocity": 95,
      "chip": "ym2612"
    },
    {
      "channel": 3,
      "note": 37,
      "start": 0.2634,
      "duration": 0.0029,
      "velocity": 95,
      "chip": "ym2612"
    },
    {
      "channel": 3,
      "note": 37,
      "start": 0.2668,
      "duration": 0.0003,
      "velocity": 95,
      "chip": "ym2612"
    },
    {
      "channel": 3,
      "note": 37,
      "start": 0.2674,
      "duration": 0.0004,
      "velocity": 95,
      "chip": "ym2612"
    },
    {
      "channel": 0,
      "note": 47,
      "start": 0.268,
      "duration": 0.0012,
      "velocity": 120,
      "chip": "ym2612"
    },
    {
      "channel": 1,
      "note": 56,
      "start": 0.2682,
      "duration": 0.0011,
      "velocity": 95,
      "chip": "ym2612"
    },
    {
      "channel": 3,
      "note": 47,
      "start": 0.2686,
      "duration": 0.0007,
      "velocity": 95,
      "chip": "ym2612"
    },
    {
      "channel": 4,
      "note": 49,
      "start": 0.2692,
      "duration": 0.0003,
      "velocity": 120,
      "chip": "ym2612"
    },
    {
      "channel": 0,
      "note": 49,
      "start": 0.2698,
      "duration": 0.001,
      "velocity": 120,
      "chip": "ym2612"
    },
    {
      "channel": 1,
      "note": 57,
      "start": 0.27,
      "duration": 0.0009,
      "velocity": 95,
      "chip": "ym2612"
    },
    {
      "channel": 3,
      "note": 45,
      "start": 0.2704,
      "duration": 0.0003,
      "velocity": 95,
      "chip": "ym2612"
    },
    {
      "channel": 4,
      "note": 47,
      "start": 0.2705,
      "duration": 0.0008,
      "velocity": 120,
      "chip": "ym2612"
    },
    {
      "channel": 3,
      "note": 47,
      "start": 0.2712,
      "duration": 0.0002,
      "velocity": 95,
      "chip": "ym2612"
    },
    {
      "channel": 0,
      "note": 59,
      "start": 0.2718,
      "duration": 0.0022,
      "velocity": 120,
      "chip": "ym2612"
    },
    {
      "channel": 1,
      "note": 54,
      "start": 0.272,
      "duration": 0.0008,
      "velocity": 95,
      "chip": "ym2612"
    },
    {
      "channel": 3,
      "note": 38,
      "start": 0.2723,
      "duration": 0.0014,
      "velocity": 95,
      "chip": "ym2612"
    },
    {
      "channel": 4,
      "note": 49,
      "start": 0.2727,
      "duration": 0.0002,
      "velocity": 120,
      "chip": "ym2612"
    },
    {
      "channel": 1,
      "note": 56,
      "start": 0.2736,
      "duration": 0.0005,
      "velocity": 95,
      "chip": "ym2612"
    },
    {
      "channel": 4,
      "note": 59,
      "start": 0.2739,
      "duration": 0.002,
      "velocity": 120,
      "chip": "ym2612"
    },
    {
      "channel": 0,
      "note": 49,
      "start": 0.2744,
      "duration": 0.0013,
      "velocity": 120,
      "chip": "ym2612"
    },
    {
      "channel": 1,
      "note": 52,
      "start": 0.2747,
      "duration": 0.0011,
      "velocity": 95,
      "chip": "ym2612"
    },
    {
      "channel": 2,
      "note": 76,
      "start": 0.275,
      "duration": 0.0154,
      "velocity": 111,
      "chip": "ym2612"
    },
    {
      "channel": 3,
      "note": 37,
      "start": 0.2754,
      "duration": 0.0005,
      "velocity": 95,
      "chip": "ym2612"
    },
    {
      "channel": 0,
      "note": 47,
      "start": 0.2762,
      "duration": 0.001,
      "velocity": 120,
      "chip": "ym2612"
    },
    {
      "channel": 1,
      "note": 50,
      "start": 0.2765,
      "duration": 0.0009,
      "velocity": 95,
      "chip": "ym2612"
    },
    {
      "channel": 3,
      "note": 37,
      "start": 0.2769,
      "duration": 0.0005,
      "velocity": 95,
      "chip": "ym2612"
    },
    {
      "channel": 4,
      "note": 49,
      "start": 0.2771,
      "duration": 0.0004,
      "velocity": 120,
      "chip": "ym2612"
    },
    {
      "channel": 0,
      "note": 49,
      "start": 0.2779,
      "duration": 0.001,
      "velocity": 120,
      "chip": "ym2612"
    },
    {
      "channel": 1,
      "note": 52,
      "start": 0.2782,
      "duration": 0.0009,
      "velocity": 95,
      "chip": "ym2612"
    },
    {
      "channel": 3,
      "note": 37,
      "start": 0.2785,
      "duration": 0.0006,
      "velocity": 95,
      "chip": "ym2612"
    },
    {
      "channel": 4,
      "note": 47,
      "start": 0.2789,
      "duration": 0.0004,
      "velocity": 120,
      "chip": "ym2612"
    },
    {
      "channel": 0,
      "note": 61,
      "start": 0.2795,
      "duration": 0.002,
      "velocity": 120,
      "chip": "ym2612"
    },
    {
      "channel": 1,
      "note": 54,
      "start": 0.2798,
      "duration": 0.0007,
      "velocity": 95,
      "chip": "ym2612"
    },
    {
      "channel": 3,
      "note": 37,
      "start": 0.2801,
      "duration": 0.0005,
      "velocity": 95,
      "chip": "ym2612"
    },
    {
      "channel": 4,
      "note": 49,
      "start": 0.2803,
      "duration": 0.0003,
      "velocity": 120,
      "chip": "ym2612"
    },
    {
      "channel": 1,
      "note": 56,
      "start": 0.2809,
      "duration": 0.0007,
      "velocity": 95,
      "chip": "ym2612"
    },
    {
      "channel": 3,
      "note": 37,
      "start": 0.2812,
      "duration": 0.0005,
      "velocity": 95,
      "chip": "ym2612"
    },
    {
      "channel": 4,
      "note": 61,
      "start": 0.2814,
      "duration": 0.0028,
      "velocity": 120,
      "chip": "ym2612"
    },
    {
      "channel": 0,
      "note": 49,
      "start": 0.282,
      "duration": 0.0017,
      "velocity": 120,
      "chip": "ym2612"
    },
    {
      "channel": 1,
      "note": 57,
      "start": 0.2824,
      "duration": 0.0015,
      "velocity": 95,
      "chip": "ym2612"
    },
    {
      "channel": 3,
      "note": 37,
      "start": 0.2827,
      "duration": 0.0002,
      "velocity": 95,
      "chip": "ym2612"
    },
    {
      "channel": 3,
      "note": 37,
      "start": 0.2833,
      "duration": 0.0006,
      "velocity": 95,
      "chip": "ym2612"
    },
    {
      "channel": 3,
      "note": 37,
      "start": 0.2841,
      "duration": 0.0005,
      "velocity": 95,
      "chip": "ym2612"
    },
    {
      "channel": 0,
      "note": 47,
      "start": 0.2848,
      "duration": 0.0012,
      "velocity": 120,
      "chip": "ym2612"
    },
    {
      "channel": 1,
      "note": 59,
      "start": 0.2851,
      "duration": 0.0011,
      "velocity": 95,
      "chip": "ym2612"
    },
    {
      "channel": 3,
      "note": 40,
      "start": 0.2854,
      "duration": 0.0016,
      "velocity": 95,
      "chip": "ym2612"
    },
    {
      "channel": 4,
      "note": 49,
      "start": 0.2859,
      "duration": 0.0003,
      "velocity": 120,
      "chip": "ym2612"
    },
    {
      "channel": 0,
      "note": 49,
      "start": 0.2866,
      "duration": 0.0008,
      "velocity": 120,
      "chip": "ym2612"
    },
    {
      "channel": 1,
      "note": 57,
      "start": 0.2868,
      "duration": 0.0007,
      "velocity": 95,
      "chip": "ym2612"
    },
    {
      "channel": 4,
      "note": 47,
      "start": 0.2873,
      "duration": 0.0003,
      "velocity": 120,
      "chip": "ym2612"
    },
    {
      "channel": 0,
      "note": 62,
      "start": 0.2879,
      "duration": 0.0012,
      "velocity": 120,
      "chip": "ym2612"
    },
    {
      "channel": 1,
      "note": 59,
      "start": 0.2881,
      "duration": 0.0009,
      "velocity": 95,
      "chip": "ym2612"
    },
    {
      "channel": 3,
      "note": 42,
      "start": 0.2885,
      "duration": 0.0014,
      "velocity": 95,
      "chip": "ym2612"
    },
    {
      "channel": 4,
      "note": 49,
      "start": 0.2889,
      "duration": 0.0003,
      "velocity": 120,
      "chip": "ym2612"
    },
    {
      "channel": 0,
      "note": 64,
      "start": 0.2896,
      "duration": 0.0007,
      "velocity": 120,
      "chip": "ym2612"
    },
    {
      "channel": 1,
      "note": 61,
      "start": 0.2898,
      "duration": 0.0005,
      "velocity": 95,
      "chip": "ym2612"
    },
    {
      "channel": 4,
      "note": 62,
      "start": 0.2901,
      "duration": 0.0004,
      "velocity": 120,
      "chip": "ym2612"
    },
    {
      "channel": 0,
      "note": 80,
      "start": 0.2911,
      "duration": 0.0059,
      "velocity": 112,
      "chip": "ym2612"
    },
    {
      "channel": 1,
      "note": 62,
      "start": 0.2914,
      "duration": 0.0034,
      "velocity": 95,
      "chip": "ym2612"
    },
    {
      "channel": 2,
      "note": 74,
      "start": 0.2916,
      "duration": 0.022,
      "velocity": 111,
      "chip": "ym2612"
    },
    {
      "channel": 3,
      "note": 44,
      "start": 0.292,
      "duration": 0.0033,
      "velocity": 95,
      "chip": "ym2612"
    },
    {
      "channel": 4,
      "note": 64,
      "start": 0.2947,
      "duration": 0.0002,
      "velocity": 120,
      "chip": "ym2612"
    },
    {
      "channel": 1,
      "note": 61,
      "start": 0.2951,
      "duration": 0.0008,
      "velocity": 95,
      "chip": "ym2612"
    },
    {
      "channel": 4,
      "note": 80,
      "start": 0.2959,
      "duration": 0.0035,
      "velocity": 112,
      "chip": "ym2612"
    },
    {
      "channel": 1,
      "note": 64,
      "start": 0.2962,
      "duration": 0.0003,
      "velocity": 95,
      "chip": "ym2612"
    },
    {
      "channel": 3,
      "note": 44,
      "start": 0.2965,
      "duration": 0.0006,
      "velocity": 95,
      "chip": "ym2612"
    },
    {
      "channel": 1,
      "note": 62,
      "start": 0.2969,
      "duration": 0.0011,
      "velocity": 95,
      "chip": "ym2612"
    },
    {
      "channel": 0,
      "note": 80,
      "start": 0.2979,
      "duration": 0.0159,
      "velocity": 101,
      "chip": "ym2612"
    },
    {
      "channel": 1,
      "note": 68,
      "start": 0.2986,
      "duration": 0.0008,
      "velocity": 95,
      "chip": "ym2612"
    },
    {
      "channel": 3,
      "note": 44,
      "start": 0.2989,
      "duration": 0.0006,
      "velocity": 95,
      "chip": "ym2612"
    },
    {
      "channel": 4,
      "note": 80,
      "start": 0.3004,
      "duration": 0.0167,
      "velocity": 115,
      "chip": "ym2612"
    },
    {
      "channel": 1,
      "note": 64,
      "start": 0.3013,
      "duration": 0.002,
      "velocity": 95,
      "chip": "ym2612"
    },
    {
      "channel": 3,
      "note": 44,
      "start": 0.3017,
      "duration": 0.0005,
      "velocity": 95,
      "chip": "ym2612"
    },
    {
      "channel": 3,
      "note": 44,
      "start": 0.303,
      "duration": 0.0003,
      "velocity": 95,
      "chip": "ym2612"
    },
    {
      "channel": 3,
      "note": 44,
      "start": 0.3041,
      "duration": 0.0002,
      "velocity": 95,
      "chip": "ym2612"
    },
    {
      "channel": 1,
      "note": 69,
      "start": 0.3051,
      "duration": 0.0011,
      "velocity": 95,
      "chip": "ym2612"
    },
    {
      "channel": 3,
      "note": 40,
      "start": 0.3054,
      "duration": 0.0009,
      "velocity": 95,
      "chip": "ym2612"
    },
    {
      "channel": 1,
      "note": 66,
      "start": 0.3072,
      "duration": 0.0011,
      "velocity": 95,
      "chip": "ym2612"
    },
    {
      "channel": 3,
      "note": 42,
      "start": 0.3076,
      "duration": 0.0006,
      "velocity": 95,
      "chip": "ym2612"
    },
    {
      "channel": 3,
      "note": 40,
      "start": 0.3087,
      "duration": 0.0005,
      "velocity": 95,
      "chip": "ym2612"
    },
    {
      "channel": 1,
      "note": 71,
      "start": 0.3099,
      "duration": 0.0011,
      "velocity": 95,
      "chip": "ym2612"
    },
    {
      "channel": 3,
      "note": 38,
      "start": 0.3102,
      "duration": 0.0023,
      "velocity": 95,
      "chip": "ym2612"
    },
    {
      "channel": 1,
      "note": 68,
      "start": 0.3124,
      "duration": 0.0007,
      "velocity": 95,
      "chip": "ym2612"
    },
    {
      "channel": 0,
      "note": 85,
      "start": 0.3148,
      "duration": 0.004,
      "velocity": 115,
      "chip": "ym2612"
    },
    {
      "channel": 1,
      "note": 61,
      "start": 0.315,
      "duration": 0.0029,
      "velocity": 95,
      "chip": "ym2612"
    },
    {
      "channel": 2,
      "note": 80,
      "start": 0.3156,
      "duration": 0.002,
      "velocity": 127,
      "chip": "ym2612"
    },
    {
      "channel": 3,
      "note": 37,
      "start": 0.3164,
      "duration": 0.0107,
      "velocity": 117,
      "chip": "ym2612"
    },
    {
      "channel": 4,
      "note": 85,
      "start": 0.3174,
      "duration": 0.0054,
      "velocity": 115,
      "chip": "ym2612"
    },
    {
      "channel": 2,
      "note": 69,
      "start": 0.3187,
      "duration": 0.0002,
      "velocity": 127,
      "chip": "ym2612"
    },
    {
      "channel": 0,
      "note": 86,
      "start": 0.3192,
      "duration": 0.0024,
      "velocity": 115,
      "chip": "ym2612"
    },
    {
      "channel": 1,
      "note": 59,
      "start": 0.3194,
      "duration": 0.0011,
      "velocity": 95,
      "chip": "ym2612"
    },
    {
      "channel": 2,
      "note": 81,
      "start": 0.3201,
      "duration": 0.0001,
      "velocity": 127,
      "chip": "ym2612"
    },
    {
      "channel": 2,
      "note": 69,
      "start": 0.3212,
      "duration": 0.0005,
      "velocity": 127,
      "chip": "ym2612"
    },
    {
      "channel": 0,
      "note": 88,
      "start": 0.3219,
      "duration": 0.0049,
      "velocity": 115,
      "chip": "ym2612"
    },
    {
      "channel": 1,
      "note": 61,
      "start": 0.3222,
      "duration": 0.0036,
      "velocity": 95,
      "chip": "ym2612"
    },
    {
      "channel": 2,
      "note": 80,
      "start": 0.3228,
      "duration": 0.0027,
      "velocity": 127,
      "chip": "ym2612"
    },
    {
      "channel": 4,
      "note": 86,
      "start": 0.3254,
      "duration": 0.0032,
      "velocity": 115,
      "chip": "ym2612"
    },
    {
      "channel": 2,
      "note": 69,
      "start": 0.3265,
      "duration": 0.0005,
      "velocity": 127,
      "chip": "ym2612"
    },
    {
      "channel": 0,
      "note": 90,
      "start": 0.3274,
      "duration": 0.0052,
      "velocity": 115,
      "chip": "ym2612"
    },
    {
      "channel": 1,
      "note": 62,
      "start": 0.3276,
      "duration": 0.0045,
      "velocity": 95,
      "chip": "ym2612"
    },
    {
      "channel": 2,
      "note": 69,
      "start": 0.3283,
      "duration": 0.0036,
      "velocity": 107,
      "chip": "ym2612"
    },
    {
      "channel": 3,
      "note": 44,
      "start": 0.3286,
      "duration": 0.0164,
      "velocity": 117,
      "chip": "ym2612"
    },
    {
      "channel": 4,
      "note": 88,
      "start": 0.3318,
      "duration": 0.0022,
      "velocity": 115,
      "chip": "ym2612"
    },
    {
      "channel": 2,
      "note": 69,
      "start": 0.3323,
      "duration": 0.0004,
      "velocity": 107,
      "chip": "ym2612"
    },
    {
      "channel": 0,
      "note": 92,
      "start": 0.3329,
      "duration": 0.0047,
      "velocity": 115,
      "chip": "ym2612"
    },
    {
      "channel": 1,
      "note": 64,
      "start": 0.3332,
      "duration": 0.0033,
      "velocity": 95,
      "chip": "ym2612"
    },
    {
      "channel": 2,
      "note": 80,
      "start": 0.3339,
      "duration": 0.0024,
      "velocity": 127,
      "chip": "ym2612"
    },
    {
      "channel": 4,
      "note": 90,
      "start": 0.3362,
      "duration": 0.0029,
      "velocity": 115,
      "chip": "ym2612"
    },
    {
      "channel": 2,
      "note": 69,
      "start": 0.3371,
      "duration": 0.0006,
      "velocity": 127,
      "chip": "ym2612"
    },
    {
      "channel": 0,
      "note": 90,
      "start": 0.338,
      "duration": 0.0068,
      "velocity": 115,
      "chip": "ym2612"
    },
    {
      "channel": 1,
      "note": 66,
      "start": 0.3382,
      "duration": 0.0032,
      "velocity": 95,
      "chip": "ym2612"
    },
    {
      "channel": 2,
      "note": 81,
      "start": 0.339,
      "duration": 0.0022,
      "velocity": 127,
      "chip": "ym2612"
    },
    {
      "channel": 4,
      "note": 92,
      "start": 0.3411,
      "duration": 0.0051,
      "velocity": 115,
      "chip": "ym2612"
    },
    {
      "channel": 2,
      "note": 69,
      "start": 0.342,
      "duration": 0.0029,
      "velocity": 107,
      "chip": "ym2612"
    },
    {
      "channel": 0,
      "note": 88,
      "start": 0.3454,
      "duration": 0.003,
      "velocity": 115,
      "chip": "ym2612"
    },
    {
      "channel": 1,
      "note": 68,
      "start": 0.3456,
      "duration": 0.0026,
      "velocity": 95,
      "chip": "ym2612"
    },
    {
      "channel": 2,
      "note": 69,
      "start": 0.3458,
      "duration": 0.0027,
      "velocity": 107,
      "chip": "ym2612"
    },
    {
      "channel": 3,
      "note": 49,
      "start": 0.3461,
      "duration": 0.0015,
      "velocity": 117,
      "chip": "ym2612"
    },
    {
      "channel": 4,
      "note": 90,
      "start": 0.3479,
      "duration": 0.002,
      "velocity": 115,
      "chip": "ym2612"
    },
    {
      "channel": 0,
      "note": 86,
      "start": 0.3487,
      "duration": 0.0037,
      "velocity": 115,
      "chip": "ym2612"
    },
    {
      "channel": 1,
      "note": 64,
      "start": 0.349,
      "duration": 0.0025,
      "velocity": 95,
      "chip": "ym2612"
    },
    {
      "channel": 2,
      "note": 81,
      "start": 0.3495,
      "duration": 0.0016,
      "velocity": 127,
      "chip": "ym2612"
    },
    {
      "channel": 3,
      "note": 49,
      "start": 0.3498,
      "duration": 0.0118,
      "velocity": 117,
      "chip": "ym2612"
    },
    {
      "channel": 4,
      "note": 88,
      "start": 0.351,
      "duration": 0.0028,
      "velocity": 115,
      "chip": "ym2612"
    },
    {
      "channel": 2,
      "note": 69,
      "start": 0.3522,
      "duration": 0.0003,
      "velocity": 127,
      "chip": "ym2612"
    },
    {
      "channel": 0,
      "note": 95,
      "start": 0.3529,
      "duration": 0.0086,
      "velocity": 115,
      "chip": "ym2612"
    },
    {
      "channel": 1,
      "note": 66,
      "start": 0.3531,
      "duration": 0.004,
      "velocity": 95,
      "chip": "ym2612"
    },
    {
      "channel": 2,
      "note": 80,
      "start": 0.3537,
      "duration": 0.0032,
      "velocity": 127,
      "chip": "ym2612"
    },
    {
      "channel": 4,
      "note": 86,
      "start": 0.3568,
      "duration": 0.0025,
      "velocity": 115,
      "chip": "ym2612"
    },
    {
      "channel": 2,
      "note": 69,
      "start": 0.3578,
      "duration": 0.0003,
      "velocity": 127,
      "chip": "ym2612"
    },
    {
      "channel": 1,
      "note": 62,
      "start": 0.3585,
      "duration": 0.0019,
      "velocity": 95,
      "chip": "ym2612"
    },
    {
      "channel": 2,
      "note": 81,
      "start": 0.3592,
      "duration": 0.0011,
      "velocity": 127,
      "chip": "ym2612"
    },
    {
      "channel": 4,
      "note": 95,
      "start": 0.3602,
      "duration": 0.0068,
      "velocity": 115,
      "chip": "ym2612"
    },
    {
      "channel": 2,
      "note": 69,
      "start": 0.3612,
      "duration": 0.0004,
      "velocity": 127,
      "chip": "ym2612"
    },
    {
      "channel": 0,
      "note": 92,
      "start": 0.3619,
      "duration": 0.0035,
      "velocity": 115,
      "chip": "ym2612"
    },
    {
      "channel": 1,
      "note": 61,
      "start": 0.3621,
      "duration": 0.0024,
      "velocity": 95,
      "chip": "ym2612"
    },
    {
      "channel": 2,
      "note": 80,
      "start": 0.3627,
      "duration": 0.0015,
      "velocity": 127,
      "chip": "ym2612"
    },
    {
      "channel": 3,
      "note": 49,
      "start": 0.3631,
      "duration": 0.0013,
      "velocity": 117,
      "chip": "ym2612"
    },
    {
      "channel": 2,
      "note": 69,
      "start": 0.3653,
      "duration": 0.0002,
      "velocity": 127,
      "chip": "ym2612"
    },
    {
      "channel": 0,
      "note": 93,
      "start": 0.3657,
      "duration": 0.005,
      "velocity": 115,
      "chip": "ym2612"
    },
    {
      "channel": 1,
      "note": 59,
      "start": 0.366,
      "duration": 0.0043,
      "velocity": 95,
      "chip": "ym2612"
    },
    {
      "channel": 2,
      "note": 69,
      "start": 0.3666,
      "duration": 0.0035,
      "velocity": 107,
      "chip": "ym2612"
    },
    {
      "channel": 3,
      "note": 44,
      "start": 0.3669,
      "duration": 0.0166,
      "velocity": 117,
      "chip": "ym2612"
    },
    {
      "channel": 4,
      "note": 92,
      "start": 0.3699,
      "duration": 0.0022,
      "velocity": 115,
      "chip": "ym2612"
    },
    {
      "channel": 2,
      "note": 69,
      "start": 0.3705,
      "duration": 0.0004,
      "velocity": 107,
      "chip": "ym2612"
    },
    {
      "channel": 0,
      "note": 95,
      "start": 0.3712,
      "duration": 0.0049,
      "velocity": 115,
      "chip": "ym2612"
    },
    {
      "channel": 1,
      "note": 61,
      "start": 0.3714,
      "duration": 0.0037,
      "velocity": 95,
      "chip": "ym2612"
    },
    {
      "channel": 2,
      "note": 80,
      "start": 0.3721,
      "duration": 0.0028,
      "velocity": 127,
      "chip": "ym2612"
    },
    {
      "channel": 4,
      "note": 93,
      "start": 0.3747,
      "duration": 0.0029,
      "velocity": 115,
      "chip": "ym2612"
    },
    {
      "channel": 2,
      "note": 69,
      "start": 0.3757,
      "duration": 0.0006,
      "velocity": 127,
      "chip": "ym2612"
    },
    {
      "channel": 0,
      "note": 97,
      "start": 0.3765,
      "duration": 0.0068,
      "velocity": 115,
      "chip": "ym2612"
    },
    {
      "channel": 1,
      "note": 62,
      "start": 0.3768,
      "duration": 0.0032,
      "velocity": 95,
      "chip": "ym2612"
    },
    {
      "channel": 2,
      "note": 81,
      "start": 0.3775,
      "duration": 0.0022,
      "velocity": 127,
      "chip": "ym2612"
    },
    {
      "channel": 4,
      "note": 95,
      "start": 0.3796,
      "duration": 0.0051,
      "velocity": 115,
      "chip": "ym2612"
    },
    {
      "channel": 2,
      "note": 69,
      "start": 0.3807,
      "duration": 0.0027,
      "velocity": 107,
      "chip": "ym2612"
    },
    {
      "channel": 0,
      "note": 98,
      "start": 0.3838,
      "duration": 0.0077,
      "velocity": 115,
      "chip": "ym2612"
    },
    {
      "channel": 1,
      "note": 57,
      "start": 0.3841,
      "duration": 0.0027,
      "velocity": 95,
      "chip": "ym2612"
    },
    {
      "channel": 2,
      "note": 69,
      "start": 0.3843,
      "duration": 0.0028,
      "velocity": 107,
      "chip": "ym2612"
    },
    {
      "channel": 3,
      "note": 37,
      "start": 0.3846,
      "duration": 0.0162,
      "velocity": 117,
      "chip": "ym2612"
    },
    {
      "channel": 4,
      "note": 97,
      "start": 0.3866,
      "duration": 0.0017,
      "velocity": 115,
      "chip": "ym2612"
    },
    {
      "channel": 1,
      "note": 59,
      "start": 0.3875,
      "duration": 0.0032,
      "velocity": 95,
      "chip": "ym2612"
    },
    {
      "channel": 2,
      "note": 81,
      "start": 0.3882,
      "duration": 0.0024,
      "velocity": 127,
      "chip": "ym2612"
    },
    {
      "channel": 4,
      "note": 98,
      "start": 0.3905,
      "duration": 0.0063,
      "velocity": 115,
      "chip": "ym2612"
    },
    {
      "channel": 2,
      "note": 69,
      "start": 0.3915,
      "duration": 0.0002,
      "velocity": 127,
      "chip": "ym2612"
    },
    {
      "channel": 0,
      "note": 97,
      "start": 0.3919,
      "duration": 0.0035,
      "velocity": 115,
      "chip": "ym2612"
    },
    {
      "channel": 1,
      "note": 56,
      "start": 0.3921,
      "duration": 0.0026,
      "velocity": 95,
      "chip": "ym2612"
    },
    {
      "channel": 2,
      "note": 80,
      "start": 0.3928,
      "duration": 0.0017,
      "velocity": 127,
      "chip": "ym2612"
    },
    {
      "channel": 2,
      "note": 69,
      "start": 0.3954,
      "duration": 0.0002,
      "velocity": 127,
      "chip": "ym2612"
    },
    {
      "channel": 0,
      "note": 95,
      "start": 0.3958,
      "duration": 0.0048,
      "velocity": 115,
      "chip": "ym2612"
    },
    {
      "channel": 1,
      "note": 57,
      "start": 0.3961,
      "duration": 0.0036,
      "velocity": 95,
      "chip": "ym2612"
    },
    {
      "channel": 2,
      "note": 81,
      "start": 0.3967,
      "duration": 0.0027,
      "velocity": 127,
      "chip": "ym2612"
    },
    {
      "channel": 4,
      "note": 97,
      "start": 0.3992,
      "duration": 0.0032,
      "velocity": 115,
      "chip": "ym2612"
    },
    {
      "channel": 2,
      "note": 69,
      "start": 0.4004,
      "duration": 0.0003,
      "velocity": 127,
      "chip": "ym2612"
    },
    {
      "channel": 0,
      "note": 93,
      "start": 0.4011,
      "duration": 0.0056,
      "velocity": 115,
      "chip": "ym2612"
    },
    {
      "channel": 1,
      "note": 54,
      "start": 0.4013,
      "duration": 0.0045,
      "velocity": 95,
      "chip": "ym2612"
    },
    {
      "channel": 2,
      "note": 80,
      "start": 0.402,
      "duration": 0.0034,
      "velocity": 127,
      "chip": "ym2612"
    },
    {
      "channel": 3,
      "note": 37,
      "start": 0.4023,
      "duration": 0.0032,
      "velocity": 117,
      "chip": "ym2612"
    },
    {
      "channel": 4,
      "note": 95,
      "start": 0.4026,
      "duration": 0.0058,
      "velocity": 115,
      "chip": "ym2612"
    },
    {
      "channel": 2,
      "note": 69,
      "start": 0.4065,
      "duration": 0.0003,
      "velocity": 127,
      "chip": "ym2612"
    },
    {
      "channel": 0,
      "note": 92,
      "start": 0.407,
      "duration": 0.0044,
      "velocity": 115,
      "chip": "ym2612"
    },
    {
      "channel": 1,
      "note": 56,
      "start": 0.4073,
      "duration": 0.0037,
      "velocity": 95,
      "chip": "ym2612"
    },
    {
      "channel": 2,
      "note": 69,
      "start": 0.408,
      "duration": 0.0028,
      "velocity": 107,
      "chip": "ym2612"
    },
    {
      "channel": 3,
      "note": 44,
      "start": 0.4083,
      "duration": 0.0105,
      "velocity": 117,
      "chip": "ym2612"
    },
    {
      "channel": 4,
      "note": 93,
      "start": 0.4106,
      "duration": 0.0011,
      "velocity": 115,
      "chip": "ym2612"
    },
    {
      "channel": 2,
      "note": 69,
      "start": 0.4112,
      "duration": 0.0003,
      "velocity": 107,
      "chip": "ym2612"
    },
    {
      "channel": 0,
      "note": 97,
      "start": 0.412,
      "duration": 0.0034,
      "velocity": 115,
      "chip": "ym2612"
    },
    {
      "channel": 1,
      "note": 52,
      "start": 0.4122,
      "duration": 0.0023,
      "velocity": 95,
      "chip": "ym2612"
    },
    {
      "channel": 2,
      "note": 80,
      "start": 0.413,
      "duration": 0.0012,
      "velocity": 127,
      "chip": "ym2612"
    },
    {
      "channel": 4,
      "note": 97,
      "start": 0.4141,
      "duration": 0.0026,
      "velocity": 115,
      "chip": "ym2612"
    },
    {
      "channel": 2,
      "note": 69,
      "start": 0.4152,
      "duration": 0.0003,
      "velocity": 127,
      "chip": "ym2612"
    },
    {
      "channel": 0,
      "note": 95,
      "start": 0.4157,
      "duration": 0.003,
      "velocity": 115,
      "chip": "ym2612"
    },
    {
      "channel": 1,
      "note": 50,
      "start": 0.416,
      "duration": 0.0015,
      "velocity": 95,
      "chip": "ym2612"
    },
    {
      "channel": 2,
      "note": 81,
      "start": 0.4167,
      "duration": 0.0005,
      "velocity": 127,
      "chip": "ym2612"
    },
    {
      "channel": 4,
      "note": 95,
      "start": 0.417,
      "duration": 0.003,
      "velocity": 115,
      "chip": "ym2612"
    },
    {
      "channel": 2,
      "note": 69,
      "start": 0.4182,
      "duration": 0.0006,
      "velocity": 107,
      "chip": "ym2612"
    },
    {
      "channel": 0,
      "note": 97,
      "start": 0.4191,
      "duration": 0.0022,
      "velocity": 115,
      "chip": "ym2612"
    },
    {
      "channel": 1,
      "note": 52,
      "start": 0.4194,
      "duration": 0.0016,
      "velocity": 95,
      "chip": "ym2612"
    },
    {
      "channel": 2,
      "note": 69,
      "start": 0.4196,
      "duration": 0.0019,
      "velocity": 107,
      "chip": "ym2612"
    },
    {
      "channel": 3,
      "note": 49,
      "start": 0.4199,
      "duration": 0.0005,
      "velocity": 117,
      "chip": "ym2612"
    },
    {
      "channel": 4,
      "note": 97,
      "start": 0.4207,
      "duration": 0.0024,
      "velocity": 115,
      "chip": "ym2612"
    },
    {
      "channel": 0,
      "note": 98,
      "start": 0.4218,
      "duration": 0.005,
      "velocity": 115,
      "chip": "ym2612"
    },
    {
      "channel": 1,
      "note": 54,
      "start": 0.422,
      "duration": 0.0037,
      "velocity": 95,
      "chip": "ym2612"
    },
    {
      "channel": 2,
      "note": 81,
      "start": 0.4226,
      "duration": 0.0028,
      "velocity": 127,
      "chip": "ym2612"
    },
    {
      "channel": 3,
      "note": 49,
      "start": 0.423,
      "duration": 0.0168,
      "velocity": 117,
      "chip": "ym2612"
    },
    {
      "channel": 4,
      "note": 98,
      "start": 0.4253,
      "duration": 0.0029,
      "velocity": 115,
      "chip": "ym2612"
    },
    {
      "channel": 2,
      "note": 69,
      "start": 0.4264,
      "duration": 0.0005,
      "velocity": 127,
      "chip": "ym2612"
    },
    {
      "channel": 0,
      "note": 100,
      "start": 0.4271,
      "duration": 0.0077,
      "velocity": 115,
      "chip": "ym2612"
    },
    {
      "channel": 1,
      "note": 56,
      "start": 0.4274,
      "duration": 0.004,
      "velocity": 95,
      "chip": "ym2612"
    },
    {
      "channel": 2,
      "note": 80,
      "start": 0.4281,
      "duration": 0.003,
      "velocity": 127,
      "chip": "ym2612"
    },
    {
      "channel": 4,
      "note": 100,
      "start": 0.4311,
      "duration": 0.0052,
      "velocity": 115,
      "chip": "ym2612"
    },
    {
      "channel": 2,
      "note": 69,
      "start": 0.4321,
      "duration": 0.0029,
      "velocity": 127,
      "chip": "ym2612"
    },
    {
      "channel": 0,
      "note": 103,
      "start": 0.4353,
      "duration": 0.0044,
      "velocity": 115,
      "chip": "ym2612"
    },
    {
      "channel": 1,
      "note": 57,
      "start": 0.4355,
      "duration": 0.0029,
      "velocity": 95,
      "chip": "ym2612"
    },
    {
      "channel": 2,
      "note": 81,
      "start": 0.4362,
      "duration": 0.002,
      "velocity": 127,
      "chip": "ym2612"
    },
    {
      "channel": 4,
      "note": 103,
      "start": 0.438,
      "duration": 0.0034,
      "velocity": 115,
      "chip": "ym2612"
    },
    {
      "channel": 2,
      "note": 69,
      "start": 0.4391,
      "duration": 0.0007,
      "velocity": 127,
      "chip": "ym2612"
    },
    {
      "channel": 0,
      "note": 100,
      "start": 0.4401,
      "duration": 0.0046,
      "velocity": 115,
      "chip": "ym2612"
    },
    {
      "channel": 1,
      "note": 59,
      "start": 0.4403,
      "duration": 0.0034,
      "velocity": 95,
      "chip": "ym2612"
    },
    {
      "channel": 2,
      "note": 80,
      "start": 0.441,
      "duration": 0.0022,
      "velocity": 127,
      "chip": "ym2612"
    },
    {
      "channel": 3,
      "note": 49,
      "start": 0.4414,
      "duration": 0.002,
      "velocity": 117,
      "chip": "ym2612"
    },
    {
      "channel": 4,
      "note": 100,
      "start": 0.4417,
      "duration": 0.0046,
      "velocity": 115,
      "chip": "ym2612"
    },
    {
      "channel": 2,
      "note": 69,
      "start": 0.4445,
      "duration": 0.0003,
      "velocity": 127,
      "chip": "ym2612"
    },
    {
      "channel": 0,
      "note": 95,
      "start": 0.445,
      "duration": 0.0033,
      "velocity": 115,
      "chip": "ym2612"
    },
    {
      "channel": 1,
      "note": 57,
      "start": 0.4453,
      "duration": 0.0025,
      "velocity": 95,
      "chip": "ym2612"
    },
    {
      "channel": 2,
      "note": 69,
      "start": 0.4459,
      "duration": 0.0016,
      "velocity": 107,
      "chip": "ym2612"
    },
    {
      "channel": 3,
      "note": 42,
      "start": 0.4462,
      "duration": 0.0023,
      "velocity": 117,
      "chip": "ym2612"
    },
    {
      "channel": 4,
      "note": 95,
      "start": 0.4474,
      "duration": 0.0027,
      "velocity": 115,
      "chip": "ym2612"
    },
    {
      "channel": 2,
      "note": 69,
      "start": 0.4481,
      "duration": 0.0003,
      "velocity": 107,
      "chip": "ym2612"
    },
    {
      "channel": 0,
      "note": 93,
      "start": 0.4488,
      "duration": 0.0049,
      "velocity": 115,
      "chip": "ym2612"
    },
    {
      "channel": 1,
      "note": 59,
      "start": 0.449,
      "duration": 0.0036,
      "velocity": 95,
      "chip": "ym2612"
    },
    {
      "channel": 2,
      "note": 80,
      "start": 0.4497,
      "duration": 0.0027,
      "velocity": 127,
      "chip": "ym2612"
    },
    {
      "channel": 3,
      "note": 43,
      "start": 0.45,
      "duration": 0.0108,
      "velocity": 117,
      "chip": "ym2612"
    },
    {
      "channel": 4,
      "note": 93,
      "start": 0.4523,
      "duration": 0.0029,
      "velocity": 115,
      "chip": "ym2612"
    },
    {
      "channel": 2,
      "note": 69,
      "start": 0.4534,
      "duration": 0.0004,
      "velocity": 127,
      "chip": "ym2612"
    },
    {
      "channel": 0,
      "note": 98,
      "start": 0.4541,
      "duration": 0.0066,
      "velocity": 115,
      "chip": "ym2612"
    },
    {
      "channel": 1,
      "note": 61,
      "start": 0.4544,
      "duration": 0.0029,
      "velocity": 95,
      "chip": "ym2612"
    },
    {
      "channel": 2,
      "note": 81,
      "start": 0.4549,
      "duration": 0.0021,
      "velocity": 127,
      "chip": "ym2612"
    },
    {
      "channel": 4,
      "note": 98,
      "start": 0.4568,
      "duration": 0.005,
      "velocity": 115,
      "chip": "ym2612"
    },
    {
      "channel": 2,
      "note": 69,
      "start": 0.4579,
      "duration": 0.0028,
      "velocity": 107,
      "chip": "ym2612"
    },
    {
      "channel": 0,
      "note": 97,
      "start": 0.461,
      "duration": 0.0287,
      "velocity": 115,
      "chip": "ym2612"
    },
    {
      "channel": 1,
      "note": 62,
      "start": 0.4612,
      "duration": 0.0024,
      "velocity": 95,
      "chip": "ym2612"
    },
    {
      "channel": 2,
      "note": 69,
      "start": 0.4615,
      "duration": 0.0023,
      "velocity": 107,
      "chip": "ym2612"
    },
    {
      "channel": 3,
      "note": 37,
      "start": 0.4617,
      "duration": 0.0016,
      "velocity": 117,
      "chip": "ym2612"
    },
    {
      "channel": 4,
      "note": 97,
      "start": 0.4635,
      "duration": 0.0277,
      "velocity": 115,
      "chip": "ym2612"
    },
    {
      "channel": 1,
      "note": 61,
      "start": 0.4641,
      "duration": 0.0034,
      "velocity": 95,
      "chip": "ym2612"
    },
    {
      "channel": 2,
      "note": 81,
      "start": 0.4648,
      "duration": 0.0026,
      "velocity": 127,
      "chip": "ym2612"
    },
    {
      "channel": 3,
      "note": 37,
      "start": 0.4651,
      "duration": 0.0157,
      "velocity": 117,
      "chip": "ym2612"
    },
    {
      "channel": 2,
      "note": 69,
      "start": 0.4682,
      "duration": 0.0001,
      "velocity": 127,
      "chip": "ym2612"
    },
    {
      "channel": 1,
      "note": 64,
      "start": 0.4689,
      "duration": 0.0042,
      "velocity": 95,
      "chip": "ym2612"
    },
    {
      "channel": 2,
      "note": 80,
      "start": 0.4696,
      "duration": 0.0032,
      "velocity": 127,
      "chip": "ym2612"
    },
    {
      "channel": 2,
      "note": 69,
      "start": 0.4738,
      "duration": 0.0026,
      "velocity": 127,
      "chip": "ym2612"
    },
    {
      "channel": 1,
      "note": 62,
      "start": 0.4768,
      "duration": 0.0029,
      "velocity": 95,
      "chip": "ym2612"
    },
    {
      "channel": 2,
      "note": 81,
      "start": 0.4774,
      "duration": 0.002,
      "velocity": 127,
      "chip": "ym2612"
    },
    {
      "channel": 2,
      "note": 69,
      "start": 0.4803,
      "duration": 0.0004,
      "velocity": 127,
      "chip": "ym2612"
    },
    {
      "channel": 1,
      "note": 68,
      "start": 0.4811,
      "duration": 0.0033,
      "velocity": 95,
      "chip": "ym2612"
    },
    {
      "channel": 2,
      "note": 80,
      "start": 0.4816,
      "duration": 0.0024,
      "velocity": 127,
      "chip": "ym2612"
    },
    {
      "channel": 3,
      "note": 37,
      "start": 0.482,
      "duration": 0.0021,
      "velocity": 117,
      "chip": "ym2612"
    },
    {
      "channel": 2,
      "note": 69,
      "start": 0.4851,
      "duration": 0.0002,
      "velocity": 127,
      "chip": "ym2612"
    },
    {
      "channel": 1,
      "note": 64,
      "start": 0.4858,
      "duration": 0.0034,
      "velocity": 95,
      "chip": "ym2612"
    },
    {
      "channel": 2,
      "note": 69,
      "start": 0.4863,
      "duration": 0.0026,
      "velocity": 107,
      "chip": "ym2612"
    },
    {
      "channel": 3,
      "note": 44,
      "start": 0.4866,
      "duration": 0.0141,
      "velocity": 117,
      "chip": "ym2612"
    },
    {
      "channel": 2,
      "note": 69,
      "start": 0.4894,
      "duration": 0.0003,
      "velocity": 107,
      "chip": "ym2612"
    },
    {
      "channel": 0,
      "note": 96,
      "start": 0.4903,
      "duration": 0.0037,
      "velocity": 115,
      "chip": "ym2612"
    },
    {
      "channel": 1,
      "note": 69,
      "start": 0.4906,
      "duration": 0.0023,
      "velocity": 95,
      "chip": "ym2612"
    },
    {
      "channel": 2,
      "note": 80,
      "start": 0.4911,
      "duration": 0.0017,
      "velocity": 127,
      "chip": "ym2612"
    },
    {
      "channel": 4,
      "note": 96,
      "start": 0.4925,
      "duration": 0.003,
      "velocity": 115,
      "chip": "ym2612"
    },
    {
      "channel": 2,
      "note": 69,
      "start": 0.4936,
      "duration": 0.0006,
      "velocity": 127,
      "chip": "ym2612"
    },
    {
      "channel": 0,
      "note": 95,
      "start": 0.4946,
      "duration": 0.0059,
      "velocity": 115,
      "chip": "ym2612"
    },
    {
      "channel": 1,
      "note": 66,
      "start": 0.4949,
      "duration": 0.0038,
      "velocity": 95,
      "chip": "ym2612"
    },
    {
      "channel": 2,
      "note": 81,
      "start": 0.4954,
      "duration": 0.0031,
      "velocity": 127,
      "chip": "ym2612"
    },
    {
      "channel": 4,
      "note": 95,
      "start": 0.4984,
      "duration": 0.0036,
      "velocity": 115,
      "chip": "ym2612"
    },
    {
      "channel": 2,
      "note": 69,
      "start": 0.4993,
      "duration": 0.0013,
      "velocity": 107,
      "chip": "ym2612"
    },
    {
      "channel": 0,
      "note": 97,
      "start": 0.501,
      "duration": 0.0076,
      "velocity": 115,
      "chip": "ym2612"
    },
    {
      "channel": 1,
      "note": 71,
      "start": 0.5013,
      "duration": 0.0048,
      "velocity": 95,
      "chip": "ym2612"
    },
    {
      "channel": 2,
      "note": 69,
      "start": 0.5015,
      "duration": 0.0071,
      "velocity": 107,
      "chip": "ym2612"
    },
    {
      "channel": 3,
      "note": 48,
      "start": 0.5019,
      "duration": 0.0069,
      "velocity": 117,
      "chip": "ym2612"
    },
    {
      "channel": 4,
      "note": 97,
      "start": 0.504,
      "duration": 0.0064,
      "velocity": 115,
      "chip": "ym2612"
    },
    {
      "channel": 0,
      "note": 109,
      "start": 0.5091,
      "duration": 0.0081,
      "velocity": 115,
      "chip": "ym2612"
    },
    {
      "channel": 1,
      "note": 68,
      "start": 0.5093,
      "duration": 0.005,
      "velocity": 95,
      "chip": "ym2612"
    },
    {
      "channel": 2,
      "note": 81,
      "start": 0.51,
      "duration": 0.0021,
      "velocity": 127,
      "chip": "ym2612"
    },
    {
      "channel": 3,
      "note": 49,
      "start": 0.5103,
      "duration": 0.002,
      "velocity": 117,
      "chip": "ym2612"
    },
    {
      "channel": 4,
      "note": 109,
      "start": 0.5118,
      "duration": 0.0084,
      "velocity": 120,
      "chip": "ym2612"
    },
    {
      "channel": 2,
      "note": 69,
      "start": 0.5149,
      "duration": 0.0024,
      "velocity": 127,
      "chip": "ym2612"
    },
    {
      "channel": 0,
      "note": 49,
      "start": 0.5182,
      "duration": 0.0027,
      "velocity": 120,
      "chip": "ym2612"
    },
    {
      "channel": 1,
      "note": 61,
      "start": 0.5185,
      "duration": 0.0026,
      "velocity": 95,
      "chip": "ym2612"
    },
    {
      "channel": 2,
      "note": 73,
      "start": 0.5193,
      "duration": 0.0154,
      "velocity": 111,
      "chip": "ym2612"
    },
    {
      "channel": 3,
      "note": 37,
      "start": 0.5196,
      "duration": 0.0016,
      "velocity": 117,
      "chip": "ym2612"
    },
    {
      "channel": 4,
      "note": 49,
      "start": 0.5205,
      "duration": 0.0017,
      "velocity": 120,
      "chip": "ym2612"
    },
    {
      "channel": 0,
      "note": 47,
      "start": 0.5215,
      "duration": 0.0008,
      "velocity": 120,
      "chip": "ym2612"
    },
    {
      "channel": 1,
      "note": 59,
      "start": 0.5217,
      "duration": 0.0006,
      "velocity": 95,
      "chip": "ym2612"
    },
    {
      "channel": 3,
      "note": 37,
      "start": 0.5221,
      "duration": 0.0004,
      "velocity": 117,
      "chip": "ym2612"
    },
    {
      "channel": 0,
      "note": 49,
      "start": 0.5229,
      "duration": 0.0008,
      "velocity": 120,
      "chip": "ym2612"
    },
    {
      "channel": 1,
      "note": 61,
      "start": 0.5231,
      "duration": 0.0007,
      "velocity": 95,
      "chip": "ym2612"
    },
    {
      "channel": 3,
      "note": 37,
      "start": 0.5235,
      "duration": 0.0004,
      "velocity": 117,
      "chip": "ym2612"
    },
    {
      "channel": 4,
      "note": 47,
      "start": 0.5237,
      "duration": 0.0002,
      "velocity": 120,
      "chip": "ym2612"
    },
    {
      "channel": 0,
      "note": 61,
      "start": 0.5242,
      "duration": 0.0023,
      "velocity": 120,
      "chip": "ym2612"
    },
    {
      "channel": 1,
      "note": 62,
      "start": 0.5245,
      "duration": 0.001,
      "velocity": 95,
      "chip": "ym2612"
    },
    {
      "channel": 3,
      "note": 37,
      "start": 0.5249,
      "duration": 0.0007,
      "velocity": 117,
      "chip": "ym2612"
    },
    {
      "channel": 4,
      "note": 49,
      "start": 0.5252,
      "duration": 0.0004,
      "velocity": 120,
      "chip": "ym2612"
    },
    {
      "channel": 1,
      "note": 64,
      "start": 0.5259,
      "duration": 0.0007,
      "velocity": 95,
      "chip": "ym2612"
    },
    {
      "channel": 3,
      "note": 37,
      "start": 0.5262,
      "duration": 0.0005,
      "velocity": 117,
      "chip": "ym2612"
    },
    {
      "channel": 4,
      "note": 61,
      "start": 0.5265,
      "duration": 0.0027,
      "velocity": 120,
      "chip": "ym2612"
    },
    {
      "channel": 0,
      "note": 49,
      "start": 0.5271,
      "duration": 0.0012,
      "velocity": 120,
      "chip": "ym2612"
    },
    {
      "channel": 1,
      "note": 66,
      "start": 0.5273,
      "duration": 0.0011,
      "velocity": 95,
      "chip": "ym2612"
    },
    {
      "channel": 3,
      "note": 37,
      "start": 0.5276,
      "duration": 0.0003,
      "velocity": 117,
      "chip": "ym2612"
    },
    {
      "channel": 3,
      "note": 37,
      "start": 0.5282,
      "duration": 0.0003,
      "velocity": 117,
      "chip": "ym2612"
    },
    {
      "channel": 3,
      "note": 37,
      "start": 0.529,
      "duration": 0.0005,
      "velocity": 117,
      "chip": "ym2612"
    },
    {
      "channel": 0,
      "note": 47,
      "start": 0.5298,
      "duration": 0.0011,
      "velocity": 120,
      "chip": "ym2612"
    },
    {
      "channel": 1,
      "note": 68,
      "start": 0.53,
      "duration": 0.001,
      "velocity": 95,
      "chip": "ym2612"
    },
    {
      "channel": 3,
      "note": 40,
      "start": 0.5304,
      "duration": 0.0014,
      "velocity": 117,
      "chip": "ym2612"
    },
    {
      "channel": 4,
      "note": 49,
      "start": 0.5307,
      "duration": 0.0004,
      "velocity": 120,
      "chip": "ym2612"
    },
    {
      "channel": 0,
      "note": 49,
      "start": 0.5315,
      "duration": 0.0006,
      "velocity": 120,
      "chip": "ym2612"
    },
    {
      "channel": 1,
      "note": 64,
      "start": 0.5317,
      "duration": 0.0005,
      "velocity": 95,
      "chip": "ym2612"
    },
    {
      "channel": 4,
      "note": 47,
      "start": 0.532,
      "duration": 0.0003,
      "velocity": 120,
      "chip": "ym2612"
    },
    {
      "channel": 0,
      "note": 59,
      "start": 0.5327,
      "duration": 0.0019,
      "velocity": 120,
      "chip": "ym2612"
    },
    {
      "channel": 1,
      "note": 66,
      "start": 0.5329,
      "duration": 0.0008,
      "velocity": 95,
      "chip": "ym2612"
    },
    {
      "channel": 3,
      "note": 38,
      "start": 0.5332,
      "duration": 0.001,
      "velocity": 117,
      "chip": "ym2612"
    },
    {
      "channel": 4,
      "note": 49,
      "start": 0.5337,
      "duration": 0.0002,
      "velocity": 120,
      "chip": "ym2612"
    },
    {
      "channel": 1,
      "note": 62,
      "start": 0.5341,
      "duration": 0.0005,
      "velocity": 95,
      "chip": "ym2612"
    },
    {
      "channel": 4,
      "note": 59,
      "start": 0.5345,
      "duration": 0.0035,
      "velocity": 120,
      "chip": "ym2612"
    },
    {
      "channel": 0,
      "note": 49,
      "start": 0.535,
      "duration": 0.0028,
      "velocity": 120,
      "chip": "ym2612"
    },
    {
      "channel": 1,
      "note": 61,
      "start": 0.5353,
      "duration": 0.0026,
      "velocity": 95,
      "chip": "ym2612"
    },
    {
      "channel": 2,
      "note": 74,
      "start": 0.5357,
      "duration": 0.0182,
      "velocity": 111,
      "chip": "ym2612"
    },
    {
      "channel": 3,
      "note": 37,
      "start": 0.536,
      "duration": 0.0026,
      "velocity": 117,
      "chip": "ym2612"
    },
    {
      "channel": 0,
      "note": 47,
      "start": 0.5383,
      "duration": 0.0007,
      "velocity": 120,
      "chip": "ym2612"
    },
    {
      "channel": 1,
      "note": 59,
      "start": 0.5385,
      "duration": 0.0006,
      "velocity": 95,
      "chip": "ym2612"
    },
    {
      "channel": 4,
      "note": 49,
      "start": 0.5389,
      "duration": 0.0003,
      "velocity": 120,
      "chip": "ym2612"
    },
    {
      "channel": 0,
      "note": 49,
      "start": 0.5396,
      "duration": 0.0009,
      "velocity": 120,
      "chip": "ym2612"
    },
    {
      "channel": 1,
      "note": 61,
      "start": 0.5398,
      "duration": 0.0008,
      "velocity": 95,
      "chip": "ym2612"
    },
    {
      "channel": 3,
      "note": 37,
      "start": 0.5401,
      "duration": 0.0012,
      "velocity": 117,
      "chip": "ym2612"
    },
    {
      "channel": 4,
      "note": 47,
      "start": 0.5404,
      "duration": 0.0003,
      "velocity": 120,
      "chip": "ym2612"
    },
    {
      "channel": 0,
      "note": 61,
      "start": 0.5409,
      "duration": 0.0017,
      "velocity": 120,
      "chip": "ym2612"
    },
    {
      "channel": 1,
      "note": 62,
      "start": 0.5411,
      "duration": 0.0004,
      "velocity": 95,
      "chip": "ym2612"
    },
    {
      "channel": 4,
      "note": 49,
      "start": 0.5415,
      "duration": 0.0002,
      "velocity": 120,
      "chip": "ym2612"
    },
    {
      "channel": 1,
      "note": 57,
      "start": 0.542,
      "duration": 0.0008,
      "velocity": 95,
      "chip": "ym2612"
    },
    {
      "channel": 3,
      "note": 37,
      "start": 0.5423,
      "duration": 0.0006,
      "velocity": 117,
      "chip": "ym2612"
    },
    {
      "channel": 4,
      "note": 61,
      "start": 0.5425,
      "duration": 0.0048,
      "velocity": 120,
      "chip": "ym2612"
    },
    {
      "channel": 0,
      "note": 49,
      "start": 0.5432,
      "duration": 0.0035,
      "velocity": 120,
      "chip": "ym2612"
    },
    {
      "channel": 1,
      "note": 59,
      "start": 0.5434,
      "duration": 0.0034,
      "velocity": 95,
      "chip": "ym2612"
    },
    {
      "channel": 3,
      "note": 37,
      "start": 0.5438,
      "duration": 0.0022,
      "velocity": 117,
      "chip": "ym2612"
    },
    {
      "channel": 3,
      "note": 37,
      "start": 0.5461,
      "duration": 0.0007,
      "velocity": 117,
      "chip": "ym2612"
    },
    {
      "channel": 3,
      "note": 37,
      "start": 0.5473,
      "duration": 0.0003,
      "velocity": 117,
      "chip": "ym2612"
    },
    {
      "channel": 0,
      "note": 47,
      "start": 0.5478,
      "duration": 0.0011,
      "velocity": 120,
      "chip": "ym2612"
    },
    {
      "channel": 1,
      "note": 56,
      "start": 0.5481,
      "duration": 0.001,
      "velocity": 95,
      "chip": "ym2612"
    },
    {
      "channel": 3,
      "note": 47,
      "start": 0.5484,
      "duration": 0.0006,
      "velocity": 117,
      "chip": "ym2612"
    },
    {
      "channel": 4,
      "note": 49,
      "start": 0.5488,
      "duration": 0.0004,
      "velocity": 120,
      "chip": "ym2612"
    },
    {
      "channel": 0,
      "note": 49,
      "start": 0.5495,
      "duration": 0.0012,
      "velocity": 120,
      "chip": "ym2612"
    },
    {
      "channel": 1,
      "note": 57,
      "start": 0.5498,
      "duration": 0.001,
      "velocity": 95,
      "chip": "ym2612"
    },
    {
      "channel": 3,
      "note": 45,
      "start": 0.5501,
      "duration": 0.0004,
      "velocity": 117,
      "chip": "ym2612"
    },
    {
      "channel": 4,
      "note": 47,
      "start": 0.5505,
      "duration": 0.0006,
      "velocity": 120,
      "chip": "ym2612"
    },
    {
      "channel": 3,
      "note": 47,
      "start": 0.5511,
      "duration": 0.0002,
      "velocity": 117,
      "chip": "ym2612"
    },
    {
      "channel": 0,
      "note": 59,
      "start": 0.5515,
      "duration": 0.0022,
      "velocity": 120,
      "chip": "ym2612"
    },
    {
      "channel": 1,
      "note": 54,
      "start": 0.5518,
      "duration": 0.001,
      "velocity": 95,
      "chip": "ym2612"
    },
    {
      "channel": 3,
      "note": 38,
      "start": 0.5521,
      "duration": 0.0012,
      "velocity": 117,
      "chip": "ym2612"
    },
    {
      "channel": 4,
      "note": 49,
      "start": 0.5527,
      "duration": 0.0002,
      "velocity": 120,
      "chip": "ym2612"
    },
    {
      "channel": 1,
      "note": 56,
      "start": 0.5532,
      "duration": 0.0007,
      "velocity": 95,
      "chip": "ym2612"
    },
    {
      "channel": 4,
      "note": 59,
      "start": 0.5537,
      "duration": 0.0036,
      "velocity": 120,
      "chip": "ym2612"
    },
    {
      "channel": 0,
      "note": 49,
      "start": 0.5543,
      "duration": 0.0025,
      "velocity": 120,
      "chip": "ym2612"
    },
    {
      "channel": 1,
      "note": 52,
      "start": 0.5544,
      "duration": 0.0024,
      "velocity": 95,
      "chip": "ym2612"
    },
    {
      "channel": 2,
      "note": 76,
      "start": 0.5547,
      "duration": 0.0167,
      "velocity": 111,
      "chip": "ym2612"
    },
    {
      "channel": 3,
      "note": 37,
      "start": 0.5551,
      "duration": 0.0019,
      "velocity": 117,
      "chip": "ym2612"
    },
    {
      "channel": 0,
      "note": 47,
      "start": 0.5575,
      "duration": 0.001,
      "velocity": 120,
      "chip": "ym2612"
    },
    {
      "channel": 1,
      "note": 50,
      "start": 0.5577,
      "duration": 0.0008,
      "velocity": 95,
      "chip": "ym2612"
    },
    {
      "channel": 3,
      "note": 37,
      "start": 0.558,
      "duration": 0.0006,
      "velocity": 117,
      "chip": "ym2612"
    },
    {
      "channel": 4,
      "note": 49,
      "start": 0.5583,
      "duration": 0.0004,
      "velocity": 120,
      "chip": "ym2612"
    },
    {
      "channel": 0,
      "note": 49,
      "start": 0.559,
      "duration": 0.0011,
      "velocity": 120,
      "chip": "ym2612"
    },
    {
      "channel": 1,
      "note": 52,
      "start": 0.5592,
      "duration": 0.001,
      "velocity": 95,
      "chip": "ym2612"
    },
    {
      "channel": 3,
      "note": 37,
      "start": 0.5596,
      "duration": 0.0007,
      "velocity": 117,
      "chip": "ym2612"
    },
    {
      "channel": 4,
      "note": 47,
      "start": 0.5598,
      "duration": 0.0005,
      "velocity": 120,
      "chip": "ym2612"
    },
    {
      "channel": 0,
      "note": 61,
      "start": 0.5607,
      "duration": 0.0023,
      "velocity": 120,
      "chip": "ym2612"
    },
    {
      "channel": 1,
      "note": 54,
      "start": 0.5609,
      "duration": 0.0007,
      "velocity": 95,
      "chip": "ym2612"
    },
    {
      "channel": 3,
      "note": 37,
      "start": 0.5613,
      "duration": 0.0004,
      "velocity": 117,
      "chip": "ym2612"
    },
    {
      "channel": 4,
      "note": 49,
      "start": 0.5614,
      "duration": 0.0004,
      "velocity": 120,
      "chip": "ym2612"
    },
    {
      "channel": 1,
      "note": 56,
      "start": 0.5621,
      "duration": 0.0009,
      "velocity": 95,
      "chip": "ym2612"
    },
    {
      "channel": 3,
      "note": 37,
      "start": 0.5624,
      "duration": 0.0007,
      "velocity": 117,
      "chip": "ym2612"
    },
    {
      "channel": 4,
      "note": 61,
      "start": 0.5628,
      "duration": 0.0027,
      "velocity": 120,
      "chip": "ym2612"
    },
    {
      "channel": 0,
      "note": 49,
      "start": 0.5633,
      "duration": 0.0014,
      "velocity": 120,
      "chip": "ym2612"
    },
    {
      "channel": 1,
      "note": 57,
      "start": 0.5635,
      "duration": 0.0013,
      "velocity": 95,
      "chip": "ym2612"
    },
    {
      "channel": 3,
      "note": 37,
      "start": 0.5638,
      "duration": 0.0003,
      "velocity": 117,
      "chip": "ym2612"
    },
    {
      "channel": 3,
      "note": 37,
      "start": 0.5645,
      "duration": 0.0005,
      "velocity": 117,
      "chip": "ym2612"
    },
    {
      "channel": 3,
      "note": 37,
      "start": 0.5653,
      "duration": 0.0004,
      "velocity": 117,
      "chip": "ym2612"
    },
    {
      "channel": 0,
      "note": 47,
      "start": 0.566,
      "duration": 0.0011,
      "velocity": 120,
      "chip": "ym2612"
    },
    {
      "channel": 1,
      "note": 59,
      "start": 0.5662,
      "duration": 0.0009,
      "velocity": 95,
      "chip": "ym2612"
    },
    {
      "channel": 3,
      "note": 40,
      "start": 0.5666,
      "duration": 0.0013,
      "velocity": 117,
      "chip": "ym2612"
    },
    {
      "channel": 4,
      "note": 49,
      "start": 0.567,
      "duration": 0.0002,
      "velocity": 120,
      "chip": "ym2612"
    },
    {
      "channel": 0,
      "note": 49,
      "start": 0.5675,
      "duration": 0.0007,
      "velocity": 120,
      "chip": "ym2612"
    },
    {
      "channel": 1,
      "note": 57,
      "start": 0.5677,
      "duration": 0.0005,
      "velocity": 95,
      "chip": "ym2612"
    },
    {
      "channel": 4,
      "note": 47,
      "start": 0.5681,
      "duration": 0.0003,
      "velocity": 120,
      "chip": "ym2612"
    },
    {
      "channel": 0,
      "note": 59,
      "start": 0.5687,
      "duration": 0.0012,
      "velocity": 120,
      "chip": "ym2612"
    },
    {
      "channel": 1,
      "note": 59,
      "start": 0.5689,
      "duration": 0.0009,
      "velocity": 95,
      "chip": "ym2612"
    },
    {
      "channel": 3,
      "note": 38,
      "start": 0.5693,
      "duration": 0.0015,
      "velocity": 117,
      "chip": "ym2612"
    },
    {
      "channel": 4,
      "note": 49,
      "start": 0.5697,
      "duration": 0.0003,
      "velocity": 120,
      "chip": "ym2612"
    },
    {
      "channel": 0,
      "note": 57,
      "start": 0.5704,
      "duration": 0.001,
      "velocity": 120,
      "chip": "ym2612"
    },
    {
      "channel": 1,
      "note": 61,
      "start": 0.5706,
      "duration": 0.0006,
      "velocity": 95,
      "chip": "ym2612"
    },
    {
      "channel": 4,
      "note": 59,
      "start": 0.571,
      "duration": 0.0005,
      "velocity": 120,
      "chip": "ym2612"
    },
    {
      "channel": 0,
      "note": 56,
      "start": 0.5723,
      "duration": 0.0141,
      "velocity": 120,
      "chip": "ym2612"
    },
    {
      "channel": 1,
      "note": 62,
      "start": 0.5725,
      "duration": 0.0027,
      "velocity": 95,
      "chip": "ym2612"
    },
    {
      "channel": 2,
      "note": 74,
      "start": 0.5727,
      "duration": 0.0133,
      "velocity": 111,
      "chip": "ym2612"
    },
    {
      "channel": 3,
      "note": 37,
      "start": 0.5732,
      "duration": 0.0027,
      "velocity": 117,
      "chip": "ym2612"
    },
    {
      "channel": 4,
      "note": 57,
      "start": 0.575,
      "duration": 0.0002,
      "velocity": 120,
      "chip": "ym2612"
    },
    {
      "channel": 1,
      "note": 61,
      "start": 0.5757,
      "duration": 0.001,
      "velocity": 95,
      "chip": "ym2612"
    },
    {
      "channel": 4,
      "note": 56,
      "start": 0.5766,
      "duration": 0.0134,
      "velocity": 120,
      "chip": "ym2612"
    },
    {
      "channel": 1,
      "note": 64,
      "start": 0.577,
      "duration": 0.0004,
      "velocity": 95,
      "chip": "ym2612"
    },
    {
      "channel": 3,
      "note": 37,
      "start": 0.5773,
      "duration": 0.0007,
      "velocity": 117,
      "chip": "ym2612"
    },
    {
      "channel": 1,
      "note": 62,
      "start": 0.5778,
      "duration": 0.0002,
      "velocity": 95,
      "chip": "ym2612"
    },
    {
      "channel": 1,
      "note": 68,
      "start": 0.5784,
      "duration": 0.0004,
      "velocity": 95,
      "chip": "ym2612"
    },
    {
      "channel": 3,
      "note": 37,
      "start": 0.5786,
      "duration": 0.0008,
      "velocity": 117,
      "chip": "ym2612"
    },
    {
      "channel": 1,
      "note": 64,
      "start": 0.5793,
      "duration": 0.0004,
      "velocity": 95,
      "chip": "ym2612"
    },
    {
      "channel": 1,
      "note": 69,
      "start": 0.5805,
      "duration": 0.0005,
      "velocity": 95,
      "chip": "ym2612"
    },
    {
      "channel": 3,
      "note": 40,
      "start": 0.5808,
      "duration": 0.0003,
      "velocity": 117,
      "chip": "ym2612"
    },
    {
      "channel": 1,
      "note": 66,
      "start": 0.5818,
      "duration": 0.0009,
      "velocity": 95,
      "chip": "ym2612"
    },
    {
      "channel": 3,
      "note": 42,
      "start": 0.5821,
      "duration": 0.0005,
      "velocity": 117,
      "chip": "ym2612"
    },
    {
      "channel": 3,
      "note": 40,
      "start": 0.583,
      "duration": 0.0001,
      "velocity": 117,
      "chip": "ym2612"
    },
    {
      "channel": 1,
      "note": 71,
      "start": 0.5838,
      "duration": 0.0007,
      "velocity": 95,
      "chip": "ym2612"
    },
    {
      "channel": 3,
      "note": 38,
      "start": 0.5841,
      "duration": 0.0012,
      "velocity": 117,
      "chip": "ym2612"
    },
    {
      "channel": 1,
      "note": 68,
      "start": 0.5853,
      "duration": 0.0007,
      "velocity": 95,
      "chip": "ym2612"
    },
    {
      "channel": 0,
      "note": 49,
      "start": 0.5875,
      "duration": 0.0012,
      "velocity": 120,
      "chip": "ym2612"
    },
    {
      "channel": 1,
      "note": 61,
      "start": 0.5877,
      "duration": 0.001,
      "velocity": 95,
      "chip": "ym2612"
    },
    {
      "channel": 2,
      "note": 73,
      "start": 0.588,
      "duration": 0.0177,
      "velocity": 111,
      "chip": "ym2612"
    },
    {
      "channel": 3,
      "note": 37,
      "start": 0.5884,
      "duration": 0.0004,
      "velocity": 117,
      "chip": "ym2612"
    },
    {
      "channel": 0,
      "note": 47,
      "start": 0.5893,
      "duration": 0.0017,
      "velocity": 120,
      "chip": "ym2612"
    },
    {
      "channel": 1,
      "note": 59,
      "start": 0.5896,
      "duration": 0.0016,
      "velocity": 95,
      "chip": "ym2612"
    },
    {
      "channel": 3,
      "note": 37,
      "start": 0.59,
      "duration": 0.0013,
      "velocity": 117,
      "chip": "ym2612"
    },
    {
      "channel": 4,
      "note": 49,
      "start": 0.5909,
      "duration": 0.0005,
      "velocity": 120,
      "chip": "ym2612"
    },
    {
      "channel": 0,
      "note": 49,
      "start": 0.5917,
      "duration": 0.0009,
      "velocity": 120,
      "chip": "ym2612"
    },
    {
      "channel": 1,
      "note": 61,
      "start": 0.5919,
      "duration": 0.0007,
      "velocity": 95,
      "chip": "ym2612"
    },
    {
      "channel": 3,
      "note": 37,
      "start": 0.5923,
      "duration": 0.0004,
      "velocity": 117,
      "chip": "ym2612"
    },
    {
      "channel": 4,
      "note": 47,
      "start": 0.5924,
      "duration": 0.0005,
      "velocity": 120,
      "chip": "ym2612"
    },
    {
      "channel": 0,
      "note": 61,
      "start": 0.5933,
      "duration": 0.0021,
      "velocity": 120,
      "chip": "ym2612"
    },
    {
      "channel": 1,
      "note": 62,
      "start": 0.5936,
      "duration": 0.0007,
      "velocity": 95,
      "chip": "ym2612"
    },
    {
      "channel": 3,
      "note": 37,
      "start": 0.5939,
      "duration": 0.0005,
      "velocity": 117,
      "chip": "ym2612"
    },
    {
      "channel": 4,
      "note": 49,
      "start": 0.5943,
      "duration": 0.0002,
      "velocity": 120,
      "chip": "ym2612"
    },
    {
      "channel": 1,
      "note": 64,
      "start": 0.5948,
      "duration": 0.0007,
      "velocity": 95,
      "chip": "ym2612"
    },
    {
      "channel": 3,
      "note": 37,
      "start": 0.5951,
      "duration": 0.0004,
      "velocity": 117,
      "chip": "ym2612"
    },
    {
      "channel": 4,
      "note": 61,
      "start": 0.5953,
      "duration": 0.0051,
      "velocity": 120,
      "chip": "ym2612"
    },
    {
      "channel": 0,
      "note": 49,
      "start": 0.5958,
      "duration": 0.004,
      "velocity": 120,
      "chip": "ym2612"
    },
    {
      "channel": 1,
      "note": 66,
      "start": 0.5961,
      "duration": 0.0038,
      "velocity": 95,
      "chip": "ym2612"
    },
    {
      "channel": 3,
      "note": 37,
      "start": 0.5964,
      "duration": 0.0027,
      "velocity": 117,
      "chip": "ym2612"
    },
    {
      "channel": 3,
      "note": 37,
      "start": 0.5995,
      "duration": 0.0005,
      "velocity": 117,
      "chip": "ym2612"
    },
    {
      "channel": 3,
      "note": 37,
      "start": 0.6004,
      "duration": 0.0003,
      "velocity": 117,
      "chip": "ym2612"
    },
    {
      "channel": 0,
      "note": 47,
      "start": 0.6009,
      "duration": 0.0012,
      "velocity": 120,
      "chip": "ym2612"
    },
    {
      "channel": 1,
      "note": 68,
      "start": 0.6012,
      "duration": 0.001,
      "velocity": 95,
      "chip": "ym2612"
    },
    {
      "channel": 3,
      "note": 40,
      "start": 0.6016,
      "duration": 0.0015,
      "velocity": 117,
      "chip": "ym2612"
    },
    {
      "channel": 4,
      "note": 49,
      "start": 0.602,
      "duration": 0.0003,
      "velocity": 120,
      "chip": "ym2612"
    },
    {
      "channel": 0,
      "note": 49,
      "start": 0.6027,
      "duration": 0.0006,
      "velocity": 120,
      "chip": "ym2612"
    },
    {
      "channel": 1,
      "note": 64,
      "start": 0.6029,
      "duration": 0.0005,
      "velocity": 95,
      "chip": "ym2612"
    },
    {
      "channel": 4,
      "note": 47,
      "start": 0.6032,
      "duration": 0.0002,
      "velocity": 120,
      "chip": "ym2612"
    },
    {
      "channel": 0,
      "note": 59,
      "start": 0.6038,
      "duration": 0.0019,
      "velocity": 120,
      "chip": "ym2612"
    },
    {
      "channel": 1,
      "note": 66,
      "start": 0.604,
      "duration": 0.0009,
      "velocity": 95,
      "chip": "ym2612"
    },
    {
      "channel": 3,
      "note": 38,
      "start": 0.6044,
      "duration": 0.0009,
      "velocity": 117,
      "chip": "ym2612"
    },
    {
      "channel": 4,
      "note": 49,
      "start": 0.6049,
      "duration": 0.0001,
      "velocity": 120,
      "chip": "ym2612"
    },
    {
      "channel": 1,
      "note": 62,
      "start": 0.6052,
      "duration": 0.0004,
      "velocity": 95,
      "chip": "ym2612"
    },
    {
      "channel": 4,
      "note": 59,
      "start": 0.6056,
      "duration": 0.0021,
      "velocity": 120,
      "chip": "ym2612"
    },
    {
      "channel": 0,
      "note": 49,
      "start": 0.606,
      "duration": 0.0014,
      "velocity": 120,
      "chip": "ym2612"
    },
    {
      "channel": 1,
      "note": 61,
      "start": 0.6063,
      "duration": 0.0012,
      "velocity": 95,
      "chip": "ym2612"
    },
    {
      "channel": 2,
      "note": 74,
      "start": 0.6067,
      "duration": 0.0149,
      "velocity": 111,
      "chip": "ym2612"
    },
    {
      "channel": 3,
      "note": 37,
      "start": 0.6071,
      "duration": 0.0012,
      "velocity": 117,
      "chip": "ym2612"
    },
    {
      "channel": 0,
      "note": 47,
      "start": 0.608,
      "duration": 0.0007,
      "velocity": 120,
      "chip": "ym2612"
    },
    {
      "channel": 1,
      "note": 59,
      "start": 0.6082,
      "duration": 0.0006,
      "velocity": 95,
      "chip": "ym2612"
    },
    {
      "channel": 4,
      "note": 49,
      "start": 0.6087,
      "duration": 0.0002,
      "velocity": 120,
      "chip": "ym2612"
    },
    {
      "channel": 0,
      "note": 49,
      "start": 0.6091,
      "duration": 0.001,
      "velocity": 120,
      "chip": "ym2612"
    },
    {
      "channel": 1,
      "note": 61,
      "start": 0.6093,
      "duration": 0.0009,
      "velocity": 95,
      "chip": "ym2612"
    },
    {
      "channel": 3,
      "note": 37,
      "start": 0.6097,
      "duration": 0.0013,
      "velocity": 117,
      "chip": "ym2612"
    },
    {
      "channel": 4,
      "note": 47,
      "start": 0.61,
      "duration": 0.0004,
      "velocity": 120,
      "chip": "ym2612"
    },
    {
      "channel": 0,
      "note": 61,
      "start": 0.6107,
      "duration": 0.0017,
      "velocity": 120,
      "chip": "ym2612"
    },
    {
      "channel": 1,
      "note": 62,
      "start": 0.6109,
      "duration": 0.0005,
      "velocity": 95,
      "chip": "ym2612"
    },
    {
      "channel": 4,
      "note": 49,
      "start": 0.6112,
      "duration": 0.0003,
      "velocity": 120,
      "chip": "ym2612"
    },
    {
      "channel": 1,
      "note": 57,
      "start": 0.6118,
      "duration": 0.0007,
      "velocity": 95,
      "chip": "ym2612"
    },
    {
      "channel": 3,
      "note": 37,
      "start": 0.6121,
      "duration": 0.0004,
      "velocity": 117,
      "chip": "ym2612"
    },
    {
      "channel": 4,
      "note": 61,
      "start": 0.6123,
      "duration": 0.0027,
      "velocity": 120,
      "chip": "ym2612"
    },
    {
      "channel": 0,
      "note": 49,
      "start": 0.6128,
      "duration": 0.0015,
      "velocity": 120,
      "chip": "ym2612"
    },
    {
      "channel": 1,
      "note": 59,
      "start": 0.6131,
      "duration": 0.0014,
      "velocity": 95,
      "chip": "ym2612"
    },
    {
      "channel": 3,
      "note": 37,
      "start": 0.6134,
      "duration": 0.0003,
      "velocity": 117,
      "chip": "ym2612"
    },
    {
      "channel": 3,
      "note": 37,
      "start": 0.6141,
      "duration": 0.0005,
      "velocity": 117,
      "chip": "ym2612"
    },
    {
      "channel": 3,
      "note": 37,
      "start": 0.615,
      "duration": 0.0004,
      "velocity": 117,
      "chip": "ym2612"
    },
    {
      "channel": 0,
      "note": 47,
      "start": 0.6155,
      "duration": 0.0011,
      "velocity": 120,
      "chip": "ym2612"
    },
    {
      "channel": 1,
      "note": 56,
      "start": 0.6157,
      "duration": 0.001,
      "velocity": 95,
      "chip": "ym2612"
    },
    {
      "channel": 3,
      "note": 47,
      "start": 0.6161,
      "duration": 0.0008,
      "velocity": 117,
      "chip": "ym2612"
    },
    {
      "channel": 4,
      "note": 49,
      "start": 0.6166,
      "duration": 0.0004,
      "velocity": 120,
      "chip": "ym2612"
    },
    {
      "channel": 0,
      "note": 49,
      "start": 0.6172,
      "duration": 0.001,
      "velocity": 120,
      "chip": "ym2612"
    },
    {
      "channel": 1,
      "note": 57,
      "start": 0.6175,
      "duration": 0.0009,
      "velocity": 95,
      "chip": "ym2612"
    },
    {
      "channel": 3,
      "note": 45,
      "start": 0.6177,
      "duration": 0.0004,
      "velocity": 117,
      "chip": "ym2612"
    },
    {
      "channel": 4,
      "note": 47,
      "start": 0.618,
      "duration": 0.0007,
      "velocity": 120,
      "chip": "ym2612"
    },
    {
      "channel": 3,
      "note": 47,
      "start": 0.6186,
      "duration": 0.0002,
      "velocity": 117,
      "chip": "ym2612"
    },
    {
      "channel": 0,
      "note": 59,
      "start": 0.6191,
      "duration": 0.0024,
      "velocity": 120,
      "chip": "ym2612"
    },
    {
      "channel": 1,
      "note": 54,
      "start": 0.6194,
      "duration": 0.0008,
      "velocity": 95,
      "chip": "ym2612"
    },
    {
      "channel": 3,
      "note": 38,
      "start": 0.6197,
      "duration": 0.0014,
      "velocity": 117,
      "chip": "ym2612"
    },
    {
      "channel": 4,
      "note": 49,
      "start": 0.6201,
      "duration": 0.0003,
      "velocity": 120,
      "chip": "ym2612"
    },
    {
      "channel": 1,
      "note": 56,
      "start": 0.621,
      "duration": 0.0005,
      "velocity": 95,
      "chip": "ym2612"
    },
    {
      "channel": 4,
      "note": 59,
      "start": 0.6214,
      "duration": 0.0034,
      "velocity": 120,
      "chip": "ym2612"
    },
    {
      "channel": 0,
      "note": 49,
      "start": 0.6219,
      "duration": 0.0026,
      "velocity": 120,
      "chip": "ym2612"
    },
    {
      "channel": 1,
      "note": 52,
      "start": 0.6222,
      "duration": 0.0024,
      "velocity": 95,
      "chip": "ym2612"
    },
    {
      "channel": 2,
      "note": 76,
      "start": 0.6225,
      "duration": 0.0172,
      "velocity": 111,
      "chip": "ym2612"
    },
    {
      "channel": 3,
      "note": 37,
      "start": 0.6227,
      "duration": 0.0019,
      "velocity": 117,
      "chip": "ym2612"
    },
    {
      "channel": 0,
      "note": 47,
      "start": 0.625,
      "duration": 0.0014,
      "velocity": 120,
      "chip": "ym2612"
    },
    {
      "channel": 1,
      "note": 50,
      "start": 0.6252,
      "duration": 0.0013,
      "velocity": 95,
      "chip": "ym2612"
    },
    {
      "channel": 3,
      "note": 37,
      "start": 0.6256,
      "duration": 0.001,
      "velocity": 117,
      "chip": "ym2612"
    },
    {
      "channel": 4,
      "note": 49,
      "start": 0.626,
      "duration": 0.0007,
      "velocity": 120,
      "chip": "ym2612"
    },
    {
      "channel": 0,
      "note": 49,
      "start": 0.6271,
      "duration": 0.001,
      "velocity": 120,
      "chip": "ym2612"
    },
    {
      "channel": 1,
      "note": 52,
      "start": 0.6273,
      "duration": 0.0008,
      "velocity": 95,
      "chip": "ym2612"
    },
    {
      "channel": 3,
      "note": 37,
      "start": 0.6277,
      "duration": 0.0005,
      "velocity": 117,
      "chip": "ym2612"
    },
    {
      "channel": 4,
      "note": 47,
      "start": 0.6279,
      "duration": 0.0004,
      "velocity": 120,
      "chip": "ym2612"
    },
    {
      "channel": 0,
      "note": 61,
      "start": 0.6286,
      "duration": 0.0022,
      "velocity": 120,
      "chip": "ym2612"
    },
    {
      "channel": 1,
      "note": 54,
      "start": 0.6289,
      "duration": 0.0007,
      "velocity": 95,
      "chip": "ym2612"
    },
    {
      "channel": 3,
      "note": 37,
      "start": 0.6293,
      "duration": 0.0004,
      "velocity": 117,
      "chip": "ym2612"
    },
    {
      "channel": 4,
      "note": 49,
      "start": 0.6294,
      "duration": 0.0003,
      "velocity": 120,
      "chip": "ym2612"
    },
    {
      "channel": 1,
      "note": 56,
      "start": 0.6301,
      "duration": 0.0008,
      "velocity": 95,
      "chip": "ym2612"
    },
    {
      "channel": 3,
      "note": 37,
      "start": 0.6305,
      "duration": 0.0005,
      "velocity": 117,
      "chip": "ym2612"
    },
    {
      "channel": 4,
      "note": 61,
      "start": 0.6308,
      "duration": 0.0027,
      "velocity": 120,
      "chip": "ym2612"
    },
    {
      "channel": 0,
      "note": 49,
      "start": 0.6313,
      "duration": 0.0015,
      "velocity": 120,
      "chip": "ym2612"
    },
    {
      "channel": 1,
      "note": 57,
      "start": 0.6315,
      "duration": 0.0014,
      "velocity": 95,
      "chip": "ym2612"
    },
    {
      "channel": 3,
      "note": 37,
      "start": 0.6319,
      "duration": 0.0003,
      "velocity": 117,
      "chip": "ym2612"
    },
    {
      "channel": 3,
      "note": 37,
      "start": 0.6325,
      "duration": 0.0005,
      "velocity": 117,
      "chip": "ym2612"
    },
    {
      "channel": 3,
      "note": 37,
      "start": 0.6334,
      "duration": 0.0005,
      "velocity": 117,
      "chip": "ym2612"
    },
    {
      "channel": 0,
      "note": 47,
      "start": 0.6341,
      "duration": 0.0011,
      "velocity": 120,
      "chip": "ym2612"
    },
    {
      "channel": 1,
      "note": 59,
      "start": 0.6343,
      "duration": 0.001,
      "velocity": 95,
      "chip": "ym2612"
    },
    {
      "channel": 3,
      "note": 40,
      "start": 0.6346,
      "duration": 0.0014,
      "velocity": 117,
      "chip": "ym2612"
    },
    {
      "channel": 4,
      "note": 49,
      "start": 0.6351,
      "duration": 0.0002,
      "velocity": 120,
      "chip": "ym2612"
    },
    {
      "channel": 0,
      "note": 49,
      "start": 0.6356,
      "duration": 0.0008,
      "velocity": 120,
      "chip": "ym2612"
    },
    {
      "channel": 1,
      "note": 57,
      "start": 0.6358,
      "duration": 0.0007,
      "velocity": 95,
      "chip": "ym2612"
    },
    {
      "channel": 4,
      "note": 47,
      "start": 0.6363,
      "duration": 0.0004,
      "velocity": 120,
      "chip": "ym2612"
    },
    {
      "channel": 0,
      "note": 62,
      "start": 0.637,
      "duration": 0.0013,
      "velocity": 120,
      "chip": "ym2612"
    },
    {
      "channel": 1,
      "note": 59,
      "start": 0.6372,
      "duration": 0.001,
      "velocity": 95,
      "chip": "ym2612"
    },
    {
      "channel": 3,
      "note": 42,
      "start": 0.6376,
      "duration": 0.0016,
      "velocity": 117,
      "chip": "ym2612"
    },
    {
      "channel": 4,
      "note": 49,
      "start": 0.6378,
      "duration": 0.0005,
      "velocity": 120,
      "chip": "ym2612"
    },
    {
      "channel": 0,
      "note": 64,
      "start": 0.6388,
      "duration": 0.0008,
      "velocity": 120,
      "chip": "ym2612"
    },
    {
      "channel": 1,
      "note": 61,
      "start": 0.639,
      "duration": 0.0005,
      "velocity": 95,
      "chip": "ym2612"
    },
    {
      "channel": 4,
      "note": 62,
      "start": 0.6394,
      "duration": 0.0004,
      "velocity": 120,
      "chip": "ym2612"
    },
    {
      "channel": 0,
      "note": 80,
      "start": 0.6404,
      "duration": 0.0064,
      "velocity": 112,
      "chip": "ym2612"
    },
    {
      "channel": 1,
      "note": 62,
      "start": 0.6406,
      "duration": 0.0035,
      "velocity": 95,
      "chip": "ym2612"
    },
    {
      "channel": 2,
      "note": 74,
      "start": 0.6409,
      "duration": 0.0224,
      "velocity": 111,
      "chip": "ym2612"
    },
    {
      "channel": 3,
      "note": 44,
      "start": 0.6413,
      "duration": 0.0035,
      "velocity": 117,
      "chip": "ym2612"
    },
    {
      "channel": 4,
      "note": 64,
      "start": 0.644,
      "duration": 0.0003,
      "velocity": 120,
      "chip": "ym2612"
    },
    {
      "channel": 1,
      "note": 61,
      "start": 0.6447,
      "duration": 0.001,
      "velocity": 95,
      "chip": "ym2612"
    },
    {
      "channel": 4,
      "note": 80,
      "start": 0.6457,
      "duration": 0.0037,
      "velocity": 112,
      "chip": "ym2612"
    },
    {
      "channel": 1,
      "note": 64,
      "start": 0.646,
      "duration": 0.0003,
      "velocity": 95,
      "chip": "ym2612"
    },
    {
      "channel": 3,
      "note": 44,
      "start": 0.6463,
      "duration": 0.0007,
      "velocity": 117,
      "chip": "ym2612"
    },
    {
      "channel": 1,
      "note": 62,
      "start": 0.6467,
      "duration": 0.0012,
      "velocity": 95,
      "chip": "ym2612"
    },
    {
      "channel": 0,
      "note": 80,
      "start": 0.6478,
      "duration": 0.0156,
      "velocity": 101,
      "chip": "ym2612"
    },
    {
      "channel": 1,
      "note": 68,
      "start": 0.6486,
      "duration": 0.0008,
      "velocity": 95,
      "chip": "ym2612"
    },
    {
      "channel": 3,
      "note": 44,
      "start": 0.6488,
      "duration": 0.0006,
      "velocity": 117,
      "chip": "ym2612"
    },
    {
      "channel": 4,
      "note": 80,
      "start": 0.6502,
      "duration": 0.0157,
      "velocity": 120,
      "chip": "ym2612"
    },
    {
      "channel": 1,
      "note": 64,
      "start": 0.6512,
      "duration": 0.0016,
      "velocity": 95,
      "chip": "ym2612"
    },
    {
      "channel": 3,
      "note": 44,
      "start": 0.6515,
      "duration": 0.0003,
      "velocity": 117,
      "chip": "ym2612"
    },
    {
      "channel": 3,
      "note": 44,
      "start": 0.6525,
      "duration": 0.0003,
      "velocity": 117,
      "chip": "ym2612"
    },
    {
      "channel": 3,
      "note": 44,
      "start": 0.6537,
      "duration": 0.0003,
      "velocity": 117,
      "chip": "ym2612"
    },
    {
      "channel": 1,
      "note": 69,
      "start": 0.6546,
      "duration": 0.001,
      "velocity": 95,
      "chip": "ym2612"
    },
    {
      "channel": 3,
      "note": 40,
      "start": 0.6549,
      "duration": 0.0008,
      "velocity": 117,
      "chip": "ym2612"
    },
    {
      "channel": 1,
      "note": 66,
      "start": 0.657,
      "duration": 0.0011,
      "velocity": 95,
      "chip": "ym2612"
    },
    {
      "channel": 3,
      "note": 42,
      "start": 0.6573,
      "duration": 0.0006,
      "velocity": 117,
      "chip": "ym2612"
    },
    {
      "channel": 3,
      "note": 40,
      "start": 0.6584,
      "duration": 0.0006,
      "velocity": 117,
      "chip": "ym2612"
    },
    {
      "channel": 1,
      "note": 71,
      "start": 0.6598,
      "duration": 0.0011,
      "velocity": 95,
      "chip": "ym2612"
    },
    {
      "channel": 3,
      "note": 38,
      "start": 0.6601,
      "duration": 0.0022,
      "velocity": 117,
      "chip": "ym2612"
    },
    {
      "channel": 1,
      "note": 68,
      "start": 0.6622,
      "duration": 0.0007,
      "velocity": 95,
      "chip": "ym2612"
    },
    {
      "channel": 0,
      "note": 49,
      "start": 0.6644,
      "duration": 0.002,
      "velocity": 120,
      "chip": "ym2612"
    },
    {
      "channel": 1,
      "note": 61,
      "start": 0.6646,
      "duration": 0.0018,
      "velocity": 95,
      "chip": "ym2612"
    },
    {
      "channel": 2,
      "note": 73,
      "start": 0.6649,
      "duration": 0.0178,
      "velocity": 111,
      "chip": "ym2612"
    },
    {
      "channel": 3,
      "note": 37,
      "start": 0.6652,
      "duration": 0.0014,
      "velocity": 117,
      "chip": "ym2612"
    },
    {
      "channel": 4,
      "note": 49,
      "start": 0.6661,
      "duration": 0.0014,
      "velocity": 120,
      "chip": "ym2612"
    },
    {
      "channel": 0,
      "note": 47,
      "start": 0.6669,
      "duration": 0.0008,
      "velocity": 120,
      "chip": "ym2612"
    },
    {
      "channel": 1,
      "note": 59,
      "start": 0.6671,
      "duration": 0.0007,
      "velocity": 95,
      "chip": "ym2612"
    },
    {
      "channel": 3,
      "note": 37,
      "start": 0.6675,
      "duration": 0.0004,
      "velocity": 117,
      "chip": "ym2612"
    },
    {
      "channel": 0,
      "note": 49,
      "start": 0.6683,
      "duration": 0.0009,
      "velocity": 120,
      "chip": "ym2612"
    },
    {
      "channel": 1,
      "note": 61,
      "start": 0.6685,
      "duration": 0.0008,
      "velocity": 95,
      "chip": "ym2612"
    },
    {
      "channel": 3,
      "note": 37,
      "start": 0.6688,
      "duration": 0.0005,
      "velocity": 117,
      "chip": "ym2612"
    },
    {
      "channel": 4,
      "note": 47,
      "start": 0.6691,
      "duration": 0.0003,
      "velocity": 120,
      "chip": "ym2612"
    },
    {
      "channel": 0,
      "note": 61,
      "start": 0.6697,
      "duration": 0.0021,
      "velocity": 120,
      "chip": "ym2612"
    },
    {
      "channel": 1,
      "note": 62,
      "start": 0.6699,
      "duration": 0.0008,
      "velocity": 95,
      "chip": "ym2612"
    },
    {
      "channel": 3,
      "note": 37,
      "start": 0.6703,
      "duration": 0.0005,
      "velocity": 117,
      "chip": "ym2612"
    },
    {
      "channel": 4,
      "note": 49,
      "start": 0.6706,
      "duration": 0.0002,
      "velocity": 120,
      "chip": "ym2612"
    },
    {
      "channel": 1,
      "note": 64,
      "start": 0.6712,
      "duration": 0.0007,
      "velocity": 95,
      "chip": "ym2612"
    },
    {
      "channel": 3,
      "note": 37,
      "start": 0.6714,
      "duration": 0.0005,
      "velocity": 117,
      "chip": "ym2612"
    },
    {
      "channel": 4,
      "note": 61,
      "start": 0.6717,
      "duration": 0.0052,
      "velocity": 120,
      "chip": "ym2612"
    },
    {
      "channel": 0,
      "note": 49,
      "start": 0.6722,
      "duration": 0.0041,
      "velocity": 120,
      "chip": "ym2612"
    },
    {
      "channel": 1,
      "note": 66,
      "start": 0.6725,
      "duration": 0.0039,
      "velocity": 95,
      "chip": "ym2612"
    },
    {
      "channel": 3,
      "note": 37,
      "start": 0.6729,
      "duration": 0.0027,
      "velocity": 117,
      "chip": "ym2612"
    },
    {
      "channel": 3,
      "note": 37,
      "start": 0.676,
      "duration": 0.0004,
      "velocity": 117,
      "chip": "ym2612"
    },
    {
      "channel": 3,
      "note": 37,
      "start": 0.6768,
      "duration": 0.0001,
      "velocity": 117,
      "chip": "ym2612"
    },
    {
      "channel": 0,
      "note": 47,
      "start": 0.6775,
      "duration": 0.0012,
      "velocity": 120,
      "chip": "ym2612"
    },
    {
      "channel": 1,
      "note": 68,
      "start": 0.6776,
      "duration": 0.0012,
      "velocity": 95,
      "chip": "ym2612"
    },
    {
      "channel": 3,
      "note": 40,
      "start": 0.678,
      "duration": 0.0016,
      "velocity": 117,
      "chip": "ym2612"
    },
    {
      "channel": 4,
      "note": 49,
      "start": 0.6786,
      "duration": 0.0004,
      "velocity": 120,
      "chip": "ym2612"
    },
    {
      "channel": 0,
      "note": 49,
      "start": 0.6793,
      "duration": 0.0007,
      "velocity": 120,
      "chip": "ym2612"
    },
    {
      "channel": 1,
      "note": 64,
      "start": 0.6795,
      "duration": 0.0006,
      "velocity": 95,
      "chip": "ym2612"
    },
    {
      "channel": 4,
      "note": 47,
      "start": 0.6798,
      "duration": 0.0003,
      "velocity": 120,
      "chip": "ym2612"
    },
    {
      "channel": 0,
      "note": 59,
      "start": 0.6805,
      "duration": 0.0019,
      "velocity": 120,
      "chip": "ym2612"
    },
    {
      "channel": 1,
      "note": 66,
      "start": 0.6807,
      "duration": 0.0009,
      "velocity": 95,
      "chip": "ym2612"
    },
    {
      "channel": 3,
      "note": 38,
      "start": 0.681,
      "duration": 0.0011,
      "velocity": 117,
      "chip": "ym2612"
    },
    {
      "channel": 4,
      "note": 49,
      "start": 0.6816,
      "duration": 0.0002,
      "velocity": 120,
      "chip": "ym2612"
    },
    {
      "channel": 1,
      "note": 62,
      "start": 0.6821,
      "duration": 0.0005,
      "velocity": 95,
      "chip": "ym2612"
    },
    {
      "channel": 4,
      "note": 59,
      "start": 0.6824,
      "duration": 0.0021,
      "velocity": 120,
      "chip": "ym2612"
    },
    {
      "channel": 0,
      "note": 49,
      "start": 0.683,
      "duration": 0.0012,
      "velocity": 120,
      "chip": "ym2612"
    },
    {
      "channel": 1,
      "note": 61,
      "start": 0.6833,
      "duration": 0.0011,
      "velocity": 95,
      "chip": "ym2612"
    },
    {
      "channel": 2,
      "note": 74,
      "start": 0.6836,
      "duration": 0.015,
      "velocity": 111,
      "chip": "ym2612"
    },
    {
      "channel": 3,
      "note": 37,
      "start": 0.6839,
      "duration": 0.0012,
      "velocity": 117,
      "chip": "ym2612"
    },
    {
      "channel": 0,
      "note": 47,
      "start": 0.6848,
      "duration": 0.0007,
      "velocity": 120,
      "chip": "ym2612"
    },
    {
      "channel": 1,
      "note": 59,
      "start": 0.685,
      "duration": 0.0006,
      "velocity": 95,
      "chip": "ym2612"
    },
    {
      "channel": 4,
      "note": 49,
      "start": 0.6854,
      "duration": 0.0004,
      "velocity": 120,
      "chip": "ym2612"
    },
    {
      "channel": 0,
      "note": 49,
      "start": 0.6861,
      "duration": 0.0008,
      "velocity": 120,
      "chip": "ym2612"
    },
    {
      "channel": 1,
      "note": 61,
      "start": 0.6863,
      "duration": 0.0007,
      "velocity": 95,
      "chip": "ym2612"
    },
    {
      "channel": 3,
      "note": 37,
      "start": 0.6866,
      "duration": 0.001,
      "velocity": 117,
      "chip": "ym2612"
    },
    {
      "channel": 4,
      "note": 47,
      "start": 0.6868,
      "duration": 0.0002,
      "velocity": 120,
      "chip": "ym2612"
    },
    {
      "channel": 0,
      "note": 61,
      "start": 0.6873,
      "duration": 0.0018,
      "velocity": 120,
      "chip": "ym2612"
    },
    {
      "channel": 1,
      "note": 62,
      "start": 0.6875,
      "duration": 0.0004,
      "velocity": 95,
      "chip": "ym2612"
    },
    {
      "channel": 4,
      "note": 49,
      "start": 0.6879,
      "duration": 0.0002,
      "velocity": 120,
      "chip": "ym2612"
    },
    {
      "channel": 1,
      "note": 57,
      "start": 0.6883,
      "duration": 0.0008,
      "velocity": 95,
      "chip": "ym2612"
    },
    {
      "channel": 3,
      "note": 37,
      "start": 0.6887,
      "duration": 0.0006,
      "velocity": 117,
      "chip": "ym2612"
    },
    {
      "channel": 4,
      "note": 61,
      "start": 0.689,
      "duration": 0.0027,
      "velocity": 120,
      "chip": "ym2612"
    },
    {
      "channel": 0,
      "note": 49,
      "start": 0.6897,
      "duration": 0.0014,
      "velocity": 120,
      "chip": "ym2612"
    },
    {
      "channel": 1,
      "note": 59,
      "start": 0.6899,
      "duration": 0.0012,
      "velocity": 95,
      "chip": "ym2612"
    },
    {
      "channel": 3,
      "note": 37,
      "start": 0.6902,
      "duration": 0.0003,
      "velocity": 117,
      "chip": "ym2612"
    },
    {
      "channel": 3,
      "note": 37,
      "start": 0.6909,
      "duration": 0.0002,
      "velocity": 117,
      "chip": "ym2612"
    },
    {
      "channel": 3,
      "note": 37,
      "start": 0.6917,
      "duration": 0.0003,
      "velocity": 117,
      "chip": "ym2612"
    },
    {
      "channel": 0,
      "note": 47,
      "start": 0.6923,
      "duration": 0.0011,
      "velocity": 120,
      "chip": "ym2612"
    },
    {
      "channel": 1,
      "note": 56,
      "start": 0.6925,
      "duration": 0.001,
      "velocity": 95,
      "chip": "ym2612"
    },
    {
      "channel": 3,
      "note": 47,
      "start": 0.6929,
      "duration": 0.0006,
      "velocity": 117,
      "chip": "ym2612"
    },
    {
      "channel": 4,
      "note": 49,
      "start": 0.6933,
      "duration": 0.0003,
      "velocity": 120,
      "chip": "ym2612"
    },
    {
      "channel": 0,
      "note": 49,
      "start": 0.6939,
      "duration": 0.0012,
      "velocity": 120,
      "chip": "ym2612"
    },
    {
      "channel": 1,
      "note": 57,
      "start": 0.6941,
      "duration": 0.0011,
      "velocity": 95,
      "chip": "ym2612"
    },
    {
      "channel": 3,
      "note": 45,
      "start": 0.6944,
      "duration": 0.0005,
      "velocity": 117,
      "chip": "ym2612"
    },
    {
      "channel": 4,
      "note": 47,
      "start": 0.6948,
      "duration": 0.0008,
      "velocity": 120,
      "chip": "ym2612"
    },
    {
      "channel": 3,
      "note": 47,
      "start": 0.6955,
      "duration": 0.0002,
      "velocity": 117,
      "chip": "ym2612"
    },
    {
      "channel": 0,
      "note": 59,
      "start": 0.6961,
      "duration": 0.0022,
      "velocity": 120,
      "chip": "ym2612"
    },
    {
      "channel": 1,
      "note": 54,
      "start": 0.6964,
      "duration": 0.0009,
      "velocity": 95,
      "chip": "ym2612"
    },
    {
      "channel": 3,
      "note": 38,
      "start": 0.6967,
      "duration": 0.0013,
      "velocity": 117,
      "chip": "ym2612"
    },
    {
      "channel": 4,
      "note": 49,
      "start": 0.6972,
      "duration": 0.0002,
      "velocity": 120,
      "chip": "ym2612"
    },
    {
      "channel": 1,
      "note": 56,
      "start": 0.6978,
      "duration": 0.0006,
      "velocity": 95,
      "chip": "ym2612"
    },
    {
      "channel": 4,
      "note": 59,
      "start": 0.6981,
      "duration": 0.0037,
      "velocity": 120,
      "chip": "ym2612"
    },
    {
      "channel": 0,
      "note": 49,
      "start": 0.6988,
      "duration": 0.0026,
      "velocity": 120,
      "chip": "ym2612"
    },
    {
      "channel": 1,
      "note": 52,
      "start": 0.699,
      "duration": 0.0025,
      "velocity": 95,
      "chip": "ym2612"
    },
    {
      "channel": 2,
      "note": 76,
      "start": 0.6993,
      "duration": 0.0189,
      "velocity": 111,
      "chip": "ym2612"
    },
    {
      "channel": 3,
      "note": 37,
      "start": 0.6997,
      "duration": 0.0019,
      "velocity": 117,
      "chip": "ym2612"
    },
    {
      "channel": 0,
      "note": 47,
      "start": 0.7021,
      "duration": 0.0009,
      "velocity": 120,
      "chip": "ym2612"
    },
    {
      "channel": 1,
      "note": 50,
      "start": 0.7024,
      "duration": 0.0008,
      "velocity": 95,
      "chip": "ym2612"
    },
    {
      "channel": 3,
      "note": 37,
      "start": 0.7027,
      "duration": 0.0006,
      "velocity": 117,
      "chip": "ym2612"
    },
    {
      "channel": 4,
      "note": 49,
      "start": 0.703,
      "duration": 0.0004,
      "velocity": 120,
      "chip": "ym2612"
    },
    {
      "channel": 0,
      "note": 49,
      "start": 0.7037,
      "duration": 0.001,
      "velocity": 120,
      "chip": "ym2612"
    },
    {
      "channel": 1,
      "note": 52,
      "start": 0.704,
      "duration": 0.0008,
      "velocity": 95,
      "chip": "ym2612"
    },
    {
      "channel": 3,
      "note": 37,
      "start": 0.7043,
      "duration": 0.0006,
      "velocity": 117,
      "chip": "ym2612"
    },
    {
      "channel": 4,
      "note": 47,
      "start": 0.7046,
      "duration": 0.0005,
      "velocity": 120,
      "chip": "ym2612"
    },
    {
      "channel": 0,
      "note": 61,
      "start": 0.7053,
      "duration": 0.0021,
      "velocity": 120,
      "chip": "ym2612"
    },
    {
      "channel": 1,
      "note": 54,
      "start": 0.7055,
      "duration": 0.0006,
      "velocity": 95,
      "chip": "ym2612"
    },
    {
      "channel": 3,
      "note": 37,
      "start": 0.7059,
      "duration": 0.0004,
      "velocity": 117,
      "chip": "ym2612"
    },
    {
      "channel": 4,
      "note": 49,
      "start": 0.7061,
      "duration": 0.0003,
      "velocity": 120,
      "chip": "ym2612"
    },
    {
      "channel": 1,
      "note": 56,
      "start": 0.7068,
      "duration": 0.0008,
      "velocity": 95,
      "chip": "ym2612"
    },
    {
      "channel": 3,
      "note": 37,
      "start": 0.707,
      "duration": 0.0006,
      "velocity": 117,
      "chip": "ym2612"
    },
    {
      "channel": 4,
      "note": 61,
      "start": 0.7074,
      "duration": 0.0045,
      "velocity": 120,
      "chip": "ym2612"
    },
    {
      "channel": 0,
      "note": 49,
      "start": 0.7078,
      "duration": 0.0034,
      "velocity": 120,
      "chip": "ym2612"
    },
    {
      "channel": 1,
      "note": 57,
      "start": 0.708,
      "duration": 0.0032,
      "velocity": 95,
      "chip": "ym2612"
    },
    {
      "channel": 3,
      "note": 37,
      "start": 0.7084,
      "duration": 0.0021,
      "velocity": 117,
      "chip": "ym2612"
    },
    {
      "channel": 3,
      "note": 37,
      "start": 0.7109,
      "duration": 0.0005,
      "velocity": 117,
      "chip": "ym2612"
    },
    {
      "channel": 3,
      "note": 37,
      "start": 0.7118,
      "duration": 0.0004,
      "velocity": 117,
      "chip": "ym2612"
    },
    {
      "channel": 0,
      "note": 47,
      "start": 0.7125,
      "duration": 0.0012,
      "velocity": 120,
      "chip": "ym2612"
    },
    {
      "channel": 1,
      "note": 59,
      "start": 0.7127,
      "duration": 0.0012,
      "velocity": 95,
      "chip": "ym2612"
    },
    {
      "channel": 3,
      "note": 40,
      "start": 0.7131,
      "duration": 0.0016,
      "velocity": 117,
      "chip": "ym2612"
    },
    {
      "channel": 4,
      "note": 49,
      "start": 0.7137,
      "duration": 0.0003,
      "velocity": 120,
      "chip": "ym2612"
    },
    {
      "channel": 0,
      "note": 49,
      "start": 0.7143,
      "duration": 0.0008,
      "velocity": 120,
      "chip": "ym2612"
    },
    {
      "channel": 1,
      "note": 57,
      "start": 0.7145,
      "duration": 0.0006,
      "velocity": 95,
      "chip": "ym2612"
    },
    {
      "channel": 4,
      "note": 47,
      "start": 0.7149,
      "duration": 0.0003,
      "velocity": 120,
      "chip": "ym2612"
    },
    {
      "channel": 0,
      "note": 59,
      "start": 0.7156,
      "duration": 0.0012,
      "velocity": 120,
      "chip": "ym2612"
    },
    {
      "channel": 1,
      "note": 59,
      "start": 0.7159,
      "duration": 0.0009,
      "velocity": 95,
      "chip": "ym2612"
    },
    {
      "channel": 3,
      "note": 38,
      "start": 0.7161,
      "duration": 0.0015,
      "velocity": 117,
      "chip": "ym2612"
    },
    {
      "channel": 4,
      "note": 49,
      "start": 0.7166,
      "duration": 0.0003,
      "velocity": 120,
      "chip": "ym2612"
    },
    {
      "channel": 0,
      "note": 57,
      "start": 0.7173,
      "duration": 0.0009,
      "velocity": 120,
      "chip": "ym2612"
    },
    {
      "channel": 1,
      "note": 61,
      "start": 0.7174,
      "duration": 0.0006,
      "velocity": 95,
      "chip": "ym2612"
    },
    {
      "channel": 4,
      "note": 59,
      "start": 0.7179,
      "duration": 0.0004,
      "velocity": 120,
      "chip": "ym2612"
    },
    {
      "channel": 0,
      "note": 56,
      "start": 0.719,
      "duration": 0.0153,
      "velocity": 120,
      "chip": "ym2612"
    },
    {
      "channel": 1,
      "note": 62,
      "start": 0.7193,
      "duration": 0.0027,
      "velocity": 95,
      "chip": "ym2612"
    },
    {
      "channel": 2,
      "note": 74,
      "start": 0.7195,
      "duration": 0.0146,
      "velocity": 111,
      "chip": "ym2612"
    },
    {
      "channel": 3,
      "note": 37,
      "start": 0.7199,
      "duration": 0.0027,
      "velocity": 117,
      "chip": "ym2612"
    },
    {
      "channel": 4,
      "note": 57,
      "start": 0.7219,
      "duration": 0.0002,
      "velocity": 120,
      "chip": "ym2612"
    },
    {
      "channel": 1,
      "note": 61,
      "start": 0.7224,
      "duration": 0.001,
      "velocity": 95,
      "chip": "ym2612"
    },
    {
      "channel": 4,
      "note": 56,
      "start": 0.7234,
      "duration": 0.0155,
      "velocity": 120,
      "chip": "ym2612"
    },
    {
      "channel": 1,
      "note": 64,
      "start": 0.7237,
      "duration": 0.0004,
      "velocity": 95,
      "chip": "ym2612"
    },
    {
      "channel": 3,
      "note": 37,
      "start": 0.724,
      "duration": 0.0006,
      "velocity": 117,
      "chip": "ym2612"
    },
    {
      "channel": 1,
      "note": 62,
      "start": 0.7244,
      "duration": 0.0006,
      "velocity": 95,
      "chip": "ym2612"
    },
    {
      "channel": 1,
      "note": 68,
      "start": 0.7254,
      "duration": 0.0005,
      "velocity": 95,
      "chip": "ym2612"
    },
    {
      "channel": 3,
      "note": 37,
      "start": 0.7257,
      "duration": 0.0008,
      "velocity": 117,
      "chip": "ym2612"
    },
    {
      "channel": 1,
      "note": 64,
      "start": 0.7264,
      "duration": 0.0004,
      "velocity": 95,
      "chip": "ym2612"
    },
    {
      "channel": 1,
      "note": 69,
      "start": 0.7276,
      "duration": 0.0013,
      "velocity": 95,
      "chip": "ym2612"
    },
    {
      "channel": 3,
      "note": 40,
      "start": 0.7278,
      "duration": 0.0011,
      "velocity": 117,
      "chip": "ym2612"
    },
    {
      "channel": 1,
      "note": 66,
      "start": 0.7298,
      "duration": 0.0009,
      "velocity": 95,
      "chip": "ym2612"
    },
    {
      "channel": 3,
      "note": 42,
      "start": 0.7302,
      "duration": 0.0004,
      "velocity": 117,
      "chip": "ym2612"
    },
    {
      "channel": 3,
      "note": 40,
      "start": 0.7311,
      "duration": 0.0001,
      "velocity": 117,
      "chip": "ym2612"
    },
    {
      "channel": 1,
      "note": 71,
      "start": 0.732,
      "duration": 0.0006,
      "velocity": 95,
      "chip": "ym2612"
    },
    {
      "channel": 3,
      "note": 38,
      "start": 0.7324,
      "duration": 0.0012,
      "velocity": 117,
      "chip": "ym2612"
    },
    {
      "channel": 1,
      "note": 68,
      "start": 0.7335,
      "duration": 0.0006,
      "velocity": 95,
      "chip": "ym2612"
    },
    {
      "channel": 0,
      "note": 49,
      "start": 0.7352,
      "duration": 0.0026,
      "velocity": 120,
      "chip": "ym2612"
    },
    {
      "channel": 1,
      "note": 61,
      "start": 0.7355,
      "duration": 0.0024,
      "velocity": 95,
      "chip": "ym2612"
    },
    {
      "channel": 2,
      "note": 73,
      "start": 0.7358,
      "duration": 0.0167,
      "velocity": 111,
      "chip": "ym2612"
    },
    {
      "channel": 3,
      "note": 37,
      "start": 0.7361,
      "duration": 0.0017,
      "velocity": 117,
      "chip": "ym2612"
    },
    {
      "channel": 0,
      "note": 47,
      "start": 0.7383,
      "duration": 0.0017,
      "velocity": 120,
      "chip": "ym2612"
    },
    {
      "channel": 1,
      "note": 59,
      "start": 0.7385,
      "duration": 0.0015,
      "velocity": 95,
      "chip": "ym2612"
    },
    {
      "channel": 3,
      "note": 37,
      "start": 0.7389,
      "duration": 0.0012,
      "velocity": 117,
      "chip": "ym2612"
    },
    {
      "channel": 4,
      "note": 49,
      "start": 0.7398,
      "duration": 0.0005,
      "velocity": 120,
      "chip": "ym2612"
    },
    {
      "channel": 0,
      "note": 49,
      "start": 0.7405,
      "duration": 0.0009,
      "velocity": 120,
      "chip": "ym2612"
    },
    {
      "channel": 1,
      "note": 61,
      "start": 0.7407,
      "duration": 0.0007,
      "velocity": 95,
      "chip": "ym2612"
    },
    {
      "channel": 3,
      "note": 37,
      "start": 0.7411,
      "duration": 0.0005,
      "velocity": 117,
      "chip": "ym2612"
    },
    {
      "channel": 4,
      "note": 47,
      "start": 0.7413,
      "duration": 0.0003,
      "velocity": 120,
      "chip": "ym2612"
    },
    {
      "channel": 0,
      "note": 61,
      "start": 0.742,
      "duration": 0.0019,
      "velocity": 120,
      "chip": "ym2612"
    },
    {
      "channel": 1,
      "note": 62,
      "start": 0.7422,
      "duration": 0.0007,
      "velocity": 95,
      "chip": "ym2612"
    },
    {
      "channel": 3,
      "note": 37,
      "start": 0.7424,
      "duration": 0.0005,
      "velocity": 117,
      "chip": "ym2612"
    },
    {
      "channel": 4,
      "note": 49,
      "start": 0.7427,
      "duration": 0.0003,
      "velocity": 120,
      "chip": "ym2612"
    },
    {
      "channel": 1,
      "note": 64,
      "start": 0.7433,
      "duration": 0.0007,
      "velocity": 95,
      "chip": "ym2612"
    },
    {
      "channel": 3,
      "note": 37,
      "start": 0.7435,
      "duration": 0.0006,
      "velocity": 117,
      "chip": "ym2612"
    },
    {
      "channel": 4,
      "note": 61,
      "start": 0.7437,
      "duration": 0.0029,
      "velocity": 120,
      "chip": "ym2612"
    },
    {
      "channel": 0,
      "note": 49,
      "start": 0.7445,
      "duration": 0.0014,
      "velocity": 120,
      "chip": "ym2612"
    },
    {
      "channel": 1,
      "note": 66,
      "start": 0.7447,
      "duration": 0.0013,
      "velocity": 95,
      "chip": "ym2612"
    },
    {
      "channel": 3,
      "note": 37,
      "start": 0.745,
      "duration": 0.0003,
      "velocity": 117,
      "chip": "ym2612"
    },
    {
      "channel": 3,
      "note": 37,
      "start": 0.7456,
      "duration": 0.0005,
      "velocity": 117,
      "chip": "ym2612"
    },
    {
      "channel": 3,
      "note": 37,
      "start": 0.7466,
      "duration": 0.0004,
      "velocity": 117,
      "chip": "ym2612"
    },
    {
      "channel": 0,
      "note": 47,
      "start": 0.7471,
      "duration": 0.0016,
      "velocity": 120,
      "chip": "ym2612"
    },
    {
      "channel": 1,
      "note": 68,
      "start": 0.7473,
      "duration": 0.0015,
      "velocity": 95,
      "chip": "ym2612"
    },
    {
      "channel": 3,
      "note": 40,
      "start": 0.7476,
      "duration": 0.0019,
      "velocity": 117,
      "chip": "ym2612"
    },
    {
      "channel": 4,
      "note": 49,
      "start": 0.7485,
      "duration": 0.0003,
      "velocity": 120,
      "chip": "ym2612"
    },
    {
      "channel": 0,
      "note": 49,
      "start": 0.7492,
      "duration": 0.0006,
      "velocity": 120,
      "chip": "ym2612"
    },
    {
      "channel": 1,
      "note": 64,
      "start": 0.7494,
      "duration": 0.0004,
      "velocity": 95,
      "chip": "ym2612"
    },
    {
      "channel": 4,
      "note": 47,
      "start": 0.7498,
      "duration": 0.0001,
      "velocity": 120,
      "chip": "ym2612"
    },
    {
      "channel": 0,
      "note": 59,
      "start": 0.7502,
      "duration": 0.002,
      "velocity": 120,
      "chip": "ym2612"
    },
    {
      "channel": 1,
      "note": 66,
      "start": 0.7504,
      "duration": 0.0011,
      "velocity": 95,
      "chip": "ym2612"
    },
    {
      "channel": 3,
      "note": 38,
      "start": 0.7507,
      "duration": 0.0012,
      "velocity": 117,
      "chip": "ym2612"
    },
    {
      "channel": 4,
      "note": 49,
      "start": 0.7514,
      "duration": 0.0002,
      "velocity": 120,
      "chip": "ym2612"
    },
    {
      "channel": 1,
      "note": 62,
      "start": 0.7519,
      "duration": 0.0005,
      "velocity": 95,
      "chip": "ym2612"
    },
    {
      "channel": 4,
      "note": 59,
      "start": 0.7522,
      "duration": 0.0034,
      "velocity": 120,
      "chip": "ym2612"
    },
    {
      "channel": 0,
      "note": 49,
      "start": 0.7528,
      "duration": 0.0026,
      "velocity": 120,
      "chip": "ym2612"
    },
    {
      "channel": 1,
      "note": 61,
      "start": 0.7531,
      "duration": 0.0024,
      "velocity": 95,
      "chip": "ym2612"
    },
    {
      "channel": 2,
      "note": 74,
      "start": 0.7534,
      "duration": 0.0159,
      "velocity": 111,
      "chip": "ym2612"
    },
    {
      "channel": 3,
      "note": 37,
      "start": 0.7537,
      "duration": 0.0026,
      "velocity": 117,
      "chip": "ym2612"
    },
    {
      "channel": 0,
      "note": 47,
      "start": 0.7559,
      "duration": 0.0007,
      "velocity": 120,
      "chip": "ym2612"
    },
    {
      "channel": 1,
      "note": 59,
      "start": 0.7561,
      "duration": 0.0006,
      "velocity": 95,
      "chip": "ym2612"
    },
    {
      "channel": 4,
      "note": 49,
      "start": 0.7565,
      "duration": 0.0004,
      "velocity": 120,
      "chip": "ym2612"
    },
    {
      "channel": 0,
      "note": 49,
      "start": 0.7572,
      "duration": 0.0008,
      "velocity": 120,
      "chip": "ym2612"
    },
    {
      "channel": 1,
      "note": 61,
      "start": 0.7574,
      "duration": 0.0007,
      "velocity": 95,
      "chip": "ym2612"
    },
    {
      "channel": 3,
      "note": 37,
      "start": 0.7578,
      "duration": 0.0012,
      "velocity": 117,
      "chip": "ym2612"
    },
    {
      "channel": 4,
      "note": 47,
      "start": 0.758,
      "duration": 0.0003,
      "velocity": 120,
      "chip": "ym2612"
    },
    {
      "channel": 0,
      "note": 61,
      "start": 0.7586,
      "duration": 0.0016,
      "velocity": 120,
      "chip": "ym2612"
    },
    {
      "channel": 1,
      "note": 62,
      "start": 0.7589,
      "duration": 0.0004,
      "velocity": 95,
      "chip": "ym2612"
    },
    {
      "channel": 4,
      "note": 49,
      "start": 0.7592,
      "duration": 0.0002,
      "velocity": 120,
      "chip": "ym2612"
    },
    {
      "channel": 1,
      "note": 57,
      "start": 0.7595,
      "duration": 0.0008,
      "velocity": 95,
      "chip": "ym2612"
    },
    {
      "channel": 3,
      "note": 37,
      "start": 0.7598,
      "duration": 0.0005,
      "velocity": 117,
      "chip": "ym2612"
    },
    {
      "channel": 4,
      "note": 61,
      "start": 0.7601,
      "duration": 0.0027,
      "velocity": 120,
      "chip": "ym2612"
    },
    {
      "channel": 0,
      "note": 49,
      "start": 0.7607,
      "duration": 0.0015,
      "velocity": 120,
      "chip": "ym2612"
    },
    {
      "channel": 1,
      "note": 59,
      "start": 0.7609,
      "duration": 0.0014,
      "velocity": 95,
      "chip": "ym2612"
    },
    {
      "channel": 3,
      "note": 37,
      "start": 0.7612,
      "duration": 0.0004,
      "velocity": 117,
      "chip": "ym2612"
    },
    {
      "channel": 3,
      "note": 37,
      "start": 0.7619,
      "duration": 0.0005,
      "velocity": 117,
      "chip": "ym2612"
    },
    {
      "channel": 3,
      "note": 37,
      "start": 0.7627,
      "duration": 0.0004,
      "velocity": 117,
      "chip": "ym2612"
    },
    {
      "channel": 0,
      "note": 47,
      "start": 0.7633,
      "duration": 0.0011,
      "velocity": 120,
      "chip": "ym2612"
    },
    {
      "channel": 1,
      "note": 56,
      "start": 0.7635,
      "duration": 0.001,
      "velocity": 95,
      "chip": "ym2612"
    },
    {
      "channel": 3,
      "note": 47,
      "start": 0.7639,
      "duration": 0.0007,
      "velocity": 117,
      "chip": "ym2612"
    },
    {
      "channel": 4,
      "note": 49,
      "start": 0.7644,
      "duration": 0.0004,
      "velocity": 120,
      "chip": "ym2612"
    },
    {
      "channel": 0,
      "note": 49,
      "start": 0.765,
      "duration": 0.0009,
      "velocity": 120,
      "chip": "ym2612"
    },
    {
      "channel": 1,
      "note": 57,
      "start": 0.7652,
      "duration": 0.0008,
      "velocity": 95,
      "chip": "ym2612"
    },
    {
      "channel": 3,
      "note": 45,
      "start": 0.7656,
      "duration": 0.0003,
      "velocity": 117,
      "chip": "ym2612"
    },
    {
      "channel": 4,
      "note": 47,
      "start": 0.7658,
      "duration": 0.0007,
      "velocity": 120,
      "chip": "ym2612"
    },
    {
      "channel": 3,
      "note": 47,
      "start": 0.7664,
      "duration": 0.0002,
      "velocity": 117,
      "chip": "ym2612"
    },
    {
      "channel": 0,
      "note": 59,
      "start": 0.767,
      "duration": 0.0022,
      "velocity": 120,
      "chip": "ym2612"
    },
    {
      "channel": 1,
      "note": 54,
      "start": 0.7673,
      "duration": 0.0009,
      "velocity": 95,
      "chip": "ym2612"
    },
    {
      "channel": 3,
      "note": 38,
      "start": 0.7677,
      "duration": 0.0012,
      "velocity": 117,
      "chip": "ym2612"
    },
    {
      "channel": 4,
      "note": 49,
      "start": 0.7681,
      "duration": 0.0003,
      "velocity": 120,
      "chip": "ym2612"
    },
    {
      "channel": 1,
      "note": 56,
      "start": 0.7687,
      "duration": 0.0005,
      "velocity": 95,
      "chip": "ym2612"
    },
    {
      "channel": 4,
      "note": 59,
      "start": 0.7691,
      "duration": 0.0019,
      "velocity": 120,
      "chip": "ym2612"
    },
    {
      "channel": 0,
      "note": 49,
      "start": 0.7696,
      "duration": 0.0012,
      "velocity": 120,
      "chip": "ym2612"
    },
    {
      "channel": 1,
      "note": 52,
      "start": 0.7698,
      "duration": 0.001,
      "velocity": 95,
      "chip": "ym2612"
    },
    {
      "channel": 2,
      "note": 76,
      "start": 0.7702,
      "duration": 0.0153,
      "velocity": 111,
      "chip": "ym2612"
    },
    {
      "channel": 3,
      "note": 37,
      "start": 0.7704,
      "duration": 0.0005,
      "velocity": 117,
      "chip": "ym2612"
    },
    {
      "channel": 0,
      "note": 47,
      "start": 0.7717,
      "duration": 0.0009,
      "velocity": 120,
      "chip": "ym2612"
    },
    {
      "channel": 1,
      "note": 50,
      "start": 0.772,
      "duration": 0.0008,
      "velocity": 95,
      "chip": "ym2612"
    },
    {
      "channel": 3,
      "note": 37,
      "start": 0.7723,
      "duration": 0.0006,
      "velocity": 117,
      "chip": "ym2612"
    },
    {
      "channel": 4,
      "note": 49,
      "start": 0.7726,
      "duration": 0.0004,
      "velocity": 120,
      "chip": "ym2612"
    },
    {
      "channel": 0,
      "note": 49,
      "start": 0.7732,
      "duration": 0.0009,
      "velocity": 120,
      "chip": "ym2612"
    },
    {
      "channel": 1,
      "note": 52,
      "start": 0.7735,
      "duration": 0.0006,
      "velocity": 95,
      "chip": "ym2612"
    },
    {
      "channel": 3,
      "note": 37,
      "start": 0.7738,
      "duration": 0.0004,
      "velocity": 117,
      "chip": "ym2612"
    },
    {
      "channel": 4,
      "note": 47,
      "start": 0.774,
      "duration": 0.0003,
      "velocity": 120,
      "chip": "ym2612"
    },
    {
      "channel": 0,
      "note": 61,
      "start": 0.7746,
      "duration": 0.002,
      "velocity": 120,
      "chip": "ym2612"
    },
    {
      "channel": 1,
      "note": 54,
      "start": 0.7748,
      "duration": 0.0007,
      "velocity": 95,
      "chip": "ym2612"
    },
    {
      "channel": 3,
      "note": 37,
      "start": 0.7752,
      "duration": 0.0003,
      "velocity": 117,
      "chip": "ym2612"
    },
    {
      "channel": 4,
      "note": 49,
      "start": 0.7754,
      "duration": 0.0002,
      "velocity": 120,
      "chip": "ym2612"
    },
    {
      "channel": 1,
      "note": 56,
      "start": 0.7759,
      "duration": 0.0007,
      "velocity": 95,
      "chip": "ym2612"
    },
    {
      "channel": 3,
      "note": 37,
      "start": 0.7762,
      "duration": 0.0005,
      "velocity": 117,
      "chip": "ym2612"
    },
    {
      "channel": 4,
      "note": 61,
      "start": 0.7765,
      "duration": 0.0031,
      "velocity": 120,
      "chip": "ym2612"
    },
    {
      "channel": 0,
      "note": 49,
      "start": 0.7771,
      "duration": 0.0017,
      "velocity": 120,
      "chip": "ym2612"
    },
    {
      "channel": 1,
      "note": 57,
      "start": 0.7773,
      "duration": 0.0017,
      "velocity": 95,
      "chip": "ym2612"
    },
    {
      "channel": 3,
      "note": 37,
      "start": 0.7777,
      "duration": 0.0002,
      "velocity": 117,
      "chip": "ym2612"
    },
    {
      "channel": 3,
      "note": 37,
      "start": 0.7783,
      "duration": 0.0007,
      "velocity": 117,
      "chip": "ym2612"
    },
    {
      "channel": 3,
      "note": 37,
      "start": 0.7794,
      "duration": 0.0005,
      "velocity": 117,
      "chip": "ym2612"
    },
    {
      "channel": 0,
      "note": 47,
      "start": 0.7802,
      "duration": 0.001,
      "velocity": 120,
      "chip": "ym2612"
    },
    {
      "channel": 1,
      "note": 59,
      "start": 0.7805,
      "duration": 0.0009,
      "velocity": 95,
      "chip": "ym2612"
    },
    {
      "channel": 3,
      "note": 40,
      "start": 0.7808,
      "duration": 0.0013,
      "velocity": 117,
      "chip": "ym2612"
    },
    {
      "channel": 4,
      "note": 49,
      "start": 0.7812,
      "duration": 0.0002,
      "velocity": 120,
      "chip": "ym2612"
    },
    {
      "channel": 0,
      "note": 49,
      "start": 0.7817,
      "duration": 0.0007,
      "velocity": 120,
      "chip": "ym2612"
    },
    {
      "channel": 1,
      "note": 57,
      "start": 0.7819,
      "duration": 0.0007,
      "velocity": 95,
      "chip": "ym2612"
    },
    {
      "channel": 4,
      "note": 47,
      "start": 0.7824,
      "duration": 0.0004,
      "velocity": 120,
      "chip": "ym2612"
    },
    {
      "channel": 0,
      "note": 62,
      "start": 0.783,
      "duration": 0.0012,
      "velocity": 120,
      "chip": "ym2612"
    },
    {
      "channel": 1,
      "note": 59,
      "start": 0.7832,
      "duration": 0.0009,
      "velocity": 95,
      "chip": "ym2612"
    },
    {
      "channel": 3,
      "note": 42,
      "start": 0.7837,
      "duration": 0.0013,
      "velocity": 117,
      "chip": "ym2612"
    },
    {
      "channel": 4,
      "note": 49,
      "start": 0.784,
      "duration": 0.0002,
      "velocity": 120,
      "chip": "ym2612"
    },
    {
      "channel": 0,
      "note": 64,
      "start": 0.7846,
      "duration": 0.0008,
      "velocity": 120,
      "chip": "ym2612"
    },
    {
      "channel": 1,
      "note": 61,
      "start": 0.7849,
      "duration": 0.0005,
      "velocity": 95,
      "chip": "ym2612"
    },
    {
      "channel": 4,
      "note": 62,
      "start": 0.7853,
      "duration": 0.0004,
      "velocity": 120,
      "chip": "ym2612"
    },
    {
      "channel": 0,
      "note": 80,
      "start": 0.7864,
      "duration": 0.0062,
      "velocity": 112,
      "chip": "ym2612"
    },
    {
      "channel": 1,
      "note": 62,
      "start": 0.7866,
      "duration": 0.0035,
      "velocity": 95,
      "chip": "ym2612"
    },
    {
      "channel": 2,
      "note": 74,
      "start": 0.7869,
      "duration": 0.0229,
      "velocity": 111,
      "chip": "ym2612"
    },
    {
      "channel": 3,
      "note": 44,
      "start": 0.7873,
      "duration": 0.0034,
      "velocity": 117,
      "chip": "ym2612"
    },
    {
      "channel": 4,
      "note": 64,
      "start": 0.79,
      "duration": 0.0003,
      "velocity": 120,
      "chip": "ym2612"
    },
    {
      "channel": 1,
      "note": 61,
      "start": 0.7906,
      "duration": 0.0009,
      "velocity": 95,
      "chip": "ym2612"
    },
    {
      "channel": 4,
      "note": 80,
      "start": 0.7914,
      "duration": 0.0036,
      "velocity": 112,
      "chip": "ym2612"
    },
    {
      "channel": 1,
      "note": 64,
      "start": 0.7918,
      "duration": 0.0004,
      "velocity": 95,
      "chip": "ym2612"
    },
    {
      "channel": 3,
      "note": 44,
      "start": 0.7921,
      "duration": 0.0006,
      "velocity": 117,
      "chip": "ym2612"
    },
    {
      "channel": 1,
      "note": 62,
      "start": 0.7925,
      "duration": 0.0011,
      "velocity": 95,
      "chip": "ym2612"
    },
    {
      "channel": 0,
      "note": 80,
      "start": 0.7936,
      "duration": 0.0164,
      "velocity": 101,
      "chip": "ym2612"
    },
    {
      "channel": 1,
      "note": 68,
      "start": 0.7943,
      "duration": 0.0007,
      "velocity": 95,
      "chip": "ym2612"
    },
    {
      "channel": 3,
      "note": 44,
      "start": 0.7947,
      "duration": 0.0005,
      "velocity": 117,
      "chip": "ym2612"
    },
    {
      "channel": 4,
      "note": 80,
      "start": 0.7961,
      "duration": 0.0167,
      "velocity": 115,
      "chip": "ym2612"
    },
    {
      "channel": 1,
      "note": 64,
      "start": 0.797,
      "duration": 0.002,
      "velocity": 95,
      "chip": "ym2612"
    },
    {
      "channel": 3,
      "note": 44,
      "start": 0.7973,
      "duration": 0.0004,
      "velocity": 117,
      "chip": "ym2612"
    },
    {
      "channel": 3,
      "note": 44,
      "start": 0.7987,
      "duration": 0.0004,
      "velocity": 117,
      "chip": "ym2612"
    },
    {
      "channel": 3,
      "note": 44,
      "start": 0.8,
      "duration": 0.0003,
      "velocity": 117,
      "chip": "ym2612"
    },
    {
      "channel": 1,
      "note": 69,
      "start": 0.801,
      "duration": 0.0012,
      "velocity": 95,
      "chip": "ym2612"
    },
    {
      "channel": 3,
      "note": 40,
      "start": 0.8014,
      "duration": 0.0009,
      "velocity": 117,
      "chip": "ym2612"
    },
    {
      "channel": 1,
      "note": 66,
      "start": 0.8034,
      "duration": 0.0013,
      "velocity": 95,
      "chip": "ym2612"
    },
    {
      "channel": 3,
      "note": 42,
      "start": 0.8038,
      "duration": 0.0007,
      "velocity": 117,
      "chip": "ym2612"
    },
    {
      "channel": 3,
      "note": 40,
      "start": 0.805,
      "duration": 0.0006,
      "velocity": 117,
      "chip": "ym2612"
    },
    {
      "channel": 1,
      "note": 71,
      "start": 0.8064,
      "duration": 0.001,
      "velocity": 95,
      "chip": "ym2612"
    },
    {
      "channel": 3,
      "note": 38,
      "start": 0.8066,
      "duration": 0.0022,
      "velocity": 117,
      "chip": "ym2612"
    },
    {
      "channel": 1,
      "note": 68,
      "start": 0.8087,
      "duration": 0.0006,
      "velocity": 95,
      "chip": "ym2612"
    },
    {
      "channel": 0,
      "note": 85,
      "start": 0.8109,
      "duration": 69.3795,
      "velocity": 115,
      "chip": "ym2612"
    },
    {
      "channel": 1,
      "note": 61,
      "start": 0.8111,
      "duration": 69.3793,
      "velocity": 95,
      "chip": "ym2612"
    },
    {
      "channel": 2,
      "note": 80,
      "start": 0.8118,
      "duration": 69.3786,
      "velocity": 127,
      "chip": "ym2612"
    },
    {
      "channel": 3,
      "note": 37,
      "start": 0.8122,
      "duration": 69.3783,
      "velocity": 117,
      "chip": "ym2612"
    },
    {
      "channel": 4,
      "note": 85,
      "start": 0.813,
      "duration": 69.3774,
      "velocity": 115,
      "chip": "ym2612"
    }
  ]
}