{
  "track_name": "09 - Chapter 6 Scene 1",
  "duration_sec": 57.756,
  "sample_rate": 44100,
  "note_count": 940,
  "unique_pitches": 18,
  "pitch_range": 42,
  "avg_note_duration": 0.339,
  "reconstruction_stats": {
    "notes_reconstructed": 940,
    "keyon_events": 940,
    "keyoff_events": 936,
    "orphan_keyons": 4,
    "unique_pitches": 18,
    "pitch_range": 42,
    "avg_duration_sec": 0.339
  },
  "metadata": {
    "source": "S\\Saint Sword\\09 - Chapter 6 Scene 1.vgz"
  },
  "notes": [
    {
      "channel": 0,
      "note": 69,
      "start": 0.0,
      "duration": 1.4856,
      "velocity": 127,
      "chip": "ym2612"
    },
    {
      "channel": 1,
      "note": 66,
      "start": 0.0032,
      "duration": 0.4378,
      "velocity": 96,
      "chip": "ym2612"
    },
    {
      "channel": 3,
      "note": 66,
      "start": 0.0066,
      "duration": 0.1333,
      "velocity": 81,
      "chip": "ym2612"
    },
    {
      "channel": 4,
      "note": 69,
      "start": 0.0103,
      "duration": 1.4772,
      "velocity": 127,
      "chip": "ym2612"
    },
    {
      "channel": 2,
      "note": 41,
      "start": 0.0118,
      "duration": 0.2596,
      "velocity": 127,
      "chip": "ym2612"
    },
    {
      "channel": 5,
      "note": 69,
      "start": 0.1446,
      "duration": 1.4927,
      "velocity": 127,
      "chip": "ym2612"
    },
    {
      "channel": 1,
      "note": 61,
      "start": 0.4416,
      "duration": 0.4475,
      "velocity": 96,
      "chip": "ym2612"
    },
    {
      "channel": 3,
      "note": 66,
      "start": 0.4423,
      "duration": 0.1483,
      "velocity": 81,
      "chip": "ym2612"
    },
    {
      "channel": 2,
      "note": 41,
      "start": 0.4444,
      "duration": 0.1427,
      "velocity": 127,
      "chip": "ym2612"
    },
    {
      "channel": 3,
      "note": 66,
      "start": 0.5912,
      "duration": 0.1487,
      "velocity": 81,
      "chip": "ym2612"
    },
    {
      "channel": 2,
      "note": 41,
      "start": 0.5927,
      "duration": 0.1437,
      "velocity": 127,
      "chip": "ym2612"
    },
    {
      "channel": 3,
      "note": 66,
      "start": 0.7405,
      "duration": 0.1494,
      "velocity": 81,
      "chip": "ym2612"
    },
    {
      "channel": 2,
      "note": 41,
      "start": 0.742,
      "duration": 0.1438,
      "velocity": 127,
      "chip": "ym2612"
    },
    {
      "channel": 1,
      "note": 66,
      "start": 0.8897,
      "duration": 0.447,
      "velocity": 96,
      "chip": "ym2612"
    },
    {
      "channel": 3,
      "note": 66,
      "start": 0.8905,
      "duration": 0.1454,
      "velocity": 81,
      "chip": "ym2612"
    },
    {
      "channel": 2,
      "note": 41,
      "start": 0.892,
      "duration": 0.2751,
      "velocity": 127,
      "chip": "ym2612"
    },
    {
      "channel": 1,
      "note": 61,
      "start": 1.3373,
      "duration": 0.4478,
      "velocity": 96,
      "chip": "ym2612"
    },
    {
      "channel": 3,
      "note": 66,
      "start": 1.338,
      "duration": 0.1487,
      "velocity": 81,
      "chip": "ym2612"
    },
    {
      "channel": 2,
      "note": 41,
      "start": 1.3395,
      "duration": 0.1432,
      "velocity": 127,
      "chip": "ym2612"
    },
    {
      "channel": 0,
      "note": 69,
      "start": 1.4862,
      "duration": 0.1487,
      "velocity": 127,
      "chip": "ym2612"
    },
    {
      "channel": 3,
      "note": 66,
      "start": 1.4873,
      "duration": 0.1487,
      "velocity": 81,
      "chip": "ym2612"
    },
    {
      "channel": 4,
      "note": 69,
      "start": 1.488,
      "duration": 0.1487,
      "velocity": 127,
      "chip": "ym2612"
    },
    {
      "channel": 2,
      "note": 41,
      "start": 1.4892,
      "duration": 0.1429,
      "velocity": 127,
      "chip": "ym2612"
    },
    {
      "channel": 0,
      "note": 71,
      "start": 1.6354,
      "duration": 0.1489,
      "velocity": 127,
      "chip": "ym2612"
    },
    {
      "channel": 3,
      "note": 66,
      "start": 1.6365,
      "duration": 0.1495,
      "velocity": 81,
      "chip": "ym2612"
    },
    {
      "channel": 4,
      "note": 71,
      "start": 1.6373,
      "duration": 0.1495,
      "velocity": 127,
      "chip": "ym2612"
    },
    {
      "channel": 5,
      "note": 69,
      "start": 1.638,
      "duration": 0.1495,
      "velocity": 127,
      "chip": "ym2612"
    },
    {
      "channel": 2,
      "note": 41,
      "start": 1.6388,
      "duration": 0.1427,
      "velocity": 127,
      "chip": "ym2612"
    },
    {
      "channel": 0,
      "note": 69,
      "start": 1.7849,
      "duration": 0.4471,
      "velocity": 127,
      "chip": "ym2612"
    },
    {
      "channel": 1,
      "note": 66,
      "start": 1.7857,
      "duration": 0.447,
      "velocity": 96,
      "chip": "ym2612"
    },
    {
      "channel": 3,
      "note": 66,
      "start": 1.7866,
      "duration": 0.1448,
      "velocity": 81,
      "chip": "ym2612"
    },
    {
      "channel": 4,
      "note": 69,
      "start": 1.7873,
      "duration": 0.4468,
      "velocity": 127,
      "chip": "ym2612"
    },
    {
      "channel": 5,
      "note": 71,
      "start": 1.7881,
      "duration": 0.1439,
      "velocity": 127,
      "chip": "ym2612"
    },
    {
      "channel": 2,
      "note": 41,
      "start": 1.7888,
      "duration": 0.2742,
      "velocity": 127,
      "chip": "ym2612"
    },
    {
      "channel": 5,
      "note": 69,
      "start": 1.9326,
      "duration": 0.4504,
      "velocity": 127,
      "chip": "ym2612"
    },
    {
      "channel": 0,
      "note": 68,
      "start": 2.2325,
      "duration": 0.4479,
      "velocity": 127,
      "chip": "ym2612"
    },
    {
      "channel": 1,
      "note": 61,
      "start": 2.2332,
      "duration": 0.448,
      "velocity": 96,
      "chip": "ym2612"
    },
    {
      "channel": 3,
      "note": 66,
      "start": 2.234,
      "duration": 0.1479,
      "velocity": 81,
      "chip": "ym2612"
    },
    {
      "channel": 4,
      "note": 68,
      "start": 2.2347,
      "duration": 0.448,
      "velocity": 127,
      "chip": "ym2612"
    },
    {
      "channel": 2,
      "note": 41,
      "start": 2.2359,
      "duration": 0.1426,
      "velocity": 127,
      "chip": "ym2612"
    },
    {
      "channel": 3,
      "note": 66,
      "start": 2.3825,
      "duration": 0.1491,
      "velocity": 81,
      "chip": "ym2612"
    },
    {
      "channel": 5,
      "note": 68,
      "start": 2.3836,
      "duration": 0.4448,
      "velocity": 127,
      "chip": "ym2612"
    },
    {
      "channel": 2,
      "note": 41,
      "start": 2.3844,
      "duration": 0.1437,
      "velocity": 127,
      "chip": "ym2612"
    },
    {
      "channel": 3,
      "note": 66,
      "start": 2.5322,
      "duration": 0.1498,
      "velocity": 81,
      "chip": "ym2612"
    },
    {
      "channel": 2,
      "note": 41,
      "start": 2.5337,
      "duration": 0.1435,
      "velocity": 127,
      "chip": "ym2612"
    },
    {
      "channel": 0,
      "note": 66,
      "start": 2.681,
      "duration": 0.2948,
      "velocity": 127,
      "chip": "ym2612"
    },
    {
      "channel": 1,
      "note": 66,
      "start": 2.6818,
      "duration": 0.4467,
      "velocity": 96,
      "chip": "ym2612"
    },
    {
      "channel": 3,
      "note": 66,
      "start": 2.6826,
      "duration": 0.2217,
      "velocity": 81,
      "chip": "ym2612"
    },
    {
      "channel": 4,
      "note": 66,
      "start": 2.6834,
      "duration": 0.2945,
      "velocity": 127,
      "chip": "ym2612"
    },
    {
      "channel": 2,
      "note": 41,
      "start": 2.6845,
      "duration": 0.2163,
      "velocity": 127,
      "chip": "ym2612"
    },
    {
      "channel": 5,
      "note": 66,
      "start": 2.8289,
      "duration": 0.3015,
      "velocity": 127,
      "chip": "ym2612"
    },
    {
      "channel": 3,
      "note": 66,
      "start": 2.9049,
      "duration": 0.2244,
      "velocity": 81,
      "chip": "ym2612"
    },
    {
      "channel": 2,
      "note": 41,
      "start": 2.9064,
      "duration": 0.2184,
      "velocity": 127,
      "chip": "ym2612"
    },
    {
      "channel": 0,
      "note": 68,
      "start": 2.9764,
      "duration": 0.2977,
      "velocity": 127,
      "chip": "ym2612"
    },
    {
      "channel": 4,
      "note": 68,
      "start": 2.9784,
      "duration": 0.2971,
      "velocity": 127,
      "chip": "ym2612"
    },
    {
      "channel": 1,
      "note": 61,
      "start": 3.1292,
      "duration": 0.4476,
      "velocity": 96,
      "chip": "ym2612"
    },
    {
      "channel": 3,
      "note": 66,
      "start": 3.1299,
      "duration": 0.2223,
      "velocity": 81,
      "chip": "ym2612"
    },
    {
      "channel": 5,
      "note": 68,
      "start": 3.131,
      "duration": 0.2938,
      "velocity": 127,
      "chip": "ym2612"
    },
    {
      "channel": 2,
      "note": 41,
      "start": 3.1318,
      "duration": 0.2169,
      "velocity": 127,
      "chip": "ym2612"
    },
    {
      "channel": 0,
      "note": 69,
      "start": 3.2746,
      "duration": 0.3011,
      "velocity": 127,
      "chip": "ym2612"
    },
    {
      "channel": 4,
      "note": 69,
      "start": 3.2761,
      "duration": 0.303,
      "velocity": 127,
      "chip": "ym2612"
    },
    {
      "channel": 3,
      "note": 66,
      "start": 3.3528,
      "duration": 0.2254,
      "velocity": 81,
      "chip": "ym2612"
    },
    {
      "channel": 2,
      "note": 41,
      "start": 3.3543,
      "duration": 0.2185,
      "velocity": 127,
      "chip": "ym2612"
    },
    {
      "channel": 5,
      "note": 69,
      "start": 3.4254,
      "duration": 0.2981,
      "velocity": 127,
      "chip": "ym2612"
    },
    {
      "channel": 0,
      "note": 69,
      "start": 3.5763,
      "duration": 1.4919,
      "velocity": 127,
      "chip": "ym2612"
    },
    {
      "channel": 1,
      "note": 62,
      "start": 3.5774,
      "duration": 0.4462,
      "velocity": 96,
      "chip": "ym2612"
    },
    {
      "channel": 3,
      "note": 62,
      "start": 3.5788,
      "duration": 0.1439,
      "velocity": 81,
      "chip": "ym2612"
    },
    {
      "channel": 4,
      "note": 69,
      "start": 3.5796,
      "duration": 1.4904,
      "velocity": 127,
      "chip": "ym2612"
    },
    {
      "channel": 2,
      "note": 41,
      "start": 3.5807,
      "duration": 0.2733,
      "velocity": 127,
      "chip": "ym2612"
    },
    {
      "channel": 5,
      "note": 69,
      "start": 3.724,
      "duration": 1.4959,
      "velocity": 127,
      "chip": "ym2612"
    },
    {
      "channel": 1,
      "note": 57,
      "start": 4.0241,
      "duration": 0.4474,
      "velocity": 96,
      "chip": "ym2612"
    },
    {
      "channel": 3,
      "note": 62,
      "start": 4.0249,
      "duration": 0.1483,
      "velocity": 81,
      "chip": "ym2612"
    },
    {
      "channel": 2,
      "note": 41,
      "start": 4.0264,
      "duration": 0.1433,
      "velocity": 127,
      "chip": "ym2612"
    },
    {
      "channel": 3,
      "note": 62,
      "start": 4.1737,
      "duration": 0.1488,
      "velocity": 81,
      "chip": "ym2612"
    },
    {
      "channel": 2,
      "note": 41,
      "start": 4.1752,
      "duration": 0.1438,
      "velocity": 127,
      "chip": "ym2612"
    },
    {
      "channel": 3,
      "note": 62,
      "start": 4.3231,
      "duration": 0.1494,
      "velocity": 81,
      "chip": "ym2612"
    },
    {
      "channel": 2,
      "note": 41,
      "start": 4.3246,
      "duration": 0.1438,
      "velocity": 127,
      "chip": "ym2612"
    },
    {
      "channel": 1,
      "note": 62,
      "start": 4.4722,
      "duration": 0.4473,
      "velocity": 96,
      "chip": "ym2612"
    },
    {
      "channel": 3,
      "note": 62,
      "start": 4.473,
      "duration": 0.1452,
      "velocity": 81,
      "chip": "ym2612"
    },
    {
      "channel": 2,
      "note": 41,
      "start": 4.4745,
      "duration": 0.2752,
      "velocity": 127,
      "chip": "ym2612"
    },
    {
      "channel": 1,
      "note": 57,
      "start": 4.9201,
      "duration": 0.4476,
      "velocity": 96,
      "chip": "ym2612"
    },
    {
      "channel": 3,
      "note": 62,
      "start": 4.9208,
      "duration": 0.1484,
      "velocity": 81,
      "chip": "ym2612"
    },
    {
      "channel": 2,
      "note": 41,
      "start": 4.9223,
      "duration": 0.1431,
      "velocity": 127,
      "chip": "ym2612"
    },
    {
      "channel": 0,
      "note": 69,
      "start": 5.0688,
      "duration": 0.1486,
      "velocity": 127,
      "chip": "ym2612"
    },
    {
      "channel": 3,
      "note": 62,
      "start": 5.0698,
      "duration": 0.1487,
      "velocity": 81,
      "chip": "ym2612"
    },
    {
      "channel": 4,
      "note": 69,
      "start": 5.0706,
      "duration": 0.1487,
      "velocity": 127,
      "chip": "ym2612"
    },
    {
      "channel": 2,
      "note": 41,
      "start": 5.0717,
      "duration": 0.1429,
      "velocity": 127,
      "chip": "ym2612"
    },
    {
      "channel": 0,
      "note": 71,
      "start": 5.218,
      "duration": 0.1489,
      "velocity": 127,
      "chip": "ym2612"
    },
    {
      "channel": 3,
      "note": 62,
      "start": 5.219,
      "duration": 0.1495,
      "velocity": 81,
      "chip": "ym2612"
    },
    {
      "channel": 4,
      "note": 71,
      "start": 5.2198,
      "duration": 0.1495,
      "velocity": 127,
      "chip": "ym2612"
    },
    {
      "channel": 5,
      "note": 69,
      "start": 5.2206,
      "duration": 0.1495,
      "velocity": 127,
      "chip": "ym2612"
    },
    {
      "channel": 2,
      "note": 41,
      "start": 5.2213,
      "duration": 0.1427,
      "velocity": 127,
      "chip": "ym2612"
    },
    {
      "channel": 0,
      "note": 69,
      "start": 5.3675,
      "duration": 0.447,
      "velocity": 127,
      "chip": "ym2612"
    },
    {
      "channel": 1,
      "note": 62,
      "start": 5.3683,
      "duration": 0.4469,
      "velocity": 96,
      "chip": "ym2612"
    },
    {
      "channel": 3,
      "note": 62,
      "start": 5.3691,
      "duration": 0.1448,
      "velocity": 81,
      "chip": "ym2612"
    },
    {
      "channel": 4,
      "note": 69,
      "start": 5.3699,
      "duration": 0.4468,
      "velocity": 127,
      "chip": "ym2612"
    },
    {
      "channel": 5,
      "note": 71,
      "start": 5.3706,
      "duration": 0.1439,
      "velocity": 127,
      "chip": "ym2612"
    },
    {
      "channel": 2,
      "note": 41,
      "start": 5.3714,
      "duration": 0.2748,
      "velocity": 127,
      "chip": "ym2612"
    },
    {
      "channel": 5,
      "note": 69,
      "start": 5.5152,
      "duration": 0.4508,
      "velocity": 127,
      "chip": "ym2612"
    },
    {
      "channel": 0,
      "note": 68,
      "start": 5.8151,
      "duration": 0.4479,
      "velocity": 127,
      "chip": "ym2612"
    },
    {
      "channel": 1,
      "note": 57,
      "start": 5.8157,
      "duration": 0.448,
      "velocity": 96,
      "chip": "ym2612"
    },
    {
      "channel": 3,
      "note": 62,
      "start": 5.8165,
      "duration": 0.1484,
      "velocity": 81,
      "chip": "ym2612"
    },
    {
      "channel": 4,
      "note": 68,
      "start": 5.8172,
      "duration": 0.4481,
      "velocity": 127,
      "chip": "ym2612"
    },
    {
      "channel": 2,
      "note": 41,
      "start": 5.8183,
      "duration": 0.1431,
      "velocity": 127,
      "chip": "ym2612"
    },
    {
      "channel": 3,
      "note": 62,
      "start": 5.9655,
      "duration": 0.1488,
      "velocity": 81,
      "chip": "ym2612"
    },
    {
      "channel": 5,
      "note": 68,
      "start": 5.9666,
      "duration": 0.4439,
      "velocity": 127,
      "chip": "ym2612"
    },
    {
      "channel": 2,
      "note": 41,
      "start": 5.9674,
      "duration": 0.143,
      "velocity": 127,
      "chip": "ym2612"
    },
    {
      "channel": 3,
      "note": 62,
      "start": 6.1149,
      "duration": 0.1497,
      "velocity": 81,
      "chip": "ym2612"
    },
    {
      "channel": 2,
      "note": 41,
      "start": 6.1164,
      "duration": 0.1431,
      "velocity": 127,
      "chip": "ym2612"
    },
    {
      "channel": 0,
      "note": 66,
      "start": 6.2635,
      "duration": 0.2946,
      "velocity": 127,
      "chip": "ym2612"
    },
    {
      "channel": 1,
      "note": 62,
      "start": 6.2644,
      "duration": 0.4468,
      "velocity": 96,
      "chip": "ym2612"
    },
    {
      "channel": 3,
      "note": 62,
      "start": 6.2651,
      "duration": 0.2218,
      "velocity": 81,
      "chip": "ym2612"
    },
    {
      "channel": 4,
      "note": 66,
      "start": 6.2659,
      "duration": 0.2936,
      "velocity": 127,
      "chip": "ym2612"
    },
    {
      "channel": 2,
      "note": 41,
      "start": 6.267,
      "duration": 0.2164,
      "velocity": 127,
      "chip": "ym2612"
    },
    {
      "channel": 5,
      "note": 66,
      "start": 6.4115,
      "duration": 0.3015,
      "velocity": 127,
      "chip": "ym2612"
    },
    {
      "channel": 3,
      "note": 62,
      "start": 6.4875,
      "duration": 0.2244,
      "velocity": 81,
      "chip": "ym2612"
    },
    {
      "channel": 2,
      "note": 41,
      "start": 6.489,
      "duration": 0.2184,
      "velocity": 127,
      "chip": "ym2612"
    },
    {
      "channel": 0,
      "note": 68,
      "start": 6.5587,
      "duration": 0.2983,
      "velocity": 127,
      "chip": "ym2612"
    },
    {
      "channel": 4,
      "note": 68,
      "start": 6.5603,
      "duration": 0.2981,
      "velocity": 127,
      "chip": "ym2612"
    },
    {
      "channel": 1,
      "note": 57,
      "start": 6.7117,
      "duration": 0.4474,
      "velocity": 96,
      "chip": "ym2612"
    },
    {
      "channel": 3,
      "note": 62,
      "start": 6.7124,
      "duration": 0.2222,
      "velocity": 81,
      "chip": "ym2612"
    },
    {
      "channel": 5,
      "note": 68,
      "start": 6.7135,
      "duration": 0.2938,
      "velocity": 127,
      "chip": "ym2612"
    },
    {
      "channel": 2,
      "note": 41,
      "start": 6.7144,
      "duration": 0.2169,
      "velocity": 127,
      "chip": "ym2612"
    },
    {
      "channel": 0,
      "note": 69,
      "start": 6.8576,
      "duration": 0.3007,
      "velocity": 127,
      "chip": "ym2612"
    },
    {
      "channel": 4,
      "note": 69,
      "start": 6.8589,
      "duration": 0.3027,
      "velocity": 127,
      "chip": "ym2612"
    },
    {
      "channel": 3,
      "note": 62,
      "start": 6.9353,
      "duration": 0.225,
      "velocity": 81,
      "chip": "ym2612"
    },
    {
      "channel": 2,
      "note": 41,
      "start": 6.9368,
      "duration": 0.2186,
      "velocity": 127,
      "chip": "ym2612"
    },
    {
      "channel": 5,
      "note": 69,
      "start": 7.0079,
      "duration": 0.298,
      "velocity": 127,
      "chip": "ym2612"
    },
    {
      "channel": 0,
      "note": 68,
      "start": 7.1589,
      "duration": 0.5962,
      "velocity": 127,
      "chip": "ym2612"
    },
    {
      "channel": 1,
      "note": 64,
      "start": 7.1597,
      "duration": 0.4464,
      "velocity": 96,
      "chip": "ym2612"
    },
    {
      "channel": 3,
      "note": 64,
      "start": 7.1614,
      "duration": 0.1438,
      "velocity": 81,
      "chip": "ym2612"
    },
    {
      "channel": 4,
      "note": 68,
      "start": 7.1622,
      "duration": 0.5947,
      "velocity": 127,
      "chip": "ym2612"
    },
    {
      "channel": 2,
      "note": 41,
      "start": 7.1633,
      "duration": 0.2732,
      "velocity": 127,
      "chip": "ym2612"
    },
    {
      "channel": 5,
      "note": 68,
      "start": 7.3065,
      "duration": 0.6004,
      "velocity": 127,
      "chip": "ym2612"
    },
    {
      "channel": 1,
      "note": 59,
      "start": 7.6066,
      "duration": 0.4479,
      "velocity": 96,
      "chip": "ym2612"
    },
    {
      "channel": 3,
      "note": 64,
      "start": 7.6074,
      "duration": 0.1487,
      "velocity": 81,
      "chip": "ym2612"
    },
    {
      "channel": 2,
      "note": 41,
      "start": 7.6089,
      "duration": 0.1433,
      "velocity": 127,
      "chip": "ym2612"
    },
    {
      "channel": 0,
      "note": 68,
      "start": 7.7556,
      "duration": 0.1487,
      "velocity": 127,
      "chip": "ym2612"
    },
    {
      "channel": 3,
      "note": 64,
      "start": 7.7567,
      "duration": 0.1487,
      "velocity": 81,
      "chip": "ym2612"
    },
    {
      "channel": 4,
      "note": 68,
      "start": 7.7575,
      "duration": 0.1487,
      "velocity": 127,
      "chip": "ym2612"
    },
    {
      "channel": 2,
      "note": 41,
      "start": 7.7586,
      "duration": 0.1429,
      "velocity": 127,
      "chip": "ym2612"
    },
    {
      "channel": 0,
      "note": 69,
      "start": 7.9049,
      "duration": 0.1488,
      "velocity": 127,
      "chip": "ym2612"
    },
    {
      "channel": 3,
      "note": 64,
      "start": 7.9059,
      "duration": 0.1495,
      "velocity": 81,
      "chip": "ym2612"
    },
    {
      "channel": 4,
      "note": 69,
      "start": 7.9067,
      "duration": 0.1494,
      "velocity": 127,
      "chip": "ym2612"
    },
    {
      "channel": 5,
      "note": 68,
      "start": 7.9075,
      "duration": 0.1494,
      "velocity": 127,
      "chip": "ym2612"
    },
    {
      "channel": 2,
      "note": 41,
      "start": 7.9082,
      "duration": 0.1427,
      "velocity": 127,
      "chip": "ym2612"
    },
    {
      "channel": 0,
      "note": 71,
      "start": 8.0544,
      "duration": 0.5963,
      "velocity": 127,
      "chip": "ym2612"
    },
    {
      "channel": 1,
      "note": 64,
      "start": 8.0552,
      "duration": 0.4466,
      "velocity": 96,
      "chip": "ym2612"
    },
    {
      "channel": 3,
      "note": 64,
      "start": 8.056,
      "duration": 0.1449,
      "velocity": 81,
      "chip": "ym2612"
    },
    {
      "channel": 4,
      "note": 71,
      "start": 8.0568,
      "duration": 0.5957,
      "velocity": 127,
      "chip": "ym2612"
    },
    {
      "channel": 5,
      "note": 69,
      "start": 8.0575,
      "duration": 0.144,
      "velocity": 127,
      "chip": "ym2612"
    },
    {
      "channel": 2,
      "note": 41,
      "start": 8.0583,
      "duration": 0.274,
      "velocity": 127,
      "chip": "ym2612"
    },
    {
      "channel": 5,
      "note": 71,
      "start": 8.2021,
      "duration": 0.6006,
      "velocity": 127,
      "chip": "ym2612"
    },
    {
      "channel": 1,
      "note": 59,
      "start": 8.5023,
      "duration": 0.4479,
      "velocity": 96,
      "chip": "ym2612"
    },
    {
      "channel": 3,
      "note": 64,
      "start": 8.5031,
      "duration": 0.1487,
      "velocity": 81,
      "chip": "ym2612"
    },
    {
      "channel": 2,
      "note": 41,
      "start": 8.5046,
      "duration": 0.1433,
      "velocity": 127,
      "chip": "ym2612"
    },
    {
      "channel": 0,
      "note": 71,
      "start": 8.6513,
      "duration": 0.1489,
      "velocity": 127,
      "chip": "ym2612"
    },
    {
      "channel": 3,
      "note": 64,
      "start": 8.6524,
      "duration": 0.1489,
      "velocity": 81,
      "chip": "ym2612"
    },
    {
      "channel": 4,
      "note": 71,
      "start": 8.6532,
      "duration": 0.1489,
      "velocity": 127,
      "chip": "ym2612"
    },
    {
      "channel": 2,
      "note": 41,
      "start": 8.6543,
      "duration": 0.1431,
      "velocity": 127,
      "chip": "ym2612"
    },
    {
      "channel": 0,
      "note": 73,
      "start": 8.8008,
      "duration": 0.1486,
      "velocity": 127,
      "chip": "ym2612"
    },
    {
      "channel": 3,
      "note": 64,
      "start": 8.8019,
      "duration": 0.1492,
      "velocity": 81,
      "chip": "ym2612"
    },
    {
      "channel": 4,
      "note": 73,
      "start": 8.8026,
      "duration": 0.1492,
      "velocity": 127,
      "chip": "ym2612"
    },
    {
      "channel": 5,
      "note": 71,
      "start": 8.8034,
      "duration": 0.1492,
      "velocity": 127,
      "chip": "ym2612"
    },
    {
      "channel": 2,
      "note": 41,
      "start": 8.8042,
      "duration": 0.1424,
      "velocity": 127,
      "chip": "ym2612"
    },
    {
      "channel": 0,
      "note": 74,
      "start": 8.95,
      "duration": 0.4474,
      "velocity": 127,
      "chip": "ym2612"
    },
    {
      "channel": 1,
      "note": 64,
      "start": 8.9508,
      "duration": 0.4474,
      "velocity": 96,
      "chip": "ym2612"
    },
    {
      "channel": 3,
      "note": 64,
      "start": 8.9516,
      "duration": 0.1448,
      "velocity": 81,
      "chip": "ym2612"
    },
    {
      "channel": 4,
      "note": 74,
      "start": 8.9524,
      "duration": 0.4473,
      "velocity": 127,
      "chip": "ym2612"
    },
    {
      "channel": 5,
      "note": 73,
      "start": 8.9532,
      "duration": 0.1439,
      "velocity": 127,
      "chip": "ym2612"
    },
    {
      "channel": 2,
      "note": 41,
      "start": 8.9539,
      "duration": 0.2746,
      "velocity": 127,
      "chip": "ym2612"
    },
    {
      "channel": 5,
      "note": 74,
      "start": 9.0977,
      "duration": 0.451,
      "velocity": 127,
      "chip": "ym2612"
    },
    {
      "channel": 0,
      "note": 73,
      "start": 9.3981,
      "duration": 0.4474,
      "velocity": 127,
      "chip": "ym2612"
    },
    {
      "channel": 1,
      "note": 59,
      "start": 9.3988,
      "duration": 0.4476,
      "velocity": 96,
      "chip": "ym2612"
    },
    {
      "channel": 3,
      "note": 64,
      "start": 9.3995,
      "duration": 0.1481,
      "velocity": 81,
      "chip": "ym2612"
    },
    {
      "channel": 4,
      "note": 73,
      "start": 9.4003,
      "duration": 0.4475,
      "velocity": 127,
      "chip": "ym2612"
    },
    {
      "channel": 2,
      "note": 41,
      "start": 9.4014,
      "duration": 0.1423,
      "velocity": 127,
      "chip": "ym2612"
    },
    {
      "channel": 3,
      "note": 64,
      "start": 9.5482,
      "duration": 0.1487,
      "velocity": 81,
      "chip": "ym2612"
    },
    {
      "channel": 5,
      "note": 73,
      "start": 9.5493,
      "duration": 0.4434,
      "velocity": 127,
      "chip": "ym2612"
    },
    {
      "channel": 2,
      "note": 41,
      "start": 9.5501,
      "duration": 0.1427,
      "velocity": 127,
      "chip": "ym2612"
    },
    {
      "channel": 3,
      "note": 64,
      "start": 9.6975,
      "duration": 0.1496,
      "velocity": 81,
      "chip": "ym2612"
    },
    {
      "channel": 2,
      "note": 41,
      "start": 9.699,
      "duration": 0.1431,
      "velocity": 127,
      "chip": "ym2612"
    },
    {
      "channel": 0,
      "note": 71,
      "start": 9.8461,
      "duration": 0.2945,
      "velocity": 127,
      "chip": "ym2612"
    },
    {
      "channel": 1,
      "note": 64,
      "start": 9.8469,
      "duration": 0.4461,
      "velocity": 96,
      "chip": "ym2612"
    },
    {
      "channel": 3,
      "note": 64,
      "start": 9.8477,
      "duration": 0.2218,
      "velocity": 81,
      "chip": "ym2612"
    },
    {
      "channel": 4,
      "note": 71,
      "start": 9.8484,
      "duration": 0.2937,
      "velocity": 127,
      "chip": "ym2612"
    },
    {
      "channel": 2,
      "note": 41,
      "start": 9.8496,
      "duration": 0.2165,
      "velocity": 127,
      "chip": "ym2612"
    },
    {
      "channel": 5,
      "note": 71,
      "start": 9.9935,
      "duration": 0.3019,
      "velocity": 127,
      "chip": "ym2612"
    },
    {
      "channel": 3,
      "note": 64,
      "start": 10.0701,
      "duration": 0.2239,
      "velocity": 81,
      "chip": "ym2612"
    },
    {
      "channel": 2,
      "note": 41,
      "start": 10.0716,
      "duration": 0.2183,
      "velocity": 127,
      "chip": "ym2612"
    },
    {
      "channel": 0,
      "note": 73,
      "start": 10.1412,
      "duration": 0.2979,
      "velocity": 127,
      "chip": "ym2612"
    },
    {
      "channel": 4,
      "note": 73,
      "start": 10.1427,
      "duration": 0.2979,
      "velocity": 127,
      "chip": "ym2612"
    },
    {
      "channel": 1,
      "note": 59,
      "start": 10.2939,
      "duration": 0.4479,
      "velocity": 96,
      "chip": "ym2612"
    },
    {
      "channel": 3,
      "note": 64,
      "start": 10.295,
      "duration": 0.2223,
      "velocity": 81,
      "chip": "ym2612"
    },
    {
      "channel": 5,
      "note": 73,
      "start": 10.2961,
      "duration": 0.2938,
      "velocity": 127,
      "chip": "ym2612"
    },
    {
      "channel": 2,
      "note": 41,
      "start": 10.2968,
      "duration": 0.217,
      "velocity": 127,
      "chip": "ym2612"
    },
    {
      "channel": 0,
      "note": 74,
      "start": 10.4397,
      "duration": 0.3012,
      "velocity": 127,
      "chip": "ym2612"
    },
    {
      "channel": 4,
      "note": 74,
      "start": 10.4412,
      "duration": 0.3025,
      "velocity": 127,
      "chip": "ym2612"
    },
    {
      "channel": 3,
      "note": 64,
      "start": 10.5179,
      "duration": 0.2249,
      "velocity": 81,
      "chip": "ym2612"
    },
    {
      "channel": 2,
      "note": 41,
      "start": 10.5194,
      "duration": 0.2187,
      "velocity": 127,
      "chip": "ym2612"
    },
    {
      "channel": 5,
      "note": 74,
      "start": 10.5904,
      "duration": 0.2979,
      "velocity": 127,
      "chip": "ym2612"
    },
    {
      "channel": 0,
      "note": 69,
      "start": 10.7416,
      "duration": 1.3424,
      "velocity": 127,
      "chip": "ym2612"
    },
    {
      "channel": 1,
      "note": 66,
      "start": 10.7424,
      "duration": 0.4462,
      "velocity": 96,
      "chip": "ym2612"
    },
    {
      "channel": 3,
      "note": 66,
      "start": 10.7436,
      "duration": 0.1441,
      "velocity": 81,
      "chip": "ym2612"
    },
    {
      "channel": 4,
      "note": 69,
      "start": 10.7448,
      "duration": 1.3415,
      "velocity": 127,
      "chip": "ym2612"
    },
    {
      "channel": 2,
      "note": 41,
      "start": 10.7459,
      "duration": 0.2732,
      "velocity": 127,
      "chip": "ym2612"
    },
    {
      "channel": 5,
      "note": 69,
      "start": 10.889,
      "duration": 1.3461,
      "velocity": 127,
      "chip": "ym2612"
    },
    {
      "channel": 1,
      "note": 61,
      "start": 11.1892,
      "duration": 0.4474,
      "velocity": 96,
      "chip": "ym2612"
    },
    {
      "channel": 3,
      "note": 66,
      "start": 11.19,
      "duration": 0.1483,
      "velocity": 81,
      "chip": "ym2612"
    },
    {
      "channel": 2,
      "note": 41,
      "start": 11.1915,
      "duration": 0.1434,
      "velocity": 127,
      "chip": "ym2612"
    },
    {
      "channel": 3,
      "note": 66,
      "start": 11.3389,
      "duration": 0.1487,
      "velocity": 81,
      "chip": "ym2612"
    },
    {
      "channel": 2,
      "note": 41,
      "start": 11.3404,
      "duration": 0.1436,
      "velocity": 127,
      "chip": "ym2612"
    },
    {
      "channel": 3,
      "note": 66,
      "start": 11.4881,
      "duration": 0.1494,
      "velocity": 81,
      "chip": "ym2612"
    },
    {
      "channel": 2,
      "note": 41,
      "start": 11.4897,
      "duration": 0.1438,
      "velocity": 127,
      "chip": "ym2612"
    },
    {
      "channel": 1,
      "note": 66,
      "start": 11.6373,
      "duration": 0.4474,
      "velocity": 96,
      "chip": "ym2612"
    },
    {
      "channel": 3,
      "note": 66,
      "start": 11.6381,
      "duration": 0.1453,
      "velocity": 81,
      "chip": "ym2612"
    },
    {
      "channel": 2,
      "note": 41,
      "start": 11.6395,
      "duration": 0.2752,
      "velocity": 127,
      "chip": "ym2612"
    },
    {
      "channel": 0,
      "note": 68,
      "start": 12.0846,
      "duration": 0.4475,
      "velocity": 127,
      "chip": "ym2612"
    },
    {
      "channel": 1,
      "note": 61,
      "start": 12.0853,
      "duration": 0.4476,
      "velocity": 96,
      "chip": "ym2612"
    },
    {
      "channel": 3,
      "note": 66,
      "start": 12.086,
      "duration": 0.1479,
      "velocity": 81,
      "chip": "ym2612"
    },
    {
      "channel": 4,
      "note": 68,
      "start": 12.0868,
      "duration": 0.4476,
      "velocity": 127,
      "chip": "ym2612"
    },
    {
      "channel": 2,
      "note": 41,
      "start": 12.0879,
      "duration": 0.1425,
      "velocity": 127,
      "chip": "ym2612"
    },
    {
      "channel": 3,
      "note": 66,
      "start": 12.2345,
      "duration": 0.1487,
      "velocity": 81,
      "chip": "ym2612"
    },
    {
      "channel": 5,
      "note": 68,
      "start": 12.2356,
      "duration": 0.4444,
      "velocity": 127,
      "chip": "ym2612"
    },
    {
      "channel": 2,
      "note": 41,
      "start": 12.2364,
      "duration": 0.1433,
      "velocity": 127,
      "chip": "ym2612"
    },
    {
      "channel": 3,
      "note": 66,
      "start": 12.3837,
      "duration": 0.15,
      "velocity": 81,
      "chip": "ym2612"
    },
    {
      "channel": 2,
      "note": 41,
      "start": 12.3853,
      "duration": 0.1439,
      "velocity": 127,
      "chip": "ym2612"
    },
    {
      "channel": 0,
      "note": 66,
      "start": 12.5326,
      "duration": 1.7907,
      "velocity": 127,
      "chip": "ym2612"
    },
    {
      "channel": 1,
      "note": 66,
      "start": 12.5334,
      "duration": 0.4472,
      "velocity": 96,
      "chip": "ym2612"
    },
    {
      "channel": 3,
      "note": 66,
      "start": 12.5343,
      "duration": 0.1451,
      "velocity": 81,
      "chip": "ym2612"
    },
    {
      "channel": 4,
      "note": 66,
      "start": 12.535,
      "duration": 1.7945,
      "velocity": 127,
      "chip": "ym2612"
    },
    {
      "channel": 2,
      "note": 41,
      "start": 12.5362,
      "duration": 0.2745,
      "velocity": 127,
      "chip": "ym2612"
    },
    {
      "channel": 5,
      "note": 66,
      "start": 12.6806,
      "duration": 1.7905,
      "velocity": 127,
      "chip": "ym2612"
    },
    {
      "channel": 1,
      "note": 61,
      "start": 12.9812,
      "duration": 0.4473,
      "velocity": 96,
      "chip": "ym2612"
    },
    {
      "channel": 3,
      "note": 66,
      "start": 12.982,
      "duration": 0.1482,
      "velocity": 81,
      "chip": "ym2612"
    },
    {
      "channel": 2,
      "note": 41,
      "start": 12.9834,
      "duration": 0.1427,
      "velocity": 127,
      "chip": "ym2612"
    },
    {
      "channel": 3,
      "note": 66,
      "start": 13.1308,
      "duration": 0.1487,
      "velocity": 81,
      "chip": "ym2612"
    },
    {
      "channel": 2,
      "note": 41,
      "start": 13.1323,
      "duration": 0.1431,
      "velocity": 127,
      "chip": "ym2612"
    },
    {
      "channel": 3,
      "note": 66,
      "start": 13.2801,
      "duration": 0.1491,
      "velocity": 81,
      "chip": "ym2612"
    },
    {
      "channel": 2,
      "note": 41,
      "start": 13.2817,
      "duration": 0.1429,
      "velocity": 127,
      "chip": "ym2612"
    },
    {
      "channel": 1,
      "note": 66,
      "start": 13.4291,
      "duration": 0.4466,
      "velocity": 96,
      "chip": "ym2612"
    },
    {
      "channel": 3,
      "note": 66,
      "start": 13.4298,
      "duration": 0.2225,
      "velocity": 81,
      "chip": "ym2612"
    },
    {
      "channel": 2,
      "note": 41,
      "start": 13.4313,
      "duration": 0.2176,
      "velocity": 127,
      "chip": "ym2612"
    },
    {
      "channel": 3,
      "note": 66,
      "start": 13.6529,
      "duration": 0.2235,
      "velocity": 81,
      "chip": "ym2612"
    },
    {
      "channel": 2,
      "note": 41,
      "start": 13.6544,
      "duration": 0.2181,
      "velocity": 127,
      "chip": "ym2612"
    },
    {
      "channel": 1,
      "note": 61,
      "start": 13.8762,
      "duration": 0.448,
      "velocity": 96,
      "chip": "ym2612"
    },
    {
      "channel": 3,
      "note": 66,
      "start": 13.8772,
      "duration": 0.2227,
      "velocity": 81,
      "chip": "ym2612"
    },
    {
      "channel": 2,
      "note": 41,
      "start": 13.8791,
      "duration": 0.2173,
      "velocity": 127,
      "chip": "ym2612"
    },
    {
      "channel": 3,
      "note": 66,
      "start": 14.1005,
      "duration": 0.2282,
      "velocity": 81,
      "chip": "ym2612"
    },
    {
      "channel": 2,
      "note": 41,
      "start": 14.102,
      "duration": 0.2185,
      "velocity": 127,
      "chip": "ym2612"
    },
    {
      "channel": 0,
      "note": 69,
      "start": 14.3239,
      "duration": 1.4918,
      "velocity": 127,
      "chip": "ym2612"
    },
    {
      "channel": 1,
      "note": 66,
      "start": 14.3249,
      "duration": 0.4464,
      "velocity": 96,
      "chip": "ym2612"
    },
    {
      "channel": 3,
      "note": 66,
      "start": 14.3292,
      "duration": 0.141,
      "velocity": 81,
      "chip": "ym2612"
    },
    {
      "channel": 4,
      "note": 69,
      "start": 14.3301,
      "duration": 1.4875,
      "velocity": 127,
      "chip": "ym2612"
    },
    {
      "channel": 2,
      "note": 41,
      "start": 14.3313,
      "duration": 0.2704,
      "velocity": 127,
      "chip": "ym2612"
    },
    {
      "channel": 5,
      "note": 69,
      "start": 14.4717,
      "duration": 1.4959,
      "velocity": 127,
      "chip": "ym2612"
    },
    {
      "channel": 1,
      "note": 61,
      "start": 14.7718,
      "duration": 0.4475,
      "velocity": 96,
      "chip": "ym2612"
    },
    {
      "channel": 3,
      "note": 66,
      "start": 14.7726,
      "duration": 0.1483,
      "velocity": 81,
      "chip": "ym2612"
    },
    {
      "channel": 2,
      "note": 41,
      "start": 14.7741,
      "duration": 0.1433,
      "velocity": 127,
      "chip": "ym2612"
    },
    {
      "channel": 3,
      "note": 66,
      "start": 14.9215,
      "duration": 0.1486,
      "velocity": 81,
      "chip": "ym2612"
    },
    {
      "channel": 2,
      "note": 41,
      "start": 14.9229,
      "duration": 0.1437,
      "velocity": 127,
      "chip": "ym2612"
    },
    {
      "channel": 3,
      "note": 66,
      "start": 15.0706,
      "duration": 0.1495,
      "velocity": 81,
      "chip": "ym2612"
    },
    {
      "channel": 2,
      "note": 41,
      "start": 15.0722,
      "duration": 0.1438,
      "velocity": 127,
      "chip": "ym2612"
    },
    {
      "channel": 1,
      "note": 66,
      "start": 15.2199,
      "duration": 0.4471,
      "velocity": 96,
      "chip": "ym2612"
    },
    {
      "channel": 3,
      "note": 66,
      "start": 15.2207,
      "duration": 0.1452,
      "velocity": 81,
      "chip": "ym2612"
    },
    {
      "channel": 2,
      "note": 41,
      "start": 15.2222,
      "duration": 0.2751,
      "velocity": 127,
      "chip": "ym2612"
    },
    {
      "channel": 1,
      "note": 61,
      "start": 15.6675,
      "duration": 0.4478,
      "velocity": 96,
      "chip": "ym2612"
    },
    {
      "channel": 3,
      "note": 66,
      "start": 15.6683,
      "duration": 0.1486,
      "velocity": 81,
      "chip": "ym2612"
    },
    {
      "channel": 2,
      "note": 41,
      "start": 15.6698,
      "duration": 0.1432,
      "velocity": 127,
      "chip": "ym2612"
    },
    {
      "channel": 0,
      "note": 69,
      "start": 15.8164,
      "duration": 0.1487,
      "velocity": 127,
      "chip": "ym2612"
    },
    {
      "channel": 3,
      "note": 66,
      "start": 15.8175,
      "duration": 0.1487,
      "velocity": 81,
      "chip": "ym2612"
    },
    {
      "channel": 4,
      "note": 69,
      "start": 15.8182,
      "duration": 0.1487,
      "velocity": 127,
      "chip": "ym2612"
    },
    {
      "channel": 2,
      "note": 41,
      "start": 15.8194,
      "duration": 0.1429,
      "velocity": 127,
      "chip": "ym2612"
    },
    {
      "channel": 0,
      "note": 71,
      "start": 15.9657,
      "duration": 0.1488,
      "velocity": 127,
      "chip": "ym2612"
    },
    {
      "channel": 3,
      "note": 66,
      "start": 15.9667,
      "duration": 0.1495,
      "velocity": 81,
      "chip": "ym2612"
    },
    {
      "channel": 4,
      "note": 71,
      "start": 15.9675,
      "duration": 0.1495,
      "velocity": 127,
      "chip": "ym2612"
    },
    {
      "channel": 5,
      "note": 69,
      "start": 15.9682,
      "duration": 0.1495,
      "velocity": 127,
      "chip": "ym2612"
    },
    {
      "channel": 2,
      "note": 41,
      "start": 15.969,
      "duration": 0.1428,
      "velocity": 127,
      "chip": "ym2612"
    },
    {
      "channel": 0,
      "note": 69,
      "start": 16.1151,
      "duration": 0.448,
      "velocity": 127,
      "chip": "ym2612"
    },
    {
      "channel": 1,
      "note": 66,
      "start": 16.1159,
      "duration": 0.448,
      "velocity": 96,
      "chip": "ym2612"
    },
    {
      "channel": 3,
      "note": 66,
      "start": 16.1168,
      "duration": 0.1452,
      "velocity": 81,
      "chip": "ym2612"
    },
    {
      "channel": 4,
      "note": 69,
      "start": 16.1175,
      "duration": 0.4478,
      "velocity": 127,
      "chip": "ym2612"
    },
    {
      "channel": 5,
      "note": 71,
      "start": 16.1183,
      "duration": 0.1443,
      "velocity": 127,
      "chip": "ym2612"
    },
    {
      "channel": 2,
      "note": 41,
      "start": 16.119,
      "duration": 0.274,
      "velocity": 127,
      "chip": "ym2612"
    },
    {
      "channel": 5,
      "note": 69,
      "start": 16.2632,
      "duration": 0.4506,
      "velocity": 127,
      "chip": "ym2612"
    },
    {
      "channel": 0,
      "note": 68,
      "start": 16.5637,
      "duration": 0.4465,
      "velocity": 127,
      "chip": "ym2612"
    },
    {
      "channel": 1,
      "note": 61,
      "start": 16.5645,
      "duration": 0.447,
      "velocity": 96,
      "chip": "ym2612"
    },
    {
      "channel": 3,
      "note": 66,
      "start": 16.5652,
      "duration": 0.1475,
      "velocity": 81,
      "chip": "ym2612"
    },
    {
      "channel": 4,
      "note": 68,
      "start": 16.5659,
      "duration": 0.447,
      "velocity": 127,
      "chip": "ym2612"
    },
    {
      "channel": 2,
      "note": 41,
      "start": 16.5671,
      "duration": 0.1415,
      "velocity": 127,
      "chip": "ym2612"
    },
    {
      "channel": 3,
      "note": 66,
      "start": 16.7133,
      "duration": 0.1487,
      "velocity": 81,
      "chip": "ym2612"
    },
    {
      "channel": 5,
      "note": 68,
      "start": 16.7144,
      "duration": 0.4435,
      "velocity": 127,
      "chip": "ym2612"
    },
    {
      "channel": 2,
      "note": 41,
      "start": 16.7152,
      "duration": 0.1427,
      "velocity": 127,
      "chip": "ym2612"
    },
    {
      "channel": 3,
      "note": 66,
      "start": 16.8626,
      "duration": 0.1496,
      "velocity": 81,
      "chip": "ym2612"
    },
    {
      "channel": 2,
      "note": 41,
      "start": 16.8641,
      "duration": 0.1431,
      "velocity": 127,
      "chip": "ym2612"
    },
    {
      "channel": 0,
      "note": 66,
      "start": 17.0112,
      "duration": 0.2945,
      "velocity": 127,
      "chip": "ym2612"
    },
    {
      "channel": 1,
      "note": 66,
      "start": 17.0121,
      "duration": 0.4461,
      "velocity": 96,
      "chip": "ym2612"
    },
    {
      "channel": 3,
      "note": 66,
      "start": 17.0128,
      "duration": 0.2218,
      "velocity": 81,
      "chip": "ym2612"
    },
    {
      "channel": 4,
      "note": 66,
      "start": 17.0136,
      "duration": 0.2936,
      "velocity": 127,
      "chip": "ym2612"
    },
    {
      "channel": 2,
      "note": 41,
      "start": 17.0147,
      "duration": 0.2164,
      "velocity": 127,
      "chip": "ym2612"
    },
    {
      "channel": 5,
      "note": 66,
      "start": 17.1584,
      "duration": 0.3018,
      "velocity": 127,
      "chip": "ym2612"
    },
    {
      "channel": 3,
      "note": 66,
      "start": 17.2352,
      "duration": 0.2237,
      "velocity": 81,
      "chip": "ym2612"
    },
    {
      "channel": 2,
      "note": 41,
      "start": 17.2367,
      "duration": 0.2183,
      "velocity": 127,
      "chip": "ym2612"
    },
    {
      "channel": 0,
      "note": 68,
      "start": 17.3063,
      "duration": 0.298,
      "velocity": 127,
      "chip": "ym2612"
    },
    {
      "channel": 4,
      "note": 68,
      "start": 17.3078,
      "duration": 0.2979,
      "velocity": 127,
      "chip": "ym2612"
    },
    {
      "channel": 1,
      "note": 61,
      "start": 17.4588,
      "duration": 0.448,
      "velocity": 96,
      "chip": "ym2612"
    },
    {
      "channel": 3,
      "note": 66,
      "start": 17.4595,
      "duration": 0.2229,
      "velocity": 81,
      "chip": "ym2612"
    },
    {
      "channel": 5,
      "note": 68,
      "start": 17.4612,
      "duration": 0.2938,
      "velocity": 127,
      "chip": "ym2612"
    },
    {
      "channel": 2,
      "note": 41,
      "start": 17.462,
      "duration": 0.217,
      "velocity": 127,
      "chip": "ym2612"
    },
    {
      "channel": 0,
      "note": 69,
      "start": 17.6049,
      "duration": 0.3011,
      "velocity": 127,
      "chip": "ym2612"
    },
    {
      "channel": 4,
      "note": 69,
      "start": 17.6063,
      "duration": 0.3023,
      "velocity": 127,
      "chip": "ym2612"
    },
    {
      "channel": 3,
      "note": 66,
      "start": 17.683,
      "duration": 0.2248,
      "velocity": 81,
      "chip": "ym2612"
    },
    {
      "channel": 2,
      "note": 41,
      "start": 17.6845,
      "duration": 0.2185,
      "velocity": 127,
      "chip": "ym2612"
    },
    {
      "channel": 5,
      "note": 69,
      "start": 17.7556,
      "duration": 0.2981,
      "velocity": 127,
      "chip": "ym2612"
    },
    {
      "channel": 0,
      "note": 69,
      "start": 17.9066,
      "duration": 1.4917,
      "velocity": 127,
      "chip": "ym2612"
    },
    {
      "channel": 1,
      "note": 62,
      "start": 17.9074,
      "duration": 0.4464,
      "velocity": 96,
      "chip": "ym2612"
    },
    {
      "channel": 3,
      "note": 62,
      "start": 17.9084,
      "duration": 0.1445,
      "velocity": 81,
      "chip": "ym2612"
    },
    {
      "channel": 4,
      "note": 69,
      "start": 17.9093,
      "duration": 1.4909,
      "velocity": 127,
      "chip": "ym2612"
    },
    {
      "channel": 2,
      "note": 41,
      "start": 17.9106,
      "duration": 0.2737,
      "velocity": 127,
      "chip": "ym2612"
    },
    {
      "channel": 5,
      "note": 69,
      "start": 18.0543,
      "duration": 1.4959,
      "velocity": 127,
      "chip": "ym2612"
    },
    {
      "channel": 1,
      "note": 57,
      "start": 18.3544,
      "duration": 0.4474,
      "velocity": 96,
      "chip": "ym2612"
    },
    {
      "channel": 3,
      "note": 62,
      "start": 18.3552,
      "duration": 0.1485,
      "velocity": 81,
      "chip": "ym2612"
    },
    {
      "channel": 2,
      "note": 41,
      "start": 18.3566,
      "duration": 0.1436,
      "velocity": 127,
      "chip": "ym2612"
    },
    {
      "channel": 3,
      "note": 62,
      "start": 18.5043,
      "duration": 0.1484,
      "velocity": 81,
      "chip": "ym2612"
    },
    {
      "channel": 2,
      "note": 41,
      "start": 18.5058,
      "duration": 0.1434,
      "velocity": 127,
      "chip": "ym2612"
    },
    {
      "channel": 3,
      "note": 62,
      "start": 18.6533,
      "duration": 0.1493,
      "velocity": 81,
      "chip": "ym2612"
    },
    {
      "channel": 2,
      "note": 41,
      "start": 18.6548,
      "duration": 0.1438,
      "velocity": 127,
      "chip": "ym2612"
    },
    {
      "channel": 1,
      "note": 62,
      "start": 18.8024,
      "duration": 0.4469,
      "velocity": 96,
      "chip": "ym2612"
    },
    {
      "channel": 3,
      "note": 62,
      "start": 18.8033,
      "duration": 0.1452,
      "velocity": 81,
      "chip": "ym2612"
    },
    {
      "channel": 2,
      "note": 41,
      "start": 18.8047,
      "duration": 0.2751,
      "velocity": 127,
      "chip": "ym2612"
    },
    {
      "channel": 1,
      "note": 57,
      "start": 19.25,
      "duration": 0.4484,
      "velocity": 96,
      "chip": "ym2612"
    },
    {
      "channel": 3,
      "note": 62,
      "start": 19.2507,
      "duration": 0.1487,
      "velocity": 81,
      "chip": "ym2612"
    },
    {
      "channel": 2,
      "note": 41,
      "start": 19.2523,
      "duration": 0.1432,
      "velocity": 127,
      "chip": "ym2612"
    },
    {
      "channel": 0,
      "note": 69,
      "start": 19.399,
      "duration": 0.1487,
      "velocity": 127,
      "chip": "ym2612"
    },
    {
      "channel": 3,
      "note": 62,
      "start": 19.4,
      "duration": 0.1487,
      "velocity": 81,
      "chip": "ym2612"
    },
    {
      "channel": 4,
      "note": 69,
      "start": 19.4008,
      "duration": 0.1487,
      "velocity": 127,
      "chip": "ym2612"
    },
    {
      "channel": 2,
      "note": 41,
      "start": 19.402,
      "duration": 0.1429,
      "velocity": 127,
      "chip": "ym2612"
    },
    {
      "channel": 0,
      "note": 71,
      "start": 19.5483,
      "duration": 0.1492,
      "velocity": 127,
      "chip": "ym2612"
    },
    {
      "channel": 3,
      "note": 62,
      "start": 19.5493,
      "duration": 0.1499,
      "velocity": 81,
      "chip": "ym2612"
    },
    {
      "channel": 4,
      "note": 71,
      "start": 19.5501,
      "duration": 0.1499,
      "velocity": 127,
      "chip": "ym2612"
    },
    {
      "channel": 5,
      "note": 69,
      "start": 19.5509,
      "duration": 0.1499,
      "velocity": 127,
      "chip": "ym2612"
    },
    {
      "channel": 2,
      "note": 41,
      "start": 19.5516,
      "duration": 0.1431,
      "velocity": 127,
      "chip": "ym2612"
    },
    {
      "channel": 0,
      "note": 69,
      "start": 19.6981,
      "duration": 0.4473,
      "velocity": 127,
      "chip": "ym2612"
    },
    {
      "channel": 1,
      "note": 62,
      "start": 19.699,
      "duration": 0.4472,
      "velocity": 96,
      "chip": "ym2612"
    },
    {
      "channel": 3,
      "note": 62,
      "start": 19.6998,
      "duration": 0.145,
      "velocity": 81,
      "chip": "ym2612"
    },
    {
      "channel": 4,
      "note": 69,
      "start": 19.7005,
      "duration": 0.4471,
      "velocity": 127,
      "chip": "ym2612"
    },
    {
      "channel": 5,
      "note": 71,
      "start": 19.7013,
      "duration": 0.1441,
      "velocity": 127,
      "chip": "ym2612"
    },
    {
      "channel": 2,
      "note": 41,
      "start": 19.7021,
      "duration": 0.2735,
      "velocity": 127,
      "chip": "ym2612"
    },
    {
      "channel": 5,
      "note": 69,
      "start": 19.846,
      "duration": 0.4504,
      "velocity": 127,
      "chip": "ym2612"
    },
    {
      "channel": 0,
      "note": 68,
      "start": 20.146,
      "duration": 0.4466,
      "velocity": 127,
      "chip": "ym2612"
    },
    {
      "channel": 1,
      "note": 57,
      "start": 20.1467,
      "duration": 0.4469,
      "velocity": 96,
      "chip": "ym2612"
    },
    {
      "channel": 3,
      "note": 62,
      "start": 20.1475,
      "duration": 0.1478,
      "velocity": 81,
      "chip": "ym2612"
    },
    {
      "channel": 4,
      "note": 68,
      "start": 20.1482,
      "duration": 0.4474,
      "velocity": 127,
      "chip": "ym2612"
    },
    {
      "channel": 2,
      "note": 41,
      "start": 20.1493,
      "duration": 0.1419,
      "velocity": 127,
      "chip": "ym2612"
    },
    {
      "channel": 3,
      "note": 62,
      "start": 20.2959,
      "duration": 0.149,
      "velocity": 81,
      "chip": "ym2612"
    },
    {
      "channel": 5,
      "note": 68,
      "start": 20.297,
      "duration": 0.4434,
      "velocity": 127,
      "chip": "ym2612"
    },
    {
      "channel": 2,
      "note": 41,
      "start": 20.2978,
      "duration": 0.1429,
      "velocity": 127,
      "chip": "ym2612"
    },
    {
      "channel": 3,
      "note": 62,
      "start": 20.4454,
      "duration": 0.1494,
      "velocity": 81,
      "chip": "ym2612"
    },
    {
      "channel": 2,
      "note": 41,
      "start": 20.447,
      "duration": 0.1428,
      "velocity": 127,
      "chip": "ym2612"
    },
    {
      "channel": 0,
      "note": 66,
      "start": 20.5934,
      "duration": 0.295,
      "velocity": 127,
      "chip": "ym2612"
    },
    {
      "channel": 1,
      "note": 62,
      "start": 20.5947,
      "duration": 0.446,
      "velocity": 96,
      "chip": "ym2612"
    },
    {
      "channel": 3,
      "note": 62,
      "start": 20.5954,
      "duration": 0.2218,
      "velocity": 81,
      "chip": "ym2612"
    },
    {
      "channel": 4,
      "note": 66,
      "start": 20.5961,
      "duration": 0.2937,
      "velocity": 127,
      "chip": "ym2612"
    },
    {
      "channel": 2,
      "note": 41,
      "start": 20.5973,
      "duration": 0.2164,
      "velocity": 127,
      "chip": "ym2612"
    },
    {
      "channel": 5,
      "note": 66,
      "start": 20.741,
      "duration": 0.3015,
      "velocity": 127,
      "chip": "ym2612"
    },
    {
      "channel": 3,
      "note": 62,
      "start": 20.8178,
      "duration": 0.2237,
      "velocity": 81,
      "chip": "ym2612"
    },
    {
      "channel": 2,
      "note": 41,
      "start": 20.8193,
      "duration": 0.2183,
      "velocity": 127,
      "chip": "ym2612"
    },
    {
      "channel": 0,
      "note": 68,
      "start": 20.889,
      "duration": 0.298,
      "velocity": 127,
      "chip": "ym2612"
    },
    {
      "channel": 4,
      "note": 68,
      "start": 20.8904,
      "duration": 0.2979,
      "velocity": 127,
      "chip": "ym2612"
    },
    {
      "channel": 1,
      "note": 57,
      "start": 21.0413,
      "duration": 0.4481,
      "velocity": 96,
      "chip": "ym2612"
    },
    {
      "channel": 3,
      "note": 62,
      "start": 21.042,
      "duration": 0.223,
      "velocity": 81,
      "chip": "ym2612"
    },
    {
      "channel": 5,
      "note": 68,
      "start": 21.0431,
      "duration": 0.2945,
      "velocity": 127,
      "chip": "ym2612"
    },
    {
      "channel": 2,
      "note": 41,
      "start": 21.0446,
      "duration": 0.217,
      "velocity": 127,
      "chip": "ym2612"
    },
    {
      "channel": 0,
      "note": 69,
      "start": 21.1875,
      "duration": 0.3011,
      "velocity": 127,
      "chip": "ym2612"
    },
    {
      "channel": 4,
      "note": 69,
      "start": 21.189,
      "duration": 0.3022,
      "velocity": 127,
      "chip": "ym2612"
    },
    {
      "channel": 3,
      "note": 62,
      "start": 21.2656,
      "duration": 0.2248,
      "velocity": 81,
      "chip": "ym2612"
    },
    {
      "channel": 2,
      "note": 41,
      "start": 21.2671,
      "duration": 0.2186,
      "velocity": 127,
      "chip": "ym2612"
    },
    {
      "channel": 5,
      "note": 69,
      "start": 21.3381,
      "duration": 0.298,
      "velocity": 127,
      "chip": "ym2612"
    },
    {
      "channel": 0,
      "note": 68,
      "start": 21.4892,
      "duration": 0.5962,
      "velocity": 127,
      "chip": "ym2612"
    },
    {
      "channel": 1,
      "note": 64,
      "start": 21.49,
      "duration": 0.4464,
      "velocity": 96,
      "chip": "ym2612"
    },
    {
      "channel": 3,
      "note": 64,
      "start": 21.491,
      "duration": 0.1444,
      "velocity": 81,
      "chip": "ym2612"
    },
    {
      "channel": 4,
      "note": 68,
      "start": 21.4918,
      "duration": 0.5954,
      "velocity": 127,
      "chip": "ym2612"
    },
    {
      "channel": 2,
      "note": 41,
      "start": 21.493,
      "duration": 0.2739,
      "velocity": 127,
      "chip": "ym2612"
    },
    {
      "channel": 5,
      "note": 68,
      "start": 21.6367,
      "duration": 0.6004,
      "velocity": 127,
      "chip": "ym2612"
    },
    {
      "channel": 1,
      "note": 59,
      "start": 21.937,
      "duration": 0.4481,
      "velocity": 96,
      "chip": "ym2612"
    },
    {
      "channel": 3,
      "note": 64,
      "start": 21.9378,
      "duration": 0.1487,
      "velocity": 81,
      "chip": "ym2612"
    },
    {
      "channel": 2,
      "note": 41,
      "start": 21.9392,
      "duration": 0.1433,
      "velocity": 127,
      "chip": "ym2612"
    },
    {
      "channel": 0,
      "note": 68,
      "start": 22.0859,
      "duration": 0.1487,
      "velocity": 127,
      "chip": "ym2612"
    },
    {
      "channel": 3,
      "note": 64,
      "start": 22.087,
      "duration": 0.1487,
      "velocity": 81,
      "chip": "ym2612"
    },
    {
      "channel": 4,
      "note": 68,
      "start": 22.0878,
      "duration": 0.1487,
      "velocity": 127,
      "chip": "ym2612"
    },
    {
      "channel": 2,
      "note": 41,
      "start": 22.0889,
      "duration": 0.1429,
      "velocity": 127,
      "chip": "ym2612"
    },
    {
      "channel": 0,
      "note": 69,
      "start": 22.2352,
      "duration": 0.149,
      "velocity": 127,
      "chip": "ym2612"
    },
    {
      "channel": 3,
      "note": 64,
      "start": 22.2362,
      "duration": 0.1497,
      "velocity": 81,
      "chip": "ym2612"
    },
    {
      "channel": 4,
      "note": 69,
      "start": 22.237,
      "duration": 0.1497,
      "velocity": 127,
      "chip": "ym2612"
    },
    {
      "channel": 5,
      "note": 68,
      "start": 22.2378,
      "duration": 0.1497,
      "velocity": 127,
      "chip": "ym2612"
    },
    {
      "channel": 2,
      "note": 41,
      "start": 22.2385,
      "duration": 0.1429,
      "velocity": 127,
      "chip": "ym2612"
    },
    {
      "channel": 0,
      "note": 71,
      "start": 22.3849,
      "duration": 0.5961,
      "velocity": 127,
      "chip": "ym2612"
    },
    {
      "channel": 1,
      "note": 64,
      "start": 22.3857,
      "duration": 0.4463,
      "velocity": 96,
      "chip": "ym2612"
    },
    {
      "channel": 3,
      "note": 64,
      "start": 22.3866,
      "duration": 0.1445,
      "velocity": 81,
      "chip": "ym2612"
    },
    {
      "channel": 4,
      "note": 71,
      "start": 22.3873,
      "duration": 0.5956,
      "velocity": 127,
      "chip": "ym2612"
    },
    {
      "channel": 5,
      "note": 69,
      "start": 22.388,
      "duration": 0.1437,
      "velocity": 127,
      "chip": "ym2612"
    },
    {
      "channel": 2,
      "note": 41,
      "start": 22.3888,
      "duration": 0.274,
      "velocity": 127,
      "chip": "ym2612"
    },
    {
      "channel": 5,
      "note": 71,
      "start": 22.5324,
      "duration": 0.6009,
      "velocity": 127,
      "chip": "ym2612"
    },
    {
      "channel": 1,
      "note": 59,
      "start": 22.8326,
      "duration": 0.4485,
      "velocity": 96,
      "chip": "ym2612"
    },
    {
      "channel": 3,
      "note": 64,
      "start": 22.8334,
      "duration": 0.1487,
      "velocity": 81,
      "chip": "ym2612"
    },
    {
      "channel": 2,
      "note": 41,
      "start": 22.8348,
      "duration": 0.1434,
      "velocity": 127,
      "chip": "ym2612"
    },
    {
      "channel": 0,
      "note": 71,
      "start": 22.9816,
      "duration": 0.1491,
      "velocity": 127,
      "chip": "ym2612"
    },
    {
      "channel": 3,
      "note": 64,
      "start": 22.9827,
      "duration": 0.1491,
      "velocity": 81,
      "chip": "ym2612"
    },
    {
      "channel": 4,
      "note": 71,
      "start": 22.9834,
      "duration": 0.149,
      "velocity": 127,
      "chip": "ym2612"
    },
    {
      "channel": 2,
      "note": 41,
      "start": 22.9846,
      "duration": 0.1433,
      "velocity": 127,
      "chip": "ym2612"
    },
    {
      "channel": 0,
      "note": 73,
      "start": 23.1313,
      "duration": 0.149,
      "velocity": 127,
      "chip": "ym2612"
    },
    {
      "channel": 3,
      "note": 64,
      "start": 23.1324,
      "duration": 0.1496,
      "velocity": 81,
      "chip": "ym2612"
    },
    {
      "channel": 4,
      "note": 73,
      "start": 23.133,
      "duration": 0.1497,
      "velocity": 127,
      "chip": "ym2612"
    },
    {
      "channel": 5,
      "note": 71,
      "start": 23.1338,
      "duration": 0.1497,
      "velocity": 127,
      "chip": "ym2612"
    },
    {
      "channel": 2,
      "note": 41,
      "start": 23.1346,
      "duration": 0.1424,
      "velocity": 127,
      "chip": "ym2612"
    },
    {
      "channel": 0,
      "note": 74,
      "start": 23.2809,
      "duration": 0.447,
      "velocity": 127,
      "chip": "ym2612"
    },
    {
      "channel": 1,
      "note": 64,
      "start": 23.2817,
      "duration": 0.4469,
      "velocity": 96,
      "chip": "ym2612"
    },
    {
      "channel": 3,
      "note": 64,
      "start": 23.2825,
      "duration": 0.1443,
      "velocity": 81,
      "chip": "ym2612"
    },
    {
      "channel": 4,
      "note": 74,
      "start": 23.2833,
      "duration": 0.4468,
      "velocity": 127,
      "chip": "ym2612"
    },
    {
      "channel": 5,
      "note": 73,
      "start": 23.2841,
      "duration": 0.1439,
      "velocity": 127,
      "chip": "ym2612"
    },
    {
      "channel": 2,
      "note": 41,
      "start": 23.2848,
      "duration": 0.2733,
      "velocity": 127,
      "chip": "ym2612"
    },
    {
      "channel": 5,
      "note": 74,
      "start": 23.4285,
      "duration": 0.4505,
      "velocity": 127,
      "chip": "ym2612"
    },
    {
      "channel": 0,
      "note": 73,
      "start": 23.7285,
      "duration": 0.4467,
      "velocity": 127,
      "chip": "ym2612"
    },
    {
      "channel": 1,
      "note": 59,
      "start": 23.7292,
      "duration": 0.4468,
      "velocity": 96,
      "chip": "ym2612"
    },
    {
      "channel": 3,
      "note": 64,
      "start": 23.73,
      "duration": 0.1479,
      "velocity": 81,
      "chip": "ym2612"
    },
    {
      "channel": 4,
      "note": 73,
      "start": 23.7307,
      "duration": 0.4474,
      "velocity": 127,
      "chip": "ym2612"
    },
    {
      "channel": 2,
      "note": 41,
      "start": 23.7319,
      "duration": 0.1419,
      "velocity": 127,
      "chip": "ym2612"
    },
    {
      "channel": 3,
      "note": 64,
      "start": 23.8785,
      "duration": 0.1484,
      "velocity": 81,
      "chip": "ym2612"
    },
    {
      "channel": 5,
      "note": 73,
      "start": 23.8796,
      "duration": 0.4437,
      "velocity": 127,
      "chip": "ym2612"
    },
    {
      "channel": 2,
      "note": 41,
      "start": 23.8804,
      "duration": 0.1427,
      "velocity": 127,
      "chip": "ym2612"
    },
    {
      "channel": 3,
      "note": 64,
      "start": 24.0274,
      "duration": 0.1496,
      "velocity": 81,
      "chip": "ym2612"
    },
    {
      "channel": 2,
      "note": 41,
      "start": 24.0293,
      "duration": 0.1431,
      "velocity": 127,
      "chip": "ym2612"
    },
    {
      "channel": 0,
      "note": 71,
      "start": 24.1758,
      "duration": 0.2951,
      "velocity": 127,
      "chip": "ym2612"
    },
    {
      "channel": 1,
      "note": 64,
      "start": 24.1769,
      "duration": 0.4464,
      "velocity": 96,
      "chip": "ym2612"
    },
    {
      "channel": 3,
      "note": 64,
      "start": 24.178,
      "duration": 0.2217,
      "velocity": 81,
      "chip": "ym2612"
    },
    {
      "channel": 4,
      "note": 71,
      "start": 24.1788,
      "duration": 0.2936,
      "velocity": 127,
      "chip": "ym2612"
    },
    {
      "channel": 2,
      "note": 41,
      "start": 24.1799,
      "duration": 0.2163,
      "velocity": 127,
      "chip": "ym2612"
    },
    {
      "channel": 5,
      "note": 71,
      "start": 24.3239,
      "duration": 0.3012,
      "velocity": 127,
      "chip": "ym2612"
    },
    {
      "channel": 3,
      "note": 64,
      "start": 24.4003,
      "duration": 0.2237,
      "velocity": 81,
      "chip": "ym2612"
    },
    {
      "channel": 2,
      "note": 41,
      "start": 24.4018,
      "duration": 0.2183,
      "velocity": 127,
      "chip": "ym2612"
    },
    {
      "channel": 0,
      "note": 73,
      "start": 24.4715,
      "duration": 0.298,
      "velocity": 127,
      "chip": "ym2612"
    },
    {
      "channel": 4,
      "note": 73,
      "start": 24.473,
      "duration": 0.2979,
      "velocity": 127,
      "chip": "ym2612"
    },
    {
      "channel": 1,
      "note": 59,
      "start": 24.6239,
      "duration": 0.4479,
      "velocity": 96,
      "chip": "ym2612"
    },
    {
      "channel": 3,
      "note": 64,
      "start": 24.6246,
      "duration": 0.2234,
      "velocity": 81,
      "chip": "ym2612"
    },
    {
      "channel": 5,
      "note": 73,
      "start": 24.6257,
      "duration": 0.2945,
      "velocity": 127,
      "chip": "ym2612"
    },
    {
      "channel": 2,
      "note": 41,
      "start": 24.6265,
      "duration": 0.218,
      "velocity": 127,
      "chip": "ym2612"
    },
    {
      "channel": 0,
      "note": 74,
      "start": 24.7701,
      "duration": 0.3009,
      "velocity": 127,
      "chip": "ym2612"
    },
    {
      "channel": 4,
      "note": 74,
      "start": 24.7715,
      "duration": 0.302,
      "velocity": 127,
      "chip": "ym2612"
    },
    {
      "channel": 3,
      "note": 64,
      "start": 24.8486,
      "duration": 0.2242,
      "velocity": 81,
      "chip": "ym2612"
    },
    {
      "channel": 2,
      "note": 41,
      "start": 24.85,
      "duration": 0.2181,
      "velocity": 127,
      "chip": "ym2612"
    },
    {
      "channel": 5,
      "note": 74,
      "start": 24.9208,
      "duration": 0.2978,
      "velocity": 127,
      "chip": "ym2612"
    },
    {
      "channel": 0,
      "note": 69,
      "start": 25.0715,
      "duration": 1.3429,
      "velocity": 127,
      "chip": "ym2612"
    },
    {
      "channel": 1,
      "note": 66,
      "start": 25.0724,
      "duration": 0.4466,
      "velocity": 96,
      "chip": "ym2612"
    },
    {
      "channel": 3,
      "note": 66,
      "start": 25.0734,
      "duration": 0.1446,
      "velocity": 81,
      "chip": "ym2612"
    },
    {
      "channel": 4,
      "note": 69,
      "start": 25.0741,
      "duration": 1.3425,
      "velocity": 127,
      "chip": "ym2612"
    },
    {
      "channel": 2,
      "note": 41,
      "start": 25.0753,
      "duration": 0.2741,
      "velocity": 127,
      "chip": "ym2612"
    },
    {
      "channel": 5,
      "note": 69,
      "start": 25.2193,
      "duration": 1.3464,
      "velocity": 127,
      "chip": "ym2612"
    },
    {
      "channel": 1,
      "note": 61,
      "start": 25.5195,
      "duration": 0.4475,
      "velocity": 96,
      "chip": "ym2612"
    },
    {
      "channel": 3,
      "note": 66,
      "start": 25.5203,
      "duration": 0.1483,
      "velocity": 81,
      "chip": "ym2612"
    },
    {
      "channel": 2,
      "note": 41,
      "start": 25.5217,
      "duration": 0.1433,
      "velocity": 127,
      "chip": "ym2612"
    },
    {
      "channel": 3,
      "note": 66,
      "start": 25.6691,
      "duration": 0.1487,
      "velocity": 81,
      "chip": "ym2612"
    },
    {
      "channel": 2,
      "note": 41,
      "start": 25.6706,
      "duration": 0.1437,
      "velocity": 127,
      "chip": "ym2612"
    },
    {
      "channel": 3,
      "note": 66,
      "start": 25.8184,
      "duration": 0.1494,
      "velocity": 81,
      "chip": "ym2612"
    },
    {
      "channel": 2,
      "note": 41,
      "start": 25.82,
      "duration": 0.1438,
      "velocity": 127,
      "chip": "ym2612"
    },
    {
      "channel": 1,
      "note": 66,
      "start": 25.9676,
      "duration": 0.4476,
      "velocity": 96,
      "chip": "ym2612"
    },
    {
      "channel": 3,
      "note": 66,
      "start": 25.9684,
      "duration": 0.1452,
      "velocity": 81,
      "chip": "ym2612"
    },
    {
      "channel": 2,
      "note": 41,
      "start": 25.9699,
      "duration": 0.2758,
      "velocity": 127,
      "chip": "ym2612"
    },
    {
      "channel": 0,
      "note": 68,
      "start": 26.4151,
      "duration": 0.4478,
      "velocity": 127,
      "chip": "ym2612"
    },
    {
      "channel": 1,
      "note": 61,
      "start": 26.4157,
      "duration": 0.4479,
      "velocity": 96,
      "chip": "ym2612"
    },
    {
      "channel": 3,
      "note": 66,
      "start": 26.4165,
      "duration": 0.1481,
      "velocity": 81,
      "chip": "ym2612"
    },
    {
      "channel": 4,
      "note": 68,
      "start": 26.4173,
      "duration": 0.448,
      "velocity": 127,
      "chip": "ym2612"
    },
    {
      "channel": 2,
      "note": 41,
      "start": 26.4184,
      "duration": 0.1423,
      "velocity": 127,
      "chip": "ym2612"
    },
    {
      "channel": 3,
      "note": 66,
      "start": 26.5652,
      "duration": 0.149,
      "velocity": 81,
      "chip": "ym2612"
    },
    {
      "channel": 5,
      "note": 68,
      "start": 26.5663,
      "duration": 0.4438,
      "velocity": 127,
      "chip": "ym2612"
    },
    {
      "channel": 2,
      "note": 41,
      "start": 26.5671,
      "duration": 0.1432,
      "velocity": 127,
      "chip": "ym2612"
    },
    {
      "channel": 3,
      "note": 66,
      "start": 26.7147,
      "duration": 0.1497,
      "velocity": 81,
      "chip": "ym2612"
    },
    {
      "channel": 2,
      "note": 41,
      "start": 26.7163,
      "duration": 0.1431,
      "velocity": 127,
      "chip": "ym2612"
    },
    {
      "channel": 0,
      "note": 66,
      "start": 26.8634,
      "duration": 1.7902,
      "velocity": 127,
      "chip": "ym2612"
    },
    {
      "channel": 1,
      "note": 66,
      "start": 26.8643,
      "duration": 0.4462,
      "velocity": 96,
      "chip": "ym2612"
    },
    {
      "channel": 3,
      "note": 66,
      "start": 26.8651,
      "duration": 0.1442,
      "velocity": 81,
      "chip": "ym2612"
    },
    {
      "channel": 4,
      "note": 66,
      "start": 26.8659,
      "duration": 1.7907,
      "velocity": 127,
      "chip": "ym2612"
    },
    {
      "channel": 2,
      "note": 41,
      "start": 26.867,
      "duration": 0.2737,
      "velocity": 127,
      "chip": "ym2612"
    },
    {
      "channel": 5,
      "note": 66,
      "start": 27.0112,
      "duration": 1.7901,
      "velocity": 127,
      "chip": "ym2612"
    },
    {
      "channel": 1,
      "note": 61,
      "start": 27.3115,
      "duration": 0.4467,
      "velocity": 96,
      "chip": "ym2612"
    },
    {
      "channel": 3,
      "note": 66,
      "start": 27.3122,
      "duration": 0.1476,
      "velocity": 81,
      "chip": "ym2612"
    },
    {
      "channel": 2,
      "note": 41,
      "start": 27.3137,
      "duration": 0.1425,
      "velocity": 127,
      "chip": "ym2612"
    },
    {
      "channel": 3,
      "note": 66,
      "start": 27.4606,
      "duration": 0.1485,
      "velocity": 81,
      "chip": "ym2612"
    },
    {
      "channel": 2,
      "note": 41,
      "start": 27.4625,
      "duration": 0.1431,
      "velocity": 127,
      "chip": "ym2612"
    },
    {
      "channel": 3,
      "note": 66,
      "start": 27.6097,
      "duration": 0.1492,
      "velocity": 81,
      "chip": "ym2612"
    },
    {
      "channel": 2,
      "note": 41,
      "start": 27.6119,
      "duration": 0.1431,
      "velocity": 127,
      "chip": "ym2612"
    },
    {
      "channel": 1,
      "note": 66,
      "start": 27.7588,
      "duration": 0.4473,
      "velocity": 96,
      "chip": "ym2612"
    },
    {
      "channel": 3,
      "note": 66,
      "start": 27.7595,
      "duration": 0.2228,
      "velocity": 81,
      "chip": "ym2612"
    },
    {
      "channel": 2,
      "note": 41,
      "start": 27.7617,
      "duration": 0.2171,
      "velocity": 127,
      "chip": "ym2612"
    },
    {
      "channel": 3,
      "note": 66,
      "start": 27.9829,
      "duration": 0.224,
      "velocity": 81,
      "chip": "ym2612"
    },
    {
      "channel": 2,
      "note": 41,
      "start": 27.9844,
      "duration": 0.2186,
      "velocity": 127,
      "chip": "ym2612"
    },
    {
      "channel": 1,
      "note": 61,
      "start": 28.2068,
      "duration": 0.4478,
      "velocity": 96,
      "chip": "ym2612"
    },
    {
      "channel": 3,
      "note": 66,
      "start": 28.2075,
      "duration": 0.2233,
      "velocity": 81,
      "chip": "ym2612"
    },
    {
      "channel": 2,
      "note": 41,
      "start": 28.209,
      "duration": 0.2179,
      "velocity": 127,
      "chip": "ym2612"
    },
    {
      "channel": 3,
      "note": 66,
      "start": 28.4313,
      "duration": 0.2244,
      "velocity": 81,
      "chip": "ym2612"
    },
    {
      "channel": 2,
      "note": 41,
      "start": 28.4329,
      "duration": 0.2179,
      "velocity": 127,
      "chip": "ym2612"
    },
    {
      "channel": 0,
      "note": 73,
      "start": 28.6542,
      "duration": 1.3429,
      "velocity": 127,
      "chip": "ym2612"
    },
    {
      "channel": 1,
      "note": 69,
      "start": 28.6552,
      "duration": 0.4463,
      "velocity": 96,
      "chip": "ym2612"
    },
    {
      "channel": 3,
      "note": 69,
      "start": 28.6563,
      "duration": 0.1442,
      "velocity": 81,
      "chip": "ym2612"
    },
    {
      "channel": 4,
      "note": 73,
      "start": 28.6572,
      "duration": 1.3422,
      "velocity": 127,
      "chip": "ym2612"
    },
    {
      "channel": 2,
      "note": 41,
      "start": 28.6583,
      "duration": 0.2739,
      "velocity": 127,
      "chip": "ym2612"
    },
    {
      "channel": 5,
      "note": 73,
      "start": 28.8019,
      "duration": 1.3468,
      "velocity": 127,
      "chip": "ym2612"
    },
    {
      "channel": 1,
      "note": 64,
      "start": 29.1021,
      "duration": 0.4475,
      "velocity": 96,
      "chip": "ym2612"
    },
    {
      "channel": 3,
      "note": 69,
      "start": 29.1028,
      "duration": 0.1482,
      "velocity": 81,
      "chip": "ym2612"
    },
    {
      "channel": 2,
      "note": 41,
      "start": 29.1043,
      "duration": 0.1433,
      "velocity": 127,
      "chip": "ym2612"
    },
    {
      "channel": 3,
      "note": 69,
      "start": 29.2517,
      "duration": 0.1487,
      "velocity": 81,
      "chip": "ym2612"
    },
    {
      "channel": 2,
      "note": 41,
      "start": 29.2532,
      "duration": 0.1437,
      "velocity": 127,
      "chip": "ym2612"
    },
    {
      "channel": 3,
      "note": 69,
      "start": 29.4009,
      "duration": 0.1495,
      "velocity": 81,
      "chip": "ym2612"
    },
    {
      "channel": 2,
      "note": 41,
      "start": 29.4024,
      "duration": 0.1438,
      "velocity": 127,
      "chip": "ym2612"
    },
    {
      "channel": 1,
      "note": 69,
      "start": 29.5502,
      "duration": 0.4477,
      "velocity": 96,
      "chip": "ym2612"
    },
    {
      "channel": 3,
      "note": 69,
      "start": 29.551,
      "duration": 0.1451,
      "velocity": 81,
      "chip": "ym2612"
    },
    {
      "channel": 2,
      "note": 41,
      "start": 29.5525,
      "duration": 0.2757,
      "velocity": 127,
      "chip": "ym2612"
    },
    {
      "channel": 0,
      "note": 71,
      "start": 29.9977,
      "duration": 0.4477,
      "velocity": 127,
      "chip": "ym2612"
    },
    {
      "channel": 1,
      "note": 64,
      "start": 29.9985,
      "duration": 0.4478,
      "velocity": 96,
      "chip": "ym2612"
    },
    {
      "channel": 3,
      "note": 69,
      "start": 29.9993,
      "duration": 0.1483,
      "velocity": 81,
      "chip": "ym2612"
    },
    {
      "channel": 4,
      "note": 71,
      "start": 30.0,
      "duration": 0.4479,
      "velocity": 127,
      "chip": "ym2612"
    },
    {
      "channel": 2,
      "note": 41,
      "start": 30.0012,
      "duration": 0.1426,
      "velocity": 127,
      "chip": "ym2612"
    },
    {
      "channel": 3,
      "note": 69,
      "start": 30.1482,
      "duration": 0.1485,
      "velocity": 81,
      "chip": "ym2612"
    },
    {
      "channel": 5,
      "note": 71,
      "start": 30.1493,
      "duration": 0.4431,
      "velocity": 127,
      "chip": "ym2612"
    },
    {
      "channel": 2,
      "note": 41,
      "start": 30.1501,
      "duration": 0.1425,
      "velocity": 127,
      "chip": "ym2612"
    },
    {
      "channel": 3,
      "note": 69,
      "start": 30.2973,
      "duration": 0.1499,
      "velocity": 81,
      "chip": "ym2612"
    },
    {
      "channel": 2,
      "note": 41,
      "start": 30.2988,
      "duration": 0.1432,
      "velocity": 127,
      "chip": "ym2612"
    },
    {
      "channel": 0,
      "note": 69,
      "start": 30.4461,
      "duration": 1.1183,
      "velocity": 127,
      "chip": "ym2612"
    },
    {
      "channel": 1,
      "note": 69,
      "start": 30.4469,
      "duration": 0.4459,
      "velocity": 96,
      "chip": "ym2612"
    },
    {
      "channel": 3,
      "note": 69,
      "start": 30.4477,
      "duration": 0.1441,
      "velocity": 81,
      "chip": "ym2612"
    },
    {
      "channel": 4,
      "note": 69,
      "start": 30.4485,
      "duration": 1.1177,
      "velocity": 127,
      "chip": "ym2612"
    },
    {
      "channel": 2,
      "note": 41,
      "start": 30.4497,
      "duration": 0.2736,
      "velocity": 127,
      "chip": "ym2612"
    },
    {
      "channel": 5,
      "note": 69,
      "start": 30.5931,
      "duration": 1.1193,
      "velocity": 127,
      "chip": "ym2612"
    },
    {
      "channel": 1,
      "note": 64,
      "start": 30.8936,
      "duration": 0.4471,
      "velocity": 96,
      "chip": "ym2612"
    },
    {
      "channel": 3,
      "note": 69,
      "start": 30.8948,
      "duration": 0.1476,
      "velocity": 81,
      "chip": "ym2612"
    },
    {
      "channel": 2,
      "note": 41,
      "start": 30.8962,
      "duration": 0.1427,
      "velocity": 127,
      "chip": "ym2612"
    },
    {
      "channel": 3,
      "note": 69,
      "start": 31.043,
      "duration": 0.1487,
      "velocity": 81,
      "chip": "ym2612"
    },
    {
      "channel": 2,
      "note": 41,
      "start": 31.0451,
      "duration": 0.1431,
      "velocity": 127,
      "chip": "ym2612"
    },
    {
      "channel": 3,
      "note": 69,
      "start": 31.1923,
      "duration": 0.1491,
      "velocity": 81,
      "chip": "ym2612"
    },
    {
      "channel": 2,
      "note": 41,
      "start": 31.194,
      "duration": 0.1434,
      "velocity": 127,
      "chip": "ym2612"
    },
    {
      "channel": 1,
      "note": 69,
      "start": 31.3412,
      "duration": 0.4475,
      "velocity": 96,
      "chip": "ym2612"
    },
    {
      "channel": 3,
      "note": 69,
      "start": 31.342,
      "duration": 0.2234,
      "velocity": 81,
      "chip": "ym2612"
    },
    {
      "channel": 2,
      "note": 41,
      "start": 31.3437,
      "duration": 0.2178,
      "velocity": 127,
      "chip": "ym2612"
    },
    {
      "channel": 0,
      "note": 68,
      "start": 31.565,
      "duration": 0.223,
      "velocity": 127,
      "chip": "ym2612"
    },
    {
      "channel": 3,
      "note": 69,
      "start": 31.5661,
      "duration": 0.2235,
      "velocity": 81,
      "chip": "ym2612"
    },
    {
      "channel": 4,
      "note": 68,
      "start": 31.5668,
      "duration": 0.2235,
      "velocity": 127,
      "chip": "ym2612"
    },
    {
      "channel": 2,
      "note": 41,
      "start": 31.5679,
      "duration": 0.2173,
      "velocity": 127,
      "chip": "ym2612"
    },
    {
      "channel": 5,
      "note": 68,
      "start": 31.713,
      "duration": 0.2229,
      "velocity": 127,
      "chip": "ym2612"
    },
    {
      "channel": 0,
      "note": 69,
      "start": 31.7886,
      "duration": 0.224,
      "velocity": 127,
      "chip": "ym2612"
    },
    {
      "channel": 1,
      "note": 64,
      "start": 31.7893,
      "duration": 0.4476,
      "velocity": 96,
      "chip": "ym2612"
    },
    {
      "channel": 3,
      "note": 69,
      "start": 31.7901,
      "duration": 0.2236,
      "velocity": 81,
      "chip": "ym2612"
    },
    {
      "channel": 4,
      "note": 69,
      "start": 31.7909,
      "duration": 0.2236,
      "velocity": 127,
      "chip": "ym2612"
    },
    {
      "channel": 2,
      "note": 41,
      "start": 31.792,
      "duration": 0.2172,
      "velocity": 127,
      "chip": "ym2612"
    },
    {
      "channel": 5,
      "note": 69,
      "start": 31.9366,
      "duration": 0.2236,
      "velocity": 127,
      "chip": "ym2612"
    },
    {
      "channel": 0,
      "note": 71,
      "start": 32.0133,
      "duration": 0.2229,
      "velocity": 127,
      "chip": "ym2612"
    },
    {
      "channel": 3,
      "note": 69,
      "start": 32.0144,
      "duration": 0.2236,
      "velocity": 81,
      "chip": "ym2612"
    },
    {
      "channel": 4,
      "note": 71,
      "start": 32.0151,
      "duration": 0.2237,
      "velocity": 127,
      "chip": "ym2612"
    },
    {
      "channel": 2,
      "note": 41,
      "start": 32.0162,
      "duration": 0.2172,
      "velocity": 127,
      "chip": "ym2612"
    },
    {
      "channel": 5,
      "note": 71,
      "start": 32.1612,
      "duration": 0.2226,
      "velocity": 127,
      "chip": "ym2612"
    },
    {
      "channel": 0,
      "note": 64,
      "start": 32.2367,
      "duration": 1.5638,
      "velocity": 127,
      "chip": "ym2612"
    },
    {
      "channel": 1,
      "note": 64,
      "start": 32.2376,
      "duration": 0.4465,
      "velocity": 96,
      "chip": "ym2612"
    },
    {
      "channel": 3,
      "note": 64,
      "start": 32.2386,
      "duration": 0.1445,
      "velocity": 81,
      "chip": "ym2612"
    },
    {
      "channel": 4,
      "note": 64,
      "start": 32.2393,
      "duration": 1.5627,
      "velocity": 127,
      "chip": "ym2612"
    },
    {
      "channel": 2,
      "note": 41,
      "start": 32.2404,
      "duration": 0.274,
      "velocity": 127,
      "chip": "ym2612"
    },
    {
      "channel": 5,
      "note": 64,
      "start": 32.3844,
      "duration": 1.5667,
      "velocity": 127,
      "chip": "ym2612"
    },
    {
      "channel": 1,
      "note": 59,
      "start": 32.6846,
      "duration": 0.4474,
      "velocity": 96,
      "chip": "ym2612"
    },
    {
      "channel": 3,
      "note": 64,
      "start": 32.6854,
      "duration": 0.1482,
      "velocity": 81,
      "chip": "ym2612"
    },
    {
      "channel": 2,
      "note": 41,
      "start": 32.6869,
      "duration": 0.1432,
      "velocity": 127,
      "chip": "ym2612"
    },
    {
      "channel": 3,
      "note": 64,
      "start": 32.8342,
      "duration": 0.1487,
      "velocity": 81,
      "chip": "ym2612"
    },
    {
      "channel": 2,
      "note": 41,
      "start": 32.8357,
      "duration": 0.1437,
      "velocity": 127,
      "chip": "ym2612"
    },
    {
      "channel": 3,
      "note": 64,
      "start": 32.9835,
      "duration": 0.1494,
      "velocity": 81,
      "chip": "ym2612"
    },
    {
      "channel": 2,
      "note": 41,
      "start": 32.985,
      "duration": 0.1438,
      "velocity": 127,
      "chip": "ym2612"
    },
    {
      "channel": 1,
      "note": 64,
      "start": 33.1327,
      "duration": 0.4477,
      "velocity": 96,
      "chip": "ym2612"
    },
    {
      "channel": 3,
      "note": 64,
      "start": 33.1335,
      "duration": 0.1454,
      "velocity": 81,
      "chip": "ym2612"
    },
    {
      "channel": 2,
      "note": 41,
      "start": 33.135,
      "duration": 0.2755,
      "velocity": 127,
      "chip": "ym2612"
    },
    {
      "channel": 1,
      "note": 59,
      "start": 33.581,
      "duration": 0.4482,
      "velocity": 96,
      "chip": "ym2612"
    },
    {
      "channel": 3,
      "note": 64,
      "start": 33.5817,
      "duration": 0.1483,
      "velocity": 81,
      "chip": "ym2612"
    },
    {
      "channel": 2,
      "note": 41,
      "start": 33.5832,
      "duration": 0.1426,
      "velocity": 127,
      "chip": "ym2612"
    },
    {
      "channel": 3,
      "note": 64,
      "start": 33.7305,
      "duration": 0.1487,
      "velocity": 81,
      "chip": "ym2612"
    },
    {
      "channel": 2,
      "note": 41,
      "start": 33.732,
      "duration": 0.1431,
      "velocity": 127,
      "chip": "ym2612"
    },
    {
      "channel": 0,
      "note": 66,
      "start": 33.8011,
      "duration": 0.2272,
      "velocity": 127,
      "chip": "ym2612"
    },
    {
      "channel": 4,
      "note": 66,
      "start": 33.8026,
      "duration": 0.2281,
      "velocity": 127,
      "chip": "ym2612"
    },
    {
      "channel": 3,
      "note": 64,
      "start": 33.8798,
      "duration": 0.1501,
      "velocity": 81,
      "chip": "ym2612"
    },
    {
      "channel": 2,
      "note": 41,
      "start": 33.8813,
      "duration": 0.1435,
      "velocity": 127,
      "chip": "ym2612"
    },
    {
      "channel": 5,
      "note": 66,
      "start": 33.9517,
      "duration": 0.2233,
      "velocity": 127,
      "chip": "ym2612"
    },
    {
      "channel": 0,
      "note": 68,
      "start": 34.0289,
      "duration": 0.8939,
      "velocity": 127,
      "chip": "ym2612"
    },
    {
      "channel": 1,
      "note": 64,
      "start": 34.0298,
      "duration": 0.4456,
      "velocity": 96,
      "chip": "ym2612"
    },
    {
      "channel": 3,
      "note": 64,
      "start": 34.0306,
      "duration": 0.1438,
      "velocity": 81,
      "chip": "ym2612"
    },
    {
      "channel": 4,
      "note": 68,
      "start": 34.0313,
      "duration": 0.8938,
      "velocity": 127,
      "chip": "ym2612"
    },
    {
      "channel": 2,
      "note": 41,
      "start": 34.0325,
      "duration": 0.2734,
      "velocity": 127,
      "chip": "ym2612"
    },
    {
      "channel": 5,
      "note": 68,
      "start": 34.1757,
      "duration": 0.8945,
      "velocity": 127,
      "chip": "ym2612"
    },
    {
      "channel": 1,
      "note": 59,
      "start": 34.4759,
      "duration": 0.4477,
      "velocity": 96,
      "chip": "ym2612"
    },
    {
      "channel": 3,
      "note": 64,
      "start": 34.4769,
      "duration": 0.1481,
      "velocity": 81,
      "chip": "ym2612"
    },
    {
      "channel": 2,
      "note": 41,
      "start": 34.4788,
      "duration": 0.1427,
      "velocity": 127,
      "chip": "ym2612"
    },
    {
      "channel": 3,
      "note": 64,
      "start": 34.6255,
      "duration": 0.1487,
      "velocity": 81,
      "chip": "ym2612"
    },
    {
      "channel": 2,
      "note": 41,
      "start": 34.6273,
      "duration": 0.1435,
      "velocity": 127,
      "chip": "ym2612"
    },
    {
      "channel": 3,
      "note": 64,
      "start": 34.7749,
      "duration": 0.1495,
      "velocity": 81,
      "chip": "ym2612"
    },
    {
      "channel": 2,
      "note": 41,
      "start": 34.7764,
      "duration": 0.1436,
      "velocity": 127,
      "chip": "ym2612"
    },
    {
      "channel": 0,
      "note": 68,
      "start": 34.9234,
      "duration": 0.1087,
      "velocity": 127,
      "chip": "ym2612"
    },
    {
      "channel": 1,
      "note": 64,
      "start": 34.9242,
      "duration": 0.4471,
      "velocity": 96,
      "chip": "ym2612"
    },
    {
      "channel": 3,
      "note": 64,
      "start": 34.925,
      "duration": 0.2233,
      "velocity": 81,
      "chip": "ym2612"
    },
    {
      "channel": 4,
      "note": 68,
      "start": 34.9257,
      "duration": 0.1073,
      "velocity": 127,
      "chip": "ym2612"
    },
    {
      "channel": 2,
      "note": 41,
      "start": 34.9271,
      "duration": 0.2169,
      "velocity": 127,
      "chip": "ym2612"
    },
    {
      "channel": 5,
      "note": 68,
      "start": 35.0708,
      "duration": 0.1119,
      "velocity": 127,
      "chip": "ym2612"
    },
    {
      "channel": 0,
      "note": 68,
      "start": 35.1478,
      "duration": 0.1081,
      "velocity": 127,
      "chip": "ym2612"
    },
    {
      "channel": 3,
      "note": 64,
      "start": 35.1488,
      "duration": 0.2233,
      "velocity": 81,
      "chip": "ym2612"
    },
    {
      "channel": 4,
      "note": 68,
      "start": 35.1496,
      "duration": 0.1074,
      "velocity": 127,
      "chip": "ym2612"
    },
    {
      "channel": 2,
      "note": 41,
      "start": 35.1507,
      "duration": 0.2171,
      "velocity": 127,
      "chip": "ym2612"
    },
    {
      "channel": 5,
      "note": 68,
      "start": 35.2953,
      "duration": 0.1113,
      "velocity": 127,
      "chip": "ym2612"
    },
    {
      "channel": 0,
      "note": 68,
      "start": 35.3712,
      "duration": 0.1088,
      "velocity": 127,
      "chip": "ym2612"
    },
    {
      "channel": 1,
      "note": 59,
      "start": 35.3719,
      "duration": 0.4476,
      "velocity": 96,
      "chip": "ym2612"
    },
    {
      "channel": 3,
      "note": 64,
      "start": 35.3727,
      "duration": 0.2236,
      "velocity": 81,
      "chip": "ym2612"
    },
    {
      "channel": 4,
      "note": 68,
      "start": 35.3734,
      "duration": 0.1077,
      "velocity": 127,
      "chip": "ym2612"
    },
    {
      "channel": 2,
      "note": 41,
      "start": 35.3745,
      "duration": 0.2172,
      "velocity": 127,
      "chip": "ym2612"
    },
    {
      "channel": 5,
      "note": 68,
      "start": 35.5187,
      "duration": 0.1118,
      "velocity": 127,
      "chip": "ym2612"
    },
    {
      "channel": 0,
      "note": 68,
      "start": 35.5958,
      "duration": 0.1079,
      "velocity": 127,
      "chip": "ym2612"
    },
    {
      "channel": 3,
      "note": 64,
      "start": 35.5968,
      "duration": 0.2237,
      "velocity": 81,
      "chip": "ym2612"
    },
    {
      "channel": 4,
      "note": 68,
      "start": 35.5976,
      "duration": 0.1071,
      "velocity": 127,
      "chip": "ym2612"
    },
    {
      "channel": 2,
      "note": 41,
      "start": 35.5988,
      "duration": 0.2171,
      "velocity": 127,
      "chip": "ym2612"
    },
    {
      "channel": 5,
      "note": 68,
      "start": 35.7425,
      "duration": 0.1118,
      "velocity": 127,
      "chip": "ym2612"
    },
    {
      "channel": 0,
      "note": 74,
      "start": 35.8193,
      "duration": 1.5637,
      "velocity": 127,
      "chip": "ym2612"
    },
    {
      "channel": 1,
      "note": 71,
      "start": 35.8201,
      "duration": 0.4466,
      "velocity": 96,
      "chip": "ym2612"
    },
    {
      "channel": 3,
      "note": 71,
      "start": 35.8212,
      "duration": 0.1448,
      "velocity": 81,
      "chip": "ym2612"
    },
    {
      "channel": 4,
      "note": 74,
      "start": 35.8219,
      "duration": 1.5625,
      "velocity": 127,
      "chip": "ym2612"
    },
    {
      "channel": 2,
      "note": 41,
      "start": 35.8231,
      "duration": 0.274,
      "velocity": 127,
      "chip": "ym2612"
    },
    {
      "channel": 5,
      "note": 74,
      "start": 35.9672,
      "duration": 1.5665,
      "velocity": 127,
      "chip": "ym2612"
    },
    {
      "channel": 1,
      "note": 66,
      "start": 36.2673,
      "duration": 0.4476,
      "velocity": 96,
      "chip": "ym2612"
    },
    {
      "channel": 3,
      "note": 71,
      "start": 36.268,
      "duration": 0.1482,
      "velocity": 81,
      "chip": "ym2612"
    },
    {
      "channel": 2,
      "note": 41,
      "start": 36.2695,
      "duration": 0.1433,
      "velocity": 127,
      "chip": "ym2612"
    },
    {
      "channel": 3,
      "note": 71,
      "start": 36.4168,
      "duration": 0.1487,
      "velocity": 81,
      "chip": "ym2612"
    },
    {
      "channel": 2,
      "note": 41,
      "start": 36.4183,
      "duration": 0.1437,
      "velocity": 127,
      "chip": "ym2612"
    },
    {
      "channel": 3,
      "note": 71,
      "start": 36.5661,
      "duration": 0.1497,
      "velocity": 81,
      "chip": "ym2612"
    },
    {
      "channel": 2,
      "note": 41,
      "start": 36.5676,
      "duration": 0.144,
      "velocity": 127,
      "chip": "ym2612"
    },
    {
      "channel": 1,
      "note": 71,
      "start": 36.7155,
      "duration": 0.4474,
      "velocity": 96,
      "chip": "ym2612"
    },
    {
      "channel": 3,
      "note": 71,
      "start": 36.7163,
      "duration": 0.1454,
      "velocity": 81,
      "chip": "ym2612"
    },
    {
      "channel": 2,
      "note": 41,
      "start": 36.7178,
      "duration": 0.2749,
      "velocity": 127,
      "chip": "ym2612"
    },
    {
      "channel": 1,
      "note": 66,
      "start": 37.1634,
      "duration": 0.448,
      "velocity": 96,
      "chip": "ym2612"
    },
    {
      "channel": 3,
      "note": 71,
      "start": 37.1642,
      "duration": 0.1483,
      "velocity": 81,
      "chip": "ym2612"
    },
    {
      "channel": 2,
      "note": 41,
      "start": 37.1657,
      "duration": 0.1426,
      "velocity": 127,
      "chip": "ym2612"
    },
    {
      "channel": 3,
      "note": 71,
      "start": 37.3131,
      "duration": 0.1488,
      "velocity": 81,
      "chip": "ym2612"
    },
    {
      "channel": 2,
      "note": 41,
      "start": 37.3146,
      "duration": 0.1431,
      "velocity": 127,
      "chip": "ym2612"
    },
    {
      "channel": 0,
      "note": 73,
      "start": 37.3836,
      "duration": 0.2265,
      "velocity": 127,
      "chip": "ym2612"
    },
    {
      "channel": 4,
      "note": 73,
      "start": 37.3851,
      "duration": 0.2279,
      "velocity": 127,
      "chip": "ym2612"
    },
    {
      "channel": 3,
      "note": 71,
      "start": 37.4624,
      "duration": 0.1498,
      "velocity": 81,
      "chip": "ym2612"
    },
    {
      "channel": 2,
      "note": 41,
      "start": 37.4639,
      "duration": 0.1433,
      "velocity": 127,
      "chip": "ym2612"
    },
    {
      "channel": 5,
      "note": 73,
      "start": 37.5343,
      "duration": 0.2232,
      "velocity": 127,
      "chip": "ym2612"
    },
    {
      "channel": 0,
      "note": 71,
      "start": 37.6112,
      "duration": 1.1188,
      "velocity": 127,
      "chip": "ym2612"
    },
    {
      "channel": 1,
      "note": 71,
      "start": 37.612,
      "duration": 0.4459,
      "velocity": 96,
      "chip": "ym2612"
    },
    {
      "channel": 3,
      "note": 71,
      "start": 37.6128,
      "duration": 0.1441,
      "velocity": 81,
      "chip": "ym2612"
    },
    {
      "channel": 4,
      "note": 71,
      "start": 37.6136,
      "duration": 1.1182,
      "velocity": 127,
      "chip": "ym2612"
    },
    {
      "channel": 2,
      "note": 41,
      "start": 37.6147,
      "duration": 0.2736,
      "velocity": 127,
      "chip": "ym2612"
    },
    {
      "channel": 5,
      "note": 71,
      "start": 37.7582,
      "duration": 1.1199,
      "velocity": 127,
      "chip": "ym2612"
    },
    {
      "channel": 1,
      "note": 66,
      "start": 38.0585,
      "duration": 0.4473,
      "velocity": 96,
      "chip": "ym2612"
    },
    {
      "channel": 3,
      "note": 71,
      "start": 38.0593,
      "duration": 0.1483,
      "velocity": 81,
      "chip": "ym2612"
    },
    {
      "channel": 2,
      "note": 41,
      "start": 38.0614,
      "duration": 0.1427,
      "velocity": 127,
      "chip": "ym2612"
    },
    {
      "channel": 3,
      "note": 71,
      "start": 38.2081,
      "duration": 0.1487,
      "velocity": 81,
      "chip": "ym2612"
    },
    {
      "channel": 2,
      "note": 41,
      "start": 38.2096,
      "duration": 0.1437,
      "velocity": 127,
      "chip": "ym2612"
    },
    {
      "channel": 3,
      "note": 71,
      "start": 38.3573,
      "duration": 0.1492,
      "velocity": 81,
      "chip": "ym2612"
    },
    {
      "channel": 2,
      "note": 41,
      "start": 38.3589,
      "duration": 0.1437,
      "velocity": 127,
      "chip": "ym2612"
    },
    {
      "channel": 1,
      "note": 71,
      "start": 38.5064,
      "duration": 0.4476,
      "velocity": 96,
      "chip": "ym2612"
    },
    {
      "channel": 3,
      "note": 71,
      "start": 38.5072,
      "duration": 0.2239,
      "velocity": 81,
      "chip": "ym2612"
    },
    {
      "channel": 2,
      "note": 41,
      "start": 38.5086,
      "duration": 0.2179,
      "velocity": 127,
      "chip": "ym2612"
    },
    {
      "channel": 0,
      "note": 70,
      "start": 38.7306,
      "duration": 0.2227,
      "velocity": 127,
      "chip": "ym2612"
    },
    {
      "channel": 3,
      "note": 71,
      "start": 38.7317,
      "duration": 0.2231,
      "velocity": 81,
      "chip": "ym2612"
    },
    {
      "channel": 4,
      "note": 70,
      "start": 38.7324,
      "duration": 0.223,
      "velocity": 127,
      "chip": "ym2612"
    },
    {
      "channel": 2,
      "note": 41,
      "start": 38.7336,
      "duration": 0.2168,
      "velocity": 127,
      "chip": "ym2612"
    },
    {
      "channel": 5,
      "note": 70,
      "start": 38.8787,
      "duration": 0.2224,
      "velocity": 127,
      "chip": "ym2612"
    },
    {
      "channel": 0,
      "note": 71,
      "start": 38.9539,
      "duration": 0.2235,
      "velocity": 127,
      "chip": "ym2612"
    },
    {
      "channel": 1,
      "note": 66,
      "start": 38.9546,
      "duration": 0.4476,
      "velocity": 96,
      "chip": "ym2612"
    },
    {
      "channel": 3,
      "note": 71,
      "start": 38.9553,
      "duration": 0.2235,
      "velocity": 81,
      "chip": "ym2612"
    },
    {
      "channel": 4,
      "note": 71,
      "start": 38.9561,
      "duration": 0.2235,
      "velocity": 127,
      "chip": "ym2612"
    },
    {
      "channel": 2,
      "note": 41,
      "start": 38.9572,
      "duration": 0.2171,
      "velocity": 127,
      "chip": "ym2612"
    },
    {
      "channel": 5,
      "note": 71,
      "start": 39.1017,
      "duration": 0.2232,
      "velocity": 127,
      "chip": "ym2612"
    },
    {
      "channel": 0,
      "note": 73,
      "start": 39.1783,
      "duration": 0.223,
      "velocity": 127,
      "chip": "ym2612"
    },
    {
      "channel": 3,
      "note": 71,
      "start": 39.1794,
      "duration": 0.2237,
      "velocity": 81,
      "chip": "ym2612"
    },
    {
      "channel": 4,
      "note": 73,
      "start": 39.1802,
      "duration": 0.2237,
      "velocity": 127,
      "chip": "ym2612"
    },
    {
      "channel": 2,
      "note": 41,
      "start": 39.1813,
      "duration": 0.2172,
      "velocity": 127,
      "chip": "ym2612"
    },
    {
      "channel": 5,
      "note": 73,
      "start": 39.3256,
      "duration": 0.2232,
      "velocity": 127,
      "chip": "ym2612"
    },
    {
      "channel": 0,
      "note": 69,
      "start": 39.4019,
      "duration": 1.5637,
      "velocity": 127,
      "chip": "ym2612"
    },
    {
      "channel": 1,
      "note": 69,
      "start": 39.4027,
      "duration": 0.4468,
      "velocity": 96,
      "chip": "ym2612"
    },
    {
      "channel": 3,
      "note": 69,
      "start": 39.4037,
      "duration": 0.1445,
      "velocity": 81,
      "chip": "ym2612"
    },
    {
      "channel": 4,
      "note": 69,
      "start": 39.4045,
      "duration": 1.5626,
      "velocity": 127,
      "chip": "ym2612"
    },
    {
      "channel": 2,
      "note": 41,
      "start": 39.4056,
      "duration": 0.2742,
      "velocity": 127,
      "chip": "ym2612"
    },
    {
      "channel": 5,
      "note": 69,
      "start": 39.5495,
      "duration": 1.5669,
      "velocity": 127,
      "chip": "ym2612"
    },
    {
      "channel": 1,
      "note": 64,
      "start": 39.85,
      "duration": 0.4477,
      "velocity": 96,
      "chip": "ym2612"
    },
    {
      "channel": 3,
      "note": 69,
      "start": 39.8508,
      "duration": 0.148,
      "velocity": 81,
      "chip": "ym2612"
    },
    {
      "channel": 2,
      "note": 41,
      "start": 39.8523,
      "duration": 0.1431,
      "velocity": 127,
      "chip": "ym2612"
    },
    {
      "channel": 3,
      "note": 69,
      "start": 39.9994,
      "duration": 0.1489,
      "velocity": 81,
      "chip": "ym2612"
    },
    {
      "channel": 2,
      "note": 41,
      "start": 40.0009,
      "duration": 0.1439,
      "velocity": 127,
      "chip": "ym2612"
    },
    {
      "channel": 3,
      "note": 69,
      "start": 40.149,
      "duration": 0.1495,
      "velocity": 81,
      "chip": "ym2612"
    },
    {
      "channel": 2,
      "note": 41,
      "start": 40.1504,
      "duration": 0.1436,
      "velocity": 127,
      "chip": "ym2612"
    },
    {
      "channel": 1,
      "note": 69,
      "start": 40.2983,
      "duration": 0.4472,
      "velocity": 96,
      "chip": "ym2612"
    },
    {
      "channel": 3,
      "note": 69,
      "start": 40.2991,
      "duration": 0.1454,
      "velocity": 81,
      "chip": "ym2612"
    },
    {
      "channel": 2,
      "note": 41,
      "start": 40.3006,
      "duration": 0.275,
      "velocity": 127,
      "chip": "ym2612"
    },
    {
      "channel": 1,
      "note": 64,
      "start": 40.746,
      "duration": 0.4476,
      "velocity": 96,
      "chip": "ym2612"
    },
    {
      "channel": 3,
      "note": 69,
      "start": 40.7468,
      "duration": 0.1483,
      "velocity": 81,
      "chip": "ym2612"
    },
    {
      "channel": 2,
      "note": 41,
      "start": 40.7483,
      "duration": 0.1427,
      "velocity": 127,
      "chip": "ym2612"
    },
    {
      "channel": 3,
      "note": 69,
      "start": 40.8957,
      "duration": 0.1482,
      "velocity": 81,
      "chip": "ym2612"
    },
    {
      "channel": 2,
      "note": 41,
      "start": 40.8972,
      "duration": 0.1431,
      "velocity": 127,
      "chip": "ym2612"
    },
    {
      "channel": 0,
      "note": 71,
      "start": 40.9663,
      "duration": 0.2263,
      "velocity": 127,
      "chip": "ym2612"
    },
    {
      "channel": 4,
      "note": 71,
      "start": 40.9677,
      "duration": 0.228,
      "velocity": 127,
      "chip": "ym2612"
    },
    {
      "channel": 3,
      "note": 69,
      "start": 41.0449,
      "duration": 0.1499,
      "velocity": 81,
      "chip": "ym2612"
    },
    {
      "channel": 2,
      "note": 41,
      "start": 41.0464,
      "duration": 0.1433,
      "velocity": 127,
      "chip": "ym2612"
    },
    {
      "channel": 5,
      "note": 71,
      "start": 41.1169,
      "duration": 0.2233,
      "velocity": 127,
      "chip": "ym2612"
    },
    {
      "channel": 0,
      "note": 73,
      "start": 41.1932,
      "duration": 0.8948,
      "velocity": 127,
      "chip": "ym2612"
    },
    {
      "channel": 1,
      "note": 69,
      "start": 41.1946,
      "duration": 0.4459,
      "velocity": 96,
      "chip": "ym2612"
    },
    {
      "channel": 3,
      "note": 69,
      "start": 41.1954,
      "duration": 0.1441,
      "velocity": 81,
      "chip": "ym2612"
    },
    {
      "channel": 4,
      "note": 73,
      "start": 41.1962,
      "duration": 0.8941,
      "velocity": 127,
      "chip": "ym2612"
    },
    {
      "channel": 2,
      "note": 41,
      "start": 41.1974,
      "duration": 0.2736,
      "velocity": 127,
      "chip": "ym2612"
    },
    {
      "channel": 5,
      "note": 73,
      "start": 41.3408,
      "duration": 0.8945,
      "velocity": 127,
      "chip": "ym2612"
    },
    {
      "channel": 1,
      "note": 64,
      "start": 41.6411,
      "duration": 0.4477,
      "velocity": 96,
      "chip": "ym2612"
    },
    {
      "channel": 3,
      "note": 69,
      "start": 41.6418,
      "duration": 0.1485,
      "velocity": 81,
      "chip": "ym2612"
    },
    {
      "channel": 2,
      "note": 41,
      "start": 41.6435,
      "duration": 0.1433,
      "velocity": 127,
      "chip": "ym2612"
    },
    {
      "channel": 3,
      "note": 69,
      "start": 41.7909,
      "duration": 0.1484,
      "velocity": 81,
      "chip": "ym2612"
    },
    {
      "channel": 2,
      "note": 41,
      "start": 41.7925,
      "duration": 0.1434,
      "velocity": 127,
      "chip": "ym2612"
    },
    {
      "channel": 3,
      "note": 69,
      "start": 41.9399,
      "duration": 0.1496,
      "velocity": 81,
      "chip": "ym2612"
    },
    {
      "channel": 2,
      "note": 41,
      "start": 41.9415,
      "duration": 0.1436,
      "velocity": 127,
      "chip": "ym2612"
    },
    {
      "channel": 0,
      "note": 73,
      "start": 42.0885,
      "duration": 0.1086,
      "velocity": 127,
      "chip": "ym2612"
    },
    {
      "channel": 1,
      "note": 69,
      "start": 42.0893,
      "duration": 0.4472,
      "velocity": 96,
      "chip": "ym2612"
    },
    {
      "channel": 3,
      "note": 69,
      "start": 42.0901,
      "duration": 0.2235,
      "velocity": 81,
      "chip": "ym2612"
    },
    {
      "channel": 4,
      "note": 73,
      "start": 42.0909,
      "duration": 0.1073,
      "velocity": 127,
      "chip": "ym2612"
    },
    {
      "channel": 2,
      "note": 41,
      "start": 42.092,
      "duration": 0.2171,
      "velocity": 127,
      "chip": "ym2612"
    },
    {
      "channel": 5,
      "note": 73,
      "start": 42.236,
      "duration": 0.1118,
      "velocity": 127,
      "chip": "ym2612"
    },
    {
      "channel": 0,
      "note": 73,
      "start": 42.3131,
      "duration": 0.108,
      "velocity": 127,
      "chip": "ym2612"
    },
    {
      "channel": 3,
      "note": 69,
      "start": 42.3142,
      "duration": 0.223,
      "velocity": 81,
      "chip": "ym2612"
    },
    {
      "channel": 4,
      "note": 73,
      "start": 42.3149,
      "duration": 0.1071,
      "velocity": 127,
      "chip": "ym2612"
    },
    {
      "channel": 2,
      "note": 41,
      "start": 42.3161,
      "duration": 0.2169,
      "velocity": 127,
      "chip": "ym2612"
    },
    {
      "channel": 5,
      "note": 73,
      "start": 42.4601,
      "duration": 0.1116,
      "velocity": 127,
      "chip": "ym2612"
    },
    {
      "channel": 0,
      "note": 73,
      "start": 42.5363,
      "duration": 0.1086,
      "velocity": 127,
      "chip": "ym2612"
    },
    {
      "channel": 1,
      "note": 64,
      "start": 42.5371,
      "duration": 0.4475,
      "velocity": 96,
      "chip": "ym2612"
    },
    {
      "channel": 3,
      "note": 69,
      "start": 42.5379,
      "duration": 0.2237,
      "velocity": 81,
      "chip": "ym2612"
    },
    {
      "channel": 4,
      "note": 73,
      "start": 42.5386,
      "duration": 0.1074,
      "velocity": 127,
      "chip": "ym2612"
    },
    {
      "channel": 2,
      "note": 41,
      "start": 42.5397,
      "duration": 0.2174,
      "velocity": 127,
      "chip": "ym2612"
    },
    {
      "channel": 5,
      "note": 73,
      "start": 42.6837,
      "duration": 0.1123,
      "velocity": 127,
      "chip": "ym2612"
    },
    {
      "channel": 0,
      "note": 73,
      "start": 42.7611,
      "duration": 0.1078,
      "velocity": 127,
      "chip": "ym2612"
    },
    {
      "channel": 3,
      "note": 69,
      "start": 42.7622,
      "duration": 0.2234,
      "velocity": 81,
      "chip": "ym2612"
    },
    {
      "channel": 4,
      "note": 73,
      "start": 42.763,
      "duration": 0.1069,
      "velocity": 127,
      "chip": "ym2612"
    },
    {
      "channel": 2,
      "note": 41,
      "start": 42.7641,
      "duration": 0.2169,
      "velocity": 127,
      "chip": "ym2612"
    },
    {
      "channel": 5,
      "note": 73,
      "start": 42.9077,
      "duration": 0.1118,
      "velocity": 127,
      "chip": "ym2612"
    },
    {
      "channel": 0,
      "note": 76,
      "start": 42.9844,
      "duration": 0.8955,
      "velocity": 127,
      "chip": "ym2612"
    },
    {
      "channel": 1,
      "note": 61,
      "start": 42.9853,
      "duration": 0.4466,
      "velocity": 96,
      "chip": "ym2612"
    },
    {
      "channel": 3,
      "note": 61,
      "start": 42.9863,
      "duration": 0.1445,
      "velocity": 81,
      "chip": "ym2612"
    },
    {
      "channel": 4,
      "note": 76,
      "start": 42.9871,
      "duration": 0.8952,
      "velocity": 127,
      "chip": "ym2612"
    },
    {
      "channel": 2,
      "note": 41,
      "start": 42.9882,
      "duration": 0.2744,
      "velocity": 127,
      "chip": "ym2612"
    },
    {
      "channel": 5,
      "note": 76,
      "start": 43.1321,
      "duration": 0.8952,
      "velocity": 127,
      "chip": "ym2612"
    },
    {
      "channel": 1,
      "note": 61,
      "start": 43.4324,
      "duration": 0.4483,
      "velocity": 96,
      "chip": "ym2612"
    },
    {
      "channel": 3,
      "note": 61,
      "start": 43.4331,
      "duration": 0.1486,
      "velocity": 81,
      "chip": "ym2612"
    },
    {
      "channel": 2,
      "note": 41,
      "start": 43.4346,
      "duration": 0.1436,
      "velocity": 127,
      "chip": "ym2612"
    },
    {
      "channel": 3,
      "note": 61,
      "start": 43.5823,
      "duration": 0.1492,
      "velocity": 81,
      "chip": "ym2612"
    },
    {
      "channel": 2,
      "note": 41,
      "start": 43.5838,
      "duration": 0.1442,
      "velocity": 127,
      "chip": "ym2612"
    },
    {
      "channel": 3,
      "note": 61,
      "start": 43.7321,
      "duration": 0.1494,
      "velocity": 81,
      "chip": "ym2612"
    },
    {
      "channel": 2,
      "note": 41,
      "start": 43.7336,
      "duration": 0.1429,
      "velocity": 127,
      "chip": "ym2612"
    },
    {
      "channel": 0,
      "note": 78,
      "start": 43.8805,
      "duration": 0.8945,
      "velocity": 127,
      "chip": "ym2612"
    },
    {
      "channel": 1,
      "note": 61,
      "start": 43.8813,
      "duration": 0.4468,
      "velocity": 96,
      "chip": "ym2612"
    },
    {
      "channel": 3,
      "note": 61,
      "start": 43.8821,
      "duration": 0.1444,
      "velocity": 81,
      "chip": "ym2612"
    },
    {
      "channel": 4,
      "note": 78,
      "start": 43.8829,
      "duration": 0.8951,
      "velocity": 127,
      "chip": "ym2612"
    },
    {
      "channel": 2,
      "note": 41,
      "start": 43.884,
      "duration": 0.2739,
      "velocity": 127,
      "chip": "ym2612"
    },
    {
      "channel": 5,
      "note": 78,
      "start": 44.0283,
      "duration": 0.8943,
      "velocity": 127,
      "chip": "ym2612"
    },
    {
      "channel": 1,
      "note": 61,
      "start": 44.3286,
      "duration": 0.4471,
      "velocity": 96,
      "chip": "ym2612"
    },
    {
      "channel": 3,
      "note": 61,
      "start": 44.3294,
      "duration": 0.1479,
      "velocity": 81,
      "chip": "ym2612"
    },
    {
      "channel": 2,
      "note": 41,
      "start": 44.3308,
      "duration": 0.1427,
      "velocity": 127,
      "chip": "ym2612"
    },
    {
      "channel": 3,
      "note": 61,
      "start": 44.4783,
      "duration": 0.148,
      "velocity": 81,
      "chip": "ym2612"
    },
    {
      "channel": 2,
      "note": 41,
      "start": 44.4798,
      "duration": 0.1431,
      "velocity": 127,
      "chip": "ym2612"
    },
    {
      "channel": 3,
      "note": 61,
      "start": 44.6271,
      "duration": 0.1497,
      "velocity": 81,
      "chip": "ym2612"
    },
    {
      "channel": 2,
      "note": 41,
      "start": 44.629,
      "duration": 0.1432,
      "velocity": 127,
      "chip": "ym2612"
    },
    {
      "channel": 0,
      "note": 80,
      "start": 44.7756,
      "duration": 0.8952,
      "velocity": 127,
      "chip": "ym2612"
    },
    {
      "channel": 1,
      "note": 61,
      "start": 44.7763,
      "duration": 0.4468,
      "velocity": 96,
      "chip": "ym2612"
    },
    {
      "channel": 3,
      "note": 61,
      "start": 44.7774,
      "duration": 0.1446,
      "velocity": 81,
      "chip": "ym2612"
    },
    {
      "channel": 4,
      "note": 80,
      "start": 44.7785,
      "duration": 0.8945,
      "velocity": 127,
      "chip": "ym2612"
    },
    {
      "channel": 2,
      "note": 41,
      "start": 44.7797,
      "duration": 0.2738,
      "velocity": 127,
      "chip": "ym2612"
    },
    {
      "channel": 5,
      "note": 80,
      "start": 44.9233,
      "duration": 0.895,
      "velocity": 127,
      "chip": "ym2612"
    },
    {
      "channel": 1,
      "note": 61,
      "start": 45.2236,
      "duration": 0.448,
      "velocity": 96,
      "chip": "ym2612"
    },
    {
      "channel": 3,
      "note": 61,
      "start": 45.2243,
      "duration": 0.1483,
      "velocity": 81,
      "chip": "ym2612"
    },
    {
      "channel": 2,
      "note": 41,
      "start": 45.2259,
      "duration": 0.1433,
      "velocity": 127,
      "chip": "ym2612"
    },
    {
      "channel": 3,
      "note": 61,
      "start": 45.3732,
      "duration": 0.1488,
      "velocity": 81,
      "chip": "ym2612"
    },
    {
      "channel": 2,
      "note": 41,
      "start": 45.3747,
      "duration": 0.1438,
      "velocity": 127,
      "chip": "ym2612"
    },
    {
      "channel": 3,
      "note": 61,
      "start": 45.5226,
      "duration": 0.1498,
      "velocity": 81,
      "chip": "ym2612"
    },
    {
      "channel": 2,
      "note": 41,
      "start": 45.5241,
      "duration": 0.1439,
      "velocity": 127,
      "chip": "ym2612"
    },
    {
      "channel": 0,
      "note": 81,
      "start": 45.6715,
      "duration": 0.8949,
      "velocity": 127,
      "chip": "ym2612"
    },
    {
      "channel": 1,
      "note": 61,
      "start": 45.6722,
      "duration": 0.4466,
      "velocity": 96,
      "chip": "ym2612"
    },
    {
      "channel": 3,
      "note": 61,
      "start": 45.6729,
      "duration": 0.2229,
      "velocity": 81,
      "chip": "ym2612"
    },
    {
      "channel": 4,
      "note": 81,
      "start": 45.6737,
      "duration": 0.8952,
      "velocity": 127,
      "chip": "ym2612"
    },
    {
      "channel": 2,
      "note": 41,
      "start": 45.6749,
      "duration": 0.2168,
      "velocity": 127,
      "chip": "ym2612"
    },
    {
      "channel": 5,
      "note": 81,
      "start": 45.819,
      "duration": 0.8951,
      "velocity": 127,
      "chip": "ym2612"
    },
    {
      "channel": 3,
      "note": 61,
      "start": 45.8963,
      "duration": 0.2231,
      "velocity": 81,
      "chip": "ym2612"
    },
    {
      "channel": 2,
      "note": 41,
      "start": 45.8979,
      "duration": 0.2177,
      "velocity": 127,
      "chip": "ym2612"
    },
    {
      "channel": 1,
      "note": 61,
      "start": 46.1193,
      "duration": 0.4478,
      "velocity": 96,
      "chip": "ym2612"
    },
    {
      "channel": 3,
      "note": 61,
      "start": 46.12,
      "duration": 0.2228,
      "velocity": 81,
      "chip": "ym2612"
    },
    {
      "channel": 2,
      "note": 41,
      "start": 46.1215,
      "duration": 0.2179,
      "velocity": 127,
      "chip": "ym2612"
    },
    {
      "channel": 3,
      "note": 61,
      "start": 46.3437,
      "duration": 0.2244,
      "velocity": 81,
      "chip": "ym2612"
    },
    {
      "channel": 2,
      "note": 41,
      "start": 46.3456,
      "duration": 0.218,
      "velocity": 127,
      "chip": "ym2612"
    },
    {
      "channel": 0,
      "note": 78,
      "start": 46.567,
      "duration": 0.8956,
      "velocity": 127,
      "chip": "ym2612"
    },
    {
      "channel": 1,
      "note": 62,
      "start": 46.5677,
      "duration": 0.4471,
      "velocity": 96,
      "chip": "ym2612"
    },
    {
      "channel": 3,
      "note": 62,
      "start": 46.5687,
      "duration": 0.1447,
      "velocity": 81,
      "chip": "ym2612"
    },
    {
      "channel": 4,
      "note": 78,
      "start": 46.5694,
      "duration": 0.8955,
      "velocity": 127,
      "chip": "ym2612"
    },
    {
      "channel": 2,
      "note": 41,
      "start": 46.5706,
      "duration": 0.2749,
      "velocity": 127,
      "chip": "ym2612"
    },
    {
      "channel": 5,
      "note": 78,
      "start": 46.7147,
      "duration": 0.8955,
      "velocity": 127,
      "chip": "ym2612"
    },
    {
      "channel": 1,
      "note": 62,
      "start": 47.0154,
      "duration": 0.448,
      "velocity": 96,
      "chip": "ym2612"
    },
    {
      "channel": 3,
      "note": 62,
      "start": 47.0161,
      "duration": 0.1483,
      "velocity": 81,
      "chip": "ym2612"
    },
    {
      "channel": 2,
      "note": 41,
      "start": 47.0176,
      "duration": 0.1429,
      "velocity": 127,
      "chip": "ym2612"
    },
    {
      "channel": 3,
      "note": 62,
      "start": 47.1651,
      "duration": 0.1488,
      "velocity": 81,
      "chip": "ym2612"
    },
    {
      "channel": 2,
      "note": 41,
      "start": 47.1665,
      "duration": 0.1432,
      "velocity": 127,
      "chip": "ym2612"
    },
    {
      "channel": 3,
      "note": 62,
      "start": 47.3144,
      "duration": 0.1498,
      "velocity": 81,
      "chip": "ym2612"
    },
    {
      "channel": 2,
      "note": 41,
      "start": 47.3159,
      "duration": 0.1432,
      "velocity": 127,
      "chip": "ym2612"
    },
    {
      "channel": 0,
      "note": 80,
      "start": 47.4632,
      "duration": 0.8944,
      "velocity": 127,
      "chip": "ym2612"
    },
    {
      "channel": 1,
      "note": 62,
      "start": 47.4639,
      "duration": 0.4463,
      "velocity": 96,
      "chip": "ym2612"
    },
    {
      "channel": 3,
      "note": 62,
      "start": 47.4647,
      "duration": 0.1445,
      "velocity": 81,
      "chip": "ym2612"
    },
    {
      "channel": 4,
      "note": 80,
      "start": 47.4655,
      "duration": 0.8947,
      "velocity": 127,
      "chip": "ym2612"
    },
    {
      "channel": 2,
      "note": 41,
      "start": 47.4666,
      "duration": 0.2738,
      "velocity": 127,
      "chip": "ym2612"
    },
    {
      "channel": 5,
      "note": 80,
      "start": 47.6112,
      "duration": 0.8941,
      "velocity": 127,
      "chip": "ym2612"
    },
    {
      "channel": 1,
      "note": 62,
      "start": 47.9112,
      "duration": 0.4471,
      "velocity": 96,
      "chip": "ym2612"
    },
    {
      "channel": 3,
      "note": 62,
      "start": 47.912,
      "duration": 0.1476,
      "velocity": 81,
      "chip": "ym2612"
    },
    {
      "channel": 2,
      "note": 41,
      "start": 47.9134,
      "duration": 0.1427,
      "velocity": 127,
      "chip": "ym2612"
    },
    {
      "channel": 3,
      "note": 62,
      "start": 48.0604,
      "duration": 0.1485,
      "velocity": 81,
      "chip": "ym2612"
    },
    {
      "channel": 2,
      "note": 41,
      "start": 48.0623,
      "duration": 0.1431,
      "velocity": 127,
      "chip": "ym2612"
    },
    {
      "channel": 3,
      "note": 62,
      "start": 48.2095,
      "duration": 0.1497,
      "velocity": 81,
      "chip": "ym2612"
    },
    {
      "channel": 2,
      "note": 41,
      "start": 48.2116,
      "duration": 0.1432,
      "velocity": 127,
      "chip": "ym2612"
    },
    {
      "channel": 0,
      "note": 81,
      "start": 48.3582,
      "duration": 0.8949,
      "velocity": 127,
      "chip": "ym2612"
    },
    {
      "channel": 1,
      "note": 62,
      "start": 48.3589,
      "duration": 0.4467,
      "velocity": 96,
      "chip": "ym2612"
    },
    {
      "channel": 3,
      "note": 62,
      "start": 48.3598,
      "duration": 0.1449,
      "velocity": 81,
      "chip": "ym2612"
    },
    {
      "channel": 4,
      "note": 81,
      "start": 48.3612,
      "duration": 0.8941,
      "velocity": 127,
      "chip": "ym2612"
    },
    {
      "channel": 2,
      "note": 41,
      "start": 48.3623,
      "duration": 0.2737,
      "velocity": 127,
      "chip": "ym2612"
    },
    {
      "channel": 5,
      "note": 81,
      "start": 48.5059,
      "duration": 0.8951,
      "velocity": 127,
      "chip": "ym2612"
    },
    {
      "channel": 1,
      "note": 62,
      "start": 48.8062,
      "duration": 0.4476,
      "velocity": 96,
      "chip": "ym2612"
    },
    {
      "channel": 3,
      "note": 62,
      "start": 48.807,
      "duration": 0.1483,
      "velocity": 81,
      "chip": "ym2612"
    },
    {
      "channel": 2,
      "note": 41,
      "start": 48.8084,
      "duration": 0.1433,
      "velocity": 127,
      "chip": "ym2612"
    },
    {
      "channel": 3,
      "note": 62,
      "start": 48.9558,
      "duration": 0.1487,
      "velocity": 81,
      "chip": "ym2612"
    },
    {
      "channel": 2,
      "note": 41,
      "start": 48.9573,
      "duration": 0.1437,
      "velocity": 127,
      "chip": "ym2612"
    },
    {
      "channel": 3,
      "note": 62,
      "start": 49.1051,
      "duration": 0.1494,
      "velocity": 81,
      "chip": "ym2612"
    },
    {
      "channel": 2,
      "note": 41,
      "start": 49.1066,
      "duration": 0.1437,
      "velocity": 127,
      "chip": "ym2612"
    },
    {
      "channel": 0,
      "note": 83,
      "start": 49.2537,
      "duration": 0.8952,
      "velocity": 127,
      "chip": "ym2612"
    },
    {
      "channel": 1,
      "note": 62,
      "start": 49.2544,
      "duration": 0.4469,
      "velocity": 96,
      "chip": "ym2612"
    },
    {
      "channel": 3,
      "note": 62,
      "start": 49.2551,
      "duration": 0.2232,
      "velocity": 81,
      "chip": "ym2612"
    },
    {
      "channel": 4,
      "note": 83,
      "start": 49.2559,
      "duration": 0.8955,
      "velocity": 127,
      "chip": "ym2612"
    },
    {
      "channel": 2,
      "note": 41,
      "start": 49.257,
      "duration": 0.2171,
      "velocity": 127,
      "chip": "ym2612"
    },
    {
      "channel": 5,
      "note": 83,
      "start": 49.4016,
      "duration": 0.895,
      "velocity": 127,
      "chip": "ym2612"
    },
    {
      "channel": 3,
      "note": 62,
      "start": 49.4788,
      "duration": 0.2232,
      "velocity": 81,
      "chip": "ym2612"
    },
    {
      "channel": 2,
      "note": 41,
      "start": 49.4804,
      "duration": 0.2177,
      "velocity": 127,
      "chip": "ym2612"
    },
    {
      "channel": 1,
      "note": 62,
      "start": 49.7019,
      "duration": 0.4478,
      "velocity": 96,
      "chip": "ym2612"
    },
    {
      "channel": 3,
      "note": 62,
      "start": 49.7026,
      "duration": 0.2229,
      "velocity": 81,
      "chip": "ym2612"
    },
    {
      "channel": 2,
      "note": 41,
      "start": 49.7041,
      "duration": 0.2179,
      "velocity": 127,
      "chip": "ym2612"
    },
    {
      "channel": 3,
      "note": 62,
      "start": 49.9261,
      "duration": 0.2246,
      "velocity": 81,
      "chip": "ym2612"
    },
    {
      "channel": 2,
      "note": 41,
      "start": 49.9282,
      "duration": 0.2179,
      "velocity": 127,
      "chip": "ym2612"
    },
    {
      "channel": 0,
      "note": 81,
      "start": 50.1495,
      "duration": 1.7907,
      "velocity": 127,
      "chip": "ym2612"
    },
    {
      "channel": 1,
      "note": 64,
      "start": 50.1502,
      "duration": 0.4472,
      "velocity": 96,
      "chip": "ym2612"
    },
    {
      "channel": 3,
      "note": 64,
      "start": 50.1512,
      "duration": 0.1447,
      "velocity": 81,
      "chip": "ym2612"
    },
    {
      "channel": 4,
      "note": 81,
      "start": 50.152,
      "duration": 1.7906,
      "velocity": 127,
      "chip": "ym2612"
    },
    {
      "channel": 2,
      "note": 41,
      "start": 50.1532,
      "duration": 0.2749,
      "velocity": 127,
      "chip": "ym2612"
    },
    {
      "channel": 5,
      "note": 81,
      "start": 50.2972,
      "duration": 1.7906,
      "velocity": 127,
      "chip": "ym2612"
    },
    {
      "channel": 1,
      "note": 59,
      "start": 50.598,
      "duration": 0.4474,
      "velocity": 96,
      "chip": "ym2612"
    },
    {
      "channel": 3,
      "note": 64,
      "start": 50.5988,
      "duration": 0.1484,
      "velocity": 81,
      "chip": "ym2612"
    },
    {
      "channel": 2,
      "note": 41,
      "start": 50.6002,
      "duration": 0.1428,
      "velocity": 127,
      "chip": "ym2612"
    },
    {
      "channel": 3,
      "note": 64,
      "start": 50.7477,
      "duration": 0.1486,
      "velocity": 81,
      "chip": "ym2612"
    },
    {
      "channel": 2,
      "note": 41,
      "start": 50.7493,
      "duration": 0.143,
      "velocity": 127,
      "chip": "ym2612"
    },
    {
      "channel": 3,
      "note": 64,
      "start": 50.8969,
      "duration": 0.1494,
      "velocity": 81,
      "chip": "ym2612"
    },
    {
      "channel": 2,
      "note": 41,
      "start": 50.8984,
      "duration": 0.1433,
      "velocity": 127,
      "chip": "ym2612"
    },
    {
      "channel": 1,
      "note": 64,
      "start": 51.0461,
      "duration": 0.4467,
      "velocity": 96,
      "chip": "ym2612"
    },
    {
      "channel": 3,
      "note": 64,
      "start": 51.0469,
      "duration": 0.1446,
      "velocity": 81,
      "chip": "ym2612"
    },
    {
      "channel": 2,
      "note": 41,
      "start": 51.0484,
      "duration": 0.2746,
      "velocity": 127,
      "chip": "ym2612"
    },
    {
      "channel": 1,
      "note": 59,
      "start": 51.4937,
      "duration": 0.4474,
      "velocity": 96,
      "chip": "ym2612"
    },
    {
      "channel": 3,
      "note": 64,
      "start": 51.4948,
      "duration": 0.1473,
      "velocity": 81,
      "chip": "ym2612"
    },
    {
      "channel": 2,
      "note": 41,
      "start": 51.4963,
      "duration": 0.1424,
      "velocity": 127,
      "chip": "ym2612"
    },
    {
      "channel": 3,
      "note": 64,
      "start": 51.6427,
      "duration": 0.1487,
      "velocity": 81,
      "chip": "ym2612"
    },
    {
      "channel": 2,
      "note": 41,
      "start": 51.6449,
      "duration": 0.1431,
      "velocity": 127,
      "chip": "ym2612"
    },
    {
      "channel": 3,
      "note": 64,
      "start": 51.792,
      "duration": 0.1499,
      "velocity": 81,
      "chip": "ym2612"
    },
    {
      "channel": 2,
      "note": 41,
      "start": 51.7937,
      "duration": 0.1437,
      "velocity": 127,
      "chip": "ym2612"
    },
    {
      "channel": 0,
      "note": 80,
      "start": 51.9408,
      "duration": 1.7907,
      "velocity": 127,
      "chip": "ym2612"
    },
    {
      "channel": 1,
      "note": 64,
      "start": 51.9416,
      "duration": 0.4465,
      "velocity": 96,
      "chip": "ym2612"
    },
    {
      "channel": 3,
      "note": 64,
      "start": 51.9425,
      "duration": 0.1447,
      "velocity": 81,
      "chip": "ym2612"
    },
    {
      "channel": 4,
      "note": 80,
      "start": 51.9434,
      "duration": 1.7906,
      "velocity": 127,
      "chip": "ym2612"
    },
    {
      "channel": 2,
      "note": 41,
      "start": 51.945,
      "duration": 0.2739,
      "velocity": 127,
      "chip": "ym2612"
    },
    {
      "channel": 5,
      "note": 80,
      "start": 52.0885,
      "duration": 1.7911,
      "velocity": 127,
      "chip": "ym2612"
    },
    {
      "channel": 1,
      "note": 59,
      "start": 52.3887,
      "duration": 0.4473,
      "velocity": 96,
      "chip": "ym2612"
    },
    {
      "channel": 3,
      "note": 64,
      "start": 52.3895,
      "duration": 0.1483,
      "velocity": 81,
      "chip": "ym2612"
    },
    {
      "channel": 2,
      "note": 41,
      "start": 52.3909,
      "duration": 0.1434,
      "velocity": 127,
      "chip": "ym2612"
    },
    {
      "channel": 3,
      "note": 64,
      "start": 52.5384,
      "duration": 0.1486,
      "velocity": 81,
      "chip": "ym2612"
    },
    {
      "channel": 2,
      "note": 41,
      "start": 52.5399,
      "duration": 0.1437,
      "velocity": 127,
      "chip": "ym2612"
    },
    {
      "channel": 3,
      "note": 64,
      "start": 52.6876,
      "duration": 0.1491,
      "velocity": 81,
      "chip": "ym2612"
    },
    {
      "channel": 2,
      "note": 41,
      "start": 52.6891,
      "duration": 0.1437,
      "velocity": 127,
      "chip": "ym2612"
    },
    {
      "channel": 1,
      "note": 64,
      "start": 52.8366,
      "duration": 0.4473,
      "velocity": 96,
      "chip": "ym2612"
    },
    {
      "channel": 3,
      "note": 64,
      "start": 52.8373,
      "duration": 0.2232,
      "velocity": 81,
      "chip": "ym2612"
    },
    {
      "channel": 2,
      "note": 41,
      "start": 52.8388,
      "duration": 0.2179,
      "velocity": 127,
      "chip": "ym2612"
    },
    {
      "channel": 3,
      "note": 64,
      "start": 53.0614,
      "duration": 0.2231,
      "velocity": 81,
      "chip": "ym2612"
    },
    {
      "channel": 2,
      "note": 41,
      "start": 53.0629,
      "duration": 0.2178,
      "velocity": 127,
      "chip": "ym2612"
    },
    {
      "channel": 1,
      "note": 59,
      "start": 53.2844,
      "duration": 0.448,
      "velocity": 96,
      "chip": "ym2612"
    },
    {
      "channel": 3,
      "note": 64,
      "start": 53.2851,
      "duration": 0.2229,
      "velocity": 81,
      "chip": "ym2612"
    },
    {
      "channel": 2,
      "note": 41,
      "start": 53.2866,
      "duration": 0.2179,
      "velocity": 127,
      "chip": "ym2612"
    },
    {
      "channel": 3,
      "note": 64,
      "start": 53.5086,
      "duration": 0.2247,
      "velocity": 81,
      "chip": "ym2612"
    },
    {
      "channel": 2,
      "note": 41,
      "start": 53.5103,
      "duration": 0.2184,
      "velocity": 127,
      "chip": "ym2612"
    },
    {
      "channel": 0,
      "note": 78,
      "start": 53.7322,
      "duration": 1.7907,
      "velocity": 127,
      "chip": "ym2612"
    },
    {
      "channel": 1,
      "note": 64,
      "start": 53.733,
      "duration": 0.4471,
      "velocity": 96,
      "chip": "ym2612"
    },
    {
      "channel": 3,
      "note": 64,
      "start": 53.7339,
      "duration": 0.145,
      "velocity": 81,
      "chip": "ym2612"
    },
    {
      "channel": 4,
      "note": 78,
      "start": 53.7346,
      "duration": 1.7905,
      "velocity": 127,
      "chip": "ym2612"
    },
    {
      "channel": 2,
      "note": 41,
      "start": 53.7358,
      "duration": 0.2741,
      "velocity": 127,
      "chip": "ym2612"
    },
    {
      "channel": 5,
      "note": 78,
      "start": 53.8801,
      "duration": 1.7903,
      "velocity": 127,
      "chip": "ym2612"
    },
    {
      "channel": 1,
      "note": 59,
      "start": 54.1806,
      "duration": 0.4474,
      "velocity": 96,
      "chip": "ym2612"
    },
    {
      "channel": 3,
      "note": 64,
      "start": 54.1814,
      "duration": 0.1483,
      "velocity": 81,
      "chip": "ym2612"
    },
    {
      "channel": 2,
      "note": 41,
      "start": 54.1829,
      "duration": 0.1427,
      "velocity": 127,
      "chip": "ym2612"
    },
    {
      "channel": 3,
      "note": 64,
      "start": 54.3303,
      "duration": 0.1486,
      "velocity": 81,
      "chip": "ym2612"
    },
    {
      "channel": 2,
      "note": 41,
      "start": 54.3318,
      "duration": 0.143,
      "velocity": 127,
      "chip": "ym2612"
    },
    {
      "channel": 3,
      "note": 64,
      "start": 54.4795,
      "duration": 0.1494,
      "velocity": 81,
      "chip": "ym2612"
    },
    {
      "channel": 2,
      "note": 41,
      "start": 54.481,
      "duration": 0.1432,
      "velocity": 127,
      "chip": "ym2612"
    },
    {
      "channel": 1,
      "note": 64,
      "start": 54.6286,
      "duration": 0.4465,
      "velocity": 96,
      "chip": "ym2612"
    },
    {
      "channel": 3,
      "note": 64,
      "start": 54.6295,
      "duration": 0.1447,
      "velocity": 81,
      "chip": "ym2612"
    },
    {
      "channel": 2,
      "note": 41,
      "start": 54.631,
      "duration": 0.2746,
      "velocity": 127,
      "chip": "ym2612"
    },
    {
      "channel": 1,
      "note": 59,
      "start": 55.0757,
      "duration": 0.448,
      "velocity": 96,
      "chip": "ym2612"
    },
    {
      "channel": 3,
      "note": 64,
      "start": 55.0764,
      "duration": 0.1483,
      "velocity": 81,
      "chip": "ym2612"
    },
    {
      "channel": 2,
      "note": 41,
      "start": 55.0785,
      "duration": 0.1427,
      "velocity": 127,
      "chip": "ym2612"
    },
    {
      "channel": 3,
      "note": 64,
      "start": 55.2253,
      "duration": 0.1489,
      "velocity": 81,
      "chip": "ym2612"
    },
    {
      "channel": 2,
      "note": 41,
      "start": 55.227,
      "duration": 0.1437,
      "velocity": 127,
      "chip": "ym2612"
    },
    {
      "channel": 3,
      "note": 64,
      "start": 55.3748,
      "duration": 0.1497,
      "velocity": 81,
      "chip": "ym2612"
    },
    {
      "channel": 2,
      "note": 41,
      "start": 55.3763,
      "duration": 0.1437,
      "velocity": 127,
      "chip": "ym2612"
    },
    {
      "channel": 0,
      "note": 80,
      "start": 55.5234,
      "duration": 1.7914,
      "velocity": 127,
      "chip": "ym2612"
    },
    {
      "channel": 1,
      "note": 64,
      "start": 55.5242,
      "duration": 0.4465,
      "velocity": 96,
      "chip": "ym2612"
    },
    {
      "channel": 3,
      "note": 64,
      "start": 55.525,
      "duration": 0.1448,
      "velocity": 81,
      "chip": "ym2612"
    },
    {
      "channel": 4,
      "note": 80,
      "start": 55.5258,
      "duration": 1.7969,
      "velocity": 127,
      "chip": "ym2612"
    },
    {
      "channel": 2,
      "note": 41,
      "start": 55.5271,
      "duration": 0.274,
      "velocity": 127,
      "chip": "ym2612"
    },
    {
      "channel": 5,
      "note": 80,
      "start": 55.671,
      "duration": 1.7914,
      "velocity": 127,
      "chip": "ym2612"
    },
    {
      "channel": 1,
      "note": 59,
      "start": 55.9713,
      "duration": 0.4473,
      "velocity": 96,
      "chip": "ym2612"
    },
    {
      "channel": 3,
      "note": 64,
      "start": 55.972,
      "duration": 0.1482,
      "velocity": 81,
      "chip": "ym2612"
    },
    {
      "channel": 2,
      "note": 41,
      "start": 55.9735,
      "duration": 0.1433,
      "velocity": 127,
      "chip": "ym2612"
    },
    {
      "channel": 3,
      "note": 64,
      "start": 56.1208,
      "duration": 0.1487,
      "velocity": 81,
      "chip": "ym2612"
    },
    {
      "channel": 2,
      "note": 41,
      "start": 56.1224,
      "duration": 0.1437,
      "velocity": 127,
      "chip": "ym2612"
    },
    {
      "channel": 3,
      "note": 64,
      "start": 56.2701,
      "duration": 0.1492,
      "velocity": 81,
      "chip": "ym2612"
    },
    {
      "channel": 2,
      "note": 41,
      "start": 56.2717,
      "duration": 0.1438,
      "velocity": 127,
      "chip": "ym2612"
    },
    {
      "channel": 1,
      "note": 64,
      "start": 56.4192,
      "duration": 0.4472,
      "velocity": 96,
      "chip": "ym2612"
    },
    {
      "channel": 3,
      "note": 64,
      "start": 56.42,
      "duration": 0.2228,
      "velocity": 81,
      "chip": "ym2612"
    },
    {
      "channel": 2,
      "note": 41,
      "start": 56.4214,
      "duration": 0.2179,
      "velocity": 127,
      "chip": "ym2612"
    },
    {
      "channel": 3,
      "note": 64,
      "start": 56.6436,
      "duration": 0.2235,
      "velocity": 81,
      "chip": "ym2612"
    },
    {
      "channel": 2,
      "note": 41,
      "start": 56.6455,
      "duration": 0.2177,
      "velocity": 127,
      "chip": "ym2612"
    },
    {
      "channel": 1,
      "note": 59,
      "start": 56.867,
      "duration": 0.4512,
      "velocity": 96,
      "chip": "ym2612"
    },
    {
      "channel": 3,
      "note": 64,
      "start": 56.8677,
      "duration": 0.2229,
      "velocity": 81,
      "chip": "ym2612"
    },
    {
      "channel": 2,
      "note": 41,
      "start": 56.8692,
      "duration": 0.2179,
      "velocity": 127,
      "chip": "ym2612"
    },
    {
      "channel": 3,
      "note": 64,
      "start": 57.0912,
      "duration": 0.2307,
      "velocity": 81,
      "chip": "ym2612"
    },
    {
      "channel": 2,
      "note": 41,
      "start": 57.0927,
      "duration": 0.2192,
      "velocity": 127,
      "chip": "ym2612"
    },
    {
      "channel": 0,
      "note": 69,
      "start": 57.3154,
      "duration": 0.4411,
      "velocity": 127,
      "chip": "ym2612"
    },
    {
      "channel": 1,
      "note": 66,
      "start": 57.3187,
      "duration": 0.4378,
      "velocity": 96,
      "chip": "ym2612"
    },
    {
      "channel": 3,
      "note": 66,
      "start": 57.3225,
      "duration": 0.1392,
      "velocity": 81,
      "chip": "ym2612"
    },
    {
      "channel": 4,
      "note": 69,
      "start": 57.3233,
      "duration": 0.4332,
      "velocity": 127,
      "chip": "ym2612"
    },
    {
      "channel": 2,
      "note": 41,
      "start": 57.3245,
      "duration": 0.268,
      "velocity": 127,
      "chip": "ym2612"
    },
    {
      "channel": 5,
      "note": 69,
      "start": 57.463,
      "duration": 0.2935,
      "velocity": 127,
      "chip": "ym2612"
    }
  ]
}