{
  "track_name": "09 - Ghost",
  "duration_sec": 96.333,
  "sample_rate": 44100,
  "note_count": 1851,
  "unique_pitches": 59,
  "pitch_range": 75,
  "avg_note_duration": 0.2387,
  "reconstruction_stats": {
    "notes_reconstructed": 1851,
    "keyon_events": 1851,
    "keyoff_events": 1849,
    "orphan_keyons": 2,
    "unique_pitches": 59,
    "pitch_range": 75,
    "avg_duration_sec": 0.2387
  },
  "metadata": {
    "source": "Y\\Yumimi Mix\\09 - Ghost.vgm"
  },
  "notes": [
    {
      "channel": 0,
      "note": 45,
      "start": 0.0,
      "duration": 6.2183,
      "velocity": 106,
      "chip": "ym2612"
    },
    {
      "channel": 1,
      "note": 57,
      "start": 0.0,
      "duration": 4.6521,
      "velocity": 71,
      "chip": "ym2612"
    },
    {
      "channel": 2,
      "note": 63,
      "start": 0.0,
      "duration": 4.6532,
      "velocity": 74,
      "chip": "ym2612"
    },
    {
      "channel": 4,
      "note": 75,
      "start": 0.0,
      "duration": 0.1532,
      "velocity": 111,
      "chip": "ym2612"
    },
    {
      "channel": 3,
      "note": 75,
      "start": 0.0363,
      "duration": 0.2156,
      "velocity": 111,
      "chip": "ym2612"
    },
    {
      "channel": 4,
      "note": 69,
      "start": 0.2044,
      "duration": 0.2155,
      "velocity": 111,
      "chip": "ym2612"
    },
    {
      "channel": 3,
      "note": 69,
      "start": 0.2865,
      "duration": 0.2154,
      "velocity": 111,
      "chip": "ym2612"
    },
    {
      "channel": 4,
      "note": 68,
      "start": 0.471,
      "duration": 0.2155,
      "velocity": 111,
      "chip": "ym2612"
    },
    {
      "channel": 3,
      "note": 68,
      "start": 0.5531,
      "duration": 0.2155,
      "velocity": 111,
      "chip": "ym2612"
    },
    {
      "channel": 4,
      "note": 62,
      "start": 0.721,
      "duration": 0.2155,
      "velocity": 111,
      "chip": "ym2612"
    },
    {
      "channel": 3,
      "note": 68,
      "start": 0.8198,
      "duration": 0.2155,
      "velocity": 111,
      "chip": "ym2612"
    },
    {
      "channel": 4,
      "note": 67,
      "start": 0.9878,
      "duration": 0.2153,
      "velocity": 111,
      "chip": "ym2612"
    },
    {
      "channel": 3,
      "note": 67,
      "start": 1.07,
      "duration": 0.2153,
      "velocity": 111,
      "chip": "ym2612"
    },
    {
      "channel": 4,
      "note": 61,
      "start": 1.2543,
      "duration": 0.2155,
      "velocity": 111,
      "chip": "ym2612"
    },
    {
      "channel": 3,
      "note": 61,
      "start": 1.3365,
      "duration": 0.2154,
      "velocity": 111,
      "chip": "ym2612"
    },
    {
      "channel": 4,
      "note": 62,
      "start": 1.5043,
      "duration": 0.2322,
      "velocity": 111,
      "chip": "ym2612"
    },
    {
      "channel": 3,
      "note": 62,
      "start": 1.6031,
      "duration": 0.2155,
      "velocity": 111,
      "chip": "ym2612"
    },
    {
      "channel": 4,
      "note": 57,
      "start": 1.771,
      "duration": 0.2148,
      "velocity": 111,
      "chip": "ym2612"
    },
    {
      "channel": 3,
      "note": 57,
      "start": 1.8532,
      "duration": 0.2667,
      "velocity": 111,
      "chip": "ym2612"
    },
    {
      "channel": 4,
      "note": 63,
      "start": 2.0378,
      "duration": 0.2146,
      "velocity": 111,
      "chip": "ym2612"
    },
    {
      "channel": 3,
      "note": 63,
      "start": 2.12,
      "duration": 0.2153,
      "velocity": 111,
      "chip": "ym2612"
    },
    {
      "channel": 4,
      "note": 59,
      "start": 2.2868,
      "duration": 0.233,
      "velocity": 111,
      "chip": "ym2612"
    },
    {
      "channel": 3,
      "note": 59,
      "start": 2.3864,
      "duration": 0.2156,
      "velocity": 111,
      "chip": "ym2612"
    },
    {
      "channel": 4,
      "note": 62,
      "start": 2.5543,
      "duration": 0.2155,
      "velocity": 111,
      "chip": "ym2612"
    },
    {
      "channel": 3,
      "note": 62,
      "start": 2.6366,
      "duration": 0.2154,
      "velocity": 111,
      "chip": "ym2612"
    },
    {
      "channel": 4,
      "note": 58,
      "start": 2.821,
      "duration": 0.2155,
      "velocity": 111,
      "chip": "ym2612"
    },
    {
      "channel": 3,
      "note": 58,
      "start": 2.9032,
      "duration": 0.2154,
      "velocity": 111,
      "chip": "ym2612"
    },
    {
      "channel": 4,
      "note": 66,
      "start": 3.0712,
      "duration": 0.232,
      "velocity": 111,
      "chip": "ym2612"
    },
    {
      "channel": 3,
      "note": 66,
      "start": 3.1701,
      "duration": 0.2152,
      "velocity": 111,
      "chip": "ym2612"
    },
    {
      "channel": 4,
      "note": 64,
      "start": 3.3376,
      "duration": 0.2155,
      "velocity": 111,
      "chip": "ym2612"
    },
    {
      "channel": 3,
      "note": 64,
      "start": 3.4199,
      "duration": 0.2154,
      "velocity": 111,
      "chip": "ym2612"
    },
    {
      "channel": 4,
      "note": 68,
      "start": 3.6043,
      "duration": 0.2155,
      "velocity": 111,
      "chip": "ym2612"
    },
    {
      "channel": 3,
      "note": 68,
      "start": 3.6866,
      "duration": 0.2154,
      "velocity": 111,
      "chip": "ym2612"
    },
    {
      "channel": 4,
      "note": 66,
      "start": 3.871,
      "duration": 0.2155,
      "velocity": 111,
      "chip": "ym2612"
    },
    {
      "channel": 3,
      "note": 66,
      "start": 3.9532,
      "duration": 0.2154,
      "velocity": 111,
      "chip": "ym2612"
    },
    {
      "channel": 4,
      "note": 74,
      "start": 4.1212,
      "duration": 0.2153,
      "velocity": 111,
      "chip": "ym2612"
    },
    {
      "channel": 3,
      "note": 74,
      "start": 4.2034,
      "duration": 0.2153,
      "velocity": 111,
      "chip": "ym2612"
    },
    {
      "channel": 4,
      "note": 73,
      "start": 4.3876,
      "duration": 0.2155,
      "velocity": 111,
      "chip": "ym2612"
    },
    {
      "channel": 3,
      "note": 73,
      "start": 4.4699,
      "duration": 0.2154,
      "velocity": 111,
      "chip": "ym2612"
    },
    {
      "channel": 1,
      "note": 51,
      "start": 4.6522,
      "duration": 2.0833,
      "velocity": 71,
      "chip": "ym2612"
    },
    {
      "channel": 2,
      "note": 57,
      "start": 4.6533,
      "duration": 2.0833,
      "velocity": 74,
      "chip": "ym2612"
    },
    {
      "channel": 4,
      "note": 77,
      "start": 4.6556,
      "duration": 0.2142,
      "velocity": 111,
      "chip": "ym2612"
    },
    {
      "channel": 3,
      "note": 77,
      "start": 4.7366,
      "duration": 0.2154,
      "velocity": 111,
      "chip": "ym2612"
    },
    {
      "channel": 4,
      "note": 75,
      "start": 4.9043,
      "duration": 0.2155,
      "velocity": 111,
      "chip": "ym2612"
    },
    {
      "channel": 3,
      "note": 75,
      "start": 4.9866,
      "duration": 0.2154,
      "velocity": 111,
      "chip": "ym2612"
    },
    {
      "channel": 4,
      "note": 83,
      "start": 5.171,
      "duration": 0.2155,
      "velocity": 111,
      "chip": "ym2612"
    },
    {
      "channel": 3,
      "note": 83,
      "start": 5.2534,
      "duration": 0.2153,
      "velocity": 111,
      "chip": "ym2612"
    },
    {
      "channel": 4,
      "note": 81,
      "start": 5.4376,
      "duration": 0.2155,
      "velocity": 111,
      "chip": "ym2612"
    },
    {
      "channel": 3,
      "note": 81,
      "start": 5.5199,
      "duration": 0.2154,
      "velocity": 111,
      "chip": "ym2612"
    },
    {
      "channel": 4,
      "note": 84,
      "start": 5.6876,
      "duration": 0.2155,
      "velocity": 111,
      "chip": "ym2612"
    },
    {
      "channel": 3,
      "note": 84,
      "start": 5.7699,
      "duration": 0.232,
      "velocity": 111,
      "chip": "ym2612"
    },
    {
      "channel": 4,
      "note": 81,
      "start": 5.9542,
      "duration": 0.267,
      "velocity": 111,
      "chip": "ym2612"
    },
    {
      "channel": 3,
      "note": 81,
      "start": 6.0363,
      "duration": 0.2667,
      "velocity": 111,
      "chip": "ym2612"
    },
    {
      "channel": 0,
      "note": 33,
      "start": 6.2183,
      "duration": 2.0866,
      "velocity": 101,
      "chip": "ym2612"
    },
    {
      "channel": 4,
      "note": 87,
      "start": 6.2213,
      "duration": 0.2488,
      "velocity": 111,
      "chip": "ym2612"
    },
    {
      "channel": 3,
      "note": 87,
      "start": 6.3031,
      "duration": 0.2498,
      "velocity": 111,
      "chip": "ym2612"
    },
    {
      "channel": 4,
      "note": 83,
      "start": 6.4702,
      "duration": 0.2163,
      "velocity": 111,
      "chip": "ym2612"
    },
    {
      "channel": 3,
      "note": 83,
      "start": 6.553,
      "duration": 0.2323,
      "velocity": 111,
      "chip": "ym2612"
    },
    {
      "channel": 1,
      "note": 45,
      "start": 6.7355,
      "duration": 1.0525,
      "velocity": 104,
      "chip": "ym2612"
    },
    {
      "channel": 2,
      "note": 51,
      "start": 6.7366,
      "duration": 1.5695,
      "velocity": 74,
      "chip": "ym2612"
    },
    {
      "channel": 4,
      "note": 84,
      "start": 6.739,
      "duration": 0.2142,
      "velocity": 111,
      "chip": "ym2612"
    },
    {
      "channel": 3,
      "note": 84,
      "start": 6.8199,
      "duration": 0.2154,
      "velocity": 111,
      "chip": "ym2612"
    },
    {
      "channel": 4,
      "note": 79,
      "start": 7.0043,
      "duration": 0.2155,
      "velocity": 111,
      "chip": "ym2612"
    },
    {
      "channel": 3,
      "note": 79,
      "start": 7.0866,
      "duration": 0.2154,
      "velocity": 111,
      "chip": "ym2612"
    },
    {
      "channel": 4,
      "note": 84,
      "start": 7.2544,
      "duration": 0.2154,
      "velocity": 111,
      "chip": "ym2612"
    },
    {
      "channel": 3,
      "note": 84,
      "start": 7.3367,
      "duration": 0.2321,
      "velocity": 111,
      "chip": "ym2612"
    },
    {
      "channel": 4,
      "note": 78,
      "start": 7.521,
      "duration": 0.2155,
      "velocity": 111,
      "chip": "ym2612"
    },
    {
      "channel": 3,
      "note": 78,
      "start": 7.6032,
      "duration": 0.2161,
      "velocity": 111,
      "chip": "ym2612"
    },
    {
      "channel": 1,
      "note": 25,
      "start": 7.788,
      "duration": 0.0307,
      "velocity": 104,
      "chip": "ym2612"
    },
    {
      "channel": 4,
      "note": 78,
      "start": 7.7908,
      "duration": 0.213,
      "velocity": 111,
      "chip": "ym2612"
    },
    {
      "channel": 1,
      "note": 26,
      "start": 7.8187,
      "duration": 0.05,
      "velocity": 104,
      "chip": "ym2612"
    },
    {
      "channel": 1,
      "note": 28,
      "start": 7.8688,
      "duration": 0.0333,
      "velocity": 104,
      "chip": "ym2612"
    },
    {
      "channel": 3,
      "note": 78,
      "start": 7.8705,
      "duration": 0.2155,
      "velocity": 111,
      "chip": "ym2612"
    },
    {
      "channel": 1,
      "note": 30,
      "start": 7.9021,
      "duration": 0.05,
      "velocity": 104,
      "chip": "ym2612"
    },
    {
      "channel": 1,
      "note": 32,
      "start": 7.9522,
      "duration": 0.0498,
      "velocity": 104,
      "chip": "ym2612"
    },
    {
      "channel": 1,
      "note": 33,
      "start": 8.002,
      "duration": 0.0333,
      "velocity": 104,
      "chip": "ym2612"
    },
    {
      "channel": 1,
      "note": 35,
      "start": 8.0354,
      "duration": 0.0499,
      "velocity": 104,
      "chip": "ym2612"
    },
    {
      "channel": 4,
      "note": 72,
      "start": 8.0383,
      "duration": 0.2155,
      "velocity": 111,
      "chip": "ym2612"
    },
    {
      "channel": 1,
      "note": 37,
      "start": 8.0854,
      "duration": 0.05,
      "velocity": 104,
      "chip": "ym2612"
    },
    {
      "channel": 1,
      "note": 38,
      "start": 8.1354,
      "duration": 0.0333,
      "velocity": 104,
      "chip": "ym2612"
    },
    {
      "channel": 3,
      "note": 72,
      "start": 8.1372,
      "duration": 0.2147,
      "velocity": 111,
      "chip": "ym2612"
    },
    {
      "channel": 1,
      "note": 40,
      "start": 8.1688,
      "duration": 0.05,
      "velocity": 104,
      "chip": "ym2612"
    },
    {
      "channel": 1,
      "note": 42,
      "start": 8.2188,
      "duration": 0.0332,
      "velocity": 104,
      "chip": "ym2612"
    },
    {
      "channel": 1,
      "note": 44,
      "start": 8.252,
      "duration": 0.0539,
      "velocity": 104,
      "chip": "ym2612"
    },
    {
      "channel": 0,
      "note": 57,
      "start": 8.3049,
      "duration": 0.2633,
      "velocity": 101,
      "chip": "ym2612"
    },
    {
      "channel": 1,
      "note": 33,
      "start": 8.306,
      "duration": 0.2634,
      "velocity": 104,
      "chip": "ym2612"
    },
    {
      "channel": 4,
      "note": 87,
      "start": 8.312,
      "duration": 0.2071,
      "velocity": 111,
      "chip": "ym2612"
    },
    {
      "channel": 0,
      "note": 60,
      "start": 8.5683,
      "duration": 0.1162,
      "velocity": 101,
      "chip": "ym2612"
    },
    {
      "channel": 1,
      "note": 51,
      "start": 8.5695,
      "duration": 0.2499,
      "velocity": 104,
      "chip": "ym2612"
    },
    {
      "channel": 2,
      "note": 48,
      "start": 8.5707,
      "duration": 0.2489,
      "velocity": 104,
      "chip": "ym2612"
    },
    {
      "channel": 4,
      "note": 84,
      "start": 8.5722,
      "duration": 0.2136,
      "velocity": 111,
      "chip": "ym2612"
    },
    {
      "channel": 5,
      "note": 72,
      "start": 8.5734,
      "duration": 0.2496,
      "velocity": 92,
      "chip": "ym2612"
    },
    {
      "channel": 0,
      "note": 60,
      "start": 8.6845,
      "duration": 0.1337,
      "velocity": 101,
      "chip": "ym2612"
    },
    {
      "channel": 0,
      "note": 61,
      "start": 8.8183,
      "duration": 0.1329,
      "velocity": 101,
      "chip": "ym2612"
    },
    {
      "channel": 1,
      "note": 27,
      "start": 8.8194,
      "duration": 0.2667,
      "velocity": 104,
      "chip": "ym2612"
    },
    {
      "channel": 4,
      "note": 85,
      "start": 8.8219,
      "duration": 0.2138,
      "velocity": 111,
      "chip": "ym2612"
    },
    {
      "channel": 5,
      "note": 73,
      "start": 8.8231,
      "duration": 0.131,
      "velocity": 92,
      "chip": "ym2612"
    },
    {
      "channel": 0,
      "note": 61,
      "start": 8.9513,
      "duration": 0.1337,
      "velocity": 101,
      "chip": "ym2612"
    },
    {
      "channel": 5,
      "note": 73,
      "start": 8.9542,
      "duration": 0.1359,
      "velocity": 92,
      "chip": "ym2612"
    },
    {
      "channel": 0,
      "note": 63,
      "start": 9.085,
      "duration": 0.1329,
      "velocity": 101,
      "chip": "ym2612"
    },
    {
      "channel": 1,
      "note": 52,
      "start": 9.0861,
      "duration": 0.2665,
      "velocity": 104,
      "chip": "ym2612"
    },
    {
      "channel": 2,
      "note": 49,
      "start": 9.0874,
      "duration": 0.2655,
      "velocity": 104,
      "chip": "ym2612"
    },
    {
      "channel": 4,
      "note": 81,
      "start": 9.089,
      "duration": 0.2135,
      "velocity": 111,
      "chip": "ym2612"
    },
    {
      "channel": 5,
      "note": 76,
      "start": 9.0901,
      "duration": 0.1307,
      "velocity": 92,
      "chip": "ym2612"
    },
    {
      "channel": 0,
      "note": 63,
      "start": 9.2179,
      "duration": 0.1337,
      "velocity": 101,
      "chip": "ym2612"
    },
    {
      "channel": 5,
      "note": 76,
      "start": 9.2209,
      "duration": 0.1352,
      "velocity": 92,
      "chip": "ym2612"
    },
    {
      "channel": 0,
      "note": 64,
      "start": 9.3516,
      "duration": 0.2499,
      "velocity": 101,
      "chip": "ym2612"
    },
    {
      "channel": 1,
      "note": 33,
      "start": 9.3527,
      "duration": 0.2499,
      "velocity": 104,
      "chip": "ym2612"
    },
    {
      "channel": 5,
      "note": 75,
      "start": 9.3561,
      "duration": 1.0336,
      "velocity": 92,
      "chip": "ym2612"
    },
    {
      "channel": 0,
      "note": 63,
      "start": 9.6015,
      "duration": 0.1329,
      "velocity": 101,
      "chip": "ym2612"
    },
    {
      "channel": 1,
      "note": 51,
      "start": 9.6027,
      "duration": 0.2666,
      "velocity": 104,
      "chip": "ym2612"
    },
    {
      "channel": 2,
      "note": 48,
      "start": 9.6039,
      "duration": 0.2655,
      "velocity": 104,
      "chip": "ym2612"
    },
    {
      "channel": 4,
      "note": 87,
      "start": 9.6055,
      "duration": 0.2136,
      "velocity": 111,
      "chip": "ym2612"
    },
    {
      "channel": 0,
      "note": 63,
      "start": 9.7345,
      "duration": 0.1337,
      "velocity": 101,
      "chip": "ym2612"
    },
    {
      "channel": 0,
      "note": 61,
      "start": 9.8682,
      "duration": 0.1329,
      "velocity": 101,
      "chip": "ym2612"
    },
    {
      "channel": 1,
      "note": 27,
      "start": 9.8693,
      "duration": 0.2667,
      "velocity": 104,
      "chip": "ym2612"
    },
    {
      "channel": 4,
      "note": 84,
      "start": 9.8719,
      "duration": 0.2139,
      "velocity": 111,
      "chip": "ym2612"
    },
    {
      "channel": 0,
      "note": 61,
      "start": 10.0012,
      "duration": 0.1337,
      "velocity": 101,
      "chip": "ym2612"
    },
    {
      "channel": 0,
      "note": 60,
      "start": 10.1349,
      "duration": 0.1329,
      "velocity": 101,
      "chip": "ym2612"
    },
    {
      "channel": 1,
      "note": 52,
      "start": 10.1361,
      "duration": 0.2498,
      "velocity": 104,
      "chip": "ym2612"
    },
    {
      "channel": 2,
      "note": 49,
      "start": 10.1373,
      "duration": 0.2488,
      "velocity": 104,
      "chip": "ym2612"
    },
    {
      "channel": 4,
      "note": 85,
      "start": 10.1389,
      "duration": 0.2136,
      "velocity": 111,
      "chip": "ym2612"
    },
    {
      "channel": 0,
      "note": 60,
      "start": 10.2679,
      "duration": 0.1333,
      "velocity": 101,
      "chip": "ym2612"
    },
    {
      "channel": 1,
      "note": 33,
      "start": 10.3859,
      "duration": 0.2668,
      "velocity": 104,
      "chip": "ym2612"
    },
    {
      "channel": 4,
      "note": 87,
      "start": 10.3889,
      "duration": 0.2135,
      "velocity": 111,
      "chip": "ym2612"
    },
    {
      "channel": 5,
      "note": 75,
      "start": 10.3898,
      "duration": 0.2669,
      "velocity": 92,
      "chip": "ym2612"
    },
    {
      "channel": 0,
      "note": 57,
      "start": 10.4012,
      "duration": 0.2504,
      "velocity": 101,
      "chip": "ym2612"
    },
    {
      "channel": 0,
      "note": 60,
      "start": 10.6516,
      "duration": 0.1328,
      "velocity": 101,
      "chip": "ym2612"
    },
    {
      "channel": 1,
      "note": 51,
      "start": 10.6528,
      "duration": 0.2659,
      "velocity": 104,
      "chip": "ym2612"
    },
    {
      "channel": 2,
      "note": 48,
      "start": 10.654,
      "duration": 0.2649,
      "velocity": 104,
      "chip": "ym2612"
    },
    {
      "channel": 4,
      "note": 84,
      "start": 10.6556,
      "duration": 0.2135,
      "velocity": 111,
      "chip": "ym2612"
    },
    {
      "channel": 5,
      "note": 72,
      "start": 10.6567,
      "duration": 0.2656,
      "velocity": 92,
      "chip": "ym2612"
    },
    {
      "channel": 0,
      "note": 60,
      "start": 10.7845,
      "duration": 0.1499,
      "velocity": 101,
      "chip": "ym2612"
    },
    {
      "channel": 1,
      "note": 27,
      "start": 10.9188,
      "duration": 0.2668,
      "velocity": 104,
      "chip": "ym2612"
    },
    {
      "channel": 4,
      "note": 85,
      "start": 10.9213,
      "duration": 0.2144,
      "velocity": 111,
      "chip": "ym2612"
    },
    {
      "channel": 5,
      "note": 73,
      "start": 10.9224,
      "duration": 0.1317,
      "velocity": 92,
      "chip": "ym2612"
    },
    {
      "channel": 0,
      "note": 61,
      "start": 10.9345,
      "duration": 0.1167,
      "velocity": 101,
      "chip": "ym2612"
    },
    {
      "channel": 0,
      "note": 61,
      "start": 11.0513,
      "duration": 0.1332,
      "velocity": 101,
      "chip": "ym2612"
    },
    {
      "channel": 5,
      "note": 73,
      "start": 11.0542,
      "duration": 0.1172,
      "velocity": 92,
      "chip": "ym2612"
    },
    {
      "channel": 4,
      "note": 81,
      "start": 11.1704,
      "duration": 0.2154,
      "velocity": 111,
      "chip": "ym2612"
    },
    {
      "channel": 5,
      "note": 76,
      "start": 11.1715,
      "duration": 0.1322,
      "velocity": 92,
      "chip": "ym2612"
    },
    {
      "channel": 0,
      "note": 63,
      "start": 11.1845,
      "duration": 0.133,
      "velocity": 101,
      "chip": "ym2612"
    },
    {
      "channel": 1,
      "note": 52,
      "start": 11.1856,
      "duration": 0.2663,
      "velocity": 104,
      "chip": "ym2612"
    },
    {
      "channel": 2,
      "note": 49,
      "start": 11.1869,
      "duration": 0.2653,
      "velocity": 104,
      "chip": "ym2612"
    },
    {
      "channel": 5,
      "note": 76,
      "start": 11.3038,
      "duration": 0.1342,
      "velocity": 92,
      "chip": "ym2612"
    },
    {
      "channel": 0,
      "note": 63,
      "start": 11.3176,
      "duration": 0.1326,
      "velocity": 101,
      "chip": "ym2612"
    },
    {
      "channel": 4,
      "note": 87,
      "start": 11.4369,
      "duration": 0.2155,
      "velocity": 111,
      "chip": "ym2612"
    },
    {
      "channel": 5,
      "note": 75,
      "start": 11.4381,
      "duration": 0.5183,
      "velocity": 92,
      "chip": "ym2612"
    },
    {
      "channel": 1,
      "note": 33,
      "start": 11.452,
      "duration": 0.2669,
      "velocity": 104,
      "chip": "ym2612"
    },
    {
      "channel": 4,
      "note": 84,
      "start": 11.7036,
      "duration": 0.2155,
      "velocity": 111,
      "chip": "ym2612"
    },
    {
      "channel": 0,
      "note": 60,
      "start": 11.7179,
      "duration": 0.2337,
      "velocity": 101,
      "chip": "ym2612"
    },
    {
      "channel": 1,
      "note": 51,
      "start": 11.7189,
      "duration": 0.2337,
      "velocity": 104,
      "chip": "ym2612"
    },
    {
      "channel": 2,
      "note": 48,
      "start": 11.7202,
      "duration": 0.2326,
      "velocity": 104,
      "chip": "ym2612"
    },
    {
      "channel": 0,
      "note": 61,
      "start": 11.9516,
      "duration": 0.1329,
      "velocity": 101,
      "chip": "ym2612"
    },
    {
      "channel": 1,
      "note": 27,
      "start": 11.9527,
      "duration": 0.2667,
      "velocity": 104,
      "chip": "ym2612"
    },
    {
      "channel": 4,
      "note": 85,
      "start": 11.9553,
      "duration": 0.2138,
      "velocity": 111,
      "chip": "ym2612"
    },
    {
      "channel": 5,
      "note": 76,
      "start": 11.9564,
      "duration": 0.131,
      "velocity": 92,
      "chip": "ym2612"
    },
    {
      "channel": 0,
      "note": 61,
      "start": 12.0846,
      "duration": 0.1337,
      "velocity": 101,
      "chip": "ym2612"
    },
    {
      "channel": 5,
      "note": 76,
      "start": 12.0875,
      "duration": 0.1359,
      "velocity": 92,
      "chip": "ym2612"
    },
    {
      "channel": 0,
      "note": 55,
      "start": 12.2183,
      "duration": 0.1329,
      "velocity": 101,
      "chip": "ym2612"
    },
    {
      "channel": 1,
      "note": 52,
      "start": 12.2195,
      "duration": 0.2673,
      "velocity": 104,
      "chip": "ym2612"
    },
    {
      "channel": 2,
      "note": 49,
      "start": 12.2207,
      "duration": 0.2662,
      "velocity": 104,
      "chip": "ym2612"
    },
    {
      "channel": 4,
      "note": 81,
      "start": 12.2223,
      "duration": 0.2135,
      "velocity": 111,
      "chip": "ym2612"
    },
    {
      "channel": 5,
      "note": 81,
      "start": 12.2235,
      "duration": 0.1307,
      "velocity": 92,
      "chip": "ym2612"
    },
    {
      "channel": 0,
      "note": 55,
      "start": 12.3513,
      "duration": 0.1343,
      "velocity": 101,
      "chip": "ym2612"
    },
    {
      "channel": 5,
      "note": 81,
      "start": 12.3542,
      "duration": 0.1394,
      "velocity": 92,
      "chip": "ym2612"
    },
    {
      "channel": 0,
      "note": 57,
      "start": 12.4857,
      "duration": 0.2493,
      "velocity": 101,
      "chip": "ym2612"
    },
    {
      "channel": 1,
      "note": 33,
      "start": 12.4868,
      "duration": 0.2492,
      "velocity": 104,
      "chip": "ym2612"
    },
    {
      "channel": 3,
      "note": 79,
      "start": 12.4914,
      "duration": 0.1616,
      "velocity": 95,
      "chip": "ym2612"
    },
    {
      "channel": 4,
      "note": 87,
      "start": 12.4926,
      "duration": 0.2099,
      "velocity": 111,
      "chip": "ym2612"
    },
    {
      "channel": 5,
      "note": 79,
      "start": 12.4937,
      "duration": 1.5634,
      "velocity": 92,
      "chip": "ym2612"
    },
    {
      "channel": 3,
      "note": 78,
      "start": 12.653,
      "duration": 0.1833,
      "velocity": 95,
      "chip": "ym2612"
    },
    {
      "channel": 0,
      "note": 60,
      "start": 12.7349,
      "duration": 0.1329,
      "velocity": 101,
      "chip": "ym2612"
    },
    {
      "channel": 1,
      "note": 51,
      "start": 12.7361,
      "duration": 0.2666,
      "velocity": 104,
      "chip": "ym2612"
    },
    {
      "channel": 2,
      "note": 48,
      "start": 12.7373,
      "duration": 0.2655,
      "velocity": 104,
      "chip": "ym2612"
    },
    {
      "channel": 4,
      "note": 84,
      "start": 12.7389,
      "duration": 0.2136,
      "velocity": 111,
      "chip": "ym2612"
    },
    {
      "channel": 3,
      "note": 77,
      "start": 12.8364,
      "duration": 0.1684,
      "velocity": 95,
      "chip": "ym2612"
    },
    {
      "channel": 0,
      "note": 60,
      "start": 12.8679,
      "duration": 0.1337,
      "velocity": 101,
      "chip": "ym2612"
    },
    {
      "channel": 0,
      "note": 61,
      "start": 13.0016,
      "duration": 0.1328,
      "velocity": 101,
      "chip": "ym2612"
    },
    {
      "channel": 1,
      "note": 27,
      "start": 13.0027,
      "duration": 0.2666,
      "velocity": 104,
      "chip": "ym2612"
    },
    {
      "channel": 3,
      "note": 76,
      "start": 13.0049,
      "duration": 0.1815,
      "velocity": 95,
      "chip": "ym2612"
    },
    {
      "channel": 4,
      "note": 85,
      "start": 13.006,
      "duration": 0.2131,
      "velocity": 111,
      "chip": "ym2612"
    },
    {
      "channel": 0,
      "note": 61,
      "start": 13.1345,
      "duration": 0.1337,
      "velocity": 101,
      "chip": "ym2612"
    },
    {
      "channel": 3,
      "note": 77,
      "start": 13.1864,
      "duration": 0.1667,
      "velocity": 95,
      "chip": "ym2612"
    },
    {
      "channel": 0,
      "note": 63,
      "start": 13.2683,
      "duration": 0.1329,
      "velocity": 101,
      "chip": "ym2612"
    },
    {
      "channel": 1,
      "note": 52,
      "start": 13.2694,
      "duration": 0.2499,
      "velocity": 104,
      "chip": "ym2612"
    },
    {
      "channel": 2,
      "note": 49,
      "start": 13.2707,
      "duration": 0.2489,
      "velocity": 104,
      "chip": "ym2612"
    },
    {
      "channel": 4,
      "note": 81,
      "start": 13.2722,
      "duration": 0.2136,
      "velocity": 111,
      "chip": "ym2612"
    },
    {
      "channel": 3,
      "note": 78,
      "start": 13.3531,
      "duration": 0.1684,
      "velocity": 95,
      "chip": "ym2612"
    },
    {
      "channel": 0,
      "note": 63,
      "start": 13.4012,
      "duration": 0.1171,
      "velocity": 101,
      "chip": "ym2612"
    },
    {
      "channel": 0,
      "note": 64,
      "start": 13.5183,
      "duration": 0.2666,
      "velocity": 101,
      "chip": "ym2612"
    },
    {
      "channel": 1,
      "note": 33,
      "start": 13.5194,
      "duration": 0.2666,
      "velocity": 104,
      "chip": "ym2612"
    },
    {
      "channel": 3,
      "note": 79,
      "start": 13.5216,
      "duration": 0.1814,
      "velocity": 95,
      "chip": "ym2612"
    },
    {
      "channel": 3,
      "note": 78,
      "start": 13.703,
      "duration": 0.1667,
      "velocity": 95,
      "chip": "ym2612"
    },
    {
      "channel": 0,
      "note": 63,
      "start": 13.7849,
      "duration": 0.1329,
      "velocity": 101,
      "chip": "ym2612"
    },
    {
      "channel": 1,
      "note": 51,
      "start": 13.7861,
      "duration": 0.2667,
      "velocity": 104,
      "chip": "ym2612"
    },
    {
      "channel": 2,
      "note": 48,
      "start": 13.7873,
      "duration": 0.2657,
      "velocity": 104,
      "chip": "ym2612"
    },
    {
      "channel": 4,
      "note": 87,
      "start": 13.7889,
      "duration": 0.2136,
      "velocity": 111,
      "chip": "ym2612"
    },
    {
      "channel": 3,
      "note": 77,
      "start": 13.8698,
      "duration": 0.1851,
      "velocity": 95,
      "chip": "ym2612"
    },
    {
      "channel": 0,
      "note": 63,
      "start": 13.9179,
      "duration": 0.1338,
      "velocity": 101,
      "chip": "ym2612"
    },
    {
      "channel": 0,
      "note": 61,
      "start": 14.0516,
      "duration": 0.1329,
      "velocity": 101,
      "chip": "ym2612"
    },
    {
      "channel": 1,
      "note": 27,
      "start": 14.0528,
      "duration": 0.2499,
      "velocity": 104,
      "chip": "ym2612"
    },
    {
      "channel": 3,
      "note": 76,
      "start": 14.0549,
      "duration": 0.1637,
      "velocity": 95,
      "chip": "ym2612"
    },
    {
      "channel": 4,
      "note": 84,
      "start": 14.0561,
      "duration": 0.213,
      "velocity": 111,
      "chip": "ym2612"
    },
    {
      "channel": 5,
      "note": 78,
      "start": 14.0572,
      "duration": 0.1305,
      "velocity": 92,
      "chip": "ym2612"
    },
    {
      "channel": 0,
      "note": 61,
      "start": 14.1846,
      "duration": 0.117,
      "velocity": 101,
      "chip": "ym2612"
    },
    {
      "channel": 5,
      "note": 79,
      "start": 14.1878,
      "duration": 0.1189,
      "velocity": 92,
      "chip": "ym2612"
    },
    {
      "channel": 0,
      "note": 60,
      "start": 14.3016,
      "duration": 0.1329,
      "velocity": 101,
      "chip": "ym2612"
    },
    {
      "channel": 1,
      "note": 52,
      "start": 14.3027,
      "duration": 0.2671,
      "velocity": 104,
      "chip": "ym2612"
    },
    {
      "channel": 2,
      "note": 49,
      "start": 14.304,
      "duration": 0.2659,
      "velocity": 104,
      "chip": "ym2612"
    },
    {
      "channel": 4,
      "note": 85,
      "start": 14.3056,
      "duration": 0.2302,
      "velocity": 111,
      "chip": "ym2612"
    },
    {
      "channel": 5,
      "note": 78,
      "start": 14.3067,
      "duration": 0.1307,
      "velocity": 92,
      "chip": "ym2612"
    },
    {
      "channel": 0,
      "note": 60,
      "start": 14.4346,
      "duration": 0.134,
      "velocity": 101,
      "chip": "ym2612"
    },
    {
      "channel": 5,
      "note": 78,
      "start": 14.4375,
      "duration": 0.1367,
      "velocity": 92,
      "chip": "ym2612"
    },
    {
      "channel": 0,
      "note": 57,
      "start": 14.5687,
      "duration": 0.2662,
      "velocity": 101,
      "chip": "ym2612"
    },
    {
      "channel": 1,
      "note": 33,
      "start": 14.5698,
      "duration": 0.2661,
      "velocity": 104,
      "chip": "ym2612"
    },
    {
      "channel": 3,
      "note": 72,
      "start": 14.5719,
      "duration": 0.1811,
      "velocity": 95,
      "chip": "ym2612"
    },
    {
      "channel": 4,
      "note": 87,
      "start": 14.5732,
      "duration": 0.2126,
      "velocity": 111,
      "chip": "ym2612"
    },
    {
      "channel": 5,
      "note": 76,
      "start": 14.5743,
      "duration": 2.0995,
      "velocity": 92,
      "chip": "ym2612"
    },
    {
      "channel": 3,
      "note": 71,
      "start": 14.753,
      "duration": 0.1667,
      "velocity": 95,
      "chip": "ym2612"
    },
    {
      "channel": 0,
      "note": 60,
      "start": 14.8349,
      "duration": 0.1329,
      "velocity": 101,
      "chip": "ym2612"
    },
    {
      "channel": 1,
      "note": 51,
      "start": 14.8361,
      "duration": 0.25,
      "velocity": 104,
      "chip": "ym2612"
    },
    {
      "channel": 2,
      "note": 48,
      "start": 14.8373,
      "duration": 0.2489,
      "velocity": 104,
      "chip": "ym2612"
    },
    {
      "channel": 4,
      "note": 84,
      "start": 14.8389,
      "duration": 0.2136,
      "velocity": 111,
      "chip": "ym2612"
    },
    {
      "channel": 3,
      "note": 70,
      "start": 14.9198,
      "duration": 0.1685,
      "velocity": 95,
      "chip": "ym2612"
    },
    {
      "channel": 0,
      "note": 60,
      "start": 14.9679,
      "duration": 0.1171,
      "velocity": 101,
      "chip": "ym2612"
    },
    {
      "channel": 0,
      "note": 61,
      "start": 15.085,
      "duration": 0.1328,
      "velocity": 101,
      "chip": "ym2612"
    },
    {
      "channel": 1,
      "note": 27,
      "start": 15.0861,
      "duration": 0.2665,
      "velocity": 104,
      "chip": "ym2612"
    },
    {
      "channel": 3,
      "note": 69,
      "start": 15.0883,
      "duration": 0.1814,
      "velocity": 95,
      "chip": "ym2612"
    },
    {
      "channel": 4,
      "note": 85,
      "start": 15.0894,
      "duration": 0.2298,
      "velocity": 111,
      "chip": "ym2612"
    },
    {
      "channel": 0,
      "note": 61,
      "start": 15.2179,
      "duration": 0.1337,
      "velocity": 101,
      "chip": "ym2612"
    },
    {
      "channel": 3,
      "note": 70,
      "start": 15.2697,
      "duration": 0.1667,
      "velocity": 95,
      "chip": "ym2612"
    },
    {
      "channel": 0,
      "note": 63,
      "start": 15.3516,
      "duration": 0.1329,
      "velocity": 101,
      "chip": "ym2612"
    },
    {
      "channel": 1,
      "note": 52,
      "start": 15.3527,
      "duration": 0.2663,
      "velocity": 104,
      "chip": "ym2612"
    },
    {
      "channel": 2,
      "note": 49,
      "start": 15.354,
      "duration": 0.2652,
      "velocity": 104,
      "chip": "ym2612"
    },
    {
      "channel": 4,
      "note": 81,
      "start": 15.3556,
      "duration": 0.2136,
      "velocity": 111,
      "chip": "ym2612"
    },
    {
      "channel": 3,
      "note": 71,
      "start": 15.4364,
      "duration": 0.1847,
      "velocity": 95,
      "chip": "ym2612"
    },
    {
      "channel": 0,
      "note": 63,
      "start": 15.4845,
      "duration": 0.1327,
      "velocity": 101,
      "chip": "ym2612"
    },
    {
      "channel": 1,
      "note": 33,
      "start": 15.6191,
      "duration": 0.2502,
      "velocity": 104,
      "chip": "ym2612"
    },
    {
      "channel": 3,
      "note": 72,
      "start": 15.6212,
      "duration": 0.1651,
      "velocity": 95,
      "chip": "ym2612"
    },
    {
      "channel": 4,
      "note": 87,
      "start": 15.6223,
      "duration": 0.2135,
      "velocity": 111,
      "chip": "ym2612"
    },
    {
      "channel": 3,
      "note": 71,
      "start": 15.7864,
      "duration": 0.1833,
      "velocity": 95,
      "chip": "ym2612"
    },
    {
      "channel": 0,
      "note": 60,
      "start": 15.8683,
      "duration": 0.2667,
      "velocity": 101,
      "chip": "ym2612"
    },
    {
      "channel": 1,
      "note": 51,
      "start": 15.8694,
      "duration": 0.2666,
      "velocity": 104,
      "chip": "ym2612"
    },
    {
      "channel": 2,
      "note": 48,
      "start": 15.8707,
      "duration": 0.2655,
      "velocity": 104,
      "chip": "ym2612"
    },
    {
      "channel": 4,
      "note": 84,
      "start": 15.8722,
      "duration": 0.2302,
      "velocity": 111,
      "chip": "ym2612"
    },
    {
      "channel": 3,
      "note": 70,
      "start": 15.9698,
      "duration": 0.1684,
      "velocity": 95,
      "chip": "ym2612"
    },
    {
      "channel": 0,
      "note": 61,
      "start": 16.1349,
      "duration": 0.1329,
      "velocity": 101,
      "chip": "ym2612"
    },
    {
      "channel": 1,
      "note": 27,
      "start": 16.1361,
      "duration": 0.2666,
      "velocity": 104,
      "chip": "ym2612"
    },
    {
      "channel": 3,
      "note": 69,
      "start": 16.1382,
      "duration": 0.1804,
      "velocity": 95,
      "chip": "ym2612"
    },
    {
      "channel": 4,
      "note": 85,
      "start": 16.1394,
      "duration": 0.2131,
      "velocity": 111,
      "chip": "ym2612"
    },
    {
      "channel": 0,
      "note": 61,
      "start": 16.2679,
      "duration": 0.1337,
      "velocity": 101,
      "chip": "ym2612"
    },
    {
      "channel": 0,
      "note": 55,
      "start": 16.4016,
      "duration": 0.1329,
      "velocity": 101,
      "chip": "ym2612"
    },
    {
      "channel": 1,
      "note": 52,
      "start": 16.4027,
      "duration": 0.2672,
      "velocity": 104,
      "chip": "ym2612"
    },
    {
      "channel": 2,
      "note": 49,
      "start": 16.4039,
      "duration": 0.2661,
      "velocity": 104,
      "chip": "ym2612"
    },
    {
      "channel": 4,
      "note": 81,
      "start": 16.4056,
      "duration": 0.2136,
      "velocity": 111,
      "chip": "ym2612"
    },
    {
      "channel": 0,
      "note": 55,
      "start": 16.5345,
      "duration": 0.1342,
      "velocity": 101,
      "chip": "ym2612"
    },
    {
      "channel": 0,
      "note": 57,
      "start": 16.6688,
      "duration": 0.2494,
      "velocity": 101,
      "chip": "ym2612"
    },
    {
      "channel": 1,
      "note": 33,
      "start": 16.67,
      "duration": 0.2494,
      "velocity": 104,
      "chip": "ym2612"
    },
    {
      "channel": 4,
      "note": 87,
      "start": 16.673,
      "duration": 0.2128,
      "velocity": 111,
      "chip": "ym2612"
    },
    {
      "channel": 5,
      "note": 76,
      "start": 16.6739,
      "duration": 0.2495,
      "velocity": 92,
      "chip": "ym2612"
    },
    {
      "channel": 0,
      "note": 60,
      "start": 16.9183,
      "duration": 0.1328,
      "velocity": 101,
      "chip": "ym2612"
    },
    {
      "channel": 1,
      "note": 51,
      "start": 16.9195,
      "duration": 0.2665,
      "velocity": 104,
      "chip": "ym2612"
    },
    {
      "channel": 2,
      "note": 48,
      "start": 16.9207,
      "duration": 0.2655,
      "velocity": 104,
      "chip": "ym2612"
    },
    {
      "channel": 4,
      "note": 84,
      "start": 16.9223,
      "duration": 0.2135,
      "velocity": 111,
      "chip": "ym2612"
    },
    {
      "channel": 5,
      "note": 72,
      "start": 16.9235,
      "duration": 0.2663,
      "velocity": 92,
      "chip": "ym2612"
    },
    {
      "channel": 0,
      "note": 60,
      "start": 17.0512,
      "duration": 0.1337,
      "velocity": 101,
      "chip": "ym2612"
    },
    {
      "channel": 0,
      "note": 61,
      "start": 17.1849,
      "duration": 0.1493,
      "velocity": 101,
      "chip": "ym2612"
    },
    {
      "channel": 1,
      "note": 27,
      "start": 17.1861,
      "duration": 0.2667,
      "velocity": 104,
      "chip": "ym2612"
    },
    {
      "channel": 4,
      "note": 85,
      "start": 17.1887,
      "duration": 0.2137,
      "velocity": 111,
      "chip": "ym2612"
    },
    {
      "channel": 5,
      "note": 73,
      "start": 17.1899,
      "duration": 0.1305,
      "velocity": 92,
      "chip": "ym2612"
    },
    {
      "channel": 5,
      "note": 73,
      "start": 17.3205,
      "duration": 0.1363,
      "velocity": 92,
      "chip": "ym2612"
    },
    {
      "channel": 0,
      "note": 61,
      "start": 17.3343,
      "duration": 0.1173,
      "velocity": 101,
      "chip": "ym2612"
    },
    {
      "channel": 0,
      "note": 63,
      "start": 17.4516,
      "duration": 0.1162,
      "velocity": 101,
      "chip": "ym2612"
    },
    {
      "channel": 1,
      "note": 52,
      "start": 17.4528,
      "duration": 0.2499,
      "velocity": 104,
      "chip": "ym2612"
    },
    {
      "channel": 2,
      "note": 49,
      "start": 17.4541,
      "duration": 0.2488,
      "velocity": 104,
      "chip": "ym2612"
    },
    {
      "channel": 4,
      "note": 81,
      "start": 17.4556,
      "duration": 0.2135,
      "velocity": 111,
      "chip": "ym2612"
    },
    {
      "channel": 5,
      "note": 76,
      "start": 17.4568,
      "duration": 0.114,
      "velocity": 92,
      "chip": "ym2612"
    },
    {
      "channel": 0,
      "note": 63,
      "start": 17.5679,
      "duration": 0.1337,
      "velocity": 101,
      "chip": "ym2612"
    },
    {
      "channel": 5,
      "note": 76,
      "start": 17.5709,
      "duration": 0.1353,
      "velocity": 92,
      "chip": "ym2612"
    },
    {
      "channel": 0,
      "note": 64,
      "start": 17.7016,
      "duration": 0.2666,
      "velocity": 101,
      "chip": "ym2612"
    },
    {
      "channel": 1,
      "note": 33,
      "start": 17.7027,
      "duration": 0.2666,
      "velocity": 104,
      "chip": "ym2612"
    },
    {
      "channel": 5,
      "note": 75,
      "start": 17.7062,
      "duration": 1.0508,
      "velocity": 92,
      "chip": "ym2612"
    },
    {
      "channel": 0,
      "note": 63,
      "start": 17.9682,
      "duration": 0.1329,
      "velocity": 101,
      "chip": "ym2612"
    },
    {
      "channel": 1,
      "note": 51,
      "start": 17.9693,
      "duration": 0.2667,
      "velocity": 104,
      "chip": "ym2612"
    },
    {
      "channel": 2,
      "note": 48,
      "start": 17.9706,
      "duration": 0.2655,
      "velocity": 104,
      "chip": "ym2612"
    },
    {
      "channel": 4,
      "note": 87,
      "start": 17.9722,
      "duration": 0.2136,
      "velocity": 111,
      "chip": "ym2612"
    },
    {
      "channel": 0,
      "note": 63,
      "start": 18.1012,
      "duration": 0.1337,
      "velocity": 101,
      "chip": "ym2612"
    },
    {
      "channel": 0,
      "note": 61,
      "start": 18.2349,
      "duration": 0.1162,
      "velocity": 101,
      "chip": "ym2612"
    },
    {
      "channel": 1,
      "note": 27,
      "start": 18.2361,
      "duration": 0.2499,
      "velocity": 104,
      "chip": "ym2612"
    },
    {
      "channel": 4,
      "note": 84,
      "start": 18.2387,
      "duration": 0.2138,
      "velocity": 111,
      "chip": "ym2612"
    },
    {
      "channel": 0,
      "note": 61,
      "start": 18.3512,
      "duration": 0.1337,
      "velocity": 101,
      "chip": "ym2612"
    },
    {
      "channel": 0,
      "note": 60,
      "start": 18.4849,
      "duration": 0.1329,
      "velocity": 101,
      "chip": "ym2612"
    },
    {
      "channel": 1,
      "note": 52,
      "start": 18.4861,
      "duration": 0.267,
      "velocity": 104,
      "chip": "ym2612"
    },
    {
      "channel": 2,
      "note": 49,
      "start": 18.4873,
      "duration": 0.266,
      "velocity": 104,
      "chip": "ym2612"
    },
    {
      "channel": 4,
      "note": 85,
      "start": 18.4889,
      "duration": 0.2136,
      "velocity": 111,
      "chip": "ym2612"
    },
    {
      "channel": 0,
      "note": 60,
      "start": 18.6179,
      "duration": 0.1341,
      "velocity": 101,
      "chip": "ym2612"
    },
    {
      "channel": 0,
      "note": 57,
      "start": 18.752,
      "duration": 0.2663,
      "velocity": 101,
      "chip": "ym2612"
    },
    {
      "channel": 1,
      "note": 33,
      "start": 18.7531,
      "duration": 0.2663,
      "velocity": 104,
      "chip": "ym2612"
    },
    {
      "channel": 4,
      "note": 87,
      "start": 18.7562,
      "duration": 0.2129,
      "velocity": 111,
      "chip": "ym2612"
    },
    {
      "channel": 5,
      "note": 75,
      "start": 18.7571,
      "duration": 0.2663,
      "velocity": 92,
      "chip": "ym2612"
    },
    {
      "channel": 0,
      "note": 60,
      "start": 19.0183,
      "duration": 0.1162,
      "velocity": 101,
      "chip": "ym2612"
    },
    {
      "channel": 1,
      "note": 51,
      "start": 19.0195,
      "duration": 0.2499,
      "velocity": 104,
      "chip": "ym2612"
    },
    {
      "channel": 2,
      "note": 48,
      "start": 19.0207,
      "duration": 0.2488,
      "velocity": 104,
      "chip": "ym2612"
    },
    {
      "channel": 4,
      "note": 84,
      "start": 19.0223,
      "duration": 0.2135,
      "velocity": 111,
      "chip": "ym2612"
    },
    {
      "channel": 5,
      "note": 72,
      "start": 19.0235,
      "duration": 0.2497,
      "velocity": 92,
      "chip": "ym2612"
    },
    {
      "channel": 0,
      "note": 60,
      "start": 19.1345,
      "duration": 0.1337,
      "velocity": 101,
      "chip": "ym2612"
    },
    {
      "channel": 0,
      "note": 61,
      "start": 19.2683,
      "duration": 0.1329,
      "velocity": 101,
      "chip": "ym2612"
    },
    {
      "channel": 1,
      "note": 27,
      "start": 19.2694,
      "duration": 0.2667,
      "velocity": 104,
      "chip": "ym2612"
    },
    {
      "channel": 4,
      "note": 85,
      "start": 19.2721,
      "duration": 0.2137,
      "velocity": 111,
      "chip": "ym2612"
    },
    {
      "channel": 5,
      "note": 73,
      "start": 19.2732,
      "duration": 0.1309,
      "velocity": 92,
      "chip": "ym2612"
    },
    {
      "channel": 0,
      "note": 61,
      "start": 19.4013,
      "duration": 0.1337,
      "velocity": 101,
      "chip": "ym2612"
    },
    {
      "channel": 5,
      "note": 73,
      "start": 19.4042,
      "duration": 0.1359,
      "velocity": 92,
      "chip": "ym2612"
    },
    {
      "channel": 0,
      "note": 63,
      "start": 19.535,
      "duration": 0.1329,
      "velocity": 101,
      "chip": "ym2612"
    },
    {
      "channel": 1,
      "note": 52,
      "start": 19.5361,
      "duration": 0.2662,
      "velocity": 104,
      "chip": "ym2612"
    },
    {
      "channel": 2,
      "note": 49,
      "start": 19.5374,
      "duration": 0.2651,
      "velocity": 104,
      "chip": "ym2612"
    },
    {
      "channel": 4,
      "note": 81,
      "start": 19.539,
      "duration": 0.2135,
      "velocity": 111,
      "chip": "ym2612"
    },
    {
      "channel": 5,
      "note": 76,
      "start": 19.5401,
      "duration": 0.1307,
      "velocity": 92,
      "chip": "ym2612"
    },
    {
      "channel": 0,
      "note": 63,
      "start": 19.6679,
      "duration": 0.1326,
      "velocity": 101,
      "chip": "ym2612"
    },
    {
      "channel": 5,
      "note": 76,
      "start": 19.6709,
      "duration": 0.1352,
      "velocity": 92,
      "chip": "ym2612"
    },
    {
      "channel": 1,
      "note": 33,
      "start": 19.8024,
      "duration": 0.2502,
      "velocity": 104,
      "chip": "ym2612"
    },
    {
      "channel": 4,
      "note": 87,
      "start": 19.8051,
      "duration": 0.214,
      "velocity": 111,
      "chip": "ym2612"
    },
    {
      "channel": 5,
      "note": 75,
      "start": 19.8062,
      "duration": 0.5169,
      "velocity": 92,
      "chip": "ym2612"
    },
    {
      "channel": 0,
      "note": 60,
      "start": 20.0516,
      "duration": 0.2666,
      "velocity": 101,
      "chip": "ym2612"
    },
    {
      "channel": 1,
      "note": 51,
      "start": 20.0527,
      "duration": 0.2666,
      "velocity": 104,
      "chip": "ym2612"
    },
    {
      "channel": 2,
      "note": 48,
      "start": 20.0539,
      "duration": 0.2656,
      "velocity": 104,
      "chip": "ym2612"
    },
    {
      "channel": 4,
      "note": 84,
      "start": 20.0556,
      "duration": 0.2136,
      "velocity": 111,
      "chip": "ym2612"
    },
    {
      "channel": 0,
      "note": 61,
      "start": 20.3183,
      "duration": 0.1329,
      "velocity": 101,
      "chip": "ym2612"
    },
    {
      "channel": 1,
      "note": 27,
      "start": 20.3194,
      "duration": 0.2667,
      "velocity": 104,
      "chip": "ym2612"
    },
    {
      "channel": 4,
      "note": 85,
      "start": 20.3221,
      "duration": 0.2137,
      "velocity": 111,
      "chip": "ym2612"
    },
    {
      "channel": 5,
      "note": 76,
      "start": 20.3232,
      "duration": 0.131,
      "velocity": 92,
      "chip": "ym2612"
    },
    {
      "channel": 0,
      "note": 61,
      "start": 20.4513,
      "duration": 0.1337,
      "velocity": 101,
      "chip": "ym2612"
    },
    {
      "channel": 5,
      "note": 76,
      "start": 20.4542,
      "duration": 0.1358,
      "velocity": 92,
      "chip": "ym2612"
    },
    {
      "channel": 0,
      "note": 55,
      "start": 20.585,
      "duration": 0.1162,
      "velocity": 101,
      "chip": "ym2612"
    },
    {
      "channel": 1,
      "note": 52,
      "start": 20.5861,
      "duration": 0.2505,
      "velocity": 104,
      "chip": "ym2612"
    },
    {
      "channel": 2,
      "note": 49,
      "start": 20.5873,
      "duration": 0.2494,
      "velocity": 104,
      "chip": "ym2612"
    },
    {
      "channel": 4,
      "note": 81,
      "start": 20.589,
      "duration": 0.2135,
      "velocity": 111,
      "chip": "ym2612"
    },
    {
      "channel": 5,
      "note": 81,
      "start": 20.5901,
      "duration": 0.1141,
      "velocity": 92,
      "chip": "ym2612"
    },
    {
      "channel": 0,
      "note": 55,
      "start": 20.7013,
      "duration": 0.1342,
      "velocity": 101,
      "chip": "ym2612"
    },
    {
      "channel": 5,
      "note": 81,
      "start": 20.7042,
      "duration": 0.1369,
      "velocity": 92,
      "chip": "ym2612"
    },
    {
      "channel": 0,
      "note": 57,
      "start": 20.8355,
      "duration": 0.2661,
      "velocity": 101,
      "chip": "ym2612"
    },
    {
      "channel": 1,
      "note": 33,
      "start": 20.8366,
      "duration": 0.266,
      "velocity": 104,
      "chip": "ym2612"
    },
    {
      "channel": 3,
      "note": 79,
      "start": 20.8388,
      "duration": 0.1809,
      "velocity": 95,
      "chip": "ym2612"
    },
    {
      "channel": 4,
      "note": 87,
      "start": 20.84,
      "duration": 0.2125,
      "velocity": 111,
      "chip": "ym2612"
    },
    {
      "channel": 5,
      "note": 79,
      "start": 20.8412,
      "duration": 3.6657,
      "velocity": 92,
      "chip": "ym2612"
    },
    {
      "channel": 3,
      "note": 78,
      "start": 21.0197,
      "duration": 0.1667,
      "velocity": 95,
      "chip": "ym2612"
    },
    {
      "channel": 0,
      "note": 60,
      "start": 21.1016,
      "duration": 0.1329,
      "velocity": 101,
      "chip": "ym2612"
    },
    {
      "channel": 1,
      "note": 51,
      "start": 21.1027,
      "duration": 0.2667,
      "velocity": 104,
      "chip": "ym2612"
    },
    {
      "channel": 2,
      "note": 48,
      "start": 21.104,
      "duration": 0.2656,
      "velocity": 104,
      "chip": "ym2612"
    },
    {
      "channel": 4,
      "note": 84,
      "start": 21.1056,
      "duration": 0.2136,
      "velocity": 111,
      "chip": "ym2612"
    },
    {
      "channel": 3,
      "note": 77,
      "start": 21.1864,
      "duration": 0.1851,
      "velocity": 95,
      "chip": "ym2612"
    },
    {
      "channel": 0,
      "note": 60,
      "start": 21.2345,
      "duration": 0.1337,
      "velocity": 101,
      "chip": "ym2612"
    },
    {
      "channel": 0,
      "note": 61,
      "start": 21.3683,
      "duration": 0.1162,
      "velocity": 101,
      "chip": "ym2612"
    },
    {
      "channel": 1,
      "note": 27,
      "start": 21.3695,
      "duration": 0.2499,
      "velocity": 104,
      "chip": "ym2612"
    },
    {
      "channel": 3,
      "note": 76,
      "start": 21.3716,
      "duration": 0.1648,
      "velocity": 95,
      "chip": "ym2612"
    },
    {
      "channel": 4,
      "note": 85,
      "start": 21.3727,
      "duration": 0.2131,
      "velocity": 111,
      "chip": "ym2612"
    },
    {
      "channel": 0,
      "note": 61,
      "start": 21.4845,
      "duration": 0.1337,
      "velocity": 101,
      "chip": "ym2612"
    },
    {
      "channel": 3,
      "note": 77,
      "start": 21.5364,
      "duration": 0.1833,
      "velocity": 95,
      "chip": "ym2612"
    },
    {
      "channel": 0,
      "note": 63,
      "start": 21.6183,
      "duration": 0.1493,
      "velocity": 101,
      "chip": "ym2612"
    },
    {
      "channel": 1,
      "note": 52,
      "start": 21.6194,
      "duration": 0.2666,
      "velocity": 104,
      "chip": "ym2612"
    },
    {
      "channel": 2,
      "note": 49,
      "start": 21.6207,
      "duration": 0.2655,
      "velocity": 104,
      "chip": "ym2612"
    },
    {
      "channel": 4,
      "note": 81,
      "start": 21.6222,
      "duration": 0.2136,
      "velocity": 111,
      "chip": "ym2612"
    },
    {
      "channel": 3,
      "note": 78,
      "start": 21.7198,
      "duration": 0.1684,
      "velocity": 95,
      "chip": "ym2612"
    },
    {
      "channel": 0,
      "note": 63,
      "start": 21.7676,
      "duration": 0.1173,
      "velocity": 101,
      "chip": "ym2612"
    },
    {
      "channel": 0,
      "note": 64,
      "start": 21.8849,
      "duration": 0.2666,
      "velocity": 101,
      "chip": "ym2612"
    },
    {
      "channel": 1,
      "note": 33,
      "start": 21.8861,
      "duration": 0.2666,
      "velocity": 104,
      "chip": "ym2612"
    },
    {
      "channel": 3,
      "note": 79,
      "start": 21.8882,
      "duration": 0.1647,
      "velocity": 95,
      "chip": "ym2612"
    },
    {
      "channel": 3,
      "note": 78,
      "start": 22.053,
      "duration": 0.1833,
      "velocity": 95,
      "chip": "ym2612"
    },
    {
      "channel": 0,
      "note": 63,
      "start": 22.1516,
      "duration": 0.1162,
      "velocity": 101,
      "chip": "ym2612"
    },
    {
      "channel": 1,
      "note": 51,
      "start": 22.1527,
      "duration": 0.2494,
      "velocity": 104,
      "chip": "ym2612"
    },
    {
      "channel": 2,
      "note": 48,
      "start": 22.1539,
      "duration": 0.2483,
      "velocity": 104,
      "chip": "ym2612"
    },
    {
      "channel": 4,
      "note": 87,
      "start": 22.1556,
      "duration": 0.2136,
      "velocity": 111,
      "chip": "ym2612"
    },
    {
      "channel": 3,
      "note": 77,
      "start": 22.2364,
      "duration": 0.1678,
      "velocity": 95,
      "chip": "ym2612"
    },
    {
      "channel": 0,
      "note": 63,
      "start": 22.2679,
      "duration": 0.1499,
      "velocity": 101,
      "chip": "ym2612"
    },
    {
      "channel": 1,
      "note": 27,
      "start": 22.4022,
      "duration": 0.2672,
      "velocity": 104,
      "chip": "ym2612"
    },
    {
      "channel": 3,
      "note": 76,
      "start": 22.4043,
      "duration": 0.181,
      "velocity": 95,
      "chip": "ym2612"
    },
    {
      "channel": 4,
      "note": 84,
      "start": 22.4054,
      "duration": 0.2137,
      "velocity": 111,
      "chip": "ym2612"
    },
    {
      "channel": 0,
      "note": 61,
      "start": 22.4179,
      "duration": 0.1166,
      "velocity": 101,
      "chip": "ym2612"
    },
    {
      "channel": 0,
      "note": 61,
      "start": 22.5345,
      "duration": 0.1337,
      "velocity": 101,
      "chip": "ym2612"
    },
    {
      "channel": 0,
      "note": 60,
      "start": 22.6683,
      "duration": 0.1329,
      "velocity": 101,
      "chip": "ym2612"
    },
    {
      "channel": 1,
      "note": 52,
      "start": 22.6694,
      "duration": 0.267,
      "velocity": 104,
      "chip": "ym2612"
    },
    {
      "channel": 2,
      "note": 49,
      "start": 22.6706,
      "duration": 0.266,
      "velocity": 104,
      "chip": "ym2612"
    },
    {
      "channel": 4,
      "note": 85,
      "start": 22.6722,
      "duration": 0.2136,
      "velocity": 111,
      "chip": "ym2612"
    },
    {
      "channel": 0,
      "note": 60,
      "start": 22.8012,
      "duration": 0.1341,
      "velocity": 101,
      "chip": "ym2612"
    },
    {
      "channel": 0,
      "note": 57,
      "start": 22.9353,
      "duration": 0.2496,
      "velocity": 101,
      "chip": "ym2612"
    },
    {
      "channel": 1,
      "note": 33,
      "start": 22.9364,
      "duration": 0.2495,
      "velocity": 104,
      "chip": "ym2612"
    },
    {
      "channel": 3,
      "note": 79,
      "start": 22.9386,
      "duration": 0.1644,
      "velocity": 95,
      "chip": "ym2612"
    },
    {
      "channel": 4,
      "note": 87,
      "start": 22.9398,
      "duration": 0.2127,
      "velocity": 111,
      "chip": "ym2612"
    },
    {
      "channel": 3,
      "note": 78,
      "start": 23.103,
      "duration": 0.1833,
      "velocity": 95,
      "chip": "ym2612"
    },
    {
      "channel": 0,
      "note": 60,
      "start": 23.1849,
      "duration": 0.1493,
      "velocity": 101,
      "chip": "ym2612"
    },
    {
      "channel": 1,
      "note": 51,
      "start": 23.1861,
      "duration": 0.2666,
      "velocity": 104,
      "chip": "ym2612"
    },
    {
      "channel": 2,
      "note": 48,
      "start": 23.1873,
      "duration": 0.2655,
      "velocity": 104,
      "chip": "ym2612"
    },
    {
      "channel": 4,
      "note": 84,
      "start": 23.1889,
      "duration": 0.2136,
      "velocity": 111,
      "chip": "ym2612"
    },
    {
      "channel": 3,
      "note": 77,
      "start": 23.2864,
      "duration": 0.1684,
      "velocity": 95,
      "chip": "ym2612"
    },
    {
      "channel": 0,
      "note": 60,
      "start": 23.3343,
      "duration": 0.1173,
      "velocity": 101,
      "chip": "ym2612"
    },
    {
      "channel": 0,
      "note": 61,
      "start": 23.4516,
      "duration": 0.1328,
      "velocity": 101,
      "chip": "ym2612"
    },
    {
      "channel": 1,
      "note": 27,
      "start": 23.4527,
      "duration": 0.2666,
      "velocity": 104,
      "chip": "ym2612"
    },
    {
      "channel": 3,
      "note": 76,
      "start": 23.4549,
      "duration": 0.1648,
      "velocity": 95,
      "chip": "ym2612"
    },
    {
      "channel": 4,
      "note": 85,
      "start": 23.456,
      "duration": 0.2131,
      "velocity": 111,
      "chip": "ym2612"
    },
    {
      "channel": 0,
      "note": 61,
      "start": 23.5845,
      "duration": 0.1337,
      "velocity": 101,
      "chip": "ym2612"
    },
    {
      "channel": 3,
      "note": 77,
      "start": 23.6198,
      "duration": 0.1833,
      "velocity": 95,
      "chip": "ym2612"
    },
    {
      "channel": 0,
      "note": 63,
      "start": 23.7183,
      "duration": 0.1329,
      "velocity": 101,
      "chip": "ym2612"
    },
    {
      "channel": 1,
      "note": 52,
      "start": 23.7194,
      "duration": 0.2496,
      "velocity": 104,
      "chip": "ym2612"
    },
    {
      "channel": 2,
      "note": 49,
      "start": 23.7207,
      "duration": 0.2485,
      "velocity": 104,
      "chip": "ym2612"
    },
    {
      "channel": 4,
      "note": 81,
      "start": 23.7222,
      "duration": 0.2136,
      "velocity": 111,
      "chip": "ym2612"
    },
    {
      "channel": 3,
      "note": 78,
      "start": 23.8031,
      "duration": 0.1681,
      "velocity": 95,
      "chip": "ym2612"
    },
    {
      "channel": 0,
      "note": 63,
      "start": 23.8512,
      "duration": 0.116,
      "velocity": 101,
      "chip": "ym2612"
    },
    {
      "channel": 1,
      "note": 33,
      "start": 23.9691,
      "duration": 0.2669,
      "velocity": 104,
      "chip": "ym2612"
    },
    {
      "channel": 3,
      "note": 79,
      "start": 23.9712,
      "duration": 0.1817,
      "velocity": 95,
      "chip": "ym2612"
    },
    {
      "channel": 4,
      "note": 87,
      "start": 23.9723,
      "duration": 0.2134,
      "velocity": 111,
      "chip": "ym2612"
    },
    {
      "channel": 3,
      "note": 78,
      "start": 24.153,
      "duration": 0.1667,
      "velocity": 95,
      "chip": "ym2612"
    },
    {
      "channel": 0,
      "note": 60,
      "start": 24.2349,
      "duration": 0.2667,
      "velocity": 101,
      "chip": "ym2612"
    },
    {
      "channel": 1,
      "note": 51,
      "start": 24.2361,
      "duration": 0.2667,
      "velocity": 104,
      "chip": "ym2612"
    },
    {
      "channel": 2,
      "note": 48,
      "start": 24.2373,
      "duration": 0.2656,
      "velocity": 104,
      "chip": "ym2612"
    },
    {
      "channel": 4,
      "note": 84,
      "start": 24.2389,
      "duration": 0.2136,
      "velocity": 111,
      "chip": "ym2612"
    },
    {
      "channel": 3,
      "note": 77,
      "start": 24.3198,
      "duration": 0.1851,
      "velocity": 95,
      "chip": "ym2612"
    },
    {
      "channel": 0,
      "note": 61,
      "start": 24.5016,
      "duration": 0.1328,
      "velocity": 101,
      "chip": "ym2612"
    },
    {
      "channel": 1,
      "note": 27,
      "start": 24.5028,
      "duration": 0.2499,
      "velocity": 104,
      "chip": "ym2612"
    },
    {
      "channel": 3,
      "note": 76,
      "start": 24.5049,
      "duration": 0.1637,
      "velocity": 95,
      "chip": "ym2612"
    },
    {
      "channel": 4,
      "note": 85,
      "start": 24.5061,
      "duration": 0.213,
      "velocity": 111,
      "chip": "ym2612"
    },
    {
      "channel": 5,
      "note": 79,
      "start": 24.5069,
      "duration": 0.2488,
      "velocity": 92,
      "chip": "ym2612"
    },
    {
      "channel": 0,
      "note": 61,
      "start": 24.6345,
      "duration": 0.1171,
      "velocity": 101,
      "chip": "ym2612"
    },
    {
      "channel": 0,
      "note": 55,
      "start": 24.7516,
      "duration": 0.1329,
      "velocity": 101,
      "chip": "ym2612"
    },
    {
      "channel": 1,
      "note": 52,
      "start": 24.7527,
      "duration": 0.2671,
      "velocity": 104,
      "chip": "ym2612"
    },
    {
      "channel": 2,
      "note": 49,
      "start": 24.754,
      "duration": 0.266,
      "velocity": 104,
      "chip": "ym2612"
    },
    {
      "channel": 4,
      "note": 81,
      "start": 24.7556,
      "duration": 0.2135,
      "velocity": 111,
      "chip": "ym2612"
    },
    {
      "channel": 0,
      "note": 55,
      "start": 24.8845,
      "duration": 0.1341,
      "velocity": 101,
      "chip": "ym2612"
    },
    {
      "channel": 0,
      "note": 62,
      "start": 25.0188,
      "duration": 0.1324,
      "velocity": 101,
      "chip": "ym2612"
    },
    {
      "channel": 1,
      "note": 26,
      "start": 25.0199,
      "duration": 0.266,
      "velocity": 104,
      "chip": "ym2612"
    },
    {
      "channel": 4,
      "note": 89,
      "start": 25.0229,
      "duration": 0.2128,
      "velocity": 111,
      "chip": "ym2612"
    },
    {
      "channel": 0,
      "note": 62,
      "start": 25.1512,
      "duration": 0.1335,
      "velocity": 101,
      "chip": "ym2612"
    },
    {
      "channel": 0,
      "note": 62,
      "start": 25.2848,
      "duration": 0.133,
      "velocity": 101,
      "chip": "ym2612"
    },
    {
      "channel": 1,
      "note": 44,
      "start": 25.2859,
      "duration": 0.25,
      "velocity": 104,
      "chip": "ym2612"
    },
    {
      "channel": 2,
      "note": 41,
      "start": 25.2871,
      "duration": 0.249,
      "velocity": 104,
      "chip": "ym2612"
    },
    {
      "channel": 4,
      "note": 93,
      "start": 25.2888,
      "duration": 0.2137,
      "velocity": 111,
      "chip": "ym2612"
    },
    {
      "channel": 5,
      "note": 77,
      "start": 25.2899,
      "duration": 0.25,
      "velocity": 92,
      "chip": "ym2612"
    },
    {
      "channel": 0,
      "note": 62,
      "start": 25.4179,
      "duration": 0.1171,
      "velocity": 101,
      "chip": "ym2612"
    },
    {
      "channel": 0,
      "note": 65,
      "start": 25.5349,
      "duration": 0.2667,
      "velocity": 101,
      "chip": "ym2612"
    },
    {
      "channel": 1,
      "note": 21,
      "start": 25.5361,
      "duration": 0.2667,
      "velocity": 104,
      "chip": "ym2612"
    },
    {
      "channel": 4,
      "note": 86,
      "start": 25.5387,
      "duration": 0.2137,
      "velocity": 111,
      "chip": "ym2612"
    },
    {
      "channel": 5,
      "note": 78,
      "start": 25.5399,
      "duration": 0.1305,
      "velocity": 92,
      "chip": "ym2612"
    },
    {
      "channel": 5,
      "note": 78,
      "start": 25.6704,
      "duration": 0.1363,
      "velocity": 92,
      "chip": "ym2612"
    },
    {
      "channel": 0,
      "note": 66,
      "start": 25.8016,
      "duration": 0.2666,
      "velocity": 101,
      "chip": "ym2612"
    },
    {
      "channel": 1,
      "note": 45,
      "start": 25.8028,
      "duration": 0.2665,
      "velocity": 104,
      "chip": "ym2612"
    },
    {
      "channel": 2,
      "note": 42,
      "start": 25.8041,
      "duration": 0.2655,
      "velocity": 104,
      "chip": "ym2612"
    },
    {
      "channel": 4,
      "note": 90,
      "start": 25.8056,
      "duration": 0.2135,
      "velocity": 111,
      "chip": "ym2612"
    },
    {
      "channel": 5,
      "note": 80,
      "start": 25.8068,
      "duration": 0.1302,
      "velocity": 92,
      "chip": "ym2612"
    },
    {
      "channel": 5,
      "note": 80,
      "start": 25.9371,
      "duration": 0.1358,
      "velocity": 92,
      "chip": "ym2612"
    },
    {
      "channel": 0,
      "note": 62,
      "start": 26.0683,
      "duration": 0.1329,
      "velocity": 101,
      "chip": "ym2612"
    },
    {
      "channel": 1,
      "note": 26,
      "start": 26.0694,
      "duration": 0.2497,
      "velocity": 104,
      "chip": "ym2612"
    },
    {
      "channel": 5,
      "note": 83,
      "start": 26.0728,
      "duration": 0.517,
      "velocity": 92,
      "chip": "ym2612"
    },
    {
      "channel": 0,
      "note": 62,
      "start": 26.2012,
      "duration": 0.1167,
      "velocity": 101,
      "chip": "ym2612"
    },
    {
      "channel": 0,
      "note": 62,
      "start": 26.318,
      "duration": 0.1332,
      "velocity": 101,
      "chip": "ym2612"
    },
    {
      "channel": 1,
      "note": 44,
      "start": 26.3191,
      "duration": 0.2668,
      "velocity": 104,
      "chip": "ym2612"
    },
    {
      "channel": 2,
      "note": 41,
      "start": 26.3204,
      "duration": 0.2658,
      "velocity": 104,
      "chip": "ym2612"
    },
    {
      "channel": 4,
      "note": 93,
      "start": 26.322,
      "duration": 0.2138,
      "velocity": 111,
      "chip": "ym2612"
    },
    {
      "channel": 0,
      "note": 62,
      "start": 26.4512,
      "duration": 0.1337,
      "velocity": 101,
      "chip": "ym2612"
    },
    {
      "channel": 0,
      "note": 65,
      "start": 26.5849,
      "duration": 0.2667,
      "velocity": 101,
      "chip": "ym2612"
    },
    {
      "channel": 1,
      "note": 21,
      "start": 26.5861,
      "duration": 0.2666,
      "velocity": 104,
      "chip": "ym2612"
    },
    {
      "channel": 4,
      "note": 89,
      "start": 26.5887,
      "duration": 0.2137,
      "velocity": 111,
      "chip": "ym2612"
    },
    {
      "channel": 5,
      "note": 80,
      "start": 26.5899,
      "duration": 0.1305,
      "velocity": 92,
      "chip": "ym2612"
    },
    {
      "channel": 5,
      "note": 80,
      "start": 26.7204,
      "duration": 0.1363,
      "velocity": 92,
      "chip": "ym2612"
    },
    {
      "channel": 0,
      "note": 66,
      "start": 26.8516,
      "duration": 0.2504,
      "velocity": 101,
      "chip": "ym2612"
    },
    {
      "channel": 1,
      "note": 45,
      "start": 26.8527,
      "duration": 0.2503,
      "velocity": 104,
      "chip": "ym2612"
    },
    {
      "channel": 2,
      "note": 42,
      "start": 26.854,
      "duration": 0.2493,
      "velocity": 104,
      "chip": "ym2612"
    },
    {
      "channel": 4,
      "note": 90,
      "start": 26.8556,
      "duration": 0.2136,
      "velocity": 111,
      "chip": "ym2612"
    },
    {
      "channel": 5,
      "note": 78,
      "start": 26.8567,
      "duration": 0.1303,
      "velocity": 92,
      "chip": "ym2612"
    },
    {
      "channel": 5,
      "note": 78,
      "start": 26.9871,
      "duration": 0.1192,
      "velocity": 92,
      "chip": "ym2612"
    },
    {
      "channel": 0,
      "note": 62,
      "start": 27.102,
      "duration": 0.1325,
      "velocity": 101,
      "chip": "ym2612"
    },
    {
      "channel": 1,
      "note": 26,
      "start": 27.1031,
      "duration": 0.266,
      "velocity": 104,
      "chip": "ym2612"
    },
    {
      "channel": 4,
      "note": 89,
      "start": 27.1062,
      "duration": 0.2295,
      "velocity": 111,
      "chip": "ym2612"
    },
    {
      "channel": 0,
      "note": 62,
      "start": 27.2345,
      "duration": 0.1334,
      "velocity": 101,
      "chip": "ym2612"
    },
    {
      "channel": 0,
      "note": 62,
      "start": 27.368,
      "duration": 0.1331,
      "velocity": 101,
      "chip": "ym2612"
    },
    {
      "channel": 1,
      "note": 44,
      "start": 27.3692,
      "duration": 0.2668,
      "velocity": 104,
      "chip": "ym2612"
    },
    {
      "channel": 2,
      "note": 41,
      "start": 27.3704,
      "duration": 0.2658,
      "velocity": 104,
      "chip": "ym2612"
    },
    {
      "channel": 4,
      "note": 93,
      "start": 27.3721,
      "duration": 0.2137,
      "velocity": 111,
      "chip": "ym2612"
    },
    {
      "channel": 5,
      "note": 77,
      "start": 27.3732,
      "duration": 0.2667,
      "velocity": 92,
      "chip": "ym2612"
    },
    {
      "channel": 0,
      "note": 62,
      "start": 27.5012,
      "duration": 0.1337,
      "velocity": 101,
      "chip": "ym2612"
    },
    {
      "channel": 0,
      "note": 65,
      "start": 27.6349,
      "duration": 0.25,
      "velocity": 101,
      "chip": "ym2612"
    },
    {
      "channel": 1,
      "note": 21,
      "start": 27.6361,
      "duration": 0.2499,
      "velocity": 104,
      "chip": "ym2612"
    },
    {
      "channel": 4,
      "note": 86,
      "start": 27.6387,
      "duration": 0.2137,
      "velocity": 111,
      "chip": "ym2612"
    },
    {
      "channel": 5,
      "note": 78,
      "start": 27.6399,
      "duration": 0.1305,
      "velocity": 92,
      "chip": "ym2612"
    },
    {
      "channel": 5,
      "note": 78,
      "start": 27.7704,
      "duration": 0.1196,
      "velocity": 92,
      "chip": "ym2612"
    },
    {
      "channel": 0,
      "note": 66,
      "start": 27.8849,
      "duration": 0.2667,
      "velocity": 101,
      "chip": "ym2612"
    },
    {
      "channel": 1,
      "note": 45,
      "start": 27.8861,
      "duration": 0.2666,
      "velocity": 104,
      "chip": "ym2612"
    },
    {
      "channel": 2,
      "note": 42,
      "start": 27.8873,
      "duration": 0.2655,
      "velocity": 104,
      "chip": "ym2612"
    },
    {
      "channel": 4,
      "note": 90,
      "start": 27.8889,
      "duration": 0.2302,
      "velocity": 111,
      "chip": "ym2612"
    },
    {
      "channel": 5,
      "note": 80,
      "start": 27.8901,
      "duration": 0.1303,
      "velocity": 92,
      "chip": "ym2612"
    },
    {
      "channel": 5,
      "note": 80,
      "start": 28.0204,
      "duration": 0.1361,
      "velocity": 92,
      "chip": "ym2612"
    },
    {
      "channel": 0,
      "note": 62,
      "start": 28.1516,
      "duration": 0.1329,
      "velocity": 101,
      "chip": "ym2612"
    },
    {
      "channel": 1,
      "note": 26,
      "start": 28.1527,
      "duration": 0.2664,
      "velocity": 104,
      "chip": "ym2612"
    },
    {
      "channel": 4,
      "note": 89,
      "start": 28.1554,
      "duration": 0.2137,
      "velocity": 111,
      "chip": "ym2612"
    },
    {
      "channel": 5,
      "note": 74,
      "start": 28.1565,
      "duration": 1.0502,
      "velocity": 92,
      "chip": "ym2612"
    },
    {
      "channel": 0,
      "note": 62,
      "start": 28.2845,
      "duration": 0.1335,
      "velocity": 101,
      "chip": "ym2612"
    },
    {
      "channel": 0,
      "note": 62,
      "start": 28.418,
      "duration": 0.1332,
      "velocity": 101,
      "chip": "ym2612"
    },
    {
      "channel": 1,
      "note": 44,
      "start": 28.4192,
      "duration": 0.2501,
      "velocity": 104,
      "chip": "ym2612"
    },
    {
      "channel": 2,
      "note": 41,
      "start": 28.4205,
      "duration": 0.249,
      "velocity": 104,
      "chip": "ym2612"
    },
    {
      "channel": 3,
      "note": 77,
      "start": 28.4216,
      "duration": 0.2499,
      "velocity": 95,
      "chip": "ym2612"
    },
    {
      "channel": 4,
      "note": 93,
      "start": 28.4227,
      "duration": 0.2131,
      "velocity": 111,
      "chip": "ym2612"
    },
    {
      "channel": 0,
      "note": 62,
      "start": 28.5512,
      "duration": 0.1171,
      "velocity": 101,
      "chip": "ym2612"
    },
    {
      "channel": 0,
      "note": 65,
      "start": 28.6683,
      "duration": 0.2829,
      "velocity": 101,
      "chip": "ym2612"
    },
    {
      "channel": 1,
      "note": 21,
      "start": 28.6694,
      "duration": 0.266,
      "velocity": 104,
      "chip": "ym2612"
    },
    {
      "channel": 3,
      "note": 78,
      "start": 28.6716,
      "duration": 0.2662,
      "velocity": 95,
      "chip": "ym2612"
    },
    {
      "channel": 4,
      "note": 86,
      "start": 28.6727,
      "duration": 0.2298,
      "velocity": 111,
      "chip": "ym2612"
    },
    {
      "channel": 1,
      "note": 45,
      "start": 28.9355,
      "duration": 0.267,
      "velocity": 104,
      "chip": "ym2612"
    },
    {
      "channel": 2,
      "note": 42,
      "start": 28.9367,
      "duration": 0.266,
      "velocity": 104,
      "chip": "ym2612"
    },
    {
      "channel": 3,
      "note": 80,
      "start": 28.9378,
      "duration": 0.2668,
      "velocity": 95,
      "chip": "ym2612"
    },
    {
      "channel": 4,
      "note": 90,
      "start": 28.9389,
      "duration": 0.2136,
      "velocity": 111,
      "chip": "ym2612"
    },
    {
      "channel": 0,
      "note": 66,
      "start": 28.9512,
      "duration": 0.2666,
      "velocity": 101,
      "chip": "ym2612"
    },
    {
      "channel": 1,
      "note": 28,
      "start": 29.2025,
      "duration": 0.2667,
      "velocity": 104,
      "chip": "ym2612"
    },
    {
      "channel": 3,
      "note": 83,
      "start": 29.2047,
      "duration": 0.0813,
      "velocity": 95,
      "chip": "ym2612"
    },
    {
      "channel": 4,
      "note": 92,
      "start": 29.2059,
      "duration": 0.2132,
      "velocity": 111,
      "chip": "ym2612"
    },
    {
      "channel": 5,
      "note": 74,
      "start": 29.2068,
      "duration": 0.2668,
      "velocity": 92,
      "chip": "ym2612"
    },
    {
      "channel": 0,
      "note": 64,
      "start": 29.2179,
      "duration": 0.1166,
      "velocity": 101,
      "chip": "ym2612"
    },
    {
      "channel": 3,
      "note": 83,
      "start": 29.2861,
      "duration": 0.0834,
      "velocity": 95,
      "chip": "ym2612"
    },
    {
      "channel": 0,
      "note": 64,
      "start": 29.3345,
      "duration": 0.1335,
      "velocity": 101,
      "chip": "ym2612"
    },
    {
      "channel": 3,
      "note": 83,
      "start": 29.3695,
      "duration": 0.1018,
      "velocity": 95,
      "chip": "ym2612"
    },
    {
      "channel": 0,
      "note": 64,
      "start": 29.4681,
      "duration": 0.1164,
      "velocity": 101,
      "chip": "ym2612"
    },
    {
      "channel": 1,
      "note": 47,
      "start": 29.4693,
      "duration": 0.2501,
      "velocity": 104,
      "chip": "ym2612"
    },
    {
      "channel": 2,
      "note": 44,
      "start": 29.4705,
      "duration": 0.249,
      "velocity": 104,
      "chip": "ym2612"
    },
    {
      "channel": 3,
      "note": 83,
      "start": 29.4714,
      "duration": 0.0814,
      "velocity": 95,
      "chip": "ym2612"
    },
    {
      "channel": 4,
      "note": 93,
      "start": 29.4725,
      "duration": 0.2133,
      "velocity": 111,
      "chip": "ym2612"
    },
    {
      "channel": 5,
      "note": 84,
      "start": 29.4737,
      "duration": 0.2499,
      "velocity": 92,
      "chip": "ym2612"
    },
    {
      "channel": 3,
      "note": 83,
      "start": 29.5529,
      "duration": 0.0831,
      "velocity": 95,
      "chip": "ym2612"
    },
    {
      "channel": 0,
      "note": 64,
      "start": 29.5845,
      "duration": 0.1338,
      "velocity": 101,
      "chip": "ym2612"
    },
    {
      "channel": 3,
      "note": 83,
      "start": 29.6361,
      "duration": 0.0853,
      "velocity": 95,
      "chip": "ym2612"
    },
    {
      "channel": 0,
      "note": 68,
      "start": 29.7183,
      "duration": 0.2667,
      "velocity": 101,
      "chip": "ym2612"
    },
    {
      "channel": 1,
      "note": 24,
      "start": 29.7195,
      "duration": 0.2666,
      "velocity": 104,
      "chip": "ym2612"
    },
    {
      "channel": 3,
      "note": 83,
      "start": 29.7214,
      "duration": 0.0813,
      "velocity": 95,
      "chip": "ym2612"
    },
    {
      "channel": 4,
      "note": 96,
      "start": 29.7225,
      "duration": 0.2133,
      "velocity": 111,
      "chip": "ym2612"
    },
    {
      "channel": 5,
      "note": 83,
      "start": 29.7236,
      "duration": 0.1301,
      "velocity": 92,
      "chip": "ym2612"
    },
    {
      "channel": 3,
      "note": 83,
      "start": 29.8027,
      "duration": 0.1001,
      "velocity": 95,
      "chip": "ym2612"
    },
    {
      "channel": 5,
      "note": 83,
      "start": 29.8537,
      "duration": 0.1367,
      "velocity": 92,
      "chip": "ym2612"
    },
    {
      "channel": 3,
      "note": 83,
      "start": 29.9029,
      "duration": 0.0854,
      "velocity": 95,
      "chip": "ym2612"
    },
    {
      "channel": 0,
      "note": 69,
      "start": 29.985,
      "duration": 0.2667,
      "velocity": 101,
      "chip": "ym2612"
    },
    {
      "channel": 1,
      "note": 48,
      "start": 29.9861,
      "duration": 0.2666,
      "velocity": 104,
      "chip": "ym2612"
    },
    {
      "channel": 2,
      "note": 45,
      "start": 29.9874,
      "duration": 0.2655,
      "velocity": 104,
      "chip": "ym2612"
    },
    {
      "channel": 3,
      "note": 83,
      "start": 29.9883,
      "duration": 0.0812,
      "velocity": 95,
      "chip": "ym2612"
    },
    {
      "channel": 4,
      "note": 95,
      "start": 29.9894,
      "duration": 0.2131,
      "velocity": 111,
      "chip": "ym2612"
    },
    {
      "channel": 5,
      "note": 84,
      "start": 29.9905,
      "duration": 0.2663,
      "velocity": 92,
      "chip": "ym2612"
    },
    {
      "channel": 3,
      "note": 83,
      "start": 30.0695,
      "duration": 0.0831,
      "velocity": 95,
      "chip": "ym2612"
    },
    {
      "channel": 3,
      "note": 83,
      "start": 30.1527,
      "duration": 0.102,
      "velocity": 95,
      "chip": "ym2612"
    },
    {
      "channel": 0,
      "note": 72,
      "start": 30.2516,
      "duration": 0.1162,
      "velocity": 101,
      "chip": "ym2612"
    },
    {
      "channel": 1,
      "note": 28,
      "start": 30.2528,
      "duration": 0.2498,
      "velocity": 104,
      "chip": "ym2612"
    },
    {
      "channel": 3,
      "note": 83,
      "start": 30.2547,
      "duration": 0.0813,
      "velocity": 95,
      "chip": "ym2612"
    },
    {
      "channel": 4,
      "note": 92,
      "start": 30.2559,
      "duration": 0.2133,
      "velocity": 111,
      "chip": "ym2612"
    },
    {
      "channel": 5,
      "note": 83,
      "start": 30.2569,
      "duration": 0.1139,
      "velocity": 92,
      "chip": "ym2612"
    },
    {
      "channel": 3,
      "note": 83,
      "start": 30.3361,
      "duration": 0.0834,
      "velocity": 95,
      "chip": "ym2612"
    },
    {
      "channel": 0,
      "note": 72,
      "start": 30.3679,
      "duration": 0.1335,
      "velocity": 101,
      "chip": "ym2612"
    },
    {
      "channel": 5,
      "note": 83,
      "start": 30.3709,
      "duration": 0.1361,
      "velocity": 92,
      "chip": "ym2612"
    },
    {
      "channel": 3,
      "note": 83,
      "start": 30.4195,
      "duration": 0.0852,
      "velocity": 95,
      "chip": "ym2612"
    },
    {
      "channel": 0,
      "note": 72,
      "start": 30.5015,
      "duration": 0.1331,
      "velocity": 101,
      "chip": "ym2612"
    },
    {
      "channel": 1,
      "note": 47,
      "start": 30.5026,
      "duration": 0.2668,
      "velocity": 104,
      "chip": "ym2612"
    },
    {
      "channel": 2,
      "note": 44,
      "start": 30.5039,
      "duration": 0.2657,
      "velocity": 104,
      "chip": "ym2612"
    },
    {
      "channel": 3,
      "note": 83,
      "start": 30.5048,
      "duration": 0.0814,
      "velocity": 95,
      "chip": "ym2612"
    },
    {
      "channel": 4,
      "note": 93,
      "start": 30.5059,
      "duration": 0.2133,
      "velocity": 111,
      "chip": "ym2612"
    },
    {
      "channel": 5,
      "note": 84,
      "start": 30.507,
      "duration": 0.2665,
      "velocity": 92,
      "chip": "ym2612"
    },
    {
      "channel": 3,
      "note": 83,
      "start": 30.5862,
      "duration": 0.0998,
      "velocity": 95,
      "chip": "ym2612"
    },
    {
      "channel": 0,
      "note": 72,
      "start": 30.6345,
      "duration": 0.1337,
      "velocity": 101,
      "chip": "ym2612"
    },
    {
      "channel": 3,
      "note": 83,
      "start": 30.6861,
      "duration": 0.0845,
      "velocity": 95,
      "chip": "ym2612"
    },
    {
      "channel": 0,
      "note": 71,
      "start": 30.7683,
      "duration": 0.2666,
      "velocity": 101,
      "chip": "ym2612"
    },
    {
      "channel": 1,
      "note": 24,
      "start": 30.7695,
      "duration": 0.2665,
      "velocity": 104,
      "chip": "ym2612"
    },
    {
      "channel": 4,
      "note": 96,
      "start": 30.7724,
      "duration": 0.2134,
      "velocity": 111,
      "chip": "ym2612"
    },
    {
      "channel": 5,
      "note": 83,
      "start": 30.7735,
      "duration": 0.1302,
      "velocity": 92,
      "chip": "ym2612"
    },
    {
      "channel": 5,
      "note": 83,
      "start": 30.9037,
      "duration": 0.1363,
      "velocity": 92,
      "chip": "ym2612"
    },
    {
      "channel": 0,
      "note": 69,
      "start": 31.0349,
      "duration": 0.25,
      "velocity": 101,
      "chip": "ym2612"
    },
    {
      "channel": 1,
      "note": 48,
      "start": 31.0361,
      "duration": 0.25,
      "velocity": 104,
      "chip": "ym2612"
    },
    {
      "channel": 2,
      "note": 45,
      "start": 31.0373,
      "duration": 0.2489,
      "velocity": 104,
      "chip": "ym2612"
    },
    {
      "channel": 4,
      "note": 95,
      "start": 31.0389,
      "duration": 0.2136,
      "velocity": 111,
      "chip": "ym2612"
    },
    {
      "channel": 5,
      "note": 84,
      "start": 31.0401,
      "duration": 0.2502,
      "velocity": 92,
      "chip": "ym2612"
    },
    {
      "channel": 0,
      "note": 64,
      "start": 31.285,
      "duration": 0.1329,
      "velocity": 101,
      "chip": "ym2612"
    },
    {
      "channel": 1,
      "note": 28,
      "start": 31.2861,
      "duration": 0.266,
      "velocity": 104,
      "chip": "ym2612"
    },
    {
      "channel": 4,
      "note": 92,
      "start": 31.2892,
      "duration": 0.2133,
      "velocity": 111,
      "chip": "ym2612"
    },
    {
      "channel": 5,
      "note": 83,
      "start": 31.2903,
      "duration": 0.1305,
      "velocity": 92,
      "chip": "ym2612"
    },
    {
      "channel": 0,
      "note": 64,
      "start": 31.4179,
      "duration": 0.1496,
      "velocity": 101,
      "chip": "ym2612"
    },
    {
      "channel": 5,
      "note": 83,
      "start": 31.4209,
      "duration": 0.1352,
      "velocity": 92,
      "chip": "ym2612"
    },
    {
      "channel": 1,
      "note": 47,
      "start": 31.5522,
      "duration": 0.2672,
      "velocity": 104,
      "chip": "ym2612"
    },
    {
      "channel": 2,
      "note": 44,
      "start": 31.5534,
      "duration": 0.2661,
      "velocity": 104,
      "chip": "ym2612"
    },
    {
      "channel": 4,
      "note": 93,
      "start": 31.555,
      "duration": 0.2141,
      "velocity": 111,
      "chip": "ym2612"
    },
    {
      "channel": 5,
      "note": 84,
      "start": 31.5562,
      "duration": 0.267,
      "velocity": 92,
      "chip": "ym2612"
    },
    {
      "channel": 0,
      "note": 64,
      "start": 31.5676,
      "duration": 0.1168,
      "velocity": 101,
      "chip": "ym2612"
    },
    {
      "channel": 0,
      "note": 64,
      "start": 31.6845,
      "duration": 0.1337,
      "velocity": 101,
      "chip": "ym2612"
    },
    {
      "channel": 0,
      "note": 68,
      "start": 31.8183,
      "duration": 0.25,
      "velocity": 101,
      "chip": "ym2612"
    },
    {
      "channel": 1,
      "note": 24,
      "start": 31.8194,
      "duration": 0.2499,
      "velocity": 104,
      "chip": "ym2612"
    },
    {
      "channel": 4,
      "note": 96,
      "start": 31.8221,
      "duration": 0.2137,
      "velocity": 111,
      "chip": "ym2612"
    },
    {
      "channel": 5,
      "note": 83,
      "start": 31.8232,
      "duration": 0.1138,
      "velocity": 92,
      "chip": "ym2612"
    },
    {
      "channel": 5,
      "note": 83,
      "start": 31.9371,
      "duration": 0.1363,
      "velocity": 92,
      "chip": "ym2612"
    },
    {
      "channel": 0,
      "note": 69,
      "start": 32.0683,
      "duration": 0.2667,
      "velocity": 101,
      "chip": "ym2612"
    },
    {
      "channel": 1,
      "note": 48,
      "start": 32.0694,
      "duration": 0.2666,
      "velocity": 104,
      "chip": "ym2612"
    },
    {
      "channel": 2,
      "note": 45,
      "start": 32.0707,
      "duration": 0.2666,
      "velocity": 104,
      "chip": "ym2612"
    },
    {
      "channel": 4,
      "note": 95,
      "start": 32.0722,
      "duration": 0.2136,
      "velocity": 111,
      "chip": "ym2612"
    },
    {
      "channel": 5,
      "note": 84,
      "start": 32.0734,
      "duration": 0.2667,
      "velocity": 92,
      "chip": "ym2612"
    },
    {
      "channel": 0,
      "note": 64,
      "start": 32.3349,
      "duration": 0.1493,
      "velocity": 101,
      "chip": "ym2612"
    },
    {
      "channel": 1,
      "note": 47,
      "start": 32.3361,
      "duration": 0.2654,
      "velocity": 104,
      "chip": "ym2612"
    },
    {
      "channel": 2,
      "note": 44,
      "start": 32.3373,
      "duration": 0.2649,
      "velocity": 104,
      "chip": "ym2612"
    },
    {
      "channel": 4,
      "note": 92,
      "start": 32.339,
      "duration": 0.2134,
      "velocity": 111,
      "chip": "ym2612"
    },
    {
      "channel": 5,
      "note": 83,
      "start": 32.3401,
      "duration": 0.1303,
      "velocity": 92,
      "chip": "ym2612"
    },
    {
      "channel": 5,
      "note": 83,
      "start": 32.4705,
      "duration": 0.1348,
      "velocity": 92,
      "chip": "ym2612"
    },
    {
      "channel": 0,
      "note": 64,
      "start": 32.4843,
      "duration": 0.117,
      "velocity": 101,
      "chip": "ym2612"
    },
    {
      "channel": 0,
      "note": 64,
      "start": 32.6013,
      "duration": 0.1329,
      "velocity": 101,
      "chip": "ym2612"
    },
    {
      "channel": 5,
      "note": 83,
      "start": 32.6053,
      "duration": 0.1151,
      "velocity": 92,
      "chip": "ym2612"
    },
    {
      "channel": 5,
      "note": 83,
      "start": 32.7204,
      "duration": 0.137,
      "velocity": 92,
      "chip": "ym2612"
    },
    {
      "channel": 0,
      "note": 64,
      "start": 32.7343,
      "duration": 0.1163,
      "velocity": 101,
      "chip": "ym2612"
    },
    {
      "channel": 3,
      "note": 87,
      "start": 32.8562,
      "duration": 0.2625,
      "velocity": 113,
      "chip": "ym2612"
    },
    {
      "channel": 0,
      "note": 57,
      "start": 33.3858,
      "duration": 0.2491,
      "velocity": 101,
      "chip": "ym2612"
    },
    {
      "channel": 1,
      "note": 33,
      "start": 33.3869,
      "duration": 0.2491,
      "velocity": 104,
      "chip": "ym2612"
    },
    {
      "channel": 3,
      "note": 51,
      "start": 33.3914,
      "duration": 2.0798,
      "velocity": 74,
      "chip": "ym2612"
    },
    {
      "channel": 4,
      "note": 75,
      "start": 33.3926,
      "duration": 0.2099,
      "velocity": 111,
      "chip": "ym2612"
    },
    {
      "channel": 5,
      "note": 45,
      "start": 33.3961,
      "duration": 4.1606,
      "velocity": 106,
      "chip": "ym2612"
    },
    {
      "channel": 0,
      "note": 60,
      "start": 33.635,
      "duration": 0.133,
      "velocity": 101,
      "chip": "ym2612"
    },
    {
      "channel": 1,
      "note": 51,
      "start": 33.6361,
      "duration": 0.2665,
      "velocity": 104,
      "chip": "ym2612"
    },
    {
      "channel": 2,
      "note": 48,
      "start": 33.6373,
      "duration": 0.2655,
      "velocity": 104,
      "chip": "ym2612"
    },
    {
      "channel": 4,
      "note": 73,
      "start": 33.6391,
      "duration": 0.2134,
      "velocity": 111,
      "chip": "ym2612"
    },
    {
      "channel": 0,
      "note": 60,
      "start": 33.768,
      "duration": 0.1336,
      "velocity": 101,
      "chip": "ym2612"
    },
    {
      "channel": 0,
      "note": 61,
      "start": 33.9016,
      "duration": 0.133,
      "velocity": 101,
      "chip": "ym2612"
    },
    {
      "channel": 1,
      "note": 27,
      "start": 33.9027,
      "duration": 0.2667,
      "velocity": 104,
      "chip": "ym2612"
    },
    {
      "channel": 4,
      "note": 77,
      "start": 33.9055,
      "duration": 0.2137,
      "velocity": 111,
      "chip": "ym2612"
    },
    {
      "channel": 0,
      "note": 61,
      "start": 34.0346,
      "duration": 0.1337,
      "velocity": 101,
      "chip": "ym2612"
    },
    {
      "channel": 0,
      "note": 63,
      "start": 34.1683,
      "duration": 0.1163,
      "velocity": 101,
      "chip": "ym2612"
    },
    {
      "channel": 1,
      "note": 52,
      "start": 34.1695,
      "duration": 0.2499,
      "velocity": 104,
      "chip": "ym2612"
    },
    {
      "channel": 2,
      "note": 49,
      "start": 34.1707,
      "duration": 0.2488,
      "velocity": 104,
      "chip": "ym2612"
    },
    {
      "channel": 4,
      "note": 75,
      "start": 34.1724,
      "duration": 0.2134,
      "velocity": 111,
      "chip": "ym2612"
    },
    {
      "channel": 0,
      "note": 63,
      "start": 34.2846,
      "duration": 0.1336,
      "velocity": 101,
      "chip": "ym2612"
    },
    {
      "channel": 0,
      "note": 64,
      "start": 34.4183,
      "duration": 0.2666,
      "velocity": 101,
      "chip": "ym2612"
    },
    {
      "channel": 1,
      "note": 33,
      "start": 34.4195,
      "duration": 0.2665,
      "velocity": 104,
      "chip": "ym2612"
    },
    {
      "channel": 4,
      "note": 83,
      "start": 34.4222,
      "duration": 0.2136,
      "velocity": 111,
      "chip": "ym2612"
    },
    {
      "channel": 0,
      "note": 63,
      "start": 34.6849,
      "duration": 0.133,
      "velocity": 101,
      "chip": "ym2612"
    },
    {
      "channel": 1,
      "note": 51,
      "start": 34.6861,
      "duration": 0.2666,
      "velocity": 104,
      "chip": "ym2612"
    },
    {
      "channel": 2,
      "note": 48,
      "start": 34.6873,
      "duration": 0.2655,
      "velocity": 104,
      "chip": "ym2612"
    },
    {
      "channel": 4,
      "note": 81,
      "start": 34.689,
      "duration": 0.2134,
      "velocity": 111,
      "chip": "ym2612"
    },
    {
      "channel": 0,
      "note": 63,
      "start": 34.818,
      "duration": 0.1336,
      "velocity": 101,
      "chip": "ym2612"
    },
    {
      "channel": 0,
      "note": 61,
      "start": 34.9516,
      "duration": 0.1326,
      "velocity": 101,
      "chip": "ym2612"
    },
    {
      "channel": 1,
      "note": 27,
      "start": 34.9527,
      "duration": 0.2494,
      "velocity": 104,
      "chip": "ym2612"
    },
    {
      "channel": 4,
      "note": 84,
      "start": 34.9555,
      "duration": 0.517,
      "velocity": 111,
      "chip": "ym2612"
    },
    {
      "channel": 0,
      "note": 61,
      "start": 35.0843,
      "duration": 0.1335,
      "velocity": 101,
      "chip": "ym2612"
    },
    {
      "channel": 1,
      "note": 52,
      "start": 35.2022,
      "duration": 0.267,
      "velocity": 104,
      "chip": "ym2612"
    },
    {
      "channel": 2,
      "note": 49,
      "start": 35.2034,
      "duration": 0.266,
      "velocity": 104,
      "chip": "ym2612"
    },
    {
      "channel": 0,
      "note": 60,
      "start": 35.2179,
      "duration": 0.133,
      "velocity": 101,
      "chip": "ym2612"
    },
    {
      "channel": 0,
      "note": 60,
      "start": 35.351,
      "duration": 0.1335,
      "velocity": 101,
      "chip": "ym2612"
    },
    {
      "channel": 1,
      "note": 33,
      "start": 35.4692,
      "duration": 0.2662,
      "velocity": 104,
      "chip": "ym2612"
    },
    {
      "channel": 3,
      "note": 45,
      "start": 35.4712,
      "duration": 2.0834,
      "velocity": 74,
      "chip": "ym2612"
    },
    {
      "channel": 4,
      "note": 87,
      "start": 35.4725,
      "duration": 0.2658,
      "velocity": 111,
      "chip": "ym2612"
    },
    {
      "channel": 0,
      "note": 57,
      "start": 35.4845,
      "duration": 0.2666,
      "velocity": 101,
      "chip": "ym2612"
    },
    {
      "channel": 1,
      "note": 51,
      "start": 35.7355,
      "duration": 0.2505,
      "velocity": 104,
      "chip": "ym2612"
    },
    {
      "channel": 2,
      "note": 48,
      "start": 35.7367,
      "duration": 0.2495,
      "velocity": 104,
      "chip": "ym2612"
    },
    {
      "channel": 4,
      "note": 83,
      "start": 35.7383,
      "duration": 0.2141,
      "velocity": 111,
      "chip": "ym2612"
    },
    {
      "channel": 0,
      "note": 60,
      "start": 35.7512,
      "duration": 0.133,
      "velocity": 101,
      "chip": "ym2612"
    },
    {
      "channel": 0,
      "note": 60,
      "start": 35.8843,
      "duration": 0.1006,
      "velocity": 101,
      "chip": "ym2612"
    },
    {
      "channel": 0,
      "note": 61,
      "start": 35.9849,
      "duration": 0.133,
      "velocity": 101,
      "chip": "ym2612"
    },
    {
      "channel": 1,
      "note": 27,
      "start": 35.9861,
      "duration": 0.2667,
      "velocity": 104,
      "chip": "ym2612"
    },
    {
      "channel": 4,
      "note": 84,
      "start": 35.9888,
      "duration": 0.2137,
      "velocity": 111,
      "chip": "ym2612"
    },
    {
      "channel": 0,
      "note": 61,
      "start": 36.1179,
      "duration": 0.1337,
      "velocity": 101,
      "chip": "ym2612"
    },
    {
      "channel": 0,
      "note": 63,
      "start": 36.2516,
      "duration": 0.133,
      "velocity": 101,
      "chip": "ym2612"
    },
    {
      "channel": 1,
      "note": 52,
      "start": 36.2528,
      "duration": 0.2662,
      "velocity": 104,
      "chip": "ym2612"
    },
    {
      "channel": 2,
      "note": 49,
      "start": 36.2541,
      "duration": 0.2651,
      "velocity": 104,
      "chip": "ym2612"
    },
    {
      "channel": 4,
      "note": 79,
      "start": 36.2558,
      "duration": 0.2134,
      "velocity": 111,
      "chip": "ym2612"
    },
    {
      "channel": 0,
      "note": 63,
      "start": 36.3846,
      "duration": 0.1326,
      "velocity": 101,
      "chip": "ym2612"
    },
    {
      "channel": 1,
      "note": 33,
      "start": 36.5191,
      "duration": 0.2497,
      "velocity": 104,
      "chip": "ym2612"
    },
    {
      "channel": 4,
      "note": 84,
      "start": 36.5219,
      "duration": 0.2139,
      "velocity": 111,
      "chip": "ym2612"
    },
    {
      "channel": 1,
      "note": 51,
      "start": 36.7688,
      "duration": 0.2665,
      "velocity": 104,
      "chip": "ym2612"
    },
    {
      "channel": 2,
      "note": 48,
      "start": 36.77,
      "duration": 0.2655,
      "velocity": 104,
      "chip": "ym2612"
    },
    {
      "channel": 4,
      "note": 78,
      "start": 36.7718,
      "duration": 0.214,
      "velocity": 111,
      "chip": "ym2612"
    },
    {
      "channel": 0,
      "note": 60,
      "start": 36.7845,
      "duration": 0.2666,
      "velocity": 101,
      "chip": "ym2612"
    },
    {
      "channel": 1,
      "note": 27,
      "start": 37.0354,
      "duration": 0.2672,
      "velocity": 104,
      "chip": "ym2612"
    },
    {
      "channel": 4,
      "note": 78,
      "start": 37.0382,
      "duration": 0.2143,
      "velocity": 111,
      "chip": "ym2612"
    },
    {
      "channel": 0,
      "note": 61,
      "start": 37.0512,
      "duration": 0.133,
      "velocity": 101,
      "chip": "ym2612"
    },
    {
      "channel": 0,
      "note": 61,
      "start": 37.1843,
      "duration": 0.1173,
      "velocity": 101,
      "chip": "ym2612"
    },
    {
      "channel": 0,
      "note": 55,
      "start": 37.3016,
      "duration": 0.133,
      "velocity": 101,
      "chip": "ym2612"
    },
    {
      "channel": 1,
      "note": 52,
      "start": 37.3027,
      "duration": 0.2508,
      "velocity": 104,
      "chip": "ym2612"
    },
    {
      "channel": 2,
      "note": 49,
      "start": 37.304,
      "duration": 0.2497,
      "velocity": 104,
      "chip": "ym2612"
    },
    {
      "channel": 4,
      "note": 72,
      "start": 37.3057,
      "duration": 0.2134,
      "velocity": 111,
      "chip": "ym2612"
    },
    {
      "channel": 0,
      "note": 55,
      "start": 37.4346,
      "duration": 0.1178,
      "velocity": 101,
      "chip": "ym2612"
    },
    {
      "channel": 0,
      "note": 57,
      "start": 37.5524,
      "duration": 0.2659,
      "velocity": 101,
      "chip": "ym2612"
    },
    {
      "channel": 1,
      "note": 33,
      "start": 37.5536,
      "duration": 0.2658,
      "velocity": 104,
      "chip": "ym2612"
    },
    {
      "channel": 4,
      "note": 87,
      "start": 37.5565,
      "duration": 0.2125,
      "velocity": 111,
      "chip": "ym2612"
    },
    {
      "channel": 0,
      "note": 60,
      "start": 37.8183,
      "duration": 0.1328,
      "velocity": 101,
      "chip": "ym2612"
    },
    {
      "channel": 1,
      "note": 51,
      "start": 37.8195,
      "duration": 0.2665,
      "velocity": 104,
      "chip": "ym2612"
    },
    {
      "channel": 2,
      "note": 48,
      "start": 37.8207,
      "duration": 0.2655,
      "velocity": 104,
      "chip": "ym2612"
    },
    {
      "channel": 4,
      "note": 84,
      "start": 37.8223,
      "duration": 0.2135,
      "velocity": 111,
      "chip": "ym2612"
    },
    {
      "channel": 5,
      "note": 72,
      "start": 37.8234,
      "duration": 0.2663,
      "velocity": 92,
      "chip": "ym2612"
    },
    {
      "channel": 0,
      "note": 60,
      "start": 37.9512,
      "duration": 0.1337,
      "velocity": 101,
      "chip": "ym2612"
    },
    {
      "channel": 0,
      "note": 61,
      "start": 38.0849,
      "duration": 0.1329,
      "velocity": 101,
      "chip": "ym2612"
    },
    {
      "channel": 1,
      "note": 27,
      "start": 38.0861,
      "duration": 0.25,
      "velocity": 104,
      "chip": "ym2612"
    },
    {
      "channel": 4,
      "note": 85,
      "start": 38.0887,
      "duration": 0.2138,
      "velocity": 111,
      "chip": "ym2612"
    },
    {
      "channel": 5,
      "note": 73,
      "start": 38.0898,
      "duration": 0.131,
      "velocity": 92,
      "chip": "ym2612"
    },
    {
      "channel": 0,
      "note": 61,
      "start": 38.2179,
      "duration": 0.117,
      "velocity": 101,
      "chip": "ym2612"
    },
    {
      "channel": 5,
      "note": 73,
      "start": 38.2209,
      "duration": 0.1192,
      "velocity": 92,
      "chip": "ym2612"
    },
    {
      "channel": 0,
      "note": 63,
      "start": 38.335,
      "duration": 0.1329,
      "velocity": 101,
      "chip": "ym2612"
    },
    {
      "channel": 1,
      "note": 52,
      "start": 38.3361,
      "duration": 0.2665,
      "velocity": 104,
      "chip": "ym2612"
    },
    {
      "channel": 2,
      "note": 49,
      "start": 38.3374,
      "duration": 0.2655,
      "velocity": 104,
      "chip": "ym2612"
    },
    {
      "channel": 4,
      "note": 81,
      "start": 38.339,
      "duration": 0.2135,
      "velocity": 111,
      "chip": "ym2612"
    },
    {
      "channel": 5,
      "note": 76,
      "start": 38.3401,
      "duration": 0.1307,
      "velocity": 92,
      "chip": "ym2612"
    },
    {
      "channel": 0,
      "note": 63,
      "start": 38.4679,
      "duration": 0.1337,
      "velocity": 101,
      "chip": "ym2612"
    },
    {
      "channel": 5,
      "note": 76,
      "start": 38.4709,
      "duration": 0.1352,
      "velocity": 92,
      "chip": "ym2612"
    },
    {
      "channel": 0,
      "note": 64,
      "start": 38.6016,
      "duration": 0.2666,
      "velocity": 101,
      "chip": "ym2612"
    },
    {
      "channel": 1,
      "note": 33,
      "start": 38.6027,
      "duration": 0.2666,
      "velocity": 104,
      "chip": "ym2612"
    },
    {
      "channel": 5,
      "note": 75,
      "start": 38.6061,
      "duration": 1.051,
      "velocity": 92,
      "chip": "ym2612"
    },
    {
      "channel": 0,
      "note": 63,
      "start": 38.8682,
      "duration": 0.1329,
      "velocity": 101,
      "chip": "ym2612"
    },
    {
      "channel": 1,
      "note": 51,
      "start": 38.8693,
      "duration": 0.25,
      "velocity": 104,
      "chip": "ym2612"
    },
    {
      "channel": 2,
      "note": 48,
      "start": 38.8706,
      "duration": 0.2489,
      "velocity": 104,
      "chip": "ym2612"
    },
    {
      "channel": 4,
      "note": 87,
      "start": 38.8722,
      "duration": 0.2136,
      "velocity": 111,
      "chip": "ym2612"
    },
    {
      "channel": 0,
      "note": 63,
      "start": 39.0012,
      "duration": 0.117,
      "velocity": 101,
      "chip": "ym2612"
    },
    {
      "channel": 0,
      "note": 61,
      "start": 39.1182,
      "duration": 0.1329,
      "velocity": 101,
      "chip": "ym2612"
    },
    {
      "channel": 1,
      "note": 27,
      "start": 39.1193,
      "duration": 0.2667,
      "velocity": 104,
      "chip": "ym2612"
    },
    {
      "channel": 4,
      "note": 84,
      "start": 39.1219,
      "duration": 0.2139,
      "velocity": 111,
      "chip": "ym2612"
    },
    {
      "channel": 0,
      "note": 61,
      "start": 39.2512,
      "duration": 0.1337,
      "velocity": 101,
      "chip": "ym2612"
    },
    {
      "channel": 0,
      "note": 60,
      "start": 39.3849,
      "duration": 0.1329,
      "velocity": 101,
      "chip": "ym2612"
    },
    {
      "channel": 1,
      "note": 52,
      "start": 39.3861,
      "duration": 0.2671,
      "velocity": 104,
      "chip": "ym2612"
    },
    {
      "channel": 2,
      "note": 49,
      "start": 39.3873,
      "duration": 0.2661,
      "velocity": 104,
      "chip": "ym2612"
    },
    {
      "channel": 4,
      "note": 85,
      "start": 39.3889,
      "duration": 0.2136,
      "velocity": 111,
      "chip": "ym2612"
    },
    {
      "channel": 0,
      "note": 60,
      "start": 39.5179,
      "duration": 0.1342,
      "velocity": 101,
      "chip": "ym2612"
    },
    {
      "channel": 0,
      "note": 57,
      "start": 39.6521,
      "duration": 0.2495,
      "velocity": 101,
      "chip": "ym2612"
    },
    {
      "channel": 1,
      "note": 33,
      "start": 39.6532,
      "duration": 0.2495,
      "velocity": 104,
      "chip": "ym2612"
    },
    {
      "channel": 4,
      "note": 87,
      "start": 39.6562,
      "duration": 0.2129,
      "velocity": 111,
      "chip": "ym2612"
    },
    {
      "channel": 5,
      "note": 75,
      "start": 39.6571,
      "duration": 0.2497,
      "velocity": 92,
      "chip": "ym2612"
    },
    {
      "channel": 0,
      "note": 60,
      "start": 39.9016,
      "duration": 0.1328,
      "velocity": 101,
      "chip": "ym2612"
    },
    {
      "channel": 1,
      "note": 51,
      "start": 39.9028,
      "duration": 0.2665,
      "velocity": 104,
      "chip": "ym2612"
    },
    {
      "channel": 2,
      "note": 48,
      "start": 39.9041,
      "duration": 0.2655,
      "velocity": 104,
      "chip": "ym2612"
    },
    {
      "channel": 4,
      "note": 84,
      "start": 39.9056,
      "duration": 0.2302,
      "velocity": 111,
      "chip": "ym2612"
    },
    {
      "channel": 5,
      "note": 72,
      "start": 39.9068,
      "duration": 0.2662,
      "velocity": 92,
      "chip": "ym2612"
    },
    {
      "channel": 0,
      "note": 60,
      "start": 40.0345,
      "duration": 0.1337,
      "velocity": 101,
      "chip": "ym2612"
    },
    {
      "channel": 0,
      "note": 61,
      "start": 40.1683,
      "duration": 0.1329,
      "velocity": 101,
      "chip": "ym2612"
    },
    {
      "channel": 1,
      "note": 27,
      "start": 40.1694,
      "duration": 0.2667,
      "velocity": 104,
      "chip": "ym2612"
    },
    {
      "channel": 4,
      "note": 85,
      "start": 40.172,
      "duration": 0.2138,
      "velocity": 111,
      "chip": "ym2612"
    },
    {
      "channel": 5,
      "note": 73,
      "start": 40.1731,
      "duration": 0.131,
      "velocity": 92,
      "chip": "ym2612"
    },
    {
      "channel": 0,
      "note": 61,
      "start": 40.3013,
      "duration": 0.1337,
      "velocity": 101,
      "chip": "ym2612"
    },
    {
      "channel": 5,
      "note": 73,
      "start": 40.3042,
      "duration": 0.1359,
      "velocity": 92,
      "chip": "ym2612"
    },
    {
      "channel": 0,
      "note": 63,
      "start": 40.435,
      "duration": 0.1329,
      "velocity": 101,
      "chip": "ym2612"
    },
    {
      "channel": 1,
      "note": 52,
      "start": 40.4361,
      "duration": 0.2495,
      "velocity": 104,
      "chip": "ym2612"
    },
    {
      "channel": 2,
      "note": 49,
      "start": 40.4374,
      "duration": 0.2485,
      "velocity": 104,
      "chip": "ym2612"
    },
    {
      "channel": 4,
      "note": 81,
      "start": 40.439,
      "duration": 0.2135,
      "velocity": 111,
      "chip": "ym2612"
    },
    {
      "channel": 5,
      "note": 76,
      "start": 40.4401,
      "duration": 0.1307,
      "velocity": 92,
      "chip": "ym2612"
    },
    {
      "channel": 0,
      "note": 63,
      "start": 40.5679,
      "duration": 0.116,
      "velocity": 101,
      "chip": "ym2612"
    },
    {
      "channel": 5,
      "note": 76,
      "start": 40.5709,
      "duration": 0.1185,
      "velocity": 92,
      "chip": "ym2612"
    },
    {
      "channel": 1,
      "note": 33,
      "start": 40.6857,
      "duration": 0.2669,
      "velocity": 104,
      "chip": "ym2612"
    },
    {
      "channel": 4,
      "note": 87,
      "start": 40.6883,
      "duration": 0.2308,
      "velocity": 111,
      "chip": "ym2612"
    },
    {
      "channel": 5,
      "note": 75,
      "start": 40.6894,
      "duration": 0.5336,
      "velocity": 92,
      "chip": "ym2612"
    },
    {
      "channel": 0,
      "note": 60,
      "start": 40.9516,
      "duration": 0.2666,
      "velocity": 101,
      "chip": "ym2612"
    },
    {
      "channel": 1,
      "note": 51,
      "start": 40.9527,
      "duration": 0.2666,
      "velocity": 104,
      "chip": "ym2612"
    },
    {
      "channel": 2,
      "note": 48,
      "start": 40.9539,
      "duration": 0.2656,
      "velocity": 104,
      "chip": "ym2612"
    },
    {
      "channel": 4,
      "note": 84,
      "start": 40.9556,
      "duration": 0.2136,
      "velocity": 111,
      "chip": "ym2612"
    },
    {
      "channel": 0,
      "note": 61,
      "start": 41.2183,
      "duration": 0.1329,
      "velocity": 101,
      "chip": "ym2612"
    },
    {
      "channel": 1,
      "note": 27,
      "start": 41.2194,
      "duration": 0.25,
      "velocity": 104,
      "chip": "ym2612"
    },
    {
      "channel": 4,
      "note": 85,
      "start": 41.2219,
      "duration": 0.2139,
      "velocity": 111,
      "chip": "ym2612"
    },
    {
      "channel": 5,
      "note": 76,
      "start": 41.2231,
      "duration": 0.131,
      "velocity": 92,
      "chip": "ym2612"
    },
    {
      "channel": 0,
      "note": 61,
      "start": 41.3513,
      "duration": 0.117,
      "velocity": 101,
      "chip": "ym2612"
    },
    {
      "channel": 5,
      "note": 76,
      "start": 41.3542,
      "duration": 0.1192,
      "velocity": 92,
      "chip": "ym2612"
    },
    {
      "channel": 0,
      "note": 55,
      "start": 41.4683,
      "duration": 0.1329,
      "velocity": 101,
      "chip": "ym2612"
    },
    {
      "channel": 1,
      "note": 52,
      "start": 41.4695,
      "duration": 0.2674,
      "velocity": 104,
      "chip": "ym2612"
    },
    {
      "channel": 2,
      "note": 49,
      "start": 41.4707,
      "duration": 0.2662,
      "velocity": 104,
      "chip": "ym2612"
    },
    {
      "channel": 4,
      "note": 81,
      "start": 41.4723,
      "duration": 0.2302,
      "velocity": 111,
      "chip": "ym2612"
    },
    {
      "channel": 5,
      "note": 81,
      "start": 41.4735,
      "duration": 0.1307,
      "velocity": 92,
      "chip": "ym2612"
    },
    {
      "channel": 0,
      "note": 55,
      "start": 41.6013,
      "duration": 0.1344,
      "velocity": 101,
      "chip": "ym2612"
    },
    {
      "channel": 5,
      "note": 81,
      "start": 41.6042,
      "duration": 0.1394,
      "velocity": 92,
      "chip": "ym2612"
    },
    {
      "channel": 0,
      "note": 57,
      "start": 41.7357,
      "duration": 0.2659,
      "velocity": 101,
      "chip": "ym2612"
    },
    {
      "channel": 1,
      "note": 33,
      "start": 41.7369,
      "duration": 0.2658,
      "velocity": 104,
      "chip": "ym2612"
    },
    {
      "channel": 3,
      "note": 79,
      "start": 41.7413,
      "duration": 0.1784,
      "velocity": 95,
      "chip": "ym2612"
    },
    {
      "channel": 4,
      "note": 87,
      "start": 41.7425,
      "duration": 0.21,
      "velocity": 111,
      "chip": "ym2612"
    },
    {
      "channel": 5,
      "note": 79,
      "start": 41.7436,
      "duration": 1.5635,
      "velocity": 92,
      "chip": "ym2612"
    },
    {
      "channel": 3,
      "note": 78,
      "start": 41.9197,
      "duration": 0.1667,
      "velocity": 95,
      "chip": "ym2612"
    },
    {
      "channel": 0,
      "note": 60,
      "start": 42.0016,
      "duration": 0.1329,
      "velocity": 101,
      "chip": "ym2612"
    },
    {
      "channel": 1,
      "note": 51,
      "start": 42.0027,
      "duration": 0.2666,
      "velocity": 104,
      "chip": "ym2612"
    },
    {
      "channel": 2,
      "note": 48,
      "start": 42.004,
      "duration": 0.2655,
      "velocity": 104,
      "chip": "ym2612"
    },
    {
      "channel": 4,
      "note": 84,
      "start": 42.0056,
      "duration": 0.2136,
      "velocity": 111,
      "chip": "ym2612"
    },
    {
      "channel": 3,
      "note": 77,
      "start": 42.0864,
      "duration": 0.1851,
      "velocity": 95,
      "chip": "ym2612"
    },
    {
      "channel": 0,
      "note": 60,
      "start": 42.1345,
      "duration": 0.1337,
      "velocity": 101,
      "chip": "ym2612"
    },
    {
      "channel": 0,
      "note": 61,
      "start": 42.2683,
      "duration": 0.1162,
      "velocity": 101,
      "chip": "ym2612"
    },
    {
      "channel": 1,
      "note": 27,
      "start": 42.2694,
      "duration": 0.25,
      "velocity": 104,
      "chip": "ym2612"
    },
    {
      "channel": 3,
      "note": 76,
      "start": 42.2716,
      "duration": 0.1648,
      "velocity": 95,
      "chip": "ym2612"
    },
    {
      "channel": 4,
      "note": 85,
      "start": 42.2727,
      "duration": 0.2131,
      "velocity": 111,
      "chip": "ym2612"
    },
    {
      "channel": 0,
      "note": 61,
      "start": 42.3845,
      "duration": 0.1337,
      "velocity": 101,
      "chip": "ym2612"
    },
    {
      "channel": 3,
      "note": 77,
      "start": 42.4364,
      "duration": 0.1666,
      "velocity": 95,
      "chip": "ym2612"
    },
    {
      "channel": 0,
      "note": 63,
      "start": 42.5183,
      "duration": 0.1329,
      "velocity": 101,
      "chip": "ym2612"
    },
    {
      "channel": 1,
      "note": 52,
      "start": 42.5195,
      "duration": 0.2665,
      "velocity": 104,
      "chip": "ym2612"
    },
    {
      "channel": 2,
      "note": 49,
      "start": 42.5207,
      "duration": 0.2655,
      "velocity": 104,
      "chip": "ym2612"
    },
    {
      "channel": 4,
      "note": 81,
      "start": 42.5223,
      "duration": 0.2135,
      "velocity": 111,
      "chip": "ym2612"
    },
    {
      "channel": 3,
      "note": 78,
      "start": 42.6031,
      "duration": 0.1851,
      "velocity": 95,
      "chip": "ym2612"
    },
    {
      "channel": 0,
      "note": 63,
      "start": 42.6512,
      "duration": 0.1337,
      "velocity": 101,
      "chip": "ym2612"
    },
    {
      "channel": 0,
      "note": 64,
      "start": 42.7849,
      "duration": 0.2666,
      "velocity": 101,
      "chip": "ym2612"
    },
    {
      "channel": 1,
      "note": 33,
      "start": 42.7861,
      "duration": 0.2666,
      "velocity": 104,
      "chip": "ym2612"
    },
    {
      "channel": 3,
      "note": 79,
      "start": 42.7882,
      "duration": 0.1648,
      "velocity": 95,
      "chip": "ym2612"
    },
    {
      "channel": 3,
      "note": 78,
      "start": 42.953,
      "duration": 0.1833,
      "velocity": 95,
      "chip": "ym2612"
    },
    {
      "channel": 0,
      "note": 63,
      "start": 43.0516,
      "duration": 0.1163,
      "velocity": 101,
      "chip": "ym2612"
    },
    {
      "channel": 1,
      "note": 51,
      "start": 43.0527,
      "duration": 0.25,
      "velocity": 104,
      "chip": "ym2612"
    },
    {
      "channel": 2,
      "note": 48,
      "start": 43.0539,
      "duration": 0.249,
      "velocity": 104,
      "chip": "ym2612"
    },
    {
      "channel": 4,
      "note": 87,
      "start": 43.0556,
      "duration": 0.2136,
      "velocity": 111,
      "chip": "ym2612"
    },
    {
      "channel": 3,
      "note": 77,
      "start": 43.1364,
      "duration": 0.1685,
      "velocity": 95,
      "chip": "ym2612"
    },
    {
      "channel": 0,
      "note": 63,
      "start": 43.1679,
      "duration": 0.1338,
      "velocity": 101,
      "chip": "ym2612"
    },
    {
      "channel": 0,
      "note": 61,
      "start": 43.3016,
      "duration": 0.1329,
      "velocity": 101,
      "chip": "ym2612"
    },
    {
      "channel": 1,
      "note": 27,
      "start": 43.3028,
      "duration": 0.2665,
      "velocity": 104,
      "chip": "ym2612"
    },
    {
      "channel": 3,
      "note": 76,
      "start": 43.3049,
      "duration": 0.1803,
      "velocity": 95,
      "chip": "ym2612"
    },
    {
      "channel": 4,
      "note": 84,
      "start": 43.3061,
      "duration": 0.213,
      "velocity": 111,
      "chip": "ym2612"
    },
    {
      "channel": 5,
      "note": 78,
      "start": 43.3072,
      "duration": 0.1305,
      "velocity": 92,
      "chip": "ym2612"
    },
    {
      "channel": 0,
      "note": 61,
      "start": 43.4346,
      "duration": 0.1337,
      "velocity": 101,
      "chip": "ym2612"
    },
    {
      "channel": 5,
      "note": 79,
      "start": 43.4378,
      "duration": 0.1356,
      "velocity": 92,
      "chip": "ym2612"
    },
    {
      "channel": 0,
      "note": 60,
      "start": 43.5683,
      "duration": 0.1329,
      "velocity": 101,
      "chip": "ym2612"
    },
    {
      "channel": 1,
      "note": 52,
      "start": 43.5694,
      "duration": 0.2671,
      "velocity": 104,
      "chip": "ym2612"
    },
    {
      "channel": 2,
      "note": 49,
      "start": 43.5707,
      "duration": 0.266,
      "velocity": 104,
      "chip": "ym2612"
    },
    {
      "channel": 4,
      "note": 85,
      "start": 43.5722,
      "duration": 0.2136,
      "velocity": 111,
      "chip": "ym2612"
    },
    {
      "channel": 5,
      "note": 78,
      "start": 43.5734,
      "duration": 0.1307,
      "velocity": 92,
      "chip": "ym2612"
    },
    {
      "channel": 0,
      "note": 60,
      "start": 43.7013,
      "duration": 0.1341,
      "velocity": 101,
      "chip": "ym2612"
    },
    {
      "channel": 5,
      "note": 78,
      "start": 43.7042,
      "duration": 0.1368,
      "velocity": 92,
      "chip": "ym2612"
    },
    {
      "channel": 0,
      "note": 57,
      "start": 43.8354,
      "duration": 0.2496,
      "velocity": 101,
      "chip": "ym2612"
    },
    {
      "channel": 1,
      "note": 33,
      "start": 43.8365,
      "duration": 0.2495,
      "velocity": 104,
      "chip": "ym2612"
    },
    {
      "channel": 3,
      "note": 72,
      "start": 43.8387,
      "duration": 0.1644,
      "velocity": 95,
      "chip": "ym2612"
    },
    {
      "channel": 4,
      "note": 87,
      "start": 43.8399,
      "duration": 0.2126,
      "velocity": 111,
      "chip": "ym2612"
    },
    {
      "channel": 5,
      "note": 76,
      "start": 43.841,
      "duration": 2.0828,
      "velocity": 92,
      "chip": "ym2612"
    },
    {
      "channel": 3,
      "note": 71,
      "start": 44.003,
      "duration": 0.1667,
      "velocity": 95,
      "chip": "ym2612"
    },
    {
      "channel": 0,
      "note": 60,
      "start": 44.0849,
      "duration": 0.1329,
      "velocity": 101,
      "chip": "ym2612"
    },
    {
      "channel": 1,
      "note": 51,
      "start": 44.0861,
      "duration": 0.2667,
      "velocity": 104,
      "chip": "ym2612"
    },
    {
      "channel": 2,
      "note": 48,
      "start": 44.0873,
      "duration": 0.2656,
      "velocity": 104,
      "chip": "ym2612"
    },
    {
      "channel": 4,
      "note": 84,
      "start": 44.0889,
      "duration": 0.2136,
      "velocity": 111,
      "chip": "ym2612"
    },
    {
      "channel": 3,
      "note": 70,
      "start": 44.1698,
      "duration": 0.1851,
      "velocity": 95,
      "chip": "ym2612"
    },
    {
      "channel": 0,
      "note": 60,
      "start": 44.2179,
      "duration": 0.1337,
      "velocity": 101,
      "chip": "ym2612"
    },
    {
      "channel": 0,
      "note": 61,
      "start": 44.3516,
      "duration": 0.1328,
      "velocity": 101,
      "chip": "ym2612"
    },
    {
      "channel": 1,
      "note": 27,
      "start": 44.3528,
      "duration": 0.2665,
      "velocity": 104,
      "chip": "ym2612"
    },
    {
      "channel": 3,
      "note": 69,
      "start": 44.3549,
      "duration": 0.1648,
      "velocity": 95,
      "chip": "ym2612"
    },
    {
      "channel": 4,
      "note": 85,
      "start": 44.356,
      "duration": 0.2131,
      "velocity": 111,
      "chip": "ym2612"
    },
    {
      "channel": 0,
      "note": 61,
      "start": 44.4845,
      "duration": 0.1337,
      "velocity": 101,
      "chip": "ym2612"
    },
    {
      "channel": 3,
      "note": 70,
      "start": 44.5197,
      "duration": 0.1833,
      "velocity": 95,
      "chip": "ym2612"
    },
    {
      "channel": 0,
      "note": 63,
      "start": 44.6183,
      "duration": 0.1162,
      "velocity": 101,
      "chip": "ym2612"
    },
    {
      "channel": 1,
      "note": 52,
      "start": 44.6194,
      "duration": 0.2496,
      "velocity": 104,
      "chip": "ym2612"
    },
    {
      "channel": 2,
      "note": 49,
      "start": 44.6207,
      "duration": 0.2485,
      "velocity": 104,
      "chip": "ym2612"
    },
    {
      "channel": 4,
      "note": 81,
      "start": 44.6222,
      "duration": 0.2136,
      "velocity": 111,
      "chip": "ym2612"
    },
    {
      "channel": 3,
      "note": 71,
      "start": 44.7031,
      "duration": 0.1681,
      "velocity": 95,
      "chip": "ym2612"
    },
    {
      "channel": 0,
      "note": 63,
      "start": 44.7345,
      "duration": 0.1327,
      "velocity": 101,
      "chip": "ym2612"
    },
    {
      "channel": 1,
      "note": 33,
      "start": 44.8691,
      "duration": 0.2669,
      "velocity": 104,
      "chip": "ym2612"
    },
    {
      "channel": 3,
      "note": 72,
      "start": 44.8712,
      "duration": 0.1817,
      "velocity": 95,
      "chip": "ym2612"
    },
    {
      "channel": 4,
      "note": 87,
      "start": 44.8723,
      "duration": 0.2135,
      "velocity": 111,
      "chip": "ym2612"
    },
    {
      "channel": 3,
      "note": 71,
      "start": 45.053,
      "duration": 0.1667,
      "velocity": 95,
      "chip": "ym2612"
    },
    {
      "channel": 0,
      "note": 60,
      "start": 45.1349,
      "duration": 0.2667,
      "velocity": 101,
      "chip": "ym2612"
    },
    {
      "channel": 1,
      "note": 51,
      "start": 45.1361,
      "duration": 0.2666,
      "velocity": 104,
      "chip": "ym2612"
    },
    {
      "channel": 2,
      "note": 48,
      "start": 45.1373,
      "duration": 0.2655,
      "velocity": 104,
      "chip": "ym2612"
    },
    {
      "channel": 4,
      "note": 84,
      "start": 45.1389,
      "duration": 0.2136,
      "velocity": 111,
      "chip": "ym2612"
    },
    {
      "channel": 3,
      "note": 70,
      "start": 45.2198,
      "duration": 0.1851,
      "velocity": 95,
      "chip": "ym2612"
    },
    {
      "channel": 0,
      "note": 61,
      "start": 45.4016,
      "duration": 0.1162,
      "velocity": 101,
      "chip": "ym2612"
    },
    {
      "channel": 1,
      "note": 27,
      "start": 45.4027,
      "duration": 0.2499,
      "velocity": 104,
      "chip": "ym2612"
    },
    {
      "channel": 3,
      "note": 69,
      "start": 45.4049,
      "duration": 0.1637,
      "velocity": 95,
      "chip": "ym2612"
    },
    {
      "channel": 4,
      "note": 85,
      "start": 45.406,
      "duration": 0.213,
      "velocity": 111,
      "chip": "ym2612"
    },
    {
      "channel": 0,
      "note": 61,
      "start": 45.5179,
      "duration": 0.1337,
      "velocity": 101,
      "chip": "ym2612"
    },
    {
      "channel": 0,
      "note": 55,
      "start": 45.6516,
      "duration": 0.1493,
      "velocity": 101,
      "chip": "ym2612"
    },
    {
      "channel": 1,
      "note": 52,
      "start": 45.6527,
      "duration": 0.2672,
      "velocity": 104,
      "chip": "ym2612"
    },
    {
      "channel": 2,
      "note": 49,
      "start": 45.6539,
      "duration": 0.2662,
      "velocity": 104,
      "chip": "ym2612"
    },
    {
      "channel": 4,
      "note": 81,
      "start": 45.6556,
      "duration": 0.2136,
      "velocity": 111,
      "chip": "ym2612"
    },
    {
      "channel": 0,
      "note": 55,
      "start": 45.801,
      "duration": 0.1179,
      "velocity": 101,
      "chip": "ym2612"
    },
    {
      "channel": 0,
      "note": 57,
      "start": 45.9188,
      "duration": 0.2661,
      "velocity": 101,
      "chip": "ym2612"
    },
    {
      "channel": 1,
      "note": 33,
      "start": 45.92,
      "duration": 0.2661,
      "velocity": 104,
      "chip": "ym2612"
    },
    {
      "channel": 4,
      "note": 87,
      "start": 45.9231,
      "duration": 0.2127,
      "velocity": 111,
      "chip": "ym2612"
    },
    {
      "channel": 5,
      "note": 76,
      "start": 45.9239,
      "duration": 0.2662,
      "velocity": 92,
      "chip": "ym2612"
    },
    {
      "channel": 0,
      "note": 60,
      "start": 46.185,
      "duration": 0.1162,
      "velocity": 101,
      "chip": "ym2612"
    },
    {
      "channel": 1,
      "note": 51,
      "start": 46.1861,
      "duration": 0.2499,
      "velocity": 104,
      "chip": "ym2612"
    },
    {
      "channel": 2,
      "note": 48,
      "start": 46.1874,
      "duration": 0.2488,
      "velocity": 104,
      "chip": "ym2612"
    },
    {
      "channel": 4,
      "note": 84,
      "start": 46.189,
      "duration": 0.2135,
      "velocity": 111,
      "chip": "ym2612"
    },
    {
      "channel": 5,
      "note": 72,
      "start": 46.1901,
      "duration": 0.2497,
      "velocity": 92,
      "chip": "ym2612"
    },
    {
      "channel": 0,
      "note": 60,
      "start": 46.3012,
      "duration": 0.1337,
      "velocity": 101,
      "chip": "ym2612"
    },
    {
      "channel": 0,
      "note": 61,
      "start": 46.4349,
      "duration": 0.1329,
      "velocity": 101,
      "chip": "ym2612"
    },
    {
      "channel": 1,
      "note": 27,
      "start": 46.4361,
      "duration": 0.2661,
      "velocity": 104,
      "chip": "ym2612"
    },
    {
      "channel": 4,
      "note": 85,
      "start": 46.4387,
      "duration": 0.2137,
      "velocity": 111,
      "chip": "ym2612"
    },
    {
      "channel": 5,
      "note": 73,
      "start": 46.4399,
      "duration": 0.1309,
      "velocity": 92,
      "chip": "ym2612"
    },
    {
      "channel": 0,
      "note": 61,
      "start": 46.5679,
      "duration": 0.1499,
      "velocity": 101,
      "chip": "ym2612"
    },
    {
      "channel": 5,
      "note": 73,
      "start": 46.5709,
      "duration": 0.1352,
      "velocity": 92,
      "chip": "ym2612"
    },
    {
      "channel": 1,
      "note": 52,
      "start": 46.7022,
      "duration": 0.2834,
      "velocity": 104,
      "chip": "ym2612"
    },
    {
      "channel": 2,
      "note": 49,
      "start": 46.7034,
      "duration": 0.2823,
      "velocity": 104,
      "chip": "ym2612"
    },
    {
      "channel": 4,
      "note": 81,
      "start": 46.7051,
      "duration": 0.2141,
      "velocity": 111,
      "chip": "ym2612"
    },
    {
      "channel": 5,
      "note": 76,
      "start": 46.7062,
      "duration": 0.1313,
      "velocity": 92,
      "chip": "ym2612"
    },
    {
      "channel": 0,
      "note": 63,
      "start": 46.7179,
      "duration": 0.1167,
      "velocity": 101,
      "chip": "ym2612"
    },
    {
      "channel": 0,
      "note": 63,
      "start": 46.8346,
      "duration": 0.1499,
      "velocity": 101,
      "chip": "ym2612"
    },
    {
      "channel": 5,
      "note": 76,
      "start": 46.8375,
      "duration": 0.1337,
      "velocity": 92,
      "chip": "ym2612"
    },
    {
      "channel": 5,
      "note": 75,
      "start": 46.9712,
      "duration": 1.0352,
      "velocity": 92,
      "chip": "ym2612"
    },
    {
      "channel": 0,
      "note": 64,
      "start": 46.9845,
      "duration": 0.2337,
      "velocity": 101,
      "chip": "ym2612"
    },
    {
      "channel": 1,
      "note": 33,
      "start": 46.9857,
      "duration": 0.2336,
      "velocity": 104,
      "chip": "ym2612"
    },
    {
      "channel": 0,
      "note": 63,
      "start": 47.2182,
      "duration": 0.1329,
      "velocity": 101,
      "chip": "ym2612"
    },
    {
      "channel": 1,
      "note": 51,
      "start": 47.2193,
      "duration": 0.2667,
      "velocity": 104,
      "chip": "ym2612"
    },
    {
      "channel": 2,
      "note": 48,
      "start": 47.2206,
      "duration": 0.2655,
      "velocity": 104,
      "chip": "ym2612"
    },
    {
      "channel": 4,
      "note": 87,
      "start": 47.2222,
      "duration": 0.2136,
      "velocity": 111,
      "chip": "ym2612"
    },
    {
      "channel": 0,
      "note": 63,
      "start": 47.3512,
      "duration": 0.1337,
      "velocity": 101,
      "chip": "ym2612"
    },
    {
      "channel": 0,
      "note": 61,
      "start": 47.4849,
      "duration": 0.1329,
      "velocity": 101,
      "chip": "ym2612"
    },
    {
      "channel": 1,
      "note": 27,
      "start": 47.4861,
      "duration": 0.2666,
      "velocity": 104,
      "chip": "ym2612"
    },
    {
      "channel": 4,
      "note": 84,
      "start": 47.4887,
      "duration": 0.2137,
      "velocity": 111,
      "chip": "ym2612"
    },
    {
      "channel": 0,
      "note": 61,
      "start": 47.6179,
      "duration": 0.1337,
      "velocity": 101,
      "chip": "ym2612"
    },
    {
      "channel": 0,
      "note": 60,
      "start": 47.7516,
      "duration": 0.1326,
      "velocity": 101,
      "chip": "ym2612"
    },
    {
      "channel": 1,
      "note": 52,
      "start": 47.7527,
      "duration": 0.2498,
      "velocity": 104,
      "chip": "ym2612"
    },
    {
      "channel": 2,
      "note": 49,
      "start": 47.7539,
      "duration": 0.2487,
      "velocity": 104,
      "chip": "ym2612"
    },
    {
      "channel": 4,
      "note": 85,
      "start": 47.7556,
      "duration": 0.2136,
      "velocity": 111,
      "chip": "ym2612"
    },
    {
      "channel": 0,
      "note": 60,
      "start": 47.8843,
      "duration": 0.1335,
      "velocity": 101,
      "chip": "ym2612"
    },
    {
      "channel": 1,
      "note": 33,
      "start": 48.0025,
      "duration": 0.2662,
      "velocity": 104,
      "chip": "ym2612"
    },
    {
      "channel": 4,
      "note": 87,
      "start": 48.0056,
      "duration": 0.2134,
      "velocity": 111,
      "chip": "ym2612"
    },
    {
      "channel": 5,
      "note": 75,
      "start": 48.0065,
      "duration": 0.2663,
      "velocity": 92,
      "chip": "ym2612"
    },
    {
      "channel": 0,
      "note": 57,
      "start": 48.0179,
      "duration": 0.2666,
      "velocity": 101,
      "chip": "ym2612"
    },
    {
      "channel": 1,
      "note": 51,
      "start": 48.2688,
      "duration": 0.2666,
      "velocity": 104,
      "chip": "ym2612"
    },
    {
      "channel": 2,
      "note": 48,
      "start": 48.2701,
      "duration": 0.2655,
      "velocity": 104,
      "chip": "ym2612"
    },
    {
      "channel": 4,
      "note": 84,
      "start": 48.2717,
      "duration": 0.2141,
      "velocity": 111,
      "chip": "ym2612"
    },
    {
      "channel": 5,
      "note": 72,
      "start": 48.2728,
      "duration": 0.2663,
      "velocity": 92,
      "chip": "ym2612"
    },
    {
      "channel": 0,
      "note": 60,
      "start": 48.2845,
      "duration": 0.133,
      "velocity": 101,
      "chip": "ym2612"
    },
    {
      "channel": 0,
      "note": 60,
      "start": 48.4176,
      "duration": 0.1335,
      "velocity": 101,
      "chip": "ym2612"
    },
    {
      "channel": 1,
      "note": 27,
      "start": 48.5355,
      "duration": 0.2506,
      "velocity": 104,
      "chip": "ym2612"
    },
    {
      "channel": 4,
      "note": 85,
      "start": 48.5381,
      "duration": 0.2144,
      "velocity": 111,
      "chip": "ym2612"
    },
    {
      "channel": 5,
      "note": 73,
      "start": 48.5392,
      "duration": 0.1312,
      "velocity": 92,
      "chip": "ym2612"
    },
    {
      "channel": 0,
      "note": 61,
      "start": 48.5512,
      "duration": 0.133,
      "velocity": 101,
      "chip": "ym2612"
    },
    {
      "channel": 5,
      "note": 73,
      "start": 48.6705,
      "duration": 0.1196,
      "velocity": 92,
      "chip": "ym2612"
    },
    {
      "channel": 0,
      "note": 61,
      "start": 48.6843,
      "duration": 0.1007,
      "velocity": 101,
      "chip": "ym2612"
    },
    {
      "channel": 0,
      "note": 63,
      "start": 48.785,
      "duration": 0.1329,
      "velocity": 101,
      "chip": "ym2612"
    },
    {
      "channel": 1,
      "note": 52,
      "start": 48.7861,
      "duration": 0.2662,
      "velocity": 104,
      "chip": "ym2612"
    },
    {
      "channel": 2,
      "note": 49,
      "start": 48.7874,
      "duration": 0.2651,
      "velocity": 104,
      "chip": "ym2612"
    },
    {
      "channel": 4,
      "note": 81,
      "start": 48.789,
      "duration": 0.2135,
      "velocity": 111,
      "chip": "ym2612"
    },
    {
      "channel": 5,
      "note": 76,
      "start": 48.7901,
      "duration": 0.1307,
      "velocity": 92,
      "chip": "ym2612"
    },
    {
      "channel": 0,
      "note": 63,
      "start": 48.9179,
      "duration": 0.1326,
      "velocity": 101,
      "chip": "ym2612"
    },
    {
      "channel": 5,
      "note": 76,
      "start": 48.9209,
      "duration": 0.1352,
      "velocity": 92,
      "chip": "ym2612"
    },
    {
      "channel": 1,
      "note": 33,
      "start": 49.0524,
      "duration": 0.2669,
      "velocity": 104,
      "chip": "ym2612"
    },
    {
      "channel": 4,
      "note": 87,
      "start": 49.0551,
      "duration": 0.214,
      "velocity": 111,
      "chip": "ym2612"
    },
    {
      "channel": 5,
      "note": 75,
      "start": 49.0562,
      "duration": 0.5169,
      "velocity": 92,
      "chip": "ym2612"
    },
    {
      "channel": 0,
      "note": 60,
      "start": 49.3183,
      "duration": 0.2499,
      "velocity": 101,
      "chip": "ym2612"
    },
    {
      "channel": 1,
      "note": 51,
      "start": 49.3194,
      "duration": 0.2499,
      "velocity": 104,
      "chip": "ym2612"
    },
    {
      "channel": 2,
      "note": 48,
      "start": 49.3206,
      "duration": 0.2489,
      "velocity": 104,
      "chip": "ym2612"
    },
    {
      "channel": 4,
      "note": 84,
      "start": 49.3222,
      "duration": 0.2136,
      "velocity": 111,
      "chip": "ym2612"
    },
    {
      "channel": 0,
      "note": 61,
      "start": 49.5683,
      "duration": 0.1329,
      "velocity": 101,
      "chip": "ym2612"
    },
    {
      "channel": 1,
      "note": 27,
      "start": 49.5694,
      "duration": 0.2667,
      "velocity": 104,
      "chip": "ym2612"
    },
    {
      "channel": 4,
      "note": 85,
      "start": 49.5721,
      "duration": 0.2137,
      "velocity": 111,
      "chip": "ym2612"
    },
    {
      "channel": 5,
      "note": 76,
      "start": 49.5732,
      "duration": 0.131,
      "velocity": 92,
      "chip": "ym2612"
    },
    {
      "channel": 0,
      "note": 61,
      "start": 49.7013,
      "duration": 0.1337,
      "velocity": 101,
      "chip": "ym2612"
    },
    {
      "channel": 5,
      "note": 76,
      "start": 49.7042,
      "duration": 0.1358,
      "velocity": 92,
      "chip": "ym2612"
    },
    {
      "channel": 0,
      "note": 55,
      "start": 49.835,
      "duration": 0.1329,
      "velocity": 101,
      "chip": "ym2612"
    },
    {
      "channel": 1,
      "note": 52,
      "start": 49.8361,
      "duration": 0.2672,
      "velocity": 104,
      "chip": "ym2612"
    },
    {
      "channel": 2,
      "note": 49,
      "start": 49.8373,
      "duration": 0.2662,
      "velocity": 104,
      "chip": "ym2612"
    },
    {
      "channel": 4,
      "note": 81,
      "start": 49.839,
      "duration": 0.2135,
      "velocity": 111,
      "chip": "ym2612"
    },
    {
      "channel": 5,
      "note": 81,
      "start": 49.8401,
      "duration": 0.1307,
      "velocity": 92,
      "chip": "ym2612"
    },
    {
      "channel": 0,
      "note": 55,
      "start": 49.9679,
      "duration": 0.1342,
      "velocity": 101,
      "chip": "ym2612"
    },
    {
      "channel": 5,
      "note": 81,
      "start": 49.9709,
      "duration": 0.137,
      "velocity": 92,
      "chip": "ym2612"
    },
    {
      "channel": 0,
      "note": 57,
      "start": 50.1022,
      "duration": 0.2494,
      "velocity": 101,
      "chip": "ym2612"
    },
    {
      "channel": 1,
      "note": 33,
      "start": 50.1034,
      "duration": 0.2493,
      "velocity": 104,
      "chip": "ym2612"
    },
    {
      "channel": 3,
      "note": 79,
      "start": 50.1055,
      "duration": 0.1642,
      "velocity": 95,
      "chip": "ym2612"
    },
    {
      "channel": 4,
      "note": 87,
      "start": 50.1067,
      "duration": 0.2124,
      "velocity": 111,
      "chip": "ym2612"
    },
    {
      "channel": 5,
      "note": 79,
      "start": 50.1079,
      "duration": 3.649,
      "velocity": 92,
      "chip": "ym2612"
    },
    {
      "channel": 3,
      "note": 78,
      "start": 50.2697,
      "duration": 0.1833,
      "velocity": 95,
      "chip": "ym2612"
    },
    {
      "channel": 0,
      "note": 60,
      "start": 50.3516,
      "duration": 0.1493,
      "velocity": 101,
      "chip": "ym2612"
    },
    {
      "channel": 1,
      "note": 51,
      "start": 50.3527,
      "duration": 0.2667,
      "velocity": 104,
      "chip": "ym2612"
    },
    {
      "channel": 2,
      "note": 48,
      "start": 50.354,
      "duration": 0.2656,
      "velocity": 104,
      "chip": "ym2612"
    },
    {
      "channel": 4,
      "note": 84,
      "start": 50.3556,
      "duration": 0.2136,
      "velocity": 111,
      "chip": "ym2612"
    },
    {
      "channel": 3,
      "note": 77,
      "start": 50.4531,
      "duration": 0.1685,
      "velocity": 95,
      "chip": "ym2612"
    },
    {
      "channel": 0,
      "note": 60,
      "start": 50.501,
      "duration": 0.1173,
      "velocity": 101,
      "chip": "ym2612"
    },
    {
      "channel": 0,
      "note": 61,
      "start": 50.6183,
      "duration": 0.1328,
      "velocity": 101,
      "chip": "ym2612"
    },
    {
      "channel": 1,
      "note": 27,
      "start": 50.6195,
      "duration": 0.266,
      "velocity": 104,
      "chip": "ym2612"
    },
    {
      "channel": 3,
      "note": 76,
      "start": 50.6216,
      "duration": 0.1814,
      "velocity": 95,
      "chip": "ym2612"
    },
    {
      "channel": 4,
      "note": 85,
      "start": 50.6227,
      "duration": 0.2131,
      "velocity": 111,
      "chip": "ym2612"
    },
    {
      "channel": 0,
      "note": 61,
      "start": 50.7512,
      "duration": 0.1499,
      "velocity": 101,
      "chip": "ym2612"
    },
    {
      "channel": 3,
      "note": 77,
      "start": 50.803,
      "duration": 0.1667,
      "velocity": 95,
      "chip": "ym2612"
    },
    {
      "channel": 1,
      "note": 52,
      "start": 50.8855,
      "duration": 0.2505,
      "velocity": 104,
      "chip": "ym2612"
    },
    {
      "channel": 2,
      "note": 49,
      "start": 50.8867,
      "duration": 0.2495,
      "velocity": 104,
      "chip": "ym2612"
    },
    {
      "channel": 4,
      "note": 81,
      "start": 50.8883,
      "duration": 0.2141,
      "velocity": 111,
      "chip": "ym2612"
    },
    {
      "channel": 0,
      "note": 63,
      "start": 50.9012,
      "duration": 0.1166,
      "velocity": 101,
      "chip": "ym2612"
    },
    {
      "channel": 3,
      "note": 78,
      "start": 50.9698,
      "duration": 0.1684,
      "velocity": 95,
      "chip": "ym2612"
    },
    {
      "channel": 0,
      "note": 63,
      "start": 51.0179,
      "duration": 0.1171,
      "velocity": 101,
      "chip": "ym2612"
    },
    {
      "channel": 0,
      "note": 64,
      "start": 51.1349,
      "duration": 0.2666,
      "velocity": 101,
      "chip": "ym2612"
    },
    {
      "channel": 1,
      "note": 33,
      "start": 51.1361,
      "duration": 0.2666,
      "velocity": 104,
      "chip": "ym2612"
    },
    {
      "channel": 3,
      "note": 79,
      "start": 51.1382,
      "duration": 0.1814,
      "velocity": 95,
      "chip": "ym2612"
    },
    {
      "channel": 3,
      "note": 78,
      "start": 51.3197,
      "duration": 0.1667,
      "velocity": 95,
      "chip": "ym2612"
    },
    {
      "channel": 0,
      "note": 63,
      "start": 51.4016,
      "duration": 0.1329,
      "velocity": 101,
      "chip": "ym2612"
    },
    {
      "channel": 1,
      "note": 51,
      "start": 51.4027,
      "duration": 0.2666,
      "velocity": 104,
      "chip": "ym2612"
    },
    {
      "channel": 2,
      "note": 48,
      "start": 51.4039,
      "duration": 0.2656,
      "velocity": 104,
      "chip": "ym2612"
    },
    {
      "channel": 4,
      "note": 87,
      "start": 51.4056,
      "duration": 0.2136,
      "velocity": 111,
      "chip": "ym2612"
    },
    {
      "channel": 3,
      "note": 77,
      "start": 51.4864,
      "duration": 0.1851,
      "velocity": 95,
      "chip": "ym2612"
    },
    {
      "channel": 0,
      "note": 63,
      "start": 51.5345,
      "duration": 0.1337,
      "velocity": 101,
      "chip": "ym2612"
    },
    {
      "channel": 0,
      "note": 61,
      "start": 51.6683,
      "duration": 0.1329,
      "velocity": 101,
      "chip": "ym2612"
    },
    {
      "channel": 1,
      "note": 27,
      "start": 51.6694,
      "duration": 0.2493,
      "velocity": 104,
      "chip": "ym2612"
    },
    {
      "channel": 3,
      "note": 76,
      "start": 51.6716,
      "duration": 0.1637,
      "velocity": 95,
      "chip": "ym2612"
    },
    {
      "channel": 4,
      "note": 84,
      "start": 51.6727,
      "duration": 0.213,
      "velocity": 111,
      "chip": "ym2612"
    },
    {
      "channel": 0,
      "note": 61,
      "start": 51.8012,
      "duration": 0.1333,
      "velocity": 101,
      "chip": "ym2612"
    },
    {
      "channel": 1,
      "note": 52,
      "start": 51.9188,
      "duration": 0.2671,
      "velocity": 104,
      "chip": "ym2612"
    },
    {
      "channel": 2,
      "note": 49,
      "start": 51.92,
      "duration": 0.266,
      "velocity": 104,
      "chip": "ym2612"
    },
    {
      "channel": 4,
      "note": 85,
      "start": 51.9216,
      "duration": 0.2142,
      "velocity": 111,
      "chip": "ym2612"
    },
    {
      "channel": 0,
      "note": 60,
      "start": 51.9345,
      "duration": 0.133,
      "velocity": 101,
      "chip": "ym2612"
    },
    {
      "channel": 0,
      "note": 60,
      "start": 52.0676,
      "duration": 0.1335,
      "velocity": 101,
      "chip": "ym2612"
    },
    {
      "channel": 1,
      "note": 33,
      "start": 52.1859,
      "duration": 0.2661,
      "velocity": 104,
      "chip": "ym2612"
    },
    {
      "channel": 3,
      "note": 79,
      "start": 52.188,
      "duration": 0.1817,
      "velocity": 95,
      "chip": "ym2612"
    },
    {
      "channel": 4,
      "note": 87,
      "start": 52.1893,
      "duration": 0.2132,
      "velocity": 111,
      "chip": "ym2612"
    },
    {
      "channel": 0,
      "note": 57,
      "start": 52.2012,
      "duration": 0.2666,
      "velocity": 101,
      "chip": "ym2612"
    },
    {
      "channel": 3,
      "note": 78,
      "start": 52.3698,
      "duration": 0.1666,
      "velocity": 95,
      "chip": "ym2612"
    },
    {
      "channel": 1,
      "note": 51,
      "start": 52.4522,
      "duration": 0.2505,
      "velocity": 104,
      "chip": "ym2612"
    },
    {
      "channel": 2,
      "note": 48,
      "start": 52.4534,
      "duration": 0.2495,
      "velocity": 104,
      "chip": "ym2612"
    },
    {
      "channel": 4,
      "note": 84,
      "start": 52.455,
      "duration": 0.2141,
      "velocity": 111,
      "chip": "ym2612"
    },
    {
      "channel": 0,
      "note": 60,
      "start": 52.4679,
      "duration": 0.133,
      "velocity": 101,
      "chip": "ym2612"
    },
    {
      "channel": 3,
      "note": 77,
      "start": 52.5364,
      "duration": 0.1684,
      "velocity": 95,
      "chip": "ym2612"
    },
    {
      "channel": 0,
      "note": 60,
      "start": 52.601,
      "duration": 0.1006,
      "velocity": 101,
      "chip": "ym2612"
    },
    {
      "channel": 0,
      "note": 61,
      "start": 52.7016,
      "duration": 0.1329,
      "velocity": 101,
      "chip": "ym2612"
    },
    {
      "channel": 1,
      "note": 27,
      "start": 52.7027,
      "duration": 0.2667,
      "velocity": 104,
      "chip": "ym2612"
    },
    {
      "channel": 3,
      "note": 76,
      "start": 52.7049,
      "duration": 0.1815,
      "velocity": 95,
      "chip": "ym2612"
    },
    {
      "channel": 4,
      "note": 85,
      "start": 52.706,
      "duration": 0.2298,
      "velocity": 111,
      "chip": "ym2612"
    },
    {
      "channel": 0,
      "note": 61,
      "start": 52.8345,
      "duration": 0.1337,
      "velocity": 101,
      "chip": "ym2612"
    },
    {
      "channel": 3,
      "note": 77,
      "start": 52.8864,
      "duration": 0.1666,
      "velocity": 95,
      "chip": "ym2612"
    },
    {
      "channel": 0,
      "note": 63,
      "start": 52.9683,
      "duration": 0.1329,
      "velocity": 101,
      "chip": "ym2612"
    },
    {
      "channel": 1,
      "note": 52,
      "start": 52.9695,
      "duration": 0.2662,
      "velocity": 104,
      "chip": "ym2612"
    },
    {
      "channel": 2,
      "note": 49,
      "start": 52.9707,
      "duration": 0.2652,
      "velocity": 104,
      "chip": "ym2612"
    },
    {
      "channel": 4,
      "note": 81,
      "start": 52.9723,
      "duration": 0.2135,
      "velocity": 111,
      "chip": "ym2612"
    },
    {
      "channel": 3,
      "note": 78,
      "start": 53.0531,
      "duration": 0.1847,
      "velocity": 95,
      "chip": "ym2612"
    },
    {
      "channel": 0,
      "note": 63,
      "start": 53.1012,
      "duration": 0.1327,
      "velocity": 101,
      "chip": "ym2612"
    },
    {
      "channel": 1,
      "note": 33,
      "start": 53.2357,
      "duration": 0.2502,
      "velocity": 104,
      "chip": "ym2612"
    },
    {
      "channel": 3,
      "note": 79,
      "start": 53.2379,
      "duration": 0.1651,
      "velocity": 95,
      "chip": "ym2612"
    },
    {
      "channel": 4,
      "note": 87,
      "start": 53.239,
      "duration": 0.2134,
      "velocity": 111,
      "chip": "ym2612"
    },
    {
      "channel": 3,
      "note": 78,
      "start": 53.403,
      "duration": 0.1833,
      "velocity": 95,
      "chip": "ym2612"
    },
    {
      "channel": 0,
      "note": 60,
      "start": 53.4849,
      "duration": 0.2667,
      "velocity": 101,
      "chip": "ym2612"
    },
    {
      "channel": 1,
      "note": 51,
      "start": 53.4861,
      "duration": 0.2667,
      "velocity": 104,
      "chip": "ym2612"
    },
    {
      "channel": 2,
      "note": 48,
      "start": 53.4873,
      "duration": 0.2656,
      "velocity": 104,
      "chip": "ym2612"
    },
    {
      "channel": 4,
      "note": 84,
      "start": 53.4889,
      "duration": 0.2302,
      "velocity": 111,
      "chip": "ym2612"
    },
    {
      "channel": 3,
      "note": 77,
      "start": 53.5864,
      "duration": 0.1685,
      "velocity": 95,
      "chip": "ym2612"
    },
    {
      "channel": 0,
      "note": 61,
      "start": 53.7516,
      "duration": 0.1328,
      "velocity": 101,
      "chip": "ym2612"
    },
    {
      "channel": 1,
      "note": 27,
      "start": 53.7528,
      "duration": 0.2665,
      "velocity": 104,
      "chip": "ym2612"
    },
    {
      "channel": 3,
      "note": 76,
      "start": 53.7549,
      "duration": 0.1803,
      "velocity": 95,
      "chip": "ym2612"
    },
    {
      "channel": 4,
      "note": 85,
      "start": 53.7561,
      "duration": 0.213,
      "velocity": 111,
      "chip": "ym2612"
    },
    {
      "channel": 5,
      "note": 79,
      "start": 53.7569,
      "duration": 0.2655,
      "velocity": 92,
      "chip": "ym2612"
    },
    {
      "channel": 0,
      "note": 61,
      "start": 53.8845,
      "duration": 0.1337,
      "velocity": 101,
      "chip": "ym2612"
    },
    {
      "channel": 0,
      "note": 55,
      "start": 54.0183,
      "duration": 0.1329,
      "velocity": 101,
      "chip": "ym2612"
    },
    {
      "channel": 1,
      "note": 52,
      "start": 54.0194,
      "duration": 0.2505,
      "velocity": 104,
      "chip": "ym2612"
    },
    {
      "channel": 2,
      "note": 49,
      "start": 54.0207,
      "duration": 0.2494,
      "velocity": 104,
      "chip": "ym2612"
    },
    {
      "channel": 4,
      "note": 81,
      "start": 54.0222,
      "duration": 0.2136,
      "velocity": 111,
      "chip": "ym2612"
    },
    {
      "channel": 0,
      "note": 55,
      "start": 54.1512,
      "duration": 0.1176,
      "velocity": 101,
      "chip": "ym2612"
    },
    {
      "channel": 0,
      "note": 62,
      "start": 54.2688,
      "duration": 0.1323,
      "velocity": 101,
      "chip": "ym2612"
    },
    {
      "channel": 1,
      "note": 26,
      "start": 54.27,
      "duration": 0.2659,
      "velocity": 104,
      "chip": "ym2612"
    },
    {
      "channel": 4,
      "note": 89,
      "start": 54.273,
      "duration": 0.2294,
      "velocity": 111,
      "chip": "ym2612"
    },
    {
      "channel": 0,
      "note": 62,
      "start": 54.4012,
      "duration": 0.1335,
      "velocity": 101,
      "chip": "ym2612"
    },
    {
      "channel": 0,
      "note": 62,
      "start": 54.5348,
      "duration": 0.1494,
      "velocity": 101,
      "chip": "ym2612"
    },
    {
      "channel": 1,
      "note": 44,
      "start": 54.5359,
      "duration": 0.2661,
      "velocity": 104,
      "chip": "ym2612"
    },
    {
      "channel": 2,
      "note": 41,
      "start": 54.5371,
      "duration": 0.2651,
      "velocity": 104,
      "chip": "ym2612"
    },
    {
      "channel": 4,
      "note": 93,
      "start": 54.5388,
      "duration": 0.2137,
      "velocity": 111,
      "chip": "ym2612"
    },
    {
      "channel": 5,
      "note": 77,
      "start": 54.5399,
      "duration": 0.266,
      "velocity": 92,
      "chip": "ym2612"
    },
    {
      "channel": 0,
      "note": 62,
      "start": 54.6843,
      "duration": 0.1335,
      "velocity": 101,
      "chip": "ym2612"
    },
    {
      "channel": 1,
      "note": 21,
      "start": 54.8022,
      "duration": 0.2666,
      "velocity": 104,
      "chip": "ym2612"
    },
    {
      "channel": 4,
      "note": 86,
      "start": 54.8048,
      "duration": 0.2144,
      "velocity": 111,
      "chip": "ym2612"
    },
    {
      "channel": 5,
      "note": 78,
      "start": 54.8059,
      "duration": 0.1311,
      "velocity": 92,
      "chip": "ym2612"
    },
    {
      "channel": 0,
      "note": 65,
      "start": 54.8179,
      "duration": 0.2666,
      "velocity": 101,
      "chip": "ym2612"
    },
    {
      "channel": 5,
      "note": 78,
      "start": 54.9371,
      "duration": 0.1357,
      "velocity": 92,
      "chip": "ym2612"
    },
    {
      "channel": 1,
      "note": 45,
      "start": 55.0688,
      "duration": 0.2505,
      "velocity": 104,
      "chip": "ym2612"
    },
    {
      "channel": 2,
      "note": 42,
      "start": 55.0701,
      "duration": 0.2494,
      "velocity": 104,
      "chip": "ym2612"
    },
    {
      "channel": 4,
      "note": 90,
      "start": 55.0717,
      "duration": 0.2141,
      "velocity": 111,
      "chip": "ym2612"
    },
    {
      "channel": 5,
      "note": 80,
      "start": 55.0728,
      "duration": 0.1142,
      "velocity": 92,
      "chip": "ym2612"
    },
    {
      "channel": 0,
      "note": 66,
      "start": 55.0845,
      "duration": 0.2337,
      "velocity": 101,
      "chip": "ym2612"
    },
    {
      "channel": 5,
      "note": 80,
      "start": 55.1871,
      "duration": 0.1358,
      "velocity": 92,
      "chip": "ym2612"
    },
    {
      "channel": 0,
      "note": 62,
      "start": 55.3183,
      "duration": 0.1329,
      "velocity": 101,
      "chip": "ym2612"
    },
    {
      "channel": 1,
      "note": 26,
      "start": 55.3194,
      "duration": 0.2663,
      "velocity": 104,
      "chip": "ym2612"
    },
    {
      "channel": 5,
      "note": 83,
      "start": 55.3228,
      "duration": 0.5337,
      "velocity": 92,
      "chip": "ym2612"
    },
    {
      "channel": 0,
      "note": 62,
      "start": 55.4512,
      "duration": 0.1334,
      "velocity": 101,
      "chip": "ym2612"
    },
    {
      "channel": 0,
      "note": 62,
      "start": 55.5846,
      "duration": 0.1332,
      "velocity": 101,
      "chip": "ym2612"
    },
    {
      "channel": 1,
      "note": 44,
      "start": 55.5858,
      "duration": 0.2668,
      "velocity": 104,
      "chip": "ym2612"
    },
    {
      "channel": 2,
      "note": 41,
      "start": 55.5871,
      "duration": 0.2658,
      "velocity": 104,
      "chip": "ym2612"
    },
    {
      "channel": 4,
      "note": 93,
      "start": 55.5887,
      "duration": 0.2138,
      "velocity": 111,
      "chip": "ym2612"
    },
    {
      "channel": 0,
      "note": 62,
      "start": 55.7179,
      "duration": 0.1337,
      "velocity": 101,
      "chip": "ym2612"
    },
    {
      "channel": 0,
      "note": 65,
      "start": 55.8516,
      "duration": 0.25,
      "velocity": 101,
      "chip": "ym2612"
    },
    {
      "channel": 1,
      "note": 21,
      "start": 55.8527,
      "duration": 0.2499,
      "velocity": 104,
      "chip": "ym2612"
    },
    {
      "channel": 4,
      "note": 89,
      "start": 55.8554,
      "duration": 0.2137,
      "velocity": 111,
      "chip": "ym2612"
    },
    {
      "channel": 5,
      "note": 80,
      "start": 55.8565,
      "duration": 0.1138,
      "velocity": 92,
      "chip": "ym2612"
    },
    {
      "channel": 5,
      "note": 80,
      "start": 55.9704,
      "duration": 0.1363,
      "velocity": 92,
      "chip": "ym2612"
    },
    {
      "channel": 0,
      "note": 66,
      "start": 56.1016,
      "duration": 0.267,
      "velocity": 101,
      "chip": "ym2612"
    },
    {
      "channel": 1,
      "note": 45,
      "start": 56.1027,
      "duration": 0.267,
      "velocity": 104,
      "chip": "ym2612"
    },
    {
      "channel": 2,
      "note": 42,
      "start": 56.104,
      "duration": 0.2659,
      "velocity": 104,
      "chip": "ym2612"
    },
    {
      "channel": 4,
      "note": 90,
      "start": 56.1056,
      "duration": 0.2136,
      "velocity": 111,
      "chip": "ym2612"
    },
    {
      "channel": 5,
      "note": 78,
      "start": 56.1067,
      "duration": 0.1303,
      "velocity": 92,
      "chip": "ym2612"
    },
    {
      "channel": 5,
      "note": 78,
      "start": 56.2371,
      "duration": 0.1359,
      "velocity": 92,
      "chip": "ym2612"
    },
    {
      "channel": 0,
      "note": 62,
      "start": 56.3686,
      "duration": 0.1325,
      "velocity": 101,
      "chip": "ym2612"
    },
    {
      "channel": 1,
      "note": 26,
      "start": 56.3698,
      "duration": 0.266,
      "velocity": 104,
      "chip": "ym2612"
    },
    {
      "channel": 4,
      "note": 89,
      "start": 56.3729,
      "duration": 0.2129,
      "velocity": 111,
      "chip": "ym2612"
    },
    {
      "channel": 0,
      "note": 62,
      "start": 56.5012,
      "duration": 0.1334,
      "velocity": 101,
      "chip": "ym2612"
    },
    {
      "channel": 0,
      "note": 62,
      "start": 56.6347,
      "duration": 0.1164,
      "velocity": 101,
      "chip": "ym2612"
    },
    {
      "channel": 1,
      "note": 44,
      "start": 56.6359,
      "duration": 0.2501,
      "velocity": 104,
      "chip": "ym2612"
    },
    {
      "channel": 2,
      "note": 41,
      "start": 56.6371,
      "duration": 0.2491,
      "velocity": 104,
      "chip": "ym2612"
    },
    {
      "channel": 4,
      "note": 93,
      "start": 56.6387,
      "duration": 0.2137,
      "velocity": 111,
      "chip": "ym2612"
    },
    {
      "channel": 5,
      "note": 77,
      "start": 56.6398,
      "duration": 0.25,
      "velocity": 92,
      "chip": "ym2612"
    },
    {
      "channel": 0,
      "note": 62,
      "start": 56.7512,
      "duration": 0.1337,
      "velocity": 101,
      "chip": "ym2612"
    },
    {
      "channel": 0,
      "note": 65,
      "start": 56.8849,
      "duration": 0.2667,
      "velocity": 101,
      "chip": "ym2612"
    },
    {
      "channel": 1,
      "note": 21,
      "start": 56.8861,
      "duration": 0.2666,
      "velocity": 104,
      "chip": "ym2612"
    },
    {
      "channel": 4,
      "note": 86,
      "start": 56.8887,
      "duration": 0.2137,
      "velocity": 111,
      "chip": "ym2612"
    },
    {
      "channel": 5,
      "note": 78,
      "start": 56.8899,
      "duration": 0.1305,
      "velocity": 92,
      "chip": "ym2612"
    },
    {
      "channel": 5,
      "note": 78,
      "start": 57.0204,
      "duration": 0.1363,
      "velocity": 92,
      "chip": "ym2612"
    },
    {
      "channel": 0,
      "note": 66,
      "start": 57.1516,
      "duration": 0.2667,
      "velocity": 101,
      "chip": "ym2612"
    },
    {
      "channel": 1,
      "note": 45,
      "start": 57.1527,
      "duration": 0.2666,
      "velocity": 104,
      "chip": "ym2612"
    },
    {
      "channel": 2,
      "note": 42,
      "start": 57.154,
      "duration": 0.2655,
      "velocity": 104,
      "chip": "ym2612"
    },
    {
      "channel": 4,
      "note": 90,
      "start": 57.1556,
      "duration": 0.2136,
      "velocity": 111,
      "chip": "ym2612"
    },
    {
      "channel": 5,
      "note": 80,
      "start": 57.1567,
      "duration": 0.1303,
      "velocity": 92,
      "chip": "ym2612"
    },
    {
      "channel": 5,
      "note": 80,
      "start": 57.2871,
      "duration": 0.1361,
      "velocity": 92,
      "chip": "ym2612"
    },
    {
      "channel": 0,
      "note": 62,
      "start": 57.4183,
      "duration": 0.1162,
      "velocity": 101,
      "chip": "ym2612"
    },
    {
      "channel": 1,
      "note": 26,
      "start": 57.4194,
      "duration": 0.2498,
      "velocity": 104,
      "chip": "ym2612"
    },
    {
      "channel": 4,
      "note": 89,
      "start": 57.4221,
      "duration": 0.2137,
      "velocity": 111,
      "chip": "ym2612"
    },
    {
      "channel": 5,
      "note": 74,
      "start": 57.4232,
      "duration": 1.0342,
      "velocity": 92,
      "chip": "ym2612"
    },
    {
      "channel": 0,
      "note": 62,
      "start": 57.5345,
      "duration": 0.1335,
      "velocity": 101,
      "chip": "ym2612"
    },
    {
      "channel": 0,
      "note": 62,
      "start": 57.668,
      "duration": 0.1332,
      "velocity": 101,
      "chip": "ym2612"
    },
    {
      "channel": 1,
      "note": 44,
      "start": 57.6692,
      "duration": 0.2668,
      "velocity": 104,
      "chip": "ym2612"
    },
    {
      "channel": 2,
      "note": 41,
      "start": 57.6705,
      "duration": 0.2657,
      "velocity": 104,
      "chip": "ym2612"
    },
    {
      "channel": 3,
      "note": 77,
      "start": 57.6716,
      "duration": 0.2666,
      "velocity": 95,
      "chip": "ym2612"
    },
    {
      "channel": 4,
      "note": 93,
      "start": 57.6727,
      "duration": 0.2131,
      "velocity": 111,
      "chip": "ym2612"
    },
    {
      "channel": 0,
      "note": 62,
      "start": 57.8012,
      "duration": 0.1337,
      "velocity": 101,
      "chip": "ym2612"
    },
    {
      "channel": 0,
      "note": 65,
      "start": 57.9349,
      "duration": 0.2667,
      "velocity": 101,
      "chip": "ym2612"
    },
    {
      "channel": 1,
      "note": 21,
      "start": 57.9361,
      "duration": 0.2666,
      "velocity": 104,
      "chip": "ym2612"
    },
    {
      "channel": 3,
      "note": 78,
      "start": 57.9382,
      "duration": 0.2668,
      "velocity": 95,
      "chip": "ym2612"
    },
    {
      "channel": 4,
      "note": 86,
      "start": 57.9394,
      "duration": 0.2131,
      "velocity": 111,
      "chip": "ym2612"
    },
    {
      "channel": 0,
      "note": 66,
      "start": 58.2016,
      "duration": 0.2504,
      "velocity": 101,
      "chip": "ym2612"
    },
    {
      "channel": 1,
      "note": 45,
      "start": 58.2027,
      "duration": 0.2504,
      "velocity": 104,
      "chip": "ym2612"
    },
    {
      "channel": 2,
      "note": 42,
      "start": 58.204,
      "duration": 0.2493,
      "velocity": 104,
      "chip": "ym2612"
    },
    {
      "channel": 3,
      "note": 80,
      "start": 58.2051,
      "duration": 0.2502,
      "velocity": 95,
      "chip": "ym2612"
    },
    {
      "channel": 4,
      "note": 90,
      "start": 58.2062,
      "duration": 0.2129,
      "velocity": 111,
      "chip": "ym2612"
    },
    {
      "channel": 0,
      "note": 64,
      "start": 58.452,
      "duration": 0.1324,
      "velocity": 101,
      "chip": "ym2612"
    },
    {
      "channel": 1,
      "note": 28,
      "start": 58.4532,
      "duration": 0.266,
      "velocity": 104,
      "chip": "ym2612"
    },
    {
      "channel": 3,
      "note": 83,
      "start": 58.4553,
      "duration": 0.0807,
      "velocity": 95,
      "chip": "ym2612"
    },
    {
      "channel": 4,
      "note": 92,
      "start": 58.4565,
      "duration": 0.2126,
      "velocity": 111,
      "chip": "ym2612"
    },
    {
      "channel": 5,
      "note": 74,
      "start": 58.4574,
      "duration": 0.2661,
      "velocity": 92,
      "chip": "ym2612"
    },
    {
      "channel": 3,
      "note": 83,
      "start": 58.5361,
      "duration": 0.1001,
      "velocity": 95,
      "chip": "ym2612"
    },
    {
      "channel": 0,
      "note": 64,
      "start": 58.5845,
      "duration": 0.1335,
      "velocity": 101,
      "chip": "ym2612"
    },
    {
      "channel": 3,
      "note": 83,
      "start": 58.6362,
      "duration": 0.0852,
      "velocity": 95,
      "chip": "ym2612"
    },
    {
      "channel": 0,
      "note": 64,
      "start": 58.7181,
      "duration": 0.1331,
      "velocity": 101,
      "chip": "ym2612"
    },
    {
      "channel": 1,
      "note": 47,
      "start": 58.7193,
      "duration": 0.2668,
      "velocity": 104,
      "chip": "ym2612"
    },
    {
      "channel": 2,
      "note": 44,
      "start": 58.7205,
      "duration": 0.2657,
      "velocity": 104,
      "chip": "ym2612"
    },
    {
      "channel": 3,
      "note": 83,
      "start": 58.7214,
      "duration": 0.0814,
      "velocity": 95,
      "chip": "ym2612"
    },
    {
      "channel": 4,
      "note": 93,
      "start": 58.7225,
      "duration": 0.2133,
      "velocity": 111,
      "chip": "ym2612"
    },
    {
      "channel": 5,
      "note": 84,
      "start": 58.7237,
      "duration": 0.2665,
      "velocity": 92,
      "chip": "ym2612"
    },
    {
      "channel": 3,
      "note": 83,
      "start": 58.8029,
      "duration": 0.0831,
      "velocity": 95,
      "chip": "ym2612"
    },
    {
      "channel": 0,
      "note": 64,
      "start": 58.8512,
      "duration": 0.1338,
      "velocity": 101,
      "chip": "ym2612"
    },
    {
      "channel": 3,
      "note": 83,
      "start": 58.8861,
      "duration": 0.102,
      "velocity": 95,
      "chip": "ym2612"
    },
    {
      "channel": 0,
      "note": 68,
      "start": 58.985,
      "duration": 0.25,
      "velocity": 101,
      "chip": "ym2612"
    },
    {
      "channel": 1,
      "note": 24,
      "start": 58.9861,
      "duration": 0.2499,
      "velocity": 104,
      "chip": "ym2612"
    },
    {
      "channel": 3,
      "note": 83,
      "start": 58.988,
      "duration": 0.0813,
      "velocity": 95,
      "chip": "ym2612"
    },
    {
      "channel": 4,
      "note": 96,
      "start": 58.9892,
      "duration": 0.2133,
      "velocity": 111,
      "chip": "ym2612"
    },
    {
      "channel": 5,
      "note": 83,
      "start": 58.9902,
      "duration": 0.1134,
      "velocity": 92,
      "chip": "ym2612"
    },
    {
      "channel": 3,
      "note": 83,
      "start": 59.0694,
      "duration": 0.0834,
      "velocity": 95,
      "chip": "ym2612"
    },
    {
      "channel": 5,
      "note": 83,
      "start": 59.1037,
      "duration": 0.1367,
      "velocity": 92,
      "chip": "ym2612"
    },
    {
      "channel": 3,
      "note": 83,
      "start": 59.1529,
      "duration": 0.0854,
      "velocity": 95,
      "chip": "ym2612"
    },
    {
      "channel": 0,
      "note": 69,
      "start": 59.235,
      "duration": 0.2667,
      "velocity": 101,
      "chip": "ym2612"
    },
    {
      "channel": 1,
      "note": 48,
      "start": 59.2361,
      "duration": 0.2666,
      "velocity": 104,
      "chip": "ym2612"
    },
    {
      "channel": 2,
      "note": 45,
      "start": 59.2374,
      "duration": 0.2655,
      "velocity": 104,
      "chip": "ym2612"
    },
    {
      "channel": 3,
      "note": 83,
      "start": 59.2383,
      "duration": 0.0978,
      "velocity": 95,
      "chip": "ym2612"
    },
    {
      "channel": 4,
      "note": 95,
      "start": 59.2394,
      "duration": 0.2131,
      "velocity": 111,
      "chip": "ym2612"
    },
    {
      "channel": 5,
      "note": 84,
      "start": 59.2405,
      "duration": 0.2663,
      "velocity": 92,
      "chip": "ym2612"
    },
    {
      "channel": 3,
      "note": 83,
      "start": 59.3362,
      "duration": 0.0831,
      "velocity": 95,
      "chip": "ym2612"
    },
    {
      "channel": 3,
      "note": 83,
      "start": 59.4194,
      "duration": 0.0853,
      "velocity": 95,
      "chip": "ym2612"
    },
    {
      "channel": 0,
      "note": 72,
      "start": 59.5016,
      "duration": 0.1493,
      "velocity": 101,
      "chip": "ym2612"
    },
    {
      "channel": 1,
      "note": 28,
      "start": 59.5028,
      "duration": 0.2664,
      "velocity": 104,
      "chip": "ym2612"
    },
    {
      "channel": 3,
      "note": 83,
      "start": 59.5047,
      "duration": 0.0813,
      "velocity": 95,
      "chip": "ym2612"
    },
    {
      "channel": 4,
      "note": 92,
      "start": 59.5059,
      "duration": 0.2133,
      "velocity": 111,
      "chip": "ym2612"
    },
    {
      "channel": 5,
      "note": 83,
      "start": 59.5069,
      "duration": 0.1302,
      "velocity": 92,
      "chip": "ym2612"
    },
    {
      "channel": 3,
      "note": 83,
      "start": 59.5861,
      "duration": 0.0834,
      "velocity": 95,
      "chip": "ym2612"
    },
    {
      "channel": 5,
      "note": 83,
      "start": 59.6371,
      "duration": 0.1364,
      "velocity": 92,
      "chip": "ym2612"
    },
    {
      "channel": 0,
      "note": 72,
      "start": 59.651,
      "duration": 0.1172,
      "velocity": 101,
      "chip": "ym2612"
    },
    {
      "channel": 3,
      "note": 83,
      "start": 59.6695,
      "duration": 0.1018,
      "velocity": 95,
      "chip": "ym2612"
    },
    {
      "channel": 0,
      "note": 72,
      "start": 59.7681,
      "duration": 0.1164,
      "velocity": 101,
      "chip": "ym2612"
    },
    {
      "channel": 1,
      "note": 47,
      "start": 59.7693,
      "duration": 0.2501,
      "velocity": 104,
      "chip": "ym2612"
    },
    {
      "channel": 2,
      "note": 44,
      "start": 59.7705,
      "duration": 0.249,
      "velocity": 104,
      "chip": "ym2612"
    },
    {
      "channel": 3,
      "note": 83,
      "start": 59.7714,
      "duration": 0.0814,
      "velocity": 95,
      "chip": "ym2612"
    },
    {
      "channel": 4,
      "note": 93,
      "start": 59.7725,
      "duration": 0.2133,
      "velocity": 111,
      "chip": "ym2612"
    },
    {
      "channel": 5,
      "note": 84,
      "start": 59.7737,
      "duration": 0.2498,
      "velocity": 92,
      "chip": "ym2612"
    },
    {
      "channel": 3,
      "note": 83,
      "start": 59.8529,
      "duration": 0.0831,
      "velocity": 95,
      "chip": "ym2612"
    },
    {
      "channel": 0,
      "note": 72,
      "start": 59.8845,
      "duration": 0.1337,
      "velocity": 101,
      "chip": "ym2612"
    },
    {
      "channel": 3,
      "note": 83,
      "start": 59.9361,
      "duration": 0.0845,
      "velocity": 95,
      "chip": "ym2612"
    },
    {
      "channel": 0,
      "note": 71,
      "start": 60.0183,
      "duration": 0.2666,
      "velocity": 101,
      "chip": "ym2612"
    },
    {
      "channel": 1,
      "note": 24,
      "start": 60.0195,
      "duration": 0.2665,
      "velocity": 104,
      "chip": "ym2612"
    },
    {
      "channel": 4,
      "note": 96,
      "start": 60.0224,
      "duration": 0.2133,
      "velocity": 111,
      "chip": "ym2612"
    },
    {
      "channel": 5,
      "note": 83,
      "start": 60.0235,
      "duration": 0.1302,
      "velocity": 92,
      "chip": "ym2612"
    },
    {
      "channel": 5,
      "note": 83,
      "start": 60.1537,
      "duration": 0.1363,
      "velocity": 92,
      "chip": "ym2612"
    },
    {
      "channel": 0,
      "note": 69,
      "start": 60.2849,
      "duration": 0.2667,
      "velocity": 101,
      "chip": "ym2612"
    },
    {
      "channel": 1,
      "note": 48,
      "start": 60.2861,
      "duration": 0.2667,
      "velocity": 104,
      "chip": "ym2612"
    },
    {
      "channel": 2,
      "note": 45,
      "start": 60.2873,
      "duration": 0.2656,
      "velocity": 104,
      "chip": "ym2612"
    },
    {
      "channel": 4,
      "note": 95,
      "start": 60.2889,
      "duration": 0.2136,
      "velocity": 111,
      "chip": "ym2612"
    },
    {
      "channel": 5,
      "note": 84,
      "start": 60.2901,
      "duration": 0.2668,
      "velocity": 92,
      "chip": "ym2612"
    },
    {
      "channel": 0,
      "note": 64,
      "start": 60.5516,
      "duration": 0.1162,
      "velocity": 101,
      "chip": "ym2612"
    },
    {
      "channel": 1,
      "note": 28,
      "start": 60.5528,
      "duration": 0.2497,
      "velocity": 104,
      "chip": "ym2612"
    },
    {
      "channel": 4,
      "note": 92,
      "start": 60.5559,
      "duration": 0.2133,
      "velocity": 111,
      "chip": "ym2612"
    },
    {
      "channel": 5,
      "note": 83,
      "start": 60.557,
      "duration": 0.1138,
      "velocity": 92,
      "chip": "ym2612"
    },
    {
      "channel": 0,
      "note": 64,
      "start": 60.6679,
      "duration": 0.1334,
      "velocity": 101,
      "chip": "ym2612"
    },
    {
      "channel": 5,
      "note": 83,
      "start": 60.6709,
      "duration": 0.1356,
      "velocity": 92,
      "chip": "ym2612"
    },
    {
      "channel": 0,
      "note": 64,
      "start": 60.8014,
      "duration": 0.1495,
      "velocity": 101,
      "chip": "ym2612"
    },
    {
      "channel": 1,
      "note": 47,
      "start": 60.8025,
      "duration": 0.2668,
      "velocity": 104,
      "chip": "ym2612"
    },
    {
      "channel": 2,
      "note": 44,
      "start": 60.8038,
      "duration": 0.2657,
      "velocity": 104,
      "chip": "ym2612"
    },
    {
      "channel": 4,
      "note": 93,
      "start": 60.8054,
      "duration": 0.2137,
      "velocity": 111,
      "chip": "ym2612"
    },
    {
      "channel": 5,
      "note": 84,
      "start": 60.8065,
      "duration": 0.2666,
      "velocity": 92,
      "chip": "ym2612"
    },
    {
      "channel": 0,
      "note": 64,
      "start": 60.951,
      "duration": 0.1173,
      "velocity": 101,
      "chip": "ym2612"
    },
    {
      "channel": 0,
      "note": 68,
      "start": 61.0683,
      "duration": 0.2667,
      "velocity": 101,
      "chip": "ym2612"
    },
    {
      "channel": 1,
      "note": 24,
      "start": 61.0694,
      "duration": 0.2666,
      "velocity": 104,
      "chip": "ym2612"
    },
    {
      "channel": 4,
      "note": 96,
      "start": 61.0721,
      "duration": 0.2137,
      "velocity": 111,
      "chip": "ym2612"
    },
    {
      "channel": 5,
      "note": 83,
      "start": 61.0732,
      "duration": 0.1305,
      "velocity": 92,
      "chip": "ym2612"
    },
    {
      "channel": 5,
      "note": 83,
      "start": 61.2037,
      "duration": 0.1363,
      "velocity": 92,
      "chip": "ym2612"
    },
    {
      "channel": 0,
      "note": 69,
      "start": 61.3349,
      "duration": 0.25,
      "velocity": 101,
      "chip": "ym2612"
    },
    {
      "channel": 1,
      "note": 48,
      "start": 61.3361,
      "duration": 0.2499,
      "velocity": 104,
      "chip": "ym2612"
    },
    {
      "channel": 2,
      "note": 45,
      "start": 61.3373,
      "duration": 0.2499,
      "velocity": 104,
      "chip": "ym2612"
    },
    {
      "channel": 4,
      "note": 95,
      "start": 61.3389,
      "duration": 0.2136,
      "velocity": 111,
      "chip": "ym2612"
    },
    {
      "channel": 5,
      "note": 84,
      "start": 61.3401,
      "duration": 0.25,
      "velocity": 92,
      "chip": "ym2612"
    },
    {
      "channel": 0,
      "note": 64,
      "start": 61.5849,
      "duration": 0.1329,
      "velocity": 101,
      "chip": "ym2612"
    },
    {
      "channel": 1,
      "note": 47,
      "start": 61.5861,
      "duration": 0.2654,
      "velocity": 104,
      "chip": "ym2612"
    },
    {
      "channel": 2,
      "note": 44,
      "start": 61.5873,
      "duration": 0.2649,
      "velocity": 104,
      "chip": "ym2612"
    },
    {
      "channel": 4,
      "note": 92,
      "start": 61.589,
      "duration": 0.2134,
      "velocity": 111,
      "chip": "ym2612"
    },
    {
      "channel": 5,
      "note": 83,
      "start": 61.5901,
      "duration": 0.1307,
      "velocity": 92,
      "chip": "ym2612"
    },
    {
      "channel": 0,
      "note": 64,
      "start": 61.7179,
      "duration": 0.1334,
      "velocity": 101,
      "chip": "ym2612"
    },
    {
      "channel": 5,
      "note": 83,
      "start": 61.7209,
      "duration": 0.1344,
      "velocity": 92,
      "chip": "ym2612"
    },
    {
      "channel": 0,
      "note": 64,
      "start": 61.8513,
      "duration": 0.1332,
      "velocity": 101,
      "chip": "ym2612"
    },
    {
      "channel": 5,
      "note": 83,
      "start": 61.8553,
      "duration": 0.1321,
      "velocity": 92,
      "chip": "ym2612"
    },
    {
      "channel": 0,
      "note": 64,
      "start": 61.9845,
      "duration": 0.1327,
      "velocity": 101,
      "chip": "ym2612"
    },
    {
      "channel": 5,
      "note": 83,
      "start": 61.9875,
      "duration": 0.1366,
      "velocity": 92,
      "chip": "ym2612"
    },
    {
      "channel": 3,
      "note": 87,
      "start": 62.1228,
      "duration": 0.2459,
      "velocity": 113,
      "chip": "ym2612"
    },
    {
      "channel": 0,
      "note": 57,
      "start": 62.6358,
      "duration": 0.2658,
      "velocity": 101,
      "chip": "ym2612"
    },
    {
      "channel": 1,
      "note": 33,
      "start": 62.6369,
      "duration": 0.2658,
      "velocity": 104,
      "chip": "ym2612"
    },
    {
      "channel": 3,
      "note": 51,
      "start": 62.6414,
      "duration": 2.0804,
      "velocity": 74,
      "chip": "ym2612"
    },
    {
      "channel": 4,
      "note": 75,
      "start": 62.6427,
      "duration": 0.2098,
      "velocity": 111,
      "chip": "ym2612"
    },
    {
      "channel": 5,
      "note": 45,
      "start": 62.6461,
      "duration": 4.1772,
      "velocity": 106,
      "chip": "ym2612"
    },
    {
      "channel": 0,
      "note": 60,
      "start": 62.9016,
      "duration": 0.133,
      "velocity": 101,
      "chip": "ym2612"
    },
    {
      "channel": 1,
      "note": 51,
      "start": 62.9028,
      "duration": 0.2499,
      "velocity": 104,
      "chip": "ym2612"
    },
    {
      "channel": 2,
      "note": 48,
      "start": 62.904,
      "duration": 0.2489,
      "velocity": 104,
      "chip": "ym2612"
    },
    {
      "channel": 4,
      "note": 73,
      "start": 62.9058,
      "duration": 0.2134,
      "velocity": 111,
      "chip": "ym2612"
    },
    {
      "channel": 0,
      "note": 60,
      "start": 63.0346,
      "duration": 0.1169,
      "velocity": 101,
      "chip": "ym2612"
    },
    {
      "channel": 0,
      "note": 61,
      "start": 63.1516,
      "duration": 0.133,
      "velocity": 101,
      "chip": "ym2612"
    },
    {
      "channel": 1,
      "note": 27,
      "start": 63.1527,
      "duration": 0.2667,
      "velocity": 104,
      "chip": "ym2612"
    },
    {
      "channel": 4,
      "note": 77,
      "start": 63.1555,
      "duration": 0.2137,
      "velocity": 111,
      "chip": "ym2612"
    },
    {
      "channel": 0,
      "note": 61,
      "start": 63.2846,
      "duration": 0.1336,
      "velocity": 101,
      "chip": "ym2612"
    },
    {
      "channel": 0,
      "note": 63,
      "start": 63.4183,
      "duration": 0.1493,
      "velocity": 101,
      "chip": "ym2612"
    },
    {
      "channel": 1,
      "note": 52,
      "start": 63.4195,
      "duration": 0.2666,
      "velocity": 104,
      "chip": "ym2612"
    },
    {
      "channel": 2,
      "note": 49,
      "start": 63.4207,
      "duration": 0.2655,
      "velocity": 104,
      "chip": "ym2612"
    },
    {
      "channel": 4,
      "note": 75,
      "start": 63.4224,
      "duration": 0.2134,
      "velocity": 111,
      "chip": "ym2612"
    },
    {
      "channel": 0,
      "note": 63,
      "start": 63.5676,
      "duration": 0.1173,
      "velocity": 101,
      "chip": "ym2612"
    },
    {
      "channel": 0,
      "note": 64,
      "start": 63.685,
      "duration": 0.25,
      "velocity": 101,
      "chip": "ym2612"
    },
    {
      "channel": 1,
      "note": 33,
      "start": 63.6861,
      "duration": 0.2499,
      "velocity": 104,
      "chip": "ym2612"
    },
    {
      "channel": 4,
      "note": 83,
      "start": 63.6889,
      "duration": 0.2136,
      "velocity": 111,
      "chip": "ym2612"
    },
    {
      "channel": 0,
      "note": 63,
      "start": 63.9349,
      "duration": 0.133,
      "velocity": 101,
      "chip": "ym2612"
    },
    {
      "channel": 1,
      "note": 51,
      "start": 63.9361,
      "duration": 0.2666,
      "velocity": 104,
      "chip": "ym2612"
    },
    {
      "channel": 2,
      "note": 48,
      "start": 63.9373,
      "duration": 0.2655,
      "velocity": 104,
      "chip": "ym2612"
    },
    {
      "channel": 4,
      "note": 81,
      "start": 63.939,
      "duration": 0.2134,
      "velocity": 111,
      "chip": "ym2612"
    },
    {
      "channel": 0,
      "note": 63,
      "start": 64.068,
      "duration": 0.1336,
      "velocity": 101,
      "chip": "ym2612"
    },
    {
      "channel": 0,
      "note": 61,
      "start": 64.2016,
      "duration": 0.133,
      "velocity": 101,
      "chip": "ym2612"
    },
    {
      "channel": 1,
      "note": 27,
      "start": 64.2027,
      "duration": 0.2667,
      "velocity": 104,
      "chip": "ym2612"
    },
    {
      "channel": 4,
      "note": 84,
      "start": 64.2055,
      "duration": 0.5176,
      "velocity": 111,
      "chip": "ym2612"
    },
    {
      "channel": 0,
      "note": 61,
      "start": 64.3346,
      "duration": 0.1337,
      "velocity": 101,
      "chip": "ym2612"
    },
    {
      "channel": 0,
      "note": 60,
      "start": 64.4683,
      "duration": 0.1328,
      "velocity": 101,
      "chip": "ym2612"
    },
    {
      "channel": 1,
      "note": 52,
      "start": 64.4695,
      "duration": 0.2503,
      "velocity": 104,
      "chip": "ym2612"
    },
    {
      "channel": 2,
      "note": 49,
      "start": 64.4707,
      "duration": 0.2493,
      "velocity": 104,
      "chip": "ym2612"
    },
    {
      "channel": 0,
      "note": 60,
      "start": 64.6012,
      "duration": 0.1174,
      "velocity": 101,
      "chip": "ym2612"
    },
    {
      "channel": 0,
      "note": 57,
      "start": 64.7187,
      "duration": 0.2662,
      "velocity": 101,
      "chip": "ym2612"
    },
    {
      "channel": 1,
      "note": 33,
      "start": 64.7198,
      "duration": 0.2662,
      "velocity": 104,
      "chip": "ym2612"
    },
    {
      "channel": 3,
      "note": 45,
      "start": 64.7219,
      "duration": 2.0994,
      "velocity": 74,
      "chip": "ym2612"
    },
    {
      "channel": 4,
      "note": 87,
      "start": 64.7231,
      "duration": 0.2658,
      "velocity": 111,
      "chip": "ym2612"
    },
    {
      "channel": 0,
      "note": 60,
      "start": 64.985,
      "duration": 0.133,
      "velocity": 101,
      "chip": "ym2612"
    },
    {
      "channel": 1,
      "note": 51,
      "start": 64.9861,
      "duration": 0.2665,
      "velocity": 104,
      "chip": "ym2612"
    },
    {
      "channel": 2,
      "note": 48,
      "start": 64.9873,
      "duration": 0.2655,
      "velocity": 104,
      "chip": "ym2612"
    },
    {
      "channel": 4,
      "note": 83,
      "start": 64.989,
      "duration": 0.2135,
      "velocity": 111,
      "chip": "ym2612"
    },
    {
      "channel": 0,
      "note": 60,
      "start": 65.118,
      "duration": 0.1336,
      "velocity": 101,
      "chip": "ym2612"
    },
    {
      "channel": 0,
      "note": 61,
      "start": 65.2516,
      "duration": 0.133,
      "velocity": 101,
      "chip": "ym2612"
    },
    {
      "channel": 1,
      "note": 27,
      "start": 65.2527,
      "duration": 0.25,
      "velocity": 104,
      "chip": "ym2612"
    },
    {
      "channel": 4,
      "note": 84,
      "start": 65.2555,
      "duration": 0.2137,
      "velocity": 111,
      "chip": "ym2612"
    },
    {
      "channel": 0,
      "note": 61,
      "start": 65.3846,
      "duration": 0.117,
      "velocity": 101,
      "chip": "ym2612"
    },
    {
      "channel": 0,
      "note": 63,
      "start": 65.5016,
      "duration": 0.133,
      "velocity": 101,
      "chip": "ym2612"
    },
    {
      "channel": 1,
      "note": 52,
      "start": 65.5028,
      "duration": 0.2662,
      "velocity": 104,
      "chip": "ym2612"
    },
    {
      "channel": 2,
      "note": 49,
      "start": 65.5041,
      "duration": 0.2651,
      "velocity": 104,
      "chip": "ym2612"
    },
    {
      "channel": 4,
      "note": 79,
      "start": 65.5058,
      "duration": 0.23,
      "velocity": 111,
      "chip": "ym2612"
    },
    {
      "channel": 0,
      "note": 63,
      "start": 65.6346,
      "duration": 0.1326,
      "velocity": 101,
      "chip": "ym2612"
    },
    {
      "channel": 1,
      "note": 33,
      "start": 65.7691,
      "duration": 0.2669,
      "velocity": 104,
      "chip": "ym2612"
    },
    {
      "channel": 4,
      "note": 84,
      "start": 65.7719,
      "duration": 0.2139,
      "velocity": 111,
      "chip": "ym2612"
    },
    {
      "channel": 0,
      "note": 60,
      "start": 66.0349,
      "duration": 0.2499,
      "velocity": 101,
      "chip": "ym2612"
    },
    {
      "channel": 1,
      "note": 51,
      "start": 66.0361,
      "duration": 0.2499,
      "velocity": 104,
      "chip": "ym2612"
    },
    {
      "channel": 2,
      "note": 48,
      "start": 66.0373,
      "duration": 0.2489,
      "velocity": 104,
      "chip": "ym2612"
    },
    {
      "channel": 4,
      "note": 78,
      "start": 66.039,
      "duration": 0.2134,
      "velocity": 111,
      "chip": "ym2612"
    },
    {
      "channel": 0,
      "note": 61,
      "start": 66.2849,
      "duration": 0.133,
      "velocity": 101,
      "chip": "ym2612"
    },
    {
      "channel": 1,
      "note": 27,
      "start": 66.2861,
      "duration": 0.2666,
      "velocity": 104,
      "chip": "ym2612"
    },
    {
      "channel": 4,
      "note": 78,
      "start": 66.2887,
      "duration": 0.2304,
      "velocity": 111,
      "chip": "ym2612"
    },
    {
      "channel": 0,
      "note": 61,
      "start": 66.4179,
      "duration": 0.1337,
      "velocity": 101,
      "chip": "ym2612"
    },
    {
      "channel": 0,
      "note": 55,
      "start": 66.5516,
      "duration": 0.133,
      "velocity": 101,
      "chip": "ym2612"
    },
    {
      "channel": 1,
      "note": 52,
      "start": 66.5527,
      "duration": 0.2674,
      "velocity": 104,
      "chip": "ym2612"
    },
    {
      "channel": 2,
      "note": 49,
      "start": 66.554,
      "duration": 0.2663,
      "velocity": 104,
      "chip": "ym2612"
    },
    {
      "channel": 4,
      "note": 72,
      "start": 66.5557,
      "duration": 0.2134,
      "velocity": 111,
      "chip": "ym2612"
    },
    {
      "channel": 0,
      "note": 55,
      "start": 66.6846,
      "duration": 0.1344,
      "velocity": 101,
      "chip": "ym2612"
    },
    {
      "channel": 0,
      "note": 57,
      "start": 66.8191,
      "duration": 0.2492,
      "velocity": 101,
      "chip": "ym2612"
    },
    {
      "channel": 1,
      "note": 33,
      "start": 66.8202,
      "duration": 0.2492,
      "velocity": 104,
      "chip": "ym2612"
    },
    {
      "channel": 4,
      "note": 87,
      "start": 66.8232,
      "duration": 0.2125,
      "velocity": 111,
      "chip": "ym2612"
    },
    {
      "channel": 0,
      "note": 60,
      "start": 67.0683,
      "duration": 0.1328,
      "velocity": 101,
      "chip": "ym2612"
    },
    {
      "channel": 1,
      "note": 51,
      "start": 67.0695,
      "duration": 0.2665,
      "velocity": 104,
      "chip": "ym2612"
    },
    {
      "channel": 2,
      "note": 48,
      "start": 67.0707,
      "duration": 0.2655,
      "velocity": 104,
      "chip": "ym2612"
    },
    {
      "channel": 4,
      "note": 84,
      "start": 67.0723,
      "duration": 0.2302,
      "velocity": 111,
      "chip": "ym2612"
    },
    {
      "channel": 5,
      "note": 72,
      "start": 67.0734,
      "duration": 0.2663,
      "velocity": 92,
      "chip": "ym2612"
    },
    {
      "channel": 0,
      "note": 60,
      "start": 67.2012,
      "duration": 0.1337,
      "velocity": 101,
      "chip": "ym2612"
    },
    {
      "channel": 0,
      "note": 61,
      "start": 67.3349,
      "duration": 0.1329,
      "velocity": 101,
      "chip": "ym2612"
    },
    {
      "channel": 1,
      "note": 27,
      "start": 67.3361,
      "duration": 0.2667,
      "velocity": 104,
      "chip": "ym2612"
    },
    {
      "channel": 4,
      "note": 85,
      "start": 67.3387,
      "duration": 0.2138,
      "velocity": 111,
      "chip": "ym2612"
    },
    {
      "channel": 5,
      "note": 73,
      "start": 67.3398,
      "duration": 0.131,
      "velocity": 92,
      "chip": "ym2612"
    },
    {
      "channel": 0,
      "note": 61,
      "start": 67.4679,
      "duration": 0.1337,
      "velocity": 101,
      "chip": "ym2612"
    },
    {
      "channel": 5,
      "note": 73,
      "start": 67.4709,
      "duration": 0.1359,
      "velocity": 92,
      "chip": "ym2612"
    },
    {
      "channel": 0,
      "note": 63,
      "start": 67.6016,
      "duration": 0.1329,
      "velocity": 101,
      "chip": "ym2612"
    },
    {
      "channel": 1,
      "note": 52,
      "start": 67.6028,
      "duration": 0.2665,
      "velocity": 104,
      "chip": "ym2612"
    },
    {
      "channel": 2,
      "note": 49,
      "start": 67.6041,
      "duration": 0.2655,
      "velocity": 104,
      "chip": "ym2612"
    },
    {
      "channel": 4,
      "note": 81,
      "start": 67.6056,
      "duration": 0.2135,
      "velocity": 111,
      "chip": "ym2612"
    },
    {
      "channel": 5,
      "note": 76,
      "start": 67.6068,
      "duration": 0.1307,
      "velocity": 92,
      "chip": "ym2612"
    },
    {
      "channel": 0,
      "note": 63,
      "start": 67.7346,
      "duration": 0.1337,
      "velocity": 101,
      "chip": "ym2612"
    },
    {
      "channel": 5,
      "note": 76,
      "start": 67.7375,
      "duration": 0.1352,
      "velocity": 92,
      "chip": "ym2612"
    },
    {
      "channel": 0,
      "note": 64,
      "start": 67.8683,
      "duration": 0.2499,
      "velocity": 101,
      "chip": "ym2612"
    },
    {
      "channel": 1,
      "note": 33,
      "start": 67.8694,
      "duration": 0.2499,
      "velocity": 104,
      "chip": "ym2612"
    },
    {
      "channel": 5,
      "note": 75,
      "start": 67.8728,
      "duration": 1.0343,
      "velocity": 92,
      "chip": "ym2612"
    },
    {
      "channel": 0,
      "note": 63,
      "start": 68.1182,
      "duration": 0.1329,
      "velocity": 101,
      "chip": "ym2612"
    },
    {
      "channel": 1,
      "note": 51,
      "start": 68.1193,
      "duration": 0.2666,
      "velocity": 104,
      "chip": "ym2612"
    },
    {
      "channel": 2,
      "note": 48,
      "start": 68.1206,
      "duration": 0.2655,
      "velocity": 104,
      "chip": "ym2612"
    },
    {
      "channel": 4,
      "note": 87,
      "start": 68.1222,
      "duration": 0.2136,
      "velocity": 111,
      "chip": "ym2612"
    },
    {
      "channel": 0,
      "note": 63,
      "start": 68.2512,
      "duration": 0.1337,
      "velocity": 101,
      "chip": "ym2612"
    },
    {
      "channel": 0,
      "note": 61,
      "start": 68.3849,
      "duration": 0.1329,
      "velocity": 101,
      "chip": "ym2612"
    },
    {
      "channel": 1,
      "note": 27,
      "start": 68.386,
      "duration": 0.2667,
      "velocity": 104,
      "chip": "ym2612"
    },
    {
      "channel": 4,
      "note": 84,
      "start": 68.3886,
      "duration": 0.2139,
      "velocity": 111,
      "chip": "ym2612"
    },
    {
      "channel": 0,
      "note": 61,
      "start": 68.5179,
      "duration": 0.1337,
      "velocity": 101,
      "chip": "ym2612"
    },
    {
      "channel": 0,
      "note": 60,
      "start": 68.6516,
      "duration": 0.1162,
      "velocity": 101,
      "chip": "ym2612"
    },
    {
      "channel": 1,
      "note": 52,
      "start": 68.6527,
      "duration": 0.2505,
      "velocity": 104,
      "chip": "ym2612"
    },
    {
      "channel": 2,
      "note": 49,
      "start": 68.6539,
      "duration": 0.2494,
      "velocity": 104,
      "chip": "ym2612"
    },
    {
      "channel": 4,
      "note": 85,
      "start": 68.6556,
      "duration": 0.2136,
      "velocity": 111,
      "chip": "ym2612"
    },
    {
      "channel": 0,
      "note": 60,
      "start": 68.7679,
      "duration": 0.1342,
      "velocity": 101,
      "chip": "ym2612"
    },
    {
      "channel": 0,
      "note": 57,
      "start": 68.9021,
      "duration": 0.2662,
      "velocity": 101,
      "chip": "ym2612"
    },
    {
      "channel": 1,
      "note": 33,
      "start": 68.9032,
      "duration": 0.2661,
      "velocity": 104,
      "chip": "ym2612"
    },
    {
      "channel": 4,
      "note": 87,
      "start": 68.9062,
      "duration": 0.2129,
      "velocity": 111,
      "chip": "ym2612"
    },
    {
      "channel": 5,
      "note": 75,
      "start": 68.9071,
      "duration": 0.2663,
      "velocity": 92,
      "chip": "ym2612"
    },
    {
      "channel": 0,
      "note": 60,
      "start": 69.1683,
      "duration": 0.1328,
      "velocity": 101,
      "chip": "ym2612"
    },
    {
      "channel": 1,
      "note": 51,
      "start": 69.1695,
      "duration": 0.2665,
      "velocity": 104,
      "chip": "ym2612"
    },
    {
      "channel": 2,
      "note": 48,
      "start": 69.1707,
      "duration": 0.2655,
      "velocity": 104,
      "chip": "ym2612"
    },
    {
      "channel": 4,
      "note": 84,
      "start": 69.1723,
      "duration": 0.2135,
      "velocity": 111,
      "chip": "ym2612"
    },
    {
      "channel": 5,
      "note": 72,
      "start": 69.1735,
      "duration": 0.2662,
      "velocity": 92,
      "chip": "ym2612"
    },
    {
      "channel": 0,
      "note": 60,
      "start": 69.3012,
      "duration": 0.1337,
      "velocity": 101,
      "chip": "ym2612"
    },
    {
      "channel": 0,
      "note": 61,
      "start": 69.4349,
      "duration": 0.1163,
      "velocity": 101,
      "chip": "ym2612"
    },
    {
      "channel": 1,
      "note": 27,
      "start": 69.4361,
      "duration": 0.25,
      "velocity": 104,
      "chip": "ym2612"
    },
    {
      "channel": 4,
      "note": 85,
      "start": 69.4387,
      "duration": 0.2138,
      "velocity": 111,
      "chip": "ym2612"
    },
    {
      "channel": 5,
      "note": 73,
      "start": 69.4398,
      "duration": 0.1144,
      "velocity": 92,
      "chip": "ym2612"
    },
    {
      "channel": 0,
      "note": 61,
      "start": 69.5513,
      "duration": 0.1337,
      "velocity": 101,
      "chip": "ym2612"
    },
    {
      "channel": 5,
      "note": 73,
      "start": 69.5542,
      "duration": 0.1359,
      "velocity": 92,
      "chip": "ym2612"
    },
    {
      "channel": 0,
      "note": 63,
      "start": 69.685,
      "duration": 0.1329,
      "velocity": 101,
      "chip": "ym2612"
    },
    {
      "channel": 1,
      "note": 52,
      "start": 69.6861,
      "duration": 0.2662,
      "velocity": 104,
      "chip": "ym2612"
    },
    {
      "channel": 2,
      "note": 49,
      "start": 69.6874,
      "duration": 0.2651,
      "velocity": 104,
      "chip": "ym2612"
    },
    {
      "channel": 4,
      "note": 81,
      "start": 69.689,
      "duration": 0.2135,
      "velocity": 111,
      "chip": "ym2612"
    },
    {
      "channel": 5,
      "note": 76,
      "start": 69.6901,
      "duration": 0.1307,
      "velocity": 92,
      "chip": "ym2612"
    },
    {
      "channel": 0,
      "note": 63,
      "start": 69.8179,
      "duration": 0.1326,
      "velocity": 101,
      "chip": "ym2612"
    },
    {
      "channel": 5,
      "note": 76,
      "start": 69.8209,
      "duration": 0.1352,
      "velocity": 92,
      "chip": "ym2612"
    },
    {
      "channel": 1,
      "note": 33,
      "start": 69.9524,
      "duration": 0.2669,
      "velocity": 104,
      "chip": "ym2612"
    },
    {
      "channel": 4,
      "note": 87,
      "start": 69.9549,
      "duration": 0.2141,
      "velocity": 111,
      "chip": "ym2612"
    },
    {
      "channel": 5,
      "note": 75,
      "start": 69.9561,
      "duration": 0.5169,
      "velocity": 92,
      "chip": "ym2612"
    },
    {
      "channel": 0,
      "note": 60,
      "start": 70.2183,
      "duration": 0.2499,
      "velocity": 101,
      "chip": "ym2612"
    },
    {
      "channel": 1,
      "note": 51,
      "start": 70.2194,
      "duration": 0.2499,
      "velocity": 104,
      "chip": "ym2612"
    },
    {
      "channel": 2,
      "note": 48,
      "start": 70.2206,
      "duration": 0.2489,
      "velocity": 104,
      "chip": "ym2612"
    },
    {
      "channel": 4,
      "note": 84,
      "start": 70.2222,
      "duration": 0.2136,
      "velocity": 111,
      "chip": "ym2612"
    },
    {
      "channel": 0,
      "note": 61,
      "start": 70.4683,
      "duration": 0.1329,
      "velocity": 101,
      "chip": "ym2612"
    },
    {
      "channel": 1,
      "note": 27,
      "start": 70.4694,
      "duration": 0.2667,
      "velocity": 104,
      "chip": "ym2612"
    },
    {
      "channel": 4,
      "note": 85,
      "start": 70.4719,
      "duration": 0.2139,
      "velocity": 111,
      "chip": "ym2612"
    },
    {
      "channel": 5,
      "note": 76,
      "start": 70.4731,
      "duration": 0.131,
      "velocity": 92,
      "chip": "ym2612"
    },
    {
      "channel": 0,
      "note": 61,
      "start": 70.6013,
      "duration": 0.1337,
      "velocity": 101,
      "chip": "ym2612"
    },
    {
      "channel": 5,
      "note": 76,
      "start": 70.6042,
      "duration": 0.1359,
      "velocity": 92,
      "chip": "ym2612"
    },
    {
      "channel": 0,
      "note": 55,
      "start": 70.735,
      "duration": 0.1329,
      "velocity": 101,
      "chip": "ym2612"
    },
    {
      "channel": 1,
      "note": 52,
      "start": 70.7361,
      "duration": 0.2674,
      "velocity": 104,
      "chip": "ym2612"
    },
    {
      "channel": 2,
      "note": 49,
      "start": 70.7374,
      "duration": 0.2662,
      "velocity": 104,
      "chip": "ym2612"
    },
    {
      "channel": 4,
      "note": 81,
      "start": 70.739,
      "duration": 0.2135,
      "velocity": 111,
      "chip": "ym2612"
    },
    {
      "channel": 5,
      "note": 81,
      "start": 70.7401,
      "duration": 0.1307,
      "velocity": 92,
      "chip": "ym2612"
    },
    {
      "channel": 0,
      "note": 55,
      "start": 70.8679,
      "duration": 0.1344,
      "velocity": 101,
      "chip": "ym2612"
    },
    {
      "channel": 5,
      "note": 81,
      "start": 70.8709,
      "duration": 0.1394,
      "velocity": 92,
      "chip": "ym2612"
    },
    {
      "channel": 0,
      "note": 57,
      "start": 71.0024,
      "duration": 0.2492,
      "velocity": 101,
      "chip": "ym2612"
    },
    {
      "channel": 1,
      "note": 33,
      "start": 71.0036,
      "duration": 0.2491,
      "velocity": 104,
      "chip": "ym2612"
    },
    {
      "channel": 3,
      "note": 79,
      "start": 71.0079,
      "duration": 0.1618,
      "velocity": 95,
      "chip": "ym2612"
    },
    {
      "channel": 4,
      "note": 87,
      "start": 71.0091,
      "duration": 0.21,
      "velocity": 111,
      "chip": "ym2612"
    },
    {
      "channel": 5,
      "note": 79,
      "start": 71.0103,
      "duration": 1.5635,
      "velocity": 92,
      "chip": "ym2612"
    },
    {
      "channel": 3,
      "note": 78,
      "start": 71.1698,
      "duration": 0.1666,
      "velocity": 95,
      "chip": "ym2612"
    },
    {
      "channel": 0,
      "note": 60,
      "start": 71.2516,
      "duration": 0.1329,
      "velocity": 101,
      "chip": "ym2612"
    },
    {
      "channel": 1,
      "note": 51,
      "start": 71.2527,
      "duration": 0.2666,
      "velocity": 104,
      "chip": "ym2612"
    },
    {
      "channel": 2,
      "note": 48,
      "start": 71.254,
      "duration": 0.2655,
      "velocity": 104,
      "chip": "ym2612"
    },
    {
      "channel": 4,
      "note": 84,
      "start": 71.2556,
      "duration": 0.2136,
      "velocity": 111,
      "chip": "ym2612"
    },
    {
      "channel": 3,
      "note": 77,
      "start": 71.3364,
      "duration": 0.1851,
      "velocity": 95,
      "chip": "ym2612"
    },
    {
      "channel": 0,
      "note": 60,
      "start": 71.3845,
      "duration": 0.1337,
      "velocity": 101,
      "chip": "ym2612"
    },
    {
      "channel": 0,
      "note": 61,
      "start": 71.5183,
      "duration": 0.1329,
      "velocity": 101,
      "chip": "ym2612"
    },
    {
      "channel": 1,
      "note": 27,
      "start": 71.5194,
      "duration": 0.2666,
      "velocity": 104,
      "chip": "ym2612"
    },
    {
      "channel": 3,
      "note": 76,
      "start": 71.5216,
      "duration": 0.1648,
      "velocity": 95,
      "chip": "ym2612"
    },
    {
      "channel": 4,
      "note": 85,
      "start": 71.5227,
      "duration": 0.2131,
      "velocity": 111,
      "chip": "ym2612"
    },
    {
      "channel": 0,
      "note": 61,
      "start": 71.6512,
      "duration": 0.1337,
      "velocity": 101,
      "chip": "ym2612"
    },
    {
      "channel": 3,
      "note": 77,
      "start": 71.6864,
      "duration": 0.1833,
      "velocity": 95,
      "chip": "ym2612"
    },
    {
      "channel": 0,
      "note": 63,
      "start": 71.785,
      "duration": 0.1162,
      "velocity": 101,
      "chip": "ym2612"
    },
    {
      "channel": 1,
      "note": 52,
      "start": 71.7861,
      "duration": 0.2499,
      "velocity": 104,
      "chip": "ym2612"
    },
    {
      "channel": 2,
      "note": 49,
      "start": 71.7873,
      "duration": 0.2489,
      "velocity": 104,
      "chip": "ym2612"
    },
    {
      "channel": 4,
      "note": 81,
      "start": 71.7889,
      "duration": 0.2136,
      "velocity": 111,
      "chip": "ym2612"
    },
    {
      "channel": 3,
      "note": 78,
      "start": 71.8698,
      "duration": 0.1684,
      "velocity": 95,
      "chip": "ym2612"
    },
    {
      "channel": 0,
      "note": 63,
      "start": 71.9012,
      "duration": 0.1337,
      "velocity": 101,
      "chip": "ym2612"
    },
    {
      "channel": 0,
      "note": 64,
      "start": 72.0349,
      "duration": 0.2666,
      "velocity": 101,
      "chip": "ym2612"
    },
    {
      "channel": 1,
      "note": 33,
      "start": 72.0361,
      "duration": 0.2666,
      "velocity": 104,
      "chip": "ym2612"
    },
    {
      "channel": 3,
      "note": 79,
      "start": 72.0382,
      "duration": 0.1814,
      "velocity": 95,
      "chip": "ym2612"
    },
    {
      "channel": 3,
      "note": 78,
      "start": 72.2197,
      "duration": 0.1667,
      "velocity": 95,
      "chip": "ym2612"
    },
    {
      "channel": 0,
      "note": 63,
      "start": 72.3016,
      "duration": 0.1329,
      "velocity": 101,
      "chip": "ym2612"
    },
    {
      "channel": 1,
      "note": 51,
      "start": 72.3027,
      "duration": 0.2667,
      "velocity": 104,
      "chip": "ym2612"
    },
    {
      "channel": 2,
      "note": 48,
      "start": 72.3039,
      "duration": 0.2657,
      "velocity": 104,
      "chip": "ym2612"
    },
    {
      "channel": 4,
      "note": 87,
      "start": 72.3056,
      "duration": 0.2136,
      "velocity": 111,
      "chip": "ym2612"
    },
    {
      "channel": 3,
      "note": 77,
      "start": 72.3864,
      "duration": 0.1851,
      "velocity": 95,
      "chip": "ym2612"
    },
    {
      "channel": 0,
      "note": 63,
      "start": 72.4345,
      "duration": 0.1338,
      "velocity": 101,
      "chip": "ym2612"
    },
    {
      "channel": 0,
      "note": 61,
      "start": 72.5683,
      "duration": 0.1162,
      "velocity": 101,
      "chip": "ym2612"
    },
    {
      "channel": 1,
      "note": 27,
      "start": 72.5695,
      "duration": 0.2499,
      "velocity": 104,
      "chip": "ym2612"
    },
    {
      "channel": 3,
      "note": 76,
      "start": 72.5716,
      "duration": 0.1637,
      "velocity": 95,
      "chip": "ym2612"
    },
    {
      "channel": 4,
      "note": 84,
      "start": 72.5728,
      "duration": 0.213,
      "velocity": 111,
      "chip": "ym2612"
    },
    {
      "channel": 5,
      "note": 78,
      "start": 72.5739,
      "duration": 0.1139,
      "velocity": 92,
      "chip": "ym2612"
    },
    {
      "channel": 0,
      "note": 61,
      "start": 72.6846,
      "duration": 0.1337,
      "velocity": 101,
      "chip": "ym2612"
    },
    {
      "channel": 5,
      "note": 79,
      "start": 72.6878,
      "duration": 0.1356,
      "velocity": 92,
      "chip": "ym2612"
    },
    {
      "channel": 0,
      "note": 60,
      "start": 72.8183,
      "duration": 0.1329,
      "velocity": 101,
      "chip": "ym2612"
    },
    {
      "channel": 1,
      "note": 52,
      "start": 72.8194,
      "duration": 0.2671,
      "velocity": 104,
      "chip": "ym2612"
    },
    {
      "channel": 2,
      "note": 49,
      "start": 72.8207,
      "duration": 0.266,
      "velocity": 104,
      "chip": "ym2612"
    },
    {
      "channel": 4,
      "note": 85,
      "start": 72.8222,
      "duration": 0.2136,
      "velocity": 111,
      "chip": "ym2612"
    },
    {
      "channel": 5,
      "note": 78,
      "start": 72.8234,
      "duration": 0.1307,
      "velocity": 92,
      "chip": "ym2612"
    },
    {
      "channel": 0,
      "note": 60,
      "start": 72.9513,
      "duration": 0.1341,
      "velocity": 101,
      "chip": "ym2612"
    },
    {
      "channel": 5,
      "note": 78,
      "start": 72.9542,
      "duration": 0.1368,
      "velocity": 92,
      "chip": "ym2612"
    },
    {
      "channel": 0,
      "note": 57,
      "start": 73.0854,
      "duration": 0.2662,
      "velocity": 101,
      "chip": "ym2612"
    },
    {
      "channel": 1,
      "note": 33,
      "start": 73.0865,
      "duration": 0.2661,
      "velocity": 104,
      "chip": "ym2612"
    },
    {
      "channel": 3,
      "note": 72,
      "start": 73.0887,
      "duration": 0.1644,
      "velocity": 95,
      "chip": "ym2612"
    },
    {
      "channel": 4,
      "note": 87,
      "start": 73.0899,
      "duration": 0.2126,
      "velocity": 111,
      "chip": "ym2612"
    },
    {
      "channel": 5,
      "note": 76,
      "start": 73.091,
      "duration": 2.0828,
      "velocity": 92,
      "chip": "ym2612"
    },
    {
      "channel": 3,
      "note": 71,
      "start": 73.2531,
      "duration": 0.1833,
      "velocity": 95,
      "chip": "ym2612"
    },
    {
      "channel": 0,
      "note": 60,
      "start": 73.3516,
      "duration": 0.1163,
      "velocity": 101,
      "chip": "ym2612"
    },
    {
      "channel": 1,
      "note": 51,
      "start": 73.3527,
      "duration": 0.25,
      "velocity": 104,
      "chip": "ym2612"
    },
    {
      "channel": 2,
      "note": 48,
      "start": 73.354,
      "duration": 0.2489,
      "velocity": 104,
      "chip": "ym2612"
    },
    {
      "channel": 4,
      "note": 84,
      "start": 73.3556,
      "duration": 0.2136,
      "velocity": 111,
      "chip": "ym2612"
    },
    {
      "channel": 3,
      "note": 70,
      "start": 73.4364,
      "duration": 0.1685,
      "velocity": 95,
      "chip": "ym2612"
    },
    {
      "channel": 0,
      "note": 60,
      "start": 73.4679,
      "duration": 0.1337,
      "velocity": 101,
      "chip": "ym2612"
    },
    {
      "channel": 0,
      "note": 61,
      "start": 73.6016,
      "duration": 0.1328,
      "velocity": 101,
      "chip": "ym2612"
    },
    {
      "channel": 1,
      "note": 27,
      "start": 73.6028,
      "duration": 0.2665,
      "velocity": 104,
      "chip": "ym2612"
    },
    {
      "channel": 3,
      "note": 69,
      "start": 73.6049,
      "duration": 0.1814,
      "velocity": 95,
      "chip": "ym2612"
    },
    {
      "channel": 4,
      "note": 85,
      "start": 73.606,
      "duration": 0.2131,
      "velocity": 111,
      "chip": "ym2612"
    },
    {
      "channel": 0,
      "note": 61,
      "start": 73.7345,
      "duration": 0.1337,
      "velocity": 101,
      "chip": "ym2612"
    },
    {
      "channel": 3,
      "note": 70,
      "start": 73.7864,
      "duration": 0.1667,
      "velocity": 95,
      "chip": "ym2612"
    },
    {
      "channel": 0,
      "note": 63,
      "start": 73.8683,
      "duration": 0.1329,
      "velocity": 101,
      "chip": "ym2612"
    },
    {
      "channel": 1,
      "note": 52,
      "start": 73.8694,
      "duration": 0.2663,
      "velocity": 104,
      "chip": "ym2612"
    },
    {
      "channel": 2,
      "note": 49,
      "start": 73.8707,
      "duration": 0.2652,
      "velocity": 104,
      "chip": "ym2612"
    },
    {
      "channel": 4,
      "note": 81,
      "start": 73.8722,
      "duration": 0.2136,
      "velocity": 111,
      "chip": "ym2612"
    },
    {
      "channel": 3,
      "note": 71,
      "start": 73.9531,
      "duration": 0.1847,
      "velocity": 95,
      "chip": "ym2612"
    },
    {
      "channel": 0,
      "note": 63,
      "start": 74.0012,
      "duration": 0.1327,
      "velocity": 101,
      "chip": "ym2612"
    },
    {
      "channel": 1,
      "note": 33,
      "start": 74.1357,
      "duration": 0.2502,
      "velocity": 104,
      "chip": "ym2612"
    },
    {
      "channel": 3,
      "note": 72,
      "start": 74.1379,
      "duration": 0.1651,
      "velocity": 95,
      "chip": "ym2612"
    },
    {
      "channel": 4,
      "note": 87,
      "start": 74.139,
      "duration": 0.2134,
      "velocity": 111,
      "chip": "ym2612"
    },
    {
      "channel": 3,
      "note": 71,
      "start": 74.303,
      "duration": 0.1833,
      "velocity": 95,
      "chip": "ym2612"
    },
    {
      "channel": 0,
      "note": 60,
      "start": 74.3849,
      "duration": 0.2667,
      "velocity": 101,
      "chip": "ym2612"
    },
    {
      "channel": 1,
      "note": 51,
      "start": 74.3861,
      "duration": 0.2666,
      "velocity": 104,
      "chip": "ym2612"
    },
    {
      "channel": 2,
      "note": 48,
      "start": 74.3873,
      "duration": 0.2655,
      "velocity": 104,
      "chip": "ym2612"
    },
    {
      "channel": 4,
      "note": 84,
      "start": 74.3889,
      "duration": 0.2136,
      "velocity": 111,
      "chip": "ym2612"
    },
    {
      "channel": 3,
      "note": 70,
      "start": 74.4864,
      "duration": 0.1684,
      "velocity": 95,
      "chip": "ym2612"
    },
    {
      "channel": 0,
      "note": 61,
      "start": 74.6516,
      "duration": 0.1329,
      "velocity": 101,
      "chip": "ym2612"
    },
    {
      "channel": 1,
      "note": 27,
      "start": 74.6527,
      "duration": 0.2666,
      "velocity": 104,
      "chip": "ym2612"
    },
    {
      "channel": 3,
      "note": 69,
      "start": 74.6549,
      "duration": 0.1637,
      "velocity": 95,
      "chip": "ym2612"
    },
    {
      "channel": 4,
      "note": 85,
      "start": 74.656,
      "duration": 0.213,
      "velocity": 111,
      "chip": "ym2612"
    },
    {
      "channel": 0,
      "note": 61,
      "start": 74.7845,
      "duration": 0.1337,
      "velocity": 101,
      "chip": "ym2612"
    },
    {
      "channel": 0,
      "note": 55,
      "start": 74.9183,
      "duration": 0.1329,
      "velocity": 101,
      "chip": "ym2612"
    },
    {
      "channel": 1,
      "note": 52,
      "start": 74.9194,
      "duration": 0.2505,
      "velocity": 104,
      "chip": "ym2612"
    },
    {
      "channel": 2,
      "note": 49,
      "start": 74.9206,
      "duration": 0.2495,
      "velocity": 104,
      "chip": "ym2612"
    },
    {
      "channel": 4,
      "note": 81,
      "start": 74.9222,
      "duration": 0.2136,
      "velocity": 111,
      "chip": "ym2612"
    },
    {
      "channel": 0,
      "note": 55,
      "start": 75.0512,
      "duration": 0.1176,
      "velocity": 101,
      "chip": "ym2612"
    },
    {
      "channel": 0,
      "note": 57,
      "start": 75.1688,
      "duration": 0.2661,
      "velocity": 101,
      "chip": "ym2612"
    },
    {
      "channel": 1,
      "note": 33,
      "start": 75.17,
      "duration": 0.2661,
      "velocity": 104,
      "chip": "ym2612"
    },
    {
      "channel": 4,
      "note": 87,
      "start": 75.1731,
      "duration": 0.2127,
      "velocity": 111,
      "chip": "ym2612"
    },
    {
      "channel": 5,
      "note": 76,
      "start": 75.1739,
      "duration": 0.2662,
      "velocity": 92,
      "chip": "ym2612"
    },
    {
      "channel": 0,
      "note": 60,
      "start": 75.435,
      "duration": 0.1328,
      "velocity": 101,
      "chip": "ym2612"
    },
    {
      "channel": 1,
      "note": 51,
      "start": 75.4361,
      "duration": 0.2665,
      "velocity": 104,
      "chip": "ym2612"
    },
    {
      "channel": 2,
      "note": 48,
      "start": 75.4374,
      "duration": 0.2655,
      "velocity": 104,
      "chip": "ym2612"
    },
    {
      "channel": 4,
      "note": 84,
      "start": 75.439,
      "duration": 0.2135,
      "velocity": 111,
      "chip": "ym2612"
    },
    {
      "channel": 5,
      "note": 72,
      "start": 75.4401,
      "duration": 0.2663,
      "velocity": 92,
      "chip": "ym2612"
    },
    {
      "channel": 0,
      "note": 60,
      "start": 75.5679,
      "duration": 0.1337,
      "velocity": 101,
      "chip": "ym2612"
    },
    {
      "channel": 0,
      "note": 61,
      "start": 75.7016,
      "duration": 0.1329,
      "velocity": 101,
      "chip": "ym2612"
    },
    {
      "channel": 1,
      "note": 27,
      "start": 75.7027,
      "duration": 0.25,
      "velocity": 104,
      "chip": "ym2612"
    },
    {
      "channel": 4,
      "note": 85,
      "start": 75.7054,
      "duration": 0.2137,
      "velocity": 111,
      "chip": "ym2612"
    },
    {
      "channel": 5,
      "note": 73,
      "start": 75.7065,
      "duration": 0.1309,
      "velocity": 92,
      "chip": "ym2612"
    },
    {
      "channel": 0,
      "note": 61,
      "start": 75.8346,
      "duration": 0.117,
      "velocity": 101,
      "chip": "ym2612"
    },
    {
      "channel": 5,
      "note": 73,
      "start": 75.8375,
      "duration": 0.1192,
      "velocity": 92,
      "chip": "ym2612"
    },
    {
      "channel": 0,
      "note": 63,
      "start": 75.9516,
      "duration": 0.1329,
      "velocity": 101,
      "chip": "ym2612"
    },
    {
      "channel": 1,
      "note": 52,
      "start": 75.9528,
      "duration": 0.2665,
      "velocity": 104,
      "chip": "ym2612"
    },
    {
      "channel": 2,
      "note": 49,
      "start": 75.9541,
      "duration": 0.2655,
      "velocity": 104,
      "chip": "ym2612"
    },
    {
      "channel": 4,
      "note": 81,
      "start": 75.9556,
      "duration": 0.2135,
      "velocity": 111,
      "chip": "ym2612"
    },
    {
      "channel": 5,
      "note": 76,
      "start": 75.9568,
      "duration": 0.1307,
      "velocity": 92,
      "chip": "ym2612"
    },
    {
      "channel": 0,
      "note": 63,
      "start": 76.0846,
      "duration": 0.1337,
      "velocity": 101,
      "chip": "ym2612"
    },
    {
      "channel": 5,
      "note": 76,
      "start": 76.0875,
      "duration": 0.1353,
      "velocity": 92,
      "chip": "ym2612"
    },
    {
      "channel": 0,
      "note": 64,
      "start": 76.2183,
      "duration": 0.2666,
      "velocity": 101,
      "chip": "ym2612"
    },
    {
      "channel": 1,
      "note": 33,
      "start": 76.2194,
      "duration": 0.2666,
      "velocity": 104,
      "chip": "ym2612"
    },
    {
      "channel": 5,
      "note": 75,
      "start": 76.2229,
      "duration": 1.0508,
      "velocity": 92,
      "chip": "ym2612"
    },
    {
      "channel": 0,
      "note": 63,
      "start": 76.4849,
      "duration": 0.1329,
      "velocity": 101,
      "chip": "ym2612"
    },
    {
      "channel": 1,
      "note": 51,
      "start": 76.486,
      "duration": 0.25,
      "velocity": 104,
      "chip": "ym2612"
    },
    {
      "channel": 2,
      "note": 48,
      "start": 76.4873,
      "duration": 0.2489,
      "velocity": 104,
      "chip": "ym2612"
    },
    {
      "channel": 4,
      "note": 87,
      "start": 76.4889,
      "duration": 0.2136,
      "velocity": 111,
      "chip": "ym2612"
    },
    {
      "channel": 0,
      "note": 63,
      "start": 76.6179,
      "duration": 0.117,
      "velocity": 101,
      "chip": "ym2612"
    },
    {
      "channel": 0,
      "note": 61,
      "start": 76.7349,
      "duration": 0.1329,
      "velocity": 101,
      "chip": "ym2612"
    },
    {
      "channel": 1,
      "note": 27,
      "start": 76.7361,
      "duration": 0.2666,
      "velocity": 104,
      "chip": "ym2612"
    },
    {
      "channel": 4,
      "note": 84,
      "start": 76.7387,
      "duration": 0.2138,
      "velocity": 111,
      "chip": "ym2612"
    },
    {
      "channel": 0,
      "note": 61,
      "start": 76.8679,
      "duration": 0.1337,
      "velocity": 101,
      "chip": "ym2612"
    },
    {
      "channel": 0,
      "note": 60,
      "start": 77.0016,
      "duration": 0.1329,
      "velocity": 101,
      "chip": "ym2612"
    },
    {
      "channel": 1,
      "note": 52,
      "start": 77.0027,
      "duration": 0.2671,
      "velocity": 104,
      "chip": "ym2612"
    },
    {
      "channel": 2,
      "note": 49,
      "start": 77.0039,
      "duration": 0.266,
      "velocity": 104,
      "chip": "ym2612"
    },
    {
      "channel": 4,
      "note": 85,
      "start": 77.0056,
      "duration": 0.2136,
      "velocity": 111,
      "chip": "ym2612"
    },
    {
      "channel": 0,
      "note": 60,
      "start": 77.1345,
      "duration": 0.1341,
      "velocity": 101,
      "chip": "ym2612"
    },
    {
      "channel": 0,
      "note": 57,
      "start": 77.2687,
      "duration": 0.2496,
      "velocity": 101,
      "chip": "ym2612"
    },
    {
      "channel": 1,
      "note": 33,
      "start": 77.2698,
      "duration": 0.2495,
      "velocity": 104,
      "chip": "ym2612"
    },
    {
      "channel": 4,
      "note": 87,
      "start": 77.2729,
      "duration": 0.2129,
      "velocity": 111,
      "chip": "ym2612"
    },
    {
      "channel": 5,
      "note": 75,
      "start": 77.2738,
      "duration": 0.2496,
      "velocity": 92,
      "chip": "ym2612"
    },
    {
      "channel": 0,
      "note": 60,
      "start": 77.5183,
      "duration": 0.1328,
      "velocity": 101,
      "chip": "ym2612"
    },
    {
      "channel": 1,
      "note": 51,
      "start": 77.5195,
      "duration": 0.2665,
      "velocity": 104,
      "chip": "ym2612"
    },
    {
      "channel": 2,
      "note": 48,
      "start": 77.5207,
      "duration": 0.2655,
      "velocity": 104,
      "chip": "ym2612"
    },
    {
      "channel": 4,
      "note": 84,
      "start": 77.5223,
      "duration": 0.2135,
      "velocity": 111,
      "chip": "ym2612"
    },
    {
      "channel": 5,
      "note": 72,
      "start": 77.5235,
      "duration": 0.2663,
      "velocity": 92,
      "chip": "ym2612"
    },
    {
      "channel": 0,
      "note": 60,
      "start": 77.6512,
      "duration": 0.1337,
      "velocity": 101,
      "chip": "ym2612"
    },
    {
      "channel": 0,
      "note": 61,
      "start": 77.7849,
      "duration": 0.1329,
      "velocity": 101,
      "chip": "ym2612"
    },
    {
      "channel": 1,
      "note": 27,
      "start": 77.7861,
      "duration": 0.2667,
      "velocity": 104,
      "chip": "ym2612"
    },
    {
      "channel": 4,
      "note": 85,
      "start": 77.7887,
      "duration": 0.2137,
      "velocity": 111,
      "chip": "ym2612"
    },
    {
      "channel": 5,
      "note": 73,
      "start": 77.7899,
      "duration": 0.1309,
      "velocity": 92,
      "chip": "ym2612"
    },
    {
      "channel": 0,
      "note": 61,
      "start": 77.9179,
      "duration": 0.1337,
      "velocity": 101,
      "chip": "ym2612"
    },
    {
      "channel": 5,
      "note": 73,
      "start": 77.9209,
      "duration": 0.1359,
      "velocity": 92,
      "chip": "ym2612"
    },
    {
      "channel": 0,
      "note": 63,
      "start": 78.0516,
      "duration": 0.1329,
      "velocity": 101,
      "chip": "ym2612"
    },
    {
      "channel": 1,
      "note": 52,
      "start": 78.0528,
      "duration": 0.2495,
      "velocity": 104,
      "chip": "ym2612"
    },
    {
      "channel": 2,
      "note": 49,
      "start": 78.0541,
      "duration": 0.2485,
      "velocity": 104,
      "chip": "ym2612"
    },
    {
      "channel": 4,
      "note": 81,
      "start": 78.0556,
      "duration": 0.2135,
      "velocity": 111,
      "chip": "ym2612"
    },
    {
      "channel": 5,
      "note": 76,
      "start": 78.0568,
      "duration": 0.1307,
      "velocity": 92,
      "chip": "ym2612"
    },
    {
      "channel": 0,
      "note": 63,
      "start": 78.1846,
      "duration": 0.116,
      "velocity": 101,
      "chip": "ym2612"
    },
    {
      "channel": 5,
      "note": 76,
      "start": 78.1875,
      "duration": 0.1186,
      "velocity": 92,
      "chip": "ym2612"
    },
    {
      "channel": 1,
      "note": 33,
      "start": 78.3024,
      "duration": 0.2669,
      "velocity": 104,
      "chip": "ym2612"
    },
    {
      "channel": 4,
      "note": 87,
      "start": 78.3051,
      "duration": 0.2307,
      "velocity": 111,
      "chip": "ym2612"
    },
    {
      "channel": 5,
      "note": 75,
      "start": 78.3062,
      "duration": 0.5336,
      "velocity": 92,
      "chip": "ym2612"
    },
    {
      "channel": 0,
      "note": 60,
      "start": 78.5683,
      "duration": 0.2666,
      "velocity": 101,
      "chip": "ym2612"
    },
    {
      "channel": 1,
      "note": 51,
      "start": 78.5694,
      "duration": 0.2666,
      "velocity": 104,
      "chip": "ym2612"
    },
    {
      "channel": 2,
      "note": 48,
      "start": 78.5706,
      "duration": 0.2656,
      "velocity": 104,
      "chip": "ym2612"
    },
    {
      "channel": 4,
      "note": 84,
      "start": 78.5722,
      "duration": 0.2136,
      "velocity": 111,
      "chip": "ym2612"
    },
    {
      "channel": 0,
      "note": 61,
      "start": 78.8349,
      "duration": 0.1329,
      "velocity": 101,
      "chip": "ym2612"
    },
    {
      "channel": 1,
      "note": 27,
      "start": 78.8361,
      "duration": 0.25,
      "velocity": 104,
      "chip": "ym2612"
    },
    {
      "channel": 4,
      "note": 85,
      "start": 78.8387,
      "duration": 0.2137,
      "velocity": 111,
      "chip": "ym2612"
    },
    {
      "channel": 5,
      "note": 76,
      "start": 78.8398,
      "duration": 0.131,
      "velocity": 92,
      "chip": "ym2612"
    },
    {
      "channel": 0,
      "note": 61,
      "start": 78.9679,
      "duration": 0.117,
      "velocity": 101,
      "chip": "ym2612"
    },
    {
      "channel": 5,
      "note": 76,
      "start": 78.9709,
      "duration": 0.1191,
      "velocity": 92,
      "chip": "ym2612"
    },
    {
      "channel": 0,
      "note": 55,
      "start": 79.085,
      "duration": 0.1329,
      "velocity": 101,
      "chip": "ym2612"
    },
    {
      "channel": 1,
      "note": 52,
      "start": 79.0861,
      "duration": 0.2672,
      "velocity": 104,
      "chip": "ym2612"
    },
    {
      "channel": 2,
      "note": 49,
      "start": 79.0873,
      "duration": 0.2662,
      "velocity": 104,
      "chip": "ym2612"
    },
    {
      "channel": 4,
      "note": 81,
      "start": 79.089,
      "duration": 0.2302,
      "velocity": 111,
      "chip": "ym2612"
    },
    {
      "channel": 5,
      "note": 81,
      "start": 79.0901,
      "duration": 0.1307,
      "velocity": 92,
      "chip": "ym2612"
    },
    {
      "channel": 0,
      "note": 55,
      "start": 79.2179,
      "duration": 0.1342,
      "velocity": 101,
      "chip": "ym2612"
    },
    {
      "channel": 5,
      "note": 81,
      "start": 79.2209,
      "duration": 0.137,
      "velocity": 92,
      "chip": "ym2612"
    },
    {
      "channel": 0,
      "note": 57,
      "start": 79.3522,
      "duration": 0.266,
      "velocity": 101,
      "chip": "ym2612"
    },
    {
      "channel": 1,
      "note": 33,
      "start": 79.3534,
      "duration": 0.266,
      "velocity": 104,
      "chip": "ym2612"
    },
    {
      "channel": 3,
      "note": 79,
      "start": 79.3555,
      "duration": 0.1808,
      "velocity": 95,
      "chip": "ym2612"
    },
    {
      "channel": 4,
      "note": 87,
      "start": 79.3567,
      "duration": 0.2124,
      "velocity": 111,
      "chip": "ym2612"
    },
    {
      "channel": 5,
      "note": 79,
      "start": 79.3579,
      "duration": 3.6656,
      "velocity": 92,
      "chip": "ym2612"
    },
    {
      "channel": 3,
      "note": 78,
      "start": 79.5364,
      "duration": 0.1667,
      "velocity": 95,
      "chip": "ym2612"
    },
    {
      "channel": 0,
      "note": 60,
      "start": 79.6183,
      "duration": 0.1329,
      "velocity": 101,
      "chip": "ym2612"
    },
    {
      "channel": 1,
      "note": 51,
      "start": 79.6194,
      "duration": 0.25,
      "velocity": 104,
      "chip": "ym2612"
    },
    {
      "channel": 2,
      "note": 48,
      "start": 79.6207,
      "duration": 0.2489,
      "velocity": 104,
      "chip": "ym2612"
    },
    {
      "channel": 4,
      "note": 84,
      "start": 79.6222,
      "duration": 0.2136,
      "velocity": 111,
      "chip": "ym2612"
    },
    {
      "channel": 3,
      "note": 77,
      "start": 79.7031,
      "duration": 0.1685,
      "velocity": 95,
      "chip": "ym2612"
    },
    {
      "channel": 0,
      "note": 60,
      "start": 79.7512,
      "duration": 0.1171,
      "velocity": 101,
      "chip": "ym2612"
    },
    {
      "channel": 0,
      "note": 61,
      "start": 79.8683,
      "duration": 0.1328,
      "velocity": 101,
      "chip": "ym2612"
    },
    {
      "channel": 1,
      "note": 27,
      "start": 79.8695,
      "duration": 0.2665,
      "velocity": 104,
      "chip": "ym2612"
    },
    {
      "channel": 3,
      "note": 76,
      "start": 79.8716,
      "duration": 0.1814,
      "velocity": 95,
      "chip": "ym2612"
    },
    {
      "channel": 4,
      "note": 85,
      "start": 79.8727,
      "duration": 0.2298,
      "velocity": 111,
      "chip": "ym2612"
    },
    {
      "channel": 0,
      "note": 61,
      "start": 80.0012,
      "duration": 0.1337,
      "velocity": 101,
      "chip": "ym2612"
    },
    {
      "channel": 3,
      "note": 77,
      "start": 80.053,
      "duration": 0.1667,
      "velocity": 95,
      "chip": "ym2612"
    },
    {
      "channel": 0,
      "note": 63,
      "start": 80.1349,
      "duration": 0.1329,
      "velocity": 101,
      "chip": "ym2612"
    },
    {
      "channel": 1,
      "note": 52,
      "start": 80.1361,
      "duration": 0.2666,
      "velocity": 104,
      "chip": "ym2612"
    },
    {
      "channel": 2,
      "note": 49,
      "start": 80.1373,
      "duration": 0.2655,
      "velocity": 104,
      "chip": "ym2612"
    },
    {
      "channel": 4,
      "note": 81,
      "start": 80.1389,
      "duration": 0.2136,
      "velocity": 111,
      "chip": "ym2612"
    },
    {
      "channel": 3,
      "note": 78,
      "start": 80.2198,
      "duration": 0.1851,
      "velocity": 95,
      "chip": "ym2612"
    },
    {
      "channel": 0,
      "note": 63,
      "start": 80.2679,
      "duration": 0.1337,
      "velocity": 101,
      "chip": "ym2612"
    },
    {
      "channel": 0,
      "note": 64,
      "start": 80.4016,
      "duration": 0.2666,
      "velocity": 101,
      "chip": "ym2612"
    },
    {
      "channel": 1,
      "note": 33,
      "start": 80.4027,
      "duration": 0.2666,
      "velocity": 104,
      "chip": "ym2612"
    },
    {
      "channel": 3,
      "note": 79,
      "start": 80.4049,
      "duration": 0.1647,
      "velocity": 95,
      "chip": "ym2612"
    },
    {
      "channel": 3,
      "note": 78,
      "start": 80.5697,
      "duration": 0.1833,
      "velocity": 95,
      "chip": "ym2612"
    },
    {
      "channel": 0,
      "note": 63,
      "start": 80.6683,
      "duration": 0.1162,
      "velocity": 101,
      "chip": "ym2612"
    },
    {
      "channel": 1,
      "note": 51,
      "start": 80.6694,
      "duration": 0.2499,
      "velocity": 104,
      "chip": "ym2612"
    },
    {
      "channel": 2,
      "note": 48,
      "start": 80.6706,
      "duration": 0.2489,
      "velocity": 104,
      "chip": "ym2612"
    },
    {
      "channel": 4,
      "note": 87,
      "start": 80.6722,
      "duration": 0.2136,
      "velocity": 111,
      "chip": "ym2612"
    },
    {
      "channel": 3,
      "note": 77,
      "start": 80.7531,
      "duration": 0.1684,
      "velocity": 95,
      "chip": "ym2612"
    },
    {
      "channel": 0,
      "note": 63,
      "start": 80.7845,
      "duration": 0.1337,
      "velocity": 101,
      "chip": "ym2612"
    },
    {
      "channel": 0,
      "note": 61,
      "start": 80.9183,
      "duration": 0.1493,
      "velocity": 101,
      "chip": "ym2612"
    },
    {
      "channel": 1,
      "note": 27,
      "start": 80.9194,
      "duration": 0.2666,
      "velocity": 104,
      "chip": "ym2612"
    },
    {
      "channel": 3,
      "note": 76,
      "start": 80.9216,
      "duration": 0.1804,
      "velocity": 95,
      "chip": "ym2612"
    },
    {
      "channel": 4,
      "note": 84,
      "start": 80.9227,
      "duration": 0.213,
      "velocity": 111,
      "chip": "ym2612"
    },
    {
      "channel": 0,
      "note": 61,
      "start": 81.0676,
      "duration": 0.1172,
      "velocity": 101,
      "chip": "ym2612"
    },
    {
      "channel": 0,
      "note": 60,
      "start": 81.1849,
      "duration": 0.1329,
      "velocity": 101,
      "chip": "ym2612"
    },
    {
      "channel": 1,
      "note": 52,
      "start": 81.1861,
      "duration": 0.2671,
      "velocity": 104,
      "chip": "ym2612"
    },
    {
      "channel": 2,
      "note": 49,
      "start": 81.1873,
      "duration": 0.266,
      "velocity": 104,
      "chip": "ym2612"
    },
    {
      "channel": 4,
      "note": 85,
      "start": 81.1889,
      "duration": 0.2136,
      "velocity": 111,
      "chip": "ym2612"
    },
    {
      "channel": 0,
      "note": 60,
      "start": 81.3179,
      "duration": 0.1341,
      "velocity": 101,
      "chip": "ym2612"
    },
    {
      "channel": 0,
      "note": 57,
      "start": 81.452,
      "duration": 0.2496,
      "velocity": 101,
      "chip": "ym2612"
    },
    {
      "channel": 1,
      "note": 33,
      "start": 81.4532,
      "duration": 0.2495,
      "velocity": 104,
      "chip": "ym2612"
    },
    {
      "channel": 3,
      "note": 79,
      "start": 81.4553,
      "duration": 0.1644,
      "velocity": 95,
      "chip": "ym2612"
    },
    {
      "channel": 4,
      "note": 87,
      "start": 81.4565,
      "duration": 0.2126,
      "velocity": 111,
      "chip": "ym2612"
    },
    {
      "channel": 3,
      "note": 78,
      "start": 81.6197,
      "duration": 0.1667,
      "velocity": 95,
      "chip": "ym2612"
    },
    {
      "channel": 0,
      "note": 60,
      "start": 81.7016,
      "duration": 0.1329,
      "velocity": 101,
      "chip": "ym2612"
    },
    {
      "channel": 1,
      "note": 51,
      "start": 81.7027,
      "duration": 0.2666,
      "velocity": 104,
      "chip": "ym2612"
    },
    {
      "channel": 2,
      "note": 48,
      "start": 81.704,
      "duration": 0.2655,
      "velocity": 104,
      "chip": "ym2612"
    },
    {
      "channel": 4,
      "note": 84,
      "start": 81.7056,
      "duration": 0.2136,
      "velocity": 111,
      "chip": "ym2612"
    },
    {
      "channel": 3,
      "note": 77,
      "start": 81.7864,
      "duration": 0.1851,
      "velocity": 95,
      "chip": "ym2612"
    },
    {
      "channel": 0,
      "note": 60,
      "start": 81.8345,
      "duration": 0.1337,
      "velocity": 101,
      "chip": "ym2612"
    },
    {
      "channel": 0,
      "note": 61,
      "start": 81.9683,
      "duration": 0.1329,
      "velocity": 101,
      "chip": "ym2612"
    },
    {
      "channel": 1,
      "note": 27,
      "start": 81.9694,
      "duration": 0.2666,
      "velocity": 104,
      "chip": "ym2612"
    },
    {
      "channel": 3,
      "note": 76,
      "start": 81.9716,
      "duration": 0.1648,
      "velocity": 95,
      "chip": "ym2612"
    },
    {
      "channel": 4,
      "note": 85,
      "start": 81.9727,
      "duration": 0.2131,
      "velocity": 111,
      "chip": "ym2612"
    },
    {
      "channel": 0,
      "note": 61,
      "start": 82.1012,
      "duration": 0.1337,
      "velocity": 101,
      "chip": "ym2612"
    },
    {
      "channel": 3,
      "note": 77,
      "start": 82.1364,
      "duration": 0.1833,
      "velocity": 95,
      "chip": "ym2612"
    },
    {
      "channel": 0,
      "note": 63,
      "start": 82.235,
      "duration": 0.1162,
      "velocity": 101,
      "chip": "ym2612"
    },
    {
      "channel": 1,
      "note": 52,
      "start": 82.2361,
      "duration": 0.2496,
      "velocity": 104,
      "chip": "ym2612"
    },
    {
      "channel": 2,
      "note": 49,
      "start": 82.2373,
      "duration": 0.2485,
      "velocity": 104,
      "chip": "ym2612"
    },
    {
      "channel": 4,
      "note": 81,
      "start": 82.2389,
      "duration": 0.2136,
      "velocity": 111,
      "chip": "ym2612"
    },
    {
      "channel": 3,
      "note": 78,
      "start": 82.3198,
      "duration": 0.1681,
      "velocity": 95,
      "chip": "ym2612"
    },
    {
      "channel": 0,
      "note": 63,
      "start": 82.3512,
      "duration": 0.1327,
      "velocity": 101,
      "chip": "ym2612"
    },
    {
      "channel": 1,
      "note": 33,
      "start": 82.4857,
      "duration": 0.2669,
      "velocity": 104,
      "chip": "ym2612"
    },
    {
      "channel": 3,
      "note": 79,
      "start": 82.4879,
      "duration": 0.1817,
      "velocity": 95,
      "chip": "ym2612"
    },
    {
      "channel": 4,
      "note": 87,
      "start": 82.489,
      "duration": 0.2135,
      "velocity": 111,
      "chip": "ym2612"
    },
    {
      "channel": 3,
      "note": 78,
      "start": 82.6697,
      "duration": 0.1667,
      "velocity": 95,
      "chip": "ym2612"
    },
    {
      "channel": 0,
      "note": 60,
      "start": 82.7516,
      "duration": 0.2667,
      "velocity": 101,
      "chip": "ym2612"
    },
    {
      "channel": 1,
      "note": 51,
      "start": 82.7527,
      "duration": 0.2667,
      "velocity": 104,
      "chip": "ym2612"
    },
    {
      "channel": 2,
      "note": 48,
      "start": 82.754,
      "duration": 0.2656,
      "velocity": 104,
      "chip": "ym2612"
    },
    {
      "channel": 4,
      "note": 84,
      "start": 82.7556,
      "duration": 0.2136,
      "velocity": 111,
      "chip": "ym2612"
    },
    {
      "channel": 3,
      "note": 77,
      "start": 82.8364,
      "duration": 0.1851,
      "velocity": 95,
      "chip": "ym2612"
    },
    {
      "channel": 0,
      "note": 61,
      "start": 83.0183,
      "duration": 0.1162,
      "velocity": 101,
      "chip": "ym2612"
    },
    {
      "channel": 1,
      "note": 27,
      "start": 83.0195,
      "duration": 0.2499,
      "velocity": 104,
      "chip": "ym2612"
    },
    {
      "channel": 3,
      "note": 76,
      "start": 83.0216,
      "duration": 0.1637,
      "velocity": 95,
      "chip": "ym2612"
    },
    {
      "channel": 4,
      "note": 85,
      "start": 83.0228,
      "duration": 0.213,
      "velocity": 111,
      "chip": "ym2612"
    },
    {
      "channel": 5,
      "note": 79,
      "start": 83.0236,
      "duration": 0.2488,
      "velocity": 92,
      "chip": "ym2612"
    },
    {
      "channel": 0,
      "note": 61,
      "start": 83.1345,
      "duration": 0.1337,
      "velocity": 101,
      "chip": "ym2612"
    },
    {
      "channel": 0,
      "note": 55,
      "start": 83.2683,
      "duration": 0.1329,
      "velocity": 101,
      "chip": "ym2612"
    },
    {
      "channel": 1,
      "note": 52,
      "start": 83.2694,
      "duration": 0.2672,
      "velocity": 104,
      "chip": "ym2612"
    },
    {
      "channel": 2,
      "note": 49,
      "start": 83.2707,
      "duration": 0.2661,
      "velocity": 104,
      "chip": "ym2612"
    },
    {
      "channel": 4,
      "note": 81,
      "start": 83.2722,
      "duration": 0.2136,
      "velocity": 111,
      "chip": "ym2612"
    },
    {
      "channel": 0,
      "note": 55,
      "start": 83.4012,
      "duration": 0.1342,
      "velocity": 101,
      "chip": "ym2612"
    },
    {
      "channel": 0,
      "note": 62,
      "start": 83.5355,
      "duration": 0.1323,
      "velocity": 101,
      "chip": "ym2612"
    },
    {
      "channel": 1,
      "note": 26,
      "start": 83.5366,
      "duration": 0.2659,
      "velocity": 104,
      "chip": "ym2612"
    },
    {
      "channel": 4,
      "note": 89,
      "start": 83.5397,
      "duration": 0.2127,
      "velocity": 111,
      "chip": "ym2612"
    },
    {
      "channel": 0,
      "note": 62,
      "start": 83.6679,
      "duration": 0.1335,
      "velocity": 101,
      "chip": "ym2612"
    },
    {
      "channel": 0,
      "note": 62,
      "start": 83.8015,
      "duration": 0.1163,
      "velocity": 101,
      "chip": "ym2612"
    },
    {
      "channel": 1,
      "note": 44,
      "start": 83.8026,
      "duration": 0.2495,
      "velocity": 104,
      "chip": "ym2612"
    },
    {
      "channel": 2,
      "note": 41,
      "start": 83.8038,
      "duration": 0.2484,
      "velocity": 104,
      "chip": "ym2612"
    },
    {
      "channel": 4,
      "note": 93,
      "start": 83.8055,
      "duration": 0.2137,
      "velocity": 111,
      "chip": "ym2612"
    },
    {
      "channel": 5,
      "note": 77,
      "start": 83.8065,
      "duration": 0.2493,
      "velocity": 92,
      "chip": "ym2612"
    },
    {
      "channel": 0,
      "note": 62,
      "start": 83.9179,
      "duration": 0.1499,
      "velocity": 101,
      "chip": "ym2612"
    },
    {
      "channel": 1,
      "note": 21,
      "start": 84.0522,
      "duration": 0.2672,
      "velocity": 104,
      "chip": "ym2612"
    },
    {
      "channel": 4,
      "note": 86,
      "start": 84.0548,
      "duration": 0.2143,
      "velocity": 111,
      "chip": "ym2612"
    },
    {
      "channel": 5,
      "note": 78,
      "start": 84.0559,
      "duration": 0.1311,
      "velocity": 92,
      "chip": "ym2612"
    },
    {
      "channel": 0,
      "note": 65,
      "start": 84.0679,
      "duration": 0.2504,
      "velocity": 101,
      "chip": "ym2612"
    },
    {
      "channel": 5,
      "note": 78,
      "start": 84.1871,
      "duration": 0.1363,
      "velocity": 92,
      "chip": "ym2612"
    },
    {
      "channel": 0,
      "note": 66,
      "start": 84.3183,
      "duration": 0.2666,
      "velocity": 101,
      "chip": "ym2612"
    },
    {
      "channel": 1,
      "note": 45,
      "start": 84.3195,
      "duration": 0.2665,
      "velocity": 104,
      "chip": "ym2612"
    },
    {
      "channel": 2,
      "note": 42,
      "start": 84.3207,
      "duration": 0.2655,
      "velocity": 104,
      "chip": "ym2612"
    },
    {
      "channel": 4,
      "note": 90,
      "start": 84.3223,
      "duration": 0.2135,
      "velocity": 111,
      "chip": "ym2612"
    },
    {
      "channel": 5,
      "note": 80,
      "start": 84.3235,
      "duration": 0.1302,
      "velocity": 92,
      "chip": "ym2612"
    },
    {
      "channel": 5,
      "note": 80,
      "start": 84.4537,
      "duration": 0.1358,
      "velocity": 92,
      "chip": "ym2612"
    },
    {
      "channel": 0,
      "note": 62,
      "start": 84.5849,
      "duration": 0.1162,
      "velocity": 101,
      "chip": "ym2612"
    },
    {
      "channel": 1,
      "note": 26,
      "start": 84.5861,
      "duration": 0.2497,
      "velocity": 104,
      "chip": "ym2612"
    },
    {
      "channel": 5,
      "note": 83,
      "start": 84.5895,
      "duration": 0.517,
      "velocity": 92,
      "chip": "ym2612"
    },
    {
      "channel": 0,
      "note": 62,
      "start": 84.7012,
      "duration": 0.1334,
      "velocity": 101,
      "chip": "ym2612"
    },
    {
      "channel": 0,
      "note": 62,
      "start": 84.8346,
      "duration": 0.1332,
      "velocity": 101,
      "chip": "ym2612"
    },
    {
      "channel": 1,
      "note": 44,
      "start": 84.8358,
      "duration": 0.2668,
      "velocity": 104,
      "chip": "ym2612"
    },
    {
      "channel": 2,
      "note": 41,
      "start": 84.8371,
      "duration": 0.2658,
      "velocity": 104,
      "chip": "ym2612"
    },
    {
      "channel": 4,
      "note": 93,
      "start": 84.8387,
      "duration": 0.2138,
      "velocity": 111,
      "chip": "ym2612"
    },
    {
      "channel": 0,
      "note": 62,
      "start": 84.9679,
      "duration": 0.1337,
      "velocity": 101,
      "chip": "ym2612"
    },
    {
      "channel": 0,
      "note": 65,
      "start": 85.1016,
      "duration": 0.2667,
      "velocity": 101,
      "chip": "ym2612"
    },
    {
      "channel": 1,
      "note": 21,
      "start": 85.1027,
      "duration": 0.2666,
      "velocity": 104,
      "chip": "ym2612"
    },
    {
      "channel": 4,
      "note": 89,
      "start": 85.1054,
      "duration": 0.2137,
      "velocity": 111,
      "chip": "ym2612"
    },
    {
      "channel": 5,
      "note": 80,
      "start": 85.1065,
      "duration": 0.1305,
      "velocity": 92,
      "chip": "ym2612"
    },
    {
      "channel": 5,
      "note": 80,
      "start": 85.2371,
      "duration": 0.1363,
      "velocity": 92,
      "chip": "ym2612"
    },
    {
      "channel": 0,
      "note": 66,
      "start": 85.3683,
      "duration": 0.2504,
      "velocity": 101,
      "chip": "ym2612"
    },
    {
      "channel": 1,
      "note": 45,
      "start": 85.3694,
      "duration": 0.2503,
      "velocity": 104,
      "chip": "ym2612"
    },
    {
      "channel": 2,
      "note": 42,
      "start": 85.3707,
      "duration": 0.2493,
      "velocity": 104,
      "chip": "ym2612"
    },
    {
      "channel": 4,
      "note": 90,
      "start": 85.3722,
      "duration": 0.2136,
      "velocity": 111,
      "chip": "ym2612"
    },
    {
      "channel": 5,
      "note": 78,
      "start": 85.3734,
      "duration": 0.1136,
      "velocity": 92,
      "chip": "ym2612"
    },
    {
      "channel": 5,
      "note": 78,
      "start": 85.4871,
      "duration": 0.1359,
      "velocity": 92,
      "chip": "ym2612"
    },
    {
      "channel": 0,
      "note": 62,
      "start": 85.6186,
      "duration": 0.1325,
      "velocity": 101,
      "chip": "ym2612"
    },
    {
      "channel": 1,
      "note": 26,
      "start": 85.6198,
      "duration": 0.2656,
      "velocity": 104,
      "chip": "ym2612"
    },
    {
      "channel": 4,
      "note": 89,
      "start": 85.6229,
      "duration": 0.2129,
      "velocity": 111,
      "chip": "ym2612"
    },
    {
      "channel": 0,
      "note": 62,
      "start": 85.7512,
      "duration": 0.1497,
      "velocity": 101,
      "chip": "ym2612"
    },
    {
      "channel": 1,
      "note": 44,
      "start": 85.8855,
      "duration": 0.2672,
      "velocity": 104,
      "chip": "ym2612"
    },
    {
      "channel": 2,
      "note": 41,
      "start": 85.8867,
      "duration": 0.2662,
      "velocity": 104,
      "chip": "ym2612"
    },
    {
      "channel": 4,
      "note": 93,
      "start": 85.8883,
      "duration": 0.2141,
      "velocity": 111,
      "chip": "ym2612"
    },
    {
      "channel": 5,
      "note": 77,
      "start": 85.8894,
      "duration": 0.2671,
      "velocity": 92,
      "chip": "ym2612"
    },
    {
      "channel": 0,
      "note": 62,
      "start": 85.901,
      "duration": 0.1168,
      "velocity": 101,
      "chip": "ym2612"
    },
    {
      "channel": 0,
      "note": 62,
      "start": 86.0179,
      "duration": 0.1337,
      "velocity": 101,
      "chip": "ym2612"
    },
    {
      "channel": 0,
      "note": 65,
      "start": 86.1516,
      "duration": 0.25,
      "velocity": 101,
      "chip": "ym2612"
    },
    {
      "channel": 1,
      "note": 21,
      "start": 86.1527,
      "duration": 0.2499,
      "velocity": 104,
      "chip": "ym2612"
    },
    {
      "channel": 4,
      "note": 86,
      "start": 86.1554,
      "duration": 0.2137,
      "velocity": 111,
      "chip": "ym2612"
    },
    {
      "channel": 5,
      "note": 78,
      "start": 86.1565,
      "duration": 0.1138,
      "velocity": 92,
      "chip": "ym2612"
    },
    {
      "channel": 5,
      "note": 78,
      "start": 86.2704,
      "duration": 0.1363,
      "velocity": 92,
      "chip": "ym2612"
    },
    {
      "channel": 0,
      "note": 66,
      "start": 86.4016,
      "duration": 0.2667,
      "velocity": 101,
      "chip": "ym2612"
    },
    {
      "channel": 1,
      "note": 45,
      "start": 86.4027,
      "duration": 0.2666,
      "velocity": 104,
      "chip": "ym2612"
    },
    {
      "channel": 2,
      "note": 42,
      "start": 86.404,
      "duration": 0.2655,
      "velocity": 104,
      "chip": "ym2612"
    },
    {
      "channel": 4,
      "note": 90,
      "start": 86.4056,
      "duration": 0.2136,
      "velocity": 111,
      "chip": "ym2612"
    },
    {
      "channel": 5,
      "note": 80,
      "start": 86.4067,
      "duration": 0.1303,
      "velocity": 92,
      "chip": "ym2612"
    },
    {
      "channel": 5,
      "note": 80,
      "start": 86.5371,
      "duration": 0.1361,
      "velocity": 92,
      "chip": "ym2612"
    },
    {
      "channel": 0,
      "note": 62,
      "start": 86.6683,
      "duration": 0.1329,
      "velocity": 101,
      "chip": "ym2612"
    },
    {
      "channel": 1,
      "note": 26,
      "start": 86.6694,
      "duration": 0.2664,
      "velocity": 104,
      "chip": "ym2612"
    },
    {
      "channel": 4,
      "note": 89,
      "start": 86.6721,
      "duration": 0.2137,
      "velocity": 111,
      "chip": "ym2612"
    },
    {
      "channel": 5,
      "note": 74,
      "start": 86.6732,
      "duration": 1.0508,
      "velocity": 92,
      "chip": "ym2612"
    },
    {
      "channel": 0,
      "note": 62,
      "start": 86.8012,
      "duration": 0.1335,
      "velocity": 101,
      "chip": "ym2612"
    },
    {
      "channel": 0,
      "note": 62,
      "start": 86.9347,
      "duration": 0.1332,
      "velocity": 101,
      "chip": "ym2612"
    },
    {
      "channel": 1,
      "note": 44,
      "start": 86.9359,
      "duration": 0.2501,
      "velocity": 104,
      "chip": "ym2612"
    },
    {
      "channel": 2,
      "note": 41,
      "start": 86.9371,
      "duration": 0.249,
      "velocity": 104,
      "chip": "ym2612"
    },
    {
      "channel": 3,
      "note": 77,
      "start": 86.9382,
      "duration": 0.2499,
      "velocity": 95,
      "chip": "ym2612"
    },
    {
      "channel": 4,
      "note": 93,
      "start": 86.9394,
      "duration": 0.2131,
      "velocity": 111,
      "chip": "ym2612"
    },
    {
      "channel": 0,
      "note": 62,
      "start": 87.0679,
      "duration": 0.1171,
      "velocity": 101,
      "chip": "ym2612"
    },
    {
      "channel": 0,
      "note": 65,
      "start": 87.1849,
      "duration": 0.2667,
      "velocity": 101,
      "chip": "ym2612"
    },
    {
      "channel": 1,
      "note": 21,
      "start": 87.1861,
      "duration": 0.2666,
      "velocity": 104,
      "chip": "ym2612"
    },
    {
      "channel": 3,
      "note": 78,
      "start": 87.1882,
      "duration": 0.2668,
      "velocity": 95,
      "chip": "ym2612"
    },
    {
      "channel": 4,
      "note": 86,
      "start": 87.1894,
      "duration": 0.2131,
      "velocity": 111,
      "chip": "ym2612"
    },
    {
      "channel": 0,
      "note": 66,
      "start": 87.4516,
      "duration": 0.267,
      "velocity": 101,
      "chip": "ym2612"
    },
    {
      "channel": 1,
      "note": 45,
      "start": 87.4527,
      "duration": 0.2671,
      "velocity": 104,
      "chip": "ym2612"
    },
    {
      "channel": 2,
      "note": 42,
      "start": 87.454,
      "duration": 0.266,
      "velocity": 104,
      "chip": "ym2612"
    },
    {
      "channel": 3,
      "note": 80,
      "start": 87.4551,
      "duration": 0.2668,
      "velocity": 95,
      "chip": "ym2612"
    },
    {
      "channel": 4,
      "note": 90,
      "start": 87.4562,
      "duration": 0.2129,
      "velocity": 111,
      "chip": "ym2612"
    },
    {
      "channel": 0,
      "note": 64,
      "start": 87.7187,
      "duration": 0.1324,
      "velocity": 101,
      "chip": "ym2612"
    },
    {
      "channel": 1,
      "note": 28,
      "start": 87.7198,
      "duration": 0.2494,
      "velocity": 104,
      "chip": "ym2612"
    },
    {
      "channel": 3,
      "note": 83,
      "start": 87.722,
      "duration": 0.0807,
      "velocity": 95,
      "chip": "ym2612"
    },
    {
      "channel": 4,
      "note": 92,
      "start": 87.7232,
      "duration": 0.2126,
      "velocity": 111,
      "chip": "ym2612"
    },
    {
      "channel": 5,
      "note": 74,
      "start": 87.7241,
      "duration": 0.2495,
      "velocity": 92,
      "chip": "ym2612"
    },
    {
      "channel": 3,
      "note": 83,
      "start": 87.8027,
      "duration": 0.0834,
      "velocity": 95,
      "chip": "ym2612"
    },
    {
      "channel": 0,
      "note": 64,
      "start": 87.8512,
      "duration": 0.1168,
      "velocity": 101,
      "chip": "ym2612"
    },
    {
      "channel": 3,
      "note": 83,
      "start": 87.8862,
      "duration": 0.0852,
      "velocity": 95,
      "chip": "ym2612"
    },
    {
      "channel": 0,
      "note": 64,
      "start": 87.9681,
      "duration": 0.1331,
      "velocity": 101,
      "chip": "ym2612"
    },
    {
      "channel": 1,
      "note": 47,
      "start": 87.9693,
      "duration": 0.2668,
      "velocity": 104,
      "chip": "ym2612"
    },
    {
      "channel": 2,
      "note": 44,
      "start": 87.9705,
      "duration": 0.2657,
      "velocity": 104,
      "chip": "ym2612"
    },
    {
      "channel": 3,
      "note": 83,
      "start": 87.9714,
      "duration": 0.098,
      "velocity": 95,
      "chip": "ym2612"
    },
    {
      "channel": 4,
      "note": 93,
      "start": 87.9725,
      "duration": 0.2133,
      "velocity": 111,
      "chip": "ym2612"
    },
    {
      "channel": 5,
      "note": 84,
      "start": 87.9737,
      "duration": 0.2665,
      "velocity": 92,
      "chip": "ym2612"
    },
    {
      "channel": 3,
      "note": 83,
      "start": 88.0695,
      "duration": 0.0831,
      "velocity": 95,
      "chip": "ym2612"
    },
    {
      "channel": 0,
      "note": 64,
      "start": 88.1012,
      "duration": 0.1338,
      "velocity": 101,
      "chip": "ym2612"
    },
    {
      "channel": 3,
      "note": 83,
      "start": 88.1527,
      "duration": 0.0853,
      "velocity": 95,
      "chip": "ym2612"
    },
    {
      "channel": 0,
      "note": 68,
      "start": 88.235,
      "duration": 0.2667,
      "velocity": 101,
      "chip": "ym2612"
    },
    {
      "channel": 1,
      "note": 24,
      "start": 88.2361,
      "duration": 0.2666,
      "velocity": 104,
      "chip": "ym2612"
    },
    {
      "channel": 3,
      "note": 83,
      "start": 88.238,
      "duration": 0.0813,
      "velocity": 95,
      "chip": "ym2612"
    },
    {
      "channel": 4,
      "note": 96,
      "start": 88.2392,
      "duration": 0.2133,
      "velocity": 111,
      "chip": "ym2612"
    },
    {
      "channel": 5,
      "note": 83,
      "start": 88.2402,
      "duration": 0.1301,
      "velocity": 92,
      "chip": "ym2612"
    },
    {
      "channel": 3,
      "note": 83,
      "start": 88.3194,
      "duration": 0.0834,
      "velocity": 95,
      "chip": "ym2612"
    },
    {
      "channel": 5,
      "note": 83,
      "start": 88.3704,
      "duration": 0.1367,
      "velocity": 92,
      "chip": "ym2612"
    },
    {
      "channel": 3,
      "note": 83,
      "start": 88.4029,
      "duration": 0.102,
      "velocity": 95,
      "chip": "ym2612"
    },
    {
      "channel": 0,
      "note": 69,
      "start": 88.5016,
      "duration": 0.25,
      "velocity": 101,
      "chip": "ym2612"
    },
    {
      "channel": 1,
      "note": 48,
      "start": 88.5028,
      "duration": 0.2499,
      "velocity": 104,
      "chip": "ym2612"
    },
    {
      "channel": 2,
      "note": 45,
      "start": 88.5041,
      "duration": 0.2489,
      "velocity": 104,
      "chip": "ym2612"
    },
    {
      "channel": 3,
      "note": 83,
      "start": 88.5049,
      "duration": 0.0812,
      "velocity": 95,
      "chip": "ym2612"
    },
    {
      "channel": 4,
      "note": 95,
      "start": 88.506,
      "duration": 0.2131,
      "velocity": 111,
      "chip": "ym2612"
    },
    {
      "channel": 5,
      "note": 84,
      "start": 88.5072,
      "duration": 0.2497,
      "velocity": 92,
      "chip": "ym2612"
    },
    {
      "channel": 3,
      "note": 83,
      "start": 88.5862,
      "duration": 0.0831,
      "velocity": 95,
      "chip": "ym2612"
    },
    {
      "channel": 3,
      "note": 83,
      "start": 88.6694,
      "duration": 0.0853,
      "velocity": 95,
      "chip": "ym2612"
    },
    {
      "channel": 0,
      "note": 72,
      "start": 88.7516,
      "duration": 0.1493,
      "velocity": 101,
      "chip": "ym2612"
    },
    {
      "channel": 1,
      "note": 28,
      "start": 88.7528,
      "duration": 0.2664,
      "velocity": 104,
      "chip": "ym2612"
    },
    {
      "channel": 3,
      "note": 83,
      "start": 88.7547,
      "duration": 0.098,
      "velocity": 95,
      "chip": "ym2612"
    },
    {
      "channel": 4,
      "note": 92,
      "start": 88.7559,
      "duration": 0.2133,
      "velocity": 111,
      "chip": "ym2612"
    },
    {
      "channel": 5,
      "note": 83,
      "start": 88.7569,
      "duration": 0.1302,
      "velocity": 92,
      "chip": "ym2612"
    },
    {
      "channel": 3,
      "note": 83,
      "start": 88.8527,
      "duration": 0.0834,
      "velocity": 95,
      "chip": "ym2612"
    },
    {
      "channel": 5,
      "note": 83,
      "start": 88.8871,
      "duration": 0.1364,
      "velocity": 92,
      "chip": "ym2612"
    },
    {
      "channel": 0,
      "note": 72,
      "start": 88.901,
      "duration": 0.1172,
      "velocity": 101,
      "chip": "ym2612"
    },
    {
      "channel": 3,
      "note": 83,
      "start": 88.9362,
      "duration": 0.0852,
      "velocity": 95,
      "chip": "ym2612"
    },
    {
      "channel": 0,
      "note": 72,
      "start": 89.0181,
      "duration": 0.1331,
      "velocity": 101,
      "chip": "ym2612"
    },
    {
      "channel": 1,
      "note": 47,
      "start": 89.0193,
      "duration": 0.2668,
      "velocity": 104,
      "chip": "ym2612"
    },
    {
      "channel": 2,
      "note": 44,
      "start": 89.0205,
      "duration": 0.2657,
      "velocity": 104,
      "chip": "ym2612"
    },
    {
      "channel": 3,
      "note": 83,
      "start": 89.0214,
      "duration": 0.0814,
      "velocity": 95,
      "chip": "ym2612"
    },
    {
      "channel": 4,
      "note": 93,
      "start": 89.0225,
      "duration": 0.2133,
      "velocity": 111,
      "chip": "ym2612"
    },
    {
      "channel": 5,
      "note": 84,
      "start": 89.0237,
      "duration": 0.2665,
      "velocity": 92,
      "chip": "ym2612"
    },
    {
      "channel": 3,
      "note": 83,
      "start": 89.1029,
      "duration": 0.0998,
      "velocity": 95,
      "chip": "ym2612"
    },
    {
      "channel": 0,
      "note": 72,
      "start": 89.1512,
      "duration": 0.1337,
      "velocity": 101,
      "chip": "ym2612"
    },
    {
      "channel": 3,
      "note": 83,
      "start": 89.2027,
      "duration": 0.0845,
      "velocity": 95,
      "chip": "ym2612"
    },
    {
      "channel": 0,
      "note": 71,
      "start": 89.285,
      "duration": 0.25,
      "velocity": 101,
      "chip": "ym2612"
    },
    {
      "channel": 1,
      "note": 24,
      "start": 89.2861,
      "duration": 0.2499,
      "velocity": 104,
      "chip": "ym2612"
    },
    {
      "channel": 4,
      "note": 96,
      "start": 89.2891,
      "duration": 0.2134,
      "velocity": 111,
      "chip": "ym2612"
    },
    {
      "channel": 5,
      "note": 83,
      "start": 89.2902,
      "duration": 0.1302,
      "velocity": 92,
      "chip": "ym2612"
    },
    {
      "channel": 5,
      "note": 83,
      "start": 89.4204,
      "duration": 0.1196,
      "velocity": 92,
      "chip": "ym2612"
    },
    {
      "channel": 0,
      "note": 69,
      "start": 89.5349,
      "duration": 0.2667,
      "velocity": 101,
      "chip": "ym2612"
    },
    {
      "channel": 1,
      "note": 48,
      "start": 89.5361,
      "duration": 0.2667,
      "velocity": 104,
      "chip": "ym2612"
    },
    {
      "channel": 2,
      "note": 45,
      "start": 89.5373,
      "duration": 0.2656,
      "velocity": 104,
      "chip": "ym2612"
    },
    {
      "channel": 4,
      "note": 95,
      "start": 89.5389,
      "duration": 0.2136,
      "velocity": 111,
      "chip": "ym2612"
    },
    {
      "channel": 5,
      "note": 84,
      "start": 89.5401,
      "duration": 0.2668,
      "velocity": 92,
      "chip": "ym2612"
    },
    {
      "channel": 0,
      "note": 64,
      "start": 89.8016,
      "duration": 0.1329,
      "velocity": 101,
      "chip": "ym2612"
    },
    {
      "channel": 1,
      "note": 28,
      "start": 89.8028,
      "duration": 0.2663,
      "velocity": 104,
      "chip": "ym2612"
    },
    {
      "channel": 4,
      "note": 92,
      "start": 89.8059,
      "duration": 0.2133,
      "velocity": 111,
      "chip": "ym2612"
    },
    {
      "channel": 5,
      "note": 83,
      "start": 89.807,
      "duration": 0.1305,
      "velocity": 92,
      "chip": "ym2612"
    },
    {
      "channel": 0,
      "note": 64,
      "start": 89.9346,
      "duration": 0.1334,
      "velocity": 101,
      "chip": "ym2612"
    },
    {
      "channel": 5,
      "note": 83,
      "start": 89.9375,
      "duration": 0.1356,
      "velocity": 92,
      "chip": "ym2612"
    },
    {
      "channel": 0,
      "note": 64,
      "start": 90.068,
      "duration": 0.1331,
      "velocity": 101,
      "chip": "ym2612"
    },
    {
      "channel": 1,
      "note": 47,
      "start": 90.0692,
      "duration": 0.2501,
      "velocity": 104,
      "chip": "ym2612"
    },
    {
      "channel": 2,
      "note": 44,
      "start": 90.0705,
      "duration": 0.249,
      "velocity": 104,
      "chip": "ym2612"
    },
    {
      "channel": 4,
      "note": 93,
      "start": 90.0721,
      "duration": 0.2137,
      "velocity": 111,
      "chip": "ym2612"
    },
    {
      "channel": 5,
      "note": 84,
      "start": 90.0732,
      "duration": 0.25,
      "velocity": 92,
      "chip": "ym2612"
    },
    {
      "channel": 0,
      "note": 64,
      "start": 90.2012,
      "duration": 0.1171,
      "velocity": 101,
      "chip": "ym2612"
    },
    {
      "channel": 0,
      "note": 68,
      "start": 90.3183,
      "duration": 0.2667,
      "velocity": 101,
      "chip": "ym2612"
    },
    {
      "channel": 1,
      "note": 24,
      "start": 90.3194,
      "duration": 0.2666,
      "velocity": 104,
      "chip": "ym2612"
    },
    {
      "channel": 4,
      "note": 96,
      "start": 90.3221,
      "duration": 0.2137,
      "velocity": 111,
      "chip": "ym2612"
    },
    {
      "channel": 5,
      "note": 83,
      "start": 90.3232,
      "duration": 0.1305,
      "velocity": 92,
      "chip": "ym2612"
    },
    {
      "channel": 5,
      "note": 83,
      "start": 90.4537,
      "duration": 0.1363,
      "velocity": 92,
      "chip": "ym2612"
    },
    {
      "channel": 0,
      "note": 69,
      "start": 90.5849,
      "duration": 0.2667,
      "velocity": 101,
      "chip": "ym2612"
    },
    {
      "channel": 1,
      "note": 48,
      "start": 90.5861,
      "duration": 0.2666,
      "velocity": 104,
      "chip": "ym2612"
    },
    {
      "channel": 2,
      "note": 45,
      "start": 90.5873,
      "duration": 0.2666,
      "velocity": 104,
      "chip": "ym2612"
    },
    {
      "channel": 4,
      "note": 95,
      "start": 90.5889,
      "duration": 0.2136,
      "velocity": 111,
      "chip": "ym2612"
    },
    {
      "channel": 5,
      "note": 84,
      "start": 90.5901,
      "duration": 0.2667,
      "velocity": 92,
      "chip": "ym2612"
    },
    {
      "channel": 0,
      "note": 64,
      "start": 90.8516,
      "duration": 0.1329,
      "velocity": 101,
      "chip": "ym2612"
    },
    {
      "channel": 1,
      "note": 47,
      "start": 90.8527,
      "duration": 0.2487,
      "velocity": 104,
      "chip": "ym2612"
    },
    {
      "channel": 2,
      "note": 44,
      "start": 90.854,
      "duration": 0.2483,
      "velocity": 104,
      "chip": "ym2612"
    },
    {
      "channel": 4,
      "note": 92,
      "start": 90.8557,
      "duration": 0.2134,
      "velocity": 111,
      "chip": "ym2612"
    },
    {
      "channel": 5,
      "note": 83,
      "start": 90.8568,
      "duration": 0.1307,
      "velocity": 92,
      "chip": "ym2612"
    },
    {
      "channel": 0,
      "note": 64,
      "start": 90.9846,
      "duration": 0.1167,
      "velocity": 101,
      "chip": "ym2612"
    },
    {
      "channel": 5,
      "note": 83,
      "start": 90.9875,
      "duration": 0.1177,
      "velocity": 92,
      "chip": "ym2612"
    },
    {
      "channel": 0,
      "note": 64,
      "start": 91.1013,
      "duration": 0.1332,
      "velocity": 101,
      "chip": "ym2612"
    },
    {
      "channel": 5,
      "note": 83,
      "start": 91.1053,
      "duration": 0.1321,
      "velocity": 92,
      "chip": "ym2612"
    },
    {
      "channel": 0,
      "note": 64,
      "start": 91.2345,
      "duration": 0.1327,
      "velocity": 101,
      "chip": "ym2612"
    },
    {
      "channel": 5,
      "note": 83,
      "start": 91.2375,
      "duration": 0.1366,
      "velocity": 92,
      "chip": "ym2612"
    },
    {
      "channel": 3,
      "note": 87,
      "start": 91.3728,
      "duration": 0.2625,
      "velocity": 113,
      "chip": "ym2612"
    },
    {
      "channel": 1,
      "note": 33,
      "start": 91.8864,
      "duration": 0.2663,
      "velocity": 104,
      "chip": "ym2612"
    },
    {
      "channel": 3,
      "note": 51,
      "start": 91.8908,
      "duration": 2.0977,
      "velocity": 74,
      "chip": "ym2612"
    },
    {
      "channel": 4,
      "note": 75,
      "start": 91.892,
      "duration": 0.2271,
      "velocity": 111,
      "chip": "ym2612"
    },
    {
      "channel": 5,
      "note": 45,
      "start": 91.8955,
      "duration": 4.1779,
      "velocity": 106,
      "chip": "ym2612"
    },
    {
      "channel": 0,
      "note": 57,
      "start": 91.9012,
      "duration": 0.2504,
      "velocity": 101,
      "chip": "ym2612"
    },
    {
      "channel": 0,
      "note": 60,
      "start": 92.1516,
      "duration": 0.133,
      "velocity": 101,
      "chip": "ym2612"
    },
    {
      "channel": 1,
      "note": 51,
      "start": 92.1528,
      "duration": 0.2665,
      "velocity": 104,
      "chip": "ym2612"
    },
    {
      "channel": 2,
      "note": 48,
      "start": 92.154,
      "duration": 0.2655,
      "velocity": 104,
      "chip": "ym2612"
    },
    {
      "channel": 4,
      "note": 73,
      "start": 92.1558,
      "duration": 0.2134,
      "velocity": 111,
      "chip": "ym2612"
    },
    {
      "channel": 0,
      "note": 60,
      "start": 92.2846,
      "duration": 0.1336,
      "velocity": 101,
      "chip": "ym2612"
    },
    {
      "channel": 0,
      "note": 61,
      "start": 92.4183,
      "duration": 0.1493,
      "velocity": 101,
      "chip": "ym2612"
    },
    {
      "channel": 1,
      "note": 27,
      "start": 92.4194,
      "duration": 0.25,
      "velocity": 104,
      "chip": "ym2612"
    },
    {
      "channel": 4,
      "note": 77,
      "start": 92.4221,
      "duration": 0.2137,
      "velocity": 111,
      "chip": "ym2612"
    },
    {
      "channel": 0,
      "note": 61,
      "start": 92.5676,
      "duration": 0.1006,
      "velocity": 101,
      "chip": "ym2612"
    },
    {
      "channel": 0,
      "note": 63,
      "start": 92.6683,
      "duration": 0.133,
      "velocity": 101,
      "chip": "ym2612"
    },
    {
      "channel": 1,
      "note": 52,
      "start": 92.6695,
      "duration": 0.2666,
      "velocity": 104,
      "chip": "ym2612"
    },
    {
      "channel": 2,
      "note": 49,
      "start": 92.6707,
      "duration": 0.2655,
      "velocity": 104,
      "chip": "ym2612"
    },
    {
      "channel": 4,
      "note": 75,
      "start": 92.6724,
      "duration": 0.23,
      "velocity": 111,
      "chip": "ym2612"
    },
    {
      "channel": 0,
      "note": 63,
      "start": 92.8013,
      "duration": 0.1336,
      "velocity": 101,
      "chip": "ym2612"
    },
    {
      "channel": 0,
      "note": 64,
      "start": 92.935,
      "duration": 0.2666,
      "velocity": 101,
      "chip": "ym2612"
    },
    {
      "channel": 1,
      "note": 33,
      "start": 92.9361,
      "duration": 0.2665,
      "velocity": 104,
      "chip": "ym2612"
    },
    {
      "channel": 4,
      "note": 83,
      "start": 92.9389,
      "duration": 0.2136,
      "velocity": 111,
      "chip": "ym2612"
    },
    {
      "channel": 0,
      "note": 63,
      "start": 93.2016,
      "duration": 0.133,
      "velocity": 101,
      "chip": "ym2612"
    },
    {
      "channel": 1,
      "note": 51,
      "start": 93.2027,
      "duration": 0.2666,
      "velocity": 104,
      "chip": "ym2612"
    },
    {
      "channel": 2,
      "note": 48,
      "start": 93.204,
      "duration": 0.2655,
      "velocity": 104,
      "chip": "ym2612"
    },
    {
      "channel": 4,
      "note": 81,
      "start": 93.2057,
      "duration": 0.2134,
      "velocity": 111,
      "chip": "ym2612"
    },
    {
      "channel": 0,
      "note": 63,
      "start": 93.3346,
      "duration": 0.1336,
      "velocity": 101,
      "chip": "ym2612"
    },
    {
      "channel": 0,
      "note": 61,
      "start": 93.4683,
      "duration": 0.1163,
      "velocity": 101,
      "chip": "ym2612"
    },
    {
      "channel": 1,
      "note": 27,
      "start": 93.4694,
      "duration": 0.25,
      "velocity": 104,
      "chip": "ym2612"
    },
    {
      "channel": 4,
      "note": 84,
      "start": 93.4721,
      "duration": 0.5176,
      "velocity": 111,
      "chip": "ym2612"
    },
    {
      "channel": 0,
      "note": 61,
      "start": 93.5846,
      "duration": 0.1336,
      "velocity": 101,
      "chip": "ym2612"
    },
    {
      "channel": 0,
      "note": 60,
      "start": 93.7183,
      "duration": 0.1328,
      "velocity": 101,
      "chip": "ym2612"
    },
    {
      "channel": 1,
      "note": 52,
      "start": 93.7195,
      "duration": 0.267,
      "velocity": 104,
      "chip": "ym2612"
    },
    {
      "channel": 2,
      "note": 49,
      "start": 93.7207,
      "duration": 0.2659,
      "velocity": 104,
      "chip": "ym2612"
    },
    {
      "channel": 0,
      "note": 60,
      "start": 93.8512,
      "duration": 0.1341,
      "velocity": 101,
      "chip": "ym2612"
    },
    {
      "channel": 0,
      "note": 57,
      "start": 93.9854,
      "duration": 0.2662,
      "velocity": 101,
      "chip": "ym2612"
    },
    {
      "channel": 1,
      "note": 33,
      "start": 93.9865,
      "duration": 0.2662,
      "velocity": 104,
      "chip": "ym2612"
    },
    {
      "channel": 3,
      "note": 45,
      "start": 93.9885,
      "duration": 2.0827,
      "velocity": 74,
      "chip": "ym2612"
    },
    {
      "channel": 4,
      "note": 87,
      "start": 93.9898,
      "duration": 0.2658,
      "velocity": 111,
      "chip": "ym2612"
    },
    {
      "channel": 0,
      "note": 60,
      "start": 94.2516,
      "duration": 0.1163,
      "velocity": 101,
      "chip": "ym2612"
    },
    {
      "channel": 1,
      "note": 51,
      "start": 94.2528,
      "duration": 0.2499,
      "velocity": 104,
      "chip": "ym2612"
    },
    {
      "channel": 2,
      "note": 48,
      "start": 94.254,
      "duration": 0.2489,
      "velocity": 104,
      "chip": "ym2612"
    },
    {
      "channel": 4,
      "note": 83,
      "start": 94.2556,
      "duration": 0.2135,
      "velocity": 111,
      "chip": "ym2612"
    },
    {
      "channel": 0,
      "note": 60,
      "start": 94.368,
      "duration": 0.1336,
      "velocity": 101,
      "chip": "ym2612"
    },
    {
      "channel": 0,
      "note": 61,
      "start": 94.5016,
      "duration": 0.133,
      "velocity": 101,
      "chip": "ym2612"
    },
    {
      "channel": 1,
      "note": 27,
      "start": 94.5027,
      "duration": 0.2667,
      "velocity": 104,
      "chip": "ym2612"
    },
    {
      "channel": 4,
      "note": 84,
      "start": 94.5055,
      "duration": 0.2137,
      "velocity": 111,
      "chip": "ym2612"
    },
    {
      "channel": 0,
      "note": 61,
      "start": 94.6346,
      "duration": 0.1337,
      "velocity": 101,
      "chip": "ym2612"
    },
    {
      "channel": 0,
      "note": 63,
      "start": 94.7683,
      "duration": 0.133,
      "velocity": 101,
      "chip": "ym2612"
    },
    {
      "channel": 1,
      "note": 52,
      "start": 94.7695,
      "duration": 0.2662,
      "velocity": 104,
      "chip": "ym2612"
    },
    {
      "channel": 2,
      "note": 49,
      "start": 94.7707,
      "duration": 0.2651,
      "velocity": 104,
      "chip": "ym2612"
    },
    {
      "channel": 4,
      "note": 79,
      "start": 94.7724,
      "duration": 0.2134,
      "velocity": 111,
      "chip": "ym2612"
    },
    {
      "channel": 0,
      "note": 63,
      "start": 94.9013,
      "duration": 0.1326,
      "velocity": 101,
      "chip": "ym2612"
    },
    {
      "channel": 1,
      "note": 33,
      "start": 95.0357,
      "duration": 0.2502,
      "velocity": 104,
      "chip": "ym2612"
    },
    {
      "channel": 4,
      "note": 84,
      "start": 95.0385,
      "duration": 0.2139,
      "velocity": 111,
      "chip": "ym2612"
    },
    {
      "channel": 0,
      "note": 60,
      "start": 95.2849,
      "duration": 0.2829,
      "velocity": 101,
      "chip": "ym2612"
    },
    {
      "channel": 1,
      "note": 51,
      "start": 95.2861,
      "duration": 0.266,
      "velocity": 104,
      "chip": "ym2612"
    },
    {
      "channel": 2,
      "note": 48,
      "start": 95.2873,
      "duration": 0.2649,
      "velocity": 104,
      "chip": "ym2612"
    },
    {
      "channel": 4,
      "note": 78,
      "start": 95.289,
      "duration": 0.2134,
      "velocity": 111,
      "chip": "ym2612"
    },
    {
      "channel": 1,
      "note": 27,
      "start": 95.5521,
      "duration": 0.2672,
      "velocity": 104,
      "chip": "ym2612"
    },
    {
      "channel": 4,
      "note": 78,
      "start": 95.5548,
      "duration": 0.2143,
      "velocity": 111,
      "chip": "ym2612"
    },
    {
      "channel": 0,
      "note": 61,
      "start": 95.5679,
      "duration": 0.1167,
      "velocity": 101,
      "chip": "ym2612"
    },
    {
      "channel": 0,
      "note": 61,
      "start": 95.6846,
      "duration": 0.1337,
      "velocity": 101,
      "chip": "ym2612"
    },
    {
      "channel": 0,
      "note": 55,
      "start": 95.8183,
      "duration": 0.1163,
      "velocity": 101,
      "chip": "ym2612"
    },
    {
      "channel": 1,
      "note": 52,
      "start": 95.8194,
      "duration": 0.2508,
      "velocity": 104,
      "chip": "ym2612"
    },
    {
      "channel": 2,
      "note": 49,
      "start": 95.8207,
      "duration": 0.2497,
      "velocity": 104,
      "chip": "ym2612"
    },
    {
      "channel": 4,
      "note": 72,
      "start": 95.8224,
      "duration": 0.2134,
      "velocity": 111,
      "chip": "ym2612"
    },
    {
      "channel": 0,
      "note": 55,
      "start": 95.9346,
      "duration": 0.1344,
      "velocity": 101,
      "chip": "ym2612"
    },
    {
      "channel": 0,
      "note": 57,
      "start": 96.0691,
      "duration": 0.2643,
      "velocity": 101,
      "chip": "ym2612"
    },
    {
      "channel": 1,
      "note": 33,
      "start": 96.0702,
      "duration": 0.2631,
      "velocity": 104,
      "chip": "ym2612"
    },
    {
      "channel": 4,
      "note": 87,
      "start": 96.0732,
      "duration": 0.2125,
      "velocity": 111,
      "chip": "ym2612"
    }
  ]
}