{
  "track_name": "09 - Heh Heh, Think I'll Disrupt This Good Cheer",
  "duration_sec": 61.846,
  "sample_rate": 44100,
  "note_count": 882,
  "unique_pitches": 33,
  "pitch_range": 41,
  "avg_note_duration": 0.2139,
  "reconstruction_stats": {
    "notes_reconstructed": 882,
    "keyon_events": 882,
    "keyoff_events": 879,
    "orphan_keyons": 3,
    "unique_pitches": 33,
    "pitch_range": 41,
    "avg_duration_sec": 0.2139
  },
  "metadata": {
    "source": "L\\LandStalker\\09 - Heh Heh, Think I'll Disrupt This Good Cheer.vgz"
  },
  "notes": [
    {
      "channel": 0,
      "note": 61,
      "start": 0.0511,
      "duration": 0.2095,
      "velocity": 91,
      "chip": "ym2612"
    },
    {
      "channel": 4,
      "note": 85,
      "start": 0.056,
      "duration": 0.2274,
      "velocity": 127,
      "chip": "ym2612"
    },
    {
      "channel": 0,
      "note": 61,
      "start": 0.2822,
      "duration": 0.1129,
      "velocity": 91,
      "chip": "ym2612"
    },
    {
      "channel": 4,
      "note": 93,
      "start": 0.2837,
      "duration": 0.1535,
      "velocity": 127,
      "chip": "ym2612"
    },
    {
      "channel": 0,
      "note": 61,
      "start": 0.4167,
      "duration": 0.0153,
      "velocity": 91,
      "chip": "ym2612"
    },
    {
      "channel": 4,
      "note": 93,
      "start": 0.4376,
      "duration": 0.1161,
      "velocity": 127,
      "chip": "ym2612"
    },
    {
      "channel": 0,
      "note": 61,
      "start": 0.4546,
      "duration": 0.0763,
      "velocity": 91,
      "chip": "ym2612"
    },
    {
      "channel": 0,
      "note": 54,
      "start": 0.5523,
      "duration": 0.0149,
      "velocity": 91,
      "chip": "ym2612"
    },
    {
      "channel": 4,
      "note": 93,
      "start": 0.5539,
      "duration": 0.1513,
      "velocity": 127,
      "chip": "ym2612"
    },
    {
      "channel": 0,
      "note": 54,
      "start": 0.5879,
      "duration": 0.0144,
      "velocity": 91,
      "chip": "ym2612"
    },
    {
      "channel": 0,
      "note": 56,
      "start": 0.704,
      "duration": 0.0322,
      "velocity": 91,
      "chip": "ym2612"
    },
    {
      "channel": 4,
      "note": 93,
      "start": 0.7056,
      "duration": 0.1521,
      "velocity": 127,
      "chip": "ym2612"
    },
    {
      "channel": 0,
      "note": 61,
      "start": 0.7405,
      "duration": 0.1317,
      "velocity": 91,
      "chip": "ym2612"
    },
    {
      "channel": 4,
      "note": 93,
      "start": 0.858,
      "duration": 0.1159,
      "velocity": 127,
      "chip": "ym2612"
    },
    {
      "channel": 0,
      "note": 61,
      "start": 0.8752,
      "duration": 0.1123,
      "velocity": 91,
      "chip": "ym2612"
    },
    {
      "channel": 4,
      "note": 93,
      "start": 0.9742,
      "duration": 0.1537,
      "velocity": 127,
      "chip": "ym2612"
    },
    {
      "channel": 0,
      "note": 60,
      "start": 0.9911,
      "duration": 0.0142,
      "velocity": 91,
      "chip": "ym2612"
    },
    {
      "channel": 0,
      "note": 61,
      "start": 1.0082,
      "duration": 0.0776,
      "velocity": 91,
      "chip": "ym2612"
    },
    {
      "channel": 0,
      "note": 68,
      "start": 1.1073,
      "duration": 0.0152,
      "velocity": 91,
      "chip": "ym2612"
    },
    {
      "channel": 4,
      "note": 93,
      "start": 1.1283,
      "duration": 0.1159,
      "velocity": 127,
      "chip": "ym2612"
    },
    {
      "channel": 0,
      "note": 68,
      "start": 1.1453,
      "duration": 0.0762,
      "velocity": 91,
      "chip": "ym2612"
    },
    {
      "channel": 0,
      "note": 54,
      "start": 1.2431,
      "duration": 0.0145,
      "velocity": 91,
      "chip": "ym2612"
    },
    {
      "channel": 4,
      "note": 93,
      "start": 1.2446,
      "duration": 0.0716,
      "velocity": 127,
      "chip": "ym2612"
    },
    {
      "channel": 0,
      "note": 56,
      "start": 1.279,
      "duration": 0.0682,
      "velocity": 91,
      "chip": "ym2612"
    },
    {
      "channel": 4,
      "note": 93,
      "start": 1.3166,
      "duration": 0.0422,
      "velocity": 127,
      "chip": "ym2612"
    },
    {
      "channel": 0,
      "note": 61,
      "start": 1.3529,
      "duration": 0.2089,
      "velocity": 91,
      "chip": "ym2612"
    },
    {
      "channel": 1,
      "note": 80,
      "start": 1.3553,
      "duration": 0.0906,
      "velocity": 99,
      "chip": "ym2612"
    },
    {
      "channel": 2,
      "note": 77,
      "start": 1.3577,
      "duration": 0.0885,
      "velocity": 99,
      "chip": "ym2612"
    },
    {
      "channel": 4,
      "note": 93,
      "start": 1.3594,
      "duration": 0.2258,
      "velocity": 127,
      "chip": "ym2612"
    },
    {
      "channel": 1,
      "note": 80,
      "start": 1.4675,
      "duration": 0.015,
      "velocity": 99,
      "chip": "ym2612"
    },
    {
      "channel": 2,
      "note": 77,
      "start": 1.468,
      "duration": 0.0148,
      "velocity": 99,
      "chip": "ym2612"
    },
    {
      "channel": 1,
      "note": 82,
      "start": 1.4853,
      "duration": 0.0768,
      "velocity": 99,
      "chip": "ym2612"
    },
    {
      "channel": 2,
      "note": 78,
      "start": 1.4859,
      "duration": 0.0766,
      "velocity": 99,
      "chip": "ym2612"
    },
    {
      "channel": 0,
      "note": 61,
      "start": 1.5834,
      "duration": 0.1145,
      "velocity": 91,
      "chip": "ym2612"
    },
    {
      "channel": 1,
      "note": 80,
      "start": 1.584,
      "duration": 0.0093,
      "velocity": 99,
      "chip": "ym2612"
    },
    {
      "channel": 2,
      "note": 77,
      "start": 1.5845,
      "duration": 0.0091,
      "velocity": 99,
      "chip": "ym2612"
    },
    {
      "channel": 4,
      "note": 93,
      "start": 1.5856,
      "duration": 0.1544,
      "velocity": 127,
      "chip": "ym2612"
    },
    {
      "channel": 1,
      "note": 82,
      "start": 1.5963,
      "duration": 0.01,
      "velocity": 99,
      "chip": "ym2612"
    },
    {
      "channel": 2,
      "note": 78,
      "start": 1.5968,
      "duration": 0.0098,
      "velocity": 99,
      "chip": "ym2612"
    },
    {
      "channel": 1,
      "note": 80,
      "start": 1.6092,
      "duration": 0.0084,
      "velocity": 99,
      "chip": "ym2612"
    },
    {
      "channel": 2,
      "note": 77,
      "start": 1.6098,
      "duration": 0.0081,
      "velocity": 99,
      "chip": "ym2612"
    },
    {
      "channel": 1,
      "note": 79,
      "start": 1.6205,
      "duration": 0.0777,
      "velocity": 99,
      "chip": "ym2612"
    },
    {
      "channel": 2,
      "note": 76,
      "start": 1.621,
      "duration": 0.0774,
      "velocity": 99,
      "chip": "ym2612"
    },
    {
      "channel": 0,
      "note": 61,
      "start": 1.7194,
      "duration": 0.0154,
      "velocity": 91,
      "chip": "ym2612"
    },
    {
      "channel": 1,
      "note": 80,
      "start": 1.72,
      "duration": 0.0336,
      "velocity": 99,
      "chip": "ym2612"
    },
    {
      "channel": 2,
      "note": 77,
      "start": 1.7205,
      "duration": 0.0333,
      "velocity": 99,
      "chip": "ym2612"
    },
    {
      "channel": 4,
      "note": 93,
      "start": 1.7403,
      "duration": 0.1169,
      "velocity": 127,
      "chip": "ym2612"
    },
    {
      "channel": 0,
      "note": 61,
      "start": 1.7563,
      "duration": 0.0775,
      "velocity": 91,
      "chip": "ym2612"
    },
    {
      "channel": 1,
      "note": 82,
      "start": 1.7568,
      "duration": 0.0773,
      "velocity": 99,
      "chip": "ym2612"
    },
    {
      "channel": 2,
      "note": 78,
      "start": 1.7573,
      "duration": 0.077,
      "velocity": 99,
      "chip": "ym2612"
    },
    {
      "channel": 0,
      "note": 56,
      "start": 1.8554,
      "duration": 0.0161,
      "velocity": 91,
      "chip": "ym2612"
    },
    {
      "channel": 1,
      "note": 84,
      "start": 1.8559,
      "duration": 0.0329,
      "velocity": 99,
      "chip": "ym2612"
    },
    {
      "channel": 2,
      "note": 80,
      "start": 1.8565,
      "duration": 0.0325,
      "velocity": 99,
      "chip": "ym2612"
    },
    {
      "channel": 4,
      "note": 93,
      "start": 1.8575,
      "duration": 0.1529,
      "velocity": 127,
      "chip": "ym2612"
    },
    {
      "channel": 0,
      "note": 56,
      "start": 1.8929,
      "duration": 0.0146,
      "velocity": 91,
      "chip": "ym2612"
    },
    {
      "channel": 1,
      "note": 85,
      "start": 1.8934,
      "duration": 0.0144,
      "velocity": 99,
      "chip": "ym2612"
    },
    {
      "channel": 2,
      "note": 82,
      "start": 1.894,
      "duration": 0.014,
      "velocity": 99,
      "chip": "ym2612"
    },
    {
      "channel": 1,
      "note": 87,
      "start": 1.9107,
      "duration": 0.1139,
      "velocity": 99,
      "chip": "ym2612"
    },
    {
      "channel": 2,
      "note": 84,
      "start": 1.9112,
      "duration": 0.1136,
      "velocity": 99,
      "chip": "ym2612"
    },
    {
      "channel": 0,
      "note": 61,
      "start": 2.0091,
      "duration": 0.1313,
      "velocity": 91,
      "chip": "ym2612"
    },
    {
      "channel": 4,
      "note": 93,
      "start": 2.0107,
      "duration": 0.1531,
      "velocity": 127,
      "chip": "ym2612"
    },
    {
      "channel": 1,
      "note": 89,
      "start": 2.0275,
      "duration": 0.0326,
      "velocity": 99,
      "chip": "ym2612"
    },
    {
      "channel": 2,
      "note": 85,
      "start": 2.028,
      "duration": 0.0323,
      "velocity": 99,
      "chip": "ym2612"
    },
    {
      "channel": 1,
      "note": 80,
      "start": 2.0629,
      "duration": 0.0779,
      "velocity": 99,
      "chip": "ym2612"
    },
    {
      "channel": 2,
      "note": 77,
      "start": 2.0635,
      "duration": 0.0776,
      "velocity": 99,
      "chip": "ym2612"
    },
    {
      "channel": 0,
      "note": 61,
      "start": 2.162,
      "duration": 0.1315,
      "velocity": 91,
      "chip": "ym2612"
    },
    {
      "channel": 1,
      "note": 82,
      "start": 2.1625,
      "duration": 0.0943,
      "velocity": 99,
      "chip": "ym2612"
    },
    {
      "channel": 2,
      "note": 78,
      "start": 2.1631,
      "duration": 0.094,
      "velocity": 99,
      "chip": "ym2612"
    },
    {
      "channel": 4,
      "note": 93,
      "start": 2.1641,
      "duration": 0.1156,
      "velocity": 127,
      "chip": "ym2612"
    },
    {
      "channel": 1,
      "note": 80,
      "start": 2.2784,
      "duration": 0.0094,
      "velocity": 99,
      "chip": "ym2612"
    },
    {
      "channel": 2,
      "note": 77,
      "start": 2.279,
      "duration": 0.0091,
      "velocity": 99,
      "chip": "ym2612"
    },
    {
      "channel": 4,
      "note": 93,
      "start": 2.28,
      "duration": 0.1549,
      "velocity": 127,
      "chip": "ym2612"
    },
    {
      "channel": 1,
      "note": 82,
      "start": 2.2907,
      "duration": 0.0108,
      "velocity": 99,
      "chip": "ym2612"
    },
    {
      "channel": 2,
      "note": 78,
      "start": 2.2912,
      "duration": 0.0105,
      "velocity": 99,
      "chip": "ym2612"
    },
    {
      "channel": 0,
      "note": 61,
      "start": 2.298,
      "duration": 0.0146,
      "velocity": 91,
      "chip": "ym2612"
    },
    {
      "channel": 1,
      "note": 80,
      "start": 2.3044,
      "duration": 0.0085,
      "velocity": 99,
      "chip": "ym2612"
    },
    {
      "channel": 2,
      "note": 77,
      "start": 2.3049,
      "duration": 0.0082,
      "velocity": 99,
      "chip": "ym2612"
    },
    {
      "channel": 1,
      "note": 79,
      "start": 2.3159,
      "duration": 0.0772,
      "velocity": 99,
      "chip": "ym2612"
    },
    {
      "channel": 2,
      "note": 76,
      "start": 2.3164,
      "duration": 0.0769,
      "velocity": 99,
      "chip": "ym2612"
    },
    {
      "channel": 0,
      "note": 56,
      "start": 2.4144,
      "duration": 0.0154,
      "velocity": 91,
      "chip": "ym2612"
    },
    {
      "channel": 1,
      "note": 80,
      "start": 2.4149,
      "duration": 0.0335,
      "velocity": 99,
      "chip": "ym2612"
    },
    {
      "channel": 2,
      "note": 77,
      "start": 2.4154,
      "duration": 0.0332,
      "velocity": 99,
      "chip": "ym2612"
    },
    {
      "channel": 4,
      "note": 93,
      "start": 2.4353,
      "duration": 0.1163,
      "velocity": 127,
      "chip": "ym2612"
    },
    {
      "channel": 0,
      "note": 61,
      "start": 2.4511,
      "duration": 0.1149,
      "velocity": 91,
      "chip": "ym2612"
    },
    {
      "channel": 1,
      "note": 82,
      "start": 2.4516,
      "duration": 0.0772,
      "velocity": 99,
      "chip": "ym2612"
    },
    {
      "channel": 2,
      "note": 78,
      "start": 2.4522,
      "duration": 0.0769,
      "velocity": 99,
      "chip": "ym2612"
    },
    {
      "channel": 1,
      "note": 84,
      "start": 2.5504,
      "duration": 0.0347,
      "velocity": 99,
      "chip": "ym2612"
    },
    {
      "channel": 2,
      "note": 80,
      "start": 2.5509,
      "duration": 0.0346,
      "velocity": 99,
      "chip": "ym2612"
    },
    {
      "channel": 4,
      "note": 93,
      "start": 2.552,
      "duration": 0.1537,
      "velocity": 127,
      "chip": "ym2612"
    },
    {
      "channel": 0,
      "note": 68,
      "start": 2.57,
      "duration": 0.0149,
      "velocity": 91,
      "chip": "ym2612"
    },
    {
      "channel": 0,
      "note": 61,
      "start": 2.5883,
      "duration": 0.0146,
      "velocity": 91,
      "chip": "ym2612"
    },
    {
      "channel": 1,
      "note": 85,
      "start": 2.5888,
      "duration": 0.0143,
      "velocity": 99,
      "chip": "ym2612"
    },
    {
      "channel": 2,
      "note": 82,
      "start": 2.5893,
      "duration": 0.014,
      "velocity": 99,
      "chip": "ym2612"
    },
    {
      "channel": 1,
      "note": 87,
      "start": 2.6061,
      "duration": 0.1139,
      "velocity": 99,
      "chip": "ym2612"
    },
    {
      "channel": 2,
      "note": 84,
      "start": 2.6066,
      "duration": 0.1137,
      "velocity": 99,
      "chip": "ym2612"
    },
    {
      "channel": 0,
      "note": 56,
      "start": 2.7045,
      "duration": 0.0329,
      "velocity": 91,
      "chip": "ym2612"
    },
    {
      "channel": 4,
      "note": 93,
      "start": 2.706,
      "duration": 0.0363,
      "velocity": 127,
      "chip": "ym2612"
    },
    {
      "channel": 1,
      "note": 89,
      "start": 2.7229,
      "duration": 0.0331,
      "velocity": 99,
      "chip": "ym2612"
    },
    {
      "channel": 2,
      "note": 85,
      "start": 2.7234,
      "duration": 0.0328,
      "velocity": 99,
      "chip": "ym2612"
    },
    {
      "channel": 0,
      "note": 54,
      "start": 2.7409,
      "duration": 0.2111,
      "velocity": 91,
      "chip": "ym2612"
    },
    {
      "channel": 4,
      "note": 93,
      "start": 2.7427,
      "duration": 0.232,
      "velocity": 127,
      "chip": "ym2612"
    },
    {
      "channel": 1,
      "note": 82,
      "start": 2.7589,
      "duration": 0.1132,
      "velocity": 99,
      "chip": "ym2612"
    },
    {
      "channel": 2,
      "note": 78,
      "start": 2.7595,
      "duration": 0.1128,
      "velocity": 99,
      "chip": "ym2612"
    },
    {
      "channel": 1,
      "note": 82,
      "start": 2.8749,
      "duration": 0.1302,
      "velocity": 99,
      "chip": "ym2612"
    },
    {
      "channel": 2,
      "note": 78,
      "start": 2.8754,
      "duration": 0.1299,
      "velocity": 99,
      "chip": "ym2612"
    },
    {
      "channel": 0,
      "note": 54,
      "start": 2.9735,
      "duration": 0.1127,
      "velocity": 91,
      "chip": "ym2612"
    },
    {
      "channel": 4,
      "note": 93,
      "start": 2.975,
      "duration": 0.1535,
      "velocity": 127,
      "chip": "ym2612"
    },
    {
      "channel": 1,
      "note": 85,
      "start": 3.008,
      "duration": 0.0784,
      "velocity": 99,
      "chip": "ym2612"
    },
    {
      "channel": 2,
      "note": 82,
      "start": 3.0086,
      "duration": 0.0782,
      "velocity": 99,
      "chip": "ym2612"
    },
    {
      "channel": 0,
      "note": 61,
      "start": 3.1077,
      "duration": 0.0155,
      "velocity": 91,
      "chip": "ym2612"
    },
    {
      "channel": 1,
      "note": 82,
      "start": 3.1083,
      "duration": 0.0336,
      "velocity": 99,
      "chip": "ym2612"
    },
    {
      "channel": 2,
      "note": 78,
      "start": 3.1088,
      "duration": 0.0333,
      "velocity": 99,
      "chip": "ym2612"
    },
    {
      "channel": 4,
      "note": 93,
      "start": 3.1288,
      "duration": 0.1162,
      "velocity": 127,
      "chip": "ym2612"
    },
    {
      "channel": 0,
      "note": 61,
      "start": 3.1446,
      "duration": 0.0777,
      "velocity": 91,
      "chip": "ym2612"
    },
    {
      "channel": 1,
      "note": 82,
      "start": 3.1451,
      "duration": 0.1145,
      "velocity": 99,
      "chip": "ym2612"
    },
    {
      "channel": 2,
      "note": 78,
      "start": 3.1457,
      "duration": 0.1143,
      "velocity": 99,
      "chip": "ym2612"
    },
    {
      "channel": 0,
      "note": 54,
      "start": 3.2439,
      "duration": 0.0155,
      "velocity": 91,
      "chip": "ym2612"
    },
    {
      "channel": 4,
      "note": 93,
      "start": 3.2453,
      "duration": 0.1536,
      "velocity": 127,
      "chip": "ym2612"
    },
    {
      "channel": 1,
      "note": 81,
      "start": 3.2627,
      "duration": 0.0148,
      "velocity": 99,
      "chip": "ym2612"
    },
    {
      "channel": 2,
      "note": 77,
      "start": 3.2632,
      "duration": 0.0145,
      "velocity": 99,
      "chip": "ym2612"
    },
    {
      "channel": 0,
      "note": 54,
      "start": 3.2815,
      "duration": 0.0146,
      "velocity": 91,
      "chip": "ym2612"
    },
    {
      "channel": 1,
      "note": 82,
      "start": 3.282,
      "duration": 0.0144,
      "velocity": 99,
      "chip": "ym2612"
    },
    {
      "channel": 2,
      "note": 78,
      "start": 3.2826,
      "duration": 0.014,
      "velocity": 99,
      "chip": "ym2612"
    },
    {
      "channel": 1,
      "note": 77,
      "start": 3.2993,
      "duration": 0.1139,
      "velocity": 99,
      "chip": "ym2612"
    },
    {
      "channel": 2,
      "note": 73,
      "start": 3.2999,
      "duration": 0.1136,
      "velocity": 99,
      "chip": "ym2612"
    },
    {
      "channel": 0,
      "note": 66,
      "start": 3.3978,
      "duration": 0.0504,
      "velocity": 91,
      "chip": "ym2612"
    },
    {
      "channel": 4,
      "note": 93,
      "start": 3.3993,
      "duration": 0.1532,
      "velocity": 127,
      "chip": "ym2612"
    },
    {
      "channel": 1,
      "note": 87,
      "start": 3.4161,
      "duration": 0.0324,
      "velocity": 99,
      "chip": "ym2612"
    },
    {
      "channel": 2,
      "note": 84,
      "start": 3.4166,
      "duration": 0.0321,
      "velocity": 99,
      "chip": "ym2612"
    },
    {
      "channel": 0,
      "note": 54,
      "start": 3.4512,
      "duration": 0.0779,
      "velocity": 91,
      "chip": "ym2612"
    },
    {
      "channel": 1,
      "note": 89,
      "start": 3.4517,
      "duration": 0.0776,
      "velocity": 99,
      "chip": "ym2612"
    },
    {
      "channel": 2,
      "note": 85,
      "start": 3.4523,
      "duration": 0.0773,
      "velocity": 99,
      "chip": "ym2612"
    },
    {
      "channel": 0,
      "note": 61,
      "start": 3.5506,
      "duration": 0.0947,
      "velocity": 91,
      "chip": "ym2612"
    },
    {
      "channel": 1,
      "note": 82,
      "start": 3.5512,
      "duration": 0.0943,
      "velocity": 99,
      "chip": "ym2612"
    },
    {
      "channel": 2,
      "note": 78,
      "start": 3.5518,
      "duration": 0.094,
      "velocity": 99,
      "chip": "ym2612"
    },
    {
      "channel": 4,
      "note": 93,
      "start": 3.5528,
      "duration": 0.1158,
      "velocity": 127,
      "chip": "ym2612"
    },
    {
      "channel": 0,
      "note": 61,
      "start": 3.6669,
      "duration": 0.0149,
      "velocity": 91,
      "chip": "ym2612"
    },
    {
      "channel": 1,
      "note": 82,
      "start": 3.6674,
      "duration": 0.0315,
      "velocity": 99,
      "chip": "ym2612"
    },
    {
      "channel": 2,
      "note": 78,
      "start": 3.6679,
      "duration": 0.0312,
      "velocity": 99,
      "chip": "ym2612"
    },
    {
      "channel": 4,
      "note": 93,
      "start": 3.669,
      "duration": 0.1529,
      "velocity": 127,
      "chip": "ym2612"
    },
    {
      "channel": 0,
      "note": 54,
      "start": 3.6849,
      "duration": 0.0948,
      "velocity": 91,
      "chip": "ym2612"
    },
    {
      "channel": 1,
      "note": 85,
      "start": 3.7017,
      "duration": 0.0782,
      "velocity": 99,
      "chip": "ym2612"
    },
    {
      "channel": 2,
      "note": 82,
      "start": 3.7023,
      "duration": 0.0778,
      "velocity": 99,
      "chip": "ym2612"
    },
    {
      "channel": 0,
      "note": 53,
      "start": 3.8012,
      "duration": 0.0154,
      "velocity": 91,
      "chip": "ym2612"
    },
    {
      "channel": 1,
      "note": 82,
      "start": 3.8017,
      "duration": 0.0337,
      "velocity": 99,
      "chip": "ym2612"
    },
    {
      "channel": 2,
      "note": 78,
      "start": 3.8023,
      "duration": 0.0334,
      "velocity": 99,
      "chip": "ym2612"
    },
    {
      "channel": 0,
      "note": 54,
      "start": 3.8207,
      "duration": 0.0144,
      "velocity": 91,
      "chip": "ym2612"
    },
    {
      "channel": 4,
      "note": 93,
      "start": 3.8222,
      "duration": 0.1161,
      "velocity": 127,
      "chip": "ym2612"
    },
    {
      "channel": 1,
      "note": 82,
      "start": 3.8385,
      "duration": 0.1143,
      "velocity": 99,
      "chip": "ym2612"
    },
    {
      "channel": 2,
      "note": 78,
      "start": 3.8391,
      "duration": 0.114,
      "velocity": 99,
      "chip": "ym2612"
    },
    {
      "channel": 0,
      "note": 66,
      "start": 3.9371,
      "duration": 0.0154,
      "velocity": 91,
      "chip": "ym2612"
    },
    {
      "channel": 4,
      "note": 93,
      "start": 3.9386,
      "duration": 0.1543,
      "velocity": 127,
      "chip": "ym2612"
    },
    {
      "channel": 1,
      "note": 81,
      "start": 3.9571,
      "duration": 0.0152,
      "velocity": 99,
      "chip": "ym2612"
    },
    {
      "channel": 2,
      "note": 77,
      "start": 3.9577,
      "duration": 0.0149,
      "velocity": 99,
      "chip": "ym2612"
    },
    {
      "channel": 0,
      "note": 54,
      "start": 3.975,
      "duration": 0.132,
      "velocity": 91,
      "chip": "ym2612"
    },
    {
      "channel": 1,
      "note": 82,
      "start": 3.9756,
      "duration": 0.0946,
      "velocity": 99,
      "chip": "ym2612"
    },
    {
      "channel": 2,
      "note": 78,
      "start": 3.9761,
      "duration": 0.0943,
      "velocity": 99,
      "chip": "ym2612"
    },
    {
      "channel": 1,
      "note": 85,
      "start": 4.0917,
      "duration": 0.0156,
      "velocity": 99,
      "chip": "ym2612"
    },
    {
      "channel": 2,
      "note": 82,
      "start": 4.0922,
      "duration": 0.0153,
      "velocity": 99,
      "chip": "ym2612"
    },
    {
      "channel": 4,
      "note": 93,
      "start": 4.0932,
      "duration": 0.0356,
      "velocity": 127,
      "chip": "ym2612"
    },
    {
      "channel": 0,
      "note": 61,
      "start": 4.1099,
      "duration": 0.0324,
      "velocity": 91,
      "chip": "ym2612"
    },
    {
      "channel": 1,
      "note": 80,
      "start": 4.1105,
      "duration": 0.1122,
      "velocity": 99,
      "chip": "ym2612"
    },
    {
      "channel": 2,
      "note": 77,
      "start": 4.111,
      "duration": 0.1119,
      "velocity": 99,
      "chip": "ym2612"
    },
    {
      "channel": 4,
      "note": 93,
      "start": 4.1293,
      "duration": 0.233,
      "velocity": 127,
      "chip": "ym2612"
    },
    {
      "channel": 0,
      "note": 63,
      "start": 4.1451,
      "duration": 0.0773,
      "velocity": 91,
      "chip": "ym2612"
    },
    {
      "channel": 0,
      "note": 61,
      "start": 4.244,
      "duration": 0.0154,
      "velocity": 91,
      "chip": "ym2612"
    },
    {
      "channel": 1,
      "note": 80,
      "start": 4.2446,
      "duration": 0.0151,
      "velocity": 99,
      "chip": "ym2612"
    },
    {
      "channel": 2,
      "note": 77,
      "start": 4.2451,
      "duration": 0.0149,
      "velocity": 99,
      "chip": "ym2612"
    },
    {
      "channel": 0,
      "note": 56,
      "start": 4.2623,
      "duration": 0.0766,
      "velocity": 91,
      "chip": "ym2612"
    },
    {
      "channel": 1,
      "note": 82,
      "start": 4.2629,
      "duration": 0.0763,
      "velocity": 99,
      "chip": "ym2612"
    },
    {
      "channel": 2,
      "note": 78,
      "start": 4.2634,
      "duration": 0.0761,
      "velocity": 99,
      "chip": "ym2612"
    },
    {
      "channel": 0,
      "note": 61,
      "start": 4.3605,
      "duration": 0.1143,
      "velocity": 91,
      "chip": "ym2612"
    },
    {
      "channel": 1,
      "note": 80,
      "start": 4.361,
      "duration": 0.0094,
      "velocity": 99,
      "chip": "ym2612"
    },
    {
      "channel": 2,
      "note": 77,
      "start": 4.3616,
      "duration": 0.0091,
      "velocity": 99,
      "chip": "ym2612"
    },
    {
      "channel": 4,
      "note": 93,
      "start": 4.3626,
      "duration": 0.1545,
      "velocity": 127,
      "chip": "ym2612"
    },
    {
      "channel": 1,
      "note": 82,
      "start": 4.3733,
      "duration": 0.0101,
      "velocity": 99,
      "chip": "ym2612"
    },
    {
      "channel": 2,
      "note": 78,
      "start": 4.3739,
      "duration": 0.0098,
      "velocity": 99,
      "chip": "ym2612"
    },
    {
      "channel": 1,
      "note": 80,
      "start": 4.3862,
      "duration": 0.0085,
      "velocity": 99,
      "chip": "ym2612"
    },
    {
      "channel": 2,
      "note": 77,
      "start": 4.3868,
      "duration": 0.0081,
      "velocity": 99,
      "chip": "ym2612"
    },
    {
      "channel": 1,
      "note": 79,
      "start": 4.3976,
      "duration": 0.0776,
      "velocity": 99,
      "chip": "ym2612"
    },
    {
      "channel": 2,
      "note": 76,
      "start": 4.3981,
      "duration": 0.0773,
      "velocity": 99,
      "chip": "ym2612"
    },
    {
      "channel": 0,
      "note": 61,
      "start": 4.4964,
      "duration": 0.0156,
      "velocity": 91,
      "chip": "ym2612"
    },
    {
      "channel": 1,
      "note": 80,
      "start": 4.497,
      "duration": 0.0337,
      "velocity": 99,
      "chip": "ym2612"
    },
    {
      "channel": 2,
      "note": 77,
      "start": 4.4975,
      "duration": 0.0334,
      "velocity": 99,
      "chip": "ym2612"
    },
    {
      "channel": 4,
      "note": 93,
      "start": 4.5174,
      "duration": 0.1167,
      "velocity": 127,
      "chip": "ym2612"
    },
    {
      "channel": 0,
      "note": 61,
      "start": 4.5334,
      "duration": 0.0774,
      "velocity": 91,
      "chip": "ym2612"
    },
    {
      "channel": 1,
      "note": 82,
      "start": 4.5339,
      "duration": 0.0772,
      "velocity": 99,
      "chip": "ym2612"
    },
    {
      "channel": 2,
      "note": 78,
      "start": 4.5345,
      "duration": 0.0768,
      "velocity": 99,
      "chip": "ym2612"
    },
    {
      "channel": 0,
      "note": 56,
      "start": 4.6324,
      "duration": 0.0162,
      "velocity": 91,
      "chip": "ym2612"
    },
    {
      "channel": 1,
      "note": 84,
      "start": 4.6329,
      "duration": 0.0333,
      "velocity": 99,
      "chip": "ym2612"
    },
    {
      "channel": 2,
      "note": 80,
      "start": 4.6334,
      "duration": 0.033,
      "velocity": 99,
      "chip": "ym2612"
    },
    {
      "channel": 4,
      "note": 93,
      "start": 4.6344,
      "duration": 0.1532,
      "velocity": 127,
      "chip": "ym2612"
    },
    {
      "channel": 0,
      "note": 56,
      "start": 4.6703,
      "duration": 0.0144,
      "velocity": 91,
      "chip": "ym2612"
    },
    {
      "channel": 1,
      "note": 85,
      "start": 4.6708,
      "duration": 0.0143,
      "velocity": 99,
      "chip": "ym2612"
    },
    {
      "channel": 2,
      "note": 82,
      "start": 4.6714,
      "duration": 0.0139,
      "velocity": 99,
      "chip": "ym2612"
    },
    {
      "channel": 1,
      "note": 87,
      "start": 4.688,
      "duration": 0.1139,
      "velocity": 99,
      "chip": "ym2612"
    },
    {
      "channel": 2,
      "note": 84,
      "start": 4.6886,
      "duration": 0.1137,
      "velocity": 99,
      "chip": "ym2612"
    },
    {
      "channel": 0,
      "note": 61,
      "start": 4.7865,
      "duration": 0.1311,
      "velocity": 91,
      "chip": "ym2612"
    },
    {
      "channel": 4,
      "note": 93,
      "start": 4.788,
      "duration": 0.153,
      "velocity": 127,
      "chip": "ym2612"
    },
    {
      "channel": 1,
      "note": 89,
      "start": 4.8048,
      "duration": 0.0322,
      "velocity": 99,
      "chip": "ym2612"
    },
    {
      "channel": 2,
      "note": 85,
      "start": 4.8054,
      "duration": 0.032,
      "velocity": 99,
      "chip": "ym2612"
    },
    {
      "channel": 1,
      "note": 80,
      "start": 4.8399,
      "duration": 0.078,
      "velocity": 99,
      "chip": "ym2612"
    },
    {
      "channel": 2,
      "note": 77,
      "start": 4.8404,
      "duration": 0.0778,
      "velocity": 99,
      "chip": "ym2612"
    },
    {
      "channel": 0,
      "note": 61,
      "start": 4.9392,
      "duration": 0.1315,
      "velocity": 91,
      "chip": "ym2612"
    },
    {
      "channel": 1,
      "note": 82,
      "start": 4.9397,
      "duration": 0.0944,
      "velocity": 99,
      "chip": "ym2612"
    },
    {
      "channel": 2,
      "note": 78,
      "start": 4.9403,
      "duration": 0.0941,
      "velocity": 99,
      "chip": "ym2612"
    },
    {
      "channel": 4,
      "note": 93,
      "start": 4.9413,
      "duration": 0.1156,
      "velocity": 127,
      "chip": "ym2612"
    },
    {
      "channel": 1,
      "note": 80,
      "start": 5.0556,
      "duration": 0.0094,
      "velocity": 99,
      "chip": "ym2612"
    },
    {
      "channel": 2,
      "note": 77,
      "start": 5.0562,
      "duration": 0.009,
      "velocity": 99,
      "chip": "ym2612"
    },
    {
      "channel": 4,
      "note": 93,
      "start": 5.0572,
      "duration": 0.1547,
      "velocity": 127,
      "chip": "ym2612"
    },
    {
      "channel": 1,
      "note": 82,
      "start": 5.0679,
      "duration": 0.0107,
      "velocity": 99,
      "chip": "ym2612"
    },
    {
      "channel": 2,
      "note": 78,
      "start": 5.0684,
      "duration": 0.0104,
      "velocity": 99,
      "chip": "ym2612"
    },
    {
      "channel": 0,
      "note": 61,
      "start": 5.0752,
      "duration": 0.0144,
      "velocity": 91,
      "chip": "ym2612"
    },
    {
      "channel": 1,
      "note": 80,
      "start": 5.0815,
      "duration": 0.0084,
      "velocity": 99,
      "chip": "ym2612"
    },
    {
      "channel": 2,
      "note": 77,
      "start": 5.082,
      "duration": 0.0081,
      "velocity": 99,
      "chip": "ym2612"
    },
    {
      "channel": 1,
      "note": 79,
      "start": 5.0929,
      "duration": 0.0772,
      "velocity": 99,
      "chip": "ym2612"
    },
    {
      "channel": 2,
      "note": 76,
      "start": 5.0935,
      "duration": 0.0769,
      "velocity": 99,
      "chip": "ym2612"
    },
    {
      "channel": 0,
      "note": 56,
      "start": 5.1915,
      "duration": 0.0154,
      "velocity": 91,
      "chip": "ym2612"
    },
    {
      "channel": 1,
      "note": 80,
      "start": 5.192,
      "duration": 0.0334,
      "velocity": 99,
      "chip": "ym2612"
    },
    {
      "channel": 2,
      "note": 77,
      "start": 5.1925,
      "duration": 0.0332,
      "velocity": 99,
      "chip": "ym2612"
    },
    {
      "channel": 4,
      "note": 93,
      "start": 5.2123,
      "duration": 0.1165,
      "velocity": 127,
      "chip": "ym2612"
    },
    {
      "channel": 0,
      "note": 61,
      "start": 5.2281,
      "duration": 0.115,
      "velocity": 91,
      "chip": "ym2612"
    },
    {
      "channel": 1,
      "note": 82,
      "start": 5.2287,
      "duration": 0.0772,
      "velocity": 99,
      "chip": "ym2612"
    },
    {
      "channel": 2,
      "note": 78,
      "start": 5.2293,
      "duration": 0.0768,
      "velocity": 99,
      "chip": "ym2612"
    },
    {
      "channel": 1,
      "note": 84,
      "start": 5.3275,
      "duration": 0.0347,
      "velocity": 99,
      "chip": "ym2612"
    },
    {
      "channel": 2,
      "note": 80,
      "start": 5.328,
      "duration": 0.0346,
      "velocity": 99,
      "chip": "ym2612"
    },
    {
      "channel": 4,
      "note": 93,
      "start": 5.329,
      "duration": 0.1541,
      "velocity": 127,
      "chip": "ym2612"
    },
    {
      "channel": 0,
      "note": 68,
      "start": 5.3471,
      "duration": 0.0149,
      "velocity": 91,
      "chip": "ym2612"
    },
    {
      "channel": 0,
      "note": 61,
      "start": 5.3655,
      "duration": 0.0146,
      "velocity": 91,
      "chip": "ym2612"
    },
    {
      "channel": 1,
      "note": 85,
      "start": 5.366,
      "duration": 0.0144,
      "velocity": 99,
      "chip": "ym2612"
    },
    {
      "channel": 2,
      "note": 82,
      "start": 5.3666,
      "duration": 0.0141,
      "velocity": 99,
      "chip": "ym2612"
    },
    {
      "channel": 1,
      "note": 87,
      "start": 5.3833,
      "duration": 0.114,
      "velocity": 99,
      "chip": "ym2612"
    },
    {
      "channel": 2,
      "note": 84,
      "start": 5.3839,
      "duration": 0.1137,
      "velocity": 99,
      "chip": "ym2612"
    },
    {
      "channel": 0,
      "note": 56,
      "start": 5.482,
      "duration": 0.0327,
      "velocity": 91,
      "chip": "ym2612"
    },
    {
      "channel": 4,
      "note": 93,
      "start": 5.4835,
      "duration": 0.0361,
      "velocity": 127,
      "chip": "ym2612"
    },
    {
      "channel": 1,
      "note": 89,
      "start": 5.5001,
      "duration": 0.0333,
      "velocity": 99,
      "chip": "ym2612"
    },
    {
      "channel": 2,
      "note": 85,
      "start": 5.5007,
      "duration": 0.033,
      "velocity": 99,
      "chip": "ym2612"
    },
    {
      "channel": 0,
      "note": 54,
      "start": 5.5183,
      "duration": 0.2108,
      "velocity": 91,
      "chip": "ym2612"
    },
    {
      "channel": 4,
      "note": 93,
      "start": 5.5201,
      "duration": 0.2317,
      "velocity": 127,
      "chip": "ym2612"
    },
    {
      "channel": 1,
      "note": 82,
      "start": 5.5363,
      "duration": 0.113,
      "velocity": 99,
      "chip": "ym2612"
    },
    {
      "channel": 2,
      "note": 78,
      "start": 5.5368,
      "duration": 0.1129,
      "velocity": 99,
      "chip": "ym2612"
    },
    {
      "channel": 1,
      "note": 82,
      "start": 5.6522,
      "duration": 0.1301,
      "velocity": 99,
      "chip": "ym2612"
    },
    {
      "channel": 2,
      "note": 78,
      "start": 5.6528,
      "duration": 0.1297,
      "velocity": 99,
      "chip": "ym2612"
    },
    {
      "channel": 0,
      "note": 54,
      "start": 5.7507,
      "duration": 0.1127,
      "velocity": 91,
      "chip": "ym2612"
    },
    {
      "channel": 4,
      "note": 93,
      "start": 5.7522,
      "duration": 0.1532,
      "velocity": 127,
      "chip": "ym2612"
    },
    {
      "channel": 1,
      "note": 85,
      "start": 5.7851,
      "duration": 0.0785,
      "velocity": 99,
      "chip": "ym2612"
    },
    {
      "channel": 2,
      "note": 82,
      "start": 5.7857,
      "duration": 0.0782,
      "velocity": 99,
      "chip": "ym2612"
    },
    {
      "channel": 0,
      "note": 61,
      "start": 5.8849,
      "duration": 0.0154,
      "velocity": 91,
      "chip": "ym2612"
    },
    {
      "channel": 1,
      "note": 82,
      "start": 5.8854,
      "duration": 0.0334,
      "velocity": 99,
      "chip": "ym2612"
    },
    {
      "channel": 2,
      "note": 78,
      "start": 5.8859,
      "duration": 0.0332,
      "velocity": 99,
      "chip": "ym2612"
    },
    {
      "channel": 4,
      "note": 93,
      "start": 5.9057,
      "duration": 0.116,
      "velocity": 127,
      "chip": "ym2612"
    },
    {
      "channel": 0,
      "note": 61,
      "start": 5.9216,
      "duration": 0.0774,
      "velocity": 91,
      "chip": "ym2612"
    },
    {
      "channel": 1,
      "note": 82,
      "start": 5.9221,
      "duration": 0.1143,
      "velocity": 99,
      "chip": "ym2612"
    },
    {
      "channel": 2,
      "note": 78,
      "start": 5.9227,
      "duration": 0.114,
      "velocity": 99,
      "chip": "ym2612"
    },
    {
      "channel": 0,
      "note": 54,
      "start": 6.0206,
      "duration": 0.0155,
      "velocity": 91,
      "chip": "ym2612"
    },
    {
      "channel": 4,
      "note": 93,
      "start": 6.022,
      "duration": 0.1537,
      "velocity": 127,
      "chip": "ym2612"
    },
    {
      "channel": 1,
      "note": 81,
      "start": 6.0394,
      "duration": 0.0148,
      "velocity": 99,
      "chip": "ym2612"
    },
    {
      "channel": 2,
      "note": 77,
      "start": 6.0399,
      "duration": 0.0145,
      "velocity": 99,
      "chip": "ym2612"
    },
    {
      "channel": 0,
      "note": 54,
      "start": 6.0582,
      "duration": 0.0146,
      "velocity": 91,
      "chip": "ym2612"
    },
    {
      "channel": 1,
      "note": 82,
      "start": 6.0587,
      "duration": 0.0143,
      "velocity": 99,
      "chip": "ym2612"
    },
    {
      "channel": 2,
      "note": 78,
      "start": 6.0593,
      "duration": 0.0141,
      "velocity": 99,
      "chip": "ym2612"
    },
    {
      "channel": 1,
      "note": 77,
      "start": 6.0761,
      "duration": 0.1139,
      "velocity": 99,
      "chip": "ym2612"
    },
    {
      "channel": 2,
      "note": 73,
      "start": 6.0766,
      "duration": 0.1137,
      "velocity": 99,
      "chip": "ym2612"
    },
    {
      "channel": 0,
      "note": 66,
      "start": 6.1746,
      "duration": 0.0504,
      "velocity": 91,
      "chip": "ym2612"
    },
    {
      "channel": 4,
      "note": 93,
      "start": 6.1761,
      "duration": 0.153,
      "velocity": 127,
      "chip": "ym2612"
    },
    {
      "channel": 1,
      "note": 87,
      "start": 6.1929,
      "duration": 0.0323,
      "velocity": 99,
      "chip": "ym2612"
    },
    {
      "channel": 2,
      "note": 84,
      "start": 6.1935,
      "duration": 0.032,
      "velocity": 99,
      "chip": "ym2612"
    },
    {
      "channel": 0,
      "note": 54,
      "start": 6.2279,
      "duration": 0.0778,
      "velocity": 91,
      "chip": "ym2612"
    },
    {
      "channel": 1,
      "note": 89,
      "start": 6.2284,
      "duration": 0.0775,
      "velocity": 99,
      "chip": "ym2612"
    },
    {
      "channel": 2,
      "note": 85,
      "start": 6.2289,
      "duration": 0.0773,
      "velocity": 99,
      "chip": "ym2612"
    },
    {
      "channel": 0,
      "note": 61,
      "start": 6.3273,
      "duration": 0.0946,
      "velocity": 91,
      "chip": "ym2612"
    },
    {
      "channel": 1,
      "note": 82,
      "start": 6.3278,
      "duration": 0.0943,
      "velocity": 99,
      "chip": "ym2612"
    },
    {
      "channel": 2,
      "note": 78,
      "start": 6.3283,
      "duration": 0.0941,
      "velocity": 99,
      "chip": "ym2612"
    },
    {
      "channel": 4,
      "note": 93,
      "start": 6.3294,
      "duration": 0.1159,
      "velocity": 127,
      "chip": "ym2612"
    },
    {
      "channel": 0,
      "note": 61,
      "start": 6.4435,
      "duration": 0.0149,
      "velocity": 91,
      "chip": "ym2612"
    },
    {
      "channel": 1,
      "note": 82,
      "start": 6.444,
      "duration": 0.0313,
      "velocity": 99,
      "chip": "ym2612"
    },
    {
      "channel": 2,
      "note": 78,
      "start": 6.4445,
      "duration": 0.031,
      "velocity": 99,
      "chip": "ym2612"
    },
    {
      "channel": 4,
      "note": 93,
      "start": 6.4456,
      "duration": 0.1529,
      "velocity": 127,
      "chip": "ym2612"
    },
    {
      "channel": 0,
      "note": 54,
      "start": 6.4614,
      "duration": 0.0946,
      "velocity": 91,
      "chip": "ym2612"
    },
    {
      "channel": 1,
      "note": 85,
      "start": 6.4781,
      "duration": 0.078,
      "velocity": 99,
      "chip": "ym2612"
    },
    {
      "channel": 2,
      "note": 82,
      "start": 6.4787,
      "duration": 0.0777,
      "velocity": 99,
      "chip": "ym2612"
    },
    {
      "channel": 0,
      "note": 53,
      "start": 6.5775,
      "duration": 0.0156,
      "velocity": 91,
      "chip": "ym2612"
    },
    {
      "channel": 1,
      "note": 82,
      "start": 6.578,
      "duration": 0.034,
      "velocity": 99,
      "chip": "ym2612"
    },
    {
      "channel": 2,
      "note": 78,
      "start": 6.5786,
      "duration": 0.0337,
      "velocity": 99,
      "chip": "ym2612"
    },
    {
      "channel": 0,
      "note": 54,
      "start": 6.5973,
      "duration": 0.0144,
      "velocity": 91,
      "chip": "ym2612"
    },
    {
      "channel": 4,
      "note": 93,
      "start": 6.5988,
      "duration": 0.1157,
      "velocity": 127,
      "chip": "ym2612"
    },
    {
      "channel": 1,
      "note": 82,
      "start": 6.615,
      "duration": 0.114,
      "velocity": 99,
      "chip": "ym2612"
    },
    {
      "channel": 2,
      "note": 78,
      "start": 6.6156,
      "duration": 0.1137,
      "velocity": 99,
      "chip": "ym2612"
    },
    {
      "channel": 0,
      "note": 66,
      "start": 6.7134,
      "duration": 0.0155,
      "velocity": 91,
      "chip": "ym2612"
    },
    {
      "channel": 4,
      "note": 93,
      "start": 6.7148,
      "duration": 0.1545,
      "velocity": 127,
      "chip": "ym2612"
    },
    {
      "channel": 1,
      "note": 81,
      "start": 6.7334,
      "duration": 0.0153,
      "velocity": 99,
      "chip": "ym2612"
    },
    {
      "channel": 2,
      "note": 77,
      "start": 6.7339,
      "duration": 0.0151,
      "velocity": 99,
      "chip": "ym2612"
    },
    {
      "channel": 0,
      "note": 54,
      "start": 6.7515,
      "duration": 0.0946,
      "velocity": 91,
      "chip": "ym2612"
    },
    {
      "channel": 1,
      "note": 82,
      "start": 6.752,
      "duration": 0.0942,
      "velocity": 99,
      "chip": "ym2612"
    },
    {
      "channel": 2,
      "note": 78,
      "start": 6.7525,
      "duration": 0.094,
      "velocity": 99,
      "chip": "ym2612"
    },
    {
      "channel": 0,
      "note": 54,
      "start": 6.8676,
      "duration": 0.0159,
      "velocity": 91,
      "chip": "ym2612"
    },
    {
      "channel": 1,
      "note": 85,
      "start": 6.8681,
      "duration": 0.0156,
      "velocity": 99,
      "chip": "ym2612"
    },
    {
      "channel": 2,
      "note": 82,
      "start": 6.8686,
      "duration": 0.0154,
      "velocity": 99,
      "chip": "ym2612"
    },
    {
      "channel": 4,
      "note": 93,
      "start": 6.8697,
      "duration": 0.0374,
      "velocity": 127,
      "chip": "ym2612"
    },
    {
      "channel": 0,
      "note": 61,
      "start": 6.8864,
      "duration": 0.0153,
      "velocity": 91,
      "chip": "ym2612"
    },
    {
      "channel": 1,
      "note": 80,
      "start": 6.887,
      "duration": 0.2713,
      "velocity": 99,
      "chip": "ym2612"
    },
    {
      "channel": 2,
      "note": 77,
      "start": 6.8875,
      "duration": 0.2607,
      "velocity": 99,
      "chip": "ym2612"
    },
    {
      "channel": 4,
      "note": 93,
      "start": 6.9075,
      "duration": 0.2347,
      "velocity": 127,
      "chip": "ym2612"
    },
    {
      "channel": 3,
      "note": 52,
      "start": 7.1418,
      "duration": 0.1508,
      "velocity": 104,
      "chip": "ym2612"
    },
    {
      "channel": 4,
      "note": 93,
      "start": 7.1425,
      "duration": 0.1543,
      "velocity": 127,
      "chip": "ym2612"
    },
    {
      "channel": 2,
      "note": 61,
      "start": 7.153,
      "duration": 0.1499,
      "velocity": 104,
      "chip": "ym2612"
    },
    {
      "channel": 1,
      "note": 61,
      "start": 7.163,
      "duration": 0.1485,
      "velocity": 104,
      "chip": "ym2612"
    },
    {
      "channel": 3,
      "note": 61,
      "start": 7.2963,
      "duration": 0.2486,
      "velocity": 104,
      "chip": "ym2612"
    },
    {
      "channel": 4,
      "note": 93,
      "start": 7.2972,
      "duration": 0.1176,
      "velocity": 127,
      "chip": "ym2612"
    },
    {
      "channel": 2,
      "note": 73,
      "start": 7.3059,
      "duration": 0.2679,
      "velocity": 104,
      "chip": "ym2612"
    },
    {
      "channel": 1,
      "note": 73,
      "start": 7.3149,
      "duration": 0.2674,
      "velocity": 104,
      "chip": "ym2612"
    },
    {
      "channel": 0,
      "note": 54,
      "start": 7.4134,
      "duration": 0.016,
      "velocity": 88,
      "chip": "ym2612"
    },
    {
      "channel": 4,
      "note": 93,
      "start": 7.4151,
      "duration": 0.1523,
      "velocity": 127,
      "chip": "ym2612"
    },
    {
      "channel": 0,
      "note": 56,
      "start": 7.4322,
      "duration": 0.0142,
      "velocity": 88,
      "chip": "ym2612"
    },
    {
      "channel": 0,
      "note": 56,
      "start": 7.466,
      "duration": 0.078,
      "velocity": 88,
      "chip": "ym2612"
    },
    {
      "channel": 0,
      "note": 59,
      "start": 7.5656,
      "duration": 0.0164,
      "velocity": 88,
      "chip": "ym2612"
    },
    {
      "channel": 3,
      "note": 73,
      "start": 7.5669,
      "duration": 0.0159,
      "velocity": 104,
      "chip": "ym2612"
    },
    {
      "channel": 4,
      "note": 93,
      "start": 7.5677,
      "duration": 0.1538,
      "velocity": 127,
      "chip": "ym2612"
    },
    {
      "channel": 2,
      "note": 71,
      "start": 7.5769,
      "duration": 0.0154,
      "velocity": 104,
      "chip": "ym2612"
    },
    {
      "channel": 0,
      "note": 61,
      "start": 7.585,
      "duration": 0.0154,
      "velocity": 88,
      "chip": "ym2612"
    },
    {
      "channel": 1,
      "note": 71,
      "start": 7.5855,
      "duration": 0.0151,
      "velocity": 104,
      "chip": "ym2612"
    },
    {
      "channel": 3,
      "note": 71,
      "start": 7.5864,
      "duration": 0.0146,
      "velocity": 104,
      "chip": "ym2612"
    },
    {
      "channel": 2,
      "note": 70,
      "start": 7.5952,
      "duration": 0.0155,
      "velocity": 104,
      "chip": "ym2612"
    },
    {
      "channel": 1,
      "note": 70,
      "start": 7.6039,
      "duration": 0.0148,
      "velocity": 104,
      "chip": "ym2612"
    },
    {
      "channel": 3,
      "note": 70,
      "start": 7.6048,
      "duration": 0.0144,
      "velocity": 104,
      "chip": "ym2612"
    },
    {
      "channel": 2,
      "note": 71,
      "start": 7.6135,
      "duration": 0.0215,
      "velocity": 104,
      "chip": "ym2612"
    },
    {
      "channel": 1,
      "note": 71,
      "start": 7.6216,
      "duration": 0.0773,
      "velocity": 104,
      "chip": "ym2612"
    },
    {
      "channel": 3,
      "note": 71,
      "start": 7.7211,
      "duration": 0.0156,
      "velocity": 104,
      "chip": "ym2612"
    },
    {
      "channel": 4,
      "note": 93,
      "start": 7.7218,
      "duration": 0.1157,
      "velocity": 127,
      "chip": "ym2612"
    },
    {
      "channel": 2,
      "note": 75,
      "start": 7.7308,
      "duration": 0.0201,
      "velocity": 104,
      "chip": "ym2612"
    },
    {
      "channel": 1,
      "note": 75,
      "start": 7.739,
      "duration": 0.0759,
      "velocity": 104,
      "chip": "ym2612"
    },
    {
      "channel": 3,
      "note": 75,
      "start": 7.8371,
      "duration": 0.1125,
      "velocity": 104,
      "chip": "ym2612"
    },
    {
      "channel": 4,
      "note": 93,
      "start": 7.8379,
      "duration": 0.1537,
      "velocity": 127,
      "chip": "ym2612"
    },
    {
      "channel": 2,
      "note": 66,
      "start": 7.8462,
      "duration": 0.1318,
      "velocity": 104,
      "chip": "ym2612"
    },
    {
      "channel": 1,
      "note": 66,
      "start": 7.8545,
      "duration": 0.1326,
      "velocity": 104,
      "chip": "ym2612"
    },
    {
      "channel": 3,
      "note": 66,
      "start": 7.9713,
      "duration": 0.3234,
      "velocity": 104,
      "chip": "ym2612"
    },
    {
      "channel": 2,
      "note": 68,
      "start": 7.981,
      "duration": 0.3133,
      "velocity": 104,
      "chip": "ym2612"
    },
    {
      "channel": 1,
      "note": 68,
      "start": 7.9903,
      "duration": 0.3037,
      "velocity": 104,
      "chip": "ym2612"
    },
    {
      "channel": 4,
      "note": 93,
      "start": 7.992,
      "duration": 0.1156,
      "velocity": 127,
      "chip": "ym2612"
    },
    {
      "channel": 0,
      "note": 61,
      "start": 8.0098,
      "duration": 0.0749,
      "velocity": 88,
      "chip": "ym2612"
    },
    {
      "channel": 0,
      "note": 59,
      "start": 8.1063,
      "duration": 0.0153,
      "velocity": 88,
      "chip": "ym2612"
    },
    {
      "channel": 4,
      "note": 93,
      "start": 8.1079,
      "duration": 0.1538,
      "velocity": 127,
      "chip": "ym2612"
    },
    {
      "channel": 0,
      "note": 56,
      "start": 8.1443,
      "duration": 0.0143,
      "velocity": 88,
      "chip": "ym2612"
    },
    {
      "channel": 0,
      "note": 61,
      "start": 8.2604,
      "duration": 0.0333,
      "velocity": 88,
      "chip": "ym2612"
    },
    {
      "channel": 4,
      "note": 93,
      "start": 8.262,
      "duration": 0.0386,
      "velocity": 127,
      "chip": "ym2612"
    },
    {
      "channel": 0,
      "note": 59,
      "start": 8.2987,
      "duration": 0.1276,
      "velocity": 91,
      "chip": "ym2612"
    },
    {
      "channel": 4,
      "note": 93,
      "start": 8.3012,
      "duration": 0.229,
      "velocity": 127,
      "chip": "ym2612"
    },
    {
      "channel": 0,
      "note": 59,
      "start": 8.4292,
      "duration": 0.1159,
      "velocity": 91,
      "chip": "ym2612"
    },
    {
      "channel": 4,
      "note": 93,
      "start": 8.5305,
      "duration": 0.1557,
      "velocity": 127,
      "chip": "ym2612"
    },
    {
      "channel": 0,
      "note": 59,
      "start": 8.5492,
      "duration": 0.0947,
      "velocity": 91,
      "chip": "ym2612"
    },
    {
      "channel": 0,
      "note": 58,
      "start": 8.6655,
      "duration": 0.0153,
      "velocity": 91,
      "chip": "ym2612"
    },
    {
      "channel": 0,
      "note": 59,
      "start": 8.6849,
      "duration": 0.0158,
      "velocity": 91,
      "chip": "ym2612"
    },
    {
      "channel": 4,
      "note": 93,
      "start": 8.6865,
      "duration": 0.1517,
      "velocity": 127,
      "chip": "ym2612"
    },
    {
      "channel": 0,
      "note": 66,
      "start": 8.8011,
      "duration": 0.0144,
      "velocity": 91,
      "chip": "ym2612"
    },
    {
      "channel": 0,
      "note": 54,
      "start": 8.8371,
      "duration": 0.0161,
      "velocity": 91,
      "chip": "ym2612"
    },
    {
      "channel": 4,
      "note": 93,
      "start": 8.8386,
      "duration": 0.1569,
      "velocity": 127,
      "chip": "ym2612"
    },
    {
      "channel": 0,
      "note": 59,
      "start": 8.9531,
      "duration": 0.0152,
      "velocity": 91,
      "chip": "ym2612"
    },
    {
      "channel": 0,
      "note": 60,
      "start": 8.9713,
      "duration": 0.015,
      "velocity": 91,
      "chip": "ym2612"
    },
    {
      "channel": 0,
      "note": 61,
      "start": 8.9896,
      "duration": 0.2228,
      "velocity": 91,
      "chip": "ym2612"
    },
    {
      "channel": 1,
      "note": 85,
      "start": 8.9921,
      "duration": 0.0169,
      "velocity": 99,
      "chip": "ym2612"
    },
    {
      "channel": 2,
      "note": 77,
      "start": 8.9946,
      "duration": 0.2183,
      "velocity": 99,
      "chip": "ym2612"
    },
    {
      "channel": 4,
      "note": 93,
      "start": 8.9958,
      "duration": 0.2398,
      "velocity": 127,
      "chip": "ym2612"
    },
    {
      "channel": 1,
      "note": 83,
      "start": 9.0117,
      "duration": 0.0727,
      "velocity": 99,
      "chip": "ym2612"
    },
    {
      "channel": 1,
      "note": 80,
      "start": 9.106,
      "duration": 0.1067,
      "velocity": 99,
      "chip": "ym2612"
    },
    {
      "channel": 0,
      "note": 61,
      "start": 9.2339,
      "duration": 0.2232,
      "velocity": 91,
      "chip": "ym2612"
    },
    {
      "channel": 1,
      "note": 87,
      "start": 9.2344,
      "duration": 0.0145,
      "velocity": 99,
      "chip": "ym2612"
    },
    {
      "channel": 2,
      "note": 78,
      "start": 9.235,
      "duration": 0.2226,
      "velocity": 99,
      "chip": "ym2612"
    },
    {
      "channel": 4,
      "note": 93,
      "start": 9.236,
      "duration": 0.2445,
      "velocity": 127,
      "chip": "ym2612"
    },
    {
      "channel": 1,
      "note": 85,
      "start": 9.2518,
      "duration": 0.0773,
      "velocity": 99,
      "chip": "ym2612"
    },
    {
      "channel": 1,
      "note": 80,
      "start": 9.3507,
      "duration": 0.1067,
      "velocity": 99,
      "chip": "ym2612"
    },
    {
      "channel": 0,
      "note": 61,
      "start": 9.4787,
      "duration": 0.2229,
      "velocity": 91,
      "chip": "ym2612"
    },
    {
      "channel": 1,
      "note": 89,
      "start": 9.4792,
      "duration": 0.0145,
      "velocity": 99,
      "chip": "ym2612"
    },
    {
      "channel": 2,
      "note": 80,
      "start": 9.4798,
      "duration": 0.2223,
      "velocity": 99,
      "chip": "ym2612"
    },
    {
      "channel": 4,
      "note": 93,
      "start": 9.4808,
      "duration": 0.2442,
      "velocity": 127,
      "chip": "ym2612"
    },
    {
      "channel": 1,
      "note": 87,
      "start": 9.4965,
      "duration": 0.0771,
      "velocity": 99,
      "chip": "ym2612"
    },
    {
      "channel": 1,
      "note": 85,
      "start": 9.5951,
      "duration": 0.1067,
      "velocity": 99,
      "chip": "ym2612"
    },
    {
      "channel": 0,
      "note": 61,
      "start": 9.7231,
      "duration": 0.2229,
      "velocity": 91,
      "chip": "ym2612"
    },
    {
      "channel": 1,
      "note": 90,
      "start": 9.7237,
      "duration": 0.0145,
      "velocity": 99,
      "chip": "ym2612"
    },
    {
      "channel": 2,
      "note": 82,
      "start": 9.7242,
      "duration": 0.2224,
      "velocity": 99,
      "chip": "ym2612"
    },
    {
      "channel": 4,
      "note": 93,
      "start": 9.7253,
      "duration": 0.2441,
      "velocity": 127,
      "chip": "ym2612"
    },
    {
      "channel": 1,
      "note": 89,
      "start": 9.741,
      "duration": 0.0771,
      "velocity": 99,
      "chip": "ym2612"
    },
    {
      "channel": 1,
      "note": 87,
      "start": 9.8396,
      "duration": 0.1067,
      "velocity": 99,
      "chip": "ym2612"
    },
    {
      "channel": 0,
      "note": 61,
      "start": 9.9676,
      "duration": 0.0149,
      "velocity": 91,
      "chip": "ym2612"
    },
    {
      "channel": 1,
      "note": 89,
      "start": 9.9681,
      "duration": 0.0146,
      "velocity": 99,
      "chip": "ym2612"
    },
    {
      "channel": 2,
      "note": 80,
      "start": 9.9686,
      "duration": 0.0325,
      "velocity": 99,
      "chip": "ym2612"
    },
    {
      "channel": 4,
      "note": 93,
      "start": 9.9697,
      "duration": 0.0358,
      "velocity": 127,
      "chip": "ym2612"
    },
    {
      "channel": 1,
      "note": 87,
      "start": 9.986,
      "duration": 0.0149,
      "velocity": 99,
      "chip": "ym2612"
    },
    {
      "channel": 0,
      "note": 56,
      "start": 10.0037,
      "duration": 0.0151,
      "velocity": 91,
      "chip": "ym2612"
    },
    {
      "channel": 1,
      "note": 85,
      "start": 10.0043,
      "duration": 0.0148,
      "velocity": 99,
      "chip": "ym2612"
    },
    {
      "channel": 2,
      "note": 77,
      "start": 10.0048,
      "duration": 0.0517,
      "velocity": 99,
      "chip": "ym2612"
    },
    {
      "channel": 4,
      "note": 93,
      "start": 10.0059,
      "duration": 0.0548,
      "velocity": 127,
      "chip": "ym2612"
    },
    {
      "channel": 1,
      "note": 80,
      "start": 10.0221,
      "duration": 0.0341,
      "velocity": 99,
      "chip": "ym2612"
    },
    {
      "channel": 0,
      "note": 61,
      "start": 10.059,
      "duration": 0.2229,
      "velocity": 91,
      "chip": "ym2612"
    },
    {
      "channel": 1,
      "note": 85,
      "start": 10.0595,
      "duration": 0.0146,
      "velocity": 99,
      "chip": "ym2612"
    },
    {
      "channel": 2,
      "note": 77,
      "start": 10.0601,
      "duration": 0.2222,
      "velocity": 99,
      "chip": "ym2612"
    },
    {
      "channel": 4,
      "note": 93,
      "start": 10.0611,
      "duration": 0.2441,
      "velocity": 127,
      "chip": "ym2612"
    },
    {
      "channel": 1,
      "note": 83,
      "start": 10.0769,
      "duration": 0.0769,
      "velocity": 99,
      "chip": "ym2612"
    },
    {
      "channel": 1,
      "note": 80,
      "start": 10.1754,
      "duration": 0.1067,
      "velocity": 99,
      "chip": "ym2612"
    },
    {
      "channel": 0,
      "note": 61,
      "start": 10.3034,
      "duration": 0.1314,
      "velocity": 91,
      "chip": "ym2612"
    },
    {
      "channel": 1,
      "note": 87,
      "start": 10.3039,
      "duration": 0.0147,
      "velocity": 99,
      "chip": "ym2612"
    },
    {
      "channel": 2,
      "note": 78,
      "start": 10.3045,
      "duration": 0.1493,
      "velocity": 99,
      "chip": "ym2612"
    },
    {
      "channel": 4,
      "note": 93,
      "start": 10.3055,
      "duration": 0.1873,
      "velocity": 127,
      "chip": "ym2612"
    },
    {
      "channel": 1,
      "note": 85,
      "start": 10.3215,
      "duration": 0.0771,
      "velocity": 99,
      "chip": "ym2612"
    },
    {
      "channel": 1,
      "note": 83,
      "start": 10.4202,
      "duration": 0.0148,
      "velocity": 99,
      "chip": "ym2612"
    },
    {
      "channel": 0,
      "note": 61,
      "start": 10.4381,
      "duration": 0.0152,
      "velocity": 91,
      "chip": "ym2612"
    },
    {
      "channel": 1,
      "note": 80,
      "start": 10.4387,
      "duration": 0.0149,
      "velocity": 99,
      "chip": "ym2612"
    },
    {
      "channel": 1,
      "note": 90,
      "start": 10.4566,
      "duration": 0.0138,
      "velocity": 99,
      "chip": "ym2612"
    },
    {
      "channel": 2,
      "note": 82,
      "start": 10.4571,
      "duration": 0.0301,
      "velocity": 99,
      "chip": "ym2612"
    },
    {
      "channel": 1,
      "note": 89,
      "start": 10.4732,
      "duration": 0.0137,
      "velocity": 99,
      "chip": "ym2612"
    },
    {
      "channel": 0,
      "note": 56,
      "start": 10.4911,
      "duration": 0.0146,
      "velocity": 91,
      "chip": "ym2612"
    },
    {
      "channel": 1,
      "note": 87,
      "start": 10.4916,
      "duration": 0.0144,
      "velocity": 99,
      "chip": "ym2612"
    },
    {
      "channel": 2,
      "note": 78,
      "start": 10.4921,
      "duration": 0.0141,
      "velocity": 99,
      "chip": "ym2612"
    },
    {
      "channel": 4,
      "note": 93,
      "start": 10.4932,
      "duration": 0.0345,
      "velocity": 127,
      "chip": "ym2612"
    },
    {
      "channel": 1,
      "note": 89,
      "start": 10.509,
      "duration": 0.0329,
      "velocity": 99,
      "chip": "ym2612"
    },
    {
      "channel": 2,
      "note": 80,
      "start": 10.5096,
      "duration": 0.0327,
      "velocity": 99,
      "chip": "ym2612"
    },
    {
      "channel": 0,
      "note": 61,
      "start": 10.5264,
      "duration": 0.1483,
      "velocity": 91,
      "chip": "ym2612"
    },
    {
      "channel": 4,
      "note": 93,
      "start": 10.528,
      "duration": 0.1581,
      "velocity": 127,
      "chip": "ym2612"
    },
    {
      "channel": 1,
      "note": 85,
      "start": 10.5449,
      "duration": 0.0764,
      "velocity": 99,
      "chip": "ym2612"
    },
    {
      "channel": 2,
      "note": 77,
      "start": 10.5455,
      "duration": 0.0761,
      "velocity": 99,
      "chip": "ym2612"
    },
    {
      "channel": 1,
      "note": 80,
      "start": 10.6429,
      "duration": 0.0321,
      "velocity": 99,
      "chip": "ym2612"
    },
    {
      "channel": 2,
      "note": 80,
      "start": 10.6436,
      "duration": 0.0317,
      "velocity": 99,
      "chip": "ym2612"
    },
    {
      "channel": 0,
      "note": 59,
      "start": 10.6809,
      "duration": 0.1274,
      "velocity": 91,
      "chip": "ym2612"
    },
    {
      "channel": 4,
      "note": 93,
      "start": 10.6865,
      "duration": 0.2257,
      "velocity": 127,
      "chip": "ym2612"
    },
    {
      "channel": 0,
      "note": 59,
      "start": 10.8112,
      "duration": 0.1157,
      "velocity": 91,
      "chip": "ym2612"
    },
    {
      "channel": 4,
      "note": 93,
      "start": 10.9126,
      "duration": 0.1556,
      "velocity": 127,
      "chip": "ym2612"
    },
    {
      "channel": 0,
      "note": 59,
      "start": 10.9312,
      "duration": 0.0947,
      "velocity": 91,
      "chip": "ym2612"
    },
    {
      "channel": 0,
      "note": 58,
      "start": 11.0474,
      "duration": 0.0152,
      "velocity": 91,
      "chip": "ym2612"
    },
    {
      "channel": 0,
      "note": 59,
      "start": 11.0669,
      "duration": 0.0158,
      "velocity": 91,
      "chip": "ym2612"
    },
    {
      "channel": 4,
      "note": 93,
      "start": 11.0685,
      "duration": 0.1515,
      "velocity": 127,
      "chip": "ym2612"
    },
    {
      "channel": 0,
      "note": 66,
      "start": 11.1832,
      "duration": 0.0144,
      "velocity": 91,
      "chip": "ym2612"
    },
    {
      "channel": 0,
      "note": 54,
      "start": 11.2188,
      "duration": 0.016,
      "velocity": 91,
      "chip": "ym2612"
    },
    {
      "channel": 4,
      "note": 93,
      "start": 11.2203,
      "duration": 0.1555,
      "velocity": 127,
      "chip": "ym2612"
    },
    {
      "channel": 0,
      "note": 59,
      "start": 11.3349,
      "duration": 0.0142,
      "velocity": 91,
      "chip": "ym2612"
    },
    {
      "channel": 0,
      "note": 60,
      "start": 11.3521,
      "duration": 0.0151,
      "velocity": 91,
      "chip": "ym2612"
    },
    {
      "channel": 0,
      "note": 61,
      "start": 11.3702,
      "duration": 0.2228,
      "velocity": 91,
      "chip": "ym2612"
    },
    {
      "channel": 1,
      "note": 85,
      "start": 11.3726,
      "duration": 0.0168,
      "velocity": 99,
      "chip": "ym2612"
    },
    {
      "channel": 2,
      "note": 77,
      "start": 11.3749,
      "duration": 0.2187,
      "velocity": 99,
      "chip": "ym2612"
    },
    {
      "channel": 4,
      "note": 93,
      "start": 11.3762,
      "duration": 0.2402,
      "velocity": 127,
      "chip": "ym2612"
    },
    {
      "channel": 1,
      "note": 83,
      "start": 11.3922,
      "duration": 0.073,
      "velocity": 99,
      "chip": "ym2612"
    },
    {
      "channel": 1,
      "note": 80,
      "start": 11.4866,
      "duration": 0.1067,
      "velocity": 99,
      "chip": "ym2612"
    },
    {
      "channel": 0,
      "note": 61,
      "start": 11.6146,
      "duration": 0.2229,
      "velocity": 91,
      "chip": "ym2612"
    },
    {
      "channel": 1,
      "note": 87,
      "start": 11.6151,
      "duration": 0.0146,
      "velocity": 99,
      "chip": "ym2612"
    },
    {
      "channel": 2,
      "note": 78,
      "start": 11.6157,
      "duration": 0.2224,
      "velocity": 99,
      "chip": "ym2612"
    },
    {
      "channel": 4,
      "note": 93,
      "start": 11.6167,
      "duration": 0.2442,
      "velocity": 127,
      "chip": "ym2612"
    },
    {
      "channel": 1,
      "note": 85,
      "start": 11.6326,
      "duration": 0.0771,
      "velocity": 99,
      "chip": "ym2612"
    },
    {
      "channel": 1,
      "note": 80,
      "start": 11.7312,
      "duration": 0.1067,
      "velocity": 99,
      "chip": "ym2612"
    },
    {
      "channel": 0,
      "note": 61,
      "start": 11.8592,
      "duration": 0.2229,
      "velocity": 91,
      "chip": "ym2612"
    },
    {
      "channel": 1,
      "note": 89,
      "start": 11.8597,
      "duration": 0.0144,
      "velocity": 99,
      "chip": "ym2612"
    },
    {
      "channel": 2,
      "note": 80,
      "start": 11.8603,
      "duration": 0.2223,
      "velocity": 99,
      "chip": "ym2612"
    },
    {
      "channel": 4,
      "note": 93,
      "start": 11.8613,
      "duration": 0.2441,
      "velocity": 127,
      "chip": "ym2612"
    },
    {
      "channel": 1,
      "note": 87,
      "start": 11.877,
      "duration": 0.0771,
      "velocity": 99,
      "chip": "ym2612"
    },
    {
      "channel": 1,
      "note": 85,
      "start": 11.9756,
      "duration": 0.1067,
      "velocity": 99,
      "chip": "ym2612"
    },
    {
      "channel": 0,
      "note": 61,
      "start": 12.1036,
      "duration": 0.2229,
      "velocity": 91,
      "chip": "ym2612"
    },
    {
      "channel": 1,
      "note": 90,
      "start": 12.1041,
      "duration": 0.0146,
      "velocity": 99,
      "chip": "ym2612"
    },
    {
      "channel": 2,
      "note": 82,
      "start": 12.1047,
      "duration": 0.2224,
      "velocity": 99,
      "chip": "ym2612"
    },
    {
      "channel": 4,
      "note": 93,
      "start": 12.1057,
      "duration": 0.2442,
      "velocity": 127,
      "chip": "ym2612"
    },
    {
      "channel": 1,
      "note": 89,
      "start": 12.1215,
      "duration": 0.0771,
      "velocity": 99,
      "chip": "ym2612"
    },
    {
      "channel": 1,
      "note": 87,
      "start": 12.2201,
      "duration": 0.1067,
      "velocity": 99,
      "chip": "ym2612"
    },
    {
      "channel": 0,
      "note": 61,
      "start": 12.3481,
      "duration": 0.0149,
      "velocity": 91,
      "chip": "ym2612"
    },
    {
      "channel": 1,
      "note": 89,
      "start": 12.3486,
      "duration": 0.0146,
      "velocity": 99,
      "chip": "ym2612"
    },
    {
      "channel": 2,
      "note": 80,
      "start": 12.3492,
      "duration": 0.0323,
      "velocity": 99,
      "chip": "ym2612"
    },
    {
      "channel": 4,
      "note": 93,
      "start": 12.3502,
      "duration": 0.0361,
      "velocity": 127,
      "chip": "ym2612"
    },
    {
      "channel": 1,
      "note": 87,
      "start": 12.3663,
      "duration": 0.0149,
      "velocity": 99,
      "chip": "ym2612"
    },
    {
      "channel": 0,
      "note": 68,
      "start": 12.3846,
      "duration": 0.015,
      "velocity": 91,
      "chip": "ym2612"
    },
    {
      "channel": 1,
      "note": 85,
      "start": 12.3851,
      "duration": 0.0148,
      "velocity": 99,
      "chip": "ym2612"
    },
    {
      "channel": 2,
      "note": 77,
      "start": 12.3856,
      "duration": 0.0512,
      "velocity": 99,
      "chip": "ym2612"
    },
    {
      "channel": 4,
      "note": 93,
      "start": 12.3867,
      "duration": 0.0544,
      "velocity": 127,
      "chip": "ym2612"
    },
    {
      "channel": 1,
      "note": 80,
      "start": 12.4028,
      "duration": 0.0338,
      "velocity": 99,
      "chip": "ym2612"
    },
    {
      "channel": 0,
      "note": 61,
      "start": 12.4393,
      "duration": 0.2229,
      "velocity": 91,
      "chip": "ym2612"
    },
    {
      "channel": 1,
      "note": 85,
      "start": 12.4399,
      "duration": 0.0147,
      "velocity": 99,
      "chip": "ym2612"
    },
    {
      "channel": 2,
      "note": 77,
      "start": 12.4404,
      "duration": 0.2224,
      "velocity": 99,
      "chip": "ym2612"
    },
    {
      "channel": 4,
      "note": 93,
      "start": 12.4415,
      "duration": 0.2442,
      "velocity": 127,
      "chip": "ym2612"
    },
    {
      "channel": 1,
      "note": 83,
      "start": 12.4574,
      "duration": 0.077,
      "velocity": 99,
      "chip": "ym2612"
    },
    {
      "channel": 1,
      "note": 80,
      "start": 12.5559,
      "duration": 0.1067,
      "velocity": 99,
      "chip": "ym2612"
    },
    {
      "channel": 0,
      "note": 61,
      "start": 12.6839,
      "duration": 0.0947,
      "velocity": 91,
      "chip": "ym2612"
    },
    {
      "channel": 1,
      "note": 87,
      "start": 12.6844,
      "duration": 0.0146,
      "velocity": 99,
      "chip": "ym2612"
    },
    {
      "channel": 2,
      "note": 78,
      "start": 12.6849,
      "duration": 0.149,
      "velocity": 99,
      "chip": "ym2612"
    },
    {
      "channel": 4,
      "note": 93,
      "start": 12.686,
      "duration": 0.1873,
      "velocity": 127,
      "chip": "ym2612"
    },
    {
      "channel": 1,
      "note": 85,
      "start": 12.7019,
      "duration": 0.0769,
      "velocity": 99,
      "chip": "ym2612"
    },
    {
      "channel": 0,
      "note": 68,
      "start": 12.8001,
      "duration": 0.0151,
      "velocity": 91,
      "chip": "ym2612"
    },
    {
      "channel": 1,
      "note": 83,
      "start": 12.8007,
      "duration": 0.0148,
      "velocity": 99,
      "chip": "ym2612"
    },
    {
      "channel": 0,
      "note": 61,
      "start": 12.8182,
      "duration": 0.0152,
      "velocity": 91,
      "chip": "ym2612"
    },
    {
      "channel": 1,
      "note": 80,
      "start": 12.8188,
      "duration": 0.0149,
      "velocity": 99,
      "chip": "ym2612"
    },
    {
      "channel": 1,
      "note": 90,
      "start": 12.8367,
      "duration": 0.0138,
      "velocity": 99,
      "chip": "ym2612"
    },
    {
      "channel": 2,
      "note": 82,
      "start": 12.8373,
      "duration": 0.0305,
      "velocity": 99,
      "chip": "ym2612"
    },
    {
      "channel": 1,
      "note": 89,
      "start": 12.8538,
      "duration": 0.0137,
      "velocity": 99,
      "chip": "ym2612"
    },
    {
      "channel": 0,
      "note": 56,
      "start": 12.8715,
      "duration": 0.0148,
      "velocity": 91,
      "chip": "ym2612"
    },
    {
      "channel": 1,
      "note": 87,
      "start": 12.872,
      "duration": 0.0145,
      "velocity": 99,
      "chip": "ym2612"
    },
    {
      "channel": 2,
      "note": 78,
      "start": 12.8726,
      "duration": 0.0142,
      "velocity": 99,
      "chip": "ym2612"
    },
    {
      "channel": 4,
      "note": 93,
      "start": 12.8736,
      "duration": 0.0346,
      "velocity": 127,
      "chip": "ym2612"
    },
    {
      "channel": 1,
      "note": 89,
      "start": 12.8896,
      "duration": 0.033,
      "velocity": 99,
      "chip": "ym2612"
    },
    {
      "channel": 2,
      "note": 80,
      "start": 12.8902,
      "duration": 0.0327,
      "velocity": 99,
      "chip": "ym2612"
    },
    {
      "channel": 0,
      "note": 61,
      "start": 12.907,
      "duration": 0.1483,
      "velocity": 91,
      "chip": "ym2612"
    },
    {
      "channel": 4,
      "note": 93,
      "start": 12.9085,
      "duration": 0.159,
      "velocity": 127,
      "chip": "ym2612"
    },
    {
      "channel": 1,
      "note": 85,
      "start": 12.9255,
      "duration": 0.0765,
      "velocity": 99,
      "chip": "ym2612"
    },
    {
      "channel": 2,
      "note": 77,
      "start": 12.9261,
      "duration": 0.0761,
      "velocity": 99,
      "chip": "ym2612"
    },
    {
      "channel": 1,
      "note": 80,
      "start": 13.0235,
      "duration": 0.0321,
      "velocity": 99,
      "chip": "ym2612"
    },
    {
      "channel": 2,
      "note": 80,
      "start": 13.024,
      "duration": 0.0319,
      "velocity": 99,
      "chip": "ym2612"
    },
    {
      "channel": 0,
      "note": 59,
      "start": 13.0613,
      "duration": 0.0198,
      "velocity": 88,
      "chip": "ym2612"
    },
    {
      "channel": 1,
      "note": 83,
      "start": 13.0639,
      "duration": 0.0175,
      "velocity": 99,
      "chip": "ym2612"
    },
    {
      "channel": 2,
      "note": 75,
      "start": 13.0664,
      "duration": 0.0154,
      "velocity": 99,
      "chip": "ym2612"
    },
    {
      "channel": 4,
      "note": 93,
      "start": 13.0679,
      "duration": 0.2256,
      "velocity": 127,
      "chip": "ym2612"
    },
    {
      "channel": 0,
      "note": 59,
      "start": 13.0841,
      "duration": 0.0703,
      "velocity": 88,
      "chip": "ym2612"
    },
    {
      "channel": 1,
      "note": 83,
      "start": 13.0846,
      "duration": 0.2247,
      "velocity": 99,
      "chip": "ym2612"
    },
    {
      "channel": 2,
      "note": 75,
      "start": 13.0852,
      "duration": 0.2144,
      "velocity": 99,
      "chip": "ym2612"
    },
    {
      "channel": 3,
      "note": 67,
      "start": 13.293,
      "duration": 0.1506,
      "velocity": 104,
      "chip": "ym2612"
    },
    {
      "channel": 4,
      "note": 93,
      "start": 13.2938,
      "duration": 0.1541,
      "velocity": 127,
      "chip": "ym2612"
    },
    {
      "channel": 2,
      "note": 59,
      "start": 13.3042,
      "duration": 0.1499,
      "velocity": 104,
      "chip": "ym2612"
    },
    {
      "channel": 1,
      "note": 59,
      "start": 13.314,
      "duration": 0.1489,
      "velocity": 104,
      "chip": "ym2612"
    },
    {
      "channel": 3,
      "note": 59,
      "start": 13.4473,
      "duration": 0.2485,
      "velocity": 104,
      "chip": "ym2612"
    },
    {
      "channel": 4,
      "note": 93,
      "start": 13.4482,
      "duration": 0.1159,
      "velocity": 127,
      "chip": "ym2612"
    },
    {
      "channel": 2,
      "note": 71,
      "start": 13.4572,
      "duration": 0.2677,
      "velocity": 104,
      "chip": "ym2612"
    },
    {
      "channel": 1,
      "note": 71,
      "start": 13.4661,
      "duration": 0.2672,
      "velocity": 104,
      "chip": "ym2612"
    },
    {
      "channel": 0,
      "note": 52,
      "start": 13.5627,
      "duration": 0.0161,
      "velocity": 88,
      "chip": "ym2612"
    },
    {
      "channel": 4,
      "note": 93,
      "start": 13.5644,
      "duration": 0.1537,
      "velocity": 127,
      "chip": "ym2612"
    },
    {
      "channel": 0,
      "note": 54,
      "start": 13.5817,
      "duration": 0.0141,
      "velocity": 88,
      "chip": "ym2612"
    },
    {
      "channel": 0,
      "note": 54,
      "start": 13.6174,
      "duration": 0.0775,
      "velocity": 88,
      "chip": "ym2612"
    },
    {
      "channel": 0,
      "note": 57,
      "start": 13.7165,
      "duration": 0.0166,
      "velocity": 88,
      "chip": "ym2612"
    },
    {
      "channel": 3,
      "note": 71,
      "start": 13.7178,
      "duration": 0.0161,
      "velocity": 104,
      "chip": "ym2612"
    },
    {
      "channel": 4,
      "note": 93,
      "start": 13.7185,
      "duration": 0.1533,
      "velocity": 127,
      "chip": "ym2612"
    },
    {
      "channel": 2,
      "note": 69,
      "start": 13.7279,
      "duration": 0.0156,
      "velocity": 104,
      "chip": "ym2612"
    },
    {
      "channel": 0,
      "note": 59,
      "start": 13.736,
      "duration": 0.0154,
      "velocity": 88,
      "chip": "ym2612"
    },
    {
      "channel": 1,
      "note": 69,
      "start": 13.7366,
      "duration": 0.015,
      "velocity": 104,
      "chip": "ym2612"
    },
    {
      "channel": 3,
      "note": 69,
      "start": 13.7375,
      "duration": 0.0147,
      "velocity": 104,
      "chip": "ym2612"
    },
    {
      "channel": 2,
      "note": 68,
      "start": 13.7463,
      "duration": 0.0154,
      "velocity": 104,
      "chip": "ym2612"
    },
    {
      "channel": 1,
      "note": 68,
      "start": 13.7546,
      "duration": 0.0149,
      "velocity": 104,
      "chip": "ym2612"
    },
    {
      "channel": 3,
      "note": 68,
      "start": 13.7555,
      "duration": 0.0146,
      "velocity": 104,
      "chip": "ym2612"
    },
    {
      "channel": 2,
      "note": 69,
      "start": 13.7645,
      "duration": 0.0207,
      "velocity": 104,
      "chip": "ym2612"
    },
    {
      "channel": 1,
      "note": 69,
      "start": 13.7724,
      "duration": 0.0767,
      "velocity": 104,
      "chip": "ym2612"
    },
    {
      "channel": 3,
      "note": 69,
      "start": 13.8713,
      "duration": 0.0155,
      "velocity": 104,
      "chip": "ym2612"
    },
    {
      "channel": 4,
      "note": 93,
      "start": 13.8721,
      "duration": 0.1161,
      "velocity": 127,
      "chip": "ym2612"
    },
    {
      "channel": 2,
      "note": 73,
      "start": 13.8809,
      "duration": 0.0207,
      "velocity": 104,
      "chip": "ym2612"
    },
    {
      "channel": 1,
      "note": 73,
      "start": 13.8892,
      "duration": 0.0764,
      "velocity": 104,
      "chip": "ym2612"
    },
    {
      "channel": 3,
      "note": 73,
      "start": 13.9878,
      "duration": 0.1142,
      "velocity": 104,
      "chip": "ym2612"
    },
    {
      "channel": 4,
      "note": 93,
      "start": 13.9885,
      "duration": 0.1556,
      "velocity": 127,
      "chip": "ym2612"
    },
    {
      "channel": 2,
      "note": 64,
      "start": 13.9974,
      "duration": 0.1332,
      "velocity": 104,
      "chip": "ym2612"
    },
    {
      "channel": 1,
      "note": 64,
      "start": 14.0071,
      "duration": 0.1325,
      "velocity": 104,
      "chip": "ym2612"
    },
    {
      "channel": 3,
      "note": 64,
      "start": 14.1237,
      "duration": 0.3237,
      "velocity": 104,
      "chip": "ym2612"
    },
    {
      "channel": 2,
      "note": 66,
      "start": 14.1336,
      "duration": 0.3134,
      "velocity": 104,
      "chip": "ym2612"
    },
    {
      "channel": 1,
      "note": 66,
      "start": 14.1429,
      "duration": 0.0164,
      "velocity": 104,
      "chip": "ym2612"
    },
    {
      "channel": 4,
      "note": 93,
      "start": 14.1445,
      "duration": 0.1154,
      "velocity": 127,
      "chip": "ym2612"
    },
    {
      "channel": 0,
      "note": 59,
      "start": 14.1622,
      "duration": 0.0747,
      "velocity": 88,
      "chip": "ym2612"
    },
    {
      "channel": 1,
      "note": 87,
      "start": 14.1646,
      "duration": 0.0725,
      "velocity": 99,
      "chip": "ym2612"
    },
    {
      "channel": 0,
      "note": 57,
      "start": 14.2585,
      "duration": 0.0156,
      "velocity": 88,
      "chip": "ym2612"
    },
    {
      "channel": 1,
      "note": 85,
      "start": 14.259,
      "duration": 0.0154,
      "velocity": 99,
      "chip": "ym2612"
    },
    {
      "channel": 4,
      "note": 93,
      "start": 14.2602,
      "duration": 0.1541,
      "velocity": 127,
      "chip": "ym2612"
    },
    {
      "channel": 1,
      "note": 83,
      "start": 14.2786,
      "duration": 0.0151,
      "velocity": 99,
      "chip": "ym2612"
    },
    {
      "channel": 0,
      "note": 54,
      "start": 14.2966,
      "duration": 0.0148,
      "velocity": 88,
      "chip": "ym2612"
    },
    {
      "channel": 1,
      "note": 81,
      "start": 14.2972,
      "duration": 0.0146,
      "velocity": 99,
      "chip": "ym2612"
    },
    {
      "channel": 1,
      "note": 78,
      "start": 14.3147,
      "duration": 0.0769,
      "velocity": 99,
      "chip": "ym2612"
    },
    {
      "channel": 0,
      "note": 59,
      "start": 14.4129,
      "duration": 0.0336,
      "velocity": 88,
      "chip": "ym2612"
    },
    {
      "channel": 1,
      "note": 76,
      "start": 14.4134,
      "duration": 0.0159,
      "velocity": 99,
      "chip": "ym2612"
    },
    {
      "channel": 4,
      "note": 93,
      "start": 14.4147,
      "duration": 0.0395,
      "velocity": 127,
      "chip": "ym2612"
    },
    {
      "channel": 1,
      "note": 75,
      "start": 14.4321,
      "duration": 0.0146,
      "velocity": 99,
      "chip": "ym2612"
    },
    {
      "channel": 0,
      "note": 61,
      "start": 14.4525,
      "duration": 0.1315,
      "velocity": 91,
      "chip": "ym2612"
    },
    {
      "channel": 4,
      "note": 93,
      "start": 14.4545,
      "duration": 0.2299,
      "velocity": 127,
      "chip": "ym2612"
    },
    {
      "channel": 2,
      "note": 68,
      "start": 14.5693,
      "duration": 0.0929,
      "velocity": 104,
      "chip": "ym2612"
    },
    {
      "channel": 3,
      "note": 66,
      "start": 14.57,
      "duration": 0.0925,
      "velocity": 104,
      "chip": "ym2612"
    },
    {
      "channel": 0,
      "note": 61,
      "start": 14.5868,
      "duration": 0.1289,
      "velocity": 91,
      "chip": "ym2612"
    },
    {
      "channel": 4,
      "note": 93,
      "start": 14.6847,
      "duration": 0.154,
      "velocity": 127,
      "chip": "ym2612"
    },
    {
      "channel": 2,
      "note": 68,
      "start": 14.7017,
      "duration": 0.0088,
      "velocity": 104,
      "chip": "ym2612"
    },
    {
      "channel": 3,
      "note": 77,
      "start": 14.7024,
      "duration": 0.0085,
      "velocity": 104,
      "chip": "ym2612"
    },
    {
      "channel": 0,
      "note": 61,
      "start": 14.7184,
      "duration": 0.114,
      "velocity": 91,
      "chip": "ym2612"
    },
    {
      "channel": 2,
      "note": 68,
      "start": 14.8178,
      "duration": 0.0152,
      "velocity": 104,
      "chip": "ym2612"
    },
    {
      "channel": 3,
      "note": 77,
      "start": 14.8184,
      "duration": 0.0149,
      "velocity": 104,
      "chip": "ym2612"
    },
    {
      "channel": 0,
      "note": 61,
      "start": 14.8368,
      "duration": 0.0153,
      "velocity": 91,
      "chip": "ym2612"
    },
    {
      "channel": 2,
      "note": 70,
      "start": 14.8376,
      "duration": 0.0151,
      "velocity": 104,
      "chip": "ym2612"
    },
    {
      "channel": 3,
      "note": 77,
      "start": 14.8382,
      "duration": 0.0148,
      "velocity": 104,
      "chip": "ym2612"
    },
    {
      "channel": 4,
      "note": 93,
      "start": 14.839,
      "duration": 0.1155,
      "velocity": 127,
      "chip": "ym2612"
    },
    {
      "channel": 2,
      "note": 70,
      "start": 14.856,
      "duration": 0.0334,
      "velocity": 104,
      "chip": "ym2612"
    },
    {
      "channel": 3,
      "note": 78,
      "start": 14.8567,
      "duration": 0.0331,
      "velocity": 104,
      "chip": "ym2612"
    },
    {
      "channel": 0,
      "note": 54,
      "start": 14.9533,
      "duration": 0.0155,
      "velocity": 91,
      "chip": "ym2612"
    },
    {
      "channel": 4,
      "note": 93,
      "start": 14.9548,
      "duration": 0.1545,
      "velocity": 127,
      "chip": "ym2612"
    },
    {
      "channel": 2,
      "note": 68,
      "start": 14.9723,
      "duration": 0.0094,
      "velocity": 104,
      "chip": "ym2612"
    },
    {
      "channel": 3,
      "note": 78,
      "start": 14.9729,
      "duration": 0.0091,
      "velocity": 104,
      "chip": "ym2612"
    },
    {
      "channel": 0,
      "note": 56,
      "start": 14.9909,
      "duration": 0.0144,
      "velocity": 91,
      "chip": "ym2612"
    },
    {
      "channel": 2,
      "note": 70,
      "start": 15.0088,
      "duration": 0.0776,
      "velocity": 104,
      "chip": "ym2612"
    },
    {
      "channel": 3,
      "note": 77,
      "start": 15.0095,
      "duration": 0.0773,
      "velocity": 104,
      "chip": "ym2612"
    },
    {
      "channel": 0,
      "note": 59,
      "start": 15.1074,
      "duration": 0.0162,
      "velocity": 91,
      "chip": "ym2612"
    },
    {
      "channel": 2,
      "note": 66,
      "start": 15.1082,
      "duration": 0.033,
      "velocity": 104,
      "chip": "ym2612"
    },
    {
      "channel": 3,
      "note": 78,
      "start": 15.1088,
      "duration": 0.0327,
      "velocity": 104,
      "chip": "ym2612"
    },
    {
      "channel": 4,
      "note": 93,
      "start": 15.1096,
      "duration": 0.0366,
      "velocity": 127,
      "chip": "ym2612"
    },
    {
      "channel": 0,
      "note": 61,
      "start": 15.1439,
      "duration": 0.02,
      "velocity": 91,
      "chip": "ym2612"
    },
    {
      "channel": 1,
      "note": 77,
      "start": 15.1444,
      "duration": 0.0943,
      "velocity": 99,
      "chip": "ym2612"
    },
    {
      "channel": 2,
      "note": 68,
      "start": 15.1451,
      "duration": 0.0138,
      "velocity": 104,
      "chip": "ym2612"
    },
    {
      "channel": 3,
      "note": 75,
      "start": 15.1459,
      "duration": 0.0133,
      "velocity": 104,
      "chip": "ym2612"
    },
    {
      "channel": 4,
      "note": 93,
      "start": 15.1466,
      "duration": 0.1156,
      "velocity": 127,
      "chip": "ym2612"
    },
    {
      "channel": 0,
      "note": 61,
      "start": 15.2601,
      "duration": 0.0185,
      "velocity": 91,
      "chip": "ym2612"
    },
    {
      "channel": 1,
      "note": 78,
      "start": 15.2606,
      "duration": 0.0941,
      "velocity": 99,
      "chip": "ym2612"
    },
    {
      "channel": 2,
      "note": 70,
      "start": 15.2612,
      "duration": 0.0123,
      "velocity": 104,
      "chip": "ym2612"
    },
    {
      "channel": 3,
      "note": 77,
      "start": 15.2618,
      "duration": 0.012,
      "velocity": 104,
      "chip": "ym2612"
    },
    {
      "channel": 4,
      "note": 93,
      "start": 15.2626,
      "duration": 0.1156,
      "velocity": 127,
      "chip": "ym2612"
    },
    {
      "channel": 0,
      "note": 56,
      "start": 15.376,
      "duration": 0.0189,
      "velocity": 91,
      "chip": "ym2612"
    },
    {
      "channel": 1,
      "note": 75,
      "start": 15.3766,
      "duration": 0.0945,
      "velocity": 99,
      "chip": "ym2612"
    },
    {
      "channel": 2,
      "note": 66,
      "start": 15.3771,
      "duration": 0.0126,
      "velocity": 104,
      "chip": "ym2612"
    },
    {
      "channel": 3,
      "note": 78,
      "start": 15.3777,
      "duration": 0.0123,
      "velocity": 104,
      "chip": "ym2612"
    },
    {
      "channel": 4,
      "note": 93,
      "start": 15.3785,
      "duration": 0.1161,
      "velocity": 127,
      "chip": "ym2612"
    },
    {
      "channel": 0,
      "note": 61,
      "start": 15.4924,
      "duration": 0.0187,
      "velocity": 91,
      "chip": "ym2612"
    },
    {
      "channel": 1,
      "note": 77,
      "start": 15.493,
      "duration": 0.0944,
      "velocity": 99,
      "chip": "ym2612"
    },
    {
      "channel": 2,
      "note": 68,
      "start": 15.4936,
      "duration": 0.0125,
      "velocity": 104,
      "chip": "ym2612"
    },
    {
      "channel": 3,
      "note": 75,
      "start": 15.4942,
      "duration": 0.0122,
      "velocity": 104,
      "chip": "ym2612"
    },
    {
      "channel": 4,
      "note": 93,
      "start": 15.4949,
      "duration": 0.3748,
      "velocity": 127,
      "chip": "ym2612"
    },
    {
      "channel": 0,
      "note": 68,
      "start": 15.7549,
      "duration": 0.0201,
      "velocity": 88,
      "chip": "ym2612"
    },
    {
      "channel": 0,
      "note": 56,
      "start": 15.7915,
      "duration": 0.0667,
      "velocity": 88,
      "chip": "ym2612"
    },
    {
      "channel": 0,
      "note": 61,
      "start": 15.8637,
      "duration": 0.2086,
      "velocity": 91,
      "chip": "ym2612"
    },
    {
      "channel": 1,
      "note": 80,
      "start": 15.8661,
      "duration": 0.0903,
      "velocity": 99,
      "chip": "ym2612"
    },
    {
      "channel": 2,
      "note": 77,
      "start": 15.8686,
      "duration": 0.0881,
      "velocity": 99,
      "chip": "ym2612"
    },
    {
      "channel": 4,
      "note": 93,
      "start": 15.8703,
      "duration": 0.2253,
      "velocity": 127,
      "chip": "ym2612"
    },
    {
      "channel": 1,
      "note": 80,
      "start": 15.978,
      "duration": 0.015,
      "velocity": 99,
      "chip": "ym2612"
    },
    {
      "channel": 2,
      "note": 77,
      "start": 15.9785,
      "duration": 0.0148,
      "velocity": 99,
      "chip": "ym2612"
    },
    {
      "channel": 1,
      "note": 82,
      "start": 15.9958,
      "duration": 0.0769,
      "velocity": 99,
      "chip": "ym2612"
    },
    {
      "channel": 2,
      "note": 78,
      "start": 15.9964,
      "duration": 0.0765,
      "velocity": 99,
      "chip": "ym2612"
    },
    {
      "channel": 0,
      "note": 61,
      "start": 16.0939,
      "duration": 0.1144,
      "velocity": 91,
      "chip": "ym2612"
    },
    {
      "channel": 1,
      "note": 80,
      "start": 16.0944,
      "duration": 0.0094,
      "velocity": 99,
      "chip": "ym2612"
    },
    {
      "channel": 2,
      "note": 77,
      "start": 16.095,
      "duration": 0.0091,
      "velocity": 99,
      "chip": "ym2612"
    },
    {
      "channel": 4,
      "note": 93,
      "start": 16.096,
      "duration": 0.1547,
      "velocity": 127,
      "chip": "ym2612"
    },
    {
      "channel": 1,
      "note": 82,
      "start": 16.1067,
      "duration": 0.01,
      "velocity": 99,
      "chip": "ym2612"
    },
    {
      "channel": 2,
      "note": 78,
      "start": 16.1073,
      "duration": 0.0097,
      "velocity": 99,
      "chip": "ym2612"
    },
    {
      "channel": 1,
      "note": 80,
      "start": 16.1197,
      "duration": 0.0084,
      "velocity": 99,
      "chip": "ym2612"
    },
    {
      "channel": 2,
      "note": 77,
      "start": 16.1202,
      "duration": 0.0081,
      "velocity": 99,
      "chip": "ym2612"
    },
    {
      "channel": 1,
      "note": 79,
      "start": 16.1309,
      "duration": 0.0776,
      "velocity": 99,
      "chip": "ym2612"
    },
    {
      "channel": 2,
      "note": 76,
      "start": 16.1315,
      "duration": 0.0773,
      "velocity": 99,
      "chip": "ym2612"
    },
    {
      "channel": 0,
      "note": 61,
      "start": 16.2299,
      "duration": 0.0157,
      "velocity": 91,
      "chip": "ym2612"
    },
    {
      "channel": 1,
      "note": 80,
      "start": 16.2304,
      "duration": 0.0339,
      "velocity": 99,
      "chip": "ym2612"
    },
    {
      "channel": 2,
      "note": 77,
      "start": 16.2309,
      "duration": 0.0336,
      "velocity": 99,
      "chip": "ym2612"
    },
    {
      "channel": 4,
      "note": 93,
      "start": 16.251,
      "duration": 0.1165,
      "velocity": 127,
      "chip": "ym2612"
    },
    {
      "channel": 0,
      "note": 61,
      "start": 16.267,
      "duration": 0.0772,
      "velocity": 91,
      "chip": "ym2612"
    },
    {
      "channel": 1,
      "note": 82,
      "start": 16.2676,
      "duration": 0.0769,
      "velocity": 99,
      "chip": "ym2612"
    },
    {
      "channel": 2,
      "note": 78,
      "start": 16.2681,
      "duration": 0.0766,
      "velocity": 99,
      "chip": "ym2612"
    },
    {
      "channel": 0,
      "note": 56,
      "start": 16.3657,
      "duration": 0.0162,
      "velocity": 91,
      "chip": "ym2612"
    },
    {
      "channel": 1,
      "note": 84,
      "start": 16.3663,
      "duration": 0.0332,
      "velocity": 99,
      "chip": "ym2612"
    },
    {
      "channel": 2,
      "note": 80,
      "start": 16.3668,
      "duration": 0.0329,
      "velocity": 99,
      "chip": "ym2612"
    },
    {
      "channel": 4,
      "note": 93,
      "start": 16.3679,
      "duration": 0.1531,
      "velocity": 127,
      "chip": "ym2612"
    },
    {
      "channel": 0,
      "note": 56,
      "start": 16.4036,
      "duration": 0.0145,
      "velocity": 91,
      "chip": "ym2612"
    },
    {
      "channel": 1,
      "note": 85,
      "start": 16.4041,
      "duration": 0.0142,
      "velocity": 99,
      "chip": "ym2612"
    },
    {
      "channel": 2,
      "note": 82,
      "start": 16.4047,
      "duration": 0.0139,
      "velocity": 99,
      "chip": "ym2612"
    },
    {
      "channel": 1,
      "note": 87,
      "start": 16.4214,
      "duration": 0.1137,
      "velocity": 99,
      "chip": "ym2612"
    },
    {
      "channel": 2,
      "note": 84,
      "start": 16.422,
      "duration": 0.1135,
      "velocity": 99,
      "chip": "ym2612"
    },
    {
      "channel": 0,
      "note": 61,
      "start": 16.5198,
      "duration": 0.1312,
      "velocity": 91,
      "chip": "ym2612"
    },
    {
      "channel": 4,
      "note": 93,
      "start": 16.5213,
      "duration": 0.1531,
      "velocity": 127,
      "chip": "ym2612"
    },
    {
      "channel": 1,
      "note": 89,
      "start": 16.5381,
      "duration": 0.0323,
      "velocity": 99,
      "chip": "ym2612"
    },
    {
      "channel": 2,
      "note": 85,
      "start": 16.5387,
      "duration": 0.032,
      "velocity": 99,
      "chip": "ym2612"
    },
    {
      "channel": 1,
      "note": 80,
      "start": 16.5732,
      "duration": 0.078,
      "velocity": 99,
      "chip": "ym2612"
    },
    {
      "channel": 2,
      "note": 77,
      "start": 16.5737,
      "duration": 0.0778,
      "velocity": 99,
      "chip": "ym2612"
    },
    {
      "channel": 0,
      "note": 61,
      "start": 16.6726,
      "duration": 0.1316,
      "velocity": 91,
      "chip": "ym2612"
    },
    {
      "channel": 1,
      "note": 82,
      "start": 16.6731,
      "duration": 0.0944,
      "velocity": 99,
      "chip": "ym2612"
    },
    {
      "channel": 2,
      "note": 78,
      "start": 16.6737,
      "duration": 0.0941,
      "velocity": 99,
      "chip": "ym2612"
    },
    {
      "channel": 4,
      "note": 93,
      "start": 16.6747,
      "duration": 0.1156,
      "velocity": 127,
      "chip": "ym2612"
    },
    {
      "channel": 1,
      "note": 80,
      "start": 16.789,
      "duration": 0.0094,
      "velocity": 99,
      "chip": "ym2612"
    },
    {
      "channel": 2,
      "note": 77,
      "start": 16.7896,
      "duration": 0.0091,
      "velocity": 99,
      "chip": "ym2612"
    },
    {
      "channel": 4,
      "note": 93,
      "start": 16.7906,
      "duration": 0.1548,
      "velocity": 127,
      "chip": "ym2612"
    },
    {
      "channel": 1,
      "note": 82,
      "start": 16.8013,
      "duration": 0.0107,
      "velocity": 99,
      "chip": "ym2612"
    },
    {
      "channel": 2,
      "note": 78,
      "start": 16.8018,
      "duration": 0.0104,
      "velocity": 99,
      "chip": "ym2612"
    },
    {
      "channel": 0,
      "note": 61,
      "start": 16.8086,
      "duration": 0.0144,
      "velocity": 91,
      "chip": "ym2612"
    },
    {
      "channel": 1,
      "note": 80,
      "start": 16.8149,
      "duration": 0.0085,
      "velocity": 99,
      "chip": "ym2612"
    },
    {
      "channel": 2,
      "note": 77,
      "start": 16.8154,
      "duration": 0.0081,
      "velocity": 99,
      "chip": "ym2612"
    },
    {
      "channel": 1,
      "note": 79,
      "start": 16.8263,
      "duration": 0.0772,
      "velocity": 99,
      "chip": "ym2612"
    },
    {
      "channel": 2,
      "note": 76,
      "start": 16.8269,
      "duration": 0.0769,
      "velocity": 99,
      "chip": "ym2612"
    },
    {
      "channel": 0,
      "note": 56,
      "start": 16.9248,
      "duration": 0.0155,
      "velocity": 91,
      "chip": "ym2612"
    },
    {
      "channel": 1,
      "note": 80,
      "start": 16.9254,
      "duration": 0.0335,
      "velocity": 99,
      "chip": "ym2612"
    },
    {
      "channel": 2,
      "note": 77,
      "start": 16.9259,
      "duration": 0.0333,
      "velocity": 99,
      "chip": "ym2612"
    },
    {
      "channel": 4,
      "note": 93,
      "start": 16.9457,
      "duration": 0.1164,
      "velocity": 127,
      "chip": "ym2612"
    },
    {
      "channel": 0,
      "note": 61,
      "start": 16.9617,
      "duration": 0.1148,
      "velocity": 91,
      "chip": "ym2612"
    },
    {
      "channel": 1,
      "note": 82,
      "start": 16.9622,
      "duration": 0.0772,
      "velocity": 99,
      "chip": "ym2612"
    },
    {
      "channel": 2,
      "note": 78,
      "start": 16.9627,
      "duration": 0.0768,
      "velocity": 99,
      "chip": "ym2612"
    },
    {
      "channel": 1,
      "note": 84,
      "start": 17.0608,
      "duration": 0.0347,
      "velocity": 99,
      "chip": "ym2612"
    },
    {
      "channel": 2,
      "note": 80,
      "start": 17.0614,
      "duration": 0.0344,
      "velocity": 99,
      "chip": "ym2612"
    },
    {
      "channel": 4,
      "note": 93,
      "start": 17.0624,
      "duration": 0.1539,
      "velocity": 127,
      "chip": "ym2612"
    },
    {
      "channel": 0,
      "note": 68,
      "start": 17.0804,
      "duration": 0.0148,
      "velocity": 91,
      "chip": "ym2612"
    },
    {
      "channel": 0,
      "note": 61,
      "start": 17.0986,
      "duration": 0.0146,
      "velocity": 91,
      "chip": "ym2612"
    },
    {
      "channel": 1,
      "note": 85,
      "start": 17.0992,
      "duration": 0.0143,
      "velocity": 99,
      "chip": "ym2612"
    },
    {
      "channel": 2,
      "note": 82,
      "start": 17.0997,
      "duration": 0.014,
      "velocity": 99,
      "chip": "ym2612"
    },
    {
      "channel": 1,
      "note": 87,
      "start": 17.1167,
      "duration": 0.1139,
      "velocity": 99,
      "chip": "ym2612"
    },
    {
      "channel": 2,
      "note": 84,
      "start": 17.1173,
      "duration": 0.1137,
      "velocity": 99,
      "chip": "ym2612"
    },
    {
      "channel": 0,
      "note": 56,
      "start": 17.2151,
      "duration": 0.0329,
      "velocity": 91,
      "chip": "ym2612"
    },
    {
      "channel": 4,
      "note": 93,
      "start": 17.2166,
      "duration": 0.0363,
      "velocity": 127,
      "chip": "ym2612"
    },
    {
      "channel": 1,
      "note": 89,
      "start": 17.2334,
      "duration": 0.0332,
      "velocity": 99,
      "chip": "ym2612"
    },
    {
      "channel": 2,
      "note": 85,
      "start": 17.234,
      "duration": 0.0329,
      "velocity": 99,
      "chip": "ym2612"
    },
    {
      "channel": 0,
      "note": 54,
      "start": 17.2515,
      "duration": 0.211,
      "velocity": 91,
      "chip": "ym2612"
    },
    {
      "channel": 4,
      "note": 93,
      "start": 17.2534,
      "duration": 0.2318,
      "velocity": 127,
      "chip": "ym2612"
    },
    {
      "channel": 1,
      "note": 82,
      "start": 17.2695,
      "duration": 0.1132,
      "velocity": 99,
      "chip": "ym2612"
    },
    {
      "channel": 2,
      "note": 78,
      "start": 17.27,
      "duration": 0.113,
      "velocity": 99,
      "chip": "ym2612"
    },
    {
      "channel": 1,
      "note": 82,
      "start": 17.3856,
      "duration": 0.1303,
      "velocity": 99,
      "chip": "ym2612"
    },
    {
      "channel": 2,
      "note": 78,
      "start": 17.3862,
      "duration": 0.1299,
      "velocity": 99,
      "chip": "ym2612"
    },
    {
      "channel": 0,
      "note": 54,
      "start": 17.4841,
      "duration": 0.1126,
      "velocity": 91,
      "chip": "ym2612"
    },
    {
      "channel": 4,
      "note": 93,
      "start": 17.4856,
      "duration": 0.1533,
      "velocity": 127,
      "chip": "ym2612"
    },
    {
      "channel": 1,
      "note": 85,
      "start": 17.5188,
      "duration": 0.0783,
      "velocity": 99,
      "chip": "ym2612"
    },
    {
      "channel": 2,
      "note": 82,
      "start": 17.5194,
      "duration": 0.0779,
      "velocity": 99,
      "chip": "ym2612"
    },
    {
      "channel": 0,
      "note": 61,
      "start": 17.6183,
      "duration": 0.0155,
      "velocity": 91,
      "chip": "ym2612"
    },
    {
      "channel": 1,
      "note": 82,
      "start": 17.6189,
      "duration": 0.0337,
      "velocity": 99,
      "chip": "ym2612"
    },
    {
      "channel": 2,
      "note": 78,
      "start": 17.6194,
      "duration": 0.0334,
      "velocity": 99,
      "chip": "ym2612"
    },
    {
      "channel": 4,
      "note": 93,
      "start": 17.6392,
      "duration": 0.1163,
      "velocity": 127,
      "chip": "ym2612"
    },
    {
      "channel": 0,
      "note": 61,
      "start": 17.6553,
      "duration": 0.0774,
      "velocity": 91,
      "chip": "ym2612"
    },
    {
      "channel": 1,
      "note": 82,
      "start": 17.6558,
      "duration": 0.1143,
      "velocity": 99,
      "chip": "ym2612"
    },
    {
      "channel": 2,
      "note": 78,
      "start": 17.6563,
      "duration": 0.114,
      "velocity": 99,
      "chip": "ym2612"
    },
    {
      "channel": 0,
      "note": 54,
      "start": 17.7543,
      "duration": 0.0155,
      "velocity": 91,
      "chip": "ym2612"
    },
    {
      "channel": 4,
      "note": 93,
      "start": 17.7559,
      "duration": 0.1536,
      "velocity": 127,
      "chip": "ym2612"
    },
    {
      "channel": 1,
      "note": 81,
      "start": 17.773,
      "duration": 0.0148,
      "velocity": 99,
      "chip": "ym2612"
    },
    {
      "channel": 2,
      "note": 77,
      "start": 17.7736,
      "duration": 0.0144,
      "velocity": 99,
      "chip": "ym2612"
    },
    {
      "channel": 0,
      "note": 54,
      "start": 17.7918,
      "duration": 0.0146,
      "velocity": 91,
      "chip": "ym2612"
    },
    {
      "channel": 1,
      "note": 82,
      "start": 17.7923,
      "duration": 0.0144,
      "velocity": 99,
      "chip": "ym2612"
    },
    {
      "channel": 2,
      "note": 78,
      "start": 17.7929,
      "duration": 0.0141,
      "velocity": 99,
      "chip": "ym2612"
    },
    {
      "channel": 1,
      "note": 77,
      "start": 17.8097,
      "duration": 0.1141,
      "velocity": 99,
      "chip": "ym2612"
    },
    {
      "channel": 2,
      "note": 73,
      "start": 17.8102,
      "duration": 0.1137,
      "velocity": 99,
      "chip": "ym2612"
    },
    {
      "channel": 0,
      "note": 66,
      "start": 17.9082,
      "duration": 0.0502,
      "velocity": 91,
      "chip": "ym2612"
    },
    {
      "channel": 4,
      "note": 93,
      "start": 17.9097,
      "duration": 0.153,
      "velocity": 127,
      "chip": "ym2612"
    },
    {
      "channel": 1,
      "note": 87,
      "start": 17.9266,
      "duration": 0.0322,
      "velocity": 99,
      "chip": "ym2612"
    },
    {
      "channel": 2,
      "note": 84,
      "start": 17.9271,
      "duration": 0.0319,
      "velocity": 99,
      "chip": "ym2612"
    },
    {
      "channel": 0,
      "note": 54,
      "start": 17.9614,
      "duration": 0.078,
      "velocity": 91,
      "chip": "ym2612"
    },
    {
      "channel": 1,
      "note": 89,
      "start": 17.9619,
      "duration": 0.0777,
      "velocity": 99,
      "chip": "ym2612"
    },
    {
      "channel": 2,
      "note": 85,
      "start": 17.9624,
      "duration": 0.0775,
      "velocity": 99,
      "chip": "ym2612"
    },
    {
      "channel": 0,
      "note": 61,
      "start": 18.061,
      "duration": 0.0946,
      "velocity": 91,
      "chip": "ym2612"
    },
    {
      "channel": 1,
      "note": 82,
      "start": 18.0615,
      "duration": 0.0944,
      "velocity": 99,
      "chip": "ym2612"
    },
    {
      "channel": 2,
      "note": 78,
      "start": 18.0621,
      "duration": 0.094,
      "velocity": 99,
      "chip": "ym2612"
    },
    {
      "channel": 4,
      "note": 93,
      "start": 18.0631,
      "duration": 0.1159,
      "velocity": 127,
      "chip": "ym2612"
    },
    {
      "channel": 0,
      "note": 61,
      "start": 18.1772,
      "duration": 0.0149,
      "velocity": 91,
      "chip": "ym2612"
    },
    {
      "channel": 1,
      "note": 82,
      "start": 18.1777,
      "duration": 0.0313,
      "velocity": 99,
      "chip": "ym2612"
    },
    {
      "channel": 2,
      "note": 78,
      "start": 18.1782,
      "duration": 0.0311,
      "velocity": 99,
      "chip": "ym2612"
    },
    {
      "channel": 4,
      "note": 93,
      "start": 18.1793,
      "duration": 0.1527,
      "velocity": 127,
      "chip": "ym2612"
    },
    {
      "channel": 0,
      "note": 54,
      "start": 18.1951,
      "duration": 0.0947,
      "velocity": 91,
      "chip": "ym2612"
    },
    {
      "channel": 1,
      "note": 85,
      "start": 18.2119,
      "duration": 0.0781,
      "velocity": 99,
      "chip": "ym2612"
    },
    {
      "channel": 2,
      "note": 82,
      "start": 18.2125,
      "duration": 0.0778,
      "velocity": 99,
      "chip": "ym2612"
    },
    {
      "channel": 0,
      "note": 53,
      "start": 18.3114,
      "duration": 0.0154,
      "velocity": 91,
      "chip": "ym2612"
    },
    {
      "channel": 1,
      "note": 82,
      "start": 18.3119,
      "duration": 0.0336,
      "velocity": 99,
      "chip": "ym2612"
    },
    {
      "channel": 2,
      "note": 78,
      "start": 18.3125,
      "duration": 0.0333,
      "velocity": 99,
      "chip": "ym2612"
    },
    {
      "channel": 0,
      "note": 54,
      "start": 18.3308,
      "duration": 0.0144,
      "velocity": 91,
      "chip": "ym2612"
    },
    {
      "channel": 4,
      "note": 93,
      "start": 18.3324,
      "duration": 0.1159,
      "velocity": 127,
      "chip": "ym2612"
    },
    {
      "channel": 1,
      "note": 82,
      "start": 18.3486,
      "duration": 0.1143,
      "velocity": 99,
      "chip": "ym2612"
    },
    {
      "channel": 2,
      "note": 78,
      "start": 18.3491,
      "duration": 0.114,
      "velocity": 99,
      "chip": "ym2612"
    },
    {
      "channel": 0,
      "note": 66,
      "start": 18.4471,
      "duration": 0.0155,
      "velocity": 91,
      "chip": "ym2612"
    },
    {
      "channel": 4,
      "note": 93,
      "start": 18.4485,
      "duration": 0.1544,
      "velocity": 127,
      "chip": "ym2612"
    },
    {
      "channel": 1,
      "note": 81,
      "start": 18.4675,
      "duration": 0.0154,
      "velocity": 99,
      "chip": "ym2612"
    },
    {
      "channel": 2,
      "note": 77,
      "start": 18.4681,
      "duration": 0.0151,
      "velocity": 99,
      "chip": "ym2612"
    },
    {
      "channel": 0,
      "note": 54,
      "start": 18.4855,
      "duration": 0.1315,
      "velocity": 91,
      "chip": "ym2612"
    },
    {
      "channel": 1,
      "note": 82,
      "start": 18.4861,
      "duration": 0.0941,
      "velocity": 99,
      "chip": "ym2612"
    },
    {
      "channel": 2,
      "note": 78,
      "start": 18.4866,
      "duration": 0.0938,
      "velocity": 99,
      "chip": "ym2612"
    },
    {
      "channel": 1,
      "note": 85,
      "start": 18.6017,
      "duration": 0.0156,
      "velocity": 99,
      "chip": "ym2612"
    },
    {
      "channel": 2,
      "note": 82,
      "start": 18.6023,
      "duration": 0.0153,
      "velocity": 99,
      "chip": "ym2612"
    },
    {
      "channel": 4,
      "note": 93,
      "start": 18.6033,
      "duration": 0.0373,
      "velocity": 127,
      "chip": "ym2612"
    },
    {
      "channel": 0,
      "note": 61,
      "start": 18.6199,
      "duration": 0.0341,
      "velocity": 91,
      "chip": "ym2612"
    },
    {
      "channel": 1,
      "note": 80,
      "start": 18.6205,
      "duration": 0.1138,
      "velocity": 99,
      "chip": "ym2612"
    },
    {
      "channel": 2,
      "note": 77,
      "start": 18.621,
      "duration": 0.1135,
      "velocity": 99,
      "chip": "ym2612"
    },
    {
      "channel": 4,
      "note": 93,
      "start": 18.641,
      "duration": 0.2327,
      "velocity": 127,
      "chip": "ym2612"
    },
    {
      "channel": 0,
      "note": 63,
      "start": 18.6568,
      "duration": 0.0772,
      "velocity": 91,
      "chip": "ym2612"
    },
    {
      "channel": 0,
      "note": 61,
      "start": 18.7556,
      "duration": 0.0154,
      "velocity": 91,
      "chip": "ym2612"
    },
    {
      "channel": 1,
      "note": 80,
      "start": 18.7561,
      "duration": 0.0151,
      "velocity": 99,
      "chip": "ym2612"
    },
    {
      "channel": 2,
      "note": 77,
      "start": 18.7566,
      "duration": 0.015,
      "velocity": 99,
      "chip": "ym2612"
    },
    {
      "channel": 0,
      "note": 56,
      "start": 18.7739,
      "duration": 0.0764,
      "velocity": 91,
      "chip": "ym2612"
    },
    {
      "channel": 1,
      "note": 82,
      "start": 18.7744,
      "duration": 0.0761,
      "velocity": 99,
      "chip": "ym2612"
    },
    {
      "channel": 2,
      "note": 78,
      "start": 18.775,
      "duration": 0.0758,
      "velocity": 99,
      "chip": "ym2612"
    },
    {
      "channel": 0,
      "note": 61,
      "start": 18.8719,
      "duration": 0.1143,
      "velocity": 91,
      "chip": "ym2612"
    },
    {
      "channel": 1,
      "note": 80,
      "start": 18.8724,
      "duration": 0.0093,
      "velocity": 99,
      "chip": "ym2612"
    },
    {
      "channel": 2,
      "note": 77,
      "start": 18.873,
      "duration": 0.009,
      "velocity": 99,
      "chip": "ym2612"
    },
    {
      "channel": 4,
      "note": 93,
      "start": 18.874,
      "duration": 0.1542,
      "velocity": 127,
      "chip": "ym2612"
    },
    {
      "channel": 1,
      "note": 82,
      "start": 18.8846,
      "duration": 0.01,
      "velocity": 99,
      "chip": "ym2612"
    },
    {
      "channel": 2,
      "note": 78,
      "start": 18.8851,
      "duration": 0.0098,
      "velocity": 99,
      "chip": "ym2612"
    },
    {
      "channel": 1,
      "note": 80,
      "start": 18.8976,
      "duration": 0.0084,
      "velocity": 99,
      "chip": "ym2612"
    },
    {
      "channel": 2,
      "note": 77,
      "start": 18.8982,
      "duration": 0.0081,
      "velocity": 99,
      "chip": "ym2612"
    },
    {
      "channel": 1,
      "note": 79,
      "start": 18.9089,
      "duration": 0.0776,
      "velocity": 99,
      "chip": "ym2612"
    },
    {
      "channel": 2,
      "note": 76,
      "start": 18.9095,
      "duration": 0.0773,
      "velocity": 99,
      "chip": "ym2612"
    },
    {
      "channel": 0,
      "note": 61,
      "start": 19.0078,
      "duration": 0.0154,
      "velocity": 91,
      "chip": "ym2612"
    },
    {
      "channel": 1,
      "note": 80,
      "start": 19.0083,
      "duration": 0.0334,
      "velocity": 99,
      "chip": "ym2612"
    },
    {
      "channel": 2,
      "note": 77,
      "start": 19.0088,
      "duration": 0.0332,
      "velocity": 99,
      "chip": "ym2612"
    },
    {
      "channel": 4,
      "note": 93,
      "start": 19.0285,
      "duration": 0.1167,
      "velocity": 127,
      "chip": "ym2612"
    },
    {
      "channel": 0,
      "note": 61,
      "start": 19.0444,
      "duration": 0.0774,
      "velocity": 91,
      "chip": "ym2612"
    },
    {
      "channel": 1,
      "note": 82,
      "start": 19.045,
      "duration": 0.0772,
      "velocity": 99,
      "chip": "ym2612"
    },
    {
      "channel": 2,
      "note": 78,
      "start": 19.0455,
      "duration": 0.0769,
      "velocity": 99,
      "chip": "ym2612"
    },
    {
      "channel": 0,
      "note": 56,
      "start": 19.1435,
      "duration": 0.0161,
      "velocity": 91,
      "chip": "ym2612"
    },
    {
      "channel": 1,
      "note": 84,
      "start": 19.144,
      "duration": 0.0329,
      "velocity": 99,
      "chip": "ym2612"
    },
    {
      "channel": 2,
      "note": 80,
      "start": 19.1446,
      "duration": 0.0326,
      "velocity": 99,
      "chip": "ym2612"
    },
    {
      "channel": 4,
      "note": 93,
      "start": 19.1456,
      "duration": 0.1529,
      "velocity": 127,
      "chip": "ym2612"
    },
    {
      "channel": 0,
      "note": 56,
      "start": 19.1811,
      "duration": 0.0144,
      "velocity": 91,
      "chip": "ym2612"
    },
    {
      "channel": 1,
      "note": 85,
      "start": 19.1816,
      "duration": 0.0141,
      "velocity": 99,
      "chip": "ym2612"
    },
    {
      "channel": 2,
      "note": 82,
      "start": 19.1822,
      "duration": 0.0138,
      "velocity": 99,
      "chip": "ym2612"
    },
    {
      "channel": 1,
      "note": 87,
      "start": 19.1988,
      "duration": 0.1141,
      "velocity": 99,
      "chip": "ym2612"
    },
    {
      "channel": 2,
      "note": 84,
      "start": 19.1993,
      "duration": 0.1138,
      "velocity": 99,
      "chip": "ym2612"
    },
    {
      "channel": 0,
      "note": 61,
      "start": 19.2973,
      "duration": 0.1314,
      "velocity": 91,
      "chip": "ym2612"
    },
    {
      "channel": 4,
      "note": 93,
      "start": 19.2988,
      "duration": 0.1533,
      "velocity": 127,
      "chip": "ym2612"
    },
    {
      "channel": 1,
      "note": 89,
      "start": 19.3157,
      "duration": 0.0321,
      "velocity": 99,
      "chip": "ym2612"
    },
    {
      "channel": 2,
      "note": 85,
      "start": 19.3163,
      "duration": 0.0318,
      "velocity": 99,
      "chip": "ym2612"
    },
    {
      "channel": 1,
      "note": 80,
      "start": 19.3508,
      "duration": 0.0782,
      "velocity": 99,
      "chip": "ym2612"
    },
    {
      "channel": 2,
      "note": 77,
      "start": 19.3515,
      "duration": 0.0778,
      "velocity": 99,
      "chip": "ym2612"
    },
    {
      "channel": 0,
      "note": 61,
      "start": 19.4503,
      "duration": 0.1315,
      "velocity": 91,
      "chip": "ym2612"
    },
    {
      "channel": 1,
      "note": 82,
      "start": 19.4508,
      "duration": 0.0944,
      "velocity": 99,
      "chip": "ym2612"
    },
    {
      "channel": 2,
      "note": 78,
      "start": 19.4514,
      "duration": 0.0941,
      "velocity": 99,
      "chip": "ym2612"
    },
    {
      "channel": 4,
      "note": 93,
      "start": 19.4524,
      "duration": 0.1156,
      "velocity": 127,
      "chip": "ym2612"
    },
    {
      "channel": 1,
      "note": 80,
      "start": 19.5667,
      "duration": 0.0093,
      "velocity": 99,
      "chip": "ym2612"
    },
    {
      "channel": 2,
      "note": 77,
      "start": 19.5672,
      "duration": 0.0091,
      "velocity": 99,
      "chip": "ym2612"
    },
    {
      "channel": 4,
      "note": 93,
      "start": 19.5683,
      "duration": 0.1531,
      "velocity": 127,
      "chip": "ym2612"
    },
    {
      "channel": 1,
      "note": 82,
      "start": 19.579,
      "duration": 0.0092,
      "velocity": 99,
      "chip": "ym2612"
    },
    {
      "channel": 2,
      "note": 78,
      "start": 19.5796,
      "duration": 0.0089,
      "velocity": 99,
      "chip": "ym2612"
    },
    {
      "channel": 0,
      "note": 61,
      "start": 19.5847,
      "duration": 0.0146,
      "velocity": 91,
      "chip": "ym2612"
    },
    {
      "channel": 1,
      "note": 80,
      "start": 19.5911,
      "duration": 0.0085,
      "velocity": 99,
      "chip": "ym2612"
    },
    {
      "channel": 2,
      "note": 77,
      "start": 19.5917,
      "duration": 0.0081,
      "velocity": 99,
      "chip": "ym2612"
    },
    {
      "channel": 1,
      "note": 79,
      "start": 19.6026,
      "duration": 0.077,
      "velocity": 99,
      "chip": "ym2612"
    },
    {
      "channel": 2,
      "note": 76,
      "start": 19.6031,
      "duration": 0.0767,
      "velocity": 99,
      "chip": "ym2612"
    },
    {
      "channel": 0,
      "note": 56,
      "start": 19.7009,
      "duration": 0.0154,
      "velocity": 91,
      "chip": "ym2612"
    },
    {
      "channel": 1,
      "note": 80,
      "start": 19.7014,
      "duration": 0.0337,
      "velocity": 99,
      "chip": "ym2612"
    },
    {
      "channel": 2,
      "note": 77,
      "start": 19.702,
      "duration": 0.0333,
      "velocity": 99,
      "chip": "ym2612"
    },
    {
      "channel": 4,
      "note": 93,
      "start": 19.7217,
      "duration": 0.1165,
      "velocity": 127,
      "chip": "ym2612"
    },
    {
      "channel": 0,
      "note": 61,
      "start": 19.7377,
      "duration": 0.1149,
      "velocity": 91,
      "chip": "ym2612"
    },
    {
      "channel": 1,
      "note": 82,
      "start": 19.7382,
      "duration": 0.0772,
      "velocity": 99,
      "chip": "ym2612"
    },
    {
      "channel": 2,
      "note": 78,
      "start": 19.7388,
      "duration": 0.0768,
      "velocity": 99,
      "chip": "ym2612"
    },
    {
      "channel": 1,
      "note": 84,
      "start": 19.837,
      "duration": 0.0347,
      "velocity": 99,
      "chip": "ym2612"
    },
    {
      "channel": 2,
      "note": 80,
      "start": 19.8375,
      "duration": 0.0345,
      "velocity": 99,
      "chip": "ym2612"
    },
    {
      "channel": 4,
      "note": 93,
      "start": 19.8385,
      "duration": 0.1539,
      "velocity": 127,
      "chip": "ym2612"
    },
    {
      "channel": 0,
      "note": 68,
      "start": 19.8565,
      "duration": 0.0149,
      "velocity": 91,
      "chip": "ym2612"
    },
    {
      "channel": 0,
      "note": 61,
      "start": 19.8748,
      "duration": 0.0146,
      "velocity": 91,
      "chip": "ym2612"
    },
    {
      "channel": 1,
      "note": 85,
      "start": 19.8753,
      "duration": 0.0144,
      "velocity": 99,
      "chip": "ym2612"
    },
    {
      "channel": 2,
      "note": 82,
      "start": 19.8759,
      "duration": 0.0141,
      "velocity": 99,
      "chip": "ym2612"
    },
    {
      "channel": 1,
      "note": 87,
      "start": 19.8927,
      "duration": 0.114,
      "velocity": 99,
      "chip": "ym2612"
    },
    {
      "channel": 2,
      "note": 84,
      "start": 19.8932,
      "duration": 0.1137,
      "velocity": 99,
      "chip": "ym2612"
    },
    {
      "channel": 0,
      "note": 56,
      "start": 19.9912,
      "duration": 0.0329,
      "velocity": 91,
      "chip": "ym2612"
    },
    {
      "channel": 4,
      "note": 93,
      "start": 19.9927,
      "duration": 0.0362,
      "velocity": 127,
      "chip": "ym2612"
    },
    {
      "channel": 1,
      "note": 89,
      "start": 20.0095,
      "duration": 0.0332,
      "velocity": 99,
      "chip": "ym2612"
    },
    {
      "channel": 2,
      "note": 85,
      "start": 20.0101,
      "duration": 0.0328,
      "velocity": 99,
      "chip": "ym2612"
    },
    {
      "channel": 0,
      "note": 54,
      "start": 20.0275,
      "duration": 0.2108,
      "velocity": 91,
      "chip": "ym2612"
    },
    {
      "channel": 4,
      "note": 93,
      "start": 20.0294,
      "duration": 0.2317,
      "velocity": 127,
      "chip": "ym2612"
    },
    {
      "channel": 1,
      "note": 82,
      "start": 20.0455,
      "duration": 0.1129,
      "velocity": 99,
      "chip": "ym2612"
    },
    {
      "channel": 2,
      "note": 78,
      "start": 20.0461,
      "duration": 0.1126,
      "velocity": 99,
      "chip": "ym2612"
    },
    {
      "channel": 1,
      "note": 82,
      "start": 20.1613,
      "duration": 0.1304,
      "velocity": 99,
      "chip": "ym2612"
    },
    {
      "channel": 2,
      "note": 78,
      "start": 20.1618,
      "duration": 0.1301,
      "velocity": 99,
      "chip": "ym2612"
    },
    {
      "channel": 0,
      "note": 54,
      "start": 20.2599,
      "duration": 0.1127,
      "velocity": 91,
      "chip": "ym2612"
    },
    {
      "channel": 4,
      "note": 93,
      "start": 20.2614,
      "duration": 0.1532,
      "velocity": 127,
      "chip": "ym2612"
    },
    {
      "channel": 1,
      "note": 85,
      "start": 20.2946,
      "duration": 0.0783,
      "velocity": 99,
      "chip": "ym2612"
    },
    {
      "channel": 2,
      "note": 82,
      "start": 20.2951,
      "duration": 0.0781,
      "velocity": 99,
      "chip": "ym2612"
    },
    {
      "channel": 0,
      "note": 61,
      "start": 20.3942,
      "duration": 0.0154,
      "velocity": 91,
      "chip": "ym2612"
    },
    {
      "channel": 1,
      "note": 82,
      "start": 20.3948,
      "duration": 0.0334,
      "velocity": 99,
      "chip": "ym2612"
    },
    {
      "channel": 2,
      "note": 78,
      "start": 20.3953,
      "duration": 0.0332,
      "velocity": 99,
      "chip": "ym2612"
    },
    {
      "channel": 4,
      "note": 93,
      "start": 20.415,
      "duration": 0.1163,
      "velocity": 127,
      "chip": "ym2612"
    },
    {
      "channel": 0,
      "note": 61,
      "start": 20.4309,
      "duration": 0.0776,
      "velocity": 91,
      "chip": "ym2612"
    },
    {
      "channel": 1,
      "note": 82,
      "start": 20.4315,
      "duration": 0.1144,
      "velocity": 99,
      "chip": "ym2612"
    },
    {
      "channel": 2,
      "note": 78,
      "start": 20.432,
      "duration": 0.1141,
      "velocity": 99,
      "chip": "ym2612"
    },
    {
      "channel": 0,
      "note": 54,
      "start": 20.5301,
      "duration": 0.0154,
      "velocity": 91,
      "chip": "ym2612"
    },
    {
      "channel": 4,
      "note": 93,
      "start": 20.5316,
      "duration": 0.1536,
      "velocity": 127,
      "chip": "ym2612"
    },
    {
      "channel": 1,
      "note": 81,
      "start": 20.5491,
      "duration": 0.0148,
      "velocity": 99,
      "chip": "ym2612"
    },
    {
      "channel": 2,
      "note": 77,
      "start": 20.5497,
      "duration": 0.0144,
      "velocity": 99,
      "chip": "ym2612"
    },
    {
      "channel": 0,
      "note": 54,
      "start": 20.5679,
      "duration": 0.0144,
      "velocity": 91,
      "chip": "ym2612"
    },
    {
      "channel": 1,
      "note": 82,
      "start": 20.5684,
      "duration": 0.0142,
      "velocity": 99,
      "chip": "ym2612"
    },
    {
      "channel": 2,
      "note": 78,
      "start": 20.569,
      "duration": 0.0139,
      "velocity": 99,
      "chip": "ym2612"
    },
    {
      "channel": 1,
      "note": 77,
      "start": 20.5856,
      "duration": 0.1139,
      "velocity": 99,
      "chip": "ym2612"
    },
    {
      "channel": 2,
      "note": 73,
      "start": 20.5861,
      "duration": 0.1136,
      "velocity": 99,
      "chip": "ym2612"
    },
    {
      "channel": 0,
      "note": 66,
      "start": 20.684,
      "duration": 0.0507,
      "velocity": 91,
      "chip": "ym2612"
    },
    {
      "channel": 4,
      "note": 93,
      "start": 20.6855,
      "duration": 0.1531,
      "velocity": 127,
      "chip": "ym2612"
    },
    {
      "channel": 1,
      "note": 87,
      "start": 20.7024,
      "duration": 0.0326,
      "velocity": 99,
      "chip": "ym2612"
    },
    {
      "channel": 2,
      "note": 84,
      "start": 20.7029,
      "duration": 0.0324,
      "velocity": 99,
      "chip": "ym2612"
    },
    {
      "channel": 0,
      "note": 54,
      "start": 20.7376,
      "duration": 0.0777,
      "velocity": 91,
      "chip": "ym2612"
    },
    {
      "channel": 1,
      "note": 89,
      "start": 20.7382,
      "duration": 0.0774,
      "velocity": 99,
      "chip": "ym2612"
    },
    {
      "channel": 2,
      "note": 85,
      "start": 20.7387,
      "duration": 0.0772,
      "velocity": 99,
      "chip": "ym2612"
    },
    {
      "channel": 0,
      "note": 61,
      "start": 20.8369,
      "duration": 0.0947,
      "velocity": 91,
      "chip": "ym2612"
    },
    {
      "channel": 1,
      "note": 82,
      "start": 20.8374,
      "duration": 0.0945,
      "velocity": 99,
      "chip": "ym2612"
    },
    {
      "channel": 2,
      "note": 78,
      "start": 20.838,
      "duration": 0.0941,
      "velocity": 99,
      "chip": "ym2612"
    },
    {
      "channel": 4,
      "note": 93,
      "start": 20.839,
      "duration": 0.116,
      "velocity": 127,
      "chip": "ym2612"
    },
    {
      "channel": 0,
      "note": 61,
      "start": 20.9532,
      "duration": 0.0148,
      "velocity": 91,
      "chip": "ym2612"
    },
    {
      "channel": 1,
      "note": 82,
      "start": 20.9537,
      "duration": 0.0312,
      "velocity": 99,
      "chip": "ym2612"
    },
    {
      "channel": 2,
      "note": 78,
      "start": 20.9543,
      "duration": 0.031,
      "velocity": 99,
      "chip": "ym2612"
    },
    {
      "channel": 4,
      "note": 93,
      "start": 20.9553,
      "duration": 0.1527,
      "velocity": 127,
      "chip": "ym2612"
    },
    {
      "channel": 0,
      "note": 54,
      "start": 20.9711,
      "duration": 0.0947,
      "velocity": 91,
      "chip": "ym2612"
    },
    {
      "channel": 1,
      "note": 85,
      "start": 20.9878,
      "duration": 0.0782,
      "velocity": 99,
      "chip": "ym2612"
    },
    {
      "channel": 2,
      "note": 82,
      "start": 20.9884,
      "duration": 0.078,
      "velocity": 99,
      "chip": "ym2612"
    },
    {
      "channel": 0,
      "note": 53,
      "start": 21.0873,
      "duration": 0.0154,
      "velocity": 91,
      "chip": "ym2612"
    },
    {
      "channel": 1,
      "note": 82,
      "start": 21.0878,
      "duration": 0.0337,
      "velocity": 99,
      "chip": "ym2612"
    },
    {
      "channel": 2,
      "note": 78,
      "start": 21.0884,
      "duration": 0.0334,
      "velocity": 99,
      "chip": "ym2612"
    },
    {
      "channel": 0,
      "note": 54,
      "start": 21.1068,
      "duration": 0.0144,
      "velocity": 91,
      "chip": "ym2612"
    },
    {
      "channel": 4,
      "note": 93,
      "start": 21.1083,
      "duration": 0.1158,
      "velocity": 127,
      "chip": "ym2612"
    },
    {
      "channel": 1,
      "note": 82,
      "start": 21.1245,
      "duration": 0.1144,
      "velocity": 99,
      "chip": "ym2612"
    },
    {
      "channel": 2,
      "note": 78,
      "start": 21.1251,
      "duration": 0.1141,
      "velocity": 99,
      "chip": "ym2612"
    },
    {
      "channel": 0,
      "note": 66,
      "start": 21.223,
      "duration": 0.0156,
      "velocity": 91,
      "chip": "ym2612"
    },
    {
      "channel": 4,
      "note": 93,
      "start": 21.2245,
      "duration": 0.1549,
      "velocity": 127,
      "chip": "ym2612"
    },
    {
      "channel": 1,
      "note": 81,
      "start": 21.2432,
      "duration": 0.0153,
      "velocity": 99,
      "chip": "ym2612"
    },
    {
      "channel": 2,
      "note": 77,
      "start": 21.2437,
      "duration": 0.0151,
      "velocity": 99,
      "chip": "ym2612"
    },
    {
      "channel": 0,
      "note": 54,
      "start": 21.2613,
      "duration": 0.0948,
      "velocity": 91,
      "chip": "ym2612"
    },
    {
      "channel": 1,
      "note": 82,
      "start": 21.2618,
      "duration": 0.0945,
      "velocity": 99,
      "chip": "ym2612"
    },
    {
      "channel": 2,
      "note": 78,
      "start": 21.2624,
      "duration": 0.0942,
      "velocity": 99,
      "chip": "ym2612"
    },
    {
      "channel": 0,
      "note": 54,
      "start": 21.3776,
      "duration": 0.0158,
      "velocity": 91,
      "chip": "ym2612"
    },
    {
      "channel": 1,
      "note": 85,
      "start": 21.3781,
      "duration": 0.0156,
      "velocity": 99,
      "chip": "ym2612"
    },
    {
      "channel": 2,
      "note": 82,
      "start": 21.3787,
      "duration": 0.0153,
      "velocity": 99,
      "chip": "ym2612"
    },
    {
      "channel": 4,
      "note": 93,
      "start": 21.3797,
      "duration": 0.037,
      "velocity": 127,
      "chip": "ym2612"
    },
    {
      "channel": 0,
      "note": 61,
      "start": 21.3963,
      "duration": 0.0151,
      "velocity": 91,
      "chip": "ym2612"
    },
    {
      "channel": 1,
      "note": 80,
      "start": 21.3968,
      "duration": 40.4493,
      "velocity": 99,
      "chip": "ym2612"
    },
    {
      "channel": 2,
      "note": 77,
      "start": 21.3974,
      "duration": 40.4488,
      "velocity": 99,
      "chip": "ym2612"
    },
    {
      "channel": 4,
      "note": 93,
      "start": 21.4171,
      "duration": 40.429,
      "velocity": 127,
      "chip": "ym2612"
    }
  ]
}