{
  "track_name": "09 - Stage 4A",
  "duration_sec": 38.448,
  "sample_rate": 44100,
  "note_count": 1312,
  "unique_pitches": 96,
  "pitch_range": 95,
  "avg_note_duration": 0.1757,
  "reconstruction_stats": {
    "notes_reconstructed": 1312,
    "keyon_events": 1312,
    "keyoff_events": 724,
    "orphan_keyons": 6,
    "unique_pitches": 96,
    "pitch_range": 95,
    "avg_duration_sec": 0.1757
  },
  "metadata": {
    "source": "G\\G-LOC\\09 - Stage 4A.vgz"
  },
  "notes": [
    {
      "channel": 0,
      "note": 79,
      "start": 0.0,
      "duration": 1.7454,
      "velocity": 119,
      "chip": "ym2612"
    },
    {
      "channel": 1,
      "note": 79,
      "start": 0.0,
      "duration": 1.8596,
      "velocity": 119,
      "chip": "ym2612"
    },
    {
      "channel": 2,
      "note": 79,
      "start": 0.0,
      "duration": 1.7475,
      "velocity": 112,
      "chip": "ym2612"
    },
    {
      "channel": 3,
      "note": 79,
      "start": 0.0,
      "duration": 0.0511,
      "velocity": 117,
      "chip": "ym2612"
    },
    {
      "channel": 4,
      "note": 79,
      "start": 0.0,
      "duration": 15.3934,
      "velocity": 117,
      "chip": "ym2612"
    },
    {
      "channel": 5,
      "note": 79,
      "start": 0.0,
      "duration": 38.4482,
      "velocity": 1,
      "chip": "ym2612"
    },
    {
      "channel": 3,
      "note": 79,
      "start": 0.0513,
      "duration": 0.3296,
      "velocity": 117,
      "chip": "ym2612"
    },
    {
      "channel": 3,
      "note": 84,
      "start": 0.3811,
      "duration": 0.308,
      "velocity": 117,
      "chip": "ym2612"
    },
    {
      "channel": 3,
      "note": 77,
      "start": 0.6892,
      "duration": 0.3241,
      "velocity": 117,
      "chip": "ym2612"
    },
    {
      "channel": 3,
      "note": 79,
      "start": 1.0135,
      "duration": 0.3308,
      "velocity": 117,
      "chip": "ym2612"
    },
    {
      "channel": 3,
      "note": 84,
      "start": 1.3445,
      "duration": 0.1997,
      "velocity": 117,
      "chip": "ym2612"
    },
    {
      "channel": 3,
      "note": 77,
      "start": 1.5444,
      "duration": 0.2038,
      "velocity": 117,
      "chip": "ym2612"
    },
    {
      "channel": 0,
      "note": 45,
      "start": 1.7455,
      "duration": 0.2223,
      "velocity": 119,
      "chip": "ym2612"
    },
    {
      "channel": 2,
      "note": 57,
      "start": 1.7477,
      "duration": 0.2239,
      "velocity": 109,
      "chip": "ym2612"
    },
    {
      "channel": 3,
      "note": 79,
      "start": 1.7483,
      "duration": 0.3217,
      "velocity": 117,
      "chip": "ym2612"
    },
    {
      "channel": 1,
      "note": 45,
      "start": 1.8598,
      "duration": 0.2075,
      "velocity": 119,
      "chip": "ym2612"
    },
    {
      "channel": 0,
      "note": 48,
      "start": 1.968,
      "duration": 0.0988,
      "velocity": 119,
      "chip": "ym2612"
    },
    {
      "channel": 2,
      "note": 57,
      "start": 1.9718,
      "duration": 0.0976,
      "velocity": 112,
      "chip": "ym2612"
    },
    {
      "channel": 0,
      "note": 50,
      "start": 2.0669,
      "duration": 0.1082,
      "velocity": 119,
      "chip": "ym2612"
    },
    {
      "channel": 1,
      "note": 48,
      "start": 2.0674,
      "duration": 0.1082,
      "velocity": 119,
      "chip": "ym2612"
    },
    {
      "channel": 2,
      "note": 55,
      "start": 2.0696,
      "duration": 0.2078,
      "velocity": 109,
      "chip": "ym2612"
    },
    {
      "channel": 3,
      "note": 84,
      "start": 2.0702,
      "duration": 0.3236,
      "velocity": 117,
      "chip": "ym2612"
    },
    {
      "channel": 0,
      "note": 45,
      "start": 2.1752,
      "duration": 0.0994,
      "velocity": 119,
      "chip": "ym2612"
    },
    {
      "channel": 1,
      "note": 50,
      "start": 2.1758,
      "duration": 0.0995,
      "velocity": 119,
      "chip": "ym2612"
    },
    {
      "channel": 0,
      "note": 48,
      "start": 2.2748,
      "duration": 0.1156,
      "velocity": 119,
      "chip": "ym2612"
    },
    {
      "channel": 1,
      "note": 45,
      "start": 2.2754,
      "duration": 0.1156,
      "velocity": 119,
      "chip": "ym2612"
    },
    {
      "channel": 2,
      "note": 55,
      "start": 2.2776,
      "duration": 0.1156,
      "velocity": 112,
      "chip": "ym2612"
    },
    {
      "channel": 0,
      "note": 50,
      "start": 2.3906,
      "duration": 0.1095,
      "velocity": 119,
      "chip": "ym2612"
    },
    {
      "channel": 1,
      "note": 48,
      "start": 2.3912,
      "duration": 0.1095,
      "velocity": 119,
      "chip": "ym2612"
    },
    {
      "channel": 2,
      "note": 57,
      "start": 2.3934,
      "duration": 0.2132,
      "velocity": 109,
      "chip": "ym2612"
    },
    {
      "channel": 3,
      "note": 77,
      "start": 2.3939,
      "duration": 0.3113,
      "velocity": 117,
      "chip": "ym2612"
    },
    {
      "channel": 0,
      "note": 45,
      "start": 2.5003,
      "duration": 0.2042,
      "velocity": 119,
      "chip": "ym2612"
    },
    {
      "channel": 1,
      "note": 50,
      "start": 2.5009,
      "duration": 0.1035,
      "velocity": 119,
      "chip": "ym2612"
    },
    {
      "channel": 1,
      "note": 45,
      "start": 2.6046,
      "duration": 0.1984,
      "velocity": 119,
      "chip": "ym2612"
    },
    {
      "channel": 2,
      "note": 57,
      "start": 2.6067,
      "duration": 0.5221,
      "velocity": 112,
      "chip": "ym2612"
    },
    {
      "channel": 0,
      "note": 45,
      "start": 2.7047,
      "duration": 0.0978,
      "velocity": 119,
      "chip": "ym2612"
    },
    {
      "channel": 3,
      "note": 79,
      "start": 2.7054,
      "duration": 0.3213,
      "velocity": 117,
      "chip": "ym2612"
    },
    {
      "channel": 0,
      "note": 48,
      "start": 2.8026,
      "duration": 0.1134,
      "velocity": 119,
      "chip": "ym2612"
    },
    {
      "channel": 1,
      "note": 45,
      "start": 2.8032,
      "duration": 0.1133,
      "velocity": 119,
      "chip": "ym2612"
    },
    {
      "channel": 0,
      "note": 50,
      "start": 2.9161,
      "duration": 0.1078,
      "velocity": 119,
      "chip": "ym2612"
    },
    {
      "channel": 1,
      "note": 48,
      "start": 2.9167,
      "duration": 0.1077,
      "velocity": 119,
      "chip": "ym2612"
    },
    {
      "channel": 0,
      "note": 45,
      "start": 3.0241,
      "duration": 0.102,
      "velocity": 119,
      "chip": "ym2612"
    },
    {
      "channel": 1,
      "note": 50,
      "start": 3.0246,
      "duration": 0.1021,
      "velocity": 119,
      "chip": "ym2612"
    },
    {
      "channel": 3,
      "note": 84,
      "start": 3.0269,
      "duration": 0.2007,
      "velocity": 117,
      "chip": "ym2612"
    },
    {
      "channel": 0,
      "note": 48,
      "start": 3.1263,
      "duration": 0.0996,
      "velocity": 119,
      "chip": "ym2612"
    },
    {
      "channel": 1,
      "note": 45,
      "start": 3.1269,
      "duration": 0.0996,
      "velocity": 119,
      "chip": "ym2612"
    },
    {
      "channel": 2,
      "note": 52,
      "start": 3.129,
      "duration": 0.0981,
      "velocity": 112,
      "chip": "ym2612"
    },
    {
      "channel": 0,
      "note": 50,
      "start": 3.2261,
      "duration": 0.22,
      "velocity": 119,
      "chip": "ym2612"
    },
    {
      "channel": 1,
      "note": 48,
      "start": 3.2267,
      "duration": 0.1032,
      "velocity": 119,
      "chip": "ym2612"
    },
    {
      "channel": 2,
      "note": 55,
      "start": 3.2272,
      "duration": 0.1032,
      "velocity": 112,
      "chip": "ym2612"
    },
    {
      "channel": 3,
      "note": 77,
      "start": 3.2278,
      "duration": 0.2196,
      "velocity": 117,
      "chip": "ym2612"
    },
    {
      "channel": 1,
      "note": 50,
      "start": 3.33,
      "duration": 0.2159,
      "velocity": 119,
      "chip": "ym2612"
    },
    {
      "channel": 2,
      "note": 52,
      "start": 3.3305,
      "duration": 0.1163,
      "velocity": 112,
      "chip": "ym2612"
    },
    {
      "channel": 0,
      "note": 45,
      "start": 3.4463,
      "duration": 0.2063,
      "velocity": 119,
      "chip": "ym2612"
    },
    {
      "channel": 2,
      "note": 57,
      "start": 3.4469,
      "duration": 0.2079,
      "velocity": 109,
      "chip": "ym2612"
    },
    {
      "channel": 3,
      "note": 79,
      "start": 3.4475,
      "duration": 0.3081,
      "velocity": 117,
      "chip": "ym2612"
    },
    {
      "channel": 1,
      "note": 45,
      "start": 3.546,
      "duration": 0.2068,
      "velocity": 119,
      "chip": "ym2612"
    },
    {
      "channel": 0,
      "note": 48,
      "start": 3.6527,
      "duration": 0.0995,
      "velocity": 119,
      "chip": "ym2612"
    },
    {
      "channel": 2,
      "note": 57,
      "start": 3.655,
      "duration": 0.1,
      "velocity": 112,
      "chip": "ym2612"
    },
    {
      "channel": 0,
      "note": 50,
      "start": 3.7524,
      "duration": 0.1061,
      "velocity": 119,
      "chip": "ym2612"
    },
    {
      "channel": 1,
      "note": 48,
      "start": 3.753,
      "duration": 0.1061,
      "velocity": 119,
      "chip": "ym2612"
    },
    {
      "channel": 2,
      "note": 55,
      "start": 3.7551,
      "duration": 0.222,
      "velocity": 109,
      "chip": "ym2612"
    },
    {
      "channel": 3,
      "note": 84,
      "start": 3.7557,
      "duration": 0.3222,
      "velocity": 117,
      "chip": "ym2612"
    },
    {
      "channel": 0,
      "note": 45,
      "start": 3.8587,
      "duration": 0.1157,
      "velocity": 119,
      "chip": "ym2612"
    },
    {
      "channel": 1,
      "note": 50,
      "start": 3.8592,
      "duration": 0.1157,
      "velocity": 119,
      "chip": "ym2612"
    },
    {
      "channel": 0,
      "note": 48,
      "start": 3.9745,
      "duration": 0.0984,
      "velocity": 119,
      "chip": "ym2612"
    },
    {
      "channel": 1,
      "note": 45,
      "start": 3.9751,
      "duration": 0.0984,
      "velocity": 119,
      "chip": "ym2612"
    },
    {
      "channel": 2,
      "note": 55,
      "start": 3.9773,
      "duration": 0.1001,
      "velocity": 112,
      "chip": "ym2612"
    },
    {
      "channel": 0,
      "note": 50,
      "start": 4.0732,
      "duration": 0.1057,
      "velocity": 119,
      "chip": "ym2612"
    },
    {
      "channel": 1,
      "note": 48,
      "start": 4.0737,
      "duration": 0.1058,
      "velocity": 119,
      "chip": "ym2612"
    },
    {
      "channel": 2,
      "note": 57,
      "start": 4.0776,
      "duration": 0.2113,
      "velocity": 109,
      "chip": "ym2612"
    },
    {
      "channel": 3,
      "note": 77,
      "start": 4.0781,
      "duration": 0.3076,
      "velocity": 117,
      "chip": "ym2612"
    },
    {
      "channel": 0,
      "note": 45,
      "start": 4.1791,
      "duration": 0.206,
      "velocity": 119,
      "chip": "ym2612"
    },
    {
      "channel": 1,
      "note": 50,
      "start": 4.1796,
      "duration": 0.1071,
      "velocity": 119,
      "chip": "ym2612"
    },
    {
      "channel": 1,
      "note": 45,
      "start": 4.2869,
      "duration": 0.2146,
      "velocity": 119,
      "chip": "ym2612"
    },
    {
      "channel": 2,
      "note": 57,
      "start": 4.289,
      "duration": 0.525,
      "velocity": 112,
      "chip": "ym2612"
    },
    {
      "channel": 0,
      "note": 45,
      "start": 4.3852,
      "duration": 0.1157,
      "velocity": 119,
      "chip": "ym2612"
    },
    {
      "channel": 3,
      "note": 79,
      "start": 4.3859,
      "duration": 0.3227,
      "velocity": 117,
      "chip": "ym2612"
    },
    {
      "channel": 0,
      "note": 48,
      "start": 4.5011,
      "duration": 0.1018,
      "velocity": 119,
      "chip": "ym2612"
    },
    {
      "channel": 1,
      "note": 45,
      "start": 4.5017,
      "duration": 0.1017,
      "velocity": 119,
      "chip": "ym2612"
    },
    {
      "channel": 0,
      "note": 50,
      "start": 4.603,
      "duration": 0.1043,
      "velocity": 119,
      "chip": "ym2612"
    },
    {
      "channel": 1,
      "note": 48,
      "start": 4.6036,
      "duration": 0.1043,
      "velocity": 119,
      "chip": "ym2612"
    },
    {
      "channel": 0,
      "note": 45,
      "start": 4.7075,
      "duration": 0.1038,
      "velocity": 119,
      "chip": "ym2612"
    },
    {
      "channel": 1,
      "note": 50,
      "start": 4.7081,
      "duration": 0.1038,
      "velocity": 119,
      "chip": "ym2612"
    },
    {
      "channel": 3,
      "note": 84,
      "start": 4.7087,
      "duration": 0.2085,
      "velocity": 117,
      "chip": "ym2612"
    },
    {
      "channel": 0,
      "note": 48,
      "start": 4.8115,
      "duration": 0.104,
      "velocity": 119,
      "chip": "ym2612"
    },
    {
      "channel": 1,
      "note": 45,
      "start": 4.8121,
      "duration": 0.104,
      "velocity": 119,
      "chip": "ym2612"
    },
    {
      "channel": 2,
      "note": 52,
      "start": 4.8142,
      "duration": 0.1024,
      "velocity": 112,
      "chip": "ym2612"
    },
    {
      "channel": 0,
      "note": 50,
      "start": 4.9157,
      "duration": 0.2235,
      "velocity": 119,
      "chip": "ym2612"
    },
    {
      "channel": 1,
      "note": 48,
      "start": 4.9163,
      "duration": 0.123,
      "velocity": 119,
      "chip": "ym2612"
    },
    {
      "channel": 2,
      "note": 55,
      "start": 4.9168,
      "duration": 0.1231,
      "velocity": 112,
      "chip": "ym2612"
    },
    {
      "channel": 3,
      "note": 77,
      "start": 4.9173,
      "duration": 0.2249,
      "velocity": 117,
      "chip": "ym2612"
    },
    {
      "channel": 1,
      "note": 50,
      "start": 5.0395,
      "duration": 0.2019,
      "velocity": 119,
      "chip": "ym2612"
    },
    {
      "channel": 2,
      "note": 52,
      "start": 5.04,
      "duration": 0.0999,
      "velocity": 112,
      "chip": "ym2612"
    },
    {
      "channel": 0,
      "note": 46,
      "start": 5.1393,
      "duration": 0.2103,
      "velocity": 119,
      "chip": "ym2612"
    },
    {
      "channel": 2,
      "note": 53,
      "start": 5.14,
      "duration": 0.2119,
      "velocity": 109,
      "chip": "ym2612"
    },
    {
      "channel": 3,
      "note": 79,
      "start": 5.1424,
      "duration": 0.3107,
      "velocity": 117,
      "chip": "ym2612"
    },
    {
      "channel": 1,
      "note": 46,
      "start": 5.2416,
      "duration": 0.2088,
      "velocity": 119,
      "chip": "ym2612"
    },
    {
      "channel": 0,
      "note": 51,
      "start": 5.3499,
      "duration": 0.0999,
      "velocity": 119,
      "chip": "ym2612"
    },
    {
      "channel": 2,
      "note": 53,
      "start": 5.3521,
      "duration": 0.1004,
      "velocity": 112,
      "chip": "ym2612"
    },
    {
      "channel": 0,
      "note": 53,
      "start": 5.45,
      "duration": 0.1286,
      "velocity": 119,
      "chip": "ym2612"
    },
    {
      "channel": 1,
      "note": 51,
      "start": 5.4505,
      "duration": 0.1287,
      "velocity": 119,
      "chip": "ym2612"
    },
    {
      "channel": 2,
      "note": 51,
      "start": 5.4526,
      "duration": 0.2361,
      "velocity": 109,
      "chip": "ym2612"
    },
    {
      "channel": 3,
      "note": 84,
      "start": 5.4532,
      "duration": 0.3362,
      "velocity": 117,
      "chip": "ym2612"
    },
    {
      "channel": 0,
      "note": 46,
      "start": 5.5788,
      "duration": 0.1055,
      "velocity": 119,
      "chip": "ym2612"
    },
    {
      "channel": 1,
      "note": 53,
      "start": 5.5793,
      "duration": 0.1055,
      "velocity": 119,
      "chip": "ym2612"
    },
    {
      "channel": 0,
      "note": 51,
      "start": 5.6844,
      "duration": 0.1016,
      "velocity": 119,
      "chip": "ym2612"
    },
    {
      "channel": 1,
      "note": 46,
      "start": 5.685,
      "duration": 0.1016,
      "velocity": 119,
      "chip": "ym2612"
    },
    {
      "channel": 2,
      "note": 51,
      "start": 5.6889,
      "duration": 0.0999,
      "velocity": 112,
      "chip": "ym2612"
    },
    {
      "channel": 0,
      "note": 53,
      "start": 5.7862,
      "duration": 0.1091,
      "velocity": 119,
      "chip": "ym2612"
    },
    {
      "channel": 1,
      "note": 51,
      "start": 5.7868,
      "duration": 0.1091,
      "velocity": 119,
      "chip": "ym2612"
    },
    {
      "channel": 2,
      "note": 53,
      "start": 5.7889,
      "duration": 0.2064,
      "velocity": 109,
      "chip": "ym2612"
    },
    {
      "channel": 3,
      "note": 77,
      "start": 5.7895,
      "duration": 0.32,
      "velocity": 117,
      "chip": "ym2612"
    },
    {
      "channel": 0,
      "note": 46,
      "start": 5.8955,
      "duration": 0.2132,
      "velocity": 119,
      "chip": "ym2612"
    },
    {
      "channel": 1,
      "note": 53,
      "start": 5.8961,
      "duration": 0.0971,
      "velocity": 119,
      "chip": "ym2612"
    },
    {
      "channel": 1,
      "note": 46,
      "start": 5.9933,
      "duration": 0.2179,
      "velocity": 119,
      "chip": "ym2612"
    },
    {
      "channel": 2,
      "note": 53,
      "start": 5.9955,
      "duration": 0.5227,
      "velocity": 112,
      "chip": "ym2612"
    },
    {
      "channel": 0,
      "note": 46,
      "start": 6.1089,
      "duration": 0.1017,
      "velocity": 119,
      "chip": "ym2612"
    },
    {
      "channel": 3,
      "note": 79,
      "start": 6.1096,
      "duration": 0.3091,
      "velocity": 117,
      "chip": "ym2612"
    },
    {
      "channel": 0,
      "note": 51,
      "start": 6.2108,
      "duration": 0.1001,
      "velocity": 119,
      "chip": "ym2612"
    },
    {
      "channel": 1,
      "note": 46,
      "start": 6.2113,
      "duration": 0.1002,
      "velocity": 119,
      "chip": "ym2612"
    },
    {
      "channel": 0,
      "note": 53,
      "start": 6.3111,
      "duration": 0.1064,
      "velocity": 119,
      "chip": "ym2612"
    },
    {
      "channel": 1,
      "note": 51,
      "start": 6.3117,
      "duration": 0.1064,
      "velocity": 119,
      "chip": "ym2612"
    },
    {
      "channel": 0,
      "note": 46,
      "start": 6.4178,
      "duration": 0.0978,
      "velocity": 119,
      "chip": "ym2612"
    },
    {
      "channel": 1,
      "note": 53,
      "start": 6.4183,
      "duration": 0.0977,
      "velocity": 119,
      "chip": "ym2612"
    },
    {
      "channel": 3,
      "note": 84,
      "start": 6.419,
      "duration": 0.2142,
      "velocity": 117,
      "chip": "ym2612"
    },
    {
      "channel": 0,
      "note": 51,
      "start": 6.5156,
      "duration": 0.1158,
      "velocity": 119,
      "chip": "ym2612"
    },
    {
      "channel": 1,
      "note": 46,
      "start": 6.5162,
      "duration": 0.1158,
      "velocity": 119,
      "chip": "ym2612"
    },
    {
      "channel": 2,
      "note": 48,
      "start": 6.5184,
      "duration": 0.1142,
      "velocity": 112,
      "chip": "ym2612"
    },
    {
      "channel": 0,
      "note": 53,
      "start": 6.6316,
      "duration": 0.2121,
      "velocity": 119,
      "chip": "ym2612"
    },
    {
      "channel": 1,
      "note": 51,
      "start": 6.6322,
      "duration": 0.1073,
      "velocity": 119,
      "chip": "ym2612"
    },
    {
      "channel": 2,
      "note": 51,
      "start": 6.6328,
      "duration": 0.1073,
      "velocity": 112,
      "chip": "ym2612"
    },
    {
      "channel": 3,
      "note": 77,
      "start": 6.6334,
      "duration": 0.2116,
      "velocity": 117,
      "chip": "ym2612"
    },
    {
      "channel": 1,
      "note": 53,
      "start": 6.7397,
      "duration": 0.2101,
      "velocity": 119,
      "chip": "ym2612"
    },
    {
      "channel": 2,
      "note": 48,
      "start": 6.7402,
      "duration": 0.1042,
      "velocity": 112,
      "chip": "ym2612"
    },
    {
      "channel": 0,
      "note": 46,
      "start": 6.8439,
      "duration": 0.2106,
      "velocity": 119,
      "chip": "ym2612"
    },
    {
      "channel": 2,
      "note": 53,
      "start": 6.8446,
      "duration": 0.2121,
      "velocity": 109,
      "chip": "ym2612"
    },
    {
      "channel": 3,
      "note": 79,
      "start": 6.8451,
      "duration": 0.3341,
      "velocity": 117,
      "chip": "ym2612"
    },
    {
      "channel": 1,
      "note": 46,
      "start": 6.95,
      "duration": 0.2264,
      "velocity": 119,
      "chip": "ym2612"
    },
    {
      "channel": 0,
      "note": 51,
      "start": 7.0546,
      "duration": 0.1212,
      "velocity": 119,
      "chip": "ym2612"
    },
    {
      "channel": 2,
      "note": 53,
      "start": 7.0569,
      "duration": 0.1217,
      "velocity": 112,
      "chip": "ym2612"
    },
    {
      "channel": 0,
      "note": 53,
      "start": 7.1761,
      "duration": 0.1109,
      "velocity": 119,
      "chip": "ym2612"
    },
    {
      "channel": 1,
      "note": 51,
      "start": 7.1766,
      "duration": 0.111,
      "velocity": 119,
      "chip": "ym2612"
    },
    {
      "channel": 2,
      "note": 51,
      "start": 7.1787,
      "duration": 0.2132,
      "velocity": 109,
      "chip": "ym2612"
    },
    {
      "channel": 3,
      "note": 84,
      "start": 7.1793,
      "duration": 0.3148,
      "velocity": 117,
      "chip": "ym2612"
    },
    {
      "channel": 0,
      "note": 46,
      "start": 7.2872,
      "duration": 0.102,
      "velocity": 119,
      "chip": "ym2612"
    },
    {
      "channel": 1,
      "note": 53,
      "start": 7.2877,
      "duration": 0.102,
      "velocity": 119,
      "chip": "ym2612"
    },
    {
      "channel": 0,
      "note": 51,
      "start": 7.3893,
      "duration": 0.1015,
      "velocity": 119,
      "chip": "ym2612"
    },
    {
      "channel": 1,
      "note": 46,
      "start": 7.3899,
      "duration": 0.1015,
      "velocity": 119,
      "chip": "ym2612"
    },
    {
      "channel": 2,
      "note": 51,
      "start": 7.392,
      "duration": 0.1015,
      "velocity": 112,
      "chip": "ym2612"
    },
    {
      "channel": 0,
      "note": 53,
      "start": 7.491,
      "duration": 0.1077,
      "velocity": 119,
      "chip": "ym2612"
    },
    {
      "channel": 1,
      "note": 51,
      "start": 7.4915,
      "duration": 0.1077,
      "velocity": 119,
      "chip": "ym2612"
    },
    {
      "channel": 2,
      "note": 53,
      "start": 7.4937,
      "duration": 0.2268,
      "velocity": 109,
      "chip": "ym2612"
    },
    {
      "channel": 3,
      "note": 77,
      "start": 7.4942,
      "duration": 0.327,
      "velocity": 117,
      "chip": "ym2612"
    },
    {
      "channel": 0,
      "note": 46,
      "start": 7.5988,
      "duration": 0.2217,
      "velocity": 119,
      "chip": "ym2612"
    },
    {
      "channel": 1,
      "note": 53,
      "start": 7.5993,
      "duration": 0.1189,
      "velocity": 119,
      "chip": "ym2612"
    },
    {
      "channel": 1,
      "note": 46,
      "start": 7.7185,
      "duration": 0.2028,
      "velocity": 119,
      "chip": "ym2612"
    },
    {
      "channel": 2,
      "note": 53,
      "start": 7.7206,
      "duration": 0.5229,
      "velocity": 112,
      "chip": "ym2612"
    },
    {
      "channel": 0,
      "note": 46,
      "start": 7.8207,
      "duration": 0.1,
      "velocity": 119,
      "chip": "ym2612"
    },
    {
      "channel": 3,
      "note": 79,
      "start": 7.8214,
      "duration": 0.3071,
      "velocity": 117,
      "chip": "ym2612"
    },
    {
      "channel": 0,
      "note": 51,
      "start": 7.9209,
      "duration": 0.0998,
      "velocity": 119,
      "chip": "ym2612"
    },
    {
      "channel": 1,
      "note": 46,
      "start": 7.9214,
      "duration": 0.0998,
      "velocity": 119,
      "chip": "ym2612"
    },
    {
      "channel": 0,
      "note": 53,
      "start": 8.0208,
      "duration": 0.1065,
      "velocity": 119,
      "chip": "ym2612"
    },
    {
      "channel": 1,
      "note": 51,
      "start": 8.0214,
      "duration": 0.1065,
      "velocity": 119,
      "chip": "ym2612"
    },
    {
      "channel": 0,
      "note": 46,
      "start": 8.1274,
      "duration": 0.1134,
      "velocity": 119,
      "chip": "ym2612"
    },
    {
      "channel": 1,
      "note": 53,
      "start": 8.128,
      "duration": 0.1134,
      "velocity": 119,
      "chip": "ym2612"
    },
    {
      "channel": 3,
      "note": 84,
      "start": 8.1287,
      "duration": 0.2191,
      "velocity": 117,
      "chip": "ym2612"
    },
    {
      "channel": 0,
      "note": 51,
      "start": 8.241,
      "duration": 0.1032,
      "velocity": 119,
      "chip": "ym2612"
    },
    {
      "channel": 1,
      "note": 46,
      "start": 8.2415,
      "duration": 0.1032,
      "velocity": 119,
      "chip": "ym2612"
    },
    {
      "channel": 2,
      "note": 48,
      "start": 8.2437,
      "duration": 0.1035,
      "velocity": 112,
      "chip": "ym2612"
    },
    {
      "channel": 0,
      "note": 53,
      "start": 8.3444,
      "duration": 0.2081,
      "velocity": 119,
      "chip": "ym2612"
    },
    {
      "channel": 1,
      "note": 51,
      "start": 8.345,
      "duration": 0.1039,
      "velocity": 119,
      "chip": "ym2612"
    },
    {
      "channel": 2,
      "note": 51,
      "start": 8.3474,
      "duration": 0.102,
      "velocity": 112,
      "chip": "ym2612"
    },
    {
      "channel": 3,
      "note": 77,
      "start": 8.348,
      "duration": 0.2059,
      "velocity": 117,
      "chip": "ym2612"
    },
    {
      "channel": 1,
      "note": 53,
      "start": 8.449,
      "duration": 0.202,
      "velocity": 119,
      "chip": "ym2612"
    },
    {
      "channel": 2,
      "note": 48,
      "start": 8.4496,
      "duration": 0.1037,
      "velocity": 112,
      "chip": "ym2612"
    },
    {
      "channel": 0,
      "note": 45,
      "start": 8.5527,
      "duration": 0.2254,
      "velocity": 119,
      "chip": "ym2612"
    },
    {
      "channel": 2,
      "note": 57,
      "start": 8.5534,
      "duration": 0.2268,
      "velocity": 109,
      "chip": "ym2612"
    },
    {
      "channel": 3,
      "note": 79,
      "start": 8.554,
      "duration": 0.3331,
      "velocity": 117,
      "chip": "ym2612"
    },
    {
      "channel": 1,
      "note": 45,
      "start": 8.6512,
      "duration": 0.2313,
      "velocity": 119,
      "chip": "ym2612"
    },
    {
      "channel": 0,
      "note": 48,
      "start": 8.7781,
      "duration": 0.1039,
      "velocity": 119,
      "chip": "ym2612"
    },
    {
      "channel": 2,
      "note": 57,
      "start": 8.7804,
      "duration": 0.1062,
      "velocity": 112,
      "chip": "ym2612"
    },
    {
      "channel": 0,
      "note": 50,
      "start": 8.8822,
      "duration": 0.1086,
      "velocity": 119,
      "chip": "ym2612"
    },
    {
      "channel": 1,
      "note": 48,
      "start": 8.8827,
      "duration": 0.1086,
      "velocity": 119,
      "chip": "ym2612"
    },
    {
      "channel": 2,
      "note": 55,
      "start": 8.8868,
      "duration": 0.2145,
      "velocity": 109,
      "chip": "ym2612"
    },
    {
      "channel": 3,
      "note": 84,
      "start": 8.8873,
      "duration": 0.3208,
      "velocity": 117,
      "chip": "ym2612"
    },
    {
      "channel": 0,
      "note": 45,
      "start": 8.991,
      "duration": 0.1076,
      "velocity": 119,
      "chip": "ym2612"
    },
    {
      "channel": 1,
      "note": 50,
      "start": 8.9915,
      "duration": 0.1076,
      "velocity": 119,
      "chip": "ym2612"
    },
    {
      "channel": 0,
      "note": 48,
      "start": 9.0987,
      "duration": 0.1061,
      "velocity": 119,
      "chip": "ym2612"
    },
    {
      "channel": 1,
      "note": 45,
      "start": 9.0993,
      "duration": 0.1061,
      "velocity": 119,
      "chip": "ym2612"
    },
    {
      "channel": 2,
      "note": 55,
      "start": 9.1015,
      "duration": 0.1061,
      "velocity": 112,
      "chip": "ym2612"
    },
    {
      "channel": 0,
      "note": 50,
      "start": 9.205,
      "duration": 0.1248,
      "velocity": 119,
      "chip": "ym2612"
    },
    {
      "channel": 1,
      "note": 48,
      "start": 9.2056,
      "duration": 0.1248,
      "velocity": 119,
      "chip": "ym2612"
    },
    {
      "channel": 2,
      "note": 57,
      "start": 9.2077,
      "duration": 0.2299,
      "velocity": 109,
      "chip": "ym2612"
    },
    {
      "channel": 3,
      "note": 77,
      "start": 9.2083,
      "duration": 0.3245,
      "velocity": 117,
      "chip": "ym2612"
    },
    {
      "channel": 0,
      "note": 45,
      "start": 9.33,
      "duration": 0.2021,
      "velocity": 119,
      "chip": "ym2612"
    },
    {
      "channel": 1,
      "note": 50,
      "start": 9.3305,
      "duration": 0.1032,
      "velocity": 119,
      "chip": "ym2612"
    },
    {
      "channel": 1,
      "note": 45,
      "start": 9.4339,
      "duration": 0.1947,
      "velocity": 119,
      "chip": "ym2612"
    },
    {
      "channel": 2,
      "note": 57,
      "start": 9.4377,
      "duration": 0.5244,
      "velocity": 112,
      "chip": "ym2612"
    },
    {
      "channel": 0,
      "note": 45,
      "start": 9.5322,
      "duration": 0.0958,
      "velocity": 119,
      "chip": "ym2612"
    },
    {
      "channel": 3,
      "note": 79,
      "start": 9.5329,
      "duration": 0.3275,
      "velocity": 117,
      "chip": "ym2612"
    },
    {
      "channel": 0,
      "note": 48,
      "start": 9.6281,
      "duration": 0.1037,
      "velocity": 119,
      "chip": "ym2612"
    },
    {
      "channel": 1,
      "note": 45,
      "start": 9.6287,
      "duration": 0.1037,
      "velocity": 119,
      "chip": "ym2612"
    },
    {
      "channel": 0,
      "note": 50,
      "start": 9.732,
      "duration": 0.1273,
      "velocity": 119,
      "chip": "ym2612"
    },
    {
      "channel": 1,
      "note": 48,
      "start": 9.7326,
      "duration": 0.1273,
      "velocity": 119,
      "chip": "ym2612"
    },
    {
      "channel": 0,
      "note": 45,
      "start": 9.8595,
      "duration": 0.0981,
      "velocity": 119,
      "chip": "ym2612"
    },
    {
      "channel": 1,
      "note": 50,
      "start": 9.86,
      "duration": 0.0981,
      "velocity": 119,
      "chip": "ym2612"
    },
    {
      "channel": 3,
      "note": 84,
      "start": 9.8607,
      "duration": 0.2025,
      "velocity": 117,
      "chip": "ym2612"
    },
    {
      "channel": 0,
      "note": 48,
      "start": 9.9578,
      "duration": 0.1037,
      "velocity": 119,
      "chip": "ym2612"
    },
    {
      "channel": 1,
      "note": 45,
      "start": 9.9583,
      "duration": 0.1037,
      "velocity": 119,
      "chip": "ym2612"
    },
    {
      "channel": 2,
      "note": 52,
      "start": 9.9623,
      "duration": 0.1003,
      "velocity": 112,
      "chip": "ym2612"
    },
    {
      "channel": 0,
      "note": 50,
      "start": 10.0616,
      "duration": 0.2168,
      "velocity": 119,
      "chip": "ym2612"
    },
    {
      "channel": 1,
      "note": 48,
      "start": 10.0621,
      "duration": 0.1084,
      "velocity": 119,
      "chip": "ym2612"
    },
    {
      "channel": 2,
      "note": 55,
      "start": 10.0627,
      "duration": 0.1084,
      "velocity": 112,
      "chip": "ym2612"
    },
    {
      "channel": 3,
      "note": 77,
      "start": 10.0633,
      "duration": 0.2164,
      "velocity": 117,
      "chip": "ym2612"
    },
    {
      "channel": 1,
      "note": 50,
      "start": 10.1707,
      "duration": 0.2237,
      "velocity": 119,
      "chip": "ym2612"
    },
    {
      "channel": 2,
      "note": 52,
      "start": 10.1712,
      "duration": 0.1078,
      "velocity": 112,
      "chip": "ym2612"
    },
    {
      "channel": 0,
      "note": 45,
      "start": 10.2785,
      "duration": 0.2274,
      "velocity": 119,
      "chip": "ym2612"
    },
    {
      "channel": 2,
      "note": 57,
      "start": 10.2792,
      "duration": 0.2307,
      "velocity": 109,
      "chip": "ym2612"
    },
    {
      "channel": 3,
      "note": 79,
      "start": 10.2798,
      "duration": 0.3293,
      "velocity": 117,
      "chip": "ym2612"
    },
    {
      "channel": 1,
      "note": 45,
      "start": 10.3945,
      "duration": 0.2118,
      "velocity": 119,
      "chip": "ym2612"
    },
    {
      "channel": 0,
      "note": 48,
      "start": 10.5061,
      "duration": 0.0997,
      "velocity": 119,
      "chip": "ym2612"
    },
    {
      "channel": 2,
      "note": 57,
      "start": 10.51,
      "duration": 0.0984,
      "velocity": 112,
      "chip": "ym2612"
    },
    {
      "channel": 0,
      "note": 50,
      "start": 10.6059,
      "duration": 0.1101,
      "velocity": 119,
      "chip": "ym2612"
    },
    {
      "channel": 1,
      "note": 48,
      "start": 10.6065,
      "duration": 0.1101,
      "velocity": 119,
      "chip": "ym2612"
    },
    {
      "channel": 2,
      "note": 55,
      "start": 10.6086,
      "duration": 0.2119,
      "velocity": 109,
      "chip": "ym2612"
    },
    {
      "channel": 3,
      "note": 84,
      "start": 10.6092,
      "duration": 0.3278,
      "velocity": 117,
      "chip": "ym2612"
    },
    {
      "channel": 0,
      "note": 45,
      "start": 10.7162,
      "duration": 0.1016,
      "velocity": 119,
      "chip": "ym2612"
    },
    {
      "channel": 1,
      "note": 50,
      "start": 10.7167,
      "duration": 0.1017,
      "velocity": 119,
      "chip": "ym2612"
    },
    {
      "channel": 0,
      "note": 48,
      "start": 10.818,
      "duration": 0.1156,
      "velocity": 119,
      "chip": "ym2612"
    },
    {
      "channel": 1,
      "note": 45,
      "start": 10.8186,
      "duration": 0.1156,
      "velocity": 119,
      "chip": "ym2612"
    },
    {
      "channel": 2,
      "note": 55,
      "start": 10.8207,
      "duration": 0.1156,
      "velocity": 112,
      "chip": "ym2612"
    },
    {
      "channel": 0,
      "note": 50,
      "start": 10.9338,
      "duration": 0.1114,
      "velocity": 119,
      "chip": "ym2612"
    },
    {
      "channel": 1,
      "note": 48,
      "start": 10.9344,
      "duration": 0.1114,
      "velocity": 119,
      "chip": "ym2612"
    },
    {
      "channel": 2,
      "note": 57,
      "start": 10.9366,
      "duration": 0.2154,
      "velocity": 109,
      "chip": "ym2612"
    },
    {
      "channel": 3,
      "note": 77,
      "start": 10.9371,
      "duration": 0.3138,
      "velocity": 117,
      "chip": "ym2612"
    },
    {
      "channel": 0,
      "note": 45,
      "start": 11.0454,
      "duration": 0.2048,
      "velocity": 119,
      "chip": "ym2612"
    },
    {
      "channel": 1,
      "note": 50,
      "start": 11.046,
      "duration": 0.1038,
      "velocity": 119,
      "chip": "ym2612"
    },
    {
      "channel": 1,
      "note": 45,
      "start": 11.15,
      "duration": 0.2025,
      "velocity": 119,
      "chip": "ym2612"
    },
    {
      "channel": 2,
      "note": 57,
      "start": 11.1521,
      "duration": 0.5233,
      "velocity": 112,
      "chip": "ym2612"
    },
    {
      "channel": 0,
      "note": 45,
      "start": 11.2505,
      "duration": 0.1015,
      "velocity": 119,
      "chip": "ym2612"
    },
    {
      "channel": 3,
      "note": 79,
      "start": 11.2512,
      "duration": 0.3258,
      "velocity": 117,
      "chip": "ym2612"
    },
    {
      "channel": 0,
      "note": 48,
      "start": 11.3521,
      "duration": 0.1161,
      "velocity": 119,
      "chip": "ym2612"
    },
    {
      "channel": 1,
      "note": 45,
      "start": 11.3527,
      "duration": 0.1161,
      "velocity": 119,
      "chip": "ym2612"
    },
    {
      "channel": 0,
      "note": 50,
      "start": 11.4683,
      "duration": 0.1057,
      "velocity": 119,
      "chip": "ym2612"
    },
    {
      "channel": 1,
      "note": 48,
      "start": 11.4689,
      "duration": 0.1056,
      "velocity": 119,
      "chip": "ym2612"
    },
    {
      "channel": 0,
      "note": 45,
      "start": 11.5742,
      "duration": 0.0986,
      "velocity": 119,
      "chip": "ym2612"
    },
    {
      "channel": 1,
      "note": 50,
      "start": 11.5747,
      "duration": 0.0985,
      "velocity": 119,
      "chip": "ym2612"
    },
    {
      "channel": 3,
      "note": 84,
      "start": 11.5771,
      "duration": 0.1976,
      "velocity": 117,
      "chip": "ym2612"
    },
    {
      "channel": 0,
      "note": 48,
      "start": 11.6729,
      "duration": 0.1001,
      "velocity": 119,
      "chip": "ym2612"
    },
    {
      "channel": 1,
      "note": 45,
      "start": 11.6734,
      "duration": 0.1001,
      "velocity": 119,
      "chip": "ym2612"
    },
    {
      "channel": 2,
      "note": 52,
      "start": 11.6756,
      "duration": 0.0985,
      "velocity": 112,
      "chip": "ym2612"
    },
    {
      "channel": 0,
      "note": 50,
      "start": 11.7731,
      "duration": 0.2176,
      "velocity": 119,
      "chip": "ym2612"
    },
    {
      "channel": 1,
      "note": 48,
      "start": 11.7737,
      "duration": 0.1008,
      "velocity": 119,
      "chip": "ym2612"
    },
    {
      "channel": 2,
      "note": 55,
      "start": 11.7743,
      "duration": 0.1007,
      "velocity": 112,
      "chip": "ym2612"
    },
    {
      "channel": 3,
      "note": 77,
      "start": 11.7748,
      "duration": 0.2171,
      "velocity": 117,
      "chip": "ym2612"
    },
    {
      "channel": 1,
      "note": 50,
      "start": 11.8746,
      "duration": 0.2199,
      "velocity": 119,
      "chip": "ym2612"
    },
    {
      "channel": 2,
      "note": 52,
      "start": 11.8751,
      "duration": 0.1162,
      "velocity": 112,
      "chip": "ym2612"
    },
    {
      "channel": 0,
      "note": 46,
      "start": 11.9909,
      "duration": 0.2102,
      "velocity": 119,
      "chip": "ym2612"
    },
    {
      "channel": 2,
      "note": 53,
      "start": 11.9915,
      "duration": 0.2118,
      "velocity": 109,
      "chip": "ym2612"
    },
    {
      "channel": 3,
      "note": 79,
      "start": 11.9921,
      "duration": 0.3123,
      "velocity": 117,
      "chip": "ym2612"
    },
    {
      "channel": 1,
      "note": 46,
      "start": 12.0946,
      "duration": 0.207,
      "velocity": 119,
      "chip": "ym2612"
    },
    {
      "channel": 0,
      "note": 51,
      "start": 12.2013,
      "duration": 0.0998,
      "velocity": 119,
      "chip": "ym2612"
    },
    {
      "channel": 2,
      "note": 53,
      "start": 12.2035,
      "duration": 0.1002,
      "velocity": 112,
      "chip": "ym2612"
    },
    {
      "channel": 0,
      "note": 53,
      "start": 12.3012,
      "duration": 0.1123,
      "velocity": 119,
      "chip": "ym2612"
    },
    {
      "channel": 1,
      "note": 51,
      "start": 12.3017,
      "duration": 0.1123,
      "velocity": 119,
      "chip": "ym2612"
    },
    {
      "channel": 2,
      "note": 51,
      "start": 12.3039,
      "duration": 0.232,
      "velocity": 109,
      "chip": "ym2612"
    },
    {
      "channel": 3,
      "note": 84,
      "start": 12.3045,
      "duration": 0.332,
      "velocity": 117,
      "chip": "ym2612"
    },
    {
      "channel": 0,
      "note": 46,
      "start": 12.4137,
      "duration": 0.1194,
      "velocity": 119,
      "chip": "ym2612"
    },
    {
      "channel": 1,
      "note": 53,
      "start": 12.4142,
      "duration": 0.1195,
      "velocity": 119,
      "chip": "ym2612"
    },
    {
      "channel": 0,
      "note": 51,
      "start": 12.5333,
      "duration": 0.0982,
      "velocity": 119,
      "chip": "ym2612"
    },
    {
      "channel": 1,
      "note": 46,
      "start": 12.5339,
      "duration": 0.0982,
      "velocity": 119,
      "chip": "ym2612"
    },
    {
      "channel": 2,
      "note": 51,
      "start": 12.536,
      "duration": 0.0998,
      "velocity": 112,
      "chip": "ym2612"
    },
    {
      "channel": 0,
      "note": 53,
      "start": 12.6317,
      "duration": 0.1057,
      "velocity": 119,
      "chip": "ym2612"
    },
    {
      "channel": 1,
      "note": 51,
      "start": 12.6322,
      "duration": 0.1058,
      "velocity": 119,
      "chip": "ym2612"
    },
    {
      "channel": 2,
      "note": 53,
      "start": 12.6361,
      "duration": 0.2113,
      "velocity": 109,
      "chip": "ym2612"
    },
    {
      "channel": 3,
      "note": 77,
      "start": 12.6366,
      "duration": 0.3076,
      "velocity": 117,
      "chip": "ym2612"
    },
    {
      "channel": 0,
      "note": 46,
      "start": 12.7376,
      "duration": 0.206,
      "velocity": 119,
      "chip": "ym2612"
    },
    {
      "channel": 1,
      "note": 53,
      "start": 12.7382,
      "duration": 0.1071,
      "velocity": 119,
      "chip": "ym2612"
    },
    {
      "channel": 1,
      "note": 46,
      "start": 12.8454,
      "duration": 0.2146,
      "velocity": 119,
      "chip": "ym2612"
    },
    {
      "channel": 2,
      "note": 53,
      "start": 12.8476,
      "duration": 0.5315,
      "velocity": 112,
      "chip": "ym2612"
    },
    {
      "channel": 0,
      "note": 46,
      "start": 12.9437,
      "duration": 0.1157,
      "velocity": 119,
      "chip": "ym2612"
    },
    {
      "channel": 3,
      "note": 79,
      "start": 12.9444,
      "duration": 0.3271,
      "velocity": 117,
      "chip": "ym2612"
    },
    {
      "channel": 0,
      "note": 51,
      "start": 13.0596,
      "duration": 0.1017,
      "velocity": 119,
      "chip": "ym2612"
    },
    {
      "channel": 1,
      "note": 46,
      "start": 13.0602,
      "duration": 0.1017,
      "velocity": 119,
      "chip": "ym2612"
    },
    {
      "channel": 0,
      "note": 53,
      "start": 13.1615,
      "duration": 0.1089,
      "velocity": 119,
      "chip": "ym2612"
    },
    {
      "channel": 1,
      "note": 51,
      "start": 13.1621,
      "duration": 0.1088,
      "velocity": 119,
      "chip": "ym2612"
    },
    {
      "channel": 0,
      "note": 46,
      "start": 13.2705,
      "duration": 0.1059,
      "velocity": 119,
      "chip": "ym2612"
    },
    {
      "channel": 1,
      "note": 53,
      "start": 13.2711,
      "duration": 0.1059,
      "velocity": 119,
      "chip": "ym2612"
    },
    {
      "channel": 3,
      "note": 84,
      "start": 13.2717,
      "duration": 0.2106,
      "velocity": 117,
      "chip": "ym2612"
    },
    {
      "channel": 0,
      "note": 51,
      "start": 13.3766,
      "duration": 0.1041,
      "velocity": 119,
      "chip": "ym2612"
    },
    {
      "channel": 1,
      "note": 46,
      "start": 13.3771,
      "duration": 0.1041,
      "velocity": 119,
      "chip": "ym2612"
    },
    {
      "channel": 2,
      "note": 48,
      "start": 13.3793,
      "duration": 0.1024,
      "velocity": 112,
      "chip": "ym2612"
    },
    {
      "channel": 0,
      "note": 53,
      "start": 13.4808,
      "duration": 0.2195,
      "velocity": 119,
      "chip": "ym2612"
    },
    {
      "channel": 1,
      "note": 51,
      "start": 13.4814,
      "duration": 0.119,
      "velocity": 119,
      "chip": "ym2612"
    },
    {
      "channel": 2,
      "note": 51,
      "start": 13.482,
      "duration": 0.119,
      "velocity": 112,
      "chip": "ym2612"
    },
    {
      "channel": 3,
      "note": 77,
      "start": 13.4825,
      "duration": 0.2209,
      "velocity": 117,
      "chip": "ym2612"
    },
    {
      "channel": 1,
      "note": 53,
      "start": 13.6006,
      "duration": 0.2038,
      "velocity": 119,
      "chip": "ym2612"
    },
    {
      "channel": 2,
      "note": 48,
      "start": 13.6011,
      "duration": 0.0998,
      "velocity": 112,
      "chip": "ym2612"
    },
    {
      "channel": 0,
      "note": 46,
      "start": 13.7005,
      "duration": 0.2102,
      "velocity": 119,
      "chip": "ym2612"
    },
    {
      "channel": 2,
      "note": 53,
      "start": 13.7011,
      "duration": 0.2117,
      "velocity": 109,
      "chip": "ym2612"
    },
    {
      "channel": 3,
      "note": 79,
      "start": 13.7035,
      "duration": 0.3105,
      "velocity": 117,
      "chip": "ym2612"
    },
    {
      "channel": 1,
      "note": 46,
      "start": 13.8045,
      "duration": 0.2067,
      "velocity": 119,
      "chip": "ym2612"
    },
    {
      "channel": 0,
      "note": 51,
      "start": 13.9108,
      "duration": 0.0999,
      "velocity": 119,
      "chip": "ym2612"
    },
    {
      "channel": 2,
      "note": 53,
      "start": 13.913,
      "duration": 0.1004,
      "velocity": 112,
      "chip": "ym2612"
    },
    {
      "channel": 0,
      "note": 53,
      "start": 14.0109,
      "duration": 0.1286,
      "velocity": 119,
      "chip": "ym2612"
    },
    {
      "channel": 1,
      "note": 51,
      "start": 14.0114,
      "duration": 0.1287,
      "velocity": 119,
      "chip": "ym2612"
    },
    {
      "channel": 2,
      "note": 51,
      "start": 14.0136,
      "duration": 0.236,
      "velocity": 109,
      "chip": "ym2612"
    },
    {
      "channel": 3,
      "note": 84,
      "start": 14.0141,
      "duration": 0.335,
      "velocity": 117,
      "chip": "ym2612"
    },
    {
      "channel": 0,
      "note": 46,
      "start": 14.1397,
      "duration": 0.1055,
      "velocity": 119,
      "chip": "ym2612"
    },
    {
      "channel": 1,
      "note": 53,
      "start": 14.1402,
      "duration": 0.1055,
      "velocity": 119,
      "chip": "ym2612"
    },
    {
      "channel": 0,
      "note": 51,
      "start": 14.2454,
      "duration": 0.1005,
      "velocity": 119,
      "chip": "ym2612"
    },
    {
      "channel": 1,
      "note": 46,
      "start": 14.2459,
      "duration": 0.1005,
      "velocity": 119,
      "chip": "ym2612"
    },
    {
      "channel": 2,
      "note": 51,
      "start": 14.2498,
      "duration": 0.0988,
      "velocity": 112,
      "chip": "ym2612"
    },
    {
      "channel": 0,
      "note": 53,
      "start": 14.346,
      "duration": 0.1032,
      "velocity": 119,
      "chip": "ym2612"
    },
    {
      "channel": 1,
      "note": 51,
      "start": 14.3466,
      "duration": 0.1031,
      "velocity": 119,
      "chip": "ym2612"
    },
    {
      "channel": 2,
      "note": 53,
      "start": 14.3488,
      "duration": 0.2022,
      "velocity": 109,
      "chip": "ym2612"
    },
    {
      "channel": 3,
      "note": 77,
      "start": 14.3493,
      "duration": 0.3161,
      "velocity": 117,
      "chip": "ym2612"
    },
    {
      "channel": 0,
      "note": 46,
      "start": 14.4493,
      "duration": 0.2154,
      "velocity": 119,
      "chip": "ym2612"
    },
    {
      "channel": 1,
      "note": 53,
      "start": 14.4499,
      "duration": 0.099,
      "velocity": 119,
      "chip": "ym2612"
    },
    {
      "channel": 1,
      "note": 46,
      "start": 14.549,
      "duration": 0.2182,
      "velocity": 119,
      "chip": "ym2612"
    },
    {
      "channel": 2,
      "note": 53,
      "start": 14.5512,
      "duration": 0.5201,
      "velocity": 112,
      "chip": "ym2612"
    },
    {
      "channel": 0,
      "note": 46,
      "start": 14.6649,
      "duration": 0.1017,
      "velocity": 119,
      "chip": "ym2612"
    },
    {
      "channel": 3,
      "note": 79,
      "start": 14.6656,
      "duration": 0.3063,
      "velocity": 117,
      "chip": "ym2612"
    },
    {
      "channel": 0,
      "note": 51,
      "start": 14.7667,
      "duration": 0.0995,
      "velocity": 119,
      "chip": "ym2612"
    },
    {
      "channel": 1,
      "note": 46,
      "start": 14.7673,
      "duration": 0.0994,
      "velocity": 119,
      "chip": "ym2612"
    },
    {
      "channel": 0,
      "note": 53,
      "start": 14.8663,
      "duration": 0.1044,
      "velocity": 119,
      "chip": "ym2612"
    },
    {
      "channel": 1,
      "note": 51,
      "start": 14.8669,
      "duration": 0.1044,
      "velocity": 119,
      "chip": "ym2612"
    },
    {
      "channel": 0,
      "note": 46,
      "start": 14.9709,
      "duration": 0.0976,
      "velocity": 119,
      "chip": "ym2612"
    },
    {
      "channel": 1,
      "note": 53,
      "start": 14.9715,
      "duration": 0.0976,
      "velocity": 119,
      "chip": "ym2612"
    },
    {
      "channel": 3,
      "note": 84,
      "start": 14.9722,
      "duration": 0.2139,
      "velocity": 117,
      "chip": "ym2612"
    },
    {
      "channel": 0,
      "note": 51,
      "start": 15.0687,
      "duration": 0.1156,
      "velocity": 119,
      "chip": "ym2612"
    },
    {
      "channel": 1,
      "note": 46,
      "start": 15.0693,
      "duration": 0.1156,
      "velocity": 119,
      "chip": "ym2612"
    },
    {
      "channel": 2,
      "note": 48,
      "start": 15.0715,
      "duration": 0.114,
      "velocity": 112,
      "chip": "ym2612"
    },
    {
      "channel": 0,
      "note": 53,
      "start": 15.1846,
      "duration": 0.2023,
      "velocity": 99,
      "chip": "ym2612"
    },
    {
      "channel": 1,
      "note": 51,
      "start": 15.1851,
      "duration": 0.0998,
      "velocity": 119,
      "chip": "ym2612"
    },
    {
      "channel": 2,
      "note": 51,
      "start": 15.1857,
      "duration": 0.0998,
      "velocity": 112,
      "chip": "ym2612"
    },
    {
      "channel": 3,
      "note": 77,
      "start": 15.1863,
      "duration": 0.205,
      "velocity": 112,
      "chip": "ym2612"
    },
    {
      "channel": 1,
      "note": 53,
      "start": 15.2851,
      "duration": 0.3069,
      "velocity": 99,
      "chip": "ym2612"
    },
    {
      "channel": 2,
      "note": 48,
      "start": 15.2857,
      "duration": 0.1034,
      "velocity": 127,
      "chip": "ym2612"
    },
    {
      "channel": 0,
      "note": 69,
      "start": 15.387,
      "duration": 0.0981,
      "velocity": 99,
      "chip": "ym2612"
    },
    {
      "channel": 2,
      "note": 71,
      "start": 15.3893,
      "duration": 0.0051,
      "velocity": 127,
      "chip": "ym2612"
    },
    {
      "channel": 3,
      "note": 57,
      "start": 15.3914,
      "duration": 0.2029,
      "velocity": 109,
      "chip": "ym2612"
    },
    {
      "channel": 4,
      "note": 79,
      "start": 15.3935,
      "duration": 0.3122,
      "velocity": 117,
      "chip": "ym2612"
    },
    {
      "channel": 2,
      "note": 70,
      "start": 15.3944,
      "duration": 0.0066,
      "velocity": 127,
      "chip": "ym2612"
    },
    {
      "channel": 2,
      "note": 68,
      "start": 15.401,
      "duration": 0.0136,
      "velocity": 127,
      "chip": "ym2612"
    },
    {
      "channel": 2,
      "note": 67,
      "start": 15.4145,
      "duration": 0.0271,
      "velocity": 127,
      "chip": "ym2612"
    },
    {
      "channel": 2,
      "note": 66,
      "start": 15.4417,
      "duration": 0.0136,
      "velocity": 127,
      "chip": "ym2612"
    },
    {
      "channel": 2,
      "note": 66,
      "start": 15.4552,
      "duration": 0.0157,
      "velocity": 127,
      "chip": "ym2612"
    },
    {
      "channel": 2,
      "note": 65,
      "start": 15.4709,
      "duration": 0.0148,
      "velocity": 127,
      "chip": "ym2612"
    },
    {
      "channel": 0,
      "note": 64,
      "start": 15.4852,
      "duration": 0.1047,
      "velocity": 99,
      "chip": "ym2612"
    },
    {
      "channel": 2,
      "note": 71,
      "start": 15.4859,
      "duration": 0.0006,
      "velocity": 127,
      "chip": "ym2612"
    },
    {
      "channel": 2,
      "note": 70,
      "start": 15.4864,
      "duration": 0.0141,
      "velocity": 127,
      "chip": "ym2612"
    },
    {
      "channel": 2,
      "note": 68,
      "start": 15.5005,
      "duration": 0.0272,
      "velocity": 127,
      "chip": "ym2612"
    },
    {
      "channel": 2,
      "note": 67,
      "start": 15.5277,
      "duration": 0.0138,
      "velocity": 127,
      "chip": "ym2612"
    },
    {
      "channel": 2,
      "note": 66,
      "start": 15.5415,
      "duration": 0.0147,
      "velocity": 127,
      "chip": "ym2612"
    },
    {
      "channel": 2,
      "note": 66,
      "start": 15.5562,
      "duration": 0.0167,
      "velocity": 127,
      "chip": "ym2612"
    },
    {
      "channel": 2,
      "note": 65,
      "start": 15.5729,
      "duration": 0.0224,
      "velocity": 127,
      "chip": "ym2612"
    },
    {
      "channel": 0,
      "note": 67,
      "start": 15.59,
      "duration": 0.1119,
      "velocity": 99,
      "chip": "ym2612"
    },
    {
      "channel": 1,
      "note": 69,
      "start": 15.5922,
      "duration": 0.1102,
      "velocity": 99,
      "chip": "ym2612"
    },
    {
      "channel": 3,
      "note": 57,
      "start": 15.5944,
      "duration": 0.1107,
      "velocity": 112,
      "chip": "ym2612"
    },
    {
      "channel": 2,
      "note": 64,
      "start": 15.5952,
      "duration": 0.0225,
      "velocity": 127,
      "chip": "ym2612"
    },
    {
      "channel": 2,
      "note": 63,
      "start": 15.6178,
      "duration": 0.0136,
      "velocity": 127,
      "chip": "ym2612"
    },
    {
      "channel": 2,
      "note": 61,
      "start": 15.6313,
      "duration": 0.0138,
      "velocity": 127,
      "chip": "ym2612"
    },
    {
      "channel": 2,
      "note": 60,
      "start": 15.6451,
      "duration": 0.0158,
      "velocity": 127,
      "chip": "ym2612"
    },
    {
      "channel": 2,
      "note": 59,
      "start": 15.6609,
      "duration": 0.0135,
      "velocity": 127,
      "chip": "ym2612"
    },
    {
      "channel": 2,
      "note": 58,
      "start": 15.6744,
      "duration": 0.0286,
      "velocity": 127,
      "chip": "ym2612"
    },
    {
      "channel": 0,
      "note": 74,
      "start": 15.702,
      "duration": 0.3217,
      "velocity": 99,
      "chip": "ym2612"
    },
    {
      "channel": 1,
      "note": 64,
      "start": 15.7026,
      "duration": 0.1131,
      "velocity": 99,
      "chip": "ym2612"
    },
    {
      "channel": 2,
      "note": 71,
      "start": 15.7032,
      "duration": 0.0032,
      "velocity": 127,
      "chip": "ym2612"
    },
    {
      "channel": 3,
      "note": 55,
      "start": 15.7053,
      "duration": 0.2172,
      "velocity": 109,
      "chip": "ym2612"
    },
    {
      "channel": 4,
      "note": 84,
      "start": 15.7059,
      "duration": 0.3212,
      "velocity": 117,
      "chip": "ym2612"
    },
    {
      "channel": 2,
      "note": 70,
      "start": 15.7064,
      "duration": 0.0112,
      "velocity": 127,
      "chip": "ym2612"
    },
    {
      "channel": 2,
      "note": 68,
      "start": 15.7176,
      "duration": 0.0157,
      "velocity": 127,
      "chip": "ym2612"
    },
    {
      "channel": 2,
      "note": 67,
      "start": 15.7333,
      "duration": 0.0158,
      "velocity": 127,
      "chip": "ym2612"
    },
    {
      "channel": 2,
      "note": 66,
      "start": 15.749,
      "duration": 0.0161,
      "velocity": 127,
      "chip": "ym2612"
    },
    {
      "channel": 2,
      "note": 66,
      "start": 15.7651,
      "duration": 0.0333,
      "velocity": 127,
      "chip": "ym2612"
    },
    {
      "channel": 2,
      "note": 65,
      "start": 15.7985,
      "duration": 0.0203,
      "velocity": 127,
      "chip": "ym2612"
    },
    {
      "channel": 1,
      "note": 67,
      "start": 15.8158,
      "duration": 0.1039,
      "velocity": 99,
      "chip": "ym2612"
    },
    {
      "channel": 2,
      "note": 64,
      "start": 15.8188,
      "duration": 0.0123,
      "velocity": 127,
      "chip": "ym2612"
    },
    {
      "channel": 2,
      "note": 63,
      "start": 15.831,
      "duration": 0.0136,
      "velocity": 127,
      "chip": "ym2612"
    },
    {
      "channel": 2,
      "note": 61,
      "start": 15.8446,
      "duration": 0.0159,
      "velocity": 127,
      "chip": "ym2612"
    },
    {
      "channel": 2,
      "note": 60,
      "start": 15.8605,
      "duration": 0.0273,
      "velocity": 127,
      "chip": "ym2612"
    },
    {
      "channel": 2,
      "note": 59,
      "start": 15.8878,
      "duration": 0.0158,
      "velocity": 127,
      "chip": "ym2612"
    },
    {
      "channel": 2,
      "note": 58,
      "start": 15.9036,
      "duration": 0.0168,
      "velocity": 127,
      "chip": "ym2612"
    },
    {
      "channel": 1,
      "note": 74,
      "start": 15.9199,
      "duration": 0.3194,
      "velocity": 99,
      "chip": "ym2612"
    },
    {
      "channel": 2,
      "note": 67,
      "start": 15.9205,
      "duration": 0.0027,
      "velocity": 127,
      "chip": "ym2612"
    },
    {
      "channel": 3,
      "note": 55,
      "start": 15.9227,
      "duration": 0.1039,
      "velocity": 112,
      "chip": "ym2612"
    },
    {
      "channel": 2,
      "note": 66,
      "start": 15.9232,
      "duration": 0.0121,
      "velocity": 127,
      "chip": "ym2612"
    },
    {
      "channel": 2,
      "note": 65,
      "start": 15.9353,
      "duration": 0.0138,
      "velocity": 127,
      "chip": "ym2612"
    },
    {
      "channel": 2,
      "note": 64,
      "start": 15.9491,
      "duration": 0.0315,
      "velocity": 127,
      "chip": "ym2612"
    },
    {
      "channel": 2,
      "note": 63,
      "start": 15.9806,
      "duration": 0.0137,
      "velocity": 127,
      "chip": "ym2612"
    },
    {
      "channel": 2,
      "note": 62,
      "start": 15.9943,
      "duration": 0.0156,
      "velocity": 127,
      "chip": "ym2612"
    },
    {
      "channel": 2,
      "note": 61,
      "start": 16.0099,
      "duration": 0.0144,
      "velocity": 127,
      "chip": "ym2612"
    },
    {
      "channel": 0,
      "note": 69,
      "start": 16.0239,
      "duration": 0.1012,
      "velocity": 99,
      "chip": "ym2612"
    },
    {
      "channel": 2,
      "note": 67,
      "start": 16.0246,
      "duration": 0.0032,
      "velocity": 127,
      "chip": "ym2612"
    },
    {
      "channel": 3,
      "note": 57,
      "start": 16.0267,
      "duration": 0.2147,
      "velocity": 109,
      "chip": "ym2612"
    },
    {
      "channel": 4,
      "note": 77,
      "start": 16.0273,
      "duration": 0.3175,
      "velocity": 117,
      "chip": "ym2612"
    },
    {
      "channel": 2,
      "note": 66,
      "start": 16.0278,
      "duration": 0.0101,
      "velocity": 127,
      "chip": "ym2612"
    },
    {
      "channel": 2,
      "note": 65,
      "start": 16.0378,
      "duration": 0.0271,
      "velocity": 127,
      "chip": "ym2612"
    },
    {
      "channel": 2,
      "note": 64,
      "start": 16.0649,
      "duration": 0.0136,
      "velocity": 127,
      "chip": "ym2612"
    },
    {
      "channel": 2,
      "note": 63,
      "start": 16.0785,
      "duration": 0.0138,
      "velocity": 127,
      "chip": "ym2612"
    },
    {
      "channel": 2,
      "note": 62,
      "start": 16.0923,
      "duration": 0.0158,
      "velocity": 127,
      "chip": "ym2612"
    },
    {
      "channel": 2,
      "note": 61,
      "start": 16.1081,
      "duration": 0.0182,
      "velocity": 127,
      "chip": "ym2612"
    },
    {
      "channel": 0,
      "note": 64,
      "start": 16.1253,
      "duration": 0.1134,
      "velocity": 99,
      "chip": "ym2612"
    },
    {
      "channel": 2,
      "note": 60,
      "start": 16.1263,
      "duration": 0.0262,
      "velocity": 127,
      "chip": "ym2612"
    },
    {
      "channel": 2,
      "note": 59,
      "start": 16.1525,
      "duration": 0.0156,
      "velocity": 127,
      "chip": "ym2612"
    },
    {
      "channel": 2,
      "note": 57,
      "start": 16.1681,
      "duration": 0.0137,
      "velocity": 127,
      "chip": "ym2612"
    },
    {
      "channel": 2,
      "note": 56,
      "start": 16.1818,
      "duration": 0.0136,
      "velocity": 127,
      "chip": "ym2612"
    },
    {
      "channel": 2,
      "note": 55,
      "start": 16.1953,
      "duration": 0.0159,
      "velocity": 127,
      "chip": "ym2612"
    },
    {
      "channel": 2,
      "note": 54,
      "start": 16.2112,
      "duration": 0.031,
      "velocity": 127,
      "chip": "ym2612"
    },
    {
      "channel": 0,
      "note": 67,
      "start": 16.2389,
      "duration": 0.1022,
      "velocity": 99,
      "chip": "ym2612"
    },
    {
      "channel": 1,
      "note": 69,
      "start": 16.2395,
      "duration": 0.1021,
      "velocity": 99,
      "chip": "ym2612"
    },
    {
      "channel": 3,
      "note": 57,
      "start": 16.2417,
      "duration": 0.5335,
      "velocity": 112,
      "chip": "ym2612"
    },
    {
      "channel": 2,
      "note": 53,
      "start": 16.2422,
      "duration": 0.0106,
      "velocity": 127,
      "chip": "ym2612"
    },
    {
      "channel": 2,
      "note": 52,
      "start": 16.2527,
      "duration": 0.0138,
      "velocity": 127,
      "chip": "ym2612"
    },
    {
      "channel": 2,
      "note": 51,
      "start": 16.2665,
      "duration": 0.0158,
      "velocity": 127,
      "chip": "ym2612"
    },
    {
      "channel": 2,
      "note": 50,
      "start": 16.2823,
      "duration": 0.0156,
      "velocity": 127,
      "chip": "ym2612"
    },
    {
      "channel": 2,
      "note": 49,
      "start": 16.2979,
      "duration": 0.0272,
      "velocity": 127,
      "chip": "ym2612"
    },
    {
      "channel": 2,
      "note": 48,
      "start": 16.325,
      "duration": 0.0192,
      "velocity": 127,
      "chip": "ym2612"
    },
    {
      "channel": 0,
      "note": 74,
      "start": 16.3412,
      "duration": 0.3134,
      "velocity": 99,
      "chip": "ym2612"
    },
    {
      "channel": 1,
      "note": 64,
      "start": 16.3418,
      "duration": 0.1038,
      "velocity": 99,
      "chip": "ym2612"
    },
    {
      "channel": 2,
      "note": 71,
      "start": 16.3444,
      "duration": 0.0014,
      "velocity": 127,
      "chip": "ym2612"
    },
    {
      "channel": 4,
      "note": 79,
      "start": 16.345,
      "duration": 0.3103,
      "velocity": 117,
      "chip": "ym2612"
    },
    {
      "channel": 2,
      "note": 70,
      "start": 16.3458,
      "duration": 0.0096,
      "velocity": 127,
      "chip": "ym2612"
    },
    {
      "channel": 2,
      "note": 68,
      "start": 16.3554,
      "duration": 0.0158,
      "velocity": 127,
      "chip": "ym2612"
    },
    {
      "channel": 2,
      "note": 67,
      "start": 16.3712,
      "duration": 0.0156,
      "velocity": 127,
      "chip": "ym2612"
    },
    {
      "channel": 2,
      "note": 66,
      "start": 16.3867,
      "duration": 0.0272,
      "velocity": 127,
      "chip": "ym2612"
    },
    {
      "channel": 2,
      "note": 66,
      "start": 16.4139,
      "duration": 0.0157,
      "velocity": 127,
      "chip": "ym2612"
    },
    {
      "channel": 2,
      "note": 65,
      "start": 16.4296,
      "duration": 0.0171,
      "velocity": 127,
      "chip": "ym2612"
    },
    {
      "channel": 1,
      "note": 67,
      "start": 16.4457,
      "duration": 0.1019,
      "velocity": 99,
      "chip": "ym2612"
    },
    {
      "channel": 2,
      "note": 64,
      "start": 16.4466,
      "duration": 0.0124,
      "velocity": 127,
      "chip": "ym2612"
    },
    {
      "channel": 2,
      "note": 63,
      "start": 16.459,
      "duration": 0.0136,
      "velocity": 127,
      "chip": "ym2612"
    },
    {
      "channel": 2,
      "note": 61,
      "start": 16.4726,
      "duration": 0.0315,
      "velocity": 127,
      "chip": "ym2612"
    },
    {
      "channel": 2,
      "note": 60,
      "start": 16.504,
      "duration": 0.0138,
      "velocity": 127,
      "chip": "ym2612"
    },
    {
      "channel": 2,
      "note": 59,
      "start": 16.5178,
      "duration": 0.0139,
      "velocity": 127,
      "chip": "ym2612"
    },
    {
      "channel": 2,
      "note": 58,
      "start": 16.5317,
      "duration": 0.0166,
      "velocity": 127,
      "chip": "ym2612"
    },
    {
      "channel": 1,
      "note": 74,
      "start": 16.5478,
      "duration": 0.3277,
      "velocity": 99,
      "chip": "ym2612"
    },
    {
      "channel": 2,
      "note": 71,
      "start": 16.5484,
      "duration": 0.0006,
      "velocity": 127,
      "chip": "ym2612"
    },
    {
      "channel": 2,
      "note": 70,
      "start": 16.549,
      "duration": 0.0141,
      "velocity": 127,
      "chip": "ym2612"
    },
    {
      "channel": 2,
      "note": 68,
      "start": 16.5632,
      "duration": 0.0273,
      "velocity": 127,
      "chip": "ym2612"
    },
    {
      "channel": 2,
      "note": 67,
      "start": 16.5905,
      "duration": 0.0138,
      "velocity": 127,
      "chip": "ym2612"
    },
    {
      "channel": 2,
      "note": 66,
      "start": 16.6043,
      "duration": 0.0166,
      "velocity": 127,
      "chip": "ym2612"
    },
    {
      "channel": 2,
      "note": 66,
      "start": 16.6209,
      "duration": 0.0167,
      "velocity": 127,
      "chip": "ym2612"
    },
    {
      "channel": 2,
      "note": 65,
      "start": 16.6376,
      "duration": 0.0187,
      "velocity": 127,
      "chip": "ym2612"
    },
    {
      "channel": 0,
      "note": 69,
      "start": 16.6548,
      "duration": 0.1176,
      "velocity": 99,
      "chip": "ym2612"
    },
    {
      "channel": 4,
      "note": 84,
      "start": 16.6555,
      "duration": 0.2236,
      "velocity": 117,
      "chip": "ym2612"
    },
    {
      "channel": 2,
      "note": 64,
      "start": 16.6563,
      "duration": 0.0255,
      "velocity": 127,
      "chip": "ym2612"
    },
    {
      "channel": 2,
      "note": 63,
      "start": 16.6818,
      "duration": 0.0159,
      "velocity": 127,
      "chip": "ym2612"
    },
    {
      "channel": 2,
      "note": 61,
      "start": 16.6977,
      "duration": 0.0159,
      "velocity": 127,
      "chip": "ym2612"
    },
    {
      "channel": 2,
      "note": 60,
      "start": 16.7136,
      "duration": 0.0135,
      "velocity": 127,
      "chip": "ym2612"
    },
    {
      "channel": 2,
      "note": 59,
      "start": 16.7271,
      "duration": 0.0136,
      "velocity": 127,
      "chip": "ym2612"
    },
    {
      "channel": 2,
      "note": 58,
      "start": 16.7406,
      "duration": 0.0324,
      "velocity": 127,
      "chip": "ym2612"
    },
    {
      "channel": 0,
      "note": 64,
      "start": 16.7726,
      "duration": 0.1024,
      "velocity": 99,
      "chip": "ym2612"
    },
    {
      "channel": 2,
      "note": 67,
      "start": 16.7732,
      "duration": 0.0027,
      "velocity": 127,
      "chip": "ym2612"
    },
    {
      "channel": 3,
      "note": 52,
      "start": 16.7754,
      "duration": 0.1032,
      "velocity": 112,
      "chip": "ym2612"
    },
    {
      "channel": 2,
      "note": 66,
      "start": 16.7759,
      "duration": 0.0106,
      "velocity": 127,
      "chip": "ym2612"
    },
    {
      "channel": 2,
      "note": 65,
      "start": 16.7865,
      "duration": 0.0139,
      "velocity": 127,
      "chip": "ym2612"
    },
    {
      "channel": 2,
      "note": 64,
      "start": 16.8004,
      "duration": 0.0156,
      "velocity": 127,
      "chip": "ym2612"
    },
    {
      "channel": 2,
      "note": 63,
      "start": 16.816,
      "duration": 0.0136,
      "velocity": 127,
      "chip": "ym2612"
    },
    {
      "channel": 2,
      "note": 62,
      "start": 16.8295,
      "duration": 0.0315,
      "velocity": 127,
      "chip": "ym2612"
    },
    {
      "channel": 2,
      "note": 61,
      "start": 16.861,
      "duration": 0.017,
      "velocity": 127,
      "chip": "ym2612"
    },
    {
      "channel": 0,
      "note": 67,
      "start": 16.8751,
      "duration": 0.1066,
      "velocity": 99,
      "chip": "ym2612"
    },
    {
      "channel": 1,
      "note": 69,
      "start": 16.8757,
      "duration": 0.1066,
      "velocity": 99,
      "chip": "ym2612"
    },
    {
      "channel": 2,
      "note": 62,
      "start": 16.8781,
      "duration": 0.0017,
      "velocity": 127,
      "chip": "ym2612"
    },
    {
      "channel": 3,
      "note": 55,
      "start": 16.8787,
      "duration": 0.1043,
      "velocity": 112,
      "chip": "ym2612"
    },
    {
      "channel": 4,
      "note": 77,
      "start": 16.8793,
      "duration": 0.2087,
      "velocity": 117,
      "chip": "ym2612"
    },
    {
      "channel": 2,
      "note": 61,
      "start": 16.8798,
      "duration": 0.0108,
      "velocity": 127,
      "chip": "ym2612"
    },
    {
      "channel": 2,
      "note": 60,
      "start": 16.8906,
      "duration": 0.0138,
      "velocity": 127,
      "chip": "ym2612"
    },
    {
      "channel": 2,
      "note": 58,
      "start": 16.9044,
      "duration": 0.0158,
      "velocity": 127,
      "chip": "ym2612"
    },
    {
      "channel": 2,
      "note": 57,
      "start": 16.9202,
      "duration": 0.0279,
      "velocity": 127,
      "chip": "ym2612"
    },
    {
      "channel": 2,
      "note": 56,
      "start": 16.948,
      "duration": 0.0167,
      "velocity": 127,
      "chip": "ym2612"
    },
    {
      "channel": 2,
      "note": 55,
      "start": 16.9647,
      "duration": 0.0193,
      "velocity": 127,
      "chip": "ym2612"
    },
    {
      "channel": 0,
      "note": 74,
      "start": 16.9819,
      "duration": 0.1021,
      "velocity": 99,
      "chip": "ym2612"
    },
    {
      "channel": 1,
      "note": 64,
      "start": 16.9825,
      "duration": 0.1021,
      "velocity": 99,
      "chip": "ym2612"
    },
    {
      "channel": 3,
      "note": 52,
      "start": 16.9831,
      "duration": 0.1043,
      "velocity": 112,
      "chip": "ym2612"
    },
    {
      "channel": 2,
      "note": 54,
      "start": 16.984,
      "duration": 0.0117,
      "velocity": 127,
      "chip": "ym2612"
    },
    {
      "channel": 2,
      "note": 53,
      "start": 16.9956,
      "duration": 0.0156,
      "velocity": 127,
      "chip": "ym2612"
    },
    {
      "channel": 2,
      "note": 52,
      "start": 17.0112,
      "duration": 0.0272,
      "velocity": 127,
      "chip": "ym2612"
    },
    {
      "channel": 2,
      "note": 51,
      "start": 17.0384,
      "duration": 0.0157,
      "velocity": 127,
      "chip": "ym2612"
    },
    {
      "channel": 2,
      "note": 50,
      "start": 17.0541,
      "duration": 0.0157,
      "velocity": 127,
      "chip": "ym2612"
    },
    {
      "channel": 2,
      "note": 49,
      "start": 17.0698,
      "duration": 0.017,
      "velocity": 87,
      "chip": "ym2612"
    },
    {
      "channel": 0,
      "note": 69,
      "start": 17.0842,
      "duration": 0.0994,
      "velocity": 99,
      "chip": "ym2612"
    },
    {
      "channel": 1,
      "note": 67,
      "start": 17.0847,
      "duration": 0.0995,
      "velocity": 99,
      "chip": "ym2612"
    },
    {
      "channel": 2,
      "note": 45,
      "start": 17.0869,
      "duration": 0.8581,
      "velocity": 87,
      "chip": "ym2612"
    },
    {
      "channel": 3,
      "note": 57,
      "start": 17.0875,
      "duration": 0.2197,
      "velocity": 109,
      "chip": "ym2612"
    },
    {
      "channel": 4,
      "note": 79,
      "start": 17.0881,
      "duration": 0.3273,
      "velocity": 117,
      "chip": "ym2612"
    },
    {
      "channel": 0,
      "note": 64,
      "start": 17.1838,
      "duration": 0.1207,
      "velocity": 99,
      "chip": "ym2612"
    },
    {
      "channel": 1,
      "note": 74,
      "start": 17.1844,
      "duration": 0.1207,
      "velocity": 99,
      "chip": "ym2612"
    },
    {
      "channel": 0,
      "note": 67,
      "start": 17.3046,
      "duration": 0.1055,
      "velocity": 99,
      "chip": "ym2612"
    },
    {
      "channel": 1,
      "note": 69,
      "start": 17.3052,
      "duration": 0.1055,
      "velocity": 99,
      "chip": "ym2612"
    },
    {
      "channel": 3,
      "note": 57,
      "start": 17.3075,
      "duration": 0.1073,
      "velocity": 112,
      "chip": "ym2612"
    },
    {
      "channel": 0,
      "note": 74,
      "start": 17.4103,
      "duration": 0.3118,
      "velocity": 99,
      "chip": "ym2612"
    },
    {
      "channel": 1,
      "note": 64,
      "start": 17.4108,
      "duration": 0.1057,
      "velocity": 99,
      "chip": "ym2612"
    },
    {
      "channel": 3,
      "note": 55,
      "start": 17.4149,
      "duration": 0.2035,
      "velocity": 109,
      "chip": "ym2612"
    },
    {
      "channel": 4,
      "note": 84,
      "start": 17.4155,
      "duration": 0.3095,
      "velocity": 117,
      "chip": "ym2612"
    },
    {
      "channel": 1,
      "note": 67,
      "start": 17.5167,
      "duration": 0.0995,
      "velocity": 99,
      "chip": "ym2612"
    },
    {
      "channel": 1,
      "note": 74,
      "start": 17.6164,
      "duration": 0.3262,
      "velocity": 99,
      "chip": "ym2612"
    },
    {
      "channel": 3,
      "note": 55,
      "start": 17.6185,
      "duration": 0.1059,
      "velocity": 112,
      "chip": "ym2612"
    },
    {
      "channel": 0,
      "note": 69,
      "start": 17.7223,
      "duration": 0.1196,
      "velocity": 99,
      "chip": "ym2612"
    },
    {
      "channel": 3,
      "note": 57,
      "start": 17.7246,
      "duration": 0.2225,
      "velocity": 109,
      "chip": "ym2612"
    },
    {
      "channel": 4,
      "note": 77,
      "start": 17.7252,
      "duration": 0.3188,
      "velocity": 117,
      "chip": "ym2612"
    },
    {
      "channel": 0,
      "note": 64,
      "start": 17.8421,
      "duration": 0.0999,
      "velocity": 99,
      "chip": "ym2612"
    },
    {
      "channel": 0,
      "note": 67,
      "start": 17.9422,
      "duration": 0.1006,
      "velocity": 99,
      "chip": "ym2612"
    },
    {
      "channel": 1,
      "note": 69,
      "start": 17.9428,
      "duration": 0.1006,
      "velocity": 99,
      "chip": "ym2612"
    },
    {
      "channel": 2,
      "note": 40,
      "start": 17.9452,
      "duration": 0.83,
      "velocity": 87,
      "chip": "ym2612"
    },
    {
      "channel": 3,
      "note": 57,
      "start": 17.9473,
      "duration": 0.519,
      "velocity": 112,
      "chip": "ym2612"
    },
    {
      "channel": 0,
      "note": 74,
      "start": 18.0429,
      "duration": 0.3155,
      "velocity": 99,
      "chip": "ym2612"
    },
    {
      "channel": 1,
      "note": 64,
      "start": 18.0435,
      "duration": 0.1052,
      "velocity": 99,
      "chip": "ym2612"
    },
    {
      "channel": 4,
      "note": 79,
      "start": 18.0442,
      "duration": 0.3149,
      "velocity": 117,
      "chip": "ym2612"
    },
    {
      "channel": 1,
      "note": 67,
      "start": 18.1489,
      "duration": 0.0977,
      "velocity": 99,
      "chip": "ym2612"
    },
    {
      "channel": 1,
      "note": 74,
      "start": 18.2468,
      "duration": 0.3197,
      "velocity": 99,
      "chip": "ym2612"
    },
    {
      "channel": 0,
      "note": 69,
      "start": 18.3585,
      "duration": 0.1038,
      "velocity": 99,
      "chip": "ym2612"
    },
    {
      "channel": 4,
      "note": 84,
      "start": 18.3593,
      "duration": 0.2085,
      "velocity": 117,
      "chip": "ym2612"
    },
    {
      "channel": 0,
      "note": 64,
      "start": 18.4624,
      "duration": 0.1035,
      "velocity": 99,
      "chip": "ym2612"
    },
    {
      "channel": 3,
      "note": 52,
      "start": 18.4664,
      "duration": 0.1007,
      "velocity": 112,
      "chip": "ym2612"
    },
    {
      "channel": 0,
      "note": 67,
      "start": 18.5661,
      "duration": 0.1063,
      "velocity": 99,
      "chip": "ym2612"
    },
    {
      "channel": 1,
      "note": 69,
      "start": 18.5667,
      "duration": 0.1063,
      "velocity": 99,
      "chip": "ym2612"
    },
    {
      "channel": 3,
      "note": 55,
      "start": 18.5673,
      "duration": 0.1063,
      "velocity": 112,
      "chip": "ym2612"
    },
    {
      "channel": 4,
      "note": 77,
      "start": 18.5679,
      "duration": 0.2086,
      "velocity": 117,
      "chip": "ym2612"
    },
    {
      "channel": 0,
      "note": 74,
      "start": 18.6726,
      "duration": 0.1015,
      "velocity": 97,
      "chip": "ym2612"
    },
    {
      "channel": 1,
      "note": 64,
      "start": 18.6731,
      "duration": 0.1015,
      "velocity": 99,
      "chip": "ym2612"
    },
    {
      "channel": 3,
      "note": 52,
      "start": 18.6738,
      "duration": 0.1021,
      "velocity": 112,
      "chip": "ym2612"
    },
    {
      "channel": 0,
      "note": 62,
      "start": 18.7743,
      "duration": 0.2256,
      "velocity": 97,
      "chip": "ym2612"
    },
    {
      "channel": 1,
      "note": 67,
      "start": 18.7749,
      "duration": 0.1139,
      "velocity": 99,
      "chip": "ym2612"
    },
    {
      "channel": 2,
      "note": 41,
      "start": 18.7754,
      "duration": 3.3819,
      "velocity": 112,
      "chip": "ym2612"
    },
    {
      "channel": 3,
      "note": 53,
      "start": 18.7761,
      "duration": 0.2278,
      "velocity": 109,
      "chip": "ym2612"
    },
    {
      "channel": 4,
      "note": 79,
      "start": 18.7766,
      "duration": 0.3339,
      "velocity": 117,
      "chip": "ym2612"
    },
    {
      "channel": 1,
      "note": 74,
      "start": 18.889,
      "duration": 0.4291,
      "velocity": 97,
      "chip": "ym2612"
    },
    {
      "channel": 0,
      "note": 62,
      "start": 19.0,
      "duration": 0.1077,
      "velocity": 97,
      "chip": "ym2612"
    },
    {
      "channel": 3,
      "note": 53,
      "start": 19.004,
      "duration": 0.1059,
      "velocity": 112,
      "chip": "ym2612"
    },
    {
      "channel": 0,
      "note": 62,
      "start": 19.1078,
      "duration": 0.2081,
      "velocity": 97,
      "chip": "ym2612"
    },
    {
      "channel": 3,
      "note": 51,
      "start": 19.1101,
      "duration": 0.2102,
      "velocity": 109,
      "chip": "ym2612"
    },
    {
      "channel": 4,
      "note": 84,
      "start": 19.1107,
      "duration": 0.3237,
      "velocity": 117,
      "chip": "ym2612"
    },
    {
      "channel": 0,
      "note": 62,
      "start": 19.3161,
      "duration": 0.2224,
      "velocity": 97,
      "chip": "ym2612"
    },
    {
      "channel": 1,
      "note": 57,
      "start": 19.3183,
      "duration": 0.2208,
      "velocity": 97,
      "chip": "ym2612"
    },
    {
      "channel": 3,
      "note": 51,
      "start": 19.3204,
      "duration": 0.1134,
      "velocity": 112,
      "chip": "ym2612"
    },
    {
      "channel": 3,
      "note": 53,
      "start": 19.434,
      "duration": 0.2085,
      "velocity": 109,
      "chip": "ym2612"
    },
    {
      "channel": 4,
      "note": 77,
      "start": 19.4346,
      "duration": 0.3085,
      "velocity": 117,
      "chip": "ym2612"
    },
    {
      "channel": 0,
      "note": 60,
      "start": 19.5387,
      "duration": 0.3025,
      "velocity": 97,
      "chip": "ym2612"
    },
    {
      "channel": 1,
      "note": 55,
      "start": 19.5393,
      "duration": 0.3024,
      "velocity": 97,
      "chip": "ym2612"
    },
    {
      "channel": 3,
      "note": 53,
      "start": 19.6427,
      "duration": 0.5319,
      "velocity": 112,
      "chip": "ym2612"
    },
    {
      "channel": 4,
      "note": 79,
      "start": 19.7433,
      "duration": 0.3262,
      "velocity": 117,
      "chip": "ym2612"
    },
    {
      "channel": 0,
      "note": 57,
      "start": 19.8413,
      "duration": 0.1153,
      "velocity": 97,
      "chip": "ym2612"
    },
    {
      "channel": 1,
      "note": 52,
      "start": 19.8419,
      "duration": 0.1153,
      "velocity": 97,
      "chip": "ym2612"
    },
    {
      "channel": 0,
      "note": 52,
      "start": 19.9568,
      "duration": 0.1098,
      "velocity": 97,
      "chip": "ym2612"
    },
    {
      "channel": 1,
      "note": 48,
      "start": 19.9574,
      "duration": 0.1097,
      "velocity": 97,
      "chip": "ym2612"
    },
    {
      "channel": 0,
      "note": 55,
      "start": 20.0667,
      "duration": 0.1036,
      "velocity": 97,
      "chip": "ym2612"
    },
    {
      "channel": 1,
      "note": 50,
      "start": 20.0672,
      "duration": 0.1053,
      "velocity": 97,
      "chip": "ym2612"
    },
    {
      "channel": 4,
      "note": 84,
      "start": 20.0696,
      "duration": 0.2019,
      "velocity": 117,
      "chip": "ym2612"
    },
    {
      "channel": 0,
      "note": 57,
      "start": 20.1705,
      "duration": 0.2051,
      "velocity": 97,
      "chip": "ym2612"
    },
    {
      "channel": 1,
      "note": 50,
      "start": 20.1726,
      "duration": 0.2033,
      "velocity": 97,
      "chip": "ym2612"
    },
    {
      "channel": 3,
      "note": 48,
      "start": 20.1749,
      "duration": 0.0961,
      "velocity": 112,
      "chip": "ym2612"
    },
    {
      "channel": 3,
      "note": 51,
      "start": 20.2712,
      "duration": 0.1035,
      "velocity": 112,
      "chip": "ym2612"
    },
    {
      "channel": 4,
      "note": 77,
      "start": 20.2717,
      "duration": 0.2133,
      "velocity": 117,
      "chip": "ym2612"
    },
    {
      "channel": 3,
      "note": 48,
      "start": 20.3749,
      "duration": 0.1096,
      "velocity": 112,
      "chip": "ym2612"
    },
    {
      "channel": 0,
      "note": 56,
      "start": 20.3756,
      "duration": 0.026,
      "velocity": 97,
      "chip": "ym2612"
    },
    {
      "channel": 1,
      "note": 49,
      "start": 20.3759,
      "duration": 0.026,
      "velocity": 97,
      "chip": "ym2612"
    },
    {
      "channel": 0,
      "note": 55,
      "start": 20.4016,
      "duration": 0.0138,
      "velocity": 97,
      "chip": "ym2612"
    },
    {
      "channel": 1,
      "note": 48,
      "start": 20.4019,
      "duration": 0.0137,
      "velocity": 97,
      "chip": "ym2612"
    },
    {
      "channel": 0,
      "note": 54,
      "start": 20.4154,
      "duration": 0.0139,
      "velocity": 97,
      "chip": "ym2612"
    },
    {
      "channel": 1,
      "note": 46,
      "start": 20.4156,
      "duration": 0.0139,
      "velocity": 97,
      "chip": "ym2612"
    },
    {
      "channel": 0,
      "note": 53,
      "start": 20.4293,
      "duration": 0.0136,
      "velocity": 97,
      "chip": "ym2612"
    },
    {
      "channel": 1,
      "note": 45,
      "start": 20.4296,
      "duration": 0.0136,
      "velocity": 97,
      "chip": "ym2612"
    },
    {
      "channel": 0,
      "note": 52,
      "start": 20.4429,
      "duration": 0.0136,
      "velocity": 97,
      "chip": "ym2612"
    },
    {
      "channel": 1,
      "note": 44,
      "start": 20.4431,
      "duration": 0.0136,
      "velocity": 97,
      "chip": "ym2612"
    },
    {
      "channel": 0,
      "note": 51,
      "start": 20.4565,
      "duration": 0.0295,
      "velocity": 97,
      "chip": "ym2612"
    },
    {
      "channel": 1,
      "note": 43,
      "start": 20.4568,
      "duration": 0.0295,
      "velocity": 97,
      "chip": "ym2612"
    },
    {
      "channel": 3,
      "note": 53,
      "start": 20.4847,
      "duration": 0.2084,
      "velocity": 109,
      "chip": "ym2612"
    },
    {
      "channel": 4,
      "note": 79,
      "start": 20.4853,
      "duration": 0.3102,
      "velocity": 117,
      "chip": "ym2612"
    },
    {
      "channel": 0,
      "note": 50,
      "start": 20.486,
      "duration": 0.0137,
      "velocity": 97,
      "chip": "ym2612"
    },
    {
      "channel": 1,
      "note": 42,
      "start": 20.4862,
      "duration": 0.0138,
      "velocity": 97,
      "chip": "ym2612"
    },
    {
      "channel": 0,
      "note": 49,
      "start": 20.4997,
      "duration": 0.0138,
      "velocity": 97,
      "chip": "ym2612"
    },
    {
      "channel": 1,
      "note": 41,
      "start": 20.5,
      "duration": 0.0137,
      "velocity": 97,
      "chip": "ym2612"
    },
    {
      "channel": 0,
      "note": 48,
      "start": 20.5134,
      "duration": 0.0138,
      "velocity": 97,
      "chip": "ym2612"
    },
    {
      "channel": 1,
      "note": 40,
      "start": 20.5137,
      "duration": 0.0138,
      "velocity": 97,
      "chip": "ym2612"
    },
    {
      "channel": 0,
      "note": 46,
      "start": 20.5272,
      "duration": 0.0138,
      "velocity": 97,
      "chip": "ym2612"
    },
    {
      "channel": 1,
      "note": 39,
      "start": 20.5275,
      "duration": 0.0139,
      "velocity": 97,
      "chip": "ym2612"
    },
    {
      "channel": 0,
      "note": 45,
      "start": 20.541,
      "duration": 0.0274,
      "velocity": 97,
      "chip": "ym2612"
    },
    {
      "channel": 1,
      "note": 38,
      "start": 20.5414,
      "duration": 0.0274,
      "velocity": 97,
      "chip": "ym2612"
    },
    {
      "channel": 0,
      "note": 44,
      "start": 20.5685,
      "duration": 0.0165,
      "velocity": 97,
      "chip": "ym2612"
    },
    {
      "channel": 1,
      "note": 37,
      "start": 20.5687,
      "duration": 0.0165,
      "velocity": 97,
      "chip": "ym2612"
    },
    {
      "channel": 0,
      "note": 43,
      "start": 20.585,
      "duration": 0.0134,
      "velocity": 97,
      "chip": "ym2612"
    },
    {
      "channel": 1,
      "note": 36,
      "start": 20.5852,
      "duration": 0.0134,
      "velocity": 97,
      "chip": "ym2612"
    },
    {
      "channel": 0,
      "note": 42,
      "start": 20.5983,
      "duration": 0.0136,
      "velocity": 97,
      "chip": "ym2612"
    },
    {
      "channel": 1,
      "note": 34,
      "start": 20.5987,
      "duration": 0.0136,
      "velocity": 97,
      "chip": "ym2612"
    },
    {
      "channel": 0,
      "note": 41,
      "start": 20.612,
      "duration": 0.0136,
      "velocity": 97,
      "chip": "ym2612"
    },
    {
      "channel": 1,
      "note": 33,
      "start": 20.6123,
      "duration": 0.0136,
      "velocity": 97,
      "chip": "ym2612"
    },
    {
      "channel": 0,
      "note": 40,
      "start": 20.6256,
      "duration": 0.032,
      "velocity": 97,
      "chip": "ym2612"
    },
    {
      "channel": 1,
      "note": 32,
      "start": 20.6259,
      "duration": 0.032,
      "velocity": 97,
      "chip": "ym2612"
    },
    {
      "channel": 0,
      "note": 39,
      "start": 20.6576,
      "duration": 0.0167,
      "velocity": 97,
      "chip": "ym2612"
    },
    {
      "channel": 1,
      "note": 31,
      "start": 20.6579,
      "duration": 0.0167,
      "velocity": 97,
      "chip": "ym2612"
    },
    {
      "channel": 0,
      "note": 38,
      "start": 20.6743,
      "duration": 0.0197,
      "velocity": 97,
      "chip": "ym2612"
    },
    {
      "channel": 1,
      "note": 30,
      "start": 20.6746,
      "duration": 0.0197,
      "velocity": 97,
      "chip": "ym2612"
    },
    {
      "channel": 3,
      "note": 53,
      "start": 20.6933,
      "duration": 0.1016,
      "velocity": 112,
      "chip": "ym2612"
    },
    {
      "channel": 0,
      "note": 37,
      "start": 20.694,
      "duration": 0.0128,
      "velocity": 97,
      "chip": "ym2612"
    },
    {
      "channel": 1,
      "note": 29,
      "start": 20.6943,
      "duration": 0.0129,
      "velocity": 97,
      "chip": "ym2612"
    },
    {
      "channel": 0,
      "note": 36,
      "start": 20.7068,
      "duration": 0.0136,
      "velocity": 97,
      "chip": "ym2612"
    },
    {
      "channel": 1,
      "note": 28,
      "start": 20.7072,
      "duration": 0.0136,
      "velocity": 97,
      "chip": "ym2612"
    },
    {
      "channel": 0,
      "note": 34,
      "start": 20.7205,
      "duration": 0.0272,
      "velocity": 97,
      "chip": "ym2612"
    },
    {
      "channel": 1,
      "note": 27,
      "start": 20.7208,
      "duration": 0.0272,
      "velocity": 97,
      "chip": "ym2612"
    },
    {
      "channel": 0,
      "note": 33,
      "start": 20.7476,
      "duration": 0.0136,
      "velocity": 97,
      "chip": "ym2612"
    },
    {
      "channel": 1,
      "note": 26,
      "start": 20.748,
      "duration": 0.0136,
      "velocity": 97,
      "chip": "ym2612"
    },
    {
      "channel": 0,
      "note": 32,
      "start": 20.7613,
      "duration": 0.0158,
      "velocity": 97,
      "chip": "ym2612"
    },
    {
      "channel": 1,
      "note": 25,
      "start": 20.7616,
      "duration": 0.0158,
      "velocity": 97,
      "chip": "ym2612"
    },
    {
      "channel": 0,
      "note": 31,
      "start": 20.7771,
      "duration": 0.019,
      "velocity": 97,
      "chip": "ym2612"
    },
    {
      "channel": 1,
      "note": 24,
      "start": 20.7774,
      "duration": 0.0189,
      "velocity": 97,
      "chip": "ym2612"
    },
    {
      "channel": 3,
      "note": 51,
      "start": 20.7951,
      "duration": 0.2144,
      "velocity": 109,
      "chip": "ym2612"
    },
    {
      "channel": 4,
      "note": 84,
      "start": 20.7956,
      "duration": 0.3181,
      "velocity": 117,
      "chip": "ym2612"
    },
    {
      "channel": 0,
      "note": 30,
      "start": 20.796,
      "duration": 0.011,
      "velocity": 97,
      "chip": "ym2612"
    },
    {
      "channel": 1,
      "note": 22,
      "start": 20.7963,
      "duration": 0.011,
      "velocity": 97,
      "chip": "ym2612"
    },
    {
      "channel": 0,
      "note": 29,
      "start": 20.807,
      "duration": 0.0274,
      "velocity": 97,
      "chip": "ym2612"
    },
    {
      "channel": 1,
      "note": 21,
      "start": 20.8073,
      "duration": 0.0274,
      "velocity": 97,
      "chip": "ym2612"
    },
    {
      "channel": 0,
      "note": 28,
      "start": 20.8344,
      "duration": 0.0139,
      "velocity": 97,
      "chip": "ym2612"
    },
    {
      "channel": 1,
      "note": 116,
      "start": 20.8347,
      "duration": 0.0139,
      "velocity": 97,
      "chip": "ym2612"
    },
    {
      "channel": 0,
      "note": 27,
      "start": 20.8483,
      "duration": 0.0161,
      "velocity": 97,
      "chip": "ym2612"
    },
    {
      "channel": 1,
      "note": 115,
      "start": 20.8486,
      "duration": 0.0161,
      "velocity": 97,
      "chip": "ym2612"
    },
    {
      "channel": 0,
      "note": 26,
      "start": 20.8644,
      "duration": 0.0167,
      "velocity": 97,
      "chip": "ym2612"
    },
    {
      "channel": 1,
      "note": 114,
      "start": 20.8647,
      "duration": 0.0167,
      "velocity": 97,
      "chip": "ym2612"
    },
    {
      "channel": 0,
      "note": 25,
      "start": 20.881,
      "duration": 0.0176,
      "velocity": 97,
      "chip": "ym2612"
    },
    {
      "channel": 1,
      "note": 113,
      "start": 20.8814,
      "duration": 0.0176,
      "velocity": 97,
      "chip": "ym2612"
    },
    {
      "channel": 0,
      "note": 24,
      "start": 20.8987,
      "duration": 0.0266,
      "velocity": 97,
      "chip": "ym2612"
    },
    {
      "channel": 1,
      "note": 112,
      "start": 20.899,
      "duration": 0.0266,
      "velocity": 97,
      "chip": "ym2612"
    },
    {
      "channel": 0,
      "note": 22,
      "start": 20.9253,
      "duration": 0.0138,
      "velocity": 97,
      "chip": "ym2612"
    },
    {
      "channel": 1,
      "note": 111,
      "start": 20.9256,
      "duration": 0.0137,
      "velocity": 97,
      "chip": "ym2612"
    },
    {
      "channel": 0,
      "note": 21,
      "start": 20.939,
      "duration": 0.0139,
      "velocity": 97,
      "chip": "ym2612"
    },
    {
      "channel": 1,
      "note": 110,
      "start": 20.9393,
      "duration": 0.0139,
      "velocity": 97,
      "chip": "ym2612"
    },
    {
      "channel": 0,
      "note": 116,
      "start": 20.9529,
      "duration": 0.0136,
      "velocity": 97,
      "chip": "ym2612"
    },
    {
      "channel": 1,
      "note": 109,
      "start": 20.9532,
      "duration": 0.0136,
      "velocity": 97,
      "chip": "ym2612"
    },
    {
      "channel": 0,
      "note": 115,
      "start": 20.9666,
      "duration": 0.0136,
      "velocity": 97,
      "chip": "ym2612"
    },
    {
      "channel": 1,
      "note": 108,
      "start": 20.9669,
      "duration": 0.0136,
      "velocity": 97,
      "chip": "ym2612"
    },
    {
      "channel": 0,
      "note": 114,
      "start": 20.9802,
      "duration": 0.03,
      "velocity": 97,
      "chip": "ym2612"
    },
    {
      "channel": 1,
      "note": 106,
      "start": 20.9804,
      "duration": 0.03,
      "velocity": 97,
      "chip": "ym2612"
    },
    {
      "channel": 3,
      "note": 51,
      "start": 21.0097,
      "duration": 0.1035,
      "velocity": 112,
      "chip": "ym2612"
    },
    {
      "channel": 0,
      "note": 113,
      "start": 21.0101,
      "duration": 0.0114,
      "velocity": 97,
      "chip": "ym2612"
    },
    {
      "channel": 1,
      "note": 105,
      "start": 21.0104,
      "duration": 0.0115,
      "velocity": 97,
      "chip": "ym2612"
    },
    {
      "channel": 0,
      "note": 112,
      "start": 21.0215,
      "duration": 0.0156,
      "velocity": 97,
      "chip": "ym2612"
    },
    {
      "channel": 1,
      "note": 104,
      "start": 21.0219,
      "duration": 0.0156,
      "velocity": 97,
      "chip": "ym2612"
    },
    {
      "channel": 0,
      "note": 111,
      "start": 21.0372,
      "duration": 0.0158,
      "velocity": 97,
      "chip": "ym2612"
    },
    {
      "channel": 1,
      "note": 103,
      "start": 21.0374,
      "duration": 0.0158,
      "velocity": 97,
      "chip": "ym2612"
    },
    {
      "channel": 0,
      "note": 110,
      "start": 21.053,
      "duration": 0.0158,
      "velocity": 97,
      "chip": "ym2612"
    },
    {
      "channel": 1,
      "note": 102,
      "start": 21.0532,
      "duration": 0.0158,
      "velocity": 97,
      "chip": "ym2612"
    },
    {
      "channel": 0,
      "note": 109,
      "start": 21.0688,
      "duration": 0.0272,
      "velocity": 97,
      "chip": "ym2612"
    },
    {
      "channel": 1,
      "note": 101,
      "start": 21.069,
      "duration": 0.0272,
      "velocity": 97,
      "chip": "ym2612"
    },
    {
      "channel": 0,
      "note": 108,
      "start": 21.096,
      "duration": 0.0183,
      "velocity": 97,
      "chip": "ym2612"
    },
    {
      "channel": 1,
      "note": 100,
      "start": 21.0963,
      "duration": 0.0184,
      "velocity": 97,
      "chip": "ym2612"
    },
    {
      "channel": 3,
      "note": 53,
      "start": 21.1134,
      "duration": 0.2092,
      "velocity": 109,
      "chip": "ym2612"
    },
    {
      "channel": 4,
      "note": 77,
      "start": 21.114,
      "duration": 0.3059,
      "velocity": 117,
      "chip": "ym2612"
    },
    {
      "channel": 0,
      "note": 107,
      "start": 21.1144,
      "duration": 0.0099,
      "velocity": 97,
      "chip": "ym2612"
    },
    {
      "channel": 1,
      "note": 99,
      "start": 21.1147,
      "duration": 0.0098,
      "velocity": 97,
      "chip": "ym2612"
    },
    {
      "channel": 0,
      "note": 105,
      "start": 21.1242,
      "duration": 0.0136,
      "velocity": 97,
      "chip": "ym2612"
    },
    {
      "channel": 1,
      "note": 98,
      "start": 21.1245,
      "duration": 0.0136,
      "velocity": 97,
      "chip": "ym2612"
    },
    {
      "channel": 0,
      "note": 104,
      "start": 21.1378,
      "duration": 0.0158,
      "velocity": 97,
      "chip": "ym2612"
    },
    {
      "channel": 1,
      "note": 97,
      "start": 21.1381,
      "duration": 0.0158,
      "velocity": 97,
      "chip": "ym2612"
    },
    {
      "channel": 0,
      "note": 103,
      "start": 21.1536,
      "duration": 0.0316,
      "velocity": 97,
      "chip": "ym2612"
    },
    {
      "channel": 1,
      "note": 96,
      "start": 21.1539,
      "duration": 0.0316,
      "velocity": 97,
      "chip": "ym2612"
    },
    {
      "channel": 0,
      "note": 102,
      "start": 21.1852,
      "duration": 0.0167,
      "velocity": 97,
      "chip": "ym2612"
    },
    {
      "channel": 1,
      "note": 94,
      "start": 21.1855,
      "duration": 0.0167,
      "velocity": 97,
      "chip": "ym2612"
    },
    {
      "channel": 0,
      "note": 101,
      "start": 21.2019,
      "duration": 0.0176,
      "velocity": 97,
      "chip": "ym2612"
    },
    {
      "channel": 1,
      "note": 93,
      "start": 21.2022,
      "duration": 0.0176,
      "velocity": 97,
      "chip": "ym2612"
    },
    {
      "channel": 0,
      "note": 100,
      "start": 21.2195,
      "duration": 0.0129,
      "velocity": 97,
      "chip": "ym2612"
    },
    {
      "channel": 1,
      "note": 92,
      "start": 21.2198,
      "duration": 0.0129,
      "velocity": 97,
      "chip": "ym2612"
    },
    {
      "channel": 0,
      "note": 99,
      "start": 21.2324,
      "duration": 0.0136,
      "velocity": 97,
      "chip": "ym2612"
    },
    {
      "channel": 1,
      "note": 91,
      "start": 21.2328,
      "duration": 0.0136,
      "velocity": 97,
      "chip": "ym2612"
    },
    {
      "channel": 0,
      "note": 98,
      "start": 21.2461,
      "duration": 0.0272,
      "velocity": 97,
      "chip": "ym2612"
    },
    {
      "channel": 1,
      "note": 90,
      "start": 21.2464,
      "duration": 0.0272,
      "velocity": 97,
      "chip": "ym2612"
    },
    {
      "channel": 0,
      "note": 97,
      "start": 21.2732,
      "duration": 0.0136,
      "velocity": 97,
      "chip": "ym2612"
    },
    {
      "channel": 1,
      "note": 89,
      "start": 21.2736,
      "duration": 0.0136,
      "velocity": 97,
      "chip": "ym2612"
    },
    {
      "channel": 0,
      "note": 96,
      "start": 21.2869,
      "duration": 0.0158,
      "velocity": 97,
      "chip": "ym2612"
    },
    {
      "channel": 1,
      "note": 88,
      "start": 21.2872,
      "duration": 0.0157,
      "velocity": 97,
      "chip": "ym2612"
    },
    {
      "channel": 0,
      "note": 95,
      "start": 21.3026,
      "duration": 0.0177,
      "velocity": 127,
      "chip": "ym2612"
    },
    {
      "channel": 1,
      "note": 87,
      "start": 21.3029,
      "duration": 0.0206,
      "velocity": 97,
      "chip": "ym2612"
    },
    {
      "channel": 0,
      "note": 74,
      "start": 21.3205,
      "duration": 0.0027,
      "velocity": 127,
      "chip": "ym2612"
    },
    {
      "channel": 3,
      "note": 53,
      "start": 21.3228,
      "duration": 0.5173,
      "velocity": 112,
      "chip": "ym2612"
    },
    {
      "channel": 0,
      "note": 73,
      "start": 21.3232,
      "duration": 0.0096,
      "velocity": 127,
      "chip": "ym2612"
    },
    {
      "channel": 1,
      "note": 86,
      "start": 21.3235,
      "duration": 0.0097,
      "velocity": 97,
      "chip": "ym2612"
    },
    {
      "channel": 0,
      "note": 72,
      "start": 21.3329,
      "duration": 0.0272,
      "velocity": 127,
      "chip": "ym2612"
    },
    {
      "channel": 1,
      "note": 85,
      "start": 21.3332,
      "duration": 0.0272,
      "velocity": 97,
      "chip": "ym2612"
    },
    {
      "channel": 0,
      "note": 70,
      "start": 21.36,
      "duration": 0.0136,
      "velocity": 127,
      "chip": "ym2612"
    },
    {
      "channel": 1,
      "note": 84,
      "start": 21.3604,
      "duration": 0.0136,
      "velocity": 97,
      "chip": "ym2612"
    },
    {
      "channel": 0,
      "note": 69,
      "start": 21.3737,
      "duration": 0.0158,
      "velocity": 127,
      "chip": "ym2612"
    },
    {
      "channel": 1,
      "note": 82,
      "start": 21.374,
      "duration": 0.0157,
      "velocity": 97,
      "chip": "ym2612"
    },
    {
      "channel": 0,
      "note": 68,
      "start": 21.3894,
      "duration": 0.0136,
      "velocity": 127,
      "chip": "ym2612"
    },
    {
      "channel": 1,
      "note": 81,
      "start": 21.3897,
      "duration": 0.0136,
      "velocity": 97,
      "chip": "ym2612"
    },
    {
      "channel": 0,
      "note": 67,
      "start": 21.4031,
      "duration": 0.016,
      "velocity": 127,
      "chip": "ym2612"
    },
    {
      "channel": 1,
      "note": 80,
      "start": 21.4033,
      "duration": 0.0177,
      "velocity": 97,
      "chip": "ym2612"
    },
    {
      "channel": 0,
      "note": 74,
      "start": 21.4193,
      "duration": 0.0015,
      "velocity": 127,
      "chip": "ym2612"
    },
    {
      "channel": 4,
      "note": 79,
      "start": 21.42,
      "duration": 0.3216,
      "velocity": 117,
      "chip": "ym2612"
    },
    {
      "channel": 0,
      "note": 73,
      "start": 21.4207,
      "duration": 0.0296,
      "velocity": 127,
      "chip": "ym2612"
    },
    {
      "channel": 1,
      "note": 79,
      "start": 21.421,
      "duration": 0.0296,
      "velocity": 97,
      "chip": "ym2612"
    },
    {
      "channel": 0,
      "note": 72,
      "start": 21.4504,
      "duration": 0.0139,
      "velocity": 127,
      "chip": "ym2612"
    },
    {
      "channel": 1,
      "note": 78,
      "start": 21.4506,
      "duration": 0.0139,
      "velocity": 97,
      "chip": "ym2612"
    },
    {
      "channel": 0,
      "note": 70,
      "start": 21.4642,
      "duration": 0.0139,
      "velocity": 127,
      "chip": "ym2612"
    },
    {
      "channel": 1,
      "note": 77,
      "start": 21.4645,
      "duration": 0.014,
      "velocity": 97,
      "chip": "ym2612"
    },
    {
      "channel": 0,
      "note": 69,
      "start": 21.4781,
      "duration": 0.0137,
      "velocity": 127,
      "chip": "ym2612"
    },
    {
      "channel": 1,
      "note": 76,
      "start": 21.4785,
      "duration": 0.0137,
      "velocity": 97,
      "chip": "ym2612"
    },
    {
      "channel": 0,
      "note": 68,
      "start": 21.4918,
      "duration": 0.0136,
      "velocity": 127,
      "chip": "ym2612"
    },
    {
      "channel": 1,
      "note": 75,
      "start": 21.4922,
      "duration": 0.0136,
      "velocity": 97,
      "chip": "ym2612"
    },
    {
      "channel": 0,
      "note": 67,
      "start": 21.5055,
      "duration": 0.0277,
      "velocity": 127,
      "chip": "ym2612"
    },
    {
      "channel": 1,
      "note": 74,
      "start": 21.5058,
      "duration": 0.0288,
      "velocity": 97,
      "chip": "ym2612"
    },
    {
      "channel": 0,
      "note": 67,
      "start": 21.5333,
      "duration": 0.0009,
      "velocity": 127,
      "chip": "ym2612"
    },
    {
      "channel": 0,
      "note": 66,
      "start": 21.5342,
      "duration": 0.0126,
      "velocity": 127,
      "chip": "ym2612"
    },
    {
      "channel": 1,
      "note": 73,
      "start": 21.5345,
      "duration": 0.0125,
      "velocity": 97,
      "chip": "ym2612"
    },
    {
      "channel": 0,
      "note": 65,
      "start": 21.5468,
      "duration": 0.0139,
      "velocity": 127,
      "chip": "ym2612"
    },
    {
      "channel": 1,
      "note": 72,
      "start": 21.5471,
      "duration": 0.0139,
      "velocity": 97,
      "chip": "ym2612"
    },
    {
      "channel": 0,
      "note": 64,
      "start": 21.5607,
      "duration": 0.0136,
      "velocity": 127,
      "chip": "ym2612"
    },
    {
      "channel": 1,
      "note": 70,
      "start": 21.561,
      "duration": 0.0136,
      "velocity": 97,
      "chip": "ym2612"
    },
    {
      "channel": 0,
      "note": 63,
      "start": 21.5743,
      "duration": 0.0136,
      "velocity": 127,
      "chip": "ym2612"
    },
    {
      "channel": 1,
      "note": 69,
      "start": 21.5746,
      "duration": 0.0136,
      "velocity": 97,
      "chip": "ym2612"
    },
    {
      "channel": 0,
      "note": 62,
      "start": 21.5879,
      "duration": 0.0313,
      "velocity": 127,
      "chip": "ym2612"
    },
    {
      "channel": 1,
      "note": 68,
      "start": 21.5882,
      "duration": 0.0314,
      "velocity": 97,
      "chip": "ym2612"
    },
    {
      "channel": 0,
      "note": 61,
      "start": 21.6192,
      "duration": 0.014,
      "velocity": 127,
      "chip": "ym2612"
    },
    {
      "channel": 1,
      "note": 67,
      "start": 21.6195,
      "duration": 0.0162,
      "velocity": 97,
      "chip": "ym2612"
    },
    {
      "channel": 0,
      "note": 74,
      "start": 21.6334,
      "duration": 0.0006,
      "velocity": 127,
      "chip": "ym2612"
    },
    {
      "channel": 0,
      "note": 73,
      "start": 21.634,
      "duration": 0.0147,
      "velocity": 127,
      "chip": "ym2612"
    },
    {
      "channel": 1,
      "note": 66,
      "start": 21.6357,
      "duration": 0.0133,
      "velocity": 97,
      "chip": "ym2612"
    },
    {
      "channel": 0,
      "note": 72,
      "start": 21.6487,
      "duration": 0.0156,
      "velocity": 127,
      "chip": "ym2612"
    },
    {
      "channel": 1,
      "note": 65,
      "start": 21.649,
      "duration": 0.0156,
      "velocity": 97,
      "chip": "ym2612"
    },
    {
      "channel": 0,
      "note": 70,
      "start": 21.6644,
      "duration": 0.0136,
      "velocity": 127,
      "chip": "ym2612"
    },
    {
      "channel": 1,
      "note": 64,
      "start": 21.6647,
      "duration": 0.0136,
      "velocity": 97,
      "chip": "ym2612"
    },
    {
      "channel": 0,
      "note": 69,
      "start": 21.678,
      "duration": 0.0292,
      "velocity": 127,
      "chip": "ym2612"
    },
    {
      "channel": 1,
      "note": 63,
      "start": 21.6782,
      "duration": 0.0292,
      "velocity": 97,
      "chip": "ym2612"
    },
    {
      "channel": 0,
      "note": 68,
      "start": 21.7072,
      "duration": 0.0167,
      "velocity": 127,
      "chip": "ym2612"
    },
    {
      "channel": 1,
      "note": 62,
      "start": 21.7074,
      "duration": 0.0167,
      "velocity": 97,
      "chip": "ym2612"
    },
    {
      "channel": 0,
      "note": 67,
      "start": 21.7239,
      "duration": 0.0171,
      "velocity": 127,
      "chip": "ym2612"
    },
    {
      "channel": 1,
      "note": 61,
      "start": 21.7242,
      "duration": 0.0186,
      "velocity": 97,
      "chip": "ym2612"
    },
    {
      "channel": 0,
      "note": 74,
      "start": 21.7411,
      "duration": 0.0015,
      "velocity": 127,
      "chip": "ym2612"
    },
    {
      "channel": 4,
      "note": 84,
      "start": 21.7419,
      "duration": 0.1979,
      "velocity": 117,
      "chip": "ym2612"
    },
    {
      "channel": 0,
      "note": 73,
      "start": 21.7426,
      "duration": 0.0121,
      "velocity": 127,
      "chip": "ym2612"
    },
    {
      "channel": 1,
      "note": 60,
      "start": 21.7428,
      "duration": 0.0122,
      "velocity": 97,
      "chip": "ym2612"
    },
    {
      "channel": 0,
      "note": 72,
      "start": 21.7547,
      "duration": 0.0137,
      "velocity": 127,
      "chip": "ym2612"
    },
    {
      "channel": 1,
      "note": 58,
      "start": 21.755,
      "duration": 0.0137,
      "velocity": 97,
      "chip": "ym2612"
    },
    {
      "channel": 0,
      "note": 70,
      "start": 21.7684,
      "duration": 0.0274,
      "velocity": 127,
      "chip": "ym2612"
    },
    {
      "channel": 1,
      "note": 57,
      "start": 21.7687,
      "duration": 0.0274,
      "velocity": 97,
      "chip": "ym2612"
    },
    {
      "channel": 0,
      "note": 69,
      "start": 21.7957,
      "duration": 0.0139,
      "velocity": 127,
      "chip": "ym2612"
    },
    {
      "channel": 1,
      "note": 56,
      "start": 21.7961,
      "duration": 0.0139,
      "velocity": 97,
      "chip": "ym2612"
    },
    {
      "channel": 0,
      "note": 68,
      "start": 21.8097,
      "duration": 0.0139,
      "velocity": 127,
      "chip": "ym2612"
    },
    {
      "channel": 1,
      "note": 55,
      "start": 21.81,
      "duration": 0.0139,
      "velocity": 97,
      "chip": "ym2612"
    },
    {
      "channel": 0,
      "note": 67,
      "start": 21.8236,
      "duration": 0.0142,
      "velocity": 127,
      "chip": "ym2612"
    },
    {
      "channel": 1,
      "note": 54,
      "start": 21.8239,
      "duration": 0.017,
      "velocity": 97,
      "chip": "ym2612"
    },
    {
      "channel": 0,
      "note": 67,
      "start": 21.838,
      "duration": 0.0027,
      "velocity": 127,
      "chip": "ym2612"
    },
    {
      "channel": 3,
      "note": 48,
      "start": 21.8402,
      "duration": 0.099,
      "velocity": 112,
      "chip": "ym2612"
    },
    {
      "channel": 0,
      "note": 66,
      "start": 21.8406,
      "duration": 0.0111,
      "velocity": 127,
      "chip": "ym2612"
    },
    {
      "channel": 1,
      "note": 53,
      "start": 21.841,
      "duration": 0.011,
      "velocity": 97,
      "chip": "ym2612"
    },
    {
      "channel": 0,
      "note": 65,
      "start": 21.8517,
      "duration": 0.0272,
      "velocity": 127,
      "chip": "ym2612"
    },
    {
      "channel": 1,
      "note": 52,
      "start": 21.852,
      "duration": 0.0272,
      "velocity": 97,
      "chip": "ym2612"
    },
    {
      "channel": 0,
      "note": 64,
      "start": 21.879,
      "duration": 0.0138,
      "velocity": 127,
      "chip": "ym2612"
    },
    {
      "channel": 1,
      "note": 51,
      "start": 21.8792,
      "duration": 0.0139,
      "velocity": 97,
      "chip": "ym2612"
    },
    {
      "channel": 0,
      "note": 63,
      "start": 21.8928,
      "duration": 0.0157,
      "velocity": 127,
      "chip": "ym2612"
    },
    {
      "channel": 1,
      "note": 50,
      "start": 21.8931,
      "duration": 0.0156,
      "velocity": 97,
      "chip": "ym2612"
    },
    {
      "channel": 0,
      "note": 62,
      "start": 21.9084,
      "duration": 0.0158,
      "velocity": 127,
      "chip": "ym2612"
    },
    {
      "channel": 1,
      "note": 49,
      "start": 21.9087,
      "duration": 0.0158,
      "velocity": 97,
      "chip": "ym2612"
    },
    {
      "channel": 0,
      "note": 61,
      "start": 21.9242,
      "duration": 0.0143,
      "velocity": 127,
      "chip": "ym2612"
    },
    {
      "channel": 1,
      "note": 48,
      "start": 21.9245,
      "duration": 0.0164,
      "velocity": 97,
      "chip": "ym2612"
    },
    {
      "channel": 0,
      "note": 74,
      "start": 21.9387,
      "duration": 0.002,
      "velocity": 127,
      "chip": "ym2612"
    },
    {
      "channel": 3,
      "note": 51,
      "start": 21.9394,
      "duration": 0.1101,
      "velocity": 112,
      "chip": "ym2612"
    },
    {
      "channel": 4,
      "note": 77,
      "start": 21.94,
      "duration": 0.2201,
      "velocity": 117,
      "chip": "ym2612"
    },
    {
      "channel": 0,
      "note": 73,
      "start": 21.9407,
      "duration": 0.0251,
      "velocity": 127,
      "chip": "ym2612"
    },
    {
      "channel": 1,
      "note": 46,
      "start": 21.9409,
      "duration": 0.0251,
      "velocity": 97,
      "chip": "ym2612"
    },
    {
      "channel": 0,
      "note": 72,
      "start": 21.9658,
      "duration": 0.0138,
      "velocity": 127,
      "chip": "ym2612"
    },
    {
      "channel": 1,
      "note": 45,
      "start": 21.966,
      "duration": 0.0139,
      "velocity": 97,
      "chip": "ym2612"
    },
    {
      "channel": 0,
      "note": 70,
      "start": 21.9796,
      "duration": 0.0138,
      "velocity": 127,
      "chip": "ym2612"
    },
    {
      "channel": 1,
      "note": 44,
      "start": 21.9799,
      "duration": 0.0137,
      "velocity": 97,
      "chip": "ym2612"
    },
    {
      "channel": 0,
      "note": 69,
      "start": 21.9934,
      "duration": 0.0139,
      "velocity": 127,
      "chip": "ym2612"
    },
    {
      "channel": 1,
      "note": 43,
      "start": 21.9936,
      "duration": 0.0139,
      "velocity": 97,
      "chip": "ym2612"
    },
    {
      "channel": 0,
      "note": 68,
      "start": 22.0072,
      "duration": 0.0138,
      "velocity": 127,
      "chip": "ym2612"
    },
    {
      "channel": 1,
      "note": 42,
      "start": 22.0075,
      "duration": 0.0139,
      "velocity": 97,
      "chip": "ym2612"
    },
    {
      "channel": 0,
      "note": 67,
      "start": 22.021,
      "duration": 0.0278,
      "velocity": 127,
      "chip": "ym2612"
    },
    {
      "channel": 1,
      "note": 41,
      "start": 22.0213,
      "duration": 0.0294,
      "velocity": 97,
      "chip": "ym2612"
    },
    {
      "channel": 0,
      "note": 74,
      "start": 22.049,
      "duration": 0.0015,
      "velocity": 127,
      "chip": "ym2612"
    },
    {
      "channel": 3,
      "note": 48,
      "start": 22.0497,
      "duration": 0.1098,
      "velocity": 127,
      "chip": "ym2612"
    },
    {
      "channel": 0,
      "note": 73,
      "start": 22.0505,
      "duration": 0.0119,
      "velocity": 127,
      "chip": "ym2612"
    },
    {
      "channel": 1,
      "note": 40,
      "start": 22.0507,
      "duration": 0.012,
      "velocity": 97,
      "chip": "ym2612"
    },
    {
      "channel": 0,
      "note": 72,
      "start": 22.0624,
      "duration": 0.0158,
      "velocity": 127,
      "chip": "ym2612"
    },
    {
      "channel": 1,
      "note": 39,
      "start": 22.0627,
      "duration": 0.0157,
      "velocity": 97,
      "chip": "ym2612"
    },
    {
      "channel": 0,
      "note": 70,
      "start": 22.0781,
      "duration": 0.0158,
      "velocity": 127,
      "chip": "ym2612"
    },
    {
      "channel": 1,
      "note": 38,
      "start": 22.0784,
      "duration": 0.0158,
      "velocity": 97,
      "chip": "ym2612"
    },
    {
      "channel": 0,
      "note": 69,
      "start": 22.0939,
      "duration": 0.0158,
      "velocity": 127,
      "chip": "ym2612"
    },
    {
      "channel": 1,
      "note": 37,
      "start": 22.0942,
      "duration": 0.0158,
      "velocity": 97,
      "chip": "ym2612"
    },
    {
      "channel": 0,
      "note": 68,
      "start": 22.1097,
      "duration": 0.0272,
      "velocity": 127,
      "chip": "ym2612"
    },
    {
      "channel": 1,
      "note": 36,
      "start": 22.11,
      "duration": 0.0272,
      "velocity": 97,
      "chip": "ym2612"
    },
    {
      "channel": 0,
      "note": 67,
      "start": 22.137,
      "duration": 0.0181,
      "velocity": 119,
      "chip": "ym2612"
    },
    {
      "channel": 1,
      "note": 35,
      "start": 22.1372,
      "duration": 0.0238,
      "velocity": 97,
      "chip": "ym2612"
    },
    {
      "channel": 0,
      "note": 45,
      "start": 22.1553,
      "duration": 0.2072,
      "velocity": 119,
      "chip": "ym2612"
    },
    {
      "channel": 2,
      "note": 57,
      "start": 22.1575,
      "duration": 0.2072,
      "velocity": 109,
      "chip": "ym2612"
    },
    {
      "channel": 3,
      "note": 45,
      "start": 22.1596,
      "duration": 5.371,
      "velocity": 127,
      "chip": "ym2612"
    },
    {
      "channel": 4,
      "note": 79,
      "start": 22.1602,
      "duration": 0.3059,
      "velocity": 117,
      "chip": "ym2612"
    },
    {
      "channel": 1,
      "note": 33,
      "start": 22.161,
      "duration": 0.0064,
      "velocity": 97,
      "chip": "ym2612"
    },
    {
      "channel": 1,
      "note": 32,
      "start": 22.1674,
      "duration": 0.0158,
      "velocity": 97,
      "chip": "ym2612"
    },
    {
      "channel": 1,
      "note": 31,
      "start": 22.1832,
      "duration": 0.0156,
      "velocity": 97,
      "chip": "ym2612"
    },
    {
      "channel": 1,
      "note": 30,
      "start": 22.1988,
      "duration": 0.0271,
      "velocity": 97,
      "chip": "ym2612"
    },
    {
      "channel": 1,
      "note": 29,
      "start": 22.2259,
      "duration": 0.0157,
      "velocity": 97,
      "chip": "ym2612"
    },
    {
      "channel": 1,
      "note": 28,
      "start": 22.2416,
      "duration": 0.0177,
      "velocity": 119,
      "chip": "ym2612"
    },
    {
      "channel": 1,
      "note": 45,
      "start": 22.2594,
      "duration": 0.204,
      "velocity": 119,
      "chip": "ym2612"
    },
    {
      "channel": 0,
      "note": 48,
      "start": 22.3627,
      "duration": 0.1002,
      "velocity": 119,
      "chip": "ym2612"
    },
    {
      "channel": 2,
      "note": 57,
      "start": 22.3649,
      "duration": 0.1007,
      "velocity": 112,
      "chip": "ym2612"
    },
    {
      "channel": 0,
      "note": 50,
      "start": 22.463,
      "duration": 0.1265,
      "velocity": 119,
      "chip": "ym2612"
    },
    {
      "channel": 1,
      "note": 48,
      "start": 22.4635,
      "duration": 0.1265,
      "velocity": 119,
      "chip": "ym2612"
    },
    {
      "channel": 2,
      "note": 55,
      "start": 22.4657,
      "duration": 0.2321,
      "velocity": 109,
      "chip": "ym2612"
    },
    {
      "channel": 4,
      "note": 84,
      "start": 22.4663,
      "duration": 0.3309,
      "velocity": 117,
      "chip": "ym2612"
    },
    {
      "channel": 0,
      "note": 45,
      "start": 22.5897,
      "duration": 0.1037,
      "velocity": 119,
      "chip": "ym2612"
    },
    {
      "channel": 1,
      "note": 50,
      "start": 22.5902,
      "duration": 0.1037,
      "velocity": 119,
      "chip": "ym2612"
    },
    {
      "channel": 0,
      "note": 48,
      "start": 22.6936,
      "duration": 0.1003,
      "velocity": 119,
      "chip": "ym2612"
    },
    {
      "channel": 1,
      "note": 45,
      "start": 22.6941,
      "duration": 0.1004,
      "velocity": 119,
      "chip": "ym2612"
    },
    {
      "channel": 2,
      "note": 55,
      "start": 22.698,
      "duration": 0.0986,
      "velocity": 112,
      "chip": "ym2612"
    },
    {
      "channel": 0,
      "note": 50,
      "start": 22.794,
      "duration": 0.1076,
      "velocity": 119,
      "chip": "ym2612"
    },
    {
      "channel": 1,
      "note": 48,
      "start": 22.7946,
      "duration": 0.1076,
      "velocity": 119,
      "chip": "ym2612"
    },
    {
      "channel": 2,
      "note": 57,
      "start": 22.7967,
      "duration": 0.2066,
      "velocity": 109,
      "chip": "ym2612"
    },
    {
      "channel": 4,
      "note": 77,
      "start": 22.7973,
      "duration": 0.3184,
      "velocity": 117,
      "chip": "ym2612"
    },
    {
      "channel": 0,
      "note": 45,
      "start": 22.9018,
      "duration": 0.2132,
      "velocity": 119,
      "chip": "ym2612"
    },
    {
      "channel": 1,
      "note": 50,
      "start": 22.9023,
      "duration": 0.0989,
      "velocity": 119,
      "chip": "ym2612"
    },
    {
      "channel": 1,
      "note": 45,
      "start": 23.0014,
      "duration": 0.2161,
      "velocity": 119,
      "chip": "ym2612"
    },
    {
      "channel": 2,
      "note": 57,
      "start": 23.0035,
      "duration": 0.5208,
      "velocity": 112,
      "chip": "ym2612"
    },
    {
      "channel": 0,
      "note": 45,
      "start": 23.1152,
      "duration": 0.1017,
      "velocity": 119,
      "chip": "ym2612"
    },
    {
      "channel": 4,
      "note": 79,
      "start": 23.116,
      "duration": 0.309,
      "velocity": 117,
      "chip": "ym2612"
    },
    {
      "channel": 0,
      "note": 48,
      "start": 23.2171,
      "duration": 0.1,
      "velocity": 119,
      "chip": "ym2612"
    },
    {
      "channel": 1,
      "note": 45,
      "start": 23.2177,
      "duration": 0.1,
      "velocity": 119,
      "chip": "ym2612"
    },
    {
      "channel": 0,
      "note": 50,
      "start": 23.3173,
      "duration": 0.1064,
      "velocity": 119,
      "chip": "ym2612"
    },
    {
      "channel": 1,
      "note": 48,
      "start": 23.3179,
      "duration": 0.1064,
      "velocity": 119,
      "chip": "ym2612"
    },
    {
      "channel": 0,
      "note": 45,
      "start": 23.4239,
      "duration": 0.0978,
      "velocity": 119,
      "chip": "ym2612"
    },
    {
      "channel": 1,
      "note": 50,
      "start": 23.4245,
      "duration": 0.0977,
      "velocity": 119,
      "chip": "ym2612"
    },
    {
      "channel": 4,
      "note": 84,
      "start": 23.4252,
      "duration": 0.2142,
      "velocity": 117,
      "chip": "ym2612"
    },
    {
      "channel": 0,
      "note": 48,
      "start": 23.5218,
      "duration": 0.1158,
      "velocity": 119,
      "chip": "ym2612"
    },
    {
      "channel": 1,
      "note": 45,
      "start": 23.5224,
      "duration": 0.1158,
      "velocity": 119,
      "chip": "ym2612"
    },
    {
      "channel": 2,
      "note": 52,
      "start": 23.5246,
      "duration": 0.1142,
      "velocity": 112,
      "chip": "ym2612"
    },
    {
      "channel": 0,
      "note": 50,
      "start": 23.6378,
      "duration": 0.2121,
      "velocity": 119,
      "chip": "ym2612"
    },
    {
      "channel": 1,
      "note": 48,
      "start": 23.6384,
      "duration": 0.1073,
      "velocity": 119,
      "chip": "ym2612"
    },
    {
      "channel": 2,
      "note": 55,
      "start": 23.639,
      "duration": 0.1073,
      "velocity": 112,
      "chip": "ym2612"
    },
    {
      "channel": 4,
      "note": 77,
      "start": 23.6396,
      "duration": 0.2116,
      "velocity": 117,
      "chip": "ym2612"
    },
    {
      "channel": 1,
      "note": 50,
      "start": 23.7459,
      "duration": 0.2139,
      "velocity": 119,
      "chip": "ym2612"
    },
    {
      "channel": 2,
      "note": 52,
      "start": 23.7464,
      "duration": 0.1042,
      "velocity": 112,
      "chip": "ym2612"
    },
    {
      "channel": 0,
      "note": 45,
      "start": 23.85,
      "duration": 0.2144,
      "velocity": 119,
      "chip": "ym2612"
    },
    {
      "channel": 2,
      "note": 57,
      "start": 23.8507,
      "duration": 0.2159,
      "velocity": 109,
      "chip": "ym2612"
    },
    {
      "channel": 4,
      "note": 79,
      "start": 23.8514,
      "duration": 0.3378,
      "velocity": 117,
      "chip": "ym2612"
    },
    {
      "channel": 1,
      "note": 45,
      "start": 23.96,
      "duration": 0.2264,
      "velocity": 119,
      "chip": "ym2612"
    },
    {
      "channel": 0,
      "note": 48,
      "start": 24.0646,
      "duration": 0.1212,
      "velocity": 119,
      "chip": "ym2612"
    },
    {
      "channel": 2,
      "note": 57,
      "start": 24.0668,
      "duration": 0.1217,
      "velocity": 112,
      "chip": "ym2612"
    },
    {
      "channel": 0,
      "note": 50,
      "start": 24.186,
      "duration": 0.1109,
      "velocity": 119,
      "chip": "ym2612"
    },
    {
      "channel": 1,
      "note": 48,
      "start": 24.1865,
      "duration": 0.111,
      "velocity": 119,
      "chip": "ym2612"
    },
    {
      "channel": 2,
      "note": 55,
      "start": 24.1887,
      "duration": 0.2132,
      "velocity": 109,
      "chip": "ym2612"
    },
    {
      "channel": 4,
      "note": 84,
      "start": 24.1893,
      "duration": 0.3148,
      "velocity": 117,
      "chip": "ym2612"
    },
    {
      "channel": 0,
      "note": 45,
      "start": 24.2971,
      "duration": 0.1021,
      "velocity": 119,
      "chip": "ym2612"
    },
    {
      "channel": 1,
      "note": 50,
      "start": 24.2977,
      "duration": 0.1021,
      "velocity": 119,
      "chip": "ym2612"
    },
    {
      "channel": 0,
      "note": 48,
      "start": 24.3994,
      "duration": 0.1015,
      "velocity": 119,
      "chip": "ym2612"
    },
    {
      "channel": 1,
      "note": 45,
      "start": 24.3999,
      "duration": 0.1015,
      "velocity": 119,
      "chip": "ym2612"
    },
    {
      "channel": 2,
      "note": 55,
      "start": 24.402,
      "duration": 0.1015,
      "velocity": 112,
      "chip": "ym2612"
    },
    {
      "channel": 0,
      "note": 50,
      "start": 24.501,
      "duration": 0.1111,
      "velocity": 119,
      "chip": "ym2612"
    },
    {
      "channel": 1,
      "note": 48,
      "start": 24.5016,
      "duration": 0.1111,
      "velocity": 119,
      "chip": "ym2612"
    },
    {
      "channel": 2,
      "note": 57,
      "start": 24.5037,
      "duration": 0.2302,
      "velocity": 109,
      "chip": "ym2612"
    },
    {
      "channel": 4,
      "note": 77,
      "start": 24.5043,
      "duration": 0.3304,
      "velocity": 117,
      "chip": "ym2612"
    },
    {
      "channel": 0,
      "note": 45,
      "start": 24.6123,
      "duration": 0.2217,
      "velocity": 119,
      "chip": "ym2612"
    },
    {
      "channel": 1,
      "note": 50,
      "start": 24.6128,
      "duration": 0.1189,
      "velocity": 119,
      "chip": "ym2612"
    },
    {
      "channel": 1,
      "note": 45,
      "start": 24.732,
      "duration": 0.2028,
      "velocity": 119,
      "chip": "ym2612"
    },
    {
      "channel": 2,
      "note": 57,
      "start": 24.7341,
      "duration": 0.5144,
      "velocity": 112,
      "chip": "ym2612"
    },
    {
      "channel": 0,
      "note": 45,
      "start": 24.8342,
      "duration": 0.1,
      "velocity": 119,
      "chip": "ym2612"
    },
    {
      "channel": 4,
      "note": 79,
      "start": 24.8349,
      "duration": 0.3,
      "velocity": 117,
      "chip": "ym2612"
    },
    {
      "channel": 0,
      "note": 48,
      "start": 24.9344,
      "duration": 0.0998,
      "velocity": 119,
      "chip": "ym2612"
    },
    {
      "channel": 1,
      "note": 45,
      "start": 24.9349,
      "duration": 0.0998,
      "velocity": 119,
      "chip": "ym2612"
    },
    {
      "channel": 0,
      "note": 50,
      "start": 25.0343,
      "duration": 0.0994,
      "velocity": 119,
      "chip": "ym2612"
    },
    {
      "channel": 1,
      "note": 48,
      "start": 25.0349,
      "duration": 0.0994,
      "velocity": 119,
      "chip": "ym2612"
    },
    {
      "channel": 0,
      "note": 45,
      "start": 25.1339,
      "duration": 0.112,
      "velocity": 119,
      "chip": "ym2612"
    },
    {
      "channel": 1,
      "note": 50,
      "start": 25.1344,
      "duration": 0.1119,
      "velocity": 119,
      "chip": "ym2612"
    },
    {
      "channel": 4,
      "note": 84,
      "start": 25.1351,
      "duration": 0.2179,
      "velocity": 117,
      "chip": "ym2612"
    },
    {
      "channel": 0,
      "note": 48,
      "start": 25.246,
      "duration": 0.1036,
      "velocity": 119,
      "chip": "ym2612"
    },
    {
      "channel": 1,
      "note": 45,
      "start": 25.2465,
      "duration": 0.1037,
      "velocity": 119,
      "chip": "ym2612"
    },
    {
      "channel": 2,
      "note": 52,
      "start": 25.2487,
      "duration": 0.1037,
      "velocity": 112,
      "chip": "ym2612"
    },
    {
      "channel": 0,
      "note": 50,
      "start": 25.3498,
      "duration": 0.2114,
      "velocity": 119,
      "chip": "ym2612"
    },
    {
      "channel": 1,
      "note": 48,
      "start": 25.3503,
      "duration": 0.1053,
      "velocity": 119,
      "chip": "ym2612"
    },
    {
      "channel": 2,
      "note": 55,
      "start": 25.3526,
      "duration": 0.1036,
      "velocity": 112,
      "chip": "ym2612"
    },
    {
      "channel": 4,
      "note": 77,
      "start": 25.3532,
      "duration": 0.2093,
      "velocity": 117,
      "chip": "ym2612"
    },
    {
      "channel": 1,
      "note": 50,
      "start": 25.4557,
      "duration": 0.2109,
      "velocity": 119,
      "chip": "ym2612"
    },
    {
      "channel": 2,
      "note": 52,
      "start": 25.4563,
      "duration": 0.1056,
      "velocity": 112,
      "chip": "ym2612"
    },
    {
      "channel": 0,
      "note": 45,
      "start": 25.5613,
      "duration": 0.2305,
      "velocity": 119,
      "chip": "ym2612"
    },
    {
      "channel": 2,
      "note": 57,
      "start": 25.562,
      "duration": 0.2319,
      "velocity": 109,
      "chip": "ym2612"
    },
    {
      "channel": 4,
      "note": 79,
      "start": 25.5627,
      "duration": 0.3363,
      "velocity": 117,
      "chip": "ym2612"
    },
    {
      "channel": 1,
      "note": 45,
      "start": 25.6669,
      "duration": 0.2276,
      "velocity": 119,
      "chip": "ym2612"
    },
    {
      "channel": 0,
      "note": 48,
      "start": 25.7919,
      "duration": 0.102,
      "velocity": 119,
      "chip": "ym2612"
    },
    {
      "channel": 2,
      "note": 57,
      "start": 25.7941,
      "duration": 0.1043,
      "velocity": 112,
      "chip": "ym2612"
    },
    {
      "channel": 0,
      "note": 50,
      "start": 25.894,
      "duration": 0.1064,
      "velocity": 119,
      "chip": "ym2612"
    },
    {
      "channel": 1,
      "note": 48,
      "start": 25.8946,
      "duration": 0.1064,
      "velocity": 119,
      "chip": "ym2612"
    },
    {
      "channel": 2,
      "note": 55,
      "start": 25.8986,
      "duration": 0.2103,
      "velocity": 109,
      "chip": "ym2612"
    },
    {
      "channel": 4,
      "note": 84,
      "start": 25.8992,
      "duration": 0.3165,
      "velocity": 117,
      "chip": "ym2612"
    },
    {
      "channel": 0,
      "note": 45,
      "start": 26.0006,
      "duration": 0.1056,
      "velocity": 119,
      "chip": "ym2612"
    },
    {
      "channel": 1,
      "note": 50,
      "start": 26.0011,
      "duration": 0.1056,
      "velocity": 119,
      "chip": "ym2612"
    },
    {
      "channel": 0,
      "note": 48,
      "start": 26.1063,
      "duration": 0.1059,
      "velocity": 119,
      "chip": "ym2612"
    },
    {
      "channel": 1,
      "note": 45,
      "start": 26.1069,
      "duration": 0.1059,
      "velocity": 119,
      "chip": "ym2612"
    },
    {
      "channel": 2,
      "note": 55,
      "start": 26.1091,
      "duration": 0.1059,
      "velocity": 112,
      "chip": "ym2612"
    },
    {
      "channel": 0,
      "note": 50,
      "start": 26.2125,
      "duration": 0.1233,
      "velocity": 119,
      "chip": "ym2612"
    },
    {
      "channel": 1,
      "note": 48,
      "start": 26.213,
      "duration": 0.1233,
      "velocity": 119,
      "chip": "ym2612"
    },
    {
      "channel": 2,
      "note": 57,
      "start": 26.2151,
      "duration": 0.2303,
      "velocity": 109,
      "chip": "ym2612"
    },
    {
      "channel": 4,
      "note": 77,
      "start": 26.2158,
      "duration": 0.3322,
      "velocity": 117,
      "chip": "ym2612"
    },
    {
      "channel": 0,
      "note": 45,
      "start": 26.336,
      "duration": 0.2113,
      "velocity": 119,
      "chip": "ym2612"
    },
    {
      "channel": 1,
      "note": 50,
      "start": 26.3365,
      "duration": 0.1051,
      "velocity": 119,
      "chip": "ym2612"
    },
    {
      "channel": 1,
      "note": 45,
      "start": 26.4418,
      "duration": 0.2057,
      "velocity": 119,
      "chip": "ym2612"
    },
    {
      "channel": 2,
      "note": 57,
      "start": 26.4456,
      "duration": 0.5395,
      "velocity": 112,
      "chip": "ym2612"
    },
    {
      "channel": 0,
      "note": 45,
      "start": 26.5474,
      "duration": 0.0995,
      "velocity": 119,
      "chip": "ym2612"
    },
    {
      "channel": 4,
      "note": 79,
      "start": 26.5482,
      "duration": 0.3353,
      "velocity": 117,
      "chip": "ym2612"
    },
    {
      "channel": 0,
      "note": 48,
      "start": 26.6471,
      "duration": 0.1077,
      "velocity": 119,
      "chip": "ym2612"
    },
    {
      "channel": 1,
      "note": 45,
      "start": 26.6476,
      "duration": 0.1077,
      "velocity": 119,
      "chip": "ym2612"
    },
    {
      "channel": 0,
      "note": 50,
      "start": 26.7549,
      "duration": 0.1273,
      "velocity": 119,
      "chip": "ym2612"
    },
    {
      "channel": 1,
      "note": 48,
      "start": 26.7555,
      "duration": 0.1273,
      "velocity": 119,
      "chip": "ym2612"
    },
    {
      "channel": 0,
      "note": 45,
      "start": 26.8824,
      "duration": 0.0981,
      "velocity": 119,
      "chip": "ym2612"
    },
    {
      "channel": 1,
      "note": 50,
      "start": 26.883,
      "duration": 0.0981,
      "velocity": 119,
      "chip": "ym2612"
    },
    {
      "channel": 4,
      "note": 84,
      "start": 26.8837,
      "duration": 0.2024,
      "velocity": 117,
      "chip": "ym2612"
    },
    {
      "channel": 0,
      "note": 48,
      "start": 26.9807,
      "duration": 0.1036,
      "velocity": 119,
      "chip": "ym2612"
    },
    {
      "channel": 1,
      "note": 45,
      "start": 26.9812,
      "duration": 0.1037,
      "velocity": 119,
      "chip": "ym2612"
    },
    {
      "channel": 2,
      "note": 52,
      "start": 26.9852,
      "duration": 0.1002,
      "velocity": 112,
      "chip": "ym2612"
    },
    {
      "channel": 0,
      "note": 50,
      "start": 27.0845,
      "duration": 0.2129,
      "velocity": 119,
      "chip": "ym2612"
    },
    {
      "channel": 1,
      "note": 48,
      "start": 27.0851,
      "duration": 0.1067,
      "velocity": 119,
      "chip": "ym2612"
    },
    {
      "channel": 2,
      "note": 55,
      "start": 27.0856,
      "duration": 0.1066,
      "velocity": 112,
      "chip": "ym2612"
    },
    {
      "channel": 4,
      "note": 77,
      "start": 27.0862,
      "duration": 0.2126,
      "velocity": 117,
      "chip": "ym2612"
    },
    {
      "channel": 1,
      "note": 50,
      "start": 27.1919,
      "duration": 0.219,
      "velocity": 119,
      "chip": "ym2612"
    },
    {
      "channel": 2,
      "note": 52,
      "start": 27.1924,
      "duration": 0.1057,
      "velocity": 112,
      "chip": "ym2612"
    },
    {
      "channel": 0,
      "note": 45,
      "start": 27.2976,
      "duration": 0.2267,
      "velocity": 119,
      "chip": "ym2612"
    },
    {
      "channel": 2,
      "note": 57,
      "start": 27.2983,
      "duration": 0.2301,
      "velocity": 109,
      "chip": "ym2612"
    },
    {
      "channel": 4,
      "note": 79,
      "start": 27.2989,
      "duration": 0.3326,
      "velocity": 117,
      "chip": "ym2612"
    },
    {
      "channel": 1,
      "note": 45,
      "start": 27.4111,
      "duration": 0.2176,
      "velocity": 119,
      "chip": "ym2612"
    },
    {
      "channel": 0,
      "note": 48,
      "start": 27.5245,
      "duration": 0.1037,
      "velocity": 119,
      "chip": "ym2612"
    },
    {
      "channel": 2,
      "note": 57,
      "start": 27.5286,
      "duration": 0.1022,
      "velocity": 112,
      "chip": "ym2612"
    },
    {
      "channel": 3,
      "note": 74,
      "start": 27.5307,
      "duration": 0.0009,
      "velocity": 127,
      "chip": "ym2612"
    },
    {
      "channel": 3,
      "note": 73,
      "start": 27.5316,
      "duration": 0.0075,
      "velocity": 127,
      "chip": "ym2612"
    },
    {
      "channel": 3,
      "note": 72,
      "start": 27.5391,
      "duration": 0.0138,
      "velocity": 127,
      "chip": "ym2612"
    },
    {
      "channel": 3,
      "note": 70,
      "start": 27.5529,
      "duration": 0.0138,
      "velocity": 127,
      "chip": "ym2612"
    },
    {
      "channel": 3,
      "note": 69,
      "start": 27.5666,
      "duration": 0.0316,
      "velocity": 127,
      "chip": "ym2612"
    },
    {
      "channel": 3,
      "note": 68,
      "start": 27.5982,
      "duration": 0.0158,
      "velocity": 127,
      "chip": "ym2612"
    },
    {
      "channel": 3,
      "note": 67,
      "start": 27.614,
      "duration": 0.0182,
      "velocity": 127,
      "chip": "ym2612"
    },
    {
      "channel": 0,
      "note": 50,
      "start": 27.6283,
      "duration": 0.1033,
      "velocity": 119,
      "chip": "ym2612"
    },
    {
      "channel": 1,
      "note": 48,
      "start": 27.6289,
      "duration": 0.1033,
      "velocity": 119,
      "chip": "ym2612"
    },
    {
      "channel": 2,
      "note": 55,
      "start": 27.631,
      "duration": 0.2015,
      "velocity": 109,
      "chip": "ym2612"
    },
    {
      "channel": 4,
      "note": 84,
      "start": 27.6317,
      "duration": 0.3135,
      "velocity": 117,
      "chip": "ym2612"
    },
    {
      "channel": 3,
      "note": 66,
      "start": 27.6322,
      "duration": 0.0101,
      "velocity": 127,
      "chip": "ym2612"
    },
    {
      "channel": 3,
      "note": 65,
      "start": 27.6423,
      "duration": 0.0138,
      "velocity": 127,
      "chip": "ym2612"
    },
    {
      "channel": 3,
      "note": 64,
      "start": 27.6561,
      "duration": 0.0272,
      "velocity": 127,
      "chip": "ym2612"
    },
    {
      "channel": 3,
      "note": 63,
      "start": 27.6833,
      "duration": 0.0146,
      "velocity": 127,
      "chip": "ym2612"
    },
    {
      "channel": 3,
      "note": 62,
      "start": 27.6979,
      "duration": 0.0167,
      "velocity": 127,
      "chip": "ym2612"
    },
    {
      "channel": 3,
      "note": 61,
      "start": 27.7146,
      "duration": 0.0183,
      "velocity": 127,
      "chip": "ym2612"
    },
    {
      "channel": 0,
      "note": 45,
      "start": 27.7318,
      "duration": 0.0981,
      "velocity": 119,
      "chip": "ym2612"
    },
    {
      "channel": 1,
      "note": 50,
      "start": 27.7323,
      "duration": 0.0981,
      "velocity": 119,
      "chip": "ym2612"
    },
    {
      "channel": 3,
      "note": 74,
      "start": 27.733,
      "duration": 0.0009,
      "velocity": 127,
      "chip": "ym2612"
    },
    {
      "channel": 3,
      "note": 73,
      "start": 27.7339,
      "duration": 0.0116,
      "velocity": 127,
      "chip": "ym2612"
    },
    {
      "channel": 3,
      "note": 72,
      "start": 27.7455,
      "duration": 0.0272,
      "velocity": 127,
      "chip": "ym2612"
    },
    {
      "channel": 3,
      "note": 70,
      "start": 27.7727,
      "duration": 0.0138,
      "velocity": 127,
      "chip": "ym2612"
    },
    {
      "channel": 3,
      "note": 69,
      "start": 27.7864,
      "duration": 0.0139,
      "velocity": 127,
      "chip": "ym2612"
    },
    {
      "channel": 3,
      "note": 68,
      "start": 27.8004,
      "duration": 0.0157,
      "velocity": 127,
      "chip": "ym2612"
    },
    {
      "channel": 3,
      "note": 67,
      "start": 27.8161,
      "duration": 0.0171,
      "velocity": 127,
      "chip": "ym2612"
    },
    {
      "channel": 0,
      "note": 48,
      "start": 27.83,
      "duration": 0.1118,
      "velocity": 119,
      "chip": "ym2612"
    },
    {
      "channel": 1,
      "note": 45,
      "start": 27.8306,
      "duration": 0.1118,
      "velocity": 119,
      "chip": "ym2612"
    },
    {
      "channel": 2,
      "note": 55,
      "start": 27.8328,
      "duration": 0.1118,
      "velocity": 112,
      "chip": "ym2612"
    },
    {
      "channel": 3,
      "note": 74,
      "start": 27.8334,
      "duration": 0.0006,
      "velocity": 127,
      "chip": "ym2612"
    },
    {
      "channel": 3,
      "note": 73,
      "start": 27.8339,
      "duration": 0.0239,
      "velocity": 127,
      "chip": "ym2612"
    },
    {
      "channel": 3,
      "note": 72,
      "start": 27.8578,
      "duration": 0.0137,
      "velocity": 127,
      "chip": "ym2612"
    },
    {
      "channel": 3,
      "note": 70,
      "start": 27.8715,
      "duration": 0.0156,
      "velocity": 127,
      "chip": "ym2612"
    },
    {
      "channel": 3,
      "note": 69,
      "start": 27.8871,
      "duration": 0.0136,
      "velocity": 127,
      "chip": "ym2612"
    },
    {
      "channel": 3,
      "note": 68,
      "start": 27.9007,
      "duration": 0.0138,
      "velocity": 127,
      "chip": "ym2612"
    },
    {
      "channel": 3,
      "note": 67,
      "start": 27.9145,
      "duration": 0.0314,
      "velocity": 127,
      "chip": "ym2612"
    },
    {
      "channel": 0,
      "note": 50,
      "start": 27.942,
      "duration": 0.107,
      "velocity": 119,
      "chip": "ym2612"
    },
    {
      "channel": 1,
      "note": 48,
      "start": 27.9426,
      "duration": 0.107,
      "velocity": 119,
      "chip": "ym2612"
    },
    {
      "channel": 2,
      "note": 57,
      "start": 27.9447,
      "duration": 0.2044,
      "velocity": 109,
      "chip": "ym2612"
    },
    {
      "channel": 4,
      "note": 77,
      "start": 27.9454,
      "duration": 0.3012,
      "velocity": 117,
      "chip": "ym2612"
    },
    {
      "channel": 3,
      "note": 66,
      "start": 27.9459,
      "duration": 0.0102,
      "velocity": 127,
      "chip": "ym2612"
    },
    {
      "channel": 3,
      "note": 65,
      "start": 27.9561,
      "duration": 0.0158,
      "velocity": 127,
      "chip": "ym2612"
    },
    {
      "channel": 3,
      "note": 64,
      "start": 27.9719,
      "duration": 0.0156,
      "velocity": 127,
      "chip": "ym2612"
    },
    {
      "channel": 3,
      "note": 63,
      "start": 27.9875,
      "duration": 0.0136,
      "velocity": 127,
      "chip": "ym2612"
    },
    {
      "channel": 3,
      "note": 62,
      "start": 28.0011,
      "duration": 0.0309,
      "velocity": 127,
      "chip": "ym2612"
    },
    {
      "channel": 3,
      "note": 61,
      "start": 28.032,
      "duration": 0.0203,
      "velocity": 127,
      "chip": "ym2612"
    },
    {
      "channel": 0,
      "note": 45,
      "start": 28.0492,
      "duration": 0.1967,
      "velocity": 119,
      "chip": "ym2612"
    },
    {
      "channel": 1,
      "note": 50,
      "start": 28.0497,
      "duration": 0.0973,
      "velocity": 119,
      "chip": "ym2612"
    },
    {
      "channel": 3,
      "note": 74,
      "start": 28.0524,
      "duration": 0.0009,
      "velocity": 127,
      "chip": "ym2612"
    },
    {
      "channel": 3,
      "note": 73,
      "start": 28.0533,
      "duration": 0.0098,
      "velocity": 127,
      "chip": "ym2612"
    },
    {
      "channel": 3,
      "note": 72,
      "start": 28.0631,
      "duration": 0.0136,
      "velocity": 127,
      "chip": "ym2612"
    },
    {
      "channel": 3,
      "note": 70,
      "start": 28.0767,
      "duration": 0.0136,
      "velocity": 127,
      "chip": "ym2612"
    },
    {
      "channel": 3,
      "note": 69,
      "start": 28.0902,
      "duration": 0.0271,
      "velocity": 127,
      "chip": "ym2612"
    },
    {
      "channel": 3,
      "note": 68,
      "start": 28.1173,
      "duration": 0.0157,
      "velocity": 127,
      "chip": "ym2612"
    },
    {
      "channel": 3,
      "note": 67,
      "start": 28.133,
      "duration": 0.0169,
      "velocity": 127,
      "chip": "ym2612"
    },
    {
      "channel": 1,
      "note": 45,
      "start": 28.1472,
      "duration": 0.1954,
      "velocity": 119,
      "chip": "ym2612"
    },
    {
      "channel": 2,
      "note": 57,
      "start": 28.1493,
      "duration": 0.5054,
      "velocity": 112,
      "chip": "ym2612"
    },
    {
      "channel": 3,
      "note": 66,
      "start": 28.1499,
      "duration": 0.011,
      "velocity": 127,
      "chip": "ym2612"
    },
    {
      "channel": 3,
      "note": 65,
      "start": 28.1609,
      "duration": 0.0138,
      "velocity": 127,
      "chip": "ym2612"
    },
    {
      "channel": 3,
      "note": 64,
      "start": 28.1747,
      "duration": 0.0274,
      "velocity": 127,
      "chip": "ym2612"
    },
    {
      "channel": 3,
      "note": 63,
      "start": 28.2021,
      "duration": 0.0138,
      "velocity": 127,
      "chip": "ym2612"
    },
    {
      "channel": 3,
      "note": 62,
      "start": 28.2159,
      "duration": 0.0157,
      "velocity": 127,
      "chip": "ym2612"
    },
    {
      "channel": 3,
      "note": 61,
      "start": 28.2317,
      "duration": 0.0159,
      "velocity": 127,
      "chip": "ym2612"
    },
    {
      "channel": 0,
      "note": 45,
      "start": 28.246,
      "duration": 0.0961,
      "velocity": 119,
      "chip": "ym2612"
    },
    {
      "channel": 4,
      "note": 79,
      "start": 28.2468,
      "duration": 0.3119,
      "velocity": 117,
      "chip": "ym2612"
    },
    {
      "channel": 3,
      "note": 60,
      "start": 28.2476,
      "duration": 0.012,
      "velocity": 127,
      "chip": "ym2612"
    },
    {
      "channel": 3,
      "note": 58,
      "start": 28.2596,
      "duration": 0.0273,
      "velocity": 127,
      "chip": "ym2612"
    },
    {
      "channel": 3,
      "note": 57,
      "start": 28.2869,
      "duration": 0.0137,
      "velocity": 127,
      "chip": "ym2612"
    },
    {
      "channel": 3,
      "note": 56,
      "start": 28.3006,
      "duration": 0.0139,
      "velocity": 127,
      "chip": "ym2612"
    },
    {
      "channel": 3,
      "note": 55,
      "start": 28.3145,
      "duration": 0.0136,
      "velocity": 127,
      "chip": "ym2612"
    },
    {
      "channel": 3,
      "note": 54,
      "start": 28.328,
      "duration": 0.0157,
      "velocity": 127,
      "chip": "ym2612"
    },
    {
      "channel": 0,
      "note": 48,
      "start": 28.3422,
      "duration": 0.1152,
      "velocity": 119,
      "chip": "ym2612"
    },
    {
      "channel": 1,
      "note": 45,
      "start": 28.3428,
      "duration": 0.1152,
      "velocity": 119,
      "chip": "ym2612"
    },
    {
      "channel": 3,
      "note": 53,
      "start": 28.3438,
      "duration": 0.0255,
      "velocity": 127,
      "chip": "ym2612"
    },
    {
      "channel": 3,
      "note": 52,
      "start": 28.3693,
      "duration": 0.0138,
      "velocity": 127,
      "chip": "ym2612"
    },
    {
      "channel": 3,
      "note": 51,
      "start": 28.383,
      "duration": 0.0157,
      "velocity": 127,
      "chip": "ym2612"
    },
    {
      "channel": 3,
      "note": 50,
      "start": 28.3987,
      "duration": 0.0157,
      "velocity": 127,
      "chip": "ym2612"
    },
    {
      "channel": 3,
      "note": 49,
      "start": 28.4144,
      "duration": 0.0156,
      "velocity": 127,
      "chip": "ym2612"
    },
    {
      "channel": 3,
      "note": 48,
      "start": 28.43,
      "duration": 0.0286,
      "velocity": 127,
      "chip": "ym2612"
    },
    {
      "channel": 0,
      "note": 50,
      "start": 28.4576,
      "duration": 0.098,
      "velocity": 119,
      "chip": "ym2612"
    },
    {
      "channel": 1,
      "note": 48,
      "start": 28.4582,
      "duration": 0.098,
      "velocity": 119,
      "chip": "ym2612"
    },
    {
      "channel": 3,
      "note": 74,
      "start": 28.4589,
      "duration": 0.0008,
      "velocity": 127,
      "chip": "ym2612"
    },
    {
      "channel": 3,
      "note": 73,
      "start": 28.4597,
      "duration": 0.0117,
      "velocity": 127,
      "chip": "ym2612"
    },
    {
      "channel": 3,
      "note": 72,
      "start": 28.4714,
      "duration": 0.0156,
      "velocity": 127,
      "chip": "ym2612"
    },
    {
      "channel": 3,
      "note": 70,
      "start": 28.487,
      "duration": 0.0136,
      "velocity": 127,
      "chip": "ym2612"
    },
    {
      "channel": 3,
      "note": 69,
      "start": 28.5006,
      "duration": 0.0138,
      "velocity": 127,
      "chip": "ym2612"
    },
    {
      "channel": 3,
      "note": 68,
      "start": 28.5143,
      "duration": 0.0272,
      "velocity": 127,
      "chip": "ym2612"
    },
    {
      "channel": 3,
      "note": 67,
      "start": 28.5415,
      "duration": 0.0182,
      "velocity": 127,
      "chip": "ym2612"
    },
    {
      "channel": 0,
      "note": 45,
      "start": 28.5558,
      "duration": 0.0962,
      "velocity": 119,
      "chip": "ym2612"
    },
    {
      "channel": 1,
      "note": 50,
      "start": 28.5563,
      "duration": 0.0962,
      "velocity": 119,
      "chip": "ym2612"
    },
    {
      "channel": 4,
      "note": 84,
      "start": 28.5589,
      "duration": 0.1965,
      "velocity": 117,
      "chip": "ym2612"
    },
    {
      "channel": 3,
      "note": 66,
      "start": 28.5597,
      "duration": 0.0102,
      "velocity": 127,
      "chip": "ym2612"
    },
    {
      "channel": 3,
      "note": 65,
      "start": 28.5699,
      "duration": 0.0138,
      "velocity": 127,
      "chip": "ym2612"
    },
    {
      "channel": 3,
      "note": 64,
      "start": 28.5836,
      "duration": 0.0137,
      "velocity": 127,
      "chip": "ym2612"
    },
    {
      "channel": 3,
      "note": 63,
      "start": 28.5973,
      "duration": 0.0271,
      "velocity": 127,
      "chip": "ym2612"
    },
    {
      "channel": 3,
      "note": 62,
      "start": 28.6244,
      "duration": 0.0136,
      "velocity": 127,
      "chip": "ym2612"
    },
    {
      "channel": 3,
      "note": 61,
      "start": 28.638,
      "duration": 0.0173,
      "velocity": 127,
      "chip": "ym2612"
    },
    {
      "channel": 0,
      "note": 48,
      "start": 28.6522,
      "duration": 0.1009,
      "velocity": 119,
      "chip": "ym2612"
    },
    {
      "channel": 1,
      "note": 45,
      "start": 28.6527,
      "duration": 0.1009,
      "velocity": 119,
      "chip": "ym2612"
    },
    {
      "channel": 2,
      "note": 52,
      "start": 28.6548,
      "duration": 0.0994,
      "velocity": 112,
      "chip": "ym2612"
    },
    {
      "channel": 3,
      "note": 71,
      "start": 28.6555,
      "duration": 0.0006,
      "velocity": 127,
      "chip": "ym2612"
    },
    {
      "channel": 3,
      "note": 70,
      "start": 28.656,
      "duration": 0.0102,
      "velocity": 127,
      "chip": "ym2612"
    },
    {
      "channel": 3,
      "note": 68,
      "start": 28.6662,
      "duration": 0.0138,
      "velocity": 127,
      "chip": "ym2612"
    },
    {
      "channel": 3,
      "note": 67,
      "start": 28.68,
      "duration": 0.0315,
      "velocity": 127,
      "chip": "ym2612"
    },
    {
      "channel": 3,
      "note": 66,
      "start": 28.7115,
      "duration": 0.0138,
      "velocity": 127,
      "chip": "ym2612"
    },
    {
      "channel": 3,
      "note": 66,
      "start": 28.7254,
      "duration": 0.0139,
      "velocity": 127,
      "chip": "ym2612"
    },
    {
      "channel": 3,
      "note": 65,
      "start": 28.7392,
      "duration": 0.0156,
      "velocity": 127,
      "chip": "ym2612"
    },
    {
      "channel": 0,
      "note": 50,
      "start": 28.7532,
      "duration": 0.2144,
      "velocity": 112,
      "chip": "ym2612"
    },
    {
      "channel": 1,
      "note": 48,
      "start": 28.7538,
      "duration": 0.0989,
      "velocity": 119,
      "chip": "ym2612"
    },
    {
      "channel": 2,
      "note": 55,
      "start": 28.7544,
      "duration": 0.0989,
      "velocity": 112,
      "chip": "ym2612"
    },
    {
      "channel": 3,
      "note": 67,
      "start": 28.755,
      "duration": 0.0011,
      "velocity": 127,
      "chip": "ym2612"
    },
    {
      "channel": 4,
      "note": 77,
      "start": 28.7555,
      "duration": 0.2177,
      "velocity": 117,
      "chip": "ym2612"
    },
    {
      "channel": 3,
      "note": 66,
      "start": 28.7561,
      "duration": 0.011,
      "velocity": 127,
      "chip": "ym2612"
    },
    {
      "channel": 3,
      "note": 65,
      "start": 28.767,
      "duration": 0.0271,
      "velocity": 127,
      "chip": "ym2612"
    },
    {
      "channel": 3,
      "note": 64,
      "start": 28.7941,
      "duration": 0.0136,
      "velocity": 127,
      "chip": "ym2612"
    },
    {
      "channel": 3,
      "note": 63,
      "start": 28.8077,
      "duration": 0.0138,
      "velocity": 127,
      "chip": "ym2612"
    },
    {
      "channel": 3,
      "note": 62,
      "start": 28.8215,
      "duration": 0.0141,
      "velocity": 127,
      "chip": "ym2612"
    },
    {
      "channel": 3,
      "note": 61,
      "start": 28.8356,
      "duration": 0.0188,
      "velocity": 127,
      "chip": "ym2612"
    },
    {
      "channel": 1,
      "note": 50,
      "start": 28.8529,
      "duration": 0.1169,
      "velocity": 97,
      "chip": "ym2612"
    },
    {
      "channel": 2,
      "note": 52,
      "start": 28.8534,
      "duration": 0.1185,
      "velocity": 119,
      "chip": "ym2612"
    },
    {
      "channel": 3,
      "note": 60,
      "start": 28.8544,
      "duration": 0.0293,
      "velocity": 127,
      "chip": "ym2612"
    },
    {
      "channel": 3,
      "note": 59,
      "start": 28.8837,
      "duration": 0.0136,
      "velocity": 127,
      "chip": "ym2612"
    },
    {
      "channel": 3,
      "note": 57,
      "start": 28.8972,
      "duration": 0.0138,
      "velocity": 127,
      "chip": "ym2612"
    },
    {
      "channel": 3,
      "note": 56,
      "start": 28.911,
      "duration": 0.0138,
      "velocity": 127,
      "chip": "ym2612"
    },
    {
      "channel": 3,
      "note": 55,
      "start": 28.9248,
      "duration": 0.0137,
      "velocity": 127,
      "chip": "ym2612"
    },
    {
      "channel": 3,
      "note": 54,
      "start": 28.9385,
      "duration": 0.0341,
      "velocity": 127,
      "chip": "ym2612"
    },
    {
      "channel": 0,
      "note": 57,
      "start": 28.9678,
      "duration": 0.3076,
      "velocity": 109,
      "chip": "ym2612"
    },
    {
      "channel": 1,
      "note": 45,
      "start": 28.9699,
      "duration": 0.2014,
      "velocity": 97,
      "chip": "ym2612"
    },
    {
      "channel": 2,
      "note": 45,
      "start": 28.9721,
      "duration": 0.0997,
      "velocity": 119,
      "chip": "ym2612"
    },
    {
      "channel": 3,
      "note": 66,
      "start": 28.9728,
      "duration": 0.0015,
      "velocity": 127,
      "chip": "ym2612"
    },
    {
      "channel": 4,
      "note": 79,
      "start": 28.9734,
      "duration": 0.3047,
      "velocity": 117,
      "chip": "ym2612"
    },
    {
      "channel": 3,
      "note": 65,
      "start": 28.9742,
      "duration": 0.0078,
      "velocity": 127,
      "chip": "ym2612"
    },
    {
      "channel": 3,
      "note": 64,
      "start": 28.982,
      "duration": 0.0158,
      "velocity": 127,
      "chip": "ym2612"
    },
    {
      "channel": 3,
      "note": 63,
      "start": 28.9979,
      "duration": 0.0156,
      "velocity": 127,
      "chip": "ym2612"
    },
    {
      "channel": 3,
      "note": 62,
      "start": 29.0135,
      "duration": 0.0136,
      "velocity": 127,
      "chip": "ym2612"
    },
    {
      "channel": 3,
      "note": 61,
      "start": 29.0271,
      "duration": 0.0271,
      "velocity": 127,
      "chip": "ym2612"
    },
    {
      "channel": 3,
      "note": 60,
      "start": 29.0542,
      "duration": 0.0185,
      "velocity": 127,
      "chip": "ym2612"
    },
    {
      "channel": 2,
      "note": 45,
      "start": 29.072,
      "duration": 3.2384,
      "velocity": 112,
      "chip": "ym2612"
    },
    {
      "channel": 3,
      "note": 58,
      "start": 29.0726,
      "duration": 0.0096,
      "velocity": 127,
      "chip": "ym2612"
    },
    {
      "channel": 3,
      "note": 57,
      "start": 29.0822,
      "duration": 0.0136,
      "velocity": 127,
      "chip": "ym2612"
    },
    {
      "channel": 3,
      "note": 56,
      "start": 29.0958,
      "duration": 0.0138,
      "velocity": 127,
      "chip": "ym2612"
    },
    {
      "channel": 3,
      "note": 55,
      "start": 29.1096,
      "duration": 0.0281,
      "velocity": 127,
      "chip": "ym2612"
    },
    {
      "channel": 3,
      "note": 54,
      "start": 29.1376,
      "duration": 0.0167,
      "velocity": 127,
      "chip": "ym2612"
    },
    {
      "channel": 3,
      "note": 53,
      "start": 29.1543,
      "duration": 0.0182,
      "velocity": 127,
      "chip": "ym2612"
    },
    {
      "channel": 1,
      "note": 45,
      "start": 29.1715,
      "duration": 0.106,
      "velocity": 97,
      "chip": "ym2612"
    },
    {
      "channel": 3,
      "note": 52,
      "start": 29.1725,
      "duration": 0.0144,
      "velocity": 127,
      "chip": "ym2612"
    },
    {
      "channel": 3,
      "note": 51,
      "start": 29.1868,
      "duration": 0.0138,
      "velocity": 127,
      "chip": "ym2612"
    },
    {
      "channel": 3,
      "note": 50,
      "start": 29.2006,
      "duration": 0.0274,
      "velocity": 127,
      "chip": "ym2612"
    },
    {
      "channel": 3,
      "note": 49,
      "start": 29.228,
      "duration": 0.0138,
      "velocity": 127,
      "chip": "ym2612"
    },
    {
      "channel": 3,
      "note": 48,
      "start": 29.2419,
      "duration": 0.0158,
      "velocity": 127,
      "chip": "ym2612"
    },
    {
      "channel": 3,
      "note": 46,
      "start": 29.2577,
      "duration": 0.0211,
      "velocity": 127,
      "chip": "ym2612"
    },
    {
      "channel": 0,
      "note": 57,
      "start": 29.2755,
      "duration": 3.0327,
      "velocity": 119,
      "chip": "ym2612"
    },
    {
      "channel": 1,
      "note": 45,
      "start": 29.2777,
      "duration": 0.2196,
      "velocity": 97,
      "chip": "ym2612"
    },
    {
      "channel": 4,
      "note": 84,
      "start": 29.2783,
      "duration": 0.3158,
      "velocity": 117,
      "chip": "ym2612"
    },
    {
      "channel": 3,
      "note": 45,
      "start": 29.2788,
      "duration": 0.0092,
      "velocity": 127,
      "chip": "ym2612"
    },
    {
      "channel": 3,
      "note": 44,
      "start": 29.288,
      "duration": 0.0314,
      "velocity": 127,
      "chip": "ym2612"
    },
    {
      "channel": 3,
      "note": 43,
      "start": 29.3194,
      "duration": 0.0136,
      "velocity": 127,
      "chip": "ym2612"
    },
    {
      "channel": 3,
      "note": 42,
      "start": 29.333,
      "duration": 0.0156,
      "velocity": 127,
      "chip": "ym2612"
    },
    {
      "channel": 3,
      "note": 41,
      "start": 29.3486,
      "duration": 0.0167,
      "velocity": 127,
      "chip": "ym2612"
    },
    {
      "channel": 3,
      "note": 40,
      "start": 29.3653,
      "duration": 0.0177,
      "velocity": 127,
      "chip": "ym2612"
    },
    {
      "channel": 3,
      "note": 39,
      "start": 29.383,
      "duration": 0.0304,
      "velocity": 127,
      "chip": "ym2612"
    },
    {
      "channel": 3,
      "note": 38,
      "start": 29.4134,
      "duration": 0.0138,
      "velocity": 127,
      "chip": "ym2612"
    },
    {
      "channel": 3,
      "note": 37,
      "start": 29.4272,
      "duration": 0.0139,
      "velocity": 127,
      "chip": "ym2612"
    },
    {
      "channel": 3,
      "note": 36,
      "start": 29.441,
      "duration": 0.0137,
      "velocity": 127,
      "chip": "ym2612"
    },
    {
      "channel": 3,
      "note": 34,
      "start": 29.4547,
      "duration": 0.0136,
      "velocity": 127,
      "chip": "ym2612"
    },
    {
      "channel": 3,
      "note": 33,
      "start": 29.4683,
      "duration": 0.0299,
      "velocity": 127,
      "chip": "ym2612"
    },
    {
      "channel": 1,
      "note": 43,
      "start": 29.4975,
      "duration": 0.2017,
      "velocity": 97,
      "chip": "ym2612"
    },
    {
      "channel": 3,
      "note": 32,
      "start": 29.4982,
      "duration": 0.0131,
      "velocity": 127,
      "chip": "ym2612"
    },
    {
      "channel": 3,
      "note": 31,
      "start": 29.5113,
      "duration": 0.0137,
      "velocity": 127,
      "chip": "ym2612"
    },
    {
      "channel": 3,
      "note": 30,
      "start": 29.525,
      "duration": 0.0138,
      "velocity": 127,
      "chip": "ym2612"
    },
    {
      "channel": 3,
      "note": 29,
      "start": 29.5388,
      "duration": 0.0138,
      "velocity": 127,
      "chip": "ym2612"
    },
    {
      "channel": 3,
      "note": 28,
      "start": 29.5525,
      "duration": 0.0274,
      "velocity": 127,
      "chip": "ym2612"
    },
    {
      "channel": 3,
      "note": 27,
      "start": 29.58,
      "duration": 0.0149,
      "velocity": 127,
      "chip": "ym2612"
    },
    {
      "channel": 4,
      "note": 77,
      "start": 29.5943,
      "duration": 0.2967,
      "velocity": 117,
      "chip": "ym2612"
    },
    {
      "channel": 3,
      "note": 26,
      "start": 29.5948,
      "duration": 0.0148,
      "velocity": 127,
      "chip": "ym2612"
    },
    {
      "channel": 3,
      "note": 25,
      "start": 29.6096,
      "duration": 0.0136,
      "velocity": 127,
      "chip": "ym2612"
    },
    {
      "channel": 3,
      "note": 24,
      "start": 29.6231,
      "duration": 0.0136,
      "velocity": 127,
      "chip": "ym2612"
    },
    {
      "channel": 3,
      "note": 22,
      "start": 29.6367,
      "duration": 0.0289,
      "velocity": 127,
      "chip": "ym2612"
    },
    {
      "channel": 3,
      "note": 21,
      "start": 29.6656,
      "duration": 0.0167,
      "velocity": 127,
      "chip": "ym2612"
    },
    {
      "channel": 3,
      "note": 116,
      "start": 29.6822,
      "duration": 0.0181,
      "velocity": 127,
      "chip": "ym2612"
    },
    {
      "channel": 1,
      "note": 45,
      "start": 29.6994,
      "duration": 0.1909,
      "velocity": 97,
      "chip": "ym2612"
    },
    {
      "channel": 3,
      "note": 115,
      "start": 29.7004,
      "duration": 0.0125,
      "velocity": 127,
      "chip": "ym2612"
    },
    {
      "channel": 3,
      "note": 114,
      "start": 29.7129,
      "duration": 0.0136,
      "velocity": 127,
      "chip": "ym2612"
    },
    {
      "channel": 3,
      "note": 113,
      "start": 29.7264,
      "duration": 0.0271,
      "velocity": 127,
      "chip": "ym2612"
    },
    {
      "channel": 3,
      "note": 112,
      "start": 29.7535,
      "duration": 0.0136,
      "velocity": 127,
      "chip": "ym2612"
    },
    {
      "channel": 3,
      "note": 111,
      "start": 29.7671,
      "duration": 0.0137,
      "velocity": 127,
      "chip": "ym2612"
    },
    {
      "channel": 3,
      "note": 110,
      "start": 29.7808,
      "duration": 0.0141,
      "velocity": 127,
      "chip": "ym2612"
    },
    {
      "channel": 3,
      "note": 109,
      "start": 29.795,
      "duration": 0.0131,
      "velocity": 127,
      "chip": "ym2612"
    },
    {
      "channel": 3,
      "note": 108,
      "start": 29.808,
      "duration": 0.0271,
      "velocity": 127,
      "chip": "ym2612"
    },
    {
      "channel": 3,
      "note": 106,
      "start": 29.8351,
      "duration": 0.0136,
      "velocity": 127,
      "chip": "ym2612"
    },
    {
      "channel": 3,
      "note": 105,
      "start": 29.8487,
      "duration": 0.0138,
      "velocity": 127,
      "chip": "ym2612"
    },
    {
      "channel": 3,
      "note": 104,
      "start": 29.8625,
      "duration": 0.0138,
      "velocity": 127,
      "chip": "ym2612"
    },
    {
      "channel": 3,
      "note": 103,
      "start": 29.8763,
      "duration": 0.0158,
      "velocity": 127,
      "chip": "ym2612"
    },
    {
      "channel": 1,
      "note": 45,
      "start": 29.8905,
      "duration": 0.1151,
      "velocity": 97,
      "chip": "ym2612"
    },
    {
      "channel": 4,
      "note": 79,
      "start": 29.8912,
      "duration": 0.3209,
      "velocity": 117,
      "chip": "ym2612"
    },
    {
      "channel": 3,
      "note": 102,
      "start": 29.8921,
      "duration": 0.0258,
      "velocity": 127,
      "chip": "ym2612"
    },
    {
      "channel": 3,
      "note": 101,
      "start": 29.9178,
      "duration": 0.0139,
      "velocity": 127,
      "chip": "ym2612"
    },
    {
      "channel": 3,
      "note": 100,
      "start": 29.9317,
      "duration": 0.0158,
      "velocity": 127,
      "chip": "ym2612"
    },
    {
      "channel": 3,
      "note": 99,
      "start": 29.9475,
      "duration": 0.0156,
      "velocity": 127,
      "chip": "ym2612"
    },
    {
      "channel": 3,
      "note": 98,
      "start": 29.9632,
      "duration": 0.0136,
      "velocity": 127,
      "chip": "ym2612"
    },
    {
      "channel": 3,
      "note": 97,
      "start": 29.9767,
      "duration": 0.0301,
      "velocity": 127,
      "chip": "ym2612"
    },
    {
      "channel": 1,
      "note": 45,
      "start": 30.0058,
      "duration": 0.2056,
      "velocity": 97,
      "chip": "ym2612"
    },
    {
      "channel": 3,
      "note": 96,
      "start": 30.0068,
      "duration": 0.0112,
      "velocity": 127,
      "chip": "ym2612"
    },
    {
      "channel": 3,
      "note": 94,
      "start": 30.018,
      "duration": 0.0156,
      "velocity": 127,
      "chip": "ym2612"
    },
    {
      "channel": 3,
      "note": 93,
      "start": 30.0337,
      "duration": 0.0136,
      "velocity": 127,
      "chip": "ym2612"
    },
    {
      "channel": 3,
      "note": 92,
      "start": 30.0472,
      "duration": 0.0138,
      "velocity": 127,
      "chip": "ym2612"
    },
    {
      "channel": 3,
      "note": 91,
      "start": 30.061,
      "duration": 0.0272,
      "velocity": 127,
      "chip": "ym2612"
    },
    {
      "channel": 3,
      "note": 90,
      "start": 30.0882,
      "duration": 0.0143,
      "velocity": 127,
      "chip": "ym2612"
    },
    {
      "channel": 3,
      "note": 89,
      "start": 30.1025,
      "duration": 0.0152,
      "velocity": 127,
      "chip": "ym2612"
    },
    {
      "channel": 3,
      "note": 88,
      "start": 30.1176,
      "duration": 0.0156,
      "velocity": 127,
      "chip": "ym2612"
    },
    {
      "channel": 3,
      "note": 87,
      "start": 30.1333,
      "duration": 0.0136,
      "velocity": 127,
      "chip": "ym2612"
    },
    {
      "channel": 3,
      "note": 86,
      "start": 30.1468,
      "duration": 0.0294,
      "velocity": 127,
      "chip": "ym2612"
    },
    {
      "channel": 3,
      "note": 85,
      "start": 30.1762,
      "duration": 0.0167,
      "velocity": 127,
      "chip": "ym2612"
    },
    {
      "channel": 3,
      "note": 84,
      "start": 30.1929,
      "duration": 0.0202,
      "velocity": 127,
      "chip": "ym2612"
    },
    {
      "channel": 1,
      "note": 43,
      "start": 30.2116,
      "duration": 0.1012,
      "velocity": 97,
      "chip": "ym2612"
    },
    {
      "channel": 4,
      "note": 84,
      "start": 30.2123,
      "duration": 0.2008,
      "velocity": 117,
      "chip": "ym2612"
    },
    {
      "channel": 3,
      "note": 83,
      "start": 30.2131,
      "duration": 0.0108,
      "velocity": 127,
      "chip": "ym2612"
    },
    {
      "channel": 3,
      "note": 81,
      "start": 30.224,
      "duration": 0.0138,
      "velocity": 127,
      "chip": "ym2612"
    },
    {
      "channel": 3,
      "note": 80,
      "start": 30.2378,
      "duration": 0.0315,
      "velocity": 127,
      "chip": "ym2612"
    },
    {
      "channel": 3,
      "note": 79,
      "start": 30.2693,
      "duration": 0.0138,
      "velocity": 127,
      "chip": "ym2612"
    },
    {
      "channel": 3,
      "note": 78,
      "start": 30.2831,
      "duration": 0.0157,
      "velocity": 127,
      "chip": "ym2612"
    },
    {
      "channel": 3,
      "note": 77,
      "start": 30.2988,
      "duration": 0.0148,
      "velocity": 127,
      "chip": "ym2612"
    },
    {
      "channel": 1,
      "note": 40,
      "start": 30.313,
      "duration": 0.0994,
      "velocity": 97,
      "chip": "ym2612"
    },
    {
      "channel": 3,
      "note": 76,
      "start": 30.3137,
      "duration": 0.0146,
      "velocity": 127,
      "chip": "ym2612"
    },
    {
      "channel": 3,
      "note": 75,
      "start": 30.3283,
      "duration": 0.0271,
      "velocity": 127,
      "chip": "ym2612"
    },
    {
      "channel": 3,
      "note": 74,
      "start": 30.3554,
      "duration": 0.0136,
      "velocity": 127,
      "chip": "ym2612"
    },
    {
      "channel": 3,
      "note": 73,
      "start": 30.3689,
      "duration": 0.0157,
      "velocity": 127,
      "chip": "ym2612"
    },
    {
      "channel": 3,
      "note": 72,
      "start": 30.3846,
      "duration": 0.0138,
      "velocity": 127,
      "chip": "ym2612"
    },
    {
      "channel": 3,
      "note": 71,
      "start": 30.3984,
      "duration": 0.0154,
      "velocity": 127,
      "chip": "ym2612"
    },
    {
      "channel": 1,
      "note": 38,
      "start": 30.4126,
      "duration": 0.1271,
      "velocity": 97,
      "chip": "ym2612"
    },
    {
      "channel": 4,
      "note": 77,
      "start": 30.4133,
      "duration": 0.2284,
      "velocity": 117,
      "chip": "ym2612"
    },
    {
      "channel": 3,
      "note": 69,
      "start": 30.4138,
      "duration": 0.03,
      "velocity": 127,
      "chip": "ym2612"
    },
    {
      "channel": 3,
      "note": 68,
      "start": 30.4437,
      "duration": 0.0158,
      "velocity": 127,
      "chip": "ym2612"
    },
    {
      "channel": 3,
      "note": 67,
      "start": 30.4595,
      "duration": 0.0158,
      "velocity": 127,
      "chip": "ym2612"
    },
    {
      "channel": 3,
      "note": 66,
      "start": 30.4754,
      "duration": 0.0156,
      "velocity": 127,
      "chip": "ym2612"
    },
    {
      "channel": 3,
      "note": 65,
      "start": 30.491,
      "duration": 0.015,
      "velocity": 127,
      "chip": "ym2612"
    },
    {
      "channel": 3,
      "note": 64,
      "start": 30.506,
      "duration": 0.0348,
      "velocity": 127,
      "chip": "ym2612"
    },
    {
      "channel": 1,
      "note": 40,
      "start": 30.5398,
      "duration": 0.1012,
      "velocity": 97,
      "chip": "ym2612"
    },
    {
      "channel": 3,
      "note": 63,
      "start": 30.5408,
      "duration": 0.0126,
      "velocity": 127,
      "chip": "ym2612"
    },
    {
      "channel": 3,
      "note": 62,
      "start": 30.5534,
      "duration": 0.0156,
      "velocity": 127,
      "chip": "ym2612"
    },
    {
      "channel": 3,
      "note": 61,
      "start": 30.569,
      "duration": 0.0136,
      "velocity": 127,
      "chip": "ym2612"
    },
    {
      "channel": 3,
      "note": 60,
      "start": 30.5825,
      "duration": 0.0138,
      "velocity": 127,
      "chip": "ym2612"
    },
    {
      "channel": 3,
      "note": 59,
      "start": 30.5963,
      "duration": 0.0272,
      "velocity": 127,
      "chip": "ym2612"
    },
    {
      "channel": 3,
      "note": 57,
      "start": 30.6235,
      "duration": 0.0192,
      "velocity": 127,
      "chip": "ym2612"
    },
    {
      "channel": 1,
      "note": 33,
      "start": 30.6412,
      "duration": 1.7689,
      "velocity": 119,
      "chip": "ym2612"
    },
    {
      "channel": 4,
      "note": 79,
      "start": 30.6419,
      "duration": 0.305,
      "velocity": 117,
      "chip": "ym2612"
    },
    {
      "channel": 3,
      "note": 56,
      "start": 30.6427,
      "duration": 0.0093,
      "velocity": 127,
      "chip": "ym2612"
    },
    {
      "channel": 3,
      "note": 55,
      "start": 30.652,
      "duration": 0.0136,
      "velocity": 127,
      "chip": "ym2612"
    },
    {
      "channel": 3,
      "note": 54,
      "start": 30.6656,
      "duration": 0.0138,
      "velocity": 127,
      "chip": "ym2612"
    },
    {
      "channel": 3,
      "note": 53,
      "start": 30.6794,
      "duration": 0.0272,
      "velocity": 127,
      "chip": "ym2612"
    },
    {
      "channel": 3,
      "note": 52,
      "start": 30.7066,
      "duration": 0.0138,
      "velocity": 127,
      "chip": "ym2612"
    },
    {
      "channel": 3,
      "note": 51,
      "start": 30.7203,
      "duration": 0.0163,
      "velocity": 127,
      "chip": "ym2612"
    },
    {
      "channel": 3,
      "note": 50,
      "start": 30.7366,
      "duration": 0.0132,
      "velocity": 127,
      "chip": "ym2612"
    },
    {
      "channel": 3,
      "note": 49,
      "start": 30.7498,
      "duration": 0.0138,
      "velocity": 127,
      "chip": "ym2612"
    },
    {
      "channel": 3,
      "note": 48,
      "start": 30.7635,
      "duration": 0.0274,
      "velocity": 127,
      "chip": "ym2612"
    },
    {
      "channel": 3,
      "note": 47,
      "start": 30.791,
      "duration": 0.0159,
      "velocity": 127,
      "chip": "ym2612"
    },
    {
      "channel": 3,
      "note": 45,
      "start": 30.8069,
      "duration": 0.0167,
      "velocity": 127,
      "chip": "ym2612"
    },
    {
      "channel": 3,
      "note": 44,
      "start": 30.8235,
      "duration": 0.0176,
      "velocity": 127,
      "chip": "ym2612"
    },
    {
      "channel": 3,
      "note": 43,
      "start": 30.8412,
      "duration": 0.0149,
      "velocity": 127,
      "chip": "ym2612"
    },
    {
      "channel": 3,
      "note": 42,
      "start": 30.8561,
      "duration": 0.0315,
      "velocity": 127,
      "chip": "ym2612"
    },
    {
      "channel": 3,
      "note": 41,
      "start": 30.8876,
      "duration": 0.0138,
      "velocity": 127,
      "chip": "ym2612"
    },
    {
      "channel": 3,
      "note": 40,
      "start": 30.9014,
      "duration": 0.0158,
      "velocity": 127,
      "chip": "ym2612"
    },
    {
      "channel": 3,
      "note": 39,
      "start": 30.9172,
      "duration": 0.0156,
      "velocity": 127,
      "chip": "ym2612"
    },
    {
      "channel": 3,
      "note": 38,
      "start": 30.9329,
      "duration": 0.0146,
      "velocity": 127,
      "chip": "ym2612"
    },
    {
      "channel": 4,
      "note": 84,
      "start": 30.947,
      "duration": 0.3212,
      "velocity": 117,
      "chip": "ym2612"
    },
    {
      "channel": 3,
      "note": 37,
      "start": 30.9475,
      "duration": 0.0263,
      "velocity": 127,
      "chip": "ym2612"
    },
    {
      "channel": 3,
      "note": 36,
      "start": 30.9738,
      "duration": 0.0138,
      "velocity": 127,
      "chip": "ym2612"
    },
    {
      "channel": 3,
      "note": 35,
      "start": 30.9876,
      "duration": 0.0157,
      "velocity": 127,
      "chip": "ym2612"
    },
    {
      "channel": 3,
      "note": 33,
      "start": 31.0032,
      "duration": 0.0165,
      "velocity": 127,
      "chip": "ym2612"
    },
    {
      "channel": 3,
      "note": 32,
      "start": 31.0197,
      "duration": 0.0167,
      "velocity": 127,
      "chip": "ym2612"
    },
    {
      "channel": 3,
      "note": 31,
      "start": 31.0364,
      "duration": 0.0343,
      "velocity": 127,
      "chip": "ym2612"
    },
    {
      "channel": 3,
      "note": 30,
      "start": 31.0707,
      "duration": 0.0128,
      "velocity": 127,
      "chip": "ym2612"
    },
    {
      "channel": 3,
      "note": 29,
      "start": 31.0835,
      "duration": 0.0157,
      "velocity": 127,
      "chip": "ym2612"
    },
    {
      "channel": 3,
      "note": 28,
      "start": 31.0992,
      "duration": 0.0138,
      "velocity": 127,
      "chip": "ym2612"
    },
    {
      "channel": 3,
      "note": 27,
      "start": 31.1129,
      "duration": 0.0137,
      "velocity": 127,
      "chip": "ym2612"
    },
    {
      "channel": 3,
      "note": 26,
      "start": 31.1266,
      "duration": 0.0273,
      "velocity": 127,
      "chip": "ym2612"
    },
    {
      "channel": 3,
      "note": 25,
      "start": 31.1539,
      "duration": 0.0143,
      "velocity": 127,
      "chip": "ym2612"
    },
    {
      "channel": 3,
      "note": 24,
      "start": 31.1682,
      "duration": 0.0134,
      "velocity": 127,
      "chip": "ym2612"
    },
    {
      "channel": 3,
      "note": 23,
      "start": 31.1816,
      "duration": 0.0138,
      "velocity": 127,
      "chip": "ym2612"
    },
    {
      "channel": 3,
      "note": 21,
      "start": 31.1954,
      "duration": 0.0137,
      "velocity": 127,
      "chip": "ym2612"
    },
    {
      "channel": 3,
      "note": 116,
      "start": 31.209,
      "duration": 0.0314,
      "velocity": 127,
      "chip": "ym2612"
    },
    {
      "channel": 3,
      "note": 115,
      "start": 31.2405,
      "duration": 0.0136,
      "velocity": 127,
      "chip": "ym2612"
    },
    {
      "channel": 3,
      "note": 114,
      "start": 31.254,
      "duration": 0.0149,
      "velocity": 127,
      "chip": "ym2612"
    },
    {
      "channel": 4,
      "note": 77,
      "start": 31.2685,
      "duration": 0.3144,
      "velocity": 117,
      "chip": "ym2612"
    },
    {
      "channel": 3,
      "note": 113,
      "start": 31.269,
      "duration": 0.0126,
      "velocity": 127,
      "chip": "ym2612"
    },
    {
      "channel": 3,
      "note": 112,
      "start": 31.2816,
      "duration": 0.0138,
      "velocity": 127,
      "chip": "ym2612"
    },
    {
      "channel": 3,
      "note": 111,
      "start": 31.2954,
      "duration": 0.0272,
      "velocity": 127,
      "chip": "ym2612"
    },
    {
      "channel": 3,
      "note": 110,
      "start": 31.3226,
      "duration": 0.0138,
      "velocity": 127,
      "chip": "ym2612"
    },
    {
      "channel": 3,
      "note": 109,
      "start": 31.3363,
      "duration": 0.0156,
      "velocity": 127,
      "chip": "ym2612"
    },
    {
      "channel": 3,
      "note": 108,
      "start": 31.3519,
      "duration": 0.0176,
      "velocity": 127,
      "chip": "ym2612"
    },
    {
      "channel": 3,
      "note": 107,
      "start": 31.3695,
      "duration": 0.0128,
      "velocity": 127,
      "chip": "ym2612"
    },
    {
      "channel": 3,
      "note": 105,
      "start": 31.3824,
      "duration": 0.0271,
      "velocity": 127,
      "chip": "ym2612"
    },
    {
      "channel": 3,
      "note": 104,
      "start": 31.4095,
      "duration": 0.0157,
      "velocity": 127,
      "chip": "ym2612"
    },
    {
      "channel": 3,
      "note": 103,
      "start": 31.4252,
      "duration": 0.0156,
      "velocity": 127,
      "chip": "ym2612"
    },
    {
      "channel": 3,
      "note": 102,
      "start": 31.4407,
      "duration": 0.0138,
      "velocity": 127,
      "chip": "ym2612"
    },
    {
      "channel": 3,
      "note": 101,
      "start": 31.4545,
      "duration": 0.0158,
      "velocity": 127,
      "chip": "ym2612"
    },
    {
      "channel": 3,
      "note": 71,
      "start": 31.4705,
      "duration": 0.0005,
      "velocity": 127,
      "chip": "ym2612"
    },
    {
      "channel": 3,
      "note": 70,
      "start": 31.471,
      "duration": 0.0249,
      "velocity": 127,
      "chip": "ym2612"
    },
    {
      "channel": 3,
      "note": 68,
      "start": 31.4958,
      "duration": 0.0136,
      "velocity": 127,
      "chip": "ym2612"
    },
    {
      "channel": 3,
      "note": 67,
      "start": 31.5094,
      "duration": 0.0158,
      "velocity": 127,
      "chip": "ym2612"
    },
    {
      "channel": 3,
      "note": 66,
      "start": 31.5252,
      "duration": 0.0138,
      "velocity": 127,
      "chip": "ym2612"
    },
    {
      "channel": 3,
      "note": 66,
      "start": 31.539,
      "duration": 0.0137,
      "velocity": 127,
      "chip": "ym2612"
    },
    {
      "channel": 3,
      "note": 65,
      "start": 31.5527,
      "duration": 0.0296,
      "velocity": 127,
      "chip": "ym2612"
    },
    {
      "channel": 3,
      "note": 71,
      "start": 31.5824,
      "duration": 0.0014,
      "velocity": 127,
      "chip": "ym2612"
    },
    {
      "channel": 4,
      "note": 79,
      "start": 31.583,
      "duration": 0.3064,
      "velocity": 117,
      "chip": "ym2612"
    },
    {
      "channel": 3,
      "note": 70,
      "start": 31.5838,
      "duration": 0.0123,
      "velocity": 127,
      "chip": "ym2612"
    },
    {
      "channel": 3,
      "note": 68,
      "start": 31.5961,
      "duration": 0.0156,
      "velocity": 127,
      "chip": "ym2612"
    },
    {
      "channel": 3,
      "note": 67,
      "start": 31.6117,
      "duration": 0.0158,
      "velocity": 127,
      "chip": "ym2612"
    },
    {
      "channel": 3,
      "note": 66,
      "start": 31.6275,
      "duration": 0.0138,
      "velocity": 127,
      "chip": "ym2612"
    },
    {
      "channel": 3,
      "note": 66,
      "start": 31.6412,
      "duration": 0.0274,
      "velocity": 127,
      "chip": "ym2612"
    },
    {
      "channel": 3,
      "note": 65,
      "start": 31.6686,
      "duration": 0.015,
      "velocity": 127,
      "chip": "ym2612"
    },
    {
      "channel": 3,
      "note": 64,
      "start": 31.6837,
      "duration": 0.0148,
      "velocity": 127,
      "chip": "ym2612"
    },
    {
      "channel": 3,
      "note": 63,
      "start": 31.6984,
      "duration": 0.0136,
      "velocity": 127,
      "chip": "ym2612"
    },
    {
      "channel": 3,
      "note": 61,
      "start": 31.712,
      "duration": 0.0138,
      "velocity": 127,
      "chip": "ym2612"
    },
    {
      "channel": 3,
      "note": 60,
      "start": 31.7257,
      "duration": 0.0272,
      "velocity": 127,
      "chip": "ym2612"
    },
    {
      "channel": 3,
      "note": 59,
      "start": 31.7529,
      "duration": 0.0138,
      "velocity": 127,
      "chip": "ym2612"
    },
    {
      "channel": 3,
      "note": 58,
      "start": 31.7667,
      "duration": 0.0176,
      "velocity": 127,
      "chip": "ym2612"
    },
    {
      "channel": 3,
      "note": 71,
      "start": 31.7845,
      "duration": 0.0009,
      "velocity": 127,
      "chip": "ym2612"
    },
    {
      "channel": 3,
      "note": 70,
      "start": 31.7854,
      "duration": 0.0129,
      "velocity": 127,
      "chip": "ym2612"
    },
    {
      "channel": 3,
      "note": 68,
      "start": 31.7983,
      "duration": 0.0138,
      "velocity": 127,
      "chip": "ym2612"
    },
    {
      "channel": 3,
      "note": 67,
      "start": 31.8121,
      "duration": 0.0315,
      "velocity": 127,
      "chip": "ym2612"
    },
    {
      "channel": 3,
      "note": 66,
      "start": 31.8436,
      "duration": 0.0138,
      "velocity": 127,
      "chip": "ym2612"
    },
    {
      "channel": 3,
      "note": 66,
      "start": 31.8575,
      "duration": 0.0158,
      "velocity": 127,
      "chip": "ym2612"
    },
    {
      "channel": 3,
      "note": 65,
      "start": 31.8733,
      "duration": 0.0171,
      "velocity": 127,
      "chip": "ym2612"
    },
    {
      "channel": 4,
      "note": 84,
      "start": 31.8896,
      "duration": 0.2074,
      "velocity": 117,
      "chip": "ym2612"
    },
    {
      "channel": 3,
      "note": 64,
      "start": 31.8904,
      "duration": 0.0124,
      "velocity": 127,
      "chip": "ym2612"
    },
    {
      "channel": 3,
      "note": 63,
      "start": 31.9028,
      "duration": 0.0271,
      "velocity": 127,
      "chip": "ym2612"
    },
    {
      "channel": 3,
      "note": 61,
      "start": 31.9299,
      "duration": 0.0136,
      "velocity": 127,
      "chip": "ym2612"
    },
    {
      "channel": 3,
      "note": 60,
      "start": 31.9435,
      "duration": 0.0138,
      "velocity": 127,
      "chip": "ym2612"
    },
    {
      "channel": 3,
      "note": 59,
      "start": 31.9573,
      "duration": 0.0138,
      "velocity": 127,
      "chip": "ym2612"
    },
    {
      "channel": 3,
      "note": 58,
      "start": 31.971,
      "duration": 0.0157,
      "velocity": 127,
      "chip": "ym2612"
    },
    {
      "channel": 3,
      "note": 67,
      "start": 31.987,
      "duration": 0.0005,
      "velocity": 127,
      "chip": "ym2612"
    },
    {
      "channel": 3,
      "note": 66,
      "start": 31.9875,
      "duration": 0.0249,
      "velocity": 127,
      "chip": "ym2612"
    },
    {
      "channel": 3,
      "note": 65,
      "start": 32.0124,
      "duration": 0.0138,
      "velocity": 127,
      "chip": "ym2612"
    },
    {
      "channel": 3,
      "note": 64,
      "start": 32.0261,
      "duration": 0.0139,
      "velocity": 127,
      "chip": "ym2612"
    },
    {
      "channel": 3,
      "note": 63,
      "start": 32.04,
      "duration": 0.0137,
      "velocity": 127,
      "chip": "ym2612"
    },
    {
      "channel": 3,
      "note": 62,
      "start": 32.0537,
      "duration": 0.0136,
      "velocity": 127,
      "chip": "ym2612"
    },
    {
      "channel": 3,
      "note": 61,
      "start": 32.0672,
      "duration": 0.0292,
      "velocity": 127,
      "chip": "ym2612"
    },
    {
      "channel": 3,
      "note": 67,
      "start": 32.0966,
      "duration": 0.0011,
      "velocity": 127,
      "chip": "ym2612"
    },
    {
      "channel": 4,
      "note": 77,
      "start": 32.0972,
      "duration": 6.351,
      "velocity": 117,
      "chip": "ym2612"
    },
    {
      "channel": 3,
      "note": 66,
      "start": 32.0977,
      "duration": 0.0126,
      "velocity": 127,
      "chip": "ym2612"
    },
    {
      "channel": 3,
      "note": 65,
      "start": 32.1103,
      "duration": 0.0156,
      "velocity": 127,
      "chip": "ym2612"
    },
    {
      "channel": 3,
      "note": 64,
      "start": 32.1259,
      "duration": 0.0138,
      "velocity": 127,
      "chip": "ym2612"
    },
    {
      "channel": 3,
      "note": 63,
      "start": 32.1396,
      "duration": 0.0138,
      "velocity": 127,
      "chip": "ym2612"
    },
    {
      "channel": 3,
      "note": 62,
      "start": 32.1534,
      "duration": 0.0315,
      "velocity": 127,
      "chip": "ym2612"
    },
    {
      "channel": 3,
      "note": 61,
      "start": 32.1849,
      "duration": 0.0177,
      "velocity": 127,
      "chip": "ym2612"
    },
    {
      "channel": 3,
      "note": 60,
      "start": 32.2027,
      "duration": 0.0149,
      "velocity": 127,
      "chip": "ym2612"
    },
    {
      "channel": 3,
      "note": 59,
      "start": 32.2175,
      "duration": 0.0138,
      "velocity": 127,
      "chip": "ym2612"
    },
    {
      "channel": 3,
      "note": 57,
      "start": 32.2313,
      "duration": 0.0138,
      "velocity": 127,
      "chip": "ym2612"
    },
    {
      "channel": 3,
      "note": 56,
      "start": 32.2451,
      "duration": 0.0315,
      "velocity": 127,
      "chip": "ym2612"
    },
    {
      "channel": 3,
      "note": 55,
      "start": 32.2766,
      "duration": 0.0138,
      "velocity": 127,
      "chip": "ym2612"
    },
    {
      "channel": 3,
      "note": 54,
      "start": 32.2905,
      "duration": 0.0221,
      "velocity": 117,
      "chip": "ym2612"
    },
    {
      "channel": 0,
      "note": 45,
      "start": 32.3083,
      "duration": 0.2125,
      "velocity": 119,
      "chip": "ym2612"
    },
    {
      "channel": 2,
      "note": 57,
      "start": 32.3106,
      "duration": 0.2125,
      "velocity": 109,
      "chip": "ym2612"
    },
    {
      "channel": 3,
      "note": 79,
      "start": 32.3127,
      "duration": 0.3309,
      "velocity": 117,
      "chip": "ym2612"
    },
    {
      "channel": 1,
      "note": 45,
      "start": 32.4102,
      "duration": 0.2308,
      "velocity": 119,
      "chip": "ym2612"
    },
    {
      "channel": 0,
      "note": 48,
      "start": 32.521,
      "duration": 0.1193,
      "velocity": 119,
      "chip": "ym2612"
    },
    {
      "channel": 2,
      "note": 57,
      "start": 32.5233,
      "duration": 0.1198,
      "velocity": 112,
      "chip": "ym2612"
    },
    {
      "channel": 0,
      "note": 50,
      "start": 32.6405,
      "duration": 0.1127,
      "velocity": 119,
      "chip": "ym2612"
    },
    {
      "channel": 1,
      "note": 48,
      "start": 32.6411,
      "duration": 0.1128,
      "velocity": 119,
      "chip": "ym2612"
    },
    {
      "channel": 2,
      "note": 55,
      "start": 32.6432,
      "duration": 0.217,
      "velocity": 109,
      "chip": "ym2612"
    },
    {
      "channel": 3,
      "note": 84,
      "start": 32.6438,
      "duration": 0.319,
      "velocity": 117,
      "chip": "ym2612"
    },
    {
      "channel": 0,
      "note": 45,
      "start": 32.7535,
      "duration": 0.104,
      "velocity": 119,
      "chip": "ym2612"
    },
    {
      "channel": 1,
      "note": 50,
      "start": 32.754,
      "duration": 0.104,
      "velocity": 119,
      "chip": "ym2612"
    },
    {
      "channel": 0,
      "note": 48,
      "start": 32.8576,
      "duration": 0.1019,
      "velocity": 119,
      "chip": "ym2612"
    },
    {
      "channel": 1,
      "note": 45,
      "start": 32.8582,
      "duration": 0.1019,
      "velocity": 119,
      "chip": "ym2612"
    },
    {
      "channel": 2,
      "note": 55,
      "start": 32.8604,
      "duration": 0.1019,
      "velocity": 112,
      "chip": "ym2612"
    },
    {
      "channel": 0,
      "note": 50,
      "start": 32.9597,
      "duration": 0.1058,
      "velocity": 119,
      "chip": "ym2612"
    },
    {
      "channel": 1,
      "note": 48,
      "start": 32.9602,
      "duration": 0.1058,
      "velocity": 119,
      "chip": "ym2612"
    },
    {
      "channel": 2,
      "note": 57,
      "start": 32.9624,
      "duration": 0.2249,
      "velocity": 109,
      "chip": "ym2612"
    },
    {
      "channel": 3,
      "note": 77,
      "start": 32.9629,
      "duration": 0.3251,
      "velocity": 117,
      "chip": "ym2612"
    },
    {
      "channel": 0,
      "note": 45,
      "start": 33.0656,
      "duration": 0.2217,
      "velocity": 119,
      "chip": "ym2612"
    },
    {
      "channel": 1,
      "note": 50,
      "start": 33.0662,
      "duration": 0.1189,
      "velocity": 119,
      "chip": "ym2612"
    },
    {
      "channel": 1,
      "note": 45,
      "start": 33.1853,
      "duration": 0.2066,
      "velocity": 119,
      "chip": "ym2612"
    },
    {
      "channel": 2,
      "note": 57,
      "start": 33.1875,
      "duration": 0.5314,
      "velocity": 112,
      "chip": "ym2612"
    },
    {
      "channel": 0,
      "note": 45,
      "start": 33.2875,
      "duration": 0.1037,
      "velocity": 119,
      "chip": "ym2612"
    },
    {
      "channel": 3,
      "note": 79,
      "start": 33.2882,
      "duration": 0.3171,
      "velocity": 117,
      "chip": "ym2612"
    },
    {
      "channel": 0,
      "note": 48,
      "start": 33.3915,
      "duration": 0.0998,
      "velocity": 119,
      "chip": "ym2612"
    },
    {
      "channel": 1,
      "note": 45,
      "start": 33.392,
      "duration": 0.0997,
      "velocity": 119,
      "chip": "ym2612"
    },
    {
      "channel": 0,
      "note": 50,
      "start": 33.4914,
      "duration": 0.1127,
      "velocity": 119,
      "chip": "ym2612"
    },
    {
      "channel": 1,
      "note": 48,
      "start": 33.492,
      "duration": 0.1127,
      "velocity": 119,
      "chip": "ym2612"
    },
    {
      "channel": 0,
      "note": 45,
      "start": 33.6042,
      "duration": 0.1119,
      "velocity": 119,
      "chip": "ym2612"
    },
    {
      "channel": 1,
      "note": 50,
      "start": 33.6048,
      "duration": 0.1119,
      "velocity": 119,
      "chip": "ym2612"
    },
    {
      "channel": 3,
      "note": 84,
      "start": 33.6055,
      "duration": 0.2159,
      "velocity": 117,
      "chip": "ym2612"
    },
    {
      "channel": 0,
      "note": 48,
      "start": 33.7163,
      "duration": 0.1017,
      "velocity": 119,
      "chip": "ym2612"
    },
    {
      "channel": 1,
      "note": 45,
      "start": 33.7168,
      "duration": 0.1017,
      "velocity": 119,
      "chip": "ym2612"
    },
    {
      "channel": 2,
      "note": 52,
      "start": 33.719,
      "duration": 0.1018,
      "velocity": 112,
      "chip": "ym2612"
    },
    {
      "channel": 0,
      "note": 50,
      "start": 33.8181,
      "duration": 4.6301,
      "velocity": 119,
      "chip": "ym2612"
    },
    {
      "channel": 1,
      "note": 48,
      "start": 33.8187,
      "duration": 0.1052,
      "velocity": 119,
      "chip": "ym2612"
    },
    {
      "channel": 2,
      "note": 55,
      "start": 33.821,
      "duration": 0.1034,
      "velocity": 112,
      "chip": "ym2612"
    },
    {
      "channel": 3,
      "note": 77,
      "start": 33.8216,
      "duration": 4.6266,
      "velocity": 117,
      "chip": "ym2612"
    },
    {
      "channel": 1,
      "note": 50,
      "start": 33.924,
      "duration": 4.5242,
      "velocity": 119,
      "chip": "ym2612"
    },
    {
      "channel": 2,
      "note": 52,
      "start": 33.9246,
      "duration": 4.5237,
      "velocity": 112,
      "chip": "ym2612"
    }
  ]
}