{
  "track_name": "09 - Roller Coaster",
  "duration_sec": 147.165,
  "sample_rate": 44100,
  "note_count": 2520,
  "unique_pitches": 50,
  "pitch_range": 55,
  "avg_note_duration": 0.1955,
  "reconstruction_stats": {
    "notes_reconstructed": 2520,
    "keyon_events": 2520,
    "keyoff_events": 2518,
    "orphan_keyons": 2,
    "unique_pitches": 50,
    "pitch_range": 55,
    "avg_duration_sec": 0.1955
  },
  "metadata": {
    "source": "N\\Nightmare Circus\\09 - Roller Coaster.vgz"
  },
  "notes": [
    {
      "channel": 0,
      "note": 69,
      "start": 0.0,
      "duration": 15.9105,
      "velocity": 106,
      "chip": "ym2612"
    },
    {
      "channel": 1,
      "note": 52,
      "start": 0.0,
      "duration": 0.1937,
      "velocity": 109,
      "chip": "ym2612"
    },
    {
      "channel": 2,
      "note": 45,
      "start": 0.0027,
      "duration": 0.1745,
      "velocity": 109,
      "chip": "ym2612"
    },
    {
      "channel": 3,
      "note": 45,
      "start": 0.3479,
      "duration": 0.1125,
      "velocity": 108,
      "chip": "ym2612"
    },
    {
      "channel": 4,
      "note": 52,
      "start": 0.351,
      "duration": 0.1096,
      "velocity": 108,
      "chip": "ym2612"
    },
    {
      "channel": 5,
      "note": 45,
      "start": 0.5982,
      "duration": 0.2623,
      "velocity": 114,
      "chip": "ym2612"
    },
    {
      "channel": 1,
      "note": 45,
      "start": 0.7142,
      "duration": 0.2129,
      "velocity": 109,
      "chip": "ym2612"
    },
    {
      "channel": 2,
      "note": 52,
      "start": 0.7169,
      "duration": 0.2104,
      "velocity": 109,
      "chip": "ym2612"
    },
    {
      "channel": 3,
      "note": 52,
      "start": 0.9838,
      "duration": 0.0767,
      "velocity": 108,
      "chip": "ym2612"
    },
    {
      "channel": 4,
      "note": 45,
      "start": 0.9864,
      "duration": 0.0742,
      "velocity": 108,
      "chip": "ym2612"
    },
    {
      "channel": 5,
      "note": 45,
      "start": 0.9898,
      "duration": 0.0373,
      "velocity": 114,
      "chip": "ym2612"
    },
    {
      "channel": 3,
      "note": 52,
      "start": 1.0976,
      "duration": 0.0795,
      "velocity": 108,
      "chip": "ym2612"
    },
    {
      "channel": 4,
      "note": 45,
      "start": 1.1003,
      "duration": 0.0769,
      "velocity": 108,
      "chip": "ym2612"
    },
    {
      "channel": 5,
      "note": 45,
      "start": 1.1034,
      "duration": 0.0905,
      "velocity": 114,
      "chip": "ym2612"
    },
    {
      "channel": 1,
      "note": 41,
      "start": 1.5977,
      "duration": 0.2293,
      "velocity": 109,
      "chip": "ym2612"
    },
    {
      "channel": 2,
      "note": 44,
      "start": 1.6005,
      "duration": 0.2268,
      "velocity": 109,
      "chip": "ym2612"
    },
    {
      "channel": 3,
      "note": 48,
      "start": 1.8478,
      "duration": 0.1126,
      "velocity": 108,
      "chip": "ym2612"
    },
    {
      "channel": 4,
      "note": 41,
      "start": 1.8505,
      "duration": 0.1101,
      "velocity": 108,
      "chip": "ym2612"
    },
    {
      "channel": 1,
      "note": 52,
      "start": 1.9827,
      "duration": 0.2277,
      "velocity": 109,
      "chip": "ym2612"
    },
    {
      "channel": 2,
      "note": 45,
      "start": 1.9861,
      "duration": 0.1912,
      "velocity": 109,
      "chip": "ym2612"
    },
    {
      "channel": 3,
      "note": 45,
      "start": 2.3483,
      "duration": 0.1456,
      "velocity": 108,
      "chip": "ym2612"
    },
    {
      "channel": 4,
      "note": 52,
      "start": 2.3511,
      "duration": 0.126,
      "velocity": 108,
      "chip": "ym2612"
    },
    {
      "channel": 5,
      "note": 45,
      "start": 2.5982,
      "duration": 0.2291,
      "velocity": 114,
      "chip": "ym2612"
    },
    {
      "channel": 1,
      "note": 45,
      "start": 2.7308,
      "duration": 0.1962,
      "velocity": 109,
      "chip": "ym2612"
    },
    {
      "channel": 2,
      "note": 52,
      "start": 2.7336,
      "duration": 0.1937,
      "velocity": 109,
      "chip": "ym2612"
    },
    {
      "channel": 3,
      "note": 52,
      "start": 2.983,
      "duration": 0.0773,
      "velocity": 108,
      "chip": "ym2612"
    },
    {
      "channel": 4,
      "note": 45,
      "start": 2.9856,
      "duration": 0.0749,
      "velocity": 108,
      "chip": "ym2612"
    },
    {
      "channel": 5,
      "note": 45,
      "start": 2.9886,
      "duration": 0.0553,
      "velocity": 114,
      "chip": "ym2612"
    },
    {
      "channel": 3,
      "note": 52,
      "start": 3.1144,
      "duration": 0.0794,
      "velocity": 108,
      "chip": "ym2612"
    },
    {
      "channel": 4,
      "note": 45,
      "start": 3.1171,
      "duration": 0.0768,
      "velocity": 108,
      "chip": "ym2612"
    },
    {
      "channel": 5,
      "note": 45,
      "start": 3.1206,
      "duration": 0.0899,
      "velocity": 114,
      "chip": "ym2612"
    },
    {
      "channel": 1,
      "note": 41,
      "start": 3.4811,
      "duration": 0.0793,
      "velocity": 109,
      "chip": "ym2612"
    },
    {
      "channel": 2,
      "note": 44,
      "start": 3.4838,
      "duration": 0.0768,
      "velocity": 109,
      "chip": "ym2612"
    },
    {
      "channel": 3,
      "note": 48,
      "start": 3.7316,
      "duration": 0.2288,
      "velocity": 108,
      "chip": "ym2612"
    },
    {
      "channel": 4,
      "note": 41,
      "start": 3.7343,
      "duration": 0.2263,
      "velocity": 108,
      "chip": "ym2612"
    },
    {
      "channel": 1,
      "note": 52,
      "start": 3.9844,
      "duration": 0.2261,
      "velocity": 109,
      "chip": "ym2612"
    },
    {
      "channel": 2,
      "note": 45,
      "start": 3.9877,
      "duration": 0.2063,
      "velocity": 109,
      "chip": "ym2612"
    },
    {
      "channel": 3,
      "note": 45,
      "start": 4.3646,
      "duration": 0.1459,
      "velocity": 108,
      "chip": "ym2612"
    },
    {
      "channel": 4,
      "note": 52,
      "start": 4.3674,
      "duration": 0.1098,
      "velocity": 108,
      "chip": "ym2612"
    },
    {
      "channel": 5,
      "note": 45,
      "start": 4.6149,
      "duration": 0.2791,
      "velocity": 114,
      "chip": "ym2612"
    },
    {
      "channel": 1,
      "note": 45,
      "start": 4.731,
      "duration": 0.2129,
      "velocity": 109,
      "chip": "ym2612"
    },
    {
      "channel": 2,
      "note": 52,
      "start": 4.7338,
      "duration": 0.2103,
      "velocity": 109,
      "chip": "ym2612"
    },
    {
      "channel": 3,
      "note": 52,
      "start": 4.9832,
      "duration": 0.0774,
      "velocity": 108,
      "chip": "ym2612"
    },
    {
      "channel": 4,
      "note": 45,
      "start": 4.9859,
      "duration": 0.0748,
      "velocity": 108,
      "chip": "ym2612"
    },
    {
      "channel": 5,
      "note": 45,
      "start": 4.9889,
      "duration": 0.072,
      "velocity": 114,
      "chip": "ym2612"
    },
    {
      "channel": 3,
      "note": 52,
      "start": 5.1149,
      "duration": 0.079,
      "velocity": 108,
      "chip": "ym2612"
    },
    {
      "channel": 4,
      "note": 45,
      "start": 5.1176,
      "duration": 0.0764,
      "velocity": 108,
      "chip": "ym2612"
    },
    {
      "channel": 5,
      "note": 45,
      "start": 5.1207,
      "duration": 0.09,
      "velocity": 114,
      "chip": "ym2612"
    },
    {
      "channel": 1,
      "note": 41,
      "start": 5.6143,
      "duration": 0.2294,
      "velocity": 109,
      "chip": "ym2612"
    },
    {
      "channel": 2,
      "note": 44,
      "start": 5.6171,
      "duration": 0.2268,
      "velocity": 109,
      "chip": "ym2612"
    },
    {
      "channel": 3,
      "note": 48,
      "start": 5.8645,
      "duration": 0.0959,
      "velocity": 108,
      "chip": "ym2612"
    },
    {
      "channel": 4,
      "note": 41,
      "start": 5.8672,
      "duration": 0.0934,
      "velocity": 108,
      "chip": "ym2612"
    },
    {
      "channel": 1,
      "note": 52,
      "start": 5.9993,
      "duration": 0.2278,
      "velocity": 109,
      "chip": "ym2612"
    },
    {
      "channel": 2,
      "note": 45,
      "start": 6.0023,
      "duration": 0.1916,
      "velocity": 109,
      "chip": "ym2612"
    },
    {
      "channel": 3,
      "note": 45,
      "start": 6.3644,
      "duration": 0.1127,
      "velocity": 108,
      "chip": "ym2612"
    },
    {
      "channel": 4,
      "note": 52,
      "start": 6.3671,
      "duration": 0.1102,
      "velocity": 108,
      "chip": "ym2612"
    },
    {
      "channel": 5,
      "note": 45,
      "start": 6.6148,
      "duration": 0.2293,
      "velocity": 114,
      "chip": "ym2612"
    },
    {
      "channel": 3,
      "note": 45,
      "start": 6.7476,
      "duration": 0.0961,
      "velocity": 108,
      "chip": "ym2612"
    },
    {
      "channel": 4,
      "note": 52,
      "start": 6.7503,
      "duration": 0.0936,
      "velocity": 108,
      "chip": "ym2612"
    },
    {
      "channel": 1,
      "note": 45,
      "start": 6.8646,
      "duration": 0.2127,
      "velocity": 109,
      "chip": "ym2612"
    },
    {
      "channel": 2,
      "note": 52,
      "start": 6.8674,
      "duration": 0.2102,
      "velocity": 109,
      "chip": "ym2612"
    },
    {
      "channel": 5,
      "note": 45,
      "start": 6.8703,
      "duration": 0.1069,
      "velocity": 114,
      "chip": "ym2612"
    },
    {
      "channel": 3,
      "note": 44,
      "start": 7.0048,
      "duration": 0.0891,
      "velocity": 125,
      "chip": "ym2612"
    },
    {
      "channel": 4,
      "note": 57,
      "start": 7.0132,
      "duration": 0.0809,
      "velocity": 92,
      "chip": "ym2612"
    },
    {
      "channel": 2,
      "note": 81,
      "start": 7.1155,
      "duration": 0.1786,
      "velocity": 104,
      "chip": "ym2612"
    },
    {
      "channel": 4,
      "note": 57,
      "start": 7.1206,
      "duration": 0.1068,
      "velocity": 92,
      "chip": "ym2612"
    },
    {
      "channel": 5,
      "note": 45,
      "start": 7.124,
      "duration": 0.1036,
      "velocity": 108,
      "chip": "ym2612"
    },
    {
      "channel": 1,
      "note": 52,
      "start": 7.1275,
      "duration": 0.1164,
      "velocity": 108,
      "chip": "ym2612"
    },
    {
      "channel": 3,
      "note": 45,
      "start": 7.1308,
      "duration": 0.0965,
      "velocity": 114,
      "chip": "ym2612"
    },
    {
      "channel": 4,
      "note": 57,
      "start": 7.2476,
      "duration": 0.0964,
      "velocity": 92,
      "chip": "ym2612"
    },
    {
      "channel": 2,
      "note": 44,
      "start": 7.3852,
      "duration": 0.0922,
      "velocity": 125,
      "chip": "ym2612"
    },
    {
      "channel": 4,
      "note": 57,
      "start": 7.3911,
      "duration": 0.0862,
      "velocity": 92,
      "chip": "ym2612"
    },
    {
      "channel": 2,
      "note": 81,
      "start": 7.4992,
      "duration": 0.2283,
      "velocity": 104,
      "chip": "ym2612"
    },
    {
      "channel": 4,
      "note": 57,
      "start": 7.5043,
      "duration": 0.0897,
      "velocity": 92,
      "chip": "ym2612"
    },
    {
      "channel": 3,
      "note": 41,
      "start": 7.5074,
      "duration": 0.0699,
      "velocity": 109,
      "chip": "ym2612"
    },
    {
      "channel": 5,
      "note": 44,
      "start": 7.5106,
      "duration": 0.0668,
      "velocity": 109,
      "chip": "ym2612"
    },
    {
      "channel": 4,
      "note": 57,
      "start": 7.6309,
      "duration": 0.0963,
      "velocity": 92,
      "chip": "ym2612"
    },
    {
      "channel": 2,
      "note": 81,
      "start": 7.7468,
      "duration": 0.2307,
      "velocity": 104,
      "chip": "ym2612"
    },
    {
      "channel": 4,
      "note": 57,
      "start": 7.7499,
      "duration": 0.094,
      "velocity": 92,
      "chip": "ym2612"
    },
    {
      "channel": 4,
      "note": 57,
      "start": 7.8807,
      "duration": 0.0966,
      "velocity": 92,
      "chip": "ym2612"
    },
    {
      "channel": 2,
      "note": 49,
      "start": 7.9997,
      "duration": 0.2112,
      "velocity": 95,
      "chip": "ym2612"
    },
    {
      "channel": 4,
      "note": 45,
      "start": 8.0113,
      "duration": 0.4326,
      "velocity": 92,
      "chip": "ym2612"
    },
    {
      "channel": 3,
      "note": 52,
      "start": 8.0153,
      "duration": 0.2119,
      "velocity": 109,
      "chip": "ym2612"
    },
    {
      "channel": 5,
      "note": 45,
      "start": 8.0182,
      "duration": 0.1925,
      "velocity": 109,
      "chip": "ym2612"
    },
    {
      "channel": 1,
      "note": 44,
      "start": 8.3859,
      "duration": 0.0914,
      "velocity": 125,
      "chip": "ym2612"
    },
    {
      "channel": 5,
      "note": 45,
      "start": 8.3895,
      "duration": 0.1045,
      "velocity": 108,
      "chip": "ym2612"
    },
    {
      "channel": 2,
      "note": 52,
      "start": 8.3923,
      "duration": 0.1018,
      "velocity": 108,
      "chip": "ym2612"
    },
    {
      "channel": 4,
      "note": 45,
      "start": 8.4985,
      "duration": 0.1121,
      "velocity": 92,
      "chip": "ym2612"
    },
    {
      "channel": 4,
      "note": 45,
      "start": 8.6315,
      "duration": 0.2625,
      "velocity": 92,
      "chip": "ym2612"
    },
    {
      "channel": 3,
      "note": 45,
      "start": 8.6349,
      "duration": 0.259,
      "velocity": 114,
      "chip": "ym2612"
    },
    {
      "channel": 2,
      "note": 49,
      "start": 8.7489,
      "duration": 0.2284,
      "velocity": 106,
      "chip": "ym2612"
    },
    {
      "channel": 1,
      "note": 45,
      "start": 8.7548,
      "duration": 0.2057,
      "velocity": 109,
      "chip": "ym2612"
    },
    {
      "channel": 5,
      "note": 52,
      "start": 8.7576,
      "duration": 0.2031,
      "velocity": 109,
      "chip": "ym2612"
    },
    {
      "channel": 4,
      "note": 45,
      "start": 8.9995,
      "duration": 0.311,
      "velocity": 92,
      "chip": "ym2612"
    },
    {
      "channel": 3,
      "note": 52,
      "start": 9.0027,
      "duration": 0.0747,
      "velocity": 108,
      "chip": "ym2612"
    },
    {
      "channel": 1,
      "note": 45,
      "start": 9.0054,
      "duration": 0.0718,
      "velocity": 108,
      "chip": "ym2612"
    },
    {
      "channel": 5,
      "note": 45,
      "start": 9.0085,
      "duration": 0.0521,
      "velocity": 114,
      "chip": "ym2612"
    },
    {
      "channel": 1,
      "note": 52,
      "start": 9.1332,
      "duration": 0.0773,
      "velocity": 108,
      "chip": "ym2612"
    },
    {
      "channel": 3,
      "note": 45,
      "start": 9.1358,
      "duration": 0.0748,
      "velocity": 108,
      "chip": "ym2612"
    },
    {
      "channel": 5,
      "note": 45,
      "start": 9.1389,
      "duration": 0.0884,
      "velocity": 114,
      "chip": "ym2612"
    },
    {
      "channel": 2,
      "note": 49,
      "start": 9.2492,
      "duration": 0.1115,
      "velocity": 95,
      "chip": "ym2612"
    },
    {
      "channel": 1,
      "note": 40,
      "start": 9.384,
      "duration": 0.0933,
      "velocity": 125,
      "chip": "ym2612"
    },
    {
      "channel": 4,
      "note": 39,
      "start": 9.3871,
      "duration": 0.2569,
      "velocity": 92,
      "chip": "ym2612"
    },
    {
      "channel": 1,
      "note": 40,
      "start": 9.5192,
      "duration": 0.0913,
      "velocity": 125,
      "chip": "ym2612"
    },
    {
      "channel": 2,
      "note": 49,
      "start": 9.6323,
      "duration": 0.0785,
      "velocity": 95,
      "chip": "ym2612"
    },
    {
      "channel": 3,
      "note": 41,
      "start": 9.6364,
      "duration": 0.2242,
      "velocity": 109,
      "chip": "ym2612"
    },
    {
      "channel": 5,
      "note": 44,
      "start": 9.6391,
      "duration": 0.2217,
      "velocity": 109,
      "chip": "ym2612"
    },
    {
      "channel": 4,
      "note": 41,
      "start": 9.7648,
      "duration": 0.1957,
      "velocity": 92,
      "chip": "ym2612"
    },
    {
      "channel": 1,
      "note": 48,
      "start": 9.8823,
      "duration": 0.0948,
      "velocity": 108,
      "chip": "ym2612"
    },
    {
      "channel": 2,
      "note": 41,
      "start": 9.8851,
      "duration": 0.0923,
      "velocity": 108,
      "chip": "ym2612"
    },
    {
      "channel": 2,
      "note": 49,
      "start": 10.0145,
      "duration": 0.1963,
      "velocity": 95,
      "chip": "ym2612"
    },
    {
      "channel": 4,
      "note": 45,
      "start": 10.0214,
      "duration": 0.4226,
      "velocity": 92,
      "chip": "ym2612"
    },
    {
      "channel": 3,
      "note": 52,
      "start": 10.0245,
      "duration": 0.2027,
      "velocity": 109,
      "chip": "ym2612"
    },
    {
      "channel": 5,
      "note": 45,
      "start": 10.0279,
      "duration": 0.1828,
      "velocity": 109,
      "chip": "ym2612"
    },
    {
      "channel": 1,
      "note": 44,
      "start": 10.3858,
      "duration": 0.1249,
      "velocity": 125,
      "chip": "ym2612"
    },
    {
      "channel": 5,
      "note": 45,
      "start": 10.3894,
      "duration": 0.138,
      "velocity": 108,
      "chip": "ym2612"
    },
    {
      "channel": 2,
      "note": 52,
      "start": 10.3926,
      "duration": 0.1183,
      "velocity": 108,
      "chip": "ym2612"
    },
    {
      "channel": 4,
      "note": 45,
      "start": 10.5152,
      "duration": 0.0955,
      "velocity": 92,
      "chip": "ym2612"
    },
    {
      "channel": 4,
      "note": 45,
      "start": 10.6315,
      "duration": 0.2792,
      "velocity": 92,
      "chip": "ym2612"
    },
    {
      "channel": 3,
      "note": 45,
      "start": 10.6349,
      "duration": 0.2256,
      "velocity": 114,
      "chip": "ym2612"
    },
    {
      "channel": 2,
      "note": 49,
      "start": 10.7656,
      "duration": 0.2283,
      "velocity": 106,
      "chip": "ym2612"
    },
    {
      "channel": 1,
      "note": 45,
      "start": 10.7693,
      "duration": 0.1911,
      "velocity": 109,
      "chip": "ym2612"
    },
    {
      "channel": 5,
      "note": 52,
      "start": 10.7721,
      "duration": 0.1886,
      "velocity": 109,
      "chip": "ym2612"
    },
    {
      "channel": 4,
      "note": 45,
      "start": 11.0161,
      "duration": 0.3112,
      "velocity": 92,
      "chip": "ym2612"
    },
    {
      "channel": 3,
      "note": 52,
      "start": 11.0193,
      "duration": 0.0746,
      "velocity": 108,
      "chip": "ym2612"
    },
    {
      "channel": 1,
      "note": 45,
      "start": 11.022,
      "duration": 0.0717,
      "velocity": 108,
      "chip": "ym2612"
    },
    {
      "channel": 5,
      "note": 45,
      "start": 11.0255,
      "duration": 0.0518,
      "velocity": 114,
      "chip": "ym2612"
    },
    {
      "channel": 1,
      "note": 52,
      "start": 11.1335,
      "duration": 0.077,
      "velocity": 108,
      "chip": "ym2612"
    },
    {
      "channel": 3,
      "note": 45,
      "start": 11.1361,
      "duration": 0.0745,
      "velocity": 108,
      "chip": "ym2612"
    },
    {
      "channel": 5,
      "note": 45,
      "start": 11.1392,
      "duration": 0.1048,
      "velocity": 114,
      "chip": "ym2612"
    },
    {
      "channel": 2,
      "note": 49,
      "start": 11.2658,
      "duration": 0.0948,
      "velocity": 95,
      "chip": "ym2612"
    },
    {
      "channel": 1,
      "note": 40,
      "start": 11.3841,
      "duration": 0.1098,
      "velocity": 125,
      "chip": "ym2612"
    },
    {
      "channel": 4,
      "note": 39,
      "start": 11.3878,
      "duration": 0.2728,
      "velocity": 92,
      "chip": "ym2612"
    },
    {
      "channel": 1,
      "note": 40,
      "start": 11.5183,
      "duration": 0.0922,
      "velocity": 125,
      "chip": "ym2612"
    },
    {
      "channel": 3,
      "note": 41,
      "start": 11.5223,
      "duration": 0.0716,
      "velocity": 109,
      "chip": "ym2612"
    },
    {
      "channel": 5,
      "note": 44,
      "start": 11.5251,
      "duration": 0.069,
      "velocity": 109,
      "chip": "ym2612"
    },
    {
      "channel": 1,
      "note": 40,
      "start": 11.6485,
      "duration": 0.0953,
      "velocity": 125,
      "chip": "ym2612"
    },
    {
      "channel": 2,
      "note": 81,
      "start": 11.7658,
      "duration": 0.2116,
      "velocity": 104,
      "chip": "ym2612"
    },
    {
      "channel": 4,
      "note": 41,
      "start": 11.7713,
      "duration": 0.2059,
      "velocity": 92,
      "chip": "ym2612"
    },
    {
      "channel": 3,
      "note": 48,
      "start": 11.7745,
      "duration": 0.2194,
      "velocity": 108,
      "chip": "ym2612"
    },
    {
      "channel": 5,
      "note": 41,
      "start": 11.7777,
      "duration": 0.2163,
      "velocity": 108,
      "chip": "ym2612"
    },
    {
      "channel": 2,
      "note": 49,
      "start": 12.0161,
      "duration": 0.2115,
      "velocity": 95,
      "chip": "ym2612"
    },
    {
      "channel": 4,
      "note": 45,
      "start": 12.023,
      "duration": 0.421,
      "velocity": 92,
      "chip": "ym2612"
    },
    {
      "channel": 1,
      "note": 52,
      "start": 12.0269,
      "duration": 0.2169,
      "velocity": 109,
      "chip": "ym2612"
    },
    {
      "channel": 3,
      "note": 45,
      "start": 12.0299,
      "duration": 0.1974,
      "velocity": 109,
      "chip": "ym2612"
    },
    {
      "channel": 5,
      "note": 44,
      "start": 12.4046,
      "duration": 0.1061,
      "velocity": 125,
      "chip": "ym2612"
    },
    {
      "channel": 3,
      "note": 45,
      "start": 12.4082,
      "duration": 0.119,
      "velocity": 108,
      "chip": "ym2612"
    },
    {
      "channel": 2,
      "note": 52,
      "start": 12.4116,
      "duration": 0.0992,
      "velocity": 108,
      "chip": "ym2612"
    },
    {
      "channel": 4,
      "note": 45,
      "start": 12.5151,
      "duration": 0.1121,
      "velocity": 92,
      "chip": "ym2612"
    },
    {
      "channel": 4,
      "note": 45,
      "start": 12.6483,
      "duration": 0.2623,
      "velocity": 92,
      "chip": "ym2612"
    },
    {
      "channel": 1,
      "note": 45,
      "start": 12.6516,
      "duration": 0.2755,
      "velocity": 114,
      "chip": "ym2612"
    },
    {
      "channel": 2,
      "note": 49,
      "start": 12.7656,
      "duration": 0.2284,
      "velocity": 106,
      "chip": "ym2612"
    },
    {
      "channel": 5,
      "note": 45,
      "start": 12.7712,
      "duration": 0.2062,
      "velocity": 109,
      "chip": "ym2612"
    },
    {
      "channel": 3,
      "note": 52,
      "start": 12.7739,
      "duration": 0.2032,
      "velocity": 109,
      "chip": "ym2612"
    },
    {
      "channel": 4,
      "note": 45,
      "start": 13.0161,
      "duration": 0.3111,
      "velocity": 92,
      "chip": "ym2612"
    },
    {
      "channel": 1,
      "note": 52,
      "start": 13.0197,
      "duration": 0.074,
      "velocity": 108,
      "chip": "ym2612"
    },
    {
      "channel": 3,
      "note": 45,
      "start": 13.0224,
      "duration": 0.0715,
      "velocity": 108,
      "chip": "ym2612"
    },
    {
      "channel": 5,
      "note": 45,
      "start": 13.0255,
      "duration": 0.0686,
      "velocity": 114,
      "chip": "ym2612"
    },
    {
      "channel": 1,
      "note": 52,
      "start": 13.1496,
      "duration": 0.0775,
      "velocity": 108,
      "chip": "ym2612"
    },
    {
      "channel": 3,
      "note": 45,
      "start": 13.1522,
      "duration": 0.075,
      "velocity": 108,
      "chip": "ym2612"
    },
    {
      "channel": 5,
      "note": 45,
      "start": 13.1554,
      "duration": 0.0886,
      "velocity": 114,
      "chip": "ym2612"
    },
    {
      "channel": 2,
      "note": 49,
      "start": 13.2658,
      "duration": 0.1116,
      "velocity": 95,
      "chip": "ym2612"
    },
    {
      "channel": 1,
      "note": 40,
      "start": 13.4005,
      "duration": 0.0934,
      "velocity": 125,
      "chip": "ym2612"
    },
    {
      "channel": 4,
      "note": 39,
      "start": 13.4036,
      "duration": 0.2573,
      "velocity": 92,
      "chip": "ym2612"
    },
    {
      "channel": 1,
      "note": 40,
      "start": 13.5191,
      "duration": 0.1081,
      "velocity": 125,
      "chip": "ym2612"
    },
    {
      "channel": 2,
      "note": 49,
      "start": 13.649,
      "duration": 0.0784,
      "velocity": 95,
      "chip": "ym2612"
    },
    {
      "channel": 3,
      "note": 41,
      "start": 13.6534,
      "duration": 0.2239,
      "velocity": 109,
      "chip": "ym2612"
    },
    {
      "channel": 5,
      "note": 44,
      "start": 13.6562,
      "duration": 0.2213,
      "velocity": 109,
      "chip": "ym2612"
    },
    {
      "channel": 4,
      "note": 41,
      "start": 13.7815,
      "duration": 0.1959,
      "velocity": 92,
      "chip": "ym2612"
    },
    {
      "channel": 1,
      "note": 48,
      "start": 13.8985,
      "duration": 0.0952,
      "velocity": 108,
      "chip": "ym2612"
    },
    {
      "channel": 2,
      "note": 41,
      "start": 13.9014,
      "duration": 0.0926,
      "velocity": 108,
      "chip": "ym2612"
    },
    {
      "channel": 2,
      "note": 49,
      "start": 14.0325,
      "duration": 0.1949,
      "velocity": 106,
      "chip": "ym2612"
    },
    {
      "channel": 4,
      "note": 45,
      "start": 14.0394,
      "duration": 0.2878,
      "velocity": 92,
      "chip": "ym2612"
    },
    {
      "channel": 3,
      "note": 52,
      "start": 14.0421,
      "duration": 0.2019,
      "velocity": 109,
      "chip": "ym2612"
    },
    {
      "channel": 5,
      "note": 45,
      "start": 14.0459,
      "duration": 0.1814,
      "velocity": 109,
      "chip": "ym2612"
    },
    {
      "channel": 1,
      "note": 44,
      "start": 14.1476,
      "duration": 0.0128,
      "velocity": 125,
      "chip": "ym2612"
    },
    {
      "channel": 1,
      "note": 45,
      "start": 14.1646,
      "duration": 0.0793,
      "velocity": 125,
      "chip": "ym2612"
    },
    {
      "channel": 4,
      "note": 48,
      "start": 14.3644,
      "duration": 0.3628,
      "velocity": 92,
      "chip": "ym2612"
    },
    {
      "channel": 2,
      "note": 49,
      "start": 14.3988,
      "duration": 0.0786,
      "velocity": 95,
      "chip": "ym2612"
    },
    {
      "channel": 5,
      "note": 45,
      "start": 14.4029,
      "duration": 0.0912,
      "velocity": 108,
      "chip": "ym2612"
    },
    {
      "channel": 1,
      "note": 52,
      "start": 14.406,
      "duration": 0.0878,
      "velocity": 108,
      "chip": "ym2612"
    },
    {
      "channel": 3,
      "note": 44,
      "start": 14.531,
      "duration": 0.0128,
      "velocity": 125,
      "chip": "ym2612"
    },
    {
      "channel": 3,
      "note": 45,
      "start": 14.5476,
      "duration": 0.0797,
      "velocity": 125,
      "chip": "ym2612"
    },
    {
      "channel": 2,
      "note": 49,
      "start": 14.6477,
      "duration": 0.113,
      "velocity": 95,
      "chip": "ym2612"
    },
    {
      "channel": 1,
      "note": 45,
      "start": 14.6535,
      "duration": 0.2237,
      "velocity": 114,
      "chip": "ym2612"
    },
    {
      "channel": 2,
      "note": 49,
      "start": 14.7825,
      "duration": 0.0782,
      "velocity": 106,
      "chip": "ym2612"
    },
    {
      "channel": 4,
      "note": 55,
      "start": 14.7885,
      "duration": 0.3221,
      "velocity": 92,
      "chip": "ym2612"
    },
    {
      "channel": 5,
      "note": 45,
      "start": 14.7914,
      "duration": 0.0861,
      "velocity": 108,
      "chip": "ym2612"
    },
    {
      "channel": 3,
      "note": 52,
      "start": 14.7946,
      "duration": 0.0826,
      "velocity": 108,
      "chip": "ym2612"
    },
    {
      "channel": 2,
      "note": 45,
      "start": 14.8979,
      "duration": 0.2129,
      "velocity": 109,
      "chip": "ym2612"
    },
    {
      "channel": 1,
      "note": 52,
      "start": 14.9007,
      "duration": 0.2098,
      "velocity": 109,
      "chip": "ym2612"
    },
    {
      "channel": 3,
      "note": 45,
      "start": 14.9037,
      "duration": 0.1069,
      "velocity": 114,
      "chip": "ym2612"
    },
    {
      "channel": 5,
      "note": 44,
      "start": 14.931,
      "duration": 0.0963,
      "velocity": 125,
      "chip": "ym2612"
    },
    {
      "channel": 5,
      "note": 44,
      "start": 15.1475,
      "duration": 0.1133,
      "velocity": 125,
      "chip": "ym2612"
    },
    {
      "channel": 4,
      "note": 40,
      "start": 15.1511,
      "duration": 0.3595,
      "velocity": 92,
      "chip": "ym2612"
    },
    {
      "channel": 3,
      "note": 45,
      "start": 15.1541,
      "duration": 0.1064,
      "velocity": 108,
      "chip": "ym2612"
    },
    {
      "channel": 1,
      "note": 52,
      "start": 15.1571,
      "duration": 0.12,
      "velocity": 108,
      "chip": "ym2612"
    },
    {
      "channel": 2,
      "note": 45,
      "start": 15.1606,
      "duration": 0.1003,
      "velocity": 114,
      "chip": "ym2612"
    },
    {
      "channel": 2,
      "note": 81,
      "start": 15.2825,
      "duration": 0.2283,
      "velocity": 104,
      "chip": "ym2612"
    },
    {
      "channel": 5,
      "note": 44,
      "start": 15.537,
      "duration": 0.0903,
      "velocity": 125,
      "chip": "ym2612"
    },
    {
      "channel": 4,
      "note": 36,
      "start": 15.5426,
      "duration": 0.4679,
      "velocity": 92,
      "chip": "ym2612"
    },
    {
      "channel": 3,
      "note": 41,
      "start": 15.5461,
      "duration": 0.0646,
      "velocity": 109,
      "chip": "ym2612"
    },
    {
      "channel": 1,
      "note": 44,
      "start": 15.5488,
      "duration": 0.0617,
      "velocity": 109,
      "chip": "ym2612"
    },
    {
      "channel": 2,
      "note": 49,
      "start": 15.7822,
      "duration": 0.0952,
      "velocity": 106,
      "chip": "ym2612"
    },
    {
      "channel": 5,
      "note": 44,
      "start": 15.7863,
      "duration": 0.0911,
      "velocity": 125,
      "chip": "ym2612"
    },
    {
      "channel": 2,
      "note": 49,
      "start": 15.9144,
      "duration": 0.0964,
      "velocity": 106,
      "chip": "ym2612"
    },
    {
      "channel": 5,
      "note": 44,
      "start": 15.9174,
      "duration": 0.0932,
      "velocity": 125,
      "chip": "ym2612"
    },
    {
      "channel": 2,
      "note": 49,
      "start": 16.0332,
      "duration": 0.2109,
      "velocity": 95,
      "chip": "ym2612"
    },
    {
      "channel": 0,
      "note": 76,
      "start": 16.0458,
      "duration": 7.8814,
      "velocity": 106,
      "chip": "ym2612"
    },
    {
      "channel": 4,
      "note": 45,
      "start": 16.0501,
      "duration": 0.4105,
      "velocity": 92,
      "chip": "ym2612"
    },
    {
      "channel": 1,
      "note": 52,
      "start": 16.0539,
      "duration": 0.2065,
      "velocity": 109,
      "chip": "ym2612"
    },
    {
      "channel": 3,
      "note": 45,
      "start": 16.0567,
      "duration": 0.1871,
      "velocity": 109,
      "chip": "ym2612"
    },
    {
      "channel": 5,
      "note": 44,
      "start": 16.4195,
      "duration": 0.0912,
      "velocity": 125,
      "chip": "ym2612"
    },
    {
      "channel": 3,
      "note": 45,
      "start": 16.4231,
      "duration": 0.1041,
      "velocity": 108,
      "chip": "ym2612"
    },
    {
      "channel": 2,
      "note": 52,
      "start": 16.4264,
      "duration": 0.101,
      "velocity": 108,
      "chip": "ym2612"
    },
    {
      "channel": 4,
      "note": 45,
      "start": 16.5332,
      "duration": 0.0943,
      "velocity": 92,
      "chip": "ym2612"
    },
    {
      "channel": 4,
      "note": 45,
      "start": 16.6646,
      "duration": 0.2629,
      "velocity": 92,
      "chip": "ym2612"
    },
    {
      "channel": 1,
      "note": 45,
      "start": 16.6679,
      "duration": 0.2594,
      "velocity": 114,
      "chip": "ym2612"
    },
    {
      "channel": 2,
      "note": 49,
      "start": 16.7827,
      "duration": 0.228,
      "velocity": 106,
      "chip": "ym2612"
    },
    {
      "channel": 5,
      "note": 45,
      "start": 16.7886,
      "duration": 0.2055,
      "velocity": 109,
      "chip": "ym2612"
    },
    {
      "channel": 3,
      "note": 52,
      "start": 16.7913,
      "duration": 0.2026,
      "velocity": 109,
      "chip": "ym2612"
    },
    {
      "channel": 4,
      "note": 45,
      "start": 17.0329,
      "duration": 0.311,
      "velocity": 92,
      "chip": "ym2612"
    },
    {
      "channel": 1,
      "note": 52,
      "start": 17.0361,
      "duration": 0.0744,
      "velocity": 108,
      "chip": "ym2612"
    },
    {
      "channel": 3,
      "note": 45,
      "start": 17.0388,
      "duration": 0.0718,
      "velocity": 108,
      "chip": "ym2612"
    },
    {
      "channel": 5,
      "note": 45,
      "start": 17.0419,
      "duration": 0.0521,
      "velocity": 114,
      "chip": "ym2612"
    },
    {
      "channel": 1,
      "note": 52,
      "start": 17.1662,
      "duration": 0.0776,
      "velocity": 108,
      "chip": "ym2612"
    },
    {
      "channel": 3,
      "note": 45,
      "start": 17.1688,
      "duration": 0.0751,
      "velocity": 108,
      "chip": "ym2612"
    },
    {
      "channel": 5,
      "note": 45,
      "start": 17.172,
      "duration": 0.0887,
      "velocity": 114,
      "chip": "ym2612"
    },
    {
      "channel": 2,
      "note": 49,
      "start": 17.2821,
      "duration": 0.112,
      "velocity": 95,
      "chip": "ym2612"
    },
    {
      "channel": 1,
      "note": 40,
      "start": 17.4165,
      "duration": 0.094,
      "velocity": 125,
      "chip": "ym2612"
    },
    {
      "channel": 4,
      "note": 39,
      "start": 17.4197,
      "duration": 0.2578,
      "velocity": 92,
      "chip": "ym2612"
    },
    {
      "channel": 1,
      "note": 40,
      "start": 17.5363,
      "duration": 0.1077,
      "velocity": 125,
      "chip": "ym2612"
    },
    {
      "channel": 2,
      "note": 49,
      "start": 17.6661,
      "duration": 0.0781,
      "velocity": 95,
      "chip": "ym2612"
    },
    {
      "channel": 3,
      "note": 41,
      "start": 17.6702,
      "duration": 0.2237,
      "velocity": 109,
      "chip": "ym2612"
    },
    {
      "channel": 5,
      "note": 44,
      "start": 17.6729,
      "duration": 0.2212,
      "velocity": 109,
      "chip": "ym2612"
    },
    {
      "channel": 4,
      "note": 41,
      "start": 17.7821,
      "duration": 0.2119,
      "velocity": 92,
      "chip": "ym2612"
    },
    {
      "channel": 1,
      "note": 48,
      "start": 17.9159,
      "duration": 0.0947,
      "velocity": 108,
      "chip": "ym2612"
    },
    {
      "channel": 2,
      "note": 41,
      "start": 17.9187,
      "duration": 0.0921,
      "velocity": 108,
      "chip": "ym2612"
    },
    {
      "channel": 2,
      "note": 49,
      "start": 18.0474,
      "duration": 0.1968,
      "velocity": 95,
      "chip": "ym2612"
    },
    {
      "channel": 4,
      "note": 45,
      "start": 18.0543,
      "duration": 0.423,
      "velocity": 92,
      "chip": "ym2612"
    },
    {
      "channel": 3,
      "note": 52,
      "start": 18.0574,
      "duration": 0.2032,
      "velocity": 109,
      "chip": "ym2612"
    },
    {
      "channel": 5,
      "note": 45,
      "start": 18.0607,
      "duration": 0.1833,
      "velocity": 109,
      "chip": "ym2612"
    },
    {
      "channel": 1,
      "note": 44,
      "start": 18.4195,
      "duration": 0.1244,
      "velocity": 125,
      "chip": "ym2612"
    },
    {
      "channel": 5,
      "note": 45,
      "start": 18.4231,
      "duration": 0.1377,
      "velocity": 108,
      "chip": "ym2612"
    },
    {
      "channel": 2,
      "note": 52,
      "start": 18.4266,
      "duration": 0.1176,
      "velocity": 108,
      "chip": "ym2612"
    },
    {
      "channel": 4,
      "note": 45,
      "start": 18.55,
      "duration": 0.0941,
      "velocity": 92,
      "chip": "ym2612"
    },
    {
      "channel": 4,
      "note": 45,
      "start": 18.6646,
      "duration": 0.2627,
      "velocity": 92,
      "chip": "ym2612"
    },
    {
      "channel": 3,
      "note": 45,
      "start": 18.6679,
      "duration": 0.226,
      "velocity": 114,
      "chip": "ym2612"
    },
    {
      "channel": 2,
      "note": 49,
      "start": 18.7993,
      "duration": 0.2281,
      "velocity": 106,
      "chip": "ym2612"
    },
    {
      "channel": 1,
      "note": 45,
      "start": 18.8031,
      "duration": 0.1908,
      "velocity": 109,
      "chip": "ym2612"
    },
    {
      "channel": 5,
      "note": 52,
      "start": 18.8058,
      "duration": 0.1884,
      "velocity": 109,
      "chip": "ym2612"
    },
    {
      "channel": 4,
      "note": 45,
      "start": 19.0496,
      "duration": 0.3111,
      "velocity": 92,
      "chip": "ym2612"
    },
    {
      "channel": 3,
      "note": 52,
      "start": 19.0528,
      "duration": 0.0746,
      "velocity": 108,
      "chip": "ym2612"
    },
    {
      "channel": 1,
      "note": 45,
      "start": 19.0555,
      "duration": 0.0717,
      "velocity": 108,
      "chip": "ym2612"
    },
    {
      "channel": 5,
      "note": 45,
      "start": 19.0592,
      "duration": 0.0516,
      "velocity": 114,
      "chip": "ym2612"
    },
    {
      "channel": 1,
      "note": 52,
      "start": 19.1666,
      "duration": 0.0773,
      "velocity": 108,
      "chip": "ym2612"
    },
    {
      "channel": 3,
      "note": 45,
      "start": 19.1692,
      "duration": 0.0749,
      "velocity": 108,
      "chip": "ym2612"
    },
    {
      "channel": 5,
      "note": 45,
      "start": 19.1723,
      "duration": 0.1051,
      "velocity": 114,
      "chip": "ym2612"
    },
    {
      "channel": 2,
      "note": 49,
      "start": 19.2989,
      "duration": 0.0952,
      "velocity": 95,
      "chip": "ym2612"
    },
    {
      "channel": 1,
      "note": 40,
      "start": 19.4168,
      "duration": 0.1105,
      "velocity": 125,
      "chip": "ym2612"
    },
    {
      "channel": 4,
      "note": 39,
      "start": 19.4204,
      "duration": 0.2737,
      "velocity": 92,
      "chip": "ym2612"
    },
    {
      "channel": 1,
      "note": 40,
      "start": 19.5524,
      "duration": 0.0915,
      "velocity": 125,
      "chip": "ym2612"
    },
    {
      "channel": 3,
      "note": 41,
      "start": 19.5563,
      "duration": 0.0711,
      "velocity": 109,
      "chip": "ym2612"
    },
    {
      "channel": 5,
      "note": 44,
      "start": 19.5596,
      "duration": 0.068,
      "velocity": 109,
      "chip": "ym2612"
    },
    {
      "channel": 1,
      "note": 40,
      "start": 19.6654,
      "duration": 0.1119,
      "velocity": 125,
      "chip": "ym2612"
    },
    {
      "channel": 2,
      "note": 81,
      "start": 19.7992,
      "duration": 0.1949,
      "velocity": 104,
      "chip": "ym2612"
    },
    {
      "channel": 4,
      "note": 41,
      "start": 19.8051,
      "duration": 0.1888,
      "velocity": 92,
      "chip": "ym2612"
    },
    {
      "channel": 3,
      "note": 48,
      "start": 19.8083,
      "duration": 0.219,
      "velocity": 108,
      "chip": "ym2612"
    },
    {
      "channel": 5,
      "note": 41,
      "start": 19.8115,
      "duration": 0.2159,
      "velocity": 108,
      "chip": "ym2612"
    },
    {
      "channel": 2,
      "note": 49,
      "start": 20.0494,
      "duration": 0.2113,
      "velocity": 95,
      "chip": "ym2612"
    },
    {
      "channel": 4,
      "note": 45,
      "start": 20.0563,
      "duration": 0.421,
      "velocity": 92,
      "chip": "ym2612"
    },
    {
      "channel": 1,
      "note": 52,
      "start": 20.0602,
      "duration": 0.2168,
      "velocity": 109,
      "chip": "ym2612"
    },
    {
      "channel": 3,
      "note": 45,
      "start": 20.0632,
      "duration": 0.1973,
      "velocity": 109,
      "chip": "ym2612"
    },
    {
      "channel": 5,
      "note": 44,
      "start": 20.4376,
      "duration": 0.1064,
      "velocity": 125,
      "chip": "ym2612"
    },
    {
      "channel": 3,
      "note": 45,
      "start": 20.4412,
      "duration": 0.1193,
      "velocity": 108,
      "chip": "ym2612"
    },
    {
      "channel": 2,
      "note": 52,
      "start": 20.4447,
      "duration": 0.0994,
      "velocity": 108,
      "chip": "ym2612"
    },
    {
      "channel": 4,
      "note": 45,
      "start": 20.5485,
      "duration": 0.0954,
      "velocity": 92,
      "chip": "ym2612"
    },
    {
      "channel": 4,
      "note": 45,
      "start": 20.6812,
      "duration": 0.2627,
      "velocity": 92,
      "chip": "ym2612"
    },
    {
      "channel": 1,
      "note": 45,
      "start": 20.6845,
      "duration": 0.2759,
      "velocity": 114,
      "chip": "ym2612"
    },
    {
      "channel": 2,
      "note": 49,
      "start": 20.7993,
      "duration": 0.228,
      "velocity": 106,
      "chip": "ym2612"
    },
    {
      "channel": 5,
      "note": 45,
      "start": 20.8048,
      "duration": 0.2059,
      "velocity": 109,
      "chip": "ym2612"
    },
    {
      "channel": 3,
      "note": 52,
      "start": 20.8076,
      "duration": 0.2029,
      "velocity": 109,
      "chip": "ym2612"
    },
    {
      "channel": 4,
      "note": 45,
      "start": 21.0494,
      "duration": 0.3111,
      "velocity": 92,
      "chip": "ym2612"
    },
    {
      "channel": 1,
      "note": 52,
      "start": 21.053,
      "duration": 0.0742,
      "velocity": 108,
      "chip": "ym2612"
    },
    {
      "channel": 3,
      "note": 45,
      "start": 21.0557,
      "duration": 0.0716,
      "velocity": 108,
      "chip": "ym2612"
    },
    {
      "channel": 5,
      "note": 45,
      "start": 21.0588,
      "duration": 0.0686,
      "velocity": 114,
      "chip": "ym2612"
    },
    {
      "channel": 1,
      "note": 52,
      "start": 21.1833,
      "duration": 0.0772,
      "velocity": 108,
      "chip": "ym2612"
    },
    {
      "channel": 3,
      "note": 45,
      "start": 21.1859,
      "duration": 0.0747,
      "velocity": 108,
      "chip": "ym2612"
    },
    {
      "channel": 5,
      "note": 45,
      "start": 21.189,
      "duration": 0.0883,
      "velocity": 114,
      "chip": "ym2612"
    },
    {
      "channel": 2,
      "note": 49,
      "start": 21.2987,
      "duration": 0.1119,
      "velocity": 95,
      "chip": "ym2612"
    },
    {
      "channel": 1,
      "note": 40,
      "start": 21.434,
      "duration": 0.0932,
      "velocity": 125,
      "chip": "ym2612"
    },
    {
      "channel": 4,
      "note": 39,
      "start": 21.4371,
      "duration": 0.257,
      "velocity": 92,
      "chip": "ym2612"
    },
    {
      "channel": 1,
      "note": 40,
      "start": 21.5525,
      "duration": 0.108,
      "velocity": 125,
      "chip": "ym2612"
    },
    {
      "channel": 2,
      "note": 49,
      "start": 21.6827,
      "duration": 0.078,
      "velocity": 95,
      "chip": "ym2612"
    },
    {
      "channel": 3,
      "note": 41,
      "start": 21.6868,
      "duration": 0.2238,
      "velocity": 109,
      "chip": "ym2612"
    },
    {
      "channel": 5,
      "note": 44,
      "start": 21.6895,
      "duration": 0.2212,
      "velocity": 109,
      "chip": "ym2612"
    },
    {
      "channel": 4,
      "note": 41,
      "start": 21.7986,
      "duration": 0.212,
      "velocity": 92,
      "chip": "ym2612"
    },
    {
      "channel": 1,
      "note": 48,
      "start": 21.9318,
      "duration": 0.0954,
      "velocity": 108,
      "chip": "ym2612"
    },
    {
      "channel": 2,
      "note": 41,
      "start": 21.9347,
      "duration": 0.0927,
      "velocity": 108,
      "chip": "ym2612"
    },
    {
      "channel": 2,
      "note": 49,
      "start": 22.0488,
      "duration": 0.212,
      "velocity": 106,
      "chip": "ym2612"
    },
    {
      "channel": 4,
      "note": 45,
      "start": 22.0572,
      "duration": 0.3034,
      "velocity": 92,
      "chip": "ym2612"
    },
    {
      "channel": 3,
      "note": 52,
      "start": 22.0605,
      "duration": 0.2169,
      "velocity": 109,
      "chip": "ym2612"
    },
    {
      "channel": 5,
      "note": 45,
      "start": 22.0637,
      "duration": 0.197,
      "velocity": 109,
      "chip": "ym2612"
    },
    {
      "channel": 1,
      "note": 44,
      "start": 22.1811,
      "duration": 0.0129,
      "velocity": 125,
      "chip": "ym2612"
    },
    {
      "channel": 1,
      "note": 45,
      "start": 22.1977,
      "duration": 0.0796,
      "velocity": 125,
      "chip": "ym2612"
    },
    {
      "channel": 4,
      "note": 48,
      "start": 22.398,
      "duration": 0.3628,
      "velocity": 92,
      "chip": "ym2612"
    },
    {
      "channel": 2,
      "note": 49,
      "start": 22.4326,
      "duration": 0.0783,
      "velocity": 95,
      "chip": "ym2612"
    },
    {
      "channel": 5,
      "note": 45,
      "start": 22.437,
      "duration": 0.0905,
      "velocity": 108,
      "chip": "ym2612"
    },
    {
      "channel": 1,
      "note": 52,
      "start": 22.4401,
      "duration": 0.0871,
      "velocity": 108,
      "chip": "ym2612"
    },
    {
      "channel": 3,
      "note": 44,
      "start": 22.5648,
      "duration": 0.0125,
      "velocity": 125,
      "chip": "ym2612"
    },
    {
      "channel": 3,
      "note": 45,
      "start": 22.581,
      "duration": 0.0795,
      "velocity": 125,
      "chip": "ym2612"
    },
    {
      "channel": 2,
      "note": 49,
      "start": 22.681,
      "duration": 0.0964,
      "velocity": 95,
      "chip": "ym2612"
    },
    {
      "channel": 1,
      "note": 45,
      "start": 22.6868,
      "duration": 0.2238,
      "velocity": 114,
      "chip": "ym2612"
    },
    {
      "channel": 2,
      "note": 49,
      "start": 22.8156,
      "duration": 0.0786,
      "velocity": 106,
      "chip": "ym2612"
    },
    {
      "channel": 4,
      "note": 55,
      "start": 22.8208,
      "duration": 0.3232,
      "velocity": 92,
      "chip": "ym2612"
    },
    {
      "channel": 5,
      "note": 45,
      "start": 22.8237,
      "duration": 0.0872,
      "velocity": 108,
      "chip": "ym2612"
    },
    {
      "channel": 3,
      "note": 52,
      "start": 22.827,
      "duration": 0.0838,
      "velocity": 108,
      "chip": "ym2612"
    },
    {
      "channel": 2,
      "note": 45,
      "start": 22.9313,
      "duration": 0.2129,
      "velocity": 109,
      "chip": "ym2612"
    },
    {
      "channel": 1,
      "note": 52,
      "start": 22.9341,
      "duration": 0.2097,
      "velocity": 109,
      "chip": "ym2612"
    },
    {
      "channel": 3,
      "note": 45,
      "start": 22.9371,
      "duration": 0.0901,
      "velocity": 114,
      "chip": "ym2612"
    },
    {
      "channel": 5,
      "note": 44,
      "start": 22.9478,
      "duration": 0.113,
      "velocity": 125,
      "chip": "ym2612"
    },
    {
      "channel": 5,
      "note": 44,
      "start": 23.1808,
      "duration": 0.1134,
      "velocity": 125,
      "chip": "ym2612"
    },
    {
      "channel": 4,
      "note": 40,
      "start": 23.1844,
      "duration": 0.3595,
      "velocity": 92,
      "chip": "ym2612"
    },
    {
      "channel": 3,
      "note": 45,
      "start": 23.1875,
      "duration": 0.1065,
      "velocity": 108,
      "chip": "ym2612"
    },
    {
      "channel": 1,
      "note": 52,
      "start": 23.1904,
      "duration": 0.12,
      "velocity": 108,
      "chip": "ym2612"
    },
    {
      "channel": 2,
      "note": 45,
      "start": 23.1939,
      "duration": 0.1004,
      "velocity": 114,
      "chip": "ym2612"
    },
    {
      "channel": 2,
      "note": 81,
      "start": 23.3158,
      "duration": 0.2283,
      "velocity": 104,
      "chip": "ym2612"
    },
    {
      "channel": 5,
      "note": 44,
      "start": 23.5704,
      "duration": 0.0903,
      "velocity": 125,
      "chip": "ym2612"
    },
    {
      "channel": 4,
      "note": 36,
      "start": 23.576,
      "duration": 0.4678,
      "velocity": 92,
      "chip": "ym2612"
    },
    {
      "channel": 3,
      "note": 41,
      "start": 23.5794,
      "duration": 0.0646,
      "velocity": 109,
      "chip": "ym2612"
    },
    {
      "channel": 1,
      "note": 44,
      "start": 23.5822,
      "duration": 0.0617,
      "velocity": 109,
      "chip": "ym2612"
    },
    {
      "channel": 2,
      "note": 49,
      "start": 23.816,
      "duration": 0.0949,
      "velocity": 106,
      "chip": "ym2612"
    },
    {
      "channel": 5,
      "note": 44,
      "start": 23.8197,
      "duration": 0.0911,
      "velocity": 125,
      "chip": "ym2612"
    },
    {
      "channel": 2,
      "note": 49,
      "start": 23.9308,
      "duration": 0.1134,
      "velocity": 106,
      "chip": "ym2612"
    },
    {
      "channel": 5,
      "note": 44,
      "start": 23.9338,
      "duration": 0.1102,
      "velocity": 125,
      "chip": "ym2612"
    },
    {
      "channel": 2,
      "note": 49,
      "start": 24.0666,
      "duration": 0.1943,
      "velocity": 95,
      "chip": "ym2612"
    },
    {
      "channel": 0,
      "note": 74,
      "start": 24.0793,
      "duration": 7.8812,
      "velocity": 106,
      "chip": "ym2612"
    },
    {
      "channel": 4,
      "note": 45,
      "start": 24.084,
      "duration": 0.41,
      "velocity": 92,
      "chip": "ym2612"
    },
    {
      "channel": 1,
      "note": 52,
      "start": 24.0878,
      "duration": 0.206,
      "velocity": 109,
      "chip": "ym2612"
    },
    {
      "channel": 3,
      "note": 45,
      "start": 24.0907,
      "duration": 0.17,
      "velocity": 109,
      "chip": "ym2612"
    },
    {
      "channel": 5,
      "note": 44,
      "start": 24.4528,
      "duration": 0.0912,
      "velocity": 125,
      "chip": "ym2612"
    },
    {
      "channel": 3,
      "note": 45,
      "start": 24.4564,
      "duration": 0.1041,
      "velocity": 108,
      "chip": "ym2612"
    },
    {
      "channel": 2,
      "note": 52,
      "start": 24.4597,
      "duration": 0.101,
      "velocity": 108,
      "chip": "ym2612"
    },
    {
      "channel": 4,
      "note": 45,
      "start": 24.5665,
      "duration": 0.0943,
      "velocity": 92,
      "chip": "ym2612"
    },
    {
      "channel": 4,
      "note": 45,
      "start": 24.698,
      "duration": 0.2629,
      "velocity": 92,
      "chip": "ym2612"
    },
    {
      "channel": 1,
      "note": 45,
      "start": 24.7013,
      "duration": 0.2593,
      "velocity": 114,
      "chip": "ym2612"
    },
    {
      "channel": 2,
      "note": 49,
      "start": 24.816,
      "duration": 0.228,
      "velocity": 106,
      "chip": "ym2612"
    },
    {
      "channel": 5,
      "note": 45,
      "start": 24.822,
      "duration": 0.2055,
      "velocity": 109,
      "chip": "ym2612"
    },
    {
      "channel": 3,
      "note": 52,
      "start": 24.8247,
      "duration": 0.2026,
      "velocity": 109,
      "chip": "ym2612"
    },
    {
      "channel": 4,
      "note": 45,
      "start": 25.0663,
      "duration": 0.3109,
      "velocity": 92,
      "chip": "ym2612"
    },
    {
      "channel": 1,
      "note": 52,
      "start": 25.0695,
      "duration": 0.0744,
      "velocity": 108,
      "chip": "ym2612"
    },
    {
      "channel": 3,
      "note": 45,
      "start": 25.0722,
      "duration": 0.0717,
      "velocity": 108,
      "chip": "ym2612"
    },
    {
      "channel": 5,
      "note": 45,
      "start": 25.0753,
      "duration": 0.052,
      "velocity": 114,
      "chip": "ym2612"
    },
    {
      "channel": 1,
      "note": 52,
      "start": 25.1995,
      "duration": 0.0776,
      "velocity": 108,
      "chip": "ym2612"
    },
    {
      "channel": 3,
      "note": 45,
      "start": 25.2022,
      "duration": 0.0751,
      "velocity": 108,
      "chip": "ym2612"
    },
    {
      "channel": 5,
      "note": 45,
      "start": 25.2053,
      "duration": 0.0887,
      "velocity": 114,
      "chip": "ym2612"
    },
    {
      "channel": 2,
      "note": 49,
      "start": 25.3155,
      "duration": 0.112,
      "velocity": 95,
      "chip": "ym2612"
    },
    {
      "channel": 1,
      "note": 40,
      "start": 25.4499,
      "duration": 0.094,
      "velocity": 125,
      "chip": "ym2612"
    },
    {
      "channel": 4,
      "note": 39,
      "start": 25.453,
      "duration": 0.2578,
      "velocity": 92,
      "chip": "ym2612"
    },
    {
      "channel": 1,
      "note": 40,
      "start": 25.5696,
      "duration": 0.1077,
      "velocity": 125,
      "chip": "ym2612"
    },
    {
      "channel": 2,
      "note": 49,
      "start": 25.6994,
      "duration": 0.0781,
      "velocity": 95,
      "chip": "ym2612"
    },
    {
      "channel": 3,
      "note": 41,
      "start": 25.7035,
      "duration": 0.2238,
      "velocity": 109,
      "chip": "ym2612"
    },
    {
      "channel": 5,
      "note": 44,
      "start": 25.7062,
      "duration": 0.2212,
      "velocity": 109,
      "chip": "ym2612"
    },
    {
      "channel": 4,
      "note": 41,
      "start": 25.8154,
      "duration": 0.2118,
      "velocity": 92,
      "chip": "ym2612"
    },
    {
      "channel": 1,
      "note": 48,
      "start": 25.9493,
      "duration": 0.0945,
      "velocity": 108,
      "chip": "ym2612"
    },
    {
      "channel": 2,
      "note": 41,
      "start": 25.9521,
      "duration": 0.0919,
      "velocity": 108,
      "chip": "ym2612"
    },
    {
      "channel": 2,
      "note": 49,
      "start": 26.0641,
      "duration": 0.2133,
      "velocity": 95,
      "chip": "ym2612"
    },
    {
      "channel": 4,
      "note": 45,
      "start": 26.071,
      "duration": 0.4397,
      "velocity": 92,
      "chip": "ym2612"
    },
    {
      "channel": 3,
      "note": 52,
      "start": 26.0741,
      "duration": 0.2198,
      "velocity": 109,
      "chip": "ym2612"
    },
    {
      "channel": 5,
      "note": 45,
      "start": 26.0775,
      "duration": 0.1998,
      "velocity": 109,
      "chip": "ym2612"
    },
    {
      "channel": 1,
      "note": 44,
      "start": 26.4529,
      "duration": 0.1244,
      "velocity": 125,
      "chip": "ym2612"
    },
    {
      "channel": 5,
      "note": 45,
      "start": 26.4565,
      "duration": 0.1377,
      "velocity": 108,
      "chip": "ym2612"
    },
    {
      "channel": 2,
      "note": 52,
      "start": 26.46,
      "duration": 0.1176,
      "velocity": 108,
      "chip": "ym2612"
    },
    {
      "channel": 4,
      "note": 45,
      "start": 26.5834,
      "duration": 0.0939,
      "velocity": 92,
      "chip": "ym2612"
    },
    {
      "channel": 4,
      "note": 45,
      "start": 26.698,
      "duration": 0.2627,
      "velocity": 92,
      "chip": "ym2612"
    },
    {
      "channel": 3,
      "note": 45,
      "start": 26.7013,
      "duration": 0.2259,
      "velocity": 114,
      "chip": "ym2612"
    },
    {
      "channel": 2,
      "note": 49,
      "start": 26.8327,
      "duration": 0.2115,
      "velocity": 106,
      "chip": "ym2612"
    },
    {
      "channel": 1,
      "note": 45,
      "start": 26.8364,
      "duration": 0.1908,
      "velocity": 109,
      "chip": "ym2612"
    },
    {
      "channel": 5,
      "note": 52,
      "start": 26.8392,
      "duration": 0.1884,
      "velocity": 109,
      "chip": "ym2612"
    },
    {
      "channel": 4,
      "note": 45,
      "start": 27.0828,
      "duration": 0.2945,
      "velocity": 92,
      "chip": "ym2612"
    },
    {
      "channel": 3,
      "note": 52,
      "start": 27.0861,
      "duration": 0.0747,
      "velocity": 108,
      "chip": "ym2612"
    },
    {
      "channel": 1,
      "note": 45,
      "start": 27.0888,
      "duration": 0.0718,
      "velocity": 108,
      "chip": "ym2612"
    },
    {
      "channel": 5,
      "note": 45,
      "start": 27.0923,
      "duration": 0.035,
      "velocity": 114,
      "chip": "ym2612"
    },
    {
      "channel": 1,
      "note": 52,
      "start": 27.1999,
      "duration": 0.0774,
      "velocity": 108,
      "chip": "ym2612"
    },
    {
      "channel": 3,
      "note": 45,
      "start": 27.2025,
      "duration": 0.0749,
      "velocity": 108,
      "chip": "ym2612"
    },
    {
      "channel": 5,
      "note": 45,
      "start": 27.2056,
      "duration": 0.0884,
      "velocity": 114,
      "chip": "ym2612"
    },
    {
      "channel": 2,
      "note": 49,
      "start": 27.3322,
      "duration": 0.0952,
      "velocity": 95,
      "chip": "ym2612"
    },
    {
      "channel": 1,
      "note": 40,
      "start": 27.4501,
      "duration": 0.1105,
      "velocity": 125,
      "chip": "ym2612"
    },
    {
      "channel": 4,
      "note": 39,
      "start": 27.4537,
      "duration": 0.2737,
      "velocity": 92,
      "chip": "ym2612"
    },
    {
      "channel": 1,
      "note": 40,
      "start": 27.5857,
      "duration": 0.0915,
      "velocity": 125,
      "chip": "ym2612"
    },
    {
      "channel": 3,
      "note": 41,
      "start": 27.5897,
      "duration": 0.0711,
      "velocity": 109,
      "chip": "ym2612"
    },
    {
      "channel": 5,
      "note": 44,
      "start": 27.5929,
      "duration": 0.068,
      "velocity": 109,
      "chip": "ym2612"
    },
    {
      "channel": 1,
      "note": 40,
      "start": 27.6987,
      "duration": 0.1119,
      "velocity": 125,
      "chip": "ym2612"
    },
    {
      "channel": 2,
      "note": 81,
      "start": 27.8326,
      "duration": 0.1949,
      "velocity": 104,
      "chip": "ym2612"
    },
    {
      "channel": 4,
      "note": 41,
      "start": 27.8384,
      "duration": 0.1888,
      "velocity": 92,
      "chip": "ym2612"
    },
    {
      "channel": 3,
      "note": 48,
      "start": 27.8416,
      "duration": 0.219,
      "velocity": 108,
      "chip": "ym2612"
    },
    {
      "channel": 5,
      "note": 41,
      "start": 27.8449,
      "duration": 0.2159,
      "velocity": 108,
      "chip": "ym2612"
    },
    {
      "channel": 2,
      "note": 49,
      "start": 28.0828,
      "duration": 0.1946,
      "velocity": 95,
      "chip": "ym2612"
    },
    {
      "channel": 4,
      "note": 45,
      "start": 28.0896,
      "duration": 0.421,
      "velocity": 92,
      "chip": "ym2612"
    },
    {
      "channel": 1,
      "note": 52,
      "start": 28.0936,
      "duration": 0.217,
      "velocity": 109,
      "chip": "ym2612"
    },
    {
      "channel": 3,
      "note": 45,
      "start": 28.0966,
      "duration": 0.1806,
      "velocity": 109,
      "chip": "ym2612"
    },
    {
      "channel": 5,
      "note": 44,
      "start": 28.4541,
      "duration": 0.1232,
      "velocity": 125,
      "chip": "ym2612"
    },
    {
      "channel": 3,
      "note": 45,
      "start": 28.4578,
      "duration": 0.1361,
      "velocity": 108,
      "chip": "ym2612"
    },
    {
      "channel": 2,
      "note": 52,
      "start": 28.4612,
      "duration": 0.1163,
      "velocity": 108,
      "chip": "ym2612"
    },
    {
      "channel": 4,
      "note": 45,
      "start": 28.5818,
      "duration": 0.0954,
      "velocity": 92,
      "chip": "ym2612"
    },
    {
      "channel": 4,
      "note": 45,
      "start": 28.7146,
      "duration": 0.2627,
      "velocity": 92,
      "chip": "ym2612"
    },
    {
      "channel": 1,
      "note": 45,
      "start": 28.7179,
      "duration": 0.2759,
      "velocity": 114,
      "chip": "ym2612"
    },
    {
      "channel": 2,
      "note": 49,
      "start": 28.8326,
      "duration": 0.228,
      "velocity": 106,
      "chip": "ym2612"
    },
    {
      "channel": 5,
      "note": 45,
      "start": 28.8382,
      "duration": 0.2059,
      "velocity": 109,
      "chip": "ym2612"
    },
    {
      "channel": 3,
      "note": 52,
      "start": 28.8409,
      "duration": 0.2029,
      "velocity": 109,
      "chip": "ym2612"
    },
    {
      "channel": 4,
      "note": 45,
      "start": 29.0828,
      "duration": 0.3111,
      "velocity": 92,
      "chip": "ym2612"
    },
    {
      "channel": 1,
      "note": 52,
      "start": 29.0864,
      "duration": 0.0741,
      "velocity": 108,
      "chip": "ym2612"
    },
    {
      "channel": 3,
      "note": 45,
      "start": 29.0891,
      "duration": 0.0715,
      "velocity": 108,
      "chip": "ym2612"
    },
    {
      "channel": 5,
      "note": 45,
      "start": 29.0922,
      "duration": 0.0686,
      "velocity": 114,
      "chip": "ym2612"
    },
    {
      "channel": 1,
      "note": 52,
      "start": 29.2165,
      "duration": 0.0773,
      "velocity": 108,
      "chip": "ym2612"
    },
    {
      "channel": 3,
      "note": 45,
      "start": 29.2191,
      "duration": 0.0748,
      "velocity": 108,
      "chip": "ym2612"
    },
    {
      "channel": 5,
      "note": 45,
      "start": 29.2223,
      "duration": 0.0884,
      "velocity": 114,
      "chip": "ym2612"
    },
    {
      "channel": 2,
      "note": 49,
      "start": 29.3321,
      "duration": 0.0952,
      "velocity": 95,
      "chip": "ym2612"
    },
    {
      "channel": 1,
      "note": 40,
      "start": 29.4675,
      "duration": 0.0929,
      "velocity": 125,
      "chip": "ym2612"
    },
    {
      "channel": 4,
      "note": 39,
      "start": 29.4706,
      "duration": 0.2568,
      "velocity": 92,
      "chip": "ym2612"
    },
    {
      "channel": 1,
      "note": 40,
      "start": 29.5858,
      "duration": 0.1081,
      "velocity": 125,
      "chip": "ym2612"
    },
    {
      "channel": 2,
      "note": 49,
      "start": 29.716,
      "duration": 0.078,
      "velocity": 95,
      "chip": "ym2612"
    },
    {
      "channel": 3,
      "note": 41,
      "start": 29.72,
      "duration": 0.2239,
      "velocity": 109,
      "chip": "ym2612"
    },
    {
      "channel": 5,
      "note": 44,
      "start": 29.7228,
      "duration": 0.2214,
      "velocity": 109,
      "chip": "ym2612"
    },
    {
      "channel": 4,
      "note": 41,
      "start": 29.8319,
      "duration": 0.2122,
      "velocity": 92,
      "chip": "ym2612"
    },
    {
      "channel": 1,
      "note": 48,
      "start": 29.9652,
      "duration": 0.0952,
      "velocity": 108,
      "chip": "ym2612"
    },
    {
      "channel": 2,
      "note": 41,
      "start": 29.9681,
      "duration": 0.0926,
      "velocity": 108,
      "chip": "ym2612"
    },
    {
      "channel": 2,
      "note": 49,
      "start": 30.0821,
      "duration": 0.212,
      "velocity": 106,
      "chip": "ym2612"
    },
    {
      "channel": 4,
      "note": 45,
      "start": 30.0905,
      "duration": 0.3035,
      "velocity": 92,
      "chip": "ym2612"
    },
    {
      "channel": 3,
      "note": 52,
      "start": 30.0938,
      "duration": 0.2169,
      "velocity": 109,
      "chip": "ym2612"
    },
    {
      "channel": 5,
      "note": 45,
      "start": 30.0971,
      "duration": 0.1969,
      "velocity": 109,
      "chip": "ym2612"
    },
    {
      "channel": 1,
      "note": 44,
      "start": 30.2145,
      "duration": 0.0128,
      "velocity": 125,
      "chip": "ym2612"
    },
    {
      "channel": 1,
      "note": 45,
      "start": 30.231,
      "duration": 0.0795,
      "velocity": 125,
      "chip": "ym2612"
    },
    {
      "channel": 4,
      "note": 48,
      "start": 30.4145,
      "duration": 0.3795,
      "velocity": 92,
      "chip": "ym2612"
    },
    {
      "channel": 2,
      "note": 49,
      "start": 30.466,
      "duration": 0.0781,
      "velocity": 95,
      "chip": "ym2612"
    },
    {
      "channel": 5,
      "note": 45,
      "start": 30.4704,
      "duration": 0.0904,
      "velocity": 108,
      "chip": "ym2612"
    },
    {
      "channel": 1,
      "note": 52,
      "start": 30.4735,
      "duration": 0.087,
      "velocity": 108,
      "chip": "ym2612"
    },
    {
      "channel": 3,
      "note": 44,
      "start": 30.5814,
      "duration": 0.0293,
      "velocity": 125,
      "chip": "ym2612"
    },
    {
      "channel": 3,
      "note": 45,
      "start": 30.6144,
      "duration": 0.0795,
      "velocity": 125,
      "chip": "ym2612"
    },
    {
      "channel": 2,
      "note": 49,
      "start": 30.7145,
      "duration": 0.0962,
      "velocity": 95,
      "chip": "ym2612"
    },
    {
      "channel": 1,
      "note": 45,
      "start": 30.7202,
      "duration": 0.2237,
      "velocity": 114,
      "chip": "ym2612"
    },
    {
      "channel": 2,
      "note": 49,
      "start": 30.8489,
      "duration": 0.0786,
      "velocity": 106,
      "chip": "ym2612"
    },
    {
      "channel": 4,
      "note": 55,
      "start": 30.8541,
      "duration": 0.3232,
      "velocity": 92,
      "chip": "ym2612"
    },
    {
      "channel": 5,
      "note": 45,
      "start": 30.8571,
      "duration": 0.0872,
      "velocity": 108,
      "chip": "ym2612"
    },
    {
      "channel": 3,
      "note": 52,
      "start": 30.8603,
      "duration": 0.0838,
      "velocity": 108,
      "chip": "ym2612"
    },
    {
      "channel": 2,
      "note": 45,
      "start": 30.9646,
      "duration": 0.2129,
      "velocity": 109,
      "chip": "ym2612"
    },
    {
      "channel": 1,
      "note": 52,
      "start": 30.9674,
      "duration": 0.2097,
      "velocity": 109,
      "chip": "ym2612"
    },
    {
      "channel": 3,
      "note": 45,
      "start": 30.9705,
      "duration": 0.0901,
      "velocity": 114,
      "chip": "ym2612"
    },
    {
      "channel": 5,
      "note": 44,
      "start": 30.9811,
      "duration": 0.113,
      "velocity": 125,
      "chip": "ym2612"
    },
    {
      "channel": 5,
      "note": 44,
      "start": 31.2141,
      "duration": 0.0966,
      "velocity": 125,
      "chip": "ym2612"
    },
    {
      "channel": 4,
      "note": 40,
      "start": 31.2178,
      "duration": 0.3429,
      "velocity": 92,
      "chip": "ym2612"
    },
    {
      "channel": 3,
      "note": 45,
      "start": 31.2208,
      "duration": 0.0897,
      "velocity": 108,
      "chip": "ym2612"
    },
    {
      "channel": 1,
      "note": 52,
      "start": 31.2237,
      "duration": 0.12,
      "velocity": 108,
      "chip": "ym2612"
    },
    {
      "channel": 2,
      "note": 45,
      "start": 31.2272,
      "duration": 0.0836,
      "velocity": 114,
      "chip": "ym2612"
    },
    {
      "channel": 2,
      "note": 81,
      "start": 31.3492,
      "duration": 0.2117,
      "velocity": 104,
      "chip": "ym2612"
    },
    {
      "channel": 5,
      "note": 44,
      "start": 31.6037,
      "duration": 0.0903,
      "velocity": 125,
      "chip": "ym2612"
    },
    {
      "channel": 4,
      "note": 36,
      "start": 31.6093,
      "duration": 0.4679,
      "velocity": 92,
      "chip": "ym2612"
    },
    {
      "channel": 3,
      "note": 41,
      "start": 31.6127,
      "duration": 0.0646,
      "velocity": 109,
      "chip": "ym2612"
    },
    {
      "channel": 1,
      "note": 44,
      "start": 31.6155,
      "duration": 0.0617,
      "velocity": 109,
      "chip": "ym2612"
    },
    {
      "channel": 2,
      "note": 49,
      "start": 31.8492,
      "duration": 0.0951,
      "velocity": 106,
      "chip": "ym2612"
    },
    {
      "channel": 5,
      "note": 44,
      "start": 31.8529,
      "duration": 0.0912,
      "velocity": 125,
      "chip": "ym2612"
    },
    {
      "channel": 2,
      "note": 49,
      "start": 31.9641,
      "duration": 0.1134,
      "velocity": 106,
      "chip": "ym2612"
    },
    {
      "channel": 5,
      "note": 44,
      "start": 31.9671,
      "duration": 0.1102,
      "velocity": 125,
      "chip": "ym2612"
    },
    {
      "channel": 2,
      "note": 49,
      "start": 32.0998,
      "duration": 0.1943,
      "velocity": 95,
      "chip": "ym2612"
    },
    {
      "channel": 0,
      "note": 76,
      "start": 32.1129,
      "duration": 7.8643,
      "velocity": 106,
      "chip": "ym2612"
    },
    {
      "channel": 4,
      "note": 45,
      "start": 32.1175,
      "duration": 0.4099,
      "velocity": 92,
      "chip": "ym2612"
    },
    {
      "channel": 1,
      "note": 52,
      "start": 32.1214,
      "duration": 0.2059,
      "velocity": 109,
      "chip": "ym2612"
    },
    {
      "channel": 3,
      "note": 45,
      "start": 32.1242,
      "duration": 0.1697,
      "velocity": 109,
      "chip": "ym2612"
    },
    {
      "channel": 5,
      "note": 44,
      "start": 32.4695,
      "duration": 0.1079,
      "velocity": 125,
      "chip": "ym2612"
    },
    {
      "channel": 3,
      "note": 45,
      "start": 32.4731,
      "duration": 0.1208,
      "velocity": 108,
      "chip": "ym2612"
    },
    {
      "channel": 2,
      "note": 52,
      "start": 32.4764,
      "duration": 0.1177,
      "velocity": 108,
      "chip": "ym2612"
    },
    {
      "channel": 4,
      "note": 45,
      "start": 32.5998,
      "duration": 0.0943,
      "velocity": 92,
      "chip": "ym2612"
    },
    {
      "channel": 4,
      "note": 45,
      "start": 32.7146,
      "duration": 0.2795,
      "velocity": 92,
      "chip": "ym2612"
    },
    {
      "channel": 1,
      "note": 45,
      "start": 32.7179,
      "duration": 0.276,
      "velocity": 114,
      "chip": "ym2612"
    },
    {
      "channel": 2,
      "note": 49,
      "start": 32.8494,
      "duration": 0.228,
      "velocity": 106,
      "chip": "ym2612"
    },
    {
      "channel": 5,
      "note": 45,
      "start": 32.8553,
      "duration": 0.2055,
      "velocity": 109,
      "chip": "ym2612"
    },
    {
      "channel": 3,
      "note": 52,
      "start": 32.858,
      "duration": 0.2026,
      "velocity": 109,
      "chip": "ym2612"
    },
    {
      "channel": 4,
      "note": 45,
      "start": 33.0996,
      "duration": 0.3109,
      "velocity": 92,
      "chip": "ym2612"
    },
    {
      "channel": 1,
      "note": 52,
      "start": 33.1028,
      "duration": 0.0744,
      "velocity": 108,
      "chip": "ym2612"
    },
    {
      "channel": 3,
      "note": 45,
      "start": 33.1055,
      "duration": 0.0717,
      "velocity": 108,
      "chip": "ym2612"
    },
    {
      "channel": 5,
      "note": 45,
      "start": 33.1086,
      "duration": 0.052,
      "velocity": 114,
      "chip": "ym2612"
    },
    {
      "channel": 1,
      "note": 52,
      "start": 33.2329,
      "duration": 0.0776,
      "velocity": 108,
      "chip": "ym2612"
    },
    {
      "channel": 3,
      "note": 45,
      "start": 33.2355,
      "duration": 0.0751,
      "velocity": 108,
      "chip": "ym2612"
    },
    {
      "channel": 5,
      "note": 45,
      "start": 33.2386,
      "duration": 0.0887,
      "velocity": 114,
      "chip": "ym2612"
    },
    {
      "channel": 2,
      "note": 49,
      "start": 33.3488,
      "duration": 0.0951,
      "velocity": 95,
      "chip": "ym2612"
    },
    {
      "channel": 1,
      "note": 40,
      "start": 33.4832,
      "duration": 0.0939,
      "velocity": 125,
      "chip": "ym2612"
    },
    {
      "channel": 4,
      "note": 39,
      "start": 33.4863,
      "duration": 0.2578,
      "velocity": 92,
      "chip": "ym2612"
    },
    {
      "channel": 1,
      "note": 40,
      "start": 33.6029,
      "duration": 0.0911,
      "velocity": 125,
      "chip": "ym2612"
    },
    {
      "channel": 2,
      "note": 49,
      "start": 33.7328,
      "duration": 0.0781,
      "velocity": 95,
      "chip": "ym2612"
    },
    {
      "channel": 3,
      "note": 41,
      "start": 33.737,
      "duration": 0.2237,
      "velocity": 109,
      "chip": "ym2612"
    },
    {
      "channel": 5,
      "note": 44,
      "start": 33.7397,
      "duration": 0.2211,
      "velocity": 109,
      "chip": "ym2612"
    },
    {
      "channel": 4,
      "note": 41,
      "start": 33.8487,
      "duration": 0.212,
      "velocity": 92,
      "chip": "ym2612"
    },
    {
      "channel": 1,
      "note": 48,
      "start": 33.9826,
      "duration": 0.0945,
      "velocity": 108,
      "chip": "ym2612"
    },
    {
      "channel": 2,
      "note": 41,
      "start": 33.9854,
      "duration": 0.0919,
      "velocity": 108,
      "chip": "ym2612"
    },
    {
      "channel": 2,
      "note": 49,
      "start": 34.0975,
      "duration": 0.2133,
      "velocity": 95,
      "chip": "ym2612"
    },
    {
      "channel": 4,
      "note": 45,
      "start": 34.1043,
      "duration": 0.4397,
      "velocity": 92,
      "chip": "ym2612"
    },
    {
      "channel": 3,
      "note": 52,
      "start": 34.1074,
      "duration": 0.2197,
      "velocity": 109,
      "chip": "ym2612"
    },
    {
      "channel": 5,
      "note": 45,
      "start": 34.1108,
      "duration": 0.1998,
      "velocity": 109,
      "chip": "ym2612"
    },
    {
      "channel": 1,
      "note": 44,
      "start": 34.4862,
      "duration": 0.1077,
      "velocity": 125,
      "chip": "ym2612"
    },
    {
      "channel": 5,
      "note": 45,
      "start": 34.4898,
      "duration": 0.1377,
      "velocity": 108,
      "chip": "ym2612"
    },
    {
      "channel": 2,
      "note": 52,
      "start": 34.4933,
      "duration": 0.1008,
      "velocity": 108,
      "chip": "ym2612"
    },
    {
      "channel": 4,
      "note": 45,
      "start": 34.6,
      "duration": 0.1107,
      "velocity": 92,
      "chip": "ym2612"
    },
    {
      "channel": 4,
      "note": 45,
      "start": 34.7314,
      "duration": 0.2627,
      "velocity": 92,
      "chip": "ym2612"
    },
    {
      "channel": 3,
      "note": 45,
      "start": 34.7347,
      "duration": 0.2259,
      "velocity": 114,
      "chip": "ym2612"
    },
    {
      "channel": 2,
      "note": 49,
      "start": 34.8492,
      "duration": 0.2283,
      "velocity": 106,
      "chip": "ym2612"
    },
    {
      "channel": 1,
      "note": 45,
      "start": 34.853,
      "duration": 0.2076,
      "velocity": 109,
      "chip": "ym2612"
    },
    {
      "channel": 5,
      "note": 52,
      "start": 34.8557,
      "duration": 0.2052,
      "velocity": 109,
      "chip": "ym2612"
    },
    {
      "channel": 4,
      "note": 45,
      "start": 35.1162,
      "duration": 0.2945,
      "velocity": 92,
      "chip": "ym2612"
    },
    {
      "channel": 3,
      "note": 52,
      "start": 35.1194,
      "duration": 0.0747,
      "velocity": 108,
      "chip": "ym2612"
    },
    {
      "channel": 1,
      "note": 45,
      "start": 35.1221,
      "duration": 0.0718,
      "velocity": 108,
      "chip": "ym2612"
    },
    {
      "channel": 5,
      "note": 45,
      "start": 35.1256,
      "duration": 0.035,
      "velocity": 114,
      "chip": "ym2612"
    },
    {
      "channel": 1,
      "note": 52,
      "start": 35.2332,
      "duration": 0.0774,
      "velocity": 108,
      "chip": "ym2612"
    },
    {
      "channel": 3,
      "note": 45,
      "start": 35.2358,
      "duration": 0.0749,
      "velocity": 108,
      "chip": "ym2612"
    },
    {
      "channel": 5,
      "note": 45,
      "start": 35.2389,
      "duration": 0.0884,
      "velocity": 114,
      "chip": "ym2612"
    },
    {
      "channel": 2,
      "note": 49,
      "start": 35.3655,
      "duration": 0.0952,
      "velocity": 95,
      "chip": "ym2612"
    },
    {
      "channel": 1,
      "note": 40,
      "start": 35.4835,
      "duration": 0.0938,
      "velocity": 125,
      "chip": "ym2612"
    },
    {
      "channel": 4,
      "note": 39,
      "start": 35.4871,
      "duration": 0.2571,
      "velocity": 92,
      "chip": "ym2612"
    },
    {
      "channel": 1,
      "note": 40,
      "start": 35.619,
      "duration": 0.0917,
      "velocity": 125,
      "chip": "ym2612"
    },
    {
      "channel": 3,
      "note": 41,
      "start": 35.623,
      "duration": 0.071,
      "velocity": 109,
      "chip": "ym2612"
    },
    {
      "channel": 5,
      "note": 44,
      "start": 35.6263,
      "duration": 0.0679,
      "velocity": 109,
      "chip": "ym2612"
    },
    {
      "channel": 1,
      "note": 40,
      "start": 35.732,
      "duration": 0.0952,
      "velocity": 125,
      "chip": "ym2612"
    },
    {
      "channel": 2,
      "note": 81,
      "start": 35.8659,
      "duration": 0.195,
      "velocity": 104,
      "chip": "ym2612"
    },
    {
      "channel": 4,
      "note": 41,
      "start": 35.8717,
      "duration": 0.1889,
      "velocity": 92,
      "chip": "ym2612"
    },
    {
      "channel": 3,
      "note": 48,
      "start": 35.8749,
      "duration": 0.2189,
      "velocity": 108,
      "chip": "ym2612"
    },
    {
      "channel": 5,
      "note": 41,
      "start": 35.8782,
      "duration": 0.2158,
      "velocity": 108,
      "chip": "ym2612"
    },
    {
      "channel": 2,
      "note": 49,
      "start": 36.1162,
      "duration": 0.1946,
      "velocity": 95,
      "chip": "ym2612"
    },
    {
      "channel": 4,
      "note": 45,
      "start": 36.123,
      "duration": 0.421,
      "velocity": 92,
      "chip": "ym2612"
    },
    {
      "channel": 1,
      "note": 52,
      "start": 36.127,
      "duration": 0.2169,
      "velocity": 109,
      "chip": "ym2612"
    },
    {
      "channel": 3,
      "note": 45,
      "start": 36.13,
      "duration": 0.1806,
      "velocity": 109,
      "chip": "ym2612"
    },
    {
      "channel": 5,
      "note": 44,
      "start": 36.4876,
      "duration": 0.1232,
      "velocity": 125,
      "chip": "ym2612"
    },
    {
      "channel": 3,
      "note": 45,
      "start": 36.4912,
      "duration": 0.1363,
      "velocity": 108,
      "chip": "ym2612"
    },
    {
      "channel": 2,
      "note": 52,
      "start": 36.4947,
      "duration": 0.1162,
      "velocity": 108,
      "chip": "ym2612"
    },
    {
      "channel": 4,
      "note": 45,
      "start": 36.6153,
      "duration": 0.0954,
      "velocity": 92,
      "chip": "ym2612"
    },
    {
      "channel": 4,
      "note": 45,
      "start": 36.7312,
      "duration": 0.2795,
      "velocity": 92,
      "chip": "ym2612"
    },
    {
      "channel": 1,
      "note": 45,
      "start": 36.7345,
      "duration": 0.2926,
      "velocity": 114,
      "chip": "ym2612"
    },
    {
      "channel": 2,
      "note": 49,
      "start": 36.866,
      "duration": 0.2282,
      "velocity": 106,
      "chip": "ym2612"
    },
    {
      "channel": 5,
      "note": 45,
      "start": 36.8715,
      "duration": 0.1894,
      "velocity": 109,
      "chip": "ym2612"
    },
    {
      "channel": 3,
      "note": 52,
      "start": 36.8742,
      "duration": 0.1864,
      "velocity": 109,
      "chip": "ym2612"
    },
    {
      "channel": 4,
      "note": 45,
      "start": 37.1162,
      "duration": 0.311,
      "velocity": 92,
      "chip": "ym2612"
    },
    {
      "channel": 1,
      "note": 52,
      "start": 37.1198,
      "duration": 0.0742,
      "velocity": 108,
      "chip": "ym2612"
    },
    {
      "channel": 3,
      "note": 45,
      "start": 37.1225,
      "duration": 0.0716,
      "velocity": 108,
      "chip": "ym2612"
    },
    {
      "channel": 5,
      "note": 45,
      "start": 37.1256,
      "duration": 0.0688,
      "velocity": 114,
      "chip": "ym2612"
    },
    {
      "channel": 1,
      "note": 52,
      "start": 37.2499,
      "duration": 0.0773,
      "velocity": 108,
      "chip": "ym2612"
    },
    {
      "channel": 3,
      "note": 45,
      "start": 37.2525,
      "duration": 0.0749,
      "velocity": 108,
      "chip": "ym2612"
    },
    {
      "channel": 5,
      "note": 45,
      "start": 37.2557,
      "duration": 0.0883,
      "velocity": 114,
      "chip": "ym2612"
    },
    {
      "channel": 2,
      "note": 49,
      "start": 37.3655,
      "duration": 0.0951,
      "velocity": 95,
      "chip": "ym2612"
    },
    {
      "channel": 1,
      "note": 40,
      "start": 37.5008,
      "duration": 0.0931,
      "velocity": 125,
      "chip": "ym2612"
    },
    {
      "channel": 4,
      "note": 39,
      "start": 37.5039,
      "duration": 0.2569,
      "velocity": 92,
      "chip": "ym2612"
    },
    {
      "channel": 1,
      "note": 40,
      "start": 37.6192,
      "duration": 0.0914,
      "velocity": 125,
      "chip": "ym2612"
    },
    {
      "channel": 2,
      "note": 49,
      "start": 37.7494,
      "duration": 0.078,
      "velocity": 95,
      "chip": "ym2612"
    },
    {
      "channel": 3,
      "note": 41,
      "start": 37.7534,
      "duration": 0.2072,
      "velocity": 109,
      "chip": "ym2612"
    },
    {
      "channel": 5,
      "note": 44,
      "start": 37.7562,
      "duration": 0.2046,
      "velocity": 109,
      "chip": "ym2612"
    },
    {
      "channel": 4,
      "note": 41,
      "start": 37.8653,
      "duration": 0.212,
      "velocity": 92,
      "chip": "ym2612"
    },
    {
      "channel": 1,
      "note": 48,
      "start": 37.9986,
      "duration": 0.0952,
      "velocity": 108,
      "chip": "ym2612"
    },
    {
      "channel": 2,
      "note": 41,
      "start": 38.0014,
      "duration": 0.0926,
      "velocity": 108,
      "chip": "ym2612"
    },
    {
      "channel": 2,
      "note": 49,
      "start": 38.1155,
      "duration": 0.212,
      "velocity": 106,
      "chip": "ym2612"
    },
    {
      "channel": 4,
      "note": 45,
      "start": 38.1223,
      "duration": 0.3049,
      "velocity": 92,
      "chip": "ym2612"
    },
    {
      "channel": 3,
      "note": 52,
      "start": 38.1251,
      "duration": 0.2188,
      "velocity": 109,
      "chip": "ym2612"
    },
    {
      "channel": 5,
      "note": 45,
      "start": 38.1289,
      "duration": 0.1985,
      "velocity": 109,
      "chip": "ym2612"
    },
    {
      "channel": 1,
      "note": 44,
      "start": 38.2476,
      "duration": 0.0128,
      "velocity": 125,
      "chip": "ym2612"
    },
    {
      "channel": 1,
      "note": 45,
      "start": 38.2642,
      "duration": 0.0796,
      "velocity": 125,
      "chip": "ym2612"
    },
    {
      "channel": 4,
      "note": 48,
      "start": 38.4478,
      "duration": 0.3795,
      "velocity": 92,
      "chip": "ym2612"
    },
    {
      "channel": 2,
      "note": 49,
      "start": 38.4992,
      "duration": 0.0782,
      "velocity": 95,
      "chip": "ym2612"
    },
    {
      "channel": 5,
      "note": 45,
      "start": 38.5036,
      "duration": 0.0904,
      "velocity": 108,
      "chip": "ym2612"
    },
    {
      "channel": 1,
      "note": 52,
      "start": 38.5067,
      "duration": 0.0871,
      "velocity": 108,
      "chip": "ym2612"
    },
    {
      "channel": 3,
      "note": 44,
      "start": 38.6148,
      "duration": 0.0292,
      "velocity": 125,
      "chip": "ym2612"
    },
    {
      "channel": 3,
      "note": 45,
      "start": 38.6477,
      "duration": 0.0796,
      "velocity": 125,
      "chip": "ym2612"
    },
    {
      "channel": 2,
      "note": 49,
      "start": 38.7477,
      "duration": 0.0963,
      "velocity": 95,
      "chip": "ym2612"
    },
    {
      "channel": 1,
      "note": 45,
      "start": 38.7535,
      "duration": 0.2237,
      "velocity": 114,
      "chip": "ym2612"
    },
    {
      "channel": 2,
      "note": 49,
      "start": 38.8655,
      "duration": 0.0785,
      "velocity": 106,
      "chip": "ym2612"
    },
    {
      "channel": 4,
      "note": 55,
      "start": 38.8707,
      "duration": 0.3233,
      "velocity": 92,
      "chip": "ym2612"
    },
    {
      "channel": 5,
      "note": 45,
      "start": 38.8736,
      "duration": 0.1039,
      "velocity": 108,
      "chip": "ym2612"
    },
    {
      "channel": 3,
      "note": 52,
      "start": 38.8768,
      "duration": 0.1004,
      "velocity": 108,
      "chip": "ym2612"
    },
    {
      "channel": 2,
      "note": 45,
      "start": 38.9979,
      "duration": 0.1963,
      "velocity": 109,
      "chip": "ym2612"
    },
    {
      "channel": 1,
      "note": 52,
      "start": 39.0006,
      "duration": 0.1932,
      "velocity": 109,
      "chip": "ym2612"
    },
    {
      "channel": 3,
      "note": 45,
      "start": 39.0037,
      "duration": 0.0902,
      "velocity": 114,
      "chip": "ym2612"
    },
    {
      "channel": 5,
      "note": 44,
      "start": 39.0143,
      "duration": 0.0963,
      "velocity": 125,
      "chip": "ym2612"
    },
    {
      "channel": 5,
      "note": 44,
      "start": 39.2475,
      "duration": 0.0966,
      "velocity": 125,
      "chip": "ym2612"
    },
    {
      "channel": 4,
      "note": 40,
      "start": 39.2511,
      "duration": 0.3429,
      "velocity": 92,
      "chip": "ym2612"
    },
    {
      "channel": 3,
      "note": 45,
      "start": 39.2541,
      "duration": 0.0897,
      "velocity": 108,
      "chip": "ym2612"
    },
    {
      "channel": 1,
      "note": 52,
      "start": 39.2571,
      "duration": 0.12,
      "velocity": 108,
      "chip": "ym2612"
    },
    {
      "channel": 2,
      "note": 45,
      "start": 39.2606,
      "duration": 0.0836,
      "velocity": 114,
      "chip": "ym2612"
    },
    {
      "channel": 2,
      "note": 81,
      "start": 39.3825,
      "duration": 0.2117,
      "velocity": 104,
      "chip": "ym2612"
    },
    {
      "channel": 5,
      "note": 44,
      "start": 39.6371,
      "duration": 0.0903,
      "velocity": 125,
      "chip": "ym2612"
    },
    {
      "channel": 4,
      "note": 36,
      "start": 39.6431,
      "duration": 0.4509,
      "velocity": 92,
      "chip": "ym2612"
    },
    {
      "channel": 3,
      "note": 41,
      "start": 39.6462,
      "duration": 0.0646,
      "velocity": 109,
      "chip": "ym2612"
    },
    {
      "channel": 1,
      "note": 44,
      "start": 39.649,
      "duration": 0.0616,
      "velocity": 109,
      "chip": "ym2612"
    },
    {
      "channel": 2,
      "note": 49,
      "start": 39.8826,
      "duration": 0.0949,
      "velocity": 106,
      "chip": "ym2612"
    },
    {
      "channel": 5,
      "note": 44,
      "start": 39.8863,
      "duration": 0.0912,
      "velocity": 125,
      "chip": "ym2612"
    },
    {
      "channel": 2,
      "note": 49,
      "start": 39.9974,
      "duration": 0.0968,
      "velocity": 106,
      "chip": "ym2612"
    },
    {
      "channel": 5,
      "note": 44,
      "start": 40.0004,
      "duration": 0.0937,
      "velocity": 125,
      "chip": "ym2612"
    },
    {
      "channel": 2,
      "note": 49,
      "start": 40.1332,
      "duration": 0.1943,
      "velocity": 95,
      "chip": "ym2612"
    },
    {
      "channel": 0,
      "note": 64,
      "start": 40.1459,
      "duration": 7.8647,
      "velocity": 106,
      "chip": "ym2612"
    },
    {
      "channel": 4,
      "note": 45,
      "start": 40.1506,
      "duration": 0.4101,
      "velocity": 92,
      "chip": "ym2612"
    },
    {
      "channel": 1,
      "note": 52,
      "start": 40.1544,
      "duration": 0.2061,
      "velocity": 109,
      "chip": "ym2612"
    },
    {
      "channel": 3,
      "note": 45,
      "start": 40.1573,
      "duration": 0.17,
      "velocity": 109,
      "chip": "ym2612"
    },
    {
      "channel": 5,
      "note": 44,
      "start": 40.5028,
      "duration": 0.1079,
      "velocity": 125,
      "chip": "ym2612"
    },
    {
      "channel": 3,
      "note": 45,
      "start": 40.5064,
      "duration": 0.1208,
      "velocity": 108,
      "chip": "ym2612"
    },
    {
      "channel": 2,
      "note": 52,
      "start": 40.5097,
      "duration": 0.1177,
      "velocity": 108,
      "chip": "ym2612"
    },
    {
      "channel": 4,
      "note": 45,
      "start": 40.6332,
      "duration": 0.0943,
      "velocity": 92,
      "chip": "ym2612"
    },
    {
      "channel": 4,
      "note": 45,
      "start": 40.748,
      "duration": 0.2794,
      "velocity": 92,
      "chip": "ym2612"
    },
    {
      "channel": 1,
      "note": 45,
      "start": 40.7513,
      "duration": 0.2759,
      "velocity": 114,
      "chip": "ym2612"
    },
    {
      "channel": 2,
      "note": 49,
      "start": 40.8827,
      "duration": 0.228,
      "velocity": 106,
      "chip": "ym2612"
    },
    {
      "channel": 5,
      "note": 45,
      "start": 40.8886,
      "duration": 0.1888,
      "velocity": 109,
      "chip": "ym2612"
    },
    {
      "channel": 3,
      "note": 52,
      "start": 40.8913,
      "duration": 0.1859,
      "velocity": 109,
      "chip": "ym2612"
    },
    {
      "channel": 4,
      "note": 45,
      "start": 41.1329,
      "duration": 0.311,
      "velocity": 92,
      "chip": "ym2612"
    },
    {
      "channel": 1,
      "note": 52,
      "start": 41.1361,
      "duration": 0.0744,
      "velocity": 108,
      "chip": "ym2612"
    },
    {
      "channel": 3,
      "note": 45,
      "start": 41.1388,
      "duration": 0.0718,
      "velocity": 108,
      "chip": "ym2612"
    },
    {
      "channel": 5,
      "note": 45,
      "start": 41.1419,
      "duration": 0.052,
      "velocity": 114,
      "chip": "ym2612"
    },
    {
      "channel": 1,
      "note": 52,
      "start": 41.2495,
      "duration": 0.0776,
      "velocity": 108,
      "chip": "ym2612"
    },
    {
      "channel": 3,
      "note": 45,
      "start": 41.2522,
      "duration": 0.0751,
      "velocity": 108,
      "chip": "ym2612"
    },
    {
      "channel": 5,
      "note": 45,
      "start": 41.2553,
      "duration": 0.1053,
      "velocity": 114,
      "chip": "ym2612"
    },
    {
      "channel": 2,
      "note": 49,
      "start": 41.3821,
      "duration": 0.0953,
      "velocity": 95,
      "chip": "ym2612"
    },
    {
      "channel": 1,
      "note": 40,
      "start": 41.5166,
      "duration": 0.0939,
      "velocity": 125,
      "chip": "ym2612"
    },
    {
      "channel": 4,
      "note": 39,
      "start": 41.5197,
      "duration": 0.2578,
      "velocity": 92,
      "chip": "ym2612"
    },
    {
      "channel": 1,
      "note": 40,
      "start": 41.6363,
      "duration": 0.091,
      "velocity": 125,
      "chip": "ym2612"
    },
    {
      "channel": 2,
      "note": 49,
      "start": 41.7661,
      "duration": 0.0782,
      "velocity": 95,
      "chip": "ym2612"
    },
    {
      "channel": 3,
      "note": 41,
      "start": 41.7702,
      "duration": 0.207,
      "velocity": 109,
      "chip": "ym2612"
    },
    {
      "channel": 5,
      "note": 44,
      "start": 41.773,
      "duration": 0.2044,
      "velocity": 109,
      "chip": "ym2612"
    },
    {
      "channel": 4,
      "note": 41,
      "start": 41.882,
      "duration": 0.212,
      "velocity": 92,
      "chip": "ym2612"
    },
    {
      "channel": 1,
      "note": 48,
      "start": 42.016,
      "duration": 0.0945,
      "velocity": 108,
      "chip": "ym2612"
    },
    {
      "channel": 2,
      "note": 41,
      "start": 42.0188,
      "duration": 0.0919,
      "velocity": 108,
      "chip": "ym2612"
    },
    {
      "channel": 2,
      "note": 49,
      "start": 42.1308,
      "duration": 0.2134,
      "velocity": 95,
      "chip": "ym2612"
    },
    {
      "channel": 4,
      "note": 45,
      "start": 42.1377,
      "duration": 0.4397,
      "velocity": 92,
      "chip": "ym2612"
    },
    {
      "channel": 3,
      "note": 52,
      "start": 42.1408,
      "duration": 0.2198,
      "velocity": 109,
      "chip": "ym2612"
    },
    {
      "channel": 5,
      "note": 45,
      "start": 42.1441,
      "duration": 0.1999,
      "velocity": 109,
      "chip": "ym2612"
    },
    {
      "channel": 1,
      "note": 44,
      "start": 42.5195,
      "duration": 0.1077,
      "velocity": 125,
      "chip": "ym2612"
    },
    {
      "channel": 5,
      "note": 45,
      "start": 42.5232,
      "duration": 0.1377,
      "velocity": 108,
      "chip": "ym2612"
    },
    {
      "channel": 2,
      "note": 52,
      "start": 42.5266,
      "duration": 0.1008,
      "velocity": 108,
      "chip": "ym2612"
    },
    {
      "channel": 4,
      "note": 45,
      "start": 42.6333,
      "duration": 0.1107,
      "velocity": 92,
      "chip": "ym2612"
    },
    {
      "channel": 4,
      "note": 45,
      "start": 42.7646,
      "duration": 0.2629,
      "velocity": 92,
      "chip": "ym2612"
    },
    {
      "channel": 3,
      "note": 45,
      "start": 42.7679,
      "duration": 0.226,
      "velocity": 114,
      "chip": "ym2612"
    },
    {
      "channel": 2,
      "note": 49,
      "start": 42.8826,
      "duration": 0.2282,
      "velocity": 106,
      "chip": "ym2612"
    },
    {
      "channel": 1,
      "note": 45,
      "start": 42.8864,
      "duration": 0.2076,
      "velocity": 109,
      "chip": "ym2612"
    },
    {
      "channel": 5,
      "note": 52,
      "start": 42.8891,
      "duration": 0.2051,
      "velocity": 109,
      "chip": "ym2612"
    },
    {
      "channel": 4,
      "note": 45,
      "start": 43.1328,
      "duration": 0.3112,
      "velocity": 92,
      "chip": "ym2612"
    },
    {
      "channel": 3,
      "note": 52,
      "start": 43.1361,
      "duration": 0.0746,
      "velocity": 108,
      "chip": "ym2612"
    },
    {
      "channel": 1,
      "note": 45,
      "start": 43.1388,
      "duration": 0.0717,
      "velocity": 108,
      "chip": "ym2612"
    },
    {
      "channel": 5,
      "note": 45,
      "start": 43.1423,
      "duration": 0.0518,
      "velocity": 114,
      "chip": "ym2612"
    },
    {
      "channel": 1,
      "note": 52,
      "start": 43.2666,
      "duration": 0.0773,
      "velocity": 108,
      "chip": "ym2612"
    },
    {
      "channel": 3,
      "note": 45,
      "start": 43.2692,
      "duration": 0.0749,
      "velocity": 108,
      "chip": "ym2612"
    },
    {
      "channel": 5,
      "note": 45,
      "start": 43.2723,
      "duration": 0.0884,
      "velocity": 114,
      "chip": "ym2612"
    },
    {
      "channel": 2,
      "note": 49,
      "start": 43.3823,
      "duration": 0.1118,
      "velocity": 95,
      "chip": "ym2612"
    },
    {
      "channel": 1,
      "note": 40,
      "start": 43.5168,
      "duration": 0.0938,
      "velocity": 125,
      "chip": "ym2612"
    },
    {
      "channel": 4,
      "note": 39,
      "start": 43.5204,
      "duration": 0.2571,
      "velocity": 92,
      "chip": "ym2612"
    },
    {
      "channel": 1,
      "note": 40,
      "start": 43.6524,
      "duration": 0.0915,
      "velocity": 125,
      "chip": "ym2612"
    },
    {
      "channel": 3,
      "note": 41,
      "start": 43.6563,
      "duration": 0.0711,
      "velocity": 109,
      "chip": "ym2612"
    },
    {
      "channel": 5,
      "note": 44,
      "start": 43.6596,
      "duration": 0.068,
      "velocity": 109,
      "chip": "ym2612"
    },
    {
      "channel": 1,
      "note": 40,
      "start": 43.7654,
      "duration": 0.0952,
      "velocity": 125,
      "chip": "ym2612"
    },
    {
      "channel": 2,
      "note": 81,
      "start": 43.8993,
      "duration": 0.1948,
      "velocity": 104,
      "chip": "ym2612"
    },
    {
      "channel": 4,
      "note": 41,
      "start": 43.9051,
      "duration": 0.1888,
      "velocity": 92,
      "chip": "ym2612"
    },
    {
      "channel": 3,
      "note": 48,
      "start": 43.9083,
      "duration": 0.2022,
      "velocity": 108,
      "chip": "ym2612"
    },
    {
      "channel": 5,
      "note": 41,
      "start": 43.9116,
      "duration": 0.1991,
      "velocity": 108,
      "chip": "ym2612"
    },
    {
      "channel": 2,
      "note": 49,
      "start": 44.1494,
      "duration": 0.1947,
      "velocity": 95,
      "chip": "ym2612"
    },
    {
      "channel": 4,
      "note": 45,
      "start": 44.1578,
      "duration": 0.4196,
      "velocity": 92,
      "chip": "ym2612"
    },
    {
      "channel": 1,
      "note": 52,
      "start": 44.1618,
      "duration": 0.1988,
      "velocity": 109,
      "chip": "ym2612"
    },
    {
      "channel": 3,
      "note": 45,
      "start": 44.1648,
      "duration": 0.1791,
      "velocity": 109,
      "chip": "ym2612"
    },
    {
      "channel": 5,
      "note": 44,
      "start": 44.521,
      "duration": 0.1232,
      "velocity": 125,
      "chip": "ym2612"
    },
    {
      "channel": 3,
      "note": 45,
      "start": 44.5246,
      "duration": 0.1361,
      "velocity": 108,
      "chip": "ym2612"
    },
    {
      "channel": 2,
      "note": 52,
      "start": 44.5281,
      "duration": 0.1161,
      "velocity": 108,
      "chip": "ym2612"
    },
    {
      "channel": 4,
      "note": 45,
      "start": 44.6486,
      "duration": 0.0956,
      "velocity": 92,
      "chip": "ym2612"
    },
    {
      "channel": 4,
      "note": 45,
      "start": 44.7647,
      "duration": 0.2794,
      "velocity": 92,
      "chip": "ym2612"
    },
    {
      "channel": 1,
      "note": 45,
      "start": 44.768,
      "duration": 0.2925,
      "velocity": 114,
      "chip": "ym2612"
    },
    {
      "channel": 2,
      "note": 49,
      "start": 44.8994,
      "duration": 0.2281,
      "velocity": 106,
      "chip": "ym2612"
    },
    {
      "channel": 5,
      "note": 45,
      "start": 44.9049,
      "duration": 0.1893,
      "velocity": 109,
      "chip": "ym2612"
    },
    {
      "channel": 3,
      "note": 52,
      "start": 44.9076,
      "duration": 0.1864,
      "velocity": 109,
      "chip": "ym2612"
    },
    {
      "channel": 4,
      "note": 45,
      "start": 45.1495,
      "duration": 0.3111,
      "velocity": 92,
      "chip": "ym2612"
    },
    {
      "channel": 1,
      "note": 52,
      "start": 45.1531,
      "duration": 0.0741,
      "velocity": 108,
      "chip": "ym2612"
    },
    {
      "channel": 3,
      "note": 45,
      "start": 45.1559,
      "duration": 0.0715,
      "velocity": 108,
      "chip": "ym2612"
    },
    {
      "channel": 5,
      "note": 45,
      "start": 45.1589,
      "duration": 0.0686,
      "velocity": 114,
      "chip": "ym2612"
    },
    {
      "channel": 1,
      "note": 52,
      "start": 45.2667,
      "duration": 0.0772,
      "velocity": 108,
      "chip": "ym2612"
    },
    {
      "channel": 3,
      "note": 45,
      "start": 45.2693,
      "duration": 0.0747,
      "velocity": 108,
      "chip": "ym2612"
    },
    {
      "channel": 5,
      "note": 45,
      "start": 45.2724,
      "duration": 0.105,
      "velocity": 114,
      "chip": "ym2612"
    },
    {
      "channel": 2,
      "note": 49,
      "start": 45.3989,
      "duration": 0.0952,
      "velocity": 95,
      "chip": "ym2612"
    },
    {
      "channel": 1,
      "note": 40,
      "start": 45.5176,
      "duration": 0.1096,
      "velocity": 125,
      "chip": "ym2612"
    },
    {
      "channel": 4,
      "note": 39,
      "start": 45.5207,
      "duration": 0.2735,
      "velocity": 92,
      "chip": "ym2612"
    },
    {
      "channel": 1,
      "note": 40,
      "start": 45.6526,
      "duration": 0.0913,
      "velocity": 125,
      "chip": "ym2612"
    },
    {
      "channel": 2,
      "note": 49,
      "start": 45.7828,
      "duration": 0.078,
      "velocity": 95,
      "chip": "ym2612"
    },
    {
      "channel": 3,
      "note": 41,
      "start": 45.7869,
      "duration": 0.2071,
      "velocity": 109,
      "chip": "ym2612"
    },
    {
      "channel": 5,
      "note": 44,
      "start": 45.7896,
      "duration": 0.2045,
      "velocity": 109,
      "chip": "ym2612"
    },
    {
      "channel": 4,
      "note": 41,
      "start": 45.8987,
      "duration": 0.212,
      "velocity": 92,
      "chip": "ym2612"
    },
    {
      "channel": 1,
      "note": 48,
      "start": 46.0321,
      "duration": 0.0952,
      "velocity": 108,
      "chip": "ym2612"
    },
    {
      "channel": 2,
      "note": 41,
      "start": 46.0349,
      "duration": 0.0927,
      "velocity": 108,
      "chip": "ym2612"
    },
    {
      "channel": 2,
      "note": 49,
      "start": 46.1489,
      "duration": 0.212,
      "velocity": 106,
      "chip": "ym2612"
    },
    {
      "channel": 4,
      "note": 45,
      "start": 46.1558,
      "duration": 0.3048,
      "velocity": 92,
      "chip": "ym2612"
    },
    {
      "channel": 3,
      "note": 52,
      "start": 46.1585,
      "duration": 0.2189,
      "velocity": 109,
      "chip": "ym2612"
    },
    {
      "channel": 5,
      "note": 45,
      "start": 46.1625,
      "duration": 0.1983,
      "velocity": 109,
      "chip": "ym2612"
    },
    {
      "channel": 1,
      "note": 44,
      "start": 46.281,
      "duration": 0.0129,
      "velocity": 125,
      "chip": "ym2612"
    },
    {
      "channel": 1,
      "note": 45,
      "start": 46.2976,
      "duration": 0.0796,
      "velocity": 125,
      "chip": "ym2612"
    },
    {
      "channel": 4,
      "note": 48,
      "start": 46.4812,
      "duration": 0.3796,
      "velocity": 92,
      "chip": "ym2612"
    },
    {
      "channel": 2,
      "note": 49,
      "start": 46.5326,
      "duration": 0.0782,
      "velocity": 95,
      "chip": "ym2612"
    },
    {
      "channel": 5,
      "note": 45,
      "start": 46.5371,
      "duration": 0.0903,
      "velocity": 108,
      "chip": "ym2612"
    },
    {
      "channel": 1,
      "note": 52,
      "start": 46.5402,
      "duration": 0.087,
      "velocity": 108,
      "chip": "ym2612"
    },
    {
      "channel": 3,
      "note": 44,
      "start": 46.6481,
      "duration": 0.0125,
      "velocity": 125,
      "chip": "ym2612"
    },
    {
      "channel": 3,
      "note": 45,
      "start": 46.6644,
      "duration": 0.0962,
      "velocity": 125,
      "chip": "ym2612"
    },
    {
      "channel": 2,
      "note": 49,
      "start": 46.7812,
      "duration": 0.0962,
      "velocity": 95,
      "chip": "ym2612"
    },
    {
      "channel": 1,
      "note": 45,
      "start": 46.7869,
      "duration": 0.2237,
      "velocity": 114,
      "chip": "ym2612"
    },
    {
      "channel": 2,
      "note": 49,
      "start": 46.8988,
      "duration": 0.0787,
      "velocity": 106,
      "chip": "ym2612"
    },
    {
      "channel": 4,
      "note": 55,
      "start": 46.904,
      "duration": 0.3233,
      "velocity": 92,
      "chip": "ym2612"
    },
    {
      "channel": 5,
      "note": 45,
      "start": 46.907,
      "duration": 0.1039,
      "velocity": 108,
      "chip": "ym2612"
    },
    {
      "channel": 3,
      "note": 52,
      "start": 46.9102,
      "duration": 0.1004,
      "velocity": 108,
      "chip": "ym2612"
    },
    {
      "channel": 2,
      "note": 45,
      "start": 47.0314,
      "duration": 0.1961,
      "velocity": 109,
      "chip": "ym2612"
    },
    {
      "channel": 1,
      "note": 52,
      "start": 47.0341,
      "duration": 0.193,
      "velocity": 109,
      "chip": "ym2612"
    },
    {
      "channel": 3,
      "note": 45,
      "start": 47.0372,
      "duration": 0.0901,
      "velocity": 114,
      "chip": "ym2612"
    },
    {
      "channel": 5,
      "note": 44,
      "start": 47.0478,
      "duration": 0.0962,
      "velocity": 125,
      "chip": "ym2612"
    },
    {
      "channel": 5,
      "note": 44,
      "start": 47.2809,
      "duration": 0.0966,
      "velocity": 125,
      "chip": "ym2612"
    },
    {
      "channel": 4,
      "note": 40,
      "start": 47.2845,
      "duration": 0.3428,
      "velocity": 92,
      "chip": "ym2612"
    },
    {
      "channel": 3,
      "note": 45,
      "start": 47.2875,
      "duration": 0.0898,
      "velocity": 108,
      "chip": "ym2612"
    },
    {
      "channel": 1,
      "note": 52,
      "start": 47.2905,
      "duration": 0.1034,
      "velocity": 108,
      "chip": "ym2612"
    },
    {
      "channel": 2,
      "note": 45,
      "start": 47.2939,
      "duration": 0.0837,
      "velocity": 114,
      "chip": "ym2612"
    },
    {
      "channel": 2,
      "note": 81,
      "start": 47.3993,
      "duration": 0.2282,
      "velocity": 104,
      "chip": "ym2612"
    },
    {
      "channel": 5,
      "note": 44,
      "start": 47.6537,
      "duration": 0.1071,
      "velocity": 125,
      "chip": "ym2612"
    },
    {
      "channel": 4,
      "note": 36,
      "start": 47.6597,
      "duration": 0.4677,
      "velocity": 92,
      "chip": "ym2612"
    },
    {
      "channel": 3,
      "note": 41,
      "start": 47.6628,
      "duration": 0.0647,
      "velocity": 109,
      "chip": "ym2612"
    },
    {
      "channel": 1,
      "note": 44,
      "start": 47.6656,
      "duration": 0.0618,
      "velocity": 109,
      "chip": "ym2612"
    },
    {
      "channel": 2,
      "note": 49,
      "start": 47.9161,
      "duration": 0.0949,
      "velocity": 106,
      "chip": "ym2612"
    },
    {
      "channel": 5,
      "note": 44,
      "start": 47.9197,
      "duration": 0.0912,
      "velocity": 125,
      "chip": "ym2612"
    },
    {
      "channel": 2,
      "note": 49,
      "start": 48.0308,
      "duration": 0.0968,
      "velocity": 106,
      "chip": "ym2612"
    },
    {
      "channel": 5,
      "note": 44,
      "start": 48.0338,
      "duration": 0.0937,
      "velocity": 125,
      "chip": "ym2612"
    },
    {
      "channel": 2,
      "note": 49,
      "start": 48.167,
      "duration": 0.077,
      "velocity": 95,
      "chip": "ym2612"
    },
    {
      "channel": 0,
      "note": 77,
      "start": 48.1826,
      "duration": 1.7112,
      "velocity": 119,
      "chip": "ym2612"
    },
    {
      "channel": 4,
      "note": 41,
      "start": 48.1871,
      "duration": 0.3068,
      "velocity": 92,
      "chip": "ym2612"
    },
    {
      "channel": 1,
      "note": 63,
      "start": 48.1921,
      "duration": 0.0684,
      "velocity": 109,
      "chip": "ym2612"
    },
    {
      "channel": 3,
      "note": 60,
      "start": 48.2001,
      "duration": 0.6938,
      "velocity": 99,
      "chip": "ym2612"
    },
    {
      "channel": 5,
      "note": 56,
      "start": 48.2029,
      "duration": 0.6912,
      "velocity": 99,
      "chip": "ym2612"
    },
    {
      "channel": 2,
      "note": 49,
      "start": 48.281,
      "duration": 0.2131,
      "velocity": 95,
      "chip": "ym2612"
    },
    {
      "channel": 1,
      "note": 53,
      "start": 48.2843,
      "duration": 0.0928,
      "velocity": 109,
      "chip": "ym2612"
    },
    {
      "channel": 1,
      "note": 44,
      "start": 48.4165,
      "duration": 0.0941,
      "velocity": 125,
      "chip": "ym2612"
    },
    {
      "channel": 1,
      "note": 44,
      "start": 48.5326,
      "duration": 0.0945,
      "velocity": 125,
      "chip": "ym2612"
    },
    {
      "channel": 4,
      "note": 44,
      "start": 48.5356,
      "duration": 0.3251,
      "velocity": 92,
      "chip": "ym2612"
    },
    {
      "channel": 2,
      "note": 60,
      "start": 48.5385,
      "duration": 0.0889,
      "velocity": 109,
      "chip": "ym2612"
    },
    {
      "channel": 1,
      "note": 44,
      "start": 48.6677,
      "duration": 0.0929,
      "velocity": 125,
      "chip": "ym2612"
    },
    {
      "channel": 2,
      "note": 30,
      "start": 48.9163,
      "duration": 0.2278,
      "velocity": 124,
      "chip": "ym2612"
    },
    {
      "channel": 4,
      "note": 35,
      "start": 48.9222,
      "duration": 0.4718,
      "velocity": 92,
      "chip": "ym2612"
    },
    {
      "channel": 1,
      "note": 47,
      "start": 48.9253,
      "duration": 0.6353,
      "velocity": 109,
      "chip": "ym2612"
    },
    {
      "channel": 3,
      "note": 63,
      "start": 48.9288,
      "duration": 1.2151,
      "velocity": 99,
      "chip": "ym2612"
    },
    {
      "channel": 5,
      "note": 59,
      "start": 48.9315,
      "duration": 1.2127,
      "velocity": 99,
      "chip": "ym2612"
    },
    {
      "channel": 2,
      "note": 49,
      "start": 49.4155,
      "duration": 0.0951,
      "velocity": 95,
      "chip": "ym2612"
    },
    {
      "channel": 4,
      "note": 43,
      "start": 49.4225,
      "duration": 0.3214,
      "velocity": 92,
      "chip": "ym2612"
    },
    {
      "channel": 2,
      "note": 40,
      "start": 49.5335,
      "duration": 0.1106,
      "velocity": 125,
      "chip": "ym2612"
    },
    {
      "channel": 2,
      "note": 40,
      "start": 49.6696,
      "duration": 0.0912,
      "velocity": 125,
      "chip": "ym2612"
    },
    {
      "channel": 1,
      "note": 55,
      "start": 49.6737,
      "duration": 0.2202,
      "velocity": 109,
      "chip": "ym2612"
    },
    {
      "channel": 4,
      "note": 27,
      "start": 49.7831,
      "duration": 0.211,
      "velocity": 124,
      "chip": "ym2612"
    },
    {
      "channel": 0,
      "note": 80,
      "start": 49.9146,
      "duration": 0.0959,
      "velocity": 119,
      "chip": "ym2612"
    },
    {
      "channel": 2,
      "note": 39,
      "start": 49.9181,
      "duration": 0.2262,
      "velocity": 92,
      "chip": "ym2612"
    },
    {
      "channel": 1,
      "note": 51,
      "start": 49.9207,
      "duration": 0.0732,
      "velocity": 109,
      "chip": "ym2612"
    },
    {
      "channel": 0,
      "note": 82,
      "start": 50.0478,
      "duration": 0.0959,
      "velocity": 119,
      "chip": "ym2612"
    },
    {
      "channel": 2,
      "note": 49,
      "start": 50.1655,
      "duration": 0.0786,
      "velocity": 95,
      "chip": "ym2612"
    },
    {
      "channel": 0,
      "note": 82,
      "start": 50.1742,
      "duration": 1.6863,
      "velocity": 119,
      "chip": "ym2612"
    },
    {
      "channel": 1,
      "note": 41,
      "start": 50.1779,
      "duration": 0.316,
      "velocity": 92,
      "chip": "ym2612"
    },
    {
      "channel": 4,
      "note": 63,
      "start": 50.181,
      "duration": 0.0798,
      "velocity": 109,
      "chip": "ym2612"
    },
    {
      "channel": 3,
      "note": 60,
      "start": 50.184,
      "duration": 0.71,
      "velocity": 99,
      "chip": "ym2612"
    },
    {
      "channel": 5,
      "note": 65,
      "start": 50.1866,
      "duration": 0.7075,
      "velocity": 99,
      "chip": "ym2612"
    },
    {
      "channel": 2,
      "note": 49,
      "start": 50.2978,
      "duration": 0.1964,
      "velocity": 95,
      "chip": "ym2612"
    },
    {
      "channel": 4,
      "note": 53,
      "start": 50.3011,
      "duration": 0.0929,
      "velocity": 109,
      "chip": "ym2612"
    },
    {
      "channel": 4,
      "note": 44,
      "start": 50.4174,
      "duration": 0.0933,
      "velocity": 125,
      "chip": "ym2612"
    },
    {
      "channel": 4,
      "note": 44,
      "start": 50.5492,
      "duration": 0.0949,
      "velocity": 125,
      "chip": "ym2612"
    },
    {
      "channel": 1,
      "note": 44,
      "start": 50.552,
      "duration": 0.3252,
      "velocity": 92,
      "chip": "ym2612"
    },
    {
      "channel": 2,
      "note": 60,
      "start": 50.555,
      "duration": 0.0893,
      "velocity": 109,
      "chip": "ym2612"
    },
    {
      "channel": 4,
      "note": 44,
      "start": 50.6686,
      "duration": 0.0922,
      "velocity": 125,
      "chip": "ym2612"
    },
    {
      "channel": 2,
      "note": 30,
      "start": 50.916,
      "duration": 0.228,
      "velocity": 124,
      "chip": "ym2612"
    },
    {
      "channel": 1,
      "note": 35,
      "start": 50.9196,
      "duration": 0.3576,
      "velocity": 92,
      "chip": "ym2612"
    },
    {
      "channel": 4,
      "note": 47,
      "start": 50.9227,
      "duration": 0.6381,
      "velocity": 109,
      "chip": "ym2612"
    },
    {
      "channel": 3,
      "note": 63,
      "start": 50.9266,
      "duration": 1.2176,
      "velocity": 99,
      "chip": "ym2612"
    },
    {
      "channel": 5,
      "note": 68,
      "start": 50.9295,
      "duration": 1.2149,
      "velocity": 99,
      "chip": "ym2612"
    },
    {
      "channel": 2,
      "note": 49,
      "start": 51.4156,
      "duration": 0.1119,
      "velocity": 95,
      "chip": "ym2612"
    },
    {
      "channel": 1,
      "note": 43,
      "start": 51.4212,
      "duration": 0.2227,
      "velocity": 92,
      "chip": "ym2612"
    },
    {
      "channel": 2,
      "note": 40,
      "start": 51.5483,
      "duration": 0.0959,
      "velocity": 125,
      "chip": "ym2612"
    },
    {
      "channel": 2,
      "note": 40,
      "start": 51.6705,
      "duration": 0.107,
      "velocity": 125,
      "chip": "ym2612"
    },
    {
      "channel": 1,
      "note": 41,
      "start": 51.6742,
      "duration": 0.4698,
      "velocity": 92,
      "chip": "ym2612"
    },
    {
      "channel": 4,
      "note": 55,
      "start": 51.678,
      "duration": 0.2162,
      "velocity": 109,
      "chip": "ym2612"
    },
    {
      "channel": 2,
      "note": 27,
      "start": 51.7995,
      "duration": 0.078,
      "velocity": 124,
      "chip": "ym2612"
    },
    {
      "channel": 2,
      "note": 81,
      "start": 51.916,
      "duration": 0.2285,
      "velocity": 104,
      "chip": "ym2612"
    },
    {
      "channel": 0,
      "note": 81,
      "start": 51.9212,
      "duration": 0.106,
      "velocity": 119,
      "chip": "ym2612"
    },
    {
      "channel": 4,
      "note": 51,
      "start": 51.9242,
      "duration": 0.07,
      "velocity": 109,
      "chip": "ym2612"
    },
    {
      "channel": 0,
      "note": 80,
      "start": 52.0475,
      "duration": 0.0964,
      "velocity": 119,
      "chip": "ym2612"
    },
    {
      "channel": 2,
      "note": 49,
      "start": 52.182,
      "duration": 0.0788,
      "velocity": 95,
      "chip": "ym2612"
    },
    {
      "channel": 0,
      "note": 77,
      "start": 52.1893,
      "duration": 1.9712,
      "velocity": 119,
      "chip": "ym2612"
    },
    {
      "channel": 1,
      "note": 49,
      "start": 52.193,
      "duration": 0.0842,
      "velocity": 92,
      "chip": "ym2612"
    },
    {
      "channel": 4,
      "note": 56,
      "start": 52.196,
      "duration": 0.198,
      "velocity": 109,
      "chip": "ym2612"
    },
    {
      "channel": 3,
      "note": 49,
      "start": 52.1989,
      "duration": 0.1783,
      "velocity": 109,
      "chip": "ym2612"
    },
    {
      "channel": 2,
      "note": 49,
      "start": 52.298,
      "duration": 0.2128,
      "velocity": 95,
      "chip": "ym2612"
    },
    {
      "channel": 1,
      "note": 49,
      "start": 52.3011,
      "duration": 0.0927,
      "velocity": 92,
      "chip": "ym2612"
    },
    {
      "channel": 5,
      "note": 44,
      "start": 52.4344,
      "duration": 0.0932,
      "velocity": 125,
      "chip": "ym2612"
    },
    {
      "channel": 1,
      "note": 37,
      "start": 52.4416,
      "duration": 0.0857,
      "velocity": 92,
      "chip": "ym2612"
    },
    {
      "channel": 5,
      "note": 44,
      "start": 52.5492,
      "duration": 0.095,
      "velocity": 125,
      "chip": "ym2612"
    },
    {
      "channel": 1,
      "note": 49,
      "start": 52.552,
      "duration": 0.0919,
      "velocity": 92,
      "chip": "ym2612"
    },
    {
      "channel": 3,
      "note": 56,
      "start": 52.5552,
      "duration": 0.2223,
      "velocity": 108,
      "chip": "ym2612"
    },
    {
      "channel": 4,
      "note": 49,
      "start": 52.5581,
      "duration": 0.2026,
      "velocity": 108,
      "chip": "ym2612"
    },
    {
      "channel": 5,
      "note": 44,
      "start": 52.6849,
      "duration": 0.0929,
      "velocity": 125,
      "chip": "ym2612"
    },
    {
      "channel": 1,
      "note": 49,
      "start": 52.6877,
      "duration": 0.0897,
      "velocity": 92,
      "chip": "ym2612"
    },
    {
      "channel": 1,
      "note": 37,
      "start": 52.7975,
      "duration": 0.0965,
      "velocity": 92,
      "chip": "ym2612"
    },
    {
      "channel": 2,
      "note": 49,
      "start": 52.9322,
      "duration": 0.2286,
      "velocity": 106,
      "chip": "ym2612"
    },
    {
      "channel": 1,
      "note": 49,
      "start": 52.9373,
      "duration": 0.09,
      "velocity": 92,
      "chip": "ym2612"
    },
    {
      "channel": 4,
      "note": 49,
      "start": 52.9402,
      "duration": 0.1871,
      "velocity": 109,
      "chip": "ym2612"
    },
    {
      "channel": 3,
      "note": 56,
      "start": 52.9435,
      "duration": 0.1837,
      "velocity": 109,
      "chip": "ym2612"
    },
    {
      "channel": 1,
      "note": 49,
      "start": 53.0475,
      "duration": 0.113,
      "velocity": 92,
      "chip": "ym2612"
    },
    {
      "channel": 1,
      "note": 37,
      "start": 53.1826,
      "duration": 0.0947,
      "velocity": 92,
      "chip": "ym2612"
    },
    {
      "channel": 5,
      "note": 49,
      "start": 53.1856,
      "duration": 0.1919,
      "velocity": 108,
      "chip": "ym2612"
    },
    {
      "channel": 3,
      "note": 56,
      "start": 53.1884,
      "duration": 0.1889,
      "velocity": 108,
      "chip": "ym2612"
    },
    {
      "channel": 1,
      "note": 49,
      "start": 53.299,
      "duration": 0.1116,
      "velocity": 92,
      "chip": "ym2612"
    },
    {
      "channel": 2,
      "note": 49,
      "start": 53.4326,
      "duration": 0.0949,
      "velocity": 95,
      "chip": "ym2612"
    },
    {
      "channel": 1,
      "note": 49,
      "start": 53.4397,
      "duration": 0.0875,
      "velocity": 92,
      "chip": "ym2612"
    },
    {
      "channel": 4,
      "note": 40,
      "start": 53.5503,
      "duration": 0.1104,
      "velocity": 125,
      "chip": "ym2612"
    },
    {
      "channel": 1,
      "note": 37,
      "start": 53.5531,
      "duration": 0.1075,
      "velocity": 92,
      "chip": "ym2612"
    },
    {
      "channel": 4,
      "note": 40,
      "start": 53.6876,
      "duration": 0.09,
      "velocity": 125,
      "chip": "ym2612"
    },
    {
      "channel": 1,
      "note": 49,
      "start": 53.6909,
      "duration": 0.0864,
      "velocity": 92,
      "chip": "ym2612"
    },
    {
      "channel": 3,
      "note": 53,
      "start": 53.6944,
      "duration": 0.083,
      "velocity": 108,
      "chip": "ym2612"
    },
    {
      "channel": 5,
      "note": 56,
      "start": 53.6975,
      "duration": 0.0801,
      "velocity": 108,
      "chip": "ym2612"
    },
    {
      "channel": 2,
      "note": 49,
      "start": 53.7989,
      "duration": 0.2118,
      "velocity": 95,
      "chip": "ym2612"
    },
    {
      "channel": 1,
      "note": 50,
      "start": 53.802,
      "duration": 0.1086,
      "velocity": 92,
      "chip": "ym2612"
    },
    {
      "channel": 3,
      "note": 50,
      "start": 53.8054,
      "duration": 0.2886,
      "velocity": 109,
      "chip": "ym2612"
    },
    {
      "channel": 4,
      "note": 53,
      "start": 53.8081,
      "duration": 0.286,
      "velocity": 109,
      "chip": "ym2612"
    },
    {
      "channel": 1,
      "note": 38,
      "start": 53.9315,
      "duration": 0.0957,
      "velocity": 92,
      "chip": "ym2612"
    },
    {
      "channel": 1,
      "note": 45,
      "start": 54.048,
      "duration": 0.1126,
      "velocity": 92,
      "chip": "ym2612"
    },
    {
      "channel": 2,
      "note": 49,
      "start": 54.1824,
      "duration": 0.2117,
      "velocity": 106,
      "chip": "ym2612"
    },
    {
      "channel": 0,
      "note": 77,
      "start": 54.1893,
      "duration": 0.0878,
      "velocity": 119,
      "chip": "ym2612"
    },
    {
      "channel": 1,
      "note": 49,
      "start": 54.1918,
      "duration": 0.0854,
      "velocity": 92,
      "chip": "ym2612"
    },
    {
      "channel": 3,
      "note": 49,
      "start": 54.1953,
      "duration": 0.2155,
      "velocity": 109,
      "chip": "ym2612"
    },
    {
      "channel": 4,
      "note": 56,
      "start": 54.1981,
      "duration": 0.1958,
      "velocity": 109,
      "chip": "ym2612"
    },
    {
      "channel": 5,
      "note": 44,
      "start": 54.3144,
      "duration": 0.013,
      "velocity": 125,
      "chip": "ym2612"
    },
    {
      "channel": 0,
      "note": 75,
      "start": 54.3171,
      "duration": 0.0934,
      "velocity": 119,
      "chip": "ym2612"
    },
    {
      "channel": 1,
      "note": 37,
      "start": 54.3195,
      "duration": 0.0911,
      "velocity": 92,
      "chip": "ym2612"
    },
    {
      "channel": 5,
      "note": 45,
      "start": 54.331,
      "duration": 0.0799,
      "velocity": 125,
      "chip": "ym2612"
    },
    {
      "channel": 0,
      "note": 72,
      "start": 54.431,
      "duration": 0.0961,
      "velocity": 119,
      "chip": "ym2612"
    },
    {
      "channel": 1,
      "note": 49,
      "start": 54.4335,
      "duration": 0.0937,
      "velocity": 92,
      "chip": "ym2612"
    },
    {
      "channel": 2,
      "note": 49,
      "start": 54.5655,
      "duration": 0.0785,
      "velocity": 95,
      "chip": "ym2612"
    },
    {
      "channel": 0,
      "note": 70,
      "start": 54.5687,
      "duration": 0.0917,
      "velocity": 119,
      "chip": "ym2612"
    },
    {
      "channel": 1,
      "note": 49,
      "start": 54.5712,
      "duration": 0.0894,
      "velocity": 92,
      "chip": "ym2612"
    },
    {
      "channel": 4,
      "note": 49,
      "start": 54.5744,
      "duration": 0.2031,
      "velocity": 108,
      "chip": "ym2612"
    },
    {
      "channel": 3,
      "note": 56,
      "start": 54.5779,
      "duration": 0.1827,
      "velocity": 108,
      "chip": "ym2612"
    },
    {
      "channel": 5,
      "note": 44,
      "start": 54.6809,
      "duration": 0.0131,
      "velocity": 125,
      "chip": "ym2612"
    },
    {
      "channel": 0,
      "note": 75,
      "start": 54.6836,
      "duration": 0.0936,
      "velocity": 119,
      "chip": "ym2612"
    },
    {
      "channel": 1,
      "note": 37,
      "start": 54.6861,
      "duration": 0.0912,
      "velocity": 92,
      "chip": "ym2612"
    },
    {
      "channel": 5,
      "note": 45,
      "start": 54.6981,
      "duration": 0.0795,
      "velocity": 125,
      "chip": "ym2612"
    },
    {
      "channel": 2,
      "note": 49,
      "start": 54.8142,
      "duration": 0.0967,
      "velocity": 95,
      "chip": "ym2612"
    },
    {
      "channel": 0,
      "note": 72,
      "start": 54.8186,
      "duration": 0.0919,
      "velocity": 119,
      "chip": "ym2612"
    },
    {
      "channel": 1,
      "note": 49,
      "start": 54.8211,
      "duration": 0.0895,
      "velocity": 92,
      "chip": "ym2612"
    },
    {
      "channel": 2,
      "note": 49,
      "start": 54.9324,
      "duration": 0.0782,
      "velocity": 106,
      "chip": "ym2612"
    },
    {
      "channel": 0,
      "note": 70,
      "start": 54.937,
      "duration": 0.0901,
      "velocity": 119,
      "chip": "ym2612"
    },
    {
      "channel": 1,
      "note": 49,
      "start": 54.9395,
      "duration": 0.0877,
      "velocity": 92,
      "chip": "ym2612"
    },
    {
      "channel": 3,
      "note": 49,
      "start": 54.9426,
      "duration": 0.2012,
      "velocity": 109,
      "chip": "ym2612"
    },
    {
      "channel": 4,
      "note": 56,
      "start": 54.9457,
      "duration": 0.1982,
      "velocity": 109,
      "chip": "ym2612"
    },
    {
      "channel": 0,
      "note": 68,
      "start": 55.0639,
      "duration": 0.0966,
      "velocity": 119,
      "chip": "ym2612"
    },
    {
      "channel": 1,
      "note": 37,
      "start": 55.0664,
      "duration": 0.0941,
      "velocity": 92,
      "chip": "ym2612"
    },
    {
      "channel": 5,
      "note": 44,
      "start": 55.081,
      "duration": 0.0963,
      "velocity": 125,
      "chip": "ym2612"
    },
    {
      "channel": 0,
      "note": 72,
      "start": 55.1829,
      "duration": 0.1108,
      "velocity": 119,
      "chip": "ym2612"
    },
    {
      "channel": 1,
      "note": 49,
      "start": 55.1854,
      "duration": 0.1085,
      "velocity": 92,
      "chip": "ym2612"
    },
    {
      "channel": 2,
      "note": 49,
      "start": 55.1885,
      "duration": 0.2057,
      "velocity": 108,
      "chip": "ym2612"
    },
    {
      "channel": 3,
      "note": 56,
      "start": 55.1912,
      "duration": 0.2027,
      "velocity": 108,
      "chip": "ym2612"
    },
    {
      "channel": 5,
      "note": 44,
      "start": 55.3141,
      "duration": 0.0966,
      "velocity": 125,
      "chip": "ym2612"
    },
    {
      "channel": 0,
      "note": 70,
      "start": 55.3173,
      "duration": 0.0931,
      "velocity": 119,
      "chip": "ym2612"
    },
    {
      "channel": 1,
      "note": 49,
      "start": 55.3198,
      "duration": 0.0907,
      "velocity": 92,
      "chip": "ym2612"
    },
    {
      "channel": 2,
      "note": 81,
      "start": 55.4321,
      "duration": 0.2288,
      "velocity": 104,
      "chip": "ym2612"
    },
    {
      "channel": 0,
      "note": 68,
      "start": 55.4373,
      "duration": 0.1065,
      "velocity": 119,
      "chip": "ym2612"
    },
    {
      "channel": 1,
      "note": 49,
      "start": 55.4398,
      "duration": 0.1041,
      "velocity": 92,
      "chip": "ym2612"
    },
    {
      "channel": 0,
      "note": 65,
      "start": 55.5638,
      "duration": 0.0966,
      "velocity": 119,
      "chip": "ym2612"
    },
    {
      "channel": 1,
      "note": 49,
      "start": 55.5663,
      "duration": 0.0942,
      "velocity": 92,
      "chip": "ym2612"
    },
    {
      "channel": 3,
      "note": 53,
      "start": 55.5693,
      "duration": 0.0746,
      "velocity": 108,
      "chip": "ym2612"
    },
    {
      "channel": 4,
      "note": 47,
      "start": 55.5721,
      "duration": 0.072,
      "velocity": 108,
      "chip": "ym2612"
    },
    {
      "channel": 5,
      "note": 44,
      "start": 55.6878,
      "duration": 0.1064,
      "velocity": 125,
      "chip": "ym2612"
    },
    {
      "channel": 0,
      "note": 70,
      "start": 55.6931,
      "duration": 0.1006,
      "velocity": 119,
      "chip": "ym2612"
    },
    {
      "channel": 1,
      "note": 49,
      "start": 55.6957,
      "duration": 0.0982,
      "velocity": 92,
      "chip": "ym2612"
    },
    {
      "channel": 3,
      "note": 53,
      "start": 55.6986,
      "duration": 0.1953,
      "velocity": 109,
      "chip": "ym2612"
    },
    {
      "channel": 4,
      "note": 47,
      "start": 55.7017,
      "duration": 0.1923,
      "velocity": 109,
      "chip": "ym2612"
    },
    {
      "channel": 0,
      "note": 68,
      "start": 55.8158,
      "duration": 0.0946,
      "velocity": 119,
      "chip": "ym2612"
    },
    {
      "channel": 1,
      "note": 44,
      "start": 55.8183,
      "duration": 0.0922,
      "velocity": 92,
      "chip": "ym2612"
    },
    {
      "channel": 2,
      "note": 49,
      "start": 55.9319,
      "duration": 0.0789,
      "velocity": 106,
      "chip": "ym2612"
    },
    {
      "channel": 5,
      "note": 44,
      "start": 55.9356,
      "duration": 0.1086,
      "velocity": 125,
      "chip": "ym2612"
    },
    {
      "channel": 0,
      "note": 65,
      "start": 55.9388,
      "duration": 0.105,
      "velocity": 119,
      "chip": "ym2612"
    },
    {
      "channel": 1,
      "note": 44,
      "start": 55.9419,
      "duration": 0.1021,
      "velocity": 92,
      "chip": "ym2612"
    },
    {
      "channel": 2,
      "note": 49,
      "start": 56.0641,
      "duration": 0.0799,
      "velocity": 106,
      "chip": "ym2612"
    },
    {
      "channel": 5,
      "note": 44,
      "start": 56.0671,
      "duration": 0.0938,
      "velocity": 125,
      "chip": "ym2612"
    },
    {
      "channel": 0,
      "note": 63,
      "start": 56.0702,
      "duration": 0.0903,
      "velocity": 119,
      "chip": "ym2612"
    },
    {
      "channel": 2,
      "note": 49,
      "start": 56.1836,
      "duration": 0.0771,
      "velocity": 95,
      "chip": "ym2612"
    },
    {
      "channel": 0,
      "note": 65,
      "start": 56.1964,
      "duration": 2.4807,
      "velocity": 119,
      "chip": "ym2612"
    },
    {
      "channel": 1,
      "note": 41,
      "start": 56.2005,
      "duration": 0.3267,
      "velocity": 92,
      "chip": "ym2612"
    },
    {
      "channel": 3,
      "note": 63,
      "start": 56.2046,
      "duration": 0.0893,
      "velocity": 109,
      "chip": "ym2612"
    },
    {
      "channel": 4,
      "note": 60,
      "start": 56.2111,
      "duration": 0.6995,
      "velocity": 99,
      "chip": "ym2612"
    },
    {
      "channel": 5,
      "note": 56,
      "start": 56.2139,
      "duration": 0.6969,
      "velocity": 99,
      "chip": "ym2612"
    },
    {
      "channel": 2,
      "note": 49,
      "start": 56.3142,
      "duration": 0.2132,
      "velocity": 95,
      "chip": "ym2612"
    },
    {
      "channel": 3,
      "note": 53,
      "start": 56.3176,
      "duration": 0.0929,
      "velocity": 109,
      "chip": "ym2612"
    },
    {
      "channel": 3,
      "note": 44,
      "start": 56.4494,
      "duration": 0.0945,
      "velocity": 125,
      "chip": "ym2612"
    },
    {
      "channel": 3,
      "note": 44,
      "start": 56.5661,
      "duration": 0.0945,
      "velocity": 125,
      "chip": "ym2612"
    },
    {
      "channel": 1,
      "note": 44,
      "start": 56.5689,
      "duration": 0.3249,
      "velocity": 92,
      "chip": "ym2612"
    },
    {
      "channel": 2,
      "note": 60,
      "start": 56.5718,
      "duration": 0.0891,
      "velocity": 109,
      "chip": "ym2612"
    },
    {
      "channel": 3,
      "note": 44,
      "start": 56.701,
      "duration": 0.093,
      "velocity": 125,
      "chip": "ym2612"
    },
    {
      "channel": 2,
      "note": 30,
      "start": 56.9498,
      "duration": 0.2109,
      "velocity": 124,
      "chip": "ym2612"
    },
    {
      "channel": 1,
      "note": 35,
      "start": 56.9555,
      "duration": 0.4718,
      "velocity": 92,
      "chip": "ym2612"
    },
    {
      "channel": 3,
      "note": 47,
      "start": 56.9585,
      "duration": 0.6354,
      "velocity": 109,
      "chip": "ym2612"
    },
    {
      "channel": 4,
      "note": 63,
      "start": 56.9622,
      "duration": 1.2151,
      "velocity": 99,
      "chip": "ym2612"
    },
    {
      "channel": 5,
      "note": 59,
      "start": 56.9648,
      "duration": 1.2127,
      "velocity": 99,
      "chip": "ym2612"
    },
    {
      "channel": 2,
      "note": 49,
      "start": 57.4488,
      "duration": 0.0952,
      "velocity": 95,
      "chip": "ym2612"
    },
    {
      "channel": 1,
      "note": 43,
      "start": 57.4561,
      "duration": 0.3211,
      "velocity": 92,
      "chip": "ym2612"
    },
    {
      "channel": 2,
      "note": 40,
      "start": 57.5669,
      "duration": 0.1105,
      "velocity": 125,
      "chip": "ym2612"
    },
    {
      "channel": 2,
      "note": 40,
      "start": 57.7033,
      "duration": 0.0908,
      "velocity": 125,
      "chip": "ym2612"
    },
    {
      "channel": 3,
      "note": 55,
      "start": 57.7071,
      "duration": 0.2201,
      "velocity": 109,
      "chip": "ym2612"
    },
    {
      "channel": 1,
      "note": 27,
      "start": 57.816,
      "duration": 0.2111,
      "velocity": 124,
      "chip": "ym2612"
    },
    {
      "channel": 2,
      "note": 39,
      "start": 57.9484,
      "duration": 0.2292,
      "velocity": 92,
      "chip": "ym2612"
    },
    {
      "channel": 3,
      "note": 51,
      "start": 57.9515,
      "duration": 0.0758,
      "velocity": 109,
      "chip": "ym2612"
    },
    {
      "channel": 2,
      "note": 49,
      "start": 58.1988,
      "duration": 0.0786,
      "velocity": 95,
      "chip": "ym2612"
    },
    {
      "channel": 1,
      "note": 41,
      "start": 58.2063,
      "duration": 0.3209,
      "velocity": 92,
      "chip": "ym2612"
    },
    {
      "channel": 3,
      "note": 63,
      "start": 58.2098,
      "duration": 0.0841,
      "velocity": 109,
      "chip": "ym2612"
    },
    {
      "channel": 4,
      "note": 60,
      "start": 58.2129,
      "duration": 0.7145,
      "velocity": 99,
      "chip": "ym2612"
    },
    {
      "channel": 5,
      "note": 65,
      "start": 58.2155,
      "duration": 0.712,
      "velocity": 99,
      "chip": "ym2612"
    },
    {
      "channel": 2,
      "note": 49,
      "start": 58.3147,
      "duration": 0.2128,
      "velocity": 95,
      "chip": "ym2612"
    },
    {
      "channel": 3,
      "note": 53,
      "start": 58.3181,
      "duration": 0.1091,
      "velocity": 109,
      "chip": "ym2612"
    },
    {
      "channel": 3,
      "note": 44,
      "start": 58.4508,
      "duration": 0.0931,
      "velocity": 125,
      "chip": "ym2612"
    },
    {
      "channel": 3,
      "note": 44,
      "start": 58.5828,
      "duration": 0.0944,
      "velocity": 125,
      "chip": "ym2612"
    },
    {
      "channel": 1,
      "note": 44,
      "start": 58.5856,
      "duration": 0.3249,
      "velocity": 92,
      "chip": "ym2612"
    },
    {
      "channel": 2,
      "note": 60,
      "start": 58.5885,
      "duration": 0.0889,
      "velocity": 109,
      "chip": "ym2612"
    },
    {
      "channel": 3,
      "note": 44,
      "start": 58.701,
      "duration": 0.093,
      "velocity": 125,
      "chip": "ym2612"
    },
    {
      "channel": 0,
      "note": 64,
      "start": 58.704,
      "duration": 0.4731,
      "velocity": 119,
      "chip": "ym2612"
    },
    {
      "channel": 2,
      "note": 30,
      "start": 58.9494,
      "duration": 0.2281,
      "velocity": 124,
      "chip": "ym2612"
    },
    {
      "channel": 1,
      "note": 35,
      "start": 58.9529,
      "duration": 0.3408,
      "velocity": 92,
      "chip": "ym2612"
    },
    {
      "channel": 3,
      "note": 47,
      "start": 58.956,
      "duration": 0.6378,
      "velocity": 109,
      "chip": "ym2612"
    },
    {
      "channel": 4,
      "note": 63,
      "start": 58.9599,
      "duration": 1.2176,
      "velocity": 99,
      "chip": "ym2612"
    },
    {
      "channel": 5,
      "note": 68,
      "start": 58.9628,
      "duration": 1.2148,
      "velocity": 99,
      "chip": "ym2612"
    },
    {
      "channel": 0,
      "note": 61,
      "start": 59.199,
      "duration": 0.4781,
      "velocity": 119,
      "chip": "ym2612"
    },
    {
      "channel": 2,
      "note": 49,
      "start": 59.4491,
      "duration": 0.1116,
      "velocity": 95,
      "chip": "ym2612"
    },
    {
      "channel": 1,
      "note": 43,
      "start": 59.4551,
      "duration": 0.2222,
      "velocity": 92,
      "chip": "ym2612"
    },
    {
      "channel": 2,
      "note": 40,
      "start": 59.582,
      "duration": 0.0955,
      "velocity": 125,
      "chip": "ym2612"
    },
    {
      "channel": 2,
      "note": 40,
      "start": 59.703,
      "duration": 0.1078,
      "velocity": 125,
      "chip": "ym2612"
    },
    {
      "channel": 0,
      "note": 60,
      "start": 59.7062,
      "duration": 0.471,
      "velocity": 119,
      "chip": "ym2612"
    },
    {
      "channel": 1,
      "note": 41,
      "start": 59.7092,
      "duration": 0.468,
      "velocity": 92,
      "chip": "ym2612"
    },
    {
      "channel": 3,
      "note": 55,
      "start": 59.7125,
      "duration": 0.2148,
      "velocity": 109,
      "chip": "ym2612"
    },
    {
      "channel": 2,
      "note": 27,
      "start": 59.8327,
      "duration": 0.078,
      "velocity": 124,
      "chip": "ym2612"
    },
    {
      "channel": 2,
      "note": 81,
      "start": 59.9492,
      "duration": 0.2285,
      "velocity": 104,
      "chip": "ym2612"
    },
    {
      "channel": 3,
      "note": 51,
      "start": 59.9546,
      "duration": 0.0727,
      "velocity": 109,
      "chip": "ym2612"
    },
    {
      "channel": 2,
      "note": 49,
      "start": 60.1989,
      "duration": 0.0785,
      "velocity": 95,
      "chip": "ym2612"
    },
    {
      "channel": 0,
      "note": 59,
      "start": 60.2063,
      "duration": 1.9875,
      "velocity": 119,
      "chip": "ym2612"
    },
    {
      "channel": 1,
      "note": 49,
      "start": 60.2097,
      "duration": 0.1009,
      "velocity": 92,
      "chip": "ym2612"
    },
    {
      "channel": 3,
      "note": 56,
      "start": 60.213,
      "duration": 0.2143,
      "velocity": 109,
      "chip": "ym2612"
    },
    {
      "channel": 4,
      "note": 49,
      "start": 60.2159,
      "duration": 0.1947,
      "velocity": 109,
      "chip": "ym2612"
    },
    {
      "channel": 2,
      "note": 49,
      "start": 60.331,
      "duration": 0.1963,
      "velocity": 95,
      "chip": "ym2612"
    },
    {
      "channel": 1,
      "note": 49,
      "start": 60.3341,
      "duration": 0.093,
      "velocity": 92,
      "chip": "ym2612"
    },
    {
      "channel": 5,
      "note": 44,
      "start": 60.451,
      "duration": 0.1097,
      "velocity": 125,
      "chip": "ym2612"
    },
    {
      "channel": 1,
      "note": 37,
      "start": 60.4563,
      "duration": 0.1041,
      "velocity": 92,
      "chip": "ym2612"
    },
    {
      "channel": 5,
      "note": 44,
      "start": 60.5832,
      "duration": 0.0941,
      "velocity": 125,
      "chip": "ym2612"
    },
    {
      "channel": 1,
      "note": 49,
      "start": 60.5864,
      "duration": 0.0907,
      "velocity": 92,
      "chip": "ym2612"
    },
    {
      "channel": 4,
      "note": 56,
      "start": 60.5896,
      "duration": 0.2212,
      "velocity": 108,
      "chip": "ym2612"
    },
    {
      "channel": 3,
      "note": 49,
      "start": 60.593,
      "duration": 0.2009,
      "velocity": 108,
      "chip": "ym2612"
    },
    {
      "channel": 5,
      "note": 44,
      "start": 60.7178,
      "duration": 0.0932,
      "velocity": 125,
      "chip": "ym2612"
    },
    {
      "channel": 1,
      "note": 49,
      "start": 60.7206,
      "duration": 0.09,
      "velocity": 92,
      "chip": "ym2612"
    },
    {
      "channel": 1,
      "note": 37,
      "start": 60.8308,
      "duration": 0.0965,
      "velocity": 92,
      "chip": "ym2612"
    },
    {
      "channel": 2,
      "note": 49,
      "start": 60.9658,
      "duration": 0.2115,
      "velocity": 106,
      "chip": "ym2612"
    },
    {
      "channel": 1,
      "note": 49,
      "start": 60.9709,
      "duration": 0.0896,
      "velocity": 92,
      "chip": "ym2612"
    },
    {
      "channel": 3,
      "note": 49,
      "start": 60.9738,
      "duration": 0.1868,
      "velocity": 109,
      "chip": "ym2612"
    },
    {
      "channel": 4,
      "note": 56,
      "start": 60.977,
      "duration": 0.1837,
      "velocity": 109,
      "chip": "ym2612"
    },
    {
      "channel": 1,
      "note": 49,
      "start": 61.0808,
      "duration": 0.0963,
      "velocity": 92,
      "chip": "ym2612"
    },
    {
      "channel": 1,
      "note": 37,
      "start": 61.2158,
      "duration": 0.0947,
      "velocity": 92,
      "chip": "ym2612"
    },
    {
      "channel": 5,
      "note": 49,
      "start": 61.2188,
      "duration": 0.1919,
      "velocity": 108,
      "chip": "ym2612"
    },
    {
      "channel": 3,
      "note": 56,
      "start": 61.2216,
      "duration": 0.1889,
      "velocity": 108,
      "chip": "ym2612"
    },
    {
      "channel": 1,
      "note": 49,
      "start": 61.3323,
      "duration": 0.0949,
      "velocity": 92,
      "chip": "ym2612"
    },
    {
      "channel": 2,
      "note": 49,
      "start": 61.4655,
      "duration": 0.0953,
      "velocity": 95,
      "chip": "ym2612"
    },
    {
      "channel": 1,
      "note": 49,
      "start": 61.473,
      "duration": 0.0876,
      "velocity": 92,
      "chip": "ym2612"
    },
    {
      "channel": 4,
      "note": 40,
      "start": 61.5832,
      "duration": 0.1109,
      "velocity": 125,
      "chip": "ym2612"
    },
    {
      "channel": 1,
      "note": 37,
      "start": 61.5861,
      "duration": 0.1078,
      "velocity": 92,
      "chip": "ym2612"
    },
    {
      "channel": 4,
      "note": 40,
      "start": 61.7212,
      "duration": 0.0896,
      "velocity": 125,
      "chip": "ym2612"
    },
    {
      "channel": 1,
      "note": 49,
      "start": 61.7246,
      "duration": 0.086,
      "velocity": 92,
      "chip": "ym2612"
    },
    {
      "channel": 3,
      "note": 53,
      "start": 61.7281,
      "duration": 0.0826,
      "velocity": 108,
      "chip": "ym2612"
    },
    {
      "channel": 5,
      "note": 56,
      "start": 61.7312,
      "duration": 0.0798,
      "velocity": 108,
      "chip": "ym2612"
    },
    {
      "channel": 2,
      "note": 49,
      "start": 61.8327,
      "duration": 0.2114,
      "velocity": 95,
      "chip": "ym2612"
    },
    {
      "channel": 1,
      "note": 50,
      "start": 61.8358,
      "duration": 0.1081,
      "velocity": 92,
      "chip": "ym2612"
    },
    {
      "channel": 3,
      "note": 50,
      "start": 61.8389,
      "duration": 0.2885,
      "velocity": 109,
      "chip": "ym2612"
    },
    {
      "channel": 4,
      "note": 53,
      "start": 61.8416,
      "duration": 0.2859,
      "velocity": 109,
      "chip": "ym2612"
    },
    {
      "channel": 1,
      "note": 38,
      "start": 61.9644,
      "duration": 0.0961,
      "velocity": 92,
      "chip": "ym2612"
    },
    {
      "channel": 1,
      "note": 45,
      "start": 62.0812,
      "duration": 0.1127,
      "velocity": 92,
      "chip": "ym2612"
    },
    {
      "channel": 2,
      "note": 49,
      "start": 62.2153,
      "duration": 0.1955,
      "velocity": 106,
      "chip": "ym2612"
    },
    {
      "channel": 0,
      "note": 59,
      "start": 62.222,
      "duration": 0.0885,
      "velocity": 119,
      "chip": "ym2612"
    },
    {
      "channel": 1,
      "note": 49,
      "start": 62.2244,
      "duration": 0.0862,
      "velocity": 92,
      "chip": "ym2612"
    },
    {
      "channel": 3,
      "note": 49,
      "start": 62.2283,
      "duration": 0.2158,
      "velocity": 109,
      "chip": "ym2612"
    },
    {
      "channel": 4,
      "note": 56,
      "start": 62.231,
      "duration": 0.1796,
      "velocity": 109,
      "chip": "ym2612"
    },
    {
      "channel": 5,
      "note": 44,
      "start": 62.331,
      "duration": 0.0298,
      "velocity": 125,
      "chip": "ym2612"
    },
    {
      "channel": 0,
      "note": 60,
      "start": 62.3337,
      "duration": 0.1101,
      "velocity": 119,
      "chip": "ym2612"
    },
    {
      "channel": 1,
      "note": 37,
      "start": 62.3361,
      "duration": 0.1078,
      "velocity": 92,
      "chip": "ym2612"
    },
    {
      "channel": 5,
      "note": 45,
      "start": 62.3644,
      "duration": 0.0798,
      "velocity": 125,
      "chip": "ym2612"
    },
    {
      "channel": 0,
      "note": 63,
      "start": 62.4644,
      "duration": 0.0959,
      "velocity": 119,
      "chip": "ym2612"
    },
    {
      "channel": 1,
      "note": 49,
      "start": 62.4669,
      "duration": 0.0936,
      "velocity": 92,
      "chip": "ym2612"
    },
    {
      "channel": 2,
      "note": 49,
      "start": 62.5821,
      "duration": 0.0787,
      "velocity": 95,
      "chip": "ym2612"
    },
    {
      "channel": 0,
      "note": 64,
      "start": 62.5853,
      "duration": 0.1085,
      "velocity": 119,
      "chip": "ym2612"
    },
    {
      "channel": 1,
      "note": 49,
      "start": 62.5882,
      "duration": 0.1057,
      "velocity": 92,
      "chip": "ym2612"
    },
    {
      "channel": 4,
      "note": 49,
      "start": 62.5914,
      "duration": 0.2193,
      "velocity": 108,
      "chip": "ym2612"
    },
    {
      "channel": 3,
      "note": 56,
      "start": 62.5949,
      "duration": 0.199,
      "velocity": 108,
      "chip": "ym2612"
    },
    {
      "channel": 5,
      "note": 44,
      "start": 62.7143,
      "duration": 0.013,
      "velocity": 125,
      "chip": "ym2612"
    },
    {
      "channel": 0,
      "note": 65,
      "start": 62.717,
      "duration": 0.0934,
      "velocity": 119,
      "chip": "ym2612"
    },
    {
      "channel": 1,
      "note": 37,
      "start": 62.7195,
      "duration": 0.0911,
      "velocity": 92,
      "chip": "ym2612"
    },
    {
      "channel": 5,
      "note": 45,
      "start": 62.731,
      "duration": 0.0799,
      "velocity": 125,
      "chip": "ym2612"
    },
    {
      "channel": 2,
      "note": 49,
      "start": 62.8481,
      "duration": 0.0961,
      "velocity": 95,
      "chip": "ym2612"
    },
    {
      "channel": 0,
      "note": 66,
      "start": 62.8524,
      "duration": 0.0913,
      "velocity": 119,
      "chip": "ym2612"
    },
    {
      "channel": 1,
      "note": 49,
      "start": 62.8548,
      "duration": 0.089,
      "velocity": 92,
      "chip": "ym2612"
    },
    {
      "channel": 2,
      "note": 49,
      "start": 62.9654,
      "duration": 0.0786,
      "velocity": 106,
      "chip": "ym2612"
    },
    {
      "channel": 0,
      "note": 67,
      "start": 62.9704,
      "duration": 0.0901,
      "velocity": 119,
      "chip": "ym2612"
    },
    {
      "channel": 1,
      "note": 49,
      "start": 62.9728,
      "duration": 0.0877,
      "velocity": 92,
      "chip": "ym2612"
    },
    {
      "channel": 3,
      "note": 49,
      "start": 62.976,
      "duration": 0.2012,
      "velocity": 109,
      "chip": "ym2612"
    },
    {
      "channel": 4,
      "note": 56,
      "start": 62.9791,
      "duration": 0.1982,
      "velocity": 109,
      "chip": "ym2612"
    },
    {
      "channel": 0,
      "note": 68,
      "start": 63.0972,
      "duration": 0.0966,
      "velocity": 119,
      "chip": "ym2612"
    },
    {
      "channel": 1,
      "note": 37,
      "start": 63.0998,
      "duration": 0.0941,
      "velocity": 92,
      "chip": "ym2612"
    },
    {
      "channel": 5,
      "note": 44,
      "start": 63.1143,
      "duration": 0.0963,
      "velocity": 125,
      "chip": "ym2612"
    },
    {
      "channel": 0,
      "note": 69,
      "start": 63.2162,
      "duration": 0.0943,
      "velocity": 119,
      "chip": "ym2612"
    },
    {
      "channel": 1,
      "note": 49,
      "start": 63.2187,
      "duration": 0.0919,
      "velocity": 92,
      "chip": "ym2612"
    },
    {
      "channel": 2,
      "note": 49,
      "start": 63.2218,
      "duration": 0.2056,
      "velocity": 108,
      "chip": "ym2612"
    },
    {
      "channel": 3,
      "note": 56,
      "start": 63.2246,
      "duration": 0.2026,
      "velocity": 108,
      "chip": "ym2612"
    },
    {
      "channel": 5,
      "note": 44,
      "start": 63.3478,
      "duration": 0.0964,
      "velocity": 125,
      "chip": "ym2612"
    },
    {
      "channel": 0,
      "note": 70,
      "start": 63.351,
      "duration": 0.0929,
      "velocity": 119,
      "chip": "ym2612"
    },
    {
      "channel": 1,
      "note": 49,
      "start": 63.3535,
      "duration": 0.0905,
      "velocity": 92,
      "chip": "ym2612"
    },
    {
      "channel": 2,
      "note": 81,
      "start": 63.4655,
      "duration": 0.2287,
      "velocity": 104,
      "chip": "ym2612"
    },
    {
      "channel": 0,
      "note": 71,
      "start": 63.4707,
      "duration": 0.0898,
      "velocity": 119,
      "chip": "ym2612"
    },
    {
      "channel": 1,
      "note": 49,
      "start": 63.4732,
      "duration": 0.0874,
      "velocity": 92,
      "chip": "ym2612"
    },
    {
      "channel": 0,
      "note": 72,
      "start": 63.5972,
      "duration": 0.0965,
      "velocity": 119,
      "chip": "ym2612"
    },
    {
      "channel": 1,
      "note": 49,
      "start": 63.5997,
      "duration": 0.0941,
      "velocity": 92,
      "chip": "ym2612"
    },
    {
      "channel": 3,
      "note": 53,
      "start": 63.6027,
      "duration": 0.0745,
      "velocity": 108,
      "chip": "ym2612"
    },
    {
      "channel": 4,
      "note": 47,
      "start": 63.6059,
      "duration": 0.0715,
      "velocity": 108,
      "chip": "ym2612"
    },
    {
      "channel": 5,
      "note": 44,
      "start": 63.7207,
      "duration": 0.1069,
      "velocity": 125,
      "chip": "ym2612"
    },
    {
      "channel": 0,
      "note": 73,
      "start": 63.7264,
      "duration": 0.1008,
      "velocity": 119,
      "chip": "ym2612"
    },
    {
      "channel": 1,
      "note": 49,
      "start": 63.7289,
      "duration": 0.0984,
      "velocity": 92,
      "chip": "ym2612"
    },
    {
      "channel": 3,
      "note": 53,
      "start": 63.7319,
      "duration": 0.1954,
      "velocity": 109,
      "chip": "ym2612"
    },
    {
      "channel": 4,
      "note": 47,
      "start": 63.7346,
      "duration": 0.1927,
      "velocity": 109,
      "chip": "ym2612"
    },
    {
      "channel": 0,
      "note": 74,
      "start": 63.8488,
      "duration": 0.095,
      "velocity": 119,
      "chip": "ym2612"
    },
    {
      "channel": 1,
      "note": 44,
      "start": 63.8513,
      "duration": 0.0926,
      "velocity": 92,
      "chip": "ym2612"
    },
    {
      "channel": 2,
      "note": 49,
      "start": 63.9656,
      "duration": 0.0784,
      "velocity": 106,
      "chip": "ym2612"
    },
    {
      "channel": 5,
      "note": 44,
      "start": 63.9693,
      "duration": 0.1081,
      "velocity": 125,
      "chip": "ym2612"
    },
    {
      "channel": 0,
      "note": 75,
      "start": 63.9725,
      "duration": 0.1046,
      "velocity": 119,
      "chip": "ym2612"
    },
    {
      "channel": 1,
      "note": 44,
      "start": 63.9752,
      "duration": 0.102,
      "velocity": 92,
      "chip": "ym2612"
    },
    {
      "channel": 2,
      "note": 49,
      "start": 64.0973,
      "duration": 0.08,
      "velocity": 106,
      "chip": "ym2612"
    },
    {
      "channel": 5,
      "note": 44,
      "start": 64.1003,
      "duration": 0.0938,
      "velocity": 125,
      "chip": "ym2612"
    },
    {
      "channel": 0,
      "note": 76,
      "start": 64.1035,
      "duration": 0.0903,
      "velocity": 119,
      "chip": "ym2612"
    },
    {
      "channel": 2,
      "note": 49,
      "start": 64.2165,
      "duration": 0.0775,
      "velocity": 95,
      "chip": "ym2612"
    },
    {
      "channel": 0,
      "note": 77,
      "start": 64.2296,
      "duration": 1.7309,
      "velocity": 119,
      "chip": "ym2612"
    },
    {
      "channel": 1,
      "note": 41,
      "start": 64.2338,
      "duration": 0.31,
      "velocity": 92,
      "chip": "ym2612"
    },
    {
      "channel": 3,
      "note": 53,
      "start": 64.2387,
      "duration": 0.2218,
      "velocity": 109,
      "chip": "ym2612"
    },
    {
      "channel": 4,
      "note": 60,
      "start": 64.2449,
      "duration": 0.699,
      "velocity": 99,
      "chip": "ym2612"
    },
    {
      "channel": 5,
      "note": 56,
      "start": 64.2477,
      "duration": 0.6964,
      "velocity": 99,
      "chip": "ym2612"
    },
    {
      "channel": 2,
      "note": 49,
      "start": 64.3476,
      "duration": 0.1964,
      "velocity": 95,
      "chip": "ym2612"
    },
    {
      "channel": 3,
      "note": 44,
      "start": 64.4661,
      "duration": 0.1112,
      "velocity": 125,
      "chip": "ym2612"
    },
    {
      "channel": 3,
      "note": 44,
      "start": 64.5994,
      "duration": 0.0945,
      "velocity": 125,
      "chip": "ym2612"
    },
    {
      "channel": 1,
      "note": 44,
      "start": 64.6022,
      "duration": 0.3251,
      "velocity": 92,
      "chip": "ym2612"
    },
    {
      "channel": 2,
      "note": 56,
      "start": 64.6051,
      "duration": 0.2224,
      "velocity": 109,
      "chip": "ym2612"
    },
    {
      "channel": 3,
      "note": 44,
      "start": 64.7176,
      "duration": 0.1097,
      "velocity": 125,
      "chip": "ym2612"
    },
    {
      "channel": 3,
      "note": 30,
      "start": 64.9829,
      "duration": 0.211,
      "velocity": 124,
      "chip": "ym2612"
    },
    {
      "channel": 1,
      "note": 35,
      "start": 64.9887,
      "duration": 0.4551,
      "velocity": 92,
      "chip": "ym2612"
    },
    {
      "channel": 2,
      "note": 47,
      "start": 64.9917,
      "duration": 0.4878,
      "velocity": 109,
      "chip": "ym2612"
    },
    {
      "channel": 4,
      "note": 63,
      "start": 64.9954,
      "duration": 1.2154,
      "velocity": 99,
      "chip": "ym2612"
    },
    {
      "channel": 5,
      "note": 59,
      "start": 64.998,
      "duration": 1.2129,
      "velocity": 99,
      "chip": "ym2612"
    },
    {
      "channel": 2,
      "note": 49,
      "start": 65.4822,
      "duration": 0.0951,
      "velocity": 95,
      "chip": "ym2612"
    },
    {
      "channel": 1,
      "note": 43,
      "start": 65.4896,
      "duration": 0.321,
      "velocity": 92,
      "chip": "ym2612"
    },
    {
      "channel": 3,
      "note": 40,
      "start": 65.6002,
      "duration": 0.0937,
      "velocity": 125,
      "chip": "ym2612"
    },
    {
      "channel": 3,
      "note": 40,
      "start": 65.7364,
      "duration": 0.0908,
      "velocity": 125,
      "chip": "ym2612"
    },
    {
      "channel": 2,
      "note": 55,
      "start": 65.7405,
      "duration": 0.2204,
      "velocity": 109,
      "chip": "ym2612"
    },
    {
      "channel": 1,
      "note": 27,
      "start": 65.8494,
      "duration": 0.2111,
      "velocity": 124,
      "chip": "ym2612"
    },
    {
      "channel": 0,
      "note": 80,
      "start": 65.9813,
      "duration": 0.0958,
      "velocity": 119,
      "chip": "ym2612"
    },
    {
      "channel": 3,
      "note": 39,
      "start": 65.9844,
      "duration": 0.2262,
      "velocity": 92,
      "chip": "ym2612"
    },
    {
      "channel": 2,
      "note": 51,
      "start": 65.9873,
      "duration": 0.0735,
      "velocity": 109,
      "chip": "ym2612"
    },
    {
      "channel": 0,
      "note": 82,
      "start": 66.0982,
      "duration": 0.1123,
      "velocity": 119,
      "chip": "ym2612"
    },
    {
      "channel": 2,
      "note": 49,
      "start": 66.2321,
      "duration": 0.0788,
      "velocity": 95,
      "chip": "ym2612"
    },
    {
      "channel": 0,
      "note": 82,
      "start": 66.2409,
      "duration": 1.6697,
      "velocity": 119,
      "chip": "ym2612"
    },
    {
      "channel": 3,
      "note": 41,
      "start": 66.2446,
      "duration": 0.316,
      "velocity": 92,
      "chip": "ym2612"
    },
    {
      "channel": 1,
      "note": 53,
      "start": 66.2482,
      "duration": 0.2291,
      "velocity": 109,
      "chip": "ym2612"
    },
    {
      "channel": 4,
      "note": 60,
      "start": 66.2512,
      "duration": 0.7095,
      "velocity": 99,
      "chip": "ym2612"
    },
    {
      "channel": 5,
      "note": 65,
      "start": 66.2539,
      "duration": 0.7069,
      "velocity": 99,
      "chip": "ym2612"
    },
    {
      "channel": 2,
      "note": 49,
      "start": 66.3481,
      "duration": 0.2128,
      "velocity": 95,
      "chip": "ym2612"
    },
    {
      "channel": 1,
      "note": 44,
      "start": 66.4843,
      "duration": 0.093,
      "velocity": 125,
      "chip": "ym2612"
    },
    {
      "channel": 1,
      "note": 44,
      "start": 66.5994,
      "duration": 0.1111,
      "velocity": 125,
      "chip": "ym2612"
    },
    {
      "channel": 3,
      "note": 44,
      "start": 66.6022,
      "duration": 0.325,
      "velocity": 92,
      "chip": "ym2612"
    },
    {
      "channel": 2,
      "note": 56,
      "start": 66.6051,
      "duration": 0.2223,
      "velocity": 109,
      "chip": "ym2612"
    },
    {
      "channel": 1,
      "note": 44,
      "start": 66.7344,
      "duration": 0.0927,
      "velocity": 125,
      "chip": "ym2612"
    },
    {
      "channel": 1,
      "note": 30,
      "start": 66.9826,
      "duration": 0.2279,
      "velocity": 124,
      "chip": "ym2612"
    },
    {
      "channel": 3,
      "note": 35,
      "start": 66.9863,
      "duration": 0.341,
      "velocity": 92,
      "chip": "ym2612"
    },
    {
      "channel": 2,
      "note": 47,
      "start": 66.9893,
      "duration": 0.4906,
      "velocity": 109,
      "chip": "ym2612"
    },
    {
      "channel": 4,
      "note": 63,
      "start": 66.9933,
      "duration": 1.2176,
      "velocity": 99,
      "chip": "ym2612"
    },
    {
      "channel": 5,
      "note": 68,
      "start": 66.9961,
      "duration": 1.2148,
      "velocity": 99,
      "chip": "ym2612"
    },
    {
      "channel": 2,
      "note": 49,
      "start": 67.4826,
      "duration": 0.0948,
      "velocity": 95,
      "chip": "ym2612"
    },
    {
      "channel": 3,
      "note": 43,
      "start": 67.4887,
      "duration": 0.2221,
      "velocity": 92,
      "chip": "ym2612"
    },
    {
      "channel": 1,
      "note": 40,
      "start": 67.6153,
      "duration": 0.0953,
      "velocity": 125,
      "chip": "ym2612"
    },
    {
      "channel": 1,
      "note": 40,
      "start": 67.7362,
      "duration": 0.091,
      "velocity": 125,
      "chip": "ym2612"
    },
    {
      "channel": 3,
      "note": 41,
      "start": 67.74,
      "duration": 0.4707,
      "velocity": 92,
      "chip": "ym2612"
    },
    {
      "channel": 2,
      "note": 53,
      "start": 67.7435,
      "duration": 0.2173,
      "velocity": 109,
      "chip": "ym2612"
    },
    {
      "channel": 1,
      "note": 27,
      "start": 67.8662,
      "duration": 0.0778,
      "velocity": 124,
      "chip": "ym2612"
    },
    {
      "channel": 2,
      "note": 81,
      "start": 67.9826,
      "duration": 0.2285,
      "velocity": 104,
      "chip": "ym2612"
    },
    {
      "channel": 0,
      "note": 81,
      "start": 67.9878,
      "duration": 0.1061,
      "velocity": 119,
      "chip": "ym2612"
    },
    {
      "channel": 0,
      "note": 80,
      "start": 68.1141,
      "duration": 0.0964,
      "velocity": 119,
      "chip": "ym2612"
    },
    {
      "channel": 2,
      "note": 49,
      "start": 68.2324,
      "duration": 0.0782,
      "velocity": 95,
      "chip": "ym2612"
    },
    {
      "channel": 0,
      "note": 77,
      "start": 68.2393,
      "duration": 1.9878,
      "velocity": 119,
      "chip": "ym2612"
    },
    {
      "channel": 3,
      "note": 49,
      "start": 68.2422,
      "duration": 0.1016,
      "velocity": 92,
      "chip": "ym2612"
    },
    {
      "channel": 1,
      "note": 56,
      "start": 68.2467,
      "duration": 0.2137,
      "velocity": 109,
      "chip": "ym2612"
    },
    {
      "channel": 4,
      "note": 49,
      "start": 68.25,
      "duration": 0.1939,
      "velocity": 109,
      "chip": "ym2612"
    },
    {
      "channel": 2,
      "note": 49,
      "start": 68.3642,
      "duration": 0.1965,
      "velocity": 95,
      "chip": "ym2612"
    },
    {
      "channel": 3,
      "note": 49,
      "start": 68.3674,
      "duration": 0.0932,
      "velocity": 92,
      "chip": "ym2612"
    },
    {
      "channel": 5,
      "note": 44,
      "start": 68.4844,
      "duration": 0.1098,
      "velocity": 125,
      "chip": "ym2612"
    },
    {
      "channel": 3,
      "note": 37,
      "start": 68.4917,
      "duration": 0.1023,
      "velocity": 92,
      "chip": "ym2612"
    },
    {
      "channel": 5,
      "note": 44,
      "start": 68.6166,
      "duration": 0.0943,
      "velocity": 125,
      "chip": "ym2612"
    },
    {
      "channel": 3,
      "note": 49,
      "start": 68.6198,
      "duration": 0.0908,
      "velocity": 92,
      "chip": "ym2612"
    },
    {
      "channel": 4,
      "note": 56,
      "start": 68.623,
      "duration": 0.2212,
      "velocity": 108,
      "chip": "ym2612"
    },
    {
      "channel": 1,
      "note": 49,
      "start": 68.6265,
      "duration": 0.1841,
      "velocity": 108,
      "chip": "ym2612"
    },
    {
      "channel": 5,
      "note": 44,
      "start": 68.7345,
      "duration": 0.1098,
      "velocity": 125,
      "chip": "ym2612"
    },
    {
      "channel": 3,
      "note": 49,
      "start": 68.7374,
      "duration": 0.1067,
      "velocity": 92,
      "chip": "ym2612"
    },
    {
      "channel": 3,
      "note": 37,
      "start": 68.8642,
      "duration": 0.0964,
      "velocity": 92,
      "chip": "ym2612"
    },
    {
      "channel": 2,
      "note": 49,
      "start": 68.9827,
      "duration": 0.2282,
      "velocity": 106,
      "chip": "ym2612"
    },
    {
      "channel": 3,
      "note": 49,
      "start": 68.9878,
      "duration": 0.1063,
      "velocity": 92,
      "chip": "ym2612"
    },
    {
      "channel": 1,
      "note": 49,
      "start": 68.9907,
      "duration": 0.2032,
      "velocity": 109,
      "chip": "ym2612"
    },
    {
      "channel": 4,
      "note": 56,
      "start": 68.994,
      "duration": 0.2001,
      "velocity": 109,
      "chip": "ym2612"
    },
    {
      "channel": 3,
      "note": 49,
      "start": 69.1143,
      "duration": 0.0963,
      "velocity": 92,
      "chip": "ym2612"
    },
    {
      "channel": 3,
      "note": 37,
      "start": 69.2494,
      "duration": 0.0946,
      "velocity": 92,
      "chip": "ym2612"
    },
    {
      "channel": 5,
      "note": 49,
      "start": 69.2524,
      "duration": 0.1919,
      "velocity": 108,
      "chip": "ym2612"
    },
    {
      "channel": 1,
      "note": 56,
      "start": 69.2551,
      "duration": 0.1888,
      "velocity": 108,
      "chip": "ym2612"
    },
    {
      "channel": 3,
      "note": 49,
      "start": 69.3659,
      "duration": 0.0947,
      "velocity": 92,
      "chip": "ym2612"
    },
    {
      "channel": 2,
      "note": 49,
      "start": 69.4988,
      "duration": 0.0952,
      "velocity": 95,
      "chip": "ym2612"
    },
    {
      "channel": 3,
      "note": 49,
      "start": 69.5064,
      "duration": 0.0874,
      "velocity": 92,
      "chip": "ym2612"
    },
    {
      "channel": 4,
      "note": 40,
      "start": 69.6166,
      "duration": 0.0941,
      "velocity": 125,
      "chip": "ym2612"
    },
    {
      "channel": 3,
      "note": 37,
      "start": 69.6195,
      "duration": 0.0911,
      "velocity": 92,
      "chip": "ym2612"
    },
    {
      "channel": 4,
      "note": 40,
      "start": 69.7546,
      "duration": 0.0896,
      "velocity": 125,
      "chip": "ym2612"
    },
    {
      "channel": 3,
      "note": 49,
      "start": 69.758,
      "duration": 0.0861,
      "velocity": 92,
      "chip": "ym2612"
    },
    {
      "channel": 1,
      "note": 53,
      "start": 69.7615,
      "duration": 0.0824,
      "velocity": 108,
      "chip": "ym2612"
    },
    {
      "channel": 5,
      "note": 56,
      "start": 69.7646,
      "duration": 0.0797,
      "velocity": 108,
      "chip": "ym2612"
    },
    {
      "channel": 2,
      "note": 49,
      "start": 69.866,
      "duration": 0.2115,
      "velocity": 95,
      "chip": "ym2612"
    },
    {
      "channel": 3,
      "note": 50,
      "start": 69.8691,
      "duration": 0.0915,
      "velocity": 92,
      "chip": "ym2612"
    },
    {
      "channel": 1,
      "note": 50,
      "start": 69.8721,
      "duration": 0.2885,
      "velocity": 109,
      "chip": "ym2612"
    },
    {
      "channel": 4,
      "note": 53,
      "start": 69.8749,
      "duration": 0.286,
      "velocity": 109,
      "chip": "ym2612"
    },
    {
      "channel": 3,
      "note": 38,
      "start": 69.9978,
      "duration": 0.0962,
      "velocity": 92,
      "chip": "ym2612"
    },
    {
      "channel": 3,
      "note": 45,
      "start": 70.1146,
      "duration": 0.1128,
      "velocity": 92,
      "chip": "ym2612"
    },
    {
      "channel": 2,
      "note": 49,
      "start": 70.2485,
      "duration": 0.1956,
      "velocity": 106,
      "chip": "ym2612"
    },
    {
      "channel": 0,
      "note": 77,
      "start": 70.2551,
      "duration": 0.0886,
      "velocity": 119,
      "chip": "ym2612"
    },
    {
      "channel": 3,
      "note": 49,
      "start": 70.2577,
      "duration": 0.0863,
      "velocity": 92,
      "chip": "ym2612"
    },
    {
      "channel": 1,
      "note": 49,
      "start": 70.2611,
      "duration": 0.2162,
      "velocity": 109,
      "chip": "ym2612"
    },
    {
      "channel": 4,
      "note": 56,
      "start": 70.2643,
      "duration": 0.1796,
      "velocity": 109,
      "chip": "ym2612"
    },
    {
      "channel": 5,
      "note": 44,
      "start": 70.3642,
      "duration": 0.0297,
      "velocity": 125,
      "chip": "ym2612"
    },
    {
      "channel": 0,
      "note": 75,
      "start": 70.3669,
      "duration": 0.1102,
      "velocity": 119,
      "chip": "ym2612"
    },
    {
      "channel": 3,
      "note": 37,
      "start": 70.3695,
      "duration": 0.1078,
      "velocity": 92,
      "chip": "ym2612"
    },
    {
      "channel": 5,
      "note": 45,
      "start": 70.3976,
      "duration": 0.0799,
      "velocity": 125,
      "chip": "ym2612"
    },
    {
      "channel": 0,
      "note": 72,
      "start": 70.4978,
      "duration": 0.096,
      "velocity": 119,
      "chip": "ym2612"
    },
    {
      "channel": 3,
      "note": 49,
      "start": 70.5003,
      "duration": 0.0936,
      "velocity": 92,
      "chip": "ym2612"
    },
    {
      "channel": 2,
      "note": 49,
      "start": 70.6155,
      "duration": 0.0785,
      "velocity": 95,
      "chip": "ym2612"
    },
    {
      "channel": 0,
      "note": 70,
      "start": 70.6187,
      "duration": 0.1084,
      "velocity": 119,
      "chip": "ym2612"
    },
    {
      "channel": 3,
      "note": 49,
      "start": 70.6216,
      "duration": 0.1056,
      "velocity": 92,
      "chip": "ym2612"
    },
    {
      "channel": 4,
      "note": 49,
      "start": 70.6248,
      "duration": 0.2193,
      "velocity": 108,
      "chip": "ym2612"
    },
    {
      "channel": 1,
      "note": 56,
      "start": 70.6283,
      "duration": 0.1989,
      "velocity": 108,
      "chip": "ym2612"
    },
    {
      "channel": 5,
      "note": 44,
      "start": 70.7476,
      "duration": 0.013,
      "velocity": 125,
      "chip": "ym2612"
    },
    {
      "channel": 0,
      "note": 75,
      "start": 70.7502,
      "duration": 0.0935,
      "velocity": 119,
      "chip": "ym2612"
    },
    {
      "channel": 3,
      "note": 37,
      "start": 70.7529,
      "duration": 0.0911,
      "velocity": 92,
      "chip": "ym2612"
    },
    {
      "channel": 5,
      "note": 45,
      "start": 70.7643,
      "duration": 0.0799,
      "velocity": 125,
      "chip": "ym2612"
    },
    {
      "channel": 2,
      "note": 49,
      "start": 70.8646,
      "duration": 0.1129,
      "velocity": 95,
      "chip": "ym2612"
    },
    {
      "channel": 0,
      "note": 72,
      "start": 70.8689,
      "duration": 0.1082,
      "velocity": 119,
      "chip": "ym2612"
    },
    {
      "channel": 3,
      "note": 49,
      "start": 70.8714,
      "duration": 0.1059,
      "velocity": 92,
      "chip": "ym2612"
    },
    {
      "channel": 2,
      "note": 49,
      "start": 70.9988,
      "duration": 0.0785,
      "velocity": 106,
      "chip": "ym2612"
    },
    {
      "channel": 0,
      "note": 70,
      "start": 71.0037,
      "duration": 0.09,
      "velocity": 119,
      "chip": "ym2612"
    },
    {
      "channel": 3,
      "note": 49,
      "start": 71.0063,
      "duration": 0.0876,
      "velocity": 92,
      "chip": "ym2612"
    },
    {
      "channel": 1,
      "note": 49,
      "start": 71.0097,
      "duration": 0.1841,
      "velocity": 109,
      "chip": "ym2612"
    },
    {
      "channel": 4,
      "note": 56,
      "start": 71.0125,
      "duration": 0.1815,
      "velocity": 109,
      "chip": "ym2612"
    },
    {
      "channel": 0,
      "note": 68,
      "start": 71.1139,
      "duration": 0.1133,
      "velocity": 119,
      "chip": "ym2612"
    },
    {
      "channel": 3,
      "note": 37,
      "start": 71.1164,
      "duration": 0.1109,
      "velocity": 92,
      "chip": "ym2612"
    },
    {
      "channel": 5,
      "note": 44,
      "start": 71.1476,
      "duration": 0.0963,
      "velocity": 125,
      "chip": "ym2612"
    },
    {
      "channel": 0,
      "note": 72,
      "start": 71.2495,
      "duration": 0.0942,
      "velocity": 119,
      "chip": "ym2612"
    },
    {
      "channel": 3,
      "note": 49,
      "start": 71.2522,
      "duration": 0.0918,
      "velocity": 92,
      "chip": "ym2612"
    },
    {
      "channel": 2,
      "note": 49,
      "start": 71.2552,
      "duration": 0.2055,
      "velocity": 108,
      "chip": "ym2612"
    },
    {
      "channel": 1,
      "note": 56,
      "start": 71.258,
      "duration": 0.2025,
      "velocity": 108,
      "chip": "ym2612"
    },
    {
      "channel": 5,
      "note": 44,
      "start": 71.3812,
      "duration": 0.0963,
      "velocity": 125,
      "chip": "ym2612"
    },
    {
      "channel": 0,
      "note": 70,
      "start": 71.3844,
      "duration": 0.0927,
      "velocity": 119,
      "chip": "ym2612"
    },
    {
      "channel": 3,
      "note": 49,
      "start": 71.387,
      "duration": 0.0904,
      "velocity": 92,
      "chip": "ym2612"
    },
    {
      "channel": 2,
      "note": 81,
      "start": 71.4988,
      "duration": 0.2288,
      "velocity": 104,
      "chip": "ym2612"
    },
    {
      "channel": 0,
      "note": 68,
      "start": 71.504,
      "duration": 0.0898,
      "velocity": 119,
      "chip": "ym2612"
    },
    {
      "channel": 3,
      "note": 49,
      "start": 71.5066,
      "duration": 0.0875,
      "velocity": 92,
      "chip": "ym2612"
    },
    {
      "channel": 0,
      "note": 65,
      "start": 71.6309,
      "duration": 0.0962,
      "velocity": 119,
      "chip": "ym2612"
    },
    {
      "channel": 3,
      "note": 49,
      "start": 71.6334,
      "duration": 0.0939,
      "velocity": 92,
      "chip": "ym2612"
    },
    {
      "channel": 1,
      "note": 53,
      "start": 71.6364,
      "duration": 0.074,
      "velocity": 108,
      "chip": "ym2612"
    },
    {
      "channel": 4,
      "note": 47,
      "start": 71.6395,
      "duration": 0.0711,
      "velocity": 108,
      "chip": "ym2612"
    },
    {
      "channel": 5,
      "note": 44,
      "start": 71.7541,
      "duration": 0.0901,
      "velocity": 125,
      "chip": "ym2612"
    },
    {
      "channel": 0,
      "note": 70,
      "start": 71.7589,
      "duration": 0.085,
      "velocity": 119,
      "chip": "ym2612"
    },
    {
      "channel": 3,
      "note": 49,
      "start": 71.7621,
      "duration": 0.082,
      "velocity": 92,
      "chip": "ym2612"
    },
    {
      "channel": 1,
      "note": 53,
      "start": 71.7649,
      "duration": 0.1956,
      "velocity": 109,
      "chip": "ym2612"
    },
    {
      "channel": 4,
      "note": 47,
      "start": 71.7678,
      "duration": 0.1929,
      "velocity": 109,
      "chip": "ym2612"
    },
    {
      "channel": 0,
      "note": 68,
      "start": 71.8821,
      "duration": 0.095,
      "velocity": 119,
      "chip": "ym2612"
    },
    {
      "channel": 3,
      "note": 44,
      "start": 71.8847,
      "duration": 0.0925,
      "velocity": 92,
      "chip": "ym2612"
    },
    {
      "channel": 2,
      "note": 49,
      "start": 71.999,
      "duration": 0.0784,
      "velocity": 106,
      "chip": "ym2612"
    },
    {
      "channel": 5,
      "note": 44,
      "start": 72.0027,
      "duration": 0.0915,
      "velocity": 125,
      "chip": "ym2612"
    },
    {
      "channel": 0,
      "note": 65,
      "start": 72.0059,
      "duration": 0.088,
      "velocity": 119,
      "chip": "ym2612"
    },
    {
      "channel": 3,
      "note": 44,
      "start": 72.0086,
      "duration": 0.0854,
      "velocity": 92,
      "chip": "ym2612"
    },
    {
      "channel": 2,
      "note": 49,
      "start": 72.1307,
      "duration": 0.08,
      "velocity": 106,
      "chip": "ym2612"
    },
    {
      "channel": 5,
      "note": 44,
      "start": 72.1337,
      "duration": 0.0937,
      "velocity": 125,
      "chip": "ym2612"
    },
    {
      "channel": 0,
      "note": 63,
      "start": 72.1368,
      "duration": 0.0903,
      "velocity": 119,
      "chip": "ym2612"
    },
    {
      "channel": 2,
      "note": 49,
      "start": 72.2492,
      "duration": 0.0782,
      "velocity": 106,
      "chip": "ym2612"
    },
    {
      "channel": 0,
      "note": 58,
      "start": 72.262,
      "duration": 1.9651,
      "velocity": 119,
      "chip": "ym2612"
    },
    {
      "channel": 3,
      "note": 43,
      "start": 72.2656,
      "duration": 0.0949,
      "velocity": 92,
      "chip": "ym2612"
    },
    {
      "channel": 1,
      "note": 58,
      "start": 72.2684,
      "duration": 0.2087,
      "velocity": 109,
      "chip": "ym2612"
    },
    {
      "channel": 4,
      "note": 51,
      "start": 72.2712,
      "duration": 0.1893,
      "velocity": 109,
      "chip": "ym2612"
    },
    {
      "channel": 2,
      "note": 49,
      "start": 72.3809,
      "duration": 0.1965,
      "velocity": 106,
      "chip": "ym2612"
    },
    {
      "channel": 3,
      "note": 43,
      "start": 72.384,
      "duration": 0.0933,
      "velocity": 92,
      "chip": "ym2612"
    },
    {
      "channel": 5,
      "note": 44,
      "start": 72.4991,
      "duration": 0.1116,
      "velocity": 125,
      "chip": "ym2612"
    },
    {
      "channel": 3,
      "note": 36,
      "start": 72.5036,
      "duration": 0.107,
      "velocity": 92,
      "chip": "ym2612"
    },
    {
      "channel": 5,
      "note": 44,
      "start": 72.6328,
      "duration": 0.0945,
      "velocity": 125,
      "chip": "ym2612"
    },
    {
      "channel": 3,
      "note": 48,
      "start": 72.6357,
      "duration": 0.0915,
      "velocity": 92,
      "chip": "ym2612"
    },
    {
      "channel": 4,
      "note": 58,
      "start": 72.6389,
      "duration": 0.2219,
      "velocity": 108,
      "chip": "ym2612"
    },
    {
      "channel": 1,
      "note": 51,
      "start": 72.6419,
      "duration": 0.1854,
      "velocity": 108,
      "chip": "ym2612"
    },
    {
      "channel": 5,
      "note": 44,
      "start": 72.7515,
      "duration": 0.1095,
      "velocity": 125,
      "chip": "ym2612"
    },
    {
      "channel": 3,
      "note": 48,
      "start": 72.7543,
      "duration": 0.1063,
      "velocity": 92,
      "chip": "ym2612"
    },
    {
      "channel": 3,
      "note": 36,
      "start": 72.8809,
      "duration": 0.0964,
      "velocity": 92,
      "chip": "ym2612"
    },
    {
      "channel": 2,
      "note": 49,
      "start": 72.9988,
      "duration": 0.2285,
      "velocity": 106,
      "chip": "ym2612"
    },
    {
      "channel": 3,
      "note": 48,
      "start": 73.0043,
      "duration": 0.1063,
      "velocity": 92,
      "chip": "ym2612"
    },
    {
      "channel": 1,
      "note": 51,
      "start": 73.0076,
      "duration": 0.2029,
      "velocity": 109,
      "chip": "ym2612"
    },
    {
      "channel": 4,
      "note": 58,
      "start": 73.0109,
      "duration": 0.1998,
      "velocity": 109,
      "chip": "ym2612"
    },
    {
      "channel": 3,
      "note": 48,
      "start": 73.1309,
      "duration": 0.0963,
      "velocity": 92,
      "chip": "ym2612"
    },
    {
      "channel": 3,
      "note": 36,
      "start": 73.2492,
      "duration": 0.1113,
      "velocity": 92,
      "chip": "ym2612"
    },
    {
      "channel": 5,
      "note": 51,
      "start": 73.2522,
      "duration": 0.2085,
      "velocity": 108,
      "chip": "ym2612"
    },
    {
      "channel": 1,
      "note": 58,
      "start": 73.2554,
      "duration": 0.2051,
      "velocity": 108,
      "chip": "ym2612"
    },
    {
      "channel": 3,
      "note": 48,
      "start": 73.3823,
      "duration": 0.0949,
      "velocity": 92,
      "chip": "ym2612"
    },
    {
      "channel": 2,
      "note": 49,
      "start": 73.5159,
      "duration": 0.0949,
      "velocity": 95,
      "chip": "ym2612"
    },
    {
      "channel": 3,
      "note": 48,
      "start": 73.5231,
      "duration": 0.0875,
      "velocity": 92,
      "chip": "ym2612"
    },
    {
      "channel": 4,
      "note": 40,
      "start": 73.6337,
      "duration": 0.0937,
      "velocity": 125,
      "chip": "ym2612"
    },
    {
      "channel": 3,
      "note": 36,
      "start": 73.6366,
      "duration": 0.0907,
      "velocity": 92,
      "chip": "ym2612"
    },
    {
      "channel": 4,
      "note": 40,
      "start": 73.7706,
      "duration": 0.0903,
      "velocity": 125,
      "chip": "ym2612"
    },
    {
      "channel": 3,
      "note": 48,
      "start": 73.774,
      "duration": 0.0868,
      "velocity": 92,
      "chip": "ym2612"
    },
    {
      "channel": 1,
      "note": 55,
      "start": 73.7774,
      "duration": 0.0832,
      "velocity": 108,
      "chip": "ym2612"
    },
    {
      "channel": 5,
      "note": 48,
      "start": 73.7802,
      "duration": 0.0808,
      "velocity": 108,
      "chip": "ym2612"
    },
    {
      "channel": 2,
      "note": 49,
      "start": 73.8822,
      "duration": 0.2118,
      "velocity": 95,
      "chip": "ym2612"
    },
    {
      "channel": 3,
      "note": 48,
      "start": 73.8854,
      "duration": 0.092,
      "velocity": 92,
      "chip": "ym2612"
    },
    {
      "channel": 1,
      "note": 48,
      "start": 73.8884,
      "duration": 0.2889,
      "velocity": 109,
      "chip": "ym2612"
    },
    {
      "channel": 4,
      "note": 55,
      "start": 73.8912,
      "duration": 0.2863,
      "velocity": 109,
      "chip": "ym2612"
    },
    {
      "channel": 3,
      "note": 36,
      "start": 74.0144,
      "duration": 0.0962,
      "velocity": 92,
      "chip": "ym2612"
    },
    {
      "channel": 3,
      "note": 48,
      "start": 74.132,
      "duration": 0.0953,
      "velocity": 92,
      "chip": "ym2612"
    },
    {
      "channel": 2,
      "note": 49,
      "start": 74.2656,
      "duration": 0.1951,
      "velocity": 106,
      "chip": "ym2612"
    },
    {
      "channel": 0,
      "note": 58,
      "start": 74.2723,
      "duration": 0.0881,
      "velocity": 119,
      "chip": "ym2612"
    },
    {
      "channel": 3,
      "note": 48,
      "start": 74.2748,
      "duration": 0.0858,
      "velocity": 92,
      "chip": "ym2612"
    },
    {
      "channel": 1,
      "note": 51,
      "start": 74.2782,
      "duration": 0.2157,
      "velocity": 109,
      "chip": "ym2612"
    },
    {
      "channel": 4,
      "note": 58,
      "start": 74.281,
      "duration": 0.1795,
      "velocity": 109,
      "chip": "ym2612"
    },
    {
      "channel": 5,
      "note": 44,
      "start": 74.381,
      "duration": 0.013,
      "velocity": 125,
      "chip": "ym2612"
    },
    {
      "channel": 0,
      "note": 59,
      "start": 74.3837,
      "duration": 0.11,
      "velocity": 119,
      "chip": "ym2612"
    },
    {
      "channel": 3,
      "note": 36,
      "start": 74.3863,
      "duration": 0.1078,
      "velocity": 92,
      "chip": "ym2612"
    },
    {
      "channel": 5,
      "note": 45,
      "start": 74.3977,
      "duration": 0.0965,
      "velocity": 125,
      "chip": "ym2612"
    },
    {
      "channel": 0,
      "note": 62,
      "start": 74.5147,
      "duration": 0.0957,
      "velocity": 119,
      "chip": "ym2612"
    },
    {
      "channel": 3,
      "note": 48,
      "start": 74.5172,
      "duration": 0.0934,
      "velocity": 92,
      "chip": "ym2612"
    },
    {
      "channel": 2,
      "note": 49,
      "start": 74.6321,
      "duration": 0.0786,
      "velocity": 95,
      "chip": "ym2612"
    },
    {
      "channel": 0,
      "note": 63,
      "start": 74.6354,
      "duration": 0.1085,
      "velocity": 119,
      "chip": "ym2612"
    },
    {
      "channel": 3,
      "note": 48,
      "start": 74.6379,
      "duration": 0.1061,
      "velocity": 92,
      "chip": "ym2612"
    },
    {
      "channel": 4,
      "note": 51,
      "start": 74.6412,
      "duration": 0.2196,
      "velocity": 108,
      "chip": "ym2612"
    },
    {
      "channel": 1,
      "note": 58,
      "start": 74.6446,
      "duration": 0.1993,
      "velocity": 108,
      "chip": "ym2612"
    },
    {
      "channel": 5,
      "note": 44,
      "start": 74.7646,
      "duration": 0.0127,
      "velocity": 125,
      "chip": "ym2612"
    },
    {
      "channel": 0,
      "note": 64,
      "start": 74.7676,
      "duration": 0.0928,
      "velocity": 119,
      "chip": "ym2612"
    },
    {
      "channel": 3,
      "note": 36,
      "start": 74.7702,
      "duration": 0.0904,
      "velocity": 92,
      "chip": "ym2612"
    },
    {
      "channel": 5,
      "note": 45,
      "start": 74.781,
      "duration": 0.0799,
      "velocity": 125,
      "chip": "ym2612"
    },
    {
      "channel": 2,
      "note": 49,
      "start": 74.8809,
      "duration": 0.1134,
      "velocity": 95,
      "chip": "ym2612"
    },
    {
      "channel": 0,
      "note": 65,
      "start": 74.8848,
      "duration": 0.109,
      "velocity": 119,
      "chip": "ym2612"
    },
    {
      "channel": 3,
      "note": 48,
      "start": 74.8874,
      "duration": 0.1066,
      "velocity": 92,
      "chip": "ym2612"
    },
    {
      "channel": 2,
      "note": 49,
      "start": 75.0158,
      "duration": 0.0783,
      "velocity": 106,
      "chip": "ym2612"
    },
    {
      "channel": 0,
      "note": 66,
      "start": 75.0207,
      "duration": 0.0897,
      "velocity": 119,
      "chip": "ym2612"
    },
    {
      "channel": 3,
      "note": 48,
      "start": 75.0233,
      "duration": 0.0873,
      "velocity": 92,
      "chip": "ym2612"
    },
    {
      "channel": 1,
      "note": 51,
      "start": 75.0267,
      "duration": 0.1838,
      "velocity": 109,
      "chip": "ym2612"
    },
    {
      "channel": 4,
      "note": 58,
      "start": 75.03,
      "duration": 0.1807,
      "velocity": 109,
      "chip": "ym2612"
    },
    {
      "channel": 0,
      "note": 67,
      "start": 75.1305,
      "duration": 0.1134,
      "velocity": 119,
      "chip": "ym2612"
    },
    {
      "channel": 3,
      "note": 36,
      "start": 75.133,
      "duration": 0.111,
      "velocity": 92,
      "chip": "ym2612"
    },
    {
      "channel": 5,
      "note": 44,
      "start": 75.1642,
      "duration": 0.0963,
      "velocity": 125,
      "chip": "ym2612"
    },
    {
      "channel": 0,
      "note": 68,
      "start": 75.2662,
      "duration": 0.0943,
      "velocity": 119,
      "chip": "ym2612"
    },
    {
      "channel": 3,
      "note": 48,
      "start": 75.2688,
      "duration": 0.0919,
      "velocity": 92,
      "chip": "ym2612"
    },
    {
      "channel": 2,
      "note": 51,
      "start": 75.2719,
      "duration": 0.1889,
      "velocity": 108,
      "chip": "ym2612"
    },
    {
      "channel": 1,
      "note": 58,
      "start": 75.275,
      "duration": 0.1854,
      "velocity": 108,
      "chip": "ym2612"
    },
    {
      "channel": 5,
      "note": 44,
      "start": 75.3808,
      "duration": 0.1134,
      "velocity": 125,
      "chip": "ym2612"
    },
    {
      "channel": 0,
      "note": 69,
      "start": 75.384,
      "duration": 0.1098,
      "velocity": 119,
      "chip": "ym2612"
    },
    {
      "channel": 3,
      "note": 48,
      "start": 75.3865,
      "duration": 0.1074,
      "velocity": 92,
      "chip": "ym2612"
    },
    {
      "channel": 2,
      "note": 81,
      "start": 75.5158,
      "duration": 0.2284,
      "velocity": 104,
      "chip": "ym2612"
    },
    {
      "channel": 0,
      "note": 70,
      "start": 75.5206,
      "duration": 0.0898,
      "velocity": 119,
      "chip": "ym2612"
    },
    {
      "channel": 3,
      "note": 48,
      "start": 75.5232,
      "duration": 0.0874,
      "velocity": 92,
      "chip": "ym2612"
    },
    {
      "channel": 0,
      "note": 71,
      "start": 75.6472,
      "duration": 0.0966,
      "velocity": 119,
      "chip": "ym2612"
    },
    {
      "channel": 3,
      "note": 48,
      "start": 75.6498,
      "duration": 0.0943,
      "velocity": 92,
      "chip": "ym2612"
    },
    {
      "channel": 1,
      "note": 55,
      "start": 75.6527,
      "duration": 0.0744,
      "velocity": 108,
      "chip": "ym2612"
    },
    {
      "channel": 4,
      "note": 48,
      "start": 75.6556,
      "duration": 0.0717,
      "velocity": 108,
      "chip": "ym2612"
    },
    {
      "channel": 5,
      "note": 44,
      "start": 75.7705,
      "duration": 0.0903,
      "velocity": 125,
      "chip": "ym2612"
    },
    {
      "channel": 0,
      "note": 72,
      "start": 75.7765,
      "duration": 0.4672,
      "velocity": 119,
      "chip": "ym2612"
    },
    {
      "channel": 3,
      "note": 48,
      "start": 75.7791,
      "duration": 0.0814,
      "velocity": 92,
      "chip": "ym2612"
    },
    {
      "channel": 1,
      "note": 55,
      "start": 75.7821,
      "duration": 0.1951,
      "velocity": 109,
      "chip": "ym2612"
    },
    {
      "channel": 4,
      "note": 48,
      "start": 75.7848,
      "duration": 0.1926,
      "velocity": 109,
      "chip": "ym2612"
    },
    {
      "channel": 3,
      "note": 46,
      "start": 75.899,
      "duration": 0.0949,
      "velocity": 92,
      "chip": "ym2612"
    },
    {
      "channel": 2,
      "note": 49,
      "start": 76.0153,
      "duration": 0.0788,
      "velocity": 106,
      "chip": "ym2612"
    },
    {
      "channel": 5,
      "note": 44,
      "start": 76.019,
      "duration": 0.0917,
      "velocity": 125,
      "chip": "ym2612"
    },
    {
      "channel": 3,
      "note": 44,
      "start": 76.0224,
      "duration": 0.0882,
      "velocity": 92,
      "chip": "ym2612"
    },
    {
      "channel": 2,
      "note": 49,
      "start": 76.1473,
      "duration": 0.08,
      "velocity": 106,
      "chip": "ym2612"
    },
    {
      "channel": 5,
      "note": 44,
      "start": 76.1503,
      "duration": 0.0938,
      "velocity": 125,
      "chip": "ym2612"
    },
    {
      "channel": 3,
      "note": 43,
      "start": 76.1543,
      "duration": 0.0897,
      "velocity": 92,
      "chip": "ym2612"
    },
    {
      "channel": 2,
      "note": 49,
      "start": 76.2663,
      "duration": 0.0777,
      "velocity": 95,
      "chip": "ym2612"
    },
    {
      "channel": 0,
      "note": 52,
      "start": 76.2801,
      "duration": 2.4803,
      "velocity": 125,
      "chip": "ym2612"
    },
    {
      "channel": 2,
      "note": 49,
      "start": 76.3977,
      "duration": 0.1966,
      "velocity": 95,
      "chip": "ym2612"
    },
    {
      "channel": 3,
      "note": 40,
      "start": 76.4013,
      "duration": 0.0926,
      "velocity": 92,
      "chip": "ym2612"
    },
    {
      "channel": 1,
      "note": 40,
      "start": 76.404,
      "duration": 0.0898,
      "velocity": 109,
      "chip": "ym2612"
    },
    {
      "channel": 4,
      "note": 52,
      "start": 76.4074,
      "duration": 0.0867,
      "velocity": 108,
      "chip": "ym2612"
    },
    {
      "channel": 3,
      "note": 43,
      "start": 76.5184,
      "duration": 0.0756,
      "velocity": 92,
      "chip": "ym2612"
    },
    {
      "channel": 1,
      "note": 43,
      "start": 76.5211,
      "duration": 0.0728,
      "velocity": 109,
      "chip": "ym2612"
    },
    {
      "channel": 4,
      "note": 55,
      "start": 76.5239,
      "duration": 0.0702,
      "velocity": 108,
      "chip": "ym2612"
    },
    {
      "channel": 3,
      "note": 42,
      "start": 76.6473,
      "duration": 0.08,
      "velocity": 92,
      "chip": "ym2612"
    },
    {
      "channel": 1,
      "note": 42,
      "start": 76.6499,
      "duration": 0.0773,
      "velocity": 109,
      "chip": "ym2612"
    },
    {
      "channel": 4,
      "note": 54,
      "start": 76.6525,
      "duration": 0.0749,
      "velocity": 108,
      "chip": "ym2612"
    },
    {
      "channel": 5,
      "note": 43,
      "start": 76.7674,
      "duration": 0.1102,
      "velocity": 125,
      "chip": "ym2612"
    },
    {
      "channel": 3,
      "note": 41,
      "start": 76.7706,
      "duration": 0.1067,
      "velocity": 92,
      "chip": "ym2612"
    },
    {
      "channel": 1,
      "note": 41,
      "start": 76.7739,
      "duration": 0.1034,
      "velocity": 109,
      "chip": "ym2612"
    },
    {
      "channel": 4,
      "note": 53,
      "start": 76.7774,
      "duration": 0.1001,
      "velocity": 108,
      "chip": "ym2612"
    },
    {
      "channel": 3,
      "note": 39,
      "start": 76.8813,
      "duration": 0.096,
      "velocity": 92,
      "chip": "ym2612"
    },
    {
      "channel": 1,
      "note": 39,
      "start": 76.884,
      "duration": 0.0932,
      "velocity": 109,
      "chip": "ym2612"
    },
    {
      "channel": 4,
      "note": 51,
      "start": 76.8868,
      "duration": 0.0906,
      "velocity": 108,
      "chip": "ym2612"
    },
    {
      "channel": 2,
      "note": 49,
      "start": 77.0143,
      "duration": 0.23,
      "velocity": 106,
      "chip": "ym2612"
    },
    {
      "channel": 3,
      "note": 40,
      "start": 77.0196,
      "duration": 0.1077,
      "velocity": 92,
      "chip": "ym2612"
    },
    {
      "channel": 1,
      "note": 40,
      "start": 77.0223,
      "duration": 0.1049,
      "velocity": 109,
      "chip": "ym2612"
    },
    {
      "channel": 4,
      "note": 52,
      "start": 77.0251,
      "duration": 0.1023,
      "velocity": 108,
      "chip": "ym2612"
    },
    {
      "channel": 3,
      "note": 34,
      "start": 77.1497,
      "duration": 0.0943,
      "velocity": 92,
      "chip": "ym2612"
    },
    {
      "channel": 1,
      "note": 34,
      "start": 77.1524,
      "duration": 0.0915,
      "velocity": 109,
      "chip": "ym2612"
    },
    {
      "channel": 4,
      "note": 46,
      "start": 77.1552,
      "duration": 0.0889,
      "velocity": 108,
      "chip": "ym2612"
    },
    {
      "channel": 3,
      "note": 34,
      "start": 77.3979,
      "duration": 0.096,
      "velocity": 92,
      "chip": "ym2612"
    },
    {
      "channel": 1,
      "note": 34,
      "start": 77.4006,
      "duration": 0.0932,
      "velocity": 109,
      "chip": "ym2612"
    },
    {
      "channel": 4,
      "note": 46,
      "start": 77.4034,
      "duration": 0.0906,
      "velocity": 108,
      "chip": "ym2612"
    },
    {
      "channel": 2,
      "note": 49,
      "start": 77.5155,
      "duration": 0.1118,
      "velocity": 95,
      "chip": "ym2612"
    },
    {
      "channel": 5,
      "note": 43,
      "start": 77.7857,
      "duration": 0.1083,
      "velocity": 125,
      "chip": "ym2612"
    },
    {
      "channel": 2,
      "note": 49,
      "start": 77.8994,
      "duration": 0.2114,
      "velocity": 95,
      "chip": "ym2612"
    },
    {
      "channel": 3,
      "note": 38,
      "start": 78.0315,
      "duration": 0.2124,
      "velocity": 92,
      "chip": "ym2612"
    },
    {
      "channel": 1,
      "note": 38,
      "start": 78.0344,
      "duration": 0.2093,
      "velocity": 109,
      "chip": "ym2612"
    },
    {
      "channel": 4,
      "note": 50,
      "start": 78.0378,
      "duration": 0.2062,
      "velocity": 108,
      "chip": "ym2612"
    },
    {
      "channel": 2,
      "note": 49,
      "start": 78.281,
      "duration": 0.0798,
      "velocity": 95,
      "chip": "ym2612"
    },
    {
      "channel": 2,
      "note": 49,
      "start": 78.3976,
      "duration": 0.2133,
      "velocity": 95,
      "chip": "ym2612"
    },
    {
      "channel": 3,
      "note": 40,
      "start": 78.4013,
      "duration": 0.0926,
      "velocity": 92,
      "chip": "ym2612"
    },
    {
      "channel": 1,
      "note": 40,
      "start": 78.4041,
      "duration": 0.0897,
      "velocity": 109,
      "chip": "ym2612"
    },
    {
      "channel": 4,
      "note": 52,
      "start": 78.4072,
      "duration": 0.0869,
      "velocity": 108,
      "chip": "ym2612"
    },
    {
      "channel": 3,
      "note": 43,
      "start": 78.5329,
      "duration": 0.0777,
      "velocity": 92,
      "chip": "ym2612"
    },
    {
      "channel": 1,
      "note": 43,
      "start": 78.5359,
      "duration": 0.0746,
      "velocity": 109,
      "chip": "ym2612"
    },
    {
      "channel": 4,
      "note": 55,
      "start": 78.5388,
      "duration": 0.072,
      "velocity": 108,
      "chip": "ym2612"
    },
    {
      "channel": 3,
      "note": 42,
      "start": 78.6474,
      "duration": 0.0798,
      "velocity": 92,
      "chip": "ym2612"
    },
    {
      "channel": 1,
      "note": 42,
      "start": 78.6499,
      "duration": 0.0772,
      "velocity": 109,
      "chip": "ym2612"
    },
    {
      "channel": 4,
      "note": 54,
      "start": 78.6526,
      "duration": 0.0747,
      "velocity": 108,
      "chip": "ym2612"
    },
    {
      "channel": 5,
      "note": 43,
      "start": 78.7842,
      "duration": 0.1099,
      "velocity": 125,
      "chip": "ym2612"
    },
    {
      "channel": 0,
      "note": 55,
      "start": 78.7873,
      "duration": 0.4732,
      "velocity": 125,
      "chip": "ym2612"
    },
    {
      "channel": 3,
      "note": 41,
      "start": 78.7903,
      "duration": 0.0871,
      "velocity": 92,
      "chip": "ym2612"
    },
    {
      "channel": 1,
      "note": 41,
      "start": 78.7936,
      "duration": 0.0836,
      "velocity": 109,
      "chip": "ym2612"
    },
    {
      "channel": 4,
      "note": 53,
      "start": 78.7968,
      "duration": 0.0807,
      "velocity": 108,
      "chip": "ym2612"
    },
    {
      "channel": 3,
      "note": 39,
      "start": 78.8812,
      "duration": 0.0961,
      "velocity": 92,
      "chip": "ym2612"
    },
    {
      "channel": 1,
      "note": 39,
      "start": 78.8839,
      "duration": 0.0933,
      "velocity": 109,
      "chip": "ym2612"
    },
    {
      "channel": 4,
      "note": 51,
      "start": 78.8868,
      "duration": 0.0907,
      "velocity": 108,
      "chip": "ym2612"
    },
    {
      "channel": 2,
      "note": 49,
      "start": 79.031,
      "duration": 0.2302,
      "velocity": 106,
      "chip": "ym2612"
    },
    {
      "channel": 3,
      "note": 40,
      "start": 79.0348,
      "duration": 0.0925,
      "velocity": 92,
      "chip": "ym2612"
    },
    {
      "channel": 1,
      "note": 40,
      "start": 79.0375,
      "duration": 0.0897,
      "velocity": 109,
      "chip": "ym2612"
    },
    {
      "channel": 4,
      "note": 52,
      "start": 79.0403,
      "duration": 0.0871,
      "velocity": 108,
      "chip": "ym2612"
    },
    {
      "channel": 3,
      "note": 34,
      "start": 79.1497,
      "duration": 0.1111,
      "velocity": 92,
      "chip": "ym2612"
    },
    {
      "channel": 1,
      "note": 34,
      "start": 79.1524,
      "duration": 0.1083,
      "velocity": 109,
      "chip": "ym2612"
    },
    {
      "channel": 4,
      "note": 46,
      "start": 79.1556,
      "duration": 0.1053,
      "velocity": 108,
      "chip": "ym2612"
    },
    {
      "channel": 0,
      "note": 54,
      "start": 79.2824,
      "duration": 0.478,
      "velocity": 125,
      "chip": "ym2612"
    },
    {
      "channel": 3,
      "note": 34,
      "start": 79.398,
      "duration": 0.1127,
      "velocity": 92,
      "chip": "ym2612"
    },
    {
      "channel": 1,
      "note": 34,
      "start": 79.4007,
      "duration": 0.1099,
      "velocity": 109,
      "chip": "ym2612"
    },
    {
      "channel": 4,
      "note": 46,
      "start": 79.4036,
      "duration": 0.1073,
      "velocity": 108,
      "chip": "ym2612"
    },
    {
      "channel": 2,
      "note": 49,
      "start": 79.531,
      "duration": 0.0963,
      "velocity": 95,
      "chip": "ym2612"
    },
    {
      "channel": 5,
      "note": 39,
      "start": 79.649,
      "duration": 0.1117,
      "velocity": 125,
      "chip": "ym2612"
    },
    {
      "channel": 5,
      "note": 39,
      "start": 79.7849,
      "duration": 0.0924,
      "velocity": 125,
      "chip": "ym2612"
    },
    {
      "channel": 0,
      "note": 52,
      "start": 79.7884,
      "duration": 0.4887,
      "velocity": 125,
      "chip": "ym2612"
    },
    {
      "channel": 2,
      "note": 81,
      "start": 79.9159,
      "duration": 0.3282,
      "velocity": 104,
      "chip": "ym2612"
    },
    {
      "channel": 3,
      "note": 38,
      "start": 80.0337,
      "duration": 0.227,
      "velocity": 92,
      "chip": "ym2612"
    },
    {
      "channel": 1,
      "note": 38,
      "start": 80.0365,
      "duration": 0.224,
      "velocity": 109,
      "chip": "ym2612"
    },
    {
      "channel": 4,
      "note": 50,
      "start": 80.0397,
      "duration": 0.2211,
      "velocity": 108,
      "chip": "ym2612"
    },
    {
      "channel": 2,
      "note": 49,
      "start": 80.2833,
      "duration": 0.0774,
      "velocity": 95,
      "chip": "ym2612"
    },
    {
      "channel": 0,
      "note": 48,
      "start": 80.2926,
      "duration": 3.9845,
      "velocity": 125,
      "chip": "ym2612"
    },
    {
      "channel": 3,
      "note": 48,
      "start": 80.2959,
      "duration": 0.0814,
      "velocity": 92,
      "chip": "ym2612"
    },
    {
      "channel": 1,
      "note": 58,
      "start": 80.2989,
      "duration": 0.2115,
      "velocity": 109,
      "chip": "ym2612"
    },
    {
      "channel": 5,
      "note": 52,
      "start": 80.3018,
      "duration": 0.1922,
      "velocity": 109,
      "chip": "ym2612"
    },
    {
      "channel": 2,
      "note": 49,
      "start": 80.4143,
      "duration": 0.1964,
      "velocity": 95,
      "chip": "ym2612"
    },
    {
      "channel": 3,
      "note": 48,
      "start": 80.4178,
      "duration": 0.0928,
      "velocity": 92,
      "chip": "ym2612"
    },
    {
      "channel": 3,
      "note": 36,
      "start": 80.5345,
      "duration": 0.0927,
      "velocity": 92,
      "chip": "ym2612"
    },
    {
      "channel": 3,
      "note": 48,
      "start": 80.6641,
      "duration": 0.0964,
      "velocity": 92,
      "chip": "ym2612"
    },
    {
      "channel": 4,
      "note": 56,
      "start": 80.6674,
      "duration": 0.2268,
      "velocity": 108,
      "chip": "ym2612"
    },
    {
      "channel": 5,
      "note": 52,
      "start": 80.6703,
      "duration": 0.1905,
      "velocity": 108,
      "chip": "ym2612"
    },
    {
      "channel": 1,
      "note": 43,
      "start": 80.7848,
      "duration": 0.1258,
      "velocity": 125,
      "chip": "ym2612"
    },
    {
      "channel": 3,
      "note": 48,
      "start": 80.7877,
      "duration": 0.1062,
      "velocity": 92,
      "chip": "ym2612"
    },
    {
      "channel": 3,
      "note": 36,
      "start": 80.9148,
      "duration": 0.0959,
      "velocity": 92,
      "chip": "ym2612"
    },
    {
      "channel": 2,
      "note": 49,
      "start": 81.031,
      "duration": 0.2297,
      "velocity": 106,
      "chip": "ym2612"
    },
    {
      "channel": 3,
      "note": 48,
      "start": 81.0364,
      "duration": 0.1075,
      "velocity": 92,
      "chip": "ym2612"
    },
    {
      "channel": 5,
      "note": 52,
      "start": 81.0394,
      "duration": 0.2047,
      "velocity": 109,
      "chip": "ym2612"
    },
    {
      "channel": 4,
      "note": 58,
      "start": 81.0422,
      "duration": 0.2018,
      "velocity": 109,
      "chip": "ym2612"
    },
    {
      "channel": 3,
      "note": 48,
      "start": 81.1658,
      "duration": 0.0947,
      "velocity": 92,
      "chip": "ym2612"
    },
    {
      "channel": 3,
      "note": 36,
      "start": 81.2826,
      "duration": 0.1113,
      "velocity": 92,
      "chip": "ym2612"
    },
    {
      "channel": 1,
      "note": 52,
      "start": 81.2856,
      "duration": 0.2082,
      "velocity": 108,
      "chip": "ym2612"
    },
    {
      "channel": 4,
      "note": 56,
      "start": 81.2887,
      "duration": 0.2052,
      "velocity": 108,
      "chip": "ym2612"
    },
    {
      "channel": 3,
      "note": 48,
      "start": 81.414,
      "duration": 0.0965,
      "velocity": 92,
      "chip": "ym2612"
    },
    {
      "channel": 2,
      "note": 49,
      "start": 81.5321,
      "duration": 0.112,
      "velocity": 95,
      "chip": "ym2612"
    },
    {
      "channel": 3,
      "note": 48,
      "start": 81.5392,
      "duration": 0.1046,
      "velocity": 92,
      "chip": "ym2612"
    },
    {
      "channel": 3,
      "note": 36,
      "start": 81.6641,
      "duration": 0.0965,
      "velocity": 92,
      "chip": "ym2612"
    },
    {
      "channel": 5,
      "note": 43,
      "start": 81.7859,
      "duration": 0.1247,
      "velocity": 125,
      "chip": "ym2612"
    },
    {
      "channel": 3,
      "note": 48,
      "start": 81.7893,
      "duration": 0.1047,
      "velocity": 92,
      "chip": "ym2612"
    },
    {
      "channel": 1,
      "note": 51,
      "start": 81.7922,
      "duration": 0.1017,
      "velocity": 108,
      "chip": "ym2612"
    },
    {
      "channel": 4,
      "note": 55,
      "start": 81.7954,
      "duration": 0.0987,
      "velocity": 108,
      "chip": "ym2612"
    },
    {
      "channel": 2,
      "note": 49,
      "start": 81.9156,
      "duration": 0.2118,
      "velocity": 95,
      "chip": "ym2612"
    },
    {
      "channel": 3,
      "note": 48,
      "start": 81.9188,
      "duration": 0.0918,
      "velocity": 92,
      "chip": "ym2612"
    },
    {
      "channel": 1,
      "note": 48,
      "start": 81.9218,
      "duration": 0.2888,
      "velocity": 109,
      "chip": "ym2612"
    },
    {
      "channel": 4,
      "note": 55,
      "start": 81.9246,
      "duration": 0.2863,
      "velocity": 109,
      "chip": "ym2612"
    },
    {
      "channel": 3,
      "note": 36,
      "start": 82.0482,
      "duration": 0.0957,
      "velocity": 92,
      "chip": "ym2612"
    },
    {
      "channel": 3,
      "note": 48,
      "start": 82.1662,
      "duration": 0.0944,
      "velocity": 92,
      "chip": "ym2612"
    },
    {
      "channel": 2,
      "note": 49,
      "start": 82.2977,
      "duration": 0.0797,
      "velocity": 95,
      "chip": "ym2612"
    },
    {
      "channel": 3,
      "note": 48,
      "start": 82.3042,
      "duration": 0.0897,
      "velocity": 92,
      "chip": "ym2612"
    },
    {
      "channel": 1,
      "note": 52,
      "start": 82.3074,
      "duration": 0.2031,
      "velocity": 109,
      "chip": "ym2612"
    },
    {
      "channel": 4,
      "note": 58,
      "start": 82.3107,
      "duration": 0.1832,
      "velocity": 109,
      "chip": "ym2612"
    },
    {
      "channel": 2,
      "note": 49,
      "start": 82.4143,
      "duration": 0.213,
      "velocity": 95,
      "chip": "ym2612"
    },
    {
      "channel": 3,
      "note": 36,
      "start": 82.4174,
      "duration": 0.0931,
      "velocity": 92,
      "chip": "ym2612"
    },
    {
      "channel": 3,
      "note": 48,
      "start": 82.5479,
      "duration": 0.0959,
      "velocity": 92,
      "chip": "ym2612"
    },
    {
      "channel": 3,
      "note": 48,
      "start": 82.6644,
      "duration": 0.0961,
      "velocity": 92,
      "chip": "ym2612"
    },
    {
      "channel": 5,
      "note": 52,
      "start": 82.6676,
      "duration": 0.2265,
      "velocity": 108,
      "chip": "ym2612"
    },
    {
      "channel": 4,
      "note": 56,
      "start": 82.6705,
      "duration": 0.2068,
      "velocity": 108,
      "chip": "ym2612"
    },
    {
      "channel": 1,
      "note": 43,
      "start": 82.801,
      "duration": 0.1095,
      "velocity": 125,
      "chip": "ym2612"
    },
    {
      "channel": 3,
      "note": 36,
      "start": 82.8039,
      "duration": 0.09,
      "velocity": 92,
      "chip": "ym2612"
    },
    {
      "channel": 3,
      "note": 48,
      "start": 82.9156,
      "duration": 0.1116,
      "velocity": 92,
      "chip": "ym2612"
    },
    {
      "channel": 2,
      "note": 49,
      "start": 83.0477,
      "duration": 0.2298,
      "velocity": 106,
      "chip": "ym2612"
    },
    {
      "channel": 3,
      "note": 48,
      "start": 83.0529,
      "duration": 0.0911,
      "velocity": 92,
      "chip": "ym2612"
    },
    {
      "channel": 4,
      "note": 52,
      "start": 83.0558,
      "duration": 0.1881,
      "velocity": 109,
      "chip": "ym2612"
    },
    {
      "channel": 5,
      "note": 58,
      "start": 83.0586,
      "duration": 0.1854,
      "velocity": 109,
      "chip": "ym2612"
    },
    {
      "channel": 3,
      "note": 36,
      "start": 83.1641,
      "duration": 0.1131,
      "velocity": 92,
      "chip": "ym2612"
    },
    {
      "channel": 3,
      "note": 48,
      "start": 83.2998,
      "duration": 0.0941,
      "velocity": 92,
      "chip": "ym2612"
    },
    {
      "channel": 1,
      "note": 52,
      "start": 83.3027,
      "duration": 0.1911,
      "velocity": 108,
      "chip": "ym2612"
    },
    {
      "channel": 4,
      "note": 56,
      "start": 83.3055,
      "duration": 0.1885,
      "velocity": 108,
      "chip": "ym2612"
    },
    {
      "channel": 3,
      "note": 48,
      "start": 83.4146,
      "duration": 0.1126,
      "velocity": 92,
      "chip": "ym2612"
    },
    {
      "channel": 2,
      "note": 49,
      "start": 83.5477,
      "duration": 0.0964,
      "velocity": 95,
      "chip": "ym2612"
    },
    {
      "channel": 3,
      "note": 48,
      "start": 83.553,
      "duration": 0.0909,
      "velocity": 92,
      "chip": "ym2612"
    },
    {
      "channel": 5,
      "note": 39,
      "start": 83.6655,
      "duration": 0.1119,
      "velocity": 125,
      "chip": "ym2612"
    },
    {
      "channel": 3,
      "note": 48,
      "start": 83.6684,
      "duration": 0.1088,
      "velocity": 92,
      "chip": "ym2612"
    },
    {
      "channel": 1,
      "note": 55,
      "start": 83.6717,
      "duration": 0.0722,
      "velocity": 108,
      "chip": "ym2612"
    },
    {
      "channel": 4,
      "note": 49,
      "start": 83.6744,
      "duration": 0.0697,
      "velocity": 108,
      "chip": "ym2612"
    },
    {
      "channel": 5,
      "note": 39,
      "start": 83.8031,
      "duration": 0.091,
      "velocity": 125,
      "chip": "ym2612"
    },
    {
      "channel": 3,
      "note": 48,
      "start": 83.8085,
      "duration": 0.0854,
      "velocity": 92,
      "chip": "ym2612"
    },
    {
      "channel": 2,
      "note": 55,
      "start": 83.812,
      "duration": 0.1821,
      "velocity": 109,
      "chip": "ym2612"
    },
    {
      "channel": 1,
      "note": 48,
      "start": 83.8148,
      "duration": 0.1791,
      "velocity": 109,
      "chip": "ym2612"
    },
    {
      "channel": 3,
      "note": 48,
      "start": 83.9158,
      "duration": 0.1115,
      "velocity": 92,
      "chip": "ym2612"
    },
    {
      "channel": 3,
      "note": 48,
      "start": 84.0489,
      "duration": 0.095,
      "velocity": 92,
      "chip": "ym2612"
    },
    {
      "channel": 3,
      "note": 48,
      "start": 84.1814,
      "duration": 0.0959,
      "velocity": 92,
      "chip": "ym2612"
    },
    {
      "channel": 2,
      "note": 49,
      "start": 84.2998,
      "duration": 0.0777,
      "velocity": 95,
      "chip": "ym2612"
    },
    {
      "channel": 0,
      "note": 52,
      "start": 84.3124,
      "duration": 2.4649,
      "velocity": 125,
      "chip": "ym2612"
    },
    {
      "channel": 4,
      "note": 64,
      "start": 84.3207,
      "duration": 3.9736,
      "velocity": 119,
      "chip": "ym2612"
    },
    {
      "channel": 2,
      "note": 49,
      "start": 84.4312,
      "duration": 0.1964,
      "velocity": 95,
      "chip": "ym2612"
    },
    {
      "channel": 3,
      "note": 43,
      "start": 84.4348,
      "duration": 0.0759,
      "velocity": 92,
      "chip": "ym2612"
    },
    {
      "channel": 1,
      "note": 43,
      "start": 84.438,
      "duration": 0.106,
      "velocity": 109,
      "chip": "ym2612"
    },
    {
      "channel": 3,
      "note": 42,
      "start": 84.6812,
      "duration": 0.0796,
      "velocity": 92,
      "chip": "ym2612"
    },
    {
      "channel": 1,
      "note": 42,
      "start": 84.684,
      "duration": 0.0767,
      "velocity": 109,
      "chip": "ym2612"
    },
    {
      "channel": 5,
      "note": 43,
      "start": 84.801,
      "duration": 0.0934,
      "velocity": 125,
      "chip": "ym2612"
    },
    {
      "channel": 3,
      "note": 41,
      "start": 84.8046,
      "duration": 0.0896,
      "velocity": 92,
      "chip": "ym2612"
    },
    {
      "channel": 1,
      "note": 41,
      "start": 84.8074,
      "duration": 0.0867,
      "velocity": 109,
      "chip": "ym2612"
    },
    {
      "channel": 3,
      "note": 39,
      "start": 84.8981,
      "duration": 0.1128,
      "velocity": 92,
      "chip": "ym2612"
    },
    {
      "channel": 1,
      "note": 39,
      "start": 84.9008,
      "duration": 0.11,
      "velocity": 109,
      "chip": "ym2612"
    },
    {
      "channel": 2,
      "note": 49,
      "start": 85.0479,
      "duration": 0.2298,
      "velocity": 106,
      "chip": "ym2612"
    },
    {
      "channel": 3,
      "note": 40,
      "start": 85.0535,
      "duration": 0.1074,
      "velocity": 92,
      "chip": "ym2612"
    },
    {
      "channel": 1,
      "note": 40,
      "start": 85.0562,
      "duration": 0.1046,
      "velocity": 109,
      "chip": "ym2612"
    },
    {
      "channel": 3,
      "note": 34,
      "start": 85.1833,
      "duration": 0.0941,
      "velocity": 92,
      "chip": "ym2612"
    },
    {
      "channel": 1,
      "note": 34,
      "start": 85.1859,
      "duration": 0.0913,
      "velocity": 109,
      "chip": "ym2612"
    },
    {
      "channel": 3,
      "note": 34,
      "start": 85.4312,
      "duration": 0.0962,
      "velocity": 92,
      "chip": "ym2612"
    },
    {
      "channel": 1,
      "note": 34,
      "start": 85.4338,
      "duration": 0.0934,
      "velocity": 109,
      "chip": "ym2612"
    },
    {
      "channel": 2,
      "note": 49,
      "start": 85.549,
      "duration": 0.1118,
      "velocity": 95,
      "chip": "ym2612"
    },
    {
      "channel": 5,
      "note": 43,
      "start": 85.8032,
      "duration": 0.1243,
      "velocity": 125,
      "chip": "ym2612"
    },
    {
      "channel": 2,
      "note": 49,
      "start": 85.9326,
      "duration": 0.1951,
      "velocity": 95,
      "chip": "ym2612"
    },
    {
      "channel": 3,
      "note": 38,
      "start": 86.0483,
      "duration": 0.2291,
      "velocity": 92,
      "chip": "ym2612"
    },
    {
      "channel": 1,
      "note": 38,
      "start": 86.0516,
      "duration": 0.2257,
      "velocity": 109,
      "chip": "ym2612"
    },
    {
      "channel": 2,
      "note": 49,
      "start": 86.3145,
      "duration": 0.0798,
      "velocity": 95,
      "chip": "ym2612"
    },
    {
      "channel": 2,
      "note": 49,
      "start": 86.4312,
      "duration": 0.2131,
      "velocity": 95,
      "chip": "ym2612"
    },
    {
      "channel": 3,
      "note": 43,
      "start": 86.4352,
      "duration": 0.0755,
      "velocity": 92,
      "chip": "ym2612"
    },
    {
      "channel": 1,
      "note": 43,
      "start": 86.438,
      "duration": 0.0892,
      "velocity": 109,
      "chip": "ym2612"
    },
    {
      "channel": 3,
      "note": 42,
      "start": 86.6811,
      "duration": 0.0797,
      "velocity": 92,
      "chip": "ym2612"
    },
    {
      "channel": 1,
      "note": 42,
      "start": 86.684,
      "duration": 0.0767,
      "velocity": 109,
      "chip": "ym2612"
    },
    {
      "channel": 5,
      "note": 43,
      "start": 86.8178,
      "duration": 0.1098,
      "velocity": 125,
      "chip": "ym2612"
    },
    {
      "channel": 0,
      "note": 55,
      "start": 86.8209,
      "duration": 0.473,
      "velocity": 125,
      "chip": "ym2612"
    },
    {
      "channel": 3,
      "note": 41,
      "start": 86.8239,
      "duration": 0.087,
      "velocity": 92,
      "chip": "ym2612"
    },
    {
      "channel": 1,
      "note": 41,
      "start": 86.8272,
      "duration": 0.0834,
      "velocity": 109,
      "chip": "ym2612"
    },
    {
      "channel": 3,
      "note": 39,
      "start": 86.9147,
      "duration": 0.0962,
      "velocity": 92,
      "chip": "ym2612"
    },
    {
      "channel": 1,
      "note": 39,
      "start": 86.9174,
      "duration": 0.0934,
      "velocity": 109,
      "chip": "ym2612"
    },
    {
      "channel": 2,
      "note": 49,
      "start": 87.0646,
      "duration": 0.2298,
      "velocity": 106,
      "chip": "ym2612"
    },
    {
      "channel": 3,
      "note": 40,
      "start": 87.0681,
      "duration": 0.0927,
      "velocity": 92,
      "chip": "ym2612"
    },
    {
      "channel": 1,
      "note": 40,
      "start": 87.0707,
      "duration": 0.09,
      "velocity": 109,
      "chip": "ym2612"
    },
    {
      "channel": 3,
      "note": 34,
      "start": 87.1832,
      "duration": 0.111,
      "velocity": 92,
      "chip": "ym2612"
    },
    {
      "channel": 1,
      "note": 34,
      "start": 87.1863,
      "duration": 0.1078,
      "velocity": 109,
      "chip": "ym2612"
    },
    {
      "channel": 0,
      "note": 54,
      "start": 87.316,
      "duration": 0.4779,
      "velocity": 125,
      "chip": "ym2612"
    },
    {
      "channel": 2,
      "note": 49,
      "start": 87.5644,
      "duration": 0.0964,
      "velocity": 95,
      "chip": "ym2612"
    },
    {
      "channel": 5,
      "note": 39,
      "start": 87.6826,
      "duration": 0.1116,
      "velocity": 125,
      "chip": "ym2612"
    },
    {
      "channel": 5,
      "note": 39,
      "start": 87.8184,
      "duration": 0.0925,
      "velocity": 125,
      "chip": "ym2612"
    },
    {
      "channel": 0,
      "note": 52,
      "start": 87.8218,
      "duration": 0.4891,
      "velocity": 125,
      "chip": "ym2612"
    },
    {
      "channel": 2,
      "note": 81,
      "start": 87.9328,
      "duration": 0.328,
      "velocity": 104,
      "chip": "ym2612"
    },
    {
      "channel": 3,
      "note": 38,
      "start": 88.0668,
      "duration": 0.2274,
      "velocity": 92,
      "chip": "ym2612"
    },
    {
      "channel": 1,
      "note": 38,
      "start": 88.0697,
      "duration": 0.2244,
      "velocity": 109,
      "chip": "ym2612"
    },
    {
      "channel": 2,
      "note": 49,
      "start": 88.3171,
      "duration": 0.0772,
      "velocity": 95,
      "chip": "ym2612"
    },
    {
      "channel": 0,
      "note": 48,
      "start": 88.3266,
      "duration": 1.9671,
      "velocity": 125,
      "chip": "ym2612"
    },
    {
      "channel": 3,
      "note": 48,
      "start": 88.33,
      "duration": 0.0808,
      "velocity": 92,
      "chip": "ym2612"
    },
    {
      "channel": 1,
      "note": 58,
      "start": 88.3337,
      "duration": 0.2104,
      "velocity": 109,
      "chip": "ym2612"
    },
    {
      "channel": 5,
      "note": 52,
      "start": 88.3366,
      "duration": 0.1909,
      "velocity": 109,
      "chip": "ym2612"
    },
    {
      "channel": 4,
      "note": 74,
      "start": 88.34,
      "duration": 1.9541,
      "velocity": 119,
      "chip": "ym2612"
    },
    {
      "channel": 2,
      "note": 49,
      "start": 88.448,
      "duration": 0.1962,
      "velocity": 95,
      "chip": "ym2612"
    },
    {
      "channel": 3,
      "note": 48,
      "start": 88.4515,
      "duration": 0.0927,
      "velocity": 92,
      "chip": "ym2612"
    },
    {
      "channel": 3,
      "note": 36,
      "start": 88.5684,
      "duration": 0.0922,
      "velocity": 92,
      "chip": "ym2612"
    },
    {
      "channel": 3,
      "note": 48,
      "start": 88.6976,
      "duration": 0.0966,
      "velocity": 92,
      "chip": "ym2612"
    },
    {
      "channel": 5,
      "note": 55,
      "start": 88.7008,
      "duration": 0.21,
      "velocity": 108,
      "chip": "ym2612"
    },
    {
      "channel": 1,
      "note": 48,
      "start": 88.7037,
      "duration": 0.1902,
      "velocity": 108,
      "chip": "ym2612"
    },
    {
      "channel": 2,
      "note": 43,
      "start": 88.8183,
      "duration": 0.1258,
      "velocity": 125,
      "chip": "ym2612"
    },
    {
      "channel": 3,
      "note": 48,
      "start": 88.8212,
      "duration": 0.0894,
      "velocity": 92,
      "chip": "ym2612"
    },
    {
      "channel": 3,
      "note": 36,
      "start": 88.9476,
      "duration": 0.0964,
      "velocity": 92,
      "chip": "ym2612"
    },
    {
      "channel": 2,
      "note": 49,
      "start": 89.0644,
      "duration": 0.2296,
      "velocity": 106,
      "chip": "ym2612"
    },
    {
      "channel": 3,
      "note": 48,
      "start": 89.0695,
      "duration": 0.0911,
      "velocity": 92,
      "chip": "ym2612"
    },
    {
      "channel": 1,
      "note": 52,
      "start": 89.0724,
      "duration": 0.2047,
      "velocity": 109,
      "chip": "ym2612"
    },
    {
      "channel": 5,
      "note": 58,
      "start": 89.0752,
      "duration": 0.2022,
      "velocity": 109,
      "chip": "ym2612"
    },
    {
      "channel": 3,
      "note": 48,
      "start": 89.1995,
      "duration": 0.0943,
      "velocity": 92,
      "chip": "ym2612"
    },
    {
      "channel": 3,
      "note": 36,
      "start": 89.316,
      "duration": 0.1112,
      "velocity": 92,
      "chip": "ym2612"
    },
    {
      "channel": 1,
      "note": 48,
      "start": 89.319,
      "duration": 0.2081,
      "velocity": 108,
      "chip": "ym2612"
    },
    {
      "channel": 5,
      "note": 55,
      "start": 89.3217,
      "duration": 0.2056,
      "velocity": 108,
      "chip": "ym2612"
    },
    {
      "channel": 3,
      "note": 48,
      "start": 89.4475,
      "duration": 0.0964,
      "velocity": 92,
      "chip": "ym2612"
    },
    {
      "channel": 2,
      "note": 49,
      "start": 89.5655,
      "duration": 0.112,
      "velocity": 95,
      "chip": "ym2612"
    },
    {
      "channel": 3,
      "note": 48,
      "start": 89.5727,
      "duration": 0.1046,
      "velocity": 92,
      "chip": "ym2612"
    },
    {
      "channel": 3,
      "note": 36,
      "start": 89.6975,
      "duration": 0.0965,
      "velocity": 92,
      "chip": "ym2612"
    },
    {
      "channel": 1,
      "note": 43,
      "start": 89.8193,
      "duration": 0.1246,
      "velocity": 125,
      "chip": "ym2612"
    },
    {
      "channel": 3,
      "note": 48,
      "start": 89.8227,
      "duration": 0.1046,
      "velocity": 92,
      "chip": "ym2612"
    },
    {
      "channel": 5,
      "note": 48,
      "start": 89.8266,
      "duration": 0.1008,
      "velocity": 108,
      "chip": "ym2612"
    },
    {
      "channel": 2,
      "note": 55,
      "start": 89.8295,
      "duration": 0.0981,
      "velocity": 108,
      "chip": "ym2612"
    },
    {
      "channel": 2,
      "note": 49,
      "start": 89.949,
      "duration": 0.195,
      "velocity": 95,
      "chip": "ym2612"
    },
    {
      "channel": 3,
      "note": 48,
      "start": 89.9522,
      "duration": 0.0918,
      "velocity": 92,
      "chip": "ym2612"
    },
    {
      "channel": 5,
      "note": 48,
      "start": 89.9556,
      "duration": 0.272,
      "velocity": 109,
      "chip": "ym2612"
    },
    {
      "channel": 1,
      "note": 55,
      "start": 89.9583,
      "duration": 0.269,
      "velocity": 109,
      "chip": "ym2612"
    },
    {
      "channel": 3,
      "note": 36,
      "start": 90.0644,
      "duration": 0.1128,
      "velocity": 92,
      "chip": "ym2612"
    },
    {
      "channel": 3,
      "note": 48,
      "start": 90.2,
      "duration": 0.0939,
      "velocity": 92,
      "chip": "ym2612"
    },
    {
      "channel": 2,
      "note": 49,
      "start": 90.3144,
      "duration": 0.0798,
      "velocity": 95,
      "chip": "ym2612"
    },
    {
      "channel": 0,
      "note": 50,
      "start": 90.3208,
      "duration": 1.9896,
      "velocity": 125,
      "chip": "ym2612"
    },
    {
      "channel": 3,
      "note": 50,
      "start": 90.3234,
      "duration": 0.104,
      "velocity": 92,
      "chip": "ym2612"
    },
    {
      "channel": 1,
      "note": 54,
      "start": 90.3268,
      "duration": 0.2173,
      "velocity": 109,
      "chip": "ym2612"
    },
    {
      "channel": 5,
      "note": 60,
      "start": 90.3296,
      "duration": 0.198,
      "velocity": 109,
      "chip": "ym2612"
    },
    {
      "channel": 4,
      "note": 70,
      "start": 90.3344,
      "duration": 0.6929,
      "velocity": 119,
      "chip": "ym2612"
    },
    {
      "channel": 2,
      "note": 49,
      "start": 90.4479,
      "duration": 0.213,
      "velocity": 95,
      "chip": "ym2612"
    },
    {
      "channel": 3,
      "note": 38,
      "start": 90.451,
      "duration": 0.0933,
      "velocity": 92,
      "chip": "ym2612"
    },
    {
      "channel": 3,
      "note": 50,
      "start": 90.5815,
      "duration": 0.096,
      "velocity": 92,
      "chip": "ym2612"
    },
    {
      "channel": 3,
      "note": 50,
      "start": 90.698,
      "duration": 0.0961,
      "velocity": 92,
      "chip": "ym2612"
    },
    {
      "channel": 5,
      "note": 50,
      "start": 90.7012,
      "duration": 0.2263,
      "velocity": 108,
      "chip": "ym2612"
    },
    {
      "channel": 1,
      "note": 57,
      "start": 90.7041,
      "duration": 0.2066,
      "velocity": 108,
      "chip": "ym2612"
    },
    {
      "channel": 2,
      "note": 43,
      "start": 90.8346,
      "duration": 0.1095,
      "velocity": 125,
      "chip": "ym2612"
    },
    {
      "channel": 3,
      "note": 38,
      "start": 90.8375,
      "duration": 0.0898,
      "velocity": 92,
      "chip": "ym2612"
    },
    {
      "channel": 3,
      "note": 50,
      "start": 90.9491,
      "duration": 0.0949,
      "velocity": 92,
      "chip": "ym2612"
    },
    {
      "channel": 2,
      "note": 49,
      "start": 91.0811,
      "duration": 0.213,
      "velocity": 106,
      "chip": "ym2612"
    },
    {
      "channel": 3,
      "note": 50,
      "start": 91.0863,
      "duration": 0.091,
      "velocity": 92,
      "chip": "ym2612"
    },
    {
      "channel": 1,
      "note": 54,
      "start": 91.0892,
      "duration": 0.188,
      "velocity": 109,
      "chip": "ym2612"
    },
    {
      "channel": 5,
      "note": 60,
      "start": 91.092,
      "duration": 0.1854,
      "velocity": 109,
      "chip": "ym2612"
    },
    {
      "channel": 4,
      "note": 70,
      "start": 91.0956,
      "duration": 0.9817,
      "velocity": 119,
      "chip": "ym2612"
    },
    {
      "channel": 3,
      "note": 38,
      "start": 91.1975,
      "duration": 0.0964,
      "velocity": 92,
      "chip": "ym2612"
    },
    {
      "channel": 3,
      "note": 50,
      "start": 91.3332,
      "duration": 0.094,
      "velocity": 92,
      "chip": "ym2612"
    },
    {
      "channel": 1,
      "note": 50,
      "start": 91.3362,
      "duration": 0.191,
      "velocity": 108,
      "chip": "ym2612"
    },
    {
      "channel": 5,
      "note": 57,
      "start": 91.3389,
      "duration": 0.1885,
      "velocity": 108,
      "chip": "ym2612"
    },
    {
      "channel": 3,
      "note": 50,
      "start": 91.4479,
      "duration": 0.1127,
      "velocity": 92,
      "chip": "ym2612"
    },
    {
      "channel": 2,
      "note": 49,
      "start": 91.5809,
      "duration": 0.0965,
      "velocity": 95,
      "chip": "ym2612"
    },
    {
      "channel": 3,
      "note": 50,
      "start": 91.5866,
      "duration": 0.0907,
      "velocity": 92,
      "chip": "ym2612"
    },
    {
      "channel": 1,
      "note": 39,
      "start": 91.6988,
      "duration": 0.1117,
      "velocity": 125,
      "chip": "ym2612"
    },
    {
      "channel": 3,
      "note": 50,
      "start": 91.7017,
      "duration": 0.109,
      "velocity": 92,
      "chip": "ym2612"
    },
    {
      "channel": 5,
      "note": 57,
      "start": 91.7051,
      "duration": 0.0722,
      "velocity": 108,
      "chip": "ym2612"
    },
    {
      "channel": 2,
      "note": 50,
      "start": 91.7081,
      "duration": 0.0694,
      "velocity": 108,
      "chip": "ym2612"
    },
    {
      "channel": 1,
      "note": 39,
      "start": 91.8362,
      "duration": 0.091,
      "velocity": 125,
      "chip": "ym2612"
    },
    {
      "channel": 3,
      "note": 50,
      "start": 91.8412,
      "duration": 0.0861,
      "velocity": 92,
      "chip": "ym2612"
    },
    {
      "channel": 5,
      "note": 57,
      "start": 91.845,
      "duration": 0.1823,
      "velocity": 109,
      "chip": "ym2612"
    },
    {
      "channel": 2,
      "note": 50,
      "start": 91.8479,
      "duration": 0.1796,
      "velocity": 109,
      "chip": "ym2612"
    },
    {
      "channel": 3,
      "note": 50,
      "start": 91.9492,
      "duration": 0.1115,
      "velocity": 92,
      "chip": "ym2612"
    },
    {
      "channel": 3,
      "note": 50,
      "start": 92.082,
      "duration": 0.0953,
      "velocity": 92,
      "chip": "ym2612"
    },
    {
      "channel": 3,
      "note": 50,
      "start": 92.1985,
      "duration": 0.1121,
      "velocity": 92,
      "chip": "ym2612"
    },
    {
      "channel": 2,
      "note": 49,
      "start": 92.3332,
      "duration": 0.0777,
      "velocity": 95,
      "chip": "ym2612"
    },
    {
      "channel": 0,
      "note": 52,
      "start": 92.3464,
      "duration": 2.4642,
      "velocity": 125,
      "chip": "ym2612"
    },
    {
      "channel": 4,
      "note": 71,
      "start": 92.3543,
      "duration": 1.9566,
      "velocity": 117,
      "chip": "ym2612"
    },
    {
      "channel": 2,
      "note": 49,
      "start": 92.448,
      "duration": 0.2131,
      "velocity": 95,
      "chip": "ym2612"
    },
    {
      "channel": 3,
      "note": 40,
      "start": 92.4516,
      "duration": 0.1092,
      "velocity": 92,
      "chip": "ym2612"
    },
    {
      "channel": 5,
      "note": 40,
      "start": 92.4544,
      "duration": 0.1065,
      "velocity": 109,
      "chip": "ym2612"
    },
    {
      "channel": 3,
      "note": 43,
      "start": 92.5854,
      "duration": 0.0754,
      "velocity": 92,
      "chip": "ym2612"
    },
    {
      "channel": 5,
      "note": 43,
      "start": 92.5882,
      "duration": 0.0727,
      "velocity": 109,
      "chip": "ym2612"
    },
    {
      "channel": 3,
      "note": 42,
      "start": 92.7144,
      "duration": 0.0797,
      "velocity": 92,
      "chip": "ym2612"
    },
    {
      "channel": 5,
      "note": 42,
      "start": 92.717,
      "duration": 0.0773,
      "velocity": 109,
      "chip": "ym2612"
    },
    {
      "channel": 1,
      "note": 43,
      "start": 92.8342,
      "duration": 0.0934,
      "velocity": 125,
      "chip": "ym2612"
    },
    {
      "channel": 3,
      "note": 41,
      "start": 92.8375,
      "duration": 0.0903,
      "velocity": 92,
      "chip": "ym2612"
    },
    {
      "channel": 5,
      "note": 41,
      "start": 92.8408,
      "duration": 0.0871,
      "velocity": 109,
      "chip": "ym2612"
    },
    {
      "channel": 3,
      "note": 39,
      "start": 92.9316,
      "duration": 0.1127,
      "velocity": 92,
      "chip": "ym2612"
    },
    {
      "channel": 5,
      "note": 39,
      "start": 92.9345,
      "duration": 0.11,
      "velocity": 109,
      "chip": "ym2612"
    },
    {
      "channel": 2,
      "note": 49,
      "start": 93.0814,
      "duration": 0.2296,
      "velocity": 106,
      "chip": "ym2612"
    },
    {
      "channel": 3,
      "note": 40,
      "start": 93.087,
      "duration": 0.0906,
      "velocity": 92,
      "chip": "ym2612"
    },
    {
      "channel": 5,
      "note": 40,
      "start": 93.0898,
      "duration": 0.088,
      "velocity": 109,
      "chip": "ym2612"
    },
    {
      "channel": 3,
      "note": 34,
      "start": 93.2163,
      "duration": 0.0943,
      "velocity": 92,
      "chip": "ym2612"
    },
    {
      "channel": 5,
      "note": 34,
      "start": 93.2192,
      "duration": 0.0917,
      "velocity": 109,
      "chip": "ym2612"
    },
    {
      "channel": 3,
      "note": 34,
      "start": 93.4649,
      "duration": 0.0959,
      "velocity": 92,
      "chip": "ym2612"
    },
    {
      "channel": 5,
      "note": 34,
      "start": 93.4678,
      "duration": 0.0932,
      "velocity": 109,
      "chip": "ym2612"
    },
    {
      "channel": 2,
      "note": 49,
      "start": 93.5824,
      "duration": 0.112,
      "velocity": 95,
      "chip": "ym2612"
    },
    {
      "channel": 1,
      "note": 43,
      "start": 93.8364,
      "duration": 0.1244,
      "velocity": 125,
      "chip": "ym2612"
    },
    {
      "channel": 2,
      "note": 49,
      "start": 93.966,
      "duration": 0.195,
      "velocity": 95,
      "chip": "ym2612"
    },
    {
      "channel": 3,
      "note": 38,
      "start": 94.0817,
      "duration": 0.2291,
      "velocity": 92,
      "chip": "ym2612"
    },
    {
      "channel": 5,
      "note": 38,
      "start": 94.0847,
      "duration": 0.2263,
      "velocity": 109,
      "chip": "ym2612"
    },
    {
      "channel": 2,
      "note": 49,
      "start": 94.3313,
      "duration": 0.0797,
      "velocity": 95,
      "chip": "ym2612"
    },
    {
      "channel": 4,
      "note": 71,
      "start": 94.3433,
      "duration": 1.4844,
      "velocity": 117,
      "chip": "ym2612"
    },
    {
      "channel": 2,
      "note": 49,
      "start": 94.4646,
      "duration": 0.1964,
      "velocity": 95,
      "chip": "ym2612"
    },
    {
      "channel": 3,
      "note": 43,
      "start": 94.4684,
      "duration": 0.0758,
      "velocity": 92,
      "chip": "ym2612"
    },
    {
      "channel": 5,
      "note": 43,
      "start": 94.4816,
      "duration": 0.0959,
      "velocity": 109,
      "chip": "ym2612"
    },
    {
      "channel": 3,
      "note": 42,
      "start": 94.7146,
      "duration": 0.0797,
      "velocity": 92,
      "chip": "ym2612"
    },
    {
      "channel": 5,
      "note": 42,
      "start": 94.7179,
      "duration": 0.0765,
      "velocity": 109,
      "chip": "ym2612"
    },
    {
      "channel": 1,
      "note": 43,
      "start": 94.851,
      "duration": 0.1099,
      "velocity": 125,
      "chip": "ym2612"
    },
    {
      "channel": 0,
      "note": 55,
      "start": 94.8542,
      "duration": 0.4564,
      "velocity": 125,
      "chip": "ym2612"
    },
    {
      "channel": 3,
      "note": 41,
      "start": 94.8571,
      "duration": 0.0872,
      "velocity": 92,
      "chip": "ym2612"
    },
    {
      "channel": 5,
      "note": 41,
      "start": 94.8606,
      "duration": 0.0838,
      "velocity": 109,
      "chip": "ym2612"
    },
    {
      "channel": 3,
      "note": 39,
      "start": 94.9482,
      "duration": 0.0961,
      "velocity": 92,
      "chip": "ym2612"
    },
    {
      "channel": 5,
      "note": 39,
      "start": 94.951,
      "duration": 0.0934,
      "velocity": 109,
      "chip": "ym2612"
    },
    {
      "channel": 2,
      "note": 49,
      "start": 95.098,
      "duration": 0.2131,
      "velocity": 106,
      "chip": "ym2612"
    },
    {
      "channel": 3,
      "note": 40,
      "start": 95.104,
      "duration": 0.0902,
      "velocity": 92,
      "chip": "ym2612"
    },
    {
      "channel": 5,
      "note": 40,
      "start": 95.1069,
      "duration": 0.0876,
      "velocity": 109,
      "chip": "ym2612"
    },
    {
      "channel": 3,
      "note": 34,
      "start": 95.2166,
      "duration": 0.0942,
      "velocity": 92,
      "chip": "ym2612"
    },
    {
      "channel": 5,
      "note": 34,
      "start": 95.2195,
      "duration": 0.0915,
      "velocity": 109,
      "chip": "ym2612"
    },
    {
      "channel": 0,
      "note": 54,
      "start": 95.3494,
      "duration": 0.4779,
      "velocity": 125,
      "chip": "ym2612"
    },
    {
      "channel": 2,
      "note": 49,
      "start": 95.598,
      "duration": 0.0963,
      "velocity": 95,
      "chip": "ym2612"
    },
    {
      "channel": 1,
      "note": 39,
      "start": 95.7154,
      "duration": 0.1121,
      "velocity": 125,
      "chip": "ym2612"
    },
    {
      "channel": 1,
      "note": 39,
      "start": 95.8539,
      "duration": 0.0901,
      "velocity": 125,
      "chip": "ym2612"
    },
    {
      "channel": 0,
      "note": 52,
      "start": 95.8574,
      "duration": 0.4866,
      "velocity": 125,
      "chip": "ym2612"
    },
    {
      "channel": 4,
      "note": 69,
      "start": 95.8628,
      "duration": 0.4647,
      "velocity": 117,
      "chip": "ym2612"
    },
    {
      "channel": 2,
      "note": 81,
      "start": 95.9662,
      "duration": 0.328,
      "velocity": 104,
      "chip": "ym2612"
    },
    {
      "channel": 3,
      "note": 38,
      "start": 96.0982,
      "duration": 0.2291,
      "velocity": 92,
      "chip": "ym2612"
    },
    {
      "channel": 5,
      "note": 38,
      "start": 96.1012,
      "duration": 0.2265,
      "velocity": 109,
      "chip": "ym2612"
    },
    {
      "channel": 2,
      "note": 49,
      "start": 96.3502,
      "duration": 0.0773,
      "velocity": 95,
      "chip": "ym2612"
    },
    {
      "channel": 0,
      "note": 48,
      "start": 96.3623,
      "duration": 1.9648,
      "velocity": 125,
      "chip": "ym2612"
    },
    {
      "channel": 3,
      "note": 48,
      "start": 96.3651,
      "duration": 0.0788,
      "velocity": 92,
      "chip": "ym2612"
    },
    {
      "channel": 5,
      "note": 58,
      "start": 96.3698,
      "duration": 0.2076,
      "velocity": 109,
      "chip": "ym2612"
    },
    {
      "channel": 1,
      "note": 51,
      "start": 96.3728,
      "duration": 0.1712,
      "velocity": 109,
      "chip": "ym2612"
    },
    {
      "channel": 4,
      "note": 63,
      "start": 96.3765,
      "duration": 1.9341,
      "velocity": 117,
      "chip": "ym2612"
    },
    {
      "channel": 2,
      "note": 49,
      "start": 96.4644,
      "duration": 0.213,
      "velocity": 95,
      "chip": "ym2612"
    },
    {
      "channel": 3,
      "note": 48,
      "start": 96.4679,
      "duration": 0.1094,
      "velocity": 92,
      "chip": "ym2612"
    },
    {
      "channel": 3,
      "note": 36,
      "start": 96.6014,
      "duration": 0.0925,
      "velocity": 92,
      "chip": "ym2612"
    },
    {
      "channel": 3,
      "note": 48,
      "start": 96.7142,
      "duration": 0.1131,
      "velocity": 92,
      "chip": "ym2612"
    },
    {
      "channel": 1,
      "note": 55,
      "start": 96.7174,
      "duration": 0.2265,
      "velocity": 108,
      "chip": "ym2612"
    },
    {
      "channel": 5,
      "note": 48,
      "start": 96.7204,
      "duration": 0.2071,
      "velocity": 108,
      "chip": "ym2612"
    },
    {
      "channel": 2,
      "note": 43,
      "start": 96.8516,
      "duration": 0.1258,
      "velocity": 125,
      "chip": "ym2612"
    },
    {
      "channel": 3,
      "note": 48,
      "start": 96.8544,
      "duration": 0.0896,
      "velocity": 92,
      "chip": "ym2612"
    },
    {
      "channel": 3,
      "note": 36,
      "start": 96.981,
      "duration": 0.0962,
      "velocity": 92,
      "chip": "ym2612"
    },
    {
      "channel": 2,
      "note": 49,
      "start": 97.0977,
      "duration": 0.2298,
      "velocity": 106,
      "chip": "ym2612"
    },
    {
      "channel": 3,
      "note": 48,
      "start": 97.1032,
      "duration": 0.0909,
      "velocity": 92,
      "chip": "ym2612"
    },
    {
      "channel": 5,
      "note": 51,
      "start": 97.1061,
      "duration": 0.2048,
      "velocity": 109,
      "chip": "ym2612"
    },
    {
      "channel": 1,
      "note": 58,
      "start": 97.1088,
      "duration": 0.2018,
      "velocity": 109,
      "chip": "ym2612"
    },
    {
      "channel": 3,
      "note": 48,
      "start": 97.2329,
      "duration": 0.0944,
      "velocity": 92,
      "chip": "ym2612"
    },
    {
      "channel": 3,
      "note": 36,
      "start": 97.3498,
      "duration": 0.0943,
      "velocity": 92,
      "chip": "ym2612"
    },
    {
      "channel": 1,
      "note": 48,
      "start": 97.3527,
      "duration": 0.2079,
      "velocity": 108,
      "chip": "ym2612"
    },
    {
      "channel": 5,
      "note": 55,
      "start": 97.3555,
      "duration": 0.2054,
      "velocity": 108,
      "chip": "ym2612"
    },
    {
      "channel": 3,
      "note": 48,
      "start": 97.4809,
      "duration": 0.0965,
      "velocity": 92,
      "chip": "ym2612"
    },
    {
      "channel": 2,
      "note": 49,
      "start": 97.599,
      "duration": 0.0951,
      "velocity": 95,
      "chip": "ym2612"
    },
    {
      "channel": 3,
      "note": 48,
      "start": 97.6058,
      "duration": 0.0881,
      "velocity": 92,
      "chip": "ym2612"
    },
    {
      "channel": 3,
      "note": 36,
      "start": 97.7307,
      "duration": 0.0964,
      "velocity": 92,
      "chip": "ym2612"
    },
    {
      "channel": 1,
      "note": 43,
      "start": 97.8529,
      "duration": 0.1244,
      "velocity": 125,
      "chip": "ym2612"
    },
    {
      "channel": 3,
      "note": 48,
      "start": 97.8563,
      "duration": 0.1043,
      "velocity": 92,
      "chip": "ym2612"
    },
    {
      "channel": 5,
      "note": 48,
      "start": 97.8602,
      "duration": 0.1006,
      "velocity": 108,
      "chip": "ym2612"
    },
    {
      "channel": 2,
      "note": 55,
      "start": 97.8631,
      "duration": 0.0978,
      "velocity": 108,
      "chip": "ym2612"
    },
    {
      "channel": 2,
      "note": 49,
      "start": 97.9824,
      "duration": 0.195,
      "velocity": 95,
      "chip": "ym2612"
    },
    {
      "channel": 3,
      "note": 48,
      "start": 97.9855,
      "duration": 0.0918,
      "velocity": 92,
      "chip": "ym2612"
    },
    {
      "channel": 5,
      "note": 48,
      "start": 97.9885,
      "duration": 0.2723,
      "velocity": 109,
      "chip": "ym2612"
    },
    {
      "channel": 1,
      "note": 55,
      "start": 97.9917,
      "duration": 0.2689,
      "velocity": 109,
      "chip": "ym2612"
    },
    {
      "channel": 3,
      "note": 36,
      "start": 98.0976,
      "duration": 0.113,
      "velocity": 92,
      "chip": "ym2612"
    },
    {
      "channel": 3,
      "note": 48,
      "start": 98.2325,
      "duration": 0.0948,
      "velocity": 92,
      "chip": "ym2612"
    },
    {
      "channel": 2,
      "note": 49,
      "start": 98.3477,
      "duration": 0.0797,
      "velocity": 95,
      "chip": "ym2612"
    },
    {
      "channel": 0,
      "note": 50,
      "start": 98.3569,
      "duration": 1.9868,
      "velocity": 125,
      "chip": "ym2612"
    },
    {
      "channel": 3,
      "note": 50,
      "start": 98.36,
      "duration": 0.1005,
      "velocity": 92,
      "chip": "ym2612"
    },
    {
      "channel": 1,
      "note": 53,
      "start": 98.363,
      "duration": 0.2142,
      "velocity": 109,
      "chip": "ym2612"
    },
    {
      "channel": 5,
      "note": 60,
      "start": 98.3658,
      "duration": 0.1949,
      "velocity": 109,
      "chip": "ym2612"
    },
    {
      "channel": 4,
      "note": 62,
      "start": 98.3689,
      "duration": 1.0751,
      "velocity": 117,
      "chip": "ym2612"
    },
    {
      "channel": 2,
      "note": 49,
      "start": 98.481,
      "duration": 0.1963,
      "velocity": 95,
      "chip": "ym2612"
    },
    {
      "channel": 3,
      "note": 38,
      "start": 98.4845,
      "duration": 0.0928,
      "velocity": 92,
      "chip": "ym2612"
    },
    {
      "channel": 3,
      "note": 50,
      "start": 98.6012,
      "duration": 0.1094,
      "velocity": 92,
      "chip": "ym2612"
    },
    {
      "channel": 3,
      "note": 50,
      "start": 98.7308,
      "duration": 0.0964,
      "velocity": 92,
      "chip": "ym2612"
    },
    {
      "channel": 5,
      "note": 57,
      "start": 98.734,
      "duration": 0.2269,
      "velocity": 108,
      "chip": "ym2612"
    },
    {
      "channel": 1,
      "note": 53,
      "start": 98.7369,
      "duration": 0.1903,
      "velocity": 108,
      "chip": "ym2612"
    },
    {
      "channel": 2,
      "note": 43,
      "start": 98.8511,
      "duration": 0.1263,
      "velocity": 125,
      "chip": "ym2612"
    },
    {
      "channel": 3,
      "note": 38,
      "start": 98.8539,
      "duration": 0.1067,
      "velocity": 92,
      "chip": "ym2612"
    },
    {
      "channel": 3,
      "note": 50,
      "start": 98.981,
      "duration": 0.0964,
      "velocity": 92,
      "chip": "ym2612"
    },
    {
      "channel": 2,
      "note": 49,
      "start": 99.1144,
      "duration": 0.2131,
      "velocity": 106,
      "chip": "ym2612"
    },
    {
      "channel": 3,
      "note": 50,
      "start": 99.1198,
      "duration": 0.0908,
      "velocity": 92,
      "chip": "ym2612"
    },
    {
      "channel": 1,
      "note": 53,
      "start": 99.1228,
      "duration": 0.1877,
      "velocity": 109,
      "chip": "ym2612"
    },
    {
      "channel": 5,
      "note": 60,
      "start": 99.1255,
      "duration": 0.1852,
      "velocity": 109,
      "chip": "ym2612"
    },
    {
      "channel": 3,
      "note": 38,
      "start": 99.2329,
      "duration": 0.0944,
      "velocity": 92,
      "chip": "ym2612"
    },
    {
      "channel": 3,
      "note": 50,
      "start": 99.3664,
      "duration": 0.0943,
      "velocity": 92,
      "chip": "ym2612"
    },
    {
      "channel": 1,
      "note": 57,
      "start": 99.3694,
      "duration": 0.1911,
      "velocity": 108,
      "chip": "ym2612"
    },
    {
      "channel": 5,
      "note": 53,
      "start": 99.3721,
      "duration": 0.1886,
      "velocity": 108,
      "chip": "ym2612"
    },
    {
      "channel": 3,
      "note": 50,
      "start": 99.4808,
      "duration": 0.0965,
      "velocity": 92,
      "chip": "ym2612"
    },
    {
      "channel": 4,
      "note": 65,
      "start": 99.4839,
      "duration": 0.1267,
      "velocity": 117,
      "chip": "ym2612"
    },
    {
      "channel": 2,
      "note": 49,
      "start": 99.6144,
      "duration": 0.0964,
      "velocity": 95,
      "chip": "ym2612"
    },
    {
      "channel": 3,
      "note": 50,
      "start": 99.6212,
      "duration": 0.0894,
      "velocity": 92,
      "chip": "ym2612"
    },
    {
      "channel": 4,
      "note": 67,
      "start": 99.6245,
      "duration": 0.1028,
      "velocity": 117,
      "chip": "ym2612"
    },
    {
      "channel": 1,
      "note": 39,
      "start": 99.7322,
      "duration": 0.0949,
      "velocity": 125,
      "chip": "ym2612"
    },
    {
      "channel": 3,
      "note": 50,
      "start": 99.7352,
      "duration": 0.0921,
      "velocity": 92,
      "chip": "ym2612"
    },
    {
      "channel": 5,
      "note": 57,
      "start": 99.7387,
      "duration": 0.072,
      "velocity": 108,
      "chip": "ym2612"
    },
    {
      "channel": 2,
      "note": 50,
      "start": 99.7414,
      "duration": 0.0694,
      "velocity": 108,
      "chip": "ym2612"
    },
    {
      "channel": 4,
      "note": 68,
      "start": 99.7446,
      "duration": 0.116,
      "velocity": 117,
      "chip": "ym2612"
    },
    {
      "channel": 1,
      "note": 39,
      "start": 99.8703,
      "duration": 0.0903,
      "velocity": 125,
      "chip": "ym2612"
    },
    {
      "channel": 3,
      "note": 50,
      "start": 99.8737,
      "duration": 0.0871,
      "velocity": 92,
      "chip": "ym2612"
    },
    {
      "channel": 5,
      "note": 57,
      "start": 99.8771,
      "duration": 0.1836,
      "velocity": 109,
      "chip": "ym2612"
    },
    {
      "channel": 2,
      "note": 50,
      "start": 99.88,
      "duration": 0.1809,
      "velocity": 109,
      "chip": "ym2612"
    },
    {
      "channel": 4,
      "note": 70,
      "start": 99.8827,
      "duration": 0.0946,
      "velocity": 117,
      "chip": "ym2612"
    },
    {
      "channel": 3,
      "note": 50,
      "start": 99.981,
      "duration": 0.1129,
      "velocity": 92,
      "chip": "ym2612"
    },
    {
      "channel": 4,
      "note": 71,
      "start": 99.9839,
      "duration": 0.1268,
      "velocity": 117,
      "chip": "ym2612"
    },
    {
      "channel": 3,
      "note": 50,
      "start": 100.1145,
      "duration": 0.0962,
      "velocity": 92,
      "chip": "ym2612"
    },
    {
      "channel": 4,
      "note": 73,
      "start": 100.1174,
      "duration": 0.1099,
      "velocity": 117,
      "chip": "ym2612"
    },
    {
      "channel": 3,
      "note": 50,
      "start": 100.2326,
      "duration": 0.1113,
      "velocity": 92,
      "chip": "ym2612"
    },
    {
      "channel": 4,
      "note": 74,
      "start": 100.2355,
      "duration": 0.1251,
      "velocity": 117,
      "chip": "ym2612"
    },
    {
      "channel": 2,
      "note": 49,
      "start": 100.3668,
      "duration": 0.0772,
      "velocity": 95,
      "chip": "ym2612"
    },
    {
      "channel": 0,
      "note": 49,
      "start": 100.3788,
      "duration": 1.965,
      "velocity": 125,
      "chip": "ym2612"
    },
    {
      "channel": 3,
      "note": 49,
      "start": 100.3813,
      "duration": 0.0793,
      "velocity": 92,
      "chip": "ym2612"
    },
    {
      "channel": 5,
      "note": 58,
      "start": 100.3847,
      "duration": 0.2093,
      "velocity": 109,
      "chip": "ym2612"
    },
    {
      "channel": 1,
      "note": 52,
      "start": 100.3876,
      "duration": 0.1728,
      "velocity": 109,
      "chip": "ym2612"
    },
    {
      "channel": 4,
      "note": 76,
      "start": 100.3909,
      "duration": 3.4532,
      "velocity": 117,
      "chip": "ym2612"
    },
    {
      "channel": 2,
      "note": 49,
      "start": 100.481,
      "duration": 0.213,
      "velocity": 95,
      "chip": "ym2612"
    },
    {
      "channel": 3,
      "note": 37,
      "start": 100.4845,
      "duration": 0.1094,
      "velocity": 92,
      "chip": "ym2612"
    },
    {
      "channel": 3,
      "note": 49,
      "start": 100.618,
      "duration": 0.0925,
      "velocity": 92,
      "chip": "ym2612"
    },
    {
      "channel": 3,
      "note": 49,
      "start": 100.7307,
      "duration": 0.1132,
      "velocity": 92,
      "chip": "ym2612"
    },
    {
      "channel": 1,
      "note": 56,
      "start": 100.7339,
      "duration": 0.2267,
      "velocity": 108,
      "chip": "ym2612"
    },
    {
      "channel": 5,
      "note": 49,
      "start": 100.7368,
      "duration": 0.2073,
      "velocity": 108,
      "chip": "ym2612"
    },
    {
      "channel": 2,
      "note": 43,
      "start": 100.8676,
      "duration": 0.1099,
      "velocity": 125,
      "chip": "ym2612"
    },
    {
      "channel": 3,
      "note": 37,
      "start": 100.8705,
      "duration": 0.0902,
      "velocity": 92,
      "chip": "ym2612"
    },
    {
      "channel": 3,
      "note": 49,
      "start": 100.9811,
      "duration": 0.1128,
      "velocity": 92,
      "chip": "ym2612"
    },
    {
      "channel": 2,
      "note": 49,
      "start": 101.1144,
      "duration": 0.2297,
      "velocity": 106,
      "chip": "ym2612"
    },
    {
      "channel": 3,
      "note": 49,
      "start": 101.1199,
      "duration": 0.0907,
      "velocity": 92,
      "chip": "ym2612"
    },
    {
      "channel": 5,
      "note": 52,
      "start": 101.1228,
      "duration": 0.2047,
      "velocity": 109,
      "chip": "ym2612"
    },
    {
      "channel": 1,
      "note": 58,
      "start": 101.1256,
      "duration": 0.2017,
      "velocity": 109,
      "chip": "ym2612"
    },
    {
      "channel": 3,
      "note": 37,
      "start": 101.2495,
      "duration": 0.0944,
      "velocity": 92,
      "chip": "ym2612"
    },
    {
      "channel": 3,
      "note": 49,
      "start": 101.3663,
      "duration": 0.0941,
      "velocity": 92,
      "chip": "ym2612"
    },
    {
      "channel": 1,
      "note": 49,
      "start": 101.3693,
      "duration": 0.2079,
      "velocity": 108,
      "chip": "ym2612"
    },
    {
      "channel": 5,
      "note": 56,
      "start": 101.3721,
      "duration": 0.2054,
      "velocity": 108,
      "chip": "ym2612"
    },
    {
      "channel": 3,
      "note": 49,
      "start": 101.4975,
      "duration": 0.0964,
      "velocity": 92,
      "chip": "ym2612"
    },
    {
      "channel": 2,
      "note": 49,
      "start": 101.6155,
      "duration": 0.0954,
      "velocity": 95,
      "chip": "ym2612"
    },
    {
      "channel": 3,
      "note": 49,
      "start": 101.6222,
      "duration": 0.0884,
      "velocity": 92,
      "chip": "ym2612"
    },
    {
      "channel": 3,
      "note": 49,
      "start": 101.7474,
      "duration": 0.0964,
      "velocity": 92,
      "chip": "ym2612"
    },
    {
      "channel": 1,
      "note": 43,
      "start": 101.8695,
      "duration": 0.1244,
      "velocity": 125,
      "chip": "ym2612"
    },
    {
      "channel": 3,
      "note": 49,
      "start": 101.873,
      "duration": 0.0876,
      "velocity": 92,
      "chip": "ym2612"
    },
    {
      "channel": 5,
      "note": 49,
      "start": 101.8765,
      "duration": 0.0843,
      "velocity": 108,
      "chip": "ym2612"
    },
    {
      "channel": 2,
      "note": 56,
      "start": 101.8798,
      "duration": 0.0812,
      "velocity": 108,
      "chip": "ym2612"
    },
    {
      "channel": 2,
      "note": 49,
      "start": 101.999,
      "duration": 0.195,
      "velocity": 95,
      "chip": "ym2612"
    },
    {
      "channel": 3,
      "note": 49,
      "start": 102.0022,
      "duration": 0.0918,
      "velocity": 92,
      "chip": "ym2612"
    },
    {
      "channel": 5,
      "note": 52,
      "start": 102.0052,
      "duration": 0.2723,
      "velocity": 109,
      "chip": "ym2612"
    },
    {
      "channel": 1,
      "note": 56,
      "start": 102.008,
      "duration": 0.2693,
      "velocity": 109,
      "chip": "ym2612"
    },
    {
      "channel": 3,
      "note": 49,
      "start": 102.1143,
      "duration": 0.1129,
      "velocity": 92,
      "chip": "ym2612"
    },
    {
      "channel": 3,
      "note": 49,
      "start": 102.2492,
      "duration": 0.0948,
      "velocity": 92,
      "chip": "ym2612"
    },
    {
      "channel": 2,
      "note": 49,
      "start": 102.3644,
      "duration": 0.0797,
      "velocity": 95,
      "chip": "ym2612"
    },
    {
      "channel": 0,
      "note": 49,
      "start": 102.3737,
      "duration": 1.9867,
      "velocity": 125,
      "chip": "ym2612"
    },
    {
      "channel": 3,
      "note": 49,
      "start": 102.3768,
      "duration": 0.1004,
      "velocity": 92,
      "chip": "ym2612"
    },
    {
      "channel": 1,
      "note": 52,
      "start": 102.3801,
      "duration": 0.2137,
      "velocity": 109,
      "chip": "ym2612"
    },
    {
      "channel": 5,
      "note": 58,
      "start": 102.3829,
      "duration": 0.1943,
      "velocity": 109,
      "chip": "ym2612"
    },
    {
      "channel": 2,
      "note": 49,
      "start": 102.4977,
      "duration": 0.1964,
      "velocity": 95,
      "chip": "ym2612"
    },
    {
      "channel": 3,
      "note": 37,
      "start": 102.5008,
      "duration": 0.0931,
      "velocity": 92,
      "chip": "ym2612"
    },
    {
      "channel": 3,
      "note": 49,
      "start": 102.6146,
      "duration": 0.1127,
      "velocity": 92,
      "chip": "ym2612"
    },
    {
      "channel": 3,
      "note": 49,
      "start": 102.7482,
      "duration": 0.0956,
      "velocity": 92,
      "chip": "ym2612"
    },
    {
      "channel": 5,
      "note": 52,
      "start": 102.7514,
      "duration": 0.2261,
      "velocity": 108,
      "chip": "ym2612"
    },
    {
      "channel": 1,
      "note": 56,
      "start": 102.7543,
      "duration": 0.1896,
      "velocity": 108,
      "chip": "ym2612"
    },
    {
      "channel": 2,
      "note": 43,
      "start": 102.8677,
      "duration": 0.1265,
      "velocity": 125,
      "chip": "ym2612"
    },
    {
      "channel": 3,
      "note": 37,
      "start": 102.8705,
      "duration": 0.1067,
      "velocity": 92,
      "chip": "ym2612"
    },
    {
      "channel": 3,
      "note": 49,
      "start": 102.9987,
      "duration": 0.0952,
      "velocity": 92,
      "chip": "ym2612"
    },
    {
      "channel": 2,
      "note": 49,
      "start": 103.1144,
      "duration": 0.2298,
      "velocity": 106,
      "chip": "ym2612"
    },
    {
      "channel": 3,
      "note": 49,
      "start": 103.1191,
      "duration": 0.1081,
      "velocity": 92,
      "chip": "ym2612"
    },
    {
      "channel": 1,
      "note": 52,
      "start": 103.1221,
      "duration": 0.2051,
      "velocity": 109,
      "chip": "ym2612"
    },
    {
      "channel": 5,
      "note": 58,
      "start": 103.1248,
      "duration": 0.2026,
      "velocity": 109,
      "chip": "ym2612"
    },
    {
      "channel": 3,
      "note": 37,
      "start": 103.2475,
      "duration": 0.0964,
      "velocity": 92,
      "chip": "ym2612"
    },
    {
      "channel": 3,
      "note": 49,
      "start": 103.3836,
      "duration": 0.0937,
      "velocity": 92,
      "chip": "ym2612"
    },
    {
      "channel": 1,
      "note": 52,
      "start": 103.3866,
      "duration": 0.1905,
      "velocity": 108,
      "chip": "ym2612"
    },
    {
      "channel": 5,
      "note": 56,
      "start": 103.3893,
      "duration": 0.188,
      "velocity": 108,
      "chip": "ym2612"
    },
    {
      "channel": 3,
      "note": 49,
      "start": 103.498,
      "duration": 0.0959,
      "velocity": 92,
      "chip": "ym2612"
    },
    {
      "channel": 2,
      "note": 49,
      "start": 103.631,
      "duration": 0.0964,
      "velocity": 95,
      "chip": "ym2612"
    },
    {
      "channel": 3,
      "note": 49,
      "start": 103.6367,
      "duration": 0.0905,
      "velocity": 92,
      "chip": "ym2612"
    },
    {
      "channel": 1,
      "note": 39,
      "start": 103.7484,
      "duration": 0.0955,
      "velocity": 125,
      "chip": "ym2612"
    },
    {
      "channel": 3,
      "note": 49,
      "start": 103.7513,
      "duration": 0.0927,
      "velocity": 92,
      "chip": "ym2612"
    },
    {
      "channel": 5,
      "note": 56,
      "start": 103.7544,
      "duration": 0.0729,
      "velocity": 108,
      "chip": "ym2612"
    },
    {
      "channel": 2,
      "note": 49,
      "start": 103.7576,
      "duration": 0.0698,
      "velocity": 108,
      "chip": "ym2612"
    },
    {
      "channel": 1,
      "note": 39,
      "start": 103.8866,
      "duration": 0.0907,
      "velocity": 125,
      "chip": "ym2612"
    },
    {
      "channel": 3,
      "note": 49,
      "start": 103.8917,
      "duration": 0.0858,
      "velocity": 92,
      "chip": "ym2612"
    },
    {
      "channel": 5,
      "note": 56,
      "start": 103.8952,
      "duration": 0.1822,
      "velocity": 109,
      "chip": "ym2612"
    },
    {
      "channel": 2,
      "note": 52,
      "start": 103.898,
      "duration": 0.1004,
      "velocity": 109,
      "chip": "ym2612"
    },
    {
      "channel": 2,
      "note": 81,
      "start": 104.0004,
      "duration": 0.327,
      "velocity": 104,
      "chip": "ym2612"
    },
    {
      "channel": 3,
      "note": 49,
      "start": 104.0041,
      "duration": 0.0898,
      "velocity": 92,
      "chip": "ym2612"
    },
    {
      "channel": 3,
      "note": 49,
      "start": 104.1318,
      "duration": 0.0955,
      "velocity": 92,
      "chip": "ym2612"
    },
    {
      "channel": 3,
      "note": 49,
      "start": 104.248,
      "duration": 0.1127,
      "velocity": 92,
      "chip": "ym2612"
    },
    {
      "channel": 2,
      "note": 49,
      "start": 104.3952,
      "duration": 0.0823,
      "velocity": 106,
      "chip": "ym2612"
    },
    {
      "channel": 3,
      "note": 42,
      "start": 104.398,
      "duration": 0.0461,
      "velocity": 92,
      "chip": "ym2612"
    },
    {
      "channel": 4,
      "note": 49,
      "start": 104.4025,
      "duration": 0.1417,
      "velocity": 108,
      "chip": "ym2612"
    },
    {
      "channel": 1,
      "note": 42,
      "start": 104.4052,
      "duration": 0.1387,
      "velocity": 108,
      "chip": "ym2612"
    },
    {
      "channel": 3,
      "note": 42,
      "start": 104.4975,
      "duration": 0.0632,
      "velocity": 92,
      "chip": "ym2612"
    },
    {
      "channel": 5,
      "note": 44,
      "start": 104.6312,
      "duration": 0.1129,
      "velocity": 125,
      "chip": "ym2612"
    },
    {
      "channel": 3,
      "note": 42,
      "start": 104.6346,
      "duration": 0.0594,
      "velocity": 92,
      "chip": "ym2612"
    },
    {
      "channel": 0,
      "note": 49,
      "start": 104.638,
      "duration": 0.0725,
      "velocity": 109,
      "chip": "ym2612"
    },
    {
      "channel": 2,
      "note": 42,
      "start": 104.6408,
      "duration": 0.07,
      "velocity": 109,
      "chip": "ym2612"
    },
    {
      "channel": 2,
      "note": 49,
      "start": 104.7504,
      "duration": 0.1104,
      "velocity": 106,
      "chip": "ym2612"
    },
    {
      "channel": 3,
      "note": 42,
      "start": 104.753,
      "duration": 0.0577,
      "velocity": 92,
      "chip": "ym2612"
    },
    {
      "channel": 1,
      "note": 49,
      "start": 104.7559,
      "duration": 0.1382,
      "velocity": 108,
      "chip": "ym2612"
    },
    {
      "channel": 4,
      "note": 42,
      "start": 104.7586,
      "duration": 0.1357,
      "velocity": 108,
      "chip": "ym2612"
    },
    {
      "channel": 3,
      "note": 42,
      "start": 104.881,
      "duration": 0.063,
      "velocity": 92,
      "chip": "ym2612"
    },
    {
      "channel": 2,
      "note": 49,
      "start": 105.0002,
      "duration": 0.1107,
      "velocity": 106,
      "chip": "ym2612"
    },
    {
      "channel": 3,
      "note": 42,
      "start": 105.0028,
      "duration": 0.058,
      "velocity": 92,
      "chip": "ym2612"
    },
    {
      "channel": 1,
      "note": 49,
      "start": 105.0061,
      "duration": 0.1045,
      "velocity": 108,
      "chip": "ym2612"
    },
    {
      "channel": 4,
      "note": 42,
      "start": 105.0088,
      "duration": 0.102,
      "velocity": 108,
      "chip": "ym2612"
    },
    {
      "channel": 3,
      "note": 42,
      "start": 105.1309,
      "duration": 0.0632,
      "velocity": 92,
      "chip": "ym2612"
    },
    {
      "channel": 2,
      "note": 49,
      "start": 105.2515,
      "duration": 0.1095,
      "velocity": 106,
      "chip": "ym2612"
    },
    {
      "channel": 3,
      "note": 42,
      "start": 105.2546,
      "duration": 0.0562,
      "velocity": 92,
      "chip": "ym2612"
    },
    {
      "channel": 1,
      "note": 49,
      "start": 105.2574,
      "duration": 0.1032,
      "velocity": 108,
      "chip": "ym2612"
    },
    {
      "channel": 4,
      "note": 42,
      "start": 105.2606,
      "duration": 0.1002,
      "velocity": 108,
      "chip": "ym2612"
    },
    {
      "channel": 5,
      "note": 44,
      "start": 105.3809,
      "duration": 0.1299,
      "velocity": 125,
      "chip": "ym2612"
    },
    {
      "channel": 0,
      "note": 49,
      "start": 105.3863,
      "duration": 0.2244,
      "velocity": 109,
      "chip": "ym2612"
    },
    {
      "channel": 3,
      "note": 42,
      "start": 105.3891,
      "duration": 0.2218,
      "velocity": 109,
      "chip": "ym2612"
    },
    {
      "channel": 1,
      "note": 42,
      "start": 105.6337,
      "duration": 0.0603,
      "velocity": 92,
      "chip": "ym2612"
    },
    {
      "channel": 4,
      "note": 49,
      "start": 105.6366,
      "duration": 0.0909,
      "velocity": 108,
      "chip": "ym2612"
    },
    {
      "channel": 2,
      "note": 42,
      "start": 105.6394,
      "duration": 0.0883,
      "velocity": 108,
      "chip": "ym2612"
    },
    {
      "channel": 1,
      "note": 42,
      "start": 105.7663,
      "duration": 0.0443,
      "velocity": 92,
      "chip": "ym2612"
    },
    {
      "channel": 4,
      "note": 49,
      "start": 105.7691,
      "duration": 0.0917,
      "velocity": 108,
      "chip": "ym2612"
    },
    {
      "channel": 2,
      "note": 42,
      "start": 105.7723,
      "duration": 0.0887,
      "velocity": 108,
      "chip": "ym2612"
    },
    {
      "channel": 5,
      "note": 44,
      "start": 105.881,
      "duration": 0.1298,
      "velocity": 125,
      "chip": "ym2612"
    },
    {
      "channel": 2,
      "note": 49,
      "start": 105.8849,
      "duration": 0.0929,
      "velocity": 106,
      "chip": "ym2612"
    },
    {
      "channel": 1,
      "note": 42,
      "start": 105.8873,
      "duration": 0.0567,
      "velocity": 92,
      "chip": "ym2612"
    },
    {
      "channel": 0,
      "note": 49,
      "start": 105.8901,
      "duration": 0.0871,
      "velocity": 109,
      "chip": "ym2612"
    },
    {
      "channel": 3,
      "note": 42,
      "start": 105.8933,
      "duration": 0.0842,
      "velocity": 109,
      "chip": "ym2612"
    },
    {
      "channel": 1,
      "note": 42,
      "start": 106.0142,
      "duration": 0.0464,
      "velocity": 92,
      "chip": "ym2612"
    },
    {
      "channel": 0,
      "note": 49,
      "start": 106.0172,
      "duration": 0.0934,
      "velocity": 109,
      "chip": "ym2612"
    },
    {
      "channel": 3,
      "note": 42,
      "start": 106.0198,
      "duration": 0.091,
      "velocity": 109,
      "chip": "ym2612"
    },
    {
      "channel": 5,
      "note": 44,
      "start": 106.1331,
      "duration": 0.1277,
      "velocity": 125,
      "chip": "ym2612"
    },
    {
      "channel": 2,
      "note": 49,
      "start": 106.1368,
      "duration": 0.0907,
      "velocity": 106,
      "chip": "ym2612"
    },
    {
      "channel": 1,
      "note": 42,
      "start": 106.1395,
      "duration": 0.0545,
      "velocity": 92,
      "chip": "ym2612"
    },
    {
      "channel": 4,
      "note": 49,
      "start": 106.1431,
      "duration": 0.0678,
      "velocity": 108,
      "chip": "ym2612"
    },
    {
      "channel": 0,
      "note": 42,
      "start": 106.1459,
      "duration": 0.0647,
      "velocity": 108,
      "chip": "ym2612"
    },
    {
      "channel": 3,
      "note": 49,
      "start": 106.2648,
      "duration": 0.1961,
      "velocity": 109,
      "chip": "ym2612"
    },
    {
      "channel": 1,
      "note": 42,
      "start": 106.2676,
      "duration": 0.1931,
      "velocity": 109,
      "chip": "ym2612"
    },
    {
      "channel": 2,
      "note": 49,
      "start": 106.3838,
      "duration": 0.1104,
      "velocity": 106,
      "chip": "ym2612"
    },
    {
      "channel": 5,
      "note": 44,
      "start": 106.5167,
      "duration": 0.111,
      "velocity": 125,
      "chip": "ym2612"
    },
    {
      "channel": 0,
      "note": 42,
      "start": 106.52,
      "duration": 0.0572,
      "velocity": 92,
      "chip": "ym2612"
    },
    {
      "channel": 4,
      "note": 49,
      "start": 106.5232,
      "duration": 0.1044,
      "velocity": 108,
      "chip": "ym2612"
    },
    {
      "channel": 1,
      "note": 42,
      "start": 106.5264,
      "duration": 0.101,
      "velocity": 108,
      "chip": "ym2612"
    },
    {
      "channel": 0,
      "note": 42,
      "start": 106.6312,
      "duration": 0.0628,
      "velocity": 92,
      "chip": "ym2612"
    },
    {
      "channel": 3,
      "note": 49,
      "start": 106.6341,
      "duration": 0.1098,
      "velocity": 109,
      "chip": "ym2612"
    },
    {
      "channel": 2,
      "note": 42,
      "start": 106.6369,
      "duration": 0.1073,
      "velocity": 109,
      "chip": "ym2612"
    },
    {
      "channel": 2,
      "note": 49,
      "start": 106.7667,
      "duration": 0.0942,
      "velocity": 106,
      "chip": "ym2612"
    },
    {
      "channel": 0,
      "note": 42,
      "start": 106.7691,
      "duration": 0.0581,
      "velocity": 92,
      "chip": "ym2612"
    },
    {
      "channel": 1,
      "note": 49,
      "start": 106.7719,
      "duration": 0.1054,
      "velocity": 108,
      "chip": "ym2612"
    },
    {
      "channel": 4,
      "note": 42,
      "start": 106.7746,
      "duration": 0.1029,
      "velocity": 108,
      "chip": "ym2612"
    },
    {
      "channel": 5,
      "note": 44,
      "start": 106.8815,
      "duration": 0.1293,
      "velocity": 125,
      "chip": "ym2612"
    },
    {
      "channel": 0,
      "note": 42,
      "start": 106.8847,
      "duration": 0.0593,
      "velocity": 92,
      "chip": "ym2612"
    },
    {
      "channel": 3,
      "note": 49,
      "start": 106.8874,
      "duration": 0.1066,
      "velocity": 109,
      "chip": "ym2612"
    },
    {
      "channel": 2,
      "note": 42,
      "start": 106.8906,
      "duration": 0.1036,
      "velocity": 109,
      "chip": "ym2612"
    },
    {
      "channel": 2,
      "note": 49,
      "start": 107.0178,
      "duration": 0.0931,
      "velocity": 106,
      "chip": "ym2612"
    },
    {
      "channel": 0,
      "note": 42,
      "start": 107.0202,
      "duration": 0.0571,
      "velocity": 92,
      "chip": "ym2612"
    },
    {
      "channel": 1,
      "note": 49,
      "start": 107.0236,
      "duration": 0.237,
      "velocity": 108,
      "chip": "ym2612"
    },
    {
      "channel": 4,
      "note": 42,
      "start": 107.0267,
      "duration": 0.234,
      "velocity": 108,
      "chip": "ym2612"
    },
    {
      "channel": 0,
      "note": 42,
      "start": 107.1313,
      "duration": 0.0626,
      "velocity": 92,
      "chip": "ym2612"
    },
    {
      "channel": 3,
      "note": 49,
      "start": 107.2647,
      "duration": 0.0961,
      "velocity": 109,
      "chip": "ym2612"
    },
    {
      "channel": 5,
      "note": 42,
      "start": 107.2675,
      "duration": 0.0934,
      "velocity": 109,
      "chip": "ym2612"
    },
    {
      "channel": 2,
      "note": 44,
      "start": 107.3837,
      "duration": 0.1273,
      "velocity": 125,
      "chip": "ym2612"
    },
    {
      "channel": 1,
      "note": 49,
      "start": 107.3893,
      "duration": 0.138,
      "velocity": 108,
      "chip": "ym2612"
    },
    {
      "channel": 4,
      "note": 42,
      "start": 107.3919,
      "duration": 0.1356,
      "velocity": 108,
      "chip": "ym2612"
    },
    {
      "channel": 2,
      "note": 49,
      "start": 107.515,
      "duration": 0.0958,
      "velocity": 106,
      "chip": "ym2612"
    },
    {
      "channel": 0,
      "note": 42,
      "start": 107.5177,
      "duration": 0.2263,
      "velocity": 92,
      "chip": "ym2612"
    },
    {
      "channel": 3,
      "note": 49,
      "start": 107.5205,
      "duration": 0.0735,
      "velocity": 109,
      "chip": "ym2612"
    },
    {
      "channel": 5,
      "note": 42,
      "start": 107.5232,
      "duration": 0.071,
      "velocity": 109,
      "chip": "ym2612"
    },
    {
      "channel": 2,
      "note": 49,
      "start": 107.6482,
      "duration": 0.0962,
      "velocity": 106,
      "chip": "ym2612"
    },
    {
      "channel": 3,
      "note": 49,
      "start": 107.651,
      "duration": 0.0764,
      "velocity": 109,
      "chip": "ym2612"
    },
    {
      "channel": 5,
      "note": 42,
      "start": 107.6537,
      "duration": 0.0739,
      "velocity": 109,
      "chip": "ym2612"
    },
    {
      "channel": 1,
      "note": 44,
      "start": 107.7664,
      "duration": 0.1275,
      "velocity": 125,
      "chip": "ym2612"
    },
    {
      "channel": 4,
      "note": 49,
      "start": 107.7707,
      "duration": 0.0901,
      "velocity": 108,
      "chip": "ym2612"
    },
    {
      "channel": 3,
      "note": 42,
      "start": 107.7735,
      "duration": 0.0872,
      "velocity": 108,
      "chip": "ym2612"
    },
    {
      "channel": 0,
      "note": 42,
      "start": 107.8978,
      "duration": 0.1128,
      "velocity": 92,
      "chip": "ym2612"
    },
    {
      "channel": 5,
      "note": 49,
      "start": 107.9007,
      "duration": 0.0767,
      "velocity": 109,
      "chip": "ym2612"
    },
    {
      "channel": 2,
      "note": 42,
      "start": 107.9039,
      "duration": 0.0737,
      "velocity": 109,
      "chip": "ym2612"
    },
    {
      "channel": 1,
      "note": 44,
      "start": 108.0167,
      "duration": 0.1273,
      "velocity": 125,
      "chip": "ym2612"
    },
    {
      "channel": 3,
      "note": 49,
      "start": 108.0204,
      "duration": 0.0904,
      "velocity": 108,
      "chip": "ym2612"
    },
    {
      "channel": 4,
      "note": 42,
      "start": 108.0235,
      "duration": 0.0874,
      "velocity": 108,
      "chip": "ym2612"
    },
    {
      "channel": 0,
      "note": 42,
      "start": 108.1478,
      "duration": 0.1296,
      "velocity": 92,
      "chip": "ym2612"
    },
    {
      "channel": 5,
      "note": 49,
      "start": 108.1508,
      "duration": 0.21,
      "velocity": 109,
      "chip": "ym2612"
    },
    {
      "channel": 2,
      "note": 42,
      "start": 108.1536,
      "duration": 0.2074,
      "velocity": 109,
      "chip": "ym2612"
    },
    {
      "channel": 2,
      "note": 49,
      "start": 108.3989,
      "duration": 0.0785,
      "velocity": 95,
      "chip": "ym2612"
    },
    {
      "channel": 3,
      "note": 48,
      "start": 108.4112,
      "duration": 3.966,
      "velocity": 125,
      "chip": "ym2612"
    },
    {
      "channel": 0,
      "note": 36,
      "start": 108.4141,
      "duration": 0.0797,
      "velocity": 92,
      "chip": "ym2612"
    },
    {
      "channel": 5,
      "note": 48,
      "start": 108.4173,
      "duration": 3.9434,
      "velocity": 109,
      "chip": "ym2612"
    },
    {
      "channel": 2,
      "note": 49,
      "start": 108.5146,
      "duration": 0.2128,
      "velocity": 95,
      "chip": "ym2612"
    },
    {
      "channel": 0,
      "note": 36,
      "start": 108.5179,
      "duration": 0.1092,
      "velocity": 92,
      "chip": "ym2612"
    },
    {
      "channel": 0,
      "note": 36,
      "start": 108.6515,
      "duration": 0.0922,
      "velocity": 92,
      "chip": "ym2612"
    },
    {
      "channel": 0,
      "note": 36,
      "start": 108.7639,
      "duration": 0.1132,
      "velocity": 92,
      "chip": "ym2612"
    },
    {
      "channel": 1,
      "note": 43,
      "start": 108.9006,
      "duration": 0.0934,
      "velocity": 125,
      "chip": "ym2612"
    },
    {
      "channel": 0,
      "note": 36,
      "start": 108.9033,
      "duration": 0.0905,
      "velocity": 92,
      "chip": "ym2612"
    },
    {
      "channel": 0,
      "note": 36,
      "start": 109.0141,
      "duration": 0.113,
      "velocity": 92,
      "chip": "ym2612"
    },
    {
      "channel": 2,
      "note": 49,
      "start": 109.1476,
      "duration": 0.2298,
      "velocity": 106,
      "chip": "ym2612"
    },
    {
      "channel": 0,
      "note": 36,
      "start": 109.1534,
      "duration": 0.0904,
      "velocity": 92,
      "chip": "ym2612"
    },
    {
      "channel": 0,
      "note": 36,
      "start": 109.2658,
      "duration": 0.1113,
      "velocity": 92,
      "chip": "ym2612"
    },
    {
      "channel": 0,
      "note": 36,
      "start": 109.3992,
      "duration": 0.0946,
      "velocity": 92,
      "chip": "ym2612"
    },
    {
      "channel": 0,
      "note": 36,
      "start": 109.5139,
      "duration": 0.1132,
      "velocity": 92,
      "chip": "ym2612"
    },
    {
      "channel": 2,
      "note": 49,
      "start": 109.6491,
      "duration": 0.095,
      "velocity": 95,
      "chip": "ym2612"
    },
    {
      "channel": 0,
      "note": 36,
      "start": 109.6558,
      "duration": 0.0879,
      "velocity": 92,
      "chip": "ym2612"
    },
    {
      "channel": 0,
      "note": 36,
      "start": 109.7806,
      "duration": 0.0966,
      "velocity": 92,
      "chip": "ym2612"
    },
    {
      "channel": 1,
      "note": 43,
      "start": 109.9025,
      "duration": 0.1246,
      "velocity": 125,
      "chip": "ym2612"
    },
    {
      "channel": 0,
      "note": 36,
      "start": 109.9059,
      "duration": 0.088,
      "velocity": 92,
      "chip": "ym2612"
    },
    {
      "channel": 2,
      "note": 49,
      "start": 110.0324,
      "duration": 0.1951,
      "velocity": 95,
      "chip": "ym2612"
    },
    {
      "channel": 0,
      "note": 36,
      "start": 110.0354,
      "duration": 0.0918,
      "velocity": 92,
      "chip": "ym2612"
    },
    {
      "channel": 0,
      "note": 36,
      "start": 110.1482,
      "duration": 0.0956,
      "velocity": 92,
      "chip": "ym2612"
    },
    {
      "channel": 0,
      "note": 36,
      "start": 110.2824,
      "duration": 0.0946,
      "velocity": 92,
      "chip": "ym2612"
    },
    {
      "channel": 2,
      "note": 49,
      "start": 110.398,
      "duration": 0.0793,
      "velocity": 95,
      "chip": "ym2612"
    },
    {
      "channel": 0,
      "note": 36,
      "start": 110.4048,
      "duration": 0.089,
      "velocity": 92,
      "chip": "ym2612"
    },
    {
      "channel": 2,
      "note": 49,
      "start": 110.531,
      "duration": 0.1963,
      "velocity": 95,
      "chip": "ym2612"
    },
    {
      "channel": 0,
      "note": 36,
      "start": 110.534,
      "duration": 0.0931,
      "velocity": 92,
      "chip": "ym2612"
    },
    {
      "channel": 0,
      "note": 36,
      "start": 110.6478,
      "duration": 0.1125,
      "velocity": 92,
      "chip": "ym2612"
    },
    {
      "channel": 0,
      "note": 36,
      "start": 110.781,
      "duration": 0.0961,
      "velocity": 92,
      "chip": "ym2612"
    },
    {
      "channel": 1,
      "note": 43,
      "start": 110.9008,
      "duration": 0.1265,
      "velocity": 125,
      "chip": "ym2612"
    },
    {
      "channel": 0,
      "note": 36,
      "start": 110.9036,
      "duration": 0.1069,
      "velocity": 92,
      "chip": "ym2612"
    },
    {
      "channel": 0,
      "note": 36,
      "start": 111.0319,
      "duration": 0.0952,
      "velocity": 92,
      "chip": "ym2612"
    },
    {
      "channel": 2,
      "note": 49,
      "start": 111.1481,
      "duration": 0.2294,
      "velocity": 106,
      "chip": "ym2612"
    },
    {
      "channel": 0,
      "note": 36,
      "start": 111.1531,
      "duration": 0.1073,
      "velocity": 92,
      "chip": "ym2612"
    },
    {
      "channel": 0,
      "note": 36,
      "start": 111.2807,
      "duration": 0.0964,
      "velocity": 92,
      "chip": "ym2612"
    },
    {
      "channel": 0,
      "note": 36,
      "start": 111.3999,
      "duration": 0.1105,
      "velocity": 92,
      "chip": "ym2612"
    },
    {
      "channel": 0,
      "note": 36,
      "start": 111.531,
      "duration": 0.096,
      "velocity": 92,
      "chip": "ym2612"
    },
    {
      "channel": 2,
      "note": 49,
      "start": 111.6476,
      "duration": 0.1131,
      "velocity": 95,
      "chip": "ym2612"
    },
    {
      "channel": 0,
      "note": 36,
      "start": 111.6528,
      "duration": 0.1076,
      "velocity": 92,
      "chip": "ym2612"
    },
    {
      "channel": 1,
      "note": 39,
      "start": 111.7815,
      "duration": 0.0957,
      "velocity": 125,
      "chip": "ym2612"
    },
    {
      "channel": 0,
      "note": 36,
      "start": 111.7842,
      "duration": 0.0928,
      "velocity": 92,
      "chip": "ym2612"
    },
    {
      "channel": 1,
      "note": 39,
      "start": 111.9196,
      "duration": 0.0911,
      "velocity": 125,
      "chip": "ym2612"
    },
    {
      "channel": 0,
      "note": 36,
      "start": 111.9249,
      "duration": 0.0856,
      "velocity": 92,
      "chip": "ym2612"
    },
    {
      "channel": 2,
      "note": 81,
      "start": 112.0337,
      "duration": 0.3271,
      "velocity": 104,
      "chip": "ym2612"
    },
    {
      "channel": 0,
      "note": 36,
      "start": 112.037,
      "duration": 0.0901,
      "velocity": 92,
      "chip": "ym2612"
    },
    {
      "channel": 0,
      "note": 36,
      "start": 112.1655,
      "duration": 0.095,
      "velocity": 92,
      "chip": "ym2612"
    },
    {
      "channel": 0,
      "note": 36,
      "start": 112.2813,
      "duration": 0.0957,
      "velocity": 92,
      "chip": "ym2612"
    },
    {
      "channel": 2,
      "note": 81,
      "start": 112.4206,
      "duration": 0.0901,
      "velocity": 104,
      "chip": "ym2612"
    },
    {
      "channel": 0,
      "note": 42,
      "start": 112.4309,
      "duration": 0.1797,
      "velocity": 92,
      "chip": "ym2612"
    },
    {
      "channel": 4,
      "note": 49,
      "start": 112.434,
      "duration": 0.1434,
      "velocity": 108,
      "chip": "ym2612"
    },
    {
      "channel": 1,
      "note": 42,
      "start": 112.4368,
      "duration": 0.1405,
      "velocity": 108,
      "chip": "ym2612"
    },
    {
      "channel": 5,
      "note": 33,
      "start": 112.4419,
      "duration": 0.1024,
      "velocity": 124,
      "chip": "ym2612"
    },
    {
      "channel": 2,
      "note": 49,
      "start": 112.5317,
      "duration": 0.0958,
      "velocity": 106,
      "chip": "ym2612"
    },
    {
      "channel": 3,
      "note": 44,
      "start": 112.6666,
      "duration": 0.1107,
      "velocity": 125,
      "chip": "ym2612"
    },
    {
      "channel": 5,
      "note": 49,
      "start": 112.6727,
      "duration": 0.0716,
      "velocity": 109,
      "chip": "ym2612"
    },
    {
      "channel": 1,
      "note": 42,
      "start": 112.6763,
      "duration": 0.0676,
      "velocity": 109,
      "chip": "ym2612"
    },
    {
      "channel": 2,
      "note": 81,
      "start": 112.7848,
      "duration": 0.1095,
      "velocity": 104,
      "chip": "ym2612"
    },
    {
      "channel": 0,
      "note": 42,
      "start": 112.7905,
      "duration": 0.1868,
      "velocity": 92,
      "chip": "ym2612"
    },
    {
      "channel": 4,
      "note": 49,
      "start": 112.7941,
      "duration": 0.1335,
      "velocity": 108,
      "chip": "ym2612"
    },
    {
      "channel": 1,
      "note": 42,
      "start": 112.7969,
      "duration": 0.1305,
      "velocity": 108,
      "chip": "ym2612"
    },
    {
      "channel": 5,
      "note": 33,
      "start": 112.8,
      "duration": 0.0941,
      "velocity": 124,
      "chip": "ym2612"
    },
    {
      "channel": 2,
      "note": 49,
      "start": 112.9148,
      "duration": 0.0959,
      "velocity": 106,
      "chip": "ym2612"
    },
    {
      "channel": 2,
      "note": 81,
      "start": 113.0324,
      "duration": 0.1121,
      "velocity": 104,
      "chip": "ym2612"
    },
    {
      "channel": 0,
      "note": 42,
      "start": 113.0359,
      "duration": 0.158,
      "velocity": 92,
      "chip": "ym2612"
    },
    {
      "channel": 1,
      "note": 49,
      "start": 113.0389,
      "duration": 0.1051,
      "velocity": 108,
      "chip": "ym2612"
    },
    {
      "channel": 4,
      "note": 42,
      "start": 113.0419,
      "duration": 0.1023,
      "velocity": 108,
      "chip": "ym2612"
    },
    {
      "channel": 5,
      "note": 33,
      "start": 113.045,
      "duration": 0.0992,
      "velocity": 124,
      "chip": "ym2612"
    },
    {
      "channel": 2,
      "note": 81,
      "start": 113.2832,
      "duration": 0.1113,
      "velocity": 104,
      "chip": "ym2612"
    },
    {
      "channel": 0,
      "note": 42,
      "start": 113.2867,
      "duration": 0.1239,
      "velocity": 92,
      "chip": "ym2612"
    },
    {
      "channel": 1,
      "note": 49,
      "start": 113.2895,
      "duration": 0.1044,
      "velocity": 108,
      "chip": "ym2612"
    },
    {
      "channel": 4,
      "note": 42,
      "start": 113.2922,
      "duration": 0.102,
      "velocity": 108,
      "chip": "ym2612"
    },
    {
      "channel": 5,
      "note": 33,
      "start": 113.2954,
      "duration": 0.0988,
      "velocity": 124,
      "chip": "ym2612"
    },
    {
      "channel": 3,
      "note": 44,
      "start": 113.416,
      "duration": 0.1114,
      "velocity": 125,
      "chip": "ym2612"
    },
    {
      "channel": 1,
      "note": 49,
      "start": 113.4235,
      "duration": 0.0871,
      "velocity": 109,
      "chip": "ym2612"
    },
    {
      "channel": 4,
      "note": 42,
      "start": 113.4268,
      "duration": 0.084,
      "velocity": 109,
      "chip": "ym2612"
    },
    {
      "channel": 2,
      "note": 49,
      "start": 113.5317,
      "duration": 0.1127,
      "velocity": 106,
      "chip": "ym2612"
    },
    {
      "channel": 5,
      "note": 49,
      "start": 113.5348,
      "duration": 0.1095,
      "velocity": 108,
      "chip": "ym2612"
    },
    {
      "channel": 0,
      "note": 42,
      "start": 113.5376,
      "duration": 0.1064,
      "velocity": 108,
      "chip": "ym2612"
    },
    {
      "channel": 1,
      "note": 33,
      "start": 113.5407,
      "duration": 0.12,
      "velocity": 124,
      "chip": "ym2612"
    },
    {
      "channel": 4,
      "note": 42,
      "start": 113.6674,
      "duration": 0.06,
      "velocity": 92,
      "chip": "ym2612"
    },
    {
      "channel": 2,
      "note": 81,
      "start": 113.7849,
      "duration": 0.1094,
      "velocity": 104,
      "chip": "ym2612"
    },
    {
      "channel": 4,
      "note": 42,
      "start": 113.7903,
      "duration": 0.0537,
      "velocity": 92,
      "chip": "ym2612"
    },
    {
      "channel": 3,
      "note": 44,
      "start": 113.9159,
      "duration": 0.1283,
      "velocity": 125,
      "chip": "ym2612"
    },
    {
      "channel": 2,
      "note": 49,
      "start": 113.9216,
      "duration": 0.0894,
      "velocity": 106,
      "chip": "ym2612"
    },
    {
      "channel": 4,
      "note": 42,
      "start": 113.9242,
      "duration": 0.0532,
      "velocity": 92,
      "chip": "ym2612"
    },
    {
      "channel": 0,
      "note": 49,
      "start": 113.9276,
      "duration": 0.083,
      "velocity": 109,
      "chip": "ym2612"
    },
    {
      "channel": 5,
      "note": 42,
      "start": 113.9304,
      "duration": 0.0805,
      "velocity": 109,
      "chip": "ym2612"
    },
    {
      "channel": 1,
      "note": 33,
      "start": 113.9332,
      "duration": 0.1108,
      "velocity": 124,
      "chip": "ym2612"
    },
    {
      "channel": 2,
      "note": 81,
      "start": 114.0495,
      "duration": 0.0946,
      "velocity": 104,
      "chip": "ym2612"
    },
    {
      "channel": 4,
      "note": 42,
      "start": 114.055,
      "duration": 0.0391,
      "velocity": 92,
      "chip": "ym2612"
    },
    {
      "channel": 3,
      "note": 44,
      "start": 114.1684,
      "duration": 0.1258,
      "velocity": 125,
      "chip": "ym2612"
    },
    {
      "channel": 2,
      "note": 49,
      "start": 114.1739,
      "duration": 0.087,
      "velocity": 106,
      "chip": "ym2612"
    },
    {
      "channel": 4,
      "note": 42,
      "start": 114.1773,
      "duration": 0.0501,
      "velocity": 92,
      "chip": "ym2612"
    },
    {
      "channel": 0,
      "note": 49,
      "start": 114.1805,
      "duration": 0.0634,
      "velocity": 108,
      "chip": "ym2612"
    },
    {
      "channel": 5,
      "note": 42,
      "start": 114.1833,
      "duration": 0.0609,
      "velocity": 108,
      "chip": "ym2612"
    },
    {
      "channel": 1,
      "note": 33,
      "start": 114.1859,
      "duration": 0.1081,
      "velocity": 124,
      "chip": "ym2612"
    },
    {
      "channel": 2,
      "note": 81,
      "start": 114.4156,
      "duration": 0.0952,
      "velocity": 104,
      "chip": "ym2612"
    },
    {
      "channel": 3,
      "note": 44,
      "start": 114.5521,
      "duration": 0.1088,
      "velocity": 125,
      "chip": "ym2612"
    },
    {
      "channel": 2,
      "note": 49,
      "start": 114.558,
      "duration": 0.0863,
      "velocity": 106,
      "chip": "ym2612"
    },
    {
      "channel": 4,
      "note": 42,
      "start": 114.5615,
      "duration": 0.1659,
      "velocity": 92,
      "chip": "ym2612"
    },
    {
      "channel": 0,
      "note": 49,
      "start": 114.5648,
      "duration": 0.0958,
      "velocity": 108,
      "chip": "ym2612"
    },
    {
      "channel": 5,
      "note": 42,
      "start": 114.5674,
      "duration": 0.0936,
      "velocity": 108,
      "chip": "ym2612"
    },
    {
      "channel": 1,
      "note": 33,
      "start": 114.5705,
      "duration": 0.0903,
      "velocity": 124,
      "chip": "ym2612"
    },
    {
      "channel": 2,
      "note": 81,
      "start": 114.666,
      "duration": 0.095,
      "velocity": 104,
      "chip": "ym2612"
    },
    {
      "channel": 0,
      "note": 49,
      "start": 114.6715,
      "duration": 0.0891,
      "velocity": 109,
      "chip": "ym2612"
    },
    {
      "channel": 1,
      "note": 42,
      "start": 114.6743,
      "duration": 0.0864,
      "velocity": 109,
      "chip": "ym2612"
    },
    {
      "channel": 4,
      "note": 42,
      "start": 114.7998,
      "duration": 0.1776,
      "velocity": 92,
      "chip": "ym2612"
    },
    {
      "channel": 5,
      "note": 49,
      "start": 114.8028,
      "duration": 0.1082,
      "velocity": 108,
      "chip": "ym2612"
    },
    {
      "channel": 3,
      "note": 42,
      "start": 114.8056,
      "duration": 0.1052,
      "velocity": 108,
      "chip": "ym2612"
    },
    {
      "channel": 0,
      "note": 33,
      "start": 114.8085,
      "duration": 0.1021,
      "velocity": 124,
      "chip": "ym2612"
    },
    {
      "channel": 2,
      "note": 44,
      "start": 114.917,
      "duration": 0.0034,
      "velocity": 125,
      "chip": "ym2612"
    },
    {
      "channel": 2,
      "note": 49,
      "start": 114.923,
      "duration": 0.1047,
      "velocity": 106,
      "chip": "ym2612"
    },
    {
      "channel": 1,
      "note": 49,
      "start": 114.9264,
      "duration": 0.1011,
      "velocity": 109,
      "chip": "ym2612"
    },
    {
      "channel": 0,
      "note": 42,
      "start": 114.9296,
      "duration": 0.0978,
      "velocity": 109,
      "chip": "ym2612"
    },
    {
      "channel": 2,
      "note": 81,
      "start": 115.0518,
      "duration": 0.0925,
      "velocity": 104,
      "chip": "ym2612"
    },
    {
      "channel": 4,
      "note": 42,
      "start": 115.0571,
      "duration": 0.1703,
      "velocity": 92,
      "chip": "ym2612"
    },
    {
      "channel": 3,
      "note": 49,
      "start": 115.0606,
      "duration": 0.2335,
      "velocity": 108,
      "chip": "ym2612"
    },
    {
      "channel": 5,
      "note": 42,
      "start": 115.0634,
      "duration": 0.231,
      "velocity": 108,
      "chip": "ym2612"
    },
    {
      "channel": 2,
      "note": 49,
      "start": 115.1653,
      "duration": 0.1123,
      "velocity": 106,
      "chip": "ym2612"
    },
    {
      "channel": 0,
      "note": 33,
      "start": 115.1686,
      "duration": 0.1254,
      "velocity": 124,
      "chip": "ym2612"
    },
    {
      "channel": 1,
      "note": 49,
      "start": 115.2982,
      "duration": 0.0959,
      "velocity": 109,
      "chip": "ym2612"
    },
    {
      "channel": 4,
      "note": 42,
      "start": 115.301,
      "duration": 0.0933,
      "velocity": 109,
      "chip": "ym2612"
    },
    {
      "channel": 2,
      "note": 44,
      "start": 115.4188,
      "duration": 0.1256,
      "velocity": 125,
      "chip": "ym2612"
    },
    {
      "channel": 3,
      "note": 49,
      "start": 115.4272,
      "duration": 0.134,
      "velocity": 108,
      "chip": "ym2612"
    },
    {
      "channel": 5,
      "note": 42,
      "start": 115.4303,
      "duration": 0.131,
      "velocity": 108,
      "chip": "ym2612"
    },
    {
      "channel": 0,
      "note": 33,
      "start": 115.4329,
      "duration": 0.111,
      "velocity": 124,
      "chip": "ym2612"
    },
    {
      "channel": 2,
      "note": 49,
      "start": 115.5485,
      "duration": 0.0957,
      "velocity": 106,
      "chip": "ym2612"
    },
    {
      "channel": 1,
      "note": 52,
      "start": 115.5515,
      "duration": 0.1092,
      "velocity": 92,
      "chip": "ym2612"
    },
    {
      "channel": 4,
      "note": 49,
      "start": 115.5544,
      "duration": 0.0731,
      "velocity": 109,
      "chip": "ym2612"
    },
    {
      "channel": 0,
      "note": 42,
      "start": 115.5572,
      "duration": 0.0702,
      "velocity": 109,
      "chip": "ym2612"
    },
    {
      "channel": 2,
      "note": 49,
      "start": 115.6648,
      "duration": 0.1127,
      "velocity": 106,
      "chip": "ym2612"
    },
    {
      "channel": 1,
      "note": 50,
      "start": 115.6674,
      "duration": 0.1266,
      "velocity": 92,
      "chip": "ym2612"
    },
    {
      "channel": 0,
      "note": 49,
      "start": 115.67,
      "duration": 0.0739,
      "velocity": 109,
      "chip": "ym2612"
    },
    {
      "channel": 4,
      "note": 42,
      "start": 115.6727,
      "duration": 0.0714,
      "velocity": 109,
      "chip": "ym2612"
    },
    {
      "channel": 3,
      "note": 44,
      "start": 115.7999,
      "duration": 0.1109,
      "velocity": 125,
      "chip": "ym2612"
    },
    {
      "channel": 2,
      "note": 49,
      "start": 115.8038,
      "duration": 0.0906,
      "velocity": 106,
      "chip": "ym2612"
    },
    {
      "channel": 1,
      "note": 49,
      "start": 115.8063,
      "duration": 0.1043,
      "velocity": 92,
      "chip": "ym2612"
    },
    {
      "channel": 5,
      "note": 49,
      "start": 115.81,
      "duration": 0.0843,
      "velocity": 108,
      "chip": "ym2612"
    },
    {
      "channel": 0,
      "note": 42,
      "start": 115.8127,
      "duration": 0.0812,
      "velocity": 108,
      "chip": "ym2612"
    },
    {
      "channel": 4,
      "note": 33,
      "start": 115.8156,
      "duration": 0.0953,
      "velocity": 124,
      "chip": "ym2612"
    },
    {
      "channel": 1,
      "note": 47,
      "start": 115.9145,
      "duration": 0.1294,
      "velocity": 92,
      "chip": "ym2612"
    },
    {
      "channel": 0,
      "note": 49,
      "start": 115.9178,
      "duration": 0.0761,
      "velocity": 109,
      "chip": "ym2612"
    },
    {
      "channel": 5,
      "note": 42,
      "start": 115.9206,
      "duration": 0.0735,
      "velocity": 109,
      "chip": "ym2612"
    },
    {
      "channel": 3,
      "note": 44,
      "start": 116.0501,
      "duration": 0.1273,
      "velocity": 125,
      "chip": "ym2612"
    },
    {
      "channel": 2,
      "note": 49,
      "start": 116.0539,
      "duration": 0.0905,
      "velocity": 106,
      "chip": "ym2612"
    },
    {
      "channel": 1,
      "note": 45,
      "start": 116.0564,
      "duration": 0.1208,
      "velocity": 92,
      "chip": "ym2612"
    },
    {
      "channel": 4,
      "note": 49,
      "start": 116.0599,
      "duration": 0.0842,
      "velocity": 108,
      "chip": "ym2612"
    },
    {
      "channel": 0,
      "note": 42,
      "start": 116.0629,
      "duration": 0.0811,
      "velocity": 108,
      "chip": "ym2612"
    },
    {
      "channel": 5,
      "note": 33,
      "start": 116.0659,
      "duration": 0.1117,
      "velocity": 124,
      "chip": "ym2612"
    },
    {
      "channel": 2,
      "note": 81,
      "start": 116.1828,
      "duration": 0.2116,
      "velocity": 104,
      "chip": "ym2612"
    },
    {
      "channel": 1,
      "note": 42,
      "start": 116.1884,
      "duration": 0.1056,
      "velocity": 92,
      "chip": "ym2612"
    },
    {
      "channel": 0,
      "note": 49,
      "start": 116.1915,
      "duration": 0.2025,
      "velocity": 109,
      "chip": "ym2612"
    },
    {
      "channel": 4,
      "note": 42,
      "start": 116.1948,
      "duration": 0.1994,
      "velocity": 109,
      "chip": "ym2612"
    },
    {
      "channel": 2,
      "note": 49,
      "start": 116.433,
      "duration": 0.1943,
      "velocity": 95,
      "chip": "ym2612"
    },
    {
      "channel": 3,
      "note": 50,
      "start": 116.4441,
      "duration": 1.9665,
      "velocity": 125,
      "chip": "ym2612"
    },
    {
      "channel": 1,
      "note": 38,
      "start": 116.4469,
      "duration": 0.0802,
      "velocity": 92,
      "chip": "ym2612"
    },
    {
      "channel": 0,
      "note": 45,
      "start": 116.4501,
      "duration": 3.9605,
      "velocity": 109,
      "chip": "ym2612"
    },
    {
      "channel": 1,
      "note": 38,
      "start": 116.5476,
      "duration": 0.0961,
      "velocity": 92,
      "chip": "ym2612"
    },
    {
      "channel": 1,
      "note": 38,
      "start": 116.6852,
      "duration": 0.0919,
      "velocity": 92,
      "chip": "ym2612"
    },
    {
      "channel": 5,
      "note": 44,
      "start": 116.8025,
      "duration": 0.1248,
      "velocity": 125,
      "chip": "ym2612"
    },
    {
      "channel": 1,
      "note": 38,
      "start": 116.8054,
      "duration": 0.0886,
      "velocity": 92,
      "chip": "ym2612"
    },
    {
      "channel": 1,
      "note": 38,
      "start": 116.9309,
      "duration": 0.0963,
      "velocity": 92,
      "chip": "ym2612"
    },
    {
      "channel": 1,
      "note": 38,
      "start": 117.0475,
      "duration": 0.113,
      "velocity": 92,
      "chip": "ym2612"
    },
    {
      "channel": 2,
      "note": 49,
      "start": 117.1826,
      "duration": 0.2283,
      "velocity": 106,
      "chip": "ym2612"
    },
    {
      "channel": 1,
      "note": 38,
      "start": 117.188,
      "duration": 0.0893,
      "velocity": 92,
      "chip": "ym2612"
    },
    {
      "channel": 1,
      "note": 38,
      "start": 117.299,
      "duration": 0.1115,
      "velocity": 92,
      "chip": "ym2612"
    },
    {
      "channel": 1,
      "note": 38,
      "start": 117.4324,
      "duration": 0.0946,
      "velocity": 92,
      "chip": "ym2612"
    },
    {
      "channel": 1,
      "note": 38,
      "start": 117.5474,
      "duration": 0.1132,
      "velocity": 92,
      "chip": "ym2612"
    },
    {
      "channel": 2,
      "note": 49,
      "start": 117.6822,
      "duration": 0.0952,
      "velocity": 95,
      "chip": "ym2612"
    },
    {
      "channel": 1,
      "note": 38,
      "start": 117.6893,
      "duration": 0.0879,
      "velocity": 92,
      "chip": "ym2612"
    },
    {
      "channel": 5,
      "note": 40,
      "start": 117.7987,
      "duration": 0.1121,
      "velocity": 125,
      "chip": "ym2612"
    },
    {
      "channel": 1,
      "note": 38,
      "start": 117.8016,
      "duration": 0.109,
      "velocity": 92,
      "chip": "ym2612"
    },
    {
      "channel": 5,
      "note": 40,
      "start": 117.9363,
      "duration": 0.0912,
      "velocity": 125,
      "chip": "ym2612"
    },
    {
      "channel": 1,
      "note": 38,
      "start": 117.94,
      "duration": 0.0873,
      "velocity": 92,
      "chip": "ym2612"
    },
    {
      "channel": 2,
      "note": 49,
      "start": 118.0493,
      "duration": 0.0781,
      "velocity": 95,
      "chip": "ym2612"
    },
    {
      "channel": 1,
      "note": 38,
      "start": 118.0524,
      "duration": 0.1082,
      "velocity": 92,
      "chip": "ym2612"
    },
    {
      "channel": 1,
      "note": 38,
      "start": 118.1811,
      "duration": 0.0962,
      "velocity": 92,
      "chip": "ym2612"
    },
    {
      "channel": 1,
      "note": 38,
      "start": 118.3158,
      "duration": 0.0947,
      "velocity": 92,
      "chip": "ym2612"
    },
    {
      "channel": 2,
      "note": 49,
      "start": 118.4323,
      "duration": 0.2118,
      "velocity": 106,
      "chip": "ym2612"
    },
    {
      "channel": 3,
      "note": 47,
      "start": 118.44,
      "duration": 1.9708,
      "velocity": 125,
      "chip": "ym2612"
    },
    {
      "channel": 1,
      "note": 35,
      "start": 118.4431,
      "duration": 0.0841,
      "velocity": 92,
      "chip": "ym2612"
    },
    {
      "channel": 5,
      "note": 44,
      "start": 118.5644,
      "duration": 0.013,
      "velocity": 125,
      "chip": "ym2612"
    },
    {
      "channel": 1,
      "note": 35,
      "start": 118.5672,
      "duration": 0.0934,
      "velocity": 92,
      "chip": "ym2612"
    },
    {
      "channel": 5,
      "note": 45,
      "start": 118.5815,
      "duration": 0.0794,
      "velocity": 125,
      "chip": "ym2612"
    },
    {
      "channel": 1,
      "note": 35,
      "start": 118.6817,
      "duration": 0.0955,
      "velocity": 92,
      "chip": "ym2612"
    },
    {
      "channel": 2,
      "note": 49,
      "start": 118.8159,
      "duration": 0.0783,
      "velocity": 95,
      "chip": "ym2612"
    },
    {
      "channel": 1,
      "note": 35,
      "start": 118.8193,
      "duration": 0.0913,
      "velocity": 92,
      "chip": "ym2612"
    },
    {
      "channel": 5,
      "note": 44,
      "start": 118.931,
      "duration": 0.0131,
      "velocity": 125,
      "chip": "ym2612"
    },
    {
      "channel": 1,
      "note": 35,
      "start": 118.9338,
      "duration": 0.0934,
      "velocity": 92,
      "chip": "ym2612"
    },
    {
      "channel": 5,
      "note": 45,
      "start": 118.9478,
      "duration": 0.0796,
      "velocity": 125,
      "chip": "ym2612"
    },
    {
      "channel": 2,
      "note": 49,
      "start": 119.0644,
      "duration": 0.0965,
      "velocity": 95,
      "chip": "ym2612"
    },
    {
      "channel": 1,
      "note": 35,
      "start": 119.0684,
      "duration": 0.0921,
      "velocity": 92,
      "chip": "ym2612"
    },
    {
      "channel": 2,
      "note": 49,
      "start": 119.1822,
      "duration": 0.0786,
      "velocity": 106,
      "chip": "ym2612"
    },
    {
      "channel": 1,
      "note": 35,
      "start": 119.1869,
      "duration": 0.1071,
      "velocity": 92,
      "chip": "ym2612"
    },
    {
      "channel": 1,
      "note": 35,
      "start": 119.3142,
      "duration": 0.0964,
      "velocity": 92,
      "chip": "ym2612"
    },
    {
      "channel": 5,
      "note": 44,
      "start": 119.331,
      "duration": 0.0964,
      "velocity": 125,
      "chip": "ym2612"
    },
    {
      "channel": 1,
      "note": 35,
      "start": 119.4337,
      "duration": 0.1102,
      "velocity": 92,
      "chip": "ym2612"
    },
    {
      "channel": 5,
      "note": 44,
      "start": 119.5642,
      "duration": 0.0966,
      "velocity": 125,
      "chip": "ym2612"
    },
    {
      "channel": 1,
      "note": 35,
      "start": 119.5676,
      "duration": 0.093,
      "velocity": 92,
      "chip": "ym2612"
    },
    {
      "channel": 2,
      "note": 81,
      "start": 119.6825,
      "duration": 0.2283,
      "velocity": 104,
      "chip": "ym2612"
    },
    {
      "channel": 1,
      "note": 35,
      "start": 119.6878,
      "duration": 0.106,
      "velocity": 92,
      "chip": "ym2612"
    },
    {
      "channel": 1,
      "note": 35,
      "start": 119.8141,
      "duration": 0.0964,
      "velocity": 92,
      "chip": "ym2612"
    },
    {
      "channel": 5,
      "note": 44,
      "start": 119.9374,
      "duration": 0.1068,
      "velocity": 125,
      "chip": "ym2612"
    },
    {
      "channel": 1,
      "note": 35,
      "start": 119.9426,
      "duration": 0.1013,
      "velocity": 92,
      "chip": "ym2612"
    },
    {
      "channel": 1,
      "note": 35,
      "start": 120.0661,
      "duration": 0.0945,
      "velocity": 92,
      "chip": "ym2612"
    },
    {
      "channel": 2,
      "note": 49,
      "start": 120.1826,
      "duration": 0.1117,
      "velocity": 106,
      "chip": "ym2612"
    },
    {
      "channel": 5,
      "note": 44,
      "start": 120.1867,
      "duration": 0.1075,
      "velocity": 125,
      "chip": "ym2612"
    },
    {
      "channel": 1,
      "note": 35,
      "start": 120.19,
      "duration": 0.1039,
      "velocity": 92,
      "chip": "ym2612"
    },
    {
      "channel": 2,
      "note": 49,
      "start": 120.3141,
      "duration": 0.097,
      "velocity": 106,
      "chip": "ym2612"
    },
    {
      "channel": 5,
      "note": 44,
      "start": 120.3171,
      "duration": 0.0939,
      "velocity": 125,
      "chip": "ym2612"
    },
    {
      "channel": 1,
      "note": 35,
      "start": 120.3204,
      "duration": 0.0903,
      "velocity": 92,
      "chip": "ym2612"
    },
    {
      "channel": 2,
      "note": 49,
      "start": 120.462,
      "duration": 0.1988,
      "velocity": 106,
      "chip": "ym2612"
    },
    {
      "channel": 1,
      "note": 54,
      "start": 120.4647,
      "duration": 0.0792,
      "velocity": 92,
      "chip": "ym2612"
    },
    {
      "channel": 4,
      "note": 49,
      "start": 120.4679,
      "duration": 0.1429,
      "velocity": 108,
      "chip": "ym2612"
    },
    {
      "channel": 0,
      "note": 42,
      "start": 120.4711,
      "duration": 0.1395,
      "velocity": 108,
      "chip": "ym2612"
    },
    {
      "channel": 5,
      "note": 44,
      "start": 120.5641,
      "duration": 0.0966,
      "velocity": 125,
      "chip": "ym2612"
    },
    {
      "channel": 2,
      "note": 81,
      "start": 120.699,
      "duration": 0.0951,
      "velocity": 104,
      "chip": "ym2612"
    },
    {
      "channel": 3,
      "note": 49,
      "start": 120.7045,
      "duration": 0.0728,
      "velocity": 109,
      "chip": "ym2612"
    },
    {
      "channel": 1,
      "note": 42,
      "start": 120.7073,
      "duration": 0.0698,
      "velocity": 109,
      "chip": "ym2612"
    },
    {
      "channel": 2,
      "note": 49,
      "start": 120.8172,
      "duration": 0.0937,
      "velocity": 106,
      "chip": "ym2612"
    },
    {
      "channel": 0,
      "note": 54,
      "start": 120.8205,
      "duration": 0.09,
      "velocity": 92,
      "chip": "ym2612"
    },
    {
      "channel": 4,
      "note": 49,
      "start": 120.8235,
      "duration": 0.1371,
      "velocity": 108,
      "chip": "ym2612"
    },
    {
      "channel": 5,
      "note": 42,
      "start": 120.8268,
      "duration": 0.134,
      "velocity": 108,
      "chip": "ym2612"
    },
    {
      "channel": 1,
      "note": 44,
      "start": 120.9493,
      "duration": 0.0945,
      "velocity": 125,
      "chip": "ym2612"
    },
    {
      "channel": 2,
      "note": 49,
      "start": 121.0671,
      "duration": 0.0939,
      "velocity": 106,
      "chip": "ym2612"
    },
    {
      "channel": 0,
      "note": 54,
      "start": 121.0696,
      "duration": 0.0909,
      "velocity": 92,
      "chip": "ym2612"
    },
    {
      "channel": 4,
      "note": 49,
      "start": 121.0727,
      "duration": 0.0881,
      "velocity": 108,
      "chip": "ym2612"
    },
    {
      "channel": 5,
      "note": 42,
      "start": 121.0753,
      "duration": 0.0856,
      "velocity": 108,
      "chip": "ym2612"
    },
    {
      "channel": 1,
      "note": 44,
      "start": 121.1971,
      "duration": 0.0967,
      "velocity": 125,
      "chip": "ym2612"
    },
    {
      "channel": 2,
      "note": 49,
      "start": 121.3176,
      "duration": 0.1101,
      "velocity": 106,
      "chip": "ym2612"
    },
    {
      "channel": 0,
      "note": 54,
      "start": 121.3203,
      "duration": 0.1069,
      "velocity": 92,
      "chip": "ym2612"
    },
    {
      "channel": 4,
      "note": 49,
      "start": 121.3232,
      "duration": 0.1043,
      "velocity": 108,
      "chip": "ym2612"
    },
    {
      "channel": 5,
      "note": 42,
      "start": 121.3264,
      "duration": 0.1012,
      "velocity": 108,
      "chip": "ym2612"
    },
    {
      "channel": 2,
      "note": 81,
      "start": 121.4491,
      "duration": 0.095,
      "velocity": 104,
      "chip": "ym2612"
    },
    {
      "channel": 3,
      "note": 49,
      "start": 121.4563,
      "duration": 0.221,
      "velocity": 109,
      "chip": "ym2612"
    },
    {
      "channel": 1,
      "note": 42,
      "start": 121.4593,
      "duration": 0.2179,
      "velocity": 109,
      "chip": "ym2612"
    },
    {
      "channel": 2,
      "note": 44,
      "start": 121.7017,
      "duration": 0.0927,
      "velocity": 125,
      "chip": "ym2612"
    },
    {
      "channel": 0,
      "note": 54,
      "start": 121.707,
      "duration": 0.0868,
      "velocity": 92,
      "chip": "ym2612"
    },
    {
      "channel": 4,
      "note": 49,
      "start": 121.7108,
      "duration": 0.0833,
      "velocity": 108,
      "chip": "ym2612"
    },
    {
      "channel": 5,
      "note": 42,
      "start": 121.7135,
      "duration": 0.0807,
      "velocity": 108,
      "chip": "ym2612"
    },
    {
      "channel": 2,
      "note": 44,
      "start": 121.8163,
      "duration": 0.1112,
      "velocity": 125,
      "chip": "ym2612"
    },
    {
      "channel": 0,
      "note": 54,
      "start": 121.8195,
      "duration": 0.1076,
      "velocity": 92,
      "chip": "ym2612"
    },
    {
      "channel": 4,
      "note": 49,
      "start": 121.8223,
      "duration": 0.105,
      "velocity": 108,
      "chip": "ym2612"
    },
    {
      "channel": 5,
      "note": 42,
      "start": 121.825,
      "duration": 0.1025,
      "velocity": 108,
      "chip": "ym2612"
    },
    {
      "channel": 2,
      "note": 49,
      "start": 121.9482,
      "duration": 0.0961,
      "velocity": 106,
      "chip": "ym2612"
    },
    {
      "channel": 0,
      "note": 54,
      "start": 121.9506,
      "duration": 0.0932,
      "velocity": 92,
      "chip": "ym2612"
    },
    {
      "channel": 1,
      "note": 49,
      "start": 121.9535,
      "duration": 0.0905,
      "velocity": 109,
      "chip": "ym2612"
    },
    {
      "channel": 3,
      "note": 42,
      "start": 121.956,
      "duration": 0.088,
      "velocity": 109,
      "chip": "ym2612"
    },
    {
      "channel": 2,
      "note": 49,
      "start": 122.0647,
      "duration": 0.113,
      "velocity": 106,
      "chip": "ym2612"
    },
    {
      "channel": 0,
      "note": 54,
      "start": 122.0672,
      "duration": 0.11,
      "velocity": 92,
      "chip": "ym2612"
    },
    {
      "channel": 1,
      "note": 49,
      "start": 122.0702,
      "duration": 0.1071,
      "velocity": 109,
      "chip": "ym2612"
    },
    {
      "channel": 3,
      "note": 42,
      "start": 122.0728,
      "duration": 0.1046,
      "velocity": 109,
      "chip": "ym2612"
    },
    {
      "channel": 4,
      "note": 44,
      "start": 122.1997,
      "duration": 0.0943,
      "velocity": 125,
      "chip": "ym2612"
    },
    {
      "channel": 2,
      "note": 49,
      "start": 122.2037,
      "duration": 0.0905,
      "velocity": 106,
      "chip": "ym2612"
    },
    {
      "channel": 0,
      "note": 54,
      "start": 122.2063,
      "duration": 0.0875,
      "velocity": 92,
      "chip": "ym2612"
    },
    {
      "channel": 5,
      "note": 49,
      "start": 122.2099,
      "duration": 0.0675,
      "velocity": 108,
      "chip": "ym2612"
    },
    {
      "channel": 1,
      "note": 42,
      "start": 122.2127,
      "duration": 0.0644,
      "velocity": 108,
      "chip": "ym2612"
    },
    {
      "channel": 2,
      "note": 81,
      "start": 122.3156,
      "duration": 0.1117,
      "velocity": 104,
      "chip": "ym2612"
    },
    {
      "channel": 4,
      "note": 44,
      "start": 122.449,
      "duration": 0.095,
      "velocity": 125,
      "chip": "ym2612"
    },
    {
      "channel": 2,
      "note": 49,
      "start": 122.4568,
      "duration": 0.0875,
      "velocity": 106,
      "chip": "ym2612"
    },
    {
      "channel": 0,
      "note": 54,
      "start": 122.46,
      "duration": 0.0839,
      "velocity": 92,
      "chip": "ym2612"
    },
    {
      "channel": 4,
      "note": 44,
      "start": 122.5837,
      "duration": 0.0936,
      "velocity": 125,
      "chip": "ym2612"
    },
    {
      "channel": 2,
      "note": 49,
      "start": 122.5877,
      "duration": 0.0899,
      "velocity": 106,
      "chip": "ym2612"
    },
    {
      "channel": 0,
      "note": 42,
      "start": 122.5908,
      "duration": 0.2031,
      "velocity": 92,
      "chip": "ym2612"
    },
    {
      "channel": 1,
      "note": 49,
      "start": 122.5943,
      "duration": 0.0996,
      "velocity": 108,
      "chip": "ym2612"
    },
    {
      "channel": 5,
      "note": 42,
      "start": 122.5974,
      "duration": 0.0968,
      "velocity": 108,
      "chip": "ym2612"
    },
    {
      "channel": 4,
      "note": 44,
      "start": 122.8333,
      "duration": 0.0941,
      "velocity": 125,
      "chip": "ym2612"
    },
    {
      "channel": 2,
      "note": 49,
      "start": 122.8376,
      "duration": 0.09,
      "velocity": 106,
      "chip": "ym2612"
    },
    {
      "channel": 0,
      "note": 42,
      "start": 122.8404,
      "duration": 0.0867,
      "velocity": 92,
      "chip": "ym2612"
    },
    {
      "channel": 3,
      "note": 49,
      "start": 122.8438,
      "duration": 0.2002,
      "velocity": 109,
      "chip": "ym2612"
    },
    {
      "channel": 1,
      "note": 42,
      "start": 122.8466,
      "duration": 0.1973,
      "velocity": 109,
      "chip": "ym2612"
    },
    {
      "channel": 2,
      "note": 81,
      "start": 122.9489,
      "duration": 0.1285,
      "velocity": 104,
      "chip": "ym2612"
    },
    {
      "channel": 4,
      "note": 44,
      "start": 123.2025,
      "duration": 0.0915,
      "velocity": 125,
      "chip": "ym2612"
    },
    {
      "channel": 2,
      "note": 49,
      "start": 123.2083,
      "duration": 0.086,
      "velocity": 106,
      "chip": "ym2612"
    },
    {
      "channel": 0,
      "note": 54,
      "start": 123.2115,
      "duration": 0.0824,
      "velocity": 92,
      "chip": "ym2612"
    },
    {
      "channel": 4,
      "note": 44,
      "start": 123.3332,
      "duration": 0.0943,
      "velocity": 125,
      "chip": "ym2612"
    },
    {
      "channel": 2,
      "note": 49,
      "start": 123.3369,
      "duration": 0.0907,
      "velocity": 106,
      "chip": "ym2612"
    },
    {
      "channel": 0,
      "note": 42,
      "start": 123.3397,
      "duration": 0.2209,
      "velocity": 92,
      "chip": "ym2612"
    },
    {
      "channel": 1,
      "note": 49,
      "start": 123.3431,
      "duration": 0.0841,
      "velocity": 109,
      "chip": "ym2612"
    },
    {
      "channel": 3,
      "note": 42,
      "start": 123.3457,
      "duration": 0.0815,
      "velocity": 109,
      "chip": "ym2612"
    },
    {
      "channel": 2,
      "note": 81,
      "start": 123.4487,
      "duration": 0.1122,
      "velocity": 104,
      "chip": "ym2612"
    },
    {
      "channel": 4,
      "note": 44,
      "start": 123.5851,
      "duration": 0.1088,
      "velocity": 125,
      "chip": "ym2612"
    },
    {
      "channel": 2,
      "note": 49,
      "start": 123.5907,
      "duration": 0.0869,
      "velocity": 106,
      "chip": "ym2612"
    },
    {
      "channel": 0,
      "note": 42,
      "start": 123.594,
      "duration": 0.0832,
      "velocity": 92,
      "chip": "ym2612"
    },
    {
      "channel": 5,
      "note": 49,
      "start": 123.5971,
      "duration": 0.2471,
      "velocity": 108,
      "chip": "ym2612"
    },
    {
      "channel": 1,
      "note": 42,
      "start": 123.5999,
      "duration": 0.2441,
      "velocity": 108,
      "chip": "ym2612"
    },
    {
      "channel": 2,
      "note": 49,
      "start": 123.8315,
      "duration": 0.0959,
      "velocity": 106,
      "chip": "ym2612"
    },
    {
      "channel": 4,
      "note": 44,
      "start": 123.9496,
      "duration": 0.1276,
      "velocity": 125,
      "chip": "ym2612"
    },
    {
      "channel": 0,
      "note": 54,
      "start": 123.9534,
      "duration": 0.1571,
      "velocity": 92,
      "chip": "ym2612"
    },
    {
      "channel": 1,
      "note": 49,
      "start": 123.9564,
      "duration": 0.1041,
      "velocity": 108,
      "chip": "ym2612"
    },
    {
      "channel": 5,
      "note": 42,
      "start": 123.9597,
      "duration": 0.101,
      "velocity": 108,
      "chip": "ym2612"
    },
    {
      "channel": 2,
      "note": 81,
      "start": 124.1992,
      "duration": 0.2283,
      "velocity": 104,
      "chip": "ym2612"
    },
    {
      "channel": 0,
      "note": 54,
      "start": 124.2046,
      "duration": 0.1059,
      "velocity": 92,
      "chip": "ym2612"
    },
    {
      "channel": 3,
      "note": 49,
      "start": 124.208,
      "duration": 0.2193,
      "velocity": 109,
      "chip": "ym2612"
    },
    {
      "channel": 1,
      "note": 42,
      "start": 124.2112,
      "duration": 0.2159,
      "velocity": 109,
      "chip": "ym2612"
    },
    {
      "channel": 2,
      "note": 49,
      "start": 124.4488,
      "duration": 0.2118,
      "velocity": 95,
      "chip": "ym2612"
    },
    {
      "channel": 5,
      "note": 48,
      "start": 124.4604,
      "duration": 3.9839,
      "velocity": 125,
      "chip": "ym2612"
    },
    {
      "channel": 0,
      "note": 36,
      "start": 124.463,
      "duration": 0.0975,
      "velocity": 92,
      "chip": "ym2612"
    },
    {
      "channel": 1,
      "note": 52,
      "start": 124.4662,
      "duration": 3.9778,
      "velocity": 109,
      "chip": "ym2612"
    },
    {
      "channel": 0,
      "note": 36,
      "start": 124.581,
      "duration": 0.0961,
      "velocity": 92,
      "chip": "ym2612"
    },
    {
      "channel": 0,
      "note": 36,
      "start": 124.7183,
      "duration": 0.0922,
      "velocity": 92,
      "chip": "ym2612"
    },
    {
      "channel": 4,
      "note": 44,
      "start": 124.8361,
      "duration": 0.0914,
      "velocity": 125,
      "chip": "ym2612"
    },
    {
      "channel": 0,
      "note": 36,
      "start": 124.8389,
      "duration": 0.0884,
      "velocity": 92,
      "chip": "ym2612"
    },
    {
      "channel": 0,
      "note": 36,
      "start": 124.9641,
      "duration": 0.0964,
      "velocity": 92,
      "chip": "ym2612"
    },
    {
      "channel": 0,
      "note": 36,
      "start": 125.0807,
      "duration": 0.0964,
      "velocity": 92,
      "chip": "ym2612"
    },
    {
      "channel": 2,
      "note": 49,
      "start": 125.2155,
      "duration": 0.212,
      "velocity": 106,
      "chip": "ym2612"
    },
    {
      "channel": 0,
      "note": 36,
      "start": 125.2205,
      "duration": 0.0898,
      "velocity": 92,
      "chip": "ym2612"
    },
    {
      "channel": 0,
      "note": 36,
      "start": 125.3322,
      "duration": 0.0949,
      "velocity": 92,
      "chip": "ym2612"
    },
    {
      "channel": 0,
      "note": 36,
      "start": 125.4657,
      "duration": 0.0947,
      "velocity": 92,
      "chip": "ym2612"
    },
    {
      "channel": 0,
      "note": 36,
      "start": 125.5806,
      "duration": 0.1132,
      "velocity": 92,
      "chip": "ym2612"
    },
    {
      "channel": 2,
      "note": 49,
      "start": 125.7159,
      "duration": 0.0949,
      "velocity": 95,
      "chip": "ym2612"
    },
    {
      "channel": 0,
      "note": 36,
      "start": 125.7233,
      "duration": 0.0872,
      "velocity": 92,
      "chip": "ym2612"
    },
    {
      "channel": 4,
      "note": 40,
      "start": 125.8317,
      "duration": 0.1123,
      "velocity": 125,
      "chip": "ym2612"
    },
    {
      "channel": 0,
      "note": 36,
      "start": 125.8345,
      "duration": 0.1093,
      "velocity": 92,
      "chip": "ym2612"
    },
    {
      "channel": 4,
      "note": 40,
      "start": 125.9695,
      "duration": 0.0913,
      "velocity": 125,
      "chip": "ym2612"
    },
    {
      "channel": 0,
      "note": 36,
      "start": 125.9728,
      "duration": 0.0877,
      "velocity": 92,
      "chip": "ym2612"
    },
    {
      "channel": 2,
      "note": 49,
      "start": 126.0824,
      "duration": 0.0784,
      "velocity": 95,
      "chip": "ym2612"
    },
    {
      "channel": 0,
      "note": 36,
      "start": 126.0854,
      "duration": 0.1085,
      "velocity": 92,
      "chip": "ym2612"
    },
    {
      "channel": 0,
      "note": 36,
      "start": 126.2148,
      "duration": 0.0957,
      "velocity": 92,
      "chip": "ym2612"
    },
    {
      "channel": 0,
      "note": 36,
      "start": 126.3328,
      "duration": 0.1111,
      "velocity": 92,
      "chip": "ym2612"
    },
    {
      "channel": 2,
      "note": 49,
      "start": 126.4642,
      "duration": 0.1966,
      "velocity": 95,
      "chip": "ym2612"
    },
    {
      "channel": 0,
      "note": 38,
      "start": 126.4711,
      "duration": 0.0895,
      "velocity": 92,
      "chip": "ym2612"
    },
    {
      "channel": 0,
      "note": 38,
      "start": 126.5807,
      "duration": 0.1132,
      "velocity": 92,
      "chip": "ym2612"
    },
    {
      "channel": 0,
      "note": 38,
      "start": 126.7146,
      "duration": 0.096,
      "velocity": 92,
      "chip": "ym2612"
    },
    {
      "channel": 4,
      "note": 44,
      "start": 126.8515,
      "duration": 0.1093,
      "velocity": 125,
      "chip": "ym2612"
    },
    {
      "channel": 0,
      "note": 38,
      "start": 126.8543,
      "duration": 0.0896,
      "velocity": 92,
      "chip": "ym2612"
    },
    {
      "channel": 0,
      "note": 38,
      "start": 126.9644,
      "duration": 0.0962,
      "velocity": 92,
      "chip": "ym2612"
    },
    {
      "channel": 0,
      "note": 38,
      "start": 127.0989,
      "duration": 0.095,
      "velocity": 92,
      "chip": "ym2612"
    },
    {
      "channel": 2,
      "note": 49,
      "start": 127.2156,
      "duration": 0.2286,
      "velocity": 106,
      "chip": "ym2612"
    },
    {
      "channel": 0,
      "note": 38,
      "start": 127.2207,
      "duration": 0.0899,
      "velocity": 92,
      "chip": "ym2612"
    },
    {
      "channel": 0,
      "note": 38,
      "start": 127.3473,
      "duration": 0.0965,
      "velocity": 92,
      "chip": "ym2612"
    },
    {
      "channel": 0,
      "note": 38,
      "start": 127.4665,
      "duration": 0.0941,
      "velocity": 92,
      "chip": "ym2612"
    },
    {
      "channel": 0,
      "note": 38,
      "start": 127.598,
      "duration": 0.0959,
      "velocity": 92,
      "chip": "ym2612"
    },
    {
      "channel": 2,
      "note": 49,
      "start": 127.7159,
      "duration": 0.1117,
      "velocity": 95,
      "chip": "ym2612"
    },
    {
      "channel": 0,
      "note": 38,
      "start": 127.7214,
      "duration": 0.1058,
      "velocity": 92,
      "chip": "ym2612"
    },
    {
      "channel": 4,
      "note": 40,
      "start": 127.8487,
      "duration": 0.0954,
      "velocity": 125,
      "chip": "ym2612"
    },
    {
      "channel": 0,
      "note": 38,
      "start": 127.8515,
      "duration": 0.0924,
      "velocity": 92,
      "chip": "ym2612"
    },
    {
      "channel": 4,
      "note": 40,
      "start": 127.9694,
      "duration": 0.1081,
      "velocity": 125,
      "chip": "ym2612"
    },
    {
      "channel": 0,
      "note": 38,
      "start": 127.9744,
      "duration": 0.1029,
      "velocity": 92,
      "chip": "ym2612"
    },
    {
      "channel": 4,
      "note": 40,
      "start": 128.0994,
      "duration": 0.0947,
      "velocity": 125,
      "chip": "ym2612"
    },
    {
      "channel": 0,
      "note": 38,
      "start": 128.1027,
      "duration": 0.0912,
      "velocity": 92,
      "chip": "ym2612"
    },
    {
      "channel": 2,
      "note": 81,
      "start": 128.2164,
      "duration": 0.2111,
      "velocity": 104,
      "chip": "ym2612"
    },
    {
      "channel": 0,
      "note": 38,
      "start": 128.2201,
      "duration": 0.1071,
      "velocity": 92,
      "chip": "ym2612"
    },
    {
      "channel": 0,
      "note": 38,
      "start": 128.348,
      "duration": 0.0959,
      "velocity": 92,
      "chip": "ym2612"
    },
    {
      "channel": 2,
      "note": 49,
      "start": 128.4784,
      "duration": 0.1156,
      "velocity": 106,
      "chip": "ym2612"
    },
    {
      "channel": 0,
      "note": 54,
      "start": 128.481,
      "duration": 0.0461,
      "velocity": 92,
      "chip": "ym2612"
    },
    {
      "channel": 1,
      "note": 63,
      "start": 128.4848,
      "duration": 0.2091,
      "velocity": 109,
      "chip": "ym2612"
    },
    {
      "channel": 3,
      "note": 56,
      "start": 128.4873,
      "duration": 0.2067,
      "velocity": 109,
      "chip": "ym2612"
    },
    {
      "channel": 0,
      "note": 54,
      "start": 128.5974,
      "duration": 0.0632,
      "velocity": 92,
      "chip": "ym2612"
    },
    {
      "channel": 4,
      "note": 44,
      "start": 128.7142,
      "duration": 0.1298,
      "velocity": 125,
      "chip": "ym2612"
    },
    {
      "channel": 0,
      "note": 54,
      "start": 128.7176,
      "duration": 0.0595,
      "velocity": 92,
      "chip": "ym2612"
    },
    {
      "channel": 5,
      "note": 54,
      "start": 128.7211,
      "duration": 0.0728,
      "velocity": 108,
      "chip": "ym2612"
    },
    {
      "channel": 2,
      "note": 47,
      "start": 128.7239,
      "duration": 0.0702,
      "velocity": 108,
      "chip": "ym2612"
    },
    {
      "channel": 2,
      "note": 49,
      "start": 128.8506,
      "duration": 0.0936,
      "velocity": 106,
      "chip": "ym2612"
    },
    {
      "channel": 0,
      "note": 54,
      "start": 128.8534,
      "duration": 0.0905,
      "velocity": 92,
      "chip": "ym2612"
    },
    {
      "channel": 1,
      "note": 54,
      "start": 128.8563,
      "duration": 0.1376,
      "velocity": 109,
      "chip": "ym2612"
    },
    {
      "channel": 3,
      "note": 47,
      "start": 128.8588,
      "duration": 0.1352,
      "velocity": 109,
      "chip": "ym2612"
    },
    {
      "channel": 2,
      "note": 49,
      "start": 129.1001,
      "duration": 0.0941,
      "velocity": 106,
      "chip": "ym2612"
    },
    {
      "channel": 0,
      "note": 54,
      "start": 129.1026,
      "duration": 0.0912,
      "velocity": 92,
      "chip": "ym2612"
    },
    {
      "channel": 5,
      "note": 54,
      "start": 129.1057,
      "duration": 0.0884,
      "velocity": 108,
      "chip": "ym2612"
    },
    {
      "channel": 4,
      "note": 47,
      "start": 129.1085,
      "duration": 0.0856,
      "velocity": 108,
      "chip": "ym2612"
    },
    {
      "channel": 2,
      "note": 49,
      "start": 129.3511,
      "duration": 0.0932,
      "velocity": 106,
      "chip": "ym2612"
    },
    {
      "channel": 0,
      "note": 54,
      "start": 129.3537,
      "duration": 0.0901,
      "velocity": 92,
      "chip": "ym2612"
    },
    {
      "channel": 4,
      "note": 54,
      "start": 129.3566,
      "duration": 0.0875,
      "velocity": 108,
      "chip": "ym2612"
    },
    {
      "channel": 5,
      "note": 47,
      "start": 129.3599,
      "duration": 0.0844,
      "velocity": 108,
      "chip": "ym2612"
    },
    {
      "channel": 1,
      "note": 44,
      "start": 129.4814,
      "duration": 0.1125,
      "velocity": 125,
      "chip": "ym2612"
    },
    {
      "channel": 3,
      "note": 61,
      "start": 129.4869,
      "duration": 0.2071,
      "velocity": 109,
      "chip": "ym2612"
    },
    {
      "channel": 0,
      "note": 54,
      "start": 129.4896,
      "duration": 0.2042,
      "velocity": 109,
      "chip": "ym2612"
    },
    {
      "channel": 4,
      "note": 54,
      "start": 129.7338,
      "duration": 0.0435,
      "velocity": 92,
      "chip": "ym2612"
    },
    {
      "channel": 5,
      "note": 54,
      "start": 129.7368,
      "duration": 0.0905,
      "velocity": 108,
      "chip": "ym2612"
    },
    {
      "channel": 2,
      "note": 47,
      "start": 129.74,
      "duration": 0.0875,
      "velocity": 108,
      "chip": "ym2612"
    },
    {
      "channel": 4,
      "note": 54,
      "start": 129.8497,
      "duration": 0.0609,
      "velocity": 92,
      "chip": "ym2612"
    },
    {
      "channel": 5,
      "note": 54,
      "start": 129.8526,
      "duration": 0.1081,
      "velocity": 108,
      "chip": "ym2612"
    },
    {
      "channel": 2,
      "note": 47,
      "start": 129.8554,
      "duration": 0.1055,
      "velocity": 108,
      "chip": "ym2612"
    },
    {
      "channel": 1,
      "note": 44,
      "start": 129.9806,
      "duration": 0.1132,
      "velocity": 125,
      "chip": "ym2612"
    },
    {
      "channel": 2,
      "note": 49,
      "start": 129.9846,
      "duration": 0.0929,
      "velocity": 106,
      "chip": "ym2612"
    },
    {
      "channel": 4,
      "note": 54,
      "start": 129.9876,
      "duration": 0.0563,
      "velocity": 92,
      "chip": "ym2612"
    },
    {
      "channel": 0,
      "note": 47,
      "start": 129.9907,
      "duration": 0.0864,
      "velocity": 109,
      "chip": "ym2612"
    },
    {
      "channel": 3,
      "note": 54,
      "start": 129.9938,
      "duration": 0.0834,
      "velocity": 109,
      "chip": "ym2612"
    },
    {
      "channel": 4,
      "note": 54,
      "start": 130.0976,
      "duration": 0.0631,
      "velocity": 92,
      "chip": "ym2612"
    },
    {
      "channel": 0,
      "note": 47,
      "start": 130.1002,
      "duration": 0.1102,
      "velocity": 109,
      "chip": "ym2612"
    },
    {
      "channel": 3,
      "note": 54,
      "start": 130.1028,
      "duration": 0.1078,
      "velocity": 109,
      "chip": "ym2612"
    },
    {
      "channel": 1,
      "note": 44,
      "start": 130.2328,
      "duration": 0.1111,
      "velocity": 125,
      "chip": "ym2612"
    },
    {
      "channel": 2,
      "note": 49,
      "start": 130.2366,
      "duration": 0.0909,
      "velocity": 106,
      "chip": "ym2612"
    },
    {
      "channel": 4,
      "note": 54,
      "start": 130.2396,
      "duration": 0.1044,
      "velocity": 92,
      "chip": "ym2612"
    },
    {
      "channel": 5,
      "note": 54,
      "start": 130.2432,
      "duration": 0.0677,
      "velocity": 108,
      "chip": "ym2612"
    },
    {
      "channel": 0,
      "note": 47,
      "start": 130.246,
      "duration": 0.0646,
      "velocity": 108,
      "chip": "ym2612"
    },
    {
      "channel": 3,
      "note": 47,
      "start": 130.3481,
      "duration": 0.2126,
      "velocity": 109,
      "chip": "ym2612"
    },
    {
      "channel": 0,
      "note": 54,
      "start": 130.3508,
      "duration": 0.2097,
      "velocity": 109,
      "chip": "ym2612"
    },
    {
      "channel": 2,
      "note": 49,
      "start": 130.4837,
      "duration": 0.0936,
      "velocity": 106,
      "chip": "ym2612"
    },
    {
      "channel": 4,
      "note": 53,
      "start": 130.4866,
      "duration": 0.0574,
      "velocity": 92,
      "chip": "ym2612"
    },
    {
      "channel": 1,
      "note": 44,
      "start": 130.6001,
      "duration": 0.1271,
      "velocity": 125,
      "chip": "ym2612"
    },
    {
      "channel": 4,
      "note": 53,
      "start": 130.6032,
      "duration": 0.0574,
      "velocity": 92,
      "chip": "ym2612"
    },
    {
      "channel": 5,
      "note": 51,
      "start": 130.6063,
      "duration": 0.1045,
      "velocity": 108,
      "chip": "ym2612"
    },
    {
      "channel": 0,
      "note": 44,
      "start": 130.6092,
      "duration": 0.1013,
      "velocity": 108,
      "chip": "ym2612"
    },
    {
      "channel": 4,
      "note": 53,
      "start": 130.731,
      "duration": 0.0629,
      "velocity": 92,
      "chip": "ym2612"
    },
    {
      "channel": 0,
      "note": 51,
      "start": 130.7341,
      "duration": 0.093,
      "velocity": 108,
      "chip": "ym2612"
    },
    {
      "channel": 5,
      "note": 44,
      "start": 130.7368,
      "duration": 0.0906,
      "velocity": 108,
      "chip": "ym2612"
    },
    {
      "channel": 2,
      "note": 49,
      "start": 130.85,
      "duration": 0.111,
      "velocity": 106,
      "chip": "ym2612"
    },
    {
      "channel": 4,
      "note": 53,
      "start": 130.853,
      "duration": 0.2077,
      "velocity": 92,
      "chip": "ym2612"
    },
    {
      "channel": 3,
      "note": 63,
      "start": 130.8559,
      "duration": 0.1048,
      "velocity": 109,
      "chip": "ym2612"
    },
    {
      "channel": 1,
      "note": 56,
      "start": 130.8592,
      "duration": 0.1014,
      "velocity": 109,
      "chip": "ym2612"
    },
    {
      "channel": 0,
      "note": 44,
      "start": 130.981,
      "duration": 0.1295,
      "velocity": 125,
      "chip": "ym2612"
    },
    {
      "channel": 5,
      "note": 51,
      "start": 130.9851,
      "duration": 0.0924,
      "velocity": 108,
      "chip": "ym2612"
    },
    {
      "channel": 1,
      "note": 44,
      "start": 130.9878,
      "duration": 0.0894,
      "velocity": 108,
      "chip": "ym2612"
    },
    {
      "channel": 2,
      "note": 49,
      "start": 131.1174,
      "duration": 0.0934,
      "velocity": 106,
      "chip": "ym2612"
    },
    {
      "channel": 1,
      "note": 51,
      "start": 131.1203,
      "duration": 0.0902,
      "velocity": 108,
      "chip": "ym2612"
    },
    {
      "channel": 5,
      "note": 44,
      "start": 131.123,
      "duration": 0.0877,
      "velocity": 108,
      "chip": "ym2612"
    },
    {
      "channel": 4,
      "note": 53,
      "start": 131.231,
      "duration": 0.2129,
      "velocity": 92,
      "chip": "ym2612"
    },
    {
      "channel": 3,
      "note": 63,
      "start": 131.2339,
      "duration": 0.2267,
      "velocity": 109,
      "chip": "ym2612"
    },
    {
      "channel": 0,
      "note": 56,
      "start": 131.2367,
      "duration": 0.2237,
      "velocity": 109,
      "chip": "ym2612"
    },
    {
      "channel": 1,
      "note": 44,
      "start": 131.4835,
      "duration": 0.1271,
      "velocity": 125,
      "chip": "ym2612"
    },
    {
      "channel": 4,
      "note": 49,
      "start": 131.4893,
      "duration": 0.0547,
      "velocity": 92,
      "chip": "ym2612"
    },
    {
      "channel": 0,
      "note": 51,
      "start": 131.4921,
      "duration": 0.0851,
      "velocity": 109,
      "chip": "ym2612"
    },
    {
      "channel": 3,
      "note": 44,
      "start": 131.4952,
      "duration": 0.0821,
      "velocity": 109,
      "chip": "ym2612"
    },
    {
      "channel": 2,
      "note": 49,
      "start": 131.615,
      "duration": 0.0959,
      "velocity": 106,
      "chip": "ym2612"
    },
    {
      "channel": 4,
      "note": 49,
      "start": 131.6176,
      "duration": 0.043,
      "velocity": 92,
      "chip": "ym2612"
    },
    {
      "channel": 5,
      "note": 51,
      "start": 131.6205,
      "duration": 0.0903,
      "velocity": 108,
      "chip": "ym2612"
    },
    {
      "channel": 0,
      "note": 44,
      "start": 131.6233,
      "duration": 0.0872,
      "velocity": 108,
      "chip": "ym2612"
    },
    {
      "channel": 2,
      "note": 49,
      "start": 131.7315,
      "duration": 0.0961,
      "velocity": 106,
      "chip": "ym2612"
    },
    {
      "channel": 4,
      "note": 49,
      "start": 131.7341,
      "duration": 0.0598,
      "velocity": 92,
      "chip": "ym2612"
    },
    {
      "channel": 0,
      "note": 51,
      "start": 131.7373,
      "duration": 0.0899,
      "velocity": 108,
      "chip": "ym2612"
    },
    {
      "channel": 5,
      "note": 44,
      "start": 131.74,
      "duration": 0.0875,
      "velocity": 108,
      "chip": "ym2612"
    },
    {
      "channel": 1,
      "note": 44,
      "start": 131.8662,
      "duration": 0.1111,
      "velocity": 125,
      "chip": "ym2612"
    },
    {
      "channel": 4,
      "note": 49,
      "start": 131.8698,
      "duration": 0.1907,
      "velocity": 92,
      "chip": "ym2612"
    },
    {
      "channel": 3,
      "note": 51,
      "start": 131.8727,
      "duration": 0.0712,
      "velocity": 109,
      "chip": "ym2612"
    },
    {
      "channel": 0,
      "note": 44,
      "start": 131.8755,
      "duration": 0.0683,
      "velocity": 109,
      "chip": "ym2612"
    },
    {
      "channel": 5,
      "note": 51,
      "start": 131.9815,
      "duration": 0.0791,
      "velocity": 108,
      "chip": "ym2612"
    },
    {
      "channel": 2,
      "note": 44,
      "start": 131.9844,
      "duration": 0.0765,
      "velocity": 108,
      "chip": "ym2612"
    },
    {
      "channel": 1,
      "note": 44,
      "start": 132.1164,
      "duration": 0.1109,
      "velocity": 125,
      "chip": "ym2612"
    },
    {
      "channel": 0,
      "note": 51,
      "start": 132.1204,
      "duration": 0.3401,
      "velocity": 109,
      "chip": "ym2612"
    },
    {
      "channel": 3,
      "note": 44,
      "start": 132.123,
      "duration": 0.3377,
      "velocity": 109,
      "chip": "ym2612"
    },
    {
      "channel": 4,
      "note": 49,
      "start": 132.2312,
      "duration": 0.2128,
      "velocity": 92,
      "chip": "ym2612"
    },
    {
      "channel": 2,
      "note": 49,
      "start": 132.4854,
      "duration": 0.1086,
      "velocity": 106,
      "chip": "ym2612"
    },
    {
      "channel": 4,
      "note": 50,
      "start": 132.4884,
      "duration": 0.0556,
      "velocity": 92,
      "chip": "ym2612"
    },
    {
      "channel": 5,
      "note": 57,
      "start": 132.4915,
      "duration": 0.1526,
      "velocity": 108,
      "chip": "ym2612"
    },
    {
      "channel": 1,
      "note": 50,
      "start": 132.4948,
      "duration": 0.1492,
      "velocity": 108,
      "chip": "ym2612"
    },
    {
      "channel": 4,
      "note": 50,
      "start": 132.6142,
      "duration": 0.0632,
      "velocity": 92,
      "chip": "ym2612"
    },
    {
      "channel": 0,
      "note": 44,
      "start": 132.7313,
      "duration": 0.1292,
      "velocity": 125,
      "chip": "ym2612"
    },
    {
      "channel": 4,
      "note": 50,
      "start": 132.7346,
      "duration": 0.0594,
      "velocity": 92,
      "chip": "ym2612"
    },
    {
      "channel": 3,
      "note": 57,
      "start": 132.7375,
      "duration": 0.0732,
      "velocity": 109,
      "chip": "ym2612"
    },
    {
      "channel": 2,
      "note": 50,
      "start": 132.7403,
      "duration": 0.0705,
      "velocity": 109,
      "chip": "ym2612"
    },
    {
      "channel": 2,
      "note": 49,
      "start": 132.8674,
      "duration": 0.0934,
      "velocity": 106,
      "chip": "ym2612"
    },
    {
      "channel": 4,
      "note": 50,
      "start": 132.8708,
      "duration": 0.0899,
      "velocity": 92,
      "chip": "ym2612"
    },
    {
      "channel": 1,
      "note": 57,
      "start": 132.8741,
      "duration": 0.1364,
      "velocity": 108,
      "chip": "ym2612"
    },
    {
      "channel": 5,
      "note": 50,
      "start": 132.8773,
      "duration": 0.1334,
      "velocity": 108,
      "chip": "ym2612"
    },
    {
      "channel": 2,
      "note": 49,
      "start": 133.1168,
      "duration": 0.0943,
      "velocity": 106,
      "chip": "ym2612"
    },
    {
      "channel": 4,
      "note": 50,
      "start": 133.1194,
      "duration": 0.0914,
      "velocity": 92,
      "chip": "ym2612"
    },
    {
      "channel": 1,
      "note": 57,
      "start": 133.1224,
      "duration": 0.0882,
      "velocity": 108,
      "chip": "ym2612"
    },
    {
      "channel": 5,
      "note": 50,
      "start": 133.1251,
      "duration": 0.0858,
      "velocity": 108,
      "chip": "ym2612"
    },
    {
      "channel": 2,
      "note": 49,
      "start": 133.3678,
      "duration": 0.0929,
      "velocity": 106,
      "chip": "ym2612"
    },
    {
      "channel": 4,
      "note": 50,
      "start": 133.3707,
      "duration": 0.2066,
      "velocity": 92,
      "chip": "ym2612"
    },
    {
      "channel": 3,
      "note": 50,
      "start": 133.3737,
      "duration": 0.3203,
      "velocity": 109,
      "chip": "ym2612"
    },
    {
      "channel": 0,
      "note": 57,
      "start": 133.3769,
      "duration": 0.3169,
      "velocity": 109,
      "chip": "ym2612"
    },
    {
      "channel": 1,
      "note": 44,
      "start": 133.4976,
      "duration": 0.113,
      "velocity": 125,
      "chip": "ym2612"
    },
    {
      "channel": 4,
      "note": 50,
      "start": 133.7507,
      "duration": 0.0433,
      "velocity": 92,
      "chip": "ym2612"
    },
    {
      "channel": 5,
      "note": 57,
      "start": 133.7536,
      "duration": 0.0903,
      "velocity": 108,
      "chip": "ym2612"
    },
    {
      "channel": 2,
      "note": 50,
      "start": 133.7564,
      "duration": 0.0877,
      "velocity": 108,
      "chip": "ym2612"
    },
    {
      "channel": 4,
      "note": 49,
      "start": 133.8663,
      "duration": 0.0609,
      "velocity": 92,
      "chip": "ym2612"
    },
    {
      "channel": 5,
      "note": 57,
      "start": 133.8693,
      "duration": 0.0914,
      "velocity": 108,
      "chip": "ym2612"
    },
    {
      "channel": 2,
      "note": 50,
      "start": 133.872,
      "duration": 0.0888,
      "velocity": 108,
      "chip": "ym2612"
    },
    {
      "channel": 1,
      "note": 44,
      "start": 133.9973,
      "duration": 0.1132,
      "velocity": 125,
      "chip": "ym2612"
    },
    {
      "channel": 2,
      "note": 49,
      "start": 134.0013,
      "duration": 0.0929,
      "velocity": 106,
      "chip": "ym2612"
    },
    {
      "channel": 4,
      "note": 48,
      "start": 134.0039,
      "duration": 0.0402,
      "velocity": 92,
      "chip": "ym2612"
    },
    {
      "channel": 0,
      "note": 50,
      "start": 134.0071,
      "duration": 0.0867,
      "velocity": 109,
      "chip": "ym2612"
    },
    {
      "channel": 3,
      "note": 45,
      "start": 134.0102,
      "duration": 0.0838,
      "velocity": 109,
      "chip": "ym2612"
    },
    {
      "channel": 4,
      "note": 47,
      "start": 134.1142,
      "duration": 0.0631,
      "velocity": 92,
      "chip": "ym2612"
    },
    {
      "channel": 0,
      "note": 50,
      "start": 134.1168,
      "duration": 0.1102,
      "velocity": 109,
      "chip": "ym2612"
    },
    {
      "channel": 3,
      "note": 45,
      "start": 134.1195,
      "duration": 0.1078,
      "velocity": 109,
      "chip": "ym2612"
    },
    {
      "channel": 1,
      "note": 44,
      "start": 134.2494,
      "duration": 0.1111,
      "velocity": 125,
      "chip": "ym2612"
    },
    {
      "channel": 2,
      "note": 49,
      "start": 134.2532,
      "duration": 0.0908,
      "velocity": 106,
      "chip": "ym2612"
    },
    {
      "channel": 4,
      "note": 45,
      "start": 134.2562,
      "duration": 0.1045,
      "velocity": 92,
      "chip": "ym2612"
    },
    {
      "channel": 5,
      "note": 57,
      "start": 134.2602,
      "duration": 0.0672,
      "velocity": 108,
      "chip": "ym2612"
    },
    {
      "channel": 0,
      "note": 50,
      "start": 134.263,
      "duration": 0.0641,
      "velocity": 108,
      "chip": "ym2612"
    },
    {
      "channel": 3,
      "note": 50,
      "start": 134.3648,
      "duration": 0.2124,
      "velocity": 109,
      "chip": "ym2612"
    },
    {
      "channel": 0,
      "note": 57,
      "start": 134.3676,
      "duration": 0.2095,
      "velocity": 109,
      "chip": "ym2612"
    },
    {
      "channel": 2,
      "note": 49,
      "start": 134.5001,
      "duration": 0.094,
      "velocity": 106,
      "chip": "ym2612"
    },
    {
      "channel": 4,
      "note": 43,
      "start": 134.5034,
      "duration": 0.0572,
      "velocity": 92,
      "chip": "ym2612"
    },
    {
      "channel": 1,
      "note": 44,
      "start": 134.6163,
      "duration": 0.1276,
      "velocity": 125,
      "chip": "ym2612"
    },
    {
      "channel": 4,
      "note": 43,
      "start": 134.6194,
      "duration": 0.0579,
      "velocity": 92,
      "chip": "ym2612"
    },
    {
      "channel": 5,
      "note": 52,
      "start": 134.6225,
      "duration": 0.105,
      "velocity": 108,
      "chip": "ym2612"
    },
    {
      "channel": 0,
      "note": 47,
      "start": 134.6253,
      "duration": 0.1019,
      "velocity": 108,
      "chip": "ym2612"
    },
    {
      "channel": 4,
      "note": 43,
      "start": 134.7477,
      "duration": 0.0629,
      "velocity": 92,
      "chip": "ym2612"
    },
    {
      "channel": 3,
      "note": 52,
      "start": 134.7506,
      "duration": 0.0933,
      "velocity": 109,
      "chip": "ym2612"
    },
    {
      "channel": 2,
      "note": 59,
      "start": 134.7538,
      "duration": 0.0903,
      "velocity": 109,
      "chip": "ym2612"
    },
    {
      "channel": 2,
      "note": 49,
      "start": 134.8671,
      "duration": 0.1104,
      "velocity": 106,
      "chip": "ym2612"
    },
    {
      "channel": 4,
      "note": 43,
      "start": 134.87,
      "duration": 0.2073,
      "velocity": 92,
      "chip": "ym2612"
    },
    {
      "channel": 0,
      "note": 52,
      "start": 134.8729,
      "duration": 0.1209,
      "velocity": 108,
      "chip": "ym2612"
    },
    {
      "channel": 5,
      "note": 47,
      "start": 134.8756,
      "duration": 0.1186,
      "velocity": 108,
      "chip": "ym2612"
    },
    {
      "channel": 1,
      "note": 44,
      "start": 134.9976,
      "duration": 0.113,
      "velocity": 125,
      "chip": "ym2612"
    },
    {
      "channel": 3,
      "note": 52,
      "start": 135.0015,
      "duration": 0.0924,
      "velocity": 109,
      "chip": "ym2612"
    },
    {
      "channel": 2,
      "note": 59,
      "start": 135.0043,
      "duration": 0.0898,
      "velocity": 109,
      "chip": "ym2612"
    },
    {
      "channel": 2,
      "note": 49,
      "start": 135.1175,
      "duration": 0.1101,
      "velocity": 106,
      "chip": "ym2612"
    },
    {
      "channel": 0,
      "note": 52,
      "start": 135.1209,
      "duration": 0.1064,
      "velocity": 108,
      "chip": "ym2612"
    },
    {
      "channel": 5,
      "note": 47,
      "start": 135.1236,
      "duration": 0.1039,
      "velocity": 108,
      "chip": "ym2612"
    },
    {
      "channel": 4,
      "note": 43,
      "start": 135.2476,
      "duration": 0.213,
      "velocity": 92,
      "chip": "ym2612"
    },
    {
      "channel": 0,
      "note": 52,
      "start": 135.2504,
      "duration": 0.0934,
      "velocity": 108,
      "chip": "ym2612"
    },
    {
      "channel": 5,
      "note": 47,
      "start": 135.2531,
      "duration": 0.091,
      "velocity": 108,
      "chip": "ym2612"
    },
    {
      "channel": 3,
      "note": 64,
      "start": 135.3814,
      "duration": 0.2125,
      "velocity": 109,
      "chip": "ym2612"
    },
    {
      "channel": 1,
      "note": 59,
      "start": 135.3842,
      "duration": 0.2095,
      "velocity": 109,
      "chip": "ym2612"
    },
    {
      "channel": 2,
      "note": 44,
      "start": 135.498,
      "duration": 0.0032,
      "velocity": 125,
      "chip": "ym2612"
    },
    {
      "channel": 2,
      "note": 49,
      "start": 135.5041,
      "duration": 0.0901,
      "velocity": 106,
      "chip": "ym2612"
    },
    {
      "channel": 4,
      "note": 52,
      "start": 135.5071,
      "duration": 0.0702,
      "velocity": 92,
      "chip": "ym2612"
    },
    {
      "channel": 0,
      "note": 44,
      "start": 135.6328,
      "duration": 0.0944,
      "velocity": 125,
      "chip": "ym2612"
    },
    {
      "channel": 2,
      "note": 49,
      "start": 135.6368,
      "duration": 0.0908,
      "velocity": 106,
      "chip": "ym2612"
    },
    {
      "channel": 4,
      "note": 40,
      "start": 135.6397,
      "duration": 0.1543,
      "velocity": 92,
      "chip": "ym2612"
    },
    {
      "channel": 5,
      "note": 54,
      "start": 135.6434,
      "duration": 0.1174,
      "velocity": 108,
      "chip": "ym2612"
    },
    {
      "channel": 1,
      "note": 47,
      "start": 135.6461,
      "duration": 0.1144,
      "velocity": 108,
      "chip": "ym2612"
    },
    {
      "channel": 0,
      "note": 44,
      "start": 135.8835,
      "duration": 0.0937,
      "velocity": 125,
      "chip": "ym2612"
    },
    {
      "channel": 2,
      "note": 49,
      "start": 135.8875,
      "duration": 0.0902,
      "velocity": 106,
      "chip": "ym2612"
    },
    {
      "channel": 4,
      "note": 40,
      "start": 135.8903,
      "duration": 0.187,
      "velocity": 92,
      "chip": "ym2612"
    },
    {
      "channel": 1,
      "note": 54,
      "start": 135.8937,
      "duration": 0.0836,
      "velocity": 108,
      "chip": "ym2612"
    },
    {
      "channel": 5,
      "note": 47,
      "start": 135.8968,
      "duration": 0.0807,
      "velocity": 108,
      "chip": "ym2612"
    },
    {
      "channel": 2,
      "note": 81,
      "start": 135.9989,
      "duration": 0.1284,
      "velocity": 104,
      "chip": "ym2612"
    },
    {
      "channel": 1,
      "note": 54,
      "start": 136.0046,
      "duration": 0.0892,
      "velocity": 108,
      "chip": "ym2612"
    },
    {
      "channel": 5,
      "note": 47,
      "start": 136.0074,
      "duration": 0.0867,
      "velocity": 108,
      "chip": "ym2612"
    },
    {
      "channel": 4,
      "note": 52,
      "start": 136.1322,
      "duration": 0.0786,
      "velocity": 92,
      "chip": "ym2612"
    },
    {
      "channel": 3,
      "note": 54,
      "start": 136.1351,
      "duration": 0.0756,
      "velocity": 109,
      "chip": "ym2612"
    },
    {
      "channel": 0,
      "note": 59,
      "start": 136.1378,
      "duration": 0.0726,
      "velocity": 109,
      "chip": "ym2612"
    },
    {
      "channel": 2,
      "note": 44,
      "start": 136.2517,
      "duration": 0.0034,
      "velocity": 125,
      "chip": "ym2612"
    },
    {
      "channel": 2,
      "note": 49,
      "start": 136.2579,
      "duration": 0.1029,
      "velocity": 106,
      "chip": "ym2612"
    },
    {
      "channel": 4,
      "note": 40,
      "start": 136.2614,
      "duration": 0.1992,
      "velocity": 92,
      "chip": "ym2612"
    },
    {
      "channel": 1,
      "note": 52,
      "start": 136.2644,
      "duration": 0.213,
      "velocity": 108,
      "chip": "ym2612"
    },
    {
      "channel": 5,
      "note": 47,
      "start": 136.2671,
      "duration": 0.2105,
      "velocity": 108,
      "chip": "ym2612"
    },
    {
      "channel": 0,
      "note": 44,
      "start": 136.3826,
      "duration": 0.0946,
      "velocity": 125,
      "chip": "ym2612"
    },
    {
      "channel": 2,
      "note": 49,
      "start": 136.3864,
      "duration": 0.0913,
      "velocity": 106,
      "chip": "ym2612"
    },
    {
      "channel": 2,
      "note": 81,
      "start": 136.4991,
      "duration": 0.1116,
      "velocity": 104,
      "chip": "ym2612"
    },
    {
      "channel": 4,
      "note": 41,
      "start": 136.5066,
      "duration": 0.054,
      "velocity": 92,
      "chip": "ym2612"
    },
    {
      "channel": 3,
      "note": 55,
      "start": 136.5109,
      "duration": 0.2164,
      "velocity": 109,
      "chip": "ym2612"
    },
    {
      "channel": 0,
      "note": 60,
      "start": 136.5137,
      "duration": 0.2134,
      "velocity": 109,
      "chip": "ym2612"
    },
    {
      "channel": 2,
      "note": 44,
      "start": 136.6348,
      "duration": 0.0029,
      "velocity": 125,
      "chip": "ym2612"
    },
    {
      "channel": 2,
      "note": 49,
      "start": 136.6405,
      "duration": 0.0871,
      "velocity": 106,
      "chip": "ym2612"
    },
    {
      "channel": 4,
      "note": 41,
      "start": 136.6436,
      "duration": 0.0504,
      "velocity": 92,
      "chip": "ym2612"
    },
    {
      "channel": 4,
      "note": 41,
      "start": 136.7476,
      "duration": 0.0629,
      "velocity": 92,
      "chip": "ym2612"
    },
    {
      "channel": 1,
      "note": 60,
      "start": 136.7506,
      "duration": 0.0765,
      "velocity": 108,
      "chip": "ym2612"
    },
    {
      "channel": 5,
      "note": 53,
      "start": 136.7533,
      "duration": 0.074,
      "velocity": 108,
      "chip": "ym2612"
    },
    {
      "channel": 2,
      "note": 49,
      "start": 136.8819,
      "duration": 0.0957,
      "velocity": 106,
      "chip": "ym2612"
    },
    {
      "channel": 4,
      "note": 41,
      "start": 136.8849,
      "duration": 0.0925,
      "velocity": 92,
      "chip": "ym2612"
    },
    {
      "channel": 0,
      "note": 48,
      "start": 136.8876,
      "duration": 0.1397,
      "velocity": 109,
      "chip": "ym2612"
    },
    {
      "channel": 3,
      "note": 53,
      "start": 136.8902,
      "duration": 0.1373,
      "velocity": 109,
      "chip": "ym2612"
    },
    {
      "channel": 1,
      "note": 44,
      "start": 136.9993,
      "duration": 0.1279,
      "velocity": 125,
      "chip": "ym2612"
    },
    {
      "channel": 4,
      "note": 41,
      "start": 137.1317,
      "duration": 0.0955,
      "velocity": 92,
      "chip": "ym2612"
    },
    {
      "channel": 5,
      "note": 60,
      "start": 137.1352,
      "duration": 0.0921,
      "velocity": 108,
      "chip": "ym2612"
    },
    {
      "channel": 2,
      "note": 53,
      "start": 137.138,
      "duration": 0.0895,
      "velocity": 108,
      "chip": "ym2612"
    },
    {
      "channel": 2,
      "note": 81,
      "start": 137.2488,
      "duration": 0.2288,
      "velocity": 104,
      "chip": "ym2612"
    },
    {
      "channel": 4,
      "note": 41,
      "start": 137.382,
      "duration": 0.0954,
      "velocity": 92,
      "chip": "ym2612"
    },
    {
      "channel": 5,
      "note": 60,
      "start": 137.3849,
      "duration": 0.0926,
      "velocity": 108,
      "chip": "ym2612"
    },
    {
      "channel": 0,
      "note": 53,
      "start": 137.3877,
      "duration": 0.0895,
      "velocity": 108,
      "chip": "ym2612"
    },
    {
      "channel": 1,
      "note": 44,
      "start": 137.5162,
      "duration": 0.111,
      "velocity": 125,
      "chip": "ym2612"
    },
    {
      "channel": 3,
      "note": 55,
      "start": 137.5239,
      "duration": 0.2033,
      "velocity": 109,
      "chip": "ym2612"
    },
    {
      "channel": 0,
      "note": 60,
      "start": 137.5276,
      "duration": 0.1995,
      "velocity": 109,
      "chip": "ym2612"
    },
    {
      "channel": 4,
      "note": 41,
      "start": 137.767,
      "duration": 0.0436,
      "velocity": 92,
      "chip": "ym2612"
    },
    {
      "channel": 5,
      "note": 60,
      "start": 137.7699,
      "duration": 0.0908,
      "velocity": 108,
      "chip": "ym2612"
    },
    {
      "channel": 2,
      "note": 53,
      "start": 137.7728,
      "duration": 0.0881,
      "velocity": 108,
      "chip": "ym2612"
    },
    {
      "channel": 4,
      "note": 41,
      "start": 137.8834,
      "duration": 0.0605,
      "velocity": 92,
      "chip": "ym2612"
    },
    {
      "channel": 5,
      "note": 60,
      "start": 137.8863,
      "duration": 0.091,
      "velocity": 108,
      "chip": "ym2612"
    },
    {
      "channel": 2,
      "note": 53,
      "start": 137.8894,
      "duration": 0.088,
      "velocity": 108,
      "chip": "ym2612"
    },
    {
      "channel": 1,
      "note": 44,
      "start": 138.014,
      "duration": 0.1132,
      "velocity": 125,
      "chip": "ym2612"
    },
    {
      "channel": 2,
      "note": 49,
      "start": 138.018,
      "duration": 0.0929,
      "velocity": 106,
      "chip": "ym2612"
    },
    {
      "channel": 4,
      "note": 41,
      "start": 138.0206,
      "duration": 0.0401,
      "velocity": 92,
      "chip": "ym2612"
    },
    {
      "channel": 0,
      "note": 53,
      "start": 138.0234,
      "duration": 0.0871,
      "velocity": 109,
      "chip": "ym2612"
    },
    {
      "channel": 3,
      "note": 48,
      "start": 138.0265,
      "duration": 0.0842,
      "velocity": 109,
      "chip": "ym2612"
    },
    {
      "channel": 4,
      "note": 41,
      "start": 138.131,
      "duration": 0.063,
      "velocity": 92,
      "chip": "ym2612"
    },
    {
      "channel": 0,
      "note": 53,
      "start": 138.1336,
      "duration": 0.0937,
      "velocity": 109,
      "chip": "ym2612"
    },
    {
      "channel": 3,
      "note": 48,
      "start": 138.1362,
      "duration": 0.0912,
      "velocity": 109,
      "chip": "ym2612"
    },
    {
      "channel": 1,
      "note": 44,
      "start": 138.2661,
      "duration": 0.1112,
      "velocity": 125,
      "chip": "ym2612"
    },
    {
      "channel": 2,
      "note": 49,
      "start": 138.2699,
      "duration": 0.0909,
      "velocity": 106,
      "chip": "ym2612"
    },
    {
      "channel": 4,
      "note": 41,
      "start": 138.2728,
      "duration": 0.1046,
      "velocity": 92,
      "chip": "ym2612"
    },
    {
      "channel": 5,
      "note": 60,
      "start": 138.2765,
      "duration": 0.0676,
      "velocity": 108,
      "chip": "ym2612"
    },
    {
      "channel": 0,
      "note": 53,
      "start": 138.2793,
      "duration": 0.0646,
      "velocity": 108,
      "chip": "ym2612"
    },
    {
      "channel": 3,
      "note": 53,
      "start": 138.3815,
      "duration": 0.2125,
      "velocity": 109,
      "chip": "ym2612"
    },
    {
      "channel": 0,
      "note": 48,
      "start": 138.3842,
      "duration": 0.2096,
      "velocity": 109,
      "chip": "ym2612"
    },
    {
      "channel": 2,
      "note": 49,
      "start": 138.5167,
      "duration": 0.0939,
      "velocity": 106,
      "chip": "ym2612"
    },
    {
      "channel": 4,
      "note": 47,
      "start": 138.5197,
      "duration": 0.0577,
      "velocity": 92,
      "chip": "ym2612"
    },
    {
      "channel": 1,
      "note": 44,
      "start": 138.633,
      "duration": 0.1276,
      "velocity": 125,
      "chip": "ym2612"
    },
    {
      "channel": 4,
      "note": 47,
      "start": 138.6361,
      "duration": 0.0578,
      "velocity": 92,
      "chip": "ym2612"
    },
    {
      "channel": 5,
      "note": 57,
      "start": 138.6393,
      "duration": 0.105,
      "velocity": 108,
      "chip": "ym2612"
    },
    {
      "channel": 0,
      "note": 50,
      "start": 138.642,
      "duration": 0.1019,
      "velocity": 108,
      "chip": "ym2612"
    },
    {
      "channel": 4,
      "note": 47,
      "start": 138.7644,
      "duration": 0.0629,
      "velocity": 92,
      "chip": "ym2612"
    },
    {
      "channel": 0,
      "note": 57,
      "start": 138.7671,
      "duration": 0.0934,
      "velocity": 108,
      "chip": "ym2612"
    },
    {
      "channel": 5,
      "note": 50,
      "start": 138.7698,
      "duration": 0.091,
      "velocity": 108,
      "chip": "ym2612"
    },
    {
      "channel": 2,
      "note": 49,
      "start": 138.8833,
      "duration": 0.1111,
      "velocity": 106,
      "chip": "ym2612"
    },
    {
      "channel": 4,
      "note": 47,
      "start": 138.8866,
      "duration": 0.2074,
      "velocity": 92,
      "chip": "ym2612"
    },
    {
      "channel": 3,
      "note": 57,
      "start": 138.8899,
      "duration": 0.1042,
      "velocity": 109,
      "chip": "ym2612"
    },
    {
      "channel": 1,
      "note": 62,
      "start": 138.8932,
      "duration": 0.1007,
      "velocity": 109,
      "chip": "ym2612"
    },
    {
      "channel": 0,
      "note": 44,
      "start": 139.0143,
      "duration": 0.1128,
      "velocity": 125,
      "chip": "ym2612"
    },
    {
      "channel": 5,
      "note": 57,
      "start": 139.0184,
      "duration": 0.0924,
      "velocity": 108,
      "chip": "ym2612"
    },
    {
      "channel": 1,
      "note": 50,
      "start": 139.0212,
      "duration": 0.0894,
      "velocity": 108,
      "chip": "ym2612"
    },
    {
      "channel": 2,
      "note": 49,
      "start": 139.1344,
      "duration": 0.1098,
      "velocity": 106,
      "chip": "ym2612"
    },
    {
      "channel": 1,
      "note": 57,
      "start": 139.1373,
      "duration": 0.1067,
      "velocity": 108,
      "chip": "ym2612"
    },
    {
      "channel": 5,
      "note": 50,
      "start": 139.14,
      "duration": 0.1041,
      "velocity": 108,
      "chip": "ym2612"
    },
    {
      "channel": 4,
      "note": 47,
      "start": 139.2643,
      "duration": 0.1963,
      "velocity": 92,
      "chip": "ym2612"
    },
    {
      "channel": 3,
      "note": 57,
      "start": 139.2672,
      "duration": 0.2268,
      "velocity": 109,
      "chip": "ym2612"
    },
    {
      "channel": 0,
      "note": 62,
      "start": 139.27,
      "duration": 0.2239,
      "velocity": 109,
      "chip": "ym2612"
    },
    {
      "channel": 1,
      "note": 44,
      "start": 139.5166,
      "duration": 0.1273,
      "velocity": 125,
      "chip": "ym2612"
    },
    {
      "channel": 4,
      "note": 43,
      "start": 139.5221,
      "duration": 0.0553,
      "velocity": 92,
      "chip": "ym2612"
    },
    {
      "channel": 0,
      "note": 45,
      "start": 139.5249,
      "duration": 0.0856,
      "velocity": 109,
      "chip": "ym2612"
    },
    {
      "channel": 3,
      "note": 50,
      "start": 139.528,
      "duration": 0.0827,
      "velocity": 109,
      "chip": "ym2612"
    },
    {
      "channel": 2,
      "note": 49,
      "start": 139.6487,
      "duration": 0.0955,
      "velocity": 106,
      "chip": "ym2612"
    },
    {
      "channel": 4,
      "note": 43,
      "start": 139.6513,
      "duration": 0.0426,
      "velocity": 92,
      "chip": "ym2612"
    },
    {
      "channel": 5,
      "note": 57,
      "start": 139.6543,
      "duration": 0.0898,
      "velocity": 108,
      "chip": "ym2612"
    },
    {
      "channel": 0,
      "note": 50,
      "start": 139.657,
      "duration": 0.0868,
      "velocity": 108,
      "chip": "ym2612"
    },
    {
      "channel": 2,
      "note": 49,
      "start": 139.7648,
      "duration": 0.0961,
      "velocity": 106,
      "chip": "ym2612"
    },
    {
      "channel": 4,
      "note": 43,
      "start": 139.7674,
      "duration": 0.0598,
      "velocity": 92,
      "chip": "ym2612"
    },
    {
      "channel": 0,
      "note": 57,
      "start": 139.7702,
      "duration": 0.0903,
      "velocity": 108,
      "chip": "ym2612"
    },
    {
      "channel": 5,
      "note": 50,
      "start": 139.7728,
      "duration": 0.0879,
      "velocity": 108,
      "chip": "ym2612"
    },
    {
      "channel": 1,
      "note": 44,
      "start": 139.8995,
      "duration": 0.1111,
      "velocity": 125,
      "chip": "ym2612"
    },
    {
      "channel": 4,
      "note": 43,
      "start": 139.9032,
      "duration": 0.1908,
      "velocity": 92,
      "chip": "ym2612"
    },
    {
      "channel": 3,
      "note": 45,
      "start": 139.9064,
      "duration": 0.071,
      "velocity": 109,
      "chip": "ym2612"
    },
    {
      "channel": 0,
      "note": 50,
      "start": 139.9097,
      "duration": 0.0675,
      "velocity": 109,
      "chip": "ym2612"
    },
    {
      "channel": 5,
      "note": 57,
      "start": 140.0153,
      "duration": 0.0788,
      "velocity": 108,
      "chip": "ym2612"
    },
    {
      "channel": 2,
      "note": 50,
      "start": 140.0181,
      "duration": 0.0762,
      "velocity": 108,
      "chip": "ym2612"
    },
    {
      "channel": 1,
      "note": 44,
      "start": 140.1501,
      "duration": 0.1104,
      "velocity": 125,
      "chip": "ym2612"
    },
    {
      "channel": 0,
      "note": 45,
      "start": 140.1537,
      "duration": 0.34,
      "velocity": 109,
      "chip": "ym2612"
    },
    {
      "channel": 3,
      "note": 50,
      "start": 140.1563,
      "duration": 0.3376,
      "velocity": 109,
      "chip": "ym2612"
    },
    {
      "channel": 4,
      "note": 43,
      "start": 140.2644,
      "duration": 0.2129,
      "velocity": 92,
      "chip": "ym2612"
    },
    {
      "channel": 5,
      "note": 69,
      "start": 140.525,
      "duration": 6.6402,
      "velocity": 106,
      "chip": "ym2612"
    },
    {
      "channel": 0,
      "note": 52,
      "start": 140.5329,
      "duration": 0.2109,
      "velocity": 109,
      "chip": "ym2612"
    },
    {
      "channel": 3,
      "note": 45,
      "start": 140.5356,
      "duration": 0.1915,
      "velocity": 109,
      "chip": "ym2612"
    },
    {
      "channel": 2,
      "note": 45,
      "start": 140.8981,
      "duration": 0.1125,
      "velocity": 108,
      "chip": "ym2612"
    },
    {
      "channel": 1,
      "note": 52,
      "start": 140.9009,
      "duration": 0.1095,
      "velocity": 108,
      "chip": "ym2612"
    },
    {
      "channel": 4,
      "note": 45,
      "start": 141.1482,
      "duration": 0.2622,
      "velocity": 114,
      "chip": "ym2612"
    },
    {
      "channel": 0,
      "note": 45,
      "start": 141.2645,
      "duration": 0.2126,
      "velocity": 109,
      "chip": "ym2612"
    },
    {
      "channel": 3,
      "note": 52,
      "start": 141.2671,
      "duration": 0.2102,
      "velocity": 109,
      "chip": "ym2612"
    },
    {
      "channel": 1,
      "note": 52,
      "start": 141.5167,
      "duration": 0.0771,
      "velocity": 108,
      "chip": "ym2612"
    },
    {
      "channel": 2,
      "note": 45,
      "start": 141.5195,
      "duration": 0.0746,
      "velocity": 108,
      "chip": "ym2612"
    },
    {
      "channel": 4,
      "note": 45,
      "start": 141.5228,
      "duration": 0.0543,
      "velocity": 114,
      "chip": "ym2612"
    },
    {
      "channel": 1,
      "note": 52,
      "start": 141.6477,
      "duration": 0.0793,
      "velocity": 108,
      "chip": "ym2612"
    },
    {
      "channel": 2,
      "note": 45,
      "start": 141.6505,
      "duration": 0.0768,
      "velocity": 108,
      "chip": "ym2612"
    },
    {
      "channel": 4,
      "note": 45,
      "start": 141.6536,
      "duration": 0.0903,
      "velocity": 114,
      "chip": "ym2612"
    },
    {
      "channel": 0,
      "note": 41,
      "start": 142.1476,
      "duration": 0.2293,
      "velocity": 109,
      "chip": "ym2612"
    },
    {
      "channel": 3,
      "note": 44,
      "start": 142.1502,
      "duration": 0.2269,
      "velocity": 109,
      "chip": "ym2612"
    },
    {
      "channel": 1,
      "note": 48,
      "start": 142.3978,
      "duration": 0.0959,
      "velocity": 108,
      "chip": "ym2612"
    },
    {
      "channel": 2,
      "note": 41,
      "start": 142.4006,
      "duration": 0.0934,
      "velocity": 108,
      "chip": "ym2612"
    },
    {
      "channel": 0,
      "note": 52,
      "start": 142.5326,
      "duration": 0.2277,
      "velocity": 109,
      "chip": "ym2612"
    },
    {
      "channel": 3,
      "note": 45,
      "start": 142.5354,
      "duration": 0.1916,
      "velocity": 109,
      "chip": "ym2612"
    },
    {
      "channel": 1,
      "note": 45,
      "start": 142.8982,
      "duration": 0.1454,
      "velocity": 108,
      "chip": "ym2612"
    },
    {
      "channel": 2,
      "note": 52,
      "start": 142.9012,
      "duration": 0.126,
      "velocity": 108,
      "chip": "ym2612"
    },
    {
      "channel": 4,
      "note": 45,
      "start": 143.148,
      "duration": 0.2291,
      "velocity": 114,
      "chip": "ym2612"
    },
    {
      "channel": 0,
      "note": 45,
      "start": 143.2808,
      "duration": 0.1962,
      "velocity": 109,
      "chip": "ym2612"
    },
    {
      "channel": 3,
      "note": 52,
      "start": 143.2838,
      "duration": 0.1934,
      "velocity": 109,
      "chip": "ym2612"
    },
    {
      "channel": 1,
      "note": 52,
      "start": 143.5329,
      "duration": 0.0774,
      "velocity": 108,
      "chip": "ym2612"
    },
    {
      "channel": 2,
      "note": 45,
      "start": 143.5358,
      "duration": 0.0749,
      "velocity": 108,
      "chip": "ym2612"
    },
    {
      "channel": 4,
      "note": 45,
      "start": 143.5387,
      "duration": 0.0552,
      "velocity": 114,
      "chip": "ym2612"
    },
    {
      "channel": 1,
      "note": 52,
      "start": 143.6476,
      "duration": 0.0793,
      "velocity": 108,
      "chip": "ym2612"
    },
    {
      "channel": 2,
      "note": 45,
      "start": 143.6505,
      "duration": 0.0768,
      "velocity": 108,
      "chip": "ym2612"
    },
    {
      "channel": 4,
      "note": 45,
      "start": 143.6536,
      "duration": 0.1069,
      "velocity": 114,
      "chip": "ym2612"
    },
    {
      "channel": 0,
      "note": 41,
      "start": 144.031,
      "duration": 0.0793,
      "velocity": 109,
      "chip": "ym2612"
    },
    {
      "channel": 3,
      "note": 44,
      "start": 144.0336,
      "duration": 0.0769,
      "velocity": 109,
      "chip": "ym2612"
    },
    {
      "channel": 1,
      "note": 48,
      "start": 144.2812,
      "duration": 0.2291,
      "velocity": 108,
      "chip": "ym2612"
    },
    {
      "channel": 2,
      "note": 41,
      "start": 144.2844,
      "duration": 0.2263,
      "velocity": 108,
      "chip": "ym2612"
    },
    {
      "channel": 0,
      "note": 52,
      "start": 144.5347,
      "duration": 0.2258,
      "velocity": 109,
      "chip": "ym2612"
    },
    {
      "channel": 3,
      "note": 45,
      "start": 144.5375,
      "duration": 0.2064,
      "velocity": 109,
      "chip": "ym2612"
    },
    {
      "channel": 1,
      "note": 45,
      "start": 144.9145,
      "duration": 0.1461,
      "velocity": 108,
      "chip": "ym2612"
    },
    {
      "channel": 2,
      "note": 52,
      "start": 144.9175,
      "duration": 0.1098,
      "velocity": 108,
      "chip": "ym2612"
    },
    {
      "channel": 4,
      "note": 45,
      "start": 145.1652,
      "duration": 0.2788,
      "velocity": 114,
      "chip": "ym2612"
    },
    {
      "channel": 0,
      "note": 45,
      "start": 145.2809,
      "duration": 0.2128,
      "velocity": 109,
      "chip": "ym2612"
    },
    {
      "channel": 3,
      "note": 52,
      "start": 145.2838,
      "duration": 0.2101,
      "velocity": 109,
      "chip": "ym2612"
    },
    {
      "channel": 1,
      "note": 52,
      "start": 145.5331,
      "duration": 0.0774,
      "velocity": 108,
      "chip": "ym2612"
    },
    {
      "channel": 2,
      "note": 45,
      "start": 145.5359,
      "duration": 0.075,
      "velocity": 108,
      "chip": "ym2612"
    },
    {
      "channel": 4,
      "note": 45,
      "start": 145.5388,
      "duration": 0.0719,
      "velocity": 114,
      "chip": "ym2612"
    },
    {
      "channel": 1,
      "note": 52,
      "start": 145.6644,
      "duration": 0.0794,
      "velocity": 108,
      "chip": "ym2612"
    },
    {
      "channel": 2,
      "note": 45,
      "start": 145.6676,
      "duration": 0.0765,
      "velocity": 108,
      "chip": "ym2612"
    },
    {
      "channel": 4,
      "note": 45,
      "start": 145.6707,
      "duration": 0.0899,
      "velocity": 114,
      "chip": "ym2612"
    },
    {
      "channel": 0,
      "note": 41,
      "start": 146.1643,
      "duration": 0.2293,
      "velocity": 109,
      "chip": "ym2612"
    },
    {
      "channel": 3,
      "note": 44,
      "start": 146.1669,
      "duration": 0.2269,
      "velocity": 109,
      "chip": "ym2612"
    },
    {
      "channel": 1,
      "note": 48,
      "start": 146.4145,
      "duration": 0.0959,
      "velocity": 108,
      "chip": "ym2612"
    },
    {
      "channel": 2,
      "note": 41,
      "start": 146.4173,
      "duration": 0.0933,
      "velocity": 108,
      "chip": "ym2612"
    },
    {
      "channel": 0,
      "note": 52,
      "start": 146.5493,
      "duration": 0.211,
      "velocity": 109,
      "chip": "ym2612"
    },
    {
      "channel": 3,
      "note": 45,
      "start": 146.552,
      "duration": 0.1917,
      "velocity": 109,
      "chip": "ym2612"
    },
    {
      "channel": 1,
      "note": 45,
      "start": 146.9144,
      "duration": 0.1127,
      "velocity": 108,
      "chip": "ym2612"
    },
    {
      "channel": 2,
      "note": 52,
      "start": 146.9172,
      "duration": 0.1101,
      "velocity": 108,
      "chip": "ym2612"
    },
    {
      "channel": 4,
      "note": 45,
      "start": 147.1647,
      "duration": 0.0005,
      "velocity": 114,
      "chip": "ym2612"
    }
  ]
}