{
  "track_name": "09 - Into the Dark",
  "duration_sec": 68.643,
  "sample_rate": 44100,
  "note_count": 362,
  "unique_pitches": 33,
  "pitch_range": 55,
  "avg_note_duration": 0.6413,
  "reconstruction_stats": {
    "notes_reconstructed": 362,
    "keyon_events": 362,
    "keyoff_events": 360,
    "orphan_keyons": 2,
    "unique_pitches": 33,
    "pitch_range": 55,
    "avg_duration_sec": 0.6413
  },
  "metadata": {
    "source": "P\\Pier Solar and the Great Architects\\09 - Into the Dark.vgz"
  },
  "notes": [
    {
      "channel": 0,
      "note": 78,
      "start": 0.1205,
      "duration": 0.3159,
      "velocity": 98,
      "chip": "ym2612"
    },
    {
      "channel": 4,
      "note": 66,
      "start": 0.1211,
      "duration": 0.9504,
      "velocity": 114,
      "chip": "ym2612"
    },
    {
      "channel": 0,
      "note": 85,
      "start": 0.4366,
      "duration": 0.3171,
      "velocity": 98,
      "chip": "ym2612"
    },
    {
      "channel": 0,
      "note": 90,
      "start": 0.7538,
      "duration": 0.3171,
      "velocity": 98,
      "chip": "ym2612"
    },
    {
      "channel": 1,
      "note": 78,
      "start": 0.7541,
      "duration": 0.3171,
      "velocity": 98,
      "chip": "ym2612"
    },
    {
      "channel": 0,
      "note": 102,
      "start": 1.071,
      "duration": 1.5858,
      "velocity": 98,
      "chip": "ym2612"
    },
    {
      "channel": 1,
      "note": 85,
      "start": 1.0712,
      "duration": 0.3169,
      "velocity": 98,
      "chip": "ym2612"
    },
    {
      "channel": 4,
      "note": 66,
      "start": 1.0716,
      "duration": 0.3168,
      "velocity": 114,
      "chip": "ym2612"
    },
    {
      "channel": 1,
      "note": 90,
      "start": 1.3883,
      "duration": 0.3171,
      "velocity": 98,
      "chip": "ym2612"
    },
    {
      "channel": 1,
      "note": 102,
      "start": 1.7054,
      "duration": 1.586,
      "velocity": 98,
      "chip": "ym2612"
    },
    {
      "channel": 4,
      "note": 66,
      "start": 1.7059,
      "duration": 0.3168,
      "velocity": 114,
      "chip": "ym2612"
    },
    {
      "channel": 0,
      "note": 78,
      "start": 2.657,
      "duration": 0.317,
      "velocity": 98,
      "chip": "ym2612"
    },
    {
      "channel": 4,
      "note": 66,
      "start": 2.6574,
      "duration": 0.9516,
      "velocity": 114,
      "chip": "ym2612"
    },
    {
      "channel": 0,
      "note": 85,
      "start": 2.9742,
      "duration": 0.3171,
      "velocity": 98,
      "chip": "ym2612"
    },
    {
      "channel": 0,
      "note": 90,
      "start": 3.2914,
      "duration": 0.317,
      "velocity": 98,
      "chip": "ym2612"
    },
    {
      "channel": 1,
      "note": 78,
      "start": 3.2916,
      "duration": 0.3171,
      "velocity": 98,
      "chip": "ym2612"
    },
    {
      "channel": 0,
      "note": 102,
      "start": 3.6085,
      "duration": 0.3171,
      "velocity": 98,
      "chip": "ym2612"
    },
    {
      "channel": 1,
      "note": 85,
      "start": 3.6088,
      "duration": 0.3171,
      "velocity": 98,
      "chip": "ym2612"
    },
    {
      "channel": 4,
      "note": 66,
      "start": 3.6092,
      "duration": 0.317,
      "velocity": 114,
      "chip": "ym2612"
    },
    {
      "channel": 0,
      "note": 97,
      "start": 3.9258,
      "duration": 1.2686,
      "velocity": 98,
      "chip": "ym2612"
    },
    {
      "channel": 1,
      "note": 90,
      "start": 3.926,
      "duration": 0.3168,
      "velocity": 98,
      "chip": "ym2612"
    },
    {
      "channel": 1,
      "note": 102,
      "start": 4.243,
      "duration": 0.3171,
      "velocity": 98,
      "chip": "ym2612"
    },
    {
      "channel": 1,
      "note": 97,
      "start": 4.5602,
      "duration": 1.2688,
      "velocity": 98,
      "chip": "ym2612"
    },
    {
      "channel": 4,
      "note": 67,
      "start": 4.5606,
      "duration": 0.3168,
      "velocity": 114,
      "chip": "ym2612"
    },
    {
      "channel": 0,
      "note": 78,
      "start": 5.1945,
      "duration": 0.3171,
      "velocity": 98,
      "chip": "ym2612"
    },
    {
      "channel": 4,
      "note": 66,
      "start": 5.195,
      "duration": 0.9516,
      "velocity": 114,
      "chip": "ym2612"
    },
    {
      "channel": 0,
      "note": 85,
      "start": 5.5117,
      "duration": 0.317,
      "velocity": 98,
      "chip": "ym2612"
    },
    {
      "channel": 0,
      "note": 90,
      "start": 5.8289,
      "duration": 0.3171,
      "velocity": 98,
      "chip": "ym2612"
    },
    {
      "channel": 1,
      "note": 78,
      "start": 5.8292,
      "duration": 0.3171,
      "velocity": 98,
      "chip": "ym2612"
    },
    {
      "channel": 0,
      "note": 102,
      "start": 6.1461,
      "duration": 1.5858,
      "velocity": 98,
      "chip": "ym2612"
    },
    {
      "channel": 1,
      "note": 85,
      "start": 6.1464,
      "duration": 0.3168,
      "velocity": 98,
      "chip": "ym2612"
    },
    {
      "channel": 4,
      "note": 66,
      "start": 6.1468,
      "duration": 0.3168,
      "velocity": 114,
      "chip": "ym2612"
    },
    {
      "channel": 1,
      "note": 90,
      "start": 6.4634,
      "duration": 0.3171,
      "velocity": 98,
      "chip": "ym2612"
    },
    {
      "channel": 1,
      "note": 102,
      "start": 6.7806,
      "duration": 1.586,
      "velocity": 98,
      "chip": "ym2612"
    },
    {
      "channel": 0,
      "note": 78,
      "start": 7.7321,
      "duration": 0.317,
      "velocity": 98,
      "chip": "ym2612"
    },
    {
      "channel": 4,
      "note": 66,
      "start": 7.7325,
      "duration": 0.9516,
      "velocity": 114,
      "chip": "ym2612"
    },
    {
      "channel": 0,
      "note": 85,
      "start": 8.0493,
      "duration": 0.3171,
      "velocity": 98,
      "chip": "ym2612"
    },
    {
      "channel": 0,
      "note": 90,
      "start": 8.3665,
      "duration": 0.3171,
      "velocity": 98,
      "chip": "ym2612"
    },
    {
      "channel": 1,
      "note": 78,
      "start": 8.3667,
      "duration": 0.3171,
      "velocity": 98,
      "chip": "ym2612"
    },
    {
      "channel": 0,
      "note": 102,
      "start": 8.6837,
      "duration": 0.3171,
      "velocity": 98,
      "chip": "ym2612"
    },
    {
      "channel": 1,
      "note": 85,
      "start": 8.6839,
      "duration": 0.3171,
      "velocity": 98,
      "chip": "ym2612"
    },
    {
      "channel": 4,
      "note": 66,
      "start": 8.6843,
      "duration": 0.317,
      "velocity": 114,
      "chip": "ym2612"
    },
    {
      "channel": 0,
      "note": 97,
      "start": 9.0009,
      "duration": 0.3528,
      "velocity": 98,
      "chip": "ym2612"
    },
    {
      "channel": 1,
      "note": 90,
      "start": 9.0011,
      "duration": 0.3169,
      "velocity": 98,
      "chip": "ym2612"
    },
    {
      "channel": 1,
      "note": 102,
      "start": 9.3181,
      "duration": 0.0358,
      "velocity": 98,
      "chip": "ym2612"
    },
    {
      "channel": 0,
      "note": 93,
      "start": 9.3538,
      "duration": 9.2778,
      "velocity": 98,
      "chip": "ym2612"
    },
    {
      "channel": 1,
      "note": 97,
      "start": 9.3541,
      "duration": 9.5344,
      "velocity": 98,
      "chip": "ym2612"
    },
    {
      "channel": 4,
      "note": 67,
      "start": 9.3544,
      "duration": 0.0352,
      "velocity": 114,
      "chip": "ym2612"
    },
    {
      "channel": 2,
      "note": 66,
      "start": 9.4354,
      "duration": 1.9076,
      "velocity": 95,
      "chip": "ym2612"
    },
    {
      "channel": 3,
      "note": 78,
      "start": 9.4358,
      "duration": 1.9074,
      "velocity": 95,
      "chip": "ym2612"
    },
    {
      "channel": 4,
      "note": 66,
      "start": 9.4361,
      "duration": 0.0409,
      "velocity": 114,
      "chip": "ym2612"
    },
    {
      "channel": 4,
      "note": 66,
      "start": 9.5411,
      "duration": 0.317,
      "velocity": 114,
      "chip": "ym2612"
    },
    {
      "channel": 4,
      "note": 66,
      "start": 10.1755,
      "duration": 0.256,
      "velocity": 114,
      "chip": "ym2612"
    },
    {
      "channel": 4,
      "note": 66,
      "start": 10.7489,
      "duration": 0.317,
      "velocity": 114,
      "chip": "ym2612"
    },
    {
      "channel": 2,
      "note": 64,
      "start": 11.383,
      "duration": 2.3763,
      "velocity": 95,
      "chip": "ym2612"
    },
    {
      "channel": 3,
      "note": 76,
      "start": 11.3834,
      "duration": 2.3762,
      "velocity": 95,
      "chip": "ym2612"
    },
    {
      "channel": 4,
      "note": 66,
      "start": 11.3837,
      "duration": 0.256,
      "velocity": 114,
      "chip": "ym2612"
    },
    {
      "channel": 4,
      "note": 66,
      "start": 11.9571,
      "duration": 0.317,
      "velocity": 114,
      "chip": "ym2612"
    },
    {
      "channel": 4,
      "note": 67,
      "start": 12.5914,
      "duration": 0.2564,
      "velocity": 114,
      "chip": "ym2612"
    },
    {
      "channel": 4,
      "note": 67,
      "start": 13.1653,
      "duration": 0.317,
      "velocity": 114,
      "chip": "ym2612"
    },
    {
      "channel": 2,
      "note": 72,
      "start": 13.7993,
      "duration": 2.3763,
      "velocity": 95,
      "chip": "ym2612"
    },
    {
      "channel": 3,
      "note": 84,
      "start": 13.7998,
      "duration": 2.3762,
      "velocity": 95,
      "chip": "ym2612"
    },
    {
      "channel": 4,
      "note": 68,
      "start": 13.8,
      "duration": 0.256,
      "velocity": 114,
      "chip": "ym2612"
    },
    {
      "channel": 4,
      "note": 68,
      "start": 14.3734,
      "duration": 0.317,
      "velocity": 114,
      "chip": "ym2612"
    },
    {
      "channel": 4,
      "note": 68,
      "start": 15.0078,
      "duration": 0.2564,
      "velocity": 114,
      "chip": "ym2612"
    },
    {
      "channel": 4,
      "note": 68,
      "start": 15.5816,
      "duration": 0.317,
      "velocity": 114,
      "chip": "ym2612"
    },
    {
      "channel": 2,
      "note": 73,
      "start": 16.2157,
      "duration": 2.3763,
      "velocity": 95,
      "chip": "ym2612"
    },
    {
      "channel": 3,
      "note": 85,
      "start": 16.2161,
      "duration": 2.3762,
      "velocity": 95,
      "chip": "ym2612"
    },
    {
      "channel": 4,
      "note": 67,
      "start": 16.2164,
      "duration": 0.256,
      "velocity": 114,
      "chip": "ym2612"
    },
    {
      "channel": 4,
      "note": 67,
      "start": 16.7898,
      "duration": 0.317,
      "velocity": 114,
      "chip": "ym2612"
    },
    {
      "channel": 4,
      "note": 65,
      "start": 17.4241,
      "duration": 0.2564,
      "velocity": 114,
      "chip": "ym2612"
    },
    {
      "channel": 4,
      "note": 65,
      "start": 17.9979,
      "duration": 0.317,
      "velocity": 114,
      "chip": "ym2612"
    },
    {
      "channel": 0,
      "note": 78,
      "start": 18.6317,
      "duration": 0.2565,
      "velocity": 98,
      "chip": "ym2612"
    },
    {
      "channel": 2,
      "note": 66,
      "start": 18.6322,
      "duration": 2.1118,
      "velocity": 95,
      "chip": "ym2612"
    },
    {
      "channel": 3,
      "note": 78,
      "start": 18.6326,
      "duration": 2.1116,
      "velocity": 95,
      "chip": "ym2612"
    },
    {
      "channel": 4,
      "note": 66,
      "start": 18.633,
      "duration": 0.2561,
      "velocity": 114,
      "chip": "ym2612"
    },
    {
      "channel": 0,
      "note": 85,
      "start": 18.8883,
      "duration": 0.3171,
      "velocity": 98,
      "chip": "ym2612"
    },
    {
      "channel": 1,
      "note": 78,
      "start": 18.8886,
      "duration": 0.3171,
      "velocity": 98,
      "chip": "ym2612"
    },
    {
      "channel": 0,
      "note": 90,
      "start": 19.2055,
      "duration": 1.5781,
      "velocity": 98,
      "chip": "ym2612"
    },
    {
      "channel": 1,
      "note": 85,
      "start": 19.2058,
      "duration": 0.3169,
      "velocity": 98,
      "chip": "ym2612"
    },
    {
      "channel": 4,
      "note": 66,
      "start": 19.2065,
      "duration": 0.3168,
      "velocity": 114,
      "chip": "ym2612"
    },
    {
      "channel": 1,
      "note": 90,
      "start": 19.5228,
      "duration": 1.5176,
      "velocity": 98,
      "chip": "ym2612"
    },
    {
      "channel": 4,
      "note": 66,
      "start": 19.8405,
      "duration": 0.2564,
      "velocity": 114,
      "chip": "ym2612"
    },
    {
      "channel": 4,
      "note": 66,
      "start": 20.4143,
      "duration": 0.0526,
      "velocity": 114,
      "chip": "ym2612"
    },
    {
      "channel": 0,
      "note": 79,
      "start": 20.7837,
      "duration": 0.2565,
      "velocity": 98,
      "chip": "ym2612"
    },
    {
      "channel": 2,
      "note": 67,
      "start": 20.7842,
      "duration": 2.1117,
      "velocity": 95,
      "chip": "ym2612"
    },
    {
      "channel": 3,
      "note": 79,
      "start": 20.7846,
      "duration": 2.1115,
      "velocity": 95,
      "chip": "ym2612"
    },
    {
      "channel": 4,
      "note": 66,
      "start": 20.7849,
      "duration": 0.2562,
      "velocity": 114,
      "chip": "ym2612"
    },
    {
      "channel": 0,
      "note": 87,
      "start": 21.0403,
      "duration": 0.3171,
      "velocity": 98,
      "chip": "ym2612"
    },
    {
      "channel": 1,
      "note": 79,
      "start": 21.0406,
      "duration": 0.3171,
      "velocity": 98,
      "chip": "ym2612"
    },
    {
      "channel": 0,
      "note": 96,
      "start": 21.3575,
      "duration": 1.578,
      "velocity": 98,
      "chip": "ym2612"
    },
    {
      "channel": 1,
      "note": 87,
      "start": 21.3578,
      "duration": 0.3169,
      "velocity": 98,
      "chip": "ym2612"
    },
    {
      "channel": 4,
      "note": 66,
      "start": 21.3585,
      "duration": 0.3168,
      "velocity": 114,
      "chip": "ym2612"
    },
    {
      "channel": 1,
      "note": 96,
      "start": 21.6748,
      "duration": 1.5176,
      "velocity": 98,
      "chip": "ym2612"
    },
    {
      "channel": 4,
      "note": 67,
      "start": 21.9925,
      "duration": 0.2564,
      "velocity": 114,
      "chip": "ym2612"
    },
    {
      "channel": 4,
      "note": 67,
      "start": 22.5663,
      "duration": 0.0525,
      "velocity": 114,
      "chip": "ym2612"
    },
    {
      "channel": 0,
      "note": 84,
      "start": 22.9356,
      "duration": 0.2565,
      "velocity": 98,
      "chip": "ym2612"
    },
    {
      "channel": 2,
      "note": 72,
      "start": 22.9361,
      "duration": 2.1117,
      "velocity": 95,
      "chip": "ym2612"
    },
    {
      "channel": 3,
      "note": 84,
      "start": 22.9365,
      "duration": 2.1116,
      "velocity": 95,
      "chip": "ym2612"
    },
    {
      "channel": 4,
      "note": 68,
      "start": 22.9368,
      "duration": 0.2562,
      "velocity": 114,
      "chip": "ym2612"
    },
    {
      "channel": 0,
      "note": 92,
      "start": 23.1923,
      "duration": 0.317,
      "velocity": 98,
      "chip": "ym2612"
    },
    {
      "channel": 1,
      "note": 84,
      "start": 23.1925,
      "duration": 0.3171,
      "velocity": 98,
      "chip": "ym2612"
    },
    {
      "channel": 0,
      "note": 101,
      "start": 23.5094,
      "duration": 1.578,
      "velocity": 98,
      "chip": "ym2612"
    },
    {
      "channel": 1,
      "note": 92,
      "start": 23.5097,
      "duration": 0.3169,
      "velocity": 98,
      "chip": "ym2612"
    },
    {
      "channel": 4,
      "note": 68,
      "start": 23.5104,
      "duration": 0.3168,
      "velocity": 114,
      "chip": "ym2612"
    },
    {
      "channel": 1,
      "note": 101,
      "start": 23.8267,
      "duration": 1.5176,
      "velocity": 98,
      "chip": "ym2612"
    },
    {
      "channel": 4,
      "note": 68,
      "start": 24.1444,
      "duration": 0.2564,
      "velocity": 114,
      "chip": "ym2612"
    },
    {
      "channel": 4,
      "note": 68,
      "start": 24.7182,
      "duration": 0.0525,
      "velocity": 114,
      "chip": "ym2612"
    },
    {
      "channel": 0,
      "note": 79,
      "start": 25.0876,
      "duration": 0.2565,
      "velocity": 98,
      "chip": "ym2612"
    },
    {
      "channel": 2,
      "note": 73,
      "start": 25.088,
      "duration": 2.1117,
      "velocity": 95,
      "chip": "ym2612"
    },
    {
      "channel": 3,
      "note": 85,
      "start": 25.0884,
      "duration": 2.1115,
      "velocity": 95,
      "chip": "ym2612"
    },
    {
      "channel": 4,
      "note": 67,
      "start": 25.0887,
      "duration": 0.2562,
      "velocity": 114,
      "chip": "ym2612"
    },
    {
      "channel": 0,
      "note": 87,
      "start": 25.3442,
      "duration": 0.317,
      "velocity": 98,
      "chip": "ym2612"
    },
    {
      "channel": 1,
      "note": 79,
      "start": 25.3444,
      "duration": 0.3171,
      "velocity": 98,
      "chip": "ym2612"
    },
    {
      "channel": 0,
      "note": 96,
      "start": 25.6613,
      "duration": 0.3171,
      "velocity": 98,
      "chip": "ym2612"
    },
    {
      "channel": 1,
      "note": 87,
      "start": 25.6616,
      "duration": 0.3171,
      "velocity": 98,
      "chip": "ym2612"
    },
    {
      "channel": 4,
      "note": 67,
      "start": 25.6623,
      "duration": 0.317,
      "velocity": 114,
      "chip": "ym2612"
    },
    {
      "channel": 0,
      "note": 105,
      "start": 25.9785,
      "duration": 5.0065,
      "velocity": 98,
      "chip": "ym2612"
    },
    {
      "channel": 1,
      "note": 96,
      "start": 25.9788,
      "duration": 0.3169,
      "velocity": 98,
      "chip": "ym2612"
    },
    {
      "channel": 1,
      "note": 105,
      "start": 26.2958,
      "duration": 1.8345,
      "velocity": 98,
      "chip": "ym2612"
    },
    {
      "channel": 4,
      "note": 65,
      "start": 26.2965,
      "duration": 0.2562,
      "velocity": 114,
      "chip": "ym2612"
    },
    {
      "channel": 4,
      "note": 65,
      "start": 26.8701,
      "duration": 0.0525,
      "velocity": 114,
      "chip": "ym2612"
    },
    {
      "channel": 2,
      "note": 54,
      "start": 27.2395,
      "duration": 0.1771,
      "velocity": 95,
      "chip": "ym2612"
    },
    {
      "channel": 3,
      "note": 66,
      "start": 27.2398,
      "duration": 0.1769,
      "velocity": 95,
      "chip": "ym2612"
    },
    {
      "channel": 1,
      "note": 78,
      "start": 28.1305,
      "duration": 0.4756,
      "velocity": 98,
      "chip": "ym2612"
    },
    {
      "channel": 1,
      "note": 85,
      "start": 28.6062,
      "duration": 0.4757,
      "velocity": 98,
      "chip": "ym2612"
    },
    {
      "channel": 1,
      "note": 90,
      "start": 29.082,
      "duration": 2.1598,
      "velocity": 98,
      "chip": "ym2612"
    },
    {
      "channel": 2,
      "note": 54,
      "start": 29.0823,
      "duration": 0.2375,
      "velocity": 95,
      "chip": "ym2612"
    },
    {
      "channel": 3,
      "note": 66,
      "start": 29.0826,
      "duration": 0.2373,
      "velocity": 95,
      "chip": "ym2612"
    },
    {
      "channel": 0,
      "note": 85,
      "start": 30.9851,
      "duration": 0.2565,
      "velocity": 98,
      "chip": "ym2612"
    },
    {
      "channel": 2,
      "note": 85,
      "start": 30.9855,
      "duration": 2.2184,
      "velocity": 95,
      "chip": "ym2612"
    },
    {
      "channel": 3,
      "note": 90,
      "start": 30.9857,
      "duration": 2.2184,
      "velocity": 95,
      "chip": "ym2612"
    },
    {
      "channel": 4,
      "note": 66,
      "start": 30.9861,
      "duration": 0.2562,
      "velocity": 114,
      "chip": "ym2612"
    },
    {
      "channel": 0,
      "note": 90,
      "start": 31.2418,
      "duration": 0.3171,
      "velocity": 98,
      "chip": "ym2612"
    },
    {
      "channel": 1,
      "note": 85,
      "start": 31.242,
      "duration": 0.3171,
      "velocity": 98,
      "chip": "ym2612"
    },
    {
      "channel": 0,
      "note": 85,
      "start": 31.559,
      "duration": 0.1877,
      "velocity": 98,
      "chip": "ym2612"
    },
    {
      "channel": 1,
      "note": 90,
      "start": 31.5592,
      "duration": 0.1877,
      "velocity": 98,
      "chip": "ym2612"
    },
    {
      "channel": 4,
      "note": 66,
      "start": 31.5596,
      "duration": 0.1877,
      "velocity": 114,
      "chip": "ym2612"
    },
    {
      "channel": 0,
      "note": 93,
      "start": 31.7468,
      "duration": 0.3171,
      "velocity": 98,
      "chip": "ym2612"
    },
    {
      "channel": 1,
      "note": 85,
      "start": 31.7471,
      "duration": 0.3171,
      "velocity": 98,
      "chip": "ym2612"
    },
    {
      "channel": 0,
      "note": 85,
      "start": 32.0641,
      "duration": 0.317,
      "velocity": 98,
      "chip": "ym2612"
    },
    {
      "channel": 1,
      "note": 93,
      "start": 32.0643,
      "duration": 0.3171,
      "velocity": 98,
      "chip": "ym2612"
    },
    {
      "channel": 4,
      "note": 66,
      "start": 32.0647,
      "duration": 0.317,
      "velocity": 114,
      "chip": "ym2612"
    },
    {
      "channel": 0,
      "note": 90,
      "start": 32.3812,
      "duration": 0.3171,
      "velocity": 98,
      "chip": "ym2612"
    },
    {
      "channel": 1,
      "note": 85,
      "start": 32.3815,
      "duration": 0.3171,
      "velocity": 98,
      "chip": "ym2612"
    },
    {
      "channel": 0,
      "note": 85,
      "start": 32.6984,
      "duration": 0.1877,
      "velocity": 98,
      "chip": "ym2612"
    },
    {
      "channel": 1,
      "note": 90,
      "start": 32.6987,
      "duration": 0.1877,
      "velocity": 98,
      "chip": "ym2612"
    },
    {
      "channel": 4,
      "note": 66,
      "start": 32.6991,
      "duration": 0.1877,
      "velocity": 114,
      "chip": "ym2612"
    },
    {
      "channel": 0,
      "note": 90,
      "start": 32.8863,
      "duration": 0.3171,
      "velocity": 98,
      "chip": "ym2612"
    },
    {
      "channel": 1,
      "note": 85,
      "start": 32.8866,
      "duration": 0.3171,
      "velocity": 98,
      "chip": "ym2612"
    },
    {
      "channel": 0,
      "note": 85,
      "start": 33.2035,
      "duration": 0.2565,
      "velocity": 98,
      "chip": "ym2612"
    },
    {
      "channel": 1,
      "note": 90,
      "start": 33.2038,
      "duration": 0.2565,
      "velocity": 98,
      "chip": "ym2612"
    },
    {
      "channel": 2,
      "note": 83,
      "start": 33.204,
      "duration": 2.2182,
      "velocity": 95,
      "chip": "ym2612"
    },
    {
      "channel": 3,
      "note": 88,
      "start": 33.2043,
      "duration": 2.2182,
      "velocity": 95,
      "chip": "ym2612"
    },
    {
      "channel": 4,
      "note": 66,
      "start": 33.2045,
      "duration": 0.256,
      "velocity": 114,
      "chip": "ym2612"
    },
    {
      "channel": 0,
      "note": 93,
      "start": 33.4601,
      "duration": 0.3171,
      "velocity": 98,
      "chip": "ym2612"
    },
    {
      "channel": 1,
      "note": 85,
      "start": 33.4604,
      "duration": 0.3171,
      "velocity": 98,
      "chip": "ym2612"
    },
    {
      "channel": 0,
      "note": 85,
      "start": 33.7773,
      "duration": 0.1877,
      "velocity": 98,
      "chip": "ym2612"
    },
    {
      "channel": 1,
      "note": 93,
      "start": 33.7776,
      "duration": 0.1877,
      "velocity": 98,
      "chip": "ym2612"
    },
    {
      "channel": 4,
      "note": 68,
      "start": 33.778,
      "duration": 0.1877,
      "velocity": 114,
      "chip": "ym2612"
    },
    {
      "channel": 0,
      "note": 95,
      "start": 33.9652,
      "duration": 0.317,
      "velocity": 98,
      "chip": "ym2612"
    },
    {
      "channel": 1,
      "note": 85,
      "start": 33.9655,
      "duration": 0.317,
      "velocity": 98,
      "chip": "ym2612"
    },
    {
      "channel": 0,
      "note": 85,
      "start": 34.2824,
      "duration": 0.3171,
      "velocity": 98,
      "chip": "ym2612"
    },
    {
      "channel": 1,
      "note": 95,
      "start": 34.2826,
      "duration": 0.3171,
      "velocity": 98,
      "chip": "ym2612"
    },
    {
      "channel": 4,
      "note": 69,
      "start": 34.283,
      "duration": 0.317,
      "velocity": 114,
      "chip": "ym2612"
    },
    {
      "channel": 0,
      "note": 97,
      "start": 34.5996,
      "duration": 0.317,
      "velocity": 98,
      "chip": "ym2612"
    },
    {
      "channel": 1,
      "note": 85,
      "start": 34.5998,
      "duration": 0.3171,
      "velocity": 98,
      "chip": "ym2612"
    },
    {
      "channel": 0,
      "note": 85,
      "start": 34.9168,
      "duration": 0.1878,
      "velocity": 98,
      "chip": "ym2612"
    },
    {
      "channel": 1,
      "note": 97,
      "start": 34.9171,
      "duration": 0.1878,
      "velocity": 98,
      "chip": "ym2612"
    },
    {
      "channel": 4,
      "note": 71,
      "start": 34.9174,
      "duration": 0.1877,
      "velocity": 114,
      "chip": "ym2612"
    },
    {
      "channel": 0,
      "note": 92,
      "start": 35.1047,
      "duration": 0.317,
      "velocity": 98,
      "chip": "ym2612"
    },
    {
      "channel": 1,
      "note": 85,
      "start": 35.105,
      "duration": 0.317,
      "velocity": 98,
      "chip": "ym2612"
    },
    {
      "channel": 0,
      "note": 85,
      "start": 35.4219,
      "duration": 0.2564,
      "velocity": 98,
      "chip": "ym2612"
    },
    {
      "channel": 1,
      "note": 92,
      "start": 35.4221,
      "duration": 0.2564,
      "velocity": 98,
      "chip": "ym2612"
    },
    {
      "channel": 2,
      "note": 85,
      "start": 35.4224,
      "duration": 2.2182,
      "velocity": 95,
      "chip": "ym2612"
    },
    {
      "channel": 3,
      "note": 90,
      "start": 35.4227,
      "duration": 2.2182,
      "velocity": 95,
      "chip": "ym2612"
    },
    {
      "channel": 4,
      "note": 66,
      "start": 35.4229,
      "duration": 0.256,
      "velocity": 114,
      "chip": "ym2612"
    },
    {
      "channel": 0,
      "note": 90,
      "start": 35.6785,
      "duration": 0.3171,
      "velocity": 98,
      "chip": "ym2612"
    },
    {
      "channel": 1,
      "note": 85,
      "start": 35.6787,
      "duration": 0.3171,
      "velocity": 98,
      "chip": "ym2612"
    },
    {
      "channel": 0,
      "note": 85,
      "start": 35.9957,
      "duration": 0.1877,
      "velocity": 98,
      "chip": "ym2612"
    },
    {
      "channel": 1,
      "note": 90,
      "start": 35.9959,
      "duration": 0.1877,
      "velocity": 98,
      "chip": "ym2612"
    },
    {
      "channel": 4,
      "note": 66,
      "start": 35.9963,
      "duration": 0.1876,
      "velocity": 114,
      "chip": "ym2612"
    },
    {
      "channel": 0,
      "note": 93,
      "start": 36.1835,
      "duration": 0.3171,
      "velocity": 98,
      "chip": "ym2612"
    },
    {
      "channel": 1,
      "note": 85,
      "start": 36.1837,
      "duration": 0.3171,
      "velocity": 98,
      "chip": "ym2612"
    },
    {
      "channel": 0,
      "note": 85,
      "start": 36.5007,
      "duration": 0.317,
      "velocity": 98,
      "chip": "ym2612"
    },
    {
      "channel": 1,
      "note": 93,
      "start": 36.501,
      "duration": 0.3171,
      "velocity": 98,
      "chip": "ym2612"
    },
    {
      "channel": 4,
      "note": 66,
      "start": 36.5013,
      "duration": 0.317,
      "velocity": 114,
      "chip": "ym2612"
    },
    {
      "channel": 0,
      "note": 90,
      "start": 36.8179,
      "duration": 0.3171,
      "velocity": 98,
      "chip": "ym2612"
    },
    {
      "channel": 1,
      "note": 85,
      "start": 36.8181,
      "duration": 0.3171,
      "velocity": 98,
      "chip": "ym2612"
    },
    {
      "channel": 0,
      "note": 85,
      "start": 37.1351,
      "duration": 0.1878,
      "velocity": 98,
      "chip": "ym2612"
    },
    {
      "channel": 1,
      "note": 90,
      "start": 37.1353,
      "duration": 0.1878,
      "velocity": 98,
      "chip": "ym2612"
    },
    {
      "channel": 4,
      "note": 66,
      "start": 37.1357,
      "duration": 0.1877,
      "velocity": 114,
      "chip": "ym2612"
    },
    {
      "channel": 0,
      "note": 90,
      "start": 37.323,
      "duration": 0.3171,
      "velocity": 98,
      "chip": "ym2612"
    },
    {
      "channel": 1,
      "note": 85,
      "start": 37.3232,
      "duration": 0.3171,
      "velocity": 98,
      "chip": "ym2612"
    },
    {
      "channel": 0,
      "note": 85,
      "start": 37.6402,
      "duration": 0.2564,
      "velocity": 98,
      "chip": "ym2612"
    },
    {
      "channel": 1,
      "note": 90,
      "start": 37.6404,
      "duration": 0.2564,
      "velocity": 98,
      "chip": "ym2612"
    },
    {
      "channel": 2,
      "note": 81,
      "start": 37.6407,
      "duration": 2.2181,
      "velocity": 95,
      "chip": "ym2612"
    },
    {
      "channel": 3,
      "note": 92,
      "start": 37.641,
      "duration": 2.2181,
      "velocity": 95,
      "chip": "ym2612"
    },
    {
      "channel": 4,
      "note": 66,
      "start": 37.6412,
      "duration": 0.256,
      "velocity": 114,
      "chip": "ym2612"
    },
    {
      "channel": 0,
      "note": 93,
      "start": 37.8967,
      "duration": 0.3171,
      "velocity": 98,
      "chip": "ym2612"
    },
    {
      "channel": 1,
      "note": 85,
      "start": 37.897,
      "duration": 0.3171,
      "velocity": 98,
      "chip": "ym2612"
    },
    {
      "channel": 0,
      "note": 85,
      "start": 38.2139,
      "duration": 0.1877,
      "velocity": 98,
      "chip": "ym2612"
    },
    {
      "channel": 1,
      "note": 93,
      "start": 38.2142,
      "duration": 0.1877,
      "velocity": 98,
      "chip": "ym2612"
    },
    {
      "channel": 4,
      "note": 68,
      "start": 38.2146,
      "duration": 0.1877,
      "velocity": 114,
      "chip": "ym2612"
    },
    {
      "channel": 0,
      "note": 95,
      "start": 38.4018,
      "duration": 0.3171,
      "velocity": 98,
      "chip": "ym2612"
    },
    {
      "channel": 1,
      "note": 85,
      "start": 38.402,
      "duration": 0.3171,
      "velocity": 98,
      "chip": "ym2612"
    },
    {
      "channel": 0,
      "note": 85,
      "start": 38.719,
      "duration": 0.3171,
      "velocity": 98,
      "chip": "ym2612"
    },
    {
      "channel": 1,
      "note": 95,
      "start": 38.7192,
      "duration": 0.3171,
      "velocity": 98,
      "chip": "ym2612"
    },
    {
      "channel": 4,
      "note": 69,
      "start": 38.7196,
      "duration": 0.317,
      "velocity": 114,
      "chip": "ym2612"
    },
    {
      "channel": 0,
      "note": 97,
      "start": 39.0362,
      "duration": 0.3171,
      "velocity": 98,
      "chip": "ym2612"
    },
    {
      "channel": 1,
      "note": 85,
      "start": 39.0364,
      "duration": 0.3171,
      "velocity": 98,
      "chip": "ym2612"
    },
    {
      "channel": 0,
      "note": 85,
      "start": 39.3534,
      "duration": 0.1877,
      "velocity": 98,
      "chip": "ym2612"
    },
    {
      "channel": 1,
      "note": 97,
      "start": 39.3536,
      "duration": 0.1877,
      "velocity": 98,
      "chip": "ym2612"
    },
    {
      "channel": 4,
      "note": 73,
      "start": 39.354,
      "duration": 0.1877,
      "velocity": 114,
      "chip": "ym2612"
    },
    {
      "channel": 0,
      "note": 93,
      "start": 39.5412,
      "duration": 0.317,
      "velocity": 98,
      "chip": "ym2612"
    },
    {
      "channel": 1,
      "note": 85,
      "start": 39.5415,
      "duration": 0.317,
      "velocity": 98,
      "chip": "ym2612"
    },
    {
      "channel": 0,
      "note": 97,
      "start": 39.8584,
      "duration": 0.2565,
      "velocity": 98,
      "chip": "ym2612"
    },
    {
      "channel": 1,
      "note": 93,
      "start": 39.8587,
      "duration": 0.2565,
      "velocity": 98,
      "chip": "ym2612"
    },
    {
      "channel": 2,
      "note": 85,
      "start": 39.8589,
      "duration": 1.9537,
      "velocity": 95,
      "chip": "ym2612"
    },
    {
      "channel": 3,
      "note": 90,
      "start": 39.8592,
      "duration": 1.9537,
      "velocity": 95,
      "chip": "ym2612"
    },
    {
      "channel": 4,
      "note": 66,
      "start": 39.8595,
      "duration": 0.256,
      "velocity": 114,
      "chip": "ym2612"
    },
    {
      "channel": 0,
      "note": 102,
      "start": 40.1151,
      "duration": 0.3171,
      "velocity": 98,
      "chip": "ym2612"
    },
    {
      "channel": 1,
      "note": 97,
      "start": 40.1153,
      "duration": 0.3171,
      "velocity": 98,
      "chip": "ym2612"
    },
    {
      "channel": 0,
      "note": 97,
      "start": 40.4322,
      "duration": 0.1877,
      "velocity": 98,
      "chip": "ym2612"
    },
    {
      "channel": 1,
      "note": 102,
      "start": 40.4325,
      "duration": 0.1877,
      "velocity": 98,
      "chip": "ym2612"
    },
    {
      "channel": 4,
      "note": 66,
      "start": 40.4329,
      "duration": 0.1877,
      "velocity": 114,
      "chip": "ym2612"
    },
    {
      "channel": 0,
      "note": 105,
      "start": 40.6201,
      "duration": 0.3171,
      "velocity": 98,
      "chip": "ym2612"
    },
    {
      "channel": 1,
      "note": 97,
      "start": 40.6204,
      "duration": 0.3171,
      "velocity": 98,
      "chip": "ym2612"
    },
    {
      "channel": 0,
      "note": 97,
      "start": 40.9373,
      "duration": 0.0526,
      "velocity": 98,
      "chip": "ym2612"
    },
    {
      "channel": 1,
      "note": 105,
      "start": 40.9376,
      "duration": 0.0526,
      "velocity": 98,
      "chip": "ym2612"
    },
    {
      "channel": 4,
      "note": 66,
      "start": 40.9379,
      "duration": 0.0525,
      "velocity": 114,
      "chip": "ym2612"
    },
    {
      "channel": 0,
      "note": 102,
      "start": 40.99,
      "duration": 0.3171,
      "velocity": 98,
      "chip": "ym2612"
    },
    {
      "channel": 1,
      "note": 97,
      "start": 40.9903,
      "duration": 0.3171,
      "velocity": 98,
      "chip": "ym2612"
    },
    {
      "channel": 0,
      "note": 97,
      "start": 41.3072,
      "duration": 0.1877,
      "velocity": 98,
      "chip": "ym2612"
    },
    {
      "channel": 1,
      "note": 102,
      "start": 41.3075,
      "duration": 0.1877,
      "velocity": 98,
      "chip": "ym2612"
    },
    {
      "channel": 4,
      "note": 66,
      "start": 41.3079,
      "duration": 0.1877,
      "velocity": 114,
      "chip": "ym2612"
    },
    {
      "channel": 0,
      "note": 102,
      "start": 41.4951,
      "duration": 0.3171,
      "velocity": 98,
      "chip": "ym2612"
    },
    {
      "channel": 1,
      "note": 97,
      "start": 41.4954,
      "duration": 0.3171,
      "velocity": 98,
      "chip": "ym2612"
    },
    {
      "channel": 0,
      "note": 97,
      "start": 41.8123,
      "duration": 0.2565,
      "velocity": 98,
      "chip": "ym2612"
    },
    {
      "channel": 1,
      "note": 102,
      "start": 41.8125,
      "duration": 0.2565,
      "velocity": 98,
      "chip": "ym2612"
    },
    {
      "channel": 2,
      "note": 86,
      "start": 41.8128,
      "duration": 1.9538,
      "velocity": 95,
      "chip": "ym2612"
    },
    {
      "channel": 3,
      "note": 91,
      "start": 41.8131,
      "duration": 1.9538,
      "velocity": 95,
      "chip": "ym2612"
    },
    {
      "channel": 4,
      "note": 66,
      "start": 41.8133,
      "duration": 0.256,
      "velocity": 114,
      "chip": "ym2612"
    },
    {
      "channel": 0,
      "note": 105,
      "start": 42.0689,
      "duration": 0.317,
      "velocity": 98,
      "chip": "ym2612"
    },
    {
      "channel": 1,
      "note": 97,
      "start": 42.0691,
      "duration": 0.317,
      "velocity": 98,
      "chip": "ym2612"
    },
    {
      "channel": 0,
      "note": 97,
      "start": 42.3861,
      "duration": 0.1878,
      "velocity": 98,
      "chip": "ym2612"
    },
    {
      "channel": 1,
      "note": 105,
      "start": 42.3863,
      "duration": 0.1878,
      "velocity": 98,
      "chip": "ym2612"
    },
    {
      "channel": 4,
      "note": 68,
      "start": 42.3867,
      "duration": 0.1877,
      "velocity": 114,
      "chip": "ym2612"
    },
    {
      "channel": 0,
      "note": 107,
      "start": 42.574,
      "duration": 0.3171,
      "velocity": 98,
      "chip": "ym2612"
    },
    {
      "channel": 1,
      "note": 97,
      "start": 42.5742,
      "duration": 0.3171,
      "velocity": 98,
      "chip": "ym2612"
    },
    {
      "channel": 0,
      "note": 97,
      "start": 42.8912,
      "duration": 0.0526,
      "velocity": 98,
      "chip": "ym2612"
    },
    {
      "channel": 1,
      "note": 107,
      "start": 42.8914,
      "duration": 0.0526,
      "velocity": 98,
      "chip": "ym2612"
    },
    {
      "channel": 4,
      "note": 69,
      "start": 42.8918,
      "duration": 0.0525,
      "velocity": 114,
      "chip": "ym2612"
    },
    {
      "channel": 0,
      "note": 109,
      "start": 42.9439,
      "duration": 0.3171,
      "velocity": 98,
      "chip": "ym2612"
    },
    {
      "channel": 1,
      "note": 97,
      "start": 42.9441,
      "duration": 0.3171,
      "velocity": 98,
      "chip": "ym2612"
    },
    {
      "channel": 0,
      "note": 97,
      "start": 43.2611,
      "duration": 0.1877,
      "velocity": 98,
      "chip": "ym2612"
    },
    {
      "channel": 1,
      "note": 109,
      "start": 43.2614,
      "duration": 0.1878,
      "velocity": 98,
      "chip": "ym2612"
    },
    {
      "channel": 4,
      "note": 71,
      "start": 43.2618,
      "duration": 0.1877,
      "velocity": 114,
      "chip": "ym2612"
    },
    {
      "channel": 0,
      "note": 104,
      "start": 43.449,
      "duration": 0.3171,
      "velocity": 98,
      "chip": "ym2612"
    },
    {
      "channel": 1,
      "note": 97,
      "start": 43.4493,
      "duration": 0.3171,
      "velocity": 98,
      "chip": "ym2612"
    },
    {
      "channel": 0,
      "note": 97,
      "start": 43.7662,
      "duration": 0.2564,
      "velocity": 98,
      "chip": "ym2612"
    },
    {
      "channel": 1,
      "note": 104,
      "start": 43.7664,
      "duration": 0.2564,
      "velocity": 98,
      "chip": "ym2612"
    },
    {
      "channel": 2,
      "note": 87,
      "start": 43.7667,
      "duration": 1.9537,
      "velocity": 95,
      "chip": "ym2612"
    },
    {
      "channel": 3,
      "note": 93,
      "start": 43.767,
      "duration": 1.9537,
      "velocity": 95,
      "chip": "ym2612"
    },
    {
      "channel": 4,
      "note": 66,
      "start": 43.7672,
      "duration": 0.256,
      "velocity": 114,
      "chip": "ym2612"
    },
    {
      "channel": 0,
      "note": 102,
      "start": 44.0228,
      "duration": 0.3171,
      "velocity": 98,
      "chip": "ym2612"
    },
    {
      "channel": 1,
      "note": 97,
      "start": 44.023,
      "duration": 0.3171,
      "velocity": 98,
      "chip": "ym2612"
    },
    {
      "channel": 0,
      "note": 97,
      "start": 44.34,
      "duration": 0.1877,
      "velocity": 98,
      "chip": "ym2612"
    },
    {
      "channel": 1,
      "note": 102,
      "start": 44.3402,
      "duration": 0.1877,
      "velocity": 98,
      "chip": "ym2612"
    },
    {
      "channel": 4,
      "note": 66,
      "start": 44.3406,
      "duration": 0.1877,
      "velocity": 114,
      "chip": "ym2612"
    },
    {
      "channel": 0,
      "note": 105,
      "start": 44.5278,
      "duration": 0.3171,
      "velocity": 98,
      "chip": "ym2612"
    },
    {
      "channel": 1,
      "note": 97,
      "start": 44.5281,
      "duration": 0.3171,
      "velocity": 98,
      "chip": "ym2612"
    },
    {
      "channel": 0,
      "note": 97,
      "start": 44.845,
      "duration": 0.0526,
      "velocity": 98,
      "chip": "ym2612"
    },
    {
      "channel": 1,
      "note": 105,
      "start": 44.8453,
      "duration": 0.0527,
      "velocity": 98,
      "chip": "ym2612"
    },
    {
      "channel": 4,
      "note": 66,
      "start": 44.8457,
      "duration": 0.0526,
      "velocity": 114,
      "chip": "ym2612"
    },
    {
      "channel": 0,
      "note": 102,
      "start": 44.8978,
      "duration": 0.3171,
      "velocity": 98,
      "chip": "ym2612"
    },
    {
      "channel": 1,
      "note": 97,
      "start": 44.898,
      "duration": 0.3171,
      "velocity": 98,
      "chip": "ym2612"
    },
    {
      "channel": 0,
      "note": 97,
      "start": 45.215,
      "duration": 0.1877,
      "velocity": 98,
      "chip": "ym2612"
    },
    {
      "channel": 1,
      "note": 102,
      "start": 45.2153,
      "duration": 0.1877,
      "velocity": 98,
      "chip": "ym2612"
    },
    {
      "channel": 4,
      "note": 66,
      "start": 45.2156,
      "duration": 0.1877,
      "velocity": 114,
      "chip": "ym2612"
    },
    {
      "channel": 0,
      "note": 102,
      "start": 45.4029,
      "duration": 0.3171,
      "velocity": 98,
      "chip": "ym2612"
    },
    {
      "channel": 1,
      "note": 97,
      "start": 45.4031,
      "duration": 0.3171,
      "velocity": 98,
      "chip": "ym2612"
    },
    {
      "channel": 0,
      "note": 97,
      "start": 45.7201,
      "duration": 0.2564,
      "velocity": 98,
      "chip": "ym2612"
    },
    {
      "channel": 1,
      "note": 102,
      "start": 45.7203,
      "duration": 0.2565,
      "velocity": 98,
      "chip": "ym2612"
    },
    {
      "channel": 2,
      "note": 85,
      "start": 45.7205,
      "duration": 1.554,
      "velocity": 95,
      "chip": "ym2612"
    },
    {
      "channel": 3,
      "note": 90,
      "start": 45.7208,
      "duration": 1.554,
      "velocity": 95,
      "chip": "ym2612"
    },
    {
      "channel": 4,
      "note": 66,
      "start": 45.7211,
      "duration": 0.256,
      "velocity": 114,
      "chip": "ym2612"
    },
    {
      "channel": 0,
      "note": 105,
      "start": 45.9766,
      "duration": 0.3171,
      "velocity": 98,
      "chip": "ym2612"
    },
    {
      "channel": 1,
      "note": 97,
      "start": 45.9769,
      "duration": 0.3171,
      "velocity": 98,
      "chip": "ym2612"
    },
    {
      "channel": 0,
      "note": 97,
      "start": 46.2939,
      "duration": 0.1877,
      "velocity": 98,
      "chip": "ym2612"
    },
    {
      "channel": 1,
      "note": 105,
      "start": 46.2941,
      "duration": 0.1877,
      "velocity": 98,
      "chip": "ym2612"
    },
    {
      "channel": 4,
      "note": 68,
      "start": 46.2945,
      "duration": 0.1876,
      "velocity": 114,
      "chip": "ym2612"
    },
    {
      "channel": 0,
      "note": 107,
      "start": 46.4817,
      "duration": 0.3171,
      "velocity": 98,
      "chip": "ym2612"
    },
    {
      "channel": 1,
      "note": 97,
      "start": 46.4819,
      "duration": 0.3171,
      "velocity": 98,
      "chip": "ym2612"
    },
    {
      "channel": 0,
      "note": 97,
      "start": 46.7989,
      "duration": 0.0526,
      "velocity": 98,
      "chip": "ym2612"
    },
    {
      "channel": 1,
      "note": 107,
      "start": 46.7991,
      "duration": 0.0526,
      "velocity": 98,
      "chip": "ym2612"
    },
    {
      "channel": 4,
      "note": 69,
      "start": 46.7995,
      "duration": 0.0525,
      "velocity": 114,
      "chip": "ym2612"
    },
    {
      "channel": 0,
      "note": 109,
      "start": 46.8516,
      "duration": 0.1761,
      "velocity": 98,
      "chip": "ym2612"
    },
    {
      "channel": 1,
      "note": 97,
      "start": 46.8518,
      "duration": 0.1761,
      "velocity": 98,
      "chip": "ym2612"
    },
    {
      "channel": 0,
      "note": 97,
      "start": 47.0278,
      "duration": 0.1937,
      "velocity": 98,
      "chip": "ym2612"
    },
    {
      "channel": 1,
      "note": 109,
      "start": 47.028,
      "duration": 0.1937,
      "velocity": 98,
      "chip": "ym2612"
    },
    {
      "channel": 4,
      "note": 73,
      "start": 47.0284,
      "duration": 0.1937,
      "velocity": 114,
      "chip": "ym2612"
    },
    {
      "channel": 0,
      "note": 105,
      "start": 47.2216,
      "duration": 0.0526,
      "velocity": 98,
      "chip": "ym2612"
    },
    {
      "channel": 1,
      "note": 97,
      "start": 47.2219,
      "duration": 0.0683,
      "velocity": 98,
      "chip": "ym2612"
    },
    {
      "channel": 0,
      "note": 102,
      "start": 47.2744,
      "duration": 3.3791,
      "velocity": 98,
      "chip": "ym2612"
    },
    {
      "channel": 2,
      "note": 54,
      "start": 47.2747,
      "duration": 0.0297,
      "velocity": 95,
      "chip": "ym2612"
    },
    {
      "channel": 3,
      "note": 66,
      "start": 47.2749,
      "duration": 0.0296,
      "velocity": 95,
      "chip": "ym2612"
    },
    {
      "channel": 1,
      "note": 102,
      "start": 47.2904,
      "duration": 3.9978,
      "velocity": 98,
      "chip": "ym2612"
    },
    {
      "channel": 2,
      "note": 54,
      "start": 48.7506,
      "duration": 0.2377,
      "velocity": 95,
      "chip": "ym2612"
    },
    {
      "channel": 3,
      "note": 66,
      "start": 48.7509,
      "duration": 0.2375,
      "velocity": 95,
      "chip": "ym2612"
    },
    {
      "channel": 2,
      "note": 54,
      "start": 49.7022,
      "duration": 0.2377,
      "velocity": 95,
      "chip": "ym2612"
    },
    {
      "channel": 3,
      "note": 66,
      "start": 49.7024,
      "duration": 0.2375,
      "velocity": 95,
      "chip": "ym2612"
    },
    {
      "channel": 2,
      "note": 54,
      "start": 50.178,
      "duration": 0.2377,
      "velocity": 95,
      "chip": "ym2612"
    },
    {
      "channel": 3,
      "note": 66,
      "start": 50.1782,
      "duration": 0.2376,
      "velocity": 95,
      "chip": "ym2612"
    },
    {
      "channel": 0,
      "note": 78,
      "start": 50.6548,
      "duration": 0.3159,
      "velocity": 98,
      "chip": "ym2612"
    },
    {
      "channel": 4,
      "note": 66,
      "start": 50.6553,
      "duration": 0.9504,
      "velocity": 114,
      "chip": "ym2612"
    },
    {
      "channel": 0,
      "note": 85,
      "start": 50.9708,
      "duration": 0.3171,
      "velocity": 98,
      "chip": "ym2612"
    },
    {
      "channel": 0,
      "note": 90,
      "start": 51.288,
      "duration": 0.317,
      "velocity": 98,
      "chip": "ym2612"
    },
    {
      "channel": 1,
      "note": 78,
      "start": 51.2883,
      "duration": 0.317,
      "velocity": 98,
      "chip": "ym2612"
    },
    {
      "channel": 0,
      "note": 102,
      "start": 51.6052,
      "duration": 1.5859,
      "velocity": 98,
      "chip": "ym2612"
    },
    {
      "channel": 1,
      "note": 85,
      "start": 51.6055,
      "duration": 0.3168,
      "velocity": 98,
      "chip": "ym2612"
    },
    {
      "channel": 4,
      "note": 66,
      "start": 51.6059,
      "duration": 0.3168,
      "velocity": 114,
      "chip": "ym2612"
    },
    {
      "channel": 1,
      "note": 90,
      "start": 51.9225,
      "duration": 0.317,
      "velocity": 98,
      "chip": "ym2612"
    },
    {
      "channel": 1,
      "note": 102,
      "start": 52.2397,
      "duration": 1.586,
      "velocity": 98,
      "chip": "ym2612"
    },
    {
      "channel": 4,
      "note": 66,
      "start": 52.24,
      "duration": 0.3168,
      "velocity": 114,
      "chip": "ym2612"
    },
    {
      "channel": 0,
      "note": 78,
      "start": 53.1912,
      "duration": 0.3171,
      "velocity": 98,
      "chip": "ym2612"
    },
    {
      "channel": 4,
      "note": 66,
      "start": 53.1916,
      "duration": 0.9516,
      "velocity": 114,
      "chip": "ym2612"
    },
    {
      "channel": 0,
      "note": 85,
      "start": 53.5084,
      "duration": 0.3171,
      "velocity": 98,
      "chip": "ym2612"
    },
    {
      "channel": 0,
      "note": 90,
      "start": 53.8256,
      "duration": 0.317,
      "velocity": 98,
      "chip": "ym2612"
    },
    {
      "channel": 1,
      "note": 78,
      "start": 53.8258,
      "duration": 0.317,
      "velocity": 98,
      "chip": "ym2612"
    },
    {
      "channel": 0,
      "note": 102,
      "start": 54.1427,
      "duration": 0.3171,
      "velocity": 98,
      "chip": "ym2612"
    },
    {
      "channel": 1,
      "note": 85,
      "start": 54.143,
      "duration": 0.3171,
      "velocity": 98,
      "chip": "ym2612"
    },
    {
      "channel": 4,
      "note": 66,
      "start": 54.1434,
      "duration": 0.317,
      "velocity": 114,
      "chip": "ym2612"
    },
    {
      "channel": 0,
      "note": 97,
      "start": 54.46,
      "duration": 1.2686,
      "velocity": 98,
      "chip": "ym2612"
    },
    {
      "channel": 1,
      "note": 90,
      "start": 54.4602,
      "duration": 0.3168,
      "velocity": 98,
      "chip": "ym2612"
    },
    {
      "channel": 1,
      "note": 102,
      "start": 54.7772,
      "duration": 0.3171,
      "velocity": 98,
      "chip": "ym2612"
    },
    {
      "channel": 1,
      "note": 97,
      "start": 55.0944,
      "duration": 1.2688,
      "velocity": 98,
      "chip": "ym2612"
    },
    {
      "channel": 4,
      "note": 67,
      "start": 55.0948,
      "duration": 0.3168,
      "velocity": 114,
      "chip": "ym2612"
    },
    {
      "channel": 0,
      "note": 78,
      "start": 55.7288,
      "duration": 0.317,
      "velocity": 98,
      "chip": "ym2612"
    },
    {
      "channel": 4,
      "note": 66,
      "start": 55.7292,
      "duration": 0.9516,
      "velocity": 114,
      "chip": "ym2612"
    },
    {
      "channel": 0,
      "note": 85,
      "start": 56.0459,
      "duration": 0.3171,
      "velocity": 98,
      "chip": "ym2612"
    },
    {
      "channel": 0,
      "note": 90,
      "start": 56.3631,
      "duration": 0.3171,
      "velocity": 98,
      "chip": "ym2612"
    },
    {
      "channel": 1,
      "note": 78,
      "start": 56.3634,
      "duration": 0.3171,
      "velocity": 98,
      "chip": "ym2612"
    },
    {
      "channel": 0,
      "note": 102,
      "start": 56.6803,
      "duration": 1.5858,
      "velocity": 98,
      "chip": "ym2612"
    },
    {
      "channel": 1,
      "note": 85,
      "start": 56.6806,
      "duration": 0.3168,
      "velocity": 98,
      "chip": "ym2612"
    },
    {
      "channel": 4,
      "note": 66,
      "start": 56.681,
      "duration": 0.3168,
      "velocity": 114,
      "chip": "ym2612"
    },
    {
      "channel": 1,
      "note": 90,
      "start": 56.9976,
      "duration": 0.317,
      "velocity": 98,
      "chip": "ym2612"
    },
    {
      "channel": 1,
      "note": 102,
      "start": 57.3148,
      "duration": 1.586,
      "velocity": 98,
      "chip": "ym2612"
    },
    {
      "channel": 0,
      "note": 78,
      "start": 58.2663,
      "duration": 0.3171,
      "velocity": 98,
      "chip": "ym2612"
    },
    {
      "channel": 4,
      "note": 66,
      "start": 58.2667,
      "duration": 0.9516,
      "velocity": 114,
      "chip": "ym2612"
    },
    {
      "channel": 0,
      "note": 85,
      "start": 58.5835,
      "duration": 0.317,
      "velocity": 98,
      "chip": "ym2612"
    },
    {
      "channel": 0,
      "note": 90,
      "start": 58.9007,
      "duration": 0.3171,
      "velocity": 98,
      "chip": "ym2612"
    },
    {
      "channel": 1,
      "note": 78,
      "start": 58.9009,
      "duration": 0.3171,
      "velocity": 98,
      "chip": "ym2612"
    },
    {
      "channel": 0,
      "note": 102,
      "start": 59.2179,
      "duration": 0.3171,
      "velocity": 98,
      "chip": "ym2612"
    },
    {
      "channel": 1,
      "note": 85,
      "start": 59.2181,
      "duration": 0.3171,
      "velocity": 98,
      "chip": "ym2612"
    },
    {
      "channel": 4,
      "note": 66,
      "start": 59.2185,
      "duration": 0.317,
      "velocity": 114,
      "chip": "ym2612"
    },
    {
      "channel": 0,
      "note": 97,
      "start": 59.5351,
      "duration": 0.3528,
      "velocity": 98,
      "chip": "ym2612"
    },
    {
      "channel": 1,
      "note": 90,
      "start": 59.5353,
      "duration": 0.3169,
      "velocity": 98,
      "chip": "ym2612"
    },
    {
      "channel": 1,
      "note": 102,
      "start": 59.8523,
      "duration": 0.0358,
      "velocity": 98,
      "chip": "ym2612"
    },
    {
      "channel": 0,
      "note": 93,
      "start": 59.888,
      "duration": 8.7549,
      "velocity": 98,
      "chip": "ym2612"
    },
    {
      "channel": 1,
      "note": 97,
      "start": 59.8883,
      "duration": 8.7546,
      "velocity": 98,
      "chip": "ym2612"
    },
    {
      "channel": 4,
      "note": 67,
      "start": 59.8887,
      "duration": 0.0353,
      "velocity": 114,
      "chip": "ym2612"
    }
  ]
}