{
  "track_name": "09 - Battle Theme 6",
  "duration_sec": 40.877,
  "sample_rate": 44100,
  "note_count": 1184,
  "unique_pitches": 45,
  "pitch_range": 61,
  "avg_note_duration": 0.1856,
  "reconstruction_stats": {
    "notes_reconstructed": 1184,
    "keyon_events": 1184,
    "keyoff_events": 1183,
    "orphan_keyons": 1,
    "unique_pitches": 45,
    "pitch_range": 61,
    "avg_duration_sec": 0.1856
  },
  "metadata": {
    "source": "D\\Dragon Ball Z - Bu Yuu Retsuden\\09 - Battle Theme 6.vgm"
  },
  "notes": [
    {
      "channel": 0,
      "note": 57,
      "start": 0.0022,
      "duration": 0.1975,
      "velocity": 99,
      "chip": "ym2612"
    },
    {
      "channel": 1,
      "note": 37,
      "start": 0.0057,
      "duration": 0.1127,
      "velocity": 127,
      "chip": "ym2612"
    },
    {
      "channel": 3,
      "note": 64,
      "start": 0.0099,
      "duration": 0.2905,
      "velocity": 102,
      "chip": "ym2612"
    },
    {
      "channel": 4,
      "note": 57,
      "start": 0.012,
      "duration": 0.1551,
      "velocity": 102,
      "chip": "ym2612"
    },
    {
      "channel": 1,
      "note": 64,
      "start": 0.1184,
      "duration": 0.1014,
      "velocity": 127,
      "chip": "ym2612"
    },
    {
      "channel": 0,
      "note": 57,
      "start": 0.2178,
      "duration": 0.1986,
      "velocity": 99,
      "chip": "ym2612"
    },
    {
      "channel": 1,
      "note": 64,
      "start": 0.2199,
      "duration": 0.0985,
      "velocity": 127,
      "chip": "ym2612"
    },
    {
      "channel": 2,
      "note": 69,
      "start": 0.2207,
      "duration": 0.1962,
      "velocity": 92,
      "chip": "ym2612"
    },
    {
      "channel": 4,
      "note": 57,
      "start": 0.2218,
      "duration": 0.0789,
      "velocity": 102,
      "chip": "ym2612"
    },
    {
      "channel": 1,
      "note": 64,
      "start": 0.3184,
      "duration": 0.1176,
      "velocity": 120,
      "chip": "ym2612"
    },
    {
      "channel": 4,
      "note": 57,
      "start": 0.3198,
      "duration": 0.0809,
      "velocity": 102,
      "chip": "ym2612"
    },
    {
      "channel": 0,
      "note": 57,
      "start": 0.4339,
      "duration": 0.1997,
      "velocity": 99,
      "chip": "ym2612"
    },
    {
      "channel": 1,
      "note": 76,
      "start": 0.4361,
      "duration": 0.0993,
      "velocity": 127,
      "chip": "ym2612"
    },
    {
      "channel": 2,
      "note": 72,
      "start": 0.4369,
      "duration": 0.0993,
      "velocity": 92,
      "chip": "ym2612"
    },
    {
      "channel": 3,
      "note": 64,
      "start": 0.4378,
      "duration": 0.146,
      "velocity": 102,
      "chip": "ym2612"
    },
    {
      "channel": 4,
      "note": 57,
      "start": 0.4386,
      "duration": 0.0788,
      "velocity": 102,
      "chip": "ym2612"
    },
    {
      "channel": 5,
      "note": 69,
      "start": 0.4849,
      "duration": 0.1992,
      "velocity": 92,
      "chip": "ym2612"
    },
    {
      "channel": 1,
      "note": 64,
      "start": 0.5354,
      "duration": 0.1002,
      "velocity": 127,
      "chip": "ym2612"
    },
    {
      "channel": 2,
      "note": 69,
      "start": 0.5362,
      "duration": 0.1003,
      "velocity": 92,
      "chip": "ym2612"
    },
    {
      "channel": 4,
      "note": 57,
      "start": 0.5373,
      "duration": 0.0802,
      "velocity": 102,
      "chip": "ym2612"
    },
    {
      "channel": 0,
      "note": 55,
      "start": 0.6336,
      "duration": 0.1995,
      "velocity": 99,
      "chip": "ym2612"
    },
    {
      "channel": 1,
      "note": 64,
      "start": 0.6357,
      "duration": 0.1161,
      "velocity": 127,
      "chip": "ym2612"
    },
    {
      "channel": 2,
      "note": 74,
      "start": 0.6366,
      "duration": 0.197,
      "velocity": 92,
      "chip": "ym2612"
    },
    {
      "channel": 3,
      "note": 62,
      "start": 0.6374,
      "duration": 0.2963,
      "velocity": 102,
      "chip": "ym2612"
    },
    {
      "channel": 4,
      "note": 55,
      "start": 0.6383,
      "duration": 0.2456,
      "velocity": 102,
      "chip": "ym2612"
    },
    {
      "channel": 5,
      "note": 72,
      "start": 0.7013,
      "duration": 0.0999,
      "velocity": 92,
      "chip": "ym2612"
    },
    {
      "channel": 1,
      "note": 37,
      "start": 0.7519,
      "duration": 0.1997,
      "velocity": 127,
      "chip": "ym2612"
    },
    {
      "channel": 5,
      "note": 69,
      "start": 0.8013,
      "duration": 0.1001,
      "velocity": 92,
      "chip": "ym2612"
    },
    {
      "channel": 0,
      "note": 55,
      "start": 0.8504,
      "duration": 0.1992,
      "velocity": 99,
      "chip": "ym2612"
    },
    {
      "channel": 2,
      "note": 69,
      "start": 0.8515,
      "duration": 0.1009,
      "velocity": 92,
      "chip": "ym2612"
    },
    {
      "channel": 5,
      "note": 74,
      "start": 0.9015,
      "duration": 0.1992,
      "velocity": 92,
      "chip": "ym2612"
    },
    {
      "channel": 1,
      "note": 37,
      "start": 0.9516,
      "duration": 0.2169,
      "velocity": 127,
      "chip": "ym2612"
    },
    {
      "channel": 2,
      "note": 72,
      "start": 0.9525,
      "duration": 0.1975,
      "velocity": 92,
      "chip": "ym2612"
    },
    {
      "channel": 4,
      "note": 55,
      "start": 0.9537,
      "duration": 0.0802,
      "velocity": 102,
      "chip": "ym2612"
    },
    {
      "channel": 0,
      "note": 55,
      "start": 1.067,
      "duration": 0.1997,
      "velocity": 99,
      "chip": "ym2612"
    },
    {
      "channel": 3,
      "note": 62,
      "start": 1.0682,
      "duration": 0.2988,
      "velocity": 102,
      "chip": "ym2612"
    },
    {
      "channel": 4,
      "note": 55,
      "start": 1.069,
      "duration": 0.1647,
      "velocity": 102,
      "chip": "ym2612"
    },
    {
      "channel": 5,
      "note": 69,
      "start": 1.1179,
      "duration": 0.0999,
      "velocity": 92,
      "chip": "ym2612"
    },
    {
      "channel": 1,
      "note": 37,
      "start": 1.1685,
      "duration": 0.1003,
      "velocity": 120,
      "chip": "ym2612"
    },
    {
      "channel": 2,
      "note": 69,
      "start": 1.1694,
      "duration": 0.1003,
      "velocity": 92,
      "chip": "ym2612"
    },
    {
      "channel": 5,
      "note": 72,
      "start": 1.2179,
      "duration": 0.1996,
      "velocity": 92,
      "chip": "ym2612"
    },
    {
      "channel": 0,
      "note": 55,
      "start": 1.2667,
      "duration": 0.1995,
      "velocity": 99,
      "chip": "ym2612"
    },
    {
      "channel": 1,
      "note": 76,
      "start": 1.2689,
      "duration": 0.2168,
      "velocity": 127,
      "chip": "ym2612"
    },
    {
      "channel": 2,
      "note": 74,
      "start": 1.2698,
      "duration": 0.3966,
      "velocity": 92,
      "chip": "ym2612"
    },
    {
      "channel": 4,
      "note": 55,
      "start": 1.2708,
      "duration": 0.0796,
      "velocity": 102,
      "chip": "ym2612"
    },
    {
      "channel": 4,
      "note": 55,
      "start": 1.3846,
      "duration": 0.0826,
      "velocity": 102,
      "chip": "ym2612"
    },
    {
      "channel": 5,
      "note": 69,
      "start": 1.4346,
      "duration": 0.0998,
      "velocity": 92,
      "chip": "ym2612"
    },
    {
      "channel": 0,
      "note": 55,
      "start": 1.4837,
      "duration": 0.199,
      "velocity": 99,
      "chip": "ym2612"
    },
    {
      "channel": 1,
      "note": 37,
      "start": 1.4858,
      "duration": 0.2166,
      "velocity": 127,
      "chip": "ym2612"
    },
    {
      "channel": 3,
      "note": 62,
      "start": 1.4868,
      "duration": 0.1465,
      "velocity": 102,
      "chip": "ym2612"
    },
    {
      "channel": 4,
      "note": 55,
      "start": 1.4877,
      "duration": 0.1627,
      "velocity": 102,
      "chip": "ym2612"
    },
    {
      "channel": 5,
      "note": 74,
      "start": 1.5344,
      "duration": 0.3992,
      "velocity": 92,
      "chip": "ym2612"
    },
    {
      "channel": 0,
      "note": 62,
      "start": 1.7002,
      "duration": 0.2,
      "velocity": 99,
      "chip": "ym2612"
    },
    {
      "channel": 1,
      "note": 37,
      "start": 1.7024,
      "duration": 0.0988,
      "velocity": 127,
      "chip": "ym2612"
    },
    {
      "channel": 2,
      "note": 74,
      "start": 1.7033,
      "duration": 0.0987,
      "velocity": 92,
      "chip": "ym2612"
    },
    {
      "channel": 3,
      "note": 57,
      "start": 1.7042,
      "duration": 0.2956,
      "velocity": 102,
      "chip": "ym2612"
    },
    {
      "channel": 4,
      "note": 50,
      "start": 1.7051,
      "duration": 0.1617,
      "velocity": 102,
      "chip": "ym2612"
    },
    {
      "channel": 1,
      "note": 64,
      "start": 1.8012,
      "duration": 0.1011,
      "velocity": 127,
      "chip": "ym2612"
    },
    {
      "channel": 2,
      "note": 72,
      "start": 1.8021,
      "duration": 0.1011,
      "velocity": 92,
      "chip": "ym2612"
    },
    {
      "channel": 0,
      "note": 62,
      "start": 1.9002,
      "duration": 0.1988,
      "velocity": 99,
      "chip": "ym2612"
    },
    {
      "channel": 1,
      "note": 64,
      "start": 1.9024,
      "duration": 0.1154,
      "velocity": 127,
      "chip": "ym2612"
    },
    {
      "channel": 2,
      "note": 71,
      "start": 1.9032,
      "duration": 0.1154,
      "velocity": 92,
      "chip": "ym2612"
    },
    {
      "channel": 4,
      "note": 50,
      "start": 1.9042,
      "duration": 0.0791,
      "velocity": 102,
      "chip": "ym2612"
    },
    {
      "channel": 5,
      "note": 74,
      "start": 1.9509,
      "duration": 0.1165,
      "velocity": 92,
      "chip": "ym2612"
    },
    {
      "channel": 1,
      "note": 64,
      "start": 2.0178,
      "duration": 0.1009,
      "velocity": 120,
      "chip": "ym2612"
    },
    {
      "channel": 2,
      "note": 69,
      "start": 2.0186,
      "duration": 0.1009,
      "velocity": 92,
      "chip": "ym2612"
    },
    {
      "channel": 4,
      "note": 50,
      "start": 2.0198,
      "duration": 0.0803,
      "velocity": 102,
      "chip": "ym2612"
    },
    {
      "channel": 5,
      "note": 72,
      "start": 2.0675,
      "duration": 0.1,
      "velocity": 92,
      "chip": "ym2612"
    },
    {
      "channel": 0,
      "note": 62,
      "start": 2.1166,
      "duration": 0.1992,
      "velocity": 99,
      "chip": "ym2612"
    },
    {
      "channel": 1,
      "note": 76,
      "start": 2.1187,
      "duration": 0.0993,
      "velocity": 127,
      "chip": "ym2612"
    },
    {
      "channel": 2,
      "note": 67,
      "start": 2.1195,
      "duration": 0.0993,
      "velocity": 92,
      "chip": "ym2612"
    },
    {
      "channel": 3,
      "note": 57,
      "start": 2.1204,
      "duration": 0.1461,
      "velocity": 102,
      "chip": "ym2612"
    },
    {
      "channel": 4,
      "note": 50,
      "start": 2.1212,
      "duration": 0.0788,
      "velocity": 102,
      "chip": "ym2612"
    },
    {
      "channel": 5,
      "note": 71,
      "start": 2.1676,
      "duration": 0.0999,
      "velocity": 92,
      "chip": "ym2612"
    },
    {
      "channel": 1,
      "note": 64,
      "start": 2.218,
      "duration": 0.1169,
      "velocity": 127,
      "chip": "ym2612"
    },
    {
      "channel": 2,
      "note": 66,
      "start": 2.2189,
      "duration": 0.1169,
      "velocity": 92,
      "chip": "ym2612"
    },
    {
      "channel": 4,
      "note": 50,
      "start": 2.2199,
      "duration": 0.0802,
      "velocity": 102,
      "chip": "ym2612"
    },
    {
      "channel": 5,
      "note": 69,
      "start": 2.2675,
      "duration": 0.1163,
      "velocity": 92,
      "chip": "ym2612"
    },
    {
      "channel": 0,
      "note": 64,
      "start": 2.3329,
      "duration": 0.2001,
      "velocity": 99,
      "chip": "ym2612"
    },
    {
      "channel": 1,
      "note": 64,
      "start": 2.335,
      "duration": 0.0994,
      "velocity": 127,
      "chip": "ym2612"
    },
    {
      "channel": 2,
      "note": 62,
      "start": 2.3359,
      "duration": 0.1982,
      "velocity": 92,
      "chip": "ym2612"
    },
    {
      "channel": 3,
      "note": 59,
      "start": 2.3367,
      "duration": 0.2961,
      "velocity": 102,
      "chip": "ym2612"
    },
    {
      "channel": 4,
      "note": 52,
      "start": 2.3376,
      "duration": 0.2456,
      "velocity": 102,
      "chip": "ym2612"
    },
    {
      "channel": 5,
      "note": 67,
      "start": 2.3839,
      "duration": 0.1,
      "velocity": 92,
      "chip": "ym2612"
    },
    {
      "channel": 1,
      "note": 37,
      "start": 2.4344,
      "duration": 0.2165,
      "velocity": 127,
      "chip": "ym2612"
    },
    {
      "channel": 5,
      "note": 66,
      "start": 2.4839,
      "duration": 0.1001,
      "velocity": 92,
      "chip": "ym2612"
    },
    {
      "channel": 0,
      "note": 64,
      "start": 2.5331,
      "duration": 0.1992,
      "velocity": 99,
      "chip": "ym2612"
    },
    {
      "channel": 2,
      "note": 64,
      "start": 2.5341,
      "duration": 0.3179,
      "velocity": 92,
      "chip": "ym2612"
    },
    {
      "channel": 5,
      "note": 62,
      "start": 2.5841,
      "duration": 0.2164,
      "velocity": 92,
      "chip": "ym2612"
    },
    {
      "channel": 1,
      "note": 37,
      "start": 2.6509,
      "duration": 0.2003,
      "velocity": 127,
      "chip": "ym2612"
    },
    {
      "channel": 4,
      "note": 52,
      "start": 2.6523,
      "duration": 0.081,
      "velocity": 102,
      "chip": "ym2612"
    },
    {
      "channel": 0,
      "note": 64,
      "start": 2.7496,
      "duration": 0.1998,
      "velocity": 99,
      "chip": "ym2612"
    },
    {
      "channel": 3,
      "note": 59,
      "start": 2.7508,
      "duration": 0.2989,
      "velocity": 102,
      "chip": "ym2612"
    },
    {
      "channel": 4,
      "note": 52,
      "start": 2.7517,
      "duration": 0.1648,
      "velocity": 102,
      "chip": "ym2612"
    },
    {
      "channel": 5,
      "note": 64,
      "start": 2.8005,
      "duration": 0.3167,
      "velocity": 92,
      "chip": "ym2612"
    },
    {
      "channel": 1,
      "note": 37,
      "start": 2.8512,
      "duration": 0.1004,
      "velocity": 120,
      "chip": "ym2612"
    },
    {
      "channel": 2,
      "note": 66,
      "start": 2.8521,
      "duration": 0.3173,
      "velocity": 92,
      "chip": "ym2612"
    },
    {
      "channel": 0,
      "note": 64,
      "start": 2.9494,
      "duration": 0.1995,
      "velocity": 99,
      "chip": "ym2612"
    },
    {
      "channel": 1,
      "note": 76,
      "start": 2.9516,
      "duration": 0.2169,
      "velocity": 127,
      "chip": "ym2612"
    },
    {
      "channel": 4,
      "note": 52,
      "start": 2.9529,
      "duration": 0.0803,
      "velocity": 102,
      "chip": "ym2612"
    },
    {
      "channel": 4,
      "note": 52,
      "start": 3.0673,
      "duration": 0.0826,
      "velocity": 102,
      "chip": "ym2612"
    },
    {
      "channel": 5,
      "note": 66,
      "start": 3.1173,
      "duration": 0.3163,
      "velocity": 92,
      "chip": "ym2612"
    },
    {
      "channel": 0,
      "note": 64,
      "start": 3.1665,
      "duration": 0.1992,
      "velocity": 99,
      "chip": "ym2612"
    },
    {
      "channel": 1,
      "note": 37,
      "start": 3.1685,
      "duration": 0.2167,
      "velocity": 127,
      "chip": "ym2612"
    },
    {
      "channel": 2,
      "note": 67,
      "start": 3.1694,
      "duration": 0.2168,
      "velocity": 92,
      "chip": "ym2612"
    },
    {
      "channel": 3,
      "note": 59,
      "start": 3.1703,
      "duration": 0.1459,
      "velocity": 102,
      "chip": "ym2612"
    },
    {
      "channel": 4,
      "note": 52,
      "start": 3.1711,
      "duration": 0.1621,
      "velocity": 102,
      "chip": "ym2612"
    },
    {
      "channel": 0,
      "note": 57,
      "start": 3.3831,
      "duration": 0.1998,
      "velocity": 99,
      "chip": "ym2612"
    },
    {
      "channel": 1,
      "note": 37,
      "start": 3.3854,
      "duration": 0.0986,
      "velocity": 127,
      "chip": "ym2612"
    },
    {
      "channel": 2,
      "note": 68,
      "start": 3.3862,
      "duration": 0.03,
      "velocity": 92,
      "chip": "ym2612"
    },
    {
      "channel": 3,
      "note": 64,
      "start": 3.3872,
      "duration": 0.2955,
      "velocity": 102,
      "chip": "ym2612"
    },
    {
      "channel": 4,
      "note": 57,
      "start": 3.3881,
      "duration": 0.1613,
      "velocity": 102,
      "chip": "ym2612"
    },
    {
      "channel": 2,
      "note": 69,
      "start": 3.4163,
      "duration": 0.266,
      "velocity": 92,
      "chip": "ym2612"
    },
    {
      "channel": 5,
      "note": 67,
      "start": 3.4336,
      "duration": 0.2166,
      "velocity": 92,
      "chip": "ym2612"
    },
    {
      "channel": 1,
      "note": 64,
      "start": 3.484,
      "duration": 0.1011,
      "velocity": 127,
      "chip": "ym2612"
    },
    {
      "channel": 0,
      "note": 57,
      "start": 3.583,
      "duration": 0.1988,
      "velocity": 99,
      "chip": "ym2612"
    },
    {
      "channel": 1,
      "note": 64,
      "start": 3.5851,
      "duration": 0.1153,
      "velocity": 127,
      "chip": "ym2612"
    },
    {
      "channel": 4,
      "note": 57,
      "start": 3.5863,
      "duration": 0.0798,
      "velocity": 102,
      "chip": "ym2612"
    },
    {
      "channel": 5,
      "note": 68,
      "start": 3.6503,
      "duration": 0.0334,
      "velocity": 92,
      "chip": "ym2612"
    },
    {
      "channel": 5,
      "note": 69,
      "start": 3.6839,
      "duration": 0.2659,
      "velocity": 92,
      "chip": "ym2612"
    },
    {
      "channel": 1,
      "note": 64,
      "start": 3.7004,
      "duration": 0.101,
      "velocity": 120,
      "chip": "ym2612"
    },
    {
      "channel": 2,
      "note": 69,
      "start": 3.7013,
      "duration": 0.1008,
      "velocity": 92,
      "chip": "ym2612"
    },
    {
      "channel": 4,
      "note": 57,
      "start": 3.7025,
      "duration": 0.0804,
      "velocity": 102,
      "chip": "ym2612"
    },
    {
      "channel": 0,
      "note": 57,
      "start": 3.7993,
      "duration": 0.1993,
      "velocity": 99,
      "chip": "ym2612"
    },
    {
      "channel": 1,
      "note": 76,
      "start": 3.8015,
      "duration": 0.0994,
      "velocity": 127,
      "chip": "ym2612"
    },
    {
      "channel": 3,
      "note": 64,
      "start": 3.803,
      "duration": 0.1463,
      "velocity": 102,
      "chip": "ym2612"
    },
    {
      "channel": 4,
      "note": 57,
      "start": 3.8038,
      "duration": 0.0791,
      "velocity": 102,
      "chip": "ym2612"
    },
    {
      "channel": 1,
      "note": 64,
      "start": 3.9008,
      "duration": 0.117,
      "velocity": 127,
      "chip": "ym2612"
    },
    {
      "channel": 4,
      "note": 57,
      "start": 3.9021,
      "duration": 0.0808,
      "velocity": 102,
      "chip": "ym2612"
    },
    {
      "channel": 5,
      "note": 69,
      "start": 3.967,
      "duration": 0.0995,
      "velocity": 92,
      "chip": "ym2612"
    },
    {
      "channel": 0,
      "note": 55,
      "start": 4.0157,
      "duration": 0.2002,
      "velocity": 99,
      "chip": "ym2612"
    },
    {
      "channel": 1,
      "note": 64,
      "start": 4.0178,
      "duration": 0.0995,
      "velocity": 127,
      "chip": "ym2612"
    },
    {
      "channel": 2,
      "note": 69,
      "start": 4.0187,
      "duration": 0.1981,
      "velocity": 92,
      "chip": "ym2612"
    },
    {
      "channel": 3,
      "note": 62,
      "start": 4.0195,
      "duration": 0.2962,
      "velocity": 102,
      "chip": "ym2612"
    },
    {
      "channel": 4,
      "note": 55,
      "start": 4.0205,
      "duration": 0.2457,
      "velocity": 102,
      "chip": "ym2612"
    },
    {
      "channel": 1,
      "note": 37,
      "start": 4.1173,
      "duration": 0.2164,
      "velocity": 127,
      "chip": "ym2612"
    },
    {
      "channel": 0,
      "note": 55,
      "start": 4.216,
      "duration": 0.1992,
      "velocity": 99,
      "chip": "ym2612"
    },
    {
      "channel": 5,
      "note": 69,
      "start": 4.2837,
      "duration": 0.1994,
      "velocity": 92,
      "chip": "ym2612"
    },
    {
      "channel": 1,
      "note": 37,
      "start": 4.3338,
      "duration": 0.2003,
      "velocity": 127,
      "chip": "ym2612"
    },
    {
      "channel": 4,
      "note": 55,
      "start": 4.3352,
      "duration": 0.0812,
      "velocity": 102,
      "chip": "ym2612"
    },
    {
      "channel": 0,
      "note": 55,
      "start": 4.4325,
      "duration": 0.1994,
      "velocity": 99,
      "chip": "ym2612"
    },
    {
      "channel": 2,
      "note": 69,
      "start": 4.4335,
      "duration": 0.1988,
      "velocity": 92,
      "chip": "ym2612"
    },
    {
      "channel": 3,
      "note": 62,
      "start": 4.4343,
      "duration": 0.2982,
      "velocity": 102,
      "chip": "ym2612"
    },
    {
      "channel": 4,
      "note": 55,
      "start": 4.4352,
      "duration": 0.1642,
      "velocity": 102,
      "chip": "ym2612"
    },
    {
      "channel": 1,
      "note": 37,
      "start": 4.5342,
      "duration": 0.117,
      "velocity": 120,
      "chip": "ym2612"
    },
    {
      "channel": 0,
      "note": 55,
      "start": 4.649,
      "duration": 0.2003,
      "velocity": 99,
      "chip": "ym2612"
    },
    {
      "channel": 1,
      "note": 76,
      "start": 4.6512,
      "duration": 0.2002,
      "velocity": 127,
      "chip": "ym2612"
    },
    {
      "channel": 4,
      "note": 55,
      "start": 4.6528,
      "duration": 0.08,
      "velocity": 102,
      "chip": "ym2612"
    },
    {
      "channel": 5,
      "note": 69,
      "start": 4.7002,
      "duration": 0.1995,
      "velocity": 92,
      "chip": "ym2612"
    },
    {
      "channel": 4,
      "note": 55,
      "start": 4.7501,
      "duration": 0.0826,
      "velocity": 102,
      "chip": "ym2612"
    },
    {
      "channel": 0,
      "note": 55,
      "start": 4.8494,
      "duration": 0.1992,
      "velocity": 99,
      "chip": "ym2612"
    },
    {
      "channel": 1,
      "note": 37,
      "start": 4.8515,
      "duration": 0.2166,
      "velocity": 127,
      "chip": "ym2612"
    },
    {
      "channel": 2,
      "note": 69,
      "start": 4.8523,
      "duration": 0.3963,
      "velocity": 92,
      "chip": "ym2612"
    },
    {
      "channel": 3,
      "note": 62,
      "start": 4.8532,
      "duration": 0.1459,
      "velocity": 102,
      "chip": "ym2612"
    },
    {
      "channel": 4,
      "note": 55,
      "start": 4.8541,
      "duration": 0.162,
      "velocity": 102,
      "chip": "ym2612"
    },
    {
      "channel": 0,
      "note": 62,
      "start": 5.066,
      "duration": 0.1989,
      "velocity": 99,
      "chip": "ym2612"
    },
    {
      "channel": 1,
      "note": 37,
      "start": 5.0681,
      "duration": 0.0987,
      "velocity": 127,
      "chip": "ym2612"
    },
    {
      "channel": 3,
      "note": 57,
      "start": 5.0692,
      "duration": 0.2964,
      "velocity": 102,
      "chip": "ym2612"
    },
    {
      "channel": 4,
      "note": 50,
      "start": 5.0701,
      "duration": 0.1623,
      "velocity": 102,
      "chip": "ym2612"
    },
    {
      "channel": 5,
      "note": 69,
      "start": 5.1165,
      "duration": 0.3996,
      "velocity": 92,
      "chip": "ym2612"
    },
    {
      "channel": 1,
      "note": 64,
      "start": 5.1669,
      "duration": 0.1178,
      "velocity": 127,
      "chip": "ym2612"
    },
    {
      "channel": 0,
      "note": 62,
      "start": 5.2826,
      "duration": 0.1998,
      "velocity": 99,
      "chip": "ym2612"
    },
    {
      "channel": 1,
      "note": 64,
      "start": 5.2847,
      "duration": 0.0988,
      "velocity": 127,
      "chip": "ym2612"
    },
    {
      "channel": 2,
      "note": 71,
      "start": 5.2856,
      "duration": 0.3967,
      "velocity": 92,
      "chip": "ym2612"
    },
    {
      "channel": 4,
      "note": 50,
      "start": 5.2866,
      "duration": 0.0793,
      "velocity": 102,
      "chip": "ym2612"
    },
    {
      "channel": 1,
      "note": 64,
      "start": 5.3835,
      "duration": 0.101,
      "velocity": 120,
      "chip": "ym2612"
    },
    {
      "channel": 4,
      "note": 50,
      "start": 5.3849,
      "duration": 0.081,
      "velocity": 102,
      "chip": "ym2612"
    },
    {
      "channel": 0,
      "note": 62,
      "start": 5.4824,
      "duration": 0.1993,
      "velocity": 99,
      "chip": "ym2612"
    },
    {
      "channel": 1,
      "note": 76,
      "start": 5.4845,
      "duration": 0.1159,
      "velocity": 127,
      "chip": "ym2612"
    },
    {
      "channel": 3,
      "note": 57,
      "start": 5.4856,
      "duration": 0.1467,
      "velocity": 102,
      "chip": "ym2612"
    },
    {
      "channel": 4,
      "note": 50,
      "start": 5.4864,
      "duration": 0.0794,
      "velocity": 102,
      "chip": "ym2612"
    },
    {
      "channel": 5,
      "note": 71,
      "start": 5.5334,
      "duration": 0.3993,
      "velocity": 92,
      "chip": "ym2612"
    },
    {
      "channel": 1,
      "note": 64,
      "start": 5.6005,
      "duration": 0.1003,
      "velocity": 127,
      "chip": "ym2612"
    },
    {
      "channel": 4,
      "note": 50,
      "start": 5.6017,
      "duration": 0.0811,
      "velocity": 102,
      "chip": "ym2612"
    },
    {
      "channel": 0,
      "note": 64,
      "start": 5.6988,
      "duration": 0.2002,
      "velocity": 99,
      "chip": "ym2612"
    },
    {
      "channel": 1,
      "note": 64,
      "start": 5.7009,
      "duration": 0.0995,
      "velocity": 127,
      "chip": "ym2612"
    },
    {
      "channel": 2,
      "note": 71,
      "start": 5.7017,
      "duration": 0.0307,
      "velocity": 92,
      "chip": "ym2612"
    },
    {
      "channel": 3,
      "note": 59,
      "start": 5.7026,
      "duration": 0.2962,
      "velocity": 102,
      "chip": "ym2612"
    },
    {
      "channel": 4,
      "note": 52,
      "start": 5.7035,
      "duration": 0.2457,
      "velocity": 102,
      "chip": "ym2612"
    },
    {
      "channel": 2,
      "note": 72,
      "start": 5.7325,
      "duration": 0.3661,
      "velocity": 92,
      "chip": "ym2612"
    },
    {
      "channel": 1,
      "note": 37,
      "start": 5.8003,
      "duration": 0.2164,
      "velocity": 127,
      "chip": "ym2612"
    },
    {
      "channel": 0,
      "note": 64,
      "start": 5.899,
      "duration": 0.1992,
      "velocity": 99,
      "chip": "ym2612"
    },
    {
      "channel": 5,
      "note": 71,
      "start": 5.9667,
      "duration": 0.0333,
      "velocity": 92,
      "chip": "ym2612"
    },
    {
      "channel": 5,
      "note": 72,
      "start": 6.0001,
      "duration": 0.3659,
      "velocity": 92,
      "chip": "ym2612"
    },
    {
      "channel": 1,
      "note": 37,
      "start": 6.0168,
      "duration": 0.2003,
      "velocity": 127,
      "chip": "ym2612"
    },
    {
      "channel": 4,
      "note": 52,
      "start": 6.0182,
      "duration": 0.0812,
      "velocity": 102,
      "chip": "ym2612"
    },
    {
      "channel": 0,
      "note": 64,
      "start": 6.1155,
      "duration": 0.1994,
      "velocity": 99,
      "chip": "ym2612"
    },
    {
      "channel": 2,
      "note": 74,
      "start": 6.1165,
      "duration": 0.1988,
      "velocity": 92,
      "chip": "ym2612"
    },
    {
      "channel": 3,
      "note": 59,
      "start": 6.1174,
      "duration": 0.2982,
      "velocity": 102,
      "chip": "ym2612"
    },
    {
      "channel": 4,
      "note": 52,
      "start": 6.1183,
      "duration": 0.1641,
      "velocity": 102,
      "chip": "ym2612"
    },
    {
      "channel": 1,
      "note": 37,
      "start": 6.2171,
      "duration": 0.1171,
      "velocity": 120,
      "chip": "ym2612"
    },
    {
      "channel": 0,
      "note": 64,
      "start": 6.332,
      "duration": 0.2003,
      "velocity": 99,
      "chip": "ym2612"
    },
    {
      "channel": 1,
      "note": 76,
      "start": 6.3342,
      "duration": 0.2003,
      "velocity": 127,
      "chip": "ym2612"
    },
    {
      "channel": 2,
      "note": 76,
      "start": 6.3351,
      "duration": 0.397,
      "velocity": 92,
      "chip": "ym2612"
    },
    {
      "channel": 4,
      "note": 52,
      "start": 6.3361,
      "duration": 0.0797,
      "velocity": 102,
      "chip": "ym2612"
    },
    {
      "channel": 5,
      "note": 74,
      "start": 6.3832,
      "duration": 0.1993,
      "velocity": 92,
      "chip": "ym2612"
    },
    {
      "channel": 4,
      "note": 52,
      "start": 6.4332,
      "duration": 0.0826,
      "velocity": 102,
      "chip": "ym2612"
    },
    {
      "channel": 0,
      "note": 64,
      "start": 6.5324,
      "duration": 0.1991,
      "velocity": 99,
      "chip": "ym2612"
    },
    {
      "channel": 1,
      "note": 37,
      "start": 6.5345,
      "duration": 0.2167,
      "velocity": 127,
      "chip": "ym2612"
    },
    {
      "channel": 3,
      "note": 59,
      "start": 6.5355,
      "duration": 0.1466,
      "velocity": 102,
      "chip": "ym2612"
    },
    {
      "channel": 4,
      "note": 52,
      "start": 6.5364,
      "duration": 0.1627,
      "velocity": 102,
      "chip": "ym2612"
    },
    {
      "channel": 5,
      "note": 76,
      "start": 6.5998,
      "duration": 0.3993,
      "velocity": 92,
      "chip": "ym2612"
    },
    {
      "channel": 0,
      "note": 57,
      "start": 6.749,
      "duration": 0.1989,
      "velocity": 99,
      "chip": "ym2612"
    },
    {
      "channel": 1,
      "note": 37,
      "start": 6.7512,
      "duration": 0.0987,
      "velocity": 127,
      "chip": "ym2612"
    },
    {
      "channel": 2,
      "note": 79,
      "start": 6.7521,
      "duration": 0.0986,
      "velocity": 92,
      "chip": "ym2612"
    },
    {
      "channel": 3,
      "note": 64,
      "start": 6.7531,
      "duration": 0.2955,
      "velocity": 102,
      "chip": "ym2612"
    },
    {
      "channel": 4,
      "note": 57,
      "start": 6.754,
      "duration": 0.1614,
      "velocity": 102,
      "chip": "ym2612"
    },
    {
      "channel": 1,
      "note": 64,
      "start": 6.85,
      "duration": 0.1178,
      "velocity": 127,
      "chip": "ym2612"
    },
    {
      "channel": 2,
      "note": 76,
      "start": 6.8508,
      "duration": 0.1178,
      "velocity": 92,
      "chip": "ym2612"
    },
    {
      "channel": 0,
      "note": 57,
      "start": 6.9656,
      "duration": 0.1996,
      "velocity": 99,
      "chip": "ym2612"
    },
    {
      "channel": 1,
      "note": 64,
      "start": 6.9678,
      "duration": 0.0987,
      "velocity": 127,
      "chip": "ym2612"
    },
    {
      "channel": 2,
      "note": 79,
      "start": 6.9686,
      "duration": 0.0987,
      "velocity": 92,
      "chip": "ym2612"
    },
    {
      "channel": 4,
      "note": 57,
      "start": 6.9696,
      "duration": 0.0792,
      "velocity": 102,
      "chip": "ym2612"
    },
    {
      "channel": 5,
      "note": 79,
      "start": 7.0163,
      "duration": 0.0998,
      "velocity": 92,
      "chip": "ym2612"
    },
    {
      "channel": 1,
      "note": 64,
      "start": 7.0665,
      "duration": 0.1009,
      "velocity": 120,
      "chip": "ym2612"
    },
    {
      "channel": 2,
      "note": 76,
      "start": 7.0673,
      "duration": 0.1009,
      "velocity": 92,
      "chip": "ym2612"
    },
    {
      "channel": 4,
      "note": 57,
      "start": 7.0685,
      "duration": 0.0802,
      "velocity": 102,
      "chip": "ym2612"
    },
    {
      "channel": 5,
      "note": 76,
      "start": 7.1162,
      "duration": 0.1,
      "velocity": 92,
      "chip": "ym2612"
    },
    {
      "channel": 0,
      "note": 57,
      "start": 7.1653,
      "duration": 0.1993,
      "velocity": 99,
      "chip": "ym2612"
    },
    {
      "channel": 1,
      "note": 76,
      "start": 7.1674,
      "duration": 0.116,
      "velocity": 127,
      "chip": "ym2612"
    },
    {
      "channel": 2,
      "note": 81,
      "start": 7.1682,
      "duration": 0.1159,
      "velocity": 92,
      "chip": "ym2612"
    },
    {
      "channel": 3,
      "note": 64,
      "start": 7.1691,
      "duration": 0.1461,
      "velocity": 102,
      "chip": "ym2612"
    },
    {
      "channel": 4,
      "note": 57,
      "start": 7.17,
      "duration": 0.0788,
      "velocity": 102,
      "chip": "ym2612"
    },
    {
      "channel": 5,
      "note": 79,
      "start": 7.2163,
      "duration": 0.1166,
      "velocity": 92,
      "chip": "ym2612"
    },
    {
      "channel": 1,
      "note": 64,
      "start": 7.2834,
      "duration": 0.1002,
      "velocity": 127,
      "chip": "ym2612"
    },
    {
      "channel": 2,
      "note": 76,
      "start": 7.2842,
      "duration": 0.1002,
      "velocity": 92,
      "chip": "ym2612"
    },
    {
      "channel": 4,
      "note": 57,
      "start": 7.2853,
      "duration": 0.0803,
      "velocity": 102,
      "chip": "ym2612"
    },
    {
      "channel": 5,
      "note": 76,
      "start": 7.3329,
      "duration": 0.0997,
      "velocity": 92,
      "chip": "ym2612"
    },
    {
      "channel": 0,
      "note": 55,
      "start": 7.3816,
      "duration": 0.1994,
      "velocity": 99,
      "chip": "ym2612"
    },
    {
      "channel": 1,
      "note": 64,
      "start": 7.3837,
      "duration": 0.0994,
      "velocity": 127,
      "chip": "ym2612"
    },
    {
      "channel": 2,
      "note": 81,
      "start": 7.3845,
      "duration": 0.0994,
      "velocity": 92,
      "chip": "ym2612"
    },
    {
      "channel": 3,
      "note": 62,
      "start": 7.3854,
      "duration": 0.2963,
      "velocity": 102,
      "chip": "ym2612"
    },
    {
      "channel": 4,
      "note": 55,
      "start": 7.3863,
      "duration": 0.2456,
      "velocity": 102,
      "chip": "ym2612"
    },
    {
      "channel": 5,
      "note": 81,
      "start": 7.4326,
      "duration": 0.1,
      "velocity": 92,
      "chip": "ym2612"
    },
    {
      "channel": 1,
      "note": 37,
      "start": 7.4832,
      "duration": 0.2163,
      "velocity": 127,
      "chip": "ym2612"
    },
    {
      "channel": 2,
      "note": 76,
      "start": 7.484,
      "duration": 0.1154,
      "velocity": 92,
      "chip": "ym2612"
    },
    {
      "channel": 5,
      "note": 76,
      "start": 7.5326,
      "duration": 0.1167,
      "velocity": 92,
      "chip": "ym2612"
    },
    {
      "channel": 0,
      "note": 55,
      "start": 7.5984,
      "duration": 0.1997,
      "velocity": 99,
      "chip": "ym2612"
    },
    {
      "channel": 2,
      "note": 79,
      "start": 7.5994,
      "duration": 0.1009,
      "velocity": 92,
      "chip": "ym2612"
    },
    {
      "channel": 5,
      "note": 81,
      "start": 7.6494,
      "duration": 0.0998,
      "velocity": 92,
      "chip": "ym2612"
    },
    {
      "channel": 1,
      "note": 37,
      "start": 7.6996,
      "duration": 0.2168,
      "velocity": 127,
      "chip": "ym2612"
    },
    {
      "channel": 2,
      "note": 76,
      "start": 7.7004,
      "duration": 0.0988,
      "velocity": 92,
      "chip": "ym2612"
    },
    {
      "channel": 4,
      "note": 55,
      "start": 7.7016,
      "duration": 0.0802,
      "velocity": 102,
      "chip": "ym2612"
    },
    {
      "channel": 5,
      "note": 76,
      "start": 7.7493,
      "duration": 0.0998,
      "velocity": 92,
      "chip": "ym2612"
    },
    {
      "channel": 0,
      "note": 55,
      "start": 7.7982,
      "duration": 0.1993,
      "velocity": 99,
      "chip": "ym2612"
    },
    {
      "channel": 2,
      "note": 79,
      "start": 7.7992,
      "duration": 0.118,
      "velocity": 92,
      "chip": "ym2612"
    },
    {
      "channel": 3,
      "note": 62,
      "start": 7.8,
      "duration": 0.298,
      "velocity": 102,
      "chip": "ym2612"
    },
    {
      "channel": 4,
      "note": 55,
      "start": 7.8009,
      "duration": 0.1641,
      "velocity": 102,
      "chip": "ym2612"
    },
    {
      "channel": 5,
      "note": 79,
      "start": 7.8491,
      "duration": 0.1167,
      "velocity": 92,
      "chip": "ym2612"
    },
    {
      "channel": 1,
      "note": 37,
      "start": 7.9164,
      "duration": 0.1003,
      "velocity": 120,
      "chip": "ym2612"
    },
    {
      "channel": 2,
      "note": 76,
      "start": 7.9173,
      "duration": 0.1003,
      "velocity": 92,
      "chip": "ym2612"
    },
    {
      "channel": 5,
      "note": 76,
      "start": 7.9659,
      "duration": 0.0998,
      "velocity": 92,
      "chip": "ym2612"
    },
    {
      "channel": 0,
      "note": 55,
      "start": 8.0146,
      "duration": 0.1994,
      "velocity": 99,
      "chip": "ym2612"
    },
    {
      "channel": 1,
      "note": 76,
      "start": 8.0168,
      "duration": 0.2168,
      "velocity": 127,
      "chip": "ym2612"
    },
    {
      "channel": 2,
      "note": 81,
      "start": 8.0176,
      "duration": 0.0975,
      "velocity": 92,
      "chip": "ym2612"
    },
    {
      "channel": 4,
      "note": 55,
      "start": 8.0187,
      "duration": 0.0797,
      "velocity": 102,
      "chip": "ym2612"
    },
    {
      "channel": 5,
      "note": 79,
      "start": 8.0657,
      "duration": 0.1,
      "velocity": 92,
      "chip": "ym2612"
    },
    {
      "channel": 2,
      "note": 76,
      "start": 8.1152,
      "duration": 0.1192,
      "velocity": 92,
      "chip": "ym2612"
    },
    {
      "channel": 4,
      "note": 55,
      "start": 8.1163,
      "duration": 0.0819,
      "velocity": 102,
      "chip": "ym2612"
    },
    {
      "channel": 5,
      "note": 76,
      "start": 8.1658,
      "duration": 0.1163,
      "velocity": 92,
      "chip": "ym2612"
    },
    {
      "channel": 0,
      "note": 55,
      "start": 8.2316,
      "duration": 0.1997,
      "velocity": 99,
      "chip": "ym2612"
    },
    {
      "channel": 1,
      "note": 37,
      "start": 8.2337,
      "duration": 0.1998,
      "velocity": 127,
      "chip": "ym2612"
    },
    {
      "channel": 2,
      "note": 81,
      "start": 8.2345,
      "duration": 0.097,
      "velocity": 92,
      "chip": "ym2612"
    },
    {
      "channel": 3,
      "note": 62,
      "start": 8.2353,
      "duration": 0.1459,
      "velocity": 102,
      "chip": "ym2612"
    },
    {
      "channel": 4,
      "note": 55,
      "start": 8.2362,
      "duration": 0.1619,
      "velocity": 102,
      "chip": "ym2612"
    },
    {
      "channel": 5,
      "note": 81,
      "start": 8.2822,
      "duration": 0.1,
      "velocity": 92,
      "chip": "ym2612"
    },
    {
      "channel": 2,
      "note": 76,
      "start": 8.3315,
      "duration": 0.1028,
      "velocity": 92,
      "chip": "ym2612"
    },
    {
      "channel": 5,
      "note": 76,
      "start": 8.3822,
      "duration": 0.0996,
      "velocity": 92,
      "chip": "ym2612"
    },
    {
      "channel": 0,
      "note": 62,
      "start": 8.4313,
      "duration": 0.1988,
      "velocity": 99,
      "chip": "ym2612"
    },
    {
      "channel": 1,
      "note": 37,
      "start": 8.4335,
      "duration": 0.1154,
      "velocity": 127,
      "chip": "ym2612"
    },
    {
      "channel": 2,
      "note": 79,
      "start": 8.4343,
      "duration": 0.1154,
      "velocity": 92,
      "chip": "ym2612"
    },
    {
      "channel": 3,
      "note": 57,
      "start": 8.4351,
      "duration": 0.2956,
      "velocity": 102,
      "chip": "ym2612"
    },
    {
      "channel": 4,
      "note": 50,
      "start": 8.4361,
      "duration": 0.1617,
      "velocity": 102,
      "chip": "ym2612"
    },
    {
      "channel": 5,
      "note": 81,
      "start": 8.4818,
      "duration": 0.1167,
      "velocity": 92,
      "chip": "ym2612"
    },
    {
      "channel": 1,
      "note": 64,
      "start": 8.5489,
      "duration": 0.101,
      "velocity": 127,
      "chip": "ym2612"
    },
    {
      "channel": 2,
      "note": 76,
      "start": 8.5497,
      "duration": 0.101,
      "velocity": 92,
      "chip": "ym2612"
    },
    {
      "channel": 5,
      "note": 76,
      "start": 8.5986,
      "duration": 0.0998,
      "velocity": 92,
      "chip": "ym2612"
    },
    {
      "channel": 0,
      "note": 62,
      "start": 8.6478,
      "duration": 0.1996,
      "velocity": 99,
      "chip": "ym2612"
    },
    {
      "channel": 1,
      "note": 64,
      "start": 8.65,
      "duration": 0.0987,
      "velocity": 127,
      "chip": "ym2612"
    },
    {
      "channel": 2,
      "note": 79,
      "start": 8.6508,
      "duration": 0.0987,
      "velocity": 92,
      "chip": "ym2612"
    },
    {
      "channel": 4,
      "note": 50,
      "start": 8.6519,
      "duration": 0.0793,
      "velocity": 102,
      "chip": "ym2612"
    },
    {
      "channel": 5,
      "note": 79,
      "start": 8.6984,
      "duration": 0.0999,
      "velocity": 92,
      "chip": "ym2612"
    },
    {
      "channel": 1,
      "note": 64,
      "start": 8.7487,
      "duration": 0.1009,
      "velocity": 120,
      "chip": "ym2612"
    },
    {
      "channel": 2,
      "note": 76,
      "start": 8.7496,
      "duration": 0.1009,
      "velocity": 92,
      "chip": "ym2612"
    },
    {
      "channel": 4,
      "note": 50,
      "start": 8.7507,
      "duration": 0.0802,
      "velocity": 102,
      "chip": "ym2612"
    },
    {
      "channel": 5,
      "note": 76,
      "start": 8.7984,
      "duration": 0.1167,
      "velocity": 92,
      "chip": "ym2612"
    },
    {
      "channel": 0,
      "note": 62,
      "start": 8.8475,
      "duration": 0.1993,
      "velocity": 99,
      "chip": "ym2612"
    },
    {
      "channel": 1,
      "note": 76,
      "start": 8.8497,
      "duration": 0.116,
      "velocity": 127,
      "chip": "ym2612"
    },
    {
      "channel": 2,
      "note": 81,
      "start": 8.8505,
      "duration": 0.116,
      "velocity": 92,
      "chip": "ym2612"
    },
    {
      "channel": 3,
      "note": 57,
      "start": 8.8514,
      "duration": 0.1461,
      "velocity": 102,
      "chip": "ym2612"
    },
    {
      "channel": 4,
      "note": 50,
      "start": 8.8522,
      "duration": 0.0788,
      "velocity": 102,
      "chip": "ym2612"
    },
    {
      "channel": 5,
      "note": 79,
      "start": 8.9152,
      "duration": 0.0999,
      "velocity": 92,
      "chip": "ym2612"
    },
    {
      "channel": 1,
      "note": 64,
      "start": 8.9656,
      "duration": 0.1002,
      "velocity": 127,
      "chip": "ym2612"
    },
    {
      "channel": 2,
      "note": 76,
      "start": 8.9665,
      "duration": 0.1002,
      "velocity": 92,
      "chip": "ym2612"
    },
    {
      "channel": 4,
      "note": 50,
      "start": 8.9676,
      "duration": 0.0803,
      "velocity": 102,
      "chip": "ym2612"
    },
    {
      "channel": 5,
      "note": 76,
      "start": 9.0151,
      "duration": 0.0997,
      "velocity": 92,
      "chip": "ym2612"
    },
    {
      "channel": 0,
      "note": 64,
      "start": 9.0639,
      "duration": 0.1994,
      "velocity": 99,
      "chip": "ym2612"
    },
    {
      "channel": 1,
      "note": 64,
      "start": 9.066,
      "duration": 0.0994,
      "velocity": 127,
      "chip": "ym2612"
    },
    {
      "channel": 2,
      "note": 81,
      "start": 9.0668,
      "duration": 0.0994,
      "velocity": 92,
      "chip": "ym2612"
    },
    {
      "channel": 3,
      "note": 59,
      "start": 9.0676,
      "duration": 0.2963,
      "velocity": 102,
      "chip": "ym2612"
    },
    {
      "channel": 4,
      "note": 52,
      "start": 9.0685,
      "duration": 0.2456,
      "velocity": 102,
      "chip": "ym2612"
    },
    {
      "channel": 5,
      "note": 81,
      "start": 9.1149,
      "duration": 0.1166,
      "velocity": 92,
      "chip": "ym2612"
    },
    {
      "channel": 1,
      "note": 37,
      "start": 9.1654,
      "duration": 0.2163,
      "velocity": 127,
      "chip": "ym2612"
    },
    {
      "channel": 2,
      "note": 76,
      "start": 9.1662,
      "duration": 0.1154,
      "velocity": 92,
      "chip": "ym2612"
    },
    {
      "channel": 5,
      "note": 76,
      "start": 9.2316,
      "duration": 0.1,
      "velocity": 92,
      "chip": "ym2612"
    },
    {
      "channel": 0,
      "note": 64,
      "start": 9.2807,
      "duration": 0.1997,
      "velocity": 99,
      "chip": "ym2612"
    },
    {
      "channel": 2,
      "note": 79,
      "start": 9.2817,
      "duration": 0.1009,
      "velocity": 92,
      "chip": "ym2612"
    },
    {
      "channel": 5,
      "note": 81,
      "start": 9.3316,
      "duration": 0.0998,
      "velocity": 92,
      "chip": "ym2612"
    },
    {
      "channel": 1,
      "note": 37,
      "start": 9.3818,
      "duration": 0.2168,
      "velocity": 127,
      "chip": "ym2612"
    },
    {
      "channel": 2,
      "note": 78,
      "start": 9.3826,
      "duration": 0.0988,
      "velocity": 92,
      "chip": "ym2612"
    },
    {
      "channel": 4,
      "note": 52,
      "start": 9.3838,
      "duration": 0.0802,
      "velocity": 102,
      "chip": "ym2612"
    },
    {
      "channel": 5,
      "note": 76,
      "start": 9.4315,
      "duration": 0.1165,
      "velocity": 92,
      "chip": "ym2612"
    },
    {
      "channel": 0,
      "note": 64,
      "start": 9.4804,
      "duration": 0.1993,
      "velocity": 99,
      "chip": "ym2612"
    },
    {
      "channel": 2,
      "note": 76,
      "start": 9.4815,
      "duration": 0.118,
      "velocity": 92,
      "chip": "ym2612"
    },
    {
      "channel": 3,
      "note": 59,
      "start": 9.4823,
      "duration": 0.298,
      "velocity": 102,
      "chip": "ym2612"
    },
    {
      "channel": 4,
      "note": 52,
      "start": 9.4832,
      "duration": 0.1641,
      "velocity": 102,
      "chip": "ym2612"
    },
    {
      "channel": 5,
      "note": 79,
      "start": 9.548,
      "duration": 0.1001,
      "velocity": 92,
      "chip": "ym2612"
    },
    {
      "channel": 1,
      "note": 37,
      "start": 9.5987,
      "duration": 0.1003,
      "velocity": 120,
      "chip": "ym2612"
    },
    {
      "channel": 2,
      "note": 74,
      "start": 9.5995,
      "duration": 0.1003,
      "velocity": 92,
      "chip": "ym2612"
    },
    {
      "channel": 5,
      "note": 78,
      "start": 9.6481,
      "duration": 0.0998,
      "velocity": 92,
      "chip": "ym2612"
    },
    {
      "channel": 0,
      "note": 64,
      "start": 9.6968,
      "duration": 0.1993,
      "velocity": 99,
      "chip": "ym2612"
    },
    {
      "channel": 1,
      "note": 76,
      "start": 9.699,
      "duration": 0.2168,
      "velocity": 127,
      "chip": "ym2612"
    },
    {
      "channel": 2,
      "note": 76,
      "start": 9.6998,
      "duration": 0.0976,
      "velocity": 92,
      "chip": "ym2612"
    },
    {
      "channel": 4,
      "note": 52,
      "start": 9.7009,
      "duration": 0.0797,
      "velocity": 102,
      "chip": "ym2612"
    },
    {
      "channel": 5,
      "note": 76,
      "start": 9.748,
      "duration": 0.1166,
      "velocity": 92,
      "chip": "ym2612"
    },
    {
      "channel": 2,
      "note": 74,
      "start": 9.7974,
      "duration": 0.1192,
      "velocity": 92,
      "chip": "ym2612"
    },
    {
      "channel": 4,
      "note": 52,
      "start": 9.7986,
      "duration": 0.0819,
      "velocity": 102,
      "chip": "ym2612"
    },
    {
      "channel": 5,
      "note": 74,
      "start": 9.8646,
      "duration": 0.0998,
      "velocity": 92,
      "chip": "ym2612"
    },
    {
      "channel": 0,
      "note": 64,
      "start": 9.9138,
      "duration": 0.1998,
      "velocity": 99,
      "chip": "ym2612"
    },
    {
      "channel": 1,
      "note": 37,
      "start": 9.9159,
      "duration": 0.1999,
      "velocity": 127,
      "chip": "ym2612"
    },
    {
      "channel": 2,
      "note": 72,
      "start": 9.9167,
      "duration": 0.097,
      "velocity": 92,
      "chip": "ym2612"
    },
    {
      "channel": 3,
      "note": 59,
      "start": 9.9175,
      "duration": 0.1459,
      "velocity": 102,
      "chip": "ym2612"
    },
    {
      "channel": 4,
      "note": 52,
      "start": 9.9184,
      "duration": 0.1619,
      "velocity": 102,
      "chip": "ym2612"
    },
    {
      "channel": 5,
      "note": 76,
      "start": 9.9644,
      "duration": 0.1,
      "velocity": 92,
      "chip": "ym2612"
    },
    {
      "channel": 2,
      "note": 71,
      "start": 10.0138,
      "duration": 0.1029,
      "velocity": 92,
      "chip": "ym2612"
    },
    {
      "channel": 5,
      "note": 74,
      "start": 10.0644,
      "duration": 0.0996,
      "velocity": 92,
      "chip": "ym2612"
    },
    {
      "channel": 0,
      "note": 57,
      "start": 10.1136,
      "duration": 0.1988,
      "velocity": 99,
      "chip": "ym2612"
    },
    {
      "channel": 1,
      "note": 37,
      "start": 10.1158,
      "duration": 0.1153,
      "velocity": 127,
      "chip": "ym2612"
    },
    {
      "channel": 2,
      "note": 71,
      "start": 10.1167,
      "duration": 0.03,
      "velocity": 92,
      "chip": "ym2612"
    },
    {
      "channel": 3,
      "note": 64,
      "start": 10.1177,
      "duration": 0.2954,
      "velocity": 102,
      "chip": "ym2612"
    },
    {
      "channel": 4,
      "note": 57,
      "start": 10.1186,
      "duration": 0.1613,
      "velocity": 102,
      "chip": "ym2612"
    },
    {
      "channel": 2,
      "note": 72,
      "start": 10.1468,
      "duration": 0.1661,
      "velocity": 92,
      "chip": "ym2612"
    },
    {
      "channel": 5,
      "note": 72,
      "start": 10.1641,
      "duration": 0.1167,
      "velocity": 92,
      "chip": "ym2612"
    },
    {
      "channel": 1,
      "note": 64,
      "start": 10.2312,
      "duration": 0.101,
      "velocity": 127,
      "chip": "ym2612"
    },
    {
      "channel": 5,
      "note": 71,
      "start": 10.2809,
      "duration": 0.0999,
      "velocity": 92,
      "chip": "ym2612"
    },
    {
      "channel": 0,
      "note": 57,
      "start": 10.3301,
      "duration": 0.1988,
      "velocity": 99,
      "chip": "ym2612"
    },
    {
      "channel": 1,
      "note": 64,
      "start": 10.3322,
      "duration": 0.0986,
      "velocity": 127,
      "chip": "ym2612"
    },
    {
      "channel": 2,
      "note": 69,
      "start": 10.3331,
      "duration": 0.0984,
      "velocity": 92,
      "chip": "ym2612"
    },
    {
      "channel": 4,
      "note": 57,
      "start": 10.3341,
      "duration": 0.0793,
      "velocity": 102,
      "chip": "ym2612"
    },
    {
      "channel": 5,
      "note": 71,
      "start": 10.3808,
      "duration": 0.0334,
      "velocity": 92,
      "chip": "ym2612"
    },
    {
      "channel": 5,
      "note": 72,
      "start": 10.4142,
      "duration": 0.1667,
      "velocity": 92,
      "chip": "ym2612"
    },
    {
      "channel": 1,
      "note": 64,
      "start": 10.4309,
      "duration": 0.1176,
      "velocity": 120,
      "chip": "ym2612"
    },
    {
      "channel": 4,
      "note": 57,
      "start": 10.4326,
      "duration": 0.0806,
      "velocity": 102,
      "chip": "ym2612"
    },
    {
      "channel": 0,
      "note": 57,
      "start": 10.5464,
      "duration": 0.1997,
      "velocity": 99,
      "chip": "ym2612"
    },
    {
      "channel": 1,
      "note": 76,
      "start": 10.5486,
      "duration": 0.0992,
      "velocity": 127,
      "chip": "ym2612"
    },
    {
      "channel": 2,
      "note": 70,
      "start": 10.5495,
      "duration": 0.0307,
      "velocity": 92,
      "chip": "ym2612"
    },
    {
      "channel": 3,
      "note": 64,
      "start": 10.5503,
      "duration": 0.1461,
      "velocity": 102,
      "chip": "ym2612"
    },
    {
      "channel": 4,
      "note": 57,
      "start": 10.5512,
      "duration": 0.0788,
      "velocity": 102,
      "chip": "ym2612"
    },
    {
      "channel": 2,
      "note": 71,
      "start": 10.5802,
      "duration": 0.1688,
      "velocity": 92,
      "chip": "ym2612"
    },
    {
      "channel": 5,
      "note": 69,
      "start": 10.5974,
      "duration": 0.0997,
      "velocity": 92,
      "chip": "ym2612"
    },
    {
      "channel": 1,
      "note": 64,
      "start": 10.6479,
      "duration": 0.1003,
      "velocity": 127,
      "chip": "ym2612"
    },
    {
      "channel": 4,
      "note": 57,
      "start": 10.6491,
      "duration": 0.0809,
      "velocity": 102,
      "chip": "ym2612"
    },
    {
      "channel": 0,
      "note": 55,
      "start": 10.7462,
      "duration": 0.1994,
      "velocity": 99,
      "chip": "ym2612"
    },
    {
      "channel": 1,
      "note": 64,
      "start": 10.7483,
      "duration": 0.1159,
      "velocity": 127,
      "chip": "ym2612"
    },
    {
      "channel": 2,
      "note": 69,
      "start": 10.7491,
      "duration": 0.0969,
      "velocity": 92,
      "chip": "ym2612"
    },
    {
      "channel": 3,
      "note": 62,
      "start": 10.75,
      "duration": 0.2962,
      "velocity": 102,
      "chip": "ym2612"
    },
    {
      "channel": 4,
      "note": 55,
      "start": 10.7508,
      "duration": 0.2456,
      "velocity": 102,
      "chip": "ym2612"
    },
    {
      "channel": 5,
      "note": 70,
      "start": 10.7973,
      "duration": 0.0326,
      "velocity": 92,
      "chip": "ym2612"
    },
    {
      "channel": 5,
      "note": 71,
      "start": 10.8473,
      "duration": 0.1666,
      "velocity": 92,
      "chip": "ym2612"
    },
    {
      "channel": 1,
      "note": 37,
      "start": 10.8643,
      "duration": 0.1998,
      "velocity": 127,
      "chip": "ym2612"
    },
    {
      "channel": 2,
      "note": 71,
      "start": 10.8651,
      "duration": 0.0986,
      "velocity": 92,
      "chip": "ym2612"
    },
    {
      "channel": 0,
      "note": 55,
      "start": 10.9629,
      "duration": 0.1992,
      "velocity": 99,
      "chip": "ym2612"
    },
    {
      "channel": 5,
      "note": 69,
      "start": 11.014,
      "duration": 0.0998,
      "velocity": 92,
      "chip": "ym2612"
    },
    {
      "channel": 1,
      "note": 37,
      "start": 11.0641,
      "duration": 0.2169,
      "velocity": 127,
      "chip": "ym2612"
    },
    {
      "channel": 2,
      "note": 71,
      "start": 11.0649,
      "duration": 0.0977,
      "velocity": 92,
      "chip": "ym2612"
    },
    {
      "channel": 4,
      "note": 55,
      "start": 11.0661,
      "duration": 0.0802,
      "velocity": 102,
      "chip": "ym2612"
    },
    {
      "channel": 5,
      "note": 71,
      "start": 11.1138,
      "duration": 0.0993,
      "velocity": 92,
      "chip": "ym2612"
    },
    {
      "channel": 0,
      "note": 55,
      "start": 11.1794,
      "duration": 0.1997,
      "velocity": 99,
      "chip": "ym2612"
    },
    {
      "channel": 2,
      "note": 69,
      "start": 11.1805,
      "duration": 0.2017,
      "velocity": 92,
      "chip": "ym2612"
    },
    {
      "channel": 3,
      "note": 62,
      "start": 11.1813,
      "duration": 0.2982,
      "velocity": 102,
      "chip": "ym2612"
    },
    {
      "channel": 4,
      "note": 55,
      "start": 11.1822,
      "duration": 0.164,
      "velocity": 102,
      "chip": "ym2612"
    },
    {
      "channel": 1,
      "note": 37,
      "start": 11.2811,
      "duration": 0.1003,
      "velocity": 120,
      "chip": "ym2612"
    },
    {
      "channel": 5,
      "note": 71,
      "start": 11.3304,
      "duration": 0.1,
      "velocity": 92,
      "chip": "ym2612"
    },
    {
      "channel": 0,
      "note": 55,
      "start": 11.3792,
      "duration": 0.1994,
      "velocity": 99,
      "chip": "ym2612"
    },
    {
      "channel": 1,
      "note": 76,
      "start": 11.3814,
      "duration": 0.2169,
      "velocity": 127,
      "chip": "ym2612"
    },
    {
      "channel": 2,
      "note": 67,
      "start": 11.3822,
      "duration": 0.1969,
      "velocity": 92,
      "chip": "ym2612"
    },
    {
      "channel": 4,
      "note": 55,
      "start": 11.3833,
      "duration": 0.0796,
      "velocity": 102,
      "chip": "ym2612"
    },
    {
      "channel": 5,
      "note": 69,
      "start": 11.4304,
      "duration": 0.1993,
      "velocity": 92,
      "chip": "ym2612"
    },
    {
      "channel": 4,
      "note": 55,
      "start": 11.4803,
      "duration": 0.0826,
      "velocity": 102,
      "chip": "ym2612"
    },
    {
      "channel": 0,
      "note": 55,
      "start": 11.5962,
      "duration": 0.1998,
      "velocity": 99,
      "chip": "ym2612"
    },
    {
      "channel": 1,
      "note": 37,
      "start": 11.5983,
      "duration": 0.1998,
      "velocity": 127,
      "chip": "ym2612"
    },
    {
      "channel": 2,
      "note": 64,
      "start": 11.5992,
      "duration": 0.1998,
      "velocity": 92,
      "chip": "ym2612"
    },
    {
      "channel": 3,
      "note": 62,
      "start": 11.6,
      "duration": 0.1459,
      "velocity": 102,
      "chip": "ym2612"
    },
    {
      "channel": 4,
      "note": 55,
      "start": 11.6009,
      "duration": 0.162,
      "velocity": 102,
      "chip": "ym2612"
    },
    {
      "channel": 5,
      "note": 67,
      "start": 11.6469,
      "duration": 0.1992,
      "velocity": 92,
      "chip": "ym2612"
    },
    {
      "channel": 0,
      "note": 62,
      "start": 11.7961,
      "duration": 0.1989,
      "velocity": 99,
      "chip": "ym2612"
    },
    {
      "channel": 1,
      "note": 37,
      "start": 11.7982,
      "duration": 0.2165,
      "velocity": 127,
      "chip": "ym2612"
    },
    {
      "channel": 2,
      "note": 74,
      "start": 11.799,
      "duration": 0.2965,
      "velocity": 92,
      "chip": "ym2612"
    },
    {
      "channel": 3,
      "note": 57,
      "start": 11.7999,
      "duration": 0.2959,
      "velocity": 102,
      "chip": "ym2612"
    },
    {
      "channel": 4,
      "note": 50,
      "start": 11.8008,
      "duration": 0.1617,
      "velocity": 102,
      "chip": "ym2612"
    },
    {
      "channel": 5,
      "note": 64,
      "start": 11.8632,
      "duration": 0.2,
      "velocity": 92,
      "chip": "ym2612"
    },
    {
      "channel": 0,
      "note": 62,
      "start": 12.0127,
      "duration": 0.1989,
      "velocity": 99,
      "chip": "ym2612"
    },
    {
      "channel": 1,
      "note": 37,
      "start": 12.0148,
      "duration": 0.2163,
      "velocity": 120,
      "chip": "ym2612"
    },
    {
      "channel": 4,
      "note": 50,
      "start": 12.0161,
      "duration": 0.08,
      "velocity": 102,
      "chip": "ym2612"
    },
    {
      "channel": 5,
      "note": 74,
      "start": 12.0633,
      "duration": 0.2996,
      "velocity": 92,
      "chip": "ym2612"
    },
    {
      "channel": 2,
      "note": 74,
      "start": 12.1126,
      "duration": 0.2996,
      "velocity": 92,
      "chip": "ym2612"
    },
    {
      "channel": 4,
      "note": 50,
      "start": 12.1137,
      "duration": 0.0822,
      "velocity": 102,
      "chip": "ym2612"
    },
    {
      "channel": 0,
      "note": 62,
      "start": 12.2291,
      "duration": 0.1996,
      "velocity": 99,
      "chip": "ym2612"
    },
    {
      "channel": 1,
      "note": 76,
      "start": 12.2312,
      "duration": 0.1996,
      "velocity": 127,
      "chip": "ym2612"
    },
    {
      "channel": 3,
      "note": 57,
      "start": 12.2323,
      "duration": 0.1469,
      "velocity": 102,
      "chip": "ym2612"
    },
    {
      "channel": 4,
      "note": 50,
      "start": 12.2331,
      "duration": 0.0796,
      "velocity": 102,
      "chip": "ym2612"
    },
    {
      "channel": 4,
      "note": 50,
      "start": 12.3301,
      "duration": 0.0827,
      "velocity": 102,
      "chip": "ym2612"
    },
    {
      "channel": 5,
      "note": 74,
      "start": 12.3803,
      "duration": 0.2992,
      "velocity": 92,
      "chip": "ym2612"
    },
    {
      "channel": 0,
      "note": 64,
      "start": 12.4288,
      "duration": 0.1996,
      "velocity": 99,
      "chip": "ym2612"
    },
    {
      "channel": 1,
      "note": 37,
      "start": 12.4309,
      "duration": 0.2168,
      "velocity": 127,
      "chip": "ym2612"
    },
    {
      "channel": 2,
      "note": 75,
      "start": 12.4318,
      "duration": 0.0308,
      "velocity": 92,
      "chip": "ym2612"
    },
    {
      "channel": 3,
      "note": 59,
      "start": 12.4327,
      "duration": 0.2963,
      "velocity": 102,
      "chip": "ym2612"
    },
    {
      "channel": 4,
      "note": 52,
      "start": 12.4335,
      "duration": 0.2457,
      "velocity": 102,
      "chip": "ym2612"
    },
    {
      "channel": 2,
      "note": 76,
      "start": 12.4627,
      "duration": 1.0375,
      "velocity": 92,
      "chip": "ym2612"
    },
    {
      "channel": 0,
      "note": 64,
      "start": 12.6457,
      "duration": 0.1991,
      "velocity": 99,
      "chip": "ym2612"
    },
    {
      "channel": 1,
      "note": 37,
      "start": 12.6478,
      "duration": 0.0989,
      "velocity": 127,
      "chip": "ym2612"
    },
    {
      "channel": 5,
      "note": 75,
      "start": 12.6968,
      "duration": 0.0333,
      "velocity": 92,
      "chip": "ym2612"
    },
    {
      "channel": 5,
      "note": 76,
      "start": 12.7302,
      "duration": 1.0173,
      "velocity": 92,
      "chip": "ym2612"
    },
    {
      "channel": 1,
      "note": 37,
      "start": 12.7468,
      "duration": 0.1174,
      "velocity": 120,
      "chip": "ym2612"
    },
    {
      "channel": 4,
      "note": 52,
      "start": 12.7482,
      "duration": 0.0809,
      "velocity": 102,
      "chip": "ym2612"
    },
    {
      "channel": 0,
      "note": 64,
      "start": 12.8622,
      "duration": 0.1998,
      "velocity": 99,
      "chip": "ym2612"
    },
    {
      "channel": 1,
      "note": 76,
      "start": 12.8643,
      "duration": 0.0995,
      "velocity": 120,
      "chip": "ym2612"
    },
    {
      "channel": 3,
      "note": 59,
      "start": 12.8653,
      "duration": 0.2971,
      "velocity": 102,
      "chip": "ym2612"
    },
    {
      "channel": 4,
      "note": 52,
      "start": 12.8662,
      "duration": 0.1631,
      "velocity": 102,
      "chip": "ym2612"
    },
    {
      "channel": 1,
      "note": 76,
      "start": 12.9639,
      "duration": 0.1002,
      "velocity": 120,
      "chip": "ym2612"
    },
    {
      "channel": 0,
      "note": 64,
      "start": 13.062,
      "duration": 0.1996,
      "velocity": 99,
      "chip": "ym2612"
    },
    {
      "channel": 1,
      "note": 76,
      "start": 13.0642,
      "duration": 0.1161,
      "velocity": 120,
      "chip": "ym2612"
    },
    {
      "channel": 4,
      "note": 52,
      "start": 13.0656,
      "duration": 0.0803,
      "velocity": 102,
      "chip": "ym2612"
    },
    {
      "channel": 1,
      "note": 76,
      "start": 13.1803,
      "duration": 0.1008,
      "velocity": 120,
      "chip": "ym2612"
    },
    {
      "channel": 4,
      "note": 52,
      "start": 13.1819,
      "duration": 0.081,
      "velocity": 102,
      "chip": "ym2612"
    },
    {
      "channel": 0,
      "note": 64,
      "start": 13.2791,
      "duration": 0.1992,
      "velocity": 99,
      "chip": "ym2612"
    },
    {
      "channel": 1,
      "note": 76,
      "start": 13.2812,
      "duration": 0.099,
      "velocity": 120,
      "chip": "ym2612"
    },
    {
      "channel": 3,
      "note": 59,
      "start": 13.2824,
      "duration": 0.1467,
      "velocity": 102,
      "chip": "ym2612"
    },
    {
      "channel": 4,
      "note": 52,
      "start": 13.2833,
      "duration": 0.1629,
      "velocity": 102,
      "chip": "ym2612"
    },
    {
      "channel": 1,
      "note": 76,
      "start": 13.3802,
      "duration": 0.1178,
      "velocity": 127,
      "chip": "ym2612"
    },
    {
      "channel": 0,
      "note": 51,
      "start": 13.4959,
      "duration": 0.1998,
      "velocity": 99,
      "chip": "ym2612"
    },
    {
      "channel": 1,
      "note": 37,
      "start": 13.4981,
      "duration": 0.1997,
      "velocity": 127,
      "chip": "ym2612"
    },
    {
      "channel": 3,
      "note": 70,
      "start": 13.5011,
      "duration": 1.6805,
      "velocity": 102,
      "chip": "ym2612"
    },
    {
      "channel": 4,
      "note": 63,
      "start": 13.5021,
      "duration": 1.6804,
      "velocity": 102,
      "chip": "ym2612"
    },
    {
      "channel": 0,
      "note": 51,
      "start": 13.6957,
      "duration": 0.099,
      "velocity": 99,
      "chip": "ym2612"
    },
    {
      "channel": 1,
      "note": 37,
      "start": 13.6978,
      "duration": 0.2165,
      "velocity": 120,
      "chip": "ym2612"
    },
    {
      "channel": 2,
      "note": 86,
      "start": 13.6987,
      "duration": 0.0303,
      "velocity": 92,
      "chip": "ym2612"
    },
    {
      "channel": 2,
      "note": 87,
      "start": 13.7291,
      "duration": 0.166,
      "velocity": 92,
      "chip": "ym2612"
    },
    {
      "channel": 0,
      "note": 51,
      "start": 13.8119,
      "duration": 0.1003,
      "velocity": 99,
      "chip": "ym2612"
    },
    {
      "channel": 0,
      "note": 51,
      "start": 13.9123,
      "duration": 0.0996,
      "velocity": 99,
      "chip": "ym2612"
    },
    {
      "channel": 1,
      "note": 76,
      "start": 13.9144,
      "duration": 0.2159,
      "velocity": 127,
      "chip": "ym2612"
    },
    {
      "channel": 2,
      "note": 85,
      "start": 13.9153,
      "duration": 0.1965,
      "velocity": 92,
      "chip": "ym2612"
    },
    {
      "channel": 5,
      "note": 86,
      "start": 13.9633,
      "duration": 0.0332,
      "velocity": 92,
      "chip": "ym2612"
    },
    {
      "channel": 5,
      "note": 87,
      "start": 13.9966,
      "duration": 0.1659,
      "velocity": 92,
      "chip": "ym2612"
    },
    {
      "channel": 0,
      "note": 51,
      "start": 14.012,
      "duration": 0.1994,
      "velocity": 99,
      "chip": "ym2612"
    },
    {
      "channel": 1,
      "note": 37,
      "start": 14.1303,
      "duration": 0.2995,
      "velocity": 127,
      "chip": "ym2612"
    },
    {
      "channel": 2,
      "note": 82,
      "start": 14.1312,
      "duration": 0.1986,
      "velocity": 92,
      "chip": "ym2612"
    },
    {
      "channel": 5,
      "note": 85,
      "start": 14.1797,
      "duration": 0.1998,
      "velocity": 92,
      "chip": "ym2612"
    },
    {
      "channel": 0,
      "note": 51,
      "start": 14.2285,
      "duration": 0.1002,
      "velocity": 99,
      "chip": "ym2612"
    },
    {
      "channel": 0,
      "note": 51,
      "start": 14.3288,
      "duration": 0.1991,
      "velocity": 99,
      "chip": "ym2612"
    },
    {
      "channel": 2,
      "note": 85,
      "start": 14.3299,
      "duration": 0.2983,
      "velocity": 92,
      "chip": "ym2612"
    },
    {
      "channel": 5,
      "note": 82,
      "start": 14.3796,
      "duration": 0.1993,
      "velocity": 92,
      "chip": "ym2612"
    },
    {
      "channel": 1,
      "note": 37,
      "start": 14.4298,
      "duration": 0.1174,
      "velocity": 127,
      "chip": "ym2612"
    },
    {
      "channel": 0,
      "note": 51,
      "start": 14.5452,
      "duration": 0.0998,
      "velocity": 99,
      "chip": "ym2612"
    },
    {
      "channel": 1,
      "note": 37,
      "start": 14.5473,
      "duration": 0.1997,
      "velocity": 120,
      "chip": "ym2612"
    },
    {
      "channel": 5,
      "note": 85,
      "start": 14.5962,
      "duration": 0.2995,
      "velocity": 92,
      "chip": "ym2612"
    },
    {
      "channel": 0,
      "note": 51,
      "start": 14.6451,
      "duration": 0.0999,
      "velocity": 99,
      "chip": "ym2612"
    },
    {
      "channel": 2,
      "note": 87,
      "start": 14.6462,
      "duration": 0.2986,
      "velocity": 92,
      "chip": "ym2612"
    },
    {
      "channel": 0,
      "note": 51,
      "start": 14.745,
      "duration": 0.0994,
      "velocity": 99,
      "chip": "ym2612"
    },
    {
      "channel": 1,
      "note": 76,
      "start": 14.7471,
      "duration": 0.2159,
      "velocity": 127,
      "chip": "ym2612"
    },
    {
      "channel": 0,
      "note": 51,
      "start": 14.8618,
      "duration": 0.1997,
      "velocity": 99,
      "chip": "ym2612"
    },
    {
      "channel": 5,
      "note": 87,
      "start": 14.9128,
      "duration": 0.2993,
      "velocity": 92,
      "chip": "ym2612"
    },
    {
      "channel": 1,
      "note": 37,
      "start": 14.9631,
      "duration": 0.2174,
      "velocity": 127,
      "chip": "ym2612"
    },
    {
      "channel": 2,
      "note": 85,
      "start": 14.9641,
      "duration": 0.3973,
      "velocity": 92,
      "chip": "ym2612"
    },
    {
      "channel": 0,
      "note": 51,
      "start": 15.0616,
      "duration": 0.0994,
      "velocity": 99,
      "chip": "ym2612"
    },
    {
      "channel": 0,
      "note": 51,
      "start": 15.1785,
      "duration": 0.1998,
      "velocity": 99,
      "chip": "ym2612"
    },
    {
      "channel": 1,
      "note": 37,
      "start": 15.1805,
      "duration": 0.1998,
      "velocity": 127,
      "chip": "ym2612"
    },
    {
      "channel": 3,
      "note": 68,
      "start": 15.1817,
      "duration": 1.1962,
      "velocity": 102,
      "chip": "ym2612"
    },
    {
      "channel": 4,
      "note": 61,
      "start": 15.1826,
      "duration": 1.1956,
      "velocity": 102,
      "chip": "ym2612"
    },
    {
      "channel": 5,
      "note": 85,
      "start": 15.2293,
      "duration": 0.3996,
      "velocity": 92,
      "chip": "ym2612"
    },
    {
      "channel": 0,
      "note": 51,
      "start": 15.3783,
      "duration": 0.0994,
      "velocity": 99,
      "chip": "ym2612"
    },
    {
      "channel": 1,
      "note": 37,
      "start": 15.3804,
      "duration": 0.2168,
      "velocity": 120,
      "chip": "ym2612"
    },
    {
      "channel": 2,
      "note": 86,
      "start": 15.3813,
      "duration": 0.0307,
      "velocity": 92,
      "chip": "ym2612"
    },
    {
      "channel": 2,
      "note": 87,
      "start": 15.4121,
      "duration": 0.166,
      "velocity": 92,
      "chip": "ym2612"
    },
    {
      "channel": 0,
      "note": 51,
      "start": 15.4948,
      "duration": 0.1002,
      "velocity": 99,
      "chip": "ym2612"
    },
    {
      "channel": 0,
      "note": 51,
      "start": 15.5951,
      "duration": 0.0996,
      "velocity": 99,
      "chip": "ym2612"
    },
    {
      "channel": 1,
      "note": 76,
      "start": 15.5972,
      "duration": 0.2158,
      "velocity": 127,
      "chip": "ym2612"
    },
    {
      "channel": 2,
      "note": 85,
      "start": 15.5981,
      "duration": 0.1965,
      "velocity": 92,
      "chip": "ym2612"
    },
    {
      "channel": 5,
      "note": 86,
      "start": 15.6461,
      "duration": 0.0332,
      "velocity": 92,
      "chip": "ym2612"
    },
    {
      "channel": 5,
      "note": 87,
      "start": 15.6794,
      "duration": 0.1659,
      "velocity": 92,
      "chip": "ym2612"
    },
    {
      "channel": 0,
      "note": 51,
      "start": 15.6948,
      "duration": 0.1994,
      "velocity": 99,
      "chip": "ym2612"
    },
    {
      "channel": 1,
      "note": 37,
      "start": 15.8131,
      "duration": 0.3162,
      "velocity": 127,
      "chip": "ym2612"
    },
    {
      "channel": 2,
      "note": 82,
      "start": 15.814,
      "duration": 0.1986,
      "velocity": 92,
      "chip": "ym2612"
    },
    {
      "channel": 5,
      "note": 85,
      "start": 15.8625,
      "duration": 0.1998,
      "velocity": 92,
      "chip": "ym2612"
    },
    {
      "channel": 0,
      "note": 51,
      "start": 15.9113,
      "duration": 0.1002,
      "velocity": 99,
      "chip": "ym2612"
    },
    {
      "channel": 0,
      "note": 51,
      "start": 16.0115,
      "duration": 0.1991,
      "velocity": 99,
      "chip": "ym2612"
    },
    {
      "channel": 2,
      "note": 85,
      "start": 16.0127,
      "duration": 0.2983,
      "velocity": 92,
      "chip": "ym2612"
    },
    {
      "channel": 5,
      "note": 82,
      "start": 16.0624,
      "duration": 0.1993,
      "velocity": 92,
      "chip": "ym2612"
    },
    {
      "channel": 1,
      "note": 37,
      "start": 16.1293,
      "duration": 0.1008,
      "velocity": 127,
      "chip": "ym2612"
    },
    {
      "channel": 0,
      "note": 51,
      "start": 16.228,
      "duration": 0.0998,
      "velocity": 99,
      "chip": "ym2612"
    },
    {
      "channel": 1,
      "note": 37,
      "start": 16.2301,
      "duration": 0.2165,
      "velocity": 120,
      "chip": "ym2612"
    },
    {
      "channel": 5,
      "note": 85,
      "start": 16.279,
      "duration": 0.2995,
      "velocity": 92,
      "chip": "ym2612"
    },
    {
      "channel": 0,
      "note": 51,
      "start": 16.3279,
      "duration": 0.0994,
      "velocity": 99,
      "chip": "ym2612"
    },
    {
      "channel": 2,
      "note": 87,
      "start": 16.329,
      "duration": 0.2987,
      "velocity": 92,
      "chip": "ym2612"
    },
    {
      "channel": 0,
      "note": 47,
      "start": 16.4445,
      "duration": 0.2,
      "velocity": 99,
      "chip": "ym2612"
    },
    {
      "channel": 1,
      "note": 76,
      "start": 16.4466,
      "duration": 0.1999,
      "velocity": 127,
      "chip": "ym2612"
    },
    {
      "channel": 3,
      "note": 66,
      "start": 16.4477,
      "duration": 0.2006,
      "velocity": 102,
      "chip": "ym2612"
    },
    {
      "channel": 4,
      "note": 59,
      "start": 16.4485,
      "duration": 0.2006,
      "velocity": 102,
      "chip": "ym2612"
    },
    {
      "channel": 5,
      "note": 87,
      "start": 16.5957,
      "duration": 0.3001,
      "velocity": 92,
      "chip": "ym2612"
    },
    {
      "channel": 0,
      "note": 49,
      "start": 16.6445,
      "duration": 0.1993,
      "velocity": 99,
      "chip": "ym2612"
    },
    {
      "channel": 1,
      "note": 37,
      "start": 16.6466,
      "duration": 0.217,
      "velocity": 127,
      "chip": "ym2612"
    },
    {
      "channel": 2,
      "note": 89,
      "start": 16.6475,
      "duration": 0.1969,
      "velocity": 92,
      "chip": "ym2612"
    },
    {
      "channel": 3,
      "note": 68,
      "start": 16.6483,
      "duration": 0.1964,
      "velocity": 102,
      "chip": "ym2612"
    },
    {
      "channel": 4,
      "note": 61,
      "start": 16.6492,
      "duration": 0.1958,
      "velocity": 102,
      "chip": "ym2612"
    },
    {
      "channel": 0,
      "note": 51,
      "start": 16.8615,
      "duration": 0.1989,
      "velocity": 99,
      "chip": "ym2612"
    },
    {
      "channel": 1,
      "note": 37,
      "start": 16.8636,
      "duration": 0.2163,
      "velocity": 127,
      "chip": "ym2612"
    },
    {
      "channel": 2,
      "note": 89,
      "start": 16.8645,
      "duration": 0.0304,
      "velocity": 92,
      "chip": "ym2612"
    },
    {
      "channel": 3,
      "note": 66,
      "start": 16.8654,
      "duration": 1.6827,
      "velocity": 102,
      "chip": "ym2612"
    },
    {
      "channel": 4,
      "note": 59,
      "start": 16.8663,
      "duration": 1.6826,
      "velocity": 102,
      "chip": "ym2612"
    },
    {
      "channel": 2,
      "note": 90,
      "start": 16.895,
      "duration": 0.2659,
      "velocity": 92,
      "chip": "ym2612"
    },
    {
      "channel": 5,
      "note": 89,
      "start": 16.9122,
      "duration": 0.1995,
      "velocity": 92,
      "chip": "ym2612"
    },
    {
      "channel": 0,
      "note": 51,
      "start": 17.0778,
      "duration": 0.0998,
      "velocity": 99,
      "chip": "ym2612"
    },
    {
      "channel": 1,
      "note": 37,
      "start": 17.0798,
      "duration": 0.1998,
      "velocity": 120,
      "chip": "ym2612"
    },
    {
      "channel": 5,
      "note": 89,
      "start": 17.1288,
      "duration": 0.0333,
      "velocity": 92,
      "chip": "ym2612"
    },
    {
      "channel": 5,
      "note": 90,
      "start": 17.1621,
      "duration": 0.266,
      "velocity": 92,
      "chip": "ym2612"
    },
    {
      "channel": 0,
      "note": 51,
      "start": 17.1777,
      "duration": 0.0998,
      "velocity": 99,
      "chip": "ym2612"
    },
    {
      "channel": 2,
      "note": 92,
      "start": 17.1787,
      "duration": 0.2986,
      "velocity": 92,
      "chip": "ym2612"
    },
    {
      "channel": 0,
      "note": 51,
      "start": 17.2775,
      "duration": 0.1001,
      "velocity": 99,
      "chip": "ym2612"
    },
    {
      "channel": 1,
      "note": 76,
      "start": 17.2796,
      "duration": 0.216,
      "velocity": 127,
      "chip": "ym2612"
    },
    {
      "channel": 0,
      "note": 51,
      "start": 17.3777,
      "duration": 0.1993,
      "velocity": 99,
      "chip": "ym2612"
    },
    {
      "channel": 5,
      "note": 92,
      "start": 17.4453,
      "duration": 0.2993,
      "velocity": 92,
      "chip": "ym2612"
    },
    {
      "channel": 1,
      "note": 37,
      "start": 17.4956,
      "duration": 0.3165,
      "velocity": 127,
      "chip": "ym2612"
    },
    {
      "channel": 2,
      "note": 94,
      "start": 17.4966,
      "duration": 0.3974,
      "velocity": 92,
      "chip": "ym2612"
    },
    {
      "channel": 0,
      "note": 51,
      "start": 17.5941,
      "duration": 0.1001,
      "velocity": 99,
      "chip": "ym2612"
    },
    {
      "channel": 0,
      "note": 51,
      "start": 17.6942,
      "duration": 0.1992,
      "velocity": 99,
      "chip": "ym2612"
    },
    {
      "channel": 5,
      "note": 94,
      "start": 17.7619,
      "duration": 0.3995,
      "velocity": 92,
      "chip": "ym2612"
    },
    {
      "channel": 1,
      "note": 37,
      "start": 17.8122,
      "duration": 0.1007,
      "velocity": 127,
      "chip": "ym2612"
    },
    {
      "channel": 0,
      "note": 51,
      "start": 17.9108,
      "duration": 0.0998,
      "velocity": 99,
      "chip": "ym2612"
    },
    {
      "channel": 1,
      "note": 37,
      "start": 17.9129,
      "duration": 0.2167,
      "velocity": 120,
      "chip": "ym2612"
    },
    {
      "channel": 2,
      "note": 92,
      "start": 17.9138,
      "duration": 0.1969,
      "velocity": 92,
      "chip": "ym2612"
    },
    {
      "channel": 0,
      "note": 51,
      "start": 18.0107,
      "duration": 0.0994,
      "velocity": 99,
      "chip": "ym2612"
    },
    {
      "channel": 0,
      "note": 51,
      "start": 18.1276,
      "duration": 0.0997,
      "velocity": 99,
      "chip": "ym2612"
    },
    {
      "channel": 1,
      "note": 76,
      "start": 18.1296,
      "duration": 0.1992,
      "velocity": 127,
      "chip": "ym2612"
    },
    {
      "channel": 2,
      "note": 90,
      "start": 18.1305,
      "duration": 0.1992,
      "velocity": 92,
      "chip": "ym2612"
    },
    {
      "channel": 5,
      "note": 92,
      "start": 18.1785,
      "duration": 0.1993,
      "velocity": 92,
      "chip": "ym2612"
    },
    {
      "channel": 0,
      "note": 51,
      "start": 18.2273,
      "duration": 0.1995,
      "velocity": 99,
      "chip": "ym2612"
    },
    {
      "channel": 1,
      "note": 37,
      "start": 18.3289,
      "duration": 0.2174,
      "velocity": 127,
      "chip": "ym2612"
    },
    {
      "channel": 2,
      "note": 89,
      "start": 18.3298,
      "duration": 0.1973,
      "velocity": 92,
      "chip": "ym2612"
    },
    {
      "channel": 5,
      "note": 90,
      "start": 18.3951,
      "duration": 0.1999,
      "velocity": 92,
      "chip": "ym2612"
    },
    {
      "channel": 0,
      "note": 51,
      "start": 18.4439,
      "duration": 0.1002,
      "velocity": 99,
      "chip": "ym2612"
    },
    {
      "channel": 0,
      "note": 51,
      "start": 18.5442,
      "duration": 0.1991,
      "velocity": 99,
      "chip": "ym2612"
    },
    {
      "channel": 1,
      "note": 37,
      "start": 18.5463,
      "duration": 0.2164,
      "velocity": 127,
      "chip": "ym2612"
    },
    {
      "channel": 2,
      "note": 90,
      "start": 18.5472,
      "duration": 0.2964,
      "velocity": 92,
      "chip": "ym2612"
    },
    {
      "channel": 3,
      "note": 68,
      "start": 18.5481,
      "duration": 1.1955,
      "velocity": 102,
      "chip": "ym2612"
    },
    {
      "channel": 4,
      "note": 61,
      "start": 18.549,
      "duration": 1.1949,
      "velocity": 102,
      "chip": "ym2612"
    },
    {
      "channel": 5,
      "note": 89,
      "start": 18.595,
      "duration": 0.1994,
      "velocity": 92,
      "chip": "ym2612"
    },
    {
      "channel": 0,
      "note": 51,
      "start": 18.7607,
      "duration": 0.0998,
      "velocity": 99,
      "chip": "ym2612"
    },
    {
      "channel": 1,
      "note": 37,
      "start": 18.7627,
      "duration": 0.1998,
      "velocity": 120,
      "chip": "ym2612"
    },
    {
      "channel": 5,
      "note": 90,
      "start": 18.8116,
      "duration": 0.2995,
      "velocity": 92,
      "chip": "ym2612"
    },
    {
      "channel": 0,
      "note": 51,
      "start": 18.8605,
      "duration": 0.0999,
      "velocity": 99,
      "chip": "ym2612"
    },
    {
      "channel": 2,
      "note": 89,
      "start": 18.8616,
      "duration": 0.2986,
      "velocity": 92,
      "chip": "ym2612"
    },
    {
      "channel": 0,
      "note": 51,
      "start": 18.9605,
      "duration": 0.0994,
      "velocity": 99,
      "chip": "ym2612"
    },
    {
      "channel": 1,
      "note": 76,
      "start": 18.9626,
      "duration": 0.216,
      "velocity": 127,
      "chip": "ym2612"
    },
    {
      "channel": 0,
      "note": 51,
      "start": 19.0773,
      "duration": 0.1997,
      "velocity": 99,
      "chip": "ym2612"
    },
    {
      "channel": 5,
      "note": 89,
      "start": 19.1282,
      "duration": 0.2993,
      "velocity": 92,
      "chip": "ym2612"
    },
    {
      "channel": 1,
      "note": 37,
      "start": 19.1785,
      "duration": 0.3165,
      "velocity": 127,
      "chip": "ym2612"
    },
    {
      "channel": 2,
      "note": 87,
      "start": 19.1795,
      "duration": 0.3973,
      "velocity": 92,
      "chip": "ym2612"
    },
    {
      "channel": 0,
      "note": 51,
      "start": 19.277,
      "duration": 0.0994,
      "velocity": 99,
      "chip": "ym2612"
    },
    {
      "channel": 0,
      "note": 51,
      "start": 19.3938,
      "duration": 0.1998,
      "velocity": 99,
      "chip": "ym2612"
    },
    {
      "channel": 5,
      "note": 87,
      "start": 19.4448,
      "duration": 0.3995,
      "velocity": 92,
      "chip": "ym2612"
    },
    {
      "channel": 1,
      "note": 37,
      "start": 19.495,
      "duration": 0.1008,
      "velocity": 127,
      "chip": "ym2612"
    },
    {
      "channel": 0,
      "note": 51,
      "start": 19.5937,
      "duration": 0.0994,
      "velocity": 99,
      "chip": "ym2612"
    },
    {
      "channel": 1,
      "note": 37,
      "start": 19.5958,
      "duration": 0.2168,
      "velocity": 120,
      "chip": "ym2612"
    },
    {
      "channel": 2,
      "note": 85,
      "start": 19.5967,
      "duration": 0.1968,
      "velocity": 92,
      "chip": "ym2612"
    },
    {
      "channel": 0,
      "note": 51,
      "start": 19.7102,
      "duration": 0.1002,
      "velocity": 99,
      "chip": "ym2612"
    },
    {
      "channel": 0,
      "note": 47,
      "start": 19.8105,
      "duration": 0.1998,
      "velocity": 99,
      "chip": "ym2612"
    },
    {
      "channel": 1,
      "note": 76,
      "start": 19.8126,
      "duration": 0.1997,
      "velocity": 127,
      "chip": "ym2612"
    },
    {
      "channel": 2,
      "note": 87,
      "start": 19.8136,
      "duration": 0.5965,
      "velocity": 92,
      "chip": "ym2612"
    },
    {
      "channel": 3,
      "note": 66,
      "start": 19.8144,
      "duration": 0.199,
      "velocity": 102,
      "chip": "ym2612"
    },
    {
      "channel": 4,
      "note": 59,
      "start": 19.8153,
      "duration": 0.199,
      "velocity": 102,
      "chip": "ym2612"
    },
    {
      "channel": 5,
      "note": 85,
      "start": 19.8615,
      "duration": 0.1992,
      "velocity": 92,
      "chip": "ym2612"
    },
    {
      "channel": 0,
      "note": 49,
      "start": 20.0104,
      "duration": 0.1993,
      "velocity": 99,
      "chip": "ym2612"
    },
    {
      "channel": 1,
      "note": 37,
      "start": 20.0124,
      "duration": 0.2166,
      "velocity": 127,
      "chip": "ym2612"
    },
    {
      "channel": 3,
      "note": 68,
      "start": 20.0135,
      "duration": 0.1969,
      "velocity": 102,
      "chip": "ym2612"
    },
    {
      "channel": 4,
      "note": 61,
      "start": 20.0143,
      "duration": 0.1964,
      "velocity": 102,
      "chip": "ym2612"
    },
    {
      "channel": 5,
      "note": 87,
      "start": 20.078,
      "duration": 0.5995,
      "velocity": 92,
      "chip": "ym2612"
    },
    {
      "channel": 0,
      "note": 51,
      "start": 20.227,
      "duration": 0.1993,
      "velocity": 99,
      "chip": "ym2612"
    },
    {
      "channel": 1,
      "note": 37,
      "start": 20.229,
      "duration": 0.2166,
      "velocity": 127,
      "chip": "ym2612"
    },
    {
      "channel": 3,
      "note": 70,
      "start": 20.2302,
      "duration": 1.683,
      "velocity": 102,
      "chip": "ym2612"
    },
    {
      "channel": 4,
      "note": 63,
      "start": 20.2311,
      "duration": 1.683,
      "velocity": 102,
      "chip": "ym2612"
    },
    {
      "channel": 0,
      "note": 51,
      "start": 20.4436,
      "duration": 0.0998,
      "velocity": 99,
      "chip": "ym2612"
    },
    {
      "channel": 1,
      "note": 37,
      "start": 20.4457,
      "duration": 0.2001,
      "velocity": 120,
      "chip": "ym2612"
    },
    {
      "channel": 2,
      "note": 86,
      "start": 20.4466,
      "duration": 0.0307,
      "velocity": 92,
      "chip": "ym2612"
    },
    {
      "channel": 2,
      "note": 87,
      "start": 20.4774,
      "duration": 0.1693,
      "velocity": 92,
      "chip": "ym2612"
    },
    {
      "channel": 0,
      "note": 51,
      "start": 20.5435,
      "duration": 0.1002,
      "velocity": 99,
      "chip": "ym2612"
    },
    {
      "channel": 0,
      "note": 51,
      "start": 20.6437,
      "duration": 0.0992,
      "velocity": 99,
      "chip": "ym2612"
    },
    {
      "channel": 1,
      "note": 76,
      "start": 20.6459,
      "duration": 0.2158,
      "velocity": 127,
      "chip": "ym2612"
    },
    {
      "channel": 2,
      "note": 85,
      "start": 20.6468,
      "duration": 0.1965,
      "velocity": 92,
      "chip": "ym2612"
    },
    {
      "channel": 5,
      "note": 86,
      "start": 20.7114,
      "duration": 0.0334,
      "velocity": 92,
      "chip": "ym2612"
    },
    {
      "channel": 5,
      "note": 87,
      "start": 20.7449,
      "duration": 0.1662,
      "velocity": 92,
      "chip": "ym2612"
    },
    {
      "channel": 0,
      "note": 51,
      "start": 20.7601,
      "duration": 0.1998,
      "velocity": 99,
      "chip": "ym2612"
    },
    {
      "channel": 1,
      "note": 37,
      "start": 20.8617,
      "duration": 0.3163,
      "velocity": 127,
      "chip": "ym2612"
    },
    {
      "channel": 2,
      "note": 82,
      "start": 20.8626,
      "duration": 0.1974,
      "velocity": 92,
      "chip": "ym2612"
    },
    {
      "channel": 5,
      "note": 85,
      "start": 20.9112,
      "duration": 0.1993,
      "velocity": 92,
      "chip": "ym2612"
    },
    {
      "channel": 0,
      "note": 51,
      "start": 20.96,
      "duration": 0.0994,
      "velocity": 99,
      "chip": "ym2612"
    },
    {
      "channel": 0,
      "note": 51,
      "start": 21.0769,
      "duration": 0.1998,
      "velocity": 99,
      "chip": "ym2612"
    },
    {
      "channel": 2,
      "note": 85,
      "start": 21.078,
      "duration": 0.2985,
      "velocity": 92,
      "chip": "ym2612"
    },
    {
      "channel": 5,
      "note": 82,
      "start": 21.1278,
      "duration": 0.1994,
      "velocity": 92,
      "chip": "ym2612"
    },
    {
      "channel": 1,
      "note": 37,
      "start": 21.178,
      "duration": 0.1008,
      "velocity": 127,
      "chip": "ym2612"
    },
    {
      "channel": 0,
      "note": 51,
      "start": 21.2768,
      "duration": 0.0992,
      "velocity": 99,
      "chip": "ym2612"
    },
    {
      "channel": 1,
      "note": 37,
      "start": 21.2788,
      "duration": 0.2164,
      "velocity": 120,
      "chip": "ym2612"
    },
    {
      "channel": 5,
      "note": 85,
      "start": 21.3444,
      "duration": 0.3,
      "velocity": 92,
      "chip": "ym2612"
    },
    {
      "channel": 0,
      "note": 51,
      "start": 21.3933,
      "duration": 0.0999,
      "velocity": 99,
      "chip": "ym2612"
    },
    {
      "channel": 2,
      "note": 87,
      "start": 21.3944,
      "duration": 0.2987,
      "velocity": 92,
      "chip": "ym2612"
    },
    {
      "channel": 0,
      "note": 51,
      "start": 21.4932,
      "duration": 0.1001,
      "velocity": 99,
      "chip": "ym2612"
    },
    {
      "channel": 1,
      "note": 76,
      "start": 21.4953,
      "duration": 0.216,
      "velocity": 127,
      "chip": "ym2612"
    },
    {
      "channel": 0,
      "note": 51,
      "start": 21.5933,
      "duration": 0.1993,
      "velocity": 99,
      "chip": "ym2612"
    },
    {
      "channel": 5,
      "note": 87,
      "start": 21.6444,
      "duration": 0.2993,
      "velocity": 92,
      "chip": "ym2612"
    },
    {
      "channel": 1,
      "note": 37,
      "start": 21.7113,
      "duration": 0.2007,
      "velocity": 127,
      "chip": "ym2612"
    },
    {
      "channel": 2,
      "note": 85,
      "start": 21.7123,
      "duration": 0.3974,
      "velocity": 92,
      "chip": "ym2612"
    },
    {
      "channel": 0,
      "note": 51,
      "start": 21.8098,
      "duration": 0.1002,
      "velocity": 99,
      "chip": "ym2612"
    },
    {
      "channel": 0,
      "note": 51,
      "start": 21.91,
      "duration": 0.1991,
      "velocity": 99,
      "chip": "ym2612"
    },
    {
      "channel": 1,
      "note": 37,
      "start": 21.9121,
      "duration": 0.2165,
      "velocity": 127,
      "chip": "ym2612"
    },
    {
      "channel": 3,
      "note": 68,
      "start": 21.9132,
      "duration": 1.1962,
      "velocity": 102,
      "chip": "ym2612"
    },
    {
      "channel": 4,
      "note": 61,
      "start": 21.9141,
      "duration": 1.1956,
      "velocity": 102,
      "chip": "ym2612"
    },
    {
      "channel": 5,
      "note": 85,
      "start": 21.9609,
      "duration": 0.3995,
      "velocity": 92,
      "chip": "ym2612"
    },
    {
      "channel": 0,
      "note": 51,
      "start": 22.1265,
      "duration": 0.0998,
      "velocity": 99,
      "chip": "ym2612"
    },
    {
      "channel": 1,
      "note": 37,
      "start": 22.1286,
      "duration": 0.2168,
      "velocity": 120,
      "chip": "ym2612"
    },
    {
      "channel": 2,
      "note": 86,
      "start": 22.1296,
      "duration": 0.0307,
      "velocity": 92,
      "chip": "ym2612"
    },
    {
      "channel": 2,
      "note": 87,
      "start": 22.1603,
      "duration": 0.1661,
      "velocity": 92,
      "chip": "ym2612"
    },
    {
      "channel": 0,
      "note": 51,
      "start": 22.2264,
      "duration": 0.0994,
      "velocity": 99,
      "chip": "ym2612"
    },
    {
      "channel": 0,
      "note": 51,
      "start": 22.3433,
      "duration": 0.0996,
      "velocity": 99,
      "chip": "ym2612"
    },
    {
      "channel": 1,
      "note": 76,
      "start": 22.3454,
      "duration": 0.1992,
      "velocity": 127,
      "chip": "ym2612"
    },
    {
      "channel": 2,
      "note": 85,
      "start": 22.3464,
      "duration": 0.1991,
      "velocity": 92,
      "chip": "ym2612"
    },
    {
      "channel": 5,
      "note": 86,
      "start": 22.3943,
      "duration": 0.0332,
      "velocity": 92,
      "chip": "ym2612"
    },
    {
      "channel": 5,
      "note": 87,
      "start": 22.4276,
      "duration": 0.1664,
      "velocity": 92,
      "chip": "ym2612"
    },
    {
      "channel": 0,
      "note": 51,
      "start": 22.443,
      "duration": 0.1994,
      "velocity": 99,
      "chip": "ym2612"
    },
    {
      "channel": 1,
      "note": 37,
      "start": 22.5447,
      "duration": 0.3163,
      "velocity": 127,
      "chip": "ym2612"
    },
    {
      "channel": 2,
      "note": 82,
      "start": 22.5456,
      "duration": 0.1973,
      "velocity": 92,
      "chip": "ym2612"
    },
    {
      "channel": 5,
      "note": 85,
      "start": 22.5941,
      "duration": 0.1993,
      "velocity": 92,
      "chip": "ym2612"
    },
    {
      "channel": 0,
      "note": 51,
      "start": 22.6596,
      "duration": 0.1002,
      "velocity": 99,
      "chip": "ym2612"
    },
    {
      "channel": 0,
      "note": 51,
      "start": 22.7598,
      "duration": 0.1998,
      "velocity": 99,
      "chip": "ym2612"
    },
    {
      "channel": 2,
      "note": 80,
      "start": 22.7609,
      "duration": 0.2985,
      "velocity": 92,
      "chip": "ym2612"
    },
    {
      "channel": 5,
      "note": 82,
      "start": 22.8107,
      "duration": 0.1993,
      "velocity": 92,
      "chip": "ym2612"
    },
    {
      "channel": 1,
      "note": 37,
      "start": 22.861,
      "duration": 0.1007,
      "velocity": 127,
      "chip": "ym2612"
    },
    {
      "channel": 0,
      "note": 51,
      "start": 22.9596,
      "duration": 0.0992,
      "velocity": 99,
      "chip": "ym2612"
    },
    {
      "channel": 1,
      "note": 37,
      "start": 22.9617,
      "duration": 0.2165,
      "velocity": 120,
      "chip": "ym2612"
    },
    {
      "channel": 5,
      "note": 80,
      "start": 23.0272,
      "duration": 0.2995,
      "velocity": 92,
      "chip": "ym2612"
    },
    {
      "channel": 0,
      "note": 51,
      "start": 23.0761,
      "duration": 0.0999,
      "velocity": 99,
      "chip": "ym2612"
    },
    {
      "channel": 2,
      "note": 78,
      "start": 23.0772,
      "duration": 0.2988,
      "velocity": 92,
      "chip": "ym2612"
    },
    {
      "channel": 0,
      "note": 47,
      "start": 23.1761,
      "duration": 0.1994,
      "velocity": 99,
      "chip": "ym2612"
    },
    {
      "channel": 1,
      "note": 76,
      "start": 23.1782,
      "duration": 0.2166,
      "velocity": 127,
      "chip": "ym2612"
    },
    {
      "channel": 3,
      "note": 66,
      "start": 23.1793,
      "duration": 0.197,
      "velocity": 102,
      "chip": "ym2612"
    },
    {
      "channel": 4,
      "note": 59,
      "start": 23.1802,
      "duration": 0.1964,
      "velocity": 102,
      "chip": "ym2612"
    },
    {
      "channel": 5,
      "note": 78,
      "start": 23.3438,
      "duration": 0.2994,
      "velocity": 92,
      "chip": "ym2612"
    },
    {
      "channel": 0,
      "note": 49,
      "start": 23.3928,
      "duration": 0.2002,
      "velocity": 99,
      "chip": "ym2612"
    },
    {
      "channel": 1,
      "note": 37,
      "start": 23.3949,
      "duration": 0.2002,
      "velocity": 127,
      "chip": "ym2612"
    },
    {
      "channel": 2,
      "note": 77,
      "start": 23.3957,
      "duration": 0.2003,
      "velocity": 92,
      "chip": "ym2612"
    },
    {
      "channel": 3,
      "note": 68,
      "start": 23.3966,
      "duration": 0.2003,
      "velocity": 102,
      "chip": "ym2612"
    },
    {
      "channel": 4,
      "note": 61,
      "start": 23.3975,
      "duration": 0.2004,
      "velocity": 102,
      "chip": "ym2612"
    },
    {
      "channel": 0,
      "note": 51,
      "start": 23.5931,
      "duration": 0.199,
      "velocity": 99,
      "chip": "ym2612"
    },
    {
      "channel": 1,
      "note": 37,
      "start": 23.5952,
      "duration": 0.2163,
      "velocity": 127,
      "chip": "ym2612"
    },
    {
      "channel": 2,
      "note": 78,
      "start": 23.5961,
      "duration": 0.7964,
      "velocity": 92,
      "chip": "ym2612"
    },
    {
      "channel": 3,
      "note": 66,
      "start": 23.597,
      "duration": 1.6995,
      "velocity": 102,
      "chip": "ym2612"
    },
    {
      "channel": 4,
      "note": 59,
      "start": 23.5979,
      "duration": 1.6995,
      "velocity": 102,
      "chip": "ym2612"
    },
    {
      "channel": 5,
      "note": 77,
      "start": 23.6604,
      "duration": 0.1999,
      "velocity": 92,
      "chip": "ym2612"
    },
    {
      "channel": 0,
      "note": 51,
      "start": 23.8094,
      "duration": 0.0997,
      "velocity": 99,
      "chip": "ym2612"
    },
    {
      "channel": 1,
      "note": 37,
      "start": 23.8115,
      "duration": 0.2165,
      "velocity": 120,
      "chip": "ym2612"
    },
    {
      "channel": 5,
      "note": 78,
      "start": 23.8604,
      "duration": 0.802,
      "velocity": 92,
      "chip": "ym2612"
    },
    {
      "channel": 0,
      "note": 51,
      "start": 23.9092,
      "duration": 0.0995,
      "velocity": 99,
      "chip": "ym2612"
    },
    {
      "channel": 0,
      "note": 51,
      "start": 24.0259,
      "duration": 0.0999,
      "velocity": 99,
      "chip": "ym2612"
    },
    {
      "channel": 1,
      "note": 76,
      "start": 24.028,
      "duration": 0.1992,
      "velocity": 127,
      "chip": "ym2612"
    },
    {
      "channel": 0,
      "note": 51,
      "start": 24.1259,
      "duration": 0.1995,
      "velocity": 99,
      "chip": "ym2612"
    },
    {
      "channel": 1,
      "note": 37,
      "start": 24.2273,
      "duration": 0.3166,
      "velocity": 127,
      "chip": "ym2612"
    },
    {
      "channel": 0,
      "note": 51,
      "start": 24.3425,
      "duration": 0.1001,
      "velocity": 99,
      "chip": "ym2612"
    },
    {
      "channel": 0,
      "note": 51,
      "start": 24.4427,
      "duration": 0.1993,
      "velocity": 99,
      "chip": "ym2612"
    },
    {
      "channel": 2,
      "note": 80,
      "start": 24.4437,
      "duration": 0.2986,
      "velocity": 92,
      "chip": "ym2612"
    },
    {
      "channel": 1,
      "note": 37,
      "start": 24.5439,
      "duration": 0.1174,
      "velocity": 127,
      "chip": "ym2612"
    },
    {
      "channel": 0,
      "note": 51,
      "start": 24.6593,
      "duration": 0.0998,
      "velocity": 99,
      "chip": "ym2612"
    },
    {
      "channel": 1,
      "note": 37,
      "start": 24.6614,
      "duration": 0.1998,
      "velocity": 120,
      "chip": "ym2612"
    },
    {
      "channel": 5,
      "note": 80,
      "start": 24.7103,
      "duration": 0.2995,
      "velocity": 92,
      "chip": "ym2612"
    },
    {
      "channel": 0,
      "note": 51,
      "start": 24.7592,
      "duration": 0.0999,
      "velocity": 99,
      "chip": "ym2612"
    },
    {
      "channel": 2,
      "note": 82,
      "start": 24.7603,
      "duration": 0.2986,
      "velocity": 92,
      "chip": "ym2612"
    },
    {
      "channel": 0,
      "note": 51,
      "start": 24.8591,
      "duration": 0.0994,
      "velocity": 99,
      "chip": "ym2612"
    },
    {
      "channel": 1,
      "note": 76,
      "start": 24.8612,
      "duration": 0.2159,
      "velocity": 127,
      "chip": "ym2612"
    },
    {
      "channel": 0,
      "note": 51,
      "start": 24.9759,
      "duration": 0.1997,
      "velocity": 99,
      "chip": "ym2612"
    },
    {
      "channel": 5,
      "note": 82,
      "start": 25.0269,
      "duration": 0.2993,
      "velocity": 92,
      "chip": "ym2612"
    },
    {
      "channel": 1,
      "note": 37,
      "start": 25.0772,
      "duration": 0.2175,
      "velocity": 127,
      "chip": "ym2612"
    },
    {
      "channel": 2,
      "note": 83,
      "start": 25.0781,
      "duration": 0.1976,
      "velocity": 92,
      "chip": "ym2612"
    },
    {
      "channel": 0,
      "note": 51,
      "start": 25.1757,
      "duration": 0.0994,
      "velocity": 99,
      "chip": "ym2612"
    },
    {
      "channel": 0,
      "note": 51,
      "start": 25.2927,
      "duration": 0.1997,
      "velocity": 99,
      "chip": "ym2612"
    },
    {
      "channel": 1,
      "note": 37,
      "start": 25.2948,
      "duration": 0.4162,
      "velocity": 120,
      "chip": "ym2612"
    },
    {
      "channel": 2,
      "note": 82,
      "start": 25.2956,
      "duration": 0.2965,
      "velocity": 92,
      "chip": "ym2612"
    },
    {
      "channel": 3,
      "note": 68,
      "start": 25.2966,
      "duration": 1.1955,
      "velocity": 102,
      "chip": "ym2612"
    },
    {
      "channel": 4,
      "note": 61,
      "start": 25.2975,
      "duration": 1.1949,
      "velocity": 102,
      "chip": "ym2612"
    },
    {
      "channel": 5,
      "note": 83,
      "start": 25.3434,
      "duration": 0.1999,
      "velocity": 92,
      "chip": "ym2612"
    },
    {
      "channel": 0,
      "note": 51,
      "start": 25.4924,
      "duration": 0.0992,
      "velocity": 99,
      "chip": "ym2612"
    },
    {
      "channel": 5,
      "note": 82,
      "start": 25.5434,
      "duration": 0.2995,
      "velocity": 92,
      "chip": "ym2612"
    },
    {
      "channel": 0,
      "note": 51,
      "start": 25.6089,
      "duration": 0.0999,
      "velocity": 99,
      "chip": "ym2612"
    },
    {
      "channel": 2,
      "note": 80,
      "start": 25.61,
      "duration": 0.3012,
      "velocity": 92,
      "chip": "ym2612"
    },
    {
      "channel": 0,
      "note": 51,
      "start": 25.7088,
      "duration": 0.1001,
      "velocity": 99,
      "chip": "ym2612"
    },
    {
      "channel": 1,
      "note": 76,
      "start": 25.711,
      "duration": 0.1992,
      "velocity": 127,
      "chip": "ym2612"
    },
    {
      "channel": 0,
      "note": 51,
      "start": 25.809,
      "duration": 0.1993,
      "velocity": 99,
      "chip": "ym2612"
    },
    {
      "channel": 5,
      "note": 80,
      "start": 25.86,
      "duration": 0.2993,
      "velocity": 92,
      "chip": "ym2612"
    },
    {
      "channel": 1,
      "note": 37,
      "start": 25.9103,
      "duration": 0.4339,
      "velocity": 127,
      "chip": "ym2612"
    },
    {
      "channel": 2,
      "note": 78,
      "start": 25.9113,
      "duration": 0.3973,
      "velocity": 92,
      "chip": "ym2612"
    },
    {
      "channel": 0,
      "note": 51,
      "start": 26.0254,
      "duration": 0.1001,
      "velocity": 99,
      "chip": "ym2612"
    },
    {
      "channel": 0,
      "note": 51,
      "start": 26.1256,
      "duration": 0.1992,
      "velocity": 99,
      "chip": "ym2612"
    },
    {
      "channel": 5,
      "note": 78,
      "start": 26.1765,
      "duration": 0.3995,
      "velocity": 92,
      "chip": "ym2612"
    },
    {
      "channel": 0,
      "note": 51,
      "start": 26.3422,
      "duration": 0.0998,
      "velocity": 99,
      "chip": "ym2612"
    },
    {
      "channel": 1,
      "note": 37,
      "start": 26.3442,
      "duration": 0.2,
      "velocity": 120,
      "chip": "ym2612"
    },
    {
      "channel": 2,
      "note": 80,
      "start": 26.3451,
      "duration": 0.5967,
      "velocity": 92,
      "chip": "ym2612"
    },
    {
      "channel": 0,
      "note": 51,
      "start": 26.442,
      "duration": 0.1001,
      "velocity": 99,
      "chip": "ym2612"
    },
    {
      "channel": 0,
      "note": 47,
      "start": 26.5422,
      "duration": 0.1993,
      "velocity": 99,
      "chip": "ym2612"
    },
    {
      "channel": 1,
      "note": 76,
      "start": 26.5442,
      "duration": 0.2164,
      "velocity": 120,
      "chip": "ym2612"
    },
    {
      "channel": 3,
      "note": 66,
      "start": 26.5453,
      "duration": 0.1968,
      "velocity": 102,
      "chip": "ym2612"
    },
    {
      "channel": 4,
      "note": 59,
      "start": 26.5462,
      "duration": 0.1963,
      "velocity": 102,
      "chip": "ym2612"
    },
    {
      "channel": 5,
      "note": 80,
      "start": 26.6099,
      "duration": 0.5991,
      "velocity": 92,
      "chip": "ym2612"
    },
    {
      "channel": 0,
      "note": 49,
      "start": 26.7586,
      "duration": 0.1994,
      "velocity": 99,
      "chip": "ym2612"
    },
    {
      "channel": 1,
      "note": 76,
      "start": 26.7607,
      "duration": 0.2169,
      "velocity": 127,
      "chip": "ym2612"
    },
    {
      "channel": 3,
      "note": 68,
      "start": 26.7618,
      "duration": 0.1972,
      "velocity": 102,
      "chip": "ym2612"
    },
    {
      "channel": 4,
      "note": 61,
      "start": 26.7626,
      "duration": 0.1967,
      "velocity": 102,
      "chip": "ym2612"
    },
    {
      "channel": 0,
      "note": 50,
      "start": 26.9756,
      "duration": 0.0996,
      "velocity": 99,
      "chip": "ym2612"
    },
    {
      "channel": 1,
      "note": 37,
      "start": 26.9777,
      "duration": 0.1998,
      "velocity": 127,
      "chip": "ym2612"
    },
    {
      "channel": 4,
      "note": 62,
      "start": 26.98,
      "duration": 0.0789,
      "velocity": 102,
      "chip": "ym2612"
    },
    {
      "channel": 0,
      "note": 50,
      "start": 27.0752,
      "duration": 0.1002,
      "velocity": 99,
      "chip": "ym2612"
    },
    {
      "channel": 4,
      "note": 62,
      "start": 27.0766,
      "duration": 0.0823,
      "velocity": 102,
      "chip": "ym2612"
    },
    {
      "channel": 0,
      "note": 50,
      "start": 27.1754,
      "duration": 0.0992,
      "velocity": 99,
      "chip": "ym2612"
    },
    {
      "channel": 1,
      "note": 37,
      "start": 27.1775,
      "duration": 0.2167,
      "velocity": 120,
      "chip": "ym2612"
    },
    {
      "channel": 2,
      "note": 81,
      "start": 27.1784,
      "duration": 0.1967,
      "velocity": 92,
      "chip": "ym2612"
    },
    {
      "channel": 3,
      "note": 69,
      "start": 27.1793,
      "duration": 0.2296,
      "velocity": 102,
      "chip": "ym2612"
    },
    {
      "channel": 4,
      "note": 62,
      "start": 27.1801,
      "duration": 0.162,
      "velocity": 102,
      "chip": "ym2612"
    },
    {
      "channel": 0,
      "note": 50,
      "start": 27.2919,
      "duration": 0.1002,
      "velocity": 99,
      "chip": "ym2612"
    },
    {
      "channel": 0,
      "note": 50,
      "start": 27.3921,
      "duration": 0.0997,
      "velocity": 99,
      "chip": "ym2612"
    },
    {
      "channel": 1,
      "note": 76,
      "start": 27.3942,
      "duration": 0.2165,
      "velocity": 127,
      "chip": "ym2612"
    },
    {
      "channel": 2,
      "note": 80,
      "start": 27.3951,
      "duration": 0.1968,
      "velocity": 92,
      "chip": "ym2612"
    },
    {
      "channel": 4,
      "note": 62,
      "start": 27.3962,
      "duration": 0.0796,
      "velocity": 102,
      "chip": "ym2612"
    },
    {
      "channel": 5,
      "note": 81,
      "start": 27.4433,
      "duration": 0.1991,
      "velocity": 92,
      "chip": "ym2612"
    },
    {
      "channel": 0,
      "note": 50,
      "start": 27.4919,
      "duration": 0.0994,
      "velocity": 99,
      "chip": "ym2612"
    },
    {
      "channel": 3,
      "note": 69,
      "start": 27.4933,
      "duration": 0.232,
      "velocity": 102,
      "chip": "ym2612"
    },
    {
      "channel": 4,
      "note": 62,
      "start": 27.4941,
      "duration": 0.0814,
      "velocity": 102,
      "chip": "ym2612"
    },
    {
      "channel": 0,
      "note": 50,
      "start": 27.6087,
      "duration": 0.0998,
      "velocity": 99,
      "chip": "ym2612"
    },
    {
      "channel": 1,
      "note": 37,
      "start": 27.6107,
      "duration": 0.2,
      "velocity": 127,
      "chip": "ym2612"
    },
    {
      "channel": 2,
      "note": 78,
      "start": 27.6116,
      "duration": 0.2,
      "velocity": 92,
      "chip": "ym2612"
    },
    {
      "channel": 4,
      "note": 62,
      "start": 27.6126,
      "duration": 0.0795,
      "velocity": 102,
      "chip": "ym2612"
    },
    {
      "channel": 5,
      "note": 80,
      "start": 27.6596,
      "duration": 0.1999,
      "velocity": 92,
      "chip": "ym2612"
    },
    {
      "channel": 0,
      "note": 50,
      "start": 27.7085,
      "duration": 0.1001,
      "velocity": 99,
      "chip": "ym2612"
    },
    {
      "channel": 4,
      "note": 62,
      "start": 27.7099,
      "duration": 0.0824,
      "velocity": 102,
      "chip": "ym2612"
    },
    {
      "channel": 0,
      "note": 50,
      "start": 27.8087,
      "duration": 0.0993,
      "velocity": 99,
      "chip": "ym2612"
    },
    {
      "channel": 1,
      "note": 37,
      "start": 27.8107,
      "duration": 0.2165,
      "velocity": 127,
      "chip": "ym2612"
    },
    {
      "channel": 2,
      "note": 80,
      "start": 27.8116,
      "duration": 0.2966,
      "velocity": 92,
      "chip": "ym2612"
    },
    {
      "channel": 3,
      "note": 69,
      "start": 27.8125,
      "duration": 0.2961,
      "velocity": 102,
      "chip": "ym2612"
    },
    {
      "channel": 4,
      "note": 62,
      "start": 27.8134,
      "duration": 0.162,
      "velocity": 102,
      "chip": "ym2612"
    },
    {
      "channel": 5,
      "note": 78,
      "start": 27.8596,
      "duration": 0.1994,
      "velocity": 92,
      "chip": "ym2612"
    },
    {
      "channel": 0,
      "note": 50,
      "start": 27.9251,
      "duration": 0.1001,
      "velocity": 99,
      "chip": "ym2612"
    },
    {
      "channel": 0,
      "note": 50,
      "start": 28.0252,
      "duration": 0.0998,
      "velocity": 99,
      "chip": "ym2612"
    },
    {
      "channel": 1,
      "note": 37,
      "start": 28.0273,
      "duration": 0.2164,
      "velocity": 120,
      "chip": "ym2612"
    },
    {
      "channel": 4,
      "note": 62,
      "start": 28.0286,
      "duration": 0.0803,
      "velocity": 102,
      "chip": "ym2612"
    },
    {
      "channel": 5,
      "note": 80,
      "start": 28.0762,
      "duration": 0.2995,
      "velocity": 92,
      "chip": "ym2612"
    },
    {
      "channel": 0,
      "note": 50,
      "start": 28.1251,
      "duration": 0.0994,
      "velocity": 99,
      "chip": "ym2612"
    },
    {
      "channel": 2,
      "note": 81,
      "start": 28.1262,
      "duration": 0.2987,
      "velocity": 92,
      "chip": "ym2612"
    },
    {
      "channel": 4,
      "note": 62,
      "start": 28.1273,
      "duration": 0.0814,
      "velocity": 102,
      "chip": "ym2612"
    },
    {
      "channel": 0,
      "note": 50,
      "start": 28.2417,
      "duration": 0.1,
      "velocity": 99,
      "chip": "ym2612"
    },
    {
      "channel": 1,
      "note": 76,
      "start": 28.2438,
      "duration": 0.1999,
      "velocity": 127,
      "chip": "ym2612"
    },
    {
      "channel": 3,
      "note": 69,
      "start": 28.2449,
      "duration": 0.1471,
      "velocity": 102,
      "chip": "ym2612"
    },
    {
      "channel": 4,
      "note": 62,
      "start": 28.2457,
      "duration": 0.0797,
      "velocity": 102,
      "chip": "ym2612"
    },
    {
      "channel": 0,
      "note": 50,
      "start": 28.3418,
      "duration": 0.0999,
      "velocity": 99,
      "chip": "ym2612"
    },
    {
      "channel": 4,
      "note": 62,
      "start": 28.3434,
      "duration": 0.0821,
      "velocity": 102,
      "chip": "ym2612"
    },
    {
      "channel": 5,
      "note": 81,
      "start": 28.393,
      "duration": 0.2991,
      "velocity": 92,
      "chip": "ym2612"
    },
    {
      "channel": 0,
      "note": 50,
      "start": 28.4418,
      "duration": 0.0998,
      "velocity": 99,
      "chip": "ym2612"
    },
    {
      "channel": 1,
      "note": 37,
      "start": 28.4437,
      "duration": 0.2167,
      "velocity": 127,
      "chip": "ym2612"
    },
    {
      "channel": 2,
      "note": 83,
      "start": 28.4447,
      "duration": 0.3967,
      "velocity": 92,
      "chip": "ym2612"
    },
    {
      "channel": 3,
      "note": 69,
      "start": 28.4455,
      "duration": 0.1462,
      "velocity": 102,
      "chip": "ym2612"
    },
    {
      "channel": 4,
      "note": 62,
      "start": 28.4464,
      "duration": 0.1623,
      "velocity": 102,
      "chip": "ym2612"
    },
    {
      "channel": 0,
      "note": 50,
      "start": 28.5416,
      "duration": 0.0994,
      "velocity": 99,
      "chip": "ym2612"
    },
    {
      "channel": 0,
      "note": 52,
      "start": 28.6585,
      "duration": 0.0996,
      "velocity": 99,
      "chip": "ym2612"
    },
    {
      "channel": 1,
      "note": 37,
      "start": 28.6605,
      "duration": 0.1998,
      "velocity": 127,
      "chip": "ym2612"
    },
    {
      "channel": 4,
      "note": 64,
      "start": 28.6622,
      "duration": 0.0796,
      "velocity": 102,
      "chip": "ym2612"
    },
    {
      "channel": 5,
      "note": 83,
      "start": 28.7094,
      "duration": 0.3996,
      "velocity": 92,
      "chip": "ym2612"
    },
    {
      "channel": 0,
      "note": 52,
      "start": 28.7582,
      "duration": 0.1001,
      "velocity": 99,
      "chip": "ym2612"
    },
    {
      "channel": 4,
      "note": 64,
      "start": 28.7596,
      "duration": 0.0824,
      "velocity": 102,
      "chip": "ym2612"
    },
    {
      "channel": 0,
      "note": 52,
      "start": 28.8583,
      "duration": 0.0994,
      "velocity": 99,
      "chip": "ym2612"
    },
    {
      "channel": 1,
      "note": 37,
      "start": 28.8604,
      "duration": 0.2167,
      "velocity": 120,
      "chip": "ym2612"
    },
    {
      "channel": 2,
      "note": 81,
      "start": 28.8613,
      "duration": 0.1968,
      "velocity": 92,
      "chip": "ym2612"
    },
    {
      "channel": 3,
      "note": 71,
      "start": 28.8621,
      "duration": 0.2297,
      "velocity": 102,
      "chip": "ym2612"
    },
    {
      "channel": 4,
      "note": 64,
      "start": 28.863,
      "duration": 0.1621,
      "velocity": 102,
      "chip": "ym2612"
    },
    {
      "channel": 0,
      "note": 52,
      "start": 28.9749,
      "duration": 0.1001,
      "velocity": 99,
      "chip": "ym2612"
    },
    {
      "channel": 0,
      "note": 52,
      "start": 29.0751,
      "duration": 0.0997,
      "velocity": 99,
      "chip": "ym2612"
    },
    {
      "channel": 1,
      "note": 76,
      "start": 29.0772,
      "duration": 0.2165,
      "velocity": 127,
      "chip": "ym2612"
    },
    {
      "channel": 2,
      "note": 80,
      "start": 29.078,
      "duration": 0.1968,
      "velocity": 92,
      "chip": "ym2612"
    },
    {
      "channel": 4,
      "note": 64,
      "start": 29.0791,
      "duration": 0.0796,
      "velocity": 102,
      "chip": "ym2612"
    },
    {
      "channel": 5,
      "note": 81,
      "start": 29.1262,
      "duration": 0.1991,
      "velocity": 92,
      "chip": "ym2612"
    },
    {
      "channel": 0,
      "note": 52,
      "start": 29.1748,
      "duration": 0.0994,
      "velocity": 99,
      "chip": "ym2612"
    },
    {
      "channel": 3,
      "note": 71,
      "start": 29.1762,
      "duration": 0.232,
      "velocity": 102,
      "chip": "ym2612"
    },
    {
      "channel": 4,
      "note": 64,
      "start": 29.177,
      "duration": 0.0814,
      "velocity": 102,
      "chip": "ym2612"
    },
    {
      "channel": 0,
      "note": 52,
      "start": 29.2916,
      "duration": 0.0998,
      "velocity": 99,
      "chip": "ym2612"
    },
    {
      "channel": 1,
      "note": 37,
      "start": 29.2937,
      "duration": 0.1999,
      "velocity": 127,
      "chip": "ym2612"
    },
    {
      "channel": 2,
      "note": 81,
      "start": 29.2946,
      "duration": 0.2,
      "velocity": 92,
      "chip": "ym2612"
    },
    {
      "channel": 4,
      "note": 64,
      "start": 29.2956,
      "duration": 0.0794,
      "velocity": 102,
      "chip": "ym2612"
    },
    {
      "channel": 5,
      "note": 80,
      "start": 29.3426,
      "duration": 0.1994,
      "velocity": 92,
      "chip": "ym2612"
    },
    {
      "channel": 0,
      "note": 52,
      "start": 29.3914,
      "duration": 0.1001,
      "velocity": 99,
      "chip": "ym2612"
    },
    {
      "channel": 4,
      "note": 64,
      "start": 29.3928,
      "duration": 0.0824,
      "velocity": 102,
      "chip": "ym2612"
    },
    {
      "channel": 0,
      "note": 52,
      "start": 29.4916,
      "duration": 0.0992,
      "velocity": 99,
      "chip": "ym2612"
    },
    {
      "channel": 1,
      "note": 37,
      "start": 29.4937,
      "duration": 0.2164,
      "velocity": 127,
      "chip": "ym2612"
    },
    {
      "channel": 2,
      "note": 83,
      "start": 29.4946,
      "duration": 0.3965,
      "velocity": 92,
      "chip": "ym2612"
    },
    {
      "channel": 3,
      "note": 71,
      "start": 29.4954,
      "duration": 0.2959,
      "velocity": 102,
      "chip": "ym2612"
    },
    {
      "channel": 4,
      "note": 64,
      "start": 29.4963,
      "duration": 0.1619,
      "velocity": 102,
      "chip": "ym2612"
    },
    {
      "channel": 5,
      "note": 81,
      "start": 29.5592,
      "duration": 0.1999,
      "velocity": 92,
      "chip": "ym2612"
    },
    {
      "channel": 0,
      "note": 52,
      "start": 29.608,
      "duration": 0.1001,
      "velocity": 99,
      "chip": "ym2612"
    },
    {
      "channel": 0,
      "note": 52,
      "start": 29.7081,
      "duration": 0.0997,
      "velocity": 99,
      "chip": "ym2612"
    },
    {
      "channel": 1,
      "note": 37,
      "start": 29.7102,
      "duration": 0.2166,
      "velocity": 120,
      "chip": "ym2612"
    },
    {
      "channel": 4,
      "note": 64,
      "start": 29.7114,
      "duration": 0.0802,
      "velocity": 102,
      "chip": "ym2612"
    },
    {
      "channel": 5,
      "note": 83,
      "start": 29.7591,
      "duration": 0.3993,
      "velocity": 92,
      "chip": "ym2612"
    },
    {
      "channel": 0,
      "note": 52,
      "start": 29.8079,
      "duration": 0.0994,
      "velocity": 99,
      "chip": "ym2612"
    },
    {
      "channel": 4,
      "note": 64,
      "start": 29.8094,
      "duration": 0.0823,
      "velocity": 102,
      "chip": "ym2612"
    },
    {
      "channel": 0,
      "note": 52,
      "start": 29.9247,
      "duration": 0.0998,
      "velocity": 99,
      "chip": "ym2612"
    },
    {
      "channel": 1,
      "note": 76,
      "start": 29.9268,
      "duration": 0.2,
      "velocity": 127,
      "chip": "ym2612"
    },
    {
      "channel": 2,
      "note": 85,
      "start": 29.9277,
      "duration": 0.2,
      "velocity": 92,
      "chip": "ym2612"
    },
    {
      "channel": 3,
      "note": 71,
      "start": 29.9286,
      "duration": 0.1462,
      "velocity": 102,
      "chip": "ym2612"
    },
    {
      "channel": 4,
      "note": 64,
      "start": 29.9294,
      "duration": 0.079,
      "velocity": 102,
      "chip": "ym2612"
    },
    {
      "channel": 0,
      "note": 52,
      "start": 30.0246,
      "duration": 0.1002,
      "velocity": 99,
      "chip": "ym2612"
    },
    {
      "channel": 4,
      "note": 64,
      "start": 30.0261,
      "duration": 0.0821,
      "velocity": 102,
      "chip": "ym2612"
    },
    {
      "channel": 0,
      "note": 52,
      "start": 30.1248,
      "duration": 0.0992,
      "velocity": 99,
      "chip": "ym2612"
    },
    {
      "channel": 1,
      "note": 37,
      "start": 30.1268,
      "duration": 0.2165,
      "velocity": 127,
      "chip": "ym2612"
    },
    {
      "channel": 2,
      "note": 83,
      "start": 30.1277,
      "duration": 0.3965,
      "velocity": 92,
      "chip": "ym2612"
    },
    {
      "channel": 3,
      "note": 71,
      "start": 30.1286,
      "duration": 0.146,
      "velocity": 102,
      "chip": "ym2612"
    },
    {
      "channel": 4,
      "note": 64,
      "start": 30.1295,
      "duration": 0.1621,
      "velocity": 102,
      "chip": "ym2612"
    },
    {
      "channel": 5,
      "note": 85,
      "start": 30.1756,
      "duration": 0.1993,
      "velocity": 92,
      "chip": "ym2612"
    },
    {
      "channel": 0,
      "note": 52,
      "start": 30.2411,
      "duration": 0.1001,
      "velocity": 99,
      "chip": "ym2612"
    },
    {
      "channel": 0,
      "note": 54,
      "start": 30.3413,
      "duration": 0.0996,
      "velocity": 99,
      "chip": "ym2612"
    },
    {
      "channel": 1,
      "note": 37,
      "start": 30.3434,
      "duration": 0.2165,
      "velocity": 127,
      "chip": "ym2612"
    },
    {
      "channel": 4,
      "note": 66,
      "start": 30.345,
      "duration": 0.0796,
      "velocity": 102,
      "chip": "ym2612"
    },
    {
      "channel": 5,
      "note": 83,
      "start": 30.3922,
      "duration": 0.3996,
      "velocity": 92,
      "chip": "ym2612"
    },
    {
      "channel": 0,
      "note": 54,
      "start": 30.441,
      "duration": 0.0994,
      "velocity": 99,
      "chip": "ym2612"
    },
    {
      "channel": 4,
      "note": 66,
      "start": 30.4424,
      "duration": 0.0824,
      "velocity": 102,
      "chip": "ym2612"
    },
    {
      "channel": 0,
      "note": 54,
      "start": 30.5578,
      "duration": 0.0999,
      "velocity": 99,
      "chip": "ym2612"
    },
    {
      "channel": 1,
      "note": 37,
      "start": 30.5599,
      "duration": 0.2,
      "velocity": 120,
      "chip": "ym2612"
    },
    {
      "channel": 2,
      "note": 81,
      "start": 30.5608,
      "duration": 0.2001,
      "velocity": 92,
      "chip": "ym2612"
    },
    {
      "channel": 3,
      "note": 73,
      "start": 30.5617,
      "duration": 0.2296,
      "velocity": 102,
      "chip": "ym2612"
    },
    {
      "channel": 4,
      "note": 66,
      "start": 30.5625,
      "duration": 0.1621,
      "velocity": 102,
      "chip": "ym2612"
    },
    {
      "channel": 0,
      "note": 54,
      "start": 30.6577,
      "duration": 0.1001,
      "velocity": 99,
      "chip": "ym2612"
    },
    {
      "channel": 0,
      "note": 54,
      "start": 30.7579,
      "duration": 0.0992,
      "velocity": 99,
      "chip": "ym2612"
    },
    {
      "channel": 1,
      "note": 76,
      "start": 30.76,
      "duration": 0.2165,
      "velocity": 127,
      "chip": "ym2612"
    },
    {
      "channel": 2,
      "note": 80,
      "start": 30.7609,
      "duration": 0.1966,
      "velocity": 92,
      "chip": "ym2612"
    },
    {
      "channel": 4,
      "note": 66,
      "start": 30.762,
      "duration": 0.0796,
      "velocity": 102,
      "chip": "ym2612"
    },
    {
      "channel": 5,
      "note": 81,
      "start": 30.8091,
      "duration": 0.199,
      "velocity": 92,
      "chip": "ym2612"
    },
    {
      "channel": 0,
      "note": 54,
      "start": 30.8743,
      "duration": 0.1001,
      "velocity": 99,
      "chip": "ym2612"
    },
    {
      "channel": 3,
      "note": 73,
      "start": 30.8757,
      "duration": 0.232,
      "velocity": 102,
      "chip": "ym2612"
    },
    {
      "channel": 4,
      "note": 66,
      "start": 30.8765,
      "duration": 0.0815,
      "velocity": 102,
      "chip": "ym2612"
    },
    {
      "channel": 0,
      "note": 54,
      "start": 30.9745,
      "duration": 0.0997,
      "velocity": 99,
      "chip": "ym2612"
    },
    {
      "channel": 1,
      "note": 37,
      "start": 30.9765,
      "duration": 0.2165,
      "velocity": 127,
      "chip": "ym2612"
    },
    {
      "channel": 2,
      "note": 81,
      "start": 30.9775,
      "duration": 0.7966,
      "velocity": 92,
      "chip": "ym2612"
    },
    {
      "channel": 4,
      "note": 66,
      "start": 30.9785,
      "duration": 0.0793,
      "velocity": 102,
      "chip": "ym2612"
    },
    {
      "channel": 5,
      "note": 80,
      "start": 31.0254,
      "duration": 0.1994,
      "velocity": 92,
      "chip": "ym2612"
    },
    {
      "channel": 0,
      "note": 54,
      "start": 31.0743,
      "duration": 0.0994,
      "velocity": 99,
      "chip": "ym2612"
    },
    {
      "channel": 4,
      "note": 66,
      "start": 31.0757,
      "duration": 0.0823,
      "velocity": 102,
      "chip": "ym2612"
    },
    {
      "channel": 0,
      "note": 54,
      "start": 31.1911,
      "duration": 0.0997,
      "velocity": 99,
      "chip": "ym2612"
    },
    {
      "channel": 1,
      "note": 37,
      "start": 31.1931,
      "duration": 0.1997,
      "velocity": 127,
      "chip": "ym2612"
    },
    {
      "channel": 3,
      "note": 73,
      "start": 31.1942,
      "duration": 0.2974,
      "velocity": 102,
      "chip": "ym2612"
    },
    {
      "channel": 4,
      "note": 66,
      "start": 31.1951,
      "duration": 0.1627,
      "velocity": 102,
      "chip": "ym2612"
    },
    {
      "channel": 5,
      "note": 81,
      "start": 31.242,
      "duration": 0.7994,
      "velocity": 92,
      "chip": "ym2612"
    },
    {
      "channel": 0,
      "note": 54,
      "start": 31.2909,
      "duration": 0.0999,
      "velocity": 99,
      "chip": "ym2612"
    },
    {
      "channel": 0,
      "note": 54,
      "start": 31.3909,
      "duration": 0.0999,
      "velocity": 99,
      "chip": "ym2612"
    },
    {
      "channel": 1,
      "note": 37,
      "start": 31.3929,
      "duration": 0.2167,
      "velocity": 120,
      "chip": "ym2612"
    },
    {
      "channel": 4,
      "note": 66,
      "start": 31.3942,
      "duration": 0.0803,
      "velocity": 102,
      "chip": "ym2612"
    },
    {
      "channel": 0,
      "note": 54,
      "start": 31.4909,
      "duration": 0.0995,
      "velocity": 99,
      "chip": "ym2612"
    },
    {
      "channel": 4,
      "note": 66,
      "start": 31.4924,
      "duration": 0.0822,
      "velocity": 102,
      "chip": "ym2612"
    },
    {
      "channel": 0,
      "note": 54,
      "start": 31.6075,
      "duration": 0.0999,
      "velocity": 99,
      "chip": "ym2612"
    },
    {
      "channel": 1,
      "note": 76,
      "start": 31.6096,
      "duration": 0.2,
      "velocity": 127,
      "chip": "ym2612"
    },
    {
      "channel": 3,
      "note": 73,
      "start": 31.6107,
      "duration": 0.1471,
      "velocity": 102,
      "chip": "ym2612"
    },
    {
      "channel": 4,
      "note": 66,
      "start": 31.6115,
      "duration": 0.0798,
      "velocity": 102,
      "chip": "ym2612"
    },
    {
      "channel": 0,
      "note": 54,
      "start": 31.7075,
      "duration": 0.1001,
      "velocity": 99,
      "chip": "ym2612"
    },
    {
      "channel": 4,
      "note": 66,
      "start": 31.7091,
      "duration": 0.0823,
      "velocity": 102,
      "chip": "ym2612"
    },
    {
      "channel": 0,
      "note": 54,
      "start": 31.8077,
      "duration": 0.0994,
      "velocity": 99,
      "chip": "ym2612"
    },
    {
      "channel": 1,
      "note": 37,
      "start": 31.8097,
      "duration": 0.2167,
      "velocity": 127,
      "chip": "ym2612"
    },
    {
      "channel": 2,
      "note": 94,
      "start": 31.8106,
      "duration": 0.0302,
      "velocity": 92,
      "chip": "ym2612"
    },
    {
      "channel": 3,
      "note": 73,
      "start": 31.8114,
      "duration": 0.1462,
      "velocity": 102,
      "chip": "ym2612"
    },
    {
      "channel": 4,
      "note": 66,
      "start": 31.8123,
      "duration": 0.1623,
      "velocity": 102,
      "chip": "ym2612"
    },
    {
      "channel": 2,
      "note": 95,
      "start": 31.8581,
      "duration": 0.366,
      "velocity": 92,
      "chip": "ym2612"
    },
    {
      "channel": 0,
      "note": 54,
      "start": 31.9242,
      "duration": 0.1001,
      "velocity": 99,
      "chip": "ym2612"
    },
    {
      "channel": 0,
      "note": 54,
      "start": 32.0244,
      "duration": 0.0996,
      "velocity": 99,
      "chip": "ym2612"
    },
    {
      "channel": 1,
      "note": 37,
      "start": 32.0264,
      "duration": 0.2164,
      "velocity": 127,
      "chip": "ym2612"
    },
    {
      "channel": 4,
      "note": 66,
      "start": 32.0281,
      "duration": 0.0796,
      "velocity": 102,
      "chip": "ym2612"
    },
    {
      "channel": 5,
      "note": 94,
      "start": 32.0754,
      "duration": 0.0333,
      "velocity": 92,
      "chip": "ym2612"
    },
    {
      "channel": 5,
      "note": 95,
      "start": 32.1087,
      "duration": 0.3661,
      "velocity": 92,
      "chip": "ym2612"
    },
    {
      "channel": 0,
      "note": 54,
      "start": 32.1241,
      "duration": 0.0994,
      "velocity": 99,
      "chip": "ym2612"
    },
    {
      "channel": 4,
      "note": 66,
      "start": 32.1255,
      "duration": 0.0823,
      "velocity": 102,
      "chip": "ym2612"
    },
    {
      "channel": 0,
      "note": 54,
      "start": 32.2408,
      "duration": 0.0999,
      "velocity": 99,
      "chip": "ym2612"
    },
    {
      "channel": 1,
      "note": 37,
      "start": 32.2429,
      "duration": 0.2,
      "velocity": 120,
      "chip": "ym2612"
    },
    {
      "channel": 2,
      "note": 93,
      "start": 32.2438,
      "duration": 0.2001,
      "velocity": 92,
      "chip": "ym2612"
    },
    {
      "channel": 3,
      "note": 73,
      "start": 32.2447,
      "duration": 0.2296,
      "velocity": 102,
      "chip": "ym2612"
    },
    {
      "channel": 4,
      "note": 66,
      "start": 32.2456,
      "duration": 0.1621,
      "velocity": 102,
      "chip": "ym2612"
    },
    {
      "channel": 0,
      "note": 54,
      "start": 32.3407,
      "duration": 0.1001,
      "velocity": 99,
      "chip": "ym2612"
    },
    {
      "channel": 0,
      "note": 54,
      "start": 32.4409,
      "duration": 0.0992,
      "velocity": 99,
      "chip": "ym2612"
    },
    {
      "channel": 1,
      "note": 76,
      "start": 32.443,
      "duration": 0.2165,
      "velocity": 127,
      "chip": "ym2612"
    },
    {
      "channel": 2,
      "note": 92,
      "start": 32.4439,
      "duration": 0.1966,
      "velocity": 92,
      "chip": "ym2612"
    },
    {
      "channel": 4,
      "note": 66,
      "start": 32.445,
      "duration": 0.0796,
      "velocity": 102,
      "chip": "ym2612"
    },
    {
      "channel": 5,
      "note": 93,
      "start": 32.5087,
      "duration": 0.1996,
      "velocity": 92,
      "chip": "ym2612"
    },
    {
      "channel": 0,
      "note": 54,
      "start": 32.5573,
      "duration": 0.1001,
      "velocity": 99,
      "chip": "ym2612"
    },
    {
      "channel": 3,
      "note": 73,
      "start": 32.5587,
      "duration": 0.232,
      "velocity": 102,
      "chip": "ym2612"
    },
    {
      "channel": 4,
      "note": 66,
      "start": 32.5595,
      "duration": 0.0815,
      "velocity": 102,
      "chip": "ym2612"
    },
    {
      "channel": 0,
      "note": 54,
      "start": 32.6575,
      "duration": 0.0997,
      "velocity": 99,
      "chip": "ym2612"
    },
    {
      "channel": 1,
      "note": 37,
      "start": 32.6595,
      "duration": 0.2165,
      "velocity": 127,
      "chip": "ym2612"
    },
    {
      "channel": 2,
      "note": 93,
      "start": 32.6605,
      "duration": 0.3966,
      "velocity": 92,
      "chip": "ym2612"
    },
    {
      "channel": 4,
      "note": 66,
      "start": 32.6615,
      "duration": 0.0793,
      "velocity": 102,
      "chip": "ym2612"
    },
    {
      "channel": 5,
      "note": 92,
      "start": 32.7084,
      "duration": 0.1994,
      "velocity": 92,
      "chip": "ym2612"
    },
    {
      "channel": 0,
      "note": 54,
      "start": 32.7573,
      "duration": 0.0994,
      "velocity": 99,
      "chip": "ym2612"
    },
    {
      "channel": 4,
      "note": 66,
      "start": 32.7587,
      "duration": 0.0823,
      "velocity": 102,
      "chip": "ym2612"
    },
    {
      "channel": 0,
      "note": 52,
      "start": 32.8741,
      "duration": 0.0997,
      "velocity": 99,
      "chip": "ym2612"
    },
    {
      "channel": 1,
      "note": 37,
      "start": 32.8761,
      "duration": 0.1999,
      "velocity": 127,
      "chip": "ym2612"
    },
    {
      "channel": 3,
      "note": 71,
      "start": 32.8771,
      "duration": 0.2301,
      "velocity": 102,
      "chip": "ym2612"
    },
    {
      "channel": 4,
      "note": 64,
      "start": 32.878,
      "duration": 0.1627,
      "velocity": 102,
      "chip": "ym2612"
    },
    {
      "channel": 5,
      "note": 93,
      "start": 32.925,
      "duration": 0.3995,
      "velocity": 92,
      "chip": "ym2612"
    },
    {
      "channel": 0,
      "note": 52,
      "start": 32.9739,
      "duration": 0.1001,
      "velocity": 99,
      "chip": "ym2612"
    },
    {
      "channel": 0,
      "note": 52,
      "start": 33.074,
      "duration": 0.0994,
      "velocity": 99,
      "chip": "ym2612"
    },
    {
      "channel": 1,
      "note": 37,
      "start": 33.076,
      "duration": 0.2167,
      "velocity": 120,
      "chip": "ym2612"
    },
    {
      "channel": 2,
      "note": 92,
      "start": 33.077,
      "duration": 0.5967,
      "velocity": 92,
      "chip": "ym2612"
    },
    {
      "channel": 4,
      "note": 66,
      "start": 33.078,
      "duration": 0.0796,
      "velocity": 102,
      "chip": "ym2612"
    },
    {
      "channel": 0,
      "note": 54,
      "start": 33.1905,
      "duration": 0.1001,
      "velocity": 99,
      "chip": "ym2612"
    },
    {
      "channel": 3,
      "note": 73,
      "start": 33.1917,
      "duration": 0.2324,
      "velocity": 102,
      "chip": "ym2612"
    },
    {
      "channel": 4,
      "note": 66,
      "start": 33.1926,
      "duration": 0.165,
      "velocity": 102,
      "chip": "ym2612"
    },
    {
      "channel": 0,
      "note": 54,
      "start": 33.2907,
      "duration": 0.0998,
      "velocity": 99,
      "chip": "ym2612"
    },
    {
      "channel": 1,
      "note": 76,
      "start": 33.2927,
      "duration": 0.0998,
      "velocity": 120,
      "chip": "ym2612"
    },
    {
      "channel": 5,
      "note": 92,
      "start": 33.3418,
      "duration": 0.5992,
      "velocity": 92,
      "chip": "ym2612"
    },
    {
      "channel": 0,
      "note": 54,
      "start": 33.3905,
      "duration": 0.0995,
      "velocity": 99,
      "chip": "ym2612"
    },
    {
      "channel": 1,
      "note": 76,
      "start": 33.3926,
      "duration": 0.1166,
      "velocity": 120,
      "chip": "ym2612"
    },
    {
      "channel": 4,
      "note": 66,
      "start": 33.3939,
      "duration": 0.0805,
      "velocity": 102,
      "chip": "ym2612"
    },
    {
      "channel": 0,
      "note": 52,
      "start": 33.5072,
      "duration": 0.0999,
      "velocity": 99,
      "chip": "ym2612"
    },
    {
      "channel": 1,
      "note": 76,
      "start": 33.5093,
      "duration": 0.2001,
      "velocity": 127,
      "chip": "ym2612"
    },
    {
      "channel": 3,
      "note": 71,
      "start": 33.5103,
      "duration": 0.1471,
      "velocity": 102,
      "chip": "ym2612"
    },
    {
      "channel": 4,
      "note": 64,
      "start": 33.5112,
      "duration": 0.1631,
      "velocity": 102,
      "chip": "ym2612"
    },
    {
      "channel": 0,
      "note": 52,
      "start": 33.6072,
      "duration": 0.1001,
      "velocity": 99,
      "chip": "ym2612"
    },
    {
      "channel": 0,
      "note": 50,
      "start": 33.7074,
      "duration": 0.0993,
      "velocity": 99,
      "chip": "ym2612"
    },
    {
      "channel": 1,
      "note": 37,
      "start": 33.7094,
      "duration": 0.2166,
      "velocity": 127,
      "chip": "ym2612"
    },
    {
      "channel": 2,
      "note": 90,
      "start": 33.7103,
      "duration": 0.1146,
      "velocity": 92,
      "chip": "ym2612"
    },
    {
      "channel": 4,
      "note": 62,
      "start": 33.7118,
      "duration": 0.0789,
      "velocity": 102,
      "chip": "ym2612"
    },
    {
      "channel": 0,
      "note": 50,
      "start": 33.8239,
      "duration": 0.1001,
      "velocity": 99,
      "chip": "ym2612"
    },
    {
      "channel": 2,
      "note": 86,
      "start": 33.825,
      "duration": 0.1019,
      "velocity": 92,
      "chip": "ym2612"
    },
    {
      "channel": 4,
      "note": 62,
      "start": 33.826,
      "duration": 0.0815,
      "velocity": 102,
      "chip": "ym2612"
    },
    {
      "channel": 0,
      "note": 50,
      "start": 33.924,
      "duration": 0.0998,
      "velocity": 99,
      "chip": "ym2612"
    },
    {
      "channel": 1,
      "note": 37,
      "start": 33.9261,
      "duration": 0.2166,
      "velocity": 120,
      "chip": "ym2612"
    },
    {
      "channel": 2,
      "note": 90,
      "start": 33.927,
      "duration": 0.098,
      "velocity": 92,
      "chip": "ym2612"
    },
    {
      "channel": 3,
      "note": 69,
      "start": 33.9278,
      "duration": 0.2295,
      "velocity": 102,
      "chip": "ym2612"
    },
    {
      "channel": 4,
      "note": 62,
      "start": 33.9287,
      "duration": 0.162,
      "velocity": 102,
      "chip": "ym2612"
    },
    {
      "channel": 5,
      "note": 90,
      "start": 33.975,
      "duration": 0.0998,
      "velocity": 92,
      "chip": "ym2612"
    },
    {
      "channel": 0,
      "note": 50,
      "start": 34.0239,
      "duration": 0.0993,
      "velocity": 99,
      "chip": "ym2612"
    },
    {
      "channel": 2,
      "note": 93,
      "start": 34.025,
      "duration": 0.1185,
      "velocity": 92,
      "chip": "ym2612"
    },
    {
      "channel": 5,
      "note": 86,
      "start": 34.0749,
      "duration": 0.1168,
      "velocity": 92,
      "chip": "ym2612"
    },
    {
      "channel": 0,
      "note": 50,
      "start": 34.1405,
      "duration": 0.0998,
      "velocity": 99,
      "chip": "ym2612"
    },
    {
      "channel": 1,
      "note": 76,
      "start": 34.1426,
      "duration": 0.1997,
      "velocity": 127,
      "chip": "ym2612"
    },
    {
      "channel": 2,
      "note": 90,
      "start": 34.1435,
      "duration": 0.0981,
      "velocity": 92,
      "chip": "ym2612"
    },
    {
      "channel": 4,
      "note": 62,
      "start": 34.1446,
      "duration": 0.0796,
      "velocity": 102,
      "chip": "ym2612"
    },
    {
      "channel": 5,
      "note": 90,
      "start": 34.1917,
      "duration": 0.0997,
      "velocity": 92,
      "chip": "ym2612"
    },
    {
      "channel": 0,
      "note": 50,
      "start": 34.2404,
      "duration": 0.0999,
      "velocity": 99,
      "chip": "ym2612"
    },
    {
      "channel": 2,
      "note": 86,
      "start": 34.2416,
      "duration": 0.1016,
      "velocity": 92,
      "chip": "ym2612"
    },
    {
      "channel": 3,
      "note": 69,
      "start": 34.2425,
      "duration": 0.231,
      "velocity": 102,
      "chip": "ym2612"
    },
    {
      "channel": 4,
      "note": 62,
      "start": 34.2433,
      "duration": 0.0805,
      "velocity": 102,
      "chip": "ym2612"
    },
    {
      "channel": 5,
      "note": 93,
      "start": 34.2915,
      "duration": 0.0998,
      "velocity": 92,
      "chip": "ym2612"
    },
    {
      "channel": 0,
      "note": 50,
      "start": 34.3403,
      "duration": 0.0999,
      "velocity": 99,
      "chip": "ym2612"
    },
    {
      "channel": 1,
      "note": 37,
      "start": 34.3424,
      "duration": 0.2165,
      "velocity": 127,
      "chip": "ym2612"
    },
    {
      "channel": 2,
      "note": 90,
      "start": 34.3433,
      "duration": 0.098,
      "velocity": 92,
      "chip": "ym2612"
    },
    {
      "channel": 4,
      "note": 62,
      "start": 34.3443,
      "duration": 0.0794,
      "velocity": 102,
      "chip": "ym2612"
    },
    {
      "channel": 5,
      "note": 90,
      "start": 34.3913,
      "duration": 0.1167,
      "velocity": 92,
      "chip": "ym2612"
    },
    {
      "channel": 0,
      "note": 50,
      "start": 34.4403,
      "duration": 0.0993,
      "velocity": 99,
      "chip": "ym2612"
    },
    {
      "channel": 2,
      "note": 97,
      "start": 34.4413,
      "duration": 0.1184,
      "velocity": 92,
      "chip": "ym2612"
    },
    {
      "channel": 4,
      "note": 62,
      "start": 34.4424,
      "duration": 0.0815,
      "velocity": 102,
      "chip": "ym2612"
    },
    {
      "channel": 5,
      "note": 86,
      "start": 34.508,
      "duration": 0.0998,
      "velocity": 92,
      "chip": "ym2612"
    },
    {
      "channel": 0,
      "note": 50,
      "start": 34.5569,
      "duration": 0.0999,
      "velocity": 99,
      "chip": "ym2612"
    },
    {
      "channel": 1,
      "note": 37,
      "start": 34.5589,
      "duration": 0.1998,
      "velocity": 127,
      "chip": "ym2612"
    },
    {
      "channel": 2,
      "note": 90,
      "start": 34.5598,
      "duration": 0.098,
      "velocity": 92,
      "chip": "ym2612"
    },
    {
      "channel": 3,
      "note": 69,
      "start": 34.5607,
      "duration": 0.2961,
      "velocity": 102,
      "chip": "ym2612"
    },
    {
      "channel": 4,
      "note": 62,
      "start": 34.5615,
      "duration": 0.162,
      "velocity": 102,
      "chip": "ym2612"
    },
    {
      "channel": 5,
      "note": 90,
      "start": 34.6078,
      "duration": 0.0999,
      "velocity": 92,
      "chip": "ym2612"
    },
    {
      "channel": 0,
      "note": 50,
      "start": 34.6568,
      "duration": 0.0999,
      "velocity": 99,
      "chip": "ym2612"
    },
    {
      "channel": 2,
      "note": 86,
      "start": 34.6579,
      "duration": 0.1017,
      "velocity": 92,
      "chip": "ym2612"
    },
    {
      "channel": 5,
      "note": 97,
      "start": 34.7078,
      "duration": 0.1165,
      "velocity": 92,
      "chip": "ym2612"
    },
    {
      "channel": 0,
      "note": 50,
      "start": 34.7568,
      "duration": 0.0993,
      "velocity": 99,
      "chip": "ym2612"
    },
    {
      "channel": 1,
      "note": 37,
      "start": 34.7588,
      "duration": 0.2166,
      "velocity": 120,
      "chip": "ym2612"
    },
    {
      "channel": 2,
      "note": 90,
      "start": 34.7597,
      "duration": 0.1147,
      "velocity": 92,
      "chip": "ym2612"
    },
    {
      "channel": 4,
      "note": 62,
      "start": 34.7607,
      "duration": 0.0795,
      "velocity": 102,
      "chip": "ym2612"
    },
    {
      "channel": 5,
      "note": 90,
      "start": 34.8244,
      "duration": 0.1,
      "velocity": 92,
      "chip": "ym2612"
    },
    {
      "channel": 0,
      "note": 50,
      "start": 34.8734,
      "duration": 0.0999,
      "velocity": 99,
      "chip": "ym2612"
    },
    {
      "channel": 2,
      "note": 93,
      "start": 34.8745,
      "duration": 0.1019,
      "velocity": 92,
      "chip": "ym2612"
    },
    {
      "channel": 4,
      "note": 62,
      "start": 34.8756,
      "duration": 0.0814,
      "velocity": 102,
      "chip": "ym2612"
    },
    {
      "channel": 5,
      "note": 86,
      "start": 34.9245,
      "duration": 0.0999,
      "velocity": 92,
      "chip": "ym2612"
    },
    {
      "channel": 0,
      "note": 50,
      "start": 34.9734,
      "duration": 0.0999,
      "velocity": 99,
      "chip": "ym2612"
    },
    {
      "channel": 1,
      "note": 76,
      "start": 34.9755,
      "duration": 0.2164,
      "velocity": 127,
      "chip": "ym2612"
    },
    {
      "channel": 2,
      "note": 90,
      "start": 34.9763,
      "duration": 0.0982,
      "velocity": 92,
      "chip": "ym2612"
    },
    {
      "channel": 3,
      "note": 69,
      "start": 34.9772,
      "duration": 0.1462,
      "velocity": 102,
      "chip": "ym2612"
    },
    {
      "channel": 4,
      "note": 62,
      "start": 34.978,
      "duration": 0.0789,
      "velocity": 102,
      "chip": "ym2612"
    },
    {
      "channel": 5,
      "note": 90,
      "start": 35.0244,
      "duration": 0.1166,
      "velocity": 92,
      "chip": "ym2612"
    },
    {
      "channel": 0,
      "note": 50,
      "start": 35.0733,
      "duration": 0.0993,
      "velocity": 99,
      "chip": "ym2612"
    },
    {
      "channel": 2,
      "note": 86,
      "start": 35.0745,
      "duration": 0.1183,
      "velocity": 92,
      "chip": "ym2612"
    },
    {
      "channel": 4,
      "note": 62,
      "start": 35.0756,
      "duration": 0.0812,
      "velocity": 102,
      "chip": "ym2612"
    },
    {
      "channel": 5,
      "note": 93,
      "start": 35.141,
      "duration": 0.0998,
      "velocity": 92,
      "chip": "ym2612"
    },
    {
      "channel": 0,
      "note": 50,
      "start": 35.1899,
      "duration": 0.0999,
      "velocity": 99,
      "chip": "ym2612"
    },
    {
      "channel": 1,
      "note": 37,
      "start": 35.192,
      "duration": 0.2,
      "velocity": 127,
      "chip": "ym2612"
    },
    {
      "channel": 2,
      "note": 90,
      "start": 35.1929,
      "duration": 0.098,
      "velocity": 92,
      "chip": "ym2612"
    },
    {
      "channel": 3,
      "note": 69,
      "start": 35.1937,
      "duration": 0.1461,
      "velocity": 102,
      "chip": "ym2612"
    },
    {
      "channel": 4,
      "note": 62,
      "start": 35.1946,
      "duration": 0.1622,
      "velocity": 102,
      "chip": "ym2612"
    },
    {
      "channel": 5,
      "note": 90,
      "start": 35.2409,
      "duration": 0.1,
      "velocity": 92,
      "chip": "ym2612"
    },
    {
      "channel": 0,
      "note": 50,
      "start": 35.2899,
      "duration": 0.1,
      "velocity": 99,
      "chip": "ym2612"
    },
    {
      "channel": 2,
      "note": 97,
      "start": 35.291,
      "duration": 0.1019,
      "velocity": 92,
      "chip": "ym2612"
    },
    {
      "channel": 5,
      "note": 86,
      "start": 35.341,
      "duration": 0.1164,
      "velocity": 92,
      "chip": "ym2612"
    },
    {
      "channel": 0,
      "note": 52,
      "start": 35.39,
      "duration": 0.0992,
      "velocity": 99,
      "chip": "ym2612"
    },
    {
      "channel": 1,
      "note": 37,
      "start": 35.3919,
      "duration": 0.2165,
      "velocity": 127,
      "chip": "ym2612"
    },
    {
      "channel": 2,
      "note": 92,
      "start": 35.3928,
      "duration": 0.1146,
      "velocity": 92,
      "chip": "ym2612"
    },
    {
      "channel": 4,
      "note": 64,
      "start": 35.3943,
      "duration": 0.079,
      "velocity": 102,
      "chip": "ym2612"
    },
    {
      "channel": 5,
      "note": 90,
      "start": 35.4575,
      "duration": 0.1,
      "velocity": 92,
      "chip": "ym2612"
    },
    {
      "channel": 0,
      "note": 52,
      "start": 35.5065,
      "duration": 0.0999,
      "velocity": 99,
      "chip": "ym2612"
    },
    {
      "channel": 2,
      "note": 88,
      "start": 35.5075,
      "duration": 0.1017,
      "velocity": 92,
      "chip": "ym2612"
    },
    {
      "channel": 4,
      "note": 64,
      "start": 35.5085,
      "duration": 0.0815,
      "velocity": 102,
      "chip": "ym2612"
    },
    {
      "channel": 5,
      "note": 97,
      "start": 35.5575,
      "duration": 0.0998,
      "velocity": 92,
      "chip": "ym2612"
    },
    {
      "channel": 0,
      "note": 52,
      "start": 35.6064,
      "duration": 0.0999,
      "velocity": 99,
      "chip": "ym2612"
    },
    {
      "channel": 1,
      "note": 37,
      "start": 35.6085,
      "duration": 0.2166,
      "velocity": 120,
      "chip": "ym2612"
    },
    {
      "channel": 2,
      "note": 92,
      "start": 35.6093,
      "duration": 0.098,
      "velocity": 92,
      "chip": "ym2612"
    },
    {
      "channel": 3,
      "note": 71,
      "start": 35.6102,
      "duration": 0.2296,
      "velocity": 102,
      "chip": "ym2612"
    },
    {
      "channel": 4,
      "note": 64,
      "start": 35.6111,
      "duration": 0.162,
      "velocity": 102,
      "chip": "ym2612"
    },
    {
      "channel": 5,
      "note": 92,
      "start": 35.6574,
      "duration": 0.0999,
      "velocity": 92,
      "chip": "ym2612"
    },
    {
      "channel": 0,
      "note": 52,
      "start": 35.7064,
      "duration": 0.0993,
      "velocity": 99,
      "chip": "ym2612"
    },
    {
      "channel": 2,
      "note": 95,
      "start": 35.7074,
      "duration": 0.1185,
      "velocity": 92,
      "chip": "ym2612"
    },
    {
      "channel": 5,
      "note": 88,
      "start": 35.7573,
      "duration": 0.1168,
      "velocity": 92,
      "chip": "ym2612"
    },
    {
      "channel": 0,
      "note": 52,
      "start": 35.823,
      "duration": 0.0998,
      "velocity": 99,
      "chip": "ym2612"
    },
    {
      "channel": 1,
      "note": 76,
      "start": 35.8251,
      "duration": 0.1997,
      "velocity": 127,
      "chip": "ym2612"
    },
    {
      "channel": 2,
      "note": 92,
      "start": 35.826,
      "duration": 0.0981,
      "velocity": 92,
      "chip": "ym2612"
    },
    {
      "channel": 4,
      "note": 64,
      "start": 35.827,
      "duration": 0.0796,
      "velocity": 102,
      "chip": "ym2612"
    },
    {
      "channel": 5,
      "note": 92,
      "start": 35.8742,
      "duration": 0.0997,
      "velocity": 92,
      "chip": "ym2612"
    },
    {
      "channel": 0,
      "note": 52,
      "start": 35.9229,
      "duration": 0.0999,
      "velocity": 99,
      "chip": "ym2612"
    },
    {
      "channel": 2,
      "note": 88,
      "start": 35.9241,
      "duration": 0.1016,
      "velocity": 92,
      "chip": "ym2612"
    },
    {
      "channel": 3,
      "note": 71,
      "start": 35.925,
      "duration": 0.2311,
      "velocity": 102,
      "chip": "ym2612"
    },
    {
      "channel": 4,
      "note": 64,
      "start": 35.9258,
      "duration": 0.0805,
      "velocity": 102,
      "chip": "ym2612"
    },
    {
      "channel": 5,
      "note": 95,
      "start": 35.9739,
      "duration": 0.0998,
      "velocity": 92,
      "chip": "ym2612"
    },
    {
      "channel": 0,
      "note": 52,
      "start": 36.0228,
      "duration": 0.0993,
      "velocity": 99,
      "chip": "ym2612"
    },
    {
      "channel": 1,
      "note": 37,
      "start": 36.0249,
      "duration": 0.2165,
      "velocity": 127,
      "chip": "ym2612"
    },
    {
      "channel": 2,
      "note": 92,
      "start": 36.0257,
      "duration": 0.1147,
      "velocity": 92,
      "chip": "ym2612"
    },
    {
      "channel": 4,
      "note": 64,
      "start": 36.0268,
      "duration": 0.0795,
      "velocity": 102,
      "chip": "ym2612"
    },
    {
      "channel": 5,
      "note": 92,
      "start": 36.0738,
      "duration": 0.1167,
      "velocity": 92,
      "chip": "ym2612"
    },
    {
      "channel": 0,
      "note": 52,
      "start": 36.1394,
      "duration": 0.0999,
      "velocity": 99,
      "chip": "ym2612"
    },
    {
      "channel": 2,
      "note": 98,
      "start": 36.1405,
      "duration": 0.1017,
      "velocity": 92,
      "chip": "ym2612"
    },
    {
      "channel": 4,
      "note": 64,
      "start": 36.1415,
      "duration": 0.0815,
      "velocity": 102,
      "chip": "ym2612"
    },
    {
      "channel": 5,
      "note": 88,
      "start": 36.1905,
      "duration": 0.0998,
      "velocity": 92,
      "chip": "ym2612"
    },
    {
      "channel": 0,
      "note": 52,
      "start": 36.2394,
      "duration": 0.0999,
      "velocity": 99,
      "chip": "ym2612"
    },
    {
      "channel": 1,
      "note": 37,
      "start": 36.2414,
      "duration": 0.2165,
      "velocity": 127,
      "chip": "ym2612"
    },
    {
      "channel": 2,
      "note": 97,
      "start": 36.2423,
      "duration": 0.098,
      "velocity": 92,
      "chip": "ym2612"
    },
    {
      "channel": 3,
      "note": 71,
      "start": 36.2432,
      "duration": 0.296,
      "velocity": 102,
      "chip": "ym2612"
    },
    {
      "channel": 4,
      "note": 64,
      "start": 36.244,
      "duration": 0.162,
      "velocity": 102,
      "chip": "ym2612"
    },
    {
      "channel": 5,
      "note": 92,
      "start": 36.2903,
      "duration": 0.0999,
      "velocity": 92,
      "chip": "ym2612"
    },
    {
      "channel": 0,
      "note": 52,
      "start": 36.3393,
      "duration": 0.0993,
      "velocity": 99,
      "chip": "ym2612"
    },
    {
      "channel": 2,
      "note": 95,
      "start": 36.3404,
      "duration": 0.1184,
      "velocity": 92,
      "chip": "ym2612"
    },
    {
      "channel": 5,
      "note": 98,
      "start": 36.3903,
      "duration": 0.1166,
      "velocity": 92,
      "chip": "ym2612"
    },
    {
      "channel": 0,
      "note": 52,
      "start": 36.456,
      "duration": 0.0999,
      "velocity": 99,
      "chip": "ym2612"
    },
    {
      "channel": 1,
      "note": 37,
      "start": 36.458,
      "duration": 0.2,
      "velocity": 120,
      "chip": "ym2612"
    },
    {
      "channel": 2,
      "note": 92,
      "start": 36.4589,
      "duration": 0.098,
      "velocity": 92,
      "chip": "ym2612"
    },
    {
      "channel": 4,
      "note": 64,
      "start": 36.46,
      "duration": 0.0796,
      "velocity": 102,
      "chip": "ym2612"
    },
    {
      "channel": 5,
      "note": 97,
      "start": 36.5069,
      "duration": 0.1,
      "velocity": 92,
      "chip": "ym2612"
    },
    {
      "channel": 0,
      "note": 52,
      "start": 36.5559,
      "duration": 0.0999,
      "velocity": 99,
      "chip": "ym2612"
    },
    {
      "channel": 2,
      "note": 90,
      "start": 36.557,
      "duration": 0.1018,
      "velocity": 92,
      "chip": "ym2612"
    },
    {
      "channel": 4,
      "note": 64,
      "start": 36.5581,
      "duration": 0.0814,
      "velocity": 102,
      "chip": "ym2612"
    },
    {
      "channel": 5,
      "note": 95,
      "start": 36.607,
      "duration": 0.0999,
      "velocity": 92,
      "chip": "ym2612"
    },
    {
      "channel": 0,
      "note": 52,
      "start": 36.6559,
      "duration": 0.0993,
      "velocity": 99,
      "chip": "ym2612"
    },
    {
      "channel": 1,
      "note": 76,
      "start": 36.658,
      "duration": 0.2164,
      "velocity": 127,
      "chip": "ym2612"
    },
    {
      "channel": 2,
      "note": 95,
      "start": 36.6589,
      "duration": 0.1148,
      "velocity": 92,
      "chip": "ym2612"
    },
    {
      "channel": 3,
      "note": 71,
      "start": 36.6598,
      "duration": 0.1461,
      "velocity": 102,
      "chip": "ym2612"
    },
    {
      "channel": 4,
      "note": 64,
      "start": 36.6606,
      "duration": 0.0789,
      "velocity": 102,
      "chip": "ym2612"
    },
    {
      "channel": 5,
      "note": 92,
      "start": 36.7069,
      "duration": 0.1165,
      "velocity": 92,
      "chip": "ym2612"
    },
    {
      "channel": 0,
      "note": 52,
      "start": 36.7724,
      "duration": 0.0999,
      "velocity": 99,
      "chip": "ym2612"
    },
    {
      "channel": 2,
      "note": 92,
      "start": 36.7737,
      "duration": 0.1016,
      "velocity": 92,
      "chip": "ym2612"
    },
    {
      "channel": 4,
      "note": 64,
      "start": 36.7747,
      "duration": 0.0813,
      "velocity": 102,
      "chip": "ym2612"
    },
    {
      "channel": 5,
      "note": 90,
      "start": 36.8235,
      "duration": 0.0998,
      "velocity": 92,
      "chip": "ym2612"
    },
    {
      "channel": 0,
      "note": 52,
      "start": 36.8724,
      "duration": 0.0999,
      "velocity": 99,
      "chip": "ym2612"
    },
    {
      "channel": 1,
      "note": 37,
      "start": 36.8744,
      "duration": 0.2,
      "velocity": 127,
      "chip": "ym2612"
    },
    {
      "channel": 2,
      "note": 90,
      "start": 36.8753,
      "duration": 0.0981,
      "velocity": 92,
      "chip": "ym2612"
    },
    {
      "channel": 3,
      "note": 71,
      "start": 36.8761,
      "duration": 0.1461,
      "velocity": 102,
      "chip": "ym2612"
    },
    {
      "channel": 4,
      "note": 64,
      "start": 36.8771,
      "duration": 0.1622,
      "velocity": 102,
      "chip": "ym2612"
    },
    {
      "channel": 5,
      "note": 95,
      "start": 36.9234,
      "duration": 0.1,
      "velocity": 92,
      "chip": "ym2612"
    },
    {
      "channel": 0,
      "note": 52,
      "start": 36.9724,
      "duration": 0.1,
      "velocity": 99,
      "chip": "ym2612"
    },
    {
      "channel": 2,
      "note": 88,
      "start": 36.9735,
      "duration": 0.1019,
      "velocity": 92,
      "chip": "ym2612"
    },
    {
      "channel": 5,
      "note": 92,
      "start": 37.0234,
      "duration": 0.1164,
      "velocity": 92,
      "chip": "ym2612"
    },
    {
      "channel": 0,
      "note": 47,
      "start": 37.0725,
      "duration": 0.0991,
      "velocity": 99,
      "chip": "ym2612"
    },
    {
      "channel": 1,
      "note": 37,
      "start": 37.0744,
      "duration": 0.2164,
      "velocity": 127,
      "chip": "ym2612"
    },
    {
      "channel": 2,
      "note": 86,
      "start": 37.0754,
      "duration": 0.3965,
      "velocity": 92,
      "chip": "ym2612"
    },
    {
      "channel": 4,
      "note": 59,
      "start": 37.0769,
      "duration": 0.0788,
      "velocity": 102,
      "chip": "ym2612"
    },
    {
      "channel": 5,
      "note": 90,
      "start": 37.1399,
      "duration": 0.1,
      "velocity": 92,
      "chip": "ym2612"
    },
    {
      "channel": 0,
      "note": 47,
      "start": 37.1888,
      "duration": 0.0999,
      "velocity": 99,
      "chip": "ym2612"
    },
    {
      "channel": 4,
      "note": 59,
      "start": 37.1903,
      "duration": 0.0822,
      "velocity": 102,
      "chip": "ym2612"
    },
    {
      "channel": 5,
      "note": 88,
      "start": 37.24,
      "duration": 0.0998,
      "velocity": 92,
      "chip": "ym2612"
    },
    {
      "channel": 0,
      "note": 47,
      "start": 37.2888,
      "duration": 0.0998,
      "velocity": 99,
      "chip": "ym2612"
    },
    {
      "channel": 1,
      "note": 37,
      "start": 37.2909,
      "duration": 0.2166,
      "velocity": 120,
      "chip": "ym2612"
    },
    {
      "channel": 3,
      "note": 66,
      "start": 37.292,
      "duration": 0.2303,
      "velocity": 102,
      "chip": "ym2612"
    },
    {
      "channel": 4,
      "note": 59,
      "start": 37.2928,
      "duration": 0.1628,
      "velocity": 102,
      "chip": "ym2612"
    },
    {
      "channel": 5,
      "note": 86,
      "start": 37.3399,
      "duration": 0.3993,
      "velocity": 92,
      "chip": "ym2612"
    },
    {
      "channel": 0,
      "note": 47,
      "start": 37.3887,
      "duration": 0.0994,
      "velocity": 99,
      "chip": "ym2612"
    },
    {
      "channel": 0,
      "note": 47,
      "start": 37.5054,
      "duration": 0.0999,
      "velocity": 99,
      "chip": "ym2612"
    },
    {
      "channel": 1,
      "note": 76,
      "start": 37.5075,
      "duration": 0.1999,
      "velocity": 127,
      "chip": "ym2612"
    },
    {
      "channel": 2,
      "note": 85,
      "start": 37.5084,
      "duration": 0.3968,
      "velocity": 92,
      "chip": "ym2612"
    },
    {
      "channel": 4,
      "note": 59,
      "start": 37.5094,
      "duration": 0.0798,
      "velocity": 102,
      "chip": "ym2612"
    },
    {
      "channel": 0,
      "note": 47,
      "start": 37.6053,
      "duration": 0.1,
      "velocity": 99,
      "chip": "ym2612"
    },
    {
      "channel": 3,
      "note": 66,
      "start": 37.6067,
      "duration": 0.232,
      "velocity": 102,
      "chip": "ym2612"
    },
    {
      "channel": 4,
      "note": 59,
      "start": 37.6076,
      "duration": 0.0814,
      "velocity": 102,
      "chip": "ym2612"
    },
    {
      "channel": 0,
      "note": 47,
      "start": 37.7054,
      "duration": 0.0994,
      "velocity": 99,
      "chip": "ym2612"
    },
    {
      "channel": 1,
      "note": 37,
      "start": 37.7074,
      "duration": 0.2166,
      "velocity": 127,
      "chip": "ym2612"
    },
    {
      "channel": 4,
      "note": 59,
      "start": 37.7086,
      "duration": 0.0802,
      "velocity": 102,
      "chip": "ym2612"
    },
    {
      "channel": 5,
      "note": 85,
      "start": 37.7731,
      "duration": 0.3994,
      "velocity": 92,
      "chip": "ym2612"
    },
    {
      "channel": 0,
      "note": 47,
      "start": 37.822,
      "duration": 0.1,
      "velocity": 99,
      "chip": "ym2612"
    },
    {
      "channel": 4,
      "note": 59,
      "start": 37.8234,
      "duration": 0.0824,
      "velocity": 102,
      "chip": "ym2612"
    },
    {
      "channel": 0,
      "note": 47,
      "start": 37.922,
      "duration": 0.0999,
      "velocity": 99,
      "chip": "ym2612"
    },
    {
      "channel": 1,
      "note": 37,
      "start": 37.9241,
      "duration": 0.2166,
      "velocity": 127,
      "chip": "ym2612"
    },
    {
      "channel": 2,
      "note": 81,
      "start": 37.9249,
      "duration": 0.3968,
      "velocity": 92,
      "chip": "ym2612"
    },
    {
      "channel": 3,
      "note": 66,
      "start": 37.9258,
      "duration": 0.2962,
      "velocity": 102,
      "chip": "ym2612"
    },
    {
      "channel": 4,
      "note": 59,
      "start": 37.9267,
      "duration": 0.1622,
      "velocity": 102,
      "chip": "ym2612"
    },
    {
      "channel": 0,
      "note": 47,
      "start": 38.022,
      "duration": 0.0994,
      "velocity": 99,
      "chip": "ym2612"
    },
    {
      "channel": 0,
      "note": 47,
      "start": 38.1387,
      "duration": 0.0998,
      "velocity": 99,
      "chip": "ym2612"
    },
    {
      "channel": 1,
      "note": 37,
      "start": 38.1407,
      "duration": 0.2,
      "velocity": 120,
      "chip": "ym2612"
    },
    {
      "channel": 4,
      "note": 59,
      "start": 38.142,
      "duration": 0.0803,
      "velocity": 102,
      "chip": "ym2612"
    },
    {
      "channel": 5,
      "note": 81,
      "start": 38.1897,
      "duration": 0.3994,
      "velocity": 92,
      "chip": "ym2612"
    },
    {
      "channel": 0,
      "note": 47,
      "start": 38.2386,
      "duration": 0.1,
      "velocity": 99,
      "chip": "ym2612"
    },
    {
      "channel": 4,
      "note": 59,
      "start": 38.2401,
      "duration": 0.0823,
      "velocity": 102,
      "chip": "ym2612"
    },
    {
      "channel": 0,
      "note": 47,
      "start": 38.3386,
      "duration": 0.0994,
      "velocity": 99,
      "chip": "ym2612"
    },
    {
      "channel": 1,
      "note": 76,
      "start": 38.3407,
      "duration": 0.2165,
      "velocity": 127,
      "chip": "ym2612"
    },
    {
      "channel": 2,
      "note": 83,
      "start": 38.3416,
      "duration": 0.3968,
      "velocity": 92,
      "chip": "ym2612"
    },
    {
      "channel": 3,
      "note": 66,
      "start": 38.3425,
      "duration": 0.1463,
      "velocity": 102,
      "chip": "ym2612"
    },
    {
      "channel": 4,
      "note": 59,
      "start": 38.3434,
      "duration": 0.079,
      "velocity": 102,
      "chip": "ym2612"
    },
    {
      "channel": 0,
      "note": 47,
      "start": 38.4552,
      "duration": 0.1,
      "velocity": 99,
      "chip": "ym2612"
    },
    {
      "channel": 4,
      "note": 59,
      "start": 38.4568,
      "duration": 0.0821,
      "velocity": 102,
      "chip": "ym2612"
    },
    {
      "channel": 0,
      "note": 47,
      "start": 38.5553,
      "duration": 0.0999,
      "velocity": 99,
      "chip": "ym2612"
    },
    {
      "channel": 1,
      "note": 37,
      "start": 38.5573,
      "duration": 0.2168,
      "velocity": 120,
      "chip": "ym2612"
    },
    {
      "channel": 3,
      "note": 66,
      "start": 38.5584,
      "duration": 0.1469,
      "velocity": 102,
      "chip": "ym2612"
    },
    {
      "channel": 4,
      "note": 59,
      "start": 38.5593,
      "duration": 0.163,
      "velocity": 102,
      "chip": "ym2612"
    },
    {
      "channel": 5,
      "note": 83,
      "start": 38.6063,
      "duration": 0.3995,
      "velocity": 92,
      "chip": "ym2612"
    },
    {
      "channel": 0,
      "note": 47,
      "start": 38.6552,
      "duration": 0.0994,
      "velocity": 99,
      "chip": "ym2612"
    },
    {
      "channel": 0,
      "note": 49,
      "start": 38.7721,
      "duration": 0.0997,
      "velocity": 99,
      "chip": "ym2612"
    },
    {
      "channel": 1,
      "note": 76,
      "start": 38.7743,
      "duration": 0.1998,
      "velocity": 127,
      "chip": "ym2612"
    },
    {
      "channel": 2,
      "note": 84,
      "start": 38.7752,
      "duration": 0.0307,
      "velocity": 92,
      "chip": "ym2612"
    },
    {
      "channel": 4,
      "note": 61,
      "start": 38.7767,
      "duration": 0.079,
      "velocity": 102,
      "chip": "ym2612"
    },
    {
      "channel": 2,
      "note": 85,
      "start": 38.8059,
      "duration": 0.266,
      "velocity": 92,
      "chip": "ym2612"
    },
    {
      "channel": 0,
      "note": 49,
      "start": 38.8719,
      "duration": 0.1001,
      "velocity": 99,
      "chip": "ym2612"
    },
    {
      "channel": 4,
      "note": 61,
      "start": 38.8735,
      "duration": 0.0821,
      "velocity": 102,
      "chip": "ym2612"
    },
    {
      "channel": 0,
      "note": 49,
      "start": 38.972,
      "duration": 0.0993,
      "velocity": 99,
      "chip": "ym2612"
    },
    {
      "channel": 1,
      "note": 37,
      "start": 38.9741,
      "duration": 0.1166,
      "velocity": 127,
      "chip": "ym2612"
    },
    {
      "channel": 3,
      "note": 68,
      "start": 38.9751,
      "duration": 0.2302,
      "velocity": 102,
      "chip": "ym2612"
    },
    {
      "channel": 4,
      "note": 61,
      "start": 38.9761,
      "duration": 0.1628,
      "velocity": 102,
      "chip": "ym2612"
    },
    {
      "channel": 5,
      "note": 84,
      "start": 39.0231,
      "duration": 0.0327,
      "velocity": 92,
      "chip": "ym2612"
    },
    {
      "channel": 5,
      "note": 85,
      "start": 39.0732,
      "duration": 0.2664,
      "velocity": 92,
      "chip": "ym2612"
    },
    {
      "channel": 0,
      "note": 49,
      "start": 39.0887,
      "duration": 0.0998,
      "velocity": 99,
      "chip": "ym2612"
    },
    {
      "channel": 1,
      "note": 37,
      "start": 39.0907,
      "duration": 0.0999,
      "velocity": 120,
      "chip": "ym2612"
    },
    {
      "channel": 2,
      "note": 85,
      "start": 39.0916,
      "duration": 0.0997,
      "velocity": 92,
      "chip": "ym2612"
    },
    {
      "channel": 0,
      "note": 49,
      "start": 39.1886,
      "duration": 0.0999,
      "velocity": 99,
      "chip": "ym2612"
    },
    {
      "channel": 1,
      "note": 76,
      "start": 39.1907,
      "duration": 0.2166,
      "velocity": 127,
      "chip": "ym2612"
    },
    {
      "channel": 4,
      "note": 61,
      "start": 39.1924,
      "duration": 0.08,
      "velocity": 102,
      "chip": "ym2612"
    },
    {
      "channel": 0,
      "note": 49,
      "start": 39.2886,
      "duration": 0.0994,
      "velocity": 99,
      "chip": "ym2612"
    },
    {
      "channel": 3,
      "note": 68,
      "start": 39.29,
      "duration": 0.2319,
      "velocity": 102,
      "chip": "ym2612"
    },
    {
      "channel": 4,
      "note": 61,
      "start": 39.2908,
      "duration": 0.0813,
      "velocity": 102,
      "chip": "ym2612"
    },
    {
      "channel": 5,
      "note": 85,
      "start": 39.3397,
      "duration": 0.0992,
      "velocity": 92,
      "chip": "ym2612"
    },
    {
      "channel": 0,
      "note": 49,
      "start": 39.4053,
      "duration": 0.0998,
      "velocity": 99,
      "chip": "ym2612"
    },
    {
      "channel": 1,
      "note": 37,
      "start": 39.4074,
      "duration": 0.0997,
      "velocity": 127,
      "chip": "ym2612"
    },
    {
      "channel": 2,
      "note": 85,
      "start": 39.4083,
      "duration": 0.2001,
      "velocity": 92,
      "chip": "ym2612"
    },
    {
      "channel": 4,
      "note": 61,
      "start": 39.4093,
      "duration": 0.0794,
      "velocity": 102,
      "chip": "ym2612"
    },
    {
      "channel": 0,
      "note": 49,
      "start": 39.5051,
      "duration": 0.1003,
      "velocity": 99,
      "chip": "ym2612"
    },
    {
      "channel": 1,
      "note": 37,
      "start": 39.5071,
      "duration": 0.1004,
      "velocity": 120,
      "chip": "ym2612"
    },
    {
      "channel": 4,
      "note": 61,
      "start": 39.5084,
      "duration": 0.0805,
      "velocity": 102,
      "chip": "ym2612"
    },
    {
      "channel": 0,
      "note": 50,
      "start": 39.6054,
      "duration": 0.3826,
      "velocity": 99,
      "chip": "ym2612"
    },
    {
      "channel": 1,
      "note": 76,
      "start": 39.6076,
      "duration": 0.4164,
      "velocity": 120,
      "chip": "ym2612"
    },
    {
      "channel": 2,
      "note": 86,
      "start": 39.6085,
      "duration": 0.3968,
      "velocity": 92,
      "chip": "ym2612"
    },
    {
      "channel": 3,
      "note": 69,
      "start": 39.6094,
      "duration": 0.3794,
      "velocity": 102,
      "chip": "ym2612"
    },
    {
      "channel": 4,
      "note": 62,
      "start": 39.6103,
      "duration": 0.3788,
      "velocity": 102,
      "chip": "ym2612"
    },
    {
      "channel": 5,
      "note": 85,
      "start": 39.6564,
      "duration": 0.1993,
      "velocity": 92,
      "chip": "ym2612"
    },
    {
      "channel": 5,
      "note": 86,
      "start": 39.873,
      "duration": 0.3994,
      "velocity": 92,
      "chip": "ym2612"
    },
    {
      "channel": 0,
      "note": 52,
      "start": 40.022,
      "duration": 0.3828,
      "velocity": 99,
      "chip": "ym2612"
    },
    {
      "channel": 1,
      "note": 76,
      "start": 40.0241,
      "duration": 0.4339,
      "velocity": 127,
      "chip": "ym2612"
    },
    {
      "channel": 2,
      "note": 88,
      "start": 40.025,
      "duration": 0.3969,
      "velocity": 92,
      "chip": "ym2612"
    },
    {
      "channel": 3,
      "note": 71,
      "start": 40.0258,
      "duration": 0.3797,
      "velocity": 102,
      "chip": "ym2612"
    },
    {
      "channel": 4,
      "note": 64,
      "start": 40.0266,
      "duration": 0.3791,
      "velocity": 102,
      "chip": "ym2612"
    },
    {
      "channel": 5,
      "note": 88,
      "start": 40.2897,
      "duration": 0.3994,
      "velocity": 92,
      "chip": "ym2612"
    },
    {
      "channel": 0,
      "note": 57,
      "start": 40.4558,
      "duration": 0.1999,
      "velocity": 99,
      "chip": "ym2612"
    },
    {
      "channel": 1,
      "note": 37,
      "start": 40.458,
      "duration": 0.0985,
      "velocity": 127,
      "chip": "ym2612"
    },
    {
      "channel": 3,
      "note": 64,
      "start": 40.461,
      "duration": 0.2942,
      "velocity": 102,
      "chip": "ym2612"
    },
    {
      "channel": 4,
      "note": 57,
      "start": 40.462,
      "duration": 0.16,
      "velocity": 102,
      "chip": "ym2612"
    },
    {
      "channel": 1,
      "note": 64,
      "start": 40.5566,
      "duration": 0.1011,
      "velocity": 127,
      "chip": "ym2612"
    },
    {
      "channel": 0,
      "note": 57,
      "start": 40.6557,
      "duration": 0.1989,
      "velocity": 99,
      "chip": "ym2612"
    },
    {
      "channel": 1,
      "note": 64,
      "start": 40.6578,
      "duration": 0.1154,
      "velocity": 127,
      "chip": "ym2612"
    },
    {
      "channel": 2,
      "note": 69,
      "start": 40.6587,
      "duration": 0.1965,
      "velocity": 92,
      "chip": "ym2612"
    },
    {
      "channel": 4,
      "note": 57,
      "start": 40.6598,
      "duration": 0.0791,
      "velocity": 102,
      "chip": "ym2612"
    },
    {
      "channel": 1,
      "note": 64,
      "start": 40.7733,
      "duration": 0.1039,
      "velocity": 127,
      "chip": "ym2612"
    },
    {
      "channel": 4,
      "note": 57,
      "start": 40.7746,
      "duration": 0.0812,
      "velocity": 102,
      "chip": "ym2612"
    }
  ]
}