{
  "track_name": "09 - Unknown (Sound Test 06)",
  "duration_sec": 103.894,
  "sample_rate": 44100,
  "note_count": 1952,
  "unique_pitches": 30,
  "pitch_range": 54,
  "avg_note_duration": 0.0585,
  "reconstruction_stats": {
    "notes_reconstructed": 1952,
    "keyon_events": 1952,
    "keyoff_events": 1952,
    "orphan_keyons": 0,
    "unique_pitches": 30,
    "pitch_range": 54,
    "avg_duration_sec": 0.0585
  },
  "metadata": {
    "source": "D\\Dragon's Revenge\\09 - Unknown (Sound Test 06).vgz"
  },
  "notes": [
    {
      "channel": 5,
      "note": 54,
      "start": 0.0,
      "duration": 0.1765,
      "velocity": 95,
      "chip": "ym2612"
    },
    {
      "channel": 0,
      "note": 90,
      "start": 0.0091,
      "duration": 0.0102,
      "velocity": 110,
      "chip": "ym2612"
    },
    {
      "channel": 4,
      "note": 89,
      "start": 0.0148,
      "duration": 0.0116,
      "velocity": 124,
      "chip": "ym2612"
    },
    {
      "channel": 0,
      "note": 85,
      "start": 0.096,
      "duration": 0.0304,
      "velocity": 110,
      "chip": "ym2612"
    },
    {
      "channel": 5,
      "note": 49,
      "start": 0.2126,
      "duration": 0.1807,
      "velocity": 95,
      "chip": "ym2612"
    },
    {
      "channel": 0,
      "note": 91,
      "start": 0.2154,
      "duration": 0.0109,
      "velocity": 110,
      "chip": "ym2612"
    },
    {
      "channel": 4,
      "note": 89,
      "start": 0.218,
      "duration": 0.0252,
      "velocity": 124,
      "chip": "ym2612"
    },
    {
      "channel": 0,
      "note": 85,
      "start": 0.3126,
      "duration": 0.0137,
      "velocity": 110,
      "chip": "ym2612"
    },
    {
      "channel": 5,
      "note": 52,
      "start": 0.4293,
      "duration": 0.1807,
      "velocity": 95,
      "chip": "ym2612"
    },
    {
      "channel": 0,
      "note": 90,
      "start": 0.4317,
      "duration": 0.0113,
      "velocity": 110,
      "chip": "ym2612"
    },
    {
      "channel": 4,
      "note": 89,
      "start": 0.4346,
      "duration": 0.0251,
      "velocity": 124,
      "chip": "ym2612"
    },
    {
      "channel": 0,
      "note": 85,
      "start": 0.5294,
      "duration": 0.0136,
      "velocity": 110,
      "chip": "ym2612"
    },
    {
      "channel": 5,
      "note": 54,
      "start": 0.6463,
      "duration": 0.3803,
      "velocity": 95,
      "chip": "ym2612"
    },
    {
      "channel": 0,
      "note": 88,
      "start": 0.6488,
      "duration": 0.0109,
      "velocity": 110,
      "chip": "ym2612"
    },
    {
      "channel": 4,
      "note": 89,
      "start": 0.6513,
      "duration": 0.0251,
      "velocity": 124,
      "chip": "ym2612"
    },
    {
      "channel": 0,
      "note": 85,
      "start": 0.746,
      "duration": 0.0136,
      "velocity": 110,
      "chip": "ym2612"
    },
    {
      "channel": 0,
      "note": 90,
      "start": 0.8626,
      "duration": 0.0137,
      "velocity": 110,
      "chip": "ym2612"
    },
    {
      "channel": 4,
      "note": 101,
      "start": 0.8651,
      "duration": 0.028,
      "velocity": 124,
      "chip": "ym2612"
    },
    {
      "channel": 0,
      "note": 85,
      "start": 0.9626,
      "duration": 0.0138,
      "velocity": 110,
      "chip": "ym2612"
    },
    {
      "channel": 5,
      "note": 49,
      "start": 1.0796,
      "duration": 0.1636,
      "velocity": 95,
      "chip": "ym2612"
    },
    {
      "channel": 0,
      "note": 91,
      "start": 1.082,
      "duration": 0.011,
      "velocity": 110,
      "chip": "ym2612"
    },
    {
      "channel": 4,
      "note": 89,
      "start": 1.0846,
      "duration": 0.0252,
      "velocity": 124,
      "chip": "ym2612"
    },
    {
      "channel": 0,
      "note": 85,
      "start": 1.1794,
      "duration": 0.0136,
      "velocity": 110,
      "chip": "ym2612"
    },
    {
      "channel": 5,
      "note": 52,
      "start": 1.2793,
      "duration": 0.1806,
      "velocity": 95,
      "chip": "ym2612"
    },
    {
      "channel": 0,
      "note": 90,
      "start": 1.2817,
      "duration": 0.028,
      "velocity": 110,
      "chip": "ym2612"
    },
    {
      "channel": 4,
      "note": 89,
      "start": 1.2843,
      "duration": 0.0422,
      "velocity": 124,
      "chip": "ym2612"
    },
    {
      "channel": 0,
      "note": 85,
      "start": 1.396,
      "duration": 0.0136,
      "velocity": 110,
      "chip": "ym2612"
    },
    {
      "channel": 5,
      "note": 54,
      "start": 1.4962,
      "duration": 0.397,
      "velocity": 95,
      "chip": "ym2612"
    },
    {
      "channel": 0,
      "note": 88,
      "start": 1.4987,
      "duration": 0.011,
      "velocity": 110,
      "chip": "ym2612"
    },
    {
      "channel": 4,
      "note": 89,
      "start": 1.5012,
      "duration": 0.0419,
      "velocity": 124,
      "chip": "ym2612"
    },
    {
      "channel": 0,
      "note": 85,
      "start": 1.6126,
      "duration": 0.0138,
      "velocity": 110,
      "chip": "ym2612"
    },
    {
      "channel": 0,
      "note": 90,
      "start": 1.7127,
      "duration": 0.0136,
      "velocity": 110,
      "chip": "ym2612"
    },
    {
      "channel": 4,
      "note": 89,
      "start": 1.718,
      "duration": 0.0251,
      "velocity": 124,
      "chip": "ym2612"
    },
    {
      "channel": 0,
      "note": 85,
      "start": 1.8293,
      "duration": 0.0138,
      "velocity": 110,
      "chip": "ym2612"
    },
    {
      "channel": 5,
      "note": 49,
      "start": 1.9296,
      "duration": 0.1802,
      "velocity": 95,
      "chip": "ym2612"
    },
    {
      "channel": 0,
      "note": 91,
      "start": 1.9325,
      "duration": 0.0105,
      "velocity": 110,
      "chip": "ym2612"
    },
    {
      "channel": 4,
      "note": 89,
      "start": 1.935,
      "duration": 0.0247,
      "velocity": 124,
      "chip": "ym2612"
    },
    {
      "channel": 0,
      "note": 85,
      "start": 2.0459,
      "duration": 0.0137,
      "velocity": 110,
      "chip": "ym2612"
    },
    {
      "channel": 5,
      "note": 52,
      "start": 2.1463,
      "duration": 0.1802,
      "velocity": 95,
      "chip": "ym2612"
    },
    {
      "channel": 0,
      "note": 90,
      "start": 2.1488,
      "duration": 0.0109,
      "velocity": 110,
      "chip": "ym2612"
    },
    {
      "channel": 4,
      "note": 89,
      "start": 2.1514,
      "duration": 0.0251,
      "velocity": 124,
      "chip": "ym2612"
    },
    {
      "channel": 0,
      "note": 85,
      "start": 2.2626,
      "duration": 0.0138,
      "velocity": 110,
      "chip": "ym2612"
    },
    {
      "channel": 5,
      "note": 54,
      "start": 2.3629,
      "duration": 0.3969,
      "velocity": 95,
      "chip": "ym2612"
    },
    {
      "channel": 0,
      "note": 88,
      "start": 2.3654,
      "duration": 0.0109,
      "velocity": 110,
      "chip": "ym2612"
    },
    {
      "channel": 4,
      "note": 89,
      "start": 2.368,
      "duration": 0.0252,
      "velocity": 124,
      "chip": "ym2612"
    },
    {
      "channel": 0,
      "note": 85,
      "start": 2.4626,
      "duration": 0.0304,
      "velocity": 110,
      "chip": "ym2612"
    },
    {
      "channel": 0,
      "note": 90,
      "start": 2.5793,
      "duration": 0.0137,
      "velocity": 110,
      "chip": "ym2612"
    },
    {
      "channel": 4,
      "note": 101,
      "start": 2.5819,
      "duration": 0.028,
      "velocity": 124,
      "chip": "ym2612"
    },
    {
      "channel": 0,
      "note": 85,
      "start": 2.6793,
      "duration": 0.0137,
      "velocity": 110,
      "chip": "ym2612"
    },
    {
      "channel": 5,
      "note": 49,
      "start": 2.7962,
      "duration": 0.1803,
      "velocity": 95,
      "chip": "ym2612"
    },
    {
      "channel": 0,
      "note": 91,
      "start": 2.7987,
      "duration": 0.011,
      "velocity": 110,
      "chip": "ym2612"
    },
    {
      "channel": 4,
      "note": 89,
      "start": 2.8012,
      "duration": 0.0252,
      "velocity": 124,
      "chip": "ym2612"
    },
    {
      "channel": 0,
      "note": 85,
      "start": 2.896,
      "duration": 0.0136,
      "velocity": 110,
      "chip": "ym2612"
    },
    {
      "channel": 5,
      "note": 52,
      "start": 3.0126,
      "duration": 0.1639,
      "velocity": 95,
      "chip": "ym2612"
    },
    {
      "channel": 0,
      "note": 90,
      "start": 3.0151,
      "duration": 0.0112,
      "velocity": 110,
      "chip": "ym2612"
    },
    {
      "channel": 4,
      "note": 89,
      "start": 3.0177,
      "duration": 0.0254,
      "velocity": 124,
      "chip": "ym2612"
    },
    {
      "channel": 0,
      "note": 85,
      "start": 3.1127,
      "duration": 0.0136,
      "velocity": 110,
      "chip": "ym2612"
    },
    {
      "channel": 5,
      "note": 54,
      "start": 3.2294,
      "duration": 0.1139,
      "velocity": 95,
      "chip": "ym2612"
    },
    {
      "channel": 0,
      "note": 88,
      "start": 3.232,
      "duration": 0.0111,
      "velocity": 110,
      "chip": "ym2612"
    },
    {
      "channel": 4,
      "note": 89,
      "start": 3.2348,
      "duration": 0.0249,
      "velocity": 124,
      "chip": "ym2612"
    },
    {
      "channel": 0,
      "note": 85,
      "start": 3.3293,
      "duration": 0.0138,
      "velocity": 110,
      "chip": "ym2612"
    },
    {
      "channel": 5,
      "note": 54,
      "start": 3.4461,
      "duration": 0.1471,
      "velocity": 95,
      "chip": "ym2612"
    },
    {
      "channel": 3,
      "note": 73,
      "start": 3.4493,
      "duration": 0.1106,
      "velocity": 110,
      "chip": "ym2612"
    },
    {
      "channel": 0,
      "note": 90,
      "start": 3.4517,
      "duration": 0.008,
      "velocity": 110,
      "chip": "ym2612"
    },
    {
      "channel": 4,
      "note": 89,
      "start": 3.4571,
      "duration": 0.0195,
      "velocity": 124,
      "chip": "ym2612"
    },
    {
      "channel": 0,
      "note": 85,
      "start": 3.546,
      "duration": 0.0137,
      "velocity": 110,
      "chip": "ym2612"
    },
    {
      "channel": 5,
      "note": 49,
      "start": 3.6459,
      "duration": 0.1641,
      "velocity": 95,
      "chip": "ym2612"
    },
    {
      "channel": 3,
      "note": 73,
      "start": 3.6486,
      "duration": 0.1612,
      "velocity": 110,
      "chip": "ym2612"
    },
    {
      "channel": 0,
      "note": 91,
      "start": 3.6515,
      "duration": 0.0249,
      "velocity": 110,
      "chip": "ym2612"
    },
    {
      "channel": 4,
      "note": 89,
      "start": 3.6539,
      "duration": 0.0392,
      "velocity": 124,
      "chip": "ym2612"
    },
    {
      "channel": 0,
      "note": 85,
      "start": 3.7627,
      "duration": 0.0136,
      "velocity": 110,
      "chip": "ym2612"
    },
    {
      "channel": 5,
      "note": 52,
      "start": 3.8628,
      "duration": 0.1805,
      "velocity": 95,
      "chip": "ym2612"
    },
    {
      "channel": 3,
      "note": 76,
      "start": 3.8654,
      "duration": 0.1109,
      "velocity": 110,
      "chip": "ym2612"
    },
    {
      "channel": 0,
      "note": 90,
      "start": 3.8678,
      "duration": 0.0085,
      "velocity": 110,
      "chip": "ym2612"
    },
    {
      "channel": 4,
      "note": 89,
      "start": 3.8704,
      "duration": 0.0228,
      "velocity": 124,
      "chip": "ym2612"
    },
    {
      "channel": 0,
      "note": 85,
      "start": 3.9794,
      "duration": 0.0136,
      "velocity": 110,
      "chip": "ym2612"
    },
    {
      "channel": 5,
      "note": 54,
      "start": 4.0799,
      "duration": 0.3967,
      "velocity": 95,
      "chip": "ym2612"
    },
    {
      "channel": 3,
      "note": 76,
      "start": 4.0826,
      "duration": 0.1439,
      "velocity": 110,
      "chip": "ym2612"
    },
    {
      "channel": 0,
      "note": 88,
      "start": 4.085,
      "duration": 0.0081,
      "velocity": 110,
      "chip": "ym2612"
    },
    {
      "channel": 4,
      "note": 89,
      "start": 4.0875,
      "duration": 0.0223,
      "velocity": 124,
      "chip": "ym2612"
    },
    {
      "channel": 0,
      "note": 85,
      "start": 4.196,
      "duration": 0.0137,
      "velocity": 110,
      "chip": "ym2612"
    },
    {
      "channel": 3,
      "note": 74,
      "start": 4.2961,
      "duration": 0.1137,
      "velocity": 110,
      "chip": "ym2612"
    },
    {
      "channel": 0,
      "note": 90,
      "start": 4.2985,
      "duration": 0.0111,
      "velocity": 110,
      "chip": "ym2612"
    },
    {
      "channel": 4,
      "note": 101,
      "start": 4.3011,
      "duration": 0.0254,
      "velocity": 124,
      "chip": "ym2612"
    },
    {
      "channel": 0,
      "note": 85,
      "start": 4.4128,
      "duration": 0.0136,
      "velocity": 110,
      "chip": "ym2612"
    },
    {
      "channel": 5,
      "note": 49,
      "start": 4.5129,
      "duration": 0.1803,
      "velocity": 95,
      "chip": "ym2612"
    },
    {
      "channel": 3,
      "note": 74,
      "start": 4.5156,
      "duration": 0.1275,
      "velocity": 110,
      "chip": "ym2612"
    },
    {
      "channel": 0,
      "note": 91,
      "start": 4.518,
      "duration": 0.0083,
      "velocity": 110,
      "chip": "ym2612"
    },
    {
      "channel": 4,
      "note": 89,
      "start": 4.5206,
      "duration": 0.0225,
      "velocity": 124,
      "chip": "ym2612"
    },
    {
      "channel": 0,
      "note": 85,
      "start": 4.6293,
      "duration": 0.0137,
      "velocity": 110,
      "chip": "ym2612"
    },
    {
      "channel": 5,
      "note": 52,
      "start": 4.7295,
      "duration": 0.1637,
      "velocity": 95,
      "chip": "ym2612"
    },
    {
      "channel": 3,
      "note": 71,
      "start": 4.7322,
      "duration": 0.1443,
      "velocity": 110,
      "chip": "ym2612"
    },
    {
      "channel": 0,
      "note": 90,
      "start": 4.7346,
      "duration": 0.0085,
      "velocity": 110,
      "chip": "ym2612"
    },
    {
      "channel": 4,
      "note": 89,
      "start": 4.7371,
      "duration": 0.0227,
      "velocity": 124,
      "chip": "ym2612"
    },
    {
      "channel": 0,
      "note": 85,
      "start": 4.8294,
      "duration": 0.0136,
      "velocity": 110,
      "chip": "ym2612"
    },
    {
      "channel": 5,
      "note": 54,
      "start": 4.9463,
      "duration": 0.397,
      "velocity": 95,
      "chip": "ym2612"
    },
    {
      "channel": 3,
      "note": 73,
      "start": 4.9498,
      "duration": 1.4599,
      "velocity": 110,
      "chip": "ym2612"
    },
    {
      "channel": 0,
      "note": 88,
      "start": 4.9522,
      "duration": 0.0076,
      "velocity": 110,
      "chip": "ym2612"
    },
    {
      "channel": 4,
      "note": 89,
      "start": 4.9551,
      "duration": 0.0214,
      "velocity": 124,
      "chip": "ym2612"
    },
    {
      "channel": 0,
      "note": 85,
      "start": 5.046,
      "duration": 0.0137,
      "velocity": 110,
      "chip": "ym2612"
    },
    {
      "channel": 0,
      "note": 90,
      "start": 5.1626,
      "duration": 0.0137,
      "velocity": 110,
      "chip": "ym2612"
    },
    {
      "channel": 4,
      "note": 89,
      "start": 5.1679,
      "duration": 0.0252,
      "velocity": 124,
      "chip": "ym2612"
    },
    {
      "channel": 0,
      "note": 85,
      "start": 5.2626,
      "duration": 0.0138,
      "velocity": 110,
      "chip": "ym2612"
    },
    {
      "channel": 5,
      "note": 49,
      "start": 5.3795,
      "duration": 0.1637,
      "velocity": 95,
      "chip": "ym2612"
    },
    {
      "channel": 0,
      "note": 91,
      "start": 5.3824,
      "duration": 0.0107,
      "velocity": 110,
      "chip": "ym2612"
    },
    {
      "channel": 4,
      "note": 89,
      "start": 5.3849,
      "duration": 0.0249,
      "velocity": 124,
      "chip": "ym2612"
    },
    {
      "channel": 0,
      "note": 85,
      "start": 5.4793,
      "duration": 0.0137,
      "velocity": 110,
      "chip": "ym2612"
    },
    {
      "channel": 5,
      "note": 52,
      "start": 5.596,
      "duration": 0.1639,
      "velocity": 95,
      "chip": "ym2612"
    },
    {
      "channel": 0,
      "note": 90,
      "start": 5.5985,
      "duration": 0.0112,
      "velocity": 110,
      "chip": "ym2612"
    },
    {
      "channel": 4,
      "note": 89,
      "start": 5.601,
      "duration": 0.0255,
      "velocity": 124,
      "chip": "ym2612"
    },
    {
      "channel": 0,
      "note": 85,
      "start": 5.696,
      "duration": 0.0137,
      "velocity": 110,
      "chip": "ym2612"
    },
    {
      "channel": 5,
      "note": 54,
      "start": 5.8133,
      "duration": 0.3799,
      "velocity": 95,
      "chip": "ym2612"
    },
    {
      "channel": 0,
      "note": 88,
      "start": 5.8158,
      "duration": 0.0105,
      "velocity": 110,
      "chip": "ym2612"
    },
    {
      "channel": 4,
      "note": 89,
      "start": 5.8183,
      "duration": 0.0248,
      "velocity": 124,
      "chip": "ym2612"
    },
    {
      "channel": 0,
      "note": 85,
      "start": 5.9127,
      "duration": 0.0136,
      "velocity": 110,
      "chip": "ym2612"
    },
    {
      "channel": 0,
      "note": 90,
      "start": 6.0126,
      "duration": 0.0137,
      "velocity": 110,
      "chip": "ym2612"
    },
    {
      "channel": 4,
      "note": 101,
      "start": 6.0151,
      "duration": 0.0447,
      "velocity": 124,
      "chip": "ym2612"
    },
    {
      "channel": 0,
      "note": 85,
      "start": 6.1293,
      "duration": 0.0137,
      "velocity": 110,
      "chip": "ym2612"
    },
    {
      "channel": 5,
      "note": 49,
      "start": 6.2296,
      "duration": 0.1803,
      "velocity": 95,
      "chip": "ym2612"
    },
    {
      "channel": 0,
      "note": 91,
      "start": 6.232,
      "duration": 0.011,
      "velocity": 110,
      "chip": "ym2612"
    },
    {
      "channel": 4,
      "note": 89,
      "start": 6.2346,
      "duration": 0.0252,
      "velocity": 124,
      "chip": "ym2612"
    },
    {
      "channel": 0,
      "note": 85,
      "start": 6.346,
      "duration": 0.0137,
      "velocity": 110,
      "chip": "ym2612"
    },
    {
      "channel": 5,
      "note": 52,
      "start": 6.446,
      "duration": 0.1806,
      "velocity": 95,
      "chip": "ym2612"
    },
    {
      "channel": 0,
      "note": 90,
      "start": 6.4485,
      "duration": 0.0112,
      "velocity": 110,
      "chip": "ym2612"
    },
    {
      "channel": 4,
      "note": 89,
      "start": 6.451,
      "duration": 0.0254,
      "velocity": 124,
      "chip": "ym2612"
    },
    {
      "channel": 0,
      "note": 85,
      "start": 6.5626,
      "duration": 0.0137,
      "velocity": 110,
      "chip": "ym2612"
    },
    {
      "channel": 5,
      "note": 54,
      "start": 6.6628,
      "duration": 0.1305,
      "velocity": 95,
      "chip": "ym2612"
    },
    {
      "channel": 0,
      "note": 88,
      "start": 6.6653,
      "duration": 0.0111,
      "velocity": 110,
      "chip": "ym2612"
    },
    {
      "channel": 4,
      "note": 89,
      "start": 6.6682,
      "duration": 0.0249,
      "velocity": 124,
      "chip": "ym2612"
    },
    {
      "channel": 0,
      "note": 85,
      "start": 6.7793,
      "duration": 0.0137,
      "velocity": 110,
      "chip": "ym2612"
    },
    {
      "channel": 5,
      "note": 54,
      "start": 6.8794,
      "duration": 0.1971,
      "velocity": 95,
      "chip": "ym2612"
    },
    {
      "channel": 3,
      "note": 73,
      "start": 6.8823,
      "duration": 0.0941,
      "velocity": 110,
      "chip": "ym2612"
    },
    {
      "channel": 0,
      "note": 90,
      "start": 6.8847,
      "duration": 0.0083,
      "velocity": 110,
      "chip": "ym2612"
    },
    {
      "channel": 4,
      "note": 89,
      "start": 6.8901,
      "duration": 0.0198,
      "velocity": 124,
      "chip": "ym2612"
    },
    {
      "channel": 0,
      "note": 85,
      "start": 6.9794,
      "duration": 0.0303,
      "velocity": 110,
      "chip": "ym2612"
    },
    {
      "channel": 5,
      "note": 49,
      "start": 7.0962,
      "duration": 0.1804,
      "velocity": 95,
      "chip": "ym2612"
    },
    {
      "channel": 3,
      "note": 73,
      "start": 7.0988,
      "duration": 0.2109,
      "velocity": 110,
      "chip": "ym2612"
    },
    {
      "channel": 0,
      "note": 91,
      "start": 7.1016,
      "duration": 0.008,
      "velocity": 110,
      "chip": "ym2612"
    },
    {
      "channel": 4,
      "note": 89,
      "start": 7.1041,
      "duration": 0.0224,
      "velocity": 124,
      "chip": "ym2612"
    },
    {
      "channel": 0,
      "note": 85,
      "start": 7.196,
      "duration": 0.0137,
      "velocity": 110,
      "chip": "ym2612"
    },
    {
      "channel": 5,
      "note": 52,
      "start": 7.3127,
      "duration": 0.1805,
      "velocity": 95,
      "chip": "ym2612"
    },
    {
      "channel": 3,
      "note": 76,
      "start": 7.3154,
      "duration": 0.0943,
      "velocity": 110,
      "chip": "ym2612"
    },
    {
      "channel": 0,
      "note": 90,
      "start": 7.3178,
      "duration": 0.0085,
      "velocity": 110,
      "chip": "ym2612"
    },
    {
      "channel": 4,
      "note": 89,
      "start": 7.3203,
      "duration": 0.0228,
      "velocity": 124,
      "chip": "ym2612"
    },
    {
      "channel": 0,
      "note": 85,
      "start": 7.4127,
      "duration": 0.0136,
      "velocity": 110,
      "chip": "ym2612"
    },
    {
      "channel": 5,
      "note": 54,
      "start": 7.5296,
      "duration": 0.4136,
      "velocity": 95,
      "chip": "ym2612"
    },
    {
      "channel": 3,
      "note": 76,
      "start": 7.5323,
      "duration": 0.1109,
      "velocity": 110,
      "chip": "ym2612"
    },
    {
      "channel": 0,
      "note": 88,
      "start": 7.5347,
      "duration": 0.0083,
      "velocity": 110,
      "chip": "ym2612"
    },
    {
      "channel": 4,
      "note": 89,
      "start": 7.5373,
      "duration": 0.0225,
      "velocity": 124,
      "chip": "ym2612"
    },
    {
      "channel": 0,
      "note": 85,
      "start": 7.6293,
      "duration": 0.0138,
      "velocity": 110,
      "chip": "ym2612"
    },
    {
      "channel": 3,
      "note": 74,
      "start": 7.7461,
      "duration": 0.097,
      "velocity": 110,
      "chip": "ym2612"
    },
    {
      "channel": 0,
      "note": 90,
      "start": 7.7485,
      "duration": 0.0112,
      "velocity": 110,
      "chip": "ym2612"
    },
    {
      "channel": 4,
      "note": 101,
      "start": 7.7511,
      "duration": 0.0254,
      "velocity": 124,
      "chip": "ym2612"
    },
    {
      "channel": 0,
      "note": 85,
      "start": 7.846,
      "duration": 0.0136,
      "velocity": 110,
      "chip": "ym2612"
    },
    {
      "channel": 5,
      "note": 49,
      "start": 7.9633,
      "duration": 0.1632,
      "velocity": 95,
      "chip": "ym2612"
    },
    {
      "channel": 3,
      "note": 74,
      "start": 7.966,
      "duration": 0.127,
      "velocity": 110,
      "chip": "ym2612"
    },
    {
      "channel": 0,
      "note": 91,
      "start": 7.9684,
      "duration": 0.0079,
      "velocity": 110,
      "chip": "ym2612"
    },
    {
      "channel": 4,
      "note": 89,
      "start": 7.971,
      "duration": 0.0221,
      "velocity": 124,
      "chip": "ym2612"
    },
    {
      "channel": 0,
      "note": 85,
      "start": 8.0626,
      "duration": 0.0138,
      "velocity": 110,
      "chip": "ym2612"
    },
    {
      "channel": 5,
      "note": 52,
      "start": 8.1626,
      "duration": 0.1806,
      "velocity": 95,
      "chip": "ym2612"
    },
    {
      "channel": 3,
      "note": 71,
      "start": 8.1656,
      "duration": 0.1276,
      "velocity": 110,
      "chip": "ym2612"
    },
    {
      "channel": 0,
      "note": 90,
      "start": 8.168,
      "duration": 0.0249,
      "velocity": 110,
      "chip": "ym2612"
    },
    {
      "channel": 4,
      "note": 89,
      "start": 8.1706,
      "duration": 0.0393,
      "velocity": 124,
      "chip": "ym2612"
    },
    {
      "channel": 0,
      "note": 85,
      "start": 8.2793,
      "duration": 0.0137,
      "velocity": 110,
      "chip": "ym2612"
    },
    {
      "channel": 5,
      "note": 54,
      "start": 8.3796,
      "duration": 0.397,
      "velocity": 95,
      "chip": "ym2612"
    },
    {
      "channel": 3,
      "note": 73,
      "start": 8.3827,
      "duration": 1.3604,
      "velocity": 110,
      "chip": "ym2612"
    },
    {
      "channel": 0,
      "note": 88,
      "start": 8.3852,
      "duration": 0.0079,
      "velocity": 110,
      "chip": "ym2612"
    },
    {
      "channel": 4,
      "note": 89,
      "start": 8.3881,
      "duration": 0.0384,
      "velocity": 124,
      "chip": "ym2612"
    },
    {
      "channel": 0,
      "note": 85,
      "start": 8.496,
      "duration": 0.0137,
      "velocity": 110,
      "chip": "ym2612"
    },
    {
      "channel": 0,
      "note": 90,
      "start": 8.596,
      "duration": 0.0136,
      "velocity": 110,
      "chip": "ym2612"
    },
    {
      "channel": 4,
      "note": 89,
      "start": 8.6013,
      "duration": 0.0252,
      "velocity": 124,
      "chip": "ym2612"
    },
    {
      "channel": 0,
      "note": 85,
      "start": 8.7127,
      "duration": 0.0136,
      "velocity": 110,
      "chip": "ym2612"
    },
    {
      "channel": 5,
      "note": 49,
      "start": 8.8129,
      "duration": 0.1802,
      "velocity": 95,
      "chip": "ym2612"
    },
    {
      "channel": 0,
      "note": 91,
      "start": 8.8158,
      "duration": 0.0105,
      "velocity": 110,
      "chip": "ym2612"
    },
    {
      "channel": 4,
      "note": 89,
      "start": 8.8183,
      "duration": 0.0248,
      "velocity": 124,
      "chip": "ym2612"
    },
    {
      "channel": 0,
      "note": 85,
      "start": 8.9293,
      "duration": 0.0137,
      "velocity": 110,
      "chip": "ym2612"
    },
    {
      "channel": 5,
      "note": 52,
      "start": 9.0294,
      "duration": 0.1639,
      "velocity": 95,
      "chip": "ym2612"
    },
    {
      "channel": 0,
      "note": 90,
      "start": 9.0319,
      "duration": 0.0111,
      "velocity": 110,
      "chip": "ym2612"
    },
    {
      "channel": 4,
      "note": 89,
      "start": 9.0344,
      "duration": 0.0254,
      "velocity": 124,
      "chip": "ym2612"
    },
    {
      "channel": 0,
      "note": 85,
      "start": 9.1459,
      "duration": 0.0138,
      "velocity": 110,
      "chip": "ym2612"
    },
    {
      "channel": 5,
      "note": 54,
      "start": 9.2463,
      "duration": 0.3969,
      "velocity": 95,
      "chip": "ym2612"
    },
    {
      "channel": 0,
      "note": 88,
      "start": 9.2488,
      "duration": 0.011,
      "velocity": 110,
      "chip": "ym2612"
    },
    {
      "channel": 4,
      "note": 89,
      "start": 9.2513,
      "duration": 0.0252,
      "velocity": 124,
      "chip": "ym2612"
    },
    {
      "channel": 0,
      "note": 85,
      "start": 9.346,
      "duration": 0.0304,
      "velocity": 110,
      "chip": "ym2612"
    },
    {
      "channel": 0,
      "note": 90,
      "start": 9.4626,
      "duration": 0.0137,
      "velocity": 110,
      "chip": "ym2612"
    },
    {
      "channel": 4,
      "note": 101,
      "start": 9.4651,
      "duration": 0.0281,
      "velocity": 124,
      "chip": "ym2612"
    },
    {
      "channel": 0,
      "note": 85,
      "start": 9.5627,
      "duration": 0.0136,
      "velocity": 110,
      "chip": "ym2612"
    },
    {
      "channel": 5,
      "note": 49,
      "start": 9.6799,
      "duration": 0.1966,
      "velocity": 95,
      "chip": "ym2612"
    },
    {
      "channel": 0,
      "note": 91,
      "start": 9.6824,
      "duration": 0.0106,
      "velocity": 110,
      "chip": "ym2612"
    },
    {
      "channel": 4,
      "note": 89,
      "start": 9.6849,
      "duration": 0.0249,
      "velocity": 124,
      "chip": "ym2612"
    },
    {
      "channel": 0,
      "note": 85,
      "start": 9.7794,
      "duration": 0.0136,
      "velocity": 110,
      "chip": "ym2612"
    },
    {
      "channel": 5,
      "note": 52,
      "start": 9.8962,
      "duration": 0.1803,
      "velocity": 95,
      "chip": "ym2612"
    },
    {
      "channel": 0,
      "note": 90,
      "start": 9.8986,
      "duration": 0.011,
      "velocity": 110,
      "chip": "ym2612"
    },
    {
      "channel": 4,
      "note": 89,
      "start": 9.9012,
      "duration": 0.0253,
      "velocity": 124,
      "chip": "ym2612"
    },
    {
      "channel": 0,
      "note": 85,
      "start": 9.996,
      "duration": 0.0138,
      "velocity": 110,
      "chip": "ym2612"
    },
    {
      "channel": 5,
      "note": 54,
      "start": 10.1127,
      "duration": 0.0971,
      "velocity": 95,
      "chip": "ym2612"
    },
    {
      "channel": 0,
      "note": 88,
      "start": 10.1152,
      "duration": 0.0111,
      "velocity": 110,
      "chip": "ym2612"
    },
    {
      "channel": 4,
      "note": 89,
      "start": 10.1181,
      "duration": 0.0251,
      "velocity": 124,
      "chip": "ym2612"
    },
    {
      "channel": 0,
      "note": 85,
      "start": 10.2127,
      "duration": 0.0136,
      "velocity": 110,
      "chip": "ym2612"
    },
    {
      "channel": 5,
      "note": 54,
      "start": 10.3294,
      "duration": 0.1638,
      "velocity": 95,
      "chip": "ym2612"
    },
    {
      "channel": 3,
      "note": 73,
      "start": 10.3322,
      "duration": 0.0942,
      "velocity": 110,
      "chip": "ym2612"
    },
    {
      "channel": 0,
      "note": 90,
      "start": 10.3346,
      "duration": 0.0085,
      "velocity": 110,
      "chip": "ym2612"
    },
    {
      "channel": 4,
      "note": 89,
      "start": 10.3399,
      "duration": 0.0199,
      "velocity": 124,
      "chip": "ym2612"
    },
    {
      "channel": 0,
      "note": 85,
      "start": 10.4294,
      "duration": 0.0136,
      "velocity": 110,
      "chip": "ym2612"
    },
    {
      "channel": 5,
      "note": 49,
      "start": 10.5293,
      "duration": 0.1806,
      "velocity": 95,
      "chip": "ym2612"
    },
    {
      "channel": 3,
      "note": 73,
      "start": 10.532,
      "duration": 0.1777,
      "velocity": 110,
      "chip": "ym2612"
    },
    {
      "channel": 0,
      "note": 91,
      "start": 10.5348,
      "duration": 0.0249,
      "velocity": 110,
      "chip": "ym2612"
    },
    {
      "channel": 4,
      "note": 89,
      "start": 10.5373,
      "duration": 0.0393,
      "velocity": 124,
      "chip": "ym2612"
    },
    {
      "channel": 0,
      "note": 85,
      "start": 10.646,
      "duration": 0.0137,
      "velocity": 110,
      "chip": "ym2612"
    },
    {
      "channel": 5,
      "note": 52,
      "start": 10.746,
      "duration": 0.1805,
      "velocity": 95,
      "chip": "ym2612"
    },
    {
      "channel": 3,
      "note": 76,
      "start": 10.7486,
      "duration": 0.1111,
      "velocity": 110,
      "chip": "ym2612"
    },
    {
      "channel": 0,
      "note": 90,
      "start": 10.7511,
      "duration": 0.0086,
      "velocity": 110,
      "chip": "ym2612"
    },
    {
      "channel": 4,
      "note": 89,
      "start": 10.7536,
      "duration": 0.0396,
      "velocity": 124,
      "chip": "ym2612"
    },
    {
      "channel": 0,
      "note": 85,
      "start": 10.8627,
      "duration": 0.0136,
      "velocity": 110,
      "chip": "ym2612"
    },
    {
      "channel": 5,
      "note": 54,
      "start": 10.9629,
      "duration": 0.397,
      "velocity": 95,
      "chip": "ym2612"
    },
    {
      "channel": 3,
      "note": 76,
      "start": 10.9656,
      "duration": 0.1607,
      "velocity": 110,
      "chip": "ym2612"
    },
    {
      "channel": 0,
      "note": 88,
      "start": 10.968,
      "duration": 0.0083,
      "velocity": 110,
      "chip": "ym2612"
    },
    {
      "channel": 4,
      "note": 89,
      "start": 10.9706,
      "duration": 0.0225,
      "velocity": 124,
      "chip": "ym2612"
    },
    {
      "channel": 0,
      "note": 85,
      "start": 11.0793,
      "duration": 0.0137,
      "velocity": 110,
      "chip": "ym2612"
    },
    {
      "channel": 3,
      "note": 74,
      "start": 11.1798,
      "duration": 0.0966,
      "velocity": 110,
      "chip": "ym2612"
    },
    {
      "channel": 0,
      "note": 90,
      "start": 11.1822,
      "duration": 0.0108,
      "velocity": 110,
      "chip": "ym2612"
    },
    {
      "channel": 4,
      "note": 101,
      "start": 11.1847,
      "duration": 0.0251,
      "velocity": 124,
      "chip": "ym2612"
    },
    {
      "channel": 0,
      "note": 85,
      "start": 11.296,
      "duration": 0.0136,
      "velocity": 110,
      "chip": "ym2612"
    },
    {
      "channel": 5,
      "note": 49,
      "start": 11.3962,
      "duration": 0.1637,
      "velocity": 95,
      "chip": "ym2612"
    },
    {
      "channel": 3,
      "note": 74,
      "start": 11.3989,
      "duration": 0.1776,
      "velocity": 110,
      "chip": "ym2612"
    },
    {
      "channel": 0,
      "note": 91,
      "start": 11.4013,
      "duration": 0.0085,
      "velocity": 110,
      "chip": "ym2612"
    },
    {
      "channel": 4,
      "note": 89,
      "start": 11.4038,
      "duration": 0.0227,
      "velocity": 124,
      "chip": "ym2612"
    },
    {
      "channel": 0,
      "note": 85,
      "start": 11.5127,
      "duration": 0.0136,
      "velocity": 110,
      "chip": "ym2612"
    },
    {
      "channel": 5,
      "note": 52,
      "start": 11.6126,
      "duration": 0.1639,
      "velocity": 95,
      "chip": "ym2612"
    },
    {
      "channel": 3,
      "note": 69,
      "start": 11.6153,
      "duration": 0.1279,
      "velocity": 110,
      "chip": "ym2612"
    },
    {
      "channel": 0,
      "note": 90,
      "start": 11.6177,
      "duration": 0.0086,
      "velocity": 110,
      "chip": "ym2612"
    },
    {
      "channel": 4,
      "note": 89,
      "start": 11.6203,
      "duration": 0.0228,
      "velocity": 124,
      "chip": "ym2612"
    },
    {
      "channel": 0,
      "note": 85,
      "start": 11.7127,
      "duration": 0.0303,
      "velocity": 110,
      "chip": "ym2612"
    },
    {
      "channel": 5,
      "note": 54,
      "start": 11.8299,
      "duration": 0.4966,
      "velocity": 95,
      "chip": "ym2612"
    },
    {
      "channel": 3,
      "note": 71,
      "start": 11.8331,
      "duration": 1.3766,
      "velocity": 110,
      "chip": "ym2612"
    },
    {
      "channel": 0,
      "note": 88,
      "start": 11.8355,
      "duration": 0.0076,
      "velocity": 110,
      "chip": "ym2612"
    },
    {
      "channel": 4,
      "note": 89,
      "start": 11.8384,
      "duration": 0.0214,
      "velocity": 124,
      "chip": "ym2612"
    },
    {
      "channel": 0,
      "note": 85,
      "start": 11.9293,
      "duration": 0.0137,
      "velocity": 110,
      "chip": "ym2612"
    },
    {
      "channel": 0,
      "note": 90,
      "start": 12.0459,
      "duration": 0.0137,
      "velocity": 110,
      "chip": "ym2612"
    },
    {
      "channel": 4,
      "note": 89,
      "start": 12.0512,
      "duration": 0.0252,
      "velocity": 124,
      "chip": "ym2612"
    },
    {
      "channel": 0,
      "note": 83,
      "start": 12.146,
      "duration": 0.0136,
      "velocity": 110,
      "chip": "ym2612"
    },
    {
      "channel": 0,
      "note": 88,
      "start": 12.2631,
      "duration": 0.0133,
      "velocity": 110,
      "chip": "ym2612"
    },
    {
      "channel": 4,
      "note": 89,
      "start": 12.2656,
      "duration": 0.0276,
      "velocity": 124,
      "chip": "ym2612"
    },
    {
      "channel": 5,
      "note": 49,
      "start": 12.3629,
      "duration": 0.0636,
      "velocity": 95,
      "chip": "ym2612"
    },
    {
      "channel": 0,
      "note": 83,
      "start": 12.3654,
      "duration": 0.0109,
      "velocity": 110,
      "chip": "ym2612"
    },
    {
      "channel": 5,
      "note": 52,
      "start": 12.4796,
      "duration": 0.1636,
      "velocity": 95,
      "chip": "ym2612"
    },
    {
      "channel": 0,
      "note": 90,
      "start": 12.4821,
      "duration": 0.0109,
      "velocity": 110,
      "chip": "ym2612"
    },
    {
      "channel": 4,
      "note": 89,
      "start": 12.4846,
      "duration": 0.0252,
      "velocity": 124,
      "chip": "ym2612"
    },
    {
      "channel": 0,
      "note": 83,
      "start": 12.5793,
      "duration": 0.0137,
      "velocity": 110,
      "chip": "ym2612"
    },
    {
      "channel": 5,
      "note": 54,
      "start": 12.6963,
      "duration": 0.3636,
      "velocity": 95,
      "chip": "ym2612"
    },
    {
      "channel": 0,
      "note": 88,
      "start": 12.6988,
      "duration": 0.0109,
      "velocity": 110,
      "chip": "ym2612"
    },
    {
      "channel": 4,
      "note": 89,
      "start": 12.7013,
      "duration": 0.0252,
      "velocity": 124,
      "chip": "ym2612"
    },
    {
      "channel": 0,
      "note": 83,
      "start": 12.796,
      "duration": 0.0137,
      "velocity": 110,
      "chip": "ym2612"
    },
    {
      "channel": 0,
      "note": 90,
      "start": 12.896,
      "duration": 0.0303,
      "velocity": 110,
      "chip": "ym2612"
    },
    {
      "channel": 4,
      "note": 101,
      "start": 12.8986,
      "duration": 0.0445,
      "velocity": 124,
      "chip": "ym2612"
    },
    {
      "channel": 0,
      "note": 83,
      "start": 13.0127,
      "duration": 0.0136,
      "velocity": 110,
      "chip": "ym2612"
    },
    {
      "channel": 5,
      "note": 49,
      "start": 13.1129,
      "duration": 0.1803,
      "velocity": 95,
      "chip": "ym2612"
    },
    {
      "channel": 0,
      "note": 88,
      "start": 13.1154,
      "duration": 0.011,
      "velocity": 110,
      "chip": "ym2612"
    },
    {
      "channel": 4,
      "note": 89,
      "start": 13.118,
      "duration": 0.0419,
      "velocity": 124,
      "chip": "ym2612"
    },
    {
      "channel": 0,
      "note": 83,
      "start": 13.2293,
      "duration": 0.0137,
      "velocity": 110,
      "chip": "ym2612"
    },
    {
      "channel": 5,
      "note": 54,
      "start": 13.3298,
      "duration": 0.1634,
      "velocity": 95,
      "chip": "ym2612"
    },
    {
      "channel": 3,
      "note": 69,
      "start": 13.3327,
      "duration": 0.1771,
      "velocity": 110,
      "chip": "ym2612"
    },
    {
      "channel": 0,
      "note": 90,
      "start": 13.3351,
      "duration": 0.0079,
      "velocity": 110,
      "chip": "ym2612"
    },
    {
      "channel": 4,
      "note": 89,
      "start": 13.3376,
      "duration": 0.0221,
      "velocity": 124,
      "chip": "ym2612"
    },
    {
      "channel": 0,
      "note": 81,
      "start": 13.446,
      "duration": 0.0137,
      "velocity": 110,
      "chip": "ym2612"
    },
    {
      "channel": 5,
      "note": 52,
      "start": 13.546,
      "duration": 0.1639,
      "velocity": 95,
      "chip": "ym2612"
    },
    {
      "channel": 0,
      "note": 88,
      "start": 13.5485,
      "duration": 0.0112,
      "velocity": 110,
      "chip": "ym2612"
    },
    {
      "channel": 4,
      "note": 89,
      "start": 13.5514,
      "duration": 0.0251,
      "velocity": 124,
      "chip": "ym2612"
    },
    {
      "channel": 0,
      "note": 83,
      "start": 13.6626,
      "duration": 0.0137,
      "velocity": 110,
      "chip": "ym2612"
    },
    {
      "channel": 5,
      "note": 54,
      "start": 13.7628,
      "duration": 0.1805,
      "velocity": 95,
      "chip": "ym2612"
    },
    {
      "channel": 3,
      "note": 66,
      "start": 13.7663,
      "duration": 1.2434,
      "velocity": 110,
      "chip": "ym2612"
    },
    {
      "channel": 0,
      "note": 90,
      "start": 13.7687,
      "duration": 0.0076,
      "velocity": 110,
      "chip": "ym2612"
    },
    {
      "channel": 4,
      "note": 89,
      "start": 13.774,
      "duration": 0.0192,
      "velocity": 124,
      "chip": "ym2612"
    },
    {
      "channel": 0,
      "note": 83,
      "start": 13.8794,
      "duration": 0.0136,
      "velocity": 110,
      "chip": "ym2612"
    },
    {
      "channel": 5,
      "note": 49,
      "start": 13.9793,
      "duration": 0.1806,
      "velocity": 95,
      "chip": "ym2612"
    },
    {
      "channel": 0,
      "note": 91,
      "start": 13.9822,
      "duration": 0.0108,
      "velocity": 110,
      "chip": "ym2612"
    },
    {
      "channel": 4,
      "note": 89,
      "start": 13.9847,
      "duration": 0.0251,
      "velocity": 124,
      "chip": "ym2612"
    },
    {
      "channel": 0,
      "note": 83,
      "start": 14.0793,
      "duration": 0.0304,
      "velocity": 110,
      "chip": "ym2612"
    },
    {
      "channel": 5,
      "note": 52,
      "start": 14.1959,
      "duration": 0.1807,
      "velocity": 95,
      "chip": "ym2612"
    },
    {
      "channel": 0,
      "note": 90,
      "start": 14.1984,
      "duration": 0.0113,
      "velocity": 110,
      "chip": "ym2612"
    },
    {
      "channel": 4,
      "note": 89,
      "start": 14.2009,
      "duration": 0.0256,
      "velocity": 124,
      "chip": "ym2612"
    },
    {
      "channel": 0,
      "note": 85,
      "start": 14.296,
      "duration": 0.0137,
      "velocity": 110,
      "chip": "ym2612"
    },
    {
      "channel": 5,
      "note": 54,
      "start": 14.4129,
      "duration": 0.3636,
      "velocity": 95,
      "chip": "ym2612"
    },
    {
      "channel": 0,
      "note": 88,
      "start": 14.4154,
      "duration": 0.0109,
      "velocity": 110,
      "chip": "ym2612"
    },
    {
      "channel": 4,
      "note": 89,
      "start": 14.418,
      "duration": 0.0252,
      "velocity": 124,
      "chip": "ym2612"
    },
    {
      "channel": 0,
      "note": 85,
      "start": 14.5126,
      "duration": 0.0137,
      "velocity": 110,
      "chip": "ym2612"
    },
    {
      "channel": 0,
      "note": 90,
      "start": 14.6293,
      "duration": 0.0137,
      "velocity": 110,
      "chip": "ym2612"
    },
    {
      "channel": 4,
      "note": 101,
      "start": 14.6319,
      "duration": 0.0279,
      "velocity": 124,
      "chip": "ym2612"
    },
    {
      "channel": 0,
      "note": 85,
      "start": 14.7293,
      "duration": 0.0138,
      "velocity": 110,
      "chip": "ym2612"
    },
    {
      "channel": 5,
      "note": 49,
      "start": 14.8462,
      "duration": 0.1637,
      "velocity": 95,
      "chip": "ym2612"
    },
    {
      "channel": 0,
      "note": 91,
      "start": 14.8487,
      "duration": 0.011,
      "velocity": 110,
      "chip": "ym2612"
    },
    {
      "channel": 4,
      "note": 89,
      "start": 14.8512,
      "duration": 0.0253,
      "velocity": 124,
      "chip": "ym2612"
    },
    {
      "channel": 0,
      "note": 85,
      "start": 14.946,
      "duration": 0.0137,
      "velocity": 110,
      "chip": "ym2612"
    },
    {
      "channel": 5,
      "note": 52,
      "start": 15.0626,
      "duration": 0.164,
      "velocity": 95,
      "chip": "ym2612"
    },
    {
      "channel": 3,
      "note": 64,
      "start": 15.0654,
      "duration": 0.1609,
      "velocity": 110,
      "chip": "ym2612"
    },
    {
      "channel": 0,
      "note": 90,
      "start": 15.0678,
      "duration": 0.0086,
      "velocity": 110,
      "chip": "ym2612"
    },
    {
      "channel": 4,
      "note": 89,
      "start": 15.0703,
      "duration": 0.0228,
      "velocity": 124,
      "chip": "ym2612"
    },
    {
      "channel": 0,
      "note": 85,
      "start": 15.1626,
      "duration": 0.0137,
      "velocity": 110,
      "chip": "ym2612"
    },
    {
      "channel": 5,
      "note": 54,
      "start": 15.2629,
      "duration": 0.397,
      "velocity": 95,
      "chip": "ym2612"
    },
    {
      "channel": 3,
      "note": 66,
      "start": 15.2661,
      "duration": 1.7104,
      "velocity": 110,
      "chip": "ym2612"
    },
    {
      "channel": 0,
      "note": 88,
      "start": 15.2685,
      "duration": 0.0245,
      "velocity": 110,
      "chip": "ym2612"
    },
    {
      "channel": 4,
      "note": 89,
      "start": 15.2714,
      "duration": 0.0384,
      "velocity": 124,
      "chip": "ym2612"
    },
    {
      "channel": 0,
      "note": 85,
      "start": 15.3793,
      "duration": 0.0137,
      "velocity": 110,
      "chip": "ym2612"
    },
    {
      "channel": 0,
      "note": 90,
      "start": 15.4794,
      "duration": 0.0136,
      "velocity": 110,
      "chip": "ym2612"
    },
    {
      "channel": 4,
      "note": 89,
      "start": 15.4847,
      "duration": 0.0251,
      "velocity": 124,
      "chip": "ym2612"
    },
    {
      "channel": 0,
      "note": 85,
      "start": 15.5959,
      "duration": 0.0138,
      "velocity": 110,
      "chip": "ym2612"
    },
    {
      "channel": 5,
      "note": 49,
      "start": 15.6966,
      "duration": 0.18,
      "velocity": 95,
      "chip": "ym2612"
    },
    {
      "channel": 0,
      "note": 91,
      "start": 15.6994,
      "duration": 0.0103,
      "velocity": 110,
      "chip": "ym2612"
    },
    {
      "channel": 4,
      "note": 89,
      "start": 15.702,
      "duration": 0.0245,
      "velocity": 124,
      "chip": "ym2612"
    },
    {
      "channel": 0,
      "note": 85,
      "start": 15.8126,
      "duration": 0.0138,
      "velocity": 110,
      "chip": "ym2612"
    },
    {
      "channel": 5,
      "note": 52,
      "start": 15.9126,
      "duration": 0.1807,
      "velocity": 95,
      "chip": "ym2612"
    },
    {
      "channel": 0,
      "note": 90,
      "start": 15.9151,
      "duration": 0.0113,
      "velocity": 110,
      "chip": "ym2612"
    },
    {
      "channel": 4,
      "note": 89,
      "start": 15.9176,
      "duration": 0.0256,
      "velocity": 124,
      "chip": "ym2612"
    },
    {
      "channel": 0,
      "note": 85,
      "start": 16.0293,
      "duration": 0.0138,
      "velocity": 110,
      "chip": "ym2612"
    },
    {
      "channel": 5,
      "note": 54,
      "start": 16.1295,
      "duration": 0.397,
      "velocity": 95,
      "chip": "ym2612"
    },
    {
      "channel": 0,
      "note": 88,
      "start": 16.132,
      "duration": 0.011,
      "velocity": 110,
      "chip": "ym2612"
    },
    {
      "channel": 4,
      "note": 89,
      "start": 16.1345,
      "duration": 0.0253,
      "velocity": 124,
      "chip": "ym2612"
    },
    {
      "channel": 0,
      "note": 85,
      "start": 16.2459,
      "duration": 0.0138,
      "velocity": 110,
      "chip": "ym2612"
    },
    {
      "channel": 0,
      "note": 90,
      "start": 16.3459,
      "duration": 0.0137,
      "velocity": 110,
      "chip": "ym2612"
    },
    {
      "channel": 4,
      "note": 101,
      "start": 16.3485,
      "duration": 0.028,
      "velocity": 124,
      "chip": "ym2612"
    },
    {
      "channel": 0,
      "note": 85,
      "start": 16.446,
      "duration": 0.0303,
      "velocity": 110,
      "chip": "ym2612"
    },
    {
      "channel": 5,
      "note": 49,
      "start": 16.5629,
      "duration": 0.1804,
      "velocity": 95,
      "chip": "ym2612"
    },
    {
      "channel": 0,
      "note": 91,
      "start": 16.5654,
      "duration": 0.011,
      "velocity": 110,
      "chip": "ym2612"
    },
    {
      "channel": 4,
      "note": 89,
      "start": 16.5679,
      "duration": 0.0252,
      "velocity": 124,
      "chip": "ym2612"
    },
    {
      "channel": 0,
      "note": 85,
      "start": 16.6626,
      "duration": 0.0138,
      "velocity": 110,
      "chip": "ym2612"
    },
    {
      "channel": 5,
      "note": 52,
      "start": 16.7793,
      "duration": 0.1807,
      "velocity": 95,
      "chip": "ym2612"
    },
    {
      "channel": 0,
      "note": 90,
      "start": 16.7817,
      "duration": 0.0113,
      "velocity": 110,
      "chip": "ym2612"
    },
    {
      "channel": 4,
      "note": 89,
      "start": 16.7843,
      "duration": 0.0256,
      "velocity": 124,
      "chip": "ym2612"
    },
    {
      "channel": 0,
      "note": 85,
      "start": 16.8793,
      "duration": 0.0137,
      "velocity": 110,
      "chip": "ym2612"
    },
    {
      "channel": 5,
      "note": 54,
      "start": 16.9961,
      "duration": 0.1139,
      "velocity": 95,
      "chip": "ym2612"
    },
    {
      "channel": 0,
      "note": 88,
      "start": 16.9986,
      "duration": 0.011,
      "velocity": 110,
      "chip": "ym2612"
    },
    {
      "channel": 4,
      "note": 89,
      "start": 17.0015,
      "duration": 0.025,
      "velocity": 124,
      "chip": "ym2612"
    },
    {
      "channel": 0,
      "note": 85,
      "start": 17.096,
      "duration": 0.0138,
      "velocity": 110,
      "chip": "ym2612"
    },
    {
      "channel": 5,
      "note": 54,
      "start": 17.2128,
      "duration": 0.1637,
      "velocity": 95,
      "chip": "ym2612"
    },
    {
      "channel": 3,
      "note": 66,
      "start": 17.2156,
      "duration": 0.1441,
      "velocity": 110,
      "chip": "ym2612"
    },
    {
      "channel": 0,
      "note": 90,
      "start": 17.218,
      "duration": 0.0083,
      "velocity": 110,
      "chip": "ym2612"
    },
    {
      "channel": 4,
      "note": 89,
      "start": 17.2233,
      "duration": 0.0198,
      "velocity": 124,
      "chip": "ym2612"
    },
    {
      "channel": 0,
      "note": 84,
      "start": 17.3127,
      "duration": 0.0136,
      "velocity": 110,
      "chip": "ym2612"
    },
    {
      "channel": 5,
      "note": 49,
      "start": 17.4293,
      "duration": 0.1639,
      "velocity": 95,
      "chip": "ym2612"
    },
    {
      "channel": 3,
      "note": 73,
      "start": 17.432,
      "duration": 0.0945,
      "velocity": 110,
      "chip": "ym2612"
    },
    {
      "channel": 0,
      "note": 90,
      "start": 17.4348,
      "duration": 0.0082,
      "velocity": 110,
      "chip": "ym2612"
    },
    {
      "channel": 4,
      "note": 89,
      "start": 17.4373,
      "duration": 0.0225,
      "velocity": 124,
      "chip": "ym2612"
    },
    {
      "channel": 0,
      "note": 84,
      "start": 17.5294,
      "duration": 0.0136,
      "velocity": 110,
      "chip": "ym2612"
    },
    {
      "channel": 5,
      "note": 52,
      "start": 17.6297,
      "duration": 0.1802,
      "velocity": 95,
      "chip": "ym2612"
    },
    {
      "channel": 3,
      "note": 73,
      "start": 17.6327,
      "duration": 0.177,
      "velocity": 110,
      "chip": "ym2612"
    },
    {
      "channel": 0,
      "note": 90,
      "start": 17.6352,
      "duration": 0.0079,
      "velocity": 110,
      "chip": "ym2612"
    },
    {
      "channel": 4,
      "note": 89,
      "start": 17.6376,
      "duration": 0.0389,
      "velocity": 124,
      "chip": "ym2612"
    },
    {
      "channel": 0,
      "note": 84,
      "start": 17.746,
      "duration": 0.0137,
      "velocity": 110,
      "chip": "ym2612"
    },
    {
      "channel": 5,
      "note": 54,
      "start": 17.8463,
      "duration": 0.3969,
      "velocity": 95,
      "chip": "ym2612"
    },
    {
      "channel": 3,
      "note": 66,
      "start": 17.8488,
      "duration": 0.1775,
      "velocity": 110,
      "chip": "ym2612"
    },
    {
      "channel": 0,
      "note": 90,
      "start": 17.8512,
      "duration": 0.0085,
      "velocity": 110,
      "chip": "ym2612"
    },
    {
      "channel": 4,
      "note": 89,
      "start": 17.8537,
      "duration": 0.0227,
      "velocity": 124,
      "chip": "ym2612"
    },
    {
      "channel": 0,
      "note": 84,
      "start": 17.9626,
      "duration": 0.0137,
      "velocity": 110,
      "chip": "ym2612"
    },
    {
      "channel": 3,
      "note": 70,
      "start": 18.0628,
      "duration": 0.1637,
      "velocity": 110,
      "chip": "ym2612"
    },
    {
      "channel": 0,
      "note": 90,
      "start": 18.0652,
      "duration": 0.0111,
      "velocity": 110,
      "chip": "ym2612"
    },
    {
      "channel": 4,
      "note": 101,
      "start": 18.0677,
      "duration": 0.0254,
      "velocity": 124,
      "chip": "ym2612"
    },
    {
      "channel": 0,
      "note": 84,
      "start": 18.1794,
      "duration": 0.0136,
      "velocity": 110,
      "chip": "ym2612"
    },
    {
      "channel": 5,
      "note": 49,
      "start": 18.2796,
      "duration": 0.1805,
      "velocity": 95,
      "chip": "ym2612"
    },
    {
      "channel": 3,
      "note": 72,
      "start": 18.2822,
      "duration": 0.1776,
      "velocity": 110,
      "chip": "ym2612"
    },
    {
      "channel": 0,
      "note": 90,
      "start": 18.2846,
      "duration": 0.0083,
      "velocity": 110,
      "chip": "ym2612"
    },
    {
      "channel": 4,
      "note": 89,
      "start": 18.2872,
      "duration": 0.0227,
      "velocity": 124,
      "chip": "ym2612"
    },
    {
      "channel": 0,
      "note": 84,
      "start": 18.3959,
      "duration": 0.0138,
      "velocity": 110,
      "chip": "ym2612"
    },
    {
      "channel": 5,
      "note": 52,
      "start": 18.496,
      "duration": 0.1806,
      "velocity": 95,
      "chip": "ym2612"
    },
    {
      "channel": 3,
      "note": 70,
      "start": 18.4986,
      "duration": 0.1611,
      "velocity": 110,
      "chip": "ym2612"
    },
    {
      "channel": 0,
      "note": 90,
      "start": 18.5011,
      "duration": 0.0086,
      "velocity": 110,
      "chip": "ym2612"
    },
    {
      "channel": 4,
      "note": 89,
      "start": 18.5036,
      "duration": 0.0228,
      "velocity": 124,
      "chip": "ym2612"
    },
    {
      "channel": 0,
      "note": 84,
      "start": 18.6126,
      "duration": 0.0137,
      "velocity": 110,
      "chip": "ym2612"
    },
    {
      "channel": 5,
      "note": 54,
      "start": 18.7129,
      "duration": 0.397,
      "velocity": 95,
      "chip": "ym2612"
    },
    {
      "channel": 3,
      "note": 73,
      "start": 18.7161,
      "duration": 1.577,
      "velocity": 110,
      "chip": "ym2612"
    },
    {
      "channel": 0,
      "note": 90,
      "start": 18.7185,
      "duration": 0.0079,
      "velocity": 110,
      "chip": "ym2612"
    },
    {
      "channel": 4,
      "note": 89,
      "start": 18.7214,
      "duration": 0.0217,
      "velocity": 124,
      "chip": "ym2612"
    },
    {
      "channel": 0,
      "note": 84,
      "start": 18.8126,
      "duration": 0.0138,
      "velocity": 110,
      "chip": "ym2612"
    },
    {
      "channel": 0,
      "note": 90,
      "start": 18.9294,
      "duration": 0.0136,
      "velocity": 110,
      "chip": "ym2612"
    },
    {
      "channel": 4,
      "note": 89,
      "start": 18.9346,
      "duration": 0.0252,
      "velocity": 124,
      "chip": "ym2612"
    },
    {
      "channel": 0,
      "note": 84,
      "start": 19.0293,
      "duration": 0.0138,
      "velocity": 110,
      "chip": "ym2612"
    },
    {
      "channel": 5,
      "note": 49,
      "start": 19.1463,
      "duration": 0.147,
      "velocity": 95,
      "chip": "ym2612"
    },
    {
      "channel": 0,
      "note": 90,
      "start": 19.1492,
      "duration": 0.0105,
      "velocity": 110,
      "chip": "ym2612"
    },
    {
      "channel": 4,
      "note": 89,
      "start": 19.1516,
      "duration": 0.0248,
      "velocity": 124,
      "chip": "ym2612"
    },
    {
      "channel": 0,
      "note": 84,
      "start": 19.246,
      "duration": 0.0136,
      "velocity": 110,
      "chip": "ym2612"
    },
    {
      "channel": 5,
      "note": 52,
      "start": 19.3628,
      "duration": 0.1637,
      "velocity": 95,
      "chip": "ym2612"
    },
    {
      "channel": 0,
      "note": 90,
      "start": 19.3653,
      "duration": 0.011,
      "velocity": 110,
      "chip": "ym2612"
    },
    {
      "channel": 4,
      "note": 89,
      "start": 19.3678,
      "duration": 0.0253,
      "velocity": 124,
      "chip": "ym2612"
    },
    {
      "channel": 0,
      "note": 84,
      "start": 19.4626,
      "duration": 0.0137,
      "velocity": 110,
      "chip": "ym2612"
    },
    {
      "channel": 5,
      "note": 54,
      "start": 19.58,
      "duration": 0.3798,
      "velocity": 95,
      "chip": "ym2612"
    },
    {
      "channel": 0,
      "note": 90,
      "start": 19.5825,
      "duration": 0.0105,
      "velocity": 110,
      "chip": "ym2612"
    },
    {
      "channel": 4,
      "note": 89,
      "start": 19.585,
      "duration": 0.0247,
      "velocity": 124,
      "chip": "ym2612"
    },
    {
      "channel": 0,
      "note": 84,
      "start": 19.6793,
      "duration": 0.0138,
      "velocity": 110,
      "chip": "ym2612"
    },
    {
      "channel": 0,
      "note": 90,
      "start": 19.7793,
      "duration": 0.0304,
      "velocity": 110,
      "chip": "ym2612"
    },
    {
      "channel": 4,
      "note": 101,
      "start": 19.7819,
      "duration": 0.0446,
      "velocity": 124,
      "chip": "ym2612"
    },
    {
      "channel": 0,
      "note": 84,
      "start": 19.896,
      "duration": 0.0138,
      "velocity": 110,
      "chip": "ym2612"
    },
    {
      "channel": 5,
      "note": 49,
      "start": 19.9962,
      "duration": 0.1803,
      "velocity": 95,
      "chip": "ym2612"
    },
    {
      "channel": 0,
      "note": 90,
      "start": 19.9987,
      "duration": 0.011,
      "velocity": 110,
      "chip": "ym2612"
    },
    {
      "channel": 4,
      "note": 89,
      "start": 20.0012,
      "duration": 0.042,
      "velocity": 124,
      "chip": "ym2612"
    },
    {
      "channel": 0,
      "note": 84,
      "start": 20.1127,
      "duration": 0.0136,
      "velocity": 110,
      "chip": "ym2612"
    },
    {
      "channel": 5,
      "note": 52,
      "start": 20.2126,
      "duration": 0.1806,
      "velocity": 95,
      "chip": "ym2612"
    },
    {
      "channel": 0,
      "note": 90,
      "start": 20.2152,
      "duration": 0.0112,
      "velocity": 110,
      "chip": "ym2612"
    },
    {
      "channel": 4,
      "note": 89,
      "start": 20.2177,
      "duration": 0.0255,
      "velocity": 124,
      "chip": "ym2612"
    },
    {
      "channel": 0,
      "note": 84,
      "start": 20.3293,
      "duration": 0.0137,
      "velocity": 110,
      "chip": "ym2612"
    },
    {
      "channel": 5,
      "note": 54,
      "start": 20.4294,
      "duration": 0.1138,
      "velocity": 95,
      "chip": "ym2612"
    },
    {
      "channel": 0,
      "note": 90,
      "start": 20.432,
      "duration": 0.011,
      "velocity": 110,
      "chip": "ym2612"
    },
    {
      "channel": 4,
      "note": 89,
      "start": 20.4348,
      "duration": 0.025,
      "velocity": 124,
      "chip": "ym2612"
    },
    {
      "channel": 0,
      "note": 84,
      "start": 20.5461,
      "duration": 0.0136,
      "velocity": 110,
      "chip": "ym2612"
    },
    {
      "channel": 5,
      "note": 54,
      "start": 20.646,
      "duration": 0.1805,
      "velocity": 95,
      "chip": "ym2612"
    },
    {
      "channel": 3,
      "note": 72,
      "start": 20.6489,
      "duration": 0.1108,
      "velocity": 110,
      "chip": "ym2612"
    },
    {
      "channel": 0,
      "note": 90,
      "start": 20.6513,
      "duration": 0.0083,
      "velocity": 110,
      "chip": "ym2612"
    },
    {
      "channel": 4,
      "note": 89,
      "start": 20.6567,
      "duration": 0.0199,
      "velocity": 124,
      "chip": "ym2612"
    },
    {
      "channel": 0,
      "note": 84,
      "start": 20.7627,
      "duration": 0.0136,
      "velocity": 110,
      "chip": "ym2612"
    },
    {
      "channel": 5,
      "note": 47,
      "start": 20.8626,
      "duration": 0.1806,
      "velocity": 95,
      "chip": "ym2612"
    },
    {
      "channel": 3,
      "note": 66,
      "start": 20.8656,
      "duration": 0.1608,
      "velocity": 110,
      "chip": "ym2612"
    },
    {
      "channel": 0,
      "note": 90,
      "start": 20.8684,
      "duration": 0.0079,
      "velocity": 110,
      "chip": "ym2612"
    },
    {
      "channel": 4,
      "note": 89,
      "start": 20.8709,
      "duration": 0.0223,
      "velocity": 124,
      "chip": "ym2612"
    },
    {
      "channel": 0,
      "note": 84,
      "start": 20.9626,
      "duration": 0.0304,
      "velocity": 110,
      "chip": "ym2612"
    },
    {
      "channel": 5,
      "note": 49,
      "start": 21.0793,
      "duration": 0.1806,
      "velocity": 95,
      "chip": "ym2612"
    },
    {
      "channel": 3,
      "note": 70,
      "start": 21.0818,
      "duration": 0.1613,
      "velocity": 110,
      "chip": "ym2612"
    },
    {
      "channel": 0,
      "note": 90,
      "start": 21.0842,
      "duration": 0.0088,
      "velocity": 110,
      "chip": "ym2612"
    },
    {
      "channel": 4,
      "note": 89,
      "start": 21.0868,
      "duration": 0.0231,
      "velocity": 124,
      "chip": "ym2612"
    },
    {
      "channel": 0,
      "note": 84,
      "start": 21.1793,
      "duration": 0.0137,
      "velocity": 110,
      "chip": "ym2612"
    },
    {
      "channel": 5,
      "note": 47,
      "start": 21.2959,
      "duration": 0.1806,
      "velocity": 95,
      "chip": "ym2612"
    },
    {
      "channel": 3,
      "note": 72,
      "start": 21.2985,
      "duration": 0.1613,
      "velocity": 110,
      "chip": "ym2612"
    },
    {
      "channel": 0,
      "note": 90,
      "start": 21.3009,
      "duration": 0.0088,
      "velocity": 110,
      "chip": "ym2612"
    },
    {
      "channel": 4,
      "note": 89,
      "start": 21.3034,
      "duration": 0.0231,
      "velocity": 124,
      "chip": "ym2612"
    },
    {
      "channel": 0,
      "note": 84,
      "start": 21.396,
      "duration": 0.0137,
      "velocity": 110,
      "chip": "ym2612"
    },
    {
      "channel": 5,
      "note": 49,
      "start": 21.5132,
      "duration": 0.28,
      "velocity": 95,
      "chip": "ym2612"
    },
    {
      "channel": 3,
      "note": 70,
      "start": 21.5158,
      "duration": 0.144,
      "velocity": 110,
      "chip": "ym2612"
    },
    {
      "channel": 0,
      "note": 90,
      "start": 21.5182,
      "duration": 0.0082,
      "velocity": 110,
      "chip": "ym2612"
    },
    {
      "channel": 4,
      "note": 101,
      "start": 21.5207,
      "duration": 0.0224,
      "velocity": 124,
      "chip": "ym2612"
    },
    {
      "channel": 0,
      "note": 84,
      "start": 21.6126,
      "duration": 0.0138,
      "velocity": 110,
      "chip": "ym2612"
    },
    {
      "channel": 3,
      "note": 66,
      "start": 21.7296,
      "duration": 0.1635,
      "velocity": 110,
      "chip": "ym2612"
    },
    {
      "channel": 0,
      "note": 90,
      "start": 21.732,
      "duration": 0.011,
      "velocity": 110,
      "chip": "ym2612"
    },
    {
      "channel": 4,
      "note": 89,
      "start": 21.7345,
      "duration": 0.0253,
      "velocity": 124,
      "chip": "ym2612"
    },
    {
      "channel": 0,
      "note": 84,
      "start": 21.8294,
      "duration": 0.0136,
      "velocity": 110,
      "chip": "ym2612"
    },
    {
      "channel": 5,
      "note": 49,
      "start": 21.9461,
      "duration": 0.3804,
      "velocity": 95,
      "chip": "ym2612"
    },
    {
      "channel": 3,
      "note": 72,
      "start": 21.9488,
      "duration": 0.1443,
      "velocity": 110,
      "chip": "ym2612"
    },
    {
      "channel": 0,
      "note": 90,
      "start": 21.9512,
      "duration": 0.0085,
      "velocity": 110,
      "chip": "ym2612"
    },
    {
      "channel": 4,
      "note": 89,
      "start": 21.9537,
      "duration": 0.0227,
      "velocity": 124,
      "chip": "ym2612"
    },
    {
      "channel": 0,
      "note": 84,
      "start": 22.046,
      "duration": 0.0136,
      "velocity": 110,
      "chip": "ym2612"
    },
    {
      "channel": 3,
      "note": 73,
      "start": 22.1466,
      "duration": 1.2464,
      "velocity": 110,
      "chip": "ym2612"
    },
    {
      "channel": 0,
      "note": 90,
      "start": 22.149,
      "duration": 0.0273,
      "velocity": 110,
      "chip": "ym2612"
    },
    {
      "channel": 4,
      "note": 89,
      "start": 22.152,
      "duration": 0.0412,
      "velocity": 124,
      "chip": "ym2612"
    },
    {
      "channel": 0,
      "note": 84,
      "start": 22.2626,
      "duration": 0.0137,
      "velocity": 110,
      "chip": "ym2612"
    },
    {
      "channel": 5,
      "note": 54,
      "start": 22.3629,
      "duration": 0.1803,
      "velocity": 95,
      "chip": "ym2612"
    },
    {
      "channel": 0,
      "note": 90,
      "start": 22.3654,
      "duration": 0.011,
      "velocity": 110,
      "chip": "ym2612"
    },
    {
      "channel": 4,
      "note": 89,
      "start": 22.3707,
      "duration": 0.0391,
      "velocity": 124,
      "chip": "ym2612"
    },
    {
      "channel": 0,
      "note": 84,
      "start": 22.4793,
      "duration": 0.0137,
      "velocity": 110,
      "chip": "ym2612"
    },
    {
      "channel": 5,
      "note": 47,
      "start": 22.5793,
      "duration": 0.1807,
      "velocity": 95,
      "chip": "ym2612"
    },
    {
      "channel": 0,
      "note": 90,
      "start": 22.5821,
      "duration": 0.011,
      "velocity": 110,
      "chip": "ym2612"
    },
    {
      "channel": 4,
      "note": 89,
      "start": 22.5846,
      "duration": 0.0252,
      "velocity": 124,
      "chip": "ym2612"
    },
    {
      "channel": 0,
      "note": 84,
      "start": 22.696,
      "duration": 0.0136,
      "velocity": 110,
      "chip": "ym2612"
    },
    {
      "channel": 5,
      "note": 49,
      "start": 22.7959,
      "duration": 0.1807,
      "velocity": 95,
      "chip": "ym2612"
    },
    {
      "channel": 0,
      "note": 90,
      "start": 22.7984,
      "duration": 0.0113,
      "velocity": 110,
      "chip": "ym2612"
    },
    {
      "channel": 4,
      "note": 89,
      "start": 22.8009,
      "duration": 0.0256,
      "velocity": 124,
      "chip": "ym2612"
    },
    {
      "channel": 0,
      "note": 84,
      "start": 22.9126,
      "duration": 0.0138,
      "velocity": 110,
      "chip": "ym2612"
    },
    {
      "channel": 5,
      "note": 47,
      "start": 23.0126,
      "duration": 0.1805,
      "velocity": 95,
      "chip": "ym2612"
    },
    {
      "channel": 0,
      "note": 90,
      "start": 23.0152,
      "duration": 0.0112,
      "velocity": 110,
      "chip": "ym2612"
    },
    {
      "channel": 4,
      "note": 89,
      "start": 23.0177,
      "duration": 0.0255,
      "velocity": 124,
      "chip": "ym2612"
    },
    {
      "channel": 0,
      "note": 84,
      "start": 23.1294,
      "duration": 0.0136,
      "velocity": 110,
      "chip": "ym2612"
    },
    {
      "channel": 5,
      "note": 49,
      "start": 23.2296,
      "duration": 0.2471,
      "velocity": 95,
      "chip": "ym2612"
    },
    {
      "channel": 0,
      "note": 90,
      "start": 23.2321,
      "duration": 0.0109,
      "velocity": 110,
      "chip": "ym2612"
    },
    {
      "channel": 4,
      "note": 101,
      "start": 23.2346,
      "duration": 0.0252,
      "velocity": 124,
      "chip": "ym2612"
    },
    {
      "channel": 0,
      "note": 84,
      "start": 23.3293,
      "duration": 0.0305,
      "velocity": 110,
      "chip": "ym2612"
    },
    {
      "channel": 0,
      "note": 90,
      "start": 23.4459,
      "duration": 0.0137,
      "velocity": 110,
      "chip": "ym2612"
    },
    {
      "channel": 4,
      "note": 89,
      "start": 23.4485,
      "duration": 0.028,
      "velocity": 124,
      "chip": "ym2612"
    },
    {
      "channel": 5,
      "note": 49,
      "start": 23.5463,
      "duration": 0.4636,
      "velocity": 95,
      "chip": "ym2612"
    },
    {
      "channel": 0,
      "note": 84,
      "start": 23.5488,
      "duration": 0.0108,
      "velocity": 110,
      "chip": "ym2612"
    },
    {
      "channel": 0,
      "note": 90,
      "start": 23.6626,
      "duration": 0.0137,
      "velocity": 110,
      "chip": "ym2612"
    },
    {
      "channel": 4,
      "note": 89,
      "start": 23.6651,
      "duration": 0.028,
      "velocity": 124,
      "chip": "ym2612"
    },
    {
      "channel": 0,
      "note": 84,
      "start": 23.7626,
      "duration": 0.0138,
      "velocity": 110,
      "chip": "ym2612"
    },
    {
      "channel": 0,
      "note": 90,
      "start": 23.8793,
      "duration": 0.0137,
      "velocity": 110,
      "chip": "ym2612"
    },
    {
      "channel": 4,
      "note": 89,
      "start": 23.8822,
      "duration": 0.0276,
      "velocity": 124,
      "chip": "ym2612"
    },
    {
      "channel": 0,
      "note": 84,
      "start": 23.9793,
      "duration": 0.0138,
      "velocity": 110,
      "chip": "ym2612"
    },
    {
      "channel": 5,
      "note": 54,
      "start": 24.0966,
      "duration": 0.1633,
      "velocity": 95,
      "chip": "ym2612"
    },
    {
      "channel": 3,
      "note": 72,
      "start": 24.0998,
      "duration": 0.0932,
      "velocity": 110,
      "chip": "ym2612"
    },
    {
      "channel": 0,
      "note": 90,
      "start": 24.1022,
      "duration": 0.0075,
      "velocity": 110,
      "chip": "ym2612"
    },
    {
      "channel": 4,
      "note": 89,
      "start": 24.1076,
      "duration": 0.0189,
      "velocity": 124,
      "chip": "ym2612"
    },
    {
      "channel": 0,
      "note": 84,
      "start": 24.196,
      "duration": 0.0136,
      "velocity": 110,
      "chip": "ym2612"
    },
    {
      "channel": 5,
      "note": 49,
      "start": 24.3126,
      "duration": 0.164,
      "velocity": 95,
      "chip": "ym2612"
    },
    {
      "channel": 3,
      "note": 66,
      "start": 24.3153,
      "duration": 0.1611,
      "velocity": 110,
      "chip": "ym2612"
    },
    {
      "channel": 0,
      "note": 90,
      "start": 24.3181,
      "duration": 0.0083,
      "velocity": 110,
      "chip": "ym2612"
    },
    {
      "channel": 4,
      "note": 89,
      "start": 24.3206,
      "duration": 0.0226,
      "velocity": 124,
      "chip": "ym2612"
    },
    {
      "channel": 0,
      "note": 84,
      "start": 24.4126,
      "duration": 0.0137,
      "velocity": 110,
      "chip": "ym2612"
    },
    {
      "channel": 5,
      "note": 52,
      "start": 24.5126,
      "duration": 0.1806,
      "velocity": 95,
      "chip": "ym2612"
    },
    {
      "channel": 3,
      "note": 70,
      "start": 24.5154,
      "duration": 0.161,
      "velocity": 110,
      "chip": "ym2612"
    },
    {
      "channel": 0,
      "note": 90,
      "start": 24.5177,
      "duration": 0.0253,
      "velocity": 110,
      "chip": "ym2612"
    },
    {
      "channel": 4,
      "note": 89,
      "start": 24.5203,
      "duration": 0.0396,
      "velocity": 124,
      "chip": "ym2612"
    },
    {
      "channel": 0,
      "note": 84,
      "start": 24.6293,
      "duration": 0.0137,
      "velocity": 110,
      "chip": "ym2612"
    },
    {
      "channel": 5,
      "note": 54,
      "start": 24.7296,
      "duration": 0.397,
      "velocity": 95,
      "chip": "ym2612"
    },
    {
      "channel": 3,
      "note": 72,
      "start": 24.7323,
      "duration": 0.1774,
      "velocity": 110,
      "chip": "ym2612"
    },
    {
      "channel": 0,
      "note": 90,
      "start": 24.7347,
      "duration": 0.0083,
      "velocity": 110,
      "chip": "ym2612"
    },
    {
      "channel": 4,
      "note": 89,
      "start": 24.7373,
      "duration": 0.0393,
      "velocity": 124,
      "chip": "ym2612"
    },
    {
      "channel": 0,
      "note": 84,
      "start": 24.846,
      "duration": 0.0137,
      "velocity": 110,
      "chip": "ym2612"
    },
    {
      "channel": 3,
      "note": 70,
      "start": 24.946,
      "duration": 0.1805,
      "velocity": 110,
      "chip": "ym2612"
    },
    {
      "channel": 0,
      "note": 90,
      "start": 24.9484,
      "duration": 0.0113,
      "velocity": 110,
      "chip": "ym2612"
    },
    {
      "channel": 4,
      "note": 101,
      "start": 24.9509,
      "duration": 0.0256,
      "velocity": 124,
      "chip": "ym2612"
    },
    {
      "channel": 0,
      "note": 84,
      "start": 25.0627,
      "duration": 0.0136,
      "velocity": 110,
      "chip": "ym2612"
    },
    {
      "channel": 5,
      "note": 49,
      "start": 25.1629,
      "duration": 0.1805,
      "velocity": 95,
      "chip": "ym2612"
    },
    {
      "channel": 3,
      "note": 66,
      "start": 25.1654,
      "duration": 0.1777,
      "velocity": 110,
      "chip": "ym2612"
    },
    {
      "channel": 0,
      "note": 90,
      "start": 25.1678,
      "duration": 0.0085,
      "velocity": 110,
      "chip": "ym2612"
    },
    {
      "channel": 4,
      "note": 89,
      "start": 25.1704,
      "duration": 0.0228,
      "velocity": 124,
      "chip": "ym2612"
    },
    {
      "channel": 0,
      "note": 84,
      "start": 25.2793,
      "duration": 0.0138,
      "velocity": 110,
      "chip": "ym2612"
    },
    {
      "channel": 5,
      "note": 52,
      "start": 25.3794,
      "duration": 0.1639,
      "velocity": 95,
      "chip": "ym2612"
    },
    {
      "channel": 3,
      "note": 70,
      "start": 25.382,
      "duration": 0.1778,
      "velocity": 110,
      "chip": "ym2612"
    },
    {
      "channel": 0,
      "note": 90,
      "start": 25.3844,
      "duration": 0.0086,
      "velocity": 110,
      "chip": "ym2612"
    },
    {
      "channel": 4,
      "note": 89,
      "start": 25.3869,
      "duration": 0.0228,
      "velocity": 124,
      "chip": "ym2612"
    },
    {
      "channel": 0,
      "note": 84,
      "start": 25.496,
      "duration": 0.0137,
      "velocity": 110,
      "chip": "ym2612"
    },
    {
      "channel": 5,
      "note": 54,
      "start": 25.5961,
      "duration": 0.1803,
      "velocity": 95,
      "chip": "ym2612"
    },
    {
      "channel": 3,
      "note": 72,
      "start": 25.5988,
      "duration": 0.161,
      "velocity": 110,
      "chip": "ym2612"
    },
    {
      "channel": 0,
      "note": 90,
      "start": 25.6012,
      "duration": 0.0085,
      "velocity": 110,
      "chip": "ym2612"
    },
    {
      "channel": 4,
      "note": 89,
      "start": 25.6041,
      "duration": 0.0224,
      "velocity": 124,
      "chip": "ym2612"
    },
    {
      "channel": 0,
      "note": 84,
      "start": 25.696,
      "duration": 0.0304,
      "velocity": 110,
      "chip": "ym2612"
    },
    {
      "channel": 5,
      "note": 47,
      "start": 25.8126,
      "duration": 0.1807,
      "velocity": 95,
      "chip": "ym2612"
    },
    {
      "channel": 3,
      "note": 73,
      "start": 25.8161,
      "duration": 1.5437,
      "velocity": 110,
      "chip": "ym2612"
    },
    {
      "channel": 0,
      "note": 90,
      "start": 25.8185,
      "duration": 0.0078,
      "velocity": 110,
      "chip": "ym2612"
    },
    {
      "channel": 4,
      "note": 89,
      "start": 25.8238,
      "duration": 0.0193,
      "velocity": 124,
      "chip": "ym2612"
    },
    {
      "channel": 0,
      "note": 84,
      "start": 25.9126,
      "duration": 0.0137,
      "velocity": 110,
      "chip": "ym2612"
    },
    {
      "channel": 5,
      "note": 49,
      "start": 26.0293,
      "duration": 0.1806,
      "velocity": 95,
      "chip": "ym2612"
    },
    {
      "channel": 0,
      "note": 90,
      "start": 26.0322,
      "duration": 0.0108,
      "velocity": 110,
      "chip": "ym2612"
    },
    {
      "channel": 4,
      "note": 89,
      "start": 26.0347,
      "duration": 0.0251,
      "velocity": 124,
      "chip": "ym2612"
    },
    {
      "channel": 0,
      "note": 84,
      "start": 26.1293,
      "duration": 0.0138,
      "velocity": 110,
      "chip": "ym2612"
    },
    {
      "channel": 5,
      "note": 54,
      "start": 26.2462,
      "duration": 0.1637,
      "velocity": 95,
      "chip": "ym2612"
    },
    {
      "channel": 0,
      "note": 90,
      "start": 26.2488,
      "duration": 0.0109,
      "velocity": 110,
      "chip": "ym2612"
    },
    {
      "channel": 4,
      "note": 89,
      "start": 26.2512,
      "duration": 0.0252,
      "velocity": 124,
      "chip": "ym2612"
    },
    {
      "channel": 0,
      "note": 85,
      "start": 26.3459,
      "duration": 0.0138,
      "velocity": 110,
      "chip": "ym2612"
    },
    {
      "channel": 5,
      "note": 52,
      "start": 26.4629,
      "duration": 0.3803,
      "velocity": 95,
      "chip": "ym2612"
    },
    {
      "channel": 0,
      "note": 90,
      "start": 26.4654,
      "duration": 0.011,
      "velocity": 110,
      "chip": "ym2612"
    },
    {
      "channel": 4,
      "note": 89,
      "start": 26.4679,
      "duration": 0.0252,
      "velocity": 124,
      "chip": "ym2612"
    },
    {
      "channel": 0,
      "note": 84,
      "start": 26.5627,
      "duration": 0.0136,
      "velocity": 110,
      "chip": "ym2612"
    },
    {
      "channel": 0,
      "note": 90,
      "start": 26.6794,
      "duration": 0.0136,
      "velocity": 110,
      "chip": "ym2612"
    },
    {
      "channel": 4,
      "note": 101,
      "start": 26.6819,
      "duration": 0.0279,
      "velocity": 124,
      "chip": "ym2612"
    },
    {
      "channel": 0,
      "note": 85,
      "start": 26.7793,
      "duration": 0.0137,
      "velocity": 110,
      "chip": "ym2612"
    },
    {
      "channel": 5,
      "note": 54,
      "start": 26.8796,
      "duration": 0.1803,
      "velocity": 95,
      "chip": "ym2612"
    },
    {
      "channel": 0,
      "note": 90,
      "start": 26.8821,
      "duration": 0.0276,
      "velocity": 110,
      "chip": "ym2612"
    },
    {
      "channel": 4,
      "note": 89,
      "start": 26.8846,
      "duration": 0.0419,
      "velocity": 124,
      "chip": "ym2612"
    },
    {
      "channel": 0,
      "note": 84,
      "start": 26.9959,
      "duration": 0.0138,
      "velocity": 110,
      "chip": "ym2612"
    },
    {
      "channel": 5,
      "note": 52,
      "start": 27.0963,
      "duration": 0.3471,
      "velocity": 95,
      "chip": "ym2612"
    },
    {
      "channel": 0,
      "note": 90,
      "start": 27.0988,
      "duration": 0.0109,
      "velocity": 110,
      "chip": "ym2612"
    },
    {
      "channel": 4,
      "note": 89,
      "start": 27.1013,
      "duration": 0.0419,
      "velocity": 124,
      "chip": "ym2612"
    },
    {
      "channel": 0,
      "note": 85,
      "start": 27.2127,
      "duration": 0.0136,
      "velocity": 110,
      "chip": "ym2612"
    },
    {
      "channel": 0,
      "note": 90,
      "start": 27.3126,
      "duration": 0.0137,
      "velocity": 110,
      "chip": "ym2612"
    },
    {
      "channel": 4,
      "note": 89,
      "start": 27.3156,
      "duration": 0.0277,
      "velocity": 124,
      "chip": "ym2612"
    },
    {
      "channel": 0,
      "note": 85,
      "start": 27.4293,
      "duration": 0.0138,
      "velocity": 110,
      "chip": "ym2612"
    },
    {
      "channel": 5,
      "note": 54,
      "start": 27.5296,
      "duration": 0.1804,
      "velocity": 95,
      "chip": "ym2612"
    },
    {
      "channel": 3,
      "note": 74,
      "start": 27.5325,
      "duration": 0.0607,
      "velocity": 110,
      "chip": "ym2612"
    },
    {
      "channel": 0,
      "note": 90,
      "start": 27.5349,
      "duration": 0.0081,
      "velocity": 110,
      "chip": "ym2612"
    },
    {
      "channel": 4,
      "note": 89,
      "start": 27.5402,
      "duration": 0.0196,
      "velocity": 124,
      "chip": "ym2612"
    },
    {
      "channel": 3,
      "note": 73,
      "start": 27.646,
      "duration": 0.0637,
      "velocity": 110,
      "chip": "ym2612"
    },
    {
      "channel": 0,
      "note": 85,
      "start": 27.6484,
      "duration": 0.0113,
      "velocity": 110,
      "chip": "ym2612"
    },
    {
      "channel": 5,
      "note": 49,
      "start": 27.7459,
      "duration": 0.1807,
      "velocity": 95,
      "chip": "ym2612"
    },
    {
      "channel": 3,
      "note": 72,
      "start": 27.7488,
      "duration": 0.1109,
      "velocity": 110,
      "chip": "ym2612"
    },
    {
      "channel": 0,
      "note": 91,
      "start": 27.7516,
      "duration": 0.008,
      "velocity": 110,
      "chip": "ym2612"
    },
    {
      "channel": 4,
      "note": 89,
      "start": 27.7541,
      "duration": 0.0224,
      "velocity": 124,
      "chip": "ym2612"
    },
    {
      "channel": 0,
      "note": 85,
      "start": 27.8626,
      "duration": 0.0138,
      "velocity": 110,
      "chip": "ym2612"
    },
    {
      "channel": 5,
      "note": 52,
      "start": 27.9626,
      "duration": 0.1806,
      "velocity": 95,
      "chip": "ym2612"
    },
    {
      "channel": 3,
      "note": 76,
      "start": 27.9655,
      "duration": 0.0609,
      "velocity": 110,
      "chip": "ym2612"
    },
    {
      "channel": 0,
      "note": 90,
      "start": 27.9679,
      "duration": 0.0085,
      "velocity": 110,
      "chip": "ym2612"
    },
    {
      "channel": 4,
      "note": 89,
      "start": 27.9704,
      "duration": 0.0227,
      "velocity": 124,
      "chip": "ym2612"
    },
    {
      "channel": 3,
      "note": 75,
      "start": 28.0627,
      "duration": 0.0803,
      "velocity": 110,
      "chip": "ym2612"
    },
    {
      "channel": 0,
      "note": 85,
      "start": 28.0651,
      "duration": 0.0279,
      "velocity": 110,
      "chip": "ym2612"
    },
    {
      "channel": 5,
      "note": 54,
      "start": 28.1799,
      "duration": 0.3966,
      "velocity": 95,
      "chip": "ym2612"
    },
    {
      "channel": 3,
      "note": 74,
      "start": 28.1828,
      "duration": 0.0937,
      "velocity": 110,
      "chip": "ym2612"
    },
    {
      "channel": 0,
      "note": 90,
      "start": 28.1852,
      "duration": 0.0078,
      "velocity": 110,
      "chip": "ym2612"
    },
    {
      "channel": 4,
      "note": 89,
      "start": 28.1878,
      "duration": 0.022,
      "velocity": 124,
      "chip": "ym2612"
    },
    {
      "channel": 0,
      "note": 85,
      "start": 28.2794,
      "duration": 0.0136,
      "velocity": 110,
      "chip": "ym2612"
    },
    {
      "channel": 3,
      "note": 78,
      "start": 28.3967,
      "duration": 0.0632,
      "velocity": 110,
      "chip": "ym2612"
    },
    {
      "channel": 0,
      "note": 88,
      "start": 28.3991,
      "duration": 0.0106,
      "velocity": 110,
      "chip": "ym2612"
    },
    {
      "channel": 4,
      "note": 101,
      "start": 28.4016,
      "duration": 0.0249,
      "velocity": 124,
      "chip": "ym2612"
    },
    {
      "channel": 3,
      "note": 77,
      "start": 28.4961,
      "duration": 0.0969,
      "velocity": 110,
      "chip": "ym2612"
    },
    {
      "channel": 0,
      "note": 85,
      "start": 28.4985,
      "duration": 0.0111,
      "velocity": 110,
      "chip": "ym2612"
    },
    {
      "channel": 5,
      "note": 49,
      "start": 28.6129,
      "duration": 0.1637,
      "velocity": 95,
      "chip": "ym2612"
    },
    {
      "channel": 3,
      "note": 76,
      "start": 28.6158,
      "duration": 0.0941,
      "velocity": 110,
      "chip": "ym2612"
    },
    {
      "channel": 0,
      "note": 90,
      "start": 28.6182,
      "duration": 0.0082,
      "velocity": 110,
      "chip": "ym2612"
    },
    {
      "channel": 4,
      "note": 89,
      "start": 28.6207,
      "duration": 0.0225,
      "velocity": 124,
      "chip": "ym2612"
    },
    {
      "channel": 0,
      "note": 85,
      "start": 28.7128,
      "duration": 0.0136,
      "velocity": 110,
      "chip": "ym2612"
    },
    {
      "channel": 5,
      "note": 52,
      "start": 28.8294,
      "duration": 0.1471,
      "velocity": 95,
      "chip": "ym2612"
    },
    {
      "channel": 3,
      "note": 80,
      "start": 28.8322,
      "duration": 0.061,
      "velocity": 110,
      "chip": "ym2612"
    },
    {
      "channel": 0,
      "note": 91,
      "start": 28.8346,
      "duration": 0.0083,
      "velocity": 110,
      "chip": "ym2612"
    },
    {
      "channel": 4,
      "note": 89,
      "start": 28.8372,
      "duration": 0.0227,
      "velocity": 124,
      "chip": "ym2612"
    },
    {
      "channel": 3,
      "note": 79,
      "start": 28.9294,
      "duration": 0.0803,
      "velocity": 110,
      "chip": "ym2612"
    },
    {
      "channel": 0,
      "note": 85,
      "start": 28.9319,
      "duration": 0.0111,
      "velocity": 110,
      "chip": "ym2612"
    },
    {
      "channel": 5,
      "note": 54,
      "start": 29.0462,
      "duration": 0.2803,
      "velocity": 95,
      "chip": "ym2612"
    },
    {
      "channel": 3,
      "note": 78,
      "start": 29.0497,
      "duration": 1.8434,
      "velocity": 110,
      "chip": "ym2612"
    },
    {
      "channel": 0,
      "note": 90,
      "start": 29.0522,
      "duration": 0.0076,
      "velocity": 110,
      "chip": "ym2612"
    },
    {
      "channel": 4,
      "note": 89,
      "start": 29.0551,
      "duration": 0.0214,
      "velocity": 124,
      "chip": "ym2612"
    },
    {
      "channel": 0,
      "note": 85,
      "start": 29.146,
      "duration": 0.0137,
      "velocity": 110,
      "chip": "ym2612"
    },
    {
      "channel": 0,
      "note": 90,
      "start": 29.246,
      "duration": 0.0303,
      "velocity": 110,
      "chip": "ym2612"
    },
    {
      "channel": 4,
      "note": 89,
      "start": 29.2513,
      "duration": 0.0419,
      "velocity": 124,
      "chip": "ym2612"
    },
    {
      "channel": 0,
      "note": 85,
      "start": 29.3626,
      "duration": 0.0137,
      "velocity": 110,
      "chip": "ym2612"
    },
    {
      "channel": 5,
      "note": 49,
      "start": 29.4629,
      "duration": 0.1803,
      "velocity": 95,
      "chip": "ym2612"
    },
    {
      "channel": 0,
      "note": 90,
      "start": 29.4658,
      "duration": 0.0106,
      "velocity": 110,
      "chip": "ym2612"
    },
    {
      "channel": 4,
      "note": 89,
      "start": 29.4682,
      "duration": 0.0249,
      "velocity": 124,
      "chip": "ym2612"
    },
    {
      "channel": 0,
      "note": 85,
      "start": 29.5794,
      "duration": 0.0136,
      "velocity": 110,
      "chip": "ym2612"
    },
    {
      "channel": 5,
      "note": 52,
      "start": 29.6794,
      "duration": 0.1637,
      "velocity": 95,
      "chip": "ym2612"
    },
    {
      "channel": 0,
      "note": 90,
      "start": 29.6819,
      "duration": 0.0111,
      "velocity": 110,
      "chip": "ym2612"
    },
    {
      "channel": 4,
      "note": 89,
      "start": 29.6845,
      "duration": 0.0253,
      "velocity": 124,
      "chip": "ym2612"
    },
    {
      "channel": 0,
      "note": 85,
      "start": 29.796,
      "duration": 0.0138,
      "velocity": 110,
      "chip": "ym2612"
    },
    {
      "channel": 5,
      "note": 54,
      "start": 29.8964,
      "duration": 0.1302,
      "velocity": 95,
      "chip": "ym2612"
    },
    {
      "channel": 0,
      "note": 90,
      "start": 29.8989,
      "duration": 0.0107,
      "velocity": 110,
      "chip": "ym2612"
    },
    {
      "channel": 4,
      "note": 89,
      "start": 29.9015,
      "duration": 0.0251,
      "velocity": 124,
      "chip": "ym2612"
    },
    {
      "channel": 0,
      "note": 85,
      "start": 30.0127,
      "duration": 0.0136,
      "velocity": 110,
      "chip": "ym2612"
    },
    {
      "channel": 5,
      "note": 59,
      "start": 30.1129,
      "duration": 0.2803,
      "velocity": 95,
      "chip": "ym2612"
    },
    {
      "channel": 0,
      "note": 90,
      "start": 30.1154,
      "duration": 0.0109,
      "velocity": 110,
      "chip": "ym2612"
    },
    {
      "channel": 4,
      "note": 101,
      "start": 30.1179,
      "duration": 0.0252,
      "velocity": 124,
      "chip": "ym2612"
    },
    {
      "channel": 0,
      "note": 85,
      "start": 30.2293,
      "duration": 0.0137,
      "velocity": 110,
      "chip": "ym2612"
    },
    {
      "channel": 0,
      "note": 90,
      "start": 30.3294,
      "duration": 0.0137,
      "velocity": 110,
      "chip": "ym2612"
    },
    {
      "channel": 4,
      "note": 89,
      "start": 30.3319,
      "duration": 0.0279,
      "velocity": 124,
      "chip": "ym2612"
    },
    {
      "channel": 0,
      "note": 85,
      "start": 30.4294,
      "duration": 0.0136,
      "velocity": 110,
      "chip": "ym2612"
    },
    {
      "channel": 5,
      "note": 57,
      "start": 30.5463,
      "duration": 0.3968,
      "velocity": 95,
      "chip": "ym2612"
    },
    {
      "channel": 0,
      "note": 90,
      "start": 30.5488,
      "duration": 0.0109,
      "velocity": 110,
      "chip": "ym2612"
    },
    {
      "channel": 4,
      "note": 89,
      "start": 30.5514,
      "duration": 0.0251,
      "velocity": 124,
      "chip": "ym2612"
    },
    {
      "channel": 0,
      "note": 85,
      "start": 30.6459,
      "duration": 0.0138,
      "velocity": 110,
      "chip": "ym2612"
    },
    {
      "channel": 0,
      "note": 89,
      "start": 30.7626,
      "duration": 0.0137,
      "velocity": 110,
      "chip": "ym2612"
    },
    {
      "channel": 4,
      "note": 89,
      "start": 30.7655,
      "duration": 0.0277,
      "velocity": 124,
      "chip": "ym2612"
    },
    {
      "channel": 0,
      "note": 84,
      "start": 30.8629,
      "duration": 0.0135,
      "velocity": 110,
      "chip": "ym2612"
    },
    {
      "channel": 4,
      "note": 89,
      "start": 30.9823,
      "duration": 0.0156,
      "velocity": 124,
      "chip": "ym2612"
    },
    {
      "channel": 4,
      "note": 89,
      "start": 31.0794,
      "duration": 0.0157,
      "velocity": 124,
      "chip": "ym2612"
    },
    {
      "channel": 4,
      "note": 89,
      "start": 31.1765,
      "duration": 0.0154,
      "velocity": 124,
      "chip": "ym2612"
    },
    {
      "channel": 4,
      "note": 89,
      "start": 31.2667,
      "duration": 0.0206,
      "velocity": 124,
      "chip": "ym2612"
    },
    {
      "channel": 4,
      "note": 101,
      "start": 31.3636,
      "duration": 0.0134,
      "velocity": 124,
      "chip": "ym2612"
    },
    {
      "channel": 4,
      "note": 89,
      "start": 31.4601,
      "duration": 0.0134,
      "velocity": 124,
      "chip": "ym2612"
    },
    {
      "channel": 4,
      "note": 89,
      "start": 31.5566,
      "duration": 0.0126,
      "velocity": 124,
      "chip": "ym2612"
    },
    {
      "channel": 4,
      "note": 89,
      "start": 31.6541,
      "duration": 0.0126,
      "velocity": 124,
      "chip": "ym2612"
    },
    {
      "channel": 4,
      "note": 89,
      "start": 31.7531,
      "duration": 0.012,
      "velocity": 124,
      "chip": "ym2612"
    },
    {
      "channel": 4,
      "note": 89,
      "start": 31.8477,
      "duration": 0.015,
      "velocity": 124,
      "chip": "ym2612"
    },
    {
      "channel": 4,
      "note": 89,
      "start": 31.9436,
      "duration": 0.0153,
      "velocity": 124,
      "chip": "ym2612"
    },
    {
      "channel": 4,
      "note": 89,
      "start": 32.0406,
      "duration": 0.0157,
      "velocity": 124,
      "chip": "ym2612"
    },
    {
      "channel": 4,
      "note": 101,
      "start": 32.1379,
      "duration": 0.0157,
      "velocity": 124,
      "chip": "ym2612"
    },
    {
      "channel": 4,
      "note": 89,
      "start": 32.2288,
      "duration": 0.0208,
      "velocity": 124,
      "chip": "ym2612"
    },
    {
      "channel": 4,
      "note": 89,
      "start": 32.3252,
      "duration": 0.0204,
      "velocity": 124,
      "chip": "ym2612"
    },
    {
      "channel": 4,
      "note": 89,
      "start": 32.4234,
      "duration": 0.0132,
      "velocity": 124,
      "chip": "ym2612"
    },
    {
      "channel": 4,
      "note": 89,
      "start": 32.5221,
      "duration": 0.0126,
      "velocity": 124,
      "chip": "ym2612"
    },
    {
      "channel": 4,
      "note": 89,
      "start": 32.6166,
      "duration": 0.015,
      "velocity": 124,
      "chip": "ym2612"
    },
    {
      "channel": 4,
      "note": 89,
      "start": 32.713,
      "duration": 0.0153,
      "velocity": 124,
      "chip": "ym2612"
    },
    {
      "channel": 4,
      "note": 89,
      "start": 32.8093,
      "duration": 0.0157,
      "velocity": 124,
      "chip": "ym2612"
    },
    {
      "channel": 4,
      "note": 101,
      "start": 32.9066,
      "duration": 0.0157,
      "velocity": 124,
      "chip": "ym2612"
    },
    {
      "channel": 4,
      "note": 89,
      "start": 33.0037,
      "duration": 0.0156,
      "velocity": 124,
      "chip": "ym2612"
    },
    {
      "channel": 4,
      "note": 89,
      "start": 33.1,
      "duration": 0.0151,
      "velocity": 124,
      "chip": "ym2612"
    },
    {
      "channel": 4,
      "note": 89,
      "start": 33.198,
      "duration": 0.0141,
      "velocity": 124,
      "chip": "ym2612"
    },
    {
      "channel": 0,
      "note": 54,
      "start": 33.2882,
      "duration": 0.0805,
      "velocity": 95,
      "chip": "ym2612"
    },
    {
      "channel": 1,
      "note": 90,
      "start": 33.2912,
      "duration": 0.0125,
      "velocity": 110,
      "chip": "ym2612"
    },
    {
      "channel": 4,
      "note": 89,
      "start": 33.2971,
      "duration": 0.0133,
      "velocity": 124,
      "chip": "ym2612"
    },
    {
      "channel": 1,
      "note": 85,
      "start": 33.3418,
      "duration": 0.0054,
      "velocity": 110,
      "chip": "ym2612"
    },
    {
      "channel": 0,
      "note": 49,
      "start": 33.3855,
      "duration": 0.0807,
      "velocity": 95,
      "chip": "ym2612"
    },
    {
      "channel": 1,
      "note": 91,
      "start": 33.3878,
      "duration": 0.0087,
      "velocity": 110,
      "chip": "ym2612"
    },
    {
      "channel": 4,
      "note": 89,
      "start": 33.3912,
      "duration": 0.0184,
      "velocity": 124,
      "chip": "ym2612"
    },
    {
      "channel": 1,
      "note": 85,
      "start": 33.4399,
      "duration": 0.0055,
      "velocity": 110,
      "chip": "ym2612"
    },
    {
      "channel": 0,
      "note": 52,
      "start": 33.4839,
      "duration": 0.0831,
      "velocity": 95,
      "chip": "ym2612"
    },
    {
      "channel": 1,
      "note": 90,
      "start": 33.4861,
      "duration": 0.0092,
      "velocity": 110,
      "chip": "ym2612"
    },
    {
      "channel": 4,
      "note": 89,
      "start": 33.4897,
      "duration": 0.0115,
      "velocity": 124,
      "chip": "ym2612"
    },
    {
      "channel": 1,
      "note": 85,
      "start": 33.5399,
      "duration": 0.0056,
      "velocity": 110,
      "chip": "ym2612"
    },
    {
      "channel": 0,
      "note": 54,
      "start": 33.5845,
      "duration": 0.1805,
      "velocity": 95,
      "chip": "ym2612"
    },
    {
      "channel": 1,
      "note": 88,
      "start": 33.587,
      "duration": 0.0082,
      "velocity": 110,
      "chip": "ym2612"
    },
    {
      "channel": 4,
      "note": 89,
      "start": 33.5903,
      "duration": 0.0107,
      "velocity": 124,
      "chip": "ym2612"
    },
    {
      "channel": 1,
      "note": 85,
      "start": 33.6401,
      "duration": 0.0056,
      "velocity": 110,
      "chip": "ym2612"
    },
    {
      "channel": 1,
      "note": 90,
      "start": 33.6844,
      "duration": 0.0088,
      "velocity": 110,
      "chip": "ym2612"
    },
    {
      "channel": 4,
      "note": 101,
      "start": 33.6867,
      "duration": 0.0129,
      "velocity": 124,
      "chip": "ym2612"
    },
    {
      "channel": 1,
      "note": 85,
      "start": 33.7385,
      "duration": 0.0054,
      "velocity": 110,
      "chip": "ym2612"
    },
    {
      "channel": 0,
      "note": 49,
      "start": 33.784,
      "duration": 0.0816,
      "velocity": 95,
      "chip": "ym2612"
    },
    {
      "channel": 1,
      "note": 91,
      "start": 33.7864,
      "duration": 0.0078,
      "velocity": 110,
      "chip": "ym2612"
    },
    {
      "channel": 4,
      "note": 89,
      "start": 33.789,
      "duration": 0.011,
      "velocity": 124,
      "chip": "ym2612"
    },
    {
      "channel": 1,
      "note": 85,
      "start": 33.8328,
      "duration": 0.0113,
      "velocity": 110,
      "chip": "ym2612"
    },
    {
      "channel": 0,
      "note": 52,
      "start": 33.8824,
      "duration": 0.0825,
      "velocity": 95,
      "chip": "ym2612"
    },
    {
      "channel": 1,
      "note": 90,
      "start": 33.8847,
      "duration": 0.0096,
      "velocity": 110,
      "chip": "ym2612"
    },
    {
      "channel": 4,
      "note": 89,
      "start": 33.8871,
      "duration": 0.0131,
      "velocity": 124,
      "chip": "ym2612"
    },
    {
      "channel": 1,
      "note": 85,
      "start": 33.9326,
      "duration": 0.0047,
      "velocity": 110,
      "chip": "ym2612"
    },
    {
      "channel": 0,
      "note": 54,
      "start": 33.9826,
      "duration": 0.1764,
      "velocity": 95,
      "chip": "ym2612"
    },
    {
      "channel": 1,
      "note": 88,
      "start": 33.9849,
      "duration": 0.0096,
      "velocity": 110,
      "chip": "ym2612"
    },
    {
      "channel": 4,
      "note": 89,
      "start": 33.9887,
      "duration": 0.0115,
      "velocity": 124,
      "chip": "ym2612"
    },
    {
      "channel": 1,
      "note": 85,
      "start": 34.0331,
      "duration": 0.0051,
      "velocity": 110,
      "chip": "ym2612"
    },
    {
      "channel": 1,
      "note": 90,
      "start": 34.0831,
      "duration": 0.0112,
      "velocity": 110,
      "chip": "ym2612"
    },
    {
      "channel": 4,
      "note": 89,
      "start": 34.0888,
      "duration": 0.011,
      "velocity": 124,
      "chip": "ym2612"
    },
    {
      "channel": 1,
      "note": 85,
      "start": 34.132,
      "duration": 0.0043,
      "velocity": 110,
      "chip": "ym2612"
    },
    {
      "channel": 0,
      "note": 49,
      "start": 34.1817,
      "duration": 0.0765,
      "velocity": 95,
      "chip": "ym2612"
    },
    {
      "channel": 1,
      "note": 91,
      "start": 34.184,
      "duration": 0.0094,
      "velocity": 110,
      "chip": "ym2612"
    },
    {
      "channel": 4,
      "note": 89,
      "start": 34.1863,
      "duration": 0.0125,
      "velocity": 124,
      "chip": "ym2612"
    },
    {
      "channel": 1,
      "note": 85,
      "start": 34.2317,
      "duration": 0.0053,
      "velocity": 110,
      "chip": "ym2612"
    },
    {
      "channel": 0,
      "note": 52,
      "start": 34.2826,
      "duration": 0.0765,
      "velocity": 95,
      "chip": "ym2612"
    },
    {
      "channel": 1,
      "note": 90,
      "start": 34.2851,
      "duration": 0.0097,
      "velocity": 110,
      "chip": "ym2612"
    },
    {
      "channel": 4,
      "note": 89,
      "start": 34.2876,
      "duration": 0.0128,
      "velocity": 124,
      "chip": "ym2612"
    },
    {
      "channel": 1,
      "note": 85,
      "start": 34.3332,
      "duration": 0.005,
      "velocity": 110,
      "chip": "ym2612"
    },
    {
      "channel": 0,
      "note": 54,
      "start": 34.3771,
      "duration": 0.1821,
      "velocity": 95,
      "chip": "ym2612"
    },
    {
      "channel": 1,
      "note": 88,
      "start": 34.3794,
      "duration": 0.0136,
      "velocity": 110,
      "chip": "ym2612"
    },
    {
      "channel": 4,
      "note": 89,
      "start": 34.3816,
      "duration": 0.0183,
      "velocity": 124,
      "chip": "ym2612"
    },
    {
      "channel": 1,
      "note": 85,
      "start": 34.4329,
      "duration": 0.0044,
      "velocity": 110,
      "chip": "ym2612"
    },
    {
      "channel": 1,
      "note": 90,
      "start": 34.4762,
      "duration": 0.0089,
      "velocity": 110,
      "chip": "ym2612"
    },
    {
      "channel": 4,
      "note": 101,
      "start": 34.4792,
      "duration": 0.0209,
      "velocity": 124,
      "chip": "ym2612"
    },
    {
      "channel": 1,
      "note": 85,
      "start": 34.5317,
      "duration": 0.0053,
      "velocity": 110,
      "chip": "ym2612"
    },
    {
      "channel": 0,
      "note": 49,
      "start": 34.577,
      "duration": 0.0826,
      "velocity": 95,
      "chip": "ym2612"
    },
    {
      "channel": 1,
      "note": 91,
      "start": 34.5794,
      "duration": 0.008,
      "velocity": 110,
      "chip": "ym2612"
    },
    {
      "channel": 4,
      "note": 89,
      "start": 34.5822,
      "duration": 0.011,
      "velocity": 124,
      "chip": "ym2612"
    },
    {
      "channel": 1,
      "note": 85,
      "start": 34.6321,
      "duration": 0.0058,
      "velocity": 110,
      "chip": "ym2612"
    },
    {
      "channel": 0,
      "note": 52,
      "start": 34.6765,
      "duration": 0.0824,
      "velocity": 95,
      "chip": "ym2612"
    },
    {
      "channel": 1,
      "note": 90,
      "start": 34.6787,
      "duration": 0.0095,
      "velocity": 110,
      "chip": "ym2612"
    },
    {
      "channel": 4,
      "note": 89,
      "start": 34.6811,
      "duration": 0.013,
      "velocity": 124,
      "chip": "ym2612"
    },
    {
      "channel": 1,
      "note": 85,
      "start": 34.7325,
      "duration": 0.0055,
      "velocity": 110,
      "chip": "ym2612"
    },
    {
      "channel": 0,
      "note": 54,
      "start": 34.7764,
      "duration": 0.0618,
      "velocity": 95,
      "chip": "ym2612"
    },
    {
      "channel": 1,
      "note": 88,
      "start": 34.7789,
      "duration": 0.0096,
      "velocity": 110,
      "chip": "ym2612"
    },
    {
      "channel": 4,
      "note": 89,
      "start": 34.7827,
      "duration": 0.0116,
      "velocity": 124,
      "chip": "ym2612"
    },
    {
      "channel": 1,
      "note": 85,
      "start": 34.8332,
      "duration": 0.0051,
      "velocity": 110,
      "chip": "ym2612"
    },
    {
      "channel": 0,
      "note": 54,
      "start": 34.8769,
      "duration": 0.0773,
      "velocity": 95,
      "chip": "ym2612"
    },
    {
      "channel": 3,
      "note": 78,
      "start": 34.8795,
      "duration": 0.0606,
      "velocity": 110,
      "chip": "ym2612"
    },
    {
      "channel": 2,
      "note": 73,
      "start": 34.8832,
      "duration": 0.057,
      "velocity": 110,
      "chip": "ym2612"
    },
    {
      "channel": 1,
      "note": 90,
      "start": 34.8855,
      "duration": 0.0114,
      "velocity": 110,
      "chip": "ym2612"
    },
    {
      "channel": 4,
      "note": 89,
      "start": 34.8912,
      "duration": 0.008,
      "velocity": 124,
      "chip": "ym2612"
    },
    {
      "channel": 1,
      "note": 85,
      "start": 34.9272,
      "duration": 0.0129,
      "velocity": 110,
      "chip": "ym2612"
    },
    {
      "channel": 0,
      "note": 49,
      "start": 34.979,
      "duration": 0.0762,
      "velocity": 95,
      "chip": "ym2612"
    },
    {
      "channel": 3,
      "note": 78,
      "start": 34.9816,
      "duration": 0.0737,
      "velocity": 110,
      "chip": "ym2612"
    },
    {
      "channel": 2,
      "note": 73,
      "start": 34.9842,
      "duration": 0.0713,
      "velocity": 110,
      "chip": "ym2612"
    },
    {
      "channel": 1,
      "note": 91,
      "start": 34.9879,
      "duration": 0.0077,
      "velocity": 110,
      "chip": "ym2612"
    },
    {
      "channel": 4,
      "note": 89,
      "start": 34.9906,
      "duration": 0.0071,
      "velocity": 124,
      "chip": "ym2612"
    },
    {
      "channel": 1,
      "note": 85,
      "start": 35.0293,
      "duration": 0.0043,
      "velocity": 110,
      "chip": "ym2612"
    },
    {
      "channel": 0,
      "note": 52,
      "start": 35.0796,
      "duration": 0.0858,
      "velocity": 95,
      "chip": "ym2612"
    },
    {
      "channel": 3,
      "note": 81,
      "start": 35.0833,
      "duration": 0.0438,
      "velocity": 110,
      "chip": "ym2612"
    },
    {
      "channel": 2,
      "note": 76,
      "start": 35.086,
      "duration": 0.0413,
      "velocity": 110,
      "chip": "ym2612"
    },
    {
      "channel": 1,
      "note": 90,
      "start": 35.0883,
      "duration": 0.0075,
      "velocity": 110,
      "chip": "ym2612"
    },
    {
      "channel": 4,
      "note": 89,
      "start": 35.0906,
      "duration": 0.0077,
      "velocity": 124,
      "chip": "ym2612"
    },
    {
      "channel": 1,
      "note": 85,
      "start": 35.1298,
      "duration": 0.0054,
      "velocity": 110,
      "chip": "ym2612"
    },
    {
      "channel": 0,
      "note": 54,
      "start": 35.1828,
      "duration": 0.1791,
      "velocity": 95,
      "chip": "ym2612"
    },
    {
      "channel": 3,
      "note": 81,
      "start": 35.1858,
      "duration": 0.0674,
      "velocity": 110,
      "chip": "ym2612"
    },
    {
      "channel": 2,
      "note": 76,
      "start": 35.1885,
      "duration": 0.0649,
      "velocity": 110,
      "chip": "ym2612"
    },
    {
      "channel": 1,
      "note": 88,
      "start": 35.191,
      "duration": 0.0092,
      "velocity": 110,
      "chip": "ym2612"
    },
    {
      "channel": 4,
      "note": 89,
      "start": 35.195,
      "duration": 0.0074,
      "velocity": 124,
      "chip": "ym2612"
    },
    {
      "channel": 1,
      "note": 85,
      "start": 35.2343,
      "duration": 0.0047,
      "velocity": 110,
      "chip": "ym2612"
    },
    {
      "channel": 3,
      "note": 79,
      "start": 35.2852,
      "duration": 0.0465,
      "velocity": 110,
      "chip": "ym2612"
    },
    {
      "channel": 2,
      "note": 74,
      "start": 35.2877,
      "duration": 0.0442,
      "velocity": 110,
      "chip": "ym2612"
    },
    {
      "channel": 1,
      "note": 90,
      "start": 35.2911,
      "duration": 0.0082,
      "velocity": 110,
      "chip": "ym2612"
    },
    {
      "channel": 4,
      "note": 101,
      "start": 35.2941,
      "duration": 0.0098,
      "velocity": 124,
      "chip": "ym2612"
    },
    {
      "channel": 1,
      "note": 85,
      "start": 35.3346,
      "duration": 0.0054,
      "velocity": 110,
      "chip": "ym2612"
    },
    {
      "channel": 0,
      "note": 49,
      "start": 35.3869,
      "duration": 0.0763,
      "velocity": 95,
      "chip": "ym2612"
    },
    {
      "channel": 3,
      "note": 79,
      "start": 35.3895,
      "duration": 0.0521,
      "velocity": 110,
      "chip": "ym2612"
    },
    {
      "channel": 2,
      "note": 74,
      "start": 35.3923,
      "duration": 0.0494,
      "velocity": 110,
      "chip": "ym2612"
    },
    {
      "channel": 1,
      "note": 91,
      "start": 35.3958,
      "duration": 0.0075,
      "velocity": 110,
      "chip": "ym2612"
    },
    {
      "channel": 4,
      "note": 89,
      "start": 35.3981,
      "duration": 0.0074,
      "velocity": 124,
      "chip": "ym2612"
    },
    {
      "channel": 1,
      "note": 85,
      "start": 35.4371,
      "duration": 0.0044,
      "velocity": 110,
      "chip": "ym2612"
    },
    {
      "channel": 0,
      "note": 52,
      "start": 35.4813,
      "duration": 0.0768,
      "velocity": 95,
      "chip": "ym2612"
    },
    {
      "channel": 3,
      "note": 76,
      "start": 35.4843,
      "duration": 0.0676,
      "velocity": 110,
      "chip": "ym2612"
    },
    {
      "channel": 2,
      "note": 71,
      "start": 35.488,
      "duration": 0.0641,
      "velocity": 110,
      "chip": "ym2612"
    },
    {
      "channel": 1,
      "note": 90,
      "start": 35.4905,
      "duration": 0.0101,
      "velocity": 110,
      "chip": "ym2612"
    },
    {
      "channel": 4,
      "note": 89,
      "start": 35.4929,
      "duration": 0.014,
      "velocity": 124,
      "chip": "ym2612"
    },
    {
      "channel": 1,
      "note": 85,
      "start": 35.5383,
      "duration": 0.0054,
      "velocity": 110,
      "chip": "ym2612"
    },
    {
      "channel": 0,
      "note": 54,
      "start": 35.5826,
      "duration": 0.1837,
      "velocity": 95,
      "chip": "ym2612"
    },
    {
      "channel": 3,
      "note": 78,
      "start": 35.5863,
      "duration": 0.6801,
      "velocity": 110,
      "chip": "ym2612"
    },
    {
      "channel": 2,
      "note": 73,
      "start": 35.5891,
      "duration": 0.6774,
      "velocity": 110,
      "chip": "ym2612"
    },
    {
      "channel": 1,
      "note": 88,
      "start": 35.5916,
      "duration": 0.0088,
      "velocity": 110,
      "chip": "ym2612"
    },
    {
      "channel": 4,
      "note": 89,
      "start": 35.5942,
      "duration": 0.0081,
      "velocity": 124,
      "chip": "ym2612"
    },
    {
      "channel": 1,
      "note": 85,
      "start": 35.6389,
      "duration": 0.0051,
      "velocity": 110,
      "chip": "ym2612"
    },
    {
      "channel": 1,
      "note": 90,
      "start": 35.683,
      "duration": 0.0119,
      "velocity": 110,
      "chip": "ym2612"
    },
    {
      "channel": 4,
      "note": 89,
      "start": 35.6893,
      "duration": 0.0108,
      "velocity": 124,
      "chip": "ym2612"
    },
    {
      "channel": 1,
      "note": 85,
      "start": 35.7393,
      "duration": 0.005,
      "velocity": 110,
      "chip": "ym2612"
    },
    {
      "channel": 0,
      "note": 49,
      "start": 35.7837,
      "duration": 0.083,
      "velocity": 95,
      "chip": "ym2612"
    },
    {
      "channel": 1,
      "note": 91,
      "start": 35.7862,
      "duration": 0.0091,
      "velocity": 110,
      "chip": "ym2612"
    },
    {
      "channel": 4,
      "note": 89,
      "start": 35.7885,
      "duration": 0.0124,
      "velocity": 124,
      "chip": "ym2612"
    },
    {
      "channel": 1,
      "note": 85,
      "start": 35.8396,
      "duration": 0.0052,
      "velocity": 110,
      "chip": "ym2612"
    },
    {
      "channel": 0,
      "note": 52,
      "start": 35.8837,
      "duration": 0.0827,
      "velocity": 95,
      "chip": "ym2612"
    },
    {
      "channel": 1,
      "note": 90,
      "start": 35.8863,
      "duration": 0.0095,
      "velocity": 110,
      "chip": "ym2612"
    },
    {
      "channel": 4,
      "note": 89,
      "start": 35.8887,
      "duration": 0.0128,
      "velocity": 124,
      "chip": "ym2612"
    },
    {
      "channel": 1,
      "note": 85,
      "start": 35.94,
      "duration": 0.0055,
      "velocity": 110,
      "chip": "ym2612"
    },
    {
      "channel": 0,
      "note": 54,
      "start": 35.9841,
      "duration": 0.1822,
      "velocity": 95,
      "chip": "ym2612"
    },
    {
      "channel": 1,
      "note": 88,
      "start": 35.9864,
      "duration": 0.0096,
      "velocity": 110,
      "chip": "ym2612"
    },
    {
      "channel": 4,
      "note": 89,
      "start": 35.9899,
      "duration": 0.0117,
      "velocity": 124,
      "chip": "ym2612"
    },
    {
      "channel": 1,
      "note": 85,
      "start": 36.0344,
      "duration": 0.0114,
      "velocity": 110,
      "chip": "ym2612"
    },
    {
      "channel": 1,
      "note": 90,
      "start": 36.0847,
      "duration": 0.0084,
      "velocity": 110,
      "chip": "ym2612"
    },
    {
      "channel": 4,
      "note": 101,
      "start": 36.0873,
      "duration": 0.0129,
      "velocity": 124,
      "chip": "ym2612"
    },
    {
      "channel": 1,
      "note": 85,
      "start": 36.1318,
      "duration": 0.0052,
      "velocity": 110,
      "chip": "ym2612"
    },
    {
      "channel": 0,
      "note": 49,
      "start": 36.1842,
      "duration": 0.0822,
      "velocity": 95,
      "chip": "ym2612"
    },
    {
      "channel": 1,
      "note": 91,
      "start": 36.1865,
      "duration": 0.0077,
      "velocity": 110,
      "chip": "ym2612"
    },
    {
      "channel": 4,
      "note": 89,
      "start": 36.189,
      "duration": 0.0112,
      "velocity": 124,
      "chip": "ym2612"
    },
    {
      "channel": 1,
      "note": 85,
      "start": 36.2334,
      "duration": 0.0049,
      "velocity": 110,
      "chip": "ym2612"
    },
    {
      "channel": 0,
      "note": 52,
      "start": 36.2833,
      "duration": 0.0768,
      "velocity": 95,
      "chip": "ym2612"
    },
    {
      "channel": 1,
      "note": 90,
      "start": 36.2858,
      "duration": 0.0098,
      "velocity": 110,
      "chip": "ym2612"
    },
    {
      "channel": 4,
      "note": 89,
      "start": 36.2898,
      "duration": 0.0118,
      "velocity": 124,
      "chip": "ym2612"
    },
    {
      "channel": 1,
      "note": 85,
      "start": 36.3339,
      "duration": 0.0051,
      "velocity": 110,
      "chip": "ym2612"
    },
    {
      "channel": 0,
      "note": 54,
      "start": 36.384,
      "duration": 0.0551,
      "velocity": 95,
      "chip": "ym2612"
    },
    {
      "channel": 1,
      "note": 88,
      "start": 36.3863,
      "duration": 0.0093,
      "velocity": 110,
      "chip": "ym2612"
    },
    {
      "channel": 4,
      "note": 89,
      "start": 36.3904,
      "duration": 0.0107,
      "velocity": 124,
      "chip": "ym2612"
    },
    {
      "channel": 1,
      "note": 85,
      "start": 36.4341,
      "duration": 0.0051,
      "velocity": 110,
      "chip": "ym2612"
    },
    {
      "channel": 0,
      "note": 54,
      "start": 36.4842,
      "duration": 0.0842,
      "velocity": 95,
      "chip": "ym2612"
    },
    {
      "channel": 3,
      "note": 78,
      "start": 36.4868,
      "duration": 0.0446,
      "velocity": 110,
      "chip": "ym2612"
    },
    {
      "channel": 2,
      "note": 73,
      "start": 36.4895,
      "duration": 0.0421,
      "velocity": 110,
      "chip": "ym2612"
    },
    {
      "channel": 1,
      "note": 90,
      "start": 36.4927,
      "duration": 0.0105,
      "velocity": 110,
      "chip": "ym2612"
    },
    {
      "channel": 4,
      "note": 89,
      "start": 36.4972,
      "duration": 0.0082,
      "velocity": 124,
      "chip": "ym2612"
    },
    {
      "channel": 1,
      "note": 85,
      "start": 36.5341,
      "duration": 0.0054,
      "velocity": 110,
      "chip": "ym2612"
    },
    {
      "channel": 0,
      "note": 49,
      "start": 36.5792,
      "duration": 0.0832,
      "velocity": 95,
      "chip": "ym2612"
    },
    {
      "channel": 3,
      "note": 78,
      "start": 36.5822,
      "duration": 0.0945,
      "velocity": 110,
      "chip": "ym2612"
    },
    {
      "channel": 2,
      "note": 73,
      "start": 36.5851,
      "duration": 0.0918,
      "velocity": 110,
      "chip": "ym2612"
    },
    {
      "channel": 1,
      "note": 91,
      "start": 36.5874,
      "duration": 0.0087,
      "velocity": 110,
      "chip": "ym2612"
    },
    {
      "channel": 4,
      "note": 89,
      "start": 36.5898,
      "duration": 0.0143,
      "velocity": 124,
      "chip": "ym2612"
    },
    {
      "channel": 1,
      "note": 85,
      "start": 36.6359,
      "duration": 0.0053,
      "velocity": 110,
      "chip": "ym2612"
    },
    {
      "channel": 0,
      "note": 52,
      "start": 36.6793,
      "duration": 0.0861,
      "velocity": 95,
      "chip": "ym2612"
    },
    {
      "channel": 3,
      "note": 81,
      "start": 36.6819,
      "duration": 0.0523,
      "velocity": 110,
      "chip": "ym2612"
    },
    {
      "channel": 2,
      "note": 76,
      "start": 36.6855,
      "duration": 0.0489,
      "velocity": 110,
      "chip": "ym2612"
    },
    {
      "channel": 1,
      "note": 90,
      "start": 36.6878,
      "duration": 0.0081,
      "velocity": 110,
      "chip": "ym2612"
    },
    {
      "channel": 4,
      "note": 89,
      "start": 36.6903,
      "duration": 0.0082,
      "velocity": 124,
      "chip": "ym2612"
    },
    {
      "channel": 1,
      "note": 85,
      "start": 36.7371,
      "duration": 0.0054,
      "velocity": 110,
      "chip": "ym2612"
    },
    {
      "channel": 0,
      "note": 54,
      "start": 36.7828,
      "duration": 0.1904,
      "velocity": 95,
      "chip": "ym2612"
    },
    {
      "channel": 3,
      "note": 81,
      "start": 36.7853,
      "duration": 0.0589,
      "velocity": 110,
      "chip": "ym2612"
    },
    {
      "channel": 2,
      "note": 76,
      "start": 36.7879,
      "duration": 0.0565,
      "velocity": 110,
      "chip": "ym2612"
    },
    {
      "channel": 1,
      "note": 88,
      "start": 36.7902,
      "duration": 0.0088,
      "velocity": 110,
      "chip": "ym2612"
    },
    {
      "channel": 4,
      "note": 89,
      "start": 36.7927,
      "duration": 0.0085,
      "velocity": 124,
      "chip": "ym2612"
    },
    {
      "channel": 1,
      "note": 85,
      "start": 36.8389,
      "duration": 0.0052,
      "velocity": 110,
      "chip": "ym2612"
    },
    {
      "channel": 3,
      "note": 79,
      "start": 36.8839,
      "duration": 0.0528,
      "velocity": 110,
      "chip": "ym2612"
    },
    {
      "channel": 2,
      "note": 74,
      "start": 36.8876,
      "duration": 0.0493,
      "velocity": 110,
      "chip": "ym2612"
    },
    {
      "channel": 1,
      "note": 90,
      "start": 36.8901,
      "duration": 0.0076,
      "velocity": 110,
      "chip": "ym2612"
    },
    {
      "channel": 4,
      "note": 101,
      "start": 36.8928,
      "duration": 0.0082,
      "velocity": 124,
      "chip": "ym2612"
    },
    {
      "channel": 1,
      "note": 85,
      "start": 36.9405,
      "duration": 0.0051,
      "velocity": 110,
      "chip": "ym2612"
    },
    {
      "channel": 0,
      "note": 49,
      "start": 36.9843,
      "duration": 0.0809,
      "velocity": 95,
      "chip": "ym2612"
    },
    {
      "channel": 3,
      "note": 79,
      "start": 36.987,
      "duration": 0.0653,
      "velocity": 110,
      "chip": "ym2612"
    },
    {
      "channel": 2,
      "note": 74,
      "start": 36.9896,
      "duration": 0.0629,
      "velocity": 110,
      "chip": "ym2612"
    },
    {
      "channel": 1,
      "note": 91,
      "start": 36.9932,
      "duration": 0.0067,
      "velocity": 110,
      "chip": "ym2612"
    },
    {
      "channel": 4,
      "note": 89,
      "start": 36.9953,
      "duration": 0.0066,
      "velocity": 124,
      "chip": "ym2612"
    },
    {
      "channel": 1,
      "note": 85,
      "start": 37.0389,
      "duration": 0.0053,
      "velocity": 110,
      "chip": "ym2612"
    },
    {
      "channel": 0,
      "note": 52,
      "start": 37.0822,
      "duration": 0.0858,
      "velocity": 95,
      "chip": "ym2612"
    },
    {
      "channel": 3,
      "note": 76,
      "start": 37.0848,
      "duration": 0.0532,
      "velocity": 110,
      "chip": "ym2612"
    },
    {
      "channel": 2,
      "note": 71,
      "start": 37.0884,
      "duration": 0.0497,
      "velocity": 110,
      "chip": "ym2612"
    },
    {
      "channel": 1,
      "note": 90,
      "start": 37.0906,
      "duration": 0.0078,
      "velocity": 110,
      "chip": "ym2612"
    },
    {
      "channel": 4,
      "note": 89,
      "start": 37.0934,
      "duration": 0.0075,
      "velocity": 124,
      "chip": "ym2612"
    },
    {
      "channel": 1,
      "note": 85,
      "start": 37.1324,
      "duration": 0.0054,
      "velocity": 110,
      "chip": "ym2612"
    },
    {
      "channel": 0,
      "note": 54,
      "start": 37.1853,
      "duration": 0.1828,
      "velocity": 95,
      "chip": "ym2612"
    },
    {
      "channel": 3,
      "note": 78,
      "start": 37.1884,
      "duration": 0.6248,
      "velocity": 110,
      "chip": "ym2612"
    },
    {
      "channel": 2,
      "note": 73,
      "start": 37.1914,
      "duration": 0.6221,
      "velocity": 110,
      "chip": "ym2612"
    },
    {
      "channel": 1,
      "note": 88,
      "start": 37.1938,
      "duration": 0.0093,
      "velocity": 110,
      "chip": "ym2612"
    },
    {
      "channel": 4,
      "note": 89,
      "start": 37.1975,
      "duration": 0.0077,
      "velocity": 124,
      "chip": "ym2612"
    },
    {
      "channel": 1,
      "note": 85,
      "start": 37.2359,
      "duration": 0.0052,
      "velocity": 110,
      "chip": "ym2612"
    },
    {
      "channel": 1,
      "note": 90,
      "start": 37.2861,
      "duration": 0.0117,
      "velocity": 110,
      "chip": "ym2612"
    },
    {
      "channel": 4,
      "note": 89,
      "start": 37.2922,
      "duration": 0.011,
      "velocity": 124,
      "chip": "ym2612"
    },
    {
      "channel": 1,
      "note": 85,
      "start": 37.3353,
      "duration": 0.0043,
      "velocity": 110,
      "chip": "ym2612"
    },
    {
      "channel": 0,
      "note": 49,
      "start": 37.3852,
      "duration": 0.0757,
      "velocity": 95,
      "chip": "ym2612"
    },
    {
      "channel": 1,
      "note": 91,
      "start": 37.3875,
      "duration": 0.0089,
      "velocity": 110,
      "chip": "ym2612"
    },
    {
      "channel": 4,
      "note": 89,
      "start": 37.3899,
      "duration": 0.0118,
      "velocity": 124,
      "chip": "ym2612"
    },
    {
      "channel": 1,
      "note": 85,
      "start": 37.434,
      "duration": 0.0053,
      "velocity": 110,
      "chip": "ym2612"
    },
    {
      "channel": 0,
      "note": 52,
      "start": 37.4847,
      "duration": 0.0672,
      "velocity": 95,
      "chip": "ym2612"
    },
    {
      "channel": 1,
      "note": 90,
      "start": 37.4871,
      "duration": 0.0088,
      "velocity": 110,
      "chip": "ym2612"
    },
    {
      "channel": 4,
      "note": 89,
      "start": 37.4895,
      "duration": 0.0118,
      "velocity": 124,
      "chip": "ym2612"
    },
    {
      "channel": 1,
      "note": 85,
      "start": 37.5326,
      "duration": 0.0051,
      "velocity": 110,
      "chip": "ym2612"
    },
    {
      "channel": 0,
      "note": 54,
      "start": 37.5769,
      "duration": 0.1816,
      "velocity": 95,
      "chip": "ym2612"
    },
    {
      "channel": 1,
      "note": 88,
      "start": 37.5793,
      "duration": 0.0135,
      "velocity": 110,
      "chip": "ym2612"
    },
    {
      "channel": 4,
      "note": 89,
      "start": 37.5815,
      "duration": 0.0178,
      "velocity": 124,
      "chip": "ym2612"
    },
    {
      "channel": 1,
      "note": 85,
      "start": 37.6325,
      "duration": 0.0044,
      "velocity": 110,
      "chip": "ym2612"
    },
    {
      "channel": 1,
      "note": 90,
      "start": 37.6758,
      "duration": 0.0089,
      "velocity": 110,
      "chip": "ym2612"
    },
    {
      "channel": 4,
      "note": 101,
      "start": 37.6788,
      "duration": 0.0205,
      "velocity": 124,
      "chip": "ym2612"
    },
    {
      "channel": 1,
      "note": 85,
      "start": 37.7309,
      "duration": 0.0053,
      "velocity": 110,
      "chip": "ym2612"
    },
    {
      "channel": 0,
      "note": 49,
      "start": 37.7761,
      "duration": 0.0892,
      "velocity": 95,
      "chip": "ym2612"
    },
    {
      "channel": 1,
      "note": 91,
      "start": 37.7783,
      "duration": 0.0075,
      "velocity": 110,
      "chip": "ym2612"
    },
    {
      "channel": 4,
      "note": 89,
      "start": 37.7807,
      "duration": 0.0112,
      "velocity": 124,
      "chip": "ym2612"
    },
    {
      "channel": 1,
      "note": 85,
      "start": 37.8303,
      "duration": 0.0053,
      "velocity": 110,
      "chip": "ym2612"
    },
    {
      "channel": 0,
      "note": 52,
      "start": 37.8742,
      "duration": 0.0923,
      "velocity": 95,
      "chip": "ym2612"
    },
    {
      "channel": 1,
      "note": 90,
      "start": 37.8765,
      "duration": 0.0093,
      "velocity": 110,
      "chip": "ym2612"
    },
    {
      "channel": 4,
      "note": 89,
      "start": 37.88,
      "duration": 0.0116,
      "velocity": 124,
      "chip": "ym2612"
    },
    {
      "channel": 1,
      "note": 85,
      "start": 37.93,
      "duration": 0.0078,
      "velocity": 110,
      "chip": "ym2612"
    },
    {
      "channel": 0,
      "note": 54,
      "start": 37.9763,
      "duration": 0.0528,
      "velocity": 95,
      "chip": "ym2612"
    },
    {
      "channel": 1,
      "note": 88,
      "start": 37.9796,
      "duration": 0.0075,
      "velocity": 110,
      "chip": "ym2612"
    },
    {
      "channel": 4,
      "note": 89,
      "start": 37.9821,
      "duration": 0.0107,
      "velocity": 124,
      "chip": "ym2612"
    },
    {
      "channel": 1,
      "note": 85,
      "start": 38.0322,
      "duration": 0.0051,
      "velocity": 110,
      "chip": "ym2612"
    },
    {
      "channel": 0,
      "note": 54,
      "start": 38.0759,
      "duration": 0.0846,
      "velocity": 95,
      "chip": "ym2612"
    },
    {
      "channel": 3,
      "note": 78,
      "start": 38.0784,
      "duration": 0.0452,
      "velocity": 110,
      "chip": "ym2612"
    },
    {
      "channel": 2,
      "note": 73,
      "start": 38.082,
      "duration": 0.0417,
      "velocity": 110,
      "chip": "ym2612"
    },
    {
      "channel": 1,
      "note": 90,
      "start": 38.0844,
      "duration": 0.0115,
      "velocity": 110,
      "chip": "ym2612"
    },
    {
      "channel": 4,
      "note": 89,
      "start": 38.0888,
      "duration": 0.0091,
      "velocity": 124,
      "chip": "ym2612"
    },
    {
      "channel": 1,
      "note": 85,
      "start": 38.1265,
      "duration": 0.0128,
      "velocity": 110,
      "chip": "ym2612"
    },
    {
      "channel": 0,
      "note": 49,
      "start": 38.1784,
      "duration": 0.0835,
      "velocity": 95,
      "chip": "ym2612"
    },
    {
      "channel": 3,
      "note": 78,
      "start": 38.181,
      "duration": 0.081,
      "velocity": 110,
      "chip": "ym2612"
    },
    {
      "channel": 2,
      "note": 73,
      "start": 38.1838,
      "duration": 0.0783,
      "velocity": 110,
      "chip": "ym2612"
    },
    {
      "channel": 1,
      "note": 91,
      "start": 38.1875,
      "duration": 0.008,
      "velocity": 110,
      "chip": "ym2612"
    },
    {
      "channel": 4,
      "note": 89,
      "start": 38.1904,
      "duration": 0.0071,
      "velocity": 124,
      "chip": "ym2612"
    },
    {
      "channel": 1,
      "note": 85,
      "start": 38.2289,
      "duration": 0.0044,
      "velocity": 110,
      "chip": "ym2612"
    },
    {
      "channel": 0,
      "note": 52,
      "start": 38.2788,
      "duration": 0.0844,
      "velocity": 95,
      "chip": "ym2612"
    },
    {
      "channel": 3,
      "note": 81,
      "start": 38.2827,
      "duration": 0.0435,
      "velocity": 110,
      "chip": "ym2612"
    },
    {
      "channel": 2,
      "note": 76,
      "start": 38.2853,
      "duration": 0.041,
      "velocity": 110,
      "chip": "ym2612"
    },
    {
      "channel": 1,
      "note": 90,
      "start": 38.2876,
      "duration": 0.0076,
      "velocity": 110,
      "chip": "ym2612"
    },
    {
      "channel": 4,
      "note": 89,
      "start": 38.2901,
      "duration": 0.0073,
      "velocity": 124,
      "chip": "ym2612"
    },
    {
      "channel": 1,
      "note": 85,
      "start": 38.329,
      "duration": 0.0052,
      "velocity": 110,
      "chip": "ym2612"
    },
    {
      "channel": 0,
      "note": 54,
      "start": 38.3817,
      "duration": 0.1839,
      "velocity": 95,
      "chip": "ym2612"
    },
    {
      "channel": 3,
      "note": 81,
      "start": 38.3842,
      "duration": 0.0808,
      "velocity": 110,
      "chip": "ym2612"
    },
    {
      "channel": 2,
      "note": 76,
      "start": 38.3869,
      "duration": 0.0783,
      "velocity": 110,
      "chip": "ym2612"
    },
    {
      "channel": 1,
      "note": 88,
      "start": 38.3892,
      "duration": 0.0086,
      "velocity": 110,
      "chip": "ym2612"
    },
    {
      "channel": 4,
      "note": 89,
      "start": 38.3917,
      "duration": 0.0083,
      "velocity": 124,
      "chip": "ym2612"
    },
    {
      "channel": 1,
      "note": 85,
      "start": 38.4318,
      "duration": 0.0044,
      "velocity": 110,
      "chip": "ym2612"
    },
    {
      "channel": 3,
      "note": 79,
      "start": 38.4822,
      "duration": 0.0395,
      "velocity": 110,
      "chip": "ym2612"
    },
    {
      "channel": 2,
      "note": 74,
      "start": 38.4857,
      "duration": 0.0362,
      "velocity": 110,
      "chip": "ym2612"
    },
    {
      "channel": 1,
      "note": 90,
      "start": 38.488,
      "duration": 0.0078,
      "velocity": 110,
      "chip": "ym2612"
    },
    {
      "channel": 4,
      "note": 101,
      "start": 38.4907,
      "duration": 0.0098,
      "velocity": 124,
      "chip": "ym2612"
    },
    {
      "channel": 1,
      "note": 85,
      "start": 38.5312,
      "duration": 0.0054,
      "velocity": 110,
      "chip": "ym2612"
    },
    {
      "channel": 0,
      "note": 49,
      "start": 38.5833,
      "duration": 0.0686,
      "velocity": 95,
      "chip": "ym2612"
    },
    {
      "channel": 3,
      "note": 79,
      "start": 38.5861,
      "duration": 0.0731,
      "velocity": 110,
      "chip": "ym2612"
    },
    {
      "channel": 2,
      "note": 74,
      "start": 38.5889,
      "duration": 0.0705,
      "velocity": 110,
      "chip": "ym2612"
    },
    {
      "channel": 1,
      "note": 91,
      "start": 38.5923,
      "duration": 0.0074,
      "velocity": 110,
      "chip": "ym2612"
    },
    {
      "channel": 4,
      "note": 89,
      "start": 38.5946,
      "duration": 0.0072,
      "velocity": 124,
      "chip": "ym2612"
    },
    {
      "channel": 1,
      "note": 85,
      "start": 38.633,
      "duration": 0.0045,
      "velocity": 110,
      "chip": "ym2612"
    },
    {
      "channel": 0,
      "note": 52,
      "start": 38.6766,
      "duration": 0.0766,
      "velocity": 95,
      "chip": "ym2612"
    },
    {
      "channel": 3,
      "note": 74,
      "start": 38.6793,
      "duration": 0.0596,
      "velocity": 110,
      "chip": "ym2612"
    },
    {
      "channel": 2,
      "note": 69,
      "start": 38.682,
      "duration": 0.0571,
      "velocity": 110,
      "chip": "ym2612"
    },
    {
      "channel": 1,
      "note": 90,
      "start": 38.6858,
      "duration": 0.0098,
      "velocity": 110,
      "chip": "ym2612"
    },
    {
      "channel": 4,
      "note": 89,
      "start": 38.688,
      "duration": 0.0137,
      "velocity": 124,
      "chip": "ym2612"
    },
    {
      "channel": 1,
      "note": 85,
      "start": 38.7336,
      "duration": 0.0052,
      "velocity": 110,
      "chip": "ym2612"
    },
    {
      "channel": 0,
      "note": 54,
      "start": 38.7775,
      "duration": 0.2367,
      "velocity": 95,
      "chip": "ym2612"
    },
    {
      "channel": 3,
      "note": 76,
      "start": 38.7812,
      "duration": 0.6543,
      "velocity": 110,
      "chip": "ym2612"
    },
    {
      "channel": 2,
      "note": 71,
      "start": 38.7841,
      "duration": 0.6516,
      "velocity": 110,
      "chip": "ym2612"
    },
    {
      "channel": 1,
      "note": 88,
      "start": 38.7866,
      "duration": 0.008,
      "velocity": 110,
      "chip": "ym2612"
    },
    {
      "channel": 4,
      "note": 89,
      "start": 38.7896,
      "duration": 0.0132,
      "velocity": 124,
      "chip": "ym2612"
    },
    {
      "channel": 1,
      "note": 85,
      "start": 38.8349,
      "duration": 0.0055,
      "velocity": 110,
      "chip": "ym2612"
    },
    {
      "channel": 1,
      "note": 90,
      "start": 38.8794,
      "duration": 0.0104,
      "velocity": 110,
      "chip": "ym2612"
    },
    {
      "channel": 4,
      "note": 89,
      "start": 38.8851,
      "duration": 0.0099,
      "velocity": 124,
      "chip": "ym2612"
    },
    {
      "channel": 1,
      "note": 83,
      "start": 38.9336,
      "duration": 0.0044,
      "velocity": 110,
      "chip": "ym2612"
    },
    {
      "channel": 1,
      "note": 88,
      "start": 38.9766,
      "duration": 0.0087,
      "velocity": 110,
      "chip": "ym2612"
    },
    {
      "channel": 4,
      "note": 89,
      "start": 38.9795,
      "duration": 0.0129,
      "velocity": 124,
      "chip": "ym2612"
    },
    {
      "channel": 0,
      "note": 49,
      "start": 39.0328,
      "duration": 0.0279,
      "velocity": 95,
      "chip": "ym2612"
    },
    {
      "channel": 1,
      "note": 83,
      "start": 39.0352,
      "duration": 0.0029,
      "velocity": 110,
      "chip": "ym2612"
    },
    {
      "channel": 0,
      "note": 52,
      "start": 39.0783,
      "duration": 0.0806,
      "velocity": 95,
      "chip": "ym2612"
    },
    {
      "channel": 1,
      "note": 90,
      "start": 39.0807,
      "duration": 0.0074,
      "velocity": 110,
      "chip": "ym2612"
    },
    {
      "channel": 4,
      "note": 89,
      "start": 39.0831,
      "duration": 0.0106,
      "velocity": 124,
      "chip": "ym2612"
    },
    {
      "channel": 1,
      "note": 83,
      "start": 39.1319,
      "duration": 0.0052,
      "velocity": 110,
      "chip": "ym2612"
    },
    {
      "channel": 0,
      "note": 54,
      "start": 39.1759,
      "duration": 0.1734,
      "velocity": 95,
      "chip": "ym2612"
    },
    {
      "channel": 1,
      "note": 88,
      "start": 39.1782,
      "duration": 0.0094,
      "velocity": 110,
      "chip": "ym2612"
    },
    {
      "channel": 4,
      "note": 89,
      "start": 39.1805,
      "duration": 0.0124,
      "velocity": 124,
      "chip": "ym2612"
    },
    {
      "channel": 1,
      "note": 83,
      "start": 39.2245,
      "duration": 0.012,
      "velocity": 110,
      "chip": "ym2612"
    },
    {
      "channel": 1,
      "note": 90,
      "start": 39.2754,
      "duration": 0.0092,
      "velocity": 110,
      "chip": "ym2612"
    },
    {
      "channel": 4,
      "note": 101,
      "start": 39.2778,
      "duration": 0.0132,
      "velocity": 124,
      "chip": "ym2612"
    },
    {
      "channel": 1,
      "note": 83,
      "start": 39.3229,
      "duration": 0.0046,
      "velocity": 110,
      "chip": "ym2612"
    },
    {
      "channel": 0,
      "note": 49,
      "start": 39.3735,
      "duration": 0.0835,
      "velocity": 95,
      "chip": "ym2612"
    },
    {
      "channel": 1,
      "note": 88,
      "start": 39.3769,
      "duration": 0.0084,
      "velocity": 110,
      "chip": "ym2612"
    },
    {
      "channel": 4,
      "note": 89,
      "start": 39.3793,
      "duration": 0.0116,
      "velocity": 124,
      "chip": "ym2612"
    },
    {
      "channel": 1,
      "note": 83,
      "start": 39.4237,
      "duration": 0.0052,
      "velocity": 110,
      "chip": "ym2612"
    },
    {
      "channel": 0,
      "note": 54,
      "start": 39.4741,
      "duration": 0.0703,
      "velocity": 95,
      "chip": "ym2612"
    },
    {
      "channel": 3,
      "note": 69,
      "start": 39.4772,
      "duration": 0.0746,
      "velocity": 110,
      "chip": "ym2612"
    },
    {
      "channel": 2,
      "note": 74,
      "start": 39.481,
      "duration": 0.0709,
      "velocity": 110,
      "chip": "ym2612"
    },
    {
      "channel": 1,
      "note": 90,
      "start": 39.4836,
      "duration": 0.0072,
      "velocity": 110,
      "chip": "ym2612"
    },
    {
      "channel": 4,
      "note": 89,
      "start": 39.4859,
      "duration": 0.0071,
      "velocity": 124,
      "chip": "ym2612"
    },
    {
      "channel": 1,
      "note": 81,
      "start": 39.5249,
      "duration": 0.005,
      "velocity": 110,
      "chip": "ym2612"
    },
    {
      "channel": 0,
      "note": 52,
      "start": 39.5767,
      "duration": 0.0756,
      "velocity": 95,
      "chip": "ym2612"
    },
    {
      "channel": 1,
      "note": 88,
      "start": 39.579,
      "duration": 0.0089,
      "velocity": 110,
      "chip": "ym2612"
    },
    {
      "channel": 4,
      "note": 89,
      "start": 39.5822,
      "duration": 0.011,
      "velocity": 124,
      "chip": "ym2612"
    },
    {
      "channel": 1,
      "note": 83,
      "start": 39.6261,
      "duration": 0.0051,
      "velocity": 110,
      "chip": "ym2612"
    },
    {
      "channel": 0,
      "note": 54,
      "start": 39.6769,
      "duration": 0.0779,
      "velocity": 95,
      "chip": "ym2612"
    },
    {
      "channel": 3,
      "note": 71,
      "start": 39.6797,
      "duration": 0.5719,
      "velocity": 110,
      "chip": "ym2612"
    },
    {
      "channel": 2,
      "note": 66,
      "start": 39.6836,
      "duration": 0.5681,
      "velocity": 110,
      "chip": "ym2612"
    },
    {
      "channel": 1,
      "note": 90,
      "start": 39.6859,
      "duration": 0.0117,
      "velocity": 110,
      "chip": "ym2612"
    },
    {
      "channel": 4,
      "note": 89,
      "start": 39.692,
      "duration": 0.0079,
      "velocity": 124,
      "chip": "ym2612"
    },
    {
      "channel": 1,
      "note": 83,
      "start": 39.7279,
      "duration": 0.0054,
      "velocity": 110,
      "chip": "ym2612"
    },
    {
      "channel": 0,
      "note": 49,
      "start": 39.771,
      "duration": 0.0815,
      "velocity": 95,
      "chip": "ym2612"
    },
    {
      "channel": 1,
      "note": 91,
      "start": 39.7744,
      "duration": 0.0137,
      "velocity": 110,
      "chip": "ym2612"
    },
    {
      "channel": 4,
      "note": 89,
      "start": 39.7768,
      "duration": 0.0187,
      "velocity": 124,
      "chip": "ym2612"
    },
    {
      "channel": 1,
      "note": 83,
      "start": 39.8261,
      "duration": 0.0055,
      "velocity": 110,
      "chip": "ym2612"
    },
    {
      "channel": 0,
      "note": 52,
      "start": 39.8695,
      "duration": 0.0822,
      "velocity": 95,
      "chip": "ym2612"
    },
    {
      "channel": 1,
      "note": 90,
      "start": 39.8717,
      "duration": 0.0091,
      "velocity": 110,
      "chip": "ym2612"
    },
    {
      "channel": 4,
      "note": 89,
      "start": 39.8751,
      "duration": 0.0183,
      "velocity": 124,
      "chip": "ym2612"
    },
    {
      "channel": 1,
      "note": 85,
      "start": 39.9246,
      "duration": 0.0056,
      "velocity": 110,
      "chip": "ym2612"
    },
    {
      "channel": 0,
      "note": 54,
      "start": 39.9695,
      "duration": 0.1741,
      "velocity": 95,
      "chip": "ym2612"
    },
    {
      "channel": 1,
      "note": 88,
      "start": 39.9718,
      "duration": 0.0088,
      "velocity": 110,
      "chip": "ym2612"
    },
    {
      "channel": 4,
      "note": 89,
      "start": 39.9753,
      "duration": 0.0108,
      "velocity": 124,
      "chip": "ym2612"
    },
    {
      "channel": 1,
      "note": 85,
      "start": 40.0253,
      "duration": 0.0058,
      "velocity": 110,
      "chip": "ym2612"
    },
    {
      "channel": 1,
      "note": 90,
      "start": 40.0699,
      "duration": 0.0083,
      "velocity": 110,
      "chip": "ym2612"
    },
    {
      "channel": 4,
      "note": 101,
      "start": 40.0725,
      "duration": 0.0129,
      "velocity": 124,
      "chip": "ym2612"
    },
    {
      "channel": 1,
      "note": 85,
      "start": 40.125,
      "duration": 0.0042,
      "velocity": 110,
      "chip": "ym2612"
    },
    {
      "channel": 0,
      "note": 49,
      "start": 40.1693,
      "duration": 0.0822,
      "velocity": 95,
      "chip": "ym2612"
    },
    {
      "channel": 1,
      "note": 91,
      "start": 40.1715,
      "duration": 0.0077,
      "velocity": 110,
      "chip": "ym2612"
    },
    {
      "channel": 4,
      "note": 89,
      "start": 40.1741,
      "duration": 0.0112,
      "velocity": 124,
      "chip": "ym2612"
    },
    {
      "channel": 1,
      "note": 85,
      "start": 40.2244,
      "duration": 0.0056,
      "velocity": 110,
      "chip": "ym2612"
    },
    {
      "channel": 0,
      "note": 52,
      "start": 40.268,
      "duration": 0.085,
      "velocity": 95,
      "chip": "ym2612"
    },
    {
      "channel": 3,
      "note": 69,
      "start": 40.2707,
      "duration": 0.0824,
      "velocity": 110,
      "chip": "ym2612"
    },
    {
      "channel": 2,
      "note": 64,
      "start": 40.2745,
      "duration": 0.0788,
      "velocity": 110,
      "chip": "ym2612"
    },
    {
      "channel": 1,
      "note": 90,
      "start": 40.2768,
      "duration": 0.0074,
      "velocity": 110,
      "chip": "ym2612"
    },
    {
      "channel": 4,
      "note": 89,
      "start": 40.2793,
      "duration": 0.0071,
      "velocity": 124,
      "chip": "ym2612"
    },
    {
      "channel": 1,
      "note": 85,
      "start": 40.3176,
      "duration": 0.0128,
      "velocity": 110,
      "chip": "ym2612"
    },
    {
      "channel": 0,
      "note": 54,
      "start": 40.3704,
      "duration": 0.1817,
      "velocity": 95,
      "chip": "ym2612"
    },
    {
      "channel": 3,
      "note": 73,
      "start": 40.3736,
      "duration": 0.7799,
      "velocity": 110,
      "chip": "ym2612"
    },
    {
      "channel": 2,
      "note": 66,
      "start": 40.3766,
      "duration": 0.777,
      "velocity": 110,
      "chip": "ym2612"
    },
    {
      "channel": 1,
      "note": 88,
      "start": 40.3789,
      "duration": 0.0093,
      "velocity": 110,
      "chip": "ym2612"
    },
    {
      "channel": 4,
      "note": 89,
      "start": 40.3827,
      "duration": 0.0077,
      "velocity": 124,
      "chip": "ym2612"
    },
    {
      "channel": 1,
      "note": 85,
      "start": 40.4209,
      "duration": 0.0047,
      "velocity": 110,
      "chip": "ym2612"
    },
    {
      "channel": 1,
      "note": 90,
      "start": 40.4708,
      "duration": 0.0116,
      "velocity": 110,
      "chip": "ym2612"
    },
    {
      "channel": 4,
      "note": 89,
      "start": 40.4768,
      "duration": 0.0109,
      "velocity": 124,
      "chip": "ym2612"
    },
    {
      "channel": 1,
      "note": 85,
      "start": 40.5192,
      "duration": 0.0054,
      "velocity": 110,
      "chip": "ym2612"
    },
    {
      "channel": 0,
      "note": 49,
      "start": 40.569,
      "duration": 0.0749,
      "velocity": 95,
      "chip": "ym2612"
    },
    {
      "channel": 1,
      "note": 91,
      "start": 40.5713,
      "duration": 0.009,
      "velocity": 110,
      "chip": "ym2612"
    },
    {
      "channel": 4,
      "note": 89,
      "start": 40.5736,
      "duration": 0.0127,
      "velocity": 124,
      "chip": "ym2612"
    },
    {
      "channel": 1,
      "note": 85,
      "start": 40.618,
      "duration": 0.0048,
      "velocity": 110,
      "chip": "ym2612"
    },
    {
      "channel": 0,
      "note": 52,
      "start": 40.6683,
      "duration": 0.0758,
      "velocity": 95,
      "chip": "ym2612"
    },
    {
      "channel": 1,
      "note": 90,
      "start": 40.6705,
      "duration": 0.009,
      "velocity": 110,
      "chip": "ym2612"
    },
    {
      "channel": 4,
      "note": 89,
      "start": 40.6739,
      "duration": 0.0111,
      "velocity": 124,
      "chip": "ym2612"
    },
    {
      "channel": 1,
      "note": 85,
      "start": 40.7179,
      "duration": 0.0047,
      "velocity": 110,
      "chip": "ym2612"
    },
    {
      "channel": 0,
      "note": 54,
      "start": 40.7687,
      "duration": 0.1751,
      "velocity": 95,
      "chip": "ym2612"
    },
    {
      "channel": 1,
      "note": 88,
      "start": 40.771,
      "duration": 0.0096,
      "velocity": 110,
      "chip": "ym2612"
    },
    {
      "channel": 4,
      "note": 89,
      "start": 40.7745,
      "duration": 0.0117,
      "velocity": 124,
      "chip": "ym2612"
    },
    {
      "channel": 1,
      "note": 85,
      "start": 40.819,
      "duration": 0.0051,
      "velocity": 110,
      "chip": "ym2612"
    },
    {
      "channel": 1,
      "note": 90,
      "start": 40.8637,
      "duration": 0.0139,
      "velocity": 110,
      "chip": "ym2612"
    },
    {
      "channel": 4,
      "note": 101,
      "start": 40.8659,
      "duration": 0.0193,
      "velocity": 124,
      "chip": "ym2612"
    },
    {
      "channel": 1,
      "note": 85,
      "start": 40.9166,
      "duration": 0.0056,
      "velocity": 110,
      "chip": "ym2612"
    },
    {
      "channel": 0,
      "note": 49,
      "start": 40.9624,
      "duration": 0.0815,
      "velocity": 95,
      "chip": "ym2612"
    },
    {
      "channel": 1,
      "note": 91,
      "start": 40.9647,
      "duration": 0.0082,
      "velocity": 110,
      "chip": "ym2612"
    },
    {
      "channel": 4,
      "note": 89,
      "start": 40.9672,
      "duration": 0.0185,
      "velocity": 124,
      "chip": "ym2612"
    },
    {
      "channel": 1,
      "note": 85,
      "start": 41.0172,
      "duration": 0.0052,
      "velocity": 110,
      "chip": "ym2612"
    },
    {
      "channel": 0,
      "note": 52,
      "start": 41.0609,
      "duration": 0.0855,
      "velocity": 95,
      "chip": "ym2612"
    },
    {
      "channel": 1,
      "note": 90,
      "start": 41.0632,
      "duration": 0.0098,
      "velocity": 110,
      "chip": "ym2612"
    },
    {
      "channel": 4,
      "note": 89,
      "start": 41.0656,
      "duration": 0.0129,
      "velocity": 124,
      "chip": "ym2612"
    },
    {
      "channel": 1,
      "note": 85,
      "start": 41.1173,
      "duration": 0.0074,
      "velocity": 110,
      "chip": "ym2612"
    },
    {
      "channel": 0,
      "note": 54,
      "start": 41.1628,
      "duration": 0.0635,
      "velocity": 95,
      "chip": "ym2612"
    },
    {
      "channel": 1,
      "note": 88,
      "start": 41.1662,
      "duration": 0.0082,
      "velocity": 110,
      "chip": "ym2612"
    },
    {
      "channel": 4,
      "note": 89,
      "start": 41.1689,
      "duration": 0.0114,
      "velocity": 124,
      "chip": "ym2612"
    },
    {
      "channel": 1,
      "note": 85,
      "start": 41.2192,
      "duration": 0.0073,
      "velocity": 110,
      "chip": "ym2612"
    },
    {
      "channel": 0,
      "note": 54,
      "start": 41.2648,
      "duration": 0.0845,
      "velocity": 95,
      "chip": "ym2612"
    },
    {
      "channel": 3,
      "note": 71,
      "start": 41.2683,
      "duration": 0.0737,
      "velocity": 110,
      "chip": "ym2612"
    },
    {
      "channel": 2,
      "note": 66,
      "start": 41.2709,
      "duration": 0.0713,
      "velocity": 110,
      "chip": "ym2612"
    },
    {
      "channel": 1,
      "note": 90,
      "start": 41.2732,
      "duration": 0.0113,
      "velocity": 110,
      "chip": "ym2612"
    },
    {
      "channel": 4,
      "note": 89,
      "start": 41.2792,
      "duration": 0.0078,
      "velocity": 124,
      "chip": "ym2612"
    },
    {
      "channel": 1,
      "note": 84,
      "start": 41.3227,
      "duration": 0.005,
      "velocity": 110,
      "chip": "ym2612"
    },
    {
      "channel": 0,
      "note": 49,
      "start": 41.3669,
      "duration": 0.0834,
      "velocity": 95,
      "chip": "ym2612"
    },
    {
      "channel": 3,
      "note": 78,
      "start": 41.3695,
      "duration": 0.0452,
      "velocity": 110,
      "chip": "ym2612"
    },
    {
      "channel": 2,
      "note": 73,
      "start": 41.3725,
      "duration": 0.0424,
      "velocity": 110,
      "chip": "ym2612"
    },
    {
      "channel": 1,
      "note": 90,
      "start": 41.3762,
      "duration": 0.0081,
      "velocity": 110,
      "chip": "ym2612"
    },
    {
      "channel": 4,
      "note": 89,
      "start": 41.3793,
      "duration": 0.0071,
      "velocity": 124,
      "chip": "ym2612"
    },
    {
      "channel": 1,
      "note": 84,
      "start": 41.4173,
      "duration": 0.0114,
      "velocity": 110,
      "chip": "ym2612"
    },
    {
      "channel": 0,
      "note": 52,
      "start": 41.4672,
      "duration": 0.0839,
      "velocity": 95,
      "chip": "ym2612"
    },
    {
      "channel": 3,
      "note": 78,
      "start": 41.4698,
      "duration": 0.0813,
      "velocity": 110,
      "chip": "ym2612"
    },
    {
      "channel": 2,
      "note": 73,
      "start": 41.4734,
      "duration": 0.0779,
      "velocity": 110,
      "chip": "ym2612"
    },
    {
      "channel": 1,
      "note": 90,
      "start": 41.4757,
      "duration": 0.0075,
      "velocity": 110,
      "chip": "ym2612"
    },
    {
      "channel": 4,
      "note": 89,
      "start": 41.4781,
      "duration": 0.0074,
      "velocity": 124,
      "chip": "ym2612"
    },
    {
      "channel": 1,
      "note": 84,
      "start": 41.5171,
      "duration": 0.005,
      "velocity": 110,
      "chip": "ym2612"
    },
    {
      "channel": 0,
      "note": 54,
      "start": 41.5692,
      "duration": 0.1754,
      "velocity": 95,
      "chip": "ym2612"
    },
    {
      "channel": 3,
      "note": 71,
      "start": 41.5718,
      "duration": 0.0797,
      "velocity": 110,
      "chip": "ym2612"
    },
    {
      "channel": 2,
      "note": 66,
      "start": 41.5745,
      "duration": 0.0772,
      "velocity": 110,
      "chip": "ym2612"
    },
    {
      "channel": 1,
      "note": 90,
      "start": 41.5769,
      "duration": 0.0081,
      "velocity": 110,
      "chip": "ym2612"
    },
    {
      "channel": 4,
      "note": 89,
      "start": 41.5791,
      "duration": 0.0079,
      "velocity": 124,
      "chip": "ym2612"
    },
    {
      "channel": 1,
      "note": 84,
      "start": 41.6184,
      "duration": 0.0043,
      "velocity": 110,
      "chip": "ym2612"
    },
    {
      "channel": 3,
      "note": 75,
      "start": 41.6691,
      "duration": 0.0683,
      "velocity": 110,
      "chip": "ym2612"
    },
    {
      "channel": 2,
      "note": 70,
      "start": 41.6726,
      "duration": 0.0649,
      "velocity": 110,
      "chip": "ym2612"
    },
    {
      "channel": 1,
      "note": 90,
      "start": 41.6749,
      "duration": 0.0078,
      "velocity": 110,
      "chip": "ym2612"
    },
    {
      "channel": 4,
      "note": 101,
      "start": 41.6775,
      "duration": 0.0099,
      "velocity": 124,
      "chip": "ym2612"
    },
    {
      "channel": 1,
      "note": 84,
      "start": 41.7178,
      "duration": 0.0054,
      "velocity": 110,
      "chip": "ym2612"
    },
    {
      "channel": 0,
      "note": 49,
      "start": 41.7696,
      "duration": 0.076,
      "velocity": 95,
      "chip": "ym2612"
    },
    {
      "channel": 3,
      "note": 77,
      "start": 41.7724,
      "duration": 0.0733,
      "velocity": 110,
      "chip": "ym2612"
    },
    {
      "channel": 2,
      "note": 72,
      "start": 41.7752,
      "duration": 0.0707,
      "velocity": 110,
      "chip": "ym2612"
    },
    {
      "channel": 1,
      "note": 90,
      "start": 41.7787,
      "duration": 0.0074,
      "velocity": 110,
      "chip": "ym2612"
    },
    {
      "channel": 4,
      "note": 89,
      "start": 41.781,
      "duration": 0.0072,
      "velocity": 124,
      "chip": "ym2612"
    },
    {
      "channel": 1,
      "note": 84,
      "start": 41.8195,
      "duration": 0.0044,
      "velocity": 110,
      "chip": "ym2612"
    },
    {
      "channel": 0,
      "note": 52,
      "start": 41.87,
      "duration": 0.0782,
      "velocity": 95,
      "chip": "ym2612"
    },
    {
      "channel": 3,
      "note": 75,
      "start": 41.8739,
      "duration": 0.0669,
      "velocity": 110,
      "chip": "ym2612"
    },
    {
      "channel": 2,
      "note": 70,
      "start": 41.8766,
      "duration": 0.0645,
      "velocity": 110,
      "chip": "ym2612"
    },
    {
      "channel": 1,
      "note": 90,
      "start": 41.8788,
      "duration": 0.0083,
      "velocity": 110,
      "chip": "ym2612"
    },
    {
      "channel": 4,
      "note": 89,
      "start": 41.8818,
      "duration": 0.0076,
      "velocity": 124,
      "chip": "ym2612"
    },
    {
      "channel": 1,
      "note": 84,
      "start": 41.9211,
      "duration": 0.005,
      "velocity": 110,
      "chip": "ym2612"
    },
    {
      "channel": 0,
      "note": 54,
      "start": 41.9657,
      "duration": 0.1831,
      "velocity": 95,
      "chip": "ym2612"
    },
    {
      "channel": 3,
      "note": 78,
      "start": 41.9685,
      "duration": 0.733,
      "velocity": 110,
      "chip": "ym2612"
    },
    {
      "channel": 2,
      "note": 73,
      "start": 41.9725,
      "duration": 0.7293,
      "velocity": 110,
      "chip": "ym2612"
    },
    {
      "channel": 1,
      "note": 90,
      "start": 41.975,
      "duration": 0.0093,
      "velocity": 110,
      "chip": "ym2612"
    },
    {
      "channel": 4,
      "note": 89,
      "start": 41.9776,
      "duration": 0.0137,
      "velocity": 124,
      "chip": "ym2612"
    },
    {
      "channel": 1,
      "note": 84,
      "start": 42.0233,
      "duration": 0.0053,
      "velocity": 110,
      "chip": "ym2612"
    },
    {
      "channel": 1,
      "note": 90,
      "start": 42.0669,
      "duration": 0.0113,
      "velocity": 110,
      "chip": "ym2612"
    },
    {
      "channel": 4,
      "note": 89,
      "start": 42.0727,
      "duration": 0.0107,
      "velocity": 124,
      "chip": "ym2612"
    },
    {
      "channel": 1,
      "note": 84,
      "start": 42.122,
      "duration": 0.005,
      "velocity": 110,
      "chip": "ym2612"
    },
    {
      "channel": 0,
      "note": 49,
      "start": 42.1662,
      "duration": 0.0745,
      "velocity": 95,
      "chip": "ym2612"
    },
    {
      "channel": 1,
      "note": 90,
      "start": 42.1687,
      "duration": 0.0083,
      "velocity": 110,
      "chip": "ym2612"
    },
    {
      "channel": 4,
      "note": 89,
      "start": 42.171,
      "duration": 0.012,
      "velocity": 124,
      "chip": "ym2612"
    },
    {
      "channel": 1,
      "note": 84,
      "start": 42.221,
      "duration": 0.0053,
      "velocity": 110,
      "chip": "ym2612"
    },
    {
      "channel": 0,
      "note": 52,
      "start": 42.2644,
      "duration": 0.0812,
      "velocity": 95,
      "chip": "ym2612"
    },
    {
      "channel": 1,
      "note": 90,
      "start": 42.2667,
      "duration": 0.0088,
      "velocity": 110,
      "chip": "ym2612"
    },
    {
      "channel": 4,
      "note": 89,
      "start": 42.2701,
      "duration": 0.0107,
      "velocity": 124,
      "chip": "ym2612"
    },
    {
      "channel": 1,
      "note": 84,
      "start": 42.3188,
      "duration": 0.0056,
      "velocity": 110,
      "chip": "ym2612"
    },
    {
      "channel": 0,
      "note": 54,
      "start": 42.3628,
      "duration": 0.1813,
      "velocity": 95,
      "chip": "ym2612"
    },
    {
      "channel": 1,
      "note": 90,
      "start": 42.3651,
      "duration": 0.0094,
      "velocity": 110,
      "chip": "ym2612"
    },
    {
      "channel": 4,
      "note": 89,
      "start": 42.3685,
      "duration": 0.0116,
      "velocity": 124,
      "chip": "ym2612"
    },
    {
      "channel": 1,
      "note": 84,
      "start": 42.4188,
      "duration": 0.0053,
      "velocity": 110,
      "chip": "ym2612"
    },
    {
      "channel": 1,
      "note": 90,
      "start": 42.4632,
      "duration": 0.0088,
      "velocity": 110,
      "chip": "ym2612"
    },
    {
      "channel": 4,
      "note": 101,
      "start": 42.4655,
      "duration": 0.013,
      "velocity": 124,
      "chip": "ym2612"
    },
    {
      "channel": 1,
      "note": 84,
      "start": 42.5102,
      "duration": 0.005,
      "velocity": 110,
      "chip": "ym2612"
    },
    {
      "channel": 0,
      "note": 49,
      "start": 42.5613,
      "duration": 0.0838,
      "velocity": 95,
      "chip": "ym2612"
    },
    {
      "channel": 1,
      "note": 90,
      "start": 42.5647,
      "duration": 0.0084,
      "velocity": 110,
      "chip": "ym2612"
    },
    {
      "channel": 4,
      "note": 89,
      "start": 42.5671,
      "duration": 0.0117,
      "velocity": 124,
      "chip": "ym2612"
    },
    {
      "channel": 1,
      "note": 84,
      "start": 42.6115,
      "duration": 0.0051,
      "velocity": 110,
      "chip": "ym2612"
    },
    {
      "channel": 0,
      "note": 52,
      "start": 42.6619,
      "duration": 0.084,
      "velocity": 95,
      "chip": "ym2612"
    },
    {
      "channel": 1,
      "note": 90,
      "start": 42.6642,
      "duration": 0.0102,
      "velocity": 110,
      "chip": "ym2612"
    },
    {
      "channel": 4,
      "note": 89,
      "start": 42.6667,
      "duration": 0.0136,
      "velocity": 124,
      "chip": "ym2612"
    },
    {
      "channel": 1,
      "note": 84,
      "start": 42.712,
      "duration": 0.005,
      "velocity": 110,
      "chip": "ym2612"
    },
    {
      "channel": 0,
      "note": 54,
      "start": 42.7629,
      "duration": 0.0468,
      "velocity": 95,
      "chip": "ym2612"
    },
    {
      "channel": 1,
      "note": 90,
      "start": 42.7654,
      "duration": 0.01,
      "velocity": 110,
      "chip": "ym2612"
    },
    {
      "channel": 4,
      "note": 89,
      "start": 42.7694,
      "duration": 0.0114,
      "velocity": 124,
      "chip": "ym2612"
    },
    {
      "channel": 1,
      "note": 84,
      "start": 42.8137,
      "duration": 0.0052,
      "velocity": 110,
      "chip": "ym2612"
    },
    {
      "channel": 0,
      "note": 54,
      "start": 42.8641,
      "duration": 0.0785,
      "velocity": 95,
      "chip": "ym2612"
    },
    {
      "channel": 3,
      "note": 77,
      "start": 42.8671,
      "duration": 0.0459,
      "velocity": 110,
      "chip": "ym2612"
    },
    {
      "channel": 2,
      "note": 72,
      "start": 42.871,
      "duration": 0.0421,
      "velocity": 110,
      "chip": "ym2612"
    },
    {
      "channel": 1,
      "note": 90,
      "start": 42.8735,
      "duration": 0.0122,
      "velocity": 110,
      "chip": "ym2612"
    },
    {
      "channel": 4,
      "note": 89,
      "start": 42.88,
      "duration": 0.0079,
      "velocity": 124,
      "chip": "ym2612"
    },
    {
      "channel": 1,
      "note": 84,
      "start": 42.9159,
      "duration": 0.0052,
      "velocity": 110,
      "chip": "ym2612"
    },
    {
      "channel": 0,
      "note": 47,
      "start": 42.9678,
      "duration": 0.0771,
      "velocity": 95,
      "chip": "ym2612"
    },
    {
      "channel": 3,
      "note": 71,
      "start": 42.9705,
      "duration": 0.0681,
      "velocity": 110,
      "chip": "ym2612"
    },
    {
      "channel": 2,
      "note": 66,
      "start": 42.9731,
      "duration": 0.0656,
      "velocity": 110,
      "chip": "ym2612"
    },
    {
      "channel": 1,
      "note": 90,
      "start": 42.9766,
      "duration": 0.0083,
      "velocity": 110,
      "chip": "ym2612"
    },
    {
      "channel": 4,
      "note": 89,
      "start": 42.9793,
      "duration": 0.0077,
      "velocity": 124,
      "chip": "ym2612"
    },
    {
      "channel": 1,
      "note": 84,
      "start": 43.0187,
      "duration": 0.0042,
      "velocity": 110,
      "chip": "ym2612"
    },
    {
      "channel": 0,
      "note": 49,
      "start": 43.0624,
      "duration": 0.0841,
      "velocity": 95,
      "chip": "ym2612"
    },
    {
      "channel": 3,
      "note": 75,
      "start": 43.065,
      "duration": 0.0743,
      "velocity": 110,
      "chip": "ym2612"
    },
    {
      "channel": 2,
      "note": 70,
      "start": 43.0675,
      "duration": 0.072,
      "velocity": 110,
      "chip": "ym2612"
    },
    {
      "channel": 1,
      "note": 90,
      "start": 43.0713,
      "duration": 0.0076,
      "velocity": 110,
      "chip": "ym2612"
    },
    {
      "channel": 4,
      "note": 89,
      "start": 43.0737,
      "duration": 0.0135,
      "velocity": 124,
      "chip": "ym2612"
    },
    {
      "channel": 1,
      "note": 84,
      "start": 43.119,
      "duration": 0.0057,
      "velocity": 110,
      "chip": "ym2612"
    },
    {
      "channel": 0,
      "note": 47,
      "start": 43.1634,
      "duration": 0.0855,
      "velocity": 95,
      "chip": "ym2612"
    },
    {
      "channel": 3,
      "note": 77,
      "start": 43.1668,
      "duration": 0.0738,
      "velocity": 110,
      "chip": "ym2612"
    },
    {
      "channel": 2,
      "note": 72,
      "start": 43.1699,
      "duration": 0.0709,
      "velocity": 110,
      "chip": "ym2612"
    },
    {
      "channel": 1,
      "note": 90,
      "start": 43.1722,
      "duration": 0.0075,
      "velocity": 110,
      "chip": "ym2612"
    },
    {
      "channel": 4,
      "note": 89,
      "start": 43.1749,
      "duration": 0.0071,
      "velocity": 124,
      "chip": "ym2612"
    },
    {
      "channel": 1,
      "note": 84,
      "start": 43.2205,
      "duration": 0.0054,
      "velocity": 110,
      "chip": "ym2612"
    },
    {
      "channel": 0,
      "note": 49,
      "start": 43.2659,
      "duration": 0.1323,
      "velocity": 95,
      "chip": "ym2612"
    },
    {
      "channel": 3,
      "note": 75,
      "start": 43.2685,
      "duration": 0.0734,
      "velocity": 110,
      "chip": "ym2612"
    },
    {
      "channel": 2,
      "note": 70,
      "start": 43.2712,
      "duration": 0.0708,
      "velocity": 110,
      "chip": "ym2612"
    },
    {
      "channel": 1,
      "note": 90,
      "start": 43.2736,
      "duration": 0.0084,
      "velocity": 110,
      "chip": "ym2612"
    },
    {
      "channel": 4,
      "note": 101,
      "start": 43.2758,
      "duration": 0.0083,
      "velocity": 124,
      "chip": "ym2612"
    },
    {
      "channel": 1,
      "note": 84,
      "start": 43.3222,
      "duration": 0.0054,
      "velocity": 110,
      "chip": "ym2612"
    },
    {
      "channel": 3,
      "note": 71,
      "start": 43.3664,
      "duration": 0.0837,
      "velocity": 110,
      "chip": "ym2612"
    },
    {
      "channel": 2,
      "note": 66,
      "start": 43.37,
      "duration": 0.0803,
      "velocity": 110,
      "chip": "ym2612"
    },
    {
      "channel": 1,
      "note": 90,
      "start": 43.3725,
      "duration": 0.0075,
      "velocity": 110,
      "chip": "ym2612"
    },
    {
      "channel": 4,
      "note": 89,
      "start": 43.375,
      "duration": 0.0089,
      "velocity": 124,
      "chip": "ym2612"
    },
    {
      "channel": 1,
      "note": 84,
      "start": 43.4239,
      "duration": 0.0051,
      "velocity": 110,
      "chip": "ym2612"
    },
    {
      "channel": 0,
      "note": 49,
      "start": 43.4678,
      "duration": 0.1837,
      "velocity": 95,
      "chip": "ym2612"
    },
    {
      "channel": 3,
      "note": 77,
      "start": 43.4705,
      "duration": 0.0734,
      "velocity": 110,
      "chip": "ym2612"
    },
    {
      "channel": 2,
      "note": 72,
      "start": 43.4731,
      "duration": 0.0709,
      "velocity": 110,
      "chip": "ym2612"
    },
    {
      "channel": 1,
      "note": 90,
      "start": 43.4768,
      "duration": 0.0075,
      "velocity": 110,
      "chip": "ym2612"
    },
    {
      "channel": 4,
      "note": 89,
      "start": 43.4792,
      "duration": 0.0075,
      "velocity": 124,
      "chip": "ym2612"
    },
    {
      "channel": 1,
      "note": 84,
      "start": 43.518,
      "duration": 0.0114,
      "velocity": 110,
      "chip": "ym2612"
    },
    {
      "channel": 3,
      "note": 78,
      "start": 43.569,
      "duration": 0.5687,
      "velocity": 110,
      "chip": "ym2612"
    },
    {
      "channel": 2,
      "note": 73,
      "start": 43.5728,
      "duration": 0.565,
      "velocity": 110,
      "chip": "ym2612"
    },
    {
      "channel": 1,
      "note": 90,
      "start": 43.5752,
      "duration": 0.0073,
      "velocity": 110,
      "chip": "ym2612"
    },
    {
      "channel": 4,
      "note": 89,
      "start": 43.5779,
      "duration": 0.0073,
      "velocity": 124,
      "chip": "ym2612"
    },
    {
      "channel": 1,
      "note": 84,
      "start": 43.617,
      "duration": 0.005,
      "velocity": 110,
      "chip": "ym2612"
    },
    {
      "channel": 0,
      "note": 54,
      "start": 43.6692,
      "duration": 0.0811,
      "velocity": 95,
      "chip": "ym2612"
    },
    {
      "channel": 1,
      "note": 90,
      "start": 43.6715,
      "duration": 0.0115,
      "velocity": 110,
      "chip": "ym2612"
    },
    {
      "channel": 4,
      "note": 89,
      "start": 43.678,
      "duration": 0.0072,
      "velocity": 124,
      "chip": "ym2612"
    },
    {
      "channel": 1,
      "note": 84,
      "start": 43.717,
      "duration": 0.0045,
      "velocity": 110,
      "chip": "ym2612"
    },
    {
      "channel": 0,
      "note": 47,
      "start": 43.7686,
      "duration": 0.082,
      "velocity": 95,
      "chip": "ym2612"
    },
    {
      "channel": 1,
      "note": 90,
      "start": 43.7708,
      "duration": 0.0087,
      "velocity": 110,
      "chip": "ym2612"
    },
    {
      "channel": 4,
      "note": 89,
      "start": 43.7738,
      "duration": 0.0114,
      "velocity": 124,
      "chip": "ym2612"
    },
    {
      "channel": 1,
      "note": 84,
      "start": 43.8175,
      "duration": 0.0051,
      "velocity": 110,
      "chip": "ym2612"
    },
    {
      "channel": 0,
      "note": 49,
      "start": 43.8679,
      "duration": 0.0761,
      "velocity": 95,
      "chip": "ym2612"
    },
    {
      "channel": 1,
      "note": 90,
      "start": 43.8703,
      "duration": 0.0086,
      "velocity": 110,
      "chip": "ym2612"
    },
    {
      "channel": 4,
      "note": 89,
      "start": 43.8737,
      "duration": 0.0114,
      "velocity": 124,
      "chip": "ym2612"
    },
    {
      "channel": 1,
      "note": 84,
      "start": 43.9181,
      "duration": 0.0049,
      "velocity": 110,
      "chip": "ym2612"
    },
    {
      "channel": 0,
      "note": 47,
      "start": 43.968,
      "duration": 0.0767,
      "velocity": 95,
      "chip": "ym2612"
    },
    {
      "channel": 1,
      "note": 90,
      "start": 43.9704,
      "duration": 0.0099,
      "velocity": 110,
      "chip": "ym2612"
    },
    {
      "channel": 4,
      "note": 89,
      "start": 43.9744,
      "duration": 0.0113,
      "velocity": 124,
      "chip": "ym2612"
    },
    {
      "channel": 1,
      "note": 84,
      "start": 44.0186,
      "duration": 0.0047,
      "velocity": 110,
      "chip": "ym2612"
    },
    {
      "channel": 0,
      "note": 49,
      "start": 44.063,
      "duration": 0.1206,
      "velocity": 95,
      "chip": "ym2612"
    },
    {
      "channel": 1,
      "note": 90,
      "start": 44.0654,
      "duration": 0.0135,
      "velocity": 110,
      "chip": "ym2612"
    },
    {
      "channel": 4,
      "note": 101,
      "start": 44.0678,
      "duration": 0.0179,
      "velocity": 124,
      "chip": "ym2612"
    },
    {
      "channel": 1,
      "note": 84,
      "start": 44.1179,
      "duration": 0.0044,
      "velocity": 110,
      "chip": "ym2612"
    },
    {
      "channel": 1,
      "note": 90,
      "start": 44.1606,
      "duration": 0.0083,
      "velocity": 110,
      "chip": "ym2612"
    },
    {
      "channel": 4,
      "note": 89,
      "start": 44.1631,
      "duration": 0.0207,
      "velocity": 124,
      "chip": "ym2612"
    },
    {
      "channel": 0,
      "note": 49,
      "start": 44.2159,
      "duration": 0.2096,
      "velocity": 95,
      "chip": "ym2612"
    },
    {
      "channel": 1,
      "note": 84,
      "start": 44.2184,
      "duration": 0.003,
      "velocity": 110,
      "chip": "ym2612"
    },
    {
      "channel": 1,
      "note": 90,
      "start": 44.2617,
      "duration": 0.0076,
      "velocity": 110,
      "chip": "ym2612"
    },
    {
      "channel": 4,
      "note": 89,
      "start": 44.264,
      "duration": 0.0116,
      "velocity": 124,
      "chip": "ym2612"
    },
    {
      "channel": 1,
      "note": 84,
      "start": 44.3144,
      "duration": 0.0053,
      "velocity": 110,
      "chip": "ym2612"
    },
    {
      "channel": 1,
      "note": 90,
      "start": 44.3582,
      "duration": 0.0091,
      "velocity": 110,
      "chip": "ym2612"
    },
    {
      "channel": 4,
      "note": 89,
      "start": 44.3617,
      "duration": 0.0114,
      "velocity": 124,
      "chip": "ym2612"
    },
    {
      "channel": 1,
      "note": 84,
      "start": 44.4119,
      "duration": 0.0054,
      "velocity": 110,
      "chip": "ym2612"
    },
    {
      "channel": 0,
      "note": 54,
      "start": 44.4555,
      "duration": 0.0846,
      "velocity": 95,
      "chip": "ym2612"
    },
    {
      "channel": 3,
      "note": 77,
      "start": 44.4591,
      "duration": 0.0514,
      "velocity": 110,
      "chip": "ym2612"
    },
    {
      "channel": 2,
      "note": 72,
      "start": 44.4618,
      "duration": 0.0489,
      "velocity": 110,
      "chip": "ym2612"
    },
    {
      "channel": 1,
      "note": 90,
      "start": 44.4641,
      "duration": 0.012,
      "velocity": 110,
      "chip": "ym2612"
    },
    {
      "channel": 4,
      "note": 89,
      "start": 44.4704,
      "duration": 0.0079,
      "velocity": 124,
      "chip": "ym2612"
    },
    {
      "channel": 1,
      "note": 84,
      "start": 44.5141,
      "duration": 0.005,
      "velocity": 110,
      "chip": "ym2612"
    },
    {
      "channel": 0,
      "note": 49,
      "start": 44.558,
      "duration": 0.0849,
      "velocity": 95,
      "chip": "ym2612"
    },
    {
      "channel": 3,
      "note": 71,
      "start": 44.5607,
      "duration": 0.0823,
      "velocity": 110,
      "chip": "ym2612"
    },
    {
      "channel": 2,
      "note": 66,
      "start": 44.5638,
      "duration": 0.0793,
      "velocity": 110,
      "chip": "ym2612"
    },
    {
      "channel": 1,
      "note": 90,
      "start": 44.5674,
      "duration": 0.0082,
      "velocity": 110,
      "chip": "ym2612"
    },
    {
      "channel": 4,
      "note": 89,
      "start": 44.5704,
      "duration": 0.0075,
      "velocity": 124,
      "chip": "ym2612"
    },
    {
      "channel": 1,
      "note": 84,
      "start": 44.6094,
      "duration": 0.0118,
      "velocity": 110,
      "chip": "ym2612"
    },
    {
      "channel": 0,
      "note": 52,
      "start": 44.6592,
      "duration": 0.0836,
      "velocity": 95,
      "chip": "ym2612"
    },
    {
      "channel": 3,
      "note": 75,
      "start": 44.6619,
      "duration": 0.0739,
      "velocity": 110,
      "chip": "ym2612"
    },
    {
      "channel": 2,
      "note": 70,
      "start": 44.6657,
      "duration": 0.0702,
      "velocity": 110,
      "chip": "ym2612"
    },
    {
      "channel": 1,
      "note": 90,
      "start": 44.668,
      "duration": 0.0073,
      "velocity": 110,
      "chip": "ym2612"
    },
    {
      "channel": 4,
      "note": 89,
      "start": 44.6704,
      "duration": 0.0069,
      "velocity": 124,
      "chip": "ym2612"
    },
    {
      "channel": 1,
      "note": 84,
      "start": 44.7086,
      "duration": 0.0054,
      "velocity": 110,
      "chip": "ym2612"
    },
    {
      "channel": 0,
      "note": 54,
      "start": 44.7612,
      "duration": 0.182,
      "velocity": 95,
      "chip": "ym2612"
    },
    {
      "channel": 3,
      "note": 77,
      "start": 44.7638,
      "duration": 0.08,
      "velocity": 110,
      "chip": "ym2612"
    },
    {
      "channel": 2,
      "note": 72,
      "start": 44.7664,
      "duration": 0.0774,
      "velocity": 110,
      "chip": "ym2612"
    },
    {
      "channel": 1,
      "note": 90,
      "start": 44.7687,
      "duration": 0.0086,
      "velocity": 110,
      "chip": "ym2612"
    },
    {
      "channel": 4,
      "note": 89,
      "start": 44.7712,
      "duration": 0.0083,
      "velocity": 124,
      "chip": "ym2612"
    },
    {
      "channel": 1,
      "note": 84,
      "start": 44.811,
      "duration": 0.0042,
      "velocity": 110,
      "chip": "ym2612"
    },
    {
      "channel": 3,
      "note": 75,
      "start": 44.8606,
      "duration": 0.0828,
      "velocity": 110,
      "chip": "ym2612"
    },
    {
      "channel": 2,
      "note": 70,
      "start": 44.8641,
      "duration": 0.0793,
      "velocity": 110,
      "chip": "ym2612"
    },
    {
      "channel": 1,
      "note": 90,
      "start": 44.8665,
      "duration": 0.007,
      "velocity": 110,
      "chip": "ym2612"
    },
    {
      "channel": 4,
      "note": 101,
      "start": 44.8689,
      "duration": 0.0097,
      "velocity": 124,
      "chip": "ym2612"
    },
    {
      "channel": 1,
      "note": 84,
      "start": 44.9088,
      "duration": 0.0054,
      "velocity": 110,
      "chip": "ym2612"
    },
    {
      "channel": 0,
      "note": 49,
      "start": 44.961,
      "duration": 0.0759,
      "velocity": 95,
      "chip": "ym2612"
    },
    {
      "channel": 3,
      "note": 71,
      "start": 44.9639,
      "duration": 0.0732,
      "velocity": 110,
      "chip": "ym2612"
    },
    {
      "channel": 2,
      "note": 66,
      "start": 44.9676,
      "duration": 0.0697,
      "velocity": 110,
      "chip": "ym2612"
    },
    {
      "channel": 1,
      "note": 90,
      "start": 44.97,
      "duration": 0.0079,
      "velocity": 110,
      "chip": "ym2612"
    },
    {
      "channel": 4,
      "note": 89,
      "start": 44.9726,
      "duration": 0.0075,
      "velocity": 124,
      "chip": "ym2612"
    },
    {
      "channel": 1,
      "note": 84,
      "start": 45.0109,
      "duration": 0.0047,
      "velocity": 110,
      "chip": "ym2612"
    },
    {
      "channel": 0,
      "note": 52,
      "start": 45.061,
      "duration": 0.0707,
      "velocity": 95,
      "chip": "ym2612"
    },
    {
      "channel": 3,
      "note": 75,
      "start": 45.0636,
      "duration": 0.0757,
      "velocity": 110,
      "chip": "ym2612"
    },
    {
      "channel": 2,
      "note": 70,
      "start": 45.0674,
      "duration": 0.072,
      "velocity": 110,
      "chip": "ym2612"
    },
    {
      "channel": 1,
      "note": 90,
      "start": 45.0697,
      "duration": 0.008,
      "velocity": 110,
      "chip": "ym2612"
    },
    {
      "channel": 4,
      "note": 89,
      "start": 45.0721,
      "duration": 0.0077,
      "velocity": 124,
      "chip": "ym2612"
    },
    {
      "channel": 1,
      "note": 84,
      "start": 45.1119,
      "duration": 0.0055,
      "velocity": 110,
      "chip": "ym2612"
    },
    {
      "channel": 0,
      "note": 54,
      "start": 45.1557,
      "duration": 0.0835,
      "velocity": 95,
      "chip": "ym2612"
    },
    {
      "channel": 3,
      "note": 77,
      "start": 45.1584,
      "duration": 0.0738,
      "velocity": 110,
      "chip": "ym2612"
    },
    {
      "channel": 2,
      "note": 72,
      "start": 45.1619,
      "duration": 0.0705,
      "velocity": 110,
      "chip": "ym2612"
    },
    {
      "channel": 1,
      "note": 90,
      "start": 45.1642,
      "duration": 0.01,
      "velocity": 110,
      "chip": "ym2612"
    },
    {
      "channel": 4,
      "note": 89,
      "start": 45.167,
      "duration": 0.0152,
      "velocity": 124,
      "chip": "ym2612"
    },
    {
      "channel": 1,
      "note": 84,
      "start": 45.2126,
      "duration": 0.0053,
      "velocity": 110,
      "chip": "ym2612"
    },
    {
      "channel": 0,
      "note": 47,
      "start": 45.2576,
      "duration": 0.0838,
      "velocity": 95,
      "chip": "ym2612"
    },
    {
      "channel": 3,
      "note": 80,
      "start": 45.2603,
      "duration": 0.7202,
      "velocity": 110,
      "chip": "ym2612"
    },
    {
      "channel": 2,
      "note": 73,
      "start": 45.2634,
      "duration": 0.7173,
      "velocity": 110,
      "chip": "ym2612"
    },
    {
      "channel": 1,
      "note": 90,
      "start": 45.2659,
      "duration": 0.0109,
      "velocity": 110,
      "chip": "ym2612"
    },
    {
      "channel": 4,
      "note": 89,
      "start": 45.2715,
      "duration": 0.0111,
      "velocity": 124,
      "chip": "ym2612"
    },
    {
      "channel": 1,
      "note": 84,
      "start": 45.3154,
      "duration": 0.0047,
      "velocity": 110,
      "chip": "ym2612"
    },
    {
      "channel": 0,
      "note": 49,
      "start": 45.359,
      "duration": 0.0813,
      "velocity": 95,
      "chip": "ym2612"
    },
    {
      "channel": 1,
      "note": 90,
      "start": 45.3615,
      "duration": 0.0091,
      "velocity": 110,
      "chip": "ym2612"
    },
    {
      "channel": 4,
      "note": 89,
      "start": 45.3644,
      "duration": 0.0119,
      "velocity": 124,
      "chip": "ym2612"
    },
    {
      "channel": 1,
      "note": 84,
      "start": 45.4139,
      "duration": 0.0055,
      "velocity": 110,
      "chip": "ym2612"
    },
    {
      "channel": 0,
      "note": 54,
      "start": 45.4579,
      "duration": 0.0829,
      "velocity": 95,
      "chip": "ym2612"
    },
    {
      "channel": 1,
      "note": 90,
      "start": 45.4602,
      "duration": 0.0091,
      "velocity": 110,
      "chip": "ym2612"
    },
    {
      "channel": 4,
      "note": 89,
      "start": 45.4636,
      "duration": 0.0112,
      "velocity": 124,
      "chip": "ym2612"
    },
    {
      "channel": 1,
      "note": 85,
      "start": 45.5141,
      "duration": 0.0056,
      "velocity": 110,
      "chip": "ym2612"
    },
    {
      "channel": 0,
      "note": 52,
      "start": 45.5584,
      "duration": 0.1823,
      "velocity": 95,
      "chip": "ym2612"
    },
    {
      "channel": 1,
      "note": 90,
      "start": 45.5607,
      "duration": 0.0096,
      "velocity": 110,
      "chip": "ym2612"
    },
    {
      "channel": 4,
      "note": 89,
      "start": 45.5641,
      "duration": 0.0117,
      "velocity": 124,
      "chip": "ym2612"
    },
    {
      "channel": 1,
      "note": 84,
      "start": 45.6145,
      "duration": 0.0054,
      "velocity": 110,
      "chip": "ym2612"
    },
    {
      "channel": 1,
      "note": 90,
      "start": 45.6587,
      "duration": 0.0085,
      "velocity": 110,
      "chip": "ym2612"
    },
    {
      "channel": 4,
      "note": 101,
      "start": 45.6615,
      "duration": 0.0129,
      "velocity": 124,
      "chip": "ym2612"
    },
    {
      "channel": 1,
      "note": 85,
      "start": 45.7059,
      "duration": 0.0125,
      "velocity": 110,
      "chip": "ym2612"
    },
    {
      "channel": 0,
      "note": 54,
      "start": 45.7586,
      "duration": 0.0823,
      "velocity": 95,
      "chip": "ym2612"
    },
    {
      "channel": 1,
      "note": 90,
      "start": 45.7609,
      "duration": 0.0077,
      "velocity": 110,
      "chip": "ym2612"
    },
    {
      "channel": 4,
      "note": 89,
      "start": 45.7634,
      "duration": 0.0112,
      "velocity": 124,
      "chip": "ym2612"
    },
    {
      "channel": 1,
      "note": 84,
      "start": 45.8077,
      "duration": 0.0048,
      "velocity": 110,
      "chip": "ym2612"
    },
    {
      "channel": 0,
      "note": 52,
      "start": 45.8585,
      "duration": 0.1515,
      "velocity": 95,
      "chip": "ym2612"
    },
    {
      "channel": 1,
      "note": 90,
      "start": 45.8608,
      "duration": 0.0091,
      "velocity": 110,
      "chip": "ym2612"
    },
    {
      "channel": 4,
      "note": 89,
      "start": 45.8644,
      "duration": 0.0104,
      "velocity": 124,
      "chip": "ym2612"
    },
    {
      "channel": 1,
      "note": 85,
      "start": 45.9074,
      "duration": 0.0051,
      "velocity": 110,
      "chip": "ym2612"
    },
    {
      "channel": 1,
      "note": 90,
      "start": 45.9583,
      "duration": 0.0091,
      "velocity": 110,
      "chip": "ym2612"
    },
    {
      "channel": 4,
      "note": 89,
      "start": 45.9608,
      "duration": 0.0126,
      "velocity": 124,
      "chip": "ym2612"
    },
    {
      "channel": 1,
      "note": 85,
      "start": 46.0059,
      "duration": 0.0041,
      "velocity": 110,
      "chip": "ym2612"
    },
    {
      "channel": 0,
      "note": 54,
      "start": 46.0553,
      "duration": 0.0793,
      "velocity": 95,
      "chip": "ym2612"
    },
    {
      "channel": 3,
      "note": 79,
      "start": 46.0589,
      "duration": 0.0294,
      "velocity": 110,
      "chip": "ym2612"
    },
    {
      "channel": 2,
      "note": 74,
      "start": 46.0616,
      "duration": 0.0269,
      "velocity": 110,
      "chip": "ym2612"
    },
    {
      "channel": 1,
      "note": 90,
      "start": 46.0639,
      "duration": 0.0112,
      "velocity": 110,
      "chip": "ym2612"
    },
    {
      "channel": 4,
      "note": 89,
      "start": 46.0695,
      "duration": 0.0078,
      "velocity": 124,
      "chip": "ym2612"
    },
    {
      "channel": 3,
      "note": 78,
      "start": 46.1056,
      "duration": 0.0292,
      "velocity": 110,
      "chip": "ym2612"
    },
    {
      "channel": 2,
      "note": 73,
      "start": 46.1083,
      "duration": 0.0268,
      "velocity": 110,
      "chip": "ym2612"
    },
    {
      "channel": 1,
      "note": 85,
      "start": 46.1114,
      "duration": 0.0014,
      "velocity": 110,
      "chip": "ym2612"
    },
    {
      "channel": 0,
      "note": 49,
      "start": 46.16,
      "duration": 0.0758,
      "velocity": 95,
      "chip": "ym2612"
    },
    {
      "channel": 3,
      "note": 77,
      "start": 46.1627,
      "duration": 0.0447,
      "velocity": 110,
      "chip": "ym2612"
    },
    {
      "channel": 2,
      "note": 72,
      "start": 46.1657,
      "duration": 0.0419,
      "velocity": 110,
      "chip": "ym2612"
    },
    {
      "channel": 1,
      "note": 91,
      "start": 46.168,
      "duration": 0.0084,
      "velocity": 110,
      "chip": "ym2612"
    },
    {
      "channel": 4,
      "note": 89,
      "start": 46.1705,
      "duration": 0.0084,
      "velocity": 124,
      "chip": "ym2612"
    },
    {
      "channel": 1,
      "note": 85,
      "start": 46.2101,
      "duration": 0.0041,
      "velocity": 110,
      "chip": "ym2612"
    },
    {
      "channel": 0,
      "note": 52,
      "start": 46.2537,
      "duration": 0.0858,
      "velocity": 95,
      "chip": "ym2612"
    },
    {
      "channel": 3,
      "note": 81,
      "start": 46.2564,
      "duration": 0.0373,
      "velocity": 110,
      "chip": "ym2612"
    },
    {
      "channel": 2,
      "note": 76,
      "start": 46.259,
      "duration": 0.0349,
      "velocity": 110,
      "chip": "ym2612"
    },
    {
      "channel": 1,
      "note": 90,
      "start": 46.2627,
      "duration": 0.0093,
      "velocity": 110,
      "chip": "ym2612"
    },
    {
      "channel": 4,
      "note": 89,
      "start": 46.2652,
      "duration": 0.0139,
      "velocity": 124,
      "chip": "ym2612"
    },
    {
      "channel": 3,
      "note": 80,
      "start": 46.3108,
      "duration": 0.0288,
      "velocity": 110,
      "chip": "ym2612"
    },
    {
      "channel": 2,
      "note": 75,
      "start": 46.3133,
      "duration": 0.0264,
      "velocity": 110,
      "chip": "ym2612"
    },
    {
      "channel": 1,
      "note": 85,
      "start": 46.3165,
      "duration": 0.0015,
      "velocity": 110,
      "chip": "ym2612"
    },
    {
      "channel": 0,
      "note": 54,
      "start": 46.3566,
      "duration": 0.187,
      "velocity": 95,
      "chip": "ym2612"
    },
    {
      "channel": 3,
      "note": 79,
      "start": 46.3593,
      "duration": 0.0522,
      "velocity": 110,
      "chip": "ym2612"
    },
    {
      "channel": 2,
      "note": 74,
      "start": 46.363,
      "duration": 0.0486,
      "velocity": 110,
      "chip": "ym2612"
    },
    {
      "channel": 1,
      "note": 90,
      "start": 46.3655,
      "duration": 0.0077,
      "velocity": 110,
      "chip": "ym2612"
    },
    {
      "channel": 4,
      "note": 89,
      "start": 46.3683,
      "duration": 0.0154,
      "velocity": 124,
      "chip": "ym2612"
    },
    {
      "channel": 1,
      "note": 85,
      "start": 46.4142,
      "duration": 0.0055,
      "velocity": 110,
      "chip": "ym2612"
    },
    {
      "channel": 3,
      "note": 83,
      "start": 46.4598,
      "duration": 0.039,
      "velocity": 110,
      "chip": "ym2612"
    },
    {
      "channel": 2,
      "note": 78,
      "start": 46.4625,
      "duration": 0.0365,
      "velocity": 110,
      "chip": "ym2612"
    },
    {
      "channel": 1,
      "note": 88,
      "start": 46.465,
      "duration": 0.0078,
      "velocity": 110,
      "chip": "ym2612"
    },
    {
      "channel": 4,
      "note": 101,
      "start": 46.4678,
      "duration": 0.0082,
      "velocity": 124,
      "chip": "ym2612"
    },
    {
      "channel": 3,
      "note": 82,
      "start": 46.5156,
      "duration": 0.0352,
      "velocity": 110,
      "chip": "ym2612"
    },
    {
      "channel": 2,
      "note": 77,
      "start": 46.5182,
      "duration": 0.0327,
      "velocity": 110,
      "chip": "ym2612"
    },
    {
      "channel": 1,
      "note": 85,
      "start": 46.5205,
      "duration": 0.0017,
      "velocity": 110,
      "chip": "ym2612"
    },
    {
      "channel": 0,
      "note": 49,
      "start": 46.5617,
      "duration": 0.0844,
      "velocity": 95,
      "chip": "ym2612"
    },
    {
      "channel": 3,
      "note": 81,
      "start": 46.5644,
      "duration": 0.0512,
      "velocity": 110,
      "chip": "ym2612"
    },
    {
      "channel": 2,
      "note": 76,
      "start": 46.567,
      "duration": 0.0488,
      "velocity": 110,
      "chip": "ym2612"
    },
    {
      "channel": 1,
      "note": 90,
      "start": 46.5694,
      "duration": 0.0088,
      "velocity": 110,
      "chip": "ym2612"
    },
    {
      "channel": 4,
      "note": 89,
      "start": 46.5717,
      "duration": 0.009,
      "velocity": 124,
      "chip": "ym2612"
    },
    {
      "channel": 1,
      "note": 85,
      "start": 46.6185,
      "duration": 0.0056,
      "velocity": 110,
      "chip": "ym2612"
    },
    {
      "channel": 0,
      "note": 52,
      "start": 46.6628,
      "duration": 0.0793,
      "velocity": 95,
      "chip": "ym2612"
    },
    {
      "channel": 3,
      "note": 85,
      "start": 46.6666,
      "duration": 0.0292,
      "velocity": 110,
      "chip": "ym2612"
    },
    {
      "channel": 2,
      "note": 80,
      "start": 46.6692,
      "duration": 0.0267,
      "velocity": 110,
      "chip": "ym2612"
    },
    {
      "channel": 1,
      "note": 91,
      "start": 46.6717,
      "duration": 0.0076,
      "velocity": 110,
      "chip": "ym2612"
    },
    {
      "channel": 4,
      "note": 89,
      "start": 46.6741,
      "duration": 0.0075,
      "velocity": 124,
      "chip": "ym2612"
    },
    {
      "channel": 3,
      "note": 84,
      "start": 46.7201,
      "duration": 0.0373,
      "velocity": 110,
      "chip": "ym2612"
    },
    {
      "channel": 2,
      "note": 79,
      "start": 46.7237,
      "duration": 0.0339,
      "velocity": 110,
      "chip": "ym2612"
    },
    {
      "channel": 1,
      "note": 85,
      "start": 46.7263,
      "duration": 0.0015,
      "velocity": 110,
      "chip": "ym2612"
    },
    {
      "channel": 0,
      "note": 54,
      "start": 46.7668,
      "duration": 0.1329,
      "velocity": 95,
      "chip": "ym2612"
    },
    {
      "channel": 3,
      "note": 85,
      "start": 46.7708,
      "duration": 0.8551,
      "velocity": 110,
      "chip": "ym2612"
    },
    {
      "channel": 2,
      "note": 78,
      "start": 46.7739,
      "duration": 0.8522,
      "velocity": 110,
      "chip": "ym2612"
    },
    {
      "channel": 1,
      "note": 90,
      "start": 46.7762,
      "duration": 0.0082,
      "velocity": 110,
      "chip": "ym2612"
    },
    {
      "channel": 4,
      "note": 89,
      "start": 46.7789,
      "duration": 0.0076,
      "velocity": 124,
      "chip": "ym2612"
    },
    {
      "channel": 1,
      "note": 85,
      "start": 46.8188,
      "duration": 0.0114,
      "velocity": 110,
      "chip": "ym2612"
    },
    {
      "channel": 1,
      "note": 90,
      "start": 46.8691,
      "duration": 0.012,
      "velocity": 110,
      "chip": "ym2612"
    },
    {
      "channel": 4,
      "note": 89,
      "start": 46.8755,
      "duration": 0.0108,
      "velocity": 124,
      "chip": "ym2612"
    },
    {
      "channel": 1,
      "note": 85,
      "start": 46.9175,
      "duration": 0.0054,
      "velocity": 110,
      "chip": "ym2612"
    },
    {
      "channel": 0,
      "note": 49,
      "start": 46.9677,
      "duration": 0.0825,
      "velocity": 95,
      "chip": "ym2612"
    },
    {
      "channel": 1,
      "note": 90,
      "start": 46.97,
      "duration": 0.009,
      "velocity": 110,
      "chip": "ym2612"
    },
    {
      "channel": 4,
      "note": 89,
      "start": 46.9722,
      "duration": 0.0127,
      "velocity": 124,
      "chip": "ym2612"
    },
    {
      "channel": 1,
      "note": 85,
      "start": 47.0165,
      "duration": 0.0051,
      "velocity": 110,
      "chip": "ym2612"
    },
    {
      "channel": 0,
      "note": 52,
      "start": 47.0676,
      "duration": 0.0669,
      "velocity": 95,
      "chip": "ym2612"
    },
    {
      "channel": 1,
      "note": 90,
      "start": 47.0699,
      "duration": 0.0087,
      "velocity": 110,
      "chip": "ym2612"
    },
    {
      "channel": 4,
      "note": 89,
      "start": 47.0733,
      "duration": 0.0106,
      "velocity": 124,
      "chip": "ym2612"
    },
    {
      "channel": 1,
      "note": 85,
      "start": 47.1156,
      "duration": 0.005,
      "velocity": 110,
      "chip": "ym2612"
    },
    {
      "channel": 0,
      "note": 54,
      "start": 47.1653,
      "duration": 0.0556,
      "velocity": 95,
      "chip": "ym2612"
    },
    {
      "channel": 1,
      "note": 90,
      "start": 47.1676,
      "duration": 0.0098,
      "velocity": 110,
      "chip": "ym2612"
    },
    {
      "channel": 4,
      "note": 89,
      "start": 47.1716,
      "duration": 0.0113,
      "velocity": 124,
      "chip": "ym2612"
    },
    {
      "channel": 1,
      "note": 85,
      "start": 47.2159,
      "duration": 0.0051,
      "velocity": 110,
      "chip": "ym2612"
    },
    {
      "channel": 0,
      "note": 59,
      "start": 47.2661,
      "duration": 0.1297,
      "velocity": 95,
      "chip": "ym2612"
    },
    {
      "channel": 1,
      "note": 90,
      "start": 47.2687,
      "duration": 0.0083,
      "velocity": 110,
      "chip": "ym2612"
    },
    {
      "channel": 4,
      "note": 101,
      "start": 47.272,
      "duration": 0.0111,
      "velocity": 124,
      "chip": "ym2612"
    },
    {
      "channel": 1,
      "note": 85,
      "start": 47.3162,
      "duration": 0.0049,
      "velocity": 110,
      "chip": "ym2612"
    },
    {
      "channel": 1,
      "note": 90,
      "start": 47.3598,
      "duration": 0.0141,
      "velocity": 110,
      "chip": "ym2612"
    },
    {
      "channel": 4,
      "note": 89,
      "start": 47.3622,
      "duration": 0.0192,
      "velocity": 124,
      "chip": "ym2612"
    },
    {
      "channel": 1,
      "note": 85,
      "start": 47.4131,
      "duration": 0.0053,
      "velocity": 110,
      "chip": "ym2612"
    },
    {
      "channel": 0,
      "note": 57,
      "start": 47.4585,
      "duration": 0.1807,
      "velocity": 95,
      "chip": "ym2612"
    },
    {
      "channel": 1,
      "note": 90,
      "start": 47.4608,
      "duration": 0.0079,
      "velocity": 110,
      "chip": "ym2612"
    },
    {
      "channel": 4,
      "note": 89,
      "start": 47.4633,
      "duration": 0.0106,
      "velocity": 124,
      "chip": "ym2612"
    },
    {
      "channel": 1,
      "note": 85,
      "start": 47.5127,
      "duration": 0.0073,
      "velocity": 110,
      "chip": "ym2612"
    },
    {
      "channel": 1,
      "note": 89,
      "start": 47.5586,
      "duration": 0.0089,
      "velocity": 110,
      "chip": "ym2612"
    },
    {
      "channel": 4,
      "note": 89,
      "start": 47.5613,
      "duration": 0.0123,
      "velocity": 124,
      "chip": "ym2612"
    },
    {
      "channel": 1,
      "note": 84,
      "start": 47.6124,
      "duration": 0.005,
      "velocity": 110,
      "chip": "ym2612"
    },
    {
      "channel": 4,
      "note": 89,
      "start": 47.6596,
      "duration": 0.0113,
      "velocity": 124,
      "chip": "ym2612"
    },
    {
      "channel": 4,
      "note": 89,
      "start": 47.753,
      "duration": 0.0146,
      "velocity": 124,
      "chip": "ym2612"
    },
    {
      "channel": 4,
      "note": 89,
      "start": 47.8511,
      "duration": 0.0136,
      "velocity": 124,
      "chip": "ym2612"
    },
    {
      "channel": 4,
      "note": 89,
      "start": 47.9477,
      "duration": 0.0134,
      "velocity": 124,
      "chip": "ym2612"
    },
    {
      "channel": 4,
      "note": 101,
      "start": 48.0449,
      "duration": 0.0135,
      "velocity": 124,
      "chip": "ym2612"
    },
    {
      "channel": 4,
      "note": 89,
      "start": 48.1423,
      "duration": 0.0134,
      "velocity": 124,
      "chip": "ym2612"
    },
    {
      "channel": 4,
      "note": 89,
      "start": 48.2393,
      "duration": 0.0128,
      "velocity": 124,
      "chip": "ym2612"
    },
    {
      "channel": 4,
      "note": 89,
      "start": 48.3357,
      "duration": 0.0138,
      "velocity": 124,
      "chip": "ym2612"
    },
    {
      "channel": 4,
      "note": 89,
      "start": 48.4281,
      "duration": 0.0187,
      "velocity": 124,
      "chip": "ym2612"
    },
    {
      "channel": 4,
      "note": 89,
      "start": 48.5219,
      "duration": 0.0146,
      "velocity": 124,
      "chip": "ym2612"
    },
    {
      "channel": 4,
      "note": 89,
      "start": 48.6192,
      "duration": 0.0137,
      "velocity": 124,
      "chip": "ym2612"
    },
    {
      "channel": 4,
      "note": 89,
      "start": 48.7162,
      "duration": 0.0134,
      "velocity": 124,
      "chip": "ym2612"
    },
    {
      "channel": 4,
      "note": 101,
      "start": 48.8128,
      "duration": 0.0134,
      "velocity": 124,
      "chip": "ym2612"
    },
    {
      "channel": 4,
      "note": 89,
      "start": 48.9096,
      "duration": 0.0135,
      "velocity": 124,
      "chip": "ym2612"
    },
    {
      "channel": 4,
      "note": 89,
      "start": 49.0064,
      "duration": 0.0128,
      "velocity": 124,
      "chip": "ym2612"
    },
    {
      "channel": 4,
      "note": 89,
      "start": 49.1028,
      "duration": 0.0142,
      "velocity": 124,
      "chip": "ym2612"
    },
    {
      "channel": 4,
      "note": 89,
      "start": 49.2017,
      "duration": 0.0136,
      "velocity": 124,
      "chip": "ym2612"
    },
    {
      "channel": 4,
      "note": 89,
      "start": 49.2975,
      "duration": 0.0146,
      "velocity": 124,
      "chip": "ym2612"
    },
    {
      "channel": 4,
      "note": 89,
      "start": 49.3885,
      "duration": 0.0223,
      "velocity": 124,
      "chip": "ym2612"
    },
    {
      "channel": 4,
      "note": 89,
      "start": 49.4865,
      "duration": 0.0205,
      "velocity": 124,
      "chip": "ym2612"
    },
    {
      "channel": 4,
      "note": 101,
      "start": 49.5832,
      "duration": 0.0134,
      "velocity": 124,
      "chip": "ym2612"
    },
    {
      "channel": 4,
      "note": 89,
      "start": 49.6796,
      "duration": 0.0132,
      "velocity": 124,
      "chip": "ym2612"
    },
    {
      "channel": 4,
      "note": 89,
      "start": 49.7759,
      "duration": 0.0132,
      "velocity": 124,
      "chip": "ym2612"
    },
    {
      "channel": 4,
      "note": 89,
      "start": 49.8745,
      "duration": 0.0125,
      "velocity": 124,
      "chip": "ym2612"
    },
    {
      "channel": 0,
      "note": 54,
      "start": 49.9732,
      "duration": 0.0784,
      "velocity": 95,
      "chip": "ym2612"
    },
    {
      "channel": 1,
      "note": 90,
      "start": 49.9828,
      "duration": 0.0129,
      "velocity": 110,
      "chip": "ym2612"
    },
    {
      "channel": 4,
      "note": 89,
      "start": 49.9885,
      "duration": 0.0095,
      "velocity": 124,
      "chip": "ym2612"
    },
    {
      "channel": 1,
      "note": 85,
      "start": 50.0187,
      "duration": 0.0049,
      "velocity": 110,
      "chip": "ym2612"
    },
    {
      "channel": 0,
      "note": 49,
      "start": 50.0688,
      "duration": 0.0822,
      "velocity": 95,
      "chip": "ym2612"
    },
    {
      "channel": 1,
      "note": 91,
      "start": 50.071,
      "duration": 0.0087,
      "velocity": 110,
      "chip": "ym2612"
    },
    {
      "channel": 4,
      "note": 89,
      "start": 50.0743,
      "duration": 0.0112,
      "velocity": 124,
      "chip": "ym2612"
    },
    {
      "channel": 1,
      "note": 85,
      "start": 50.1176,
      "duration": 0.005,
      "velocity": 110,
      "chip": "ym2612"
    },
    {
      "channel": 0,
      "note": 52,
      "start": 50.1678,
      "duration": 0.0816,
      "velocity": 95,
      "chip": "ym2612"
    },
    {
      "channel": 1,
      "note": 90,
      "start": 50.17,
      "duration": 0.009,
      "velocity": 110,
      "chip": "ym2612"
    },
    {
      "channel": 4,
      "note": 89,
      "start": 50.1734,
      "duration": 0.0112,
      "velocity": 124,
      "chip": "ym2612"
    },
    {
      "channel": 1,
      "note": 85,
      "start": 50.2167,
      "duration": 0.0047,
      "velocity": 110,
      "chip": "ym2612"
    },
    {
      "channel": 0,
      "note": 54,
      "start": 50.2673,
      "duration": 0.1743,
      "velocity": 95,
      "chip": "ym2612"
    },
    {
      "channel": 1,
      "note": 88,
      "start": 50.2706,
      "duration": 0.0085,
      "velocity": 110,
      "chip": "ym2612"
    },
    {
      "channel": 4,
      "note": 89,
      "start": 50.2731,
      "duration": 0.0116,
      "velocity": 124,
      "chip": "ym2612"
    },
    {
      "channel": 1,
      "note": 85,
      "start": 50.3175,
      "duration": 0.0048,
      "velocity": 110,
      "chip": "ym2612"
    },
    {
      "channel": 1,
      "note": 90,
      "start": 50.3671,
      "duration": 0.0085,
      "velocity": 110,
      "chip": "ym2612"
    },
    {
      "channel": 4,
      "note": 101,
      "start": 50.3694,
      "duration": 0.0134,
      "velocity": 124,
      "chip": "ym2612"
    },
    {
      "channel": 1,
      "note": 85,
      "start": 50.4143,
      "duration": 0.0057,
      "velocity": 110,
      "chip": "ym2612"
    },
    {
      "channel": 0,
      "note": 49,
      "start": 50.459,
      "duration": 0.0822,
      "velocity": 95,
      "chip": "ym2612"
    },
    {
      "channel": 1,
      "note": 91,
      "start": 50.4615,
      "duration": 0.0141,
      "velocity": 110,
      "chip": "ym2612"
    },
    {
      "channel": 4,
      "note": 89,
      "start": 50.4649,
      "duration": 0.018,
      "velocity": 124,
      "chip": "ym2612"
    },
    {
      "channel": 1,
      "note": 85,
      "start": 50.5144,
      "duration": 0.0053,
      "velocity": 110,
      "chip": "ym2612"
    },
    {
      "channel": 0,
      "note": 52,
      "start": 50.5585,
      "duration": 0.0837,
      "velocity": 95,
      "chip": "ym2612"
    },
    {
      "channel": 1,
      "note": 90,
      "start": 50.5609,
      "duration": 0.0099,
      "velocity": 110,
      "chip": "ym2612"
    },
    {
      "channel": 4,
      "note": 89,
      "start": 50.5632,
      "duration": 0.0205,
      "velocity": 124,
      "chip": "ym2612"
    },
    {
      "channel": 1,
      "note": 85,
      "start": 50.615,
      "duration": 0.0056,
      "velocity": 110,
      "chip": "ym2612"
    },
    {
      "channel": 0,
      "note": 54,
      "start": 50.6597,
      "duration": 0.1825,
      "velocity": 95,
      "chip": "ym2612"
    },
    {
      "channel": 1,
      "note": 88,
      "start": 50.6621,
      "duration": 0.009,
      "velocity": 110,
      "chip": "ym2612"
    },
    {
      "channel": 4,
      "note": 89,
      "start": 50.6659,
      "duration": 0.0108,
      "velocity": 124,
      "chip": "ym2612"
    },
    {
      "channel": 1,
      "note": 85,
      "start": 50.7159,
      "duration": 0.0052,
      "velocity": 110,
      "chip": "ym2612"
    },
    {
      "channel": 1,
      "note": 90,
      "start": 50.7604,
      "duration": 0.0108,
      "velocity": 110,
      "chip": "ym2612"
    },
    {
      "channel": 4,
      "note": 89,
      "start": 50.7662,
      "duration": 0.0103,
      "velocity": 124,
      "chip": "ym2612"
    },
    {
      "channel": 1,
      "note": 85,
      "start": 50.8155,
      "duration": 0.005,
      "velocity": 110,
      "chip": "ym2612"
    },
    {
      "channel": 0,
      "note": 49,
      "start": 50.8595,
      "duration": 0.084,
      "velocity": 95,
      "chip": "ym2612"
    },
    {
      "channel": 1,
      "note": 91,
      "start": 50.8621,
      "duration": 0.0095,
      "velocity": 110,
      "chip": "ym2612"
    },
    {
      "channel": 4,
      "note": 89,
      "start": 50.8644,
      "duration": 0.013,
      "velocity": 124,
      "chip": "ym2612"
    },
    {
      "channel": 1,
      "note": 85,
      "start": 50.9164,
      "duration": 0.0056,
      "velocity": 110,
      "chip": "ym2612"
    },
    {
      "channel": 0,
      "note": 52,
      "start": 50.9607,
      "duration": 0.0837,
      "velocity": 95,
      "chip": "ym2612"
    },
    {
      "channel": 1,
      "note": 90,
      "start": 50.9633,
      "duration": 0.0098,
      "velocity": 110,
      "chip": "ym2612"
    },
    {
      "channel": 4,
      "note": 89,
      "start": 50.9657,
      "duration": 0.0134,
      "velocity": 124,
      "chip": "ym2612"
    },
    {
      "channel": 1,
      "note": 85,
      "start": 51.0117,
      "duration": 0.0117,
      "velocity": 110,
      "chip": "ym2612"
    },
    {
      "channel": 0,
      "note": 54,
      "start": 51.0621,
      "duration": 0.183,
      "velocity": 95,
      "chip": "ym2612"
    },
    {
      "channel": 1,
      "note": 88,
      "start": 51.0644,
      "duration": 0.0094,
      "velocity": 110,
      "chip": "ym2612"
    },
    {
      "channel": 4,
      "note": 89,
      "start": 51.0679,
      "duration": 0.0119,
      "velocity": 124,
      "chip": "ym2612"
    },
    {
      "channel": 1,
      "note": 85,
      "start": 51.1131,
      "duration": 0.0047,
      "velocity": 110,
      "chip": "ym2612"
    },
    {
      "channel": 1,
      "note": 90,
      "start": 51.1637,
      "duration": 0.0088,
      "velocity": 110,
      "chip": "ym2612"
    },
    {
      "channel": 4,
      "note": 101,
      "start": 51.166,
      "duration": 0.013,
      "velocity": 124,
      "chip": "ym2612"
    },
    {
      "channel": 1,
      "note": 85,
      "start": 51.211,
      "duration": 0.005,
      "velocity": 110,
      "chip": "ym2612"
    },
    {
      "channel": 0,
      "note": 49,
      "start": 51.2636,
      "duration": 0.0746,
      "velocity": 95,
      "chip": "ym2612"
    },
    {
      "channel": 1,
      "note": 91,
      "start": 51.2659,
      "duration": 0.0078,
      "velocity": 110,
      "chip": "ym2612"
    },
    {
      "channel": 4,
      "note": 89,
      "start": 51.2684,
      "duration": 0.0108,
      "velocity": 124,
      "chip": "ym2612"
    },
    {
      "channel": 1,
      "note": 85,
      "start": 51.3121,
      "duration": 0.0053,
      "velocity": 110,
      "chip": "ym2612"
    },
    {
      "channel": 0,
      "note": 52,
      "start": 51.3617,
      "duration": 0.0764,
      "velocity": 95,
      "chip": "ym2612"
    },
    {
      "channel": 1,
      "note": 90,
      "start": 51.364,
      "duration": 0.0096,
      "velocity": 110,
      "chip": "ym2612"
    },
    {
      "channel": 4,
      "note": 89,
      "start": 51.3664,
      "duration": 0.0132,
      "velocity": 124,
      "chip": "ym2612"
    },
    {
      "channel": 1,
      "note": 85,
      "start": 51.4122,
      "duration": 0.0047,
      "velocity": 110,
      "chip": "ym2612"
    },
    {
      "channel": 0,
      "note": 54,
      "start": 51.4627,
      "duration": 0.0561,
      "velocity": 95,
      "chip": "ym2612"
    },
    {
      "channel": 1,
      "note": 88,
      "start": 51.4651,
      "duration": 0.0105,
      "velocity": 110,
      "chip": "ym2612"
    },
    {
      "channel": 4,
      "note": 89,
      "start": 51.4689,
      "duration": 0.012,
      "velocity": 124,
      "chip": "ym2612"
    },
    {
      "channel": 1,
      "note": 85,
      "start": 51.5134,
      "duration": 0.0055,
      "velocity": 110,
      "chip": "ym2612"
    },
    {
      "channel": 0,
      "note": 54,
      "start": 51.5571,
      "duration": 0.0756,
      "velocity": 95,
      "chip": "ym2612"
    },
    {
      "channel": 3,
      "note": 73,
      "start": 51.5598,
      "duration": 0.0584,
      "velocity": 110,
      "chip": "ym2612"
    },
    {
      "channel": 1,
      "note": 90,
      "start": 51.5622,
      "duration": 0.0112,
      "velocity": 110,
      "chip": "ym2612"
    },
    {
      "channel": 4,
      "note": 89,
      "start": 51.5678,
      "duration": 0.0126,
      "velocity": 124,
      "chip": "ym2612"
    },
    {
      "channel": 1,
      "note": 85,
      "start": 51.6128,
      "duration": 0.0053,
      "velocity": 110,
      "chip": "ym2612"
    },
    {
      "channel": 0,
      "note": 49,
      "start": 51.6569,
      "duration": 0.0771,
      "velocity": 95,
      "chip": "ym2612"
    },
    {
      "channel": 3,
      "note": 73,
      "start": 51.6595,
      "duration": 0.0745,
      "velocity": 110,
      "chip": "ym2612"
    },
    {
      "channel": 1,
      "note": 91,
      "start": 51.6618,
      "duration": 0.0096,
      "velocity": 110,
      "chip": "ym2612"
    },
    {
      "channel": 4,
      "note": 89,
      "start": 51.6658,
      "duration": 0.0167,
      "velocity": 124,
      "chip": "ym2612"
    },
    {
      "channel": 1,
      "note": 85,
      "start": 51.7141,
      "duration": 0.0046,
      "velocity": 110,
      "chip": "ym2612"
    },
    {
      "channel": 0,
      "note": 52,
      "start": 51.7573,
      "duration": 0.0821,
      "velocity": 95,
      "chip": "ym2612"
    },
    {
      "channel": 3,
      "note": 76,
      "start": 51.7597,
      "duration": 0.0503,
      "velocity": 110,
      "chip": "ym2612"
    },
    {
      "channel": 1,
      "note": 90,
      "start": 51.7619,
      "duration": 0.0094,
      "velocity": 110,
      "chip": "ym2612"
    },
    {
      "channel": 4,
      "note": 89,
      "start": 51.7656,
      "duration": 0.0088,
      "velocity": 124,
      "chip": "ym2612"
    },
    {
      "channel": 1,
      "note": 85,
      "start": 51.8135,
      "duration": 0.0059,
      "velocity": 110,
      "chip": "ym2612"
    },
    {
      "channel": 0,
      "note": 54,
      "start": 51.8573,
      "duration": 0.1823,
      "velocity": 95,
      "chip": "ym2612"
    },
    {
      "channel": 3,
      "note": 76,
      "start": 51.8602,
      "duration": 0.0653,
      "velocity": 110,
      "chip": "ym2612"
    },
    {
      "channel": 1,
      "note": 88,
      "start": 51.8625,
      "duration": 0.0092,
      "velocity": 110,
      "chip": "ym2612"
    },
    {
      "channel": 4,
      "note": 89,
      "start": 51.8649,
      "duration": 0.0095,
      "velocity": 124,
      "chip": "ym2612"
    },
    {
      "channel": 1,
      "note": 85,
      "start": 51.9137,
      "duration": 0.0044,
      "velocity": 110,
      "chip": "ym2612"
    },
    {
      "channel": 3,
      "note": 74,
      "start": 51.9578,
      "duration": 0.0526,
      "velocity": 110,
      "chip": "ym2612"
    },
    {
      "channel": 1,
      "note": 90,
      "start": 51.9602,
      "duration": 0.0085,
      "velocity": 110,
      "chip": "ym2612"
    },
    {
      "channel": 4,
      "note": 101,
      "start": 51.9629,
      "duration": 0.0117,
      "velocity": 124,
      "chip": "ym2612"
    },
    {
      "channel": 1,
      "note": 85,
      "start": 52.0129,
      "duration": 0.0053,
      "velocity": 110,
      "chip": "ym2612"
    },
    {
      "channel": 0,
      "note": 49,
      "start": 52.0564,
      "duration": 0.0821,
      "velocity": 95,
      "chip": "ym2612"
    },
    {
      "channel": 3,
      "note": 74,
      "start": 52.059,
      "duration": 0.0585,
      "velocity": 110,
      "chip": "ym2612"
    },
    {
      "channel": 1,
      "note": 91,
      "start": 52.0622,
      "duration": 0.0076,
      "velocity": 110,
      "chip": "ym2612"
    },
    {
      "channel": 4,
      "note": 89,
      "start": 52.0646,
      "duration": 0.0101,
      "velocity": 124,
      "chip": "ym2612"
    },
    {
      "channel": 1,
      "note": 85,
      "start": 52.1046,
      "duration": 0.0128,
      "velocity": 110,
      "chip": "ym2612"
    },
    {
      "channel": 0,
      "note": 52,
      "start": 52.1565,
      "duration": 0.0752,
      "velocity": 95,
      "chip": "ym2612"
    },
    {
      "channel": 3,
      "note": 71,
      "start": 52.159,
      "duration": 0.0653,
      "velocity": 110,
      "chip": "ym2612"
    },
    {
      "channel": 1,
      "note": 90,
      "start": 52.1613,
      "duration": 0.0094,
      "velocity": 110,
      "chip": "ym2612"
    },
    {
      "channel": 4,
      "note": 89,
      "start": 52.1653,
      "duration": 0.008,
      "velocity": 124,
      "chip": "ym2612"
    },
    {
      "channel": 1,
      "note": 85,
      "start": 52.2045,
      "duration": 0.0054,
      "velocity": 110,
      "chip": "ym2612"
    },
    {
      "channel": 0,
      "note": 54,
      "start": 52.2573,
      "duration": 0.173,
      "velocity": 95,
      "chip": "ym2612"
    },
    {
      "channel": 3,
      "note": 73,
      "start": 52.2602,
      "duration": 0.6663,
      "velocity": 110,
      "chip": "ym2612"
    },
    {
      "channel": 1,
      "note": 88,
      "start": 52.2624,
      "duration": 0.0089,
      "velocity": 110,
      "chip": "ym2612"
    },
    {
      "channel": 4,
      "note": 89,
      "start": 52.2651,
      "duration": 0.0084,
      "velocity": 124,
      "chip": "ym2612"
    },
    {
      "channel": 1,
      "note": 85,
      "start": 52.305,
      "duration": 0.0055,
      "velocity": 110,
      "chip": "ym2612"
    },
    {
      "channel": 1,
      "note": 90,
      "start": 52.3578,
      "duration": 0.0108,
      "velocity": 110,
      "chip": "ym2612"
    },
    {
      "channel": 4,
      "note": 89,
      "start": 52.3626,
      "duration": 0.0098,
      "velocity": 124,
      "chip": "ym2612"
    },
    {
      "channel": 1,
      "note": 85,
      "start": 52.4034,
      "duration": 0.0054,
      "velocity": 110,
      "chip": "ym2612"
    },
    {
      "channel": 0,
      "note": 49,
      "start": 52.4555,
      "duration": 0.0754,
      "velocity": 95,
      "chip": "ym2612"
    },
    {
      "channel": 1,
      "note": 91,
      "start": 52.458,
      "duration": 0.0087,
      "velocity": 110,
      "chip": "ym2612"
    },
    {
      "channel": 4,
      "note": 89,
      "start": 52.4604,
      "duration": 0.0117,
      "velocity": 124,
      "chip": "ym2612"
    },
    {
      "channel": 1,
      "note": 85,
      "start": 52.5032,
      "duration": 0.0052,
      "velocity": 110,
      "chip": "ym2612"
    },
    {
      "channel": 0,
      "note": 52,
      "start": 52.5533,
      "duration": 0.075,
      "velocity": 95,
      "chip": "ym2612"
    },
    {
      "channel": 1,
      "note": 90,
      "start": 52.5556,
      "duration": 0.0083,
      "velocity": 110,
      "chip": "ym2612"
    },
    {
      "channel": 4,
      "note": 89,
      "start": 52.558,
      "duration": 0.0122,
      "velocity": 124,
      "chip": "ym2612"
    },
    {
      "channel": 1,
      "note": 85,
      "start": 52.6022,
      "duration": 0.0047,
      "velocity": 110,
      "chip": "ym2612"
    },
    {
      "channel": 0,
      "note": 54,
      "start": 52.6456,
      "duration": 0.1813,
      "velocity": 95,
      "chip": "ym2612"
    },
    {
      "channel": 1,
      "note": 88,
      "start": 52.648,
      "duration": 0.0141,
      "velocity": 110,
      "chip": "ym2612"
    },
    {
      "channel": 4,
      "note": 89,
      "start": 52.6503,
      "duration": 0.0188,
      "velocity": 124,
      "chip": "ym2612"
    },
    {
      "channel": 1,
      "note": 85,
      "start": 52.7016,
      "duration": 0.0044,
      "velocity": 110,
      "chip": "ym2612"
    },
    {
      "channel": 1,
      "note": 90,
      "start": 52.7457,
      "duration": 0.0081,
      "velocity": 110,
      "chip": "ym2612"
    },
    {
      "channel": 4,
      "note": 101,
      "start": 52.7481,
      "duration": 0.0205,
      "velocity": 124,
      "chip": "ym2612"
    },
    {
      "channel": 1,
      "note": 85,
      "start": 52.7997,
      "duration": 0.0052,
      "velocity": 110,
      "chip": "ym2612"
    },
    {
      "channel": 0,
      "note": 49,
      "start": 52.8446,
      "duration": 0.0819,
      "velocity": 95,
      "chip": "ym2612"
    },
    {
      "channel": 1,
      "note": 91,
      "start": 52.847,
      "duration": 0.0087,
      "velocity": 110,
      "chip": "ym2612"
    },
    {
      "channel": 4,
      "note": 89,
      "start": 52.8495,
      "duration": 0.0119,
      "velocity": 124,
      "chip": "ym2612"
    },
    {
      "channel": 1,
      "note": 85,
      "start": 52.8995,
      "duration": 0.0053,
      "velocity": 110,
      "chip": "ym2612"
    },
    {
      "channel": 0,
      "note": 52,
      "start": 52.9435,
      "duration": 0.0827,
      "velocity": 95,
      "chip": "ym2612"
    },
    {
      "channel": 1,
      "note": 90,
      "start": 52.9461,
      "duration": 0.0095,
      "velocity": 110,
      "chip": "ym2612"
    },
    {
      "channel": 4,
      "note": 89,
      "start": 52.9485,
      "duration": 0.0131,
      "velocity": 124,
      "chip": "ym2612"
    },
    {
      "channel": 1,
      "note": 85,
      "start": 52.9999,
      "duration": 0.0055,
      "velocity": 110,
      "chip": "ym2612"
    },
    {
      "channel": 0,
      "note": 54,
      "start": 53.0442,
      "duration": 0.0602,
      "velocity": 95,
      "chip": "ym2612"
    },
    {
      "channel": 1,
      "note": 88,
      "start": 53.0464,
      "duration": 0.0095,
      "velocity": 110,
      "chip": "ym2612"
    },
    {
      "channel": 4,
      "note": 89,
      "start": 53.0508,
      "duration": 0.0103,
      "velocity": 124,
      "chip": "ym2612"
    },
    {
      "channel": 1,
      "note": 85,
      "start": 53.0995,
      "duration": 0.005,
      "velocity": 110,
      "chip": "ym2612"
    },
    {
      "channel": 0,
      "note": 54,
      "start": 53.1427,
      "duration": 0.0912,
      "velocity": 95,
      "chip": "ym2612"
    },
    {
      "channel": 3,
      "note": 73,
      "start": 53.1453,
      "duration": 0.0451,
      "velocity": 110,
      "chip": "ym2612"
    },
    {
      "channel": 1,
      "note": 90,
      "start": 53.1477,
      "duration": 0.0116,
      "velocity": 110,
      "chip": "ym2612"
    },
    {
      "channel": 4,
      "note": 89,
      "start": 53.1543,
      "duration": 0.0071,
      "velocity": 124,
      "chip": "ym2612"
    },
    {
      "channel": 1,
      "note": 85,
      "start": 53.1933,
      "duration": 0.0116,
      "velocity": 110,
      "chip": "ym2612"
    },
    {
      "channel": 0,
      "note": 49,
      "start": 53.2438,
      "duration": 0.083,
      "velocity": 95,
      "chip": "ym2612"
    },
    {
      "channel": 3,
      "note": 73,
      "start": 53.2475,
      "duration": 0.0946,
      "velocity": 110,
      "chip": "ym2612"
    },
    {
      "channel": 1,
      "note": 91,
      "start": 53.2497,
      "duration": 0.0083,
      "velocity": 110,
      "chip": "ym2612"
    },
    {
      "channel": 4,
      "note": 89,
      "start": 53.2523,
      "duration": 0.0107,
      "velocity": 124,
      "chip": "ym2612"
    },
    {
      "channel": 1,
      "note": 85,
      "start": 53.2935,
      "duration": 0.0054,
      "velocity": 110,
      "chip": "ym2612"
    },
    {
      "channel": 0,
      "note": 52,
      "start": 53.3444,
      "duration": 0.0825,
      "velocity": 95,
      "chip": "ym2612"
    },
    {
      "channel": 3,
      "note": 76,
      "start": 53.3471,
      "duration": 0.0435,
      "velocity": 110,
      "chip": "ym2612"
    },
    {
      "channel": 1,
      "note": 90,
      "start": 53.3494,
      "duration": 0.0097,
      "velocity": 110,
      "chip": "ym2612"
    },
    {
      "channel": 4,
      "note": 89,
      "start": 53.352,
      "duration": 0.0105,
      "velocity": 124,
      "chip": "ym2612"
    },
    {
      "channel": 1,
      "note": 85,
      "start": 53.3932,
      "duration": 0.0053,
      "velocity": 110,
      "chip": "ym2612"
    },
    {
      "channel": 0,
      "note": 54,
      "start": 53.4452,
      "duration": 0.1813,
      "velocity": 95,
      "chip": "ym2612"
    },
    {
      "channel": 3,
      "note": 76,
      "start": 53.4476,
      "duration": 0.0502,
      "velocity": 110,
      "chip": "ym2612"
    },
    {
      "channel": 1,
      "note": 88,
      "start": 53.4498,
      "duration": 0.0084,
      "velocity": 110,
      "chip": "ym2612"
    },
    {
      "channel": 4,
      "note": 89,
      "start": 53.4535,
      "duration": 0.0076,
      "velocity": 124,
      "chip": "ym2612"
    },
    {
      "channel": 1,
      "note": 85,
      "start": 53.493,
      "duration": 0.0048,
      "velocity": 110,
      "chip": "ym2612"
    },
    {
      "channel": 3,
      "note": 74,
      "start": 53.5453,
      "duration": 0.0446,
      "velocity": 110,
      "chip": "ym2612"
    },
    {
      "channel": 1,
      "note": 90,
      "start": 53.5476,
      "duration": 0.0082,
      "velocity": 110,
      "chip": "ym2612"
    },
    {
      "channel": 4,
      "note": 101,
      "start": 53.55,
      "duration": 0.0115,
      "velocity": 124,
      "chip": "ym2612"
    },
    {
      "channel": 1,
      "note": 85,
      "start": 53.5935,
      "duration": 0.0048,
      "velocity": 110,
      "chip": "ym2612"
    },
    {
      "channel": 0,
      "note": 49,
      "start": 53.6438,
      "duration": 0.0754,
      "velocity": 95,
      "chip": "ym2612"
    },
    {
      "channel": 3,
      "note": 74,
      "start": 53.6463,
      "duration": 0.0584,
      "velocity": 110,
      "chip": "ym2612"
    },
    {
      "channel": 1,
      "note": 91,
      "start": 53.6495,
      "duration": 0.0072,
      "velocity": 110,
      "chip": "ym2612"
    },
    {
      "channel": 4,
      "note": 89,
      "start": 53.652,
      "duration": 0.0098,
      "velocity": 124,
      "chip": "ym2612"
    },
    {
      "channel": 1,
      "note": 85,
      "start": 53.6921,
      "duration": 0.0055,
      "velocity": 110,
      "chip": "ym2612"
    },
    {
      "channel": 0,
      "note": 52,
      "start": 53.737,
      "duration": 0.0816,
      "velocity": 95,
      "chip": "ym2612"
    },
    {
      "channel": 3,
      "note": 71,
      "start": 53.7395,
      "duration": 0.0578,
      "velocity": 110,
      "chip": "ym2612"
    },
    {
      "channel": 1,
      "note": 90,
      "start": 53.7417,
      "duration": 0.0127,
      "velocity": 110,
      "chip": "ym2612"
    },
    {
      "channel": 4,
      "note": 89,
      "start": 53.7441,
      "duration": 0.0169,
      "velocity": 124,
      "chip": "ym2612"
    },
    {
      "channel": 1,
      "note": 85,
      "start": 53.7927,
      "duration": 0.0045,
      "velocity": 110,
      "chip": "ym2612"
    },
    {
      "channel": 0,
      "note": 54,
      "start": 53.8357,
      "duration": 0.1816,
      "velocity": 95,
      "chip": "ym2612"
    },
    {
      "channel": 3,
      "note": 73,
      "start": 53.8388,
      "duration": 0.6226,
      "velocity": 110,
      "chip": "ym2612"
    },
    {
      "channel": 1,
      "note": 88,
      "start": 53.8425,
      "duration": 0.0085,
      "velocity": 110,
      "chip": "ym2612"
    },
    {
      "channel": 4,
      "note": 89,
      "start": 53.8459,
      "duration": 0.0078,
      "velocity": 124,
      "chip": "ym2612"
    },
    {
      "channel": 1,
      "note": 85,
      "start": 53.8916,
      "duration": 0.0055,
      "velocity": 110,
      "chip": "ym2612"
    },
    {
      "channel": 1,
      "note": 90,
      "start": 53.9364,
      "duration": 0.0118,
      "velocity": 110,
      "chip": "ym2612"
    },
    {
      "channel": 4,
      "note": 89,
      "start": 53.9412,
      "duration": 0.0107,
      "velocity": 124,
      "chip": "ym2612"
    },
    {
      "channel": 1,
      "note": 85,
      "start": 53.9914,
      "duration": 0.005,
      "velocity": 110,
      "chip": "ym2612"
    },
    {
      "channel": 0,
      "note": 49,
      "start": 54.0357,
      "duration": 0.0807,
      "velocity": 95,
      "chip": "ym2612"
    },
    {
      "channel": 1,
      "note": 91,
      "start": 54.0381,
      "duration": 0.0089,
      "velocity": 110,
      "chip": "ym2612"
    },
    {
      "channel": 4,
      "note": 89,
      "start": 54.0405,
      "duration": 0.0117,
      "velocity": 124,
      "chip": "ym2612"
    },
    {
      "channel": 1,
      "note": 85,
      "start": 54.0901,
      "duration": 0.0046,
      "velocity": 110,
      "chip": "ym2612"
    },
    {
      "channel": 0,
      "note": 52,
      "start": 54.1339,
      "duration": 0.0752,
      "velocity": 95,
      "chip": "ym2612"
    },
    {
      "channel": 1,
      "note": 90,
      "start": 54.1361,
      "duration": 0.0091,
      "velocity": 110,
      "chip": "ym2612"
    },
    {
      "channel": 4,
      "note": 89,
      "start": 54.1384,
      "duration": 0.0122,
      "velocity": 124,
      "chip": "ym2612"
    },
    {
      "channel": 1,
      "note": 85,
      "start": 54.1894,
      "duration": 0.0048,
      "velocity": 110,
      "chip": "ym2612"
    },
    {
      "channel": 0,
      "note": 54,
      "start": 54.2326,
      "duration": 0.1794,
      "velocity": 95,
      "chip": "ym2612"
    },
    {
      "channel": 1,
      "note": 88,
      "start": 54.2349,
      "duration": 0.0091,
      "velocity": 110,
      "chip": "ym2612"
    },
    {
      "channel": 4,
      "note": 89,
      "start": 54.2372,
      "duration": 0.0125,
      "velocity": 124,
      "chip": "ym2612"
    },
    {
      "channel": 1,
      "note": 85,
      "start": 54.282,
      "duration": 0.0047,
      "velocity": 110,
      "chip": "ym2612"
    },
    {
      "channel": 1,
      "note": 90,
      "start": 54.3317,
      "duration": 0.0091,
      "velocity": 110,
      "chip": "ym2612"
    },
    {
      "channel": 4,
      "note": 101,
      "start": 54.334,
      "duration": 0.0131,
      "velocity": 124,
      "chip": "ym2612"
    },
    {
      "channel": 1,
      "note": 85,
      "start": 54.3788,
      "duration": 0.0048,
      "velocity": 110,
      "chip": "ym2612"
    },
    {
      "channel": 0,
      "note": 49,
      "start": 54.4295,
      "duration": 0.0905,
      "velocity": 95,
      "chip": "ym2612"
    },
    {
      "channel": 1,
      "note": 91,
      "start": 54.4328,
      "duration": 0.0073,
      "velocity": 110,
      "chip": "ym2612"
    },
    {
      "channel": 4,
      "note": 89,
      "start": 54.4352,
      "duration": 0.011,
      "velocity": 124,
      "chip": "ym2612"
    },
    {
      "channel": 1,
      "note": 85,
      "start": 54.4791,
      "duration": 0.0048,
      "velocity": 110,
      "chip": "ym2612"
    },
    {
      "channel": 0,
      "note": 52,
      "start": 54.5293,
      "duration": 0.0774,
      "velocity": 95,
      "chip": "ym2612"
    },
    {
      "channel": 1,
      "note": 90,
      "start": 54.5316,
      "duration": 0.0086,
      "velocity": 110,
      "chip": "ym2612"
    },
    {
      "channel": 4,
      "note": 89,
      "start": 54.535,
      "duration": 0.0108,
      "velocity": 124,
      "chip": "ym2612"
    },
    {
      "channel": 1,
      "note": 85,
      "start": 54.5779,
      "duration": 0.0068,
      "velocity": 110,
      "chip": "ym2612"
    },
    {
      "channel": 0,
      "note": 54,
      "start": 54.6321,
      "duration": 0.0451,
      "velocity": 95,
      "chip": "ym2612"
    },
    {
      "channel": 1,
      "note": 88,
      "start": 54.6346,
      "duration": 0.008,
      "velocity": 110,
      "chip": "ym2612"
    },
    {
      "channel": 4,
      "note": 89,
      "start": 54.6371,
      "duration": 0.0113,
      "velocity": 124,
      "chip": "ym2612"
    },
    {
      "channel": 1,
      "note": 85,
      "start": 54.6813,
      "duration": 0.0052,
      "velocity": 110,
      "chip": "ym2612"
    },
    {
      "channel": 0,
      "note": 54,
      "start": 54.7324,
      "duration": 0.0765,
      "velocity": 95,
      "chip": "ym2612"
    },
    {
      "channel": 3,
      "note": 73,
      "start": 54.7351,
      "duration": 0.0439,
      "velocity": 110,
      "chip": "ym2612"
    },
    {
      "channel": 1,
      "note": 90,
      "start": 54.7385,
      "duration": 0.0114,
      "velocity": 110,
      "chip": "ym2612"
    },
    {
      "channel": 4,
      "note": 89,
      "start": 54.7434,
      "duration": 0.0088,
      "velocity": 124,
      "chip": "ym2612"
    },
    {
      "channel": 1,
      "note": 85,
      "start": 54.7829,
      "duration": 0.0053,
      "velocity": 110,
      "chip": "ym2612"
    },
    {
      "channel": 0,
      "note": 49,
      "start": 54.8265,
      "duration": 0.0837,
      "velocity": 95,
      "chip": "ym2612"
    },
    {
      "channel": 3,
      "note": 73,
      "start": 54.829,
      "duration": 0.0814,
      "velocity": 110,
      "chip": "ym2612"
    },
    {
      "channel": 1,
      "note": 91,
      "start": 54.8313,
      "duration": 0.0088,
      "velocity": 110,
      "chip": "ym2612"
    },
    {
      "channel": 4,
      "note": 89,
      "start": 54.8337,
      "duration": 0.0172,
      "velocity": 124,
      "chip": "ym2612"
    },
    {
      "channel": 1,
      "note": 85,
      "start": 54.8837,
      "duration": 0.0057,
      "velocity": 110,
      "chip": "ym2612"
    },
    {
      "channel": 0,
      "note": 52,
      "start": 54.9278,
      "duration": 0.0827,
      "velocity": 95,
      "chip": "ym2612"
    },
    {
      "channel": 3,
      "note": 76,
      "start": 54.9305,
      "duration": 0.0499,
      "velocity": 110,
      "chip": "ym2612"
    },
    {
      "channel": 1,
      "note": 90,
      "start": 54.9327,
      "duration": 0.0085,
      "velocity": 110,
      "chip": "ym2612"
    },
    {
      "channel": 4,
      "note": 89,
      "start": 54.935,
      "duration": 0.0094,
      "velocity": 124,
      "chip": "ym2612"
    },
    {
      "channel": 1,
      "note": 85,
      "start": 54.9839,
      "duration": 0.0057,
      "velocity": 110,
      "chip": "ym2612"
    },
    {
      "channel": 0,
      "note": 54,
      "start": 55.0286,
      "duration": 0.1811,
      "velocity": 95,
      "chip": "ym2612"
    },
    {
      "channel": 3,
      "note": 76,
      "start": 55.031,
      "duration": 0.0718,
      "velocity": 110,
      "chip": "ym2612"
    },
    {
      "channel": 1,
      "note": 88,
      "start": 55.0333,
      "duration": 0.0088,
      "velocity": 110,
      "chip": "ym2612"
    },
    {
      "channel": 4,
      "note": 89,
      "start": 55.0357,
      "duration": 0.0092,
      "velocity": 124,
      "chip": "ym2612"
    },
    {
      "channel": 1,
      "note": 85,
      "start": 55.0842,
      "duration": 0.0051,
      "velocity": 110,
      "chip": "ym2612"
    },
    {
      "channel": 3,
      "note": 74,
      "start": 55.1285,
      "duration": 0.0448,
      "velocity": 110,
      "chip": "ym2612"
    },
    {
      "channel": 1,
      "note": 90,
      "start": 55.1307,
      "duration": 0.0081,
      "velocity": 110,
      "chip": "ym2612"
    },
    {
      "channel": 4,
      "note": 101,
      "start": 55.1337,
      "duration": 0.0112,
      "velocity": 124,
      "chip": "ym2612"
    },
    {
      "channel": 1,
      "note": 85,
      "start": 55.1829,
      "duration": 0.0053,
      "velocity": 110,
      "chip": "ym2612"
    },
    {
      "channel": 0,
      "note": 49,
      "start": 55.2265,
      "duration": 0.0764,
      "velocity": 95,
      "chip": "ym2612"
    },
    {
      "channel": 3,
      "note": 74,
      "start": 55.229,
      "duration": 0.0804,
      "velocity": 110,
      "chip": "ym2612"
    },
    {
      "channel": 1,
      "note": 91,
      "start": 55.2322,
      "duration": 0.0072,
      "velocity": 110,
      "chip": "ym2612"
    },
    {
      "channel": 4,
      "note": 89,
      "start": 55.2346,
      "duration": 0.01,
      "velocity": 124,
      "chip": "ym2612"
    },
    {
      "channel": 1,
      "note": 85,
      "start": 55.275,
      "duration": 0.0125,
      "velocity": 110,
      "chip": "ym2612"
    },
    {
      "channel": 0,
      "note": 52,
      "start": 55.3267,
      "duration": 0.0751,
      "velocity": 95,
      "chip": "ym2612"
    },
    {
      "channel": 3,
      "note": 69,
      "start": 55.3291,
      "duration": 0.0508,
      "velocity": 110,
      "chip": "ym2612"
    },
    {
      "channel": 1,
      "note": 90,
      "start": 55.3314,
      "duration": 0.0086,
      "velocity": 110,
      "chip": "ym2612"
    },
    {
      "channel": 4,
      "note": 89,
      "start": 55.3339,
      "duration": 0.0094,
      "velocity": 124,
      "chip": "ym2612"
    },
    {
      "channel": 1,
      "note": 85,
      "start": 55.3745,
      "duration": 0.0054,
      "velocity": 110,
      "chip": "ym2612"
    },
    {
      "channel": 0,
      "note": 54,
      "start": 55.4268,
      "duration": 0.2297,
      "velocity": 95,
      "chip": "ym2612"
    },
    {
      "channel": 3,
      "note": 71,
      "start": 55.43,
      "duration": 0.6341,
      "velocity": 110,
      "chip": "ym2612"
    },
    {
      "channel": 1,
      "note": 88,
      "start": 55.4325,
      "duration": 0.009,
      "velocity": 110,
      "chip": "ym2612"
    },
    {
      "channel": 4,
      "note": 89,
      "start": 55.4363,
      "duration": 0.0076,
      "velocity": 124,
      "chip": "ym2612"
    },
    {
      "channel": 1,
      "note": 85,
      "start": 55.4757,
      "duration": 0.0049,
      "velocity": 110,
      "chip": "ym2612"
    },
    {
      "channel": 1,
      "note": 90,
      "start": 55.5278,
      "duration": 0.0105,
      "velocity": 110,
      "chip": "ym2612"
    },
    {
      "channel": 4,
      "note": 89,
      "start": 55.5328,
      "duration": 0.011,
      "velocity": 124,
      "chip": "ym2612"
    },
    {
      "channel": 1,
      "note": 83,
      "start": 55.5759,
      "duration": 0.0043,
      "velocity": 110,
      "chip": "ym2612"
    },
    {
      "channel": 1,
      "note": 88,
      "start": 55.6262,
      "duration": 0.0086,
      "velocity": 110,
      "chip": "ym2612"
    },
    {
      "channel": 4,
      "note": 89,
      "start": 55.6292,
      "duration": 0.0132,
      "velocity": 124,
      "chip": "ym2612"
    },
    {
      "channel": 0,
      "note": 49,
      "start": 55.6738,
      "duration": 0.0277,
      "velocity": 95,
      "chip": "ym2612"
    },
    {
      "channel": 1,
      "note": 83,
      "start": 55.6761,
      "duration": 0.0036,
      "velocity": 110,
      "chip": "ym2612"
    },
    {
      "channel": 0,
      "note": 52,
      "start": 55.727,
      "duration": 0.0751,
      "velocity": 95,
      "chip": "ym2612"
    },
    {
      "channel": 1,
      "note": 90,
      "start": 55.7293,
      "duration": 0.0081,
      "velocity": 110,
      "chip": "ym2612"
    },
    {
      "channel": 4,
      "note": 89,
      "start": 55.7321,
      "duration": 0.0114,
      "velocity": 124,
      "chip": "ym2612"
    },
    {
      "channel": 1,
      "note": 83,
      "start": 55.7763,
      "duration": 0.0049,
      "velocity": 110,
      "chip": "ym2612"
    },
    {
      "channel": 0,
      "note": 54,
      "start": 55.82,
      "duration": 0.173,
      "velocity": 95,
      "chip": "ym2612"
    },
    {
      "channel": 1,
      "note": 88,
      "start": 55.8224,
      "duration": 0.014,
      "velocity": 110,
      "chip": "ym2612"
    },
    {
      "channel": 4,
      "note": 89,
      "start": 55.8248,
      "duration": 0.0181,
      "velocity": 124,
      "chip": "ym2612"
    },
    {
      "channel": 1,
      "note": 83,
      "start": 55.8754,
      "duration": 0.0042,
      "velocity": 110,
      "chip": "ym2612"
    },
    {
      "channel": 1,
      "note": 90,
      "start": 55.918,
      "duration": 0.0083,
      "velocity": 110,
      "chip": "ym2612"
    },
    {
      "channel": 4,
      "note": 101,
      "start": 55.9207,
      "duration": 0.0207,
      "velocity": 124,
      "chip": "ym2612"
    },
    {
      "channel": 1,
      "note": 83,
      "start": 55.9727,
      "duration": 0.0056,
      "velocity": 110,
      "chip": "ym2612"
    },
    {
      "channel": 0,
      "note": 49,
      "start": 56.0191,
      "duration": 0.0815,
      "velocity": 95,
      "chip": "ym2612"
    },
    {
      "channel": 1,
      "note": 88,
      "start": 56.0217,
      "duration": 0.0082,
      "velocity": 110,
      "chip": "ym2612"
    },
    {
      "channel": 4,
      "note": 89,
      "start": 56.024,
      "duration": 0.0115,
      "velocity": 124,
      "chip": "ym2612"
    },
    {
      "channel": 1,
      "note": 83,
      "start": 56.0739,
      "duration": 0.0053,
      "velocity": 110,
      "chip": "ym2612"
    },
    {
      "channel": 0,
      "note": 54,
      "start": 56.1173,
      "duration": 0.0772,
      "velocity": 95,
      "chip": "ym2612"
    },
    {
      "channel": 3,
      "note": 69,
      "start": 56.12,
      "duration": 0.0807,
      "velocity": 110,
      "chip": "ym2612"
    },
    {
      "channel": 1,
      "note": 90,
      "start": 56.1232,
      "duration": 0.0073,
      "velocity": 110,
      "chip": "ym2612"
    },
    {
      "channel": 4,
      "note": 89,
      "start": 56.1256,
      "duration": 0.0102,
      "velocity": 124,
      "chip": "ym2612"
    },
    {
      "channel": 1,
      "note": 81,
      "start": 56.1745,
      "duration": 0.0047,
      "velocity": 110,
      "chip": "ym2612"
    },
    {
      "channel": 0,
      "note": 52,
      "start": 56.2177,
      "duration": 0.0756,
      "velocity": 95,
      "chip": "ym2612"
    },
    {
      "channel": 1,
      "note": 88,
      "start": 56.22,
      "duration": 0.009,
      "velocity": 110,
      "chip": "ym2612"
    },
    {
      "channel": 4,
      "note": 89,
      "start": 56.2226,
      "duration": 0.0116,
      "velocity": 124,
      "chip": "ym2612"
    },
    {
      "channel": 1,
      "note": 83,
      "start": 56.2731,
      "duration": 0.0048,
      "velocity": 110,
      "chip": "ym2612"
    },
    {
      "channel": 0,
      "note": 54,
      "start": 56.3163,
      "duration": 0.0837,
      "velocity": 95,
      "chip": "ym2612"
    },
    {
      "channel": 3,
      "note": 66,
      "start": 56.3192,
      "duration": 0.5703,
      "velocity": 110,
      "chip": "ym2612"
    },
    {
      "channel": 1,
      "note": 90,
      "start": 56.3215,
      "duration": 0.0113,
      "velocity": 110,
      "chip": "ym2612"
    },
    {
      "channel": 4,
      "note": 89,
      "start": 56.3275,
      "duration": 0.0077,
      "velocity": 124,
      "chip": "ym2612"
    },
    {
      "channel": 1,
      "note": 83,
      "start": 56.3668,
      "duration": 0.0117,
      "velocity": 110,
      "chip": "ym2612"
    },
    {
      "channel": 0,
      "note": 49,
      "start": 56.4169,
      "duration": 0.0832,
      "velocity": 95,
      "chip": "ym2612"
    },
    {
      "channel": 1,
      "note": 91,
      "start": 56.4203,
      "duration": 0.0078,
      "velocity": 110,
      "chip": "ym2612"
    },
    {
      "channel": 4,
      "note": 89,
      "start": 56.4226,
      "duration": 0.0115,
      "velocity": 124,
      "chip": "ym2612"
    },
    {
      "channel": 1,
      "note": 83,
      "start": 56.4666,
      "duration": 0.0051,
      "velocity": 110,
      "chip": "ym2612"
    },
    {
      "channel": 0,
      "note": 52,
      "start": 56.5173,
      "duration": 0.0829,
      "velocity": 95,
      "chip": "ym2612"
    },
    {
      "channel": 1,
      "note": 90,
      "start": 56.5198,
      "duration": 0.0086,
      "velocity": 110,
      "chip": "ym2612"
    },
    {
      "channel": 4,
      "note": 89,
      "start": 56.5231,
      "duration": 0.0114,
      "velocity": 124,
      "chip": "ym2612"
    },
    {
      "channel": 1,
      "note": 85,
      "start": 56.5673,
      "duration": 0.0049,
      "velocity": 110,
      "chip": "ym2612"
    },
    {
      "channel": 0,
      "note": 54,
      "start": 56.6173,
      "duration": 0.1663,
      "velocity": 95,
      "chip": "ym2612"
    },
    {
      "channel": 1,
      "note": 88,
      "start": 56.6197,
      "duration": 0.0084,
      "velocity": 110,
      "chip": "ym2612"
    },
    {
      "channel": 4,
      "note": 89,
      "start": 56.6232,
      "duration": 0.0106,
      "velocity": 124,
      "chip": "ym2612"
    },
    {
      "channel": 1,
      "note": 85,
      "start": 56.6664,
      "duration": 0.0047,
      "velocity": 110,
      "chip": "ym2612"
    },
    {
      "channel": 1,
      "note": 90,
      "start": 56.7159,
      "duration": 0.0094,
      "velocity": 110,
      "chip": "ym2612"
    },
    {
      "channel": 4,
      "note": 101,
      "start": 56.7183,
      "duration": 0.0134,
      "velocity": 124,
      "chip": "ym2612"
    },
    {
      "channel": 1,
      "note": 85,
      "start": 56.7639,
      "duration": 0.0044,
      "velocity": 110,
      "chip": "ym2612"
    },
    {
      "channel": 0,
      "note": 49,
      "start": 56.8142,
      "duration": 0.0752,
      "velocity": 95,
      "chip": "ym2612"
    },
    {
      "channel": 1,
      "note": 91,
      "start": 56.8177,
      "duration": 0.008,
      "velocity": 110,
      "chip": "ym2612"
    },
    {
      "channel": 4,
      "note": 89,
      "start": 56.8201,
      "duration": 0.0112,
      "velocity": 124,
      "chip": "ym2612"
    },
    {
      "channel": 1,
      "note": 85,
      "start": 56.8632,
      "duration": 0.0052,
      "velocity": 110,
      "chip": "ym2612"
    },
    {
      "channel": 0,
      "note": 52,
      "start": 56.9076,
      "duration": 0.0826,
      "velocity": 95,
      "chip": "ym2612"
    },
    {
      "channel": 3,
      "note": 64,
      "start": 56.9102,
      "duration": 0.0801,
      "velocity": 110,
      "chip": "ym2612"
    },
    {
      "channel": 1,
      "note": 90,
      "start": 56.9124,
      "duration": 0.012,
      "velocity": 110,
      "chip": "ym2612"
    },
    {
      "channel": 4,
      "note": 89,
      "start": 56.9148,
      "duration": 0.0167,
      "velocity": 124,
      "chip": "ym2612"
    },
    {
      "channel": 1,
      "note": 85,
      "start": 56.9637,
      "duration": 0.0055,
      "velocity": 110,
      "chip": "ym2612"
    },
    {
      "channel": 0,
      "note": 54,
      "start": 57.0078,
      "duration": 0.1808,
      "velocity": 95,
      "chip": "ym2612"
    },
    {
      "channel": 3,
      "note": 66,
      "start": 57.0112,
      "duration": 0.784,
      "velocity": 110,
      "chip": "ym2612"
    },
    {
      "channel": 1,
      "note": 88,
      "start": 57.0136,
      "duration": 0.0083,
      "velocity": 110,
      "chip": "ym2612"
    },
    {
      "channel": 4,
      "note": 89,
      "start": 57.0173,
      "duration": 0.0138,
      "velocity": 124,
      "chip": "ym2612"
    },
    {
      "channel": 1,
      "note": 85,
      "start": 57.0628,
      "duration": 0.0054,
      "velocity": 110,
      "chip": "ym2612"
    },
    {
      "channel": 1,
      "note": 90,
      "start": 57.1075,
      "duration": 0.0106,
      "velocity": 110,
      "chip": "ym2612"
    },
    {
      "channel": 4,
      "note": 89,
      "start": 57.1125,
      "duration": 0.011,
      "velocity": 124,
      "chip": "ym2612"
    },
    {
      "channel": 1,
      "note": 85,
      "start": 57.162,
      "duration": 0.0048,
      "velocity": 110,
      "chip": "ym2612"
    },
    {
      "channel": 0,
      "note": 49,
      "start": 57.2055,
      "duration": 0.0822,
      "velocity": 95,
      "chip": "ym2612"
    },
    {
      "channel": 1,
      "note": 91,
      "start": 57.2078,
      "duration": 0.0089,
      "velocity": 110,
      "chip": "ym2612"
    },
    {
      "channel": 4,
      "note": 89,
      "start": 57.21,
      "duration": 0.0123,
      "velocity": 124,
      "chip": "ym2612"
    },
    {
      "channel": 1,
      "note": 85,
      "start": 57.2604,
      "duration": 0.0057,
      "velocity": 110,
      "chip": "ym2612"
    },
    {
      "channel": 0,
      "note": 52,
      "start": 57.3049,
      "duration": 0.0829,
      "velocity": 95,
      "chip": "ym2612"
    },
    {
      "channel": 1,
      "note": 90,
      "start": 57.3071,
      "duration": 0.0092,
      "velocity": 110,
      "chip": "ym2612"
    },
    {
      "channel": 4,
      "note": 89,
      "start": 57.3105,
      "duration": 0.0115,
      "velocity": 124,
      "chip": "ym2612"
    },
    {
      "channel": 1,
      "note": 85,
      "start": 57.3606,
      "duration": 0.0056,
      "velocity": 110,
      "chip": "ym2612"
    },
    {
      "channel": 0,
      "note": 54,
      "start": 57.4055,
      "duration": 0.1814,
      "velocity": 95,
      "chip": "ym2612"
    },
    {
      "channel": 1,
      "note": 88,
      "start": 57.4078,
      "duration": 0.0089,
      "velocity": 110,
      "chip": "ym2612"
    },
    {
      "channel": 4,
      "note": 89,
      "start": 57.4113,
      "duration": 0.0111,
      "velocity": 124,
      "chip": "ym2612"
    },
    {
      "channel": 1,
      "note": 85,
      "start": 57.4554,
      "duration": 0.0109,
      "velocity": 110,
      "chip": "ym2612"
    },
    {
      "channel": 1,
      "note": 90,
      "start": 57.5049,
      "duration": 0.0082,
      "velocity": 110,
      "chip": "ym2612"
    },
    {
      "channel": 4,
      "note": 101,
      "start": 57.5076,
      "duration": 0.0132,
      "velocity": 124,
      "chip": "ym2612"
    },
    {
      "channel": 1,
      "note": 85,
      "start": 57.5522,
      "duration": 0.0053,
      "velocity": 110,
      "chip": "ym2612"
    },
    {
      "channel": 0,
      "note": 49,
      "start": 57.6045,
      "duration": 0.0817,
      "velocity": 95,
      "chip": "ym2612"
    },
    {
      "channel": 1,
      "note": 91,
      "start": 57.6068,
      "duration": 0.0075,
      "velocity": 110,
      "chip": "ym2612"
    },
    {
      "channel": 4,
      "note": 89,
      "start": 57.6091,
      "duration": 0.0113,
      "velocity": 124,
      "chip": "ym2612"
    },
    {
      "channel": 1,
      "note": 85,
      "start": 57.6533,
      "duration": 0.0049,
      "velocity": 110,
      "chip": "ym2612"
    },
    {
      "channel": 0,
      "note": 52,
      "start": 57.7033,
      "duration": 0.0777,
      "velocity": 95,
      "chip": "ym2612"
    },
    {
      "channel": 1,
      "note": 90,
      "start": 57.7056,
      "duration": 0.0092,
      "velocity": 110,
      "chip": "ym2612"
    },
    {
      "channel": 4,
      "note": 89,
      "start": 57.709,
      "duration": 0.0115,
      "velocity": 124,
      "chip": "ym2612"
    },
    {
      "channel": 1,
      "note": 85,
      "start": 57.7525,
      "duration": 0.0068,
      "velocity": 110,
      "chip": "ym2612"
    },
    {
      "channel": 0,
      "note": 54,
      "start": 57.806,
      "duration": 0.0559,
      "velocity": 95,
      "chip": "ym2612"
    },
    {
      "channel": 1,
      "note": 88,
      "start": 57.8083,
      "duration": 0.0083,
      "velocity": 110,
      "chip": "ym2612"
    },
    {
      "channel": 4,
      "note": 89,
      "start": 57.811,
      "duration": 0.0114,
      "velocity": 124,
      "chip": "ym2612"
    },
    {
      "channel": 1,
      "note": 85,
      "start": 57.8551,
      "duration": 0.0068,
      "velocity": 110,
      "chip": "ym2612"
    },
    {
      "channel": 0,
      "note": 54,
      "start": 57.9094,
      "duration": 0.0751,
      "velocity": 95,
      "chip": "ym2612"
    },
    {
      "channel": 3,
      "note": 66,
      "start": 57.912,
      "duration": 0.0651,
      "velocity": 110,
      "chip": "ym2612"
    },
    {
      "channel": 1,
      "note": 90,
      "start": 57.9143,
      "duration": 0.0114,
      "velocity": 110,
      "chip": "ym2612"
    },
    {
      "channel": 4,
      "note": 89,
      "start": 57.9203,
      "duration": 0.0073,
      "velocity": 124,
      "chip": "ym2612"
    },
    {
      "channel": 1,
      "note": 84,
      "start": 57.9583,
      "duration": 0.0052,
      "velocity": 110,
      "chip": "ym2612"
    },
    {
      "channel": 0,
      "note": 49,
      "start": 58.0027,
      "duration": 0.0813,
      "velocity": 95,
      "chip": "ym2612"
    },
    {
      "channel": 3,
      "note": 73,
      "start": 58.0051,
      "duration": 0.0494,
      "velocity": 110,
      "chip": "ym2612"
    },
    {
      "channel": 1,
      "note": 90,
      "start": 58.0074,
      "duration": 0.0118,
      "velocity": 110,
      "chip": "ym2612"
    },
    {
      "channel": 4,
      "note": 89,
      "start": 58.0098,
      "duration": 0.0166,
      "velocity": 124,
      "chip": "ym2612"
    },
    {
      "channel": 1,
      "note": 84,
      "start": 58.0581,
      "duration": 0.0054,
      "velocity": 110,
      "chip": "ym2612"
    },
    {
      "channel": 0,
      "note": 52,
      "start": 58.1017,
      "duration": 0.084,
      "velocity": 95,
      "chip": "ym2612"
    },
    {
      "channel": 3,
      "note": 73,
      "start": 58.1042,
      "duration": 0.0817,
      "velocity": 110,
      "chip": "ym2612"
    },
    {
      "channel": 1,
      "note": 90,
      "start": 58.1065,
      "duration": 0.0094,
      "velocity": 110,
      "chip": "ym2612"
    },
    {
      "channel": 4,
      "note": 89,
      "start": 58.1088,
      "duration": 0.0176,
      "velocity": 124,
      "chip": "ym2612"
    },
    {
      "channel": 1,
      "note": 84,
      "start": 58.159,
      "duration": 0.0056,
      "velocity": 110,
      "chip": "ym2612"
    },
    {
      "channel": 0,
      "note": 54,
      "start": 58.2032,
      "duration": 0.1811,
      "velocity": 95,
      "chip": "ym2612"
    },
    {
      "channel": 3,
      "note": 66,
      "start": 58.2055,
      "duration": 0.0798,
      "velocity": 110,
      "chip": "ym2612"
    },
    {
      "channel": 1,
      "note": 90,
      "start": 58.2079,
      "duration": 0.008,
      "velocity": 110,
      "chip": "ym2612"
    },
    {
      "channel": 4,
      "note": 89,
      "start": 58.2106,
      "duration": 0.0106,
      "velocity": 124,
      "chip": "ym2612"
    },
    {
      "channel": 1,
      "note": 84,
      "start": 58.2597,
      "duration": 0.0042,
      "velocity": 110,
      "chip": "ym2612"
    },
    {
      "channel": 3,
      "note": 70,
      "start": 58.3028,
      "duration": 0.0752,
      "velocity": 110,
      "chip": "ym2612"
    },
    {
      "channel": 1,
      "note": 90,
      "start": 58.3051,
      "duration": 0.0087,
      "velocity": 110,
      "chip": "ym2612"
    },
    {
      "channel": 4,
      "note": 101,
      "start": 58.3074,
      "duration": 0.0117,
      "velocity": 124,
      "chip": "ym2612"
    },
    {
      "channel": 1,
      "note": 84,
      "start": 58.3582,
      "duration": 0.0044,
      "velocity": 110,
      "chip": "ym2612"
    },
    {
      "channel": 0,
      "note": 49,
      "start": 58.4019,
      "duration": 0.0839,
      "velocity": 95,
      "chip": "ym2612"
    },
    {
      "channel": 3,
      "note": 72,
      "start": 58.4047,
      "duration": 0.0812,
      "velocity": 110,
      "chip": "ym2612"
    },
    {
      "channel": 1,
      "note": 90,
      "start": 58.4083,
      "duration": 0.0084,
      "velocity": 110,
      "chip": "ym2612"
    },
    {
      "channel": 4,
      "note": 89,
      "start": 58.4112,
      "duration": 0.0092,
      "velocity": 124,
      "chip": "ym2612"
    },
    {
      "channel": 1,
      "note": 84,
      "start": 58.4598,
      "duration": 0.0055,
      "velocity": 110,
      "chip": "ym2612"
    },
    {
      "channel": 0,
      "note": 52,
      "start": 58.5037,
      "duration": 0.0819,
      "velocity": 95,
      "chip": "ym2612"
    },
    {
      "channel": 3,
      "note": 70,
      "start": 58.5063,
      "duration": 0.0721,
      "velocity": 110,
      "chip": "ym2612"
    },
    {
      "channel": 1,
      "note": 90,
      "start": 58.5086,
      "duration": 0.0088,
      "velocity": 110,
      "chip": "ym2612"
    },
    {
      "channel": 4,
      "note": 89,
      "start": 58.5109,
      "duration": 0.0096,
      "velocity": 124,
      "chip": "ym2612"
    },
    {
      "channel": 1,
      "note": 84,
      "start": 58.5515,
      "duration": 0.0136,
      "velocity": 110,
      "chip": "ym2612"
    },
    {
      "channel": 0,
      "note": 54,
      "start": 58.6032,
      "duration": 0.1803,
      "velocity": 95,
      "chip": "ym2612"
    },
    {
      "channel": 3,
      "note": 73,
      "start": 58.6062,
      "duration": 0.7223,
      "velocity": 110,
      "chip": "ym2612"
    },
    {
      "channel": 1,
      "note": 90,
      "start": 58.6085,
      "duration": 0.0087,
      "velocity": 110,
      "chip": "ym2612"
    },
    {
      "channel": 4,
      "note": 89,
      "start": 58.6122,
      "duration": 0.0073,
      "velocity": 124,
      "chip": "ym2612"
    },
    {
      "channel": 1,
      "note": 84,
      "start": 58.6507,
      "duration": 0.0054,
      "velocity": 110,
      "chip": "ym2612"
    },
    {
      "channel": 1,
      "note": 90,
      "start": 58.7034,
      "duration": 0.0112,
      "velocity": 110,
      "chip": "ym2612"
    },
    {
      "channel": 4,
      "note": 89,
      "start": 58.7082,
      "duration": 0.01,
      "velocity": 124,
      "chip": "ym2612"
    },
    {
      "channel": 1,
      "note": 84,
      "start": 58.7493,
      "duration": 0.0054,
      "velocity": 110,
      "chip": "ym2612"
    },
    {
      "channel": 0,
      "note": 49,
      "start": 58.802,
      "duration": 0.0666,
      "velocity": 95,
      "chip": "ym2612"
    },
    {
      "channel": 1,
      "note": 90,
      "start": 58.8044,
      "duration": 0.0091,
      "velocity": 110,
      "chip": "ym2612"
    },
    {
      "channel": 4,
      "note": 89,
      "start": 58.8068,
      "duration": 0.0119,
      "velocity": 124,
      "chip": "ym2612"
    },
    {
      "channel": 1,
      "note": 84,
      "start": 58.8486,
      "duration": 0.0056,
      "velocity": 110,
      "chip": "ym2612"
    },
    {
      "channel": 0,
      "note": 52,
      "start": 58.8999,
      "duration": 0.0755,
      "velocity": 95,
      "chip": "ym2612"
    },
    {
      "channel": 1,
      "note": 90,
      "start": 58.9021,
      "duration": 0.0093,
      "velocity": 110,
      "chip": "ym2612"
    },
    {
      "channel": 4,
      "note": 89,
      "start": 58.9044,
      "duration": 0.0123,
      "velocity": 124,
      "chip": "ym2612"
    },
    {
      "channel": 1,
      "note": 84,
      "start": 58.9488,
      "duration": 0.0054,
      "velocity": 110,
      "chip": "ym2612"
    },
    {
      "channel": 0,
      "note": 54,
      "start": 58.9993,
      "duration": 0.1723,
      "velocity": 95,
      "chip": "ym2612"
    },
    {
      "channel": 1,
      "note": 90,
      "start": 59.0018,
      "duration": 0.0084,
      "velocity": 110,
      "chip": "ym2612"
    },
    {
      "channel": 4,
      "note": 89,
      "start": 59.0041,
      "duration": 0.0122,
      "velocity": 124,
      "chip": "ym2612"
    },
    {
      "channel": 1,
      "note": 84,
      "start": 59.0486,
      "duration": 0.0047,
      "velocity": 110,
      "chip": "ym2612"
    },
    {
      "channel": 1,
      "note": 90,
      "start": 59.0927,
      "duration": 0.0137,
      "velocity": 110,
      "chip": "ym2612"
    },
    {
      "channel": 4,
      "note": 101,
      "start": 59.0949,
      "duration": 0.0186,
      "velocity": 124,
      "chip": "ym2612"
    },
    {
      "channel": 1,
      "note": 84,
      "start": 59.1446,
      "duration": 0.0054,
      "velocity": 110,
      "chip": "ym2612"
    },
    {
      "channel": 0,
      "note": 49,
      "start": 59.1897,
      "duration": 0.0819,
      "velocity": 95,
      "chip": "ym2612"
    },
    {
      "channel": 1,
      "note": 90,
      "start": 59.1921,
      "duration": 0.008,
      "velocity": 110,
      "chip": "ym2612"
    },
    {
      "channel": 4,
      "note": 89,
      "start": 59.1947,
      "duration": 0.0109,
      "velocity": 124,
      "chip": "ym2612"
    },
    {
      "channel": 1,
      "note": 84,
      "start": 59.2446,
      "duration": 0.0052,
      "velocity": 110,
      "chip": "ym2612"
    },
    {
      "channel": 0,
      "note": 52,
      "start": 59.2883,
      "duration": 0.0828,
      "velocity": 95,
      "chip": "ym2612"
    },
    {
      "channel": 1,
      "note": 90,
      "start": 59.2906,
      "duration": 0.0102,
      "velocity": 110,
      "chip": "ym2612"
    },
    {
      "channel": 4,
      "note": 89,
      "start": 59.2931,
      "duration": 0.0137,
      "velocity": 124,
      "chip": "ym2612"
    },
    {
      "channel": 1,
      "note": 84,
      "start": 59.3449,
      "duration": 0.0055,
      "velocity": 110,
      "chip": "ym2612"
    },
    {
      "channel": 0,
      "note": 54,
      "start": 59.3887,
      "duration": 0.0537,
      "velocity": 95,
      "chip": "ym2612"
    },
    {
      "channel": 1,
      "note": 90,
      "start": 59.3912,
      "duration": 0.0098,
      "velocity": 110,
      "chip": "ym2612"
    },
    {
      "channel": 4,
      "note": 89,
      "start": 59.395,
      "duration": 0.0117,
      "velocity": 124,
      "chip": "ym2612"
    },
    {
      "channel": 1,
      "note": 84,
      "start": 59.4451,
      "duration": 0.0054,
      "velocity": 110,
      "chip": "ym2612"
    },
    {
      "channel": 0,
      "note": 54,
      "start": 59.4895,
      "duration": 0.0835,
      "velocity": 95,
      "chip": "ym2612"
    },
    {
      "channel": 3,
      "note": 72,
      "start": 59.4921,
      "duration": 0.0507,
      "velocity": 110,
      "chip": "ym2612"
    },
    {
      "channel": 1,
      "note": 90,
      "start": 59.4956,
      "duration": 0.0112,
      "velocity": 110,
      "chip": "ym2612"
    },
    {
      "channel": 4,
      "note": 89,
      "start": 59.5005,
      "duration": 0.0084,
      "velocity": 124,
      "chip": "ym2612"
    },
    {
      "channel": 1,
      "note": 84,
      "start": 59.5455,
      "duration": 0.0058,
      "velocity": 110,
      "chip": "ym2612"
    },
    {
      "channel": 0,
      "note": 47,
      "start": 59.5899,
      "duration": 0.0835,
      "velocity": 95,
      "chip": "ym2612"
    },
    {
      "channel": 3,
      "note": 66,
      "start": 59.5924,
      "duration": 0.0749,
      "velocity": 110,
      "chip": "ym2612"
    },
    {
      "channel": 1,
      "note": 90,
      "start": 59.5946,
      "duration": 0.0093,
      "velocity": 110,
      "chip": "ym2612"
    },
    {
      "channel": 4,
      "note": 89,
      "start": 59.5987,
      "duration": 0.0106,
      "velocity": 124,
      "chip": "ym2612"
    },
    {
      "channel": 1,
      "note": 84,
      "start": 59.639,
      "duration": 0.0128,
      "velocity": 110,
      "chip": "ym2612"
    },
    {
      "channel": 0,
      "note": 49,
      "start": 59.6905,
      "duration": 0.0829,
      "velocity": 95,
      "chip": "ym2612"
    },
    {
      "channel": 3,
      "note": 70,
      "start": 59.6929,
      "duration": 0.0734,
      "velocity": 110,
      "chip": "ym2612"
    },
    {
      "channel": 1,
      "note": 90,
      "start": 59.6952,
      "duration": 0.009,
      "velocity": 110,
      "chip": "ym2612"
    },
    {
      "channel": 4,
      "note": 89,
      "start": 59.6979,
      "duration": 0.0101,
      "velocity": 124,
      "chip": "ym2612"
    },
    {
      "channel": 1,
      "note": 84,
      "start": 59.7388,
      "duration": 0.0054,
      "velocity": 110,
      "chip": "ym2612"
    },
    {
      "channel": 0,
      "note": 47,
      "start": 59.7914,
      "duration": 0.082,
      "velocity": 95,
      "chip": "ym2612"
    },
    {
      "channel": 3,
      "note": 72,
      "start": 59.7938,
      "duration": 0.0653,
      "velocity": 110,
      "chip": "ym2612"
    },
    {
      "channel": 1,
      "note": 90,
      "start": 59.796,
      "duration": 0.0087,
      "velocity": 110,
      "chip": "ym2612"
    },
    {
      "channel": 4,
      "note": 89,
      "start": 59.7983,
      "duration": 0.0095,
      "velocity": 124,
      "chip": "ym2612"
    },
    {
      "channel": 1,
      "note": 84,
      "start": 59.8391,
      "duration": 0.0052,
      "velocity": 110,
      "chip": "ym2612"
    },
    {
      "channel": 0,
      "note": 49,
      "start": 59.8915,
      "duration": 0.131,
      "velocity": 95,
      "chip": "ym2612"
    },
    {
      "channel": 3,
      "note": 70,
      "start": 59.8939,
      "duration": 0.065,
      "velocity": 110,
      "chip": "ym2612"
    },
    {
      "channel": 1,
      "note": 90,
      "start": 59.8961,
      "duration": 0.0087,
      "velocity": 110,
      "chip": "ym2612"
    },
    {
      "channel": 4,
      "note": 101,
      "start": 59.8984,
      "duration": 0.0094,
      "velocity": 124,
      "chip": "ym2612"
    },
    {
      "channel": 1,
      "note": 84,
      "start": 59.9387,
      "duration": 0.0054,
      "velocity": 110,
      "chip": "ym2612"
    },
    {
      "channel": 3,
      "note": 66,
      "start": 59.9918,
      "duration": 0.0738,
      "velocity": 110,
      "chip": "ym2612"
    },
    {
      "channel": 1,
      "note": 90,
      "start": 59.994,
      "duration": 0.0078,
      "velocity": 110,
      "chip": "ym2612"
    },
    {
      "channel": 4,
      "note": 89,
      "start": 59.9964,
      "duration": 0.0106,
      "velocity": 124,
      "chip": "ym2612"
    },
    {
      "channel": 1,
      "note": 84,
      "start": 60.0395,
      "duration": 0.0052,
      "velocity": 110,
      "chip": "ym2612"
    },
    {
      "channel": 0,
      "note": 49,
      "start": 60.0901,
      "duration": 0.1754,
      "velocity": 95,
      "chip": "ym2612"
    },
    {
      "channel": 3,
      "note": 72,
      "start": 60.0926,
      "duration": 0.0663,
      "velocity": 110,
      "chip": "ym2612"
    },
    {
      "channel": 1,
      "note": 90,
      "start": 60.0948,
      "duration": 0.009,
      "velocity": 110,
      "chip": "ym2612"
    },
    {
      "channel": 4,
      "note": 89,
      "start": 60.0983,
      "duration": 0.0106,
      "velocity": 124,
      "chip": "ym2612"
    },
    {
      "channel": 1,
      "note": 84,
      "start": 60.1389,
      "duration": 0.0056,
      "velocity": 110,
      "chip": "ym2612"
    },
    {
      "channel": 3,
      "note": 73,
      "start": 60.1846,
      "duration": 0.572,
      "velocity": 110,
      "chip": "ym2612"
    },
    {
      "channel": 1,
      "note": 90,
      "start": 60.1868,
      "duration": 0.008,
      "velocity": 110,
      "chip": "ym2612"
    },
    {
      "channel": 4,
      "note": 89,
      "start": 60.1897,
      "duration": 0.0172,
      "velocity": 124,
      "chip": "ym2612"
    },
    {
      "channel": 1,
      "note": 84,
      "start": 60.239,
      "duration": 0.0047,
      "velocity": 110,
      "chip": "ym2612"
    },
    {
      "channel": 0,
      "note": 54,
      "start": 60.2829,
      "duration": 0.0827,
      "velocity": 95,
      "chip": "ym2612"
    },
    {
      "channel": 1,
      "note": 90,
      "start": 60.2853,
      "duration": 0.0111,
      "velocity": 110,
      "chip": "ym2612"
    },
    {
      "channel": 4,
      "note": 89,
      "start": 60.2913,
      "duration": 0.0075,
      "velocity": 124,
      "chip": "ym2612"
    },
    {
      "channel": 1,
      "note": 84,
      "start": 60.3376,
      "duration": 0.0053,
      "velocity": 110,
      "chip": "ym2612"
    },
    {
      "channel": 0,
      "note": 47,
      "start": 60.3828,
      "duration": 0.0806,
      "velocity": 95,
      "chip": "ym2612"
    },
    {
      "channel": 1,
      "note": 90,
      "start": 60.385,
      "duration": 0.008,
      "velocity": 110,
      "chip": "ym2612"
    },
    {
      "channel": 4,
      "note": 89,
      "start": 60.3874,
      "duration": 0.0116,
      "velocity": 124,
      "chip": "ym2612"
    },
    {
      "channel": 1,
      "note": 84,
      "start": 60.437,
      "duration": 0.0055,
      "velocity": 110,
      "chip": "ym2612"
    },
    {
      "channel": 0,
      "note": 49,
      "start": 60.481,
      "duration": 0.0824,
      "velocity": 95,
      "chip": "ym2612"
    },
    {
      "channel": 1,
      "note": 90,
      "start": 60.4833,
      "duration": 0.0091,
      "velocity": 110,
      "chip": "ym2612"
    },
    {
      "channel": 4,
      "note": 89,
      "start": 60.4867,
      "duration": 0.0113,
      "velocity": 124,
      "chip": "ym2612"
    },
    {
      "channel": 1,
      "note": 84,
      "start": 60.5363,
      "duration": 0.0056,
      "velocity": 110,
      "chip": "ym2612"
    },
    {
      "channel": 0,
      "note": 47,
      "start": 60.5807,
      "duration": 0.0818,
      "velocity": 95,
      "chip": "ym2612"
    },
    {
      "channel": 1,
      "note": 90,
      "start": 60.5829,
      "duration": 0.0086,
      "velocity": 110,
      "chip": "ym2612"
    },
    {
      "channel": 4,
      "note": 89,
      "start": 60.5862,
      "duration": 0.0112,
      "velocity": 124,
      "chip": "ym2612"
    },
    {
      "channel": 1,
      "note": 84,
      "start": 60.6364,
      "duration": 0.005,
      "velocity": 110,
      "chip": "ym2612"
    },
    {
      "channel": 0,
      "note": 49,
      "start": 60.6802,
      "duration": 0.1163,
      "velocity": 95,
      "chip": "ym2612"
    },
    {
      "channel": 1,
      "note": 90,
      "start": 60.6824,
      "duration": 0.0095,
      "velocity": 110,
      "chip": "ym2612"
    },
    {
      "channel": 4,
      "note": 101,
      "start": 60.6859,
      "duration": 0.0117,
      "velocity": 124,
      "chip": "ym2612"
    },
    {
      "channel": 1,
      "note": 84,
      "start": 60.7304,
      "duration": 0.0051,
      "velocity": 110,
      "chip": "ym2612"
    },
    {
      "channel": 1,
      "note": 90,
      "start": 60.7814,
      "duration": 0.0088,
      "velocity": 110,
      "chip": "ym2612"
    },
    {
      "channel": 4,
      "note": 89,
      "start": 60.7837,
      "duration": 0.0129,
      "velocity": 124,
      "chip": "ym2612"
    },
    {
      "channel": 0,
      "note": 49,
      "start": 60.8283,
      "duration": 0.2105,
      "velocity": 95,
      "chip": "ym2612"
    },
    {
      "channel": 1,
      "note": 84,
      "start": 60.8309,
      "duration": 0.003,
      "velocity": 110,
      "chip": "ym2612"
    },
    {
      "channel": 1,
      "note": 90,
      "start": 60.8793,
      "duration": 0.0098,
      "velocity": 110,
      "chip": "ym2612"
    },
    {
      "channel": 4,
      "note": 89,
      "start": 60.8817,
      "duration": 0.0138,
      "velocity": 124,
      "chip": "ym2612"
    },
    {
      "channel": 1,
      "note": 84,
      "start": 60.9279,
      "duration": 0.0045,
      "velocity": 110,
      "chip": "ym2612"
    },
    {
      "channel": 1,
      "note": 90,
      "start": 60.9791,
      "duration": 0.0091,
      "velocity": 110,
      "chip": "ym2612"
    },
    {
      "channel": 4,
      "note": 89,
      "start": 60.9827,
      "duration": 0.012,
      "velocity": 124,
      "chip": "ym2612"
    },
    {
      "channel": 1,
      "note": 84,
      "start": 61.0274,
      "duration": 0.0043,
      "velocity": 110,
      "chip": "ym2612"
    },
    {
      "channel": 0,
      "note": 54,
      "start": 61.0773,
      "duration": 0.0764,
      "velocity": 95,
      "chip": "ym2612"
    },
    {
      "channel": 3,
      "note": 72,
      "start": 61.081,
      "duration": 0.0424,
      "velocity": 110,
      "chip": "ym2612"
    },
    {
      "channel": 1,
      "note": 90,
      "start": 61.0832,
      "duration": 0.0112,
      "velocity": 110,
      "chip": "ym2612"
    },
    {
      "channel": 4,
      "note": 89,
      "start": 61.0893,
      "duration": 0.0072,
      "velocity": 124,
      "chip": "ym2612"
    },
    {
      "channel": 1,
      "note": 84,
      "start": 61.1273,
      "duration": 0.0053,
      "velocity": 110,
      "chip": "ym2612"
    },
    {
      "channel": 0,
      "note": 49,
      "start": 61.1717,
      "duration": 0.0808,
      "velocity": 95,
      "chip": "ym2612"
    },
    {
      "channel": 3,
      "note": 66,
      "start": 61.1742,
      "duration": 0.0784,
      "velocity": 110,
      "chip": "ym2612"
    },
    {
      "channel": 1,
      "note": 90,
      "start": 61.1765,
      "duration": 0.011,
      "velocity": 110,
      "chip": "ym2612"
    },
    {
      "channel": 4,
      "note": 89,
      "start": 61.1788,
      "duration": 0.0157,
      "velocity": 124,
      "chip": "ym2612"
    },
    {
      "channel": 1,
      "note": 84,
      "start": 61.2265,
      "duration": 0.006,
      "velocity": 110,
      "chip": "ym2612"
    },
    {
      "channel": 0,
      "note": 52,
      "start": 61.2705,
      "duration": 0.0839,
      "velocity": 95,
      "chip": "ym2612"
    },
    {
      "channel": 3,
      "note": 70,
      "start": 61.2729,
      "duration": 0.0738,
      "velocity": 110,
      "chip": "ym2612"
    },
    {
      "channel": 1,
      "note": 90,
      "start": 61.2752,
      "duration": 0.0093,
      "velocity": 110,
      "chip": "ym2612"
    },
    {
      "channel": 4,
      "note": 89,
      "start": 61.2775,
      "duration": 0.0174,
      "velocity": 124,
      "chip": "ym2612"
    },
    {
      "channel": 1,
      "note": 84,
      "start": 61.3275,
      "duration": 0.0056,
      "velocity": 110,
      "chip": "ym2612"
    },
    {
      "channel": 0,
      "note": 54,
      "start": 61.3719,
      "duration": 0.1817,
      "velocity": 95,
      "chip": "ym2612"
    },
    {
      "channel": 3,
      "note": 72,
      "start": 61.3747,
      "duration": 0.0816,
      "velocity": 110,
      "chip": "ym2612"
    },
    {
      "channel": 1,
      "note": 90,
      "start": 61.3772,
      "duration": 0.0094,
      "velocity": 110,
      "chip": "ym2612"
    },
    {
      "channel": 4,
      "note": 89,
      "start": 61.3796,
      "duration": 0.0092,
      "velocity": 124,
      "chip": "ym2612"
    },
    {
      "channel": 1,
      "note": 84,
      "start": 61.4279,
      "duration": 0.0055,
      "velocity": 110,
      "chip": "ym2612"
    },
    {
      "channel": 3,
      "note": 70,
      "start": 61.4734,
      "duration": 0.0803,
      "velocity": 110,
      "chip": "ym2612"
    },
    {
      "channel": 1,
      "note": 90,
      "start": 61.4756,
      "duration": 0.0076,
      "velocity": 110,
      "chip": "ym2612"
    },
    {
      "channel": 4,
      "note": 101,
      "start": 61.4779,
      "duration": 0.0111,
      "velocity": 124,
      "chip": "ym2612"
    },
    {
      "channel": 1,
      "note": 84,
      "start": 61.5268,
      "duration": 0.0056,
      "velocity": 110,
      "chip": "ym2612"
    },
    {
      "channel": 0,
      "note": 49,
      "start": 61.5709,
      "duration": 0.0838,
      "velocity": 95,
      "chip": "ym2612"
    },
    {
      "channel": 3,
      "note": 66,
      "start": 61.5734,
      "duration": 0.0815,
      "velocity": 110,
      "chip": "ym2612"
    },
    {
      "channel": 1,
      "note": 90,
      "start": 61.5767,
      "duration": 0.0082,
      "velocity": 110,
      "chip": "ym2612"
    },
    {
      "channel": 4,
      "note": 89,
      "start": 61.5797,
      "duration": 0.0106,
      "velocity": 124,
      "chip": "ym2612"
    },
    {
      "channel": 1,
      "note": 84,
      "start": 61.6283,
      "duration": 0.0044,
      "velocity": 110,
      "chip": "ym2612"
    },
    {
      "channel": 0,
      "note": 52,
      "start": 61.6724,
      "duration": 0.0764,
      "velocity": 95,
      "chip": "ym2612"
    },
    {
      "channel": 3,
      "note": 70,
      "start": 61.6748,
      "duration": 0.0813,
      "velocity": 110,
      "chip": "ym2612"
    },
    {
      "channel": 1,
      "note": 90,
      "start": 61.6771,
      "duration": 0.0098,
      "velocity": 110,
      "chip": "ym2612"
    },
    {
      "channel": 4,
      "note": 89,
      "start": 61.6795,
      "duration": 0.0111,
      "velocity": 124,
      "chip": "ym2612"
    },
    {
      "channel": 1,
      "note": 84,
      "start": 61.7217,
      "duration": 0.0132,
      "velocity": 110,
      "chip": "ym2612"
    },
    {
      "channel": 0,
      "note": 54,
      "start": 61.774,
      "duration": 0.0824,
      "velocity": 95,
      "chip": "ym2612"
    },
    {
      "channel": 3,
      "note": 72,
      "start": 61.7765,
      "duration": 0.0718,
      "velocity": 110,
      "chip": "ym2612"
    },
    {
      "channel": 1,
      "note": 90,
      "start": 61.7788,
      "duration": 0.0086,
      "velocity": 110,
      "chip": "ym2612"
    },
    {
      "channel": 4,
      "note": 89,
      "start": 61.7827,
      "duration": 0.0072,
      "velocity": 124,
      "chip": "ym2612"
    },
    {
      "channel": 1,
      "note": 84,
      "start": 61.8209,
      "duration": 0.0054,
      "velocity": 110,
      "chip": "ym2612"
    },
    {
      "channel": 0,
      "note": 47,
      "start": 61.8736,
      "duration": 0.0829,
      "velocity": 95,
      "chip": "ym2612"
    },
    {
      "channel": 3,
      "note": 73,
      "start": 61.8764,
      "duration": 0.712,
      "velocity": 110,
      "chip": "ym2612"
    },
    {
      "channel": 1,
      "note": 90,
      "start": 61.8786,
      "duration": 0.0118,
      "velocity": 110,
      "chip": "ym2612"
    },
    {
      "channel": 4,
      "note": 89,
      "start": 61.8851,
      "duration": 0.0076,
      "velocity": 124,
      "chip": "ym2612"
    },
    {
      "channel": 1,
      "note": 84,
      "start": 61.9233,
      "duration": 0.0052,
      "velocity": 110,
      "chip": "ym2612"
    },
    {
      "channel": 0,
      "note": 49,
      "start": 61.9733,
      "duration": 0.0827,
      "velocity": 95,
      "chip": "ym2612"
    },
    {
      "channel": 1,
      "note": 90,
      "start": 61.9756,
      "duration": 0.0087,
      "velocity": 110,
      "chip": "ym2612"
    },
    {
      "channel": 4,
      "note": 89,
      "start": 61.9781,
      "duration": 0.0122,
      "velocity": 124,
      "chip": "ym2612"
    },
    {
      "channel": 1,
      "note": 84,
      "start": 62.0221,
      "duration": 0.005,
      "velocity": 110,
      "chip": "ym2612"
    },
    {
      "channel": 0,
      "note": 54,
      "start": 62.0724,
      "duration": 0.0757,
      "velocity": 95,
      "chip": "ym2612"
    },
    {
      "channel": 1,
      "note": 90,
      "start": 62.0746,
      "duration": 0.0093,
      "velocity": 110,
      "chip": "ym2612"
    },
    {
      "channel": 4,
      "note": 89,
      "start": 62.0779,
      "duration": 0.0118,
      "velocity": 124,
      "chip": "ym2612"
    },
    {
      "channel": 1,
      "note": 85,
      "start": 62.122,
      "duration": 0.0047,
      "velocity": 110,
      "chip": "ym2612"
    },
    {
      "channel": 0,
      "note": 52,
      "start": 62.1727,
      "duration": 0.1749,
      "velocity": 95,
      "chip": "ym2612"
    },
    {
      "channel": 1,
      "note": 90,
      "start": 62.175,
      "duration": 0.0096,
      "velocity": 110,
      "chip": "ym2612"
    },
    {
      "channel": 4,
      "note": 89,
      "start": 62.1785,
      "duration": 0.0118,
      "velocity": 124,
      "chip": "ym2612"
    },
    {
      "channel": 1,
      "note": 84,
      "start": 62.2231,
      "duration": 0.0051,
      "velocity": 110,
      "chip": "ym2612"
    },
    {
      "channel": 1,
      "note": 90,
      "start": 62.2676,
      "duration": 0.0139,
      "velocity": 110,
      "chip": "ym2612"
    },
    {
      "channel": 4,
      "note": 101,
      "start": 62.2698,
      "duration": 0.0192,
      "velocity": 124,
      "chip": "ym2612"
    },
    {
      "channel": 1,
      "note": 85,
      "start": 62.3204,
      "duration": 0.0056,
      "velocity": 110,
      "chip": "ym2612"
    },
    {
      "channel": 0,
      "note": 54,
      "start": 62.366,
      "duration": 0.0817,
      "velocity": 95,
      "chip": "ym2612"
    },
    {
      "channel": 1,
      "note": 90,
      "start": 62.3683,
      "duration": 0.0082,
      "velocity": 110,
      "chip": "ym2612"
    },
    {
      "channel": 4,
      "note": 89,
      "start": 62.3707,
      "duration": 0.0186,
      "velocity": 124,
      "chip": "ym2612"
    },
    {
      "channel": 1,
      "note": 84,
      "start": 62.421,
      "duration": 0.0052,
      "velocity": 110,
      "chip": "ym2612"
    },
    {
      "channel": 0,
      "note": 52,
      "start": 62.4646,
      "duration": 0.1609,
      "velocity": 95,
      "chip": "ym2612"
    },
    {
      "channel": 1,
      "note": 90,
      "start": 62.467,
      "duration": 0.0102,
      "velocity": 110,
      "chip": "ym2612"
    },
    {
      "channel": 4,
      "note": 89,
      "start": 62.4693,
      "duration": 0.0134,
      "velocity": 124,
      "chip": "ym2612"
    },
    {
      "channel": 1,
      "note": 85,
      "start": 62.5218,
      "duration": 0.0053,
      "velocity": 110,
      "chip": "ym2612"
    },
    {
      "channel": 1,
      "note": 90,
      "start": 62.5659,
      "duration": 0.0096,
      "velocity": 110,
      "chip": "ym2612"
    },
    {
      "channel": 4,
      "note": 89,
      "start": 62.5685,
      "duration": 0.0128,
      "velocity": 124,
      "chip": "ym2612"
    },
    {
      "channel": 1,
      "note": 85,
      "start": 62.6202,
      "duration": 0.0055,
      "velocity": 110,
      "chip": "ym2612"
    },
    {
      "channel": 0,
      "note": 54,
      "start": 62.6645,
      "duration": 0.0847,
      "velocity": 95,
      "chip": "ym2612"
    },
    {
      "channel": 3,
      "note": 74,
      "start": 62.6681,
      "duration": 0.0294,
      "velocity": 110,
      "chip": "ym2612"
    },
    {
      "channel": 1,
      "note": 90,
      "start": 62.6704,
      "duration": 0.0125,
      "velocity": 110,
      "chip": "ym2612"
    },
    {
      "channel": 4,
      "note": 89,
      "start": 62.6773,
      "duration": 0.0075,
      "velocity": 124,
      "chip": "ym2612"
    },
    {
      "channel": 3,
      "note": 73,
      "start": 62.7212,
      "duration": 0.028,
      "velocity": 110,
      "chip": "ym2612"
    },
    {
      "channel": 1,
      "note": 85,
      "start": 62.7234,
      "duration": 0.0041,
      "velocity": 110,
      "chip": "ym2612"
    },
    {
      "channel": 0,
      "note": 49,
      "start": 62.7657,
      "duration": 0.0835,
      "velocity": 95,
      "chip": "ym2612"
    },
    {
      "channel": 3,
      "note": 72,
      "start": 62.7686,
      "duration": 0.0439,
      "velocity": 110,
      "chip": "ym2612"
    },
    {
      "channel": 1,
      "note": 91,
      "start": 62.771,
      "duration": 0.0089,
      "velocity": 110,
      "chip": "ym2612"
    },
    {
      "channel": 4,
      "note": 89,
      "start": 62.7746,
      "duration": 0.0091,
      "velocity": 124,
      "chip": "ym2612"
    },
    {
      "channel": 1,
      "note": 85,
      "start": 62.8151,
      "duration": 0.0129,
      "velocity": 110,
      "chip": "ym2612"
    },
    {
      "channel": 0,
      "note": 52,
      "start": 62.8667,
      "duration": 0.0831,
      "velocity": 95,
      "chip": "ym2612"
    },
    {
      "channel": 3,
      "note": 76,
      "start": 62.8693,
      "duration": 0.0284,
      "velocity": 110,
      "chip": "ym2612"
    },
    {
      "channel": 1,
      "note": 90,
      "start": 62.8715,
      "duration": 0.0094,
      "velocity": 110,
      "chip": "ym2612"
    },
    {
      "channel": 4,
      "note": 89,
      "start": 62.8751,
      "duration": 0.0085,
      "velocity": 124,
      "chip": "ym2612"
    },
    {
      "channel": 3,
      "note": 75,
      "start": 62.9149,
      "duration": 0.035,
      "velocity": 110,
      "chip": "ym2612"
    },
    {
      "channel": 1,
      "note": 85,
      "start": 62.9172,
      "duration": 0.0041,
      "velocity": 110,
      "chip": "ym2612"
    },
    {
      "channel": 0,
      "note": 54,
      "start": 62.968,
      "duration": 0.1749,
      "velocity": 95,
      "chip": "ym2612"
    },
    {
      "channel": 3,
      "note": 74,
      "start": 62.9707,
      "duration": 0.0424,
      "velocity": 110,
      "chip": "ym2612"
    },
    {
      "channel": 1,
      "note": 90,
      "start": 62.973,
      "duration": 0.0073,
      "velocity": 110,
      "chip": "ym2612"
    },
    {
      "channel": 4,
      "note": 89,
      "start": 62.9754,
      "duration": 0.01,
      "velocity": 124,
      "chip": "ym2612"
    },
    {
      "channel": 1,
      "note": 85,
      "start": 63.016,
      "duration": 0.0049,
      "velocity": 110,
      "chip": "ym2612"
    },
    {
      "channel": 3,
      "note": 78,
      "start": 63.0675,
      "duration": 0.0304,
      "velocity": 110,
      "chip": "ym2612"
    },
    {
      "channel": 1,
      "note": 88,
      "start": 63.0697,
      "duration": 0.0095,
      "velocity": 110,
      "chip": "ym2612"
    },
    {
      "channel": 4,
      "note": 101,
      "start": 63.072,
      "duration": 0.0126,
      "velocity": 124,
      "chip": "ym2612"
    },
    {
      "channel": 3,
      "note": 77,
      "start": 63.1149,
      "duration": 0.0422,
      "velocity": 110,
      "chip": "ym2612"
    },
    {
      "channel": 1,
      "note": 85,
      "start": 63.1183,
      "duration": 0.0031,
      "velocity": 110,
      "chip": "ym2612"
    },
    {
      "channel": 0,
      "note": 49,
      "start": 63.1678,
      "duration": 0.076,
      "velocity": 95,
      "chip": "ym2612"
    },
    {
      "channel": 3,
      "note": 76,
      "start": 63.1707,
      "duration": 0.043,
      "velocity": 110,
      "chip": "ym2612"
    },
    {
      "channel": 1,
      "note": 90,
      "start": 63.1729,
      "duration": 0.0099,
      "velocity": 110,
      "chip": "ym2612"
    },
    {
      "channel": 4,
      "note": 89,
      "start": 63.1772,
      "duration": 0.0079,
      "velocity": 124,
      "chip": "ym2612"
    },
    {
      "channel": 1,
      "note": 85,
      "start": 63.2166,
      "duration": 0.0053,
      "velocity": 110,
      "chip": "ym2612"
    },
    {
      "channel": 0,
      "note": 52,
      "start": 63.2694,
      "duration": 0.0697,
      "velocity": 95,
      "chip": "ym2612"
    },
    {
      "channel": 3,
      "note": 80,
      "start": 63.2721,
      "duration": 0.028,
      "velocity": 110,
      "chip": "ym2612"
    },
    {
      "channel": 1,
      "note": 91,
      "start": 63.2744,
      "duration": 0.0086,
      "velocity": 110,
      "chip": "ym2612"
    },
    {
      "channel": 4,
      "note": 89,
      "start": 63.2769,
      "duration": 0.0089,
      "velocity": 124,
      "chip": "ym2612"
    },
    {
      "channel": 3,
      "note": 79,
      "start": 63.3174,
      "duration": 0.0359,
      "velocity": 110,
      "chip": "ym2612"
    },
    {
      "channel": 1,
      "note": 85,
      "start": 63.3196,
      "duration": 0.0041,
      "velocity": 110,
      "chip": "ym2612"
    },
    {
      "channel": 0,
      "note": 54,
      "start": 63.3631,
      "duration": 0.1376,
      "velocity": 95,
      "chip": "ym2612"
    },
    {
      "channel": 3,
      "note": 78,
      "start": 63.3661,
      "duration": 0.8526,
      "velocity": 110,
      "chip": "ym2612"
    },
    {
      "channel": 1,
      "note": 90,
      "start": 63.3695,
      "duration": 0.0111,
      "velocity": 110,
      "chip": "ym2612"
    },
    {
      "channel": 4,
      "note": 89,
      "start": 63.3722,
      "duration": 0.0155,
      "velocity": 124,
      "chip": "ym2612"
    },
    {
      "channel": 1,
      "note": 85,
      "start": 63.4193,
      "duration": 0.0052,
      "velocity": 110,
      "chip": "ym2612"
    },
    {
      "channel": 1,
      "note": 90,
      "start": 63.4633,
      "duration": 0.0118,
      "velocity": 110,
      "chip": "ym2612"
    },
    {
      "channel": 4,
      "note": 89,
      "start": 63.4701,
      "duration": 0.0154,
      "velocity": 124,
      "chip": "ym2612"
    },
    {
      "channel": 1,
      "note": 85,
      "start": 63.5173,
      "duration": 0.0058,
      "velocity": 110,
      "chip": "ym2612"
    },
    {
      "channel": 0,
      "note": 49,
      "start": 63.5616,
      "duration": 0.0814,
      "velocity": 95,
      "chip": "ym2612"
    },
    {
      "channel": 1,
      "note": 90,
      "start": 63.5642,
      "duration": 0.0081,
      "velocity": 110,
      "chip": "ym2612"
    },
    {
      "channel": 4,
      "note": 89,
      "start": 63.5665,
      "duration": 0.0114,
      "velocity": 124,
      "chip": "ym2612"
    },
    {
      "channel": 1,
      "note": 85,
      "start": 63.6163,
      "duration": 0.0052,
      "velocity": 110,
      "chip": "ym2612"
    },
    {
      "channel": 0,
      "note": 52,
      "start": 63.6597,
      "duration": 0.0752,
      "velocity": 95,
      "chip": "ym2612"
    },
    {
      "channel": 1,
      "note": 90,
      "start": 63.662,
      "duration": 0.0088,
      "velocity": 110,
      "chip": "ym2612"
    },
    {
      "channel": 4,
      "note": 89,
      "start": 63.6654,
      "duration": 0.0112,
      "velocity": 124,
      "chip": "ym2612"
    },
    {
      "channel": 1,
      "note": 85,
      "start": 63.715,
      "duration": 0.0056,
      "velocity": 110,
      "chip": "ym2612"
    },
    {
      "channel": 0,
      "note": 54,
      "start": 63.7595,
      "duration": 0.0606,
      "velocity": 95,
      "chip": "ym2612"
    },
    {
      "channel": 1,
      "note": 90,
      "start": 63.7618,
      "duration": 0.0086,
      "velocity": 110,
      "chip": "ym2612"
    },
    {
      "channel": 4,
      "note": 89,
      "start": 63.7652,
      "duration": 0.0108,
      "velocity": 124,
      "chip": "ym2612"
    },
    {
      "channel": 1,
      "note": 85,
      "start": 63.8153,
      "duration": 0.0049,
      "velocity": 110,
      "chip": "ym2612"
    },
    {
      "channel": 0,
      "note": 59,
      "start": 63.8596,
      "duration": 0.1293,
      "velocity": 95,
      "chip": "ym2612"
    },
    {
      "channel": 1,
      "note": 90,
      "start": 63.8622,
      "duration": 0.0083,
      "velocity": 110,
      "chip": "ym2612"
    },
    {
      "channel": 4,
      "note": 101,
      "start": 63.8655,
      "duration": 0.0111,
      "velocity": 124,
      "chip": "ym2612"
    },
    {
      "channel": 1,
      "note": 85,
      "start": 63.9094,
      "duration": 0.0113,
      "velocity": 110,
      "chip": "ym2612"
    },
    {
      "channel": 1,
      "note": 90,
      "start": 63.9595,
      "duration": 0.0088,
      "velocity": 110,
      "chip": "ym2612"
    },
    {
      "channel": 4,
      "note": 89,
      "start": 63.9618,
      "duration": 0.0131,
      "velocity": 124,
      "chip": "ym2612"
    },
    {
      "channel": 1,
      "note": 85,
      "start": 64.0073,
      "duration": 0.0045,
      "velocity": 110,
      "chip": "ym2612"
    },
    {
      "channel": 0,
      "note": 57,
      "start": 64.0588,
      "duration": 0.1744,
      "velocity": 95,
      "chip": "ym2612"
    },
    {
      "channel": 1,
      "note": 90,
      "start": 64.0613,
      "duration": 0.0086,
      "velocity": 110,
      "chip": "ym2612"
    },
    {
      "channel": 4,
      "note": 89,
      "start": 64.0638,
      "duration": 0.0113,
      "velocity": 124,
      "chip": "ym2612"
    },
    {
      "channel": 1,
      "note": 85,
      "start": 64.1081,
      "duration": 0.006,
      "velocity": 110,
      "chip": "ym2612"
    },
    {
      "channel": 1,
      "note": 89,
      "start": 64.1613,
      "duration": 0.0078,
      "velocity": 110,
      "chip": "ym2612"
    },
    {
      "channel": 4,
      "note": 89,
      "start": 64.1639,
      "duration": 0.0112,
      "velocity": 124,
      "chip": "ym2612"
    },
    {
      "channel": 1,
      "note": 84,
      "start": 64.2073,
      "duration": 0.0041,
      "velocity": 110,
      "chip": "ym2612"
    },
    {
      "channel": 4,
      "note": 89,
      "start": 64.2608,
      "duration": 0.0112,
      "velocity": 124,
      "chip": "ym2612"
    },
    {
      "channel": 4,
      "note": 89,
      "start": 64.3542,
      "duration": 0.0144,
      "velocity": 124,
      "chip": "ym2612"
    },
    {
      "channel": 4,
      "note": 89,
      "start": 64.4443,
      "duration": 0.0222,
      "velocity": 124,
      "chip": "ym2612"
    }
  ]
}