{
  "track_name": "09 - Inner Darkside",
  "duration_sec": 148.392,
  "sample_rate": 44100,
  "note_count": 1320,
  "unique_pitches": 43,
  "pitch_range": 62,
  "avg_note_duration": 0.3157,
  "reconstruction_stats": {
    "notes_reconstructed": 1320,
    "keyon_events": 1320,
    "keyoff_events": 1316,
    "orphan_keyons": 2,
    "unique_pitches": 43,
    "pitch_range": 62,
    "avg_duration_sec": 0.3157
  },
  "metadata": {
    "source": "S\\Shinobi III\\09 - Inner Darkside.vgz"
  },
  "notes": [
    {
      "channel": 0,
      "note": 55,
      "start": 0.018,
      "duration": 0.3992,
      "velocity": 81,
      "chip": "ym2612"
    },
    {
      "channel": 0,
      "note": 55,
      "start": 0.4174,
      "duration": 0.2,
      "velocity": 81,
      "chip": "ym2612"
    },
    {
      "channel": 0,
      "note": 55,
      "start": 0.6177,
      "duration": 0.2,
      "velocity": 81,
      "chip": "ym2612"
    },
    {
      "channel": 0,
      "note": 55,
      "start": 1.0182,
      "duration": 0.2,
      "velocity": 81,
      "chip": "ym2612"
    },
    {
      "channel": 0,
      "note": 53,
      "start": 1.4187,
      "duration": 0.2,
      "velocity": 81,
      "chip": "ym2612"
    },
    {
      "channel": 0,
      "note": 50,
      "start": 1.619,
      "duration": 0.2,
      "velocity": 81,
      "chip": "ym2612"
    },
    {
      "channel": 0,
      "note": 50,
      "start": 1.8193,
      "duration": 0.2,
      "velocity": 81,
      "chip": "ym2612"
    },
    {
      "channel": 0,
      "note": 53,
      "start": 2.0195,
      "duration": 0.2,
      "velocity": 81,
      "chip": "ym2612"
    },
    {
      "channel": 0,
      "note": 53,
      "start": 2.2198,
      "duration": 0.2,
      "velocity": 81,
      "chip": "ym2612"
    },
    {
      "channel": 0,
      "note": 57,
      "start": 2.42,
      "duration": 0.2,
      "velocity": 81,
      "chip": "ym2612"
    },
    {
      "channel": 0,
      "note": 57,
      "start": 2.6203,
      "duration": 0.2,
      "velocity": 81,
      "chip": "ym2612"
    },
    {
      "channel": 0,
      "note": 55,
      "start": 2.8205,
      "duration": 0.2,
      "velocity": 81,
      "chip": "ym2612"
    },
    {
      "channel": 1,
      "note": 69,
      "start": 2.8209,
      "duration": 0.0997,
      "velocity": 94,
      "chip": "ym2612"
    },
    {
      "channel": 1,
      "note": 70,
      "start": 2.9208,
      "duration": 0.1,
      "velocity": 94,
      "chip": "ym2612"
    },
    {
      "channel": 0,
      "note": 55,
      "start": 3.0208,
      "duration": 0.2,
      "velocity": 81,
      "chip": "ym2612"
    },
    {
      "channel": 1,
      "note": 74,
      "start": 3.0211,
      "duration": 0.0997,
      "velocity": 94,
      "chip": "ym2612"
    },
    {
      "channel": 4,
      "note": 69,
      "start": 3.088,
      "duration": 0.0998,
      "velocity": 94,
      "chip": "ym2612"
    },
    {
      "channel": 1,
      "note": 76,
      "start": 3.1211,
      "duration": 2.503,
      "velocity": 94,
      "chip": "ym2612"
    },
    {
      "channel": 4,
      "note": 70,
      "start": 3.1881,
      "duration": 0.0999,
      "velocity": 94,
      "chip": "ym2612"
    },
    {
      "channel": 0,
      "note": 58,
      "start": 3.2211,
      "duration": 0.2,
      "velocity": 81,
      "chip": "ym2612"
    },
    {
      "channel": 4,
      "note": 74,
      "start": 3.2882,
      "duration": 0.0999,
      "velocity": 94,
      "chip": "ym2612"
    },
    {
      "channel": 4,
      "note": 76,
      "start": 3.3883,
      "duration": 2.5032,
      "velocity": 94,
      "chip": "ym2612"
    },
    {
      "channel": 0,
      "note": 58,
      "start": 3.4213,
      "duration": 0.2,
      "velocity": 81,
      "chip": "ym2612"
    },
    {
      "channel": 0,
      "note": 60,
      "start": 3.6216,
      "duration": 0.2,
      "velocity": 81,
      "chip": "ym2612"
    },
    {
      "channel": 0,
      "note": 60,
      "start": 3.8218,
      "duration": 0.2,
      "velocity": 81,
      "chip": "ym2612"
    },
    {
      "channel": 2,
      "note": 72,
      "start": 4.8245,
      "duration": 0.0987,
      "velocity": 20,
      "chip": "ym2612"
    },
    {
      "channel": 3,
      "note": 72,
      "start": 4.8914,
      "duration": 0.0988,
      "velocity": 20,
      "chip": "ym2612"
    },
    {
      "channel": 2,
      "note": 74,
      "start": 4.9235,
      "duration": 0.0999,
      "velocity": 20,
      "chip": "ym2612"
    },
    {
      "channel": 3,
      "note": 74,
      "start": 4.9904,
      "duration": 0.0999,
      "velocity": 20,
      "chip": "ym2612"
    },
    {
      "channel": 2,
      "note": 76,
      "start": 5.0236,
      "duration": 0.0999,
      "velocity": 20,
      "chip": "ym2612"
    },
    {
      "channel": 3,
      "note": 76,
      "start": 5.0905,
      "duration": 0.0999,
      "velocity": 20,
      "chip": "ym2612"
    },
    {
      "channel": 2,
      "note": 77,
      "start": 5.1237,
      "duration": 0.0999,
      "velocity": 20,
      "chip": "ym2612"
    },
    {
      "channel": 3,
      "note": 77,
      "start": 5.1906,
      "duration": 0.0999,
      "velocity": 20,
      "chip": "ym2612"
    },
    {
      "channel": 2,
      "note": 76,
      "start": 5.2239,
      "duration": 0.0999,
      "velocity": 20,
      "chip": "ym2612"
    },
    {
      "channel": 3,
      "note": 76,
      "start": 5.2908,
      "duration": 0.0999,
      "velocity": 20,
      "chip": "ym2612"
    },
    {
      "channel": 2,
      "note": 74,
      "start": 5.324,
      "duration": 0.0999,
      "velocity": 20,
      "chip": "ym2612"
    },
    {
      "channel": 3,
      "note": 74,
      "start": 5.3909,
      "duration": 0.0999,
      "velocity": 20,
      "chip": "ym2612"
    },
    {
      "channel": 2,
      "note": 72,
      "start": 5.4241,
      "duration": 0.0999,
      "velocity": 20,
      "chip": "ym2612"
    },
    {
      "channel": 3,
      "note": 72,
      "start": 5.491,
      "duration": 0.0999,
      "velocity": 20,
      "chip": "ym2612"
    },
    {
      "channel": 2,
      "note": 74,
      "start": 5.5242,
      "duration": 0.1,
      "velocity": 20,
      "chip": "ym2612"
    },
    {
      "channel": 3,
      "note": 74,
      "start": 5.5912,
      "duration": 0.0998,
      "velocity": 20,
      "chip": "ym2612"
    },
    {
      "channel": 2,
      "note": 76,
      "start": 5.6245,
      "duration": 0.0996,
      "velocity": 20,
      "chip": "ym2612"
    },
    {
      "channel": 3,
      "note": 76,
      "start": 5.6912,
      "duration": 0.0999,
      "velocity": 20,
      "chip": "ym2612"
    },
    {
      "channel": 2,
      "note": 77,
      "start": 5.7244,
      "duration": 0.0999,
      "velocity": 20,
      "chip": "ym2612"
    },
    {
      "channel": 3,
      "note": 77,
      "start": 5.7913,
      "duration": 0.0999,
      "velocity": 20,
      "chip": "ym2612"
    },
    {
      "channel": 2,
      "note": 76,
      "start": 5.8245,
      "duration": 0.0999,
      "velocity": 20,
      "chip": "ym2612"
    },
    {
      "channel": 3,
      "note": 76,
      "start": 5.8914,
      "duration": 0.0999,
      "velocity": 20,
      "chip": "ym2612"
    },
    {
      "channel": 2,
      "note": 74,
      "start": 5.9246,
      "duration": 0.0999,
      "velocity": 20,
      "chip": "ym2612"
    },
    {
      "channel": 3,
      "note": 74,
      "start": 5.9916,
      "duration": 0.0999,
      "velocity": 20,
      "chip": "ym2612"
    },
    {
      "channel": 2,
      "note": 72,
      "start": 6.0248,
      "duration": 0.0999,
      "velocity": 20,
      "chip": "ym2612"
    },
    {
      "channel": 3,
      "note": 72,
      "start": 6.0917,
      "duration": 0.0999,
      "velocity": 20,
      "chip": "ym2612"
    },
    {
      "channel": 2,
      "note": 74,
      "start": 6.1249,
      "duration": 0.1001,
      "velocity": 20,
      "chip": "ym2612"
    },
    {
      "channel": 3,
      "note": 74,
      "start": 6.1918,
      "duration": 0.1,
      "velocity": 20,
      "chip": "ym2612"
    },
    {
      "channel": 1,
      "note": 77,
      "start": 6.225,
      "duration": 0.2003,
      "velocity": 94,
      "chip": "ym2612"
    },
    {
      "channel": 2,
      "note": 76,
      "start": 6.2253,
      "duration": 0.0997,
      "velocity": 20,
      "chip": "ym2612"
    },
    {
      "channel": 3,
      "note": 76,
      "start": 6.292,
      "duration": 0.0999,
      "velocity": 20,
      "chip": "ym2612"
    },
    {
      "channel": 2,
      "note": 77,
      "start": 6.3253,
      "duration": 0.1004,
      "velocity": 20,
      "chip": "ym2612"
    },
    {
      "channel": 3,
      "note": 77,
      "start": 6.3922,
      "duration": 0.1,
      "velocity": 20,
      "chip": "ym2612"
    },
    {
      "channel": 0,
      "note": 55,
      "start": 6.4252,
      "duration": 0.4002,
      "velocity": 81,
      "chip": "ym2612"
    },
    {
      "channel": 1,
      "note": 76,
      "start": 6.4256,
      "duration": 1.6019,
      "velocity": 94,
      "chip": "ym2612"
    },
    {
      "channel": 2,
      "note": 76,
      "start": 6.4259,
      "duration": 0.0995,
      "velocity": 20,
      "chip": "ym2612"
    },
    {
      "channel": 3,
      "note": 76,
      "start": 6.4924,
      "duration": 0.0999,
      "velocity": 20,
      "chip": "ym2612"
    },
    {
      "channel": 4,
      "note": 77,
      "start": 6.4927,
      "duration": 0.1998,
      "velocity": 94,
      "chip": "ym2612"
    },
    {
      "channel": 2,
      "note": 74,
      "start": 6.5256,
      "duration": 0.0999,
      "velocity": 20,
      "chip": "ym2612"
    },
    {
      "channel": 3,
      "note": 74,
      "start": 6.5925,
      "duration": 0.0998,
      "velocity": 20,
      "chip": "ym2612"
    },
    {
      "channel": 4,
      "note": 76,
      "start": 6.6928,
      "duration": 1.6022,
      "velocity": 94,
      "chip": "ym2612"
    },
    {
      "channel": 0,
      "note": 55,
      "start": 6.8257,
      "duration": 0.2,
      "velocity": 81,
      "chip": "ym2612"
    },
    {
      "channel": 0,
      "note": 55,
      "start": 7.0259,
      "duration": 0.2,
      "velocity": 81,
      "chip": "ym2612"
    },
    {
      "channel": 0,
      "note": 55,
      "start": 7.4265,
      "duration": 0.2,
      "velocity": 81,
      "chip": "ym2612"
    },
    {
      "channel": 0,
      "note": 53,
      "start": 7.827,
      "duration": 0.2,
      "velocity": 81,
      "chip": "ym2612"
    },
    {
      "channel": 0,
      "note": 50,
      "start": 8.0273,
      "duration": 0.2,
      "velocity": 81,
      "chip": "ym2612"
    },
    {
      "channel": 1,
      "note": 76,
      "start": 8.0275,
      "duration": 0.8008,
      "velocity": 94,
      "chip": "ym2612"
    },
    {
      "channel": 0,
      "note": 50,
      "start": 8.2275,
      "duration": 0.2,
      "velocity": 81,
      "chip": "ym2612"
    },
    {
      "channel": 2,
      "note": 79,
      "start": 8.228,
      "duration": 0.2,
      "velocity": 20,
      "chip": "ym2612"
    },
    {
      "channel": 3,
      "note": 79,
      "start": 8.2947,
      "duration": 0.2,
      "velocity": 20,
      "chip": "ym2612"
    },
    {
      "channel": 4,
      "note": 76,
      "start": 8.295,
      "duration": 0.8007,
      "velocity": 94,
      "chip": "ym2612"
    },
    {
      "channel": 0,
      "note": 53,
      "start": 8.4278,
      "duration": 0.2,
      "velocity": 81,
      "chip": "ym2612"
    },
    {
      "channel": 2,
      "note": 74,
      "start": 8.4282,
      "duration": 0.4003,
      "velocity": 20,
      "chip": "ym2612"
    },
    {
      "channel": 3,
      "note": 74,
      "start": 8.495,
      "duration": 0.4002,
      "velocity": 20,
      "chip": "ym2612"
    },
    {
      "channel": 0,
      "note": 53,
      "start": 8.628,
      "duration": 0.2,
      "velocity": 81,
      "chip": "ym2612"
    },
    {
      "channel": 0,
      "note": 57,
      "start": 8.8283,
      "duration": 0.2,
      "velocity": 81,
      "chip": "ym2612"
    },
    {
      "channel": 2,
      "note": 77,
      "start": 8.8288,
      "duration": 0.1998,
      "velocity": 20,
      "chip": "ym2612"
    },
    {
      "channel": 3,
      "note": 77,
      "start": 8.8954,
      "duration": 0.2,
      "velocity": 20,
      "chip": "ym2612"
    },
    {
      "channel": 0,
      "note": 57,
      "start": 9.0285,
      "duration": 0.2,
      "velocity": 81,
      "chip": "ym2612"
    },
    {
      "channel": 2,
      "note": 72,
      "start": 9.0289,
      "duration": 0.4005,
      "velocity": 20,
      "chip": "ym2612"
    },
    {
      "channel": 3,
      "note": 72,
      "start": 9.0957,
      "duration": 0.4003,
      "velocity": 20,
      "chip": "ym2612"
    },
    {
      "channel": 0,
      "note": 55,
      "start": 9.2288,
      "duration": 0.2,
      "velocity": 81,
      "chip": "ym2612"
    },
    {
      "channel": 0,
      "note": 55,
      "start": 9.429,
      "duration": 0.2,
      "velocity": 81,
      "chip": "ym2612"
    },
    {
      "channel": 1,
      "note": 77,
      "start": 9.4294,
      "duration": 0.2,
      "velocity": 94,
      "chip": "ym2612"
    },
    {
      "channel": 2,
      "note": 79,
      "start": 9.4297,
      "duration": 0.2,
      "velocity": 20,
      "chip": "ym2612"
    },
    {
      "channel": 3,
      "note": 79,
      "start": 9.4963,
      "duration": 0.2,
      "velocity": 20,
      "chip": "ym2612"
    },
    {
      "channel": 0,
      "note": 58,
      "start": 9.6293,
      "duration": 0.2,
      "velocity": 81,
      "chip": "ym2612"
    },
    {
      "channel": 1,
      "note": 81,
      "start": 9.6297,
      "duration": 0.6005,
      "velocity": 94,
      "chip": "ym2612"
    },
    {
      "channel": 2,
      "note": 74,
      "start": 9.63,
      "duration": 0.4001,
      "velocity": 20,
      "chip": "ym2612"
    },
    {
      "channel": 3,
      "note": 74,
      "start": 9.6965,
      "duration": 0.4003,
      "velocity": 20,
      "chip": "ym2612"
    },
    {
      "channel": 4,
      "note": 77,
      "start": 9.6969,
      "duration": 0.1999,
      "velocity": 94,
      "chip": "ym2612"
    },
    {
      "channel": 0,
      "note": 58,
      "start": 9.8296,
      "duration": 0.2,
      "velocity": 81,
      "chip": "ym2612"
    },
    {
      "channel": 4,
      "note": 81,
      "start": 9.897,
      "duration": 0.6004,
      "velocity": 94,
      "chip": "ym2612"
    },
    {
      "channel": 0,
      "note": 60,
      "start": 10.0298,
      "duration": 0.2,
      "velocity": 81,
      "chip": "ym2612"
    },
    {
      "channel": 2,
      "note": 77,
      "start": 10.0303,
      "duration": 0.2002,
      "velocity": 20,
      "chip": "ym2612"
    },
    {
      "channel": 3,
      "note": 77,
      "start": 10.0971,
      "duration": 0.2,
      "velocity": 20,
      "chip": "ym2612"
    },
    {
      "channel": 0,
      "note": 60,
      "start": 10.2301,
      "duration": 0.2,
      "velocity": 81,
      "chip": "ym2612"
    },
    {
      "channel": 1,
      "note": 79,
      "start": 10.2304,
      "duration": 0.6003,
      "velocity": 94,
      "chip": "ym2612"
    },
    {
      "channel": 2,
      "note": 72,
      "start": 10.2307,
      "duration": 0.3998,
      "velocity": 20,
      "chip": "ym2612"
    },
    {
      "channel": 3,
      "note": 72,
      "start": 10.2973,
      "duration": 0.4002,
      "velocity": 20,
      "chip": "ym2612"
    },
    {
      "channel": 4,
      "note": 79,
      "start": 10.4976,
      "duration": 0.6005,
      "velocity": 94,
      "chip": "ym2612"
    },
    {
      "channel": 2,
      "note": 79,
      "start": 10.6308,
      "duration": 0.2002,
      "velocity": 20,
      "chip": "ym2612"
    },
    {
      "channel": 3,
      "note": 79,
      "start": 10.6978,
      "duration": 0.2,
      "velocity": 20,
      "chip": "ym2612"
    },
    {
      "channel": 1,
      "note": 77,
      "start": 10.8309,
      "duration": 0.6005,
      "velocity": 94,
      "chip": "ym2612"
    },
    {
      "channel": 2,
      "note": 74,
      "start": 10.8312,
      "duration": 0.4001,
      "velocity": 20,
      "chip": "ym2612"
    },
    {
      "channel": 3,
      "note": 74,
      "start": 10.898,
      "duration": 0.4003,
      "velocity": 20,
      "chip": "ym2612"
    },
    {
      "channel": 4,
      "note": 77,
      "start": 11.0984,
      "duration": 0.6005,
      "velocity": 94,
      "chip": "ym2612"
    },
    {
      "channel": 2,
      "note": 77,
      "start": 11.2316,
      "duration": 0.2002,
      "velocity": 20,
      "chip": "ym2612"
    },
    {
      "channel": 3,
      "note": 77,
      "start": 11.2985,
      "duration": 0.2,
      "velocity": 20,
      "chip": "ym2612"
    },
    {
      "channel": 1,
      "note": 76,
      "start": 11.4317,
      "duration": 0.2,
      "velocity": 94,
      "chip": "ym2612"
    },
    {
      "channel": 2,
      "note": 72,
      "start": 11.432,
      "duration": 0.4002,
      "velocity": 20,
      "chip": "ym2612"
    },
    {
      "channel": 3,
      "note": 72,
      "start": 11.4988,
      "duration": 0.4002,
      "velocity": 20,
      "chip": "ym2612"
    },
    {
      "channel": 1,
      "note": 77,
      "start": 11.6319,
      "duration": 0.2,
      "velocity": 94,
      "chip": "ym2612"
    },
    {
      "channel": 4,
      "note": 76,
      "start": 11.6992,
      "duration": 0.2001,
      "velocity": 94,
      "chip": "ym2612"
    },
    {
      "channel": 1,
      "note": 76,
      "start": 11.8322,
      "duration": 0.2001,
      "velocity": 94,
      "chip": "ym2612"
    },
    {
      "channel": 2,
      "note": 74,
      "start": 11.8325,
      "duration": 0.2001,
      "velocity": 20,
      "chip": "ym2612"
    },
    {
      "channel": 3,
      "note": 74,
      "start": 11.8993,
      "duration": 0.2,
      "velocity": 20,
      "chip": "ym2612"
    },
    {
      "channel": 4,
      "note": 77,
      "start": 11.8996,
      "duration": 0.2,
      "velocity": 94,
      "chip": "ym2612"
    },
    {
      "channel": 1,
      "note": 74,
      "start": 12.0326,
      "duration": 0.6538,
      "velocity": 94,
      "chip": "ym2612"
    },
    {
      "channel": 2,
      "note": 77,
      "start": 12.0329,
      "duration": 0.4,
      "velocity": 20,
      "chip": "ym2612"
    },
    {
      "channel": 3,
      "note": 77,
      "start": 12.0995,
      "duration": 0.4003,
      "velocity": 20,
      "chip": "ym2612"
    },
    {
      "channel": 4,
      "note": 76,
      "start": 12.0999,
      "duration": 0.1998,
      "velocity": 94,
      "chip": "ym2612"
    },
    {
      "channel": 4,
      "note": 74,
      "start": 12.3,
      "duration": 0.5062,
      "velocity": 94,
      "chip": "ym2612"
    },
    {
      "channel": 2,
      "note": 72,
      "start": 12.4331,
      "duration": 0.2,
      "velocity": 20,
      "chip": "ym2612"
    },
    {
      "channel": 3,
      "note": 72,
      "start": 12.5001,
      "duration": 0.1336,
      "velocity": 20,
      "chip": "ym2612"
    },
    {
      "channel": 0,
      "note": 55,
      "start": 12.6863,
      "duration": 0.253,
      "velocity": 81,
      "chip": "ym2612"
    },
    {
      "channel": 1,
      "note": 76,
      "start": 12.6866,
      "duration": 0.0003,
      "velocity": 94,
      "chip": "ym2612"
    },
    {
      "channel": 1,
      "note": 77,
      "start": 12.6871,
      "duration": 0.0522,
      "velocity": 94,
      "chip": "ym2612"
    },
    {
      "channel": 1,
      "note": 86,
      "start": 12.7395,
      "duration": 1.759,
      "velocity": 94,
      "chip": "ym2612"
    },
    {
      "channel": 4,
      "note": 76,
      "start": 12.8065,
      "duration": 0.0999,
      "velocity": 94,
      "chip": "ym2612"
    },
    {
      "channel": 4,
      "note": 77,
      "start": 12.9066,
      "duration": 0.0331,
      "velocity": 94,
      "chip": "ym2612"
    },
    {
      "channel": 0,
      "note": 55,
      "start": 12.9395,
      "duration": 0.0523,
      "velocity": 81,
      "chip": "ym2612"
    },
    {
      "channel": 4,
      "note": 86,
      "start": 12.9399,
      "duration": 1.8261,
      "velocity": 94,
      "chip": "ym2612"
    },
    {
      "channel": 0,
      "note": 55,
      "start": 12.992,
      "duration": 0.0524,
      "velocity": 81,
      "chip": "ym2612"
    },
    {
      "channel": 0,
      "note": 55,
      "start": 13.245,
      "duration": 0.2,
      "velocity": 81,
      "chip": "ym2612"
    },
    {
      "channel": 2,
      "note": 74,
      "start": 13.4456,
      "duration": 0.2001,
      "velocity": 20,
      "chip": "ym2612"
    },
    {
      "channel": 3,
      "note": 74,
      "start": 13.5124,
      "duration": 0.2001,
      "velocity": 20,
      "chip": "ym2612"
    },
    {
      "channel": 0,
      "note": 53,
      "start": 13.6455,
      "duration": 0.2,
      "velocity": 81,
      "chip": "ym2612"
    },
    {
      "channel": 2,
      "note": 76,
      "start": 13.646,
      "duration": 0.2,
      "velocity": 20,
      "chip": "ym2612"
    },
    {
      "channel": 3,
      "note": 76,
      "start": 13.7127,
      "duration": 0.2,
      "velocity": 20,
      "chip": "ym2612"
    },
    {
      "channel": 0,
      "note": 50,
      "start": 13.8457,
      "duration": 0.2,
      "velocity": 81,
      "chip": "ym2612"
    },
    {
      "channel": 2,
      "note": 77,
      "start": 13.8462,
      "duration": 0.2001,
      "velocity": 20,
      "chip": "ym2612"
    },
    {
      "channel": 3,
      "note": 77,
      "start": 13.913,
      "duration": 0.2,
      "velocity": 20,
      "chip": "ym2612"
    },
    {
      "channel": 0,
      "note": 50,
      "start": 14.046,
      "duration": 0.2,
      "velocity": 81,
      "chip": "ym2612"
    },
    {
      "channel": 2,
      "note": 81,
      "start": 14.0466,
      "duration": 0.1999,
      "velocity": 20,
      "chip": "ym2612"
    },
    {
      "channel": 3,
      "note": 81,
      "start": 14.1132,
      "duration": 0.2,
      "velocity": 20,
      "chip": "ym2612"
    },
    {
      "channel": 0,
      "note": 53,
      "start": 14.2463,
      "duration": 0.2001,
      "velocity": 81,
      "chip": "ym2612"
    },
    {
      "channel": 2,
      "note": 79,
      "start": 14.2467,
      "duration": 0.1999,
      "velocity": 20,
      "chip": "ym2612"
    },
    {
      "channel": 3,
      "note": 79,
      "start": 14.3135,
      "duration": 0.1338,
      "velocity": 20,
      "chip": "ym2612"
    },
    {
      "channel": 0,
      "note": 53,
      "start": 14.4466,
      "duration": 0.0516,
      "velocity": 81,
      "chip": "ym2612"
    },
    {
      "channel": 2,
      "note": 77,
      "start": 14.4468,
      "duration": 0.0519,
      "velocity": 20,
      "chip": "ym2612"
    },
    {
      "channel": 3,
      "note": 77,
      "start": 14.4474,
      "duration": 0.1179,
      "velocity": 20,
      "chip": "ym2612"
    },
    {
      "channel": 0,
      "note": 57,
      "start": 14.4984,
      "duration": 0.2,
      "velocity": 81,
      "chip": "ym2612"
    },
    {
      "channel": 2,
      "note": 79,
      "start": 14.4989,
      "duration": 0.2001,
      "velocity": 20,
      "chip": "ym2612"
    },
    {
      "channel": 3,
      "note": 79,
      "start": 14.5655,
      "duration": 0.2001,
      "velocity": 20,
      "chip": "ym2612"
    },
    {
      "channel": 0,
      "note": 57,
      "start": 14.6987,
      "duration": 0.2,
      "velocity": 81,
      "chip": "ym2612"
    },
    {
      "channel": 1,
      "note": 91,
      "start": 14.699,
      "duration": 0.2,
      "velocity": 94,
      "chip": "ym2612"
    },
    {
      "channel": 2,
      "note": 76,
      "start": 14.6993,
      "duration": 0.2,
      "velocity": 20,
      "chip": "ym2612"
    },
    {
      "channel": 3,
      "note": 76,
      "start": 14.7659,
      "duration": 0.2,
      "velocity": 20,
      "chip": "ym2612"
    },
    {
      "channel": 0,
      "note": 55,
      "start": 14.8989,
      "duration": 0.2,
      "velocity": 81,
      "chip": "ym2612"
    },
    {
      "channel": 1,
      "note": 89,
      "start": 14.8992,
      "duration": 0.2,
      "velocity": 94,
      "chip": "ym2612"
    },
    {
      "channel": 2,
      "note": 77,
      "start": 14.8996,
      "duration": 0.2,
      "velocity": 20,
      "chip": "ym2612"
    },
    {
      "channel": 3,
      "note": 77,
      "start": 14.9661,
      "duration": 0.2,
      "velocity": 20,
      "chip": "ym2612"
    },
    {
      "channel": 4,
      "note": 91,
      "start": 14.9665,
      "duration": 0.2,
      "velocity": 94,
      "chip": "ym2612"
    },
    {
      "channel": 0,
      "note": 55,
      "start": 15.0992,
      "duration": 0.2,
      "velocity": 81,
      "chip": "ym2612"
    },
    {
      "channel": 1,
      "note": 88,
      "start": 15.0995,
      "duration": 0.2,
      "velocity": 94,
      "chip": "ym2612"
    },
    {
      "channel": 2,
      "note": 74,
      "start": 15.0998,
      "duration": 0.2,
      "velocity": 20,
      "chip": "ym2612"
    },
    {
      "channel": 3,
      "note": 74,
      "start": 15.1664,
      "duration": 0.2,
      "velocity": 20,
      "chip": "ym2612"
    },
    {
      "channel": 4,
      "note": 89,
      "start": 15.1667,
      "duration": 0.2,
      "velocity": 94,
      "chip": "ym2612"
    },
    {
      "channel": 0,
      "note": 58,
      "start": 15.2995,
      "duration": 0.2,
      "velocity": 81,
      "chip": "ym2612"
    },
    {
      "channel": 1,
      "note": 86,
      "start": 15.2998,
      "duration": 1.4012,
      "velocity": 94,
      "chip": "ym2612"
    },
    {
      "channel": 2,
      "note": 72,
      "start": 15.3001,
      "duration": 0.1998,
      "velocity": 20,
      "chip": "ym2612"
    },
    {
      "channel": 3,
      "note": 72,
      "start": 15.3667,
      "duration": 0.2,
      "velocity": 20,
      "chip": "ym2612"
    },
    {
      "channel": 4,
      "note": 88,
      "start": 15.367,
      "duration": 0.2,
      "velocity": 94,
      "chip": "ym2612"
    },
    {
      "channel": 0,
      "note": 58,
      "start": 15.4997,
      "duration": 0.2,
      "velocity": 81,
      "chip": "ym2612"
    },
    {
      "channel": 2,
      "note": 74,
      "start": 15.5002,
      "duration": 0.2,
      "velocity": 20,
      "chip": "ym2612"
    },
    {
      "channel": 3,
      "note": 74,
      "start": 15.5669,
      "duration": 0.2,
      "velocity": 20,
      "chip": "ym2612"
    },
    {
      "channel": 4,
      "note": 86,
      "start": 15.5673,
      "duration": 1.4014,
      "velocity": 94,
      "chip": "ym2612"
    },
    {
      "channel": 0,
      "note": 60,
      "start": 15.7,
      "duration": 0.2,
      "velocity": 81,
      "chip": "ym2612"
    },
    {
      "channel": 2,
      "note": 76,
      "start": 15.7004,
      "duration": 0.2,
      "velocity": 20,
      "chip": "ym2612"
    },
    {
      "channel": 3,
      "note": 76,
      "start": 15.7672,
      "duration": 0.2,
      "velocity": 20,
      "chip": "ym2612"
    },
    {
      "channel": 0,
      "note": 60,
      "start": 15.9002,
      "duration": 0.2,
      "velocity": 81,
      "chip": "ym2612"
    },
    {
      "channel": 2,
      "note": 71,
      "start": 15.9007,
      "duration": 0.1999,
      "velocity": 20,
      "chip": "ym2612"
    },
    {
      "channel": 3,
      "note": 71,
      "start": 15.9675,
      "duration": 0.1999,
      "velocity": 20,
      "chip": "ym2612"
    },
    {
      "channel": 2,
      "note": 72,
      "start": 16.1008,
      "duration": 0.1999,
      "velocity": 20,
      "chip": "ym2612"
    },
    {
      "channel": 3,
      "note": 72,
      "start": 16.1676,
      "duration": 0.2,
      "velocity": 20,
      "chip": "ym2612"
    },
    {
      "channel": 2,
      "note": 79,
      "start": 16.301,
      "duration": 0.2,
      "velocity": 20,
      "chip": "ym2612"
    },
    {
      "channel": 3,
      "note": 79,
      "start": 16.3679,
      "duration": 0.2,
      "velocity": 20,
      "chip": "ym2612"
    },
    {
      "channel": 2,
      "note": 81,
      "start": 16.5012,
      "duration": 0.2002,
      "velocity": 20,
      "chip": "ym2612"
    },
    {
      "channel": 3,
      "note": 81,
      "start": 16.5681,
      "duration": 0.2,
      "velocity": 20,
      "chip": "ym2612"
    },
    {
      "channel": 1,
      "note": 88,
      "start": 16.7013,
      "duration": 0.2,
      "velocity": 94,
      "chip": "ym2612"
    },
    {
      "channel": 2,
      "note": 84,
      "start": 16.7016,
      "duration": 0.2,
      "velocity": 20,
      "chip": "ym2612"
    },
    {
      "channel": 3,
      "note": 84,
      "start": 16.7684,
      "duration": 0.2,
      "velocity": 20,
      "chip": "ym2612"
    },
    {
      "channel": 1,
      "note": 86,
      "start": 16.9016,
      "duration": 0.6211,
      "velocity": 94,
      "chip": "ym2612"
    },
    {
      "channel": 2,
      "note": 82,
      "start": 16.9019,
      "duration": 0.1998,
      "velocity": 20,
      "chip": "ym2612"
    },
    {
      "channel": 3,
      "note": 82,
      "start": 16.9686,
      "duration": 0.1334,
      "velocity": 20,
      "chip": "ym2612"
    },
    {
      "channel": 4,
      "note": 88,
      "start": 16.969,
      "duration": 0.1333,
      "velocity": 94,
      "chip": "ym2612"
    },
    {
      "channel": 2,
      "note": 79,
      "start": 17.1019,
      "duration": 0.052,
      "velocity": 20,
      "chip": "ym2612"
    },
    {
      "channel": 3,
      "note": 79,
      "start": 17.1022,
      "duration": 0.0524,
      "velocity": 20,
      "chip": "ym2612"
    },
    {
      "channel": 4,
      "note": 86,
      "start": 17.1024,
      "duration": 0.4741,
      "velocity": 94,
      "chip": "ym2612"
    },
    {
      "channel": 2,
      "note": 77,
      "start": 17.1541,
      "duration": 0.0023,
      "velocity": 20,
      "chip": "ym2612"
    },
    {
      "channel": 3,
      "note": 77,
      "start": 17.1548,
      "duration": 0.0025,
      "velocity": 20,
      "chip": "ym2612"
    },
    {
      "channel": 2,
      "note": 81,
      "start": 17.1566,
      "duration": 0.0024,
      "velocity": 20,
      "chip": "ym2612"
    },
    {
      "channel": 3,
      "note": 81,
      "start": 17.1575,
      "duration": 0.0025,
      "velocity": 20,
      "chip": "ym2612"
    },
    {
      "channel": 1,
      "note": 88,
      "start": 17.5229,
      "duration": 0.0532,
      "velocity": 94,
      "chip": "ym2612"
    },
    {
      "channel": 0,
      "note": 55,
      "start": 17.576,
      "duration": 0.2527,
      "velocity": 81,
      "chip": "ym2612"
    },
    {
      "channel": 1,
      "note": 93,
      "start": 17.5763,
      "duration": 0.4531,
      "velocity": 94,
      "chip": "ym2612"
    },
    {
      "channel": 4,
      "note": 88,
      "start": 17.5766,
      "duration": 0.1191,
      "velocity": 94,
      "chip": "ym2612"
    },
    {
      "channel": 4,
      "note": 93,
      "start": 17.696,
      "duration": 0.6004,
      "velocity": 94,
      "chip": "ym2612"
    },
    {
      "channel": 0,
      "note": 55,
      "start": 17.829,
      "duration": 0.2,
      "velocity": 81,
      "chip": "ym2612"
    },
    {
      "channel": 0,
      "note": 55,
      "start": 18.0293,
      "duration": 0.2,
      "velocity": 81,
      "chip": "ym2612"
    },
    {
      "channel": 1,
      "note": 91,
      "start": 18.0296,
      "duration": 0.4018,
      "velocity": 94,
      "chip": "ym2612"
    },
    {
      "channel": 4,
      "note": 91,
      "start": 18.2966,
      "duration": 0.1365,
      "velocity": 94,
      "chip": "ym2612"
    },
    {
      "channel": 0,
      "note": 55,
      "start": 18.4298,
      "duration": 0.0015,
      "velocity": 81,
      "chip": "ym2612"
    },
    {
      "channel": 1,
      "note": 89,
      "start": 18.4315,
      "duration": 0.0052,
      "velocity": 94,
      "chip": "ym2612"
    },
    {
      "channel": 0,
      "note": 53,
      "start": 18.4324,
      "duration": 0.0015,
      "velocity": 81,
      "chip": "ym2612"
    },
    {
      "channel": 4,
      "note": 89,
      "start": 18.4334,
      "duration": 0.0983,
      "velocity": 94,
      "chip": "ym2612"
    },
    {
      "channel": 0,
      "note": 50,
      "start": 18.4341,
      "duration": 0.0023,
      "velocity": 81,
      "chip": "ym2612"
    },
    {
      "channel": 2,
      "note": 79,
      "start": 18.4342,
      "duration": 0.0027,
      "velocity": 20,
      "chip": "ym2612"
    },
    {
      "channel": 3,
      "note": 79,
      "start": 18.4348,
      "duration": 0.0027,
      "velocity": 20,
      "chip": "ym2612"
    },
    {
      "channel": 0,
      "note": 50,
      "start": 18.4366,
      "duration": 0.0276,
      "velocity": 81,
      "chip": "ym2612"
    },
    {
      "channel": 1,
      "note": 93,
      "start": 18.4369,
      "duration": 0.001,
      "velocity": 94,
      "chip": "ym2612"
    },
    {
      "channel": 2,
      "note": 79,
      "start": 18.437,
      "duration": 0.0278,
      "velocity": 20,
      "chip": "ym2612"
    },
    {
      "channel": 3,
      "note": 79,
      "start": 18.4376,
      "duration": 0.0938,
      "velocity": 20,
      "chip": "ym2612"
    },
    {
      "channel": 1,
      "note": 94,
      "start": 18.4382,
      "duration": 0.0263,
      "velocity": 94,
      "chip": "ym2612"
    },
    {
      "channel": 0,
      "note": 53,
      "start": 18.4644,
      "duration": 0.2,
      "velocity": 81,
      "chip": "ym2612"
    },
    {
      "channel": 1,
      "note": 98,
      "start": 18.4648,
      "duration": 2.8988,
      "velocity": 94,
      "chip": "ym2612"
    },
    {
      "channel": 2,
      "note": 74,
      "start": 18.4651,
      "duration": 0.1998,
      "velocity": 20,
      "chip": "ym2612"
    },
    {
      "channel": 3,
      "note": 74,
      "start": 18.5317,
      "duration": 0.2,
      "velocity": 20,
      "chip": "ym2612"
    },
    {
      "channel": 4,
      "note": 93,
      "start": 18.532,
      "duration": 0.0998,
      "velocity": 94,
      "chip": "ym2612"
    },
    {
      "channel": 4,
      "note": 94,
      "start": 18.632,
      "duration": 0.1,
      "velocity": 94,
      "chip": "ym2612"
    },
    {
      "channel": 0,
      "note": 53,
      "start": 18.6647,
      "duration": 0.2,
      "velocity": 81,
      "chip": "ym2612"
    },
    {
      "channel": 2,
      "note": 74,
      "start": 18.6652,
      "duration": 0.2,
      "velocity": 20,
      "chip": "ym2612"
    },
    {
      "channel": 3,
      "note": 74,
      "start": 18.7319,
      "duration": 0.2,
      "velocity": 20,
      "chip": "ym2612"
    },
    {
      "channel": 4,
      "note": 98,
      "start": 18.7323,
      "duration": 2.7516,
      "velocity": 94,
      "chip": "ym2612"
    },
    {
      "channel": 0,
      "note": 57,
      "start": 18.865,
      "duration": 0.2,
      "velocity": 81,
      "chip": "ym2612"
    },
    {
      "channel": 2,
      "note": 77,
      "start": 18.8654,
      "duration": 0.2,
      "velocity": 20,
      "chip": "ym2612"
    },
    {
      "channel": 3,
      "note": 77,
      "start": 18.9322,
      "duration": 0.2,
      "velocity": 20,
      "chip": "ym2612"
    },
    {
      "channel": 0,
      "note": 57,
      "start": 19.0652,
      "duration": 0.2,
      "velocity": 81,
      "chip": "ym2612"
    },
    {
      "channel": 2,
      "note": 77,
      "start": 19.0657,
      "duration": 0.2,
      "velocity": 20,
      "chip": "ym2612"
    },
    {
      "channel": 3,
      "note": 77,
      "start": 19.1324,
      "duration": 0.2,
      "velocity": 20,
      "chip": "ym2612"
    },
    {
      "channel": 0,
      "note": 55,
      "start": 19.2655,
      "duration": 0.2001,
      "velocity": 81,
      "chip": "ym2612"
    },
    {
      "channel": 2,
      "note": 72,
      "start": 19.266,
      "duration": 0.1999,
      "velocity": 20,
      "chip": "ym2612"
    },
    {
      "channel": 3,
      "note": 72,
      "start": 19.3327,
      "duration": 0.1337,
      "velocity": 20,
      "chip": "ym2612"
    },
    {
      "channel": 0,
      "note": 55,
      "start": 19.4658,
      "duration": 0.0516,
      "velocity": 81,
      "chip": "ym2612"
    },
    {
      "channel": 2,
      "note": 74,
      "start": 19.466,
      "duration": 0.0519,
      "velocity": 20,
      "chip": "ym2612"
    },
    {
      "channel": 3,
      "note": 74,
      "start": 19.4666,
      "duration": 0.118,
      "velocity": 20,
      "chip": "ym2612"
    },
    {
      "channel": 0,
      "note": 58,
      "start": 19.5176,
      "duration": 0.2,
      "velocity": 81,
      "chip": "ym2612"
    },
    {
      "channel": 2,
      "note": 79,
      "start": 19.5182,
      "duration": 0.1997,
      "velocity": 20,
      "chip": "ym2612"
    },
    {
      "channel": 3,
      "note": 79,
      "start": 19.5849,
      "duration": 0.1337,
      "velocity": 20,
      "chip": "ym2612"
    },
    {
      "channel": 0,
      "note": 58,
      "start": 19.7179,
      "duration": 0.0514,
      "velocity": 81,
      "chip": "ym2612"
    },
    {
      "channel": 2,
      "note": 79,
      "start": 19.718,
      "duration": 0.0517,
      "velocity": 20,
      "chip": "ym2612"
    },
    {
      "channel": 3,
      "note": 79,
      "start": 19.7185,
      "duration": 0.1179,
      "velocity": 20,
      "chip": "ym2612"
    },
    {
      "channel": 0,
      "note": 60,
      "start": 19.7695,
      "duration": 0.2,
      "velocity": 81,
      "chip": "ym2612"
    },
    {
      "channel": 2,
      "note": 81,
      "start": 19.77,
      "duration": 0.1998,
      "velocity": 20,
      "chip": "ym2612"
    },
    {
      "channel": 3,
      "note": 81,
      "start": 19.8368,
      "duration": 0.1338,
      "velocity": 20,
      "chip": "ym2612"
    },
    {
      "channel": 0,
      "note": 60,
      "start": 19.9698,
      "duration": 0.0516,
      "velocity": 81,
      "chip": "ym2612"
    },
    {
      "channel": 2,
      "note": 79,
      "start": 19.97,
      "duration": 0.0518,
      "velocity": 20,
      "chip": "ym2612"
    },
    {
      "channel": 3,
      "note": 79,
      "start": 19.9707,
      "duration": 0.1178,
      "velocity": 20,
      "chip": "ym2612"
    },
    {
      "channel": 2,
      "note": 82,
      "start": 20.022,
      "duration": 0.1998,
      "velocity": 20,
      "chip": "ym2612"
    },
    {
      "channel": 3,
      "note": 82,
      "start": 20.0888,
      "duration": 0.1338,
      "velocity": 20,
      "chip": "ym2612"
    },
    {
      "channel": 2,
      "note": 81,
      "start": 20.222,
      "duration": 0.0523,
      "velocity": 20,
      "chip": "ym2612"
    },
    {
      "channel": 3,
      "note": 81,
      "start": 20.2227,
      "duration": 0.0524,
      "velocity": 20,
      "chip": "ym2612"
    },
    {
      "channel": 2,
      "note": 79,
      "start": 20.2745,
      "duration": 0.002,
      "velocity": 20,
      "chip": "ym2612"
    },
    {
      "channel": 3,
      "note": 79,
      "start": 20.2752,
      "duration": 0.0023,
      "velocity": 20,
      "chip": "ym2612"
    },
    {
      "channel": 2,
      "note": 77,
      "start": 20.2767,
      "duration": 0.0025,
      "velocity": 20,
      "chip": "ym2612"
    },
    {
      "channel": 3,
      "note": 77,
      "start": 20.2778,
      "duration": 0.0027,
      "velocity": 20,
      "chip": "ym2612"
    },
    {
      "channel": 2,
      "note": 76,
      "start": 20.2795,
      "duration": 0.0024,
      "velocity": 20,
      "chip": "ym2612"
    },
    {
      "channel": 3,
      "note": 76,
      "start": 20.2806,
      "duration": 0.0279,
      "velocity": 20,
      "chip": "ym2612"
    },
    {
      "channel": 2,
      "note": 77,
      "start": 20.2821,
      "duration": 0.1597,
      "velocity": 20,
      "chip": "ym2612"
    },
    {
      "channel": 3,
      "note": 77,
      "start": 20.3087,
      "duration": 0.2,
      "velocity": 20,
      "chip": "ym2612"
    },
    {
      "channel": 2,
      "note": 74,
      "start": 20.4421,
      "duration": 0.4004,
      "velocity": 20,
      "chip": "ym2612"
    },
    {
      "channel": 3,
      "note": 74,
      "start": 20.509,
      "duration": 0.4002,
      "velocity": 20,
      "chip": "ym2612"
    },
    {
      "channel": 0,
      "note": 55,
      "start": 21.3635,
      "duration": 0.2531,
      "velocity": 81,
      "chip": "ym2612"
    },
    {
      "channel": 1,
      "note": 96,
      "start": 21.3637,
      "duration": 0.0004,
      "velocity": 94,
      "chip": "ym2612"
    },
    {
      "channel": 1,
      "note": 98,
      "start": 21.3642,
      "duration": 0.0523,
      "velocity": 94,
      "chip": "ym2612"
    },
    {
      "channel": 1,
      "note": 93,
      "start": 21.4168,
      "duration": 0.0999,
      "velocity": 94,
      "chip": "ym2612"
    },
    {
      "channel": 2,
      "note": 84,
      "start": 21.4171,
      "duration": 0.2,
      "velocity": 20,
      "chip": "ym2612"
    },
    {
      "channel": 3,
      "note": 84,
      "start": 21.4838,
      "duration": 0.2,
      "velocity": 20,
      "chip": "ym2612"
    },
    {
      "channel": 4,
      "note": 96,
      "start": 21.4841,
      "duration": 0.0997,
      "velocity": 94,
      "chip": "ym2612"
    },
    {
      "channel": 1,
      "note": 94,
      "start": 21.5169,
      "duration": 1.755,
      "velocity": 94,
      "chip": "ym2612"
    },
    {
      "channel": 4,
      "note": 98,
      "start": 21.5841,
      "duration": 0.1,
      "velocity": 94,
      "chip": "ym2612"
    },
    {
      "channel": 0,
      "note": 55,
      "start": 21.6168,
      "duration": 0.2,
      "velocity": 81,
      "chip": "ym2612"
    },
    {
      "channel": 2,
      "note": 82,
      "start": 21.6173,
      "duration": 0.2,
      "velocity": 20,
      "chip": "ym2612"
    },
    {
      "channel": 3,
      "note": 82,
      "start": 21.6841,
      "duration": 0.2,
      "velocity": 20,
      "chip": "ym2612"
    },
    {
      "channel": 4,
      "note": 93,
      "start": 21.6844,
      "duration": 0.0998,
      "velocity": 94,
      "chip": "ym2612"
    },
    {
      "channel": 4,
      "note": 94,
      "start": 21.7844,
      "duration": 1.755,
      "velocity": 94,
      "chip": "ym2612"
    },
    {
      "channel": 0,
      "note": 55,
      "start": 21.8171,
      "duration": 0.2,
      "velocity": 81,
      "chip": "ym2612"
    },
    {
      "channel": 2,
      "note": 81,
      "start": 21.8176,
      "duration": 0.1999,
      "velocity": 20,
      "chip": "ym2612"
    },
    {
      "channel": 3,
      "note": 81,
      "start": 21.8843,
      "duration": 0.1999,
      "velocity": 20,
      "chip": "ym2612"
    },
    {
      "channel": 2,
      "note": 79,
      "start": 22.0177,
      "duration": 0.2001,
      "velocity": 20,
      "chip": "ym2612"
    },
    {
      "channel": 3,
      "note": 79,
      "start": 22.0845,
      "duration": 0.2001,
      "velocity": 20,
      "chip": "ym2612"
    },
    {
      "channel": 0,
      "note": 55,
      "start": 22.2176,
      "duration": 0.2,
      "velocity": 81,
      "chip": "ym2612"
    },
    {
      "channel": 2,
      "note": 84,
      "start": 22.2181,
      "duration": 0.4002,
      "velocity": 20,
      "chip": "ym2612"
    },
    {
      "channel": 3,
      "note": 84,
      "start": 22.2849,
      "duration": 0.4001,
      "velocity": 20,
      "chip": "ym2612"
    },
    {
      "channel": 0,
      "note": 53,
      "start": 22.6181,
      "duration": 0.2001,
      "velocity": 81,
      "chip": "ym2612"
    },
    {
      "channel": 0,
      "note": 50,
      "start": 22.8184,
      "duration": 0.0527,
      "velocity": 81,
      "chip": "ym2612"
    },
    {
      "channel": 0,
      "note": 50,
      "start": 22.8713,
      "duration": 0.2,
      "velocity": 81,
      "chip": "ym2612"
    },
    {
      "channel": 2,
      "note": 84,
      "start": 22.8718,
      "duration": 0.2,
      "velocity": 20,
      "chip": "ym2612"
    },
    {
      "channel": 3,
      "note": 84,
      "start": 22.9386,
      "duration": 0.2,
      "velocity": 20,
      "chip": "ym2612"
    },
    {
      "channel": 0,
      "note": 53,
      "start": 23.0716,
      "duration": 0.2,
      "velocity": 81,
      "chip": "ym2612"
    },
    {
      "channel": 2,
      "note": 82,
      "start": 23.0721,
      "duration": 0.2002,
      "velocity": 20,
      "chip": "ym2612"
    },
    {
      "channel": 3,
      "note": 82,
      "start": 23.1388,
      "duration": 0.2,
      "velocity": 20,
      "chip": "ym2612"
    },
    {
      "channel": 0,
      "note": 53,
      "start": 23.2719,
      "duration": 0.2,
      "velocity": 81,
      "chip": "ym2612"
    },
    {
      "channel": 1,
      "note": 96,
      "start": 23.2722,
      "duration": 0.0997,
      "velocity": 94,
      "chip": "ym2612"
    },
    {
      "channel": 2,
      "note": 81,
      "start": 23.2725,
      "duration": 0.2,
      "velocity": 20,
      "chip": "ym2612"
    },
    {
      "channel": 3,
      "note": 81,
      "start": 23.3391,
      "duration": 0.2,
      "velocity": 20,
      "chip": "ym2612"
    },
    {
      "channel": 1,
      "note": 95,
      "start": 23.3722,
      "duration": 0.1,
      "velocity": 94,
      "chip": "ym2612"
    },
    {
      "channel": 0,
      "note": 57,
      "start": 23.4721,
      "duration": 0.2001,
      "velocity": 81,
      "chip": "ym2612"
    },
    {
      "channel": 1,
      "note": 94,
      "start": 23.4724,
      "duration": 0.3034,
      "velocity": 94,
      "chip": "ym2612"
    },
    {
      "channel": 2,
      "note": 79,
      "start": 23.4728,
      "duration": 0.1997,
      "velocity": 20,
      "chip": "ym2612"
    },
    {
      "channel": 3,
      "note": 79,
      "start": 23.5393,
      "duration": 0.1335,
      "velocity": 20,
      "chip": "ym2612"
    },
    {
      "channel": 4,
      "note": 96,
      "start": 23.5397,
      "duration": 0.0997,
      "velocity": 94,
      "chip": "ym2612"
    },
    {
      "channel": 4,
      "note": 95,
      "start": 23.6397,
      "duration": 0.0334,
      "velocity": 94,
      "chip": "ym2612"
    },
    {
      "channel": 0,
      "note": 57,
      "start": 23.6724,
      "duration": 0.0513,
      "velocity": 81,
      "chip": "ym2612"
    },
    {
      "channel": 2,
      "note": 84,
      "start": 23.6726,
      "duration": 0.1551,
      "velocity": 20,
      "chip": "ym2612"
    },
    {
      "channel": 3,
      "note": 84,
      "start": 23.673,
      "duration": 0.1555,
      "velocity": 20,
      "chip": "ym2612"
    },
    {
      "channel": 4,
      "note": 94,
      "start": 23.6733,
      "duration": 0.1552,
      "velocity": 94,
      "chip": "ym2612"
    },
    {
      "channel": 0,
      "note": 55,
      "start": 23.724,
      "duration": 0.0517,
      "velocity": 81,
      "chip": "ym2612"
    },
    {
      "channel": 0,
      "note": 55,
      "start": 23.7758,
      "duration": 0.0516,
      "velocity": 81,
      "chip": "ym2612"
    },
    {
      "channel": 1,
      "note": 89,
      "start": 23.776,
      "duration": 0.2753,
      "velocity": 94,
      "chip": "ym2612"
    },
    {
      "channel": 0,
      "note": 58,
      "start": 23.8276,
      "duration": 0.0014,
      "velocity": 81,
      "chip": "ym2612"
    },
    {
      "channel": 4,
      "note": 89,
      "start": 23.8287,
      "duration": 0.3102,
      "velocity": 94,
      "chip": "ym2612"
    },
    {
      "channel": 0,
      "note": 58,
      "start": 23.8292,
      "duration": 0.0192,
      "velocity": 81,
      "chip": "ym2612"
    },
    {
      "channel": 0,
      "note": 60,
      "start": 23.8486,
      "duration": 0.2001,
      "velocity": 81,
      "chip": "ym2612"
    },
    {
      "channel": 0,
      "note": 60,
      "start": 24.0489,
      "duration": 0.0023,
      "velocity": 81,
      "chip": "ym2612"
    },
    {
      "channel": 2,
      "note": 69,
      "start": 24.0514,
      "duration": 0.0202,
      "velocity": 20,
      "chip": "ym2612"
    },
    {
      "channel": 3,
      "note": 69,
      "start": 24.0519,
      "duration": 0.0867,
      "velocity": 20,
      "chip": "ym2612"
    },
    {
      "channel": 2,
      "note": 70,
      "start": 24.0719,
      "duration": 0.2001,
      "velocity": 20,
      "chip": "ym2612"
    },
    {
      "channel": 3,
      "note": 70,
      "start": 24.1388,
      "duration": 0.1349,
      "velocity": 20,
      "chip": "ym2612"
    },
    {
      "channel": 2,
      "note": 74,
      "start": 24.2722,
      "duration": 0.0021,
      "velocity": 20,
      "chip": "ym2612"
    },
    {
      "channel": 3,
      "note": 74,
      "start": 24.2739,
      "duration": 0.0007,
      "velocity": 20,
      "chip": "ym2612"
    },
    {
      "channel": 2,
      "note": 76,
      "start": 24.2745,
      "duration": 0.2208,
      "velocity": 20,
      "chip": "ym2612"
    },
    {
      "channel": 3,
      "note": 76,
      "start": 24.2749,
      "duration": 0.2873,
      "velocity": 20,
      "chip": "ym2612"
    },
    {
      "channel": 2,
      "note": 76,
      "start": 24.4955,
      "duration": 0.4002,
      "velocity": 20,
      "chip": "ym2612"
    },
    {
      "channel": 3,
      "note": 76,
      "start": 24.5624,
      "duration": 0.4003,
      "velocity": 20,
      "chip": "ym2612"
    },
    {
      "channel": 2,
      "note": 74,
      "start": 24.8961,
      "duration": 0.2002,
      "velocity": 20,
      "chip": "ym2612"
    },
    {
      "channel": 3,
      "note": 74,
      "start": 24.963,
      "duration": 0.2,
      "velocity": 20,
      "chip": "ym2612"
    },
    {
      "channel": 2,
      "note": 76,
      "start": 25.0966,
      "duration": 0.2,
      "velocity": 20,
      "chip": "ym2612"
    },
    {
      "channel": 3,
      "note": 76,
      "start": 25.1632,
      "duration": 0.2001,
      "velocity": 20,
      "chip": "ym2612"
    },
    {
      "channel": 1,
      "note": 86,
      "start": 25.2965,
      "duration": 0.2,
      "velocity": 94,
      "chip": "ym2612"
    },
    {
      "channel": 2,
      "note": 79,
      "start": 25.2968,
      "duration": 0.269,
      "velocity": 20,
      "chip": "ym2612"
    },
    {
      "channel": 3,
      "note": 79,
      "start": 25.3636,
      "duration": 0.2026,
      "velocity": 20,
      "chip": "ym2612"
    },
    {
      "channel": 1,
      "note": 89,
      "start": 25.4968,
      "duration": 0.0688,
      "velocity": 94,
      "chip": "ym2612"
    },
    {
      "channel": 4,
      "note": 86,
      "start": 25.5638,
      "duration": 0.0025,
      "velocity": 94,
      "chip": "ym2612"
    },
    {
      "channel": 1,
      "note": 93,
      "start": 25.5658,
      "duration": 0.0012,
      "velocity": 94,
      "chip": "ym2612"
    },
    {
      "channel": 2,
      "note": 74,
      "start": 25.566,
      "duration": 0.0012,
      "velocity": 20,
      "chip": "ym2612"
    },
    {
      "channel": 3,
      "note": 74,
      "start": 25.5663,
      "duration": 0.0013,
      "velocity": 20,
      "chip": "ym2612"
    },
    {
      "channel": 4,
      "note": 89,
      "start": 25.5664,
      "duration": 0.0012,
      "velocity": 94,
      "chip": "ym2612"
    },
    {
      "channel": 0,
      "note": 55,
      "start": 25.5669,
      "duration": 0.2525,
      "velocity": 81,
      "chip": "ym2612"
    },
    {
      "channel": 1,
      "note": 98,
      "start": 25.5672,
      "duration": 0.0522,
      "velocity": 94,
      "chip": "ym2612"
    },
    {
      "channel": 4,
      "note": 93,
      "start": 25.5678,
      "duration": 0.1187,
      "velocity": 94,
      "chip": "ym2612"
    },
    {
      "channel": 1,
      "note": 100,
      "start": 25.6197,
      "duration": 0.2001,
      "velocity": 94,
      "chip": "ym2612"
    },
    {
      "channel": 4,
      "note": 98,
      "start": 25.6867,
      "duration": 0.2,
      "velocity": 94,
      "chip": "ym2612"
    },
    {
      "channel": 0,
      "note": 55,
      "start": 25.8197,
      "duration": 0.2001,
      "velocity": 81,
      "chip": "ym2612"
    },
    {
      "channel": 1,
      "note": 98,
      "start": 25.82,
      "duration": 0.2,
      "velocity": 94,
      "chip": "ym2612"
    },
    {
      "channel": 4,
      "note": 100,
      "start": 25.887,
      "duration": 0.1334,
      "velocity": 94,
      "chip": "ym2612"
    },
    {
      "channel": 0,
      "note": 55,
      "start": 26.02,
      "duration": 0.0525,
      "velocity": 81,
      "chip": "ym2612"
    },
    {
      "channel": 1,
      "note": 94,
      "start": 26.0202,
      "duration": 0.0524,
      "velocity": 94,
      "chip": "ym2612"
    },
    {
      "channel": 4,
      "note": 98,
      "start": 26.0206,
      "duration": 0.0536,
      "velocity": 94,
      "chip": "ym2612"
    },
    {
      "channel": 1,
      "note": 93,
      "start": 26.0728,
      "duration": 0.0016,
      "velocity": 94,
      "chip": "ym2612"
    },
    {
      "channel": 4,
      "note": 94,
      "start": 26.0743,
      "duration": 0.0014,
      "velocity": 94,
      "chip": "ym2612"
    },
    {
      "channel": 1,
      "note": 92,
      "start": 26.0746,
      "duration": 0.0005,
      "velocity": 94,
      "chip": "ym2612"
    },
    {
      "channel": 0,
      "note": 55,
      "start": 26.0751,
      "duration": 0.002,
      "velocity": 81,
      "chip": "ym2612"
    },
    {
      "channel": 1,
      "note": 91,
      "start": 26.0752,
      "duration": 0.0007,
      "velocity": 94,
      "chip": "ym2612"
    },
    {
      "channel": 4,
      "note": 93,
      "start": 26.0757,
      "duration": 0.001,
      "velocity": 94,
      "chip": "ym2612"
    },
    {
      "channel": 1,
      "note": 90,
      "start": 26.0761,
      "duration": 0.0011,
      "velocity": 94,
      "chip": "ym2612"
    },
    {
      "channel": 4,
      "note": 92,
      "start": 26.0769,
      "duration": 0.0006,
      "velocity": 94,
      "chip": "ym2612"
    },
    {
      "channel": 1,
      "note": 89,
      "start": 26.0774,
      "duration": 0.0528,
      "velocity": 94,
      "chip": "ym2612"
    },
    {
      "channel": 4,
      "note": 91,
      "start": 26.0777,
      "duration": 0.0192,
      "velocity": 94,
      "chip": "ym2612"
    },
    {
      "channel": 4,
      "note": 90,
      "start": 26.0971,
      "duration": 0.0334,
      "velocity": 94,
      "chip": "ym2612"
    },
    {
      "channel": 0,
      "note": 53,
      "start": 26.1302,
      "duration": 0.0525,
      "velocity": 81,
      "chip": "ym2612"
    },
    {
      "channel": 1,
      "note": 86,
      "start": 26.1304,
      "duration": 0.5427,
      "velocity": 94,
      "chip": "ym2612"
    },
    {
      "channel": 4,
      "note": 89,
      "start": 26.1307,
      "duration": 0.1193,
      "velocity": 94,
      "chip": "ym2612"
    },
    {
      "channel": 0,
      "note": 50,
      "start": 26.1829,
      "duration": 0.2,
      "velocity": 81,
      "chip": "ym2612"
    },
    {
      "channel": 4,
      "note": 86,
      "start": 26.2502,
      "duration": 0.4268,
      "velocity": 94,
      "chip": "ym2612"
    },
    {
      "channel": 0,
      "note": 50,
      "start": 26.3832,
      "duration": 0.2001,
      "velocity": 81,
      "chip": "ym2612"
    },
    {
      "channel": 0,
      "note": 53,
      "start": 26.5834,
      "duration": 0.0025,
      "velocity": 81,
      "chip": "ym2612"
    },
    {
      "channel": 0,
      "note": 53,
      "start": 26.5862,
      "duration": 0.0024,
      "velocity": 81,
      "chip": "ym2612"
    },
    {
      "channel": 2,
      "note": 70,
      "start": 26.5866,
      "duration": 0.0023,
      "velocity": 20,
      "chip": "ym2612"
    },
    {
      "channel": 3,
      "note": 70,
      "start": 26.5871,
      "duration": 0.0028,
      "velocity": 20,
      "chip": "ym2612"
    },
    {
      "channel": 0,
      "note": 57,
      "start": 26.5887,
      "duration": 0.084,
      "velocity": 81,
      "chip": "ym2612"
    },
    {
      "channel": 2,
      "note": 74,
      "start": 26.589,
      "duration": 0.084,
      "velocity": 20,
      "chip": "ym2612"
    },
    {
      "channel": 3,
      "note": 74,
      "start": 26.5901,
      "duration": 0.0838,
      "velocity": 20,
      "chip": "ym2612"
    },
    {
      "channel": 0,
      "note": 57,
      "start": 26.6729,
      "duration": 0.0025,
      "velocity": 81,
      "chip": "ym2612"
    },
    {
      "channel": 2,
      "note": 76,
      "start": 26.6732,
      "duration": 0.0026,
      "velocity": 20,
      "chip": "ym2612"
    },
    {
      "channel": 3,
      "note": 76,
      "start": 26.674,
      "duration": 0.0027,
      "velocity": 20,
      "chip": "ym2612"
    },
    {
      "channel": 0,
      "note": 55,
      "start": 26.6757,
      "duration": 0.0023,
      "velocity": 81,
      "chip": "ym2612"
    },
    {
      "channel": 2,
      "note": 77,
      "start": 26.6761,
      "duration": 0.0024,
      "velocity": 20,
      "chip": "ym2612"
    },
    {
      "channel": 3,
      "note": 77,
      "start": 26.6769,
      "duration": 0.0023,
      "velocity": 20,
      "chip": "ym2612"
    },
    {
      "channel": 0,
      "note": 55,
      "start": 26.6783,
      "duration": 0.0058,
      "velocity": 81,
      "chip": "ym2612"
    },
    {
      "channel": 1,
      "note": 81,
      "start": 26.6785,
      "duration": 0.0059,
      "velocity": 94,
      "chip": "ym2612"
    },
    {
      "channel": 2,
      "note": 69,
      "start": 26.6787,
      "duration": 0.0057,
      "velocity": 20,
      "chip": "ym2612"
    },
    {
      "channel": 3,
      "note": 69,
      "start": 26.6795,
      "duration": 0.0059,
      "velocity": 20,
      "chip": "ym2612"
    },
    {
      "channel": 0,
      "note": 58,
      "start": 26.6843,
      "duration": 0.0041,
      "velocity": 81,
      "chip": "ym2612"
    },
    {
      "channel": 2,
      "note": 74,
      "start": 26.6846,
      "duration": 0.0044,
      "velocity": 20,
      "chip": "ym2612"
    },
    {
      "channel": 3,
      "note": 74,
      "start": 26.6855,
      "duration": 0.0046,
      "velocity": 20,
      "chip": "ym2612"
    },
    {
      "channel": 4,
      "note": 81,
      "start": 26.6857,
      "duration": 0.0046,
      "velocity": 94,
      "chip": "ym2612"
    },
    {
      "channel": 0,
      "note": 58,
      "start": 26.6886,
      "duration": 0.0033,
      "velocity": 81,
      "chip": "ym2612"
    },
    {
      "channel": 1,
      "note": 81,
      "start": 26.6889,
      "duration": 0.0033,
      "velocity": 94,
      "chip": "ym2612"
    },
    {
      "channel": 2,
      "note": 77,
      "start": 26.6893,
      "duration": 0.0031,
      "velocity": 20,
      "chip": "ym2612"
    },
    {
      "channel": 3,
      "note": 77,
      "start": 26.6902,
      "duration": 0.0029,
      "velocity": 20,
      "chip": "ym2612"
    },
    {
      "channel": 0,
      "note": 60,
      "start": 26.6921,
      "duration": 0.0022,
      "velocity": 81,
      "chip": "ym2612"
    },
    {
      "channel": 4,
      "note": 81,
      "start": 26.6932,
      "duration": 0.0021,
      "velocity": 94,
      "chip": "ym2612"
    },
    {
      "channel": 0,
      "note": 60,
      "start": 26.6945,
      "duration": 0.0017,
      "velocity": 81,
      "chip": "ym2612"
    },
    {
      "channel": 1,
      "note": 82,
      "start": 26.6946,
      "duration": 0.0017,
      "velocity": 94,
      "chip": "ym2612"
    },
    {
      "channel": 4,
      "note": 82,
      "start": 26.6973,
      "duration": 0.1741,
      "velocity": 94,
      "chip": "ym2612"
    },
    {
      "channel": 2,
      "note": 79,
      "start": 27.0049,
      "duration": 0.2,
      "velocity": 20,
      "chip": "ym2612"
    },
    {
      "channel": 3,
      "note": 79,
      "start": 27.0719,
      "duration": 0.1334,
      "velocity": 20,
      "chip": "ym2612"
    },
    {
      "channel": 2,
      "note": 81,
      "start": 27.2051,
      "duration": 0.053,
      "velocity": 20,
      "chip": "ym2612"
    },
    {
      "channel": 3,
      "note": 81,
      "start": 27.2054,
      "duration": 0.053,
      "velocity": 20,
      "chip": "ym2612"
    },
    {
      "channel": 2,
      "note": 77,
      "start": 27.2583,
      "duration": 0.0529,
      "velocity": 20,
      "chip": "ym2612"
    },
    {
      "channel": 3,
      "note": 77,
      "start": 27.2585,
      "duration": 0.1195,
      "velocity": 20,
      "chip": "ym2612"
    },
    {
      "channel": 2,
      "note": 74,
      "start": 27.3114,
      "duration": 0.2002,
      "velocity": 20,
      "chip": "ym2612"
    },
    {
      "channel": 3,
      "note": 74,
      "start": 27.3783,
      "duration": 0.1337,
      "velocity": 20,
      "chip": "ym2612"
    },
    {
      "channel": 1,
      "note": 86,
      "start": 27.5116,
      "duration": 0.0257,
      "velocity": 94,
      "chip": "ym2612"
    },
    {
      "channel": 2,
      "note": 70,
      "start": 27.5118,
      "duration": 0.0029,
      "velocity": 20,
      "chip": "ym2612"
    },
    {
      "channel": 3,
      "note": 70,
      "start": 27.5123,
      "duration": 0.0046,
      "velocity": 20,
      "chip": "ym2612"
    },
    {
      "channel": 2,
      "note": 69,
      "start": 27.5149,
      "duration": 0.0028,
      "velocity": 20,
      "chip": "ym2612"
    },
    {
      "channel": 3,
      "note": 69,
      "start": 27.5171,
      "duration": 0.0011,
      "velocity": 20,
      "chip": "ym2612"
    },
    {
      "channel": 4,
      "note": 86,
      "start": 27.5173,
      "duration": 0.0252,
      "velocity": 94,
      "chip": "ym2612"
    },
    {
      "channel": 1,
      "note": 81,
      "start": 27.5374,
      "duration": 0.0027,
      "velocity": 94,
      "chip": "ym2612"
    },
    {
      "channel": 1,
      "note": 82,
      "start": 27.5404,
      "duration": 0.0027,
      "velocity": 94,
      "chip": "ym2612"
    },
    {
      "channel": 4,
      "note": 81,
      "start": 27.5427,
      "duration": 0.0009,
      "velocity": 94,
      "chip": "ym2612"
    },
    {
      "channel": 1,
      "note": 79,
      "start": 27.5433,
      "duration": 0.268,
      "velocity": 94,
      "chip": "ym2612"
    },
    {
      "channel": 4,
      "note": 82,
      "start": 27.5437,
      "duration": 0.0049,
      "velocity": 94,
      "chip": "ym2612"
    },
    {
      "channel": 0,
      "note": 55,
      "start": 27.5475,
      "duration": 0.0076,
      "velocity": 81,
      "chip": "ym2612"
    },
    {
      "channel": 2,
      "note": 74,
      "start": 27.5478,
      "duration": 0.0034,
      "velocity": 20,
      "chip": "ym2612"
    },
    {
      "channel": 3,
      "note": 74,
      "start": 27.5485,
      "duration": 0.0042,
      "velocity": 20,
      "chip": "ym2612"
    },
    {
      "channel": 4,
      "note": 79,
      "start": 27.5487,
      "duration": 0.3813,
      "velocity": 94,
      "chip": "ym2612"
    },
    {
      "channel": 2,
      "note": 76,
      "start": 27.5514,
      "duration": 0.004,
      "velocity": 20,
      "chip": "ym2612"
    },
    {
      "channel": 3,
      "note": 76,
      "start": 27.5529,
      "duration": 0.0038,
      "velocity": 20,
      "chip": "ym2612"
    },
    {
      "channel": 0,
      "note": 55,
      "start": 27.5553,
      "duration": 0.0036,
      "velocity": 81,
      "chip": "ym2612"
    },
    {
      "channel": 2,
      "note": 76,
      "start": 27.5554,
      "duration": 0.004,
      "velocity": 20,
      "chip": "ym2612"
    },
    {
      "channel": 3,
      "note": 76,
      "start": 27.5567,
      "duration": 0.0034,
      "velocity": 20,
      "chip": "ym2612"
    },
    {
      "channel": 0,
      "note": 55,
      "start": 27.5592,
      "duration": 0.0516,
      "velocity": 81,
      "chip": "ym2612"
    },
    {
      "channel": 2,
      "note": 74,
      "start": 27.5595,
      "duration": 0.0516,
      "velocity": 20,
      "chip": "ym2612"
    },
    {
      "channel": 3,
      "note": 74,
      "start": 27.5602,
      "duration": 0.1177,
      "velocity": 20,
      "chip": "ym2612"
    },
    {
      "channel": 2,
      "note": 76,
      "start": 27.6114,
      "duration": 0.2002,
      "velocity": 20,
      "chip": "ym2612"
    },
    {
      "channel": 3,
      "note": 76,
      "start": 27.6781,
      "duration": 0.1338,
      "velocity": 20,
      "chip": "ym2612"
    },
    {
      "channel": 0,
      "note": 55,
      "start": 27.8113,
      "duration": 0.0514,
      "velocity": 81,
      "chip": "ym2612"
    },
    {
      "channel": 1,
      "note": 81,
      "start": 27.8115,
      "duration": 0.0514,
      "velocity": 94,
      "chip": "ym2612"
    },
    {
      "channel": 2,
      "note": 76,
      "start": 27.8116,
      "duration": 0.3036,
      "velocity": 20,
      "chip": "ym2612"
    },
    {
      "channel": 3,
      "note": 76,
      "start": 27.812,
      "duration": 0.3696,
      "velocity": 20,
      "chip": "ym2612"
    },
    {
      "channel": 1,
      "note": 82,
      "start": 27.8631,
      "duration": 0.2001,
      "velocity": 94,
      "chip": "ym2612"
    },
    {
      "channel": 4,
      "note": 81,
      "start": 27.9302,
      "duration": 0.1337,
      "velocity": 94,
      "chip": "ym2612"
    },
    {
      "channel": 0,
      "note": 53,
      "start": 28.0632,
      "duration": 0.0514,
      "velocity": 81,
      "chip": "ym2612"
    },
    {
      "channel": 1,
      "note": 86,
      "start": 28.0634,
      "duration": 0.0515,
      "velocity": 94,
      "chip": "ym2612"
    },
    {
      "channel": 4,
      "note": 82,
      "start": 28.0641,
      "duration": 0.1178,
      "velocity": 94,
      "chip": "ym2612"
    },
    {
      "channel": 0,
      "note": 50,
      "start": 28.1148,
      "duration": 0.2,
      "velocity": 81,
      "chip": "ym2612"
    },
    {
      "channel": 1,
      "note": 88,
      "start": 28.1151,
      "duration": 0.2,
      "velocity": 94,
      "chip": "ym2612"
    },
    {
      "channel": 4,
      "note": 86,
      "start": 28.1821,
      "duration": 0.1999,
      "velocity": 94,
      "chip": "ym2612"
    },
    {
      "channel": 0,
      "note": 50,
      "start": 28.3151,
      "duration": 0.2,
      "velocity": 81,
      "chip": "ym2612"
    },
    {
      "channel": 1,
      "note": 91,
      "start": 28.3154,
      "duration": 0.2,
      "velocity": 94,
      "chip": "ym2612"
    },
    {
      "channel": 4,
      "note": 88,
      "start": 28.3823,
      "duration": 0.2,
      "velocity": 94,
      "chip": "ym2612"
    },
    {
      "channel": 0,
      "note": 53,
      "start": 28.5153,
      "duration": 0.2,
      "velocity": 81,
      "chip": "ym2612"
    },
    {
      "channel": 1,
      "note": 93,
      "start": 28.5156,
      "duration": 0.2,
      "velocity": 94,
      "chip": "ym2612"
    },
    {
      "channel": 4,
      "note": 91,
      "start": 28.5825,
      "duration": 0.2,
      "velocity": 94,
      "chip": "ym2612"
    },
    {
      "channel": 0,
      "note": 53,
      "start": 28.7156,
      "duration": 0.2,
      "velocity": 81,
      "chip": "ym2612"
    },
    {
      "channel": 1,
      "note": 88,
      "start": 28.7159,
      "duration": 0.2,
      "velocity": 94,
      "chip": "ym2612"
    },
    {
      "channel": 4,
      "note": 93,
      "start": 28.7828,
      "duration": 0.2,
      "velocity": 94,
      "chip": "ym2612"
    },
    {
      "channel": 0,
      "note": 57,
      "start": 28.9158,
      "duration": 0.2,
      "velocity": 81,
      "chip": "ym2612"
    },
    {
      "channel": 1,
      "note": 98,
      "start": 28.9162,
      "duration": 0.611,
      "velocity": 94,
      "chip": "ym2612"
    },
    {
      "channel": 4,
      "note": 88,
      "start": 28.983,
      "duration": 0.2,
      "velocity": 94,
      "chip": "ym2612"
    },
    {
      "channel": 0,
      "note": 57,
      "start": 29.1161,
      "duration": 0.2,
      "velocity": 81,
      "chip": "ym2612"
    },
    {
      "channel": 4,
      "note": 98,
      "start": 29.1833,
      "duration": 0.4943,
      "velocity": 94,
      "chip": "ym2612"
    },
    {
      "channel": 0,
      "note": 55,
      "start": 29.3163,
      "duration": 0.2001,
      "velocity": 81,
      "chip": "ym2612"
    },
    {
      "channel": 0,
      "note": 55,
      "start": 29.5166,
      "duration": 0.0026,
      "velocity": 81,
      "chip": "ym2612"
    },
    {
      "channel": 0,
      "note": 58,
      "start": 29.5193,
      "duration": 0.002,
      "velocity": 81,
      "chip": "ym2612"
    },
    {
      "channel": 0,
      "note": 58,
      "start": 29.5215,
      "duration": 0.0027,
      "velocity": 81,
      "chip": "ym2612"
    },
    {
      "channel": 2,
      "note": 69,
      "start": 29.5216,
      "duration": 0.0028,
      "velocity": 20,
      "chip": "ym2612"
    },
    {
      "channel": 3,
      "note": 69,
      "start": 29.5223,
      "duration": 0.0032,
      "velocity": 20,
      "chip": "ym2612"
    },
    {
      "channel": 0,
      "note": 60,
      "start": 29.5244,
      "duration": 0.0026,
      "velocity": 81,
      "chip": "ym2612"
    },
    {
      "channel": 2,
      "note": 69,
      "start": 29.5246,
      "duration": 0.0028,
      "velocity": 20,
      "chip": "ym2612"
    },
    {
      "channel": 3,
      "note": 69,
      "start": 29.5256,
      "duration": 0.0024,
      "velocity": 20,
      "chip": "ym2612"
    },
    {
      "channel": 0,
      "note": 60,
      "start": 29.5271,
      "duration": 0.0831,
      "velocity": 81,
      "chip": "ym2612"
    },
    {
      "channel": 1,
      "note": 97,
      "start": 29.5273,
      "duration": 0.0831,
      "velocity": 94,
      "chip": "ym2612"
    },
    {
      "channel": 2,
      "note": 77,
      "start": 29.5276,
      "duration": 0.0831,
      "velocity": 20,
      "chip": "ym2612"
    },
    {
      "channel": 3,
      "note": 77,
      "start": 29.5282,
      "duration": 0.1491,
      "velocity": 20,
      "chip": "ym2612"
    },
    {
      "channel": 1,
      "note": 96,
      "start": 29.6106,
      "duration": 0.1999,
      "velocity": 94,
      "chip": "ym2612"
    },
    {
      "channel": 2,
      "note": 69,
      "start": 29.611,
      "duration": 0.1998,
      "velocity": 20,
      "chip": "ym2612"
    },
    {
      "channel": 3,
      "note": 69,
      "start": 29.6776,
      "duration": 0.1336,
      "velocity": 20,
      "chip": "ym2612"
    },
    {
      "channel": 4,
      "note": 97,
      "start": 29.6779,
      "duration": 0.1334,
      "velocity": 94,
      "chip": "ym2612"
    },
    {
      "channel": 1,
      "note": 95,
      "start": 29.8107,
      "duration": 0.0018,
      "velocity": 94,
      "chip": "ym2612"
    },
    {
      "channel": 2,
      "note": 69,
      "start": 29.8109,
      "duration": 0.0018,
      "velocity": 20,
      "chip": "ym2612"
    },
    {
      "channel": 3,
      "note": 69,
      "start": 29.8112,
      "duration": 0.0022,
      "velocity": 20,
      "chip": "ym2612"
    },
    {
      "channel": 4,
      "note": 96,
      "start": 29.8116,
      "duration": 0.002,
      "velocity": 94,
      "chip": "ym2612"
    },
    {
      "channel": 1,
      "note": 94,
      "start": 29.8127,
      "duration": 0.005,
      "velocity": 94,
      "chip": "ym2612"
    },
    {
      "channel": 2,
      "note": 76,
      "start": 29.813,
      "duration": 0.005,
      "velocity": 20,
      "chip": "ym2612"
    },
    {
      "channel": 3,
      "note": 76,
      "start": 29.8135,
      "duration": 0.0712,
      "velocity": 20,
      "chip": "ym2612"
    },
    {
      "channel": 4,
      "note": 95,
      "start": 29.8138,
      "duration": 0.0712,
      "velocity": 94,
      "chip": "ym2612"
    },
    {
      "channel": 1,
      "note": 93,
      "start": 29.8179,
      "duration": 0.2001,
      "velocity": 94,
      "chip": "ym2612"
    },
    {
      "channel": 2,
      "note": 69,
      "start": 29.8183,
      "duration": 0.2,
      "velocity": 20,
      "chip": "ym2612"
    },
    {
      "channel": 3,
      "note": 69,
      "start": 29.885,
      "duration": 0.1339,
      "velocity": 20,
      "chip": "ym2612"
    },
    {
      "channel": 4,
      "note": 94,
      "start": 29.8853,
      "duration": 0.1337,
      "velocity": 94,
      "chip": "ym2612"
    },
    {
      "channel": 1,
      "note": 92,
      "start": 30.0182,
      "duration": 0.0026,
      "velocity": 94,
      "chip": "ym2612"
    },
    {
      "channel": 2,
      "note": 69,
      "start": 30.0185,
      "duration": 0.0025,
      "velocity": 20,
      "chip": "ym2612"
    },
    {
      "channel": 3,
      "note": 69,
      "start": 30.019,
      "duration": 0.0027,
      "velocity": 20,
      "chip": "ym2612"
    },
    {
      "channel": 4,
      "note": 93,
      "start": 30.0193,
      "duration": 0.0028,
      "velocity": 94,
      "chip": "ym2612"
    },
    {
      "channel": 1,
      "note": 91,
      "start": 30.0209,
      "duration": 0.0024,
      "velocity": 94,
      "chip": "ym2612"
    },
    {
      "channel": 2,
      "note": 74,
      "start": 30.0212,
      "duration": 0.0025,
      "velocity": 20,
      "chip": "ym2612"
    },
    {
      "channel": 3,
      "note": 74,
      "start": 30.022,
      "duration": 0.0027,
      "velocity": 20,
      "chip": "ym2612"
    },
    {
      "channel": 4,
      "note": 92,
      "start": 30.0222,
      "duration": 0.0027,
      "velocity": 94,
      "chip": "ym2612"
    },
    {
      "channel": 1,
      "note": 90,
      "start": 30.0236,
      "duration": 0.0035,
      "velocity": 94,
      "chip": "ym2612"
    },
    {
      "channel": 2,
      "note": 69,
      "start": 30.0239,
      "duration": 0.1037,
      "velocity": 20,
      "chip": "ym2612"
    },
    {
      "channel": 3,
      "note": 69,
      "start": 30.0248,
      "duration": 0.1695,
      "velocity": 20,
      "chip": "ym2612"
    },
    {
      "channel": 4,
      "note": 91,
      "start": 30.025,
      "duration": 0.1696,
      "velocity": 94,
      "chip": "ym2612"
    },
    {
      "channel": 1,
      "note": 89,
      "start": 30.0274,
      "duration": 0.0999,
      "velocity": 94,
      "chip": "ym2612"
    },
    {
      "channel": 1,
      "note": 88,
      "start": 30.1275,
      "duration": 0.0999,
      "velocity": 94,
      "chip": "ym2612"
    },
    {
      "channel": 2,
      "note": 69,
      "start": 30.1278,
      "duration": 0.2002,
      "velocity": 20,
      "chip": "ym2612"
    },
    {
      "channel": 3,
      "note": 69,
      "start": 30.1946,
      "duration": 0.2,
      "velocity": 20,
      "chip": "ym2612"
    },
    {
      "channel": 4,
      "note": 90,
      "start": 30.1949,
      "duration": 0.0997,
      "velocity": 94,
      "chip": "ym2612"
    },
    {
      "channel": 1,
      "note": 86,
      "start": 30.2276,
      "duration": 0.1,
      "velocity": 94,
      "chip": "ym2612"
    },
    {
      "channel": 4,
      "note": 89,
      "start": 30.2949,
      "duration": 0.1,
      "velocity": 94,
      "chip": "ym2612"
    },
    {
      "channel": 1,
      "note": 82,
      "start": 30.3279,
      "duration": 0.0998,
      "velocity": 94,
      "chip": "ym2612"
    },
    {
      "channel": 2,
      "note": 76,
      "start": 30.3282,
      "duration": 0.1999,
      "velocity": 20,
      "chip": "ym2612"
    },
    {
      "channel": 3,
      "note": 76,
      "start": 30.3948,
      "duration": 0.2,
      "velocity": 20,
      "chip": "ym2612"
    },
    {
      "channel": 4,
      "note": 88,
      "start": 30.3952,
      "duration": 0.0997,
      "velocity": 94,
      "chip": "ym2612"
    },
    {
      "channel": 1,
      "note": 81,
      "start": 30.4279,
      "duration": 0.0999,
      "velocity": 94,
      "chip": "ym2612"
    },
    {
      "channel": 4,
      "note": 86,
      "start": 30.4952,
      "duration": 0.1,
      "velocity": 94,
      "chip": "ym2612"
    },
    {
      "channel": 1,
      "note": 82,
      "start": 30.528,
      "duration": 0.453,
      "velocity": 94,
      "chip": "ym2612"
    },
    {
      "channel": 2,
      "note": 69,
      "start": 30.5284,
      "duration": 0.1998,
      "velocity": 20,
      "chip": "ym2612"
    },
    {
      "channel": 3,
      "note": 69,
      "start": 30.5951,
      "duration": 0.2,
      "velocity": 20,
      "chip": "ym2612"
    },
    {
      "channel": 4,
      "note": 82,
      "start": 30.5954,
      "duration": 0.0998,
      "velocity": 94,
      "chip": "ym2612"
    },
    {
      "channel": 4,
      "note": 81,
      "start": 30.6954,
      "duration": 0.1,
      "velocity": 94,
      "chip": "ym2612"
    },
    {
      "channel": 2,
      "note": 69,
      "start": 30.7284,
      "duration": 0.2,
      "velocity": 20,
      "chip": "ym2612"
    },
    {
      "channel": 3,
      "note": 69,
      "start": 30.7954,
      "duration": 0.1336,
      "velocity": 20,
      "chip": "ym2612"
    },
    {
      "channel": 4,
      "note": 82,
      "start": 30.7957,
      "duration": 0.3051,
      "velocity": 94,
      "chip": "ym2612"
    },
    {
      "channel": 2,
      "note": 76,
      "start": 30.9286,
      "duration": 0.0525,
      "velocity": 20,
      "chip": "ym2612"
    },
    {
      "channel": 3,
      "note": 76,
      "start": 30.9292,
      "duration": 0.0524,
      "velocity": 20,
      "chip": "ym2612"
    },
    {
      "channel": 0,
      "note": 55,
      "start": 30.981,
      "duration": 0.2527,
      "velocity": 81,
      "chip": "ym2612"
    },
    {
      "channel": 2,
      "note": 77,
      "start": 30.9812,
      "duration": 0.0523,
      "velocity": 20,
      "chip": "ym2612"
    },
    {
      "channel": 3,
      "note": 77,
      "start": 30.9818,
      "duration": 0.1187,
      "velocity": 20,
      "chip": "ym2612"
    },
    {
      "channel": 2,
      "note": 70,
      "start": 31.0338,
      "duration": 0.2002,
      "velocity": 20,
      "chip": "ym2612"
    },
    {
      "channel": 3,
      "note": 70,
      "start": 31.1007,
      "duration": 0.1344,
      "velocity": 20,
      "chip": "ym2612"
    },
    {
      "channel": 0,
      "note": 55,
      "start": 31.2339,
      "duration": 0.0027,
      "velocity": 81,
      "chip": "ym2612"
    },
    {
      "channel": 2,
      "note": 70,
      "start": 31.2341,
      "duration": 0.0028,
      "velocity": 20,
      "chip": "ym2612"
    },
    {
      "channel": 3,
      "note": 70,
      "start": 31.2352,
      "duration": 0.0027,
      "velocity": 20,
      "chip": "ym2612"
    },
    {
      "channel": 0,
      "note": 55,
      "start": 31.2368,
      "duration": 0.003,
      "velocity": 81,
      "chip": "ym2612"
    },
    {
      "channel": 2,
      "note": 76,
      "start": 31.2371,
      "duration": 0.0027,
      "velocity": 20,
      "chip": "ym2612"
    },
    {
      "channel": 3,
      "note": 76,
      "start": 31.2381,
      "duration": 0.0029,
      "velocity": 20,
      "chip": "ym2612"
    },
    {
      "channel": 2,
      "note": 70,
      "start": 31.2401,
      "duration": 0.0407,
      "velocity": 20,
      "chip": "ym2612"
    },
    {
      "channel": 3,
      "note": 70,
      "start": 31.2412,
      "duration": 0.0402,
      "velocity": 20,
      "chip": "ym2612"
    },
    {
      "channel": 0,
      "note": 55,
      "start": 31.2807,
      "duration": 0.0018,
      "velocity": 81,
      "chip": "ym2612"
    },
    {
      "channel": 2,
      "note": 70,
      "start": 31.281,
      "duration": 0.0019,
      "velocity": 20,
      "chip": "ym2612"
    },
    {
      "channel": 3,
      "note": 70,
      "start": 31.2815,
      "duration": 0.0017,
      "velocity": 20,
      "chip": "ym2612"
    },
    {
      "channel": 1,
      "note": 86,
      "start": 31.2827,
      "duration": 0.1406,
      "velocity": 94,
      "chip": "ym2612"
    },
    {
      "channel": 2,
      "note": 74,
      "start": 31.283,
      "duration": 0.0017,
      "velocity": 20,
      "chip": "ym2612"
    },
    {
      "channel": 3,
      "note": 74,
      "start": 31.2834,
      "duration": 0.0066,
      "velocity": 20,
      "chip": "ym2612"
    },
    {
      "channel": 0,
      "note": 53,
      "start": 31.2844,
      "duration": 0.1386,
      "velocity": 81,
      "chip": "ym2612"
    },
    {
      "channel": 2,
      "note": 70,
      "start": 31.2849,
      "duration": 0.1388,
      "velocity": 20,
      "chip": "ym2612"
    },
    {
      "channel": 3,
      "note": 70,
      "start": 31.2902,
      "duration": 0.1339,
      "velocity": 20,
      "chip": "ym2612"
    },
    {
      "channel": 4,
      "note": 86,
      "start": 31.2905,
      "duration": 0.136,
      "velocity": 94,
      "chip": "ym2612"
    },
    {
      "channel": 0,
      "note": 50,
      "start": 31.4232,
      "duration": 0.0019,
      "velocity": 81,
      "chip": "ym2612"
    },
    {
      "channel": 1,
      "note": 84,
      "start": 31.4236,
      "duration": 0.4198,
      "velocity": 94,
      "chip": "ym2612"
    },
    {
      "channel": 2,
      "note": 70,
      "start": 31.4238,
      "duration": 0.0016,
      "velocity": 20,
      "chip": "ym2612"
    },
    {
      "channel": 3,
      "note": 70,
      "start": 31.4241,
      "duration": 0.0021,
      "velocity": 20,
      "chip": "ym2612"
    },
    {
      "channel": 0,
      "note": 50,
      "start": 31.4253,
      "duration": 0.0172,
      "velocity": 81,
      "chip": "ym2612"
    },
    {
      "channel": 2,
      "note": 76,
      "start": 31.4256,
      "duration": 0.0174,
      "velocity": 20,
      "chip": "ym2612"
    },
    {
      "channel": 3,
      "note": 76,
      "start": 31.4264,
      "duration": 0.0833,
      "velocity": 20,
      "chip": "ym2612"
    },
    {
      "channel": 4,
      "note": 84,
      "start": 31.4267,
      "duration": 0.6183,
      "velocity": 94,
      "chip": "ym2612"
    },
    {
      "channel": 0,
      "note": 53,
      "start": 31.4427,
      "duration": 0.2,
      "velocity": 81,
      "chip": "ym2612"
    },
    {
      "channel": 2,
      "note": 70,
      "start": 31.4432,
      "duration": 0.2,
      "velocity": 20,
      "chip": "ym2612"
    },
    {
      "channel": 3,
      "note": 70,
      "start": 31.51,
      "duration": 0.2,
      "velocity": 20,
      "chip": "ym2612"
    },
    {
      "channel": 0,
      "note": 53,
      "start": 31.643,
      "duration": 0.2,
      "velocity": 81,
      "chip": "ym2612"
    },
    {
      "channel": 2,
      "note": 70,
      "start": 31.6435,
      "duration": 0.2002,
      "velocity": 20,
      "chip": "ym2612"
    },
    {
      "channel": 3,
      "note": 70,
      "start": 31.7102,
      "duration": 0.2,
      "velocity": 20,
      "chip": "ym2612"
    },
    {
      "channel": 0,
      "note": 57,
      "start": 31.8432,
      "duration": 0.2001,
      "velocity": 81,
      "chip": "ym2612"
    },
    {
      "channel": 1,
      "note": 81,
      "start": 31.8436,
      "duration": 0.2,
      "velocity": 94,
      "chip": "ym2612"
    },
    {
      "channel": 2,
      "note": 77,
      "start": 31.8439,
      "duration": 0.1999,
      "velocity": 20,
      "chip": "ym2612"
    },
    {
      "channel": 3,
      "note": 77,
      "start": 31.9105,
      "duration": 0.1342,
      "velocity": 20,
      "chip": "ym2612"
    },
    {
      "channel": 0,
      "note": 57,
      "start": 32.0435,
      "duration": 0.0027,
      "velocity": 81,
      "chip": "ym2612"
    },
    {
      "channel": 1,
      "note": 82,
      "start": 32.0437,
      "duration": 0.0028,
      "velocity": 94,
      "chip": "ym2612"
    },
    {
      "channel": 2,
      "note": 70,
      "start": 32.044,
      "duration": 0.0027,
      "velocity": 20,
      "chip": "ym2612"
    },
    {
      "channel": 3,
      "note": 70,
      "start": 32.0449,
      "duration": 0.0023,
      "velocity": 20,
      "chip": "ym2612"
    },
    {
      "channel": 4,
      "note": 81,
      "start": 32.0452,
      "duration": 0.0021,
      "velocity": 94,
      "chip": "ym2612"
    },
    {
      "channel": 0,
      "note": 55,
      "start": 32.0465,
      "duration": 0.0023,
      "velocity": 81,
      "chip": "ym2612"
    },
    {
      "channel": 1,
      "note": 93,
      "start": 32.0467,
      "duration": 0.0024,
      "velocity": 94,
      "chip": "ym2612"
    },
    {
      "channel": 2,
      "note": 70,
      "start": 32.0468,
      "duration": 0.0026,
      "velocity": 20,
      "chip": "ym2612"
    },
    {
      "channel": 3,
      "note": 70,
      "start": 32.0473,
      "duration": 0.0025,
      "velocity": 20,
      "chip": "ym2612"
    },
    {
      "channel": 4,
      "note": 82,
      "start": 32.0476,
      "duration": 0.0024,
      "velocity": 94,
      "chip": "ym2612"
    },
    {
      "channel": 0,
      "note": 55,
      "start": 32.049,
      "duration": 0.0025,
      "velocity": 81,
      "chip": "ym2612"
    },
    {
      "channel": 1,
      "note": 94,
      "start": 32.0493,
      "duration": 0.0025,
      "velocity": 94,
      "chip": "ym2612"
    },
    {
      "channel": 2,
      "note": 76,
      "start": 32.0495,
      "duration": 0.0025,
      "velocity": 20,
      "chip": "ym2612"
    },
    {
      "channel": 3,
      "note": 76,
      "start": 32.05,
      "duration": 0.0027,
      "velocity": 20,
      "chip": "ym2612"
    },
    {
      "channel": 4,
      "note": 93,
      "start": 32.0503,
      "duration": 0.0027,
      "velocity": 94,
      "chip": "ym2612"
    },
    {
      "channel": 0,
      "note": 58,
      "start": 32.0517,
      "duration": 0.0024,
      "velocity": 81,
      "chip": "ym2612"
    },
    {
      "channel": 1,
      "note": 86,
      "start": 32.052,
      "duration": 0.0024,
      "velocity": 94,
      "chip": "ym2612"
    },
    {
      "channel": 2,
      "note": 74,
      "start": 32.0522,
      "duration": 0.0024,
      "velocity": 20,
      "chip": "ym2612"
    },
    {
      "channel": 3,
      "note": 74,
      "start": 32.0529,
      "duration": 0.0027,
      "velocity": 20,
      "chip": "ym2612"
    },
    {
      "channel": 4,
      "note": 94,
      "start": 32.0532,
      "duration": 0.0028,
      "velocity": 94,
      "chip": "ym2612"
    },
    {
      "channel": 0,
      "note": 58,
      "start": 32.0544,
      "duration": 0.0032,
      "velocity": 81,
      "chip": "ym2612"
    },
    {
      "channel": 1,
      "note": 88,
      "start": 32.0546,
      "duration": 0.0032,
      "velocity": 94,
      "chip": "ym2612"
    },
    {
      "channel": 2,
      "note": 69,
      "start": 32.0549,
      "duration": 0.0031,
      "velocity": 20,
      "chip": "ym2612"
    },
    {
      "channel": 3,
      "note": 69,
      "start": 32.0559,
      "duration": 0.0026,
      "velocity": 20,
      "chip": "ym2612"
    },
    {
      "channel": 4,
      "note": 86,
      "start": 32.0561,
      "duration": 0.0026,
      "velocity": 94,
      "chip": "ym2612"
    },
    {
      "channel": 0,
      "note": 60,
      "start": 32.0577,
      "duration": 0.0021,
      "velocity": 81,
      "chip": "ym2612"
    },
    {
      "channel": 1,
      "note": 98,
      "start": 32.0579,
      "duration": 0.0022,
      "velocity": 94,
      "chip": "ym2612"
    },
    {
      "channel": 2,
      "note": 69,
      "start": 32.0581,
      "duration": 0.0024,
      "velocity": 20,
      "chip": "ym2612"
    },
    {
      "channel": 3,
      "note": 69,
      "start": 32.0586,
      "duration": 0.0027,
      "velocity": 20,
      "chip": "ym2612"
    },
    {
      "channel": 4,
      "note": 88,
      "start": 32.0589,
      "duration": 0.0027,
      "velocity": 94,
      "chip": "ym2612"
    },
    {
      "channel": 0,
      "note": 60,
      "start": 32.0601,
      "duration": 0.0028,
      "velocity": 81,
      "chip": "ym2612"
    },
    {
      "channel": 1,
      "note": 100,
      "start": 32.0603,
      "duration": 0.0027,
      "velocity": 94,
      "chip": "ym2612"
    },
    {
      "channel": 2,
      "note": 74,
      "start": 32.0607,
      "duration": 0.0024,
      "velocity": 20,
      "chip": "ym2612"
    },
    {
      "channel": 3,
      "note": 74,
      "start": 32.0615,
      "duration": 0.002,
      "velocity": 20,
      "chip": "ym2612"
    },
    {
      "channel": 4,
      "note": 98,
      "start": 32.0618,
      "duration": 0.0017,
      "velocity": 94,
      "chip": "ym2612"
    },
    {
      "channel": 4,
      "note": 100,
      "start": 32.0638,
      "duration": 0.0003,
      "velocity": 94,
      "chip": "ym2612"
    },
    {
      "channel": 2,
      "note": 57,
      "start": 32.4959,
      "duration": 0.0989,
      "velocity": 78,
      "chip": "ym2612"
    },
    {
      "channel": 3,
      "note": 57,
      "start": 32.5628,
      "duration": 0.0989,
      "velocity": 78,
      "chip": "ym2612"
    },
    {
      "channel": 2,
      "note": 62,
      "start": 32.595,
      "duration": 0.0999,
      "velocity": 78,
      "chip": "ym2612"
    },
    {
      "channel": 3,
      "note": 62,
      "start": 32.6619,
      "duration": 0.0999,
      "velocity": 78,
      "chip": "ym2612"
    },
    {
      "channel": 2,
      "note": 64,
      "start": 32.6952,
      "duration": 0.0999,
      "velocity": 78,
      "chip": "ym2612"
    },
    {
      "channel": 3,
      "note": 64,
      "start": 32.7621,
      "duration": 0.0999,
      "velocity": 78,
      "chip": "ym2612"
    },
    {
      "channel": 2,
      "note": 58,
      "start": 32.7953,
      "duration": 0.0999,
      "velocity": 78,
      "chip": "ym2612"
    },
    {
      "channel": 3,
      "note": 58,
      "start": 32.8622,
      "duration": 0.0999,
      "velocity": 78,
      "chip": "ym2612"
    },
    {
      "channel": 2,
      "note": 67,
      "start": 32.8954,
      "duration": 0.0999,
      "velocity": 78,
      "chip": "ym2612"
    },
    {
      "channel": 3,
      "note": 67,
      "start": 32.9623,
      "duration": 0.0999,
      "velocity": 78,
      "chip": "ym2612"
    },
    {
      "channel": 2,
      "note": 65,
      "start": 32.9955,
      "duration": 0.0999,
      "velocity": 78,
      "chip": "ym2612"
    },
    {
      "channel": 3,
      "note": 65,
      "start": 33.0624,
      "duration": 0.0335,
      "velocity": 78,
      "chip": "ym2612"
    },
    {
      "channel": 2,
      "note": 67,
      "start": 33.0957,
      "duration": 0.0006,
      "velocity": 78,
      "chip": "ym2612"
    },
    {
      "channel": 3,
      "note": 67,
      "start": 33.096,
      "duration": 0.0005,
      "velocity": 78,
      "chip": "ym2612"
    },
    {
      "channel": 2,
      "note": 69,
      "start": 33.0964,
      "duration": 0.0004,
      "velocity": 78,
      "chip": "ym2612"
    },
    {
      "channel": 3,
      "note": 69,
      "start": 33.0967,
      "duration": 0.0005,
      "velocity": 78,
      "chip": "ym2612"
    },
    {
      "channel": 2,
      "note": 69,
      "start": 33.0969,
      "duration": 0.0005,
      "velocity": 78,
      "chip": "ym2612"
    },
    {
      "channel": 3,
      "note": 69,
      "start": 33.0973,
      "duration": 0.0005,
      "velocity": 78,
      "chip": "ym2612"
    },
    {
      "channel": 2,
      "note": 74,
      "start": 33.0976,
      "duration": 0.0006,
      "velocity": 78,
      "chip": "ym2612"
    },
    {
      "channel": 3,
      "note": 74,
      "start": 33.098,
      "duration": 0.001,
      "velocity": 78,
      "chip": "ym2612"
    },
    {
      "channel": 2,
      "note": 76,
      "start": 33.0984,
      "duration": 0.0011,
      "velocity": 78,
      "chip": "ym2612"
    },
    {
      "channel": 3,
      "note": 76,
      "start": 33.0993,
      "duration": 0.0007,
      "velocity": 78,
      "chip": "ym2612"
    },
    {
      "channel": 2,
      "note": 70,
      "start": 33.0997,
      "duration": 0.0306,
      "velocity": 78,
      "chip": "ym2612"
    },
    {
      "channel": 3,
      "note": 70,
      "start": 33.1,
      "duration": 0.0972,
      "velocity": 78,
      "chip": "ym2612"
    },
    {
      "channel": 2,
      "note": 79,
      "start": 33.1305,
      "duration": 0.0999,
      "velocity": 78,
      "chip": "ym2612"
    },
    {
      "channel": 3,
      "note": 79,
      "start": 33.1974,
      "duration": 0.0999,
      "velocity": 78,
      "chip": "ym2612"
    },
    {
      "channel": 2,
      "note": 77,
      "start": 33.2307,
      "duration": 0.1002,
      "velocity": 78,
      "chip": "ym2612"
    },
    {
      "channel": 3,
      "note": 77,
      "start": 33.2976,
      "duration": 0.0337,
      "velocity": 78,
      "chip": "ym2612"
    },
    {
      "channel": 0,
      "note": 52,
      "start": 33.3307,
      "duration": 0.0527,
      "velocity": 81,
      "chip": "ym2612"
    },
    {
      "channel": 2,
      "note": 79,
      "start": 33.331,
      "duration": 0.0006,
      "velocity": 78,
      "chip": "ym2612"
    },
    {
      "channel": 3,
      "note": 79,
      "start": 33.3314,
      "duration": 0.0189,
      "velocity": 78,
      "chip": "ym2612"
    },
    {
      "channel": 2,
      "note": 81,
      "start": 33.3317,
      "duration": 0.0541,
      "velocity": 97,
      "chip": "ym2612"
    },
    {
      "channel": 3,
      "note": 81,
      "start": 33.3506,
      "duration": 0.0363,
      "velocity": 97,
      "chip": "ym2612"
    },
    {
      "channel": 0,
      "note": 52,
      "start": 33.3836,
      "duration": 0.6554,
      "velocity": 81,
      "chip": "ym2612"
    },
    {
      "channel": 1,
      "note": 69,
      "start": 33.3848,
      "duration": 1.4737,
      "velocity": 97,
      "chip": "ym2612"
    },
    {
      "channel": 2,
      "note": 57,
      "start": 33.386,
      "duration": 1.4727,
      "velocity": 97,
      "chip": "ym2612"
    },
    {
      "channel": 3,
      "note": 50,
      "start": 33.3871,
      "duration": 1.4718,
      "velocity": 97,
      "chip": "ym2612"
    },
    {
      "channel": 4,
      "note": 62,
      "start": 33.3883,
      "duration": 1.4708,
      "velocity": 97,
      "chip": "ym2612"
    },
    {
      "channel": 0,
      "note": 64,
      "start": 34.0392,
      "duration": 0.7669,
      "velocity": 81,
      "chip": "ym2612"
    },
    {
      "channel": 0,
      "note": 52,
      "start": 34.8063,
      "duration": 0.0519,
      "velocity": 81,
      "chip": "ym2612"
    },
    {
      "channel": 0,
      "note": 52,
      "start": 34.8584,
      "duration": 0.8526,
      "velocity": 81,
      "chip": "ym2612"
    },
    {
      "channel": 1,
      "note": 72,
      "start": 34.8586,
      "duration": 1.6481,
      "velocity": 97,
      "chip": "ym2612"
    },
    {
      "channel": 2,
      "note": 60,
      "start": 34.8588,
      "duration": 1.648,
      "velocity": 97,
      "chip": "ym2612"
    },
    {
      "channel": 3,
      "note": 53,
      "start": 34.859,
      "duration": 1.648,
      "velocity": 97,
      "chip": "ym2612"
    },
    {
      "channel": 4,
      "note": 65,
      "start": 34.8592,
      "duration": 1.648,
      "velocity": 97,
      "chip": "ym2612"
    },
    {
      "channel": 0,
      "note": 64,
      "start": 35.7111,
      "duration": 0.7432,
      "velocity": 81,
      "chip": "ym2612"
    },
    {
      "channel": 0,
      "note": 52,
      "start": 36.4546,
      "duration": 0.0517,
      "velocity": 81,
      "chip": "ym2612"
    },
    {
      "channel": 0,
      "note": 52,
      "start": 36.5065,
      "duration": 0.6554,
      "velocity": 81,
      "chip": "ym2612"
    },
    {
      "channel": 1,
      "note": 69,
      "start": 36.5068,
      "duration": 1.474,
      "velocity": 97,
      "chip": "ym2612"
    },
    {
      "channel": 2,
      "note": 57,
      "start": 36.507,
      "duration": 1.474,
      "velocity": 97,
      "chip": "ym2612"
    },
    {
      "channel": 3,
      "note": 50,
      "start": 36.5072,
      "duration": 1.474,
      "velocity": 97,
      "chip": "ym2612"
    },
    {
      "channel": 4,
      "note": 62,
      "start": 36.5074,
      "duration": 1.4741,
      "velocity": 97,
      "chip": "ym2612"
    },
    {
      "channel": 0,
      "note": 64,
      "start": 37.1621,
      "duration": 0.7663,
      "velocity": 81,
      "chip": "ym2612"
    },
    {
      "channel": 0,
      "note": 52,
      "start": 37.9287,
      "duration": 0.0518,
      "velocity": 81,
      "chip": "ym2612"
    },
    {
      "channel": 0,
      "note": 52,
      "start": 37.9807,
      "duration": 0.8526,
      "velocity": 81,
      "chip": "ym2612"
    },
    {
      "channel": 1,
      "note": 72,
      "start": 37.9809,
      "duration": 0.9895,
      "velocity": 94,
      "chip": "ym2612"
    },
    {
      "channel": 2,
      "note": 60,
      "start": 37.9812,
      "duration": 0.9895,
      "velocity": 97,
      "chip": "ym2612"
    },
    {
      "channel": 3,
      "note": 53,
      "start": 37.9814,
      "duration": 0.9894,
      "velocity": 97,
      "chip": "ym2612"
    },
    {
      "channel": 4,
      "note": 65,
      "start": 37.9817,
      "duration": 0.9904,
      "velocity": 94,
      "chip": "ym2612"
    },
    {
      "channel": 0,
      "note": 64,
      "start": 38.8336,
      "duration": 0.1321,
      "velocity": 81,
      "chip": "ym2612"
    },
    {
      "channel": 0,
      "note": 52,
      "start": 38.9659,
      "duration": 0.0033,
      "velocity": 81,
      "chip": "ym2612"
    },
    {
      "channel": 0,
      "note": 55,
      "start": 38.9694,
      "duration": 0.2521,
      "velocity": 81,
      "chip": "ym2612"
    },
    {
      "channel": 2,
      "note": 74,
      "start": 38.9707,
      "duration": 0.9505,
      "velocity": 97,
      "chip": "ym2612"
    },
    {
      "channel": 3,
      "note": 67,
      "start": 38.971,
      "duration": 0.9505,
      "velocity": 97,
      "chip": "ym2612"
    },
    {
      "channel": 0,
      "note": 55,
      "start": 39.2217,
      "duration": 0.2001,
      "velocity": 81,
      "chip": "ym2612"
    },
    {
      "channel": 0,
      "note": 55,
      "start": 39.422,
      "duration": 0.0526,
      "velocity": 81,
      "chip": "ym2612"
    },
    {
      "channel": 0,
      "note": 55,
      "start": 39.4759,
      "duration": 0.0016,
      "velocity": 81,
      "chip": "ym2612"
    },
    {
      "channel": 0,
      "note": 53,
      "start": 39.509,
      "duration": 0.0529,
      "velocity": 81,
      "chip": "ym2612"
    },
    {
      "channel": 0,
      "note": 50,
      "start": 39.5622,
      "duration": 0.2001,
      "velocity": 81,
      "chip": "ym2612"
    },
    {
      "channel": 0,
      "note": 50,
      "start": 39.7624,
      "duration": 0.0527,
      "velocity": 81,
      "chip": "ym2612"
    },
    {
      "channel": 0,
      "note": 53,
      "start": 39.8153,
      "duration": 0.0527,
      "velocity": 81,
      "chip": "ym2612"
    },
    {
      "channel": 0,
      "note": 53,
      "start": 39.8683,
      "duration": 0.0526,
      "velocity": 81,
      "chip": "ym2612"
    },
    {
      "channel": 0,
      "note": 57,
      "start": 39.9211,
      "duration": 0.0012,
      "velocity": 81,
      "chip": "ym2612"
    },
    {
      "channel": 2,
      "note": 75,
      "start": 39.9214,
      "duration": 0.0839,
      "velocity": 97,
      "chip": "ym2612"
    },
    {
      "channel": 3,
      "note": 67,
      "start": 39.9216,
      "duration": 0.0838,
      "velocity": 97,
      "chip": "ym2612"
    },
    {
      "channel": 0,
      "note": 57,
      "start": 39.9225,
      "duration": 0.0009,
      "velocity": 81,
      "chip": "ym2612"
    },
    {
      "channel": 0,
      "note": 55,
      "start": 39.9236,
      "duration": 0.0293,
      "velocity": 81,
      "chip": "ym2612"
    },
    {
      "channel": 1,
      "note": 69,
      "start": 39.9237,
      "duration": 0.0005,
      "velocity": 94,
      "chip": "ym2612"
    },
    {
      "channel": 1,
      "note": 70,
      "start": 39.9244,
      "duration": 0.0287,
      "velocity": 94,
      "chip": "ym2612"
    },
    {
      "channel": 0,
      "note": 55,
      "start": 39.9531,
      "duration": 0.052,
      "velocity": 81,
      "chip": "ym2612"
    },
    {
      "channel": 1,
      "note": 74,
      "start": 39.9533,
      "duration": 0.0005,
      "velocity": 94,
      "chip": "ym2612"
    },
    {
      "channel": 4,
      "note": 69,
      "start": 39.9537,
      "duration": 0.0185,
      "velocity": 94,
      "chip": "ym2612"
    },
    {
      "channel": 1,
      "note": 76,
      "start": 39.9539,
      "duration": 0.9978,
      "velocity": 94,
      "chip": "ym2612"
    },
    {
      "channel": 4,
      "note": 70,
      "start": 39.9725,
      "duration": 0.0333,
      "velocity": 94,
      "chip": "ym2612"
    },
    {
      "channel": 0,
      "note": 58,
      "start": 40.0053,
      "duration": 0.0509,
      "velocity": 81,
      "chip": "ym2612"
    },
    {
      "channel": 2,
      "note": 76,
      "start": 40.0054,
      "duration": 0.9496,
      "velocity": 97,
      "chip": "ym2612"
    },
    {
      "channel": 3,
      "note": 72,
      "start": 40.0056,
      "duration": 0.9496,
      "velocity": 97,
      "chip": "ym2612"
    },
    {
      "channel": 4,
      "note": 74,
      "start": 40.006,
      "duration": 0.0175,
      "velocity": 94,
      "chip": "ym2612"
    },
    {
      "channel": 4,
      "note": 76,
      "start": 40.0237,
      "duration": 0.9307,
      "velocity": 94,
      "chip": "ym2612"
    },
    {
      "channel": 0,
      "note": 58,
      "start": 40.0564,
      "duration": 0.2,
      "velocity": 81,
      "chip": "ym2612"
    },
    {
      "channel": 0,
      "note": 60,
      "start": 40.2567,
      "duration": 0.2,
      "velocity": 81,
      "chip": "ym2612"
    },
    {
      "channel": 0,
      "note": 60,
      "start": 40.457,
      "duration": 0.0516,
      "velocity": 81,
      "chip": "ym2612"
    },
    {
      "channel": 2,
      "note": 77,
      "start": 40.9552,
      "duration": 0.0834,
      "velocity": 97,
      "chip": "ym2612"
    },
    {
      "channel": 3,
      "note": 70,
      "start": 40.9554,
      "duration": 0.0834,
      "velocity": 97,
      "chip": "ym2612"
    },
    {
      "channel": 1,
      "note": 77,
      "start": 40.9859,
      "duration": 0.0525,
      "velocity": 94,
      "chip": "ym2612"
    },
    {
      "channel": 0,
      "note": 55,
      "start": 41.0383,
      "duration": 0.2519,
      "velocity": 81,
      "chip": "ym2612"
    },
    {
      "channel": 1,
      "note": 76,
      "start": 41.0385,
      "duration": 0.9459,
      "velocity": 94,
      "chip": "ym2612"
    },
    {
      "channel": 2,
      "note": 74,
      "start": 41.0387,
      "duration": 0.9457,
      "velocity": 97,
      "chip": "ym2612"
    },
    {
      "channel": 3,
      "note": 67,
      "start": 41.0389,
      "duration": 0.9457,
      "velocity": 97,
      "chip": "ym2612"
    },
    {
      "channel": 4,
      "note": 77,
      "start": 41.0394,
      "duration": 0.1179,
      "velocity": 94,
      "chip": "ym2612"
    },
    {
      "channel": 4,
      "note": 76,
      "start": 41.1576,
      "duration": 0.8291,
      "velocity": 94,
      "chip": "ym2612"
    },
    {
      "channel": 0,
      "note": 55,
      "start": 41.2904,
      "duration": 0.2001,
      "velocity": 81,
      "chip": "ym2612"
    },
    {
      "channel": 0,
      "note": 55,
      "start": 41.4907,
      "duration": 0.0517,
      "velocity": 81,
      "chip": "ym2612"
    },
    {
      "channel": 0,
      "note": 55,
      "start": 41.545,
      "duration": 0.0028,
      "velocity": 81,
      "chip": "ym2612"
    },
    {
      "channel": 0,
      "note": 53,
      "start": 41.5755,
      "duration": 0.0523,
      "velocity": 81,
      "chip": "ym2612"
    },
    {
      "channel": 0,
      "note": 50,
      "start": 41.628,
      "duration": 0.2,
      "velocity": 81,
      "chip": "ym2612"
    },
    {
      "channel": 0,
      "note": 50,
      "start": 41.8283,
      "duration": 0.0517,
      "velocity": 81,
      "chip": "ym2612"
    },
    {
      "channel": 0,
      "note": 53,
      "start": 41.8802,
      "duration": 0.0518,
      "velocity": 81,
      "chip": "ym2612"
    },
    {
      "channel": 0,
      "note": 53,
      "start": 41.9323,
      "duration": 0.0519,
      "velocity": 81,
      "chip": "ym2612"
    },
    {
      "channel": 0,
      "note": 57,
      "start": 41.9843,
      "duration": 0.0017,
      "velocity": 81,
      "chip": "ym2612"
    },
    {
      "channel": 2,
      "note": 79,
      "start": 41.9846,
      "duration": 0.0841,
      "velocity": 97,
      "chip": "ym2612"
    },
    {
      "channel": 3,
      "note": 74,
      "start": 41.9849,
      "duration": 0.084,
      "velocity": 97,
      "chip": "ym2612"
    },
    {
      "channel": 0,
      "note": 57,
      "start": 41.9862,
      "duration": 0.0011,
      "velocity": 81,
      "chip": "ym2612"
    },
    {
      "channel": 0,
      "note": 55,
      "start": 41.9874,
      "duration": 0.0285,
      "velocity": 81,
      "chip": "ym2612"
    },
    {
      "channel": 0,
      "note": 55,
      "start": 42.0161,
      "duration": 0.052,
      "velocity": 81,
      "chip": "ym2612"
    },
    {
      "channel": 1,
      "note": 77,
      "start": 42.0163,
      "duration": 0.0522,
      "velocity": 94,
      "chip": "ym2612"
    },
    {
      "channel": 0,
      "note": 58,
      "start": 42.0684,
      "duration": 0.0514,
      "velocity": 81,
      "chip": "ym2612"
    },
    {
      "channel": 1,
      "note": 81,
      "start": 42.0686,
      "duration": 0.452,
      "velocity": 94,
      "chip": "ym2612"
    },
    {
      "channel": 2,
      "note": 84,
      "start": 42.0688,
      "duration": 0.9471,
      "velocity": 97,
      "chip": "ym2612"
    },
    {
      "channel": 3,
      "note": 76,
      "start": 42.069,
      "duration": 0.9472,
      "velocity": 97,
      "chip": "ym2612"
    },
    {
      "channel": 4,
      "note": 77,
      "start": 42.0693,
      "duration": 0.1179,
      "velocity": 94,
      "chip": "ym2612"
    },
    {
      "channel": 0,
      "note": 58,
      "start": 42.12,
      "duration": 0.2,
      "velocity": 81,
      "chip": "ym2612"
    },
    {
      "channel": 4,
      "note": 81,
      "start": 42.1874,
      "duration": 0.3859,
      "velocity": 94,
      "chip": "ym2612"
    },
    {
      "channel": 0,
      "note": 60,
      "start": 42.3203,
      "duration": 0.2,
      "velocity": 81,
      "chip": "ym2612"
    },
    {
      "channel": 0,
      "note": 60,
      "start": 42.5205,
      "duration": 0.0516,
      "velocity": 81,
      "chip": "ym2612"
    },
    {
      "channel": 1,
      "note": 79,
      "start": 42.5207,
      "duration": 0.0564,
      "velocity": 94,
      "chip": "ym2612"
    },
    {
      "channel": 4,
      "note": 79,
      "start": 42.5735,
      "duration": 0.0324,
      "velocity": 94,
      "chip": "ym2612"
    },
    {
      "channel": 1,
      "note": 77,
      "start": 42.5773,
      "duration": 0.281,
      "velocity": 94,
      "chip": "ym2612"
    },
    {
      "channel": 4,
      "note": 77,
      "start": 42.6061,
      "duration": 0.3054,
      "velocity": 94,
      "chip": "ym2612"
    },
    {
      "channel": 1,
      "note": 76,
      "start": 42.8585,
      "duration": 0.0523,
      "velocity": 94,
      "chip": "ym2612"
    },
    {
      "channel": 1,
      "note": 77,
      "start": 42.9109,
      "duration": 0.0522,
      "velocity": 94,
      "chip": "ym2612"
    },
    {
      "channel": 4,
      "note": 76,
      "start": 42.9116,
      "duration": 0.0522,
      "velocity": 94,
      "chip": "ym2612"
    },
    {
      "channel": 1,
      "note": 76,
      "start": 42.9633,
      "duration": 0.0523,
      "velocity": 94,
      "chip": "ym2612"
    },
    {
      "channel": 4,
      "note": 77,
      "start": 42.964,
      "duration": 0.0525,
      "velocity": 94,
      "chip": "ym2612"
    },
    {
      "channel": 1,
      "note": 74,
      "start": 43.0158,
      "duration": 0.0845,
      "velocity": 94,
      "chip": "ym2612"
    },
    {
      "channel": 2,
      "note": 84,
      "start": 43.0161,
      "duration": 0.0021,
      "velocity": 97,
      "chip": "ym2612"
    },
    {
      "channel": 3,
      "note": 76,
      "start": 43.0163,
      "duration": 0.002,
      "velocity": 97,
      "chip": "ym2612"
    },
    {
      "channel": 4,
      "note": 76,
      "start": 43.0167,
      "duration": 0.002,
      "velocity": 94,
      "chip": "ym2612"
    },
    {
      "channel": 2,
      "note": 82,
      "start": 43.0183,
      "duration": 0.0029,
      "velocity": 97,
      "chip": "ym2612"
    },
    {
      "channel": 3,
      "note": 74,
      "start": 43.0186,
      "duration": 0.0028,
      "velocity": 97,
      "chip": "ym2612"
    },
    {
      "channel": 4,
      "note": 74,
      "start": 43.0188,
      "duration": 0.2006,
      "velocity": 94,
      "chip": "ym2612"
    },
    {
      "channel": 2,
      "note": 81,
      "start": 43.0214,
      "duration": 0.0791,
      "velocity": 97,
      "chip": "ym2612"
    },
    {
      "channel": 3,
      "note": 77,
      "start": 43.0217,
      "duration": 0.0791,
      "velocity": 97,
      "chip": "ym2612"
    },
    {
      "channel": 0,
      "note": 55,
      "start": 43.1003,
      "duration": 0.252,
      "velocity": 81,
      "chip": "ym2612"
    },
    {
      "channel": 1,
      "note": 76,
      "start": 43.1005,
      "duration": 0.0009,
      "velocity": 94,
      "chip": "ym2612"
    },
    {
      "channel": 2,
      "note": 79,
      "start": 43.1007,
      "duration": 0.5894,
      "velocity": 97,
      "chip": "ym2612"
    },
    {
      "channel": 3,
      "note": 70,
      "start": 43.1009,
      "duration": 0.5896,
      "velocity": 97,
      "chip": "ym2612"
    },
    {
      "channel": 1,
      "note": 77,
      "start": 43.1016,
      "duration": 0.0506,
      "velocity": 94,
      "chip": "ym2612"
    },
    {
      "channel": 1,
      "note": 86,
      "start": 43.1525,
      "duration": 0.8927,
      "velocity": 94,
      "chip": "ym2612"
    },
    {
      "channel": 4,
      "note": 76,
      "start": 43.2197,
      "duration": 0.0999,
      "velocity": 94,
      "chip": "ym2612"
    },
    {
      "channel": 4,
      "note": 77,
      "start": 43.3198,
      "duration": 0.0999,
      "velocity": 94,
      "chip": "ym2612"
    },
    {
      "channel": 0,
      "note": 55,
      "start": 43.3525,
      "duration": 0.2001,
      "velocity": 81,
      "chip": "ym2612"
    },
    {
      "channel": 4,
      "note": 86,
      "start": 43.42,
      "duration": 0.6281,
      "velocity": 94,
      "chip": "ym2612"
    },
    {
      "channel": 0,
      "note": 55,
      "start": 43.5528,
      "duration": 0.0516,
      "velocity": 81,
      "chip": "ym2612"
    },
    {
      "channel": 0,
      "note": 55,
      "start": 43.607,
      "duration": 0.0028,
      "velocity": 81,
      "chip": "ym2612"
    },
    {
      "channel": 0,
      "note": 53,
      "start": 43.6374,
      "duration": 0.0523,
      "velocity": 81,
      "chip": "ym2612"
    },
    {
      "channel": 0,
      "note": 50,
      "start": 43.6899,
      "duration": 0.2,
      "velocity": 81,
      "chip": "ym2612"
    },
    {
      "channel": 2,
      "note": 74,
      "start": 43.6904,
      "duration": 0.3549,
      "velocity": 97,
      "chip": "ym2612"
    },
    {
      "channel": 3,
      "note": 67,
      "start": 43.6907,
      "duration": 0.3547,
      "velocity": 97,
      "chip": "ym2612"
    },
    {
      "channel": 0,
      "note": 50,
      "start": 43.8902,
      "duration": 0.0513,
      "velocity": 81,
      "chip": "ym2612"
    },
    {
      "channel": 0,
      "note": 53,
      "start": 43.9417,
      "duration": 0.0515,
      "velocity": 81,
      "chip": "ym2612"
    },
    {
      "channel": 0,
      "note": 53,
      "start": 43.9933,
      "duration": 0.0516,
      "velocity": 81,
      "chip": "ym2612"
    },
    {
      "channel": 0,
      "note": 57,
      "start": 44.0451,
      "duration": 0.0018,
      "velocity": 81,
      "chip": "ym2612"
    },
    {
      "channel": 2,
      "note": 77,
      "start": 44.0454,
      "duration": 0.0822,
      "velocity": 97,
      "chip": "ym2612"
    },
    {
      "channel": 3,
      "note": 70,
      "start": 44.0457,
      "duration": 0.0821,
      "velocity": 97,
      "chip": "ym2612"
    },
    {
      "channel": 0,
      "note": 57,
      "start": 44.0473,
      "duration": 0.0012,
      "velocity": 81,
      "chip": "ym2612"
    },
    {
      "channel": 1,
      "note": 91,
      "start": 44.0475,
      "duration": 0.0011,
      "velocity": 94,
      "chip": "ym2612"
    },
    {
      "channel": 0,
      "note": 55,
      "start": 44.0485,
      "duration": 0.0268,
      "velocity": 81,
      "chip": "ym2612"
    },
    {
      "channel": 1,
      "note": 89,
      "start": 44.0488,
      "duration": 0.0268,
      "velocity": 94,
      "chip": "ym2612"
    },
    {
      "channel": 4,
      "note": 91,
      "start": 44.0495,
      "duration": 0.0268,
      "velocity": 94,
      "chip": "ym2612"
    },
    {
      "channel": 0,
      "note": 55,
      "start": 44.0755,
      "duration": 0.0516,
      "velocity": 81,
      "chip": "ym2612"
    },
    {
      "channel": 1,
      "note": 88,
      "start": 44.0757,
      "duration": 0.0516,
      "velocity": 94,
      "chip": "ym2612"
    },
    {
      "channel": 4,
      "note": 89,
      "start": 44.0764,
      "duration": 0.0517,
      "velocity": 94,
      "chip": "ym2612"
    },
    {
      "channel": 0,
      "note": 58,
      "start": 44.1273,
      "duration": 0.0512,
      "velocity": 81,
      "chip": "ym2612"
    },
    {
      "channel": 1,
      "note": 86,
      "start": 44.1275,
      "duration": 0.5367,
      "velocity": 94,
      "chip": "ym2612"
    },
    {
      "channel": 2,
      "note": 76,
      "start": 44.1278,
      "duration": 0.5087,
      "velocity": 97,
      "chip": "ym2612"
    },
    {
      "channel": 3,
      "note": 72,
      "start": 44.1279,
      "duration": 0.5088,
      "velocity": 97,
      "chip": "ym2612"
    },
    {
      "channel": 4,
      "note": 88,
      "start": 44.1283,
      "duration": 0.1176,
      "velocity": 94,
      "chip": "ym2612"
    },
    {
      "channel": 0,
      "note": 58,
      "start": 44.1788,
      "duration": 0.2,
      "velocity": 81,
      "chip": "ym2612"
    },
    {
      "channel": 4,
      "note": 86,
      "start": 44.2462,
      "duration": 0.5372,
      "velocity": 94,
      "chip": "ym2612"
    },
    {
      "channel": 0,
      "note": 60,
      "start": 44.379,
      "duration": 0.2001,
      "velocity": 81,
      "chip": "ym2612"
    },
    {
      "channel": 0,
      "note": 60,
      "start": 44.5793,
      "duration": 0.0517,
      "velocity": 81,
      "chip": "ym2612"
    },
    {
      "channel": 2,
      "note": 77,
      "start": 44.6366,
      "duration": 0.0799,
      "velocity": 97,
      "chip": "ym2612"
    },
    {
      "channel": 3,
      "note": 70,
      "start": 44.6369,
      "duration": 0.0799,
      "velocity": 97,
      "chip": "ym2612"
    },
    {
      "channel": 1,
      "note": 88,
      "start": 44.6644,
      "duration": 0.0518,
      "velocity": 94,
      "chip": "ym2612"
    },
    {
      "channel": 1,
      "note": 86,
      "start": 44.7165,
      "duration": 0.3884,
      "velocity": 94,
      "chip": "ym2612"
    },
    {
      "channel": 2,
      "note": 81,
      "start": 44.7168,
      "duration": 0.2519,
      "velocity": 97,
      "chip": "ym2612"
    },
    {
      "channel": 3,
      "note": 72,
      "start": 44.7171,
      "duration": 0.2519,
      "velocity": 97,
      "chip": "ym2612"
    },
    {
      "channel": 4,
      "note": 88,
      "start": 44.7837,
      "duration": 0.1331,
      "velocity": 94,
      "chip": "ym2612"
    },
    {
      "channel": 4,
      "note": 86,
      "start": 44.9169,
      "duration": 0.2414,
      "velocity": 94,
      "chip": "ym2612"
    },
    {
      "channel": 2,
      "note": 79,
      "start": 44.9689,
      "duration": 0.1045,
      "velocity": 97,
      "chip": "ym2612"
    },
    {
      "channel": 3,
      "note": 70,
      "start": 44.9691,
      "duration": 0.1046,
      "velocity": 97,
      "chip": "ym2612"
    },
    {
      "channel": 2,
      "note": 77,
      "start": 45.0736,
      "duration": 0.0033,
      "velocity": 97,
      "chip": "ym2612"
    },
    {
      "channel": 3,
      "note": 69,
      "start": 45.0739,
      "duration": 0.0032,
      "velocity": 97,
      "chip": "ym2612"
    },
    {
      "channel": 2,
      "note": 76,
      "start": 45.077,
      "duration": 0.0804,
      "velocity": 97,
      "chip": "ym2612"
    },
    {
      "channel": 3,
      "note": 72,
      "start": 45.0773,
      "duration": 0.0803,
      "velocity": 97,
      "chip": "ym2612"
    },
    {
      "channel": 1,
      "note": 88,
      "start": 45.105,
      "duration": 0.0522,
      "velocity": 94,
      "chip": "ym2612"
    },
    {
      "channel": 0,
      "note": 55,
      "start": 45.1571,
      "duration": 0.2519,
      "velocity": 81,
      "chip": "ym2612"
    },
    {
      "channel": 1,
      "note": 93,
      "start": 45.1573,
      "duration": 0.4523,
      "velocity": 94,
      "chip": "ym2612"
    },
    {
      "channel": 2,
      "note": 74,
      "start": 45.1575,
      "duration": 0.9456,
      "velocity": 97,
      "chip": "ym2612"
    },
    {
      "channel": 3,
      "note": 67,
      "start": 45.1577,
      "duration": 0.9456,
      "velocity": 97,
      "chip": "ym2612"
    },
    {
      "channel": 4,
      "note": 88,
      "start": 45.1585,
      "duration": 0.1177,
      "velocity": 94,
      "chip": "ym2612"
    },
    {
      "channel": 4,
      "note": 93,
      "start": 45.2764,
      "duration": 0.3861,
      "velocity": 94,
      "chip": "ym2612"
    },
    {
      "channel": 0,
      "note": 55,
      "start": 45.4093,
      "duration": 0.2001,
      "velocity": 81,
      "chip": "ym2612"
    },
    {
      "channel": 0,
      "note": 55,
      "start": 45.6095,
      "duration": 0.0517,
      "velocity": 81,
      "chip": "ym2612"
    },
    {
      "channel": 1,
      "note": 91,
      "start": 45.6098,
      "duration": 0.0576,
      "velocity": 94,
      "chip": "ym2612"
    },
    {
      "channel": 4,
      "note": 91,
      "start": 45.6627,
      "duration": 0.0331,
      "velocity": 94,
      "chip": "ym2612"
    },
    {
      "channel": 0,
      "note": 55,
      "start": 45.6642,
      "duration": 0.0031,
      "velocity": 81,
      "chip": "ym2612"
    },
    {
      "channel": 1,
      "note": 89,
      "start": 45.6676,
      "duration": 0.28,
      "velocity": 94,
      "chip": "ym2612"
    },
    {
      "channel": 0,
      "note": 53,
      "start": 45.695,
      "duration": 0.052,
      "velocity": 81,
      "chip": "ym2612"
    },
    {
      "channel": 4,
      "note": 89,
      "start": 45.696,
      "duration": 0.3044,
      "velocity": 94,
      "chip": "ym2612"
    },
    {
      "channel": 0,
      "note": 50,
      "start": 45.7472,
      "duration": 0.2001,
      "velocity": 81,
      "chip": "ym2612"
    },
    {
      "channel": 0,
      "note": 50,
      "start": 45.9475,
      "duration": 0.0517,
      "velocity": 81,
      "chip": "ym2612"
    },
    {
      "channel": 1,
      "note": 93,
      "start": 45.9477,
      "duration": 0.0007,
      "velocity": 94,
      "chip": "ym2612"
    },
    {
      "channel": 1,
      "note": 94,
      "start": 45.9485,
      "duration": 0.051,
      "velocity": 94,
      "chip": "ym2612"
    },
    {
      "channel": 0,
      "note": 53,
      "start": 45.9995,
      "duration": 0.0516,
      "velocity": 81,
      "chip": "ym2612"
    },
    {
      "channel": 1,
      "note": 98,
      "start": 45.9996,
      "duration": 1.1247,
      "velocity": 94,
      "chip": "ym2612"
    },
    {
      "channel": 4,
      "note": 93,
      "start": 46.0005,
      "duration": 0.0178,
      "velocity": 94,
      "chip": "ym2612"
    },
    {
      "channel": 4,
      "note": 94,
      "start": 46.0185,
      "duration": 0.0333,
      "velocity": 94,
      "chip": "ym2612"
    },
    {
      "channel": 0,
      "note": 53,
      "start": 46.0513,
      "duration": 0.0514,
      "velocity": 81,
      "chip": "ym2612"
    },
    {
      "channel": 4,
      "note": 98,
      "start": 46.052,
      "duration": 1.1913,
      "velocity": 94,
      "chip": "ym2612"
    },
    {
      "channel": 0,
      "note": 57,
      "start": 46.1029,
      "duration": 0.002,
      "velocity": 81,
      "chip": "ym2612"
    },
    {
      "channel": 2,
      "note": 79,
      "start": 46.1033,
      "duration": 0.082,
      "velocity": 97,
      "chip": "ym2612"
    },
    {
      "channel": 3,
      "note": 70,
      "start": 46.1036,
      "duration": 0.0819,
      "velocity": 97,
      "chip": "ym2612"
    },
    {
      "channel": 0,
      "note": 57,
      "start": 46.1051,
      "duration": 0.0019,
      "velocity": 81,
      "chip": "ym2612"
    },
    {
      "channel": 0,
      "note": 55,
      "start": 46.1072,
      "duration": 0.0257,
      "velocity": 81,
      "chip": "ym2612"
    },
    {
      "channel": 0,
      "note": 55,
      "start": 46.1332,
      "duration": 0.0518,
      "velocity": 81,
      "chip": "ym2612"
    },
    {
      "channel": 0,
      "note": 58,
      "start": 46.1852,
      "duration": 0.0514,
      "velocity": 81,
      "chip": "ym2612"
    },
    {
      "channel": 2,
      "note": 84,
      "start": 46.1854,
      "duration": 0.5078,
      "velocity": 97,
      "chip": "ym2612"
    },
    {
      "channel": 3,
      "note": 76,
      "start": 46.1857,
      "duration": 0.5078,
      "velocity": 97,
      "chip": "ym2612"
    },
    {
      "channel": 0,
      "note": 58,
      "start": 46.2369,
      "duration": 0.2,
      "velocity": 81,
      "chip": "ym2612"
    },
    {
      "channel": 0,
      "note": 60,
      "start": 46.4371,
      "duration": 0.2001,
      "velocity": 81,
      "chip": "ym2612"
    },
    {
      "channel": 0,
      "note": 60,
      "start": 46.6374,
      "duration": 0.0516,
      "velocity": 81,
      "chip": "ym2612"
    },
    {
      "channel": 2,
      "note": 82,
      "start": 46.6934,
      "duration": 0.3687,
      "velocity": 97,
      "chip": "ym2612"
    },
    {
      "channel": 3,
      "note": 77,
      "start": 46.6937,
      "duration": 0.3686,
      "velocity": 97,
      "chip": "ym2612"
    },
    {
      "channel": 2,
      "note": 81,
      "start": 47.0623,
      "duration": 0.0632,
      "velocity": 94,
      "chip": "ym2612"
    },
    {
      "channel": 3,
      "note": 74,
      "start": 47.0625,
      "duration": 0.0642,
      "velocity": 107,
      "chip": "ym2612"
    },
    {
      "channel": 0,
      "note": 55,
      "start": 47.1243,
      "duration": 0.2519,
      "velocity": 81,
      "chip": "ym2612"
    },
    {
      "channel": 1,
      "note": 96,
      "start": 47.1245,
      "duration": 0.003,
      "velocity": 94,
      "chip": "ym2612"
    },
    {
      "channel": 2,
      "note": 74,
      "start": 47.1257,
      "duration": 0.944,
      "velocity": 94,
      "chip": "ym2612"
    },
    {
      "channel": 3,
      "note": 88,
      "start": 47.1269,
      "duration": 0.0497,
      "velocity": 107,
      "chip": "ym2612"
    },
    {
      "channel": 1,
      "note": 98,
      "start": 47.1278,
      "duration": 0.0483,
      "velocity": 94,
      "chip": "ym2612"
    },
    {
      "channel": 1,
      "note": 93,
      "start": 47.1763,
      "duration": 0.0999,
      "velocity": 94,
      "chip": "ym2612"
    },
    {
      "channel": 3,
      "note": 81,
      "start": 47.1768,
      "duration": 0.2,
      "velocity": 107,
      "chip": "ym2612"
    },
    {
      "channel": 4,
      "note": 96,
      "start": 47.2436,
      "duration": 0.0999,
      "velocity": 94,
      "chip": "ym2612"
    },
    {
      "channel": 1,
      "note": 94,
      "start": 47.2765,
      "duration": 0.741,
      "velocity": 94,
      "chip": "ym2612"
    },
    {
      "channel": 4,
      "note": 98,
      "start": 47.3437,
      "duration": 0.0999,
      "velocity": 94,
      "chip": "ym2612"
    },
    {
      "channel": 0,
      "note": 55,
      "start": 47.3764,
      "duration": 0.2001,
      "velocity": 81,
      "chip": "ym2612"
    },
    {
      "channel": 3,
      "note": 81,
      "start": 47.377,
      "duration": 0.2,
      "velocity": 107,
      "chip": "ym2612"
    },
    {
      "channel": 4,
      "note": 93,
      "start": 47.4438,
      "duration": 0.0999,
      "velocity": 94,
      "chip": "ym2612"
    },
    {
      "channel": 4,
      "note": 94,
      "start": 47.544,
      "duration": 0.5269,
      "velocity": 94,
      "chip": "ym2612"
    },
    {
      "channel": 0,
      "note": 55,
      "start": 47.5767,
      "duration": 0.0515,
      "velocity": 81,
      "chip": "ym2612"
    },
    {
      "channel": 3,
      "note": 89,
      "start": 47.5772,
      "duration": 0.0514,
      "velocity": 107,
      "chip": "ym2612"
    },
    {
      "channel": 3,
      "note": 81,
      "start": 47.6287,
      "duration": 0.0023,
      "velocity": 107,
      "chip": "ym2612"
    },
    {
      "channel": 0,
      "note": 55,
      "start": 47.6307,
      "duration": 0.0024,
      "velocity": 81,
      "chip": "ym2612"
    },
    {
      "channel": 3,
      "note": 81,
      "start": 47.6312,
      "duration": 0.0023,
      "velocity": 107,
      "chip": "ym2612"
    },
    {
      "channel": 3,
      "note": 88,
      "start": 47.6337,
      "duration": 0.0279,
      "velocity": 107,
      "chip": "ym2612"
    },
    {
      "channel": 0,
      "note": 53,
      "start": 47.6613,
      "duration": 0.0518,
      "velocity": 81,
      "chip": "ym2612"
    },
    {
      "channel": 3,
      "note": 81,
      "start": 47.6617,
      "duration": 0.0522,
      "velocity": 107,
      "chip": "ym2612"
    },
    {
      "channel": 0,
      "note": 50,
      "start": 47.7134,
      "duration": 0.2001,
      "velocity": 81,
      "chip": "ym2612"
    },
    {
      "channel": 3,
      "note": 81,
      "start": 47.7141,
      "duration": 0.1997,
      "velocity": 107,
      "chip": "ym2612"
    },
    {
      "channel": 0,
      "note": 50,
      "start": 47.9137,
      "duration": 0.0516,
      "velocity": 81,
      "chip": "ym2612"
    },
    {
      "channel": 3,
      "note": 86,
      "start": 47.914,
      "duration": 0.0515,
      "velocity": 107,
      "chip": "ym2612"
    },
    {
      "channel": 0,
      "note": 53,
      "start": 47.9655,
      "duration": 0.0517,
      "velocity": 81,
      "chip": "ym2612"
    },
    {
      "channel": 3,
      "note": 81,
      "start": 47.9657,
      "duration": 0.0521,
      "velocity": 107,
      "chip": "ym2612"
    },
    {
      "channel": 0,
      "note": 53,
      "start": 48.0175,
      "duration": 0.0517,
      "velocity": 81,
      "chip": "ym2612"
    },
    {
      "channel": 1,
      "note": 96,
      "start": 48.0177,
      "duration": 0.0008,
      "velocity": 94,
      "chip": "ym2612"
    },
    {
      "channel": 3,
      "note": 81,
      "start": 48.0179,
      "duration": 0.052,
      "velocity": 107,
      "chip": "ym2612"
    },
    {
      "channel": 1,
      "note": 95,
      "start": 48.0187,
      "duration": 0.0507,
      "velocity": 94,
      "chip": "ym2612"
    },
    {
      "channel": 0,
      "note": 57,
      "start": 48.0694,
      "duration": 0.0025,
      "velocity": 81,
      "chip": "ym2612"
    },
    {
      "channel": 1,
      "note": 94,
      "start": 48.0696,
      "duration": 0.03,
      "velocity": 94,
      "chip": "ym2612"
    },
    {
      "channel": 2,
      "note": 75,
      "start": 48.0698,
      "duration": 0.0818,
      "velocity": 94,
      "chip": "ym2612"
    },
    {
      "channel": 3,
      "note": 88,
      "start": 48.0701,
      "duration": 0.0019,
      "velocity": 107,
      "chip": "ym2612"
    },
    {
      "channel": 4,
      "note": 96,
      "start": 48.0711,
      "duration": 0.0004,
      "velocity": 94,
      "chip": "ym2612"
    },
    {
      "channel": 4,
      "note": 95,
      "start": 48.0717,
      "duration": 0.001,
      "velocity": 94,
      "chip": "ym2612"
    },
    {
      "channel": 0,
      "note": 57,
      "start": 48.072,
      "duration": 0.0016,
      "velocity": 81,
      "chip": "ym2612"
    },
    {
      "channel": 3,
      "note": 81,
      "start": 48.0722,
      "duration": 0.0019,
      "velocity": 107,
      "chip": "ym2612"
    },
    {
      "channel": 4,
      "note": 94,
      "start": 48.0729,
      "duration": 0.08,
      "velocity": 94,
      "chip": "ym2612"
    },
    {
      "channel": 0,
      "note": 55,
      "start": 48.0738,
      "duration": 0.0255,
      "velocity": 81,
      "chip": "ym2612"
    },
    {
      "channel": 3,
      "note": 81,
      "start": 48.0742,
      "duration": 0.0257,
      "velocity": 107,
      "chip": "ym2612"
    },
    {
      "channel": 0,
      "note": 55,
      "start": 48.0995,
      "duration": 0.0518,
      "velocity": 81,
      "chip": "ym2612"
    },
    {
      "channel": 1,
      "note": 89,
      "start": 48.0998,
      "duration": 0.5561,
      "velocity": 94,
      "chip": "ym2612"
    },
    {
      "channel": 3,
      "note": 88,
      "start": 48.1001,
      "duration": 0.0518,
      "velocity": 107,
      "chip": "ym2612"
    },
    {
      "channel": 0,
      "note": 58,
      "start": 48.1516,
      "duration": 0.0517,
      "velocity": 81,
      "chip": "ym2612"
    },
    {
      "channel": 2,
      "note": 76,
      "start": 48.1518,
      "duration": 0.9556,
      "velocity": 94,
      "chip": "ym2612"
    },
    {
      "channel": 3,
      "note": 89,
      "start": 48.1521,
      "duration": 0.0518,
      "velocity": 107,
      "chip": "ym2612"
    },
    {
      "channel": 4,
      "note": 89,
      "start": 48.153,
      "duration": 0.5056,
      "velocity": 94,
      "chip": "ym2612"
    },
    {
      "channel": 0,
      "note": 58,
      "start": 48.2035,
      "duration": 0.2,
      "velocity": 81,
      "chip": "ym2612"
    },
    {
      "channel": 3,
      "note": 82,
      "start": 48.2041,
      "duration": 0.2,
      "velocity": 107,
      "chip": "ym2612"
    },
    {
      "channel": 0,
      "note": 60,
      "start": 48.4038,
      "duration": 0.2001,
      "velocity": 81,
      "chip": "ym2612"
    },
    {
      "channel": 3,
      "note": 82,
      "start": 48.4044,
      "duration": 0.1999,
      "velocity": 107,
      "chip": "ym2612"
    },
    {
      "channel": 0,
      "note": 60,
      "start": 48.6041,
      "duration": 0.0516,
      "velocity": 81,
      "chip": "ym2612"
    },
    {
      "channel": 3,
      "note": 88,
      "start": 48.6044,
      "duration": 0.0515,
      "velocity": 107,
      "chip": "ym2612"
    },
    {
      "channel": 3,
      "note": 82,
      "start": 48.6562,
      "duration": 0.0018,
      "velocity": 107,
      "chip": "ym2612"
    },
    {
      "channel": 3,
      "note": 82,
      "start": 48.6581,
      "duration": 0.0012,
      "velocity": 107,
      "chip": "ym2612"
    },
    {
      "channel": 3,
      "note": 86,
      "start": 48.6595,
      "duration": 0.0315,
      "velocity": 107,
      "chip": "ym2612"
    },
    {
      "channel": 3,
      "note": 82,
      "start": 48.6912,
      "duration": 0.0532,
      "velocity": 107,
      "chip": "ym2612"
    },
    {
      "channel": 3,
      "note": 82,
      "start": 48.7447,
      "duration": 0.1998,
      "velocity": 107,
      "chip": "ym2612"
    },
    {
      "channel": 3,
      "note": 88,
      "start": 48.9447,
      "duration": 0.0529,
      "velocity": 107,
      "chip": "ym2612"
    },
    {
      "channel": 3,
      "note": 82,
      "start": 48.9978,
      "duration": 0.053,
      "velocity": 107,
      "chip": "ym2612"
    },
    {
      "channel": 3,
      "note": 82,
      "start": 49.051,
      "duration": 0.0531,
      "velocity": 107,
      "chip": "ym2612"
    },
    {
      "channel": 3,
      "note": 89,
      "start": 49.1042,
      "duration": 0.0017,
      "velocity": 107,
      "chip": "ym2612"
    },
    {
      "channel": 1,
      "note": 86,
      "start": 49.1057,
      "duration": 0.0015,
      "velocity": 94,
      "chip": "ym2612"
    },
    {
      "channel": 3,
      "note": 82,
      "start": 49.106,
      "duration": 0.0016,
      "velocity": 107,
      "chip": "ym2612"
    },
    {
      "channel": 1,
      "note": 89,
      "start": 49.1074,
      "duration": 0.0298,
      "velocity": 94,
      "chip": "ym2612"
    },
    {
      "channel": 2,
      "note": 77,
      "start": 49.1076,
      "duration": 0.0822,
      "velocity": 94,
      "chip": "ym2612"
    },
    {
      "channel": 3,
      "note": 82,
      "start": 49.1077,
      "duration": 0.0297,
      "velocity": 107,
      "chip": "ym2612"
    },
    {
      "channel": 4,
      "note": 86,
      "start": 49.1081,
      "duration": 0.0297,
      "velocity": 94,
      "chip": "ym2612"
    },
    {
      "channel": 1,
      "note": 93,
      "start": 49.1373,
      "duration": 0.0523,
      "velocity": 94,
      "chip": "ym2612"
    },
    {
      "channel": 3,
      "note": 88,
      "start": 49.1375,
      "duration": 0.0525,
      "velocity": 107,
      "chip": "ym2612"
    },
    {
      "channel": 4,
      "note": 89,
      "start": 49.138,
      "duration": 0.0527,
      "velocity": 94,
      "chip": "ym2612"
    },
    {
      "channel": 0,
      "note": 55,
      "start": 49.1895,
      "duration": 0.2517,
      "velocity": 81,
      "chip": "ym2612"
    },
    {
      "channel": 1,
      "note": 98,
      "start": 49.1897,
      "duration": 0.0514,
      "velocity": 94,
      "chip": "ym2612"
    },
    {
      "channel": 2,
      "note": 74,
      "start": 49.19,
      "duration": 0.9437,
      "velocity": 94,
      "chip": "ym2612"
    },
    {
      "channel": 3,
      "note": 88,
      "start": 49.1901,
      "duration": 0.0515,
      "velocity": 107,
      "chip": "ym2612"
    },
    {
      "channel": 4,
      "note": 93,
      "start": 49.1908,
      "duration": 0.1176,
      "velocity": 94,
      "chip": "ym2612"
    },
    {
      "channel": 1,
      "note": 100,
      "start": 49.2414,
      "duration": 0.2001,
      "velocity": 94,
      "chip": "ym2612"
    },
    {
      "channel": 3,
      "note": 81,
      "start": 49.2419,
      "duration": 0.2001,
      "velocity": 107,
      "chip": "ym2612"
    },
    {
      "channel": 4,
      "note": 98,
      "start": 49.3086,
      "duration": 0.2,
      "velocity": 94,
      "chip": "ym2612"
    },
    {
      "channel": 0,
      "note": 55,
      "start": 49.4415,
      "duration": 0.2001,
      "velocity": 81,
      "chip": "ym2612"
    },
    {
      "channel": 1,
      "note": 98,
      "start": 49.4418,
      "duration": 0.2,
      "velocity": 94,
      "chip": "ym2612"
    },
    {
      "channel": 3,
      "note": 81,
      "start": 49.4423,
      "duration": 0.2,
      "velocity": 107,
      "chip": "ym2612"
    },
    {
      "channel": 4,
      "note": 100,
      "start": 49.5089,
      "duration": 0.1339,
      "velocity": 94,
      "chip": "ym2612"
    },
    {
      "channel": 0,
      "note": 55,
      "start": 49.6418,
      "duration": 0.0517,
      "velocity": 81,
      "chip": "ym2612"
    },
    {
      "channel": 1,
      "note": 94,
      "start": 49.642,
      "duration": 0.0516,
      "velocity": 94,
      "chip": "ym2612"
    },
    {
      "channel": 3,
      "note": 89,
      "start": 49.6424,
      "duration": 0.0515,
      "velocity": 107,
      "chip": "ym2612"
    },
    {
      "channel": 4,
      "note": 98,
      "start": 49.6429,
      "duration": 0.0517,
      "velocity": 94,
      "chip": "ym2612"
    },
    {
      "channel": 1,
      "note": 93,
      "start": 49.6938,
      "duration": 0.0011,
      "velocity": 94,
      "chip": "ym2612"
    },
    {
      "channel": 3,
      "note": 81,
      "start": 49.6941,
      "duration": 0.0017,
      "velocity": 107,
      "chip": "ym2612"
    },
    {
      "channel": 4,
      "note": 94,
      "start": 49.6947,
      "duration": 0.0019,
      "velocity": 94,
      "chip": "ym2612"
    },
    {
      "channel": 1,
      "note": 92,
      "start": 49.695,
      "duration": 0.0006,
      "velocity": 94,
      "chip": "ym2612"
    },
    {
      "channel": 0,
      "note": 55,
      "start": 49.6955,
      "duration": 0.003,
      "velocity": 81,
      "chip": "ym2612"
    },
    {
      "channel": 1,
      "note": 91,
      "start": 49.6957,
      "duration": 0.0012,
      "velocity": 94,
      "chip": "ym2612"
    },
    {
      "channel": 3,
      "note": 81,
      "start": 49.696,
      "duration": 0.0031,
      "velocity": 107,
      "chip": "ym2612"
    },
    {
      "channel": 4,
      "note": 93,
      "start": 49.6968,
      "duration": 0.0015,
      "velocity": 94,
      "chip": "ym2612"
    },
    {
      "channel": 1,
      "note": 90,
      "start": 49.6972,
      "duration": 0.0015,
      "velocity": 94,
      "chip": "ym2612"
    },
    {
      "channel": 4,
      "note": 92,
      "start": 49.6984,
      "duration": 0.0015,
      "velocity": 94,
      "chip": "ym2612"
    },
    {
      "channel": 1,
      "note": 89,
      "start": 49.6988,
      "duration": 0.027,
      "velocity": 94,
      "chip": "ym2612"
    },
    {
      "channel": 3,
      "note": 88,
      "start": 49.6993,
      "duration": 0.027,
      "velocity": 107,
      "chip": "ym2612"
    },
    {
      "channel": 4,
      "note": 91,
      "start": 49.7001,
      "duration": 0.0009,
      "velocity": 94,
      "chip": "ym2612"
    },
    {
      "channel": 4,
      "note": 90,
      "start": 49.7011,
      "duration": 0.0256,
      "velocity": 94,
      "chip": "ym2612"
    },
    {
      "channel": 0,
      "note": 53,
      "start": 49.7258,
      "duration": 0.0514,
      "velocity": 81,
      "chip": "ym2612"
    },
    {
      "channel": 1,
      "note": 86,
      "start": 49.726,
      "duration": 0.4099,
      "velocity": 94,
      "chip": "ym2612"
    },
    {
      "channel": 3,
      "note": 81,
      "start": 49.7264,
      "duration": 0.0516,
      "velocity": 107,
      "chip": "ym2612"
    },
    {
      "channel": 4,
      "note": 89,
      "start": 49.7268,
      "duration": 0.1178,
      "velocity": 94,
      "chip": "ym2612"
    },
    {
      "channel": 0,
      "note": 50,
      "start": 49.7775,
      "duration": 0.2001,
      "velocity": 81,
      "chip": "ym2612"
    },
    {
      "channel": 3,
      "note": 81,
      "start": 49.7782,
      "duration": 0.1998,
      "velocity": 107,
      "chip": "ym2612"
    },
    {
      "channel": 4,
      "note": 86,
      "start": 49.8449,
      "duration": 0.2935,
      "velocity": 94,
      "chip": "ym2612"
    },
    {
      "channel": 0,
      "note": 50,
      "start": 49.9778,
      "duration": 0.0516,
      "velocity": 81,
      "chip": "ym2612"
    },
    {
      "channel": 3,
      "note": 86,
      "start": 49.9781,
      "duration": 0.0516,
      "velocity": 107,
      "chip": "ym2612"
    },
    {
      "channel": 0,
      "note": 53,
      "start": 50.0296,
      "duration": 0.0518,
      "velocity": 81,
      "chip": "ym2612"
    },
    {
      "channel": 3,
      "note": 81,
      "start": 50.0299,
      "duration": 0.0519,
      "velocity": 107,
      "chip": "ym2612"
    },
    {
      "channel": 0,
      "note": 53,
      "start": 50.0816,
      "duration": 0.0516,
      "velocity": 81,
      "chip": "ym2612"
    },
    {
      "channel": 3,
      "note": 81,
      "start": 50.0818,
      "duration": 0.0521,
      "velocity": 107,
      "chip": "ym2612"
    },
    {
      "channel": 0,
      "note": 57,
      "start": 50.1334,
      "duration": 0.0022,
      "velocity": 81,
      "chip": "ym2612"
    },
    {
      "channel": 2,
      "note": 79,
      "start": 50.1338,
      "duration": 0.0839,
      "velocity": 94,
      "chip": "ym2612"
    },
    {
      "channel": 3,
      "note": 88,
      "start": 50.1341,
      "duration": 0.0018,
      "velocity": 107,
      "chip": "ym2612"
    },
    {
      "channel": 0,
      "note": 57,
      "start": 50.1358,
      "duration": 0.0015,
      "velocity": 81,
      "chip": "ym2612"
    },
    {
      "channel": 3,
      "note": 81,
      "start": 50.1361,
      "duration": 0.0015,
      "velocity": 107,
      "chip": "ym2612"
    },
    {
      "channel": 0,
      "note": 55,
      "start": 50.1375,
      "duration": 0.0273,
      "velocity": 81,
      "chip": "ym2612"
    },
    {
      "channel": 3,
      "note": 81,
      "start": 50.1377,
      "duration": 0.0276,
      "velocity": 107,
      "chip": "ym2612"
    },
    {
      "channel": 0,
      "note": 55,
      "start": 50.165,
      "duration": 0.0524,
      "velocity": 81,
      "chip": "ym2612"
    },
    {
      "channel": 1,
      "note": 81,
      "start": 50.1651,
      "duration": 0.0526,
      "velocity": 94,
      "chip": "ym2612"
    },
    {
      "channel": 3,
      "note": 88,
      "start": 50.1655,
      "duration": 0.0526,
      "velocity": 107,
      "chip": "ym2612"
    },
    {
      "channel": 0,
      "note": 58,
      "start": 50.2176,
      "duration": 0.0523,
      "velocity": 81,
      "chip": "ym2612"
    },
    {
      "channel": 2,
      "note": 84,
      "start": 50.2179,
      "duration": 0.9515,
      "velocity": 94,
      "chip": "ym2612"
    },
    {
      "channel": 3,
      "note": 89,
      "start": 50.2182,
      "duration": 0.0525,
      "velocity": 107,
      "chip": "ym2612"
    },
    {
      "channel": 4,
      "note": 81,
      "start": 50.2186,
      "duration": 0.1188,
      "velocity": 94,
      "chip": "ym2612"
    },
    {
      "channel": 0,
      "note": 58,
      "start": 50.2702,
      "duration": 0.2,
      "velocity": 81,
      "chip": "ym2612"
    },
    {
      "channel": 1,
      "note": 81,
      "start": 50.2705,
      "duration": 0.2,
      "velocity": 94,
      "chip": "ym2612"
    },
    {
      "channel": 3,
      "note": 82,
      "start": 50.271,
      "duration": 0.1999,
      "velocity": 107,
      "chip": "ym2612"
    },
    {
      "channel": 0,
      "note": 60,
      "start": 50.4705,
      "duration": 0.2001,
      "velocity": 81,
      "chip": "ym2612"
    },
    {
      "channel": 3,
      "note": 82,
      "start": 50.4711,
      "duration": 0.2,
      "velocity": 107,
      "chip": "ym2612"
    },
    {
      "channel": 4,
      "note": 81,
      "start": 50.5378,
      "duration": 0.1339,
      "velocity": 94,
      "chip": "ym2612"
    },
    {
      "channel": 0,
      "note": 60,
      "start": 50.6707,
      "duration": 0.052,
      "velocity": 81,
      "chip": "ym2612"
    },
    {
      "channel": 1,
      "note": 82,
      "start": 50.6709,
      "duration": 0.052,
      "velocity": 94,
      "chip": "ym2612"
    },
    {
      "channel": 3,
      "note": 88,
      "start": 50.6713,
      "duration": 0.0518,
      "velocity": 107,
      "chip": "ym2612"
    },
    {
      "channel": 3,
      "note": 82,
      "start": 50.7232,
      "duration": 0.001,
      "velocity": 107,
      "chip": "ym2612"
    },
    {
      "channel": 4,
      "note": 82,
      "start": 50.7237,
      "duration": 0.0012,
      "velocity": 94,
      "chip": "ym2612"
    },
    {
      "channel": 3,
      "note": 82,
      "start": 50.7244,
      "duration": 0.0012,
      "velocity": 107,
      "chip": "ym2612"
    },
    {
      "channel": 3,
      "note": 86,
      "start": 50.7258,
      "duration": 0.0315,
      "velocity": 107,
      "chip": "ym2612"
    },
    {
      "channel": 3,
      "note": 82,
      "start": 50.7576,
      "duration": 0.0532,
      "velocity": 107,
      "chip": "ym2612"
    },
    {
      "channel": 3,
      "note": 82,
      "start": 50.8111,
      "duration": 0.1998,
      "velocity": 107,
      "chip": "ym2612"
    },
    {
      "channel": 3,
      "note": 88,
      "start": 51.0111,
      "duration": 0.0531,
      "velocity": 107,
      "chip": "ym2612"
    },
    {
      "channel": 1,
      "note": 86,
      "start": 51.0641,
      "duration": 0.1069,
      "velocity": 94,
      "chip": "ym2612"
    },
    {
      "channel": 3,
      "note": 82,
      "start": 51.0644,
      "duration": 0.0525,
      "velocity": 107,
      "chip": "ym2612"
    },
    {
      "channel": 3,
      "note": 82,
      "start": 51.1169,
      "duration": 0.0529,
      "velocity": 107,
      "chip": "ym2612"
    },
    {
      "channel": 4,
      "note": 86,
      "start": 51.1173,
      "duration": 0.0564,
      "velocity": 94,
      "chip": "ym2612"
    },
    {
      "channel": 2,
      "note": 84,
      "start": 51.1696,
      "duration": 0.0022,
      "velocity": 94,
      "chip": "ym2612"
    },
    {
      "channel": 3,
      "note": 89,
      "start": 51.17,
      "duration": 0.0012,
      "velocity": 107,
      "chip": "ym2612"
    },
    {
      "channel": 1,
      "note": 81,
      "start": 51.1712,
      "duration": 0.0015,
      "velocity": 94,
      "chip": "ym2612"
    },
    {
      "channel": 3,
      "note": 82,
      "start": 51.1713,
      "duration": 0.0016,
      "velocity": 107,
      "chip": "ym2612"
    },
    {
      "channel": 2,
      "note": 82,
      "start": 51.172,
      "duration": 0.0021,
      "velocity": 94,
      "chip": "ym2612"
    },
    {
      "channel": 1,
      "note": 82,
      "start": 51.1728,
      "duration": 0.0271,
      "velocity": 94,
      "chip": "ym2612"
    },
    {
      "channel": 3,
      "note": 82,
      "start": 51.173,
      "duration": 0.0271,
      "velocity": 107,
      "chip": "ym2612"
    },
    {
      "channel": 4,
      "note": 81,
      "start": 51.1738,
      "duration": 0.0268,
      "velocity": 94,
      "chip": "ym2612"
    },
    {
      "channel": 2,
      "note": 81,
      "start": 51.1743,
      "duration": 0.0781,
      "velocity": 94,
      "chip": "ym2612"
    },
    {
      "channel": 1,
      "note": 79,
      "start": 51.2001,
      "duration": 0.5586,
      "velocity": 94,
      "chip": "ym2612"
    },
    {
      "channel": 3,
      "note": 88,
      "start": 51.2003,
      "duration": 0.0523,
      "velocity": 107,
      "chip": "ym2612"
    },
    {
      "channel": 4,
      "note": 82,
      "start": 51.2008,
      "duration": 0.0524,
      "velocity": 94,
      "chip": "ym2612"
    },
    {
      "channel": 0,
      "note": 55,
      "start": 51.2523,
      "duration": 0.2517,
      "velocity": 81,
      "chip": "ym2612"
    },
    {
      "channel": 2,
      "note": 79,
      "start": 51.2526,
      "duration": 0.5882,
      "velocity": 94,
      "chip": "ym2612"
    },
    {
      "channel": 3,
      "note": 88,
      "start": 51.2527,
      "duration": 0.0515,
      "velocity": 107,
      "chip": "ym2612"
    },
    {
      "channel": 4,
      "note": 79,
      "start": 51.2534,
      "duration": 0.5091,
      "velocity": 94,
      "chip": "ym2612"
    },
    {
      "channel": 3,
      "note": 81,
      "start": 51.3045,
      "duration": 0.2001,
      "velocity": 107,
      "chip": "ym2612"
    },
    {
      "channel": 0,
      "note": 55,
      "start": 51.5042,
      "duration": 0.2001,
      "velocity": 81,
      "chip": "ym2612"
    },
    {
      "channel": 3,
      "note": 81,
      "start": 51.5048,
      "duration": 0.1999,
      "velocity": 107,
      "chip": "ym2612"
    },
    {
      "channel": 0,
      "note": 55,
      "start": 51.7045,
      "duration": 0.0517,
      "velocity": 81,
      "chip": "ym2612"
    },
    {
      "channel": 3,
      "note": 89,
      "start": 51.7049,
      "duration": 0.0515,
      "velocity": 107,
      "chip": "ym2612"
    },
    {
      "channel": 3,
      "note": 81,
      "start": 51.7565,
      "duration": 0.0026,
      "velocity": 107,
      "chip": "ym2612"
    },
    {
      "channel": 0,
      "note": 55,
      "start": 51.7586,
      "duration": 0.0023,
      "velocity": 81,
      "chip": "ym2612"
    },
    {
      "channel": 1,
      "note": 81,
      "start": 51.7589,
      "duration": 0.0021,
      "velocity": 94,
      "chip": "ym2612"
    },
    {
      "channel": 3,
      "note": 81,
      "start": 51.7592,
      "duration": 0.0023,
      "velocity": 107,
      "chip": "ym2612"
    },
    {
      "channel": 1,
      "note": 82,
      "start": 51.7612,
      "duration": 0.0275,
      "velocity": 94,
      "chip": "ym2612"
    },
    {
      "channel": 3,
      "note": 88,
      "start": 51.7617,
      "duration": 0.0274,
      "velocity": 107,
      "chip": "ym2612"
    },
    {
      "channel": 4,
      "note": 81,
      "start": 51.7627,
      "duration": 0.0269,
      "velocity": 94,
      "chip": "ym2612"
    },
    {
      "channel": 0,
      "note": 53,
      "start": 51.7887,
      "duration": 0.0514,
      "velocity": 81,
      "chip": "ym2612"
    },
    {
      "channel": 1,
      "note": 86,
      "start": 51.7889,
      "duration": 0.0515,
      "velocity": 94,
      "chip": "ym2612"
    },
    {
      "channel": 3,
      "note": 81,
      "start": 51.7893,
      "duration": 0.0518,
      "velocity": 107,
      "chip": "ym2612"
    },
    {
      "channel": 4,
      "note": 82,
      "start": 51.7897,
      "duration": 0.1178,
      "velocity": 94,
      "chip": "ym2612"
    },
    {
      "channel": 0,
      "note": 50,
      "start": 51.8403,
      "duration": 0.2001,
      "velocity": 81,
      "chip": "ym2612"
    },
    {
      "channel": 1,
      "note": 88,
      "start": 51.8407,
      "duration": 0.2,
      "velocity": 94,
      "chip": "ym2612"
    },
    {
      "channel": 2,
      "note": 74,
      "start": 51.841,
      "duration": 0.3547,
      "velocity": 94,
      "chip": "ym2612"
    },
    {
      "channel": 3,
      "note": 81,
      "start": 51.8413,
      "duration": 0.1997,
      "velocity": 107,
      "chip": "ym2612"
    },
    {
      "channel": 4,
      "note": 86,
      "start": 51.9077,
      "duration": 0.1337,
      "velocity": 94,
      "chip": "ym2612"
    },
    {
      "channel": 0,
      "note": 50,
      "start": 52.0406,
      "duration": 0.0513,
      "velocity": 81,
      "chip": "ym2612"
    },
    {
      "channel": 1,
      "note": 91,
      "start": 52.0408,
      "duration": 0.0514,
      "velocity": 94,
      "chip": "ym2612"
    },
    {
      "channel": 3,
      "note": 86,
      "start": 52.0412,
      "duration": 0.0512,
      "velocity": 107,
      "chip": "ym2612"
    },
    {
      "channel": 4,
      "note": 88,
      "start": 52.0417,
      "duration": 0.0512,
      "velocity": 94,
      "chip": "ym2612"
    },
    {
      "channel": 0,
      "note": 53,
      "start": 52.0922,
      "duration": 0.0514,
      "velocity": 81,
      "chip": "ym2612"
    },
    {
      "channel": 1,
      "note": 93,
      "start": 52.0924,
      "duration": 0.0515,
      "velocity": 94,
      "chip": "ym2612"
    },
    {
      "channel": 3,
      "note": 81,
      "start": 52.0926,
      "duration": 0.0516,
      "velocity": 107,
      "chip": "ym2612"
    },
    {
      "channel": 4,
      "note": 91,
      "start": 52.0931,
      "duration": 0.0516,
      "velocity": 94,
      "chip": "ym2612"
    },
    {
      "channel": 0,
      "note": 53,
      "start": 52.1438,
      "duration": 0.0514,
      "velocity": 81,
      "chip": "ym2612"
    },
    {
      "channel": 1,
      "note": 88,
      "start": 52.144,
      "duration": 0.0515,
      "velocity": 94,
      "chip": "ym2612"
    },
    {
      "channel": 3,
      "note": 81,
      "start": 52.1443,
      "duration": 0.0517,
      "velocity": 107,
      "chip": "ym2612"
    },
    {
      "channel": 4,
      "note": 93,
      "start": 52.1448,
      "duration": 0.052,
      "velocity": 94,
      "chip": "ym2612"
    },
    {
      "channel": 0,
      "note": 57,
      "start": 52.1954,
      "duration": 0.0021,
      "velocity": 81,
      "chip": "ym2612"
    },
    {
      "channel": 1,
      "note": 98,
      "start": 52.1956,
      "duration": 0.5353,
      "velocity": 94,
      "chip": "ym2612"
    },
    {
      "channel": 2,
      "note": 77,
      "start": 52.1959,
      "duration": 0.0824,
      "velocity": 94,
      "chip": "ym2612"
    },
    {
      "channel": 3,
      "note": 88,
      "start": 52.1962,
      "duration": 0.0017,
      "velocity": 107,
      "chip": "ym2612"
    },
    {
      "channel": 4,
      "note": 88,
      "start": 52.1969,
      "duration": 0.0016,
      "velocity": 94,
      "chip": "ym2612"
    },
    {
      "channel": 0,
      "note": 57,
      "start": 52.1977,
      "duration": 0.0021,
      "velocity": 81,
      "chip": "ym2612"
    },
    {
      "channel": 3,
      "note": 81,
      "start": 52.198,
      "duration": 0.0023,
      "velocity": 107,
      "chip": "ym2612"
    },
    {
      "channel": 4,
      "note": 98,
      "start": 52.1988,
      "duration": 0.585,
      "velocity": 94,
      "chip": "ym2612"
    },
    {
      "channel": 0,
      "note": 55,
      "start": 52.2,
      "duration": 0.0256,
      "velocity": 81,
      "chip": "ym2612"
    },
    {
      "channel": 3,
      "note": 81,
      "start": 52.2005,
      "duration": 0.0256,
      "velocity": 107,
      "chip": "ym2612"
    },
    {
      "channel": 0,
      "note": 55,
      "start": 52.2259,
      "duration": 0.0522,
      "velocity": 81,
      "chip": "ym2612"
    },
    {
      "channel": 3,
      "note": 88,
      "start": 52.2262,
      "duration": 0.0524,
      "velocity": 107,
      "chip": "ym2612"
    },
    {
      "channel": 0,
      "note": 58,
      "start": 52.2783,
      "duration": 0.0518,
      "velocity": 81,
      "chip": "ym2612"
    },
    {
      "channel": 2,
      "note": 76,
      "start": 52.2785,
      "duration": 0.5084,
      "velocity": 94,
      "chip": "ym2612"
    },
    {
      "channel": 3,
      "note": 89,
      "start": 52.2788,
      "duration": 0.052,
      "velocity": 107,
      "chip": "ym2612"
    },
    {
      "channel": 0,
      "note": 58,
      "start": 52.3303,
      "duration": 0.2,
      "velocity": 81,
      "chip": "ym2612"
    },
    {
      "channel": 3,
      "note": 82,
      "start": 52.331,
      "duration": 0.2,
      "velocity": 107,
      "chip": "ym2612"
    },
    {
      "channel": 0,
      "note": 60,
      "start": 52.5306,
      "duration": 0.2001,
      "velocity": 81,
      "chip": "ym2612"
    },
    {
      "channel": 3,
      "note": 82,
      "start": 52.5312,
      "duration": 0.2001,
      "velocity": 107,
      "chip": "ym2612"
    },
    {
      "channel": 0,
      "note": 60,
      "start": 52.7309,
      "duration": 0.0516,
      "velocity": 81,
      "chip": "ym2612"
    },
    {
      "channel": 1,
      "note": 97,
      "start": 52.7311,
      "duration": 0.0515,
      "velocity": 94,
      "chip": "ym2612"
    },
    {
      "channel": 3,
      "note": 88,
      "start": 52.7315,
      "duration": 0.0515,
      "velocity": 107,
      "chip": "ym2612"
    },
    {
      "channel": 1,
      "note": 96,
      "start": 52.7828,
      "duration": 0.0019,
      "velocity": 94,
      "chip": "ym2612"
    },
    {
      "channel": 3,
      "note": 82,
      "start": 52.7831,
      "duration": 0.0018,
      "velocity": 107,
      "chip": "ym2612"
    },
    {
      "channel": 4,
      "note": 97,
      "start": 52.784,
      "duration": 0.0015,
      "velocity": 94,
      "chip": "ym2612"
    },
    {
      "channel": 1,
      "note": 95,
      "start": 52.7848,
      "duration": 0.0018,
      "velocity": 94,
      "chip": "ym2612"
    },
    {
      "channel": 3,
      "note": 82,
      "start": 52.785,
      "duration": 0.0022,
      "velocity": 107,
      "chip": "ym2612"
    },
    {
      "channel": 4,
      "note": 96,
      "start": 52.7858,
      "duration": 0.0023,
      "velocity": 94,
      "chip": "ym2612"
    },
    {
      "channel": 1,
      "note": 94,
      "start": 52.7868,
      "duration": 0.0272,
      "velocity": 94,
      "chip": "ym2612"
    },
    {
      "channel": 2,
      "note": 77,
      "start": 52.7871,
      "duration": 0.0793,
      "velocity": 94,
      "chip": "ym2612"
    },
    {
      "channel": 3,
      "note": 86,
      "start": 52.7874,
      "duration": 0.0269,
      "velocity": 107,
      "chip": "ym2612"
    },
    {
      "channel": 4,
      "note": 95,
      "start": 52.7883,
      "duration": 0.0263,
      "velocity": 94,
      "chip": "ym2612"
    },
    {
      "channel": 1,
      "note": 93,
      "start": 52.8142,
      "duration": 0.0518,
      "velocity": 94,
      "chip": "ym2612"
    },
    {
      "channel": 3,
      "note": 82,
      "start": 52.8144,
      "duration": 0.0522,
      "velocity": 107,
      "chip": "ym2612"
    },
    {
      "channel": 4,
      "note": 94,
      "start": 52.8147,
      "duration": 0.1185,
      "velocity": 94,
      "chip": "ym2612"
    },
    {
      "channel": 1,
      "note": 92,
      "start": 52.8663,
      "duration": 0.2,
      "velocity": 94,
      "chip": "ym2612"
    },
    {
      "channel": 2,
      "note": 81,
      "start": 52.8666,
      "duration": 0.252,
      "velocity": 94,
      "chip": "ym2612"
    },
    {
      "channel": 3,
      "note": 82,
      "start": 52.8669,
      "duration": 0.1997,
      "velocity": 107,
      "chip": "ym2612"
    },
    {
      "channel": 4,
      "note": 93,
      "start": 52.9335,
      "duration": 0.1334,
      "velocity": 94,
      "chip": "ym2612"
    },
    {
      "channel": 1,
      "note": 91,
      "start": 53.0665,
      "duration": 0.0519,
      "velocity": 94,
      "chip": "ym2612"
    },
    {
      "channel": 3,
      "note": 88,
      "start": 53.0667,
      "duration": 0.052,
      "velocity": 107,
      "chip": "ym2612"
    },
    {
      "channel": 4,
      "note": 92,
      "start": 53.067,
      "duration": 0.052,
      "velocity": 94,
      "chip": "ym2612"
    },
    {
      "channel": 1,
      "note": 90,
      "start": 53.1185,
      "duration": 0.0008,
      "velocity": 94,
      "chip": "ym2612"
    },
    {
      "channel": 2,
      "note": 79,
      "start": 53.1187,
      "duration": 0.1044,
      "velocity": 94,
      "chip": "ym2612"
    },
    {
      "channel": 3,
      "note": 82,
      "start": 53.1189,
      "duration": 0.052,
      "velocity": 107,
      "chip": "ym2612"
    },
    {
      "channel": 4,
      "note": 91,
      "start": 53.1192,
      "duration": 0.052,
      "velocity": 94,
      "chip": "ym2612"
    },
    {
      "channel": 1,
      "note": 89,
      "start": 53.1195,
      "duration": 0.0512,
      "velocity": 94,
      "chip": "ym2612"
    },
    {
      "channel": 1,
      "note": 88,
      "start": 53.1708,
      "duration": 0.0006,
      "velocity": 94,
      "chip": "ym2612"
    },
    {
      "channel": 3,
      "note": 82,
      "start": 53.171,
      "duration": 0.0524,
      "velocity": 107,
      "chip": "ym2612"
    },
    {
      "channel": 4,
      "note": 90,
      "start": 53.1713,
      "duration": 0.0185,
      "velocity": 94,
      "chip": "ym2612"
    },
    {
      "channel": 1,
      "note": 86,
      "start": 53.1716,
      "duration": 0.0513,
      "velocity": 94,
      "chip": "ym2612"
    },
    {
      "channel": 4,
      "note": 89,
      "start": 53.1901,
      "duration": 0.0335,
      "velocity": 94,
      "chip": "ym2612"
    },
    {
      "channel": 1,
      "note": 82,
      "start": 53.223,
      "duration": 0.0008,
      "velocity": 94,
      "chip": "ym2612"
    },
    {
      "channel": 2,
      "note": 77,
      "start": 53.2232,
      "duration": 0.0027,
      "velocity": 94,
      "chip": "ym2612"
    },
    {
      "channel": 3,
      "note": 89,
      "start": 53.2235,
      "duration": 0.0014,
      "velocity": 107,
      "chip": "ym2612"
    },
    {
      "channel": 4,
      "note": 88,
      "start": 53.2238,
      "duration": 0.0006,
      "velocity": 94,
      "chip": "ym2612"
    },
    {
      "channel": 1,
      "note": 81,
      "start": 53.2241,
      "duration": 0.0005,
      "velocity": 94,
      "chip": "ym2612"
    },
    {
      "channel": 4,
      "note": 86,
      "start": 53.2245,
      "duration": 0.0007,
      "velocity": 94,
      "chip": "ym2612"
    },
    {
      "channel": 1,
      "note": 82,
      "start": 53.2248,
      "duration": 0.0809,
      "velocity": 94,
      "chip": "ym2612"
    },
    {
      "channel": 3,
      "note": 82,
      "start": 53.2251,
      "duration": 0.0012,
      "velocity": 107,
      "chip": "ym2612"
    },
    {
      "channel": 4,
      "note": 82,
      "start": 53.2254,
      "duration": 0.0003,
      "velocity": 94,
      "chip": "ym2612"
    },
    {
      "channel": 4,
      "note": 81,
      "start": 53.2258,
      "duration": 0.001,
      "velocity": 94,
      "chip": "ym2612"
    },
    {
      "channel": 2,
      "note": 76,
      "start": 53.2261,
      "duration": 0.0796,
      "velocity": 94,
      "chip": "ym2612"
    },
    {
      "channel": 3,
      "note": 82,
      "start": 53.2263,
      "duration": 0.0269,
      "velocity": 107,
      "chip": "ym2612"
    },
    {
      "channel": 4,
      "note": 82,
      "start": 53.2269,
      "duration": 0.1983,
      "velocity": 94,
      "chip": "ym2612"
    },
    {
      "channel": 3,
      "note": 88,
      "start": 53.2533,
      "duration": 0.0527,
      "velocity": 107,
      "chip": "ym2612"
    },
    {
      "channel": 0,
      "note": 55,
      "start": 53.3056,
      "duration": 0.2526,
      "velocity": 81,
      "chip": "ym2612"
    },
    {
      "channel": 2,
      "note": 74,
      "start": 53.3059,
      "duration": 0.9478,
      "velocity": 94,
      "chip": "ym2612"
    },
    {
      "channel": 3,
      "note": 88,
      "start": 53.3061,
      "duration": 0.0523,
      "velocity": 107,
      "chip": "ym2612"
    },
    {
      "channel": 3,
      "note": 81,
      "start": 53.3586,
      "duration": 0.2001,
      "velocity": 107,
      "chip": "ym2612"
    },
    {
      "channel": 0,
      "note": 55,
      "start": 53.5584,
      "duration": 0.2001,
      "velocity": 81,
      "chip": "ym2612"
    },
    {
      "channel": 3,
      "note": 81,
      "start": 53.559,
      "duration": 0.1999,
      "velocity": 107,
      "chip": "ym2612"
    },
    {
      "channel": 0,
      "note": 55,
      "start": 53.7588,
      "duration": 0.0526,
      "velocity": 81,
      "chip": "ym2612"
    },
    {
      "channel": 3,
      "note": 89,
      "start": 53.7591,
      "duration": 0.0525,
      "velocity": 107,
      "chip": "ym2612"
    },
    {
      "channel": 3,
      "note": 81,
      "start": 53.8117,
      "duration": 0.0008,
      "velocity": 107,
      "chip": "ym2612"
    },
    {
      "channel": 0,
      "note": 55,
      "start": 53.8124,
      "duration": 0.0018,
      "velocity": 81,
      "chip": "ym2612"
    },
    {
      "channel": 3,
      "note": 81,
      "start": 53.8127,
      "duration": 0.0019,
      "velocity": 107,
      "chip": "ym2612"
    },
    {
      "channel": 1,
      "note": 86,
      "start": 53.8144,
      "duration": 0.0829,
      "velocity": 94,
      "chip": "ym2612"
    },
    {
      "channel": 3,
      "note": 88,
      "start": 53.8148,
      "duration": 0.0307,
      "velocity": 107,
      "chip": "ym2612"
    },
    {
      "channel": 0,
      "note": 53,
      "start": 53.8453,
      "duration": 0.0517,
      "velocity": 81,
      "chip": "ym2612"
    },
    {
      "channel": 3,
      "note": 81,
      "start": 53.8456,
      "duration": 0.0523,
      "velocity": 107,
      "chip": "ym2612"
    },
    {
      "channel": 4,
      "note": 86,
      "start": 53.846,
      "duration": 0.2524,
      "velocity": 94,
      "chip": "ym2612"
    },
    {
      "channel": 0,
      "note": 50,
      "start": 53.8973,
      "duration": 0.2001,
      "velocity": 81,
      "chip": "ym2612"
    },
    {
      "channel": 1,
      "note": 84,
      "start": 53.8976,
      "duration": 0.3559,
      "velocity": 94,
      "chip": "ym2612"
    },
    {
      "channel": 3,
      "note": 81,
      "start": 53.8982,
      "duration": 0.1995,
      "velocity": 107,
      "chip": "ym2612"
    },
    {
      "channel": 0,
      "note": 50,
      "start": 54.0975,
      "duration": 0.0518,
      "velocity": 81,
      "chip": "ym2612"
    },
    {
      "channel": 3,
      "note": 86,
      "start": 54.0978,
      "duration": 0.0519,
      "velocity": 107,
      "chip": "ym2612"
    },
    {
      "channel": 4,
      "note": 84,
      "start": 54.0986,
      "duration": 0.1583,
      "velocity": 94,
      "chip": "ym2612"
    },
    {
      "channel": 0,
      "note": 53,
      "start": 54.1495,
      "duration": 0.0517,
      "velocity": 81,
      "chip": "ym2612"
    },
    {
      "channel": 3,
      "note": 81,
      "start": 54.1498,
      "duration": 0.0517,
      "velocity": 107,
      "chip": "ym2612"
    },
    {
      "channel": 0,
      "note": 53,
      "start": 54.2015,
      "duration": 0.0518,
      "velocity": 81,
      "chip": "ym2612"
    },
    {
      "channel": 3,
      "note": 81,
      "start": 54.2016,
      "duration": 0.0524,
      "velocity": 107,
      "chip": "ym2612"
    },
    {
      "channel": 0,
      "note": 57,
      "start": 54.2534,
      "duration": 0.0021,
      "velocity": 81,
      "chip": "ym2612"
    },
    {
      "channel": 1,
      "note": 81,
      "start": 54.2536,
      "duration": 0.0022,
      "velocity": 94,
      "chip": "ym2612"
    },
    {
      "channel": 2,
      "note": 79,
      "start": 54.2539,
      "duration": 0.0821,
      "velocity": 94,
      "chip": "ym2612"
    },
    {
      "channel": 3,
      "note": 88,
      "start": 54.2542,
      "duration": 0.002,
      "velocity": 107,
      "chip": "ym2612"
    },
    {
      "channel": 0,
      "note": 57,
      "start": 54.2557,
      "duration": 0.0023,
      "velocity": 81,
      "chip": "ym2612"
    },
    {
      "channel": 1,
      "note": 82,
      "start": 54.2559,
      "duration": 0.0024,
      "velocity": 94,
      "chip": "ym2612"
    },
    {
      "channel": 3,
      "note": 81,
      "start": 54.2564,
      "duration": 0.0023,
      "velocity": 107,
      "chip": "ym2612"
    },
    {
      "channel": 4,
      "note": 81,
      "start": 54.2572,
      "duration": 0.0022,
      "velocity": 94,
      "chip": "ym2612"
    },
    {
      "channel": 0,
      "note": 55,
      "start": 54.2582,
      "duration": 0.0252,
      "velocity": 81,
      "chip": "ym2612"
    },
    {
      "channel": 1,
      "note": 93,
      "start": 54.2586,
      "duration": 0.0251,
      "velocity": 94,
      "chip": "ym2612"
    },
    {
      "channel": 3,
      "note": 81,
      "start": 54.2588,
      "duration": 0.0253,
      "velocity": 107,
      "chip": "ym2612"
    },
    {
      "channel": 4,
      "note": 82,
      "start": 54.2595,
      "duration": 0.0252,
      "velocity": 94,
      "chip": "ym2612"
    },
    {
      "channel": 0,
      "note": 55,
      "start": 54.2837,
      "duration": 0.0518,
      "velocity": 81,
      "chip": "ym2612"
    },
    {
      "channel": 1,
      "note": 94,
      "start": 54.2839,
      "duration": 0.0519,
      "velocity": 94,
      "chip": "ym2612"
    },
    {
      "channel": 3,
      "note": 88,
      "start": 54.2842,
      "duration": 0.052,
      "velocity": 107,
      "chip": "ym2612"
    },
    {
      "channel": 4,
      "note": 93,
      "start": 54.2848,
      "duration": 0.052,
      "velocity": 94,
      "chip": "ym2612"
    },
    {
      "channel": 0,
      "note": 58,
      "start": 54.3357,
      "duration": 0.0516,
      "velocity": 81,
      "chip": "ym2612"
    },
    {
      "channel": 1,
      "note": 86,
      "start": 54.3359,
      "duration": 0.0517,
      "velocity": 94,
      "chip": "ym2612"
    },
    {
      "channel": 2,
      "note": 84,
      "start": 54.3361,
      "duration": 0.5066,
      "velocity": 94,
      "chip": "ym2612"
    },
    {
      "channel": 3,
      "note": 89,
      "start": 54.3363,
      "duration": 0.0517,
      "velocity": 107,
      "chip": "ym2612"
    },
    {
      "channel": 4,
      "note": 94,
      "start": 54.3369,
      "duration": 0.1177,
      "velocity": 94,
      "chip": "ym2612"
    },
    {
      "channel": 0,
      "note": 58,
      "start": 54.3875,
      "duration": 0.2,
      "velocity": 81,
      "chip": "ym2612"
    },
    {
      "channel": 1,
      "note": 88,
      "start": 54.3878,
      "duration": 0.2,
      "velocity": 94,
      "chip": "ym2612"
    },
    {
      "channel": 3,
      "note": 82,
      "start": 54.3883,
      "duration": 0.2,
      "velocity": 107,
      "chip": "ym2612"
    },
    {
      "channel": 4,
      "note": 86,
      "start": 54.4549,
      "duration": 0.2,
      "velocity": 94,
      "chip": "ym2612"
    },
    {
      "channel": 0,
      "note": 60,
      "start": 54.5878,
      "duration": 0.2,
      "velocity": 81,
      "chip": "ym2612"
    },
    {
      "channel": 1,
      "note": 98,
      "start": 54.5881,
      "duration": 0.2,
      "velocity": 94,
      "chip": "ym2612"
    },
    {
      "channel": 3,
      "note": 82,
      "start": 54.5885,
      "duration": 0.1999,
      "velocity": 107,
      "chip": "ym2612"
    },
    {
      "channel": 4,
      "note": 88,
      "start": 54.6551,
      "duration": 0.1338,
      "velocity": 94,
      "chip": "ym2612"
    },
    {
      "channel": 0,
      "note": 60,
      "start": 54.788,
      "duration": 0.0515,
      "velocity": 81,
      "chip": "ym2612"
    },
    {
      "channel": 1,
      "note": 100,
      "start": 54.7882,
      "duration": 0.0515,
      "velocity": 94,
      "chip": "ym2612"
    },
    {
      "channel": 3,
      "note": 88,
      "start": 54.7886,
      "duration": 0.0522,
      "velocity": 99,
      "chip": "ym2612"
    },
    {
      "channel": 4,
      "note": 98,
      "start": 54.7891,
      "duration": 0.0522,
      "velocity": 94,
      "chip": "ym2612"
    },
    {
      "channel": 4,
      "note": 100,
      "start": 54.8415,
      "duration": 0.0006,
      "velocity": 94,
      "chip": "ym2612"
    },
    {
      "channel": 2,
      "note": 82,
      "start": 54.8429,
      "duration": 0.0939,
      "velocity": 94,
      "chip": "ym2612"
    },
    {
      "channel": 3,
      "note": 65,
      "start": 54.8431,
      "duration": 0.0939,
      "velocity": 99,
      "chip": "ym2612"
    },
    {
      "channel": 2,
      "note": 81,
      "start": 54.9369,
      "duration": 0.0948,
      "velocity": 99,
      "chip": "ym2612"
    },
    {
      "channel": 3,
      "note": 62,
      "start": 54.9371,
      "duration": 0.0947,
      "velocity": 99,
      "chip": "ym2612"
    },
    {
      "channel": 0,
      "note": 64,
      "start": 54.976,
      "duration": 0.0525,
      "velocity": 81,
      "chip": "ym2612"
    },
    {
      "channel": 0,
      "note": 52,
      "start": 55.0288,
      "duration": 0.6519,
      "velocity": 81,
      "chip": "ym2612"
    },
    {
      "channel": 1,
      "note": 69,
      "start": 55.03,
      "duration": 1.43,
      "velocity": 99,
      "chip": "ym2612"
    },
    {
      "channel": 2,
      "note": 45,
      "start": 55.0318,
      "duration": 1.4283,
      "velocity": 99,
      "chip": "ym2612"
    },
    {
      "channel": 3,
      "note": 38,
      "start": 55.032,
      "duration": 1.4283,
      "velocity": 99,
      "chip": "ym2612"
    },
    {
      "channel": 4,
      "note": 62,
      "start": 55.0332,
      "duration": 1.4274,
      "velocity": 99,
      "chip": "ym2612"
    },
    {
      "channel": 0,
      "note": 64,
      "start": 55.7335,
      "duration": 0.0029,
      "velocity": 81,
      "chip": "ym2612"
    },
    {
      "channel": 0,
      "note": 52,
      "start": 55.7404,
      "duration": 0.0518,
      "velocity": 81,
      "chip": "ym2612"
    },
    {
      "channel": 0,
      "note": 52,
      "start": 55.7924,
      "duration": 0.0514,
      "velocity": 81,
      "chip": "ym2612"
    },
    {
      "channel": 0,
      "note": 64,
      "start": 56.4557,
      "duration": 0.0038,
      "velocity": 81,
      "chip": "ym2612"
    },
    {
      "channel": 0,
      "note": 52,
      "start": 56.4598,
      "duration": 0.6525,
      "velocity": 81,
      "chip": "ym2612"
    },
    {
      "channel": 1,
      "note": 72,
      "start": 56.4601,
      "duration": 0.8453,
      "velocity": 99,
      "chip": "ym2612"
    },
    {
      "channel": 2,
      "note": 48,
      "start": 56.4603,
      "duration": 0.8453,
      "velocity": 99,
      "chip": "ym2612"
    },
    {
      "channel": 3,
      "note": 41,
      "start": 56.4605,
      "duration": 0.8453,
      "velocity": 99,
      "chip": "ym2612"
    },
    {
      "channel": 4,
      "note": 65,
      "start": 56.4608,
      "duration": 0.8452,
      "velocity": 99,
      "chip": "ym2612"
    },
    {
      "channel": 0,
      "note": 64,
      "start": 57.1651,
      "duration": 0.0029,
      "velocity": 81,
      "chip": "ym2612"
    },
    {
      "channel": 0,
      "note": 52,
      "start": 57.1719,
      "duration": 0.0519,
      "velocity": 81,
      "chip": "ym2612"
    },
    {
      "channel": 0,
      "note": 52,
      "start": 57.224,
      "duration": 0.0036,
      "velocity": 81,
      "chip": "ym2612"
    },
    {
      "channel": 0,
      "note": 64,
      "start": 57.2535,
      "duration": 0.0515,
      "velocity": 81,
      "chip": "ym2612"
    },
    {
      "channel": 0,
      "note": 52,
      "start": 57.3053,
      "duration": 0.6524,
      "velocity": 81,
      "chip": "ym2612"
    },
    {
      "channel": 1,
      "note": 69,
      "start": 57.3055,
      "duration": 0.8419,
      "velocity": 99,
      "chip": "ym2612"
    },
    {
      "channel": 2,
      "note": 45,
      "start": 57.3057,
      "duration": 0.842,
      "velocity": 99,
      "chip": "ym2612"
    },
    {
      "channel": 3,
      "note": 38,
      "start": 57.3059,
      "duration": 0.842,
      "velocity": 99,
      "chip": "ym2612"
    },
    {
      "channel": 4,
      "note": 62,
      "start": 57.3061,
      "duration": 0.842,
      "velocity": 99,
      "chip": "ym2612"
    },
    {
      "channel": 0,
      "note": 64,
      "start": 58.0106,
      "duration": 0.003,
      "velocity": 81,
      "chip": "ym2612"
    },
    {
      "channel": 0,
      "note": 52,
      "start": 58.0176,
      "duration": 0.0518,
      "velocity": 81,
      "chip": "ym2612"
    },
    {
      "channel": 0,
      "note": 52,
      "start": 58.0696,
      "duration": 0.0026,
      "velocity": 81,
      "chip": "ym2612"
    },
    {
      "channel": 0,
      "note": 64,
      "start": 58.0956,
      "duration": 0.0516,
      "velocity": 81,
      "chip": "ym2612"
    },
    {
      "channel": 0,
      "note": 52,
      "start": 58.1474,
      "duration": 0.6525,
      "velocity": 81,
      "chip": "ym2612"
    },
    {
      "channel": 1,
      "note": 72,
      "start": 58.1476,
      "duration": 0.8449,
      "velocity": 99,
      "chip": "ym2612"
    },
    {
      "channel": 2,
      "note": 48,
      "start": 58.1478,
      "duration": 0.845,
      "velocity": 99,
      "chip": "ym2612"
    },
    {
      "channel": 3,
      "note": 41,
      "start": 58.148,
      "duration": 0.8449,
      "velocity": 99,
      "chip": "ym2612"
    },
    {
      "channel": 4,
      "note": 65,
      "start": 58.1482,
      "duration": 0.8449,
      "velocity": 99,
      "chip": "ym2612"
    },
    {
      "channel": 0,
      "note": 64,
      "start": 58.8527,
      "duration": 0.003,
      "velocity": 81,
      "chip": "ym2612"
    },
    {
      "channel": 0,
      "note": 52,
      "start": 58.8596,
      "duration": 0.0518,
      "velocity": 81,
      "chip": "ym2612"
    },
    {
      "channel": 0,
      "note": 52,
      "start": 58.9117,
      "duration": 0.0515,
      "velocity": 81,
      "chip": "ym2612"
    },
    {
      "channel": 0,
      "note": 64,
      "start": 58.9883,
      "duration": 0.0039,
      "velocity": 81,
      "chip": "ym2612"
    },
    {
      "channel": 0,
      "note": 52,
      "start": 58.9924,
      "duration": 0.6522,
      "velocity": 81,
      "chip": "ym2612"
    },
    {
      "channel": 1,
      "note": 71,
      "start": 58.9927,
      "duration": 1.044,
      "velocity": 99,
      "chip": "ym2612"
    },
    {
      "channel": 2,
      "note": 49,
      "start": 58.9929,
      "duration": 1.0441,
      "velocity": 99,
      "chip": "ym2612"
    },
    {
      "channel": 3,
      "note": 40,
      "start": 58.993,
      "duration": 1.0441,
      "velocity": 99,
      "chip": "ym2612"
    },
    {
      "channel": 4,
      "note": 64,
      "start": 58.9932,
      "duration": 1.0442,
      "velocity": 99,
      "chip": "ym2612"
    },
    {
      "channel": 0,
      "note": 64,
      "start": 59.6975,
      "duration": 0.003,
      "velocity": 81,
      "chip": "ym2612"
    },
    {
      "channel": 0,
      "note": 52,
      "start": 59.7043,
      "duration": 0.0517,
      "velocity": 81,
      "chip": "ym2612"
    },
    {
      "channel": 0,
      "note": 52,
      "start": 59.7563,
      "duration": 0.0513,
      "velocity": 81,
      "chip": "ym2612"
    },
    {
      "channel": 0,
      "note": 64,
      "start": 60.0324,
      "duration": 0.0039,
      "velocity": 81,
      "chip": "ym2612"
    },
    {
      "channel": 0,
      "note": 52,
      "start": 60.0366,
      "duration": 0.652,
      "velocity": 81,
      "chip": "ym2612"
    },
    {
      "channel": 1,
      "note": 74,
      "start": 60.0369,
      "duration": 0.7939,
      "velocity": 99,
      "chip": "ym2612"
    },
    {
      "channel": 2,
      "note": 52,
      "start": 60.0371,
      "duration": 0.7939,
      "velocity": 99,
      "chip": "ym2612"
    },
    {
      "channel": 3,
      "note": 43,
      "start": 60.0374,
      "duration": 0.7938,
      "velocity": 99,
      "chip": "ym2612"
    },
    {
      "channel": 4,
      "note": 67,
      "start": 60.0376,
      "duration": 0.7939,
      "velocity": 99,
      "chip": "ym2612"
    },
    {
      "channel": 0,
      "note": 64,
      "start": 60.7415,
      "duration": 0.0029,
      "velocity": 81,
      "chip": "ym2612"
    },
    {
      "channel": 0,
      "note": 52,
      "start": 60.7483,
      "duration": 0.0517,
      "velocity": 81,
      "chip": "ym2612"
    },
    {
      "channel": 0,
      "note": 52,
      "start": 60.8003,
      "duration": 0.0028,
      "velocity": 81,
      "chip": "ym2612"
    },
    {
      "channel": 0,
      "note": 64,
      "start": 60.8274,
      "duration": 0.0031,
      "velocity": 81,
      "chip": "ym2612"
    },
    {
      "channel": 0,
      "note": 52,
      "start": 60.8308,
      "duration": 0.6523,
      "velocity": 81,
      "chip": "ym2612"
    },
    {
      "channel": 1,
      "note": 71,
      "start": 60.831,
      "duration": 1.5285,
      "velocity": 99,
      "chip": "ym2612"
    },
    {
      "channel": 2,
      "note": 49,
      "start": 60.8312,
      "duration": 1.5286,
      "velocity": 99,
      "chip": "ym2612"
    },
    {
      "channel": 3,
      "note": 40,
      "start": 60.8314,
      "duration": 1.5286,
      "velocity": 99,
      "chip": "ym2612"
    },
    {
      "channel": 4,
      "note": 64,
      "start": 60.8316,
      "duration": 1.5287,
      "velocity": 99,
      "chip": "ym2612"
    },
    {
      "channel": 0,
      "note": 64,
      "start": 61.536,
      "duration": 0.0031,
      "velocity": 81,
      "chip": "ym2612"
    },
    {
      "channel": 0,
      "note": 52,
      "start": 61.5429,
      "duration": 0.0519,
      "velocity": 81,
      "chip": "ym2612"
    },
    {
      "channel": 0,
      "note": 52,
      "start": 61.595,
      "duration": 0.0513,
      "velocity": 81,
      "chip": "ym2612"
    },
    {
      "channel": 0,
      "note": 64,
      "start": 62.3077,
      "duration": 0.0515,
      "velocity": 81,
      "chip": "ym2612"
    },
    {
      "channel": 0,
      "note": 52,
      "start": 62.3594,
      "duration": 0.0139,
      "velocity": 81,
      "chip": "ym2612"
    },
    {
      "channel": 1,
      "note": 74,
      "start": 62.3597,
      "duration": 0.1768,
      "velocity": 94,
      "chip": "ym2612"
    },
    {
      "channel": 2,
      "note": 52,
      "start": 62.3599,
      "duration": 0.1769,
      "velocity": 99,
      "chip": "ym2612"
    },
    {
      "channel": 3,
      "note": 43,
      "start": 62.3602,
      "duration": 0.1769,
      "velocity": 99,
      "chip": "ym2612"
    },
    {
      "channel": 4,
      "note": 67,
      "start": 62.3604,
      "duration": 0.1781,
      "velocity": 94,
      "chip": "ym2612"
    },
    {
      "channel": 0,
      "note": 64,
      "start": 62.4002,
      "duration": 0.0036,
      "velocity": 81,
      "chip": "ym2612"
    },
    {
      "channel": 0,
      "note": 52,
      "start": 62.408,
      "duration": 0.0036,
      "velocity": 81,
      "chip": "ym2612"
    },
    {
      "channel": 0,
      "note": 52,
      "start": 62.4118,
      "duration": 0.0028,
      "velocity": 81,
      "chip": "ym2612"
    },
    {
      "channel": 0,
      "note": 64,
      "start": 62.4824,
      "duration": 0.0527,
      "velocity": 81,
      "chip": "ym2612"
    },
    {
      "channel": 0,
      "note": 55,
      "start": 62.5353,
      "duration": 0.3992,
      "velocity": 81,
      "chip": "ym2612"
    },
    {
      "channel": 0,
      "note": 55,
      "start": 62.9347,
      "duration": 0.2,
      "velocity": 81,
      "chip": "ym2612"
    },
    {
      "channel": 0,
      "note": 55,
      "start": 63.135,
      "duration": 0.2,
      "velocity": 81,
      "chip": "ym2612"
    },
    {
      "channel": 0,
      "note": 55,
      "start": 63.5355,
      "duration": 0.2,
      "velocity": 81,
      "chip": "ym2612"
    },
    {
      "channel": 0,
      "note": 53,
      "start": 63.936,
      "duration": 0.2,
      "velocity": 81,
      "chip": "ym2612"
    },
    {
      "channel": 0,
      "note": 50,
      "start": 64.1363,
      "duration": 0.2,
      "velocity": 81,
      "chip": "ym2612"
    },
    {
      "channel": 0,
      "note": 50,
      "start": 64.3366,
      "duration": 0.2,
      "velocity": 81,
      "chip": "ym2612"
    },
    {
      "channel": 0,
      "note": 53,
      "start": 64.5368,
      "duration": 0.2,
      "velocity": 81,
      "chip": "ym2612"
    },
    {
      "channel": 0,
      "note": 53,
      "start": 64.7371,
      "duration": 0.2,
      "velocity": 81,
      "chip": "ym2612"
    },
    {
      "channel": 0,
      "note": 57,
      "start": 64.9373,
      "duration": 0.2,
      "velocity": 81,
      "chip": "ym2612"
    },
    {
      "channel": 0,
      "note": 57,
      "start": 65.1376,
      "duration": 0.2,
      "velocity": 81,
      "chip": "ym2612"
    },
    {
      "channel": 0,
      "note": 55,
      "start": 65.3378,
      "duration": 0.2,
      "velocity": 81,
      "chip": "ym2612"
    },
    {
      "channel": 1,
      "note": 69,
      "start": 65.3382,
      "duration": 0.0997,
      "velocity": 94,
      "chip": "ym2612"
    },
    {
      "channel": 1,
      "note": 70,
      "start": 65.4381,
      "duration": 0.1,
      "velocity": 94,
      "chip": "ym2612"
    },
    {
      "channel": 0,
      "note": 55,
      "start": 65.5381,
      "duration": 0.2,
      "velocity": 81,
      "chip": "ym2612"
    },
    {
      "channel": 1,
      "note": 74,
      "start": 65.5384,
      "duration": 0.0997,
      "velocity": 94,
      "chip": "ym2612"
    },
    {
      "channel": 4,
      "note": 69,
      "start": 65.6054,
      "duration": 0.0998,
      "velocity": 94,
      "chip": "ym2612"
    },
    {
      "channel": 1,
      "note": 76,
      "start": 65.6384,
      "duration": 2.503,
      "velocity": 94,
      "chip": "ym2612"
    },
    {
      "channel": 4,
      "note": 70,
      "start": 65.7054,
      "duration": 0.0998,
      "velocity": 94,
      "chip": "ym2612"
    },
    {
      "channel": 0,
      "note": 58,
      "start": 65.7384,
      "duration": 0.2,
      "velocity": 81,
      "chip": "ym2612"
    },
    {
      "channel": 4,
      "note": 74,
      "start": 65.8055,
      "duration": 0.0999,
      "velocity": 94,
      "chip": "ym2612"
    },
    {
      "channel": 4,
      "note": 76,
      "start": 65.9057,
      "duration": 2.5031,
      "velocity": 94,
      "chip": "ym2612"
    },
    {
      "channel": 0,
      "note": 58,
      "start": 65.9386,
      "duration": 0.2,
      "velocity": 81,
      "chip": "ym2612"
    },
    {
      "channel": 0,
      "note": 60,
      "start": 66.1389,
      "duration": 0.2,
      "velocity": 81,
      "chip": "ym2612"
    },
    {
      "channel": 0,
      "note": 60,
      "start": 66.3391,
      "duration": 0.2,
      "velocity": 81,
      "chip": "ym2612"
    },
    {
      "channel": 2,
      "note": 72,
      "start": 67.3418,
      "duration": 0.0987,
      "velocity": 20,
      "chip": "ym2612"
    },
    {
      "channel": 3,
      "note": 72,
      "start": 67.4087,
      "duration": 0.0988,
      "velocity": 20,
      "chip": "ym2612"
    },
    {
      "channel": 2,
      "note": 74,
      "start": 67.4408,
      "duration": 0.0999,
      "velocity": 20,
      "chip": "ym2612"
    },
    {
      "channel": 3,
      "note": 74,
      "start": 67.5077,
      "duration": 0.0999,
      "velocity": 20,
      "chip": "ym2612"
    },
    {
      "channel": 2,
      "note": 76,
      "start": 67.5409,
      "duration": 0.0999,
      "velocity": 20,
      "chip": "ym2612"
    },
    {
      "channel": 3,
      "note": 76,
      "start": 67.6078,
      "duration": 0.0999,
      "velocity": 20,
      "chip": "ym2612"
    },
    {
      "channel": 2,
      "note": 77,
      "start": 67.641,
      "duration": 0.0999,
      "velocity": 20,
      "chip": "ym2612"
    },
    {
      "channel": 3,
      "note": 77,
      "start": 67.708,
      "duration": 0.0999,
      "velocity": 20,
      "chip": "ym2612"
    },
    {
      "channel": 2,
      "note": 76,
      "start": 67.7412,
      "duration": 0.0999,
      "velocity": 20,
      "chip": "ym2612"
    },
    {
      "channel": 3,
      "note": 76,
      "start": 67.8081,
      "duration": 0.0999,
      "velocity": 20,
      "chip": "ym2612"
    },
    {
      "channel": 2,
      "note": 74,
      "start": 67.8413,
      "duration": 0.0999,
      "velocity": 20,
      "chip": "ym2612"
    },
    {
      "channel": 3,
      "note": 74,
      "start": 67.9082,
      "duration": 0.0999,
      "velocity": 20,
      "chip": "ym2612"
    },
    {
      "channel": 2,
      "note": 72,
      "start": 67.9414,
      "duration": 0.0999,
      "velocity": 20,
      "chip": "ym2612"
    },
    {
      "channel": 3,
      "note": 72,
      "start": 68.0083,
      "duration": 0.0999,
      "velocity": 20,
      "chip": "ym2612"
    },
    {
      "channel": 2,
      "note": 74,
      "start": 68.0415,
      "duration": 0.1,
      "velocity": 20,
      "chip": "ym2612"
    },
    {
      "channel": 3,
      "note": 74,
      "start": 68.1085,
      "duration": 0.0998,
      "velocity": 20,
      "chip": "ym2612"
    },
    {
      "channel": 2,
      "note": 76,
      "start": 68.1418,
      "duration": 0.0996,
      "velocity": 20,
      "chip": "ym2612"
    },
    {
      "channel": 3,
      "note": 76,
      "start": 68.2085,
      "duration": 0.0999,
      "velocity": 20,
      "chip": "ym2612"
    },
    {
      "channel": 2,
      "note": 77,
      "start": 68.2417,
      "duration": 0.0999,
      "velocity": 20,
      "chip": "ym2612"
    },
    {
      "channel": 3,
      "note": 77,
      "start": 68.3086,
      "duration": 0.0999,
      "velocity": 20,
      "chip": "ym2612"
    },
    {
      "channel": 2,
      "note": 76,
      "start": 68.3418,
      "duration": 0.0999,
      "velocity": 20,
      "chip": "ym2612"
    },
    {
      "channel": 3,
      "note": 76,
      "start": 68.4087,
      "duration": 0.0999,
      "velocity": 20,
      "chip": "ym2612"
    },
    {
      "channel": 2,
      "note": 74,
      "start": 68.442,
      "duration": 0.0999,
      "velocity": 20,
      "chip": "ym2612"
    },
    {
      "channel": 3,
      "note": 74,
      "start": 68.5089,
      "duration": 0.0999,
      "velocity": 20,
      "chip": "ym2612"
    },
    {
      "channel": 2,
      "note": 72,
      "start": 68.5421,
      "duration": 0.0999,
      "velocity": 20,
      "chip": "ym2612"
    },
    {
      "channel": 3,
      "note": 72,
      "start": 68.609,
      "duration": 0.0999,
      "velocity": 20,
      "chip": "ym2612"
    },
    {
      "channel": 2,
      "note": 74,
      "start": 68.6422,
      "duration": 0.1001,
      "velocity": 20,
      "chip": "ym2612"
    },
    {
      "channel": 3,
      "note": 74,
      "start": 68.7091,
      "duration": 0.1,
      "velocity": 20,
      "chip": "ym2612"
    },
    {
      "channel": 1,
      "note": 77,
      "start": 68.7423,
      "duration": 0.2003,
      "velocity": 94,
      "chip": "ym2612"
    },
    {
      "channel": 2,
      "note": 76,
      "start": 68.7426,
      "duration": 0.0997,
      "velocity": 20,
      "chip": "ym2612"
    },
    {
      "channel": 3,
      "note": 76,
      "start": 68.8093,
      "duration": 0.0999,
      "velocity": 20,
      "chip": "ym2612"
    },
    {
      "channel": 2,
      "note": 77,
      "start": 68.8426,
      "duration": 0.1004,
      "velocity": 20,
      "chip": "ym2612"
    },
    {
      "channel": 3,
      "note": 77,
      "start": 68.9095,
      "duration": 0.1,
      "velocity": 20,
      "chip": "ym2612"
    },
    {
      "channel": 0,
      "note": 55,
      "start": 68.9426,
      "duration": 0.4002,
      "velocity": 81,
      "chip": "ym2612"
    },
    {
      "channel": 1,
      "note": 76,
      "start": 68.9429,
      "duration": 79.4487,
      "velocity": 94,
      "chip": "ym2612"
    },
    {
      "channel": 2,
      "note": 76,
      "start": 68.9432,
      "duration": 0.0995,
      "velocity": 20,
      "chip": "ym2612"
    },
    {
      "channel": 3,
      "note": 76,
      "start": 69.0097,
      "duration": 0.0999,
      "velocity": 20,
      "chip": "ym2612"
    },
    {
      "channel": 4,
      "note": 77,
      "start": 69.01,
      "duration": 0.1998,
      "velocity": 94,
      "chip": "ym2612"
    },
    {
      "channel": 2,
      "note": 74,
      "start": 69.0429,
      "duration": 0.0999,
      "velocity": 20,
      "chip": "ym2612"
    },
    {
      "channel": 3,
      "note": 74,
      "start": 69.1098,
      "duration": 0.0998,
      "velocity": 20,
      "chip": "ym2612"
    },
    {
      "channel": 4,
      "note": 76,
      "start": 69.2101,
      "duration": 79.1815,
      "velocity": 94,
      "chip": "ym2612"
    },
    {
      "channel": 0,
      "note": 55,
      "start": 69.343,
      "duration": 0.2,
      "velocity": 81,
      "chip": "ym2612"
    },
    {
      "channel": 0,
      "note": 55,
      "start": 69.5433,
      "duration": 0.2,
      "velocity": 81,
      "chip": "ym2612"
    }
  ]
}