{
  "track_name": "09 - Your Army Turn (Part 1 - Variation 2)",
  "duration_sec": 90.519,
  "sample_rate": 44100,
  "note_count": 1793,
  "unique_pitches": 36,
  "pitch_range": 56,
  "avg_note_duration": 0.083,
  "reconstruction_stats": {
    "notes_reconstructed": 1793,
    "keyon_events": 1793,
    "keyoff_events": 1792,
    "orphan_keyons": 1,
    "unique_pitches": 36,
    "pitch_range": 56,
    "avg_duration_sec": 0.083
  },
  "metadata": {
    "source": "T\\The Hybrid Front\\09 - Your Army Turn (Part 1 - Variation 2).vgz"
  },
  "notes": [
    {
      "channel": 1,
      "note": 54,
      "start": 0.3448,
      "duration": 0.0621,
      "velocity": 104,
      "chip": "ym2612"
    },
    {
      "channel": 1,
      "note": 56,
      "start": 0.4074,
      "duration": 0.1673,
      "velocity": 104,
      "chip": "ym2612"
    },
    {
      "channel": 2,
      "note": 68,
      "start": 0.4081,
      "duration": 0.0163,
      "velocity": 102,
      "chip": "ym2612"
    },
    {
      "channel": 2,
      "note": 66,
      "start": 0.4582,
      "duration": 0.0828,
      "velocity": 102,
      "chip": "ym2612"
    },
    {
      "channel": 1,
      "note": 56,
      "start": 0.575,
      "duration": 0.0175,
      "velocity": 104,
      "chip": "ym2612"
    },
    {
      "channel": 2,
      "note": 63,
      "start": 0.5757,
      "duration": 0.0126,
      "velocity": 102,
      "chip": "ym2612"
    },
    {
      "channel": 2,
      "note": 66,
      "start": 0.5934,
      "duration": 0.0112,
      "velocity": 102,
      "chip": "ym2612"
    },
    {
      "channel": 2,
      "note": 66,
      "start": 0.6476,
      "duration": 0.0827,
      "velocity": 102,
      "chip": "ym2612"
    },
    {
      "channel": 0,
      "note": 52,
      "start": 0.7641,
      "duration": 0.0327,
      "velocity": 98,
      "chip": "ym2612"
    },
    {
      "channel": 0,
      "note": 54,
      "start": 0.7975,
      "duration": 0.0327,
      "velocity": 98,
      "chip": "ym2612"
    },
    {
      "channel": 0,
      "note": 59,
      "start": 0.8308,
      "duration": 0.0327,
      "velocity": 98,
      "chip": "ym2612"
    },
    {
      "channel": 0,
      "note": 61,
      "start": 0.8641,
      "duration": 0.016,
      "velocity": 98,
      "chip": "ym2612"
    },
    {
      "channel": 0,
      "note": 63,
      "start": 0.8808,
      "duration": 0.0327,
      "velocity": 98,
      "chip": "ym2612"
    },
    {
      "channel": 2,
      "note": 66,
      "start": 0.8816,
      "duration": 0.0823,
      "velocity": 102,
      "chip": "ym2612"
    },
    {
      "channel": 0,
      "note": 66,
      "start": 0.9141,
      "duration": 0.016,
      "velocity": 98,
      "chip": "ym2612"
    },
    {
      "channel": 0,
      "note": 71,
      "start": 0.9308,
      "duration": 0.0494,
      "velocity": 98,
      "chip": "ym2612"
    },
    {
      "channel": 0,
      "note": 73,
      "start": 0.9808,
      "duration": 0.0165,
      "velocity": 98,
      "chip": "ym2612"
    },
    {
      "channel": 0,
      "note": 75,
      "start": 0.998,
      "duration": 0.0505,
      "velocity": 98,
      "chip": "ym2612"
    },
    {
      "channel": 1,
      "note": 59,
      "start": 0.9987,
      "duration": 0.0501,
      "velocity": 104,
      "chip": "ym2612"
    },
    {
      "channel": 2,
      "note": 68,
      "start": 0.9994,
      "duration": 0.0175,
      "velocity": 102,
      "chip": "ym2612"
    },
    {
      "channel": 3,
      "note": 71,
      "start": 1.0002,
      "duration": 0.0497,
      "velocity": 98,
      "chip": "ym2612"
    },
    {
      "channel": 4,
      "note": 68,
      "start": 1.0009,
      "duration": 0.0493,
      "velocity": 98,
      "chip": "ym2612"
    },
    {
      "channel": 2,
      "note": 66,
      "start": 1.0497,
      "duration": 0.0161,
      "velocity": 102,
      "chip": "ym2612"
    },
    {
      "channel": 0,
      "note": 77,
      "start": 1.1151,
      "duration": 0.0499,
      "velocity": 98,
      "chip": "ym2612"
    },
    {
      "channel": 2,
      "note": 66,
      "start": 1.1159,
      "duration": 0.0162,
      "velocity": 102,
      "chip": "ym2612"
    },
    {
      "channel": 3,
      "note": 73,
      "start": 1.1166,
      "duration": 0.0497,
      "velocity": 98,
      "chip": "ym2612"
    },
    {
      "channel": 4,
      "note": 70,
      "start": 1.1174,
      "duration": 0.0492,
      "velocity": 98,
      "chip": "ym2612"
    },
    {
      "channel": 1,
      "note": 59,
      "start": 1.1658,
      "duration": 0.1159,
      "velocity": 104,
      "chip": "ym2612"
    },
    {
      "channel": 1,
      "note": 61,
      "start": 1.2823,
      "duration": 0.1177,
      "velocity": 104,
      "chip": "ym2612"
    },
    {
      "channel": 2,
      "note": 71,
      "start": 1.2829,
      "duration": 0.0824,
      "velocity": 102,
      "chip": "ym2612"
    },
    {
      "channel": 0,
      "note": 78,
      "start": 1.3999,
      "duration": 0.8353,
      "velocity": 98,
      "chip": "ym2612"
    },
    {
      "channel": 1,
      "note": 54,
      "start": 1.4005,
      "duration": 0.0499,
      "velocity": 104,
      "chip": "ym2612"
    },
    {
      "channel": 3,
      "note": 75,
      "start": 1.402,
      "duration": 0.8354,
      "velocity": 98,
      "chip": "ym2612"
    },
    {
      "channel": 4,
      "note": 71,
      "start": 1.4031,
      "duration": 0.8351,
      "velocity": 98,
      "chip": "ym2612"
    },
    {
      "channel": 1,
      "note": 56,
      "start": 1.4509,
      "duration": 0.1017,
      "velocity": 104,
      "chip": "ym2612"
    },
    {
      "channel": 2,
      "note": 68,
      "start": 1.4516,
      "duration": 0.0166,
      "velocity": 102,
      "chip": "ym2612"
    },
    {
      "channel": 2,
      "note": 66,
      "start": 1.5024,
      "duration": 0.0167,
      "velocity": 102,
      "chip": "ym2612"
    },
    {
      "channel": 1,
      "note": 56,
      "start": 1.5531,
      "duration": 0.0202,
      "velocity": 104,
      "chip": "ym2612"
    },
    {
      "channel": 2,
      "note": 63,
      "start": 1.5537,
      "duration": 0.0163,
      "velocity": 102,
      "chip": "ym2612"
    },
    {
      "channel": 2,
      "note": 66,
      "start": 1.5952,
      "duration": 0.0163,
      "velocity": 102,
      "chip": "ym2612"
    },
    {
      "channel": 2,
      "note": 73,
      "start": 1.619,
      "duration": 0.0173,
      "velocity": 102,
      "chip": "ym2612"
    },
    {
      "channel": 1,
      "note": 56,
      "start": 1.6443,
      "duration": 0.0501,
      "velocity": 104,
      "chip": "ym2612"
    },
    {
      "channel": 2,
      "note": 71,
      "start": 1.6449,
      "duration": 0.0188,
      "velocity": 102,
      "chip": "ym2612"
    },
    {
      "channel": 1,
      "note": 54,
      "start": 1.8121,
      "duration": 0.0501,
      "velocity": 104,
      "chip": "ym2612"
    },
    {
      "channel": 2,
      "note": 70,
      "start": 1.8128,
      "duration": 0.0188,
      "velocity": 102,
      "chip": "ym2612"
    },
    {
      "channel": 1,
      "note": 56,
      "start": 1.9633,
      "duration": 0.0507,
      "velocity": 104,
      "chip": "ym2612"
    },
    {
      "channel": 2,
      "note": 71,
      "start": 1.9639,
      "duration": 0.0186,
      "velocity": 102,
      "chip": "ym2612"
    },
    {
      "channel": 2,
      "note": 70,
      "start": 2.0405,
      "duration": 0.0177,
      "velocity": 102,
      "chip": "ym2612"
    },
    {
      "channel": 1,
      "note": 66,
      "start": 2.091,
      "duration": 0.1167,
      "velocity": 104,
      "chip": "ym2612"
    },
    {
      "channel": 1,
      "note": 68,
      "start": 2.2082,
      "duration": 0.0275,
      "velocity": 104,
      "chip": "ym2612"
    },
    {
      "channel": 2,
      "note": 66,
      "start": 2.2089,
      "duration": 0.019,
      "velocity": 102,
      "chip": "ym2612"
    },
    {
      "channel": 1,
      "note": 59,
      "start": 2.2362,
      "duration": 0.0494,
      "velocity": 104,
      "chip": "ym2612"
    },
    {
      "channel": 1,
      "note": 61,
      "start": 2.2861,
      "duration": 0.1506,
      "velocity": 104,
      "chip": "ym2612"
    },
    {
      "channel": 2,
      "note": 68,
      "start": 2.2868,
      "duration": 0.0163,
      "velocity": 102,
      "chip": "ym2612"
    },
    {
      "channel": 2,
      "note": 66,
      "start": 2.3203,
      "duration": 0.0828,
      "velocity": 102,
      "chip": "ym2612"
    },
    {
      "channel": 1,
      "note": 61,
      "start": 2.4372,
      "duration": 0.0176,
      "velocity": 104,
      "chip": "ym2612"
    },
    {
      "channel": 2,
      "note": 63,
      "start": 2.4379,
      "duration": 0.0124,
      "velocity": 102,
      "chip": "ym2612"
    },
    {
      "channel": 2,
      "note": 66,
      "start": 2.4556,
      "duration": 0.0111,
      "velocity": 102,
      "chip": "ym2612"
    },
    {
      "channel": 2,
      "note": 66,
      "start": 2.5264,
      "duration": 0.0827,
      "velocity": 102,
      "chip": "ym2612"
    },
    {
      "channel": 0,
      "note": 52,
      "start": 2.643,
      "duration": 0.0327,
      "velocity": 98,
      "chip": "ym2612"
    },
    {
      "channel": 0,
      "note": 54,
      "start": 2.6763,
      "duration": 0.016,
      "velocity": 98,
      "chip": "ym2612"
    },
    {
      "channel": 0,
      "note": 59,
      "start": 2.693,
      "duration": 0.0327,
      "velocity": 98,
      "chip": "ym2612"
    },
    {
      "channel": 0,
      "note": 61,
      "start": 2.7263,
      "duration": 0.016,
      "velocity": 98,
      "chip": "ym2612"
    },
    {
      "channel": 0,
      "note": 63,
      "start": 2.743,
      "duration": 0.0494,
      "velocity": 98,
      "chip": "ym2612"
    },
    {
      "channel": 2,
      "note": 66,
      "start": 2.7437,
      "duration": 0.0823,
      "velocity": 102,
      "chip": "ym2612"
    },
    {
      "channel": 0,
      "note": 66,
      "start": 2.793,
      "duration": 0.016,
      "velocity": 98,
      "chip": "ym2612"
    },
    {
      "channel": 0,
      "note": 71,
      "start": 2.8096,
      "duration": 0.0327,
      "velocity": 98,
      "chip": "ym2612"
    },
    {
      "channel": 0,
      "note": 73,
      "start": 2.843,
      "duration": 0.0165,
      "velocity": 98,
      "chip": "ym2612"
    },
    {
      "channel": 0,
      "note": 75,
      "start": 2.8601,
      "duration": 0.0505,
      "velocity": 98,
      "chip": "ym2612"
    },
    {
      "channel": 1,
      "note": 65,
      "start": 2.8608,
      "duration": 0.0502,
      "velocity": 104,
      "chip": "ym2612"
    },
    {
      "channel": 2,
      "note": 68,
      "start": 2.8615,
      "duration": 0.0173,
      "velocity": 102,
      "chip": "ym2612"
    },
    {
      "channel": 3,
      "note": 71,
      "start": 2.8623,
      "duration": 0.0501,
      "velocity": 98,
      "chip": "ym2612"
    },
    {
      "channel": 4,
      "note": 68,
      "start": 2.8631,
      "duration": 0.0497,
      "velocity": 98,
      "chip": "ym2612"
    },
    {
      "channel": 1,
      "note": 66,
      "start": 2.9116,
      "duration": 0.0503,
      "velocity": 104,
      "chip": "ym2612"
    },
    {
      "channel": 2,
      "note": 66,
      "start": 2.9123,
      "duration": 0.016,
      "velocity": 102,
      "chip": "ym2612"
    },
    {
      "channel": 0,
      "note": 77,
      "start": 2.9781,
      "duration": 0.05,
      "velocity": 98,
      "chip": "ym2612"
    },
    {
      "channel": 2,
      "note": 66,
      "start": 2.9788,
      "duration": 0.0164,
      "velocity": 102,
      "chip": "ym2612"
    },
    {
      "channel": 3,
      "note": 73,
      "start": 2.9797,
      "duration": 0.0497,
      "velocity": 98,
      "chip": "ym2612"
    },
    {
      "channel": 4,
      "note": 70,
      "start": 2.9804,
      "duration": 0.0493,
      "velocity": 98,
      "chip": "ym2612"
    },
    {
      "channel": 1,
      "note": 59,
      "start": 3.0289,
      "duration": 0.1159,
      "velocity": 104,
      "chip": "ym2612"
    },
    {
      "channel": 1,
      "note": 56,
      "start": 3.1453,
      "duration": 0.1011,
      "velocity": 104,
      "chip": "ym2612"
    },
    {
      "channel": 2,
      "note": 71,
      "start": 3.146,
      "duration": 0.0824,
      "velocity": 102,
      "chip": "ym2612"
    },
    {
      "channel": 0,
      "note": 78,
      "start": 3.2463,
      "duration": 0.8354,
      "velocity": 98,
      "chip": "ym2612"
    },
    {
      "channel": 1,
      "note": 59,
      "start": 3.247,
      "duration": 0.0498,
      "velocity": 104,
      "chip": "ym2612"
    },
    {
      "channel": 3,
      "note": 75,
      "start": 3.2484,
      "duration": 0.8355,
      "velocity": 98,
      "chip": "ym2612"
    },
    {
      "channel": 4,
      "note": 71,
      "start": 3.2495,
      "duration": 0.8352,
      "velocity": 98,
      "chip": "ym2612"
    },
    {
      "channel": 1,
      "note": 61,
      "start": 3.2973,
      "duration": 0.1017,
      "velocity": 104,
      "chip": "ym2612"
    },
    {
      "channel": 2,
      "note": 68,
      "start": 3.298,
      "duration": 0.0163,
      "velocity": 102,
      "chip": "ym2612"
    },
    {
      "channel": 2,
      "note": 66,
      "start": 3.3488,
      "duration": 0.0167,
      "velocity": 102,
      "chip": "ym2612"
    },
    {
      "channel": 1,
      "note": 61,
      "start": 3.3994,
      "duration": 0.0233,
      "velocity": 104,
      "chip": "ym2612"
    },
    {
      "channel": 2,
      "note": 63,
      "start": 3.4001,
      "duration": 0.0162,
      "velocity": 102,
      "chip": "ym2612"
    },
    {
      "channel": 2,
      "note": 66,
      "start": 3.4447,
      "duration": 0.0168,
      "velocity": 102,
      "chip": "ym2612"
    },
    {
      "channel": 2,
      "note": 73,
      "start": 3.4689,
      "duration": 0.0173,
      "velocity": 102,
      "chip": "ym2612"
    },
    {
      "channel": 1,
      "note": 61,
      "start": 3.4908,
      "duration": 0.05,
      "velocity": 104,
      "chip": "ym2612"
    },
    {
      "channel": 2,
      "note": 71,
      "start": 3.4914,
      "duration": 0.0188,
      "velocity": 102,
      "chip": "ym2612"
    },
    {
      "channel": 1,
      "note": 59,
      "start": 3.6585,
      "duration": 0.0501,
      "velocity": 104,
      "chip": "ym2612"
    },
    {
      "channel": 2,
      "note": 70,
      "start": 3.6592,
      "duration": 0.0188,
      "velocity": 102,
      "chip": "ym2612"
    },
    {
      "channel": 1,
      "note": 61,
      "start": 3.8264,
      "duration": 0.0506,
      "velocity": 104,
      "chip": "ym2612"
    },
    {
      "channel": 2,
      "note": 71,
      "start": 3.8271,
      "duration": 0.0188,
      "velocity": 102,
      "chip": "ym2612"
    },
    {
      "channel": 2,
      "note": 70,
      "start": 3.9036,
      "duration": 0.0177,
      "velocity": 102,
      "chip": "ym2612"
    },
    {
      "channel": 1,
      "note": 59,
      "start": 3.9375,
      "duration": 0.1167,
      "velocity": 104,
      "chip": "ym2612"
    },
    {
      "channel": 1,
      "note": 61,
      "start": 4.0547,
      "duration": 0.0275,
      "velocity": 104,
      "chip": "ym2612"
    },
    {
      "channel": 2,
      "note": 66,
      "start": 4.0554,
      "duration": 0.0188,
      "velocity": 102,
      "chip": "ym2612"
    },
    {
      "channel": 1,
      "note": 54,
      "start": 4.0827,
      "duration": 0.0494,
      "velocity": 104,
      "chip": "ym2612"
    },
    {
      "channel": 1,
      "note": 56,
      "start": 4.1326,
      "duration": 0.1673,
      "velocity": 104,
      "chip": "ym2612"
    },
    {
      "channel": 2,
      "note": 68,
      "start": 4.1333,
      "duration": 0.0163,
      "velocity": 102,
      "chip": "ym2612"
    },
    {
      "channel": 2,
      "note": 66,
      "start": 4.1835,
      "duration": 0.0829,
      "velocity": 102,
      "chip": "ym2612"
    },
    {
      "channel": 1,
      "note": 56,
      "start": 4.3003,
      "duration": 0.0176,
      "velocity": 104,
      "chip": "ym2612"
    },
    {
      "channel": 2,
      "note": 63,
      "start": 4.301,
      "duration": 0.0126,
      "velocity": 102,
      "chip": "ym2612"
    },
    {
      "channel": 2,
      "note": 66,
      "start": 4.3186,
      "duration": 0.0112,
      "velocity": 102,
      "chip": "ym2612"
    },
    {
      "channel": 2,
      "note": 66,
      "start": 4.3727,
      "duration": 0.0827,
      "velocity": 102,
      "chip": "ym2612"
    },
    {
      "channel": 0,
      "note": 52,
      "start": 4.4893,
      "duration": 0.0327,
      "velocity": 98,
      "chip": "ym2612"
    },
    {
      "channel": 0,
      "note": 54,
      "start": 4.5227,
      "duration": 0.016,
      "velocity": 98,
      "chip": "ym2612"
    },
    {
      "channel": 0,
      "note": 59,
      "start": 4.5393,
      "duration": 0.0494,
      "velocity": 98,
      "chip": "ym2612"
    },
    {
      "channel": 0,
      "note": 61,
      "start": 4.5893,
      "duration": 0.016,
      "velocity": 98,
      "chip": "ym2612"
    },
    {
      "channel": 0,
      "note": 63,
      "start": 4.606,
      "duration": 0.0327,
      "velocity": 98,
      "chip": "ym2612"
    },
    {
      "channel": 2,
      "note": 66,
      "start": 4.6067,
      "duration": 0.0824,
      "velocity": 102,
      "chip": "ym2612"
    },
    {
      "channel": 0,
      "note": 66,
      "start": 4.6393,
      "duration": 0.016,
      "velocity": 98,
      "chip": "ym2612"
    },
    {
      "channel": 0,
      "note": 71,
      "start": 4.656,
      "duration": 0.0494,
      "velocity": 98,
      "chip": "ym2612"
    },
    {
      "channel": 0,
      "note": 73,
      "start": 4.706,
      "duration": 0.0165,
      "velocity": 98,
      "chip": "ym2612"
    },
    {
      "channel": 0,
      "note": 75,
      "start": 4.7232,
      "duration": 0.0505,
      "velocity": 98,
      "chip": "ym2612"
    },
    {
      "channel": 1,
      "note": 59,
      "start": 4.7239,
      "duration": 0.0502,
      "velocity": 104,
      "chip": "ym2612"
    },
    {
      "channel": 2,
      "note": 68,
      "start": 4.7246,
      "duration": 0.0174,
      "velocity": 102,
      "chip": "ym2612"
    },
    {
      "channel": 3,
      "note": 71,
      "start": 4.7253,
      "duration": 0.0497,
      "velocity": 98,
      "chip": "ym2612"
    },
    {
      "channel": 4,
      "note": 68,
      "start": 4.7261,
      "duration": 0.0493,
      "velocity": 98,
      "chip": "ym2612"
    },
    {
      "channel": 2,
      "note": 66,
      "start": 4.7749,
      "duration": 0.0161,
      "velocity": 102,
      "chip": "ym2612"
    },
    {
      "channel": 0,
      "note": 77,
      "start": 4.8244,
      "duration": 0.0499,
      "velocity": 98,
      "chip": "ym2612"
    },
    {
      "channel": 2,
      "note": 66,
      "start": 4.8252,
      "duration": 0.0162,
      "velocity": 102,
      "chip": "ym2612"
    },
    {
      "channel": 3,
      "note": 73,
      "start": 4.826,
      "duration": 0.0496,
      "velocity": 98,
      "chip": "ym2612"
    },
    {
      "channel": 4,
      "note": 70,
      "start": 4.8267,
      "duration": 0.0492,
      "velocity": 98,
      "chip": "ym2612"
    },
    {
      "channel": 1,
      "note": 59,
      "start": 4.8751,
      "duration": 0.1159,
      "velocity": 104,
      "chip": "ym2612"
    },
    {
      "channel": 1,
      "note": 61,
      "start": 4.9916,
      "duration": 0.1177,
      "velocity": 104,
      "chip": "ym2612"
    },
    {
      "channel": 2,
      "note": 71,
      "start": 4.9923,
      "duration": 0.0824,
      "velocity": 102,
      "chip": "ym2612"
    },
    {
      "channel": 0,
      "note": 78,
      "start": 5.1092,
      "duration": 0.8202,
      "velocity": 98,
      "chip": "ym2612"
    },
    {
      "channel": 1,
      "note": 54,
      "start": 5.1098,
      "duration": 0.0498,
      "velocity": 104,
      "chip": "ym2612"
    },
    {
      "channel": 3,
      "note": 75,
      "start": 5.1113,
      "duration": 0.8203,
      "velocity": 98,
      "chip": "ym2612"
    },
    {
      "channel": 4,
      "note": 71,
      "start": 5.1124,
      "duration": 0.8201,
      "velocity": 98,
      "chip": "ym2612"
    },
    {
      "channel": 1,
      "note": 56,
      "start": 5.1602,
      "duration": 0.085,
      "velocity": 104,
      "chip": "ym2612"
    },
    {
      "channel": 2,
      "note": 68,
      "start": 5.1609,
      "duration": 0.0165,
      "velocity": 102,
      "chip": "ym2612"
    },
    {
      "channel": 2,
      "note": 66,
      "start": 5.2117,
      "duration": 0.0167,
      "velocity": 102,
      "chip": "ym2612"
    },
    {
      "channel": 1,
      "note": 56,
      "start": 5.2457,
      "duration": 0.0234,
      "velocity": 104,
      "chip": "ym2612"
    },
    {
      "channel": 2,
      "note": 63,
      "start": 5.2463,
      "duration": 0.0163,
      "velocity": 102,
      "chip": "ym2612"
    },
    {
      "channel": 2,
      "note": 66,
      "start": 5.291,
      "duration": 0.0163,
      "velocity": 102,
      "chip": "ym2612"
    },
    {
      "channel": 2,
      "note": 73,
      "start": 5.3148,
      "duration": 0.0172,
      "velocity": 102,
      "chip": "ym2612"
    },
    {
      "channel": 1,
      "note": 56,
      "start": 5.34,
      "duration": 0.0501,
      "velocity": 104,
      "chip": "ym2612"
    },
    {
      "channel": 2,
      "note": 71,
      "start": 5.3407,
      "duration": 0.019,
      "velocity": 102,
      "chip": "ym2612"
    },
    {
      "channel": 1,
      "note": 54,
      "start": 5.5078,
      "duration": 0.0334,
      "velocity": 104,
      "chip": "ym2612"
    },
    {
      "channel": 2,
      "note": 70,
      "start": 5.5085,
      "duration": 0.0188,
      "velocity": 102,
      "chip": "ym2612"
    },
    {
      "channel": 1,
      "note": 56,
      "start": 5.659,
      "duration": 0.0507,
      "velocity": 104,
      "chip": "ym2612"
    },
    {
      "channel": 2,
      "note": 71,
      "start": 5.6597,
      "duration": 0.0186,
      "velocity": 102,
      "chip": "ym2612"
    },
    {
      "channel": 2,
      "note": 70,
      "start": 5.7347,
      "duration": 0.0177,
      "velocity": 102,
      "chip": "ym2612"
    },
    {
      "channel": 1,
      "note": 66,
      "start": 5.7852,
      "duration": 0.1167,
      "velocity": 104,
      "chip": "ym2612"
    },
    {
      "channel": 1,
      "note": 68,
      "start": 5.9024,
      "duration": 0.0275,
      "velocity": 104,
      "chip": "ym2612"
    },
    {
      "channel": 2,
      "note": 66,
      "start": 5.9031,
      "duration": 0.0189,
      "velocity": 102,
      "chip": "ym2612"
    },
    {
      "channel": 1,
      "note": 59,
      "start": 5.9305,
      "duration": 0.0327,
      "velocity": 104,
      "chip": "ym2612"
    },
    {
      "channel": 1,
      "note": 61,
      "start": 5.9637,
      "duration": 0.1673,
      "velocity": 104,
      "chip": "ym2612"
    },
    {
      "channel": 2,
      "note": 68,
      "start": 5.9644,
      "duration": 0.0163,
      "velocity": 102,
      "chip": "ym2612"
    },
    {
      "channel": 2,
      "note": 66,
      "start": 6.0145,
      "duration": 0.0828,
      "velocity": 102,
      "chip": "ym2612"
    },
    {
      "channel": 1,
      "note": 61,
      "start": 6.1315,
      "duration": 0.0176,
      "velocity": 104,
      "chip": "ym2612"
    },
    {
      "channel": 2,
      "note": 63,
      "start": 6.1322,
      "duration": 0.0124,
      "velocity": 102,
      "chip": "ym2612"
    },
    {
      "channel": 2,
      "note": 66,
      "start": 6.1499,
      "duration": 0.0111,
      "velocity": 102,
      "chip": "ym2612"
    },
    {
      "channel": 2,
      "note": 66,
      "start": 6.2206,
      "duration": 0.0827,
      "velocity": 102,
      "chip": "ym2612"
    },
    {
      "channel": 0,
      "note": 52,
      "start": 6.3206,
      "duration": 0.0494,
      "velocity": 98,
      "chip": "ym2612"
    },
    {
      "channel": 0,
      "note": 54,
      "start": 6.3706,
      "duration": 0.016,
      "velocity": 98,
      "chip": "ym2612"
    },
    {
      "channel": 0,
      "note": 59,
      "start": 6.3872,
      "duration": 0.0327,
      "velocity": 98,
      "chip": "ym2612"
    },
    {
      "channel": 0,
      "note": 61,
      "start": 6.4206,
      "duration": 0.016,
      "velocity": 98,
      "chip": "ym2612"
    },
    {
      "channel": 0,
      "note": 63,
      "start": 6.4372,
      "duration": 0.0494,
      "velocity": 98,
      "chip": "ym2612"
    },
    {
      "channel": 2,
      "note": 66,
      "start": 6.438,
      "duration": 0.0823,
      "velocity": 102,
      "chip": "ym2612"
    },
    {
      "channel": 0,
      "note": 66,
      "start": 6.4872,
      "duration": 0.016,
      "velocity": 98,
      "chip": "ym2612"
    },
    {
      "channel": 0,
      "note": 71,
      "start": 6.5039,
      "duration": 0.0327,
      "velocity": 98,
      "chip": "ym2612"
    },
    {
      "channel": 0,
      "note": 73,
      "start": 6.5372,
      "duration": 0.0165,
      "velocity": 98,
      "chip": "ym2612"
    },
    {
      "channel": 0,
      "note": 75,
      "start": 6.5544,
      "duration": 0.0505,
      "velocity": 98,
      "chip": "ym2612"
    },
    {
      "channel": 1,
      "note": 65,
      "start": 6.5551,
      "duration": 0.0502,
      "velocity": 104,
      "chip": "ym2612"
    },
    {
      "channel": 2,
      "note": 68,
      "start": 6.5558,
      "duration": 0.0173,
      "velocity": 102,
      "chip": "ym2612"
    },
    {
      "channel": 3,
      "note": 71,
      "start": 6.5566,
      "duration": 0.0501,
      "velocity": 98,
      "chip": "ym2612"
    },
    {
      "channel": 4,
      "note": 68,
      "start": 6.5573,
      "duration": 0.0497,
      "velocity": 98,
      "chip": "ym2612"
    },
    {
      "channel": 1,
      "note": 66,
      "start": 6.6058,
      "duration": 0.0504,
      "velocity": 104,
      "chip": "ym2612"
    },
    {
      "channel": 2,
      "note": 66,
      "start": 6.6065,
      "duration": 0.0161,
      "velocity": 102,
      "chip": "ym2612"
    },
    {
      "channel": 0,
      "note": 77,
      "start": 6.6724,
      "duration": 0.05,
      "velocity": 98,
      "chip": "ym2612"
    },
    {
      "channel": 2,
      "note": 66,
      "start": 6.6732,
      "duration": 0.0163,
      "velocity": 102,
      "chip": "ym2612"
    },
    {
      "channel": 3,
      "note": 73,
      "start": 6.674,
      "duration": 0.0497,
      "velocity": 98,
      "chip": "ym2612"
    },
    {
      "channel": 4,
      "note": 70,
      "start": 6.6748,
      "duration": 0.0493,
      "velocity": 98,
      "chip": "ym2612"
    },
    {
      "channel": 1,
      "note": 59,
      "start": 6.7233,
      "duration": 0.0993,
      "velocity": 104,
      "chip": "ym2612"
    },
    {
      "channel": 1,
      "note": 56,
      "start": 6.823,
      "duration": 0.1178,
      "velocity": 104,
      "chip": "ym2612"
    },
    {
      "channel": 2,
      "note": 71,
      "start": 6.8237,
      "duration": 0.0824,
      "velocity": 102,
      "chip": "ym2612"
    },
    {
      "channel": 0,
      "note": 78,
      "start": 6.9407,
      "duration": 0.6727,
      "velocity": 100,
      "chip": "ym2612"
    },
    {
      "channel": 1,
      "note": 59,
      "start": 6.9414,
      "duration": 0.0497,
      "velocity": 104,
      "chip": "ym2612"
    },
    {
      "channel": 3,
      "note": 75,
      "start": 6.9428,
      "duration": 0.6733,
      "velocity": 98,
      "chip": "ym2612"
    },
    {
      "channel": 4,
      "note": 71,
      "start": 6.9439,
      "duration": 0.673,
      "velocity": 98,
      "chip": "ym2612"
    },
    {
      "channel": 1,
      "note": 61,
      "start": 6.9916,
      "duration": 0.1018,
      "velocity": 104,
      "chip": "ym2612"
    },
    {
      "channel": 2,
      "note": 68,
      "start": 6.9923,
      "duration": 0.0164,
      "velocity": 102,
      "chip": "ym2612"
    },
    {
      "channel": 2,
      "note": 66,
      "start": 7.0432,
      "duration": 0.0167,
      "velocity": 102,
      "chip": "ym2612"
    },
    {
      "channel": 1,
      "note": 61,
      "start": 7.0939,
      "duration": 0.0234,
      "velocity": 104,
      "chip": "ym2612"
    },
    {
      "channel": 2,
      "note": 63,
      "start": 7.0945,
      "duration": 0.0165,
      "velocity": 102,
      "chip": "ym2612"
    },
    {
      "channel": 2,
      "note": 66,
      "start": 7.1391,
      "duration": 0.0166,
      "velocity": 102,
      "chip": "ym2612"
    },
    {
      "channel": 2,
      "note": 73,
      "start": 7.1605,
      "duration": 0.0177,
      "velocity": 102,
      "chip": "ym2612"
    },
    {
      "channel": 1,
      "note": 61,
      "start": 7.1863,
      "duration": 0.05,
      "velocity": 104,
      "chip": "ym2612"
    },
    {
      "channel": 2,
      "note": 71,
      "start": 7.1869,
      "duration": 0.0188,
      "velocity": 102,
      "chip": "ym2612"
    },
    {
      "channel": 1,
      "note": 65,
      "start": 7.354,
      "duration": 0.0272,
      "velocity": 104,
      "chip": "ym2612"
    },
    {
      "channel": 2,
      "note": 70,
      "start": 7.3547,
      "duration": 0.0188,
      "velocity": 102,
      "chip": "ym2612"
    },
    {
      "channel": 1,
      "note": 71,
      "start": 7.3818,
      "duration": 0.0506,
      "velocity": 104,
      "chip": "ym2612"
    },
    {
      "channel": 1,
      "note": 73,
      "start": 7.4329,
      "duration": 0.0506,
      "velocity": 104,
      "chip": "ym2612"
    },
    {
      "channel": 2,
      "note": 71,
      "start": 7.4336,
      "duration": 0.0187,
      "velocity": 102,
      "chip": "ym2612"
    },
    {
      "channel": 1,
      "note": 68,
      "start": 7.4841,
      "duration": 0.0222,
      "velocity": 104,
      "chip": "ym2612"
    },
    {
      "channel": 1,
      "note": 71,
      "start": 7.5068,
      "duration": 0.0273,
      "velocity": 104,
      "chip": "ym2612"
    },
    {
      "channel": 2,
      "note": 70,
      "start": 7.5074,
      "duration": 0.0189,
      "velocity": 102,
      "chip": "ym2612"
    },
    {
      "channel": 1,
      "note": 66,
      "start": 7.5346,
      "duration": 0.0254,
      "velocity": 104,
      "chip": "ym2612"
    },
    {
      "channel": 1,
      "note": 68,
      "start": 7.5606,
      "duration": 0.0538,
      "velocity": 104,
      "chip": "ym2612"
    },
    {
      "channel": 2,
      "note": 66,
      "start": 7.5612,
      "duration": 0.0188,
      "velocity": 102,
      "chip": "ym2612"
    },
    {
      "channel": 0,
      "note": 87,
      "start": 7.614,
      "duration": 0.098,
      "velocity": 100,
      "chip": "ym2612"
    },
    {
      "channel": 1,
      "note": 54,
      "start": 7.6149,
      "duration": 0.0468,
      "velocity": 104,
      "chip": "ym2612"
    },
    {
      "channel": 1,
      "note": 56,
      "start": 7.6622,
      "duration": 0.1678,
      "velocity": 104,
      "chip": "ym2612"
    },
    {
      "channel": 2,
      "note": 68,
      "start": 7.6629,
      "duration": 0.0176,
      "velocity": 102,
      "chip": "ym2612"
    },
    {
      "channel": 4,
      "note": 87,
      "start": 7.6722,
      "duration": 0.1656,
      "velocity": 100,
      "chip": "ym2612"
    },
    {
      "channel": 0,
      "note": 80,
      "start": 7.7126,
      "duration": 0.0327,
      "velocity": 100,
      "chip": "ym2612"
    },
    {
      "channel": 2,
      "note": 66,
      "start": 7.7136,
      "duration": 0.0824,
      "velocity": 102,
      "chip": "ym2612"
    },
    {
      "channel": 0,
      "note": 79,
      "start": 7.746,
      "duration": 0.0327,
      "velocity": 100,
      "chip": "ym2612"
    },
    {
      "channel": 0,
      "note": 78,
      "start": 7.7793,
      "duration": 0.0499,
      "velocity": 100,
      "chip": "ym2612"
    },
    {
      "channel": 0,
      "note": 75,
      "start": 7.8298,
      "duration": 0.0065,
      "velocity": 100,
      "chip": "ym2612"
    },
    {
      "channel": 1,
      "note": 56,
      "start": 7.8304,
      "duration": 0.0194,
      "velocity": 104,
      "chip": "ym2612"
    },
    {
      "channel": 2,
      "note": 63,
      "start": 7.8311,
      "duration": 0.016,
      "velocity": 102,
      "chip": "ym2612"
    },
    {
      "channel": 0,
      "note": 73,
      "start": 7.837,
      "duration": 0.0058,
      "velocity": 100,
      "chip": "ym2612"
    },
    {
      "channel": 4,
      "note": 80,
      "start": 7.8384,
      "duration": 0.0058,
      "velocity": 100,
      "chip": "ym2612"
    },
    {
      "channel": 0,
      "note": 71,
      "start": 7.8434,
      "duration": 0.0057,
      "velocity": 100,
      "chip": "ym2612"
    },
    {
      "channel": 4,
      "note": 79,
      "start": 7.8448,
      "duration": 0.0061,
      "velocity": 100,
      "chip": "ym2612"
    },
    {
      "channel": 0,
      "note": 68,
      "start": 7.8497,
      "duration": 0.012,
      "velocity": 100,
      "chip": "ym2612"
    },
    {
      "channel": 2,
      "note": 66,
      "start": 7.8506,
      "duration": 0.0137,
      "velocity": 102,
      "chip": "ym2612"
    },
    {
      "channel": 4,
      "note": 78,
      "start": 7.8515,
      "duration": 0.0079,
      "velocity": 100,
      "chip": "ym2612"
    },
    {
      "channel": 4,
      "note": 75,
      "start": 7.86,
      "duration": 0.0046,
      "velocity": 100,
      "chip": "ym2612"
    },
    {
      "channel": 4,
      "note": 73,
      "start": 7.8652,
      "duration": 0.0045,
      "velocity": 100,
      "chip": "ym2612"
    },
    {
      "channel": 4,
      "note": 71,
      "start": 7.8703,
      "duration": 0.0063,
      "velocity": 100,
      "chip": "ym2612"
    },
    {
      "channel": 4,
      "note": 68,
      "start": 7.8773,
      "duration": 0.0061,
      "velocity": 100,
      "chip": "ym2612"
    },
    {
      "channel": 2,
      "note": 66,
      "start": 7.902,
      "duration": 0.0827,
      "velocity": 102,
      "chip": "ym2612"
    },
    {
      "channel": 0,
      "note": 85,
      "start": 8.0186,
      "duration": 0.2332,
      "velocity": 100,
      "chip": "ym2612"
    },
    {
      "channel": 2,
      "note": 66,
      "start": 8.1356,
      "duration": 0.0828,
      "velocity": 102,
      "chip": "ym2612"
    },
    {
      "channel": 4,
      "note": 85,
      "start": 8.1694,
      "duration": 0.1275,
      "velocity": 100,
      "chip": "ym2612"
    },
    {
      "channel": 0,
      "note": 73,
      "start": 8.2524,
      "duration": 0.0068,
      "velocity": 100,
      "chip": "ym2612"
    },
    {
      "channel": 1,
      "note": 59,
      "start": 8.2532,
      "duration": 0.034,
      "velocity": 104,
      "chip": "ym2612"
    },
    {
      "channel": 2,
      "note": 68,
      "start": 8.2539,
      "duration": 0.0159,
      "velocity": 102,
      "chip": "ym2612"
    },
    {
      "channel": 0,
      "note": 72,
      "start": 8.2599,
      "duration": 0.0054,
      "velocity": 100,
      "chip": "ym2612"
    },
    {
      "channel": 0,
      "note": 71,
      "start": 8.266,
      "duration": 0.0203,
      "velocity": 100,
      "chip": "ym2612"
    },
    {
      "channel": 0,
      "note": 70,
      "start": 8.2869,
      "duration": 0.0088,
      "velocity": 100,
      "chip": "ym2612"
    },
    {
      "channel": 2,
      "note": 66,
      "start": 8.2879,
      "duration": 0.0165,
      "velocity": 102,
      "chip": "ym2612"
    },
    {
      "channel": 0,
      "note": 68,
      "start": 8.2964,
      "duration": 0.0072,
      "velocity": 100,
      "chip": "ym2612"
    },
    {
      "channel": 4,
      "note": 73,
      "start": 8.2976,
      "duration": 0.0071,
      "velocity": 100,
      "chip": "ym2612"
    },
    {
      "channel": 0,
      "note": 67,
      "start": 8.3042,
      "duration": 0.0332,
      "velocity": 100,
      "chip": "ym2612"
    },
    {
      "channel": 4,
      "note": 72,
      "start": 8.3053,
      "duration": 0.0334,
      "velocity": 100,
      "chip": "ym2612"
    },
    {
      "channel": 0,
      "note": 66,
      "start": 8.3381,
      "duration": 0.0111,
      "velocity": 100,
      "chip": "ym2612"
    },
    {
      "channel": 4,
      "note": 71,
      "start": 8.3393,
      "duration": 0.0076,
      "velocity": 100,
      "chip": "ym2612"
    },
    {
      "channel": 4,
      "note": 70,
      "start": 8.3475,
      "duration": 0.0042,
      "velocity": 100,
      "chip": "ym2612"
    },
    {
      "channel": 4,
      "note": 68,
      "start": 8.3524,
      "duration": 0.0051,
      "velocity": 100,
      "chip": "ym2612"
    },
    {
      "channel": 2,
      "note": 66,
      "start": 8.3572,
      "duration": 0.0166,
      "velocity": 102,
      "chip": "ym2612"
    },
    {
      "channel": 4,
      "note": 67,
      "start": 8.3581,
      "duration": 0.0051,
      "velocity": 100,
      "chip": "ym2612"
    },
    {
      "channel": 4,
      "note": 66,
      "start": 8.3638,
      "duration": 0.0271,
      "velocity": 100,
      "chip": "ym2612"
    },
    {
      "channel": 1,
      "note": 59,
      "start": 8.4077,
      "duration": 0.1161,
      "velocity": 104,
      "chip": "ym2612"
    },
    {
      "channel": 1,
      "note": 61,
      "start": 8.5244,
      "duration": 0.1177,
      "velocity": 104,
      "chip": "ym2612"
    },
    {
      "channel": 2,
      "note": 71,
      "start": 8.525,
      "duration": 0.0825,
      "velocity": 102,
      "chip": "ym2612"
    },
    {
      "channel": 0,
      "note": 83,
      "start": 8.6419,
      "duration": 0.0505,
      "velocity": 100,
      "chip": "ym2612"
    },
    {
      "channel": 1,
      "note": 54,
      "start": 8.6426,
      "duration": 0.0506,
      "velocity": 104,
      "chip": "ym2612"
    },
    {
      "channel": 0,
      "note": 85,
      "start": 8.693,
      "duration": 0.0334,
      "velocity": 100,
      "chip": "ym2612"
    },
    {
      "channel": 1,
      "note": 56,
      "start": 8.6937,
      "duration": 0.0847,
      "velocity": 104,
      "chip": "ym2612"
    },
    {
      "channel": 2,
      "note": 68,
      "start": 8.6944,
      "duration": 0.0155,
      "velocity": 102,
      "chip": "ym2612"
    },
    {
      "channel": 4,
      "note": 83,
      "start": 8.7014,
      "duration": 0.0364,
      "velocity": 100,
      "chip": "ym2612"
    },
    {
      "channel": 0,
      "note": 83,
      "start": 8.7271,
      "duration": 0.0505,
      "velocity": 100,
      "chip": "ym2612"
    },
    {
      "channel": 2,
      "note": 66,
      "start": 8.7281,
      "duration": 0.0163,
      "velocity": 102,
      "chip": "ym2612"
    },
    {
      "channel": 4,
      "note": 85,
      "start": 8.7384,
      "duration": 0.0503,
      "velocity": 100,
      "chip": "ym2612"
    },
    {
      "channel": 0,
      "note": 80,
      "start": 8.7782,
      "duration": 0.0208,
      "velocity": 100,
      "chip": "ym2612"
    },
    {
      "channel": 1,
      "note": 56,
      "start": 8.7788,
      "duration": 0.0206,
      "velocity": 104,
      "chip": "ym2612"
    },
    {
      "channel": 2,
      "note": 63,
      "start": 8.7795,
      "duration": 0.0147,
      "velocity": 102,
      "chip": "ym2612"
    },
    {
      "channel": 4,
      "note": 83,
      "start": 8.7893,
      "duration": 0.015,
      "velocity": 100,
      "chip": "ym2612"
    },
    {
      "channel": 4,
      "note": 80,
      "start": 8.805,
      "duration": 0.0158,
      "velocity": 100,
      "chip": "ym2612"
    },
    {
      "channel": 2,
      "note": 66,
      "start": 8.8157,
      "duration": 0.0112,
      "velocity": 102,
      "chip": "ym2612"
    },
    {
      "channel": 2,
      "note": 73,
      "start": 8.8315,
      "duration": 0.0105,
      "velocity": 102,
      "chip": "ym2612"
    },
    {
      "channel": 1,
      "note": 56,
      "start": 8.8676,
      "duration": 0.0501,
      "velocity": 104,
      "chip": "ym2612"
    },
    {
      "channel": 2,
      "note": 71,
      "start": 8.8683,
      "duration": 0.0163,
      "velocity": 102,
      "chip": "ym2612"
    },
    {
      "channel": 0,
      "note": 66,
      "start": 9.0187,
      "duration": 0.05,
      "velocity": 100,
      "chip": "ym2612"
    },
    {
      "channel": 1,
      "note": 54,
      "start": 9.0194,
      "duration": 0.05,
      "velocity": 104,
      "chip": "ym2612"
    },
    {
      "channel": 2,
      "note": 70,
      "start": 9.0201,
      "duration": 0.0159,
      "velocity": 102,
      "chip": "ym2612"
    },
    {
      "channel": 0,
      "note": 68,
      "start": 9.0693,
      "duration": 0.1165,
      "velocity": 100,
      "chip": "ym2612"
    },
    {
      "channel": 4,
      "note": 66,
      "start": 9.1199,
      "duration": 0.0742,
      "velocity": 100,
      "chip": "ym2612"
    },
    {
      "channel": 0,
      "note": 66,
      "start": 9.1865,
      "duration": 0.0505,
      "velocity": 100,
      "chip": "ym2612"
    },
    {
      "channel": 1,
      "note": 56,
      "start": 9.1872,
      "duration": 0.0505,
      "velocity": 104,
      "chip": "ym2612"
    },
    {
      "channel": 2,
      "note": 71,
      "start": 9.1879,
      "duration": 0.0159,
      "velocity": 102,
      "chip": "ym2612"
    },
    {
      "channel": 4,
      "note": 68,
      "start": 9.1947,
      "duration": 0.049,
      "velocity": 100,
      "chip": "ym2612"
    },
    {
      "channel": 0,
      "note": 68,
      "start": 9.2376,
      "duration": 0.0183,
      "velocity": 100,
      "chip": "ym2612"
    },
    {
      "channel": 4,
      "note": 66,
      "start": 9.2443,
      "duration": 0.019,
      "velocity": 100,
      "chip": "ym2612"
    },
    {
      "channel": 0,
      "note": 71,
      "start": 9.2566,
      "duration": 0.0499,
      "velocity": 100,
      "chip": "ym2612"
    },
    {
      "channel": 2,
      "note": 70,
      "start": 9.2574,
      "duration": 0.0163,
      "velocity": 102,
      "chip": "ym2612"
    },
    {
      "channel": 4,
      "note": 68,
      "start": 9.2639,
      "duration": 0.0764,
      "velocity": 100,
      "chip": "ym2612"
    },
    {
      "channel": 1,
      "note": 66,
      "start": 9.3073,
      "duration": 0.1171,
      "velocity": 104,
      "chip": "ym2612"
    },
    {
      "channel": 4,
      "note": 71,
      "start": 9.341,
      "duration": 0.091,
      "velocity": 100,
      "chip": "ym2612"
    },
    {
      "channel": 0,
      "note": 68,
      "start": 9.4243,
      "duration": 0.0183,
      "velocity": 100,
      "chip": "ym2612"
    },
    {
      "channel": 1,
      "note": 68,
      "start": 9.425,
      "duration": 0.0185,
      "velocity": 104,
      "chip": "ym2612"
    },
    {
      "channel": 2,
      "note": 66,
      "start": 9.4257,
      "duration": 0.0138,
      "velocity": 102,
      "chip": "ym2612"
    },
    {
      "channel": 0,
      "note": 66,
      "start": 9.4432,
      "duration": 0.012,
      "velocity": 100,
      "chip": "ym2612"
    },
    {
      "channel": 1,
      "note": 59,
      "start": 9.4441,
      "duration": 0.0502,
      "velocity": 104,
      "chip": "ym2612"
    },
    {
      "channel": 4,
      "note": 68,
      "start": 9.4536,
      "duration": 0.0512,
      "velocity": 100,
      "chip": "ym2612"
    },
    {
      "channel": 0,
      "note": 68,
      "start": 9.4559,
      "duration": 0.0376,
      "velocity": 100,
      "chip": "ym2612"
    },
    {
      "channel": 0,
      "note": 71,
      "start": 9.4941,
      "duration": 0.0129,
      "velocity": 100,
      "chip": "ym2612"
    },
    {
      "channel": 1,
      "note": 61,
      "start": 9.4948,
      "duration": 0.1673,
      "velocity": 104,
      "chip": "ym2612"
    },
    {
      "channel": 2,
      "note": 68,
      "start": 9.4955,
      "duration": 0.0159,
      "velocity": 102,
      "chip": "ym2612"
    },
    {
      "channel": 4,
      "note": 66,
      "start": 9.5055,
      "duration": 0.0229,
      "velocity": 100,
      "chip": "ym2612"
    },
    {
      "channel": 0,
      "note": 73,
      "start": 9.5077,
      "duration": 0.0364,
      "velocity": 100,
      "chip": "ym2612"
    },
    {
      "channel": 4,
      "note": 68,
      "start": 9.529,
      "duration": 0.0494,
      "velocity": 100,
      "chip": "ym2612"
    },
    {
      "channel": 0,
      "note": 75,
      "start": 9.5447,
      "duration": 0.066,
      "velocity": 100,
      "chip": "ym2612"
    },
    {
      "channel": 2,
      "note": 66,
      "start": 9.5456,
      "duration": 0.0824,
      "velocity": 102,
      "chip": "ym2612"
    },
    {
      "channel": 4,
      "note": 71,
      "start": 9.579,
      "duration": 0.066,
      "velocity": 100,
      "chip": "ym2612"
    },
    {
      "channel": 0,
      "note": 78,
      "start": 9.6114,
      "duration": 0.0499,
      "velocity": 100,
      "chip": "ym2612"
    },
    {
      "channel": 4,
      "note": 73,
      "start": 9.6457,
      "duration": 0.0238,
      "velocity": 100,
      "chip": "ym2612"
    },
    {
      "channel": 0,
      "note": 80,
      "start": 9.6619,
      "duration": 0.0099,
      "velocity": 100,
      "chip": "ym2612"
    },
    {
      "channel": 1,
      "note": 61,
      "start": 9.6626,
      "duration": 0.022,
      "velocity": 104,
      "chip": "ym2612"
    },
    {
      "channel": 2,
      "note": 63,
      "start": 9.6633,
      "duration": 0.0153,
      "velocity": 102,
      "chip": "ym2612"
    },
    {
      "channel": 4,
      "note": 75,
      "start": 9.6702,
      "duration": 0.0114,
      "velocity": 100,
      "chip": "ym2612"
    },
    {
      "channel": 0,
      "note": 83,
      "start": 9.6724,
      "duration": 0.0114,
      "velocity": 100,
      "chip": "ym2612"
    },
    {
      "channel": 4,
      "note": 78,
      "start": 9.6822,
      "duration": 0.0088,
      "velocity": 100,
      "chip": "ym2612"
    },
    {
      "channel": 0,
      "note": 92,
      "start": 9.6844,
      "duration": 0.0089,
      "velocity": 100,
      "chip": "ym2612"
    },
    {
      "channel": 2,
      "note": 66,
      "start": 9.6854,
      "duration": 0.013,
      "velocity": 102,
      "chip": "ym2612"
    },
    {
      "channel": 4,
      "note": 80,
      "start": 9.6916,
      "duration": 0.0093,
      "velocity": 100,
      "chip": "ym2612"
    },
    {
      "channel": 4,
      "note": 83,
      "start": 9.7016,
      "duration": 0.008,
      "velocity": 100,
      "chip": "ym2612"
    },
    {
      "channel": 0,
      "note": 92,
      "start": 9.7037,
      "duration": 0.0081,
      "velocity": 100,
      "chip": "ym2612"
    },
    {
      "channel": 4,
      "note": 92,
      "start": 9.7102,
      "duration": 0.0065,
      "velocity": 100,
      "chip": "ym2612"
    },
    {
      "channel": 4,
      "note": 92,
      "start": 9.7256,
      "duration": 0.0061,
      "velocity": 100,
      "chip": "ym2612"
    },
    {
      "channel": 2,
      "note": 66,
      "start": 9.7342,
      "duration": 0.0827,
      "velocity": 102,
      "chip": "ym2612"
    },
    {
      "channel": 0,
      "note": 92,
      "start": 9.8512,
      "duration": 0.0656,
      "velocity": 100,
      "chip": "ym2612"
    },
    {
      "channel": 0,
      "note": 92,
      "start": 9.9675,
      "duration": 0.066,
      "velocity": 100,
      "chip": "ym2612"
    },
    {
      "channel": 2,
      "note": 66,
      "start": 9.9683,
      "duration": 0.0821,
      "velocity": 102,
      "chip": "ym2612"
    },
    {
      "channel": 4,
      "note": 92,
      "start": 10.002,
      "duration": 0.0654,
      "velocity": 100,
      "chip": "ym2612"
    },
    {
      "channel": 1,
      "note": 65,
      "start": 10.0847,
      "duration": 0.0506,
      "velocity": 104,
      "chip": "ym2612"
    },
    {
      "channel": 2,
      "note": 68,
      "start": 10.0854,
      "duration": 0.0163,
      "velocity": 102,
      "chip": "ym2612"
    },
    {
      "channel": 4,
      "note": 92,
      "start": 10.0916,
      "duration": 0.0272,
      "velocity": 100,
      "chip": "ym2612"
    },
    {
      "channel": 1,
      "note": 66,
      "start": 10.1358,
      "duration": 0.0516,
      "velocity": 104,
      "chip": "ym2612"
    },
    {
      "channel": 2,
      "note": 66,
      "start": 10.1365,
      "duration": 0.0163,
      "velocity": 102,
      "chip": "ym2612"
    },
    {
      "channel": 0,
      "note": 92,
      "start": 10.1873,
      "duration": 0.0076,
      "velocity": 100,
      "chip": "ym2612"
    },
    {
      "channel": 0,
      "note": 92,
      "start": 10.2044,
      "duration": 0.0092,
      "velocity": 100,
      "chip": "ym2612"
    },
    {
      "channel": 2,
      "note": 66,
      "start": 10.2052,
      "duration": 0.0159,
      "velocity": 102,
      "chip": "ym2612"
    },
    {
      "channel": 4,
      "note": 92,
      "start": 10.212,
      "duration": 0.0094,
      "velocity": 100,
      "chip": "ym2612"
    },
    {
      "channel": 1,
      "note": 59,
      "start": 10.2383,
      "duration": 0.1161,
      "velocity": 104,
      "chip": "ym2612"
    },
    {
      "channel": 4,
      "note": 92,
      "start": 10.2888,
      "duration": 0.0493,
      "velocity": 100,
      "chip": "ym2612"
    },
    {
      "channel": 1,
      "note": 56,
      "start": 10.3549,
      "duration": 0.1199,
      "velocity": 104,
      "chip": "ym2612"
    },
    {
      "channel": 2,
      "note": 71,
      "start": 10.3556,
      "duration": 0.0824,
      "velocity": 102,
      "chip": "ym2612"
    },
    {
      "channel": 1,
      "note": 59,
      "start": 10.4753,
      "duration": 0.048,
      "velocity": 104,
      "chip": "ym2612"
    },
    {
      "channel": 0,
      "note": 66,
      "start": 10.5232,
      "duration": 0.0505,
      "velocity": 98,
      "chip": "ym2612"
    },
    {
      "channel": 1,
      "note": 61,
      "start": 10.5239,
      "duration": 0.1018,
      "velocity": 104,
      "chip": "ym2612"
    },
    {
      "channel": 2,
      "note": 68,
      "start": 10.5246,
      "duration": 0.0181,
      "velocity": 102,
      "chip": "ym2612"
    },
    {
      "channel": 3,
      "note": 78,
      "start": 10.5254,
      "duration": 0.0501,
      "velocity": 98,
      "chip": "ym2612"
    },
    {
      "channel": 0,
      "note": 68,
      "start": 10.5743,
      "duration": 0.0506,
      "velocity": 98,
      "chip": "ym2612"
    },
    {
      "channel": 2,
      "note": 66,
      "start": 10.5754,
      "duration": 0.0164,
      "velocity": 102,
      "chip": "ym2612"
    },
    {
      "channel": 3,
      "note": 80,
      "start": 10.5761,
      "duration": 0.0508,
      "velocity": 98,
      "chip": "ym2612"
    },
    {
      "channel": 0,
      "note": 63,
      "start": 10.6255,
      "duration": 0.0209,
      "velocity": 98,
      "chip": "ym2612"
    },
    {
      "channel": 1,
      "note": 61,
      "start": 10.6261,
      "duration": 0.0211,
      "velocity": 104,
      "chip": "ym2612"
    },
    {
      "channel": 2,
      "note": 63,
      "start": 10.6268,
      "duration": 0.0148,
      "velocity": 102,
      "chip": "ym2612"
    },
    {
      "channel": 3,
      "note": 75,
      "start": 10.6276,
      "duration": 0.0202,
      "velocity": 98,
      "chip": "ym2612"
    },
    {
      "channel": 0,
      "note": 66,
      "start": 10.6471,
      "duration": 0.015,
      "velocity": 98,
      "chip": "ym2612"
    },
    {
      "channel": 3,
      "note": 78,
      "start": 10.6485,
      "duration": 0.0151,
      "velocity": 98,
      "chip": "ym2612"
    },
    {
      "channel": 0,
      "note": 68,
      "start": 10.6627,
      "duration": 0.0186,
      "velocity": 98,
      "chip": "ym2612"
    },
    {
      "channel": 2,
      "note": 66,
      "start": 10.6634,
      "duration": 0.0133,
      "velocity": 102,
      "chip": "ym2612"
    },
    {
      "channel": 3,
      "note": 80,
      "start": 10.6642,
      "duration": 0.0181,
      "velocity": 98,
      "chip": "ym2612"
    },
    {
      "channel": 2,
      "note": 73,
      "start": 10.6822,
      "duration": 0.0108,
      "velocity": 102,
      "chip": "ym2612"
    },
    {
      "channel": 0,
      "note": 75,
      "start": 10.6983,
      "duration": 0.0501,
      "velocity": 98,
      "chip": "ym2612"
    },
    {
      "channel": 1,
      "note": 61,
      "start": 10.699,
      "duration": 0.0497,
      "velocity": 104,
      "chip": "ym2612"
    },
    {
      "channel": 2,
      "note": 71,
      "start": 10.6997,
      "duration": 0.0165,
      "velocity": 102,
      "chip": "ym2612"
    },
    {
      "channel": 3,
      "note": 71,
      "start": 10.7005,
      "duration": 0.0488,
      "velocity": 98,
      "chip": "ym2612"
    },
    {
      "channel": 4,
      "note": 68,
      "start": 10.7013,
      "duration": 0.0483,
      "velocity": 98,
      "chip": "ym2612"
    },
    {
      "channel": 0,
      "note": 73,
      "start": 10.8662,
      "duration": 0.05,
      "velocity": 98,
      "chip": "ym2612"
    },
    {
      "channel": 1,
      "note": 59,
      "start": 10.8669,
      "duration": 0.0496,
      "velocity": 104,
      "chip": "ym2612"
    },
    {
      "channel": 2,
      "note": 70,
      "start": 10.8676,
      "duration": 0.0164,
      "velocity": 102,
      "chip": "ym2612"
    },
    {
      "channel": 3,
      "note": 70,
      "start": 10.8683,
      "duration": 0.0487,
      "velocity": 98,
      "chip": "ym2612"
    },
    {
      "channel": 4,
      "note": 66,
      "start": 10.8692,
      "duration": 0.0482,
      "velocity": 98,
      "chip": "ym2612"
    },
    {
      "channel": 0,
      "note": 75,
      "start": 11.0339,
      "duration": 0.0341,
      "velocity": 98,
      "chip": "ym2612"
    },
    {
      "channel": 1,
      "note": 61,
      "start": 11.0346,
      "duration": 0.0342,
      "velocity": 104,
      "chip": "ym2612"
    },
    {
      "channel": 2,
      "note": 71,
      "start": 11.0354,
      "duration": 0.0162,
      "velocity": 102,
      "chip": "ym2612"
    },
    {
      "channel": 3,
      "note": 71,
      "start": 11.0361,
      "duration": 0.0334,
      "velocity": 98,
      "chip": "ym2612"
    },
    {
      "channel": 4,
      "note": 68,
      "start": 11.0369,
      "duration": 0.0329,
      "velocity": 98,
      "chip": "ym2612"
    },
    {
      "channel": 0,
      "note": 71,
      "start": 11.0687,
      "duration": 0.0078,
      "velocity": 98,
      "chip": "ym2612"
    },
    {
      "channel": 0,
      "note": 68,
      "start": 11.0771,
      "duration": 0.0019,
      "velocity": 98,
      "chip": "ym2612"
    },
    {
      "channel": 0,
      "note": 66,
      "start": 11.0796,
      "duration": 0.004,
      "velocity": 98,
      "chip": "ym2612"
    },
    {
      "channel": 0,
      "note": 63,
      "start": 11.0843,
      "duration": 0.0025,
      "velocity": 98,
      "chip": "ym2612"
    },
    {
      "channel": 0,
      "note": 61,
      "start": 11.0874,
      "duration": 0.0079,
      "velocity": 98,
      "chip": "ym2612"
    },
    {
      "channel": 2,
      "note": 70,
      "start": 11.0882,
      "duration": 0.0162,
      "velocity": 102,
      "chip": "ym2612"
    },
    {
      "channel": 0,
      "note": 59,
      "start": 11.0959,
      "duration": 0.0021,
      "velocity": 98,
      "chip": "ym2612"
    },
    {
      "channel": 0,
      "note": 56,
      "start": 11.0987,
      "duration": 0.022,
      "velocity": 98,
      "chip": "ym2612"
    },
    {
      "channel": 0,
      "note": 54,
      "start": 11.1213,
      "duration": 0.016,
      "velocity": 98,
      "chip": "ym2612"
    },
    {
      "channel": 0,
      "note": 51,
      "start": 11.138,
      "duration": 0.0327,
      "velocity": 98,
      "chip": "ym2612"
    },
    {
      "channel": 1,
      "note": 59,
      "start": 11.1386,
      "duration": 0.116,
      "velocity": 104,
      "chip": "ym2612"
    },
    {
      "channel": 1,
      "note": 61,
      "start": 11.2551,
      "duration": 0.0226,
      "velocity": 104,
      "chip": "ym2612"
    },
    {
      "channel": 2,
      "note": 66,
      "start": 11.2559,
      "duration": 0.012,
      "velocity": 102,
      "chip": "ym2612"
    },
    {
      "channel": 0,
      "note": 87,
      "start": 11.2774,
      "duration": 0.098,
      "velocity": 100,
      "chip": "ym2612"
    },
    {
      "channel": 1,
      "note": 54,
      "start": 11.2783,
      "duration": 0.0468,
      "velocity": 104,
      "chip": "ym2612"
    },
    {
      "channel": 1,
      "note": 56,
      "start": 11.3256,
      "duration": 0.1512,
      "velocity": 104,
      "chip": "ym2612"
    },
    {
      "channel": 2,
      "note": 68,
      "start": 11.3263,
      "duration": 0.0172,
      "velocity": 102,
      "chip": "ym2612"
    },
    {
      "channel": 4,
      "note": 87,
      "start": 11.3355,
      "duration": 0.152,
      "velocity": 100,
      "chip": "ym2612"
    },
    {
      "channel": 0,
      "note": 80,
      "start": 11.3761,
      "duration": 0.0327,
      "velocity": 100,
      "chip": "ym2612"
    },
    {
      "channel": 2,
      "note": 66,
      "start": 11.3771,
      "duration": 0.0824,
      "velocity": 102,
      "chip": "ym2612"
    },
    {
      "channel": 0,
      "note": 79,
      "start": 11.4095,
      "duration": 0.0327,
      "velocity": 100,
      "chip": "ym2612"
    },
    {
      "channel": 0,
      "note": 78,
      "start": 11.4428,
      "duration": 0.0332,
      "velocity": 100,
      "chip": "ym2612"
    },
    {
      "channel": 0,
      "note": 75,
      "start": 11.4766,
      "duration": 0.0094,
      "velocity": 100,
      "chip": "ym2612"
    },
    {
      "channel": 1,
      "note": 56,
      "start": 11.4772,
      "duration": 0.0222,
      "velocity": 104,
      "chip": "ym2612"
    },
    {
      "channel": 2,
      "note": 63,
      "start": 11.4779,
      "duration": 0.0156,
      "velocity": 102,
      "chip": "ym2612"
    },
    {
      "channel": 0,
      "note": 73,
      "start": 11.4867,
      "duration": 0.0058,
      "velocity": 100,
      "chip": "ym2612"
    },
    {
      "channel": 4,
      "note": 80,
      "start": 11.4881,
      "duration": 0.0056,
      "velocity": 100,
      "chip": "ym2612"
    },
    {
      "channel": 0,
      "note": 71,
      "start": 11.4931,
      "duration": 0.0056,
      "velocity": 100,
      "chip": "ym2612"
    },
    {
      "channel": 4,
      "note": 79,
      "start": 11.4944,
      "duration": 0.0061,
      "velocity": 100,
      "chip": "ym2612"
    },
    {
      "channel": 0,
      "note": 68,
      "start": 11.4993,
      "duration": 0.0119,
      "velocity": 100,
      "chip": "ym2612"
    },
    {
      "channel": 2,
      "note": 66,
      "start": 11.5002,
      "duration": 0.0136,
      "velocity": 102,
      "chip": "ym2612"
    },
    {
      "channel": 4,
      "note": 78,
      "start": 11.5011,
      "duration": 0.0078,
      "velocity": 100,
      "chip": "ym2612"
    },
    {
      "channel": 4,
      "note": 75,
      "start": 11.5096,
      "duration": 0.0045,
      "velocity": 100,
      "chip": "ym2612"
    },
    {
      "channel": 4,
      "note": 73,
      "start": 11.5148,
      "duration": 0.0044,
      "velocity": 100,
      "chip": "ym2612"
    },
    {
      "channel": 4,
      "note": 71,
      "start": 11.5198,
      "duration": 0.0043,
      "velocity": 100,
      "chip": "ym2612"
    },
    {
      "channel": 4,
      "note": 68,
      "start": 11.5248,
      "duration": 0.0083,
      "velocity": 100,
      "chip": "ym2612"
    },
    {
      "channel": 2,
      "note": 66,
      "start": 11.5656,
      "duration": 0.0829,
      "velocity": 102,
      "chip": "ym2612"
    },
    {
      "channel": 0,
      "note": 85,
      "start": 11.6822,
      "duration": 0.2165,
      "velocity": 100,
      "chip": "ym2612"
    },
    {
      "channel": 2,
      "note": 66,
      "start": 11.7991,
      "duration": 0.0828,
      "velocity": 102,
      "chip": "ym2612"
    },
    {
      "channel": 4,
      "note": 85,
      "start": 11.833,
      "duration": 0.1275,
      "velocity": 100,
      "chip": "ym2612"
    },
    {
      "channel": 0,
      "note": 73,
      "start": 11.8993,
      "duration": 0.0097,
      "velocity": 100,
      "chip": "ym2612"
    },
    {
      "channel": 1,
      "note": 59,
      "start": 11.9,
      "duration": 0.0506,
      "velocity": 104,
      "chip": "ym2612"
    },
    {
      "channel": 2,
      "note": 68,
      "start": 11.9007,
      "duration": 0.0163,
      "velocity": 102,
      "chip": "ym2612"
    },
    {
      "channel": 0,
      "note": 72,
      "start": 11.9097,
      "duration": 0.0063,
      "velocity": 100,
      "chip": "ym2612"
    },
    {
      "channel": 0,
      "note": 71,
      "start": 11.9166,
      "duration": 0.0332,
      "velocity": 100,
      "chip": "ym2612"
    },
    {
      "channel": 0,
      "note": 70,
      "start": 11.9504,
      "duration": 0.0088,
      "velocity": 100,
      "chip": "ym2612"
    },
    {
      "channel": 2,
      "note": 66,
      "start": 11.9514,
      "duration": 0.0165,
      "velocity": 102,
      "chip": "ym2612"
    },
    {
      "channel": 0,
      "note": 68,
      "start": 11.9599,
      "duration": 0.0072,
      "velocity": 100,
      "chip": "ym2612"
    },
    {
      "channel": 4,
      "note": 73,
      "start": 11.9611,
      "duration": 0.0071,
      "velocity": 100,
      "chip": "ym2612"
    },
    {
      "channel": 0,
      "note": 67,
      "start": 11.9677,
      "duration": 0.0332,
      "velocity": 100,
      "chip": "ym2612"
    },
    {
      "channel": 4,
      "note": 72,
      "start": 11.9688,
      "duration": 0.0334,
      "velocity": 100,
      "chip": "ym2612"
    },
    {
      "channel": 0,
      "note": 66,
      "start": 12.0015,
      "duration": 0.011,
      "velocity": 100,
      "chip": "ym2612"
    },
    {
      "channel": 4,
      "note": 71,
      "start": 12.0028,
      "duration": 0.0051,
      "velocity": 100,
      "chip": "ym2612"
    },
    {
      "channel": 4,
      "note": 70,
      "start": 12.0086,
      "duration": 0.0065,
      "velocity": 100,
      "chip": "ym2612"
    },
    {
      "channel": 4,
      "note": 68,
      "start": 12.0158,
      "duration": 0.0051,
      "velocity": 100,
      "chip": "ym2612"
    },
    {
      "channel": 2,
      "note": 66,
      "start": 12.0206,
      "duration": 0.0166,
      "velocity": 102,
      "chip": "ym2612"
    },
    {
      "channel": 4,
      "note": 67,
      "start": 12.0215,
      "duration": 0.0051,
      "velocity": 100,
      "chip": "ym2612"
    },
    {
      "channel": 4,
      "note": 66,
      "start": 12.0272,
      "duration": 0.027,
      "velocity": 100,
      "chip": "ym2612"
    },
    {
      "channel": 1,
      "note": 59,
      "start": 12.071,
      "duration": 0.1161,
      "velocity": 104,
      "chip": "ym2612"
    },
    {
      "channel": 1,
      "note": 61,
      "start": 12.1877,
      "duration": 0.1177,
      "velocity": 104,
      "chip": "ym2612"
    },
    {
      "channel": 2,
      "note": 71,
      "start": 12.1883,
      "duration": 0.0824,
      "velocity": 102,
      "chip": "ym2612"
    },
    {
      "channel": 0,
      "note": 83,
      "start": 12.3052,
      "duration": 0.0338,
      "velocity": 100,
      "chip": "ym2612"
    },
    {
      "channel": 1,
      "note": 54,
      "start": 12.3059,
      "duration": 0.0339,
      "velocity": 104,
      "chip": "ym2612"
    },
    {
      "channel": 0,
      "note": 85,
      "start": 12.3397,
      "duration": 0.0501,
      "velocity": 100,
      "chip": "ym2612"
    },
    {
      "channel": 1,
      "note": 56,
      "start": 12.3404,
      "duration": 0.1014,
      "velocity": 104,
      "chip": "ym2612"
    },
    {
      "channel": 2,
      "note": 68,
      "start": 12.341,
      "duration": 0.0156,
      "velocity": 102,
      "chip": "ym2612"
    },
    {
      "channel": 4,
      "note": 83,
      "start": 12.3507,
      "duration": 0.0504,
      "velocity": 100,
      "chip": "ym2612"
    },
    {
      "channel": 0,
      "note": 83,
      "start": 12.3905,
      "duration": 0.0505,
      "velocity": 100,
      "chip": "ym2612"
    },
    {
      "channel": 2,
      "note": 66,
      "start": 12.3915,
      "duration": 0.0163,
      "velocity": 102,
      "chip": "ym2612"
    },
    {
      "channel": 4,
      "note": 85,
      "start": 12.4018,
      "duration": 0.0474,
      "velocity": 100,
      "chip": "ym2612"
    },
    {
      "channel": 0,
      "note": 80,
      "start": 12.4416,
      "duration": 0.0209,
      "velocity": 100,
      "chip": "ym2612"
    },
    {
      "channel": 1,
      "note": 56,
      "start": 12.4422,
      "duration": 0.0206,
      "velocity": 104,
      "chip": "ym2612"
    },
    {
      "channel": 2,
      "note": 63,
      "start": 12.4429,
      "duration": 0.0148,
      "velocity": 102,
      "chip": "ym2612"
    },
    {
      "channel": 4,
      "note": 83,
      "start": 12.4498,
      "duration": 0.018,
      "velocity": 100,
      "chip": "ym2612"
    },
    {
      "channel": 4,
      "note": 80,
      "start": 12.4684,
      "duration": 0.0158,
      "velocity": 100,
      "chip": "ym2612"
    },
    {
      "channel": 2,
      "note": 66,
      "start": 12.4791,
      "duration": 0.0112,
      "velocity": 102,
      "chip": "ym2612"
    },
    {
      "channel": 2,
      "note": 73,
      "start": 12.4948,
      "duration": 0.0104,
      "velocity": 102,
      "chip": "ym2612"
    },
    {
      "channel": 1,
      "note": 56,
      "start": 12.5309,
      "duration": 0.0334,
      "velocity": 104,
      "chip": "ym2612"
    },
    {
      "channel": 2,
      "note": 71,
      "start": 12.5316,
      "duration": 0.0163,
      "velocity": 102,
      "chip": "ym2612"
    },
    {
      "channel": 0,
      "note": 66,
      "start": 12.6821,
      "duration": 0.05,
      "velocity": 100,
      "chip": "ym2612"
    },
    {
      "channel": 1,
      "note": 54,
      "start": 12.6828,
      "duration": 0.05,
      "velocity": 104,
      "chip": "ym2612"
    },
    {
      "channel": 2,
      "note": 70,
      "start": 12.6835,
      "duration": 0.0159,
      "velocity": 102,
      "chip": "ym2612"
    },
    {
      "channel": 0,
      "note": 68,
      "start": 12.7327,
      "duration": 0.1165,
      "velocity": 100,
      "chip": "ym2612"
    },
    {
      "channel": 4,
      "note": 66,
      "start": 12.7666,
      "duration": 0.0909,
      "velocity": 100,
      "chip": "ym2612"
    },
    {
      "channel": 0,
      "note": 66,
      "start": 12.8499,
      "duration": 0.0505,
      "velocity": 100,
      "chip": "ym2612"
    },
    {
      "channel": 1,
      "note": 56,
      "start": 12.8506,
      "duration": 0.0506,
      "velocity": 104,
      "chip": "ym2612"
    },
    {
      "channel": 2,
      "note": 71,
      "start": 12.8513,
      "duration": 0.0159,
      "velocity": 102,
      "chip": "ym2612"
    },
    {
      "channel": 4,
      "note": 68,
      "start": 12.8581,
      "duration": 0.049,
      "velocity": 100,
      "chip": "ym2612"
    },
    {
      "channel": 0,
      "note": 68,
      "start": 12.901,
      "duration": 0.0183,
      "velocity": 100,
      "chip": "ym2612"
    },
    {
      "channel": 4,
      "note": 66,
      "start": 12.9078,
      "duration": 0.0189,
      "velocity": 100,
      "chip": "ym2612"
    },
    {
      "channel": 0,
      "note": 71,
      "start": 12.92,
      "duration": 0.0499,
      "velocity": 100,
      "chip": "ym2612"
    },
    {
      "channel": 2,
      "note": 70,
      "start": 12.9208,
      "duration": 0.0161,
      "velocity": 102,
      "chip": "ym2612"
    },
    {
      "channel": 4,
      "note": 68,
      "start": 12.9273,
      "duration": 0.0764,
      "velocity": 100,
      "chip": "ym2612"
    },
    {
      "channel": 1,
      "note": 66,
      "start": 12.9707,
      "duration": 0.1005,
      "velocity": 104,
      "chip": "ym2612"
    },
    {
      "channel": 4,
      "note": 71,
      "start": 13.0044,
      "duration": 0.0772,
      "velocity": 100,
      "chip": "ym2612"
    },
    {
      "channel": 0,
      "note": 68,
      "start": 13.071,
      "duration": 0.022,
      "velocity": 100,
      "chip": "ym2612"
    },
    {
      "channel": 1,
      "note": 68,
      "start": 13.0717,
      "duration": 0.0223,
      "velocity": 104,
      "chip": "ym2612"
    },
    {
      "channel": 2,
      "note": 66,
      "start": 13.0724,
      "duration": 0.0141,
      "velocity": 102,
      "chip": "ym2612"
    },
    {
      "channel": 0,
      "note": 66,
      "start": 13.0937,
      "duration": 0.0121,
      "velocity": 100,
      "chip": "ym2612"
    },
    {
      "channel": 1,
      "note": 59,
      "start": 13.0946,
      "duration": 0.0502,
      "velocity": 104,
      "chip": "ym2612"
    },
    {
      "channel": 4,
      "note": 68,
      "start": 13.1042,
      "duration": 0.0483,
      "velocity": 100,
      "chip": "ym2612"
    },
    {
      "channel": 0,
      "note": 68,
      "start": 13.1064,
      "duration": 0.0376,
      "velocity": 100,
      "chip": "ym2612"
    },
    {
      "channel": 0,
      "note": 71,
      "start": 13.1446,
      "duration": 0.0131,
      "velocity": 100,
      "chip": "ym2612"
    },
    {
      "channel": 1,
      "note": 61,
      "start": 13.1453,
      "duration": 0.1673,
      "velocity": 104,
      "chip": "ym2612"
    },
    {
      "channel": 2,
      "note": 68,
      "start": 13.146,
      "duration": 0.0159,
      "velocity": 102,
      "chip": "ym2612"
    },
    {
      "channel": 4,
      "note": 66,
      "start": 13.1531,
      "duration": 0.0259,
      "velocity": 100,
      "chip": "ym2612"
    },
    {
      "channel": 0,
      "note": 73,
      "start": 13.1583,
      "duration": 0.0363,
      "velocity": 100,
      "chip": "ym2612"
    },
    {
      "channel": 4,
      "note": 68,
      "start": 13.1796,
      "duration": 0.0494,
      "velocity": 100,
      "chip": "ym2612"
    },
    {
      "channel": 0,
      "note": 75,
      "start": 13.1953,
      "duration": 0.0494,
      "velocity": 100,
      "chip": "ym2612"
    },
    {
      "channel": 2,
      "note": 66,
      "start": 13.1962,
      "duration": 0.0824,
      "velocity": 102,
      "chip": "ym2612"
    },
    {
      "channel": 4,
      "note": 71,
      "start": 13.2296,
      "duration": 0.066,
      "velocity": 100,
      "chip": "ym2612"
    },
    {
      "channel": 0,
      "note": 78,
      "start": 13.2453,
      "duration": 0.0665,
      "velocity": 100,
      "chip": "ym2612"
    },
    {
      "channel": 4,
      "note": 73,
      "start": 13.2963,
      "duration": 0.0239,
      "velocity": 100,
      "chip": "ym2612"
    },
    {
      "channel": 0,
      "note": 80,
      "start": 13.3124,
      "duration": 0.01,
      "velocity": 100,
      "chip": "ym2612"
    },
    {
      "channel": 1,
      "note": 61,
      "start": 13.3131,
      "duration": 0.0219,
      "velocity": 104,
      "chip": "ym2612"
    },
    {
      "channel": 2,
      "note": 63,
      "start": 13.3138,
      "duration": 0.0152,
      "velocity": 102,
      "chip": "ym2612"
    },
    {
      "channel": 4,
      "note": 75,
      "start": 13.3208,
      "duration": 0.0113,
      "velocity": 100,
      "chip": "ym2612"
    },
    {
      "channel": 0,
      "note": 83,
      "start": 13.323,
      "duration": 0.0113,
      "velocity": 100,
      "chip": "ym2612"
    },
    {
      "channel": 4,
      "note": 78,
      "start": 13.3327,
      "duration": 0.0088,
      "velocity": 100,
      "chip": "ym2612"
    },
    {
      "channel": 0,
      "note": 92,
      "start": 13.3349,
      "duration": 0.0089,
      "velocity": 100,
      "chip": "ym2612"
    },
    {
      "channel": 2,
      "note": 66,
      "start": 13.3359,
      "duration": 0.0129,
      "velocity": 102,
      "chip": "ym2612"
    },
    {
      "channel": 4,
      "note": 80,
      "start": 13.3421,
      "duration": 0.0069,
      "velocity": 100,
      "chip": "ym2612"
    },
    {
      "channel": 4,
      "note": 83,
      "start": 13.3497,
      "duration": 0.0105,
      "velocity": 100,
      "chip": "ym2612"
    },
    {
      "channel": 0,
      "note": 92,
      "start": 13.3543,
      "duration": 0.0081,
      "velocity": 100,
      "chip": "ym2612"
    },
    {
      "channel": 4,
      "note": 92,
      "start": 13.3607,
      "duration": 0.0065,
      "velocity": 100,
      "chip": "ym2612"
    },
    {
      "channel": 4,
      "note": 92,
      "start": 13.3761,
      "duration": 0.0061,
      "velocity": 100,
      "chip": "ym2612"
    },
    {
      "channel": 2,
      "note": 66,
      "start": 13.3848,
      "duration": 0.0827,
      "velocity": 102,
      "chip": "ym2612"
    },
    {
      "channel": 0,
      "note": 92,
      "start": 13.5018,
      "duration": 0.0656,
      "velocity": 100,
      "chip": "ym2612"
    },
    {
      "channel": 0,
      "note": 92,
      "start": 13.618,
      "duration": 0.0494,
      "velocity": 100,
      "chip": "ym2612"
    },
    {
      "channel": 2,
      "note": 66,
      "start": 13.6188,
      "duration": 0.0821,
      "velocity": 102,
      "chip": "ym2612"
    },
    {
      "channel": 4,
      "note": 92,
      "start": 13.6525,
      "duration": 0.0654,
      "velocity": 100,
      "chip": "ym2612"
    },
    {
      "channel": 1,
      "note": 65,
      "start": 13.7352,
      "duration": 0.0506,
      "velocity": 104,
      "chip": "ym2612"
    },
    {
      "channel": 2,
      "note": 68,
      "start": 13.7359,
      "duration": 0.0163,
      "velocity": 102,
      "chip": "ym2612"
    },
    {
      "channel": 4,
      "note": 92,
      "start": 13.7421,
      "duration": 0.0271,
      "velocity": 100,
      "chip": "ym2612"
    },
    {
      "channel": 1,
      "note": 66,
      "start": 13.7863,
      "duration": 0.0516,
      "velocity": 104,
      "chip": "ym2612"
    },
    {
      "channel": 2,
      "note": 66,
      "start": 13.787,
      "duration": 0.0163,
      "velocity": 102,
      "chip": "ym2612"
    },
    {
      "channel": 0,
      "note": 92,
      "start": 13.8378,
      "duration": 0.0076,
      "velocity": 100,
      "chip": "ym2612"
    },
    {
      "channel": 0,
      "note": 92,
      "start": 13.8524,
      "duration": 0.0116,
      "velocity": 100,
      "chip": "ym2612"
    },
    {
      "channel": 2,
      "note": 66,
      "start": 13.8532,
      "duration": 0.0159,
      "velocity": 102,
      "chip": "ym2612"
    },
    {
      "channel": 4,
      "note": 92,
      "start": 13.8623,
      "duration": 0.0237,
      "velocity": 100,
      "chip": "ym2612"
    },
    {
      "channel": 1,
      "note": 59,
      "start": 13.9029,
      "duration": 0.1161,
      "velocity": 104,
      "chip": "ym2612"
    },
    {
      "channel": 4,
      "note": 92,
      "start": 13.9534,
      "duration": 0.0493,
      "velocity": 100,
      "chip": "ym2612"
    },
    {
      "channel": 1,
      "note": 56,
      "start": 14.0195,
      "duration": 0.1199,
      "velocity": 104,
      "chip": "ym2612"
    },
    {
      "channel": 2,
      "note": 71,
      "start": 14.0202,
      "duration": 0.0824,
      "velocity": 102,
      "chip": "ym2612"
    },
    {
      "channel": 1,
      "note": 59,
      "start": 14.1399,
      "duration": 0.048,
      "velocity": 104,
      "chip": "ym2612"
    },
    {
      "channel": 0,
      "note": 66,
      "start": 14.1877,
      "duration": 0.0505,
      "velocity": 98,
      "chip": "ym2612"
    },
    {
      "channel": 1,
      "note": 61,
      "start": 14.1884,
      "duration": 0.1017,
      "velocity": 104,
      "chip": "ym2612"
    },
    {
      "channel": 2,
      "note": 68,
      "start": 14.1891,
      "duration": 0.0184,
      "velocity": 102,
      "chip": "ym2612"
    },
    {
      "channel": 3,
      "note": 78,
      "start": 14.1899,
      "duration": 0.0501,
      "velocity": 98,
      "chip": "ym2612"
    },
    {
      "channel": 0,
      "note": 68,
      "start": 14.2388,
      "duration": 0.0506,
      "velocity": 98,
      "chip": "ym2612"
    },
    {
      "channel": 2,
      "note": 66,
      "start": 14.2398,
      "duration": 0.0163,
      "velocity": 102,
      "chip": "ym2612"
    },
    {
      "channel": 3,
      "note": 80,
      "start": 14.2406,
      "duration": 0.0508,
      "velocity": 98,
      "chip": "ym2612"
    },
    {
      "channel": 0,
      "note": 63,
      "start": 14.29,
      "duration": 0.018,
      "velocity": 98,
      "chip": "ym2612"
    },
    {
      "channel": 1,
      "note": 61,
      "start": 14.2906,
      "duration": 0.0182,
      "velocity": 104,
      "chip": "ym2612"
    },
    {
      "channel": 2,
      "note": 63,
      "start": 14.2912,
      "duration": 0.0148,
      "velocity": 102,
      "chip": "ym2612"
    },
    {
      "channel": 3,
      "note": 75,
      "start": 14.2921,
      "duration": 0.0173,
      "velocity": 98,
      "chip": "ym2612"
    },
    {
      "channel": 0,
      "note": 66,
      "start": 14.3087,
      "duration": 0.0174,
      "velocity": 98,
      "chip": "ym2612"
    },
    {
      "channel": 3,
      "note": 78,
      "start": 14.3101,
      "duration": 0.0176,
      "velocity": 98,
      "chip": "ym2612"
    },
    {
      "channel": 0,
      "note": 68,
      "start": 14.3267,
      "duration": 0.0191,
      "velocity": 98,
      "chip": "ym2612"
    },
    {
      "channel": 2,
      "note": 66,
      "start": 14.3275,
      "duration": 0.0133,
      "velocity": 102,
      "chip": "ym2612"
    },
    {
      "channel": 3,
      "note": 80,
      "start": 14.3283,
      "duration": 0.0187,
      "velocity": 98,
      "chip": "ym2612"
    },
    {
      "channel": 2,
      "note": 73,
      "start": 14.3468,
      "duration": 0.0112,
      "velocity": 102,
      "chip": "ym2612"
    },
    {
      "channel": 0,
      "note": 75,
      "start": 14.3639,
      "duration": 0.05,
      "velocity": 98,
      "chip": "ym2612"
    },
    {
      "channel": 1,
      "note": 61,
      "start": 14.3646,
      "duration": 0.0496,
      "velocity": 104,
      "chip": "ym2612"
    },
    {
      "channel": 2,
      "note": 71,
      "start": 14.3653,
      "duration": 0.0165,
      "velocity": 102,
      "chip": "ym2612"
    },
    {
      "channel": 3,
      "note": 71,
      "start": 14.3661,
      "duration": 0.0487,
      "velocity": 98,
      "chip": "ym2612"
    },
    {
      "channel": 4,
      "note": 68,
      "start": 14.3669,
      "duration": 0.0482,
      "velocity": 98,
      "chip": "ym2612"
    },
    {
      "channel": 0,
      "note": 73,
      "start": 14.5317,
      "duration": 0.0236,
      "velocity": 98,
      "chip": "ym2612"
    },
    {
      "channel": 1,
      "note": 65,
      "start": 14.5324,
      "duration": 0.0232,
      "velocity": 104,
      "chip": "ym2612"
    },
    {
      "channel": 2,
      "note": 70,
      "start": 14.5331,
      "duration": 0.0164,
      "velocity": 102,
      "chip": "ym2612"
    },
    {
      "channel": 3,
      "note": 70,
      "start": 14.5339,
      "duration": 0.0227,
      "velocity": 98,
      "chip": "ym2612"
    },
    {
      "channel": 4,
      "note": 66,
      "start": 14.5347,
      "duration": 0.0222,
      "velocity": 98,
      "chip": "ym2612"
    },
    {
      "channel": 1,
      "note": 71,
      "start": 14.5561,
      "duration": 0.0343,
      "velocity": 104,
      "chip": "ym2612"
    },
    {
      "channel": 0,
      "note": 75,
      "start": 14.5903,
      "duration": 0.0509,
      "velocity": 98,
      "chip": "ym2612"
    },
    {
      "channel": 1,
      "note": 73,
      "start": 14.591,
      "duration": 0.051,
      "velocity": 104,
      "chip": "ym2612"
    },
    {
      "channel": 2,
      "note": 71,
      "start": 14.5917,
      "duration": 0.0163,
      "velocity": 102,
      "chip": "ym2612"
    },
    {
      "channel": 3,
      "note": 71,
      "start": 14.5925,
      "duration": 0.0505,
      "velocity": 98,
      "chip": "ym2612"
    },
    {
      "channel": 4,
      "note": 68,
      "start": 14.5933,
      "duration": 0.05,
      "velocity": 98,
      "chip": "ym2612"
    },
    {
      "channel": 0,
      "note": 71,
      "start": 14.6418,
      "duration": 0.0085,
      "velocity": 98,
      "chip": "ym2612"
    },
    {
      "channel": 1,
      "note": 68,
      "start": 14.6425,
      "duration": 0.0199,
      "velocity": 104,
      "chip": "ym2612"
    },
    {
      "channel": 0,
      "note": 68,
      "start": 14.651,
      "duration": 0.0021,
      "velocity": 98,
      "chip": "ym2612"
    },
    {
      "channel": 0,
      "note": 66,
      "start": 14.6537,
      "duration": 0.0045,
      "velocity": 98,
      "chip": "ym2612"
    },
    {
      "channel": 0,
      "note": 63,
      "start": 14.6588,
      "duration": 0.0029,
      "velocity": 98,
      "chip": "ym2612"
    },
    {
      "channel": 0,
      "note": 61,
      "start": 14.6623,
      "duration": 0.0063,
      "velocity": 98,
      "chip": "ym2612"
    },
    {
      "channel": 1,
      "note": 71,
      "start": 14.663,
      "duration": 0.0218,
      "velocity": 104,
      "chip": "ym2612"
    },
    {
      "channel": 2,
      "note": 70,
      "start": 14.6637,
      "duration": 0.0141,
      "velocity": 102,
      "chip": "ym2612"
    },
    {
      "channel": 0,
      "note": 59,
      "start": 14.6693,
      "duration": 0.0049,
      "velocity": 98,
      "chip": "ym2612"
    },
    {
      "channel": 0,
      "note": 56,
      "start": 14.6748,
      "duration": 0.0047,
      "velocity": 98,
      "chip": "ym2612"
    },
    {
      "channel": 0,
      "note": 54,
      "start": 14.6801,
      "duration": 0.0039,
      "velocity": 98,
      "chip": "ym2612"
    },
    {
      "channel": 0,
      "note": 51,
      "start": 14.6847,
      "duration": 0.0056,
      "velocity": 98,
      "chip": "ym2612"
    },
    {
      "channel": 1,
      "note": 66,
      "start": 14.6854,
      "duration": 0.0163,
      "velocity": 104,
      "chip": "ym2612"
    },
    {
      "channel": 1,
      "note": 68,
      "start": 14.7021,
      "duration": 0.0524,
      "velocity": 104,
      "chip": "ym2612"
    },
    {
      "channel": 2,
      "note": 66,
      "start": 14.7028,
      "duration": 0.0164,
      "velocity": 102,
      "chip": "ym2612"
    },
    {
      "channel": 1,
      "note": 54,
      "start": 14.7551,
      "duration": 0.0488,
      "velocity": 104,
      "chip": "ym2612"
    },
    {
      "channel": 1,
      "note": 56,
      "start": 14.8044,
      "duration": 0.1506,
      "velocity": 104,
      "chip": "ym2612"
    },
    {
      "channel": 2,
      "note": 68,
      "start": 14.8051,
      "duration": 0.0163,
      "velocity": 102,
      "chip": "ym2612"
    },
    {
      "channel": 2,
      "note": 66,
      "start": 14.8386,
      "duration": 0.0828,
      "velocity": 102,
      "chip": "ym2612"
    },
    {
      "channel": 1,
      "note": 56,
      "start": 14.9554,
      "duration": 0.0175,
      "velocity": 104,
      "chip": "ym2612"
    },
    {
      "channel": 2,
      "note": 63,
      "start": 14.9561,
      "duration": 0.0123,
      "velocity": 102,
      "chip": "ym2612"
    },
    {
      "channel": 2,
      "note": 66,
      "start": 14.9737,
      "duration": 0.011,
      "velocity": 102,
      "chip": "ym2612"
    },
    {
      "channel": 2,
      "note": 66,
      "start": 15.0446,
      "duration": 0.0827,
      "velocity": 102,
      "chip": "ym2612"
    },
    {
      "channel": 0,
      "note": 52,
      "start": 15.1612,
      "duration": 0.0327,
      "velocity": 98,
      "chip": "ym2612"
    },
    {
      "channel": 0,
      "note": 54,
      "start": 15.1946,
      "duration": 0.016,
      "velocity": 98,
      "chip": "ym2612"
    },
    {
      "channel": 0,
      "note": 59,
      "start": 15.2112,
      "duration": 0.0327,
      "velocity": 98,
      "chip": "ym2612"
    },
    {
      "channel": 0,
      "note": 61,
      "start": 15.2446,
      "duration": 0.016,
      "velocity": 98,
      "chip": "ym2612"
    },
    {
      "channel": 0,
      "note": 63,
      "start": 15.2612,
      "duration": 0.0494,
      "velocity": 98,
      "chip": "ym2612"
    },
    {
      "channel": 2,
      "note": 66,
      "start": 15.262,
      "duration": 0.0823,
      "velocity": 102,
      "chip": "ym2612"
    },
    {
      "channel": 0,
      "note": 66,
      "start": 15.3112,
      "duration": 0.016,
      "velocity": 98,
      "chip": "ym2612"
    },
    {
      "channel": 0,
      "note": 71,
      "start": 15.3279,
      "duration": 0.0327,
      "velocity": 98,
      "chip": "ym2612"
    },
    {
      "channel": 0,
      "note": 73,
      "start": 15.3612,
      "duration": 0.0165,
      "velocity": 98,
      "chip": "ym2612"
    },
    {
      "channel": 0,
      "note": 75,
      "start": 15.3784,
      "duration": 0.0505,
      "velocity": 98,
      "chip": "ym2612"
    },
    {
      "channel": 1,
      "note": 59,
      "start": 15.3791,
      "duration": 0.0502,
      "velocity": 104,
      "chip": "ym2612"
    },
    {
      "channel": 2,
      "note": 68,
      "start": 15.3798,
      "duration": 0.0173,
      "velocity": 102,
      "chip": "ym2612"
    },
    {
      "channel": 3,
      "note": 71,
      "start": 15.3806,
      "duration": 0.0497,
      "velocity": 98,
      "chip": "ym2612"
    },
    {
      "channel": 4,
      "note": 68,
      "start": 15.3813,
      "duration": 0.0493,
      "velocity": 98,
      "chip": "ym2612"
    },
    {
      "channel": 2,
      "note": 66,
      "start": 15.4301,
      "duration": 0.0161,
      "velocity": 102,
      "chip": "ym2612"
    },
    {
      "channel": 0,
      "note": 77,
      "start": 15.4963,
      "duration": 0.05,
      "velocity": 98,
      "chip": "ym2612"
    },
    {
      "channel": 2,
      "note": 66,
      "start": 15.497,
      "duration": 0.0164,
      "velocity": 102,
      "chip": "ym2612"
    },
    {
      "channel": 3,
      "note": 73,
      "start": 15.4978,
      "duration": 0.0497,
      "velocity": 98,
      "chip": "ym2612"
    },
    {
      "channel": 4,
      "note": 70,
      "start": 15.4986,
      "duration": 0.0493,
      "velocity": 98,
      "chip": "ym2612"
    },
    {
      "channel": 1,
      "note": 59,
      "start": 15.5471,
      "duration": 0.1159,
      "velocity": 104,
      "chip": "ym2612"
    },
    {
      "channel": 1,
      "note": 61,
      "start": 15.6636,
      "duration": 0.101,
      "velocity": 104,
      "chip": "ym2612"
    },
    {
      "channel": 2,
      "note": 71,
      "start": 15.6642,
      "duration": 0.0824,
      "velocity": 102,
      "chip": "ym2612"
    },
    {
      "channel": 0,
      "note": 78,
      "start": 15.7645,
      "duration": 0.8355,
      "velocity": 98,
      "chip": "ym2612"
    },
    {
      "channel": 1,
      "note": 54,
      "start": 15.7651,
      "duration": 0.0498,
      "velocity": 104,
      "chip": "ym2612"
    },
    {
      "channel": 3,
      "note": 75,
      "start": 15.7666,
      "duration": 0.8356,
      "velocity": 98,
      "chip": "ym2612"
    },
    {
      "channel": 4,
      "note": 71,
      "start": 15.7677,
      "duration": 0.8354,
      "velocity": 98,
      "chip": "ym2612"
    },
    {
      "channel": 1,
      "note": 56,
      "start": 15.8155,
      "duration": 0.1017,
      "velocity": 104,
      "chip": "ym2612"
    },
    {
      "channel": 2,
      "note": 68,
      "start": 15.8162,
      "duration": 0.0163,
      "velocity": 102,
      "chip": "ym2612"
    },
    {
      "channel": 2,
      "note": 66,
      "start": 15.867,
      "duration": 0.0167,
      "velocity": 102,
      "chip": "ym2612"
    },
    {
      "channel": 1,
      "note": 56,
      "start": 15.9176,
      "duration": 0.0233,
      "velocity": 104,
      "chip": "ym2612"
    },
    {
      "channel": 2,
      "note": 63,
      "start": 15.9183,
      "duration": 0.0162,
      "velocity": 102,
      "chip": "ym2612"
    },
    {
      "channel": 2,
      "note": 66,
      "start": 15.9629,
      "duration": 0.0168,
      "velocity": 102,
      "chip": "ym2612"
    },
    {
      "channel": 2,
      "note": 73,
      "start": 15.9871,
      "duration": 0.0173,
      "velocity": 102,
      "chip": "ym2612"
    },
    {
      "channel": 1,
      "note": 56,
      "start": 16.0089,
      "duration": 0.0501,
      "velocity": 104,
      "chip": "ym2612"
    },
    {
      "channel": 2,
      "note": 71,
      "start": 16.0096,
      "duration": 0.0188,
      "velocity": 102,
      "chip": "ym2612"
    },
    {
      "channel": 1,
      "note": 54,
      "start": 16.1768,
      "duration": 0.0501,
      "velocity": 104,
      "chip": "ym2612"
    },
    {
      "channel": 2,
      "note": 70,
      "start": 16.1774,
      "duration": 0.0187,
      "velocity": 102,
      "chip": "ym2612"
    },
    {
      "channel": 1,
      "note": 56,
      "start": 16.3446,
      "duration": 0.0506,
      "velocity": 104,
      "chip": "ym2612"
    },
    {
      "channel": 2,
      "note": 71,
      "start": 16.3453,
      "duration": 0.0188,
      "velocity": 102,
      "chip": "ym2612"
    },
    {
      "channel": 2,
      "note": 70,
      "start": 16.4219,
      "duration": 0.0178,
      "velocity": 102,
      "chip": "ym2612"
    },
    {
      "channel": 1,
      "note": 66,
      "start": 16.4558,
      "duration": 0.1167,
      "velocity": 104,
      "chip": "ym2612"
    },
    {
      "channel": 1,
      "note": 68,
      "start": 16.573,
      "duration": 0.0275,
      "velocity": 104,
      "chip": "ym2612"
    },
    {
      "channel": 2,
      "note": 66,
      "start": 16.5737,
      "duration": 0.0188,
      "velocity": 102,
      "chip": "ym2612"
    },
    {
      "channel": 1,
      "note": 59,
      "start": 16.601,
      "duration": 0.0495,
      "velocity": 104,
      "chip": "ym2612"
    },
    {
      "channel": 1,
      "note": 61,
      "start": 16.6509,
      "duration": 0.1673,
      "velocity": 104,
      "chip": "ym2612"
    },
    {
      "channel": 2,
      "note": 68,
      "start": 16.6516,
      "duration": 0.0163,
      "velocity": 102,
      "chip": "ym2612"
    },
    {
      "channel": 2,
      "note": 66,
      "start": 16.7018,
      "duration": 0.0829,
      "velocity": 102,
      "chip": "ym2612"
    },
    {
      "channel": 1,
      "note": 61,
      "start": 16.8187,
      "duration": 0.0177,
      "velocity": 104,
      "chip": "ym2612"
    },
    {
      "channel": 2,
      "note": 63,
      "start": 16.8194,
      "duration": 0.0127,
      "velocity": 102,
      "chip": "ym2612"
    },
    {
      "channel": 2,
      "note": 66,
      "start": 16.8373,
      "duration": 0.0112,
      "velocity": 102,
      "chip": "ym2612"
    },
    {
      "channel": 2,
      "note": 66,
      "start": 16.8911,
      "duration": 0.0827,
      "velocity": 102,
      "chip": "ym2612"
    },
    {
      "channel": 0,
      "note": 52,
      "start": 17.0077,
      "duration": 0.0327,
      "velocity": 98,
      "chip": "ym2612"
    },
    {
      "channel": 0,
      "note": 54,
      "start": 17.0411,
      "duration": 0.016,
      "velocity": 98,
      "chip": "ym2612"
    },
    {
      "channel": 0,
      "note": 59,
      "start": 17.0577,
      "duration": 0.0494,
      "velocity": 98,
      "chip": "ym2612"
    },
    {
      "channel": 0,
      "note": 61,
      "start": 17.1077,
      "duration": 0.016,
      "velocity": 98,
      "chip": "ym2612"
    },
    {
      "channel": 0,
      "note": 63,
      "start": 17.1244,
      "duration": 0.0327,
      "velocity": 98,
      "chip": "ym2612"
    },
    {
      "channel": 2,
      "note": 66,
      "start": 17.1251,
      "duration": 0.0824,
      "velocity": 102,
      "chip": "ym2612"
    },
    {
      "channel": 0,
      "note": 66,
      "start": 17.1577,
      "duration": 0.016,
      "velocity": 98,
      "chip": "ym2612"
    },
    {
      "channel": 0,
      "note": 71,
      "start": 17.1744,
      "duration": 0.0494,
      "velocity": 98,
      "chip": "ym2612"
    },
    {
      "channel": 0,
      "note": 73,
      "start": 17.2244,
      "duration": 0.0165,
      "velocity": 98,
      "chip": "ym2612"
    },
    {
      "channel": 0,
      "note": 75,
      "start": 17.2416,
      "duration": 0.0505,
      "velocity": 98,
      "chip": "ym2612"
    },
    {
      "channel": 1,
      "note": 65,
      "start": 17.2423,
      "duration": 0.0502,
      "velocity": 104,
      "chip": "ym2612"
    },
    {
      "channel": 2,
      "note": 68,
      "start": 17.243,
      "duration": 0.0174,
      "velocity": 102,
      "chip": "ym2612"
    },
    {
      "channel": 3,
      "note": 71,
      "start": 17.2437,
      "duration": 0.0501,
      "velocity": 98,
      "chip": "ym2612"
    },
    {
      "channel": 4,
      "note": 68,
      "start": 17.2445,
      "duration": 0.0497,
      "velocity": 98,
      "chip": "ym2612"
    },
    {
      "channel": 1,
      "note": 66,
      "start": 17.293,
      "duration": 0.0337,
      "velocity": 104,
      "chip": "ym2612"
    },
    {
      "channel": 2,
      "note": 66,
      "start": 17.2937,
      "duration": 0.0161,
      "velocity": 102,
      "chip": "ym2612"
    },
    {
      "channel": 0,
      "note": 77,
      "start": 17.3429,
      "duration": 0.0499,
      "velocity": 98,
      "chip": "ym2612"
    },
    {
      "channel": 2,
      "note": 66,
      "start": 17.3437,
      "duration": 0.0162,
      "velocity": 102,
      "chip": "ym2612"
    },
    {
      "channel": 3,
      "note": 73,
      "start": 17.3444,
      "duration": 0.0496,
      "velocity": 98,
      "chip": "ym2612"
    },
    {
      "channel": 4,
      "note": 70,
      "start": 17.3452,
      "duration": 0.0492,
      "velocity": 98,
      "chip": "ym2612"
    },
    {
      "channel": 1,
      "note": 59,
      "start": 17.3936,
      "duration": 0.1159,
      "velocity": 104,
      "chip": "ym2612"
    },
    {
      "channel": 1,
      "note": 56,
      "start": 17.51,
      "duration": 0.1178,
      "velocity": 104,
      "chip": "ym2612"
    },
    {
      "channel": 2,
      "note": 71,
      "start": 17.5107,
      "duration": 0.0824,
      "velocity": 102,
      "chip": "ym2612"
    },
    {
      "channel": 0,
      "note": 78,
      "start": 17.6277,
      "duration": 0.8202,
      "velocity": 98,
      "chip": "ym2612"
    },
    {
      "channel": 1,
      "note": 59,
      "start": 17.6284,
      "duration": 0.0497,
      "velocity": 104,
      "chip": "ym2612"
    },
    {
      "channel": 3,
      "note": 75,
      "start": 17.6298,
      "duration": 0.8203,
      "velocity": 98,
      "chip": "ym2612"
    },
    {
      "channel": 4,
      "note": 71,
      "start": 17.6309,
      "duration": 0.82,
      "velocity": 98,
      "chip": "ym2612"
    },
    {
      "channel": 1,
      "note": 61,
      "start": 17.6786,
      "duration": 0.085,
      "velocity": 104,
      "chip": "ym2612"
    },
    {
      "channel": 2,
      "note": 68,
      "start": 17.6793,
      "duration": 0.0165,
      "velocity": 102,
      "chip": "ym2612"
    },
    {
      "channel": 2,
      "note": 66,
      "start": 17.7302,
      "duration": 0.0167,
      "velocity": 102,
      "chip": "ym2612"
    },
    {
      "channel": 1,
      "note": 61,
      "start": 17.7641,
      "duration": 0.0234,
      "velocity": 104,
      "chip": "ym2612"
    },
    {
      "channel": 2,
      "note": 63,
      "start": 17.7648,
      "duration": 0.0163,
      "velocity": 102,
      "chip": "ym2612"
    },
    {
      "channel": 2,
      "note": 66,
      "start": 17.8094,
      "duration": 0.0163,
      "velocity": 102,
      "chip": "ym2612"
    },
    {
      "channel": 2,
      "note": 73,
      "start": 17.8332,
      "duration": 0.0172,
      "velocity": 102,
      "chip": "ym2612"
    },
    {
      "channel": 1,
      "note": 61,
      "start": 17.8584,
      "duration": 0.0501,
      "velocity": 104,
      "chip": "ym2612"
    },
    {
      "channel": 2,
      "note": 71,
      "start": 17.8591,
      "duration": 0.019,
      "velocity": 102,
      "chip": "ym2612"
    },
    {
      "channel": 1,
      "note": 59,
      "start": 18.0263,
      "duration": 0.0334,
      "velocity": 104,
      "chip": "ym2612"
    },
    {
      "channel": 2,
      "note": 70,
      "start": 18.0269,
      "duration": 0.0189,
      "velocity": 102,
      "chip": "ym2612"
    },
    {
      "channel": 1,
      "note": 61,
      "start": 18.1775,
      "duration": 0.0507,
      "velocity": 104,
      "chip": "ym2612"
    },
    {
      "channel": 2,
      "note": 71,
      "start": 18.1781,
      "duration": 0.0186,
      "velocity": 102,
      "chip": "ym2612"
    },
    {
      "channel": 2,
      "note": 70,
      "start": 18.2531,
      "duration": 0.0177,
      "velocity": 102,
      "chip": "ym2612"
    },
    {
      "channel": 1,
      "note": 59,
      "start": 18.3037,
      "duration": 0.1167,
      "velocity": 104,
      "chip": "ym2612"
    },
    {
      "channel": 1,
      "note": 61,
      "start": 18.4209,
      "duration": 0.0275,
      "velocity": 104,
      "chip": "ym2612"
    },
    {
      "channel": 2,
      "note": 66,
      "start": 18.4215,
      "duration": 0.0189,
      "velocity": 102,
      "chip": "ym2612"
    },
    {
      "channel": 1,
      "note": 54,
      "start": 18.4488,
      "duration": 0.0328,
      "velocity": 104,
      "chip": "ym2612"
    },
    {
      "channel": 1,
      "note": 56,
      "start": 18.4821,
      "duration": 0.1673,
      "velocity": 104,
      "chip": "ym2612"
    },
    {
      "channel": 2,
      "note": 68,
      "start": 18.4828,
      "duration": 0.0163,
      "velocity": 102,
      "chip": "ym2612"
    },
    {
      "channel": 2,
      "note": 66,
      "start": 18.5329,
      "duration": 0.0828,
      "velocity": 102,
      "chip": "ym2612"
    },
    {
      "channel": 1,
      "note": 56,
      "start": 18.6498,
      "duration": 0.0176,
      "velocity": 104,
      "chip": "ym2612"
    },
    {
      "channel": 2,
      "note": 63,
      "start": 18.6504,
      "duration": 0.0124,
      "velocity": 102,
      "chip": "ym2612"
    },
    {
      "channel": 2,
      "note": 66,
      "start": 18.6682,
      "duration": 0.0111,
      "velocity": 102,
      "chip": "ym2612"
    },
    {
      "channel": 2,
      "note": 66,
      "start": 18.7391,
      "duration": 0.0827,
      "velocity": 102,
      "chip": "ym2612"
    },
    {
      "channel": 0,
      "note": 52,
      "start": 18.839,
      "duration": 0.0494,
      "velocity": 98,
      "chip": "ym2612"
    },
    {
      "channel": 0,
      "note": 54,
      "start": 18.889,
      "duration": 0.016,
      "velocity": 98,
      "chip": "ym2612"
    },
    {
      "channel": 0,
      "note": 59,
      "start": 18.9057,
      "duration": 0.0327,
      "velocity": 98,
      "chip": "ym2612"
    },
    {
      "channel": 0,
      "note": 61,
      "start": 18.939,
      "duration": 0.016,
      "velocity": 98,
      "chip": "ym2612"
    },
    {
      "channel": 0,
      "note": 63,
      "start": 18.9557,
      "duration": 0.0494,
      "velocity": 98,
      "chip": "ym2612"
    },
    {
      "channel": 2,
      "note": 66,
      "start": 18.9565,
      "duration": 0.0823,
      "velocity": 102,
      "chip": "ym2612"
    },
    {
      "channel": 0,
      "note": 66,
      "start": 19.0057,
      "duration": 0.016,
      "velocity": 98,
      "chip": "ym2612"
    },
    {
      "channel": 0,
      "note": 71,
      "start": 19.0224,
      "duration": 0.0327,
      "velocity": 98,
      "chip": "ym2612"
    },
    {
      "channel": 0,
      "note": 73,
      "start": 19.0557,
      "duration": 0.0165,
      "velocity": 98,
      "chip": "ym2612"
    },
    {
      "channel": 0,
      "note": 75,
      "start": 19.0729,
      "duration": 0.0505,
      "velocity": 98,
      "chip": "ym2612"
    },
    {
      "channel": 1,
      "note": 59,
      "start": 19.0736,
      "duration": 0.0502,
      "velocity": 104,
      "chip": "ym2612"
    },
    {
      "channel": 2,
      "note": 68,
      "start": 19.0743,
      "duration": 0.0173,
      "velocity": 102,
      "chip": "ym2612"
    },
    {
      "channel": 3,
      "note": 71,
      "start": 19.0751,
      "duration": 0.0497,
      "velocity": 98,
      "chip": "ym2612"
    },
    {
      "channel": 4,
      "note": 68,
      "start": 19.0758,
      "duration": 0.0493,
      "velocity": 98,
      "chip": "ym2612"
    },
    {
      "channel": 2,
      "note": 66,
      "start": 19.1246,
      "duration": 0.0162,
      "velocity": 102,
      "chip": "ym2612"
    },
    {
      "channel": 0,
      "note": 77,
      "start": 19.1908,
      "duration": 0.05,
      "velocity": 98,
      "chip": "ym2612"
    },
    {
      "channel": 2,
      "note": 66,
      "start": 19.1916,
      "duration": 0.0163,
      "velocity": 102,
      "chip": "ym2612"
    },
    {
      "channel": 3,
      "note": 73,
      "start": 19.1924,
      "duration": 0.0497,
      "velocity": 98,
      "chip": "ym2612"
    },
    {
      "channel": 4,
      "note": 70,
      "start": 19.1932,
      "duration": 0.0493,
      "velocity": 98,
      "chip": "ym2612"
    },
    {
      "channel": 1,
      "note": 59,
      "start": 19.2417,
      "duration": 0.0993,
      "velocity": 104,
      "chip": "ym2612"
    },
    {
      "channel": 1,
      "note": 61,
      "start": 19.3415,
      "duration": 0.1177,
      "velocity": 104,
      "chip": "ym2612"
    },
    {
      "channel": 2,
      "note": 71,
      "start": 19.3421,
      "duration": 0.0824,
      "velocity": 102,
      "chip": "ym2612"
    },
    {
      "channel": 0,
      "note": 78,
      "start": 19.459,
      "duration": 0.8474,
      "velocity": 98,
      "chip": "ym2612"
    },
    {
      "channel": 1,
      "note": 54,
      "start": 19.4597,
      "duration": 0.0498,
      "velocity": 104,
      "chip": "ym2612"
    },
    {
      "channel": 3,
      "note": 75,
      "start": 19.4611,
      "duration": 0.8475,
      "velocity": 98,
      "chip": "ym2612"
    },
    {
      "channel": 4,
      "note": 71,
      "start": 19.4623,
      "duration": 0.8473,
      "velocity": 98,
      "chip": "ym2612"
    },
    {
      "channel": 1,
      "note": 56,
      "start": 19.5101,
      "duration": 0.1018,
      "velocity": 104,
      "chip": "ym2612"
    },
    {
      "channel": 2,
      "note": 68,
      "start": 19.5108,
      "duration": 0.0164,
      "velocity": 102,
      "chip": "ym2612"
    },
    {
      "channel": 2,
      "note": 66,
      "start": 19.5616,
      "duration": 0.0167,
      "velocity": 102,
      "chip": "ym2612"
    },
    {
      "channel": 1,
      "note": 56,
      "start": 19.6123,
      "duration": 0.0234,
      "velocity": 104,
      "chip": "ym2612"
    },
    {
      "channel": 2,
      "note": 63,
      "start": 19.6129,
      "duration": 0.0165,
      "velocity": 102,
      "chip": "ym2612"
    },
    {
      "channel": 2,
      "note": 66,
      "start": 19.6576,
      "duration": 0.0167,
      "velocity": 102,
      "chip": "ym2612"
    },
    {
      "channel": 2,
      "note": 73,
      "start": 19.6784,
      "duration": 0.0172,
      "velocity": 102,
      "chip": "ym2612"
    },
    {
      "channel": 1,
      "note": 56,
      "start": 19.7034,
      "duration": 0.0501,
      "velocity": 104,
      "chip": "ym2612"
    },
    {
      "channel": 2,
      "note": 71,
      "start": 19.7041,
      "duration": 0.0188,
      "velocity": 102,
      "chip": "ym2612"
    },
    {
      "channel": 1,
      "note": 54,
      "start": 19.8712,
      "duration": 0.0501,
      "velocity": 104,
      "chip": "ym2612"
    },
    {
      "channel": 2,
      "note": 70,
      "start": 19.8719,
      "duration": 0.0187,
      "velocity": 102,
      "chip": "ym2612"
    },
    {
      "channel": 1,
      "note": 56,
      "start": 20.0391,
      "duration": 0.0506,
      "velocity": 104,
      "chip": "ym2612"
    },
    {
      "channel": 2,
      "note": 71,
      "start": 20.0398,
      "duration": 0.0187,
      "velocity": 102,
      "chip": "ym2612"
    },
    {
      "channel": 2,
      "note": 70,
      "start": 20.1117,
      "duration": 0.0176,
      "velocity": 102,
      "chip": "ym2612"
    },
    {
      "channel": 1,
      "note": 66,
      "start": 20.1623,
      "duration": 0.1167,
      "velocity": 104,
      "chip": "ym2612"
    },
    {
      "channel": 1,
      "note": 68,
      "start": 20.2795,
      "duration": 0.0275,
      "velocity": 104,
      "chip": "ym2612"
    },
    {
      "channel": 2,
      "note": 66,
      "start": 20.2801,
      "duration": 0.0188,
      "velocity": 102,
      "chip": "ym2612"
    },
    {
      "channel": 1,
      "note": 59,
      "start": 20.3075,
      "duration": 0.0494,
      "velocity": 104,
      "chip": "ym2612"
    },
    {
      "channel": 1,
      "note": 61,
      "start": 20.3574,
      "duration": 0.1673,
      "velocity": 104,
      "chip": "ym2612"
    },
    {
      "channel": 2,
      "note": 68,
      "start": 20.3581,
      "duration": 0.0163,
      "velocity": 102,
      "chip": "ym2612"
    },
    {
      "channel": 2,
      "note": 66,
      "start": 20.4082,
      "duration": 0.0828,
      "velocity": 102,
      "chip": "ym2612"
    },
    {
      "channel": 1,
      "note": 61,
      "start": 20.5251,
      "duration": 0.0153,
      "velocity": 104,
      "chip": "ym2612"
    },
    {
      "channel": 2,
      "note": 63,
      "start": 20.5259,
      "duration": 0.0127,
      "velocity": 102,
      "chip": "ym2612"
    },
    {
      "channel": 2,
      "note": 66,
      "start": 20.5412,
      "duration": 0.0111,
      "velocity": 102,
      "chip": "ym2612"
    },
    {
      "channel": 2,
      "note": 66,
      "start": 20.5976,
      "duration": 0.0827,
      "velocity": 102,
      "chip": "ym2612"
    },
    {
      "channel": 0,
      "note": 52,
      "start": 20.7141,
      "duration": 0.0327,
      "velocity": 98,
      "chip": "ym2612"
    },
    {
      "channel": 0,
      "note": 54,
      "start": 20.7475,
      "duration": 0.016,
      "velocity": 98,
      "chip": "ym2612"
    },
    {
      "channel": 0,
      "note": 59,
      "start": 20.7641,
      "duration": 0.0494,
      "velocity": 98,
      "chip": "ym2612"
    },
    {
      "channel": 0,
      "note": 61,
      "start": 20.8141,
      "duration": 0.016,
      "velocity": 98,
      "chip": "ym2612"
    },
    {
      "channel": 0,
      "note": 63,
      "start": 20.8308,
      "duration": 0.0327,
      "velocity": 98,
      "chip": "ym2612"
    },
    {
      "channel": 2,
      "note": 66,
      "start": 20.8316,
      "duration": 0.0828,
      "velocity": 102,
      "chip": "ym2612"
    },
    {
      "channel": 0,
      "note": 66,
      "start": 20.8641,
      "duration": 0.016,
      "velocity": 98,
      "chip": "ym2612"
    },
    {
      "channel": 0,
      "note": 71,
      "start": 20.8808,
      "duration": 0.0327,
      "velocity": 98,
      "chip": "ym2612"
    },
    {
      "channel": 0,
      "note": 73,
      "start": 20.9141,
      "duration": 0.0332,
      "velocity": 98,
      "chip": "ym2612"
    },
    {
      "channel": 0,
      "note": 75,
      "start": 20.948,
      "duration": 0.0339,
      "velocity": 98,
      "chip": "ym2612"
    },
    {
      "channel": 1,
      "note": 65,
      "start": 20.9487,
      "duration": 0.0335,
      "velocity": 104,
      "chip": "ym2612"
    },
    {
      "channel": 2,
      "note": 68,
      "start": 20.9494,
      "duration": 0.0174,
      "velocity": 102,
      "chip": "ym2612"
    },
    {
      "channel": 3,
      "note": 71,
      "start": 20.9502,
      "duration": 0.0334,
      "velocity": 98,
      "chip": "ym2612"
    },
    {
      "channel": 4,
      "note": 68,
      "start": 20.9509,
      "duration": 0.033,
      "velocity": 98,
      "chip": "ym2612"
    },
    {
      "channel": 1,
      "note": 66,
      "start": 20.9827,
      "duration": 0.0503,
      "velocity": 104,
      "chip": "ym2612"
    },
    {
      "channel": 2,
      "note": 66,
      "start": 20.9834,
      "duration": 0.016,
      "velocity": 102,
      "chip": "ym2612"
    },
    {
      "channel": 0,
      "note": 77,
      "start": 21.0493,
      "duration": 0.0499,
      "velocity": 98,
      "chip": "ym2612"
    },
    {
      "channel": 2,
      "note": 66,
      "start": 21.05,
      "duration": 0.0162,
      "velocity": 102,
      "chip": "ym2612"
    },
    {
      "channel": 3,
      "note": 73,
      "start": 21.0508,
      "duration": 0.0497,
      "velocity": 98,
      "chip": "ym2612"
    },
    {
      "channel": 4,
      "note": 70,
      "start": 21.0516,
      "duration": 0.0492,
      "velocity": 98,
      "chip": "ym2612"
    },
    {
      "channel": 1,
      "note": 59,
      "start": 21.1,
      "duration": 0.1159,
      "velocity": 104,
      "chip": "ym2612"
    },
    {
      "channel": 1,
      "note": 56,
      "start": 21.2164,
      "duration": 0.1178,
      "velocity": 104,
      "chip": "ym2612"
    },
    {
      "channel": 2,
      "note": 71,
      "start": 21.2171,
      "duration": 0.0825,
      "velocity": 102,
      "chip": "ym2612"
    },
    {
      "channel": 0,
      "note": 78,
      "start": 21.3341,
      "duration": 0.6289,
      "velocity": 100,
      "chip": "ym2612"
    },
    {
      "channel": 1,
      "note": 59,
      "start": 21.3348,
      "duration": 0.0497,
      "velocity": 104,
      "chip": "ym2612"
    },
    {
      "channel": 3,
      "note": 75,
      "start": 21.3362,
      "duration": 0.6295,
      "velocity": 98,
      "chip": "ym2612"
    },
    {
      "channel": 4,
      "note": 71,
      "start": 21.3373,
      "duration": 0.6293,
      "velocity": 98,
      "chip": "ym2612"
    },
    {
      "channel": 1,
      "note": 61,
      "start": 21.3851,
      "duration": 0.0851,
      "velocity": 104,
      "chip": "ym2612"
    },
    {
      "channel": 2,
      "note": 68,
      "start": 21.3858,
      "duration": 0.0165,
      "velocity": 102,
      "chip": "ym2612"
    },
    {
      "channel": 2,
      "note": 66,
      "start": 21.4199,
      "duration": 0.0167,
      "velocity": 102,
      "chip": "ym2612"
    },
    {
      "channel": 1,
      "note": 61,
      "start": 21.4706,
      "duration": 0.0234,
      "velocity": 104,
      "chip": "ym2612"
    },
    {
      "channel": 2,
      "note": 63,
      "start": 21.4712,
      "duration": 0.0163,
      "velocity": 102,
      "chip": "ym2612"
    },
    {
      "channel": 2,
      "note": 66,
      "start": 21.5158,
      "duration": 0.0163,
      "velocity": 102,
      "chip": "ym2612"
    },
    {
      "channel": 2,
      "note": 73,
      "start": 21.5402,
      "duration": 0.0179,
      "velocity": 102,
      "chip": "ym2612"
    },
    {
      "channel": 1,
      "note": 61,
      "start": 21.5659,
      "duration": 0.05,
      "velocity": 104,
      "chip": "ym2612"
    },
    {
      "channel": 2,
      "note": 71,
      "start": 21.5666,
      "duration": 0.0189,
      "velocity": 102,
      "chip": "ym2612"
    },
    {
      "channel": 1,
      "note": 65,
      "start": 21.7171,
      "duration": 0.0272,
      "velocity": 104,
      "chip": "ym2612"
    },
    {
      "channel": 2,
      "note": 70,
      "start": 21.7178,
      "duration": 0.0188,
      "velocity": 102,
      "chip": "ym2612"
    },
    {
      "channel": 1,
      "note": 71,
      "start": 21.7448,
      "duration": 0.0506,
      "velocity": 104,
      "chip": "ym2612"
    },
    {
      "channel": 1,
      "note": 73,
      "start": 21.796,
      "duration": 0.0506,
      "velocity": 104,
      "chip": "ym2612"
    },
    {
      "channel": 2,
      "note": 71,
      "start": 21.7966,
      "duration": 0.0186,
      "velocity": 102,
      "chip": "ym2612"
    },
    {
      "channel": 1,
      "note": 68,
      "start": 21.8471,
      "duration": 0.0254,
      "velocity": 104,
      "chip": "ym2612"
    },
    {
      "channel": 1,
      "note": 71,
      "start": 21.8731,
      "duration": 0.0272,
      "velocity": 104,
      "chip": "ym2612"
    },
    {
      "channel": 2,
      "note": 70,
      "start": 21.8738,
      "duration": 0.0191,
      "velocity": 102,
      "chip": "ym2612"
    },
    {
      "channel": 1,
      "note": 66,
      "start": 21.9008,
      "duration": 0.0254,
      "velocity": 104,
      "chip": "ym2612"
    },
    {
      "channel": 1,
      "note": 68,
      "start": 21.9268,
      "duration": 0.0372,
      "velocity": 104,
      "chip": "ym2612"
    },
    {
      "channel": 2,
      "note": 66,
      "start": 21.9274,
      "duration": 0.0189,
      "velocity": 102,
      "chip": "ym2612"
    },
    {
      "channel": 0,
      "note": 87,
      "start": 21.9636,
      "duration": 0.098,
      "velocity": 100,
      "chip": "ym2612"
    },
    {
      "channel": 1,
      "note": 54,
      "start": 21.9645,
      "duration": 0.0467,
      "velocity": 104,
      "chip": "ym2612"
    },
    {
      "channel": 1,
      "note": 56,
      "start": 22.0117,
      "duration": 0.1678,
      "velocity": 104,
      "chip": "ym2612"
    },
    {
      "channel": 2,
      "note": 68,
      "start": 22.0124,
      "duration": 0.0171,
      "velocity": 102,
      "chip": "ym2612"
    },
    {
      "channel": 4,
      "note": 87,
      "start": 22.0244,
      "duration": 0.163,
      "velocity": 100,
      "chip": "ym2612"
    },
    {
      "channel": 0,
      "note": 80,
      "start": 22.0622,
      "duration": 0.0327,
      "velocity": 100,
      "chip": "ym2612"
    },
    {
      "channel": 2,
      "note": 66,
      "start": 22.0632,
      "duration": 0.0828,
      "velocity": 102,
      "chip": "ym2612"
    },
    {
      "channel": 0,
      "note": 79,
      "start": 22.0956,
      "duration": 0.0494,
      "velocity": 100,
      "chip": "ym2612"
    },
    {
      "channel": 0,
      "note": 78,
      "start": 22.1456,
      "duration": 0.0332,
      "velocity": 100,
      "chip": "ym2612"
    },
    {
      "channel": 0,
      "note": 75,
      "start": 22.1794,
      "duration": 0.0065,
      "velocity": 100,
      "chip": "ym2612"
    },
    {
      "channel": 1,
      "note": 56,
      "start": 22.18,
      "duration": 0.0222,
      "velocity": 104,
      "chip": "ym2612"
    },
    {
      "channel": 2,
      "note": 63,
      "start": 22.1807,
      "duration": 0.0156,
      "velocity": 102,
      "chip": "ym2612"
    },
    {
      "channel": 0,
      "note": 73,
      "start": 22.1866,
      "duration": 0.0087,
      "velocity": 100,
      "chip": "ym2612"
    },
    {
      "channel": 4,
      "note": 80,
      "start": 22.188,
      "duration": 0.0086,
      "velocity": 100,
      "chip": "ym2612"
    },
    {
      "channel": 0,
      "note": 71,
      "start": 22.1959,
      "duration": 0.0056,
      "velocity": 100,
      "chip": "ym2612"
    },
    {
      "channel": 4,
      "note": 79,
      "start": 22.1972,
      "duration": 0.0061,
      "velocity": 100,
      "chip": "ym2612"
    },
    {
      "channel": 0,
      "note": 68,
      "start": 22.2021,
      "duration": 0.0093,
      "velocity": 100,
      "chip": "ym2612"
    },
    {
      "channel": 2,
      "note": 66,
      "start": 22.203,
      "duration": 0.014,
      "velocity": 102,
      "chip": "ym2612"
    },
    {
      "channel": 4,
      "note": 78,
      "start": 22.2039,
      "duration": 0.0052,
      "velocity": 100,
      "chip": "ym2612"
    },
    {
      "channel": 4,
      "note": 75,
      "start": 22.2098,
      "duration": 0.0048,
      "velocity": 100,
      "chip": "ym2612"
    },
    {
      "channel": 4,
      "note": 73,
      "start": 22.2152,
      "duration": 0.0068,
      "velocity": 100,
      "chip": "ym2612"
    },
    {
      "channel": 4,
      "note": 71,
      "start": 22.2226,
      "duration": 0.0043,
      "velocity": 100,
      "chip": "ym2612"
    },
    {
      "channel": 4,
      "note": 68,
      "start": 22.2275,
      "duration": 0.006,
      "velocity": 100,
      "chip": "ym2612"
    },
    {
      "channel": 2,
      "note": 66,
      "start": 22.2519,
      "duration": 0.0827,
      "velocity": 102,
      "chip": "ym2612"
    },
    {
      "channel": 0,
      "note": 85,
      "start": 22.3685,
      "duration": 0.2332,
      "velocity": 100,
      "chip": "ym2612"
    },
    {
      "channel": 2,
      "note": 66,
      "start": 22.4855,
      "duration": 0.0828,
      "velocity": 102,
      "chip": "ym2612"
    },
    {
      "channel": 4,
      "note": 85,
      "start": 22.5193,
      "duration": 0.1416,
      "velocity": 100,
      "chip": "ym2612"
    },
    {
      "channel": 0,
      "note": 73,
      "start": 22.6023,
      "duration": 0.0068,
      "velocity": 100,
      "chip": "ym2612"
    },
    {
      "channel": 1,
      "note": 59,
      "start": 22.603,
      "duration": 0.0506,
      "velocity": 104,
      "chip": "ym2612"
    },
    {
      "channel": 2,
      "note": 68,
      "start": 22.6037,
      "duration": 0.0163,
      "velocity": 102,
      "chip": "ym2612"
    },
    {
      "channel": 0,
      "note": 72,
      "start": 22.6098,
      "duration": 0.0092,
      "velocity": 100,
      "chip": "ym2612"
    },
    {
      "channel": 0,
      "note": 71,
      "start": 22.6196,
      "duration": 0.0332,
      "velocity": 100,
      "chip": "ym2612"
    },
    {
      "channel": 0,
      "note": 70,
      "start": 22.6535,
      "duration": 0.0062,
      "velocity": 100,
      "chip": "ym2612"
    },
    {
      "channel": 2,
      "note": 66,
      "start": 22.6545,
      "duration": 0.0161,
      "velocity": 102,
      "chip": "ym2612"
    },
    {
      "channel": 0,
      "note": 68,
      "start": 22.6603,
      "duration": 0.0054,
      "velocity": 100,
      "chip": "ym2612"
    },
    {
      "channel": 4,
      "note": 73,
      "start": 22.6615,
      "duration": 0.0054,
      "velocity": 100,
      "chip": "ym2612"
    },
    {
      "channel": 0,
      "note": 67,
      "start": 22.6663,
      "duration": 0.0376,
      "velocity": 100,
      "chip": "ym2612"
    },
    {
      "channel": 4,
      "note": 72,
      "start": 22.6676,
      "duration": 0.0376,
      "velocity": 100,
      "chip": "ym2612"
    },
    {
      "channel": 0,
      "note": 66,
      "start": 22.7046,
      "duration": 0.0086,
      "velocity": 100,
      "chip": "ym2612"
    },
    {
      "channel": 4,
      "note": 71,
      "start": 22.7058,
      "duration": 0.0051,
      "velocity": 100,
      "chip": "ym2612"
    },
    {
      "channel": 4,
      "note": 70,
      "start": 22.7116,
      "duration": 0.0041,
      "velocity": 100,
      "chip": "ym2612"
    },
    {
      "channel": 4,
      "note": 68,
      "start": 22.7164,
      "duration": 0.0075,
      "velocity": 100,
      "chip": "ym2612"
    },
    {
      "channel": 2,
      "note": 66,
      "start": 22.7236,
      "duration": 0.0166,
      "velocity": 102,
      "chip": "ym2612"
    },
    {
      "channel": 4,
      "note": 67,
      "start": 22.7245,
      "duration": 0.0051,
      "velocity": 100,
      "chip": "ym2612"
    },
    {
      "channel": 4,
      "note": 66,
      "start": 22.7302,
      "duration": 0.0102,
      "velocity": 100,
      "chip": "ym2612"
    },
    {
      "channel": 1,
      "note": 59,
      "start": 22.7574,
      "duration": 0.1161,
      "velocity": 104,
      "chip": "ym2612"
    },
    {
      "channel": 1,
      "note": 61,
      "start": 22.8741,
      "duration": 0.1177,
      "velocity": 104,
      "chip": "ym2612"
    },
    {
      "channel": 2,
      "note": 71,
      "start": 22.8747,
      "duration": 0.0824,
      "velocity": 102,
      "chip": "ym2612"
    },
    {
      "channel": 0,
      "note": 83,
      "start": 22.9916,
      "duration": 0.0505,
      "velocity": 100,
      "chip": "ym2612"
    },
    {
      "channel": 1,
      "note": 54,
      "start": 22.9923,
      "duration": 0.0506,
      "velocity": 104,
      "chip": "ym2612"
    },
    {
      "channel": 0,
      "note": 85,
      "start": 23.0427,
      "duration": 0.0501,
      "velocity": 100,
      "chip": "ym2612"
    },
    {
      "channel": 1,
      "note": 56,
      "start": 23.0434,
      "duration": 0.1014,
      "velocity": 104,
      "chip": "ym2612"
    },
    {
      "channel": 2,
      "note": 68,
      "start": 23.0441,
      "duration": 0.0156,
      "velocity": 102,
      "chip": "ym2612"
    },
    {
      "channel": 4,
      "note": 83,
      "start": 23.0511,
      "duration": 0.0502,
      "velocity": 100,
      "chip": "ym2612"
    },
    {
      "channel": 0,
      "note": 83,
      "start": 23.0935,
      "duration": 0.0504,
      "velocity": 100,
      "chip": "ym2612"
    },
    {
      "channel": 2,
      "note": 66,
      "start": 23.0945,
      "duration": 0.0163,
      "velocity": 102,
      "chip": "ym2612"
    },
    {
      "channel": 4,
      "note": 85,
      "start": 23.102,
      "duration": 0.0502,
      "velocity": 100,
      "chip": "ym2612"
    },
    {
      "channel": 0,
      "note": 80,
      "start": 23.1446,
      "duration": 0.0209,
      "velocity": 100,
      "chip": "ym2612"
    },
    {
      "channel": 1,
      "note": 56,
      "start": 23.1452,
      "duration": 0.0206,
      "velocity": 104,
      "chip": "ym2612"
    },
    {
      "channel": 2,
      "note": 63,
      "start": 23.1459,
      "duration": 0.0148,
      "velocity": 102,
      "chip": "ym2612"
    },
    {
      "channel": 4,
      "note": 83,
      "start": 23.1528,
      "duration": 0.018,
      "velocity": 100,
      "chip": "ym2612"
    },
    {
      "channel": 4,
      "note": 80,
      "start": 23.1714,
      "duration": 0.016,
      "velocity": 100,
      "chip": "ym2612"
    },
    {
      "channel": 2,
      "note": 66,
      "start": 23.1799,
      "duration": 0.0115,
      "velocity": 102,
      "chip": "ym2612"
    },
    {
      "channel": 2,
      "note": 73,
      "start": 23.1959,
      "duration": 0.0105,
      "velocity": 102,
      "chip": "ym2612"
    },
    {
      "channel": 1,
      "note": 56,
      "start": 23.2173,
      "duration": 0.05,
      "velocity": 104,
      "chip": "ym2612"
    },
    {
      "channel": 2,
      "note": 71,
      "start": 23.218,
      "duration": 0.0163,
      "velocity": 102,
      "chip": "ym2612"
    },
    {
      "channel": 0,
      "note": 66,
      "start": 23.3851,
      "duration": 0.05,
      "velocity": 100,
      "chip": "ym2612"
    },
    {
      "channel": 1,
      "note": 54,
      "start": 23.3858,
      "duration": 0.0501,
      "velocity": 104,
      "chip": "ym2612"
    },
    {
      "channel": 2,
      "note": 70,
      "start": 23.3865,
      "duration": 0.016,
      "velocity": 102,
      "chip": "ym2612"
    },
    {
      "channel": 0,
      "note": 68,
      "start": 23.4357,
      "duration": 0.1165,
      "velocity": 100,
      "chip": "ym2612"
    },
    {
      "channel": 4,
      "note": 66,
      "start": 23.4696,
      "duration": 0.0909,
      "velocity": 100,
      "chip": "ym2612"
    },
    {
      "channel": 0,
      "note": 66,
      "start": 23.5529,
      "duration": 0.0338,
      "velocity": 100,
      "chip": "ym2612"
    },
    {
      "channel": 1,
      "note": 56,
      "start": 23.5536,
      "duration": 0.0339,
      "velocity": 104,
      "chip": "ym2612"
    },
    {
      "channel": 2,
      "note": 71,
      "start": 23.5543,
      "duration": 0.0159,
      "velocity": 102,
      "chip": "ym2612"
    },
    {
      "channel": 4,
      "note": 68,
      "start": 23.5611,
      "duration": 0.0347,
      "velocity": 100,
      "chip": "ym2612"
    },
    {
      "channel": 0,
      "note": 68,
      "start": 23.5873,
      "duration": 0.0183,
      "velocity": 100,
      "chip": "ym2612"
    },
    {
      "channel": 4,
      "note": 66,
      "start": 23.5964,
      "duration": 0.0193,
      "velocity": 100,
      "chip": "ym2612"
    },
    {
      "channel": 0,
      "note": 71,
      "start": 23.6063,
      "duration": 0.05,
      "velocity": 100,
      "chip": "ym2612"
    },
    {
      "channel": 2,
      "note": 70,
      "start": 23.6071,
      "duration": 0.0162,
      "velocity": 102,
      "chip": "ym2612"
    },
    {
      "channel": 4,
      "note": 68,
      "start": 23.6163,
      "duration": 0.0738,
      "velocity": 100,
      "chip": "ym2612"
    },
    {
      "channel": 1,
      "note": 66,
      "start": 23.6571,
      "duration": 0.1171,
      "velocity": 104,
      "chip": "ym2612"
    },
    {
      "channel": 4,
      "note": 71,
      "start": 23.6907,
      "duration": 0.091,
      "velocity": 100,
      "chip": "ym2612"
    },
    {
      "channel": 0,
      "note": 68,
      "start": 23.7741,
      "duration": 0.0204,
      "velocity": 100,
      "chip": "ym2612"
    },
    {
      "channel": 1,
      "note": 68,
      "start": 23.7748,
      "duration": 0.0207,
      "velocity": 104,
      "chip": "ym2612"
    },
    {
      "channel": 2,
      "note": 66,
      "start": 23.7755,
      "duration": 0.0139,
      "velocity": 102,
      "chip": "ym2612"
    },
    {
      "channel": 0,
      "note": 66,
      "start": 23.7951,
      "duration": 0.0096,
      "velocity": 100,
      "chip": "ym2612"
    },
    {
      "channel": 1,
      "note": 59,
      "start": 23.7959,
      "duration": 0.0503,
      "velocity": 104,
      "chip": "ym2612"
    },
    {
      "channel": 4,
      "note": 68,
      "start": 23.8031,
      "duration": 0.0507,
      "velocity": 100,
      "chip": "ym2612"
    },
    {
      "channel": 0,
      "note": 68,
      "start": 23.8054,
      "duration": 0.04,
      "velocity": 100,
      "chip": "ym2612"
    },
    {
      "channel": 0,
      "note": 71,
      "start": 23.846,
      "duration": 0.0101,
      "velocity": 100,
      "chip": "ym2612"
    },
    {
      "channel": 1,
      "note": 61,
      "start": 23.8467,
      "duration": 0.1506,
      "velocity": 104,
      "chip": "ym2612"
    },
    {
      "channel": 2,
      "note": 68,
      "start": 23.8474,
      "duration": 0.0159,
      "velocity": 102,
      "chip": "ym2612"
    },
    {
      "channel": 4,
      "note": 66,
      "start": 23.8545,
      "duration": 0.009,
      "velocity": 100,
      "chip": "ym2612"
    },
    {
      "channel": 0,
      "note": 73,
      "start": 23.8567,
      "duration": 0.0393,
      "velocity": 100,
      "chip": "ym2612"
    },
    {
      "channel": 4,
      "note": 68,
      "start": 23.8641,
      "duration": 0.0662,
      "velocity": 100,
      "chip": "ym2612"
    },
    {
      "channel": 0,
      "note": 75,
      "start": 23.8966,
      "duration": 0.0494,
      "velocity": 100,
      "chip": "ym2612"
    },
    {
      "channel": 2,
      "note": 66,
      "start": 23.8976,
      "duration": 0.0824,
      "velocity": 102,
      "chip": "ym2612"
    },
    {
      "channel": 4,
      "note": 71,
      "start": 23.931,
      "duration": 0.0492,
      "velocity": 100,
      "chip": "ym2612"
    },
    {
      "channel": 0,
      "note": 78,
      "start": 23.9466,
      "duration": 0.0499,
      "velocity": 100,
      "chip": "ym2612"
    },
    {
      "channel": 4,
      "note": 73,
      "start": 23.9808,
      "duration": 0.0269,
      "velocity": 100,
      "chip": "ym2612"
    },
    {
      "channel": 0,
      "note": 80,
      "start": 23.9971,
      "duration": 0.0128,
      "velocity": 100,
      "chip": "ym2612"
    },
    {
      "channel": 1,
      "note": 61,
      "start": 23.9978,
      "duration": 0.0219,
      "velocity": 104,
      "chip": "ym2612"
    },
    {
      "channel": 2,
      "note": 63,
      "start": 23.9985,
      "duration": 0.0152,
      "velocity": 102,
      "chip": "ym2612"
    },
    {
      "channel": 4,
      "note": 75,
      "start": 24.0083,
      "duration": 0.0084,
      "velocity": 100,
      "chip": "ym2612"
    },
    {
      "channel": 0,
      "note": 83,
      "start": 24.0105,
      "duration": 0.0084,
      "velocity": 100,
      "chip": "ym2612"
    },
    {
      "channel": 4,
      "note": 78,
      "start": 24.0174,
      "duration": 0.0115,
      "velocity": 100,
      "chip": "ym2612"
    },
    {
      "channel": 0,
      "note": 92,
      "start": 24.0196,
      "duration": 0.0115,
      "velocity": 100,
      "chip": "ym2612"
    },
    {
      "channel": 2,
      "note": 66,
      "start": 24.0206,
      "duration": 0.0131,
      "velocity": 102,
      "chip": "ym2612"
    },
    {
      "channel": 4,
      "note": 80,
      "start": 24.0295,
      "duration": 0.0068,
      "velocity": 100,
      "chip": "ym2612"
    },
    {
      "channel": 4,
      "note": 83,
      "start": 24.0369,
      "duration": 0.008,
      "velocity": 100,
      "chip": "ym2612"
    },
    {
      "channel": 0,
      "note": 92,
      "start": 24.0391,
      "duration": 0.0107,
      "velocity": 100,
      "chip": "ym2612"
    },
    {
      "channel": 4,
      "note": 92,
      "start": 24.0456,
      "duration": 0.0089,
      "velocity": 100,
      "chip": "ym2612"
    },
    {
      "channel": 4,
      "note": 92,
      "start": 24.0613,
      "duration": 0.0084,
      "velocity": 100,
      "chip": "ym2612"
    },
    {
      "channel": 2,
      "note": 66,
      "start": 24.0862,
      "duration": 0.0829,
      "velocity": 102,
      "chip": "ym2612"
    },
    {
      "channel": 0,
      "note": 92,
      "start": 24.2032,
      "duration": 0.049,
      "velocity": 100,
      "chip": "ym2612"
    },
    {
      "channel": 0,
      "note": 92,
      "start": 24.3195,
      "duration": 0.0494,
      "velocity": 100,
      "chip": "ym2612"
    },
    {
      "channel": 2,
      "note": 66,
      "start": 24.3202,
      "duration": 0.0821,
      "velocity": 102,
      "chip": "ym2612"
    },
    {
      "channel": 4,
      "note": 92,
      "start": 24.3539,
      "duration": 0.0486,
      "velocity": 100,
      "chip": "ym2612"
    },
    {
      "channel": 1,
      "note": 65,
      "start": 24.42,
      "duration": 0.0506,
      "velocity": 104,
      "chip": "ym2612"
    },
    {
      "channel": 2,
      "note": 68,
      "start": 24.4207,
      "duration": 0.0163,
      "velocity": 102,
      "chip": "ym2612"
    },
    {
      "channel": 4,
      "note": 92,
      "start": 24.4293,
      "duration": 0.0246,
      "velocity": 100,
      "chip": "ym2612"
    },
    {
      "channel": 1,
      "note": 66,
      "start": 24.471,
      "duration": 0.0516,
      "velocity": 104,
      "chip": "ym2612"
    },
    {
      "channel": 2,
      "note": 66,
      "start": 24.4717,
      "duration": 0.0163,
      "velocity": 102,
      "chip": "ym2612"
    },
    {
      "channel": 0,
      "note": 92,
      "start": 24.5225,
      "duration": 0.0098,
      "velocity": 100,
      "chip": "ym2612"
    },
    {
      "channel": 0,
      "note": 92,
      "start": 24.5396,
      "duration": 0.0092,
      "velocity": 100,
      "chip": "ym2612"
    },
    {
      "channel": 2,
      "note": 66,
      "start": 24.5404,
      "duration": 0.0159,
      "velocity": 102,
      "chip": "ym2612"
    },
    {
      "channel": 4,
      "note": 92,
      "start": 24.5472,
      "duration": 0.0262,
      "velocity": 100,
      "chip": "ym2612"
    },
    {
      "channel": 1,
      "note": 59,
      "start": 24.5901,
      "duration": 0.1161,
      "velocity": 104,
      "chip": "ym2612"
    },
    {
      "channel": 4,
      "note": 92,
      "start": 24.624,
      "duration": 0.066,
      "velocity": 100,
      "chip": "ym2612"
    },
    {
      "channel": 1,
      "note": 56,
      "start": 24.7067,
      "duration": 0.1199,
      "velocity": 104,
      "chip": "ym2612"
    },
    {
      "channel": 2,
      "note": 71,
      "start": 24.7074,
      "duration": 0.0824,
      "velocity": 102,
      "chip": "ym2612"
    },
    {
      "channel": 1,
      "note": 59,
      "start": 24.8272,
      "duration": 0.0313,
      "velocity": 104,
      "chip": "ym2612"
    },
    {
      "channel": 0,
      "note": 66,
      "start": 24.8583,
      "duration": 0.0505,
      "velocity": 98,
      "chip": "ym2612"
    },
    {
      "channel": 1,
      "note": 61,
      "start": 24.859,
      "duration": 0.1018,
      "velocity": 104,
      "chip": "ym2612"
    },
    {
      "channel": 2,
      "note": 68,
      "start": 24.8597,
      "duration": 0.0182,
      "velocity": 102,
      "chip": "ym2612"
    },
    {
      "channel": 3,
      "note": 78,
      "start": 24.8605,
      "duration": 0.0502,
      "velocity": 98,
      "chip": "ym2612"
    },
    {
      "channel": 0,
      "note": 68,
      "start": 24.9095,
      "duration": 0.0506,
      "velocity": 98,
      "chip": "ym2612"
    },
    {
      "channel": 2,
      "note": 66,
      "start": 24.9105,
      "duration": 0.0163,
      "velocity": 102,
      "chip": "ym2612"
    },
    {
      "channel": 3,
      "note": 80,
      "start": 24.9113,
      "duration": 0.0508,
      "velocity": 98,
      "chip": "ym2612"
    },
    {
      "channel": 0,
      "note": 63,
      "start": 24.9607,
      "duration": 0.0209,
      "velocity": 98,
      "chip": "ym2612"
    },
    {
      "channel": 1,
      "note": 61,
      "start": 24.9613,
      "duration": 0.0211,
      "velocity": 104,
      "chip": "ym2612"
    },
    {
      "channel": 2,
      "note": 63,
      "start": 24.9619,
      "duration": 0.0149,
      "velocity": 102,
      "chip": "ym2612"
    },
    {
      "channel": 3,
      "note": 75,
      "start": 24.9627,
      "duration": 0.0202,
      "velocity": 98,
      "chip": "ym2612"
    },
    {
      "channel": 0,
      "note": 66,
      "start": 24.9822,
      "duration": 0.0174,
      "velocity": 98,
      "chip": "ym2612"
    },
    {
      "channel": 3,
      "note": 78,
      "start": 24.9837,
      "duration": 0.0175,
      "velocity": 98,
      "chip": "ym2612"
    },
    {
      "channel": 0,
      "note": 68,
      "start": 25.0002,
      "duration": 0.0187,
      "velocity": 98,
      "chip": "ym2612"
    },
    {
      "channel": 2,
      "note": 66,
      "start": 25.001,
      "duration": 0.0133,
      "velocity": 102,
      "chip": "ym2612"
    },
    {
      "channel": 3,
      "note": 80,
      "start": 25.0018,
      "duration": 0.0182,
      "velocity": 98,
      "chip": "ym2612"
    },
    {
      "channel": 2,
      "note": 73,
      "start": 25.0199,
      "duration": 0.0106,
      "velocity": 102,
      "chip": "ym2612"
    },
    {
      "channel": 0,
      "note": 75,
      "start": 25.0502,
      "duration": 0.0333,
      "velocity": 98,
      "chip": "ym2612"
    },
    {
      "channel": 1,
      "note": 61,
      "start": 25.0509,
      "duration": 0.0329,
      "velocity": 104,
      "chip": "ym2612"
    },
    {
      "channel": 2,
      "note": 71,
      "start": 25.0516,
      "duration": 0.0164,
      "velocity": 102,
      "chip": "ym2612"
    },
    {
      "channel": 3,
      "note": 71,
      "start": 25.0524,
      "duration": 0.032,
      "velocity": 98,
      "chip": "ym2612"
    },
    {
      "channel": 4,
      "note": 68,
      "start": 25.0532,
      "duration": 0.0315,
      "velocity": 98,
      "chip": "ym2612"
    },
    {
      "channel": 0,
      "note": 73,
      "start": 25.2013,
      "duration": 0.05,
      "velocity": 98,
      "chip": "ym2612"
    },
    {
      "channel": 1,
      "note": 59,
      "start": 25.202,
      "duration": 0.0496,
      "velocity": 104,
      "chip": "ym2612"
    },
    {
      "channel": 2,
      "note": 70,
      "start": 25.2027,
      "duration": 0.0165,
      "velocity": 102,
      "chip": "ym2612"
    },
    {
      "channel": 3,
      "note": 70,
      "start": 25.2035,
      "duration": 0.0487,
      "velocity": 98,
      "chip": "ym2612"
    },
    {
      "channel": 4,
      "note": 66,
      "start": 25.2043,
      "duration": 0.0482,
      "velocity": 98,
      "chip": "ym2612"
    },
    {
      "channel": 0,
      "note": 75,
      "start": 25.3691,
      "duration": 0.0508,
      "velocity": 98,
      "chip": "ym2612"
    },
    {
      "channel": 1,
      "note": 61,
      "start": 25.3698,
      "duration": 0.0509,
      "velocity": 104,
      "chip": "ym2612"
    },
    {
      "channel": 2,
      "note": 71,
      "start": 25.3705,
      "duration": 0.0163,
      "velocity": 102,
      "chip": "ym2612"
    },
    {
      "channel": 3,
      "note": 71,
      "start": 25.3713,
      "duration": 0.0501,
      "velocity": 98,
      "chip": "ym2612"
    },
    {
      "channel": 4,
      "note": 68,
      "start": 25.3721,
      "duration": 0.0496,
      "velocity": 98,
      "chip": "ym2612"
    },
    {
      "channel": 0,
      "note": 71,
      "start": 25.4206,
      "duration": 0.0055,
      "velocity": 98,
      "chip": "ym2612"
    },
    {
      "channel": 0,
      "note": 68,
      "start": 25.4268,
      "duration": 0.0018,
      "velocity": 98,
      "chip": "ym2612"
    },
    {
      "channel": 0,
      "note": 66,
      "start": 25.4292,
      "duration": 0.0062,
      "velocity": 98,
      "chip": "ym2612"
    },
    {
      "channel": 0,
      "note": 63,
      "start": 25.4361,
      "duration": 0.0025,
      "velocity": 98,
      "chip": "ym2612"
    },
    {
      "channel": 0,
      "note": 61,
      "start": 25.4393,
      "duration": 0.0055,
      "velocity": 98,
      "chip": "ym2612"
    },
    {
      "channel": 2,
      "note": 70,
      "start": 25.44,
      "duration": 0.0166,
      "velocity": 102,
      "chip": "ym2612"
    },
    {
      "channel": 0,
      "note": 59,
      "start": 25.4454,
      "duration": 0.0021,
      "velocity": 98,
      "chip": "ym2612"
    },
    {
      "channel": 0,
      "note": 56,
      "start": 25.4481,
      "duration": 0.0078,
      "velocity": 98,
      "chip": "ym2612"
    },
    {
      "channel": 0,
      "note": 54,
      "start": 25.4565,
      "duration": 0.0327,
      "velocity": 98,
      "chip": "ym2612"
    },
    {
      "channel": 0,
      "note": 51,
      "start": 25.4898,
      "duration": 0.0327,
      "velocity": 98,
      "chip": "ym2612"
    },
    {
      "channel": 1,
      "note": 59,
      "start": 25.4905,
      "duration": 0.0994,
      "velocity": 104,
      "chip": "ym2612"
    },
    {
      "channel": 1,
      "note": 61,
      "start": 25.5903,
      "duration": 0.0226,
      "velocity": 104,
      "chip": "ym2612"
    },
    {
      "channel": 2,
      "note": 66,
      "start": 25.591,
      "duration": 0.012,
      "velocity": 102,
      "chip": "ym2612"
    },
    {
      "channel": 0,
      "note": 87,
      "start": 25.6126,
      "duration": 0.098,
      "velocity": 100,
      "chip": "ym2612"
    },
    {
      "channel": 1,
      "note": 54,
      "start": 25.6134,
      "duration": 0.0468,
      "velocity": 104,
      "chip": "ym2612"
    },
    {
      "channel": 1,
      "note": 56,
      "start": 25.6608,
      "duration": 0.1678,
      "velocity": 104,
      "chip": "ym2612"
    },
    {
      "channel": 2,
      "note": 68,
      "start": 25.6615,
      "duration": 0.0173,
      "velocity": 102,
      "chip": "ym2612"
    },
    {
      "channel": 4,
      "note": 87,
      "start": 25.6707,
      "duration": 0.1657,
      "velocity": 100,
      "chip": "ym2612"
    },
    {
      "channel": 0,
      "note": 80,
      "start": 25.7113,
      "duration": 0.0327,
      "velocity": 100,
      "chip": "ym2612"
    },
    {
      "channel": 2,
      "note": 66,
      "start": 25.7122,
      "duration": 0.0828,
      "velocity": 102,
      "chip": "ym2612"
    },
    {
      "channel": 0,
      "note": 79,
      "start": 25.7446,
      "duration": 0.0494,
      "velocity": 100,
      "chip": "ym2612"
    },
    {
      "channel": 0,
      "note": 78,
      "start": 25.7946,
      "duration": 0.0332,
      "velocity": 100,
      "chip": "ym2612"
    },
    {
      "channel": 0,
      "note": 75,
      "start": 25.8285,
      "duration": 0.0065,
      "velocity": 100,
      "chip": "ym2612"
    },
    {
      "channel": 1,
      "note": 56,
      "start": 25.829,
      "duration": 0.0222,
      "velocity": 104,
      "chip": "ym2612"
    },
    {
      "channel": 2,
      "note": 63,
      "start": 25.8297,
      "duration": 0.0161,
      "velocity": 102,
      "chip": "ym2612"
    },
    {
      "channel": 0,
      "note": 73,
      "start": 25.8356,
      "duration": 0.0058,
      "velocity": 100,
      "chip": "ym2612"
    },
    {
      "channel": 4,
      "note": 80,
      "start": 25.8371,
      "duration": 0.0058,
      "velocity": 100,
      "chip": "ym2612"
    },
    {
      "channel": 0,
      "note": 71,
      "start": 25.842,
      "duration": 0.0084,
      "velocity": 100,
      "chip": "ym2612"
    },
    {
      "channel": 4,
      "note": 79,
      "start": 25.8435,
      "duration": 0.0088,
      "velocity": 100,
      "chip": "ym2612"
    },
    {
      "channel": 0,
      "note": 68,
      "start": 25.8511,
      "duration": 0.0093,
      "velocity": 100,
      "chip": "ym2612"
    },
    {
      "channel": 2,
      "note": 66,
      "start": 25.8521,
      "duration": 0.0139,
      "velocity": 102,
      "chip": "ym2612"
    },
    {
      "channel": 4,
      "note": 78,
      "start": 25.8529,
      "duration": 0.0052,
      "velocity": 100,
      "chip": "ym2612"
    },
    {
      "channel": 4,
      "note": 75,
      "start": 25.8588,
      "duration": 0.0048,
      "velocity": 100,
      "chip": "ym2612"
    },
    {
      "channel": 4,
      "note": 73,
      "start": 25.8642,
      "duration": 0.0067,
      "velocity": 100,
      "chip": "ym2612"
    },
    {
      "channel": 4,
      "note": 71,
      "start": 25.8715,
      "duration": 0.0042,
      "velocity": 100,
      "chip": "ym2612"
    },
    {
      "channel": 4,
      "note": 68,
      "start": 25.8764,
      "duration": 0.0061,
      "velocity": 100,
      "chip": "ym2612"
    },
    {
      "channel": 2,
      "note": 66,
      "start": 25.9007,
      "duration": 0.0827,
      "velocity": 102,
      "chip": "ym2612"
    },
    {
      "channel": 0,
      "note": 85,
      "start": 26.0173,
      "duration": 0.2332,
      "velocity": 100,
      "chip": "ym2612"
    },
    {
      "channel": 2,
      "note": 66,
      "start": 26.1343,
      "duration": 0.0828,
      "velocity": 102,
      "chip": "ym2612"
    },
    {
      "channel": 4,
      "note": 85,
      "start": 26.1681,
      "duration": 0.1416,
      "velocity": 100,
      "chip": "ym2612"
    },
    {
      "channel": 0,
      "note": 73,
      "start": 26.2511,
      "duration": 0.0068,
      "velocity": 100,
      "chip": "ym2612"
    },
    {
      "channel": 1,
      "note": 59,
      "start": 26.2518,
      "duration": 0.0506,
      "velocity": 104,
      "chip": "ym2612"
    },
    {
      "channel": 2,
      "note": 68,
      "start": 26.2525,
      "duration": 0.016,
      "velocity": 102,
      "chip": "ym2612"
    },
    {
      "channel": 0,
      "note": 72,
      "start": 26.2586,
      "duration": 0.0054,
      "velocity": 100,
      "chip": "ym2612"
    },
    {
      "channel": 0,
      "note": 71,
      "start": 26.2646,
      "duration": 0.037,
      "velocity": 100,
      "chip": "ym2612"
    },
    {
      "channel": 0,
      "note": 70,
      "start": 26.3022,
      "duration": 0.0062,
      "velocity": 100,
      "chip": "ym2612"
    },
    {
      "channel": 2,
      "note": 66,
      "start": 26.3033,
      "duration": 0.016,
      "velocity": 102,
      "chip": "ym2612"
    },
    {
      "channel": 0,
      "note": 68,
      "start": 26.3091,
      "duration": 0.0054,
      "velocity": 100,
      "chip": "ym2612"
    },
    {
      "channel": 4,
      "note": 73,
      "start": 26.3103,
      "duration": 0.0054,
      "velocity": 100,
      "chip": "ym2612"
    },
    {
      "channel": 0,
      "note": 67,
      "start": 26.3151,
      "duration": 0.0376,
      "velocity": 100,
      "chip": "ym2612"
    },
    {
      "channel": 4,
      "note": 72,
      "start": 26.3163,
      "duration": 0.0376,
      "velocity": 100,
      "chip": "ym2612"
    },
    {
      "channel": 0,
      "note": 66,
      "start": 26.3533,
      "duration": 0.0086,
      "velocity": 100,
      "chip": "ym2612"
    },
    {
      "channel": 4,
      "note": 71,
      "start": 26.3546,
      "duration": 0.0051,
      "velocity": 100,
      "chip": "ym2612"
    },
    {
      "channel": 4,
      "note": 70,
      "start": 26.3604,
      "duration": 0.0041,
      "velocity": 100,
      "chip": "ym2612"
    },
    {
      "channel": 4,
      "note": 68,
      "start": 26.3652,
      "duration": 0.0051,
      "velocity": 100,
      "chip": "ym2612"
    },
    {
      "channel": 2,
      "note": 66,
      "start": 26.37,
      "duration": 0.0166,
      "velocity": 102,
      "chip": "ym2612"
    },
    {
      "channel": 4,
      "note": 67,
      "start": 26.3709,
      "duration": 0.0076,
      "velocity": 100,
      "chip": "ym2612"
    },
    {
      "channel": 4,
      "note": 66,
      "start": 26.3791,
      "duration": 0.0246,
      "velocity": 100,
      "chip": "ym2612"
    },
    {
      "channel": 1,
      "note": 59,
      "start": 26.4205,
      "duration": 0.1161,
      "velocity": 104,
      "chip": "ym2612"
    },
    {
      "channel": 1,
      "note": 61,
      "start": 26.5371,
      "duration": 0.1177,
      "velocity": 104,
      "chip": "ym2612"
    },
    {
      "channel": 2,
      "note": 71,
      "start": 26.5378,
      "duration": 0.0824,
      "velocity": 102,
      "chip": "ym2612"
    },
    {
      "channel": 0,
      "note": 83,
      "start": 26.6547,
      "duration": 0.0505,
      "velocity": 100,
      "chip": "ym2612"
    },
    {
      "channel": 1,
      "note": 54,
      "start": 26.6554,
      "duration": 0.0506,
      "velocity": 104,
      "chip": "ym2612"
    },
    {
      "channel": 0,
      "note": 85,
      "start": 26.7058,
      "duration": 0.0501,
      "velocity": 100,
      "chip": "ym2612"
    },
    {
      "channel": 1,
      "note": 56,
      "start": 26.7065,
      "duration": 0.1013,
      "velocity": 104,
      "chip": "ym2612"
    },
    {
      "channel": 2,
      "note": 68,
      "start": 26.7072,
      "duration": 0.0156,
      "velocity": 102,
      "chip": "ym2612"
    },
    {
      "channel": 4,
      "note": 83,
      "start": 26.7142,
      "duration": 0.0502,
      "velocity": 100,
      "chip": "ym2612"
    },
    {
      "channel": 0,
      "note": 83,
      "start": 26.7566,
      "duration": 0.0504,
      "velocity": 100,
      "chip": "ym2612"
    },
    {
      "channel": 2,
      "note": 66,
      "start": 26.7576,
      "duration": 0.0163,
      "velocity": 102,
      "chip": "ym2612"
    },
    {
      "channel": 4,
      "note": 85,
      "start": 26.765,
      "duration": 0.0502,
      "velocity": 100,
      "chip": "ym2612"
    },
    {
      "channel": 0,
      "note": 80,
      "start": 26.8077,
      "duration": 0.018,
      "velocity": 100,
      "chip": "ym2612"
    },
    {
      "channel": 1,
      "note": 56,
      "start": 26.8082,
      "duration": 0.0178,
      "velocity": 104,
      "chip": "ym2612"
    },
    {
      "channel": 2,
      "note": 63,
      "start": 26.8089,
      "duration": 0.0148,
      "velocity": 102,
      "chip": "ym2612"
    },
    {
      "channel": 4,
      "note": 83,
      "start": 26.8159,
      "duration": 0.0173,
      "velocity": 100,
      "chip": "ym2612"
    },
    {
      "channel": 4,
      "note": 80,
      "start": 26.8338,
      "duration": 0.016,
      "velocity": 100,
      "chip": "ym2612"
    },
    {
      "channel": 2,
      "note": 66,
      "start": 26.8423,
      "duration": 0.0114,
      "velocity": 102,
      "chip": "ym2612"
    },
    {
      "channel": 2,
      "note": 73,
      "start": 26.8583,
      "duration": 0.0104,
      "velocity": 102,
      "chip": "ym2612"
    },
    {
      "channel": 1,
      "note": 56,
      "start": 26.8803,
      "duration": 0.05,
      "velocity": 104,
      "chip": "ym2612"
    },
    {
      "channel": 2,
      "note": 71,
      "start": 26.881,
      "duration": 0.0163,
      "velocity": 102,
      "chip": "ym2612"
    },
    {
      "channel": 0,
      "note": 66,
      "start": 27.0481,
      "duration": 0.05,
      "velocity": 100,
      "chip": "ym2612"
    },
    {
      "channel": 1,
      "note": 54,
      "start": 27.0488,
      "duration": 0.0501,
      "velocity": 104,
      "chip": "ym2612"
    },
    {
      "channel": 2,
      "note": 70,
      "start": 27.0495,
      "duration": 0.0159,
      "velocity": 102,
      "chip": "ym2612"
    },
    {
      "channel": 0,
      "note": 68,
      "start": 27.0988,
      "duration": 0.0999,
      "velocity": 100,
      "chip": "ym2612"
    },
    {
      "channel": 4,
      "note": 66,
      "start": 27.1327,
      "duration": 0.0771,
      "velocity": 100,
      "chip": "ym2612"
    },
    {
      "channel": 0,
      "note": 66,
      "start": 27.1993,
      "duration": 0.0504,
      "velocity": 100,
      "chip": "ym2612"
    },
    {
      "channel": 1,
      "note": 56,
      "start": 27.2,
      "duration": 0.0505,
      "velocity": 104,
      "chip": "ym2612"
    },
    {
      "channel": 2,
      "note": 71,
      "start": 27.2007,
      "duration": 0.0158,
      "velocity": 102,
      "chip": "ym2612"
    },
    {
      "channel": 4,
      "note": 68,
      "start": 27.2103,
      "duration": 0.0485,
      "velocity": 100,
      "chip": "ym2612"
    },
    {
      "channel": 0,
      "note": 68,
      "start": 27.2503,
      "duration": 0.0184,
      "velocity": 100,
      "chip": "ym2612"
    },
    {
      "channel": 4,
      "note": 66,
      "start": 27.2595,
      "duration": 0.0166,
      "velocity": 100,
      "chip": "ym2612"
    },
    {
      "channel": 0,
      "note": 71,
      "start": 27.2693,
      "duration": 0.05,
      "velocity": 100,
      "chip": "ym2612"
    },
    {
      "channel": 2,
      "note": 70,
      "start": 27.2702,
      "duration": 0.0162,
      "velocity": 102,
      "chip": "ym2612"
    },
    {
      "channel": 4,
      "note": 68,
      "start": 27.2767,
      "duration": 0.0764,
      "velocity": 100,
      "chip": "ym2612"
    },
    {
      "channel": 1,
      "note": 66,
      "start": 27.3201,
      "duration": 0.1171,
      "velocity": 104,
      "chip": "ym2612"
    },
    {
      "channel": 4,
      "note": 71,
      "start": 27.3537,
      "duration": 0.091,
      "velocity": 100,
      "chip": "ym2612"
    },
    {
      "channel": 0,
      "note": 68,
      "start": 27.4371,
      "duration": 0.0203,
      "velocity": 100,
      "chip": "ym2612"
    },
    {
      "channel": 1,
      "note": 68,
      "start": 27.4378,
      "duration": 0.0206,
      "velocity": 104,
      "chip": "ym2612"
    },
    {
      "channel": 2,
      "note": 66,
      "start": 27.4385,
      "duration": 0.0139,
      "velocity": 102,
      "chip": "ym2612"
    },
    {
      "channel": 0,
      "note": 66,
      "start": 27.458,
      "duration": 0.0096,
      "velocity": 100,
      "chip": "ym2612"
    },
    {
      "channel": 1,
      "note": 59,
      "start": 27.4589,
      "duration": 0.0503,
      "velocity": 104,
      "chip": "ym2612"
    },
    {
      "channel": 4,
      "note": 68,
      "start": 27.466,
      "duration": 0.0509,
      "velocity": 100,
      "chip": "ym2612"
    },
    {
      "channel": 0,
      "note": 68,
      "start": 27.4683,
      "duration": 0.0401,
      "velocity": 100,
      "chip": "ym2612"
    },
    {
      "channel": 0,
      "note": 71,
      "start": 27.509,
      "duration": 0.0101,
      "velocity": 100,
      "chip": "ym2612"
    },
    {
      "channel": 1,
      "note": 61,
      "start": 27.5097,
      "duration": 0.1506,
      "velocity": 104,
      "chip": "ym2612"
    },
    {
      "channel": 2,
      "note": 68,
      "start": 27.5104,
      "duration": 0.0159,
      "velocity": 102,
      "chip": "ym2612"
    },
    {
      "channel": 4,
      "note": 66,
      "start": 27.5175,
      "duration": 0.009,
      "velocity": 100,
      "chip": "ym2612"
    },
    {
      "channel": 0,
      "note": 73,
      "start": 27.5197,
      "duration": 0.0226,
      "velocity": 100,
      "chip": "ym2612"
    },
    {
      "channel": 4,
      "note": 68,
      "start": 27.5271,
      "duration": 0.0662,
      "velocity": 100,
      "chip": "ym2612"
    },
    {
      "channel": 0,
      "note": 75,
      "start": 27.5429,
      "duration": 0.066,
      "velocity": 100,
      "chip": "ym2612"
    },
    {
      "channel": 2,
      "note": 66,
      "start": 27.5439,
      "duration": 0.0824,
      "velocity": 102,
      "chip": "ym2612"
    },
    {
      "channel": 4,
      "note": 71,
      "start": 27.594,
      "duration": 0.0494,
      "velocity": 100,
      "chip": "ym2612"
    },
    {
      "channel": 0,
      "note": 78,
      "start": 27.6096,
      "duration": 0.0499,
      "velocity": 100,
      "chip": "ym2612"
    },
    {
      "channel": 4,
      "note": 73,
      "start": 27.644,
      "duration": 0.0267,
      "velocity": 100,
      "chip": "ym2612"
    },
    {
      "channel": 0,
      "note": 80,
      "start": 27.6601,
      "duration": 0.0128,
      "velocity": 100,
      "chip": "ym2612"
    },
    {
      "channel": 1,
      "note": 61,
      "start": 27.6608,
      "duration": 0.0219,
      "velocity": 104,
      "chip": "ym2612"
    },
    {
      "channel": 2,
      "note": 63,
      "start": 27.6615,
      "duration": 0.0152,
      "velocity": 102,
      "chip": "ym2612"
    },
    {
      "channel": 4,
      "note": 75,
      "start": 27.6713,
      "duration": 0.0084,
      "velocity": 100,
      "chip": "ym2612"
    },
    {
      "channel": 0,
      "note": 83,
      "start": 27.6735,
      "duration": 0.0084,
      "velocity": 100,
      "chip": "ym2612"
    },
    {
      "channel": 4,
      "note": 78,
      "start": 27.6804,
      "duration": 0.0089,
      "velocity": 100,
      "chip": "ym2612"
    },
    {
      "channel": 0,
      "note": 92,
      "start": 27.6826,
      "duration": 0.0115,
      "velocity": 100,
      "chip": "ym2612"
    },
    {
      "channel": 2,
      "note": 66,
      "start": 27.6836,
      "duration": 0.0132,
      "velocity": 102,
      "chip": "ym2612"
    },
    {
      "channel": 4,
      "note": 80,
      "start": 27.6899,
      "duration": 0.0094,
      "velocity": 100,
      "chip": "ym2612"
    },
    {
      "channel": 4,
      "note": 83,
      "start": 27.7,
      "duration": 0.008,
      "velocity": 100,
      "chip": "ym2612"
    },
    {
      "channel": 0,
      "note": 92,
      "start": 27.7021,
      "duration": 0.0081,
      "velocity": 100,
      "chip": "ym2612"
    },
    {
      "channel": 4,
      "note": 92,
      "start": 27.7086,
      "duration": 0.0088,
      "velocity": 100,
      "chip": "ym2612"
    },
    {
      "channel": 4,
      "note": 92,
      "start": 27.7242,
      "duration": 0.0084,
      "velocity": 100,
      "chip": "ym2612"
    },
    {
      "channel": 2,
      "note": 66,
      "start": 27.7493,
      "duration": 0.0827,
      "velocity": 102,
      "chip": "ym2612"
    },
    {
      "channel": 0,
      "note": 92,
      "start": 27.8663,
      "duration": 0.049,
      "velocity": 100,
      "chip": "ym2612"
    },
    {
      "channel": 0,
      "note": 92,
      "start": 27.9659,
      "duration": 0.066,
      "velocity": 100,
      "chip": "ym2612"
    },
    {
      "channel": 2,
      "note": 66,
      "start": 27.9667,
      "duration": 0.0821,
      "velocity": 102,
      "chip": "ym2612"
    },
    {
      "channel": 4,
      "note": 92,
      "start": 28.0171,
      "duration": 0.0487,
      "velocity": 100,
      "chip": "ym2612"
    },
    {
      "channel": 1,
      "note": 65,
      "start": 28.0831,
      "duration": 0.0506,
      "velocity": 104,
      "chip": "ym2612"
    },
    {
      "channel": 2,
      "note": 68,
      "start": 28.0838,
      "duration": 0.0163,
      "velocity": 102,
      "chip": "ym2612"
    },
    {
      "channel": 4,
      "note": 92,
      "start": 28.0924,
      "duration": 0.0248,
      "velocity": 100,
      "chip": "ym2612"
    },
    {
      "channel": 1,
      "note": 66,
      "start": 28.1342,
      "duration": 0.0516,
      "velocity": 104,
      "chip": "ym2612"
    },
    {
      "channel": 2,
      "note": 66,
      "start": 28.1349,
      "duration": 0.0163,
      "velocity": 102,
      "chip": "ym2612"
    },
    {
      "channel": 0,
      "note": 92,
      "start": 28.1857,
      "duration": 0.0076,
      "velocity": 100,
      "chip": "ym2612"
    },
    {
      "channel": 0,
      "note": 92,
      "start": 28.2028,
      "duration": 0.0092,
      "velocity": 100,
      "chip": "ym2612"
    },
    {
      "channel": 2,
      "note": 66,
      "start": 28.2035,
      "duration": 0.016,
      "velocity": 102,
      "chip": "ym2612"
    },
    {
      "channel": 4,
      "note": 92,
      "start": 28.2103,
      "duration": 0.0262,
      "velocity": 100,
      "chip": "ym2612"
    },
    {
      "channel": 1,
      "note": 59,
      "start": 28.2533,
      "duration": 0.1161,
      "velocity": 104,
      "chip": "ym2612"
    },
    {
      "channel": 4,
      "note": 92,
      "start": 28.2872,
      "duration": 0.0493,
      "velocity": 100,
      "chip": "ym2612"
    },
    {
      "channel": 1,
      "note": 56,
      "start": 28.3699,
      "duration": 0.1032,
      "velocity": 104,
      "chip": "ym2612"
    },
    {
      "channel": 2,
      "note": 71,
      "start": 28.3706,
      "duration": 0.0824,
      "velocity": 102,
      "chip": "ym2612"
    },
    {
      "channel": 1,
      "note": 59,
      "start": 28.4737,
      "duration": 0.048,
      "velocity": 104,
      "chip": "ym2612"
    },
    {
      "channel": 0,
      "note": 66,
      "start": 28.5215,
      "duration": 0.0505,
      "velocity": 98,
      "chip": "ym2612"
    },
    {
      "channel": 1,
      "note": 61,
      "start": 28.5222,
      "duration": 0.1018,
      "velocity": 104,
      "chip": "ym2612"
    },
    {
      "channel": 2,
      "note": 68,
      "start": 28.5229,
      "duration": 0.0182,
      "velocity": 102,
      "chip": "ym2612"
    },
    {
      "channel": 3,
      "note": 78,
      "start": 28.5237,
      "duration": 0.0501,
      "velocity": 98,
      "chip": "ym2612"
    },
    {
      "channel": 0,
      "note": 68,
      "start": 28.5727,
      "duration": 0.0506,
      "velocity": 98,
      "chip": "ym2612"
    },
    {
      "channel": 2,
      "note": 66,
      "start": 28.5737,
      "duration": 0.0163,
      "velocity": 102,
      "chip": "ym2612"
    },
    {
      "channel": 3,
      "note": 80,
      "start": 28.5744,
      "duration": 0.0508,
      "velocity": 98,
      "chip": "ym2612"
    },
    {
      "channel": 0,
      "note": 63,
      "start": 28.6239,
      "duration": 0.0209,
      "velocity": 98,
      "chip": "ym2612"
    },
    {
      "channel": 1,
      "note": 61,
      "start": 28.6244,
      "duration": 0.0211,
      "velocity": 104,
      "chip": "ym2612"
    },
    {
      "channel": 2,
      "note": 63,
      "start": 28.6251,
      "duration": 0.0149,
      "velocity": 102,
      "chip": "ym2612"
    },
    {
      "channel": 3,
      "note": 75,
      "start": 28.6259,
      "duration": 0.0202,
      "velocity": 98,
      "chip": "ym2612"
    },
    {
      "channel": 0,
      "note": 66,
      "start": 28.6454,
      "duration": 0.0174,
      "velocity": 98,
      "chip": "ym2612"
    },
    {
      "channel": 3,
      "note": 78,
      "start": 28.6468,
      "duration": 0.0175,
      "velocity": 98,
      "chip": "ym2612"
    },
    {
      "channel": 0,
      "note": 68,
      "start": 28.6634,
      "duration": 0.0206,
      "velocity": 98,
      "chip": "ym2612"
    },
    {
      "channel": 2,
      "note": 66,
      "start": 28.6642,
      "duration": 0.0132,
      "velocity": 102,
      "chip": "ym2612"
    },
    {
      "channel": 3,
      "note": 80,
      "start": 28.665,
      "duration": 0.0201,
      "velocity": 98,
      "chip": "ym2612"
    },
    {
      "channel": 2,
      "note": 73,
      "start": 28.685,
      "duration": 0.0109,
      "velocity": 102,
      "chip": "ym2612"
    },
    {
      "channel": 0,
      "note": 75,
      "start": 28.6993,
      "duration": 0.05,
      "velocity": 98,
      "chip": "ym2612"
    },
    {
      "channel": 1,
      "note": 61,
      "start": 28.7,
      "duration": 0.0496,
      "velocity": 104,
      "chip": "ym2612"
    },
    {
      "channel": 2,
      "note": 71,
      "start": 28.7007,
      "duration": 0.0165,
      "velocity": 102,
      "chip": "ym2612"
    },
    {
      "channel": 3,
      "note": 71,
      "start": 28.7015,
      "duration": 0.0487,
      "velocity": 98,
      "chip": "ym2612"
    },
    {
      "channel": 4,
      "note": 68,
      "start": 28.7023,
      "duration": 0.0482,
      "velocity": 98,
      "chip": "ym2612"
    },
    {
      "channel": 0,
      "note": 73,
      "start": 28.8671,
      "duration": 0.0237,
      "velocity": 98,
      "chip": "ym2612"
    },
    {
      "channel": 1,
      "note": 65,
      "start": 28.8678,
      "duration": 0.0233,
      "velocity": 104,
      "chip": "ym2612"
    },
    {
      "channel": 2,
      "note": 70,
      "start": 28.8685,
      "duration": 0.0165,
      "velocity": 102,
      "chip": "ym2612"
    },
    {
      "channel": 3,
      "note": 70,
      "start": 28.8693,
      "duration": 0.0228,
      "velocity": 98,
      "chip": "ym2612"
    },
    {
      "channel": 4,
      "note": 66,
      "start": 28.8701,
      "duration": 0.0223,
      "velocity": 98,
      "chip": "ym2612"
    },
    {
      "channel": 1,
      "note": 71,
      "start": 28.8917,
      "duration": 0.051,
      "velocity": 104,
      "chip": "ym2612"
    },
    {
      "channel": 0,
      "note": 75,
      "start": 28.9425,
      "duration": 0.0508,
      "velocity": 98,
      "chip": "ym2612"
    },
    {
      "channel": 1,
      "note": 73,
      "start": 28.9432,
      "duration": 0.0509,
      "velocity": 104,
      "chip": "ym2612"
    },
    {
      "channel": 2,
      "note": 71,
      "start": 28.9439,
      "duration": 0.0163,
      "velocity": 102,
      "chip": "ym2612"
    },
    {
      "channel": 3,
      "note": 71,
      "start": 28.9447,
      "duration": 0.0504,
      "velocity": 98,
      "chip": "ym2612"
    },
    {
      "channel": 4,
      "note": 68,
      "start": 28.9455,
      "duration": 0.0499,
      "velocity": 98,
      "chip": "ym2612"
    },
    {
      "channel": 0,
      "note": 71,
      "start": 28.9939,
      "duration": 0.0061,
      "velocity": 98,
      "chip": "ym2612"
    },
    {
      "channel": 1,
      "note": 68,
      "start": 28.9946,
      "duration": 0.0199,
      "velocity": 104,
      "chip": "ym2612"
    },
    {
      "channel": 0,
      "note": 68,
      "start": 29.0007,
      "duration": 0.0021,
      "velocity": 98,
      "chip": "ym2612"
    },
    {
      "channel": 0,
      "note": 66,
      "start": 29.0034,
      "duration": 0.0045,
      "velocity": 98,
      "chip": "ym2612"
    },
    {
      "channel": 0,
      "note": 63,
      "start": 29.0085,
      "duration": 0.0052,
      "velocity": 98,
      "chip": "ym2612"
    },
    {
      "channel": 0,
      "note": 61,
      "start": 29.0144,
      "duration": 0.0063,
      "velocity": 98,
      "chip": "ym2612"
    },
    {
      "channel": 1,
      "note": 71,
      "start": 29.0151,
      "duration": 0.0181,
      "velocity": 104,
      "chip": "ym2612"
    },
    {
      "channel": 2,
      "note": 70,
      "start": 29.0158,
      "duration": 0.0144,
      "velocity": 102,
      "chip": "ym2612"
    },
    {
      "channel": 0,
      "note": 59,
      "start": 29.0214,
      "duration": 0.0023,
      "velocity": 98,
      "chip": "ym2612"
    },
    {
      "channel": 0,
      "note": 56,
      "start": 29.0243,
      "duration": 0.0048,
      "velocity": 98,
      "chip": "ym2612"
    },
    {
      "channel": 0,
      "note": 54,
      "start": 29.0298,
      "duration": 0.0027,
      "velocity": 98,
      "chip": "ym2612"
    },
    {
      "channel": 0,
      "note": 51,
      "start": 29.0331,
      "duration": 0.008,
      "velocity": 98,
      "chip": "ym2612"
    },
    {
      "channel": 1,
      "note": 66,
      "start": 29.0338,
      "duration": 0.0178,
      "velocity": 104,
      "chip": "ym2612"
    },
    {
      "channel": 1,
      "note": 68,
      "start": 29.0521,
      "duration": 0.0541,
      "velocity": 104,
      "chip": "ym2612"
    },
    {
      "channel": 2,
      "note": 66,
      "start": 29.0528,
      "duration": 0.0164,
      "velocity": 102,
      "chip": "ym2612"
    },
    {
      "channel": 1,
      "note": 51,
      "start": 29.1068,
      "duration": 0.0466,
      "velocity": 104,
      "chip": "ym2612"
    },
    {
      "channel": 3,
      "note": 64,
      "start": 29.1105,
      "duration": 0.0442,
      "velocity": 102,
      "chip": "ym2612"
    },
    {
      "channel": 1,
      "note": 52,
      "start": 29.1539,
      "duration": 0.1673,
      "velocity": 104,
      "chip": "ym2612"
    },
    {
      "channel": 2,
      "note": 66,
      "start": 29.1546,
      "duration": 0.0824,
      "velocity": 102,
      "chip": "ym2612"
    },
    {
      "channel": 2,
      "note": 68,
      "start": 29.2714,
      "duration": 0.0168,
      "velocity": 102,
      "chip": "ym2612"
    },
    {
      "channel": 3,
      "note": 71,
      "start": 29.2722,
      "duration": 0.0502,
      "velocity": 102,
      "chip": "ym2612"
    },
    {
      "channel": 4,
      "note": 68,
      "start": 29.273,
      "duration": 0.0497,
      "velocity": 102,
      "chip": "ym2612"
    },
    {
      "channel": 1,
      "note": 52,
      "start": 29.3215,
      "duration": 0.1179,
      "velocity": 104,
      "chip": "ym2612"
    },
    {
      "channel": 2,
      "note": 66,
      "start": 29.3222,
      "duration": 0.0826,
      "velocity": 102,
      "chip": "ym2612"
    },
    {
      "channel": 0,
      "note": 107,
      "start": 29.4393,
      "duration": 0.0595,
      "velocity": 101,
      "chip": "ym2612"
    },
    {
      "channel": 2,
      "note": 71,
      "start": 29.4403,
      "duration": 0.0121,
      "velocity": 102,
      "chip": "ym2612"
    },
    {
      "channel": 1,
      "note": 52,
      "start": 29.455,
      "duration": 0.0207,
      "velocity": 104,
      "chip": "ym2612"
    },
    {
      "channel": 3,
      "note": 71,
      "start": 29.4561,
      "duration": 0.0209,
      "velocity": 102,
      "chip": "ym2612"
    },
    {
      "channel": 4,
      "note": 68,
      "start": 29.4568,
      "duration": 0.0209,
      "velocity": 102,
      "chip": "ym2612"
    },
    {
      "channel": 1,
      "note": 51,
      "start": 29.4761,
      "duration": 0.0746,
      "velocity": 104,
      "chip": "ym2612"
    },
    {
      "channel": 2,
      "note": 68,
      "start": 29.4768,
      "duration": 0.0148,
      "velocity": 102,
      "chip": "ym2612"
    },
    {
      "channel": 3,
      "note": 64,
      "start": 29.4776,
      "duration": 0.1235,
      "velocity": 102,
      "chip": "ym2612"
    },
    {
      "channel": 0,
      "note": 102,
      "start": 29.4995,
      "duration": 0.012,
      "velocity": 101,
      "chip": "ym2612"
    },
    {
      "channel": 2,
      "note": 66,
      "start": 29.5005,
      "duration": 0.0159,
      "velocity": 102,
      "chip": "ym2612"
    },
    {
      "channel": 0,
      "note": 103,
      "start": 29.5122,
      "duration": 0.0378,
      "velocity": 101,
      "chip": "ym2612"
    },
    {
      "channel": 0,
      "note": 104,
      "start": 29.5505,
      "duration": 0.3178,
      "velocity": 101,
      "chip": "ym2612"
    },
    {
      "channel": 1,
      "note": 54,
      "start": 29.5512,
      "duration": 0.0492,
      "velocity": 104,
      "chip": "ym2612"
    },
    {
      "channel": 2,
      "note": 71,
      "start": 29.552,
      "duration": 0.0155,
      "velocity": 102,
      "chip": "ym2612"
    },
    {
      "channel": 3,
      "note": 66,
      "start": 29.6017,
      "duration": 0.1161,
      "velocity": 102,
      "chip": "ym2612"
    },
    {
      "channel": 3,
      "note": 73,
      "start": 29.7185,
      "duration": 0.0505,
      "velocity": 102,
      "chip": "ym2612"
    },
    {
      "channel": 4,
      "note": 70,
      "start": 29.7192,
      "duration": 0.05,
      "velocity": 102,
      "chip": "ym2612"
    },
    {
      "channel": 2,
      "note": 71,
      "start": 29.7688,
      "duration": 0.0828,
      "velocity": 102,
      "chip": "ym2612"
    },
    {
      "channel": 0,
      "note": 102,
      "start": 29.869,
      "duration": 0.1125,
      "velocity": 101,
      "chip": "ym2612"
    },
    {
      "channel": 2,
      "note": 68,
      "start": 29.8698,
      "duration": 0.0121,
      "velocity": 102,
      "chip": "ym2612"
    },
    {
      "channel": 3,
      "note": 73,
      "start": 29.8873,
      "duration": 0.0222,
      "velocity": 102,
      "chip": "ym2612"
    },
    {
      "channel": 4,
      "note": 70,
      "start": 29.888,
      "duration": 0.0222,
      "velocity": 102,
      "chip": "ym2612"
    },
    {
      "channel": 1,
      "note": 51,
      "start": 29.9086,
      "duration": 0.0737,
      "velocity": 104,
      "chip": "ym2612"
    },
    {
      "channel": 2,
      "note": 66,
      "start": 29.9093,
      "duration": 0.0163,
      "velocity": 102,
      "chip": "ym2612"
    },
    {
      "channel": 3,
      "note": 66,
      "start": 29.9101,
      "duration": 0.0732,
      "velocity": 102,
      "chip": "ym2612"
    },
    {
      "channel": 2,
      "note": 71,
      "start": 29.9604,
      "duration": 0.0145,
      "velocity": 102,
      "chip": "ym2612"
    },
    {
      "channel": 0,
      "note": 97,
      "start": 29.9822,
      "duration": 0.0097,
      "velocity": 101,
      "chip": "ym2612"
    },
    {
      "channel": 1,
      "note": 54,
      "start": 29.9828,
      "duration": 0.0498,
      "velocity": 104,
      "chip": "ym2612"
    },
    {
      "channel": 3,
      "note": 68,
      "start": 29.984,
      "duration": 0.0504,
      "velocity": 102,
      "chip": "ym2612"
    },
    {
      "channel": 0,
      "note": 98,
      "start": 29.9925,
      "duration": 0.0394,
      "velocity": 101,
      "chip": "ym2612"
    },
    {
      "channel": 0,
      "note": 95,
      "start": 30.0325,
      "duration": 0.1165,
      "velocity": 101,
      "chip": "ym2612"
    },
    {
      "channel": 1,
      "note": 56,
      "start": 30.0332,
      "duration": 0.1501,
      "velocity": 104,
      "chip": "ym2612"
    },
    {
      "channel": 2,
      "note": 73,
      "start": 30.0343,
      "duration": 0.0816,
      "velocity": 102,
      "chip": "ym2612"
    },
    {
      "channel": 0,
      "note": 92,
      "start": 30.1498,
      "duration": 0.1505,
      "velocity": 101,
      "chip": "ym2612"
    },
    {
      "channel": 2,
      "note": 71,
      "start": 30.1507,
      "duration": 0.0165,
      "velocity": 102,
      "chip": "ym2612"
    },
    {
      "channel": 3,
      "note": 75,
      "start": 30.1515,
      "duration": 0.0331,
      "velocity": 102,
      "chip": "ym2612"
    },
    {
      "channel": 4,
      "note": 71,
      "start": 30.1523,
      "duration": 0.0326,
      "velocity": 102,
      "chip": "ym2612"
    },
    {
      "channel": 1,
      "note": 56,
      "start": 30.1838,
      "duration": 0.1173,
      "velocity": 104,
      "chip": "ym2612"
    },
    {
      "channel": 2,
      "note": 68,
      "start": 30.1844,
      "duration": 0.0826,
      "velocity": 102,
      "chip": "ym2612"
    },
    {
      "channel": 0,
      "note": 95,
      "start": 30.3009,
      "duration": 0.0396,
      "velocity": 101,
      "chip": "ym2612"
    },
    {
      "channel": 2,
      "note": 71,
      "start": 30.3019,
      "duration": 0.0121,
      "velocity": 102,
      "chip": "ym2612"
    },
    {
      "channel": 1,
      "note": 56,
      "start": 30.3188,
      "duration": 0.0224,
      "velocity": 104,
      "chip": "ym2612"
    },
    {
      "channel": 3,
      "note": 75,
      "start": 30.3199,
      "duration": 0.0227,
      "velocity": 102,
      "chip": "ym2612"
    },
    {
      "channel": 4,
      "note": 71,
      "start": 30.3207,
      "duration": 0.0227,
      "velocity": 102,
      "chip": "ym2612"
    },
    {
      "channel": 0,
      "note": 97,
      "start": 30.3411,
      "duration": 0.0725,
      "velocity": 101,
      "chip": "ym2612"
    },
    {
      "channel": 1,
      "note": 54,
      "start": 30.3418,
      "duration": 0.0211,
      "velocity": 104,
      "chip": "ym2612"
    },
    {
      "channel": 2,
      "note": 68,
      "start": 30.3425,
      "duration": 0.0148,
      "velocity": 102,
      "chip": "ym2612"
    },
    {
      "channel": 3,
      "note": 68,
      "start": 30.3433,
      "duration": 0.1224,
      "velocity": 102,
      "chip": "ym2612"
    },
    {
      "channel": 1,
      "note": 51,
      "start": 30.3635,
      "duration": 0.051,
      "velocity": 104,
      "chip": "ym2612"
    },
    {
      "channel": 2,
      "note": 66,
      "start": 30.3642,
      "duration": 0.0163,
      "velocity": 102,
      "chip": "ym2612"
    },
    {
      "channel": 0,
      "note": 98,
      "start": 30.4144,
      "duration": 0.0499,
      "velocity": 101,
      "chip": "ym2612"
    },
    {
      "channel": 1,
      "note": 56,
      "start": 30.415,
      "duration": 0.1509,
      "velocity": 104,
      "chip": "ym2612"
    },
    {
      "channel": 2,
      "note": 71,
      "start": 30.4161,
      "duration": 0.0155,
      "velocity": 102,
      "chip": "ym2612"
    },
    {
      "channel": 0,
      "note": 99,
      "start": 30.4649,
      "duration": 0.1002,
      "velocity": 101,
      "chip": "ym2612"
    },
    {
      "channel": 3,
      "note": 68,
      "start": 30.4661,
      "duration": 0.1006,
      "velocity": 102,
      "chip": "ym2612"
    },
    {
      "channel": 4,
      "note": 71,
      "start": 30.4667,
      "duration": 0.1007,
      "velocity": 102,
      "chip": "ym2612"
    },
    {
      "channel": 0,
      "note": 102,
      "start": 30.5658,
      "duration": 0.05,
      "velocity": 101,
      "chip": "ym2612"
    },
    {
      "channel": 1,
      "note": 54,
      "start": 30.5665,
      "duration": 0.1668,
      "velocity": 104,
      "chip": "ym2612"
    },
    {
      "channel": 3,
      "note": 76,
      "start": 30.5673,
      "duration": 0.167,
      "velocity": 102,
      "chip": "ym2612"
    },
    {
      "channel": 4,
      "note": 73,
      "start": 30.5681,
      "duration": 0.1669,
      "velocity": 102,
      "chip": "ym2612"
    },
    {
      "channel": 2,
      "note": 71,
      "start": 30.6173,
      "duration": 0.0817,
      "velocity": 102,
      "chip": "ym2612"
    },
    {
      "channel": 0,
      "note": 102,
      "start": 30.7332,
      "duration": 0.0219,
      "velocity": 101,
      "chip": "ym2612"
    },
    {
      "channel": 1,
      "note": 56,
      "start": 30.7338,
      "duration": 0.0439,
      "velocity": 104,
      "chip": "ym2612"
    },
    {
      "channel": 3,
      "note": 75,
      "start": 30.7349,
      "duration": 0.0442,
      "velocity": 102,
      "chip": "ym2612"
    },
    {
      "channel": 4,
      "note": 71,
      "start": 30.7357,
      "duration": 0.0443,
      "velocity": 102,
      "chip": "ym2612"
    },
    {
      "channel": 2,
      "note": 71,
      "start": 30.7563,
      "duration": 0.014,
      "velocity": 102,
      "chip": "ym2612"
    },
    {
      "channel": 0,
      "note": 102,
      "start": 30.7776,
      "duration": 0.0509,
      "velocity": 101,
      "chip": "ym2612"
    },
    {
      "channel": 1,
      "note": 59,
      "start": 30.7783,
      "duration": 0.0729,
      "velocity": 104,
      "chip": "ym2612"
    },
    {
      "channel": 2,
      "note": 73,
      "start": 30.779,
      "duration": 0.0165,
      "velocity": 102,
      "chip": "ym2612"
    },
    {
      "channel": 3,
      "note": 73,
      "start": 30.7798,
      "duration": 0.0729,
      "velocity": 102,
      "chip": "ym2612"
    },
    {
      "channel": 4,
      "note": 70,
      "start": 30.7806,
      "duration": 0.0729,
      "velocity": 102,
      "chip": "ym2612"
    },
    {
      "channel": 2,
      "note": 68,
      "start": 30.8297,
      "duration": 0.0142,
      "velocity": 102,
      "chip": "ym2612"
    },
    {
      "channel": 1,
      "note": 51,
      "start": 30.8517,
      "duration": 0.0327,
      "velocity": 104,
      "chip": "ym2612"
    },
    {
      "channel": 2,
      "note": 71,
      "start": 30.8524,
      "duration": 0.0156,
      "velocity": 102,
      "chip": "ym2612"
    },
    {
      "channel": 3,
      "note": 64,
      "start": 30.8533,
      "duration": 0.0324,
      "velocity": 102,
      "chip": "ym2612"
    },
    {
      "channel": 1,
      "note": 52,
      "start": 30.8849,
      "duration": 0.1673,
      "velocity": 104,
      "chip": "ym2612"
    },
    {
      "channel": 2,
      "note": 68,
      "start": 30.8856,
      "duration": 0.0824,
      "velocity": 102,
      "chip": "ym2612"
    },
    {
      "channel": 2,
      "note": 66,
      "start": 31.0024,
      "duration": 0.0167,
      "velocity": 102,
      "chip": "ym2612"
    },
    {
      "channel": 3,
      "note": 71,
      "start": 31.0032,
      "duration": 0.0501,
      "velocity": 102,
      "chip": "ym2612"
    },
    {
      "channel": 4,
      "note": 68,
      "start": 31.0039,
      "duration": 0.0497,
      "velocity": 102,
      "chip": "ym2612"
    },
    {
      "channel": 1,
      "note": 52,
      "start": 31.0525,
      "duration": 0.1179,
      "velocity": 104,
      "chip": "ym2612"
    },
    {
      "channel": 2,
      "note": 71,
      "start": 31.0532,
      "duration": 0.0826,
      "velocity": 102,
      "chip": "ym2612"
    },
    {
      "channel": 0,
      "note": 107,
      "start": 31.1702,
      "duration": 0.0602,
      "velocity": 101,
      "chip": "ym2612"
    },
    {
      "channel": 1,
      "note": 52,
      "start": 31.188,
      "duration": 0.0208,
      "velocity": 104,
      "chip": "ym2612"
    },
    {
      "channel": 3,
      "note": 71,
      "start": 31.1892,
      "duration": 0.021,
      "velocity": 102,
      "chip": "ym2612"
    },
    {
      "channel": 4,
      "note": 68,
      "start": 31.1899,
      "duration": 0.021,
      "velocity": 102,
      "chip": "ym2612"
    },
    {
      "channel": 1,
      "note": 51,
      "start": 31.2093,
      "duration": 0.0563,
      "velocity": 104,
      "chip": "ym2612"
    },
    {
      "channel": 2,
      "note": 68,
      "start": 31.21,
      "duration": 0.0147,
      "velocity": 102,
      "chip": "ym2612"
    },
    {
      "channel": 3,
      "note": 64,
      "start": 31.2108,
      "duration": 0.1056,
      "velocity": 102,
      "chip": "ym2612"
    },
    {
      "channel": 0,
      "note": 102,
      "start": 31.2311,
      "duration": 0.0091,
      "velocity": 101,
      "chip": "ym2612"
    },
    {
      "channel": 2,
      "note": 66,
      "start": 31.2321,
      "duration": 0.0158,
      "velocity": 102,
      "chip": "ym2612"
    },
    {
      "channel": 0,
      "note": 103,
      "start": 31.2408,
      "duration": 0.024,
      "velocity": 101,
      "chip": "ym2612"
    },
    {
      "channel": 0,
      "note": 104,
      "start": 31.2655,
      "duration": 0.3345,
      "velocity": 101,
      "chip": "ym2612"
    },
    {
      "channel": 1,
      "note": 54,
      "start": 31.2662,
      "duration": 0.0492,
      "velocity": 104,
      "chip": "ym2612"
    },
    {
      "channel": 2,
      "note": 71,
      "start": 31.2669,
      "duration": 0.0155,
      "velocity": 102,
      "chip": "ym2612"
    },
    {
      "channel": 2,
      "note": 73,
      "start": 31.3162,
      "duration": 0.0826,
      "velocity": 102,
      "chip": "ym2612"
    },
    {
      "channel": 3,
      "note": 66,
      "start": 31.317,
      "duration": 0.1159,
      "velocity": 102,
      "chip": "ym2612"
    },
    {
      "channel": 3,
      "note": 73,
      "start": 31.4336,
      "duration": 0.0503,
      "velocity": 102,
      "chip": "ym2612"
    },
    {
      "channel": 4,
      "note": 70,
      "start": 31.4344,
      "duration": 0.0498,
      "velocity": 102,
      "chip": "ym2612"
    },
    {
      "channel": 2,
      "note": 75,
      "start": 31.4838,
      "duration": 0.0828,
      "velocity": 102,
      "chip": "ym2612"
    },
    {
      "channel": 0,
      "note": 102,
      "start": 31.6007,
      "duration": 0.0944,
      "velocity": 101,
      "chip": "ym2612"
    },
    {
      "channel": 2,
      "note": 71,
      "start": 31.6015,
      "duration": 0.0121,
      "velocity": 102,
      "chip": "ym2612"
    },
    {
      "channel": 2,
      "note": 68,
      "start": 31.6186,
      "duration": 0.0149,
      "velocity": 102,
      "chip": "ym2612"
    },
    {
      "channel": 3,
      "note": 73,
      "start": 31.6193,
      "duration": 0.022,
      "velocity": 102,
      "chip": "ym2612"
    },
    {
      "channel": 4,
      "note": 70,
      "start": 31.6201,
      "duration": 0.022,
      "velocity": 102,
      "chip": "ym2612"
    },
    {
      "channel": 1,
      "note": 51,
      "start": 31.6405,
      "duration": 0.0554,
      "velocity": 104,
      "chip": "ym2612"
    },
    {
      "channel": 2,
      "note": 66,
      "start": 31.6412,
      "duration": 0.0163,
      "velocity": 102,
      "chip": "ym2612"
    },
    {
      "channel": 3,
      "note": 66,
      "start": 31.6419,
      "duration": 0.0554,
      "velocity": 102,
      "chip": "ym2612"
    },
    {
      "channel": 2,
      "note": 68,
      "start": 31.6752,
      "duration": 0.0144,
      "velocity": 102,
      "chip": "ym2612"
    },
    {
      "channel": 0,
      "note": 97,
      "start": 31.6957,
      "duration": 0.0134,
      "velocity": 101,
      "chip": "ym2612"
    },
    {
      "channel": 1,
      "note": 54,
      "start": 31.6964,
      "duration": 0.0499,
      "velocity": 104,
      "chip": "ym2612"
    },
    {
      "channel": 2,
      "note": 71,
      "start": 31.6971,
      "duration": 0.016,
      "velocity": 102,
      "chip": "ym2612"
    },
    {
      "channel": 3,
      "note": 68,
      "start": 31.6979,
      "duration": 0.0498,
      "velocity": 102,
      "chip": "ym2612"
    },
    {
      "channel": 0,
      "note": 98,
      "start": 31.7098,
      "duration": 0.0357,
      "velocity": 101,
      "chip": "ym2612"
    },
    {
      "channel": 0,
      "note": 97,
      "start": 31.7461,
      "duration": 0.116,
      "velocity": 101,
      "chip": "ym2612"
    },
    {
      "channel": 1,
      "note": 56,
      "start": 31.7468,
      "duration": 0.2328,
      "velocity": 104,
      "chip": "ym2612"
    },
    {
      "channel": 2,
      "note": 68,
      "start": 31.7475,
      "duration": 0.082,
      "velocity": 102,
      "chip": "ym2612"
    },
    {
      "channel": 0,
      "note": 95,
      "start": 31.8628,
      "duration": 0.1676,
      "velocity": 101,
      "chip": "ym2612"
    },
    {
      "channel": 2,
      "note": 66,
      "start": 31.8638,
      "duration": 0.0823,
      "velocity": 102,
      "chip": "ym2612"
    },
    {
      "channel": 3,
      "note": 75,
      "start": 31.8646,
      "duration": 0.1163,
      "velocity": 102,
      "chip": "ym2612"
    },
    {
      "channel": 4,
      "note": 71,
      "start": 31.8654,
      "duration": 0.1159,
      "velocity": 102,
      "chip": "ym2612"
    },
    {
      "channel": 1,
      "note": 56,
      "start": 31.9801,
      "duration": 0.0512,
      "velocity": 104,
      "chip": "ym2612"
    },
    {
      "channel": 2,
      "note": 71,
      "start": 31.9808,
      "duration": 0.0165,
      "velocity": 102,
      "chip": "ym2612"
    },
    {
      "channel": 0,
      "note": 97,
      "start": 32.0312,
      "duration": 0.0365,
      "velocity": 101,
      "chip": "ym2612"
    },
    {
      "channel": 1,
      "note": 56,
      "start": 32.0488,
      "duration": 0.0196,
      "velocity": 104,
      "chip": "ym2612"
    },
    {
      "channel": 2,
      "note": 68,
      "start": 32.0495,
      "duration": 0.016,
      "velocity": 102,
      "chip": "ym2612"
    },
    {
      "channel": 3,
      "note": 75,
      "start": 32.0503,
      "duration": 0.0194,
      "velocity": 102,
      "chip": "ym2612"
    },
    {
      "channel": 4,
      "note": 71,
      "start": 32.0511,
      "duration": 0.0194,
      "velocity": 102,
      "chip": "ym2612"
    },
    {
      "channel": 0,
      "note": 92,
      "start": 32.0683,
      "duration": 0.0222,
      "velocity": 101,
      "chip": "ym2612"
    },
    {
      "channel": 1,
      "note": 54,
      "start": 32.0689,
      "duration": 0.0224,
      "velocity": 104,
      "chip": "ym2612"
    },
    {
      "channel": 2,
      "note": 66,
      "start": 32.0696,
      "duration": 0.0148,
      "velocity": 102,
      "chip": "ym2612"
    },
    {
      "channel": 3,
      "note": 68,
      "start": 32.0704,
      "duration": 0.1237,
      "velocity": 102,
      "chip": "ym2612"
    },
    {
      "channel": 0,
      "note": 95,
      "start": 32.0912,
      "duration": 0.2947,
      "velocity": 101,
      "chip": "ym2612"
    },
    {
      "channel": 1,
      "note": 51,
      "start": 32.0918,
      "duration": 0.0501,
      "velocity": 104,
      "chip": "ym2612"
    },
    {
      "channel": 2,
      "note": 63,
      "start": 32.0925,
      "duration": 0.0159,
      "velocity": 102,
      "chip": "ym2612"
    },
    {
      "channel": 1,
      "note": 56,
      "start": 32.1425,
      "duration": 0.0747,
      "velocity": 104,
      "chip": "ym2612"
    },
    {
      "channel": 2,
      "note": 63,
      "start": 32.1432,
      "duration": 0.0163,
      "velocity": 102,
      "chip": "ym2612"
    },
    {
      "channel": 2,
      "note": 75,
      "start": 32.1939,
      "duration": 0.0161,
      "velocity": 102,
      "chip": "ym2612"
    },
    {
      "channel": 3,
      "note": 68,
      "start": 32.1945,
      "duration": 0.024,
      "velocity": 102,
      "chip": "ym2612"
    },
    {
      "channel": 4,
      "note": 71,
      "start": 32.1951,
      "duration": 0.0242,
      "velocity": 102,
      "chip": "ym2612"
    },
    {
      "channel": 1,
      "note": 54,
      "start": 32.2177,
      "duration": 0.0748,
      "velocity": 104,
      "chip": "ym2612"
    },
    {
      "channel": 2,
      "note": 62,
      "start": 32.2184,
      "duration": 0.0165,
      "velocity": 102,
      "chip": "ym2612"
    },
    {
      "channel": 3,
      "note": 76,
      "start": 32.2192,
      "duration": 0.0747,
      "velocity": 102,
      "chip": "ym2612"
    },
    {
      "channel": 4,
      "note": 73,
      "start": 32.22,
      "duration": 0.0746,
      "velocity": 102,
      "chip": "ym2612"
    },
    {
      "channel": 2,
      "note": 74,
      "start": 32.2423,
      "duration": 0.0167,
      "velocity": 102,
      "chip": "ym2612"
    },
    {
      "channel": 1,
      "note": 56,
      "start": 32.2931,
      "duration": 0.0428,
      "velocity": 104,
      "chip": "ym2612"
    },
    {
      "channel": 2,
      "note": 61,
      "start": 32.2938,
      "duration": 0.0167,
      "velocity": 102,
      "chip": "ym2612"
    },
    {
      "channel": 3,
      "note": 75,
      "start": 32.2945,
      "duration": 0.0426,
      "velocity": 102,
      "chip": "ym2612"
    },
    {
      "channel": 4,
      "note": 71,
      "start": 32.2953,
      "duration": 0.0427,
      "velocity": 102,
      "chip": "ym2612"
    },
    {
      "channel": 2,
      "note": 73,
      "start": 32.314,
      "duration": 0.0156,
      "velocity": 102,
      "chip": "ym2612"
    },
    {
      "channel": 1,
      "note": 59,
      "start": 32.3363,
      "duration": 0.05,
      "velocity": 104,
      "chip": "ym2612"
    },
    {
      "channel": 2,
      "note": 59,
      "start": 32.337,
      "duration": 0.017,
      "velocity": 102,
      "chip": "ym2612"
    },
    {
      "channel": 3,
      "note": 73,
      "start": 32.3378,
      "duration": 0.0498,
      "velocity": 102,
      "chip": "ym2612"
    },
    {
      "channel": 4,
      "note": 70,
      "start": 32.3386,
      "duration": 0.0499,
      "velocity": 102,
      "chip": "ym2612"
    },
    {
      "channel": 2,
      "note": 71,
      "start": 32.3625,
      "duration": 0.0161,
      "velocity": 102,
      "chip": "ym2612"
    },
    {
      "channel": 1,
      "note": 51,
      "start": 32.3869,
      "duration": 0.0492,
      "velocity": 104,
      "chip": "ym2612"
    },
    {
      "channel": 3,
      "note": 64,
      "start": 32.3883,
      "duration": 0.0492,
      "velocity": 102,
      "chip": "ym2612"
    },
    {
      "channel": 1,
      "note": 52,
      "start": 32.4366,
      "duration": 0.1673,
      "velocity": 104,
      "chip": "ym2612"
    },
    {
      "channel": 2,
      "note": 66,
      "start": 32.4373,
      "duration": 0.0825,
      "velocity": 102,
      "chip": "ym2612"
    },
    {
      "channel": 2,
      "note": 68,
      "start": 32.5542,
      "duration": 0.0167,
      "velocity": 102,
      "chip": "ym2612"
    },
    {
      "channel": 3,
      "note": 71,
      "start": 32.5549,
      "duration": 0.0502,
      "velocity": 102,
      "chip": "ym2612"
    },
    {
      "channel": 4,
      "note": 68,
      "start": 32.5557,
      "duration": 0.0497,
      "velocity": 102,
      "chip": "ym2612"
    },
    {
      "channel": 1,
      "note": 52,
      "start": 32.6043,
      "duration": 0.1013,
      "velocity": 104,
      "chip": "ym2612"
    },
    {
      "channel": 2,
      "note": 66,
      "start": 32.605,
      "duration": 0.0826,
      "velocity": 102,
      "chip": "ym2612"
    },
    {
      "channel": 0,
      "note": 107,
      "start": 32.7054,
      "duration": 0.0619,
      "velocity": 101,
      "chip": "ym2612"
    },
    {
      "channel": 2,
      "note": 71,
      "start": 32.7064,
      "duration": 0.0122,
      "velocity": 102,
      "chip": "ym2612"
    },
    {
      "channel": 1,
      "note": 52,
      "start": 32.7233,
      "duration": 0.0207,
      "velocity": 104,
      "chip": "ym2612"
    },
    {
      "channel": 3,
      "note": 71,
      "start": 32.7244,
      "duration": 0.021,
      "velocity": 102,
      "chip": "ym2612"
    },
    {
      "channel": 4,
      "note": 68,
      "start": 32.7252,
      "duration": 0.0209,
      "velocity": 102,
      "chip": "ym2612"
    },
    {
      "channel": 1,
      "note": 51,
      "start": 32.7446,
      "duration": 0.0746,
      "velocity": 104,
      "chip": "ym2612"
    },
    {
      "channel": 2,
      "note": 68,
      "start": 32.7453,
      "duration": 0.0148,
      "velocity": 102,
      "chip": "ym2612"
    },
    {
      "channel": 3,
      "note": 64,
      "start": 32.7461,
      "duration": 0.1235,
      "velocity": 102,
      "chip": "ym2612"
    },
    {
      "channel": 0,
      "note": 102,
      "start": 32.768,
      "duration": 0.0091,
      "velocity": 101,
      "chip": "ym2612"
    },
    {
      "channel": 2,
      "note": 66,
      "start": 32.7689,
      "duration": 0.0159,
      "velocity": 102,
      "chip": "ym2612"
    },
    {
      "channel": 0,
      "note": 103,
      "start": 32.7777,
      "duration": 0.0407,
      "velocity": 101,
      "chip": "ym2612"
    },
    {
      "channel": 0,
      "note": 104,
      "start": 32.819,
      "duration": 0.3178,
      "velocity": 101,
      "chip": "ym2612"
    },
    {
      "channel": 1,
      "note": 54,
      "start": 32.8197,
      "duration": 0.0492,
      "velocity": 104,
      "chip": "ym2612"
    },
    {
      "channel": 2,
      "note": 71,
      "start": 32.8204,
      "duration": 0.0155,
      "velocity": 102,
      "chip": "ym2612"
    },
    {
      "channel": 3,
      "note": 66,
      "start": 32.8702,
      "duration": 0.1161,
      "velocity": 102,
      "chip": "ym2612"
    },
    {
      "channel": 3,
      "note": 73,
      "start": 32.9869,
      "duration": 0.0338,
      "velocity": 102,
      "chip": "ym2612"
    },
    {
      "channel": 4,
      "note": 70,
      "start": 32.9876,
      "duration": 0.0334,
      "velocity": 102,
      "chip": "ym2612"
    },
    {
      "channel": 2,
      "note": 71,
      "start": 33.0206,
      "duration": 0.0828,
      "velocity": 102,
      "chip": "ym2612"
    },
    {
      "channel": 0,
      "note": 102,
      "start": 33.1375,
      "duration": 0.1125,
      "velocity": 101,
      "chip": "ym2612"
    },
    {
      "channel": 2,
      "note": 68,
      "start": 33.1383,
      "duration": 0.0121,
      "velocity": 102,
      "chip": "ym2612"
    },
    {
      "channel": 3,
      "note": 73,
      "start": 33.1558,
      "duration": 0.0222,
      "velocity": 102,
      "chip": "ym2612"
    },
    {
      "channel": 4,
      "note": 70,
      "start": 33.1565,
      "duration": 0.0222,
      "velocity": 102,
      "chip": "ym2612"
    },
    {
      "channel": 1,
      "note": 51,
      "start": 33.1771,
      "duration": 0.0737,
      "velocity": 104,
      "chip": "ym2612"
    },
    {
      "channel": 2,
      "note": 66,
      "start": 33.1778,
      "duration": 0.0163,
      "velocity": 102,
      "chip": "ym2612"
    },
    {
      "channel": 3,
      "note": 66,
      "start": 33.1786,
      "duration": 0.0732,
      "velocity": 102,
      "chip": "ym2612"
    },
    {
      "channel": 2,
      "note": 71,
      "start": 33.2289,
      "duration": 0.0145,
      "velocity": 102,
      "chip": "ym2612"
    },
    {
      "channel": 0,
      "note": 97,
      "start": 33.2507,
      "duration": 0.0097,
      "velocity": 101,
      "chip": "ym2612"
    },
    {
      "channel": 1,
      "note": 54,
      "start": 33.2513,
      "duration": 0.0498,
      "velocity": 104,
      "chip": "ym2612"
    },
    {
      "channel": 3,
      "note": 68,
      "start": 33.2524,
      "duration": 0.0504,
      "velocity": 102,
      "chip": "ym2612"
    },
    {
      "channel": 0,
      "note": 98,
      "start": 33.261,
      "duration": 0.0394,
      "velocity": 101,
      "chip": "ym2612"
    },
    {
      "channel": 0,
      "note": 95,
      "start": 33.301,
      "duration": 0.0999,
      "velocity": 101,
      "chip": "ym2612"
    },
    {
      "channel": 1,
      "note": 56,
      "start": 33.3017,
      "duration": 0.1501,
      "velocity": 104,
      "chip": "ym2612"
    },
    {
      "channel": 2,
      "note": 73,
      "start": 33.3027,
      "duration": 0.0816,
      "velocity": 102,
      "chip": "ym2612"
    },
    {
      "channel": 0,
      "note": 92,
      "start": 33.4016,
      "duration": 0.1671,
      "velocity": 101,
      "chip": "ym2612"
    },
    {
      "channel": 2,
      "note": 71,
      "start": 33.4025,
      "duration": 0.0166,
      "velocity": 102,
      "chip": "ym2612"
    },
    {
      "channel": 3,
      "note": 75,
      "start": 33.4033,
      "duration": 0.0497,
      "velocity": 102,
      "chip": "ym2612"
    },
    {
      "channel": 4,
      "note": 71,
      "start": 33.4041,
      "duration": 0.0492,
      "velocity": 102,
      "chip": "ym2612"
    },
    {
      "channel": 1,
      "note": 56,
      "start": 33.4522,
      "duration": 0.1173,
      "velocity": 104,
      "chip": "ym2612"
    },
    {
      "channel": 2,
      "note": 68,
      "start": 33.4529,
      "duration": 0.0826,
      "velocity": 102,
      "chip": "ym2612"
    },
    {
      "channel": 0,
      "note": 95,
      "start": 33.5694,
      "duration": 0.0398,
      "velocity": 101,
      "chip": "ym2612"
    },
    {
      "channel": 2,
      "note": 71,
      "start": 33.5703,
      "duration": 0.0122,
      "velocity": 102,
      "chip": "ym2612"
    },
    {
      "channel": 1,
      "note": 56,
      "start": 33.5874,
      "duration": 0.0224,
      "velocity": 104,
      "chip": "ym2612"
    },
    {
      "channel": 3,
      "note": 75,
      "start": 33.5885,
      "duration": 0.0228,
      "velocity": 102,
      "chip": "ym2612"
    },
    {
      "channel": 4,
      "note": 71,
      "start": 33.5893,
      "duration": 0.0227,
      "velocity": 102,
      "chip": "ym2612"
    },
    {
      "channel": 0,
      "note": 97,
      "start": 33.6098,
      "duration": 0.0724,
      "velocity": 101,
      "chip": "ym2612"
    },
    {
      "channel": 1,
      "note": 54,
      "start": 33.6104,
      "duration": 0.021,
      "velocity": 104,
      "chip": "ym2612"
    },
    {
      "channel": 2,
      "note": 68,
      "start": 33.6111,
      "duration": 0.0148,
      "velocity": 102,
      "chip": "ym2612"
    },
    {
      "channel": 3,
      "note": 68,
      "start": 33.6119,
      "duration": 0.1056,
      "velocity": 102,
      "chip": "ym2612"
    },
    {
      "channel": 1,
      "note": 51,
      "start": 33.632,
      "duration": 0.051,
      "velocity": 104,
      "chip": "ym2612"
    },
    {
      "channel": 2,
      "note": 66,
      "start": 33.6327,
      "duration": 0.0163,
      "velocity": 102,
      "chip": "ym2612"
    },
    {
      "channel": 0,
      "note": 98,
      "start": 33.6829,
      "duration": 0.0332,
      "velocity": 101,
      "chip": "ym2612"
    },
    {
      "channel": 1,
      "note": 56,
      "start": 33.6835,
      "duration": 0.1509,
      "velocity": 104,
      "chip": "ym2612"
    },
    {
      "channel": 2,
      "note": 71,
      "start": 33.6846,
      "duration": 0.0155,
      "velocity": 102,
      "chip": "ym2612"
    },
    {
      "channel": 0,
      "note": 99,
      "start": 33.7168,
      "duration": 0.1169,
      "velocity": 101,
      "chip": "ym2612"
    },
    {
      "channel": 3,
      "note": 68,
      "start": 33.718,
      "duration": 0.1172,
      "velocity": 102,
      "chip": "ym2612"
    },
    {
      "channel": 4,
      "note": 71,
      "start": 33.7186,
      "duration": 0.1174,
      "velocity": 102,
      "chip": "ym2612"
    },
    {
      "channel": 0,
      "note": 102,
      "start": 33.8343,
      "duration": 0.05,
      "velocity": 101,
      "chip": "ym2612"
    },
    {
      "channel": 1,
      "note": 54,
      "start": 33.835,
      "duration": 0.1668,
      "velocity": 104,
      "chip": "ym2612"
    },
    {
      "channel": 3,
      "note": 76,
      "start": 33.8358,
      "duration": 0.167,
      "velocity": 102,
      "chip": "ym2612"
    },
    {
      "channel": 4,
      "note": 73,
      "start": 33.8367,
      "duration": 0.1669,
      "velocity": 102,
      "chip": "ym2612"
    },
    {
      "channel": 2,
      "note": 71,
      "start": 33.8858,
      "duration": 0.0817,
      "velocity": 102,
      "chip": "ym2612"
    },
    {
      "channel": 0,
      "note": 102,
      "start": 34.0017,
      "duration": 0.0219,
      "velocity": 101,
      "chip": "ym2612"
    },
    {
      "channel": 1,
      "note": 56,
      "start": 34.0023,
      "duration": 0.0439,
      "velocity": 104,
      "chip": "ym2612"
    },
    {
      "channel": 3,
      "note": 75,
      "start": 34.0034,
      "duration": 0.0442,
      "velocity": 102,
      "chip": "ym2612"
    },
    {
      "channel": 4,
      "note": 71,
      "start": 34.0042,
      "duration": 0.0442,
      "velocity": 102,
      "chip": "ym2612"
    },
    {
      "channel": 2,
      "note": 71,
      "start": 34.0248,
      "duration": 0.0139,
      "velocity": 102,
      "chip": "ym2612"
    },
    {
      "channel": 0,
      "note": 102,
      "start": 34.0461,
      "duration": 0.0509,
      "velocity": 101,
      "chip": "ym2612"
    },
    {
      "channel": 1,
      "note": 59,
      "start": 34.0468,
      "duration": 0.069,
      "velocity": 104,
      "chip": "ym2612"
    },
    {
      "channel": 2,
      "note": 73,
      "start": 34.0475,
      "duration": 0.0165,
      "velocity": 102,
      "chip": "ym2612"
    },
    {
      "channel": 3,
      "note": 73,
      "start": 34.0483,
      "duration": 0.069,
      "velocity": 102,
      "chip": "ym2612"
    },
    {
      "channel": 4,
      "note": 70,
      "start": 34.049,
      "duration": 0.0691,
      "velocity": 102,
      "chip": "ym2612"
    },
    {
      "channel": 2,
      "note": 68,
      "start": 34.0981,
      "duration": 0.0142,
      "velocity": 102,
      "chip": "ym2612"
    },
    {
      "channel": 1,
      "note": 51,
      "start": 34.1164,
      "duration": 0.0494,
      "velocity": 104,
      "chip": "ym2612"
    },
    {
      "channel": 2,
      "note": 71,
      "start": 34.1171,
      "duration": 0.0157,
      "velocity": 102,
      "chip": "ym2612"
    },
    {
      "channel": 3,
      "note": 64,
      "start": 34.1179,
      "duration": 0.0492,
      "velocity": 102,
      "chip": "ym2612"
    },
    {
      "channel": 1,
      "note": 52,
      "start": 34.1663,
      "duration": 0.1673,
      "velocity": 104,
      "chip": "ym2612"
    },
    {
      "channel": 2,
      "note": 68,
      "start": 34.167,
      "duration": 0.0824,
      "velocity": 102,
      "chip": "ym2612"
    },
    {
      "channel": 2,
      "note": 66,
      "start": 34.2838,
      "duration": 0.0167,
      "velocity": 102,
      "chip": "ym2612"
    },
    {
      "channel": 3,
      "note": 71,
      "start": 34.2846,
      "duration": 0.0501,
      "velocity": 102,
      "chip": "ym2612"
    },
    {
      "channel": 4,
      "note": 68,
      "start": 34.2854,
      "duration": 0.0497,
      "velocity": 102,
      "chip": "ym2612"
    },
    {
      "channel": 1,
      "note": 52,
      "start": 34.3339,
      "duration": 0.1179,
      "velocity": 104,
      "chip": "ym2612"
    },
    {
      "channel": 2,
      "note": 71,
      "start": 34.3346,
      "duration": 0.0826,
      "velocity": 102,
      "chip": "ym2612"
    },
    {
      "channel": 0,
      "note": 107,
      "start": 34.4517,
      "duration": 0.0577,
      "velocity": 101,
      "chip": "ym2612"
    },
    {
      "channel": 1,
      "note": 52,
      "start": 34.4694,
      "duration": 0.0207,
      "velocity": 104,
      "chip": "ym2612"
    },
    {
      "channel": 3,
      "note": 71,
      "start": 34.4705,
      "duration": 0.0209,
      "velocity": 102,
      "chip": "ym2612"
    },
    {
      "channel": 4,
      "note": 68,
      "start": 34.4713,
      "duration": 0.0209,
      "velocity": 102,
      "chip": "ym2612"
    },
    {
      "channel": 1,
      "note": 51,
      "start": 34.4906,
      "duration": 0.0706,
      "velocity": 104,
      "chip": "ym2612"
    },
    {
      "channel": 2,
      "note": 68,
      "start": 34.4913,
      "duration": 0.0147,
      "velocity": 102,
      "chip": "ym2612"
    },
    {
      "channel": 3,
      "note": 64,
      "start": 34.4921,
      "duration": 0.1199,
      "velocity": 102,
      "chip": "ym2612"
    },
    {
      "channel": 0,
      "note": 102,
      "start": 34.51,
      "duration": 0.0119,
      "velocity": 101,
      "chip": "ym2612"
    },
    {
      "channel": 2,
      "note": 66,
      "start": 34.511,
      "duration": 0.0159,
      "velocity": 102,
      "chip": "ym2612"
    },
    {
      "channel": 0,
      "note": 103,
      "start": 34.5226,
      "duration": 0.0379,
      "velocity": 101,
      "chip": "ym2612"
    },
    {
      "channel": 0,
      "note": 104,
      "start": 34.5611,
      "duration": 0.3346,
      "velocity": 101,
      "chip": "ym2612"
    },
    {
      "channel": 1,
      "note": 54,
      "start": 34.5618,
      "duration": 0.0492,
      "velocity": 104,
      "chip": "ym2612"
    },
    {
      "channel": 2,
      "note": 71,
      "start": 34.5625,
      "duration": 0.0155,
      "velocity": 102,
      "chip": "ym2612"
    },
    {
      "channel": 2,
      "note": 73,
      "start": 34.6118,
      "duration": 0.0826,
      "velocity": 102,
      "chip": "ym2612"
    },
    {
      "channel": 3,
      "note": 66,
      "start": 34.6127,
      "duration": 0.1159,
      "velocity": 102,
      "chip": "ym2612"
    },
    {
      "channel": 3,
      "note": 73,
      "start": 34.7292,
      "duration": 0.0504,
      "velocity": 102,
      "chip": "ym2612"
    },
    {
      "channel": 4,
      "note": 70,
      "start": 34.73,
      "duration": 0.0498,
      "velocity": 102,
      "chip": "ym2612"
    },
    {
      "channel": 2,
      "note": 75,
      "start": 34.7794,
      "duration": 0.0829,
      "velocity": 102,
      "chip": "ym2612"
    },
    {
      "channel": 0,
      "note": 102,
      "start": 34.8963,
      "duration": 0.1087,
      "velocity": 101,
      "chip": "ym2612"
    },
    {
      "channel": 2,
      "note": 71,
      "start": 34.8971,
      "duration": 0.012,
      "velocity": 102,
      "chip": "ym2612"
    },
    {
      "channel": 2,
      "note": 68,
      "start": 34.9143,
      "duration": 0.0149,
      "velocity": 102,
      "chip": "ym2612"
    },
    {
      "channel": 3,
      "note": 73,
      "start": 34.915,
      "duration": 0.0195,
      "velocity": 102,
      "chip": "ym2612"
    },
    {
      "channel": 4,
      "note": 70,
      "start": 34.9158,
      "duration": 0.0195,
      "velocity": 102,
      "chip": "ym2612"
    },
    {
      "channel": 1,
      "note": 51,
      "start": 34.9337,
      "duration": 0.0721,
      "velocity": 104,
      "chip": "ym2612"
    },
    {
      "channel": 2,
      "note": 66,
      "start": 34.9344,
      "duration": 0.0163,
      "velocity": 102,
      "chip": "ym2612"
    },
    {
      "channel": 3,
      "note": 66,
      "start": 34.9352,
      "duration": 0.072,
      "velocity": 102,
      "chip": "ym2612"
    },
    {
      "channel": 2,
      "note": 68,
      "start": 34.9851,
      "duration": 0.0144,
      "velocity": 102,
      "chip": "ym2612"
    },
    {
      "channel": 0,
      "note": 99,
      "start": 35.0056,
      "duration": 0.0502,
      "velocity": 101,
      "chip": "ym2612"
    },
    {
      "channel": 1,
      "note": 54,
      "start": 35.0063,
      "duration": 0.0498,
      "velocity": 104,
      "chip": "ym2612"
    },
    {
      "channel": 2,
      "note": 71,
      "start": 35.007,
      "duration": 0.0157,
      "velocity": 102,
      "chip": "ym2612"
    },
    {
      "channel": 3,
      "note": 68,
      "start": 35.0078,
      "duration": 0.0497,
      "velocity": 102,
      "chip": "ym2612"
    },
    {
      "channel": 1,
      "note": 56,
      "start": 35.0567,
      "duration": 0.2328,
      "velocity": 104,
      "chip": "ym2612"
    },
    {
      "channel": 2,
      "note": 68,
      "start": 35.0573,
      "duration": 0.0817,
      "velocity": 102,
      "chip": "ym2612"
    },
    {
      "channel": 0,
      "note": 99,
      "start": 35.1727,
      "duration": 0.1165,
      "velocity": 101,
      "chip": "ym2612"
    },
    {
      "channel": 2,
      "note": 66,
      "start": 35.1736,
      "duration": 0.0824,
      "velocity": 102,
      "chip": "ym2612"
    },
    {
      "channel": 3,
      "note": 75,
      "start": 35.1744,
      "duration": 0.1163,
      "velocity": 102,
      "chip": "ym2612"
    },
    {
      "channel": 4,
      "note": 71,
      "start": 35.1752,
      "duration": 0.1159,
      "velocity": 102,
      "chip": "ym2612"
    },
    {
      "channel": 1,
      "note": 56,
      "start": 35.29,
      "duration": 0.0516,
      "velocity": 104,
      "chip": "ym2612"
    },
    {
      "channel": 2,
      "note": 71,
      "start": 35.2907,
      "duration": 0.0162,
      "velocity": 102,
      "chip": "ym2612"
    },
    {
      "channel": 0,
      "note": 97,
      "start": 35.3415,
      "duration": 0.11,
      "velocity": 101,
      "chip": "ym2612"
    },
    {
      "channel": 1,
      "note": 56,
      "start": 35.3568,
      "duration": 0.0223,
      "velocity": 104,
      "chip": "ym2612"
    },
    {
      "channel": 2,
      "note": 68,
      "start": 35.3575,
      "duration": 0.0161,
      "velocity": 102,
      "chip": "ym2612"
    },
    {
      "channel": 3,
      "note": 75,
      "start": 35.3583,
      "duration": 0.0222,
      "velocity": 102,
      "chip": "ym2612"
    },
    {
      "channel": 4,
      "note": 71,
      "start": 35.3591,
      "duration": 0.0221,
      "velocity": 102,
      "chip": "ym2612"
    },
    {
      "channel": 1,
      "note": 54,
      "start": 35.3796,
      "duration": 0.0211,
      "velocity": 104,
      "chip": "ym2612"
    },
    {
      "channel": 2,
      "note": 66,
      "start": 35.3803,
      "duration": 0.0148,
      "velocity": 102,
      "chip": "ym2612"
    },
    {
      "channel": 3,
      "note": 68,
      "start": 35.3811,
      "duration": 0.1233,
      "velocity": 102,
      "chip": "ym2612"
    },
    {
      "channel": 1,
      "note": 51,
      "start": 35.4013,
      "duration": 0.051,
      "velocity": 104,
      "chip": "ym2612"
    },
    {
      "channel": 2,
      "note": 63,
      "start": 35.402,
      "duration": 0.0163,
      "velocity": 102,
      "chip": "ym2612"
    },
    {
      "channel": 0,
      "note": 95,
      "start": 35.4522,
      "duration": 0.0504,
      "velocity": 101,
      "chip": "ym2612"
    },
    {
      "channel": 1,
      "note": 56,
      "start": 35.4528,
      "duration": 0.0742,
      "velocity": 104,
      "chip": "ym2612"
    },
    {
      "channel": 2,
      "note": 63,
      "start": 35.4535,
      "duration": 0.0159,
      "velocity": 102,
      "chip": "ym2612"
    },
    {
      "channel": 0,
      "note": 92,
      "start": 35.5033,
      "duration": 0.1769,
      "velocity": 101,
      "chip": "ym2612"
    },
    {
      "channel": 2,
      "note": 75,
      "start": 35.5042,
      "duration": 0.0161,
      "velocity": 102,
      "chip": "ym2612"
    },
    {
      "channel": 3,
      "note": 68,
      "start": 35.5049,
      "duration": 0.0235,
      "velocity": 102,
      "chip": "ym2612"
    },
    {
      "channel": 4,
      "note": 71,
      "start": 35.5055,
      "duration": 0.0237,
      "velocity": 102,
      "chip": "ym2612"
    },
    {
      "channel": 1,
      "note": 54,
      "start": 35.5276,
      "duration": 0.0581,
      "velocity": 104,
      "chip": "ym2612"
    },
    {
      "channel": 2,
      "note": 62,
      "start": 35.5283,
      "duration": 0.0165,
      "velocity": 102,
      "chip": "ym2612"
    },
    {
      "channel": 3,
      "note": 76,
      "start": 35.529,
      "duration": 0.058,
      "velocity": 102,
      "chip": "ym2612"
    },
    {
      "channel": 4,
      "note": 73,
      "start": 35.5299,
      "duration": 0.058,
      "velocity": 102,
      "chip": "ym2612"
    },
    {
      "channel": 2,
      "note": 74,
      "start": 35.5521,
      "duration": 0.0167,
      "velocity": 102,
      "chip": "ym2612"
    },
    {
      "channel": 1,
      "note": 56,
      "start": 35.5862,
      "duration": 0.0456,
      "velocity": 104,
      "chip": "ym2612"
    },
    {
      "channel": 2,
      "note": 61,
      "start": 35.5869,
      "duration": 0.0165,
      "velocity": 102,
      "chip": "ym2612"
    },
    {
      "channel": 3,
      "note": 75,
      "start": 35.5877,
      "duration": 0.0456,
      "velocity": 102,
      "chip": "ym2612"
    },
    {
      "channel": 4,
      "note": 71,
      "start": 35.5885,
      "duration": 0.0456,
      "velocity": 102,
      "chip": "ym2612"
    },
    {
      "channel": 2,
      "note": 73,
      "start": 35.6098,
      "duration": 0.0152,
      "velocity": 102,
      "chip": "ym2612"
    },
    {
      "channel": 1,
      "note": 59,
      "start": 35.6324,
      "duration": 0.0483,
      "velocity": 104,
      "chip": "ym2612"
    },
    {
      "channel": 2,
      "note": 59,
      "start": 35.6331,
      "duration": 0.0167,
      "velocity": 102,
      "chip": "ym2612"
    },
    {
      "channel": 3,
      "note": 73,
      "start": 35.6339,
      "duration": 0.0481,
      "velocity": 102,
      "chip": "ym2612"
    },
    {
      "channel": 4,
      "note": 70,
      "start": 35.6346,
      "duration": 0.0483,
      "velocity": 102,
      "chip": "ym2612"
    },
    {
      "channel": 2,
      "note": 71,
      "start": 35.6569,
      "duration": 0.0161,
      "velocity": 102,
      "chip": "ym2612"
    },
    {
      "channel": 1,
      "note": 51,
      "start": 35.6813,
      "duration": 0.0493,
      "velocity": 104,
      "chip": "ym2612"
    },
    {
      "channel": 3,
      "note": 64,
      "start": 35.6827,
      "duration": 0.0492,
      "velocity": 102,
      "chip": "ym2612"
    },
    {
      "channel": 1,
      "note": 52,
      "start": 35.7311,
      "duration": 0.1506,
      "velocity": 104,
      "chip": "ym2612"
    },
    {
      "channel": 2,
      "note": 66,
      "start": 35.7318,
      "duration": 0.0824,
      "velocity": 102,
      "chip": "ym2612"
    },
    {
      "channel": 2,
      "note": 68,
      "start": 35.8486,
      "duration": 0.0167,
      "velocity": 102,
      "chip": "ym2612"
    },
    {
      "channel": 3,
      "note": 71,
      "start": 35.8494,
      "duration": 0.0335,
      "velocity": 102,
      "chip": "ym2612"
    },
    {
      "channel": 4,
      "note": 68,
      "start": 35.8502,
      "duration": 0.033,
      "velocity": 102,
      "chip": "ym2612"
    },
    {
      "channel": 1,
      "note": 52,
      "start": 35.882,
      "duration": 0.1179,
      "velocity": 104,
      "chip": "ym2612"
    },
    {
      "channel": 2,
      "note": 66,
      "start": 35.8827,
      "duration": 0.0826,
      "velocity": 102,
      "chip": "ym2612"
    },
    {
      "channel": 0,
      "note": 107,
      "start": 35.9999,
      "duration": 0.0618,
      "velocity": 101,
      "chip": "ym2612"
    },
    {
      "channel": 2,
      "note": 71,
      "start": 36.0008,
      "duration": 0.0126,
      "velocity": 102,
      "chip": "ym2612"
    },
    {
      "channel": 1,
      "note": 52,
      "start": 36.0184,
      "duration": 0.0206,
      "velocity": 104,
      "chip": "ym2612"
    },
    {
      "channel": 3,
      "note": 71,
      "start": 36.0195,
      "duration": 0.0209,
      "velocity": 102,
      "chip": "ym2612"
    },
    {
      "channel": 4,
      "note": 68,
      "start": 36.0202,
      "duration": 0.0209,
      "velocity": 102,
      "chip": "ym2612"
    },
    {
      "channel": 1,
      "note": 51,
      "start": 36.0395,
      "duration": 0.074,
      "velocity": 104,
      "chip": "ym2612"
    },
    {
      "channel": 2,
      "note": 68,
      "start": 36.0402,
      "duration": 0.0149,
      "velocity": 102,
      "chip": "ym2612"
    },
    {
      "channel": 3,
      "note": 64,
      "start": 36.041,
      "duration": 0.1229,
      "velocity": 102,
      "chip": "ym2612"
    },
    {
      "channel": 0,
      "note": 102,
      "start": 36.0623,
      "duration": 0.0092,
      "velocity": 101,
      "chip": "ym2612"
    },
    {
      "channel": 2,
      "note": 66,
      "start": 36.0633,
      "duration": 0.0159,
      "velocity": 102,
      "chip": "ym2612"
    },
    {
      "channel": 0,
      "note": 103,
      "start": 36.0721,
      "duration": 0.0406,
      "velocity": 101,
      "chip": "ym2612"
    },
    {
      "channel": 0,
      "note": 104,
      "start": 36.1134,
      "duration": 0.3178,
      "velocity": 101,
      "chip": "ym2612"
    },
    {
      "channel": 1,
      "note": 54,
      "start": 36.1141,
      "duration": 0.0492,
      "velocity": 104,
      "chip": "ym2612"
    },
    {
      "channel": 2,
      "note": 71,
      "start": 36.1148,
      "duration": 0.0155,
      "velocity": 102,
      "chip": "ym2612"
    },
    {
      "channel": 3,
      "note": 66,
      "start": 36.1646,
      "duration": 0.0994,
      "velocity": 102,
      "chip": "ym2612"
    },
    {
      "channel": 3,
      "note": 73,
      "start": 36.2646,
      "duration": 0.0504,
      "velocity": 102,
      "chip": "ym2612"
    },
    {
      "channel": 4,
      "note": 70,
      "start": 36.2654,
      "duration": 0.05,
      "velocity": 102,
      "chip": "ym2612"
    },
    {
      "channel": 2,
      "note": 71,
      "start": 36.3149,
      "duration": 0.0828,
      "velocity": 102,
      "chip": "ym2612"
    },
    {
      "channel": 0,
      "note": 102,
      "start": 36.4319,
      "duration": 0.1124,
      "velocity": 101,
      "chip": "ym2612"
    },
    {
      "channel": 2,
      "note": 68,
      "start": 36.4326,
      "duration": 0.0124,
      "velocity": 102,
      "chip": "ym2612"
    },
    {
      "channel": 3,
      "note": 73,
      "start": 36.4505,
      "duration": 0.0218,
      "velocity": 102,
      "chip": "ym2612"
    },
    {
      "channel": 4,
      "note": 70,
      "start": 36.4512,
      "duration": 0.0218,
      "velocity": 102,
      "chip": "ym2612"
    },
    {
      "channel": 1,
      "note": 51,
      "start": 36.4715,
      "duration": 0.0736,
      "velocity": 104,
      "chip": "ym2612"
    },
    {
      "channel": 2,
      "note": 66,
      "start": 36.4722,
      "duration": 0.0164,
      "velocity": 102,
      "chip": "ym2612"
    },
    {
      "channel": 3,
      "note": 66,
      "start": 36.4729,
      "duration": 0.0731,
      "velocity": 102,
      "chip": "ym2612"
    },
    {
      "channel": 2,
      "note": 71,
      "start": 36.5232,
      "duration": 0.0144,
      "velocity": 102,
      "chip": "ym2612"
    },
    {
      "channel": 0,
      "note": 97,
      "start": 36.5449,
      "duration": 0.01,
      "velocity": 101,
      "chip": "ym2612"
    },
    {
      "channel": 1,
      "note": 54,
      "start": 36.5456,
      "duration": 0.0331,
      "velocity": 104,
      "chip": "ym2612"
    },
    {
      "channel": 3,
      "note": 68,
      "start": 36.5466,
      "duration": 0.0338,
      "velocity": 102,
      "chip": "ym2612"
    },
    {
      "channel": 0,
      "note": 98,
      "start": 36.5556,
      "duration": 0.0224,
      "velocity": 101,
      "chip": "ym2612"
    },
    {
      "channel": 0,
      "note": 95,
      "start": 36.5786,
      "duration": 0.1165,
      "velocity": 101,
      "chip": "ym2612"
    },
    {
      "channel": 1,
      "note": 56,
      "start": 36.5793,
      "duration": 0.1668,
      "velocity": 104,
      "chip": "ym2612"
    },
    {
      "channel": 2,
      "note": 73,
      "start": 36.5803,
      "duration": 0.0816,
      "velocity": 102,
      "chip": "ym2612"
    },
    {
      "channel": 0,
      "note": 92,
      "start": 36.6958,
      "duration": 0.1671,
      "velocity": 101,
      "chip": "ym2612"
    },
    {
      "channel": 2,
      "note": 71,
      "start": 36.6968,
      "duration": 0.0166,
      "velocity": 102,
      "chip": "ym2612"
    },
    {
      "channel": 3,
      "note": 75,
      "start": 36.6976,
      "duration": 0.0498,
      "velocity": 102,
      "chip": "ym2612"
    },
    {
      "channel": 4,
      "note": 71,
      "start": 36.6984,
      "duration": 0.0493,
      "velocity": 102,
      "chip": "ym2612"
    },
    {
      "channel": 1,
      "note": 56,
      "start": 36.7465,
      "duration": 0.1173,
      "velocity": 104,
      "chip": "ym2612"
    },
    {
      "channel": 2,
      "note": 68,
      "start": 36.7472,
      "duration": 0.0826,
      "velocity": 102,
      "chip": "ym2612"
    },
    {
      "channel": 0,
      "note": 95,
      "start": 36.8637,
      "duration": 0.0398,
      "velocity": 101,
      "chip": "ym2612"
    },
    {
      "channel": 2,
      "note": 71,
      "start": 36.8646,
      "duration": 0.0121,
      "velocity": 102,
      "chip": "ym2612"
    },
    {
      "channel": 1,
      "note": 56,
      "start": 36.8817,
      "duration": 0.0226,
      "velocity": 104,
      "chip": "ym2612"
    },
    {
      "channel": 3,
      "note": 75,
      "start": 36.8827,
      "duration": 0.0228,
      "velocity": 102,
      "chip": "ym2612"
    },
    {
      "channel": 4,
      "note": 71,
      "start": 36.8836,
      "duration": 0.0228,
      "velocity": 102,
      "chip": "ym2612"
    },
    {
      "channel": 0,
      "note": 97,
      "start": 36.904,
      "duration": 0.0579,
      "velocity": 101,
      "chip": "ym2612"
    },
    {
      "channel": 1,
      "note": 54,
      "start": 36.9047,
      "duration": 0.0231,
      "velocity": 104,
      "chip": "ym2612"
    },
    {
      "channel": 2,
      "note": 68,
      "start": 36.9054,
      "duration": 0.0151,
      "velocity": 102,
      "chip": "ym2612"
    },
    {
      "channel": 3,
      "note": 68,
      "start": 36.9062,
      "duration": 0.1078,
      "velocity": 102,
      "chip": "ym2612"
    },
    {
      "channel": 1,
      "note": 51,
      "start": 36.9284,
      "duration": 0.0344,
      "velocity": 104,
      "chip": "ym2612"
    },
    {
      "channel": 2,
      "note": 66,
      "start": 36.9291,
      "duration": 0.0163,
      "velocity": 102,
      "chip": "ym2612"
    },
    {
      "channel": 0,
      "note": 98,
      "start": 36.9626,
      "duration": 0.05,
      "velocity": 101,
      "chip": "ym2612"
    },
    {
      "channel": 1,
      "note": 56,
      "start": 36.9633,
      "duration": 0.1676,
      "velocity": 104,
      "chip": "ym2612"
    },
    {
      "channel": 2,
      "note": 71,
      "start": 36.9644,
      "duration": 0.0155,
      "velocity": 102,
      "chip": "ym2612"
    },
    {
      "channel": 0,
      "note": 99,
      "start": 37.0132,
      "duration": 0.1169,
      "velocity": 101,
      "chip": "ym2612"
    },
    {
      "channel": 3,
      "note": 68,
      "start": 37.0144,
      "duration": 0.1172,
      "velocity": 102,
      "chip": "ym2612"
    },
    {
      "channel": 4,
      "note": 71,
      "start": 37.0151,
      "duration": 0.1174,
      "velocity": 102,
      "chip": "ym2612"
    },
    {
      "channel": 0,
      "note": 102,
      "start": 37.1308,
      "duration": 0.0502,
      "velocity": 101,
      "chip": "ym2612"
    },
    {
      "channel": 1,
      "note": 54,
      "start": 37.1315,
      "duration": 0.1671,
      "velocity": 104,
      "chip": "ym2612"
    },
    {
      "channel": 3,
      "note": 76,
      "start": 37.1323,
      "duration": 0.1672,
      "velocity": 102,
      "chip": "ym2612"
    },
    {
      "channel": 4,
      "note": 73,
      "start": 37.1331,
      "duration": 0.1671,
      "velocity": 102,
      "chip": "ym2612"
    },
    {
      "channel": 2,
      "note": 71,
      "start": 37.1825,
      "duration": 0.0817,
      "velocity": 102,
      "chip": "ym2612"
    },
    {
      "channel": 0,
      "note": 102,
      "start": 37.2984,
      "duration": 0.0229,
      "velocity": 101,
      "chip": "ym2612"
    },
    {
      "channel": 1,
      "note": 56,
      "start": 37.299,
      "duration": 0.044,
      "velocity": 104,
      "chip": "ym2612"
    },
    {
      "channel": 3,
      "note": 75,
      "start": 37.3001,
      "duration": 0.0443,
      "velocity": 102,
      "chip": "ym2612"
    },
    {
      "channel": 4,
      "note": 71,
      "start": 37.3009,
      "duration": 0.0443,
      "velocity": 102,
      "chip": "ym2612"
    },
    {
      "channel": 2,
      "note": 71,
      "start": 37.3224,
      "duration": 0.0141,
      "velocity": 102,
      "chip": "ym2612"
    },
    {
      "channel": 0,
      "note": 102,
      "start": 37.3429,
      "duration": 0.0342,
      "velocity": 101,
      "chip": "ym2612"
    },
    {
      "channel": 1,
      "note": 59,
      "start": 37.3435,
      "duration": 0.0563,
      "velocity": 104,
      "chip": "ym2612"
    },
    {
      "channel": 2,
      "note": 73,
      "start": 37.3442,
      "duration": 0.0168,
      "velocity": 102,
      "chip": "ym2612"
    },
    {
      "channel": 3,
      "note": 73,
      "start": 37.3451,
      "duration": 0.0562,
      "velocity": 102,
      "chip": "ym2612"
    },
    {
      "channel": 4,
      "note": 70,
      "start": 37.3458,
      "duration": 0.0563,
      "velocity": 102,
      "chip": "ym2612"
    },
    {
      "channel": 2,
      "note": 68,
      "start": 37.3783,
      "duration": 0.0152,
      "velocity": 102,
      "chip": "ym2612"
    },
    {
      "channel": 1,
      "note": 51,
      "start": 37.4004,
      "duration": 0.0495,
      "velocity": 104,
      "chip": "ym2612"
    },
    {
      "channel": 2,
      "note": 71,
      "start": 37.4011,
      "duration": 0.0157,
      "velocity": 102,
      "chip": "ym2612"
    },
    {
      "channel": 3,
      "note": 64,
      "start": 37.4019,
      "duration": 0.0492,
      "velocity": 102,
      "chip": "ym2612"
    },
    {
      "channel": 1,
      "note": 52,
      "start": 37.4503,
      "duration": 0.1673,
      "velocity": 104,
      "chip": "ym2612"
    },
    {
      "channel": 2,
      "note": 68,
      "start": 37.451,
      "duration": 0.0824,
      "velocity": 102,
      "chip": "ym2612"
    },
    {
      "channel": 2,
      "note": 66,
      "start": 37.5679,
      "duration": 0.0168,
      "velocity": 102,
      "chip": "ym2612"
    },
    {
      "channel": 3,
      "note": 71,
      "start": 37.5686,
      "duration": 0.0502,
      "velocity": 102,
      "chip": "ym2612"
    },
    {
      "channel": 4,
      "note": 68,
      "start": 37.5694,
      "duration": 0.0498,
      "velocity": 102,
      "chip": "ym2612"
    },
    {
      "channel": 1,
      "note": 52,
      "start": 37.618,
      "duration": 0.1179,
      "velocity": 104,
      "chip": "ym2612"
    },
    {
      "channel": 2,
      "note": 71,
      "start": 37.6187,
      "duration": 0.0826,
      "velocity": 102,
      "chip": "ym2612"
    },
    {
      "channel": 0,
      "note": 107,
      "start": 37.7358,
      "duration": 0.0577,
      "velocity": 101,
      "chip": "ym2612"
    },
    {
      "channel": 1,
      "note": 52,
      "start": 37.7536,
      "duration": 0.0177,
      "velocity": 104,
      "chip": "ym2612"
    },
    {
      "channel": 3,
      "note": 71,
      "start": 37.7547,
      "duration": 0.018,
      "velocity": 102,
      "chip": "ym2612"
    },
    {
      "channel": 4,
      "note": 68,
      "start": 37.7555,
      "duration": 0.0179,
      "velocity": 102,
      "chip": "ym2612"
    },
    {
      "channel": 1,
      "note": 51,
      "start": 37.7719,
      "duration": 0.0735,
      "velocity": 104,
      "chip": "ym2612"
    },
    {
      "channel": 2,
      "note": 68,
      "start": 37.7726,
      "duration": 0.0148,
      "velocity": 102,
      "chip": "ym2612"
    },
    {
      "channel": 3,
      "note": 64,
      "start": 37.7733,
      "duration": 0.1229,
      "velocity": 102,
      "chip": "ym2612"
    },
    {
      "channel": 0,
      "note": 102,
      "start": 37.7941,
      "duration": 0.012,
      "velocity": 101,
      "chip": "ym2612"
    },
    {
      "channel": 2,
      "note": 66,
      "start": 37.7951,
      "duration": 0.0159,
      "velocity": 102,
      "chip": "ym2612"
    },
    {
      "channel": 0,
      "note": 103,
      "start": 37.8067,
      "duration": 0.0378,
      "velocity": 101,
      "chip": "ym2612"
    },
    {
      "channel": 0,
      "note": 104,
      "start": 37.8452,
      "duration": 0.3346,
      "velocity": 101,
      "chip": "ym2612"
    },
    {
      "channel": 1,
      "note": 54,
      "start": 37.8459,
      "duration": 0.0493,
      "velocity": 104,
      "chip": "ym2612"
    },
    {
      "channel": 2,
      "note": 71,
      "start": 37.8466,
      "duration": 0.0156,
      "velocity": 102,
      "chip": "ym2612"
    },
    {
      "channel": 2,
      "note": 73,
      "start": 37.896,
      "duration": 0.0826,
      "velocity": 102,
      "chip": "ym2612"
    },
    {
      "channel": 3,
      "note": 66,
      "start": 37.8968,
      "duration": 0.1159,
      "velocity": 102,
      "chip": "ym2612"
    },
    {
      "channel": 3,
      "note": 73,
      "start": 38.0134,
      "duration": 0.0503,
      "velocity": 102,
      "chip": "ym2612"
    },
    {
      "channel": 4,
      "note": 70,
      "start": 38.0142,
      "duration": 0.0498,
      "velocity": 102,
      "chip": "ym2612"
    },
    {
      "channel": 2,
      "note": 75,
      "start": 38.0636,
      "duration": 0.0828,
      "velocity": 102,
      "chip": "ym2612"
    },
    {
      "channel": 0,
      "note": 102,
      "start": 38.1805,
      "duration": 0.1102,
      "velocity": 101,
      "chip": "ym2612"
    },
    {
      "channel": 2,
      "note": 71,
      "start": 38.1813,
      "duration": 0.0123,
      "velocity": 102,
      "chip": "ym2612"
    },
    {
      "channel": 2,
      "note": 68,
      "start": 38.1963,
      "duration": 0.0151,
      "velocity": 102,
      "chip": "ym2612"
    },
    {
      "channel": 3,
      "note": 73,
      "start": 38.197,
      "duration": 0.0216,
      "velocity": 102,
      "chip": "ym2612"
    },
    {
      "channel": 4,
      "note": 70,
      "start": 38.1979,
      "duration": 0.0216,
      "velocity": 102,
      "chip": "ym2612"
    },
    {
      "channel": 1,
      "note": 51,
      "start": 38.2178,
      "duration": 0.0737,
      "velocity": 104,
      "chip": "ym2612"
    },
    {
      "channel": 2,
      "note": 66,
      "start": 38.2185,
      "duration": 0.0164,
      "velocity": 102,
      "chip": "ym2612"
    },
    {
      "channel": 3,
      "note": 66,
      "start": 38.2193,
      "duration": 0.0737,
      "velocity": 102,
      "chip": "ym2612"
    },
    {
      "channel": 2,
      "note": 68,
      "start": 38.2693,
      "duration": 0.0145,
      "velocity": 102,
      "chip": "ym2612"
    },
    {
      "channel": 0,
      "note": 97,
      "start": 38.2914,
      "duration": 0.0109,
      "velocity": 101,
      "chip": "ym2612"
    },
    {
      "channel": 1,
      "note": 54,
      "start": 38.2921,
      "duration": 0.05,
      "velocity": 104,
      "chip": "ym2612"
    },
    {
      "channel": 2,
      "note": 71,
      "start": 38.2927,
      "duration": 0.0164,
      "velocity": 102,
      "chip": "ym2612"
    },
    {
      "channel": 3,
      "note": 68,
      "start": 38.2936,
      "duration": 0.0498,
      "velocity": 102,
      "chip": "ym2612"
    },
    {
      "channel": 0,
      "note": 98,
      "start": 38.3029,
      "duration": 0.0383,
      "velocity": 101,
      "chip": "ym2612"
    },
    {
      "channel": 0,
      "note": 97,
      "start": 38.3419,
      "duration": 0.116,
      "velocity": 101,
      "chip": "ym2612"
    },
    {
      "channel": 1,
      "note": 56,
      "start": 38.3426,
      "duration": 0.2328,
      "velocity": 104,
      "chip": "ym2612"
    },
    {
      "channel": 2,
      "note": 68,
      "start": 38.3432,
      "duration": 0.0821,
      "velocity": 102,
      "chip": "ym2612"
    },
    {
      "channel": 0,
      "note": 95,
      "start": 38.4586,
      "duration": 0.151,
      "velocity": 101,
      "chip": "ym2612"
    },
    {
      "channel": 2,
      "note": 66,
      "start": 38.4596,
      "duration": 0.0823,
      "velocity": 102,
      "chip": "ym2612"
    },
    {
      "channel": 3,
      "note": 75,
      "start": 38.4603,
      "duration": 0.1163,
      "velocity": 102,
      "chip": "ym2612"
    },
    {
      "channel": 4,
      "note": 71,
      "start": 38.4611,
      "duration": 0.1159,
      "velocity": 102,
      "chip": "ym2612"
    },
    {
      "channel": 1,
      "note": 56,
      "start": 38.5759,
      "duration": 0.0346,
      "velocity": 104,
      "chip": "ym2612"
    },
    {
      "channel": 2,
      "note": 71,
      "start": 38.5766,
      "duration": 0.0165,
      "velocity": 102,
      "chip": "ym2612"
    },
    {
      "channel": 0,
      "note": 97,
      "start": 38.6103,
      "duration": 0.041,
      "velocity": 101,
      "chip": "ym2612"
    },
    {
      "channel": 1,
      "note": 56,
      "start": 38.629,
      "duration": 0.0231,
      "velocity": 104,
      "chip": "ym2612"
    },
    {
      "channel": 2,
      "note": 68,
      "start": 38.6297,
      "duration": 0.0164,
      "velocity": 102,
      "chip": "ym2612"
    },
    {
      "channel": 3,
      "note": 75,
      "start": 38.6305,
      "duration": 0.0229,
      "velocity": 102,
      "chip": "ym2612"
    },
    {
      "channel": 4,
      "note": 71,
      "start": 38.6313,
      "duration": 0.0229,
      "velocity": 102,
      "chip": "ym2612"
    },
    {
      "channel": 0,
      "note": 92,
      "start": 38.652,
      "duration": 0.0222,
      "velocity": 101,
      "chip": "ym2612"
    },
    {
      "channel": 1,
      "note": 54,
      "start": 38.6526,
      "duration": 0.0224,
      "velocity": 104,
      "chip": "ym2612"
    },
    {
      "channel": 2,
      "note": 66,
      "start": 38.6533,
      "duration": 0.0152,
      "velocity": 102,
      "chip": "ym2612"
    },
    {
      "channel": 3,
      "note": 68,
      "start": 38.6541,
      "duration": 0.1237,
      "velocity": 102,
      "chip": "ym2612"
    },
    {
      "channel": 0,
      "note": 95,
      "start": 38.6749,
      "duration": 0.2948,
      "velocity": 101,
      "chip": "ym2612"
    },
    {
      "channel": 1,
      "note": 51,
      "start": 38.6755,
      "duration": 0.0501,
      "velocity": 104,
      "chip": "ym2612"
    },
    {
      "channel": 2,
      "note": 63,
      "start": 38.6762,
      "duration": 0.0159,
      "velocity": 102,
      "chip": "ym2612"
    },
    {
      "channel": 1,
      "note": 56,
      "start": 38.7262,
      "duration": 0.0748,
      "velocity": 104,
      "chip": "ym2612"
    },
    {
      "channel": 2,
      "note": 63,
      "start": 38.7269,
      "duration": 0.0164,
      "velocity": 102,
      "chip": "ym2612"
    },
    {
      "channel": 2,
      "note": 75,
      "start": 38.7776,
      "duration": 0.0165,
      "velocity": 102,
      "chip": "ym2612"
    },
    {
      "channel": 3,
      "note": 68,
      "start": 38.7782,
      "duration": 0.0242,
      "velocity": 102,
      "chip": "ym2612"
    },
    {
      "channel": 4,
      "note": 71,
      "start": 38.7789,
      "duration": 0.0243,
      "velocity": 102,
      "chip": "ym2612"
    },
    {
      "channel": 1,
      "note": 54,
      "start": 38.8016,
      "duration": 0.0718,
      "velocity": 104,
      "chip": "ym2612"
    },
    {
      "channel": 2,
      "note": 62,
      "start": 38.8023,
      "duration": 0.0169,
      "velocity": 102,
      "chip": "ym2612"
    },
    {
      "channel": 3,
      "note": 76,
      "start": 38.8031,
      "duration": 0.0717,
      "velocity": 102,
      "chip": "ym2612"
    },
    {
      "channel": 4,
      "note": 73,
      "start": 38.8038,
      "duration": 0.0717,
      "velocity": 102,
      "chip": "ym2612"
    },
    {
      "channel": 2,
      "note": 74,
      "start": 38.8231,
      "duration": 0.0167,
      "velocity": 102,
      "chip": "ym2612"
    },
    {
      "channel": 1,
      "note": 56,
      "start": 38.8739,
      "duration": 0.0457,
      "velocity": 104,
      "chip": "ym2612"
    },
    {
      "channel": 2,
      "note": 61,
      "start": 38.8746,
      "duration": 0.0167,
      "velocity": 102,
      "chip": "ym2612"
    },
    {
      "channel": 3,
      "note": 75,
      "start": 38.8754,
      "duration": 0.0456,
      "velocity": 102,
      "chip": "ym2612"
    },
    {
      "channel": 4,
      "note": 71,
      "start": 38.8762,
      "duration": 0.0456,
      "velocity": 102,
      "chip": "ym2612"
    },
    {
      "channel": 2,
      "note": 73,
      "start": 38.8979,
      "duration": 0.0154,
      "velocity": 102,
      "chip": "ym2612"
    },
    {
      "channel": 1,
      "note": 59,
      "start": 38.9201,
      "duration": 0.0501,
      "velocity": 104,
      "chip": "ym2612"
    },
    {
      "channel": 2,
      "note": 59,
      "start": 38.9208,
      "duration": 0.017,
      "velocity": 102,
      "chip": "ym2612"
    },
    {
      "channel": 3,
      "note": 73,
      "start": 38.9216,
      "duration": 0.0499,
      "velocity": 102,
      "chip": "ym2612"
    },
    {
      "channel": 4,
      "note": 70,
      "start": 38.9224,
      "duration": 0.0499,
      "velocity": 102,
      "chip": "ym2612"
    },
    {
      "channel": 2,
      "note": 71,
      "start": 38.9463,
      "duration": 0.0161,
      "velocity": 102,
      "chip": "ym2612"
    },
    {
      "channel": 1,
      "note": 51,
      "start": 38.9707,
      "duration": 0.0491,
      "velocity": 104,
      "chip": "ym2612"
    },
    {
      "channel": 3,
      "note": 64,
      "start": 38.9721,
      "duration": 0.0491,
      "velocity": 102,
      "chip": "ym2612"
    },
    {
      "channel": 1,
      "note": 52,
      "start": 39.0204,
      "duration": 0.1506,
      "velocity": 104,
      "chip": "ym2612"
    },
    {
      "channel": 2,
      "note": 66,
      "start": 39.0211,
      "duration": 0.0824,
      "velocity": 102,
      "chip": "ym2612"
    },
    {
      "channel": 2,
      "note": 68,
      "start": 39.1212,
      "duration": 0.0167,
      "velocity": 102,
      "chip": "ym2612"
    },
    {
      "channel": 3,
      "note": 71,
      "start": 39.122,
      "duration": 0.0501,
      "velocity": 102,
      "chip": "ym2612"
    },
    {
      "channel": 4,
      "note": 68,
      "start": 39.1228,
      "duration": 0.0497,
      "velocity": 102,
      "chip": "ym2612"
    },
    {
      "channel": 1,
      "note": 52,
      "start": 39.1713,
      "duration": 0.1179,
      "velocity": 104,
      "chip": "ym2612"
    },
    {
      "channel": 2,
      "note": 66,
      "start": 39.172,
      "duration": 0.0826,
      "velocity": 102,
      "chip": "ym2612"
    },
    {
      "channel": 0,
      "note": 107,
      "start": 39.2891,
      "duration": 0.0618,
      "velocity": 101,
      "chip": "ym2612"
    },
    {
      "channel": 2,
      "note": 71,
      "start": 39.2901,
      "duration": 0.0126,
      "velocity": 102,
      "chip": "ym2612"
    },
    {
      "channel": 1,
      "note": 52,
      "start": 39.3076,
      "duration": 0.0207,
      "velocity": 104,
      "chip": "ym2612"
    },
    {
      "channel": 3,
      "note": 71,
      "start": 39.3087,
      "duration": 0.021,
      "velocity": 102,
      "chip": "ym2612"
    },
    {
      "channel": 4,
      "note": 68,
      "start": 39.3095,
      "duration": 0.021,
      "velocity": 102,
      "chip": "ym2612"
    },
    {
      "channel": 1,
      "note": 51,
      "start": 39.3288,
      "duration": 0.0739,
      "velocity": 104,
      "chip": "ym2612"
    },
    {
      "channel": 2,
      "note": 68,
      "start": 39.3295,
      "duration": 0.0151,
      "velocity": 102,
      "chip": "ym2612"
    },
    {
      "channel": 3,
      "note": 64,
      "start": 39.3303,
      "duration": 0.1062,
      "velocity": 102,
      "chip": "ym2612"
    },
    {
      "channel": 0,
      "note": 102,
      "start": 39.3516,
      "duration": 0.0092,
      "velocity": 101,
      "chip": "ym2612"
    },
    {
      "channel": 2,
      "note": 66,
      "start": 39.3526,
      "duration": 0.0159,
      "velocity": 102,
      "chip": "ym2612"
    },
    {
      "channel": 0,
      "note": 103,
      "start": 39.3614,
      "duration": 0.0406,
      "velocity": 101,
      "chip": "ym2612"
    },
    {
      "channel": 0,
      "note": 104,
      "start": 39.4027,
      "duration": 0.3178,
      "velocity": 101,
      "chip": "ym2612"
    },
    {
      "channel": 1,
      "note": 54,
      "start": 39.4034,
      "duration": 0.0325,
      "velocity": 104,
      "chip": "ym2612"
    },
    {
      "channel": 2,
      "note": 71,
      "start": 39.4041,
      "duration": 0.0155,
      "velocity": 102,
      "chip": "ym2612"
    },
    {
      "channel": 3,
      "note": 66,
      "start": 39.4372,
      "duration": 0.1161,
      "velocity": 102,
      "chip": "ym2612"
    },
    {
      "channel": 3,
      "note": 73,
      "start": 39.5539,
      "duration": 0.0504,
      "velocity": 102,
      "chip": "ym2612"
    },
    {
      "channel": 4,
      "note": 70,
      "start": 39.5546,
      "duration": 0.05,
      "velocity": 102,
      "chip": "ym2612"
    },
    {
      "channel": 2,
      "note": 71,
      "start": 39.6042,
      "duration": 0.0828,
      "velocity": 102,
      "chip": "ym2612"
    },
    {
      "channel": 0,
      "note": 102,
      "start": 39.7211,
      "duration": 0.1086,
      "velocity": 101,
      "chip": "ym2612"
    },
    {
      "channel": 2,
      "note": 68,
      "start": 39.7219,
      "duration": 0.0124,
      "velocity": 102,
      "chip": "ym2612"
    },
    {
      "channel": 3,
      "note": 73,
      "start": 39.7398,
      "duration": 0.0219,
      "velocity": 102,
      "chip": "ym2612"
    },
    {
      "channel": 4,
      "note": 70,
      "start": 39.7405,
      "duration": 0.0219,
      "velocity": 102,
      "chip": "ym2612"
    },
    {
      "channel": 1,
      "note": 51,
      "start": 39.7608,
      "duration": 0.0698,
      "velocity": 104,
      "chip": "ym2612"
    },
    {
      "channel": 2,
      "note": 66,
      "start": 39.7615,
      "duration": 0.0163,
      "velocity": 102,
      "chip": "ym2612"
    },
    {
      "channel": 3,
      "note": 66,
      "start": 39.7623,
      "duration": 0.0693,
      "velocity": 102,
      "chip": "ym2612"
    },
    {
      "channel": 2,
      "note": 71,
      "start": 39.8125,
      "duration": 0.0144,
      "velocity": 102,
      "chip": "ym2612"
    },
    {
      "channel": 0,
      "note": 97,
      "start": 39.8305,
      "duration": 0.0127,
      "velocity": 101,
      "chip": "ym2612"
    },
    {
      "channel": 1,
      "note": 54,
      "start": 39.8311,
      "duration": 0.0498,
      "velocity": 104,
      "chip": "ym2612"
    },
    {
      "channel": 3,
      "note": 68,
      "start": 39.8322,
      "duration": 0.0505,
      "velocity": 102,
      "chip": "ym2612"
    },
    {
      "channel": 0,
      "note": 98,
      "start": 39.8438,
      "duration": 0.0364,
      "velocity": 101,
      "chip": "ym2612"
    },
    {
      "channel": 0,
      "note": 95,
      "start": 39.8808,
      "duration": 0.1165,
      "velocity": 101,
      "chip": "ym2612"
    },
    {
      "channel": 1,
      "note": 56,
      "start": 39.8815,
      "duration": 0.1668,
      "velocity": 104,
      "chip": "ym2612"
    },
    {
      "channel": 2,
      "note": 73,
      "start": 39.8825,
      "duration": 0.0816,
      "velocity": 102,
      "chip": "ym2612"
    },
    {
      "channel": 0,
      "note": 92,
      "start": 39.998,
      "duration": 0.1671,
      "velocity": 101,
      "chip": "ym2612"
    },
    {
      "channel": 2,
      "note": 71,
      "start": 39.999,
      "duration": 0.0166,
      "velocity": 102,
      "chip": "ym2612"
    },
    {
      "channel": 3,
      "note": 75,
      "start": 39.9998,
      "duration": 0.0498,
      "velocity": 102,
      "chip": "ym2612"
    },
    {
      "channel": 4,
      "note": 71,
      "start": 40.0006,
      "duration": 0.0493,
      "velocity": 102,
      "chip": "ym2612"
    },
    {
      "channel": 1,
      "note": 56,
      "start": 40.0487,
      "duration": 0.1173,
      "velocity": 104,
      "chip": "ym2612"
    },
    {
      "channel": 2,
      "note": 68,
      "start": 40.0494,
      "duration": 0.0826,
      "velocity": 102,
      "chip": "ym2612"
    },
    {
      "channel": 0,
      "note": 95,
      "start": 40.1659,
      "duration": 0.0397,
      "velocity": 101,
      "chip": "ym2612"
    },
    {
      "channel": 2,
      "note": 71,
      "start": 40.1668,
      "duration": 0.0121,
      "velocity": 102,
      "chip": "ym2612"
    },
    {
      "channel": 1,
      "note": 56,
      "start": 40.1839,
      "duration": 0.0224,
      "velocity": 104,
      "chip": "ym2612"
    },
    {
      "channel": 3,
      "note": 75,
      "start": 40.185,
      "duration": 0.0228,
      "velocity": 102,
      "chip": "ym2612"
    },
    {
      "channel": 4,
      "note": 71,
      "start": 40.1858,
      "duration": 0.0227,
      "velocity": 102,
      "chip": "ym2612"
    },
    {
      "channel": 0,
      "note": 97,
      "start": 40.2062,
      "duration": 0.0702,
      "velocity": 101,
      "chip": "ym2612"
    },
    {
      "channel": 1,
      "note": 54,
      "start": 40.2068,
      "duration": 0.0188,
      "velocity": 104,
      "chip": "ym2612"
    },
    {
      "channel": 2,
      "note": 68,
      "start": 40.2076,
      "duration": 0.0152,
      "velocity": 102,
      "chip": "ym2612"
    },
    {
      "channel": 3,
      "note": 68,
      "start": 40.2084,
      "duration": 0.1201,
      "velocity": 102,
      "chip": "ym2612"
    },
    {
      "channel": 1,
      "note": 51,
      "start": 40.2262,
      "duration": 0.051,
      "velocity": 104,
      "chip": "ym2612"
    },
    {
      "channel": 2,
      "note": 66,
      "start": 40.2269,
      "duration": 0.0163,
      "velocity": 102,
      "chip": "ym2612"
    },
    {
      "channel": 0,
      "note": 98,
      "start": 40.2771,
      "duration": 0.05,
      "velocity": 101,
      "chip": "ym2612"
    },
    {
      "channel": 1,
      "note": 56,
      "start": 40.2778,
      "duration": 0.1677,
      "velocity": 104,
      "chip": "ym2612"
    },
    {
      "channel": 2,
      "note": 71,
      "start": 40.2788,
      "duration": 0.0156,
      "velocity": 102,
      "chip": "ym2612"
    },
    {
      "channel": 0,
      "note": 99,
      "start": 40.3277,
      "duration": 0.1169,
      "velocity": 101,
      "chip": "ym2612"
    },
    {
      "channel": 3,
      "note": 68,
      "start": 40.3289,
      "duration": 0.1172,
      "velocity": 102,
      "chip": "ym2612"
    },
    {
      "channel": 4,
      "note": 71,
      "start": 40.3296,
      "duration": 0.1174,
      "velocity": 102,
      "chip": "ym2612"
    },
    {
      "channel": 0,
      "note": 102,
      "start": 40.4453,
      "duration": 0.0501,
      "velocity": 101,
      "chip": "ym2612"
    },
    {
      "channel": 1,
      "note": 54,
      "start": 40.446,
      "duration": 0.1669,
      "velocity": 104,
      "chip": "ym2612"
    },
    {
      "channel": 3,
      "note": 76,
      "start": 40.4468,
      "duration": 0.1671,
      "velocity": 102,
      "chip": "ym2612"
    },
    {
      "channel": 4,
      "note": 73,
      "start": 40.4476,
      "duration": 0.167,
      "velocity": 102,
      "chip": "ym2612"
    },
    {
      "channel": 2,
      "note": 71,
      "start": 40.4969,
      "duration": 0.0818,
      "velocity": 102,
      "chip": "ym2612"
    },
    {
      "channel": 0,
      "note": 102,
      "start": 40.6128,
      "duration": 0.0228,
      "velocity": 101,
      "chip": "ym2612"
    },
    {
      "channel": 1,
      "note": 56,
      "start": 40.6134,
      "duration": 0.0411,
      "velocity": 104,
      "chip": "ym2612"
    },
    {
      "channel": 3,
      "note": 75,
      "start": 40.6145,
      "duration": 0.0414,
      "velocity": 102,
      "chip": "ym2612"
    },
    {
      "channel": 4,
      "note": 71,
      "start": 40.6153,
      "duration": 0.0414,
      "velocity": 102,
      "chip": "ym2612"
    },
    {
      "channel": 2,
      "note": 71,
      "start": 40.6368,
      "duration": 0.0141,
      "velocity": 102,
      "chip": "ym2612"
    },
    {
      "channel": 0,
      "note": 102,
      "start": 40.6544,
      "duration": 0.051,
      "velocity": 101,
      "chip": "ym2612"
    },
    {
      "channel": 1,
      "note": 59,
      "start": 40.655,
      "duration": 0.073,
      "velocity": 104,
      "chip": "ym2612"
    },
    {
      "channel": 2,
      "note": 73,
      "start": 40.6557,
      "duration": 0.0166,
      "velocity": 102,
      "chip": "ym2612"
    },
    {
      "channel": 3,
      "note": 73,
      "start": 40.6565,
      "duration": 0.0729,
      "velocity": 102,
      "chip": "ym2612"
    },
    {
      "channel": 4,
      "note": 70,
      "start": 40.6573,
      "duration": 0.0731,
      "velocity": 102,
      "chip": "ym2612"
    },
    {
      "channel": 2,
      "note": 68,
      "start": 40.7065,
      "duration": 0.0152,
      "velocity": 102,
      "chip": "ym2612"
    },
    {
      "channel": 1,
      "note": 51,
      "start": 40.7285,
      "duration": 0.0494,
      "velocity": 104,
      "chip": "ym2612"
    },
    {
      "channel": 2,
      "note": 71,
      "start": 40.7293,
      "duration": 0.0157,
      "velocity": 102,
      "chip": "ym2612"
    },
    {
      "channel": 3,
      "note": 64,
      "start": 40.7301,
      "duration": 0.0492,
      "velocity": 102,
      "chip": "ym2612"
    },
    {
      "channel": 1,
      "note": 52,
      "start": 40.7785,
      "duration": 0.1673,
      "velocity": 104,
      "chip": "ym2612"
    },
    {
      "channel": 2,
      "note": 68,
      "start": 40.7792,
      "duration": 0.0824,
      "velocity": 102,
      "chip": "ym2612"
    },
    {
      "channel": 2,
      "note": 66,
      "start": 40.896,
      "duration": 0.0168,
      "velocity": 102,
      "chip": "ym2612"
    },
    {
      "channel": 3,
      "note": 71,
      "start": 40.8968,
      "duration": 0.0502,
      "velocity": 102,
      "chip": "ym2612"
    },
    {
      "channel": 4,
      "note": 68,
      "start": 40.8976,
      "duration": 0.0497,
      "velocity": 102,
      "chip": "ym2612"
    },
    {
      "channel": 1,
      "note": 52,
      "start": 40.9461,
      "duration": 0.1179,
      "velocity": 104,
      "chip": "ym2612"
    },
    {
      "channel": 2,
      "note": 71,
      "start": 40.9468,
      "duration": 0.0826,
      "velocity": 102,
      "chip": "ym2612"
    },
    {
      "channel": 0,
      "note": 107,
      "start": 41.0639,
      "duration": 0.0578,
      "velocity": 101,
      "chip": "ym2612"
    },
    {
      "channel": 1,
      "note": 52,
      "start": 41.0793,
      "duration": 0.0208,
      "velocity": 104,
      "chip": "ym2612"
    },
    {
      "channel": 3,
      "note": 71,
      "start": 41.0804,
      "duration": 0.021,
      "velocity": 102,
      "chip": "ym2612"
    },
    {
      "channel": 4,
      "note": 68,
      "start": 41.0812,
      "duration": 0.021,
      "velocity": 102,
      "chip": "ym2612"
    },
    {
      "channel": 1,
      "note": 51,
      "start": 41.1006,
      "duration": 0.073,
      "velocity": 104,
      "chip": "ym2612"
    },
    {
      "channel": 2,
      "note": 68,
      "start": 41.1013,
      "duration": 0.0148,
      "velocity": 102,
      "chip": "ym2612"
    },
    {
      "channel": 3,
      "note": 64,
      "start": 41.102,
      "duration": 0.1224,
      "velocity": 102,
      "chip": "ym2612"
    },
    {
      "channel": 0,
      "note": 102,
      "start": 41.1223,
      "duration": 0.012,
      "velocity": 101,
      "chip": "ym2612"
    },
    {
      "channel": 2,
      "note": 66,
      "start": 41.1233,
      "duration": 0.0159,
      "velocity": 102,
      "chip": "ym2612"
    },
    {
      "channel": 0,
      "note": 103,
      "start": 41.1349,
      "duration": 0.0378,
      "velocity": 101,
      "chip": "ym2612"
    },
    {
      "channel": 0,
      "note": 104,
      "start": 41.1734,
      "duration": 0.3179,
      "velocity": 101,
      "chip": "ym2612"
    },
    {
      "channel": 1,
      "note": 54,
      "start": 41.1741,
      "duration": 0.0493,
      "velocity": 104,
      "chip": "ym2612"
    },
    {
      "channel": 2,
      "note": 71,
      "start": 41.1748,
      "duration": 0.0156,
      "velocity": 102,
      "chip": "ym2612"
    },
    {
      "channel": 2,
      "note": 73,
      "start": 41.2242,
      "duration": 0.0827,
      "velocity": 102,
      "chip": "ym2612"
    },
    {
      "channel": 3,
      "note": 66,
      "start": 41.2251,
      "duration": 0.1159,
      "velocity": 102,
      "chip": "ym2612"
    },
    {
      "channel": 3,
      "note": 73,
      "start": 41.3416,
      "duration": 0.0503,
      "velocity": 102,
      "chip": "ym2612"
    },
    {
      "channel": 4,
      "note": 70,
      "start": 41.3424,
      "duration": 0.0498,
      "velocity": 102,
      "chip": "ym2612"
    },
    {
      "channel": 2,
      "note": 75,
      "start": 41.3918,
      "duration": 0.0828,
      "velocity": 102,
      "chip": "ym2612"
    },
    {
      "channel": 0,
      "note": 102,
      "start": 41.4921,
      "duration": 0.1127,
      "velocity": 101,
      "chip": "ym2612"
    },
    {
      "channel": 2,
      "note": 71,
      "start": 41.4928,
      "duration": 0.0125,
      "velocity": 102,
      "chip": "ym2612"
    },
    {
      "channel": 2,
      "note": 68,
      "start": 41.5104,
      "duration": 0.0151,
      "velocity": 102,
      "chip": "ym2612"
    },
    {
      "channel": 3,
      "note": 73,
      "start": 41.5111,
      "duration": 0.0216,
      "velocity": 102,
      "chip": "ym2612"
    },
    {
      "channel": 4,
      "note": 70,
      "start": 41.5119,
      "duration": 0.0216,
      "velocity": 102,
      "chip": "ym2612"
    },
    {
      "channel": 1,
      "note": 51,
      "start": 41.5319,
      "duration": 0.0737,
      "velocity": 104,
      "chip": "ym2612"
    },
    {
      "channel": 2,
      "note": 66,
      "start": 41.5326,
      "duration": 0.0163,
      "velocity": 102,
      "chip": "ym2612"
    },
    {
      "channel": 3,
      "note": 66,
      "start": 41.5333,
      "duration": 0.0736,
      "velocity": 102,
      "chip": "ym2612"
    },
    {
      "channel": 2,
      "note": 68,
      "start": 41.5833,
      "duration": 0.0145,
      "velocity": 102,
      "chip": "ym2612"
    },
    {
      "channel": 0,
      "note": 99,
      "start": 41.6054,
      "duration": 0.0502,
      "velocity": 101,
      "chip": "ym2612"
    },
    {
      "channel": 1,
      "note": 54,
      "start": 41.6061,
      "duration": 0.0499,
      "velocity": 104,
      "chip": "ym2612"
    },
    {
      "channel": 2,
      "note": 71,
      "start": 41.6068,
      "duration": 0.0159,
      "velocity": 102,
      "chip": "ym2612"
    },
    {
      "channel": 3,
      "note": 68,
      "start": 41.6076,
      "duration": 0.0498,
      "velocity": 102,
      "chip": "ym2612"
    },
    {
      "channel": 1,
      "note": 56,
      "start": 41.6566,
      "duration": 0.2161,
      "velocity": 104,
      "chip": "ym2612"
    },
    {
      "channel": 2,
      "note": 68,
      "start": 41.6572,
      "duration": 0.0817,
      "velocity": 102,
      "chip": "ym2612"
    },
    {
      "channel": 0,
      "note": 99,
      "start": 41.7725,
      "duration": 0.0999,
      "velocity": 101,
      "chip": "ym2612"
    },
    {
      "channel": 2,
      "note": 66,
      "start": 41.7735,
      "duration": 0.0824,
      "velocity": 102,
      "chip": "ym2612"
    },
    {
      "channel": 3,
      "note": 75,
      "start": 41.7743,
      "duration": 0.0997,
      "velocity": 102,
      "chip": "ym2612"
    },
    {
      "channel": 4,
      "note": 71,
      "start": 41.7751,
      "duration": 0.0992,
      "velocity": 102,
      "chip": "ym2612"
    },
    {
      "channel": 1,
      "note": 56,
      "start": 41.8732,
      "duration": 0.0515,
      "velocity": 104,
      "chip": "ym2612"
    },
    {
      "channel": 2,
      "note": 71,
      "start": 41.8739,
      "duration": 0.0161,
      "velocity": 102,
      "chip": "ym2612"
    },
    {
      "channel": 0,
      "note": 97,
      "start": 41.9246,
      "duration": 0.1145,
      "velocity": 101,
      "chip": "ym2612"
    },
    {
      "channel": 1,
      "note": 56,
      "start": 41.9428,
      "duration": 0.0225,
      "velocity": 104,
      "chip": "ym2612"
    },
    {
      "channel": 2,
      "note": 68,
      "start": 41.9435,
      "duration": 0.0162,
      "velocity": 102,
      "chip": "ym2612"
    },
    {
      "channel": 3,
      "note": 75,
      "start": 41.9443,
      "duration": 0.0223,
      "velocity": 102,
      "chip": "ym2612"
    },
    {
      "channel": 4,
      "note": 71,
      "start": 41.9451,
      "duration": 0.0223,
      "velocity": 102,
      "chip": "ym2612"
    },
    {
      "channel": 1,
      "note": 54,
      "start": 41.9658,
      "duration": 0.0225,
      "velocity": 104,
      "chip": "ym2612"
    },
    {
      "channel": 2,
      "note": 66,
      "start": 41.9665,
      "duration": 0.0148,
      "velocity": 102,
      "chip": "ym2612"
    },
    {
      "channel": 3,
      "note": 68,
      "start": 41.9673,
      "duration": 0.1246,
      "velocity": 102,
      "chip": "ym2612"
    },
    {
      "channel": 1,
      "note": 51,
      "start": 41.9889,
      "duration": 0.051,
      "velocity": 104,
      "chip": "ym2612"
    },
    {
      "channel": 2,
      "note": 63,
      "start": 41.9896,
      "duration": 0.0163,
      "velocity": 102,
      "chip": "ym2612"
    },
    {
      "channel": 0,
      "note": 95,
      "start": 42.0398,
      "duration": 0.0503,
      "velocity": 101,
      "chip": "ym2612"
    },
    {
      "channel": 1,
      "note": 56,
      "start": 42.0404,
      "duration": 0.0712,
      "velocity": 104,
      "chip": "ym2612"
    },
    {
      "channel": 2,
      "note": 63,
      "start": 42.0411,
      "duration": 0.0158,
      "velocity": 102,
      "chip": "ym2612"
    },
    {
      "channel": 0,
      "note": 92,
      "start": 42.0908,
      "duration": 0.1936,
      "velocity": 98,
      "chip": "ym2612"
    },
    {
      "channel": 2,
      "note": 75,
      "start": 42.0918,
      "duration": 0.0167,
      "velocity": 102,
      "chip": "ym2612"
    },
    {
      "channel": 3,
      "note": 68,
      "start": 42.0924,
      "duration": 0.0207,
      "velocity": 102,
      "chip": "ym2612"
    },
    {
      "channel": 4,
      "note": 71,
      "start": 42.093,
      "duration": 0.0208,
      "velocity": 102,
      "chip": "ym2612"
    },
    {
      "channel": 1,
      "note": 54,
      "start": 42.1122,
      "duration": 0.0748,
      "velocity": 104,
      "chip": "ym2612"
    },
    {
      "channel": 2,
      "note": 62,
      "start": 42.1129,
      "duration": 0.0166,
      "velocity": 102,
      "chip": "ym2612"
    },
    {
      "channel": 3,
      "note": 76,
      "start": 42.1137,
      "duration": 0.0747,
      "velocity": 102,
      "chip": "ym2612"
    },
    {
      "channel": 4,
      "note": 73,
      "start": 42.1145,
      "duration": 0.0747,
      "velocity": 102,
      "chip": "ym2612"
    },
    {
      "channel": 2,
      "note": 74,
      "start": 42.1368,
      "duration": 0.0167,
      "velocity": 102,
      "chip": "ym2612"
    },
    {
      "channel": 1,
      "note": 56,
      "start": 42.1876,
      "duration": 0.0456,
      "velocity": 104,
      "chip": "ym2612"
    },
    {
      "channel": 2,
      "note": 61,
      "start": 42.1883,
      "duration": 0.0168,
      "velocity": 102,
      "chip": "ym2612"
    },
    {
      "channel": 3,
      "note": 75,
      "start": 42.189,
      "duration": 0.0455,
      "velocity": 102,
      "chip": "ym2612"
    },
    {
      "channel": 4,
      "note": 71,
      "start": 42.1898,
      "duration": 0.0455,
      "velocity": 102,
      "chip": "ym2612"
    },
    {
      "channel": 2,
      "note": 73,
      "start": 42.2114,
      "duration": 0.0151,
      "velocity": 102,
      "chip": "ym2612"
    },
    {
      "channel": 1,
      "note": 59,
      "start": 42.2337,
      "duration": 0.0512,
      "velocity": 104,
      "chip": "ym2612"
    },
    {
      "channel": 2,
      "note": 59,
      "start": 42.2344,
      "duration": 0.0167,
      "velocity": 102,
      "chip": "ym2612"
    },
    {
      "channel": 3,
      "note": 73,
      "start": 42.2352,
      "duration": 0.0537,
      "velocity": 98,
      "chip": "ym2612"
    },
    {
      "channel": 4,
      "note": 70,
      "start": 42.236,
      "duration": 0.0562,
      "velocity": 98,
      "chip": "ym2612"
    },
    {
      "channel": 2,
      "note": 71,
      "start": 42.2583,
      "duration": 0.016,
      "velocity": 102,
      "chip": "ym2612"
    },
    {
      "channel": 1,
      "note": 54,
      "start": 42.2854,
      "duration": 0.0304,
      "velocity": 104,
      "chip": "ym2612"
    },
    {
      "channel": 1,
      "note": 56,
      "start": 42.3164,
      "duration": 0.1672,
      "velocity": 104,
      "chip": "ym2612"
    },
    {
      "channel": 2,
      "note": 68,
      "start": 42.3171,
      "duration": 0.0163,
      "velocity": 102,
      "chip": "ym2612"
    },
    {
      "channel": 2,
      "note": 66,
      "start": 42.3672,
      "duration": 0.0828,
      "velocity": 102,
      "chip": "ym2612"
    },
    {
      "channel": 1,
      "note": 56,
      "start": 42.484,
      "duration": 0.0176,
      "velocity": 104,
      "chip": "ym2612"
    },
    {
      "channel": 2,
      "note": 63,
      "start": 42.4847,
      "duration": 0.0124,
      "velocity": 102,
      "chip": "ym2612"
    },
    {
      "channel": 2,
      "note": 66,
      "start": 42.5024,
      "duration": 0.0111,
      "velocity": 102,
      "chip": "ym2612"
    },
    {
      "channel": 2,
      "note": 66,
      "start": 42.5734,
      "duration": 0.0827,
      "velocity": 102,
      "chip": "ym2612"
    },
    {
      "channel": 0,
      "note": 52,
      "start": 42.6733,
      "duration": 47.8455,
      "velocity": 98,
      "chip": "ym2612"
    }
  ]
}