{
  "track_name": "09 - Crux",
  "duration_sec": 49.974,
  "sample_rate": 44100,
  "note_count": 1109,
  "unique_pitches": 38,
  "pitch_range": 74,
  "avg_note_duration": 0.2134,
  "reconstruction_stats": {
    "notes_reconstructed": 1109,
    "keyon_events": 1109,
    "keyoff_events": 1105,
    "orphan_keyons": 4,
    "unique_pitches": 38,
    "pitch_range": 74,
    "avg_duration_sec": 0.2134
  },
  "metadata": {
    "source": "G\\Gauntlet IV\\09 - Crux.vgz"
  },
  "notes": [
    {
      "channel": 0,
      "note": 34,
      "start": 0.0,
      "duration": 0.9447,
      "velocity": 117,
      "chip": "ym2612"
    },
    {
      "channel": 1,
      "note": 30,
      "start": 0.0011,
      "duration": 0.4773,
      "velocity": 87,
      "chip": "ym2612"
    },
    {
      "channel": 3,
      "note": 34,
      "start": 0.1634,
      "duration": 0.9488,
      "velocity": 117,
      "chip": "ym2612"
    },
    {
      "channel": 1,
      "note": 30,
      "start": 0.4954,
      "duration": 0.0661,
      "velocity": 87,
      "chip": "ym2612"
    },
    {
      "channel": 1,
      "note": 30,
      "start": 0.5789,
      "duration": 0.066,
      "velocity": 87,
      "chip": "ym2612"
    },
    {
      "channel": 1,
      "note": 30,
      "start": 0.662,
      "duration": 0.0665,
      "velocity": 87,
      "chip": "ym2612"
    },
    {
      "channel": 1,
      "note": 30,
      "start": 0.7453,
      "duration": 0.0662,
      "velocity": 87,
      "chip": "ym2612"
    },
    {
      "channel": 1,
      "note": 30,
      "start": 0.8289,
      "duration": 0.066,
      "velocity": 87,
      "chip": "ym2612"
    },
    {
      "channel": 1,
      "note": 30,
      "start": 0.912,
      "duration": 0.0665,
      "velocity": 87,
      "chip": "ym2612"
    },
    {
      "channel": 0,
      "note": 34,
      "start": 0.995,
      "duration": 7.9498,
      "velocity": 117,
      "chip": "ym2612"
    },
    {
      "channel": 1,
      "note": 34,
      "start": 0.9954,
      "duration": 0.1495,
      "velocity": 87,
      "chip": "ym2612"
    },
    {
      "channel": 2,
      "note": 70,
      "start": 0.9964,
      "duration": 0.7986,
      "velocity": 127,
      "chip": "ym2612"
    },
    {
      "channel": 4,
      "note": 102,
      "start": 0.9975,
      "duration": 0.1317,
      "velocity": 109,
      "chip": "ym2612"
    },
    {
      "channel": 1,
      "note": 34,
      "start": 1.1617,
      "duration": 0.1498,
      "velocity": 87,
      "chip": "ym2612"
    },
    {
      "channel": 3,
      "note": 34,
      "start": 1.1627,
      "duration": 7.9494,
      "velocity": 117,
      "chip": "ym2612"
    },
    {
      "channel": 4,
      "note": 102,
      "start": 1.1631,
      "duration": 0.0491,
      "velocity": 109,
      "chip": "ym2612"
    },
    {
      "channel": 4,
      "note": 102,
      "start": 1.2459,
      "duration": 0.0498,
      "velocity": 109,
      "chip": "ym2612"
    },
    {
      "channel": 5,
      "note": 70,
      "start": 1.2469,
      "duration": 0.7988,
      "velocity": 127,
      "chip": "ym2612"
    },
    {
      "channel": 1,
      "note": 30,
      "start": 1.3286,
      "duration": 0.1498,
      "velocity": 87,
      "chip": "ym2612"
    },
    {
      "channel": 4,
      "note": 102,
      "start": 1.3299,
      "duration": 0.1324,
      "velocity": 109,
      "chip": "ym2612"
    },
    {
      "channel": 1,
      "note": 30,
      "start": 1.495,
      "duration": 0.1498,
      "velocity": 87,
      "chip": "ym2612"
    },
    {
      "channel": 1,
      "note": 30,
      "start": 1.6617,
      "duration": 0.1498,
      "velocity": 87,
      "chip": "ym2612"
    },
    {
      "channel": 1,
      "note": 30,
      "start": 1.8286,
      "duration": 0.1498,
      "velocity": 87,
      "chip": "ym2612"
    },
    {
      "channel": 1,
      "note": 30,
      "start": 1.995,
      "duration": 0.1498,
      "velocity": 87,
      "chip": "ym2612"
    },
    {
      "channel": 2,
      "note": 70,
      "start": 1.9953,
      "duration": 0.1333,
      "velocity": 127,
      "chip": "ym2612"
    },
    {
      "channel": 4,
      "note": 102,
      "start": 1.9964,
      "duration": 0.1329,
      "velocity": 109,
      "chip": "ym2612"
    },
    {
      "channel": 1,
      "note": 30,
      "start": 2.1617,
      "duration": 0.1498,
      "velocity": 87,
      "chip": "ym2612"
    },
    {
      "channel": 2,
      "note": 71,
      "start": 2.162,
      "duration": 0.133,
      "velocity": 127,
      "chip": "ym2612"
    },
    {
      "channel": 4,
      "note": 102,
      "start": 2.1631,
      "duration": 0.0492,
      "velocity": 109,
      "chip": "ym2612"
    },
    {
      "channel": 4,
      "note": 102,
      "start": 2.2459,
      "duration": 0.0498,
      "velocity": 109,
      "chip": "ym2612"
    },
    {
      "channel": 5,
      "note": 70,
      "start": 2.2461,
      "duration": 0.1331,
      "velocity": 127,
      "chip": "ym2612"
    },
    {
      "channel": 1,
      "note": 30,
      "start": 2.3286,
      "duration": 0.1498,
      "velocity": 87,
      "chip": "ym2612"
    },
    {
      "channel": 2,
      "note": 73,
      "start": 2.3289,
      "duration": 0.1327,
      "velocity": 127,
      "chip": "ym2612"
    },
    {
      "channel": 4,
      "note": 102,
      "start": 2.33,
      "duration": 0.1323,
      "velocity": 109,
      "chip": "ym2612"
    },
    {
      "channel": 5,
      "note": 71,
      "start": 2.4126,
      "duration": 0.1331,
      "velocity": 127,
      "chip": "ym2612"
    },
    {
      "channel": 1,
      "note": 30,
      "start": 2.495,
      "duration": 0.1498,
      "velocity": 87,
      "chip": "ym2612"
    },
    {
      "channel": 2,
      "note": 71,
      "start": 2.4953,
      "duration": 0.1333,
      "velocity": 127,
      "chip": "ym2612"
    },
    {
      "channel": 5,
      "note": 73,
      "start": 2.5795,
      "duration": 0.1328,
      "velocity": 127,
      "chip": "ym2612"
    },
    {
      "channel": 1,
      "note": 30,
      "start": 2.6617,
      "duration": 0.1498,
      "velocity": 87,
      "chip": "ym2612"
    },
    {
      "channel": 2,
      "note": 70,
      "start": 2.662,
      "duration": 0.133,
      "velocity": 127,
      "chip": "ym2612"
    },
    {
      "channel": 5,
      "note": 71,
      "start": 2.7459,
      "duration": 0.1333,
      "velocity": 127,
      "chip": "ym2612"
    },
    {
      "channel": 1,
      "note": 37,
      "start": 2.8285,
      "duration": 0.1499,
      "velocity": 87,
      "chip": "ym2612"
    },
    {
      "channel": 2,
      "note": 68,
      "start": 2.8288,
      "duration": 0.1328,
      "velocity": 127,
      "chip": "ym2612"
    },
    {
      "channel": 5,
      "note": 70,
      "start": 2.9126,
      "duration": 0.133,
      "velocity": 127,
      "chip": "ym2612"
    },
    {
      "channel": 1,
      "note": 34,
      "start": 2.9951,
      "duration": 0.1497,
      "velocity": 87,
      "chip": "ym2612"
    },
    {
      "channel": 2,
      "note": 70,
      "start": 2.9954,
      "duration": 0.7995,
      "velocity": 127,
      "chip": "ym2612"
    },
    {
      "channel": 4,
      "note": 102,
      "start": 2.9964,
      "duration": 0.1328,
      "velocity": 109,
      "chip": "ym2612"
    },
    {
      "channel": 5,
      "note": 68,
      "start": 3.0795,
      "duration": 0.1329,
      "velocity": 127,
      "chip": "ym2612"
    },
    {
      "channel": 1,
      "note": 34,
      "start": 3.1617,
      "duration": 0.1498,
      "velocity": 87,
      "chip": "ym2612"
    },
    {
      "channel": 4,
      "note": 102,
      "start": 3.1631,
      "duration": 0.0492,
      "velocity": 109,
      "chip": "ym2612"
    },
    {
      "channel": 4,
      "note": 102,
      "start": 3.2459,
      "duration": 0.0498,
      "velocity": 109,
      "chip": "ym2612"
    },
    {
      "channel": 5,
      "note": 70,
      "start": 3.2461,
      "duration": 0.7995,
      "velocity": 127,
      "chip": "ym2612"
    },
    {
      "channel": 1,
      "note": 30,
      "start": 3.3286,
      "duration": 0.1498,
      "velocity": 87,
      "chip": "ym2612"
    },
    {
      "channel": 4,
      "note": 102,
      "start": 3.3299,
      "duration": 0.1324,
      "velocity": 109,
      "chip": "ym2612"
    },
    {
      "channel": 1,
      "note": 30,
      "start": 3.495,
      "duration": 0.1498,
      "velocity": 87,
      "chip": "ym2612"
    },
    {
      "channel": 1,
      "note": 30,
      "start": 3.6617,
      "duration": 0.1498,
      "velocity": 87,
      "chip": "ym2612"
    },
    {
      "channel": 1,
      "note": 30,
      "start": 3.8286,
      "duration": 0.1498,
      "velocity": 87,
      "chip": "ym2612"
    },
    {
      "channel": 1,
      "note": 30,
      "start": 3.995,
      "duration": 0.1498,
      "velocity": 87,
      "chip": "ym2612"
    },
    {
      "channel": 2,
      "note": 70,
      "start": 3.9953,
      "duration": 0.1333,
      "velocity": 127,
      "chip": "ym2612"
    },
    {
      "channel": 4,
      "note": 102,
      "start": 3.9964,
      "duration": 0.1329,
      "velocity": 109,
      "chip": "ym2612"
    },
    {
      "channel": 1,
      "note": 30,
      "start": 4.1617,
      "duration": 0.1498,
      "velocity": 87,
      "chip": "ym2612"
    },
    {
      "channel": 2,
      "note": 71,
      "start": 4.162,
      "duration": 0.133,
      "velocity": 127,
      "chip": "ym2612"
    },
    {
      "channel": 4,
      "note": 102,
      "start": 4.1631,
      "duration": 0.016,
      "velocity": 109,
      "chip": "ym2612"
    },
    {
      "channel": 4,
      "note": 102,
      "start": 4.2125,
      "duration": 0.0167,
      "velocity": 109,
      "chip": "ym2612"
    },
    {
      "channel": 5,
      "note": 70,
      "start": 4.2461,
      "duration": 0.1337,
      "velocity": 127,
      "chip": "ym2612"
    },
    {
      "channel": 4,
      "note": 102,
      "start": 4.2625,
      "duration": 0.0332,
      "velocity": 109,
      "chip": "ym2612"
    },
    {
      "channel": 1,
      "note": 30,
      "start": 4.3286,
      "duration": 0.1498,
      "velocity": 87,
      "chip": "ym2612"
    },
    {
      "channel": 2,
      "note": 73,
      "start": 4.3289,
      "duration": 0.016,
      "velocity": 127,
      "chip": "ym2612"
    },
    {
      "channel": 4,
      "note": 102,
      "start": 4.3301,
      "duration": 0.0154,
      "velocity": 109,
      "chip": "ym2612"
    },
    {
      "channel": 2,
      "note": 73,
      "start": 4.3787,
      "duration": 0.0163,
      "velocity": 127,
      "chip": "ym2612"
    },
    {
      "channel": 4,
      "note": 102,
      "start": 4.3796,
      "duration": 0.016,
      "velocity": 109,
      "chip": "ym2612"
    },
    {
      "channel": 5,
      "note": 71,
      "start": 4.4126,
      "duration": 0.1333,
      "velocity": 127,
      "chip": "ym2612"
    },
    {
      "channel": 2,
      "note": 75,
      "start": 4.4287,
      "duration": 0.0329,
      "velocity": 127,
      "chip": "ym2612"
    },
    {
      "channel": 4,
      "note": 102,
      "start": 4.4295,
      "duration": 0.0328,
      "velocity": 109,
      "chip": "ym2612"
    },
    {
      "channel": 1,
      "note": 30,
      "start": 4.495,
      "duration": 0.1498,
      "velocity": 87,
      "chip": "ym2612"
    },
    {
      "channel": 2,
      "note": 76,
      "start": 4.4953,
      "duration": 0.1333,
      "velocity": 127,
      "chip": "ym2612"
    },
    {
      "channel": 4,
      "note": 102,
      "start": 4.4966,
      "duration": 0.0156,
      "velocity": 109,
      "chip": "ym2612"
    },
    {
      "channel": 4,
      "note": 102,
      "start": 4.5458,
      "duration": 0.0165,
      "velocity": 109,
      "chip": "ym2612"
    },
    {
      "channel": 5,
      "note": 73,
      "start": 4.5795,
      "duration": 0.0165,
      "velocity": 127,
      "chip": "ym2612"
    },
    {
      "channel": 4,
      "note": 102,
      "start": 4.5959,
      "duration": 0.0334,
      "velocity": 109,
      "chip": "ym2612"
    },
    {
      "channel": 5,
      "note": 73,
      "start": 4.6295,
      "duration": 0.0164,
      "velocity": 127,
      "chip": "ym2612"
    },
    {
      "channel": 1,
      "note": 30,
      "start": 4.6617,
      "duration": 0.1498,
      "velocity": 87,
      "chip": "ym2612"
    },
    {
      "channel": 2,
      "note": 75,
      "start": 4.662,
      "duration": 0.133,
      "velocity": 127,
      "chip": "ym2612"
    },
    {
      "channel": 4,
      "note": 102,
      "start": 4.6631,
      "duration": 0.1326,
      "velocity": 109,
      "chip": "ym2612"
    },
    {
      "channel": 5,
      "note": 75,
      "start": 4.6793,
      "duration": 0.0331,
      "velocity": 127,
      "chip": "ym2612"
    },
    {
      "channel": 5,
      "note": 76,
      "start": 4.7459,
      "duration": 0.1333,
      "velocity": 127,
      "chip": "ym2612"
    },
    {
      "channel": 1,
      "note": 37,
      "start": 4.8285,
      "duration": 0.1499,
      "velocity": 87,
      "chip": "ym2612"
    },
    {
      "channel": 2,
      "note": 73,
      "start": 4.8288,
      "duration": 0.1328,
      "velocity": 127,
      "chip": "ym2612"
    },
    {
      "channel": 5,
      "note": 75,
      "start": 4.9126,
      "duration": 0.133,
      "velocity": 127,
      "chip": "ym2612"
    },
    {
      "channel": 1,
      "note": 34,
      "start": 4.9951,
      "duration": 0.1497,
      "velocity": 87,
      "chip": "ym2612"
    },
    {
      "channel": 2,
      "note": 75,
      "start": 4.9954,
      "duration": 0.1331,
      "velocity": 127,
      "chip": "ym2612"
    },
    {
      "channel": 4,
      "note": 102,
      "start": 4.9965,
      "duration": 0.1328,
      "velocity": 109,
      "chip": "ym2612"
    },
    {
      "channel": 5,
      "note": 73,
      "start": 5.0795,
      "duration": 0.1328,
      "velocity": 127,
      "chip": "ym2612"
    },
    {
      "channel": 1,
      "note": 34,
      "start": 5.1617,
      "duration": 0.1498,
      "velocity": 87,
      "chip": "ym2612"
    },
    {
      "channel": 2,
      "note": 76,
      "start": 5.162,
      "duration": 0.133,
      "velocity": 127,
      "chip": "ym2612"
    },
    {
      "channel": 4,
      "note": 102,
      "start": 5.1632,
      "duration": 0.049,
      "velocity": 109,
      "chip": "ym2612"
    },
    {
      "channel": 4,
      "note": 102,
      "start": 5.2459,
      "duration": 0.0498,
      "velocity": 109,
      "chip": "ym2612"
    },
    {
      "channel": 5,
      "note": 75,
      "start": 5.2461,
      "duration": 0.1331,
      "velocity": 127,
      "chip": "ym2612"
    },
    {
      "channel": 1,
      "note": 30,
      "start": 5.3286,
      "duration": 0.1498,
      "velocity": 87,
      "chip": "ym2612"
    },
    {
      "channel": 2,
      "note": 75,
      "start": 5.3289,
      "duration": 0.1327,
      "velocity": 127,
      "chip": "ym2612"
    },
    {
      "channel": 4,
      "note": 102,
      "start": 5.33,
      "duration": 0.1323,
      "velocity": 109,
      "chip": "ym2612"
    },
    {
      "channel": 5,
      "note": 76,
      "start": 5.4126,
      "duration": 0.133,
      "velocity": 127,
      "chip": "ym2612"
    },
    {
      "channel": 1,
      "note": 30,
      "start": 5.495,
      "duration": 0.1498,
      "velocity": 87,
      "chip": "ym2612"
    },
    {
      "channel": 2,
      "note": 73,
      "start": 5.4953,
      "duration": 0.1333,
      "velocity": 127,
      "chip": "ym2612"
    },
    {
      "channel": 5,
      "note": 75,
      "start": 5.5795,
      "duration": 0.1328,
      "velocity": 127,
      "chip": "ym2612"
    },
    {
      "channel": 1,
      "note": 30,
      "start": 5.6617,
      "duration": 0.1498,
      "velocity": 87,
      "chip": "ym2612"
    },
    {
      "channel": 2,
      "note": 71,
      "start": 5.662,
      "duration": 0.133,
      "velocity": 127,
      "chip": "ym2612"
    },
    {
      "channel": 5,
      "note": 73,
      "start": 5.7459,
      "duration": 0.1333,
      "velocity": 127,
      "chip": "ym2612"
    },
    {
      "channel": 1,
      "note": 30,
      "start": 5.8286,
      "duration": 0.1498,
      "velocity": 87,
      "chip": "ym2612"
    },
    {
      "channel": 2,
      "note": 73,
      "start": 5.8289,
      "duration": 0.1327,
      "velocity": 127,
      "chip": "ym2612"
    },
    {
      "channel": 5,
      "note": 71,
      "start": 5.9126,
      "duration": 0.1331,
      "velocity": 127,
      "chip": "ym2612"
    },
    {
      "channel": 1,
      "note": 30,
      "start": 5.995,
      "duration": 0.1498,
      "velocity": 87,
      "chip": "ym2612"
    },
    {
      "channel": 2,
      "note": 71,
      "start": 5.9953,
      "duration": 0.1333,
      "velocity": 127,
      "chip": "ym2612"
    },
    {
      "channel": 4,
      "note": 102,
      "start": 5.9964,
      "duration": 0.1329,
      "velocity": 109,
      "chip": "ym2612"
    },
    {
      "channel": 5,
      "note": 73,
      "start": 6.0795,
      "duration": 0.1328,
      "velocity": 127,
      "chip": "ym2612"
    },
    {
      "channel": 1,
      "note": 30,
      "start": 6.1617,
      "duration": 0.1498,
      "velocity": 87,
      "chip": "ym2612"
    },
    {
      "channel": 2,
      "note": 73,
      "start": 6.162,
      "duration": 0.133,
      "velocity": 127,
      "chip": "ym2612"
    },
    {
      "channel": 4,
      "note": 102,
      "start": 6.1631,
      "duration": 0.0492,
      "velocity": 109,
      "chip": "ym2612"
    },
    {
      "channel": 4,
      "note": 102,
      "start": 6.2459,
      "duration": 0.0498,
      "velocity": 109,
      "chip": "ym2612"
    },
    {
      "channel": 5,
      "note": 71,
      "start": 6.2461,
      "duration": 0.1331,
      "velocity": 127,
      "chip": "ym2612"
    },
    {
      "channel": 1,
      "note": 30,
      "start": 6.3286,
      "duration": 0.1498,
      "velocity": 87,
      "chip": "ym2612"
    },
    {
      "channel": 2,
      "note": 71,
      "start": 6.3289,
      "duration": 0.1328,
      "velocity": 127,
      "chip": "ym2612"
    },
    {
      "channel": 4,
      "note": 102,
      "start": 6.33,
      "duration": 0.1323,
      "velocity": 109,
      "chip": "ym2612"
    },
    {
      "channel": 5,
      "note": 73,
      "start": 6.4126,
      "duration": 0.1331,
      "velocity": 127,
      "chip": "ym2612"
    },
    {
      "channel": 1,
      "note": 30,
      "start": 6.495,
      "duration": 0.1498,
      "velocity": 87,
      "chip": "ym2612"
    },
    {
      "channel": 2,
      "note": 70,
      "start": 6.4953,
      "duration": 0.1333,
      "velocity": 127,
      "chip": "ym2612"
    },
    {
      "channel": 5,
      "note": 71,
      "start": 6.5795,
      "duration": 0.1328,
      "velocity": 127,
      "chip": "ym2612"
    },
    {
      "channel": 1,
      "note": 30,
      "start": 6.6617,
      "duration": 0.1498,
      "velocity": 87,
      "chip": "ym2612"
    },
    {
      "channel": 2,
      "note": 68,
      "start": 6.662,
      "duration": 0.133,
      "velocity": 127,
      "chip": "ym2612"
    },
    {
      "channel": 5,
      "note": 70,
      "start": 6.7459,
      "duration": 0.1333,
      "velocity": 127,
      "chip": "ym2612"
    },
    {
      "channel": 1,
      "note": 37,
      "start": 6.8285,
      "duration": 0.1499,
      "velocity": 87,
      "chip": "ym2612"
    },
    {
      "channel": 2,
      "note": 71,
      "start": 6.8288,
      "duration": 0.1328,
      "velocity": 127,
      "chip": "ym2612"
    },
    {
      "channel": 5,
      "note": 68,
      "start": 6.9126,
      "duration": 0.1331,
      "velocity": 127,
      "chip": "ym2612"
    },
    {
      "channel": 1,
      "note": 34,
      "start": 6.9951,
      "duration": 0.1497,
      "velocity": 87,
      "chip": "ym2612"
    },
    {
      "channel": 2,
      "note": 63,
      "start": 6.9954,
      "duration": 0.1331,
      "velocity": 127,
      "chip": "ym2612"
    },
    {
      "channel": 4,
      "note": 102,
      "start": 6.9965,
      "duration": 0.1328,
      "velocity": 109,
      "chip": "ym2612"
    },
    {
      "channel": 5,
      "note": 71,
      "start": 7.0795,
      "duration": 0.1328,
      "velocity": 127,
      "chip": "ym2612"
    },
    {
      "channel": 1,
      "note": 34,
      "start": 7.1617,
      "duration": 0.1498,
      "velocity": 87,
      "chip": "ym2612"
    },
    {
      "channel": 2,
      "note": 64,
      "start": 7.162,
      "duration": 0.133,
      "velocity": 127,
      "chip": "ym2612"
    },
    {
      "channel": 4,
      "note": 102,
      "start": 7.1632,
      "duration": 0.049,
      "velocity": 109,
      "chip": "ym2612"
    },
    {
      "channel": 4,
      "note": 102,
      "start": 7.2459,
      "duration": 0.0498,
      "velocity": 109,
      "chip": "ym2612"
    },
    {
      "channel": 5,
      "note": 63,
      "start": 7.2462,
      "duration": 0.133,
      "velocity": 127,
      "chip": "ym2612"
    },
    {
      "channel": 1,
      "note": 30,
      "start": 7.3286,
      "duration": 0.1498,
      "velocity": 87,
      "chip": "ym2612"
    },
    {
      "channel": 2,
      "note": 68,
      "start": 7.3289,
      "duration": 0.1327,
      "velocity": 127,
      "chip": "ym2612"
    },
    {
      "channel": 4,
      "note": 102,
      "start": 7.3301,
      "duration": 0.1322,
      "velocity": 109,
      "chip": "ym2612"
    },
    {
      "channel": 5,
      "note": 64,
      "start": 7.4126,
      "duration": 0.1331,
      "velocity": 127,
      "chip": "ym2612"
    },
    {
      "channel": 1,
      "note": 30,
      "start": 7.495,
      "duration": 0.1498,
      "velocity": 87,
      "chip": "ym2612"
    },
    {
      "channel": 2,
      "note": 75,
      "start": 7.4953,
      "duration": 0.2997,
      "velocity": 127,
      "chip": "ym2612"
    },
    {
      "channel": 5,
      "note": 68,
      "start": 7.5795,
      "duration": 0.1329,
      "velocity": 127,
      "chip": "ym2612"
    },
    {
      "channel": 1,
      "note": 30,
      "start": 7.6617,
      "duration": 0.1498,
      "velocity": 87,
      "chip": "ym2612"
    },
    {
      "channel": 5,
      "note": 75,
      "start": 7.7459,
      "duration": 0.2998,
      "velocity": 127,
      "chip": "ym2612"
    },
    {
      "channel": 1,
      "note": 30,
      "start": 7.8286,
      "duration": 0.1498,
      "velocity": 87,
      "chip": "ym2612"
    },
    {
      "channel": 2,
      "note": 73,
      "start": 7.8289,
      "duration": 0.016,
      "velocity": 127,
      "chip": "ym2612"
    },
    {
      "channel": 2,
      "note": 75,
      "start": 7.8787,
      "duration": 0.0163,
      "velocity": 127,
      "chip": "ym2612"
    },
    {
      "channel": 2,
      "note": 73,
      "start": 7.9287,
      "duration": 0.0329,
      "velocity": 127,
      "chip": "ym2612"
    },
    {
      "channel": 1,
      "note": 30,
      "start": 7.995,
      "duration": 0.1498,
      "velocity": 87,
      "chip": "ym2612"
    },
    {
      "channel": 2,
      "note": 71,
      "start": 7.9953,
      "duration": 0.2997,
      "velocity": 127,
      "chip": "ym2612"
    },
    {
      "channel": 4,
      "note": 102,
      "start": 7.9964,
      "duration": 0.1329,
      "velocity": 109,
      "chip": "ym2612"
    },
    {
      "channel": 5,
      "note": 73,
      "start": 8.0795,
      "duration": 0.0162,
      "velocity": 127,
      "chip": "ym2612"
    },
    {
      "channel": 5,
      "note": 75,
      "start": 8.1295,
      "duration": 0.0164,
      "velocity": 127,
      "chip": "ym2612"
    },
    {
      "channel": 1,
      "note": 30,
      "start": 8.1617,
      "duration": 0.1498,
      "velocity": 87,
      "chip": "ym2612"
    },
    {
      "channel": 4,
      "note": 102,
      "start": 8.163,
      "duration": 0.0162,
      "velocity": 109,
      "chip": "ym2612"
    },
    {
      "channel": 5,
      "note": 73,
      "start": 8.1794,
      "duration": 0.0333,
      "velocity": 127,
      "chip": "ym2612"
    },
    {
      "channel": 4,
      "note": 102,
      "start": 8.2126,
      "duration": 0.0167,
      "velocity": 109,
      "chip": "ym2612"
    },
    {
      "channel": 5,
      "note": 71,
      "start": 8.246,
      "duration": 0.3,
      "velocity": 127,
      "chip": "ym2612"
    },
    {
      "channel": 4,
      "note": 102,
      "start": 8.2625,
      "duration": 0.0332,
      "velocity": 109,
      "chip": "ym2612"
    },
    {
      "channel": 1,
      "note": 30,
      "start": 8.3286,
      "duration": 0.1498,
      "velocity": 87,
      "chip": "ym2612"
    },
    {
      "channel": 2,
      "note": 70,
      "start": 8.3289,
      "duration": 0.2996,
      "velocity": 127,
      "chip": "ym2612"
    },
    {
      "channel": 4,
      "note": 102,
      "start": 8.3301,
      "duration": 0.0154,
      "velocity": 109,
      "chip": "ym2612"
    },
    {
      "channel": 4,
      "note": 102,
      "start": 8.3794,
      "duration": 0.0162,
      "velocity": 109,
      "chip": "ym2612"
    },
    {
      "channel": 4,
      "note": 102,
      "start": 8.4295,
      "duration": 0.0329,
      "velocity": 109,
      "chip": "ym2612"
    },
    {
      "channel": 1,
      "note": 30,
      "start": 8.495,
      "duration": 0.1498,
      "velocity": 87,
      "chip": "ym2612"
    },
    {
      "channel": 4,
      "note": 102,
      "start": 8.4965,
      "duration": 0.0158,
      "velocity": 109,
      "chip": "ym2612"
    },
    {
      "channel": 4,
      "note": 102,
      "start": 8.5459,
      "duration": 0.0165,
      "velocity": 109,
      "chip": "ym2612"
    },
    {
      "channel": 5,
      "note": 70,
      "start": 8.5795,
      "duration": 0.2998,
      "velocity": 127,
      "chip": "ym2612"
    },
    {
      "channel": 4,
      "note": 102,
      "start": 8.5959,
      "duration": 0.0334,
      "velocity": 109,
      "chip": "ym2612"
    },
    {
      "channel": 1,
      "note": 30,
      "start": 8.6617,
      "duration": 0.1498,
      "velocity": 87,
      "chip": "ym2612"
    },
    {
      "channel": 2,
      "note": 68,
      "start": 8.662,
      "duration": 0.2998,
      "velocity": 127,
      "chip": "ym2612"
    },
    {
      "channel": 4,
      "note": 102,
      "start": 8.6631,
      "duration": 0.1326,
      "velocity": 109,
      "chip": "ym2612"
    },
    {
      "channel": 1,
      "note": 37,
      "start": 8.8285,
      "duration": 0.1499,
      "velocity": 87,
      "chip": "ym2612"
    },
    {
      "channel": 5,
      "note": 68,
      "start": 8.9126,
      "duration": 0.2998,
      "velocity": 127,
      "chip": "ym2612"
    },
    {
      "channel": 0,
      "note": 32,
      "start": 8.9948,
      "duration": 7.9499,
      "velocity": 117,
      "chip": "ym2612"
    },
    {
      "channel": 1,
      "note": 34,
      "start": 8.9951,
      "duration": 0.1497,
      "velocity": 87,
      "chip": "ym2612"
    },
    {
      "channel": 2,
      "note": 68,
      "start": 8.9954,
      "duration": 0.7995,
      "velocity": 127,
      "chip": "ym2612"
    },
    {
      "channel": 4,
      "note": 102,
      "start": 8.9965,
      "duration": 0.1328,
      "velocity": 109,
      "chip": "ym2612"
    },
    {
      "channel": 1,
      "note": 34,
      "start": 9.1617,
      "duration": 0.1498,
      "velocity": 87,
      "chip": "ym2612"
    },
    {
      "channel": 3,
      "note": 32,
      "start": 9.1628,
      "duration": 7.9493,
      "velocity": 117,
      "chip": "ym2612"
    },
    {
      "channel": 4,
      "note": 102,
      "start": 9.1631,
      "duration": 0.0492,
      "velocity": 109,
      "chip": "ym2612"
    },
    {
      "channel": 4,
      "note": 102,
      "start": 9.2459,
      "duration": 0.0498,
      "velocity": 109,
      "chip": "ym2612"
    },
    {
      "channel": 5,
      "note": 68,
      "start": 9.2461,
      "duration": 0.7995,
      "velocity": 127,
      "chip": "ym2612"
    },
    {
      "channel": 1,
      "note": 30,
      "start": 9.3286,
      "duration": 0.1498,
      "velocity": 87,
      "chip": "ym2612"
    },
    {
      "channel": 4,
      "note": 102,
      "start": 9.33,
      "duration": 0.1324,
      "velocity": 109,
      "chip": "ym2612"
    },
    {
      "channel": 1,
      "note": 30,
      "start": 9.495,
      "duration": 0.1498,
      "velocity": 87,
      "chip": "ym2612"
    },
    {
      "channel": 1,
      "note": 30,
      "start": 9.6617,
      "duration": 0.1498,
      "velocity": 87,
      "chip": "ym2612"
    },
    {
      "channel": 1,
      "note": 30,
      "start": 9.8286,
      "duration": 0.1498,
      "velocity": 87,
      "chip": "ym2612"
    },
    {
      "channel": 1,
      "note": 30,
      "start": 9.995,
      "duration": 0.1498,
      "velocity": 87,
      "chip": "ym2612"
    },
    {
      "channel": 2,
      "note": 63,
      "start": 9.9954,
      "duration": 0.1332,
      "velocity": 127,
      "chip": "ym2612"
    },
    {
      "channel": 4,
      "note": 102,
      "start": 9.9964,
      "duration": 0.1329,
      "velocity": 109,
      "chip": "ym2612"
    },
    {
      "channel": 1,
      "note": 30,
      "start": 10.1617,
      "duration": 0.1498,
      "velocity": 87,
      "chip": "ym2612"
    },
    {
      "channel": 2,
      "note": 64,
      "start": 10.162,
      "duration": 0.133,
      "velocity": 127,
      "chip": "ym2612"
    },
    {
      "channel": 4,
      "note": 102,
      "start": 10.1631,
      "duration": 0.0492,
      "velocity": 109,
      "chip": "ym2612"
    },
    {
      "channel": 4,
      "note": 102,
      "start": 10.2459,
      "duration": 0.0498,
      "velocity": 109,
      "chip": "ym2612"
    },
    {
      "channel": 5,
      "note": 63,
      "start": 10.2461,
      "duration": 0.1331,
      "velocity": 127,
      "chip": "ym2612"
    },
    {
      "channel": 1,
      "note": 30,
      "start": 10.3286,
      "duration": 0.1498,
      "velocity": 87,
      "chip": "ym2612"
    },
    {
      "channel": 2,
      "note": 67,
      "start": 10.3289,
      "duration": 0.1327,
      "velocity": 127,
      "chip": "ym2612"
    },
    {
      "channel": 4,
      "note": 102,
      "start": 10.33,
      "duration": 0.1323,
      "velocity": 109,
      "chip": "ym2612"
    },
    {
      "channel": 5,
      "note": 64,
      "start": 10.4126,
      "duration": 0.1331,
      "velocity": 127,
      "chip": "ym2612"
    },
    {
      "channel": 1,
      "note": 30,
      "start": 10.495,
      "duration": 0.1498,
      "velocity": 87,
      "chip": "ym2612"
    },
    {
      "channel": 2,
      "note": 68,
      "start": 10.4953,
      "duration": 0.1333,
      "velocity": 127,
      "chip": "ym2612"
    },
    {
      "channel": 5,
      "note": 67,
      "start": 10.5795,
      "duration": 0.1328,
      "velocity": 127,
      "chip": "ym2612"
    },
    {
      "channel": 1,
      "note": 30,
      "start": 10.6617,
      "duration": 0.1498,
      "velocity": 87,
      "chip": "ym2612"
    },
    {
      "channel": 2,
      "note": 70,
      "start": 10.662,
      "duration": 0.133,
      "velocity": 127,
      "chip": "ym2612"
    },
    {
      "channel": 5,
      "note": 68,
      "start": 10.7459,
      "duration": 0.1333,
      "velocity": 127,
      "chip": "ym2612"
    },
    {
      "channel": 1,
      "note": 37,
      "start": 10.8285,
      "duration": 0.1499,
      "velocity": 87,
      "chip": "ym2612"
    },
    {
      "channel": 2,
      "note": 71,
      "start": 10.8288,
      "duration": 0.1328,
      "velocity": 127,
      "chip": "ym2612"
    },
    {
      "channel": 5,
      "note": 70,
      "start": 10.9126,
      "duration": 0.1331,
      "velocity": 127,
      "chip": "ym2612"
    },
    {
      "channel": 1,
      "note": 34,
      "start": 10.9951,
      "duration": 0.1497,
      "velocity": 87,
      "chip": "ym2612"
    },
    {
      "channel": 2,
      "note": 73,
      "start": 10.9954,
      "duration": 0.1331,
      "velocity": 127,
      "chip": "ym2612"
    },
    {
      "channel": 4,
      "note": 102,
      "start": 10.9964,
      "duration": 0.1328,
      "velocity": 109,
      "chip": "ym2612"
    },
    {
      "channel": 5,
      "note": 71,
      "start": 11.0795,
      "duration": 0.1328,
      "velocity": 127,
      "chip": "ym2612"
    },
    {
      "channel": 1,
      "note": 34,
      "start": 11.1617,
      "duration": 0.1498,
      "velocity": 87,
      "chip": "ym2612"
    },
    {
      "channel": 2,
      "note": 75,
      "start": 11.162,
      "duration": 0.133,
      "velocity": 127,
      "chip": "ym2612"
    },
    {
      "channel": 4,
      "note": 102,
      "start": 11.1632,
      "duration": 0.049,
      "velocity": 109,
      "chip": "ym2612"
    },
    {
      "channel": 4,
      "note": 102,
      "start": 11.2459,
      "duration": 0.0498,
      "velocity": 109,
      "chip": "ym2612"
    },
    {
      "channel": 5,
      "note": 73,
      "start": 11.2461,
      "duration": 0.1331,
      "velocity": 127,
      "chip": "ym2612"
    },
    {
      "channel": 1,
      "note": 30,
      "start": 11.3286,
      "duration": 0.1498,
      "velocity": 87,
      "chip": "ym2612"
    },
    {
      "channel": 2,
      "note": 73,
      "start": 11.3289,
      "duration": 0.1327,
      "velocity": 127,
      "chip": "ym2612"
    },
    {
      "channel": 4,
      "note": 102,
      "start": 11.33,
      "duration": 0.1323,
      "velocity": 109,
      "chip": "ym2612"
    },
    {
      "channel": 5,
      "note": 75,
      "start": 11.4126,
      "duration": 0.1333,
      "velocity": 127,
      "chip": "ym2612"
    },
    {
      "channel": 1,
      "note": 30,
      "start": 11.495,
      "duration": 0.1498,
      "velocity": 87,
      "chip": "ym2612"
    },
    {
      "channel": 2,
      "note": 71,
      "start": 11.4953,
      "duration": 0.0163,
      "velocity": 127,
      "chip": "ym2612"
    },
    {
      "channel": 2,
      "note": 73,
      "start": 11.5451,
      "duration": 0.0165,
      "velocity": 127,
      "chip": "ym2612"
    },
    {
      "channel": 5,
      "note": 73,
      "start": 11.5795,
      "duration": 0.1329,
      "velocity": 127,
      "chip": "ym2612"
    },
    {
      "channel": 2,
      "note": 71,
      "start": 11.5951,
      "duration": 0.0334,
      "velocity": 127,
      "chip": "ym2612"
    },
    {
      "channel": 1,
      "note": 30,
      "start": 11.6617,
      "duration": 0.1498,
      "velocity": 87,
      "chip": "ym2612"
    },
    {
      "channel": 2,
      "note": 70,
      "start": 11.662,
      "duration": 0.133,
      "velocity": 127,
      "chip": "ym2612"
    },
    {
      "channel": 5,
      "note": 71,
      "start": 11.7459,
      "duration": 0.0164,
      "velocity": 127,
      "chip": "ym2612"
    },
    {
      "channel": 5,
      "note": 73,
      "start": 11.7959,
      "duration": 0.0167,
      "velocity": 127,
      "chip": "ym2612"
    },
    {
      "channel": 1,
      "note": 30,
      "start": 11.8286,
      "duration": 0.1498,
      "velocity": 87,
      "chip": "ym2612"
    },
    {
      "channel": 2,
      "note": 68,
      "start": 11.8289,
      "duration": 0.1327,
      "velocity": 127,
      "chip": "ym2612"
    },
    {
      "channel": 5,
      "note": 71,
      "start": 11.8457,
      "duration": 0.0334,
      "velocity": 127,
      "chip": "ym2612"
    },
    {
      "channel": 5,
      "note": 70,
      "start": 11.9126,
      "duration": 0.1331,
      "velocity": 127,
      "chip": "ym2612"
    },
    {
      "channel": 1,
      "note": 30,
      "start": 11.995,
      "duration": 0.1498,
      "velocity": 87,
      "chip": "ym2612"
    },
    {
      "channel": 2,
      "note": 68,
      "start": 11.9953,
      "duration": 0.7997,
      "velocity": 127,
      "chip": "ym2612"
    },
    {
      "channel": 4,
      "note": 102,
      "start": 11.9964,
      "duration": 0.1328,
      "velocity": 109,
      "chip": "ym2612"
    },
    {
      "channel": 5,
      "note": 68,
      "start": 12.0795,
      "duration": 0.1332,
      "velocity": 127,
      "chip": "ym2612"
    },
    {
      "channel": 1,
      "note": 30,
      "start": 12.1617,
      "duration": 0.1498,
      "velocity": 87,
      "chip": "ym2612"
    },
    {
      "channel": 4,
      "note": 102,
      "start": 12.163,
      "duration": 0.0162,
      "velocity": 109,
      "chip": "ym2612"
    },
    {
      "channel": 4,
      "note": 102,
      "start": 12.2125,
      "duration": 0.0167,
      "velocity": 109,
      "chip": "ym2612"
    },
    {
      "channel": 5,
      "note": 68,
      "start": 12.246,
      "duration": 0.7999,
      "velocity": 127,
      "chip": "ym2612"
    },
    {
      "channel": 4,
      "note": 102,
      "start": 12.2625,
      "duration": 0.0332,
      "velocity": 109,
      "chip": "ym2612"
    },
    {
      "channel": 1,
      "note": 30,
      "start": 12.3286,
      "duration": 0.1498,
      "velocity": 87,
      "chip": "ym2612"
    },
    {
      "channel": 4,
      "note": 102,
      "start": 12.33,
      "duration": 0.0156,
      "velocity": 109,
      "chip": "ym2612"
    },
    {
      "channel": 4,
      "note": 102,
      "start": 12.3795,
      "duration": 0.0162,
      "velocity": 109,
      "chip": "ym2612"
    },
    {
      "channel": 4,
      "note": 102,
      "start": 12.4295,
      "duration": 0.0329,
      "velocity": 109,
      "chip": "ym2612"
    },
    {
      "channel": 1,
      "note": 30,
      "start": 12.495,
      "duration": 0.1498,
      "velocity": 87,
      "chip": "ym2612"
    },
    {
      "channel": 4,
      "note": 102,
      "start": 12.4964,
      "duration": 0.0158,
      "velocity": 109,
      "chip": "ym2612"
    },
    {
      "channel": 4,
      "note": 102,
      "start": 12.5459,
      "duration": 0.0165,
      "velocity": 109,
      "chip": "ym2612"
    },
    {
      "channel": 4,
      "note": 102,
      "start": 12.5959,
      "duration": 0.0334,
      "velocity": 109,
      "chip": "ym2612"
    },
    {
      "channel": 1,
      "note": 30,
      "start": 12.6617,
      "duration": 0.1498,
      "velocity": 87,
      "chip": "ym2612"
    },
    {
      "channel": 4,
      "note": 102,
      "start": 12.663,
      "duration": 0.1327,
      "velocity": 109,
      "chip": "ym2612"
    },
    {
      "channel": 1,
      "note": 37,
      "start": 12.8285,
      "duration": 0.1499,
      "velocity": 87,
      "chip": "ym2612"
    },
    {
      "channel": 1,
      "note": 34,
      "start": 12.9951,
      "duration": 0.1497,
      "velocity": 87,
      "chip": "ym2612"
    },
    {
      "channel": 2,
      "note": 68,
      "start": 12.9954,
      "duration": 0.0161,
      "velocity": 127,
      "chip": "ym2612"
    },
    {
      "channel": 4,
      "note": 102,
      "start": 12.9965,
      "duration": 0.1327,
      "velocity": 109,
      "chip": "ym2612"
    },
    {
      "channel": 2,
      "note": 70,
      "start": 13.0451,
      "duration": 0.0165,
      "velocity": 127,
      "chip": "ym2612"
    },
    {
      "channel": 2,
      "note": 68,
      "start": 13.0951,
      "duration": 0.0334,
      "velocity": 127,
      "chip": "ym2612"
    },
    {
      "channel": 1,
      "note": 34,
      "start": 13.1617,
      "duration": 0.1498,
      "velocity": 87,
      "chip": "ym2612"
    },
    {
      "channel": 2,
      "note": 70,
      "start": 13.162,
      "duration": 0.133,
      "velocity": 127,
      "chip": "ym2612"
    },
    {
      "channel": 4,
      "note": 102,
      "start": 13.1632,
      "duration": 0.049,
      "velocity": 109,
      "chip": "ym2612"
    },
    {
      "channel": 4,
      "note": 102,
      "start": 13.2459,
      "duration": 0.0498,
      "velocity": 109,
      "chip": "ym2612"
    },
    {
      "channel": 5,
      "note": 68,
      "start": 13.2461,
      "duration": 0.0162,
      "velocity": 127,
      "chip": "ym2612"
    },
    {
      "channel": 5,
      "note": 70,
      "start": 13.2959,
      "duration": 0.0166,
      "velocity": 127,
      "chip": "ym2612"
    },
    {
      "channel": 1,
      "note": 30,
      "start": 13.3286,
      "duration": 0.1498,
      "velocity": 87,
      "chip": "ym2612"
    },
    {
      "channel": 2,
      "note": 71,
      "start": 13.3289,
      "duration": 0.1328,
      "velocity": 127,
      "chip": "ym2612"
    },
    {
      "channel": 4,
      "note": 102,
      "start": 13.33,
      "duration": 0.1323,
      "velocity": 109,
      "chip": "ym2612"
    },
    {
      "channel": 5,
      "note": 68,
      "start": 13.3457,
      "duration": 0.0335,
      "velocity": 127,
      "chip": "ym2612"
    },
    {
      "channel": 5,
      "note": 70,
      "start": 13.4126,
      "duration": 0.1331,
      "velocity": 127,
      "chip": "ym2612"
    },
    {
      "channel": 1,
      "note": 30,
      "start": 13.495,
      "duration": 0.1498,
      "velocity": 87,
      "chip": "ym2612"
    },
    {
      "channel": 2,
      "note": 73,
      "start": 13.4953,
      "duration": 0.1333,
      "velocity": 127,
      "chip": "ym2612"
    },
    {
      "channel": 5,
      "note": 71,
      "start": 13.5795,
      "duration": 0.1328,
      "velocity": 127,
      "chip": "ym2612"
    },
    {
      "channel": 1,
      "note": 30,
      "start": 13.6617,
      "duration": 0.1498,
      "velocity": 87,
      "chip": "ym2612"
    },
    {
      "channel": 2,
      "note": 63,
      "start": 13.662,
      "duration": 0.1329,
      "velocity": 127,
      "chip": "ym2612"
    },
    {
      "channel": 5,
      "note": 73,
      "start": 13.7459,
      "duration": 0.1333,
      "velocity": 127,
      "chip": "ym2612"
    },
    {
      "channel": 1,
      "note": 30,
      "start": 13.8286,
      "duration": 0.1498,
      "velocity": 87,
      "chip": "ym2612"
    },
    {
      "channel": 2,
      "note": 75,
      "start": 13.8289,
      "duration": 0.1327,
      "velocity": 127,
      "chip": "ym2612"
    },
    {
      "channel": 5,
      "note": 63,
      "start": 13.9126,
      "duration": 0.1331,
      "velocity": 127,
      "chip": "ym2612"
    },
    {
      "channel": 1,
      "note": 30,
      "start": 13.995,
      "duration": 0.1498,
      "velocity": 87,
      "chip": "ym2612"
    },
    {
      "channel": 2,
      "note": 80,
      "start": 13.9954,
      "duration": 0.1332,
      "velocity": 127,
      "chip": "ym2612"
    },
    {
      "channel": 4,
      "note": 102,
      "start": 13.9964,
      "duration": 0.1329,
      "velocity": 109,
      "chip": "ym2612"
    },
    {
      "channel": 5,
      "note": 75,
      "start": 14.0795,
      "duration": 0.1328,
      "velocity": 127,
      "chip": "ym2612"
    },
    {
      "channel": 1,
      "note": 30,
      "start": 14.1617,
      "duration": 0.1498,
      "velocity": 87,
      "chip": "ym2612"
    },
    {
      "channel": 2,
      "note": 76,
      "start": 14.162,
      "duration": 0.1329,
      "velocity": 127,
      "chip": "ym2612"
    },
    {
      "channel": 4,
      "note": 102,
      "start": 14.1631,
      "duration": 0.0492,
      "velocity": 109,
      "chip": "ym2612"
    },
    {
      "channel": 4,
      "note": 102,
      "start": 14.2459,
      "duration": 0.0498,
      "velocity": 109,
      "chip": "ym2612"
    },
    {
      "channel": 5,
      "note": 80,
      "start": 14.2461,
      "duration": 0.1331,
      "velocity": 127,
      "chip": "ym2612"
    },
    {
      "channel": 1,
      "note": 30,
      "start": 14.3286,
      "duration": 0.1498,
      "velocity": 87,
      "chip": "ym2612"
    },
    {
      "channel": 2,
      "note": 75,
      "start": 14.3289,
      "duration": 0.1328,
      "velocity": 127,
      "chip": "ym2612"
    },
    {
      "channel": 4,
      "note": 102,
      "start": 14.33,
      "duration": 0.1323,
      "velocity": 109,
      "chip": "ym2612"
    },
    {
      "channel": 5,
      "note": 76,
      "start": 14.4126,
      "duration": 0.1333,
      "velocity": 127,
      "chip": "ym2612"
    },
    {
      "channel": 1,
      "note": 30,
      "start": 14.495,
      "duration": 0.1498,
      "velocity": 87,
      "chip": "ym2612"
    },
    {
      "channel": 2,
      "note": 73,
      "start": 14.4953,
      "duration": 0.0163,
      "velocity": 127,
      "chip": "ym2612"
    },
    {
      "channel": 2,
      "note": 75,
      "start": 14.5451,
      "duration": 0.0165,
      "velocity": 127,
      "chip": "ym2612"
    },
    {
      "channel": 5,
      "note": 75,
      "start": 14.5795,
      "duration": 0.1329,
      "velocity": 127,
      "chip": "ym2612"
    },
    {
      "channel": 2,
      "note": 73,
      "start": 14.5951,
      "duration": 0.0334,
      "velocity": 127,
      "chip": "ym2612"
    },
    {
      "channel": 1,
      "note": 30,
      "start": 14.6617,
      "duration": 0.1498,
      "velocity": 87,
      "chip": "ym2612"
    },
    {
      "channel": 2,
      "note": 71,
      "start": 14.662,
      "duration": 0.133,
      "velocity": 127,
      "chip": "ym2612"
    },
    {
      "channel": 5,
      "note": 73,
      "start": 14.7459,
      "duration": 0.0164,
      "velocity": 127,
      "chip": "ym2612"
    },
    {
      "channel": 5,
      "note": 75,
      "start": 14.7959,
      "duration": 0.0167,
      "velocity": 127,
      "chip": "ym2612"
    },
    {
      "channel": 1,
      "note": 37,
      "start": 14.8285,
      "duration": 0.1499,
      "velocity": 87,
      "chip": "ym2612"
    },
    {
      "channel": 2,
      "note": 75,
      "start": 14.8288,
      "duration": 0.1328,
      "velocity": 127,
      "chip": "ym2612"
    },
    {
      "channel": 5,
      "note": 73,
      "start": 14.8457,
      "duration": 0.0335,
      "velocity": 127,
      "chip": "ym2612"
    },
    {
      "channel": 5,
      "note": 71,
      "start": 14.9126,
      "duration": 0.1331,
      "velocity": 127,
      "chip": "ym2612"
    },
    {
      "channel": 1,
      "note": 34,
      "start": 14.9951,
      "duration": 0.1497,
      "velocity": 87,
      "chip": "ym2612"
    },
    {
      "channel": 2,
      "note": 63,
      "start": 14.9954,
      "duration": 0.1331,
      "velocity": 127,
      "chip": "ym2612"
    },
    {
      "channel": 4,
      "note": 102,
      "start": 14.9965,
      "duration": 0.1328,
      "velocity": 109,
      "chip": "ym2612"
    },
    {
      "channel": 5,
      "note": 75,
      "start": 15.0795,
      "duration": 0.1328,
      "velocity": 127,
      "chip": "ym2612"
    },
    {
      "channel": 1,
      "note": 34,
      "start": 15.1617,
      "duration": 0.1498,
      "velocity": 87,
      "chip": "ym2612"
    },
    {
      "channel": 2,
      "note": 64,
      "start": 15.162,
      "duration": 0.133,
      "velocity": 127,
      "chip": "ym2612"
    },
    {
      "channel": 4,
      "note": 102,
      "start": 15.1632,
      "duration": 0.049,
      "velocity": 109,
      "chip": "ym2612"
    },
    {
      "channel": 4,
      "note": 102,
      "start": 15.2459,
      "duration": 0.0498,
      "velocity": 109,
      "chip": "ym2612"
    },
    {
      "channel": 5,
      "note": 63,
      "start": 15.2462,
      "duration": 0.1331,
      "velocity": 127,
      "chip": "ym2612"
    },
    {
      "channel": 1,
      "note": 30,
      "start": 15.3286,
      "duration": 0.1498,
      "velocity": 87,
      "chip": "ym2612"
    },
    {
      "channel": 2,
      "note": 67,
      "start": 15.3289,
      "duration": 0.1327,
      "velocity": 127,
      "chip": "ym2612"
    },
    {
      "channel": 4,
      "note": 102,
      "start": 15.3301,
      "duration": 0.1322,
      "velocity": 109,
      "chip": "ym2612"
    },
    {
      "channel": 5,
      "note": 64,
      "start": 15.4126,
      "duration": 0.1333,
      "velocity": 127,
      "chip": "ym2612"
    },
    {
      "channel": 1,
      "note": 30,
      "start": 15.495,
      "duration": 0.1498,
      "velocity": 87,
      "chip": "ym2612"
    },
    {
      "channel": 2,
      "note": 68,
      "start": 15.4953,
      "duration": 0.0163,
      "velocity": 127,
      "chip": "ym2612"
    },
    {
      "channel": 2,
      "note": 67,
      "start": 15.5451,
      "duration": 0.0165,
      "velocity": 127,
      "chip": "ym2612"
    },
    {
      "channel": 5,
      "note": 67,
      "start": 15.5795,
      "duration": 0.1329,
      "velocity": 127,
      "chip": "ym2612"
    },
    {
      "channel": 2,
      "note": 68,
      "start": 15.5951,
      "duration": 0.0334,
      "velocity": 127,
      "chip": "ym2612"
    },
    {
      "channel": 1,
      "note": 30,
      "start": 15.6617,
      "duration": 0.1498,
      "velocity": 87,
      "chip": "ym2612"
    },
    {
      "channel": 2,
      "note": 70,
      "start": 15.662,
      "duration": 0.133,
      "velocity": 127,
      "chip": "ym2612"
    },
    {
      "channel": 5,
      "note": 68,
      "start": 15.7459,
      "duration": 0.0164,
      "velocity": 127,
      "chip": "ym2612"
    },
    {
      "channel": 5,
      "note": 67,
      "start": 15.7959,
      "duration": 0.0167,
      "velocity": 127,
      "chip": "ym2612"
    },
    {
      "channel": 1,
      "note": 30,
      "start": 15.8286,
      "duration": 0.1498,
      "velocity": 87,
      "chip": "ym2612"
    },
    {
      "channel": 2,
      "note": 71,
      "start": 15.8289,
      "duration": 0.1327,
      "velocity": 127,
      "chip": "ym2612"
    },
    {
      "channel": 5,
      "note": 68,
      "start": 15.8457,
      "duration": 0.0335,
      "velocity": 127,
      "chip": "ym2612"
    },
    {
      "channel": 5,
      "note": 70,
      "start": 15.9126,
      "duration": 0.1331,
      "velocity": 127,
      "chip": "ym2612"
    },
    {
      "channel": 1,
      "note": 30,
      "start": 15.995,
      "duration": 0.1498,
      "velocity": 87,
      "chip": "ym2612"
    },
    {
      "channel": 2,
      "note": 73,
      "start": 15.9953,
      "duration": 0.1333,
      "velocity": 127,
      "chip": "ym2612"
    },
    {
      "channel": 4,
      "note": 102,
      "start": 15.9964,
      "duration": 0.1329,
      "velocity": 109,
      "chip": "ym2612"
    },
    {
      "channel": 5,
      "note": 71,
      "start": 16.0795,
      "duration": 0.1331,
      "velocity": 127,
      "chip": "ym2612"
    },
    {
      "channel": 1,
      "note": 30,
      "start": 16.1617,
      "duration": 0.1498,
      "velocity": 87,
      "chip": "ym2612"
    },
    {
      "channel": 2,
      "note": 75,
      "start": 16.162,
      "duration": 0.133,
      "velocity": 127,
      "chip": "ym2612"
    },
    {
      "channel": 4,
      "note": 102,
      "start": 16.1631,
      "duration": 0.016,
      "velocity": 109,
      "chip": "ym2612"
    },
    {
      "channel": 4,
      "note": 102,
      "start": 16.2125,
      "duration": 0.0167,
      "velocity": 109,
      "chip": "ym2612"
    },
    {
      "channel": 5,
      "note": 73,
      "start": 16.246,
      "duration": 0.1335,
      "velocity": 127,
      "chip": "ym2612"
    },
    {
      "channel": 4,
      "note": 102,
      "start": 16.2625,
      "duration": 0.0332,
      "velocity": 109,
      "chip": "ym2612"
    },
    {
      "channel": 1,
      "note": 30,
      "start": 16.3286,
      "duration": 0.1498,
      "velocity": 87,
      "chip": "ym2612"
    },
    {
      "channel": 2,
      "note": 76,
      "start": 16.3289,
      "duration": 0.1327,
      "velocity": 127,
      "chip": "ym2612"
    },
    {
      "channel": 4,
      "note": 102,
      "start": 16.3301,
      "duration": 0.0154,
      "velocity": 109,
      "chip": "ym2612"
    },
    {
      "channel": 4,
      "note": 102,
      "start": 16.3794,
      "duration": 0.0162,
      "velocity": 109,
      "chip": "ym2612"
    },
    {
      "channel": 5,
      "note": 75,
      "start": 16.4126,
      "duration": 0.1333,
      "velocity": 127,
      "chip": "ym2612"
    },
    {
      "channel": 4,
      "note": 102,
      "start": 16.4295,
      "duration": 0.0329,
      "velocity": 109,
      "chip": "ym2612"
    },
    {
      "channel": 1,
      "note": 30,
      "start": 16.495,
      "duration": 0.1498,
      "velocity": 87,
      "chip": "ym2612"
    },
    {
      "channel": 2,
      "note": 75,
      "start": 16.4953,
      "duration": 0.1333,
      "velocity": 127,
      "chip": "ym2612"
    },
    {
      "channel": 4,
      "note": 102,
      "start": 16.4966,
      "duration": 0.0156,
      "velocity": 109,
      "chip": "ym2612"
    },
    {
      "channel": 4,
      "note": 102,
      "start": 16.5458,
      "duration": 0.0165,
      "velocity": 109,
      "chip": "ym2612"
    },
    {
      "channel": 5,
      "note": 76,
      "start": 16.5795,
      "duration": 0.1328,
      "velocity": 127,
      "chip": "ym2612"
    },
    {
      "channel": 4,
      "note": 102,
      "start": 16.5959,
      "duration": 0.0334,
      "velocity": 109,
      "chip": "ym2612"
    },
    {
      "channel": 1,
      "note": 30,
      "start": 16.6617,
      "duration": 0.1498,
      "velocity": 87,
      "chip": "ym2612"
    },
    {
      "channel": 2,
      "note": 79,
      "start": 16.662,
      "duration": 0.1329,
      "velocity": 127,
      "chip": "ym2612"
    },
    {
      "channel": 4,
      "note": 102,
      "start": 16.6631,
      "duration": 0.1326,
      "velocity": 109,
      "chip": "ym2612"
    },
    {
      "channel": 5,
      "note": 75,
      "start": 16.7459,
      "duration": 0.1333,
      "velocity": 127,
      "chip": "ym2612"
    },
    {
      "channel": 1,
      "note": 37,
      "start": 16.8285,
      "duration": 0.1499,
      "velocity": 87,
      "chip": "ym2612"
    },
    {
      "channel": 2,
      "note": 80,
      "start": 16.8288,
      "duration": 0.1329,
      "velocity": 127,
      "chip": "ym2612"
    },
    {
      "channel": 5,
      "note": 79,
      "start": 16.9126,
      "duration": 0.1329,
      "velocity": 127,
      "chip": "ym2612"
    },
    {
      "channel": 0,
      "note": 34,
      "start": 16.9949,
      "duration": 7.9498,
      "velocity": 117,
      "chip": "ym2612"
    },
    {
      "channel": 1,
      "note": 34,
      "start": 16.9951,
      "duration": 0.1497,
      "velocity": 87,
      "chip": "ym2612"
    },
    {
      "channel": 2,
      "note": 82,
      "start": 16.9962,
      "duration": 0.7988,
      "velocity": 127,
      "chip": "ym2612"
    },
    {
      "channel": 4,
      "note": 102,
      "start": 16.9974,
      "duration": 0.1319,
      "velocity": 109,
      "chip": "ym2612"
    },
    {
      "channel": 5,
      "note": 80,
      "start": 17.0795,
      "duration": 0.1328,
      "velocity": 127,
      "chip": "ym2612"
    },
    {
      "channel": 1,
      "note": 34,
      "start": 17.1617,
      "duration": 0.1498,
      "velocity": 87,
      "chip": "ym2612"
    },
    {
      "channel": 3,
      "note": 34,
      "start": 17.1628,
      "duration": 7.9493,
      "velocity": 117,
      "chip": "ym2612"
    },
    {
      "channel": 4,
      "note": 102,
      "start": 17.1632,
      "duration": 0.0491,
      "velocity": 109,
      "chip": "ym2612"
    },
    {
      "channel": 4,
      "note": 102,
      "start": 17.2459,
      "duration": 0.0498,
      "velocity": 109,
      "chip": "ym2612"
    },
    {
      "channel": 5,
      "note": 82,
      "start": 17.2469,
      "duration": 0.7987,
      "velocity": 127,
      "chip": "ym2612"
    },
    {
      "channel": 1,
      "note": 30,
      "start": 17.3286,
      "duration": 0.1498,
      "velocity": 87,
      "chip": "ym2612"
    },
    {
      "channel": 4,
      "note": 102,
      "start": 17.33,
      "duration": 0.1324,
      "velocity": 109,
      "chip": "ym2612"
    },
    {
      "channel": 1,
      "note": 30,
      "start": 17.495,
      "duration": 0.1498,
      "velocity": 87,
      "chip": "ym2612"
    },
    {
      "channel": 1,
      "note": 30,
      "start": 17.6617,
      "duration": 0.1498,
      "velocity": 87,
      "chip": "ym2612"
    },
    {
      "channel": 1,
      "note": 30,
      "start": 17.8286,
      "duration": 0.1498,
      "velocity": 87,
      "chip": "ym2612"
    },
    {
      "channel": 1,
      "note": 30,
      "start": 17.995,
      "duration": 0.1498,
      "velocity": 87,
      "chip": "ym2612"
    },
    {
      "channel": 2,
      "note": 82,
      "start": 17.9953,
      "duration": 0.1333,
      "velocity": 127,
      "chip": "ym2612"
    },
    {
      "channel": 4,
      "note": 102,
      "start": 17.9964,
      "duration": 0.1329,
      "velocity": 109,
      "chip": "ym2612"
    },
    {
      "channel": 1,
      "note": 30,
      "start": 18.1617,
      "duration": 0.1498,
      "velocity": 87,
      "chip": "ym2612"
    },
    {
      "channel": 2,
      "note": 83,
      "start": 18.162,
      "duration": 0.133,
      "velocity": 127,
      "chip": "ym2612"
    },
    {
      "channel": 4,
      "note": 102,
      "start": 18.1631,
      "duration": 0.0492,
      "velocity": 109,
      "chip": "ym2612"
    },
    {
      "channel": 4,
      "note": 102,
      "start": 18.2459,
      "duration": 0.0498,
      "velocity": 109,
      "chip": "ym2612"
    },
    {
      "channel": 5,
      "note": 82,
      "start": 18.2461,
      "duration": 0.1331,
      "velocity": 127,
      "chip": "ym2612"
    },
    {
      "channel": 1,
      "note": 30,
      "start": 18.3286,
      "duration": 0.1498,
      "velocity": 87,
      "chip": "ym2612"
    },
    {
      "channel": 2,
      "note": 85,
      "start": 18.3289,
      "duration": 0.1328,
      "velocity": 127,
      "chip": "ym2612"
    },
    {
      "channel": 4,
      "note": 102,
      "start": 18.33,
      "duration": 0.1323,
      "velocity": 109,
      "chip": "ym2612"
    },
    {
      "channel": 5,
      "note": 83,
      "start": 18.4126,
      "duration": 0.133,
      "velocity": 127,
      "chip": "ym2612"
    },
    {
      "channel": 1,
      "note": 30,
      "start": 18.495,
      "duration": 0.1498,
      "velocity": 87,
      "chip": "ym2612"
    },
    {
      "channel": 2,
      "note": 83,
      "start": 18.4953,
      "duration": 0.1333,
      "velocity": 127,
      "chip": "ym2612"
    },
    {
      "channel": 5,
      "note": 85,
      "start": 18.5795,
      "duration": 0.1328,
      "velocity": 127,
      "chip": "ym2612"
    },
    {
      "channel": 1,
      "note": 30,
      "start": 18.6617,
      "duration": 0.1498,
      "velocity": 87,
      "chip": "ym2612"
    },
    {
      "channel": 2,
      "note": 82,
      "start": 18.662,
      "duration": 0.133,
      "velocity": 127,
      "chip": "ym2612"
    },
    {
      "channel": 5,
      "note": 83,
      "start": 18.7459,
      "duration": 0.1333,
      "velocity": 127,
      "chip": "ym2612"
    },
    {
      "channel": 1,
      "note": 37,
      "start": 18.8285,
      "duration": 0.1499,
      "velocity": 87,
      "chip": "ym2612"
    },
    {
      "channel": 2,
      "note": 80,
      "start": 18.8288,
      "duration": 0.1328,
      "velocity": 127,
      "chip": "ym2612"
    },
    {
      "channel": 5,
      "note": 82,
      "start": 18.9126,
      "duration": 0.1331,
      "velocity": 127,
      "chip": "ym2612"
    },
    {
      "channel": 1,
      "note": 34,
      "start": 18.9951,
      "duration": 0.1497,
      "velocity": 87,
      "chip": "ym2612"
    },
    {
      "channel": 2,
      "note": 82,
      "start": 18.9954,
      "duration": 0.7995,
      "velocity": 127,
      "chip": "ym2612"
    },
    {
      "channel": 4,
      "note": 102,
      "start": 18.9964,
      "duration": 0.1328,
      "velocity": 109,
      "chip": "ym2612"
    },
    {
      "channel": 5,
      "note": 80,
      "start": 19.0795,
      "duration": 0.1329,
      "velocity": 127,
      "chip": "ym2612"
    },
    {
      "channel": 1,
      "note": 34,
      "start": 19.1617,
      "duration": 0.1498,
      "velocity": 87,
      "chip": "ym2612"
    },
    {
      "channel": 4,
      "note": 102,
      "start": 19.1631,
      "duration": 0.0492,
      "velocity": 109,
      "chip": "ym2612"
    },
    {
      "channel": 4,
      "note": 102,
      "start": 19.2459,
      "duration": 0.0498,
      "velocity": 109,
      "chip": "ym2612"
    },
    {
      "channel": 5,
      "note": 82,
      "start": 19.2461,
      "duration": 0.7995,
      "velocity": 127,
      "chip": "ym2612"
    },
    {
      "channel": 1,
      "note": 30,
      "start": 19.3286,
      "duration": 0.1498,
      "velocity": 87,
      "chip": "ym2612"
    },
    {
      "channel": 4,
      "note": 102,
      "start": 19.3299,
      "duration": 0.1324,
      "velocity": 109,
      "chip": "ym2612"
    },
    {
      "channel": 1,
      "note": 30,
      "start": 19.495,
      "duration": 0.1498,
      "velocity": 87,
      "chip": "ym2612"
    },
    {
      "channel": 1,
      "note": 30,
      "start": 19.6617,
      "duration": 0.1498,
      "velocity": 87,
      "chip": "ym2612"
    },
    {
      "channel": 1,
      "note": 30,
      "start": 19.8286,
      "duration": 0.1498,
      "velocity": 87,
      "chip": "ym2612"
    },
    {
      "channel": 1,
      "note": 30,
      "start": 19.995,
      "duration": 0.1498,
      "velocity": 87,
      "chip": "ym2612"
    },
    {
      "channel": 2,
      "note": 82,
      "start": 19.9953,
      "duration": 0.1333,
      "velocity": 127,
      "chip": "ym2612"
    },
    {
      "channel": 4,
      "note": 102,
      "start": 19.9964,
      "duration": 0.1329,
      "velocity": 109,
      "chip": "ym2612"
    },
    {
      "channel": 1,
      "note": 30,
      "start": 20.1617,
      "duration": 0.1498,
      "velocity": 87,
      "chip": "ym2612"
    },
    {
      "channel": 2,
      "note": 83,
      "start": 20.162,
      "duration": 0.133,
      "velocity": 127,
      "chip": "ym2612"
    },
    {
      "channel": 4,
      "note": 102,
      "start": 20.1631,
      "duration": 0.016,
      "velocity": 109,
      "chip": "ym2612"
    },
    {
      "channel": 4,
      "note": 102,
      "start": 20.2125,
      "duration": 0.0167,
      "velocity": 109,
      "chip": "ym2612"
    },
    {
      "channel": 5,
      "note": 82,
      "start": 20.246,
      "duration": 0.1337,
      "velocity": 127,
      "chip": "ym2612"
    },
    {
      "channel": 4,
      "note": 102,
      "start": 20.2625,
      "duration": 0.0332,
      "velocity": 109,
      "chip": "ym2612"
    },
    {
      "channel": 1,
      "note": 30,
      "start": 20.3286,
      "duration": 0.1498,
      "velocity": 87,
      "chip": "ym2612"
    },
    {
      "channel": 2,
      "note": 85,
      "start": 20.3289,
      "duration": 0.016,
      "velocity": 127,
      "chip": "ym2612"
    },
    {
      "channel": 4,
      "note": 102,
      "start": 20.3301,
      "duration": 0.0154,
      "velocity": 109,
      "chip": "ym2612"
    },
    {
      "channel": 2,
      "note": 85,
      "start": 20.3787,
      "duration": 0.0163,
      "velocity": 127,
      "chip": "ym2612"
    },
    {
      "channel": 4,
      "note": 102,
      "start": 20.3796,
      "duration": 0.016,
      "velocity": 109,
      "chip": "ym2612"
    },
    {
      "channel": 5,
      "note": 83,
      "start": 20.4126,
      "duration": 0.1333,
      "velocity": 127,
      "chip": "ym2612"
    },
    {
      "channel": 2,
      "note": 87,
      "start": 20.4287,
      "duration": 0.0329,
      "velocity": 127,
      "chip": "ym2612"
    },
    {
      "channel": 4,
      "note": 102,
      "start": 20.4295,
      "duration": 0.0328,
      "velocity": 109,
      "chip": "ym2612"
    },
    {
      "channel": 1,
      "note": 30,
      "start": 20.495,
      "duration": 0.1498,
      "velocity": 87,
      "chip": "ym2612"
    },
    {
      "channel": 2,
      "note": 88,
      "start": 20.4953,
      "duration": 0.1333,
      "velocity": 127,
      "chip": "ym2612"
    },
    {
      "channel": 4,
      "note": 102,
      "start": 20.4966,
      "duration": 0.0156,
      "velocity": 109,
      "chip": "ym2612"
    },
    {
      "channel": 4,
      "note": 102,
      "start": 20.5458,
      "duration": 0.0165,
      "velocity": 109,
      "chip": "ym2612"
    },
    {
      "channel": 5,
      "note": 85,
      "start": 20.5795,
      "duration": 0.0165,
      "velocity": 127,
      "chip": "ym2612"
    },
    {
      "channel": 4,
      "note": 102,
      "start": 20.5959,
      "duration": 0.0334,
      "velocity": 109,
      "chip": "ym2612"
    },
    {
      "channel": 5,
      "note": 85,
      "start": 20.6295,
      "duration": 0.0164,
      "velocity": 127,
      "chip": "ym2612"
    },
    {
      "channel": 1,
      "note": 30,
      "start": 20.6617,
      "duration": 0.1498,
      "velocity": 87,
      "chip": "ym2612"
    },
    {
      "channel": 2,
      "note": 87,
      "start": 20.662,
      "duration": 0.133,
      "velocity": 127,
      "chip": "ym2612"
    },
    {
      "channel": 4,
      "note": 102,
      "start": 20.6631,
      "duration": 0.1326,
      "velocity": 109,
      "chip": "ym2612"
    },
    {
      "channel": 5,
      "note": 87,
      "start": 20.6793,
      "duration": 0.0331,
      "velocity": 127,
      "chip": "ym2612"
    },
    {
      "channel": 5,
      "note": 88,
      "start": 20.7459,
      "duration": 0.1333,
      "velocity": 127,
      "chip": "ym2612"
    },
    {
      "channel": 1,
      "note": 37,
      "start": 20.8285,
      "duration": 0.1499,
      "velocity": 87,
      "chip": "ym2612"
    },
    {
      "channel": 2,
      "note": 85,
      "start": 20.8288,
      "duration": 0.1328,
      "velocity": 127,
      "chip": "ym2612"
    },
    {
      "channel": 5,
      "note": 87,
      "start": 20.9126,
      "duration": 0.133,
      "velocity": 127,
      "chip": "ym2612"
    },
    {
      "channel": 1,
      "note": 34,
      "start": 20.9951,
      "duration": 0.1497,
      "velocity": 87,
      "chip": "ym2612"
    },
    {
      "channel": 2,
      "note": 87,
      "start": 20.9954,
      "duration": 0.1331,
      "velocity": 127,
      "chip": "ym2612"
    },
    {
      "channel": 4,
      "note": 102,
      "start": 20.9965,
      "duration": 0.1328,
      "velocity": 109,
      "chip": "ym2612"
    },
    {
      "channel": 5,
      "note": 85,
      "start": 21.0795,
      "duration": 0.1328,
      "velocity": 127,
      "chip": "ym2612"
    },
    {
      "channel": 1,
      "note": 34,
      "start": 21.1617,
      "duration": 0.1498,
      "velocity": 87,
      "chip": "ym2612"
    },
    {
      "channel": 2,
      "note": 88,
      "start": 21.162,
      "duration": 0.133,
      "velocity": 127,
      "chip": "ym2612"
    },
    {
      "channel": 4,
      "note": 102,
      "start": 21.1632,
      "duration": 0.049,
      "velocity": 109,
      "chip": "ym2612"
    },
    {
      "channel": 4,
      "note": 102,
      "start": 21.2459,
      "duration": 0.0498,
      "velocity": 109,
      "chip": "ym2612"
    },
    {
      "channel": 5,
      "note": 87,
      "start": 21.2462,
      "duration": 0.133,
      "velocity": 127,
      "chip": "ym2612"
    },
    {
      "channel": 1,
      "note": 30,
      "start": 21.3286,
      "duration": 0.1498,
      "velocity": 87,
      "chip": "ym2612"
    },
    {
      "channel": 2,
      "note": 87,
      "start": 21.3289,
      "duration": 0.1327,
      "velocity": 127,
      "chip": "ym2612"
    },
    {
      "channel": 4,
      "note": 102,
      "start": 21.33,
      "duration": 0.1323,
      "velocity": 109,
      "chip": "ym2612"
    },
    {
      "channel": 5,
      "note": 88,
      "start": 21.4126,
      "duration": 0.1331,
      "velocity": 127,
      "chip": "ym2612"
    },
    {
      "channel": 1,
      "note": 30,
      "start": 21.495,
      "duration": 0.1498,
      "velocity": 87,
      "chip": "ym2612"
    },
    {
      "channel": 2,
      "note": 85,
      "start": 21.4953,
      "duration": 0.1333,
      "velocity": 127,
      "chip": "ym2612"
    },
    {
      "channel": 5,
      "note": 87,
      "start": 21.5795,
      "duration": 0.1328,
      "velocity": 127,
      "chip": "ym2612"
    },
    {
      "channel": 1,
      "note": 30,
      "start": 21.6617,
      "duration": 0.1498,
      "velocity": 87,
      "chip": "ym2612"
    },
    {
      "channel": 2,
      "note": 83,
      "start": 21.662,
      "duration": 0.133,
      "velocity": 127,
      "chip": "ym2612"
    },
    {
      "channel": 5,
      "note": 85,
      "start": 21.7459,
      "duration": 0.1333,
      "velocity": 127,
      "chip": "ym2612"
    },
    {
      "channel": 1,
      "note": 30,
      "start": 21.8286,
      "duration": 0.1498,
      "velocity": 87,
      "chip": "ym2612"
    },
    {
      "channel": 2,
      "note": 85,
      "start": 21.8289,
      "duration": 0.1327,
      "velocity": 127,
      "chip": "ym2612"
    },
    {
      "channel": 5,
      "note": 83,
      "start": 21.9126,
      "duration": 0.133,
      "velocity": 127,
      "chip": "ym2612"
    },
    {
      "channel": 1,
      "note": 30,
      "start": 21.995,
      "duration": 0.1498,
      "velocity": 87,
      "chip": "ym2612"
    },
    {
      "channel": 2,
      "note": 83,
      "start": 21.9953,
      "duration": 0.1333,
      "velocity": 127,
      "chip": "ym2612"
    },
    {
      "channel": 4,
      "note": 102,
      "start": 21.9964,
      "duration": 0.1329,
      "velocity": 109,
      "chip": "ym2612"
    },
    {
      "channel": 5,
      "note": 85,
      "start": 22.0795,
      "duration": 0.1328,
      "velocity": 127,
      "chip": "ym2612"
    },
    {
      "channel": 1,
      "note": 30,
      "start": 22.1617,
      "duration": 0.1498,
      "velocity": 87,
      "chip": "ym2612"
    },
    {
      "channel": 2,
      "note": 85,
      "start": 22.162,
      "duration": 0.133,
      "velocity": 127,
      "chip": "ym2612"
    },
    {
      "channel": 4,
      "note": 102,
      "start": 22.1631,
      "duration": 0.0492,
      "velocity": 109,
      "chip": "ym2612"
    },
    {
      "channel": 4,
      "note": 102,
      "start": 22.2459,
      "duration": 0.0498,
      "velocity": 109,
      "chip": "ym2612"
    },
    {
      "channel": 5,
      "note": 83,
      "start": 22.2461,
      "duration": 0.1331,
      "velocity": 127,
      "chip": "ym2612"
    },
    {
      "channel": 1,
      "note": 30,
      "start": 22.3286,
      "duration": 0.1498,
      "velocity": 87,
      "chip": "ym2612"
    },
    {
      "channel": 2,
      "note": 83,
      "start": 22.3289,
      "duration": 0.1328,
      "velocity": 127,
      "chip": "ym2612"
    },
    {
      "channel": 4,
      "note": 102,
      "start": 22.33,
      "duration": 0.1323,
      "velocity": 109,
      "chip": "ym2612"
    },
    {
      "channel": 5,
      "note": 85,
      "start": 22.4126,
      "duration": 0.1331,
      "velocity": 127,
      "chip": "ym2612"
    },
    {
      "channel": 1,
      "note": 30,
      "start": 22.495,
      "duration": 0.1498,
      "velocity": 87,
      "chip": "ym2612"
    },
    {
      "channel": 2,
      "note": 82,
      "start": 22.4953,
      "duration": 0.1333,
      "velocity": 127,
      "chip": "ym2612"
    },
    {
      "channel": 5,
      "note": 83,
      "start": 22.5795,
      "duration": 0.1328,
      "velocity": 127,
      "chip": "ym2612"
    },
    {
      "channel": 1,
      "note": 30,
      "start": 22.6617,
      "duration": 0.1498,
      "velocity": 87,
      "chip": "ym2612"
    },
    {
      "channel": 2,
      "note": 80,
      "start": 22.662,
      "duration": 0.133,
      "velocity": 127,
      "chip": "ym2612"
    },
    {
      "channel": 5,
      "note": 82,
      "start": 22.7459,
      "duration": 0.1333,
      "velocity": 127,
      "chip": "ym2612"
    },
    {
      "channel": 1,
      "note": 37,
      "start": 22.8285,
      "duration": 0.1499,
      "velocity": 87,
      "chip": "ym2612"
    },
    {
      "channel": 2,
      "note": 83,
      "start": 22.8288,
      "duration": 0.1328,
      "velocity": 127,
      "chip": "ym2612"
    },
    {
      "channel": 5,
      "note": 80,
      "start": 22.9126,
      "duration": 0.1331,
      "velocity": 127,
      "chip": "ym2612"
    },
    {
      "channel": 1,
      "note": 34,
      "start": 22.9951,
      "duration": 0.1497,
      "velocity": 87,
      "chip": "ym2612"
    },
    {
      "channel": 2,
      "note": 75,
      "start": 22.9954,
      "duration": 0.1331,
      "velocity": 127,
      "chip": "ym2612"
    },
    {
      "channel": 4,
      "note": 102,
      "start": 22.9965,
      "duration": 0.1328,
      "velocity": 109,
      "chip": "ym2612"
    },
    {
      "channel": 5,
      "note": 83,
      "start": 23.0795,
      "duration": 0.1328,
      "velocity": 127,
      "chip": "ym2612"
    },
    {
      "channel": 1,
      "note": 34,
      "start": 23.1617,
      "duration": 0.1498,
      "velocity": 87,
      "chip": "ym2612"
    },
    {
      "channel": 2,
      "note": 76,
      "start": 23.162,
      "duration": 0.133,
      "velocity": 127,
      "chip": "ym2612"
    },
    {
      "channel": 4,
      "note": 102,
      "start": 23.1632,
      "duration": 0.049,
      "velocity": 109,
      "chip": "ym2612"
    },
    {
      "channel": 4,
      "note": 102,
      "start": 23.2459,
      "duration": 0.0498,
      "velocity": 109,
      "chip": "ym2612"
    },
    {
      "channel": 5,
      "note": 75,
      "start": 23.2462,
      "duration": 0.1331,
      "velocity": 127,
      "chip": "ym2612"
    },
    {
      "channel": 1,
      "note": 30,
      "start": 23.3286,
      "duration": 0.1498,
      "velocity": 87,
      "chip": "ym2612"
    },
    {
      "channel": 2,
      "note": 80,
      "start": 23.3289,
      "duration": 0.1327,
      "velocity": 127,
      "chip": "ym2612"
    },
    {
      "channel": 4,
      "note": 102,
      "start": 23.3301,
      "duration": 0.1322,
      "velocity": 109,
      "chip": "ym2612"
    },
    {
      "channel": 5,
      "note": 76,
      "start": 23.4126,
      "duration": 0.1331,
      "velocity": 127,
      "chip": "ym2612"
    },
    {
      "channel": 1,
      "note": 30,
      "start": 23.495,
      "duration": 0.1498,
      "velocity": 87,
      "chip": "ym2612"
    },
    {
      "channel": 2,
      "note": 87,
      "start": 23.4953,
      "duration": 0.2997,
      "velocity": 127,
      "chip": "ym2612"
    },
    {
      "channel": 5,
      "note": 80,
      "start": 23.5795,
      "duration": 0.1329,
      "velocity": 127,
      "chip": "ym2612"
    },
    {
      "channel": 1,
      "note": 30,
      "start": 23.6617,
      "duration": 0.1498,
      "velocity": 87,
      "chip": "ym2612"
    },
    {
      "channel": 5,
      "note": 87,
      "start": 23.7459,
      "duration": 0.2998,
      "velocity": 127,
      "chip": "ym2612"
    },
    {
      "channel": 1,
      "note": 30,
      "start": 23.8286,
      "duration": 0.1498,
      "velocity": 87,
      "chip": "ym2612"
    },
    {
      "channel": 2,
      "note": 85,
      "start": 23.8289,
      "duration": 0.016,
      "velocity": 127,
      "chip": "ym2612"
    },
    {
      "channel": 2,
      "note": 87,
      "start": 23.8787,
      "duration": 0.0163,
      "velocity": 127,
      "chip": "ym2612"
    },
    {
      "channel": 2,
      "note": 85,
      "start": 23.9287,
      "duration": 0.0329,
      "velocity": 127,
      "chip": "ym2612"
    },
    {
      "channel": 1,
      "note": 30,
      "start": 23.995,
      "duration": 0.1498,
      "velocity": 87,
      "chip": "ym2612"
    },
    {
      "channel": 2,
      "note": 83,
      "start": 23.9953,
      "duration": 0.2997,
      "velocity": 127,
      "chip": "ym2612"
    },
    {
      "channel": 4,
      "note": 102,
      "start": 23.9964,
      "duration": 0.1329,
      "velocity": 109,
      "chip": "ym2612"
    },
    {
      "channel": 5,
      "note": 85,
      "start": 24.0795,
      "duration": 0.0162,
      "velocity": 127,
      "chip": "ym2612"
    },
    {
      "channel": 5,
      "note": 87,
      "start": 24.1295,
      "duration": 0.0164,
      "velocity": 127,
      "chip": "ym2612"
    },
    {
      "channel": 1,
      "note": 30,
      "start": 24.1617,
      "duration": 0.1498,
      "velocity": 87,
      "chip": "ym2612"
    },
    {
      "channel": 4,
      "note": 102,
      "start": 24.163,
      "duration": 0.0162,
      "velocity": 109,
      "chip": "ym2612"
    },
    {
      "channel": 5,
      "note": 85,
      "start": 24.1794,
      "duration": 0.0333,
      "velocity": 127,
      "chip": "ym2612"
    },
    {
      "channel": 4,
      "note": 102,
      "start": 24.2126,
      "duration": 0.0167,
      "velocity": 109,
      "chip": "ym2612"
    },
    {
      "channel": 5,
      "note": 83,
      "start": 24.246,
      "duration": 0.3,
      "velocity": 127,
      "chip": "ym2612"
    },
    {
      "channel": 4,
      "note": 102,
      "start": 24.2625,
      "duration": 0.0332,
      "velocity": 109,
      "chip": "ym2612"
    },
    {
      "channel": 1,
      "note": 30,
      "start": 24.3286,
      "duration": 0.1498,
      "velocity": 87,
      "chip": "ym2612"
    },
    {
      "channel": 2,
      "note": 82,
      "start": 24.3289,
      "duration": 0.2996,
      "velocity": 127,
      "chip": "ym2612"
    },
    {
      "channel": 4,
      "note": 102,
      "start": 24.3301,
      "duration": 0.0154,
      "velocity": 109,
      "chip": "ym2612"
    },
    {
      "channel": 4,
      "note": 102,
      "start": 24.3794,
      "duration": 0.0162,
      "velocity": 109,
      "chip": "ym2612"
    },
    {
      "channel": 4,
      "note": 102,
      "start": 24.4295,
      "duration": 0.0329,
      "velocity": 109,
      "chip": "ym2612"
    },
    {
      "channel": 1,
      "note": 30,
      "start": 24.495,
      "duration": 0.1498,
      "velocity": 87,
      "chip": "ym2612"
    },
    {
      "channel": 4,
      "note": 102,
      "start": 24.4964,
      "duration": 0.0158,
      "velocity": 109,
      "chip": "ym2612"
    },
    {
      "channel": 4,
      "note": 102,
      "start": 24.5459,
      "duration": 0.0165,
      "velocity": 109,
      "chip": "ym2612"
    },
    {
      "channel": 5,
      "note": 82,
      "start": 24.5795,
      "duration": 0.2998,
      "velocity": 127,
      "chip": "ym2612"
    },
    {
      "channel": 4,
      "note": 102,
      "start": 24.5959,
      "duration": 0.0334,
      "velocity": 109,
      "chip": "ym2612"
    },
    {
      "channel": 1,
      "note": 30,
      "start": 24.6617,
      "duration": 0.1498,
      "velocity": 87,
      "chip": "ym2612"
    },
    {
      "channel": 2,
      "note": 80,
      "start": 24.662,
      "duration": 0.2998,
      "velocity": 127,
      "chip": "ym2612"
    },
    {
      "channel": 4,
      "note": 102,
      "start": 24.6631,
      "duration": 0.1326,
      "velocity": 109,
      "chip": "ym2612"
    },
    {
      "channel": 1,
      "note": 37,
      "start": 24.8285,
      "duration": 0.1499,
      "velocity": 87,
      "chip": "ym2612"
    },
    {
      "channel": 5,
      "note": 80,
      "start": 24.9126,
      "duration": 0.2998,
      "velocity": 127,
      "chip": "ym2612"
    },
    {
      "channel": 0,
      "note": 32,
      "start": 24.9948,
      "duration": 7.9499,
      "velocity": 117,
      "chip": "ym2612"
    },
    {
      "channel": 1,
      "note": 34,
      "start": 24.9951,
      "duration": 0.1497,
      "velocity": 87,
      "chip": "ym2612"
    },
    {
      "channel": 2,
      "note": 80,
      "start": 24.9954,
      "duration": 0.7995,
      "velocity": 127,
      "chip": "ym2612"
    },
    {
      "channel": 4,
      "note": 102,
      "start": 24.9965,
      "duration": 0.1328,
      "velocity": 109,
      "chip": "ym2612"
    },
    {
      "channel": 1,
      "note": 34,
      "start": 25.1617,
      "duration": 0.1498,
      "velocity": 87,
      "chip": "ym2612"
    },
    {
      "channel": 3,
      "note": 32,
      "start": 25.1628,
      "duration": 7.9493,
      "velocity": 117,
      "chip": "ym2612"
    },
    {
      "channel": 4,
      "note": 102,
      "start": 25.1631,
      "duration": 0.0492,
      "velocity": 109,
      "chip": "ym2612"
    },
    {
      "channel": 4,
      "note": 102,
      "start": 25.2459,
      "duration": 0.0498,
      "velocity": 109,
      "chip": "ym2612"
    },
    {
      "channel": 5,
      "note": 80,
      "start": 25.2462,
      "duration": 0.7994,
      "velocity": 127,
      "chip": "ym2612"
    },
    {
      "channel": 1,
      "note": 30,
      "start": 25.3286,
      "duration": 0.1498,
      "velocity": 87,
      "chip": "ym2612"
    },
    {
      "channel": 4,
      "note": 102,
      "start": 25.33,
      "duration": 0.1324,
      "velocity": 109,
      "chip": "ym2612"
    },
    {
      "channel": 1,
      "note": 30,
      "start": 25.495,
      "duration": 0.1498,
      "velocity": 87,
      "chip": "ym2612"
    },
    {
      "channel": 1,
      "note": 30,
      "start": 25.6617,
      "duration": 0.1498,
      "velocity": 87,
      "chip": "ym2612"
    },
    {
      "channel": 1,
      "note": 30,
      "start": 25.8286,
      "duration": 0.1498,
      "velocity": 87,
      "chip": "ym2612"
    },
    {
      "channel": 1,
      "note": 30,
      "start": 25.995,
      "duration": 0.1498,
      "velocity": 87,
      "chip": "ym2612"
    },
    {
      "channel": 2,
      "note": 75,
      "start": 25.9954,
      "duration": 0.1332,
      "velocity": 127,
      "chip": "ym2612"
    },
    {
      "channel": 4,
      "note": 102,
      "start": 25.9964,
      "duration": 0.1329,
      "velocity": 109,
      "chip": "ym2612"
    },
    {
      "channel": 1,
      "note": 30,
      "start": 26.1617,
      "duration": 0.1498,
      "velocity": 87,
      "chip": "ym2612"
    },
    {
      "channel": 2,
      "note": 76,
      "start": 26.162,
      "duration": 0.133,
      "velocity": 127,
      "chip": "ym2612"
    },
    {
      "channel": 4,
      "note": 102,
      "start": 26.1631,
      "duration": 0.0492,
      "velocity": 109,
      "chip": "ym2612"
    },
    {
      "channel": 4,
      "note": 102,
      "start": 26.2459,
      "duration": 0.0498,
      "velocity": 109,
      "chip": "ym2612"
    },
    {
      "channel": 5,
      "note": 75,
      "start": 26.2461,
      "duration": 0.1331,
      "velocity": 127,
      "chip": "ym2612"
    },
    {
      "channel": 1,
      "note": 30,
      "start": 26.3286,
      "duration": 0.1498,
      "velocity": 87,
      "chip": "ym2612"
    },
    {
      "channel": 2,
      "note": 79,
      "start": 26.3289,
      "duration": 0.1327,
      "velocity": 127,
      "chip": "ym2612"
    },
    {
      "channel": 4,
      "note": 102,
      "start": 26.33,
      "duration": 0.1323,
      "velocity": 109,
      "chip": "ym2612"
    },
    {
      "channel": 5,
      "note": 76,
      "start": 26.4126,
      "duration": 0.133,
      "velocity": 127,
      "chip": "ym2612"
    },
    {
      "channel": 1,
      "note": 30,
      "start": 26.495,
      "duration": 0.1498,
      "velocity": 87,
      "chip": "ym2612"
    },
    {
      "channel": 2,
      "note": 80,
      "start": 26.4953,
      "duration": 0.1333,
      "velocity": 127,
      "chip": "ym2612"
    },
    {
      "channel": 5,
      "note": 79,
      "start": 26.5795,
      "duration": 0.1328,
      "velocity": 127,
      "chip": "ym2612"
    },
    {
      "channel": 1,
      "note": 30,
      "start": 26.6617,
      "duration": 0.1498,
      "velocity": 87,
      "chip": "ym2612"
    },
    {
      "channel": 2,
      "note": 82,
      "start": 26.662,
      "duration": 0.133,
      "velocity": 127,
      "chip": "ym2612"
    },
    {
      "channel": 5,
      "note": 80,
      "start": 26.7459,
      "duration": 0.1333,
      "velocity": 127,
      "chip": "ym2612"
    },
    {
      "channel": 1,
      "note": 37,
      "start": 26.8285,
      "duration": 0.1499,
      "velocity": 87,
      "chip": "ym2612"
    },
    {
      "channel": 2,
      "note": 83,
      "start": 26.8288,
      "duration": 0.1328,
      "velocity": 127,
      "chip": "ym2612"
    },
    {
      "channel": 5,
      "note": 82,
      "start": 26.9126,
      "duration": 0.1331,
      "velocity": 127,
      "chip": "ym2612"
    },
    {
      "channel": 1,
      "note": 34,
      "start": 26.9951,
      "duration": 0.1497,
      "velocity": 87,
      "chip": "ym2612"
    },
    {
      "channel": 2,
      "note": 85,
      "start": 26.9954,
      "duration": 0.1331,
      "velocity": 127,
      "chip": "ym2612"
    },
    {
      "channel": 4,
      "note": 102,
      "start": 26.9964,
      "duration": 0.1328,
      "velocity": 109,
      "chip": "ym2612"
    },
    {
      "channel": 5,
      "note": 83,
      "start": 27.0795,
      "duration": 0.1328,
      "velocity": 127,
      "chip": "ym2612"
    },
    {
      "channel": 1,
      "note": 34,
      "start": 27.1617,
      "duration": 0.1498,
      "velocity": 87,
      "chip": "ym2612"
    },
    {
      "channel": 2,
      "note": 87,
      "start": 27.162,
      "duration": 0.133,
      "velocity": 127,
      "chip": "ym2612"
    },
    {
      "channel": 4,
      "note": 102,
      "start": 27.1632,
      "duration": 0.049,
      "velocity": 109,
      "chip": "ym2612"
    },
    {
      "channel": 4,
      "note": 102,
      "start": 27.2459,
      "duration": 0.0498,
      "velocity": 109,
      "chip": "ym2612"
    },
    {
      "channel": 5,
      "note": 85,
      "start": 27.2461,
      "duration": 0.1331,
      "velocity": 127,
      "chip": "ym2612"
    },
    {
      "channel": 1,
      "note": 30,
      "start": 27.3286,
      "duration": 0.1498,
      "velocity": 87,
      "chip": "ym2612"
    },
    {
      "channel": 2,
      "note": 85,
      "start": 27.3289,
      "duration": 0.1327,
      "velocity": 127,
      "chip": "ym2612"
    },
    {
      "channel": 4,
      "note": 102,
      "start": 27.33,
      "duration": 0.1323,
      "velocity": 109,
      "chip": "ym2612"
    },
    {
      "channel": 5,
      "note": 87,
      "start": 27.4126,
      "duration": 0.1333,
      "velocity": 127,
      "chip": "ym2612"
    },
    {
      "channel": 1,
      "note": 30,
      "start": 27.495,
      "duration": 0.1498,
      "velocity": 87,
      "chip": "ym2612"
    },
    {
      "channel": 2,
      "note": 83,
      "start": 27.4953,
      "duration": 0.0163,
      "velocity": 127,
      "chip": "ym2612"
    },
    {
      "channel": 2,
      "note": 85,
      "start": 27.5451,
      "duration": 0.0165,
      "velocity": 127,
      "chip": "ym2612"
    },
    {
      "channel": 5,
      "note": 85,
      "start": 27.5795,
      "duration": 0.1329,
      "velocity": 127,
      "chip": "ym2612"
    },
    {
      "channel": 2,
      "note": 83,
      "start": 27.5951,
      "duration": 0.0334,
      "velocity": 127,
      "chip": "ym2612"
    },
    {
      "channel": 1,
      "note": 30,
      "start": 27.6617,
      "duration": 0.1498,
      "velocity": 87,
      "chip": "ym2612"
    },
    {
      "channel": 2,
      "note": 82,
      "start": 27.662,
      "duration": 0.133,
      "velocity": 127,
      "chip": "ym2612"
    },
    {
      "channel": 5,
      "note": 83,
      "start": 27.7459,
      "duration": 0.0164,
      "velocity": 127,
      "chip": "ym2612"
    },
    {
      "channel": 5,
      "note": 85,
      "start": 27.7959,
      "duration": 0.0167,
      "velocity": 127,
      "chip": "ym2612"
    },
    {
      "channel": 1,
      "note": 30,
      "start": 27.8286,
      "duration": 0.1498,
      "velocity": 87,
      "chip": "ym2612"
    },
    {
      "channel": 2,
      "note": 80,
      "start": 27.8289,
      "duration": 0.1328,
      "velocity": 127,
      "chip": "ym2612"
    },
    {
      "channel": 5,
      "note": 83,
      "start": 27.8457,
      "duration": 0.0335,
      "velocity": 127,
      "chip": "ym2612"
    },
    {
      "channel": 5,
      "note": 82,
      "start": 27.9126,
      "duration": 0.1331,
      "velocity": 127,
      "chip": "ym2612"
    },
    {
      "channel": 1,
      "note": 30,
      "start": 27.995,
      "duration": 0.1498,
      "velocity": 87,
      "chip": "ym2612"
    },
    {
      "channel": 2,
      "note": 80,
      "start": 27.9953,
      "duration": 0.7997,
      "velocity": 127,
      "chip": "ym2612"
    },
    {
      "channel": 4,
      "note": 102,
      "start": 27.9964,
      "duration": 0.1328,
      "velocity": 109,
      "chip": "ym2612"
    },
    {
      "channel": 5,
      "note": 80,
      "start": 28.0795,
      "duration": 0.1332,
      "velocity": 127,
      "chip": "ym2612"
    },
    {
      "channel": 1,
      "note": 30,
      "start": 28.1617,
      "duration": 0.1498,
      "velocity": 87,
      "chip": "ym2612"
    },
    {
      "channel": 4,
      "note": 102,
      "start": 28.163,
      "duration": 0.0162,
      "velocity": 109,
      "chip": "ym2612"
    },
    {
      "channel": 4,
      "note": 102,
      "start": 28.2125,
      "duration": 0.0167,
      "velocity": 109,
      "chip": "ym2612"
    },
    {
      "channel": 5,
      "note": 80,
      "start": 28.246,
      "duration": 0.7999,
      "velocity": 127,
      "chip": "ym2612"
    },
    {
      "channel": 4,
      "note": 102,
      "start": 28.2625,
      "duration": 0.0332,
      "velocity": 109,
      "chip": "ym2612"
    },
    {
      "channel": 1,
      "note": 30,
      "start": 28.3286,
      "duration": 0.1498,
      "velocity": 87,
      "chip": "ym2612"
    },
    {
      "channel": 4,
      "note": 102,
      "start": 28.33,
      "duration": 0.0156,
      "velocity": 109,
      "chip": "ym2612"
    },
    {
      "channel": 4,
      "note": 102,
      "start": 28.3795,
      "duration": 0.0162,
      "velocity": 109,
      "chip": "ym2612"
    },
    {
      "channel": 4,
      "note": 102,
      "start": 28.4295,
      "duration": 0.0329,
      "velocity": 109,
      "chip": "ym2612"
    },
    {
      "channel": 1,
      "note": 30,
      "start": 28.495,
      "duration": 0.1498,
      "velocity": 87,
      "chip": "ym2612"
    },
    {
      "channel": 4,
      "note": 102,
      "start": 28.4964,
      "duration": 0.0158,
      "velocity": 109,
      "chip": "ym2612"
    },
    {
      "channel": 4,
      "note": 102,
      "start": 28.5459,
      "duration": 0.0165,
      "velocity": 109,
      "chip": "ym2612"
    },
    {
      "channel": 4,
      "note": 102,
      "start": 28.5959,
      "duration": 0.0334,
      "velocity": 109,
      "chip": "ym2612"
    },
    {
      "channel": 1,
      "note": 30,
      "start": 28.6617,
      "duration": 0.1498,
      "velocity": 87,
      "chip": "ym2612"
    },
    {
      "channel": 4,
      "note": 102,
      "start": 28.663,
      "duration": 0.1327,
      "velocity": 109,
      "chip": "ym2612"
    },
    {
      "channel": 1,
      "note": 37,
      "start": 28.8285,
      "duration": 0.1499,
      "velocity": 87,
      "chip": "ym2612"
    },
    {
      "channel": 1,
      "note": 34,
      "start": 28.9951,
      "duration": 0.1497,
      "velocity": 87,
      "chip": "ym2612"
    },
    {
      "channel": 2,
      "note": 80,
      "start": 28.9954,
      "duration": 0.0161,
      "velocity": 127,
      "chip": "ym2612"
    },
    {
      "channel": 4,
      "note": 102,
      "start": 28.9965,
      "duration": 0.1327,
      "velocity": 109,
      "chip": "ym2612"
    },
    {
      "channel": 2,
      "note": 82,
      "start": 29.0451,
      "duration": 0.0165,
      "velocity": 127,
      "chip": "ym2612"
    },
    {
      "channel": 2,
      "note": 80,
      "start": 29.0951,
      "duration": 0.0334,
      "velocity": 127,
      "chip": "ym2612"
    },
    {
      "channel": 1,
      "note": 34,
      "start": 29.1617,
      "duration": 0.1498,
      "velocity": 87,
      "chip": "ym2612"
    },
    {
      "channel": 2,
      "note": 82,
      "start": 29.162,
      "duration": 0.133,
      "velocity": 127,
      "chip": "ym2612"
    },
    {
      "channel": 4,
      "note": 102,
      "start": 29.1632,
      "duration": 0.049,
      "velocity": 109,
      "chip": "ym2612"
    },
    {
      "channel": 4,
      "note": 102,
      "start": 29.2459,
      "duration": 0.0498,
      "velocity": 109,
      "chip": "ym2612"
    },
    {
      "channel": 5,
      "note": 80,
      "start": 29.2461,
      "duration": 0.0162,
      "velocity": 127,
      "chip": "ym2612"
    },
    {
      "channel": 5,
      "note": 82,
      "start": 29.2959,
      "duration": 0.0166,
      "velocity": 127,
      "chip": "ym2612"
    },
    {
      "channel": 1,
      "note": 30,
      "start": 29.3286,
      "duration": 0.1498,
      "velocity": 87,
      "chip": "ym2612"
    },
    {
      "channel": 2,
      "note": 83,
      "start": 29.3289,
      "duration": 0.1328,
      "velocity": 127,
      "chip": "ym2612"
    },
    {
      "channel": 4,
      "note": 102,
      "start": 29.33,
      "duration": 0.1323,
      "velocity": 109,
      "chip": "ym2612"
    },
    {
      "channel": 5,
      "note": 80,
      "start": 29.3457,
      "duration": 0.0334,
      "velocity": 127,
      "chip": "ym2612"
    },
    {
      "channel": 5,
      "note": 82,
      "start": 29.4126,
      "duration": 0.1331,
      "velocity": 127,
      "chip": "ym2612"
    },
    {
      "channel": 1,
      "note": 30,
      "start": 29.495,
      "duration": 0.1498,
      "velocity": 87,
      "chip": "ym2612"
    },
    {
      "channel": 2,
      "note": 85,
      "start": 29.4953,
      "duration": 0.1333,
      "velocity": 127,
      "chip": "ym2612"
    },
    {
      "channel": 5,
      "note": 83,
      "start": 29.5795,
      "duration": 0.1328,
      "velocity": 127,
      "chip": "ym2612"
    },
    {
      "channel": 1,
      "note": 30,
      "start": 29.6617,
      "duration": 0.1498,
      "velocity": 87,
      "chip": "ym2612"
    },
    {
      "channel": 2,
      "note": 75,
      "start": 29.662,
      "duration": 0.1329,
      "velocity": 127,
      "chip": "ym2612"
    },
    {
      "channel": 5,
      "note": 85,
      "start": 29.746,
      "duration": 0.1332,
      "velocity": 127,
      "chip": "ym2612"
    },
    {
      "channel": 1,
      "note": 30,
      "start": 29.8286,
      "duration": 0.1498,
      "velocity": 87,
      "chip": "ym2612"
    },
    {
      "channel": 2,
      "note": 87,
      "start": 29.8289,
      "duration": 0.1327,
      "velocity": 127,
      "chip": "ym2612"
    },
    {
      "channel": 5,
      "note": 75,
      "start": 29.9126,
      "duration": 0.133,
      "velocity": 127,
      "chip": "ym2612"
    },
    {
      "channel": 1,
      "note": 30,
      "start": 29.995,
      "duration": 0.1498,
      "velocity": 87,
      "chip": "ym2612"
    },
    {
      "channel": 2,
      "note": 92,
      "start": 29.9954,
      "duration": 0.1332,
      "velocity": 127,
      "chip": "ym2612"
    },
    {
      "channel": 4,
      "note": 102,
      "start": 29.9964,
      "duration": 0.1329,
      "velocity": 109,
      "chip": "ym2612"
    },
    {
      "channel": 5,
      "note": 87,
      "start": 30.0795,
      "duration": 0.1328,
      "velocity": 127,
      "chip": "ym2612"
    },
    {
      "channel": 1,
      "note": 30,
      "start": 30.1617,
      "duration": 0.1498,
      "velocity": 87,
      "chip": "ym2612"
    },
    {
      "channel": 2,
      "note": 88,
      "start": 30.162,
      "duration": 0.1329,
      "velocity": 127,
      "chip": "ym2612"
    },
    {
      "channel": 4,
      "note": 102,
      "start": 30.1631,
      "duration": 0.0492,
      "velocity": 109,
      "chip": "ym2612"
    },
    {
      "channel": 4,
      "note": 102,
      "start": 30.2459,
      "duration": 0.0498,
      "velocity": 109,
      "chip": "ym2612"
    },
    {
      "channel": 5,
      "note": 92,
      "start": 30.2461,
      "duration": 0.1331,
      "velocity": 127,
      "chip": "ym2612"
    },
    {
      "channel": 1,
      "note": 30,
      "start": 30.3286,
      "duration": 0.1498,
      "velocity": 87,
      "chip": "ym2612"
    },
    {
      "channel": 2,
      "note": 87,
      "start": 30.3289,
      "duration": 0.1328,
      "velocity": 127,
      "chip": "ym2612"
    },
    {
      "channel": 4,
      "note": 102,
      "start": 30.33,
      "duration": 0.1323,
      "velocity": 109,
      "chip": "ym2612"
    },
    {
      "channel": 5,
      "note": 88,
      "start": 30.4126,
      "duration": 0.1333,
      "velocity": 127,
      "chip": "ym2612"
    },
    {
      "channel": 1,
      "note": 30,
      "start": 30.495,
      "duration": 0.1498,
      "velocity": 87,
      "chip": "ym2612"
    },
    {
      "channel": 2,
      "note": 85,
      "start": 30.4953,
      "duration": 0.0163,
      "velocity": 127,
      "chip": "ym2612"
    },
    {
      "channel": 2,
      "note": 87,
      "start": 30.5451,
      "duration": 0.0165,
      "velocity": 127,
      "chip": "ym2612"
    },
    {
      "channel": 5,
      "note": 87,
      "start": 30.5795,
      "duration": 0.1329,
      "velocity": 127,
      "chip": "ym2612"
    },
    {
      "channel": 2,
      "note": 85,
      "start": 30.5951,
      "duration": 0.0334,
      "velocity": 127,
      "chip": "ym2612"
    },
    {
      "channel": 1,
      "note": 30,
      "start": 30.6617,
      "duration": 0.1498,
      "velocity": 87,
      "chip": "ym2612"
    },
    {
      "channel": 2,
      "note": 83,
      "start": 30.662,
      "duration": 0.133,
      "velocity": 127,
      "chip": "ym2612"
    },
    {
      "channel": 5,
      "note": 85,
      "start": 30.7459,
      "duration": 0.0164,
      "velocity": 127,
      "chip": "ym2612"
    },
    {
      "channel": 5,
      "note": 87,
      "start": 30.7959,
      "duration": 0.0167,
      "velocity": 127,
      "chip": "ym2612"
    },
    {
      "channel": 1,
      "note": 37,
      "start": 30.8285,
      "duration": 0.1499,
      "velocity": 87,
      "chip": "ym2612"
    },
    {
      "channel": 2,
      "note": 87,
      "start": 30.8288,
      "duration": 0.1328,
      "velocity": 127,
      "chip": "ym2612"
    },
    {
      "channel": 5,
      "note": 85,
      "start": 30.8457,
      "duration": 0.0334,
      "velocity": 127,
      "chip": "ym2612"
    },
    {
      "channel": 5,
      "note": 83,
      "start": 30.9126,
      "duration": 0.1331,
      "velocity": 127,
      "chip": "ym2612"
    },
    {
      "channel": 1,
      "note": 34,
      "start": 30.9951,
      "duration": 0.1497,
      "velocity": 87,
      "chip": "ym2612"
    },
    {
      "channel": 2,
      "note": 75,
      "start": 30.9954,
      "duration": 0.1331,
      "velocity": 127,
      "chip": "ym2612"
    },
    {
      "channel": 4,
      "note": 102,
      "start": 30.9965,
      "duration": 0.1328,
      "velocity": 109,
      "chip": "ym2612"
    },
    {
      "channel": 5,
      "note": 87,
      "start": 31.0795,
      "duration": 0.1328,
      "velocity": 127,
      "chip": "ym2612"
    },
    {
      "channel": 1,
      "note": 34,
      "start": 31.1617,
      "duration": 0.1498,
      "velocity": 87,
      "chip": "ym2612"
    },
    {
      "channel": 2,
      "note": 76,
      "start": 31.162,
      "duration": 0.133,
      "velocity": 127,
      "chip": "ym2612"
    },
    {
      "channel": 4,
      "note": 102,
      "start": 31.1632,
      "duration": 0.049,
      "velocity": 109,
      "chip": "ym2612"
    },
    {
      "channel": 4,
      "note": 102,
      "start": 31.2459,
      "duration": 0.0498,
      "velocity": 109,
      "chip": "ym2612"
    },
    {
      "channel": 5,
      "note": 75,
      "start": 31.2461,
      "duration": 0.1331,
      "velocity": 127,
      "chip": "ym2612"
    },
    {
      "channel": 1,
      "note": 30,
      "start": 31.3286,
      "duration": 0.1498,
      "velocity": 87,
      "chip": "ym2612"
    },
    {
      "channel": 2,
      "note": 79,
      "start": 31.3289,
      "duration": 0.1327,
      "velocity": 127,
      "chip": "ym2612"
    },
    {
      "channel": 4,
      "note": 102,
      "start": 31.3301,
      "duration": 0.1322,
      "velocity": 109,
      "chip": "ym2612"
    },
    {
      "channel": 5,
      "note": 76,
      "start": 31.4126,
      "duration": 0.1333,
      "velocity": 127,
      "chip": "ym2612"
    },
    {
      "channel": 1,
      "note": 30,
      "start": 31.495,
      "duration": 0.1498,
      "velocity": 87,
      "chip": "ym2612"
    },
    {
      "channel": 2,
      "note": 80,
      "start": 31.4953,
      "duration": 0.0163,
      "velocity": 127,
      "chip": "ym2612"
    },
    {
      "channel": 2,
      "note": 79,
      "start": 31.5451,
      "duration": 0.0165,
      "velocity": 127,
      "chip": "ym2612"
    },
    {
      "channel": 5,
      "note": 79,
      "start": 31.5795,
      "duration": 0.1329,
      "velocity": 127,
      "chip": "ym2612"
    },
    {
      "channel": 2,
      "note": 80,
      "start": 31.5951,
      "duration": 0.0334,
      "velocity": 127,
      "chip": "ym2612"
    },
    {
      "channel": 1,
      "note": 30,
      "start": 31.6617,
      "duration": 0.1498,
      "velocity": 87,
      "chip": "ym2612"
    },
    {
      "channel": 2,
      "note": 82,
      "start": 31.662,
      "duration": 0.133,
      "velocity": 127,
      "chip": "ym2612"
    },
    {
      "channel": 5,
      "note": 80,
      "start": 31.7459,
      "duration": 0.0164,
      "velocity": 127,
      "chip": "ym2612"
    },
    {
      "channel": 5,
      "note": 79,
      "start": 31.7959,
      "duration": 0.0167,
      "velocity": 127,
      "chip": "ym2612"
    },
    {
      "channel": 1,
      "note": 30,
      "start": 31.8286,
      "duration": 0.1498,
      "velocity": 87,
      "chip": "ym2612"
    },
    {
      "channel": 2,
      "note": 83,
      "start": 31.8289,
      "duration": 0.1328,
      "velocity": 127,
      "chip": "ym2612"
    },
    {
      "channel": 5,
      "note": 80,
      "start": 31.8457,
      "duration": 0.0334,
      "velocity": 127,
      "chip": "ym2612"
    },
    {
      "channel": 5,
      "note": 82,
      "start": 31.9126,
      "duration": 0.1331,
      "velocity": 127,
      "chip": "ym2612"
    },
    {
      "channel": 1,
      "note": 30,
      "start": 31.995,
      "duration": 0.1498,
      "velocity": 87,
      "chip": "ym2612"
    },
    {
      "channel": 2,
      "note": 85,
      "start": 31.9953,
      "duration": 0.1333,
      "velocity": 127,
      "chip": "ym2612"
    },
    {
      "channel": 4,
      "note": 102,
      "start": 31.9964,
      "duration": 0.1329,
      "velocity": 109,
      "chip": "ym2612"
    },
    {
      "channel": 5,
      "note": 83,
      "start": 32.0795,
      "duration": 0.1331,
      "velocity": 127,
      "chip": "ym2612"
    },
    {
      "channel": 1,
      "note": 30,
      "start": 32.1617,
      "duration": 0.1498,
      "velocity": 87,
      "chip": "ym2612"
    },
    {
      "channel": 2,
      "note": 87,
      "start": 32.162,
      "duration": 0.133,
      "velocity": 127,
      "chip": "ym2612"
    },
    {
      "channel": 4,
      "note": 102,
      "start": 32.1631,
      "duration": 0.016,
      "velocity": 109,
      "chip": "ym2612"
    },
    {
      "channel": 4,
      "note": 102,
      "start": 32.2125,
      "duration": 0.0167,
      "velocity": 109,
      "chip": "ym2612"
    },
    {
      "channel": 5,
      "note": 85,
      "start": 32.246,
      "duration": 0.1335,
      "velocity": 127,
      "chip": "ym2612"
    },
    {
      "channel": 4,
      "note": 102,
      "start": 32.2625,
      "duration": 0.0332,
      "velocity": 109,
      "chip": "ym2612"
    },
    {
      "channel": 1,
      "note": 30,
      "start": 32.3286,
      "duration": 0.1498,
      "velocity": 87,
      "chip": "ym2612"
    },
    {
      "channel": 2,
      "note": 88,
      "start": 32.3289,
      "duration": 0.1327,
      "velocity": 127,
      "chip": "ym2612"
    },
    {
      "channel": 4,
      "note": 102,
      "start": 32.3301,
      "duration": 0.0154,
      "velocity": 109,
      "chip": "ym2612"
    },
    {
      "channel": 4,
      "note": 102,
      "start": 32.3794,
      "duration": 0.0162,
      "velocity": 109,
      "chip": "ym2612"
    },
    {
      "channel": 5,
      "note": 87,
      "start": 32.4127,
      "duration": 0.1333,
      "velocity": 127,
      "chip": "ym2612"
    },
    {
      "channel": 4,
      "note": 102,
      "start": 32.4295,
      "duration": 0.0329,
      "velocity": 109,
      "chip": "ym2612"
    },
    {
      "channel": 1,
      "note": 30,
      "start": 32.495,
      "duration": 0.1498,
      "velocity": 87,
      "chip": "ym2612"
    },
    {
      "channel": 2,
      "note": 87,
      "start": 32.4953,
      "duration": 0.1333,
      "velocity": 127,
      "chip": "ym2612"
    },
    {
      "channel": 4,
      "note": 102,
      "start": 32.4966,
      "duration": 0.0156,
      "velocity": 109,
      "chip": "ym2612"
    },
    {
      "channel": 4,
      "note": 102,
      "start": 32.5458,
      "duration": 0.0165,
      "velocity": 109,
      "chip": "ym2612"
    },
    {
      "channel": 5,
      "note": 88,
      "start": 32.5795,
      "duration": 0.1328,
      "velocity": 127,
      "chip": "ym2612"
    },
    {
      "channel": 4,
      "note": 102,
      "start": 32.5959,
      "duration": 0.0334,
      "velocity": 109,
      "chip": "ym2612"
    },
    {
      "channel": 1,
      "note": 30,
      "start": 32.6617,
      "duration": 0.1498,
      "velocity": 87,
      "chip": "ym2612"
    },
    {
      "channel": 2,
      "note": 91,
      "start": 32.662,
      "duration": 0.1329,
      "velocity": 127,
      "chip": "ym2612"
    },
    {
      "channel": 4,
      "note": 102,
      "start": 32.6631,
      "duration": 0.1326,
      "velocity": 109,
      "chip": "ym2612"
    },
    {
      "channel": 5,
      "note": 87,
      "start": 32.7459,
      "duration": 0.1333,
      "velocity": 127,
      "chip": "ym2612"
    },
    {
      "channel": 1,
      "note": 37,
      "start": 32.8285,
      "duration": 0.1499,
      "velocity": 87,
      "chip": "ym2612"
    },
    {
      "channel": 2,
      "note": 92,
      "start": 32.8288,
      "duration": 0.1329,
      "velocity": 127,
      "chip": "ym2612"
    },
    {
      "channel": 5,
      "note": 91,
      "start": 32.9126,
      "duration": 0.1331,
      "velocity": 127,
      "chip": "ym2612"
    },
    {
      "channel": 0,
      "note": 34,
      "start": 32.9949,
      "duration": 7.9498,
      "velocity": 117,
      "chip": "ym2612"
    },
    {
      "channel": 1,
      "note": 34,
      "start": 32.9951,
      "duration": 0.1497,
      "velocity": 87,
      "chip": "ym2612"
    },
    {
      "channel": 4,
      "note": 102,
      "start": 32.9966,
      "duration": 0.1328,
      "velocity": 109,
      "chip": "ym2612"
    },
    {
      "channel": 5,
      "note": 92,
      "start": 33.0795,
      "duration": 0.1328,
      "velocity": 127,
      "chip": "ym2612"
    },
    {
      "channel": 1,
      "note": 34,
      "start": 33.1617,
      "duration": 0.1498,
      "velocity": 87,
      "chip": "ym2612"
    },
    {
      "channel": 3,
      "note": 34,
      "start": 33.1628,
      "duration": 7.9493,
      "velocity": 117,
      "chip": "ym2612"
    },
    {
      "channel": 4,
      "note": 102,
      "start": 33.1632,
      "duration": 0.049,
      "velocity": 109,
      "chip": "ym2612"
    },
    {
      "channel": 4,
      "note": 102,
      "start": 33.2459,
      "duration": 0.0498,
      "velocity": 109,
      "chip": "ym2612"
    },
    {
      "channel": 1,
      "note": 30,
      "start": 33.3286,
      "duration": 0.1498,
      "velocity": 87,
      "chip": "ym2612"
    },
    {
      "channel": 2,
      "note": 58,
      "start": 33.3297,
      "duration": 0.1319,
      "velocity": 127,
      "chip": "ym2612"
    },
    {
      "channel": 4,
      "note": 102,
      "start": 33.3309,
      "duration": 0.1314,
      "velocity": 109,
      "chip": "ym2612"
    },
    {
      "channel": 1,
      "note": 30,
      "start": 33.495,
      "duration": 0.1498,
      "velocity": 87,
      "chip": "ym2612"
    },
    {
      "channel": 5,
      "note": 58,
      "start": 33.5803,
      "duration": 0.1321,
      "velocity": 127,
      "chip": "ym2612"
    },
    {
      "channel": 1,
      "note": 30,
      "start": 33.6617,
      "duration": 0.1498,
      "velocity": 87,
      "chip": "ym2612"
    },
    {
      "channel": 1,
      "note": 30,
      "start": 33.8286,
      "duration": 0.1498,
      "velocity": 87,
      "chip": "ym2612"
    },
    {
      "channel": 2,
      "note": 58,
      "start": 33.8289,
      "duration": 0.1328,
      "velocity": 127,
      "chip": "ym2612"
    },
    {
      "channel": 1,
      "note": 30,
      "start": 33.995,
      "duration": 0.1498,
      "velocity": 87,
      "chip": "ym2612"
    },
    {
      "channel": 4,
      "note": 102,
      "start": 33.9964,
      "duration": 0.1329,
      "velocity": 109,
      "chip": "ym2612"
    },
    {
      "channel": 5,
      "note": 58,
      "start": 34.0795,
      "duration": 0.1329,
      "velocity": 127,
      "chip": "ym2612"
    },
    {
      "channel": 1,
      "note": 30,
      "start": 34.1617,
      "duration": 0.1498,
      "velocity": 87,
      "chip": "ym2612"
    },
    {
      "channel": 4,
      "note": 102,
      "start": 34.163,
      "duration": 0.0493,
      "velocity": 109,
      "chip": "ym2612"
    },
    {
      "channel": 4,
      "note": 102,
      "start": 34.2459,
      "duration": 0.0498,
      "velocity": 109,
      "chip": "ym2612"
    },
    {
      "channel": 1,
      "note": 30,
      "start": 34.3286,
      "duration": 0.1498,
      "velocity": 87,
      "chip": "ym2612"
    },
    {
      "channel": 2,
      "note": 58,
      "start": 34.3289,
      "duration": 0.1327,
      "velocity": 127,
      "chip": "ym2612"
    },
    {
      "channel": 4,
      "note": 102,
      "start": 34.33,
      "duration": 0.1323,
      "velocity": 109,
      "chip": "ym2612"
    },
    {
      "channel": 1,
      "note": 30,
      "start": 34.495,
      "duration": 0.1498,
      "velocity": 87,
      "chip": "ym2612"
    },
    {
      "channel": 5,
      "note": 58,
      "start": 34.5795,
      "duration": 0.1329,
      "velocity": 127,
      "chip": "ym2612"
    },
    {
      "channel": 1,
      "note": 30,
      "start": 34.6617,
      "duration": 0.1498,
      "velocity": 87,
      "chip": "ym2612"
    },
    {
      "channel": 1,
      "note": 37,
      "start": 34.8285,
      "duration": 0.1499,
      "velocity": 87,
      "chip": "ym2612"
    },
    {
      "channel": 2,
      "note": 65,
      "start": 34.8288,
      "duration": 0.1328,
      "velocity": 127,
      "chip": "ym2612"
    },
    {
      "channel": 1,
      "note": 34,
      "start": 34.9951,
      "duration": 0.1497,
      "velocity": 87,
      "chip": "ym2612"
    },
    {
      "channel": 2,
      "note": 66,
      "start": 34.9955,
      "duration": 0.133,
      "velocity": 127,
      "chip": "ym2612"
    },
    {
      "channel": 4,
      "note": 102,
      "start": 34.9966,
      "duration": 0.1327,
      "velocity": 109,
      "chip": "ym2612"
    },
    {
      "channel": 5,
      "note": 65,
      "start": 35.0795,
      "duration": 0.1328,
      "velocity": 127,
      "chip": "ym2612"
    },
    {
      "channel": 1,
      "note": 34,
      "start": 35.1617,
      "duration": 0.1498,
      "velocity": 87,
      "chip": "ym2612"
    },
    {
      "channel": 2,
      "note": 69,
      "start": 35.162,
      "duration": 0.133,
      "velocity": 127,
      "chip": "ym2612"
    },
    {
      "channel": 4,
      "note": 102,
      "start": 35.1632,
      "duration": 0.049,
      "velocity": 109,
      "chip": "ym2612"
    },
    {
      "channel": 4,
      "note": 102,
      "start": 35.2459,
      "duration": 0.0498,
      "velocity": 109,
      "chip": "ym2612"
    },
    {
      "channel": 5,
      "note": 66,
      "start": 35.2462,
      "duration": 0.1329,
      "velocity": 127,
      "chip": "ym2612"
    },
    {
      "channel": 1,
      "note": 30,
      "start": 35.3286,
      "duration": 0.1498,
      "velocity": 87,
      "chip": "ym2612"
    },
    {
      "channel": 2,
      "note": 70,
      "start": 35.3289,
      "duration": 0.1328,
      "velocity": 127,
      "chip": "ym2612"
    },
    {
      "channel": 4,
      "note": 102,
      "start": 35.33,
      "duration": 0.1323,
      "velocity": 109,
      "chip": "ym2612"
    },
    {
      "channel": 5,
      "note": 69,
      "start": 35.4126,
      "duration": 0.1331,
      "velocity": 127,
      "chip": "ym2612"
    },
    {
      "channel": 1,
      "note": 30,
      "start": 35.495,
      "duration": 0.1498,
      "velocity": 87,
      "chip": "ym2612"
    },
    {
      "channel": 2,
      "note": 73,
      "start": 35.4953,
      "duration": 0.1333,
      "velocity": 127,
      "chip": "ym2612"
    },
    {
      "channel": 5,
      "note": 70,
      "start": 35.5795,
      "duration": 0.1328,
      "velocity": 127,
      "chip": "ym2612"
    },
    {
      "channel": 1,
      "note": 30,
      "start": 35.6617,
      "duration": 0.1498,
      "velocity": 87,
      "chip": "ym2612"
    },
    {
      "channel": 2,
      "note": 71,
      "start": 35.662,
      "duration": 0.133,
      "velocity": 127,
      "chip": "ym2612"
    },
    {
      "channel": 5,
      "note": 73,
      "start": 35.7459,
      "duration": 0.1335,
      "velocity": 127,
      "chip": "ym2612"
    },
    {
      "channel": 1,
      "note": 30,
      "start": 35.8286,
      "duration": 0.1498,
      "velocity": 87,
      "chip": "ym2612"
    },
    {
      "channel": 2,
      "note": 70,
      "start": 35.8289,
      "duration": 0.016,
      "velocity": 127,
      "chip": "ym2612"
    },
    {
      "channel": 2,
      "note": 71,
      "start": 35.8787,
      "duration": 0.0163,
      "velocity": 127,
      "chip": "ym2612"
    },
    {
      "channel": 5,
      "note": 71,
      "start": 35.9125,
      "duration": 0.1332,
      "velocity": 127,
      "chip": "ym2612"
    },
    {
      "channel": 2,
      "note": 70,
      "start": 35.9287,
      "duration": 0.0329,
      "velocity": 127,
      "chip": "ym2612"
    },
    {
      "channel": 1,
      "note": 30,
      "start": 35.995,
      "duration": 0.1498,
      "velocity": 87,
      "chip": "ym2612"
    },
    {
      "channel": 2,
      "note": 69,
      "start": 35.9953,
      "duration": 0.1333,
      "velocity": 127,
      "chip": "ym2612"
    },
    {
      "channel": 4,
      "note": 102,
      "start": 35.9964,
      "duration": 0.1329,
      "velocity": 109,
      "chip": "ym2612"
    },
    {
      "channel": 5,
      "note": 70,
      "start": 36.0795,
      "duration": 0.0162,
      "velocity": 127,
      "chip": "ym2612"
    },
    {
      "channel": 5,
      "note": 71,
      "start": 36.1295,
      "duration": 0.0164,
      "velocity": 127,
      "chip": "ym2612"
    },
    {
      "channel": 1,
      "note": 30,
      "start": 36.1617,
      "duration": 0.1498,
      "velocity": 87,
      "chip": "ym2612"
    },
    {
      "channel": 2,
      "note": 66,
      "start": 36.162,
      "duration": 0.133,
      "velocity": 127,
      "chip": "ym2612"
    },
    {
      "channel": 4,
      "note": 102,
      "start": 36.1631,
      "duration": 0.016,
      "velocity": 109,
      "chip": "ym2612"
    },
    {
      "channel": 5,
      "note": 70,
      "start": 36.1793,
      "duration": 0.0333,
      "velocity": 127,
      "chip": "ym2612"
    },
    {
      "channel": 4,
      "note": 102,
      "start": 36.2125,
      "duration": 0.0167,
      "velocity": 109,
      "chip": "ym2612"
    },
    {
      "channel": 5,
      "note": 69,
      "start": 36.246,
      "duration": 0.1335,
      "velocity": 127,
      "chip": "ym2612"
    },
    {
      "channel": 4,
      "note": 102,
      "start": 36.2625,
      "duration": 0.0332,
      "velocity": 109,
      "chip": "ym2612"
    },
    {
      "channel": 1,
      "note": 30,
      "start": 36.3286,
      "duration": 0.1498,
      "velocity": 87,
      "chip": "ym2612"
    },
    {
      "channel": 2,
      "note": 65,
      "start": 36.329,
      "duration": 0.1326,
      "velocity": 127,
      "chip": "ym2612"
    },
    {
      "channel": 4,
      "note": 102,
      "start": 36.3303,
      "duration": 0.0153,
      "velocity": 109,
      "chip": "ym2612"
    },
    {
      "channel": 4,
      "note": 102,
      "start": 36.3794,
      "duration": 0.0162,
      "velocity": 109,
      "chip": "ym2612"
    },
    {
      "channel": 5,
      "note": 66,
      "start": 36.4126,
      "duration": 0.1333,
      "velocity": 127,
      "chip": "ym2612"
    },
    {
      "channel": 4,
      "note": 102,
      "start": 36.4295,
      "duration": 0.0329,
      "velocity": 109,
      "chip": "ym2612"
    },
    {
      "channel": 1,
      "note": 30,
      "start": 36.495,
      "duration": 0.1498,
      "velocity": 87,
      "chip": "ym2612"
    },
    {
      "channel": 2,
      "note": 63,
      "start": 36.4953,
      "duration": 0.1333,
      "velocity": 127,
      "chip": "ym2612"
    },
    {
      "channel": 4,
      "note": 102,
      "start": 36.4966,
      "duration": 0.0156,
      "velocity": 109,
      "chip": "ym2612"
    },
    {
      "channel": 4,
      "note": 102,
      "start": 36.5458,
      "duration": 0.0165,
      "velocity": 109,
      "chip": "ym2612"
    },
    {
      "channel": 5,
      "note": 65,
      "start": 36.5796,
      "duration": 0.1327,
      "velocity": 127,
      "chip": "ym2612"
    },
    {
      "channel": 4,
      "note": 102,
      "start": 36.5959,
      "duration": 0.0334,
      "velocity": 109,
      "chip": "ym2612"
    },
    {
      "channel": 1,
      "note": 30,
      "start": 36.6617,
      "duration": 0.1498,
      "velocity": 87,
      "chip": "ym2612"
    },
    {
      "channel": 2,
      "note": 61,
      "start": 36.662,
      "duration": 0.133,
      "velocity": 127,
      "chip": "ym2612"
    },
    {
      "channel": 4,
      "note": 102,
      "start": 36.6631,
      "duration": 0.1326,
      "velocity": 109,
      "chip": "ym2612"
    },
    {
      "channel": 5,
      "note": 63,
      "start": 36.7459,
      "duration": 0.1335,
      "velocity": 127,
      "chip": "ym2612"
    },
    {
      "channel": 1,
      "note": 37,
      "start": 36.8285,
      "duration": 0.1499,
      "velocity": 87,
      "chip": "ym2612"
    },
    {
      "channel": 2,
      "note": 60,
      "start": 36.8288,
      "duration": 0.0161,
      "velocity": 127,
      "chip": "ym2612"
    },
    {
      "channel": 2,
      "note": 61,
      "start": 36.8787,
      "duration": 0.0163,
      "velocity": 127,
      "chip": "ym2612"
    },
    {
      "channel": 5,
      "note": 61,
      "start": 36.9125,
      "duration": 0.1332,
      "velocity": 127,
      "chip": "ym2612"
    },
    {
      "channel": 2,
      "note": 60,
      "start": 36.9287,
      "duration": 0.0329,
      "velocity": 127,
      "chip": "ym2612"
    },
    {
      "channel": 1,
      "note": 34,
      "start": 36.9951,
      "duration": 0.1497,
      "velocity": 87,
      "chip": "ym2612"
    },
    {
      "channel": 2,
      "note": 58,
      "start": 36.9954,
      "duration": 0.1331,
      "velocity": 127,
      "chip": "ym2612"
    },
    {
      "channel": 4,
      "note": 102,
      "start": 36.9965,
      "duration": 0.1328,
      "velocity": 109,
      "chip": "ym2612"
    },
    {
      "channel": 5,
      "note": 60,
      "start": 37.0795,
      "duration": 0.0162,
      "velocity": 127,
      "chip": "ym2612"
    },
    {
      "channel": 5,
      "note": 61,
      "start": 37.1295,
      "duration": 0.0163,
      "velocity": 127,
      "chip": "ym2612"
    },
    {
      "channel": 1,
      "note": 34,
      "start": 37.1617,
      "duration": 0.1498,
      "velocity": 87,
      "chip": "ym2612"
    },
    {
      "channel": 2,
      "note": 53,
      "start": 37.162,
      "duration": 0.1329,
      "velocity": 127,
      "chip": "ym2612"
    },
    {
      "channel": 4,
      "note": 102,
      "start": 37.1632,
      "duration": 0.049,
      "velocity": 109,
      "chip": "ym2612"
    },
    {
      "channel": 5,
      "note": 60,
      "start": 37.1793,
      "duration": 0.0331,
      "velocity": 127,
      "chip": "ym2612"
    },
    {
      "channel": 4,
      "note": 102,
      "start": 37.2459,
      "duration": 0.0498,
      "velocity": 109,
      "chip": "ym2612"
    },
    {
      "channel": 5,
      "note": 58,
      "start": 37.2461,
      "duration": 0.1331,
      "velocity": 127,
      "chip": "ym2612"
    },
    {
      "channel": 1,
      "note": 30,
      "start": 37.3286,
      "duration": 0.1498,
      "velocity": 87,
      "chip": "ym2612"
    },
    {
      "channel": 2,
      "note": 54,
      "start": 37.3289,
      "duration": 0.1327,
      "velocity": 127,
      "chip": "ym2612"
    },
    {
      "channel": 4,
      "note": 102,
      "start": 37.33,
      "duration": 0.1323,
      "velocity": 109,
      "chip": "ym2612"
    },
    {
      "channel": 5,
      "note": 53,
      "start": 37.4126,
      "duration": 0.1331,
      "velocity": 127,
      "chip": "ym2612"
    },
    {
      "channel": 1,
      "note": 30,
      "start": 37.495,
      "duration": 0.1498,
      "velocity": 87,
      "chip": "ym2612"
    },
    {
      "channel": 2,
      "note": 57,
      "start": 37.4953,
      "duration": 0.1333,
      "velocity": 127,
      "chip": "ym2612"
    },
    {
      "channel": 5,
      "note": 54,
      "start": 37.5795,
      "duration": 0.1328,
      "velocity": 127,
      "chip": "ym2612"
    },
    {
      "channel": 1,
      "note": 30,
      "start": 37.6617,
      "duration": 0.1498,
      "velocity": 87,
      "chip": "ym2612"
    },
    {
      "channel": 2,
      "note": 58,
      "start": 37.662,
      "duration": 0.133,
      "velocity": 127,
      "chip": "ym2612"
    },
    {
      "channel": 5,
      "note": 57,
      "start": 37.7459,
      "duration": 0.1333,
      "velocity": 127,
      "chip": "ym2612"
    },
    {
      "channel": 1,
      "note": 30,
      "start": 37.8286,
      "duration": 0.1498,
      "velocity": 87,
      "chip": "ym2612"
    },
    {
      "channel": 2,
      "note": 60,
      "start": 37.8289,
      "duration": 0.1327,
      "velocity": 127,
      "chip": "ym2612"
    },
    {
      "channel": 5,
      "note": 58,
      "start": 37.9126,
      "duration": 0.1331,
      "velocity": 127,
      "chip": "ym2612"
    },
    {
      "channel": 1,
      "note": 30,
      "start": 37.995,
      "duration": 0.1498,
      "velocity": 87,
      "chip": "ym2612"
    },
    {
      "channel": 2,
      "note": 61,
      "start": 37.9953,
      "duration": 0.1333,
      "velocity": 127,
      "chip": "ym2612"
    },
    {
      "channel": 4,
      "note": 102,
      "start": 37.9964,
      "duration": 0.1329,
      "velocity": 109,
      "chip": "ym2612"
    },
    {
      "channel": 5,
      "note": 60,
      "start": 38.0795,
      "duration": 0.1328,
      "velocity": 127,
      "chip": "ym2612"
    },
    {
      "channel": 1,
      "note": 30,
      "start": 38.1617,
      "duration": 0.1498,
      "velocity": 87,
      "chip": "ym2612"
    },
    {
      "channel": 2,
      "note": 60,
      "start": 38.162,
      "duration": 0.133,
      "velocity": 127,
      "chip": "ym2612"
    },
    {
      "channel": 4,
      "note": 102,
      "start": 38.1631,
      "duration": 0.0492,
      "velocity": 109,
      "chip": "ym2612"
    },
    {
      "channel": 4,
      "note": 102,
      "start": 38.2459,
      "duration": 0.0498,
      "velocity": 109,
      "chip": "ym2612"
    },
    {
      "channel": 5,
      "note": 61,
      "start": 38.2462,
      "duration": 0.133,
      "velocity": 127,
      "chip": "ym2612"
    },
    {
      "channel": 1,
      "note": 30,
      "start": 38.3286,
      "duration": 0.1498,
      "velocity": 87,
      "chip": "ym2612"
    },
    {
      "channel": 2,
      "note": 58,
      "start": 38.3289,
      "duration": 0.1328,
      "velocity": 127,
      "chip": "ym2612"
    },
    {
      "channel": 4,
      "note": 102,
      "start": 38.33,
      "duration": 0.1323,
      "velocity": 109,
      "chip": "ym2612"
    },
    {
      "channel": 5,
      "note": 60,
      "start": 38.4126,
      "duration": 0.1331,
      "velocity": 127,
      "chip": "ym2612"
    },
    {
      "channel": 1,
      "note": 30,
      "start": 38.495,
      "duration": 0.1498,
      "velocity": 87,
      "chip": "ym2612"
    },
    {
      "channel": 2,
      "note": 57,
      "start": 38.4953,
      "duration": 0.1333,
      "velocity": 127,
      "chip": "ym2612"
    },
    {
      "channel": 5,
      "note": 58,
      "start": 38.5795,
      "duration": 0.1328,
      "velocity": 127,
      "chip": "ym2612"
    },
    {
      "channel": 1,
      "note": 30,
      "start": 38.6617,
      "duration": 0.1498,
      "velocity": 87,
      "chip": "ym2612"
    },
    {
      "channel": 2,
      "note": 54,
      "start": 38.662,
      "duration": 0.133,
      "velocity": 127,
      "chip": "ym2612"
    },
    {
      "channel": 5,
      "note": 57,
      "start": 38.7459,
      "duration": 0.1333,
      "velocity": 127,
      "chip": "ym2612"
    },
    {
      "channel": 1,
      "note": 37,
      "start": 38.8285,
      "duration": 0.1499,
      "velocity": 87,
      "chip": "ym2612"
    },
    {
      "channel": 2,
      "note": 53,
      "start": 38.8288,
      "duration": 0.1328,
      "velocity": 127,
      "chip": "ym2612"
    },
    {
      "channel": 5,
      "note": 54,
      "start": 38.9126,
      "duration": 0.1331,
      "velocity": 127,
      "chip": "ym2612"
    },
    {
      "channel": 1,
      "note": 34,
      "start": 38.9951,
      "duration": 0.1497,
      "velocity": 87,
      "chip": "ym2612"
    },
    {
      "channel": 2,
      "note": 49,
      "start": 38.9954,
      "duration": 0.1331,
      "velocity": 127,
      "chip": "ym2612"
    },
    {
      "channel": 4,
      "note": 102,
      "start": 38.9964,
      "duration": 0.1328,
      "velocity": 109,
      "chip": "ym2612"
    },
    {
      "channel": 5,
      "note": 53,
      "start": 39.0795,
      "duration": 0.1328,
      "velocity": 127,
      "chip": "ym2612"
    },
    {
      "channel": 1,
      "note": 34,
      "start": 39.1617,
      "duration": 0.1498,
      "velocity": 87,
      "chip": "ym2612"
    },
    {
      "channel": 2,
      "note": 51,
      "start": 39.162,
      "duration": 0.133,
      "velocity": 127,
      "chip": "ym2612"
    },
    {
      "channel": 4,
      "note": 102,
      "start": 39.1632,
      "duration": 0.049,
      "velocity": 109,
      "chip": "ym2612"
    },
    {
      "channel": 4,
      "note": 102,
      "start": 39.2459,
      "duration": 0.0498,
      "velocity": 109,
      "chip": "ym2612"
    },
    {
      "channel": 5,
      "note": 49,
      "start": 39.2461,
      "duration": 0.1331,
      "velocity": 127,
      "chip": "ym2612"
    },
    {
      "channel": 1,
      "note": 30,
      "start": 39.3286,
      "duration": 0.1498,
      "velocity": 87,
      "chip": "ym2612"
    },
    {
      "channel": 2,
      "note": 53,
      "start": 39.3289,
      "duration": 0.1327,
      "velocity": 127,
      "chip": "ym2612"
    },
    {
      "channel": 4,
      "note": 102,
      "start": 39.33,
      "duration": 0.1323,
      "velocity": 109,
      "chip": "ym2612"
    },
    {
      "channel": 5,
      "note": 51,
      "start": 39.4126,
      "duration": 0.1333,
      "velocity": 127,
      "chip": "ym2612"
    },
    {
      "channel": 1,
      "note": 30,
      "start": 39.495,
      "duration": 0.1498,
      "velocity": 87,
      "chip": "ym2612"
    },
    {
      "channel": 2,
      "note": 53,
      "start": 39.4953,
      "duration": 0.0163,
      "velocity": 127,
      "chip": "ym2612"
    },
    {
      "channel": 2,
      "note": 54,
      "start": 39.5451,
      "duration": 0.0165,
      "velocity": 127,
      "chip": "ym2612"
    },
    {
      "channel": 5,
      "note": 53,
      "start": 39.5795,
      "duration": 0.1329,
      "velocity": 127,
      "chip": "ym2612"
    },
    {
      "channel": 2,
      "note": 53,
      "start": 39.5951,
      "duration": 0.0334,
      "velocity": 127,
      "chip": "ym2612"
    },
    {
      "channel": 1,
      "note": 30,
      "start": 39.6617,
      "duration": 0.1498,
      "velocity": 87,
      "chip": "ym2612"
    },
    {
      "channel": 2,
      "note": 57,
      "start": 39.662,
      "duration": 0.1329,
      "velocity": 127,
      "chip": "ym2612"
    },
    {
      "channel": 5,
      "note": 53,
      "start": 39.7459,
      "duration": 0.0164,
      "velocity": 127,
      "chip": "ym2612"
    },
    {
      "channel": 5,
      "note": 54,
      "start": 39.7959,
      "duration": 0.0166,
      "velocity": 127,
      "chip": "ym2612"
    },
    {
      "channel": 1,
      "note": 30,
      "start": 39.8286,
      "duration": 0.1498,
      "velocity": 87,
      "chip": "ym2612"
    },
    {
      "channel": 2,
      "note": 58,
      "start": 39.8289,
      "duration": 0.1327,
      "velocity": 127,
      "chip": "ym2612"
    },
    {
      "channel": 5,
      "note": 53,
      "start": 39.8457,
      "duration": 0.0334,
      "velocity": 127,
      "chip": "ym2612"
    },
    {
      "channel": 5,
      "note": 57,
      "start": 39.9126,
      "duration": 0.1331,
      "velocity": 127,
      "chip": "ym2612"
    },
    {
      "channel": 1,
      "note": 30,
      "start": 39.995,
      "duration": 0.1498,
      "velocity": 87,
      "chip": "ym2612"
    },
    {
      "channel": 2,
      "note": 65,
      "start": 39.9953,
      "duration": 0.1333,
      "velocity": 127,
      "chip": "ym2612"
    },
    {
      "channel": 4,
      "note": 102,
      "start": 39.9964,
      "duration": 0.1329,
      "velocity": 109,
      "chip": "ym2612"
    },
    {
      "channel": 5,
      "note": 58,
      "start": 40.0795,
      "duration": 0.1331,
      "velocity": 127,
      "chip": "ym2612"
    },
    {
      "channel": 1,
      "note": 30,
      "start": 40.1617,
      "duration": 0.1498,
      "velocity": 87,
      "chip": "ym2612"
    },
    {
      "channel": 2,
      "note": 63,
      "start": 40.162,
      "duration": 0.133,
      "velocity": 127,
      "chip": "ym2612"
    },
    {
      "channel": 4,
      "note": 102,
      "start": 40.1631,
      "duration": 0.016,
      "velocity": 109,
      "chip": "ym2612"
    },
    {
      "channel": 4,
      "note": 102,
      "start": 40.2125,
      "duration": 0.0167,
      "velocity": 109,
      "chip": "ym2612"
    },
    {
      "channel": 5,
      "note": 65,
      "start": 40.246,
      "duration": 0.1335,
      "velocity": 127,
      "chip": "ym2612"
    },
    {
      "channel": 4,
      "note": 102,
      "start": 40.2625,
      "duration": 0.0332,
      "velocity": 109,
      "chip": "ym2612"
    },
    {
      "channel": 1,
      "note": 30,
      "start": 40.3286,
      "duration": 0.1498,
      "velocity": 87,
      "chip": "ym2612"
    },
    {
      "channel": 2,
      "note": 61,
      "start": 40.3289,
      "duration": 0.1327,
      "velocity": 127,
      "chip": "ym2612"
    },
    {
      "channel": 4,
      "note": 102,
      "start": 40.3301,
      "duration": 0.0154,
      "velocity": 109,
      "chip": "ym2612"
    },
    {
      "channel": 4,
      "note": 102,
      "start": 40.3794,
      "duration": 0.0162,
      "velocity": 109,
      "chip": "ym2612"
    },
    {
      "channel": 5,
      "note": 63,
      "start": 40.4126,
      "duration": 0.1333,
      "velocity": 127,
      "chip": "ym2612"
    },
    {
      "channel": 4,
      "note": 102,
      "start": 40.4295,
      "duration": 0.0329,
      "velocity": 109,
      "chip": "ym2612"
    },
    {
      "channel": 1,
      "note": 30,
      "start": 40.495,
      "duration": 0.1498,
      "velocity": 87,
      "chip": "ym2612"
    },
    {
      "channel": 2,
      "note": 60,
      "start": 40.4953,
      "duration": 0.1333,
      "velocity": 127,
      "chip": "ym2612"
    },
    {
      "channel": 4,
      "note": 102,
      "start": 40.4966,
      "duration": 0.0156,
      "velocity": 109,
      "chip": "ym2612"
    },
    {
      "channel": 4,
      "note": 102,
      "start": 40.5458,
      "duration": 0.0165,
      "velocity": 109,
      "chip": "ym2612"
    },
    {
      "channel": 5,
      "note": 61,
      "start": 40.5795,
      "duration": 0.1328,
      "velocity": 127,
      "chip": "ym2612"
    },
    {
      "channel": 4,
      "note": 102,
      "start": 40.5959,
      "duration": 0.0334,
      "velocity": 109,
      "chip": "ym2612"
    },
    {
      "channel": 1,
      "note": 30,
      "start": 40.6617,
      "duration": 0.1498,
      "velocity": 87,
      "chip": "ym2612"
    },
    {
      "channel": 2,
      "note": 58,
      "start": 40.662,
      "duration": 0.133,
      "velocity": 127,
      "chip": "ym2612"
    },
    {
      "channel": 4,
      "note": 102,
      "start": 40.6631,
      "duration": 0.1326,
      "velocity": 109,
      "chip": "ym2612"
    },
    {
      "channel": 5,
      "note": 60,
      "start": 40.7459,
      "duration": 0.1333,
      "velocity": 127,
      "chip": "ym2612"
    },
    {
      "channel": 1,
      "note": 37,
      "start": 40.8285,
      "duration": 0.1499,
      "velocity": 87,
      "chip": "ym2612"
    },
    {
      "channel": 2,
      "note": 57,
      "start": 40.8288,
      "duration": 0.1329,
      "velocity": 127,
      "chip": "ym2612"
    },
    {
      "channel": 5,
      "note": 58,
      "start": 40.9126,
      "duration": 0.1329,
      "velocity": 127,
      "chip": "ym2612"
    },
    {
      "channel": 0,
      "note": 32,
      "start": 40.9948,
      "duration": 7.9499,
      "velocity": 117,
      "chip": "ym2612"
    },
    {
      "channel": 1,
      "note": 34,
      "start": 40.9951,
      "duration": 0.1497,
      "velocity": 87,
      "chip": "ym2612"
    },
    {
      "channel": 2,
      "note": 56,
      "start": 40.9954,
      "duration": 0.9662,
      "velocity": 127,
      "chip": "ym2612"
    },
    {
      "channel": 4,
      "note": 102,
      "start": 40.9965,
      "duration": 0.1328,
      "velocity": 109,
      "chip": "ym2612"
    },
    {
      "channel": 5,
      "note": 57,
      "start": 41.0795,
      "duration": 0.1328,
      "velocity": 127,
      "chip": "ym2612"
    },
    {
      "channel": 1,
      "note": 34,
      "start": 41.1617,
      "duration": 0.1498,
      "velocity": 87,
      "chip": "ym2612"
    },
    {
      "channel": 3,
      "note": 32,
      "start": 41.1628,
      "duration": 7.9493,
      "velocity": 117,
      "chip": "ym2612"
    },
    {
      "channel": 4,
      "note": 102,
      "start": 41.1631,
      "duration": 0.0492,
      "velocity": 109,
      "chip": "ym2612"
    },
    {
      "channel": 4,
      "note": 102,
      "start": 41.2459,
      "duration": 0.0498,
      "velocity": 109,
      "chip": "ym2612"
    },
    {
      "channel": 5,
      "note": 56,
      "start": 41.2461,
      "duration": 0.9662,
      "velocity": 127,
      "chip": "ym2612"
    },
    {
      "channel": 1,
      "note": 30,
      "start": 41.3286,
      "duration": 0.1498,
      "velocity": 87,
      "chip": "ym2612"
    },
    {
      "channel": 4,
      "note": 102,
      "start": 41.33,
      "duration": 0.1324,
      "velocity": 109,
      "chip": "ym2612"
    },
    {
      "channel": 1,
      "note": 30,
      "start": 41.495,
      "duration": 0.1498,
      "velocity": 87,
      "chip": "ym2612"
    },
    {
      "channel": 1,
      "note": 30,
      "start": 41.6617,
      "duration": 0.1498,
      "velocity": 87,
      "chip": "ym2612"
    },
    {
      "channel": 1,
      "note": 30,
      "start": 41.8286,
      "duration": 0.1498,
      "velocity": 87,
      "chip": "ym2612"
    },
    {
      "channel": 1,
      "note": 30,
      "start": 41.995,
      "duration": 0.1498,
      "velocity": 87,
      "chip": "ym2612"
    },
    {
      "channel": 4,
      "note": 102,
      "start": 41.9963,
      "duration": 0.1329,
      "velocity": 109,
      "chip": "ym2612"
    },
    {
      "channel": 1,
      "note": 30,
      "start": 42.1617,
      "duration": 0.1498,
      "velocity": 87,
      "chip": "ym2612"
    },
    {
      "channel": 2,
      "note": 59,
      "start": 42.1621,
      "duration": 0.1329,
      "velocity": 127,
      "chip": "ym2612"
    },
    {
      "channel": 4,
      "note": 102,
      "start": 42.1632,
      "duration": 0.0491,
      "velocity": 109,
      "chip": "ym2612"
    },
    {
      "channel": 4,
      "note": 102,
      "start": 42.2459,
      "duration": 0.0498,
      "velocity": 109,
      "chip": "ym2612"
    },
    {
      "channel": 1,
      "note": 30,
      "start": 42.3286,
      "duration": 0.1498,
      "velocity": 87,
      "chip": "ym2612"
    },
    {
      "channel": 2,
      "note": 51,
      "start": 42.3289,
      "duration": 0.1327,
      "velocity": 127,
      "chip": "ym2612"
    },
    {
      "channel": 4,
      "note": 102,
      "start": 42.33,
      "duration": 0.1323,
      "velocity": 109,
      "chip": "ym2612"
    },
    {
      "channel": 5,
      "note": 59,
      "start": 42.4127,
      "duration": 0.133,
      "velocity": 127,
      "chip": "ym2612"
    },
    {
      "channel": 1,
      "note": 30,
      "start": 42.495,
      "duration": 0.1498,
      "velocity": 87,
      "chip": "ym2612"
    },
    {
      "channel": 2,
      "note": 61,
      "start": 42.4954,
      "duration": 0.1332,
      "velocity": 127,
      "chip": "ym2612"
    },
    {
      "channel": 5,
      "note": 51,
      "start": 42.5795,
      "duration": 0.1328,
      "velocity": 127,
      "chip": "ym2612"
    },
    {
      "channel": 1,
      "note": 30,
      "start": 42.6617,
      "duration": 0.1498,
      "velocity": 87,
      "chip": "ym2612"
    },
    {
      "channel": 2,
      "note": 52,
      "start": 42.662,
      "duration": 0.1329,
      "velocity": 127,
      "chip": "ym2612"
    },
    {
      "channel": 5,
      "note": 61,
      "start": 42.7459,
      "duration": 0.1335,
      "velocity": 127,
      "chip": "ym2612"
    },
    {
      "channel": 1,
      "note": 37,
      "start": 42.8285,
      "duration": 0.1499,
      "velocity": 87,
      "chip": "ym2612"
    },
    {
      "channel": 2,
      "note": 63,
      "start": 42.8288,
      "duration": 0.0161,
      "velocity": 127,
      "chip": "ym2612"
    },
    {
      "channel": 2,
      "note": 64,
      "start": 42.8787,
      "duration": 0.0163,
      "velocity": 127,
      "chip": "ym2612"
    },
    {
      "channel": 5,
      "note": 52,
      "start": 42.9126,
      "duration": 0.1331,
      "velocity": 127,
      "chip": "ym2612"
    },
    {
      "channel": 2,
      "note": 63,
      "start": 42.9287,
      "duration": 0.0329,
      "velocity": 127,
      "chip": "ym2612"
    },
    {
      "channel": 1,
      "note": 34,
      "start": 42.9951,
      "duration": 0.1497,
      "velocity": 87,
      "chip": "ym2612"
    },
    {
      "channel": 2,
      "note": 80,
      "start": 42.9955,
      "duration": 0.133,
      "velocity": 127,
      "chip": "ym2612"
    },
    {
      "channel": 4,
      "note": 102,
      "start": 42.9966,
      "duration": 0.1327,
      "velocity": 109,
      "chip": "ym2612"
    },
    {
      "channel": 5,
      "note": 63,
      "start": 43.0795,
      "duration": 0.0162,
      "velocity": 127,
      "chip": "ym2612"
    },
    {
      "channel": 5,
      "note": 64,
      "start": 43.1295,
      "duration": 0.0164,
      "velocity": 127,
      "chip": "ym2612"
    },
    {
      "channel": 1,
      "note": 34,
      "start": 43.1617,
      "duration": 0.1498,
      "velocity": 87,
      "chip": "ym2612"
    },
    {
      "channel": 2,
      "note": 68,
      "start": 43.162,
      "duration": 0.1329,
      "velocity": 127,
      "chip": "ym2612"
    },
    {
      "channel": 4,
      "note": 102,
      "start": 43.1632,
      "duration": 0.049,
      "velocity": 109,
      "chip": "ym2612"
    },
    {
      "channel": 5,
      "note": 63,
      "start": 43.1793,
      "duration": 0.0331,
      "velocity": 127,
      "chip": "ym2612"
    },
    {
      "channel": 4,
      "note": 102,
      "start": 43.2459,
      "duration": 0.0498,
      "velocity": 109,
      "chip": "ym2612"
    },
    {
      "channel": 5,
      "note": 80,
      "start": 43.2462,
      "duration": 0.1329,
      "velocity": 127,
      "chip": "ym2612"
    },
    {
      "channel": 1,
      "note": 30,
      "start": 43.3286,
      "duration": 0.1498,
      "velocity": 87,
      "chip": "ym2612"
    },
    {
      "channel": 2,
      "note": 70,
      "start": 43.3289,
      "duration": 0.1328,
      "velocity": 127,
      "chip": "ym2612"
    },
    {
      "channel": 4,
      "note": 102,
      "start": 43.33,
      "duration": 0.1323,
      "velocity": 109,
      "chip": "ym2612"
    },
    {
      "channel": 5,
      "note": 68,
      "start": 43.4126,
      "duration": 0.133,
      "velocity": 127,
      "chip": "ym2612"
    },
    {
      "channel": 1,
      "note": 30,
      "start": 43.495,
      "duration": 0.1498,
      "velocity": 87,
      "chip": "ym2612"
    },
    {
      "channel": 2,
      "note": 71,
      "start": 43.4953,
      "duration": 0.1333,
      "velocity": 127,
      "chip": "ym2612"
    },
    {
      "channel": 5,
      "note": 70,
      "start": 43.5795,
      "duration": 0.1328,
      "velocity": 127,
      "chip": "ym2612"
    },
    {
      "channel": 1,
      "note": 30,
      "start": 43.6617,
      "duration": 0.1498,
      "velocity": 87,
      "chip": "ym2612"
    },
    {
      "channel": 2,
      "note": 70,
      "start": 43.662,
      "duration": 0.133,
      "velocity": 127,
      "chip": "ym2612"
    },
    {
      "channel": 5,
      "note": 71,
      "start": 43.7459,
      "duration": 0.1333,
      "velocity": 127,
      "chip": "ym2612"
    },
    {
      "channel": 1,
      "note": 30,
      "start": 43.8286,
      "duration": 0.1498,
      "velocity": 87,
      "chip": "ym2612"
    },
    {
      "channel": 2,
      "note": 68,
      "start": 43.8289,
      "duration": 0.1328,
      "velocity": 127,
      "chip": "ym2612"
    },
    {
      "channel": 5,
      "note": 70,
      "start": 43.9126,
      "duration": 0.1332,
      "velocity": 127,
      "chip": "ym2612"
    },
    {
      "channel": 1,
      "note": 30,
      "start": 43.995,
      "duration": 0.1498,
      "velocity": 87,
      "chip": "ym2612"
    },
    {
      "channel": 4,
      "note": 102,
      "start": 43.9963,
      "duration": 0.1329,
      "velocity": 109,
      "chip": "ym2612"
    },
    {
      "channel": 5,
      "note": 68,
      "start": 44.0795,
      "duration": 0.1331,
      "velocity": 127,
      "chip": "ym2612"
    },
    {
      "channel": 1,
      "note": 30,
      "start": 44.1617,
      "duration": 0.1498,
      "velocity": 87,
      "chip": "ym2612"
    },
    {
      "channel": 2,
      "note": 56,
      "start": 44.1621,
      "duration": 0.1329,
      "velocity": 127,
      "chip": "ym2612"
    },
    {
      "channel": 4,
      "note": 102,
      "start": 44.1632,
      "duration": 0.0159,
      "velocity": 109,
      "chip": "ym2612"
    },
    {
      "channel": 4,
      "note": 102,
      "start": 44.2125,
      "duration": 0.0167,
      "velocity": 109,
      "chip": "ym2612"
    },
    {
      "channel": 4,
      "note": 102,
      "start": 44.2625,
      "duration": 0.0332,
      "velocity": 109,
      "chip": "ym2612"
    },
    {
      "channel": 1,
      "note": 30,
      "start": 44.3286,
      "duration": 0.1498,
      "velocity": 87,
      "chip": "ym2612"
    },
    {
      "channel": 2,
      "note": 56,
      "start": 44.3289,
      "duration": 0.1328,
      "velocity": 127,
      "chip": "ym2612"
    },
    {
      "channel": 4,
      "note": 102,
      "start": 44.3301,
      "duration": 0.0154,
      "velocity": 109,
      "chip": "ym2612"
    },
    {
      "channel": 4,
      "note": 102,
      "start": 44.3794,
      "duration": 0.0162,
      "velocity": 109,
      "chip": "ym2612"
    },
    {
      "channel": 5,
      "note": 56,
      "start": 44.4127,
      "duration": 0.1333,
      "velocity": 127,
      "chip": "ym2612"
    },
    {
      "channel": 4,
      "note": 102,
      "start": 44.4295,
      "duration": 0.0329,
      "velocity": 109,
      "chip": "ym2612"
    },
    {
      "channel": 1,
      "note": 30,
      "start": 44.495,
      "duration": 0.1498,
      "velocity": 87,
      "chip": "ym2612"
    },
    {
      "channel": 4,
      "note": 102,
      "start": 44.4965,
      "duration": 0.0158,
      "velocity": 109,
      "chip": "ym2612"
    },
    {
      "channel": 4,
      "note": 102,
      "start": 44.5459,
      "duration": 0.0165,
      "velocity": 109,
      "chip": "ym2612"
    },
    {
      "channel": 5,
      "note": 56,
      "start": 44.5795,
      "duration": 0.1328,
      "velocity": 127,
      "chip": "ym2612"
    },
    {
      "channel": 4,
      "note": 102,
      "start": 44.5959,
      "duration": 0.0334,
      "velocity": 109,
      "chip": "ym2612"
    },
    {
      "channel": 1,
      "note": 30,
      "start": 44.6617,
      "duration": 0.1498,
      "velocity": 87,
      "chip": "ym2612"
    },
    {
      "channel": 2,
      "note": 56,
      "start": 44.662,
      "duration": 0.133,
      "velocity": 127,
      "chip": "ym2612"
    },
    {
      "channel": 4,
      "note": 102,
      "start": 44.6631,
      "duration": 0.1326,
      "velocity": 109,
      "chip": "ym2612"
    },
    {
      "channel": 1,
      "note": 37,
      "start": 44.8285,
      "duration": 0.1499,
      "velocity": 87,
      "chip": "ym2612"
    },
    {
      "channel": 2,
      "note": 56,
      "start": 44.8288,
      "duration": 0.1328,
      "velocity": 127,
      "chip": "ym2612"
    },
    {
      "channel": 5,
      "note": 56,
      "start": 44.9126,
      "duration": 0.1331,
      "velocity": 127,
      "chip": "ym2612"
    },
    {
      "channel": 1,
      "note": 34,
      "start": 44.9951,
      "duration": 0.1497,
      "velocity": 87,
      "chip": "ym2612"
    },
    {
      "channel": 2,
      "note": 51,
      "start": 44.9955,
      "duration": 0.7994,
      "velocity": 127,
      "chip": "ym2612"
    },
    {
      "channel": 4,
      "note": 102,
      "start": 44.9966,
      "duration": 0.1326,
      "velocity": 109,
      "chip": "ym2612"
    },
    {
      "channel": 5,
      "note": 56,
      "start": 45.0795,
      "duration": 0.1329,
      "velocity": 127,
      "chip": "ym2612"
    },
    {
      "channel": 1,
      "note": 34,
      "start": 45.1617,
      "duration": 0.1498,
      "velocity": 87,
      "chip": "ym2612"
    },
    {
      "channel": 4,
      "note": 102,
      "start": 45.1631,
      "duration": 0.0492,
      "velocity": 109,
      "chip": "ym2612"
    },
    {
      "channel": 4,
      "note": 102,
      "start": 45.2459,
      "duration": 0.0498,
      "velocity": 109,
      "chip": "ym2612"
    },
    {
      "channel": 5,
      "note": 51,
      "start": 45.2462,
      "duration": 0.7994,
      "velocity": 127,
      "chip": "ym2612"
    },
    {
      "channel": 1,
      "note": 30,
      "start": 45.3286,
      "duration": 0.1498,
      "velocity": 87,
      "chip": "ym2612"
    },
    {
      "channel": 4,
      "note": 102,
      "start": 45.3299,
      "duration": 0.1324,
      "velocity": 109,
      "chip": "ym2612"
    },
    {
      "channel": 1,
      "note": 30,
      "start": 45.495,
      "duration": 0.1498,
      "velocity": 87,
      "chip": "ym2612"
    },
    {
      "channel": 1,
      "note": 30,
      "start": 45.6617,
      "duration": 0.1498,
      "velocity": 87,
      "chip": "ym2612"
    },
    {
      "channel": 1,
      "note": 30,
      "start": 45.8286,
      "duration": 0.1498,
      "velocity": 87,
      "chip": "ym2612"
    },
    {
      "channel": 1,
      "note": 30,
      "start": 45.995,
      "duration": 0.1498,
      "velocity": 87,
      "chip": "ym2612"
    },
    {
      "channel": 2,
      "note": 51,
      "start": 45.9953,
      "duration": 0.1333,
      "velocity": 127,
      "chip": "ym2612"
    },
    {
      "channel": 4,
      "note": 102,
      "start": 45.9964,
      "duration": 0.1329,
      "velocity": 109,
      "chip": "ym2612"
    },
    {
      "channel": 1,
      "note": 30,
      "start": 46.1617,
      "duration": 0.1498,
      "velocity": 87,
      "chip": "ym2612"
    },
    {
      "channel": 2,
      "note": 51,
      "start": 46.162,
      "duration": 0.133,
      "velocity": 127,
      "chip": "ym2612"
    },
    {
      "channel": 4,
      "note": 102,
      "start": 46.1631,
      "duration": 0.0492,
      "velocity": 109,
      "chip": "ym2612"
    },
    {
      "channel": 4,
      "note": 102,
      "start": 46.2459,
      "duration": 0.0498,
      "velocity": 109,
      "chip": "ym2612"
    },
    {
      "channel": 5,
      "note": 51,
      "start": 46.2461,
      "duration": 0.1331,
      "velocity": 127,
      "chip": "ym2612"
    },
    {
      "channel": 1,
      "note": 30,
      "start": 46.3286,
      "duration": 0.1498,
      "velocity": 87,
      "chip": "ym2612"
    },
    {
      "channel": 2,
      "note": 51,
      "start": 46.3289,
      "duration": 0.1161,
      "velocity": 127,
      "chip": "ym2612"
    },
    {
      "channel": 4,
      "note": 102,
      "start": 46.33,
      "duration": 0.1323,
      "velocity": 109,
      "chip": "ym2612"
    },
    {
      "channel": 5,
      "note": 51,
      "start": 46.4126,
      "duration": 0.133,
      "velocity": 127,
      "chip": "ym2612"
    },
    {
      "channel": 2,
      "note": 51,
      "start": 46.4788,
      "duration": 0.0998,
      "velocity": 127,
      "chip": "ym2612"
    },
    {
      "channel": 1,
      "note": 30,
      "start": 46.495,
      "duration": 0.1498,
      "velocity": 87,
      "chip": "ym2612"
    },
    {
      "channel": 5,
      "note": 51,
      "start": 46.5795,
      "duration": 0.1162,
      "velocity": 127,
      "chip": "ym2612"
    },
    {
      "channel": 2,
      "note": 51,
      "start": 46.6118,
      "duration": 0.0832,
      "velocity": 127,
      "chip": "ym2612"
    },
    {
      "channel": 1,
      "note": 30,
      "start": 46.6617,
      "duration": 0.1498,
      "velocity": 87,
      "chip": "ym2612"
    },
    {
      "channel": 2,
      "note": 51,
      "start": 46.7287,
      "duration": 0.0663,
      "velocity": 127,
      "chip": "ym2612"
    },
    {
      "channel": 5,
      "note": 51,
      "start": 46.7296,
      "duration": 0.1002,
      "velocity": 127,
      "chip": "ym2612"
    },
    {
      "channel": 1,
      "note": 37,
      "start": 46.8285,
      "duration": 0.1499,
      "velocity": 87,
      "chip": "ym2612"
    },
    {
      "channel": 2,
      "note": 51,
      "start": 46.8288,
      "duration": 0.0498,
      "velocity": 127,
      "chip": "ym2612"
    },
    {
      "channel": 5,
      "note": 51,
      "start": 46.8625,
      "duration": 0.0831,
      "velocity": 127,
      "chip": "ym2612"
    },
    {
      "channel": 2,
      "note": 51,
      "start": 46.9118,
      "duration": 0.0499,
      "velocity": 127,
      "chip": "ym2612"
    },
    {
      "channel": 5,
      "note": 51,
      "start": 46.9795,
      "duration": 0.0662,
      "velocity": 127,
      "chip": "ym2612"
    },
    {
      "channel": 1,
      "note": 34,
      "start": 46.9951,
      "duration": 0.1497,
      "velocity": 87,
      "chip": "ym2612"
    },
    {
      "channel": 2,
      "note": 56,
      "start": 46.9955,
      "duration": 0.133,
      "velocity": 127,
      "chip": "ym2612"
    },
    {
      "channel": 4,
      "note": 102,
      "start": 46.9966,
      "duration": 0.1327,
      "velocity": 109,
      "chip": "ym2612"
    },
    {
      "channel": 5,
      "note": 51,
      "start": 47.0795,
      "duration": 0.0499,
      "velocity": 127,
      "chip": "ym2612"
    },
    {
      "channel": 1,
      "note": 34,
      "start": 47.1617,
      "duration": 0.1498,
      "velocity": 87,
      "chip": "ym2612"
    },
    {
      "channel": 2,
      "note": 63,
      "start": 47.162,
      "duration": 0.133,
      "velocity": 127,
      "chip": "ym2612"
    },
    {
      "channel": 4,
      "note": 102,
      "start": 47.1632,
      "duration": 0.049,
      "velocity": 109,
      "chip": "ym2612"
    },
    {
      "channel": 5,
      "note": 51,
      "start": 47.1635,
      "duration": 0.0489,
      "velocity": 127,
      "chip": "ym2612"
    },
    {
      "channel": 4,
      "note": 102,
      "start": 47.2459,
      "duration": 0.0498,
      "velocity": 109,
      "chip": "ym2612"
    },
    {
      "channel": 5,
      "note": 56,
      "start": 47.2462,
      "duration": 0.133,
      "velocity": 127,
      "chip": "ym2612"
    },
    {
      "channel": 1,
      "note": 30,
      "start": 47.3286,
      "duration": 0.1498,
      "velocity": 87,
      "chip": "ym2612"
    },
    {
      "channel": 2,
      "note": 68,
      "start": 47.329,
      "duration": 0.1326,
      "velocity": 127,
      "chip": "ym2612"
    },
    {
      "channel": 4,
      "note": 102,
      "start": 47.3301,
      "duration": 0.1322,
      "velocity": 109,
      "chip": "ym2612"
    },
    {
      "channel": 5,
      "note": 63,
      "start": 47.4126,
      "duration": 0.1331,
      "velocity": 127,
      "chip": "ym2612"
    },
    {
      "channel": 1,
      "note": 30,
      "start": 47.495,
      "duration": 0.1498,
      "velocity": 87,
      "chip": "ym2612"
    },
    {
      "channel": 2,
      "note": 75,
      "start": 47.4953,
      "duration": 0.1333,
      "velocity": 127,
      "chip": "ym2612"
    },
    {
      "channel": 5,
      "note": 68,
      "start": 47.5796,
      "duration": 0.1329,
      "velocity": 127,
      "chip": "ym2612"
    },
    {
      "channel": 1,
      "note": 30,
      "start": 47.6617,
      "duration": 0.1498,
      "velocity": 87,
      "chip": "ym2612"
    },
    {
      "channel": 2,
      "note": 79,
      "start": 47.6627,
      "duration": 0.0158,
      "velocity": 127,
      "chip": "ym2612"
    },
    {
      "channel": 2,
      "note": 80,
      "start": 47.7118,
      "duration": 0.0168,
      "velocity": 127,
      "chip": "ym2612"
    },
    {
      "channel": 5,
      "note": 75,
      "start": 47.7459,
      "duration": 0.1335,
      "velocity": 127,
      "chip": "ym2612"
    },
    {
      "channel": 2,
      "note": 79,
      "start": 47.7618,
      "duration": 0.1999,
      "velocity": 127,
      "chip": "ym2612"
    },
    {
      "channel": 1,
      "note": 30,
      "start": 47.8286,
      "duration": 0.1498,
      "velocity": 87,
      "chip": "ym2612"
    },
    {
      "channel": 5,
      "note": 79,
      "start": 47.9133,
      "duration": 0.016,
      "velocity": 127,
      "chip": "ym2612"
    },
    {
      "channel": 5,
      "note": 80,
      "start": 47.9626,
      "duration": 0.0169,
      "velocity": 127,
      "chip": "ym2612"
    },
    {
      "channel": 1,
      "note": 30,
      "start": 47.995,
      "duration": 0.1498,
      "velocity": 87,
      "chip": "ym2612"
    },
    {
      "channel": 2,
      "note": 87,
      "start": 47.9953,
      "duration": 0.0163,
      "velocity": 127,
      "chip": "ym2612"
    },
    {
      "channel": 4,
      "note": 102,
      "start": 47.9964,
      "duration": 0.1328,
      "velocity": 109,
      "chip": "ym2612"
    },
    {
      "channel": 5,
      "note": 79,
      "start": 48.0124,
      "duration": 0.2002,
      "velocity": 127,
      "chip": "ym2612"
    },
    {
      "channel": 2,
      "note": 88,
      "start": 48.0451,
      "duration": 0.0165,
      "velocity": 127,
      "chip": "ym2612"
    },
    {
      "channel": 2,
      "note": 87,
      "start": 48.0951,
      "duration": 0.1999,
      "velocity": 127,
      "chip": "ym2612"
    },
    {
      "channel": 1,
      "note": 30,
      "start": 48.1617,
      "duration": 0.1498,
      "velocity": 87,
      "chip": "ym2612"
    },
    {
      "channel": 4,
      "note": 102,
      "start": 48.1629,
      "duration": 0.0163,
      "velocity": 109,
      "chip": "ym2612"
    },
    {
      "channel": 4,
      "note": 102,
      "start": 48.2126,
      "duration": 0.0167,
      "velocity": 109,
      "chip": "ym2612"
    },
    {
      "channel": 5,
      "note": 87,
      "start": 48.246,
      "duration": 0.0167,
      "velocity": 127,
      "chip": "ym2612"
    },
    {
      "channel": 4,
      "note": 102,
      "start": 48.2625,
      "duration": 0.0332,
      "velocity": 109,
      "chip": "ym2612"
    },
    {
      "channel": 5,
      "note": 88,
      "start": 48.2959,
      "duration": 0.0166,
      "velocity": 127,
      "chip": "ym2612"
    },
    {
      "channel": 1,
      "note": 30,
      "start": 48.3286,
      "duration": 0.1498,
      "velocity": 87,
      "chip": "ym2612"
    },
    {
      "channel": 2,
      "note": 91,
      "start": 48.329,
      "duration": 0.0159,
      "velocity": 127,
      "chip": "ym2612"
    },
    {
      "channel": 4,
      "note": 102,
      "start": 48.3303,
      "duration": 0.0153,
      "velocity": 109,
      "chip": "ym2612"
    },
    {
      "channel": 5,
      "note": 87,
      "start": 48.3458,
      "duration": 0.2002,
      "velocity": 127,
      "chip": "ym2612"
    },
    {
      "channel": 2,
      "note": 92,
      "start": 48.3787,
      "duration": 0.0163,
      "velocity": 127,
      "chip": "ym2612"
    },
    {
      "channel": 4,
      "note": 102,
      "start": 48.3796,
      "duration": 0.016,
      "velocity": 109,
      "chip": "ym2612"
    },
    {
      "channel": 2,
      "note": 91,
      "start": 48.4287,
      "duration": 0.1999,
      "velocity": 127,
      "chip": "ym2612"
    },
    {
      "channel": 4,
      "note": 102,
      "start": 48.4296,
      "duration": 0.0327,
      "velocity": 109,
      "chip": "ym2612"
    },
    {
      "channel": 1,
      "note": 30,
      "start": 48.495,
      "duration": 0.1498,
      "velocity": 87,
      "chip": "ym2612"
    },
    {
      "channel": 4,
      "note": 102,
      "start": 48.4964,
      "duration": 0.0159,
      "velocity": 109,
      "chip": "ym2612"
    },
    {
      "channel": 4,
      "note": 102,
      "start": 48.5459,
      "duration": 0.0165,
      "velocity": 109,
      "chip": "ym2612"
    },
    {
      "channel": 5,
      "note": 91,
      "start": 48.5796,
      "duration": 0.0163,
      "velocity": 127,
      "chip": "ym2612"
    },
    {
      "channel": 4,
      "note": 102,
      "start": 48.5959,
      "duration": 0.0334,
      "velocity": 109,
      "chip": "ym2612"
    },
    {
      "channel": 5,
      "note": 92,
      "start": 48.6295,
      "duration": 0.0163,
      "velocity": 127,
      "chip": "ym2612"
    },
    {
      "channel": 1,
      "note": 30,
      "start": 48.6617,
      "duration": 0.1498,
      "velocity": 87,
      "chip": "ym2612"
    },
    {
      "channel": 2,
      "note": 104,
      "start": 48.662,
      "duration": 0.2998,
      "velocity": 127,
      "chip": "ym2612"
    },
    {
      "channel": 4,
      "note": 102,
      "start": 48.6632,
      "duration": 0.1327,
      "velocity": 109,
      "chip": "ym2612"
    },
    {
      "channel": 5,
      "note": 91,
      "start": 48.6793,
      "duration": 0.2001,
      "velocity": 127,
      "chip": "ym2612"
    },
    {
      "channel": 1,
      "note": 37,
      "start": 48.8285,
      "duration": 0.1499,
      "velocity": 87,
      "chip": "ym2612"
    },
    {
      "channel": 5,
      "note": 104,
      "start": 48.9127,
      "duration": 0.2998,
      "velocity": 127,
      "chip": "ym2612"
    },
    {
      "channel": 0,
      "note": 34,
      "start": 48.9949,
      "duration": 0.9787,
      "velocity": 117,
      "chip": "ym2612"
    },
    {
      "channel": 1,
      "note": 34,
      "start": 48.9951,
      "duration": 0.1497,
      "velocity": 87,
      "chip": "ym2612"
    },
    {
      "channel": 2,
      "note": 70,
      "start": 48.9955,
      "duration": 0.7994,
      "velocity": 127,
      "chip": "ym2612"
    },
    {
      "channel": 4,
      "note": 102,
      "start": 48.9967,
      "duration": 0.1326,
      "velocity": 109,
      "chip": "ym2612"
    },
    {
      "channel": 1,
      "note": 34,
      "start": 49.1617,
      "duration": 0.1498,
      "velocity": 87,
      "chip": "ym2612"
    },
    {
      "channel": 3,
      "note": 34,
      "start": 49.1628,
      "duration": 0.8108,
      "velocity": 117,
      "chip": "ym2612"
    },
    {
      "channel": 4,
      "note": 102,
      "start": 49.1632,
      "duration": 0.0491,
      "velocity": 109,
      "chip": "ym2612"
    },
    {
      "channel": 4,
      "note": 102,
      "start": 49.2459,
      "duration": 0.0498,
      "velocity": 109,
      "chip": "ym2612"
    },
    {
      "channel": 5,
      "note": 70,
      "start": 49.2463,
      "duration": 0.7273,
      "velocity": 127,
      "chip": "ym2612"
    },
    {
      "channel": 1,
      "note": 30,
      "start": 49.3286,
      "duration": 0.1498,
      "velocity": 87,
      "chip": "ym2612"
    },
    {
      "channel": 4,
      "note": 102,
      "start": 49.33,
      "duration": 0.1324,
      "velocity": 109,
      "chip": "ym2612"
    },
    {
      "channel": 1,
      "note": 30,
      "start": 49.495,
      "duration": 0.1498,
      "velocity": 87,
      "chip": "ym2612"
    },
    {
      "channel": 1,
      "note": 30,
      "start": 49.6617,
      "duration": 0.1498,
      "velocity": 87,
      "chip": "ym2612"
    },
    {
      "channel": 1,
      "note": 30,
      "start": 49.8286,
      "duration": 0.145,
      "velocity": 87,
      "chip": "ym2612"
    }
  ]
}