{
  "track_name": "09 - Field Map- Fall",
  "duration_sec": 58.384,
  "sample_rate": 44100,
  "note_count": 519,
  "unique_pitches": 32,
  "pitch_range": 38,
  "avg_note_duration": 0.3728,
  "reconstruction_stats": {
    "notes_reconstructed": 519,
    "keyon_events": 519,
    "keyoff_events": 515,
    "orphan_keyons": 4,
    "unique_pitches": 32,
    "pitch_range": 38,
    "avg_duration_sec": 0.3728
  },
  "metadata": {
    "source": "T\\Taikou Risshiden\\09 - Field Map- Fall.vgm"
  },
  "notes": [
    {
      "channel": 0,
      "note": 76,
      "start": 0.0174,
      "duration": 2.6457,
      "velocity": 77,
      "chip": "ym2612"
    },
    {
      "channel": 1,
      "note": 78,
      "start": 0.0215,
      "duration": 0.2127,
      "velocity": 77,
      "chip": "ym2612"
    },
    {
      "channel": 2,
      "note": 57,
      "start": 0.0254,
      "duration": 0.4086,
      "velocity": 88,
      "chip": "ym2612"
    },
    {
      "channel": 3,
      "note": 66,
      "start": 0.0298,
      "duration": 2.188,
      "velocity": 92,
      "chip": "ym2612"
    },
    {
      "channel": 1,
      "note": 79,
      "start": 0.247,
      "duration": 0.2037,
      "velocity": 77,
      "chip": "ym2612"
    },
    {
      "channel": 1,
      "note": 83,
      "start": 0.4637,
      "duration": 0.2162,
      "velocity": 77,
      "chip": "ym2612"
    },
    {
      "channel": 1,
      "note": 86,
      "start": 0.6848,
      "duration": 0.2117,
      "velocity": 77,
      "chip": "ym2612"
    },
    {
      "channel": 1,
      "note": 90,
      "start": 0.9012,
      "duration": 0.212,
      "velocity": 77,
      "chip": "ym2612"
    },
    {
      "channel": 1,
      "note": 86,
      "start": 1.1303,
      "duration": 0.2036,
      "velocity": 77,
      "chip": "ym2612"
    },
    {
      "channel": 2,
      "note": 71,
      "start": 1.3473,
      "duration": 0.0993,
      "velocity": 88,
      "chip": "ym2612"
    },
    {
      "channel": 2,
      "note": 67,
      "start": 1.4513,
      "duration": 0.0997,
      "velocity": 88,
      "chip": "ym2612"
    },
    {
      "channel": 2,
      "note": 66,
      "start": 1.5637,
      "duration": 0.1037,
      "velocity": 88,
      "chip": "ym2612"
    },
    {
      "channel": 2,
      "note": 62,
      "start": 1.6803,
      "duration": 0.0996,
      "velocity": 88,
      "chip": "ym2612"
    },
    {
      "channel": 2,
      "note": 67,
      "start": 1.7848,
      "duration": 0.0995,
      "velocity": 88,
      "chip": "ym2612"
    },
    {
      "channel": 2,
      "note": 66,
      "start": 2.0012,
      "duration": 0.0995,
      "velocity": 88,
      "chip": "ym2612"
    },
    {
      "channel": 2,
      "note": 62,
      "start": 2.1137,
      "duration": 0.1039,
      "velocity": 88,
      "chip": "ym2612"
    },
    {
      "channel": 2,
      "note": 59,
      "start": 2.2303,
      "duration": 0.0996,
      "velocity": 88,
      "chip": "ym2612"
    },
    {
      "channel": 3,
      "note": 74,
      "start": 2.2311,
      "duration": 0.4323,
      "velocity": 92,
      "chip": "ym2612"
    },
    {
      "channel": 2,
      "note": 66,
      "start": 2.3346,
      "duration": 0.0994,
      "velocity": 88,
      "chip": "ym2612"
    },
    {
      "channel": 2,
      "note": 62,
      "start": 2.447,
      "duration": 0.0996,
      "velocity": 88,
      "chip": "ym2612"
    },
    {
      "channel": 0,
      "note": 76,
      "start": 2.6678,
      "duration": 2.6328,
      "velocity": 77,
      "chip": "ym2612"
    },
    {
      "channel": 1,
      "note": 78,
      "start": 2.6685,
      "duration": 0.2114,
      "velocity": 77,
      "chip": "ym2612"
    },
    {
      "channel": 2,
      "note": 55,
      "start": 2.6692,
      "duration": 0.4107,
      "velocity": 88,
      "chip": "ym2612"
    },
    {
      "channel": 3,
      "note": 71,
      "start": 2.67,
      "duration": 2.631,
      "velocity": 92,
      "chip": "ym2612"
    },
    {
      "channel": 1,
      "note": 79,
      "start": 2.8848,
      "duration": 0.2117,
      "velocity": 77,
      "chip": "ym2612"
    },
    {
      "channel": 1,
      "note": 83,
      "start": 3.1012,
      "duration": 0.2161,
      "velocity": 77,
      "chip": "ym2612"
    },
    {
      "channel": 1,
      "note": 86,
      "start": 3.3303,
      "duration": 0.2036,
      "velocity": 77,
      "chip": "ym2612"
    },
    {
      "channel": 1,
      "note": 90,
      "start": 3.547,
      "duration": 0.2162,
      "velocity": 77,
      "chip": "ym2612"
    },
    {
      "channel": 1,
      "note": 86,
      "start": 3.7679,
      "duration": 0.212,
      "velocity": 77,
      "chip": "ym2612"
    },
    {
      "channel": 2,
      "note": 71,
      "start": 3.9848,
      "duration": 0.0995,
      "velocity": 88,
      "chip": "ym2612"
    },
    {
      "channel": 2,
      "note": 67,
      "start": 4.097,
      "duration": 0.0996,
      "velocity": 88,
      "chip": "ym2612"
    },
    {
      "channel": 2,
      "note": 66,
      "start": 4.2137,
      "duration": 0.0996,
      "velocity": 88,
      "chip": "ym2612"
    },
    {
      "channel": 2,
      "note": 62,
      "start": 4.3179,
      "duration": 0.0997,
      "velocity": 88,
      "chip": "ym2612"
    },
    {
      "channel": 2,
      "note": 67,
      "start": 4.4305,
      "duration": 0.0994,
      "velocity": 88,
      "chip": "ym2612"
    },
    {
      "channel": 2,
      "note": 66,
      "start": 4.5346,
      "duration": 0.0994,
      "velocity": 88,
      "chip": "ym2612"
    },
    {
      "channel": 2,
      "note": 62,
      "start": 4.647,
      "duration": 0.1039,
      "velocity": 88,
      "chip": "ym2612"
    },
    {
      "channel": 2,
      "note": 59,
      "start": 4.7637,
      "duration": 0.0996,
      "velocity": 88,
      "chip": "ym2612"
    },
    {
      "channel": 2,
      "note": 66,
      "start": 4.8679,
      "duration": 0.0994,
      "velocity": 88,
      "chip": "ym2612"
    },
    {
      "channel": 2,
      "note": 62,
      "start": 4.9803,
      "duration": 0.0996,
      "velocity": 88,
      "chip": "ym2612"
    },
    {
      "channel": 2,
      "note": 59,
      "start": 5.0849,
      "duration": 0.0992,
      "velocity": 88,
      "chip": "ym2612"
    },
    {
      "channel": 2,
      "note": 55,
      "start": 5.197,
      "duration": 0.1038,
      "velocity": 88,
      "chip": "ym2612"
    },
    {
      "channel": 0,
      "note": 83,
      "start": 5.3169,
      "duration": 1.3007,
      "velocity": 89,
      "chip": "ym2612"
    },
    {
      "channel": 1,
      "note": 78,
      "start": 5.3183,
      "duration": 0.1991,
      "velocity": 77,
      "chip": "ym2612"
    },
    {
      "channel": 2,
      "note": 64,
      "start": 5.3223,
      "duration": 1.2955,
      "velocity": 77,
      "chip": "ym2612"
    },
    {
      "channel": 3,
      "note": 78,
      "start": 5.3265,
      "duration": 0.8536,
      "velocity": 87,
      "chip": "ym2612"
    },
    {
      "channel": 1,
      "note": 79,
      "start": 5.5303,
      "duration": 0.2162,
      "velocity": 77,
      "chip": "ym2612"
    },
    {
      "channel": 1,
      "note": 83,
      "start": 5.7516,
      "duration": 0.2116,
      "velocity": 77,
      "chip": "ym2612"
    },
    {
      "channel": 1,
      "note": 86,
      "start": 5.968,
      "duration": 0.2118,
      "velocity": 77,
      "chip": "ym2612"
    },
    {
      "channel": 1,
      "note": 90,
      "start": 6.1865,
      "duration": 0.2143,
      "velocity": 77,
      "chip": "ym2612"
    },
    {
      "channel": 3,
      "note": 76,
      "start": 6.1873,
      "duration": 0.4307,
      "velocity": 87,
      "chip": "ym2612"
    },
    {
      "channel": 1,
      "note": 86,
      "start": 6.4137,
      "duration": 0.404,
      "velocity": 77,
      "chip": "ym2612"
    },
    {
      "channel": 0,
      "note": 90,
      "start": 6.6302,
      "duration": 0.8495,
      "velocity": 89,
      "chip": "ym2612"
    },
    {
      "channel": 2,
      "note": 71,
      "start": 6.6344,
      "duration": 0.0955,
      "velocity": 88,
      "chip": "ym2612"
    },
    {
      "channel": 3,
      "note": 71,
      "start": 6.6352,
      "duration": 1.3017,
      "velocity": 87,
      "chip": "ym2612"
    },
    {
      "channel": 2,
      "note": 67,
      "start": 6.7471,
      "duration": 0.0995,
      "velocity": 88,
      "chip": "ym2612"
    },
    {
      "channel": 2,
      "note": 66,
      "start": 6.8516,
      "duration": 0.0995,
      "velocity": 88,
      "chip": "ym2612"
    },
    {
      "channel": 2,
      "note": 62,
      "start": 6.9637,
      "duration": 0.0996,
      "velocity": 88,
      "chip": "ym2612"
    },
    {
      "channel": 1,
      "note": 76,
      "start": 7.0686,
      "duration": 0.8779,
      "velocity": 77,
      "chip": "ym2612"
    },
    {
      "channel": 2,
      "note": 67,
      "start": 7.0693,
      "duration": 0.0982,
      "velocity": 88,
      "chip": "ym2612"
    },
    {
      "channel": 2,
      "note": 66,
      "start": 7.1803,
      "duration": 0.0996,
      "velocity": 88,
      "chip": "ym2612"
    },
    {
      "channel": 2,
      "note": 62,
      "start": 7.297,
      "duration": 0.0996,
      "velocity": 88,
      "chip": "ym2612"
    },
    {
      "channel": 2,
      "note": 59,
      "start": 7.4041,
      "duration": 0.0984,
      "velocity": 88,
      "chip": "ym2612"
    },
    {
      "channel": 2,
      "note": 66,
      "start": 7.5139,
      "duration": 0.0993,
      "velocity": 88,
      "chip": "ym2612"
    },
    {
      "channel": 2,
      "note": 62,
      "start": 7.6199,
      "duration": 0.0993,
      "velocity": 88,
      "chip": "ym2612"
    },
    {
      "channel": 2,
      "note": 59,
      "start": 7.7303,
      "duration": 0.0996,
      "velocity": 88,
      "chip": "ym2612"
    },
    {
      "channel": 2,
      "note": 55,
      "start": 7.847,
      "duration": 0.0997,
      "velocity": 88,
      "chip": "ym2612"
    },
    {
      "channel": 0,
      "note": 83,
      "start": 7.9541,
      "duration": 1.309,
      "velocity": 89,
      "chip": "ym2612"
    },
    {
      "channel": 1,
      "note": 78,
      "start": 7.9555,
      "duration": 0.2077,
      "velocity": 77,
      "chip": "ym2612"
    },
    {
      "channel": 2,
      "note": 62,
      "start": 7.9595,
      "duration": 1.3038,
      "velocity": 77,
      "chip": "ym2612"
    },
    {
      "channel": 3,
      "note": 78,
      "start": 7.9603,
      "duration": 0.8698,
      "velocity": 87,
      "chip": "ym2612"
    },
    {
      "channel": 1,
      "note": 79,
      "start": 8.1679,
      "duration": 0.2162,
      "velocity": 77,
      "chip": "ym2612"
    },
    {
      "channel": 1,
      "note": 83,
      "start": 8.397,
      "duration": 0.2038,
      "velocity": 77,
      "chip": "ym2612"
    },
    {
      "channel": 1,
      "note": 86,
      "start": 8.6137,
      "duration": 0.2162,
      "velocity": 77,
      "chip": "ym2612"
    },
    {
      "channel": 1,
      "note": 90,
      "start": 8.8365,
      "duration": 0.21,
      "velocity": 77,
      "chip": "ym2612"
    },
    {
      "channel": 3,
      "note": 76,
      "start": 8.8373,
      "duration": 0.4353,
      "velocity": 87,
      "chip": "ym2612"
    },
    {
      "channel": 1,
      "note": 86,
      "start": 9.0513,
      "duration": 0.4161,
      "velocity": 77,
      "chip": "ym2612"
    },
    {
      "channel": 0,
      "note": 90,
      "start": 9.268,
      "duration": 0.851,
      "velocity": 89,
      "chip": "ym2612"
    },
    {
      "channel": 2,
      "note": 71,
      "start": 9.2722,
      "duration": 0.1077,
      "velocity": 88,
      "chip": "ym2612"
    },
    {
      "channel": 3,
      "note": 71,
      "start": 9.2729,
      "duration": 4.8405,
      "velocity": 87,
      "chip": "ym2612"
    },
    {
      "channel": 2,
      "note": 67,
      "start": 9.3847,
      "duration": 0.0997,
      "velocity": 88,
      "chip": "ym2612"
    },
    {
      "channel": 2,
      "note": 66,
      "start": 9.4973,
      "duration": 0.0993,
      "velocity": 88,
      "chip": "ym2612"
    },
    {
      "channel": 2,
      "note": 62,
      "start": 9.6013,
      "duration": 0.0995,
      "velocity": 88,
      "chip": "ym2612"
    },
    {
      "channel": 1,
      "note": 74,
      "start": 9.7143,
      "duration": 0.8489,
      "velocity": 77,
      "chip": "ym2612"
    },
    {
      "channel": 2,
      "note": 67,
      "start": 9.7149,
      "duration": 0.0983,
      "velocity": 88,
      "chip": "ym2612"
    },
    {
      "channel": 2,
      "note": 66,
      "start": 9.8303,
      "duration": 0.0996,
      "velocity": 88,
      "chip": "ym2612"
    },
    {
      "channel": 2,
      "note": 62,
      "start": 9.9347,
      "duration": 0.1022,
      "velocity": 88,
      "chip": "ym2612"
    },
    {
      "channel": 2,
      "note": 59,
      "start": 10.047,
      "duration": 0.0996,
      "velocity": 88,
      "chip": "ym2612"
    },
    {
      "channel": 2,
      "note": 66,
      "start": 10.1535,
      "duration": 0.099,
      "velocity": 88,
      "chip": "ym2612"
    },
    {
      "channel": 2,
      "note": 62,
      "start": 10.2637,
      "duration": 0.0996,
      "velocity": 88,
      "chip": "ym2612"
    },
    {
      "channel": 2,
      "note": 59,
      "start": 10.3803,
      "duration": 0.0996,
      "velocity": 88,
      "chip": "ym2612"
    },
    {
      "channel": 2,
      "note": 55,
      "start": 10.4877,
      "duration": 0.0991,
      "velocity": 88,
      "chip": "ym2612"
    },
    {
      "channel": 0,
      "note": 90,
      "start": 10.5968,
      "duration": 0.8389,
      "velocity": 89,
      "chip": "ym2612"
    },
    {
      "channel": 1,
      "note": 78,
      "start": 10.5981,
      "duration": 0.2042,
      "velocity": 77,
      "chip": "ym2612"
    },
    {
      "channel": 2,
      "note": 60,
      "start": 10.6022,
      "duration": 1.3111,
      "velocity": 77,
      "chip": "ym2612"
    },
    {
      "channel": 1,
      "note": 79,
      "start": 10.8136,
      "duration": 0.2162,
      "velocity": 77,
      "chip": "ym2612"
    },
    {
      "channel": 1,
      "note": 83,
      "start": 11.0363,
      "duration": 0.2102,
      "velocity": 77,
      "chip": "ym2612"
    },
    {
      "channel": 1,
      "note": 86,
      "start": 11.254,
      "duration": 0.2149,
      "velocity": 77,
      "chip": "ym2612"
    },
    {
      "channel": 1,
      "note": 90,
      "start": 11.4805,
      "duration": 0.2065,
      "velocity": 77,
      "chip": "ym2612"
    },
    {
      "channel": 1,
      "note": 86,
      "start": 11.697,
      "duration": 0.4162,
      "velocity": 77,
      "chip": "ym2612"
    },
    {
      "channel": 0,
      "note": 88,
      "start": 11.9205,
      "duration": 0.4259,
      "velocity": 89,
      "chip": "ym2612"
    },
    {
      "channel": 2,
      "note": 71,
      "start": 11.9248,
      "duration": 0.0946,
      "velocity": 88,
      "chip": "ym2612"
    },
    {
      "channel": 2,
      "note": 67,
      "start": 12.0303,
      "duration": 0.0996,
      "velocity": 88,
      "chip": "ym2612"
    },
    {
      "channel": 2,
      "note": 66,
      "start": 12.1365,
      "duration": 0.0994,
      "velocity": 88,
      "chip": "ym2612"
    },
    {
      "channel": 2,
      "note": 62,
      "start": 12.247,
      "duration": 0.0997,
      "velocity": 88,
      "chip": "ym2612"
    },
    {
      "channel": 0,
      "note": 79,
      "start": 12.3543,
      "duration": 0.4314,
      "velocity": 89,
      "chip": "ym2612"
    },
    {
      "channel": 1,
      "note": 72,
      "start": 12.3556,
      "duration": 0.8744,
      "velocity": 77,
      "chip": "ym2612"
    },
    {
      "channel": 2,
      "note": 67,
      "start": 12.3564,
      "duration": 0.1069,
      "velocity": 88,
      "chip": "ym2612"
    },
    {
      "channel": 2,
      "note": 66,
      "start": 12.4705,
      "duration": 0.0997,
      "velocity": 88,
      "chip": "ym2612"
    },
    {
      "channel": 2,
      "note": 62,
      "start": 12.5803,
      "duration": 0.0996,
      "velocity": 88,
      "chip": "ym2612"
    },
    {
      "channel": 2,
      "note": 59,
      "start": 12.6866,
      "duration": 0.0993,
      "velocity": 88,
      "chip": "ym2612"
    },
    {
      "channel": 0,
      "note": 81,
      "start": 12.7969,
      "duration": 0.4329,
      "velocity": 89,
      "chip": "ym2612"
    },
    {
      "channel": 2,
      "note": 66,
      "start": 12.7977,
      "duration": 0.0989,
      "velocity": 88,
      "chip": "ym2612"
    },
    {
      "channel": 2,
      "note": 62,
      "start": 12.9137,
      "duration": 0.0996,
      "velocity": 88,
      "chip": "ym2612"
    },
    {
      "channel": 2,
      "note": 59,
      "start": 13.021,
      "duration": 0.0992,
      "velocity": 88,
      "chip": "ym2612"
    },
    {
      "channel": 2,
      "note": 55,
      "start": 13.1303,
      "duration": 0.0998,
      "velocity": 88,
      "chip": "ym2612"
    },
    {
      "channel": 0,
      "note": 86,
      "start": 13.2375,
      "duration": 1.7589,
      "velocity": 89,
      "chip": "ym2612"
    },
    {
      "channel": 1,
      "note": 78,
      "start": 13.2389,
      "duration": 0.2076,
      "velocity": 77,
      "chip": "ym2612"
    },
    {
      "channel": 2,
      "note": 59,
      "start": 13.2429,
      "duration": 1.3081,
      "velocity": 77,
      "chip": "ym2612"
    },
    {
      "channel": 1,
      "note": 79,
      "start": 13.4636,
      "duration": 0.2063,
      "velocity": 77,
      "chip": "ym2612"
    },
    {
      "channel": 1,
      "note": 83,
      "start": 13.6803,
      "duration": 0.2057,
      "velocity": 77,
      "chip": "ym2612"
    },
    {
      "channel": 1,
      "note": 86,
      "start": 13.897,
      "duration": 0.2162,
      "velocity": 77,
      "chip": "ym2612"
    },
    {
      "channel": 1,
      "note": 90,
      "start": 14.1198,
      "duration": 0.21,
      "velocity": 77,
      "chip": "ym2612"
    },
    {
      "channel": 3,
      "note": 74,
      "start": 14.1206,
      "duration": 0.4307,
      "velocity": 87,
      "chip": "ym2612"
    },
    {
      "channel": 1,
      "note": 86,
      "start": 14.3347,
      "duration": 0.4163,
      "velocity": 77,
      "chip": "ym2612"
    },
    {
      "channel": 2,
      "note": 71,
      "start": 14.5671,
      "duration": 0.0962,
      "velocity": 88,
      "chip": "ym2612"
    },
    {
      "channel": 3,
      "note": 86,
      "start": 14.5678,
      "duration": 0.4291,
      "velocity": 87,
      "chip": "ym2612"
    },
    {
      "channel": 2,
      "note": 67,
      "start": 14.6681,
      "duration": 0.0994,
      "velocity": 88,
      "chip": "ym2612"
    },
    {
      "channel": 2,
      "note": 66,
      "start": 14.7806,
      "duration": 0.0993,
      "velocity": 88,
      "chip": "ym2612"
    },
    {
      "channel": 2,
      "note": 62,
      "start": 14.8849,
      "duration": 0.1118,
      "velocity": 88,
      "chip": "ym2612"
    },
    {
      "channel": 1,
      "note": 71,
      "start": 15.0023,
      "duration": 0.8651,
      "velocity": 77,
      "chip": "ym2612"
    },
    {
      "channel": 2,
      "note": 67,
      "start": 15.0031,
      "duration": 0.0978,
      "velocity": 88,
      "chip": "ym2612"
    },
    {
      "channel": 3,
      "note": 84,
      "start": 15.0038,
      "duration": 0.4263,
      "velocity": 87,
      "chip": "ym2612"
    },
    {
      "channel": 2,
      "note": 66,
      "start": 15.1137,
      "duration": 0.0996,
      "velocity": 88,
      "chip": "ym2612"
    },
    {
      "channel": 2,
      "note": 62,
      "start": 15.2183,
      "duration": 0.0992,
      "velocity": 88,
      "chip": "ym2612"
    },
    {
      "channel": 2,
      "note": 59,
      "start": 15.3303,
      "duration": 0.0996,
      "velocity": 88,
      "chip": "ym2612"
    },
    {
      "channel": 2,
      "note": 66,
      "start": 15.4348,
      "duration": 0.1118,
      "velocity": 88,
      "chip": "ym2612"
    },
    {
      "channel": 3,
      "note": 83,
      "start": 15.4356,
      "duration": 0.4322,
      "velocity": 87,
      "chip": "ym2612"
    },
    {
      "channel": 2,
      "note": 62,
      "start": 15.5516,
      "duration": 0.0993,
      "velocity": 88,
      "chip": "ym2612"
    },
    {
      "channel": 2,
      "note": 59,
      "start": 15.6637,
      "duration": 0.0996,
      "velocity": 88,
      "chip": "ym2612"
    },
    {
      "channel": 2,
      "note": 55,
      "start": 15.768,
      "duration": 0.0996,
      "velocity": 88,
      "chip": "ym2612"
    },
    {
      "channel": 0,
      "note": 86,
      "start": 15.8801,
      "duration": 0.8725,
      "velocity": 89,
      "chip": "ym2612"
    },
    {
      "channel": 1,
      "note": 78,
      "start": 15.8817,
      "duration": 0.2148,
      "velocity": 77,
      "chip": "ym2612"
    },
    {
      "channel": 2,
      "note": 57,
      "start": 15.8858,
      "duration": 1.3109,
      "velocity": 77,
      "chip": "ym2612"
    },
    {
      "channel": 3,
      "note": 84,
      "start": 15.8866,
      "duration": 2.627,
      "velocity": 87,
      "chip": "ym2612"
    },
    {
      "channel": 1,
      "note": 79,
      "start": 16.1013,
      "duration": 0.2119,
      "velocity": 77,
      "chip": "ym2612"
    },
    {
      "channel": 1,
      "note": 81,
      "start": 16.318,
      "duration": 0.2118,
      "velocity": 77,
      "chip": "ym2612"
    },
    {
      "channel": 1,
      "note": 84,
      "start": 16.547,
      "duration": 0.2058,
      "velocity": 77,
      "chip": "ym2612"
    },
    {
      "channel": 0,
      "note": 84,
      "start": 16.7636,
      "duration": 0.4329,
      "velocity": 89,
      "chip": "ym2612"
    },
    {
      "channel": 1,
      "note": 88,
      "start": 16.7643,
      "duration": 0.2049,
      "velocity": 77,
      "chip": "ym2612"
    },
    {
      "channel": 1,
      "note": 84,
      "start": 16.9803,
      "duration": 0.4162,
      "velocity": 77,
      "chip": "ym2612"
    },
    {
      "channel": 0,
      "note": 91,
      "start": 17.2039,
      "duration": 0.4318,
      "velocity": 89,
      "chip": "ym2612"
    },
    {
      "channel": 2,
      "note": 69,
      "start": 17.208,
      "duration": 0.0955,
      "velocity": 88,
      "chip": "ym2612"
    },
    {
      "channel": 2,
      "note": 67,
      "start": 17.3137,
      "duration": 0.0996,
      "velocity": 88,
      "chip": "ym2612"
    },
    {
      "channel": 2,
      "note": 64,
      "start": 17.4202,
      "duration": 0.099,
      "velocity": 88,
      "chip": "ym2612"
    },
    {
      "channel": 2,
      "note": 60,
      "start": 17.5303,
      "duration": 0.1056,
      "velocity": 88,
      "chip": "ym2612"
    },
    {
      "channel": 1,
      "note": 69,
      "start": 17.6478,
      "duration": 0.8654,
      "velocity": 77,
      "chip": "ym2612"
    },
    {
      "channel": 2,
      "note": 67,
      "start": 17.6485,
      "duration": 0.098,
      "velocity": 88,
      "chip": "ym2612"
    },
    {
      "channel": 2,
      "note": 64,
      "start": 17.7543,
      "duration": 0.0992,
      "velocity": 88,
      "chip": "ym2612"
    },
    {
      "channel": 2,
      "note": 60,
      "start": 17.8637,
      "duration": 0.0996,
      "velocity": 88,
      "chip": "ym2612"
    },
    {
      "channel": 2,
      "note": 57,
      "start": 17.9707,
      "duration": 0.1092,
      "velocity": 88,
      "chip": "ym2612"
    },
    {
      "channel": 0,
      "note": 90,
      "start": 18.0865,
      "duration": 0.8474,
      "velocity": 89,
      "chip": "ym2612"
    },
    {
      "channel": 2,
      "note": 64,
      "start": 18.0873,
      "duration": 0.0985,
      "velocity": 88,
      "chip": "ym2612"
    },
    {
      "channel": 2,
      "note": 60,
      "start": 18.197,
      "duration": 0.0996,
      "velocity": 88,
      "chip": "ym2612"
    },
    {
      "channel": 2,
      "note": 57,
      "start": 18.3031,
      "duration": 0.1002,
      "velocity": 88,
      "chip": "ym2612"
    },
    {
      "channel": 2,
      "note": 55,
      "start": 18.4137,
      "duration": 0.0997,
      "velocity": 88,
      "chip": "ym2612"
    },
    {
      "channel": 1,
      "note": 78,
      "start": 18.5216,
      "duration": 0.2124,
      "velocity": 77,
      "chip": "ym2612"
    },
    {
      "channel": 2,
      "note": 55,
      "start": 18.5257,
      "duration": 1.3112,
      "velocity": 77,
      "chip": "ym2612"
    },
    {
      "channel": 3,
      "note": 83,
      "start": 18.5265,
      "duration": 1.3106,
      "velocity": 87,
      "chip": "ym2612"
    },
    {
      "channel": 1,
      "note": 79,
      "start": 18.747,
      "duration": 0.204,
      "velocity": 77,
      "chip": "ym2612"
    },
    {
      "channel": 1,
      "note": 83,
      "start": 18.9639,
      "duration": 0.216,
      "velocity": 77,
      "chip": "ym2612"
    },
    {
      "channel": 1,
      "note": 86,
      "start": 19.1846,
      "duration": 0.2119,
      "velocity": 77,
      "chip": "ym2612"
    },
    {
      "channel": 0,
      "note": 88,
      "start": 19.4029,
      "duration": 0.4337,
      "velocity": 89,
      "chip": "ym2612"
    },
    {
      "channel": 1,
      "note": 90,
      "start": 19.4037,
      "duration": 0.2095,
      "velocity": 77,
      "chip": "ym2612"
    },
    {
      "channel": 1,
      "note": 86,
      "start": 19.6303,
      "duration": 0.4038,
      "velocity": 77,
      "chip": "ym2612"
    },
    {
      "channel": 0,
      "note": 83,
      "start": 19.8469,
      "duration": 0.4329,
      "velocity": 89,
      "chip": "ym2612"
    },
    {
      "channel": 2,
      "note": 71,
      "start": 19.8511,
      "duration": 0.0955,
      "velocity": 88,
      "chip": "ym2612"
    },
    {
      "channel": 3,
      "note": 76,
      "start": 19.8518,
      "duration": 1.3119,
      "velocity": 87,
      "chip": "ym2612"
    },
    {
      "channel": 2,
      "note": 67,
      "start": 19.9517,
      "duration": 0.0992,
      "velocity": 88,
      "chip": "ym2612"
    },
    {
      "channel": 2,
      "note": 66,
      "start": 20.0639,
      "duration": 0.0993,
      "velocity": 88,
      "chip": "ym2612"
    },
    {
      "channel": 2,
      "note": 62,
      "start": 20.1803,
      "duration": 0.0997,
      "velocity": 88,
      "chip": "ym2612"
    },
    {
      "channel": 0,
      "note": 83,
      "start": 20.2848,
      "duration": 0.4342,
      "velocity": 89,
      "chip": "ym2612"
    },
    {
      "channel": 1,
      "note": 67,
      "start": 20.2861,
      "duration": 0.8772,
      "velocity": 77,
      "chip": "ym2612"
    },
    {
      "channel": 2,
      "note": 67,
      "start": 20.2868,
      "duration": 0.0973,
      "velocity": 88,
      "chip": "ym2612"
    },
    {
      "channel": 2,
      "note": 66,
      "start": 20.397,
      "duration": 0.0996,
      "velocity": 88,
      "chip": "ym2612"
    },
    {
      "channel": 2,
      "note": 62,
      "start": 20.5014,
      "duration": 0.1022,
      "velocity": 88,
      "chip": "ym2612"
    },
    {
      "channel": 2,
      "note": 59,
      "start": 20.6137,
      "duration": 0.1056,
      "velocity": 88,
      "chip": "ym2612"
    },
    {
      "channel": 0,
      "note": 80,
      "start": 20.7302,
      "duration": 0.4329,
      "velocity": 89,
      "chip": "ym2612"
    },
    {
      "channel": 2,
      "note": 66,
      "start": 20.731,
      "duration": 0.0989,
      "velocity": 88,
      "chip": "ym2612"
    },
    {
      "channel": 2,
      "note": 62,
      "start": 20.8363,
      "duration": 0.0996,
      "velocity": 88,
      "chip": "ym2612"
    },
    {
      "channel": 2,
      "note": 59,
      "start": 20.9471,
      "duration": 0.0995,
      "velocity": 88,
      "chip": "ym2612"
    },
    {
      "channel": 2,
      "note": 55,
      "start": 21.0541,
      "duration": 0.1094,
      "velocity": 88,
      "chip": "ym2612"
    },
    {
      "channel": 0,
      "note": 81,
      "start": 21.1707,
      "duration": 1.2993,
      "velocity": 89,
      "chip": "ym2612"
    },
    {
      "channel": 1,
      "note": 77,
      "start": 21.1721,
      "duration": 0.2078,
      "velocity": 77,
      "chip": "ym2612"
    },
    {
      "channel": 2,
      "note": 53,
      "start": 21.1761,
      "duration": 1.3038,
      "velocity": 77,
      "chip": "ym2612"
    },
    {
      "channel": 3,
      "note": 75,
      "start": 21.1769,
      "duration": 3.5032,
      "velocity": 87,
      "chip": "ym2612"
    },
    {
      "channel": 1,
      "note": 81,
      "start": 21.3847,
      "duration": 0.2118,
      "velocity": 77,
      "chip": "ym2612"
    },
    {
      "channel": 1,
      "note": 84,
      "start": 21.6013,
      "duration": 0.2163,
      "velocity": 77,
      "chip": "ym2612"
    },
    {
      "channel": 1,
      "note": 87,
      "start": 21.8303,
      "duration": 0.2053,
      "velocity": 77,
      "chip": "ym2612"
    },
    {
      "channel": 1,
      "note": 89,
      "start": 22.047,
      "duration": 0.2162,
      "velocity": 77,
      "chip": "ym2612"
    },
    {
      "channel": 1,
      "note": 87,
      "start": 22.2697,
      "duration": 0.4101,
      "velocity": 77,
      "chip": "ym2612"
    },
    {
      "channel": 2,
      "note": 72,
      "start": 22.4912,
      "duration": 0.0946,
      "velocity": 88,
      "chip": "ym2612"
    },
    {
      "channel": 2,
      "note": 69,
      "start": 22.597,
      "duration": 0.0996,
      "velocity": 88,
      "chip": "ym2612"
    },
    {
      "channel": 2,
      "note": 65,
      "start": 22.7139,
      "duration": 0.0993,
      "velocity": 88,
      "chip": "ym2612"
    },
    {
      "channel": 2,
      "note": 63,
      "start": 22.82,
      "duration": 0.1001,
      "velocity": 88,
      "chip": "ym2612"
    },
    {
      "channel": 0,
      "note": 79,
      "start": 22.9302,
      "duration": 0.4329,
      "velocity": 89,
      "chip": "ym2612"
    },
    {
      "channel": 1,
      "note": 65,
      "start": 22.9316,
      "duration": 0.872,
      "velocity": 77,
      "chip": "ym2612"
    },
    {
      "channel": 2,
      "note": 69,
      "start": 22.9323,
      "duration": 0.0976,
      "velocity": 88,
      "chip": "ym2612"
    },
    {
      "channel": 2,
      "note": 65,
      "start": 23.0373,
      "duration": 0.0996,
      "velocity": 88,
      "chip": "ym2612"
    },
    {
      "channel": 2,
      "note": 63,
      "start": 23.147,
      "duration": 0.0996,
      "velocity": 88,
      "chip": "ym2612"
    },
    {
      "channel": 2,
      "note": 60,
      "start": 23.2637,
      "duration": 0.0997,
      "velocity": 88,
      "chip": "ym2612"
    },
    {
      "channel": 0,
      "note": 81,
      "start": 23.3695,
      "duration": 0.4339,
      "velocity": 89,
      "chip": "ym2612"
    },
    {
      "channel": 2,
      "note": 63,
      "start": 23.3704,
      "duration": 0.0988,
      "velocity": 88,
      "chip": "ym2612"
    },
    {
      "channel": 2,
      "note": 60,
      "start": 23.4804,
      "duration": 0.0995,
      "velocity": 88,
      "chip": "ym2612"
    },
    {
      "channel": 2,
      "note": 57,
      "start": 23.5874,
      "duration": 0.0997,
      "velocity": 88,
      "chip": "ym2612"
    },
    {
      "channel": 2,
      "note": 54,
      "start": 23.697,
      "duration": 0.1068,
      "velocity": 88,
      "chip": "ym2612"
    },
    {
      "channel": 0,
      "note": 83,
      "start": 23.8136,
      "duration": 1.7495,
      "velocity": 89,
      "chip": "ym2612"
    },
    {
      "channel": 1,
      "note": 78,
      "start": 23.8151,
      "duration": 0.2042,
      "velocity": 77,
      "chip": "ym2612"
    },
    {
      "channel": 2,
      "note": 59,
      "start": 23.8193,
      "duration": 1.2982,
      "velocity": 77,
      "chip": "ym2612"
    },
    {
      "channel": 1,
      "note": 81,
      "start": 24.0303,
      "duration": 0.2162,
      "velocity": 77,
      "chip": "ym2612"
    },
    {
      "channel": 1,
      "note": 83,
      "start": 24.254,
      "duration": 0.2092,
      "velocity": 77,
      "chip": "ym2612"
    },
    {
      "channel": 1,
      "note": 87,
      "start": 24.4707,
      "duration": 0.2092,
      "velocity": 77,
      "chip": "ym2612"
    },
    {
      "channel": 1,
      "note": 90,
      "start": 24.6867,
      "duration": 0.2141,
      "velocity": 77,
      "chip": "ym2612"
    },
    {
      "channel": 3,
      "note": 76,
      "start": 24.6875,
      "duration": 0.4302,
      "velocity": 87,
      "chip": "ym2612"
    },
    {
      "channel": 1,
      "note": 87,
      "start": 24.9137,
      "duration": 0.4038,
      "velocity": 77,
      "chip": "ym2612"
    },
    {
      "channel": 2,
      "note": 71,
      "start": 25.1337,
      "duration": 0.0962,
      "velocity": 88,
      "chip": "ym2612"
    },
    {
      "channel": 3,
      "note": 78,
      "start": 25.1345,
      "duration": 2.1847,
      "velocity": 87,
      "chip": "ym2612"
    },
    {
      "channel": 2,
      "note": 69,
      "start": 25.2471,
      "duration": 0.0995,
      "velocity": 88,
      "chip": "ym2612"
    },
    {
      "channel": 2,
      "note": 66,
      "start": 25.3519,
      "duration": 0.0989,
      "velocity": 88,
      "chip": "ym2612"
    },
    {
      "channel": 2,
      "note": 63,
      "start": 25.4637,
      "duration": 0.0997,
      "velocity": 88,
      "chip": "ym2612"
    },
    {
      "channel": 1,
      "note": 73,
      "start": 25.5689,
      "duration": 0.4335,
      "velocity": 77,
      "chip": "ym2612"
    },
    {
      "channel": 2,
      "note": 66,
      "start": 25.5696,
      "duration": 0.0979,
      "velocity": 88,
      "chip": "ym2612"
    },
    {
      "channel": 2,
      "note": 63,
      "start": 25.6803,
      "duration": 0.0996,
      "velocity": 88,
      "chip": "ym2612"
    },
    {
      "channel": 2,
      "note": 59,
      "start": 25.797,
      "duration": 0.0996,
      "velocity": 88,
      "chip": "ym2612"
    },
    {
      "channel": 2,
      "note": 57,
      "start": 25.9041,
      "duration": 0.0985,
      "velocity": 88,
      "chip": "ym2612"
    },
    {
      "channel": 1,
      "note": 74,
      "start": 26.0136,
      "duration": 0.4329,
      "velocity": 77,
      "chip": "ym2612"
    },
    {
      "channel": 2,
      "note": 63,
      "start": 26.0144,
      "duration": 0.0989,
      "velocity": 88,
      "chip": "ym2612"
    },
    {
      "channel": 2,
      "note": 59,
      "start": 26.1196,
      "duration": 0.0998,
      "velocity": 88,
      "chip": "ym2612"
    },
    {
      "channel": 2,
      "note": 57,
      "start": 26.2303,
      "duration": 0.0996,
      "velocity": 88,
      "chip": "ym2612"
    },
    {
      "channel": 2,
      "note": 54,
      "start": 26.347,
      "duration": 0.0997,
      "velocity": 88,
      "chip": "ym2612"
    },
    {
      "channel": 0,
      "note": 83,
      "start": 26.4538,
      "duration": 1.3093,
      "velocity": 89,
      "chip": "ym2612"
    },
    {
      "channel": 1,
      "note": 78,
      "start": 26.4551,
      "duration": 0.0986,
      "velocity": 77,
      "chip": "ym2612"
    },
    {
      "channel": 2,
      "note": 64,
      "start": 26.4592,
      "duration": 1.3042,
      "velocity": 77,
      "chip": "ym2612"
    },
    {
      "channel": 1,
      "note": 79,
      "start": 26.6695,
      "duration": 0.2166,
      "velocity": 77,
      "chip": "ym2612"
    },
    {
      "channel": 1,
      "note": 83,
      "start": 26.897,
      "duration": 0.2065,
      "velocity": 77,
      "chip": "ym2612"
    },
    {
      "channel": 1,
      "note": 86,
      "start": 27.1136,
      "duration": 0.2053,
      "velocity": 77,
      "chip": "ym2612"
    },
    {
      "channel": 1,
      "note": 90,
      "start": 27.3303,
      "duration": 0.2162,
      "velocity": 77,
      "chip": "ym2612"
    },
    {
      "channel": 3,
      "note": 76,
      "start": 27.3311,
      "duration": 0.4324,
      "velocity": 87,
      "chip": "ym2612"
    },
    {
      "channel": 1,
      "note": 86,
      "start": 27.5516,
      "duration": 0.4116,
      "velocity": 77,
      "chip": "ym2612"
    },
    {
      "channel": 0,
      "note": 90,
      "start": 27.7681,
      "duration": 0.8511,
      "velocity": 89,
      "chip": "ym2612"
    },
    {
      "channel": 2,
      "note": 71,
      "start": 27.7723,
      "duration": 0.1076,
      "velocity": 88,
      "chip": "ym2612"
    },
    {
      "channel": 3,
      "note": 71,
      "start": 27.773,
      "duration": 1.3143,
      "velocity": 87,
      "chip": "ym2612"
    },
    {
      "channel": 2,
      "note": 67,
      "start": 27.885,
      "duration": 0.0992,
      "velocity": 88,
      "chip": "ym2612"
    },
    {
      "channel": 2,
      "note": 66,
      "start": 27.9973,
      "duration": 0.0993,
      "velocity": 88,
      "chip": "ym2612"
    },
    {
      "channel": 2,
      "note": 62,
      "start": 28.1013,
      "duration": 0.0994,
      "velocity": 88,
      "chip": "ym2612"
    },
    {
      "channel": 1,
      "note": 76,
      "start": 28.2143,
      "duration": 0.8727,
      "velocity": 77,
      "chip": "ym2612"
    },
    {
      "channel": 2,
      "note": 67,
      "start": 28.2152,
      "duration": 0.098,
      "velocity": 88,
      "chip": "ym2612"
    },
    {
      "channel": 2,
      "note": 66,
      "start": 28.3303,
      "duration": 0.0996,
      "velocity": 88,
      "chip": "ym2612"
    },
    {
      "channel": 2,
      "note": 62,
      "start": 28.4347,
      "duration": 0.1022,
      "velocity": 88,
      "chip": "ym2612"
    },
    {
      "channel": 2,
      "note": 59,
      "start": 28.5471,
      "duration": 0.0995,
      "velocity": 88,
      "chip": "ym2612"
    },
    {
      "channel": 2,
      "note": 66,
      "start": 28.6532,
      "duration": 0.0995,
      "velocity": 88,
      "chip": "ym2612"
    },
    {
      "channel": 2,
      "note": 62,
      "start": 28.7637,
      "duration": 0.0996,
      "velocity": 88,
      "chip": "ym2612"
    },
    {
      "channel": 2,
      "note": 59,
      "start": 28.8803,
      "duration": 0.0996,
      "velocity": 88,
      "chip": "ym2612"
    },
    {
      "channel": 2,
      "note": 55,
      "start": 28.9874,
      "duration": 0.0998,
      "velocity": 88,
      "chip": "ym2612"
    },
    {
      "channel": 0,
      "note": 83,
      "start": 29.0969,
      "duration": 1.3037,
      "velocity": 89,
      "chip": "ym2612"
    },
    {
      "channel": 1,
      "note": 78,
      "start": 29.0982,
      "duration": 0.2025,
      "velocity": 77,
      "chip": "ym2612"
    },
    {
      "channel": 2,
      "note": 62,
      "start": 29.1024,
      "duration": 1.2985,
      "velocity": 77,
      "chip": "ym2612"
    },
    {
      "channel": 3,
      "note": 78,
      "start": 29.1031,
      "duration": 0.8663,
      "velocity": 87,
      "chip": "ym2612"
    },
    {
      "channel": 1,
      "note": 79,
      "start": 29.3136,
      "duration": 0.2162,
      "velocity": 77,
      "chip": "ym2612"
    },
    {
      "channel": 1,
      "note": 83,
      "start": 29.5347,
      "duration": 0.2118,
      "velocity": 77,
      "chip": "ym2612"
    },
    {
      "channel": 1,
      "note": 86,
      "start": 29.7516,
      "duration": 0.2175,
      "velocity": 77,
      "chip": "ym2612"
    },
    {
      "channel": 1,
      "note": 90,
      "start": 29.9803,
      "duration": 0.2037,
      "velocity": 77,
      "chip": "ym2612"
    },
    {
      "channel": 3,
      "note": 76,
      "start": 29.9812,
      "duration": 0.4199,
      "velocity": 87,
      "chip": "ym2612"
    },
    {
      "channel": 1,
      "note": 86,
      "start": 30.197,
      "duration": 0.4162,
      "velocity": 77,
      "chip": "ym2612"
    },
    {
      "channel": 0,
      "note": 90,
      "start": 30.4136,
      "duration": 0.8495,
      "velocity": 89,
      "chip": "ym2612"
    },
    {
      "channel": 2,
      "note": 71,
      "start": 30.418,
      "duration": 0.0995,
      "velocity": 88,
      "chip": "ym2612"
    },
    {
      "channel": 3,
      "note": 71,
      "start": 30.4188,
      "duration": 4.6285,
      "velocity": 87,
      "chip": "ym2612"
    },
    {
      "channel": 2,
      "note": 67,
      "start": 30.5303,
      "duration": 0.0996,
      "velocity": 88,
      "chip": "ym2612"
    },
    {
      "channel": 2,
      "note": 66,
      "start": 30.6349,
      "duration": 0.0992,
      "velocity": 88,
      "chip": "ym2612"
    },
    {
      "channel": 2,
      "note": 62,
      "start": 30.747,
      "duration": 0.0996,
      "velocity": 88,
      "chip": "ym2612"
    },
    {
      "channel": 1,
      "note": 74,
      "start": 30.8519,
      "duration": 0.8779,
      "velocity": 77,
      "chip": "ym2612"
    },
    {
      "channel": 2,
      "note": 67,
      "start": 30.8526,
      "duration": 0.1106,
      "velocity": 88,
      "chip": "ym2612"
    },
    {
      "channel": 2,
      "note": 66,
      "start": 30.9681,
      "duration": 0.0994,
      "velocity": 88,
      "chip": "ym2612"
    },
    {
      "channel": 2,
      "note": 62,
      "start": 31.0804,
      "duration": 0.0995,
      "velocity": 88,
      "chip": "ym2612"
    },
    {
      "channel": 2,
      "note": 59,
      "start": 31.1874,
      "duration": 0.0987,
      "velocity": 88,
      "chip": "ym2612"
    },
    {
      "channel": 2,
      "note": 66,
      "start": 31.2973,
      "duration": 0.0993,
      "velocity": 88,
      "chip": "ym2612"
    },
    {
      "channel": 2,
      "note": 62,
      "start": 31.4137,
      "duration": 0.0996,
      "velocity": 88,
      "chip": "ym2612"
    },
    {
      "channel": 2,
      "note": 59,
      "start": 31.5197,
      "duration": 0.1007,
      "velocity": 88,
      "chip": "ym2612"
    },
    {
      "channel": 2,
      "note": 55,
      "start": 31.6303,
      "duration": 0.0997,
      "velocity": 88,
      "chip": "ym2612"
    },
    {
      "channel": 0,
      "note": 90,
      "start": 31.7371,
      "duration": 0.8427,
      "velocity": 89,
      "chip": "ym2612"
    },
    {
      "channel": 1,
      "note": 78,
      "start": 31.7384,
      "duration": 0.2081,
      "velocity": 77,
      "chip": "ym2612"
    },
    {
      "channel": 2,
      "note": 60,
      "start": 31.7425,
      "duration": 1.311,
      "velocity": 77,
      "chip": "ym2612"
    },
    {
      "channel": 1,
      "note": 79,
      "start": 31.9636,
      "duration": 0.2055,
      "velocity": 77,
      "chip": "ym2612"
    },
    {
      "channel": 1,
      "note": 83,
      "start": 32.1803,
      "duration": 0.2065,
      "velocity": 77,
      "chip": "ym2612"
    },
    {
      "channel": 1,
      "note": 86,
      "start": 32.397,
      "duration": 0.2162,
      "velocity": 77,
      "chip": "ym2612"
    },
    {
      "channel": 1,
      "note": 90,
      "start": 32.6201,
      "duration": 0.2097,
      "velocity": 77,
      "chip": "ym2612"
    },
    {
      "channel": 1,
      "note": 86,
      "start": 32.8363,
      "duration": 0.4161,
      "velocity": 77,
      "chip": "ym2612"
    },
    {
      "channel": 0,
      "note": 88,
      "start": 33.0636,
      "duration": 0.4234,
      "velocity": 89,
      "chip": "ym2612"
    },
    {
      "channel": 2,
      "note": 71,
      "start": 33.0678,
      "duration": 0.0955,
      "velocity": 88,
      "chip": "ym2612"
    },
    {
      "channel": 2,
      "note": 67,
      "start": 33.1707,
      "duration": 0.0983,
      "velocity": 88,
      "chip": "ym2612"
    },
    {
      "channel": 2,
      "note": 66,
      "start": 33.2806,
      "duration": 0.0993,
      "velocity": 88,
      "chip": "ym2612"
    },
    {
      "channel": 2,
      "note": 62,
      "start": 33.3864,
      "duration": 0.1008,
      "velocity": 88,
      "chip": "ym2612"
    },
    {
      "channel": 0,
      "note": 79,
      "start": 33.4969,
      "duration": 0.4329,
      "velocity": 89,
      "chip": "ym2612"
    },
    {
      "channel": 1,
      "note": 72,
      "start": 33.4982,
      "duration": 1.0983,
      "velocity": 77,
      "chip": "ym2612"
    },
    {
      "channel": 2,
      "note": 67,
      "start": 33.4989,
      "duration": 0.1044,
      "velocity": 88,
      "chip": "ym2612"
    },
    {
      "channel": 2,
      "note": 66,
      "start": 33.6137,
      "duration": 0.0995,
      "velocity": 88,
      "chip": "ym2612"
    },
    {
      "channel": 2,
      "note": 62,
      "start": 33.7207,
      "duration": 0.0987,
      "velocity": 88,
      "chip": "ym2612"
    },
    {
      "channel": 2,
      "note": 59,
      "start": 33.8303,
      "duration": 0.0997,
      "velocity": 88,
      "chip": "ym2612"
    },
    {
      "channel": 0,
      "note": 81,
      "start": 33.9362,
      "duration": 0.4339,
      "velocity": 89,
      "chip": "ym2612"
    },
    {
      "channel": 2,
      "note": 66,
      "start": 33.937,
      "duration": 0.1095,
      "velocity": 88,
      "chip": "ym2612"
    },
    {
      "channel": 2,
      "note": 62,
      "start": 34.0531,
      "duration": 0.1007,
      "velocity": 88,
      "chip": "ym2612"
    },
    {
      "channel": 2,
      "note": 59,
      "start": 34.1637,
      "duration": 0.0996,
      "velocity": 88,
      "chip": "ym2612"
    },
    {
      "channel": 2,
      "note": 55,
      "start": 34.2705,
      "duration": 0.0998,
      "velocity": 88,
      "chip": "ym2612"
    },
    {
      "channel": 0,
      "note": 86,
      "start": 34.3802,
      "duration": 1.7662,
      "velocity": 89,
      "chip": "ym2612"
    },
    {
      "channel": 2,
      "note": 59,
      "start": 34.3854,
      "duration": 1.3111,
      "velocity": 77,
      "chip": "ym2612"
    },
    {
      "channel": 1,
      "note": 79,
      "start": 34.6029,
      "duration": 0.2103,
      "velocity": 77,
      "chip": "ym2612"
    },
    {
      "channel": 1,
      "note": 83,
      "start": 34.8209,
      "duration": 0.2089,
      "velocity": 77,
      "chip": "ym2612"
    },
    {
      "channel": 1,
      "note": 86,
      "start": 35.047,
      "duration": 0.2055,
      "velocity": 77,
      "chip": "ym2612"
    },
    {
      "channel": 1,
      "note": 90,
      "start": 35.2636,
      "duration": 0.2038,
      "velocity": 77,
      "chip": "ym2612"
    },
    {
      "channel": 3,
      "note": 74,
      "start": 35.2645,
      "duration": 0.4322,
      "velocity": 87,
      "chip": "ym2612"
    },
    {
      "channel": 1,
      "note": 86,
      "start": 35.4803,
      "duration": 0.4162,
      "velocity": 77,
      "chip": "ym2612"
    },
    {
      "channel": 2,
      "note": 71,
      "start": 35.7048,
      "duration": 0.096,
      "velocity": 88,
      "chip": "ym2612"
    },
    {
      "channel": 3,
      "note": 86,
      "start": 35.7056,
      "duration": 0.4287,
      "velocity": 87,
      "chip": "ym2612"
    },
    {
      "channel": 2,
      "note": 67,
      "start": 35.8137,
      "duration": 0.0995,
      "velocity": 88,
      "chip": "ym2612"
    },
    {
      "channel": 2,
      "note": 66,
      "start": 35.9183,
      "duration": 0.0995,
      "velocity": 88,
      "chip": "ym2612"
    },
    {
      "channel": 2,
      "note": 62,
      "start": 36.0303,
      "duration": 0.1038,
      "velocity": 88,
      "chip": "ym2612"
    },
    {
      "channel": 1,
      "note": 71,
      "start": 36.1479,
      "duration": 0.8653,
      "velocity": 77,
      "chip": "ym2612"
    },
    {
      "channel": 2,
      "note": 67,
      "start": 36.1488,
      "duration": 0.0978,
      "velocity": 88,
      "chip": "ym2612"
    },
    {
      "channel": 3,
      "note": 84,
      "start": 36.1495,
      "duration": 0.4181,
      "velocity": 87,
      "chip": "ym2612"
    },
    {
      "channel": 2,
      "note": 66,
      "start": 36.2513,
      "duration": 0.0998,
      "velocity": 88,
      "chip": "ym2612"
    },
    {
      "channel": 2,
      "note": 62,
      "start": 36.3637,
      "duration": 0.0996,
      "velocity": 88,
      "chip": "ym2612"
    },
    {
      "channel": 2,
      "note": 59,
      "start": 36.468,
      "duration": 0.0994,
      "velocity": 88,
      "chip": "ym2612"
    },
    {
      "channel": 2,
      "note": 66,
      "start": 36.5803,
      "duration": 0.1041,
      "velocity": 88,
      "chip": "ym2612"
    },
    {
      "channel": 3,
      "note": 83,
      "start": 36.5811,
      "duration": 0.4324,
      "velocity": 87,
      "chip": "ym2612"
    },
    {
      "channel": 2,
      "note": 62,
      "start": 36.697,
      "duration": 0.0996,
      "velocity": 88,
      "chip": "ym2612"
    },
    {
      "channel": 2,
      "note": 59,
      "start": 36.8013,
      "duration": 0.0994,
      "velocity": 88,
      "chip": "ym2612"
    },
    {
      "channel": 2,
      "note": 55,
      "start": 36.9137,
      "duration": 0.0997,
      "velocity": 88,
      "chip": "ym2612"
    },
    {
      "channel": 1,
      "note": 78,
      "start": 37.0193,
      "duration": 0.2148,
      "velocity": 77,
      "chip": "ym2612"
    },
    {
      "channel": 2,
      "note": 57,
      "start": 37.0234,
      "duration": 1.3135,
      "velocity": 77,
      "chip": "ym2612"
    },
    {
      "channel": 3,
      "note": 84,
      "start": 37.0241,
      "duration": 2.6297,
      "velocity": 87,
      "chip": "ym2612"
    },
    {
      "channel": 1,
      "note": 79,
      "start": 37.247,
      "duration": 0.2037,
      "velocity": 77,
      "chip": "ym2612"
    },
    {
      "channel": 1,
      "note": 81,
      "start": 37.4639,
      "duration": 0.216,
      "velocity": 77,
      "chip": "ym2612"
    },
    {
      "channel": 1,
      "note": 84,
      "start": 37.6849,
      "duration": 0.2116,
      "velocity": 77,
      "chip": "ym2612"
    },
    {
      "channel": 0,
      "note": 84,
      "start": 37.9029,
      "duration": 0.4337,
      "velocity": 89,
      "chip": "ym2612"
    },
    {
      "channel": 1,
      "note": 88,
      "start": 37.9037,
      "duration": 0.2095,
      "velocity": 77,
      "chip": "ym2612"
    },
    {
      "channel": 1,
      "note": 84,
      "start": 38.1303,
      "duration": 0.4054,
      "velocity": 77,
      "chip": "ym2612"
    },
    {
      "channel": 0,
      "note": 91,
      "start": 38.3469,
      "duration": 0.4329,
      "velocity": 89,
      "chip": "ym2612"
    },
    {
      "channel": 2,
      "note": 69,
      "start": 38.3513,
      "duration": 0.0952,
      "velocity": 88,
      "chip": "ym2612"
    },
    {
      "channel": 2,
      "note": 67,
      "start": 38.4541,
      "duration": 0.0985,
      "velocity": 88,
      "chip": "ym2612"
    },
    {
      "channel": 2,
      "note": 64,
      "start": 38.5639,
      "duration": 0.0993,
      "velocity": 88,
      "chip": "ym2612"
    },
    {
      "channel": 2,
      "note": 60,
      "start": 38.6803,
      "duration": 0.0997,
      "velocity": 88,
      "chip": "ym2612"
    },
    {
      "channel": 0,
      "note": 91,
      "start": 38.7863,
      "duration": 0.4329,
      "velocity": 89,
      "chip": "ym2612"
    },
    {
      "channel": 1,
      "note": 69,
      "start": 38.7876,
      "duration": 0.8658,
      "velocity": 77,
      "chip": "ym2612"
    },
    {
      "channel": 2,
      "note": 67,
      "start": 38.7883,
      "duration": 0.0986,
      "velocity": 88,
      "chip": "ym2612"
    },
    {
      "channel": 2,
      "note": 64,
      "start": 38.897,
      "duration": 0.0996,
      "velocity": 88,
      "chip": "ym2612"
    },
    {
      "channel": 2,
      "note": 60,
      "start": 39.004,
      "duration": 0.0985,
      "velocity": 88,
      "chip": "ym2612"
    },
    {
      "channel": 2,
      "note": 57,
      "start": 39.1137,
      "duration": 0.1057,
      "velocity": 88,
      "chip": "ym2612"
    },
    {
      "channel": 0,
      "note": 90,
      "start": 39.2302,
      "duration": 0.8495,
      "velocity": 89,
      "chip": "ym2612"
    },
    {
      "channel": 2,
      "note": 64,
      "start": 39.231,
      "duration": 0.0989,
      "velocity": 88,
      "chip": "ym2612"
    },
    {
      "channel": 2,
      "note": 60,
      "start": 39.3364,
      "duration": 0.1004,
      "velocity": 88,
      "chip": "ym2612"
    },
    {
      "channel": 2,
      "note": 57,
      "start": 39.447,
      "duration": 0.0996,
      "velocity": 88,
      "chip": "ym2612"
    },
    {
      "channel": 2,
      "note": 55,
      "start": 39.5541,
      "duration": 0.0994,
      "velocity": 88,
      "chip": "ym2612"
    },
    {
      "channel": 1,
      "note": 78,
      "start": 39.6644,
      "duration": 0.2154,
      "velocity": 77,
      "chip": "ym2612"
    },
    {
      "channel": 2,
      "note": 55,
      "start": 39.6685,
      "duration": 1.3115,
      "velocity": 77,
      "chip": "ym2612"
    },
    {
      "channel": 3,
      "note": 83,
      "start": 39.6693,
      "duration": 1.311,
      "velocity": 87,
      "chip": "ym2612"
    },
    {
      "channel": 1,
      "note": 79,
      "start": 39.8849,
      "duration": 0.2116,
      "velocity": 77,
      "chip": "ym2612"
    },
    {
      "channel": 1,
      "note": 83,
      "start": 40.1015,
      "duration": 0.2158,
      "velocity": 77,
      "chip": "ym2612"
    },
    {
      "channel": 1,
      "note": 86,
      "start": 40.3303,
      "duration": 0.2055,
      "velocity": 77,
      "chip": "ym2612"
    },
    {
      "channel": 0,
      "note": 88,
      "start": 40.5469,
      "duration": 0.4329,
      "velocity": 89,
      "chip": "ym2612"
    },
    {
      "channel": 1,
      "note": 90,
      "start": 40.5476,
      "duration": 0.2155,
      "velocity": 77,
      "chip": "ym2612"
    },
    {
      "channel": 1,
      "note": 86,
      "start": 40.7697,
      "duration": 0.4102,
      "velocity": 77,
      "chip": "ym2612"
    },
    {
      "channel": 0,
      "note": 83,
      "start": 40.9873,
      "duration": 0.4302,
      "velocity": 89,
      "chip": "ym2612"
    },
    {
      "channel": 2,
      "note": 71,
      "start": 40.9915,
      "duration": 0.0929,
      "velocity": 88,
      "chip": "ym2612"
    },
    {
      "channel": 3,
      "note": 76,
      "start": 40.9922,
      "duration": 1.3116,
      "velocity": 87,
      "chip": "ym2612"
    },
    {
      "channel": 2,
      "note": 67,
      "start": 41.097,
      "duration": 0.0996,
      "velocity": 88,
      "chip": "ym2612"
    },
    {
      "channel": 2,
      "note": 66,
      "start": 41.2139,
      "duration": 0.0993,
      "velocity": 88,
      "chip": "ym2612"
    },
    {
      "channel": 2,
      "note": 62,
      "start": 41.318,
      "duration": 0.0998,
      "velocity": 88,
      "chip": "ym2612"
    },
    {
      "channel": 0,
      "note": 83,
      "start": 41.4301,
      "duration": 0.433,
      "velocity": 89,
      "chip": "ym2612"
    },
    {
      "channel": 1,
      "note": 67,
      "start": 41.4314,
      "duration": 0.8721,
      "velocity": 77,
      "chip": "ym2612"
    },
    {
      "channel": 2,
      "note": 67,
      "start": 41.4321,
      "duration": 0.0978,
      "velocity": 88,
      "chip": "ym2612"
    },
    {
      "channel": 2,
      "note": 66,
      "start": 41.5347,
      "duration": 0.0994,
      "velocity": 88,
      "chip": "ym2612"
    },
    {
      "channel": 2,
      "note": 62,
      "start": 41.647,
      "duration": 0.0996,
      "velocity": 88,
      "chip": "ym2612"
    },
    {
      "channel": 2,
      "note": 59,
      "start": 41.7637,
      "duration": 0.0997,
      "velocity": 88,
      "chip": "ym2612"
    },
    {
      "channel": 0,
      "note": 79,
      "start": 41.8697,
      "duration": 0.4337,
      "velocity": 89,
      "chip": "ym2612"
    },
    {
      "channel": 2,
      "note": 66,
      "start": 41.8705,
      "duration": 0.0987,
      "velocity": 88,
      "chip": "ym2612"
    },
    {
      "channel": 2,
      "note": 62,
      "start": 41.9803,
      "duration": 0.0996,
      "velocity": 88,
      "chip": "ym2612"
    },
    {
      "channel": 2,
      "note": 59,
      "start": 42.0866,
      "duration": 0.1,
      "velocity": 88,
      "chip": "ym2612"
    },
    {
      "channel": 2,
      "note": 55,
      "start": 42.197,
      "duration": 0.1067,
      "velocity": 88,
      "chip": "ym2612"
    },
    {
      "channel": 0,
      "note": 81,
      "start": 42.3136,
      "duration": 1.2995,
      "velocity": 89,
      "chip": "ym2612"
    },
    {
      "channel": 1,
      "note": 77,
      "start": 42.3149,
      "duration": 0.2025,
      "velocity": 77,
      "chip": "ym2612"
    },
    {
      "channel": 2,
      "note": 53,
      "start": 42.319,
      "duration": 1.3015,
      "velocity": 77,
      "chip": "ym2612"
    },
    {
      "channel": 3,
      "note": 75,
      "start": 42.3197,
      "duration": 3.4999,
      "velocity": 87,
      "chip": "ym2612"
    },
    {
      "channel": 1,
      "note": 81,
      "start": 42.5303,
      "duration": 0.2038,
      "velocity": 77,
      "chip": "ym2612"
    },
    {
      "channel": 1,
      "note": 84,
      "start": 42.747,
      "duration": 0.2162,
      "velocity": 77,
      "chip": "ym2612"
    },
    {
      "channel": 1,
      "note": 87,
      "start": 42.968,
      "duration": 0.2118,
      "velocity": 77,
      "chip": "ym2612"
    },
    {
      "channel": 1,
      "note": 89,
      "start": 43.1863,
      "duration": 0.2162,
      "velocity": 77,
      "chip": "ym2612"
    },
    {
      "channel": 1,
      "note": 87,
      "start": 43.4137,
      "duration": 0.4057,
      "velocity": 77,
      "chip": "ym2612"
    },
    {
      "channel": 2,
      "note": 72,
      "start": 43.6339,
      "duration": 0.096,
      "velocity": 88,
      "chip": "ym2612"
    },
    {
      "channel": 2,
      "note": 69,
      "start": 43.7471,
      "duration": 0.0995,
      "velocity": 88,
      "chip": "ym2612"
    },
    {
      "channel": 2,
      "note": 65,
      "start": 43.8532,
      "duration": 0.0995,
      "velocity": 88,
      "chip": "ym2612"
    },
    {
      "channel": 2,
      "note": 63,
      "start": 43.9637,
      "duration": 0.0996,
      "velocity": 88,
      "chip": "ym2612"
    },
    {
      "channel": 0,
      "note": 79,
      "start": 44.0696,
      "duration": 0.4163,
      "velocity": 89,
      "chip": "ym2612"
    },
    {
      "channel": 1,
      "note": 65,
      "start": 44.0709,
      "duration": 0.8757,
      "velocity": 77,
      "chip": "ym2612"
    },
    {
      "channel": 2,
      "note": 69,
      "start": 44.0717,
      "duration": 0.0983,
      "velocity": 88,
      "chip": "ym2612"
    },
    {
      "channel": 2,
      "note": 65,
      "start": 44.1803,
      "duration": 0.0996,
      "velocity": 88,
      "chip": "ym2612"
    },
    {
      "channel": 2,
      "note": 63,
      "start": 44.297,
      "duration": 0.0996,
      "velocity": 88,
      "chip": "ym2612"
    },
    {
      "channel": 2,
      "note": 60,
      "start": 44.4041,
      "duration": 0.0983,
      "velocity": 88,
      "chip": "ym2612"
    },
    {
      "channel": 0,
      "note": 81,
      "start": 44.5136,
      "duration": 0.4329,
      "velocity": 89,
      "chip": "ym2612"
    },
    {
      "channel": 2,
      "note": 63,
      "start": 44.5144,
      "duration": 0.0989,
      "velocity": 88,
      "chip": "ym2612"
    },
    {
      "channel": 2,
      "note": 60,
      "start": 44.62,
      "duration": 0.1002,
      "velocity": 88,
      "chip": "ym2612"
    },
    {
      "channel": 2,
      "note": 57,
      "start": 44.7303,
      "duration": 0.0996,
      "velocity": 88,
      "chip": "ym2612"
    },
    {
      "channel": 2,
      "note": 54,
      "start": 44.847,
      "duration": 0.0998,
      "velocity": 88,
      "chip": "ym2612"
    },
    {
      "channel": 0,
      "note": 83,
      "start": 44.9544,
      "duration": 2.1754,
      "velocity": 89,
      "chip": "ym2612"
    },
    {
      "channel": 1,
      "note": 78,
      "start": 44.9557,
      "duration": 0.2074,
      "velocity": 77,
      "chip": "ym2612"
    },
    {
      "channel": 2,
      "note": 59,
      "start": 44.9599,
      "duration": 1.3034,
      "velocity": 77,
      "chip": "ym2612"
    },
    {
      "channel": 1,
      "note": 81,
      "start": 45.1695,
      "duration": 0.2173,
      "velocity": 77,
      "chip": "ym2612"
    },
    {
      "channel": 1,
      "note": 83,
      "start": 45.397,
      "duration": 0.2065,
      "velocity": 77,
      "chip": "ym2612"
    },
    {
      "channel": 1,
      "note": 87,
      "start": 45.6137,
      "duration": 0.2057,
      "velocity": 77,
      "chip": "ym2612"
    },
    {
      "channel": 1,
      "note": 90,
      "start": 45.8303,
      "duration": 0.2162,
      "velocity": 77,
      "chip": "ym2612"
    },
    {
      "channel": 3,
      "note": 76,
      "start": 45.8311,
      "duration": 0.4407,
      "velocity": 87,
      "chip": "ym2612"
    },
    {
      "channel": 1,
      "note": 87,
      "start": 46.0513,
      "duration": 0.4118,
      "velocity": 77,
      "chip": "ym2612"
    },
    {
      "channel": 2,
      "note": 71,
      "start": 46.2714,
      "duration": 0.1085,
      "velocity": 88,
      "chip": "ym2612"
    },
    {
      "channel": 3,
      "note": 78,
      "start": 46.2721,
      "duration": 1.315,
      "velocity": 87,
      "chip": "ym2612"
    },
    {
      "channel": 2,
      "note": 69,
      "start": 46.3847,
      "duration": 0.0997,
      "velocity": 88,
      "chip": "ym2612"
    },
    {
      "channel": 2,
      "note": 66,
      "start": 46.4973,
      "duration": 0.0993,
      "velocity": 88,
      "chip": "ym2612"
    },
    {
      "channel": 2,
      "note": 63,
      "start": 46.6013,
      "duration": 0.0994,
      "velocity": 88,
      "chip": "ym2612"
    },
    {
      "channel": 1,
      "note": 71,
      "start": 46.7144,
      "duration": 0.8723,
      "velocity": 77,
      "chip": "ym2612"
    },
    {
      "channel": 2,
      "note": 66,
      "start": 46.7151,
      "duration": 0.0981,
      "velocity": 88,
      "chip": "ym2612"
    },
    {
      "channel": 2,
      "note": 63,
      "start": 46.8183,
      "duration": 0.1116,
      "velocity": 88,
      "chip": "ym2612"
    },
    {
      "channel": 2,
      "note": 59,
      "start": 46.9347,
      "duration": 0.1022,
      "velocity": 88,
      "chip": "ym2612"
    },
    {
      "channel": 2,
      "note": 57,
      "start": 47.047,
      "duration": 0.0996,
      "velocity": 88,
      "chip": "ym2612"
    },
    {
      "channel": 2,
      "note": 63,
      "start": 47.1535,
      "duration": 0.099,
      "velocity": 88,
      "chip": "ym2612"
    },
    {
      "channel": 2,
      "note": 59,
      "start": 47.2637,
      "duration": 0.0996,
      "velocity": 88,
      "chip": "ym2612"
    },
    {
      "channel": 2,
      "note": 57,
      "start": 47.3803,
      "duration": 0.0996,
      "velocity": 88,
      "chip": "ym2612"
    },
    {
      "channel": 2,
      "note": 54,
      "start": 47.4876,
      "duration": 0.0994,
      "velocity": 88,
      "chip": "ym2612"
    },
    {
      "channel": 0,
      "note": 90,
      "start": 47.5969,
      "duration": 1.3064,
      "velocity": 89,
      "chip": "ym2612"
    },
    {
      "channel": 1,
      "note": 78,
      "start": 47.5982,
      "duration": 0.2025,
      "velocity": 77,
      "chip": "ym2612"
    },
    {
      "channel": 2,
      "note": 64,
      "start": 47.6024,
      "duration": 1.3012,
      "velocity": 77,
      "chip": "ym2612"
    },
    {
      "channel": 3,
      "note": 81,
      "start": 47.6031,
      "duration": 1.315,
      "velocity": 87,
      "chip": "ym2612"
    },
    {
      "channel": 1,
      "note": 81,
      "start": 47.8136,
      "duration": 0.2162,
      "velocity": 77,
      "chip": "ym2612"
    },
    {
      "channel": 1,
      "note": 83,
      "start": 48.0347,
      "duration": 0.2118,
      "velocity": 77,
      "chip": "ym2612"
    },
    {
      "channel": 1,
      "note": 86,
      "start": 48.2513,
      "duration": 0.2178,
      "velocity": 77,
      "chip": "ym2612"
    },
    {
      "channel": 1,
      "note": 90,
      "start": 48.4803,
      "duration": 0.2057,
      "velocity": 77,
      "chip": "ym2612"
    },
    {
      "channel": 1,
      "note": 86,
      "start": 48.697,
      "duration": 0.4162,
      "velocity": 77,
      "chip": "ym2612"
    },
    {
      "channel": 0,
      "note": 88,
      "start": 48.9136,
      "duration": 1.3162,
      "velocity": 89,
      "chip": "ym2612"
    },
    {
      "channel": 2,
      "note": 71,
      "start": 48.9178,
      "duration": 0.1,
      "velocity": 88,
      "chip": "ym2612"
    },
    {
      "channel": 3,
      "note": 79,
      "start": 48.9185,
      "duration": 3.952,
      "velocity": 87,
      "chip": "ym2612"
    },
    {
      "channel": 2,
      "note": 67,
      "start": 49.0303,
      "duration": 0.0996,
      "velocity": 88,
      "chip": "ym2612"
    },
    {
      "channel": 2,
      "note": 66,
      "start": 49.1349,
      "duration": 0.0992,
      "velocity": 88,
      "chip": "ym2612"
    },
    {
      "channel": 2,
      "note": 62,
      "start": 49.247,
      "duration": 0.0996,
      "velocity": 88,
      "chip": "ym2612"
    },
    {
      "channel": 1,
      "note": 76,
      "start": 49.3524,
      "duration": 0.8776,
      "velocity": 77,
      "chip": "ym2612"
    },
    {
      "channel": 2,
      "note": 67,
      "start": 49.3531,
      "duration": 0.1102,
      "velocity": 88,
      "chip": "ym2612"
    },
    {
      "channel": 2,
      "note": 66,
      "start": 49.4681,
      "duration": 0.0994,
      "velocity": 88,
      "chip": "ym2612"
    },
    {
      "channel": 2,
      "note": 62,
      "start": 49.5803,
      "duration": 0.0996,
      "velocity": 88,
      "chip": "ym2612"
    },
    {
      "channel": 2,
      "note": 59,
      "start": 49.6877,
      "duration": 0.0982,
      "velocity": 88,
      "chip": "ym2612"
    },
    {
      "channel": 2,
      "note": 66,
      "start": 49.797,
      "duration": 0.0996,
      "velocity": 88,
      "chip": "ym2612"
    },
    {
      "channel": 2,
      "note": 62,
      "start": 49.9029,
      "duration": 0.1103,
      "velocity": 88,
      "chip": "ym2612"
    },
    {
      "channel": 2,
      "note": 59,
      "start": 50.02,
      "duration": 0.1002,
      "velocity": 88,
      "chip": "ym2612"
    },
    {
      "channel": 2,
      "note": 55,
      "start": 50.1303,
      "duration": 0.0998,
      "velocity": 88,
      "chip": "ym2612"
    },
    {
      "channel": 0,
      "note": 88,
      "start": 50.2372,
      "duration": 2.1759,
      "velocity": 89,
      "chip": "ym2612"
    },
    {
      "channel": 1,
      "note": 78,
      "start": 50.2385,
      "duration": 0.208,
      "velocity": 77,
      "chip": "ym2612"
    },
    {
      "channel": 2,
      "note": 64,
      "start": 50.2426,
      "duration": 1.3111,
      "velocity": 77,
      "chip": "ym2612"
    },
    {
      "channel": 1,
      "note": 79,
      "start": 50.4636,
      "duration": 0.2055,
      "velocity": 77,
      "chip": "ym2612"
    },
    {
      "channel": 1,
      "note": 83,
      "start": 50.6803,
      "duration": 0.2067,
      "velocity": 77,
      "chip": "ym2612"
    },
    {
      "channel": 1,
      "note": 86,
      "start": 50.897,
      "duration": 0.2162,
      "velocity": 77,
      "chip": "ym2612"
    },
    {
      "channel": 1,
      "note": 90,
      "start": 51.1197,
      "duration": 0.2102,
      "velocity": 77,
      "chip": "ym2612"
    },
    {
      "channel": 1,
      "note": 86,
      "start": 51.3364,
      "duration": 0.4163,
      "velocity": 77,
      "chip": "ym2612"
    },
    {
      "channel": 2,
      "note": 71,
      "start": 51.5671,
      "duration": 0.0962,
      "velocity": 88,
      "chip": "ym2612"
    },
    {
      "channel": 2,
      "note": 67,
      "start": 51.6707,
      "duration": 0.0983,
      "velocity": 88,
      "chip": "ym2612"
    },
    {
      "channel": 2,
      "note": 66,
      "start": 51.7806,
      "duration": 0.0993,
      "velocity": 88,
      "chip": "ym2612"
    },
    {
      "channel": 2,
      "note": 62,
      "start": 51.8866,
      "duration": 0.1001,
      "velocity": 88,
      "chip": "ym2612"
    },
    {
      "channel": 1,
      "note": 76,
      "start": 51.9978,
      "duration": 0.8723,
      "velocity": 77,
      "chip": "ym2612"
    },
    {
      "channel": 2,
      "note": 67,
      "start": 51.9985,
      "duration": 0.1049,
      "velocity": 88,
      "chip": "ym2612"
    },
    {
      "channel": 2,
      "note": 66,
      "start": 52.1137,
      "duration": 0.0996,
      "velocity": 88,
      "chip": "ym2612"
    },
    {
      "channel": 2,
      "note": 62,
      "start": 52.221,
      "duration": 0.0982,
      "velocity": 88,
      "chip": "ym2612"
    },
    {
      "channel": 2,
      "note": 59,
      "start": 52.3303,
      "duration": 0.0996,
      "velocity": 88,
      "chip": "ym2612"
    },
    {
      "channel": 2,
      "note": 66,
      "start": 52.4365,
      "duration": 0.1101,
      "velocity": 88,
      "chip": "ym2612"
    },
    {
      "channel": 2,
      "note": 62,
      "start": 52.5533,
      "duration": 0.1001,
      "velocity": 88,
      "chip": "ym2612"
    },
    {
      "channel": 2,
      "note": 59,
      "start": 52.6637,
      "duration": 0.0996,
      "velocity": 88,
      "chip": "ym2612"
    },
    {
      "channel": 2,
      "note": 55,
      "start": 52.7705,
      "duration": 0.0997,
      "velocity": 88,
      "chip": "ym2612"
    },
    {
      "channel": 1,
      "note": 78,
      "start": 52.8812,
      "duration": 0.2153,
      "velocity": 77,
      "chip": "ym2612"
    },
    {
      "channel": 1,
      "note": 79,
      "start": 53.1028,
      "duration": 0.2104,
      "velocity": 77,
      "chip": "ym2612"
    },
    {
      "channel": 1,
      "note": 83,
      "start": 53.3206,
      "duration": 0.2092,
      "velocity": 77,
      "chip": "ym2612"
    },
    {
      "channel": 1,
      "note": 86,
      "start": 53.547,
      "duration": 0.2057,
      "velocity": 77,
      "chip": "ym2612"
    },
    {
      "channel": 1,
      "note": 90,
      "start": 53.7636,
      "duration": 0.2063,
      "velocity": 77,
      "chip": "ym2612"
    },
    {
      "channel": 1,
      "note": 86,
      "start": 53.9803,
      "duration": 0.2162,
      "velocity": 77,
      "chip": "ym2612"
    },
    {
      "channel": 2,
      "note": 71,
      "start": 54.2045,
      "duration": 0.0979,
      "velocity": 88,
      "chip": "ym2612"
    },
    {
      "channel": 2,
      "note": 67,
      "start": 54.3137,
      "duration": 0.0996,
      "velocity": 88,
      "chip": "ym2612"
    },
    {
      "channel": 2,
      "note": 66,
      "start": 54.42,
      "duration": 0.1001,
      "velocity": 88,
      "chip": "ym2612"
    },
    {
      "channel": 2,
      "note": 62,
      "start": 54.5303,
      "duration": 0.0996,
      "velocity": 88,
      "chip": "ym2612"
    },
    {
      "channel": 2,
      "note": 67,
      "start": 54.647,
      "duration": 0.0996,
      "velocity": 88,
      "chip": "ym2612"
    },
    {
      "channel": 2,
      "note": 66,
      "start": 54.7543,
      "duration": 0.0982,
      "velocity": 88,
      "chip": "ym2612"
    },
    {
      "channel": 2,
      "note": 62,
      "start": 54.8637,
      "duration": 0.0996,
      "velocity": 88,
      "chip": "ym2612"
    },
    {
      "channel": 2,
      "note": 59,
      "start": 54.9696,
      "duration": 0.0996,
      "velocity": 88,
      "chip": "ym2612"
    },
    {
      "channel": 2,
      "note": 66,
      "start": 55.0803,
      "duration": 0.1064,
      "velocity": 88,
      "chip": "ym2612"
    },
    {
      "channel": 2,
      "note": 62,
      "start": 55.197,
      "duration": 0.0996,
      "velocity": 88,
      "chip": "ym2612"
    },
    {
      "channel": 2,
      "note": 59,
      "start": 55.3039,
      "duration": 0.0996,
      "velocity": 88,
      "chip": "ym2612"
    },
    {
      "channel": 2,
      "note": 55,
      "start": 55.4137,
      "duration": 0.0996,
      "velocity": 88,
      "chip": "ym2612"
    },
    {
      "channel": 1,
      "note": 78,
      "start": 55.5199,
      "duration": 0.2159,
      "velocity": 77,
      "chip": "ym2612"
    },
    {
      "channel": 1,
      "note": 79,
      "start": 55.747,
      "duration": 0.2067,
      "velocity": 77,
      "chip": "ym2612"
    },
    {
      "channel": 1,
      "note": 83,
      "start": 55.9636,
      "duration": 0.2162,
      "velocity": 77,
      "chip": "ym2612"
    },
    {
      "channel": 1,
      "note": 86,
      "start": 56.1863,
      "duration": 0.2102,
      "velocity": 77,
      "chip": "ym2612"
    },
    {
      "channel": 1,
      "note": 90,
      "start": 56.403,
      "duration": 0.2102,
      "velocity": 77,
      "chip": "ym2612"
    },
    {
      "channel": 1,
      "note": 86,
      "start": 56.6303,
      "duration": 0.2053,
      "velocity": 77,
      "chip": "ym2612"
    },
    {
      "channel": 2,
      "note": 71,
      "start": 56.8475,
      "duration": 0.0991,
      "velocity": 88,
      "chip": "ym2612"
    },
    {
      "channel": 2,
      "note": 67,
      "start": 56.9533,
      "duration": 0.1001,
      "velocity": 88,
      "chip": "ym2612"
    },
    {
      "channel": 2,
      "note": 66,
      "start": 57.0637,
      "duration": 0.0996,
      "velocity": 88,
      "chip": "ym2612"
    },
    {
      "channel": 2,
      "note": 62,
      "start": 57.1803,
      "duration": 0.0996,
      "velocity": 88,
      "chip": "ym2612"
    },
    {
      "channel": 2,
      "note": 67,
      "start": 57.2876,
      "duration": 0.0982,
      "velocity": 88,
      "chip": "ym2612"
    },
    {
      "channel": 2,
      "note": 66,
      "start": 57.397,
      "duration": 0.0996,
      "velocity": 88,
      "chip": "ym2612"
    },
    {
      "channel": 2,
      "note": 62,
      "start": 57.5029,
      "duration": 0.0996,
      "velocity": 88,
      "chip": "ym2612"
    },
    {
      "channel": 2,
      "note": 59,
      "start": 57.6137,
      "duration": 0.0996,
      "velocity": 88,
      "chip": "ym2612"
    },
    {
      "channel": 2,
      "note": 66,
      "start": 57.7303,
      "duration": 0.0996,
      "velocity": 88,
      "chip": "ym2612"
    },
    {
      "channel": 2,
      "note": 62,
      "start": 57.8372,
      "duration": 0.0996,
      "velocity": 88,
      "chip": "ym2612"
    },
    {
      "channel": 2,
      "note": 59,
      "start": 57.947,
      "duration": 0.0996,
      "velocity": 88,
      "chip": "ym2612"
    },
    {
      "channel": 2,
      "note": 55,
      "start": 58.053,
      "duration": 0.0998,
      "velocity": 88,
      "chip": "ym2612"
    },
    {
      "channel": 0,
      "note": 76,
      "start": 58.1678,
      "duration": 0.2162,
      "velocity": 77,
      "chip": "ym2612"
    },
    {
      "channel": 1,
      "note": 78,
      "start": 58.1722,
      "duration": 0.2118,
      "velocity": 77,
      "chip": "ym2612"
    },
    {
      "channel": 2,
      "note": 57,
      "start": 58.1766,
      "duration": 0.2074,
      "velocity": 88,
      "chip": "ym2612"
    },
    {
      "channel": 3,
      "note": 66,
      "start": 58.1814,
      "duration": 0.2026,
      "velocity": 92,
      "chip": "ym2612"
    }
  ]
}